<?xml version="1.0" encoding="utf-8" standalone="no"?>
<!DOCTYPE svg PUBLIC "-//W3C//DTD SVG 1.1//EN"
  "http://www.w3.org/Graphics/SVG/1.1/DTD/svg11.dtd">
<svg xmlns:xlink="http://www.w3.org/1999/xlink" width="288pt" height="120pt" viewBox="0 0 288 120" xmlns="http://www.w3.org/2000/svg" version="1.1">
<desc id="nav-meta">{"window":"1m","count":4,"labels":["18.06","28.06","07.07","17.07"],"tick_utc":["2026-06-18T05:23:06Z","2026-06-28T05:07:25Z","2026-07-07T04:37:20Z","2026-07-17T03:51:40Z"],"w":720,"h":300}</desc>

 <metadata>
  <rdf:RDF xmlns:dc="http://purl.org/dc/elements/1.1/" xmlns:cc="http://creativecommons.org/ns#" xmlns:rdf="http://www.w3.org/1999/02/22-rdf-syntax-ns#">
   <cc:Work>
    <dc:type rdf:resource="http://purl.org/dc/dcmitype/StillImage"/>
    <dc:date>2026-07-17T08:55:32.432963</dc:date>
    <dc:format>image/svg+xml</dc:format>
    <dc:creator>
     <cc:Agent>
      <dc:title>Matplotlib v3.11.0, https://matplotlib.org/</dc:title>
     </cc:Agent>
    </dc:creator>
   </cc:Work>
  </rdf:RDF>
 </metadata>
 <defs>
  <style type="text/css">*{stroke-linejoin: round; stroke-linecap: butt}</style>
 </defs>
 <g id="figure_1">
  <g id="patch_1">
   <path d="M 0 120 
L 288 120 
L 288 0 
L 0 0 
L 0 120 
z
" style="fill: none; opacity: 0"/>
  </g>
  <g id="axes_1">
   <g id="patch_2">
    <path d="M 8.64 108 
L 279.36 108 
L 279.36 4.8 
L 8.64 4.8 
L 8.64 108 
z
" style="fill: none"/>
   </g>
   <g id="matplotlib.axis_1"/>
   <g id="matplotlib.axis_2"/>
   <g id="line2d_1">
    <path d="M 8.64 87.36 
L 279.36 87.36 
" clip-path="url(#p6834ede4bf)" style="fill: none; stroke: #b2b2b2; stroke-opacity: 0.35; stroke-width: 0.5; stroke-linecap: square"/>
   </g>
   <g id="line2d_2">
    <path d="M 8.64 66.72 
L 279.36 66.72 
" clip-path="url(#p6834ede4bf)" style="fill: none; stroke: #b2b2b2; stroke-opacity: 0.35; stroke-width: 0.5; stroke-linecap: square"/>
   </g>
   <g id="line2d_3">
    <path d="M 8.64 46.08 
L 279.36 46.08 
" clip-path="url(#p6834ede4bf)" style="fill: none; stroke: #b2b2b2; stroke-opacity: 0.35; stroke-width: 0.5; stroke-linecap: square"/>
   </g>
   <g id="line2d_4">
    <path d="M 8.64 25.44 
L 279.36 25.44 
" clip-path="url(#p6834ede4bf)" style="fill: none; stroke: #b2b2b2; stroke-opacity: 0.35; stroke-width: 0.5; stroke-linecap: square"/>
   </g>
   <g id="line2d_5">
    <path d="M 8.64 102.9948 
L 18.216013 103.28376 
L 27.197551 103.01544 
L 36.747901 102.69552 
L 46.377405 102.582 
L 55.17378 102.88128 
L 64.562896 103.15992 
L 73.916062 103.36632 
L 83.319688 103.36632 
L 92.560673 102.81936 
L 102.094671 103.0464 
L 111.518005 102.9432 
L 120.692287 102.59232 
L 130.184814 102.40656 
L 139.376638 102.02472 
L 148.630509 101.68416 
L 157.945884 101.3436 
L 167.438519 101.6532 
L 176.884808 101.6532 
L 186.10013 101.63256 
L 195.201538 101.95248 
L 204.840788 102.08664 
L 214.175329 101.9112 
L 223.254756 102.066 
L 232.750314 102.18984 
L 242.126436 102.31368 
L 251.265743 102.45816 
L 260.623782 102.08664 
L 270.002827 102.21048 
L 279.36 102.4272 
" clip-path="url(#p6834ede4bf)" style="fill: none; stroke: #bebebe; stroke-width: 0.5; stroke-linecap: round"/>
   </g>
   <g id="line2d_6">
    <path d="M 8.64 93.93384 
L 18.216013 94.4292 
L 27.197551 94.19184 
L 36.747901 93.87192 
L 46.377405 93.81 
L 55.17378 94.03704 
L 64.562896 94.83168 
L 73.916062 95.48184 
L 83.319688 96.63768 
L 92.560673 96.14232 
L 102.094671 96.30744 
L 111.518005 96.29712 
L 120.692287 96.04944 
L 130.184814 95.9256 
L 139.376638 95.39928 
L 148.630509 94.31568 
L 157.945884 93.57264 
L 167.438519 93.32496 
L 176.884808 93.22176 
L 186.10013 93.35592 
L 195.201538 93.61392 
L 204.840788 93.77904 
L 214.175329 93.26304 
L 223.254756 92.92248 
L 232.750314 92.71608 
L 242.126436 93.15984 
L 251.265743 93.17016 
L 260.623782 91.80792 
L 270.002827 91.14744 
L 279.36 92.13816 
" clip-path="url(#p6834ede4bf)" style="fill: none; stroke: #4a8dff; stroke-width: 0.6"/>
   </g>
   <g id="line2d_7">
    <path d="M 8.64 101.97312 
L 18.216013 102.26208 
L 27.197551 102.066 
L 36.747901 101.90088 
L 46.377405 101.90088 
L 55.17378 102.0144 
L 64.562896 102.25176 
L 73.916062 102.6336 
L 83.319688 102.88128 
L 92.560673 102.77808 
L 102.094671 102.85032 
L 111.518005 102.93288 
L 120.692287 102.95352 
L 130.184814 103.00512 
L 139.376638 102.69552 
L 148.630509 102.55104 
L 157.945884 102.2724 
L 167.438519 102.21048 
L 176.884808 102.12792 
L 186.10013 102.13824 
L 195.201538 102.25176 
L 204.840788 102.36528 
L 214.175329 101.94216 
L 223.254756 101.92152 
L 232.750314 101.9112 
L 242.126436 102.2208 
L 251.265743 102.31368 
L 260.623782 101.79768 
L 270.002827 101.81832 
L 279.36 102.07632 
" clip-path="url(#p6834ede4bf)" style="fill: none; stroke: #f5841e; stroke-width: 0.6"/>
   </g>
  </g>
 </g>
 <defs>
  <clipPath id="p6834ede4bf">
   <rect x="8.64" y="4.8" width="270.72" height="103.2"/>
  </clipPath>
 </defs>
</svg>
