<?xml version="1.0" encoding="utf-8" standalone="no"?>
<!DOCTYPE svg PUBLIC "-//W3C//DTD SVG 1.1//EN"
  "http://www.w3.org/Graphics/SVG/1.1/DTD/svg11.dtd">
<svg xmlns:xlink="http://www.w3.org/1999/xlink" width="288pt" height="120pt" viewBox="0 0 288 120" xmlns="http://www.w3.org/2000/svg" version="1.1">
<desc id="nav-meta">{"window":"1m","count":4,"labels":["06.05","16.05","25.05","04.06"],"tick_utc":["2026-05-06T04:24:54Z","2026-05-16T04:20:56Z","2026-05-25T05:10:23Z","2026-06-04T05:26:51Z"],"w":720,"h":300}</desc>

 <metadata>
  <rdf:RDF xmlns:dc="http://purl.org/dc/elements/1.1/" xmlns:cc="http://creativecommons.org/ns#" xmlns:rdf="http://www.w3.org/1999/02/22-rdf-syntax-ns#">
   <cc:Work>
    <dc:type rdf:resource="http://purl.org/dc/dcmitype/StillImage"/>
    <dc:date>2026-06-04T16:04:29.277588</dc:date>
    <dc:format>image/svg+xml</dc:format>
    <dc:creator>
     <cc:Agent>
      <dc:title>Matplotlib v3.10.9, https://matplotlib.org/</dc:title>
     </cc:Agent>
    </dc:creator>
   </cc:Work>
  </rdf:RDF>
 </metadata>
 <defs>
  <style type="text/css">*{stroke-linejoin: round; stroke-linecap: butt}</style>
 </defs>
 <g id="figure_1">
  <g id="patch_1">
   <path d="M 0 120 
L 288 120 
L 288 0 
L 0 0 
L 0 120 
z
" style="fill: none; opacity: 0"/>
  </g>
  <g id="axes_1">
   <g id="patch_2">
    <path d="M 8.64 108 
L 279.36 108 
L 279.36 4.8 
L 8.64 4.8 
L 8.64 108 
z
" style="fill: none"/>
   </g>
   <g id="matplotlib.axis_1"/>
   <g id="matplotlib.axis_2"/>
   <g id="line2d_1">
    <path d="M 8.64 87.36 
L 279.36 87.36 
" clip-path="url(#p284a3efe06)" style="fill: none; stroke: #b2b2b2; stroke-opacity: 0.35; stroke-width: 0.5; stroke-linecap: square"/>
   </g>
   <g id="line2d_2">
    <path d="M 8.64 66.72 
L 279.36 66.72 
" clip-path="url(#p284a3efe06)" style="fill: none; stroke: #b2b2b2; stroke-opacity: 0.35; stroke-width: 0.5; stroke-linecap: square"/>
   </g>
   <g id="line2d_3">
    <path d="M 8.64 46.08 
L 279.36 46.08 
" clip-path="url(#p284a3efe06)" style="fill: none; stroke: #b2b2b2; stroke-opacity: 0.35; stroke-width: 0.5; stroke-linecap: square"/>
   </g>
   <g id="line2d_4">
    <path d="M 8.64 25.44 
L 279.36 25.44 
" clip-path="url(#p284a3efe06)" style="fill: none; stroke: #b2b2b2; stroke-opacity: 0.35; stroke-width: 0.5; stroke-linecap: square"/>
   </g>
   <g id="line2d_5">
    <path d="M 8.64 100.70376 
L 17.963826 100.55928 
L 27.13003 100.53864 
L 36.485467 99.60984 
L 45.99464 99.72336 
L 55.389563 99.44472 
L 64.581444 99.25896 
L 73.94713 99.32088 
L 83.258117 100.22904 
L 92.625421 100.01232 
L 101.827767 100.43544 
L 111.288285 100.75536 
L 120.700145 101.02368 
L 129.954708 101.02368 
L 139.309389 101.17848 
L 148.683814 100.7244 
L 157.933738 100.75536 
L 167.127021 101.11656 
L 176.595954 100.91016 
L 186.039965 100.89984 
L 195.220086 101.1372 
L 204.637126 101.2404 
L 213.928693 101.6532 
L 223.256943 101.4984 
L 232.443861 101.48808 
L 241.955516 101.32296 
L 251.414739 101.51904 
L 260.64438 101.7048 
L 270.07059 102.54072 
L 279.36 103.08768 
" clip-path="url(#p284a3efe06)" style="fill: none; stroke: #bebebe; stroke-width: 0.5; stroke-linecap: round"/>
   </g>
   <g id="line2d_6">
    <path d="M 8.64 84.34656 
L 17.963826 85.06896 
L 27.13003 85.7604 
L 36.485467 85.0896 
L 45.99464 85.01736 
L 55.389563 84.9348 
L 64.581444 85.296 
L 73.94713 85.35792 
L 83.258117 86.1732 
L 92.625421 85.92552 
L 101.827767 86.55504 
L 111.288285 87.13296 
L 120.700145 88.10304 
L 129.954708 87.9276 
L 139.309389 88.26816 
L 148.683814 87.78312 
L 157.933738 87.95856 
L 167.127021 88.94928 
L 176.595954 88.14432 
L 186.039965 88.33008 
L 195.220086 88.52616 
L 204.637126 88.86672 
L 213.928693 90.22896 
L 223.256943 89.82648 
L 232.443861 89.87808 
L 241.955516 89.46528 
L 251.414739 90.0432 
L 260.64438 89.96064 
L 270.07059 91.99368 
L 279.36 93.05664 
" clip-path="url(#p284a3efe06)" style="fill: none; stroke: #4a8dff; stroke-width: 0.6"/>
   </g>
   <g id="line2d_7">
    <path d="M 8.64 92.25168 
L 17.963826 92.87088 
L 27.13003 94.2744 
L 36.485467 93.1392 
L 45.99464 92.97408 
L 55.389563 92.9844 
L 64.581444 92.60256 
L 73.94713 92.53032 
L 83.258117 94.54272 
L 92.625421 92.85024 
L 101.827767 94.82136 
L 111.288285 95.75016 
L 120.700145 96.97824 
L 129.954708 97.08144 
L 139.309389 97.23624 
L 148.683814 95.94624 
L 157.933738 96.30744 
L 167.127021 98.08248 
L 176.595954 97.2672 
L 186.039965 96.61704 
L 195.220086 97.23624 
L 204.637126 98.08248 
L 213.928693 99.18672 
L 223.256943 99.03192 
L 232.443861 99.1248 
L 241.955516 98.74296 
L 251.414739 99.09384 
L 260.64438 100.0536 
L 270.07059 101.23008 
L 279.36 101.99376 
" clip-path="url(#p284a3efe06)" style="fill: none; stroke: #f5841e; stroke-width: 0.6"/>
   </g>
  </g>
 </g>
 <defs>
  <clipPath id="p284a3efe06">
   <rect x="8.64" y="4.8" width="270.72" height="103.2"/>
  </clipPath>
 </defs>
</svg>
