<?xml version="1.0" encoding="utf-8" standalone="no"?>
<!DOCTYPE svg PUBLIC "-//W3C//DTD SVG 1.1//EN"
  "http://www.w3.org/Graphics/SVG/1.1/DTD/svg11.dtd">
<svg xmlns:xlink="http://www.w3.org/1999/xlink" width="288pt" height="120pt" viewBox="0 0 288 120" xmlns="http://www.w3.org/2000/svg" version="1.1">
<desc id="nav-meta">{"window":"3m","count":4,"labels":["27.11","27.12","25.01","24.02"],"tick_utc":["2025-11-27T12:00:00Z","2025-12-27T12:00:00Z","2026-01-25T12:00:00Z","2026-02-24T01:30:44Z"],"w":720,"h":300}</desc>

 <metadata>
  <rdf:RDF xmlns:dc="http://purl.org/dc/elements/1.1/" xmlns:cc="http://creativecommons.org/ns#" xmlns:rdf="http://www.w3.org/1999/02/22-rdf-syntax-ns#">
   <cc:Work>
    <dc:type rdf:resource="http://purl.org/dc/dcmitype/StillImage"/>
    <dc:date>2026-02-24T19:37:56.523559</dc:date>
    <dc:format>image/svg+xml</dc:format>
    <dc:creator>
     <cc:Agent>
      <dc:title>Matplotlib v3.10.8, https://matplotlib.org/</dc:title>
     </cc:Agent>
    </dc:creator>
   </cc:Work>
  </rdf:RDF>
 </metadata>
 <defs>
  <style type="text/css">*{stroke-linejoin: round; stroke-linecap: butt}</style>
 </defs>
 <g id="figure_1">
  <g id="patch_1">
   <path d="M 0 120 
L 288 120 
L 288 0 
L 0 0 
L 0 120 
z
" style="fill: none; opacity: 0"/>
  </g>
  <g id="axes_1">
   <g id="patch_2">
    <path d="M 8.64 108 
L 279.36 108 
L 279.36 4.8 
L 8.64 4.8 
L 8.64 108 
z
" style="fill: none"/>
   </g>
   <g id="matplotlib.axis_1"/>
   <g id="matplotlib.axis_2"/>
   <g id="line2d_1">
    <path d="M 8.64 87.36 
L 279.36 87.36 
" clip-path="url(#pab70f228ca)" style="fill: none; stroke: #b2b2b2; stroke-opacity: 0.35; stroke-width: 0.5; stroke-linecap: square"/>
   </g>
   <g id="line2d_2">
    <path d="M 8.64 66.72 
L 279.36 66.72 
" clip-path="url(#pab70f228ca)" style="fill: none; stroke: #b2b2b2; stroke-opacity: 0.35; stroke-width: 0.5; stroke-linecap: square"/>
   </g>
   <g id="line2d_3">
    <path d="M 8.64 46.08 
L 279.36 46.08 
" clip-path="url(#pab70f228ca)" style="fill: none; stroke: #b2b2b2; stroke-opacity: 0.35; stroke-width: 0.5; stroke-linecap: square"/>
   </g>
   <g id="line2d_4">
    <path d="M 8.64 25.44 
L 279.36 25.44 
" clip-path="url(#pab70f228ca)" style="fill: none; stroke: #b2b2b2; stroke-opacity: 0.35; stroke-width: 0.5; stroke-linecap: square"/>
   </g>
   <g id="line2d_5">
    <path d="M 8.64 87.45288 
L 11.696807 88.0308 
L 14.753613 88.94928 
L 17.81042 89.3208 
L 20.867227 89.7336 
L 23.924033 91.86984 
L 26.98084 88.60872 
L 30.037647 86.87496 
L 33.094454 88.52616 
L 36.15126 90.11544 
L 39.208067 90.38376 
L 42.264874 90.53856 
L 45.32168 90.08448 
L 48.378487 88.79448 
L 51.435294 89.20728 
L 54.4921 89.22792 
L 57.548907 90.31152 
L 60.605714 90.10512 
L 63.662521 91.09584 
L 66.719327 91.61184 
L 69.776134 91.31256 
L 72.832941 92.87088 
L 75.889747 93.8616 
L 78.946554 92.02464 
L 82.003361 92.13816 
L 85.060167 92.07624 
L 88.116974 92.14848 
L 91.173781 92.64384 
L 94.230588 93.01536 
L 97.287394 93.69648 
L 100.344201 93.11856 
L 103.401008 92.44776 
L 106.457814 92.30328 
L 109.514621 92.87088 
L 112.571428 92.38584 
L 115.628234 92.47872 
L 118.685041 91.88016 
L 121.741848 90.42504 
L 124.798655 90.08448 
L 127.855461 89.92968 
L 130.912268 88.76352 
L 133.969075 87.94824 
L 137.025881 89.2692 
L 140.082688 88.72224 
L 143.139495 89.39304 
L 146.196301 89.40336 
L 149.253108 88.41264 
L 152.309915 88.4952 
L 155.366722 86.86464 
L 158.423528 86.42088 
L 161.480335 87.62832 
L 164.537142 86.93688 
L 167.593948 87.23616 
L 170.650755 88.63968 
L 173.707562 90.0432 
L 176.764368 92.12784 
L 179.821175 91.16808 
L 182.877982 91.46736 
L 185.934789 91.73568 
L 188.991595 91.78728 
L 192.048402 94.0164 
L 195.105209 92.5716 
L 198.162015 91.76664 
L 201.218822 92.33424 
L 204.275629 94.36728 
L 207.332435 94.46016 
L 210.389242 97.71096 
L 213.446049 98.48496 
L 216.502856 97.85544 
L 219.083487 99.10416 
L 221.512693 100.16712 
L 224.567943 102.23112 
L 227.611659 100.54896 
L 230.738341 100.70376 
L 233.769922 100.68312 
L 236.844171 100.95144 
L 239.894644 101.28168 
L 242.940448 101.71512 
L 245.996335 101.84928 
L 249.016382 101.034 
L 251.911892 100.54896 
L 255.164774 101.04432 
L 257.837604 100.81728 
L 261.27354 101.034 
L 264.326632 101.4984 
L 267.365572 101.33328 
L 270.403698 101.1372 
L 273.495424 101.06496 
L 276.56143 102.09696 
L 279.36 102.05568 
" clip-path="url(#pab70f228ca)" style="fill: none; stroke: #bebebe; stroke-width: 0.5; stroke-linecap: round"/>
   </g>
   <g id="line2d_6">
    <path d="M 8.64 74.65608 
L 11.696807 74.83152 
L 14.753613 74.57352 
L 17.81042 75.20304 
L 20.867227 75.17208 
L 23.924033 78.05136 
L 26.98084 75.1308 
L 30.037647 72.16896 
L 33.094454 73.08744 
L 36.15126 74.72832 
L 39.208067 74.48064 
L 42.264874 74.28456 
L 45.32168 73.21128 
L 48.378487 70.2804 
L 51.435294 70.2288 
L 54.4921 71.56008 
L 57.548907 73.79952 
L 60.605714 73.35576 
L 63.662521 74.0988 
L 66.719327 75.5952 
L 69.776134 75.5952 
L 72.832941 77.61792 
L 75.889747 77.63856 
L 78.946554 75.40944 
L 82.003361 75.40944 
L 85.060167 75.04824 
L 88.116974 74.98632 
L 91.173781 75.58488 
L 94.230588 75.87384 
L 97.287394 76.49304 
L 100.344201 76.15248 
L 103.401008 75.82224 
L 106.457814 75.84288 
L 109.514621 76.03896 
L 112.571428 75.51264 
L 115.628234 75.56424 
L 118.685041 75.05856 
L 121.741848 73.26288 
L 124.798655 73.20096 
L 127.855461 73.00488 
L 130.912268 71.68392 
L 133.969075 70.6932 
L 137.025881 72.62304 
L 140.082688 73.52088 
L 143.139495 73.83048 
L 146.196301 73.8408 
L 149.253108 73.29384 
L 152.309915 73.72728 
L 155.366722 70.32168 
L 158.423528 69.77472 
L 161.480335 70.34232 
L 164.537142 70.67256 
L 167.593948 70.51776 
L 170.650755 70.848 
L 173.707562 72.31344 
L 176.764368 76.01832 
L 179.821175 75.41976 
L 182.877982 75.83256 
L 185.934789 75.79128 
L 188.991595 75.82224 
L 192.048402 77.82432 
L 195.105209 76.14216 
L 198.162015 74.75928 
L 201.218822 74.96568 
L 204.275629 77.75208 
L 207.332435 79.48584 
L 210.389242 83.31456 
L 213.446049 85.90488 
L 216.502856 84.79032 
L 219.083487 85.84296 
L 221.512693 88.25784 
L 224.567943 91.41576 
L 227.611659 88.7532 
L 230.738341 88.65 
L 233.769922 88.55712 
L 236.844171 88.96992 
L 239.894644 89.7336 
L 242.940448 90.456 
L 245.996335 90.56952 
L 249.016382 89.15568 
L 251.911892 88.9596 
L 255.164774 90.6624 
L 257.837604 89.94 
L 261.27354 90.00192 
L 264.326632 90.3528 
L 267.365572 90.62112 
L 270.403698 90.5076 
L 273.495424 90.3528 
L 276.56143 92.004 
L 279.36 92.13816 
" clip-path="url(#pab70f228ca)" style="fill: none; stroke: #4a8dff; stroke-width: 0.6"/>
   </g>
   <g id="line2d_7">
    <path d="M 8.64 82.96368 
L 11.696807 82.13808 
L 14.753613 82.47864 
L 17.81042 82.58184 
L 20.867227 83.03592 
L 23.924033 87.3084 
L 26.98084 82.06584 
L 30.037647 79.71288 
L 33.094454 81.24024 
L 36.15126 84.17112 
L 39.208067 84.24336 
L 42.264874 83.29392 
L 45.32168 82.8192 
L 48.378487 80.64168 
L 51.435294 81.38472 
L 54.4921 80.87904 
L 57.548907 83.13912 
L 60.605714 83.19072 
L 63.662521 85.296 
L 66.719327 87.17424 
L 69.776134 85.71912 
L 72.832941 87.53544 
L 75.889747 88.17528 
L 78.946554 85.41984 
L 82.003361 85.17216 
L 85.060167 84.9348 
L 88.116974 85.01736 
L 91.173781 86.14224 
L 94.230588 85.90488 
L 97.287394 86.328 
L 100.344201 86.24544 
L 103.401008 85.72944 
L 106.457814 85.7088 
L 109.514621 86.40024 
L 112.571428 85.09992 
L 115.628234 86.02872 
L 118.685041 84.78 
L 121.741848 83.53128 
L 124.798655 82.83984 
L 127.855461 82.03488 
L 130.912268 79.39296 
L 133.969075 79.66128 
L 137.025881 82.15872 
L 140.082688 82.43736 
L 143.139495 82.93272 
L 146.196301 83.00496 
L 149.253108 82.6128 
L 152.309915 82.28256 
L 155.366722 78.01008 
L 158.423528 76.19376 
L 161.480335 77.66952 
L 164.537142 77.74176 
L 167.593948 78.1752 
L 170.650755 79.5684 
L 173.707562 80.8068 
L 176.764368 85.20312 
L 179.821175 84.12984 
L 182.877982 84.03696 
L 185.934789 84.06792 
L 188.991595 84.3156 
L 192.048402 87.02976 
L 195.105209 85.21344 
L 198.162015 84.28464 
L 201.218822 84.32592 
L 204.275629 89.08344 
L 207.332435 89.5272 
L 210.389242 95.14128 
L 213.446049 96.98856 
L 216.502856 95.08968 
L 219.083487 97.71096 
L 221.512693 99.80592 
L 224.567943 101.79768 
L 227.611659 100.03296 
L 230.738341 100.518 
L 233.769922 99.98136 
L 236.844171 100.49736 
L 239.894644 100.78632 
L 242.940448 101.07528 
L 245.996335 101.26104 
L 249.016382 100.63152 
L 251.911892 100.38384 
L 255.164774 100.84824 
L 257.837604 100.65216 
L 261.27354 101.034 
L 264.326632 101.19912 
L 267.365572 101.10624 
L 270.403698 100.97208 
L 273.495424 100.91016 
L 276.56143 101.7564 
L 279.36 101.84928 
" clip-path="url(#pab70f228ca)" style="fill: none; stroke: #f5841e; stroke-width: 0.6"/>
   </g>
  </g>
 </g>
 <defs>
  <clipPath id="pab70f228ca">
   <rect x="8.64" y="4.8" width="270.72" height="103.2"/>
  </clipPath>
 </defs>
</svg>
