<?xml version="1.0" encoding="utf-8" standalone="no"?>
<!DOCTYPE svg PUBLIC "-//W3C//DTD SVG 1.1//EN"
  "http://www.w3.org/Graphics/SVG/1.1/DTD/svg11.dtd">
<svg xmlns:xlink="http://www.w3.org/1999/xlink" width="288pt" height="120pt" viewBox="0 0 288 120" xmlns="http://www.w3.org/2000/svg" version="1.1">
<desc id="nav-meta">{"window":"1y","count":4,"labels":["22.04","21.08","20.12","21.04"],"tick_utc":["2025-04-22T12:00:00Z","2025-08-21T12:00:00Z","2025-12-20T12:00:00Z","2026-04-21T03:56:07Z"],"w":720,"h":300}</desc>

 <metadata>
  <rdf:RDF xmlns:dc="http://purl.org/dc/elements/1.1/" xmlns:cc="http://creativecommons.org/ns#" xmlns:rdf="http://www.w3.org/1999/02/22-rdf-syntax-ns#">
   <cc:Work>
    <dc:type rdf:resource="http://purl.org/dc/dcmitype/StillImage"/>
    <dc:date>2026-04-21T19:48:34.041125</dc:date>
    <dc:format>image/svg+xml</dc:format>
    <dc:creator>
     <cc:Agent>
      <dc:title>Matplotlib v3.10.8, https://matplotlib.org/</dc:title>
     </cc:Agent>
    </dc:creator>
   </cc:Work>
  </rdf:RDF>
 </metadata>
 <defs>
  <style type="text/css">*{stroke-linejoin: round; stroke-linecap: butt}</style>
 </defs>
 <g id="figure_1">
  <g id="patch_1">
   <path d="M 0 120 
L 288 120 
L 288 0 
L 0 0 
L 0 120 
z
" style="fill: none; opacity: 0"/>
  </g>
  <g id="axes_1">
   <g id="patch_2">
    <path d="M 8.64 108 
L 279.36 108 
L 279.36 4.8 
L 8.64 4.8 
L 8.64 108 
z
" style="fill: none"/>
   </g>
   <g id="matplotlib.axis_1"/>
   <g id="matplotlib.axis_2"/>
   <g id="line2d_1">
    <path d="M 8.64 87.36 
L 279.36 87.36 
" clip-path="url(#p2d6f938dde)" style="fill: none; stroke: #b2b2b2; stroke-opacity: 0.35; stroke-width: 0.5; stroke-linecap: square"/>
   </g>
   <g id="line2d_2">
    <path d="M 8.64 66.72 
L 279.36 66.72 
" clip-path="url(#p2d6f938dde)" style="fill: none; stroke: #b2b2b2; stroke-opacity: 0.35; stroke-width: 0.5; stroke-linecap: square"/>
   </g>
   <g id="line2d_3">
    <path d="M 8.64 46.08 
L 279.36 46.08 
" clip-path="url(#p2d6f938dde)" style="fill: none; stroke: #b2b2b2; stroke-opacity: 0.35; stroke-width: 0.5; stroke-linecap: square"/>
   </g>
   <g id="line2d_4">
    <path d="M 8.64 25.44 
L 279.36 25.44 
" clip-path="url(#p2d6f938dde)" style="fill: none; stroke: #b2b2b2; stroke-opacity: 0.35; stroke-width: 0.5; stroke-linecap: square"/>
   </g>
   <g id="line2d_5">
    <path d="M 8.64 89.25888 
L 9.384423 85.84296 
L 10.128847 85.2444 
L 10.87327 84.8832 
L 13.106541 85.99776 
L 13.850964 86.07 
L 14.595388 86.4828 
L 15.339811 86.14224 
L 16.084235 85.31664 
L 16.828658 86.07 
L 17.573082 86.38992 
L 18.317505 87.16392 
L 19.061929 86.38992 
L 20.550776 86.28672 
L 21.295199 81.84912 
L 22.039623 79.32072 
L 22.784046 78.05136 
L 23.52847 79.26912 
L 24.272893 78.846 
L 25.017317 76.2144 
L 26.506164 80.394 
L 27.250587 80.66232 
L 27.995011 81.168 
L 28.739434 79.63032 
L 29.483858 80.95128 
L 30.228281 80.4972 
L 31.717128 77.43216 
L 32.461552 78.846 
L 33.205975 78.41256 
L 33.950399 78.64992 
L 34.694822 78.76344 
L 35.439245 78.25776 
L 36.183669 79.47552 
L 36.928092 80.92032 
L 37.672516 83.73768 
L 38.416939 83.6448 
L 39.161363 83.4384 
L 39.905786 83.61384 
L 40.65021 83.99568 
L 41.394633 84.55296 
L 42.139057 87.00912 
L 42.88348 85.98744 
L 43.627904 85.5024 
L 44.372327 84.8316 
L 45.116751 82.46832 
L 45.861174 81.426 
L 46.605598 82.5096 
L 47.350021 84.79032 
L 48.838868 86.95752 
L 49.583292 84.79032 
L 50.327715 85.13088 
L 51.072139 86.07 
L 51.816562 86.5344 
L 52.560986 86.31768 
L 54.049833 89.97096 
L 54.794256 90.48696 
L 55.53868 86.9472 
L 56.283103 86.66856 
L 57.027527 87.32904 
L 57.77195 88.53648 
L 58.516374 87.6696 
L 59.260797 85.30632 
L 60.00522 84.61488 
L 60.749644 84.17112 
L 61.494067 86.3796 
L 62.238491 84.92448 
L 62.982914 84.89352 
L 63.727338 86.13192 
L 64.471761 86.1732 
L 65.216185 84.99672 
L 65.960608 85.85328 
L 66.705032 85.01736 
L 67.449455 83.55192 
L 68.193879 81.7356 
L 68.938302 82.03488 
L 69.682726 82.65408 
L 71.171573 82.15872 
L 71.915996 81.70464 
L 72.66042 79.01112 
L 73.404843 78.39192 
L 74.149267 78.04104 
L 74.89369 78.16488 
L 75.638114 77.05032 
L 76.382537 72.82944 
L 77.126961 70.41456 
L 77.871384 74.69736 
L 78.615808 76.6272 
L 79.360231 75.63648 
L 80.104655 75.97704 
L 80.849078 74.976 
L 81.593502 76.49304 
L 82.337925 76.99872 
L 83.082349 77.90688 
L 83.826772 79.4652 
L 84.571196 82.02456 
L 85.315619 83.19072 
L 86.060042 82.27224 
L 86.804466 80.21856 
L 87.548889 81.67368 
L 88.293313 80.5488 
L 89.037736 78.588 
L 89.78216 78.19584 
L 90.526583 77.21544 
L 91.271007 76.524 
L 92.01543 78.68088 
L 92.759854 73.88208 
L 93.504277 71.364 
L 94.248701 73.8408 
L 94.993124 75.79128 
L 95.737548 74.65608 
L 96.481971 74.14008 
L 97.226395 76.50336 
L 97.970818 78.30936 
L 98.715242 75.3372 
L 99.459665 77.25672 
L 100.204089 71.78712 
L 100.948512 70.75512 
L 101.692936 70.24944 
L 102.437359 75.35784 
L 103.181783 72.95328 
L 103.926206 70.96152 
L 104.67063 67.87584 
L 105.415053 70.46616 
L 106.159477 71.11632 
L 106.9039 71.61168 
L 107.648324 72.7056 
L 108.392747 69.33096 
L 109.137171 68.9388 
L 109.881594 71.12664 
L 110.626018 70.90992 
L 111.370441 71.80776 
L 112.114864 70.074 
L 112.859288 68.01 
L 113.603711 67.10184 
L 114.348135 65.29584 
L 115.092558 64.01616 
L 115.836982 60.31128 
L 116.581405 60.19776 
L 117.325829 60.786 
L 118.070252 62.61264 
L 118.814676 61.74576 
L 119.559099 59.57856 
L 120.303523 58.86648 
L 121.047946 61.38456 
L 121.79237 61.07496 
L 122.536793 61.83864 
L 123.281217 66.29688 
L 124.02564 67.97904 
L 124.770064 68.69112 
L 125.514487 73.9956 
L 126.258911 70.45584 
L 127.003334 70.87896 
L 127.747758 68.91816 
L 128.492181 68.3196 
L 129.236605 69.47544 
L 130.725452 62.39592 
L 131.469875 62.81904 
L 132.214299 64.22256 
L 132.958722 64.05744 
L 133.703146 62.9532 
L 134.447569 66.14208 
L 135.191993 63.91296 
L 135.936416 66.17304 
L 136.680839 74.6148 
L 137.425263 77.78304 
L 138.169686 72.66432 
L 138.91411 69.69216 
L 139.658533 71.09568 
L 141.14738 76.06992 
L 141.891804 76.76136 
L 142.636227 75.25464 
L 143.380651 75.24432 
L 144.125074 74.63544 
L 144.869498 75.73968 
L 145.613921 77.31864 
L 146.358345 74.202 
L 147.102768 73.64472 
L 147.847192 73.48992 
L 148.591615 71.83872 
L 149.336039 72.17928 
L 150.080462 73.38672 
L 150.824886 73.43832 
L 151.569309 76.15248 
L 152.313733 75.3372 
L 153.058156 75.58488 
L 153.80258 75.35784 
L 154.547003 81.168 
L 155.291427 84.01632 
L 156.03585 82.06584 
L 156.780274 84.19176 
L 157.524697 82.27224 
L 158.269121 83.29392 
L 159.013544 81.62208 
L 159.757968 80.72424 
L 160.502391 84.33624 
L 161.246815 84.64584 
L 161.991238 86.844 
L 162.735661 88.52616 
L 163.480085 88.36104 
L 164.224508 88.93896 
L 164.968932 90.79656 
L 165.713355 88.09272 
L 166.457779 89.22792 
L 167.202202 90.00192 
L 167.946626 91.39512 
L 168.691049 91.63248 
L 169.435473 90.75528 
L 170.179896 88.7016 
L 170.92432 88.52616 
L 171.668743 87.45288 
L 172.413167 88.0308 
L 173.15759 88.94928 
L 174.646437 89.7336 
L 175.390861 91.86984 
L 176.135284 88.60872 
L 176.879708 86.87496 
L 178.368555 90.11544 
L 179.857402 90.53856 
L 180.601825 90.08448 
L 181.346249 88.79448 
L 182.090672 89.20728 
L 182.835096 89.22792 
L 183.579519 90.31152 
L 184.323943 90.10512 
L 185.068366 91.09584 
L 185.81279 91.61184 
L 186.557213 91.31256 
L 187.301637 92.87088 
L 188.04606 93.8616 
L 188.790483 92.02464 
L 189.534907 92.13816 
L 190.27933 92.07624 
L 191.023754 92.14848 
L 193.257024 93.69648 
L 194.745871 92.44776 
L 195.490295 92.30328 
L 196.234718 92.87088 
L 196.979142 92.38584 
L 197.723565 92.47872 
L 198.467989 91.88016 
L 199.212412 90.42504 
L 199.956836 90.08448 
L 200.701259 89.92968 
L 201.445683 88.76352 
L 202.190106 87.94824 
L 202.93453 89.2692 
L 203.678953 88.72224 
L 204.423377 89.39304 
L 205.1678 89.40336 
L 205.912224 88.41264 
L 206.656647 88.4952 
L 207.401071 86.86464 
L 208.145494 86.42088 
L 208.889918 87.62832 
L 209.634341 86.93688 
L 210.378765 87.23616 
L 211.867612 90.0432 
L 212.612035 92.12784 
L 213.356458 91.16808 
L 214.845305 91.73568 
L 215.589729 91.78728 
L 216.334152 94.0164 
L 217.078576 92.5716 
L 217.822999 91.76664 
L 218.567423 92.33424 
L 219.311846 94.36728 
L 220.05627 94.46016 
L 220.800693 97.71096 
L 221.545117 98.48496 
L 222.28954 97.85544 
L 223.509585 100.16712 
L 224.253629 102.23112 
L 224.994865 100.54896 
L 225.756305 100.70376 
L 226.494585 100.68312 
L 227.986138 101.28168 
L 228.727882 101.71512 
L 229.472081 101.84928 
L 230.207552 101.034 
L 230.912696 100.54896 
L 231.704869 101.04432 
L 232.355783 100.81728 
L 233.192536 101.034 
L 233.936054 101.4984 
L 236.168928 101.06496 
L 236.915592 102.09696 
L 237.597127 102.05568 
L 238.40176 101.4984 
L 239.142866 100.60056 
L 239.885876 100.80696 
L 240.621529 101.45712 
L 241.382865 100.55928 
L 242.119603 101.10624 
L 243.606012 100.74504 
L 244.352038 100.21872 
L 245.096108 100.53864 
L 245.834819 101.07528 
L 246.586472 101.38488 
L 247.333127 101.26104 
L 248.072768 100.78632 
L 249.564252 100.99272 
L 250.307236 100.38384 
L 251.809335 100.60056 
L 252.555861 99.76464 
L 253.287257 99.49632 
L 254.037358 99.40344 
L 254.781988 100.09488 
L 255.519166 100.3632 
L 256.25923 100.19808 
L 257.760958 100.79664 
L 258.498488 100.26 
L 259.298356 99.83688 
L 259.996391 100.13616 
L 261.47906 101.38488 
L 264.470712 101.28168 
L 265.20533 101.8596 
L 265.950607 101.88024 
L 266.688654 101.72544 
L 267.444287 101.68416 
L 268.190632 101.47776 
L 268.930222 101.78736 
L 269.675852 101.09592 
L 270.417682 101.46744 
L 271.168955 101.3436 
L 271.901997 101.05464 
L 272.659775 101.3952 
L 273.408015 101.47776 
L 274.1477 100.86888 
L 274.891555 101.26104 
L 277.11832 100.44576 
L 277.872575 100.94112 
L 278.618842 101.09592 
L 279.36 101.00304 
L 279.36 101.00304 
" clip-path="url(#p2d6f938dde)" style="fill: none; stroke: #bebebe; stroke-width: 0.5; stroke-linecap: round"/>
   </g>
   <g id="line2d_6">
    <path d="M 8.64 96.17328 
L 9.384423 93.46944 
L 10.128847 92.96376 
L 10.87327 93.32496 
L 11.617694 93.036 
L 12.362117 92.56128 
L 13.106541 92.96376 
L 13.850964 92.8812 
L 15.339811 92.96376 
L 16.084235 92.29296 
L 16.828658 92.262 
L 17.573082 92.3652 
L 18.317505 92.74704 
L 19.061929 92.5716 
L 20.550776 92.71608 
L 21.295199 86.97816 
L 22.039623 84.84192 
L 22.784046 81.24024 
L 23.52847 82.37544 
L 24.272893 82.60248 
L 25.017317 79.86768 
L 26.506164 81.85944 
L 27.250587 81.82848 
L 27.995011 82.86048 
L 28.739434 83.00496 
L 29.483858 82.08648 
L 30.228281 82.12776 
L 30.972705 81.61176 
L 31.717128 80.15664 
L 32.461552 82.18968 
L 33.950399 81.79752 
L 34.694822 81.56016 
L 35.439245 80.0844 
L 36.183669 79.86768 
L 36.928092 80.50752 
L 37.672516 82.12776 
L 39.161363 81.92136 
L 39.905786 80.8584 
L 40.65021 81.07512 
L 41.394633 80.84808 
L 42.139057 83.6448 
L 42.88348 82.7676 
L 43.627904 82.0968 
L 44.372327 82.3548 
L 45.116751 79.74384 
L 45.861174 77.90688 
L 46.605598 78.39192 
L 47.350021 80.21856 
L 48.094445 81.34344 
L 48.838868 81.98328 
L 50.327715 81.5808 
L 51.072139 82.26192 
L 52.560986 82.15872 
L 53.305409 83.88216 
L 54.049833 85.89456 
L 54.794256 86.5344 
L 55.53868 83.61384 
L 56.283103 83.2836 
L 57.027527 83.71704 
L 57.77195 83.748 
L 59.260797 83.41776 
L 60.00522 82.44768 
L 60.749644 82.6644 
L 61.494067 83.89248 
L 62.238491 81.38472 
L 62.982914 81.14736 
L 63.727338 82.34448 
L 64.471761 82.23096 
L 65.216185 81.426 
L 65.960608 81.8388 
L 66.705032 80.76552 
L 68.193879 75.83256 
L 68.938302 75.67776 
L 69.682726 75.91512 
L 71.171573 74.88312 
L 71.915996 73.09776 
L 72.66042 69.6096 
L 73.404843 67.91712 
L 74.149267 66.94704 
L 74.89369 66.24528 
L 75.638114 63.80976 
L 76.382537 63.70656 
L 77.126961 63.9852 
L 77.871384 65.71896 
L 78.615808 64.5528 
L 80.104655 64.05744 
L 80.849078 62.25144 
L 81.593502 63.39696 
L 82.337925 63.366 
L 83.082349 63.08736 
L 83.826772 64.72824 
L 84.571196 67.89648 
L 85.315619 69.16584 
L 86.060042 67.69008 
L 86.804466 64.4496 
L 87.548889 65.97696 
L 88.293313 64.914 
L 89.037736 61.54968 
L 89.78216 60.04296 
L 90.526583 56.28648 
L 91.271007 56.47224 
L 92.01543 56.83344 
L 92.759854 51.22968 
L 93.504277 48.89736 
L 94.248701 52.00368 
L 94.993124 53.84064 
L 95.737548 53.90256 
L 96.481971 53.00472 
L 97.226395 55.5228 
L 97.970818 59.12448 
L 98.715242 55.32672 
L 99.459665 56.90568 
L 100.204089 47.92728 
L 100.948512 48.75288 
L 101.692936 48.68064 
L 102.437359 54.57336 
L 103.181783 51.2916 
L 103.926206 52.80864 
L 104.67063 52.69512 
L 105.415053 54.82104 
L 106.9039 54.45984 
L 107.648324 55.7292 
L 108.392747 55.39896 
L 109.137171 53.55168 
L 109.881594 55.81176 
L 110.626018 55.6776 
L 111.370441 56.18328 
L 112.114864 55.71888 
L 113.603711 55.63632 
L 114.348135 55.07904 
L 115.092558 53.41752 
L 115.836982 49.71264 
L 116.581405 50.32152 
L 117.325829 51.17808 
L 118.070252 52.44744 
L 118.814676 52.74672 
L 119.559099 51.4464 
L 120.303523 51.46704 
L 121.047946 53.2524 
L 121.79237 53.08728 
L 122.536793 53.5104 
L 123.281217 57.26688 
L 124.02564 57.76224 
L 124.770064 58.02024 
L 125.514487 62.26176 
L 126.258911 59.68176 
L 127.003334 59.9604 
L 127.747758 58.12344 
L 128.492181 57.02952 
L 129.236605 58.09248 
L 129.981028 55.13064 
L 130.725452 53.046 
L 131.469875 52.5816 
L 132.214299 52.9944 
L 132.958722 52.5816 
L 133.703146 50.0016 
L 134.447569 53.48976 
L 135.191993 52.40616 
L 135.936416 54.75912 
L 136.680839 62.67456 
L 137.425263 63.95424 
L 138.169686 57.86544 
L 138.91411 56.57544 
L 139.658533 58.31952 
L 140.402957 60.4764 
L 141.14738 61.85928 
L 141.891804 62.73648 
L 142.636227 61.8696 
L 143.380651 60.45576 
L 144.125074 60.54864 
L 144.869498 62.04504 
L 145.613921 63.16992 
L 146.358345 62.36496 
L 147.102768 61.21944 
L 147.847192 60.9408 
L 148.591615 57.83448 
L 149.336039 58.40208 
L 150.080462 60.49704 
L 151.569309 63.1596 
L 152.313733 62.49912 
L 153.058156 62.1276 
L 153.80258 61.56 
L 155.291427 70.66224 
L 156.03585 68.72208 
L 156.780274 70.4868 
L 157.524697 68.61888 
L 158.269121 69.11424 
L 159.013544 66.5136 
L 159.757968 66.68904 
L 160.502391 68.8872 
L 161.246815 68.9904 
L 161.991238 71.5704 
L 162.735661 73.48992 
L 163.480085 72.54048 
L 164.968932 74.74896 
L 165.713355 73.3248 
L 166.457779 74.80056 
L 167.202202 77.556 
L 167.946626 78.55704 
L 168.691049 78.50544 
L 169.435473 78.04104 
L 170.179896 75.76032 
L 170.92432 75.73968 
L 171.668743 74.65608 
L 172.413167 74.83152 
L 173.15759 74.57352 
L 173.902014 75.20304 
L 174.646437 75.17208 
L 175.390861 78.05136 
L 176.879708 72.16896 
L 177.624131 73.08744 
L 178.368555 74.72832 
L 179.857402 74.28456 
L 180.601825 73.21128 
L 181.346249 70.2804 
L 182.090672 70.2288 
L 182.835096 71.56008 
L 183.579519 73.79952 
L 184.323943 73.35576 
L 185.068366 74.0988 
L 185.81279 75.5952 
L 186.557213 75.5952 
L 187.301637 77.61792 
L 188.04606 77.63856 
L 188.790483 75.40944 
L 189.534907 75.40944 
L 190.27933 75.04824 
L 191.023754 74.98632 
L 191.768177 75.58488 
L 192.512601 75.87384 
L 193.257024 76.49304 
L 194.745871 75.82224 
L 195.490295 75.84288 
L 196.234718 76.03896 
L 196.979142 75.51264 
L 197.723565 75.56424 
L 198.467989 75.05856 
L 199.212412 73.26288 
L 199.956836 73.20096 
L 200.701259 73.00488 
L 201.445683 71.68392 
L 202.190106 70.6932 
L 202.93453 72.62304 
L 203.678953 73.52088 
L 204.423377 73.83048 
L 205.1678 73.8408 
L 205.912224 73.29384 
L 206.656647 73.72728 
L 207.401071 70.32168 
L 208.145494 69.77472 
L 208.889918 70.34232 
L 209.634341 70.67256 
L 210.378765 70.51776 
L 211.123188 70.848 
L 211.867612 72.31344 
L 212.612035 76.01832 
L 213.356458 75.41976 
L 214.100882 75.83256 
L 215.589729 75.82224 
L 216.334152 77.82432 
L 217.078576 76.14216 
L 217.822999 74.75928 
L 218.567423 74.96568 
L 219.311846 77.75208 
L 220.05627 79.48584 
L 220.800693 83.31456 
L 221.545117 85.90488 
L 222.28954 84.79032 
L 222.918001 85.84296 
L 224.253629 91.41576 
L 224.994865 88.7532 
L 226.494585 88.55712 
L 227.243256 88.96992 
L 228.727882 90.456 
L 229.472081 90.56952 
L 230.207552 89.15568 
L 230.912696 88.9596 
L 231.704869 90.6624 
L 232.355783 89.94 
L 233.192536 90.00192 
L 234.676127 90.62112 
L 236.168928 90.3528 
L 236.915592 92.004 
L 237.597127 92.13816 
L 238.40176 91.25064 
L 239.142866 89.166 
L 239.885876 89.56848 
L 240.621529 90.93072 
L 241.382865 89.41368 
L 242.119603 90.37344 
L 242.865759 89.79552 
L 243.606012 90.23928 
L 244.352038 88.0824 
L 245.096108 88.7532 
L 245.834819 90.16704 
L 246.586472 90.67272 
L 247.333127 90.18768 
L 248.072768 89.2692 
L 248.816899 89.54784 
L 249.564252 89.49624 
L 250.307236 88.31976 
L 251.050669 88.45392 
L 251.809335 88.46424 
L 252.555861 86.38992 
L 253.287257 84.80064 
L 254.037358 84.8316 
L 254.781988 86.586 
L 255.519166 87.74184 
L 256.25923 87.618 
L 257.014785 88.19592 
L 257.760958 89.08344 
L 258.498488 87.89664 
L 259.298356 87.3084 
L 259.996391 87.65928 
L 261.47906 90.07416 
L 262.980176 89.3724 
L 263.719904 89.00088 
L 264.470712 88.42296 
L 265.950607 89.10408 
L 266.688654 89.14536 
L 267.444287 89.07312 
L 268.190632 87.9792 
L 268.930222 88.29912 
L 269.675852 86.38992 
L 270.417682 87.24648 
L 271.168955 87.1536 
L 271.901997 86.21448 
L 273.408015 87.01944 
L 274.1477 84.44976 
L 274.891555 85.05864 
L 275.639201 84.58392 
L 276.382108 85.04832 
L 277.11832 83.71704 
L 277.872575 84.86256 
L 278.618842 85.6572 
L 279.36 85.27536 
L 279.36 85.27536 
" clip-path="url(#p2d6f938dde)" style="fill: none; stroke: #4a8dff; stroke-width: 0.6"/>
   </g>
   <g id="line2d_7">
    <path d="M 8.64 86.10096 
L 9.384423 79.75416 
L 10.128847 79.7232 
L 10.87327 79.44456 
L 11.617694 78.51576 
L 12.362117 78.64992 
L 13.106541 79.5168 
L 13.850964 78.24744 
L 14.595388 79.0524 
L 15.339811 79.07304 
L 16.084235 76.80264 
L 16.828658 76.35888 
L 17.573082 77.31864 
L 18.317505 78.98016 
L 19.061929 78.52608 
L 19.806352 76.35888 
L 20.550776 76.18344 
L 21.295199 69.90888 
L 22.039623 70.03272 
L 22.784046 68.29896 
L 23.52847 68.95944 
L 24.272893 70.11528 
L 25.017317 68.76336 
L 25.76174 69.37224 
L 26.506164 69.25872 
L 27.250587 69.41352 
L 27.995011 69.77472 
L 28.739434 66.85416 
L 29.483858 67.26696 
L 30.228281 66.06984 
L 30.972705 63.08736 
L 31.717128 61.12656 
L 32.461552 65.62608 
L 33.205975 64.98624 
L 33.950399 63.91296 
L 34.694822 63.38664 
L 35.439245 63.70656 
L 36.183669 64.97592 
L 36.928092 67.14312 
L 37.672516 68.9388 
L 38.416939 68.23704 
L 39.161363 67.1844 
L 39.905786 66.99864 
L 40.65021 67.47336 
L 41.394633 68.1132 
L 42.139057 71.38464 
L 42.88348 68.526 
L 43.627904 67.21536 
L 44.372327 67.20504 
L 45.116751 62.46816 
L 45.861174 62.51976 
L 46.605598 64.10904 
L 47.350021 66.90576 
L 48.094445 66.83352 
L 48.838868 67.42176 
L 49.583292 67.3392 
L 50.327715 65.8944 
L 51.072139 68.24736 
L 52.560986 68.23704 
L 53.305409 69.69216 
L 54.049833 71.50848 
L 54.794256 72.21024 
L 55.53868 67.3908 
L 56.283103 66.90576 
L 57.027527 65.59512 
L 57.77195 65.86344 
L 58.516374 65.76024 
L 59.260797 65.50224 
L 60.00522 64.398 
L 60.749644 65.70864 
L 61.494067 67.2876 
L 62.238491 63.95424 
L 62.982914 63.14928 
L 63.727338 64.76952 
L 64.471761 64.58376 
L 65.216185 63.55176 
L 65.960608 64.5012 
L 66.705032 63.82008 
L 67.449455 61.36392 
L 68.193879 56.64768 
L 68.938302 54.89328 
L 69.682726 55.04808 
L 70.427149 53.29368 
L 71.171573 52.55064 
L 71.915996 54.77976 
L 72.66042 53.67552 
L 73.404843 52.95312 
L 74.149267 54.45984 
L 74.89369 54.55272 
L 75.638114 55.22352 
L 76.382537 54.98616 
L 77.126961 52.4268 
L 77.871384 53.79936 
L 78.615808 54.08832 
L 79.360231 54.92424 
L 80.104655 54.4908 
L 80.849078 52.98408 
L 81.593502 54.44952 
L 82.337925 54.60432 
L 83.082349 54.62496 
L 84.571196 59.38248 
L 85.315619 60.09456 
L 86.060042 58.39176 
L 86.804466 57.41136 
L 87.548889 58.464 
L 88.293313 57.5352 
L 89.037736 55.0068 
L 89.78216 55.81176 
L 90.526583 55.99752 
L 91.271007 53.13888 
L 92.01543 53.64456 
L 92.759854 52.1688 
L 93.504277 48.69096 
L 94.248701 54.0264 
L 94.993124 55.13064 
L 95.737548 54.96552 
L 96.481971 54.92424 
L 97.226395 56.25552 
L 97.970818 59.8572 
L 98.715242 58.32984 
L 99.459665 60.23904 
L 100.204089 55.65696 
L 100.948512 57.18432 
L 101.692936 59.21736 
L 102.437359 62.55072 
L 103.181783 60.82728 
L 103.926206 61.47744 
L 104.67063 60.12552 
L 105.415053 64.31544 
L 106.159477 63.99552 
L 106.9039 64.5528 
L 107.648324 63.60336 
L 108.392747 61.5084 
L 109.137171 60.96144 
L 109.881594 61.98312 
L 110.626018 62.05536 
L 111.370441 62.51976 
L 112.859288 60.64152 
L 113.603711 61.13688 
L 114.348135 58.6188 
L 115.092558 57.03984 
L 115.836982 56.35872 
L 116.581405 56.5548 
L 117.325829 57.174 
L 118.070252 57.14304 
L 118.814676 55.7292 
L 119.559099 56.04912 
L 120.303523 55.33704 
L 121.047946 56.87472 
L 121.79237 56.8128 
L 122.536793 57.24624 
L 123.281217 59.93976 
L 124.02564 60.64152 
L 124.770064 59.29992 
L 125.514487 63.80976 
L 126.258911 63.03576 
L 127.003334 63.09768 
L 128.492181 58.27824 
L 129.236605 58.5672 
L 129.981028 53.93352 
L 130.725452 51.74568 
L 131.469875 50.04288 
L 132.214299 49.90872 
L 133.703146 47.43192 
L 134.447569 50.80656 
L 135.191993 48.90768 
L 135.936416 50.6208 
L 136.680839 59.42376 
L 137.425263 61.85928 
L 138.169686 57.35976 
L 138.91411 57.3288 
L 139.658533 59.46504 
L 141.14738 64.72824 
L 141.891804 66.42072 
L 142.636227 65.688 
L 143.380651 64.17096 
L 144.125074 62.10696 
L 144.869498 64.30512 
L 145.613921 65.20296 
L 146.358345 62.68488 
L 147.102768 61.70448 
L 147.847192 61.06464 
L 148.591615 58.1028 
L 149.336039 58.40208 
L 150.080462 59.68176 
L 150.824886 62.6952 
L 151.569309 64.56312 
L 152.313733 63.18024 
L 153.058156 62.72616 
L 153.80258 62.06568 
L 154.547003 66.33816 
L 155.291427 71.40528 
L 156.03585 69.08328 
L 156.780274 71.7252 
L 157.524697 69.57864 
L 158.269121 70.72416 
L 159.013544 68.2164 
L 159.757968 66.978 
L 160.502391 70.03272 
L 161.246815 71.5188 
L 161.991238 73.3764 
L 162.735661 78.846 
L 163.480085 77.75208 
L 164.224508 78.88728 
L 164.968932 81.34344 
L 165.713355 80.53848 
L 166.457779 82.0452 
L 167.202202 86.92656 
L 167.946626 88.58808 
L 168.691049 88.96992 
L 169.435473 86.7924 
L 170.179896 85.296 
L 170.92432 86.24544 
L 171.668743 82.96368 
L 172.413167 82.13808 
L 173.15759 82.47864 
L 173.902014 82.58184 
L 174.646437 83.03592 
L 175.390861 87.3084 
L 176.135284 82.06584 
L 176.879708 79.71288 
L 177.624131 81.24024 
L 178.368555 84.17112 
L 179.112978 84.24336 
L 179.857402 83.29392 
L 180.601825 82.8192 
L 181.346249 80.64168 
L 182.090672 81.38472 
L 182.835096 80.87904 
L 183.579519 83.13912 
L 184.323943 83.19072 
L 185.81279 87.17424 
L 186.557213 85.71912 
L 187.301637 87.53544 
L 188.04606 88.17528 
L 188.790483 85.41984 
L 190.27933 84.9348 
L 191.023754 85.01736 
L 191.768177 86.14224 
L 192.512601 85.90488 
L 193.257024 86.328 
L 194.001448 86.24544 
L 194.745871 85.72944 
L 195.490295 85.7088 
L 196.234718 86.40024 
L 196.979142 85.09992 
L 197.723565 86.02872 
L 199.212412 83.53128 
L 200.701259 82.03488 
L 201.445683 79.39296 
L 202.190106 79.66128 
L 202.93453 82.15872 
L 203.678953 82.43736 
L 204.423377 82.93272 
L 205.1678 83.00496 
L 206.656647 82.28256 
L 207.401071 78.01008 
L 208.145494 76.19376 
L 208.889918 77.66952 
L 209.634341 77.74176 
L 210.378765 78.1752 
L 211.867612 80.8068 
L 212.612035 85.20312 
L 213.356458 84.12984 
L 214.100882 84.03696 
L 214.845305 84.06792 
L 215.589729 84.3156 
L 216.334152 87.02976 
L 217.078576 85.21344 
L 217.822999 84.28464 
L 218.567423 84.32592 
L 219.311846 89.08344 
L 220.05627 89.5272 
L 220.800693 95.14128 
L 221.545117 96.98856 
L 222.28954 95.08968 
L 223.509585 99.80592 
L 224.253629 101.79768 
L 224.994865 100.03296 
L 225.756305 100.518 
L 226.494585 99.98136 
L 227.243256 100.49736 
L 229.472081 101.26104 
L 230.207552 100.63152 
L 230.912696 100.38384 
L 231.704869 100.84824 
L 232.355783 100.65216 
L 233.192536 101.034 
L 233.936054 101.19912 
L 236.168928 100.91016 
L 236.915592 101.7564 
L 237.597127 101.84928 
L 238.40176 101.56032 
L 239.142866 100.85856 
L 240.621529 101.4468 
L 241.382865 101.02368 
L 242.119603 101.30232 
L 242.865759 100.81728 
L 243.606012 100.79664 
L 244.352038 99.3312 
L 245.096108 99.92976 
L 245.834819 100.78632 
L 246.586472 101.17848 
L 247.333127 101.1372 
L 248.072768 100.21872 
L 249.564252 100.4664 
L 250.307236 99.88848 
L 251.050669 99.94008 
L 251.809335 99.81624 
L 252.555861 98.93904 
L 253.287257 98.3508 
L 254.037358 98.52624 
L 254.781988 99.78528 
L 255.519166 100.12584 
L 256.25923 100.03296 
L 257.760958 100.83792 
L 258.498488 100.11552 
L 259.298356 99.87816 
L 259.996391 100.002 
L 261.47906 101.41584 
L 262.233624 101.21976 
L 263.719904 101.00304 
L 264.470712 100.86888 
L 265.20533 101.21976 
L 265.950607 101.28168 
L 267.444287 101.14752 
L 268.190632 100.55928 
L 268.930222 100.65216 
L 269.675852 99.80592 
L 270.417682 99.96072 
L 271.168955 99.6408 
L 271.901997 99.1764 
L 272.659775 99.70272 
L 273.408015 99.94008 
L 274.1477 98.57784 
L 274.891555 98.65008 
L 275.639201 98.38176 
L 276.382108 98.48496 
L 277.11832 96.70992 
L 277.872575 98.05152 
L 278.618842 98.48496 
L 279.36 97.96896 
L 279.36 97.96896 
" clip-path="url(#p2d6f938dde)" style="fill: none; stroke: #f5841e; stroke-width: 0.6"/>
   </g>
  </g>
 </g>
 <defs>
  <clipPath id="p2d6f938dde">
   <rect x="8.64" y="4.8" width="270.72" height="103.2"/>
  </clipPath>
 </defs>
</svg>
