<?xml version="1.0" encoding="utf-8" standalone="no"?>
<!DOCTYPE svg PUBLIC "-//W3C//DTD SVG 1.1//EN"
  "http://www.w3.org/Graphics/SVG/1.1/DTD/svg11.dtd">
<svg xmlns:xlink="http://www.w3.org/1999/xlink" width="288pt" height="120pt" viewBox="0 0 288 120" xmlns="http://www.w3.org/2000/svg" version="1.1">
<desc id="nav-meta">{"window":"1m","count":4,"labels":["10.05","20.05","29.05","08.06"],"tick_utc":["2026-05-10T04:35:36Z","2026-05-20T04:51:15Z","2026-05-29T04:59:49Z","2026-06-08T05:18:19Z"],"w":720,"h":300}</desc>

 <metadata>
  <rdf:RDF xmlns:dc="http://purl.org/dc/elements/1.1/" xmlns:cc="http://creativecommons.org/ns#" xmlns:rdf="http://www.w3.org/1999/02/22-rdf-syntax-ns#">
   <cc:Work>
    <dc:type rdf:resource="http://purl.org/dc/dcmitype/StillImage"/>
    <dc:date>2026-06-08T11:29:25.319342</dc:date>
    <dc:format>image/svg+xml</dc:format>
    <dc:creator>
     <cc:Agent>
      <dc:title>Matplotlib v3.10.9, https://matplotlib.org/</dc:title>
     </cc:Agent>
    </dc:creator>
   </cc:Work>
  </rdf:RDF>
 </metadata>
 <defs>
  <style type="text/css">*{stroke-linejoin: round; stroke-linecap: butt}</style>
 </defs>
 <g id="figure_1">
  <g id="patch_1">
   <path d="M 0 120 
L 288 120 
L 288 0 
L 0 0 
L 0 120 
z
" style="fill: none; opacity: 0"/>
  </g>
  <g id="axes_1">
   <g id="patch_2">
    <path d="M 8.64 108 
L 279.36 108 
L 279.36 4.8 
L 8.64 4.8 
L 8.64 108 
z
" style="fill: none"/>
   </g>
   <g id="matplotlib.axis_1"/>
   <g id="matplotlib.axis_2"/>
   <g id="line2d_1">
    <path d="M 8.64 87.36 
L 279.36 87.36 
" clip-path="url(#p9ae33f052d)" style="fill: none; stroke: #b2b2b2; stroke-opacity: 0.35; stroke-width: 0.5; stroke-linecap: square"/>
   </g>
   <g id="line2d_2">
    <path d="M 8.64 66.72 
L 279.36 66.72 
" clip-path="url(#p9ae33f052d)" style="fill: none; stroke: #b2b2b2; stroke-opacity: 0.35; stroke-width: 0.5; stroke-linecap: square"/>
   </g>
   <g id="line2d_3">
    <path d="M 8.64 46.08 
L 279.36 46.08 
" clip-path="url(#p9ae33f052d)" style="fill: none; stroke: #b2b2b2; stroke-opacity: 0.35; stroke-width: 0.5; stroke-linecap: square"/>
   </g>
   <g id="line2d_4">
    <path d="M 8.64 25.44 
L 279.36 25.44 
" clip-path="url(#p9ae33f052d)" style="fill: none; stroke: #b2b2b2; stroke-opacity: 0.35; stroke-width: 0.5; stroke-linecap: square"/>
   </g>
   <g id="line2d_5">
    <path d="M 8.64 99.72336 
L 18.039245 99.44472 
L 27.235356 99.25896 
L 36.60535 99.32088 
L 45.920622 100.22904 
L 55.292235 100.01232 
L 64.498816 100.43544 
L 73.963686 100.75536 
L 83.379877 101.02368 
L 92.638698 101.02368 
L 101.997683 101.17848 
L 111.37642 100.7244 
L 120.6306 100.75536 
L 129.828114 101.11656 
L 139.301403 100.91016 
L 148.749759 100.89984 
L 157.934104 101.1372 
L 167.355476 101.2404 
L 176.651319 101.6532 
L 185.98386 101.4984 
L 195.175006 101.48808 
L 204.691037 101.32296 
L 214.154612 101.51904 
L 223.3885 101.7048 
L 232.819046 102.54072 
L 242.11273 103.08768 
L 251.284771 103.36632 
L 260.467066 104.22288 
L 269.993135 103.85136 
L 279.36 103.68624 
" clip-path="url(#p9ae33f052d)" style="fill: none; stroke: #bebebe; stroke-width: 0.5; stroke-linecap: round"/>
   </g>
   <g id="line2d_6">
    <path d="M 8.64 85.01736 
L 18.039245 84.9348 
L 27.235356 85.296 
L 36.60535 85.35792 
L 45.920622 86.1732 
L 55.292235 85.92552 
L 64.498816 86.55504 
L 73.963686 87.13296 
L 83.379877 88.10304 
L 92.638698 87.9276 
L 101.997683 88.26816 
L 111.37642 87.78312 
L 120.6306 87.95856 
L 129.828114 88.94928 
L 139.301403 88.14432 
L 148.749759 88.33008 
L 157.934104 88.52616 
L 167.355476 88.86672 
L 176.651319 90.22896 
L 185.98386 89.82648 
L 195.175006 89.87808 
L 204.691037 89.46528 
L 214.154612 90.0432 
L 223.3885 89.96064 
L 232.819046 91.99368 
L 242.11273 93.05664 
L 251.284771 93.74808 
L 260.467066 97.02984 
L 269.993135 95.93592 
L 279.36 95.07936 
" clip-path="url(#p9ae33f052d)" style="fill: none; stroke: #4a8dff; stroke-width: 0.6"/>
   </g>
   <g id="line2d_7">
    <path d="M 8.64 92.97408 
L 18.039245 92.9844 
L 27.235356 92.60256 
L 36.60535 92.53032 
L 45.920622 94.54272 
L 55.292235 92.85024 
L 64.498816 94.82136 
L 73.963686 95.75016 
L 83.379877 96.97824 
L 92.638698 97.08144 
L 101.997683 97.23624 
L 111.37642 95.94624 
L 120.6306 96.30744 
L 129.828114 98.08248 
L 139.301403 97.2672 
L 148.749759 96.61704 
L 157.934104 97.23624 
L 167.355476 98.08248 
L 176.651319 99.18672 
L 185.98386 99.03192 
L 195.175006 99.1248 
L 204.691037 98.74296 
L 214.154612 99.09384 
L 223.3885 100.0536 
L 232.819046 101.23008 
L 242.11273 101.99376 
L 251.284771 102.08664 
L 260.467066 102.8916 
L 269.993135 102.45816 
L 279.36 102.28272 
" clip-path="url(#p9ae33f052d)" style="fill: none; stroke: #f5841e; stroke-width: 0.6"/>
   </g>
  </g>
 </g>
 <defs>
  <clipPath id="p9ae33f052d">
   <rect x="8.64" y="4.8" width="270.72" height="103.2"/>
  </clipPath>
 </defs>
</svg>
