<?xml version="1.0" encoding="utf-8" standalone="no"?>
<!DOCTYPE svg PUBLIC "-//W3C//DTD SVG 1.1//EN"
  "http://www.w3.org/Graphics/SVG/1.1/DTD/svg11.dtd">
<svg xmlns:xlink="http://www.w3.org/1999/xlink" width="288pt" height="120pt" viewBox="0 0 288 120" xmlns="http://www.w3.org/2000/svg" version="1.1">
<desc id="nav-meta">{"window":"3m","count":4,"labels":["17.04","17.05","16.06","16.07"],"tick_utc":["2026-04-17T03:55:44Z","2026-05-17T04:42:26Z","2026-06-16T06:15:52Z","2026-07-16T03:51:26Z"],"w":720,"h":300}</desc>

 <metadata>
  <rdf:RDF xmlns:dc="http://purl.org/dc/elements/1.1/" xmlns:cc="http://creativecommons.org/ns#" xmlns:rdf="http://www.w3.org/1999/02/22-rdf-syntax-ns#">
   <cc:Work>
    <dc:type rdf:resource="http://purl.org/dc/dcmitype/StillImage"/>
    <dc:date>2026-07-16T03:51:28.772377</dc:date>
    <dc:format>image/svg+xml</dc:format>
    <dc:creator>
     <cc:Agent>
      <dc:title>Matplotlib v3.11.0, https://matplotlib.org/</dc:title>
     </cc:Agent>
    </dc:creator>
   </cc:Work>
  </rdf:RDF>
 </metadata>
 <defs>
  <style type="text/css">*{stroke-linejoin: round; stroke-linecap: butt}</style>
 </defs>
 <g id="figure_1">
  <g id="patch_1">
   <path d="M 0 120 
L 288 120 
L 288 0 
L 0 0 
L 0 120 
z
" style="fill: none; opacity: 0"/>
  </g>
  <g id="axes_1">
   <g id="patch_2">
    <path d="M 8.64 108 
L 279.36 108 
L 279.36 4.8 
L 8.64 4.8 
L 8.64 108 
z
" style="fill: none"/>
   </g>
   <g id="matplotlib.axis_1"/>
   <g id="matplotlib.axis_2"/>
   <g id="line2d_1">
    <path d="M 8.64 87.36 
L 279.36 87.36 
" clip-path="url(#p34c3da0e78)" style="fill: none; stroke: #b2b2b2; stroke-opacity: 0.35; stroke-width: 0.5; stroke-linecap: square"/>
   </g>
   <g id="line2d_2">
    <path d="M 8.64 66.72 
L 279.36 66.72 
" clip-path="url(#p34c3da0e78)" style="fill: none; stroke: #b2b2b2; stroke-opacity: 0.35; stroke-width: 0.5; stroke-linecap: square"/>
   </g>
   <g id="line2d_3">
    <path d="M 8.64 46.08 
L 279.36 46.08 
" clip-path="url(#p34c3da0e78)" style="fill: none; stroke: #b2b2b2; stroke-opacity: 0.35; stroke-width: 0.5; stroke-linecap: square"/>
   </g>
   <g id="line2d_4">
    <path d="M 8.64 25.44 
L 279.36 25.44 
" clip-path="url(#p34c3da0e78)" style="fill: none; stroke: #b2b2b2; stroke-opacity: 0.35; stroke-width: 0.5; stroke-linecap: square"/>
   </g>
   <g id="line2d_5">
    <path d="M 8.64 100.61088 
L 11.61492 100.44576 
L 14.662745 100.94112 
L 17.678295 101.09592 
L 20.6732 101.00304 
L 23.671969 100.69344 
L 26.692255 100.9308 
L 29.708327 100.92048 
L 32.680532 100.81728 
L 35.735424 100.8792 
L 38.775938 100.64184 
L 41.790339 101.1888 
L 44.790222 101.09592 
L 47.803371 101.37456 
L 50.844337 101.21976 
L 53.775667 101.20944 
L 56.844834 101.23008 
L 59.85189 100.92048 
L 62.793735 101.06496 
L 65.854824 100.70376 
L 68.863725 100.55928 
L 71.821759 100.53864 
L 74.840861 99.60984 
L 77.909575 99.72336 
L 80.94142 99.44472 
L 83.90774 99.25896 
L 86.930149 99.32088 
L 89.934907 100.22904 
L 92.957838 100.01232 
L 95.927536 100.43544 
L 98.980549 100.75536 
L 102.017859 101.02368 
L 105.004408 101.02368 
L 108.023266 101.17848 
L 111.048495 100.7244 
L 114.033546 100.75536 
L 117.00032 101.11656 
L 120.056048 100.91016 
L 123.103733 100.89984 
L 126.066259 101.1372 
L 129.105241 101.2404 
L 132.103731 101.6532 
L 135.114059 101.4984 
L 138.078778 101.48808 
L 141.148294 101.32296 
L 144.200888 101.51904 
L 147.179394 101.7048 
L 150.221335 102.54072 
L 153.21913 103.08768 
L 156.177686 103.36632 
L 159.13955 104.22288 
L 162.212304 103.85136 
L 165.233703 103.68624 
L 168.184391 103.43856 
L 171.223686 103.81008 
L 174.249438 103.72752 
L 177.26934 103.50048 
L 180.255436 103.5108 
L 183.285366 103.31472 
L 186.393457 102.95352 
L 189.418721 102.61296 
L 192.331007 102.6336 
L 195.324693 102.9948 
L 198.403644 103.28376 
L 201.291454 103.01544 
L 204.362153 102.69552 
L 207.458303 102.582 
L 210.286578 102.88128 
L 213.305436 103.15992 
L 216.312735 103.36632 
L 219.336258 103.36632 
L 222.307488 102.81936 
L 225.37293 103.0464 
L 228.402789 102.9432 
L 231.352572 102.59232 
L 234.40468 102.40656 
L 237.360103 102.02472 
L 240.335476 101.68416 
L 243.330624 101.3436 
L 246.382766 101.6532 
L 249.420007 101.6532 
L 252.382985 101.63256 
L 255.309337 101.95248 
L 258.40862 102.08664 
L 261.40993 101.9112 
L 264.329215 102.066 
L 267.382297 102.18984 
L 270.396977 102.31368 
L 273.335514 102.45816 
L 276.34438 102.08664 
L 279.36 102.21048 
" clip-path="url(#p34c3da0e78)" style="fill: none; stroke: #bebebe; stroke-width: 0.5; stroke-linecap: round"/>
   </g>
   <g id="line2d_6">
    <path d="M 8.64 85.04832 
L 11.61492 83.71704 
L 14.662745 84.86256 
L 17.678295 85.6572 
L 20.6732 85.27536 
L 23.671969 84.49104 
L 26.692255 84.86256 
L 29.708327 85.32696 
L 32.680532 85.17216 
L 35.735424 85.31664 
L 38.775938 84.11952 
L 41.790339 85.66752 
L 44.790222 85.26504 
L 47.803371 86.26608 
L 50.844337 85.77072 
L 53.775667 85.38888 
L 56.844834 85.3992 
L 59.85189 84.09888 
L 62.793735 84.22272 
L 65.854824 84.34656 
L 68.863725 85.06896 
L 71.821759 85.7604 
L 74.840861 85.0896 
L 77.909575 85.01736 
L 80.94142 84.9348 
L 83.90774 85.296 
L 86.930149 85.35792 
L 89.934907 86.1732 
L 92.957838 85.92552 
L 95.927536 86.55504 
L 98.980549 87.13296 
L 102.017859 88.10304 
L 105.004408 87.9276 
L 108.023266 88.26816 
L 111.048495 87.78312 
L 114.033546 87.95856 
L 117.00032 88.94928 
L 120.056048 88.14432 
L 123.103733 88.33008 
L 126.066259 88.52616 
L 129.105241 88.86672 
L 132.103731 90.22896 
L 135.114059 89.82648 
L 138.078778 89.87808 
L 141.148294 89.46528 
L 144.200888 90.0432 
L 147.179394 89.96064 
L 150.221335 91.99368 
L 153.21913 93.05664 
L 156.177686 93.74808 
L 159.13955 97.02984 
L 162.212304 95.93592 
L 165.233703 95.07936 
L 168.184391 94.46016 
L 171.223686 95.47152 
L 174.249438 95.11032 
L 177.26934 94.82136 
L 180.255436 94.8936 
L 183.285366 94.70784 
L 186.393457 94.04736 
L 189.418721 93.40752 
L 192.331007 92.9844 
L 195.324693 93.93384 
L 198.403644 94.4292 
L 201.291454 94.19184 
L 204.362153 93.87192 
L 207.458303 93.81 
L 210.286578 94.03704 
L 213.305436 94.83168 
L 216.312735 95.48184 
L 219.336258 96.63768 
L 222.307488 96.14232 
L 225.37293 96.30744 
L 228.402789 96.29712 
L 231.352572 96.04944 
L 234.40468 95.9256 
L 237.360103 95.39928 
L 240.335476 94.31568 
L 243.330624 93.57264 
L 246.382766 93.32496 
L 249.420007 93.22176 
L 252.382985 93.35592 
L 255.309337 93.61392 
L 258.40862 93.77904 
L 261.40993 93.26304 
L 264.329215 92.92248 
L 267.382297 92.71608 
L 270.396977 93.15984 
L 273.335514 93.17016 
L 276.34438 91.80792 
L 279.36 91.14744 
" clip-path="url(#p34c3da0e78)" style="fill: none; stroke: #4a8dff; stroke-width: 0.6"/>
   </g>
   <g id="line2d_7">
    <path d="M 8.64 98.48496 
L 11.61492 96.70992 
L 14.662745 98.05152 
L 17.678295 98.48496 
L 20.6732 97.96896 
L 23.671969 96.32808 
L 26.692255 96.20424 
L 29.708327 96.16296 
L 32.680532 96.1836 
L 35.735424 96.50352 
L 38.775938 94.76976 
L 41.790339 97.19496 
L 44.790222 96.9576 
L 47.803371 97.9896 
L 50.844337 96.89568 
L 53.775667 95.45088 
L 56.844834 95.67792 
L 59.85189 93.43848 
L 62.793735 92.90184 
L 65.854824 92.25168 
L 68.863725 92.87088 
L 71.821759 94.2744 
L 74.840861 93.1392 
L 77.909575 92.97408 
L 80.94142 92.9844 
L 83.90774 92.60256 
L 86.930149 92.53032 
L 89.934907 94.54272 
L 92.957838 92.85024 
L 95.927536 94.82136 
L 98.980549 95.75016 
L 102.017859 96.97824 
L 105.004408 97.08144 
L 108.023266 97.23624 
L 111.048495 95.94624 
L 114.033546 96.30744 
L 117.00032 98.08248 
L 120.056048 97.2672 
L 123.103733 96.61704 
L 126.066259 97.23624 
L 129.105241 98.08248 
L 132.103731 99.18672 
L 135.114059 99.03192 
L 138.078778 99.1248 
L 141.148294 98.74296 
L 144.200888 99.09384 
L 147.179394 100.0536 
L 150.221335 101.23008 
L 153.21913 101.99376 
L 156.177686 102.08664 
L 159.13955 102.8916 
L 162.212304 102.45816 
L 165.233703 102.28272 
L 168.184391 102.10728 
L 171.223686 102.582 
L 174.249438 102.29304 
L 177.26934 102.08664 
L 180.255436 102.066 
L 183.285366 101.86992 
L 186.393457 101.48808 
L 189.418721 101.40552 
L 192.331007 101.4984 
L 195.324693 101.97312 
L 198.403644 102.26208 
L 201.291454 102.066 
L 204.362153 101.90088 
L 207.458303 101.90088 
L 210.286578 102.0144 
L 213.305436 102.25176 
L 216.312735 102.6336 
L 219.336258 102.88128 
L 222.307488 102.77808 
L 225.37293 102.85032 
L 228.402789 102.93288 
L 231.352572 102.95352 
L 234.40468 103.00512 
L 237.360103 102.69552 
L 240.335476 102.55104 
L 243.330624 102.2724 
L 246.382766 102.21048 
L 249.420007 102.12792 
L 252.382985 102.13824 
L 255.309337 102.25176 
L 258.40862 102.36528 
L 261.40993 101.94216 
L 264.329215 101.92152 
L 267.382297 101.9112 
L 270.396977 102.2208 
L 273.335514 102.31368 
L 276.34438 101.79768 
L 279.36 101.81832 
" clip-path="url(#p34c3da0e78)" style="fill: none; stroke: #f5841e; stroke-width: 0.6"/>
   </g>
  </g>
 </g>
 <defs>
  <clipPath id="p34c3da0e78">
   <rect x="8.64" y="4.8" width="270.72" height="103.2"/>
  </clipPath>
 </defs>
</svg>
