<?xml version="1.0" encoding="utf-8" standalone="no"?>
<!DOCTYPE svg PUBLIC "-//W3C//DTD SVG 1.1//EN"
  "http://www.w3.org/Graphics/SVG/1.1/DTD/svg11.dtd">
<svg xmlns:xlink="http://www.w3.org/1999/xlink" width="288pt" height="120pt" viewBox="0 0 288 120" xmlns="http://www.w3.org/2000/svg" version="1.1">
<desc id="nav-meta">{"window":"3m","count":4,"labels":["26.04","26.05","24.06","24.07"],"tick_utc":["2026-04-26T04:06:31Z","2026-05-26T04:48:34Z","2026-06-24T04:50:37Z","2026-07-24T03:57:40Z"],"w":720,"h":300}</desc>

 <metadata>
  <rdf:RDF xmlns:dc="http://purl.org/dc/elements/1.1/" xmlns:cc="http://creativecommons.org/ns#" xmlns:rdf="http://www.w3.org/1999/02/22-rdf-syntax-ns#">
   <cc:Work>
    <dc:type rdf:resource="http://purl.org/dc/dcmitype/StillImage"/>
    <dc:date>2026-07-24T14:24:10.279377</dc:date>
    <dc:format>image/svg+xml</dc:format>
    <dc:creator>
     <cc:Agent>
      <dc:title>Matplotlib v3.11.1, https://matplotlib.org/</dc:title>
     </cc:Agent>
    </dc:creator>
   </cc:Work>
  </rdf:RDF>
 </metadata>
 <defs>
  <style type="text/css">*{stroke-linejoin: round; stroke-linecap: butt}</style>
 </defs>
 <g id="figure_1">
  <g id="patch_1">
   <path d="M 0 120 
L 288 120 
L 288 0 
L 0 0 
L 0 120 
z
" style="fill: none; opacity: 0"/>
  </g>
  <g id="axes_1">
   <g id="patch_2">
    <path d="M 8.64 108 
L 279.36 108 
L 279.36 4.8 
L 8.64 4.8 
L 8.64 108 
z
" style="fill: none"/>
   </g>
   <g id="matplotlib.axis_1"/>
   <g id="matplotlib.axis_2"/>
   <g id="line2d_1">
    <path d="M 8.64 87.36 
L 279.36 87.36 
" clip-path="url(#p97831bdca4)" style="fill: none; stroke: #b2b2b2; stroke-opacity: 0.35; stroke-width: 0.5; stroke-linecap: square"/>
   </g>
   <g id="line2d_2">
    <path d="M 8.64 66.72 
L 279.36 66.72 
" clip-path="url(#p97831bdca4)" style="fill: none; stroke: #b2b2b2; stroke-opacity: 0.35; stroke-width: 0.5; stroke-linecap: square"/>
   </g>
   <g id="line2d_3">
    <path d="M 8.64 46.08 
L 279.36 46.08 
" clip-path="url(#p97831bdca4)" style="fill: none; stroke: #b2b2b2; stroke-opacity: 0.35; stroke-width: 0.5; stroke-linecap: square"/>
   </g>
   <g id="line2d_4">
    <path d="M 8.64 25.44 
L 279.36 25.44 
" clip-path="url(#p97831bdca4)" style="fill: none; stroke: #b2b2b2; stroke-opacity: 0.35; stroke-width: 0.5; stroke-linecap: square"/>
   </g>
   <g id="line2d_5">
    <path d="M 8.64 100.8792 
L 11.714787 100.64184 
L 14.763167 101.1888 
L 17.796866 101.09592 
L 20.843979 101.37456 
L 23.919224 101.21976 
L 26.883597 101.20944 
L 29.98736 101.23008 
L 33.028312 100.92048 
L 36.003318 101.06496 
L 39.098913 100.70376 
L 42.141731 100.55928 
L 45.133109 100.53864 
L 48.186242 99.60984 
L 51.289548 99.72336 
L 54.355568 99.44472 
L 57.355326 99.25896 
L 60.411804 99.32088 
L 63.450432 100.22904 
L 66.507439 100.01232 
L 69.510612 100.43544 
L 72.598038 100.75536 
L 75.669586 101.02368 
L 78.6898 101.02368 
L 81.742687 101.17848 
L 84.802017 100.7244 
L 87.820717 100.75536 
L 90.820933 101.11656 
L 93.911106 100.91016 
L 96.993145 100.89984 
L 99.989065 101.1372 
L 103.062303 101.2404 
L 106.094593 101.6532 
L 109.138854 101.4984 
L 112.136993 101.48808 
L 115.241108 101.32296 
L 118.328112 101.51904 
L 121.340193 101.7048 
L 124.416423 102.54072 
L 127.448009 103.08768 
L 130.439916 103.36632 
L 133.435167 104.22288 
L 136.542557 103.85136 
L 139.598014 103.68624 
L 142.581963 103.43856 
L 145.655518 103.81008 
L 148.715376 103.72752 
L 151.76932 103.50048 
L 154.789076 103.5108 
L 157.853159 103.31472 
L 160.996286 102.95352 
L 164.055651 102.61296 
L 167.000765 102.6336 
L 170.028197 102.9948 
L 173.141854 103.28376 
L 176.062217 103.01544 
L 179.167529 102.69552 
L 182.298579 102.582 
L 185.158735 102.88128 
L 188.211623 103.15992 
L 191.252821 103.36632 
L 194.310426 103.36632 
L 197.315148 102.81936 
L 200.415144 103.0464 
L 203.479157 102.9432 
L 206.462191 102.59232 
L 209.548702 102.40656 
L 212.53744 102.02472 
L 215.546351 101.68416 
L 218.575262 101.3436 
L 221.661808 101.6532 
L 224.733285 101.6532 
L 227.729663 101.63256 
L 230.689002 101.95248 
L 233.82322 102.08664 
L 236.858362 101.9112 
L 239.810554 102.066 
L 242.898051 102.18984 
L 245.946713 102.31368 
L 248.918374 102.45816 
L 251.961157 102.08664 
L 255.01077 102.21048 
L 258.05327 102.4272 
L 261.080244 102.4272 
L 264.167988 102.34464 
L 267.25126 102.25176 
L 270.237814 102.02472 
L 273.28204 102.066 
L 276.319401 102.10728 
L 279.36 102.34464 
" clip-path="url(#p97831bdca4)" style="fill: none; stroke: #bebebe; stroke-width: 0.5; stroke-linecap: round"/>
   </g>
   <g id="line2d_6">
    <path d="M 8.64 85.31664 
L 11.714787 84.11952 
L 14.763167 85.66752 
L 17.796866 85.26504 
L 20.843979 86.26608 
L 23.919224 85.77072 
L 26.883597 85.38888 
L 29.98736 85.3992 
L 33.028312 84.09888 
L 36.003318 84.22272 
L 39.098913 84.34656 
L 42.141731 85.06896 
L 45.133109 85.7604 
L 48.186242 85.0896 
L 51.289548 85.01736 
L 54.355568 84.9348 
L 57.355326 85.296 
L 60.411804 85.35792 
L 63.450432 86.1732 
L 66.507439 85.92552 
L 69.510612 86.55504 
L 72.598038 87.13296 
L 75.669586 88.10304 
L 78.6898 87.9276 
L 81.742687 88.26816 
L 84.802017 87.78312 
L 87.820717 87.95856 
L 90.820933 88.94928 
L 93.911106 88.14432 
L 96.993145 88.33008 
L 99.989065 88.52616 
L 103.062303 88.86672 
L 106.094593 90.22896 
L 109.138854 89.82648 
L 112.136993 89.87808 
L 115.241108 89.46528 
L 118.328112 90.0432 
L 121.340193 89.96064 
L 124.416423 91.99368 
L 127.448009 93.05664 
L 130.439916 93.74808 
L 133.435167 97.02984 
L 136.542557 95.93592 
L 139.598014 95.07936 
L 142.581963 94.46016 
L 145.655518 95.47152 
L 148.715376 95.11032 
L 151.76932 94.82136 
L 154.789076 94.8936 
L 157.853159 94.70784 
L 160.996286 94.04736 
L 164.055651 93.40752 
L 167.000765 92.9844 
L 170.028197 93.93384 
L 173.141854 94.4292 
L 176.062217 94.19184 
L 179.167529 93.87192 
L 182.298579 93.81 
L 185.158735 94.03704 
L 188.211623 94.83168 
L 191.252821 95.48184 
L 194.310426 96.63768 
L 197.315148 96.14232 
L 200.415144 96.30744 
L 203.479157 96.29712 
L 206.462191 96.04944 
L 209.548702 95.9256 
L 212.53744 95.39928 
L 215.546351 94.31568 
L 218.575262 93.57264 
L 221.661808 93.32496 
L 224.733285 93.22176 
L 227.729663 93.35592 
L 230.689002 93.61392 
L 233.82322 93.77904 
L 236.858362 93.26304 
L 239.810554 92.92248 
L 242.898051 92.71608 
L 245.946713 93.15984 
L 248.918374 93.17016 
L 251.961157 91.80792 
L 255.01077 91.14744 
L 258.05327 92.13816 
L 261.080244 92.25168 
L 264.167988 91.9008 
L 267.25126 91.81824 
L 270.237814 91.00296 
L 273.28204 90.98232 
L 276.319401 91.10616 
L 279.36 91.6944 
" clip-path="url(#p97831bdca4)" style="fill: none; stroke: #4a8dff; stroke-width: 0.6"/>
   </g>
   <g id="line2d_7">
    <path d="M 8.64 96.50352 
L 11.714787 94.76976 
L 14.763167 97.19496 
L 17.796866 96.9576 
L 20.843979 97.9896 
L 23.919224 96.89568 
L 26.883597 95.45088 
L 29.98736 95.67792 
L 33.028312 93.43848 
L 36.003318 92.90184 
L 39.098913 92.25168 
L 42.141731 92.87088 
L 45.133109 94.2744 
L 48.186242 93.1392 
L 51.289548 92.97408 
L 54.355568 92.9844 
L 57.355326 92.60256 
L 60.411804 92.53032 
L 63.450432 94.54272 
L 66.507439 92.85024 
L 69.510612 94.82136 
L 72.598038 95.75016 
L 75.669586 96.97824 
L 78.6898 97.08144 
L 81.742687 97.23624 
L 84.802017 95.94624 
L 87.820717 96.30744 
L 90.820933 98.08248 
L 93.911106 97.2672 
L 96.993145 96.61704 
L 99.989065 97.23624 
L 103.062303 98.08248 
L 106.094593 99.18672 
L 109.138854 99.03192 
L 112.136993 99.1248 
L 115.241108 98.74296 
L 118.328112 99.09384 
L 121.340193 100.0536 
L 124.416423 101.23008 
L 127.448009 101.99376 
L 130.439916 102.08664 
L 133.435167 102.8916 
L 136.542557 102.45816 
L 139.598014 102.28272 
L 142.581963 102.10728 
L 145.655518 102.582 
L 148.715376 102.29304 
L 151.76932 102.08664 
L 154.789076 102.066 
L 157.853159 101.86992 
L 160.996286 101.48808 
L 164.055651 101.40552 
L 167.000765 101.4984 
L 170.028197 101.97312 
L 173.141854 102.26208 
L 176.062217 102.066 
L 179.167529 101.90088 
L 182.298579 101.90088 
L 185.158735 102.0144 
L 188.211623 102.25176 
L 191.252821 102.6336 
L 194.310426 102.88128 
L 197.315148 102.77808 
L 200.415144 102.85032 
L 203.479157 102.93288 
L 206.462191 102.95352 
L 209.548702 103.00512 
L 212.53744 102.69552 
L 215.546351 102.55104 
L 218.575262 102.2724 
L 221.661808 102.21048 
L 224.733285 102.12792 
L 227.729663 102.13824 
L 230.689002 102.25176 
L 233.82322 102.36528 
L 236.858362 101.94216 
L 239.810554 101.92152 
L 242.898051 101.9112 
L 245.946713 102.2208 
L 248.918374 102.31368 
L 251.961157 101.79768 
L 255.01077 101.81832 
L 258.05327 102.07632 
L 261.080244 101.97312 
L 264.167988 101.79768 
L 267.25126 101.78736 
L 270.237814 101.57064 
L 273.28204 101.40552 
L 276.319401 101.55 
L 279.36 101.6016 
" clip-path="url(#p97831bdca4)" style="fill: none; stroke: #f5841e; stroke-width: 0.6"/>
   </g>
  </g>
 </g>
 <defs>
  <clipPath id="p97831bdca4">
   <rect x="8.64" y="4.8" width="270.72" height="103.2"/>
  </clipPath>
 </defs>
</svg>
