<?xml version="1.0" encoding="utf-8" standalone="no"?>
<!DOCTYPE svg PUBLIC "-//W3C//DTD SVG 1.1//EN"
  "http://www.w3.org/Graphics/SVG/1.1/DTD/svg11.dtd">
<svg xmlns:xlink="http://www.w3.org/1999/xlink" width="288pt" height="120pt" viewBox="0 0 288 120" xmlns="http://www.w3.org/2000/svg" version="1.1">
<desc id="nav-meta">{"window":"1m","count":4,"labels":["21.06","01.07","11.07","21.07"],"tick_utc":["2026-06-21T05:29:24Z","2026-07-01T05:10:59Z","2026-07-11T03:56:05Z","2026-07-21T03:59:29Z"],"w":720,"h":300}</desc>

 <metadata>
  <rdf:RDF xmlns:dc="http://purl.org/dc/elements/1.1/" xmlns:cc="http://creativecommons.org/ns#" xmlns:rdf="http://www.w3.org/1999/02/22-rdf-syntax-ns#">
   <cc:Work>
    <dc:type rdf:resource="http://purl.org/dc/dcmitype/StillImage"/>
    <dc:date>2026-07-21T03:59:30.934754</dc:date>
    <dc:format>image/svg+xml</dc:format>
    <dc:creator>
     <cc:Agent>
      <dc:title>Matplotlib v3.11.1, https://matplotlib.org/</dc:title>
     </cc:Agent>
    </dc:creator>
   </cc:Work>
  </rdf:RDF>
 </metadata>
 <defs>
  <style type="text/css">*{stroke-linejoin: round; stroke-linecap: butt}</style>
 </defs>
 <g id="figure_1">
  <g id="patch_1">
   <path d="M 0 120 
L 288 120 
L 288 0 
L 0 0 
L 0 120 
z
" style="fill: none; opacity: 0"/>
  </g>
  <g id="axes_1">
   <g id="patch_2">
    <path d="M 8.64 108 
L 279.36 108 
L 279.36 4.8 
L 8.64 4.8 
L 8.64 108 
z
" style="fill: none"/>
   </g>
   <g id="matplotlib.axis_1"/>
   <g id="matplotlib.axis_2"/>
   <g id="line2d_1">
    <path d="M 8.64 87.36 
L 279.36 87.36 
" clip-path="url(#pe293c64808)" style="fill: none; stroke: #b2b2b2; stroke-opacity: 0.35; stroke-width: 0.5; stroke-linecap: square"/>
   </g>
   <g id="line2d_2">
    <path d="M 8.64 66.72 
L 279.36 66.72 
" clip-path="url(#pe293c64808)" style="fill: none; stroke: #b2b2b2; stroke-opacity: 0.35; stroke-width: 0.5; stroke-linecap: square"/>
   </g>
   <g id="line2d_3">
    <path d="M 8.64 46.08 
L 279.36 46.08 
" clip-path="url(#pe293c64808)" style="fill: none; stroke: #b2b2b2; stroke-opacity: 0.35; stroke-width: 0.5; stroke-linecap: square"/>
   </g>
   <g id="line2d_4">
    <path d="M 8.64 25.44 
L 279.36 25.44 
" clip-path="url(#pe293c64808)" style="fill: none; stroke: #b2b2b2; stroke-opacity: 0.35; stroke-width: 0.5; stroke-linecap: square"/>
   </g>
   <g id="line2d_5">
    <path d="M 8.64 102.69552 
L 17.947513 102.582 
L 26.449754 102.88128 
L 35.524916 103.15992 
L 44.565331 103.36632 
L 53.654518 103.36632 
L 62.586502 102.81936 
L 71.801703 103.0464 
L 80.909939 102.9432 
L 89.777451 102.59232 
L 98.952566 102.40656 
L 107.837034 102.02472 
L 116.781473 101.68416 
L 125.78536 101.3436 
L 134.96058 101.6532 
L 144.091004 101.6532 
L 152.998183 101.63256 
L 161.795258 101.95248 
L 171.11219 102.08664 
L 180.134603 101.9112 
L 188.910431 102.066 
L 198.088477 102.18984 
L 207.15108 102.31368 
L 215.984786 102.45816 
L 225.02991 102.08664 
L 234.095339 102.21048 
L 243.139626 102.4272 
L 252.137757 102.4272 
L 261.316535 102.34464 
L 270.482021 102.25176 
L 279.36 102.02472 
" clip-path="url(#pe293c64808)" style="fill: none; stroke: #bebebe; stroke-width: 0.5; stroke-linecap: round"/>
   </g>
   <g id="line2d_6">
    <path d="M 8.64 93.87192 
L 17.947513 93.81 
L 26.449754 94.03704 
L 35.524916 94.83168 
L 44.565331 95.48184 
L 53.654518 96.63768 
L 62.586502 96.14232 
L 71.801703 96.30744 
L 80.909939 96.29712 
L 89.777451 96.04944 
L 98.952566 95.9256 
L 107.837034 95.39928 
L 116.781473 94.31568 
L 125.78536 93.57264 
L 134.96058 93.32496 
L 144.091004 93.22176 
L 152.998183 93.35592 
L 161.795258 93.61392 
L 171.11219 93.77904 
L 180.134603 93.26304 
L 188.910431 92.92248 
L 198.088477 92.71608 
L 207.15108 93.15984 
L 215.984786 93.17016 
L 225.02991 91.80792 
L 234.095339 91.14744 
L 243.139626 92.13816 
L 252.137757 92.25168 
L 261.316535 91.9008 
L 270.482021 91.81824 
L 279.36 91.00296 
" clip-path="url(#pe293c64808)" style="fill: none; stroke: #4a8dff; stroke-width: 0.6"/>
   </g>
   <g id="line2d_7">
    <path d="M 8.64 101.90088 
L 17.947513 101.90088 
L 26.449754 102.0144 
L 35.524916 102.25176 
L 44.565331 102.6336 
L 53.654518 102.88128 
L 62.586502 102.77808 
L 71.801703 102.85032 
L 80.909939 102.93288 
L 89.777451 102.95352 
L 98.952566 103.00512 
L 107.837034 102.69552 
L 116.781473 102.55104 
L 125.78536 102.2724 
L 134.96058 102.21048 
L 144.091004 102.12792 
L 152.998183 102.13824 
L 161.795258 102.25176 
L 171.11219 102.36528 
L 180.134603 101.94216 
L 188.910431 101.92152 
L 198.088477 101.9112 
L 207.15108 102.2208 
L 215.984786 102.31368 
L 225.02991 101.79768 
L 234.095339 101.81832 
L 243.139626 102.07632 
L 252.137757 101.97312 
L 261.316535 101.79768 
L 270.482021 101.78736 
L 279.36 101.57064 
" clip-path="url(#pe293c64808)" style="fill: none; stroke: #f5841e; stroke-width: 0.6"/>
   </g>
  </g>
 </g>
 <defs>
  <clipPath id="pe293c64808">
   <rect x="8.64" y="4.8" width="270.72" height="103.2"/>
  </clipPath>
 </defs>
</svg>
