<?xml version="1.0" encoding="utf-8" standalone="no"?>
<!DOCTYPE svg PUBLIC "-//W3C//DTD SVG 1.1//EN"
  "http://www.w3.org/Graphics/SVG/1.1/DTD/svg11.dtd">
<svg xmlns:xlink="http://www.w3.org/1999/xlink" width="288pt" height="120pt" viewBox="0 0 288 120" xmlns="http://www.w3.org/2000/svg" version="1.1">
<desc id="nav-meta">{"window":"1m","count":4,"labels":["12.02","22.02","04.03","14.03"],"tick_utc":["2026-02-12T03:34:13Z","2026-02-22T03:28:03Z","2026-03-04T03:14:13Z","2026-03-14T03:15:02Z"],"w":720,"h":300}</desc>

 <metadata>
  <rdf:RDF xmlns:dc="http://purl.org/dc/elements/1.1/" xmlns:cc="http://creativecommons.org/ns#" xmlns:rdf="http://www.w3.org/1999/02/22-rdf-syntax-ns#">
   <cc:Work>
    <dc:type rdf:resource="http://purl.org/dc/dcmitype/StillImage"/>
    <dc:date>2026-03-14T03:15:04.797005</dc:date>
    <dc:format>image/svg+xml</dc:format>
    <dc:creator>
     <cc:Agent>
      <dc:title>Matplotlib v3.10.8, https://matplotlib.org/</dc:title>
     </cc:Agent>
    </dc:creator>
   </cc:Work>
  </rdf:RDF>
 </metadata>
 <defs>
  <style type="text/css">*{stroke-linejoin: round; stroke-linecap: butt}</style>
 </defs>
 <g id="figure_1">
  <g id="patch_1">
   <path d="M 0 120 
L 288 120 
L 288 0 
L 0 0 
L 0 120 
z
" style="fill: none; opacity: 0"/>
  </g>
  <g id="axes_1">
   <g id="patch_2">
    <path d="M 8.64 108 
L 279.36 108 
L 279.36 4.8 
L 8.64 4.8 
L 8.64 108 
z
" style="fill: none"/>
   </g>
   <g id="matplotlib.axis_1"/>
   <g id="matplotlib.axis_2"/>
   <g id="line2d_1">
    <path d="M 8.64 87.36 
L 279.36 87.36 
" clip-path="url(#pc238d521ba)" style="fill: none; stroke: #b2b2b2; stroke-opacity: 0.35; stroke-width: 0.5; stroke-linecap: square"/>
   </g>
   <g id="line2d_2">
    <path d="M 8.64 66.72 
L 279.36 66.72 
" clip-path="url(#pc238d521ba)" style="fill: none; stroke: #b2b2b2; stroke-opacity: 0.35; stroke-width: 0.5; stroke-linecap: square"/>
   </g>
   <g id="line2d_3">
    <path d="M 8.64 46.08 
L 279.36 46.08 
" clip-path="url(#pc238d521ba)" style="fill: none; stroke: #b2b2b2; stroke-opacity: 0.35; stroke-width: 0.5; stroke-linecap: square"/>
   </g>
   <g id="line2d_4">
    <path d="M 8.64 25.44 
L 279.36 25.44 
" clip-path="url(#pc238d521ba)" style="fill: none; stroke: #b2b2b2; stroke-opacity: 0.35; stroke-width: 0.5; stroke-linecap: square"/>
   </g>
   <g id="line2d_5">
    <path d="M 8.64 101.71512 
L 17.665292 101.84928 
L 26.584735 101.034 
L 35.13637 100.54896 
L 44.743468 101.04432 
L 52.637437 100.81728 
L 62.78517 101.034 
L 71.802208 101.4984 
L 80.777449 101.33328 
L 89.750287 101.1372 
L 98.881428 101.06496 
L 107.936605 102.09696 
L 116.201935 102.05568 
L 125.960126 101.4984 
L 134.947906 100.60056 
L 143.958778 100.80696 
L 152.880416 101.45712 
L 162.11354 100.55928 
L 171.048343 101.10624 
L 180.097355 100.8792 
L 189.07479 100.74504 
L 198.122235 100.21872 
L 207.145959 100.53864 
L 216.104691 101.07528 
L 225.220368 101.38488 
L 234.27544 101.26104 
L 243.245456 100.78632 
L 252.269913 100.91016 
L 261.333448 100.99272 
L 270.344007 100.38384 
L 279.36 100.50768 
" clip-path="url(#pc238d521ba)" style="fill: none; stroke: #bebebe; stroke-width: 0.5; stroke-linecap: round"/>
   </g>
   <g id="line2d_6">
    <path d="M 8.64 90.456 
L 17.665292 90.56952 
L 26.584735 89.15568 
L 35.13637 88.9596 
L 44.743468 90.6624 
L 52.637437 89.94 
L 62.78517 90.00192 
L 71.802208 90.3528 
L 80.777449 90.62112 
L 89.750287 90.5076 
L 98.881428 90.3528 
L 107.936605 92.004 
L 116.201935 92.13816 
L 125.960126 91.25064 
L 134.947906 89.166 
L 143.958778 89.56848 
L 152.880416 90.93072 
L 162.11354 89.41368 
L 171.048343 90.37344 
L 180.097355 89.79552 
L 189.07479 90.23928 
L 198.122235 88.0824 
L 207.145959 88.7532 
L 216.104691 90.16704 
L 225.220368 90.67272 
L 234.27544 90.18768 
L 243.245456 89.2692 
L 252.269913 89.54784 
L 261.333448 89.49624 
L 270.344007 88.31976 
L 279.36 88.45392 
" clip-path="url(#pc238d521ba)" style="fill: none; stroke: #4a8dff; stroke-width: 0.6"/>
   </g>
   <g id="line2d_7">
    <path d="M 8.64 101.07528 
L 17.665292 101.26104 
L 26.584735 100.63152 
L 35.13637 100.38384 
L 44.743468 100.84824 
L 52.637437 100.65216 
L 62.78517 101.034 
L 71.802208 101.19912 
L 80.777449 101.10624 
L 89.750287 100.97208 
L 98.881428 100.91016 
L 107.936605 101.7564 
L 116.201935 101.84928 
L 125.960126 101.56032 
L 134.947906 100.85856 
L 143.958778 101.12688 
L 152.880416 101.4468 
L 162.11354 101.02368 
L 171.048343 101.30232 
L 180.097355 100.81728 
L 189.07479 100.79664 
L 198.122235 99.3312 
L 207.145959 99.92976 
L 216.104691 100.78632 
L 225.220368 101.17848 
L 234.27544 101.1372 
L 243.245456 100.21872 
L 252.269913 100.37352 
L 261.333448 100.4664 
L 270.344007 99.88848 
L 279.36 99.94008 
" clip-path="url(#pc238d521ba)" style="fill: none; stroke: #f5841e; stroke-width: 0.6"/>
   </g>
  </g>
 </g>
 <defs>
  <clipPath id="pc238d521ba">
   <rect x="8.64" y="4.8" width="270.72" height="103.2"/>
  </clipPath>
 </defs>
</svg>
