<?xml version="1.0" encoding="utf-8" standalone="no"?>
<!DOCTYPE svg PUBLIC "-//W3C//DTD SVG 1.1//EN"
  "http://www.w3.org/Graphics/SVG/1.1/DTD/svg11.dtd">
<svg xmlns:xlink="http://www.w3.org/1999/xlink" width="288pt" height="120pt" viewBox="0 0 288 120" xmlns="http://www.w3.org/2000/svg" version="1.1">
<desc id="nav-meta">{"window":"3m","count":4,"labels":["01.01","31.01","01.03","31.03"],"tick_utc":["2026-01-01T12:00:00Z","2026-01-31T12:00:00Z","2026-03-01T03:33:48Z","2026-03-31T03:42:11Z"],"w":720,"h":300}</desc>

 <metadata>
  <rdf:RDF xmlns:dc="http://purl.org/dc/elements/1.1/" xmlns:cc="http://creativecommons.org/ns#" xmlns:rdf="http://www.w3.org/1999/02/22-rdf-syntax-ns#">
   <cc:Work>
    <dc:type rdf:resource="http://purl.org/dc/dcmitype/StillImage"/>
    <dc:date>2026-03-31T19:40:26.526526</dc:date>
    <dc:format>image/svg+xml</dc:format>
    <dc:creator>
     <cc:Agent>
      <dc:title>Matplotlib v3.10.8, https://matplotlib.org/</dc:title>
     </cc:Agent>
    </dc:creator>
   </cc:Work>
  </rdf:RDF>
 </metadata>
 <defs>
  <style type="text/css">*{stroke-linejoin: round; stroke-linecap: butt}</style>
 </defs>
 <g id="figure_1">
  <g id="patch_1">
   <path d="M 0 120 
L 288 120 
L 288 0 
L 0 0 
L 0 120 
z
" style="fill: none; opacity: 0"/>
  </g>
  <g id="axes_1">
   <g id="patch_2">
    <path d="M 8.64 108 
L 279.36 108 
L 279.36 4.8 
L 8.64 4.8 
L 8.64 108 
z
" style="fill: none"/>
   </g>
   <g id="matplotlib.axis_1"/>
   <g id="matplotlib.axis_2"/>
   <g id="line2d_1">
    <path d="M 8.64 87.36 
L 279.36 87.36 
" clip-path="url(#p0862f58922)" style="fill: none; stroke: #b2b2b2; stroke-opacity: 0.35; stroke-width: 0.5; stroke-linecap: square"/>
   </g>
   <g id="line2d_2">
    <path d="M 8.64 66.72 
L 279.36 66.72 
" clip-path="url(#p0862f58922)" style="fill: none; stroke: #b2b2b2; stroke-opacity: 0.35; stroke-width: 0.5; stroke-linecap: square"/>
   </g>
   <g id="line2d_3">
    <path d="M 8.64 46.08 
L 279.36 46.08 
" clip-path="url(#p0862f58922)" style="fill: none; stroke: #b2b2b2; stroke-opacity: 0.35; stroke-width: 0.5; stroke-linecap: square"/>
   </g>
   <g id="line2d_4">
    <path d="M 8.64 25.44 
L 279.36 25.44 
" clip-path="url(#p0862f58922)" style="fill: none; stroke: #b2b2b2; stroke-opacity: 0.35; stroke-width: 0.5; stroke-linecap: square"/>
   </g>
   <g id="line2d_5">
    <path d="M 8.64 92.47872 
L 11.693659 91.88016 
L 14.747318 90.42504 
L 17.800978 90.08448 
L 20.854637 89.92968 
L 23.908296 88.76352 
L 26.961955 87.94824 
L 30.015614 89.2692 
L 33.069274 88.72224 
L 36.122933 89.39304 
L 39.176592 89.40336 
L 42.230251 88.41264 
L 45.28391 88.4952 
L 48.33757 86.86464 
L 51.391229 86.42088 
L 54.444888 87.62832 
L 57.498547 86.93688 
L 60.552206 87.23616 
L 63.605866 88.63968 
L 66.659525 90.0432 
L 69.713184 92.12784 
L 72.766843 91.16808 
L 75.820502 91.46736 
L 78.874161 91.73568 
L 81.927821 91.78728 
L 84.98148 94.0164 
L 88.035139 92.5716 
L 91.088798 91.76664 
L 94.142457 92.33424 
L 97.196117 94.36728 
L 100.249776 94.46016 
L 103.303435 97.71096 
L 106.357094 98.48496 
L 109.410753 97.85544 
L 111.988727 99.10416 
L 114.415432 100.16712 
L 117.467536 102.23112 
L 120.508119 100.54896 
L 123.631581 100.70376 
L 126.66004 100.68312 
L 129.731124 100.95144 
L 132.778456 101.28168 
L 135.821124 101.71512 
L 138.873864 101.84928 
L 141.890802 101.034 
L 144.783331 100.54896 
L 148.032862 101.04432 
L 150.702941 100.81728 
L 154.135339 101.034 
L 157.185287 101.4984 
L 160.221098 101.33328 
L 163.256096 101.1372 
L 166.344639 101.06496 
L 169.407487 102.09696 
L 172.203176 102.05568 
L 175.503814 101.4984 
L 178.543866 100.60056 
L 181.591729 100.80696 
L 184.609408 101.45712 
L 187.732446 100.55928 
L 190.754579 101.10624 
L 193.815343 100.8792 
L 196.851896 100.74504 
L 199.912129 100.21872 
L 202.964339 100.53864 
L 205.994565 101.07528 
L 209.077878 101.38488 
L 212.140691 101.26104 
L 215.174734 100.78632 
L 218.227192 100.91016 
L 221.292868 100.99272 
L 224.340625 100.38384 
L 227.390219 100.50768 
L 230.502301 100.60056 
L 233.564584 99.76464 
L 236.564804 99.49632 
L 239.641755 99.40344 
L 242.696262 100.09488 
L 245.720198 100.3632 
L 248.755973 100.19808 
L 251.855296 100.47672 
L 254.91613 100.79664 
L 257.941514 100.26 
L 261.222607 99.83688 
L 264.085978 100.13616 
L 267.14349 100.80696 
L 270.167956 101.38488 
L 273.263214 101.3436 
L 276.325603 101.292 
L 279.36 101.28168 
" clip-path="url(#p0862f58922)" style="fill: none; stroke: #bebebe; stroke-width: 0.5; stroke-linecap: round"/>
   </g>
   <g id="line2d_6">
    <path d="M 8.64 75.56424 
L 11.693659 75.05856 
L 14.747318 73.26288 
L 17.800978 73.20096 
L 20.854637 73.00488 
L 23.908296 71.68392 
L 26.961955 70.6932 
L 30.015614 72.62304 
L 33.069274 73.52088 
L 36.122933 73.83048 
L 39.176592 73.8408 
L 42.230251 73.29384 
L 45.28391 73.72728 
L 48.33757 70.32168 
L 51.391229 69.77472 
L 54.444888 70.34232 
L 57.498547 70.67256 
L 60.552206 70.51776 
L 63.605866 70.848 
L 66.659525 72.31344 
L 69.713184 76.01832 
L 72.766843 75.41976 
L 75.820502 75.83256 
L 78.874161 75.79128 
L 81.927821 75.82224 
L 84.98148 77.82432 
L 88.035139 76.14216 
L 91.088798 74.75928 
L 94.142457 74.96568 
L 97.196117 77.75208 
L 100.249776 79.48584 
L 103.303435 83.31456 
L 106.357094 85.90488 
L 109.410753 84.79032 
L 111.988727 85.84296 
L 114.415432 88.25784 
L 117.467536 91.41576 
L 120.508119 88.7532 
L 123.631581 88.65 
L 126.66004 88.55712 
L 129.731124 88.96992 
L 132.778456 89.7336 
L 135.821124 90.456 
L 138.873864 90.56952 
L 141.890802 89.15568 
L 144.783331 88.9596 
L 148.032862 90.6624 
L 150.702941 89.94 
L 154.135339 90.00192 
L 157.185287 90.3528 
L 160.221098 90.62112 
L 163.256096 90.5076 
L 166.344639 90.3528 
L 169.407487 92.004 
L 172.203176 92.13816 
L 175.503814 91.25064 
L 178.543866 89.166 
L 181.591729 89.56848 
L 184.609408 90.93072 
L 187.732446 89.41368 
L 190.754579 90.37344 
L 193.815343 89.79552 
L 196.851896 90.23928 
L 199.912129 88.0824 
L 202.964339 88.7532 
L 205.994565 90.16704 
L 209.077878 90.67272 
L 212.140691 90.18768 
L 215.174734 89.2692 
L 218.227192 89.54784 
L 221.292868 89.49624 
L 224.340625 88.31976 
L 227.390219 88.45392 
L 230.502301 88.46424 
L 233.564584 86.38992 
L 236.564804 84.80064 
L 239.641755 84.8316 
L 242.696262 86.586 
L 245.720198 87.74184 
L 248.755973 87.618 
L 251.855296 88.19592 
L 254.91613 89.08344 
L 257.941514 87.89664 
L 261.222607 87.3084 
L 264.085978 87.65928 
L 267.14349 88.96992 
L 270.167956 90.07416 
L 273.263214 89.76456 
L 276.325603 89.3724 
L 279.36 89.00088 
" clip-path="url(#p0862f58922)" style="fill: none; stroke: #4a8dff; stroke-width: 0.6"/>
   </g>
   <g id="line2d_7">
    <path d="M 8.64 86.02872 
L 11.693659 84.78 
L 14.747318 83.53128 
L 17.800978 82.83984 
L 20.854637 82.03488 
L 23.908296 79.39296 
L 26.961955 79.66128 
L 30.015614 82.15872 
L 33.069274 82.43736 
L 36.122933 82.93272 
L 39.176592 83.00496 
L 42.230251 82.6128 
L 45.28391 82.28256 
L 48.33757 78.01008 
L 51.391229 76.19376 
L 54.444888 77.66952 
L 57.498547 77.74176 
L 60.552206 78.1752 
L 63.605866 79.5684 
L 66.659525 80.8068 
L 69.713184 85.20312 
L 72.766843 84.12984 
L 75.820502 84.03696 
L 78.874161 84.06792 
L 81.927821 84.3156 
L 84.98148 87.02976 
L 88.035139 85.21344 
L 91.088798 84.28464 
L 94.142457 84.32592 
L 97.196117 89.08344 
L 100.249776 89.5272 
L 103.303435 95.14128 
L 106.357094 96.98856 
L 109.410753 95.08968 
L 111.988727 97.71096 
L 114.415432 99.80592 
L 117.467536 101.79768 
L 120.508119 100.03296 
L 123.631581 100.518 
L 126.66004 99.98136 
L 129.731124 100.49736 
L 132.778456 100.78632 
L 135.821124 101.07528 
L 138.873864 101.26104 
L 141.890802 100.63152 
L 144.783331 100.38384 
L 148.032862 100.84824 
L 150.702941 100.65216 
L 154.135339 101.034 
L 157.185287 101.19912 
L 160.221098 101.10624 
L 163.256096 100.97208 
L 166.344639 100.91016 
L 169.407487 101.7564 
L 172.203176 101.84928 
L 175.503814 101.56032 
L 178.543866 100.85856 
L 181.591729 101.12688 
L 184.609408 101.4468 
L 187.732446 101.02368 
L 190.754579 101.30232 
L 193.815343 100.81728 
L 196.851896 100.79664 
L 199.912129 99.3312 
L 202.964339 99.92976 
L 205.994565 100.78632 
L 209.077878 101.17848 
L 212.140691 101.1372 
L 215.174734 100.21872 
L 218.227192 100.37352 
L 221.292868 100.4664 
L 224.340625 99.88848 
L 227.390219 99.94008 
L 230.502301 99.81624 
L 233.564584 98.93904 
L 236.564804 98.3508 
L 239.641755 98.52624 
L 242.696262 99.78528 
L 245.720198 100.12584 
L 248.755973 100.03296 
L 251.855296 100.45608 
L 254.91613 100.83792 
L 257.941514 100.11552 
L 261.222607 99.87816 
L 264.085978 100.002 
L 267.14349 100.64184 
L 270.167956 101.41584 
L 273.263214 101.21976 
L 276.325603 101.14752 
L 279.36 101.00304 
" clip-path="url(#p0862f58922)" style="fill: none; stroke: #f5841e; stroke-width: 0.6"/>
   </g>
  </g>
 </g>
 <defs>
  <clipPath id="p0862f58922">
   <rect x="8.64" y="4.8" width="270.72" height="103.2"/>
  </clipPath>
 </defs>
</svg>
