<?xml version="1.0" encoding="utf-8" standalone="no"?>
<!DOCTYPE svg PUBLIC "-//W3C//DTD SVG 1.1//EN"
  "http://www.w3.org/Graphics/SVG/1.1/DTD/svg11.dtd">
<svg xmlns:xlink="http://www.w3.org/1999/xlink" width="288pt" height="120pt" viewBox="0 0 288 120" xmlns="http://www.w3.org/2000/svg" version="1.1">
<desc id="nav-meta">{"window":"1m","count":4,"labels":["24.02","06.03","15.03","25.03"],"tick_utc":["2026-02-24T01:30:44Z","2026-03-06T03:16:38Z","2026-03-15T03:42:35Z","2026-03-25T05:09:13Z"],"w":720,"h":300}</desc>

 <metadata>
  <rdf:RDF xmlns:dc="http://purl.org/dc/elements/1.1/" xmlns:cc="http://creativecommons.org/ns#" xmlns:rdf="http://www.w3.org/1999/02/22-rdf-syntax-ns#">
   <cc:Work>
    <dc:type rdf:resource="http://purl.org/dc/dcmitype/StillImage"/>
    <dc:date>2026-03-25T19:32:34.894946</dc:date>
    <dc:format>image/svg+xml</dc:format>
    <dc:creator>
     <cc:Agent>
      <dc:title>Matplotlib v3.10.8, https://matplotlib.org/</dc:title>
     </cc:Agent>
    </dc:creator>
   </cc:Work>
  </rdf:RDF>
 </metadata>
 <defs>
  <style type="text/css">*{stroke-linejoin: round; stroke-linecap: butt}</style>
 </defs>
 <g id="figure_1">
  <g id="patch_1">
   <path d="M 0 120 
L 288 120 
L 288 0 
L 0 0 
L 0 120 
z
" style="fill: none; opacity: 0"/>
  </g>
  <g id="axes_1">
   <g id="patch_2">
    <path d="M 8.64 108 
L 279.36 108 
L 279.36 4.8 
L 8.64 4.8 
L 8.64 108 
z
" style="fill: none"/>
   </g>
   <g id="matplotlib.axis_1"/>
   <g id="matplotlib.axis_2"/>
   <g id="line2d_1">
    <path d="M 8.64 87.36 
L 279.36 87.36 
" clip-path="url(#p66c83a50a3)" style="fill: none; stroke: #b2b2b2; stroke-opacity: 0.35; stroke-width: 0.5; stroke-linecap: square"/>
   </g>
   <g id="line2d_2">
    <path d="M 8.64 66.72 
L 279.36 66.72 
" clip-path="url(#p66c83a50a3)" style="fill: none; stroke: #b2b2b2; stroke-opacity: 0.35; stroke-width: 0.5; stroke-linecap: square"/>
   </g>
   <g id="line2d_3">
    <path d="M 8.64 46.08 
L 279.36 46.08 
" clip-path="url(#p66c83a50a3)" style="fill: none; stroke: #b2b2b2; stroke-opacity: 0.35; stroke-width: 0.5; stroke-linecap: square"/>
   </g>
   <g id="line2d_4">
    <path d="M 8.64 25.44 
L 279.36 25.44 
" clip-path="url(#p66c83a50a3)" style="fill: none; stroke: #b2b2b2; stroke-opacity: 0.35; stroke-width: 0.5; stroke-linecap: square"/>
   </g>
   <g id="line2d_5">
    <path d="M 8.64 102.05568 
L 18.677682 101.4984 
L 27.922887 100.60056 
L 37.191845 100.80696 
L 46.369013 101.45712 
L 55.86659 100.55928 
L 65.0573 101.10624 
L 74.365491 100.8792 
L 83.600055 100.74504 
L 92.906633 100.21872 
L 102.188812 100.53864 
L 111.404137 101.07528 
L 120.780901 101.38488 
L 130.095326 101.26104 
L 139.322258 100.78632 
L 148.60519 100.91016 
L 157.928321 100.99272 
L 167.196957 100.38384 
L 176.471182 100.50768 
L 185.935439 100.60056 
L 195.248251 99.76464 
L 204.372322 99.49632 
L 213.72974 99.40344 
L 223.018906 100.09488 
L 232.215098 100.3632 
L 241.447297 100.19808 
L 250.872752 100.47672 
L 260.181158 100.79664 
L 269.381757 100.26 
L 279.36 99.83688 
" clip-path="url(#p66c83a50a3)" style="fill: none; stroke: #bebebe; stroke-width: 0.5; stroke-linecap: round"/>
   </g>
   <g id="line2d_6">
    <path d="M 8.64 92.13816 
L 18.677682 91.25064 
L 27.922887 89.166 
L 37.191845 89.56848 
L 46.369013 90.93072 
L 55.86659 89.41368 
L 65.0573 90.37344 
L 74.365491 89.79552 
L 83.600055 90.23928 
L 92.906633 88.0824 
L 102.188812 88.7532 
L 111.404137 90.16704 
L 120.780901 90.67272 
L 130.095326 90.18768 
L 139.322258 89.2692 
L 148.60519 89.54784 
L 157.928321 89.49624 
L 167.196957 88.31976 
L 176.471182 88.45392 
L 185.935439 88.46424 
L 195.248251 86.38992 
L 204.372322 84.80064 
L 213.72974 84.8316 
L 223.018906 86.586 
L 232.215098 87.74184 
L 241.447297 87.618 
L 250.872752 88.19592 
L 260.181158 89.08344 
L 269.381757 87.89664 
L 279.36 87.3084 
" clip-path="url(#p66c83a50a3)" style="fill: none; stroke: #4a8dff; stroke-width: 0.6"/>
   </g>
   <g id="line2d_7">
    <path d="M 8.64 101.84928 
L 18.677682 101.56032 
L 27.922887 100.85856 
L 37.191845 101.12688 
L 46.369013 101.4468 
L 55.86659 101.02368 
L 65.0573 101.30232 
L 74.365491 100.81728 
L 83.600055 100.79664 
L 92.906633 99.3312 
L 102.188812 99.92976 
L 111.404137 100.78632 
L 120.780901 101.17848 
L 130.095326 101.1372 
L 139.322258 100.21872 
L 148.60519 100.37352 
L 157.928321 100.4664 
L 167.196957 99.88848 
L 176.471182 99.94008 
L 185.935439 99.81624 
L 195.248251 98.93904 
L 204.372322 98.3508 
L 213.72974 98.52624 
L 223.018906 99.78528 
L 232.215098 100.12584 
L 241.447297 100.03296 
L 250.872752 100.45608 
L 260.181158 100.83792 
L 269.381757 100.11552 
L 279.36 99.87816 
" clip-path="url(#p66c83a50a3)" style="fill: none; stroke: #f5841e; stroke-width: 0.6"/>
   </g>
  </g>
 </g>
 <defs>
  <clipPath id="p66c83a50a3">
   <rect x="8.64" y="4.8" width="270.72" height="103.2"/>
  </clipPath>
 </defs>
</svg>
