<?xml version="1.0" encoding="utf-8" standalone="no"?>
<!DOCTYPE svg PUBLIC "-//W3C//DTD SVG 1.1//EN"
  "http://www.w3.org/Graphics/SVG/1.1/DTD/svg11.dtd">
<svg xmlns:xlink="http://www.w3.org/1999/xlink" width="288pt" height="120pt" viewBox="0 0 288 120" xmlns="http://www.w3.org/2000/svg" version="1.1">
<desc id="nav-meta">{"window":"1m","count":4,"labels":["31.05","10.06","20.06","30.06"],"tick_utc":["2026-05-31T05:08:27Z","2026-06-10T05:05:46Z","2026-06-20T04:59:26Z","2026-06-30T04:49:55Z"],"w":720,"h":300}</desc>

 <metadata>
  <rdf:RDF xmlns:dc="http://purl.org/dc/elements/1.1/" xmlns:cc="http://creativecommons.org/ns#" xmlns:rdf="http://www.w3.org/1999/02/22-rdf-syntax-ns#">
   <cc:Work>
    <dc:type rdf:resource="http://purl.org/dc/dcmitype/StillImage"/>
    <dc:date>2026-06-30T04:49:57.138284</dc:date>
    <dc:format>image/svg+xml</dc:format>
    <dc:creator>
     <cc:Agent>
      <dc:title>Matplotlib v3.11.0, https://matplotlib.org/</dc:title>
     </cc:Agent>
    </dc:creator>
   </cc:Work>
  </rdf:RDF>
 </metadata>
 <defs>
  <style type="text/css">*{stroke-linejoin: round; stroke-linecap: butt}</style>
 </defs>
 <g id="figure_1">
  <g id="patch_1">
   <path d="M 0 120 
L 288 120 
L 288 0 
L 0 0 
L 0 120 
z
" style="fill: none; opacity: 0"/>
  </g>
  <g id="axes_1">
   <g id="patch_2">
    <path d="M 8.64 108 
L 279.36 108 
L 279.36 4.8 
L 8.64 4.8 
L 8.64 108 
z
" style="fill: none"/>
   </g>
   <g id="matplotlib.axis_1"/>
   <g id="matplotlib.axis_2"/>
   <g id="line2d_1">
    <path d="M 8.64 87.36 
L 279.36 87.36 
" clip-path="url(#pc35b467949)" style="fill: none; stroke: #b2b2b2; stroke-opacity: 0.35; stroke-width: 0.5; stroke-linecap: square"/>
   </g>
   <g id="line2d_2">
    <path d="M 8.64 66.72 
L 279.36 66.72 
" clip-path="url(#pc35b467949)" style="fill: none; stroke: #b2b2b2; stroke-opacity: 0.35; stroke-width: 0.5; stroke-linecap: square"/>
   </g>
   <g id="line2d_3">
    <path d="M 8.64 46.08 
L 279.36 46.08 
" clip-path="url(#pc35b467949)" style="fill: none; stroke: #b2b2b2; stroke-opacity: 0.35; stroke-width: 0.5; stroke-linecap: square"/>
   </g>
   <g id="line2d_4">
    <path d="M 8.64 25.44 
L 279.36 25.44 
" clip-path="url(#pc35b467949)" style="fill: none; stroke: #b2b2b2; stroke-opacity: 0.35; stroke-width: 0.5; stroke-linecap: square"/>
   </g>
   <g id="line2d_5">
    <path d="M 8.64 101.32296 
L 17.80141 101.51904 
L 26.740468 101.7048 
L 35.869904 102.54072 
L 44.866848 103.08768 
L 53.746033 103.36632 
L 62.635145 104.22288 
L 71.857054 103.85136 
L 80.924842 103.68624 
L 89.780412 103.43856 
L 98.901908 103.81008 
L 107.982757 103.72752 
L 117.046052 103.50048 
L 126.007888 103.5108 
L 135.101276 103.31472 
L 144.429242 102.95352 
L 153.508628 102.61296 
L 162.248947 102.6336 
L 171.233561 102.9948 
L 180.47407 103.28376 
L 189.140933 103.01544 
L 198.356677 102.69552 
L 207.648804 102.582 
L 216.13699 102.88128 
L 225.19715 103.15992 
L 234.22262 103.36632 
L 243.296782 103.36632 
L 252.214001 102.81936 
L 261.413968 103.0464 
L 270.507146 102.9432 
L 279.36 102.59232 
" clip-path="url(#pc35b467949)" style="fill: none; stroke: #bebebe; stroke-width: 0.5; stroke-linecap: round"/>
   </g>
   <g id="line2d_6">
    <path d="M 8.64 89.46528 
L 17.80141 90.0432 
L 26.740468 89.96064 
L 35.869904 91.99368 
L 44.866848 93.05664 
L 53.746033 93.74808 
L 62.635145 97.02984 
L 71.857054 95.93592 
L 80.924842 95.07936 
L 89.780412 94.46016 
L 98.901908 95.47152 
L 107.982757 95.11032 
L 117.046052 94.82136 
L 126.007888 94.8936 
L 135.101276 94.70784 
L 144.429242 94.04736 
L 153.508628 93.40752 
L 162.248947 92.9844 
L 171.233561 93.93384 
L 180.47407 94.4292 
L 189.140933 94.19184 
L 198.356677 93.87192 
L 207.648804 93.81 
L 216.13699 94.03704 
L 225.19715 94.83168 
L 234.22262 95.48184 
L 243.296782 96.63768 
L 252.214001 96.14232 
L 261.413968 96.30744 
L 270.507146 96.29712 
L 279.36 96.04944 
" clip-path="url(#pc35b467949)" style="fill: none; stroke: #4a8dff; stroke-width: 0.6"/>
   </g>
   <g id="line2d_7">
    <path d="M 8.64 98.74296 
L 17.80141 99.09384 
L 26.740468 100.0536 
L 35.869904 101.23008 
L 44.866848 101.99376 
L 53.746033 102.08664 
L 62.635145 102.8916 
L 71.857054 102.45816 
L 80.924842 102.28272 
L 89.780412 102.10728 
L 98.901908 102.582 
L 107.982757 102.29304 
L 117.046052 102.08664 
L 126.007888 102.066 
L 135.101276 101.86992 
L 144.429242 101.48808 
L 153.508628 101.40552 
L 162.248947 101.4984 
L 171.233561 101.97312 
L 180.47407 102.26208 
L 189.140933 102.066 
L 198.356677 101.90088 
L 207.648804 101.90088 
L 216.13699 102.0144 
L 225.19715 102.25176 
L 234.22262 102.6336 
L 243.296782 102.88128 
L 252.214001 102.77808 
L 261.413968 102.85032 
L 270.507146 102.93288 
L 279.36 102.95352 
" clip-path="url(#pc35b467949)" style="fill: none; stroke: #f5841e; stroke-width: 0.6"/>
   </g>
  </g>
 </g>
 <defs>
  <clipPath id="pc35b467949">
   <rect x="8.64" y="4.8" width="270.72" height="103.2"/>
  </clipPath>
 </defs>
</svg>
