<?xml version="1.0" encoding="utf-8" standalone="no"?>
<!DOCTYPE svg PUBLIC "-//W3C//DTD SVG 1.1//EN"
  "http://www.w3.org/Graphics/SVG/1.1/DTD/svg11.dtd">
<svg xmlns:xlink="http://www.w3.org/1999/xlink" width="288pt" height="120pt" viewBox="0 0 288 120" xmlns="http://www.w3.org/2000/svg" version="1.1">
<desc id="nav-meta">{"window":"3m","count":4,"labels":["08.12","07.01","05.02","07.03"],"tick_utc":["2025-12-08T12:00:00Z","2026-01-07T12:00:00Z","2026-02-05T03:20:02Z","2026-03-07T03:05:35Z"],"w":720,"h":300}</desc>

 <metadata>
  <rdf:RDF xmlns:dc="http://purl.org/dc/elements/1.1/" xmlns:cc="http://creativecommons.org/ns#" xmlns:rdf="http://www.w3.org/1999/02/22-rdf-syntax-ns#">
   <cc:Work>
    <dc:type rdf:resource="http://purl.org/dc/dcmitype/StillImage"/>
    <dc:date>2026-03-07T13:25:58.255105</dc:date>
    <dc:format>image/svg+xml</dc:format>
    <dc:creator>
     <cc:Agent>
      <dc:title>Matplotlib v3.10.8, https://matplotlib.org/</dc:title>
     </cc:Agent>
    </dc:creator>
   </cc:Work>
  </rdf:RDF>
 </metadata>
 <defs>
  <style type="text/css">*{stroke-linejoin: round; stroke-linecap: butt}</style>
 </defs>
 <g id="figure_1">
  <g id="patch_1">
   <path d="M 0 120 
L 288 120 
L 288 0 
L 0 0 
L 0 120 
z
" style="fill: none; opacity: 0"/>
  </g>
  <g id="axes_1">
   <g id="patch_2">
    <path d="M 8.64 108 
L 279.36 108 
L 279.36 4.8 
L 8.64 4.8 
L 8.64 108 
z
" style="fill: none"/>
   </g>
   <g id="matplotlib.axis_1"/>
   <g id="matplotlib.axis_2"/>
   <g id="line2d_1">
    <path d="M 8.64 87.36 
L 279.36 87.36 
" clip-path="url(#p608762dd5a)" style="fill: none; stroke: #b2b2b2; stroke-opacity: 0.35; stroke-width: 0.5; stroke-linecap: square"/>
   </g>
   <g id="line2d_2">
    <path d="M 8.64 66.72 
L 279.36 66.72 
" clip-path="url(#p608762dd5a)" style="fill: none; stroke: #b2b2b2; stroke-opacity: 0.35; stroke-width: 0.5; stroke-linecap: square"/>
   </g>
   <g id="line2d_3">
    <path d="M 8.64 46.08 
L 279.36 46.08 
" clip-path="url(#p608762dd5a)" style="fill: none; stroke: #b2b2b2; stroke-opacity: 0.35; stroke-width: 0.5; stroke-linecap: square"/>
   </g>
   <g id="line2d_4">
    <path d="M 8.64 25.44 
L 279.36 25.44 
" clip-path="url(#p608762dd5a)" style="fill: none; stroke: #b2b2b2; stroke-opacity: 0.35; stroke-width: 0.5; stroke-linecap: square"/>
   </g>
   <g id="line2d_5">
    <path d="M 8.64 90.53856 
L 11.694535 90.08448 
L 14.74907 88.79448 
L 17.803605 89.20728 
L 20.85814 89.22792 
L 23.912675 90.31152 
L 26.967209 90.10512 
L 30.021744 91.09584 
L 33.076279 91.61184 
L 36.130814 91.31256 
L 39.185349 92.87088 
L 42.239884 93.8616 
L 45.294419 92.02464 
L 48.348954 92.13816 
L 51.403489 92.07624 
L 54.458024 92.14848 
L 57.512559 92.64384 
L 60.567094 93.01536 
L 63.621628 93.69648 
L 66.676163 93.11856 
L 69.730698 92.44776 
L 72.785233 92.30328 
L 75.839768 92.87088 
L 78.894303 92.38584 
L 81.948838 92.47872 
L 85.003373 91.88016 
L 88.057908 90.42504 
L 91.112443 90.08448 
L 94.166978 89.92968 
L 97.221512 88.76352 
L 100.276047 87.94824 
L 103.330582 89.2692 
L 106.385117 88.72224 
L 109.439652 89.39304 
L 112.494187 89.40336 
L 115.548722 88.41264 
L 118.603257 88.4952 
L 121.657792 86.86464 
L 124.712327 86.42088 
L 127.766862 87.62832 
L 130.821396 86.93688 
L 133.875931 87.23616 
L 136.930466 88.63968 
L 139.985001 90.0432 
L 143.039536 92.12784 
L 146.094071 91.16808 
L 149.148606 91.46736 
L 152.203141 91.73568 
L 155.257676 91.78728 
L 158.312211 94.0164 
L 161.366746 92.5716 
L 164.421281 91.76664 
L 167.475815 92.33424 
L 170.53035 94.36728 
L 173.584885 94.46016 
L 176.63942 97.71096 
L 179.693955 98.48496 
L 182.74849 97.85544 
L 185.327203 99.10416 
L 187.754604 100.16712 
L 190.807583 102.23112 
L 193.849038 100.54896 
L 196.973395 100.70376 
L 200.002723 100.68312 
L 203.074688 100.95144 
L 206.122894 101.28168 
L 209.166434 101.71512 
L 212.22005 101.84928 
L 215.237853 101.034 
L 218.131211 100.54896 
L 221.381675 101.04432 
L 224.052519 100.81728 
L 227.485901 101.034 
L 230.536724 101.4984 
L 233.573405 101.33328 
L 236.609274 101.1372 
L 239.698703 101.06496 
L 242.762429 102.09696 
L 245.55892 102.05568 
L 248.860504 101.4984 
L 251.901428 100.60056 
L 254.950165 100.80696 
L 257.96871 101.45712 
L 261.092644 100.55928 
L 264.115644 101.10624 
L 267.177284 100.8792 
L 270.214708 100.74504 
L 273.275819 100.21872 
L 276.328904 100.53864 
L 279.36 101.07528 
" clip-path="url(#p608762dd5a)" style="fill: none; stroke: #bebebe; stroke-width: 0.5; stroke-linecap: round"/>
   </g>
   <g id="line2d_6">
    <path d="M 8.64 74.28456 
L 11.694535 73.21128 
L 14.74907 70.2804 
L 17.803605 70.2288 
L 20.85814 71.56008 
L 23.912675 73.79952 
L 26.967209 73.35576 
L 30.021744 74.0988 
L 33.076279 75.5952 
L 36.130814 75.5952 
L 39.185349 77.61792 
L 42.239884 77.63856 
L 45.294419 75.40944 
L 48.348954 75.40944 
L 51.403489 75.04824 
L 54.458024 74.98632 
L 57.512559 75.58488 
L 60.567094 75.87384 
L 63.621628 76.49304 
L 66.676163 76.15248 
L 69.730698 75.82224 
L 72.785233 75.84288 
L 75.839768 76.03896 
L 78.894303 75.51264 
L 81.948838 75.56424 
L 85.003373 75.05856 
L 88.057908 73.26288 
L 91.112443 73.20096 
L 94.166978 73.00488 
L 97.221512 71.68392 
L 100.276047 70.6932 
L 103.330582 72.62304 
L 106.385117 73.52088 
L 109.439652 73.83048 
L 112.494187 73.8408 
L 115.548722 73.29384 
L 118.603257 73.72728 
L 121.657792 70.32168 
L 124.712327 69.77472 
L 127.766862 70.34232 
L 130.821396 70.67256 
L 133.875931 70.51776 
L 136.930466 70.848 
L 139.985001 72.31344 
L 143.039536 76.01832 
L 146.094071 75.41976 
L 149.148606 75.83256 
L 152.203141 75.79128 
L 155.257676 75.82224 
L 158.312211 77.82432 
L 161.366746 76.14216 
L 164.421281 74.75928 
L 167.475815 74.96568 
L 170.53035 77.75208 
L 173.584885 79.48584 
L 176.63942 83.31456 
L 179.693955 85.90488 
L 182.74849 84.79032 
L 185.327203 85.84296 
L 187.754604 88.25784 
L 190.807583 91.41576 
L 193.849038 88.7532 
L 196.973395 88.65 
L 200.002723 88.55712 
L 203.074688 88.96992 
L 206.122894 89.7336 
L 209.166434 90.456 
L 212.22005 90.56952 
L 215.237853 89.15568 
L 218.131211 88.9596 
L 221.381675 90.6624 
L 224.052519 89.94 
L 227.485901 90.00192 
L 230.536724 90.3528 
L 233.573405 90.62112 
L 236.609274 90.5076 
L 239.698703 90.3528 
L 242.762429 92.004 
L 245.55892 92.13816 
L 248.860504 91.25064 
L 251.901428 89.166 
L 254.950165 89.56848 
L 257.96871 90.93072 
L 261.092644 89.41368 
L 264.115644 90.37344 
L 267.177284 89.79552 
L 270.214708 90.23928 
L 273.275819 88.0824 
L 276.328904 88.7532 
L 279.36 90.16704 
" clip-path="url(#p608762dd5a)" style="fill: none; stroke: #4a8dff; stroke-width: 0.6"/>
   </g>
   <g id="line2d_7">
    <path d="M 8.64 83.29392 
L 11.694535 82.8192 
L 14.74907 80.64168 
L 17.803605 81.38472 
L 20.85814 80.87904 
L 23.912675 83.13912 
L 26.967209 83.19072 
L 30.021744 85.296 
L 33.076279 87.17424 
L 36.130814 85.71912 
L 39.185349 87.53544 
L 42.239884 88.17528 
L 45.294419 85.41984 
L 48.348954 85.17216 
L 51.403489 84.9348 
L 54.458024 85.01736 
L 57.512559 86.14224 
L 60.567094 85.90488 
L 63.621628 86.328 
L 66.676163 86.24544 
L 69.730698 85.72944 
L 72.785233 85.7088 
L 75.839768 86.40024 
L 78.894303 85.09992 
L 81.948838 86.02872 
L 85.003373 84.78 
L 88.057908 83.53128 
L 91.112443 82.83984 
L 94.166978 82.03488 
L 97.221512 79.39296 
L 100.276047 79.66128 
L 103.330582 82.15872 
L 106.385117 82.43736 
L 109.439652 82.93272 
L 112.494187 83.00496 
L 115.548722 82.6128 
L 118.603257 82.28256 
L 121.657792 78.01008 
L 124.712327 76.19376 
L 127.766862 77.66952 
L 130.821396 77.74176 
L 133.875931 78.1752 
L 136.930466 79.5684 
L 139.985001 80.8068 
L 143.039536 85.20312 
L 146.094071 84.12984 
L 149.148606 84.03696 
L 152.203141 84.06792 
L 155.257676 84.3156 
L 158.312211 87.02976 
L 161.366746 85.21344 
L 164.421281 84.28464 
L 167.475815 84.32592 
L 170.53035 89.08344 
L 173.584885 89.5272 
L 176.63942 95.14128 
L 179.693955 96.98856 
L 182.74849 95.08968 
L 185.327203 97.71096 
L 187.754604 99.80592 
L 190.807583 101.79768 
L 193.849038 100.03296 
L 196.973395 100.518 
L 200.002723 99.98136 
L 203.074688 100.49736 
L 206.122894 100.78632 
L 209.166434 101.07528 
L 212.22005 101.26104 
L 215.237853 100.63152 
L 218.131211 100.38384 
L 221.381675 100.84824 
L 224.052519 100.65216 
L 227.485901 101.034 
L 230.536724 101.19912 
L 233.573405 101.10624 
L 236.609274 100.97208 
L 239.698703 100.91016 
L 242.762429 101.7564 
L 245.55892 101.84928 
L 248.860504 101.56032 
L 251.901428 100.85856 
L 254.950165 101.12688 
L 257.96871 101.4468 
L 261.092644 101.02368 
L 264.115644 101.30232 
L 267.177284 100.81728 
L 270.214708 100.79664 
L 273.275819 99.3312 
L 276.328904 99.92976 
L 279.36 100.78632 
" clip-path="url(#p608762dd5a)" style="fill: none; stroke: #f5841e; stroke-width: 0.6"/>
   </g>
  </g>
 </g>
 <defs>
  <clipPath id="p608762dd5a">
   <rect x="8.64" y="4.8" width="270.72" height="103.2"/>
  </clipPath>
 </defs>
</svg>
