<?xml version="1.0" encoding="utf-8" standalone="no"?>
<!DOCTYPE svg PUBLIC "-//W3C//DTD SVG 1.1//EN"
  "http://www.w3.org/Graphics/SVG/1.1/DTD/svg11.dtd">
<svg xmlns:xlink="http://www.w3.org/1999/xlink" width="288pt" height="120pt" viewBox="0 0 288 120" xmlns="http://www.w3.org/2000/svg" version="1.1">
<desc id="nav-meta">{"window":"1m","count":4,"labels":["12.04","22.04","01.05","11.05"],"tick_utc":["2026-04-12T03:55:19Z","2026-04-22T03:51:39Z","2026-05-01T04:39:16Z","2026-05-11T04:46:58Z"],"w":720,"h":300}</desc>

 <metadata>
  <rdf:RDF xmlns:dc="http://purl.org/dc/elements/1.1/" xmlns:cc="http://creativecommons.org/ns#" xmlns:rdf="http://www.w3.org/1999/02/22-rdf-syntax-ns#">
   <cc:Work>
    <dc:type rdf:resource="http://purl.org/dc/dcmitype/StillImage"/>
    <dc:date>2026-05-11T20:23:24.614613</dc:date>
    <dc:format>image/svg+xml</dc:format>
    <dc:creator>
     <cc:Agent>
      <dc:title>Matplotlib v3.10.9, https://matplotlib.org/</dc:title>
     </cc:Agent>
    </dc:creator>
   </cc:Work>
  </rdf:RDF>
 </metadata>
 <defs>
  <style type="text/css">*{stroke-linejoin: round; stroke-linecap: butt}</style>
 </defs>
 <g id="figure_1">
  <g id="patch_1">
   <path d="M 0 120 
L 288 120 
L 288 0 
L 0 0 
L 0 120 
z
" style="fill: none; opacity: 0"/>
  </g>
  <g id="axes_1">
   <g id="patch_2">
    <path d="M 8.64 108 
L 279.36 108 
L 279.36 4.8 
L 8.64 4.8 
L 8.64 108 
z
" style="fill: none"/>
   </g>
   <g id="matplotlib.axis_1"/>
   <g id="matplotlib.axis_2"/>
   <g id="line2d_1">
    <path d="M 8.64 87.36 
L 279.36 87.36 
" clip-path="url(#p012f6e6699)" style="fill: none; stroke: #b2b2b2; stroke-opacity: 0.35; stroke-width: 0.5; stroke-linecap: square"/>
   </g>
   <g id="line2d_2">
    <path d="M 8.64 66.72 
L 279.36 66.72 
" clip-path="url(#p012f6e6699)" style="fill: none; stroke: #b2b2b2; stroke-opacity: 0.35; stroke-width: 0.5; stroke-linecap: square"/>
   </g>
   <g id="line2d_3">
    <path d="M 8.64 46.08 
L 279.36 46.08 
" clip-path="url(#p012f6e6699)" style="fill: none; stroke: #b2b2b2; stroke-opacity: 0.35; stroke-width: 0.5; stroke-linecap: square"/>
   </g>
   <g id="line2d_4">
    <path d="M 8.64 25.44 
L 279.36 25.44 
" clip-path="url(#p012f6e6699)" style="fill: none; stroke: #b2b2b2; stroke-opacity: 0.35; stroke-width: 0.5; stroke-linecap: square"/>
   </g>
   <g id="line2d_5">
    <path d="M 8.64 101.3952 
L 18.011446 101.47776 
L 27.275735 100.86888 
L 36.592253 101.26104 
L 45.956253 100.99272 
L 55.260901 100.61088 
L 64.481701 100.44576 
L 73.92847 100.94112 
L 83.275204 101.09592 
L 92.557946 101.00304 
L 101.852666 100.69344 
L 111.214076 100.9308 
L 120.562429 100.92048 
L 129.774811 100.81728 
L 139.243486 100.8792 
L 148.667594 100.64184 
L 158.010766 101.1888 
L 167.30894 101.09592 
L 176.648228 101.37456 
L 186.073738 101.21976 
L 195.159431 101.20944 
L 204.672351 101.23008 
L 213.992754 100.92048 
L 223.111037 101.06496 
L 232.598921 100.70376 
L 241.925043 100.55928 
L 251.093506 100.53864 
L 260.451247 99.60984 
L 269.962763 99.72336 
L 279.36 99.44472 
" clip-path="url(#p012f6e6699)" style="fill: none; stroke: #bebebe; stroke-width: 0.5; stroke-linecap: round"/>
   </g>
   <g id="line2d_6">
    <path d="M 8.64 86.66856 
L 18.011446 87.01944 
L 27.275735 84.44976 
L 36.592253 85.05864 
L 45.956253 84.58392 
L 55.260901 85.04832 
L 64.481701 83.71704 
L 73.92847 84.86256 
L 83.275204 85.6572 
L 92.557946 85.27536 
L 101.852666 84.49104 
L 111.214076 84.86256 
L 120.562429 85.32696 
L 129.774811 85.17216 
L 139.243486 85.31664 
L 148.667594 84.11952 
L 158.010766 85.66752 
L 167.30894 85.26504 
L 176.648228 86.26608 
L 186.073738 85.77072 
L 195.159431 85.38888 
L 204.672351 85.3992 
L 213.992754 84.09888 
L 223.111037 84.22272 
L 232.598921 84.34656 
L 241.925043 85.06896 
L 251.093506 85.7604 
L 260.451247 85.0896 
L 269.962763 85.01736 
L 279.36 84.9348 
" clip-path="url(#p012f6e6699)" style="fill: none; stroke: #4a8dff; stroke-width: 0.6"/>
   </g>
   <g id="line2d_7">
    <path d="M 8.64 99.70272 
L 18.011446 99.94008 
L 27.275735 98.57784 
L 36.592253 98.65008 
L 45.956253 98.38176 
L 55.260901 98.48496 
L 64.481701 96.70992 
L 73.92847 98.05152 
L 83.275204 98.48496 
L 92.557946 97.96896 
L 101.852666 96.32808 
L 111.214076 96.20424 
L 120.562429 96.16296 
L 129.774811 96.1836 
L 139.243486 96.50352 
L 148.667594 94.76976 
L 158.010766 97.19496 
L 167.30894 96.9576 
L 176.648228 97.9896 
L 186.073738 96.89568 
L 195.159431 95.45088 
L 204.672351 95.67792 
L 213.992754 93.43848 
L 223.111037 92.90184 
L 232.598921 92.25168 
L 241.925043 92.87088 
L 251.093506 94.2744 
L 260.451247 93.1392 
L 269.962763 92.97408 
L 279.36 92.9844 
" clip-path="url(#p012f6e6699)" style="fill: none; stroke: #f5841e; stroke-width: 0.6"/>
   </g>
  </g>
 </g>
 <defs>
  <clipPath id="p012f6e6699">
   <rect x="8.64" y="4.8" width="270.72" height="103.2"/>
  </clipPath>
 </defs>
</svg>
