<?xml version="1.0" encoding="utf-8" standalone="no"?>
<!DOCTYPE svg PUBLIC "-//W3C//DTD SVG 1.1//EN"
  "http://www.w3.org/Graphics/SVG/1.1/DTD/svg11.dtd">
<svg xmlns:xlink="http://www.w3.org/1999/xlink" width="288pt" height="120pt" viewBox="0 0 288 120" xmlns="http://www.w3.org/2000/svg" version="1.1">
<desc id="nav-meta">{"window":"3m","count":4,"labels":["16.12","15.01","14.02","16.03"],"tick_utc":["2025-12-16T12:00:00Z","2026-01-15T12:00:00Z","2026-02-14T03:16:28Z","2026-03-16T03:46:39Z"],"w":720,"h":300}</desc>

 <metadata>
  <rdf:RDF xmlns:dc="http://purl.org/dc/elements/1.1/" xmlns:cc="http://creativecommons.org/ns#" xmlns:rdf="http://www.w3.org/1999/02/22-rdf-syntax-ns#">
   <cc:Work>
    <dc:type rdf:resource="http://purl.org/dc/dcmitype/StillImage"/>
    <dc:date>2026-03-16T07:57:30.490431</dc:date>
    <dc:format>image/svg+xml</dc:format>
    <dc:creator>
     <cc:Agent>
      <dc:title>Matplotlib v3.10.8, https://matplotlib.org/</dc:title>
     </cc:Agent>
    </dc:creator>
   </cc:Work>
  </rdf:RDF>
 </metadata>
 <defs>
  <style type="text/css">*{stroke-linejoin: round; stroke-linecap: butt}</style>
 </defs>
 <g id="figure_1">
  <g id="patch_1">
   <path d="M 0 120 
L 288 120 
L 288 0 
L 0 0 
L 0 120 
z
" style="fill: none; opacity: 0"/>
  </g>
  <g id="axes_1">
   <g id="patch_2">
    <path d="M 8.64 108 
L 279.36 108 
L 279.36 4.8 
L 8.64 4.8 
L 8.64 108 
z
" style="fill: none"/>
   </g>
   <g id="matplotlib.axis_1"/>
   <g id="matplotlib.axis_2"/>
   <g id="line2d_1">
    <path d="M 8.64 87.36 
L 279.36 87.36 
" clip-path="url(#ped58b2968e)" style="fill: none; stroke: #b2b2b2; stroke-opacity: 0.35; stroke-width: 0.5; stroke-linecap: square"/>
   </g>
   <g id="line2d_2">
    <path d="M 8.64 66.72 
L 279.36 66.72 
" clip-path="url(#ped58b2968e)" style="fill: none; stroke: #b2b2b2; stroke-opacity: 0.35; stroke-width: 0.5; stroke-linecap: square"/>
   </g>
   <g id="line2d_3">
    <path d="M 8.64 46.08 
L 279.36 46.08 
" clip-path="url(#ped58b2968e)" style="fill: none; stroke: #b2b2b2; stroke-opacity: 0.35; stroke-width: 0.5; stroke-linecap: square"/>
   </g>
   <g id="line2d_4">
    <path d="M 8.64 25.44 
L 279.36 25.44 
" clip-path="url(#ped58b2968e)" style="fill: none; stroke: #b2b2b2; stroke-opacity: 0.35; stroke-width: 0.5; stroke-linecap: square"/>
   </g>
   <g id="line2d_5">
    <path d="M 8.64 91.61184 
L 11.659494 91.31256 
L 14.678989 92.87088 
L 17.698483 93.8616 
L 20.717977 92.02464 
L 23.737472 92.13816 
L 26.756966 92.07624 
L 29.77646 92.14848 
L 32.795955 92.64384 
L 35.815449 93.01536 
L 38.834943 93.69648 
L 41.854438 93.11856 
L 44.873932 92.44776 
L 47.893427 92.30328 
L 50.912921 92.87088 
L 53.932415 92.38584 
L 56.95191 92.47872 
L 59.971404 91.88016 
L 62.990898 90.42504 
L 66.010393 90.08448 
L 69.029887 89.92968 
L 72.049381 88.76352 
L 75.068876 87.94824 
L 78.08837 89.2692 
L 81.107864 88.72224 
L 84.127359 89.39304 
L 87.146853 89.40336 
L 90.166347 88.41264 
L 93.185842 88.4952 
L 96.205336 86.86464 
L 99.22483 86.42088 
L 102.244325 87.62832 
L 105.263819 86.93688 
L 108.283313 87.23616 
L 111.302808 88.63968 
L 114.322302 90.0432 
L 117.341797 92.12784 
L 120.361291 91.16808 
L 123.380785 91.46736 
L 126.40028 91.73568 
L 129.419774 91.78728 
L 132.439268 94.0164 
L 135.458763 92.5716 
L 138.478257 91.76664 
L 141.497751 92.33424 
L 144.517246 94.36728 
L 147.53674 94.46016 
L 150.556234 97.71096 
L 153.575729 98.48496 
L 156.595223 97.85544 
L 159.144354 99.10416 
L 161.543909 100.16712 
L 164.561865 102.23112 
L 167.568429 100.54896 
L 170.656945 100.70376 
L 173.651522 100.68312 
L 176.688246 100.95144 
L 179.701484 101.28168 
L 182.71011 101.71512 
L 185.728695 101.84928 
L 188.711879 101.034 
L 191.572046 100.54896 
L 194.785221 101.04432 
L 197.425427 100.81728 
L 200.819422 101.034 
L 203.835247 101.4984 
L 206.837093 101.33328 
L 209.838135 101.1372 
L 212.892123 101.06496 
L 215.920703 102.09696 
L 218.685113 102.05568 
L 221.948823 101.4984 
L 224.954863 100.60056 
L 227.968626 100.80696 
L 230.952543 101.45712 
L 234.04064 100.55928 
L 237.028961 101.10624 
L 240.05548 100.8792 
L 243.058059 100.74504 
L 246.084054 100.21872 
L 249.102115 100.53864 
L 252.098439 101.07528 
L 255.147255 101.38488 
L 258.175801 101.26104 
L 261.175899 100.78632 
L 264.194205 100.91016 
L 267.225582 100.99272 
L 270.23924 100.38384 
L 273.254715 100.50768 
L 276.331978 100.60056 
L 279.36 99.76464 
" clip-path="url(#ped58b2968e)" style="fill: none; stroke: #bebebe; stroke-width: 0.5; stroke-linecap: round"/>
   </g>
   <g id="line2d_6">
    <path d="M 8.64 75.5952 
L 11.659494 75.5952 
L 14.678989 77.61792 
L 17.698483 77.63856 
L 20.717977 75.40944 
L 23.737472 75.40944 
L 26.756966 75.04824 
L 29.77646 74.98632 
L 32.795955 75.58488 
L 35.815449 75.87384 
L 38.834943 76.49304 
L 41.854438 76.15248 
L 44.873932 75.82224 
L 47.893427 75.84288 
L 50.912921 76.03896 
L 53.932415 75.51264 
L 56.95191 75.56424 
L 59.971404 75.05856 
L 62.990898 73.26288 
L 66.010393 73.20096 
L 69.029887 73.00488 
L 72.049381 71.68392 
L 75.068876 70.6932 
L 78.08837 72.62304 
L 81.107864 73.52088 
L 84.127359 73.83048 
L 87.146853 73.8408 
L 90.166347 73.29384 
L 93.185842 73.72728 
L 96.205336 70.32168 
L 99.22483 69.77472 
L 102.244325 70.34232 
L 105.263819 70.67256 
L 108.283313 70.51776 
L 111.302808 70.848 
L 114.322302 72.31344 
L 117.341797 76.01832 
L 120.361291 75.41976 
L 123.380785 75.83256 
L 126.40028 75.79128 
L 129.419774 75.82224 
L 132.439268 77.82432 
L 135.458763 76.14216 
L 138.478257 74.75928 
L 141.497751 74.96568 
L 144.517246 77.75208 
L 147.53674 79.48584 
L 150.556234 83.31456 
L 153.575729 85.90488 
L 156.595223 84.79032 
L 159.144354 85.84296 
L 161.543909 88.25784 
L 164.561865 91.41576 
L 167.568429 88.7532 
L 170.656945 88.65 
L 173.651522 88.55712 
L 176.688246 88.96992 
L 179.701484 89.7336 
L 182.71011 90.456 
L 185.728695 90.56952 
L 188.711879 89.15568 
L 191.572046 88.9596 
L 194.785221 90.6624 
L 197.425427 89.94 
L 200.819422 90.00192 
L 203.835247 90.3528 
L 206.837093 90.62112 
L 209.838135 90.5076 
L 212.892123 90.3528 
L 215.920703 92.004 
L 218.685113 92.13816 
L 221.948823 91.25064 
L 224.954863 89.166 
L 227.968626 89.56848 
L 230.952543 90.93072 
L 234.04064 89.41368 
L 237.028961 90.37344 
L 240.05548 89.79552 
L 243.058059 90.23928 
L 246.084054 88.0824 
L 249.102115 88.7532 
L 252.098439 90.16704 
L 255.147255 90.67272 
L 258.175801 90.18768 
L 261.175899 89.2692 
L 264.194205 89.54784 
L 267.225582 89.49624 
L 270.23924 88.31976 
L 273.254715 88.45392 
L 276.331978 88.46424 
L 279.36 86.38992 
" clip-path="url(#ped58b2968e)" style="fill: none; stroke: #4a8dff; stroke-width: 0.6"/>
   </g>
   <g id="line2d_7">
    <path d="M 8.64 87.17424 
L 11.659494 85.71912 
L 14.678989 87.53544 
L 17.698483 88.17528 
L 20.717977 85.41984 
L 23.737472 85.17216 
L 26.756966 84.9348 
L 29.77646 85.01736 
L 32.795955 86.14224 
L 35.815449 85.90488 
L 38.834943 86.328 
L 41.854438 86.24544 
L 44.873932 85.72944 
L 47.893427 85.7088 
L 50.912921 86.40024 
L 53.932415 85.09992 
L 56.95191 86.02872 
L 59.971404 84.78 
L 62.990898 83.53128 
L 66.010393 82.83984 
L 69.029887 82.03488 
L 72.049381 79.39296 
L 75.068876 79.66128 
L 78.08837 82.15872 
L 81.107864 82.43736 
L 84.127359 82.93272 
L 87.146853 83.00496 
L 90.166347 82.6128 
L 93.185842 82.28256 
L 96.205336 78.01008 
L 99.22483 76.19376 
L 102.244325 77.66952 
L 105.263819 77.74176 
L 108.283313 78.1752 
L 111.302808 79.5684 
L 114.322302 80.8068 
L 117.341797 85.20312 
L 120.361291 84.12984 
L 123.380785 84.03696 
L 126.40028 84.06792 
L 129.419774 84.3156 
L 132.439268 87.02976 
L 135.458763 85.21344 
L 138.478257 84.28464 
L 141.497751 84.32592 
L 144.517246 89.08344 
L 147.53674 89.5272 
L 150.556234 95.14128 
L 153.575729 96.98856 
L 156.595223 95.08968 
L 159.144354 97.71096 
L 161.543909 99.80592 
L 164.561865 101.79768 
L 167.568429 100.03296 
L 170.656945 100.518 
L 173.651522 99.98136 
L 176.688246 100.49736 
L 179.701484 100.78632 
L 182.71011 101.07528 
L 185.728695 101.26104 
L 188.711879 100.63152 
L 191.572046 100.38384 
L 194.785221 100.84824 
L 197.425427 100.65216 
L 200.819422 101.034 
L 203.835247 101.19912 
L 206.837093 101.10624 
L 209.838135 100.97208 
L 212.892123 100.91016 
L 215.920703 101.7564 
L 218.685113 101.84928 
L 221.948823 101.56032 
L 224.954863 100.85856 
L 227.968626 101.12688 
L 230.952543 101.4468 
L 234.04064 101.02368 
L 237.028961 101.30232 
L 240.05548 100.81728 
L 243.058059 100.79664 
L 246.084054 99.3312 
L 249.102115 99.92976 
L 252.098439 100.78632 
L 255.147255 101.17848 
L 258.175801 101.1372 
L 261.175899 100.21872 
L 264.194205 100.37352 
L 267.225582 100.4664 
L 270.23924 99.88848 
L 273.254715 99.94008 
L 276.331978 99.81624 
L 279.36 98.93904 
" clip-path="url(#ped58b2968e)" style="fill: none; stroke: #f5841e; stroke-width: 0.6"/>
   </g>
  </g>
 </g>
 <defs>
  <clipPath id="ped58b2968e">
   <rect x="8.64" y="4.8" width="270.72" height="103.2"/>
  </clipPath>
 </defs>
</svg>
