<?xml version="1.0" encoding="utf-8" standalone="no"?>
<!DOCTYPE svg PUBLIC "-//W3C//DTD SVG 1.1//EN"
  "http://www.w3.org/Graphics/SVG/1.1/DTD/svg11.dtd">
<svg xmlns:xlink="http://www.w3.org/1999/xlink" width="288pt" height="120pt" viewBox="0 0 288 120" xmlns="http://www.w3.org/2000/svg" version="1.1">
<desc id="nav-meta">{"window":"1m","count":4,"labels":["17.06","27.06","06.07","16.07"],"tick_utc":["2026-06-17T05:30:00Z","2026-06-27T04:39:58Z","2026-07-06T04:58:56Z","2026-07-16T03:51:26Z"],"w":720,"h":300}</desc>

 <metadata>
  <rdf:RDF xmlns:dc="http://purl.org/dc/elements/1.1/" xmlns:cc="http://creativecommons.org/ns#" xmlns:rdf="http://www.w3.org/1999/02/22-rdf-syntax-ns#">
   <cc:Work>
    <dc:type rdf:resource="http://purl.org/dc/dcmitype/StillImage"/>
    <dc:date>2026-07-16T19:44:55.185556</dc:date>
    <dc:format>image/svg+xml</dc:format>
    <dc:creator>
     <cc:Agent>
      <dc:title>Matplotlib v3.11.0, https://matplotlib.org/</dc:title>
     </cc:Agent>
    </dc:creator>
   </cc:Work>
  </rdf:RDF>
 </metadata>
 <defs>
  <style type="text/css">*{stroke-linejoin: round; stroke-linecap: butt}</style>
 </defs>
 <g id="figure_1">
  <g id="patch_1">
   <path d="M 0 120 
L 288 120 
L 288 0 
L 0 0 
L 0 120 
z
" style="fill: none; opacity: 0"/>
  </g>
  <g id="axes_1">
   <g id="patch_2">
    <path d="M 8.64 108 
L 279.36 108 
L 279.36 4.8 
L 8.64 4.8 
L 8.64 108 
z
" style="fill: none"/>
   </g>
   <g id="matplotlib.axis_1"/>
   <g id="matplotlib.axis_2"/>
   <g id="line2d_1">
    <path d="M 8.64 87.36 
L 279.36 87.36 
" clip-path="url(#p83cc1f9358)" style="fill: none; stroke: #b2b2b2; stroke-opacity: 0.35; stroke-width: 0.5; stroke-linecap: square"/>
   </g>
   <g id="line2d_2">
    <path d="M 8.64 66.72 
L 279.36 66.72 
" clip-path="url(#p83cc1f9358)" style="fill: none; stroke: #b2b2b2; stroke-opacity: 0.35; stroke-width: 0.5; stroke-linecap: square"/>
   </g>
   <g id="line2d_3">
    <path d="M 8.64 46.08 
L 279.36 46.08 
" clip-path="url(#p83cc1f9358)" style="fill: none; stroke: #b2b2b2; stroke-opacity: 0.35; stroke-width: 0.5; stroke-linecap: square"/>
   </g>
   <g id="line2d_4">
    <path d="M 8.64 25.44 
L 279.36 25.44 
" clip-path="url(#p83cc1f9358)" style="fill: none; stroke: #b2b2b2; stroke-opacity: 0.35; stroke-width: 0.5; stroke-linecap: square"/>
   </g>
   <g id="line2d_5">
    <path d="M 8.64 102.6336 
L 17.952422 102.9948 
L 27.530074 103.28376 
L 36.51315 103.01544 
L 46.065135 102.69552 
L 55.696288 102.582 
L 64.494169 102.88128 
L 73.884893 103.15992 
L 83.23966 103.36632 
L 92.644896 103.36632 
L 101.887463 102.81936 
L 111.423095 103.0464 
L 120.848041 102.9432 
L 130.023895 102.59232 
L 139.518046 102.40656 
L 148.711445 102.02472 
L 157.9669 101.68416 
L 167.28387 101.3436 
L 176.77813 101.6532 
L 186.226037 101.6532 
L 195.442936 101.63256 
L 204.545903 101.95248 
L 214.186803 102.08664 
L 223.522943 101.9112 
L 232.603924 102.066 
L 242.101108 102.18984 
L 251.478835 102.31368 
L 260.619707 102.45816 
L 269.979348 102.08664 
L 279.36 102.21048 
" clip-path="url(#p83cc1f9358)" style="fill: none; stroke: #bebebe; stroke-width: 0.5; stroke-linecap: round"/>
   </g>
   <g id="line2d_6">
    <path d="M 8.64 92.9844 
L 17.952422 93.93384 
L 27.530074 94.4292 
L 36.51315 94.19184 
L 46.065135 93.87192 
L 55.696288 93.81 
L 64.494169 94.03704 
L 73.884893 94.83168 
L 83.23966 95.48184 
L 92.644896 96.63768 
L 101.887463 96.14232 
L 111.423095 96.30744 
L 120.848041 96.29712 
L 130.023895 96.04944 
L 139.518046 95.9256 
L 148.711445 95.39928 
L 157.9669 94.31568 
L 167.28387 93.57264 
L 176.77813 93.32496 
L 186.226037 93.22176 
L 195.442936 93.35592 
L 204.545903 93.61392 
L 214.186803 93.77904 
L 223.522943 93.26304 
L 232.603924 92.92248 
L 242.101108 92.71608 
L 251.478835 93.15984 
L 260.619707 93.17016 
L 269.979348 91.80792 
L 279.36 91.14744 
" clip-path="url(#p83cc1f9358)" style="fill: none; stroke: #4a8dff; stroke-width: 0.6"/>
   </g>
   <g id="line2d_7">
    <path d="M 8.64 101.4984 
L 17.952422 101.97312 
L 27.530074 102.26208 
L 36.51315 102.066 
L 46.065135 101.90088 
L 55.696288 101.90088 
L 64.494169 102.0144 
L 73.884893 102.25176 
L 83.23966 102.6336 
L 92.644896 102.88128 
L 101.887463 102.77808 
L 111.423095 102.85032 
L 120.848041 102.93288 
L 130.023895 102.95352 
L 139.518046 103.00512 
L 148.711445 102.69552 
L 157.9669 102.55104 
L 167.28387 102.2724 
L 176.77813 102.21048 
L 186.226037 102.12792 
L 195.442936 102.13824 
L 204.545903 102.25176 
L 214.186803 102.36528 
L 223.522943 101.94216 
L 232.603924 101.92152 
L 242.101108 101.9112 
L 251.478835 102.2208 
L 260.619707 102.31368 
L 269.979348 101.79768 
L 279.36 101.81832 
" clip-path="url(#p83cc1f9358)" style="fill: none; stroke: #f5841e; stroke-width: 0.6"/>
   </g>
  </g>
 </g>
 <defs>
  <clipPath id="p83cc1f9358">
   <rect x="8.64" y="4.8" width="270.72" height="103.2"/>
  </clipPath>
 </defs>
</svg>
