<?xml version="1.0" encoding="utf-8" standalone="no"?>
<!DOCTYPE svg PUBLIC "-//W3C//DTD SVG 1.1//EN"
  "http://www.w3.org/Graphics/SVG/1.1/DTD/svg11.dtd">
<svg xmlns:xlink="http://www.w3.org/1999/xlink" width="288pt" height="120pt" viewBox="0 0 288 120" xmlns="http://www.w3.org/2000/svg" version="1.1">
<desc id="nav-meta">{"window":"3m","count":4,"labels":["21.01","20.02","21.03","20.04"],"tick_utc":["2026-01-21T12:00:00Z","2026-02-20T03:20:24Z","2026-03-21T03:10:23Z","2026-04-20T04:02:26Z"],"w":720,"h":300}</desc>

 <metadata>
  <rdf:RDF xmlns:dc="http://purl.org/dc/elements/1.1/" xmlns:cc="http://creativecommons.org/ns#" xmlns:rdf="http://www.w3.org/1999/02/22-rdf-syntax-ns#">
   <cc:Work>
    <dc:type rdf:resource="http://purl.org/dc/dcmitype/StillImage"/>
    <dc:date>2026-04-20T14:23:09.930530</dc:date>
    <dc:format>image/svg+xml</dc:format>
    <dc:creator>
     <cc:Agent>
      <dc:title>Matplotlib v3.10.8, https://matplotlib.org/</dc:title>
     </cc:Agent>
    </dc:creator>
   </cc:Work>
  </rdf:RDF>
 </metadata>
 <defs>
  <style type="text/css">*{stroke-linejoin: round; stroke-linecap: butt}</style>
 </defs>
 <g id="figure_1">
  <g id="patch_1">
   <path d="M 0 120 
L 288 120 
L 288 0 
L 0 0 
L 0 120 
z
" style="fill: none; opacity: 0"/>
  </g>
  <g id="axes_1">
   <g id="patch_2">
    <path d="M 8.64 108 
L 279.36 108 
L 279.36 4.8 
L 8.64 4.8 
L 8.64 108 
z
" style="fill: none"/>
   </g>
   <g id="matplotlib.axis_1"/>
   <g id="matplotlib.axis_2"/>
   <g id="line2d_1">
    <path d="M 8.64 87.36 
L 279.36 87.36 
" clip-path="url(#p5fd7c281e9)" style="fill: none; stroke: #b2b2b2; stroke-opacity: 0.35; stroke-width: 0.5; stroke-linecap: square"/>
   </g>
   <g id="line2d_2">
    <path d="M 8.64 66.72 
L 279.36 66.72 
" clip-path="url(#p5fd7c281e9)" style="fill: none; stroke: #b2b2b2; stroke-opacity: 0.35; stroke-width: 0.5; stroke-linecap: square"/>
   </g>
   <g id="line2d_3">
    <path d="M 8.64 46.08 
L 279.36 46.08 
" clip-path="url(#p5fd7c281e9)" style="fill: none; stroke: #b2b2b2; stroke-opacity: 0.35; stroke-width: 0.5; stroke-linecap: square"/>
   </g>
   <g id="line2d_4">
    <path d="M 8.64 25.44 
L 279.36 25.44 
" clip-path="url(#p5fd7c281e9)" style="fill: none; stroke: #b2b2b2; stroke-opacity: 0.35; stroke-width: 0.5; stroke-linecap: square"/>
   </g>
   <g id="line2d_5">
    <path d="M 8.64 92.12784 
L 11.693175 91.16808 
L 14.74635 91.46736 
L 17.799525 91.73568 
L 20.8527 91.78728 
L 23.905874 94.0164 
L 26.959049 92.5716 
L 30.012224 91.76664 
L 33.065399 92.33424 
L 36.118574 94.36728 
L 39.171749 94.46016 
L 42.224924 97.71096 
L 45.278099 98.48496 
L 48.331274 97.85544 
L 50.908839 99.10416 
L 53.335159 100.16712 
L 56.386779 102.23112 
L 59.426879 100.54896 
L 62.549846 100.70376 
L 65.577825 100.68312 
L 68.648421 100.95144 
L 71.69527 101.28168 
L 74.737455 101.71512 
L 77.789711 101.84928 
L 80.806171 101.034 
L 83.698241 100.54896 
L 86.947257 101.04432 
L 89.616912 100.81728 
L 93.048766 101.034 
L 96.09823 101.4984 
L 99.13356 101.33328 
L 102.168076 101.1372 
L 105.256129 101.06496 
L 108.318492 102.09696 
L 111.113737 102.05568 
L 114.413852 101.4984 
L 117.453422 100.60056 
L 120.500801 100.80696 
L 123.518002 101.45712 
L 126.640545 100.55928 
L 129.662199 101.10624 
L 132.722477 100.8792 
L 135.758548 100.74504 
L 138.818296 100.21872 
L 141.870022 100.53864 
L 144.899768 101.07528 
L 147.982591 101.38488 
L 151.044918 101.26104 
L 154.078481 100.78632 
L 157.130454 100.91016 
L 160.195644 100.99272 
L 163.242917 100.38384 
L 166.292029 100.50768 
L 169.403617 100.60056 
L 172.465414 99.76464 
L 175.465158 99.49632 
L 178.541621 99.40344 
L 181.595644 100.09488 
L 184.6191 100.3632 
L 187.654394 100.19808 
L 190.753225 100.47672 
L 193.813573 100.79664 
L 196.838478 100.26 
L 200.119051 99.83688 
L 202.981968 100.13616 
L 206.038994 100.80696 
L 209.06298 101.38488 
L 212.157748 101.3436 
L 215.219651 101.292 
L 218.253567 101.28168 
L 221.332927 101.28168 
L 224.345888 101.8596 
L 227.402561 101.88024 
L 230.429586 101.72544 
L 233.528735 101.68416 
L 236.58979 101.47776 
L 239.623141 101.78736 
L 242.681263 101.09592 
L 245.723801 101.46744 
L 248.80507 101.3436 
L 251.811563 101.05464 
L 254.919512 101.3952 
L 257.988341 101.47776 
L 261.02208 100.86888 
L 264.072923 101.26104 
L 267.139314 100.99272 
L 270.18627 100.61088 
L 273.205768 100.44576 
L 276.299263 100.94112 
L 279.36 101.09592 
" clip-path="url(#p5fd7c281e9)" style="fill: none; stroke: #bebebe; stroke-width: 0.5; stroke-linecap: round"/>
   </g>
   <g id="line2d_6">
    <path d="M 8.64 76.01832 
L 11.693175 75.41976 
L 14.74635 75.83256 
L 17.799525 75.79128 
L 20.8527 75.82224 
L 23.905874 77.82432 
L 26.959049 76.14216 
L 30.012224 74.75928 
L 33.065399 74.96568 
L 36.118574 77.75208 
L 39.171749 79.48584 
L 42.224924 83.31456 
L 45.278099 85.90488 
L 48.331274 84.79032 
L 50.908839 85.84296 
L 53.335159 88.25784 
L 56.386779 91.41576 
L 59.426879 88.7532 
L 62.549846 88.65 
L 65.577825 88.55712 
L 68.648421 88.96992 
L 71.69527 89.7336 
L 74.737455 90.456 
L 77.789711 90.56952 
L 80.806171 89.15568 
L 83.698241 88.9596 
L 86.947257 90.6624 
L 89.616912 89.94 
L 93.048766 90.00192 
L 96.09823 90.3528 
L 99.13356 90.62112 
L 102.168076 90.5076 
L 105.256129 90.3528 
L 108.318492 92.004 
L 111.113737 92.13816 
L 114.413852 91.25064 
L 117.453422 89.166 
L 120.500801 89.56848 
L 123.518002 90.93072 
L 126.640545 89.41368 
L 129.662199 90.37344 
L 132.722477 89.79552 
L 135.758548 90.23928 
L 138.818296 88.0824 
L 141.870022 88.7532 
L 144.899768 90.16704 
L 147.982591 90.67272 
L 151.044918 90.18768 
L 154.078481 89.2692 
L 157.130454 89.54784 
L 160.195644 89.49624 
L 163.242917 88.31976 
L 166.292029 88.45392 
L 169.403617 88.46424 
L 172.465414 86.38992 
L 175.465158 84.80064 
L 178.541621 84.8316 
L 181.595644 86.586 
L 184.6191 87.74184 
L 187.654394 87.618 
L 190.753225 88.19592 
L 193.813573 89.08344 
L 196.838478 87.89664 
L 200.119051 87.3084 
L 202.981968 87.65928 
L 206.038994 88.96992 
L 209.06298 90.07416 
L 212.157748 89.76456 
L 215.219651 89.3724 
L 218.253567 89.00088 
L 221.332927 88.42296 
L 224.345888 88.81512 
L 227.402561 89.10408 
L 230.429586 89.14536 
L 233.528735 89.07312 
L 236.58979 87.9792 
L 239.623141 88.29912 
L 242.681263 86.38992 
L 245.723801 87.24648 
L 248.80507 87.1536 
L 251.811563 86.21448 
L 254.919512 86.66856 
L 257.988341 87.01944 
L 261.02208 84.44976 
L 264.072923 85.05864 
L 267.139314 84.58392 
L 270.18627 85.04832 
L 273.205768 83.71704 
L 276.299263 84.86256 
L 279.36 85.6572 
" clip-path="url(#p5fd7c281e9)" style="fill: none; stroke: #4a8dff; stroke-width: 0.6"/>
   </g>
   <g id="line2d_7">
    <path d="M 8.64 85.20312 
L 11.693175 84.12984 
L 14.74635 84.03696 
L 17.799525 84.06792 
L 20.8527 84.3156 
L 23.905874 87.02976 
L 26.959049 85.21344 
L 30.012224 84.28464 
L 33.065399 84.32592 
L 36.118574 89.08344 
L 39.171749 89.5272 
L 42.224924 95.14128 
L 45.278099 96.98856 
L 48.331274 95.08968 
L 50.908839 97.71096 
L 53.335159 99.80592 
L 56.386779 101.79768 
L 59.426879 100.03296 
L 62.549846 100.518 
L 65.577825 99.98136 
L 68.648421 100.49736 
L 71.69527 100.78632 
L 74.737455 101.07528 
L 77.789711 101.26104 
L 80.806171 100.63152 
L 83.698241 100.38384 
L 86.947257 100.84824 
L 89.616912 100.65216 
L 93.048766 101.034 
L 96.09823 101.19912 
L 99.13356 101.10624 
L 102.168076 100.97208 
L 105.256129 100.91016 
L 108.318492 101.7564 
L 111.113737 101.84928 
L 114.413852 101.56032 
L 117.453422 100.85856 
L 120.500801 101.12688 
L 123.518002 101.4468 
L 126.640545 101.02368 
L 129.662199 101.30232 
L 132.722477 100.81728 
L 135.758548 100.79664 
L 138.818296 99.3312 
L 141.870022 99.92976 
L 144.899768 100.78632 
L 147.982591 101.17848 
L 151.044918 101.1372 
L 154.078481 100.21872 
L 157.130454 100.37352 
L 160.195644 100.4664 
L 163.242917 99.88848 
L 166.292029 99.94008 
L 169.403617 99.81624 
L 172.465414 98.93904 
L 175.465158 98.3508 
L 178.541621 98.52624 
L 181.595644 99.78528 
L 184.6191 100.12584 
L 187.654394 100.03296 
L 190.753225 100.45608 
L 193.813573 100.83792 
L 196.838478 100.11552 
L 200.119051 99.87816 
L 202.981968 100.002 
L 206.038994 100.64184 
L 209.06298 101.41584 
L 212.157748 101.21976 
L 215.219651 101.14752 
L 218.253567 101.00304 
L 221.332927 100.86888 
L 224.345888 101.21976 
L 227.402561 101.28168 
L 230.429586 101.20944 
L 233.528735 101.14752 
L 236.58979 100.55928 
L 239.623141 100.65216 
L 242.681263 99.80592 
L 245.723801 99.96072 
L 248.80507 99.6408 
L 251.811563 99.1764 
L 254.919512 99.70272 
L 257.988341 99.94008 
L 261.02208 98.57784 
L 264.072923 98.65008 
L 267.139314 98.38176 
L 270.18627 98.48496 
L 273.205768 96.70992 
L 276.299263 98.05152 
L 279.36 98.48496 
" clip-path="url(#p5fd7c281e9)" style="fill: none; stroke: #f5841e; stroke-width: 0.6"/>
   </g>
  </g>
 </g>
 <defs>
  <clipPath id="p5fd7c281e9">
   <rect x="8.64" y="4.8" width="270.72" height="103.2"/>
  </clipPath>
 </defs>
</svg>
