<?xml version="1.0" encoding="utf-8" standalone="no"?>
<!DOCTYPE svg PUBLIC "-//W3C//DTD SVG 1.1//EN"
  "http://www.w3.org/Graphics/SVG/1.1/DTD/svg11.dtd">
<svg xmlns:xlink="http://www.w3.org/1999/xlink" width="288pt" height="120pt" viewBox="0 0 288 120" xmlns="http://www.w3.org/2000/svg" version="1.1">
<desc id="nav-meta">{"window":"1m","count":4,"labels":["16.02","26.02","07.03","17.03"],"tick_utc":["2026-02-16T03:32:51Z","2026-02-26T03:20:47Z","2026-03-07T03:05:35Z","2026-03-17T03:21:27Z"],"w":720,"h":300}</desc>

 <metadata>
  <rdf:RDF xmlns:dc="http://purl.org/dc/elements/1.1/" xmlns:cc="http://creativecommons.org/ns#" xmlns:rdf="http://www.w3.org/1999/02/22-rdf-syntax-ns#">
   <cc:Work>
    <dc:type rdf:resource="http://purl.org/dc/dcmitype/StillImage"/>
    <dc:date>2026-03-17T07:40:01.848598</dc:date>
    <dc:format>image/svg+xml</dc:format>
    <dc:creator>
     <cc:Agent>
      <dc:title>Matplotlib v3.10.8, https://matplotlib.org/</dc:title>
     </cc:Agent>
    </dc:creator>
   </cc:Work>
  </rdf:RDF>
 </metadata>
 <defs>
  <style type="text/css">*{stroke-linejoin: round; stroke-linecap: butt}</style>
 </defs>
 <g id="figure_1">
  <g id="patch_1">
   <path d="M 0 120 
L 288 120 
L 288 0 
L 0 0 
L 0 120 
z
" style="fill: none; opacity: 0"/>
  </g>
  <g id="axes_1">
   <g id="patch_2">
    <path d="M 8.64 108 
L 279.36 108 
L 279.36 4.8 
L 8.64 4.8 
L 8.64 108 
z
" style="fill: none"/>
   </g>
   <g id="matplotlib.axis_1"/>
   <g id="matplotlib.axis_2"/>
   <g id="line2d_1">
    <path d="M 8.64 87.36 
L 279.36 87.36 
" clip-path="url(#p9c8accd39c)" style="fill: none; stroke: #b2b2b2; stroke-opacity: 0.35; stroke-width: 0.5; stroke-linecap: square"/>
   </g>
   <g id="line2d_2">
    <path d="M 8.64 66.72 
L 279.36 66.72 
" clip-path="url(#p9c8accd39c)" style="fill: none; stroke: #b2b2b2; stroke-opacity: 0.35; stroke-width: 0.5; stroke-linecap: square"/>
   </g>
   <g id="line2d_3">
    <path d="M 8.64 46.08 
L 279.36 46.08 
" clip-path="url(#p9c8accd39c)" style="fill: none; stroke: #b2b2b2; stroke-opacity: 0.35; stroke-width: 0.5; stroke-linecap: square"/>
   </g>
   <g id="line2d_4">
    <path d="M 8.64 25.44 
L 279.36 25.44 
" clip-path="url(#p9c8accd39c)" style="fill: none; stroke: #b2b2b2; stroke-opacity: 0.35; stroke-width: 0.5; stroke-linecap: square"/>
   </g>
   <g id="line2d_5">
    <path d="M 8.64 101.04432 
L 16.804778 100.81728 
L 27.300637 101.034 
L 36.62701 101.4984 
L 45.910154 101.33328 
L 55.190811 101.1372 
L 64.635203 101.06496 
L 74.001024 102.09696 
L 82.549903 102.05568 
L 92.642856 101.4984 
L 101.938968 100.60056 
L 111.258966 100.80696 
L 120.486666 101.45712 
L 130.03654 100.55928 
L 139.277858 101.10624 
L 148.637303 100.8792 
L 157.922716 100.74504 
L 167.280539 100.21872 
L 176.61383 100.53864 
L 185.879897 101.07528 
L 195.308294 101.38488 
L 204.674007 101.26104 
L 213.951747 100.78632 
L 223.285794 100.91016 
L 232.660261 100.99272 
L 241.979934 100.38384 
L 251.305226 100.50768 
L 260.821597 100.60056 
L 270.185689 99.76464 
L 279.36 99.49632 
" clip-path="url(#p9c8accd39c)" style="fill: none; stroke: #bebebe; stroke-width: 0.5; stroke-linecap: round"/>
   </g>
   <g id="line2d_6">
    <path d="M 8.64 90.6624 
L 16.804778 89.94 
L 27.300637 90.00192 
L 36.62701 90.3528 
L 45.910154 90.62112 
L 55.190811 90.5076 
L 64.635203 90.3528 
L 74.001024 92.004 
L 82.549903 92.13816 
L 92.642856 91.25064 
L 101.938968 89.166 
L 111.258966 89.56848 
L 120.486666 90.93072 
L 130.03654 89.41368 
L 139.277858 90.37344 
L 148.637303 89.79552 
L 157.922716 90.23928 
L 167.280539 88.0824 
L 176.61383 88.7532 
L 185.879897 90.16704 
L 195.308294 90.67272 
L 204.674007 90.18768 
L 213.951747 89.2692 
L 223.285794 89.54784 
L 232.660261 89.49624 
L 241.979934 88.31976 
L 251.305226 88.45392 
L 260.821597 88.46424 
L 270.185689 86.38992 
L 279.36 84.80064 
" clip-path="url(#p9c8accd39c)" style="fill: none; stroke: #4a8dff; stroke-width: 0.6"/>
   </g>
   <g id="line2d_7">
    <path d="M 8.64 100.84824 
L 16.804778 100.65216 
L 27.300637 101.034 
L 36.62701 101.19912 
L 45.910154 101.10624 
L 55.190811 100.97208 
L 64.635203 100.91016 
L 74.001024 101.7564 
L 82.549903 101.84928 
L 92.642856 101.56032 
L 101.938968 100.85856 
L 111.258966 101.12688 
L 120.486666 101.4468 
L 130.03654 101.02368 
L 139.277858 101.30232 
L 148.637303 100.81728 
L 157.922716 100.79664 
L 167.280539 99.3312 
L 176.61383 99.92976 
L 185.879897 100.78632 
L 195.308294 101.17848 
L 204.674007 101.1372 
L 213.951747 100.21872 
L 223.285794 100.37352 
L 232.660261 100.4664 
L 241.979934 99.88848 
L 251.305226 99.94008 
L 260.821597 99.81624 
L 270.185689 98.93904 
L 279.36 98.3508 
" clip-path="url(#p9c8accd39c)" style="fill: none; stroke: #f5841e; stroke-width: 0.6"/>
   </g>
  </g>
 </g>
 <defs>
  <clipPath id="p9c8accd39c">
   <rect x="8.64" y="4.8" width="270.72" height="103.2"/>
  </clipPath>
 </defs>
</svg>
