<?xml version="1.0" encoding="utf-8" standalone="no"?>
<!DOCTYPE svg PUBLIC "-//W3C//DTD SVG 1.1//EN"
  "http://www.w3.org/Graphics/SVG/1.1/DTD/svg11.dtd">
<svg xmlns:xlink="http://www.w3.org/1999/xlink" width="288pt" height="120pt" viewBox="0 0 288 120" xmlns="http://www.w3.org/2000/svg" version="1.1">
<desc id="nav-meta">{"window":"1m","count":4,"labels":["08.03","18.03","27.03","06.04"],"tick_utc":["2026-03-08T03:19:34Z","2026-03-18T03:32:26Z","2026-03-27T03:41:18Z","2026-04-06T03:50:17Z"],"w":720,"h":300}</desc>

 <metadata>
  <rdf:RDF xmlns:dc="http://purl.org/dc/elements/1.1/" xmlns:cc="http://creativecommons.org/ns#" xmlns:rdf="http://www.w3.org/1999/02/22-rdf-syntax-ns#">
   <cc:Work>
    <dc:type rdf:resource="http://purl.org/dc/dcmitype/StillImage"/>
    <dc:date>2026-04-06T19:40:38.252166</dc:date>
    <dc:format>image/svg+xml</dc:format>
    <dc:creator>
     <cc:Agent>
      <dc:title>Matplotlib v3.10.8, https://matplotlib.org/</dc:title>
     </cc:Agent>
    </dc:creator>
   </cc:Work>
  </rdf:RDF>
 </metadata>
 <defs>
  <style type="text/css">*{stroke-linejoin: round; stroke-linecap: butt}</style>
 </defs>
 <g id="figure_1">
  <g id="patch_1">
   <path d="M 0 120 
L 288 120 
L 288 0 
L 0 0 
L 0 120 
z
" style="fill: none; opacity: 0"/>
  </g>
  <g id="axes_1">
   <g id="patch_2">
    <path d="M 8.64 108 
L 279.36 108 
L 279.36 4.8 
L 8.64 4.8 
L 8.64 108 
z
" style="fill: none"/>
   </g>
   <g id="matplotlib.axis_1"/>
   <g id="matplotlib.axis_2"/>
   <g id="line2d_1">
    <path d="M 8.64 87.36 
L 279.36 87.36 
" clip-path="url(#pf6d05226d4)" style="fill: none; stroke: #b2b2b2; stroke-opacity: 0.35; stroke-width: 0.5; stroke-linecap: square"/>
   </g>
   <g id="line2d_2">
    <path d="M 8.64 66.72 
L 279.36 66.72 
" clip-path="url(#pf6d05226d4)" style="fill: none; stroke: #b2b2b2; stroke-opacity: 0.35; stroke-width: 0.5; stroke-linecap: square"/>
   </g>
   <g id="line2d_3">
    <path d="M 8.64 46.08 
L 279.36 46.08 
" clip-path="url(#pf6d05226d4)" style="fill: none; stroke: #b2b2b2; stroke-opacity: 0.35; stroke-width: 0.5; stroke-linecap: square"/>
   </g>
   <g id="line2d_4">
    <path d="M 8.64 25.44 
L 279.36 25.44 
" clip-path="url(#pf6d05226d4)" style="fill: none; stroke: #b2b2b2; stroke-opacity: 0.35; stroke-width: 0.5; stroke-linecap: square"/>
   </g>
   <g id="line2d_5">
    <path d="M 8.64 101.38488 
L 17.996274 101.26104 
L 27.264664 100.78632 
L 36.589304 100.91016 
L 45.954323 100.99272 
L 55.264604 100.38384 
L 64.580499 100.50768 
L 74.087278 100.60056 
L 83.441933 99.76464 
L 92.606999 99.49632 
L 102.00646 99.40344 
L 111.337362 100.09488 
L 120.574873 100.3632 
L 129.848553 100.19808 
L 139.316357 100.47672 
L 148.666585 100.79664 
L 157.908522 100.26 
L 167.931598 99.83688 
L 176.678617 100.13616 
L 186.018696 100.80696 
L 195.257827 101.38488 
L 204.713215 101.3436 
L 214.068193 101.292 
L 223.337663 101.28168 
L 232.745977 101.28168 
L 241.951422 101.8596 
L 251.290421 101.88024 
L 260.538837 101.72544 
L 270.007613 101.68416 
L 279.36 101.47776 
" clip-path="url(#pf6d05226d4)" style="fill: none; stroke: #bebebe; stroke-width: 0.5; stroke-linecap: round"/>
   </g>
   <g id="line2d_6">
    <path d="M 8.64 90.67272 
L 17.996274 90.18768 
L 27.264664 89.2692 
L 36.589304 89.54784 
L 45.954323 89.49624 
L 55.264604 88.31976 
L 64.580499 88.45392 
L 74.087278 88.46424 
L 83.441933 86.38992 
L 92.606999 84.80064 
L 102.00646 84.8316 
L 111.337362 86.586 
L 120.574873 87.74184 
L 129.848553 87.618 
L 139.316357 88.19592 
L 148.666585 89.08344 
L 157.908522 87.89664 
L 167.931598 87.3084 
L 176.678617 87.65928 
L 186.018696 88.96992 
L 195.257827 90.07416 
L 204.713215 89.76456 
L 214.068193 89.3724 
L 223.337663 89.00088 
L 232.745977 88.42296 
L 241.951422 88.81512 
L 251.290421 89.10408 
L 260.538837 89.14536 
L 270.007613 89.07312 
L 279.36 87.9792 
" clip-path="url(#pf6d05226d4)" style="fill: none; stroke: #4a8dff; stroke-width: 0.6"/>
   </g>
   <g id="line2d_7">
    <path d="M 8.64 101.17848 
L 17.996274 101.1372 
L 27.264664 100.21872 
L 36.589304 100.37352 
L 45.954323 100.4664 
L 55.264604 99.88848 
L 64.580499 99.94008 
L 74.087278 99.81624 
L 83.441933 98.93904 
L 92.606999 98.3508 
L 102.00646 98.52624 
L 111.337362 99.78528 
L 120.574873 100.12584 
L 129.848553 100.03296 
L 139.316357 100.45608 
L 148.666585 100.83792 
L 157.908522 100.11552 
L 167.931598 99.87816 
L 176.678617 100.002 
L 186.018696 100.64184 
L 195.257827 101.41584 
L 204.713215 101.21976 
L 214.068193 101.14752 
L 223.337663 101.00304 
L 232.745977 100.86888 
L 241.951422 101.21976 
L 251.290421 101.28168 
L 260.538837 101.20944 
L 270.007613 101.14752 
L 279.36 100.55928 
" clip-path="url(#pf6d05226d4)" style="fill: none; stroke: #f5841e; stroke-width: 0.6"/>
   </g>
  </g>
 </g>
 <defs>
  <clipPath id="pf6d05226d4">
   <rect x="8.64" y="4.8" width="270.72" height="103.2"/>
  </clipPath>
 </defs>
</svg>
