<?xml version="1.0" encoding="utf-8" standalone="no"?>
<!DOCTYPE svg PUBLIC "-//W3C//DTD SVG 1.1//EN"
  "http://www.w3.org/Graphics/SVG/1.1/DTD/svg11.dtd">
<svg xmlns:xlink="http://www.w3.org/1999/xlink" width="288pt" height="120pt" viewBox="0 0 288 120" xmlns="http://www.w3.org/2000/svg" version="1.1">
<desc id="nav-meta">{"window":"1m","count":4,"labels":["02.06","12.06","21.06","01.07"],"tick_utc":["2026-06-02T05:15:35Z","2026-06-12T05:19:52Z","2026-06-21T05:29:24Z","2026-07-01T05:10:59Z"],"w":720,"h":300}</desc>

 <metadata>
  <rdf:RDF xmlns:dc="http://purl.org/dc/elements/1.1/" xmlns:cc="http://creativecommons.org/ns#" xmlns:rdf="http://www.w3.org/1999/02/22-rdf-syntax-ns#">
   <cc:Work>
    <dc:type rdf:resource="http://purl.org/dc/dcmitype/StillImage"/>
    <dc:date>2026-07-01T15:25:01.219418</dc:date>
    <dc:format>image/svg+xml</dc:format>
    <dc:creator>
     <cc:Agent>
      <dc:title>Matplotlib v3.11.0, https://matplotlib.org/</dc:title>
     </cc:Agent>
    </dc:creator>
   </cc:Work>
  </rdf:RDF>
 </metadata>
 <defs>
  <style type="text/css">*{stroke-linejoin: round; stroke-linecap: butt}</style>
 </defs>
 <g id="figure_1">
  <g id="patch_1">
   <path d="M 0 120 
L 288 120 
L 288 0 
L 0 0 
L 0 120 
z
" style="fill: none; opacity: 0"/>
  </g>
  <g id="axes_1">
   <g id="patch_2">
    <path d="M 8.64 108 
L 279.36 108 
L 279.36 4.8 
L 8.64 4.8 
L 8.64 108 
z
" style="fill: none"/>
   </g>
   <g id="matplotlib.axis_1"/>
   <g id="matplotlib.axis_2"/>
   <g id="line2d_1">
    <path d="M 8.64 87.36 
L 279.36 87.36 
" clip-path="url(#p59e01040fb)" style="fill: none; stroke: #b2b2b2; stroke-opacity: 0.35; stroke-width: 0.5; stroke-linecap: square"/>
   </g>
   <g id="line2d_2">
    <path d="M 8.64 66.72 
L 279.36 66.72 
" clip-path="url(#p59e01040fb)" style="fill: none; stroke: #b2b2b2; stroke-opacity: 0.35; stroke-width: 0.5; stroke-linecap: square"/>
   </g>
   <g id="line2d_3">
    <path d="M 8.64 46.08 
L 279.36 46.08 
" clip-path="url(#p59e01040fb)" style="fill: none; stroke: #b2b2b2; stroke-opacity: 0.35; stroke-width: 0.5; stroke-linecap: square"/>
   </g>
   <g id="line2d_4">
    <path d="M 8.64 25.44 
L 279.36 25.44 
" clip-path="url(#p59e01040fb)" style="fill: none; stroke: #b2b2b2; stroke-opacity: 0.35; stroke-width: 0.5; stroke-linecap: square"/>
   </g>
   <g id="line2d_5">
    <path d="M 8.64 101.7048 
L 18.081233 102.54072 
L 27.385449 103.08768 
L 36.567883 103.36632 
L 45.760583 104.22288 
L 55.297448 103.85136 
L 64.674926 103.68624 
L 73.83294 103.43856 
L 83.265961 103.81008 
L 92.656947 103.72752 
L 102.029779 103.50048 
L 111.297687 103.5108 
L 120.701641 103.31472 
L 130.348184 102.95352 
L 139.737657 102.61296 
L 148.776482 102.6336 
L 158.067947 102.9948 
L 167.624046 103.28376 
L 176.586907 103.01544 
L 186.117396 102.69552 
L 195.726875 102.582 
L 204.504957 102.88128 
L 213.874547 103.15992 
L 223.208263 103.36632 
L 232.592333 103.36632 
L 241.814101 102.81936 
L 251.328273 103.0464 
L 260.73201 102.9432 
L 269.887214 102.59232 
L 279.36 102.40656 
" clip-path="url(#p59e01040fb)" style="fill: none; stroke: #bebebe; stroke-width: 0.5; stroke-linecap: round"/>
   </g>
   <g id="line2d_6">
    <path d="M 8.64 89.96064 
L 18.081233 91.99368 
L 27.385449 93.05664 
L 36.567883 93.74808 
L 45.760583 97.02984 
L 55.297448 95.93592 
L 64.674926 95.07936 
L 73.83294 94.46016 
L 83.265961 95.47152 
L 92.656947 95.11032 
L 102.029779 94.82136 
L 111.297687 94.8936 
L 120.701641 94.70784 
L 130.348184 94.04736 
L 139.737657 93.40752 
L 148.776482 92.9844 
L 158.067947 93.93384 
L 167.624046 94.4292 
L 176.586907 94.19184 
L 186.117396 93.87192 
L 195.726875 93.81 
L 204.504957 94.03704 
L 213.874547 94.83168 
L 223.208263 95.48184 
L 232.592333 96.63768 
L 241.814101 96.14232 
L 251.328273 96.30744 
L 260.73201 96.29712 
L 269.887214 96.04944 
L 279.36 95.9256 
" clip-path="url(#p59e01040fb)" style="fill: none; stroke: #4a8dff; stroke-width: 0.6"/>
   </g>
   <g id="line2d_7">
    <path d="M 8.64 100.0536 
L 18.081233 101.23008 
L 27.385449 101.99376 
L 36.567883 102.08664 
L 45.760583 102.8916 
L 55.297448 102.45816 
L 64.674926 102.28272 
L 73.83294 102.10728 
L 83.265961 102.582 
L 92.656947 102.29304 
L 102.029779 102.08664 
L 111.297687 102.066 
L 120.701641 101.86992 
L 130.348184 101.48808 
L 139.737657 101.40552 
L 148.776482 101.4984 
L 158.067947 101.97312 
L 167.624046 102.26208 
L 176.586907 102.066 
L 186.117396 101.90088 
L 195.726875 101.90088 
L 204.504957 102.0144 
L 213.874547 102.25176 
L 223.208263 102.6336 
L 232.592333 102.88128 
L 241.814101 102.77808 
L 251.328273 102.85032 
L 260.73201 102.93288 
L 269.887214 102.95352 
L 279.36 103.00512 
" clip-path="url(#p59e01040fb)" style="fill: none; stroke: #f5841e; stroke-width: 0.6"/>
   </g>
  </g>
 </g>
 <defs>
  <clipPath id="p59e01040fb">
   <rect x="8.64" y="4.8" width="270.72" height="103.2"/>
  </clipPath>
 </defs>
</svg>
