<?xml version="1.0" encoding="utf-8" standalone="no"?>
<!DOCTYPE svg PUBLIC "-//W3C//DTD SVG 1.1//EN"
  "http://www.w3.org/Graphics/SVG/1.1/DTD/svg11.dtd">
<svg xmlns:xlink="http://www.w3.org/1999/xlink" width="288pt" height="120pt" viewBox="0 0 288 120" xmlns="http://www.w3.org/2000/svg" version="1.1">
<desc id="nav-meta">{"window":"3m","count":4,"labels":["03.02","05.03","03.04","03.05"],"tick_utc":["2026-02-03T12:00:00Z","2026-03-05T03:17:19Z","2026-04-03T03:37:13Z","2026-05-03T04:31:45Z"],"w":720,"h":300}</desc>

 <metadata>
  <rdf:RDF xmlns:dc="http://purl.org/dc/elements/1.1/" xmlns:cc="http://creativecommons.org/ns#" xmlns:rdf="http://www.w3.org/1999/02/22-rdf-syntax-ns#">
   <cc:Work>
    <dc:type rdf:resource="http://purl.org/dc/dcmitype/StillImage"/>
    <dc:date>2026-05-03T13:59:02.872072</dc:date>
    <dc:format>image/svg+xml</dc:format>
    <dc:creator>
     <cc:Agent>
      <dc:title>Matplotlib v3.10.9, https://matplotlib.org/</dc:title>
     </cc:Agent>
    </dc:creator>
   </cc:Work>
  </rdf:RDF>
 </metadata>
 <defs>
  <style type="text/css">*{stroke-linejoin: round; stroke-linecap: butt}</style>
 </defs>
 <g id="figure_1">
  <g id="patch_1">
   <path d="M 0 120 
L 288 120 
L 288 0 
L 0 0 
L 0 120 
z
" style="fill: none; opacity: 0"/>
  </g>
  <g id="axes_1">
   <g id="patch_2">
    <path d="M 8.64 108 
L 279.36 108 
L 279.36 4.8 
L 8.64 4.8 
L 8.64 108 
z
" style="fill: none"/>
   </g>
   <g id="matplotlib.axis_1"/>
   <g id="matplotlib.axis_2"/>
   <g id="line2d_1">
    <path d="M 8.64 87.36 
L 279.36 87.36 
" clip-path="url(#p8898100362)" style="fill: none; stroke: #b2b2b2; stroke-opacity: 0.35; stroke-width: 0.5; stroke-linecap: square"/>
   </g>
   <g id="line2d_2">
    <path d="M 8.64 66.72 
L 279.36 66.72 
" clip-path="url(#p8898100362)" style="fill: none; stroke: #b2b2b2; stroke-opacity: 0.35; stroke-width: 0.5; stroke-linecap: square"/>
   </g>
   <g id="line2d_3">
    <path d="M 8.64 46.08 
L 279.36 46.08 
" clip-path="url(#p8898100362)" style="fill: none; stroke: #b2b2b2; stroke-opacity: 0.35; stroke-width: 0.5; stroke-linecap: square"/>
   </g>
   <g id="line2d_4">
    <path d="M 8.64 25.44 
L 279.36 25.44 
" clip-path="url(#p8898100362)" style="fill: none; stroke: #b2b2b2; stroke-opacity: 0.35; stroke-width: 0.5; stroke-linecap: square"/>
   </g>
   <g id="line2d_5">
    <path d="M 8.64 97.85544 
L 11.216973 99.10416 
L 13.642736 100.16712 
L 16.693656 102.23112 
L 19.733058 100.54896 
L 22.855308 100.70376 
L 25.882592 100.68312 
L 28.952484 100.95144 
L 31.998634 101.28168 
L 35.04012 101.71512 
L 38.091676 101.84928 
L 41.107442 101.034 
L 43.998849 100.54896 
L 47.247119 101.04432 
L 49.916161 100.81728 
L 53.347227 101.034 
L 56.395992 101.4984 
L 59.430624 101.33328 
L 62.464444 101.1372 
L 65.551788 101.06496 
L 68.613448 102.09696 
L 71.408052 102.05568 
L 74.707409 101.4984 
L 77.746281 100.60056 
L 80.792961 100.80696 
L 83.809469 101.45712 
L 86.931295 100.55928 
L 89.952255 101.10624 
L 93.011831 100.8792 
L 96.047205 100.74504 
L 99.106251 100.21872 
L 102.157276 100.53864 
L 105.186327 101.07528 
L 108.268442 101.38488 
L 111.330066 101.26104 
L 114.362933 100.78632 
L 117.414205 100.91016 
L 120.478691 100.99272 
L 123.525265 100.38384 
L 126.573677 100.50768 
L 129.68455 100.60056 
L 132.745645 99.76464 
L 135.744701 99.49632 
L 138.820457 99.40344 
L 141.873779 100.09488 
L 144.896541 100.3632 
L 147.931138 100.19808 
L 151.029258 100.47672 
L 154.088904 100.79664 
L 157.113114 100.26 
L 160.392934 99.83688 
L 163.255193 100.13616 
L 166.311518 100.80696 
L 169.33481 101.38488 
L 172.428867 101.3436 
L 175.490068 101.292 
L 178.523287 101.28168 
L 181.60194 101.28168 
L 184.614209 101.8596 
L 187.670181 101.88024 
L 190.696511 101.72544 
L 193.794949 101.68416 
L 196.855301 101.47776 
L 199.887955 101.78736 
L 202.945376 101.09592 
L 205.987215 101.46744 
L 209.067776 101.3436 
L 212.07358 101.05464 
L 215.180815 101.3952 
L 218.24894 101.47776 
L 221.281983 100.86888 
L 224.332125 101.26104 
L 227.397812 100.99272 
L 230.444068 100.61088 
L 233.462873 100.44576 
L 236.555658 100.94112 
L 239.615693 101.09592 
L 242.654777 101.00304 
L 245.697783 100.69344 
L 248.762622 100.9308 
L 251.823187 100.92048 
L 254.839236 100.81728 
L 257.939193 100.8792 
L 261.024559 100.64184 
L 264.083427 101.1888 
L 267.127564 101.09592 
L 270.18516 101.37456 
L 273.270986 101.21976 
L 276.245558 101.20944 
L 279.36 101.23008 
" clip-path="url(#p8898100362)" style="fill: none; stroke: #bebebe; stroke-width: 0.5; stroke-linecap: round"/>
   </g>
   <g id="line2d_6">
    <path d="M 8.64 84.79032 
L 11.216973 85.84296 
L 13.642736 88.25784 
L 16.693656 91.41576 
L 19.733058 88.7532 
L 22.855308 88.65 
L 25.882592 88.55712 
L 28.952484 88.96992 
L 31.998634 89.7336 
L 35.04012 90.456 
L 38.091676 90.56952 
L 41.107442 89.15568 
L 43.998849 88.9596 
L 47.247119 90.6624 
L 49.916161 89.94 
L 53.347227 90.00192 
L 56.395992 90.3528 
L 59.430624 90.62112 
L 62.464444 90.5076 
L 65.551788 90.3528 
L 68.613448 92.004 
L 71.408052 92.13816 
L 74.707409 91.25064 
L 77.746281 89.166 
L 80.792961 89.56848 
L 83.809469 90.93072 
L 86.931295 89.41368 
L 89.952255 90.37344 
L 93.011831 89.79552 
L 96.047205 90.23928 
L 99.106251 88.0824 
L 102.157276 88.7532 
L 105.186327 90.16704 
L 108.268442 90.67272 
L 111.330066 90.18768 
L 114.362933 89.2692 
L 117.414205 89.54784 
L 120.478691 89.49624 
L 123.525265 88.31976 
L 126.573677 88.45392 
L 129.68455 88.46424 
L 132.745645 86.38992 
L 135.744701 84.80064 
L 138.820457 84.8316 
L 141.873779 86.586 
L 144.896541 87.74184 
L 147.931138 87.618 
L 151.029258 88.19592 
L 154.088904 89.08344 
L 157.113114 87.89664 
L 160.392934 87.3084 
L 163.255193 87.65928 
L 166.311518 88.96992 
L 169.33481 90.07416 
L 172.428867 89.76456 
L 175.490068 89.3724 
L 178.523287 89.00088 
L 181.60194 88.42296 
L 184.614209 88.81512 
L 187.670181 89.10408 
L 190.696511 89.14536 
L 193.794949 89.07312 
L 196.855301 87.9792 
L 199.887955 88.29912 
L 202.945376 86.38992 
L 205.987215 87.24648 
L 209.067776 87.1536 
L 212.07358 86.21448 
L 215.180815 86.66856 
L 218.24894 87.01944 
L 221.281983 84.44976 
L 224.332125 85.05864 
L 227.397812 84.58392 
L 230.444068 85.04832 
L 233.462873 83.71704 
L 236.555658 84.86256 
L 239.615693 85.6572 
L 242.654777 85.27536 
L 245.697783 84.49104 
L 248.762622 84.86256 
L 251.823187 85.32696 
L 254.839236 85.17216 
L 257.939193 85.31664 
L 261.024559 84.11952 
L 264.083427 85.66752 
L 267.127564 85.26504 
L 270.18516 86.26608 
L 273.270986 85.77072 
L 276.245558 85.38888 
L 279.36 85.3992 
" clip-path="url(#p8898100362)" style="fill: none; stroke: #4a8dff; stroke-width: 0.6"/>
   </g>
   <g id="line2d_7">
    <path d="M 8.64 95.08968 
L 11.216973 97.71096 
L 13.642736 99.80592 
L 16.693656 101.79768 
L 19.733058 100.03296 
L 22.855308 100.518 
L 25.882592 99.98136 
L 28.952484 100.49736 
L 31.998634 100.78632 
L 35.04012 101.07528 
L 38.091676 101.26104 
L 41.107442 100.63152 
L 43.998849 100.38384 
L 47.247119 100.84824 
L 49.916161 100.65216 
L 53.347227 101.034 
L 56.395992 101.19912 
L 59.430624 101.10624 
L 62.464444 100.97208 
L 65.551788 100.91016 
L 68.613448 101.7564 
L 71.408052 101.84928 
L 74.707409 101.56032 
L 77.746281 100.85856 
L 80.792961 101.12688 
L 83.809469 101.4468 
L 86.931295 101.02368 
L 89.952255 101.30232 
L 93.011831 100.81728 
L 96.047205 100.79664 
L 99.106251 99.3312 
L 102.157276 99.92976 
L 105.186327 100.78632 
L 108.268442 101.17848 
L 111.330066 101.1372 
L 114.362933 100.21872 
L 117.414205 100.37352 
L 120.478691 100.4664 
L 123.525265 99.88848 
L 126.573677 99.94008 
L 129.68455 99.81624 
L 132.745645 98.93904 
L 135.744701 98.3508 
L 138.820457 98.52624 
L 141.873779 99.78528 
L 144.896541 100.12584 
L 147.931138 100.03296 
L 151.029258 100.45608 
L 154.088904 100.83792 
L 157.113114 100.11552 
L 160.392934 99.87816 
L 163.255193 100.002 
L 166.311518 100.64184 
L 169.33481 101.41584 
L 172.428867 101.21976 
L 175.490068 101.14752 
L 178.523287 101.00304 
L 181.60194 100.86888 
L 184.614209 101.21976 
L 187.670181 101.28168 
L 190.696511 101.20944 
L 193.794949 101.14752 
L 196.855301 100.55928 
L 199.887955 100.65216 
L 202.945376 99.80592 
L 205.987215 99.96072 
L 209.067776 99.6408 
L 212.07358 99.1764 
L 215.180815 99.70272 
L 218.24894 99.94008 
L 221.281983 98.57784 
L 224.332125 98.65008 
L 227.397812 98.38176 
L 230.444068 98.48496 
L 233.462873 96.70992 
L 236.555658 98.05152 
L 239.615693 98.48496 
L 242.654777 97.96896 
L 245.697783 96.32808 
L 248.762622 96.20424 
L 251.823187 96.16296 
L 254.839236 96.1836 
L 257.939193 96.50352 
L 261.024559 94.76976 
L 264.083427 97.19496 
L 267.127564 96.9576 
L 270.18516 97.9896 
L 273.270986 96.89568 
L 276.245558 95.45088 
L 279.36 95.67792 
" clip-path="url(#p8898100362)" style="fill: none; stroke: #f5841e; stroke-width: 0.6"/>
   </g>
  </g>
 </g>
 <defs>
  <clipPath id="p8898100362">
   <rect x="8.64" y="4.8" width="270.72" height="103.2"/>
  </clipPath>
 </defs>
</svg>
