<?xml version="1.0" encoding="utf-8" standalone="no"?>
<!DOCTYPE svg PUBLIC "-//W3C//DTD SVG 1.1//EN"
  "http://www.w3.org/Graphics/SVG/1.1/DTD/svg11.dtd">
<svg xmlns:xlink="http://www.w3.org/1999/xlink" width="288pt" height="120pt" viewBox="0 0 288 120" xmlns="http://www.w3.org/2000/svg" version="1.1">
<desc id="nav-meta">{"window":"3m","count":4,"labels":["20.01","19.02","20.03","19.04"],"tick_utc":["2026-01-20T12:00:00Z","2026-02-19T03:28:49Z","2026-03-20T03:18:49Z","2026-04-19T03:58:52Z"],"w":720,"h":300}</desc>

 <metadata>
  <rdf:RDF xmlns:dc="http://purl.org/dc/elements/1.1/" xmlns:cc="http://creativecommons.org/ns#" xmlns:rdf="http://www.w3.org/1999/02/22-rdf-syntax-ns#">
   <cc:Work>
    <dc:type rdf:resource="http://purl.org/dc/dcmitype/StillImage"/>
    <dc:date>2026-04-19T13:46:08.075822</dc:date>
    <dc:format>image/svg+xml</dc:format>
    <dc:creator>
     <cc:Agent>
      <dc:title>Matplotlib v3.10.8, https://matplotlib.org/</dc:title>
     </cc:Agent>
    </dc:creator>
   </cc:Work>
  </rdf:RDF>
 </metadata>
 <defs>
  <style type="text/css">*{stroke-linejoin: round; stroke-linecap: butt}</style>
 </defs>
 <g id="figure_1">
  <g id="patch_1">
   <path d="M 0 120 
L 288 120 
L 288 0 
L 0 0 
L 0 120 
z
" style="fill: none; opacity: 0"/>
  </g>
  <g id="axes_1">
   <g id="patch_2">
    <path d="M 8.64 108 
L 279.36 108 
L 279.36 4.8 
L 8.64 4.8 
L 8.64 108 
z
" style="fill: none"/>
   </g>
   <g id="matplotlib.axis_1"/>
   <g id="matplotlib.axis_2"/>
   <g id="line2d_1">
    <path d="M 8.64 87.36 
L 279.36 87.36 
" clip-path="url(#pa95f985a6d)" style="fill: none; stroke: #b2b2b2; stroke-opacity: 0.35; stroke-width: 0.5; stroke-linecap: square"/>
   </g>
   <g id="line2d_2">
    <path d="M 8.64 66.72 
L 279.36 66.72 
" clip-path="url(#pa95f985a6d)" style="fill: none; stroke: #b2b2b2; stroke-opacity: 0.35; stroke-width: 0.5; stroke-linecap: square"/>
   </g>
   <g id="line2d_3">
    <path d="M 8.64 46.08 
L 279.36 46.08 
" clip-path="url(#pa95f985a6d)" style="fill: none; stroke: #b2b2b2; stroke-opacity: 0.35; stroke-width: 0.5; stroke-linecap: square"/>
   </g>
   <g id="line2d_4">
    <path d="M 8.64 25.44 
L 279.36 25.44 
" clip-path="url(#pa95f985a6d)" style="fill: none; stroke: #b2b2b2; stroke-opacity: 0.35; stroke-width: 0.5; stroke-linecap: square"/>
   </g>
   <g id="line2d_5">
    <path d="M 8.64 90.0432 
L 11.69326 92.12784 
L 14.74652 91.16808 
L 17.799781 91.46736 
L 20.853041 91.73568 
L 23.906301 91.78728 
L 26.959561 94.0164 
L 30.012821 92.5716 
L 33.066081 91.76664 
L 36.119342 92.33424 
L 39.172602 94.36728 
L 42.225862 94.46016 
L 45.279122 97.71096 
L 48.332382 98.48496 
L 51.385643 97.85544 
L 53.96328 99.10416 
L 56.389667 100.16712 
L 59.441373 102.23112 
L 62.481558 100.54896 
L 65.604612 100.70376 
L 68.632675 100.68312 
L 71.703358 100.95144 
L 74.750292 101.28168 
L 77.792562 101.71512 
L 80.844903 101.84928 
L 83.861447 101.034 
L 86.753598 100.54896 
L 90.002705 101.04432 
L 92.672435 100.81728 
L 96.104384 101.034 
L 99.153934 101.4984 
L 102.189348 101.33328 
L 105.223949 101.1372 
L 108.312088 101.06496 
L 111.374537 102.09696 
L 114.16986 102.05568 
L 117.470067 101.4984 
L 120.509722 100.60056 
L 123.557186 100.80696 
L 126.574472 101.45712 
L 129.697102 100.55928 
L 132.71884 101.10624 
L 135.779203 100.8792 
L 138.815359 100.74504 
L 141.875192 100.21872 
L 144.927004 100.53864 
L 147.956834 101.07528 
L 151.039744 101.38488 
L 154.102157 101.26104 
L 157.135804 100.78632 
L 160.187862 100.91016 
L 163.253138 100.99272 
L 166.300496 100.38384 
L 169.349693 100.50768 
L 172.461368 100.60056 
L 175.52325 99.76464 
L 178.523079 99.49632 
L 181.599627 99.40344 
L 184.653735 100.09488 
L 187.677276 100.3632 
L 190.712654 100.19808 
L 193.811572 100.47672 
L 196.872006 100.79664 
L 199.896995 100.26 
L 203.17766 99.83688 
L 206.040657 100.13616 
L 209.097769 100.80696 
L 212.121839 101.38488 
L 215.216693 101.3436 
L 218.278682 101.292 
L 221.312682 101.28168 
L 224.392129 101.28168 
L 227.405173 101.8596 
L 230.461932 101.88024 
L 233.489042 101.72544 
L 236.588277 101.68416 
L 239.649418 101.47776 
L 242.682853 101.78736 
L 245.741061 101.09592 
L 248.783684 101.46744 
L 251.865039 101.3436 
L 254.871616 101.05464 
L 257.979652 101.3952 
L 261.048567 101.47776 
L 264.082391 100.86888 
L 267.133319 101.26104 
L 270.199795 100.99272 
L 273.246836 100.61088 
L 276.266418 100.44576 
L 279.36 100.94112 
" clip-path="url(#pa95f985a6d)" style="fill: none; stroke: #bebebe; stroke-width: 0.5; stroke-linecap: round"/>
   </g>
   <g id="line2d_6">
    <path d="M 8.64 72.31344 
L 11.69326 76.01832 
L 14.74652 75.41976 
L 17.799781 75.83256 
L 20.853041 75.79128 
L 23.906301 75.82224 
L 26.959561 77.82432 
L 30.012821 76.14216 
L 33.066081 74.75928 
L 36.119342 74.96568 
L 39.172602 77.75208 
L 42.225862 79.48584 
L 45.279122 83.31456 
L 48.332382 85.90488 
L 51.385643 84.79032 
L 53.96328 85.84296 
L 56.389667 88.25784 
L 59.441373 91.41576 
L 62.481558 88.7532 
L 65.604612 88.65 
L 68.632675 88.55712 
L 71.703358 88.96992 
L 74.750292 89.7336 
L 77.792562 90.456 
L 80.844903 90.56952 
L 83.861447 89.15568 
L 86.753598 88.9596 
L 90.002705 90.6624 
L 92.672435 89.94 
L 96.104384 90.00192 
L 99.153934 90.3528 
L 102.189348 90.62112 
L 105.223949 90.5076 
L 108.312088 90.3528 
L 111.374537 92.004 
L 114.16986 92.13816 
L 117.470067 91.25064 
L 120.509722 89.166 
L 123.557186 89.56848 
L 126.574472 90.93072 
L 129.697102 89.41368 
L 132.71884 90.37344 
L 135.779203 89.79552 
L 138.815359 90.23928 
L 141.875192 88.0824 
L 144.927004 88.7532 
L 147.956834 90.16704 
L 151.039744 90.67272 
L 154.102157 90.18768 
L 157.135804 89.2692 
L 160.187862 89.54784 
L 163.253138 89.49624 
L 166.300496 88.31976 
L 169.349693 88.45392 
L 172.461368 88.46424 
L 175.52325 86.38992 
L 178.523079 84.80064 
L 181.599627 84.8316 
L 184.653735 86.586 
L 187.677276 87.74184 
L 190.712654 87.618 
L 193.811572 88.19592 
L 196.872006 89.08344 
L 199.896995 87.89664 
L 203.17766 87.3084 
L 206.040657 87.65928 
L 209.097769 88.96992 
L 212.121839 90.07416 
L 215.216693 89.76456 
L 218.278682 89.3724 
L 221.312682 89.00088 
L 224.392129 88.42296 
L 227.405173 88.81512 
L 230.461932 89.10408 
L 233.489042 89.14536 
L 236.588277 89.07312 
L 239.649418 87.9792 
L 242.682853 88.29912 
L 245.741061 86.38992 
L 248.783684 87.24648 
L 251.865039 87.1536 
L 254.871616 86.21448 
L 257.979652 86.66856 
L 261.048567 87.01944 
L 264.082391 84.44976 
L 267.133319 85.05864 
L 270.199795 84.58392 
L 273.246836 85.04832 
L 276.266418 83.71704 
L 279.36 84.86256 
" clip-path="url(#pa95f985a6d)" style="fill: none; stroke: #4a8dff; stroke-width: 0.6"/>
   </g>
   <g id="line2d_7">
    <path d="M 8.64 80.8068 
L 11.69326 85.20312 
L 14.74652 84.12984 
L 17.799781 84.03696 
L 20.853041 84.06792 
L 23.906301 84.3156 
L 26.959561 87.02976 
L 30.012821 85.21344 
L 33.066081 84.28464 
L 36.119342 84.32592 
L 39.172602 89.08344 
L 42.225862 89.5272 
L 45.279122 95.14128 
L 48.332382 96.98856 
L 51.385643 95.08968 
L 53.96328 97.71096 
L 56.389667 99.80592 
L 59.441373 101.79768 
L 62.481558 100.03296 
L 65.604612 100.518 
L 68.632675 99.98136 
L 71.703358 100.49736 
L 74.750292 100.78632 
L 77.792562 101.07528 
L 80.844903 101.26104 
L 83.861447 100.63152 
L 86.753598 100.38384 
L 90.002705 100.84824 
L 92.672435 100.65216 
L 96.104384 101.034 
L 99.153934 101.19912 
L 102.189348 101.10624 
L 105.223949 100.97208 
L 108.312088 100.91016 
L 111.374537 101.7564 
L 114.16986 101.84928 
L 117.470067 101.56032 
L 120.509722 100.85856 
L 123.557186 101.12688 
L 126.574472 101.4468 
L 129.697102 101.02368 
L 132.71884 101.30232 
L 135.779203 100.81728 
L 138.815359 100.79664 
L 141.875192 99.3312 
L 144.927004 99.92976 
L 147.956834 100.78632 
L 151.039744 101.17848 
L 154.102157 101.1372 
L 157.135804 100.21872 
L 160.187862 100.37352 
L 163.253138 100.4664 
L 166.300496 99.88848 
L 169.349693 99.94008 
L 172.461368 99.81624 
L 175.52325 98.93904 
L 178.523079 98.3508 
L 181.599627 98.52624 
L 184.653735 99.78528 
L 187.677276 100.12584 
L 190.712654 100.03296 
L 193.811572 100.45608 
L 196.872006 100.83792 
L 199.896995 100.11552 
L 203.17766 99.87816 
L 206.040657 100.002 
L 209.097769 100.64184 
L 212.121839 101.41584 
L 215.216693 101.21976 
L 218.278682 101.14752 
L 221.312682 101.00304 
L 224.392129 100.86888 
L 227.405173 101.21976 
L 230.461932 101.28168 
L 233.489042 101.20944 
L 236.588277 101.14752 
L 239.649418 100.55928 
L 242.682853 100.65216 
L 245.741061 99.80592 
L 248.783684 99.96072 
L 251.865039 99.6408 
L 254.871616 99.1764 
L 257.979652 99.70272 
L 261.048567 99.94008 
L 264.082391 98.57784 
L 267.133319 98.65008 
L 270.199795 98.38176 
L 273.246836 98.48496 
L 276.266418 96.70992 
L 279.36 98.05152 
" clip-path="url(#pa95f985a6d)" style="fill: none; stroke: #f5841e; stroke-width: 0.6"/>
   </g>
  </g>
 </g>
 <defs>
  <clipPath id="pa95f985a6d">
   <rect x="8.64" y="4.8" width="270.72" height="103.2"/>
  </clipPath>
 </defs>
</svg>
