<?xml version="1.0" encoding="utf-8" standalone="no"?>
<!DOCTYPE svg PUBLIC "-//W3C//DTD SVG 1.1//EN"
  "http://www.w3.org/Graphics/SVG/1.1/DTD/svg11.dtd">
<svg xmlns:xlink="http://www.w3.org/1999/xlink" width="288pt" height="120pt" viewBox="0 0 288 120" xmlns="http://www.w3.org/2000/svg" version="1.1">
<desc id="nav-meta">{"window":"1m","count":4,"labels":["31.01","10.02","19.02","01.03"],"tick_utc":["2026-01-31T12:00:00Z","2026-02-10T03:42:23Z","2026-02-19T03:28:49Z","2026-03-01T03:33:48Z"],"w":720,"h":300}</desc>

 <metadata>
  <rdf:RDF xmlns:dc="http://purl.org/dc/elements/1.1/" xmlns:cc="http://creativecommons.org/ns#" xmlns:rdf="http://www.w3.org/1999/02/22-rdf-syntax-ns#">
   <cc:Work>
    <dc:type rdf:resource="http://purl.org/dc/dcmitype/StillImage"/>
    <dc:date>2026-03-01T13:26:38.295726</dc:date>
    <dc:format>image/svg+xml</dc:format>
    <dc:creator>
     <cc:Agent>
      <dc:title>Matplotlib v3.10.8, https://matplotlib.org/</dc:title>
     </cc:Agent>
    </dc:creator>
   </cc:Work>
  </rdf:RDF>
 </metadata>
 <defs>
  <style type="text/css">*{stroke-linejoin: round; stroke-linecap: butt}</style>
 </defs>
 <g id="figure_1">
  <g id="patch_1">
   <path d="M 0 120 
L 288 120 
L 288 0 
L 0 0 
L 0 120 
z
" style="fill: none; opacity: 0"/>
  </g>
  <g id="axes_1">
   <g id="patch_2">
    <path d="M 8.64 108 
L 279.36 108 
L 279.36 4.8 
L 8.64 4.8 
L 8.64 108 
z
" style="fill: none"/>
   </g>
   <g id="matplotlib.axis_1"/>
   <g id="matplotlib.axis_2"/>
   <g id="line2d_1">
    <path d="M 8.64 87.36 
L 279.36 87.36 
" clip-path="url(#p4039240f7b)" style="fill: none; stroke: #b2b2b2; stroke-opacity: 0.35; stroke-width: 0.5; stroke-linecap: square"/>
   </g>
   <g id="line2d_2">
    <path d="M 8.64 66.72 
L 279.36 66.72 
" clip-path="url(#p4039240f7b)" style="fill: none; stroke: #b2b2b2; stroke-opacity: 0.35; stroke-width: 0.5; stroke-linecap: square"/>
   </g>
   <g id="line2d_3">
    <path d="M 8.64 46.08 
L 279.36 46.08 
" clip-path="url(#p4039240f7b)" style="fill: none; stroke: #b2b2b2; stroke-opacity: 0.35; stroke-width: 0.5; stroke-linecap: square"/>
   </g>
   <g id="line2d_4">
    <path d="M 8.64 25.44 
L 279.36 25.44 
" clip-path="url(#p4039240f7b)" style="fill: none; stroke: #b2b2b2; stroke-opacity: 0.35; stroke-width: 0.5; stroke-linecap: square"/>
   </g>
   <g id="line2d_5">
    <path d="M 8.64 94.46016 
L 18.089719 97.71096 
L 27.539437 98.48496 
L 36.989156 97.85544 
L 44.96684 99.10416 
L 52.476413 100.16712 
L 61.921319 102.23112 
L 71.33057 100.54896 
L 80.996298 100.70376 
L 90.368035 100.68312 
L 99.871674 100.95144 
L 109.301815 101.28168 
L 118.717519 101.71512 
L 128.164393 101.84928 
L 137.500475 101.034 
L 146.451568 100.54896 
L 156.507424 101.04432 
L 164.770131 100.81728 
L 175.391878 101.034 
L 184.830112 101.4984 
L 194.224598 101.33328 
L 203.616568 101.1372 
L 213.174237 101.06496 
L 222.652392 102.09696 
L 231.303806 102.05568 
L 241.517815 101.4984 
L 250.925425 100.60056 
L 260.357207 100.80696 
L 269.695585 101.45712 
L 279.36 100.55928 
" clip-path="url(#p4039240f7b)" style="fill: none; stroke: #bebebe; stroke-width: 0.5; stroke-linecap: round"/>
   </g>
   <g id="line2d_6">
    <path d="M 8.64 79.48584 
L 18.089719 83.31456 
L 27.539437 85.90488 
L 36.989156 84.79032 
L 44.96684 85.84296 
L 52.476413 88.25784 
L 61.921319 91.41576 
L 71.33057 88.7532 
L 80.996298 88.65 
L 90.368035 88.55712 
L 99.871674 88.96992 
L 109.301815 89.7336 
L 118.717519 90.456 
L 128.164393 90.56952 
L 137.500475 89.15568 
L 146.451568 88.9596 
L 156.507424 90.6624 
L 164.770131 89.94 
L 175.391878 90.00192 
L 184.830112 90.3528 
L 194.224598 90.62112 
L 203.616568 90.5076 
L 213.174237 90.3528 
L 222.652392 92.004 
L 231.303806 92.13816 
L 241.517815 91.25064 
L 250.925425 89.166 
L 260.357207 89.56848 
L 269.695585 90.93072 
L 279.36 89.41368 
" clip-path="url(#p4039240f7b)" style="fill: none; stroke: #4a8dff; stroke-width: 0.6"/>
   </g>
   <g id="line2d_7">
    <path d="M 8.64 89.5272 
L 18.089719 95.14128 
L 27.539437 96.98856 
L 36.989156 95.08968 
L 44.96684 97.71096 
L 52.476413 99.80592 
L 61.921319 101.79768 
L 71.33057 100.03296 
L 80.996298 100.518 
L 90.368035 99.98136 
L 99.871674 100.49736 
L 109.301815 100.78632 
L 118.717519 101.07528 
L 128.164393 101.26104 
L 137.500475 100.63152 
L 146.451568 100.38384 
L 156.507424 100.84824 
L 164.770131 100.65216 
L 175.391878 101.034 
L 184.830112 101.19912 
L 194.224598 101.10624 
L 203.616568 100.97208 
L 213.174237 100.91016 
L 222.652392 101.7564 
L 231.303806 101.84928 
L 241.517815 101.56032 
L 250.925425 100.85856 
L 260.357207 101.12688 
L 269.695585 101.4468 
L 279.36 101.02368 
" clip-path="url(#p4039240f7b)" style="fill: none; stroke: #f5841e; stroke-width: 0.6"/>
   </g>
  </g>
 </g>
 <defs>
  <clipPath id="p4039240f7b">
   <rect x="8.64" y="4.8" width="270.72" height="103.2"/>
  </clipPath>
 </defs>
</svg>
