<?xml version="1.0" encoding="utf-8" standalone="no"?>
<!DOCTYPE svg PUBLIC "-//W3C//DTD SVG 1.1//EN"
  "http://www.w3.org/Graphics/SVG/1.1/DTD/svg11.dtd">
<svg xmlns:xlink="http://www.w3.org/1999/xlink" width="288pt" height="120pt" viewBox="0 0 288 120" xmlns="http://www.w3.org/2000/svg" version="1.1">
<desc id="nav-meta">{"window":"1m","count":4,"labels":["19.02","01.03","11.03","21.03"],"tick_utc":["2026-02-19T03:28:49Z","2026-03-01T03:33:48Z","2026-03-11T03:14:04Z","2026-03-21T03:10:23Z"],"w":720,"h":300}</desc>

 <metadata>
  <rdf:RDF xmlns:dc="http://purl.org/dc/elements/1.1/" xmlns:cc="http://creativecommons.org/ns#" xmlns:rdf="http://www.w3.org/1999/02/22-rdf-syntax-ns#">
   <cc:Work>
    <dc:type rdf:resource="http://purl.org/dc/dcmitype/StillImage"/>
    <dc:date>2026-03-21T03:10:25.177180</dc:date>
    <dc:format>image/svg+xml</dc:format>
    <dc:creator>
     <cc:Agent>
      <dc:title>Matplotlib v3.10.8, https://matplotlib.org/</dc:title>
     </cc:Agent>
    </dc:creator>
   </cc:Work>
  </rdf:RDF>
 </metadata>
 <defs>
  <style type="text/css">*{stroke-linejoin: round; stroke-linecap: butt}</style>
 </defs>
 <g id="figure_1">
  <g id="patch_1">
   <path d="M 0 120 
L 288 120 
L 288 0 
L 0 0 
L 0 120 
z
" style="fill: none; opacity: 0"/>
  </g>
  <g id="axes_1">
   <g id="patch_2">
    <path d="M 8.64 108 
L 279.36 108 
L 279.36 4.8 
L 8.64 4.8 
L 8.64 108 
z
" style="fill: none"/>
   </g>
   <g id="matplotlib.axis_1"/>
   <g id="matplotlib.axis_2"/>
   <g id="line2d_1">
    <path d="M 8.64 87.36 
L 279.36 87.36 
" clip-path="url(#p26f0950d99)" style="fill: none; stroke: #b2b2b2; stroke-opacity: 0.35; stroke-width: 0.5; stroke-linecap: square"/>
   </g>
   <g id="line2d_2">
    <path d="M 8.64 66.72 
L 279.36 66.72 
" clip-path="url(#p26f0950d99)" style="fill: none; stroke: #b2b2b2; stroke-opacity: 0.35; stroke-width: 0.5; stroke-linecap: square"/>
   </g>
   <g id="line2d_3">
    <path d="M 8.64 46.08 
L 279.36 46.08 
" clip-path="url(#p26f0950d99)" style="fill: none; stroke: #b2b2b2; stroke-opacity: 0.35; stroke-width: 0.5; stroke-linecap: square"/>
   </g>
   <g id="line2d_4">
    <path d="M 8.64 25.44 
L 279.36 25.44 
" clip-path="url(#p26f0950d99)" style="fill: none; stroke: #b2b2b2; stroke-opacity: 0.35; stroke-width: 0.5; stroke-linecap: square"/>
   </g>
   <g id="line2d_5">
    <path d="M 8.64 101.4984 
L 17.615085 101.33328 
L 26.587767 101.1372 
L 35.71875 101.06496 
L 44.773769 102.09696 
L 53.038956 102.05568 
L 62.796978 101.4984 
L 71.784601 100.60056 
L 80.795317 100.80696 
L 89.7168 101.45712 
L 98.949764 100.55928 
L 107.884412 101.10624 
L 116.933266 100.8792 
L 125.910546 100.74504 
L 134.957833 100.21872 
L 143.981401 100.53864 
L 152.939977 101.07528 
L 162.055495 101.38488 
L 171.11041 101.26104 
L 180.080271 100.78632 
L 189.10457 100.91016 
L 198.167949 100.99272 
L 207.178351 100.38384 
L 216.194187 100.50768 
L 225.39476 100.60056 
L 234.448107 99.76464 
L 243.317972 99.49632 
L 252.414682 99.40344 
L 261.445042 100.09488 
L 270.385019 100.3632 
L 279.36 100.19808 
" clip-path="url(#p26f0950d99)" style="fill: none; stroke: #bebebe; stroke-width: 0.5; stroke-linecap: round"/>
   </g>
   <g id="line2d_6">
    <path d="M 8.64 90.3528 
L 17.615085 90.62112 
L 26.587767 90.5076 
L 35.71875 90.3528 
L 44.773769 92.004 
L 53.038956 92.13816 
L 62.796978 91.25064 
L 71.784601 89.166 
L 80.795317 89.56848 
L 89.7168 90.93072 
L 98.949764 89.41368 
L 107.884412 90.37344 
L 116.933266 89.79552 
L 125.910546 90.23928 
L 134.957833 88.0824 
L 143.981401 88.7532 
L 152.939977 90.16704 
L 162.055495 90.67272 
L 171.11041 90.18768 
L 180.080271 89.2692 
L 189.10457 89.54784 
L 198.167949 89.49624 
L 207.178351 88.31976 
L 216.194187 88.45392 
L 225.39476 88.46424 
L 234.448107 86.38992 
L 243.317972 84.80064 
L 252.414682 84.8316 
L 261.445042 86.586 
L 270.385019 87.74184 
L 279.36 87.618 
" clip-path="url(#p26f0950d99)" style="fill: none; stroke: #4a8dff; stroke-width: 0.6"/>
   </g>
   <g id="line2d_7">
    <path d="M 8.64 101.19912 
L 17.615085 101.10624 
L 26.587767 100.97208 
L 35.71875 100.91016 
L 44.773769 101.7564 
L 53.038956 101.84928 
L 62.796978 101.56032 
L 71.784601 100.85856 
L 80.795317 101.12688 
L 89.7168 101.4468 
L 98.949764 101.02368 
L 107.884412 101.30232 
L 116.933266 100.81728 
L 125.910546 100.79664 
L 134.957833 99.3312 
L 143.981401 99.92976 
L 152.939977 100.78632 
L 162.055495 101.17848 
L 171.11041 101.1372 
L 180.080271 100.21872 
L 189.10457 100.37352 
L 198.167949 100.4664 
L 207.178351 99.88848 
L 216.194187 99.94008 
L 225.39476 99.81624 
L 234.448107 98.93904 
L 243.317972 98.3508 
L 252.414682 98.52624 
L 261.445042 99.78528 
L 270.385019 100.12584 
L 279.36 100.03296 
" clip-path="url(#p26f0950d99)" style="fill: none; stroke: #f5841e; stroke-width: 0.6"/>
   </g>
  </g>
 </g>
 <defs>
  <clipPath id="p26f0950d99">
   <rect x="8.64" y="4.8" width="270.72" height="103.2"/>
  </clipPath>
 </defs>
</svg>
