<?xml version="1.0" encoding="utf-8" standalone="no"?>
<!DOCTYPE svg PUBLIC "-//W3C//DTD SVG 1.1//EN"
  "http://www.w3.org/Graphics/SVG/1.1/DTD/svg11.dtd">
<svg xmlns:xlink="http://www.w3.org/1999/xlink" width="288pt" height="120pt" viewBox="0 0 288 120" xmlns="http://www.w3.org/2000/svg" version="1.1">
<desc id="nav-meta">{"window":"1m","count":4,"labels":["06.02","16.02","25.02","07.03"],"tick_utc":["2026-02-06T03:19:18Z","2026-02-16T03:32:51Z","2026-02-25T03:27:12Z","2026-03-07T03:05:35Z"],"w":720,"h":300}</desc>

 <metadata>
  <rdf:RDF xmlns:dc="http://purl.org/dc/elements/1.1/" xmlns:cc="http://creativecommons.org/ns#" xmlns:rdf="http://www.w3.org/1999/02/22-rdf-syntax-ns#">
   <cc:Work>
    <dc:type rdf:resource="http://purl.org/dc/dcmitype/StillImage"/>
    <dc:date>2026-03-07T13:25:58.237120</dc:date>
    <dc:format>image/svg+xml</dc:format>
    <dc:creator>
     <cc:Agent>
      <dc:title>Matplotlib v3.10.8, https://matplotlib.org/</dc:title>
     </cc:Agent>
    </dc:creator>
   </cc:Work>
  </rdf:RDF>
 </metadata>
 <defs>
  <style type="text/css">*{stroke-linejoin: round; stroke-linecap: butt}</style>
 </defs>
 <g id="figure_1">
  <g id="patch_1">
   <path d="M 0 120 
L 288 120 
L 288 0 
L 0 0 
L 0 120 
z
" style="fill: none; opacity: 0"/>
  </g>
  <g id="axes_1">
   <g id="patch_2">
    <path d="M 8.64 108 
L 279.36 108 
L 279.36 4.8 
L 8.64 4.8 
L 8.64 108 
z
" style="fill: none"/>
   </g>
   <g id="matplotlib.axis_1"/>
   <g id="matplotlib.axis_2"/>
   <g id="line2d_1">
    <path d="M 8.64 87.36 
L 279.36 87.36 
" clip-path="url(#p7f8d99416c)" style="fill: none; stroke: #b2b2b2; stroke-opacity: 0.35; stroke-width: 0.5; stroke-linecap: square"/>
   </g>
   <g id="line2d_2">
    <path d="M 8.64 66.72 
L 279.36 66.72 
" clip-path="url(#p7f8d99416c)" style="fill: none; stroke: #b2b2b2; stroke-opacity: 0.35; stroke-width: 0.5; stroke-linecap: square"/>
   </g>
   <g id="line2d_3">
    <path d="M 8.64 46.08 
L 279.36 46.08 
" clip-path="url(#p7f8d99416c)" style="fill: none; stroke: #b2b2b2; stroke-opacity: 0.35; stroke-width: 0.5; stroke-linecap: square"/>
   </g>
   <g id="line2d_4">
    <path d="M 8.64 25.44 
L 279.36 25.44 
" clip-path="url(#p7f8d99416c)" style="fill: none; stroke: #b2b2b2; stroke-opacity: 0.35; stroke-width: 0.5; stroke-linecap: square"/>
   </g>
   <g id="line2d_5">
    <path d="M 8.64 102.23112 
L 17.93825 100.54896 
L 27.48995 100.70376 
L 36.751128 100.68312 
L 46.142652 100.95144 
L 55.461545 101.28168 
L 64.766171 101.71512 
L 74.101601 101.84928 
L 83.327544 101.034 
L 92.17304 100.54896 
L 102.110267 101.04432 
L 110.275499 100.81728 
L 120.771939 101.034 
L 130.098831 101.4984 
L 139.382489 101.33328 
L 148.663662 101.1372 
L 158.108578 101.06496 
L 167.474919 102.09696 
L 176.024272 102.05568 
L 186.117785 101.4984 
L 195.414413 100.60056 
L 204.734927 100.80696 
L 213.96314 101.45712 
L 223.513544 100.55928 
L 232.755375 101.10624 
L 242.115339 100.8792 
L 251.401267 100.74504 
L 260.75961 100.21872 
L 270.093418 100.53864 
L 279.36 101.07528 
" clip-path="url(#p7f8d99416c)" style="fill: none; stroke: #bebebe; stroke-width: 0.5; stroke-linecap: round"/>
   </g>
   <g id="line2d_6">
    <path d="M 8.64 91.41576 
L 17.93825 88.7532 
L 27.48995 88.65 
L 36.751128 88.55712 
L 46.142652 88.96992 
L 55.461545 89.7336 
L 64.766171 90.456 
L 74.101601 90.56952 
L 83.327544 89.15568 
L 92.17304 88.9596 
L 102.110267 90.6624 
L 110.275499 89.94 
L 120.771939 90.00192 
L 130.098831 90.3528 
L 139.382489 90.62112 
L 148.663662 90.5076 
L 158.108578 90.3528 
L 167.474919 92.004 
L 176.024272 92.13816 
L 186.117785 91.25064 
L 195.414413 89.166 
L 204.734927 89.56848 
L 213.96314 90.93072 
L 223.513544 89.41368 
L 232.755375 90.37344 
L 242.115339 89.79552 
L 251.401267 90.23928 
L 260.75961 88.0824 
L 270.093418 88.7532 
L 279.36 90.16704 
" clip-path="url(#p7f8d99416c)" style="fill: none; stroke: #4a8dff; stroke-width: 0.6"/>
   </g>
   <g id="line2d_7">
    <path d="M 8.64 101.79768 
L 17.93825 100.03296 
L 27.48995 100.518 
L 36.751128 99.98136 
L 46.142652 100.49736 
L 55.461545 100.78632 
L 64.766171 101.07528 
L 74.101601 101.26104 
L 83.327544 100.63152 
L 92.17304 100.38384 
L 102.110267 100.84824 
L 110.275499 100.65216 
L 120.771939 101.034 
L 130.098831 101.19912 
L 139.382489 101.10624 
L 148.663662 100.97208 
L 158.108578 100.91016 
L 167.474919 101.7564 
L 176.024272 101.84928 
L 186.117785 101.56032 
L 195.414413 100.85856 
L 204.734927 101.12688 
L 213.96314 101.4468 
L 223.513544 101.02368 
L 232.755375 101.30232 
L 242.115339 100.81728 
L 251.401267 100.79664 
L 260.75961 99.3312 
L 270.093418 99.92976 
L 279.36 100.78632 
" clip-path="url(#p7f8d99416c)" style="fill: none; stroke: #f5841e; stroke-width: 0.6"/>
   </g>
  </g>
 </g>
 <defs>
  <clipPath id="p7f8d99416c">
   <rect x="8.64" y="4.8" width="270.72" height="103.2"/>
  </clipPath>
 </defs>
</svg>
