<?xml version="1.0" encoding="utf-8" standalone="no"?>
<!DOCTYPE svg PUBLIC "-//W3C//DTD SVG 1.1//EN"
  "http://www.w3.org/Graphics/SVG/1.1/DTD/svg11.dtd">
<svg xmlns:xlink="http://www.w3.org/1999/xlink" width="288pt" height="120pt" viewBox="0 0 288 120" xmlns="http://www.w3.org/2000/svg" version="1.1">
<desc id="nav-meta">{"window":"3m","count":4,"labels":["12.02","14.03","12.04","12.05"],"tick_utc":["2026-02-12T03:34:13Z","2026-03-14T03:15:02Z","2026-04-12T03:55:19Z","2026-05-12T04:26:58Z"],"w":720,"h":300}</desc>

 <metadata>
  <rdf:RDF xmlns:dc="http://purl.org/dc/elements/1.1/" xmlns:cc="http://creativecommons.org/ns#" xmlns:rdf="http://www.w3.org/1999/02/22-rdf-syntax-ns#">
   <cc:Work>
    <dc:type rdf:resource="http://purl.org/dc/dcmitype/StillImage"/>
    <dc:date>2026-05-12T15:32:27.523893</dc:date>
    <dc:format>image/svg+xml</dc:format>
    <dc:creator>
     <cc:Agent>
      <dc:title>Matplotlib v3.10.9, https://matplotlib.org/</dc:title>
     </cc:Agent>
    </dc:creator>
   </cc:Work>
  </rdf:RDF>
 </metadata>
 <defs>
  <style type="text/css">*{stroke-linejoin: round; stroke-linecap: butt}</style>
 </defs>
 <g id="figure_1">
  <g id="patch_1">
   <path d="M 0 120 
L 288 120 
L 288 0 
L 0 0 
L 0 120 
z
" style="fill: none; opacity: 0"/>
  </g>
  <g id="axes_1">
   <g id="patch_2">
    <path d="M 8.64 108 
L 279.36 108 
L 279.36 4.8 
L 8.64 4.8 
L 8.64 108 
z
" style="fill: none"/>
   </g>
   <g id="matplotlib.axis_1"/>
   <g id="matplotlib.axis_2"/>
   <g id="line2d_1">
    <path d="M 8.64 87.36 
L 279.36 87.36 
" clip-path="url(#pdaf35e65fb)" style="fill: none; stroke: #b2b2b2; stroke-opacity: 0.35; stroke-width: 0.5; stroke-linecap: square"/>
   </g>
   <g id="line2d_2">
    <path d="M 8.64 66.72 
L 279.36 66.72 
" clip-path="url(#pdaf35e65fb)" style="fill: none; stroke: #b2b2b2; stroke-opacity: 0.35; stroke-width: 0.5; stroke-linecap: square"/>
   </g>
   <g id="line2d_3">
    <path d="M 8.64 46.08 
L 279.36 46.08 
" clip-path="url(#pdaf35e65fb)" style="fill: none; stroke: #b2b2b2; stroke-opacity: 0.35; stroke-width: 0.5; stroke-linecap: square"/>
   </g>
   <g id="line2d_4">
    <path d="M 8.64 25.44 
L 279.36 25.44 
" clip-path="url(#pdaf35e65fb)" style="fill: none; stroke: #b2b2b2; stroke-opacity: 0.35; stroke-width: 0.5; stroke-linecap: square"/>
   </g>
   <g id="line2d_5">
    <path d="M 8.64 101.71512 
L 11.679631 101.84928 
L 14.683614 101.034 
L 17.563722 100.54896 
L 20.799299 101.04432 
L 23.457912 100.81728 
L 26.875571 101.034 
L 29.912422 101.4984 
L 32.935196 101.33328 
L 35.957162 101.1372 
L 39.032442 101.06496 
L 42.082138 102.09696 
L 44.865821 102.05568 
L 48.152286 101.4984 
L 51.179284 100.60056 
L 54.214058 100.80696 
L 57.21878 101.45712 
L 60.328407 100.55928 
L 63.337562 101.10624 
L 66.385182 100.8792 
L 69.408696 100.74504 
L 72.455788 100.21872 
L 75.494891 100.53864 
L 78.512105 101.07528 
L 81.582177 101.38488 
L 84.631838 101.26104 
L 87.652853 100.78632 
L 90.692203 100.91016 
L 93.744714 100.99272 
L 96.779384 100.38384 
L 99.815883 100.50768 
L 102.914601 100.60056 
L 105.963734 99.76464 
L 108.951071 99.49632 
L 112.014808 99.40344 
L 115.056199 100.09488 
L 118.067149 100.3632 
L 121.089888 100.19808 
L 124.175902 100.47672 
L 127.223592 100.79664 
L 130.235985 100.26 
L 133.502989 99.83688 
L 136.354064 100.13616 
L 139.398446 100.80696 
L 142.409925 101.38488 
L 145.491891 101.3436 
L 148.54113 101.292 
L 151.562497 101.28168 
L 154.62912 101.28168 
L 157.629618 101.8596 
L 160.673648 101.88024 
L 163.688153 101.72544 
L 166.774483 101.68416 
L 169.822877 101.47776 
L 172.843681 101.78736 
L 175.889154 101.09592 
L 178.919108 101.46744 
L 181.987632 101.3436 
L 184.98169 101.05464 
L 188.076783 101.3952 
L 191.132919 101.47776 
L 194.15411 100.86888 
L 197.192334 101.26104 
L 200.246042 100.99272 
L 203.280394 100.61088 
L 206.287403 100.44576 
L 209.368103 100.94112 
L 212.41618 101.09592 
L 215.443389 101.00304 
L 218.474504 100.69344 
L 221.527367 100.9308 
L 224.575972 100.92048 
L 227.580236 100.81728 
L 230.66808 100.8792 
L 233.741389 100.64184 
L 236.788305 101.1888 
L 239.820546 101.09592 
L 242.866195 101.37456 
L 245.939962 101.21976 
L 248.902911 101.20944 
L 252.005183 101.23008 
L 255.044674 100.92048 
L 258.018251 101.06496 
L 261.112359 100.70376 
L 264.153714 100.55928 
L 267.143655 100.53864 
L 270.195322 99.60984 
L 273.297137 99.72336 
L 276.361684 99.44472 
L 279.36 99.25896 
" clip-path="url(#pdaf35e65fb)" style="fill: none; stroke: #bebebe; stroke-width: 0.5; stroke-linecap: round"/>
   </g>
   <g id="line2d_6">
    <path d="M 8.64 90.456 
L 11.679631 90.56952 
L 14.683614 89.15568 
L 17.563722 88.9596 
L 20.799299 90.6624 
L 23.457912 89.94 
L 26.875571 90.00192 
L 29.912422 90.3528 
L 32.935196 90.62112 
L 35.957162 90.5076 
L 39.032442 90.3528 
L 42.082138 92.004 
L 44.865821 92.13816 
L 48.152286 91.25064 
L 51.179284 89.166 
L 54.214058 89.56848 
L 57.21878 90.93072 
L 60.328407 89.41368 
L 63.337562 90.37344 
L 66.385182 89.79552 
L 69.408696 90.23928 
L 72.455788 88.0824 
L 75.494891 88.7532 
L 78.512105 90.16704 
L 81.582177 90.67272 
L 84.631838 90.18768 
L 87.652853 89.2692 
L 90.692203 89.54784 
L 93.744714 89.49624 
L 96.779384 88.31976 
L 99.815883 88.45392 
L 102.914601 88.46424 
L 105.963734 86.38992 
L 108.951071 84.80064 
L 112.014808 84.8316 
L 115.056199 86.586 
L 118.067149 87.74184 
L 121.089888 87.618 
L 124.175902 88.19592 
L 127.223592 89.08344 
L 130.235985 87.89664 
L 133.502989 87.3084 
L 136.354064 87.65928 
L 139.398446 88.96992 
L 142.409925 90.07416 
L 145.491891 89.76456 
L 148.54113 89.3724 
L 151.562497 89.00088 
L 154.62912 88.42296 
L 157.629618 88.81512 
L 160.673648 89.10408 
L 163.688153 89.14536 
L 166.774483 89.07312 
L 169.822877 87.9792 
L 172.843681 88.29912 
L 175.889154 86.38992 
L 178.919108 87.24648 
L 181.987632 87.1536 
L 184.98169 86.21448 
L 188.076783 86.66856 
L 191.132919 87.01944 
L 194.15411 84.44976 
L 197.192334 85.05864 
L 200.246042 84.58392 
L 203.280394 85.04832 
L 206.287403 83.71704 
L 209.368103 84.86256 
L 212.41618 85.6572 
L 215.443389 85.27536 
L 218.474504 84.49104 
L 221.527367 84.86256 
L 224.575972 85.32696 
L 227.580236 85.17216 
L 230.66808 85.31664 
L 233.741389 84.11952 
L 236.788305 85.66752 
L 239.820546 85.26504 
L 242.866195 86.26608 
L 245.939962 85.77072 
L 248.902911 85.38888 
L 252.005183 85.3992 
L 255.044674 84.09888 
L 258.018251 84.22272 
L 261.112359 84.34656 
L 264.153714 85.06896 
L 267.143655 85.7604 
L 270.195322 85.0896 
L 273.297137 85.01736 
L 276.361684 84.9348 
L 279.36 85.296 
" clip-path="url(#pdaf35e65fb)" style="fill: none; stroke: #4a8dff; stroke-width: 0.6"/>
   </g>
   <g id="line2d_7">
    <path d="M 8.64 101.07528 
L 11.679631 101.26104 
L 14.683614 100.63152 
L 17.563722 100.38384 
L 20.799299 100.84824 
L 23.457912 100.65216 
L 26.875571 101.034 
L 29.912422 101.19912 
L 32.935196 101.10624 
L 35.957162 100.97208 
L 39.032442 100.91016 
L 42.082138 101.7564 
L 44.865821 101.84928 
L 48.152286 101.56032 
L 51.179284 100.85856 
L 54.214058 101.12688 
L 57.21878 101.4468 
L 60.328407 101.02368 
L 63.337562 101.30232 
L 66.385182 100.81728 
L 69.408696 100.79664 
L 72.455788 99.3312 
L 75.494891 99.92976 
L 78.512105 100.78632 
L 81.582177 101.17848 
L 84.631838 101.1372 
L 87.652853 100.21872 
L 90.692203 100.37352 
L 93.744714 100.4664 
L 96.779384 99.88848 
L 99.815883 99.94008 
L 102.914601 99.81624 
L 105.963734 98.93904 
L 108.951071 98.3508 
L 112.014808 98.52624 
L 115.056199 99.78528 
L 118.067149 100.12584 
L 121.089888 100.03296 
L 124.175902 100.45608 
L 127.223592 100.83792 
L 130.235985 100.11552 
L 133.502989 99.87816 
L 136.354064 100.002 
L 139.398446 100.64184 
L 142.409925 101.41584 
L 145.491891 101.21976 
L 148.54113 101.14752 
L 151.562497 101.00304 
L 154.62912 100.86888 
L 157.629618 101.21976 
L 160.673648 101.28168 
L 163.688153 101.20944 
L 166.774483 101.14752 
L 169.822877 100.55928 
L 172.843681 100.65216 
L 175.889154 99.80592 
L 178.919108 99.96072 
L 181.987632 99.6408 
L 184.98169 99.1764 
L 188.076783 99.70272 
L 191.132919 99.94008 
L 194.15411 98.57784 
L 197.192334 98.65008 
L 200.246042 98.38176 
L 203.280394 98.48496 
L 206.287403 96.70992 
L 209.368103 98.05152 
L 212.41618 98.48496 
L 215.443389 97.96896 
L 218.474504 96.32808 
L 221.527367 96.20424 
L 224.575972 96.16296 
L 227.580236 96.1836 
L 230.66808 96.50352 
L 233.741389 94.76976 
L 236.788305 97.19496 
L 239.820546 96.9576 
L 242.866195 97.9896 
L 245.939962 96.89568 
L 248.902911 95.45088 
L 252.005183 95.67792 
L 255.044674 93.43848 
L 258.018251 92.90184 
L 261.112359 92.25168 
L 264.153714 92.87088 
L 267.143655 94.2744 
L 270.195322 93.1392 
L 273.297137 92.97408 
L 276.361684 92.9844 
L 279.36 92.60256 
" clip-path="url(#pdaf35e65fb)" style="fill: none; stroke: #f5841e; stroke-width: 0.6"/>
   </g>
  </g>
 </g>
 <defs>
  <clipPath id="pdaf35e65fb">
   <rect x="8.64" y="4.8" width="270.72" height="103.2"/>
  </clipPath>
 </defs>
</svg>
