<?xml version="1.0" encoding="utf-8" standalone="no"?>
<!DOCTYPE svg PUBLIC "-//W3C//DTD SVG 1.1//EN"
  "http://www.w3.org/Graphics/SVG/1.1/DTD/svg11.dtd">
<svg xmlns:xlink="http://www.w3.org/1999/xlink" width="288pt" height="120pt" viewBox="0 0 288 120" xmlns="http://www.w3.org/2000/svg" version="1.1">
<desc id="nav-meta">{"window":"3m","count":4,"labels":["15.11","15.12","14.01","13.02"],"tick_utc":["2025-11-15T12:00:00Z","2025-12-15T12:00:00Z","2026-01-14T12:00:00Z","2026-02-13T03:33:47Z"],"w":720,"h":300}</desc>

 <metadata>
  <rdf:RDF xmlns:dc="http://purl.org/dc/elements/1.1/" xmlns:cc="http://creativecommons.org/ns#" xmlns:rdf="http://www.w3.org/1999/02/22-rdf-syntax-ns#">
   <cc:Work>
    <dc:type rdf:resource="http://purl.org/dc/dcmitype/StillImage"/>
    <dc:date>2026-02-13T03:33:49.465317</dc:date>
    <dc:format>image/svg+xml</dc:format>
    <dc:creator>
     <cc:Agent>
      <dc:title>Matplotlib v3.10.8, https://matplotlib.org/</dc:title>
     </cc:Agent>
    </dc:creator>
   </cc:Work>
  </rdf:RDF>
 </metadata>
 <defs>
  <style type="text/css">*{stroke-linejoin: round; stroke-linecap: butt}</style>
 </defs>
 <g id="figure_1">
  <g id="patch_1">
   <path d="M 0 120 
L 288 120 
L 288 0 
L 0 0 
L 0 120 
z
" style="fill: none; opacity: 0"/>
  </g>
  <g id="axes_1">
   <g id="patch_2">
    <path d="M 8.64 108 
L 279.36 108 
L 279.36 4.8 
L 8.64 4.8 
L 8.64 108 
z
" style="fill: none"/>
   </g>
   <g id="matplotlib.axis_1"/>
   <g id="matplotlib.axis_2"/>
   <g id="line2d_1">
    <path d="M 8.64 87.36 
L 279.36 87.36 
" clip-path="url(#pe4f2d1c81a)" style="fill: none; stroke: #b2b2b2; stroke-opacity: 0.35; stroke-width: 0.5; stroke-linecap: square"/>
   </g>
   <g id="line2d_2">
    <path d="M 8.64 66.72 
L 279.36 66.72 
" clip-path="url(#pe4f2d1c81a)" style="fill: none; stroke: #b2b2b2; stroke-opacity: 0.35; stroke-width: 0.5; stroke-linecap: square"/>
   </g>
   <g id="line2d_3">
    <path d="M 8.64 46.08 
L 279.36 46.08 
" clip-path="url(#pe4f2d1c81a)" style="fill: none; stroke: #b2b2b2; stroke-opacity: 0.35; stroke-width: 0.5; stroke-linecap: square"/>
   </g>
   <g id="line2d_4">
    <path d="M 8.64 25.44 
L 279.36 25.44 
" clip-path="url(#pe4f2d1c81a)" style="fill: none; stroke: #b2b2b2; stroke-opacity: 0.35; stroke-width: 0.5; stroke-linecap: square"/>
   </g>
   <g id="line2d_5">
    <path d="M 8.64 88.52616 
L 11.659795 88.36104 
L 14.679591 88.93896 
L 17.699386 90.79656 
L 20.719181 88.09272 
L 23.738976 89.22792 
L 26.758772 90.00192 
L 29.778567 91.39512 
L 32.798362 91.63248 
L 35.818158 90.75528 
L 38.837953 88.7016 
L 41.857748 88.52616 
L 44.877544 87.45288 
L 47.897339 88.0308 
L 50.917134 88.94928 
L 53.936929 89.3208 
L 56.956725 89.7336 
L 59.97652 91.86984 
L 62.996315 88.60872 
L 66.016111 86.87496 
L 69.035906 88.52616 
L 72.055701 90.11544 
L 75.075497 90.38376 
L 78.095292 90.53856 
L 81.115087 90.08448 
L 84.134882 88.79448 
L 87.154678 89.20728 
L 90.174473 89.22792 
L 93.194268 90.31152 
L 96.214064 90.10512 
L 99.233859 91.09584 
L 102.253654 91.61184 
L 105.27345 91.31256 
L 108.293245 92.87088 
L 111.31304 93.8616 
L 114.332835 92.02464 
L 117.352631 92.13816 
L 120.372426 92.07624 
L 123.392221 92.14848 
L 126.412017 92.64384 
L 129.431812 93.01536 
L 132.451607 93.69648 
L 135.471403 93.11856 
L 138.491198 92.44776 
L 141.510993 92.30328 
L 144.530788 92.87088 
L 147.550584 92.38584 
L 150.570379 92.47872 
L 153.590174 91.88016 
L 156.60997 90.42504 
L 159.629765 90.08448 
L 162.64956 89.92968 
L 165.669356 88.76352 
L 168.689151 87.94824 
L 171.708946 89.2692 
L 174.728741 88.72224 
L 177.748537 89.39304 
L 180.768332 89.40336 
L 183.788127 88.41264 
L 186.807923 88.4952 
L 189.827718 86.86464 
L 192.847513 86.42088 
L 195.867309 87.62832 
L 198.887104 86.93688 
L 201.906899 87.23616 
L 204.926694 88.63968 
L 207.94649 90.0432 
L 210.966285 92.12784 
L 213.98608 91.16808 
L 217.005876 91.46736 
L 220.025671 91.73568 
L 223.045466 91.78728 
L 226.065262 94.0164 
L 229.085057 92.5716 
L 232.104852 91.76664 
L 235.124647 92.33424 
L 238.144443 94.36728 
L 241.164238 94.46016 
L 244.184033 97.71096 
L 247.203829 98.48496 
L 250.223624 97.85544 
L 252.773009 99.10416 
L 255.172803 100.16712 
L 258.19106 102.23112 
L 261.197924 100.54896 
L 264.286748 100.70376 
L 267.281623 100.68312 
L 270.318649 100.95144 
L 273.332188 101.28168 
L 276.341113 101.71512 
L 279.36 101.84928 
" clip-path="url(#pe4f2d1c81a)" style="fill: none; stroke: #bebebe; stroke-width: 0.5; stroke-linecap: round"/>
   </g>
   <g id="line2d_6">
    <path d="M 8.64 73.48992 
L 11.659795 72.54048 
L 14.679591 73.56216 
L 17.699386 74.74896 
L 20.719181 73.3248 
L 23.738976 74.80056 
L 26.758772 77.556 
L 29.778567 78.55704 
L 32.798362 78.50544 
L 35.818158 78.04104 
L 38.837953 75.76032 
L 41.857748 75.73968 
L 44.877544 74.65608 
L 47.897339 74.83152 
L 50.917134 74.57352 
L 53.936929 75.20304 
L 56.956725 75.17208 
L 59.97652 78.05136 
L 62.996315 75.1308 
L 66.016111 72.16896 
L 69.035906 73.08744 
L 72.055701 74.72832 
L 75.075497 74.48064 
L 78.095292 74.28456 
L 81.115087 73.21128 
L 84.134882 70.2804 
L 87.154678 70.2288 
L 90.174473 71.56008 
L 93.194268 73.79952 
L 96.214064 73.35576 
L 99.233859 74.0988 
L 102.253654 75.5952 
L 105.27345 75.5952 
L 108.293245 77.61792 
L 111.31304 77.63856 
L 114.332835 75.40944 
L 117.352631 75.40944 
L 120.372426 75.04824 
L 123.392221 74.98632 
L 126.412017 75.58488 
L 129.431812 75.87384 
L 132.451607 76.49304 
L 135.471403 76.15248 
L 138.491198 75.82224 
L 141.510993 75.84288 
L 144.530788 76.03896 
L 147.550584 75.51264 
L 150.570379 75.56424 
L 153.590174 75.05856 
L 156.60997 73.26288 
L 159.629765 73.20096 
L 162.64956 73.00488 
L 165.669356 71.68392 
L 168.689151 70.6932 
L 171.708946 72.62304 
L 174.728741 73.52088 
L 177.748537 73.83048 
L 180.768332 73.8408 
L 183.788127 73.29384 
L 186.807923 73.72728 
L 189.827718 70.32168 
L 192.847513 69.77472 
L 195.867309 70.34232 
L 198.887104 70.67256 
L 201.906899 70.51776 
L 204.926694 70.848 
L 207.94649 72.31344 
L 210.966285 76.01832 
L 213.98608 75.41976 
L 217.005876 75.83256 
L 220.025671 75.79128 
L 223.045466 75.82224 
L 226.065262 77.82432 
L 229.085057 76.14216 
L 232.104852 74.75928 
L 235.124647 74.96568 
L 238.144443 77.75208 
L 241.164238 79.48584 
L 244.184033 83.31456 
L 247.203829 85.90488 
L 250.223624 84.79032 
L 252.773009 85.84296 
L 255.172803 88.25784 
L 258.19106 91.41576 
L 261.197924 88.7532 
L 264.286748 88.65 
L 267.281623 88.55712 
L 270.318649 88.96992 
L 273.332188 89.7336 
L 276.341113 90.456 
L 279.36 90.56952 
" clip-path="url(#pe4f2d1c81a)" style="fill: none; stroke: #4a8dff; stroke-width: 0.6"/>
   </g>
   <g id="line2d_7">
    <path d="M 8.64 78.846 
L 11.659795 77.75208 
L 14.679591 78.88728 
L 17.699386 81.34344 
L 20.719181 80.53848 
L 23.738976 82.0452 
L 26.758772 86.92656 
L 29.778567 88.58808 
L 32.798362 88.96992 
L 35.818158 86.7924 
L 38.837953 85.296 
L 41.857748 86.24544 
L 44.877544 82.96368 
L 47.897339 82.13808 
L 50.917134 82.47864 
L 53.936929 82.58184 
L 56.956725 83.03592 
L 59.97652 87.3084 
L 62.996315 82.06584 
L 66.016111 79.71288 
L 69.035906 81.24024 
L 72.055701 84.17112 
L 75.075497 84.24336 
L 78.095292 83.29392 
L 81.115087 82.8192 
L 84.134882 80.64168 
L 87.154678 81.38472 
L 90.174473 80.87904 
L 93.194268 83.13912 
L 96.214064 83.19072 
L 99.233859 85.296 
L 102.253654 87.17424 
L 105.27345 85.71912 
L 108.293245 87.53544 
L 111.31304 88.17528 
L 114.332835 85.41984 
L 117.352631 85.17216 
L 120.372426 84.9348 
L 123.392221 85.01736 
L 126.412017 86.14224 
L 129.431812 85.90488 
L 132.451607 86.328 
L 135.471403 86.24544 
L 138.491198 85.72944 
L 141.510993 85.7088 
L 144.530788 86.40024 
L 147.550584 85.09992 
L 150.570379 86.02872 
L 153.590174 84.78 
L 156.60997 83.53128 
L 159.629765 82.83984 
L 162.64956 82.03488 
L 165.669356 79.39296 
L 168.689151 79.66128 
L 171.708946 82.15872 
L 174.728741 82.43736 
L 177.748537 82.93272 
L 180.768332 83.00496 
L 183.788127 82.6128 
L 186.807923 82.28256 
L 189.827718 78.01008 
L 192.847513 76.19376 
L 195.867309 77.66952 
L 198.887104 77.74176 
L 201.906899 78.1752 
L 204.926694 79.5684 
L 207.94649 80.8068 
L 210.966285 85.20312 
L 213.98608 84.12984 
L 217.005876 84.03696 
L 220.025671 84.06792 
L 223.045466 84.3156 
L 226.065262 87.02976 
L 229.085057 85.21344 
L 232.104852 84.28464 
L 235.124647 84.32592 
L 238.144443 89.08344 
L 241.164238 89.5272 
L 244.184033 95.14128 
L 247.203829 96.98856 
L 250.223624 95.08968 
L 252.773009 97.71096 
L 255.172803 99.80592 
L 258.19106 101.79768 
L 261.197924 100.03296 
L 264.286748 100.518 
L 267.281623 99.98136 
L 270.318649 100.49736 
L 273.332188 100.78632 
L 276.341113 101.07528 
L 279.36 101.26104 
" clip-path="url(#pe4f2d1c81a)" style="fill: none; stroke: #f5841e; stroke-width: 0.6"/>
   </g>
  </g>
 </g>
 <defs>
  <clipPath id="pe4f2d1c81a">
   <rect x="8.64" y="4.8" width="270.72" height="103.2"/>
  </clipPath>
 </defs>
</svg>
