<?xml version="1.0" encoding="utf-8" standalone="no"?>
<!DOCTYPE svg PUBLIC "-//W3C//DTD SVG 1.1//EN"
  "http://www.w3.org/Graphics/SVG/1.1/DTD/svg11.dtd">
<svg xmlns:xlink="http://www.w3.org/1999/xlink" width="288pt" height="120pt" viewBox="0 0 288 120" xmlns="http://www.w3.org/2000/svg" version="1.1">
<desc id="nav-meta">{"window":"3m","count":4,"labels":["19.11","19.12","17.01","16.02"],"tick_utc":["2025-11-19T12:00:00Z","2025-12-19T12:00:00Z","2026-01-17T12:00:00Z","2026-02-16T03:32:51Z"],"w":720,"h":300}</desc>

 <metadata>
  <rdf:RDF xmlns:dc="http://purl.org/dc/elements/1.1/" xmlns:cc="http://creativecommons.org/ns#" xmlns:rdf="http://www.w3.org/1999/02/22-rdf-syntax-ns#">
   <cc:Work>
    <dc:type rdf:resource="http://purl.org/dc/dcmitype/StillImage"/>
    <dc:date>2026-02-16T19:21:25.572660</dc:date>
    <dc:format>image/svg+xml</dc:format>
    <dc:creator>
     <cc:Agent>
      <dc:title>Matplotlib v3.10.8, https://matplotlib.org/</dc:title>
     </cc:Agent>
    </dc:creator>
   </cc:Work>
  </rdf:RDF>
 </metadata>
 <defs>
  <style type="text/css">*{stroke-linejoin: round; stroke-linecap: butt}</style>
 </defs>
 <g id="figure_1">
  <g id="patch_1">
   <path d="M 0 120 
L 288 120 
L 288 0 
L 0 0 
L 0 120 
z
" style="fill: none; opacity: 0"/>
  </g>
  <g id="axes_1">
   <g id="patch_2">
    <path d="M 8.64 108 
L 279.36 108 
L 279.36 4.8 
L 8.64 4.8 
L 8.64 108 
z
" style="fill: none"/>
   </g>
   <g id="matplotlib.axis_1"/>
   <g id="matplotlib.axis_2"/>
   <g id="line2d_1">
    <path d="M 8.64 87.36 
L 279.36 87.36 
" clip-path="url(#p02e26dd7a3)" style="fill: none; stroke: #b2b2b2; stroke-opacity: 0.35; stroke-width: 0.5; stroke-linecap: square"/>
   </g>
   <g id="line2d_2">
    <path d="M 8.64 66.72 
L 279.36 66.72 
" clip-path="url(#p02e26dd7a3)" style="fill: none; stroke: #b2b2b2; stroke-opacity: 0.35; stroke-width: 0.5; stroke-linecap: square"/>
   </g>
   <g id="line2d_3">
    <path d="M 8.64 46.08 
L 279.36 46.08 
" clip-path="url(#p02e26dd7a3)" style="fill: none; stroke: #b2b2b2; stroke-opacity: 0.35; stroke-width: 0.5; stroke-linecap: square"/>
   </g>
   <g id="line2d_4">
    <path d="M 8.64 25.44 
L 279.36 25.44 
" clip-path="url(#p02e26dd7a3)" style="fill: none; stroke: #b2b2b2; stroke-opacity: 0.35; stroke-width: 0.5; stroke-linecap: square"/>
   </g>
   <g id="line2d_5">
    <path d="M 8.64 88.09272 
L 11.693882 89.22792 
L 14.747765 90.00192 
L 17.801647 91.39512 
L 20.85553 91.63248 
L 23.909412 90.75528 
L 26.963295 88.7016 
L 30.017177 88.52616 
L 33.07106 87.45288 
L 36.124942 88.0308 
L 39.178825 88.94928 
L 42.232707 89.3208 
L 45.28659 89.7336 
L 48.340472 91.86984 
L 51.394354 88.60872 
L 54.448237 86.87496 
L 57.502119 88.52616 
L 60.556002 90.11544 
L 63.609884 90.38376 
L 66.663767 90.53856 
L 69.717649 90.08448 
L 72.771532 88.79448 
L 75.825414 89.20728 
L 78.879297 89.22792 
L 81.933179 90.31152 
L 84.987062 90.10512 
L 88.040944 91.09584 
L 91.094827 91.61184 
L 94.148709 91.31256 
L 97.202591 92.87088 
L 100.256474 93.8616 
L 103.310356 92.02464 
L 106.364239 92.13816 
L 109.418121 92.07624 
L 112.472004 92.14848 
L 115.525886 92.64384 
L 118.579769 93.01536 
L 121.633651 93.69648 
L 124.687534 93.11856 
L 127.741416 92.44776 
L 130.795299 92.30328 
L 133.849181 92.87088 
L 136.903063 92.38584 
L 139.956946 92.47872 
L 143.010828 91.88016 
L 146.064711 90.42504 
L 149.118593 90.08448 
L 152.172476 89.92968 
L 155.226358 88.76352 
L 158.280241 87.94824 
L 161.334123 89.2692 
L 164.388006 88.72224 
L 167.441888 89.39304 
L 170.495771 89.40336 
L 173.549653 88.41264 
L 176.603535 88.4952 
L 179.657418 86.86464 
L 182.7113 86.42088 
L 185.765183 87.62832 
L 188.819065 86.93688 
L 191.872948 87.23616 
L 194.92683 88.63968 
L 197.980713 90.0432 
L 201.034595 92.12784 
L 204.088478 91.16808 
L 207.14236 91.46736 
L 210.196243 91.73568 
L 213.250125 91.78728 
L 216.304008 94.0164 
L 219.35789 92.5716 
L 222.411772 91.76664 
L 225.465655 92.33424 
L 228.519537 94.36728 
L 231.57342 94.46016 
L 234.627302 97.71096 
L 237.681185 98.48496 
L 240.735067 97.85544 
L 243.31323 99.10416 
L 245.740112 100.16712 
L 248.792439 102.23112 
L 251.833244 100.54896 
L 254.956934 100.70376 
L 257.985615 100.68312 
L 261.056923 100.95144 
L 264.104479 101.28168 
L 267.147369 101.71512 
L 270.200332 101.84928 
L 273.21749 101.034 
L 276.110231 100.54896 
L 279.36 101.04432 
" clip-path="url(#p02e26dd7a3)" style="fill: none; stroke: #bebebe; stroke-width: 0.5; stroke-linecap: round"/>
   </g>
   <g id="line2d_6">
    <path d="M 8.64 73.3248 
L 11.693882 74.80056 
L 14.747765 77.556 
L 17.801647 78.55704 
L 20.85553 78.50544 
L 23.909412 78.04104 
L 26.963295 75.76032 
L 30.017177 75.73968 
L 33.07106 74.65608 
L 36.124942 74.83152 
L 39.178825 74.57352 
L 42.232707 75.20304 
L 45.28659 75.17208 
L 48.340472 78.05136 
L 51.394354 75.1308 
L 54.448237 72.16896 
L 57.502119 73.08744 
L 60.556002 74.72832 
L 63.609884 74.48064 
L 66.663767 74.28456 
L 69.717649 73.21128 
L 72.771532 70.2804 
L 75.825414 70.2288 
L 78.879297 71.56008 
L 81.933179 73.79952 
L 84.987062 73.35576 
L 88.040944 74.0988 
L 91.094827 75.5952 
L 94.148709 75.5952 
L 97.202591 77.61792 
L 100.256474 77.63856 
L 103.310356 75.40944 
L 106.364239 75.40944 
L 109.418121 75.04824 
L 112.472004 74.98632 
L 115.525886 75.58488 
L 118.579769 75.87384 
L 121.633651 76.49304 
L 124.687534 76.15248 
L 127.741416 75.82224 
L 130.795299 75.84288 
L 133.849181 76.03896 
L 136.903063 75.51264 
L 139.956946 75.56424 
L 143.010828 75.05856 
L 146.064711 73.26288 
L 149.118593 73.20096 
L 152.172476 73.00488 
L 155.226358 71.68392 
L 158.280241 70.6932 
L 161.334123 72.62304 
L 164.388006 73.52088 
L 167.441888 73.83048 
L 170.495771 73.8408 
L 173.549653 73.29384 
L 176.603535 73.72728 
L 179.657418 70.32168 
L 182.7113 69.77472 
L 185.765183 70.34232 
L 188.819065 70.67256 
L 191.872948 70.51776 
L 194.92683 70.848 
L 197.980713 72.31344 
L 201.034595 76.01832 
L 204.088478 75.41976 
L 207.14236 75.83256 
L 210.196243 75.79128 
L 213.250125 75.82224 
L 216.304008 77.82432 
L 219.35789 76.14216 
L 222.411772 74.75928 
L 225.465655 74.96568 
L 228.519537 77.75208 
L 231.57342 79.48584 
L 234.627302 83.31456 
L 237.681185 85.90488 
L 240.735067 84.79032 
L 243.31323 85.84296 
L 245.740112 88.25784 
L 248.792439 91.41576 
L 251.833244 88.7532 
L 254.956934 88.65 
L 257.985615 88.55712 
L 261.056923 88.96992 
L 264.104479 89.7336 
L 267.147369 90.456 
L 270.200332 90.56952 
L 273.21749 89.15568 
L 276.110231 88.9596 
L 279.36 90.6624 
" clip-path="url(#p02e26dd7a3)" style="fill: none; stroke: #4a8dff; stroke-width: 0.6"/>
   </g>
   <g id="line2d_7">
    <path d="M 8.64 80.53848 
L 11.693882 82.0452 
L 14.747765 86.92656 
L 17.801647 88.58808 
L 20.85553 88.96992 
L 23.909412 86.7924 
L 26.963295 85.296 
L 30.017177 86.24544 
L 33.07106 82.96368 
L 36.124942 82.13808 
L 39.178825 82.47864 
L 42.232707 82.58184 
L 45.28659 83.03592 
L 48.340472 87.3084 
L 51.394354 82.06584 
L 54.448237 79.71288 
L 57.502119 81.24024 
L 60.556002 84.17112 
L 63.609884 84.24336 
L 66.663767 83.29392 
L 69.717649 82.8192 
L 72.771532 80.64168 
L 75.825414 81.38472 
L 78.879297 80.87904 
L 81.933179 83.13912 
L 84.987062 83.19072 
L 88.040944 85.296 
L 91.094827 87.17424 
L 94.148709 85.71912 
L 97.202591 87.53544 
L 100.256474 88.17528 
L 103.310356 85.41984 
L 106.364239 85.17216 
L 109.418121 84.9348 
L 112.472004 85.01736 
L 115.525886 86.14224 
L 118.579769 85.90488 
L 121.633651 86.328 
L 124.687534 86.24544 
L 127.741416 85.72944 
L 130.795299 85.7088 
L 133.849181 86.40024 
L 136.903063 85.09992 
L 139.956946 86.02872 
L 143.010828 84.78 
L 146.064711 83.53128 
L 149.118593 82.83984 
L 152.172476 82.03488 
L 155.226358 79.39296 
L 158.280241 79.66128 
L 161.334123 82.15872 
L 164.388006 82.43736 
L 167.441888 82.93272 
L 170.495771 83.00496 
L 173.549653 82.6128 
L 176.603535 82.28256 
L 179.657418 78.01008 
L 182.7113 76.19376 
L 185.765183 77.66952 
L 188.819065 77.74176 
L 191.872948 78.1752 
L 194.92683 79.5684 
L 197.980713 80.8068 
L 201.034595 85.20312 
L 204.088478 84.12984 
L 207.14236 84.03696 
L 210.196243 84.06792 
L 213.250125 84.3156 
L 216.304008 87.02976 
L 219.35789 85.21344 
L 222.411772 84.28464 
L 225.465655 84.32592 
L 228.519537 89.08344 
L 231.57342 89.5272 
L 234.627302 95.14128 
L 237.681185 96.98856 
L 240.735067 95.08968 
L 243.31323 97.71096 
L 245.740112 99.80592 
L 248.792439 101.79768 
L 251.833244 100.03296 
L 254.956934 100.518 
L 257.985615 99.98136 
L 261.056923 100.49736 
L 264.104479 100.78632 
L 267.147369 101.07528 
L 270.200332 101.26104 
L 273.21749 100.63152 
L 276.110231 100.38384 
L 279.36 100.84824 
" clip-path="url(#p02e26dd7a3)" style="fill: none; stroke: #f5841e; stroke-width: 0.6"/>
   </g>
  </g>
 </g>
 <defs>
  <clipPath id="p02e26dd7a3">
   <rect x="8.64" y="4.8" width="270.72" height="103.2"/>
  </clipPath>
 </defs>
</svg>
