<?xml version="1.0" encoding="utf-8" standalone="no"?>
<!DOCTYPE svg PUBLIC "-//W3C//DTD SVG 1.1//EN"
  "http://www.w3.org/Graphics/SVG/1.1/DTD/svg11.dtd">
<svg xmlns:xlink="http://www.w3.org/1999/xlink" width="288pt" height="120pt" viewBox="0 0 288 120" xmlns="http://www.w3.org/2000/svg" version="1.1">
<desc id="nav-meta">{"window":"1m","count":4,"labels":["22.01","01.02","10.02","20.02"],"tick_utc":["2026-01-22T12:00:00Z","2026-02-01T12:00:00Z","2026-02-10T03:42:23Z","2026-02-20T03:20:24Z"],"w":720,"h":300}</desc>

 <metadata>
  <rdf:RDF xmlns:dc="http://purl.org/dc/elements/1.1/" xmlns:cc="http://creativecommons.org/ns#" xmlns:rdf="http://www.w3.org/1999/02/22-rdf-syntax-ns#">
   <cc:Work>
    <dc:type rdf:resource="http://purl.org/dc/dcmitype/StillImage"/>
    <dc:date>2026-02-20T19:25:33.043889</dc:date>
    <dc:format>image/svg+xml</dc:format>
    <dc:creator>
     <cc:Agent>
      <dc:title>Matplotlib v3.10.8, https://matplotlib.org/</dc:title>
     </cc:Agent>
    </dc:creator>
   </cc:Work>
  </rdf:RDF>
 </metadata>
 <defs>
  <style type="text/css">*{stroke-linejoin: round; stroke-linecap: butt}</style>
 </defs>
 <g id="figure_1">
  <g id="patch_1">
   <path d="M 0 120 
L 288 120 
L 288 0 
L 0 0 
L 0 120 
z
" style="fill: none; opacity: 0"/>
  </g>
  <g id="axes_1">
   <g id="patch_2">
    <path d="M 8.64 108 
L 279.36 108 
L 279.36 4.8 
L 8.64 4.8 
L 8.64 108 
z
" style="fill: none"/>
   </g>
   <g id="matplotlib.axis_1"/>
   <g id="matplotlib.axis_2"/>
   <g id="line2d_1">
    <path d="M 8.64 87.36 
L 279.36 87.36 
" clip-path="url(#p8dbf7b6dd0)" style="fill: none; stroke: #b2b2b2; stroke-opacity: 0.35; stroke-width: 0.5; stroke-linecap: square"/>
   </g>
   <g id="line2d_2">
    <path d="M 8.64 66.72 
L 279.36 66.72 
" clip-path="url(#p8dbf7b6dd0)" style="fill: none; stroke: #b2b2b2; stroke-opacity: 0.35; stroke-width: 0.5; stroke-linecap: square"/>
   </g>
   <g id="line2d_3">
    <path d="M 8.64 46.08 
L 279.36 46.08 
" clip-path="url(#p8dbf7b6dd0)" style="fill: none; stroke: #b2b2b2; stroke-opacity: 0.35; stroke-width: 0.5; stroke-linecap: square"/>
   </g>
   <g id="line2d_4">
    <path d="M 8.64 25.44 
L 279.36 25.44 
" clip-path="url(#p8dbf7b6dd0)" style="fill: none; stroke: #b2b2b2; stroke-opacity: 0.35; stroke-width: 0.5; stroke-linecap: square"/>
   </g>
   <g id="line2d_5">
    <path d="M 8.64 91.16808 
L 18.092789 91.46736 
L 27.545578 91.73568 
L 36.998367 91.78728 
L 46.451156 94.0164 
L 55.903945 92.5716 
L 65.356734 91.76664 
L 74.809523 92.33424 
L 84.262312 94.36728 
L 93.715101 94.46016 
L 103.16789 97.71096 
L 112.620679 98.48496 
L 122.073468 97.85544 
L 130.053745 99.10416 
L 137.565758 100.16712 
L 147.013733 102.23112 
L 156.426041 100.54896 
L 166.09491 100.70376 
L 175.469691 100.68312 
L 184.976418 100.95144 
L 194.409623 101.28168 
L 203.828387 101.71512 
L 213.278331 101.84928 
L 222.617446 101.034 
L 231.571447 100.54896 
L 241.630571 101.04432 
L 249.895963 100.81728 
L 260.52116 101.034 
L 269.962462 101.4984 
L 279.36 101.33328 
" clip-path="url(#p8dbf7b6dd0)" style="fill: none; stroke: #bebebe; stroke-width: 0.5; stroke-linecap: round"/>
   </g>
   <g id="line2d_6">
    <path d="M 8.64 75.41976 
L 18.092789 75.83256 
L 27.545578 75.79128 
L 36.998367 75.82224 
L 46.451156 77.82432 
L 55.903945 76.14216 
L 65.356734 74.75928 
L 74.809523 74.96568 
L 84.262312 77.75208 
L 93.715101 79.48584 
L 103.16789 83.31456 
L 112.620679 85.90488 
L 122.073468 84.79032 
L 130.053745 85.84296 
L 137.565758 88.25784 
L 147.013733 91.41576 
L 156.426041 88.7532 
L 166.09491 88.65 
L 175.469691 88.55712 
L 184.976418 88.96992 
L 194.409623 89.7336 
L 203.828387 90.456 
L 213.278331 90.56952 
L 222.617446 89.15568 
L 231.571447 88.9596 
L 241.630571 90.6624 
L 249.895963 89.94 
L 260.52116 90.00192 
L 269.962462 90.3528 
L 279.36 90.62112 
" clip-path="url(#p8dbf7b6dd0)" style="fill: none; stroke: #4a8dff; stroke-width: 0.6"/>
   </g>
   <g id="line2d_7">
    <path d="M 8.64 84.12984 
L 18.092789 84.03696 
L 27.545578 84.06792 
L 36.998367 84.3156 
L 46.451156 87.02976 
L 55.903945 85.21344 
L 65.356734 84.28464 
L 74.809523 84.32592 
L 84.262312 89.08344 
L 93.715101 89.5272 
L 103.16789 95.14128 
L 112.620679 96.98856 
L 122.073468 95.08968 
L 130.053745 97.71096 
L 137.565758 99.80592 
L 147.013733 101.79768 
L 156.426041 100.03296 
L 166.09491 100.518 
L 175.469691 99.98136 
L 184.976418 100.49736 
L 194.409623 100.78632 
L 203.828387 101.07528 
L 213.278331 101.26104 
L 222.617446 100.63152 
L 231.571447 100.38384 
L 241.630571 100.84824 
L 249.895963 100.65216 
L 260.52116 101.034 
L 269.962462 101.19912 
L 279.36 101.10624 
" clip-path="url(#p8dbf7b6dd0)" style="fill: none; stroke: #f5841e; stroke-width: 0.6"/>
   </g>
  </g>
 </g>
 <defs>
  <clipPath id="p8dbf7b6dd0">
   <rect x="8.64" y="4.8" width="270.72" height="103.2"/>
  </clipPath>
 </defs>
</svg>
