<?xml version="1.0" encoding="utf-8" standalone="no"?>
<!DOCTYPE svg PUBLIC "-//W3C//DTD SVG 1.1//EN"
  "http://www.w3.org/Graphics/SVG/1.1/DTD/svg11.dtd">
<svg xmlns:xlink="http://www.w3.org/1999/xlink" width="288pt" height="120pt" viewBox="0 0 288 120" xmlns="http://www.w3.org/2000/svg" version="1.1">
<desc id="nav-meta">{"window":"1m","count":4,"labels":["09.01","19.01","28.01","07.02"],"tick_utc":["2026-01-09T12:00:00Z","2026-01-19T12:00:00Z","2026-01-28T12:00:00Z","2026-02-07T03:13:08Z"],"w":720,"h":300}</desc>

 <metadata>
  <rdf:RDF xmlns:dc="http://purl.org/dc/elements/1.1/" xmlns:cc="http://creativecommons.org/ns#" xmlns:rdf="http://www.w3.org/1999/02/22-rdf-syntax-ns#">
   <cc:Work>
    <dc:type rdf:resource="http://purl.org/dc/dcmitype/StillImage"/>
    <dc:date>2026-02-07T14:06:28.437336</dc:date>
    <dc:format>image/svg+xml</dc:format>
    <dc:creator>
     <cc:Agent>
      <dc:title>Matplotlib v3.10.8, https://matplotlib.org/</dc:title>
     </cc:Agent>
    </dc:creator>
   </cc:Work>
  </rdf:RDF>
 </metadata>
 <defs>
  <style type="text/css">*{stroke-linejoin: round; stroke-linecap: butt}</style>
 </defs>
 <g id="figure_1">
  <g id="patch_1">
   <path d="M 0 120 
L 288 120 
L 288 0 
L 0 0 
L 0 120 
z
" style="fill: none; opacity: 0"/>
  </g>
  <g id="axes_1">
   <g id="patch_2">
    <path d="M 8.64 108 
L 279.36 108 
L 279.36 4.8 
L 8.64 4.8 
L 8.64 108 
z
" style="fill: none"/>
   </g>
   <g id="matplotlib.axis_1"/>
   <g id="matplotlib.axis_2"/>
   <g id="line2d_1">
    <path d="M 8.64 87.36 
L 279.36 87.36 
" clip-path="url(#p84a8cdb378)" style="fill: none; stroke: #b2b2b2; stroke-opacity: 0.35; stroke-width: 0.5; stroke-linecap: square"/>
   </g>
   <g id="line2d_2">
    <path d="M 8.64 66.72 
L 279.36 66.72 
" clip-path="url(#p84a8cdb378)" style="fill: none; stroke: #b2b2b2; stroke-opacity: 0.35; stroke-width: 0.5; stroke-linecap: square"/>
   </g>
   <g id="line2d_3">
    <path d="M 8.64 46.08 
L 279.36 46.08 
" clip-path="url(#p84a8cdb378)" style="fill: none; stroke: #b2b2b2; stroke-opacity: 0.35; stroke-width: 0.5; stroke-linecap: square"/>
   </g>
   <g id="line2d_4">
    <path d="M 8.64 25.44 
L 279.36 25.44 
" clip-path="url(#p84a8cdb378)" style="fill: none; stroke: #b2b2b2; stroke-opacity: 0.35; stroke-width: 0.5; stroke-linecap: square"/>
   </g>
   <g id="line2d_5">
    <path d="M 8.64 88.72224 
L 18.094455 89.39304 
L 27.54891 89.40336 
L 37.003365 88.41264 
L 46.45782 88.4952 
L 55.912275 86.86464 
L 65.366729 86.42088 
L 74.821184 87.62832 
L 84.275639 86.93688 
L 93.730094 87.23616 
L 103.184549 88.63968 
L 112.639004 90.0432 
L 122.093459 92.12784 
L 131.547914 91.16808 
L 141.002369 91.46736 
L 150.456824 91.73568 
L 159.911279 91.78728 
L 169.365734 94.0164 
L 178.820188 92.5716 
L 188.274643 91.76664 
L 197.729098 92.33424 
L 207.183553 94.36728 
L 216.638008 94.46016 
L 226.092463 97.71096 
L 235.546918 98.48496 
L 245.001373 97.85544 
L 252.983056 99.10416 
L 260.496393 100.16712 
L 269.946033 102.23112 
L 279.36 100.54896 
" clip-path="url(#p84a8cdb378)" style="fill: none; stroke: #bebebe; stroke-width: 0.5; stroke-linecap: round"/>
   </g>
   <g id="line2d_6">
    <path d="M 8.64 73.52088 
L 18.094455 73.83048 
L 27.54891 73.8408 
L 37.003365 73.29384 
L 46.45782 73.72728 
L 55.912275 70.32168 
L 65.366729 69.77472 
L 74.821184 70.34232 
L 84.275639 70.67256 
L 93.730094 70.51776 
L 103.184549 70.848 
L 112.639004 72.31344 
L 122.093459 76.01832 
L 131.547914 75.41976 
L 141.002369 75.83256 
L 150.456824 75.79128 
L 159.911279 75.82224 
L 169.365734 77.82432 
L 178.820188 76.14216 
L 188.274643 74.75928 
L 197.729098 74.96568 
L 207.183553 77.75208 
L 216.638008 79.48584 
L 226.092463 83.31456 
L 235.546918 85.90488 
L 245.001373 84.79032 
L 252.983056 85.84296 
L 260.496393 88.25784 
L 269.946033 91.41576 
L 279.36 88.7532 
" clip-path="url(#p84a8cdb378)" style="fill: none; stroke: #4a8dff; stroke-width: 0.6"/>
   </g>
   <g id="line2d_7">
    <path d="M 8.64 82.43736 
L 18.094455 82.93272 
L 27.54891 83.00496 
L 37.003365 82.6128 
L 46.45782 82.28256 
L 55.912275 78.01008 
L 65.366729 76.19376 
L 74.821184 77.66952 
L 84.275639 77.74176 
L 93.730094 78.1752 
L 103.184549 79.5684 
L 112.639004 80.8068 
L 122.093459 85.20312 
L 131.547914 84.12984 
L 141.002369 84.03696 
L 150.456824 84.06792 
L 159.911279 84.3156 
L 169.365734 87.02976 
L 178.820188 85.21344 
L 188.274643 84.28464 
L 197.729098 84.32592 
L 207.183553 89.08344 
L 216.638008 89.5272 
L 226.092463 95.14128 
L 235.546918 96.98856 
L 245.001373 95.08968 
L 252.983056 97.71096 
L 260.496393 99.80592 
L 269.946033 101.79768 
L 279.36 100.03296 
" clip-path="url(#p84a8cdb378)" style="fill: none; stroke: #f5841e; stroke-width: 0.6"/>
   </g>
  </g>
 </g>
 <defs>
  <clipPath id="p84a8cdb378">
   <rect x="8.64" y="4.8" width="270.72" height="103.2"/>
  </clipPath>
 </defs>
</svg>
