<?xml version="1.0" encoding="utf-8" standalone="no"?>
<!DOCTYPE svg PUBLIC "-//W3C//DTD SVG 1.1//EN"
  "http://www.w3.org/Graphics/SVG/1.1/DTD/svg11.dtd">
<svg xmlns:xlink="http://www.w3.org/1999/xlink" width="288pt" height="120pt" viewBox="0 0 288 120" xmlns="http://www.w3.org/2000/svg" version="1.1">
<desc id="nav-meta">{"window":"1m","count":4,"labels":["10.06","20.06","29.06","09.07"],"tick_utc":["2026-06-10T05:05:46Z","2026-06-20T04:59:26Z","2026-06-29T05:17:50Z","2026-07-09T04:41:51Z"],"w":720,"h":300}</desc>

 <metadata>
  <rdf:RDF xmlns:dc="http://purl.org/dc/elements/1.1/" xmlns:cc="http://creativecommons.org/ns#" xmlns:rdf="http://www.w3.org/1999/02/22-rdf-syntax-ns#">
   <cc:Work>
    <dc:type rdf:resource="http://purl.org/dc/dcmitype/StillImage"/>
    <dc:date>2026-07-09T15:45:35.293619</dc:date>
    <dc:format>image/svg+xml</dc:format>
    <dc:creator>
     <cc:Agent>
      <dc:title>Matplotlib v3.11.0, https://matplotlib.org/</dc:title>
     </cc:Agent>
    </dc:creator>
   </cc:Work>
  </rdf:RDF>
 </metadata>
 <defs>
  <style type="text/css">*{stroke-linejoin: round; stroke-linecap: butt}</style>
 </defs>
 <g id="figure_1">
  <g id="patch_1">
   <path d="M 0 120 
L 288 120 
L 288 0 
L 0 0 
L 0 120 
z
" style="fill: none; opacity: 0"/>
  </g>
  <g id="axes_1">
   <g id="patch_2">
    <path d="M 8.64 108 
L 279.36 108 
L 279.36 4.8 
L 8.64 4.8 
L 8.64 108 
z
" style="fill: none"/>
   </g>
   <g id="matplotlib.axis_1"/>
   <g id="matplotlib.axis_2"/>
   <g id="line2d_1">
    <path d="M 8.64 87.36 
L 279.36 87.36 
" clip-path="url(#p286c1499f6)" style="fill: none; stroke: #b2b2b2; stroke-opacity: 0.35; stroke-width: 0.5; stroke-linecap: square"/>
   </g>
   <g id="line2d_2">
    <path d="M 8.64 66.72 
L 279.36 66.72 
" clip-path="url(#p286c1499f6)" style="fill: none; stroke: #b2b2b2; stroke-opacity: 0.35; stroke-width: 0.5; stroke-linecap: square"/>
   </g>
   <g id="line2d_3">
    <path d="M 8.64 46.08 
L 279.36 46.08 
" clip-path="url(#p286c1499f6)" style="fill: none; stroke: #b2b2b2; stroke-opacity: 0.35; stroke-width: 0.5; stroke-linecap: square"/>
   </g>
   <g id="line2d_4">
    <path d="M 8.64 25.44 
L 279.36 25.44 
" clip-path="url(#p286c1499f6)" style="fill: none; stroke: #b2b2b2; stroke-opacity: 0.35; stroke-width: 0.5; stroke-linecap: square"/>
   </g>
   <g id="line2d_5">
    <path d="M 8.64 103.81008 
L 18.035333 103.72752 
L 27.412503 103.50048 
L 36.684701 103.5108 
L 46.093006 103.31472 
L 55.744014 102.95352 
L 65.137833 102.61296 
L 74.180842 102.6336 
L 83.476607 102.9948 
L 93.037129 103.28376 
L 102.004138 103.01544 
L 111.539038 102.69552 
L 121.152965 102.582 
L 129.935109 102.88128 
L 139.309036 103.15992 
L 148.647072 103.36632 
L 158.035485 103.36632 
L 167.261521 102.81936 
L 176.780097 103.0464 
L 186.188186 102.9432 
L 195.347627 102.59232 
L 204.824797 102.40656 
L 214.001752 102.02472 
L 223.240653 101.68416 
L 232.540958 101.3436 
L 242.018237 101.6532 
L 251.449245 101.6532 
L 260.649659 101.63256 
L 269.736344 101.95248 
L 279.36 102.08664 
" clip-path="url(#p286c1499f6)" style="fill: none; stroke: #bebebe; stroke-width: 0.5; stroke-linecap: round"/>
   </g>
   <g id="line2d_6">
    <path d="M 8.64 95.47152 
L 18.035333 95.11032 
L 27.412503 94.82136 
L 36.684701 94.8936 
L 46.093006 94.70784 
L 55.744014 94.04736 
L 65.137833 93.40752 
L 74.180842 92.9844 
L 83.476607 93.93384 
L 93.037129 94.4292 
L 102.004138 94.19184 
L 111.539038 93.87192 
L 121.152965 93.81 
L 129.935109 94.03704 
L 139.309036 94.83168 
L 148.647072 95.48184 
L 158.035485 96.63768 
L 167.261521 96.14232 
L 176.780097 96.30744 
L 186.188186 96.29712 
L 195.347627 96.04944 
L 204.824797 95.9256 
L 214.001752 95.39928 
L 223.240653 94.31568 
L 232.540958 93.57264 
L 242.018237 93.32496 
L 251.449245 93.22176 
L 260.649659 93.35592 
L 269.736344 93.61392 
L 279.36 93.77904 
" clip-path="url(#p286c1499f6)" style="fill: none; stroke: #4a8dff; stroke-width: 0.6"/>
   </g>
   <g id="line2d_7">
    <path d="M 8.64 102.582 
L 18.035333 102.29304 
L 27.412503 102.08664 
L 36.684701 102.066 
L 46.093006 101.86992 
L 55.744014 101.48808 
L 65.137833 101.40552 
L 74.180842 101.4984 
L 83.476607 101.97312 
L 93.037129 102.26208 
L 102.004138 102.066 
L 111.539038 101.90088 
L 121.152965 101.90088 
L 129.935109 102.0144 
L 139.309036 102.25176 
L 148.647072 102.6336 
L 158.035485 102.88128 
L 167.261521 102.77808 
L 176.780097 102.85032 
L 186.188186 102.93288 
L 195.347627 102.95352 
L 204.824797 103.00512 
L 214.001752 102.69552 
L 223.240653 102.55104 
L 232.540958 102.2724 
L 242.018237 102.21048 
L 251.449245 102.12792 
L 260.649659 102.13824 
L 269.736344 102.25176 
L 279.36 102.36528 
" clip-path="url(#p286c1499f6)" style="fill: none; stroke: #f5841e; stroke-width: 0.6"/>
   </g>
  </g>
 </g>
 <defs>
  <clipPath id="p286c1499f6">
   <rect x="8.64" y="4.8" width="270.72" height="103.2"/>
  </clipPath>
 </defs>
</svg>
