<?xml version="1.0" encoding="utf-8" standalone="no"?>
<!DOCTYPE svg PUBLIC "-//W3C//DTD SVG 1.1//EN"
  "http://www.w3.org/Graphics/SVG/1.1/DTD/svg11.dtd">
<svg xmlns:xlink="http://www.w3.org/1999/xlink" width="288pt" height="120pt" viewBox="0 0 288 120" xmlns="http://www.w3.org/2000/svg" version="1.1">
<desc id="nav-meta">{"window":"3m","count":4,"labels":["17.01","16.02","18.03","17.04"],"tick_utc":["2026-01-17T12:00:00Z","2026-02-16T03:32:51Z","2026-03-18T03:32:26Z","2026-04-17T03:55:44Z"],"w":720,"h":300}</desc>

 <metadata>
  <rdf:RDF xmlns:dc="http://purl.org/dc/elements/1.1/" xmlns:cc="http://creativecommons.org/ns#" xmlns:rdf="http://www.w3.org/1999/02/22-rdf-syntax-ns#">
   <cc:Work>
    <dc:type rdf:resource="http://purl.org/dc/dcmitype/StillImage"/>
    <dc:date>2026-04-17T08:15:38.442844</dc:date>
    <dc:format>image/svg+xml</dc:format>
    <dc:creator>
     <cc:Agent>
      <dc:title>Matplotlib v3.10.8, https://matplotlib.org/</dc:title>
     </cc:Agent>
    </dc:creator>
   </cc:Work>
  </rdf:RDF>
 </metadata>
 <defs>
  <style type="text/css">*{stroke-linejoin: round; stroke-linecap: butt}</style>
 </defs>
 <g id="figure_1">
  <g id="patch_1">
   <path d="M 0 120 
L 288 120 
L 288 0 
L 0 0 
L 0 120 
z
" style="fill: none; opacity: 0"/>
  </g>
  <g id="axes_1">
   <g id="patch_2">
    <path d="M 8.64 108 
L 279.36 108 
L 279.36 4.8 
L 8.64 4.8 
L 8.64 108 
z
" style="fill: none"/>
   </g>
   <g id="matplotlib.axis_1"/>
   <g id="matplotlib.axis_2"/>
   <g id="line2d_1">
    <path d="M 8.64 87.36 
L 279.36 87.36 
" clip-path="url(#p55886fe78f)" style="fill: none; stroke: #b2b2b2; stroke-opacity: 0.35; stroke-width: 0.5; stroke-linecap: square"/>
   </g>
   <g id="line2d_2">
    <path d="M 8.64 66.72 
L 279.36 66.72 
" clip-path="url(#p55886fe78f)" style="fill: none; stroke: #b2b2b2; stroke-opacity: 0.35; stroke-width: 0.5; stroke-linecap: square"/>
   </g>
   <g id="line2d_3">
    <path d="M 8.64 46.08 
L 279.36 46.08 
" clip-path="url(#p55886fe78f)" style="fill: none; stroke: #b2b2b2; stroke-opacity: 0.35; stroke-width: 0.5; stroke-linecap: square"/>
   </g>
   <g id="line2d_4">
    <path d="M 8.64 25.44 
L 279.36 25.44 
" clip-path="url(#p55886fe78f)" style="fill: none; stroke: #b2b2b2; stroke-opacity: 0.35; stroke-width: 0.5; stroke-linecap: square"/>
   </g>
   <g id="line2d_5">
    <path d="M 8.64 86.93688 
L 11.659282 87.23616 
L 14.678564 88.63968 
L 17.697846 90.0432 
L 20.717128 92.12784 
L 23.73641 91.16808 
L 26.755692 91.46736 
L 29.774973 91.73568 
L 32.794255 91.78728 
L 35.813537 94.0164 
L 38.832819 92.5716 
L 41.852101 91.76664 
L 44.871383 92.33424 
L 47.890665 94.36728 
L 50.909947 94.46016 
L 53.929229 97.71096 
L 56.948511 98.48496 
L 59.967793 97.85544 
L 62.516745 99.10416 
L 64.91613 100.16712 
L 67.933875 102.23112 
L 70.940227 100.54896 
L 74.028526 100.70376 
L 77.022892 100.68312 
L 80.059402 100.95144 
L 83.072428 101.28168 
L 86.080842 101.71512 
L 89.099216 101.84928 
L 92.082189 101.034 
L 94.942155 100.54896 
L 98.155104 101.04432 
L 100.795124 100.81728 
L 104.188881 101.034 
L 107.204493 101.4984 
L 110.206128 101.33328 
L 113.206959 101.1372 
L 116.260732 101.06496 
L 119.289099 102.09696 
L 122.053315 102.05568 
L 125.316795 101.4984 
L 128.322623 100.60056 
L 131.336174 100.80696 
L 134.319882 101.45712 
L 137.407761 100.55928 
L 140.395872 101.10624 
L 143.422178 100.8792 
L 146.424546 100.74504 
L 149.450328 100.21872 
L 152.468177 100.53864 
L 155.46429 101.07528 
L 158.512891 101.38488 
L 161.541224 101.26104 
L 164.541111 100.78632 
L 167.559205 100.91016 
L 170.590369 100.99272 
L 173.603815 100.38384 
L 176.619078 100.50768 
L 179.696125 100.60056 
L 182.723933 99.76464 
L 185.690378 99.49632 
L 188.732689 99.40344 
L 191.752809 100.09488 
L 194.742702 100.3632 
L 197.744302 100.19808 
L 200.808733 100.47672 
L 203.835109 100.79664 
L 206.826434 100.26 
L 210.07059 99.83688 
L 212.901726 100.13616 
L 215.924817 100.80696 
L 218.915234 101.38488 
L 221.975647 101.3436 
L 225.00356 101.292 
L 228.003797 101.28168 
L 231.048973 101.28168 
L 234.028487 101.8596 
L 237.051229 101.88024 
L 240.044651 101.72544 
L 243.109397 101.68416 
L 246.136472 101.47776 
L 249.136149 101.78736 
L 252.160324 101.09592 
L 255.169087 101.46744 
L 258.21615 101.3436 
L 261.189269 101.05464 
L 264.262717 101.3952 
L 267.297479 101.47776 
L 270.297541 100.86888 
L 273.314517 101.26104 
L 276.346868 100.99272 
L 279.36 100.61088 
" clip-path="url(#p55886fe78f)" style="fill: none; stroke: #bebebe; stroke-width: 0.5; stroke-linecap: round"/>
   </g>
   <g id="line2d_6">
    <path d="M 8.64 70.67256 
L 11.659282 70.51776 
L 14.678564 70.848 
L 17.697846 72.31344 
L 20.717128 76.01832 
L 23.73641 75.41976 
L 26.755692 75.83256 
L 29.774973 75.79128 
L 32.794255 75.82224 
L 35.813537 77.82432 
L 38.832819 76.14216 
L 41.852101 74.75928 
L 44.871383 74.96568 
L 47.890665 77.75208 
L 50.909947 79.48584 
L 53.929229 83.31456 
L 56.948511 85.90488 
L 59.967793 84.79032 
L 62.516745 85.84296 
L 64.91613 88.25784 
L 67.933875 91.41576 
L 70.940227 88.7532 
L 74.028526 88.65 
L 77.022892 88.55712 
L 80.059402 88.96992 
L 83.072428 89.7336 
L 86.080842 90.456 
L 89.099216 90.56952 
L 92.082189 89.15568 
L 94.942155 88.9596 
L 98.155104 90.6624 
L 100.795124 89.94 
L 104.188881 90.00192 
L 107.204493 90.3528 
L 110.206128 90.62112 
L 113.206959 90.5076 
L 116.260732 90.3528 
L 119.289099 92.004 
L 122.053315 92.13816 
L 125.316795 91.25064 
L 128.322623 89.166 
L 131.336174 89.56848 
L 134.319882 90.93072 
L 137.407761 89.41368 
L 140.395872 90.37344 
L 143.422178 89.79552 
L 146.424546 90.23928 
L 149.450328 88.0824 
L 152.468177 88.7532 
L 155.46429 90.16704 
L 158.512891 90.67272 
L 161.541224 90.18768 
L 164.541111 89.2692 
L 167.559205 89.54784 
L 170.590369 89.49624 
L 173.603815 88.31976 
L 176.619078 88.45392 
L 179.696125 88.46424 
L 182.723933 86.38992 
L 185.690378 84.80064 
L 188.732689 84.8316 
L 191.752809 86.586 
L 194.742702 87.74184 
L 197.744302 87.618 
L 200.808733 88.19592 
L 203.835109 89.08344 
L 206.826434 87.89664 
L 210.07059 87.3084 
L 212.901726 87.65928 
L 215.924817 88.96992 
L 218.915234 90.07416 
L 221.975647 89.76456 
L 225.00356 89.3724 
L 228.003797 89.00088 
L 231.048973 88.42296 
L 234.028487 88.81512 
L 237.051229 89.10408 
L 240.044651 89.14536 
L 243.109397 89.07312 
L 246.136472 87.9792 
L 249.136149 88.29912 
L 252.160324 86.38992 
L 255.169087 87.24648 
L 258.21615 87.1536 
L 261.189269 86.21448 
L 264.262717 86.66856 
L 267.297479 87.01944 
L 270.297541 84.44976 
L 273.314517 85.05864 
L 276.346868 84.58392 
L 279.36 85.04832 
" clip-path="url(#p55886fe78f)" style="fill: none; stroke: #4a8dff; stroke-width: 0.6"/>
   </g>
   <g id="line2d_7">
    <path d="M 8.64 77.74176 
L 11.659282 78.1752 
L 14.678564 79.5684 
L 17.697846 80.8068 
L 20.717128 85.20312 
L 23.73641 84.12984 
L 26.755692 84.03696 
L 29.774973 84.06792 
L 32.794255 84.3156 
L 35.813537 87.02976 
L 38.832819 85.21344 
L 41.852101 84.28464 
L 44.871383 84.32592 
L 47.890665 89.08344 
L 50.909947 89.5272 
L 53.929229 95.14128 
L 56.948511 96.98856 
L 59.967793 95.08968 
L 62.516745 97.71096 
L 64.91613 99.80592 
L 67.933875 101.79768 
L 70.940227 100.03296 
L 74.028526 100.518 
L 77.022892 99.98136 
L 80.059402 100.49736 
L 83.072428 100.78632 
L 86.080842 101.07528 
L 89.099216 101.26104 
L 92.082189 100.63152 
L 94.942155 100.38384 
L 98.155104 100.84824 
L 100.795124 100.65216 
L 104.188881 101.034 
L 107.204493 101.19912 
L 110.206128 101.10624 
L 113.206959 100.97208 
L 116.260732 100.91016 
L 119.289099 101.7564 
L 122.053315 101.84928 
L 125.316795 101.56032 
L 128.322623 100.85856 
L 131.336174 101.12688 
L 134.319882 101.4468 
L 137.407761 101.02368 
L 140.395872 101.30232 
L 143.422178 100.81728 
L 146.424546 100.79664 
L 149.450328 99.3312 
L 152.468177 99.92976 
L 155.46429 100.78632 
L 158.512891 101.17848 
L 161.541224 101.1372 
L 164.541111 100.21872 
L 167.559205 100.37352 
L 170.590369 100.4664 
L 173.603815 99.88848 
L 176.619078 99.94008 
L 179.696125 99.81624 
L 182.723933 98.93904 
L 185.690378 98.3508 
L 188.732689 98.52624 
L 191.752809 99.78528 
L 194.742702 100.12584 
L 197.744302 100.03296 
L 200.808733 100.45608 
L 203.835109 100.83792 
L 206.826434 100.11552 
L 210.07059 99.87816 
L 212.901726 100.002 
L 215.924817 100.64184 
L 218.915234 101.41584 
L 221.975647 101.21976 
L 225.00356 101.14752 
L 228.003797 101.00304 
L 231.048973 100.86888 
L 234.028487 101.21976 
L 237.051229 101.28168 
L 240.044651 101.20944 
L 243.109397 101.14752 
L 246.136472 100.55928 
L 249.136149 100.65216 
L 252.160324 99.80592 
L 255.169087 99.96072 
L 258.21615 99.6408 
L 261.189269 99.1764 
L 264.262717 99.70272 
L 267.297479 99.94008 
L 270.297541 98.57784 
L 273.314517 98.65008 
L 276.346868 98.38176 
L 279.36 98.48496 
" clip-path="url(#p55886fe78f)" style="fill: none; stroke: #f5841e; stroke-width: 0.6"/>
   </g>
  </g>
 </g>
 <defs>
  <clipPath id="p55886fe78f">
   <rect x="8.64" y="4.8" width="270.72" height="103.2"/>
  </clipPath>
 </defs>
</svg>
