<?xml version="1.0" encoding="utf-8" standalone="no"?>
<!DOCTYPE svg PUBLIC "-//W3C//DTD SVG 1.1//EN"
  "http://www.w3.org/Graphics/SVG/1.1/DTD/svg11.dtd">
<svg xmlns:xlink="http://www.w3.org/1999/xlink" width="288pt" height="120pt" viewBox="0 0 288 120" xmlns="http://www.w3.org/2000/svg" version="1.1">
<desc id="nav-meta">{"window":"3m","count":4,"labels":["18.11","18.12","16.01","15.02"],"tick_utc":["2025-11-18T12:00:00Z","2025-12-18T12:00:00Z","2026-01-16T12:00:00Z","2026-02-15T02:00:29Z"],"w":720,"h":300}</desc>

 <metadata>
  <rdf:RDF xmlns:dc="http://purl.org/dc/elements/1.1/" xmlns:cc="http://creativecommons.org/ns#" xmlns:rdf="http://www.w3.org/1999/02/22-rdf-syntax-ns#">
   <cc:Work>
    <dc:type rdf:resource="http://purl.org/dc/dcmitype/StillImage"/>
    <dc:date>2026-02-15T23:49:44.092809</dc:date>
    <dc:format>image/svg+xml</dc:format>
    <dc:creator>
     <cc:Agent>
      <dc:title>Matplotlib v3.10.8, https://matplotlib.org/</dc:title>
     </cc:Agent>
    </dc:creator>
   </cc:Work>
  </rdf:RDF>
 </metadata>
 <defs>
  <style type="text/css">*{stroke-linejoin: round; stroke-linecap: butt}</style>
 </defs>
 <g id="figure_1">
  <g id="patch_1">
   <path d="M 0 120 
L 288 120 
L 288 0 
L 0 0 
L 0 120 
z
" style="fill: none; opacity: 0"/>
  </g>
  <g id="axes_1">
   <g id="patch_2">
    <path d="M 8.64 108 
L 279.36 108 
L 279.36 4.8 
L 8.64 4.8 
L 8.64 108 
z
" style="fill: none"/>
   </g>
   <g id="matplotlib.axis_1"/>
   <g id="matplotlib.axis_2"/>
   <g id="line2d_1">
    <path d="M 8.64 87.36 
L 279.36 87.36 
" clip-path="url(#pb9021f6789)" style="fill: none; stroke: #b2b2b2; stroke-opacity: 0.35; stroke-width: 0.5; stroke-linecap: square"/>
   </g>
   <g id="line2d_2">
    <path d="M 8.64 66.72 
L 279.36 66.72 
" clip-path="url(#pb9021f6789)" style="fill: none; stroke: #b2b2b2; stroke-opacity: 0.35; stroke-width: 0.5; stroke-linecap: square"/>
   </g>
   <g id="line2d_3">
    <path d="M 8.64 46.08 
L 279.36 46.08 
" clip-path="url(#pb9021f6789)" style="fill: none; stroke: #b2b2b2; stroke-opacity: 0.35; stroke-width: 0.5; stroke-linecap: square"/>
   </g>
   <g id="line2d_4">
    <path d="M 8.64 25.44 
L 279.36 25.44 
" clip-path="url(#pb9021f6789)" style="fill: none; stroke: #b2b2b2; stroke-opacity: 0.35; stroke-width: 0.5; stroke-linecap: square"/>
   </g>
   <g id="line2d_5">
    <path d="M 8.64 90.79656 
L 11.696094 88.09272 
L 14.752188 89.22792 
L 17.808281 90.00192 
L 20.864375 91.39512 
L 23.920469 91.63248 
L 26.976563 90.75528 
L 30.032656 88.7016 
L 33.08875 88.52616 
L 36.144844 87.45288 
L 39.200938 88.0308 
L 42.257032 88.94928 
L 45.313125 89.3208 
L 48.369219 89.7336 
L 51.425313 91.86984 
L 54.481407 88.60872 
L 57.537501 86.87496 
L 60.593594 88.52616 
L 63.649688 90.11544 
L 66.705782 90.38376 
L 69.761876 90.53856 
L 72.817969 90.08448 
L 75.874063 88.79448 
L 78.930157 89.20728 
L 81.986251 89.22792 
L 85.042345 90.31152 
L 88.098438 90.10512 
L 91.154532 91.09584 
L 94.210626 91.61184 
L 97.26672 91.31256 
L 100.322813 92.87088 
L 103.378907 93.8616 
L 106.435001 92.02464 
L 109.491095 92.13816 
L 112.547189 92.07624 
L 115.603282 92.14848 
L 118.659376 92.64384 
L 121.71547 93.01536 
L 124.771564 93.69648 
L 127.827658 93.11856 
L 130.883751 92.44776 
L 133.939845 92.30328 
L 136.995939 92.87088 
L 140.052033 92.38584 
L 143.108126 92.47872 
L 146.16422 91.88016 
L 149.220314 90.42504 
L 152.276408 90.08448 
L 155.332502 89.92968 
L 158.388595 88.76352 
L 161.444689 87.94824 
L 164.500783 89.2692 
L 167.556877 88.72224 
L 170.61297 89.39304 
L 173.669064 89.40336 
L 176.725158 88.41264 
L 179.781252 88.4952 
L 182.837346 86.86464 
L 185.893439 86.42088 
L 188.949533 87.62832 
L 192.005627 86.93688 
L 195.061721 87.23616 
L 198.117815 88.63968 
L 201.173908 90.0432 
L 204.230002 92.12784 
L 207.286096 91.16808 
L 210.34219 91.46736 
L 213.398283 91.73568 
L 216.454377 91.78728 
L 219.510471 94.0164 
L 222.566565 92.5716 
L 225.622659 91.76664 
L 228.678752 92.33424 
L 231.734846 94.36728 
L 234.79094 94.46016 
L 237.847034 97.71096 
L 240.903127 98.48496 
L 243.959221 97.85544 
L 246.539251 99.10416 
L 248.96789 100.16712 
L 252.022428 102.23112 
L 255.065434 100.54896 
L 258.191386 100.70376 
L 261.22226 100.68312 
L 264.295792 100.95144 
L 267.345554 101.28168 
L 270.390648 101.71512 
L 273.445822 101.84928 
L 276.465165 101.034 
L 279.36 100.54896 
" clip-path="url(#pb9021f6789)" style="fill: none; stroke: #bebebe; stroke-width: 0.5; stroke-linecap: round"/>
   </g>
   <g id="line2d_6">
    <path d="M 8.64 74.74896 
L 11.696094 73.3248 
L 14.752188 74.80056 
L 17.808281 77.556 
L 20.864375 78.55704 
L 23.920469 78.50544 
L 26.976563 78.04104 
L 30.032656 75.76032 
L 33.08875 75.73968 
L 36.144844 74.65608 
L 39.200938 74.83152 
L 42.257032 74.57352 
L 45.313125 75.20304 
L 48.369219 75.17208 
L 51.425313 78.05136 
L 54.481407 75.1308 
L 57.537501 72.16896 
L 60.593594 73.08744 
L 63.649688 74.72832 
L 66.705782 74.48064 
L 69.761876 74.28456 
L 72.817969 73.21128 
L 75.874063 70.2804 
L 78.930157 70.2288 
L 81.986251 71.56008 
L 85.042345 73.79952 
L 88.098438 73.35576 
L 91.154532 74.0988 
L 94.210626 75.5952 
L 97.26672 75.5952 
L 100.322813 77.61792 
L 103.378907 77.63856 
L 106.435001 75.40944 
L 109.491095 75.40944 
L 112.547189 75.04824 
L 115.603282 74.98632 
L 118.659376 75.58488 
L 121.71547 75.87384 
L 124.771564 76.49304 
L 127.827658 76.15248 
L 130.883751 75.82224 
L 133.939845 75.84288 
L 136.995939 76.03896 
L 140.052033 75.51264 
L 143.108126 75.56424 
L 146.16422 75.05856 
L 149.220314 73.26288 
L 152.276408 73.20096 
L 155.332502 73.00488 
L 158.388595 71.68392 
L 161.444689 70.6932 
L 164.500783 72.62304 
L 167.556877 73.52088 
L 170.61297 73.83048 
L 173.669064 73.8408 
L 176.725158 73.29384 
L 179.781252 73.72728 
L 182.837346 70.32168 
L 185.893439 69.77472 
L 188.949533 70.34232 
L 192.005627 70.67256 
L 195.061721 70.51776 
L 198.117815 70.848 
L 201.173908 72.31344 
L 204.230002 76.01832 
L 207.286096 75.41976 
L 210.34219 75.83256 
L 213.398283 75.79128 
L 216.454377 75.82224 
L 219.510471 77.82432 
L 222.566565 76.14216 
L 225.622659 74.75928 
L 228.678752 74.96568 
L 231.734846 77.75208 
L 234.79094 79.48584 
L 237.847034 83.31456 
L 240.903127 85.90488 
L 243.959221 84.79032 
L 246.539251 85.84296 
L 248.96789 88.25784 
L 252.022428 91.41576 
L 255.065434 88.7532 
L 258.191386 88.65 
L 261.22226 88.55712 
L 264.295792 88.96992 
L 267.345554 89.7336 
L 270.390648 90.456 
L 273.445822 90.56952 
L 276.465165 89.15568 
L 279.36 88.9596 
" clip-path="url(#pb9021f6789)" style="fill: none; stroke: #4a8dff; stroke-width: 0.6"/>
   </g>
   <g id="line2d_7">
    <path d="M 8.64 81.34344 
L 11.696094 80.53848 
L 14.752188 82.0452 
L 17.808281 86.92656 
L 20.864375 88.58808 
L 23.920469 88.96992 
L 26.976563 86.7924 
L 30.032656 85.296 
L 33.08875 86.24544 
L 36.144844 82.96368 
L 39.200938 82.13808 
L 42.257032 82.47864 
L 45.313125 82.58184 
L 48.369219 83.03592 
L 51.425313 87.3084 
L 54.481407 82.06584 
L 57.537501 79.71288 
L 60.593594 81.24024 
L 63.649688 84.17112 
L 66.705782 84.24336 
L 69.761876 83.29392 
L 72.817969 82.8192 
L 75.874063 80.64168 
L 78.930157 81.38472 
L 81.986251 80.87904 
L 85.042345 83.13912 
L 88.098438 83.19072 
L 91.154532 85.296 
L 94.210626 87.17424 
L 97.26672 85.71912 
L 100.322813 87.53544 
L 103.378907 88.17528 
L 106.435001 85.41984 
L 109.491095 85.17216 
L 112.547189 84.9348 
L 115.603282 85.01736 
L 118.659376 86.14224 
L 121.71547 85.90488 
L 124.771564 86.328 
L 127.827658 86.24544 
L 130.883751 85.72944 
L 133.939845 85.7088 
L 136.995939 86.40024 
L 140.052033 85.09992 
L 143.108126 86.02872 
L 146.16422 84.78 
L 149.220314 83.53128 
L 152.276408 82.83984 
L 155.332502 82.03488 
L 158.388595 79.39296 
L 161.444689 79.66128 
L 164.500783 82.15872 
L 167.556877 82.43736 
L 170.61297 82.93272 
L 173.669064 83.00496 
L 176.725158 82.6128 
L 179.781252 82.28256 
L 182.837346 78.01008 
L 185.893439 76.19376 
L 188.949533 77.66952 
L 192.005627 77.74176 
L 195.061721 78.1752 
L 198.117815 79.5684 
L 201.173908 80.8068 
L 204.230002 85.20312 
L 207.286096 84.12984 
L 210.34219 84.03696 
L 213.398283 84.06792 
L 216.454377 84.3156 
L 219.510471 87.02976 
L 222.566565 85.21344 
L 225.622659 84.28464 
L 228.678752 84.32592 
L 231.734846 89.08344 
L 234.79094 89.5272 
L 237.847034 95.14128 
L 240.903127 96.98856 
L 243.959221 95.08968 
L 246.539251 97.71096 
L 248.96789 99.80592 
L 252.022428 101.79768 
L 255.065434 100.03296 
L 258.191386 100.518 
L 261.22226 99.98136 
L 264.295792 100.49736 
L 267.345554 100.78632 
L 270.390648 101.07528 
L 273.445822 101.26104 
L 276.465165 100.63152 
L 279.36 100.38384 
" clip-path="url(#pb9021f6789)" style="fill: none; stroke: #f5841e; stroke-width: 0.6"/>
   </g>
  </g>
 </g>
 <defs>
  <clipPath id="pb9021f6789">
   <rect x="8.64" y="4.8" width="270.72" height="103.2"/>
  </clipPath>
 </defs>
</svg>
