<?xml version="1.0" encoding="utf-8" standalone="no"?>
<!DOCTYPE svg PUBLIC "-//W3C//DTD SVG 1.1//EN"
  "http://www.w3.org/Graphics/SVG/1.1/DTD/svg11.dtd">
<svg xmlns:xlink="http://www.w3.org/1999/xlink" width="288pt" height="120pt" viewBox="0 0 288 120" xmlns="http://www.w3.org/2000/svg" version="1.1">
<desc id="nav-meta">{"window":"1m","count":4,"labels":["01.02","11.02","20.02","02.03"],"tick_utc":["2026-02-01T12:00:00Z","2026-02-11T03:39:24Z","2026-02-20T03:20:24Z","2026-03-02T03:18:56Z"],"w":720,"h":300}</desc>

 <metadata>
  <rdf:RDF xmlns:dc="http://purl.org/dc/elements/1.1/" xmlns:cc="http://creativecommons.org/ns#" xmlns:rdf="http://www.w3.org/1999/02/22-rdf-syntax-ns#">
   <cc:Work>
    <dc:type rdf:resource="http://purl.org/dc/dcmitype/StillImage"/>
    <dc:date>2026-03-02T19:28:10.585784</dc:date>
    <dc:format>image/svg+xml</dc:format>
    <dc:creator>
     <cc:Agent>
      <dc:title>Matplotlib v3.10.8, https://matplotlib.org/</dc:title>
     </cc:Agent>
    </dc:creator>
   </cc:Work>
  </rdf:RDF>
 </metadata>
 <defs>
  <style type="text/css">*{stroke-linejoin: round; stroke-linecap: butt}</style>
 </defs>
 <g id="figure_1">
  <g id="patch_1">
   <path d="M 0 120 
L 288 120 
L 288 0 
L 0 0 
L 0 120 
z
" style="fill: none; opacity: 0"/>
  </g>
  <g id="axes_1">
   <g id="patch_2">
    <path d="M 8.64 108 
L 279.36 108 
L 279.36 4.8 
L 8.64 4.8 
L 8.64 108 
z
" style="fill: none"/>
   </g>
   <g id="matplotlib.axis_1"/>
   <g id="matplotlib.axis_2"/>
   <g id="line2d_1">
    <path d="M 8.64 87.36 
L 279.36 87.36 
" clip-path="url(#p22a82a9ee7)" style="fill: none; stroke: #b2b2b2; stroke-opacity: 0.35; stroke-width: 0.5; stroke-linecap: square"/>
   </g>
   <g id="line2d_2">
    <path d="M 8.64 66.72 
L 279.36 66.72 
" clip-path="url(#p22a82a9ee7)" style="fill: none; stroke: #b2b2b2; stroke-opacity: 0.35; stroke-width: 0.5; stroke-linecap: square"/>
   </g>
   <g id="line2d_3">
    <path d="M 8.64 46.08 
L 279.36 46.08 
" clip-path="url(#p22a82a9ee7)" style="fill: none; stroke: #b2b2b2; stroke-opacity: 0.35; stroke-width: 0.5; stroke-linecap: square"/>
   </g>
   <g id="line2d_4">
    <path d="M 8.64 25.44 
L 279.36 25.44 
" clip-path="url(#p22a82a9ee7)" style="fill: none; stroke: #b2b2b2; stroke-opacity: 0.35; stroke-width: 0.5; stroke-linecap: square"/>
   </g>
   <g id="line2d_5">
    <path d="M 8.64 97.71096 
L 18.093125 98.48496 
L 27.54625 97.85544 
L 35.526811 99.10416 
L 43.039091 100.16712 
L 52.487402 102.23112 
L 61.900045 100.54896 
L 71.569258 100.70376 
L 80.944373 100.68312 
L 90.451437 100.95144 
L 99.884978 101.28168 
L 109.304076 101.71512 
L 118.754357 101.84928 
L 128.093804 101.034 
L 137.048124 100.54896 
L 147.107605 101.04432 
L 155.373291 100.81728 
L 165.998867 101.034 
L 175.440504 101.4984 
L 184.838376 101.33328 
L 194.233732 101.1372 
L 203.794846 101.06496 
L 213.276418 102.09696 
L 221.930951 102.05568 
L 232.148642 101.4984 
L 241.559644 100.60056 
L 250.994826 100.80696 
L 260.33657 101.45712 
L 270.00447 100.55928 
L 279.36 101.10624 
" clip-path="url(#p22a82a9ee7)" style="fill: none; stroke: #bebebe; stroke-width: 0.5; stroke-linecap: round"/>
   </g>
   <g id="line2d_6">
    <path d="M 8.64 83.31456 
L 18.093125 85.90488 
L 27.54625 84.79032 
L 35.526811 85.84296 
L 43.039091 88.25784 
L 52.487402 91.41576 
L 61.900045 88.7532 
L 71.569258 88.65 
L 80.944373 88.55712 
L 90.451437 88.96992 
L 99.884978 89.7336 
L 109.304076 90.456 
L 118.754357 90.56952 
L 128.093804 89.15568 
L 137.048124 88.9596 
L 147.107605 90.6624 
L 155.373291 89.94 
L 165.998867 90.00192 
L 175.440504 90.3528 
L 184.838376 90.62112 
L 194.233732 90.5076 
L 203.794846 90.3528 
L 213.276418 92.004 
L 221.930951 92.13816 
L 232.148642 91.25064 
L 241.559644 89.166 
L 250.994826 89.56848 
L 260.33657 90.93072 
L 270.00447 89.41368 
L 279.36 90.37344 
" clip-path="url(#p22a82a9ee7)" style="fill: none; stroke: #4a8dff; stroke-width: 0.6"/>
   </g>
   <g id="line2d_7">
    <path d="M 8.64 95.14128 
L 18.093125 96.98856 
L 27.54625 95.08968 
L 35.526811 97.71096 
L 43.039091 99.80592 
L 52.487402 101.79768 
L 61.900045 100.03296 
L 71.569258 100.518 
L 80.944373 99.98136 
L 90.451437 100.49736 
L 99.884978 100.78632 
L 109.304076 101.07528 
L 118.754357 101.26104 
L 128.093804 100.63152 
L 137.048124 100.38384 
L 147.107605 100.84824 
L 155.373291 100.65216 
L 165.998867 101.034 
L 175.440504 101.19912 
L 184.838376 101.10624 
L 194.233732 100.97208 
L 203.794846 100.91016 
L 213.276418 101.7564 
L 221.930951 101.84928 
L 232.148642 101.56032 
L 241.559644 100.85856 
L 250.994826 101.12688 
L 260.33657 101.4468 
L 270.00447 101.02368 
L 279.36 101.30232 
" clip-path="url(#p22a82a9ee7)" style="fill: none; stroke: #f5841e; stroke-width: 0.6"/>
   </g>
  </g>
 </g>
 <defs>
  <clipPath id="p22a82a9ee7">
   <rect x="8.64" y="4.8" width="270.72" height="103.2"/>
  </clipPath>
 </defs>
</svg>
