<?xml version="1.0" encoding="utf-8" standalone="no"?>
<!DOCTYPE svg PUBLIC "-//W3C//DTD SVG 1.1//EN"
  "http://www.w3.org/Graphics/SVG/1.1/DTD/svg11.dtd">
<svg xmlns:xlink="http://www.w3.org/1999/xlink" width="288pt" height="120pt" viewBox="0 0 288 120" xmlns="http://www.w3.org/2000/svg" version="1.1">
<desc id="nav-meta">{"window":"1m","count":4,"labels":["27.03","06.04","15.04","25.04"],"tick_utc":["2026-03-27T03:41:18Z","2026-04-06T03:50:17Z","2026-04-15T03:52:26Z","2026-04-25T03:44:07Z"],"w":720,"h":300}</desc>

 <metadata>
  <rdf:RDF xmlns:dc="http://purl.org/dc/elements/1.1/" xmlns:cc="http://creativecommons.org/ns#" xmlns:rdf="http://www.w3.org/1999/02/22-rdf-syntax-ns#">
   <cc:Work>
    <dc:type rdf:resource="http://purl.org/dc/dcmitype/StillImage"/>
    <dc:date>2026-04-25T07:53:40.834254</dc:date>
    <dc:format>image/svg+xml</dc:format>
    <dc:creator>
     <cc:Agent>
      <dc:title>Matplotlib v3.10.9, https://matplotlib.org/</dc:title>
     </cc:Agent>
    </dc:creator>
   </cc:Work>
  </rdf:RDF>
 </metadata>
 <defs>
  <style type="text/css">*{stroke-linejoin: round; stroke-linecap: butt}</style>
 </defs>
 <g id="figure_1">
  <g id="patch_1">
   <path d="M 0 120 
L 288 120 
L 288 0 
L 0 0 
L 0 120 
z
" style="fill: none; opacity: 0"/>
  </g>
  <g id="axes_1">
   <g id="patch_2">
    <path d="M 8.64 108 
L 279.36 108 
L 279.36 4.8 
L 8.64 4.8 
L 8.64 108 
z
" style="fill: none"/>
   </g>
   <g id="matplotlib.axis_1"/>
   <g id="matplotlib.axis_2"/>
   <g id="line2d_1">
    <path d="M 8.64 87.36 
L 279.36 87.36 
" clip-path="url(#p4ec8540dc5)" style="fill: none; stroke: #b2b2b2; stroke-opacity: 0.35; stroke-width: 0.5; stroke-linecap: square"/>
   </g>
   <g id="line2d_2">
    <path d="M 8.64 66.72 
L 279.36 66.72 
" clip-path="url(#p4ec8540dc5)" style="fill: none; stroke: #b2b2b2; stroke-opacity: 0.35; stroke-width: 0.5; stroke-linecap: square"/>
   </g>
   <g id="line2d_3">
    <path d="M 8.64 46.08 
L 279.36 46.08 
" clip-path="url(#p4ec8540dc5)" style="fill: none; stroke: #b2b2b2; stroke-opacity: 0.35; stroke-width: 0.5; stroke-linecap: square"/>
   </g>
   <g id="line2d_4">
    <path d="M 8.64 25.44 
L 279.36 25.44 
" clip-path="url(#p4ec8540dc5)" style="fill: none; stroke: #b2b2b2; stroke-opacity: 0.35; stroke-width: 0.5; stroke-linecap: square"/>
   </g>
   <g id="line2d_5">
    <path d="M 8.64 100.80696 
L 17.885303 101.38488 
L 27.347007 101.3436 
L 36.708236 101.292 
L 45.983897 101.28168 
L 55.398497 101.28168 
L 64.610092 101.8596 
L 73.95533 101.88024 
L 83.209924 101.72544 
L 92.685026 101.68416 
L 102.043661 101.47776 
L 111.317594 101.78736 
L 120.667262 101.09592 
L 129.969285 101.46744 
L 139.389719 101.3436 
L 148.581543 101.05464 
L 158.083545 101.3952 
L 167.465949 101.47776 
L 176.741071 100.86888 
L 186.068483 101.26104 
L 195.443432 100.99272 
L 204.75896 100.61088 
L 213.990542 100.44576 
L 223.448357 100.94112 
L 232.80602 101.09592 
L 242.099617 101.00304 
L 251.405205 100.69344 
L 260.777561 100.9308 
L 270.136845 100.92048 
L 279.36 100.81728 
" clip-path="url(#p4ec8540dc5)" style="fill: none; stroke: #bebebe; stroke-width: 0.5; stroke-linecap: round"/>
   </g>
   <g id="line2d_6">
    <path d="M 8.64 88.96992 
L 17.885303 90.07416 
L 27.347007 89.76456 
L 36.708236 89.3724 
L 45.983897 89.00088 
L 55.398497 88.42296 
L 64.610092 88.81512 
L 73.95533 89.10408 
L 83.209924 89.14536 
L 92.685026 89.07312 
L 102.043661 87.9792 
L 111.317594 88.29912 
L 120.667262 86.38992 
L 129.969285 87.24648 
L 139.389719 87.1536 
L 148.581543 86.21448 
L 158.083545 86.66856 
L 167.465949 87.01944 
L 176.741071 84.44976 
L 186.068483 85.05864 
L 195.443432 84.58392 
L 204.75896 85.04832 
L 213.990542 83.71704 
L 223.448357 84.86256 
L 232.80602 85.6572 
L 242.099617 85.27536 
L 251.405205 84.49104 
L 260.777561 84.86256 
L 270.136845 85.32696 
L 279.36 85.17216 
" clip-path="url(#p4ec8540dc5)" style="fill: none; stroke: #4a8dff; stroke-width: 0.6"/>
   </g>
   <g id="line2d_7">
    <path d="M 8.64 100.64184 
L 17.885303 101.41584 
L 27.347007 101.21976 
L 36.708236 101.14752 
L 45.983897 101.00304 
L 55.398497 100.86888 
L 64.610092 101.21976 
L 73.95533 101.28168 
L 83.209924 101.20944 
L 92.685026 101.14752 
L 102.043661 100.55928 
L 111.317594 100.65216 
L 120.667262 99.80592 
L 129.969285 99.96072 
L 139.389719 99.6408 
L 148.581543 99.1764 
L 158.083545 99.70272 
L 167.465949 99.94008 
L 176.741071 98.57784 
L 186.068483 98.65008 
L 195.443432 98.38176 
L 204.75896 98.48496 
L 213.990542 96.70992 
L 223.448357 98.05152 
L 232.80602 98.48496 
L 242.099617 97.96896 
L 251.405205 96.32808 
L 260.777561 96.20424 
L 270.136845 96.16296 
L 279.36 96.1836 
" clip-path="url(#p4ec8540dc5)" style="fill: none; stroke: #f5841e; stroke-width: 0.6"/>
   </g>
  </g>
 </g>
 <defs>
  <clipPath id="p4ec8540dc5">
   <rect x="8.64" y="4.8" width="270.72" height="103.2"/>
  </clipPath>
 </defs>
</svg>
