<?xml version="1.0" encoding="utf-8" standalone="no"?>
<!DOCTYPE svg PUBLIC "-//W3C//DTD SVG 1.1//EN"
  "http://www.w3.org/Graphics/SVG/1.1/DTD/svg11.dtd">
<svg xmlns:xlink="http://www.w3.org/1999/xlink" width="288pt" height="120pt" viewBox="0 0 288 120" xmlns="http://www.w3.org/2000/svg" version="1.1">
<desc id="nav-meta">{"window":"1y","count":4,"labels":["28.06","28.10","27.02","28.06"],"tick_utc":["2025-06-28T12:00:00Z","2025-10-28T12:00:00Z","2026-02-27T03:18:03Z","2026-06-28T05:07:25Z"],"w":720,"h":300}</desc>

 <metadata>
  <rdf:RDF xmlns:dc="http://purl.org/dc/elements/1.1/" xmlns:cc="http://creativecommons.org/ns#" xmlns:rdf="http://www.w3.org/1999/02/22-rdf-syntax-ns#">
   <cc:Work>
    <dc:type rdf:resource="http://purl.org/dc/dcmitype/StillImage"/>
    <dc:date>2026-06-28T05:07:27.247428</dc:date>
    <dc:format>image/svg+xml</dc:format>
    <dc:creator>
     <cc:Agent>
      <dc:title>Matplotlib v3.11.0, https://matplotlib.org/</dc:title>
     </cc:Agent>
    </dc:creator>
   </cc:Work>
  </rdf:RDF>
 </metadata>
 <defs>
  <style type="text/css">*{stroke-linejoin: round; stroke-linecap: butt}</style>
 </defs>
 <g id="figure_1">
  <g id="patch_1">
   <path d="M 0 120 
L 288 120 
L 288 0 
L 0 0 
L 0 120 
z
" style="fill: none; opacity: 0"/>
  </g>
  <g id="axes_1">
   <g id="patch_2">
    <path d="M 8.64 108 
L 279.36 108 
L 279.36 4.8 
L 8.64 4.8 
L 8.64 108 
z
" style="fill: none"/>
   </g>
   <g id="matplotlib.axis_1"/>
   <g id="matplotlib.axis_2"/>
   <g id="line2d_1">
    <path d="M 8.64 87.36 
L 279.36 87.36 
" clip-path="url(#pa90551e1cf)" style="fill: none; stroke: #b2b2b2; stroke-opacity: 0.35; stroke-width: 0.5; stroke-linecap: square"/>
   </g>
   <g id="line2d_2">
    <path d="M 8.64 66.72 
L 279.36 66.72 
" clip-path="url(#pa90551e1cf)" style="fill: none; stroke: #b2b2b2; stroke-opacity: 0.35; stroke-width: 0.5; stroke-linecap: square"/>
   </g>
   <g id="line2d_3">
    <path d="M 8.64 46.08 
L 279.36 46.08 
" clip-path="url(#pa90551e1cf)" style="fill: none; stroke: #b2b2b2; stroke-opacity: 0.35; stroke-width: 0.5; stroke-linecap: square"/>
   </g>
   <g id="line2d_4">
    <path d="M 8.64 25.44 
L 279.36 25.44 
" clip-path="url(#pa90551e1cf)" style="fill: none; stroke: #b2b2b2; stroke-opacity: 0.35; stroke-width: 0.5; stroke-linecap: square"/>
   </g>
   <g id="line2d_5">
    <path d="M 8.64 87.6696 
L 9.382281 85.30632 
L 10.124563 84.61488 
L 10.866844 84.17112 
L 11.609125 86.3796 
L 12.351407 84.92448 
L 13.093688 84.89352 
L 13.835969 86.13192 
L 14.57825 86.1732 
L 15.320532 84.99672 
L 16.062813 85.85328 
L 16.805094 85.01736 
L 17.547376 83.55192 
L 18.289657 81.7356 
L 19.031938 82.03488 
L 19.77422 82.65408 
L 21.258782 82.15872 
L 22.001063 81.70464 
L 22.743345 79.01112 
L 23.485626 78.39192 
L 24.227907 78.04104 
L 24.970189 78.16488 
L 25.71247 77.05032 
L 26.454751 72.82944 
L 27.197033 70.41456 
L 27.939314 74.69736 
L 28.681595 76.6272 
L 29.423876 75.63648 
L 30.166158 75.97704 
L 30.908439 74.976 
L 31.65072 76.49304 
L 32.393002 76.99872 
L 33.135283 77.90688 
L 33.877564 79.4652 
L 34.619846 82.02456 
L 35.362127 83.19072 
L 36.104408 82.27224 
L 36.84669 80.21856 
L 37.588971 81.67368 
L 38.331252 80.5488 
L 39.073533 78.588 
L 39.815815 78.19584 
L 40.558096 77.21544 
L 41.300377 76.524 
L 42.042659 78.68088 
L 42.78494 73.88208 
L 43.527221 71.364 
L 44.269503 73.8408 
L 45.011784 75.79128 
L 45.754065 74.65608 
L 46.496346 74.14008 
L 47.238628 76.50336 
L 47.980909 78.30936 
L 48.72319 75.3372 
L 49.465472 77.25672 
L 50.207753 71.78712 
L 50.950034 70.75512 
L 51.692316 70.24944 
L 52.434597 75.35784 
L 53.176878 72.95328 
L 53.919159 70.96152 
L 54.661441 67.87584 
L 55.403722 70.46616 
L 56.146003 71.11632 
L 56.888285 71.61168 
L 57.630566 72.7056 
L 58.372847 69.33096 
L 59.115129 68.9388 
L 59.85741 71.12664 
L 60.599691 70.90992 
L 61.341973 71.80776 
L 62.084254 70.074 
L 62.826535 68.01 
L 63.568816 67.10184 
L 64.311098 65.29584 
L 65.053379 64.01616 
L 65.79566 60.31128 
L 66.537942 60.19776 
L 67.280223 60.786 
L 68.022504 62.61264 
L 68.764786 61.74576 
L 69.507067 59.57856 
L 70.249348 58.86648 
L 70.991629 61.38456 
L 71.733911 61.07496 
L 72.476192 61.83864 
L 73.218473 66.29688 
L 73.960755 67.97904 
L 74.703036 68.69112 
L 75.445317 73.9956 
L 76.187599 70.45584 
L 76.92988 70.87896 
L 77.672161 68.91816 
L 78.414442 68.3196 
L 79.156724 69.47544 
L 80.641286 62.39592 
L 81.383568 62.81904 
L 82.125849 64.22256 
L 82.86813 64.05744 
L 83.610412 62.9532 
L 84.352693 66.14208 
L 85.094974 63.91296 
L 85.837256 66.17304 
L 86.579537 74.6148 
L 87.321818 77.78304 
L 88.064099 72.66432 
L 88.806381 69.69216 
L 89.548662 71.09568 
L 91.033225 76.06992 
L 91.775506 76.76136 
L 92.517787 75.25464 
L 93.260069 75.24432 
L 94.00235 74.63544 
L 94.744631 75.73968 
L 95.486912 77.31864 
L 96.229194 74.202 
L 96.971475 73.64472 
L 97.713756 73.48992 
L 98.456038 71.83872 
L 99.198319 72.17928 
L 99.9406 73.38672 
L 100.682882 73.43832 
L 101.425163 76.15248 
L 102.167444 75.3372 
L 102.909725 75.58488 
L 103.652007 75.35784 
L 104.394288 81.168 
L 105.136569 84.01632 
L 105.878851 82.06584 
L 106.621132 84.19176 
L 107.363413 82.27224 
L 108.105695 83.29392 
L 108.847976 81.62208 
L 109.590257 80.72424 
L 110.332539 84.33624 
L 111.07482 84.64584 
L 111.817101 86.844 
L 112.559382 88.52616 
L 113.301664 88.36104 
L 114.043945 88.93896 
L 114.786226 90.79656 
L 115.528508 88.09272 
L 116.270789 89.22792 
L 117.01307 90.00192 
L 117.755352 91.39512 
L 118.497633 91.63248 
L 119.239914 90.75528 
L 119.982195 88.7016 
L 120.724477 88.52616 
L 121.466758 87.45288 
L 122.209039 88.0308 
L 122.951321 88.94928 
L 124.435883 89.7336 
L 125.178165 91.86984 
L 125.920446 88.60872 
L 126.662727 86.87496 
L 128.14729 90.11544 
L 129.631852 90.53856 
L 130.374134 90.08448 
L 131.116415 88.79448 
L 131.858696 89.20728 
L 132.600978 89.22792 
L 133.343259 90.31152 
L 134.08554 90.10512 
L 134.827822 91.09584 
L 135.570103 91.61184 
L 136.312384 91.31256 
L 137.054665 92.87088 
L 137.796947 93.8616 
L 138.539228 92.02464 
L 139.281509 92.13816 
L 140.023791 92.07624 
L 140.766072 92.14848 
L 142.992916 93.69648 
L 144.477478 92.44776 
L 145.21976 92.30328 
L 145.962041 92.87088 
L 146.704322 92.38584 
L 147.446604 92.47872 
L 148.188885 91.88016 
L 148.931166 90.42504 
L 149.673448 90.08448 
L 150.415729 89.92968 
L 151.15801 88.76352 
L 151.900291 87.94824 
L 152.642573 89.2692 
L 153.384854 88.72224 
L 154.127135 89.39304 
L 154.869417 89.40336 
L 155.611698 88.41264 
L 156.353979 88.4952 
L 157.096261 86.86464 
L 157.838542 86.42088 
L 158.580823 87.62832 
L 159.323105 86.93688 
L 160.065386 87.23616 
L 161.549948 90.0432 
L 162.29223 92.12784 
L 163.034511 91.16808 
L 164.519074 91.73568 
L 165.261355 91.78728 
L 166.003636 94.0164 
L 166.745918 92.5716 
L 167.488199 91.76664 
L 168.23048 92.33424 
L 168.972761 94.36728 
L 169.715043 94.46016 
L 170.457324 97.71096 
L 171.199605 98.48496 
L 171.941887 97.85544 
L 173.15842 100.16712 
L 173.900324 102.23112 
L 174.639426 100.54896 
L 175.398675 100.70376 
L 176.134831 100.68312 
L 177.622091 101.28168 
L 178.361701 101.71512 
L 179.103759 101.84928 
L 179.837114 101.034 
L 180.540228 100.54896 
L 181.330121 101.04432 
L 181.979162 100.81728 
L 182.813507 101.034 
L 183.554886 101.4984 
L 185.781335 101.06496 
L 186.52585 102.09696 
L 187.205424 102.05568 
L 188.007741 101.4984 
L 188.746714 100.60056 
L 189.487587 100.80696 
L 190.221122 101.45712 
L 190.980268 100.55928 
L 191.714886 101.10624 
L 193.197017 100.74504 
L 193.940897 100.21872 
L 194.682826 100.53864 
L 195.419411 101.07528 
L 196.1689 101.38488 
L 196.913407 101.26104 
L 197.65092 100.78632 
L 199.138111 100.99272 
L 199.878958 100.38384 
L 201.376734 100.60056 
L 202.121111 99.76464 
L 202.850403 99.49632 
L 203.598346 99.40344 
L 204.340833 100.09488 
L 205.075889 100.3632 
L 205.813823 100.19808 
L 207.31123 100.79664 
L 208.046638 100.26 
L 208.844204 99.83688 
L 209.54023 100.13616 
L 211.018633 101.38488 
L 214.001676 101.28168 
L 214.73418 101.8596 
L 215.477312 101.88024 
L 216.213236 101.72544 
L 216.966695 101.68416 
L 217.710892 101.47776 
L 218.448353 101.78736 
L 219.191837 101.09592 
L 219.931533 101.46744 
L 220.680644 101.3436 
L 221.411576 101.05464 
L 222.167174 101.3952 
L 222.913261 101.47776 
L 223.650817 100.86888 
L 224.392532 101.26104 
L 226.612889 100.44576 
L 227.364973 100.94112 
L 228.109093 101.09592 
L 228.848118 101.00304 
L 229.588097 100.69344 
L 230.333385 100.9308 
L 232.564886 100.8792 
L 233.315165 100.64184 
L 234.059002 101.1888 
L 234.799255 101.09592 
L 235.542782 101.37456 
L 236.293174 101.21976 
L 237.773862 101.23008 
L 238.515885 100.92048 
L 239.241818 101.06496 
L 239.997175 100.70376 
L 240.739654 100.55928 
L 241.469581 100.53864 
L 242.214577 99.60984 
L 242.971816 99.72336 
L 244.451928 99.25896 
L 245.19774 99.32088 
L 245.939197 100.22904 
L 246.685138 100.01232 
L 248.171307 100.75536 
L 248.920796 101.02368 
L 249.65776 101.02368 
L 250.402696 101.17848 
L 251.149204 100.7244 
L 251.885798 100.75536 
L 252.617881 101.11656 
L 253.371915 100.91016 
L 254.123965 100.89984 
L 254.855 101.1372 
L 255.604902 101.2404 
L 256.344812 101.6532 
L 257.087643 101.4984 
L 257.81922 101.48808 
L 258.576656 101.32296 
L 260.064896 101.7048 
L 260.815528 102.54072 
L 261.555266 103.08768 
L 262.285322 103.36632 
L 263.016194 104.22288 
L 263.774429 103.85136 
L 265.248107 103.43856 
L 265.998086 103.81008 
L 266.744723 103.72752 
L 267.489917 103.50048 
L 268.226768 103.5108 
L 268.974436 103.31472 
L 270.487908 102.61296 
L 271.206547 102.6336 
L 272.705036 103.28376 
L 274.175363 102.69552 
L 274.939371 102.582 
L 276.382215 103.15992 
L 277.124299 103.36632 
L 277.870386 103.36632 
L 278.603569 102.81936 
L 279.36 103.0464 
L 279.36 103.0464 
" clip-path="url(#pa90551e1cf)" style="fill: none; stroke: #bebebe; stroke-width: 0.5; stroke-linecap: round"/>
   </g>
   <g id="line2d_6">
    <path d="M 8.64 83.62416 
L 9.382281 83.41776 
L 10.124563 82.44768 
L 10.866844 82.6644 
L 11.609125 83.89248 
L 12.351407 81.38472 
L 13.093688 81.14736 
L 13.835969 82.34448 
L 14.57825 82.23096 
L 15.320532 81.426 
L 16.062813 81.8388 
L 16.805094 80.76552 
L 18.289657 75.83256 
L 19.031938 75.67776 
L 19.77422 75.91512 
L 21.258782 74.88312 
L 22.001063 73.09776 
L 22.743345 69.6096 
L 23.485626 67.91712 
L 24.227907 66.94704 
L 24.970189 66.24528 
L 25.71247 63.80976 
L 26.454751 63.70656 
L 27.197033 63.9852 
L 27.939314 65.71896 
L 28.681595 64.5528 
L 30.166158 64.05744 
L 30.908439 62.25144 
L 31.65072 63.39696 
L 32.393002 63.366 
L 33.135283 63.08736 
L 33.877564 64.72824 
L 34.619846 67.89648 
L 35.362127 69.16584 
L 36.104408 67.69008 
L 36.84669 64.4496 
L 37.588971 65.97696 
L 38.331252 64.914 
L 39.073533 61.54968 
L 39.815815 60.04296 
L 40.558096 56.28648 
L 41.300377 56.47224 
L 42.042659 56.83344 
L 42.78494 51.22968 
L 43.527221 48.89736 
L 44.269503 52.00368 
L 45.011784 53.84064 
L 45.754065 53.90256 
L 46.496346 53.00472 
L 47.238628 55.5228 
L 47.980909 59.12448 
L 48.72319 55.32672 
L 49.465472 56.90568 
L 50.207753 47.92728 
L 50.950034 48.75288 
L 51.692316 48.68064 
L 52.434597 54.57336 
L 53.176878 51.2916 
L 53.919159 52.80864 
L 54.661441 52.69512 
L 55.403722 54.82104 
L 56.888285 54.45984 
L 57.630566 55.7292 
L 58.372847 55.39896 
L 59.115129 53.55168 
L 59.85741 55.81176 
L 60.599691 55.6776 
L 61.341973 56.18328 
L 62.084254 55.71888 
L 63.568816 55.63632 
L 64.311098 55.07904 
L 65.053379 53.41752 
L 65.79566 49.71264 
L 66.537942 50.32152 
L 67.280223 51.17808 
L 68.022504 52.44744 
L 68.764786 52.74672 
L 69.507067 51.4464 
L 70.249348 51.46704 
L 70.991629 53.2524 
L 71.733911 53.08728 
L 72.476192 53.5104 
L 73.218473 57.26688 
L 73.960755 57.76224 
L 74.703036 58.02024 
L 75.445317 62.26176 
L 76.187599 59.68176 
L 76.92988 59.9604 
L 77.672161 58.12344 
L 78.414442 57.02952 
L 79.156724 58.09248 
L 79.899005 55.13064 
L 80.641286 53.046 
L 81.383568 52.5816 
L 82.125849 52.9944 
L 82.86813 52.5816 
L 83.610412 50.0016 
L 84.352693 53.48976 
L 85.094974 52.40616 
L 85.837256 54.75912 
L 86.579537 62.67456 
L 87.321818 63.95424 
L 88.064099 57.86544 
L 88.806381 56.57544 
L 89.548662 58.31952 
L 90.290943 60.4764 
L 91.033225 61.85928 
L 91.775506 62.73648 
L 92.517787 61.8696 
L 93.260069 60.45576 
L 94.00235 60.54864 
L 94.744631 62.04504 
L 95.486912 63.16992 
L 96.229194 62.36496 
L 96.971475 61.21944 
L 97.713756 60.9408 
L 98.456038 57.83448 
L 99.198319 58.40208 
L 99.9406 60.49704 
L 101.425163 63.1596 
L 102.167444 62.49912 
L 102.909725 62.1276 
L 103.652007 61.56 
L 105.136569 70.66224 
L 105.878851 68.72208 
L 106.621132 70.4868 
L 107.363413 68.61888 
L 108.105695 69.11424 
L 108.847976 66.5136 
L 109.590257 66.68904 
L 110.332539 68.8872 
L 111.07482 68.9904 
L 111.817101 71.5704 
L 112.559382 73.48992 
L 113.301664 72.54048 
L 114.786226 74.74896 
L 115.528508 73.3248 
L 116.270789 74.80056 
L 117.01307 77.556 
L 117.755352 78.55704 
L 118.497633 78.50544 
L 119.239914 78.04104 
L 119.982195 75.76032 
L 120.724477 75.73968 
L 121.466758 74.65608 
L 122.209039 74.83152 
L 122.951321 74.57352 
L 123.693602 75.20304 
L 124.435883 75.17208 
L 125.178165 78.05136 
L 126.662727 72.16896 
L 127.405008 73.08744 
L 128.14729 74.72832 
L 129.631852 74.28456 
L 130.374134 73.21128 
L 131.116415 70.2804 
L 131.858696 70.2288 
L 132.600978 71.56008 
L 133.343259 73.79952 
L 134.08554 73.35576 
L 134.827822 74.0988 
L 135.570103 75.5952 
L 136.312384 75.5952 
L 137.054665 77.61792 
L 137.796947 77.63856 
L 138.539228 75.40944 
L 139.281509 75.40944 
L 140.023791 75.04824 
L 140.766072 74.98632 
L 141.508353 75.58488 
L 142.250635 75.87384 
L 142.992916 76.49304 
L 144.477478 75.82224 
L 145.21976 75.84288 
L 145.962041 76.03896 
L 146.704322 75.51264 
L 147.446604 75.56424 
L 148.188885 75.05856 
L 148.931166 73.26288 
L 149.673448 73.20096 
L 150.415729 73.00488 
L 151.15801 71.68392 
L 151.900291 70.6932 
L 152.642573 72.62304 
L 153.384854 73.52088 
L 154.127135 73.83048 
L 154.869417 73.8408 
L 155.611698 73.29384 
L 156.353979 73.72728 
L 157.096261 70.32168 
L 157.838542 69.77472 
L 158.580823 70.34232 
L 159.323105 70.67256 
L 160.065386 70.51776 
L 160.807667 70.848 
L 161.549948 72.31344 
L 162.29223 76.01832 
L 163.034511 75.41976 
L 163.776792 75.83256 
L 165.261355 75.82224 
L 166.003636 77.82432 
L 166.745918 76.14216 
L 167.488199 74.75928 
L 168.23048 74.96568 
L 168.972761 77.75208 
L 169.715043 79.48584 
L 170.457324 83.31456 
L 171.199605 85.90488 
L 171.941887 84.79032 
L 172.568539 85.84296 
L 173.900324 91.41576 
L 174.639426 88.7532 
L 176.134831 88.55712 
L 176.881348 88.96992 
L 178.361701 90.456 
L 179.103759 90.56952 
L 179.837114 89.15568 
L 180.540228 88.9596 
L 181.330121 90.6624 
L 181.979162 89.94 
L 182.813507 90.00192 
L 184.292829 90.62112 
L 185.781335 90.3528 
L 186.52585 92.004 
L 187.205424 92.13816 
L 188.007741 91.25064 
L 188.746714 89.166 
L 189.487587 89.56848 
L 190.221122 90.93072 
L 190.980268 89.41368 
L 191.714886 90.37344 
L 192.458894 89.79552 
L 193.197017 90.23928 
L 193.940897 88.0824 
L 194.682826 88.7532 
L 195.419411 90.16704 
L 196.1689 90.67272 
L 196.913407 90.18768 
L 197.65092 89.2692 
L 198.392909 89.54784 
L 199.138111 89.49624 
L 199.878958 88.31976 
L 200.620251 88.45392 
L 201.376734 88.46424 
L 202.121111 86.38992 
L 202.850403 84.80064 
L 203.598346 84.8316 
L 204.340833 86.586 
L 205.075889 87.74184 
L 205.813823 87.618 
L 206.567205 88.19592 
L 207.31123 89.08344 
L 208.046638 87.89664 
L 208.844204 87.3084 
L 209.54023 87.65928 
L 211.018633 90.07416 
L 212.515429 89.3724 
L 213.253029 89.00088 
L 214.001676 88.42296 
L 215.477312 89.10408 
L 216.213236 89.14536 
L 216.966695 89.07312 
L 217.710892 87.9792 
L 218.448353 88.29912 
L 219.191837 86.38992 
L 219.931533 87.24648 
L 220.680644 87.1536 
L 221.411576 86.21448 
L 222.913261 87.01944 
L 223.650817 84.44976 
L 224.392532 85.05864 
L 225.138026 84.58392 
L 225.878795 85.04832 
L 226.612889 83.71704 
L 227.364973 84.86256 
L 228.109093 85.6572 
L 228.848118 85.27536 
L 229.588097 84.49104 
L 231.077634 85.32696 
L 231.811058 85.17216 
L 232.564886 85.31664 
L 233.315165 84.11952 
L 234.059002 85.66752 
L 234.799255 85.26504 
L 235.542782 86.26608 
L 237.016512 85.38888 
L 237.773862 85.3992 
L 238.515885 84.09888 
L 239.997175 84.34656 
L 241.469581 85.7604 
L 242.214577 85.0896 
L 243.719956 84.9348 
L 244.451928 85.296 
L 245.19774 85.35792 
L 245.939197 86.1732 
L 246.685138 85.92552 
L 248.171307 87.13296 
L 248.920796 88.10304 
L 249.65776 87.9276 
L 250.402696 88.26816 
L 251.149204 87.78312 
L 251.885798 87.95856 
L 252.617881 88.94928 
L 253.371915 88.14432 
L 254.855 88.52616 
L 255.604902 88.86672 
L 256.344812 90.22896 
L 257.087643 89.82648 
L 257.81922 89.87808 
L 258.576656 89.46528 
L 259.329917 90.0432 
L 260.064896 89.96064 
L 260.815528 91.99368 
L 261.555266 93.05664 
L 262.285322 93.74808 
L 263.016194 97.02984 
L 263.774429 95.93592 
L 264.519993 95.07936 
L 265.248107 94.46016 
L 265.998086 95.47152 
L 267.489917 94.82136 
L 268.226768 94.8936 
L 268.974436 94.70784 
L 270.487908 93.40752 
L 271.206547 92.9844 
L 271.945271 93.93384 
L 272.705036 94.4292 
L 274.175363 93.87192 
L 274.939371 93.81 
L 275.637279 94.03704 
L 277.124299 95.48184 
L 277.870386 96.63768 
L 278.603569 96.14232 
L 279.36 96.30744 
L 279.36 96.30744 
" clip-path="url(#pa90551e1cf)" style="fill: none; stroke: #4a8dff; stroke-width: 0.6"/>
   </g>
   <g id="line2d_7">
    <path d="M 8.64 65.76024 
L 9.382281 65.50224 
L 10.124563 64.398 
L 10.866844 65.70864 
L 11.609125 67.2876 
L 12.351407 63.95424 
L 13.093688 63.14928 
L 13.835969 64.76952 
L 14.57825 64.58376 
L 15.320532 63.55176 
L 16.062813 64.5012 
L 16.805094 63.82008 
L 17.547376 61.36392 
L 18.289657 56.64768 
L 19.031938 54.89328 
L 19.77422 55.04808 
L 20.516501 53.29368 
L 21.258782 52.55064 
L 22.001063 54.77976 
L 22.743345 53.67552 
L 23.485626 52.95312 
L 24.227907 54.45984 
L 24.970189 54.55272 
L 25.71247 55.22352 
L 26.454751 54.98616 
L 27.197033 52.4268 
L 27.939314 53.79936 
L 28.681595 54.08832 
L 29.423876 54.92424 
L 30.166158 54.4908 
L 30.908439 52.98408 
L 31.65072 54.44952 
L 32.393002 54.60432 
L 33.135283 54.62496 
L 34.619846 59.38248 
L 35.362127 60.09456 
L 36.104408 58.39176 
L 36.84669 57.41136 
L 37.588971 58.464 
L 38.331252 57.5352 
L 39.073533 55.0068 
L 39.815815 55.81176 
L 40.558096 55.99752 
L 41.300377 53.13888 
L 42.042659 53.64456 
L 42.78494 52.1688 
L 43.527221 48.69096 
L 44.269503 54.0264 
L 45.011784 55.13064 
L 45.754065 54.96552 
L 46.496346 54.92424 
L 47.238628 56.25552 
L 47.980909 59.8572 
L 48.72319 58.32984 
L 49.465472 60.23904 
L 50.207753 55.65696 
L 50.950034 57.18432 
L 51.692316 59.21736 
L 52.434597 62.55072 
L 53.176878 60.82728 
L 53.919159 61.47744 
L 54.661441 60.12552 
L 55.403722 64.31544 
L 56.146003 63.99552 
L 56.888285 64.5528 
L 57.630566 63.60336 
L 58.372847 61.5084 
L 59.115129 60.96144 
L 59.85741 61.98312 
L 60.599691 62.05536 
L 61.341973 62.51976 
L 62.826535 60.64152 
L 63.568816 61.13688 
L 64.311098 58.6188 
L 65.053379 57.03984 
L 65.79566 56.35872 
L 66.537942 56.5548 
L 67.280223 57.174 
L 68.022504 57.14304 
L 68.764786 55.7292 
L 69.507067 56.04912 
L 70.249348 55.33704 
L 70.991629 56.87472 
L 71.733911 56.8128 
L 72.476192 57.24624 
L 73.218473 59.93976 
L 73.960755 60.64152 
L 74.703036 59.29992 
L 75.445317 63.80976 
L 76.187599 63.03576 
L 76.92988 63.09768 
L 78.414442 58.27824 
L 79.156724 58.5672 
L 79.899005 53.93352 
L 80.641286 51.74568 
L 81.383568 50.04288 
L 82.125849 49.90872 
L 83.610412 47.43192 
L 84.352693 50.80656 
L 85.094974 48.90768 
L 85.837256 50.6208 
L 86.579537 59.42376 
L 87.321818 61.85928 
L 88.064099 57.35976 
L 88.806381 57.3288 
L 89.548662 59.46504 
L 91.033225 64.72824 
L 91.775506 66.42072 
L 92.517787 65.688 
L 93.260069 64.17096 
L 94.00235 62.10696 
L 94.744631 64.30512 
L 95.486912 65.20296 
L 96.229194 62.68488 
L 96.971475 61.70448 
L 97.713756 61.06464 
L 98.456038 58.1028 
L 99.198319 58.40208 
L 99.9406 59.68176 
L 100.682882 62.6952 
L 101.425163 64.56312 
L 102.167444 63.18024 
L 102.909725 62.72616 
L 103.652007 62.06568 
L 104.394288 66.33816 
L 105.136569 71.40528 
L 105.878851 69.08328 
L 106.621132 71.7252 
L 107.363413 69.57864 
L 108.105695 70.72416 
L 108.847976 68.2164 
L 109.590257 66.978 
L 110.332539 70.03272 
L 111.07482 71.5188 
L 111.817101 73.3764 
L 112.559382 78.846 
L 113.301664 77.75208 
L 114.043945 78.88728 
L 114.786226 81.34344 
L 115.528508 80.53848 
L 116.270789 82.0452 
L 117.01307 86.92656 
L 117.755352 88.58808 
L 118.497633 88.96992 
L 119.239914 86.7924 
L 119.982195 85.296 
L 120.724477 86.24544 
L 121.466758 82.96368 
L 122.209039 82.13808 
L 122.951321 82.47864 
L 123.693602 82.58184 
L 124.435883 83.03592 
L 125.178165 87.3084 
L 125.920446 82.06584 
L 126.662727 79.71288 
L 127.405008 81.24024 
L 128.14729 84.17112 
L 128.889571 84.24336 
L 129.631852 83.29392 
L 130.374134 82.8192 
L 131.116415 80.64168 
L 131.858696 81.38472 
L 132.600978 80.87904 
L 133.343259 83.13912 
L 134.08554 83.19072 
L 135.570103 87.17424 
L 136.312384 85.71912 
L 137.054665 87.53544 
L 137.796947 88.17528 
L 138.539228 85.41984 
L 140.023791 84.9348 
L 140.766072 85.01736 
L 141.508353 86.14224 
L 142.250635 85.90488 
L 142.992916 86.328 
L 143.735197 86.24544 
L 144.477478 85.72944 
L 145.21976 85.7088 
L 145.962041 86.40024 
L 146.704322 85.09992 
L 147.446604 86.02872 
L 148.931166 83.53128 
L 150.415729 82.03488 
L 151.15801 79.39296 
L 151.900291 79.66128 
L 152.642573 82.15872 
L 153.384854 82.43736 
L 154.127135 82.93272 
L 154.869417 83.00496 
L 156.353979 82.28256 
L 157.096261 78.01008 
L 157.838542 76.19376 
L 158.580823 77.66952 
L 159.323105 77.74176 
L 160.065386 78.1752 
L 161.549948 80.8068 
L 162.29223 85.20312 
L 163.034511 84.12984 
L 163.776792 84.03696 
L 164.519074 84.06792 
L 165.261355 84.3156 
L 166.003636 87.02976 
L 166.745918 85.21344 
L 167.488199 84.28464 
L 168.23048 84.32592 
L 168.972761 89.08344 
L 169.715043 89.5272 
L 170.457324 95.14128 
L 171.199605 96.98856 
L 171.941887 95.08968 
L 173.15842 99.80592 
L 173.900324 101.79768 
L 174.639426 100.03296 
L 175.398675 100.518 
L 176.134831 99.98136 
L 176.881348 100.49736 
L 179.103759 101.26104 
L 179.837114 100.63152 
L 180.540228 100.38384 
L 181.330121 100.84824 
L 181.979162 100.65216 
L 182.813507 101.034 
L 183.554886 101.19912 
L 185.781335 100.91016 
L 186.52585 101.7564 
L 187.205424 101.84928 
L 188.007741 101.56032 
L 188.746714 100.85856 
L 190.221122 101.4468 
L 190.980268 101.02368 
L 191.714886 101.30232 
L 192.458894 100.81728 
L 193.197017 100.79664 
L 193.940897 99.3312 
L 194.682826 99.92976 
L 195.419411 100.78632 
L 196.1689 101.17848 
L 196.913407 101.1372 
L 197.65092 100.21872 
L 199.138111 100.4664 
L 199.878958 99.88848 
L 200.620251 99.94008 
L 201.376734 99.81624 
L 202.121111 98.93904 
L 202.850403 98.3508 
L 203.598346 98.52624 
L 204.340833 99.78528 
L 205.075889 100.12584 
L 205.813823 100.03296 
L 207.31123 100.83792 
L 208.046638 100.11552 
L 208.844204 99.87816 
L 209.54023 100.002 
L 211.018633 101.41584 
L 211.771026 101.21976 
L 213.253029 101.00304 
L 214.001676 100.86888 
L 214.73418 101.21976 
L 215.477312 101.28168 
L 216.966695 101.14752 
L 217.710892 100.55928 
L 218.448353 100.65216 
L 219.191837 99.80592 
L 219.931533 99.96072 
L 220.680644 99.6408 
L 221.411576 99.1764 
L 222.167174 99.70272 
L 222.913261 99.94008 
L 223.650817 98.57784 
L 224.392532 98.65008 
L 225.138026 98.38176 
L 225.878795 98.48496 
L 226.612889 96.70992 
L 227.364973 98.05152 
L 228.109093 98.48496 
L 228.848118 97.96896 
L 229.588097 96.32808 
L 231.077634 96.16296 
L 231.811058 96.1836 
L 232.564886 96.50352 
L 233.315165 94.76976 
L 234.059002 97.19496 
L 234.799255 96.9576 
L 235.542782 97.9896 
L 236.293174 96.89568 
L 237.016512 95.45088 
L 237.773862 95.67792 
L 238.515885 93.43848 
L 239.997175 92.25168 
L 240.739654 92.87088 
L 241.469581 94.2744 
L 242.214577 93.1392 
L 242.971816 92.97408 
L 243.719956 92.9844 
L 244.451928 92.60256 
L 245.19774 92.53032 
L 245.939197 94.54272 
L 246.685138 92.85024 
L 247.417943 94.82136 
L 248.171307 95.75016 
L 248.920796 96.97824 
L 250.402696 97.23624 
L 251.149204 95.94624 
L 251.885798 96.30744 
L 252.617881 98.08248 
L 254.123965 96.61704 
L 254.855 97.23624 
L 255.604902 98.08248 
L 256.344812 99.18672 
L 257.087643 99.03192 
L 257.81922 99.1248 
L 258.576656 98.74296 
L 259.329917 99.09384 
L 260.064896 100.0536 
L 260.815528 101.23008 
L 261.555266 101.99376 
L 262.285322 102.08664 
L 263.016194 102.8916 
L 263.774429 102.45816 
L 265.248107 102.10728 
L 265.998086 102.582 
L 267.489917 102.08664 
L 268.226768 102.066 
L 268.974436 101.86992 
L 269.741392 101.48808 
L 270.487908 101.40552 
L 271.206547 101.4984 
L 271.945271 101.97312 
L 272.705036 102.26208 
L 274.175363 101.90088 
L 274.939371 101.90088 
L 275.637279 102.0144 
L 276.382215 102.25176 
L 277.124299 102.6336 
L 277.870386 102.88128 
L 278.603569 102.77808 
L 279.36 102.85032 
L 279.36 102.85032 
" clip-path="url(#pa90551e1cf)" style="fill: none; stroke: #f5841e; stroke-width: 0.6"/>
   </g>
  </g>
 </g>
 <defs>
  <clipPath id="pa90551e1cf">
   <rect x="8.64" y="4.8" width="270.72" height="103.2"/>
  </clipPath>
 </defs>
</svg>
