<?xml version="1.0" encoding="utf-8" standalone="no"?>
<!DOCTYPE svg PUBLIC "-//W3C//DTD SVG 1.1//EN"
  "http://www.w3.org/Graphics/SVG/1.1/DTD/svg11.dtd">
<svg xmlns:xlink="http://www.w3.org/1999/xlink" width="288pt" height="120pt" viewBox="0 0 288 120" xmlns="http://www.w3.org/2000/svg" version="1.1">
<desc id="nav-meta">{"window":"3m","count":4,"labels":["18.12","17.01","15.02","17.03"],"tick_utc":["2025-12-18T12:00:00Z","2026-01-17T12:00:00Z","2026-02-15T02:00:29Z","2026-03-17T03:21:27Z"],"w":720,"h":300}</desc>

 <metadata>
  <rdf:RDF xmlns:dc="http://purl.org/dc/elements/1.1/" xmlns:cc="http://creativecommons.org/ns#" xmlns:rdf="http://www.w3.org/1999/02/22-rdf-syntax-ns#">
   <cc:Work>
    <dc:type rdf:resource="http://purl.org/dc/dcmitype/StillImage"/>
    <dc:date>2026-03-17T19:41:40.770334</dc:date>
    <dc:format>image/svg+xml</dc:format>
    <dc:creator>
     <cc:Agent>
      <dc:title>Matplotlib v3.10.8, https://matplotlib.org/</dc:title>
     </cc:Agent>
    </dc:creator>
   </cc:Work>
  </rdf:RDF>
 </metadata>
 <defs>
  <style type="text/css">*{stroke-linejoin: round; stroke-linecap: butt}</style>
 </defs>
 <g id="figure_1">
  <g id="patch_1">
   <path d="M 0 120 
L 288 120 
L 288 0 
L 0 0 
L 0 120 
z
" style="fill: none; opacity: 0"/>
  </g>
  <g id="axes_1">
   <g id="patch_2">
    <path d="M 8.64 108 
L 279.36 108 
L 279.36 4.8 
L 8.64 4.8 
L 8.64 108 
z
" style="fill: none"/>
   </g>
   <g id="matplotlib.axis_1"/>
   <g id="matplotlib.axis_2"/>
   <g id="line2d_1">
    <path d="M 8.64 87.36 
L 279.36 87.36 
" clip-path="url(#pbe38b68a7c)" style="fill: none; stroke: #b2b2b2; stroke-opacity: 0.35; stroke-width: 0.5; stroke-linecap: square"/>
   </g>
   <g id="line2d_2">
    <path d="M 8.64 66.72 
L 279.36 66.72 
" clip-path="url(#pbe38b68a7c)" style="fill: none; stroke: #b2b2b2; stroke-opacity: 0.35; stroke-width: 0.5; stroke-linecap: square"/>
   </g>
   <g id="line2d_3">
    <path d="M 8.64 46.08 
L 279.36 46.08 
" clip-path="url(#pbe38b68a7c)" style="fill: none; stroke: #b2b2b2; stroke-opacity: 0.35; stroke-width: 0.5; stroke-linecap: square"/>
   </g>
   <g id="line2d_4">
    <path d="M 8.64 25.44 
L 279.36 25.44 
" clip-path="url(#pbe38b68a7c)" style="fill: none; stroke: #b2b2b2; stroke-opacity: 0.35; stroke-width: 0.5; stroke-linecap: square"/>
   </g>
   <g id="line2d_5">
    <path d="M 8.64 92.87088 
L 11.694155 93.8616 
L 14.74831 92.02464 
L 17.802466 92.13816 
L 20.856621 92.07624 
L 23.910776 92.14848 
L 26.964931 92.64384 
L 30.019086 93.01536 
L 33.073242 93.69648 
L 36.127397 93.11856 
L 39.181552 92.44776 
L 42.235707 92.30328 
L 45.289863 92.87088 
L 48.344018 92.38584 
L 51.398173 92.47872 
L 54.452328 91.88016 
L 57.506483 90.42504 
L 60.560639 90.08448 
L 63.614794 89.92968 
L 66.668949 88.76352 
L 69.723104 87.94824 
L 72.777259 89.2692 
L 75.831415 88.72224 
L 78.88557 89.39304 
L 81.939725 89.40336 
L 84.99388 88.41264 
L 88.048036 88.4952 
L 91.102191 86.86464 
L 94.156346 86.42088 
L 97.210501 87.62832 
L 100.264656 86.93688 
L 103.318812 87.23616 
L 106.372967 88.63968 
L 109.427122 90.0432 
L 112.481277 92.12784 
L 115.535432 91.16808 
L 118.589588 91.46736 
L 121.643743 91.73568 
L 124.697898 91.78728 
L 127.752053 94.0164 
L 130.806209 92.5716 
L 133.860364 91.76664 
L 136.914519 92.33424 
L 139.968674 94.36728 
L 143.022829 94.46016 
L 146.076985 97.71096 
L 149.13114 98.48496 
L 152.185295 97.85544 
L 154.763688 99.10416 
L 157.190787 100.16712 
L 160.243387 102.23112 
L 163.284463 100.54896 
L 166.408432 100.70376 
L 169.437384 100.68312 
L 172.508966 100.95144 
L 175.556794 101.28168 
L 178.599955 101.71512 
L 181.653191 101.84928 
L 184.670619 101.034 
L 187.563618 100.54896 
L 190.813678 101.04432 
L 193.48419 100.81728 
L 196.917145 101.034 
L 199.967589 101.4984 
L 203.003893 101.33328 
L 206.039384 101.1372 
L 209.128428 101.06496 
L 212.191774 102.09696 
L 214.987917 102.05568 
L 218.289091 101.4984 
L 221.329637 100.60056 
L 224.377995 100.80696 
L 227.396165 101.45712 
L 230.51971 100.55928 
L 233.542334 101.10624 
L 236.603594 100.8792 
L 239.640641 100.74504 
L 242.701371 100.21872 
L 245.754077 100.53864 
L 248.784796 101.07528 
L 251.868609 101.38488 
L 254.931919 101.26104 
L 257.966456 100.78632 
L 261.019409 100.91016 
L 264.085583 100.99272 
L 267.133835 100.38384 
L 270.183925 100.50768 
L 273.296512 100.60056 
L 276.359293 99.76464 
L 279.36 99.49632 
" clip-path="url(#pbe38b68a7c)" style="fill: none; stroke: #bebebe; stroke-width: 0.5; stroke-linecap: round"/>
   </g>
   <g id="line2d_6">
    <path d="M 8.64 77.61792 
L 11.694155 77.63856 
L 14.74831 75.40944 
L 17.802466 75.40944 
L 20.856621 75.04824 
L 23.910776 74.98632 
L 26.964931 75.58488 
L 30.019086 75.87384 
L 33.073242 76.49304 
L 36.127397 76.15248 
L 39.181552 75.82224 
L 42.235707 75.84288 
L 45.289863 76.03896 
L 48.344018 75.51264 
L 51.398173 75.56424 
L 54.452328 75.05856 
L 57.506483 73.26288 
L 60.560639 73.20096 
L 63.614794 73.00488 
L 66.668949 71.68392 
L 69.723104 70.6932 
L 72.777259 72.62304 
L 75.831415 73.52088 
L 78.88557 73.83048 
L 81.939725 73.8408 
L 84.99388 73.29384 
L 88.048036 73.72728 
L 91.102191 70.32168 
L 94.156346 69.77472 
L 97.210501 70.34232 
L 100.264656 70.67256 
L 103.318812 70.51776 
L 106.372967 70.848 
L 109.427122 72.31344 
L 112.481277 76.01832 
L 115.535432 75.41976 
L 118.589588 75.83256 
L 121.643743 75.79128 
L 124.697898 75.82224 
L 127.752053 77.82432 
L 130.806209 76.14216 
L 133.860364 74.75928 
L 136.914519 74.96568 
L 139.968674 77.75208 
L 143.022829 79.48584 
L 146.076985 83.31456 
L 149.13114 85.90488 
L 152.185295 84.79032 
L 154.763688 85.84296 
L 157.190787 88.25784 
L 160.243387 91.41576 
L 163.284463 88.7532 
L 166.408432 88.65 
L 169.437384 88.55712 
L 172.508966 88.96992 
L 175.556794 89.7336 
L 178.599955 90.456 
L 181.653191 90.56952 
L 184.670619 89.15568 
L 187.563618 88.9596 
L 190.813678 90.6624 
L 193.48419 89.94 
L 196.917145 90.00192 
L 199.967589 90.3528 
L 203.003893 90.62112 
L 206.039384 90.5076 
L 209.128428 90.3528 
L 212.191774 92.004 
L 214.987917 92.13816 
L 218.289091 91.25064 
L 221.329637 89.166 
L 224.377995 89.56848 
L 227.396165 90.93072 
L 230.51971 89.41368 
L 233.542334 90.37344 
L 236.603594 89.79552 
L 239.640641 90.23928 
L 242.701371 88.0824 
L 245.754077 88.7532 
L 248.784796 90.16704 
L 251.868609 90.67272 
L 254.931919 90.18768 
L 257.966456 89.2692 
L 261.019409 89.54784 
L 264.085583 89.49624 
L 267.133835 88.31976 
L 270.183925 88.45392 
L 273.296512 88.46424 
L 276.359293 86.38992 
L 279.36 84.80064 
" clip-path="url(#pbe38b68a7c)" style="fill: none; stroke: #4a8dff; stroke-width: 0.6"/>
   </g>
   <g id="line2d_7">
    <path d="M 8.64 87.53544 
L 11.694155 88.17528 
L 14.74831 85.41984 
L 17.802466 85.17216 
L 20.856621 84.9348 
L 23.910776 85.01736 
L 26.964931 86.14224 
L 30.019086 85.90488 
L 33.073242 86.328 
L 36.127397 86.24544 
L 39.181552 85.72944 
L 42.235707 85.7088 
L 45.289863 86.40024 
L 48.344018 85.09992 
L 51.398173 86.02872 
L 54.452328 84.78 
L 57.506483 83.53128 
L 60.560639 82.83984 
L 63.614794 82.03488 
L 66.668949 79.39296 
L 69.723104 79.66128 
L 72.777259 82.15872 
L 75.831415 82.43736 
L 78.88557 82.93272 
L 81.939725 83.00496 
L 84.99388 82.6128 
L 88.048036 82.28256 
L 91.102191 78.01008 
L 94.156346 76.19376 
L 97.210501 77.66952 
L 100.264656 77.74176 
L 103.318812 78.1752 
L 106.372967 79.5684 
L 109.427122 80.8068 
L 112.481277 85.20312 
L 115.535432 84.12984 
L 118.589588 84.03696 
L 121.643743 84.06792 
L 124.697898 84.3156 
L 127.752053 87.02976 
L 130.806209 85.21344 
L 133.860364 84.28464 
L 136.914519 84.32592 
L 139.968674 89.08344 
L 143.022829 89.5272 
L 146.076985 95.14128 
L 149.13114 96.98856 
L 152.185295 95.08968 
L 154.763688 97.71096 
L 157.190787 99.80592 
L 160.243387 101.79768 
L 163.284463 100.03296 
L 166.408432 100.518 
L 169.437384 99.98136 
L 172.508966 100.49736 
L 175.556794 100.78632 
L 178.599955 101.07528 
L 181.653191 101.26104 
L 184.670619 100.63152 
L 187.563618 100.38384 
L 190.813678 100.84824 
L 193.48419 100.65216 
L 196.917145 101.034 
L 199.967589 101.19912 
L 203.003893 101.10624 
L 206.039384 100.97208 
L 209.128428 100.91016 
L 212.191774 101.7564 
L 214.987917 101.84928 
L 218.289091 101.56032 
L 221.329637 100.85856 
L 224.377995 101.12688 
L 227.396165 101.4468 
L 230.51971 101.02368 
L 233.542334 101.30232 
L 236.603594 100.81728 
L 239.640641 100.79664 
L 242.701371 99.3312 
L 245.754077 99.92976 
L 248.784796 100.78632 
L 251.868609 101.17848 
L 254.931919 101.1372 
L 257.966456 100.21872 
L 261.019409 100.37352 
L 264.085583 100.4664 
L 267.133835 99.88848 
L 270.183925 99.94008 
L 273.296512 99.81624 
L 276.359293 98.93904 
L 279.36 98.3508 
" clip-path="url(#pbe38b68a7c)" style="fill: none; stroke: #f5841e; stroke-width: 0.6"/>
   </g>
  </g>
 </g>
 <defs>
  <clipPath id="pbe38b68a7c">
   <rect x="8.64" y="4.8" width="270.72" height="103.2"/>
  </clipPath>
 </defs>
</svg>
