<?xml version="1.0" encoding="utf-8" standalone="no"?>
<!DOCTYPE svg PUBLIC "-//W3C//DTD SVG 1.1//EN"
  "http://www.w3.org/Graphics/SVG/1.1/DTD/svg11.dtd">
<svg xmlns:xlink="http://www.w3.org/1999/xlink" width="288pt" height="120pt" viewBox="0 0 288 120" xmlns="http://www.w3.org/2000/svg" version="1.1">
<desc id="nav-meta">{"window":"1m","count":4,"labels":["26.01","05.02","15.02","25.02"],"tick_utc":["2026-01-26T12:00:00Z","2026-02-05T03:20:02Z","2026-02-15T02:00:29Z","2026-02-25T03:27:12Z"],"w":720,"h":300}</desc>

 <metadata>
  <rdf:RDF xmlns:dc="http://purl.org/dc/elements/1.1/" xmlns:cc="http://creativecommons.org/ns#" xmlns:rdf="http://www.w3.org/1999/02/22-rdf-syntax-ns#">
   <cc:Work>
    <dc:type rdf:resource="http://purl.org/dc/dcmitype/StillImage"/>
    <dc:date>2026-02-25T03:27:15.012187</dc:date>
    <dc:format>image/svg+xml</dc:format>
    <dc:creator>
     <cc:Agent>
      <dc:title>Matplotlib v3.10.8, https://matplotlib.org/</dc:title>
     </cc:Agent>
    </dc:creator>
   </cc:Work>
  </rdf:RDF>
 </metadata>
 <defs>
  <style type="text/css">*{stroke-linejoin: round; stroke-linecap: butt}</style>
 </defs>
 <g id="figure_1">
  <g id="patch_1">
   <path d="M 0 120 
L 288 120 
L 288 0 
L 0 0 
L 0 120 
z
" style="fill: none; opacity: 0"/>
  </g>
  <g id="axes_1">
   <g id="patch_2">
    <path d="M 8.64 108 
L 279.36 108 
L 279.36 4.8 
L 8.64 4.8 
L 8.64 108 
z
" style="fill: none"/>
   </g>
   <g id="matplotlib.axis_1"/>
   <g id="matplotlib.axis_2"/>
   <g id="line2d_1">
    <path d="M 8.64 87.36 
L 279.36 87.36 
" clip-path="url(#pf920228411)" style="fill: none; stroke: #b2b2b2; stroke-opacity: 0.35; stroke-width: 0.5; stroke-linecap: square"/>
   </g>
   <g id="line2d_2">
    <path d="M 8.64 66.72 
L 279.36 66.72 
" clip-path="url(#pf920228411)" style="fill: none; stroke: #b2b2b2; stroke-opacity: 0.35; stroke-width: 0.5; stroke-linecap: square"/>
   </g>
   <g id="line2d_3">
    <path d="M 8.64 46.08 
L 279.36 46.08 
" clip-path="url(#pf920228411)" style="fill: none; stroke: #b2b2b2; stroke-opacity: 0.35; stroke-width: 0.5; stroke-linecap: square"/>
   </g>
   <g id="line2d_4">
    <path d="M 8.64 25.44 
L 279.36 25.44 
" clip-path="url(#pf920228411)" style="fill: none; stroke: #b2b2b2; stroke-opacity: 0.35; stroke-width: 0.5; stroke-linecap: square"/>
   </g>
   <g id="line2d_5">
    <path d="M 8.64 94.0164 
L 17.772405 92.5716 
L 26.90481 91.76664 
L 36.037215 92.33424 
L 45.16962 94.36728 
L 54.302025 94.46016 
L 63.43443 97.71096 
L 72.566835 98.48496 
L 81.69924 97.85544 
L 89.409041 99.10416 
L 96.666449 100.16712 
L 105.794203 102.23112 
L 114.887499 100.54896 
L 124.22866 100.70376 
L 133.285702 100.68312 
L 142.470216 100.95144 
L 151.583701 101.28168 
L 160.683234 101.71512 
L 169.812891 101.84928 
L 178.835474 101.034 
L 187.485997 100.54896 
L 197.204187 101.04432 
L 205.189439 100.81728 
L 215.454516 101.034 
L 224.575823 101.4984 
L 233.65485 101.33328 
L 242.731445 101.1372 
L 251.968176 101.06496 
L 261.128062 102.09696 
L 269.488969 102.05568 
L 279.36 101.4984 
" clip-path="url(#pf920228411)" style="fill: none; stroke: #bebebe; stroke-width: 0.5; stroke-linecap: round"/>
   </g>
   <g id="line2d_6">
    <path d="M 8.64 77.82432 
L 17.772405 76.14216 
L 26.90481 74.75928 
L 36.037215 74.96568 
L 45.16962 77.75208 
L 54.302025 79.48584 
L 63.43443 83.31456 
L 72.566835 85.90488 
L 81.69924 84.79032 
L 89.409041 85.84296 
L 96.666449 88.25784 
L 105.794203 91.41576 
L 114.887499 88.7532 
L 124.22866 88.65 
L 133.285702 88.55712 
L 142.470216 88.96992 
L 151.583701 89.7336 
L 160.683234 90.456 
L 169.812891 90.56952 
L 178.835474 89.15568 
L 187.485997 88.9596 
L 197.204187 90.6624 
L 205.189439 89.94 
L 215.454516 90.00192 
L 224.575823 90.3528 
L 233.65485 90.62112 
L 242.731445 90.5076 
L 251.968176 90.3528 
L 261.128062 92.004 
L 269.488969 92.13816 
L 279.36 91.25064 
" clip-path="url(#pf920228411)" style="fill: none; stroke: #4a8dff; stroke-width: 0.6"/>
   </g>
   <g id="line2d_7">
    <path d="M 8.64 87.02976 
L 17.772405 85.21344 
L 26.90481 84.28464 
L 36.037215 84.32592 
L 45.16962 89.08344 
L 54.302025 89.5272 
L 63.43443 95.14128 
L 72.566835 96.98856 
L 81.69924 95.08968 
L 89.409041 97.71096 
L 96.666449 99.80592 
L 105.794203 101.79768 
L 114.887499 100.03296 
L 124.22866 100.518 
L 133.285702 99.98136 
L 142.470216 100.49736 
L 151.583701 100.78632 
L 160.683234 101.07528 
L 169.812891 101.26104 
L 178.835474 100.63152 
L 187.485997 100.38384 
L 197.204187 100.84824 
L 205.189439 100.65216 
L 215.454516 101.034 
L 224.575823 101.19912 
L 233.65485 101.10624 
L 242.731445 100.97208 
L 251.968176 100.91016 
L 261.128062 101.7564 
L 269.488969 101.84928 
L 279.36 101.56032 
" clip-path="url(#pf920228411)" style="fill: none; stroke: #f5841e; stroke-width: 0.6"/>
   </g>
  </g>
 </g>
 <defs>
  <clipPath id="pf920228411">
   <rect x="8.64" y="4.8" width="270.72" height="103.2"/>
  </clipPath>
 </defs>
</svg>
