<?xml version="1.0" encoding="utf-8" standalone="no"?>
<!DOCTYPE svg PUBLIC "-//W3C//DTD SVG 1.1//EN"
  "http://www.w3.org/Graphics/SVG/1.1/DTD/svg11.dtd">
<svg xmlns:xlink="http://www.w3.org/1999/xlink" width="288pt" height="120pt" viewBox="0 0 288 120" xmlns="http://www.w3.org/2000/svg" version="1.1">
<desc id="nav-meta">{"window":"1m","count":4,"labels":["13.03","23.03","01.04","11.04"],"tick_utc":["2026-03-13T03:16:57Z","2026-03-23T03:35:18Z","2026-04-01T03:54:32Z","2026-04-11T03:29:29Z"],"w":720,"h":300}</desc>

 <metadata>
  <rdf:RDF xmlns:dc="http://purl.org/dc/elements/1.1/" xmlns:cc="http://creativecommons.org/ns#" xmlns:rdf="http://www.w3.org/1999/02/22-rdf-syntax-ns#">
   <cc:Work>
    <dc:type rdf:resource="http://purl.org/dc/dcmitype/StillImage"/>
    <dc:date>2026-04-11T19:23:33.667957</dc:date>
    <dc:format>image/svg+xml</dc:format>
    <dc:creator>
     <cc:Agent>
      <dc:title>Matplotlib v3.10.8, https://matplotlib.org/</dc:title>
     </cc:Agent>
    </dc:creator>
   </cc:Work>
  </rdf:RDF>
 </metadata>
 <defs>
  <style type="text/css">*{stroke-linejoin: round; stroke-linecap: butt}</style>
 </defs>
 <g id="figure_1">
  <g id="patch_1">
   <path d="M 0 120 
L 288 120 
L 288 0 
L 0 0 
L 0 120 
z
" style="fill: none; opacity: 0"/>
  </g>
  <g id="axes_1">
   <g id="patch_2">
    <path d="M 8.64 108 
L 279.36 108 
L 279.36 4.8 
L 8.64 4.8 
L 8.64 108 
z
" style="fill: none"/>
   </g>
   <g id="matplotlib.axis_1"/>
   <g id="matplotlib.axis_2"/>
   <g id="line2d_1">
    <path d="M 8.64 87.36 
L 279.36 87.36 
" clip-path="url(#p3ffb2983d4)" style="fill: none; stroke: #b2b2b2; stroke-opacity: 0.35; stroke-width: 0.5; stroke-linecap: square"/>
   </g>
   <g id="line2d_2">
    <path d="M 8.64 66.72 
L 279.36 66.72 
" clip-path="url(#p3ffb2983d4)" style="fill: none; stroke: #b2b2b2; stroke-opacity: 0.35; stroke-width: 0.5; stroke-linecap: square"/>
   </g>
   <g id="line2d_3">
    <path d="M 8.64 46.08 
L 279.36 46.08 
" clip-path="url(#p3ffb2983d4)" style="fill: none; stroke: #b2b2b2; stroke-opacity: 0.35; stroke-width: 0.5; stroke-linecap: square"/>
   </g>
   <g id="line2d_4">
    <path d="M 8.64 25.44 
L 279.36 25.44 
" clip-path="url(#p3ffb2983d4)" style="fill: none; stroke: #b2b2b2; stroke-opacity: 0.35; stroke-width: 0.5; stroke-linecap: square"/>
   </g>
   <g id="line2d_5">
    <path d="M 8.64 100.38384 
L 17.95995 100.50768 
L 27.470868 100.60056 
L 36.829595 99.76464 
L 45.99865 99.49632 
L 55.402202 99.40344 
L 64.737166 100.09488 
L 73.978698 100.3632 
L 83.256415 100.19808 
L 92.72834 100.47672 
L 102.082638 100.79664 
L 111.328599 100.26 
L 121.356037 99.83688 
L 130.106864 100.13616 
L 139.451009 100.80696 
L 148.694161 101.38488 
L 158.153665 101.3436 
L 167.512716 101.292 
L 176.78622 101.28168 
L 186.198629 101.28168 
L 195.408081 101.8596 
L 204.751146 101.88024 
L 214.003588 101.72544 
L 223.476485 101.68416 
L 232.832943 101.47776 
L 242.104719 101.78736 
L 251.452213 101.09592 
L 260.752072 101.46744 
L 270.170314 101.3436 
L 279.36 101.05464 
" clip-path="url(#p3ffb2983d4)" style="fill: none; stroke: #bebebe; stroke-width: 0.5; stroke-linecap: round"/>
   </g>
   <g id="line2d_6">
    <path d="M 8.64 88.31976 
L 17.95995 88.45392 
L 27.470868 88.46424 
L 36.829595 86.38992 
L 45.99865 84.80064 
L 55.402202 84.8316 
L 64.737166 86.586 
L 73.978698 87.74184 
L 83.256415 87.618 
L 92.72834 88.19592 
L 102.082638 89.08344 
L 111.328599 87.89664 
L 121.356037 87.3084 
L 130.106864 87.65928 
L 139.451009 88.96992 
L 148.694161 90.07416 
L 158.153665 89.76456 
L 167.512716 89.3724 
L 176.78622 89.00088 
L 186.198629 88.42296 
L 195.408081 88.81512 
L 204.751146 89.10408 
L 214.003588 89.14536 
L 223.476485 89.07312 
L 232.832943 87.9792 
L 242.104719 88.29912 
L 251.452213 86.38992 
L 260.752072 87.24648 
L 270.170314 87.1536 
L 279.36 86.21448 
" clip-path="url(#p3ffb2983d4)" style="fill: none; stroke: #4a8dff; stroke-width: 0.6"/>
   </g>
   <g id="line2d_7">
    <path d="M 8.64 99.88848 
L 17.95995 99.94008 
L 27.470868 99.81624 
L 36.829595 98.93904 
L 45.99865 98.3508 
L 55.402202 98.52624 
L 64.737166 99.78528 
L 73.978698 100.12584 
L 83.256415 100.03296 
L 92.72834 100.45608 
L 102.082638 100.83792 
L 111.328599 100.11552 
L 121.356037 99.87816 
L 130.106864 100.002 
L 139.451009 100.64184 
L 148.694161 101.41584 
L 158.153665 101.21976 
L 167.512716 101.14752 
L 176.78622 101.00304 
L 186.198629 100.86888 
L 195.408081 101.21976 
L 204.751146 101.28168 
L 214.003588 101.20944 
L 223.476485 101.14752 
L 232.832943 100.55928 
L 242.104719 100.65216 
L 251.452213 99.80592 
L 260.752072 99.96072 
L 270.170314 99.6408 
L 279.36 99.1764 
" clip-path="url(#p3ffb2983d4)" style="fill: none; stroke: #f5841e; stroke-width: 0.6"/>
   </g>
  </g>
 </g>
 <defs>
  <clipPath id="p3ffb2983d4">
   <rect x="8.64" y="4.8" width="270.72" height="103.2"/>
  </clipPath>
 </defs>
</svg>
