<?xml version="1.0" encoding="utf-8" standalone="no"?>
<!DOCTYPE svg PUBLIC "-//W3C//DTD SVG 1.1//EN"
  "http://www.w3.org/Graphics/SVG/1.1/DTD/svg11.dtd">
<svg xmlns:xlink="http://www.w3.org/1999/xlink" width="288pt" height="120pt" viewBox="0 0 288 120" xmlns="http://www.w3.org/2000/svg" version="1.1">
<desc id="nav-meta">{"window":"6m","count":4,"labels":["18.10","17.12","15.02","16.04"],"tick_utc":["2025-10-18T12:00:00Z","2025-12-17T12:00:00Z","2026-02-15T02:00:29Z","2026-04-16T03:58:40Z"],"w":720,"h":300}</desc>

 <metadata>
  <rdf:RDF xmlns:dc="http://purl.org/dc/elements/1.1/" xmlns:cc="http://creativecommons.org/ns#" xmlns:rdf="http://www.w3.org/1999/02/22-rdf-syntax-ns#">
   <cc:Work>
    <dc:type rdf:resource="http://purl.org/dc/dcmitype/StillImage"/>
    <dc:date>2026-04-16T08:17:23.774399</dc:date>
    <dc:format>image/svg+xml</dc:format>
    <dc:creator>
     <cc:Agent>
      <dc:title>Matplotlib v3.10.8, https://matplotlib.org/</dc:title>
     </cc:Agent>
    </dc:creator>
   </cc:Work>
  </rdf:RDF>
 </metadata>
 <defs>
  <style type="text/css">*{stroke-linejoin: round; stroke-linecap: butt}</style>
 </defs>
 <g id="figure_1">
  <g id="patch_1">
   <path d="M 0 120 
L 288 120 
L 288 0 
L 0 0 
L 0 120 
z
" style="fill: none; opacity: 0"/>
  </g>
  <g id="axes_1">
   <g id="patch_2">
    <path d="M 8.64 108 
L 279.36 108 
L 279.36 4.8 
L 8.64 4.8 
L 8.64 108 
z
" style="fill: none"/>
   </g>
   <g id="matplotlib.axis_1"/>
   <g id="matplotlib.axis_2"/>
   <g id="line2d_1">
    <path d="M 8.64 87.36 
L 279.36 87.36 
" clip-path="url(#p7f79daf27a)" style="fill: none; stroke: #b2b2b2; stroke-opacity: 0.35; stroke-width: 0.5; stroke-linecap: square"/>
   </g>
   <g id="line2d_2">
    <path d="M 8.64 66.72 
L 279.36 66.72 
" clip-path="url(#p7f79daf27a)" style="fill: none; stroke: #b2b2b2; stroke-opacity: 0.35; stroke-width: 0.5; stroke-linecap: square"/>
   </g>
   <g id="line2d_3">
    <path d="M 8.64 46.08 
L 279.36 46.08 
" clip-path="url(#p7f79daf27a)" style="fill: none; stroke: #b2b2b2; stroke-opacity: 0.35; stroke-width: 0.5; stroke-linecap: square"/>
   </g>
   <g id="line2d_4">
    <path d="M 8.64 25.44 
L 279.36 25.44 
" clip-path="url(#p7f79daf27a)" style="fill: none; stroke: #b2b2b2; stroke-opacity: 0.35; stroke-width: 0.5; stroke-linecap: square"/>
   </g>
   <g id="line2d_5">
    <path d="M 8.64 76.76136 
L 10.146798 75.25464 
L 11.653596 75.24432 
L 13.160394 74.63544 
L 14.667192 75.73968 
L 16.173991 77.31864 
L 17.680789 74.202 
L 19.187587 73.64472 
L 20.694385 73.48992 
L 22.201183 71.83872 
L 23.707981 72.17928 
L 25.214779 73.38672 
L 26.721577 73.43832 
L 28.228376 76.15248 
L 29.735174 75.3372 
L 31.241972 75.58488 
L 32.74877 75.35784 
L 34.255568 81.168 
L 35.762366 84.01632 
L 37.269164 82.06584 
L 38.775962 84.19176 
L 40.28276 82.27224 
L 41.789559 83.29392 
L 43.296357 81.62208 
L 44.803155 80.72424 
L 46.309953 84.33624 
L 47.816751 84.64584 
L 49.323549 86.844 
L 50.830347 88.52616 
L 52.337145 88.36104 
L 53.843944 88.93896 
L 55.350742 90.79656 
L 56.85754 88.09272 
L 58.364338 89.22792 
L 59.871136 90.00192 
L 61.377934 91.39512 
L 62.884732 91.63248 
L 64.39153 90.75528 
L 65.898328 88.7016 
L 67.405127 88.52616 
L 68.911925 87.45288 
L 70.418723 88.0308 
L 71.925521 88.94928 
L 74.939117 89.7336 
L 76.445915 91.86984 
L 77.952713 88.60872 
L 79.459512 86.87496 
L 82.473108 90.11544 
L 83.979906 90.38376 
L 85.486704 90.53856 
L 86.993502 90.08448 
L 88.5003 88.79448 
L 90.007098 89.20728 
L 91.513896 89.22792 
L 93.020695 90.31152 
L 94.527493 90.10512 
L 96.034291 91.09584 
L 97.541089 91.61184 
L 99.047887 91.31256 
L 100.554685 92.87088 
L 102.061483 93.8616 
L 103.568281 92.02464 
L 105.07508 92.13816 
L 106.581878 92.07624 
L 108.088676 92.14848 
L 109.595474 92.64384 
L 111.102272 93.01536 
L 112.60907 93.69648 
L 115.622666 92.44776 
L 117.129464 92.30328 
L 118.636263 92.87088 
L 120.143061 92.38584 
L 121.649859 92.47872 
L 123.156657 91.88016 
L 124.663455 90.42504 
L 126.170253 90.08448 
L 127.677051 89.92968 
L 129.183849 88.76352 
L 130.690648 87.94824 
L 132.197446 89.2692 
L 133.704244 88.72224 
L 135.211042 89.39304 
L 136.71784 89.40336 
L 138.224638 88.41264 
L 139.731436 88.4952 
L 141.238234 86.86464 
L 142.745032 86.42088 
L 144.251831 87.62832 
L 145.758629 86.93688 
L 147.265427 87.23616 
L 150.279023 90.0432 
L 151.785821 92.12784 
L 153.292619 91.16808 
L 156.306216 91.73568 
L 157.813014 91.78728 
L 159.319812 94.0164 
L 160.82661 92.5716 
L 162.333408 91.76664 
L 163.840206 92.33424 
L 165.347004 94.36728 
L 166.853802 94.46016 
L 168.3606 97.71096 
L 169.867399 98.48496 
L 171.374197 97.85544 
L 173.843706 100.16712 
L 175.349737 102.23112 
L 176.850082 100.54896 
L 178.391324 100.70376 
L 179.885688 100.68312 
L 182.90476 101.28168 
L 184.406134 101.71512 
L 185.912479 101.84928 
L 187.401157 101.034 
L 188.828447 100.54896 
L 190.431897 101.04432 
L 191.749421 100.81728 
L 193.443104 101.034 
L 194.948071 101.4984 
L 199.467663 101.06496 
L 200.978995 102.09696 
L 202.3585 102.05568 
L 203.987168 101.4984 
L 205.487252 100.60056 
L 206.99119 100.80696 
L 208.480234 101.45712 
L 210.021266 100.55928 
L 211.512508 101.10624 
L 214.521169 100.74504 
L 216.031211 100.21872 
L 217.537294 100.53864 
L 219.03253 101.07528 
L 220.55396 101.38488 
L 222.065275 101.26104 
L 223.562394 100.78632 
L 226.581327 100.99272 
L 228.085212 100.38384 
L 231.125631 100.60056 
L 232.636684 99.76464 
L 234.117113 99.49632 
L 235.635404 99.40344 
L 237.142621 100.09488 
L 238.634752 100.3632 
L 240.132726 100.19808 
L 243.172395 100.79664 
L 244.665241 100.26 
L 246.284264 99.83688 
L 247.697166 100.13616 
L 250.698258 101.38488 
L 256.753703 101.28168 
L 258.240655 101.8596 
L 259.749179 101.88024 
L 261.243072 101.72544 
L 262.772559 101.68416 
L 264.283247 101.47776 
L 265.780261 101.78736 
L 267.289501 101.09592 
L 268.791049 101.46744 
L 270.311712 101.3436 
L 271.795472 101.05464 
L 273.329302 101.3952 
L 274.843826 101.47776 
L 276.341032 100.86888 
L 277.846679 101.26104 
L 279.36 100.99272 
L 279.36 100.99272 
" clip-path="url(#p7f79daf27a)" style="fill: none; stroke: #bebebe; stroke-width: 0.5; stroke-linecap: round"/>
   </g>
   <g id="line2d_6">
    <path d="M 8.64 62.73648 
L 10.146798 61.8696 
L 11.653596 60.45576 
L 13.160394 60.54864 
L 14.667192 62.04504 
L 16.173991 63.16992 
L 17.680789 62.36496 
L 19.187587 61.21944 
L 20.694385 60.9408 
L 22.201183 57.83448 
L 23.707981 58.40208 
L 25.214779 60.49704 
L 28.228376 63.1596 
L 29.735174 62.49912 
L 31.241972 62.1276 
L 32.74877 61.56 
L 35.762366 70.66224 
L 37.269164 68.72208 
L 38.775962 70.4868 
L 40.28276 68.61888 
L 41.789559 69.11424 
L 43.296357 66.5136 
L 44.803155 66.68904 
L 46.309953 68.8872 
L 47.816751 68.9904 
L 49.323549 71.5704 
L 50.830347 73.48992 
L 52.337145 72.54048 
L 53.843944 73.56216 
L 55.350742 74.74896 
L 56.85754 73.3248 
L 58.364338 74.80056 
L 59.871136 77.556 
L 61.377934 78.55704 
L 62.884732 78.50544 
L 64.39153 78.04104 
L 65.898328 75.76032 
L 67.405127 75.73968 
L 68.911925 74.65608 
L 70.418723 74.83152 
L 71.925521 74.57352 
L 73.432319 75.20304 
L 74.939117 75.17208 
L 76.445915 78.05136 
L 79.459512 72.16896 
L 80.96631 73.08744 
L 82.473108 74.72832 
L 85.486704 74.28456 
L 86.993502 73.21128 
L 88.5003 70.2804 
L 90.007098 70.2288 
L 91.513896 71.56008 
L 93.020695 73.79952 
L 94.527493 73.35576 
L 96.034291 74.0988 
L 97.541089 75.5952 
L 99.047887 75.5952 
L 100.554685 77.61792 
L 102.061483 77.63856 
L 103.568281 75.40944 
L 105.07508 75.40944 
L 106.581878 75.04824 
L 108.088676 74.98632 
L 109.595474 75.58488 
L 111.102272 75.87384 
L 112.60907 76.49304 
L 115.622666 75.82224 
L 117.129464 75.84288 
L 118.636263 76.03896 
L 120.143061 75.51264 
L 121.649859 75.56424 
L 123.156657 75.05856 
L 124.663455 73.26288 
L 126.170253 73.20096 
L 127.677051 73.00488 
L 129.183849 71.68392 
L 130.690648 70.6932 
L 132.197446 72.62304 
L 133.704244 73.52088 
L 135.211042 73.83048 
L 136.71784 73.8408 
L 138.224638 73.29384 
L 139.731436 73.72728 
L 141.238234 70.32168 
L 142.745032 69.77472 
L 144.251831 70.34232 
L 145.758629 70.67256 
L 147.265427 70.51776 
L 148.772225 70.848 
L 150.279023 72.31344 
L 151.785821 76.01832 
L 153.292619 75.41976 
L 154.799417 75.83256 
L 157.813014 75.82224 
L 159.319812 77.82432 
L 160.82661 76.14216 
L 162.333408 74.75928 
L 163.840206 74.96568 
L 165.347004 77.75208 
L 166.853802 79.48584 
L 168.3606 83.31456 
L 169.867399 85.90488 
L 171.374197 84.79032 
L 172.646273 85.84296 
L 175.349737 91.41576 
L 176.850082 88.7532 
L 179.885688 88.55712 
L 181.401084 88.96992 
L 184.406134 90.456 
L 185.912479 90.56952 
L 187.401157 89.15568 
L 188.828447 88.9596 
L 190.431897 90.6624 
L 191.749421 89.94 
L 193.443104 90.00192 
L 196.446062 90.62112 
L 199.467663 90.3528 
L 200.978995 92.004 
L 202.3585 92.13816 
L 203.987168 91.25064 
L 205.487252 89.166 
L 206.99119 89.56848 
L 208.480234 90.93072 
L 210.021266 89.41368 
L 211.512508 90.37344 
L 213.022812 89.79552 
L 214.521169 90.23928 
L 216.031211 88.0824 
L 217.537294 88.7532 
L 219.03253 90.16704 
L 220.55396 90.67272 
L 222.065275 90.18768 
L 223.562394 89.2692 
L 225.068599 89.54784 
L 226.581327 89.49624 
L 228.085212 88.31976 
L 229.590005 88.45392 
L 231.125631 88.46424 
L 232.636684 86.38992 
L 234.117113 84.80064 
L 235.635404 84.8316 
L 237.142621 86.586 
L 238.634752 87.74184 
L 240.132726 87.618 
L 241.662056 88.19592 
L 243.172395 89.08344 
L 244.665241 87.89664 
L 246.284264 87.3084 
L 247.697166 87.65928 
L 249.205865 88.96992 
L 250.698258 90.07416 
L 253.736689 89.3724 
L 255.233982 89.00088 
L 256.753703 88.42296 
L 259.749179 89.10408 
L 261.243072 89.14536 
L 262.772559 89.07312 
L 264.283247 87.9792 
L 265.780261 88.29912 
L 267.289501 86.38992 
L 268.791049 87.24648 
L 270.311712 87.1536 
L 271.795472 86.21448 
L 274.843826 87.01944 
L 276.341032 84.44976 
L 277.846679 85.05864 
L 279.36 84.58392 
L 279.36 84.58392 
" clip-path="url(#p7f79daf27a)" style="fill: none; stroke: #4a8dff; stroke-width: 0.6"/>
   </g>
   <g id="line2d_7">
    <path d="M 8.64 66.42072 
L 10.146798 65.688 
L 11.653596 64.17096 
L 13.160394 62.10696 
L 14.667192 64.30512 
L 16.173991 65.20296 
L 17.680789 62.68488 
L 19.187587 61.70448 
L 20.694385 61.06464 
L 22.201183 58.1028 
L 23.707981 58.40208 
L 25.214779 59.68176 
L 26.721577 62.6952 
L 28.228376 64.56312 
L 29.735174 63.18024 
L 31.241972 62.72616 
L 32.74877 62.06568 
L 34.255568 66.33816 
L 35.762366 71.40528 
L 37.269164 69.08328 
L 38.775962 71.7252 
L 40.28276 69.57864 
L 41.789559 70.72416 
L 43.296357 68.2164 
L 44.803155 66.978 
L 46.309953 70.03272 
L 47.816751 71.5188 
L 49.323549 73.3764 
L 50.830347 78.846 
L 52.337145 77.75208 
L 53.843944 78.88728 
L 55.350742 81.34344 
L 56.85754 80.53848 
L 58.364338 82.0452 
L 59.871136 86.92656 
L 61.377934 88.58808 
L 62.884732 88.96992 
L 64.39153 86.7924 
L 65.898328 85.296 
L 67.405127 86.24544 
L 68.911925 82.96368 
L 70.418723 82.13808 
L 71.925521 82.47864 
L 73.432319 82.58184 
L 74.939117 83.03592 
L 76.445915 87.3084 
L 77.952713 82.06584 
L 79.459512 79.71288 
L 80.96631 81.24024 
L 82.473108 84.17112 
L 83.979906 84.24336 
L 85.486704 83.29392 
L 86.993502 82.8192 
L 88.5003 80.64168 
L 90.007098 81.38472 
L 91.513896 80.87904 
L 93.020695 83.13912 
L 94.527493 83.19072 
L 96.034291 85.296 
L 97.541089 87.17424 
L 99.047887 85.71912 
L 100.554685 87.53544 
L 102.061483 88.17528 
L 103.568281 85.41984 
L 106.581878 84.9348 
L 108.088676 85.01736 
L 109.595474 86.14224 
L 111.102272 85.90488 
L 112.60907 86.328 
L 114.115868 86.24544 
L 115.622666 85.72944 
L 117.129464 85.7088 
L 118.636263 86.40024 
L 120.143061 85.09992 
L 121.649859 86.02872 
L 124.663455 83.53128 
L 127.677051 82.03488 
L 129.183849 79.39296 
L 130.690648 79.66128 
L 132.197446 82.15872 
L 133.704244 82.43736 
L 135.211042 82.93272 
L 136.71784 83.00496 
L 139.731436 82.28256 
L 141.238234 78.01008 
L 142.745032 76.19376 
L 144.251831 77.66952 
L 145.758629 77.74176 
L 147.265427 78.1752 
L 148.772225 79.5684 
L 150.279023 80.8068 
L 151.785821 85.20312 
L 153.292619 84.12984 
L 154.799417 84.03696 
L 156.306216 84.06792 
L 157.813014 84.3156 
L 159.319812 87.02976 
L 160.82661 85.21344 
L 162.333408 84.28464 
L 163.840206 84.32592 
L 165.347004 89.08344 
L 166.853802 89.5272 
L 168.3606 95.14128 
L 169.867399 96.98856 
L 171.374197 95.08968 
L 172.646273 97.71096 
L 173.843706 99.80592 
L 175.349737 101.79768 
L 176.850082 100.03296 
L 178.391324 100.518 
L 179.885688 99.98136 
L 181.401084 100.49736 
L 185.912479 101.26104 
L 187.401157 100.63152 
L 188.828447 100.38384 
L 190.431897 100.84824 
L 191.749421 100.65216 
L 193.443104 101.034 
L 194.948071 101.19912 
L 199.467663 100.91016 
L 200.978995 101.7564 
L 202.3585 101.84928 
L 203.987168 101.56032 
L 205.487252 100.85856 
L 208.480234 101.4468 
L 210.021266 101.02368 
L 211.512508 101.30232 
L 213.022812 100.81728 
L 214.521169 100.79664 
L 216.031211 99.3312 
L 217.537294 99.92976 
L 219.03253 100.78632 
L 220.55396 101.17848 
L 222.065275 101.1372 
L 223.562394 100.21872 
L 226.581327 100.4664 
L 228.085212 99.88848 
L 229.590005 99.94008 
L 231.125631 99.81624 
L 232.636684 98.93904 
L 234.117113 98.3508 
L 235.635404 98.52624 
L 237.142621 99.78528 
L 238.634752 100.12584 
L 240.132726 100.03296 
L 243.172395 100.83792 
L 244.665241 100.11552 
L 246.284264 99.87816 
L 247.697166 100.002 
L 249.205865 100.64184 
L 250.698258 101.41584 
L 252.225583 101.21976 
L 255.233982 101.00304 
L 256.753703 100.86888 
L 258.240655 101.21976 
L 259.749179 101.28168 
L 262.772559 101.14752 
L 264.283247 100.55928 
L 265.780261 100.65216 
L 267.289501 99.80592 
L 268.791049 99.96072 
L 270.311712 99.6408 
L 271.795472 99.1764 
L 273.329302 99.70272 
L 274.843826 99.94008 
L 276.341032 98.57784 
L 277.846679 98.65008 
L 279.36 98.38176 
L 279.36 98.38176 
" clip-path="url(#p7f79daf27a)" style="fill: none; stroke: #f5841e; stroke-width: 0.6"/>
   </g>
  </g>
 </g>
 <defs>
  <clipPath id="p7f79daf27a">
   <rect x="8.64" y="4.8" width="270.72" height="103.2"/>
  </clipPath>
 </defs>
</svg>
