<?xml version="1.0" encoding="utf-8" standalone="no"?>
<!DOCTYPE svg PUBLIC "-//W3C//DTD SVG 1.1//EN"
  "http://www.w3.org/Graphics/SVG/1.1/DTD/svg11.dtd">
<svg xmlns:xlink="http://www.w3.org/1999/xlink" width="288pt" height="120pt" viewBox="0 0 288 120" xmlns="http://www.w3.org/2000/svg" version="1.1">
<desc id="nav-meta">{"window":"6m","count":4,"labels":["18.01","19.03","17.05","16.07"],"tick_utc":["2026-01-18T12:00:00Z","2026-03-19T03:32:50Z","2026-05-17T04:42:26Z","2026-07-16T03:51:26Z"],"w":720,"h":300}</desc>

 <metadata>
  <rdf:RDF xmlns:dc="http://purl.org/dc/elements/1.1/" xmlns:cc="http://creativecommons.org/ns#" xmlns:rdf="http://www.w3.org/1999/02/22-rdf-syntax-ns#">
   <cc:Work>
    <dc:type rdf:resource="http://purl.org/dc/dcmitype/StillImage"/>
    <dc:date>2026-07-16T14:36:23.721937</dc:date>
    <dc:format>image/svg+xml</dc:format>
    <dc:creator>
     <cc:Agent>
      <dc:title>Matplotlib v3.11.0, https://matplotlib.org/</dc:title>
     </cc:Agent>
    </dc:creator>
   </cc:Work>
  </rdf:RDF>
 </metadata>
 <defs>
  <style type="text/css">*{stroke-linejoin: round; stroke-linecap: butt}</style>
 </defs>
 <g id="figure_1">
  <g id="patch_1">
   <path d="M 0 120 
L 288 120 
L 288 0 
L 0 0 
L 0 120 
z
" style="fill: none; opacity: 0"/>
  </g>
  <g id="axes_1">
   <g id="patch_2">
    <path d="M 8.64 108 
L 279.36 108 
L 279.36 4.8 
L 8.64 4.8 
L 8.64 108 
z
" style="fill: none"/>
   </g>
   <g id="matplotlib.axis_1"/>
   <g id="matplotlib.axis_2"/>
   <g id="line2d_1">
    <path d="M 8.64 87.36 
L 279.36 87.36 
" clip-path="url(#pf3b1c2f710)" style="fill: none; stroke: #b2b2b2; stroke-opacity: 0.35; stroke-width: 0.5; stroke-linecap: square"/>
   </g>
   <g id="line2d_2">
    <path d="M 8.64 66.72 
L 279.36 66.72 
" clip-path="url(#pf3b1c2f710)" style="fill: none; stroke: #b2b2b2; stroke-opacity: 0.35; stroke-width: 0.5; stroke-linecap: square"/>
   </g>
   <g id="line2d_3">
    <path d="M 8.64 46.08 
L 279.36 46.08 
" clip-path="url(#pf3b1c2f710)" style="fill: none; stroke: #b2b2b2; stroke-opacity: 0.35; stroke-width: 0.5; stroke-linecap: square"/>
   </g>
   <g id="line2d_4">
    <path d="M 8.64 25.44 
L 279.36 25.44 
" clip-path="url(#pf3b1c2f710)" style="fill: none; stroke: #b2b2b2; stroke-opacity: 0.35; stroke-width: 0.5; stroke-linecap: square"/>
   </g>
   <g id="line2d_5">
    <path d="M 8.64 87.23616 
L 11.670549 90.0432 
L 13.185823 92.12784 
L 14.701097 91.16808 
L 17.731646 91.73568 
L 19.24692 91.78728 
L 20.762195 94.0164 
L 22.277469 92.5716 
L 23.792743 91.76664 
L 25.308018 92.33424 
L 26.823292 94.36728 
L 28.338566 94.46016 
L 29.853841 97.71096 
L 31.369115 98.48496 
L 32.884389 97.85544 
L 35.367791 100.16712 
L 36.882293 102.23112 
L 38.391079 100.54896 
L 39.94099 100.70376 
L 41.44376 100.68312 
L 44.479816 101.28168 
L 45.989636 101.71512 
L 47.504454 101.84928 
L 49.001507 101.034 
L 50.436826 100.54896 
L 52.049295 101.04432 
L 53.374231 100.81728 
L 55.077441 101.034 
L 56.590874 101.4984 
L 61.13589 101.06496 
L 62.655724 102.09696 
L 64.04299 102.05568 
L 65.680819 101.4984 
L 67.189341 100.60056 
L 68.701739 100.80696 
L 70.19916 101.45712 
L 71.748861 100.55928 
L 73.248492 101.10624 
L 76.274077 100.74504 
L 77.792613 100.21872 
L 79.307169 100.53864 
L 80.810815 101.07528 
L 82.340804 101.38488 
L 83.860621 101.26104 
L 85.366161 100.78632 
L 88.402077 100.99272 
L 89.914422 100.38384 
L 92.971944 100.60056 
L 94.491498 99.76464 
L 95.980255 99.49632 
L 97.507087 99.40344 
L 99.022782 100.09488 
L 100.523307 100.3632 
L 102.029707 100.19808 
L 105.086475 100.79664 
L 106.587719 100.26 
L 108.21585 99.83688 
L 109.6367 100.13616 
L 112.654674 101.38488 
L 118.744183 101.28168 
L 120.239499 101.8596 
L 121.756509 101.88024 
L 123.258806 101.72544 
L 124.796897 101.68416 
L 126.316082 101.47776 
L 127.821518 101.78736 
L 129.339247 101.09592 
L 130.849243 101.46744 
L 132.37846 101.3436 
L 133.870566 101.05464 
L 135.413025 101.3952 
L 136.936068 101.47776 
L 138.441697 100.86888 
L 139.955813 101.26104 
L 141.477647 100.99272 
L 142.989835 100.61088 
L 144.488395 100.44576 
L 146.02368 100.94112 
L 147.542708 101.09592 
L 149.051335 101.00304 
L 150.56191 100.69344 
L 152.083322 100.9308 
L 156.638651 100.8792 
L 158.170253 100.64184 
L 159.688701 101.1888 
L 161.199837 101.09592 
L 162.717654 101.37456 
L 164.249484 101.21976 
L 167.272123 101.23008 
L 168.786872 100.92048 
L 170.268771 101.06496 
L 171.810738 100.70376 
L 173.326416 100.55928 
L 174.816471 100.53864 
L 176.337287 99.60984 
L 177.883095 99.72336 
L 180.904559 99.25896 
L 182.427041 99.32088 
L 183.940632 100.22904 
L 185.463378 100.01232 
L 188.497206 100.75536 
L 190.027195 101.02368 
L 191.531613 101.02368 
L 193.052306 101.17848 
L 194.576209 100.7244 
L 196.079874 100.75536 
L 197.574331 101.11656 
L 199.113597 100.91016 
L 200.648812 100.89984 
L 202.141129 101.1372 
L 203.671959 101.2404 
L 205.182393 101.6532 
L 206.69879 101.4984 
L 208.192212 101.48808 
L 209.738423 101.32296 
L 212.776478 101.7048 
L 214.308799 102.54072 
L 215.818882 103.08768 
L 217.3092 103.36632 
L 218.801184 104.22288 
L 220.349027 103.85136 
L 223.357355 103.43856 
L 224.888343 103.81008 
L 226.412509 103.72752 
L 227.933729 103.50048 
L 229.437919 103.5108 
L 230.96419 103.31472 
L 234.053753 102.61296 
L 235.520763 102.6336 
L 238.579741 103.28376 
L 241.581229 102.69552 
L 243.140857 102.582 
L 246.086242 103.15992 
L 247.601113 103.36632 
L 249.124156 103.36632 
L 250.620858 102.81936 
L 252.165017 103.0464 
L 253.691253 102.9432 
L 255.177151 102.59232 
L 256.714593 102.40656 
L 261.210872 101.3436 
L 262.748332 101.6532 
L 265.77083 101.63256 
L 267.244926 101.95248 
L 268.806132 102.08664 
L 270.317986 101.9112 
L 276.325277 102.45816 
L 277.840937 102.08664 
L 279.36 102.21048 
L 279.36 102.21048 
" clip-path="url(#pf3b1c2f710)" style="fill: none; stroke: #bebebe; stroke-width: 0.5; stroke-linecap: round"/>
   </g>
   <g id="line2d_6">
    <path d="M 8.64 70.51776 
L 10.155274 70.848 
L 11.670549 72.31344 
L 13.185823 76.01832 
L 14.701097 75.41976 
L 16.216372 75.83256 
L 19.24692 75.82224 
L 20.762195 77.82432 
L 22.277469 76.14216 
L 23.792743 74.75928 
L 25.308018 74.96568 
L 26.823292 77.75208 
L 28.338566 79.48584 
L 29.853841 83.31456 
L 31.369115 85.90488 
L 32.884389 84.79032 
L 34.163621 85.84296 
L 36.882293 91.41576 
L 38.391079 88.7532 
L 41.44376 88.55712 
L 42.967681 88.96992 
L 45.989636 90.456 
L 47.504454 90.56952 
L 49.001507 89.15568 
L 50.436826 88.9596 
L 52.049295 90.6624 
L 53.374231 89.94 
L 55.077441 90.00192 
L 58.097292 90.62112 
L 61.13589 90.3528 
L 62.655724 92.004 
L 64.04299 92.13816 
L 65.680819 91.25064 
L 67.189341 89.166 
L 68.701739 89.56848 
L 70.19916 90.93072 
L 71.748861 89.41368 
L 73.248492 90.37344 
L 74.767291 89.79552 
L 76.274077 90.23928 
L 77.792613 88.0824 
L 79.307169 88.7532 
L 80.810815 90.16704 
L 82.340804 90.67272 
L 83.860621 90.18768 
L 85.366161 89.2692 
L 86.88084 89.54784 
L 88.402077 89.49624 
L 89.914422 88.31976 
L 91.42768 88.45392 
L 92.971944 88.46424 
L 94.491498 86.38992 
L 95.980255 84.80064 
L 97.507087 84.8316 
L 99.022782 86.586 
L 100.523307 87.74184 
L 102.029707 87.618 
L 103.56764 88.19592 
L 105.086475 89.08344 
L 106.587719 87.89664 
L 108.21585 87.3084 
L 109.6367 87.65928 
L 111.153886 88.96992 
L 112.654674 90.07416 
L 115.710196 89.3724 
L 117.215913 89.00088 
L 118.744183 88.42296 
L 121.756509 89.10408 
L 123.258806 89.14536 
L 124.796897 89.07312 
L 126.316082 87.9792 
L 127.821518 88.29912 
L 129.339247 86.38992 
L 130.849243 87.24648 
L 132.37846 87.1536 
L 133.870566 86.21448 
L 136.936068 87.01944 
L 138.441697 84.44976 
L 139.955813 85.05864 
L 141.477647 84.58392 
L 142.989835 85.04832 
L 144.488395 83.71704 
L 146.02368 84.86256 
L 147.542708 85.6572 
L 149.051335 85.27536 
L 150.56191 84.49104 
L 153.602613 85.32696 
L 155.099805 85.17216 
L 156.638651 85.31664 
L 158.170253 84.11952 
L 159.688701 85.66752 
L 161.199837 85.26504 
L 162.717654 86.26608 
L 165.726088 85.38888 
L 167.272123 85.3992 
L 168.786872 84.09888 
L 171.810738 84.34656 
L 174.816471 85.7604 
L 176.337287 85.0896 
L 179.41033 84.9348 
L 180.904559 85.296 
L 182.427041 85.35792 
L 183.940632 86.1732 
L 185.463378 85.92552 
L 188.497206 87.13296 
L 190.027195 88.10304 
L 191.531613 87.9276 
L 193.052306 88.26816 
L 194.576209 87.78312 
L 196.079874 87.95856 
L 197.574331 88.94928 
L 199.113597 88.14432 
L 202.141129 88.52616 
L 203.671959 88.86672 
L 205.182393 90.22896 
L 206.69879 89.82648 
L 208.192212 89.87808 
L 209.738423 89.46528 
L 211.276111 90.0432 
L 212.776478 89.96064 
L 214.308799 91.99368 
L 215.818882 93.05664 
L 217.3092 93.74808 
L 218.801184 97.02984 
L 220.349027 95.93592 
L 221.871 95.07936 
L 223.357355 94.46016 
L 224.888343 95.47152 
L 227.933729 94.82136 
L 229.437919 94.8936 
L 230.96419 94.70784 
L 234.053753 93.40752 
L 235.520763 92.9844 
L 237.028777 93.93384 
L 238.579741 94.4292 
L 241.581229 93.87192 
L 243.140857 93.81 
L 244.565548 94.03704 
L 246.086242 94.83168 
L 247.601113 95.48184 
L 249.124156 96.63768 
L 250.620858 96.14232 
L 252.165017 96.30744 
L 253.691253 96.29712 
L 255.177151 96.04944 
L 256.714593 95.9256 
L 258.203333 95.39928 
L 259.702122 94.31568 
L 261.210872 93.57264 
L 262.748332 93.32496 
L 264.278285 93.22176 
L 265.77083 93.35592 
L 268.806132 93.77904 
L 270.317986 93.26304 
L 271.788521 92.92248 
L 273.326455 92.71608 
L 274.845044 93.15984 
L 276.325277 93.17016 
L 277.840937 91.80792 
L 279.36 91.14744 
L 279.36 91.14744 
" clip-path="url(#pf3b1c2f710)" style="fill: none; stroke: #4a8dff; stroke-width: 0.6"/>
   </g>
   <g id="line2d_7">
    <path d="M 8.64 78.1752 
L 10.155274 79.5684 
L 11.670549 80.8068 
L 13.185823 85.20312 
L 14.701097 84.12984 
L 16.216372 84.03696 
L 17.731646 84.06792 
L 19.24692 84.3156 
L 20.762195 87.02976 
L 22.277469 85.21344 
L 23.792743 84.28464 
L 25.308018 84.32592 
L 26.823292 89.08344 
L 28.338566 89.5272 
L 29.853841 95.14128 
L 31.369115 96.98856 
L 32.884389 95.08968 
L 34.163621 97.71096 
L 35.367791 99.80592 
L 36.882293 101.79768 
L 38.391079 100.03296 
L 39.94099 100.518 
L 41.44376 99.98136 
L 42.967681 100.49736 
L 47.504454 101.26104 
L 49.001507 100.63152 
L 50.436826 100.38384 
L 52.049295 100.84824 
L 53.374231 100.65216 
L 55.077441 101.034 
L 56.590874 101.19912 
L 61.13589 100.91016 
L 62.655724 101.7564 
L 64.04299 101.84928 
L 65.680819 101.56032 
L 67.189341 100.85856 
L 70.19916 101.4468 
L 71.748861 101.02368 
L 73.248492 101.30232 
L 74.767291 100.81728 
L 76.274077 100.79664 
L 77.792613 99.3312 
L 79.307169 99.92976 
L 80.810815 100.78632 
L 82.340804 101.17848 
L 83.860621 101.1372 
L 85.366161 100.21872 
L 88.402077 100.4664 
L 89.914422 99.88848 
L 91.42768 99.94008 
L 92.971944 99.81624 
L 94.491498 98.93904 
L 95.980255 98.3508 
L 97.507087 98.52624 
L 99.022782 99.78528 
L 100.523307 100.12584 
L 102.029707 100.03296 
L 105.086475 100.83792 
L 106.587719 100.11552 
L 108.21585 99.87816 
L 109.6367 100.002 
L 111.153886 100.64184 
L 112.654674 101.41584 
L 114.19059 101.21976 
L 117.215913 101.00304 
L 118.744183 100.86888 
L 120.239499 101.21976 
L 121.756509 101.28168 
L 124.796897 101.14752 
L 126.316082 100.55928 
L 127.821518 100.65216 
L 129.339247 99.80592 
L 130.849243 99.96072 
L 132.37846 99.6408 
L 133.870566 99.1764 
L 135.413025 99.70272 
L 136.936068 99.94008 
L 138.441697 98.57784 
L 139.955813 98.65008 
L 141.477647 98.38176 
L 142.989835 98.48496 
L 144.488395 96.70992 
L 146.02368 98.05152 
L 147.542708 98.48496 
L 149.051335 97.96896 
L 150.56191 96.32808 
L 153.602613 96.16296 
L 155.099805 96.1836 
L 156.638651 96.50352 
L 158.170253 94.76976 
L 159.688701 97.19496 
L 161.199837 96.9576 
L 162.717654 97.9896 
L 164.249484 96.89568 
L 165.726088 95.45088 
L 167.272123 95.67792 
L 168.786872 93.43848 
L 171.810738 92.25168 
L 173.326416 92.87088 
L 174.816471 94.2744 
L 176.337287 93.1392 
L 177.883095 92.97408 
L 179.41033 92.9844 
L 180.904559 92.60256 
L 182.427041 92.53032 
L 183.940632 94.54272 
L 185.463378 92.85024 
L 186.959308 94.82136 
L 188.497206 95.75016 
L 190.027195 96.97824 
L 193.052306 97.23624 
L 194.576209 95.94624 
L 196.079874 96.30744 
L 197.574331 98.08248 
L 199.113597 97.2672 
L 200.648812 96.61704 
L 202.141129 97.23624 
L 203.671959 98.08248 
L 205.182393 99.18672 
L 206.69879 99.03192 
L 208.192212 99.1248 
L 209.738423 98.74296 
L 211.276111 99.09384 
L 212.776478 100.0536 
L 214.308799 101.23008 
L 215.818882 101.99376 
L 217.3092 102.08664 
L 218.801184 102.8916 
L 220.349027 102.45816 
L 223.357355 102.10728 
L 224.888343 102.582 
L 227.933729 102.08664 
L 229.437919 102.066 
L 230.96419 101.86992 
L 232.529833 101.48808 
L 234.053753 101.40552 
L 235.520763 101.4984 
L 237.028777 101.97312 
L 238.579741 102.26208 
L 241.581229 101.90088 
L 243.140857 101.90088 
L 244.565548 102.0144 
L 246.086242 102.25176 
L 247.601113 102.6336 
L 249.124156 102.88128 
L 250.620858 102.77808 
L 256.714593 103.00512 
L 258.203333 102.69552 
L 259.702122 102.55104 
L 261.210872 102.2724 
L 265.77083 102.13824 
L 268.806132 102.36528 
L 270.317986 101.94216 
L 273.326455 101.9112 
L 274.845044 102.2208 
L 276.325277 102.31368 
L 277.840937 101.79768 
L 279.36 101.81832 
L 279.36 101.81832 
" clip-path="url(#pf3b1c2f710)" style="fill: none; stroke: #f5841e; stroke-width: 0.6"/>
   </g>
  </g>
 </g>
 <defs>
  <clipPath id="pf3b1c2f710">
   <rect x="8.64" y="4.8" width="270.72" height="103.2"/>
  </clipPath>
 </defs>
</svg>
