<?xml version="1.0" encoding="utf-8" standalone="no"?>
<!DOCTYPE svg PUBLIC "-//W3C//DTD SVG 1.1//EN"
  "http://www.w3.org/Graphics/SVG/1.1/DTD/svg11.dtd">
<svg xmlns:xlink="http://www.w3.org/1999/xlink" width="288pt" height="120pt" viewBox="0 0 288 120" xmlns="http://www.w3.org/2000/svg" version="1.1">
<desc id="nav-meta">{"window":"3m","count":4,"labels":["26.11","26.12","24.01","23.02"],"tick_utc":["2025-11-26T12:00:00Z","2025-12-26T12:00:00Z","2026-01-24T12:00:00Z","2026-02-23T03:32:23Z"],"w":720,"h":300}</desc>

 <metadata>
  <rdf:RDF xmlns:dc="http://purl.org/dc/elements/1.1/" xmlns:cc="http://creativecommons.org/ns#" xmlns:rdf="http://www.w3.org/1999/02/22-rdf-syntax-ns#">
   <cc:Work>
    <dc:type rdf:resource="http://purl.org/dc/dcmitype/StillImage"/>
    <dc:date>2026-02-23T13:54:14.057950</dc:date>
    <dc:format>image/svg+xml</dc:format>
    <dc:creator>
     <cc:Agent>
      <dc:title>Matplotlib v3.10.8, https://matplotlib.org/</dc:title>
     </cc:Agent>
    </dc:creator>
   </cc:Work>
  </rdf:RDF>
 </metadata>
 <defs>
  <style type="text/css">*{stroke-linejoin: round; stroke-linecap: butt}</style>
 </defs>
 <g id="figure_1">
  <g id="patch_1">
   <path d="M 0 120 
L 288 120 
L 288 0 
L 0 0 
L 0 120 
z
" style="fill: none; opacity: 0"/>
  </g>
  <g id="axes_1">
   <g id="patch_2">
    <path d="M 8.64 108 
L 279.36 108 
L 279.36 4.8 
L 8.64 4.8 
L 8.64 108 
z
" style="fill: none"/>
   </g>
   <g id="matplotlib.axis_1"/>
   <g id="matplotlib.axis_2"/>
   <g id="line2d_1">
    <path d="M 8.64 87.36 
L 279.36 87.36 
" clip-path="url(#pc42dceea1b)" style="fill: none; stroke: #b2b2b2; stroke-opacity: 0.35; stroke-width: 0.5; stroke-linecap: square"/>
   </g>
   <g id="line2d_2">
    <path d="M 8.64 66.72 
L 279.36 66.72 
" clip-path="url(#pc42dceea1b)" style="fill: none; stroke: #b2b2b2; stroke-opacity: 0.35; stroke-width: 0.5; stroke-linecap: square"/>
   </g>
   <g id="line2d_3">
    <path d="M 8.64 46.08 
L 279.36 46.08 
" clip-path="url(#pc42dceea1b)" style="fill: none; stroke: #b2b2b2; stroke-opacity: 0.35; stroke-width: 0.5; stroke-linecap: square"/>
   </g>
   <g id="line2d_4">
    <path d="M 8.64 25.44 
L 279.36 25.44 
" clip-path="url(#pc42dceea1b)" style="fill: none; stroke: #b2b2b2; stroke-opacity: 0.35; stroke-width: 0.5; stroke-linecap: square"/>
   </g>
   <g id="line2d_5">
    <path d="M 8.64 88.52616 
L 11.693894 87.45288 
L 14.747787 88.0308 
L 17.801681 88.94928 
L 20.855575 89.3208 
L 23.909468 89.7336 
L 26.963362 91.86984 
L 30.017255 88.60872 
L 33.071149 86.87496 
L 36.125043 88.52616 
L 39.178936 90.11544 
L 42.23283 90.38376 
L 45.286724 90.53856 
L 48.340617 90.08448 
L 51.394511 88.79448 
L 54.448404 89.20728 
L 57.502298 89.22792 
L 60.556192 90.31152 
L 63.610085 90.10512 
L 66.663979 91.09584 
L 69.717873 91.61184 
L 72.771766 91.31256 
L 75.82566 92.87088 
L 78.879553 93.8616 
L 81.933447 92.02464 
L 84.987341 92.13816 
L 88.041234 92.07624 
L 91.095128 92.14848 
L 94.149022 92.64384 
L 97.202915 93.01536 
L 100.256809 93.69648 
L 103.310702 93.11856 
L 106.364596 92.44776 
L 109.41849 92.30328 
L 112.472383 92.87088 
L 115.526277 92.38584 
L 118.580171 92.47872 
L 121.634064 91.88016 
L 124.687958 90.42504 
L 127.741851 90.08448 
L 130.795745 89.92968 
L 133.849639 88.76352 
L 136.903532 87.94824 
L 139.957426 89.2692 
L 143.01132 88.72224 
L 146.065213 89.39304 
L 149.119107 89.40336 
L 152.173 88.41264 
L 155.226894 88.4952 
L 158.280788 86.86464 
L 161.334681 86.42088 
L 164.388575 87.62832 
L 167.442469 86.93688 
L 170.496362 87.23616 
L 173.550256 88.63968 
L 176.60415 90.0432 
L 179.658043 92.12784 
L 182.711937 91.16808 
L 185.76583 91.46736 
L 188.819724 91.73568 
L 191.873618 91.78728 
L 194.927511 94.0164 
L 197.981405 92.5716 
L 201.035299 91.76664 
L 204.089192 92.33424 
L 207.143086 94.36728 
L 210.196979 94.46016 
L 213.250873 97.71096 
L 216.304767 98.48496 
L 219.35866 97.85544 
L 221.936832 99.10416 
L 224.363723 100.16712 
L 227.416062 102.23112 
L 230.456877 100.54896 
L 233.580579 100.70376 
L 236.609271 100.68312 
L 239.68059 100.95144 
L 242.728157 101.28168 
L 245.771058 101.71512 
L 248.824033 101.84928 
L 251.841202 101.034 
L 254.733953 100.54896 
L 257.983734 101.04432 
L 260.654018 100.81728 
L 264.086679 101.034 
L 267.136861 101.4984 
L 270.172905 101.33328 
L 273.208136 101.1372 
L 276.296916 101.06496 
L 279.36 102.09696 
" clip-path="url(#pc42dceea1b)" style="fill: none; stroke: #bebebe; stroke-width: 0.5; stroke-linecap: round"/>
   </g>
   <g id="line2d_6">
    <path d="M 8.64 75.73968 
L 11.693894 74.65608 
L 14.747787 74.83152 
L 17.801681 74.57352 
L 20.855575 75.20304 
L 23.909468 75.17208 
L 26.963362 78.05136 
L 30.017255 75.1308 
L 33.071149 72.16896 
L 36.125043 73.08744 
L 39.178936 74.72832 
L 42.23283 74.48064 
L 45.286724 74.28456 
L 48.340617 73.21128 
L 51.394511 70.2804 
L 54.448404 70.2288 
L 57.502298 71.56008 
L 60.556192 73.79952 
L 63.610085 73.35576 
L 66.663979 74.0988 
L 69.717873 75.5952 
L 72.771766 75.5952 
L 75.82566 77.61792 
L 78.879553 77.63856 
L 81.933447 75.40944 
L 84.987341 75.40944 
L 88.041234 75.04824 
L 91.095128 74.98632 
L 94.149022 75.58488 
L 97.202915 75.87384 
L 100.256809 76.49304 
L 103.310702 76.15248 
L 106.364596 75.82224 
L 109.41849 75.84288 
L 112.472383 76.03896 
L 115.526277 75.51264 
L 118.580171 75.56424 
L 121.634064 75.05856 
L 124.687958 73.26288 
L 127.741851 73.20096 
L 130.795745 73.00488 
L 133.849639 71.68392 
L 136.903532 70.6932 
L 139.957426 72.62304 
L 143.01132 73.52088 
L 146.065213 73.83048 
L 149.119107 73.8408 
L 152.173 73.29384 
L 155.226894 73.72728 
L 158.280788 70.32168 
L 161.334681 69.77472 
L 164.388575 70.34232 
L 167.442469 70.67256 
L 170.496362 70.51776 
L 173.550256 70.848 
L 176.60415 72.31344 
L 179.658043 76.01832 
L 182.711937 75.41976 
L 185.76583 75.83256 
L 188.819724 75.79128 
L 191.873618 75.82224 
L 194.927511 77.82432 
L 197.981405 76.14216 
L 201.035299 74.75928 
L 204.089192 74.96568 
L 207.143086 77.75208 
L 210.196979 79.48584 
L 213.250873 83.31456 
L 216.304767 85.90488 
L 219.35866 84.79032 
L 221.936832 85.84296 
L 224.363723 88.25784 
L 227.416062 91.41576 
L 230.456877 88.7532 
L 233.580579 88.65 
L 236.609271 88.55712 
L 239.68059 88.96992 
L 242.728157 89.7336 
L 245.771058 90.456 
L 248.824033 90.56952 
L 251.841202 89.15568 
L 254.733953 88.9596 
L 257.983734 90.6624 
L 260.654018 89.94 
L 264.086679 90.00192 
L 267.136861 90.3528 
L 270.172905 90.62112 
L 273.208136 90.5076 
L 276.296916 90.3528 
L 279.36 92.004 
" clip-path="url(#pc42dceea1b)" style="fill: none; stroke: #4a8dff; stroke-width: 0.6"/>
   </g>
   <g id="line2d_7">
    <path d="M 8.64 86.24544 
L 11.693894 82.96368 
L 14.747787 82.13808 
L 17.801681 82.47864 
L 20.855575 82.58184 
L 23.909468 83.03592 
L 26.963362 87.3084 
L 30.017255 82.06584 
L 33.071149 79.71288 
L 36.125043 81.24024 
L 39.178936 84.17112 
L 42.23283 84.24336 
L 45.286724 83.29392 
L 48.340617 82.8192 
L 51.394511 80.64168 
L 54.448404 81.38472 
L 57.502298 80.87904 
L 60.556192 83.13912 
L 63.610085 83.19072 
L 66.663979 85.296 
L 69.717873 87.17424 
L 72.771766 85.71912 
L 75.82566 87.53544 
L 78.879553 88.17528 
L 81.933447 85.41984 
L 84.987341 85.17216 
L 88.041234 84.9348 
L 91.095128 85.01736 
L 94.149022 86.14224 
L 97.202915 85.90488 
L 100.256809 86.328 
L 103.310702 86.24544 
L 106.364596 85.72944 
L 109.41849 85.7088 
L 112.472383 86.40024 
L 115.526277 85.09992 
L 118.580171 86.02872 
L 121.634064 84.78 
L 124.687958 83.53128 
L 127.741851 82.83984 
L 130.795745 82.03488 
L 133.849639 79.39296 
L 136.903532 79.66128 
L 139.957426 82.15872 
L 143.01132 82.43736 
L 146.065213 82.93272 
L 149.119107 83.00496 
L 152.173 82.6128 
L 155.226894 82.28256 
L 158.280788 78.01008 
L 161.334681 76.19376 
L 164.388575 77.66952 
L 167.442469 77.74176 
L 170.496362 78.1752 
L 173.550256 79.5684 
L 176.60415 80.8068 
L 179.658043 85.20312 
L 182.711937 84.12984 
L 185.76583 84.03696 
L 188.819724 84.06792 
L 191.873618 84.3156 
L 194.927511 87.02976 
L 197.981405 85.21344 
L 201.035299 84.28464 
L 204.089192 84.32592 
L 207.143086 89.08344 
L 210.196979 89.5272 
L 213.250873 95.14128 
L 216.304767 96.98856 
L 219.35866 95.08968 
L 221.936832 97.71096 
L 224.363723 99.80592 
L 227.416062 101.79768 
L 230.456877 100.03296 
L 233.580579 100.518 
L 236.609271 99.98136 
L 239.68059 100.49736 
L 242.728157 100.78632 
L 245.771058 101.07528 
L 248.824033 101.26104 
L 251.841202 100.63152 
L 254.733953 100.38384 
L 257.983734 100.84824 
L 260.654018 100.65216 
L 264.086679 101.034 
L 267.136861 101.19912 
L 270.172905 101.10624 
L 273.208136 100.97208 
L 276.296916 100.91016 
L 279.36 101.7564 
" clip-path="url(#pc42dceea1b)" style="fill: none; stroke: #f5841e; stroke-width: 0.6"/>
   </g>
  </g>
 </g>
 <defs>
  <clipPath id="pc42dceea1b">
   <rect x="8.64" y="4.8" width="270.72" height="103.2"/>
  </clipPath>
 </defs>
</svg>
