<?xml version="1.0" encoding="utf-8" standalone="no"?>
<!DOCTYPE svg PUBLIC "-//W3C//DTD SVG 1.1//EN"
  "http://www.w3.org/Graphics/SVG/1.1/DTD/svg11.dtd">
<svg xmlns:xlink="http://www.w3.org/1999/xlink" width="288pt" height="120pt" viewBox="0 0 288 120" xmlns="http://www.w3.org/2000/svg" version="1.1">
<desc id="nav-meta">{"window":"3m","count":4,"labels":["03.01","02.02","04.03","03.04"],"tick_utc":["2026-01-03T12:00:00Z","2026-02-02T12:00:00Z","2026-03-04T03:14:13Z","2026-04-03T03:37:13Z"],"w":720,"h":300}</desc>

 <metadata>
  <rdf:RDF xmlns:dc="http://purl.org/dc/elements/1.1/" xmlns:cc="http://creativecommons.org/ns#" xmlns:rdf="http://www.w3.org/1999/02/22-rdf-syntax-ns#">
   <cc:Work>
    <dc:type rdf:resource="http://purl.org/dc/dcmitype/StillImage"/>
    <dc:date>2026-04-03T07:46:07.419580</dc:date>
    <dc:format>image/svg+xml</dc:format>
    <dc:creator>
     <cc:Agent>
      <dc:title>Matplotlib v3.10.8, https://matplotlib.org/</dc:title>
     </cc:Agent>
    </dc:creator>
   </cc:Work>
  </rdf:RDF>
 </metadata>
 <defs>
  <style type="text/css">*{stroke-linejoin: round; stroke-linecap: butt}</style>
 </defs>
 <g id="figure_1">
  <g id="patch_1">
   <path d="M 0 120 
L 288 120 
L 288 0 
L 0 0 
L 0 120 
z
" style="fill: none; opacity: 0"/>
  </g>
  <g id="axes_1">
   <g id="patch_2">
    <path d="M 8.64 108 
L 279.36 108 
L 279.36 4.8 
L 8.64 4.8 
L 8.64 108 
z
" style="fill: none"/>
   </g>
   <g id="matplotlib.axis_1"/>
   <g id="matplotlib.axis_2"/>
   <g id="line2d_1">
    <path d="M 8.64 87.36 
L 279.36 87.36 
" clip-path="url(#p3750271bbe)" style="fill: none; stroke: #b2b2b2; stroke-opacity: 0.35; stroke-width: 0.5; stroke-linecap: square"/>
   </g>
   <g id="line2d_2">
    <path d="M 8.64 66.72 
L 279.36 66.72 
" clip-path="url(#p3750271bbe)" style="fill: none; stroke: #b2b2b2; stroke-opacity: 0.35; stroke-width: 0.5; stroke-linecap: square"/>
   </g>
   <g id="line2d_3">
    <path d="M 8.64 46.08 
L 279.36 46.08 
" clip-path="url(#p3750271bbe)" style="fill: none; stroke: #b2b2b2; stroke-opacity: 0.35; stroke-width: 0.5; stroke-linecap: square"/>
   </g>
   <g id="line2d_4">
    <path d="M 8.64 25.44 
L 279.36 25.44 
" clip-path="url(#p3750271bbe)" style="fill: none; stroke: #b2b2b2; stroke-opacity: 0.35; stroke-width: 0.5; stroke-linecap: square"/>
   </g>
   <g id="line2d_5">
    <path d="M 8.64 90.42504 
L 11.659715 90.08448 
L 14.67943 89.92968 
L 17.699145 88.76352 
L 20.71886 87.94824 
L 23.738575 89.2692 
L 26.75829 88.72224 
L 29.778005 89.39304 
L 32.79772 89.40336 
L 35.817435 88.41264 
L 38.83715 88.4952 
L 41.856865 86.86464 
L 44.87658 86.42088 
L 47.896295 87.62832 
L 50.91601 86.93688 
L 53.935725 87.23616 
L 56.95544 88.63968 
L 59.975155 90.0432 
L 62.99487 92.12784 
L 66.014585 91.16808 
L 69.0343 91.46736 
L 72.054015 91.73568 
L 75.07373 91.78728 
L 78.093445 94.0164 
L 81.11316 92.5716 
L 84.132875 91.76664 
L 87.15259 92.33424 
L 90.172305 94.36728 
L 93.19202 94.46016 
L 96.211735 97.71096 
L 99.23145 98.48496 
L 102.251165 97.85544 
L 104.800482 99.10416 
L 107.200212 100.16712 
L 110.218389 102.23112 
L 113.225172 100.54896 
L 116.313914 100.70376 
L 119.30871 100.68312 
L 122.345655 100.95144 
L 125.359114 101.28168 
L 128.36796 101.71512 
L 131.386766 101.84928 
L 134.370167 101.034 
L 137.230543 100.54896 
L 140.443954 101.04432 
L 143.084352 100.81728 
L 146.478595 101.034 
L 149.494641 101.4984 
L 152.496706 101.33328 
L 155.497967 101.1372 
L 158.552178 101.06496 
L 161.58098 102.09696 
L 164.345592 102.05568 
L 167.60954 101.4984 
L 170.615799 100.60056 
L 173.629782 100.80696 
L 176.613918 101.45712 
L 179.702241 100.55928 
L 182.69078 101.10624 
L 185.71752 100.8792 
L 188.720319 100.74504 
L 191.746535 100.21872 
L 194.764817 100.53864 
L 197.761359 101.07528 
L 200.810398 101.38488 
L 203.839165 101.26104 
L 206.839483 100.78632 
L 209.858009 100.91016 
L 212.889607 100.99272 
L 215.903486 100.38384 
L 218.919181 100.50768 
L 221.996669 100.60056 
L 225.024912 99.76464 
L 227.991782 99.49632 
L 231.034529 99.40344 
L 234.055083 100.09488 
L 237.045405 100.3632 
L 240.047435 100.19808 
L 243.112306 100.47672 
L 246.139116 100.79664 
L 249.130871 100.26 
L 252.375491 99.83688 
L 255.207033 100.13616 
L 258.230558 100.80696 
L 261.221404 101.38488 
L 264.282256 101.3436 
L 267.310603 101.292 
L 270.31127 101.28168 
L 273.356883 101.28168 
L 276.336825 101.8596 
L 279.36 101.88024 
" clip-path="url(#p3750271bbe)" style="fill: none; stroke: #bebebe; stroke-width: 0.5; stroke-linecap: round"/>
   </g>
   <g id="line2d_6">
    <path d="M 8.64 73.26288 
L 11.659715 73.20096 
L 14.67943 73.00488 
L 17.699145 71.68392 
L 20.71886 70.6932 
L 23.738575 72.62304 
L 26.75829 73.52088 
L 29.778005 73.83048 
L 32.79772 73.8408 
L 35.817435 73.29384 
L 38.83715 73.72728 
L 41.856865 70.32168 
L 44.87658 69.77472 
L 47.896295 70.34232 
L 50.91601 70.67256 
L 53.935725 70.51776 
L 56.95544 70.848 
L 59.975155 72.31344 
L 62.99487 76.01832 
L 66.014585 75.41976 
L 69.0343 75.83256 
L 72.054015 75.79128 
L 75.07373 75.82224 
L 78.093445 77.82432 
L 81.11316 76.14216 
L 84.132875 74.75928 
L 87.15259 74.96568 
L 90.172305 77.75208 
L 93.19202 79.48584 
L 96.211735 83.31456 
L 99.23145 85.90488 
L 102.251165 84.79032 
L 104.800482 85.84296 
L 107.200212 88.25784 
L 110.218389 91.41576 
L 113.225172 88.7532 
L 116.313914 88.65 
L 119.30871 88.55712 
L 122.345655 88.96992 
L 125.359114 89.7336 
L 128.36796 90.456 
L 131.386766 90.56952 
L 134.370167 89.15568 
L 137.230543 88.9596 
L 140.443954 90.6624 
L 143.084352 89.94 
L 146.478595 90.00192 
L 149.494641 90.3528 
L 152.496706 90.62112 
L 155.497967 90.5076 
L 158.552178 90.3528 
L 161.58098 92.004 
L 164.345592 92.13816 
L 167.60954 91.25064 
L 170.615799 89.166 
L 173.629782 89.56848 
L 176.613918 90.93072 
L 179.702241 89.41368 
L 182.69078 90.37344 
L 185.71752 89.79552 
L 188.720319 90.23928 
L 191.746535 88.0824 
L 194.764817 88.7532 
L 197.761359 90.16704 
L 200.810398 90.67272 
L 203.839165 90.18768 
L 206.839483 89.2692 
L 209.858009 89.54784 
L 212.889607 89.49624 
L 215.903486 88.31976 
L 218.919181 88.45392 
L 221.996669 88.46424 
L 225.024912 86.38992 
L 227.991782 84.80064 
L 231.034529 84.8316 
L 234.055083 86.586 
L 237.045405 87.74184 
L 240.047435 87.618 
L 243.112306 88.19592 
L 246.139116 89.08344 
L 249.130871 87.89664 
L 252.375491 87.3084 
L 255.207033 87.65928 
L 258.230558 88.96992 
L 261.221404 90.07416 
L 264.282256 89.76456 
L 267.310603 89.3724 
L 270.31127 89.00088 
L 273.356883 88.42296 
L 276.336825 88.81512 
L 279.36 89.10408 
" clip-path="url(#p3750271bbe)" style="fill: none; stroke: #4a8dff; stroke-width: 0.6"/>
   </g>
   <g id="line2d_7">
    <path d="M 8.64 83.53128 
L 11.659715 82.83984 
L 14.67943 82.03488 
L 17.699145 79.39296 
L 20.71886 79.66128 
L 23.738575 82.15872 
L 26.75829 82.43736 
L 29.778005 82.93272 
L 32.79772 83.00496 
L 35.817435 82.6128 
L 38.83715 82.28256 
L 41.856865 78.01008 
L 44.87658 76.19376 
L 47.896295 77.66952 
L 50.91601 77.74176 
L 53.935725 78.1752 
L 56.95544 79.5684 
L 59.975155 80.8068 
L 62.99487 85.20312 
L 66.014585 84.12984 
L 69.0343 84.03696 
L 72.054015 84.06792 
L 75.07373 84.3156 
L 78.093445 87.02976 
L 81.11316 85.21344 
L 84.132875 84.28464 
L 87.15259 84.32592 
L 90.172305 89.08344 
L 93.19202 89.5272 
L 96.211735 95.14128 
L 99.23145 96.98856 
L 102.251165 95.08968 
L 104.800482 97.71096 
L 107.200212 99.80592 
L 110.218389 101.79768 
L 113.225172 100.03296 
L 116.313914 100.518 
L 119.30871 99.98136 
L 122.345655 100.49736 
L 125.359114 100.78632 
L 128.36796 101.07528 
L 131.386766 101.26104 
L 134.370167 100.63152 
L 137.230543 100.38384 
L 140.443954 100.84824 
L 143.084352 100.65216 
L 146.478595 101.034 
L 149.494641 101.19912 
L 152.496706 101.10624 
L 155.497967 100.97208 
L 158.552178 100.91016 
L 161.58098 101.7564 
L 164.345592 101.84928 
L 167.60954 101.56032 
L 170.615799 100.85856 
L 173.629782 101.12688 
L 176.613918 101.4468 
L 179.702241 101.02368 
L 182.69078 101.30232 
L 185.71752 100.81728 
L 188.720319 100.79664 
L 191.746535 99.3312 
L 194.764817 99.92976 
L 197.761359 100.78632 
L 200.810398 101.17848 
L 203.839165 101.1372 
L 206.839483 100.21872 
L 209.858009 100.37352 
L 212.889607 100.4664 
L 215.903486 99.88848 
L 218.919181 99.94008 
L 221.996669 99.81624 
L 225.024912 98.93904 
L 227.991782 98.3508 
L 231.034529 98.52624 
L 234.055083 99.78528 
L 237.045405 100.12584 
L 240.047435 100.03296 
L 243.112306 100.45608 
L 246.139116 100.83792 
L 249.130871 100.11552 
L 252.375491 99.87816 
L 255.207033 100.002 
L 258.230558 100.64184 
L 261.221404 101.41584 
L 264.282256 101.21976 
L 267.310603 101.14752 
L 270.31127 101.00304 
L 273.356883 100.86888 
L 276.336825 101.21976 
L 279.36 101.28168 
" clip-path="url(#p3750271bbe)" style="fill: none; stroke: #f5841e; stroke-width: 0.6"/>
   </g>
  </g>
 </g>
 <defs>
  <clipPath id="p3750271bbe">
   <rect x="8.64" y="4.8" width="270.72" height="103.2"/>
  </clipPath>
 </defs>
</svg>
