<?xml version="1.0" encoding="utf-8" standalone="no"?>
<!DOCTYPE svg PUBLIC "-//W3C//DTD SVG 1.1//EN"
  "http://www.w3.org/Graphics/SVG/1.1/DTD/svg11.dtd">
<svg xmlns:xlink="http://www.w3.org/1999/xlink" width="288pt" height="120pt" viewBox="0 0 288 120" xmlns="http://www.w3.org/2000/svg" version="1.1">
<desc id="nav-meta">{"window":"3m","count":4,"labels":["03.12","02.01","31.01","02.03"],"tick_utc":["2025-12-03T12:00:00Z","2026-01-02T12:00:00Z","2026-01-31T12:00:00Z","2026-03-02T03:18:56Z"],"w":720,"h":300}</desc>

 <metadata>
  <rdf:RDF xmlns:dc="http://purl.org/dc/elements/1.1/" xmlns:cc="http://creativecommons.org/ns#" xmlns:rdf="http://www.w3.org/1999/02/22-rdf-syntax-ns#">
   <cc:Work>
    <dc:type rdf:resource="http://purl.org/dc/dcmitype/StillImage"/>
    <dc:date>2026-03-02T19:28:10.599010</dc:date>
    <dc:format>image/svg+xml</dc:format>
    <dc:creator>
     <cc:Agent>
      <dc:title>Matplotlib v3.10.8, https://matplotlib.org/</dc:title>
     </cc:Agent>
    </dc:creator>
   </cc:Work>
  </rdf:RDF>
 </metadata>
 <defs>
  <style type="text/css">*{stroke-linejoin: round; stroke-linecap: butt}</style>
 </defs>
 <g id="figure_1">
  <g id="patch_1">
   <path d="M 0 120 
L 288 120 
L 288 0 
L 0 0 
L 0 120 
z
" style="fill: none; opacity: 0"/>
  </g>
  <g id="axes_1">
   <g id="patch_2">
    <path d="M 8.64 108 
L 279.36 108 
L 279.36 4.8 
L 8.64 4.8 
L 8.64 108 
z
" style="fill: none"/>
   </g>
   <g id="matplotlib.axis_1"/>
   <g id="matplotlib.axis_2"/>
   <g id="line2d_1">
    <path d="M 8.64 87.36 
L 279.36 87.36 
" clip-path="url(#p0a01ec7e5c)" style="fill: none; stroke: #b2b2b2; stroke-opacity: 0.35; stroke-width: 0.5; stroke-linecap: square"/>
   </g>
   <g id="line2d_2">
    <path d="M 8.64 66.72 
L 279.36 66.72 
" clip-path="url(#p0a01ec7e5c)" style="fill: none; stroke: #b2b2b2; stroke-opacity: 0.35; stroke-width: 0.5; stroke-linecap: square"/>
   </g>
   <g id="line2d_3">
    <path d="M 8.64 46.08 
L 279.36 46.08 
" clip-path="url(#p0a01ec7e5c)" style="fill: none; stroke: #b2b2b2; stroke-opacity: 0.35; stroke-width: 0.5; stroke-linecap: square"/>
   </g>
   <g id="line2d_4">
    <path d="M 8.64 25.44 
L 279.36 25.44 
" clip-path="url(#p0a01ec7e5c)" style="fill: none; stroke: #b2b2b2; stroke-opacity: 0.35; stroke-width: 0.5; stroke-linecap: square"/>
   </g>
   <g id="line2d_5">
    <path d="M 8.64 88.60872 
L 11.694215 86.87496 
L 14.748431 88.52616 
L 17.802646 90.11544 
L 20.856862 90.38376 
L 23.911077 90.53856 
L 26.965293 90.08448 
L 30.019508 88.79448 
L 33.073723 89.20728 
L 36.127939 89.22792 
L 39.182154 90.31152 
L 42.23637 90.10512 
L 45.290585 91.09584 
L 48.344801 91.61184 
L 51.399016 91.31256 
L 54.453231 92.87088 
L 57.507447 93.8616 
L 60.561662 92.02464 
L 63.615878 92.13816 
L 66.670093 92.07624 
L 69.724309 92.14848 
L 72.778524 92.64384 
L 75.83274 93.01536 
L 78.886955 93.69648 
L 81.94117 93.11856 
L 84.995386 92.44776 
L 88.049601 92.30328 
L 91.103817 92.87088 
L 94.158032 92.38584 
L 97.212248 92.47872 
L 100.266463 91.88016 
L 103.320678 90.42504 
L 106.374894 90.08448 
L 109.429109 89.92968 
L 112.483325 88.76352 
L 115.53754 87.94824 
L 118.591756 89.2692 
L 121.645971 88.72224 
L 124.700186 89.39304 
L 127.754402 89.40336 
L 130.808617 88.41264 
L 133.862833 88.4952 
L 136.917048 86.86464 
L 139.971264 86.42088 
L 143.025479 87.62832 
L 146.079694 86.93688 
L 149.13391 87.23616 
L 152.188125 88.63968 
L 155.242341 90.0432 
L 158.296556 92.12784 
L 161.350772 91.16808 
L 164.404987 91.46736 
L 167.459203 91.73568 
L 170.513418 91.78728 
L 173.567633 94.0164 
L 176.621849 92.5716 
L 179.676064 91.76664 
L 182.73028 92.33424 
L 185.784495 94.36728 
L 188.838711 94.46016 
L 191.892926 97.71096 
L 194.947141 98.48496 
L 198.001357 97.85544 
L 200.5798 99.10416 
L 203.006947 100.16712 
L 206.059607 102.23112 
L 209.100743 100.54896 
L 212.224774 100.70376 
L 215.253786 100.68312 
L 218.325428 100.95144 
L 221.373316 101.28168 
L 224.416538 101.71512 
L 227.469834 101.84928 
L 230.487321 101.034 
L 233.380377 100.54896 
L 236.630501 101.04432 
L 239.301066 100.81728 
L 242.734089 101.034 
L 245.784593 101.4984 
L 248.820956 101.33328 
L 251.856507 101.1372 
L 254.945613 101.06496 
L 258.009019 102.09696 
L 260.805217 102.05568 
L 264.106456 101.4984 
L 267.147062 100.60056 
L 270.19548 100.80696 
L 273.21371 101.45712 
L 276.337317 100.55928 
L 279.36 101.10624 
" clip-path="url(#p0a01ec7e5c)" style="fill: none; stroke: #bebebe; stroke-width: 0.5; stroke-linecap: round"/>
   </g>
   <g id="line2d_6">
    <path d="M 8.64 75.1308 
L 11.694215 72.16896 
L 14.748431 73.08744 
L 17.802646 74.72832 
L 20.856862 74.48064 
L 23.911077 74.28456 
L 26.965293 73.21128 
L 30.019508 70.2804 
L 33.073723 70.2288 
L 36.127939 71.56008 
L 39.182154 73.79952 
L 42.23637 73.35576 
L 45.290585 74.0988 
L 48.344801 75.5952 
L 51.399016 75.5952 
L 54.453231 77.61792 
L 57.507447 77.63856 
L 60.561662 75.40944 
L 63.615878 75.40944 
L 66.670093 75.04824 
L 69.724309 74.98632 
L 72.778524 75.58488 
L 75.83274 75.87384 
L 78.886955 76.49304 
L 81.94117 76.15248 
L 84.995386 75.82224 
L 88.049601 75.84288 
L 91.103817 76.03896 
L 94.158032 75.51264 
L 97.212248 75.56424 
L 100.266463 75.05856 
L 103.320678 73.26288 
L 106.374894 73.20096 
L 109.429109 73.00488 
L 112.483325 71.68392 
L 115.53754 70.6932 
L 118.591756 72.62304 
L 121.645971 73.52088 
L 124.700186 73.83048 
L 127.754402 73.8408 
L 130.808617 73.29384 
L 133.862833 73.72728 
L 136.917048 70.32168 
L 139.971264 69.77472 
L 143.025479 70.34232 
L 146.079694 70.67256 
L 149.13391 70.51776 
L 152.188125 70.848 
L 155.242341 72.31344 
L 158.296556 76.01832 
L 161.350772 75.41976 
L 164.404987 75.83256 
L 167.459203 75.79128 
L 170.513418 75.82224 
L 173.567633 77.82432 
L 176.621849 76.14216 
L 179.676064 74.75928 
L 182.73028 74.96568 
L 185.784495 77.75208 
L 188.838711 79.48584 
L 191.892926 83.31456 
L 194.947141 85.90488 
L 198.001357 84.79032 
L 200.5798 85.84296 
L 203.006947 88.25784 
L 206.059607 91.41576 
L 209.100743 88.7532 
L 212.224774 88.65 
L 215.253786 88.55712 
L 218.325428 88.96992 
L 221.373316 89.7336 
L 224.416538 90.456 
L 227.469834 90.56952 
L 230.487321 89.15568 
L 233.380377 88.9596 
L 236.630501 90.6624 
L 239.301066 89.94 
L 242.734089 90.00192 
L 245.784593 90.3528 
L 248.820956 90.62112 
L 251.856507 90.5076 
L 254.945613 90.3528 
L 258.009019 92.004 
L 260.805217 92.13816 
L 264.106456 91.25064 
L 267.147062 89.166 
L 270.19548 89.56848 
L 273.21371 90.93072 
L 276.337317 89.41368 
L 279.36 90.37344 
" clip-path="url(#p0a01ec7e5c)" style="fill: none; stroke: #4a8dff; stroke-width: 0.6"/>
   </g>
   <g id="line2d_7">
    <path d="M 8.64 82.06584 
L 11.694215 79.71288 
L 14.748431 81.24024 
L 17.802646 84.17112 
L 20.856862 84.24336 
L 23.911077 83.29392 
L 26.965293 82.8192 
L 30.019508 80.64168 
L 33.073723 81.38472 
L 36.127939 80.87904 
L 39.182154 83.13912 
L 42.23637 83.19072 
L 45.290585 85.296 
L 48.344801 87.17424 
L 51.399016 85.71912 
L 54.453231 87.53544 
L 57.507447 88.17528 
L 60.561662 85.41984 
L 63.615878 85.17216 
L 66.670093 84.9348 
L 69.724309 85.01736 
L 72.778524 86.14224 
L 75.83274 85.90488 
L 78.886955 86.328 
L 81.94117 86.24544 
L 84.995386 85.72944 
L 88.049601 85.7088 
L 91.103817 86.40024 
L 94.158032 85.09992 
L 97.212248 86.02872 
L 100.266463 84.78 
L 103.320678 83.53128 
L 106.374894 82.83984 
L 109.429109 82.03488 
L 112.483325 79.39296 
L 115.53754 79.66128 
L 118.591756 82.15872 
L 121.645971 82.43736 
L 124.700186 82.93272 
L 127.754402 83.00496 
L 130.808617 82.6128 
L 133.862833 82.28256 
L 136.917048 78.01008 
L 139.971264 76.19376 
L 143.025479 77.66952 
L 146.079694 77.74176 
L 149.13391 78.1752 
L 152.188125 79.5684 
L 155.242341 80.8068 
L 158.296556 85.20312 
L 161.350772 84.12984 
L 164.404987 84.03696 
L 167.459203 84.06792 
L 170.513418 84.3156 
L 173.567633 87.02976 
L 176.621849 85.21344 
L 179.676064 84.28464 
L 182.73028 84.32592 
L 185.784495 89.08344 
L 188.838711 89.5272 
L 191.892926 95.14128 
L 194.947141 96.98856 
L 198.001357 95.08968 
L 200.5798 97.71096 
L 203.006947 99.80592 
L 206.059607 101.79768 
L 209.100743 100.03296 
L 212.224774 100.518 
L 215.253786 99.98136 
L 218.325428 100.49736 
L 221.373316 100.78632 
L 224.416538 101.07528 
L 227.469834 101.26104 
L 230.487321 100.63152 
L 233.380377 100.38384 
L 236.630501 100.84824 
L 239.301066 100.65216 
L 242.734089 101.034 
L 245.784593 101.19912 
L 248.820956 101.10624 
L 251.856507 100.97208 
L 254.945613 100.91016 
L 258.009019 101.7564 
L 260.805217 101.84928 
L 264.106456 101.56032 
L 267.147062 100.85856 
L 270.19548 101.12688 
L 273.21371 101.4468 
L 276.337317 101.02368 
L 279.36 101.30232 
" clip-path="url(#p0a01ec7e5c)" style="fill: none; stroke: #f5841e; stroke-width: 0.6"/>
   </g>
  </g>
 </g>
 <defs>
  <clipPath id="p0a01ec7e5c">
   <rect x="8.64" y="4.8" width="270.72" height="103.2"/>
  </clipPath>
 </defs>
</svg>
