<?xml version="1.0" encoding="utf-8" standalone="no"?>
<!DOCTYPE svg PUBLIC "-//W3C//DTD SVG 1.1//EN"
  "http://www.w3.org/Graphics/SVG/1.1/DTD/svg11.dtd">
<svg xmlns:xlink="http://www.w3.org/1999/xlink" width="288pt" height="120pt" viewBox="0 0 288 120" xmlns="http://www.w3.org/2000/svg" version="1.1">
<desc id="nav-meta">{"window":"3m","count":4,"labels":["24.04","24.05","22.06","22.07"],"tick_utc":["2026-04-24T04:01:18Z","2026-05-24T04:51:26Z","2026-06-22T06:11:33Z","2026-07-22T04:00:32Z"],"w":720,"h":300}</desc>

 <metadata>
  <rdf:RDF xmlns:dc="http://purl.org/dc/elements/1.1/" xmlns:cc="http://creativecommons.org/ns#" xmlns:rdf="http://www.w3.org/1999/02/22-rdf-syntax-ns#">
   <cc:Work>
    <dc:type rdf:resource="http://purl.org/dc/dcmitype/StillImage"/>
    <dc:date>2026-07-22T14:38:23.672894</dc:date>
    <dc:format>image/svg+xml</dc:format>
    <dc:creator>
     <cc:Agent>
      <dc:title>Matplotlib v3.11.1, https://matplotlib.org/</dc:title>
     </cc:Agent>
    </dc:creator>
   </cc:Work>
  </rdf:RDF>
 </metadata>
 <defs>
  <style type="text/css">*{stroke-linejoin: round; stroke-linecap: butt}</style>
 </defs>
 <g id="figure_1">
  <g id="patch_1">
   <path d="M 0 120 
L 288 120 
L 288 0 
L 0 0 
L 0 120 
z
" style="fill: none; opacity: 0"/>
  </g>
  <g id="axes_1">
   <g id="patch_2">
    <path d="M 8.64 108 
L 279.36 108 
L 279.36 4.8 
L 8.64 4.8 
L 8.64 108 
z
" style="fill: none"/>
   </g>
   <g id="matplotlib.axis_1"/>
   <g id="matplotlib.axis_2"/>
   <g id="line2d_1">
    <path d="M 8.64 87.36 
L 279.36 87.36 
" clip-path="url(#pe52faf333c)" style="fill: none; stroke: #b2b2b2; stroke-opacity: 0.35; stroke-width: 0.5; stroke-linecap: square"/>
   </g>
   <g id="line2d_2">
    <path d="M 8.64 66.72 
L 279.36 66.72 
" clip-path="url(#pe52faf333c)" style="fill: none; stroke: #b2b2b2; stroke-opacity: 0.35; stroke-width: 0.5; stroke-linecap: square"/>
   </g>
   <g id="line2d_3">
    <path d="M 8.64 46.08 
L 279.36 46.08 
" clip-path="url(#pe52faf333c)" style="fill: none; stroke: #b2b2b2; stroke-opacity: 0.35; stroke-width: 0.5; stroke-linecap: square"/>
   </g>
   <g id="line2d_4">
    <path d="M 8.64 25.44 
L 279.36 25.44 
" clip-path="url(#pe52faf333c)" style="fill: none; stroke: #b2b2b2; stroke-opacity: 0.35; stroke-width: 0.5; stroke-linecap: square"/>
   </g>
   <g id="line2d_5">
    <path d="M 8.64 100.92048 
L 11.645518 100.81728 
L 14.734651 100.8792 
L 17.809244 100.64184 
L 20.857433 101.1888 
L 23.89094 101.09592 
L 26.937861 101.37456 
L 30.012911 101.21976 
L 32.977098 101.20944 
L 36.080665 101.23008 
L 39.121425 100.92048 
L 42.096244 101.06496 
L 45.191643 100.70376 
L 48.234269 100.55928 
L 51.225458 100.53864 
L 54.2784 99.60984 
L 57.38151 99.72336 
L 60.447336 99.44472 
L 63.446905 99.25896 
L 66.50319 99.32088 
L 69.541626 100.22904 
L 72.59844 100.01232 
L 75.601424 100.43544 
L 78.688656 100.75536 
L 81.76001 101.02368 
L 84.780033 101.02368 
L 87.832728 101.17848 
L 90.891865 100.7244 
L 93.910375 100.75536 
L 96.910401 101.11656 
L 100.000379 100.91016 
L 103.082224 100.89984 
L 106.077955 101.1372 
L 109.150999 101.2404 
L 112.183098 101.6532 
L 115.227167 101.4984 
L 118.225116 101.48808 
L 121.329036 101.32296 
L 124.415845 101.51904 
L 127.427736 101.7048 
L 130.503772 102.54072 
L 133.535167 103.08768 
L 136.526885 103.36632 
L 139.521947 104.22288 
L 142.629141 103.85136 
L 145.684406 103.68624 
L 148.668167 103.43856 
L 151.741527 103.81008 
L 154.801193 103.72752 
L 157.854944 103.50048 
L 160.874509 103.5108 
L 163.938399 103.31472 
L 167.081328 102.95352 
L 170.1405 102.61296 
L 173.085429 102.6336 
L 176.112669 102.9948 
L 179.22613 103.28376 
L 182.146308 103.01544 
L 185.251425 102.69552 
L 188.382277 102.582 
L 191.242253 102.88128 
L 194.294948 103.15992 
L 197.335954 103.36632 
L 200.393367 103.36632 
L 203.397899 102.81936 
L 206.4977 103.0464 
L 209.56152 102.9432 
L 212.544365 102.59232 
L 215.630682 102.40656 
L 218.619231 102.02472 
L 221.627953 101.68416 
L 224.656672 101.3436 
L 227.743024 101.6532 
L 230.814307 101.6532 
L 233.810496 101.63256 
L 236.769648 101.95248 
L 239.903669 102.08664 
L 242.93862 101.9112 
L 245.890625 102.066 
L 248.977927 102.18984 
L 252.026397 102.31368 
L 254.997871 102.45816 
L 258.040461 102.08664 
L 261.089882 102.21048 
L 264.132191 102.4272 
L 267.158973 102.4272 
L 270.246522 102.34464 
L 273.3296 102.25176 
L 276.315966 102.02472 
L 279.36 102.066 
" clip-path="url(#pe52faf333c)" style="fill: none; stroke: #bebebe; stroke-width: 0.5; stroke-linecap: round"/>
   </g>
   <g id="line2d_6">
    <path d="M 8.64 85.32696 
L 11.645518 85.17216 
L 14.734651 85.31664 
L 17.809244 84.11952 
L 20.857433 85.66752 
L 23.89094 85.26504 
L 26.937861 86.26608 
L 30.012911 85.77072 
L 32.977098 85.38888 
L 36.080665 85.3992 
L 39.121425 84.09888 
L 42.096244 84.22272 
L 45.191643 84.34656 
L 48.234269 85.06896 
L 51.225458 85.7604 
L 54.2784 85.0896 
L 57.38151 85.01736 
L 60.447336 84.9348 
L 63.446905 85.296 
L 66.50319 85.35792 
L 69.541626 86.1732 
L 72.59844 85.92552 
L 75.601424 86.55504 
L 78.688656 87.13296 
L 81.76001 88.10304 
L 84.780033 87.9276 
L 87.832728 88.26816 
L 90.891865 87.78312 
L 93.910375 87.95856 
L 96.910401 88.94928 
L 100.000379 88.14432 
L 103.082224 88.33008 
L 106.077955 88.52616 
L 109.150999 88.86672 
L 112.183098 90.22896 
L 115.227167 89.82648 
L 118.225116 89.87808 
L 121.329036 89.46528 
L 124.415845 90.0432 
L 127.427736 89.96064 
L 130.503772 91.99368 
L 133.535167 93.05664 
L 136.526885 93.74808 
L 139.521947 97.02984 
L 142.629141 95.93592 
L 145.684406 95.07936 
L 148.668167 94.46016 
L 151.741527 95.47152 
L 154.801193 95.11032 
L 157.854944 94.82136 
L 160.874509 94.8936 
L 163.938399 94.70784 
L 167.081328 94.04736 
L 170.1405 93.40752 
L 173.085429 92.9844 
L 176.112669 93.93384 
L 179.22613 94.4292 
L 182.146308 94.19184 
L 185.251425 93.87192 
L 188.382277 93.81 
L 191.242253 94.03704 
L 194.294948 94.83168 
L 197.335954 95.48184 
L 200.393367 96.63768 
L 203.397899 96.14232 
L 206.4977 96.30744 
L 209.56152 96.29712 
L 212.544365 96.04944 
L 215.630682 95.9256 
L 218.619231 95.39928 
L 221.627953 94.31568 
L 224.656672 93.57264 
L 227.743024 93.32496 
L 230.814307 93.22176 
L 233.810496 93.35592 
L 236.769648 93.61392 
L 239.903669 93.77904 
L 242.93862 93.26304 
L 245.890625 92.92248 
L 248.977927 92.71608 
L 252.026397 93.15984 
L 254.997871 93.17016 
L 258.040461 91.80792 
L 261.089882 91.14744 
L 264.132191 92.13816 
L 267.158973 92.25168 
L 270.246522 91.9008 
L 273.3296 91.81824 
L 276.315966 91.00296 
L 279.36 90.98232 
" clip-path="url(#pe52faf333c)" style="fill: none; stroke: #4a8dff; stroke-width: 0.6"/>
   </g>
   <g id="line2d_7">
    <path d="M 8.64 96.16296 
L 11.645518 96.1836 
L 14.734651 96.50352 
L 17.809244 94.76976 
L 20.857433 97.19496 
L 23.89094 96.9576 
L 26.937861 97.9896 
L 30.012911 96.89568 
L 32.977098 95.45088 
L 36.080665 95.67792 
L 39.121425 93.43848 
L 42.096244 92.90184 
L 45.191643 92.25168 
L 48.234269 92.87088 
L 51.225458 94.2744 
L 54.2784 93.1392 
L 57.38151 92.97408 
L 60.447336 92.9844 
L 63.446905 92.60256 
L 66.50319 92.53032 
L 69.541626 94.54272 
L 72.59844 92.85024 
L 75.601424 94.82136 
L 78.688656 95.75016 
L 81.76001 96.97824 
L 84.780033 97.08144 
L 87.832728 97.23624 
L 90.891865 95.94624 
L 93.910375 96.30744 
L 96.910401 98.08248 
L 100.000379 97.2672 
L 103.082224 96.61704 
L 106.077955 97.23624 
L 109.150999 98.08248 
L 112.183098 99.18672 
L 115.227167 99.03192 
L 118.225116 99.1248 
L 121.329036 98.74296 
L 124.415845 99.09384 
L 127.427736 100.0536 
L 130.503772 101.23008 
L 133.535167 101.99376 
L 136.526885 102.08664 
L 139.521947 102.8916 
L 142.629141 102.45816 
L 145.684406 102.28272 
L 148.668167 102.10728 
L 151.741527 102.582 
L 154.801193 102.29304 
L 157.854944 102.08664 
L 160.874509 102.066 
L 163.938399 101.86992 
L 167.081328 101.48808 
L 170.1405 101.40552 
L 173.085429 101.4984 
L 176.112669 101.97312 
L 179.22613 102.26208 
L 182.146308 102.066 
L 185.251425 101.90088 
L 188.382277 101.90088 
L 191.242253 102.0144 
L 194.294948 102.25176 
L 197.335954 102.6336 
L 200.393367 102.88128 
L 203.397899 102.77808 
L 206.4977 102.85032 
L 209.56152 102.93288 
L 212.544365 102.95352 
L 215.630682 103.00512 
L 218.619231 102.69552 
L 221.627953 102.55104 
L 224.656672 102.2724 
L 227.743024 102.21048 
L 230.814307 102.12792 
L 233.810496 102.13824 
L 236.769648 102.25176 
L 239.903669 102.36528 
L 242.93862 101.94216 
L 245.890625 101.92152 
L 248.977927 101.9112 
L 252.026397 102.2208 
L 254.997871 102.31368 
L 258.040461 101.79768 
L 261.089882 101.81832 
L 264.132191 102.07632 
L 267.158973 101.97312 
L 270.246522 101.79768 
L 273.3296 101.78736 
L 276.315966 101.57064 
L 279.36 101.40552 
" clip-path="url(#pe52faf333c)" style="fill: none; stroke: #f5841e; stroke-width: 0.6"/>
   </g>
  </g>
 </g>
 <defs>
  <clipPath id="pe52faf333c">
   <rect x="8.64" y="4.8" width="270.72" height="103.2"/>
  </clipPath>
 </defs>
</svg>
