<?xml version="1.0" encoding="utf-8" standalone="no"?>
<!DOCTYPE svg PUBLIC "-//W3C//DTD SVG 1.1//EN"
  "http://www.w3.org/Graphics/SVG/1.1/DTD/svg11.dtd">
<svg xmlns:xlink="http://www.w3.org/1999/xlink" width="288pt" height="120pt" viewBox="0 0 288 120" xmlns="http://www.w3.org/2000/svg" version="1.1">
<desc id="nav-meta">{"window":"3m","count":4,"labels":["23.11","23.12","22.01","21.02"],"tick_utc":["2025-11-23T12:00:00Z","2025-12-23T12:00:00Z","2026-01-22T12:00:00Z","2026-02-21T03:11:36Z"],"w":720,"h":300}</desc>

 <metadata>
  <rdf:RDF xmlns:dc="http://purl.org/dc/elements/1.1/" xmlns:cc="http://creativecommons.org/ns#" xmlns:rdf="http://www.w3.org/1999/02/22-rdf-syntax-ns#">
   <cc:Work>
    <dc:type rdf:resource="http://purl.org/dc/dcmitype/StillImage"/>
    <dc:date>2026-02-21T03:11:39.262443</dc:date>
    <dc:format>image/svg+xml</dc:format>
    <dc:creator>
     <cc:Agent>
      <dc:title>Matplotlib v3.10.8, https://matplotlib.org/</dc:title>
     </cc:Agent>
    </dc:creator>
   </cc:Work>
  </rdf:RDF>
 </metadata>
 <defs>
  <style type="text/css">*{stroke-linejoin: round; stroke-linecap: butt}</style>
 </defs>
 <g id="figure_1">
  <g id="patch_1">
   <path d="M 0 120 
L 288 120 
L 288 0 
L 0 0 
L 0 120 
z
" style="fill: none; opacity: 0"/>
  </g>
  <g id="axes_1">
   <g id="patch_2">
    <path d="M 8.64 108 
L 279.36 108 
L 279.36 4.8 
L 8.64 4.8 
L 8.64 108 
z
" style="fill: none"/>
   </g>
   <g id="matplotlib.axis_1"/>
   <g id="matplotlib.axis_2"/>
   <g id="line2d_1">
    <path d="M 8.64 87.36 
L 279.36 87.36 
" clip-path="url(#p94c4d496e9)" style="fill: none; stroke: #b2b2b2; stroke-opacity: 0.35; stroke-width: 0.5; stroke-linecap: square"/>
   </g>
   <g id="line2d_2">
    <path d="M 8.64 66.72 
L 279.36 66.72 
" clip-path="url(#p94c4d496e9)" style="fill: none; stroke: #b2b2b2; stroke-opacity: 0.35; stroke-width: 0.5; stroke-linecap: square"/>
   </g>
   <g id="line2d_3">
    <path d="M 8.64 46.08 
L 279.36 46.08 
" clip-path="url(#p94c4d496e9)" style="fill: none; stroke: #b2b2b2; stroke-opacity: 0.35; stroke-width: 0.5; stroke-linecap: square"/>
   </g>
   <g id="line2d_4">
    <path d="M 8.64 25.44 
L 279.36 25.44 
" clip-path="url(#p94c4d496e9)" style="fill: none; stroke: #b2b2b2; stroke-opacity: 0.35; stroke-width: 0.5; stroke-linecap: square"/>
   </g>
   <g id="line2d_5">
    <path d="M 8.64 91.63248 
L 11.660314 90.75528 
L 14.680629 88.7016 
L 17.700943 88.52616 
L 20.721257 87.45288 
L 23.741572 88.0308 
L 26.761886 88.94928 
L 29.7822 89.3208 
L 32.802514 89.7336 
L 35.822829 91.86984 
L 38.843143 88.60872 
L 41.863457 86.87496 
L 44.883772 88.52616 
L 47.904086 90.11544 
L 50.9244 90.38376 
L 53.944715 90.53856 
L 56.965029 90.08448 
L 59.985343 88.79448 
L 63.005658 89.20728 
L 66.025972 89.22792 
L 69.046286 90.31152 
L 72.0666 90.10512 
L 75.086915 91.09584 
L 78.107229 91.61184 
L 81.127543 91.31256 
L 84.147858 92.87088 
L 87.168172 93.8616 
L 90.188486 92.02464 
L 93.208801 92.13816 
L 96.229115 92.07624 
L 99.249429 92.14848 
L 102.269743 92.64384 
L 105.290058 93.01536 
L 108.310372 93.69648 
L 111.330686 93.11856 
L 114.351001 92.44776 
L 117.371315 92.30328 
L 120.391629 92.87088 
L 123.411944 92.38584 
L 126.432258 92.47872 
L 129.452572 91.88016 
L 132.472887 90.42504 
L 135.493201 90.08448 
L 138.513515 89.92968 
L 141.533829 88.76352 
L 144.554144 87.94824 
L 147.574458 89.2692 
L 150.594772 88.72224 
L 153.615087 89.39304 
L 156.635401 89.40336 
L 159.655715 88.41264 
L 162.67603 88.4952 
L 165.696344 86.86464 
L 168.716658 86.42088 
L 171.736973 87.62832 
L 174.757287 86.93688 
L 177.777601 87.23616 
L 180.797915 88.63968 
L 183.81823 90.0432 
L 186.838544 92.12784 
L 189.858858 91.16808 
L 192.879173 91.46736 
L 195.899487 91.73568 
L 198.919801 91.78728 
L 201.940116 94.0164 
L 204.96043 92.5716 
L 207.980744 91.76664 
L 211.001059 92.33424 
L 214.021373 94.36728 
L 217.041687 94.46016 
L 220.062001 97.71096 
L 223.082316 98.48496 
L 226.10263 97.85544 
L 228.652453 99.10416 
L 231.05266 100.16712 
L 234.071436 102.23112 
L 237.078816 100.54896 
L 240.168171 100.70376 
L 243.163561 100.68312 
L 246.201109 100.95144 
L 249.215166 101.28168 
L 252.224608 101.71512 
L 255.244014 101.84928 
L 258.228007 101.034 
L 261.088951 100.54896 
L 264.302999 101.04432 
L 266.943921 100.81728 
L 270.338839 101.034 
L 273.355482 101.4984 
L 276.358143 101.33328 
L 279.36 101.1372 
" clip-path="url(#p94c4d496e9)" style="fill: none; stroke: #bebebe; stroke-width: 0.5; stroke-linecap: round"/>
   </g>
   <g id="line2d_6">
    <path d="M 8.64 78.50544 
L 11.660314 78.04104 
L 14.680629 75.76032 
L 17.700943 75.73968 
L 20.721257 74.65608 
L 23.741572 74.83152 
L 26.761886 74.57352 
L 29.7822 75.20304 
L 32.802514 75.17208 
L 35.822829 78.05136 
L 38.843143 75.1308 
L 41.863457 72.16896 
L 44.883772 73.08744 
L 47.904086 74.72832 
L 50.9244 74.48064 
L 53.944715 74.28456 
L 56.965029 73.21128 
L 59.985343 70.2804 
L 63.005658 70.2288 
L 66.025972 71.56008 
L 69.046286 73.79952 
L 72.0666 73.35576 
L 75.086915 74.0988 
L 78.107229 75.5952 
L 81.127543 75.5952 
L 84.147858 77.61792 
L 87.168172 77.63856 
L 90.188486 75.40944 
L 93.208801 75.40944 
L 96.229115 75.04824 
L 99.249429 74.98632 
L 102.269743 75.58488 
L 105.290058 75.87384 
L 108.310372 76.49304 
L 111.330686 76.15248 
L 114.351001 75.82224 
L 117.371315 75.84288 
L 120.391629 76.03896 
L 123.411944 75.51264 
L 126.432258 75.56424 
L 129.452572 75.05856 
L 132.472887 73.26288 
L 135.493201 73.20096 
L 138.513515 73.00488 
L 141.533829 71.68392 
L 144.554144 70.6932 
L 147.574458 72.62304 
L 150.594772 73.52088 
L 153.615087 73.83048 
L 156.635401 73.8408 
L 159.655715 73.29384 
L 162.67603 73.72728 
L 165.696344 70.32168 
L 168.716658 69.77472 
L 171.736973 70.34232 
L 174.757287 70.67256 
L 177.777601 70.51776 
L 180.797915 70.848 
L 183.81823 72.31344 
L 186.838544 76.01832 
L 189.858858 75.41976 
L 192.879173 75.83256 
L 195.899487 75.79128 
L 198.919801 75.82224 
L 201.940116 77.82432 
L 204.96043 76.14216 
L 207.980744 74.75928 
L 211.001059 74.96568 
L 214.021373 77.75208 
L 217.041687 79.48584 
L 220.062001 83.31456 
L 223.082316 85.90488 
L 226.10263 84.79032 
L 228.652453 85.84296 
L 231.05266 88.25784 
L 234.071436 91.41576 
L 237.078816 88.7532 
L 240.168171 88.65 
L 243.163561 88.55712 
L 246.201109 88.96992 
L 249.215166 89.7336 
L 252.224608 90.456 
L 255.244014 90.56952 
L 258.228007 89.15568 
L 261.088951 88.9596 
L 264.302999 90.6624 
L 266.943921 89.94 
L 270.338839 90.00192 
L 273.355482 90.3528 
L 276.358143 90.62112 
L 279.36 90.5076 
" clip-path="url(#p94c4d496e9)" style="fill: none; stroke: #4a8dff; stroke-width: 0.6"/>
   </g>
   <g id="line2d_7">
    <path d="M 8.64 88.96992 
L 11.660314 86.7924 
L 14.680629 85.296 
L 17.700943 86.24544 
L 20.721257 82.96368 
L 23.741572 82.13808 
L 26.761886 82.47864 
L 29.7822 82.58184 
L 32.802514 83.03592 
L 35.822829 87.3084 
L 38.843143 82.06584 
L 41.863457 79.71288 
L 44.883772 81.24024 
L 47.904086 84.17112 
L 50.9244 84.24336 
L 53.944715 83.29392 
L 56.965029 82.8192 
L 59.985343 80.64168 
L 63.005658 81.38472 
L 66.025972 80.87904 
L 69.046286 83.13912 
L 72.0666 83.19072 
L 75.086915 85.296 
L 78.107229 87.17424 
L 81.127543 85.71912 
L 84.147858 87.53544 
L 87.168172 88.17528 
L 90.188486 85.41984 
L 93.208801 85.17216 
L 96.229115 84.9348 
L 99.249429 85.01736 
L 102.269743 86.14224 
L 105.290058 85.90488 
L 108.310372 86.328 
L 111.330686 86.24544 
L 114.351001 85.72944 
L 117.371315 85.7088 
L 120.391629 86.40024 
L 123.411944 85.09992 
L 126.432258 86.02872 
L 129.452572 84.78 
L 132.472887 83.53128 
L 135.493201 82.83984 
L 138.513515 82.03488 
L 141.533829 79.39296 
L 144.554144 79.66128 
L 147.574458 82.15872 
L 150.594772 82.43736 
L 153.615087 82.93272 
L 156.635401 83.00496 
L 159.655715 82.6128 
L 162.67603 82.28256 
L 165.696344 78.01008 
L 168.716658 76.19376 
L 171.736973 77.66952 
L 174.757287 77.74176 
L 177.777601 78.1752 
L 180.797915 79.5684 
L 183.81823 80.8068 
L 186.838544 85.20312 
L 189.858858 84.12984 
L 192.879173 84.03696 
L 195.899487 84.06792 
L 198.919801 84.3156 
L 201.940116 87.02976 
L 204.96043 85.21344 
L 207.980744 84.28464 
L 211.001059 84.32592 
L 214.021373 89.08344 
L 217.041687 89.5272 
L 220.062001 95.14128 
L 223.082316 96.98856 
L 226.10263 95.08968 
L 228.652453 97.71096 
L 231.05266 99.80592 
L 234.071436 101.79768 
L 237.078816 100.03296 
L 240.168171 100.518 
L 243.163561 99.98136 
L 246.201109 100.49736 
L 249.215166 100.78632 
L 252.224608 101.07528 
L 255.244014 101.26104 
L 258.228007 100.63152 
L 261.088951 100.38384 
L 264.302999 100.84824 
L 266.943921 100.65216 
L 270.338839 101.034 
L 273.355482 101.19912 
L 276.358143 101.10624 
L 279.36 100.97208 
" clip-path="url(#p94c4d496e9)" style="fill: none; stroke: #f5841e; stroke-width: 0.6"/>
   </g>
  </g>
 </g>
 <defs>
  <clipPath id="p94c4d496e9">
   <rect x="8.64" y="4.8" width="270.72" height="103.2"/>
  </clipPath>
 </defs>
</svg>
