<?xml version="1.0" encoding="utf-8" standalone="no"?>
<!DOCTYPE svg PUBLIC "-//W3C//DTD SVG 1.1//EN"
  "http://www.w3.org/Graphics/SVG/1.1/DTD/svg11.dtd">
<svg xmlns:xlink="http://www.w3.org/1999/xlink" width="288pt" height="120pt" viewBox="0 0 288 120" xmlns="http://www.w3.org/2000/svg" version="1.1">
<desc id="nav-meta">{"window":"1m","count":4,"labels":["11.01","21.01","30.01","09.02"],"tick_utc":["2026-01-11T12:00:00Z","2026-01-21T12:00:00Z","2026-01-30T12:00:00Z","2026-02-09T03:34:10Z"],"w":720,"h":300}</desc>

 <metadata>
  <rdf:RDF xmlns:dc="http://purl.org/dc/elements/1.1/" xmlns:cc="http://creativecommons.org/ns#" xmlns:rdf="http://www.w3.org/1999/02/22-rdf-syntax-ns#">
   <cc:Work>
    <dc:type rdf:resource="http://purl.org/dc/dcmitype/StillImage"/>
    <dc:date>2026-02-09T14:00:52.898823</dc:date>
    <dc:format>image/svg+xml</dc:format>
    <dc:creator>
     <cc:Agent>
      <dc:title>Matplotlib v3.10.8, https://matplotlib.org/</dc:title>
     </cc:Agent>
    </dc:creator>
   </cc:Work>
  </rdf:RDF>
 </metadata>
 <defs>
  <style type="text/css">*{stroke-linejoin: round; stroke-linecap: butt}</style>
 </defs>
 <g id="figure_1">
  <g id="patch_1">
   <path d="M 0 120 
L 288 120 
L 288 0 
L 0 0 
L 0 120 
z
" style="fill: none; opacity: 0"/>
  </g>
  <g id="axes_1">
   <g id="patch_2">
    <path d="M 8.64 108 
L 279.36 108 
L 279.36 4.8 
L 8.64 4.8 
L 8.64 108 
z
" style="fill: none"/>
   </g>
   <g id="matplotlib.axis_1"/>
   <g id="matplotlib.axis_2"/>
   <g id="line2d_1">
    <path d="M 8.64 87.36 
L 279.36 87.36 
" clip-path="url(#p53a3468f44)" style="fill: none; stroke: #b2b2b2; stroke-opacity: 0.35; stroke-width: 0.5; stroke-linecap: square"/>
   </g>
   <g id="line2d_2">
    <path d="M 8.64 66.72 
L 279.36 66.72 
" clip-path="url(#p53a3468f44)" style="fill: none; stroke: #b2b2b2; stroke-opacity: 0.35; stroke-width: 0.5; stroke-linecap: square"/>
   </g>
   <g id="line2d_3">
    <path d="M 8.64 46.08 
L 279.36 46.08 
" clip-path="url(#p53a3468f44)" style="fill: none; stroke: #b2b2b2; stroke-opacity: 0.35; stroke-width: 0.5; stroke-linecap: square"/>
   </g>
   <g id="line2d_4">
    <path d="M 8.64 25.44 
L 279.36 25.44 
" clip-path="url(#p53a3468f44)" style="fill: none; stroke: #b2b2b2; stroke-opacity: 0.35; stroke-width: 0.5; stroke-linecap: square"/>
   </g>
   <g id="line2d_5">
    <path d="M 8.64 89.40336 
L 18.089635 88.41264 
L 27.539269 88.4952 
L 36.988904 86.86464 
L 46.438538 86.42088 
L 55.888173 87.62832 
L 65.337807 86.93688 
L 74.787442 87.23616 
L 84.237077 88.63968 
L 93.686711 90.0432 
L 103.136346 92.12784 
L 112.58598 91.16808 
L 122.035615 91.46736 
L 131.48525 91.73568 
L 140.934884 91.78728 
L 150.384519 94.0164 
L 159.834153 92.5716 
L 169.283788 91.76664 
L 178.733422 92.33424 
L 188.183057 94.36728 
L 197.632692 94.46016 
L 207.082326 97.71096 
L 216.531961 98.48496 
L 225.981595 97.85544 
L 233.959209 99.10416 
L 241.468715 100.16712 
L 250.913538 102.23112 
L 260.322705 100.54896 
L 269.988347 100.70376 
L 279.36 100.68312 
" clip-path="url(#p53a3468f44)" style="fill: none; stroke: #bebebe; stroke-width: 0.5; stroke-linecap: round"/>
   </g>
   <g id="line2d_6">
    <path d="M 8.64 73.8408 
L 18.089635 73.29384 
L 27.539269 73.72728 
L 36.988904 70.32168 
L 46.438538 69.77472 
L 55.888173 70.34232 
L 65.337807 70.67256 
L 74.787442 70.51776 
L 84.237077 70.848 
L 93.686711 72.31344 
L 103.136346 76.01832 
L 112.58598 75.41976 
L 122.035615 75.83256 
L 131.48525 75.79128 
L 140.934884 75.82224 
L 150.384519 77.82432 
L 159.834153 76.14216 
L 169.283788 74.75928 
L 178.733422 74.96568 
L 188.183057 77.75208 
L 197.632692 79.48584 
L 207.082326 83.31456 
L 216.531961 85.90488 
L 225.981595 84.79032 
L 233.959209 85.84296 
L 241.468715 88.25784 
L 250.913538 91.41576 
L 260.322705 88.7532 
L 269.988347 88.65 
L 279.36 88.55712 
" clip-path="url(#p53a3468f44)" style="fill: none; stroke: #4a8dff; stroke-width: 0.6"/>
   </g>
   <g id="line2d_7">
    <path d="M 8.64 83.00496 
L 18.089635 82.6128 
L 27.539269 82.28256 
L 36.988904 78.01008 
L 46.438538 76.19376 
L 55.888173 77.66952 
L 65.337807 77.74176 
L 74.787442 78.1752 
L 84.237077 79.5684 
L 93.686711 80.8068 
L 103.136346 85.20312 
L 112.58598 84.12984 
L 122.035615 84.03696 
L 131.48525 84.06792 
L 140.934884 84.3156 
L 150.384519 87.02976 
L 159.834153 85.21344 
L 169.283788 84.28464 
L 178.733422 84.32592 
L 188.183057 89.08344 
L 197.632692 89.5272 
L 207.082326 95.14128 
L 216.531961 96.98856 
L 225.981595 95.08968 
L 233.959209 97.71096 
L 241.468715 99.80592 
L 250.913538 101.79768 
L 260.322705 100.03296 
L 269.988347 100.518 
L 279.36 99.98136 
" clip-path="url(#p53a3468f44)" style="fill: none; stroke: #f5841e; stroke-width: 0.6"/>
   </g>
  </g>
 </g>
 <defs>
  <clipPath id="p53a3468f44">
   <rect x="8.64" y="4.8" width="270.72" height="103.2"/>
  </clipPath>
 </defs>
</svg>
