<?xml version="1.0" encoding="utf-8" standalone="no"?>
<!DOCTYPE svg PUBLIC "-//W3C//DTD SVG 1.1//EN"
  "http://www.w3.org/Graphics/SVG/1.1/DTD/svg11.dtd">
<svg xmlns:xlink="http://www.w3.org/1999/xlink" width="288pt" height="120pt" viewBox="0 0 288 120" xmlns="http://www.w3.org/2000/svg" version="1.1">
<desc id="nav-meta">{"window":"1m","count":4,"labels":["12.06","22.06","01.07","11.07"],"tick_utc":["2026-06-12T05:19:52Z","2026-06-22T06:11:33Z","2026-07-01T05:10:59Z","2026-07-11T03:56:05Z"],"w":720,"h":300}</desc>

 <metadata>
  <rdf:RDF xmlns:dc="http://purl.org/dc/elements/1.1/" xmlns:cc="http://creativecommons.org/ns#" xmlns:rdf="http://www.w3.org/1999/02/22-rdf-syntax-ns#">
   <cc:Work>
    <dc:type rdf:resource="http://purl.org/dc/dcmitype/StillImage"/>
    <dc:date>2026-07-11T19:50:48.160158</dc:date>
    <dc:format>image/svg+xml</dc:format>
    <dc:creator>
     <cc:Agent>
      <dc:title>Matplotlib v3.11.0, https://matplotlib.org/</dc:title>
     </cc:Agent>
    </dc:creator>
   </cc:Work>
  </rdf:RDF>
 </metadata>
 <defs>
  <style type="text/css">*{stroke-linejoin: round; stroke-linecap: butt}</style>
 </defs>
 <g id="figure_1">
  <g id="patch_1">
   <path d="M 0 120 
L 288 120 
L 288 0 
L 0 0 
L 0 120 
z
" style="fill: none; opacity: 0"/>
  </g>
  <g id="axes_1">
   <g id="patch_2">
    <path d="M 8.64 108 
L 279.36 108 
L 279.36 4.8 
L 8.64 4.8 
L 8.64 108 
z
" style="fill: none"/>
   </g>
   <g id="matplotlib.axis_1"/>
   <g id="matplotlib.axis_2"/>
   <g id="line2d_1">
    <path d="M 8.64 87.36 
L 279.36 87.36 
" clip-path="url(#p03ba015e52)" style="fill: none; stroke: #b2b2b2; stroke-opacity: 0.35; stroke-width: 0.5; stroke-linecap: square"/>
   </g>
   <g id="line2d_2">
    <path d="M 8.64 66.72 
L 279.36 66.72 
" clip-path="url(#p03ba015e52)" style="fill: none; stroke: #b2b2b2; stroke-opacity: 0.35; stroke-width: 0.5; stroke-linecap: square"/>
   </g>
   <g id="line2d_3">
    <path d="M 8.64 46.08 
L 279.36 46.08 
" clip-path="url(#p03ba015e52)" style="fill: none; stroke: #b2b2b2; stroke-opacity: 0.35; stroke-width: 0.5; stroke-linecap: square"/>
   </g>
   <g id="line2d_4">
    <path d="M 8.64 25.44 
L 279.36 25.44 
" clip-path="url(#p03ba015e52)" style="fill: none; stroke: #b2b2b2; stroke-opacity: 0.35; stroke-width: 0.5; stroke-linecap: square"/>
   </g>
   <g id="line2d_5">
    <path d="M 8.64 103.50048 
L 17.925517 103.5108 
L 27.347337 103.31472 
L 37.012208 102.95352 
L 46.419521 102.61296 
L 55.47552 102.6336 
L 64.784639 102.9948 
L 74.358894 103.28376 
L 83.338784 103.01544 
L 92.88738 102.69552 
L 102.515117 102.582 
L 111.309877 102.88128 
L 120.697269 103.15992 
L 130.048719 103.36632 
L 139.450619 103.36632 
L 148.689907 102.81936 
L 158.222156 103.0464 
L 167.64376 102.9432 
L 176.816358 102.59232 
L 186.307142 102.40656 
L 195.497279 102.02472 
L 204.749451 101.68416 
L 214.063116 101.3436 
L 223.554009 101.6532 
L 232.998564 101.6532 
L 242.212194 101.63256 
L 251.311932 101.95248 
L 260.949412 102.08664 
L 270.28224 101.9112 
L 279.36 102.066 
" clip-path="url(#p03ba015e52)" style="fill: none; stroke: #bebebe; stroke-width: 0.5; stroke-linecap: round"/>
   </g>
   <g id="line2d_6">
    <path d="M 8.64 94.82136 
L 17.925517 94.8936 
L 27.347337 94.70784 
L 37.012208 94.04736 
L 46.419521 93.40752 
L 55.47552 92.9844 
L 64.784639 93.93384 
L 74.358894 94.4292 
L 83.338784 94.19184 
L 92.88738 93.87192 
L 102.515117 93.81 
L 111.309877 94.03704 
L 120.697269 94.83168 
L 130.048719 95.48184 
L 139.450619 96.63768 
L 148.689907 96.14232 
L 158.222156 96.30744 
L 167.64376 96.29712 
L 176.816358 96.04944 
L 186.307142 95.9256 
L 195.497279 95.39928 
L 204.749451 94.31568 
L 214.063116 93.57264 
L 223.554009 93.32496 
L 232.998564 93.22176 
L 242.212194 93.35592 
L 251.311932 93.61392 
L 260.949412 93.77904 
L 270.28224 93.26304 
L 279.36 92.92248 
" clip-path="url(#p03ba015e52)" style="fill: none; stroke: #4a8dff; stroke-width: 0.6"/>
   </g>
   <g id="line2d_7">
    <path d="M 8.64 102.08664 
L 17.925517 102.066 
L 27.347337 101.86992 
L 37.012208 101.48808 
L 46.419521 101.40552 
L 55.47552 101.4984 
L 64.784639 101.97312 
L 74.358894 102.26208 
L 83.338784 102.066 
L 92.88738 101.90088 
L 102.515117 101.90088 
L 111.309877 102.0144 
L 120.697269 102.25176 
L 130.048719 102.6336 
L 139.450619 102.88128 
L 148.689907 102.77808 
L 158.222156 102.85032 
L 167.64376 102.93288 
L 176.816358 102.95352 
L 186.307142 103.00512 
L 195.497279 102.69552 
L 204.749451 102.55104 
L 214.063116 102.2724 
L 223.554009 102.21048 
L 232.998564 102.12792 
L 242.212194 102.13824 
L 251.311932 102.25176 
L 260.949412 102.36528 
L 270.28224 101.94216 
L 279.36 101.92152 
" clip-path="url(#p03ba015e52)" style="fill: none; stroke: #f5841e; stroke-width: 0.6"/>
   </g>
  </g>
 </g>
 <defs>
  <clipPath id="p03ba015e52">
   <rect x="8.64" y="4.8" width="270.72" height="103.2"/>
  </clipPath>
 </defs>
</svg>
