<?xml version="1.0" encoding="utf-8" standalone="no"?>
<!DOCTYPE svg PUBLIC "-//W3C//DTD SVG 1.1//EN"
  "http://www.w3.org/Graphics/SVG/1.1/DTD/svg11.dtd">
<svg xmlns:xlink="http://www.w3.org/1999/xlink" width="288pt" height="120pt" viewBox="0 0 288 120" xmlns="http://www.w3.org/2000/svg" version="1.1">
<desc id="nav-meta">{"window":"3m","count":4,"labels":["23.12","22.01","20.02","22.03"],"tick_utc":["2025-12-23T12:00:00Z","2026-01-22T12:00:00Z","2026-02-20T03:20:24Z","2026-03-22T03:31:55Z"],"w":720,"h":300}</desc>

 <metadata>
  <rdf:RDF xmlns:dc="http://purl.org/dc/elements/1.1/" xmlns:cc="http://creativecommons.org/ns#" xmlns:rdf="http://www.w3.org/1999/02/22-rdf-syntax-ns#">
   <cc:Work>
    <dc:type rdf:resource="http://purl.org/dc/dcmitype/StillImage"/>
    <dc:date>2026-03-22T19:05:20.643137</dc:date>
    <dc:format>image/svg+xml</dc:format>
    <dc:creator>
     <cc:Agent>
      <dc:title>Matplotlib v3.10.8, https://matplotlib.org/</dc:title>
     </cc:Agent>
    </dc:creator>
   </cc:Work>
  </rdf:RDF>
 </metadata>
 <defs>
  <style type="text/css">*{stroke-linejoin: round; stroke-linecap: butt}</style>
 </defs>
 <g id="figure_1">
  <g id="patch_1">
   <path d="M 0 120 
L 288 120 
L 288 0 
L 0 0 
L 0 120 
z
" style="fill: none; opacity: 0"/>
  </g>
  <g id="axes_1">
   <g id="patch_2">
    <path d="M 8.64 108 
L 279.36 108 
L 279.36 4.8 
L 8.64 4.8 
L 8.64 108 
z
" style="fill: none"/>
   </g>
   <g id="matplotlib.axis_1"/>
   <g id="matplotlib.axis_2"/>
   <g id="line2d_1">
    <path d="M 8.64 87.36 
L 279.36 87.36 
" clip-path="url(#p553be24286)" style="fill: none; stroke: #b2b2b2; stroke-opacity: 0.35; stroke-width: 0.5; stroke-linecap: square"/>
   </g>
   <g id="line2d_2">
    <path d="M 8.64 66.72 
L 279.36 66.72 
" clip-path="url(#p553be24286)" style="fill: none; stroke: #b2b2b2; stroke-opacity: 0.35; stroke-width: 0.5; stroke-linecap: square"/>
   </g>
   <g id="line2d_3">
    <path d="M 8.64 46.08 
L 279.36 46.08 
" clip-path="url(#p553be24286)" style="fill: none; stroke: #b2b2b2; stroke-opacity: 0.35; stroke-width: 0.5; stroke-linecap: square"/>
   </g>
   <g id="line2d_4">
    <path d="M 8.64 25.44 
L 279.36 25.44 
" clip-path="url(#p553be24286)" style="fill: none; stroke: #b2b2b2; stroke-opacity: 0.35; stroke-width: 0.5; stroke-linecap: square"/>
   </g>
   <g id="line2d_5">
    <path d="M 8.64 92.14848 
L 11.693905 92.64384 
L 14.74781 93.01536 
L 17.801714 93.69648 
L 20.855619 93.11856 
L 23.909524 92.44776 
L 26.963429 92.30328 
L 30.017334 92.87088 
L 33.071238 92.38584 
L 36.125143 92.47872 
L 39.179048 91.88016 
L 42.232953 90.42504 
L 45.286858 90.08448 
L 48.340762 89.92968 
L 51.394667 88.76352 
L 54.448572 87.94824 
L 57.502477 89.2692 
L 60.556381 88.72224 
L 63.610286 89.39304 
L 66.664191 89.40336 
L 69.718096 88.41264 
L 72.772001 88.4952 
L 75.825905 86.86464 
L 78.87981 86.42088 
L 81.933715 87.62832 
L 84.98762 86.93688 
L 88.041525 87.23616 
L 91.095429 88.63968 
L 94.149334 90.0432 
L 97.203239 92.12784 
L 100.257144 91.16808 
L 103.311049 91.46736 
L 106.364953 91.73568 
L 109.418858 91.78728 
L 112.472763 94.0164 
L 115.526668 92.5716 
L 118.580573 91.76664 
L 121.634477 92.33424 
L 124.688382 94.36728 
L 127.742287 94.46016 
L 130.796192 97.71096 
L 133.850096 98.48496 
L 136.904001 97.85544 
L 139.482183 99.10416 
L 141.909083 100.16712 
L 144.961432 102.23112 
L 148.002259 100.54896 
L 151.125972 100.70376 
L 154.154675 100.68312 
L 157.226006 100.95144 
L 160.273584 101.28168 
L 163.316496 101.71512 
L 166.369481 101.84928 
L 169.386662 101.034 
L 172.279423 100.54896 
L 175.529216 101.04432 
L 178.19951 100.81728 
L 181.632184 101.034 
L 184.682377 101.4984 
L 187.718432 101.33328 
L 190.753674 101.1372 
L 193.842466 101.06496 
L 196.90556 102.09696 
L 199.701474 102.05568 
L 203.002377 101.4984 
L 206.042674 100.60056 
L 209.090782 100.80696 
L 212.108704 101.45712 
L 215.231993 100.55928 
L 218.25437 101.10624 
L 221.315379 100.8792 
L 224.352176 100.74504 
L 227.412655 100.21872 
L 230.465111 100.53864 
L 233.495581 101.07528 
L 236.579141 101.38488 
L 239.642201 101.26104 
L 242.676489 100.78632 
L 245.729192 100.91016 
L 248.795114 100.99272 
L 251.843116 100.38384 
L 254.892956 100.50768 
L 258.005288 100.60056 
L 261.067817 99.76464 
L 264.068279 99.49632 
L 267.145477 99.40344 
L 270.20023 100.09488 
L 273.224408 100.3632 
L 276.260428 100.19808 
L 279.36 100.47672 
" clip-path="url(#p553be24286)" style="fill: none; stroke: #bebebe; stroke-width: 0.5; stroke-linecap: round"/>
   </g>
   <g id="line2d_6">
    <path d="M 8.64 74.98632 
L 11.693905 75.58488 
L 14.74781 75.87384 
L 17.801714 76.49304 
L 20.855619 76.15248 
L 23.909524 75.82224 
L 26.963429 75.84288 
L 30.017334 76.03896 
L 33.071238 75.51264 
L 36.125143 75.56424 
L 39.179048 75.05856 
L 42.232953 73.26288 
L 45.286858 73.20096 
L 48.340762 73.00488 
L 51.394667 71.68392 
L 54.448572 70.6932 
L 57.502477 72.62304 
L 60.556381 73.52088 
L 63.610286 73.83048 
L 66.664191 73.8408 
L 69.718096 73.29384 
L 72.772001 73.72728 
L 75.825905 70.32168 
L 78.87981 69.77472 
L 81.933715 70.34232 
L 84.98762 70.67256 
L 88.041525 70.51776 
L 91.095429 70.848 
L 94.149334 72.31344 
L 97.203239 76.01832 
L 100.257144 75.41976 
L 103.311049 75.83256 
L 106.364953 75.79128 
L 109.418858 75.82224 
L 112.472763 77.82432 
L 115.526668 76.14216 
L 118.580573 74.75928 
L 121.634477 74.96568 
L 124.688382 77.75208 
L 127.742287 79.48584 
L 130.796192 83.31456 
L 133.850096 85.90488 
L 136.904001 84.79032 
L 139.482183 85.84296 
L 141.909083 88.25784 
L 144.961432 91.41576 
L 148.002259 88.7532 
L 151.125972 88.65 
L 154.154675 88.55712 
L 157.226006 88.96992 
L 160.273584 89.7336 
L 163.316496 90.456 
L 166.369481 90.56952 
L 169.386662 89.15568 
L 172.279423 88.9596 
L 175.529216 90.6624 
L 178.19951 89.94 
L 181.632184 90.00192 
L 184.682377 90.3528 
L 187.718432 90.62112 
L 190.753674 90.5076 
L 193.842466 90.3528 
L 196.90556 92.004 
L 199.701474 92.13816 
L 203.002377 91.25064 
L 206.042674 89.166 
L 209.090782 89.56848 
L 212.108704 90.93072 
L 215.231993 89.41368 
L 218.25437 90.37344 
L 221.315379 89.79552 
L 224.352176 90.23928 
L 227.412655 88.0824 
L 230.465111 88.7532 
L 233.495581 90.16704 
L 236.579141 90.67272 
L 239.642201 90.18768 
L 242.676489 89.2692 
L 245.729192 89.54784 
L 248.795114 89.49624 
L 251.843116 88.31976 
L 254.892956 88.45392 
L 258.005288 88.46424 
L 261.067817 86.38992 
L 264.068279 84.80064 
L 267.145477 84.8316 
L 270.20023 86.586 
L 273.224408 87.74184 
L 276.260428 87.618 
L 279.36 88.19592 
" clip-path="url(#p553be24286)" style="fill: none; stroke: #4a8dff; stroke-width: 0.6"/>
   </g>
   <g id="line2d_7">
    <path d="M 8.64 85.01736 
L 11.693905 86.14224 
L 14.74781 85.90488 
L 17.801714 86.328 
L 20.855619 86.24544 
L 23.909524 85.72944 
L 26.963429 85.7088 
L 30.017334 86.40024 
L 33.071238 85.09992 
L 36.125143 86.02872 
L 39.179048 84.78 
L 42.232953 83.53128 
L 45.286858 82.83984 
L 48.340762 82.03488 
L 51.394667 79.39296 
L 54.448572 79.66128 
L 57.502477 82.15872 
L 60.556381 82.43736 
L 63.610286 82.93272 
L 66.664191 83.00496 
L 69.718096 82.6128 
L 72.772001 82.28256 
L 75.825905 78.01008 
L 78.87981 76.19376 
L 81.933715 77.66952 
L 84.98762 77.74176 
L 88.041525 78.1752 
L 91.095429 79.5684 
L 94.149334 80.8068 
L 97.203239 85.20312 
L 100.257144 84.12984 
L 103.311049 84.03696 
L 106.364953 84.06792 
L 109.418858 84.3156 
L 112.472763 87.02976 
L 115.526668 85.21344 
L 118.580573 84.28464 
L 121.634477 84.32592 
L 124.688382 89.08344 
L 127.742287 89.5272 
L 130.796192 95.14128 
L 133.850096 96.98856 
L 136.904001 95.08968 
L 139.482183 97.71096 
L 141.909083 99.80592 
L 144.961432 101.79768 
L 148.002259 100.03296 
L 151.125972 100.518 
L 154.154675 99.98136 
L 157.226006 100.49736 
L 160.273584 100.78632 
L 163.316496 101.07528 
L 166.369481 101.26104 
L 169.386662 100.63152 
L 172.279423 100.38384 
L 175.529216 100.84824 
L 178.19951 100.65216 
L 181.632184 101.034 
L 184.682377 101.19912 
L 187.718432 101.10624 
L 190.753674 100.97208 
L 193.842466 100.91016 
L 196.90556 101.7564 
L 199.701474 101.84928 
L 203.002377 101.56032 
L 206.042674 100.85856 
L 209.090782 101.12688 
L 212.108704 101.4468 
L 215.231993 101.02368 
L 218.25437 101.30232 
L 221.315379 100.81728 
L 224.352176 100.79664 
L 227.412655 99.3312 
L 230.465111 99.92976 
L 233.495581 100.78632 
L 236.579141 101.17848 
L 239.642201 101.1372 
L 242.676489 100.21872 
L 245.729192 100.37352 
L 248.795114 100.4664 
L 251.843116 99.88848 
L 254.892956 99.94008 
L 258.005288 99.81624 
L 261.067817 98.93904 
L 264.068279 98.3508 
L 267.145477 98.52624 
L 270.20023 99.78528 
L 273.224408 100.12584 
L 276.260428 100.03296 
L 279.36 100.45608 
" clip-path="url(#p553be24286)" style="fill: none; stroke: #f5841e; stroke-width: 0.6"/>
   </g>
  </g>
 </g>
 <defs>
  <clipPath id="p553be24286">
   <rect x="8.64" y="4.8" width="270.72" height="103.2"/>
  </clipPath>
 </defs>
</svg>
