<?xml version="1.0" encoding="utf-8" standalone="no"?>
<!DOCTYPE svg PUBLIC "-//W3C//DTD SVG 1.1//EN"
  "http://www.w3.org/Graphics/SVG/1.1/DTD/svg11.dtd">
<svg xmlns:xlink="http://www.w3.org/1999/xlink" width="288pt" height="120pt" viewBox="0 0 288 120" xmlns="http://www.w3.org/2000/svg" version="1.1">
<desc id="nav-meta">{"window":"1m","count":4,"labels":["02.05","12.05","21.05","31.05"],"tick_utc":["2026-05-02T04:02:31Z","2026-05-12T04:26:58Z","2026-05-21T04:59:27Z","2026-05-31T05:08:27Z"],"w":720,"h":300}</desc>

 <metadata>
  <rdf:RDF xmlns:dc="http://purl.org/dc/elements/1.1/" xmlns:cc="http://creativecommons.org/ns#" xmlns:rdf="http://www.w3.org/1999/02/22-rdf-syntax-ns#">
   <cc:Work>
    <dc:type rdf:resource="http://purl.org/dc/dcmitype/StillImage"/>
    <dc:date>2026-05-31T14:21:35.340245</dc:date>
    <dc:format>image/svg+xml</dc:format>
    <dc:creator>
     <cc:Agent>
      <dc:title>Matplotlib v3.10.9, https://matplotlib.org/</dc:title>
     </cc:Agent>
    </dc:creator>
   </cc:Work>
  </rdf:RDF>
 </metadata>
 <defs>
  <style type="text/css">*{stroke-linejoin: round; stroke-linecap: butt}</style>
 </defs>
 <g id="figure_1">
  <g id="patch_1">
   <path d="M 0 120 
L 288 120 
L 288 0 
L 0 0 
L 0 120 
z
" style="fill: none; opacity: 0"/>
  </g>
  <g id="axes_1">
   <g id="patch_2">
    <path d="M 8.64 108 
L 279.36 108 
L 279.36 4.8 
L 8.64 4.8 
L 8.64 108 
z
" style="fill: none"/>
   </g>
   <g id="matplotlib.axis_1"/>
   <g id="matplotlib.axis_2"/>
   <g id="line2d_1">
    <path d="M 8.64 87.36 
L 279.36 87.36 
" clip-path="url(#pa1e25c6fef)" style="fill: none; stroke: #b2b2b2; stroke-opacity: 0.35; stroke-width: 0.5; stroke-linecap: square"/>
   </g>
   <g id="line2d_2">
    <path d="M 8.64 66.72 
L 279.36 66.72 
" clip-path="url(#pa1e25c6fef)" style="fill: none; stroke: #b2b2b2; stroke-opacity: 0.35; stroke-width: 0.5; stroke-linecap: square"/>
   </g>
   <g id="line2d_3">
    <path d="M 8.64 46.08 
L 279.36 46.08 
" clip-path="url(#pa1e25c6fef)" style="fill: none; stroke: #b2b2b2; stroke-opacity: 0.35; stroke-width: 0.5; stroke-linecap: square"/>
   </g>
   <g id="line2d_4">
    <path d="M 8.64 25.44 
L 279.36 25.44 
" clip-path="url(#pa1e25c6fef)" style="fill: none; stroke: #b2b2b2; stroke-opacity: 0.35; stroke-width: 0.5; stroke-linecap: square"/>
   </g>
   <g id="line2d_5">
    <path d="M 8.64 101.20944 
L 18.149671 101.23008 
L 27.466891 100.92048 
L 36.58206 101.06496 
L 46.066704 100.70376 
L 55.389642 100.55928 
L 64.554973 100.53864 
L 73.909518 99.60984 
L 83.417787 99.72336 
L 92.811815 99.44472 
L 102.00282 99.25896 
L 111.367614 99.32088 
L 120.677715 100.22904 
L 130.044126 100.01232 
L 139.245596 100.43544 
L 148.705212 100.75536 
L 158.116177 101.02368 
L 167.369859 101.02368 
L 176.723649 101.17848 
L 186.09718 100.7244 
L 195.346223 100.75536 
L 204.538632 101.11656 
L 214.006662 100.91016 
L 223.449773 100.89984 
L 232.629021 101.1372 
L 242.045163 101.2404 
L 251.335846 101.6532 
L 260.663207 101.4984 
L 269.849251 101.48808 
L 279.36 101.32296 
" clip-path="url(#pa1e25c6fef)" style="fill: none; stroke: #bebebe; stroke-width: 0.5; stroke-linecap: round"/>
   </g>
   <g id="line2d_6">
    <path d="M 8.64 85.38888 
L 18.149671 85.3992 
L 27.466891 84.09888 
L 36.58206 84.22272 
L 46.066704 84.34656 
L 55.389642 85.06896 
L 64.554973 85.7604 
L 73.909518 85.0896 
L 83.417787 85.01736 
L 92.811815 84.9348 
L 102.00282 85.296 
L 111.367614 85.35792 
L 120.677715 86.1732 
L 130.044126 85.92552 
L 139.245596 86.55504 
L 148.705212 87.13296 
L 158.116177 88.10304 
L 167.369859 87.9276 
L 176.723649 88.26816 
L 186.09718 87.78312 
L 195.346223 87.95856 
L 204.538632 88.94928 
L 214.006662 88.14432 
L 223.449773 88.33008 
L 232.629021 88.52616 
L 242.045163 88.86672 
L 251.335846 90.22896 
L 260.663207 89.82648 
L 269.849251 89.87808 
L 279.36 89.46528 
" clip-path="url(#pa1e25c6fef)" style="fill: none; stroke: #4a8dff; stroke-width: 0.6"/>
   </g>
   <g id="line2d_7">
    <path d="M 8.64 95.45088 
L 18.149671 95.67792 
L 27.466891 93.43848 
L 36.58206 92.90184 
L 46.066704 92.25168 
L 55.389642 92.87088 
L 64.554973 94.2744 
L 73.909518 93.1392 
L 83.417787 92.97408 
L 92.811815 92.9844 
L 102.00282 92.60256 
L 111.367614 92.53032 
L 120.677715 94.54272 
L 130.044126 92.85024 
L 139.245596 94.82136 
L 148.705212 95.75016 
L 158.116177 96.97824 
L 167.369859 97.08144 
L 176.723649 97.23624 
L 186.09718 95.94624 
L 195.346223 96.30744 
L 204.538632 98.08248 
L 214.006662 97.2672 
L 223.449773 96.61704 
L 232.629021 97.23624 
L 242.045163 98.08248 
L 251.335846 99.18672 
L 260.663207 99.03192 
L 269.849251 99.1248 
L 279.36 98.74296 
" clip-path="url(#pa1e25c6fef)" style="fill: none; stroke: #f5841e; stroke-width: 0.6"/>
   </g>
  </g>
 </g>
 <defs>
  <clipPath id="pa1e25c6fef">
   <rect x="8.64" y="4.8" width="270.72" height="103.2"/>
  </clipPath>
 </defs>
</svg>
