<?xml version="1.0" encoding="utf-8" standalone="no"?>
<!DOCTYPE svg PUBLIC "-//W3C//DTD SVG 1.1//EN"
  "http://www.w3.org/Graphics/SVG/1.1/DTD/svg11.dtd">
<svg xmlns:xlink="http://www.w3.org/1999/xlink" width="288pt" height="120pt" viewBox="0 0 288 120" xmlns="http://www.w3.org/2000/svg" version="1.1">
<desc id="nav-meta">{"window":"2w","count":4,"labels":["11.06","16.06","20.06","25.06"],"tick_utc":["2026-06-11T05:14:13Z","2026-06-16T06:15:52Z","2026-06-20T04:59:26Z","2026-06-25T04:50:14Z"],"w":720,"h":300}</desc>

 <metadata>
  <rdf:RDF xmlns:dc="http://purl.org/dc/elements/1.1/" xmlns:cc="http://creativecommons.org/ns#" xmlns:rdf="http://www.w3.org/1999/02/22-rdf-syntax-ns#">
   <cc:Work>
    <dc:type rdf:resource="http://purl.org/dc/dcmitype/StillImage"/>
    <dc:date>2026-06-25T04:50:16.184298</dc:date>
    <dc:format>image/svg+xml</dc:format>
    <dc:creator>
     <cc:Agent>
      <dc:title>Matplotlib v3.11.0, https://matplotlib.org/</dc:title>
     </cc:Agent>
    </dc:creator>
   </cc:Work>
  </rdf:RDF>
 </metadata>
 <defs>
  <style type="text/css">*{stroke-linejoin: round; stroke-linecap: butt}</style>
 </defs>
 <g id="figure_1">
  <g id="patch_1">
   <path d="M 0 120 
L 288 120 
L 288 0 
L 0 0 
L 0 120 
z
" style="fill: none; opacity: 0"/>
  </g>
  <g id="axes_1">
   <g id="patch_2">
    <path d="M 8.64 108 
L 279.36 108 
L 279.36 4.8 
L 8.64 4.8 
L 8.64 108 
z
" style="fill: none"/>
   </g>
   <g id="matplotlib.axis_1"/>
   <g id="matplotlib.axis_2"/>
   <g id="line2d_1">
    <path d="M 8.64 87.36 
L 279.36 87.36 
" clip-path="url(#pac946778e9)" style="fill: none; stroke: #b2b2b2; stroke-opacity: 0.35; stroke-width: 0.5; stroke-linecap: square"/>
   </g>
   <g id="line2d_2">
    <path d="M 8.64 66.72 
L 279.36 66.72 
" clip-path="url(#pac946778e9)" style="fill: none; stroke: #b2b2b2; stroke-opacity: 0.35; stroke-width: 0.5; stroke-linecap: square"/>
   </g>
   <g id="line2d_3">
    <path d="M 8.64 46.08 
L 279.36 46.08 
" clip-path="url(#pac946778e9)" style="fill: none; stroke: #b2b2b2; stroke-opacity: 0.35; stroke-width: 0.5; stroke-linecap: square"/>
   </g>
   <g id="line2d_4">
    <path d="M 8.64 25.44 
L 279.36 25.44 
" clip-path="url(#pac946778e9)" style="fill: none; stroke: #b2b2b2; stroke-opacity: 0.35; stroke-width: 0.5; stroke-linecap: square"/>
   </g>
   <g id="line2d_5">
    <path d="M 8.64 103.72752 
L 28.076136 103.50048 
L 47.294695 103.5108 
L 66.795365 103.31472 
L 86.799087 102.95352 
L 106.269731 102.61296 
L 125.013248 102.6336 
L 144.280655 102.9948 
L 164.096825 103.28376 
L 182.682817 103.01544 
L 202.44588 102.69552 
L 222.372743 102.582 
L 240.575565 102.88128 
L 260.004979 103.15992 
L 279.36 103.36632 
" clip-path="url(#pac946778e9)" style="fill: none; stroke: #bebebe; stroke-width: 0.5; stroke-linecap: round"/>
   </g>
   <g id="line2d_6">
    <path d="M 8.64 95.11032 
L 28.076136 94.82136 
L 47.294695 94.8936 
L 66.795365 94.70784 
L 86.799087 94.04736 
L 106.269731 93.40752 
L 125.013248 92.9844 
L 144.280655 93.93384 
L 164.096825 94.4292 
L 182.682817 94.19184 
L 202.44588 93.87192 
L 222.372743 93.81 
L 240.575565 94.03704 
L 260.004979 94.83168 
L 279.36 95.48184 
" clip-path="url(#pac946778e9)" style="fill: none; stroke: #4a8dff; stroke-width: 0.6"/>
   </g>
   <g id="line2d_7">
    <path d="M 8.64 102.29304 
L 28.076136 102.08664 
L 47.294695 102.066 
L 66.795365 101.86992 
L 86.799087 101.48808 
L 106.269731 101.40552 
L 125.013248 101.4984 
L 144.280655 101.97312 
L 164.096825 102.26208 
L 182.682817 102.066 
L 202.44588 101.90088 
L 222.372743 101.90088 
L 240.575565 102.0144 
L 260.004979 102.25176 
L 279.36 102.6336 
" clip-path="url(#pac946778e9)" style="fill: none; stroke: #f5841e; stroke-width: 0.6"/>
   </g>
  </g>
 </g>
 <defs>
  <clipPath id="pac946778e9">
   <rect x="8.64" y="4.8" width="270.72" height="103.2"/>
  </clipPath>
 </defs>
</svg>
