<?xml version="1.0" encoding="utf-8" standalone="no"?>
<!DOCTYPE svg PUBLIC "-//W3C//DTD SVG 1.1//EN"
  "http://www.w3.org/Graphics/SVG/1.1/DTD/svg11.dtd">
<svg xmlns:xlink="http://www.w3.org/1999/xlink" width="288pt" height="120pt" viewBox="0 0 288 120" xmlns="http://www.w3.org/2000/svg" version="1.1">
<desc id="nav-meta">{"window":"1m","count":4,"labels":["23.04","03.05","12.05","22.05"],"tick_utc":["2026-04-23T03:57:29Z","2026-05-03T04:31:45Z","2026-05-12T04:26:58Z","2026-05-22T04:48:25Z"],"w":720,"h":300}</desc>

 <metadata>
  <rdf:RDF xmlns:dc="http://purl.org/dc/elements/1.1/" xmlns:cc="http://creativecommons.org/ns#" xmlns:rdf="http://www.w3.org/1999/02/22-rdf-syntax-ns#">
   <cc:Work>
    <dc:type rdf:resource="http://purl.org/dc/dcmitype/StillImage"/>
    <dc:date>2026-05-22T15:40:15.421397</dc:date>
    <dc:format>image/svg+xml</dc:format>
    <dc:creator>
     <cc:Agent>
      <dc:title>Matplotlib v3.10.9, https://matplotlib.org/</dc:title>
     </cc:Agent>
    </dc:creator>
   </cc:Work>
  </rdf:RDF>
 </metadata>
 <defs>
  <style type="text/css">*{stroke-linejoin: round; stroke-linecap: butt}</style>
 </defs>
 <g id="figure_1">
  <g id="patch_1">
   <path d="M 0 120 
L 288 120 
L 288 0 
L 0 0 
L 0 120 
z
" style="fill: none; opacity: 0"/>
  </g>
  <g id="axes_1">
   <g id="patch_2">
    <path d="M 8.64 108 
L 279.36 108 
L 279.36 4.8 
L 8.64 4.8 
L 8.64 108 
z
" style="fill: none"/>
   </g>
   <g id="matplotlib.axis_1"/>
   <g id="matplotlib.axis_2"/>
   <g id="line2d_1">
    <path d="M 8.64 87.36 
L 279.36 87.36 
" clip-path="url(#pb0155d123d)" style="fill: none; stroke: #b2b2b2; stroke-opacity: 0.35; stroke-width: 0.5; stroke-linecap: square"/>
   </g>
   <g id="line2d_2">
    <path d="M 8.64 66.72 
L 279.36 66.72 
" clip-path="url(#pb0155d123d)" style="fill: none; stroke: #b2b2b2; stroke-opacity: 0.35; stroke-width: 0.5; stroke-linecap: square"/>
   </g>
   <g id="line2d_3">
    <path d="M 8.64 46.08 
L 279.36 46.08 
" clip-path="url(#pb0155d123d)" style="fill: none; stroke: #b2b2b2; stroke-opacity: 0.35; stroke-width: 0.5; stroke-linecap: square"/>
   </g>
   <g id="line2d_4">
    <path d="M 8.64 25.44 
L 279.36 25.44 
" clip-path="url(#pb0155d123d)" style="fill: none; stroke: #b2b2b2; stroke-opacity: 0.35; stroke-width: 0.5; stroke-linecap: square"/>
   </g>
   <g id="line2d_5">
    <path d="M 8.64 100.9308 
L 17.988513 100.92048 
L 27.201054 100.81728 
L 36.669891 100.8792 
L 46.09416 100.64184 
L 55.437493 101.1888 
L 64.735825 101.09592 
L 74.075273 101.37456 
L 83.500945 101.21976 
L 92.586794 101.20944 
L 102.099877 101.23008 
L 111.42044 100.92048 
L 120.538879 101.06496 
L 130.026925 100.70376 
L 139.353208 100.55928 
L 148.521827 100.53864 
L 157.879729 99.60984 
L 167.391408 99.72336 
L 176.788806 99.44472 
L 185.983109 99.25896 
L 195.351263 99.32088 
L 204.664703 100.22904 
L 214.034475 100.01232 
L 223.239246 100.43544 
L 232.702256 100.75536 
L 242.116597 101.02368 
L 251.373598 101.02368 
L 260.730744 101.17848 
L 270.107639 100.7244 
L 279.36 100.75536 
" clip-path="url(#pb0155d123d)" style="fill: none; stroke: #bebebe; stroke-width: 0.5; stroke-linecap: round"/>
   </g>
   <g id="line2d_6">
    <path d="M 8.64 84.86256 
L 17.988513 85.32696 
L 27.201054 85.17216 
L 36.669891 85.31664 
L 46.09416 84.11952 
L 55.437493 85.66752 
L 64.735825 85.26504 
L 74.075273 86.26608 
L 83.500945 85.77072 
L 92.586794 85.38888 
L 102.099877 85.3992 
L 111.42044 84.09888 
L 120.538879 84.22272 
L 130.026925 84.34656 
L 139.353208 85.06896 
L 148.521827 85.7604 
L 157.879729 85.0896 
L 167.391408 85.01736 
L 176.788806 84.9348 
L 185.983109 85.296 
L 195.351263 85.35792 
L 204.664703 86.1732 
L 214.034475 85.92552 
L 223.239246 86.55504 
L 232.702256 87.13296 
L 242.116597 88.10304 
L 251.373598 87.9276 
L 260.730744 88.26816 
L 270.107639 87.78312 
L 279.36 87.95856 
" clip-path="url(#pb0155d123d)" style="fill: none; stroke: #4a8dff; stroke-width: 0.6"/>
   </g>
   <g id="line2d_7">
    <path d="M 8.64 96.20424 
L 17.988513 96.16296 
L 27.201054 96.1836 
L 36.669891 96.50352 
L 46.09416 94.76976 
L 55.437493 97.19496 
L 64.735825 96.9576 
L 74.075273 97.9896 
L 83.500945 96.89568 
L 92.586794 95.45088 
L 102.099877 95.67792 
L 111.42044 93.43848 
L 120.538879 92.90184 
L 130.026925 92.25168 
L 139.353208 92.87088 
L 148.521827 94.2744 
L 157.879729 93.1392 
L 167.391408 92.97408 
L 176.788806 92.9844 
L 185.983109 92.60256 
L 195.351263 92.53032 
L 204.664703 94.54272 
L 214.034475 92.85024 
L 223.239246 94.82136 
L 232.702256 95.75016 
L 242.116597 96.97824 
L 251.373598 97.08144 
L 260.730744 97.23624 
L 270.107639 95.94624 
L 279.36 96.30744 
" clip-path="url(#pb0155d123d)" style="fill: none; stroke: #f5841e; stroke-width: 0.6"/>
   </g>
  </g>
 </g>
 <defs>
  <clipPath id="pb0155d123d">
   <rect x="8.64" y="4.8" width="270.72" height="103.2"/>
  </clipPath>
 </defs>
</svg>
