<?xml version="1.0" encoding="utf-8" standalone="no"?>
<!DOCTYPE svg PUBLIC "-//W3C//DTD SVG 1.1//EN"
  "http://www.w3.org/Graphics/SVG/1.1/DTD/svg11.dtd">
<svg xmlns:xlink="http://www.w3.org/1999/xlink" width="288pt" height="120pt" viewBox="0 0 288 120" xmlns="http://www.w3.org/2000/svg" version="1.1">
<desc id="nav-meta">{"window":"3m","count":4,"labels":["15.01","14.02","15.03","14.04"],"tick_utc":["2026-01-15T12:00:00Z","2026-02-14T03:16:28Z","2026-03-15T03:42:35Z","2026-04-14T03:53:32Z"],"w":720,"h":300}</desc>

 <metadata>
  <rdf:RDF xmlns:dc="http://purl.org/dc/elements/1.1/" xmlns:cc="http://creativecommons.org/ns#" xmlns:rdf="http://www.w3.org/1999/02/22-rdf-syntax-ns#">
   <cc:Work>
    <dc:type rdf:resource="http://purl.org/dc/dcmitype/StillImage"/>
    <dc:date>2026-04-14T14:22:21.107816</dc:date>
    <dc:format>image/svg+xml</dc:format>
    <dc:creator>
     <cc:Agent>
      <dc:title>Matplotlib v3.10.8, https://matplotlib.org/</dc:title>
     </cc:Agent>
    </dc:creator>
   </cc:Work>
  </rdf:RDF>
 </metadata>
 <defs>
  <style type="text/css">*{stroke-linejoin: round; stroke-linecap: butt}</style>
 </defs>
 <g id="figure_1">
  <g id="patch_1">
   <path d="M 0 120 
L 288 120 
L 288 0 
L 0 0 
L 0 120 
z
" style="fill: none; opacity: 0"/>
  </g>
  <g id="axes_1">
   <g id="patch_2">
    <path d="M 8.64 108 
L 279.36 108 
L 279.36 4.8 
L 8.64 4.8 
L 8.64 108 
z
" style="fill: none"/>
   </g>
   <g id="matplotlib.axis_1"/>
   <g id="matplotlib.axis_2"/>
   <g id="line2d_1">
    <path d="M 8.64 87.36 
L 279.36 87.36 
" clip-path="url(#pf6aa7d28ce)" style="fill: none; stroke: #b2b2b2; stroke-opacity: 0.35; stroke-width: 0.5; stroke-linecap: square"/>
   </g>
   <g id="line2d_2">
    <path d="M 8.64 66.72 
L 279.36 66.72 
" clip-path="url(#pf6aa7d28ce)" style="fill: none; stroke: #b2b2b2; stroke-opacity: 0.35; stroke-width: 0.5; stroke-linecap: square"/>
   </g>
   <g id="line2d_3">
    <path d="M 8.64 46.08 
L 279.36 46.08 
" clip-path="url(#pf6aa7d28ce)" style="fill: none; stroke: #b2b2b2; stroke-opacity: 0.35; stroke-width: 0.5; stroke-linecap: square"/>
   </g>
   <g id="line2d_4">
    <path d="M 8.64 25.44 
L 279.36 25.44 
" clip-path="url(#pf6aa7d28ce)" style="fill: none; stroke: #b2b2b2; stroke-opacity: 0.35; stroke-width: 0.5; stroke-linecap: square"/>
   </g>
   <g id="line2d_5">
    <path d="M 8.64 86.42088 
L 11.693388 87.62832 
L 14.746775 86.93688 
L 17.800163 87.23616 
L 20.853551 88.63968 
L 23.906939 90.0432 
L 26.960326 92.12784 
L 30.013714 91.16808 
L 33.067102 91.46736 
L 36.12049 91.73568 
L 39.173877 91.78728 
L 42.227265 94.0164 
L 45.280653 92.5716 
L 48.33404 91.76664 
L 51.387428 92.33424 
L 54.440816 94.36728 
L 57.494204 94.46016 
L 60.547591 97.71096 
L 63.600979 98.48496 
L 66.654367 97.85544 
L 69.232112 99.10416 
L 71.658601 100.16712 
L 74.710434 102.23112 
L 77.750745 100.54896 
L 80.87393 100.70376 
L 83.90212 100.68312 
L 86.972931 100.95144 
L 90.019992 101.28168 
L 93.062389 101.71512 
L 96.114858 101.84928 
L 99.131528 101.034 
L 102.0238 100.54896 
L 105.273042 101.04432 
L 107.942884 100.81728 
L 111.374976 101.034 
L 114.424653 101.4984 
L 117.460194 101.33328 
L 120.494922 101.1372 
L 123.583191 101.06496 
L 126.645767 102.09696 
L 129.441207 102.05568 
L 132.741552 101.4984 
L 135.781333 100.60056 
L 138.828925 100.80696 
L 141.846337 101.45712 
L 144.969097 100.55928 
L 147.990962 101.10624 
L 151.051453 100.8792 
L 154.087736 100.74504 
L 157.147697 100.21872 
L 160.199636 100.53864 
L 163.229593 101.07528 
L 166.312631 101.38488 
L 169.375172 101.26104 
L 172.408946 100.78632 
L 175.461132 100.91016 
L 178.526535 100.99272 
L 181.574021 100.38384 
L 184.623345 100.50768 
L 187.73515 100.60056 
L 190.79716 99.76464 
L 193.797114 99.49632 
L 196.873791 99.40344 
L 199.928027 100.09488 
L 202.951693 100.3632 
L 205.987199 100.19808 
L 209.086246 100.47672 
L 212.146808 100.79664 
L 215.171923 100.26 
L 218.452725 99.83688 
L 221.315841 100.13616 
L 224.373081 100.80696 
L 227.397278 101.38488 
L 230.492261 101.3436 
L 233.554378 101.292 
L 236.588505 101.28168 
L 239.66808 101.28168 
L 242.681251 101.8596 
L 245.738137 101.88024 
L 248.765373 101.72544 
L 251.864738 101.68416 
L 254.926007 101.47776 
L 257.959569 101.78736 
L 261.017904 101.09592 
L 264.060654 101.46744 
L 267.142138 101.3436 
L 270.148841 101.05464 
L 273.257006 101.3952 
L 276.326049 101.47776 
L 279.36 100.86888 
" clip-path="url(#pf6aa7d28ce)" style="fill: none; stroke: #bebebe; stroke-width: 0.5; stroke-linecap: round"/>
   </g>
   <g id="line2d_6">
    <path d="M 8.64 69.77472 
L 11.693388 70.34232 
L 14.746775 70.67256 
L 17.800163 70.51776 
L 20.853551 70.848 
L 23.906939 72.31344 
L 26.960326 76.01832 
L 30.013714 75.41976 
L 33.067102 75.83256 
L 36.12049 75.79128 
L 39.173877 75.82224 
L 42.227265 77.82432 
L 45.280653 76.14216 
L 48.33404 74.75928 
L 51.387428 74.96568 
L 54.440816 77.75208 
L 57.494204 79.48584 
L 60.547591 83.31456 
L 63.600979 85.90488 
L 66.654367 84.79032 
L 69.232112 85.84296 
L 71.658601 88.25784 
L 74.710434 91.41576 
L 77.750745 88.7532 
L 80.87393 88.65 
L 83.90212 88.55712 
L 86.972931 88.96992 
L 90.019992 89.7336 
L 93.062389 90.456 
L 96.114858 90.56952 
L 99.131528 89.15568 
L 102.0238 88.9596 
L 105.273042 90.6624 
L 107.942884 89.94 
L 111.374976 90.00192 
L 114.424653 90.3528 
L 117.460194 90.62112 
L 120.494922 90.5076 
L 123.583191 90.3528 
L 126.645767 92.004 
L 129.441207 92.13816 
L 132.741552 91.25064 
L 135.781333 89.166 
L 138.828925 89.56848 
L 141.846337 90.93072 
L 144.969097 89.41368 
L 147.990962 90.37344 
L 151.051453 89.79552 
L 154.087736 90.23928 
L 157.147697 88.0824 
L 160.199636 88.7532 
L 163.229593 90.16704 
L 166.312631 90.67272 
L 169.375172 90.18768 
L 172.408946 89.2692 
L 175.461132 89.54784 
L 178.526535 89.49624 
L 181.574021 88.31976 
L 184.623345 88.45392 
L 187.73515 88.46424 
L 190.79716 86.38992 
L 193.797114 84.80064 
L 196.873791 84.8316 
L 199.928027 86.586 
L 202.951693 87.74184 
L 205.987199 87.618 
L 209.086246 88.19592 
L 212.146808 89.08344 
L 215.171923 87.89664 
L 218.452725 87.3084 
L 221.315841 87.65928 
L 224.373081 88.96992 
L 227.397278 90.07416 
L 230.492261 89.76456 
L 233.554378 89.3724 
L 236.588505 89.00088 
L 239.66808 88.42296 
L 242.681251 88.81512 
L 245.738137 89.10408 
L 248.765373 89.14536 
L 251.864738 89.07312 
L 254.926007 87.9792 
L 257.959569 88.29912 
L 261.017904 86.38992 
L 264.060654 87.24648 
L 267.142138 87.1536 
L 270.148841 86.21448 
L 273.257006 86.66856 
L 276.326049 87.01944 
L 279.36 84.44976 
" clip-path="url(#pf6aa7d28ce)" style="fill: none; stroke: #4a8dff; stroke-width: 0.6"/>
   </g>
   <g id="line2d_7">
    <path d="M 8.64 76.19376 
L 11.693388 77.66952 
L 14.746775 77.74176 
L 17.800163 78.1752 
L 20.853551 79.5684 
L 23.906939 80.8068 
L 26.960326 85.20312 
L 30.013714 84.12984 
L 33.067102 84.03696 
L 36.12049 84.06792 
L 39.173877 84.3156 
L 42.227265 87.02976 
L 45.280653 85.21344 
L 48.33404 84.28464 
L 51.387428 84.32592 
L 54.440816 89.08344 
L 57.494204 89.5272 
L 60.547591 95.14128 
L 63.600979 96.98856 
L 66.654367 95.08968 
L 69.232112 97.71096 
L 71.658601 99.80592 
L 74.710434 101.79768 
L 77.750745 100.03296 
L 80.87393 100.518 
L 83.90212 99.98136 
L 86.972931 100.49736 
L 90.019992 100.78632 
L 93.062389 101.07528 
L 96.114858 101.26104 
L 99.131528 100.63152 
L 102.0238 100.38384 
L 105.273042 100.84824 
L 107.942884 100.65216 
L 111.374976 101.034 
L 114.424653 101.19912 
L 117.460194 101.10624 
L 120.494922 100.97208 
L 123.583191 100.91016 
L 126.645767 101.7564 
L 129.441207 101.84928 
L 132.741552 101.56032 
L 135.781333 100.85856 
L 138.828925 101.12688 
L 141.846337 101.4468 
L 144.969097 101.02368 
L 147.990962 101.30232 
L 151.051453 100.81728 
L 154.087736 100.79664 
L 157.147697 99.3312 
L 160.199636 99.92976 
L 163.229593 100.78632 
L 166.312631 101.17848 
L 169.375172 101.1372 
L 172.408946 100.21872 
L 175.461132 100.37352 
L 178.526535 100.4664 
L 181.574021 99.88848 
L 184.623345 99.94008 
L 187.73515 99.81624 
L 190.79716 98.93904 
L 193.797114 98.3508 
L 196.873791 98.52624 
L 199.928027 99.78528 
L 202.951693 100.12584 
L 205.987199 100.03296 
L 209.086246 100.45608 
L 212.146808 100.83792 
L 215.171923 100.11552 
L 218.452725 99.87816 
L 221.315841 100.002 
L 224.373081 100.64184 
L 227.397278 101.41584 
L 230.492261 101.21976 
L 233.554378 101.14752 
L 236.588505 101.00304 
L 239.66808 100.86888 
L 242.681251 101.21976 
L 245.738137 101.28168 
L 248.765373 101.20944 
L 251.864738 101.14752 
L 254.926007 100.55928 
L 257.959569 100.65216 
L 261.017904 99.80592 
L 264.060654 99.96072 
L 267.142138 99.6408 
L 270.148841 99.1764 
L 273.257006 99.70272 
L 276.326049 99.94008 
L 279.36 98.57784 
" clip-path="url(#pf6aa7d28ce)" style="fill: none; stroke: #f5841e; stroke-width: 0.6"/>
   </g>
  </g>
 </g>
 <defs>
  <clipPath id="pf6aa7d28ce">
   <rect x="8.64" y="4.8" width="270.72" height="103.2"/>
  </clipPath>
 </defs>
</svg>
