<?xml version="1.0" encoding="utf-8" standalone="no"?>
<!DOCTYPE svg PUBLIC "-//W3C//DTD SVG 1.1//EN"
  "http://www.w3.org/Graphics/SVG/1.1/DTD/svg11.dtd">
<svg xmlns:xlink="http://www.w3.org/1999/xlink" width="288pt" height="120pt" viewBox="0 0 288 120" xmlns="http://www.w3.org/2000/svg" version="1.1">
<desc id="nav-meta">{"window":"1m","count":4,"labels":["20.02","02.03","11.03","21.03"],"tick_utc":["2026-02-20T03:20:24Z","2026-03-02T03:18:56Z","2026-03-11T03:14:04Z","2026-03-21T03:10:23Z"],"w":720,"h":300}</desc>

 <metadata>
  <rdf:RDF xmlns:dc="http://purl.org/dc/elements/1.1/" xmlns:cc="http://creativecommons.org/ns#" xmlns:rdf="http://www.w3.org/1999/02/22-rdf-syntax-ns#">
   <cc:Work>
    <dc:type rdf:resource="http://purl.org/dc/dcmitype/StillImage"/>
    <dc:date>2026-03-21T07:21:10.963879</dc:date>
    <dc:format>image/svg+xml</dc:format>
    <dc:creator>
     <cc:Agent>
      <dc:title>Matplotlib v3.10.8, https://matplotlib.org/</dc:title>
     </cc:Agent>
    </dc:creator>
   </cc:Work>
  </rdf:RDF>
 </metadata>
 <defs>
  <style type="text/css">*{stroke-linejoin: round; stroke-linecap: butt}</style>
 </defs>
 <g id="figure_1">
  <g id="patch_1">
   <path d="M 0 120 
L 288 120 
L 288 0 
L 0 0 
L 0 120 
z
" style="fill: none; opacity: 0"/>
  </g>
  <g id="axes_1">
   <g id="patch_2">
    <path d="M 8.64 108 
L 279.36 108 
L 279.36 4.8 
L 8.64 4.8 
L 8.64 108 
z
" style="fill: none"/>
   </g>
   <g id="matplotlib.axis_1"/>
   <g id="matplotlib.axis_2"/>
   <g id="line2d_1">
    <path d="M 8.64 87.36 
L 279.36 87.36 
" clip-path="url(#p0a7bd7764a)" style="fill: none; stroke: #b2b2b2; stroke-opacity: 0.35; stroke-width: 0.5; stroke-linecap: square"/>
   </g>
   <g id="line2d_2">
    <path d="M 8.64 66.72 
L 279.36 66.72 
" clip-path="url(#p0a7bd7764a)" style="fill: none; stroke: #b2b2b2; stroke-opacity: 0.35; stroke-width: 0.5; stroke-linecap: square"/>
   </g>
   <g id="line2d_3">
    <path d="M 8.64 46.08 
L 279.36 46.08 
" clip-path="url(#p0a7bd7764a)" style="fill: none; stroke: #b2b2b2; stroke-opacity: 0.35; stroke-width: 0.5; stroke-linecap: square"/>
   </g>
   <g id="line2d_4">
    <path d="M 8.64 25.44 
L 279.36 25.44 
" clip-path="url(#p0a7bd7764a)" style="fill: none; stroke: #b2b2b2; stroke-opacity: 0.35; stroke-width: 0.5; stroke-linecap: square"/>
   </g>
   <g id="line2d_5">
    <path d="M 8.64 101.33328 
L 17.92035 101.1372 
L 27.364429 101.06496 
L 36.72994 102.09696 
L 45.278535 102.05568 
L 55.371154 101.4984 
L 64.666958 100.60056 
L 73.986647 100.80696 
L 83.214042 101.45712 
L 92.763599 100.55928 
L 102.004611 101.10624 
L 111.363745 100.8792 
L 120.648851 100.74504 
L 130.006364 100.21872 
L 139.339345 100.53864 
L 148.605106 101.07528 
L 158.03319 101.38488 
L 167.398593 101.26104 
L 176.676025 100.78632 
L 186.009763 100.91016 
L 195.383919 100.99272 
L 204.703283 100.38384 
L 214.028267 100.50768 
L 223.544322 100.60056 
L 232.908104 99.76464 
L 242.082111 99.49632 
L 251.490743 99.40344 
L 260.830749 100.09488 
L 270.077272 100.3632 
L 279.36 100.19808 
" clip-path="url(#p0a7bd7764a)" style="fill: none; stroke: #bebebe; stroke-width: 0.5; stroke-linecap: round"/>
   </g>
   <g id="line2d_6">
    <path d="M 8.64 90.62112 
L 17.92035 90.5076 
L 27.364429 90.3528 
L 36.72994 92.004 
L 45.278535 92.13816 
L 55.371154 91.25064 
L 64.666958 89.166 
L 73.986647 89.56848 
L 83.214042 90.93072 
L 92.763599 89.41368 
L 102.004611 90.37344 
L 111.363745 89.79552 
L 120.648851 90.23928 
L 130.006364 88.0824 
L 139.339345 88.7532 
L 148.605106 90.16704 
L 158.03319 90.67272 
L 167.398593 90.18768 
L 176.676025 89.2692 
L 186.009763 89.54784 
L 195.383919 89.49624 
L 204.703283 88.31976 
L 214.028267 88.45392 
L 223.544322 88.46424 
L 232.908104 86.38992 
L 242.082111 84.80064 
L 251.490743 84.8316 
L 260.830749 86.586 
L 270.077272 87.74184 
L 279.36 87.618 
" clip-path="url(#p0a7bd7764a)" style="fill: none; stroke: #4a8dff; stroke-width: 0.6"/>
   </g>
   <g id="line2d_7">
    <path d="M 8.64 101.10624 
L 17.92035 100.97208 
L 27.364429 100.91016 
L 36.72994 101.7564 
L 45.278535 101.84928 
L 55.371154 101.56032 
L 64.666958 100.85856 
L 73.986647 101.12688 
L 83.214042 101.4468 
L 92.763599 101.02368 
L 102.004611 101.30232 
L 111.363745 100.81728 
L 120.648851 100.79664 
L 130.006364 99.3312 
L 139.339345 99.92976 
L 148.605106 100.78632 
L 158.03319 101.17848 
L 167.398593 101.1372 
L 176.676025 100.21872 
L 186.009763 100.37352 
L 195.383919 100.4664 
L 204.703283 99.88848 
L 214.028267 99.94008 
L 223.544322 99.81624 
L 232.908104 98.93904 
L 242.082111 98.3508 
L 251.490743 98.52624 
L 260.830749 99.78528 
L 270.077272 100.12584 
L 279.36 100.03296 
" clip-path="url(#p0a7bd7764a)" style="fill: none; stroke: #f5841e; stroke-width: 0.6"/>
   </g>
  </g>
 </g>
 <defs>
  <clipPath id="p0a7bd7764a">
   <rect x="8.64" y="4.8" width="270.72" height="103.2"/>
  </clipPath>
 </defs>
</svg>
