<?xml version="1.0" encoding="utf-8" standalone="no"?>
<!DOCTYPE svg PUBLIC "-//W3C//DTD SVG 1.1//EN"
  "http://www.w3.org/Graphics/SVG/1.1/DTD/svg11.dtd">
<svg xmlns:xlink="http://www.w3.org/1999/xlink" width="288pt" height="120pt" viewBox="0 0 288 120" xmlns="http://www.w3.org/2000/svg" version="1.1">
<desc id="nav-meta">{"window":"1m","count":4,"labels":["03.04","13.04","22.04","02.05"],"tick_utc":["2026-04-03T03:37:13Z","2026-04-13T04:02:42Z","2026-04-22T03:51:39Z","2026-05-02T04:02:31Z"],"w":720,"h":300}</desc>

 <metadata>
  <rdf:RDF xmlns:dc="http://purl.org/dc/elements/1.1/" xmlns:cc="http://creativecommons.org/ns#" xmlns:rdf="http://www.w3.org/1999/02/22-rdf-syntax-ns#">
   <cc:Work>
    <dc:type rdf:resource="http://purl.org/dc/dcmitype/StillImage"/>
    <dc:date>2026-05-02T08:12:53.625790</dc:date>
    <dc:format>image/svg+xml</dc:format>
    <dc:creator>
     <cc:Agent>
      <dc:title>Matplotlib v3.10.9, https://matplotlib.org/</dc:title>
     </cc:Agent>
    </dc:creator>
   </cc:Work>
  </rdf:RDF>
 </metadata>
 <defs>
  <style type="text/css">*{stroke-linejoin: round; stroke-linecap: butt}</style>
 </defs>
 <g id="figure_1">
  <g id="patch_1">
   <path d="M 0 120 
L 288 120 
L 288 0 
L 0 0 
L 0 120 
z
" style="fill: none; opacity: 0"/>
  </g>
  <g id="axes_1">
   <g id="patch_2">
    <path d="M 8.64 108 
L 279.36 108 
L 279.36 4.8 
L 8.64 4.8 
L 8.64 108 
z
" style="fill: none"/>
   </g>
   <g id="matplotlib.axis_1"/>
   <g id="matplotlib.axis_2"/>
   <g id="line2d_1">
    <path d="M 8.64 87.36 
L 279.36 87.36 
" clip-path="url(#p8cbf50cc25)" style="fill: none; stroke: #b2b2b2; stroke-opacity: 0.35; stroke-width: 0.5; stroke-linecap: square"/>
   </g>
   <g id="line2d_2">
    <path d="M 8.64 66.72 
L 279.36 66.72 
" clip-path="url(#p8cbf50cc25)" style="fill: none; stroke: #b2b2b2; stroke-opacity: 0.35; stroke-width: 0.5; stroke-linecap: square"/>
   </g>
   <g id="line2d_3">
    <path d="M 8.64 46.08 
L 279.36 46.08 
" clip-path="url(#p8cbf50cc25)" style="fill: none; stroke: #b2b2b2; stroke-opacity: 0.35; stroke-width: 0.5; stroke-linecap: square"/>
   </g>
   <g id="line2d_4">
    <path d="M 8.64 25.44 
L 279.36 25.44 
" clip-path="url(#p8cbf50cc25)" style="fill: none; stroke: #b2b2b2; stroke-opacity: 0.35; stroke-width: 0.5; stroke-linecap: square"/>
   </g>
   <g id="line2d_5">
    <path d="M 8.64 101.88024 
L 17.889615 101.72544 
L 27.359617 101.68416 
L 36.713217 101.47776 
L 45.98216 101.78736 
L 55.326798 101.09592 
L 64.623816 101.46744 
L 74.039181 101.3436 
L 83.226059 101.05464 
L 92.722949 101.3952 
L 102.100304 101.47776 
L 111.370435 100.86888 
L 120.692829 101.26104 
L 130.062733 100.99272 
L 139.373249 100.61088 
L 148.599864 100.44576 
L 158.05259 100.94112 
L 167.405218 101.09592 
L 176.693813 101.00304 
L 185.994395 100.69344 
L 195.361708 100.9308 
L 204.715956 100.92048 
L 213.934148 100.81728 
L 223.408794 100.8792 
L 232.838844 100.64184 
L 242.187909 101.1888 
L 251.491946 101.09592 
L 260.837123 101.37456 
L 270.268577 101.21976 
L 279.36 101.20944 
" clip-path="url(#p8cbf50cc25)" style="fill: none; stroke: #bebebe; stroke-width: 0.5; stroke-linecap: round"/>
   </g>
   <g id="line2d_6">
    <path d="M 8.64 89.10408 
L 17.889615 89.14536 
L 27.359617 89.07312 
L 36.713217 87.9792 
L 45.98216 88.29912 
L 55.326798 86.38992 
L 64.623816 87.24648 
L 74.039181 87.1536 
L 83.226059 86.21448 
L 92.722949 86.66856 
L 102.100304 87.01944 
L 111.370435 84.44976 
L 120.692829 85.05864 
L 130.062733 84.58392 
L 139.373249 85.04832 
L 148.599864 83.71704 
L 158.05259 84.86256 
L 167.405218 85.6572 
L 176.693813 85.27536 
L 185.994395 84.49104 
L 195.361708 84.86256 
L 204.715956 85.32696 
L 213.934148 85.17216 
L 223.408794 85.31664 
L 232.838844 84.11952 
L 242.187909 85.66752 
L 251.491946 85.26504 
L 260.837123 86.26608 
L 270.268577 85.77072 
L 279.36 85.38888 
" clip-path="url(#p8cbf50cc25)" style="fill: none; stroke: #4a8dff; stroke-width: 0.6"/>
   </g>
   <g id="line2d_7">
    <path d="M 8.64 101.28168 
L 17.889615 101.20944 
L 27.359617 101.14752 
L 36.713217 100.55928 
L 45.98216 100.65216 
L 55.326798 99.80592 
L 64.623816 99.96072 
L 74.039181 99.6408 
L 83.226059 99.1764 
L 92.722949 99.70272 
L 102.100304 99.94008 
L 111.370435 98.57784 
L 120.692829 98.65008 
L 130.062733 98.38176 
L 139.373249 98.48496 
L 148.599864 96.70992 
L 158.05259 98.05152 
L 167.405218 98.48496 
L 176.693813 97.96896 
L 185.994395 96.32808 
L 195.361708 96.20424 
L 204.715956 96.16296 
L 213.934148 96.1836 
L 223.408794 96.50352 
L 232.838844 94.76976 
L 242.187909 97.19496 
L 251.491946 96.9576 
L 260.837123 97.9896 
L 270.268577 96.89568 
L 279.36 95.45088 
" clip-path="url(#p8cbf50cc25)" style="fill: none; stroke: #f5841e; stroke-width: 0.6"/>
   </g>
  </g>
 </g>
 <defs>
  <clipPath id="p8cbf50cc25">
   <rect x="8.64" y="4.8" width="270.72" height="103.2"/>
  </clipPath>
 </defs>
</svg>
