<?xml version="1.0" encoding="utf-8" standalone="no"?>
<!DOCTYPE svg PUBLIC "-//W3C//DTD SVG 1.1//EN"
  "http://www.w3.org/Graphics/SVG/1.1/DTD/svg11.dtd">
<svg xmlns:xlink="http://www.w3.org/1999/xlink" width="288pt" height="120pt" viewBox="0 0 288 120" xmlns="http://www.w3.org/2000/svg" version="1.1">
<desc id="nav-meta">{"window":"3m","count":4,"labels":["23.12","22.01","21.02","23.03"],"tick_utc":["2025-12-23T12:00:00Z","2026-01-22T12:00:00Z","2026-02-21T03:11:36Z","2026-03-23T03:35:18Z"],"w":720,"h":300}</desc>

 <metadata>
  <rdf:RDF xmlns:dc="http://purl.org/dc/elements/1.1/" xmlns:cc="http://creativecommons.org/ns#" xmlns:rdf="http://www.w3.org/1999/02/22-rdf-syntax-ns#">
   <cc:Work>
    <dc:type rdf:resource="http://purl.org/dc/dcmitype/StillImage"/>
    <dc:date>2026-03-23T03:35:20.369221</dc:date>
    <dc:format>image/svg+xml</dc:format>
    <dc:creator>
     <cc:Agent>
      <dc:title>Matplotlib v3.10.8, https://matplotlib.org/</dc:title>
     </cc:Agent>
    </dc:creator>
   </cc:Work>
  </rdf:RDF>
 </metadata>
 <defs>
  <style type="text/css">*{stroke-linejoin: round; stroke-linecap: butt}</style>
 </defs>
 <g id="figure_1">
  <g id="patch_1">
   <path d="M 0 120 
L 288 120 
L 288 0 
L 0 0 
L 0 120 
z
" style="fill: none; opacity: 0"/>
  </g>
  <g id="axes_1">
   <g id="patch_2">
    <path d="M 8.64 108 
L 279.36 108 
L 279.36 4.8 
L 8.64 4.8 
L 8.64 108 
z
" style="fill: none"/>
   </g>
   <g id="matplotlib.axis_1"/>
   <g id="matplotlib.axis_2"/>
   <g id="line2d_1">
    <path d="M 8.64 87.36 
L 279.36 87.36 
" clip-path="url(#p7efdeaab07)" style="fill: none; stroke: #b2b2b2; stroke-opacity: 0.35; stroke-width: 0.5; stroke-linecap: square"/>
   </g>
   <g id="line2d_2">
    <path d="M 8.64 66.72 
L 279.36 66.72 
" clip-path="url(#p7efdeaab07)" style="fill: none; stroke: #b2b2b2; stroke-opacity: 0.35; stroke-width: 0.5; stroke-linecap: square"/>
   </g>
   <g id="line2d_3">
    <path d="M 8.64 46.08 
L 279.36 46.08 
" clip-path="url(#p7efdeaab07)" style="fill: none; stroke: #b2b2b2; stroke-opacity: 0.35; stroke-width: 0.5; stroke-linecap: square"/>
   </g>
   <g id="line2d_4">
    <path d="M 8.64 25.44 
L 279.36 25.44 
" clip-path="url(#p7efdeaab07)" style="fill: none; stroke: #b2b2b2; stroke-opacity: 0.35; stroke-width: 0.5; stroke-linecap: square"/>
   </g>
   <g id="line2d_5">
    <path d="M 8.64 92.14848 
L 11.65976 92.64384 
L 14.67952 93.01536 
L 17.699279 93.69648 
L 20.719039 93.11856 
L 23.738799 92.44776 
L 26.758559 92.30328 
L 29.778319 92.87088 
L 32.798079 92.38584 
L 35.817838 92.47872 
L 38.837598 91.88016 
L 41.857358 90.42504 
L 44.877118 90.08448 
L 47.896878 89.92968 
L 50.916637 88.76352 
L 53.936397 87.94824 
L 56.956157 89.2692 
L 59.975917 88.72224 
L 62.995677 89.39304 
L 66.015437 89.40336 
L 69.035196 88.41264 
L 72.054956 88.4952 
L 75.074716 86.86464 
L 78.094476 86.42088 
L 81.114236 87.62832 
L 84.133996 86.93688 
L 87.153755 87.23616 
L 90.173515 88.63968 
L 93.193275 90.0432 
L 96.213035 92.12784 
L 99.232795 91.16808 
L 102.252554 91.46736 
L 105.272314 91.73568 
L 108.292074 91.78728 
L 111.311834 94.0164 
L 114.331594 92.5716 
L 117.351354 91.76664 
L 120.371113 92.33424 
L 123.390873 94.36728 
L 126.410633 94.46016 
L 129.430393 97.71096 
L 132.450153 98.48496 
L 135.469912 97.85544 
L 138.019268 99.10416 
L 140.419033 100.16712 
L 143.437255 102.23112 
L 146.444083 100.54896 
L 149.532871 100.70376 
L 152.527711 100.68312 
L 155.564701 100.95144 
L 158.578205 101.28168 
L 161.587095 101.71512 
L 164.605946 101.84928 
L 167.589392 101.034 
L 170.449811 100.54896 
L 173.663268 101.04432 
L 176.303706 100.81728 
L 179.698 101.034 
L 182.71409 101.4984 
L 185.716199 101.33328 
L 188.717505 101.1372 
L 191.771762 101.06496 
L 194.800609 102.09696 
L 197.565262 102.05568 
L 200.829259 101.4984 
L 203.835562 100.60056 
L 206.84959 100.80696 
L 209.83377 101.45712 
L 212.922138 100.55928 
L 215.910722 101.10624 
L 218.937507 100.8792 
L 221.94035 100.74504 
L 224.966611 100.21872 
L 227.984938 100.53864 
L 230.981525 101.07528 
L 234.030609 101.38488 
L 237.059421 101.26104 
L 240.059783 100.78632 
L 243.078355 100.91016 
L 246.109998 100.99272 
L 249.123921 100.38384 
L 252.139661 100.50768 
L 255.217195 100.60056 
L 258.245483 99.76464 
L 261.212397 99.49632 
L 264.255189 99.40344 
L 267.275788 100.09488 
L 270.266154 100.3632 
L 273.268229 100.19808 
L 276.333145 100.47672 
L 279.36 100.79664 
" clip-path="url(#p7efdeaab07)" style="fill: none; stroke: #bebebe; stroke-width: 0.5; stroke-linecap: round"/>
   </g>
   <g id="line2d_6">
    <path d="M 8.64 74.98632 
L 11.65976 75.58488 
L 14.67952 75.87384 
L 17.699279 76.49304 
L 20.719039 76.15248 
L 23.738799 75.82224 
L 26.758559 75.84288 
L 29.778319 76.03896 
L 32.798079 75.51264 
L 35.817838 75.56424 
L 38.837598 75.05856 
L 41.857358 73.26288 
L 44.877118 73.20096 
L 47.896878 73.00488 
L 50.916637 71.68392 
L 53.936397 70.6932 
L 56.956157 72.62304 
L 59.975917 73.52088 
L 62.995677 73.83048 
L 66.015437 73.8408 
L 69.035196 73.29384 
L 72.054956 73.72728 
L 75.074716 70.32168 
L 78.094476 69.77472 
L 81.114236 70.34232 
L 84.133996 70.67256 
L 87.153755 70.51776 
L 90.173515 70.848 
L 93.193275 72.31344 
L 96.213035 76.01832 
L 99.232795 75.41976 
L 102.252554 75.83256 
L 105.272314 75.79128 
L 108.292074 75.82224 
L 111.311834 77.82432 
L 114.331594 76.14216 
L 117.351354 74.75928 
L 120.371113 74.96568 
L 123.390873 77.75208 
L 126.410633 79.48584 
L 129.430393 83.31456 
L 132.450153 85.90488 
L 135.469912 84.79032 
L 138.019268 85.84296 
L 140.419033 88.25784 
L 143.437255 91.41576 
L 146.444083 88.7532 
L 149.532871 88.65 
L 152.527711 88.55712 
L 155.564701 88.96992 
L 158.578205 89.7336 
L 161.587095 90.456 
L 164.605946 90.56952 
L 167.589392 89.15568 
L 170.449811 88.9596 
L 173.663268 90.6624 
L 176.303706 89.94 
L 179.698 90.00192 
L 182.71409 90.3528 
L 185.716199 90.62112 
L 188.717505 90.5076 
L 191.771762 90.3528 
L 194.800609 92.004 
L 197.565262 92.13816 
L 200.829259 91.25064 
L 203.835562 89.166 
L 206.84959 89.56848 
L 209.83377 90.93072 
L 212.922138 89.41368 
L 215.910722 90.37344 
L 218.937507 89.79552 
L 221.94035 90.23928 
L 224.966611 88.0824 
L 227.984938 88.7532 
L 230.981525 90.16704 
L 234.030609 90.67272 
L 237.059421 90.18768 
L 240.059783 89.2692 
L 243.078355 89.54784 
L 246.109998 89.49624 
L 249.123921 88.31976 
L 252.139661 88.45392 
L 255.217195 88.46424 
L 258.245483 86.38992 
L 261.212397 84.80064 
L 264.255189 84.8316 
L 267.275788 86.586 
L 270.266154 87.74184 
L 273.268229 87.618 
L 276.333145 88.19592 
L 279.36 89.08344 
" clip-path="url(#p7efdeaab07)" style="fill: none; stroke: #4a8dff; stroke-width: 0.6"/>
   </g>
   <g id="line2d_7">
    <path d="M 8.64 85.01736 
L 11.65976 86.14224 
L 14.67952 85.90488 
L 17.699279 86.328 
L 20.719039 86.24544 
L 23.738799 85.72944 
L 26.758559 85.7088 
L 29.778319 86.40024 
L 32.798079 85.09992 
L 35.817838 86.02872 
L 38.837598 84.78 
L 41.857358 83.53128 
L 44.877118 82.83984 
L 47.896878 82.03488 
L 50.916637 79.39296 
L 53.936397 79.66128 
L 56.956157 82.15872 
L 59.975917 82.43736 
L 62.995677 82.93272 
L 66.015437 83.00496 
L 69.035196 82.6128 
L 72.054956 82.28256 
L 75.074716 78.01008 
L 78.094476 76.19376 
L 81.114236 77.66952 
L 84.133996 77.74176 
L 87.153755 78.1752 
L 90.173515 79.5684 
L 93.193275 80.8068 
L 96.213035 85.20312 
L 99.232795 84.12984 
L 102.252554 84.03696 
L 105.272314 84.06792 
L 108.292074 84.3156 
L 111.311834 87.02976 
L 114.331594 85.21344 
L 117.351354 84.28464 
L 120.371113 84.32592 
L 123.390873 89.08344 
L 126.410633 89.5272 
L 129.430393 95.14128 
L 132.450153 96.98856 
L 135.469912 95.08968 
L 138.019268 97.71096 
L 140.419033 99.80592 
L 143.437255 101.79768 
L 146.444083 100.03296 
L 149.532871 100.518 
L 152.527711 99.98136 
L 155.564701 100.49736 
L 158.578205 100.78632 
L 161.587095 101.07528 
L 164.605946 101.26104 
L 167.589392 100.63152 
L 170.449811 100.38384 
L 173.663268 100.84824 
L 176.303706 100.65216 
L 179.698 101.034 
L 182.71409 101.19912 
L 185.716199 101.10624 
L 188.717505 100.97208 
L 191.771762 100.91016 
L 194.800609 101.7564 
L 197.565262 101.84928 
L 200.829259 101.56032 
L 203.835562 100.85856 
L 206.84959 101.12688 
L 209.83377 101.4468 
L 212.922138 101.02368 
L 215.910722 101.30232 
L 218.937507 100.81728 
L 221.94035 100.79664 
L 224.966611 99.3312 
L 227.984938 99.92976 
L 230.981525 100.78632 
L 234.030609 101.17848 
L 237.059421 101.1372 
L 240.059783 100.21872 
L 243.078355 100.37352 
L 246.109998 100.4664 
L 249.123921 99.88848 
L 252.139661 99.94008 
L 255.217195 99.81624 
L 258.245483 98.93904 
L 261.212397 98.3508 
L 264.255189 98.52624 
L 267.275788 99.78528 
L 270.266154 100.12584 
L 273.268229 100.03296 
L 276.333145 100.45608 
L 279.36 100.83792 
" clip-path="url(#p7efdeaab07)" style="fill: none; stroke: #f5841e; stroke-width: 0.6"/>
   </g>
  </g>
 </g>
 <defs>
  <clipPath id="p7efdeaab07">
   <rect x="8.64" y="4.8" width="270.72" height="103.2"/>
  </clipPath>
 </defs>
</svg>
