<?xml version="1.0" encoding="utf-8" standalone="no"?>
<!DOCTYPE svg PUBLIC "-//W3C//DTD SVG 1.1//EN"
  "http://www.w3.org/Graphics/SVG/1.1/DTD/svg11.dtd">
<svg xmlns:xlink="http://www.w3.org/1999/xlink" width="288pt" height="120pt" viewBox="0 0 288 120" xmlns="http://www.w3.org/2000/svg" version="1.1">
<desc id="nav-meta">{"window":"3m","count":4,"labels":["11.12","10.01","08.02","10.03"],"tick_utc":["2025-12-11T12:00:00Z","2026-01-10T12:00:00Z","2026-02-08T03:46:03Z","2026-03-10T03:14:38Z"],"w":720,"h":300}</desc>

 <metadata>
  <rdf:RDF xmlns:dc="http://purl.org/dc/elements/1.1/" xmlns:cc="http://creativecommons.org/ns#" xmlns:rdf="http://www.w3.org/1999/02/22-rdf-syntax-ns#">
   <cc:Work>
    <dc:type rdf:resource="http://purl.org/dc/dcmitype/StillImage"/>
    <dc:date>2026-03-10T19:25:55.672044</dc:date>
    <dc:format>image/svg+xml</dc:format>
    <dc:creator>
     <cc:Agent>
      <dc:title>Matplotlib v3.10.8, https://matplotlib.org/</dc:title>
     </cc:Agent>
    </dc:creator>
   </cc:Work>
  </rdf:RDF>
 </metadata>
 <defs>
  <style type="text/css">*{stroke-linejoin: round; stroke-linecap: butt}</style>
 </defs>
 <g id="figure_1">
  <g id="patch_1">
   <path d="M 0 120 
L 288 120 
L 288 0 
L 0 0 
L 0 120 
z
" style="fill: none; opacity: 0"/>
  </g>
  <g id="axes_1">
   <g id="patch_2">
    <path d="M 8.64 108 
L 279.36 108 
L 279.36 4.8 
L 8.64 4.8 
L 8.64 108 
z
" style="fill: none"/>
   </g>
   <g id="matplotlib.axis_1"/>
   <g id="matplotlib.axis_2"/>
   <g id="line2d_1">
    <path d="M 8.64 87.36 
L 279.36 87.36 
" clip-path="url(#p467f405043)" style="fill: none; stroke: #b2b2b2; stroke-opacity: 0.35; stroke-width: 0.5; stroke-linecap: square"/>
   </g>
   <g id="line2d_2">
    <path d="M 8.64 66.72 
L 279.36 66.72 
" clip-path="url(#p467f405043)" style="fill: none; stroke: #b2b2b2; stroke-opacity: 0.35; stroke-width: 0.5; stroke-linecap: square"/>
   </g>
   <g id="line2d_3">
    <path d="M 8.64 46.08 
L 279.36 46.08 
" clip-path="url(#p467f405043)" style="fill: none; stroke: #b2b2b2; stroke-opacity: 0.35; stroke-width: 0.5; stroke-linecap: square"/>
   </g>
   <g id="line2d_4">
    <path d="M 8.64 25.44 
L 279.36 25.44 
" clip-path="url(#p467f405043)" style="fill: none; stroke: #b2b2b2; stroke-opacity: 0.35; stroke-width: 0.5; stroke-linecap: square"/>
   </g>
   <g id="line2d_5">
    <path d="M 8.64 89.20728 
L 11.694318 89.22792 
L 14.748637 90.31152 
L 17.802955 90.10512 
L 20.857273 91.09584 
L 23.911592 91.61184 
L 26.96591 91.31256 
L 30.020228 92.87088 
L 33.074547 93.8616 
L 36.128865 92.02464 
L 39.183183 92.13816 
L 42.237502 92.07624 
L 45.29182 92.14848 
L 48.346138 92.64384 
L 51.400457 93.01536 
L 54.454775 93.69648 
L 57.509093 93.11856 
L 60.563412 92.44776 
L 63.61773 92.30328 
L 66.672048 92.87088 
L 69.726367 92.38584 
L 72.780685 92.47872 
L 75.835003 91.88016 
L 78.889322 90.42504 
L 81.94364 90.08448 
L 84.997958 89.92968 
L 88.052277 88.76352 
L 91.106595 87.94824 
L 94.160913 89.2692 
L 97.215232 88.72224 
L 100.26955 89.39304 
L 103.323868 89.40336 
L 106.378187 88.41264 
L 109.432505 88.4952 
L 112.486823 86.86464 
L 115.541142 86.42088 
L 118.59546 87.62832 
L 121.649778 86.93688 
L 124.704097 87.23616 
L 127.758415 88.63968 
L 130.812733 90.0432 
L 133.867051 92.12784 
L 136.92137 91.16808 
L 139.975688 91.46736 
L 143.030006 91.73568 
L 146.084325 91.78728 
L 149.138643 94.0164 
L 152.192961 92.5716 
L 155.24728 91.76664 
L 158.301598 92.33424 
L 161.355916 94.36728 
L 164.410235 94.46016 
L 167.464553 97.71096 
L 170.518871 98.48496 
L 173.57319 97.85544 
L 176.15172 99.10416 
L 178.578949 100.16712 
L 181.631712 102.23112 
L 184.67295 100.54896 
L 187.797087 100.70376 
L 190.8262 100.68312 
L 193.897946 100.95144 
L 196.945937 101.28168 
L 199.989261 101.71512 
L 203.04266 101.84928 
L 206.060249 101.034 
L 208.953402 100.54896 
L 212.203635 101.04432 
L 214.87429 100.81728 
L 218.307429 101.034 
L 221.358035 101.4984 
L 224.394501 101.33328 
L 227.430155 101.1372 
L 230.519364 101.06496 
L 233.582874 102.09696 
L 236.379166 102.05568 
L 239.680516 101.4984 
L 242.721225 100.60056 
L 245.769745 100.80696 
L 248.788076 101.45712 
L 251.911789 100.55928 
L 254.934574 101.10624 
L 257.995998 100.8792 
L 261.033206 100.74504 
L 264.0941 100.21872 
L 267.146969 100.53864 
L 270.177849 101.07528 
L 273.261827 101.38488 
L 276.325301 101.26104 
L 279.36 100.78632 
" clip-path="url(#p467f405043)" style="fill: none; stroke: #bebebe; stroke-width: 0.5; stroke-linecap: round"/>
   </g>
   <g id="line2d_6">
    <path d="M 8.64 70.2288 
L 11.694318 71.56008 
L 14.748637 73.79952 
L 17.802955 73.35576 
L 20.857273 74.0988 
L 23.911592 75.5952 
L 26.96591 75.5952 
L 30.020228 77.61792 
L 33.074547 77.63856 
L 36.128865 75.40944 
L 39.183183 75.40944 
L 42.237502 75.04824 
L 45.29182 74.98632 
L 48.346138 75.58488 
L 51.400457 75.87384 
L 54.454775 76.49304 
L 57.509093 76.15248 
L 60.563412 75.82224 
L 63.61773 75.84288 
L 66.672048 76.03896 
L 69.726367 75.51264 
L 72.780685 75.56424 
L 75.835003 75.05856 
L 78.889322 73.26288 
L 81.94364 73.20096 
L 84.997958 73.00488 
L 88.052277 71.68392 
L 91.106595 70.6932 
L 94.160913 72.62304 
L 97.215232 73.52088 
L 100.26955 73.83048 
L 103.323868 73.8408 
L 106.378187 73.29384 
L 109.432505 73.72728 
L 112.486823 70.32168 
L 115.541142 69.77472 
L 118.59546 70.34232 
L 121.649778 70.67256 
L 124.704097 70.51776 
L 127.758415 70.848 
L 130.812733 72.31344 
L 133.867051 76.01832 
L 136.92137 75.41976 
L 139.975688 75.83256 
L 143.030006 75.79128 
L 146.084325 75.82224 
L 149.138643 77.82432 
L 152.192961 76.14216 
L 155.24728 74.75928 
L 158.301598 74.96568 
L 161.355916 77.75208 
L 164.410235 79.48584 
L 167.464553 83.31456 
L 170.518871 85.90488 
L 173.57319 84.79032 
L 176.15172 85.84296 
L 178.578949 88.25784 
L 181.631712 91.41576 
L 184.67295 88.7532 
L 187.797087 88.65 
L 190.8262 88.55712 
L 193.897946 88.96992 
L 196.945937 89.7336 
L 199.989261 90.456 
L 203.04266 90.56952 
L 206.060249 89.15568 
L 208.953402 88.9596 
L 212.203635 90.6624 
L 214.87429 89.94 
L 218.307429 90.00192 
L 221.358035 90.3528 
L 224.394501 90.62112 
L 227.430155 90.5076 
L 230.519364 90.3528 
L 233.582874 92.004 
L 236.379166 92.13816 
L 239.680516 91.25064 
L 242.721225 89.166 
L 245.769745 89.56848 
L 248.788076 90.93072 
L 251.911789 89.41368 
L 254.934574 90.37344 
L 257.995998 89.79552 
L 261.033206 90.23928 
L 264.0941 88.0824 
L 267.146969 88.7532 
L 270.177849 90.16704 
L 273.261827 90.67272 
L 276.325301 90.18768 
L 279.36 89.2692 
" clip-path="url(#p467f405043)" style="fill: none; stroke: #4a8dff; stroke-width: 0.6"/>
   </g>
   <g id="line2d_7">
    <path d="M 8.64 81.38472 
L 11.694318 80.87904 
L 14.748637 83.13912 
L 17.802955 83.19072 
L 20.857273 85.296 
L 23.911592 87.17424 
L 26.96591 85.71912 
L 30.020228 87.53544 
L 33.074547 88.17528 
L 36.128865 85.41984 
L 39.183183 85.17216 
L 42.237502 84.9348 
L 45.29182 85.01736 
L 48.346138 86.14224 
L 51.400457 85.90488 
L 54.454775 86.328 
L 57.509093 86.24544 
L 60.563412 85.72944 
L 63.61773 85.7088 
L 66.672048 86.40024 
L 69.726367 85.09992 
L 72.780685 86.02872 
L 75.835003 84.78 
L 78.889322 83.53128 
L 81.94364 82.83984 
L 84.997958 82.03488 
L 88.052277 79.39296 
L 91.106595 79.66128 
L 94.160913 82.15872 
L 97.215232 82.43736 
L 100.26955 82.93272 
L 103.323868 83.00496 
L 106.378187 82.6128 
L 109.432505 82.28256 
L 112.486823 78.01008 
L 115.541142 76.19376 
L 118.59546 77.66952 
L 121.649778 77.74176 
L 124.704097 78.1752 
L 127.758415 79.5684 
L 130.812733 80.8068 
L 133.867051 85.20312 
L 136.92137 84.12984 
L 139.975688 84.03696 
L 143.030006 84.06792 
L 146.084325 84.3156 
L 149.138643 87.02976 
L 152.192961 85.21344 
L 155.24728 84.28464 
L 158.301598 84.32592 
L 161.355916 89.08344 
L 164.410235 89.5272 
L 167.464553 95.14128 
L 170.518871 96.98856 
L 173.57319 95.08968 
L 176.15172 97.71096 
L 178.578949 99.80592 
L 181.631712 101.79768 
L 184.67295 100.03296 
L 187.797087 100.518 
L 190.8262 99.98136 
L 193.897946 100.49736 
L 196.945937 100.78632 
L 199.989261 101.07528 
L 203.04266 101.26104 
L 206.060249 100.63152 
L 208.953402 100.38384 
L 212.203635 100.84824 
L 214.87429 100.65216 
L 218.307429 101.034 
L 221.358035 101.19912 
L 224.394501 101.10624 
L 227.430155 100.97208 
L 230.519364 100.91016 
L 233.582874 101.7564 
L 236.379166 101.84928 
L 239.680516 101.56032 
L 242.721225 100.85856 
L 245.769745 101.12688 
L 248.788076 101.4468 
L 251.911789 101.02368 
L 254.934574 101.30232 
L 257.995998 100.81728 
L 261.033206 100.79664 
L 264.0941 99.3312 
L 267.146969 99.92976 
L 270.177849 100.78632 
L 273.261827 101.17848 
L 276.325301 101.1372 
L 279.36 100.21872 
" clip-path="url(#p467f405043)" style="fill: none; stroke: #f5841e; stroke-width: 0.6"/>
   </g>
  </g>
 </g>
 <defs>
  <clipPath id="p467f405043">
   <rect x="8.64" y="4.8" width="270.72" height="103.2"/>
  </clipPath>
 </defs>
</svg>
