<?xml version="1.0" encoding="utf-8" standalone="no"?>
<!DOCTYPE svg PUBLIC "-//W3C//DTD SVG 1.1//EN"
  "http://www.w3.org/Graphics/SVG/1.1/DTD/svg11.dtd">
<svg xmlns:xlink="http://www.w3.org/1999/xlink" width="288pt" height="120pt" viewBox="0 0 288 120" xmlns="http://www.w3.org/2000/svg" version="1.1">
<desc id="nav-meta">{"window":"1m","count":4,"labels":["20.03","30.03","08.04","18.04"],"tick_utc":["2026-03-20T03:18:49Z","2026-03-30T03:51:16Z","2026-04-08T03:43:16Z","2026-04-18T03:39:51Z"],"w":720,"h":300}</desc>

 <metadata>
  <rdf:RDF xmlns:dc="http://purl.org/dc/elements/1.1/" xmlns:cc="http://creativecommons.org/ns#" xmlns:rdf="http://www.w3.org/1999/02/22-rdf-syntax-ns#">
   <cc:Work>
    <dc:type rdf:resource="http://purl.org/dc/dcmitype/StillImage"/>
    <dc:date>2026-04-18T03:39:54.307484</dc:date>
    <dc:format>image/svg+xml</dc:format>
    <dc:creator>
     <cc:Agent>
      <dc:title>Matplotlib v3.10.8, https://matplotlib.org/</dc:title>
     </cc:Agent>
    </dc:creator>
   </cc:Work>
  </rdf:RDF>
 </metadata>
 <defs>
  <style type="text/css">*{stroke-linejoin: round; stroke-linecap: butt}</style>
 </defs>
 <g id="figure_1">
  <g id="patch_1">
   <path d="M 0 120 
L 288 120 
L 288 0 
L 0 0 
L 0 120 
z
" style="fill: none; opacity: 0"/>
  </g>
  <g id="axes_1">
   <g id="patch_2">
    <path d="M 8.64 108 
L 279.36 108 
L 279.36 4.8 
L 8.64 4.8 
L 8.64 108 
z
" style="fill: none"/>
   </g>
   <g id="matplotlib.axis_1"/>
   <g id="matplotlib.axis_2"/>
   <g id="line2d_1">
    <path d="M 8.64 87.36 
L 279.36 87.36 
" clip-path="url(#p42f45ff493)" style="fill: none; stroke: #b2b2b2; stroke-opacity: 0.35; stroke-width: 0.5; stroke-linecap: square"/>
   </g>
   <g id="line2d_2">
    <path d="M 8.64 66.72 
L 279.36 66.72 
" clip-path="url(#p42f45ff493)" style="fill: none; stroke: #b2b2b2; stroke-opacity: 0.35; stroke-width: 0.5; stroke-linecap: square"/>
   </g>
   <g id="line2d_3">
    <path d="M 8.64 46.08 
L 279.36 46.08 
" clip-path="url(#p42f45ff493)" style="fill: none; stroke: #b2b2b2; stroke-opacity: 0.35; stroke-width: 0.5; stroke-linecap: square"/>
   </g>
   <g id="line2d_4">
    <path d="M 8.64 25.44 
L 279.36 25.44 
" clip-path="url(#p42f45ff493)" style="fill: none; stroke: #b2b2b2; stroke-opacity: 0.35; stroke-width: 0.5; stroke-linecap: square"/>
   </g>
   <g id="line2d_5">
    <path d="M 8.64 100.3632 
L 17.915829 100.19808 
L 27.385827 100.47672 
L 36.738222 100.79664 
L 45.982302 100.26 
L 56.007701 99.83688 
L 64.756747 100.13616 
L 74.098991 100.80696 
L 83.340263 101.38488 
L 92.797842 101.3436 
L 102.154989 101.292 
L 111.426606 101.28168 
L 120.837101 101.28168 
L 130.044679 101.8596 
L 139.385844 101.88024 
L 148.636403 101.72544 
L 158.107373 101.68416 
L 167.461928 101.47776 
L 176.731817 101.78736 
L 186.077409 101.09592 
L 195.375377 101.46744 
L 204.791703 101.3436 
L 213.979519 101.05464 
L 223.477379 101.3952 
L 232.855692 101.47776 
L 242.126769 100.86888 
L 251.450115 101.26104 
L 260.820977 100.99272 
L 270.132443 100.61088 
L 279.36 100.44576 
" clip-path="url(#p42f45ff493)" style="fill: none; stroke: #bebebe; stroke-width: 0.5; stroke-linecap: round"/>
   </g>
   <g id="line2d_6">
    <path d="M 8.64 87.74184 
L 17.915829 87.618 
L 27.385827 88.19592 
L 36.738222 89.08344 
L 45.982302 87.89664 
L 56.007701 87.3084 
L 64.756747 87.65928 
L 74.098991 88.96992 
L 83.340263 90.07416 
L 92.797842 89.76456 
L 102.154989 89.3724 
L 111.426606 89.00088 
L 120.837101 88.42296 
L 130.044679 88.81512 
L 139.385844 89.10408 
L 148.636403 89.14536 
L 158.107373 89.07312 
L 167.461928 87.9792 
L 176.731817 88.29912 
L 186.077409 86.38992 
L 195.375377 87.24648 
L 204.791703 87.1536 
L 213.979519 86.21448 
L 223.477379 86.66856 
L 232.855692 87.01944 
L 242.126769 84.44976 
L 251.450115 85.05864 
L 260.820977 84.58392 
L 270.132443 85.04832 
L 279.36 83.71704 
" clip-path="url(#p42f45ff493)" style="fill: none; stroke: #4a8dff; stroke-width: 0.6"/>
   </g>
   <g id="line2d_7">
    <path d="M 8.64 100.12584 
L 17.915829 100.03296 
L 27.385827 100.45608 
L 36.738222 100.83792 
L 45.982302 100.11552 
L 56.007701 99.87816 
L 64.756747 100.002 
L 74.098991 100.64184 
L 83.340263 101.41584 
L 92.797842 101.21976 
L 102.154989 101.14752 
L 111.426606 101.00304 
L 120.837101 100.86888 
L 130.044679 101.21976 
L 139.385844 101.28168 
L 148.636403 101.20944 
L 158.107373 101.14752 
L 167.461928 100.55928 
L 176.731817 100.65216 
L 186.077409 99.80592 
L 195.375377 99.96072 
L 204.791703 99.6408 
L 213.979519 99.1764 
L 223.477379 99.70272 
L 232.855692 99.94008 
L 242.126769 98.57784 
L 251.450115 98.65008 
L 260.820977 98.38176 
L 270.132443 98.48496 
L 279.36 96.70992 
" clip-path="url(#p42f45ff493)" style="fill: none; stroke: #f5841e; stroke-width: 0.6"/>
   </g>
  </g>
 </g>
 <defs>
  <clipPath id="p42f45ff493">
   <rect x="8.64" y="4.8" width="270.72" height="103.2"/>
  </clipPath>
 </defs>
</svg>
