<?xml version="1.0" encoding="utf-8" standalone="no"?>
<!DOCTYPE svg PUBLIC "-//W3C//DTD SVG 1.1//EN"
  "http://www.w3.org/Graphics/SVG/1.1/DTD/svg11.dtd">
<svg xmlns:xlink="http://www.w3.org/1999/xlink" width="288pt" height="120pt" viewBox="0 0 288 120" xmlns="http://www.w3.org/2000/svg" version="1.1">
<desc id="nav-meta">{"window":"3m","count":4,"labels":["24.11","24.12","22.01","21.02"],"tick_utc":["2025-11-24T12:00:00Z","2025-12-24T12:00:00Z","2026-01-22T12:00:00Z","2026-02-21T03:11:36Z"],"w":720,"h":300}</desc>

 <metadata>
  <rdf:RDF xmlns:dc="http://purl.org/dc/elements/1.1/" xmlns:cc="http://creativecommons.org/ns#" xmlns:rdf="http://www.w3.org/1999/02/22-rdf-syntax-ns#">
   <cc:Work>
    <dc:type rdf:resource="http://purl.org/dc/dcmitype/StillImage"/>
    <dc:date>2026-02-21T13:29:26.193258</dc:date>
    <dc:format>image/svg+xml</dc:format>
    <dc:creator>
     <cc:Agent>
      <dc:title>Matplotlib v3.10.8, https://matplotlib.org/</dc:title>
     </cc:Agent>
    </dc:creator>
   </cc:Work>
  </rdf:RDF>
 </metadata>
 <defs>
  <style type="text/css">*{stroke-linejoin: round; stroke-linecap: butt}</style>
 </defs>
 <g id="figure_1">
  <g id="patch_1">
   <path d="M 0 120 
L 288 120 
L 288 0 
L 0 0 
L 0 120 
z
" style="fill: none; opacity: 0"/>
  </g>
  <g id="axes_1">
   <g id="patch_2">
    <path d="M 8.64 108 
L 279.36 108 
L 279.36 4.8 
L 8.64 4.8 
L 8.64 108 
z
" style="fill: none"/>
   </g>
   <g id="matplotlib.axis_1"/>
   <g id="matplotlib.axis_2"/>
   <g id="line2d_1">
    <path d="M 8.64 87.36 
L 279.36 87.36 
" clip-path="url(#p9e422082d5)" style="fill: none; stroke: #b2b2b2; stroke-opacity: 0.35; stroke-width: 0.5; stroke-linecap: square"/>
   </g>
   <g id="line2d_2">
    <path d="M 8.64 66.72 
L 279.36 66.72 
" clip-path="url(#p9e422082d5)" style="fill: none; stroke: #b2b2b2; stroke-opacity: 0.35; stroke-width: 0.5; stroke-linecap: square"/>
   </g>
   <g id="line2d_3">
    <path d="M 8.64 46.08 
L 279.36 46.08 
" clip-path="url(#p9e422082d5)" style="fill: none; stroke: #b2b2b2; stroke-opacity: 0.35; stroke-width: 0.5; stroke-linecap: square"/>
   </g>
   <g id="line2d_4">
    <path d="M 8.64 25.44 
L 279.36 25.44 
" clip-path="url(#p9e422082d5)" style="fill: none; stroke: #b2b2b2; stroke-opacity: 0.35; stroke-width: 0.5; stroke-linecap: square"/>
   </g>
   <g id="line2d_5">
    <path d="M 8.64 90.75528 
L 11.694391 88.7016 
L 14.748782 88.52616 
L 17.803173 87.45288 
L 20.857564 88.0308 
L 23.911955 88.94928 
L 26.966346 89.3208 
L 30.020736 89.7336 
L 33.075127 91.86984 
L 36.129518 88.60872 
L 39.183909 86.87496 
L 42.2383 88.52616 
L 45.292691 90.11544 
L 48.347082 90.38376 
L 51.401473 90.53856 
L 54.455864 90.08448 
L 57.510255 88.79448 
L 60.564646 89.20728 
L 63.619037 89.22792 
L 66.673427 90.31152 
L 69.727818 90.10512 
L 72.782209 91.09584 
L 75.8366 91.61184 
L 78.890991 91.31256 
L 81.945382 92.87088 
L 84.999773 93.8616 
L 88.054164 92.02464 
L 91.108555 92.13816 
L 94.162946 92.07624 
L 97.217337 92.14848 
L 100.271728 92.64384 
L 103.326118 93.01536 
L 106.380509 93.69648 
L 109.4349 93.11856 
L 112.489291 92.44776 
L 115.543682 92.30328 
L 118.598073 92.87088 
L 121.652464 92.38584 
L 124.706855 92.47872 
L 127.761246 91.88016 
L 130.815637 90.42504 
L 133.870028 90.08448 
L 136.924419 89.92968 
L 139.97881 88.76352 
L 143.0332 87.94824 
L 146.087591 89.2692 
L 149.141982 88.72224 
L 152.196373 89.39304 
L 155.250764 89.40336 
L 158.305155 88.41264 
L 161.359546 88.4952 
L 164.413937 86.86464 
L 167.468328 86.42088 
L 170.522719 87.62832 
L 173.57711 86.93688 
L 176.631501 87.23616 
L 179.685891 88.63968 
L 182.740282 90.0432 
L 185.794673 92.12784 
L 188.849064 91.16808 
L 191.903455 91.46736 
L 194.957846 91.73568 
L 198.012237 91.78728 
L 201.066628 94.0164 
L 204.121019 92.5716 
L 207.17541 91.76664 
L 210.229801 92.33424 
L 213.284192 94.36728 
L 216.338582 94.46016 
L 219.392973 97.71096 
L 222.447364 98.48496 
L 225.501755 97.85544 
L 228.080347 99.10416 
L 230.507633 100.16712 
L 233.560469 102.23112 
L 236.601779 100.54896 
L 239.72599 100.70376 
L 242.755175 100.68312 
L 245.826995 100.95144 
L 248.875058 101.28168 
L 251.918454 101.71512 
L 254.971926 101.84928 
L 257.989586 101.034 
L 260.882809 100.54896 
L 264.133119 101.04432 
L 266.803837 100.81728 
L 270.237058 101.034 
L 273.287737 101.4984 
L 276.324275 101.33328 
L 279.36 101.1372 
" clip-path="url(#p9e422082d5)" style="fill: none; stroke: #bebebe; stroke-width: 0.5; stroke-linecap: round"/>
   </g>
   <g id="line2d_6">
    <path d="M 8.64 78.04104 
L 11.694391 75.76032 
L 14.748782 75.73968 
L 17.803173 74.65608 
L 20.857564 74.83152 
L 23.911955 74.57352 
L 26.966346 75.20304 
L 30.020736 75.17208 
L 33.075127 78.05136 
L 36.129518 75.1308 
L 39.183909 72.16896 
L 42.2383 73.08744 
L 45.292691 74.72832 
L 48.347082 74.48064 
L 51.401473 74.28456 
L 54.455864 73.21128 
L 57.510255 70.2804 
L 60.564646 70.2288 
L 63.619037 71.56008 
L 66.673427 73.79952 
L 69.727818 73.35576 
L 72.782209 74.0988 
L 75.8366 75.5952 
L 78.890991 75.5952 
L 81.945382 77.61792 
L 84.999773 77.63856 
L 88.054164 75.40944 
L 91.108555 75.40944 
L 94.162946 75.04824 
L 97.217337 74.98632 
L 100.271728 75.58488 
L 103.326118 75.87384 
L 106.380509 76.49304 
L 109.4349 76.15248 
L 112.489291 75.82224 
L 115.543682 75.84288 
L 118.598073 76.03896 
L 121.652464 75.51264 
L 124.706855 75.56424 
L 127.761246 75.05856 
L 130.815637 73.26288 
L 133.870028 73.20096 
L 136.924419 73.00488 
L 139.97881 71.68392 
L 143.0332 70.6932 
L 146.087591 72.62304 
L 149.141982 73.52088 
L 152.196373 73.83048 
L 155.250764 73.8408 
L 158.305155 73.29384 
L 161.359546 73.72728 
L 164.413937 70.32168 
L 167.468328 69.77472 
L 170.522719 70.34232 
L 173.57711 70.67256 
L 176.631501 70.51776 
L 179.685891 70.848 
L 182.740282 72.31344 
L 185.794673 76.01832 
L 188.849064 75.41976 
L 191.903455 75.83256 
L 194.957846 75.79128 
L 198.012237 75.82224 
L 201.066628 77.82432 
L 204.121019 76.14216 
L 207.17541 74.75928 
L 210.229801 74.96568 
L 213.284192 77.75208 
L 216.338582 79.48584 
L 219.392973 83.31456 
L 222.447364 85.90488 
L 225.501755 84.79032 
L 228.080347 85.84296 
L 230.507633 88.25784 
L 233.560469 91.41576 
L 236.601779 88.7532 
L 239.72599 88.65 
L 242.755175 88.55712 
L 245.826995 88.96992 
L 248.875058 89.7336 
L 251.918454 90.456 
L 254.971926 90.56952 
L 257.989586 89.15568 
L 260.882809 88.9596 
L 264.133119 90.6624 
L 266.803837 89.94 
L 270.237058 90.00192 
L 273.287737 90.3528 
L 276.324275 90.62112 
L 279.36 90.5076 
" clip-path="url(#p9e422082d5)" style="fill: none; stroke: #4a8dff; stroke-width: 0.6"/>
   </g>
   <g id="line2d_7">
    <path d="M 8.64 86.7924 
L 11.694391 85.296 
L 14.748782 86.24544 
L 17.803173 82.96368 
L 20.857564 82.13808 
L 23.911955 82.47864 
L 26.966346 82.58184 
L 30.020736 83.03592 
L 33.075127 87.3084 
L 36.129518 82.06584 
L 39.183909 79.71288 
L 42.2383 81.24024 
L 45.292691 84.17112 
L 48.347082 84.24336 
L 51.401473 83.29392 
L 54.455864 82.8192 
L 57.510255 80.64168 
L 60.564646 81.38472 
L 63.619037 80.87904 
L 66.673427 83.13912 
L 69.727818 83.19072 
L 72.782209 85.296 
L 75.8366 87.17424 
L 78.890991 85.71912 
L 81.945382 87.53544 
L 84.999773 88.17528 
L 88.054164 85.41984 
L 91.108555 85.17216 
L 94.162946 84.9348 
L 97.217337 85.01736 
L 100.271728 86.14224 
L 103.326118 85.90488 
L 106.380509 86.328 
L 109.4349 86.24544 
L 112.489291 85.72944 
L 115.543682 85.7088 
L 118.598073 86.40024 
L 121.652464 85.09992 
L 124.706855 86.02872 
L 127.761246 84.78 
L 130.815637 83.53128 
L 133.870028 82.83984 
L 136.924419 82.03488 
L 139.97881 79.39296 
L 143.0332 79.66128 
L 146.087591 82.15872 
L 149.141982 82.43736 
L 152.196373 82.93272 
L 155.250764 83.00496 
L 158.305155 82.6128 
L 161.359546 82.28256 
L 164.413937 78.01008 
L 167.468328 76.19376 
L 170.522719 77.66952 
L 173.57711 77.74176 
L 176.631501 78.1752 
L 179.685891 79.5684 
L 182.740282 80.8068 
L 185.794673 85.20312 
L 188.849064 84.12984 
L 191.903455 84.03696 
L 194.957846 84.06792 
L 198.012237 84.3156 
L 201.066628 87.02976 
L 204.121019 85.21344 
L 207.17541 84.28464 
L 210.229801 84.32592 
L 213.284192 89.08344 
L 216.338582 89.5272 
L 219.392973 95.14128 
L 222.447364 96.98856 
L 225.501755 95.08968 
L 228.080347 97.71096 
L 230.507633 99.80592 
L 233.560469 101.79768 
L 236.601779 100.03296 
L 239.72599 100.518 
L 242.755175 99.98136 
L 245.826995 100.49736 
L 248.875058 100.78632 
L 251.918454 101.07528 
L 254.971926 101.26104 
L 257.989586 100.63152 
L 260.882809 100.38384 
L 264.133119 100.84824 
L 266.803837 100.65216 
L 270.237058 101.034 
L 273.287737 101.19912 
L 276.324275 101.10624 
L 279.36 100.97208 
" clip-path="url(#p9e422082d5)" style="fill: none; stroke: #f5841e; stroke-width: 0.6"/>
   </g>
  </g>
 </g>
 <defs>
  <clipPath id="p9e422082d5">
   <rect x="8.64" y="4.8" width="270.72" height="103.2"/>
  </clipPath>
 </defs>
</svg>
