<?xml version="1.0" encoding="utf-8" standalone="no"?>
<!DOCTYPE svg PUBLIC "-//W3C//DTD SVG 1.1//EN"
  "http://www.w3.org/Graphics/SVG/1.1/DTD/svg11.dtd">
<svg xmlns:xlink="http://www.w3.org/1999/xlink" width="288pt" height="120pt" viewBox="0 0 288 120" xmlns="http://www.w3.org/2000/svg" version="1.1">
<desc id="nav-meta">{"window":"3m","count":4,"labels":["02.12","01.01","31.01","02.03"],"tick_utc":["2025-12-02T12:00:00Z","2026-01-01T12:00:00Z","2026-01-31T12:00:00Z","2026-03-02T03:18:56Z"],"w":720,"h":300}</desc>

 <metadata>
  <rdf:RDF xmlns:dc="http://purl.org/dc/elements/1.1/" xmlns:cc="http://creativecommons.org/ns#" xmlns:rdf="http://www.w3.org/1999/02/22-rdf-syntax-ns#">
   <cc:Work>
    <dc:type rdf:resource="http://purl.org/dc/dcmitype/StillImage"/>
    <dc:date>2026-03-02T07:36:42.676723</dc:date>
    <dc:format>image/svg+xml</dc:format>
    <dc:creator>
     <cc:Agent>
      <dc:title>Matplotlib v3.10.8, https://matplotlib.org/</dc:title>
     </cc:Agent>
    </dc:creator>
   </cc:Work>
  </rdf:RDF>
 </metadata>
 <defs>
  <style type="text/css">*{stroke-linejoin: round; stroke-linecap: butt}</style>
 </defs>
 <g id="figure_1">
  <g id="patch_1">
   <path d="M 0 120 
L 288 120 
L 288 0 
L 0 0 
L 0 120 
z
" style="fill: none; opacity: 0"/>
  </g>
  <g id="axes_1">
   <g id="patch_2">
    <path d="M 8.64 108 
L 279.36 108 
L 279.36 4.8 
L 8.64 4.8 
L 8.64 108 
z
" style="fill: none"/>
   </g>
   <g id="matplotlib.axis_1"/>
   <g id="matplotlib.axis_2"/>
   <g id="line2d_1">
    <path d="M 8.64 87.36 
L 279.36 87.36 
" clip-path="url(#pb1c6070fca)" style="fill: none; stroke: #b2b2b2; stroke-opacity: 0.35; stroke-width: 0.5; stroke-linecap: square"/>
   </g>
   <g id="line2d_2">
    <path d="M 8.64 66.72 
L 279.36 66.72 
" clip-path="url(#pb1c6070fca)" style="fill: none; stroke: #b2b2b2; stroke-opacity: 0.35; stroke-width: 0.5; stroke-linecap: square"/>
   </g>
   <g id="line2d_3">
    <path d="M 8.64 46.08 
L 279.36 46.08 
" clip-path="url(#pb1c6070fca)" style="fill: none; stroke: #b2b2b2; stroke-opacity: 0.35; stroke-width: 0.5; stroke-linecap: square"/>
   </g>
   <g id="line2d_4">
    <path d="M 8.64 25.44 
L 279.36 25.44 
" clip-path="url(#pb1c6070fca)" style="fill: none; stroke: #b2b2b2; stroke-opacity: 0.35; stroke-width: 0.5; stroke-linecap: square"/>
   </g>
   <g id="line2d_5">
    <path d="M 8.64 91.86984 
L 11.660143 88.60872 
L 14.680285 86.87496 
L 17.700428 88.52616 
L 20.720571 90.11544 
L 23.740714 90.38376 
L 26.760856 90.53856 
L 29.780999 90.08448 
L 32.801142 88.79448 
L 35.821284 89.20728 
L 38.841427 89.22792 
L 41.86157 90.31152 
L 44.881713 90.10512 
L 47.901855 91.09584 
L 50.921998 91.61184 
L 53.942141 91.31256 
L 56.962283 92.87088 
L 59.982426 93.8616 
L 63.002569 92.02464 
L 66.022712 92.13816 
L 69.042854 92.07624 
L 72.062997 92.14848 
L 75.08314 92.64384 
L 78.103282 93.01536 
L 81.123425 93.69648 
L 84.143568 93.11856 
L 87.163711 92.44776 
L 90.183853 92.30328 
L 93.203996 92.87088 
L 96.224139 92.38584 
L 99.244281 92.47872 
L 102.264424 91.88016 
L 105.284567 90.42504 
L 108.30471 90.08448 
L 111.324852 89.92968 
L 114.344995 88.76352 
L 117.365138 87.94824 
L 120.38528 89.2692 
L 123.405423 88.72224 
L 126.425566 89.39304 
L 129.445709 89.40336 
L 132.465851 88.41264 
L 135.485994 88.4952 
L 138.506137 86.86464 
L 141.526279 86.42088 
L 144.546422 87.62832 
L 147.566565 86.93688 
L 150.586708 87.23616 
L 153.60685 88.63968 
L 156.626993 90.0432 
L 159.647136 92.12784 
L 162.667278 91.16808 
L 165.687421 91.46736 
L 168.707564 91.73568 
L 171.727707 91.78728 
L 174.747849 94.0164 
L 177.767992 92.5716 
L 180.788135 91.76664 
L 183.808277 92.33424 
L 186.82842 94.36728 
L 189.848563 94.46016 
L 192.868706 97.71096 
L 195.888848 98.48496 
L 198.908991 97.85544 
L 201.45867 99.10416 
L 203.858739 100.16712 
L 206.877344 102.23112 
L 209.884553 100.54896 
L 212.973733 100.70376 
L 215.968952 100.68312 
L 219.006328 100.95144 
L 222.020214 101.28168 
L 225.029485 101.71512 
L 228.048719 101.84928 
L 231.032543 101.034 
L 233.893324 100.54896 
L 237.10719 101.04432 
L 239.747962 100.81728 
L 243.142686 101.034 
L 246.159159 101.4984 
L 249.161649 101.33328 
L 252.163335 101.1372 
L 255.217979 101.06496 
L 258.24721 102.09696 
L 261.012214 102.05568 
L 264.276624 101.4984 
L 267.283309 100.60056 
L 270.297719 100.80696 
L 273.282277 101.45712 
L 276.371037 100.55928 
L 279.36 101.10624 
" clip-path="url(#pb1c6070fca)" style="fill: none; stroke: #bebebe; stroke-width: 0.5; stroke-linecap: round"/>
   </g>
   <g id="line2d_6">
    <path d="M 8.64 78.05136 
L 11.660143 75.1308 
L 14.680285 72.16896 
L 17.700428 73.08744 
L 20.720571 74.72832 
L 23.740714 74.48064 
L 26.760856 74.28456 
L 29.780999 73.21128 
L 32.801142 70.2804 
L 35.821284 70.2288 
L 38.841427 71.56008 
L 41.86157 73.79952 
L 44.881713 73.35576 
L 47.901855 74.0988 
L 50.921998 75.5952 
L 53.942141 75.5952 
L 56.962283 77.61792 
L 59.982426 77.63856 
L 63.002569 75.40944 
L 66.022712 75.40944 
L 69.042854 75.04824 
L 72.062997 74.98632 
L 75.08314 75.58488 
L 78.103282 75.87384 
L 81.123425 76.49304 
L 84.143568 76.15248 
L 87.163711 75.82224 
L 90.183853 75.84288 
L 93.203996 76.03896 
L 96.224139 75.51264 
L 99.244281 75.56424 
L 102.264424 75.05856 
L 105.284567 73.26288 
L 108.30471 73.20096 
L 111.324852 73.00488 
L 114.344995 71.68392 
L 117.365138 70.6932 
L 120.38528 72.62304 
L 123.405423 73.52088 
L 126.425566 73.83048 
L 129.445709 73.8408 
L 132.465851 73.29384 
L 135.485994 73.72728 
L 138.506137 70.32168 
L 141.526279 69.77472 
L 144.546422 70.34232 
L 147.566565 70.67256 
L 150.586708 70.51776 
L 153.60685 70.848 
L 156.626993 72.31344 
L 159.647136 76.01832 
L 162.667278 75.41976 
L 165.687421 75.83256 
L 168.707564 75.79128 
L 171.727707 75.82224 
L 174.747849 77.82432 
L 177.767992 76.14216 
L 180.788135 74.75928 
L 183.808277 74.96568 
L 186.82842 77.75208 
L 189.848563 79.48584 
L 192.868706 83.31456 
L 195.888848 85.90488 
L 198.908991 84.79032 
L 201.45867 85.84296 
L 203.858739 88.25784 
L 206.877344 91.41576 
L 209.884553 88.7532 
L 212.973733 88.65 
L 215.968952 88.55712 
L 219.006328 88.96992 
L 222.020214 89.7336 
L 225.029485 90.456 
L 228.048719 90.56952 
L 231.032543 89.15568 
L 233.893324 88.9596 
L 237.10719 90.6624 
L 239.747962 89.94 
L 243.142686 90.00192 
L 246.159159 90.3528 
L 249.161649 90.62112 
L 252.163335 90.5076 
L 255.217979 90.3528 
L 258.24721 92.004 
L 261.012214 92.13816 
L 264.276624 91.25064 
L 267.283309 89.166 
L 270.297719 89.56848 
L 273.282277 90.93072 
L 276.371037 89.41368 
L 279.36 90.37344 
" clip-path="url(#pb1c6070fca)" style="fill: none; stroke: #4a8dff; stroke-width: 0.6"/>
   </g>
   <g id="line2d_7">
    <path d="M 8.64 87.3084 
L 11.660143 82.06584 
L 14.680285 79.71288 
L 17.700428 81.24024 
L 20.720571 84.17112 
L 23.740714 84.24336 
L 26.760856 83.29392 
L 29.780999 82.8192 
L 32.801142 80.64168 
L 35.821284 81.38472 
L 38.841427 80.87904 
L 41.86157 83.13912 
L 44.881713 83.19072 
L 47.901855 85.296 
L 50.921998 87.17424 
L 53.942141 85.71912 
L 56.962283 87.53544 
L 59.982426 88.17528 
L 63.002569 85.41984 
L 66.022712 85.17216 
L 69.042854 84.9348 
L 72.062997 85.01736 
L 75.08314 86.14224 
L 78.103282 85.90488 
L 81.123425 86.328 
L 84.143568 86.24544 
L 87.163711 85.72944 
L 90.183853 85.7088 
L 93.203996 86.40024 
L 96.224139 85.09992 
L 99.244281 86.02872 
L 102.264424 84.78 
L 105.284567 83.53128 
L 108.30471 82.83984 
L 111.324852 82.03488 
L 114.344995 79.39296 
L 117.365138 79.66128 
L 120.38528 82.15872 
L 123.405423 82.43736 
L 126.425566 82.93272 
L 129.445709 83.00496 
L 132.465851 82.6128 
L 135.485994 82.28256 
L 138.506137 78.01008 
L 141.526279 76.19376 
L 144.546422 77.66952 
L 147.566565 77.74176 
L 150.586708 78.1752 
L 153.60685 79.5684 
L 156.626993 80.8068 
L 159.647136 85.20312 
L 162.667278 84.12984 
L 165.687421 84.03696 
L 168.707564 84.06792 
L 171.727707 84.3156 
L 174.747849 87.02976 
L 177.767992 85.21344 
L 180.788135 84.28464 
L 183.808277 84.32592 
L 186.82842 89.08344 
L 189.848563 89.5272 
L 192.868706 95.14128 
L 195.888848 96.98856 
L 198.908991 95.08968 
L 201.45867 97.71096 
L 203.858739 99.80592 
L 206.877344 101.79768 
L 209.884553 100.03296 
L 212.973733 100.518 
L 215.968952 99.98136 
L 219.006328 100.49736 
L 222.020214 100.78632 
L 225.029485 101.07528 
L 228.048719 101.26104 
L 231.032543 100.63152 
L 233.893324 100.38384 
L 237.10719 100.84824 
L 239.747962 100.65216 
L 243.142686 101.034 
L 246.159159 101.19912 
L 249.161649 101.10624 
L 252.163335 100.97208 
L 255.217979 100.91016 
L 258.24721 101.7564 
L 261.012214 101.84928 
L 264.276624 101.56032 
L 267.283309 100.85856 
L 270.297719 101.12688 
L 273.282277 101.4468 
L 276.371037 101.02368 
L 279.36 101.30232 
" clip-path="url(#pb1c6070fca)" style="fill: none; stroke: #f5841e; stroke-width: 0.6"/>
   </g>
  </g>
 </g>
 <defs>
  <clipPath id="pb1c6070fca">
   <rect x="8.64" y="4.8" width="270.72" height="103.2"/>
  </clipPath>
 </defs>
</svg>
