<?xml version="1.0" encoding="utf-8" standalone="no"?>
<!DOCTYPE svg PUBLIC "-//W3C//DTD SVG 1.1//EN"
  "http://www.w3.org/Graphics/SVG/1.1/DTD/svg11.dtd">
<svg xmlns:xlink="http://www.w3.org/1999/xlink" width="288pt" height="120pt" viewBox="0 0 288 120" xmlns="http://www.w3.org/2000/svg" version="1.1">
<desc id="nav-meta">{"window":"1m","count":4,"labels":["25.01","04.02","13.02","23.02"],"tick_utc":["2026-01-25T12:00:00Z","2026-02-04T08:15:41Z","2026-02-13T03:33:47Z","2026-02-23T03:32:23Z"],"w":720,"h":300}</desc>

 <metadata>
  <rdf:RDF xmlns:dc="http://purl.org/dc/elements/1.1/" xmlns:cc="http://creativecommons.org/ns#" xmlns:rdf="http://www.w3.org/1999/02/22-rdf-syntax-ns#">
   <cc:Work>
    <dc:type rdf:resource="http://purl.org/dc/dcmitype/StillImage"/>
    <dc:date>2026-02-23T13:54:14.045115</dc:date>
    <dc:format>image/svg+xml</dc:format>
    <dc:creator>
     <cc:Agent>
      <dc:title>Matplotlib v3.10.8, https://matplotlib.org/</dc:title>
     </cc:Agent>
    </dc:creator>
   </cc:Work>
  </rdf:RDF>
 </metadata>
 <defs>
  <style type="text/css">*{stroke-linejoin: round; stroke-linecap: butt}</style>
 </defs>
 <g id="figure_1">
  <g id="patch_1">
   <path d="M 0 120 
L 288 120 
L 288 0 
L 0 0 
L 0 120 
z
" style="fill: none; opacity: 0"/>
  </g>
  <g id="axes_1">
   <g id="patch_2">
    <path d="M 8.64 108 
L 279.36 108 
L 279.36 4.8 
L 8.64 4.8 
L 8.64 108 
z
" style="fill: none"/>
   </g>
   <g id="matplotlib.axis_1"/>
   <g id="matplotlib.axis_2"/>
   <g id="line2d_1">
    <path d="M 8.64 87.36 
L 279.36 87.36 
" clip-path="url(#pef34f64055)" style="fill: none; stroke: #b2b2b2; stroke-opacity: 0.35; stroke-width: 0.5; stroke-linecap: square"/>
   </g>
   <g id="line2d_2">
    <path d="M 8.64 66.72 
L 279.36 66.72 
" clip-path="url(#pef34f64055)" style="fill: none; stroke: #b2b2b2; stroke-opacity: 0.35; stroke-width: 0.5; stroke-linecap: square"/>
   </g>
   <g id="line2d_3">
    <path d="M 8.64 46.08 
L 279.36 46.08 
" clip-path="url(#pef34f64055)" style="fill: none; stroke: #b2b2b2; stroke-opacity: 0.35; stroke-width: 0.5; stroke-linecap: square"/>
   </g>
   <g id="line2d_4">
    <path d="M 8.64 25.44 
L 279.36 25.44 
" clip-path="url(#pef34f64055)" style="fill: none; stroke: #b2b2b2; stroke-opacity: 0.35; stroke-width: 0.5; stroke-linecap: square"/>
   </g>
   <g id="line2d_5">
    <path d="M 8.64 91.78728 
L 18.090043 94.0164 
L 27.540086 92.5716 
L 36.990129 91.76664 
L 46.440172 92.33424 
L 55.890215 94.36728 
L 65.340259 94.46016 
L 74.790302 97.71096 
L 84.240345 98.48496 
L 93.690388 97.85544 
L 101.668346 99.10416 
L 109.178177 100.16712 
L 118.623408 102.23112 
L 128.032982 100.54896 
L 137.699042 100.70376 
L 147.0711 100.68312 
L 156.575065 100.95144 
L 166.00553 101.28168 
L 175.421557 101.71512 
L 184.868757 101.84928 
L 194.205159 101.034 
L 203.156559 100.54896 
L 213.212761 101.04432 
L 221.475752 100.81728 
L 232.097863 101.034 
L 241.536421 101.4984 
L 250.93123 101.33328 
L 260.323523 101.1372 
L 269.881519 101.06496 
L 279.36 102.09696 
" clip-path="url(#pef34f64055)" style="fill: none; stroke: #bebebe; stroke-width: 0.5; stroke-linecap: round"/>
   </g>
   <g id="line2d_6">
    <path d="M 8.64 75.82224 
L 18.090043 77.82432 
L 27.540086 76.14216 
L 36.990129 74.75928 
L 46.440172 74.96568 
L 55.890215 77.75208 
L 65.340259 79.48584 
L 74.790302 83.31456 
L 84.240345 85.90488 
L 93.690388 84.79032 
L 101.668346 85.84296 
L 109.178177 88.25784 
L 118.623408 91.41576 
L 128.032982 88.7532 
L 137.699042 88.65 
L 147.0711 88.55712 
L 156.575065 88.96992 
L 166.00553 89.7336 
L 175.421557 90.456 
L 184.868757 90.56952 
L 194.205159 89.15568 
L 203.156559 88.9596 
L 213.212761 90.6624 
L 221.475752 89.94 
L 232.097863 90.00192 
L 241.536421 90.3528 
L 250.93123 90.62112 
L 260.323523 90.5076 
L 269.881519 90.3528 
L 279.36 92.004 
" clip-path="url(#pef34f64055)" style="fill: none; stroke: #4a8dff; stroke-width: 0.6"/>
   </g>
   <g id="line2d_7">
    <path d="M 8.64 84.3156 
L 18.090043 87.02976 
L 27.540086 85.21344 
L 36.990129 84.28464 
L 46.440172 84.32592 
L 55.890215 89.08344 
L 65.340259 89.5272 
L 74.790302 95.14128 
L 84.240345 96.98856 
L 93.690388 95.08968 
L 101.668346 97.71096 
L 109.178177 99.80592 
L 118.623408 101.79768 
L 128.032982 100.03296 
L 137.699042 100.518 
L 147.0711 99.98136 
L 156.575065 100.49736 
L 166.00553 100.78632 
L 175.421557 101.07528 
L 184.868757 101.26104 
L 194.205159 100.63152 
L 203.156559 100.38384 
L 213.212761 100.84824 
L 221.475752 100.65216 
L 232.097863 101.034 
L 241.536421 101.19912 
L 250.93123 101.10624 
L 260.323523 100.97208 
L 269.881519 100.91016 
L 279.36 101.7564 
" clip-path="url(#pef34f64055)" style="fill: none; stroke: #f5841e; stroke-width: 0.6"/>
   </g>
  </g>
 </g>
 <defs>
  <clipPath id="pef34f64055">
   <rect x="8.64" y="4.8" width="270.72" height="103.2"/>
  </clipPath>
 </defs>
</svg>
