<?xml version="1.0" encoding="utf-8" standalone="no"?>
<!DOCTYPE svg PUBLIC "-//W3C//DTD SVG 1.1//EN"
  "http://www.w3.org/Graphics/SVG/1.1/DTD/svg11.dtd">
<svg xmlns:xlink="http://www.w3.org/1999/xlink" width="288pt" height="120pt" viewBox="0 0 288 120" xmlns="http://www.w3.org/2000/svg" version="1.1">
<desc id="nav-meta">{"window":"1m","count":4,"labels":["23.05","02.06","11.06","21.06"],"tick_utc":["2026-05-23T04:28:38Z","2026-06-02T05:15:35Z","2026-06-11T05:14:13Z","2026-06-21T05:29:24Z"],"w":720,"h":300}</desc>

 <metadata>
  <rdf:RDF xmlns:dc="http://purl.org/dc/elements/1.1/" xmlns:cc="http://creativecommons.org/ns#" xmlns:rdf="http://www.w3.org/1999/02/22-rdf-syntax-ns#">
   <cc:Work>
    <dc:type rdf:resource="http://purl.org/dc/dcmitype/StillImage"/>
    <dc:date>2026-06-21T20:16:03.076512</dc:date>
    <dc:format>image/svg+xml</dc:format>
    <dc:creator>
     <cc:Agent>
      <dc:title>Matplotlib v3.11.0, https://matplotlib.org/</dc:title>
     </cc:Agent>
    </dc:creator>
   </cc:Work>
  </rdf:RDF>
 </metadata>
 <defs>
  <style type="text/css">*{stroke-linejoin: round; stroke-linecap: butt}</style>
 </defs>
 <g id="figure_1">
  <g id="patch_1">
   <path d="M 0 120 
L 288 120 
L 288 0 
L 0 0 
L 0 120 
z
" style="fill: none; opacity: 0"/>
  </g>
  <g id="axes_1">
   <g id="patch_2">
    <path d="M 8.64 108 
L 279.36 108 
L 279.36 4.8 
L 8.64 4.8 
L 8.64 108 
z
" style="fill: none"/>
   </g>
   <g id="matplotlib.axis_1"/>
   <g id="matplotlib.axis_2"/>
   <g id="line2d_1">
    <path d="M 8.64 87.36 
L 279.36 87.36 
" clip-path="url(#pb9f7ac49ee)" style="fill: none; stroke: #b2b2b2; stroke-opacity: 0.35; stroke-width: 0.5; stroke-linecap: square"/>
   </g>
   <g id="line2d_2">
    <path d="M 8.64 66.72 
L 279.36 66.72 
" clip-path="url(#pb9f7ac49ee)" style="fill: none; stroke: #b2b2b2; stroke-opacity: 0.35; stroke-width: 0.5; stroke-linecap: square"/>
   </g>
   <g id="line2d_3">
    <path d="M 8.64 46.08 
L 279.36 46.08 
" clip-path="url(#pb9f7ac49ee)" style="fill: none; stroke: #b2b2b2; stroke-opacity: 0.35; stroke-width: 0.5; stroke-linecap: square"/>
   </g>
   <g id="line2d_4">
    <path d="M 8.64 25.44 
L 279.36 25.44 
" clip-path="url(#pb9f7ac49ee)" style="fill: none; stroke: #b2b2b2; stroke-opacity: 0.35; stroke-width: 0.5; stroke-linecap: square"/>
   </g>
   <g id="line2d_5">
    <path d="M 8.64 101.11656 
L 18.1092 100.91016 
L 27.553478 100.89984 
L 36.73386 101.1372 
L 46.151165 101.2404 
L 55.442996 101.6532 
L 64.771509 101.4984 
L 73.958688 101.48808 
L 83.470612 101.32296 
L 92.930102 101.51904 
L 102.160005 101.7048 
L 111.586481 102.54072 
L 120.876154 103.08768 
L 130.044236 103.36632 
L 139.222568 104.22288 
L 148.744526 103.85136 
L 158.107348 103.68624 
L 167.251047 103.43856 
L 176.669324 103.81008 
L 186.045631 103.72752 
L 195.403814 103.50048 
L 204.657236 103.5108 
L 214.046491 103.31472 
L 223.677956 102.95352 
L 233.052754 102.61296 
L 242.077451 102.6336 
L 251.354393 102.9948 
L 260.895556 103.28376 
L 269.844407 103.01544 
L 279.36 102.69552 
" clip-path="url(#pb9f7ac49ee)" style="fill: none; stroke: #bebebe; stroke-width: 0.5; stroke-linecap: round"/>
   </g>
   <g id="line2d_6">
    <path d="M 8.64 88.94928 
L 18.1092 88.14432 
L 27.553478 88.33008 
L 36.73386 88.52616 
L 46.151165 88.86672 
L 55.442996 90.22896 
L 64.771509 89.82648 
L 73.958688 89.87808 
L 83.470612 89.46528 
L 92.930102 90.0432 
L 102.160005 89.96064 
L 111.586481 91.99368 
L 120.876154 93.05664 
L 130.044236 93.74808 
L 139.222568 97.02984 
L 148.744526 95.93592 
L 158.107348 95.07936 
L 167.251047 94.46016 
L 176.669324 95.47152 
L 186.045631 95.11032 
L 195.403814 94.82136 
L 204.657236 94.8936 
L 214.046491 94.70784 
L 223.677956 94.04736 
L 233.052754 93.40752 
L 242.077451 92.9844 
L 251.354393 93.93384 
L 260.895556 94.4292 
L 269.844407 94.19184 
L 279.36 93.87192 
" clip-path="url(#pb9f7ac49ee)" style="fill: none; stroke: #4a8dff; stroke-width: 0.6"/>
   </g>
   <g id="line2d_7">
    <path d="M 8.64 98.08248 
L 18.1092 97.2672 
L 27.553478 96.61704 
L 36.73386 97.23624 
L 46.151165 98.08248 
L 55.442996 99.18672 
L 64.771509 99.03192 
L 73.958688 99.1248 
L 83.470612 98.74296 
L 92.930102 99.09384 
L 102.160005 100.0536 
L 111.586481 101.23008 
L 120.876154 101.99376 
L 130.044236 102.08664 
L 139.222568 102.8916 
L 148.744526 102.45816 
L 158.107348 102.28272 
L 167.251047 102.10728 
L 176.669324 102.582 
L 186.045631 102.29304 
L 195.403814 102.08664 
L 204.657236 102.066 
L 214.046491 101.86992 
L 223.677956 101.48808 
L 233.052754 101.40552 
L 242.077451 101.4984 
L 251.354393 101.97312 
L 260.895556 102.26208 
L 269.844407 102.066 
L 279.36 101.90088 
" clip-path="url(#pb9f7ac49ee)" style="fill: none; stroke: #f5841e; stroke-width: 0.6"/>
   </g>
  </g>
 </g>
 <defs>
  <clipPath id="pb9f7ac49ee">
   <rect x="8.64" y="4.8" width="270.72" height="103.2"/>
  </clipPath>
 </defs>
</svg>
