<?xml version="1.0" encoding="utf-8" standalone="no"?>
<!DOCTYPE svg PUBLIC "-//W3C//DTD SVG 1.1//EN"
  "http://www.w3.org/Graphics/SVG/1.1/DTD/svg11.dtd">
<svg xmlns:xlink="http://www.w3.org/1999/xlink" width="288pt" height="120pt" viewBox="0 0 288 120" xmlns="http://www.w3.org/2000/svg" version="1.1">
<desc id="nav-meta">{"window":"1m","count":4,"labels":["01.04","11.04","20.04","30.04"],"tick_utc":["2026-04-01T03:54:32Z","2026-04-11T03:29:29Z","2026-04-20T04:02:26Z","2026-04-30T04:23:32Z"],"w":720,"h":300}</desc>

 <metadata>
  <rdf:RDF xmlns:dc="http://purl.org/dc/elements/1.1/" xmlns:cc="http://creativecommons.org/ns#" xmlns:rdf="http://www.w3.org/1999/02/22-rdf-syntax-ns#">
   <cc:Work>
    <dc:type rdf:resource="http://purl.org/dc/dcmitype/StillImage"/>
    <dc:date>2026-04-30T09:01:18.974071</dc:date>
    <dc:format>image/svg+xml</dc:format>
    <dc:creator>
     <cc:Agent>
      <dc:title>Matplotlib v3.10.9, https://matplotlib.org/</dc:title>
     </cc:Agent>
    </dc:creator>
   </cc:Work>
  </rdf:RDF>
 </metadata>
 <defs>
  <style type="text/css">*{stroke-linejoin: round; stroke-linecap: butt}</style>
 </defs>
 <g id="figure_1">
  <g id="patch_1">
   <path d="M 0 120 
L 288 120 
L 288 0 
L 0 0 
L 0 120 
z
" style="fill: none; opacity: 0"/>
  </g>
  <g id="axes_1">
   <g id="patch_2">
    <path d="M 8.64 108 
L 279.36 108 
L 279.36 4.8 
L 8.64 4.8 
L 8.64 108 
z
" style="fill: none"/>
   </g>
   <g id="matplotlib.axis_1"/>
   <g id="matplotlib.axis_2"/>
   <g id="line2d_1">
    <path d="M 8.64 87.36 
L 279.36 87.36 
" clip-path="url(#paf8ee2abb8)" style="fill: none; stroke: #b2b2b2; stroke-opacity: 0.35; stroke-width: 0.5; stroke-linecap: square"/>
   </g>
   <g id="line2d_2">
    <path d="M 8.64 66.72 
L 279.36 66.72 
" clip-path="url(#paf8ee2abb8)" style="fill: none; stroke: #b2b2b2; stroke-opacity: 0.35; stroke-width: 0.5; stroke-linecap: square"/>
   </g>
   <g id="line2d_3">
    <path d="M 8.64 46.08 
L 279.36 46.08 
" clip-path="url(#paf8ee2abb8)" style="fill: none; stroke: #b2b2b2; stroke-opacity: 0.35; stroke-width: 0.5; stroke-linecap: square"/>
   </g>
   <g id="line2d_4">
    <path d="M 8.64 25.44 
L 279.36 25.44 
" clip-path="url(#paf8ee2abb8)" style="fill: none; stroke: #b2b2b2; stroke-opacity: 0.35; stroke-width: 0.5; stroke-linecap: square"/>
   </g>
   <g id="line2d_5">
    <path d="M 8.64 101.28168 
L 17.845823 101.8596 
L 27.185206 101.88024 
L 36.434002 101.72544 
L 45.903166 101.68416 
L 55.255938 101.47776 
L 64.524061 101.78736 
L 73.867871 101.09592 
L 83.164066 101.46744 
L 92.578597 101.3436 
L 101.764661 101.05464 
L 111.26071 101.3952 
L 120.637236 101.47776 
L 129.906546 100.86888 
L 139.228114 101.26104 
L 148.597189 100.99272 
L 157.90688 100.61088 
L 167.132678 100.44576 
L 176.584567 100.94112 
L 185.936367 101.09592 
L 195.22414 101.00304 
L 204.523898 100.69344 
L 213.890382 100.9308 
L 223.243802 100.92048 
L 232.461178 100.81728 
L 241.934985 100.8792 
L 251.3642 100.64184 
L 260.712437 101.1888 
L 270.01565 101.09592 
L 279.36 101.37456 
" clip-path="url(#paf8ee2abb8)" style="fill: none; stroke: #bebebe; stroke-width: 0.5; stroke-linecap: round"/>
   </g>
   <g id="line2d_6">
    <path d="M 8.64 88.42296 
L 17.845823 88.81512 
L 27.185206 89.10408 
L 36.434002 89.14536 
L 45.903166 89.07312 
L 55.255938 87.9792 
L 64.524061 88.29912 
L 73.867871 86.38992 
L 83.164066 87.24648 
L 92.578597 87.1536 
L 101.764661 86.21448 
L 111.26071 86.66856 
L 120.637236 87.01944 
L 129.906546 84.44976 
L 139.228114 85.05864 
L 148.597189 84.58392 
L 157.90688 85.04832 
L 167.132678 83.71704 
L 176.584567 84.86256 
L 185.936367 85.6572 
L 195.22414 85.27536 
L 204.523898 84.49104 
L 213.890382 84.86256 
L 223.243802 85.32696 
L 232.461178 85.17216 
L 241.934985 85.31664 
L 251.3642 84.11952 
L 260.712437 85.66752 
L 270.01565 85.26504 
L 279.36 86.26608 
" clip-path="url(#paf8ee2abb8)" style="fill: none; stroke: #4a8dff; stroke-width: 0.6"/>
   </g>
   <g id="line2d_7">
    <path d="M 8.64 100.86888 
L 17.845823 101.21976 
L 27.185206 101.28168 
L 36.434002 101.20944 
L 45.903166 101.14752 
L 55.255938 100.55928 
L 64.524061 100.65216 
L 73.867871 99.80592 
L 83.164066 99.96072 
L 92.578597 99.6408 
L 101.764661 99.1764 
L 111.26071 99.70272 
L 120.637236 99.94008 
L 129.906546 98.57784 
L 139.228114 98.65008 
L 148.597189 98.38176 
L 157.90688 98.48496 
L 167.132678 96.70992 
L 176.584567 98.05152 
L 185.936367 98.48496 
L 195.22414 97.96896 
L 204.523898 96.32808 
L 213.890382 96.20424 
L 223.243802 96.16296 
L 232.461178 96.1836 
L 241.934985 96.50352 
L 251.3642 94.76976 
L 260.712437 97.19496 
L 270.01565 96.9576 
L 279.36 97.9896 
" clip-path="url(#paf8ee2abb8)" style="fill: none; stroke: #f5841e; stroke-width: 0.6"/>
   </g>
  </g>
 </g>
 <defs>
  <clipPath id="paf8ee2abb8">
   <rect x="8.64" y="4.8" width="270.72" height="103.2"/>
  </clipPath>
 </defs>
</svg>
