<?xml version="1.0" encoding="utf-8" standalone="no"?>
<!DOCTYPE svg PUBLIC "-//W3C//DTD SVG 1.1//EN"
  "http://www.w3.org/Graphics/SVG/1.1/DTD/svg11.dtd">
<svg xmlns:xlink="http://www.w3.org/1999/xlink" width="288pt" height="120pt" viewBox="0 0 288 120" xmlns="http://www.w3.org/2000/svg" version="1.1">
<desc id="nav-meta">{"window":"1m","count":4,"labels":["03.05","13.05","22.05","01.06"],"tick_utc":["2026-05-03T04:31:45Z","2026-05-13T04:33:49Z","2026-05-22T04:48:25Z","2026-06-01T05:29:45Z"],"w":720,"h":300}</desc>

 <metadata>
  <rdf:RDF xmlns:dc="http://purl.org/dc/elements/1.1/" xmlns:cc="http://creativecommons.org/ns#" xmlns:rdf="http://www.w3.org/1999/02/22-rdf-syntax-ns#">
   <cc:Work>
    <dc:type rdf:resource="http://purl.org/dc/dcmitype/StillImage"/>
    <dc:date>2026-06-01T21:53:22.441595</dc:date>
    <dc:format>image/svg+xml</dc:format>
    <dc:creator>
     <cc:Agent>
      <dc:title>Matplotlib v3.10.9, https://matplotlib.org/</dc:title>
     </cc:Agent>
    </dc:creator>
   </cc:Work>
  </rdf:RDF>
 </metadata>
 <defs>
  <style type="text/css">*{stroke-linejoin: round; stroke-linecap: butt}</style>
 </defs>
 <g id="figure_1">
  <g id="patch_1">
   <path d="M 0 120 
L 288 120 
L 288 0 
L 0 0 
L 0 120 
z
" style="fill: none; opacity: 0"/>
  </g>
  <g id="axes_1">
   <g id="patch_2">
    <path d="M 8.64 108 
L 279.36 108 
L 279.36 4.8 
L 8.64 4.8 
L 8.64 108 
z
" style="fill: none"/>
   </g>
   <g id="matplotlib.axis_1"/>
   <g id="matplotlib.axis_2"/>
   <g id="line2d_1">
    <path d="M 8.64 87.36 
L 279.36 87.36 
" clip-path="url(#p4dcd85f9d2)" style="fill: none; stroke: #b2b2b2; stroke-opacity: 0.35; stroke-width: 0.5; stroke-linecap: square"/>
   </g>
   <g id="line2d_2">
    <path d="M 8.64 66.72 
L 279.36 66.72 
" clip-path="url(#p4dcd85f9d2)" style="fill: none; stroke: #b2b2b2; stroke-opacity: 0.35; stroke-width: 0.5; stroke-linecap: square"/>
   </g>
   <g id="line2d_3">
    <path d="M 8.64 46.08 
L 279.36 46.08 
" clip-path="url(#p4dcd85f9d2)" style="fill: none; stroke: #b2b2b2; stroke-opacity: 0.35; stroke-width: 0.5; stroke-linecap: square"/>
   </g>
   <g id="line2d_4">
    <path d="M 8.64 25.44 
L 279.36 25.44 
" clip-path="url(#p4dcd85f9d2)" style="fill: none; stroke: #b2b2b2; stroke-opacity: 0.35; stroke-width: 0.5; stroke-linecap: square"/>
   </g>
   <g id="line2d_5">
    <path d="M 8.64 101.23008 
L 17.958988 100.92048 
L 27.075887 101.06496 
L 36.562329 100.70376 
L 45.887036 100.55928 
L 55.054106 100.53864 
L 64.410426 99.60984 
L 73.920498 99.72336 
L 83.316308 99.44472 
L 92.509058 99.25896 
L 101.875628 99.32088 
L 111.187495 100.22904 
L 120.555683 100.01232 
L 129.758899 100.43544 
L 139.22031 100.75536 
L 148.633059 101.02368 
L 157.888497 101.02368 
L 167.244061 101.17848 
L 176.619371 100.7244 
L 185.870169 100.75536 
L 195.064321 101.11656 
L 204.534148 100.91016 
L 213.979051 100.89984 
L 223.160039 101.1372 
L 232.577968 101.2404 
L 241.870414 101.6532 
L 251.199544 101.4984 
L 260.38733 101.48808 
L 269.899884 101.32296 
L 279.36 101.51904 
" clip-path="url(#p4dcd85f9d2)" style="fill: none; stroke: #bebebe; stroke-width: 0.5; stroke-linecap: round"/>
   </g>
   <g id="line2d_6">
    <path d="M 8.64 85.3992 
L 17.958988 84.09888 
L 27.075887 84.22272 
L 36.562329 84.34656 
L 45.887036 85.06896 
L 55.054106 85.7604 
L 64.410426 85.0896 
L 73.920498 85.01736 
L 83.316308 84.9348 
L 92.509058 85.296 
L 101.875628 85.35792 
L 111.187495 86.1732 
L 120.555683 85.92552 
L 129.758899 86.55504 
L 139.22031 87.13296 
L 148.633059 88.10304 
L 157.888497 87.9276 
L 167.244061 88.26816 
L 176.619371 87.78312 
L 185.870169 87.95856 
L 195.064321 88.94928 
L 204.534148 88.14432 
L 213.979051 88.33008 
L 223.160039 88.52616 
L 232.577968 88.86672 
L 241.870414 90.22896 
L 251.199544 89.82648 
L 260.38733 89.87808 
L 269.899884 89.46528 
L 279.36 90.0432 
" clip-path="url(#p4dcd85f9d2)" style="fill: none; stroke: #4a8dff; stroke-width: 0.6"/>
   </g>
   <g id="line2d_7">
    <path d="M 8.64 95.67792 
L 17.958988 93.43848 
L 27.075887 92.90184 
L 36.562329 92.25168 
L 45.887036 92.87088 
L 55.054106 94.2744 
L 64.410426 93.1392 
L 73.920498 92.97408 
L 83.316308 92.9844 
L 92.509058 92.60256 
L 101.875628 92.53032 
L 111.187495 94.54272 
L 120.555683 92.85024 
L 129.758899 94.82136 
L 139.22031 95.75016 
L 148.633059 96.97824 
L 157.888497 97.08144 
L 167.244061 97.23624 
L 176.619371 95.94624 
L 185.870169 96.30744 
L 195.064321 98.08248 
L 204.534148 97.2672 
L 213.979051 96.61704 
L 223.160039 97.23624 
L 232.577968 98.08248 
L 241.870414 99.18672 
L 251.199544 99.03192 
L 260.38733 99.1248 
L 269.899884 98.74296 
L 279.36 99.09384 
" clip-path="url(#p4dcd85f9d2)" style="fill: none; stroke: #f5841e; stroke-width: 0.6"/>
   </g>
  </g>
 </g>
 <defs>
  <clipPath id="p4dcd85f9d2">
   <rect x="8.64" y="4.8" width="270.72" height="103.2"/>
  </clipPath>
 </defs>
</svg>
