<?xml version="1.0" encoding="utf-8" standalone="no"?>
<!DOCTYPE svg PUBLIC "-//W3C//DTD SVG 1.1//EN"
  "http://www.w3.org/Graphics/SVG/1.1/DTD/svg11.dtd">
<svg xmlns:xlink="http://www.w3.org/1999/xlink" width="288pt" height="120pt" viewBox="0 0 288 120" xmlns="http://www.w3.org/2000/svg" version="1.1">
<desc id="nav-meta">{"window":"3m","count":4,"labels":["26.11","26.12","25.01","24.02"],"tick_utc":["2025-11-26T12:00:00Z","2025-12-26T12:00:00Z","2026-01-25T12:00:00Z","2026-02-24T01:30:44Z"],"w":720,"h":300}</desc>

 <metadata>
  <rdf:RDF xmlns:dc="http://purl.org/dc/elements/1.1/" xmlns:cc="http://creativecommons.org/ns#" xmlns:rdf="http://www.w3.org/1999/02/22-rdf-syntax-ns#">
   <cc:Work>
    <dc:type rdf:resource="http://purl.org/dc/dcmitype/StillImage"/>
    <dc:date>2026-02-24T03:24:17.815836</dc:date>
    <dc:format>image/svg+xml</dc:format>
    <dc:creator>
     <cc:Agent>
      <dc:title>Matplotlib v3.10.8, https://matplotlib.org/</dc:title>
     </cc:Agent>
    </dc:creator>
   </cc:Work>
  </rdf:RDF>
 </metadata>
 <defs>
  <style type="text/css">*{stroke-linejoin: round; stroke-linecap: butt}</style>
 </defs>
 <g id="figure_1">
  <g id="patch_1">
   <path d="M 0 120 
L 288 120 
L 288 0 
L 0 0 
L 0 120 
z
" style="fill: none; opacity: 0"/>
  </g>
  <g id="axes_1">
   <g id="patch_2">
    <path d="M 8.64 108 
L 279.36 108 
L 279.36 4.8 
L 8.64 4.8 
L 8.64 108 
z
" style="fill: none"/>
   </g>
   <g id="matplotlib.axis_1"/>
   <g id="matplotlib.axis_2"/>
   <g id="line2d_1">
    <path d="M 8.64 87.36 
L 279.36 87.36 
" clip-path="url(#pc5ff56530e)" style="fill: none; stroke: #b2b2b2; stroke-opacity: 0.35; stroke-width: 0.5; stroke-linecap: square"/>
   </g>
   <g id="line2d_2">
    <path d="M 8.64 66.72 
L 279.36 66.72 
" clip-path="url(#pc5ff56530e)" style="fill: none; stroke: #b2b2b2; stroke-opacity: 0.35; stroke-width: 0.5; stroke-linecap: square"/>
   </g>
   <g id="line2d_3">
    <path d="M 8.64 46.08 
L 279.36 46.08 
" clip-path="url(#pc5ff56530e)" style="fill: none; stroke: #b2b2b2; stroke-opacity: 0.35; stroke-width: 0.5; stroke-linecap: square"/>
   </g>
   <g id="line2d_4">
    <path d="M 8.64 25.44 
L 279.36 25.44 
" clip-path="url(#pc5ff56530e)" style="fill: none; stroke: #b2b2b2; stroke-opacity: 0.35; stroke-width: 0.5; stroke-linecap: square"/>
   </g>
   <g id="line2d_5">
    <path d="M 8.64 88.52616 
L 11.662676 87.45288 
L 14.685353 88.0308 
L 17.708029 88.94928 
L 20.730706 89.3208 
L 23.753382 89.7336 
L 26.776059 91.86984 
L 29.798735 88.60872 
L 32.821412 86.87496 
L 35.844088 88.52616 
L 38.866765 90.11544 
L 41.889441 90.38376 
L 44.912118 90.53856 
L 47.934794 90.08448 
L 50.95747 88.79448 
L 53.980147 89.20728 
L 57.002823 89.22792 
L 60.0255 90.31152 
L 63.048176 90.10512 
L 66.070853 91.09584 
L 69.093529 91.61184 
L 72.116206 91.31256 
L 75.138882 92.87088 
L 78.161559 93.8616 
L 81.184235 92.02464 
L 84.206912 92.13816 
L 87.229588 92.07624 
L 90.252264 92.14848 
L 93.274941 92.64384 
L 96.297617 93.01536 
L 99.320294 93.69648 
L 102.34297 93.11856 
L 105.365647 92.44776 
L 108.388323 92.30328 
L 111.411 92.87088 
L 114.433676 92.38584 
L 117.456353 92.47872 
L 120.479029 91.88016 
L 123.501706 90.42504 
L 126.524382 90.08448 
L 129.547059 89.92968 
L 132.569735 88.76352 
L 135.592411 87.94824 
L 138.615088 89.2692 
L 141.637764 88.72224 
L 144.660441 89.39304 
L 147.683117 89.40336 
L 150.705794 88.41264 
L 153.72847 88.4952 
L 156.751147 86.86464 
L 159.773823 86.42088 
L 162.7965 87.62832 
L 165.819176 86.93688 
L 168.841853 87.23616 
L 171.864529 88.63968 
L 174.887205 90.0432 
L 177.909882 92.12784 
L 180.932558 91.16808 
L 183.955235 91.46736 
L 186.977911 91.73568 
L 190.000588 91.78728 
L 193.023264 94.0164 
L 196.045941 92.5716 
L 199.068617 91.76664 
L 202.091294 92.33424 
L 205.11397 94.36728 
L 208.136647 94.46016 
L 211.159323 97.71096 
L 214.181999 98.48496 
L 217.204676 97.85544 
L 219.756494 99.10416 
L 222.158577 100.16712 
L 225.179714 102.23112 
L 228.189446 100.54896 
L 231.281217 100.70376 
L 234.27895 100.68312 
L 237.318874 100.95144 
L 240.335288 101.28168 
L 243.347084 101.71512 
L 246.368851 101.84928 
L 249.355178 101.034 
L 252.218359 100.54896 
L 255.434921 101.04432 
L 258.077909 100.81728 
L 261.475481 101.034 
L 264.494484 101.4984 
L 267.499493 101.33328 
L 270.503698 101.1372 
L 273.560904 101.06496 
L 276.592677 102.09696 
L 279.36 102.05568 
" clip-path="url(#pc5ff56530e)" style="fill: none; stroke: #bebebe; stroke-width: 0.5; stroke-linecap: round"/>
   </g>
   <g id="line2d_6">
    <path d="M 8.64 75.73968 
L 11.662676 74.65608 
L 14.685353 74.83152 
L 17.708029 74.57352 
L 20.730706 75.20304 
L 23.753382 75.17208 
L 26.776059 78.05136 
L 29.798735 75.1308 
L 32.821412 72.16896 
L 35.844088 73.08744 
L 38.866765 74.72832 
L 41.889441 74.48064 
L 44.912118 74.28456 
L 47.934794 73.21128 
L 50.95747 70.2804 
L 53.980147 70.2288 
L 57.002823 71.56008 
L 60.0255 73.79952 
L 63.048176 73.35576 
L 66.070853 74.0988 
L 69.093529 75.5952 
L 72.116206 75.5952 
L 75.138882 77.61792 
L 78.161559 77.63856 
L 81.184235 75.40944 
L 84.206912 75.40944 
L 87.229588 75.04824 
L 90.252264 74.98632 
L 93.274941 75.58488 
L 96.297617 75.87384 
L 99.320294 76.49304 
L 102.34297 76.15248 
L 105.365647 75.82224 
L 108.388323 75.84288 
L 111.411 76.03896 
L 114.433676 75.51264 
L 117.456353 75.56424 
L 120.479029 75.05856 
L 123.501706 73.26288 
L 126.524382 73.20096 
L 129.547059 73.00488 
L 132.569735 71.68392 
L 135.592411 70.6932 
L 138.615088 72.62304 
L 141.637764 73.52088 
L 144.660441 73.83048 
L 147.683117 73.8408 
L 150.705794 73.29384 
L 153.72847 73.72728 
L 156.751147 70.32168 
L 159.773823 69.77472 
L 162.7965 70.34232 
L 165.819176 70.67256 
L 168.841853 70.51776 
L 171.864529 70.848 
L 174.887205 72.31344 
L 177.909882 76.01832 
L 180.932558 75.41976 
L 183.955235 75.83256 
L 186.977911 75.79128 
L 190.000588 75.82224 
L 193.023264 77.82432 
L 196.045941 76.14216 
L 199.068617 74.75928 
L 202.091294 74.96568 
L 205.11397 77.75208 
L 208.136647 79.48584 
L 211.159323 83.31456 
L 214.181999 85.90488 
L 217.204676 84.79032 
L 219.756494 85.84296 
L 222.158577 88.25784 
L 225.179714 91.41576 
L 228.189446 88.7532 
L 231.281217 88.65 
L 234.27895 88.55712 
L 237.318874 88.96992 
L 240.335288 89.7336 
L 243.347084 90.456 
L 246.368851 90.56952 
L 249.355178 89.15568 
L 252.218359 88.9596 
L 255.434921 90.6624 
L 258.077909 89.94 
L 261.475481 90.00192 
L 264.494484 90.3528 
L 267.499493 90.62112 
L 270.503698 90.5076 
L 273.560904 90.3528 
L 276.592677 92.004 
L 279.36 92.13816 
" clip-path="url(#pc5ff56530e)" style="fill: none; stroke: #4a8dff; stroke-width: 0.6"/>
   </g>
   <g id="line2d_7">
    <path d="M 8.64 86.24544 
L 11.662676 82.96368 
L 14.685353 82.13808 
L 17.708029 82.47864 
L 20.730706 82.58184 
L 23.753382 83.03592 
L 26.776059 87.3084 
L 29.798735 82.06584 
L 32.821412 79.71288 
L 35.844088 81.24024 
L 38.866765 84.17112 
L 41.889441 84.24336 
L 44.912118 83.29392 
L 47.934794 82.8192 
L 50.95747 80.64168 
L 53.980147 81.38472 
L 57.002823 80.87904 
L 60.0255 83.13912 
L 63.048176 83.19072 
L 66.070853 85.296 
L 69.093529 87.17424 
L 72.116206 85.71912 
L 75.138882 87.53544 
L 78.161559 88.17528 
L 81.184235 85.41984 
L 84.206912 85.17216 
L 87.229588 84.9348 
L 90.252264 85.01736 
L 93.274941 86.14224 
L 96.297617 85.90488 
L 99.320294 86.328 
L 102.34297 86.24544 
L 105.365647 85.72944 
L 108.388323 85.7088 
L 111.411 86.40024 
L 114.433676 85.09992 
L 117.456353 86.02872 
L 120.479029 84.78 
L 123.501706 83.53128 
L 126.524382 82.83984 
L 129.547059 82.03488 
L 132.569735 79.39296 
L 135.592411 79.66128 
L 138.615088 82.15872 
L 141.637764 82.43736 
L 144.660441 82.93272 
L 147.683117 83.00496 
L 150.705794 82.6128 
L 153.72847 82.28256 
L 156.751147 78.01008 
L 159.773823 76.19376 
L 162.7965 77.66952 
L 165.819176 77.74176 
L 168.841853 78.1752 
L 171.864529 79.5684 
L 174.887205 80.8068 
L 177.909882 85.20312 
L 180.932558 84.12984 
L 183.955235 84.03696 
L 186.977911 84.06792 
L 190.000588 84.3156 
L 193.023264 87.02976 
L 196.045941 85.21344 
L 199.068617 84.28464 
L 202.091294 84.32592 
L 205.11397 89.08344 
L 208.136647 89.5272 
L 211.159323 95.14128 
L 214.181999 96.98856 
L 217.204676 95.08968 
L 219.756494 97.71096 
L 222.158577 99.80592 
L 225.179714 101.79768 
L 228.189446 100.03296 
L 231.281217 100.518 
L 234.27895 99.98136 
L 237.318874 100.49736 
L 240.335288 100.78632 
L 243.347084 101.07528 
L 246.368851 101.26104 
L 249.355178 100.63152 
L 252.218359 100.38384 
L 255.434921 100.84824 
L 258.077909 100.65216 
L 261.475481 101.034 
L 264.494484 101.19912 
L 267.499493 101.10624 
L 270.503698 100.97208 
L 273.560904 100.91016 
L 276.592677 101.7564 
L 279.36 101.84928 
" clip-path="url(#pc5ff56530e)" style="fill: none; stroke: #f5841e; stroke-width: 0.6"/>
   </g>
  </g>
 </g>
 <defs>
  <clipPath id="pc5ff56530e">
   <rect x="8.64" y="4.8" width="270.72" height="103.2"/>
  </clipPath>
 </defs>
</svg>
