<?xml version="1.0" encoding="utf-8" standalone="no"?>
<!DOCTYPE svg PUBLIC "-//W3C//DTD SVG 1.1//EN"
  "http://www.w3.org/Graphics/SVG/1.1/DTD/svg11.dtd">
<svg xmlns:xlink="http://www.w3.org/1999/xlink" width="288pt" height="120pt" viewBox="0 0 288 120" xmlns="http://www.w3.org/2000/svg" version="1.1">
<desc id="nav-meta">{"window":"1m","count":4,"labels":["22.06","02.07","11.07","21.07"],"tick_utc":["2026-06-22T06:11:33Z","2026-07-02T04:45:46Z","2026-07-11T03:56:05Z","2026-07-21T03:59:29Z"],"w":720,"h":300}</desc>

 <metadata>
  <rdf:RDF xmlns:dc="http://purl.org/dc/elements/1.1/" xmlns:cc="http://creativecommons.org/ns#" xmlns:rdf="http://www.w3.org/1999/02/22-rdf-syntax-ns#">
   <cc:Work>
    <dc:type rdf:resource="http://purl.org/dc/dcmitype/StillImage"/>
    <dc:date>2026-07-21T14:47:16.587544</dc:date>
    <dc:format>image/svg+xml</dc:format>
    <dc:creator>
     <cc:Agent>
      <dc:title>Matplotlib v3.11.1, https://matplotlib.org/</dc:title>
     </cc:Agent>
    </dc:creator>
   </cc:Work>
  </rdf:RDF>
 </metadata>
 <defs>
  <style type="text/css">*{stroke-linejoin: round; stroke-linecap: butt}</style>
 </defs>
 <g id="figure_1">
  <g id="patch_1">
   <path d="M 0 120 
L 288 120 
L 288 0 
L 0 0 
L 0 120 
z
" style="fill: none; opacity: 0"/>
  </g>
  <g id="axes_1">
   <g id="patch_2">
    <path d="M 8.64 108 
L 279.36 108 
L 279.36 4.8 
L 8.64 4.8 
L 8.64 108 
z
" style="fill: none"/>
   </g>
   <g id="matplotlib.axis_1"/>
   <g id="matplotlib.axis_2"/>
   <g id="line2d_1">
    <path d="M 8.64 87.36 
L 279.36 87.36 
" clip-path="url(#pa4984c5497)" style="fill: none; stroke: #b2b2b2; stroke-opacity: 0.35; stroke-width: 0.5; stroke-linecap: square"/>
   </g>
   <g id="line2d_2">
    <path d="M 8.64 66.72 
L 279.36 66.72 
" clip-path="url(#pa4984c5497)" style="fill: none; stroke: #b2b2b2; stroke-opacity: 0.35; stroke-width: 0.5; stroke-linecap: square"/>
   </g>
   <g id="line2d_3">
    <path d="M 8.64 46.08 
L 279.36 46.08 
" clip-path="url(#pa4984c5497)" style="fill: none; stroke: #b2b2b2; stroke-opacity: 0.35; stroke-width: 0.5; stroke-linecap: square"/>
   </g>
   <g id="line2d_4">
    <path d="M 8.64 25.44 
L 279.36 25.44 
" clip-path="url(#pa4984c5497)" style="fill: none; stroke: #b2b2b2; stroke-opacity: 0.35; stroke-width: 0.5; stroke-linecap: square"/>
   </g>
   <g id="line2d_5">
    <path d="M 8.64 102.582 
L 17.444961 102.88128 
L 26.843242 103.15992 
L 36.205537 103.36632 
L 45.618342 103.36632 
L 54.868347 102.81936 
L 64.411652 103.0464 
L 73.844184 102.9432 
L 83.027422 102.59232 
L 92.529214 102.40656 
L 101.73001 102.02472 
L 110.992913 101.68416 
L 120.317382 101.3436 
L 129.819282 101.6532 
L 139.274792 101.6532 
L 148.499109 101.63256 
L 157.609401 101.95248 
L 167.25806 102.08664 
L 176.601713 101.9112 
L 185.690002 102.066 
L 195.194829 102.18984 
L 204.580103 102.31368 
L 213.728331 102.45816 
L 223.095504 102.08664 
L 232.483705 102.21048 
L 241.850011 102.4272 
L 251.168518 102.4272 
L 260.674103 102.34464 
L 270.165924 102.25176 
L 279.36 102.02472 
" clip-path="url(#pa4984c5497)" style="fill: none; stroke: #bebebe; stroke-width: 0.5; stroke-linecap: round"/>
   </g>
   <g id="line2d_6">
    <path d="M 8.64 93.81 
L 17.444961 94.03704 
L 26.843242 94.83168 
L 36.205537 95.48184 
L 45.618342 96.63768 
L 54.868347 96.14232 
L 64.411652 96.30744 
L 73.844184 96.29712 
L 83.027422 96.04944 
L 92.529214 95.9256 
L 101.73001 95.39928 
L 110.992913 94.31568 
L 120.317382 93.57264 
L 129.819282 93.32496 
L 139.274792 93.22176 
L 148.499109 93.35592 
L 157.609401 93.61392 
L 167.25806 93.77904 
L 176.601713 93.26304 
L 185.690002 92.92248 
L 195.194829 92.71608 
L 204.580103 93.15984 
L 213.728331 93.17016 
L 223.095504 91.80792 
L 232.483705 91.14744 
L 241.850011 92.13816 
L 251.168518 92.25168 
L 260.674103 91.9008 
L 270.165924 91.81824 
L 279.36 91.00296 
" clip-path="url(#pa4984c5497)" style="fill: none; stroke: #4a8dff; stroke-width: 0.6"/>
   </g>
   <g id="line2d_7">
    <path d="M 8.64 101.90088 
L 17.444961 102.0144 
L 26.843242 102.25176 
L 36.205537 102.6336 
L 45.618342 102.88128 
L 54.868347 102.77808 
L 64.411652 102.85032 
L 73.844184 102.93288 
L 83.027422 102.95352 
L 92.529214 103.00512 
L 101.73001 102.69552 
L 110.992913 102.55104 
L 120.317382 102.2724 
L 129.819282 102.21048 
L 139.274792 102.12792 
L 148.499109 102.13824 
L 157.609401 102.25176 
L 167.25806 102.36528 
L 176.601713 101.94216 
L 185.690002 101.92152 
L 195.194829 101.9112 
L 204.580103 102.2208 
L 213.728331 102.31368 
L 223.095504 101.79768 
L 232.483705 101.81832 
L 241.850011 102.07632 
L 251.168518 101.97312 
L 260.674103 101.79768 
L 270.165924 101.78736 
L 279.36 101.57064 
" clip-path="url(#pa4984c5497)" style="fill: none; stroke: #f5841e; stroke-width: 0.6"/>
   </g>
  </g>
 </g>
 <defs>
  <clipPath id="pa4984c5497">
   <rect x="8.64" y="4.8" width="270.72" height="103.2"/>
  </clipPath>
 </defs>
</svg>
