<?xml version="1.0" encoding="utf-8" standalone="no"?>
<!DOCTYPE svg PUBLIC "-//W3C//DTD SVG 1.1//EN"
  "http://www.w3.org/Graphics/SVG/1.1/DTD/svg11.dtd">
<svg xmlns:xlink="http://www.w3.org/1999/xlink" width="288pt" height="120pt" viewBox="0 0 288 120" xmlns="http://www.w3.org/2000/svg" version="1.1">
<desc id="nav-meta">{"window":"1m","count":4,"labels":["12.03","22.03","31.03","10.04"],"tick_utc":["2026-03-12T03:19:44Z","2026-03-22T03:31:55Z","2026-03-31T03:42:11Z","2026-04-10T03:51:30Z"],"w":720,"h":300}</desc>

 <metadata>
  <rdf:RDF xmlns:dc="http://purl.org/dc/elements/1.1/" xmlns:cc="http://creativecommons.org/ns#" xmlns:rdf="http://www.w3.org/1999/02/22-rdf-syntax-ns#">
   <cc:Work>
    <dc:type rdf:resource="http://purl.org/dc/dcmitype/StillImage"/>
    <dc:date>2026-04-10T19:31:28.832965</dc:date>
    <dc:format>image/svg+xml</dc:format>
    <dc:creator>
     <cc:Agent>
      <dc:title>Matplotlib v3.10.8, https://matplotlib.org/</dc:title>
     </cc:Agent>
    </dc:creator>
   </cc:Work>
  </rdf:RDF>
 </metadata>
 <defs>
  <style type="text/css">*{stroke-linejoin: round; stroke-linecap: butt}</style>
 </defs>
 <g id="figure_1">
  <g id="patch_1">
   <path d="M 0 120 
L 288 120 
L 288 0 
L 0 0 
L 0 120 
z
" style="fill: none; opacity: 0"/>
  </g>
  <g id="axes_1">
   <g id="patch_2">
    <path d="M 8.64 108 
L 279.36 108 
L 279.36 4.8 
L 8.64 4.8 
L 8.64 108 
z
" style="fill: none"/>
   </g>
   <g id="matplotlib.axis_1"/>
   <g id="matplotlib.axis_2"/>
   <g id="line2d_1">
    <path d="M 8.64 87.36 
L 279.36 87.36 
" clip-path="url(#pa26b224dc5)" style="fill: none; stroke: #b2b2b2; stroke-opacity: 0.35; stroke-width: 0.5; stroke-linecap: square"/>
   </g>
   <g id="line2d_2">
    <path d="M 8.64 66.72 
L 279.36 66.72 
" clip-path="url(#pa26b224dc5)" style="fill: none; stroke: #b2b2b2; stroke-opacity: 0.35; stroke-width: 0.5; stroke-linecap: square"/>
   </g>
   <g id="line2d_3">
    <path d="M 8.64 46.08 
L 279.36 46.08 
" clip-path="url(#pa26b224dc5)" style="fill: none; stroke: #b2b2b2; stroke-opacity: 0.35; stroke-width: 0.5; stroke-linecap: square"/>
   </g>
   <g id="line2d_4">
    <path d="M 8.64 25.44 
L 279.36 25.44 
" clip-path="url(#pa26b224dc5)" style="fill: none; stroke: #b2b2b2; stroke-opacity: 0.35; stroke-width: 0.5; stroke-linecap: square"/>
   </g>
   <g id="line2d_5">
    <path d="M 8.64 100.99272 
L 17.950047 100.38384 
L 27.265707 100.50768 
L 36.772248 100.60056 
L 46.126668 99.76464 
L 55.291503 99.49632 
L 64.690728 99.40344 
L 74.021396 100.09488 
L 83.258675 100.3632 
L 92.532122 100.19808 
L 101.999687 100.47672 
L 111.349681 100.79664 
L 120.591386 100.26 
L 130.61421 99.83688 
L 139.361009 100.13616 
L 148.700854 100.80696 
L 157.939752 101.38488 
L 167.394902 101.3436 
L 176.749646 101.292 
L 186.018882 101.28168 
L 195.42696 101.28168 
L 204.632174 101.8596 
L 213.970939 101.88024 
L 223.219122 101.72544 
L 232.68766 101.68416 
L 242.039812 101.47776 
L 251.307321 101.78736 
L 260.650513 101.09592 
L 269.946092 101.46744 
L 279.36 101.3436 
" clip-path="url(#pa26b224dc5)" style="fill: none; stroke: #bebebe; stroke-width: 0.5; stroke-linecap: round"/>
   </g>
   <g id="line2d_6">
    <path d="M 8.64 89.49624 
L 17.950047 88.31976 
L 27.265707 88.45392 
L 36.772248 88.46424 
L 46.126668 86.38992 
L 55.291503 84.80064 
L 64.690728 84.8316 
L 74.021396 86.586 
L 83.258675 87.74184 
L 92.532122 87.618 
L 101.999687 88.19592 
L 111.349681 89.08344 
L 120.591386 87.89664 
L 130.61421 87.3084 
L 139.361009 87.65928 
L 148.700854 88.96992 
L 157.939752 90.07416 
L 167.394902 89.76456 
L 176.749646 89.3724 
L 186.018882 89.00088 
L 195.42696 88.42296 
L 204.632174 88.81512 
L 213.970939 89.10408 
L 223.219122 89.14536 
L 232.68766 89.07312 
L 242.039812 87.9792 
L 251.307321 88.29912 
L 260.650513 86.38992 
L 269.946092 87.24648 
L 279.36 87.1536 
" clip-path="url(#pa26b224dc5)" style="fill: none; stroke: #4a8dff; stroke-width: 0.6"/>
   </g>
   <g id="line2d_7">
    <path d="M 8.64 100.4664 
L 17.950047 99.88848 
L 27.265707 99.94008 
L 36.772248 99.81624 
L 46.126668 98.93904 
L 55.291503 98.3508 
L 64.690728 98.52624 
L 74.021396 99.78528 
L 83.258675 100.12584 
L 92.532122 100.03296 
L 101.999687 100.45608 
L 111.349681 100.83792 
L 120.591386 100.11552 
L 130.61421 99.87816 
L 139.361009 100.002 
L 148.700854 100.64184 
L 157.939752 101.41584 
L 167.394902 101.21976 
L 176.749646 101.14752 
L 186.018882 101.00304 
L 195.42696 100.86888 
L 204.632174 101.21976 
L 213.970939 101.28168 
L 223.219122 101.20944 
L 232.68766 101.14752 
L 242.039812 100.55928 
L 251.307321 100.65216 
L 260.650513 99.80592 
L 269.946092 99.96072 
L 279.36 99.6408 
" clip-path="url(#pa26b224dc5)" style="fill: none; stroke: #f5841e; stroke-width: 0.6"/>
   </g>
  </g>
 </g>
 <defs>
  <clipPath id="pa26b224dc5">
   <rect x="8.64" y="4.8" width="270.72" height="103.2"/>
  </clipPath>
 </defs>
</svg>
