<?xml version="1.0" encoding="utf-8" standalone="no"?>
<!DOCTYPE svg PUBLIC "-//W3C//DTD SVG 1.1//EN"
  "http://www.w3.org/Graphics/SVG/1.1/DTD/svg11.dtd">
<svg xmlns:xlink="http://www.w3.org/1999/xlink" width="288pt" height="120pt" viewBox="0 0 288 120" xmlns="http://www.w3.org/2000/svg" version="1.1">
<desc id="nav-meta">{"window":"1y","count":4,"labels":["07.02","08.06","07.10","06.02"],"tick_utc":["2025-02-07T12:00:00Z","2025-06-08T12:00:00Z","2025-10-07T12:00:00Z","2026-02-06T03:19:18Z"],"w":720,"h":300}</desc>

 <metadata>
  <rdf:RDF xmlns:dc="http://purl.org/dc/elements/1.1/" xmlns:cc="http://creativecommons.org/ns#" xmlns:rdf="http://www.w3.org/1999/02/22-rdf-syntax-ns#">
   <cc:Work>
    <dc:type rdf:resource="http://purl.org/dc/dcmitype/StillImage"/>
    <dc:date>2026-02-06T19:26:26.433130</dc:date>
    <dc:format>image/svg+xml</dc:format>
    <dc:creator>
     <cc:Agent>
      <dc:title>Matplotlib v3.10.8, https://matplotlib.org/</dc:title>
     </cc:Agent>
    </dc:creator>
   </cc:Work>
  </rdf:RDF>
 </metadata>
 <defs>
  <style type="text/css">*{stroke-linejoin: round; stroke-linecap: butt}</style>
 </defs>
 <g id="figure_1">
  <g id="patch_1">
   <path d="M 0 120 
L 288 120 
L 288 0 
L 0 0 
L 0 120 
z
" style="fill: none; opacity: 0"/>
  </g>
  <g id="axes_1">
   <g id="patch_2">
    <path d="M 8.64 108 
L 279.36 108 
L 279.36 4.8 
L 8.64 4.8 
L 8.64 108 
z
" style="fill: none"/>
   </g>
   <g id="matplotlib.axis_1"/>
   <g id="matplotlib.axis_2"/>
   <g id="line2d_1">
    <path d="M 8.64 87.36 
L 279.36 87.36 
" clip-path="url(#pf6ca7447c4)" style="fill: none; stroke: #b2b2b2; stroke-opacity: 0.35; stroke-width: 0.5; stroke-linecap: square"/>
   </g>
   <g id="line2d_2">
    <path d="M 8.64 66.72 
L 279.36 66.72 
" clip-path="url(#pf6ca7447c4)" style="fill: none; stroke: #b2b2b2; stroke-opacity: 0.35; stroke-width: 0.5; stroke-linecap: square"/>
   </g>
   <g id="line2d_3">
    <path d="M 8.64 46.08 
L 279.36 46.08 
" clip-path="url(#pf6ca7447c4)" style="fill: none; stroke: #b2b2b2; stroke-opacity: 0.35; stroke-width: 0.5; stroke-linecap: square"/>
   </g>
   <g id="line2d_4">
    <path d="M 8.64 25.44 
L 279.36 25.44 
" clip-path="url(#pf6ca7447c4)" style="fill: none; stroke: #b2b2b2; stroke-opacity: 0.35; stroke-width: 0.5; stroke-linecap: square"/>
   </g>
   <g id="line2d_5">
    <path d="M 8.64 74.75928 
L 9.384476 73.96464 
L 10.128952 71.9316 
L 10.873427 71.73552 
L 11.617903 71.84904 
L 12.362379 72.42696 
L 13.106855 72.78816 
L 13.851331 73.428 
L 14.595807 71.95224 
L 15.340282 73.3764 
L 16.084758 75.08952 
L 17.57371 80.30112 
L 18.318186 80.25984 
L 19.062662 78.41256 
L 19.807137 80.33208 
L 20.551613 79.45488 
L 21.296089 80.57976 
L 22.040565 87.93792 
L 22.785041 87.06072 
L 23.529517 89.71296 
L 24.273992 88.908 
L 25.018468 86.0184 
L 25.762944 87.31872 
L 26.50742 77.82432 
L 27.251896 87.5664 
L 27.996371 86.86464 
L 28.740847 86.56536 
L 29.485323 87.3084 
L 30.229799 88.47456 
L 30.974275 89.10408 
L 31.718751 91.9008 
L 32.463226 94.04736 
L 33.207702 92.23104 
L 33.952178 91.92144 
L 34.696654 92.8296 
L 35.44113 90.01224 
L 36.185606 89.39304 
L 36.930081 92.03496 
L 37.674557 91.45704 
L 38.419033 92.262 
L 39.163509 89.44464 
L 39.907985 91.62216 
L 40.65246 91.46736 
L 41.396936 91.42608 
L 42.141412 90.41472 
L 42.885888 88.09272 
L 43.630364 87.17424 
L 44.37484 89.04216 
L 45.119315 88.69128 
L 45.863791 91.13712 
L 46.608267 92.48904 
L 48.097219 92.38584 
L 48.841695 91.85952 
L 49.58617 94.24344 
L 50.330646 94.4808 
L 51.075122 92.97408 
L 51.819598 93.67584 
L 52.564074 97.60776 
L 53.30855 97.32912 
L 54.053025 97.68 
L 54.797501 94.00608 
L 55.541977 95.65728 
L 56.286453 93.33528 
L 57.030929 90.39408 
L 57.775404 91.46736 
L 58.51988 91.14744 
L 59.264356 91.99368 
L 60.008832 90.57984 
L 60.753308 89.72328 
L 61.497784 89.89872 
L 62.242259 88.35072 
L 62.986735 88.89768 
L 63.731211 89.25888 
L 64.475687 85.84296 
L 65.220163 85.2444 
L 65.964639 84.8832 
L 68.198066 85.99776 
L 68.942542 86.07 
L 69.687018 86.4828 
L 70.431493 86.14224 
L 71.175969 85.31664 
L 71.920445 86.07 
L 72.664921 86.38992 
L 73.409397 87.16392 
L 74.153873 86.38992 
L 75.642824 86.28672 
L 76.3873 81.84912 
L 77.131776 79.32072 
L 77.876252 78.05136 
L 78.620728 79.26912 
L 79.365203 78.846 
L 80.109679 76.2144 
L 81.598631 80.394 
L 82.343107 80.66232 
L 83.087583 81.168 
L 83.832058 79.63032 
L 84.576534 80.95128 
L 85.32101 80.4972 
L 86.809962 77.43216 
L 87.554437 78.846 
L 88.298913 78.41256 
L 89.043389 78.64992 
L 89.787865 78.76344 
L 90.532341 78.25776 
L 91.276817 79.47552 
L 92.021292 80.92032 
L 92.765768 83.73768 
L 93.510244 83.6448 
L 94.25472 83.4384 
L 94.999196 83.61384 
L 95.743672 83.99568 
L 96.488147 84.55296 
L 97.232623 87.00912 
L 97.977099 85.98744 
L 98.721575 85.5024 
L 99.466051 84.8316 
L 100.210527 82.46832 
L 100.955002 81.426 
L 101.699478 82.5096 
L 102.443954 84.79032 
L 103.932906 86.95752 
L 104.677381 84.79032 
L 105.421857 85.13088 
L 106.166333 86.07 
L 106.910809 86.5344 
L 107.655285 86.31768 
L 109.144236 89.97096 
L 109.888712 90.48696 
L 110.633188 86.9472 
L 111.377664 86.66856 
L 112.12214 87.32904 
L 112.866616 88.53648 
L 113.611091 87.6696 
L 114.355567 85.30632 
L 115.100043 84.61488 
L 115.844519 84.17112 
L 116.588995 86.3796 
L 117.33347 84.92448 
L 118.077946 84.89352 
L 118.822422 86.13192 
L 119.566898 86.1732 
L 120.311374 84.99672 
L 121.05585 85.85328 
L 121.800325 85.01736 
L 122.544801 83.55192 
L 123.289277 81.7356 
L 124.033753 82.03488 
L 124.778229 82.65408 
L 126.26718 82.15872 
L 127.011656 81.70464 
L 127.756132 79.01112 
L 128.500608 78.39192 
L 129.245084 78.04104 
L 129.98956 78.16488 
L 130.734035 77.05032 
L 131.478511 72.82944 
L 132.222987 70.41456 
L 132.967463 74.69736 
L 133.711939 76.6272 
L 134.456414 75.63648 
L 135.20089 75.97704 
L 135.945366 74.976 
L 136.689842 76.49304 
L 137.434318 76.99872 
L 138.178794 77.90688 
L 138.923269 79.4652 
L 139.667745 82.02456 
L 140.412221 83.19072 
L 141.156697 82.27224 
L 141.901173 80.21856 
L 142.645649 81.67368 
L 143.390124 80.5488 
L 144.1346 78.588 
L 144.879076 78.19584 
L 145.623552 77.21544 
L 146.368028 76.524 
L 147.112503 78.68088 
L 147.856979 73.88208 
L 148.601455 71.364 
L 149.345931 73.8408 
L 150.090407 75.79128 
L 150.834883 74.65608 
L 151.579358 74.14008 
L 152.323834 76.50336 
L 153.06831 78.30936 
L 153.812786 75.3372 
L 154.557262 77.25672 
L 155.301738 71.78712 
L 156.046213 70.75512 
L 156.790689 70.24944 
L 157.535165 75.35784 
L 158.279641 72.95328 
L 159.024117 70.96152 
L 159.768593 67.87584 
L 160.513068 70.46616 
L 161.257544 71.11632 
L 162.00202 71.61168 
L 162.746496 72.7056 
L 163.490972 69.33096 
L 164.235447 68.9388 
L 164.979923 71.12664 
L 165.724399 70.90992 
L 166.468875 71.80776 
L 167.213351 70.074 
L 167.957827 68.01 
L 168.702302 67.10184 
L 169.446778 65.29584 
L 170.191254 64.01616 
L 170.93573 60.31128 
L 171.680206 60.19776 
L 172.424682 60.786 
L 173.169157 62.61264 
L 173.913633 61.74576 
L 174.658109 59.57856 
L 175.402585 58.86648 
L 176.147061 61.38456 
L 176.891537 61.07496 
L 177.636012 61.83864 
L 178.380488 66.29688 
L 179.124964 67.97904 
L 179.86944 68.69112 
L 180.613916 73.9956 
L 181.358391 70.45584 
L 182.102867 70.87896 
L 182.847343 68.91816 
L 183.591819 68.3196 
L 184.336295 69.47544 
L 185.825246 62.39592 
L 186.569722 62.81904 
L 187.314198 64.22256 
L 188.058674 64.05744 
L 188.80315 62.9532 
L 189.547626 66.14208 
L 190.292101 63.91296 
L 191.036577 66.17304 
L 191.781053 74.6148 
L 192.525529 77.78304 
L 193.270005 72.66432 
L 194.01448 69.69216 
L 194.758956 71.09568 
L 196.247908 76.06992 
L 196.992384 76.76136 
L 197.73686 75.25464 
L 198.481335 75.24432 
L 199.225811 74.63544 
L 199.970287 75.73968 
L 200.714763 77.31864 
L 201.459239 74.202 
L 202.203715 73.64472 
L 202.94819 73.48992 
L 203.692666 71.83872 
L 204.437142 72.17928 
L 205.181618 73.38672 
L 205.926094 73.43832 
L 206.67057 76.15248 
L 207.415045 75.3372 
L 208.159521 75.58488 
L 208.903997 75.35784 
L 209.648473 81.168 
L 210.392949 84.01632 
L 211.137424 82.06584 
L 211.8819 84.19176 
L 212.626376 82.27224 
L 213.370852 83.29392 
L 214.115328 81.62208 
L 214.859804 80.72424 
L 215.604279 84.33624 
L 216.348755 84.64584 
L 217.093231 86.844 
L 217.837707 88.52616 
L 218.582183 88.36104 
L 219.326659 88.93896 
L 220.071134 90.79656 
L 220.81561 88.09272 
L 221.560086 89.22792 
L 222.304562 90.00192 
L 223.049038 91.39512 
L 223.793513 91.63248 
L 224.537989 90.75528 
L 225.282465 88.7016 
L 226.026941 88.52616 
L 226.771417 87.45288 
L 227.515893 88.0308 
L 228.260368 88.94928 
L 229.74932 89.7336 
L 230.493796 91.86984 
L 231.238272 88.60872 
L 231.982748 86.87496 
L 233.471699 90.11544 
L 234.960651 90.53856 
L 235.705127 90.08448 
L 236.449603 88.79448 
L 237.194078 89.20728 
L 237.938554 89.22792 
L 238.68303 90.31152 
L 239.427506 90.10512 
L 240.171982 91.09584 
L 240.916457 91.61184 
L 241.660933 91.31256 
L 242.405409 92.87088 
L 243.149885 93.8616 
L 243.894361 92.02464 
L 244.638837 92.13816 
L 245.383312 92.07624 
L 246.127788 92.14848 
L 248.361216 93.69648 
L 249.850167 92.44776 
L 250.594643 92.30328 
L 251.339119 92.87088 
L 252.083595 92.38584 
L 252.828071 92.47872 
L 253.572547 91.88016 
L 254.317022 90.42504 
L 255.061498 90.08448 
L 255.805974 89.92968 
L 256.55045 88.76352 
L 257.294926 87.94824 
L 258.039401 89.2692 
L 258.783877 88.72224 
L 259.528353 89.39304 
L 260.272829 89.40336 
L 261.017305 88.41264 
L 261.761781 88.4952 
L 262.506256 86.86464 
L 263.250732 86.42088 
L 263.995208 87.62832 
L 264.739684 86.93688 
L 265.48416 87.23616 
L 266.973111 90.0432 
L 267.717587 92.12784 
L 268.462063 91.16808 
L 269.951015 91.73568 
L 270.69549 91.78728 
L 271.439966 94.0164 
L 272.184442 92.5716 
L 272.928918 91.76664 
L 273.673394 92.33424 
L 274.41787 94.36728 
L 275.162345 94.46016 
L 275.906821 97.71096 
L 276.651297 98.48496 
L 277.395773 97.85544 
L 278.615903 100.16712 
L 279.36 102.23112 
L 279.36 102.23112 
" clip-path="url(#pf6ca7447c4)" style="fill: none; stroke: #bebebe; stroke-width: 0.5; stroke-linecap: round"/>
   </g>
   <g id="line2d_6">
    <path d="M 8.64 79.71288 
L 9.384476 80.652 
L 10.128952 80.47656 
L 10.873427 80.51784 
L 11.617903 80.10504 
L 12.362379 80.9616 
L 13.106855 78.98016 
L 13.851331 79.878 
L 14.595807 79.1556 
L 16.084758 80.11536 
L 16.829234 78.8976 
L 17.57371 79.97088 
L 18.318186 79.30008 
L 19.062662 78.8976 
L 19.807137 80.136 
L 20.551613 78.56736 
L 21.296089 77.62824 
L 22.040565 82.43736 
L 22.785041 82.5612 
L 23.529517 85.06896 
L 24.273992 85.37856 
L 25.018468 86.41056 
L 25.762944 86.75112 
L 26.50742 82.23096 
L 27.251896 87.71088 
L 27.996371 87.36 
L 28.740847 86.328 
L 29.485323 86.90592 
L 30.229799 87.81408 
L 30.974275 86.93688 
L 31.718751 89.65104 
L 32.463226 91.6944 
L 33.207702 91.0752 
L 33.952178 91.23 
L 34.696654 91.94208 
L 35.44113 91.23 
L 36.185606 90.79656 
L 36.930081 91.57056 
L 37.674557 90.95136 
L 38.419033 90.89976 
L 39.163509 89.00088 
L 39.907985 90.18768 
L 40.65246 90.43536 
L 42.141412 89.8884 
L 42.885888 88.7532 
L 43.630364 88.88736 
L 44.37484 89.75424 
L 45.119315 89.85744 
L 45.863791 91.4364 
L 46.608267 92.43744 
L 47.352743 92.79864 
L 48.097219 92.50968 
L 48.841695 91.2816 
L 49.58617 92.9328 
L 50.330646 92.60256 
L 51.819598 92.7264 
L 52.564074 96.21456 
L 53.30855 96.4932 
L 54.053025 97.74192 
L 54.797501 94.91424 
L 55.541977 96.96792 
L 56.286453 96.31776 
L 57.030929 95.16192 
L 57.775404 95.90496 
L 58.51988 95.52312 
L 59.264356 96.01848 
L 60.008832 96.17328 
L 61.497784 95.99784 
L 62.242259 95.616 
L 62.986735 96.05976 
L 63.731211 96.17328 
L 64.475687 93.46944 
L 65.220163 92.96376 
L 65.964639 93.32496 
L 66.709114 93.036 
L 67.45359 92.56128 
L 68.198066 92.96376 
L 68.942542 92.8812 
L 70.431493 92.96376 
L 71.175969 92.29296 
L 71.920445 92.262 
L 72.664921 92.3652 
L 73.409397 92.74704 
L 74.153873 92.5716 
L 75.642824 92.71608 
L 76.3873 86.97816 
L 77.131776 84.84192 
L 77.876252 81.24024 
L 78.620728 82.37544 
L 79.365203 82.60248 
L 80.109679 79.86768 
L 81.598631 81.85944 
L 82.343107 81.82848 
L 83.087583 82.86048 
L 83.832058 83.00496 
L 84.576534 82.08648 
L 85.32101 82.12776 
L 86.065486 81.61176 
L 86.809962 80.15664 
L 87.554437 82.18968 
L 89.043389 81.79752 
L 89.787865 81.56016 
L 90.532341 80.0844 
L 91.276817 79.86768 
L 92.021292 80.50752 
L 92.765768 82.12776 
L 94.25472 81.92136 
L 94.999196 80.8584 
L 95.743672 81.07512 
L 96.488147 80.84808 
L 97.232623 83.6448 
L 97.977099 82.7676 
L 98.721575 82.0968 
L 99.466051 82.3548 
L 100.210527 79.74384 
L 100.955002 77.90688 
L 101.699478 78.39192 
L 102.443954 80.21856 
L 103.18843 81.34344 
L 103.932906 81.98328 
L 105.421857 81.5808 
L 106.166333 82.26192 
L 107.655285 82.15872 
L 108.399761 83.88216 
L 109.144236 85.89456 
L 109.888712 86.5344 
L 110.633188 83.61384 
L 111.377664 83.2836 
L 112.12214 83.71704 
L 112.866616 83.748 
L 114.355567 83.41776 
L 115.100043 82.44768 
L 115.844519 82.6644 
L 116.588995 83.89248 
L 117.33347 81.38472 
L 118.077946 81.14736 
L 118.822422 82.34448 
L 119.566898 82.23096 
L 120.311374 81.426 
L 121.05585 81.8388 
L 121.800325 80.76552 
L 123.289277 75.83256 
L 124.033753 75.67776 
L 124.778229 75.91512 
L 126.26718 74.88312 
L 127.011656 73.09776 
L 127.756132 69.6096 
L 128.500608 67.91712 
L 129.245084 66.94704 
L 129.98956 66.24528 
L 130.734035 63.80976 
L 131.478511 63.70656 
L 132.222987 63.9852 
L 132.967463 65.71896 
L 133.711939 64.5528 
L 135.20089 64.05744 
L 135.945366 62.25144 
L 136.689842 63.39696 
L 137.434318 63.366 
L 138.178794 63.08736 
L 138.923269 64.72824 
L 139.667745 67.89648 
L 140.412221 69.16584 
L 141.156697 67.69008 
L 141.901173 64.4496 
L 142.645649 65.97696 
L 143.390124 64.914 
L 144.1346 61.54968 
L 144.879076 60.04296 
L 145.623552 56.28648 
L 146.368028 56.47224 
L 147.112503 56.83344 
L 147.856979 51.22968 
L 148.601455 48.89736 
L 149.345931 52.00368 
L 150.090407 53.84064 
L 150.834883 53.90256 
L 151.579358 53.00472 
L 152.323834 55.5228 
L 153.06831 59.12448 
L 153.812786 55.32672 
L 154.557262 56.90568 
L 155.301738 47.92728 
L 156.046213 48.75288 
L 156.790689 48.68064 
L 157.535165 54.57336 
L 158.279641 51.2916 
L 159.024117 52.80864 
L 159.768593 52.69512 
L 160.513068 54.82104 
L 162.00202 54.45984 
L 162.746496 55.7292 
L 163.490972 55.39896 
L 164.235447 53.55168 
L 164.979923 55.81176 
L 165.724399 55.6776 
L 166.468875 56.18328 
L 167.213351 55.71888 
L 168.702302 55.63632 
L 169.446778 55.07904 
L 170.191254 53.41752 
L 170.93573 49.71264 
L 171.680206 50.32152 
L 172.424682 51.17808 
L 173.169157 52.44744 
L 173.913633 52.74672 
L 174.658109 51.4464 
L 175.402585 51.46704 
L 176.147061 53.2524 
L 176.891537 53.08728 
L 177.636012 53.5104 
L 178.380488 57.26688 
L 179.124964 57.76224 
L 179.86944 58.02024 
L 180.613916 62.26176 
L 181.358391 59.68176 
L 182.102867 59.9604 
L 182.847343 58.12344 
L 183.591819 57.02952 
L 184.336295 58.09248 
L 185.080771 55.13064 
L 185.825246 53.046 
L 186.569722 52.5816 
L 187.314198 52.9944 
L 188.058674 52.5816 
L 188.80315 50.0016 
L 189.547626 53.48976 
L 190.292101 52.40616 
L 191.036577 54.75912 
L 191.781053 62.67456 
L 192.525529 63.95424 
L 193.270005 57.86544 
L 194.01448 56.57544 
L 194.758956 58.31952 
L 195.503432 60.4764 
L 196.247908 61.85928 
L 196.992384 62.73648 
L 197.73686 61.8696 
L 198.481335 60.45576 
L 199.225811 60.54864 
L 199.970287 62.04504 
L 200.714763 63.16992 
L 201.459239 62.36496 
L 202.203715 61.21944 
L 202.94819 60.9408 
L 203.692666 57.83448 
L 204.437142 58.40208 
L 205.181618 60.49704 
L 206.67057 63.1596 
L 207.415045 62.49912 
L 208.159521 62.1276 
L 208.903997 61.56 
L 210.392949 70.66224 
L 211.137424 68.72208 
L 211.8819 70.4868 
L 212.626376 68.61888 
L 213.370852 69.11424 
L 214.115328 66.5136 
L 214.859804 66.68904 
L 215.604279 68.8872 
L 216.348755 68.9904 
L 217.093231 71.5704 
L 217.837707 73.48992 
L 218.582183 72.54048 
L 220.071134 74.74896 
L 220.81561 73.3248 
L 221.560086 74.80056 
L 222.304562 77.556 
L 223.049038 78.55704 
L 223.793513 78.50544 
L 224.537989 78.04104 
L 225.282465 75.76032 
L 226.026941 75.73968 
L 226.771417 74.65608 
L 227.515893 74.83152 
L 228.260368 74.57352 
L 229.004844 75.20304 
L 229.74932 75.17208 
L 230.493796 78.05136 
L 231.982748 72.16896 
L 232.727223 73.08744 
L 233.471699 74.72832 
L 234.960651 74.28456 
L 235.705127 73.21128 
L 236.449603 70.2804 
L 237.194078 70.2288 
L 237.938554 71.56008 
L 238.68303 73.79952 
L 239.427506 73.35576 
L 240.171982 74.0988 
L 240.916457 75.5952 
L 241.660933 75.5952 
L 242.405409 77.61792 
L 243.149885 77.63856 
L 243.894361 75.40944 
L 244.638837 75.40944 
L 245.383312 75.04824 
L 246.127788 74.98632 
L 246.872264 75.58488 
L 247.61674 75.87384 
L 248.361216 76.49304 
L 249.850167 75.82224 
L 250.594643 75.84288 
L 251.339119 76.03896 
L 252.083595 75.51264 
L 252.828071 75.56424 
L 253.572547 75.05856 
L 254.317022 73.26288 
L 255.061498 73.20096 
L 255.805974 73.00488 
L 256.55045 71.68392 
L 257.294926 70.6932 
L 258.039401 72.62304 
L 258.783877 73.52088 
L 259.528353 73.83048 
L 260.272829 73.8408 
L 261.017305 73.29384 
L 261.761781 73.72728 
L 262.506256 70.32168 
L 263.250732 69.77472 
L 263.995208 70.34232 
L 264.739684 70.67256 
L 265.48416 70.51776 
L 266.228636 70.848 
L 266.973111 72.31344 
L 267.717587 76.01832 
L 268.462063 75.41976 
L 269.206539 75.83256 
L 270.69549 75.82224 
L 271.439966 77.82432 
L 272.184442 76.14216 
L 272.928918 74.75928 
L 273.673394 74.96568 
L 274.41787 77.75208 
L 275.162345 79.48584 
L 275.906821 83.31456 
L 276.651297 85.90488 
L 277.395773 84.79032 
L 278.024278 85.84296 
L 279.36 91.41576 
L 279.36 91.41576 
" clip-path="url(#pf6ca7447c4)" style="fill: none; stroke: #4a8dff; stroke-width: 0.6"/>
   </g>
   <g id="line2d_7">
    <path d="M 8.64 76.58592 
L 10.128952 76.66848 
L 10.873427 76.6788 
L 11.617903 75.79128 
L 12.362379 77.51472 
L 13.106855 75.3372 
L 13.851331 76.65816 
L 14.595807 75.6984 
L 15.340282 75.61584 
L 16.084758 77.0916 
L 17.57371 77.7624 
L 18.318186 76.66848 
L 19.062662 74.7696 
L 19.807137 77.10192 
L 20.551613 76.65816 
L 21.296089 76.90584 
L 22.040565 82.01424 
L 22.785041 84.74904 
L 23.529517 89.77488 
L 24.273992 88.93896 
L 25.018468 89.2176 
L 25.762944 87.59736 
L 26.50742 79.04208 
L 27.251896 87.47352 
L 27.996371 86.24544 
L 28.740847 82.82952 
L 29.485323 83.45904 
L 30.229799 86.80272 
L 30.974275 87.45288 
L 31.718751 93.036 
L 32.463226 95.07936 
L 33.207702 90.9204 
L 33.952178 89.79552 
L 34.696654 92.6748 
L 35.44113 89.70264 
L 36.185606 89.2692 
L 36.930081 91.11648 
L 37.674557 89.59944 
L 38.419033 90.94104 
L 39.163509 86.76144 
L 39.907985 89.39304 
L 41.396936 89.8884 
L 42.141412 87.8244 
L 42.885888 86.2248 
L 43.630364 86.02872 
L 44.37484 86.60664 
L 45.119315 86.328 
L 45.863791 89.30016 
L 46.608267 91.04424 
L 47.352743 91.37448 
L 48.097219 91.20936 
L 48.841695 88.392 
L 49.58617 91.19904 
L 51.075122 89.82648 
L 51.819598 90.0948 
L 52.564074 95.6676 
L 53.30855 94.66656 
L 54.053025 97.61808 
L 54.797501 91.10616 
L 55.541977 94.23312 
L 56.286453 90.25992 
L 57.030929 88.31976 
L 57.775404 90.08448 
L 58.51988 89.13504 
L 59.264356 90.03288 
L 60.008832 89.56848 
L 60.753308 88.71192 
L 61.497784 89.22792 
L 62.242259 88.50552 
L 62.986735 88.55712 
L 63.731211 86.10096 
L 64.475687 79.75416 
L 65.220163 79.7232 
L 65.964639 79.44456 
L 66.709114 78.51576 
L 67.45359 78.64992 
L 68.198066 79.5168 
L 68.942542 78.24744 
L 69.687018 79.0524 
L 70.431493 79.07304 
L 71.175969 76.80264 
L 71.920445 76.35888 
L 72.664921 77.31864 
L 73.409397 78.98016 
L 74.153873 78.52608 
L 74.898348 76.35888 
L 75.642824 76.18344 
L 76.3873 69.90888 
L 77.131776 70.03272 
L 77.876252 68.29896 
L 78.620728 68.95944 
L 79.365203 70.11528 
L 80.109679 68.76336 
L 80.854155 69.37224 
L 81.598631 69.25872 
L 82.343107 69.41352 
L 83.087583 69.77472 
L 83.832058 66.85416 
L 84.576534 67.26696 
L 85.32101 66.06984 
L 86.065486 63.08736 
L 86.809962 61.12656 
L 87.554437 65.62608 
L 88.298913 64.98624 
L 89.043389 63.91296 
L 89.787865 63.38664 
L 90.532341 63.70656 
L 91.276817 64.97592 
L 92.021292 67.14312 
L 92.765768 68.9388 
L 93.510244 68.23704 
L 94.25472 67.1844 
L 94.999196 66.99864 
L 95.743672 67.47336 
L 96.488147 68.1132 
L 97.232623 71.38464 
L 97.977099 68.526 
L 98.721575 67.21536 
L 99.466051 67.20504 
L 100.210527 62.46816 
L 100.955002 62.51976 
L 101.699478 64.10904 
L 102.443954 66.90576 
L 103.18843 66.83352 
L 103.932906 67.42176 
L 104.677381 67.3392 
L 105.421857 65.8944 
L 106.166333 68.24736 
L 107.655285 68.23704 
L 108.399761 69.69216 
L 109.144236 71.50848 
L 109.888712 72.21024 
L 110.633188 67.3908 
L 111.377664 66.90576 
L 112.12214 65.59512 
L 112.866616 65.86344 
L 113.611091 65.76024 
L 114.355567 65.50224 
L 115.100043 64.398 
L 115.844519 65.70864 
L 116.588995 67.2876 
L 117.33347 63.95424 
L 118.077946 63.14928 
L 118.822422 64.76952 
L 119.566898 64.58376 
L 120.311374 63.55176 
L 121.05585 64.5012 
L 121.800325 63.82008 
L 122.544801 61.36392 
L 123.289277 56.64768 
L 124.033753 54.89328 
L 124.778229 55.04808 
L 125.522705 53.29368 
L 126.26718 52.55064 
L 127.011656 54.77976 
L 127.756132 53.67552 
L 128.500608 52.95312 
L 129.245084 54.45984 
L 129.98956 54.55272 
L 130.734035 55.22352 
L 131.478511 54.98616 
L 132.222987 52.4268 
L 132.967463 53.79936 
L 133.711939 54.08832 
L 134.456414 54.92424 
L 135.20089 54.4908 
L 135.945366 52.98408 
L 136.689842 54.44952 
L 137.434318 54.60432 
L 138.178794 54.62496 
L 139.667745 59.38248 
L 140.412221 60.09456 
L 141.156697 58.39176 
L 141.901173 57.41136 
L 142.645649 58.464 
L 143.390124 57.5352 
L 144.1346 55.0068 
L 144.879076 55.81176 
L 145.623552 55.99752 
L 146.368028 53.13888 
L 147.112503 53.64456 
L 147.856979 52.1688 
L 148.601455 48.69096 
L 149.345931 54.0264 
L 150.090407 55.13064 
L 150.834883 54.96552 
L 151.579358 54.92424 
L 152.323834 56.25552 
L 153.06831 59.8572 
L 153.812786 58.32984 
L 154.557262 60.23904 
L 155.301738 55.65696 
L 156.046213 57.18432 
L 156.790689 59.21736 
L 157.535165 62.55072 
L 158.279641 60.82728 
L 159.024117 61.47744 
L 159.768593 60.12552 
L 160.513068 64.31544 
L 161.257544 63.99552 
L 162.00202 64.5528 
L 162.746496 63.60336 
L 163.490972 61.5084 
L 164.235447 60.96144 
L 164.979923 61.98312 
L 165.724399 62.05536 
L 166.468875 62.51976 
L 167.957827 60.64152 
L 168.702302 61.13688 
L 169.446778 58.6188 
L 170.191254 57.03984 
L 170.93573 56.35872 
L 171.680206 56.5548 
L 172.424682 57.174 
L 173.169157 57.14304 
L 173.913633 55.7292 
L 174.658109 56.04912 
L 175.402585 55.33704 
L 176.147061 56.87472 
L 176.891537 56.8128 
L 177.636012 57.24624 
L 178.380488 59.93976 
L 179.124964 60.64152 
L 179.86944 59.29992 
L 180.613916 63.80976 
L 181.358391 63.03576 
L 182.102867 63.09768 
L 183.591819 58.27824 
L 184.336295 58.5672 
L 185.080771 53.93352 
L 185.825246 51.74568 
L 186.569722 50.04288 
L 187.314198 49.90872 
L 188.80315 47.43192 
L 189.547626 50.80656 
L 190.292101 48.90768 
L 191.036577 50.6208 
L 191.781053 59.42376 
L 192.525529 61.85928 
L 193.270005 57.35976 
L 194.01448 57.3288 
L 194.758956 59.46504 
L 196.247908 64.72824 
L 196.992384 66.42072 
L 197.73686 65.688 
L 198.481335 64.17096 
L 199.225811 62.10696 
L 199.970287 64.30512 
L 200.714763 65.20296 
L 201.459239 62.68488 
L 202.203715 61.70448 
L 202.94819 61.06464 
L 203.692666 58.1028 
L 204.437142 58.40208 
L 205.181618 59.68176 
L 205.926094 62.6952 
L 206.67057 64.56312 
L 207.415045 63.18024 
L 208.159521 62.72616 
L 208.903997 62.06568 
L 209.648473 66.33816 
L 210.392949 71.40528 
L 211.137424 69.08328 
L 211.8819 71.7252 
L 212.626376 69.57864 
L 213.370852 70.72416 
L 214.115328 68.2164 
L 214.859804 66.978 
L 215.604279 70.03272 
L 216.348755 71.5188 
L 217.093231 73.3764 
L 217.837707 78.846 
L 218.582183 77.75208 
L 219.326659 78.88728 
L 220.071134 81.34344 
L 220.81561 80.53848 
L 221.560086 82.0452 
L 222.304562 86.92656 
L 223.049038 88.58808 
L 223.793513 88.96992 
L 224.537989 86.7924 
L 225.282465 85.296 
L 226.026941 86.24544 
L 226.771417 82.96368 
L 227.515893 82.13808 
L 228.260368 82.47864 
L 229.004844 82.58184 
L 229.74932 83.03592 
L 230.493796 87.3084 
L 231.238272 82.06584 
L 231.982748 79.71288 
L 232.727223 81.24024 
L 233.471699 84.17112 
L 234.216175 84.24336 
L 234.960651 83.29392 
L 235.705127 82.8192 
L 236.449603 80.64168 
L 237.194078 81.38472 
L 237.938554 80.87904 
L 238.68303 83.13912 
L 239.427506 83.19072 
L 240.916457 87.17424 
L 241.660933 85.71912 
L 242.405409 87.53544 
L 243.149885 88.17528 
L 243.894361 85.41984 
L 245.383312 84.9348 
L 246.127788 85.01736 
L 246.872264 86.14224 
L 247.61674 85.90488 
L 248.361216 86.328 
L 249.105692 86.24544 
L 249.850167 85.72944 
L 250.594643 85.7088 
L 251.339119 86.40024 
L 252.083595 85.09992 
L 252.828071 86.02872 
L 254.317022 83.53128 
L 255.805974 82.03488 
L 256.55045 79.39296 
L 257.294926 79.66128 
L 258.039401 82.15872 
L 258.783877 82.43736 
L 259.528353 82.93272 
L 260.272829 83.00496 
L 261.761781 82.28256 
L 262.506256 78.01008 
L 263.250732 76.19376 
L 263.995208 77.66952 
L 264.739684 77.74176 
L 265.48416 78.1752 
L 266.973111 80.8068 
L 267.717587 85.20312 
L 268.462063 84.12984 
L 269.206539 84.03696 
L 269.951015 84.06792 
L 270.69549 84.3156 
L 271.439966 87.02976 
L 272.184442 85.21344 
L 272.928918 84.28464 
L 273.673394 84.32592 
L 274.41787 89.08344 
L 275.162345 89.5272 
L 275.906821 95.14128 
L 276.651297 96.98856 
L 277.395773 95.08968 
L 278.615903 99.80592 
L 279.36 101.79768 
L 279.36 101.79768 
" clip-path="url(#pf6ca7447c4)" style="fill: none; stroke: #f5841e; stroke-width: 0.6"/>
   </g>
  </g>
 </g>
 <defs>
  <clipPath id="pf6ca7447c4">
   <rect x="8.64" y="4.8" width="270.72" height="103.2"/>
  </clipPath>
 </defs>
</svg>
