<?xml version="1.0" encoding="utf-8" standalone="no"?>
<!DOCTYPE svg PUBLIC "-//W3C//DTD SVG 1.1//EN"
  "http://www.w3.org/Graphics/SVG/1.1/DTD/svg11.dtd">
<svg xmlns:xlink="http://www.w3.org/1999/xlink" width="288pt" height="120pt" viewBox="0 0 288 120" xmlns="http://www.w3.org/2000/svg" version="1.1">
<desc id="nav-meta">{"window":"1m","count":4,"labels":["09.01","19.01","29.01","08.02"],"tick_utc":["2026-01-09T12:00:00Z","2026-01-19T12:00:00Z","2026-01-29T12:00:00Z","2026-02-08T03:46:03Z"],"w":720,"h":300}</desc>

 <metadata>
  <rdf:RDF xmlns:dc="http://purl.org/dc/elements/1.1/" xmlns:cc="http://creativecommons.org/ns#" xmlns:rdf="http://www.w3.org/1999/02/22-rdf-syntax-ns#">
   <cc:Work>
    <dc:type rdf:resource="http://purl.org/dc/dcmitype/StillImage"/>
    <dc:date>2026-02-08T03:46:05.589843</dc:date>
    <dc:format>image/svg+xml</dc:format>
    <dc:creator>
     <cc:Agent>
      <dc:title>Matplotlib v3.10.8, https://matplotlib.org/</dc:title>
     </cc:Agent>
    </dc:creator>
   </cc:Work>
  </rdf:RDF>
 </metadata>
 <defs>
  <style type="text/css">*{stroke-linejoin: round; stroke-linecap: butt}</style>
 </defs>
 <g id="figure_1">
  <g id="patch_1">
   <path d="M 0 120 
L 288 120 
L 288 0 
L 0 0 
L 0 120 
z
" style="fill: none; opacity: 0"/>
  </g>
  <g id="axes_1">
   <g id="patch_2">
    <path d="M 8.64 108 
L 279.36 108 
L 279.36 4.8 
L 8.64 4.8 
L 8.64 108 
z
" style="fill: none"/>
   </g>
   <g id="matplotlib.axis_1"/>
   <g id="matplotlib.axis_2"/>
   <g id="line2d_1">
    <path d="M 8.64 87.36 
L 279.36 87.36 
" clip-path="url(#pac43b99cf4)" style="fill: none; stroke: #b2b2b2; stroke-opacity: 0.35; stroke-width: 0.5; stroke-linecap: square"/>
   </g>
   <g id="line2d_2">
    <path d="M 8.64 66.72 
L 279.36 66.72 
" clip-path="url(#pac43b99cf4)" style="fill: none; stroke: #b2b2b2; stroke-opacity: 0.35; stroke-width: 0.5; stroke-linecap: square"/>
   </g>
   <g id="line2d_3">
    <path d="M 8.64 46.08 
L 279.36 46.08 
" clip-path="url(#pac43b99cf4)" style="fill: none; stroke: #b2b2b2; stroke-opacity: 0.35; stroke-width: 0.5; stroke-linecap: square"/>
   </g>
   <g id="line2d_4">
    <path d="M 8.64 25.44 
L 279.36 25.44 
" clip-path="url(#pac43b99cf4)" style="fill: none; stroke: #b2b2b2; stroke-opacity: 0.35; stroke-width: 0.5; stroke-linecap: square"/>
   </g>
   <g id="line2d_5">
    <path d="M 8.64 88.72224 
L 17.768374 89.39304 
L 26.896748 89.40336 
L 36.025122 88.41264 
L 45.153496 88.4952 
L 54.28187 86.86464 
L 63.410244 86.42088 
L 72.538619 87.62832 
L 81.666993 86.93688 
L 90.795367 87.23616 
L 99.923741 88.63968 
L 109.052115 90.0432 
L 118.180489 92.12784 
L 127.308863 91.16808 
L 136.437237 91.46736 
L 145.565611 91.73568 
L 154.693985 91.78728 
L 163.822359 94.0164 
L 172.950733 92.5716 
L 182.079108 91.76664 
L 191.207482 92.33424 
L 200.335856 94.36728 
L 209.46423 94.46016 
L 218.592604 97.71096 
L 227.720978 98.48496 
L 236.849352 97.85544 
L 244.555749 99.10416 
L 251.809954 100.16712 
L 260.93368 102.23112 
L 270.022962 100.54896 
L 279.36 100.70376 
" clip-path="url(#pac43b99cf4)" style="fill: none; stroke: #bebebe; stroke-width: 0.5; stroke-linecap: round"/>
   </g>
   <g id="line2d_6">
    <path d="M 8.64 73.52088 
L 17.768374 73.83048 
L 26.896748 73.8408 
L 36.025122 73.29384 
L 45.153496 73.72728 
L 54.28187 70.32168 
L 63.410244 69.77472 
L 72.538619 70.34232 
L 81.666993 70.67256 
L 90.795367 70.51776 
L 99.923741 70.848 
L 109.052115 72.31344 
L 118.180489 76.01832 
L 127.308863 75.41976 
L 136.437237 75.83256 
L 145.565611 75.79128 
L 154.693985 75.82224 
L 163.822359 77.82432 
L 172.950733 76.14216 
L 182.079108 74.75928 
L 191.207482 74.96568 
L 200.335856 77.75208 
L 209.46423 79.48584 
L 218.592604 83.31456 
L 227.720978 85.90488 
L 236.849352 84.79032 
L 244.555749 85.84296 
L 251.809954 88.25784 
L 260.93368 91.41576 
L 270.022962 88.7532 
L 279.36 88.65 
" clip-path="url(#pac43b99cf4)" style="fill: none; stroke: #4a8dff; stroke-width: 0.6"/>
   </g>
   <g id="line2d_7">
    <path d="M 8.64 82.43736 
L 17.768374 82.93272 
L 26.896748 83.00496 
L 36.025122 82.6128 
L 45.153496 82.28256 
L 54.28187 78.01008 
L 63.410244 76.19376 
L 72.538619 77.66952 
L 81.666993 77.74176 
L 90.795367 78.1752 
L 99.923741 79.5684 
L 109.052115 80.8068 
L 118.180489 85.20312 
L 127.308863 84.12984 
L 136.437237 84.03696 
L 145.565611 84.06792 
L 154.693985 84.3156 
L 163.822359 87.02976 
L 172.950733 85.21344 
L 182.079108 84.28464 
L 191.207482 84.32592 
L 200.335856 89.08344 
L 209.46423 89.5272 
L 218.592604 95.14128 
L 227.720978 96.98856 
L 236.849352 95.08968 
L 244.555749 97.71096 
L 251.809954 99.80592 
L 260.93368 101.79768 
L 270.022962 100.03296 
L 279.36 100.518 
" clip-path="url(#pac43b99cf4)" style="fill: none; stroke: #f5841e; stroke-width: 0.6"/>
   </g>
  </g>
 </g>
 <defs>
  <clipPath id="pac43b99cf4">
   <rect x="8.64" y="4.8" width="270.72" height="103.2"/>
  </clipPath>
 </defs>
</svg>
