<?xml version="1.0" encoding="utf-8" standalone="no"?>
<!DOCTYPE svg PUBLIC "-//W3C//DTD SVG 1.1//EN"
  "http://www.w3.org/Graphics/SVG/1.1/DTD/svg11.dtd">
<svg xmlns:xlink="http://www.w3.org/1999/xlink" width="288pt" height="120pt" viewBox="0 0 288 120" xmlns="http://www.w3.org/2000/svg" version="1.1">
<desc id="nav-meta">{"window":"3m","count":4,"labels":["27.02","29.03","27.04","27.05"],"tick_utc":["2026-02-27T03:18:03Z","2026-03-29T03:47:09Z","2026-04-27T04:22:02Z","2026-05-27T05:03:21Z"],"w":720,"h":300}</desc>

 <metadata>
  <rdf:RDF xmlns:dc="http://purl.org/dc/elements/1.1/" xmlns:cc="http://creativecommons.org/ns#" xmlns:rdf="http://www.w3.org/1999/02/22-rdf-syntax-ns#">
   <cc:Work>
    <dc:type rdf:resource="http://purl.org/dc/dcmitype/StillImage"/>
    <dc:date>2026-05-27T10:41:25.108751</dc:date>
    <dc:format>image/svg+xml</dc:format>
    <dc:creator>
     <cc:Agent>
      <dc:title>Matplotlib v3.10.9, https://matplotlib.org/</dc:title>
     </cc:Agent>
    </dc:creator>
   </cc:Work>
  </rdf:RDF>
 </metadata>
 <defs>
  <style type="text/css">*{stroke-linejoin: round; stroke-linecap: butt}</style>
 </defs>
 <g id="figure_1">
  <g id="patch_1">
   <path d="M 0 120 
L 288 120 
L 288 0 
L 0 0 
L 0 120 
z
" style="fill: none; opacity: 0"/>
  </g>
  <g id="axes_1">
   <g id="patch_2">
    <path d="M 8.64 108 
L 279.36 108 
L 279.36 4.8 
L 8.64 4.8 
L 8.64 108 
z
" style="fill: none"/>
   </g>
   <g id="matplotlib.axis_1"/>
   <g id="matplotlib.axis_2"/>
   <g id="line2d_1">
    <path d="M 8.64 87.36 
L 279.36 87.36 
" clip-path="url(#pb810dfe12e)" style="fill: none; stroke: #b2b2b2; stroke-opacity: 0.35; stroke-width: 0.5; stroke-linecap: square"/>
   </g>
   <g id="line2d_2">
    <path d="M 8.64 66.72 
L 279.36 66.72 
" clip-path="url(#pb810dfe12e)" style="fill: none; stroke: #b2b2b2; stroke-opacity: 0.35; stroke-width: 0.5; stroke-linecap: square"/>
   </g>
   <g id="line2d_3">
    <path d="M 8.64 46.08 
L 279.36 46.08 
" clip-path="url(#pb810dfe12e)" style="fill: none; stroke: #b2b2b2; stroke-opacity: 0.35; stroke-width: 0.5; stroke-linecap: square"/>
   </g>
   <g id="line2d_4">
    <path d="M 8.64 25.44 
L 279.36 25.44 
" clip-path="url(#pb810dfe12e)" style="fill: none; stroke: #b2b2b2; stroke-opacity: 0.35; stroke-width: 0.5; stroke-linecap: square"/>
   </g>
   <g id="line2d_5">
    <path d="M 8.64 100.80696 
L 11.64349 101.45712 
L 14.751843 100.55928 
L 17.759766 101.10624 
L 20.806137 100.8792 
L 23.828412 100.74504 
L 26.874256 100.21872 
L 29.912114 100.53864 
L 32.928092 101.07528 
L 35.996906 101.38488 
L 39.045318 101.26104 
L 42.065095 100.78632 
L 45.1032 100.91016 
L 48.15446 100.99272 
L 51.187886 100.38384 
L 54.223142 100.50768 
L 57.32059 100.60056 
L 60.368474 99.76464 
L 63.354586 99.49632 
L 66.417069 99.40344 
L 69.457214 100.09488 
L 72.46693 100.3632 
L 75.488431 100.19808 
L 78.573181 100.47672 
L 81.619622 100.79664 
L 84.630781 100.26 
L 87.896446 99.83688 
L 90.746353 100.13616 
L 93.789488 100.80696 
L 96.799732 101.38488 
L 99.880436 101.3436 
L 102.928426 101.292 
L 105.948555 101.28168 
L 109.013922 101.28168 
L 112.013191 101.8596 
L 115.055974 101.88024 
L 118.069243 101.72544 
L 121.154309 101.68416 
L 124.201454 101.47776 
L 127.221021 101.78736 
L 130.265246 101.09592 
L 133.293958 101.46744 
L 136.361225 101.3436 
L 139.354056 101.05464 
L 142.447881 101.3952 
L 145.502765 101.47776 
L 148.522718 100.86888 
L 151.559697 101.26104 
L 154.612154 100.99272 
L 157.645264 100.61088 
L 160.65104 100.44576 
L 163.730478 100.94112 
L 166.777306 101.09592 
L 169.803275 101.00304 
L 172.833148 100.69344 
L 175.884761 100.9308 
L 178.932117 100.92048 
L 181.93515 100.81728 
L 185.021728 100.8792 
L 188.093779 100.64184 
L 191.139446 101.1888 
L 194.170445 101.09592 
L 197.214846 101.37456 
L 200.287354 101.21976 
L 203.249089 101.20944 
L 206.35009 101.23008 
L 209.388336 100.92048 
L 212.360694 101.06496 
L 215.453534 100.70376 
L 218.493644 100.55928 
L 221.48236 100.53864 
L 224.532776 99.60984 
L 227.63332 99.72336 
L 230.696612 99.44472 
L 233.6937 99.25896 
L 236.747458 99.32088 
L 239.783382 100.22904 
L 242.837668 100.01232 
L 245.838168 100.43544 
L 248.922847 100.75536 
L 251.991661 101.02368 
L 255.009187 101.02368 
L 258.059357 101.17848 
L 261.115965 100.7244 
L 264.131978 100.75536 
L 267.129524 101.11656 
L 270.216947 100.91016 
L 273.296244 100.89984 
L 276.289497 101.1372 
L 279.36 101.2404 
" clip-path="url(#pb810dfe12e)" style="fill: none; stroke: #bebebe; stroke-width: 0.5; stroke-linecap: round"/>
   </g>
   <g id="line2d_6">
    <path d="M 8.64 89.56848 
L 11.64349 90.93072 
L 14.751843 89.41368 
L 17.759766 90.37344 
L 20.806137 89.79552 
L 23.828412 90.23928 
L 26.874256 88.0824 
L 29.912114 88.7532 
L 32.928092 90.16704 
L 35.996906 90.67272 
L 39.045318 90.18768 
L 42.065095 89.2692 
L 45.1032 89.54784 
L 48.15446 89.49624 
L 51.187886 88.31976 
L 54.223142 88.45392 
L 57.32059 88.46424 
L 60.368474 86.38992 
L 63.354586 84.80064 
L 66.417069 84.8316 
L 69.457214 86.586 
L 72.46693 87.74184 
L 75.488431 87.618 
L 78.573181 88.19592 
L 81.619622 89.08344 
L 84.630781 87.89664 
L 87.896446 87.3084 
L 90.746353 87.65928 
L 93.789488 88.96992 
L 96.799732 90.07416 
L 99.880436 89.76456 
L 102.928426 89.3724 
L 105.948555 89.00088 
L 109.013922 88.42296 
L 112.013191 88.81512 
L 115.055974 89.10408 
L 118.069243 89.14536 
L 121.154309 89.07312 
L 124.201454 87.9792 
L 127.221021 88.29912 
L 130.265246 86.38992 
L 133.293958 87.24648 
L 136.361225 87.1536 
L 139.354056 86.21448 
L 142.447881 86.66856 
L 145.502765 87.01944 
L 148.522718 84.44976 
L 151.559697 85.05864 
L 154.612154 84.58392 
L 157.645264 85.04832 
L 160.65104 83.71704 
L 163.730478 84.86256 
L 166.777306 85.6572 
L 169.803275 85.27536 
L 172.833148 84.49104 
L 175.884761 84.86256 
L 178.932117 85.32696 
L 181.93515 85.17216 
L 185.021728 85.31664 
L 188.093779 84.11952 
L 191.139446 85.66752 
L 194.170445 85.26504 
L 197.214846 86.26608 
L 200.287354 85.77072 
L 203.249089 85.38888 
L 206.35009 85.3992 
L 209.388336 84.09888 
L 212.360694 84.22272 
L 215.453534 84.34656 
L 218.493644 85.06896 
L 221.48236 85.7604 
L 224.532776 85.0896 
L 227.63332 85.01736 
L 230.696612 84.9348 
L 233.6937 85.296 
L 236.747458 85.35792 
L 239.783382 86.1732 
L 242.837668 85.92552 
L 245.838168 86.55504 
L 248.922847 87.13296 
L 251.991661 88.10304 
L 255.009187 87.9276 
L 258.059357 88.26816 
L 261.115965 87.78312 
L 264.131978 87.95856 
L 267.129524 88.94928 
L 270.216947 88.14432 
L 273.296244 88.33008 
L 276.289497 88.52616 
L 279.36 88.86672 
" clip-path="url(#pb810dfe12e)" style="fill: none; stroke: #4a8dff; stroke-width: 0.6"/>
   </g>
   <g id="line2d_7">
    <path d="M 8.64 101.12688 
L 11.64349 101.4468 
L 14.751843 101.02368 
L 17.759766 101.30232 
L 20.806137 100.81728 
L 23.828412 100.79664 
L 26.874256 99.3312 
L 29.912114 99.92976 
L 32.928092 100.78632 
L 35.996906 101.17848 
L 39.045318 101.1372 
L 42.065095 100.21872 
L 45.1032 100.37352 
L 48.15446 100.4664 
L 51.187886 99.88848 
L 54.223142 99.94008 
L 57.32059 99.81624 
L 60.368474 98.93904 
L 63.354586 98.3508 
L 66.417069 98.52624 
L 69.457214 99.78528 
L 72.46693 100.12584 
L 75.488431 100.03296 
L 78.573181 100.45608 
L 81.619622 100.83792 
L 84.630781 100.11552 
L 87.896446 99.87816 
L 90.746353 100.002 
L 93.789488 100.64184 
L 96.799732 101.41584 
L 99.880436 101.21976 
L 102.928426 101.14752 
L 105.948555 101.00304 
L 109.013922 100.86888 
L 112.013191 101.21976 
L 115.055974 101.28168 
L 118.069243 101.20944 
L 121.154309 101.14752 
L 124.201454 100.55928 
L 127.221021 100.65216 
L 130.265246 99.80592 
L 133.293958 99.96072 
L 136.361225 99.6408 
L 139.354056 99.1764 
L 142.447881 99.70272 
L 145.502765 99.94008 
L 148.522718 98.57784 
L 151.559697 98.65008 
L 154.612154 98.38176 
L 157.645264 98.48496 
L 160.65104 96.70992 
L 163.730478 98.05152 
L 166.777306 98.48496 
L 169.803275 97.96896 
L 172.833148 96.32808 
L 175.884761 96.20424 
L 178.932117 96.16296 
L 181.93515 96.1836 
L 185.021728 96.50352 
L 188.093779 94.76976 
L 191.139446 97.19496 
L 194.170445 96.9576 
L 197.214846 97.9896 
L 200.287354 96.89568 
L 203.249089 95.45088 
L 206.35009 95.67792 
L 209.388336 93.43848 
L 212.360694 92.90184 
L 215.453534 92.25168 
L 218.493644 92.87088 
L 221.48236 94.2744 
L 224.532776 93.1392 
L 227.63332 92.97408 
L 230.696612 92.9844 
L 233.6937 92.60256 
L 236.747458 92.53032 
L 239.783382 94.54272 
L 242.837668 92.85024 
L 245.838168 94.82136 
L 248.922847 95.75016 
L 251.991661 96.97824 
L 255.009187 97.08144 
L 258.059357 97.23624 
L 261.115965 95.94624 
L 264.131978 96.30744 
L 267.129524 98.08248 
L 270.216947 97.2672 
L 273.296244 96.61704 
L 276.289497 97.23624 
L 279.36 98.08248 
" clip-path="url(#pb810dfe12e)" style="fill: none; stroke: #f5841e; stroke-width: 0.6"/>
   </g>
  </g>
 </g>
 <defs>
  <clipPath id="pb810dfe12e">
   <rect x="8.64" y="4.8" width="270.72" height="103.2"/>
  </clipPath>
 </defs>
</svg>
