<?xml version="1.0" encoding="utf-8" standalone="no"?>
<!DOCTYPE svg PUBLIC "-//W3C//DTD SVG 1.1//EN"
  "http://www.w3.org/Graphics/SVG/1.1/DTD/svg11.dtd">
<svg xmlns:xlink="http://www.w3.org/1999/xlink" width="288pt" height="120pt" viewBox="0 0 288 120" xmlns="http://www.w3.org/2000/svg" version="1.1">
<desc id="nav-meta">{"window":"3m","count":4,"labels":["31.12","30.01","28.02","30.03"],"tick_utc":["2025-12-31T12:00:00Z","2026-01-30T12:00:00Z","2026-02-28T03:01:05Z","2026-03-30T03:51:16Z"],"w":720,"h":300}</desc>

 <metadata>
  <rdf:RDF xmlns:dc="http://purl.org/dc/elements/1.1/" xmlns:cc="http://creativecommons.org/ns#" xmlns:rdf="http://www.w3.org/1999/02/22-rdf-syntax-ns#">
   <cc:Work>
    <dc:type rdf:resource="http://purl.org/dc/dcmitype/StillImage"/>
    <dc:date>2026-03-30T14:10:58.112366</dc:date>
    <dc:format>image/svg+xml</dc:format>
    <dc:creator>
     <cc:Agent>
      <dc:title>Matplotlib v3.10.8, https://matplotlib.org/</dc:title>
     </cc:Agent>
    </dc:creator>
   </cc:Work>
  </rdf:RDF>
 </metadata>
 <defs>
  <style type="text/css">*{stroke-linejoin: round; stroke-linecap: butt}</style>
 </defs>
 <g id="figure_1">
  <g id="patch_1">
   <path d="M 0 120 
L 288 120 
L 288 0 
L 0 0 
L 0 120 
z
" style="fill: none; opacity: 0"/>
  </g>
  <g id="axes_1">
   <g id="patch_2">
    <path d="M 8.64 108 
L 279.36 108 
L 279.36 4.8 
L 8.64 4.8 
L 8.64 108 
z
" style="fill: none"/>
   </g>
   <g id="matplotlib.axis_1"/>
   <g id="matplotlib.axis_2"/>
   <g id="line2d_1">
    <path d="M 8.64 87.36 
L 279.36 87.36 
" clip-path="url(#pe274d4402b)" style="fill: none; stroke: #b2b2b2; stroke-opacity: 0.35; stroke-width: 0.5; stroke-linecap: square"/>
   </g>
   <g id="line2d_2">
    <path d="M 8.64 66.72 
L 279.36 66.72 
" clip-path="url(#pe274d4402b)" style="fill: none; stroke: #b2b2b2; stroke-opacity: 0.35; stroke-width: 0.5; stroke-linecap: square"/>
   </g>
   <g id="line2d_3">
    <path d="M 8.64 46.08 
L 279.36 46.08 
" clip-path="url(#pe274d4402b)" style="fill: none; stroke: #b2b2b2; stroke-opacity: 0.35; stroke-width: 0.5; stroke-linecap: square"/>
   </g>
   <g id="line2d_4">
    <path d="M 8.64 25.44 
L 279.36 25.44 
" clip-path="url(#pe274d4402b)" style="fill: none; stroke: #b2b2b2; stroke-opacity: 0.35; stroke-width: 0.5; stroke-linecap: square"/>
   </g>
   <g id="line2d_5">
    <path d="M 8.64 92.38584 
L 11.693442 92.47872 
L 14.746884 91.88016 
L 17.800326 90.42504 
L 20.853768 90.08448 
L 23.90721 89.92968 
L 26.960652 88.76352 
L 30.014094 87.94824 
L 33.067536 89.2692 
L 36.120977 88.72224 
L 39.174419 89.39304 
L 42.227861 89.40336 
L 45.281303 88.41264 
L 48.334745 88.4952 
L 51.388187 86.86464 
L 54.441629 86.42088 
L 57.495071 87.62832 
L 60.548513 86.93688 
L 63.601955 87.23616 
L 66.655397 88.63968 
L 69.708839 90.0432 
L 72.762281 92.12784 
L 75.815723 91.16808 
L 78.869165 91.46736 
L 81.922607 91.73568 
L 84.976048 91.78728 
L 88.02949 94.0164 
L 91.082932 92.5716 
L 94.136374 91.76664 
L 97.189816 92.33424 
L 100.243258 94.36728 
L 103.2967 94.46016 
L 106.350142 97.71096 
L 109.403584 98.48496 
L 112.457026 97.85544 
L 115.034817 99.10416 
L 117.461349 100.16712 
L 120.513236 102.23112 
L 123.553601 100.54896 
L 126.676841 100.70376 
L 129.705085 100.68312 
L 132.77595 100.95144 
L 135.823066 101.28168 
L 138.865517 101.71512 
L 141.91804 101.84928 
L 144.934763 101.034 
L 147.827087 100.54896 
L 151.076387 101.04432 
L 153.746276 100.81728 
L 157.178429 101.034 
L 160.22816 101.4984 
L 163.263755 101.33328 
L 166.298537 101.1372 
L 169.386861 101.06496 
L 172.449491 102.09696 
L 175.244981 102.05568 
L 178.545384 101.4984 
L 181.58522 100.60056 
L 184.632866 100.80696 
L 187.650331 101.45712 
L 190.773147 100.55928 
L 193.795065 101.10624 
L 196.85561 100.8792 
L 199.891947 100.74504 
L 202.951962 100.21872 
L 206.003955 100.53864 
L 209.033966 101.07528 
L 212.117059 101.38488 
L 215.179654 101.26104 
L 218.213482 100.78632 
L 221.265723 100.91016 
L 224.33118 100.99272 
L 227.37872 100.38384 
L 230.428098 100.50768 
L 233.539958 100.60056 
L 236.602023 99.76464 
L 239.60203 99.49632 
L 242.678762 99.40344 
L 245.733052 100.09488 
L 248.756772 100.3632 
L 251.792332 100.19808 
L 254.891434 100.47672 
L 257.95205 100.79664 
L 260.977219 100.26 
L 264.258079 99.83688 
L 267.121246 100.13616 
L 270.17854 100.80696 
L 273.202791 101.38488 
L 276.297829 101.3436 
L 279.36 101.292 
" clip-path="url(#pe274d4402b)" style="fill: none; stroke: #bebebe; stroke-width: 0.5; stroke-linecap: round"/>
   </g>
   <g id="line2d_6">
    <path d="M 8.64 75.51264 
L 11.693442 75.56424 
L 14.746884 75.05856 
L 17.800326 73.26288 
L 20.853768 73.20096 
L 23.90721 73.00488 
L 26.960652 71.68392 
L 30.014094 70.6932 
L 33.067536 72.62304 
L 36.120977 73.52088 
L 39.174419 73.83048 
L 42.227861 73.8408 
L 45.281303 73.29384 
L 48.334745 73.72728 
L 51.388187 70.32168 
L 54.441629 69.77472 
L 57.495071 70.34232 
L 60.548513 70.67256 
L 63.601955 70.51776 
L 66.655397 70.848 
L 69.708839 72.31344 
L 72.762281 76.01832 
L 75.815723 75.41976 
L 78.869165 75.83256 
L 81.922607 75.79128 
L 84.976048 75.82224 
L 88.02949 77.82432 
L 91.082932 76.14216 
L 94.136374 74.75928 
L 97.189816 74.96568 
L 100.243258 77.75208 
L 103.2967 79.48584 
L 106.350142 83.31456 
L 109.403584 85.90488 
L 112.457026 84.79032 
L 115.034817 85.84296 
L 117.461349 88.25784 
L 120.513236 91.41576 
L 123.553601 88.7532 
L 126.676841 88.65 
L 129.705085 88.55712 
L 132.77595 88.96992 
L 135.823066 89.7336 
L 138.865517 90.456 
L 141.91804 90.56952 
L 144.934763 89.15568 
L 147.827087 88.9596 
L 151.076387 90.6624 
L 153.746276 89.94 
L 157.178429 90.00192 
L 160.22816 90.3528 
L 163.263755 90.62112 
L 166.298537 90.5076 
L 169.386861 90.3528 
L 172.449491 92.004 
L 175.244981 92.13816 
L 178.545384 91.25064 
L 181.58522 89.166 
L 184.632866 89.56848 
L 187.650331 90.93072 
L 190.773147 89.41368 
L 193.795065 90.37344 
L 196.85561 89.79552 
L 199.891947 90.23928 
L 202.951962 88.0824 
L 206.003955 88.7532 
L 209.033966 90.16704 
L 212.117059 90.67272 
L 215.179654 90.18768 
L 218.213482 89.2692 
L 221.265723 89.54784 
L 224.33118 89.49624 
L 227.37872 88.31976 
L 230.428098 88.45392 
L 233.539958 88.46424 
L 236.602023 86.38992 
L 239.60203 84.80064 
L 242.678762 84.8316 
L 245.733052 86.586 
L 248.756772 87.74184 
L 251.792332 87.618 
L 254.891434 88.19592 
L 257.95205 89.08344 
L 260.977219 87.89664 
L 264.258079 87.3084 
L 267.121246 87.65928 
L 270.17854 88.96992 
L 273.202791 90.07416 
L 276.297829 89.76456 
L 279.36 89.3724 
" clip-path="url(#pe274d4402b)" style="fill: none; stroke: #4a8dff; stroke-width: 0.6"/>
   </g>
   <g id="line2d_7">
    <path d="M 8.64 85.09992 
L 11.693442 86.02872 
L 14.746884 84.78 
L 17.800326 83.53128 
L 20.853768 82.83984 
L 23.90721 82.03488 
L 26.960652 79.39296 
L 30.014094 79.66128 
L 33.067536 82.15872 
L 36.120977 82.43736 
L 39.174419 82.93272 
L 42.227861 83.00496 
L 45.281303 82.6128 
L 48.334745 82.28256 
L 51.388187 78.01008 
L 54.441629 76.19376 
L 57.495071 77.66952 
L 60.548513 77.74176 
L 63.601955 78.1752 
L 66.655397 79.5684 
L 69.708839 80.8068 
L 72.762281 85.20312 
L 75.815723 84.12984 
L 78.869165 84.03696 
L 81.922607 84.06792 
L 84.976048 84.3156 
L 88.02949 87.02976 
L 91.082932 85.21344 
L 94.136374 84.28464 
L 97.189816 84.32592 
L 100.243258 89.08344 
L 103.2967 89.5272 
L 106.350142 95.14128 
L 109.403584 96.98856 
L 112.457026 95.08968 
L 115.034817 97.71096 
L 117.461349 99.80592 
L 120.513236 101.79768 
L 123.553601 100.03296 
L 126.676841 100.518 
L 129.705085 99.98136 
L 132.77595 100.49736 
L 135.823066 100.78632 
L 138.865517 101.07528 
L 141.91804 101.26104 
L 144.934763 100.63152 
L 147.827087 100.38384 
L 151.076387 100.84824 
L 153.746276 100.65216 
L 157.178429 101.034 
L 160.22816 101.19912 
L 163.263755 101.10624 
L 166.298537 100.97208 
L 169.386861 100.91016 
L 172.449491 101.7564 
L 175.244981 101.84928 
L 178.545384 101.56032 
L 181.58522 100.85856 
L 184.632866 101.12688 
L 187.650331 101.4468 
L 190.773147 101.02368 
L 193.795065 101.30232 
L 196.85561 100.81728 
L 199.891947 100.79664 
L 202.951962 99.3312 
L 206.003955 99.92976 
L 209.033966 100.78632 
L 212.117059 101.17848 
L 215.179654 101.1372 
L 218.213482 100.21872 
L 221.265723 100.37352 
L 224.33118 100.4664 
L 227.37872 99.88848 
L 230.428098 99.94008 
L 233.539958 99.81624 
L 236.602023 98.93904 
L 239.60203 98.3508 
L 242.678762 98.52624 
L 245.733052 99.78528 
L 248.756772 100.12584 
L 251.792332 100.03296 
L 254.891434 100.45608 
L 257.95205 100.83792 
L 260.977219 100.11552 
L 264.258079 99.87816 
L 267.121246 100.002 
L 270.17854 100.64184 
L 273.202791 101.41584 
L 276.297829 101.21976 
L 279.36 101.14752 
" clip-path="url(#pe274d4402b)" style="fill: none; stroke: #f5841e; stroke-width: 0.6"/>
   </g>
  </g>
 </g>
 <defs>
  <clipPath id="pe274d4402b">
   <rect x="8.64" y="4.8" width="270.72" height="103.2"/>
  </clipPath>
 </defs>
</svg>
