<?xml version="1.0" encoding="utf-8" standalone="no"?>
<!DOCTYPE svg PUBLIC "-//W3C//DTD SVG 1.1//EN"
  "http://www.w3.org/Graphics/SVG/1.1/DTD/svg11.dtd">
<svg xmlns:xlink="http://www.w3.org/1999/xlink" width="288pt" height="120pt" viewBox="0 0 288 120" xmlns="http://www.w3.org/2000/svg" version="1.1">
<desc id="nav-meta">{"window":"3m","count":4,"labels":["03.03","02.04","01.05","31.05"],"tick_utc":["2026-03-03T03:22:17Z","2026-04-02T03:35:34Z","2026-05-01T04:39:16Z","2026-05-31T05:08:27Z"],"w":720,"h":300}</desc>

 <metadata>
  <rdf:RDF xmlns:dc="http://purl.org/dc/elements/1.1/" xmlns:cc="http://creativecommons.org/ns#" xmlns:rdf="http://www.w3.org/1999/02/22-rdf-syntax-ns#">
   <cc:Work>
    <dc:type rdf:resource="http://purl.org/dc/dcmitype/StillImage"/>
    <dc:date>2026-05-31T09:36:26.862091</dc:date>
    <dc:format>image/svg+xml</dc:format>
    <dc:creator>
     <cc:Agent>
      <dc:title>Matplotlib v3.10.9, https://matplotlib.org/</dc:title>
     </cc:Agent>
    </dc:creator>
   </cc:Work>
  </rdf:RDF>
 </metadata>
 <defs>
  <style type="text/css">*{stroke-linejoin: round; stroke-linecap: butt}</style>
 </defs>
 <g id="figure_1">
  <g id="patch_1">
   <path d="M 0 120 
L 288 120 
L 288 0 
L 0 0 
L 0 120 
z
" style="fill: none; opacity: 0"/>
  </g>
  <g id="axes_1">
   <g id="patch_2">
    <path d="M 8.64 108 
L 279.36 108 
L 279.36 4.8 
L 8.64 4.8 
L 8.64 108 
z
" style="fill: none"/>
   </g>
   <g id="matplotlib.axis_1"/>
   <g id="matplotlib.axis_2"/>
   <g id="line2d_1">
    <path d="M 8.64 87.36 
L 279.36 87.36 
" clip-path="url(#p0b11724235)" style="fill: none; stroke: #b2b2b2; stroke-opacity: 0.35; stroke-width: 0.5; stroke-linecap: square"/>
   </g>
   <g id="line2d_2">
    <path d="M 8.64 66.72 
L 279.36 66.72 
" clip-path="url(#p0b11724235)" style="fill: none; stroke: #b2b2b2; stroke-opacity: 0.35; stroke-width: 0.5; stroke-linecap: square"/>
   </g>
   <g id="line2d_3">
    <path d="M 8.64 46.08 
L 279.36 46.08 
" clip-path="url(#p0b11724235)" style="fill: none; stroke: #b2b2b2; stroke-opacity: 0.35; stroke-width: 0.5; stroke-linecap: square"/>
   </g>
   <g id="line2d_4">
    <path d="M 8.64 25.44 
L 279.36 25.44 
" clip-path="url(#p0b11724235)" style="fill: none; stroke: #b2b2b2; stroke-opacity: 0.35; stroke-width: 0.5; stroke-linecap: square"/>
   </g>
   <g id="line2d_5">
    <path d="M 8.64 100.8792 
L 11.662254 100.74504 
L 14.708077 100.21872 
L 17.745915 100.53864 
L 20.761873 101.07528 
L 23.830666 101.38488 
L 26.879057 101.26104 
L 29.898814 100.78632 
L 32.936898 100.91016 
L 35.988138 100.99272 
L 39.021544 100.38384 
L 42.056778 100.50768 
L 45.154206 100.60056 
L 48.202069 99.76464 
L 51.188162 99.49632 
L 54.250623 99.40344 
L 57.290748 100.09488 
L 60.300444 100.3632 
L 63.321924 100.19808 
L 66.406653 100.47672 
L 69.453074 100.79664 
L 72.464212 100.26 
L 75.729856 99.83688 
L 78.579743 100.13616 
L 81.622858 100.80696 
L 84.633082 101.38488 
L 87.713765 101.3436 
L 90.761734 101.292 
L 93.781842 101.28168 
L 96.847188 101.28168 
L 99.846437 101.8596 
L 102.8892 101.88024 
L 105.902449 101.72544 
L 108.987494 101.68416 
L 112.034618 101.47776 
L 115.054164 101.78736 
L 118.098369 101.09592 
L 121.127061 101.46744 
L 124.194306 101.3436 
L 127.187118 101.05464 
L 130.280922 101.3952 
L 133.335785 101.47776 
L 136.355718 100.86888 
L 139.392677 101.26104 
L 142.445113 100.99272 
L 145.478202 100.61088 
L 148.483958 100.44576 
L 151.563375 100.94112 
L 154.610183 101.09592 
L 157.636131 101.00304 
L 160.665984 100.69344 
L 163.717575 100.9308 
L 166.764911 100.92048 
L 169.767924 100.81728 
L 172.854481 100.8792 
L 175.926511 100.64184 
L 178.972158 101.1888 
L 182.003136 101.09592 
L 185.047517 101.37456 
L 188.120004 101.21976 
L 191.081719 101.20944 
L 194.182699 101.23008 
L 197.220924 100.92048 
L 200.193263 101.06496 
L 203.286082 100.70376 
L 206.326171 100.55928 
L 209.314867 100.53864 
L 212.365263 99.60984 
L 215.465786 99.72336 
L 218.529056 99.44472 
L 221.526124 99.25896 
L 224.579862 99.32088 
L 227.615765 100.22904 
L 230.67003 100.01232 
L 233.67051 100.43544 
L 236.755168 100.75536 
L 239.823962 101.02368 
L 242.841467 101.02368 
L 245.891617 101.17848 
L 248.948204 100.7244 
L 251.964197 100.75536 
L 254.961722 101.11656 
L 258.049124 100.91016 
L 261.1284 100.89984 
L 264.121634 101.1372 
L 267.192116 101.2404 
L 270.221687 101.6532 
L 273.263218 101.4984 
L 276.258668 101.48808 
L 279.36 101.32296 
" clip-path="url(#p0b11724235)" style="fill: none; stroke: #bebebe; stroke-width: 0.5; stroke-linecap: round"/>
   </g>
   <g id="line2d_6">
    <path d="M 8.64 89.79552 
L 11.662254 90.23928 
L 14.708077 88.0824 
L 17.745915 88.7532 
L 20.761873 90.16704 
L 23.830666 90.67272 
L 26.879057 90.18768 
L 29.898814 89.2692 
L 32.936898 89.54784 
L 35.988138 89.49624 
L 39.021544 88.31976 
L 42.056778 88.45392 
L 45.154206 88.46424 
L 48.202069 86.38992 
L 51.188162 84.80064 
L 54.250623 84.8316 
L 57.290748 86.586 
L 60.300444 87.74184 
L 63.321924 87.618 
L 66.406653 88.19592 
L 69.453074 89.08344 
L 72.464212 87.89664 
L 75.729856 87.3084 
L 78.579743 87.65928 
L 81.622858 88.96992 
L 84.633082 90.07416 
L 87.713765 89.76456 
L 90.761734 89.3724 
L 93.781842 89.00088 
L 96.847188 88.42296 
L 99.846437 88.81512 
L 102.8892 89.10408 
L 105.902449 89.14536 
L 108.987494 89.07312 
L 112.034618 87.9792 
L 115.054164 88.29912 
L 118.098369 86.38992 
L 121.127061 87.24648 
L 124.194306 87.1536 
L 127.187118 86.21448 
L 130.280922 86.66856 
L 133.335785 87.01944 
L 136.355718 84.44976 
L 139.392677 85.05864 
L 142.445113 84.58392 
L 145.478202 85.04832 
L 148.483958 83.71704 
L 151.563375 84.86256 
L 154.610183 85.6572 
L 157.636131 85.27536 
L 160.665984 84.49104 
L 163.717575 84.86256 
L 166.764911 85.32696 
L 169.767924 85.17216 
L 172.854481 85.31664 
L 175.926511 84.11952 
L 178.972158 85.66752 
L 182.003136 85.26504 
L 185.047517 86.26608 
L 188.120004 85.77072 
L 191.081719 85.38888 
L 194.182699 85.3992 
L 197.220924 84.09888 
L 200.193263 84.22272 
L 203.286082 84.34656 
L 206.326171 85.06896 
L 209.314867 85.7604 
L 212.365263 85.0896 
L 215.465786 85.01736 
L 218.529056 84.9348 
L 221.526124 85.296 
L 224.579862 85.35792 
L 227.615765 86.1732 
L 230.67003 85.92552 
L 233.67051 86.55504 
L 236.755168 87.13296 
L 239.823962 88.10304 
L 242.841467 87.9276 
L 245.891617 88.26816 
L 248.948204 87.78312 
L 251.964197 87.95856 
L 254.961722 88.94928 
L 258.049124 88.14432 
L 261.1284 88.33008 
L 264.121634 88.52616 
L 267.192116 88.86672 
L 270.221687 90.22896 
L 273.263218 89.82648 
L 276.258668 89.87808 
L 279.36 89.46528 
" clip-path="url(#p0b11724235)" style="fill: none; stroke: #4a8dff; stroke-width: 0.6"/>
   </g>
   <g id="line2d_7">
    <path d="M 8.64 100.81728 
L 11.662254 100.79664 
L 14.708077 99.3312 
L 17.745915 99.92976 
L 20.761873 100.78632 
L 23.830666 101.17848 
L 26.879057 101.1372 
L 29.898814 100.21872 
L 32.936898 100.37352 
L 35.988138 100.4664 
L 39.021544 99.88848 
L 42.056778 99.94008 
L 45.154206 99.81624 
L 48.202069 98.93904 
L 51.188162 98.3508 
L 54.250623 98.52624 
L 57.290748 99.78528 
L 60.300444 100.12584 
L 63.321924 100.03296 
L 66.406653 100.45608 
L 69.453074 100.83792 
L 72.464212 100.11552 
L 75.729856 99.87816 
L 78.579743 100.002 
L 81.622858 100.64184 
L 84.633082 101.41584 
L 87.713765 101.21976 
L 90.761734 101.14752 
L 93.781842 101.00304 
L 96.847188 100.86888 
L 99.846437 101.21976 
L 102.8892 101.28168 
L 105.902449 101.20944 
L 108.987494 101.14752 
L 112.034618 100.55928 
L 115.054164 100.65216 
L 118.098369 99.80592 
L 121.127061 99.96072 
L 124.194306 99.6408 
L 127.187118 99.1764 
L 130.280922 99.70272 
L 133.335785 99.94008 
L 136.355718 98.57784 
L 139.392677 98.65008 
L 142.445113 98.38176 
L 145.478202 98.48496 
L 148.483958 96.70992 
L 151.563375 98.05152 
L 154.610183 98.48496 
L 157.636131 97.96896 
L 160.665984 96.32808 
L 163.717575 96.20424 
L 166.764911 96.16296 
L 169.767924 96.1836 
L 172.854481 96.50352 
L 175.926511 94.76976 
L 178.972158 97.19496 
L 182.003136 96.9576 
L 185.047517 97.9896 
L 188.120004 96.89568 
L 191.081719 95.45088 
L 194.182699 95.67792 
L 197.220924 93.43848 
L 200.193263 92.90184 
L 203.286082 92.25168 
L 206.326171 92.87088 
L 209.314867 94.2744 
L 212.365263 93.1392 
L 215.465786 92.97408 
L 218.529056 92.9844 
L 221.526124 92.60256 
L 224.579862 92.53032 
L 227.615765 94.54272 
L 230.67003 92.85024 
L 233.67051 94.82136 
L 236.755168 95.75016 
L 239.823962 96.97824 
L 242.841467 97.08144 
L 245.891617 97.23624 
L 248.948204 95.94624 
L 251.964197 96.30744 
L 254.961722 98.08248 
L 258.049124 97.2672 
L 261.1284 96.61704 
L 264.121634 97.23624 
L 267.192116 98.08248 
L 270.221687 99.18672 
L 273.263218 99.03192 
L 276.258668 99.1248 
L 279.36 98.74296 
" clip-path="url(#p0b11724235)" style="fill: none; stroke: #f5841e; stroke-width: 0.6"/>
   </g>
  </g>
 </g>
 <defs>
  <clipPath id="p0b11724235">
   <rect x="8.64" y="4.8" width="270.72" height="103.2"/>
  </clipPath>
 </defs>
</svg>
