<?xml version="1.0" encoding="utf-8" standalone="no"?>
<!DOCTYPE svg PUBLIC "-//W3C//DTD SVG 1.1//EN"
  "http://www.w3.org/Graphics/SVG/1.1/DTD/svg11.dtd">
<svg xmlns:xlink="http://www.w3.org/1999/xlink" width="288pt" height="120pt" viewBox="0 0 288 120" xmlns="http://www.w3.org/2000/svg" version="1.1">
<desc id="nav-meta">{"window":"3m","count":4,"labels":["23.01","22.02","23.03","22.04"],"tick_utc":["2026-01-23T12:00:00Z","2026-02-22T03:28:03Z","2026-03-23T03:35:18Z","2026-04-22T03:51:39Z"],"w":720,"h":300}</desc>

 <metadata>
  <rdf:RDF xmlns:dc="http://purl.org/dc/elements/1.1/" xmlns:cc="http://creativecommons.org/ns#" xmlns:rdf="http://www.w3.org/1999/02/22-rdf-syntax-ns#">
   <cc:Work>
    <dc:type rdf:resource="http://purl.org/dc/dcmitype/StillImage"/>
    <dc:date>2026-04-22T19:49:51.105474</dc:date>
    <dc:format>image/svg+xml</dc:format>
    <dc:creator>
     <cc:Agent>
      <dc:title>Matplotlib v3.10.8, https://matplotlib.org/</dc:title>
     </cc:Agent>
    </dc:creator>
   </cc:Work>
  </rdf:RDF>
 </metadata>
 <defs>
  <style type="text/css">*{stroke-linejoin: round; stroke-linecap: butt}</style>
 </defs>
 <g id="figure_1">
  <g id="patch_1">
   <path d="M 0 120 
L 288 120 
L 288 0 
L 0 0 
L 0 120 
z
" style="fill: none; opacity: 0"/>
  </g>
  <g id="axes_1">
   <g id="patch_2">
    <path d="M 8.64 108 
L 279.36 108 
L 279.36 4.8 
L 8.64 4.8 
L 8.64 108 
z
" style="fill: none"/>
   </g>
   <g id="matplotlib.axis_1"/>
   <g id="matplotlib.axis_2"/>
   <g id="line2d_1">
    <path d="M 8.64 87.36 
L 279.36 87.36 
" clip-path="url(#p002bb69579)" style="fill: none; stroke: #b2b2b2; stroke-opacity: 0.35; stroke-width: 0.5; stroke-linecap: square"/>
   </g>
   <g id="line2d_2">
    <path d="M 8.64 66.72 
L 279.36 66.72 
" clip-path="url(#p002bb69579)" style="fill: none; stroke: #b2b2b2; stroke-opacity: 0.35; stroke-width: 0.5; stroke-linecap: square"/>
   </g>
   <g id="line2d_3">
    <path d="M 8.64 46.08 
L 279.36 46.08 
" clip-path="url(#p002bb69579)" style="fill: none; stroke: #b2b2b2; stroke-opacity: 0.35; stroke-width: 0.5; stroke-linecap: square"/>
   </g>
   <g id="line2d_4">
    <path d="M 8.64 25.44 
L 279.36 25.44 
" clip-path="url(#p002bb69579)" style="fill: none; stroke: #b2b2b2; stroke-opacity: 0.35; stroke-width: 0.5; stroke-linecap: square"/>
   </g>
   <g id="line2d_5">
    <path d="M 8.64 91.46736 
L 11.693433 91.73568 
L 14.746866 91.78728 
L 17.800298 94.0164 
L 20.853731 92.5716 
L 23.907164 91.76664 
L 26.960597 92.33424 
L 30.014029 94.36728 
L 33.067462 94.46016 
L 36.120895 97.71096 
L 39.174328 98.48496 
L 42.22776 97.85544 
L 44.805543 99.10416 
L 47.232068 100.16712 
L 50.283946 102.23112 
L 53.324303 100.54896 
L 56.447533 100.70376 
L 59.475768 100.68312 
L 62.546624 100.95144 
L 65.593731 101.28168 
L 68.636172 101.71512 
L 71.688686 101.84928 
L 74.7054 101.034 
L 77.597715 100.54896 
L 80.847006 101.04432 
L 83.516886 100.81728 
L 86.94903 101.034 
L 89.998752 101.4984 
L 93.034337 101.33328 
L 96.06911 101.1372 
L 99.157424 101.06496 
L 102.220045 102.09696 
L 105.015527 102.05568 
L 108.31592 101.4984 
L 111.355747 100.60056 
L 114.403384 100.80696 
L 117.42084 101.45712 
L 120.543646 100.55928 
L 123.565555 101.10624 
L 126.626091 100.8792 
L 129.662419 100.74504 
L 132.722425 100.21872 
L 135.774409 100.53864 
L 138.804411 101.07528 
L 141.887495 101.38488 
L 144.950081 101.26104 
L 147.983899 100.78632 
L 151.03613 100.91016 
L 154.101579 100.99272 
L 157.14911 100.38384 
L 160.198479 100.50768 
L 163.310329 100.60056 
L 166.372385 99.76464 
L 169.372383 99.49632 
L 172.449105 99.40344 
L 175.503386 100.09488 
L 178.527097 100.3632 
L 181.562648 100.19808 
L 184.661741 100.47672 
L 187.722348 100.79664 
L 190.747508 100.26 
L 194.028358 99.83688 
L 196.891517 100.13616 
L 199.948801 100.80696 
L 202.973043 101.38488 
L 206.068072 101.3436 
L 209.130233 101.292 
L 212.164406 101.28168 
L 215.244026 101.28168 
L 218.257241 101.8596 
L 221.314172 101.88024 
L 224.341453 101.72544 
L 227.440864 101.68416 
L 230.502178 101.47776 
L 233.535784 101.78736 
L 236.594165 101.09592 
L 239.63696 101.46744 
L 242.718489 101.3436 
L 245.725236 101.05464 
L 248.833447 101.3952 
L 251.902536 101.47776 
L 254.936531 100.86888 
L 257.987632 101.26104 
L 261.054282 100.99272 
L 264.101495 100.61088 
L 267.121248 100.44576 
L 270.215004 100.94112 
L 273.276 101.09592 
L 276.316039 101.00304 
L 279.36 100.69344 
" clip-path="url(#p002bb69579)" style="fill: none; stroke: #bebebe; stroke-width: 0.5; stroke-linecap: round"/>
   </g>
   <g id="line2d_6">
    <path d="M 8.64 75.83256 
L 11.693433 75.79128 
L 14.746866 75.82224 
L 17.800298 77.82432 
L 20.853731 76.14216 
L 23.907164 74.75928 
L 26.960597 74.96568 
L 30.014029 77.75208 
L 33.067462 79.48584 
L 36.120895 83.31456 
L 39.174328 85.90488 
L 42.22776 84.79032 
L 44.805543 85.84296 
L 47.232068 88.25784 
L 50.283946 91.41576 
L 53.324303 88.7532 
L 56.447533 88.65 
L 59.475768 88.55712 
L 62.546624 88.96992 
L 65.593731 89.7336 
L 68.636172 90.456 
L 71.688686 90.56952 
L 74.7054 89.15568 
L 77.597715 88.9596 
L 80.847006 90.6624 
L 83.516886 89.94 
L 86.94903 90.00192 
L 89.998752 90.3528 
L 93.034337 90.62112 
L 96.06911 90.5076 
L 99.157424 90.3528 
L 102.220045 92.004 
L 105.015527 92.13816 
L 108.31592 91.25064 
L 111.355747 89.166 
L 114.403384 89.56848 
L 117.42084 90.93072 
L 120.543646 89.41368 
L 123.565555 90.37344 
L 126.626091 89.79552 
L 129.662419 90.23928 
L 132.722425 88.0824 
L 135.774409 88.7532 
L 138.804411 90.16704 
L 141.887495 90.67272 
L 144.950081 90.18768 
L 147.983899 89.2692 
L 151.03613 89.54784 
L 154.101579 89.49624 
L 157.14911 88.31976 
L 160.198479 88.45392 
L 163.310329 88.46424 
L 166.372385 86.38992 
L 169.372383 84.80064 
L 172.449105 84.8316 
L 175.503386 86.586 
L 178.527097 87.74184 
L 181.562648 87.618 
L 184.661741 88.19592 
L 187.722348 89.08344 
L 190.747508 87.89664 
L 194.028358 87.3084 
L 196.891517 87.65928 
L 199.948801 88.96992 
L 202.973043 90.07416 
L 206.068072 89.76456 
L 209.130233 89.3724 
L 212.164406 89.00088 
L 215.244026 88.42296 
L 218.257241 88.81512 
L 221.314172 89.10408 
L 224.341453 89.14536 
L 227.440864 89.07312 
L 230.502178 87.9792 
L 233.535784 88.29912 
L 236.594165 86.38992 
L 239.63696 87.24648 
L 242.718489 87.1536 
L 245.725236 86.21448 
L 248.833447 86.66856 
L 251.902536 87.01944 
L 254.936531 84.44976 
L 257.987632 85.05864 
L 261.054282 84.58392 
L 264.101495 85.04832 
L 267.121248 83.71704 
L 270.215004 84.86256 
L 273.276 85.6572 
L 276.316039 85.27536 
L 279.36 84.49104 
" clip-path="url(#p002bb69579)" style="fill: none; stroke: #4a8dff; stroke-width: 0.6"/>
   </g>
   <g id="line2d_7">
    <path d="M 8.64 84.03696 
L 11.693433 84.06792 
L 14.746866 84.3156 
L 17.800298 87.02976 
L 20.853731 85.21344 
L 23.907164 84.28464 
L 26.960597 84.32592 
L 30.014029 89.08344 
L 33.067462 89.5272 
L 36.120895 95.14128 
L 39.174328 96.98856 
L 42.22776 95.08968 
L 44.805543 97.71096 
L 47.232068 99.80592 
L 50.283946 101.79768 
L 53.324303 100.03296 
L 56.447533 100.518 
L 59.475768 99.98136 
L 62.546624 100.49736 
L 65.593731 100.78632 
L 68.636172 101.07528 
L 71.688686 101.26104 
L 74.7054 100.63152 
L 77.597715 100.38384 
L 80.847006 100.84824 
L 83.516886 100.65216 
L 86.94903 101.034 
L 89.998752 101.19912 
L 93.034337 101.10624 
L 96.06911 100.97208 
L 99.157424 100.91016 
L 102.220045 101.7564 
L 105.015527 101.84928 
L 108.31592 101.56032 
L 111.355747 100.85856 
L 114.403384 101.12688 
L 117.42084 101.4468 
L 120.543646 101.02368 
L 123.565555 101.30232 
L 126.626091 100.81728 
L 129.662419 100.79664 
L 132.722425 99.3312 
L 135.774409 99.92976 
L 138.804411 100.78632 
L 141.887495 101.17848 
L 144.950081 101.1372 
L 147.983899 100.21872 
L 151.03613 100.37352 
L 154.101579 100.4664 
L 157.14911 99.88848 
L 160.198479 99.94008 
L 163.310329 99.81624 
L 166.372385 98.93904 
L 169.372383 98.3508 
L 172.449105 98.52624 
L 175.503386 99.78528 
L 178.527097 100.12584 
L 181.562648 100.03296 
L 184.661741 100.45608 
L 187.722348 100.83792 
L 190.747508 100.11552 
L 194.028358 99.87816 
L 196.891517 100.002 
L 199.948801 100.64184 
L 202.973043 101.41584 
L 206.068072 101.21976 
L 209.130233 101.14752 
L 212.164406 101.00304 
L 215.244026 100.86888 
L 218.257241 101.21976 
L 221.314172 101.28168 
L 224.341453 101.20944 
L 227.440864 101.14752 
L 230.502178 100.55928 
L 233.535784 100.65216 
L 236.594165 99.80592 
L 239.63696 99.96072 
L 242.718489 99.6408 
L 245.725236 99.1764 
L 248.833447 99.70272 
L 251.902536 99.94008 
L 254.936531 98.57784 
L 257.987632 98.65008 
L 261.054282 98.38176 
L 264.101495 98.48496 
L 267.121248 96.70992 
L 270.215004 98.05152 
L 273.276 98.48496 
L 276.316039 97.96896 
L 279.36 96.32808 
" clip-path="url(#p002bb69579)" style="fill: none; stroke: #f5841e; stroke-width: 0.6"/>
   </g>
  </g>
 </g>
 <defs>
  <clipPath id="p002bb69579">
   <rect x="8.64" y="4.8" width="270.72" height="103.2"/>
  </clipPath>
 </defs>
</svg>
