<?xml version="1.0" encoding="utf-8" standalone="no"?>
<!DOCTYPE svg PUBLIC "-//W3C//DTD SVG 1.1//EN"
  "http://www.w3.org/Graphics/SVG/1.1/DTD/svg11.dtd">
<svg xmlns:xlink="http://www.w3.org/1999/xlink" width="288pt" height="120pt" viewBox="0 0 288 120" xmlns="http://www.w3.org/2000/svg" version="1.1">
<desc id="nav-meta">{"window":"1m","count":4,"labels":["27.01","06.02","15.02","25.02"],"tick_utc":["2026-01-27T12:00:00Z","2026-02-06T03:19:18Z","2026-02-15T02:00:29Z","2026-02-25T03:27:12Z"],"w":720,"h":300}</desc>

 <metadata>
  <rdf:RDF xmlns:dc="http://purl.org/dc/elements/1.1/" xmlns:cc="http://creativecommons.org/ns#" xmlns:rdf="http://www.w3.org/1999/02/22-rdf-syntax-ns#">
   <cc:Work>
    <dc:type rdf:resource="http://purl.org/dc/dcmitype/StillImage"/>
    <dc:date>2026-02-25T19:37:47.679106</dc:date>
    <dc:format>image/svg+xml</dc:format>
    <dc:creator>
     <cc:Agent>
      <dc:title>Matplotlib v3.10.8, https://matplotlib.org/</dc:title>
     </cc:Agent>
    </dc:creator>
   </cc:Work>
  </rdf:RDF>
 </metadata>
 <defs>
  <style type="text/css">*{stroke-linejoin: round; stroke-linecap: butt}</style>
 </defs>
 <g id="figure_1">
  <g id="patch_1">
   <path d="M 0 120 
L 288 120 
L 288 0 
L 0 0 
L 0 120 
z
" style="fill: none; opacity: 0"/>
  </g>
  <g id="axes_1">
   <g id="patch_2">
    <path d="M 8.64 108 
L 279.36 108 
L 279.36 4.8 
L 8.64 4.8 
L 8.64 108 
z
" style="fill: none"/>
   </g>
   <g id="matplotlib.axis_1"/>
   <g id="matplotlib.axis_2"/>
   <g id="line2d_1">
    <path d="M 8.64 87.36 
L 279.36 87.36 
" clip-path="url(#p5c2cfb6101)" style="fill: none; stroke: #b2b2b2; stroke-opacity: 0.35; stroke-width: 0.5; stroke-linecap: square"/>
   </g>
   <g id="line2d_2">
    <path d="M 8.64 66.72 
L 279.36 66.72 
" clip-path="url(#p5c2cfb6101)" style="fill: none; stroke: #b2b2b2; stroke-opacity: 0.35; stroke-width: 0.5; stroke-linecap: square"/>
   </g>
   <g id="line2d_3">
    <path d="M 8.64 46.08 
L 279.36 46.08 
" clip-path="url(#p5c2cfb6101)" style="fill: none; stroke: #b2b2b2; stroke-opacity: 0.35; stroke-width: 0.5; stroke-linecap: square"/>
   </g>
   <g id="line2d_4">
    <path d="M 8.64 25.44 
L 279.36 25.44 
" clip-path="url(#p5c2cfb6101)" style="fill: none; stroke: #b2b2b2; stroke-opacity: 0.35; stroke-width: 0.5; stroke-linecap: square"/>
   </g>
   <g id="line2d_5">
    <path d="M 8.64 92.5716 
L 18.091231 91.76664 
L 27.542461 92.33424 
L 36.993692 94.36728 
L 46.444923 94.46016 
L 55.896153 97.71096 
L 65.347384 98.48496 
L 74.798614 97.85544 
L 82.777575 99.10416 
L 90.28835 100.16712 
L 99.734768 102.23112 
L 109.145524 100.54896 
L 118.812799 100.70376 
L 128.186035 100.68312 
L 137.691194 100.95144 
L 147.122844 101.28168 
L 156.540055 101.71512 
L 165.988441 101.84928 
L 175.326016 101.034 
L 184.278541 100.54896 
L 194.336007 101.04432 
L 202.600036 100.81728 
L 213.223482 101.034 
L 222.663227 101.4984 
L 232.059216 101.33328 
L 241.452689 101.1372 
L 251.011887 101.06496 
L 260.491559 102.09696 
L 269.144357 102.05568 
L 279.36 101.4984 
" clip-path="url(#p5c2cfb6101)" style="fill: none; stroke: #bebebe; stroke-width: 0.5; stroke-linecap: round"/>
   </g>
   <g id="line2d_6">
    <path d="M 8.64 76.14216 
L 18.091231 74.75928 
L 27.542461 74.96568 
L 36.993692 77.75208 
L 46.444923 79.48584 
L 55.896153 83.31456 
L 65.347384 85.90488 
L 74.798614 84.79032 
L 82.777575 85.84296 
L 90.28835 88.25784 
L 99.734768 91.41576 
L 109.145524 88.7532 
L 118.812799 88.65 
L 128.186035 88.55712 
L 137.691194 88.96992 
L 147.122844 89.7336 
L 156.540055 90.456 
L 165.988441 90.56952 
L 175.326016 89.15568 
L 184.278541 88.9596 
L 194.336007 90.6624 
L 202.600036 89.94 
L 213.223482 90.00192 
L 222.663227 90.3528 
L 232.059216 90.62112 
L 241.452689 90.5076 
L 251.011887 90.3528 
L 260.491559 92.004 
L 269.144357 92.13816 
L 279.36 91.25064 
" clip-path="url(#p5c2cfb6101)" style="fill: none; stroke: #4a8dff; stroke-width: 0.6"/>
   </g>
   <g id="line2d_7">
    <path d="M 8.64 85.21344 
L 18.091231 84.28464 
L 27.542461 84.32592 
L 36.993692 89.08344 
L 46.444923 89.5272 
L 55.896153 95.14128 
L 65.347384 96.98856 
L 74.798614 95.08968 
L 82.777575 97.71096 
L 90.28835 99.80592 
L 99.734768 101.79768 
L 109.145524 100.03296 
L 118.812799 100.518 
L 128.186035 99.98136 
L 137.691194 100.49736 
L 147.122844 100.78632 
L 156.540055 101.07528 
L 165.988441 101.26104 
L 175.326016 100.63152 
L 184.278541 100.38384 
L 194.336007 100.84824 
L 202.600036 100.65216 
L 213.223482 101.034 
L 222.663227 101.19912 
L 232.059216 101.10624 
L 241.452689 100.97208 
L 251.011887 100.91016 
L 260.491559 101.7564 
L 269.144357 101.84928 
L 279.36 101.56032 
" clip-path="url(#p5c2cfb6101)" style="fill: none; stroke: #f5841e; stroke-width: 0.6"/>
   </g>
  </g>
 </g>
 <defs>
  <clipPath id="p5c2cfb6101">
   <rect x="8.64" y="4.8" width="270.72" height="103.2"/>
  </clipPath>
 </defs>
</svg>
