<?xml version="1.0" encoding="utf-8" standalone="no"?>
<!DOCTYPE svg PUBLIC "-//W3C//DTD SVG 1.1//EN"
  "http://www.w3.org/Graphics/SVG/1.1/DTD/svg11.dtd">
<svg xmlns:xlink="http://www.w3.org/1999/xlink" width="288pt" height="120pt" viewBox="0 0 288 120" xmlns="http://www.w3.org/2000/svg" version="1.1">
<desc id="nav-meta">{"window":"1m","count":4,"labels":["11.06","21.06","01.07","11.07"],"tick_utc":["2026-06-11T05:14:13Z","2026-06-21T05:29:24Z","2026-07-01T05:10:59Z","2026-07-11T03:56:05Z"],"w":720,"h":300}</desc>

 <metadata>
  <rdf:RDF xmlns:dc="http://purl.org/dc/elements/1.1/" xmlns:cc="http://creativecommons.org/ns#" xmlns:rdf="http://www.w3.org/1999/02/22-rdf-syntax-ns#">
   <cc:Work>
    <dc:type rdf:resource="http://purl.org/dc/dcmitype/StillImage"/>
    <dc:date>2026-07-11T03:56:06.785997</dc:date>
    <dc:format>image/svg+xml</dc:format>
    <dc:creator>
     <cc:Agent>
      <dc:title>Matplotlib v3.11.0, https://matplotlib.org/</dc:title>
     </cc:Agent>
    </dc:creator>
   </cc:Work>
  </rdf:RDF>
 </metadata>
 <defs>
  <style type="text/css">*{stroke-linejoin: round; stroke-linecap: butt}</style>
 </defs>
 <g id="figure_1">
  <g id="patch_1">
   <path d="M 0 120 
L 288 120 
L 288 0 
L 0 0 
L 0 120 
z
" style="fill: none; opacity: 0"/>
  </g>
  <g id="axes_1">
   <g id="patch_2">
    <path d="M 8.64 108 
L 279.36 108 
L 279.36 4.8 
L 8.64 4.8 
L 8.64 108 
z
" style="fill: none"/>
   </g>
   <g id="matplotlib.axis_1"/>
   <g id="matplotlib.axis_2"/>
   <g id="line2d_1">
    <path d="M 8.64 87.36 
L 279.36 87.36 
" clip-path="url(#p645f5e713a)" style="fill: none; stroke: #b2b2b2; stroke-opacity: 0.35; stroke-width: 0.5; stroke-linecap: square"/>
   </g>
   <g id="line2d_2">
    <path d="M 8.64 66.72 
L 279.36 66.72 
" clip-path="url(#p645f5e713a)" style="fill: none; stroke: #b2b2b2; stroke-opacity: 0.35; stroke-width: 0.5; stroke-linecap: square"/>
   </g>
   <g id="line2d_3">
    <path d="M 8.64 46.08 
L 279.36 46.08 
" clip-path="url(#p645f5e713a)" style="fill: none; stroke: #b2b2b2; stroke-opacity: 0.35; stroke-width: 0.5; stroke-linecap: square"/>
   </g>
   <g id="line2d_4">
    <path d="M 8.64 25.44 
L 279.36 25.44 
" clip-path="url(#p645f5e713a)" style="fill: none; stroke: #b2b2b2; stroke-opacity: 0.35; stroke-width: 0.5; stroke-linecap: square"/>
   </g>
   <g id="line2d_5">
    <path d="M 8.64 103.72752 
L 17.715822 103.50048 
L 26.690044 103.5108 
L 35.796 103.31472 
L 45.136859 102.95352 
L 54.228794 102.61296 
L 62.981193 102.6336 
L 71.978225 102.9948 
L 81.231505 103.28376 
L 89.910347 103.01544 
L 99.138829 102.69552 
L 108.443798 102.582 
L 116.943716 102.88128 
L 126.016399 103.15992 
L 135.054343 103.36632 
L 144.141046 103.36632 
L 153.07059 102.81936 
L 162.283272 103.0464 
L 171.389019 102.9432 
L 180.254108 102.59232 
L 189.426716 102.40656 
L 198.308756 102.02472 
L 207.250751 101.68416 
L 216.252178 101.3436 
L 225.424891 101.6532 
L 234.55282 101.6532 
L 243.457565 101.63256 
L 252.252236 101.95248 
L 261.566623 102.08664 
L 270.58657 101.9112 
L 279.36 102.066 
" clip-path="url(#p645f5e713a)" style="fill: none; stroke: #bebebe; stroke-width: 0.5; stroke-linecap: round"/>
   </g>
   <g id="line2d_6">
    <path d="M 8.64 95.11032 
L 17.715822 94.82136 
L 26.690044 94.8936 
L 35.796 94.70784 
L 45.136859 94.04736 
L 54.228794 93.40752 
L 62.981193 92.9844 
L 71.978225 93.93384 
L 81.231505 94.4292 
L 89.910347 94.19184 
L 99.138829 93.87192 
L 108.443798 93.81 
L 116.943716 94.03704 
L 126.016399 94.83168 
L 135.054343 95.48184 
L 144.141046 96.63768 
L 153.07059 96.14232 
L 162.283272 96.30744 
L 171.389019 96.29712 
L 180.254108 96.04944 
L 189.426716 95.9256 
L 198.308756 95.39928 
L 207.250751 94.31568 
L 216.252178 93.57264 
L 225.424891 93.32496 
L 234.55282 93.22176 
L 243.457565 93.35592 
L 252.252236 93.61392 
L 261.566623 93.77904 
L 270.58657 93.26304 
L 279.36 92.92248 
" clip-path="url(#p645f5e713a)" style="fill: none; stroke: #4a8dff; stroke-width: 0.6"/>
   </g>
   <g id="line2d_7">
    <path d="M 8.64 102.29304 
L 17.715822 102.08664 
L 26.690044 102.066 
L 35.796 101.86992 
L 45.136859 101.48808 
L 54.228794 101.40552 
L 62.981193 101.4984 
L 71.978225 101.97312 
L 81.231505 102.26208 
L 89.910347 102.066 
L 99.138829 101.90088 
L 108.443798 101.90088 
L 116.943716 102.0144 
L 126.016399 102.25176 
L 135.054343 102.6336 
L 144.141046 102.88128 
L 153.07059 102.77808 
L 162.283272 102.85032 
L 171.389019 102.93288 
L 180.254108 102.95352 
L 189.426716 103.00512 
L 198.308756 102.69552 
L 207.250751 102.55104 
L 216.252178 102.2724 
L 225.424891 102.21048 
L 234.55282 102.12792 
L 243.457565 102.13824 
L 252.252236 102.25176 
L 261.566623 102.36528 
L 270.58657 101.94216 
L 279.36 101.92152 
" clip-path="url(#p645f5e713a)" style="fill: none; stroke: #f5841e; stroke-width: 0.6"/>
   </g>
  </g>
 </g>
 <defs>
  <clipPath id="p645f5e713a">
   <rect x="8.64" y="4.8" width="270.72" height="103.2"/>
  </clipPath>
 </defs>
</svg>
