<?xml version="1.0" encoding="utf-8" standalone="no"?>
<!DOCTYPE svg PUBLIC "-//W3C//DTD SVG 1.1//EN"
  "http://www.w3.org/Graphics/SVG/1.1/DTD/svg11.dtd">
<svg xmlns:xlink="http://www.w3.org/1999/xlink" width="288pt" height="120pt" viewBox="0 0 288 120" xmlns="http://www.w3.org/2000/svg" version="1.1">
<desc id="nav-meta">{"window":"1y","count":4,"labels":["05.05","04.09","03.01","05.05"],"tick_utc":["2025-05-05T12:00:00Z","2025-09-04T12:00:00Z","2026-01-03T12:00:00Z","2026-05-05T03:59:32Z"],"w":720,"h":300}</desc>

 <metadata>
  <rdf:RDF xmlns:dc="http://purl.org/dc/elements/1.1/" xmlns:cc="http://creativecommons.org/ns#" xmlns:rdf="http://www.w3.org/1999/02/22-rdf-syntax-ns#">
   <cc:Work>
    <dc:type rdf:resource="http://purl.org/dc/dcmitype/StillImage"/>
    <dc:date>2026-05-05T03:59:34.049436</dc:date>
    <dc:format>image/svg+xml</dc:format>
    <dc:creator>
     <cc:Agent>
      <dc:title>Matplotlib v3.10.9, https://matplotlib.org/</dc:title>
     </cc:Agent>
    </dc:creator>
   </cc:Work>
  </rdf:RDF>
 </metadata>
 <defs>
  <style type="text/css">*{stroke-linejoin: round; stroke-linecap: butt}</style>
 </defs>
 <g id="figure_1">
  <g id="patch_1">
   <path d="M 0 120 
L 288 120 
L 288 0 
L 0 0 
L 0 120 
z
" style="fill: none; opacity: 0"/>
  </g>
  <g id="axes_1">
   <g id="patch_2">
    <path d="M 8.64 108 
L 279.36 108 
L 279.36 4.8 
L 8.64 4.8 
L 8.64 108 
z
" style="fill: none"/>
   </g>
   <g id="matplotlib.axis_1"/>
   <g id="matplotlib.axis_2"/>
   <g id="line2d_1">
    <path d="M 8.64 87.36 
L 279.36 87.36 
" clip-path="url(#p2e0d28d239)" style="fill: none; stroke: #b2b2b2; stroke-opacity: 0.35; stroke-width: 0.5; stroke-linecap: square"/>
   </g>
   <g id="line2d_2">
    <path d="M 8.64 66.72 
L 279.36 66.72 
" clip-path="url(#p2e0d28d239)" style="fill: none; stroke: #b2b2b2; stroke-opacity: 0.35; stroke-width: 0.5; stroke-linecap: square"/>
   </g>
   <g id="line2d_3">
    <path d="M 8.64 46.08 
L 279.36 46.08 
" clip-path="url(#p2e0d28d239)" style="fill: none; stroke: #b2b2b2; stroke-opacity: 0.35; stroke-width: 0.5; stroke-linecap: square"/>
   </g>
   <g id="line2d_4">
    <path d="M 8.64 25.44 
L 279.36 25.44 
" clip-path="url(#p2e0d28d239)" style="fill: none; stroke: #b2b2b2; stroke-opacity: 0.35; stroke-width: 0.5; stroke-linecap: square"/>
   </g>
   <g id="line2d_5">
    <path d="M 8.64 87.16392 
L 9.382377 86.38992 
L 10.867132 86.28672 
L 11.609509 81.84912 
L 12.351886 79.32072 
L 13.094264 78.05136 
L 13.836641 79.26912 
L 14.579018 78.846 
L 15.321395 76.2144 
L 16.80615 80.394 
L 17.548527 80.66232 
L 18.290904 81.168 
L 19.033282 79.63032 
L 19.775659 80.95128 
L 20.518036 80.4972 
L 22.002791 77.43216 
L 22.745168 78.846 
L 23.487545 78.41256 
L 24.229922 78.64992 
L 24.9723 78.76344 
L 25.714677 78.25776 
L 26.457054 79.47552 
L 27.199431 80.92032 
L 27.941809 83.73768 
L 28.684186 83.6448 
L 29.426563 83.4384 
L 30.168941 83.61384 
L 30.911318 83.99568 
L 31.653695 84.55296 
L 32.396072 87.00912 
L 33.13845 85.98744 
L 33.880827 85.5024 
L 34.623204 84.8316 
L 35.365581 82.46832 
L 36.107959 81.426 
L 36.850336 82.5096 
L 37.592713 84.79032 
L 39.077468 86.95752 
L 39.819845 84.79032 
L 40.562222 85.13088 
L 41.304599 86.07 
L 42.046977 86.5344 
L 42.789354 86.31768 
L 44.274108 89.97096 
L 45.016486 90.48696 
L 45.758863 86.9472 
L 46.50124 86.66856 
L 47.243617 87.32904 
L 47.985995 88.53648 
L 48.728372 87.6696 
L 49.470749 85.30632 
L 50.213127 84.61488 
L 50.955504 84.17112 
L 51.697881 86.3796 
L 52.440258 84.92448 
L 53.182636 84.89352 
L 53.925013 86.13192 
L 54.66739 86.1732 
L 55.409767 84.99672 
L 56.152145 85.85328 
L 56.894522 85.01736 
L 57.636899 83.55192 
L 58.379276 81.7356 
L 59.121654 82.03488 
L 59.864031 82.65408 
L 61.348785 82.15872 
L 62.091163 81.70464 
L 62.83354 79.01112 
L 63.575917 78.39192 
L 64.318294 78.04104 
L 65.060672 78.16488 
L 65.803049 77.05032 
L 66.545426 72.82944 
L 67.287803 70.41456 
L 68.030181 74.69736 
L 68.772558 76.6272 
L 69.514935 75.63648 
L 70.257313 75.97704 
L 70.99969 74.976 
L 71.742067 76.49304 
L 72.484444 76.99872 
L 73.226822 77.90688 
L 73.969199 79.4652 
L 74.711576 82.02456 
L 75.453953 83.19072 
L 76.196331 82.27224 
L 76.938708 80.21856 
L 77.681085 81.67368 
L 78.423462 80.5488 
L 79.16584 78.588 
L 79.908217 78.19584 
L 80.650594 77.21544 
L 81.392971 76.524 
L 82.135349 78.68088 
L 82.877726 73.88208 
L 83.620103 71.364 
L 84.36248 73.8408 
L 85.104858 75.79128 
L 85.847235 74.65608 
L 86.589612 74.14008 
L 87.331989 76.50336 
L 88.074367 78.30936 
L 88.816744 75.3372 
L 89.559121 77.25672 
L 90.301499 71.78712 
L 91.043876 70.75512 
L 91.786253 70.24944 
L 92.52863 75.35784 
L 93.271008 72.95328 
L 94.013385 70.96152 
L 94.755762 67.87584 
L 95.498139 70.46616 
L 96.240517 71.11632 
L 96.982894 71.61168 
L 97.725271 72.7056 
L 98.467648 69.33096 
L 99.210026 68.9388 
L 99.952403 71.12664 
L 100.69478 70.90992 
L 101.437157 71.80776 
L 102.179535 70.074 
L 102.921912 68.01 
L 103.664289 67.10184 
L 104.406666 65.29584 
L 105.149044 64.01616 
L 105.891421 60.31128 
L 106.633798 60.19776 
L 107.376175 60.786 
L 108.118553 62.61264 
L 108.86093 61.74576 
L 109.603307 59.57856 
L 110.345685 58.86648 
L 111.088062 61.38456 
L 111.830439 61.07496 
L 112.572816 61.83864 
L 113.315194 66.29688 
L 114.057571 67.97904 
L 114.799948 68.69112 
L 115.542325 73.9956 
L 116.284703 70.45584 
L 117.02708 70.87896 
L 117.769457 68.91816 
L 118.511834 68.3196 
L 119.254212 69.47544 
L 120.738966 62.39592 
L 121.481343 62.81904 
L 122.223721 64.22256 
L 122.966098 64.05744 
L 123.708475 62.9532 
L 124.450852 66.14208 
L 125.19323 63.91296 
L 125.935607 66.17304 
L 126.677984 74.6148 
L 127.420361 77.78304 
L 128.162739 72.66432 
L 128.905116 69.69216 
L 129.647493 71.09568 
L 131.132248 76.06992 
L 131.874625 76.76136 
L 132.617002 75.25464 
L 133.35938 75.24432 
L 134.101757 74.63544 
L 134.844134 75.73968 
L 135.586511 77.31864 
L 136.328889 74.202 
L 137.071266 73.64472 
L 137.813643 73.48992 
L 138.55602 71.83872 
L 139.298398 72.17928 
L 140.040775 73.38672 
L 140.783152 73.43832 
L 141.525529 76.15248 
L 142.267907 75.3372 
L 143.010284 75.58488 
L 143.752661 75.35784 
L 144.495038 81.168 
L 145.237416 84.01632 
L 145.979793 82.06584 
L 146.72217 84.19176 
L 147.464548 82.27224 
L 148.206925 83.29392 
L 148.949302 81.62208 
L 149.691679 80.72424 
L 150.434057 84.33624 
L 151.176434 84.64584 
L 151.918811 86.844 
L 152.661188 88.52616 
L 153.403566 88.36104 
L 154.145943 88.93896 
L 154.88832 90.79656 
L 155.630697 88.09272 
L 156.373075 89.22792 
L 157.115452 90.00192 
L 157.857829 91.39512 
L 158.600206 91.63248 
L 159.342584 90.75528 
L 160.084961 88.7016 
L 160.827338 88.52616 
L 161.569715 87.45288 
L 162.312093 88.0308 
L 163.05447 88.94928 
L 164.539224 89.7336 
L 165.281602 91.86984 
L 166.023979 88.60872 
L 166.766356 86.87496 
L 168.251111 90.11544 
L 169.735865 90.53856 
L 170.478243 90.08448 
L 171.22062 88.79448 
L 171.962997 89.20728 
L 172.705374 89.22792 
L 173.447752 90.31152 
L 174.190129 90.10512 
L 174.932506 91.09584 
L 175.674883 91.61184 
L 176.417261 91.31256 
L 177.159638 92.87088 
L 177.902015 93.8616 
L 178.644392 92.02464 
L 179.38677 92.13816 
L 180.129147 92.07624 
L 180.871524 92.14848 
L 183.098656 93.69648 
L 184.58341 92.44776 
L 185.325788 92.30328 
L 186.068165 92.87088 
L 186.810542 92.38584 
L 187.55292 92.47872 
L 188.295297 91.88016 
L 189.037674 90.42504 
L 189.780051 90.08448 
L 190.522429 89.92968 
L 191.264806 88.76352 
L 192.007183 87.94824 
L 192.74956 89.2692 
L 193.491938 88.72224 
L 194.234315 89.39304 
L 194.976692 89.40336 
L 195.719069 88.41264 
L 196.461447 88.4952 
L 197.203824 86.86464 
L 197.946201 86.42088 
L 198.688578 87.62832 
L 199.430956 86.93688 
L 200.173333 87.23616 
L 201.658087 90.0432 
L 202.400465 92.12784 
L 203.142842 91.16808 
L 204.627596 91.73568 
L 205.369974 91.78728 
L 206.112351 94.0164 
L 206.854728 92.5716 
L 207.597106 91.76664 
L 208.339483 92.33424 
L 209.08186 94.36728 
L 209.824237 94.46016 
L 210.566615 97.71096 
L 211.308992 98.48496 
L 212.051369 97.85544 
L 213.26806 100.16712 
L 214.010059 102.23112 
L 214.749257 100.54896 
L 215.508604 100.70376 
L 216.244855 100.68312 
L 217.732308 101.28168 
L 218.472013 101.71512 
L 219.214167 101.84928 
L 219.947617 101.034 
L 220.650822 100.54896 
L 221.440817 101.04432 
L 222.089942 100.81728 
L 222.924395 101.034 
L 223.66587 101.4984 
L 225.892606 101.06496 
L 226.637218 102.09696 
L 227.31688 102.05568 
L 228.1193 101.4984 
L 228.858369 100.60056 
L 229.599337 100.80696 
L 230.332968 101.45712 
L 231.092212 100.55928 
L 231.826924 101.10624 
L 233.309247 100.74504 
L 234.053223 100.21872 
L 234.795248 100.53864 
L 235.531928 101.07528 
L 236.281515 101.38488 
L 237.026117 101.26104 
L 237.763726 100.78632 
L 239.25111 100.99272 
L 239.992052 100.38384 
L 241.490021 100.60056 
L 242.234495 99.76464 
L 242.963881 99.49632 
L 243.71192 99.40344 
L 244.454504 100.09488 
L 245.189655 100.3632 
L 245.927685 100.19808 
L 247.425285 100.79664 
L 248.160788 100.26 
L 248.958457 99.83688 
L 249.654573 100.13616 
L 251.133167 101.38488 
L 254.116595 101.28168 
L 254.849195 101.8596 
L 255.592423 101.88024 
L 256.328442 101.72544 
L 257.081997 101.68416 
L 257.826291 101.47776 
L 258.563848 101.78736 
L 259.307428 101.09592 
L 260.047219 101.46744 
L 260.796427 101.3436 
L 261.527454 101.05464 
L 262.283149 101.3952 
L 263.029333 101.47776 
L 263.766984 100.86888 
L 264.508794 101.26104 
L 266.729439 100.44576 
L 267.48162 100.94112 
L 268.225836 101.09592 
L 268.964957 101.00304 
L 269.705031 100.69344 
L 270.450416 100.9308 
L 272.682205 100.8792 
L 273.432582 100.64184 
L 274.176514 101.1888 
L 274.916864 101.09592 
L 275.660487 101.37456 
L 276.410975 101.21976 
L 277.891854 101.23008 
L 278.633974 100.92048 
L 279.36 101.06496 
L 279.36 101.06496 
" clip-path="url(#p2e0d28d239)" style="fill: none; stroke: #bebebe; stroke-width: 0.5; stroke-linecap: round"/>
   </g>
   <g id="line2d_6">
    <path d="M 8.64 92.74704 
L 9.382377 92.5716 
L 10.867132 92.71608 
L 11.609509 86.97816 
L 12.351886 84.84192 
L 13.094264 81.24024 
L 13.836641 82.37544 
L 14.579018 82.60248 
L 15.321395 79.86768 
L 16.80615 81.85944 
L 17.548527 81.82848 
L 18.290904 82.86048 
L 19.033282 83.00496 
L 19.775659 82.08648 
L 20.518036 82.12776 
L 21.260413 81.61176 
L 22.002791 80.15664 
L 22.745168 82.18968 
L 24.229922 81.79752 
L 24.9723 81.56016 
L 25.714677 80.0844 
L 26.457054 79.86768 
L 27.199431 80.50752 
L 27.941809 82.12776 
L 29.426563 81.92136 
L 30.168941 80.8584 
L 30.911318 81.07512 
L 31.653695 80.84808 
L 32.396072 83.6448 
L 33.13845 82.7676 
L 33.880827 82.0968 
L 34.623204 82.3548 
L 35.365581 79.74384 
L 36.107959 77.90688 
L 36.850336 78.39192 
L 37.592713 80.21856 
L 38.33509 81.34344 
L 39.077468 81.98328 
L 40.562222 81.5808 
L 41.304599 82.26192 
L 42.789354 82.15872 
L 43.531731 83.88216 
L 44.274108 85.89456 
L 45.016486 86.5344 
L 45.758863 83.61384 
L 46.50124 83.2836 
L 47.243617 83.71704 
L 47.985995 83.748 
L 49.470749 83.41776 
L 50.213127 82.44768 
L 50.955504 82.6644 
L 51.697881 83.89248 
L 52.440258 81.38472 
L 53.182636 81.14736 
L 53.925013 82.34448 
L 54.66739 82.23096 
L 55.409767 81.426 
L 56.152145 81.8388 
L 56.894522 80.76552 
L 58.379276 75.83256 
L 59.121654 75.67776 
L 59.864031 75.91512 
L 61.348785 74.88312 
L 62.091163 73.09776 
L 62.83354 69.6096 
L 63.575917 67.91712 
L 64.318294 66.94704 
L 65.060672 66.24528 
L 65.803049 63.80976 
L 66.545426 63.70656 
L 67.287803 63.9852 
L 68.030181 65.71896 
L 68.772558 64.5528 
L 70.257313 64.05744 
L 70.99969 62.25144 
L 71.742067 63.39696 
L 72.484444 63.366 
L 73.226822 63.08736 
L 73.969199 64.72824 
L 74.711576 67.89648 
L 75.453953 69.16584 
L 76.196331 67.69008 
L 76.938708 64.4496 
L 77.681085 65.97696 
L 78.423462 64.914 
L 79.16584 61.54968 
L 79.908217 60.04296 
L 80.650594 56.28648 
L 81.392971 56.47224 
L 82.135349 56.83344 
L 82.877726 51.22968 
L 83.620103 48.89736 
L 84.36248 52.00368 
L 85.104858 53.84064 
L 85.847235 53.90256 
L 86.589612 53.00472 
L 87.331989 55.5228 
L 88.074367 59.12448 
L 88.816744 55.32672 
L 89.559121 56.90568 
L 90.301499 47.92728 
L 91.043876 48.75288 
L 91.786253 48.68064 
L 92.52863 54.57336 
L 93.271008 51.2916 
L 94.013385 52.80864 
L 94.755762 52.69512 
L 95.498139 54.82104 
L 96.982894 54.45984 
L 97.725271 55.7292 
L 98.467648 55.39896 
L 99.210026 53.55168 
L 99.952403 55.81176 
L 100.69478 55.6776 
L 101.437157 56.18328 
L 102.179535 55.71888 
L 103.664289 55.63632 
L 104.406666 55.07904 
L 105.149044 53.41752 
L 105.891421 49.71264 
L 106.633798 50.32152 
L 107.376175 51.17808 
L 108.118553 52.44744 
L 108.86093 52.74672 
L 109.603307 51.4464 
L 110.345685 51.46704 
L 111.088062 53.2524 
L 111.830439 53.08728 
L 112.572816 53.5104 
L 113.315194 57.26688 
L 114.057571 57.76224 
L 114.799948 58.02024 
L 115.542325 62.26176 
L 116.284703 59.68176 
L 117.02708 59.9604 
L 117.769457 58.12344 
L 118.511834 57.02952 
L 119.254212 58.09248 
L 119.996589 55.13064 
L 120.738966 53.046 
L 121.481343 52.5816 
L 122.223721 52.9944 
L 122.966098 52.5816 
L 123.708475 50.0016 
L 124.450852 53.48976 
L 125.19323 52.40616 
L 125.935607 54.75912 
L 126.677984 62.67456 
L 127.420361 63.95424 
L 128.162739 57.86544 
L 128.905116 56.57544 
L 129.647493 58.31952 
L 130.389871 60.4764 
L 131.132248 61.85928 
L 131.874625 62.73648 
L 132.617002 61.8696 
L 133.35938 60.45576 
L 134.101757 60.54864 
L 134.844134 62.04504 
L 135.586511 63.16992 
L 136.328889 62.36496 
L 137.071266 61.21944 
L 137.813643 60.9408 
L 138.55602 57.83448 
L 139.298398 58.40208 
L 140.040775 60.49704 
L 141.525529 63.1596 
L 142.267907 62.49912 
L 143.010284 62.1276 
L 143.752661 61.56 
L 145.237416 70.66224 
L 145.979793 68.72208 
L 146.72217 70.4868 
L 147.464548 68.61888 
L 148.206925 69.11424 
L 148.949302 66.5136 
L 149.691679 66.68904 
L 150.434057 68.8872 
L 151.176434 68.9904 
L 151.918811 71.5704 
L 152.661188 73.48992 
L 153.403566 72.54048 
L 154.88832 74.74896 
L 155.630697 73.3248 
L 156.373075 74.80056 
L 157.115452 77.556 
L 157.857829 78.55704 
L 158.600206 78.50544 
L 159.342584 78.04104 
L 160.084961 75.76032 
L 160.827338 75.73968 
L 161.569715 74.65608 
L 162.312093 74.83152 
L 163.05447 74.57352 
L 163.796847 75.20304 
L 164.539224 75.17208 
L 165.281602 78.05136 
L 166.766356 72.16896 
L 167.508734 73.08744 
L 168.251111 74.72832 
L 169.735865 74.28456 
L 170.478243 73.21128 
L 171.22062 70.2804 
L 171.962997 70.2288 
L 172.705374 71.56008 
L 173.447752 73.79952 
L 174.190129 73.35576 
L 174.932506 74.0988 
L 175.674883 75.5952 
L 176.417261 75.5952 
L 177.159638 77.61792 
L 177.902015 77.63856 
L 178.644392 75.40944 
L 179.38677 75.40944 
L 180.129147 75.04824 
L 180.871524 74.98632 
L 181.613901 75.58488 
L 182.356279 75.87384 
L 183.098656 76.49304 
L 184.58341 75.82224 
L 185.325788 75.84288 
L 186.068165 76.03896 
L 186.810542 75.51264 
L 187.55292 75.56424 
L 188.295297 75.05856 
L 189.037674 73.26288 
L 189.780051 73.20096 
L 190.522429 73.00488 
L 191.264806 71.68392 
L 192.007183 70.6932 
L 192.74956 72.62304 
L 193.491938 73.52088 
L 194.234315 73.83048 
L 194.976692 73.8408 
L 195.719069 73.29384 
L 196.461447 73.72728 
L 197.203824 70.32168 
L 197.946201 69.77472 
L 198.688578 70.34232 
L 199.430956 70.67256 
L 200.173333 70.51776 
L 200.91571 70.848 
L 201.658087 72.31344 
L 202.400465 76.01832 
L 203.142842 75.41976 
L 203.885219 75.83256 
L 205.369974 75.82224 
L 206.112351 77.82432 
L 206.854728 76.14216 
L 207.597106 74.75928 
L 208.339483 74.96568 
L 209.08186 77.75208 
L 209.824237 79.48584 
L 210.566615 83.31456 
L 211.308992 85.90488 
L 212.051369 84.79032 
L 212.678102 85.84296 
L 214.010059 91.41576 
L 214.749257 88.7532 
L 216.244855 88.55712 
L 216.991469 88.96992 
L 218.472013 90.456 
L 219.214167 90.56952 
L 219.947617 89.15568 
L 220.650822 88.9596 
L 221.440817 90.6624 
L 222.089942 89.94 
L 222.924395 90.00192 
L 224.403908 90.62112 
L 225.892606 90.3528 
L 226.637218 92.004 
L 227.31688 92.13816 
L 228.1193 91.25064 
L 228.858369 89.166 
L 229.599337 89.56848 
L 230.332968 90.93072 
L 231.092212 89.41368 
L 231.826924 90.37344 
L 232.571029 89.79552 
L 233.309247 90.23928 
L 234.053223 88.0824 
L 234.795248 88.7532 
L 235.531928 90.16704 
L 236.281515 90.67272 
L 237.026117 90.18768 
L 237.763726 89.2692 
L 238.505811 89.54784 
L 239.25111 89.49624 
L 239.992052 88.31976 
L 240.733441 88.45392 
L 241.490021 88.46424 
L 242.234495 86.38992 
L 242.963881 84.80064 
L 243.71192 84.8316 
L 244.454504 86.586 
L 245.189655 87.74184 
L 245.927685 87.618 
L 246.681163 88.19592 
L 247.425285 89.08344 
L 248.160788 87.89664 
L 248.958457 87.3084 
L 249.654573 87.65928 
L 251.133167 90.07416 
L 252.630157 89.3724 
L 253.367851 89.00088 
L 254.116595 88.42296 
L 255.592423 89.10408 
L 256.328442 89.14536 
L 257.081997 89.07312 
L 257.826291 87.9792 
L 258.563848 88.29912 
L 259.307428 86.38992 
L 260.047219 87.24648 
L 260.796427 87.1536 
L 261.527454 86.21448 
L 263.029333 87.01944 
L 263.766984 84.44976 
L 264.508794 85.05864 
L 265.254385 84.58392 
L 265.99525 85.04832 
L 266.729439 83.71704 
L 267.48162 84.86256 
L 268.225836 85.6572 
L 268.964957 85.27536 
L 269.705031 84.49104 
L 271.194761 85.32696 
L 271.92828 85.17216 
L 272.682205 85.31664 
L 273.432582 84.11952 
L 274.176514 85.66752 
L 274.916864 85.26504 
L 275.660487 86.26608 
L 277.134406 85.38888 
L 277.891854 85.3992 
L 278.633974 84.09888 
L 279.36 84.22272 
L 279.36 84.22272 
" clip-path="url(#p2e0d28d239)" style="fill: none; stroke: #4a8dff; stroke-width: 0.6"/>
   </g>
   <g id="line2d_7">
    <path d="M 8.64 78.98016 
L 9.382377 78.52608 
L 10.124755 76.35888 
L 10.867132 76.18344 
L 11.609509 69.90888 
L 12.351886 70.03272 
L 13.094264 68.29896 
L 13.836641 68.95944 
L 14.579018 70.11528 
L 15.321395 68.76336 
L 16.063773 69.37224 
L 16.80615 69.25872 
L 17.548527 69.41352 
L 18.290904 69.77472 
L 19.033282 66.85416 
L 19.775659 67.26696 
L 20.518036 66.06984 
L 21.260413 63.08736 
L 22.002791 61.12656 
L 22.745168 65.62608 
L 23.487545 64.98624 
L 24.229922 63.91296 
L 24.9723 63.38664 
L 25.714677 63.70656 
L 26.457054 64.97592 
L 27.199431 67.14312 
L 27.941809 68.9388 
L 28.684186 68.23704 
L 29.426563 67.1844 
L 30.168941 66.99864 
L 30.911318 67.47336 
L 31.653695 68.1132 
L 32.396072 71.38464 
L 33.13845 68.526 
L 33.880827 67.21536 
L 34.623204 67.20504 
L 35.365581 62.46816 
L 36.107959 62.51976 
L 36.850336 64.10904 
L 37.592713 66.90576 
L 38.33509 66.83352 
L 39.077468 67.42176 
L 39.819845 67.3392 
L 40.562222 65.8944 
L 41.304599 68.24736 
L 42.789354 68.23704 
L 43.531731 69.69216 
L 44.274108 71.50848 
L 45.016486 72.21024 
L 45.758863 67.3908 
L 46.50124 66.90576 
L 47.243617 65.59512 
L 47.985995 65.86344 
L 48.728372 65.76024 
L 49.470749 65.50224 
L 50.213127 64.398 
L 50.955504 65.70864 
L 51.697881 67.2876 
L 52.440258 63.95424 
L 53.182636 63.14928 
L 53.925013 64.76952 
L 54.66739 64.58376 
L 55.409767 63.55176 
L 56.152145 64.5012 
L 56.894522 63.82008 
L 57.636899 61.36392 
L 58.379276 56.64768 
L 59.121654 54.89328 
L 59.864031 55.04808 
L 60.606408 53.29368 
L 61.348785 52.55064 
L 62.091163 54.77976 
L 62.83354 53.67552 
L 63.575917 52.95312 
L 64.318294 54.45984 
L 65.060672 54.55272 
L 65.803049 55.22352 
L 66.545426 54.98616 
L 67.287803 52.4268 
L 68.030181 53.79936 
L 68.772558 54.08832 
L 69.514935 54.92424 
L 70.257313 54.4908 
L 70.99969 52.98408 
L 71.742067 54.44952 
L 72.484444 54.60432 
L 73.226822 54.62496 
L 74.711576 59.38248 
L 75.453953 60.09456 
L 76.196331 58.39176 
L 76.938708 57.41136 
L 77.681085 58.464 
L 78.423462 57.5352 
L 79.16584 55.0068 
L 79.908217 55.81176 
L 80.650594 55.99752 
L 81.392971 53.13888 
L 82.135349 53.64456 
L 82.877726 52.1688 
L 83.620103 48.69096 
L 84.36248 54.0264 
L 85.104858 55.13064 
L 85.847235 54.96552 
L 86.589612 54.92424 
L 87.331989 56.25552 
L 88.074367 59.8572 
L 88.816744 58.32984 
L 89.559121 60.23904 
L 90.301499 55.65696 
L 91.043876 57.18432 
L 91.786253 59.21736 
L 92.52863 62.55072 
L 93.271008 60.82728 
L 94.013385 61.47744 
L 94.755762 60.12552 
L 95.498139 64.31544 
L 96.240517 63.99552 
L 96.982894 64.5528 
L 97.725271 63.60336 
L 98.467648 61.5084 
L 99.210026 60.96144 
L 99.952403 61.98312 
L 100.69478 62.05536 
L 101.437157 62.51976 
L 102.921912 60.64152 
L 103.664289 61.13688 
L 104.406666 58.6188 
L 105.149044 57.03984 
L 105.891421 56.35872 
L 106.633798 56.5548 
L 107.376175 57.174 
L 108.118553 57.14304 
L 108.86093 55.7292 
L 109.603307 56.04912 
L 110.345685 55.33704 
L 111.088062 56.87472 
L 111.830439 56.8128 
L 112.572816 57.24624 
L 113.315194 59.93976 
L 114.057571 60.64152 
L 114.799948 59.29992 
L 115.542325 63.80976 
L 116.284703 63.03576 
L 117.02708 63.09768 
L 118.511834 58.27824 
L 119.254212 58.5672 
L 119.996589 53.93352 
L 120.738966 51.74568 
L 121.481343 50.04288 
L 122.223721 49.90872 
L 123.708475 47.43192 
L 124.450852 50.80656 
L 125.19323 48.90768 
L 125.935607 50.6208 
L 126.677984 59.42376 
L 127.420361 61.85928 
L 128.162739 57.35976 
L 128.905116 57.3288 
L 129.647493 59.46504 
L 131.132248 64.72824 
L 131.874625 66.42072 
L 132.617002 65.688 
L 133.35938 64.17096 
L 134.101757 62.10696 
L 134.844134 64.30512 
L 135.586511 65.20296 
L 136.328889 62.68488 
L 137.071266 61.70448 
L 137.813643 61.06464 
L 138.55602 58.1028 
L 139.298398 58.40208 
L 140.040775 59.68176 
L 140.783152 62.6952 
L 141.525529 64.56312 
L 142.267907 63.18024 
L 143.010284 62.72616 
L 143.752661 62.06568 
L 144.495038 66.33816 
L 145.237416 71.40528 
L 145.979793 69.08328 
L 146.72217 71.7252 
L 147.464548 69.57864 
L 148.206925 70.72416 
L 148.949302 68.2164 
L 149.691679 66.978 
L 150.434057 70.03272 
L 151.176434 71.5188 
L 151.918811 73.3764 
L 152.661188 78.846 
L 153.403566 77.75208 
L 154.145943 78.88728 
L 154.88832 81.34344 
L 155.630697 80.53848 
L 156.373075 82.0452 
L 157.115452 86.92656 
L 157.857829 88.58808 
L 158.600206 88.96992 
L 159.342584 86.7924 
L 160.084961 85.296 
L 160.827338 86.24544 
L 161.569715 82.96368 
L 162.312093 82.13808 
L 163.05447 82.47864 
L 163.796847 82.58184 
L 164.539224 83.03592 
L 165.281602 87.3084 
L 166.023979 82.06584 
L 166.766356 79.71288 
L 167.508734 81.24024 
L 168.251111 84.17112 
L 168.993488 84.24336 
L 169.735865 83.29392 
L 170.478243 82.8192 
L 171.22062 80.64168 
L 171.962997 81.38472 
L 172.705374 80.87904 
L 173.447752 83.13912 
L 174.190129 83.19072 
L 175.674883 87.17424 
L 176.417261 85.71912 
L 177.159638 87.53544 
L 177.902015 88.17528 
L 178.644392 85.41984 
L 180.129147 84.9348 
L 180.871524 85.01736 
L 181.613901 86.14224 
L 182.356279 85.90488 
L 183.098656 86.328 
L 183.841033 86.24544 
L 184.58341 85.72944 
L 185.325788 85.7088 
L 186.068165 86.40024 
L 186.810542 85.09992 
L 187.55292 86.02872 
L 189.037674 83.53128 
L 190.522429 82.03488 
L 191.264806 79.39296 
L 192.007183 79.66128 
L 192.74956 82.15872 
L 193.491938 82.43736 
L 194.234315 82.93272 
L 194.976692 83.00496 
L 196.461447 82.28256 
L 197.203824 78.01008 
L 197.946201 76.19376 
L 198.688578 77.66952 
L 199.430956 77.74176 
L 200.173333 78.1752 
L 201.658087 80.8068 
L 202.400465 85.20312 
L 203.142842 84.12984 
L 203.885219 84.03696 
L 204.627596 84.06792 
L 205.369974 84.3156 
L 206.112351 87.02976 
L 206.854728 85.21344 
L 207.597106 84.28464 
L 208.339483 84.32592 
L 209.08186 89.08344 
L 209.824237 89.5272 
L 210.566615 95.14128 
L 211.308992 96.98856 
L 212.051369 95.08968 
L 213.26806 99.80592 
L 214.010059 101.79768 
L 214.749257 100.03296 
L 215.508604 100.518 
L 216.244855 99.98136 
L 216.991469 100.49736 
L 219.214167 101.26104 
L 219.947617 100.63152 
L 220.650822 100.38384 
L 221.440817 100.84824 
L 222.089942 100.65216 
L 222.924395 101.034 
L 223.66587 101.19912 
L 225.892606 100.91016 
L 226.637218 101.7564 
L 227.31688 101.84928 
L 228.1193 101.56032 
L 228.858369 100.85856 
L 230.332968 101.4468 
L 231.092212 101.02368 
L 231.826924 101.30232 
L 232.571029 100.81728 
L 233.309247 100.79664 
L 234.053223 99.3312 
L 234.795248 99.92976 
L 235.531928 100.78632 
L 236.281515 101.17848 
L 237.026117 101.1372 
L 237.763726 100.21872 
L 239.25111 100.4664 
L 239.992052 99.88848 
L 240.733441 99.94008 
L 241.490021 99.81624 
L 242.234495 98.93904 
L 242.963881 98.3508 
L 243.71192 98.52624 
L 244.454504 99.78528 
L 245.189655 100.12584 
L 245.927685 100.03296 
L 247.425285 100.83792 
L 248.160788 100.11552 
L 248.958457 99.87816 
L 249.654573 100.002 
L 251.133167 101.41584 
L 251.885657 101.21976 
L 253.367851 101.00304 
L 254.116595 100.86888 
L 254.849195 101.21976 
L 255.592423 101.28168 
L 257.081997 101.14752 
L 257.826291 100.55928 
L 258.563848 100.65216 
L 259.307428 99.80592 
L 260.047219 99.96072 
L 260.796427 99.6408 
L 261.527454 99.1764 
L 262.283149 99.70272 
L 263.029333 99.94008 
L 263.766984 98.57784 
L 264.508794 98.65008 
L 265.254385 98.38176 
L 265.99525 98.48496 
L 266.729439 96.70992 
L 267.48162 98.05152 
L 268.225836 98.48496 
L 268.964957 97.96896 
L 269.705031 96.32808 
L 271.194761 96.16296 
L 271.92828 96.1836 
L 272.682205 96.50352 
L 273.432582 94.76976 
L 274.176514 97.19496 
L 274.916864 96.9576 
L 275.660487 97.9896 
L 276.410975 96.89568 
L 277.134406 95.45088 
L 277.891854 95.67792 
L 278.633974 93.43848 
L 279.36 92.90184 
L 279.36 92.90184 
" clip-path="url(#p2e0d28d239)" style="fill: none; stroke: #f5841e; stroke-width: 0.6"/>
   </g>
  </g>
 </g>
 <defs>
  <clipPath id="p2e0d28d239">
   <rect x="8.64" y="4.8" width="270.72" height="103.2"/>
  </clipPath>
 </defs>
</svg>
