<?xml version="1.0" encoding="utf-8" standalone="no"?>
<!DOCTYPE svg PUBLIC "-//W3C//DTD SVG 1.1//EN"
  "http://www.w3.org/Graphics/SVG/1.1/DTD/svg11.dtd">
<svg xmlns:xlink="http://www.w3.org/1999/xlink" width="288pt" height="120pt" viewBox="0 0 288 120" xmlns="http://www.w3.org/2000/svg" version="1.1">
<desc id="nav-meta">{"window":"3m","count":4,"labels":["01.01","31.01","02.03","01.04"],"tick_utc":["2026-01-01T12:00:00Z","2026-01-31T12:00:00Z","2026-03-02T03:18:56Z","2026-04-01T03:54:32Z"],"w":720,"h":300}</desc>

 <metadata>
  <rdf:RDF xmlns:dc="http://purl.org/dc/elements/1.1/" xmlns:cc="http://creativecommons.org/ns#" xmlns:rdf="http://www.w3.org/1999/02/22-rdf-syntax-ns#">
   <cc:Work>
    <dc:type rdf:resource="http://purl.org/dc/dcmitype/StillImage"/>
    <dc:date>2026-04-01T08:04:45.145046</dc:date>
    <dc:format>image/svg+xml</dc:format>
    <dc:creator>
     <cc:Agent>
      <dc:title>Matplotlib v3.10.8, https://matplotlib.org/</dc:title>
     </cc:Agent>
    </dc:creator>
   </cc:Work>
  </rdf:RDF>
 </metadata>
 <defs>
  <style type="text/css">*{stroke-linejoin: round; stroke-linecap: butt}</style>
 </defs>
 <g id="figure_1">
  <g id="patch_1">
   <path d="M 0 120 
L 288 120 
L 288 0 
L 0 0 
L 0 120 
z
" style="fill: none; opacity: 0"/>
  </g>
  <g id="axes_1">
   <g id="patch_2">
    <path d="M 8.64 108 
L 279.36 108 
L 279.36 4.8 
L 8.64 4.8 
L 8.64 108 
z
" style="fill: none"/>
   </g>
   <g id="matplotlib.axis_1"/>
   <g id="matplotlib.axis_2"/>
   <g id="line2d_1">
    <path d="M 8.64 87.36 
L 279.36 87.36 
" clip-path="url(#p22bca65a69)" style="fill: none; stroke: #b2b2b2; stroke-opacity: 0.35; stroke-width: 0.5; stroke-linecap: square"/>
   </g>
   <g id="line2d_2">
    <path d="M 8.64 66.72 
L 279.36 66.72 
" clip-path="url(#p22bca65a69)" style="fill: none; stroke: #b2b2b2; stroke-opacity: 0.35; stroke-width: 0.5; stroke-linecap: square"/>
   </g>
   <g id="line2d_3">
    <path d="M 8.64 46.08 
L 279.36 46.08 
" clip-path="url(#p22bca65a69)" style="fill: none; stroke: #b2b2b2; stroke-opacity: 0.35; stroke-width: 0.5; stroke-linecap: square"/>
   </g>
   <g id="line2d_4">
    <path d="M 8.64 25.44 
L 279.36 25.44 
" clip-path="url(#p22bca65a69)" style="fill: none; stroke: #b2b2b2; stroke-opacity: 0.35; stroke-width: 0.5; stroke-linecap: square"/>
   </g>
   <g id="line2d_5">
    <path d="M 8.64 92.47872 
L 11.65931 91.88016 
L 14.67862 90.42504 
L 17.69793 90.08448 
L 20.71724 89.92968 
L 23.73655 88.76352 
L 26.75586 87.94824 
L 29.77517 89.2692 
L 32.79448 88.72224 
L 35.81379 89.39304 
L 38.8331 89.40336 
L 41.85241 88.41264 
L 44.87172 88.4952 
L 47.89103 86.86464 
L 50.91034 86.42088 
L 53.92965 87.62832 
L 56.94896 86.93688 
L 59.96827 87.23616 
L 62.98758 88.63968 
L 66.00689 90.0432 
L 69.0262 92.12784 
L 72.04551 91.16808 
L 75.06482 91.46736 
L 78.08413 91.73568 
L 81.10344 91.78728 
L 84.12275 94.0164 
L 87.14206 92.5716 
L 90.16137 91.76664 
L 93.18068 92.33424 
L 96.19999 94.36728 
L 99.2193 94.46016 
L 102.23861 97.71096 
L 105.25792 98.48496 
L 108.27723 97.85544 
L 110.826205 99.10416 
L 113.225613 100.16712 
L 116.243385 102.23112 
L 119.249766 100.54896 
L 122.338093 100.70376 
L 125.332487 100.68312 
L 128.369025 100.95144 
L 131.38208 101.28168 
L 134.390522 101.71512 
L 137.408923 101.84928 
L 140.391925 101.034 
L 143.251917 100.54896 
L 146.464896 101.04432 
L 149.10494 100.81728 
L 152.498729 101.034 
L 155.514369 101.4984 
L 158.516032 101.33328 
L 161.51689 101.1372 
L 164.570692 101.06496 
L 167.599088 102.09696 
L 170.363329 102.05568 
L 173.626839 101.4984 
L 176.632695 100.60056 
L 179.646274 100.80696 
L 182.630009 101.45712 
L 185.717918 100.55928 
L 188.706056 101.10624 
L 191.73239 100.8792 
L 194.734787 100.74504 
L 197.760597 100.21872 
L 200.778474 100.53864 
L 203.774615 101.07528 
L 206.823244 101.38488 
L 209.851605 101.26104 
L 212.85152 100.78632 
L 215.869642 100.91016 
L 218.900834 100.99272 
L 221.914308 100.38384 
L 224.929599 100.50768 
L 228.006674 100.60056 
L 231.034511 99.76464 
L 234.000983 99.49632 
L 237.043322 99.40344 
L 240.063471 100.09488 
L 243.053391 100.3632 
L 246.055019 100.19808 
L 249.119479 100.47672 
L 252.145883 100.79664 
L 255.137236 100.26 
L 258.381422 99.83688 
L 261.212584 100.13616 
L 264.235703 100.80696 
L 267.226148 101.38488 
L 270.286589 101.3436 
L 273.314531 101.292 
L 276.314795 101.28168 
L 279.36 101.28168 
" clip-path="url(#p22bca65a69)" style="fill: none; stroke: #bebebe; stroke-width: 0.5; stroke-linecap: round"/>
   </g>
   <g id="line2d_6">
    <path d="M 8.64 75.56424 
L 11.65931 75.05856 
L 14.67862 73.26288 
L 17.69793 73.20096 
L 20.71724 73.00488 
L 23.73655 71.68392 
L 26.75586 70.6932 
L 29.77517 72.62304 
L 32.79448 73.52088 
L 35.81379 73.83048 
L 38.8331 73.8408 
L 41.85241 73.29384 
L 44.87172 73.72728 
L 47.89103 70.32168 
L 50.91034 69.77472 
L 53.92965 70.34232 
L 56.94896 70.67256 
L 59.96827 70.51776 
L 62.98758 70.848 
L 66.00689 72.31344 
L 69.0262 76.01832 
L 72.04551 75.41976 
L 75.06482 75.83256 
L 78.08413 75.79128 
L 81.10344 75.82224 
L 84.12275 77.82432 
L 87.14206 76.14216 
L 90.16137 74.75928 
L 93.18068 74.96568 
L 96.19999 77.75208 
L 99.2193 79.48584 
L 102.23861 83.31456 
L 105.25792 85.90488 
L 108.27723 84.79032 
L 110.826205 85.84296 
L 113.225613 88.25784 
L 116.243385 91.41576 
L 119.249766 88.7532 
L 122.338093 88.65 
L 125.332487 88.55712 
L 128.369025 88.96992 
L 131.38208 89.7336 
L 134.390522 90.456 
L 137.408923 90.56952 
L 140.391925 89.15568 
L 143.251917 88.9596 
L 146.464896 90.6624 
L 149.10494 89.94 
L 152.498729 90.00192 
L 155.514369 90.3528 
L 158.516032 90.62112 
L 161.51689 90.5076 
L 164.570692 90.3528 
L 167.599088 92.004 
L 170.363329 92.13816 
L 173.626839 91.25064 
L 176.632695 89.166 
L 179.646274 89.56848 
L 182.630009 90.93072 
L 185.717918 89.41368 
L 188.706056 90.37344 
L 191.73239 89.79552 
L 194.734787 90.23928 
L 197.760597 88.0824 
L 200.778474 88.7532 
L 203.774615 90.16704 
L 206.823244 90.67272 
L 209.851605 90.18768 
L 212.85152 89.2692 
L 215.869642 89.54784 
L 218.900834 89.49624 
L 221.914308 88.31976 
L 224.929599 88.45392 
L 228.006674 88.46424 
L 231.034511 86.38992 
L 234.000983 84.80064 
L 237.043322 84.8316 
L 240.063471 86.586 
L 243.053391 87.74184 
L 246.055019 87.618 
L 249.119479 88.19592 
L 252.145883 89.08344 
L 255.137236 87.89664 
L 258.381422 87.3084 
L 261.212584 87.65928 
L 264.235703 88.96992 
L 267.226148 90.07416 
L 270.286589 89.76456 
L 273.314531 89.3724 
L 276.314795 89.00088 
L 279.36 88.42296 
" clip-path="url(#p22bca65a69)" style="fill: none; stroke: #4a8dff; stroke-width: 0.6"/>
   </g>
   <g id="line2d_7">
    <path d="M 8.64 86.02872 
L 11.65931 84.78 
L 14.67862 83.53128 
L 17.69793 82.83984 
L 20.71724 82.03488 
L 23.73655 79.39296 
L 26.75586 79.66128 
L 29.77517 82.15872 
L 32.79448 82.43736 
L 35.81379 82.93272 
L 38.8331 83.00496 
L 41.85241 82.6128 
L 44.87172 82.28256 
L 47.89103 78.01008 
L 50.91034 76.19376 
L 53.92965 77.66952 
L 56.94896 77.74176 
L 59.96827 78.1752 
L 62.98758 79.5684 
L 66.00689 80.8068 
L 69.0262 85.20312 
L 72.04551 84.12984 
L 75.06482 84.03696 
L 78.08413 84.06792 
L 81.10344 84.3156 
L 84.12275 87.02976 
L 87.14206 85.21344 
L 90.16137 84.28464 
L 93.18068 84.32592 
L 96.19999 89.08344 
L 99.2193 89.5272 
L 102.23861 95.14128 
L 105.25792 96.98856 
L 108.27723 95.08968 
L 110.826205 97.71096 
L 113.225613 99.80592 
L 116.243385 101.79768 
L 119.249766 100.03296 
L 122.338093 100.518 
L 125.332487 99.98136 
L 128.369025 100.49736 
L 131.38208 100.78632 
L 134.390522 101.07528 
L 137.408923 101.26104 
L 140.391925 100.63152 
L 143.251917 100.38384 
L 146.464896 100.84824 
L 149.10494 100.65216 
L 152.498729 101.034 
L 155.514369 101.19912 
L 158.516032 101.10624 
L 161.51689 100.97208 
L 164.570692 100.91016 
L 167.599088 101.7564 
L 170.363329 101.84928 
L 173.626839 101.56032 
L 176.632695 100.85856 
L 179.646274 101.12688 
L 182.630009 101.4468 
L 185.717918 101.02368 
L 188.706056 101.30232 
L 191.73239 100.81728 
L 194.734787 100.79664 
L 197.760597 99.3312 
L 200.778474 99.92976 
L 203.774615 100.78632 
L 206.823244 101.17848 
L 209.851605 101.1372 
L 212.85152 100.21872 
L 215.869642 100.37352 
L 218.900834 100.4664 
L 221.914308 99.88848 
L 224.929599 99.94008 
L 228.006674 99.81624 
L 231.034511 98.93904 
L 234.000983 98.3508 
L 237.043322 98.52624 
L 240.063471 99.78528 
L 243.053391 100.12584 
L 246.055019 100.03296 
L 249.119479 100.45608 
L 252.145883 100.83792 
L 255.137236 100.11552 
L 258.381422 99.87816 
L 261.212584 100.002 
L 264.235703 100.64184 
L 267.226148 101.41584 
L 270.286589 101.21976 
L 273.314531 101.14752 
L 276.314795 101.00304 
L 279.36 100.86888 
" clip-path="url(#p22bca65a69)" style="fill: none; stroke: #f5841e; stroke-width: 0.6"/>
   </g>
  </g>
 </g>
 <defs>
  <clipPath id="p22bca65a69">
   <rect x="8.64" y="4.8" width="270.72" height="103.2"/>
  </clipPath>
 </defs>
</svg>
