<?xml version="1.0" encoding="utf-8" standalone="no"?>
<!DOCTYPE svg PUBLIC "-//W3C//DTD SVG 1.1//EN"
  "http://www.w3.org/Graphics/SVG/1.1/DTD/svg11.dtd">
<svg xmlns:xlink="http://www.w3.org/1999/xlink" width="288pt" height="120pt" viewBox="0 0 288 120" xmlns="http://www.w3.org/2000/svg" version="1.1">
<desc id="nav-meta">{"window":"3m","count":4,"labels":["12.11","12.12","11.01","10.02"],"tick_utc":["2025-11-12T12:00:00Z","2025-12-12T12:00:00Z","2026-01-11T12:00:00Z","2026-02-10T03:42:23Z"],"w":720,"h":300}</desc>

 <metadata>
  <rdf:RDF xmlns:dc="http://purl.org/dc/elements/1.1/" xmlns:cc="http://creativecommons.org/ns#" xmlns:rdf="http://www.w3.org/1999/02/22-rdf-syntax-ns#">
   <cc:Work>
    <dc:type rdf:resource="http://purl.org/dc/dcmitype/StillImage"/>
    <dc:date>2026-02-10T07:42:50.364523</dc:date>
    <dc:format>image/svg+xml</dc:format>
    <dc:creator>
     <cc:Agent>
      <dc:title>Matplotlib v3.10.8, https://matplotlib.org/</dc:title>
     </cc:Agent>
    </dc:creator>
   </cc:Work>
  </rdf:RDF>
 </metadata>
 <defs>
  <style type="text/css">*{stroke-linejoin: round; stroke-linecap: butt}</style>
 </defs>
 <g id="figure_1">
  <g id="patch_1">
   <path d="M 0 120 
L 288 120 
L 288 0 
L 0 0 
L 0 120 
z
" style="fill: none; opacity: 0"/>
  </g>
  <g id="axes_1">
   <g id="patch_2">
    <path d="M 8.64 108 
L 279.36 108 
L 279.36 4.8 
L 8.64 4.8 
L 8.64 108 
z
" style="fill: none"/>
   </g>
   <g id="matplotlib.axis_1"/>
   <g id="matplotlib.axis_2"/>
   <g id="line2d_1">
    <path d="M 8.64 87.36 
L 279.36 87.36 
" clip-path="url(#p5a4dcec6cb)" style="fill: none; stroke: #b2b2b2; stroke-opacity: 0.35; stroke-width: 0.5; stroke-linecap: square"/>
   </g>
   <g id="line2d_2">
    <path d="M 8.64 66.72 
L 279.36 66.72 
" clip-path="url(#p5a4dcec6cb)" style="fill: none; stroke: #b2b2b2; stroke-opacity: 0.35; stroke-width: 0.5; stroke-linecap: square"/>
   </g>
   <g id="line2d_3">
    <path d="M 8.64 46.08 
L 279.36 46.08 
" clip-path="url(#p5a4dcec6cb)" style="fill: none; stroke: #b2b2b2; stroke-opacity: 0.35; stroke-width: 0.5; stroke-linecap: square"/>
   </g>
   <g id="line2d_4">
    <path d="M 8.64 25.44 
L 279.36 25.44 
" clip-path="url(#p5a4dcec6cb)" style="fill: none; stroke: #b2b2b2; stroke-opacity: 0.35; stroke-width: 0.5; stroke-linecap: square"/>
   </g>
   <g id="line2d_5">
    <path d="M 8.64 84.33624 
L 11.659594 84.64584 
L 14.679188 86.844 
L 17.698782 88.52616 
L 20.718377 88.36104 
L 23.737971 88.93896 
L 26.757565 90.79656 
L 29.777159 88.09272 
L 32.796753 89.22792 
L 35.816347 90.00192 
L 38.835941 91.39512 
L 41.855536 91.63248 
L 44.87513 90.75528 
L 47.894724 88.7016 
L 50.914318 88.52616 
L 53.933912 87.45288 
L 56.953506 88.0308 
L 59.9731 88.94928 
L 62.992694 89.3208 
L 66.012289 89.7336 
L 69.031883 91.86984 
L 72.051477 88.60872 
L 75.071071 86.87496 
L 78.090665 88.52616 
L 81.110259 90.11544 
L 84.129853 90.38376 
L 87.149448 90.53856 
L 90.169042 90.08448 
L 93.188636 88.79448 
L 96.20823 89.20728 
L 99.227824 89.22792 
L 102.247418 90.31152 
L 105.267012 90.10512 
L 108.286607 91.09584 
L 111.306201 91.61184 
L 114.325795 91.31256 
L 117.345389 92.87088 
L 120.364983 93.8616 
L 123.384577 92.02464 
L 126.404171 92.13816 
L 129.423766 92.07624 
L 132.44336 92.14848 
L 135.462954 92.64384 
L 138.482548 93.01536 
L 141.502142 93.69648 
L 144.521736 93.11856 
L 147.54133 92.44776 
L 150.560925 92.30328 
L 153.580519 92.87088 
L 156.600113 92.38584 
L 159.619707 92.47872 
L 162.639301 91.88016 
L 165.658895 90.42504 
L 168.678489 90.08448 
L 171.698083 89.92968 
L 174.717678 88.76352 
L 177.737272 87.94824 
L 180.756866 89.2692 
L 183.77646 88.72224 
L 186.796054 89.39304 
L 189.815648 89.40336 
L 192.835242 88.41264 
L 195.854837 88.4952 
L 198.874431 86.86464 
L 201.894025 86.42088 
L 204.913619 87.62832 
L 207.933213 86.93688 
L 210.952807 87.23616 
L 213.972401 88.63968 
L 216.991996 90.0432 
L 220.01159 92.12784 
L 223.031184 91.16808 
L 226.050778 91.46736 
L 229.070372 91.73568 
L 232.089966 91.78728 
L 235.10956 94.0164 
L 238.129155 92.5716 
L 241.148749 91.76664 
L 244.168343 92.33424 
L 247.187937 94.36728 
L 250.207531 94.46016 
L 253.227125 97.71096 
L 256.246719 98.48496 
L 259.266314 97.85544 
L 261.815529 99.10416 
L 264.215163 100.16712 
L 267.233219 102.23112 
L 270.239882 100.54896 
L 273.328501 100.70376 
L 276.323176 100.68312 
L 279.36 100.95144 
" clip-path="url(#p5a4dcec6cb)" style="fill: none; stroke: #bebebe; stroke-width: 0.5; stroke-linecap: round"/>
   </g>
   <g id="line2d_6">
    <path d="M 8.64 68.8872 
L 11.659594 68.9904 
L 14.679188 71.5704 
L 17.698782 73.48992 
L 20.718377 72.54048 
L 23.737971 73.56216 
L 26.757565 74.74896 
L 29.777159 73.3248 
L 32.796753 74.80056 
L 35.816347 77.556 
L 38.835941 78.55704 
L 41.855536 78.50544 
L 44.87513 78.04104 
L 47.894724 75.76032 
L 50.914318 75.73968 
L 53.933912 74.65608 
L 56.953506 74.83152 
L 59.9731 74.57352 
L 62.992694 75.20304 
L 66.012289 75.17208 
L 69.031883 78.05136 
L 72.051477 75.1308 
L 75.071071 72.16896 
L 78.090665 73.08744 
L 81.110259 74.72832 
L 84.129853 74.48064 
L 87.149448 74.28456 
L 90.169042 73.21128 
L 93.188636 70.2804 
L 96.20823 70.2288 
L 99.227824 71.56008 
L 102.247418 73.79952 
L 105.267012 73.35576 
L 108.286607 74.0988 
L 111.306201 75.5952 
L 114.325795 75.5952 
L 117.345389 77.61792 
L 120.364983 77.63856 
L 123.384577 75.40944 
L 126.404171 75.40944 
L 129.423766 75.04824 
L 132.44336 74.98632 
L 135.462954 75.58488 
L 138.482548 75.87384 
L 141.502142 76.49304 
L 144.521736 76.15248 
L 147.54133 75.82224 
L 150.560925 75.84288 
L 153.580519 76.03896 
L 156.600113 75.51264 
L 159.619707 75.56424 
L 162.639301 75.05856 
L 165.658895 73.26288 
L 168.678489 73.20096 
L 171.698083 73.00488 
L 174.717678 71.68392 
L 177.737272 70.6932 
L 180.756866 72.62304 
L 183.77646 73.52088 
L 186.796054 73.83048 
L 189.815648 73.8408 
L 192.835242 73.29384 
L 195.854837 73.72728 
L 198.874431 70.32168 
L 201.894025 69.77472 
L 204.913619 70.34232 
L 207.933213 70.67256 
L 210.952807 70.51776 
L 213.972401 70.848 
L 216.991996 72.31344 
L 220.01159 76.01832 
L 223.031184 75.41976 
L 226.050778 75.83256 
L 229.070372 75.79128 
L 232.089966 75.82224 
L 235.10956 77.82432 
L 238.129155 76.14216 
L 241.148749 74.75928 
L 244.168343 74.96568 
L 247.187937 77.75208 
L 250.207531 79.48584 
L 253.227125 83.31456 
L 256.246719 85.90488 
L 259.266314 84.79032 
L 261.815529 85.84296 
L 264.215163 88.25784 
L 267.233219 91.41576 
L 270.239882 88.7532 
L 273.328501 88.65 
L 276.323176 88.55712 
L 279.36 88.96992 
" clip-path="url(#p5a4dcec6cb)" style="fill: none; stroke: #4a8dff; stroke-width: 0.6"/>
   </g>
   <g id="line2d_7">
    <path d="M 8.64 70.03272 
L 11.659594 71.5188 
L 14.679188 73.3764 
L 17.698782 78.846 
L 20.718377 77.75208 
L 23.737971 78.88728 
L 26.757565 81.34344 
L 29.777159 80.53848 
L 32.796753 82.0452 
L 35.816347 86.92656 
L 38.835941 88.58808 
L 41.855536 88.96992 
L 44.87513 86.7924 
L 47.894724 85.296 
L 50.914318 86.24544 
L 53.933912 82.96368 
L 56.953506 82.13808 
L 59.9731 82.47864 
L 62.992694 82.58184 
L 66.012289 83.03592 
L 69.031883 87.3084 
L 72.051477 82.06584 
L 75.071071 79.71288 
L 78.090665 81.24024 
L 81.110259 84.17112 
L 84.129853 84.24336 
L 87.149448 83.29392 
L 90.169042 82.8192 
L 93.188636 80.64168 
L 96.20823 81.38472 
L 99.227824 80.87904 
L 102.247418 83.13912 
L 105.267012 83.19072 
L 108.286607 85.296 
L 111.306201 87.17424 
L 114.325795 85.71912 
L 117.345389 87.53544 
L 120.364983 88.17528 
L 123.384577 85.41984 
L 126.404171 85.17216 
L 129.423766 84.9348 
L 132.44336 85.01736 
L 135.462954 86.14224 
L 138.482548 85.90488 
L 141.502142 86.328 
L 144.521736 86.24544 
L 147.54133 85.72944 
L 150.560925 85.7088 
L 153.580519 86.40024 
L 156.600113 85.09992 
L 159.619707 86.02872 
L 162.639301 84.78 
L 165.658895 83.53128 
L 168.678489 82.83984 
L 171.698083 82.03488 
L 174.717678 79.39296 
L 177.737272 79.66128 
L 180.756866 82.15872 
L 183.77646 82.43736 
L 186.796054 82.93272 
L 189.815648 83.00496 
L 192.835242 82.6128 
L 195.854837 82.28256 
L 198.874431 78.01008 
L 201.894025 76.19376 
L 204.913619 77.66952 
L 207.933213 77.74176 
L 210.952807 78.1752 
L 213.972401 79.5684 
L 216.991996 80.8068 
L 220.01159 85.20312 
L 223.031184 84.12984 
L 226.050778 84.03696 
L 229.070372 84.06792 
L 232.089966 84.3156 
L 235.10956 87.02976 
L 238.129155 85.21344 
L 241.148749 84.28464 
L 244.168343 84.32592 
L 247.187937 89.08344 
L 250.207531 89.5272 
L 253.227125 95.14128 
L 256.246719 96.98856 
L 259.266314 95.08968 
L 261.815529 97.71096 
L 264.215163 99.80592 
L 267.233219 101.79768 
L 270.239882 100.03296 
L 273.328501 100.518 
L 276.323176 99.98136 
L 279.36 100.49736 
" clip-path="url(#p5a4dcec6cb)" style="fill: none; stroke: #f5841e; stroke-width: 0.6"/>
   </g>
  </g>
 </g>
 <defs>
  <clipPath id="p5a4dcec6cb">
   <rect x="8.64" y="4.8" width="270.72" height="103.2"/>
  </clipPath>
 </defs>
</svg>
