<?xml version="1.0" encoding="utf-8" standalone="no"?>
<!DOCTYPE svg PUBLIC "-//W3C//DTD SVG 1.1//EN"
  "http://www.w3.org/Graphics/SVG/1.1/DTD/svg11.dtd">
<svg xmlns:xlink="http://www.w3.org/1999/xlink" width="288pt" height="120pt" viewBox="0 0 288 120" xmlns="http://www.w3.org/2000/svg" version="1.1">
<desc id="nav-meta">{"window":"1m","count":4,"labels":["26.04","06.05","15.05","25.05"],"tick_utc":["2026-04-26T04:06:31Z","2026-05-06T04:24:54Z","2026-05-15T04:39:19Z","2026-05-25T05:10:23Z"],"w":720,"h":300}</desc>

 <metadata>
  <rdf:RDF xmlns:dc="http://purl.org/dc/elements/1.1/" xmlns:cc="http://creativecommons.org/ns#" xmlns:rdf="http://www.w3.org/1999/02/22-rdf-syntax-ns#">
   <cc:Work>
    <dc:type rdf:resource="http://purl.org/dc/dcmitype/StillImage"/>
    <dc:date>2026-05-25T10:59:03.561043</dc:date>
    <dc:format>image/svg+xml</dc:format>
    <dc:creator>
     <cc:Agent>
      <dc:title>Matplotlib v3.10.9, https://matplotlib.org/</dc:title>
     </cc:Agent>
    </dc:creator>
   </cc:Work>
  </rdf:RDF>
 </metadata>
 <defs>
  <style type="text/css">*{stroke-linejoin: round; stroke-linecap: butt}</style>
 </defs>
 <g id="figure_1">
  <g id="patch_1">
   <path d="M 0 120 
L 288 120 
L 288 0 
L 0 0 
L 0 120 
z
" style="fill: none; opacity: 0"/>
  </g>
  <g id="axes_1">
   <g id="patch_2">
    <path d="M 8.64 108 
L 279.36 108 
L 279.36 4.8 
L 8.64 4.8 
L 8.64 108 
z
" style="fill: none"/>
   </g>
   <g id="matplotlib.axis_1"/>
   <g id="matplotlib.axis_2"/>
   <g id="line2d_1">
    <path d="M 8.64 87.36 
L 279.36 87.36 
" clip-path="url(#p53ce703ac0)" style="fill: none; stroke: #b2b2b2; stroke-opacity: 0.35; stroke-width: 0.5; stroke-linecap: square"/>
   </g>
   <g id="line2d_2">
    <path d="M 8.64 66.72 
L 279.36 66.72 
" clip-path="url(#p53ce703ac0)" style="fill: none; stroke: #b2b2b2; stroke-opacity: 0.35; stroke-width: 0.5; stroke-linecap: square"/>
   </g>
   <g id="line2d_3">
    <path d="M 8.64 46.08 
L 279.36 46.08 
" clip-path="url(#p53ce703ac0)" style="fill: none; stroke: #b2b2b2; stroke-opacity: 0.35; stroke-width: 0.5; stroke-linecap: square"/>
   </g>
   <g id="line2d_4">
    <path d="M 8.64 25.44 
L 279.36 25.44 
" clip-path="url(#p53ce703ac0)" style="fill: none; stroke: #b2b2b2; stroke-opacity: 0.35; stroke-width: 0.5; stroke-linecap: square"/>
   </g>
   <g id="line2d_5">
    <path d="M 8.64 100.8792 
L 18.061354 100.64184 
L 27.401798 101.1888 
L 36.697255 101.09592 
L 46.033815 101.37456 
L 55.456572 101.21976 
L 64.539612 101.20944 
L 74.049753 101.23008 
L 83.367433 100.92048 
L 92.483053 101.06496 
L 101.968165 100.70376 
L 111.291564 100.55928 
L 120.457348 100.53864 
L 129.812356 99.60984 
L 139.321094 99.72336 
L 148.715586 99.44472 
L 157.907046 99.25896 
L 167.272302 99.32088 
L 176.582863 100.22904 
L 185.949737 100.01232 
L 195.151662 100.43544 
L 204.611746 100.75536 
L 214.023175 101.02368 
L 223.277314 101.02368 
L 232.631566 101.17848 
L 242.005561 100.7244 
L 251.255061 100.75536 
L 260.447924 101.11656 
L 269.916422 100.91016 
L 279.36 100.89984 
" clip-path="url(#p53ce703ac0)" style="fill: none; stroke: #bebebe; stroke-width: 0.5; stroke-linecap: round"/>
   </g>
   <g id="line2d_6">
    <path d="M 8.64 85.31664 
L 18.061354 84.11952 
L 27.401798 85.66752 
L 36.697255 85.26504 
L 46.033815 86.26608 
L 55.456572 85.77072 
L 64.539612 85.38888 
L 74.049753 85.3992 
L 83.367433 84.09888 
L 92.483053 84.22272 
L 101.968165 84.34656 
L 111.291564 85.06896 
L 120.457348 85.7604 
L 129.812356 85.0896 
L 139.321094 85.01736 
L 148.715586 84.9348 
L 157.907046 85.296 
L 167.272302 85.35792 
L 176.582863 86.1732 
L 185.949737 85.92552 
L 195.151662 86.55504 
L 204.611746 87.13296 
L 214.023175 88.10304 
L 223.277314 87.9276 
L 232.631566 88.26816 
L 242.005561 87.78312 
L 251.255061 87.95856 
L 260.447924 88.94928 
L 269.916422 88.14432 
L 279.36 88.33008 
" clip-path="url(#p53ce703ac0)" style="fill: none; stroke: #4a8dff; stroke-width: 0.6"/>
   </g>
   <g id="line2d_7">
    <path d="M 8.64 96.50352 
L 18.061354 94.76976 
L 27.401798 97.19496 
L 36.697255 96.9576 
L 46.033815 97.9896 
L 55.456572 96.89568 
L 64.539612 95.45088 
L 74.049753 95.67792 
L 83.367433 93.43848 
L 92.483053 92.90184 
L 101.968165 92.25168 
L 111.291564 92.87088 
L 120.457348 94.2744 
L 129.812356 93.1392 
L 139.321094 92.97408 
L 148.715586 92.9844 
L 157.907046 92.60256 
L 167.272302 92.53032 
L 176.582863 94.54272 
L 185.949737 92.85024 
L 195.151662 94.82136 
L 204.611746 95.75016 
L 214.023175 96.97824 
L 223.277314 97.08144 
L 232.631566 97.23624 
L 242.005561 95.94624 
L 251.255061 96.30744 
L 260.447924 98.08248 
L 269.916422 97.2672 
L 279.36 96.61704 
" clip-path="url(#p53ce703ac0)" style="fill: none; stroke: #f5841e; stroke-width: 0.6"/>
   </g>
  </g>
 </g>
 <defs>
  <clipPath id="p53ce703ac0">
   <rect x="8.64" y="4.8" width="270.72" height="103.2"/>
  </clipPath>
 </defs>
</svg>
