<?xml version="1.0" encoding="utf-8" standalone="no"?>
<!DOCTYPE svg PUBLIC "-//W3C//DTD SVG 1.1//EN"
  "http://www.w3.org/Graphics/SVG/1.1/DTD/svg11.dtd">
<svg xmlns:xlink="http://www.w3.org/1999/xlink" width="288pt" height="120pt" viewBox="0 0 288 120" xmlns="http://www.w3.org/2000/svg" version="1.1">
<desc id="nav-meta">{"window":"1y","count":4,"labels":["21.07","20.11","21.03","21.07"],"tick_utc":["2025-07-21T12:00:00Z","2025-11-20T12:00:00Z","2026-03-21T03:10:23Z","2026-07-21T03:59:29Z"],"w":720,"h":300}</desc>

 <metadata>
  <rdf:RDF xmlns:dc="http://purl.org/dc/elements/1.1/" xmlns:cc="http://creativecommons.org/ns#" xmlns:rdf="http://www.w3.org/1999/02/22-rdf-syntax-ns#">
   <cc:Work>
    <dc:type rdf:resource="http://purl.org/dc/dcmitype/StillImage"/>
    <dc:date>2026-07-21T09:15:02.865573</dc:date>
    <dc:format>image/svg+xml</dc:format>
    <dc:creator>
     <cc:Agent>
      <dc:title>Matplotlib v3.11.1, https://matplotlib.org/</dc:title>
     </cc:Agent>
    </dc:creator>
   </cc:Work>
  </rdf:RDF>
 </metadata>
 <defs>
  <style type="text/css">*{stroke-linejoin: round; stroke-linecap: butt}</style>
 </defs>
 <g id="figure_1">
  <g id="patch_1">
   <path d="M 0 120 
L 288 120 
L 288 0 
L 0 0 
L 0 120 
z
" style="fill: none; opacity: 0"/>
  </g>
  <g id="axes_1">
   <g id="patch_2">
    <path d="M 8.64 108 
L 279.36 108 
L 279.36 4.8 
L 8.64 4.8 
L 8.64 108 
z
" style="fill: none"/>
   </g>
   <g id="matplotlib.axis_1"/>
   <g id="matplotlib.axis_2"/>
   <g id="line2d_1">
    <path d="M 8.64 87.36 
L 279.36 87.36 
" clip-path="url(#p2ed5d9fea1)" style="fill: none; stroke: #b2b2b2; stroke-opacity: 0.35; stroke-width: 0.5; stroke-linecap: square"/>
   </g>
   <g id="line2d_2">
    <path d="M 8.64 66.72 
L 279.36 66.72 
" clip-path="url(#p2ed5d9fea1)" style="fill: none; stroke: #b2b2b2; stroke-opacity: 0.35; stroke-width: 0.5; stroke-linecap: square"/>
   </g>
   <g id="line2d_3">
    <path d="M 8.64 46.08 
L 279.36 46.08 
" clip-path="url(#p2ed5d9fea1)" style="fill: none; stroke: #b2b2b2; stroke-opacity: 0.35; stroke-width: 0.5; stroke-linecap: square"/>
   </g>
   <g id="line2d_4">
    <path d="M 8.64 25.44 
L 279.36 25.44 
" clip-path="url(#p2ed5d9fea1)" style="fill: none; stroke: #b2b2b2; stroke-opacity: 0.35; stroke-width: 0.5; stroke-linecap: square"/>
   </g>
   <g id="line2d_5">
    <path d="M 8.64 77.05032 
L 9.382377 72.82944 
L 10.124755 70.41456 
L 10.867132 74.69736 
L 11.609509 76.6272 
L 12.351887 75.63648 
L 13.094264 75.97704 
L 13.836641 74.976 
L 14.579019 76.49304 
L 15.321396 76.99872 
L 16.063773 77.90688 
L 16.806151 79.4652 
L 17.548528 82.02456 
L 18.290905 83.19072 
L 19.033283 82.27224 
L 19.77566 80.21856 
L 20.518037 81.67368 
L 21.260415 80.5488 
L 22.002792 78.588 
L 22.745169 78.19584 
L 23.487547 77.21544 
L 24.229924 76.524 
L 24.972301 78.68088 
L 25.714679 73.88208 
L 26.457056 71.364 
L 27.199433 73.8408 
L 27.941811 75.79128 
L 28.684188 74.65608 
L 29.426565 74.14008 
L 30.168943 76.50336 
L 30.91132 78.30936 
L 31.653697 75.3372 
L 32.396075 77.25672 
L 33.138452 71.78712 
L 33.880829 70.75512 
L 34.623207 70.24944 
L 35.365584 75.35784 
L 36.107961 72.95328 
L 36.850339 70.96152 
L 37.592716 67.87584 
L 38.335093 70.46616 
L 39.077471 71.11632 
L 39.819848 71.61168 
L 40.562225 72.7056 
L 41.304603 69.33096 
L 42.04698 68.9388 
L 42.789357 71.12664 
L 43.531735 70.90992 
L 44.274112 71.80776 
L 45.016489 70.074 
L 45.758867 68.01 
L 46.501244 67.10184 
L 47.243621 65.29584 
L 47.985998 64.01616 
L 48.728376 60.31128 
L 49.470753 60.19776 
L 50.21313 60.786 
L 50.955508 62.61264 
L 51.697885 61.74576 
L 52.440262 59.57856 
L 53.18264 58.86648 
L 53.925017 61.38456 
L 54.667394 61.07496 
L 55.409772 61.83864 
L 56.152149 66.29688 
L 56.894526 67.97904 
L 57.636904 68.69112 
L 58.379281 73.9956 
L 59.121658 70.45584 
L 59.864036 70.87896 
L 60.606413 68.91816 
L 61.34879 68.3196 
L 62.091168 69.47544 
L 63.575922 62.39592 
L 64.3183 62.81904 
L 65.060677 64.22256 
L 65.803054 64.05744 
L 66.545432 62.9532 
L 67.287809 66.14208 
L 68.030186 63.91296 
L 68.772564 66.17304 
L 69.514941 74.6148 
L 70.257318 77.78304 
L 70.999696 72.66432 
L 71.742073 69.69216 
L 72.48445 71.09568 
L 73.969205 76.06992 
L 74.711582 76.76136 
L 75.45396 75.25464 
L 76.196337 75.24432 
L 76.938714 74.63544 
L 77.681092 75.73968 
L 78.423469 77.31864 
L 79.165846 74.202 
L 79.908224 73.64472 
L 80.650601 73.48992 
L 81.392978 71.83872 
L 82.135356 72.17928 
L 82.877733 73.38672 
L 83.62011 73.43832 
L 84.362488 76.15248 
L 85.104865 75.3372 
L 85.847242 75.58488 
L 86.58962 75.35784 
L 87.331997 81.168 
L 88.074374 84.01632 
L 88.816752 82.06584 
L 89.559129 84.19176 
L 90.301506 82.27224 
L 91.043884 83.29392 
L 91.786261 81.62208 
L 92.528638 80.72424 
L 93.271016 84.33624 
L 94.013393 84.64584 
L 94.75577 86.844 
L 95.498148 88.52616 
L 96.240525 88.36104 
L 96.982902 88.93896 
L 97.72528 90.79656 
L 98.467657 88.09272 
L 99.210034 89.22792 
L 99.952412 90.00192 
L 100.694789 91.39512 
L 101.437166 91.63248 
L 102.179544 90.75528 
L 102.921921 88.7016 
L 103.664298 88.52616 
L 104.406676 87.45288 
L 105.149053 88.0308 
L 105.89143 88.94928 
L 107.376185 89.7336 
L 108.118562 91.86984 
L 108.86094 88.60872 
L 109.603317 86.87496 
L 111.088072 90.11544 
L 112.572826 90.53856 
L 113.315204 90.08448 
L 114.057581 88.79448 
L 114.799958 89.20728 
L 115.542336 89.22792 
L 116.284713 90.31152 
L 117.02709 90.10512 
L 117.769468 91.09584 
L 118.511845 91.61184 
L 119.254222 91.31256 
L 119.9966 92.87088 
L 120.738977 93.8616 
L 121.481354 92.02464 
L 122.223731 92.13816 
L 122.966109 92.07624 
L 123.708486 92.14848 
L 125.935618 93.69648 
L 127.420373 92.44776 
L 128.16275 92.30328 
L 128.905127 92.87088 
L 129.647505 92.38584 
L 130.389882 92.47872 
L 131.132259 91.88016 
L 131.874637 90.42504 
L 132.617014 90.08448 
L 133.359391 89.92968 
L 134.101769 88.76352 
L 134.844146 87.94824 
L 135.586523 89.2692 
L 136.328901 88.72224 
L 137.071278 89.39304 
L 137.813655 89.40336 
L 138.556033 88.41264 
L 139.29841 88.4952 
L 140.040787 86.86464 
L 140.783165 86.42088 
L 141.525542 87.62832 
L 142.267919 86.93688 
L 143.010297 87.23616 
L 144.495051 90.0432 
L 145.237429 92.12784 
L 145.979806 91.16808 
L 147.464561 91.73568 
L 148.206938 91.78728 
L 148.949315 94.0164 
L 149.691693 92.5716 
L 150.43407 91.76664 
L 151.176447 92.33424 
L 151.918825 94.36728 
L 152.661202 94.46016 
L 153.403579 97.71096 
L 154.145957 98.48496 
L 154.888334 97.85544 
L 156.105025 100.16712 
L 156.847024 102.23112 
L 157.586223 100.54896 
L 158.34557 100.70376 
L 159.081821 100.68312 
L 160.569273 101.28168 
L 161.308979 101.71512 
L 162.051132 101.84928 
L 162.784582 101.034 
L 163.487787 100.54896 
L 164.277783 101.04432 
L 164.926908 100.81728 
L 165.761361 101.034 
L 166.502836 101.4984 
L 168.729573 101.06496 
L 169.474184 102.09696 
L 170.153846 102.05568 
L 170.956266 101.4984 
L 171.695336 100.60056 
L 172.436304 100.80696 
L 173.169934 101.45712 
L 173.929178 100.55928 
L 174.663891 101.10624 
L 176.146214 100.74504 
L 176.89019 100.21872 
L 177.632215 100.53864 
L 178.368896 101.07528 
L 179.118482 101.38488 
L 179.863085 101.26104 
L 180.600693 100.78632 
L 182.088077 100.99272 
L 182.829019 100.38384 
L 184.326989 100.60056 
L 185.071463 99.76464 
L 185.800849 99.49632 
L 186.548888 99.40344 
L 187.291472 100.09488 
L 188.026623 100.3632 
L 188.764653 100.19808 
L 190.262253 100.79664 
L 190.997756 100.26 
L 191.795425 99.83688 
L 192.491542 100.13616 
L 193.970136 101.38488 
L 196.953564 101.28168 
L 197.686164 101.8596 
L 198.429392 101.88024 
L 199.165411 101.72544 
L 199.918967 101.68416 
L 200.66326 101.47776 
L 201.400817 101.78736 
L 202.144397 101.09592 
L 202.884188 101.46744 
L 203.633397 101.3436 
L 204.364423 101.05464 
L 205.120119 101.3952 
L 205.866303 101.47776 
L 206.603954 100.86888 
L 207.345764 101.26104 
L 209.566409 100.44576 
L 210.31859 100.94112 
L 211.062806 101.09592 
L 211.801927 101.00304 
L 212.542002 100.69344 
L 213.287387 100.9308 
L 215.519176 100.8792 
L 216.269552 100.64184 
L 217.013485 101.1888 
L 217.753834 101.09592 
L 218.497458 101.37456 
L 219.247946 101.21976 
L 220.728826 101.23008 
L 221.470945 100.92048 
L 222.196971 101.06496 
L 222.952426 100.70376 
L 223.695001 100.55928 
L 224.425023 100.53864 
L 225.170115 99.60984 
L 225.927452 99.72336 
L 227.407756 99.25896 
L 228.153664 99.32088 
L 228.895217 100.22904 
L 229.641255 100.01232 
L 231.127616 100.75536 
L 231.877202 101.02368 
L 232.614261 101.02368 
L 233.359293 101.17848 
L 234.105898 100.7244 
L 234.842587 100.75536 
L 235.574766 101.11656 
L 236.328897 100.91016 
L 237.081044 100.89984 
L 237.812174 101.1372 
L 238.562173 101.2404 
L 239.302179 101.6532 
L 240.045106 101.4984 
L 240.776777 101.48808 
L 241.534311 101.32296 
L 243.022743 101.7048 
L 243.773472 102.54072 
L 244.513306 103.08768 
L 245.243457 103.36632 
L 245.974424 104.22288 
L 246.732757 103.85136 
L 248.206625 103.43856 
L 248.956701 103.81008 
L 249.703435 103.72752 
L 250.448725 103.50048 
L 251.185672 103.5108 
L 251.933437 103.31472 
L 253.447104 102.61296 
L 254.165836 102.6336 
L 255.664519 103.28376 
L 257.135036 102.69552 
L 257.899143 102.582 
L 259.342173 103.15992 
L 260.084353 103.36632 
L 260.830537 103.36632 
L 261.563815 102.81936 
L 262.320344 103.0464 
L 263.068091 102.9432 
L 263.796076 102.59232 
L 264.549314 102.40656 
L 266.752173 101.3436 
L 267.50542 101.6532 
L 268.986231 101.63256 
L 269.708433 101.95248 
L 270.473314 102.08664 
L 271.214016 101.9112 
L 274.157164 102.45816 
L 274.89973 102.08664 
L 277.125169 102.4272 
L 278.631156 102.25176 
L 279.36 102.02472 
L 279.36 102.02472 
" clip-path="url(#p2ed5d9fea1)" style="fill: none; stroke: #bebebe; stroke-width: 0.5; stroke-linecap: round"/>
   </g>
   <g id="line2d_6">
    <path d="M 8.64 63.80976 
L 9.382377 63.70656 
L 10.124755 63.9852 
L 10.867132 65.71896 
L 11.609509 64.5528 
L 13.094264 64.05744 
L 13.836641 62.25144 
L 14.579019 63.39696 
L 15.321396 63.366 
L 16.063773 63.08736 
L 16.806151 64.72824 
L 17.548528 67.89648 
L 18.290905 69.16584 
L 19.033283 67.69008 
L 19.77566 64.4496 
L 20.518037 65.97696 
L 21.260415 64.914 
L 22.002792 61.54968 
L 22.745169 60.04296 
L 23.487547 56.28648 
L 24.229924 56.47224 
L 24.972301 56.83344 
L 25.714679 51.22968 
L 26.457056 48.89736 
L 27.199433 52.00368 
L 27.941811 53.84064 
L 28.684188 53.90256 
L 29.426565 53.00472 
L 30.168943 55.5228 
L 30.91132 59.12448 
L 31.653697 55.32672 
L 32.396075 56.90568 
L 33.138452 47.92728 
L 33.880829 48.75288 
L 34.623207 48.68064 
L 35.365584 54.57336 
L 36.107961 51.2916 
L 36.850339 52.80864 
L 37.592716 52.69512 
L 38.335093 54.82104 
L 39.819848 54.45984 
L 40.562225 55.7292 
L 41.304603 55.39896 
L 42.04698 53.55168 
L 42.789357 55.81176 
L 43.531735 55.6776 
L 44.274112 56.18328 
L 45.016489 55.71888 
L 46.501244 55.63632 
L 47.243621 55.07904 
L 47.985998 53.41752 
L 48.728376 49.71264 
L 49.470753 50.32152 
L 50.21313 51.17808 
L 50.955508 52.44744 
L 51.697885 52.74672 
L 52.440262 51.4464 
L 53.18264 51.46704 
L 53.925017 53.2524 
L 54.667394 53.08728 
L 55.409772 53.5104 
L 56.152149 57.26688 
L 56.894526 57.76224 
L 57.636904 58.02024 
L 58.379281 62.26176 
L 59.121658 59.68176 
L 59.864036 59.9604 
L 60.606413 58.12344 
L 61.34879 57.02952 
L 62.091168 58.09248 
L 62.833545 55.13064 
L 63.575922 53.046 
L 64.3183 52.5816 
L 65.060677 52.9944 
L 65.803054 52.5816 
L 66.545432 50.0016 
L 67.287809 53.48976 
L 68.030186 52.40616 
L 68.772564 54.75912 
L 69.514941 62.67456 
L 70.257318 63.95424 
L 70.999696 57.86544 
L 71.742073 56.57544 
L 72.48445 58.31952 
L 73.226828 60.4764 
L 73.969205 61.85928 
L 74.711582 62.73648 
L 75.45396 61.8696 
L 76.196337 60.45576 
L 76.938714 60.54864 
L 77.681092 62.04504 
L 78.423469 63.16992 
L 79.165846 62.36496 
L 79.908224 61.21944 
L 80.650601 60.9408 
L 81.392978 57.83448 
L 82.135356 58.40208 
L 82.877733 60.49704 
L 84.362488 63.1596 
L 85.104865 62.49912 
L 85.847242 62.1276 
L 86.58962 61.56 
L 88.074374 70.66224 
L 88.816752 68.72208 
L 89.559129 70.4868 
L 90.301506 68.61888 
L 91.043884 69.11424 
L 91.786261 66.5136 
L 92.528638 66.68904 
L 93.271016 68.8872 
L 94.013393 68.9904 
L 94.75577 71.5704 
L 95.498148 73.48992 
L 96.240525 72.54048 
L 97.72528 74.74896 
L 98.467657 73.3248 
L 99.210034 74.80056 
L 99.952412 77.556 
L 100.694789 78.55704 
L 101.437166 78.50544 
L 102.179544 78.04104 
L 102.921921 75.76032 
L 103.664298 75.73968 
L 104.406676 74.65608 
L 105.149053 74.83152 
L 105.89143 74.57352 
L 106.633808 75.20304 
L 107.376185 75.17208 
L 108.118562 78.05136 
L 109.603317 72.16896 
L 110.345694 73.08744 
L 111.088072 74.72832 
L 112.572826 74.28456 
L 113.315204 73.21128 
L 114.057581 70.2804 
L 114.799958 70.2288 
L 115.542336 71.56008 
L 116.284713 73.79952 
L 117.02709 73.35576 
L 117.769468 74.0988 
L 118.511845 75.5952 
L 119.254222 75.5952 
L 119.9966 77.61792 
L 120.738977 77.63856 
L 121.481354 75.40944 
L 122.223731 75.40944 
L 122.966109 75.04824 
L 123.708486 74.98632 
L 124.450863 75.58488 
L 125.193241 75.87384 
L 125.935618 76.49304 
L 127.420373 75.82224 
L 128.16275 75.84288 
L 128.905127 76.03896 
L 129.647505 75.51264 
L 130.389882 75.56424 
L 131.132259 75.05856 
L 131.874637 73.26288 
L 132.617014 73.20096 
L 133.359391 73.00488 
L 134.101769 71.68392 
L 134.844146 70.6932 
L 135.586523 72.62304 
L 136.328901 73.52088 
L 137.071278 73.83048 
L 137.813655 73.8408 
L 138.556033 73.29384 
L 139.29841 73.72728 
L 140.040787 70.32168 
L 140.783165 69.77472 
L 141.525542 70.34232 
L 142.267919 70.67256 
L 143.010297 70.51776 
L 143.752674 70.848 
L 144.495051 72.31344 
L 145.237429 76.01832 
L 145.979806 75.41976 
L 146.722183 75.83256 
L 148.206938 75.82224 
L 148.949315 77.82432 
L 149.691693 76.14216 
L 150.43407 74.75928 
L 151.176447 74.96568 
L 151.918825 77.75208 
L 152.661202 79.48584 
L 153.403579 83.31456 
L 154.145957 85.90488 
L 154.888334 84.79032 
L 155.515067 85.84296 
L 156.847024 91.41576 
L 157.586223 88.7532 
L 159.081821 88.55712 
L 159.828434 88.96992 
L 161.308979 90.456 
L 162.051132 90.56952 
L 162.784582 89.15568 
L 163.487787 88.9596 
L 164.277783 90.6624 
L 164.926908 89.94 
L 165.761361 90.00192 
L 167.240874 90.62112 
L 168.729573 90.3528 
L 169.474184 92.004 
L 170.153846 92.13816 
L 170.956266 91.25064 
L 171.695336 89.166 
L 172.436304 89.56848 
L 173.169934 90.93072 
L 173.929178 89.41368 
L 174.663891 90.37344 
L 175.407996 89.79552 
L 176.146214 90.23928 
L 176.89019 88.0824 
L 177.632215 88.7532 
L 178.368896 90.16704 
L 179.118482 90.67272 
L 179.863085 90.18768 
L 180.600693 89.2692 
L 181.342778 89.54784 
L 182.088077 89.49624 
L 182.829019 88.31976 
L 183.570409 88.45392 
L 184.326989 88.46424 
L 185.071463 86.38992 
L 185.800849 84.80064 
L 186.548888 84.8316 
L 187.291472 86.586 
L 188.026623 87.74184 
L 188.764653 87.618 
L 189.518131 88.19592 
L 190.262253 89.08344 
L 190.997756 87.89664 
L 191.795425 87.3084 
L 192.491542 87.65928 
L 193.970136 90.07416 
L 195.467126 89.3724 
L 196.20482 89.00088 
L 196.953564 88.42296 
L 198.429392 89.10408 
L 199.165411 89.14536 
L 199.918967 89.07312 
L 200.66326 87.9792 
L 201.400817 88.29912 
L 202.144397 86.38992 
L 202.884188 87.24648 
L 203.633397 87.1536 
L 204.364423 86.21448 
L 205.866303 87.01944 
L 206.603954 84.44976 
L 207.345764 85.05864 
L 208.091355 84.58392 
L 208.83222 85.04832 
L 209.566409 83.71704 
L 210.31859 84.86256 
L 211.062806 85.6572 
L 211.801927 85.27536 
L 212.542002 84.49104 
L 214.031732 85.32696 
L 214.76525 85.17216 
L 215.519176 85.31664 
L 216.269552 84.11952 
L 217.013485 85.66752 
L 217.753834 85.26504 
L 218.497458 86.26608 
L 219.971377 85.38888 
L 220.728826 85.3992 
L 221.470945 84.09888 
L 222.952426 84.34656 
L 224.425023 85.7604 
L 225.170115 85.0896 
L 226.675689 84.9348 
L 227.407756 85.296 
L 228.153664 85.35792 
L 228.895217 86.1732 
L 229.641255 85.92552 
L 231.127616 87.13296 
L 231.877202 88.10304 
L 232.614261 87.9276 
L 233.359293 88.26816 
L 234.105898 87.78312 
L 234.842587 87.95856 
L 235.574766 88.94928 
L 236.328897 88.14432 
L 237.812174 88.52616 
L 238.562173 88.86672 
L 239.302179 90.22896 
L 240.045106 89.82648 
L 240.776777 89.87808 
L 241.534311 89.46528 
L 242.28767 90.0432 
L 243.022743 89.96064 
L 243.773472 91.99368 
L 244.513306 93.05664 
L 245.243457 93.74808 
L 245.974424 97.02984 
L 246.732757 95.93592 
L 247.478417 95.07936 
L 248.206625 94.46016 
L 248.956701 95.47152 
L 250.448725 94.82136 
L 251.185672 94.8936 
L 251.933437 94.70784 
L 253.447104 93.40752 
L 254.165836 92.9844 
L 254.904656 93.93384 
L 255.664519 94.4292 
L 257.135036 93.87192 
L 257.899143 93.81 
L 258.597141 94.03704 
L 260.084353 95.48184 
L 260.830537 96.63768 
L 261.563815 96.14232 
L 262.320344 96.30744 
L 263.068091 96.29712 
L 263.796076 96.04944 
L 264.549314 95.9256 
L 265.278692 95.39928 
L 266.012992 94.31568 
L 266.752173 93.57264 
L 267.50542 93.32496 
L 268.254989 93.22176 
L 268.986231 93.35592 
L 270.473314 93.77904 
L 271.214016 93.26304 
L 271.934474 92.92248 
L 272.687952 92.71608 
L 273.431954 93.15984 
L 274.157164 93.17016 
L 274.89973 91.80792 
L 275.643963 91.14744 
L 276.386461 92.13816 
L 277.125169 92.25168 
L 277.878708 91.9008 
L 278.631156 91.81824 
L 279.36 91.00296 
L 279.36 91.00296 
" clip-path="url(#p2ed5d9fea1)" style="fill: none; stroke: #4a8dff; stroke-width: 0.6"/>
   </g>
   <g id="line2d_7">
    <path d="M 8.64 55.22352 
L 9.382377 54.98616 
L 10.124755 52.4268 
L 10.867132 53.79936 
L 11.609509 54.08832 
L 12.351887 54.92424 
L 13.094264 54.4908 
L 13.836641 52.98408 
L 14.579019 54.44952 
L 15.321396 54.60432 
L 16.063773 54.62496 
L 17.548528 59.38248 
L 18.290905 60.09456 
L 19.033283 58.39176 
L 19.77566 57.41136 
L 20.518037 58.464 
L 21.260415 57.5352 
L 22.002792 55.0068 
L 22.745169 55.81176 
L 23.487547 55.99752 
L 24.229924 53.13888 
L 24.972301 53.64456 
L 25.714679 52.1688 
L 26.457056 48.69096 
L 27.199433 54.0264 
L 27.941811 55.13064 
L 28.684188 54.96552 
L 29.426565 54.92424 
L 30.168943 56.25552 
L 30.91132 59.8572 
L 31.653697 58.32984 
L 32.396075 60.23904 
L 33.138452 55.65696 
L 33.880829 57.18432 
L 34.623207 59.21736 
L 35.365584 62.55072 
L 36.107961 60.82728 
L 36.850339 61.47744 
L 37.592716 60.12552 
L 38.335093 64.31544 
L 39.077471 63.99552 
L 39.819848 64.5528 
L 40.562225 63.60336 
L 41.304603 61.5084 
L 42.04698 60.96144 
L 42.789357 61.98312 
L 43.531735 62.05536 
L 44.274112 62.51976 
L 45.758867 60.64152 
L 46.501244 61.13688 
L 47.243621 58.6188 
L 47.985998 57.03984 
L 48.728376 56.35872 
L 49.470753 56.5548 
L 50.21313 57.174 
L 50.955508 57.14304 
L 51.697885 55.7292 
L 52.440262 56.04912 
L 53.18264 55.33704 
L 53.925017 56.87472 
L 54.667394 56.8128 
L 55.409772 57.24624 
L 56.152149 59.93976 
L 56.894526 60.64152 
L 57.636904 59.29992 
L 58.379281 63.80976 
L 59.121658 63.03576 
L 59.864036 63.09768 
L 61.34879 58.27824 
L 62.091168 58.5672 
L 62.833545 53.93352 
L 63.575922 51.74568 
L 64.3183 50.04288 
L 65.060677 49.90872 
L 66.545432 47.43192 
L 67.287809 50.80656 
L 68.030186 48.90768 
L 68.772564 50.6208 
L 69.514941 59.42376 
L 70.257318 61.85928 
L 70.999696 57.35976 
L 71.742073 57.3288 
L 72.48445 59.46504 
L 73.969205 64.72824 
L 74.711582 66.42072 
L 75.45396 65.688 
L 76.196337 64.17096 
L 76.938714 62.10696 
L 77.681092 64.30512 
L 78.423469 65.20296 
L 79.165846 62.68488 
L 79.908224 61.70448 
L 80.650601 61.06464 
L 81.392978 58.1028 
L 82.135356 58.40208 
L 82.877733 59.68176 
L 83.62011 62.6952 
L 84.362488 64.56312 
L 85.104865 63.18024 
L 85.847242 62.72616 
L 86.58962 62.06568 
L 87.331997 66.33816 
L 88.074374 71.40528 
L 88.816752 69.08328 
L 89.559129 71.7252 
L 90.301506 69.57864 
L 91.043884 70.72416 
L 91.786261 68.2164 
L 92.528638 66.978 
L 93.271016 70.03272 
L 94.013393 71.5188 
L 94.75577 73.3764 
L 95.498148 78.846 
L 96.240525 77.75208 
L 96.982902 78.88728 
L 97.72528 81.34344 
L 98.467657 80.53848 
L 99.210034 82.0452 
L 99.952412 86.92656 
L 100.694789 88.58808 
L 101.437166 88.96992 
L 102.179544 86.7924 
L 102.921921 85.296 
L 103.664298 86.24544 
L 104.406676 82.96368 
L 105.149053 82.13808 
L 105.89143 82.47864 
L 106.633808 82.58184 
L 107.376185 83.03592 
L 108.118562 87.3084 
L 108.86094 82.06584 
L 109.603317 79.71288 
L 110.345694 81.24024 
L 111.088072 84.17112 
L 111.830449 84.24336 
L 112.572826 83.29392 
L 113.315204 82.8192 
L 114.057581 80.64168 
L 114.799958 81.38472 
L 115.542336 80.87904 
L 116.284713 83.13912 
L 117.02709 83.19072 
L 118.511845 87.17424 
L 119.254222 85.71912 
L 119.9966 87.53544 
L 120.738977 88.17528 
L 121.481354 85.41984 
L 122.966109 84.9348 
L 123.708486 85.01736 
L 124.450863 86.14224 
L 125.193241 85.90488 
L 125.935618 86.328 
L 126.677995 86.24544 
L 127.420373 85.72944 
L 128.16275 85.7088 
L 128.905127 86.40024 
L 129.647505 85.09992 
L 130.389882 86.02872 
L 131.874637 83.53128 
L 133.359391 82.03488 
L 134.101769 79.39296 
L 134.844146 79.66128 
L 135.586523 82.15872 
L 136.328901 82.43736 
L 137.071278 82.93272 
L 137.813655 83.00496 
L 139.29841 82.28256 
L 140.040787 78.01008 
L 140.783165 76.19376 
L 141.525542 77.66952 
L 142.267919 77.74176 
L 143.010297 78.1752 
L 144.495051 80.8068 
L 145.237429 85.20312 
L 145.979806 84.12984 
L 146.722183 84.03696 
L 147.464561 84.06792 
L 148.206938 84.3156 
L 148.949315 87.02976 
L 149.691693 85.21344 
L 150.43407 84.28464 
L 151.176447 84.32592 
L 151.918825 89.08344 
L 152.661202 89.5272 
L 153.403579 95.14128 
L 154.145957 96.98856 
L 154.888334 95.08968 
L 156.105025 99.80592 
L 156.847024 101.79768 
L 157.586223 100.03296 
L 158.34557 100.518 
L 159.081821 99.98136 
L 159.828434 100.49736 
L 162.051132 101.26104 
L 162.784582 100.63152 
L 163.487787 100.38384 
L 164.277783 100.84824 
L 164.926908 100.65216 
L 165.761361 101.034 
L 166.502836 101.19912 
L 168.729573 100.91016 
L 169.474184 101.7564 
L 170.153846 101.84928 
L 170.956266 101.56032 
L 171.695336 100.85856 
L 173.169934 101.4468 
L 173.929178 101.02368 
L 174.663891 101.30232 
L 175.407996 100.81728 
L 176.146214 100.79664 
L 176.89019 99.3312 
L 177.632215 99.92976 
L 178.368896 100.78632 
L 179.118482 101.17848 
L 179.863085 101.1372 
L 180.600693 100.21872 
L 182.088077 100.4664 
L 182.829019 99.88848 
L 183.570409 99.94008 
L 184.326989 99.81624 
L 185.071463 98.93904 
L 185.800849 98.3508 
L 186.548888 98.52624 
L 187.291472 99.78528 
L 188.026623 100.12584 
L 188.764653 100.03296 
L 190.262253 100.83792 
L 190.997756 100.11552 
L 191.795425 99.87816 
L 192.491542 100.002 
L 193.970136 101.41584 
L 194.722626 101.21976 
L 196.20482 101.00304 
L 196.953564 100.86888 
L 197.686164 101.21976 
L 198.429392 101.28168 
L 199.918967 101.14752 
L 200.66326 100.55928 
L 201.400817 100.65216 
L 202.144397 99.80592 
L 202.884188 99.96072 
L 203.633397 99.6408 
L 204.364423 99.1764 
L 205.120119 99.70272 
L 205.866303 99.94008 
L 206.603954 98.57784 
L 207.345764 98.65008 
L 208.091355 98.38176 
L 208.83222 98.48496 
L 209.566409 96.70992 
L 210.31859 98.05152 
L 211.062806 98.48496 
L 211.801927 97.96896 
L 212.542002 96.32808 
L 214.031732 96.16296 
L 214.76525 96.1836 
L 215.519176 96.50352 
L 216.269552 94.76976 
L 217.013485 97.19496 
L 217.753834 96.9576 
L 218.497458 97.9896 
L 219.247946 96.89568 
L 219.971377 95.45088 
L 220.728826 95.67792 
L 221.470945 93.43848 
L 222.952426 92.25168 
L 223.695001 92.87088 
L 224.425023 94.2744 
L 225.170115 93.1392 
L 225.927452 92.97408 
L 226.675689 92.9844 
L 227.407756 92.60256 
L 228.153664 92.53032 
L 228.895217 94.54272 
L 229.641255 92.85024 
L 230.374155 94.82136 
L 231.127616 95.75016 
L 231.877202 96.97824 
L 233.359293 97.23624 
L 234.105898 95.94624 
L 234.842587 96.30744 
L 235.574766 98.08248 
L 237.081044 96.61704 
L 237.812174 97.23624 
L 238.562173 98.08248 
L 239.302179 99.18672 
L 240.045106 99.03192 
L 240.776777 99.1248 
L 241.534311 98.74296 
L 242.28767 99.09384 
L 243.022743 100.0536 
L 243.773472 101.23008 
L 244.513306 101.99376 
L 245.243457 102.08664 
L 245.974424 102.8916 
L 246.732757 102.45816 
L 248.206625 102.10728 
L 248.956701 102.582 
L 250.448725 102.08664 
L 251.185672 102.066 
L 251.933437 101.86992 
L 252.700491 101.48808 
L 253.447104 101.40552 
L 254.165836 101.4984 
L 254.904656 101.97312 
L 255.664519 102.26208 
L 257.135036 101.90088 
L 257.899143 101.90088 
L 258.597141 102.0144 
L 259.342173 102.25176 
L 260.084353 102.6336 
L 260.830537 102.88128 
L 261.563815 102.77808 
L 264.549314 103.00512 
L 265.278692 102.69552 
L 266.012992 102.55104 
L 266.752173 102.2724 
L 268.986231 102.13824 
L 270.473314 102.36528 
L 271.214016 101.94216 
L 272.687952 101.9112 
L 273.431954 102.2208 
L 274.157164 102.31368 
L 274.89973 101.79768 
L 275.643963 101.81832 
L 276.386461 102.07632 
L 279.36 101.57064 
L 279.36 101.57064 
" clip-path="url(#p2ed5d9fea1)" style="fill: none; stroke: #f5841e; stroke-width: 0.6"/>
   </g>
  </g>
 </g>
 <defs>
  <clipPath id="p2ed5d9fea1">
   <rect x="8.64" y="4.8" width="270.72" height="103.2"/>
  </clipPath>
 </defs>
</svg>
