<?xml version="1.0" encoding="utf-8" standalone="no"?>
<!DOCTYPE svg PUBLIC "-//W3C//DTD SVG 1.1//EN"
  "http://www.w3.org/Graphics/SVG/1.1/DTD/svg11.dtd">
<svg xmlns:xlink="http://www.w3.org/1999/xlink" width="288pt" height="120pt" viewBox="0 0 288 120" xmlns="http://www.w3.org/2000/svg" version="1.1">
<desc id="nav-meta">{"window":"3m","count":4,"labels":["31.12","30.01","01.03","31.03"],"tick_utc":["2025-12-31T12:00:00Z","2026-01-30T12:00:00Z","2026-03-01T03:33:48Z","2026-03-31T03:42:11Z"],"w":720,"h":300}</desc>

 <metadata>
  <rdf:RDF xmlns:dc="http://purl.org/dc/elements/1.1/" xmlns:cc="http://creativecommons.org/ns#" xmlns:rdf="http://www.w3.org/1999/02/22-rdf-syntax-ns#">
   <cc:Work>
    <dc:type rdf:resource="http://purl.org/dc/dcmitype/StillImage"/>
    <dc:date>2026-03-31T03:42:13.269608</dc:date>
    <dc:format>image/svg+xml</dc:format>
    <dc:creator>
     <cc:Agent>
      <dc:title>Matplotlib v3.10.8, https://matplotlib.org/</dc:title>
     </cc:Agent>
    </dc:creator>
   </cc:Work>
  </rdf:RDF>
 </metadata>
 <defs>
  <style type="text/css">*{stroke-linejoin: round; stroke-linecap: butt}</style>
 </defs>
 <g id="figure_1">
  <g id="patch_1">
   <path d="M 0 120 
L 288 120 
L 288 0 
L 0 0 
L 0 120 
z
" style="fill: none; opacity: 0"/>
  </g>
  <g id="axes_1">
   <g id="patch_2">
    <path d="M 8.64 108 
L 279.36 108 
L 279.36 4.8 
L 8.64 4.8 
L 8.64 108 
z
" style="fill: none"/>
   </g>
   <g id="matplotlib.axis_1"/>
   <g id="matplotlib.axis_2"/>
   <g id="line2d_1">
    <path d="M 8.64 87.36 
L 279.36 87.36 
" clip-path="url(#p5423dcda70)" style="fill: none; stroke: #b2b2b2; stroke-opacity: 0.35; stroke-width: 0.5; stroke-linecap: square"/>
   </g>
   <g id="line2d_2">
    <path d="M 8.64 66.72 
L 279.36 66.72 
" clip-path="url(#p5423dcda70)" style="fill: none; stroke: #b2b2b2; stroke-opacity: 0.35; stroke-width: 0.5; stroke-linecap: square"/>
   </g>
   <g id="line2d_3">
    <path d="M 8.64 46.08 
L 279.36 46.08 
" clip-path="url(#p5423dcda70)" style="fill: none; stroke: #b2b2b2; stroke-opacity: 0.35; stroke-width: 0.5; stroke-linecap: square"/>
   </g>
   <g id="line2d_4">
    <path d="M 8.64 25.44 
L 279.36 25.44 
" clip-path="url(#p5423dcda70)" style="fill: none; stroke: #b2b2b2; stroke-opacity: 0.35; stroke-width: 0.5; stroke-linecap: square"/>
   </g>
   <g id="line2d_5">
    <path d="M 8.64 92.38584 
L 11.659599 92.47872 
L 14.679198 91.88016 
L 17.698796 90.42504 
L 20.718395 90.08448 
L 23.737994 89.92968 
L 26.757593 88.76352 
L 29.777192 87.94824 
L 32.796791 89.2692 
L 35.816389 88.72224 
L 38.835988 89.39304 
L 41.855587 89.40336 
L 44.875186 88.41264 
L 47.894785 88.4952 
L 50.914383 86.86464 
L 53.933982 86.42088 
L 56.953581 87.62832 
L 59.97318 86.93688 
L 62.992779 87.23616 
L 66.012378 88.63968 
L 69.031976 90.0432 
L 72.051575 92.12784 
L 75.071174 91.16808 
L 78.090773 91.46736 
L 81.110372 91.73568 
L 84.12997 91.78728 
L 87.149569 94.0164 
L 90.169168 92.5716 
L 93.188767 91.76664 
L 96.208366 92.33424 
L 99.227964 94.36728 
L 102.247563 94.46016 
L 105.267162 97.71096 
L 108.286761 98.48496 
L 111.30636 97.85544 
L 113.855579 99.10416 
L 116.255217 100.16712 
L 119.273278 102.23112 
L 122.279945 100.54896 
L 125.368569 100.70376 
L 128.363249 100.68312 
L 131.400077 100.95144 
L 134.41342 101.28168 
L 137.42215 101.71512 
L 140.44084 101.84928 
L 143.424127 101.034 
L 146.284393 100.54896 
L 149.497679 101.04432 
L 152.137976 100.81728 
L 155.532089 101.034 
L 158.548018 101.4984 
L 161.549968 101.33328 
L 164.551113 101.1372 
L 167.605207 101.06496 
L 170.633893 102.09696 
L 173.398398 102.05568 
L 176.662221 101.4984 
L 179.668364 100.60056 
L 182.682232 100.80696 
L 185.666252 101.45712 
L 188.754456 100.55928 
L 191.74288 101.10624 
L 194.769504 100.8792 
L 197.772187 100.74504 
L 200.798287 100.21872 
L 203.816453 100.53864 
L 206.81288 101.07528 
L 209.861801 101.38488 
L 212.890452 101.26104 
L 215.890654 100.78632 
L 218.909065 100.91016 
L 221.940546 100.99272 
L 224.954308 100.38384 
L 227.969888 100.50768 
L 231.047258 100.60056 
L 234.075384 99.76464 
L 237.04214 99.49632 
L 240.08477 99.40344 
L 243.105208 100.09488 
L 246.095414 100.3632 
L 249.097329 100.19808 
L 252.162082 100.47672 
L 255.188776 100.79664 
L 258.180415 100.26 
L 261.424911 99.83688 
L 264.256344 100.13616 
L 267.279752 100.80696 
L 270.270483 101.38488 
L 273.331217 101.3436 
L 276.359448 101.292 
L 279.36 101.28168 
" clip-path="url(#p5423dcda70)" style="fill: none; stroke: #bebebe; stroke-width: 0.5; stroke-linecap: round"/>
   </g>
   <g id="line2d_6">
    <path d="M 8.64 75.51264 
L 11.659599 75.56424 
L 14.679198 75.05856 
L 17.698796 73.26288 
L 20.718395 73.20096 
L 23.737994 73.00488 
L 26.757593 71.68392 
L 29.777192 70.6932 
L 32.796791 72.62304 
L 35.816389 73.52088 
L 38.835988 73.83048 
L 41.855587 73.8408 
L 44.875186 73.29384 
L 47.894785 73.72728 
L 50.914383 70.32168 
L 53.933982 69.77472 
L 56.953581 70.34232 
L 59.97318 70.67256 
L 62.992779 70.51776 
L 66.012378 70.848 
L 69.031976 72.31344 
L 72.051575 76.01832 
L 75.071174 75.41976 
L 78.090773 75.83256 
L 81.110372 75.79128 
L 84.12997 75.82224 
L 87.149569 77.82432 
L 90.169168 76.14216 
L 93.188767 74.75928 
L 96.208366 74.96568 
L 99.227964 77.75208 
L 102.247563 79.48584 
L 105.267162 83.31456 
L 108.286761 85.90488 
L 111.30636 84.79032 
L 113.855579 85.84296 
L 116.255217 88.25784 
L 119.273278 91.41576 
L 122.279945 88.7532 
L 125.368569 88.65 
L 128.363249 88.55712 
L 131.400077 88.96992 
L 134.41342 89.7336 
L 137.42215 90.456 
L 140.44084 90.56952 
L 143.424127 89.15568 
L 146.284393 88.9596 
L 149.497679 90.6624 
L 152.137976 89.94 
L 155.532089 90.00192 
L 158.548018 90.3528 
L 161.549968 90.62112 
L 164.551113 90.5076 
L 167.605207 90.3528 
L 170.633893 92.004 
L 173.398398 92.13816 
L 176.662221 91.25064 
L 179.668364 89.166 
L 182.682232 89.56848 
L 185.666252 90.93072 
L 188.754456 89.41368 
L 191.74288 90.37344 
L 194.769504 89.79552 
L 197.772187 90.23928 
L 200.798287 88.0824 
L 203.816453 88.7532 
L 206.81288 90.16704 
L 209.861801 90.67272 
L 212.890452 90.18768 
L 215.890654 89.2692 
L 218.909065 89.54784 
L 221.940546 89.49624 
L 224.954308 88.31976 
L 227.969888 88.45392 
L 231.047258 88.46424 
L 234.075384 86.38992 
L 237.04214 84.80064 
L 240.08477 84.8316 
L 243.105208 86.586 
L 246.095414 87.74184 
L 249.097329 87.618 
L 252.162082 88.19592 
L 255.188776 89.08344 
L 258.180415 87.89664 
L 261.424911 87.3084 
L 264.256344 87.65928 
L 267.279752 88.96992 
L 270.270483 90.07416 
L 273.331217 89.76456 
L 276.359448 89.3724 
L 279.36 89.00088 
" clip-path="url(#p5423dcda70)" style="fill: none; stroke: #4a8dff; stroke-width: 0.6"/>
   </g>
   <g id="line2d_7">
    <path d="M 8.64 85.09992 
L 11.659599 86.02872 
L 14.679198 84.78 
L 17.698796 83.53128 
L 20.718395 82.83984 
L 23.737994 82.03488 
L 26.757593 79.39296 
L 29.777192 79.66128 
L 32.796791 82.15872 
L 35.816389 82.43736 
L 38.835988 82.93272 
L 41.855587 83.00496 
L 44.875186 82.6128 
L 47.894785 82.28256 
L 50.914383 78.01008 
L 53.933982 76.19376 
L 56.953581 77.66952 
L 59.97318 77.74176 
L 62.992779 78.1752 
L 66.012378 79.5684 
L 69.031976 80.8068 
L 72.051575 85.20312 
L 75.071174 84.12984 
L 78.090773 84.03696 
L 81.110372 84.06792 
L 84.12997 84.3156 
L 87.149569 87.02976 
L 90.169168 85.21344 
L 93.188767 84.28464 
L 96.208366 84.32592 
L 99.227964 89.08344 
L 102.247563 89.5272 
L 105.267162 95.14128 
L 108.286761 96.98856 
L 111.30636 95.08968 
L 113.855579 97.71096 
L 116.255217 99.80592 
L 119.273278 101.79768 
L 122.279945 100.03296 
L 125.368569 100.518 
L 128.363249 99.98136 
L 131.400077 100.49736 
L 134.41342 100.78632 
L 137.42215 101.07528 
L 140.44084 101.26104 
L 143.424127 100.63152 
L 146.284393 100.38384 
L 149.497679 100.84824 
L 152.137976 100.65216 
L 155.532089 101.034 
L 158.548018 101.19912 
L 161.549968 101.10624 
L 164.551113 100.97208 
L 167.605207 100.91016 
L 170.633893 101.7564 
L 173.398398 101.84928 
L 176.662221 101.56032 
L 179.668364 100.85856 
L 182.682232 101.12688 
L 185.666252 101.4468 
L 188.754456 101.02368 
L 191.74288 101.30232 
L 194.769504 100.81728 
L 197.772187 100.79664 
L 200.798287 99.3312 
L 203.816453 99.92976 
L 206.81288 100.78632 
L 209.861801 101.17848 
L 212.890452 101.1372 
L 215.890654 100.21872 
L 218.909065 100.37352 
L 221.940546 100.4664 
L 224.954308 99.88848 
L 227.969888 99.94008 
L 231.047258 99.81624 
L 234.075384 98.93904 
L 237.04214 98.3508 
L 240.08477 98.52624 
L 243.105208 99.78528 
L 246.095414 100.12584 
L 249.097329 100.03296 
L 252.162082 100.45608 
L 255.188776 100.83792 
L 258.180415 100.11552 
L 261.424911 99.87816 
L 264.256344 100.002 
L 267.279752 100.64184 
L 270.270483 101.41584 
L 273.331217 101.21976 
L 276.359448 101.14752 
L 279.36 101.00304 
" clip-path="url(#p5423dcda70)" style="fill: none; stroke: #f5841e; stroke-width: 0.6"/>
   </g>
  </g>
 </g>
 <defs>
  <clipPath id="p5423dcda70">
   <rect x="8.64" y="4.8" width="270.72" height="103.2"/>
  </clipPath>
 </defs>
</svg>
