<?xml version="1.0" encoding="utf-8" standalone="no"?>
<!DOCTYPE svg PUBLIC "-//W3C//DTD SVG 1.1//EN"
  "http://www.w3.org/Graphics/SVG/1.1/DTD/svg11.dtd">
<svg xmlns:xlink="http://www.w3.org/1999/xlink" width="288pt" height="120pt" viewBox="0 0 288 120" xmlns="http://www.w3.org/2000/svg" version="1.1">
<desc id="nav-meta">{"window":"3m","count":4,"labels":["18.03","17.04","16.05","15.06"],"tick_utc":["2026-03-18T03:32:26Z","2026-04-17T03:55:44Z","2026-05-16T04:20:56Z","2026-06-15T06:07:39Z"],"w":720,"h":300}</desc>

 <metadata>
  <rdf:RDF xmlns:dc="http://purl.org/dc/elements/1.1/" xmlns:cc="http://creativecommons.org/ns#" xmlns:rdf="http://www.w3.org/1999/02/22-rdf-syntax-ns#">
   <cc:Work>
    <dc:type rdf:resource="http://purl.org/dc/dcmitype/StillImage"/>
    <dc:date>2026-06-15T21:35:38.031301</dc:date>
    <dc:format>image/svg+xml</dc:format>
    <dc:creator>
     <cc:Agent>
      <dc:title>Matplotlib v3.11.0, https://matplotlib.org/</dc:title>
     </cc:Agent>
    </dc:creator>
   </cc:Work>
  </rdf:RDF>
 </metadata>
 <defs>
  <style type="text/css">*{stroke-linejoin: round; stroke-linecap: butt}</style>
 </defs>
 <g id="figure_1">
  <g id="patch_1">
   <path d="M 0 120 
L 288 120 
L 288 0 
L 0 0 
L 0 120 
z
" style="fill: none; opacity: 0"/>
  </g>
  <g id="axes_1">
   <g id="patch_2">
    <path d="M 8.64 108 
L 279.36 108 
L 279.36 4.8 
L 8.64 4.8 
L 8.64 108 
z
" style="fill: none"/>
   </g>
   <g id="matplotlib.axis_1"/>
   <g id="matplotlib.axis_2"/>
   <g id="line2d_1">
    <path d="M 8.64 87.36 
L 279.36 87.36 
" clip-path="url(#p35c758e7c2)" style="fill: none; stroke: #b2b2b2; stroke-opacity: 0.35; stroke-width: 0.5; stroke-linecap: square"/>
   </g>
   <g id="line2d_2">
    <path d="M 8.64 66.72 
L 279.36 66.72 
" clip-path="url(#p35c758e7c2)" style="fill: none; stroke: #b2b2b2; stroke-opacity: 0.35; stroke-width: 0.5; stroke-linecap: square"/>
   </g>
   <g id="line2d_3">
    <path d="M 8.64 46.08 
L 279.36 46.08 
" clip-path="url(#p35c758e7c2)" style="fill: none; stroke: #b2b2b2; stroke-opacity: 0.35; stroke-width: 0.5; stroke-linecap: square"/>
   </g>
   <g id="line2d_4">
    <path d="M 8.64 25.44 
L 279.36 25.44 
" clip-path="url(#p35c758e7c2)" style="fill: none; stroke: #b2b2b2; stroke-opacity: 0.35; stroke-width: 0.5; stroke-linecap: square"/>
   </g>
   <g id="line2d_5">
    <path d="M 8.64 99.40344 
L 11.678962 100.09488 
L 14.687508 100.3632 
L 17.707834 100.19808 
L 20.791383 100.47672 
L 23.836639 100.79664 
L 26.846627 100.26 
L 30.111022 99.83688 
L 32.95982 100.13616 
L 36.001771 100.80696 
L 39.010844 101.38488 
L 42.09035 101.3436 
L 45.137154 101.292 
L 48.156108 101.28168 
L 51.220282 101.28168 
L 54.218384 101.8596 
L 57.259984 101.88024 
L 60.272081 101.72544 
L 63.355947 101.68416 
L 66.401907 101.47776 
L 69.420298 101.78736 
L 72.463339 101.09592 
L 75.490873 101.46744 
L 78.556946 101.3436 
L 81.548614 101.05464 
L 84.641235 101.3952 
L 87.694931 101.47776 
L 90.713709 100.86888 
L 93.749507 101.26104 
L 96.800776 100.99272 
L 99.832706 100.61088 
L 102.837313 100.44576 
L 105.915553 100.94112 
L 108.961196 101.09592 
L 111.985987 101.00304 
L 115.014682 100.69344 
L 118.065107 100.9308 
L 121.111278 100.92048 
L 124.113143 100.81728 
L 127.19852 100.8792 
L 130.269376 100.64184 
L 133.313859 101.1888 
L 136.343678 101.09592 
L 139.386895 101.37456 
L 142.458208 101.21976 
L 145.418791 101.20944 
L 148.518586 101.23008 
L 151.555649 100.92048 
L 154.526851 101.06496 
L 157.618488 100.70376 
L 160.657415 100.55928 
L 163.644968 100.53864 
L 166.694198 99.60984 
L 169.793536 99.72336 
L 172.855636 99.44472 
L 175.851558 99.25896 
L 178.904128 99.32088 
L 181.938871 100.22904 
L 184.991969 100.01232 
L 187.991302 100.43544 
L 191.074781 100.75536 
L 194.142401 101.02368 
L 197.158753 101.02368 
L 200.207737 101.17848 
L 203.263155 100.7244 
L 206.277995 100.75536 
L 209.274375 101.11656 
L 212.360597 100.91016 
L 215.438696 100.89984 
L 218.430785 101.1372 
L 221.500093 101.2404 
L 224.528506 101.6532 
L 227.568875 101.4984 
L 230.56318 101.48808 
L 233.663326 101.32296 
L 236.746383 101.51904 
L 239.754612 101.7048 
L 242.826909 102.54072 
L 245.854619 103.08768 
L 248.8427 103.36632 
L 251.834121 104.22288 
L 254.937538 103.85136 
L 257.989089 103.68624 
L 260.969222 103.43856 
L 264.038847 103.81008 
L 267.094793 103.72752 
L 270.144832 103.50048 
L 273.160727 103.5108 
L 276.220892 103.31472 
L 279.36 102.95352 
" clip-path="url(#p35c758e7c2)" style="fill: none; stroke: #bebebe; stroke-width: 0.5; stroke-linecap: round"/>
   </g>
   <g id="line2d_6">
    <path d="M 8.64 84.8316 
L 11.678962 86.586 
L 14.687508 87.74184 
L 17.707834 87.618 
L 20.791383 88.19592 
L 23.836639 89.08344 
L 26.846627 87.89664 
L 30.111022 87.3084 
L 32.95982 87.65928 
L 36.001771 88.96992 
L 39.010844 90.07416 
L 42.09035 89.76456 
L 45.137154 89.3724 
L 48.156108 89.00088 
L 51.220282 88.42296 
L 54.218384 88.81512 
L 57.259984 89.10408 
L 60.272081 89.14536 
L 63.355947 89.07312 
L 66.401907 87.9792 
L 69.420298 88.29912 
L 72.463339 86.38992 
L 75.490873 87.24648 
L 78.556946 87.1536 
L 81.548614 86.21448 
L 84.641235 86.66856 
L 87.694931 87.01944 
L 90.713709 84.44976 
L 93.749507 85.05864 
L 96.800776 84.58392 
L 99.832706 85.04832 
L 102.837313 83.71704 
L 105.915553 84.86256 
L 108.961196 85.6572 
L 111.985987 85.27536 
L 115.014682 84.49104 
L 118.065107 84.86256 
L 121.111278 85.32696 
L 124.113143 85.17216 
L 127.19852 85.31664 
L 130.269376 84.11952 
L 133.313859 85.66752 
L 136.343678 85.26504 
L 139.386895 86.26608 
L 142.458208 85.77072 
L 145.418791 85.38888 
L 148.518586 85.3992 
L 151.555649 84.09888 
L 154.526851 84.22272 
L 157.618488 84.34656 
L 160.657415 85.06896 
L 163.644968 85.7604 
L 166.694198 85.0896 
L 169.793536 85.01736 
L 172.855636 84.9348 
L 175.851558 85.296 
L 178.904128 85.35792 
L 181.938871 86.1732 
L 184.991969 85.92552 
L 187.991302 86.55504 
L 191.074781 87.13296 
L 194.142401 88.10304 
L 197.158753 87.9276 
L 200.207737 88.26816 
L 203.263155 87.78312 
L 206.277995 87.95856 
L 209.274375 88.94928 
L 212.360597 88.14432 
L 215.438696 88.33008 
L 218.430785 88.52616 
L 221.500093 88.86672 
L 224.528506 90.22896 
L 227.568875 89.82648 
L 230.56318 89.87808 
L 233.663326 89.46528 
L 236.746383 90.0432 
L 239.754612 89.96064 
L 242.826909 91.99368 
L 245.854619 93.05664 
L 248.8427 93.74808 
L 251.834121 97.02984 
L 254.937538 95.93592 
L 257.989089 95.07936 
L 260.969222 94.46016 
L 264.038847 95.47152 
L 267.094793 95.11032 
L 270.144832 94.82136 
L 273.160727 94.8936 
L 276.220892 94.70784 
L 279.36 94.04736 
" clip-path="url(#p35c758e7c2)" style="fill: none; stroke: #4a8dff; stroke-width: 0.6"/>
   </g>
   <g id="line2d_7">
    <path d="M 8.64 98.52624 
L 11.678962 99.78528 
L 14.687508 100.12584 
L 17.707834 100.03296 
L 20.791383 100.45608 
L 23.836639 100.83792 
L 26.846627 100.11552 
L 30.111022 99.87816 
L 32.95982 100.002 
L 36.001771 100.64184 
L 39.010844 101.41584 
L 42.09035 101.21976 
L 45.137154 101.14752 
L 48.156108 101.00304 
L 51.220282 100.86888 
L 54.218384 101.21976 
L 57.259984 101.28168 
L 60.272081 101.20944 
L 63.355947 101.14752 
L 66.401907 100.55928 
L 69.420298 100.65216 
L 72.463339 99.80592 
L 75.490873 99.96072 
L 78.556946 99.6408 
L 81.548614 99.1764 
L 84.641235 99.70272 
L 87.694931 99.94008 
L 90.713709 98.57784 
L 93.749507 98.65008 
L 96.800776 98.38176 
L 99.832706 98.48496 
L 102.837313 96.70992 
L 105.915553 98.05152 
L 108.961196 98.48496 
L 111.985987 97.96896 
L 115.014682 96.32808 
L 118.065107 96.20424 
L 121.111278 96.16296 
L 124.113143 96.1836 
L 127.19852 96.50352 
L 130.269376 94.76976 
L 133.313859 97.19496 
L 136.343678 96.9576 
L 139.386895 97.9896 
L 142.458208 96.89568 
L 145.418791 95.45088 
L 148.518586 95.67792 
L 151.555649 93.43848 
L 154.526851 92.90184 
L 157.618488 92.25168 
L 160.657415 92.87088 
L 163.644968 94.2744 
L 166.694198 93.1392 
L 169.793536 92.97408 
L 172.855636 92.9844 
L 175.851558 92.60256 
L 178.904128 92.53032 
L 181.938871 94.54272 
L 184.991969 92.85024 
L 187.991302 94.82136 
L 191.074781 95.75016 
L 194.142401 96.97824 
L 197.158753 97.08144 
L 200.207737 97.23624 
L 203.263155 95.94624 
L 206.277995 96.30744 
L 209.274375 98.08248 
L 212.360597 97.2672 
L 215.438696 96.61704 
L 218.430785 97.23624 
L 221.500093 98.08248 
L 224.528506 99.18672 
L 227.568875 99.03192 
L 230.56318 99.1248 
L 233.663326 98.74296 
L 236.746383 99.09384 
L 239.754612 100.0536 
L 242.826909 101.23008 
L 245.854619 101.99376 
L 248.8427 102.08664 
L 251.834121 102.8916 
L 254.937538 102.45816 
L 257.989089 102.28272 
L 260.969222 102.10728 
L 264.038847 102.582 
L 267.094793 102.29304 
L 270.144832 102.08664 
L 273.160727 102.066 
L 276.220892 101.86992 
L 279.36 101.48808 
" clip-path="url(#p35c758e7c2)" style="fill: none; stroke: #f5841e; stroke-width: 0.6"/>
   </g>
  </g>
 </g>
 <defs>
  <clipPath id="p35c758e7c2">
   <rect x="8.64" y="4.8" width="270.72" height="103.2"/>
  </clipPath>
 </defs>
</svg>
