<?xml version="1.0" encoding="utf-8" standalone="no"?>
<!DOCTYPE svg PUBLIC "-//W3C//DTD SVG 1.1//EN"
  "http://www.w3.org/Graphics/SVG/1.1/DTD/svg11.dtd">
<svg xmlns:xlink="http://www.w3.org/1999/xlink" width="288pt" height="120pt" viewBox="0 0 288 120" xmlns="http://www.w3.org/2000/svg" version="1.1">
<desc id="nav-meta">{"window":"3m","count":4,"labels":["07.01","06.02","07.03","06.04"],"tick_utc":["2026-01-07T12:00:00Z","2026-02-06T03:19:18Z","2026-03-07T03:05:35Z","2026-04-06T03:50:17Z"],"w":720,"h":300}</desc>

 <metadata>
  <rdf:RDF xmlns:dc="http://purl.org/dc/elements/1.1/" xmlns:cc="http://creativecommons.org/ns#" xmlns:rdf="http://www.w3.org/1999/02/22-rdf-syntax-ns#">
   <cc:Work>
    <dc:type rdf:resource="http://purl.org/dc/dcmitype/StillImage"/>
    <dc:date>2026-04-06T19:40:38.265186</dc:date>
    <dc:format>image/svg+xml</dc:format>
    <dc:creator>
     <cc:Agent>
      <dc:title>Matplotlib v3.10.8, https://matplotlib.org/</dc:title>
     </cc:Agent>
    </dc:creator>
   </cc:Work>
  </rdf:RDF>
 </metadata>
 <defs>
  <style type="text/css">*{stroke-linejoin: round; stroke-linecap: butt}</style>
 </defs>
 <g id="figure_1">
  <g id="patch_1">
   <path d="M 0 120 
L 288 120 
L 288 0 
L 0 0 
L 0 120 
z
" style="fill: none; opacity: 0"/>
  </g>
  <g id="axes_1">
   <g id="patch_2">
    <path d="M 8.64 108 
L 279.36 108 
L 279.36 4.8 
L 8.64 4.8 
L 8.64 108 
z
" style="fill: none"/>
   </g>
   <g id="matplotlib.axis_1"/>
   <g id="matplotlib.axis_2"/>
   <g id="line2d_1">
    <path d="M 8.64 87.36 
L 279.36 87.36 
" clip-path="url(#p49ae5acaee)" style="fill: none; stroke: #b2b2b2; stroke-opacity: 0.35; stroke-width: 0.5; stroke-linecap: square"/>
   </g>
   <g id="line2d_2">
    <path d="M 8.64 66.72 
L 279.36 66.72 
" clip-path="url(#p49ae5acaee)" style="fill: none; stroke: #b2b2b2; stroke-opacity: 0.35; stroke-width: 0.5; stroke-linecap: square"/>
   </g>
   <g id="line2d_3">
    <path d="M 8.64 46.08 
L 279.36 46.08 
" clip-path="url(#p49ae5acaee)" style="fill: none; stroke: #b2b2b2; stroke-opacity: 0.35; stroke-width: 0.5; stroke-linecap: square"/>
   </g>
   <g id="line2d_4">
    <path d="M 8.64 25.44 
L 279.36 25.44 
" clip-path="url(#p49ae5acaee)" style="fill: none; stroke: #b2b2b2; stroke-opacity: 0.35; stroke-width: 0.5; stroke-linecap: square"/>
   </g>
   <g id="line2d_5">
    <path d="M 8.64 87.94824 
L 11.693465 89.2692 
L 14.746931 88.72224 
L 17.800396 89.39304 
L 20.853862 89.40336 
L 23.907327 88.41264 
L 26.960793 88.4952 
L 30.014258 86.86464 
L 33.067724 86.42088 
L 36.121189 87.62832 
L 39.174655 86.93688 
L 42.22812 87.23616 
L 45.281585 88.63968 
L 48.335051 90.0432 
L 51.388516 92.12784 
L 54.441982 91.16808 
L 57.495447 91.46736 
L 60.548913 91.73568 
L 63.602378 91.78728 
L 66.655844 94.0164 
L 69.709309 92.5716 
L 72.762775 91.76664 
L 75.81624 92.33424 
L 78.869706 94.36728 
L 81.923171 94.46016 
L 84.976636 97.71096 
L 88.030102 98.48496 
L 91.083567 97.85544 
L 93.661378 99.10416 
L 96.087929 100.16712 
L 99.139839 102.23112 
L 102.180228 100.54896 
L 105.303492 100.70376 
L 108.33176 100.68312 
L 111.402648 100.95144 
L 114.449788 101.28168 
L 117.492262 101.71512 
L 120.544809 101.84928 
L 123.561555 101.034 
L 126.4539 100.54896 
L 129.703226 101.04432 
L 132.373135 100.81728 
L 135.805315 101.034 
L 138.85507 101.4984 
L 141.890688 101.33328 
L 144.925493 101.1372 
L 148.01384 101.06496 
L 151.076495 102.09696 
L 153.872006 102.05568 
L 157.172434 101.4984 
L 160.212294 100.60056 
L 163.259963 100.80696 
L 166.277451 101.45712 
L 169.400291 100.55928 
L 172.422233 101.10624 
L 175.482802 100.8792 
L 178.519162 100.74504 
L 181.579201 100.21872 
L 184.631217 100.53864 
L 187.661252 101.07528 
L 190.744368 101.38488 
L 193.806987 101.26104 
L 196.840838 100.78632 
L 199.893102 100.91016 
L 202.958583 100.99272 
L 206.006147 100.38384 
L 209.055548 100.50768 
L 212.167432 100.60056 
L 215.229521 99.76464 
L 218.229551 99.49632 
L 221.306306 99.40344 
L 224.36062 100.09488 
L 227.384363 100.3632 
L 230.419946 100.19808 
L 233.519072 100.47672 
L 236.579712 100.79664 
L 239.604905 100.26 
L 242.88579 99.83688 
L 245.748979 100.13616 
L 248.806297 100.80696 
L 251.83057 101.38488 
L 254.925632 101.3436 
L 257.987827 101.292 
L 261.022032 101.28168 
L 264.101685 101.28168 
L 267.114932 101.8596 
L 270.171896 101.88024 
L 273.199209 101.72544 
L 276.298653 101.68416 
L 279.36 101.47776 
" clip-path="url(#p49ae5acaee)" style="fill: none; stroke: #bebebe; stroke-width: 0.5; stroke-linecap: round"/>
   </g>
   <g id="line2d_6">
    <path d="M 8.64 70.6932 
L 11.693465 72.62304 
L 14.746931 73.52088 
L 17.800396 73.83048 
L 20.853862 73.8408 
L 23.907327 73.29384 
L 26.960793 73.72728 
L 30.014258 70.32168 
L 33.067724 69.77472 
L 36.121189 70.34232 
L 39.174655 70.67256 
L 42.22812 70.51776 
L 45.281585 70.848 
L 48.335051 72.31344 
L 51.388516 76.01832 
L 54.441982 75.41976 
L 57.495447 75.83256 
L 60.548913 75.79128 
L 63.602378 75.82224 
L 66.655844 77.82432 
L 69.709309 76.14216 
L 72.762775 74.75928 
L 75.81624 74.96568 
L 78.869706 77.75208 
L 81.923171 79.48584 
L 84.976636 83.31456 
L 88.030102 85.90488 
L 91.083567 84.79032 
L 93.661378 85.84296 
L 96.087929 88.25784 
L 99.139839 91.41576 
L 102.180228 88.7532 
L 105.303492 88.65 
L 108.33176 88.55712 
L 111.402648 88.96992 
L 114.449788 89.7336 
L 117.492262 90.456 
L 120.544809 90.56952 
L 123.561555 89.15568 
L 126.4539 88.9596 
L 129.703226 90.6624 
L 132.373135 89.94 
L 135.805315 90.00192 
L 138.85507 90.3528 
L 141.890688 90.62112 
L 144.925493 90.5076 
L 148.01384 90.3528 
L 151.076495 92.004 
L 153.872006 92.13816 
L 157.172434 91.25064 
L 160.212294 89.166 
L 163.259963 89.56848 
L 166.277451 90.93072 
L 169.400291 89.41368 
L 172.422233 90.37344 
L 175.482802 89.79552 
L 178.519162 90.23928 
L 181.579201 88.0824 
L 184.631217 88.7532 
L 187.661252 90.16704 
L 190.744368 90.67272 
L 193.806987 90.18768 
L 196.840838 89.2692 
L 199.893102 89.54784 
L 202.958583 89.49624 
L 206.006147 88.31976 
L 209.055548 88.45392 
L 212.167432 88.46424 
L 215.229521 86.38992 
L 218.229551 84.80064 
L 221.306306 84.8316 
L 224.36062 86.586 
L 227.384363 87.74184 
L 230.419946 87.618 
L 233.519072 88.19592 
L 236.579712 89.08344 
L 239.604905 87.89664 
L 242.88579 87.3084 
L 245.748979 87.65928 
L 248.806297 88.96992 
L 251.83057 90.07416 
L 254.925632 89.76456 
L 257.987827 89.3724 
L 261.022032 89.00088 
L 264.101685 88.42296 
L 267.114932 88.81512 
L 270.171896 89.10408 
L 273.199209 89.14536 
L 276.298653 89.07312 
L 279.36 87.9792 
" clip-path="url(#p49ae5acaee)" style="fill: none; stroke: #4a8dff; stroke-width: 0.6"/>
   </g>
   <g id="line2d_7">
    <path d="M 8.64 79.66128 
L 11.693465 82.15872 
L 14.746931 82.43736 
L 17.800396 82.93272 
L 20.853862 83.00496 
L 23.907327 82.6128 
L 26.960793 82.28256 
L 30.014258 78.01008 
L 33.067724 76.19376 
L 36.121189 77.66952 
L 39.174655 77.74176 
L 42.22812 78.1752 
L 45.281585 79.5684 
L 48.335051 80.8068 
L 51.388516 85.20312 
L 54.441982 84.12984 
L 57.495447 84.03696 
L 60.548913 84.06792 
L 63.602378 84.3156 
L 66.655844 87.02976 
L 69.709309 85.21344 
L 72.762775 84.28464 
L 75.81624 84.32592 
L 78.869706 89.08344 
L 81.923171 89.5272 
L 84.976636 95.14128 
L 88.030102 96.98856 
L 91.083567 95.08968 
L 93.661378 97.71096 
L 96.087929 99.80592 
L 99.139839 101.79768 
L 102.180228 100.03296 
L 105.303492 100.518 
L 108.33176 99.98136 
L 111.402648 100.49736 
L 114.449788 100.78632 
L 117.492262 101.07528 
L 120.544809 101.26104 
L 123.561555 100.63152 
L 126.4539 100.38384 
L 129.703226 100.84824 
L 132.373135 100.65216 
L 135.805315 101.034 
L 138.85507 101.19912 
L 141.890688 101.10624 
L 144.925493 100.97208 
L 148.01384 100.91016 
L 151.076495 101.7564 
L 153.872006 101.84928 
L 157.172434 101.56032 
L 160.212294 100.85856 
L 163.259963 101.12688 
L 166.277451 101.4468 
L 169.400291 101.02368 
L 172.422233 101.30232 
L 175.482802 100.81728 
L 178.519162 100.79664 
L 181.579201 99.3312 
L 184.631217 99.92976 
L 187.661252 100.78632 
L 190.744368 101.17848 
L 193.806987 101.1372 
L 196.840838 100.21872 
L 199.893102 100.37352 
L 202.958583 100.4664 
L 206.006147 99.88848 
L 209.055548 99.94008 
L 212.167432 99.81624 
L 215.229521 98.93904 
L 218.229551 98.3508 
L 221.306306 98.52624 
L 224.36062 99.78528 
L 227.384363 100.12584 
L 230.419946 100.03296 
L 233.519072 100.45608 
L 236.579712 100.83792 
L 239.604905 100.11552 
L 242.88579 99.87816 
L 245.748979 100.002 
L 248.806297 100.64184 
L 251.83057 101.41584 
L 254.925632 101.21976 
L 257.987827 101.14752 
L 261.022032 101.00304 
L 264.101685 100.86888 
L 267.114932 101.21976 
L 270.171896 101.28168 
L 273.199209 101.20944 
L 276.298653 101.14752 
L 279.36 100.55928 
" clip-path="url(#p49ae5acaee)" style="fill: none; stroke: #f5841e; stroke-width: 0.6"/>
   </g>
  </g>
 </g>
 <defs>
  <clipPath id="p49ae5acaee">
   <rect x="8.64" y="4.8" width="270.72" height="103.2"/>
  </clipPath>
 </defs>
</svg>
