<?xml version="1.0" encoding="utf-8" standalone="no"?>
<!DOCTYPE svg PUBLIC "-//W3C//DTD SVG 1.1//EN"
  "http://www.w3.org/Graphics/SVG/1.1/DTD/svg11.dtd">
<svg xmlns:xlink="http://www.w3.org/1999/xlink" width="288pt" height="120pt" viewBox="0 0 288 120" xmlns="http://www.w3.org/2000/svg" version="1.1">
<desc id="nav-meta">{"window":"1m","count":4,"labels":["26.02","08.03","17.03","27.03"],"tick_utc":["2026-02-26T03:20:47Z","2026-03-08T03:19:34Z","2026-03-17T03:21:27Z","2026-03-27T03:41:18Z"],"w":720,"h":300}</desc>

 <metadata>
  <rdf:RDF xmlns:dc="http://purl.org/dc/elements/1.1/" xmlns:cc="http://creativecommons.org/ns#" xmlns:rdf="http://www.w3.org/1999/02/22-rdf-syntax-ns#">
   <cc:Work>
    <dc:type rdf:resource="http://purl.org/dc/dcmitype/StillImage"/>
    <dc:date>2026-03-27T19:28:54.309086</dc:date>
    <dc:format>image/svg+xml</dc:format>
    <dc:creator>
     <cc:Agent>
      <dc:title>Matplotlib v3.10.8, https://matplotlib.org/</dc:title>
     </cc:Agent>
    </dc:creator>
   </cc:Work>
  </rdf:RDF>
 </metadata>
 <defs>
  <style type="text/css">*{stroke-linejoin: round; stroke-linecap: butt}</style>
 </defs>
 <g id="figure_1">
  <g id="patch_1">
   <path d="M 0 120 
L 288 120 
L 288 0 
L 0 0 
L 0 120 
z
" style="fill: none; opacity: 0"/>
  </g>
  <g id="axes_1">
   <g id="patch_2">
    <path d="M 8.64 108 
L 279.36 108 
L 279.36 4.8 
L 8.64 4.8 
L 8.64 108 
z
" style="fill: none"/>
   </g>
   <g id="matplotlib.axis_1"/>
   <g id="matplotlib.axis_2"/>
   <g id="line2d_1">
    <path d="M 8.64 87.36 
L 279.36 87.36 
" clip-path="url(#p6425ba56ad)" style="fill: none; stroke: #b2b2b2; stroke-opacity: 0.35; stroke-width: 0.5; stroke-linecap: square"/>
   </g>
   <g id="line2d_2">
    <path d="M 8.64 66.72 
L 279.36 66.72 
" clip-path="url(#p6425ba56ad)" style="fill: none; stroke: #b2b2b2; stroke-opacity: 0.35; stroke-width: 0.5; stroke-linecap: square"/>
   </g>
   <g id="line2d_3">
    <path d="M 8.64 46.08 
L 279.36 46.08 
" clip-path="url(#p6425ba56ad)" style="fill: none; stroke: #b2b2b2; stroke-opacity: 0.35; stroke-width: 0.5; stroke-linecap: square"/>
   </g>
   <g id="line2d_4">
    <path d="M 8.64 25.44 
L 279.36 25.44 
" clip-path="url(#p6425ba56ad)" style="fill: none; stroke: #b2b2b2; stroke-opacity: 0.35; stroke-width: 0.5; stroke-linecap: square"/>
   </g>
   <g id="line2d_5">
    <path d="M 8.64 100.60056 
L 17.952877 100.80696 
L 27.173529 101.45712 
L 36.716107 100.55928 
L 45.950366 101.10624 
L 55.302661 100.8792 
L 64.580981 100.74504 
L 73.931656 100.21872 
L 83.257816 100.53864 
L 92.516805 101.07528 
L 101.938 101.38488 
L 111.296558 101.26104 
L 120.56721 100.78632 
L 129.894127 100.91016 
L 139.261433 100.99272 
L 148.573986 100.38384 
L 157.892155 100.50768 
L 167.401256 100.60056 
L 176.758194 99.76464 
L 185.925497 99.49632 
L 195.327253 99.40344 
L 204.660433 100.09488 
L 213.900199 100.3632 
L 223.176143 100.19808 
L 232.646258 100.47672 
L 241.998769 100.79664 
L 251.242963 100.26 
L 261.268486 99.83688 
L 270.01764 100.13616 
L 279.36 100.80696 
" clip-path="url(#p6425ba56ad)" style="fill: none; stroke: #bebebe; stroke-width: 0.5; stroke-linecap: round"/>
   </g>
   <g id="line2d_6">
    <path d="M 8.64 89.166 
L 17.952877 89.56848 
L 27.173529 90.93072 
L 36.716107 89.41368 
L 45.950366 90.37344 
L 55.302661 89.79552 
L 64.580981 90.23928 
L 73.931656 88.0824 
L 83.257816 88.7532 
L 92.516805 90.16704 
L 101.938 90.67272 
L 111.296558 90.18768 
L 120.56721 89.2692 
L 129.894127 89.54784 
L 139.261433 89.49624 
L 148.573986 88.31976 
L 157.892155 88.45392 
L 167.401256 88.46424 
L 176.758194 86.38992 
L 185.925497 84.80064 
L 195.327253 84.8316 
L 204.660433 86.586 
L 213.900199 87.74184 
L 223.176143 87.618 
L 232.646258 88.19592 
L 241.998769 89.08344 
L 251.242963 87.89664 
L 261.268486 87.3084 
L 270.01764 87.65928 
L 279.36 88.96992 
" clip-path="url(#p6425ba56ad)" style="fill: none; stroke: #4a8dff; stroke-width: 0.6"/>
   </g>
   <g id="line2d_7">
    <path d="M 8.64 100.85856 
L 17.952877 101.12688 
L 27.173529 101.4468 
L 36.716107 101.02368 
L 45.950366 101.30232 
L 55.302661 100.81728 
L 64.580981 100.79664 
L 73.931656 99.3312 
L 83.257816 99.92976 
L 92.516805 100.78632 
L 101.938 101.17848 
L 111.296558 101.1372 
L 120.56721 100.21872 
L 129.894127 100.37352 
L 139.261433 100.4664 
L 148.573986 99.88848 
L 157.892155 99.94008 
L 167.401256 99.81624 
L 176.758194 98.93904 
L 185.925497 98.3508 
L 195.327253 98.52624 
L 204.660433 99.78528 
L 213.900199 100.12584 
L 223.176143 100.03296 
L 232.646258 100.45608 
L 241.998769 100.83792 
L 251.242963 100.11552 
L 261.268486 99.87816 
L 270.01764 100.002 
L 279.36 100.64184 
" clip-path="url(#p6425ba56ad)" style="fill: none; stroke: #f5841e; stroke-width: 0.6"/>
   </g>
  </g>
 </g>
 <defs>
  <clipPath id="p6425ba56ad">
   <rect x="8.64" y="4.8" width="270.72" height="103.2"/>
  </clipPath>
 </defs>
</svg>
