<?xml version="1.0" encoding="utf-8" standalone="no"?>
<!DOCTYPE svg PUBLIC "-//W3C//DTD SVG 1.1//EN"
  "http://www.w3.org/Graphics/SVG/1.1/DTD/svg11.dtd">
<svg xmlns:xlink="http://www.w3.org/1999/xlink" width="288pt" height="120pt" viewBox="0 0 288 120" xmlns="http://www.w3.org/2000/svg" version="1.1">
<desc id="nav-meta">{"window":"1y","count":4,"labels":["05.07","03.11","05.03","04.07"],"tick_utc":["2025-07-05T12:00:00Z","2025-11-03T12:00:00Z","2026-03-05T03:17:19Z","2026-07-04T04:23:54Z"],"w":720,"h":300}</desc>

 <metadata>
  <rdf:RDF xmlns:dc="http://purl.org/dc/elements/1.1/" xmlns:cc="http://creativecommons.org/ns#" xmlns:rdf="http://www.w3.org/1999/02/22-rdf-syntax-ns#">
   <cc:Work>
    <dc:type rdf:resource="http://purl.org/dc/dcmitype/StillImage"/>
    <dc:date>2026-07-04T19:52:07.473540</dc:date>
    <dc:format>image/svg+xml</dc:format>
    <dc:creator>
     <cc:Agent>
      <dc:title>Matplotlib v3.11.0, https://matplotlib.org/</dc:title>
     </cc:Agent>
    </dc:creator>
   </cc:Work>
  </rdf:RDF>
 </metadata>
 <defs>
  <style type="text/css">*{stroke-linejoin: round; stroke-linecap: butt}</style>
 </defs>
 <g id="figure_1">
  <g id="patch_1">
   <path d="M 0 120 
L 288 120 
L 288 0 
L 0 0 
L 0 120 
z
" style="fill: none; opacity: 0"/>
  </g>
  <g id="axes_1">
   <g id="patch_2">
    <path d="M 8.64 108 
L 279.36 108 
L 279.36 4.8 
L 8.64 4.8 
L 8.64 108 
z
" style="fill: none"/>
   </g>
   <g id="matplotlib.axis_1"/>
   <g id="matplotlib.axis_2"/>
   <g id="line2d_1">
    <path d="M 8.64 87.36 
L 279.36 87.36 
" clip-path="url(#pd55c75ccfa)" style="fill: none; stroke: #b2b2b2; stroke-opacity: 0.35; stroke-width: 0.5; stroke-linecap: square"/>
   </g>
   <g id="line2d_2">
    <path d="M 8.64 66.72 
L 279.36 66.72 
" clip-path="url(#pd55c75ccfa)" style="fill: none; stroke: #b2b2b2; stroke-opacity: 0.35; stroke-width: 0.5; stroke-linecap: square"/>
   </g>
   <g id="line2d_3">
    <path d="M 8.64 46.08 
L 279.36 46.08 
" clip-path="url(#pd55c75ccfa)" style="fill: none; stroke: #b2b2b2; stroke-opacity: 0.35; stroke-width: 0.5; stroke-linecap: square"/>
   </g>
   <g id="line2d_4">
    <path d="M 8.64 25.44 
L 279.36 25.44 
" clip-path="url(#pd55c75ccfa)" style="fill: none; stroke: #b2b2b2; stroke-opacity: 0.35; stroke-width: 0.5; stroke-linecap: square"/>
   </g>
   <g id="line2d_5">
    <path d="M 8.64 86.13192 
L 9.384384 86.1732 
L 10.128768 84.99672 
L 10.873152 85.85328 
L 11.617536 85.01736 
L 12.36192 83.55192 
L 13.106304 81.7356 
L 13.850688 82.03488 
L 14.595072 82.65408 
L 16.08384 82.15872 
L 16.828224 81.70464 
L 17.572608 79.01112 
L 18.316992 78.39192 
L 19.061376 78.04104 
L 19.80576 78.16488 
L 20.550144 77.05032 
L 21.294528 72.82944 
L 22.038912 70.41456 
L 22.783296 74.69736 
L 23.52768 76.6272 
L 24.272064 75.63648 
L 25.016448 75.97704 
L 25.760832 74.976 
L 26.505216 76.49304 
L 27.2496 76.99872 
L 27.993984 77.90688 
L 28.738368 79.4652 
L 29.482752 82.02456 
L 30.227136 83.19072 
L 30.97152 82.27224 
L 31.715904 80.21856 
L 32.460288 81.67368 
L 33.204672 80.5488 
L 33.949056 78.588 
L 34.69344 78.19584 
L 35.437824 77.21544 
L 36.182208 76.524 
L 36.926592 78.68088 
L 37.670976 73.88208 
L 38.41536 71.364 
L 39.159744 73.8408 
L 39.904128 75.79128 
L 40.648512 74.65608 
L 41.392896 74.14008 
L 42.13728 76.50336 
L 42.881664 78.30936 
L 43.626048 75.3372 
L 44.370432 77.25672 
L 45.114816 71.78712 
L 45.8592 70.75512 
L 46.603584 70.24944 
L 47.347968 75.35784 
L 48.092352 72.95328 
L 48.836736 70.96152 
L 49.58112 67.87584 
L 50.325504 70.46616 
L 51.069888 71.11632 
L 51.814272 71.61168 
L 52.558656 72.7056 
L 53.30304 69.33096 
L 54.047424 68.9388 
L 54.791808 71.12664 
L 55.536192 70.90992 
L 56.280576 71.80776 
L 57.02496 70.074 
L 57.769344 68.01 
L 58.513728 67.10184 
L 59.258111 65.29584 
L 60.002495 64.01616 
L 60.746879 60.31128 
L 61.491263 60.19776 
L 62.235647 60.786 
L 62.980031 62.61264 
L 63.724415 61.74576 
L 64.468799 59.57856 
L 65.213183 58.86648 
L 65.957567 61.38456 
L 66.701951 61.07496 
L 67.446335 61.83864 
L 68.190719 66.29688 
L 68.935103 67.97904 
L 69.679487 68.69112 
L 70.423871 73.9956 
L 71.168255 70.45584 
L 71.912639 70.87896 
L 72.657023 68.91816 
L 73.401407 68.3196 
L 74.145791 69.47544 
L 75.634559 62.39592 
L 76.378943 62.81904 
L 77.123327 64.22256 
L 77.867711 64.05744 
L 78.612095 62.9532 
L 79.356479 66.14208 
L 80.100863 63.91296 
L 80.845247 66.17304 
L 81.589631 74.6148 
L 82.334015 77.78304 
L 83.078399 72.66432 
L 83.822783 69.69216 
L 84.567167 71.09568 
L 86.055935 76.06992 
L 86.800319 76.76136 
L 87.544703 75.25464 
L 88.289087 75.24432 
L 89.033471 74.63544 
L 89.777855 75.73968 
L 90.522239 77.31864 
L 91.266623 74.202 
L 92.011007 73.64472 
L 92.755391 73.48992 
L 93.499775 71.83872 
L 94.244159 72.17928 
L 94.988543 73.38672 
L 95.732927 73.43832 
L 96.477311 76.15248 
L 97.221695 75.3372 
L 97.966079 75.58488 
L 98.710463 75.35784 
L 99.454847 81.168 
L 100.199231 84.01632 
L 100.943615 82.06584 
L 101.687999 84.19176 
L 102.432383 82.27224 
L 103.176767 83.29392 
L 103.921151 81.62208 
L 104.665535 80.72424 
L 105.409919 84.33624 
L 106.154303 84.64584 
L 106.898687 86.844 
L 107.643071 88.52616 
L 108.387455 88.36104 
L 109.131839 88.93896 
L 109.876223 90.79656 
L 110.620607 88.09272 
L 111.364991 89.22792 
L 112.109375 90.00192 
L 112.853759 91.39512 
L 113.598143 91.63248 
L 114.342527 90.75528 
L 115.086911 88.7016 
L 115.831295 88.52616 
L 116.575679 87.45288 
L 117.320063 88.0308 
L 118.064447 88.94928 
L 119.553215 89.7336 
L 120.297599 91.86984 
L 121.041983 88.60872 
L 121.786367 86.87496 
L 123.275135 90.11544 
L 124.763903 90.53856 
L 125.508287 90.08448 
L 126.252671 88.79448 
L 126.997055 89.20728 
L 127.741439 89.22792 
L 128.485823 90.31152 
L 129.230207 90.10512 
L 129.974591 91.09584 
L 130.718975 91.61184 
L 131.463359 91.31256 
L 132.207743 92.87088 
L 132.952127 93.8616 
L 133.696511 92.02464 
L 134.440895 92.13816 
L 135.185279 92.07624 
L 135.929663 92.14848 
L 138.162815 93.69648 
L 139.651583 92.44776 
L 140.395967 92.30328 
L 141.140351 92.87088 
L 141.884735 92.38584 
L 142.629119 92.47872 
L 143.373503 91.88016 
L 144.117887 90.42504 
L 144.862271 90.08448 
L 145.606655 89.92968 
L 146.351039 88.76352 
L 147.095423 87.94824 
L 147.839807 89.2692 
L 148.584191 88.72224 
L 149.328575 89.39304 
L 150.072959 89.40336 
L 150.817343 88.41264 
L 151.561727 88.4952 
L 152.306111 86.86464 
L 153.050495 86.42088 
L 153.794879 87.62832 
L 154.539263 86.93688 
L 155.283647 87.23616 
L 156.772415 90.0432 
L 157.516799 92.12784 
L 158.261183 91.16808 
L 159.74995 91.73568 
L 160.494334 91.78728 
L 161.238718 94.0164 
L 161.983102 92.5716 
L 162.727486 91.76664 
L 163.47187 92.33424 
L 164.216254 94.36728 
L 164.960638 94.46016 
L 165.705022 97.71096 
L 166.449406 98.48496 
L 167.19379 97.85544 
L 168.41377 100.16712 
L 169.157775 102.23112 
L 169.898971 100.54896 
L 170.660371 100.70376 
L 171.398612 100.68312 
L 172.890086 101.28168 
L 173.63179 101.71512 
L 174.37595 101.84928 
L 175.111383 101.034 
L 175.816488 100.54896 
L 176.60862 101.04432 
L 177.259499 100.81728 
L 178.096207 101.034 
L 178.839687 101.4984 
L 181.072442 101.06496 
L 181.819066 102.09696 
L 182.500565 102.05568 
L 183.305155 101.4984 
L 184.046222 100.60056 
L 184.789193 100.80696 
L 185.524806 101.45712 
L 186.286103 100.55928 
L 187.022801 101.10624 
L 188.509131 100.74504 
L 189.255118 100.21872 
L 189.999149 100.53864 
L 190.73782 101.07528 
L 191.489433 101.38488 
L 192.236048 101.26104 
L 192.975651 100.78632 
L 194.467055 100.99272 
L 195.21 100.38384 
L 196.712019 100.60056 
L 197.458505 99.76464 
L 198.189862 99.49632 
L 198.939924 99.40344 
L 199.684515 100.09488 
L 200.421653 100.3632 
L 201.161678 100.19808 
L 202.663326 100.79664 
L 203.400817 100.26 
L 204.200642 99.83688 
L 204.89864 100.13616 
L 206.381231 101.38488 
L 209.372724 101.28168 
L 210.107304 101.8596 
L 210.852541 101.88024 
L 211.590549 101.72544 
L 212.346142 101.68416 
L 213.092447 101.47776 
L 213.831998 101.78736 
L 214.577588 101.09592 
L 215.319379 101.46744 
L 216.070612 101.3436 
L 216.803615 101.05464 
L 217.561353 101.3952 
L 218.309554 101.47776 
L 219.049199 100.86888 
L 219.793014 101.26104 
L 222.019662 100.44576 
L 222.773876 100.94112 
L 223.520104 101.09592 
L 224.261222 101.00304 
L 225.003297 100.69344 
L 225.750697 100.9308 
L 227.988518 100.8792 
L 228.740924 100.64184 
L 229.486867 101.1888 
L 230.229218 101.09592 
L 230.974851 101.37456 
L 231.727368 101.21976 
L 233.21225 101.23008 
L 233.956376 100.92048 
L 234.684365 101.06496 
L 235.441861 100.70376 
L 236.186444 100.55928 
L 236.918438 100.53864 
L 237.665545 99.60984 
L 238.424929 99.72336 
L 239.909234 99.25896 
L 240.657159 99.32088 
L 241.400716 100.22904 
L 242.14877 100.01232 
L 243.639149 100.75536 
L 244.390761 101.02368 
L 245.129812 101.02368 
L 245.876858 101.17848 
L 246.625481 100.7244 
L 247.364162 100.75536 
L 248.098319 101.11656 
L 248.854489 100.91016 
L 249.608669 100.89984 
L 250.341775 101.1372 
L 251.093801 101.2404 
L 251.835807 101.6532 
L 252.580743 101.4984 
L 253.314392 101.48808 
L 254.073974 101.32296 
L 255.566429 101.7048 
L 256.319187 102.54072 
L 257.061021 103.08768 
L 257.793145 103.36632 
L 258.526088 104.22288 
L 259.286471 103.85136 
L 260.764323 103.43856 
L 261.516426 103.81008 
L 262.265179 103.72752 
L 263.012483 103.50048 
L 263.751422 103.5108 
L 264.501208 103.31472 
L 266.018967 102.61296 
L 266.739641 102.6336 
L 268.242375 103.28376 
L 269.716867 102.69552 
L 270.48304 102.582 
L 271.929971 103.15992 
L 272.674157 103.36632 
L 273.422357 103.36632 
L 274.157617 102.81936 
L 274.916191 103.0464 
L 275.66596 102.9432 
L 276.395913 102.59232 
L 277.151187 102.40656 
L 279.36 101.3436 
L 279.36 101.3436 
" clip-path="url(#pd55c75ccfa)" style="fill: none; stroke: #bebebe; stroke-width: 0.5; stroke-linecap: round"/>
   </g>
   <g id="line2d_6">
    <path d="M 8.64 82.34448 
L 9.384384 82.23096 
L 10.128768 81.426 
L 10.873152 81.8388 
L 11.617536 80.76552 
L 13.106304 75.83256 
L 13.850688 75.67776 
L 14.595072 75.91512 
L 16.08384 74.88312 
L 16.828224 73.09776 
L 17.572608 69.6096 
L 18.316992 67.91712 
L 19.061376 66.94704 
L 19.80576 66.24528 
L 20.550144 63.80976 
L 21.294528 63.70656 
L 22.038912 63.9852 
L 22.783296 65.71896 
L 23.52768 64.5528 
L 25.016448 64.05744 
L 25.760832 62.25144 
L 26.505216 63.39696 
L 27.2496 63.366 
L 27.993984 63.08736 
L 28.738368 64.72824 
L 29.482752 67.89648 
L 30.227136 69.16584 
L 30.97152 67.69008 
L 31.715904 64.4496 
L 32.460288 65.97696 
L 33.204672 64.914 
L 33.949056 61.54968 
L 34.69344 60.04296 
L 35.437824 56.28648 
L 36.182208 56.47224 
L 36.926592 56.83344 
L 37.670976 51.22968 
L 38.41536 48.89736 
L 39.159744 52.00368 
L 39.904128 53.84064 
L 40.648512 53.90256 
L 41.392896 53.00472 
L 42.13728 55.5228 
L 42.881664 59.12448 
L 43.626048 55.32672 
L 44.370432 56.90568 
L 45.114816 47.92728 
L 45.8592 48.75288 
L 46.603584 48.68064 
L 47.347968 54.57336 
L 48.092352 51.2916 
L 48.836736 52.80864 
L 49.58112 52.69512 
L 50.325504 54.82104 
L 51.814272 54.45984 
L 52.558656 55.7292 
L 53.30304 55.39896 
L 54.047424 53.55168 
L 54.791808 55.81176 
L 55.536192 55.6776 
L 56.280576 56.18328 
L 57.02496 55.71888 
L 58.513728 55.63632 
L 59.258111 55.07904 
L 60.002495 53.41752 
L 60.746879 49.71264 
L 61.491263 50.32152 
L 62.235647 51.17808 
L 62.980031 52.44744 
L 63.724415 52.74672 
L 64.468799 51.4464 
L 65.213183 51.46704 
L 65.957567 53.2524 
L 66.701951 53.08728 
L 67.446335 53.5104 
L 68.190719 57.26688 
L 68.935103 57.76224 
L 69.679487 58.02024 
L 70.423871 62.26176 
L 71.168255 59.68176 
L 71.912639 59.9604 
L 72.657023 58.12344 
L 73.401407 57.02952 
L 74.145791 58.09248 
L 74.890175 55.13064 
L 75.634559 53.046 
L 76.378943 52.5816 
L 77.123327 52.9944 
L 77.867711 52.5816 
L 78.612095 50.0016 
L 79.356479 53.48976 
L 80.100863 52.40616 
L 80.845247 54.75912 
L 81.589631 62.67456 
L 82.334015 63.95424 
L 83.078399 57.86544 
L 83.822783 56.57544 
L 84.567167 58.31952 
L 85.311551 60.4764 
L 86.055935 61.85928 
L 86.800319 62.73648 
L 87.544703 61.8696 
L 88.289087 60.45576 
L 89.033471 60.54864 
L 89.777855 62.04504 
L 90.522239 63.16992 
L 91.266623 62.36496 
L 92.011007 61.21944 
L 92.755391 60.9408 
L 93.499775 57.83448 
L 94.244159 58.40208 
L 94.988543 60.49704 
L 96.477311 63.1596 
L 97.221695 62.49912 
L 97.966079 62.1276 
L 98.710463 61.56 
L 100.199231 70.66224 
L 100.943615 68.72208 
L 101.687999 70.4868 
L 102.432383 68.61888 
L 103.176767 69.11424 
L 103.921151 66.5136 
L 104.665535 66.68904 
L 105.409919 68.8872 
L 106.154303 68.9904 
L 106.898687 71.5704 
L 107.643071 73.48992 
L 108.387455 72.54048 
L 109.876223 74.74896 
L 110.620607 73.3248 
L 111.364991 74.80056 
L 112.109375 77.556 
L 112.853759 78.55704 
L 113.598143 78.50544 
L 114.342527 78.04104 
L 115.086911 75.76032 
L 115.831295 75.73968 
L 116.575679 74.65608 
L 117.320063 74.83152 
L 118.064447 74.57352 
L 118.808831 75.20304 
L 119.553215 75.17208 
L 120.297599 78.05136 
L 121.786367 72.16896 
L 122.530751 73.08744 
L 123.275135 74.72832 
L 124.763903 74.28456 
L 125.508287 73.21128 
L 126.252671 70.2804 
L 126.997055 70.2288 
L 127.741439 71.56008 
L 128.485823 73.79952 
L 129.230207 73.35576 
L 129.974591 74.0988 
L 130.718975 75.5952 
L 131.463359 75.5952 
L 132.207743 77.61792 
L 132.952127 77.63856 
L 133.696511 75.40944 
L 134.440895 75.40944 
L 135.185279 75.04824 
L 135.929663 74.98632 
L 136.674047 75.58488 
L 137.418431 75.87384 
L 138.162815 76.49304 
L 139.651583 75.82224 
L 140.395967 75.84288 
L 141.140351 76.03896 
L 141.884735 75.51264 
L 142.629119 75.56424 
L 143.373503 75.05856 
L 144.117887 73.26288 
L 144.862271 73.20096 
L 145.606655 73.00488 
L 146.351039 71.68392 
L 147.095423 70.6932 
L 147.839807 72.62304 
L 148.584191 73.52088 
L 149.328575 73.83048 
L 150.072959 73.8408 
L 150.817343 73.29384 
L 151.561727 73.72728 
L 152.306111 70.32168 
L 153.050495 69.77472 
L 153.794879 70.34232 
L 154.539263 70.67256 
L 155.283647 70.51776 
L 156.028031 70.848 
L 156.772415 72.31344 
L 157.516799 76.01832 
L 158.261183 75.41976 
L 159.005566 75.83256 
L 160.494334 75.82224 
L 161.238718 77.82432 
L 161.983102 76.14216 
L 162.727486 74.75928 
L 163.47187 74.96568 
L 164.216254 77.75208 
L 164.960638 79.48584 
L 165.705022 83.31456 
L 166.449406 85.90488 
L 167.19379 84.79032 
L 167.822218 85.84296 
L 169.157775 91.41576 
L 169.898971 88.7532 
L 171.398612 88.55712 
L 172.147244 88.96992 
L 173.63179 90.456 
L 174.37595 90.56952 
L 175.111383 89.15568 
L 175.816488 88.9596 
L 176.60862 90.6624 
L 177.259499 89.94 
L 178.096207 90.00192 
L 179.57972 90.62112 
L 181.072442 90.3528 
L 181.819066 92.004 
L 182.500565 92.13816 
L 183.305155 91.25064 
L 184.046222 89.166 
L 184.789193 89.56848 
L 185.524806 90.93072 
L 186.286103 89.41368 
L 187.022801 90.37344 
L 187.768917 89.79552 
L 188.509131 90.23928 
L 189.255118 88.0824 
L 189.999149 88.7532 
L 190.73782 90.16704 
L 191.489433 90.67272 
L 192.236048 90.18768 
L 192.975651 89.2692 
L 193.719742 89.54784 
L 194.467055 89.49624 
L 195.21 88.31976 
L 195.953393 88.45392 
L 196.712019 88.46424 
L 197.458505 86.38992 
L 198.189862 84.80064 
L 198.939924 84.8316 
L 199.684515 86.586 
L 200.421653 87.74184 
L 201.161678 87.618 
L 201.917193 88.19592 
L 202.663326 89.08344 
L 203.400817 87.89664 
L 204.200642 87.3084 
L 204.89864 87.65928 
L 206.381231 90.07416 
L 207.882267 89.3724 
L 208.621956 89.00088 
L 209.372724 88.42296 
L 210.852541 89.10408 
L 211.590549 89.14536 
L 212.346142 89.07312 
L 213.092447 87.9792 
L 213.831998 88.29912 
L 214.577588 86.38992 
L 215.319379 87.24648 
L 216.070612 87.1536 
L 216.803615 86.21448 
L 218.309554 87.01944 
L 219.049199 84.44976 
L 219.793014 85.05864 
L 220.540621 84.58392 
L 221.283488 85.04832 
L 222.019662 83.71704 
L 222.773876 84.86256 
L 223.520104 85.6572 
L 224.261222 85.27536 
L 225.003297 84.49104 
L 226.497054 85.32696 
L 227.232555 85.17216 
L 227.988518 85.31664 
L 228.740924 84.11952 
L 229.486867 85.66752 
L 230.229218 85.26504 
L 230.974851 86.26608 
L 232.452755 85.38888 
L 233.21225 85.3992 
L 233.956376 84.09888 
L 235.441861 84.34656 
L 236.918438 85.7604 
L 237.665545 85.0896 
L 239.175188 84.9348 
L 239.909234 85.296 
L 240.657159 85.35792 
L 241.400716 86.1732 
L 242.14877 85.92552 
L 243.639149 87.13296 
L 244.390761 88.10304 
L 245.129812 87.9276 
L 245.876858 88.26816 
L 246.625481 87.78312 
L 247.364162 87.95856 
L 248.098319 88.94928 
L 248.854489 88.14432 
L 250.341775 88.52616 
L 251.093801 88.86672 
L 251.835807 90.22896 
L 252.580743 89.82648 
L 253.314392 89.87808 
L 254.073974 89.46528 
L 254.829368 90.0432 
L 255.566429 89.96064 
L 256.319187 91.99368 
L 257.061021 93.05664 
L 257.793145 93.74808 
L 258.526088 97.02984 
L 259.286471 95.93592 
L 260.034146 95.07936 
L 260.764323 94.46016 
L 261.516426 95.47152 
L 263.012483 94.82136 
L 263.751422 94.8936 
L 264.501208 94.70784 
L 266.018967 93.40752 
L 266.739641 92.9844 
L 267.480459 93.93384 
L 268.242375 94.4292 
L 269.716867 93.87192 
L 270.48304 93.81 
L 271.182925 94.03704 
L 272.674157 95.48184 
L 273.422357 96.63768 
L 274.157617 96.14232 
L 274.916191 96.30744 
L 275.66596 96.29712 
L 276.395913 96.04944 
L 277.151187 95.9256 
L 277.882536 95.39928 
L 278.618821 94.31568 
L 279.36 93.57264 
L 279.36 93.57264 
" clip-path="url(#pd55c75ccfa)" style="fill: none; stroke: #4a8dff; stroke-width: 0.6"/>
   </g>
   <g id="line2d_7">
    <path d="M 8.64 64.76952 
L 9.384384 64.58376 
L 10.128768 63.55176 
L 10.873152 64.5012 
L 11.617536 63.82008 
L 12.36192 61.36392 
L 13.106304 56.64768 
L 13.850688 54.89328 
L 14.595072 55.04808 
L 15.339456 53.29368 
L 16.08384 52.55064 
L 16.828224 54.77976 
L 17.572608 53.67552 
L 18.316992 52.95312 
L 19.061376 54.45984 
L 19.80576 54.55272 
L 20.550144 55.22352 
L 21.294528 54.98616 
L 22.038912 52.4268 
L 22.783296 53.79936 
L 23.52768 54.08832 
L 24.272064 54.92424 
L 25.016448 54.4908 
L 25.760832 52.98408 
L 26.505216 54.44952 
L 27.2496 54.60432 
L 27.993984 54.62496 
L 29.482752 59.38248 
L 30.227136 60.09456 
L 30.97152 58.39176 
L 31.715904 57.41136 
L 32.460288 58.464 
L 33.204672 57.5352 
L 33.949056 55.0068 
L 34.69344 55.81176 
L 35.437824 55.99752 
L 36.182208 53.13888 
L 36.926592 53.64456 
L 37.670976 52.1688 
L 38.41536 48.69096 
L 39.159744 54.0264 
L 39.904128 55.13064 
L 40.648512 54.96552 
L 41.392896 54.92424 
L 42.13728 56.25552 
L 42.881664 59.8572 
L 43.626048 58.32984 
L 44.370432 60.23904 
L 45.114816 55.65696 
L 45.8592 57.18432 
L 46.603584 59.21736 
L 47.347968 62.55072 
L 48.092352 60.82728 
L 48.836736 61.47744 
L 49.58112 60.12552 
L 50.325504 64.31544 
L 51.069888 63.99552 
L 51.814272 64.5528 
L 52.558656 63.60336 
L 53.30304 61.5084 
L 54.047424 60.96144 
L 54.791808 61.98312 
L 55.536192 62.05536 
L 56.280576 62.51976 
L 57.769344 60.64152 
L 58.513728 61.13688 
L 59.258111 58.6188 
L 60.002495 57.03984 
L 60.746879 56.35872 
L 61.491263 56.5548 
L 62.235647 57.174 
L 62.980031 57.14304 
L 63.724415 55.7292 
L 64.468799 56.04912 
L 65.213183 55.33704 
L 65.957567 56.87472 
L 66.701951 56.8128 
L 67.446335 57.24624 
L 68.190719 59.93976 
L 68.935103 60.64152 
L 69.679487 59.29992 
L 70.423871 63.80976 
L 71.168255 63.03576 
L 71.912639 63.09768 
L 73.401407 58.27824 
L 74.145791 58.5672 
L 74.890175 53.93352 
L 75.634559 51.74568 
L 76.378943 50.04288 
L 77.123327 49.90872 
L 78.612095 47.43192 
L 79.356479 50.80656 
L 80.100863 48.90768 
L 80.845247 50.6208 
L 81.589631 59.42376 
L 82.334015 61.85928 
L 83.078399 57.35976 
L 83.822783 57.3288 
L 84.567167 59.46504 
L 86.055935 64.72824 
L 86.800319 66.42072 
L 87.544703 65.688 
L 88.289087 64.17096 
L 89.033471 62.10696 
L 89.777855 64.30512 
L 90.522239 65.20296 
L 91.266623 62.68488 
L 92.011007 61.70448 
L 92.755391 61.06464 
L 93.499775 58.1028 
L 94.244159 58.40208 
L 94.988543 59.68176 
L 95.732927 62.6952 
L 96.477311 64.56312 
L 97.221695 63.18024 
L 97.966079 62.72616 
L 98.710463 62.06568 
L 99.454847 66.33816 
L 100.199231 71.40528 
L 100.943615 69.08328 
L 101.687999 71.7252 
L 102.432383 69.57864 
L 103.176767 70.72416 
L 103.921151 68.2164 
L 104.665535 66.978 
L 105.409919 70.03272 
L 106.154303 71.5188 
L 106.898687 73.3764 
L 107.643071 78.846 
L 108.387455 77.75208 
L 109.131839 78.88728 
L 109.876223 81.34344 
L 110.620607 80.53848 
L 111.364991 82.0452 
L 112.109375 86.92656 
L 112.853759 88.58808 
L 113.598143 88.96992 
L 114.342527 86.7924 
L 115.086911 85.296 
L 115.831295 86.24544 
L 116.575679 82.96368 
L 117.320063 82.13808 
L 118.064447 82.47864 
L 118.808831 82.58184 
L 119.553215 83.03592 
L 120.297599 87.3084 
L 121.041983 82.06584 
L 121.786367 79.71288 
L 122.530751 81.24024 
L 123.275135 84.17112 
L 124.019519 84.24336 
L 124.763903 83.29392 
L 125.508287 82.8192 
L 126.252671 80.64168 
L 126.997055 81.38472 
L 127.741439 80.87904 
L 128.485823 83.13912 
L 129.230207 83.19072 
L 130.718975 87.17424 
L 131.463359 85.71912 
L 132.207743 87.53544 
L 132.952127 88.17528 
L 133.696511 85.41984 
L 135.185279 84.9348 
L 135.929663 85.01736 
L 136.674047 86.14224 
L 137.418431 85.90488 
L 138.162815 86.328 
L 138.907199 86.24544 
L 139.651583 85.72944 
L 140.395967 85.7088 
L 141.140351 86.40024 
L 141.884735 85.09992 
L 142.629119 86.02872 
L 144.117887 83.53128 
L 145.606655 82.03488 
L 146.351039 79.39296 
L 147.095423 79.66128 
L 147.839807 82.15872 
L 148.584191 82.43736 
L 149.328575 82.93272 
L 150.072959 83.00496 
L 151.561727 82.28256 
L 152.306111 78.01008 
L 153.050495 76.19376 
L 153.794879 77.66952 
L 154.539263 77.74176 
L 155.283647 78.1752 
L 156.772415 80.8068 
L 157.516799 85.20312 
L 158.261183 84.12984 
L 159.005566 84.03696 
L 159.74995 84.06792 
L 160.494334 84.3156 
L 161.238718 87.02976 
L 161.983102 85.21344 
L 162.727486 84.28464 
L 163.47187 84.32592 
L 164.216254 89.08344 
L 164.960638 89.5272 
L 165.705022 95.14128 
L 166.449406 96.98856 
L 167.19379 95.08968 
L 168.41377 99.80592 
L 169.157775 101.79768 
L 169.898971 100.03296 
L 170.660371 100.518 
L 171.398612 99.98136 
L 172.147244 100.49736 
L 174.37595 101.26104 
L 175.111383 100.63152 
L 175.816488 100.38384 
L 176.60862 100.84824 
L 177.259499 100.65216 
L 178.096207 101.034 
L 178.839687 101.19912 
L 181.072442 100.91016 
L 181.819066 101.7564 
L 182.500565 101.84928 
L 183.305155 101.56032 
L 184.046222 100.85856 
L 185.524806 101.4468 
L 186.286103 101.02368 
L 187.022801 101.30232 
L 187.768917 100.81728 
L 188.509131 100.79664 
L 189.255118 99.3312 
L 189.999149 99.92976 
L 190.73782 100.78632 
L 191.489433 101.17848 
L 192.236048 101.1372 
L 192.975651 100.21872 
L 194.467055 100.4664 
L 195.21 99.88848 
L 195.953393 99.94008 
L 196.712019 99.81624 
L 197.458505 98.93904 
L 198.189862 98.3508 
L 198.939924 98.52624 
L 199.684515 99.78528 
L 200.421653 100.12584 
L 201.161678 100.03296 
L 202.663326 100.83792 
L 203.400817 100.11552 
L 204.200642 99.87816 
L 204.89864 100.002 
L 206.381231 101.41584 
L 207.135755 101.21976 
L 208.621956 101.00304 
L 209.372724 100.86888 
L 210.107304 101.21976 
L 210.852541 101.28168 
L 212.346142 101.14752 
L 213.092447 100.55928 
L 213.831998 100.65216 
L 214.577588 99.80592 
L 215.319379 99.96072 
L 216.070612 99.6408 
L 216.803615 99.1764 
L 217.561353 99.70272 
L 218.309554 99.94008 
L 219.049199 98.57784 
L 219.793014 98.65008 
L 220.540621 98.38176 
L 221.283488 98.48496 
L 222.019662 96.70992 
L 222.773876 98.05152 
L 223.520104 98.48496 
L 224.261222 97.96896 
L 225.003297 96.32808 
L 226.497054 96.16296 
L 227.232555 96.1836 
L 227.988518 96.50352 
L 228.740924 94.76976 
L 229.486867 97.19496 
L 230.229218 96.9576 
L 230.974851 97.9896 
L 231.727368 96.89568 
L 232.452755 95.45088 
L 233.21225 95.67792 
L 233.956376 93.43848 
L 235.441861 92.25168 
L 236.186444 92.87088 
L 236.918438 94.2744 
L 237.665545 93.1392 
L 238.424929 92.97408 
L 239.175188 92.9844 
L 239.909234 92.60256 
L 240.657159 92.53032 
L 241.400716 94.54272 
L 242.14877 92.85024 
L 242.883651 94.82136 
L 243.639149 95.75016 
L 244.390761 96.97824 
L 245.876858 97.23624 
L 246.625481 95.94624 
L 247.364162 96.30744 
L 248.098319 98.08248 
L 249.608669 96.61704 
L 250.341775 97.23624 
L 251.093801 98.08248 
L 251.835807 99.18672 
L 252.580743 99.03192 
L 253.314392 99.1248 
L 254.073974 98.74296 
L 254.829368 99.09384 
L 255.566429 100.0536 
L 256.319187 101.23008 
L 257.061021 101.99376 
L 257.793145 102.08664 
L 258.526088 102.8916 
L 259.286471 102.45816 
L 260.764323 102.10728 
L 261.516426 102.582 
L 263.012483 102.08664 
L 263.751422 102.066 
L 264.501208 101.86992 
L 265.270336 101.48808 
L 266.018967 101.40552 
L 266.739641 101.4984 
L 267.480459 101.97312 
L 268.242375 102.26208 
L 269.716867 101.90088 
L 270.48304 101.90088 
L 271.182925 102.0144 
L 271.929971 102.25176 
L 272.674157 102.6336 
L 273.422357 102.88128 
L 274.157617 102.77808 
L 277.151187 103.00512 
L 277.882536 102.69552 
L 278.618821 102.55104 
L 279.36 102.2724 
L 279.36 102.2724 
" clip-path="url(#pd55c75ccfa)" style="fill: none; stroke: #f5841e; stroke-width: 0.6"/>
   </g>
  </g>
 </g>
 <defs>
  <clipPath id="pd55c75ccfa">
   <rect x="8.64" y="4.8" width="270.72" height="103.2"/>
  </clipPath>
 </defs>
</svg>
