<?xml version="1.0" encoding="utf-8" standalone="no"?>
<!DOCTYPE svg PUBLIC "-//W3C//DTD SVG 1.1//EN"
  "http://www.w3.org/Graphics/SVG/1.1/DTD/svg11.dtd">
<svg xmlns:xlink="http://www.w3.org/1999/xlink" width="288pt" height="120pt" viewBox="0 0 288 120" xmlns="http://www.w3.org/2000/svg" version="1.1">
<desc id="nav-meta">{"window":"1y","count":4,"labels":["10.05","08.09","07.01","09.05"],"tick_utc":["2025-05-10T12:00:00Z","2025-09-08T12:00:00Z","2026-01-07T12:00:00Z","2026-05-09T04:06:35Z"],"w":720,"h":300}</desc>

 <metadata>
  <rdf:RDF xmlns:dc="http://purl.org/dc/elements/1.1/" xmlns:cc="http://creativecommons.org/ns#" xmlns:rdf="http://www.w3.org/1999/02/22-rdf-syntax-ns#">
   <cc:Work>
    <dc:type rdf:resource="http://purl.org/dc/dcmitype/StillImage"/>
    <dc:date>2026-05-09T14:04:52.934935</dc:date>
    <dc:format>image/svg+xml</dc:format>
    <dc:creator>
     <cc:Agent>
      <dc:title>Matplotlib v3.10.9, https://matplotlib.org/</dc:title>
     </cc:Agent>
    </dc:creator>
   </cc:Work>
  </rdf:RDF>
 </metadata>
 <defs>
  <style type="text/css">*{stroke-linejoin: round; stroke-linecap: butt}</style>
 </defs>
 <g id="figure_1">
  <g id="patch_1">
   <path d="M 0 120 
L 288 120 
L 288 0 
L 0 0 
L 0 120 
z
" style="fill: none; opacity: 0"/>
  </g>
  <g id="axes_1">
   <g id="patch_2">
    <path d="M 8.64 108 
L 279.36 108 
L 279.36 4.8 
L 8.64 4.8 
L 8.64 108 
z
" style="fill: none"/>
   </g>
   <g id="matplotlib.axis_1"/>
   <g id="matplotlib.axis_2"/>
   <g id="line2d_1">
    <path d="M 8.64 87.36 
L 279.36 87.36 
" clip-path="url(#pd674b31914)" style="fill: none; stroke: #b2b2b2; stroke-opacity: 0.35; stroke-width: 0.5; stroke-linecap: square"/>
   </g>
   <g id="line2d_2">
    <path d="M 8.64 66.72 
L 279.36 66.72 
" clip-path="url(#pd674b31914)" style="fill: none; stroke: #b2b2b2; stroke-opacity: 0.35; stroke-width: 0.5; stroke-linecap: square"/>
   </g>
   <g id="line2d_3">
    <path d="M 8.64 46.08 
L 279.36 46.08 
" clip-path="url(#pd674b31914)" style="fill: none; stroke: #b2b2b2; stroke-opacity: 0.35; stroke-width: 0.5; stroke-linecap: square"/>
   </g>
   <g id="line2d_4">
    <path d="M 8.64 25.44 
L 279.36 25.44 
" clip-path="url(#pd674b31914)" style="fill: none; stroke: #b2b2b2; stroke-opacity: 0.35; stroke-width: 0.5; stroke-linecap: square"/>
   </g>
   <g id="line2d_5">
    <path d="M 8.64 79.32072 
L 9.384409 78.05136 
L 10.128817 79.26912 
L 10.873226 78.846 
L 11.617634 76.2144 
L 13.106452 80.394 
L 13.85086 80.66232 
L 14.595269 81.168 
L 15.339677 79.63032 
L 16.084086 80.95128 
L 16.828495 80.4972 
L 18.317312 77.43216 
L 19.06172 78.846 
L 19.806129 78.41256 
L 20.550538 78.64992 
L 21.294946 78.76344 
L 22.039355 78.25776 
L 22.783764 79.47552 
L 23.528172 80.92032 
L 24.272581 83.73768 
L 25.016989 83.6448 
L 25.761398 83.4384 
L 26.505807 83.61384 
L 27.250215 83.99568 
L 27.994624 84.55296 
L 28.739032 87.00912 
L 29.483441 85.98744 
L 30.22785 85.5024 
L 30.972258 84.8316 
L 31.716667 82.46832 
L 32.461075 81.426 
L 33.205484 82.5096 
L 33.949893 84.79032 
L 35.43871 86.95752 
L 36.183118 84.79032 
L 36.927527 85.13088 
L 37.671936 86.07 
L 38.416344 86.5344 
L 39.160753 86.31768 
L 40.64957 89.97096 
L 41.393979 90.48696 
L 42.138387 86.9472 
L 42.882796 86.66856 
L 43.627205 87.32904 
L 44.371613 88.53648 
L 45.116022 87.6696 
L 45.86043 85.30632 
L 46.604839 84.61488 
L 47.349248 84.17112 
L 48.093656 86.3796 
L 48.838065 84.92448 
L 49.582473 84.89352 
L 50.326882 86.13192 
L 51.071291 86.1732 
L 51.815699 84.99672 
L 52.560108 85.85328 
L 53.304516 85.01736 
L 54.048925 83.55192 
L 54.793334 81.7356 
L 55.537742 82.03488 
L 56.282151 82.65408 
L 57.770968 82.15872 
L 58.515377 81.70464 
L 59.259785 79.01112 
L 60.004194 78.39192 
L 60.748602 78.04104 
L 61.493011 78.16488 
L 62.23742 77.05032 
L 62.981828 72.82944 
L 63.726237 70.41456 
L 64.470646 74.69736 
L 65.215054 76.6272 
L 65.959463 75.63648 
L 66.703871 75.97704 
L 67.44828 74.976 
L 68.192689 76.49304 
L 68.937097 76.99872 
L 69.681506 77.90688 
L 70.425914 79.4652 
L 71.170323 82.02456 
L 71.914732 83.19072 
L 72.65914 82.27224 
L 73.403549 80.21856 
L 74.147957 81.67368 
L 74.892366 80.5488 
L 75.636775 78.588 
L 76.381183 78.19584 
L 77.125592 77.21544 
L 77.87 76.524 
L 78.614409 78.68088 
L 79.358818 73.88208 
L 80.103226 71.364 
L 80.847635 73.8408 
L 81.592043 75.79128 
L 82.336452 74.65608 
L 83.080861 74.14008 
L 83.825269 76.50336 
L 84.569678 78.30936 
L 85.314087 75.3372 
L 86.058495 77.25672 
L 86.802904 71.78712 
L 87.547312 70.75512 
L 88.291721 70.24944 
L 89.03613 75.35784 
L 89.780538 72.95328 
L 90.524947 70.96152 
L 91.269355 67.87584 
L 92.013764 70.46616 
L 92.758173 71.11632 
L 93.502581 71.61168 
L 94.24699 72.7056 
L 94.991398 69.33096 
L 95.735807 68.9388 
L 96.480216 71.12664 
L 97.224624 70.90992 
L 97.969033 71.80776 
L 98.713441 70.074 
L 99.45785 68.01 
L 100.202259 67.10184 
L 100.946667 65.29584 
L 101.691076 64.01616 
L 102.435484 60.31128 
L 103.179893 60.19776 
L 103.924302 60.786 
L 104.66871 62.61264 
L 105.413119 61.74576 
L 106.157528 59.57856 
L 106.901936 58.86648 
L 107.646345 61.38456 
L 108.390753 61.07496 
L 109.135162 61.83864 
L 109.879571 66.29688 
L 110.623979 67.97904 
L 111.368388 68.69112 
L 112.112796 73.9956 
L 112.857205 70.45584 
L 113.601614 70.87896 
L 114.346022 68.91816 
L 115.090431 68.3196 
L 115.834839 69.47544 
L 117.323657 62.39592 
L 118.068065 62.81904 
L 118.812474 64.22256 
L 119.556882 64.05744 
L 120.301291 62.9532 
L 121.0457 66.14208 
L 121.790108 63.91296 
L 122.534517 66.17304 
L 123.278925 74.6148 
L 124.023334 77.78304 
L 124.767743 72.66432 
L 125.512151 69.69216 
L 126.25656 71.09568 
L 127.745377 76.06992 
L 128.489786 76.76136 
L 129.234194 75.25464 
L 129.978603 75.24432 
L 130.723012 74.63544 
L 131.46742 75.73968 
L 132.211829 77.31864 
L 132.956237 74.202 
L 133.700646 73.64472 
L 134.445055 73.48992 
L 135.189463 71.83872 
L 135.933872 72.17928 
L 136.67828 73.38672 
L 137.422689 73.43832 
L 138.167098 76.15248 
L 138.911506 75.3372 
L 139.655915 75.58488 
L 140.400323 75.35784 
L 141.144732 81.168 
L 141.889141 84.01632 
L 142.633549 82.06584 
L 143.377958 84.19176 
L 144.122366 82.27224 
L 144.866775 83.29392 
L 145.611184 81.62208 
L 146.355592 80.72424 
L 147.100001 84.33624 
L 147.84441 84.64584 
L 148.588818 86.844 
L 149.333227 88.52616 
L 150.077635 88.36104 
L 150.822044 88.93896 
L 151.566453 90.79656 
L 152.310861 88.09272 
L 153.05527 89.22792 
L 153.799678 90.00192 
L 154.544087 91.39512 
L 155.288496 91.63248 
L 156.032904 90.75528 
L 156.777313 88.7016 
L 157.521721 88.52616 
L 158.26613 87.45288 
L 159.010539 88.0308 
L 159.754947 88.94928 
L 161.243764 89.7336 
L 161.988173 91.86984 
L 162.732582 88.60872 
L 163.47699 86.87496 
L 164.965807 90.11544 
L 166.454625 90.53856 
L 167.199033 90.08448 
L 167.943442 88.79448 
L 168.687851 89.20728 
L 169.432259 89.22792 
L 170.176668 90.31152 
L 170.921076 90.10512 
L 171.665485 91.09584 
L 172.409894 91.61184 
L 173.154302 91.31256 
L 173.898711 92.87088 
L 174.643119 93.8616 
L 175.387528 92.02464 
L 176.131937 92.13816 
L 176.876345 92.07624 
L 177.620754 92.14848 
L 179.85398 93.69648 
L 181.342797 92.44776 
L 182.087205 92.30328 
L 182.831614 92.87088 
L 183.576023 92.38584 
L 184.320431 92.47872 
L 185.06484 91.88016 
L 185.809248 90.42504 
L 186.553657 90.08448 
L 187.298066 89.92968 
L 188.042474 88.76352 
L 188.786883 87.94824 
L 189.531291 89.2692 
L 190.2757 88.72224 
L 191.020109 89.39304 
L 191.764517 89.40336 
L 192.508926 88.41264 
L 193.253335 88.4952 
L 193.997743 86.86464 
L 194.742152 86.42088 
L 195.48656 87.62832 
L 196.230969 86.93688 
L 196.975378 87.23616 
L 198.464195 90.0432 
L 199.208603 92.12784 
L 199.953012 91.16808 
L 201.441829 91.73568 
L 202.186238 91.78728 
L 202.930646 94.0164 
L 203.675055 92.5716 
L 204.419464 91.76664 
L 205.163872 92.33424 
L 205.908281 94.36728 
L 206.652689 94.46016 
L 207.397098 97.71096 
L 208.141507 98.48496 
L 208.885915 97.85544 
L 210.105936 100.16712 
L 210.849965 102.23112 
L 211.591186 100.54896 
L 212.352611 100.70376 
L 213.090876 100.68312 
L 214.582399 101.28168 
L 215.324128 101.71512 
L 216.068312 101.84928 
L 216.803769 101.034 
L 217.508898 100.54896 
L 218.301056 101.04432 
L 218.951957 100.81728 
L 219.788693 101.034 
L 220.532197 101.4984 
L 222.765026 101.06496 
L 223.511675 102.09696 
L 224.193196 102.05568 
L 224.997812 101.4984 
L 225.738904 100.60056 
L 226.4819 100.80696 
L 227.217537 101.45712 
L 227.978859 100.55928 
L 228.715582 101.10624 
L 230.201961 100.74504 
L 230.947972 100.21872 
L 231.692027 100.53864 
L 232.430724 101.07528 
L 233.182361 101.38488 
L 233.929001 101.26104 
L 234.668628 100.78632 
L 236.160082 100.99272 
L 236.903051 100.38384 
L 238.40512 100.60056 
L 239.151631 99.76464 
L 239.883012 99.49632 
L 240.633099 99.40344 
L 241.377714 100.09488 
L 242.114877 100.3632 
L 242.854926 100.19808 
L 244.356624 100.79664 
L 245.094139 100.26 
L 245.893991 99.83688 
L 246.592012 100.13616 
L 248.074652 101.38488 
L 251.066244 101.28168 
L 251.800847 101.8596 
L 252.546109 101.88024 
L 253.284142 101.72544 
L 254.03976 101.68416 
L 254.78609 101.47776 
L 255.525665 101.78736 
L 256.27128 101.09592 
L 257.013095 101.46744 
L 257.764353 101.3436 
L 258.49738 101.05464 
L 259.255143 101.3952 
L 260.003369 101.47776 
L 260.743039 100.86888 
L 261.486879 101.26104 
L 263.713599 100.44576 
L 264.467839 100.94112 
L 265.214091 101.09592 
L 265.955234 101.00304 
L 266.697334 100.69344 
L 267.444758 100.9308 
L 269.682654 100.8792 
L 270.435084 100.64184 
L 271.181052 101.1888 
L 271.923427 101.09592 
L 272.669085 101.37456 
L 273.421627 101.21976 
L 274.906558 101.23008 
L 275.650708 100.92048 
L 276.378721 101.06496 
L 277.136243 100.70376 
L 277.88085 100.55928 
L 278.612869 100.53864 
L 279.36 99.60984 
L 279.36 99.60984 
" clip-path="url(#pd674b31914)" style="fill: none; stroke: #bebebe; stroke-width: 0.5; stroke-linecap: round"/>
   </g>
   <g id="line2d_6">
    <path d="M 8.64 84.84192 
L 9.384409 81.24024 
L 10.128817 82.37544 
L 10.873226 82.60248 
L 11.617634 79.86768 
L 13.106452 81.85944 
L 13.85086 81.82848 
L 14.595269 82.86048 
L 15.339677 83.00496 
L 16.084086 82.08648 
L 16.828495 82.12776 
L 17.572903 81.61176 
L 18.317312 80.15664 
L 19.06172 82.18968 
L 20.550538 81.79752 
L 21.294946 81.56016 
L 22.039355 80.0844 
L 22.783764 79.86768 
L 23.528172 80.50752 
L 24.272581 82.12776 
L 25.761398 81.92136 
L 26.505807 80.8584 
L 27.250215 81.07512 
L 27.994624 80.84808 
L 28.739032 83.6448 
L 29.483441 82.7676 
L 30.22785 82.0968 
L 30.972258 82.3548 
L 31.716667 79.74384 
L 32.461075 77.90688 
L 33.205484 78.39192 
L 33.949893 80.21856 
L 34.694301 81.34344 
L 35.43871 81.98328 
L 36.927527 81.5808 
L 37.671936 82.26192 
L 39.160753 82.15872 
L 39.905161 83.88216 
L 40.64957 85.89456 
L 41.393979 86.5344 
L 42.138387 83.61384 
L 42.882796 83.2836 
L 43.627205 83.71704 
L 44.371613 83.748 
L 45.86043 83.41776 
L 46.604839 82.44768 
L 47.349248 82.6644 
L 48.093656 83.89248 
L 48.838065 81.38472 
L 49.582473 81.14736 
L 50.326882 82.34448 
L 51.071291 82.23096 
L 51.815699 81.426 
L 52.560108 81.8388 
L 53.304516 80.76552 
L 54.793334 75.83256 
L 55.537742 75.67776 
L 56.282151 75.91512 
L 57.770968 74.88312 
L 58.515377 73.09776 
L 59.259785 69.6096 
L 60.004194 67.91712 
L 60.748602 66.94704 
L 61.493011 66.24528 
L 62.23742 63.80976 
L 62.981828 63.70656 
L 63.726237 63.9852 
L 64.470646 65.71896 
L 65.215054 64.5528 
L 66.703871 64.05744 
L 67.44828 62.25144 
L 68.192689 63.39696 
L 68.937097 63.366 
L 69.681506 63.08736 
L 70.425914 64.72824 
L 71.170323 67.89648 
L 71.914732 69.16584 
L 72.65914 67.69008 
L 73.403549 64.4496 
L 74.147957 65.97696 
L 74.892366 64.914 
L 75.636775 61.54968 
L 76.381183 60.04296 
L 77.125592 56.28648 
L 77.87 56.47224 
L 78.614409 56.83344 
L 79.358818 51.22968 
L 80.103226 48.89736 
L 80.847635 52.00368 
L 81.592043 53.84064 
L 82.336452 53.90256 
L 83.080861 53.00472 
L 83.825269 55.5228 
L 84.569678 59.12448 
L 85.314087 55.32672 
L 86.058495 56.90568 
L 86.802904 47.92728 
L 87.547312 48.75288 
L 88.291721 48.68064 
L 89.03613 54.57336 
L 89.780538 51.2916 
L 90.524947 52.80864 
L 91.269355 52.69512 
L 92.013764 54.82104 
L 93.502581 54.45984 
L 94.24699 55.7292 
L 94.991398 55.39896 
L 95.735807 53.55168 
L 96.480216 55.81176 
L 97.224624 55.6776 
L 97.969033 56.18328 
L 98.713441 55.71888 
L 100.202259 55.63632 
L 100.946667 55.07904 
L 101.691076 53.41752 
L 102.435484 49.71264 
L 103.179893 50.32152 
L 103.924302 51.17808 
L 104.66871 52.44744 
L 105.413119 52.74672 
L 106.157528 51.4464 
L 106.901936 51.46704 
L 107.646345 53.2524 
L 108.390753 53.08728 
L 109.135162 53.5104 
L 109.879571 57.26688 
L 110.623979 57.76224 
L 111.368388 58.02024 
L 112.112796 62.26176 
L 112.857205 59.68176 
L 113.601614 59.9604 
L 114.346022 58.12344 
L 115.090431 57.02952 
L 115.834839 58.09248 
L 116.579248 55.13064 
L 117.323657 53.046 
L 118.068065 52.5816 
L 118.812474 52.9944 
L 119.556882 52.5816 
L 120.301291 50.0016 
L 121.0457 53.48976 
L 121.790108 52.40616 
L 122.534517 54.75912 
L 123.278925 62.67456 
L 124.023334 63.95424 
L 124.767743 57.86544 
L 125.512151 56.57544 
L 126.25656 58.31952 
L 127.000969 60.4764 
L 127.745377 61.85928 
L 128.489786 62.73648 
L 129.234194 61.8696 
L 129.978603 60.45576 
L 130.723012 60.54864 
L 131.46742 62.04504 
L 132.211829 63.16992 
L 132.956237 62.36496 
L 133.700646 61.21944 
L 134.445055 60.9408 
L 135.189463 57.83448 
L 135.933872 58.40208 
L 136.67828 60.49704 
L 138.167098 63.1596 
L 138.911506 62.49912 
L 139.655915 62.1276 
L 140.400323 61.56 
L 141.889141 70.66224 
L 142.633549 68.72208 
L 143.377958 70.4868 
L 144.122366 68.61888 
L 144.866775 69.11424 
L 145.611184 66.5136 
L 146.355592 66.68904 
L 147.100001 68.8872 
L 147.84441 68.9904 
L 148.588818 71.5704 
L 149.333227 73.48992 
L 150.077635 72.54048 
L 151.566453 74.74896 
L 152.310861 73.3248 
L 153.05527 74.80056 
L 153.799678 77.556 
L 154.544087 78.55704 
L 155.288496 78.50544 
L 156.032904 78.04104 
L 156.777313 75.76032 
L 157.521721 75.73968 
L 158.26613 74.65608 
L 159.010539 74.83152 
L 159.754947 74.57352 
L 160.499356 75.20304 
L 161.243764 75.17208 
L 161.988173 78.05136 
L 163.47699 72.16896 
L 164.221399 73.08744 
L 164.965807 74.72832 
L 166.454625 74.28456 
L 167.199033 73.21128 
L 167.943442 70.2804 
L 168.687851 70.2288 
L 169.432259 71.56008 
L 170.176668 73.79952 
L 170.921076 73.35576 
L 171.665485 74.0988 
L 172.409894 75.5952 
L 173.154302 75.5952 
L 173.898711 77.61792 
L 174.643119 77.63856 
L 175.387528 75.40944 
L 176.131937 75.40944 
L 176.876345 75.04824 
L 177.620754 74.98632 
L 178.365162 75.58488 
L 179.109571 75.87384 
L 179.85398 76.49304 
L 181.342797 75.82224 
L 182.087205 75.84288 
L 182.831614 76.03896 
L 183.576023 75.51264 
L 184.320431 75.56424 
L 185.06484 75.05856 
L 185.809248 73.26288 
L 186.553657 73.20096 
L 187.298066 73.00488 
L 188.042474 71.68392 
L 188.786883 70.6932 
L 189.531291 72.62304 
L 190.2757 73.52088 
L 191.020109 73.83048 
L 191.764517 73.8408 
L 192.508926 73.29384 
L 193.253335 73.72728 
L 193.997743 70.32168 
L 194.742152 69.77472 
L 195.48656 70.34232 
L 196.230969 70.67256 
L 196.975378 70.51776 
L 197.719786 70.848 
L 198.464195 72.31344 
L 199.208603 76.01832 
L 199.953012 75.41976 
L 200.697421 75.83256 
L 202.186238 75.82224 
L 202.930646 77.82432 
L 203.675055 76.14216 
L 204.419464 74.75928 
L 205.163872 74.96568 
L 205.908281 77.75208 
L 206.652689 79.48584 
L 207.397098 83.31456 
L 208.141507 85.90488 
L 208.885915 84.79032 
L 209.514363 85.84296 
L 210.849965 91.41576 
L 211.591186 88.7532 
L 213.090876 88.55712 
L 213.839532 88.96992 
L 215.324128 90.456 
L 216.068312 90.56952 
L 216.803769 89.15568 
L 217.508898 88.9596 
L 218.301056 90.6624 
L 218.951957 89.94 
L 219.788693 90.00192 
L 221.272254 90.62112 
L 222.765026 90.3528 
L 223.511675 92.004 
L 224.193196 92.13816 
L 224.997812 91.25064 
L 225.738904 89.166 
L 226.4819 89.56848 
L 227.217537 90.93072 
L 227.978859 89.41368 
L 228.715582 90.37344 
L 229.461722 89.79552 
L 230.201961 90.23928 
L 230.947972 88.0824 
L 231.692027 88.7532 
L 232.430724 90.16704 
L 233.182361 90.67272 
L 233.929001 90.18768 
L 234.668628 89.2692 
L 235.412744 89.54784 
L 236.160082 89.49624 
L 236.903051 88.31976 
L 237.646469 88.45392 
L 238.40512 88.46424 
L 239.151631 86.38992 
L 239.883012 84.80064 
L 240.633099 84.8316 
L 241.377714 86.586 
L 242.114877 87.74184 
L 242.854926 87.618 
L 243.610466 88.19592 
L 244.356624 89.08344 
L 245.094139 87.89664 
L 245.893991 87.3084 
L 246.592012 87.65928 
L 248.074652 90.07416 
L 249.575738 89.3724 
L 250.315451 89.00088 
L 251.066244 88.42296 
L 252.546109 89.10408 
L 253.284142 89.14536 
L 254.03976 89.07312 
L 254.78609 87.9792 
L 255.525665 88.29912 
L 256.27128 86.38992 
L 257.013095 87.24648 
L 257.764353 87.1536 
L 258.49738 86.21448 
L 260.003369 87.01944 
L 260.743039 84.44976 
L 261.486879 85.05864 
L 262.23451 84.58392 
L 262.977402 85.04832 
L 263.713599 83.71704 
L 264.467839 84.86256 
L 265.214091 85.6572 
L 265.955234 85.27536 
L 266.697334 84.49104 
L 268.19114 85.32696 
L 268.926665 85.17216 
L 269.682654 85.31664 
L 270.435084 84.11952 
L 271.181052 85.66752 
L 271.923427 85.26504 
L 272.669085 86.26608 
L 274.147037 85.38888 
L 274.906558 85.3992 
L 275.650708 84.09888 
L 277.136243 84.34656 
L 278.612869 85.7604 
L 279.36 85.0896 
L 279.36 85.0896 
" clip-path="url(#pd674b31914)" style="fill: none; stroke: #4a8dff; stroke-width: 0.6"/>
   </g>
   <g id="line2d_7">
    <path d="M 8.64 70.03272 
L 9.384409 68.29896 
L 10.128817 68.95944 
L 10.873226 70.11528 
L 11.617634 68.76336 
L 12.362043 69.37224 
L 13.106452 69.25872 
L 13.85086 69.41352 
L 14.595269 69.77472 
L 15.339677 66.85416 
L 16.084086 67.26696 
L 16.828495 66.06984 
L 17.572903 63.08736 
L 18.317312 61.12656 
L 19.06172 65.62608 
L 19.806129 64.98624 
L 20.550538 63.91296 
L 21.294946 63.38664 
L 22.039355 63.70656 
L 22.783764 64.97592 
L 23.528172 67.14312 
L 24.272581 68.9388 
L 25.016989 68.23704 
L 25.761398 67.1844 
L 26.505807 66.99864 
L 27.250215 67.47336 
L 27.994624 68.1132 
L 28.739032 71.38464 
L 29.483441 68.526 
L 30.22785 67.21536 
L 30.972258 67.20504 
L 31.716667 62.46816 
L 32.461075 62.51976 
L 33.205484 64.10904 
L 33.949893 66.90576 
L 34.694301 66.83352 
L 35.43871 67.42176 
L 36.183118 67.3392 
L 36.927527 65.8944 
L 37.671936 68.24736 
L 39.160753 68.23704 
L 39.905161 69.69216 
L 40.64957 71.50848 
L 41.393979 72.21024 
L 42.138387 67.3908 
L 42.882796 66.90576 
L 43.627205 65.59512 
L 44.371613 65.86344 
L 45.116022 65.76024 
L 45.86043 65.50224 
L 46.604839 64.398 
L 47.349248 65.70864 
L 48.093656 67.2876 
L 48.838065 63.95424 
L 49.582473 63.14928 
L 50.326882 64.76952 
L 51.071291 64.58376 
L 51.815699 63.55176 
L 52.560108 64.5012 
L 53.304516 63.82008 
L 54.048925 61.36392 
L 54.793334 56.64768 
L 55.537742 54.89328 
L 56.282151 55.04808 
L 57.026559 53.29368 
L 57.770968 52.55064 
L 58.515377 54.77976 
L 59.259785 53.67552 
L 60.004194 52.95312 
L 60.748602 54.45984 
L 61.493011 54.55272 
L 62.23742 55.22352 
L 62.981828 54.98616 
L 63.726237 52.4268 
L 64.470646 53.79936 
L 65.215054 54.08832 
L 65.959463 54.92424 
L 66.703871 54.4908 
L 67.44828 52.98408 
L 68.192689 54.44952 
L 68.937097 54.60432 
L 69.681506 54.62496 
L 71.170323 59.38248 
L 71.914732 60.09456 
L 72.65914 58.39176 
L 73.403549 57.41136 
L 74.147957 58.464 
L 74.892366 57.5352 
L 75.636775 55.0068 
L 76.381183 55.81176 
L 77.125592 55.99752 
L 77.87 53.13888 
L 78.614409 53.64456 
L 79.358818 52.1688 
L 80.103226 48.69096 
L 80.847635 54.0264 
L 81.592043 55.13064 
L 82.336452 54.96552 
L 83.080861 54.92424 
L 83.825269 56.25552 
L 84.569678 59.8572 
L 85.314087 58.32984 
L 86.058495 60.23904 
L 86.802904 55.65696 
L 87.547312 57.18432 
L 88.291721 59.21736 
L 89.03613 62.55072 
L 89.780538 60.82728 
L 90.524947 61.47744 
L 91.269355 60.12552 
L 92.013764 64.31544 
L 92.758173 63.99552 
L 93.502581 64.5528 
L 94.24699 63.60336 
L 94.991398 61.5084 
L 95.735807 60.96144 
L 96.480216 61.98312 
L 97.224624 62.05536 
L 97.969033 62.51976 
L 99.45785 60.64152 
L 100.202259 61.13688 
L 100.946667 58.6188 
L 101.691076 57.03984 
L 102.435484 56.35872 
L 103.179893 56.5548 
L 103.924302 57.174 
L 104.66871 57.14304 
L 105.413119 55.7292 
L 106.157528 56.04912 
L 106.901936 55.33704 
L 107.646345 56.87472 
L 108.390753 56.8128 
L 109.135162 57.24624 
L 109.879571 59.93976 
L 110.623979 60.64152 
L 111.368388 59.29992 
L 112.112796 63.80976 
L 112.857205 63.03576 
L 113.601614 63.09768 
L 115.090431 58.27824 
L 115.834839 58.5672 
L 116.579248 53.93352 
L 117.323657 51.74568 
L 118.068065 50.04288 
L 118.812474 49.90872 
L 120.301291 47.43192 
L 121.0457 50.80656 
L 121.790108 48.90768 
L 122.534517 50.6208 
L 123.278925 59.42376 
L 124.023334 61.85928 
L 124.767743 57.35976 
L 125.512151 57.3288 
L 126.25656 59.46504 
L 127.745377 64.72824 
L 128.489786 66.42072 
L 129.234194 65.688 
L 129.978603 64.17096 
L 130.723012 62.10696 
L 131.46742 64.30512 
L 132.211829 65.20296 
L 132.956237 62.68488 
L 133.700646 61.70448 
L 134.445055 61.06464 
L 135.189463 58.1028 
L 135.933872 58.40208 
L 136.67828 59.68176 
L 137.422689 62.6952 
L 138.167098 64.56312 
L 138.911506 63.18024 
L 139.655915 62.72616 
L 140.400323 62.06568 
L 141.144732 66.33816 
L 141.889141 71.40528 
L 142.633549 69.08328 
L 143.377958 71.7252 
L 144.122366 69.57864 
L 144.866775 70.72416 
L 145.611184 68.2164 
L 146.355592 66.978 
L 147.100001 70.03272 
L 147.84441 71.5188 
L 148.588818 73.3764 
L 149.333227 78.846 
L 150.077635 77.75208 
L 150.822044 78.88728 
L 151.566453 81.34344 
L 152.310861 80.53848 
L 153.05527 82.0452 
L 153.799678 86.92656 
L 154.544087 88.58808 
L 155.288496 88.96992 
L 156.032904 86.7924 
L 156.777313 85.296 
L 157.521721 86.24544 
L 158.26613 82.96368 
L 159.010539 82.13808 
L 159.754947 82.47864 
L 160.499356 82.58184 
L 161.243764 83.03592 
L 161.988173 87.3084 
L 162.732582 82.06584 
L 163.47699 79.71288 
L 164.221399 81.24024 
L 164.965807 84.17112 
L 165.710216 84.24336 
L 166.454625 83.29392 
L 167.199033 82.8192 
L 167.943442 80.64168 
L 168.687851 81.38472 
L 169.432259 80.87904 
L 170.176668 83.13912 
L 170.921076 83.19072 
L 172.409894 87.17424 
L 173.154302 85.71912 
L 173.898711 87.53544 
L 174.643119 88.17528 
L 175.387528 85.41984 
L 176.876345 84.9348 
L 177.620754 85.01736 
L 178.365162 86.14224 
L 179.109571 85.90488 
L 179.85398 86.328 
L 180.598388 86.24544 
L 181.342797 85.72944 
L 182.087205 85.7088 
L 182.831614 86.40024 
L 183.576023 85.09992 
L 184.320431 86.02872 
L 185.809248 83.53128 
L 187.298066 82.03488 
L 188.042474 79.39296 
L 188.786883 79.66128 
L 189.531291 82.15872 
L 190.2757 82.43736 
L 191.020109 82.93272 
L 191.764517 83.00496 
L 193.253335 82.28256 
L 193.997743 78.01008 
L 194.742152 76.19376 
L 195.48656 77.66952 
L 196.230969 77.74176 
L 196.975378 78.1752 
L 198.464195 80.8068 
L 199.208603 85.20312 
L 199.953012 84.12984 
L 200.697421 84.03696 
L 201.441829 84.06792 
L 202.186238 84.3156 
L 202.930646 87.02976 
L 203.675055 85.21344 
L 204.419464 84.28464 
L 205.163872 84.32592 
L 205.908281 89.08344 
L 206.652689 89.5272 
L 207.397098 95.14128 
L 208.141507 96.98856 
L 208.885915 95.08968 
L 210.105936 99.80592 
L 210.849965 101.79768 
L 211.591186 100.03296 
L 212.352611 100.518 
L 213.090876 99.98136 
L 213.839532 100.49736 
L 216.068312 101.26104 
L 216.803769 100.63152 
L 217.508898 100.38384 
L 218.301056 100.84824 
L 218.951957 100.65216 
L 219.788693 101.034 
L 220.532197 101.19912 
L 222.765026 100.91016 
L 223.511675 101.7564 
L 224.193196 101.84928 
L 224.997812 101.56032 
L 225.738904 100.85856 
L 227.217537 101.4468 
L 227.978859 101.02368 
L 228.715582 101.30232 
L 229.461722 100.81728 
L 230.201961 100.79664 
L 230.947972 99.3312 
L 231.692027 99.92976 
L 232.430724 100.78632 
L 233.182361 101.17848 
L 233.929001 101.1372 
L 234.668628 100.21872 
L 236.160082 100.4664 
L 236.903051 99.88848 
L 237.646469 99.94008 
L 238.40512 99.81624 
L 239.151631 98.93904 
L 239.883012 98.3508 
L 240.633099 98.52624 
L 241.377714 99.78528 
L 242.114877 100.12584 
L 242.854926 100.03296 
L 244.356624 100.83792 
L 245.094139 100.11552 
L 245.893991 99.87816 
L 246.592012 100.002 
L 248.074652 101.41584 
L 248.829201 101.21976 
L 250.315451 101.00304 
L 251.066244 100.86888 
L 251.800847 101.21976 
L 252.546109 101.28168 
L 254.03976 101.14752 
L 254.78609 100.55928 
L 255.525665 100.65216 
L 256.27128 99.80592 
L 257.013095 99.96072 
L 257.764353 99.6408 
L 258.49738 99.1764 
L 259.255143 99.70272 
L 260.003369 99.94008 
L 260.743039 98.57784 
L 261.486879 98.65008 
L 262.23451 98.38176 
L 262.977402 98.48496 
L 263.713599 96.70992 
L 264.467839 98.05152 
L 265.214091 98.48496 
L 265.955234 97.96896 
L 266.697334 96.32808 
L 268.19114 96.16296 
L 268.926665 96.1836 
L 269.682654 96.50352 
L 270.435084 94.76976 
L 271.181052 97.19496 
L 271.923427 96.9576 
L 272.669085 97.9896 
L 273.421627 96.89568 
L 274.147037 95.45088 
L 274.906558 95.67792 
L 275.650708 93.43848 
L 277.136243 92.25168 
L 277.88085 92.87088 
L 278.612869 94.2744 
L 279.36 93.1392 
L 279.36 93.1392 
" clip-path="url(#pd674b31914)" style="fill: none; stroke: #f5841e; stroke-width: 0.6"/>
   </g>
  </g>
 </g>
 <defs>
  <clipPath id="pd674b31914">
   <rect x="8.64" y="4.8" width="270.72" height="103.2"/>
  </clipPath>
 </defs>
</svg>
