<?xml version="1.0" encoding="utf-8" standalone="no"?>
<!DOCTYPE svg PUBLIC "-//W3C//DTD SVG 1.1//EN"
  "http://www.w3.org/Graphics/SVG/1.1/DTD/svg11.dtd">
<svg xmlns:xlink="http://www.w3.org/1999/xlink" width="288pt" height="120pt" viewBox="0 0 288 120" xmlns="http://www.w3.org/2000/svg" version="1.1">
<desc id="nav-meta">{"window":"3m","count":4,"labels":["13.11","13.12","11.01","10.02"],"tick_utc":["2025-11-13T12:00:00Z","2025-12-13T12:00:00Z","2026-01-11T12:00:00Z","2026-02-10T03:42:23Z"],"w":720,"h":300}</desc>

 <metadata>
  <rdf:RDF xmlns:dc="http://purl.org/dc/elements/1.1/" xmlns:cc="http://creativecommons.org/ns#" xmlns:rdf="http://www.w3.org/1999/02/22-rdf-syntax-ns#">
   <cc:Work>
    <dc:type rdf:resource="http://purl.org/dc/dcmitype/StillImage"/>
    <dc:date>2026-02-10T19:44:25.535576</dc:date>
    <dc:format>image/svg+xml</dc:format>
    <dc:creator>
     <cc:Agent>
      <dc:title>Matplotlib v3.10.8, https://matplotlib.org/</dc:title>
     </cc:Agent>
    </dc:creator>
   </cc:Work>
  </rdf:RDF>
 </metadata>
 <defs>
  <style type="text/css">*{stroke-linejoin: round; stroke-linecap: butt}</style>
 </defs>
 <g id="figure_1">
  <g id="patch_1">
   <path d="M 0 120 
L 288 120 
L 288 0 
L 0 0 
L 0 120 
z
" style="fill: none; opacity: 0"/>
  </g>
  <g id="axes_1">
   <g id="patch_2">
    <path d="M 8.64 108 
L 279.36 108 
L 279.36 4.8 
L 8.64 4.8 
L 8.64 108 
z
" style="fill: none"/>
   </g>
   <g id="matplotlib.axis_1"/>
   <g id="matplotlib.axis_2"/>
   <g id="line2d_1">
    <path d="M 8.64 87.36 
L 279.36 87.36 
" clip-path="url(#pf250dbc9c7)" style="fill: none; stroke: #b2b2b2; stroke-opacity: 0.35; stroke-width: 0.5; stroke-linecap: square"/>
   </g>
   <g id="line2d_2">
    <path d="M 8.64 66.72 
L 279.36 66.72 
" clip-path="url(#pf250dbc9c7)" style="fill: none; stroke: #b2b2b2; stroke-opacity: 0.35; stroke-width: 0.5; stroke-linecap: square"/>
   </g>
   <g id="line2d_3">
    <path d="M 8.64 46.08 
L 279.36 46.08 
" clip-path="url(#pf250dbc9c7)" style="fill: none; stroke: #b2b2b2; stroke-opacity: 0.35; stroke-width: 0.5; stroke-linecap: square"/>
   </g>
   <g id="line2d_4">
    <path d="M 8.64 25.44 
L 279.36 25.44 
" clip-path="url(#pf250dbc9c7)" style="fill: none; stroke: #b2b2b2; stroke-opacity: 0.35; stroke-width: 0.5; stroke-linecap: square"/>
   </g>
   <g id="line2d_5">
    <path d="M 8.64 84.64584 
L 11.693654 86.844 
L 14.747309 88.52616 
L 17.800963 88.36104 
L 20.854618 88.93896 
L 23.908272 90.79656 
L 26.961926 88.09272 
L 30.015581 89.22792 
L 33.069235 90.00192 
L 36.12289 91.39512 
L 39.176544 91.63248 
L 42.230199 90.75528 
L 45.283853 88.7016 
L 48.337507 88.52616 
L 51.391162 87.45288 
L 54.444816 88.0308 
L 57.498471 88.94928 
L 60.552125 89.3208 
L 63.605779 89.7336 
L 66.659434 91.86984 
L 69.713088 88.60872 
L 72.766743 86.87496 
L 75.820397 88.52616 
L 78.874051 90.11544 
L 81.927706 90.38376 
L 84.98136 90.53856 
L 88.035015 90.08448 
L 91.088669 88.79448 
L 94.142324 89.20728 
L 97.195978 89.22792 
L 100.249632 90.31152 
L 103.303287 90.10512 
L 106.356941 91.09584 
L 109.410596 91.61184 
L 112.46425 91.31256 
L 115.517904 92.87088 
L 118.571559 93.8616 
L 121.625213 92.02464 
L 124.678868 92.13816 
L 127.732522 92.07624 
L 130.786176 92.14848 
L 133.839831 92.64384 
L 136.893485 93.01536 
L 139.94714 93.69648 
L 143.000794 93.11856 
L 146.054449 92.44776 
L 149.108103 92.30328 
L 152.161757 92.87088 
L 155.215412 92.38584 
L 158.269066 92.47872 
L 161.322721 91.88016 
L 164.376375 90.42504 
L 167.430029 90.08448 
L 170.483684 89.92968 
L 173.537338 88.76352 
L 176.590993 87.94824 
L 179.644647 89.2692 
L 182.698301 88.72224 
L 185.751956 89.39304 
L 188.80561 89.40336 
L 191.859265 88.41264 
L 194.912919 88.4952 
L 197.966573 86.86464 
L 201.020228 86.42088 
L 204.073882 87.62832 
L 207.127537 86.93688 
L 210.181191 87.23616 
L 213.234846 88.63968 
L 216.2885 90.0432 
L 219.342154 92.12784 
L 222.395809 91.16808 
L 225.449463 91.46736 
L 228.503118 91.73568 
L 231.556772 91.78728 
L 234.610426 94.0164 
L 237.664081 92.5716 
L 240.717735 91.76664 
L 243.77139 92.33424 
L 246.825044 94.36728 
L 249.878698 94.46016 
L 252.932353 97.71096 
L 255.986007 98.48496 
L 259.039662 97.85544 
L 261.617632 99.10416 
L 264.044333 100.16712 
L 267.096432 102.23112 
L 270.137009 100.54896 
L 273.260467 100.70376 
L 276.288921 100.68312 
L 279.36 100.95144 
" clip-path="url(#pf250dbc9c7)" style="fill: none; stroke: #bebebe; stroke-width: 0.5; stroke-linecap: round"/>
   </g>
   <g id="line2d_6">
    <path d="M 8.64 68.9904 
L 11.693654 71.5704 
L 14.747309 73.48992 
L 17.800963 72.54048 
L 20.854618 73.56216 
L 23.908272 74.74896 
L 26.961926 73.3248 
L 30.015581 74.80056 
L 33.069235 77.556 
L 36.12289 78.55704 
L 39.176544 78.50544 
L 42.230199 78.04104 
L 45.283853 75.76032 
L 48.337507 75.73968 
L 51.391162 74.65608 
L 54.444816 74.83152 
L 57.498471 74.57352 
L 60.552125 75.20304 
L 63.605779 75.17208 
L 66.659434 78.05136 
L 69.713088 75.1308 
L 72.766743 72.16896 
L 75.820397 73.08744 
L 78.874051 74.72832 
L 81.927706 74.48064 
L 84.98136 74.28456 
L 88.035015 73.21128 
L 91.088669 70.2804 
L 94.142324 70.2288 
L 97.195978 71.56008 
L 100.249632 73.79952 
L 103.303287 73.35576 
L 106.356941 74.0988 
L 109.410596 75.5952 
L 112.46425 75.5952 
L 115.517904 77.61792 
L 118.571559 77.63856 
L 121.625213 75.40944 
L 124.678868 75.40944 
L 127.732522 75.04824 
L 130.786176 74.98632 
L 133.839831 75.58488 
L 136.893485 75.87384 
L 139.94714 76.49304 
L 143.000794 76.15248 
L 146.054449 75.82224 
L 149.108103 75.84288 
L 152.161757 76.03896 
L 155.215412 75.51264 
L 158.269066 75.56424 
L 161.322721 75.05856 
L 164.376375 73.26288 
L 167.430029 73.20096 
L 170.483684 73.00488 
L 173.537338 71.68392 
L 176.590993 70.6932 
L 179.644647 72.62304 
L 182.698301 73.52088 
L 185.751956 73.83048 
L 188.80561 73.8408 
L 191.859265 73.29384 
L 194.912919 73.72728 
L 197.966573 70.32168 
L 201.020228 69.77472 
L 204.073882 70.34232 
L 207.127537 70.67256 
L 210.181191 70.51776 
L 213.234846 70.848 
L 216.2885 72.31344 
L 219.342154 76.01832 
L 222.395809 75.41976 
L 225.449463 75.83256 
L 228.503118 75.79128 
L 231.556772 75.82224 
L 234.610426 77.82432 
L 237.664081 76.14216 
L 240.717735 74.75928 
L 243.77139 74.96568 
L 246.825044 77.75208 
L 249.878698 79.48584 
L 252.932353 83.31456 
L 255.986007 85.90488 
L 259.039662 84.79032 
L 261.617632 85.84296 
L 264.044333 88.25784 
L 267.096432 91.41576 
L 270.137009 88.7532 
L 273.260467 88.65 
L 276.288921 88.55712 
L 279.36 88.96992 
" clip-path="url(#pf250dbc9c7)" style="fill: none; stroke: #4a8dff; stroke-width: 0.6"/>
   </g>
   <g id="line2d_7">
    <path d="M 8.64 71.5188 
L 11.693654 73.3764 
L 14.747309 78.846 
L 17.800963 77.75208 
L 20.854618 78.88728 
L 23.908272 81.34344 
L 26.961926 80.53848 
L 30.015581 82.0452 
L 33.069235 86.92656 
L 36.12289 88.58808 
L 39.176544 88.96992 
L 42.230199 86.7924 
L 45.283853 85.296 
L 48.337507 86.24544 
L 51.391162 82.96368 
L 54.444816 82.13808 
L 57.498471 82.47864 
L 60.552125 82.58184 
L 63.605779 83.03592 
L 66.659434 87.3084 
L 69.713088 82.06584 
L 72.766743 79.71288 
L 75.820397 81.24024 
L 78.874051 84.17112 
L 81.927706 84.24336 
L 84.98136 83.29392 
L 88.035015 82.8192 
L 91.088669 80.64168 
L 94.142324 81.38472 
L 97.195978 80.87904 
L 100.249632 83.13912 
L 103.303287 83.19072 
L 106.356941 85.296 
L 109.410596 87.17424 
L 112.46425 85.71912 
L 115.517904 87.53544 
L 118.571559 88.17528 
L 121.625213 85.41984 
L 124.678868 85.17216 
L 127.732522 84.9348 
L 130.786176 85.01736 
L 133.839831 86.14224 
L 136.893485 85.90488 
L 139.94714 86.328 
L 143.000794 86.24544 
L 146.054449 85.72944 
L 149.108103 85.7088 
L 152.161757 86.40024 
L 155.215412 85.09992 
L 158.269066 86.02872 
L 161.322721 84.78 
L 164.376375 83.53128 
L 167.430029 82.83984 
L 170.483684 82.03488 
L 173.537338 79.39296 
L 176.590993 79.66128 
L 179.644647 82.15872 
L 182.698301 82.43736 
L 185.751956 82.93272 
L 188.80561 83.00496 
L 191.859265 82.6128 
L 194.912919 82.28256 
L 197.966573 78.01008 
L 201.020228 76.19376 
L 204.073882 77.66952 
L 207.127537 77.74176 
L 210.181191 78.1752 
L 213.234846 79.5684 
L 216.2885 80.8068 
L 219.342154 85.20312 
L 222.395809 84.12984 
L 225.449463 84.03696 
L 228.503118 84.06792 
L 231.556772 84.3156 
L 234.610426 87.02976 
L 237.664081 85.21344 
L 240.717735 84.28464 
L 243.77139 84.32592 
L 246.825044 89.08344 
L 249.878698 89.5272 
L 252.932353 95.14128 
L 255.986007 96.98856 
L 259.039662 95.08968 
L 261.617632 97.71096 
L 264.044333 99.80592 
L 267.096432 101.79768 
L 270.137009 100.03296 
L 273.260467 100.518 
L 276.288921 99.98136 
L 279.36 100.49736 
" clip-path="url(#pf250dbc9c7)" style="fill: none; stroke: #f5841e; stroke-width: 0.6"/>
   </g>
  </g>
 </g>
 <defs>
  <clipPath id="pf250dbc9c7">
   <rect x="8.64" y="4.8" width="270.72" height="103.2"/>
  </clipPath>
 </defs>
</svg>
