<?xml version="1.0" encoding="utf-8" standalone="no"?>
<!DOCTYPE svg PUBLIC "-//W3C//DTD SVG 1.1//EN"
  "http://www.w3.org/Graphics/SVG/1.1/DTD/svg11.dtd">
<svg xmlns:xlink="http://www.w3.org/1999/xlink" width="288pt" height="120pt" viewBox="0 0 288 120" xmlns="http://www.w3.org/2000/svg" version="1.1">
<desc id="nav-meta">{"window":"3m","count":4,"labels":["03.01","02.02","03.03","02.04"],"tick_utc":["2026-01-03T12:00:00Z","2026-02-02T12:00:00Z","2026-03-03T03:22:17Z","2026-04-02T03:35:34Z"],"w":720,"h":300}</desc>

 <metadata>
  <rdf:RDF xmlns:dc="http://purl.org/dc/elements/1.1/" xmlns:cc="http://creativecommons.org/ns#" xmlns:rdf="http://www.w3.org/1999/02/22-rdf-syntax-ns#">
   <cc:Work>
    <dc:type rdf:resource="http://purl.org/dc/dcmitype/StillImage"/>
    <dc:date>2026-04-02T19:35:37.435464</dc:date>
    <dc:format>image/svg+xml</dc:format>
    <dc:creator>
     <cc:Agent>
      <dc:title>Matplotlib v3.10.8, https://matplotlib.org/</dc:title>
     </cc:Agent>
    </dc:creator>
   </cc:Work>
  </rdf:RDF>
 </metadata>
 <defs>
  <style type="text/css">*{stroke-linejoin: round; stroke-linecap: butt}</style>
 </defs>
 <g id="figure_1">
  <g id="patch_1">
   <path d="M 0 120 
L 288 120 
L 288 0 
L 0 0 
L 0 120 
z
" style="fill: none; opacity: 0"/>
  </g>
  <g id="axes_1">
   <g id="patch_2">
    <path d="M 8.64 108 
L 279.36 108 
L 279.36 4.8 
L 8.64 4.8 
L 8.64 108 
z
" style="fill: none"/>
   </g>
   <g id="matplotlib.axis_1"/>
   <g id="matplotlib.axis_2"/>
   <g id="line2d_1">
    <path d="M 8.64 87.36 
L 279.36 87.36 
" clip-path="url(#p7ce8cc8b25)" style="fill: none; stroke: #b2b2b2; stroke-opacity: 0.35; stroke-width: 0.5; stroke-linecap: square"/>
   </g>
   <g id="line2d_2">
    <path d="M 8.64 66.72 
L 279.36 66.72 
" clip-path="url(#p7ce8cc8b25)" style="fill: none; stroke: #b2b2b2; stroke-opacity: 0.35; stroke-width: 0.5; stroke-linecap: square"/>
   </g>
   <g id="line2d_3">
    <path d="M 8.64 46.08 
L 279.36 46.08 
" clip-path="url(#p7ce8cc8b25)" style="fill: none; stroke: #b2b2b2; stroke-opacity: 0.35; stroke-width: 0.5; stroke-linecap: square"/>
   </g>
   <g id="line2d_4">
    <path d="M 8.64 25.44 
L 279.36 25.44 
" clip-path="url(#p7ce8cc8b25)" style="fill: none; stroke: #b2b2b2; stroke-opacity: 0.35; stroke-width: 0.5; stroke-linecap: square"/>
   </g>
   <g id="line2d_5">
    <path d="M 8.64 90.42504 
L 11.693817 90.08448 
L 14.747635 89.92968 
L 17.801452 88.76352 
L 20.85527 87.94824 
L 23.909087 89.2692 
L 26.962905 88.72224 
L 30.016722 89.39304 
L 33.07054 89.40336 
L 36.124357 88.41264 
L 39.178175 88.4952 
L 42.231992 86.86464 
L 45.28581 86.42088 
L 48.339627 87.62832 
L 51.393445 86.93688 
L 54.447262 87.23616 
L 57.50108 88.63968 
L 60.554897 90.0432 
L 63.608715 92.12784 
L 66.662532 91.16808 
L 69.716349 91.46736 
L 72.770167 91.73568 
L 75.823984 91.78728 
L 78.877802 94.0164 
L 81.931619 92.5716 
L 84.985437 91.76664 
L 88.039254 92.33424 
L 91.093072 94.36728 
L 94.146889 94.46016 
L 97.200707 97.71096 
L 100.254524 98.48496 
L 103.308342 97.85544 
L 105.886449 99.10416 
L 108.31328 100.16712 
L 111.365542 102.23112 
L 114.406282 100.54896 
L 117.529906 100.70376 
L 120.558522 100.68312 
L 123.629765 100.95144 
L 126.677256 101.28168 
L 129.720081 101.71512 
L 132.772979 101.84928 
L 135.790073 101.034 
L 138.682752 100.54896 
L 141.932452 101.04432 
L 144.602669 100.81728 
L 148.035245 101.034 
L 151.085351 101.4984 
L 154.12132 101.33328 
L 157.156475 101.1372 
L 160.245178 101.06496 
L 163.308185 102.09696 
L 166.104019 102.05568 
L 169.404828 101.4984 
L 172.445037 100.60056 
L 175.493058 100.80696 
L 178.510894 101.45712 
L 181.634094 100.55928 
L 184.656384 101.10624 
L 187.717306 100.8792 
L 190.754016 100.74504 
L 193.814408 100.21872 
L 196.866776 100.53864 
L 199.89716 101.07528 
L 202.980632 101.38488 
L 206.043604 101.26104 
L 209.077805 100.78632 
L 212.13042 100.91016 
L 215.196255 100.99272 
L 218.24417 100.38384 
L 221.293923 100.50768 
L 224.406166 100.60056 
L 227.468607 99.76464 
L 230.468983 99.49632 
L 233.546093 99.40344 
L 236.600759 100.09488 
L 239.624851 100.3632 
L 242.660784 100.19808 
L 245.760267 100.47672 
L 248.82126 100.79664 
L 251.846801 100.26 
L 255.128064 99.83688 
L 257.991584 100.13616 
L 261.049254 100.80696 
L 264.073876 101.38488 
L 267.169295 101.3436 
L 270.231843 101.292 
L 273.266397 101.28168 
L 276.346405 101.28168 
L 279.36 101.8596 
" clip-path="url(#p7ce8cc8b25)" style="fill: none; stroke: #bebebe; stroke-width: 0.5; stroke-linecap: round"/>
   </g>
   <g id="line2d_6">
    <path d="M 8.64 73.26288 
L 11.693817 73.20096 
L 14.747635 73.00488 
L 17.801452 71.68392 
L 20.85527 70.6932 
L 23.909087 72.62304 
L 26.962905 73.52088 
L 30.016722 73.83048 
L 33.07054 73.8408 
L 36.124357 73.29384 
L 39.178175 73.72728 
L 42.231992 70.32168 
L 45.28581 69.77472 
L 48.339627 70.34232 
L 51.393445 70.67256 
L 54.447262 70.51776 
L 57.50108 70.848 
L 60.554897 72.31344 
L 63.608715 76.01832 
L 66.662532 75.41976 
L 69.716349 75.83256 
L 72.770167 75.79128 
L 75.823984 75.82224 
L 78.877802 77.82432 
L 81.931619 76.14216 
L 84.985437 74.75928 
L 88.039254 74.96568 
L 91.093072 77.75208 
L 94.146889 79.48584 
L 97.200707 83.31456 
L 100.254524 85.90488 
L 103.308342 84.79032 
L 105.886449 85.84296 
L 108.31328 88.25784 
L 111.365542 91.41576 
L 114.406282 88.7532 
L 117.529906 88.65 
L 120.558522 88.55712 
L 123.629765 88.96992 
L 126.677256 89.7336 
L 129.720081 90.456 
L 132.772979 90.56952 
L 135.790073 89.15568 
L 138.682752 88.9596 
L 141.932452 90.6624 
L 144.602669 89.94 
L 148.035245 90.00192 
L 151.085351 90.3528 
L 154.12132 90.62112 
L 157.156475 90.5076 
L 160.245178 90.3528 
L 163.308185 92.004 
L 166.104019 92.13816 
L 169.404828 91.25064 
L 172.445037 89.166 
L 175.493058 89.56848 
L 178.510894 90.93072 
L 181.634094 89.41368 
L 184.656384 90.37344 
L 187.717306 89.79552 
L 190.754016 90.23928 
L 193.814408 88.0824 
L 196.866776 88.7532 
L 199.89716 90.16704 
L 202.980632 90.67272 
L 206.043604 90.18768 
L 209.077805 89.2692 
L 212.13042 89.54784 
L 215.196255 89.49624 
L 218.24417 88.31976 
L 221.293923 88.45392 
L 224.406166 88.46424 
L 227.468607 86.38992 
L 230.468983 84.80064 
L 233.546093 84.8316 
L 236.600759 86.586 
L 239.624851 87.74184 
L 242.660784 87.618 
L 245.760267 88.19592 
L 248.82126 89.08344 
L 251.846801 87.89664 
L 255.128064 87.3084 
L 257.991584 87.65928 
L 261.049254 88.96992 
L 264.073876 90.07416 
L 267.169295 89.76456 
L 270.231843 89.3724 
L 273.266397 89.00088 
L 276.346405 88.42296 
L 279.36 88.81512 
" clip-path="url(#p7ce8cc8b25)" style="fill: none; stroke: #4a8dff; stroke-width: 0.6"/>
   </g>
   <g id="line2d_7">
    <path d="M 8.64 83.53128 
L 11.693817 82.83984 
L 14.747635 82.03488 
L 17.801452 79.39296 
L 20.85527 79.66128 
L 23.909087 82.15872 
L 26.962905 82.43736 
L 30.016722 82.93272 
L 33.07054 83.00496 
L 36.124357 82.6128 
L 39.178175 82.28256 
L 42.231992 78.01008 
L 45.28581 76.19376 
L 48.339627 77.66952 
L 51.393445 77.74176 
L 54.447262 78.1752 
L 57.50108 79.5684 
L 60.554897 80.8068 
L 63.608715 85.20312 
L 66.662532 84.12984 
L 69.716349 84.03696 
L 72.770167 84.06792 
L 75.823984 84.3156 
L 78.877802 87.02976 
L 81.931619 85.21344 
L 84.985437 84.28464 
L 88.039254 84.32592 
L 91.093072 89.08344 
L 94.146889 89.5272 
L 97.200707 95.14128 
L 100.254524 96.98856 
L 103.308342 95.08968 
L 105.886449 97.71096 
L 108.31328 99.80592 
L 111.365542 101.79768 
L 114.406282 100.03296 
L 117.529906 100.518 
L 120.558522 99.98136 
L 123.629765 100.49736 
L 126.677256 100.78632 
L 129.720081 101.07528 
L 132.772979 101.26104 
L 135.790073 100.63152 
L 138.682752 100.38384 
L 141.932452 100.84824 
L 144.602669 100.65216 
L 148.035245 101.034 
L 151.085351 101.19912 
L 154.12132 101.10624 
L 157.156475 100.97208 
L 160.245178 100.91016 
L 163.308185 101.7564 
L 166.104019 101.84928 
L 169.404828 101.56032 
L 172.445037 100.85856 
L 175.493058 101.12688 
L 178.510894 101.4468 
L 181.634094 101.02368 
L 184.656384 101.30232 
L 187.717306 100.81728 
L 190.754016 100.79664 
L 193.814408 99.3312 
L 196.866776 99.92976 
L 199.89716 100.78632 
L 202.980632 101.17848 
L 206.043604 101.1372 
L 209.077805 100.21872 
L 212.13042 100.37352 
L 215.196255 100.4664 
L 218.24417 99.88848 
L 221.293923 99.94008 
L 224.406166 99.81624 
L 227.468607 98.93904 
L 230.468983 98.3508 
L 233.546093 98.52624 
L 236.600759 99.78528 
L 239.624851 100.12584 
L 242.660784 100.03296 
L 245.760267 100.45608 
L 248.82126 100.83792 
L 251.846801 100.11552 
L 255.128064 99.87816 
L 257.991584 100.002 
L 261.049254 100.64184 
L 264.073876 101.41584 
L 267.169295 101.21976 
L 270.231843 101.14752 
L 273.266397 101.00304 
L 276.346405 100.86888 
L 279.36 101.21976 
" clip-path="url(#p7ce8cc8b25)" style="fill: none; stroke: #f5841e; stroke-width: 0.6"/>
   </g>
  </g>
 </g>
 <defs>
  <clipPath id="p7ce8cc8b25">
   <rect x="8.64" y="4.8" width="270.72" height="103.2"/>
  </clipPath>
 </defs>
</svg>
