<?xml version="1.0" encoding="utf-8" standalone="no"?>
<!DOCTYPE svg PUBLIC "-//W3C//DTD SVG 1.1//EN"
  "http://www.w3.org/Graphics/SVG/1.1/DTD/svg11.dtd">
<svg xmlns:xlink="http://www.w3.org/1999/xlink" width="288pt" height="120pt" viewBox="0 0 288 120" xmlns="http://www.w3.org/2000/svg" version="1.1">
<desc id="nav-meta">{"window":"3m","count":4,"labels":["02.03","01.04","30.04","30.05"],"tick_utc":["2026-03-02T03:18:56Z","2026-04-01T03:54:32Z","2026-04-30T04:23:32Z","2026-05-30T04:39:03Z"],"w":720,"h":300}</desc>

 <metadata>
  <rdf:RDF xmlns:dc="http://purl.org/dc/elements/1.1/" xmlns:cc="http://creativecommons.org/ns#" xmlns:rdf="http://www.w3.org/1999/02/22-rdf-syntax-ns#">
   <cc:Work>
    <dc:type rdf:resource="http://purl.org/dc/dcmitype/StillImage"/>
    <dc:date>2026-05-30T19:52:31.711166</dc:date>
    <dc:format>image/svg+xml</dc:format>
    <dc:creator>
     <cc:Agent>
      <dc:title>Matplotlib v3.10.9, https://matplotlib.org/</dc:title>
     </cc:Agent>
    </dc:creator>
   </cc:Work>
  </rdf:RDF>
 </metadata>
 <defs>
  <style type="text/css">*{stroke-linejoin: round; stroke-linecap: butt}</style>
 </defs>
 <g id="figure_1">
  <g id="patch_1">
   <path d="M 0 120 
L 288 120 
L 288 0 
L 0 0 
L 0 120 
z
" style="fill: none; opacity: 0"/>
  </g>
  <g id="axes_1">
   <g id="patch_2">
    <path d="M 8.64 108 
L 279.36 108 
L 279.36 4.8 
L 8.64 4.8 
L 8.64 108 
z
" style="fill: none"/>
   </g>
   <g id="matplotlib.axis_1"/>
   <g id="matplotlib.axis_2"/>
   <g id="line2d_1">
    <path d="M 8.64 87.36 
L 279.36 87.36 
" clip-path="url(#p774a0219e3)" style="fill: none; stroke: #b2b2b2; stroke-opacity: 0.35; stroke-width: 0.5; stroke-linecap: square"/>
   </g>
   <g id="line2d_2">
    <path d="M 8.64 66.72 
L 279.36 66.72 
" clip-path="url(#p774a0219e3)" style="fill: none; stroke: #b2b2b2; stroke-opacity: 0.35; stroke-width: 0.5; stroke-linecap: square"/>
   </g>
   <g id="line2d_3">
    <path d="M 8.64 46.08 
L 279.36 46.08 
" clip-path="url(#p774a0219e3)" style="fill: none; stroke: #b2b2b2; stroke-opacity: 0.35; stroke-width: 0.5; stroke-linecap: square"/>
   </g>
   <g id="line2d_4">
    <path d="M 8.64 25.44 
L 279.36 25.44 
" clip-path="url(#p774a0219e3)" style="fill: none; stroke: #b2b2b2; stroke-opacity: 0.35; stroke-width: 0.5; stroke-linecap: square"/>
   </g>
   <g id="line2d_5">
    <path d="M 8.64 101.10624 
L 11.686969 100.8792 
L 14.709838 100.74504 
L 17.756279 100.21872 
L 20.794734 100.53864 
L 23.811305 101.07528 
L 26.880722 101.38488 
L 29.929732 101.26104 
L 32.950102 100.78632 
L 35.988803 100.91016 
L 39.040663 100.99272 
L 42.074685 100.38384 
L 45.110536 100.50768 
L 48.208593 100.60056 
L 51.257075 99.76464 
L 54.243774 99.49632 
L 57.306858 99.40344 
L 60.3476 100.09488 
L 63.357907 100.3632 
L 66.380002 100.19808 
L 69.465357 100.47672 
L 72.512397 100.79664 
L 75.524147 100.26 
L 78.790453 99.83688 
L 81.64092 100.13616 
L 84.684652 100.80696 
L 87.695488 101.38488 
L 90.776797 101.3436 
L 93.825385 101.292 
L 96.846107 101.28168 
L 99.912076 101.28168 
L 102.911934 101.8596 
L 105.955314 101.88024 
L 108.969176 101.72544 
L 112.054847 101.68416 
L 115.102591 101.47776 
L 118.12275 101.78736 
L 121.167573 101.09592 
L 124.19688 101.46744 
L 127.264749 101.3436 
L 130.258168 101.05464 
L 133.352601 101.3952 
L 136.408085 101.47776 
L 139.428631 100.86888 
L 142.466206 101.26104 
L 145.519263 100.99272 
L 148.552968 100.61088 
L 151.559335 100.44576 
L 154.639377 100.94112 
L 157.686804 101.09592 
L 160.713367 101.00304 
L 163.743835 100.69344 
L 166.796047 100.9308 
L 169.844001 100.92048 
L 172.847624 100.81728 
L 175.934809 100.8792 
L 179.007462 100.64184 
L 182.053728 101.1888 
L 185.085322 101.09592 
L 188.130321 101.37456 
L 191.203432 101.21976 
L 194.165749 101.20944 
L 197.267359 101.23008 
L 200.306201 100.92048 
L 203.279143 101.06496 
L 206.372591 100.70376 
L 209.413297 100.55928 
L 212.4026 100.53864 
L 215.453616 99.60984 
L 218.554768 99.72336 
L 221.618661 99.44472 
L 224.616338 99.25896 
L 227.670696 99.32088 
L 230.707216 100.22904 
L 233.762102 100.01232 
L 236.763191 100.43544 
L 239.848476 100.75536 
L 242.917893 101.02368 
L 245.936011 101.02368 
L 248.98678 101.17848 
L 252.043988 100.7244 
L 255.060594 100.75536 
L 258.058728 101.11656 
L 261.146757 100.91016 
L 264.226659 100.89984 
L 267.2205 101.1372 
L 270.291606 101.2404 
L 273.321793 101.6532 
L 276.363942 101.4984 
L 279.36 101.48808 
" clip-path="url(#p774a0219e3)" style="fill: none; stroke: #bebebe; stroke-width: 0.5; stroke-linecap: round"/>
   </g>
   <g id="line2d_6">
    <path d="M 8.64 90.37344 
L 11.686969 89.79552 
L 14.709838 90.23928 
L 17.756279 88.0824 
L 20.794734 88.7532 
L 23.811305 90.16704 
L 26.880722 90.67272 
L 29.929732 90.18768 
L 32.950102 89.2692 
L 35.988803 89.54784 
L 39.040663 89.49624 
L 42.074685 88.31976 
L 45.110536 88.45392 
L 48.208593 88.46424 
L 51.257075 86.38992 
L 54.243774 84.80064 
L 57.306858 84.8316 
L 60.3476 86.586 
L 63.357907 87.74184 
L 66.380002 87.618 
L 69.465357 88.19592 
L 72.512397 89.08344 
L 75.524147 87.89664 
L 78.790453 87.3084 
L 81.64092 87.65928 
L 84.684652 88.96992 
L 87.695488 90.07416 
L 90.776797 89.76456 
L 93.825385 89.3724 
L 96.846107 89.00088 
L 99.912076 88.42296 
L 102.911934 88.81512 
L 105.955314 89.10408 
L 108.969176 89.14536 
L 112.054847 89.07312 
L 115.102591 87.9792 
L 118.12275 88.29912 
L 121.167573 86.38992 
L 124.19688 87.24648 
L 127.264749 87.1536 
L 130.258168 86.21448 
L 133.352601 86.66856 
L 136.408085 87.01944 
L 139.428631 84.44976 
L 142.466206 85.05864 
L 145.519263 84.58392 
L 148.552968 85.04832 
L 151.559335 83.71704 
L 154.639377 84.86256 
L 157.686804 85.6572 
L 160.713367 85.27536 
L 163.743835 84.49104 
L 166.796047 84.86256 
L 169.844001 85.32696 
L 172.847624 85.17216 
L 175.934809 85.31664 
L 179.007462 84.11952 
L 182.053728 85.66752 
L 185.085322 85.26504 
L 188.130321 86.26608 
L 191.203432 85.77072 
L 194.165749 85.38888 
L 197.267359 85.3992 
L 200.306201 84.09888 
L 203.279143 84.22272 
L 206.372591 84.34656 
L 209.413297 85.06896 
L 212.4026 85.7604 
L 215.453616 85.0896 
L 218.554768 85.01736 
L 221.618661 84.9348 
L 224.616338 85.296 
L 227.670696 85.35792 
L 230.707216 86.1732 
L 233.762102 85.92552 
L 236.763191 86.55504 
L 239.848476 87.13296 
L 242.917893 88.10304 
L 245.936011 87.9276 
L 248.98678 88.26816 
L 252.043988 87.78312 
L 255.060594 87.95856 
L 258.058728 88.94928 
L 261.146757 88.14432 
L 264.226659 88.33008 
L 267.2205 88.52616 
L 270.291606 88.86672 
L 273.321793 90.22896 
L 276.363942 89.82648 
L 279.36 89.87808 
" clip-path="url(#p774a0219e3)" style="fill: none; stroke: #4a8dff; stroke-width: 0.6"/>
   </g>
   <g id="line2d_7">
    <path d="M 8.64 101.30232 
L 11.686969 100.81728 
L 14.709838 100.79664 
L 17.756279 99.3312 
L 20.794734 99.92976 
L 23.811305 100.78632 
L 26.880722 101.17848 
L 29.929732 101.1372 
L 32.950102 100.21872 
L 35.988803 100.37352 
L 39.040663 100.4664 
L 42.074685 99.88848 
L 45.110536 99.94008 
L 48.208593 99.81624 
L 51.257075 98.93904 
L 54.243774 98.3508 
L 57.306858 98.52624 
L 60.3476 99.78528 
L 63.357907 100.12584 
L 66.380002 100.03296 
L 69.465357 100.45608 
L 72.512397 100.83792 
L 75.524147 100.11552 
L 78.790453 99.87816 
L 81.64092 100.002 
L 84.684652 100.64184 
L 87.695488 101.41584 
L 90.776797 101.21976 
L 93.825385 101.14752 
L 96.846107 101.00304 
L 99.912076 100.86888 
L 102.911934 101.21976 
L 105.955314 101.28168 
L 108.969176 101.20944 
L 112.054847 101.14752 
L 115.102591 100.55928 
L 118.12275 100.65216 
L 121.167573 99.80592 
L 124.19688 99.96072 
L 127.264749 99.6408 
L 130.258168 99.1764 
L 133.352601 99.70272 
L 136.408085 99.94008 
L 139.428631 98.57784 
L 142.466206 98.65008 
L 145.519263 98.38176 
L 148.552968 98.48496 
L 151.559335 96.70992 
L 154.639377 98.05152 
L 157.686804 98.48496 
L 160.713367 97.96896 
L 163.743835 96.32808 
L 166.796047 96.20424 
L 169.844001 96.16296 
L 172.847624 96.1836 
L 175.934809 96.50352 
L 179.007462 94.76976 
L 182.053728 97.19496 
L 185.085322 96.9576 
L 188.130321 97.9896 
L 191.203432 96.89568 
L 194.165749 95.45088 
L 197.267359 95.67792 
L 200.306201 93.43848 
L 203.279143 92.90184 
L 206.372591 92.25168 
L 209.413297 92.87088 
L 212.4026 94.2744 
L 215.453616 93.1392 
L 218.554768 92.97408 
L 221.618661 92.9844 
L 224.616338 92.60256 
L 227.670696 92.53032 
L 230.707216 94.54272 
L 233.762102 92.85024 
L 236.763191 94.82136 
L 239.848476 95.75016 
L 242.917893 96.97824 
L 245.936011 97.08144 
L 248.98678 97.23624 
L 252.043988 95.94624 
L 255.060594 96.30744 
L 258.058728 98.08248 
L 261.146757 97.2672 
L 264.226659 96.61704 
L 267.2205 97.23624 
L 270.291606 98.08248 
L 273.321793 99.18672 
L 276.363942 99.03192 
L 279.36 99.1248 
" clip-path="url(#p774a0219e3)" style="fill: none; stroke: #f5841e; stroke-width: 0.6"/>
   </g>
  </g>
 </g>
 <defs>
  <clipPath id="p774a0219e3">
   <rect x="8.64" y="4.8" width="270.72" height="103.2"/>
  </clipPath>
 </defs>
</svg>
