<?xml version="1.0" encoding="utf-8" standalone="no"?>
<!DOCTYPE svg PUBLIC "-//W3C//DTD SVG 1.1//EN"
  "http://www.w3.org/Graphics/SVG/1.1/DTD/svg11.dtd">
<svg xmlns:xlink="http://www.w3.org/1999/xlink" width="288pt" height="120pt" viewBox="0 0 288 120" xmlns="http://www.w3.org/2000/svg" version="1.1">
<desc id="nav-meta">{"window":"3m","count":4,"labels":["16.04","16.05","15.06","15.07"],"tick_utc":["2026-04-16T03:58:40Z","2026-05-16T04:20:56Z","2026-06-15T06:07:39Z","2026-07-15T03:47:50Z"],"w":720,"h":300}</desc>

 <metadata>
  <rdf:RDF xmlns:dc="http://purl.org/dc/elements/1.1/" xmlns:cc="http://creativecommons.org/ns#" xmlns:rdf="http://www.w3.org/1999/02/22-rdf-syntax-ns#">
   <cc:Work>
    <dc:type rdf:resource="http://purl.org/dc/dcmitype/StillImage"/>
    <dc:date>2026-07-15T03:47:52.154562</dc:date>
    <dc:format>image/svg+xml</dc:format>
    <dc:creator>
     <cc:Agent>
      <dc:title>Matplotlib v3.11.0, https://matplotlib.org/</dc:title>
     </cc:Agent>
    </dc:creator>
   </cc:Work>
  </rdf:RDF>
 </metadata>
 <defs>
  <style type="text/css">*{stroke-linejoin: round; stroke-linecap: butt}</style>
 </defs>
 <g id="figure_1">
  <g id="patch_1">
   <path d="M 0 120 
L 288 120 
L 288 0 
L 0 0 
L 0 120 
z
" style="fill: none; opacity: 0"/>
  </g>
  <g id="axes_1">
   <g id="patch_2">
    <path d="M 8.64 108 
L 279.36 108 
L 279.36 4.8 
L 8.64 4.8 
L 8.64 108 
z
" style="fill: none"/>
   </g>
   <g id="matplotlib.axis_1"/>
   <g id="matplotlib.axis_2"/>
   <g id="line2d_1">
    <path d="M 8.64 87.36 
L 279.36 87.36 
" clip-path="url(#p0d0d6b3d62)" style="fill: none; stroke: #b2b2b2; stroke-opacity: 0.35; stroke-width: 0.5; stroke-linecap: square"/>
   </g>
   <g id="line2d_2">
    <path d="M 8.64 66.72 
L 279.36 66.72 
" clip-path="url(#p0d0d6b3d62)" style="fill: none; stroke: #b2b2b2; stroke-opacity: 0.35; stroke-width: 0.5; stroke-linecap: square"/>
   </g>
   <g id="line2d_3">
    <path d="M 8.64 46.08 
L 279.36 46.08 
" clip-path="url(#p0d0d6b3d62)" style="fill: none; stroke: #b2b2b2; stroke-opacity: 0.35; stroke-width: 0.5; stroke-linecap: square"/>
   </g>
   <g id="line2d_4">
    <path d="M 8.64 25.44 
L 279.36 25.44 
" clip-path="url(#p0d0d6b3d62)" style="fill: none; stroke: #b2b2b2; stroke-opacity: 0.35; stroke-width: 0.5; stroke-linecap: square"/>
   </g>
   <g id="line2d_5">
    <path d="M 8.64 100.99272 
L 11.642124 100.61088 
L 14.617194 100.44576 
L 17.665172 100.94112 
L 20.680875 101.09592 
L 23.67593 101.00304 
L 26.674851 100.69344 
L 29.695288 100.9308 
L 32.711513 100.92048 
L 35.683867 100.81728 
L 38.738914 100.8792 
L 41.779581 100.64184 
L 44.794134 101.1888 
L 47.794168 101.09592 
L 50.807469 101.37456 
L 53.848588 101.21976 
L 56.780066 101.20944 
L 59.849388 101.23008 
L 62.856595 100.92048 
L 65.798588 101.06496 
L 68.859832 100.70376 
L 71.868885 100.55928 
L 74.827068 100.53864 
L 77.846322 99.60984 
L 80.915191 99.72336 
L 83.947188 99.44472 
L 86.913658 99.25896 
L 89.93622 99.32088 
L 92.941129 100.22904 
L 95.964213 100.01232 
L 98.93406 100.43544 
L 101.987227 100.75536 
L 105.02469 101.02368 
L 108.011389 101.02368 
L 111.0304 101.17848 
L 114.055781 100.7244 
L 117.040984 100.75536 
L 120.007906 101.11656 
L 123.063788 100.91016 
L 126.111628 100.89984 
L 129.074303 101.1372 
L 132.113438 101.2404 
L 135.112079 101.6532 
L 138.122559 101.4984 
L 141.087428 101.48808 
L 144.157098 101.32296 
L 147.209846 101.51904 
L 150.188502 101.7048 
L 153.230597 102.54072 
L 156.228542 103.08768 
L 159.187248 103.36632 
L 162.149262 104.22288 
L 165.22217 103.85136 
L 168.243721 103.68624 
L 171.194558 103.43856 
L 174.234007 103.81008 
L 177.259911 103.72752 
L 180.279965 103.50048 
L 183.266212 103.5108 
L 186.296294 103.31472 
L 189.404542 102.95352 
L 192.429959 102.61296 
L 195.342392 102.6336 
L 198.336229 102.9948 
L 201.415334 103.28376 
L 204.30329 103.01544 
L 207.374144 102.69552 
L 210.47045 102.582 
L 213.298868 102.88128 
L 216.317878 103.15992 
L 219.325328 103.36632 
L 222.349004 103.36632 
L 225.320384 102.81936 
L 228.38598 103.0464 
L 231.415992 102.9432 
L 234.365924 102.59232 
L 237.418185 102.40656 
L 240.373757 102.02472 
L 243.34928 101.68416 
L 246.344579 101.3436 
L 249.396875 101.6532 
L 252.434269 101.6532 
L 255.397397 101.63256 
L 258.323896 101.95248 
L 261.423335 102.08664 
L 264.424797 101.9112 
L 267.344229 102.066 
L 270.397465 102.18984 
L 273.412297 102.31368 
L 276.350983 102.45816 
L 279.36 102.08664 
" clip-path="url(#p0d0d6b3d62)" style="fill: none; stroke: #bebebe; stroke-width: 0.5; stroke-linecap: round"/>
   </g>
   <g id="line2d_6">
    <path d="M 8.64 84.58392 
L 11.642124 85.04832 
L 14.617194 83.71704 
L 17.665172 84.86256 
L 20.680875 85.6572 
L 23.67593 85.27536 
L 26.674851 84.49104 
L 29.695288 84.86256 
L 32.711513 85.32696 
L 35.683867 85.17216 
L 38.738914 85.31664 
L 41.779581 84.11952 
L 44.794134 85.66752 
L 47.794168 85.26504 
L 50.807469 86.26608 
L 53.848588 85.77072 
L 56.780066 85.38888 
L 59.849388 85.3992 
L 62.856595 84.09888 
L 65.798588 84.22272 
L 68.859832 84.34656 
L 71.868885 85.06896 
L 74.827068 85.7604 
L 77.846322 85.0896 
L 80.915191 85.01736 
L 83.947188 84.9348 
L 86.913658 85.296 
L 89.93622 85.35792 
L 92.941129 86.1732 
L 95.964213 85.92552 
L 98.93406 86.55504 
L 101.987227 87.13296 
L 105.02469 88.10304 
L 108.011389 87.9276 
L 111.0304 88.26816 
L 114.055781 87.78312 
L 117.040984 87.95856 
L 120.007906 88.94928 
L 123.063788 88.14432 
L 126.111628 88.33008 
L 129.074303 88.52616 
L 132.113438 88.86672 
L 135.112079 90.22896 
L 138.122559 89.82648 
L 141.087428 89.87808 
L 144.157098 89.46528 
L 147.209846 90.0432 
L 150.188502 89.96064 
L 153.230597 91.99368 
L 156.228542 93.05664 
L 159.187248 93.74808 
L 162.149262 97.02984 
L 165.22217 95.93592 
L 168.243721 95.07936 
L 171.194558 94.46016 
L 174.234007 95.47152 
L 177.259911 95.11032 
L 180.279965 94.82136 
L 183.266212 94.8936 
L 186.296294 94.70784 
L 189.404542 94.04736 
L 192.429959 93.40752 
L 195.342392 92.9844 
L 198.336229 93.93384 
L 201.415334 94.4292 
L 204.30329 94.19184 
L 207.374144 93.87192 
L 210.47045 93.81 
L 213.298868 94.03704 
L 216.317878 94.83168 
L 219.325328 95.48184 
L 222.349004 96.63768 
L 225.320384 96.14232 
L 228.38598 96.30744 
L 231.415992 96.29712 
L 234.365924 96.04944 
L 237.418185 95.9256 
L 240.373757 95.39928 
L 243.34928 94.31568 
L 246.344579 93.57264 
L 249.396875 93.32496 
L 252.434269 93.22176 
L 255.397397 93.35592 
L 258.323896 93.61392 
L 261.423335 93.77904 
L 264.424797 93.26304 
L 267.344229 92.92248 
L 270.397465 92.71608 
L 273.412297 93.15984 
L 276.350983 93.17016 
L 279.36 91.80792 
" clip-path="url(#p0d0d6b3d62)" style="fill: none; stroke: #4a8dff; stroke-width: 0.6"/>
   </g>
   <g id="line2d_7">
    <path d="M 8.64 98.38176 
L 11.642124 98.48496 
L 14.617194 96.70992 
L 17.665172 98.05152 
L 20.680875 98.48496 
L 23.67593 97.96896 
L 26.674851 96.32808 
L 29.695288 96.20424 
L 32.711513 96.16296 
L 35.683867 96.1836 
L 38.738914 96.50352 
L 41.779581 94.76976 
L 44.794134 97.19496 
L 47.794168 96.9576 
L 50.807469 97.9896 
L 53.848588 96.89568 
L 56.780066 95.45088 
L 59.849388 95.67792 
L 62.856595 93.43848 
L 65.798588 92.90184 
L 68.859832 92.25168 
L 71.868885 92.87088 
L 74.827068 94.2744 
L 77.846322 93.1392 
L 80.915191 92.97408 
L 83.947188 92.9844 
L 86.913658 92.60256 
L 89.93622 92.53032 
L 92.941129 94.54272 
L 95.964213 92.85024 
L 98.93406 94.82136 
L 101.987227 95.75016 
L 105.02469 96.97824 
L 108.011389 97.08144 
L 111.0304 97.23624 
L 114.055781 95.94624 
L 117.040984 96.30744 
L 120.007906 98.08248 
L 123.063788 97.2672 
L 126.111628 96.61704 
L 129.074303 97.23624 
L 132.113438 98.08248 
L 135.112079 99.18672 
L 138.122559 99.03192 
L 141.087428 99.1248 
L 144.157098 98.74296 
L 147.209846 99.09384 
L 150.188502 100.0536 
L 153.230597 101.23008 
L 156.228542 101.99376 
L 159.187248 102.08664 
L 162.149262 102.8916 
L 165.22217 102.45816 
L 168.243721 102.28272 
L 171.194558 102.10728 
L 174.234007 102.582 
L 177.259911 102.29304 
L 180.279965 102.08664 
L 183.266212 102.066 
L 186.296294 101.86992 
L 189.404542 101.48808 
L 192.429959 101.40552 
L 195.342392 101.4984 
L 198.336229 101.97312 
L 201.415334 102.26208 
L 204.30329 102.066 
L 207.374144 101.90088 
L 210.47045 101.90088 
L 213.298868 102.0144 
L 216.317878 102.25176 
L 219.325328 102.6336 
L 222.349004 102.88128 
L 225.320384 102.77808 
L 228.38598 102.85032 
L 231.415992 102.93288 
L 234.365924 102.95352 
L 237.418185 103.00512 
L 240.373757 102.69552 
L 243.34928 102.55104 
L 246.344579 102.2724 
L 249.396875 102.21048 
L 252.434269 102.12792 
L 255.397397 102.13824 
L 258.323896 102.25176 
L 261.423335 102.36528 
L 264.424797 101.94216 
L 267.344229 101.92152 
L 270.397465 101.9112 
L 273.412297 102.2208 
L 276.350983 102.31368 
L 279.36 101.79768 
" clip-path="url(#p0d0d6b3d62)" style="fill: none; stroke: #f5841e; stroke-width: 0.6"/>
   </g>
  </g>
 </g>
 <defs>
  <clipPath id="p0d0d6b3d62">
   <rect x="8.64" y="4.8" width="270.72" height="103.2"/>
  </clipPath>
 </defs>
</svg>
