<?xml version="1.0" encoding="utf-8" standalone="no"?>
<!DOCTYPE svg PUBLIC "-//W3C//DTD SVG 1.1//EN"
  "http://www.w3.org/Graphics/SVG/1.1/DTD/svg11.dtd">
<svg xmlns:xlink="http://www.w3.org/1999/xlink" width="288pt" height="120pt" viewBox="0 0 288 120" xmlns="http://www.w3.org/2000/svg" version="1.1">
<desc id="nav-meta">{"window":"3m","count":4,"labels":["13.12","12.01","10.02","12.03"],"tick_utc":["2025-12-13T12:00:00Z","2026-01-12T12:00:00Z","2026-02-10T03:42:23Z","2026-03-12T03:19:44Z"],"w":720,"h":300}</desc>

 <metadata>
  <rdf:RDF xmlns:dc="http://purl.org/dc/elements/1.1/" xmlns:cc="http://creativecommons.org/ns#" xmlns:rdf="http://www.w3.org/1999/02/22-rdf-syntax-ns#">
   <cc:Work>
    <dc:type rdf:resource="http://purl.org/dc/dcmitype/StillImage"/>
    <dc:date>2026-03-12T13:48:09.544557</dc:date>
    <dc:format>image/svg+xml</dc:format>
    <dc:creator>
     <cc:Agent>
      <dc:title>Matplotlib v3.10.8, https://matplotlib.org/</dc:title>
     </cc:Agent>
    </dc:creator>
   </cc:Work>
  </rdf:RDF>
 </metadata>
 <defs>
  <style type="text/css">*{stroke-linejoin: round; stroke-linecap: butt}</style>
 </defs>
 <g id="figure_1">
  <g id="patch_1">
   <path d="M 0 120 
L 288 120 
L 288 0 
L 0 0 
L 0 120 
z
" style="fill: none; opacity: 0"/>
  </g>
  <g id="axes_1">
   <g id="patch_2">
    <path d="M 8.64 108 
L 279.36 108 
L 279.36 4.8 
L 8.64 4.8 
L 8.64 108 
z
" style="fill: none"/>
   </g>
   <g id="matplotlib.axis_1"/>
   <g id="matplotlib.axis_2"/>
   <g id="line2d_1">
    <path d="M 8.64 87.36 
L 279.36 87.36 
" clip-path="url(#p0deeab4154)" style="fill: none; stroke: #b2b2b2; stroke-opacity: 0.35; stroke-width: 0.5; stroke-linecap: square"/>
   </g>
   <g id="line2d_2">
    <path d="M 8.64 66.72 
L 279.36 66.72 
" clip-path="url(#p0deeab4154)" style="fill: none; stroke: #b2b2b2; stroke-opacity: 0.35; stroke-width: 0.5; stroke-linecap: square"/>
   </g>
   <g id="line2d_3">
    <path d="M 8.64 46.08 
L 279.36 46.08 
" clip-path="url(#p0deeab4154)" style="fill: none; stroke: #b2b2b2; stroke-opacity: 0.35; stroke-width: 0.5; stroke-linecap: square"/>
   </g>
   <g id="line2d_4">
    <path d="M 8.64 25.44 
L 279.36 25.44 
" clip-path="url(#p0deeab4154)" style="fill: none; stroke: #b2b2b2; stroke-opacity: 0.35; stroke-width: 0.5; stroke-linecap: square"/>
   </g>
   <g id="line2d_5">
    <path d="M 8.64 90.31152 
L 11.694196 90.10512 
L 14.748393 91.09584 
L 17.802589 91.61184 
L 20.856785 91.31256 
L 23.910981 92.87088 
L 26.965178 93.8616 
L 30.019374 92.02464 
L 33.07357 92.13816 
L 36.127767 92.07624 
L 39.181963 92.14848 
L 42.236159 92.64384 
L 45.290355 93.01536 
L 48.344552 93.69648 
L 51.398748 93.11856 
L 54.452944 92.44776 
L 57.507141 92.30328 
L 60.561337 92.87088 
L 63.615533 92.38584 
L 66.66973 92.47872 
L 69.723926 91.88016 
L 72.778122 90.42504 
L 75.832318 90.08448 
L 78.886515 89.92968 
L 81.940711 88.76352 
L 84.994907 87.94824 
L 88.049104 89.2692 
L 91.1033 88.72224 
L 94.157496 89.39304 
L 97.211692 89.40336 
L 100.265889 88.41264 
L 103.320085 88.4952 
L 106.374281 86.86464 
L 109.428478 86.42088 
L 112.482674 87.62832 
L 115.53687 86.93688 
L 118.591066 87.23616 
L 121.645263 88.63968 
L 124.699459 90.0432 
L 127.753655 92.12784 
L 130.807852 91.16808 
L 133.862048 91.46736 
L 136.916244 91.73568 
L 139.97044 91.78728 
L 143.024637 94.0164 
L 146.078833 92.5716 
L 149.133029 91.76664 
L 152.187226 92.33424 
L 155.241422 94.36728 
L 158.295618 94.46016 
L 161.349814 97.71096 
L 164.404011 98.48496 
L 167.458207 97.85544 
L 170.036635 99.10416 
L 172.463766 100.16712 
L 175.516407 102.23112 
L 178.557524 100.54896 
L 181.681536 100.70376 
L 184.710528 100.68312 
L 187.782151 100.95144 
L 190.83002 101.28168 
L 193.873223 101.71512 
L 196.9265 101.84928 
L 199.943968 101.034 
L 202.837006 100.54896 
L 206.087109 101.04432 
L 208.757657 100.81728 
L 212.190659 101.034 
L 215.241143 101.4984 
L 218.277488 101.33328 
L 221.31302 101.1372 
L 224.402106 101.06496 
L 227.465493 102.09696 
L 230.261674 102.05568 
L 233.562892 101.4984 
L 236.603479 100.60056 
L 239.651878 100.80696 
L 242.670088 101.45712 
L 245.793676 100.55928 
L 248.81634 101.10624 
L 251.877642 100.8792 
L 254.914729 100.74504 
L 257.9755 100.21872 
L 261.028247 100.53864 
L 264.059007 101.07528 
L 267.142861 101.38488 
L 270.206213 101.26104 
L 273.24079 100.78632 
L 276.293785 100.91016 
L 279.36 100.99272 
" clip-path="url(#p0deeab4154)" style="fill: none; stroke: #bebebe; stroke-width: 0.5; stroke-linecap: round"/>
   </g>
   <g id="line2d_6">
    <path d="M 8.64 73.79952 
L 11.694196 73.35576 
L 14.748393 74.0988 
L 17.802589 75.5952 
L 20.856785 75.5952 
L 23.910981 77.61792 
L 26.965178 77.63856 
L 30.019374 75.40944 
L 33.07357 75.40944 
L 36.127767 75.04824 
L 39.181963 74.98632 
L 42.236159 75.58488 
L 45.290355 75.87384 
L 48.344552 76.49304 
L 51.398748 76.15248 
L 54.452944 75.82224 
L 57.507141 75.84288 
L 60.561337 76.03896 
L 63.615533 75.51264 
L 66.66973 75.56424 
L 69.723926 75.05856 
L 72.778122 73.26288 
L 75.832318 73.20096 
L 78.886515 73.00488 
L 81.940711 71.68392 
L 84.994907 70.6932 
L 88.049104 72.62304 
L 91.1033 73.52088 
L 94.157496 73.83048 
L 97.211692 73.8408 
L 100.265889 73.29384 
L 103.320085 73.72728 
L 106.374281 70.32168 
L 109.428478 69.77472 
L 112.482674 70.34232 
L 115.53687 70.67256 
L 118.591066 70.51776 
L 121.645263 70.848 
L 124.699459 72.31344 
L 127.753655 76.01832 
L 130.807852 75.41976 
L 133.862048 75.83256 
L 136.916244 75.79128 
L 139.97044 75.82224 
L 143.024637 77.82432 
L 146.078833 76.14216 
L 149.133029 74.75928 
L 152.187226 74.96568 
L 155.241422 77.75208 
L 158.295618 79.48584 
L 161.349814 83.31456 
L 164.404011 85.90488 
L 167.458207 84.79032 
L 170.036635 85.84296 
L 172.463766 88.25784 
L 175.516407 91.41576 
L 178.557524 88.7532 
L 181.681536 88.65 
L 184.710528 88.55712 
L 187.782151 88.96992 
L 190.83002 89.7336 
L 193.873223 90.456 
L 196.9265 90.56952 
L 199.943968 89.15568 
L 202.837006 88.9596 
L 206.087109 90.6624 
L 208.757657 89.94 
L 212.190659 90.00192 
L 215.241143 90.3528 
L 218.277488 90.62112 
L 221.31302 90.5076 
L 224.402106 90.3528 
L 227.465493 92.004 
L 230.261674 92.13816 
L 233.562892 91.25064 
L 236.603479 89.166 
L 239.651878 89.56848 
L 242.670088 90.93072 
L 245.793676 89.41368 
L 248.81634 90.37344 
L 251.877642 89.79552 
L 254.914729 90.23928 
L 257.9755 88.0824 
L 261.028247 88.7532 
L 264.059007 90.16704 
L 267.142861 90.67272 
L 270.206213 90.18768 
L 273.24079 89.2692 
L 276.293785 89.54784 
L 279.36 89.49624 
" clip-path="url(#p0deeab4154)" style="fill: none; stroke: #4a8dff; stroke-width: 0.6"/>
   </g>
   <g id="line2d_7">
    <path d="M 8.64 83.13912 
L 11.694196 83.19072 
L 14.748393 85.296 
L 17.802589 87.17424 
L 20.856785 85.71912 
L 23.910981 87.53544 
L 26.965178 88.17528 
L 30.019374 85.41984 
L 33.07357 85.17216 
L 36.127767 84.9348 
L 39.181963 85.01736 
L 42.236159 86.14224 
L 45.290355 85.90488 
L 48.344552 86.328 
L 51.398748 86.24544 
L 54.452944 85.72944 
L 57.507141 85.7088 
L 60.561337 86.40024 
L 63.615533 85.09992 
L 66.66973 86.02872 
L 69.723926 84.78 
L 72.778122 83.53128 
L 75.832318 82.83984 
L 78.886515 82.03488 
L 81.940711 79.39296 
L 84.994907 79.66128 
L 88.049104 82.15872 
L 91.1033 82.43736 
L 94.157496 82.93272 
L 97.211692 83.00496 
L 100.265889 82.6128 
L 103.320085 82.28256 
L 106.374281 78.01008 
L 109.428478 76.19376 
L 112.482674 77.66952 
L 115.53687 77.74176 
L 118.591066 78.1752 
L 121.645263 79.5684 
L 124.699459 80.8068 
L 127.753655 85.20312 
L 130.807852 84.12984 
L 133.862048 84.03696 
L 136.916244 84.06792 
L 139.97044 84.3156 
L 143.024637 87.02976 
L 146.078833 85.21344 
L 149.133029 84.28464 
L 152.187226 84.32592 
L 155.241422 89.08344 
L 158.295618 89.5272 
L 161.349814 95.14128 
L 164.404011 96.98856 
L 167.458207 95.08968 
L 170.036635 97.71096 
L 172.463766 99.80592 
L 175.516407 101.79768 
L 178.557524 100.03296 
L 181.681536 100.518 
L 184.710528 99.98136 
L 187.782151 100.49736 
L 190.83002 100.78632 
L 193.873223 101.07528 
L 196.9265 101.26104 
L 199.943968 100.63152 
L 202.837006 100.38384 
L 206.087109 100.84824 
L 208.757657 100.65216 
L 212.190659 101.034 
L 215.241143 101.19912 
L 218.277488 101.10624 
L 221.31302 100.97208 
L 224.402106 100.91016 
L 227.465493 101.7564 
L 230.261674 101.84928 
L 233.562892 101.56032 
L 236.603479 100.85856 
L 239.651878 101.12688 
L 242.670088 101.4468 
L 245.793676 101.02368 
L 248.81634 101.30232 
L 251.877642 100.81728 
L 254.914729 100.79664 
L 257.9755 99.3312 
L 261.028247 99.92976 
L 264.059007 100.78632 
L 267.142861 101.17848 
L 270.206213 101.1372 
L 273.24079 100.21872 
L 276.293785 100.37352 
L 279.36 100.4664 
" clip-path="url(#p0deeab4154)" style="fill: none; stroke: #f5841e; stroke-width: 0.6"/>
   </g>
  </g>
 </g>
 <defs>
  <clipPath id="p0deeab4154">
   <rect x="8.64" y="4.8" width="270.72" height="103.2"/>
  </clipPath>
 </defs>
</svg>
