<?xml version="1.0" encoding="utf-8" standalone="no"?>
<!DOCTYPE svg PUBLIC "-//W3C//DTD SVG 1.1//EN"
  "http://www.w3.org/Graphics/SVG/1.1/DTD/svg11.dtd">
<svg xmlns:xlink="http://www.w3.org/1999/xlink" width="288pt" height="120pt" viewBox="0 0 288 120" xmlns="http://www.w3.org/2000/svg" version="1.1">
<desc id="nav-meta">{"window":"3m","count":4,"labels":["26.03","25.04","24.05","23.06"],"tick_utc":["2026-03-26T03:39:29Z","2026-04-25T03:44:07Z","2026-05-24T04:51:26Z","2026-06-23T04:45:28Z"],"w":720,"h":300}</desc>

 <metadata>
  <rdf:RDF xmlns:dc="http://purl.org/dc/elements/1.1/" xmlns:cc="http://creativecommons.org/ns#" xmlns:rdf="http://www.w3.org/1999/02/22-rdf-syntax-ns#">
   <cc:Work>
    <dc:type rdf:resource="http://purl.org/dc/dcmitype/StillImage"/>
    <dc:date>2026-06-23T10:22:46.923017</dc:date>
    <dc:format>image/svg+xml</dc:format>
    <dc:creator>
     <cc:Agent>
      <dc:title>Matplotlib v3.11.0, https://matplotlib.org/</dc:title>
     </cc:Agent>
    </dc:creator>
   </cc:Work>
  </rdf:RDF>
 </metadata>
 <defs>
  <style type="text/css">*{stroke-linejoin: round; stroke-linecap: butt}</style>
 </defs>
 <g id="figure_1">
  <g id="patch_1">
   <path d="M 0 120 
L 288 120 
L 288 0 
L 0 0 
L 0 120 
z
" style="fill: none; opacity: 0"/>
  </g>
  <g id="axes_1">
   <g id="patch_2">
    <path d="M 8.64 108 
L 279.36 108 
L 279.36 4.8 
L 8.64 4.8 
L 8.64 108 
z
" style="fill: none"/>
   </g>
   <g id="matplotlib.axis_1"/>
   <g id="matplotlib.axis_2"/>
   <g id="line2d_1">
    <path d="M 8.64 87.36 
L 279.36 87.36 
" clip-path="url(#pb9717062cd)" style="fill: none; stroke: #b2b2b2; stroke-opacity: 0.35; stroke-width: 0.5; stroke-linecap: square"/>
   </g>
   <g id="line2d_2">
    <path d="M 8.64 66.72 
L 279.36 66.72 
" clip-path="url(#pb9717062cd)" style="fill: none; stroke: #b2b2b2; stroke-opacity: 0.35; stroke-width: 0.5; stroke-linecap: square"/>
   </g>
   <g id="line2d_3">
    <path d="M 8.64 46.08 
L 279.36 46.08 
" clip-path="url(#pb9717062cd)" style="fill: none; stroke: #b2b2b2; stroke-opacity: 0.35; stroke-width: 0.5; stroke-linecap: square"/>
   </g>
   <g id="line2d_4">
    <path d="M 8.64 25.44 
L 279.36 25.44 
" clip-path="url(#pb9717062cd)" style="fill: none; stroke: #b2b2b2; stroke-opacity: 0.35; stroke-width: 0.5; stroke-linecap: square"/>
   </g>
   <g id="line2d_5">
    <path d="M 8.64 100.13616 
L 11.684068 100.80696 
L 14.695235 101.38488 
L 17.776884 101.3436 
L 20.825808 101.292 
L 23.846863 101.28168 
L 26.91317 101.28168 
L 29.913358 101.8596 
L 32.957074 101.88024 
L 35.971268 101.72544 
L 39.05728 101.68416 
L 42.105359 101.47776 
L 45.125851 101.78736 
L 48.17101 101.09592 
L 51.200651 101.46744 
L 54.268858 101.3436 
L 57.262607 101.05464 
L 60.357381 101.3952 
L 63.413201 101.47776 
L 66.434081 100.86888 
L 69.471991 101.26104 
L 72.525383 100.99272 
L 75.559423 100.61088 
L 78.566121 100.44576 
L 81.646503 100.94112 
L 84.694266 101.09592 
L 87.721162 101.00304 
L 90.751964 100.69344 
L 93.804512 100.9308 
L 96.852803 100.92048 
L 99.856757 100.81728 
L 102.944282 100.8792 
L 106.017274 100.64184 
L 109.063876 101.1888 
L 112.095804 101.09592 
L 115.141139 101.37456 
L 118.214588 101.21976 
L 121.177232 101.20944 
L 124.279184 101.23008 
L 127.31836 100.92048 
L 130.29163 101.06496 
L 133.385419 100.70376 
L 136.426461 100.55928 
L 139.416093 100.53864 
L 142.467445 99.60984 
L 145.568939 99.72336 
L 148.63317 99.44472 
L 151.631177 99.25896 
L 154.685872 99.32088 
L 157.722726 100.22904 
L 160.777949 100.01232 
L 163.779369 100.43544 
L 166.864994 100.75536 
L 169.934749 101.02368 
L 172.9532 101.02368 
L 176.004306 101.17848 
L 179.061851 100.7244 
L 182.078789 100.75536 
L 185.077253 101.11656 
L 188.165623 100.91016 
L 191.245864 100.89984 
L 194.240035 101.1372 
L 197.311479 101.2404 
L 200.342 101.6532 
L 203.384485 101.4984 
L 206.380873 101.48808 
L 209.483177 101.32296 
L 212.56838 101.51904 
L 215.578702 101.7048 
L 218.653137 102.54072 
L 221.682954 103.08768 
L 224.673114 103.36632 
L 227.666617 104.22288 
L 230.772194 103.85136 
L 233.825868 103.68624 
L 236.808076 103.43856 
L 239.879837 103.81008 
L 242.937909 103.72752 
L 245.99007 103.50048 
L 249.008064 103.5108 
L 252.070359 103.31472 
L 255.211652 102.95352 
L 258.269232 102.61296 
L 261.212627 102.6336 
L 264.238292 102.9948 
L 267.350132 103.28376 
L 270.26879 103.01544 
L 273.37229 102.69552 
L 276.501513 102.582 
L 279.36 102.88128 
" clip-path="url(#pb9717062cd)" style="fill: none; stroke: #bebebe; stroke-width: 0.5; stroke-linecap: round"/>
   </g>
   <g id="line2d_6">
    <path d="M 8.64 87.65928 
L 11.684068 88.96992 
L 14.695235 90.07416 
L 17.776884 89.76456 
L 20.825808 89.3724 
L 23.846863 89.00088 
L 26.91317 88.42296 
L 29.913358 88.81512 
L 32.957074 89.10408 
L 35.971268 89.14536 
L 39.05728 89.07312 
L 42.105359 87.9792 
L 45.125851 88.29912 
L 48.17101 86.38992 
L 51.200651 87.24648 
L 54.268858 87.1536 
L 57.262607 86.21448 
L 60.357381 86.66856 
L 63.413201 87.01944 
L 66.434081 84.44976 
L 69.471991 85.05864 
L 72.525383 84.58392 
L 75.559423 85.04832 
L 78.566121 83.71704 
L 81.646503 84.86256 
L 84.694266 85.6572 
L 87.721162 85.27536 
L 90.751964 84.49104 
L 93.804512 84.86256 
L 96.852803 85.32696 
L 99.856757 85.17216 
L 102.944282 85.31664 
L 106.017274 84.11952 
L 109.063876 85.66752 
L 112.095804 85.26504 
L 115.141139 86.26608 
L 118.214588 85.77072 
L 121.177232 85.38888 
L 124.279184 85.3992 
L 127.31836 84.09888 
L 130.29163 84.22272 
L 133.385419 84.34656 
L 136.426461 85.06896 
L 139.416093 85.7604 
L 142.467445 85.0896 
L 145.568939 85.01736 
L 148.63317 84.9348 
L 151.631177 85.296 
L 154.685872 85.35792 
L 157.722726 86.1732 
L 160.777949 85.92552 
L 163.779369 86.55504 
L 166.864994 87.13296 
L 169.934749 88.10304 
L 172.9532 87.9276 
L 176.004306 88.26816 
L 179.061851 87.78312 
L 182.078789 87.95856 
L 185.077253 88.94928 
L 188.165623 88.14432 
L 191.245864 88.33008 
L 194.240035 88.52616 
L 197.311479 88.86672 
L 200.342 90.22896 
L 203.384485 89.82648 
L 206.380873 89.87808 
L 209.483177 89.46528 
L 212.56838 90.0432 
L 215.578702 89.96064 
L 218.653137 91.99368 
L 221.682954 93.05664 
L 224.673114 93.74808 
L 227.666617 97.02984 
L 230.772194 95.93592 
L 233.825868 95.07936 
L 236.808076 94.46016 
L 239.879837 95.47152 
L 242.937909 95.11032 
L 245.99007 94.82136 
L 249.008064 94.8936 
L 252.070359 94.70784 
L 255.211652 94.04736 
L 258.269232 93.40752 
L 261.212627 92.9844 
L 264.238292 93.93384 
L 267.350132 94.4292 
L 270.26879 94.19184 
L 273.37229 93.87192 
L 276.501513 93.81 
L 279.36 94.03704 
" clip-path="url(#pb9717062cd)" style="fill: none; stroke: #4a8dff; stroke-width: 0.6"/>
   </g>
   <g id="line2d_7">
    <path d="M 8.64 100.002 
L 11.684068 100.64184 
L 14.695235 101.41584 
L 17.776884 101.21976 
L 20.825808 101.14752 
L 23.846863 101.00304 
L 26.91317 100.86888 
L 29.913358 101.21976 
L 32.957074 101.28168 
L 35.971268 101.20944 
L 39.05728 101.14752 
L 42.105359 100.55928 
L 45.125851 100.65216 
L 48.17101 99.80592 
L 51.200651 99.96072 
L 54.268858 99.6408 
L 57.262607 99.1764 
L 60.357381 99.70272 
L 63.413201 99.94008 
L 66.434081 98.57784 
L 69.471991 98.65008 
L 72.525383 98.38176 
L 75.559423 98.48496 
L 78.566121 96.70992 
L 81.646503 98.05152 
L 84.694266 98.48496 
L 87.721162 97.96896 
L 90.751964 96.32808 
L 93.804512 96.20424 
L 96.852803 96.16296 
L 99.856757 96.1836 
L 102.944282 96.50352 
L 106.017274 94.76976 
L 109.063876 97.19496 
L 112.095804 96.9576 
L 115.141139 97.9896 
L 118.214588 96.89568 
L 121.177232 95.45088 
L 124.279184 95.67792 
L 127.31836 93.43848 
L 130.29163 92.90184 
L 133.385419 92.25168 
L 136.426461 92.87088 
L 139.416093 94.2744 
L 142.467445 93.1392 
L 145.568939 92.97408 
L 148.63317 92.9844 
L 151.631177 92.60256 
L 154.685872 92.53032 
L 157.722726 94.54272 
L 160.777949 92.85024 
L 163.779369 94.82136 
L 166.864994 95.75016 
L 169.934749 96.97824 
L 172.9532 97.08144 
L 176.004306 97.23624 
L 179.061851 95.94624 
L 182.078789 96.30744 
L 185.077253 98.08248 
L 188.165623 97.2672 
L 191.245864 96.61704 
L 194.240035 97.23624 
L 197.311479 98.08248 
L 200.342 99.18672 
L 203.384485 99.03192 
L 206.380873 99.1248 
L 209.483177 98.74296 
L 212.56838 99.09384 
L 215.578702 100.0536 
L 218.653137 101.23008 
L 221.682954 101.99376 
L 224.673114 102.08664 
L 227.666617 102.8916 
L 230.772194 102.45816 
L 233.825868 102.28272 
L 236.808076 102.10728 
L 239.879837 102.582 
L 242.937909 102.29304 
L 245.99007 102.08664 
L 249.008064 102.066 
L 252.070359 101.86992 
L 255.211652 101.48808 
L 258.269232 101.40552 
L 261.212627 101.4984 
L 264.238292 101.97312 
L 267.350132 102.26208 
L 270.26879 102.066 
L 273.37229 101.90088 
L 276.501513 101.90088 
L 279.36 102.0144 
" clip-path="url(#pb9717062cd)" style="fill: none; stroke: #f5841e; stroke-width: 0.6"/>
   </g>
  </g>
 </g>
 <defs>
  <clipPath id="pb9717062cd">
   <rect x="8.64" y="4.8" width="270.72" height="103.2"/>
  </clipPath>
 </defs>
</svg>
