<?xml version="1.0" encoding="utf-8" standalone="no"?>
<!DOCTYPE svg PUBLIC "-//W3C//DTD SVG 1.1//EN"
  "http://www.w3.org/Graphics/SVG/1.1/DTD/svg11.dtd">
<svg xmlns:xlink="http://www.w3.org/1999/xlink" width="288pt" height="120pt" viewBox="0 0 288 120" xmlns="http://www.w3.org/2000/svg" version="1.1">
<desc id="nav-meta">{"window":"6m","count":4,"labels":["08.12","06.02","06.04","05.06"],"tick_utc":["2025-12-08T12:00:00Z","2026-02-06T03:19:18Z","2026-04-06T03:50:17Z","2026-06-05T05:03:08Z"],"w":720,"h":300}</desc>

 <metadata>
  <rdf:RDF xmlns:dc="http://purl.org/dc/elements/1.1/" xmlns:cc="http://creativecommons.org/ns#" xmlns:rdf="http://www.w3.org/1999/02/22-rdf-syntax-ns#">
   <cc:Work>
    <dc:type rdf:resource="http://purl.org/dc/dcmitype/StillImage"/>
    <dc:date>2026-06-05T20:32:17.359837</dc:date>
    <dc:format>image/svg+xml</dc:format>
    <dc:creator>
     <cc:Agent>
      <dc:title>Matplotlib v3.10.9, https://matplotlib.org/</dc:title>
     </cc:Agent>
    </dc:creator>
   </cc:Work>
  </rdf:RDF>
 </metadata>
 <defs>
  <style type="text/css">*{stroke-linejoin: round; stroke-linecap: butt}</style>
 </defs>
 <g id="figure_1">
  <g id="patch_1">
   <path d="M 0 120 
L 288 120 
L 288 0 
L 0 0 
L 0 120 
z
" style="fill: none; opacity: 0"/>
  </g>
  <g id="axes_1">
   <g id="patch_2">
    <path d="M 8.64 108 
L 279.36 108 
L 279.36 4.8 
L 8.64 4.8 
L 8.64 108 
z
" style="fill: none"/>
   </g>
   <g id="matplotlib.axis_1"/>
   <g id="matplotlib.axis_2"/>
   <g id="line2d_1">
    <path d="M 8.64 87.36 
L 279.36 87.36 
" clip-path="url(#p521ab90da0)" style="fill: none; stroke: #b2b2b2; stroke-opacity: 0.35; stroke-width: 0.5; stroke-linecap: square"/>
   </g>
   <g id="line2d_2">
    <path d="M 8.64 66.72 
L 279.36 66.72 
" clip-path="url(#p521ab90da0)" style="fill: none; stroke: #b2b2b2; stroke-opacity: 0.35; stroke-width: 0.5; stroke-linecap: square"/>
   </g>
   <g id="line2d_3">
    <path d="M 8.64 46.08 
L 279.36 46.08 
" clip-path="url(#p521ab90da0)" style="fill: none; stroke: #b2b2b2; stroke-opacity: 0.35; stroke-width: 0.5; stroke-linecap: square"/>
   </g>
   <g id="line2d_4">
    <path d="M 8.64 25.44 
L 279.36 25.44 
" clip-path="url(#p521ab90da0)" style="fill: none; stroke: #b2b2b2; stroke-opacity: 0.35; stroke-width: 0.5; stroke-linecap: square"/>
   </g>
   <g id="line2d_5">
    <path d="M 8.64 90.53856 
L 10.154852 90.08448 
L 11.669704 88.79448 
L 13.184556 89.20728 
L 14.699409 89.22792 
L 16.214261 90.31152 
L 17.729113 90.10512 
L 19.243965 91.09584 
L 20.758817 91.61184 
L 22.273669 91.31256 
L 23.788522 92.87088 
L 25.303374 93.8616 
L 26.818226 92.02464 
L 28.333078 92.13816 
L 29.84793 92.07624 
L 31.362782 92.14848 
L 32.877634 92.64384 
L 34.392487 93.01536 
L 35.907339 93.69648 
L 38.937043 92.44776 
L 40.451895 92.30328 
L 41.966747 92.87088 
L 43.4816 92.38584 
L 44.996452 92.47872 
L 46.511304 91.88016 
L 48.026156 90.42504 
L 49.541008 90.08448 
L 51.05586 89.92968 
L 52.570712 88.76352 
L 54.085565 87.94824 
L 55.600417 89.2692 
L 57.115269 88.72224 
L 58.630121 89.39304 
L 60.144973 89.40336 
L 61.659825 88.41264 
L 63.174678 88.4952 
L 64.68953 86.86464 
L 66.204382 86.42088 
L 67.719234 87.62832 
L 69.234086 86.93688 
L 70.748938 87.23616 
L 73.778643 90.0432 
L 75.293495 92.12784 
L 76.808347 91.16808 
L 79.838051 91.73568 
L 81.352903 91.78728 
L 82.867756 94.0164 
L 84.382608 92.5716 
L 85.89746 91.76664 
L 87.412312 92.33424 
L 88.927164 94.36728 
L 90.442016 94.46016 
L 91.956869 97.71096 
L 93.471721 98.48496 
L 94.986573 97.85544 
L 97.469282 100.16712 
L 98.983363 102.23112 
L 100.491728 100.54896 
L 102.041208 100.70376 
L 103.543559 100.68312 
L 106.578769 101.28168 
L 108.088168 101.71512 
L 109.602564 101.84928 
L 111.0992 101.034 
L 112.534119 100.54896 
L 114.146139 101.04432 
L 115.470705 100.81728 
L 117.173441 101.034 
L 118.686452 101.4984 
L 123.230202 101.06496 
L 124.749613 102.09696 
L 126.136492 102.05568 
L 127.773865 101.4984 
L 129.281966 100.60056 
L 130.793943 100.80696 
L 132.290947 101.45712 
L 133.840216 100.55928 
L 135.339429 101.10624 
L 138.364171 100.74504 
L 139.882285 100.21872 
L 141.396418 100.53864 
L 142.899646 101.07528 
L 144.429208 101.38488 
L 145.948601 101.26104 
L 147.453723 100.78632 
L 150.488792 100.99272 
L 152.000716 100.38384 
L 155.057386 100.60056 
L 156.576516 99.76464 
L 158.064859 99.49632 
L 159.591265 99.40344 
L 161.106538 100.09488 
L 162.606645 100.3632 
L 164.112625 100.19808 
L 167.168542 100.79664 
L 168.669367 100.26 
L 170.297044 99.83688 
L 171.717499 100.13616 
L 174.734632 101.38488 
L 180.822444 101.28168 
L 182.317344 101.8596 
L 183.833932 101.88024 
L 185.335809 101.72544 
L 186.873472 101.68416 
L 188.392234 101.47776 
L 189.89725 101.78736 
L 191.414557 101.09592 
L 192.924132 101.46744 
L 194.452922 101.3436 
L 195.944614 101.05464 
L 197.486642 101.3952 
L 199.009261 101.47776 
L 200.51447 100.86888 
L 202.028165 101.26104 
L 203.549575 100.99272 
L 205.061341 100.61088 
L 206.559484 100.44576 
L 208.094341 100.94112 
L 209.612946 101.09592 
L 211.121153 101.00304 
L 212.631306 100.69344 
L 214.152295 100.9308 
L 218.706354 100.8792 
L 220.23753 100.64184 
L 221.755555 101.1888 
L 223.26627 101.09592 
L 224.783664 101.37456 
L 226.315067 101.21976 
L 229.336864 101.23008 
L 230.85119 100.92048 
L 232.332677 101.06496 
L 233.874215 100.70376 
L 235.38947 100.55928 
L 236.87911 100.53864 
L 238.399502 99.60984 
L 239.944879 99.72336 
L 242.965502 99.25896 
L 244.48756 99.32088 
L 246.000729 100.22904 
L 247.52305 100.01232 
L 250.556033 100.75536 
L 252.085595 101.02368 
L 253.589595 101.02368 
L 255.109864 101.17848 
L 256.633343 100.7244 
L 258.136588 100.75536 
L 259.630629 101.11656 
L 261.169466 100.91016 
L 262.704253 100.89984 
L 264.196155 101.1372 
L 265.726559 101.2404 
L 267.236572 101.6532 
L 268.752546 101.4984 
L 270.245552 101.48808 
L 271.791332 101.32296 
L 274.828541 101.7048 
L 276.360435 102.54072 
L 277.870097 103.08768 
L 279.36 103.36632 
L 279.36 103.36632 
" clip-path="url(#p521ab90da0)" style="fill: none; stroke: #bebebe; stroke-width: 0.5; stroke-linecap: round"/>
   </g>
   <g id="line2d_6">
    <path d="M 8.64 74.28456 
L 10.154852 73.21128 
L 11.669704 70.2804 
L 13.184556 70.2288 
L 14.699409 71.56008 
L 16.214261 73.79952 
L 17.729113 73.35576 
L 19.243965 74.0988 
L 20.758817 75.5952 
L 22.273669 75.5952 
L 23.788522 77.61792 
L 25.303374 77.63856 
L 26.818226 75.40944 
L 28.333078 75.40944 
L 29.84793 75.04824 
L 31.362782 74.98632 
L 32.877634 75.58488 
L 34.392487 75.87384 
L 35.907339 76.49304 
L 38.937043 75.82224 
L 40.451895 75.84288 
L 41.966747 76.03896 
L 43.4816 75.51264 
L 44.996452 75.56424 
L 46.511304 75.05856 
L 48.026156 73.26288 
L 49.541008 73.20096 
L 51.05586 73.00488 
L 52.570712 71.68392 
L 54.085565 70.6932 
L 55.600417 72.62304 
L 57.115269 73.52088 
L 58.630121 73.83048 
L 60.144973 73.8408 
L 61.659825 73.29384 
L 63.174678 73.72728 
L 64.68953 70.32168 
L 66.204382 69.77472 
L 67.719234 70.34232 
L 69.234086 70.67256 
L 70.748938 70.51776 
L 72.26379 70.848 
L 73.778643 72.31344 
L 75.293495 76.01832 
L 76.808347 75.41976 
L 78.323199 75.83256 
L 81.352903 75.82224 
L 82.867756 77.82432 
L 84.382608 76.14216 
L 85.89746 74.75928 
L 87.412312 74.96568 
L 88.927164 77.75208 
L 90.442016 79.48584 
L 91.956869 83.31456 
L 93.471721 85.90488 
L 94.986573 84.79032 
L 96.265448 85.84296 
L 98.983363 91.41576 
L 100.491728 88.7532 
L 103.543559 88.55712 
L 105.067055 88.96992 
L 108.088168 90.456 
L 109.602564 90.56952 
L 111.0992 89.15568 
L 112.534119 88.9596 
L 114.146139 90.6624 
L 115.470705 89.94 
L 117.173441 90.00192 
L 120.19245 90.62112 
L 123.230202 90.3528 
L 124.749613 92.004 
L 126.136492 92.13816 
L 127.773865 91.25064 
L 129.281966 89.166 
L 130.793943 89.56848 
L 132.290947 90.93072 
L 133.840216 89.41368 
L 135.339429 90.37344 
L 136.857805 89.79552 
L 138.364171 90.23928 
L 139.882285 88.0824 
L 141.396418 88.7532 
L 142.899646 90.16704 
L 144.429208 90.67272 
L 145.948601 90.18768 
L 147.453723 89.2692 
L 148.967979 89.54784 
L 150.488792 89.49624 
L 152.000716 88.31976 
L 153.513552 88.45392 
L 155.057386 88.46424 
L 156.576516 86.38992 
L 158.064859 84.80064 
L 159.591265 84.8316 
L 161.106538 86.586 
L 162.606645 87.74184 
L 164.112625 87.618 
L 165.65013 88.19592 
L 167.168542 89.08344 
L 168.669367 87.89664 
L 170.297044 87.3084 
L 171.717499 87.65928 
L 173.234262 88.96992 
L 174.734632 90.07416 
L 177.789303 89.3724 
L 179.2946 89.00088 
L 180.822444 88.42296 
L 183.833932 89.10408 
L 185.335809 89.14536 
L 186.873472 89.07312 
L 188.392234 87.9792 
L 189.89725 88.29912 
L 191.414557 86.38992 
L 192.924132 87.24648 
L 194.452922 87.1536 
L 195.944614 86.21448 
L 199.009261 87.01944 
L 200.51447 84.44976 
L 202.028165 85.05864 
L 203.549575 84.58392 
L 205.061341 85.04832 
L 206.559484 83.71704 
L 208.094341 84.86256 
L 209.612946 85.6572 
L 211.121153 85.27536 
L 212.631306 84.49104 
L 215.671162 85.32696 
L 217.167938 85.17216 
L 218.706354 85.31664 
L 220.23753 84.11952 
L 221.755555 85.66752 
L 223.26627 85.26504 
L 224.783664 86.26608 
L 227.791259 85.38888 
L 229.336864 85.3992 
L 230.85119 84.09888 
L 233.874215 84.34656 
L 236.87911 85.7604 
L 238.399502 85.0896 
L 241.471689 84.9348 
L 242.965502 85.296 
L 244.48756 85.35792 
L 246.000729 86.1732 
L 247.52305 85.92552 
L 250.556033 87.13296 
L 252.085595 88.10304 
L 253.589595 87.9276 
L 255.109864 88.26816 
L 256.633343 87.78312 
L 258.136588 87.95856 
L 259.630629 88.94928 
L 261.169466 88.14432 
L 264.196155 88.52616 
L 265.726559 88.86672 
L 267.236572 90.22896 
L 268.752546 89.82648 
L 270.245552 89.87808 
L 271.791332 89.46528 
L 273.328592 90.0432 
L 274.828541 89.96064 
L 276.360435 91.99368 
L 277.870097 93.05664 
L 279.36 93.74808 
L 279.36 93.74808 
" clip-path="url(#p521ab90da0)" style="fill: none; stroke: #4a8dff; stroke-width: 0.6"/>
   </g>
   <g id="line2d_7">
    <path d="M 8.64 83.29392 
L 10.154852 82.8192 
L 11.669704 80.64168 
L 13.184556 81.38472 
L 14.699409 80.87904 
L 16.214261 83.13912 
L 17.729113 83.19072 
L 19.243965 85.296 
L 20.758817 87.17424 
L 22.273669 85.71912 
L 23.788522 87.53544 
L 25.303374 88.17528 
L 26.818226 85.41984 
L 29.84793 84.9348 
L 31.362782 85.01736 
L 32.877634 86.14224 
L 34.392487 85.90488 
L 35.907339 86.328 
L 37.422191 86.24544 
L 38.937043 85.72944 
L 40.451895 85.7088 
L 41.966747 86.40024 
L 43.4816 85.09992 
L 44.996452 86.02872 
L 48.026156 83.53128 
L 51.05586 82.03488 
L 52.570712 79.39296 
L 54.085565 79.66128 
L 55.600417 82.15872 
L 57.115269 82.43736 
L 58.630121 82.93272 
L 60.144973 83.00496 
L 63.174678 82.28256 
L 64.68953 78.01008 
L 66.204382 76.19376 
L 67.719234 77.66952 
L 69.234086 77.74176 
L 70.748938 78.1752 
L 72.26379 79.5684 
L 73.778643 80.8068 
L 75.293495 85.20312 
L 76.808347 84.12984 
L 78.323199 84.03696 
L 79.838051 84.06792 
L 81.352903 84.3156 
L 82.867756 87.02976 
L 84.382608 85.21344 
L 85.89746 84.28464 
L 87.412312 84.32592 
L 88.927164 89.08344 
L 90.442016 89.5272 
L 91.956869 95.14128 
L 93.471721 96.98856 
L 94.986573 95.08968 
L 96.265448 97.71096 
L 97.469282 99.80592 
L 98.983363 101.79768 
L 100.491728 100.03296 
L 102.041208 100.518 
L 103.543559 99.98136 
L 105.067055 100.49736 
L 109.602564 101.26104 
L 111.0992 100.63152 
L 112.534119 100.38384 
L 114.146139 100.84824 
L 115.470705 100.65216 
L 117.173441 101.034 
L 118.686452 101.19912 
L 123.230202 100.91016 
L 124.749613 101.7564 
L 126.136492 101.84928 
L 127.773865 101.56032 
L 129.281966 100.85856 
L 132.290947 101.4468 
L 133.840216 101.02368 
L 135.339429 101.30232 
L 136.857805 100.81728 
L 138.364171 100.79664 
L 139.882285 99.3312 
L 141.396418 99.92976 
L 142.899646 100.78632 
L 144.429208 101.17848 
L 145.948601 101.1372 
L 147.453723 100.21872 
L 150.488792 100.4664 
L 152.000716 99.88848 
L 153.513552 99.94008 
L 155.057386 99.81624 
L 156.576516 98.93904 
L 158.064859 98.3508 
L 159.591265 98.52624 
L 161.106538 99.78528 
L 162.606645 100.12584 
L 164.112625 100.03296 
L 167.168542 100.83792 
L 168.669367 100.11552 
L 170.297044 99.87816 
L 171.717499 100.002 
L 173.234262 100.64184 
L 174.734632 101.41584 
L 176.27012 101.21976 
L 179.2946 101.00304 
L 180.822444 100.86888 
L 182.317344 101.21976 
L 183.833932 101.28168 
L 186.873472 101.14752 
L 188.392234 100.55928 
L 189.89725 100.65216 
L 191.414557 99.80592 
L 192.924132 99.96072 
L 194.452922 99.6408 
L 195.944614 99.1764 
L 197.486642 99.70272 
L 199.009261 99.94008 
L 200.51447 98.57784 
L 202.028165 98.65008 
L 203.549575 98.38176 
L 205.061341 98.48496 
L 206.559484 96.70992 
L 208.094341 98.05152 
L 209.612946 98.48496 
L 211.121153 97.96896 
L 212.631306 96.32808 
L 215.671162 96.16296 
L 217.167938 96.1836 
L 218.706354 96.50352 
L 220.23753 94.76976 
L 221.755555 97.19496 
L 223.26627 96.9576 
L 224.783664 97.9896 
L 226.315067 96.89568 
L 227.791259 95.45088 
L 229.336864 95.67792 
L 230.85119 93.43848 
L 233.874215 92.25168 
L 235.38947 92.87088 
L 236.87911 94.2744 
L 238.399502 93.1392 
L 239.944879 92.97408 
L 241.471689 92.9844 
L 242.965502 92.60256 
L 244.48756 92.53032 
L 246.000729 94.54272 
L 247.52305 92.85024 
L 249.018563 94.82136 
L 250.556033 95.75016 
L 252.085595 96.97824 
L 255.109864 97.23624 
L 256.633343 95.94624 
L 258.136588 96.30744 
L 259.630629 98.08248 
L 261.169466 97.2672 
L 262.704253 96.61704 
L 264.196155 97.23624 
L 265.726559 98.08248 
L 267.236572 99.18672 
L 268.752546 99.03192 
L 270.245552 99.1248 
L 271.791332 98.74296 
L 273.328592 99.09384 
L 274.828541 100.0536 
L 276.360435 101.23008 
L 277.870097 101.99376 
L 279.36 102.08664 
L 279.36 102.08664 
" clip-path="url(#p521ab90da0)" style="fill: none; stroke: #f5841e; stroke-width: 0.6"/>
   </g>
  </g>
 </g>
 <defs>
  <clipPath id="p521ab90da0">
   <rect x="8.64" y="4.8" width="270.72" height="103.2"/>
  </clipPath>
 </defs>
</svg>
