<?xml version="1.0" encoding="utf-8" standalone="no"?>
<!DOCTYPE svg PUBLIC "-//W3C//DTD SVG 1.1//EN"
  "http://www.w3.org/Graphics/SVG/1.1/DTD/svg11.dtd">
<svg xmlns:xlink="http://www.w3.org/1999/xlink" width="288pt" height="120pt" viewBox="0 0 288 120" xmlns="http://www.w3.org/2000/svg" version="1.1">
<desc id="nav-meta">{"window":"3m","count":4,"labels":["21.04","21.05","19.06","19.07"],"tick_utc":["2026-04-21T03:56:07Z","2026-05-21T04:59:27Z","2026-06-19T05:57:01Z","2026-07-19T04:06:12Z"],"w":720,"h":300}</desc>

 <metadata>
  <rdf:RDF xmlns:dc="http://purl.org/dc/elements/1.1/" xmlns:cc="http://creativecommons.org/ns#" xmlns:rdf="http://www.w3.org/1999/02/22-rdf-syntax-ns#">
   <cc:Work>
    <dc:type rdf:resource="http://purl.org/dc/dcmitype/StillImage"/>
    <dc:date>2026-07-19T19:50:46.221394</dc:date>
    <dc:format>image/svg+xml</dc:format>
    <dc:creator>
     <cc:Agent>
      <dc:title>Matplotlib v3.11.1, https://matplotlib.org/</dc:title>
     </cc:Agent>
    </dc:creator>
   </cc:Work>
  </rdf:RDF>
 </metadata>
 <defs>
  <style type="text/css">*{stroke-linejoin: round; stroke-linecap: butt}</style>
 </defs>
 <g id="figure_1">
  <g id="patch_1">
   <path d="M 0 120 
L 288 120 
L 288 0 
L 0 0 
L 0 120 
z
" style="fill: none; opacity: 0"/>
  </g>
  <g id="axes_1">
   <g id="patch_2">
    <path d="M 8.64 108 
L 279.36 108 
L 279.36 4.8 
L 8.64 4.8 
L 8.64 108 
z
" style="fill: none"/>
   </g>
   <g id="matplotlib.axis_1"/>
   <g id="matplotlib.axis_2"/>
   <g id="line2d_1">
    <path d="M 8.64 87.36 
L 279.36 87.36 
" clip-path="url(#p1a18a56720)" style="fill: none; stroke: #b2b2b2; stroke-opacity: 0.35; stroke-width: 0.5; stroke-linecap: square"/>
   </g>
   <g id="line2d_2">
    <path d="M 8.64 66.72 
L 279.36 66.72 
" clip-path="url(#p1a18a56720)" style="fill: none; stroke: #b2b2b2; stroke-opacity: 0.35; stroke-width: 0.5; stroke-linecap: square"/>
   </g>
   <g id="line2d_3">
    <path d="M 8.64 46.08 
L 279.36 46.08 
" clip-path="url(#p1a18a56720)" style="fill: none; stroke: #b2b2b2; stroke-opacity: 0.35; stroke-width: 0.5; stroke-linecap: square"/>
   </g>
   <g id="line2d_4">
    <path d="M 8.64 25.44 
L 279.36 25.44 
" clip-path="url(#p1a18a56720)" style="fill: none; stroke: #b2b2b2; stroke-opacity: 0.35; stroke-width: 0.5; stroke-linecap: square"/>
   </g>
   <g id="line2d_5">
    <path d="M 8.64 101.00304 
L 11.672124 100.69344 
L 14.726004 100.9308 
L 17.775624 100.92048 
L 20.780887 100.81728 
L 23.869759 100.8792 
L 26.944092 100.64184 
L 29.992022 101.1888 
L 33.025272 101.09592 
L 36.071935 101.37456 
L 39.146726 101.21976 
L 42.110661 101.20944 
L 45.213966 101.23008 
L 48.254468 100.92048 
L 51.229035 101.06496 
L 54.324173 100.70376 
L 57.366541 100.55928 
L 60.357477 100.53864 
L 63.41016 99.60984 
L 66.513007 99.72336 
L 69.578574 99.44472 
L 72.577889 99.25896 
L 75.633916 99.32088 
L 78.672095 100.22904 
L 81.72865 100.01232 
L 84.731379 100.43544 
L 87.818349 100.75536 
L 90.889443 101.02368 
L 93.909211 101.02368 
L 96.961647 101.17848 
L 100.020526 100.7244 
L 103.03878 100.75536 
L 106.038552 101.11656 
L 109.128268 100.91016 
L 112.209853 100.89984 
L 115.20533 101.1372 
L 118.278114 101.2404 
L 121.309956 101.6532 
L 124.353768 101.4984 
L 127.351463 101.48808 
L 130.45512 101.32296 
L 133.541668 101.51904 
L 136.553304 101.7048 
L 139.62908 102.54072 
L 142.660218 103.08768 
L 145.651682 103.36632 
L 148.646491 104.22288 
L 151.753422 103.85136 
L 154.808428 103.68624 
L 157.791936 103.43856 
L 160.865037 103.81008 
L 163.924443 103.72752 
L 166.977936 103.50048 
L 169.997246 103.5108 
L 173.060876 103.31472 
L 176.203539 102.95352 
L 179.262452 102.61296 
L 182.207131 102.6336 
L 185.234116 102.9948 
L 188.347313 103.28376 
L 191.267244 103.01544 
L 194.372098 102.69552 
L 197.502685 102.582 
L 200.362419 102.88128 
L 203.414855 103.15992 
L 206.455604 103.36632 
L 209.512758 103.36632 
L 212.517036 102.81936 
L 215.616574 103.0464 
L 218.680134 102.9432 
L 221.662728 102.59232 
L 224.748783 102.40656 
L 227.737079 102.02472 
L 230.745546 101.68416 
L 233.774009 101.3436 
L 236.8601 101.6532 
L 239.931123 101.6532 
L 242.927058 101.63256 
L 245.88596 101.95248 
L 249.019715 102.08664 
L 252.054409 101.9112 
L 255.006164 102.066 
L 258.093205 102.18984 
L 261.141417 102.31368 
L 264.112639 102.45816 
L 267.154972 102.08664 
L 270.204135 102.21048 
L 273.246186 102.4272 
L 276.272713 102.4272 
L 279.36 102.34464 
" clip-path="url(#p1a18a56720)" style="fill: none; stroke: #bebebe; stroke-width: 0.5; stroke-linecap: round"/>
   </g>
   <g id="line2d_6">
    <path d="M 8.64 85.27536 
L 11.672124 84.49104 
L 14.726004 84.86256 
L 17.775624 85.32696 
L 20.780887 85.17216 
L 23.869759 85.31664 
L 26.944092 84.11952 
L 29.992022 85.66752 
L 33.025272 85.26504 
L 36.071935 86.26608 
L 39.146726 85.77072 
L 42.110661 85.38888 
L 45.213966 85.3992 
L 48.254468 84.09888 
L 51.229035 84.22272 
L 54.324173 84.34656 
L 57.366541 85.06896 
L 60.357477 85.7604 
L 63.41016 85.0896 
L 66.513007 85.01736 
L 69.578574 84.9348 
L 72.577889 85.296 
L 75.633916 85.35792 
L 78.672095 86.1732 
L 81.72865 85.92552 
L 84.731379 86.55504 
L 87.818349 87.13296 
L 90.889443 88.10304 
L 93.909211 87.9276 
L 96.961647 88.26816 
L 100.020526 87.78312 
L 103.03878 87.95856 
L 106.038552 88.94928 
L 109.128268 88.14432 
L 112.209853 88.33008 
L 115.20533 88.52616 
L 118.278114 88.86672 
L 121.309956 90.22896 
L 124.353768 89.82648 
L 127.351463 89.87808 
L 130.45512 89.46528 
L 133.541668 90.0432 
L 136.553304 89.96064 
L 139.62908 91.99368 
L 142.660218 93.05664 
L 145.651682 93.74808 
L 148.646491 97.02984 
L 151.753422 95.93592 
L 154.808428 95.07936 
L 157.791936 94.46016 
L 160.865037 95.47152 
L 163.924443 95.11032 
L 166.977936 94.82136 
L 169.997246 94.8936 
L 173.060876 94.70784 
L 176.203539 94.04736 
L 179.262452 93.40752 
L 182.207131 92.9844 
L 185.234116 93.93384 
L 188.347313 94.4292 
L 191.267244 94.19184 
L 194.372098 93.87192 
L 197.502685 93.81 
L 200.362419 94.03704 
L 203.414855 94.83168 
L 206.455604 95.48184 
L 209.512758 96.63768 
L 212.517036 96.14232 
L 215.616574 96.30744 
L 218.680134 96.29712 
L 221.662728 96.04944 
L 224.748783 95.9256 
L 227.737079 95.39928 
L 230.745546 94.31568 
L 233.774009 93.57264 
L 236.8601 93.32496 
L 239.931123 93.22176 
L 242.927058 93.35592 
L 245.88596 93.61392 
L 249.019715 93.77904 
L 252.054409 93.26304 
L 255.006164 92.92248 
L 258.093205 92.71608 
L 261.141417 93.15984 
L 264.112639 93.17016 
L 267.154972 91.80792 
L 270.204135 91.14744 
L 273.246186 92.13816 
L 276.272713 92.25168 
L 279.36 91.9008 
" clip-path="url(#p1a18a56720)" style="fill: none; stroke: #4a8dff; stroke-width: 0.6"/>
   </g>
   <g id="line2d_7">
    <path d="M 8.64 97.96896 
L 11.672124 96.32808 
L 14.726004 96.20424 
L 17.775624 96.16296 
L 20.780887 96.1836 
L 23.869759 96.50352 
L 26.944092 94.76976 
L 29.992022 97.19496 
L 33.025272 96.9576 
L 36.071935 97.9896 
L 39.146726 96.89568 
L 42.110661 95.45088 
L 45.213966 95.67792 
L 48.254468 93.43848 
L 51.229035 92.90184 
L 54.324173 92.25168 
L 57.366541 92.87088 
L 60.357477 94.2744 
L 63.41016 93.1392 
L 66.513007 92.97408 
L 69.578574 92.9844 
L 72.577889 92.60256 
L 75.633916 92.53032 
L 78.672095 94.54272 
L 81.72865 92.85024 
L 84.731379 94.82136 
L 87.818349 95.75016 
L 90.889443 96.97824 
L 93.909211 97.08144 
L 96.961647 97.23624 
L 100.020526 95.94624 
L 103.03878 96.30744 
L 106.038552 98.08248 
L 109.128268 97.2672 
L 112.209853 96.61704 
L 115.20533 97.23624 
L 118.278114 98.08248 
L 121.309956 99.18672 
L 124.353768 99.03192 
L 127.351463 99.1248 
L 130.45512 98.74296 
L 133.541668 99.09384 
L 136.553304 100.0536 
L 139.62908 101.23008 
L 142.660218 101.99376 
L 145.651682 102.08664 
L 148.646491 102.8916 
L 151.753422 102.45816 
L 154.808428 102.28272 
L 157.791936 102.10728 
L 160.865037 102.582 
L 163.924443 102.29304 
L 166.977936 102.08664 
L 169.997246 102.066 
L 173.060876 101.86992 
L 176.203539 101.48808 
L 179.262452 101.40552 
L 182.207131 101.4984 
L 185.234116 101.97312 
L 188.347313 102.26208 
L 191.267244 102.066 
L 194.372098 101.90088 
L 197.502685 101.90088 
L 200.362419 102.0144 
L 203.414855 102.25176 
L 206.455604 102.6336 
L 209.512758 102.88128 
L 212.517036 102.77808 
L 215.616574 102.85032 
L 218.680134 102.93288 
L 221.662728 102.95352 
L 224.748783 103.00512 
L 227.737079 102.69552 
L 230.745546 102.55104 
L 233.774009 102.2724 
L 236.8601 102.21048 
L 239.931123 102.12792 
L 242.927058 102.13824 
L 245.88596 102.25176 
L 249.019715 102.36528 
L 252.054409 101.94216 
L 255.006164 101.92152 
L 258.093205 101.9112 
L 261.141417 102.2208 
L 264.112639 102.31368 
L 267.154972 101.79768 
L 270.204135 101.81832 
L 273.246186 102.07632 
L 276.272713 101.97312 
L 279.36 101.79768 
" clip-path="url(#p1a18a56720)" style="fill: none; stroke: #f5841e; stroke-width: 0.6"/>
   </g>
  </g>
 </g>
 <defs>
  <clipPath id="p1a18a56720">
   <rect x="8.64" y="4.8" width="270.72" height="103.2"/>
  </clipPath>
 </defs>
</svg>
