<?xml version="1.0" encoding="utf-8" standalone="no"?>
<!DOCTYPE svg PUBLIC "-//W3C//DTD SVG 1.1//EN"
  "http://www.w3.org/Graphics/SVG/1.1/DTD/svg11.dtd">
<svg xmlns:xlink="http://www.w3.org/1999/xlink" width="288pt" height="120pt" viewBox="0 0 288 120" xmlns="http://www.w3.org/2000/svg" version="1.1">
<desc id="nav-meta">{"window":"3m","count":4,"labels":["14.12","13.01","11.02","13.03"],"tick_utc":["2025-12-14T12:00:00Z","2026-01-13T12:00:00Z","2026-02-11T03:39:24Z","2026-03-13T03:16:57Z"],"w":720,"h":300}</desc>

 <metadata>
  <rdf:RDF xmlns:dc="http://purl.org/dc/elements/1.1/" xmlns:cc="http://creativecommons.org/ns#" xmlns:rdf="http://www.w3.org/1999/02/22-rdf-syntax-ns#">
   <cc:Work>
    <dc:type rdf:resource="http://purl.org/dc/dcmitype/StillImage"/>
    <dc:date>2026-03-13T13:45:30.179437</dc:date>
    <dc:format>image/svg+xml</dc:format>
    <dc:creator>
     <cc:Agent>
      <dc:title>Matplotlib v3.10.8, https://matplotlib.org/</dc:title>
     </cc:Agent>
    </dc:creator>
   </cc:Work>
  </rdf:RDF>
 </metadata>
 <defs>
  <style type="text/css">*{stroke-linejoin: round; stroke-linecap: butt}</style>
 </defs>
 <g id="figure_1">
  <g id="patch_1">
   <path d="M 0 120 
L 288 120 
L 288 0 
L 0 0 
L 0 120 
z
" style="fill: none; opacity: 0"/>
  </g>
  <g id="axes_1">
   <g id="patch_2">
    <path d="M 8.64 108 
L 279.36 108 
L 279.36 4.8 
L 8.64 4.8 
L 8.64 108 
z
" style="fill: none"/>
   </g>
   <g id="matplotlib.axis_1"/>
   <g id="matplotlib.axis_2"/>
   <g id="line2d_1">
    <path d="M 8.64 87.36 
L 279.36 87.36 
" clip-path="url(#pc6f06392aa)" style="fill: none; stroke: #b2b2b2; stroke-opacity: 0.35; stroke-width: 0.5; stroke-linecap: square"/>
   </g>
   <g id="line2d_2">
    <path d="M 8.64 66.72 
L 279.36 66.72 
" clip-path="url(#pc6f06392aa)" style="fill: none; stroke: #b2b2b2; stroke-opacity: 0.35; stroke-width: 0.5; stroke-linecap: square"/>
   </g>
   <g id="line2d_3">
    <path d="M 8.64 46.08 
L 279.36 46.08 
" clip-path="url(#pc6f06392aa)" style="fill: none; stroke: #b2b2b2; stroke-opacity: 0.35; stroke-width: 0.5; stroke-linecap: square"/>
   </g>
   <g id="line2d_4">
    <path d="M 8.64 25.44 
L 279.36 25.44 
" clip-path="url(#pc6f06392aa)" style="fill: none; stroke: #b2b2b2; stroke-opacity: 0.35; stroke-width: 0.5; stroke-linecap: square"/>
   </g>
   <g id="line2d_5">
    <path d="M 8.64 90.10512 
L 11.694263 91.09584 
L 14.748526 91.61184 
L 17.802789 91.31256 
L 20.857052 92.87088 
L 23.911314 93.8616 
L 26.965577 92.02464 
L 30.01984 92.13816 
L 33.074103 92.07624 
L 36.128366 92.14848 
L 39.182629 92.64384 
L 42.236892 93.01536 
L 45.291155 93.69648 
L 48.345418 93.11856 
L 51.39968 92.44776 
L 54.453943 92.30328 
L 57.508206 92.87088 
L 60.562469 92.38584 
L 63.616732 92.47872 
L 66.670995 91.88016 
L 69.725258 90.42504 
L 72.779521 90.08448 
L 75.833784 89.92968 
L 78.888047 88.76352 
L 81.942309 87.94824 
L 84.996572 89.2692 
L 88.050835 88.72224 
L 91.105098 89.39304 
L 94.159361 89.40336 
L 97.213624 88.41264 
L 100.267887 88.4952 
L 103.32215 86.86464 
L 106.376413 86.42088 
L 109.430675 87.62832 
L 112.484938 86.93688 
L 115.539201 87.23616 
L 118.593464 88.63968 
L 121.647727 90.0432 
L 124.70199 92.12784 
L 127.756253 91.16808 
L 130.810516 91.46736 
L 133.864779 91.73568 
L 136.919041 91.78728 
L 139.973304 94.0164 
L 143.027567 92.5716 
L 146.08183 91.76664 
L 149.136093 92.33424 
L 152.190356 94.36728 
L 155.244619 94.46016 
L 158.298882 97.71096 
L 161.353145 98.48496 
L 164.407407 97.85544 
L 166.985891 99.10416 
L 169.413076 100.16712 
L 172.465783 102.23112 
L 175.506966 100.54896 
L 178.631046 100.70376 
L 181.660104 100.68312 
L 184.731795 100.95144 
L 187.77973 101.28168 
L 190.822999 101.71512 
L 193.876343 101.84928 
L 196.893877 101.034 
L 199.786978 100.54896 
L 203.037152 101.04432 
L 205.707758 100.81728 
L 209.140835 101.034 
L 212.191386 101.4984 
L 215.227797 101.33328 
L 218.263395 101.1372 
L 221.352548 101.06496 
L 224.416002 102.09696 
L 227.212244 102.05568 
L 230.513534 101.4984 
L 233.554187 100.60056 
L 236.602653 100.80696 
L 239.620929 101.45712 
L 242.744584 100.55928 
L 245.767315 101.10624 
L 248.828683 100.8792 
L 251.865837 100.74504 
L 254.926675 100.21872 
L 257.979488 100.53864 
L 261.010314 101.07528 
L 264.094236 101.38488 
L 267.157654 101.26104 
L 270.192298 100.78632 
L 273.245359 100.91016 
L 276.311641 100.99272 
L 279.36 100.38384 
" clip-path="url(#pc6f06392aa)" style="fill: none; stroke: #bebebe; stroke-width: 0.5; stroke-linecap: round"/>
   </g>
   <g id="line2d_6">
    <path d="M 8.64 73.35576 
L 11.694263 74.0988 
L 14.748526 75.5952 
L 17.802789 75.5952 
L 20.857052 77.61792 
L 23.911314 77.63856 
L 26.965577 75.40944 
L 30.01984 75.40944 
L 33.074103 75.04824 
L 36.128366 74.98632 
L 39.182629 75.58488 
L 42.236892 75.87384 
L 45.291155 76.49304 
L 48.345418 76.15248 
L 51.39968 75.82224 
L 54.453943 75.84288 
L 57.508206 76.03896 
L 60.562469 75.51264 
L 63.616732 75.56424 
L 66.670995 75.05856 
L 69.725258 73.26288 
L 72.779521 73.20096 
L 75.833784 73.00488 
L 78.888047 71.68392 
L 81.942309 70.6932 
L 84.996572 72.62304 
L 88.050835 73.52088 
L 91.105098 73.83048 
L 94.159361 73.8408 
L 97.213624 73.29384 
L 100.267887 73.72728 
L 103.32215 70.32168 
L 106.376413 69.77472 
L 109.430675 70.34232 
L 112.484938 70.67256 
L 115.539201 70.51776 
L 118.593464 70.848 
L 121.647727 72.31344 
L 124.70199 76.01832 
L 127.756253 75.41976 
L 130.810516 75.83256 
L 133.864779 75.79128 
L 136.919041 75.82224 
L 139.973304 77.82432 
L 143.027567 76.14216 
L 146.08183 74.75928 
L 149.136093 74.96568 
L 152.190356 77.75208 
L 155.244619 79.48584 
L 158.298882 83.31456 
L 161.353145 85.90488 
L 164.407407 84.79032 
L 166.985891 85.84296 
L 169.413076 88.25784 
L 172.465783 91.41576 
L 175.506966 88.7532 
L 178.631046 88.65 
L 181.660104 88.55712 
L 184.731795 88.96992 
L 187.77973 89.7336 
L 190.822999 90.456 
L 193.876343 90.56952 
L 196.893877 89.15568 
L 199.786978 88.9596 
L 203.037152 90.6624 
L 205.707758 89.94 
L 209.140835 90.00192 
L 212.191386 90.3528 
L 215.227797 90.62112 
L 218.263395 90.5076 
L 221.352548 90.3528 
L 224.416002 92.004 
L 227.212244 92.13816 
L 230.513534 91.25064 
L 233.554187 89.166 
L 236.602653 89.56848 
L 239.620929 90.93072 
L 242.744584 89.41368 
L 245.767315 90.37344 
L 248.828683 89.79552 
L 251.865837 90.23928 
L 254.926675 88.0824 
L 257.979488 88.7532 
L 261.010314 90.16704 
L 264.094236 90.67272 
L 267.157654 90.18768 
L 270.192298 89.2692 
L 273.245359 89.54784 
L 276.311641 89.49624 
L 279.36 88.31976 
" clip-path="url(#pc6f06392aa)" style="fill: none; stroke: #4a8dff; stroke-width: 0.6"/>
   </g>
   <g id="line2d_7">
    <path d="M 8.64 83.19072 
L 11.694263 85.296 
L 14.748526 87.17424 
L 17.802789 85.71912 
L 20.857052 87.53544 
L 23.911314 88.17528 
L 26.965577 85.41984 
L 30.01984 85.17216 
L 33.074103 84.9348 
L 36.128366 85.01736 
L 39.182629 86.14224 
L 42.236892 85.90488 
L 45.291155 86.328 
L 48.345418 86.24544 
L 51.39968 85.72944 
L 54.453943 85.7088 
L 57.508206 86.40024 
L 60.562469 85.09992 
L 63.616732 86.02872 
L 66.670995 84.78 
L 69.725258 83.53128 
L 72.779521 82.83984 
L 75.833784 82.03488 
L 78.888047 79.39296 
L 81.942309 79.66128 
L 84.996572 82.15872 
L 88.050835 82.43736 
L 91.105098 82.93272 
L 94.159361 83.00496 
L 97.213624 82.6128 
L 100.267887 82.28256 
L 103.32215 78.01008 
L 106.376413 76.19376 
L 109.430675 77.66952 
L 112.484938 77.74176 
L 115.539201 78.1752 
L 118.593464 79.5684 
L 121.647727 80.8068 
L 124.70199 85.20312 
L 127.756253 84.12984 
L 130.810516 84.03696 
L 133.864779 84.06792 
L 136.919041 84.3156 
L 139.973304 87.02976 
L 143.027567 85.21344 
L 146.08183 84.28464 
L 149.136093 84.32592 
L 152.190356 89.08344 
L 155.244619 89.5272 
L 158.298882 95.14128 
L 161.353145 96.98856 
L 164.407407 95.08968 
L 166.985891 97.71096 
L 169.413076 99.80592 
L 172.465783 101.79768 
L 175.506966 100.03296 
L 178.631046 100.518 
L 181.660104 99.98136 
L 184.731795 100.49736 
L 187.77973 100.78632 
L 190.822999 101.07528 
L 193.876343 101.26104 
L 196.893877 100.63152 
L 199.786978 100.38384 
L 203.037152 100.84824 
L 205.707758 100.65216 
L 209.140835 101.034 
L 212.191386 101.19912 
L 215.227797 101.10624 
L 218.263395 100.97208 
L 221.352548 100.91016 
L 224.416002 101.7564 
L 227.212244 101.84928 
L 230.513534 101.56032 
L 233.554187 100.85856 
L 236.602653 101.12688 
L 239.620929 101.4468 
L 242.744584 101.02368 
L 245.767315 101.30232 
L 248.828683 100.81728 
L 251.865837 100.79664 
L 254.926675 99.3312 
L 257.979488 99.92976 
L 261.010314 100.78632 
L 264.094236 101.17848 
L 267.157654 101.1372 
L 270.192298 100.21872 
L 273.245359 100.37352 
L 276.311641 100.4664 
L 279.36 99.88848 
" clip-path="url(#pc6f06392aa)" style="fill: none; stroke: #f5841e; stroke-width: 0.6"/>
   </g>
  </g>
 </g>
 <defs>
  <clipPath id="pc6f06392aa">
   <rect x="8.64" y="4.8" width="270.72" height="103.2"/>
  </clipPath>
 </defs>
</svg>
