<?xml version="1.0" encoding="utf-8" standalone="no"?>
<!DOCTYPE svg PUBLIC "-//W3C//DTD SVG 1.1//EN"
  "http://www.w3.org/Graphics/SVG/1.1/DTD/svg11.dtd">
<svg xmlns:xlink="http://www.w3.org/1999/xlink" width="288pt" height="120pt" viewBox="0 0 288 120" xmlns="http://www.w3.org/2000/svg" version="1.1">
<desc id="nav-meta">{"window":"3m","count":4,"labels":["05.01","04.02","05.03","04.04"],"tick_utc":["2026-01-05T12:00:00Z","2026-02-04T08:15:41Z","2026-03-05T03:17:19Z","2026-04-04T03:24:53Z"],"w":720,"h":300}</desc>

 <metadata>
  <rdf:RDF xmlns:dc="http://purl.org/dc/elements/1.1/" xmlns:cc="http://creativecommons.org/ns#" xmlns:rdf="http://www.w3.org/1999/02/22-rdf-syntax-ns#">
   <cc:Work>
    <dc:type rdf:resource="http://purl.org/dc/dcmitype/StillImage"/>
    <dc:date>2026-04-04T19:19:03.139817</dc:date>
    <dc:format>image/svg+xml</dc:format>
    <dc:creator>
     <cc:Agent>
      <dc:title>Matplotlib v3.10.8, https://matplotlib.org/</dc:title>
     </cc:Agent>
    </dc:creator>
   </cc:Work>
  </rdf:RDF>
 </metadata>
 <defs>
  <style type="text/css">*{stroke-linejoin: round; stroke-linecap: butt}</style>
 </defs>
 <g id="figure_1">
  <g id="patch_1">
   <path d="M 0 120 
L 288 120 
L 288 0 
L 0 0 
L 0 120 
z
" style="fill: none; opacity: 0"/>
  </g>
  <g id="axes_1">
   <g id="patch_2">
    <path d="M 8.64 108 
L 279.36 108 
L 279.36 4.8 
L 8.64 4.8 
L 8.64 108 
z
" style="fill: none"/>
   </g>
   <g id="matplotlib.axis_1"/>
   <g id="matplotlib.axis_2"/>
   <g id="line2d_1">
    <path d="M 8.64 87.36 
L 279.36 87.36 
" clip-path="url(#p2064639785)" style="fill: none; stroke: #b2b2b2; stroke-opacity: 0.35; stroke-width: 0.5; stroke-linecap: square"/>
   </g>
   <g id="line2d_2">
    <path d="M 8.64 66.72 
L 279.36 66.72 
" clip-path="url(#p2064639785)" style="fill: none; stroke: #b2b2b2; stroke-opacity: 0.35; stroke-width: 0.5; stroke-linecap: square"/>
   </g>
   <g id="line2d_3">
    <path d="M 8.64 46.08 
L 279.36 46.08 
" clip-path="url(#p2064639785)" style="fill: none; stroke: #b2b2b2; stroke-opacity: 0.35; stroke-width: 0.5; stroke-linecap: square"/>
   </g>
   <g id="line2d_4">
    <path d="M 8.64 25.44 
L 279.36 25.44 
" clip-path="url(#p2064639785)" style="fill: none; stroke: #b2b2b2; stroke-opacity: 0.35; stroke-width: 0.5; stroke-linecap: square"/>
   </g>
   <g id="line2d_5">
    <path d="M 8.64 89.92968 
L 11.694073 88.76352 
L 14.748146 87.94824 
L 17.802219 89.2692 
L 20.856292 88.72224 
L 23.910365 89.39304 
L 26.964438 89.40336 
L 30.018511 88.41264 
L 33.072585 88.4952 
L 36.126658 86.86464 
L 39.180731 86.42088 
L 42.234804 87.62832 
L 45.288877 86.93688 
L 48.34295 87.23616 
L 51.397023 88.63968 
L 54.451096 90.0432 
L 57.505169 92.12784 
L 60.559242 91.16808 
L 63.613315 91.46736 
L 66.667388 91.73568 
L 69.721461 91.78728 
L 72.775534 94.0164 
L 75.829607 92.5716 
L 78.88368 91.76664 
L 81.937754 92.33424 
L 84.991827 94.36728 
L 88.0459 94.46016 
L 91.099973 97.71096 
L 94.154046 98.48496 
L 97.208119 97.85544 
L 99.786442 99.10416 
L 102.213476 100.16712 
L 105.265994 102.23112 
L 108.306988 100.54896 
L 111.430874 100.70376 
L 114.459743 100.68312 
L 117.531243 100.95144 
L 120.578989 101.28168 
L 123.622069 101.71512 
L 126.675223 101.84928 
L 129.692569 101.034 
L 132.58549 100.54896 
L 135.835462 101.04432 
L 138.505903 100.81728 
L 141.938766 101.034 
L 144.989127 101.4984 
L 148.02535 101.33328 
L 151.060759 101.1372 
L 154.14972 101.06496 
L 157.212984 102.09696 
L 160.009052 102.05568 
L 163.310137 101.4984 
L 166.350601 100.60056 
L 169.398877 100.80696 
L 172.416966 101.45712 
L 175.540427 100.55928 
L 178.56297 101.10624 
L 181.624148 100.8792 
L 184.661112 100.74504 
L 187.72176 100.21872 
L 190.774384 100.53864 
L 193.805021 101.07528 
L 196.888751 101.38488 
L 199.951979 101.26104 
L 202.986434 100.78632 
L 206.039306 100.91016 
L 209.105397 100.99272 
L 212.153567 100.38384 
L 215.203575 100.50768 
L 218.316078 100.60056 
L 221.378776 99.76464 
L 224.379403 99.49632 
L 227.456771 99.40344 
L 230.511692 100.09488 
L 233.536037 100.3632 
L 236.572224 100.19808 
L 239.671967 100.47672 
L 242.733216 100.79664 
L 245.75901 100.26 
L 249.040548 99.83688 
L 251.904307 100.13616 
L 254.962233 100.80696 
L 257.987109 101.38488 
L 261.082787 101.3436 
L 264.145591 101.292 
L 267.180399 101.28168 
L 270.260665 101.28168 
L 273.274512 101.8596 
L 276.332085 101.88024 
L 279.36 101.72544 
" clip-path="url(#p2064639785)" style="fill: none; stroke: #bebebe; stroke-width: 0.5; stroke-linecap: round"/>
   </g>
   <g id="line2d_6">
    <path d="M 8.64 73.00488 
L 11.694073 71.68392 
L 14.748146 70.6932 
L 17.802219 72.62304 
L 20.856292 73.52088 
L 23.910365 73.83048 
L 26.964438 73.8408 
L 30.018511 73.29384 
L 33.072585 73.72728 
L 36.126658 70.32168 
L 39.180731 69.77472 
L 42.234804 70.34232 
L 45.288877 70.67256 
L 48.34295 70.51776 
L 51.397023 70.848 
L 54.451096 72.31344 
L 57.505169 76.01832 
L 60.559242 75.41976 
L 63.613315 75.83256 
L 66.667388 75.79128 
L 69.721461 75.82224 
L 72.775534 77.82432 
L 75.829607 76.14216 
L 78.88368 74.75928 
L 81.937754 74.96568 
L 84.991827 77.75208 
L 88.0459 79.48584 
L 91.099973 83.31456 
L 94.154046 85.90488 
L 97.208119 84.79032 
L 99.786442 85.84296 
L 102.213476 88.25784 
L 105.265994 91.41576 
L 108.306988 88.7532 
L 111.430874 88.65 
L 114.459743 88.55712 
L 117.531243 88.96992 
L 120.578989 89.7336 
L 123.622069 90.456 
L 126.675223 90.56952 
L 129.692569 89.15568 
L 132.58549 88.9596 
L 135.835462 90.6624 
L 138.505903 89.94 
L 141.938766 90.00192 
L 144.989127 90.3528 
L 148.02535 90.62112 
L 151.060759 90.5076 
L 154.14972 90.3528 
L 157.212984 92.004 
L 160.009052 92.13816 
L 163.310137 91.25064 
L 166.350601 89.166 
L 169.398877 89.56848 
L 172.416966 90.93072 
L 175.540427 89.41368 
L 178.56297 90.37344 
L 181.624148 89.79552 
L 184.661112 90.23928 
L 187.72176 88.0824 
L 190.774384 88.7532 
L 193.805021 90.16704 
L 196.888751 90.67272 
L 199.951979 90.18768 
L 202.986434 89.2692 
L 206.039306 89.54784 
L 209.105397 89.49624 
L 212.153567 88.31976 
L 215.203575 88.45392 
L 218.316078 88.46424 
L 221.378776 86.38992 
L 224.379403 84.80064 
L 227.456771 84.8316 
L 230.511692 86.586 
L 233.536037 87.74184 
L 236.572224 87.618 
L 239.671967 88.19592 
L 242.733216 89.08344 
L 245.75901 87.89664 
L 249.040548 87.3084 
L 251.904307 87.65928 
L 254.962233 88.96992 
L 257.987109 90.07416 
L 261.082787 89.76456 
L 264.145591 89.3724 
L 267.180399 89.00088 
L 270.260665 88.42296 
L 273.274512 88.81512 
L 276.332085 89.10408 
L 279.36 89.14536 
" clip-path="url(#p2064639785)" style="fill: none; stroke: #4a8dff; stroke-width: 0.6"/>
   </g>
   <g id="line2d_7">
    <path d="M 8.64 82.03488 
L 11.694073 79.39296 
L 14.748146 79.66128 
L 17.802219 82.15872 
L 20.856292 82.43736 
L 23.910365 82.93272 
L 26.964438 83.00496 
L 30.018511 82.6128 
L 33.072585 82.28256 
L 36.126658 78.01008 
L 39.180731 76.19376 
L 42.234804 77.66952 
L 45.288877 77.74176 
L 48.34295 78.1752 
L 51.397023 79.5684 
L 54.451096 80.8068 
L 57.505169 85.20312 
L 60.559242 84.12984 
L 63.613315 84.03696 
L 66.667388 84.06792 
L 69.721461 84.3156 
L 72.775534 87.02976 
L 75.829607 85.21344 
L 78.88368 84.28464 
L 81.937754 84.32592 
L 84.991827 89.08344 
L 88.0459 89.5272 
L 91.099973 95.14128 
L 94.154046 96.98856 
L 97.208119 95.08968 
L 99.786442 97.71096 
L 102.213476 99.80592 
L 105.265994 101.79768 
L 108.306988 100.03296 
L 111.430874 100.518 
L 114.459743 99.98136 
L 117.531243 100.49736 
L 120.578989 100.78632 
L 123.622069 101.07528 
L 126.675223 101.26104 
L 129.692569 100.63152 
L 132.58549 100.38384 
L 135.835462 100.84824 
L 138.505903 100.65216 
L 141.938766 101.034 
L 144.989127 101.19912 
L 148.02535 101.10624 
L 151.060759 100.97208 
L 154.14972 100.91016 
L 157.212984 101.7564 
L 160.009052 101.84928 
L 163.310137 101.56032 
L 166.350601 100.85856 
L 169.398877 101.12688 
L 172.416966 101.4468 
L 175.540427 101.02368 
L 178.56297 101.30232 
L 181.624148 100.81728 
L 184.661112 100.79664 
L 187.72176 99.3312 
L 190.774384 99.92976 
L 193.805021 100.78632 
L 196.888751 101.17848 
L 199.951979 101.1372 
L 202.986434 100.21872 
L 206.039306 100.37352 
L 209.105397 100.4664 
L 212.153567 99.88848 
L 215.203575 99.94008 
L 218.316078 99.81624 
L 221.378776 98.93904 
L 224.379403 98.3508 
L 227.456771 98.52624 
L 230.511692 99.78528 
L 233.536037 100.12584 
L 236.572224 100.03296 
L 239.671967 100.45608 
L 242.733216 100.83792 
L 245.75901 100.11552 
L 249.040548 99.87816 
L 251.904307 100.002 
L 254.962233 100.64184 
L 257.987109 101.41584 
L 261.082787 101.21976 
L 264.145591 101.14752 
L 267.180399 101.00304 
L 270.260665 100.86888 
L 273.274512 101.21976 
L 276.332085 101.28168 
L 279.36 101.20944 
" clip-path="url(#p2064639785)" style="fill: none; stroke: #f5841e; stroke-width: 0.6"/>
   </g>
  </g>
 </g>
 <defs>
  <clipPath id="p2064639785">
   <rect x="8.64" y="4.8" width="270.72" height="103.2"/>
  </clipPath>
 </defs>
</svg>
