<?xml version="1.0" encoding="utf-8" standalone="no"?>
<!DOCTYPE svg PUBLIC "-//W3C//DTD SVG 1.1//EN"
  "http://www.w3.org/Graphics/SVG/1.1/DTD/svg11.dtd">
<svg xmlns:xlink="http://www.w3.org/1999/xlink" width="288pt" height="120pt" viewBox="0 0 288 120" xmlns="http://www.w3.org/2000/svg" version="1.1">
<desc id="nav-meta">{"window":"3m","count":4,"labels":["06.04","06.05","04.06","04.07"],"tick_utc":["2026-04-06T03:50:17Z","2026-05-06T04:24:54Z","2026-06-04T05:26:51Z","2026-07-04T04:23:54Z"],"w":720,"h":300}</desc>

 <metadata>
  <rdf:RDF xmlns:dc="http://purl.org/dc/elements/1.1/" xmlns:cc="http://creativecommons.org/ns#" xmlns:rdf="http://www.w3.org/1999/02/22-rdf-syntax-ns#">
   <cc:Work>
    <dc:type rdf:resource="http://purl.org/dc/dcmitype/StillImage"/>
    <dc:date>2026-07-04T14:13:52.150531</dc:date>
    <dc:format>image/svg+xml</dc:format>
    <dc:creator>
     <cc:Agent>
      <dc:title>Matplotlib v3.11.0, https://matplotlib.org/</dc:title>
     </cc:Agent>
    </dc:creator>
   </cc:Work>
  </rdf:RDF>
 </metadata>
 <defs>
  <style type="text/css">*{stroke-linejoin: round; stroke-linecap: butt}</style>
 </defs>
 <g id="figure_1">
  <g id="patch_1">
   <path d="M 0 120 
L 288 120 
L 288 0 
L 0 0 
L 0 120 
z
" style="fill: none; opacity: 0"/>
  </g>
  <g id="axes_1">
   <g id="patch_2">
    <path d="M 8.64 108 
L 279.36 108 
L 279.36 4.8 
L 8.64 4.8 
L 8.64 108 
z
" style="fill: none"/>
   </g>
   <g id="matplotlib.axis_1"/>
   <g id="matplotlib.axis_2"/>
   <g id="line2d_1">
    <path d="M 8.64 87.36 
L 279.36 87.36 
" clip-path="url(#p4097c6deee)" style="fill: none; stroke: #b2b2b2; stroke-opacity: 0.35; stroke-width: 0.5; stroke-linecap: square"/>
   </g>
   <g id="line2d_2">
    <path d="M 8.64 66.72 
L 279.36 66.72 
" clip-path="url(#p4097c6deee)" style="fill: none; stroke: #b2b2b2; stroke-opacity: 0.35; stroke-width: 0.5; stroke-linecap: square"/>
   </g>
   <g id="line2d_3">
    <path d="M 8.64 46.08 
L 279.36 46.08 
" clip-path="url(#p4097c6deee)" style="fill: none; stroke: #b2b2b2; stroke-opacity: 0.35; stroke-width: 0.5; stroke-linecap: square"/>
   </g>
   <g id="line2d_4">
    <path d="M 8.64 25.44 
L 279.36 25.44 
" clip-path="url(#p4097c6deee)" style="fill: none; stroke: #b2b2b2; stroke-opacity: 0.35; stroke-width: 0.5; stroke-linecap: square"/>
   </g>
   <g id="line2d_5">
    <path d="M 8.64 101.47776 
L 11.661255 101.78736 
L 14.707182 101.09592 
L 17.737588 101.46744 
L 20.80657 101.3436 
L 23.801075 101.05464 
L 26.89663 101.3952 
L 29.953222 101.47776 
L 32.974864 100.86888 
L 36.013541 101.26104 
L 39.067705 100.99272 
L 42.10251 100.61088 
L 45.109968 100.44576 
L 48.191128 100.94112 
L 51.23966 101.09592 
L 54.26732 101.00304 
L 57.298888 100.69344 
L 60.352207 100.9308 
L 63.401267 100.92048 
L 66.405979 100.81728 
L 69.494283 100.8792 
L 72.568052 100.64184 
L 75.615422 101.1888 
L 78.648116 101.09592 
L 81.69422 101.37456 
L 84.768446 101.21976 
L 87.731837 101.20944 
L 90.834572 101.23008 
L 93.874516 100.92048 
L 96.848537 101.06496 
L 99.943106 100.70376 
L 102.984916 100.55928 
L 105.975303 100.53864 
L 109.027425 99.60984 
L 112.129703 99.72336 
L 115.194707 99.44472 
L 118.193471 99.25896 
L 121.248937 99.32088 
L 124.286559 100.22904 
L 127.342552 100.01232 
L 130.34473 100.43544 
L 133.431134 100.75536 
L 136.501665 101.02368 
L 139.520878 101.02368 
L 142.572754 101.17848 
L 145.631071 100.7244 
L 148.648771 100.75536 
L 151.647992 101.11656 
L 154.737141 100.91016 
L 157.81816 100.89984 
L 160.813088 101.1372 
L 163.885307 101.2404 
L 166.916593 101.6532 
L 169.959846 101.4984 
L 172.956991 101.48808 
L 176.060078 101.32296 
L 179.146059 101.51904 
L 182.157142 101.7048 
L 185.232354 102.54072 
L 188.262935 103.08768 
L 191.253851 103.36632 
L 194.248109 104.22288 
L 197.35447 103.85136 
L 200.408915 103.68624 
L 203.391876 103.43856 
L 206.464412 103.81008 
L 209.523257 103.72752 
L 212.576189 103.50048 
L 215.594944 103.5108 
L 218.658013 103.31472 
L 221.800098 102.95352 
L 224.85845 102.61296 
L 227.802589 102.6336 
L 230.829017 102.9948 
L 233.941643 103.28376 
L 236.861038 103.01544 
L 239.965322 102.69552 
L 243.095335 102.582 
L 245.954544 102.88128 
L 249.006419 103.15992 
L 252.04661 103.36632 
L 255.103202 103.36632 
L 258.106929 102.81936 
L 261.205898 103.0464 
L 264.268896 102.9432 
L 267.250942 102.59232 
L 270.336431 102.40656 
L 273.324178 102.02472 
L 276.332093 101.68416 
L 279.36 101.3436 
" clip-path="url(#p4097c6deee)" style="fill: none; stroke: #bebebe; stroke-width: 0.5; stroke-linecap: round"/>
   </g>
   <g id="line2d_6">
    <path d="M 8.64 87.9792 
L 11.661255 88.29912 
L 14.707182 86.38992 
L 17.737588 87.24648 
L 20.80657 87.1536 
L 23.801075 86.21448 
L 26.89663 86.66856 
L 29.953222 87.01944 
L 32.974864 84.44976 
L 36.013541 85.05864 
L 39.067705 84.58392 
L 42.10251 85.04832 
L 45.109968 83.71704 
L 48.191128 84.86256 
L 51.23966 85.6572 
L 54.26732 85.27536 
L 57.298888 84.49104 
L 60.352207 84.86256 
L 63.401267 85.32696 
L 66.405979 85.17216 
L 69.494283 85.31664 
L 72.568052 84.11952 
L 75.615422 85.66752 
L 78.648116 85.26504 
L 81.69422 86.26608 
L 84.768446 85.77072 
L 87.731837 85.38888 
L 90.834572 85.3992 
L 93.874516 84.09888 
L 96.848537 84.22272 
L 99.943106 84.34656 
L 102.984916 85.06896 
L 105.975303 85.7604 
L 109.027425 85.0896 
L 112.129703 85.01736 
L 115.194707 84.9348 
L 118.193471 85.296 
L 121.248937 85.35792 
L 124.286559 86.1732 
L 127.342552 85.92552 
L 130.34473 86.55504 
L 133.431134 87.13296 
L 136.501665 88.10304 
L 139.520878 87.9276 
L 142.572754 88.26816 
L 145.631071 87.78312 
L 148.648771 87.95856 
L 151.647992 88.94928 
L 154.737141 88.14432 
L 157.81816 88.33008 
L 160.813088 88.52616 
L 163.885307 88.86672 
L 166.916593 90.22896 
L 169.959846 89.82648 
L 172.956991 89.87808 
L 176.060078 89.46528 
L 179.146059 90.0432 
L 182.157142 89.96064 
L 185.232354 91.99368 
L 188.262935 93.05664 
L 191.253851 93.74808 
L 194.248109 97.02984 
L 197.35447 95.93592 
L 200.408915 95.07936 
L 203.391876 94.46016 
L 206.464412 95.47152 
L 209.523257 95.11032 
L 212.576189 94.82136 
L 215.594944 94.8936 
L 218.658013 94.70784 
L 221.800098 94.04736 
L 224.85845 93.40752 
L 227.802589 92.9844 
L 230.829017 93.93384 
L 233.941643 94.4292 
L 236.861038 94.19184 
L 239.965322 93.87192 
L 243.095335 93.81 
L 245.954544 94.03704 
L 249.006419 94.83168 
L 252.04661 95.48184 
L 255.103202 96.63768 
L 258.106929 96.14232 
L 261.205898 96.30744 
L 264.268896 96.29712 
L 267.250942 96.04944 
L 270.336431 95.9256 
L 273.324178 95.39928 
L 276.332093 94.31568 
L 279.36 93.57264 
" clip-path="url(#p4097c6deee)" style="fill: none; stroke: #4a8dff; stroke-width: 0.6"/>
   </g>
   <g id="line2d_7">
    <path d="M 8.64 100.55928 
L 11.661255 100.65216 
L 14.707182 99.80592 
L 17.737588 99.96072 
L 20.80657 99.6408 
L 23.801075 99.1764 
L 26.89663 99.70272 
L 29.953222 99.94008 
L 32.974864 98.57784 
L 36.013541 98.65008 
L 39.067705 98.38176 
L 42.10251 98.48496 
L 45.109968 96.70992 
L 48.191128 98.05152 
L 51.23966 98.48496 
L 54.26732 97.96896 
L 57.298888 96.32808 
L 60.352207 96.20424 
L 63.401267 96.16296 
L 66.405979 96.1836 
L 69.494283 96.50352 
L 72.568052 94.76976 
L 75.615422 97.19496 
L 78.648116 96.9576 
L 81.69422 97.9896 
L 84.768446 96.89568 
L 87.731837 95.45088 
L 90.834572 95.67792 
L 93.874516 93.43848 
L 96.848537 92.90184 
L 99.943106 92.25168 
L 102.984916 92.87088 
L 105.975303 94.2744 
L 109.027425 93.1392 
L 112.129703 92.97408 
L 115.194707 92.9844 
L 118.193471 92.60256 
L 121.248937 92.53032 
L 124.286559 94.54272 
L 127.342552 92.85024 
L 130.34473 94.82136 
L 133.431134 95.75016 
L 136.501665 96.97824 
L 139.520878 97.08144 
L 142.572754 97.23624 
L 145.631071 95.94624 
L 148.648771 96.30744 
L 151.647992 98.08248 
L 154.737141 97.2672 
L 157.81816 96.61704 
L 160.813088 97.23624 
L 163.885307 98.08248 
L 166.916593 99.18672 
L 169.959846 99.03192 
L 172.956991 99.1248 
L 176.060078 98.74296 
L 179.146059 99.09384 
L 182.157142 100.0536 
L 185.232354 101.23008 
L 188.262935 101.99376 
L 191.253851 102.08664 
L 194.248109 102.8916 
L 197.35447 102.45816 
L 200.408915 102.28272 
L 203.391876 102.10728 
L 206.464412 102.582 
L 209.523257 102.29304 
L 212.576189 102.08664 
L 215.594944 102.066 
L 218.658013 101.86992 
L 221.800098 101.48808 
L 224.85845 101.40552 
L 227.802589 101.4984 
L 230.829017 101.97312 
L 233.941643 102.26208 
L 236.861038 102.066 
L 239.965322 101.90088 
L 243.095335 101.90088 
L 245.954544 102.0144 
L 249.006419 102.25176 
L 252.04661 102.6336 
L 255.103202 102.88128 
L 258.106929 102.77808 
L 261.205898 102.85032 
L 264.268896 102.93288 
L 267.250942 102.95352 
L 270.336431 103.00512 
L 273.324178 102.69552 
L 276.332093 102.55104 
L 279.36 102.2724 
" clip-path="url(#p4097c6deee)" style="fill: none; stroke: #f5841e; stroke-width: 0.6"/>
   </g>
  </g>
 </g>
 <defs>
  <clipPath id="p4097c6deee">
   <rect x="8.64" y="4.8" width="270.72" height="103.2"/>
  </clipPath>
 </defs>
</svg>
