<?xml version="1.0" encoding="utf-8" standalone="no"?>
<!DOCTYPE svg PUBLIC "-//W3C//DTD SVG 1.1//EN"
  "http://www.w3.org/Graphics/SVG/1.1/DTD/svg11.dtd">
<svg xmlns:xlink="http://www.w3.org/1999/xlink" width="288pt" height="120pt" viewBox="0 0 288 120" xmlns="http://www.w3.org/2000/svg" version="1.1">
<desc id="nav-meta">{"window":"1m","count":4,"labels":["25.03","04.04","13.04","23.04"],"tick_utc":["2026-03-25T05:09:13Z","2026-04-04T03:24:53Z","2026-04-13T04:02:42Z","2026-04-23T03:57:29Z"],"w":720,"h":300}</desc>

 <metadata>
  <rdf:RDF xmlns:dc="http://purl.org/dc/elements/1.1/" xmlns:cc="http://creativecommons.org/ns#" xmlns:rdf="http://www.w3.org/1999/02/22-rdf-syntax-ns#">
   <cc:Work>
    <dc:type rdf:resource="http://purl.org/dc/dcmitype/StillImage"/>
    <dc:date>2026-04-23T08:23:58.569433</dc:date>
    <dc:format>image/svg+xml</dc:format>
    <dc:creator>
     <cc:Agent>
      <dc:title>Matplotlib v3.10.8, https://matplotlib.org/</dc:title>
     </cc:Agent>
    </dc:creator>
   </cc:Work>
  </rdf:RDF>
 </metadata>
 <defs>
  <style type="text/css">*{stroke-linejoin: round; stroke-linecap: butt}</style>
 </defs>
 <g id="figure_1">
  <g id="patch_1">
   <path d="M 0 120 
L 288 120 
L 288 0 
L 0 0 
L 0 120 
z
" style="fill: none; opacity: 0"/>
  </g>
  <g id="axes_1">
   <g id="patch_2">
    <path d="M 8.64 108 
L 279.36 108 
L 279.36 4.8 
L 8.64 4.8 
L 8.64 108 
z
" style="fill: none"/>
   </g>
   <g id="matplotlib.axis_1"/>
   <g id="matplotlib.axis_2"/>
   <g id="line2d_1">
    <path d="M 8.64 87.36 
L 279.36 87.36 
" clip-path="url(#pe6c4bfdf81)" style="fill: none; stroke: #b2b2b2; stroke-opacity: 0.35; stroke-width: 0.5; stroke-linecap: square"/>
   </g>
   <g id="line2d_2">
    <path d="M 8.64 66.72 
L 279.36 66.72 
" clip-path="url(#pe6c4bfdf81)" style="fill: none; stroke: #b2b2b2; stroke-opacity: 0.35; stroke-width: 0.5; stroke-linecap: square"/>
   </g>
   <g id="line2d_3">
    <path d="M 8.64 46.08 
L 279.36 46.08 
" clip-path="url(#pe6c4bfdf81)" style="fill: none; stroke: #b2b2b2; stroke-opacity: 0.35; stroke-width: 0.5; stroke-linecap: square"/>
   </g>
   <g id="line2d_4">
    <path d="M 8.64 25.44 
L 279.36 25.44 
" clip-path="url(#pe6c4bfdf81)" style="fill: none; stroke: #b2b2b2; stroke-opacity: 0.35; stroke-width: 0.5; stroke-linecap: square"/>
   </g>
   <g id="line2d_5">
    <path d="M 8.64 99.83688 
L 17.408515 100.13616 
L 26.771548 100.80696 
L 36.033384 101.38488 
L 45.512008 101.3436 
L 54.889977 101.292 
L 64.182226 101.28168 
L 73.613662 101.28168 
L 82.841729 101.8596 
L 92.20368 101.88024 
L 101.474824 101.72544 
L 110.966869 101.68416 
L 120.34224 101.47776 
L 129.632757 101.78736 
L 138.999145 101.09592 
L 148.317803 101.46744 
L 157.755083 101.3436 
L 166.963344 101.05464 
L 176.482339 101.3952 
L 185.881521 101.47776 
L 195.173229 100.86888 
L 204.517322 101.26104 
L 213.909036 100.99272 
L 223.241223 100.61088 
L 232.489313 100.44576 
L 241.964041 100.94112 
L 251.338438 101.09592 
L 260.648654 101.00304 
L 269.970883 100.69344 
L 279.36 100.9308 
" clip-path="url(#pe6c4bfdf81)" style="fill: none; stroke: #bebebe; stroke-width: 0.5; stroke-linecap: round"/>
   </g>
   <g id="line2d_6">
    <path d="M 8.64 87.3084 
L 17.408515 87.65928 
L 26.771548 88.96992 
L 36.033384 90.07416 
L 45.512008 89.76456 
L 54.889977 89.3724 
L 64.182226 89.00088 
L 73.613662 88.42296 
L 82.841729 88.81512 
L 92.20368 89.10408 
L 101.474824 89.14536 
L 110.966869 89.07312 
L 120.34224 87.9792 
L 129.632757 88.29912 
L 138.999145 86.38992 
L 148.317803 87.24648 
L 157.755083 87.1536 
L 166.963344 86.21448 
L 176.482339 86.66856 
L 185.881521 87.01944 
L 195.173229 84.44976 
L 204.517322 85.05864 
L 213.909036 84.58392 
L 223.241223 85.04832 
L 232.489313 83.71704 
L 241.964041 84.86256 
L 251.338438 85.6572 
L 260.648654 85.27536 
L 269.970883 84.49104 
L 279.36 84.86256 
" clip-path="url(#pe6c4bfdf81)" style="fill: none; stroke: #4a8dff; stroke-width: 0.6"/>
   </g>
   <g id="line2d_7">
    <path d="M 8.64 99.87816 
L 17.408515 100.002 
L 26.771548 100.64184 
L 36.033384 101.41584 
L 45.512008 101.21976 
L 54.889977 101.14752 
L 64.182226 101.00304 
L 73.613662 100.86888 
L 82.841729 101.21976 
L 92.20368 101.28168 
L 101.474824 101.20944 
L 110.966869 101.14752 
L 120.34224 100.55928 
L 129.632757 100.65216 
L 138.999145 99.80592 
L 148.317803 99.96072 
L 157.755083 99.6408 
L 166.963344 99.1764 
L 176.482339 99.70272 
L 185.881521 99.94008 
L 195.173229 98.57784 
L 204.517322 98.65008 
L 213.909036 98.38176 
L 223.241223 98.48496 
L 232.489313 96.70992 
L 241.964041 98.05152 
L 251.338438 98.48496 
L 260.648654 97.96896 
L 269.970883 96.32808 
L 279.36 96.20424 
" clip-path="url(#pe6c4bfdf81)" style="fill: none; stroke: #f5841e; stroke-width: 0.6"/>
   </g>
  </g>
 </g>
 <defs>
  <clipPath id="pe6c4bfdf81">
   <rect x="8.64" y="4.8" width="270.72" height="103.2"/>
  </clipPath>
 </defs>
</svg>
