<?xml version="1.0" encoding="utf-8" standalone="no"?>
<!DOCTYPE svg PUBLIC "-//W3C//DTD SVG 1.1//EN"
  "http://www.w3.org/Graphics/SVG/1.1/DTD/svg11.dtd">
<svg xmlns:xlink="http://www.w3.org/1999/xlink" width="288pt" height="120pt" viewBox="0 0 288 120" xmlns="http://www.w3.org/2000/svg" version="1.1">
<desc id="nav-meta">{"window":"3m","count":4,"labels":["11.11","11.12","09.01","08.02"],"tick_utc":["2025-11-11T12:00:00Z","2025-12-11T12:00:00Z","2026-01-09T12:00:00Z","2026-02-08T03:46:03Z"],"w":720,"h":300}</desc>

 <metadata>
  <rdf:RDF xmlns:dc="http://purl.org/dc/elements/1.1/" xmlns:cc="http://creativecommons.org/ns#" xmlns:rdf="http://www.w3.org/1999/02/22-rdf-syntax-ns#">
   <cc:Work>
    <dc:type rdf:resource="http://purl.org/dc/dcmitype/StillImage"/>
    <dc:date>2026-02-08T13:31:15.301786</dc:date>
    <dc:format>image/svg+xml</dc:format>
    <dc:creator>
     <cc:Agent>
      <dc:title>Matplotlib v3.10.8, https://matplotlib.org/</dc:title>
     </cc:Agent>
    </dc:creator>
   </cc:Work>
  </rdf:RDF>
 </metadata>
 <defs>
  <style type="text/css">*{stroke-linejoin: round; stroke-linecap: butt}</style>
 </defs>
 <g id="figure_1">
  <g id="patch_1">
   <path d="M 0 120 
L 288 120 
L 288 0 
L 0 0 
L 0 120 
z
" style="fill: none; opacity: 0"/>
  </g>
  <g id="axes_1">
   <g id="patch_2">
    <path d="M 8.64 108 
L 279.36 108 
L 279.36 4.8 
L 8.64 4.8 
L 8.64 108 
z
" style="fill: none"/>
   </g>
   <g id="matplotlib.axis_1"/>
   <g id="matplotlib.axis_2"/>
   <g id="line2d_1">
    <path d="M 8.64 87.36 
L 279.36 87.36 
" clip-path="url(#p6e92aaa2a8)" style="fill: none; stroke: #b2b2b2; stroke-opacity: 0.35; stroke-width: 0.5; stroke-linecap: square"/>
   </g>
   <g id="line2d_2">
    <path d="M 8.64 66.72 
L 279.36 66.72 
" clip-path="url(#p6e92aaa2a8)" style="fill: none; stroke: #b2b2b2; stroke-opacity: 0.35; stroke-width: 0.5; stroke-linecap: square"/>
   </g>
   <g id="line2d_3">
    <path d="M 8.64 46.08 
L 279.36 46.08 
" clip-path="url(#p6e92aaa2a8)" style="fill: none; stroke: #b2b2b2; stroke-opacity: 0.35; stroke-width: 0.5; stroke-linecap: square"/>
   </g>
   <g id="line2d_4">
    <path d="M 8.64 25.44 
L 279.36 25.44 
" clip-path="url(#p6e92aaa2a8)" style="fill: none; stroke: #b2b2b2; stroke-opacity: 0.35; stroke-width: 0.5; stroke-linecap: square"/>
   </g>
   <g id="line2d_5">
    <path d="M 8.64 80.72424 
L 11.693567 84.33624 
L 14.747133 84.64584 
L 17.8007 86.844 
L 20.854267 88.52616 
L 23.907834 88.36104 
L 26.9614 88.93896 
L 30.014967 90.79656 
L 33.068534 88.09272 
L 36.1221 89.22792 
L 39.175667 90.00192 
L 42.229234 91.39512 
L 45.2828 91.63248 
L 48.336367 90.75528 
L 51.389934 88.7016 
L 54.443501 88.52616 
L 57.497067 87.45288 
L 60.550634 88.0308 
L 63.604201 88.94928 
L 66.657767 89.3208 
L 69.711334 89.7336 
L 72.764901 91.86984 
L 75.818468 88.60872 
L 78.872034 86.87496 
L 81.925601 88.52616 
L 84.979168 90.11544 
L 88.032734 90.38376 
L 91.086301 90.53856 
L 94.139868 90.08448 
L 97.193435 88.79448 
L 100.247001 89.20728 
L 103.300568 89.22792 
L 106.354135 90.31152 
L 109.407701 90.10512 
L 112.461268 91.09584 
L 115.514835 91.61184 
L 118.568401 91.31256 
L 121.621968 92.87088 
L 124.675535 93.8616 
L 127.729102 92.02464 
L 130.782668 92.13816 
L 133.836235 92.07624 
L 136.889802 92.14848 
L 139.943368 92.64384 
L 142.996935 93.01536 
L 146.050502 93.69648 
L 149.104069 93.11856 
L 152.157635 92.44776 
L 155.211202 92.30328 
L 158.264769 92.87088 
L 161.318335 92.38584 
L 164.371902 92.47872 
L 167.425469 91.88016 
L 170.479036 90.42504 
L 173.532602 90.08448 
L 176.586169 89.92968 
L 179.639736 88.76352 
L 182.693302 87.94824 
L 185.746869 89.2692 
L 188.800436 88.72224 
L 191.854002 89.39304 
L 194.907569 89.40336 
L 197.961136 88.41264 
L 201.014703 88.4952 
L 204.068269 86.86464 
L 207.121836 86.42088 
L 210.175403 87.62832 
L 213.228969 86.93688 
L 216.282536 87.23616 
L 219.336103 88.63968 
L 222.38967 90.0432 
L 225.443236 92.12784 
L 228.496803 91.16808 
L 231.55037 91.46736 
L 234.603936 91.73568 
L 237.657503 91.78728 
L 240.71107 94.0164 
L 243.764637 92.5716 
L 246.818203 91.76664 
L 249.87177 92.33424 
L 252.925337 94.36728 
L 255.978903 94.46016 
L 259.03247 97.71096 
L 262.086037 98.48496 
L 265.139603 97.85544 
L 267.717499 99.10416 
L 270.144131 100.16712 
L 273.196142 102.23112 
L 276.236632 100.54896 
L 279.36 100.70376 
" clip-path="url(#p6e92aaa2a8)" style="fill: none; stroke: #bebebe; stroke-width: 0.5; stroke-linecap: round"/>
   </g>
   <g id="line2d_6">
    <path d="M 8.64 66.68904 
L 11.693567 68.8872 
L 14.747133 68.9904 
L 17.8007 71.5704 
L 20.854267 73.48992 
L 23.907834 72.54048 
L 26.9614 73.56216 
L 30.014967 74.74896 
L 33.068534 73.3248 
L 36.1221 74.80056 
L 39.175667 77.556 
L 42.229234 78.55704 
L 45.2828 78.50544 
L 48.336367 78.04104 
L 51.389934 75.76032 
L 54.443501 75.73968 
L 57.497067 74.65608 
L 60.550634 74.83152 
L 63.604201 74.57352 
L 66.657767 75.20304 
L 69.711334 75.17208 
L 72.764901 78.05136 
L 75.818468 75.1308 
L 78.872034 72.16896 
L 81.925601 73.08744 
L 84.979168 74.72832 
L 88.032734 74.48064 
L 91.086301 74.28456 
L 94.139868 73.21128 
L 97.193435 70.2804 
L 100.247001 70.2288 
L 103.300568 71.56008 
L 106.354135 73.79952 
L 109.407701 73.35576 
L 112.461268 74.0988 
L 115.514835 75.5952 
L 118.568401 75.5952 
L 121.621968 77.61792 
L 124.675535 77.63856 
L 127.729102 75.40944 
L 130.782668 75.40944 
L 133.836235 75.04824 
L 136.889802 74.98632 
L 139.943368 75.58488 
L 142.996935 75.87384 
L 146.050502 76.49304 
L 149.104069 76.15248 
L 152.157635 75.82224 
L 155.211202 75.84288 
L 158.264769 76.03896 
L 161.318335 75.51264 
L 164.371902 75.56424 
L 167.425469 75.05856 
L 170.479036 73.26288 
L 173.532602 73.20096 
L 176.586169 73.00488 
L 179.639736 71.68392 
L 182.693302 70.6932 
L 185.746869 72.62304 
L 188.800436 73.52088 
L 191.854002 73.83048 
L 194.907569 73.8408 
L 197.961136 73.29384 
L 201.014703 73.72728 
L 204.068269 70.32168 
L 207.121836 69.77472 
L 210.175403 70.34232 
L 213.228969 70.67256 
L 216.282536 70.51776 
L 219.336103 70.848 
L 222.38967 72.31344 
L 225.443236 76.01832 
L 228.496803 75.41976 
L 231.55037 75.83256 
L 234.603936 75.79128 
L 237.657503 75.82224 
L 240.71107 77.82432 
L 243.764637 76.14216 
L 246.818203 74.75928 
L 249.87177 74.96568 
L 252.925337 77.75208 
L 255.978903 79.48584 
L 259.03247 83.31456 
L 262.086037 85.90488 
L 265.139603 84.79032 
L 267.717499 85.84296 
L 270.144131 88.25784 
L 273.196142 91.41576 
L 276.236632 88.7532 
L 279.36 88.65 
" clip-path="url(#p6e92aaa2a8)" style="fill: none; stroke: #4a8dff; stroke-width: 0.6"/>
   </g>
   <g id="line2d_7">
    <path d="M 8.64 66.978 
L 11.693567 70.03272 
L 14.747133 71.5188 
L 17.8007 73.3764 
L 20.854267 78.846 
L 23.907834 77.75208 
L 26.9614 78.88728 
L 30.014967 81.34344 
L 33.068534 80.53848 
L 36.1221 82.0452 
L 39.175667 86.92656 
L 42.229234 88.58808 
L 45.2828 88.96992 
L 48.336367 86.7924 
L 51.389934 85.296 
L 54.443501 86.24544 
L 57.497067 82.96368 
L 60.550634 82.13808 
L 63.604201 82.47864 
L 66.657767 82.58184 
L 69.711334 83.03592 
L 72.764901 87.3084 
L 75.818468 82.06584 
L 78.872034 79.71288 
L 81.925601 81.24024 
L 84.979168 84.17112 
L 88.032734 84.24336 
L 91.086301 83.29392 
L 94.139868 82.8192 
L 97.193435 80.64168 
L 100.247001 81.38472 
L 103.300568 80.87904 
L 106.354135 83.13912 
L 109.407701 83.19072 
L 112.461268 85.296 
L 115.514835 87.17424 
L 118.568401 85.71912 
L 121.621968 87.53544 
L 124.675535 88.17528 
L 127.729102 85.41984 
L 130.782668 85.17216 
L 133.836235 84.9348 
L 136.889802 85.01736 
L 139.943368 86.14224 
L 142.996935 85.90488 
L 146.050502 86.328 
L 149.104069 86.24544 
L 152.157635 85.72944 
L 155.211202 85.7088 
L 158.264769 86.40024 
L 161.318335 85.09992 
L 164.371902 86.02872 
L 167.425469 84.78 
L 170.479036 83.53128 
L 173.532602 82.83984 
L 176.586169 82.03488 
L 179.639736 79.39296 
L 182.693302 79.66128 
L 185.746869 82.15872 
L 188.800436 82.43736 
L 191.854002 82.93272 
L 194.907569 83.00496 
L 197.961136 82.6128 
L 201.014703 82.28256 
L 204.068269 78.01008 
L 207.121836 76.19376 
L 210.175403 77.66952 
L 213.228969 77.74176 
L 216.282536 78.1752 
L 219.336103 79.5684 
L 222.38967 80.8068 
L 225.443236 85.20312 
L 228.496803 84.12984 
L 231.55037 84.03696 
L 234.603936 84.06792 
L 237.657503 84.3156 
L 240.71107 87.02976 
L 243.764637 85.21344 
L 246.818203 84.28464 
L 249.87177 84.32592 
L 252.925337 89.08344 
L 255.978903 89.5272 
L 259.03247 95.14128 
L 262.086037 96.98856 
L 265.139603 95.08968 
L 267.717499 97.71096 
L 270.144131 99.80592 
L 273.196142 101.79768 
L 276.236632 100.03296 
L 279.36 100.518 
" clip-path="url(#p6e92aaa2a8)" style="fill: none; stroke: #f5841e; stroke-width: 0.6"/>
   </g>
  </g>
 </g>
 <defs>
  <clipPath id="p6e92aaa2a8">
   <rect x="8.64" y="4.8" width="270.72" height="103.2"/>
  </clipPath>
 </defs>
</svg>
