<?xml version="1.0" encoding="utf-8" standalone="no"?>
<!DOCTYPE svg PUBLIC "-//W3C//DTD SVG 1.1//EN"
  "http://www.w3.org/Graphics/SVG/1.1/DTD/svg11.dtd">
<svg xmlns:xlink="http://www.w3.org/1999/xlink" width="288pt" height="120pt" viewBox="0 0 288 120" xmlns="http://www.w3.org/2000/svg" version="1.1">
<desc id="nav-meta">{"window":"1m","count":4,"labels":["30.01","09.02","19.02","01.03"],"tick_utc":["2026-01-30T12:00:00Z","2026-02-09T03:34:10Z","2026-02-19T03:28:49Z","2026-03-01T03:33:48Z"],"w":720,"h":300}</desc>

 <metadata>
  <rdf:RDF xmlns:dc="http://purl.org/dc/elements/1.1/" xmlns:cc="http://creativecommons.org/ns#" xmlns:rdf="http://www.w3.org/1999/02/22-rdf-syntax-ns#">
   <cc:Work>
    <dc:type rdf:resource="http://purl.org/dc/dcmitype/StillImage"/>
    <dc:date>2026-03-01T07:21:50.572321</dc:date>
    <dc:format>image/svg+xml</dc:format>
    <dc:creator>
     <cc:Agent>
      <dc:title>Matplotlib v3.10.8, https://matplotlib.org/</dc:title>
     </cc:Agent>
    </dc:creator>
   </cc:Work>
  </rdf:RDF>
 </metadata>
 <defs>
  <style type="text/css">*{stroke-linejoin: round; stroke-linecap: butt}</style>
 </defs>
 <g id="figure_1">
  <g id="patch_1">
   <path d="M 0 120 
L 288 120 
L 288 0 
L 0 0 
L 0 120 
z
" style="fill: none; opacity: 0"/>
  </g>
  <g id="axes_1">
   <g id="patch_2">
    <path d="M 8.64 108 
L 279.36 108 
L 279.36 4.8 
L 8.64 4.8 
L 8.64 108 
z
" style="fill: none"/>
   </g>
   <g id="matplotlib.axis_1"/>
   <g id="matplotlib.axis_2"/>
   <g id="line2d_1">
    <path d="M 8.64 87.36 
L 279.36 87.36 
" clip-path="url(#pd694077798)" style="fill: none; stroke: #b2b2b2; stroke-opacity: 0.35; stroke-width: 0.5; stroke-linecap: square"/>
   </g>
   <g id="line2d_2">
    <path d="M 8.64 66.72 
L 279.36 66.72 
" clip-path="url(#pd694077798)" style="fill: none; stroke: #b2b2b2; stroke-opacity: 0.35; stroke-width: 0.5; stroke-linecap: square"/>
   </g>
   <g id="line2d_3">
    <path d="M 8.64 46.08 
L 279.36 46.08 
" clip-path="url(#pd694077798)" style="fill: none; stroke: #b2b2b2; stroke-opacity: 0.35; stroke-width: 0.5; stroke-linecap: square"/>
   </g>
   <g id="line2d_4">
    <path d="M 8.64 25.44 
L 279.36 25.44 
" clip-path="url(#pd694077798)" style="fill: none; stroke: #b2b2b2; stroke-opacity: 0.35; stroke-width: 0.5; stroke-linecap: square"/>
   </g>
   <g id="line2d_5">
    <path d="M 8.64 94.36728 
L 17.770993 94.46016 
L 26.901987 97.71096 
L 36.03298 98.48496 
L 45.163973 97.85544 
L 52.872582 99.10416 
L 60.128868 100.16712 
L 69.255211 102.23112 
L 78.347102 100.54896 
L 87.686818 100.70376 
L 96.74246 100.68312 
L 105.925555 100.95144 
L 115.037631 101.28168 
L 124.135757 101.71512 
L 133.264002 101.84928 
L 142.285191 101.034 
L 150.934376 100.54896 
L 160.651064 101.04432 
L 168.635082 100.81728 
L 178.898572 101.034 
L 188.018468 101.4984 
L 197.096092 101.33328 
L 206.171284 101.1372 
L 215.406587 101.06496 
L 224.565057 102.09696 
L 232.924672 102.05568 
L 242.794177 101.4984 
L 251.884482 100.60056 
L 260.998143 100.80696 
L 270.021551 101.45712 
L 279.36 100.55928 
" clip-path="url(#pd694077798)" style="fill: none; stroke: #bebebe; stroke-width: 0.5; stroke-linecap: round"/>
   </g>
   <g id="line2d_6">
    <path d="M 8.64 77.75208 
L 17.770993 79.48584 
L 26.901987 83.31456 
L 36.03298 85.90488 
L 45.163973 84.79032 
L 52.872582 85.84296 
L 60.128868 88.25784 
L 69.255211 91.41576 
L 78.347102 88.7532 
L 87.686818 88.65 
L 96.74246 88.55712 
L 105.925555 88.96992 
L 115.037631 89.7336 
L 124.135757 90.456 
L 133.264002 90.56952 
L 142.285191 89.15568 
L 150.934376 88.9596 
L 160.651064 90.6624 
L 168.635082 89.94 
L 178.898572 90.00192 
L 188.018468 90.3528 
L 197.096092 90.62112 
L 206.171284 90.5076 
L 215.406587 90.3528 
L 224.565057 92.004 
L 232.924672 92.13816 
L 242.794177 91.25064 
L 251.884482 89.166 
L 260.998143 89.56848 
L 270.021551 90.93072 
L 279.36 89.41368 
" clip-path="url(#pd694077798)" style="fill: none; stroke: #4a8dff; stroke-width: 0.6"/>
   </g>
   <g id="line2d_7">
    <path d="M 8.64 89.08344 
L 17.770993 89.5272 
L 26.901987 95.14128 
L 36.03298 96.98856 
L 45.163973 95.08968 
L 52.872582 97.71096 
L 60.128868 99.80592 
L 69.255211 101.79768 
L 78.347102 100.03296 
L 87.686818 100.518 
L 96.74246 99.98136 
L 105.925555 100.49736 
L 115.037631 100.78632 
L 124.135757 101.07528 
L 133.264002 101.26104 
L 142.285191 100.63152 
L 150.934376 100.38384 
L 160.651064 100.84824 
L 168.635082 100.65216 
L 178.898572 101.034 
L 188.018468 101.19912 
L 197.096092 101.10624 
L 206.171284 100.97208 
L 215.406587 100.91016 
L 224.565057 101.7564 
L 232.924672 101.84928 
L 242.794177 101.56032 
L 251.884482 100.85856 
L 260.998143 101.12688 
L 270.021551 101.4468 
L 279.36 101.02368 
" clip-path="url(#pd694077798)" style="fill: none; stroke: #f5841e; stroke-width: 0.6"/>
   </g>
  </g>
 </g>
 <defs>
  <clipPath id="pd694077798">
   <rect x="8.64" y="4.8" width="270.72" height="103.2"/>
  </clipPath>
 </defs>
</svg>
