<?xml version="1.0" encoding="utf-8" standalone="no"?>
<!DOCTYPE svg PUBLIC "-//W3C//DTD SVG 1.1//EN"
  "http://www.w3.org/Graphics/SVG/1.1/DTD/svg11.dtd">
<svg xmlns:xlink="http://www.w3.org/1999/xlink" width="288pt" height="120pt" viewBox="0 0 288 120" xmlns="http://www.w3.org/2000/svg" version="1.1">
<desc id="nav-meta">{"window":"1y","count":4,"labels":["09.03","08.07","06.11","08.03"],"tick_utc":["2025-03-09T12:00:00Z","2025-07-08T12:00:00Z","2025-11-06T12:00:00Z","2026-03-08T03:19:34Z"],"w":720,"h":300}</desc>

 <metadata>
  <rdf:RDF xmlns:dc="http://purl.org/dc/elements/1.1/" xmlns:cc="http://creativecommons.org/ns#" xmlns:rdf="http://www.w3.org/1999/02/22-rdf-syntax-ns#">
   <cc:Work>
    <dc:type rdf:resource="http://purl.org/dc/dcmitype/StillImage"/>
    <dc:date>2026-03-08T19:02:12.811661</dc:date>
    <dc:format>image/svg+xml</dc:format>
    <dc:creator>
     <cc:Agent>
      <dc:title>Matplotlib v3.10.8, https://matplotlib.org/</dc:title>
     </cc:Agent>
    </dc:creator>
   </cc:Work>
  </rdf:RDF>
 </metadata>
 <defs>
  <style type="text/css">*{stroke-linejoin: round; stroke-linecap: butt}</style>
 </defs>
 <g id="figure_1">
  <g id="patch_1">
   <path d="M 0 120 
L 288 120 
L 288 0 
L 0 0 
L 0 120 
z
" style="fill: none; opacity: 0"/>
  </g>
  <g id="axes_1">
   <g id="patch_2">
    <path d="M 8.64 108 
L 279.36 108 
L 279.36 4.8 
L 8.64 4.8 
L 8.64 108 
z
" style="fill: none"/>
   </g>
   <g id="matplotlib.axis_1"/>
   <g id="matplotlib.axis_2"/>
   <g id="line2d_1">
    <path d="M 8.64 87.36 
L 279.36 87.36 
" clip-path="url(#p3d3ee47d4d)" style="fill: none; stroke: #b2b2b2; stroke-opacity: 0.35; stroke-width: 0.5; stroke-linecap: square"/>
   </g>
   <g id="line2d_2">
    <path d="M 8.64 66.72 
L 279.36 66.72 
" clip-path="url(#p3d3ee47d4d)" style="fill: none; stroke: #b2b2b2; stroke-opacity: 0.35; stroke-width: 0.5; stroke-linecap: square"/>
   </g>
   <g id="line2d_3">
    <path d="M 8.64 46.08 
L 279.36 46.08 
" clip-path="url(#p3d3ee47d4d)" style="fill: none; stroke: #b2b2b2; stroke-opacity: 0.35; stroke-width: 0.5; stroke-linecap: square"/>
   </g>
   <g id="line2d_4">
    <path d="M 8.64 25.44 
L 279.36 25.44 
" clip-path="url(#p3d3ee47d4d)" style="fill: none; stroke: #b2b2b2; stroke-opacity: 0.35; stroke-width: 0.5; stroke-linecap: square"/>
   </g>
   <g id="line2d_5">
    <path d="M 8.64 89.10408 
L 9.384475 91.9008 
L 10.128951 94.04736 
L 10.873426 92.23104 
L 11.617902 91.92144 
L 12.362377 92.8296 
L 13.106853 90.01224 
L 13.851328 89.39304 
L 14.595804 92.03496 
L 15.340279 91.45704 
L 16.084754 92.262 
L 16.82923 89.44464 
L 17.573705 91.62216 
L 18.318181 91.46736 
L 19.062656 91.42608 
L 19.807132 90.41472 
L 20.551607 88.09272 
L 21.296083 87.17424 
L 22.040558 89.04216 
L 22.785033 88.69128 
L 23.529509 91.13712 
L 24.273984 92.48904 
L 25.762935 92.38584 
L 26.507411 91.85952 
L 27.251886 94.24344 
L 27.996362 94.4808 
L 28.740837 92.97408 
L 29.485312 93.67584 
L 30.229788 97.60776 
L 30.974263 97.32912 
L 31.718739 97.68 
L 32.463214 94.00608 
L 33.20769 95.65728 
L 33.952165 93.33528 
L 34.696641 90.39408 
L 35.441116 91.46736 
L 36.185592 91.14744 
L 36.930067 91.99368 
L 37.674542 90.57984 
L 38.419018 89.72328 
L 39.163493 89.89872 
L 39.907969 88.35072 
L 40.652444 88.89768 
L 41.39692 89.25888 
L 42.141395 85.84296 
L 42.885871 85.2444 
L 43.630346 84.8832 
L 45.863772 85.99776 
L 46.608248 86.07 
L 47.352723 86.4828 
L 48.097199 86.14224 
L 48.841674 85.31664 
L 49.58615 86.07 
L 50.330625 86.38992 
L 51.0751 87.16392 
L 51.819576 86.38992 
L 53.308527 86.28672 
L 54.053002 81.84912 
L 54.797478 79.32072 
L 55.541953 78.05136 
L 56.286429 79.26912 
L 57.030904 78.846 
L 57.775379 76.2144 
L 59.26433 80.394 
L 60.008806 80.66232 
L 60.753281 81.168 
L 61.497757 79.63032 
L 62.242232 80.95128 
L 62.986708 80.4972 
L 64.475658 77.43216 
L 65.220134 78.846 
L 65.964609 78.41256 
L 66.709085 78.64992 
L 67.45356 78.76344 
L 68.198036 78.25776 
L 68.942511 79.47552 
L 69.686987 80.92032 
L 70.431462 83.73768 
L 71.175937 83.6448 
L 71.920413 83.4384 
L 72.664888 83.61384 
L 73.409364 83.99568 
L 74.153839 84.55296 
L 74.898315 87.00912 
L 75.64279 85.98744 
L 76.387266 85.5024 
L 77.131741 84.8316 
L 77.876216 82.46832 
L 78.620692 81.426 
L 79.365167 82.5096 
L 80.109643 84.79032 
L 81.598594 86.95752 
L 82.343069 84.79032 
L 83.087545 85.13088 
L 83.83202 86.07 
L 84.576496 86.5344 
L 85.320971 86.31768 
L 86.809922 89.97096 
L 87.554397 90.48696 
L 88.298873 86.9472 
L 89.043348 86.66856 
L 89.787824 87.32904 
L 90.532299 88.53648 
L 91.276775 87.6696 
L 92.02125 85.30632 
L 92.765725 84.61488 
L 93.510201 84.17112 
L 94.254676 86.3796 
L 94.999152 84.92448 
L 95.743627 84.89352 
L 96.488103 86.13192 
L 97.232578 86.1732 
L 97.977054 84.99672 
L 98.721529 85.85328 
L 99.466004 85.01736 
L 100.21048 83.55192 
L 100.954955 81.7356 
L 101.699431 82.03488 
L 102.443906 82.65408 
L 103.932857 82.15872 
L 104.677333 81.70464 
L 105.421808 79.01112 
L 106.166283 78.39192 
L 106.910759 78.04104 
L 107.655234 78.16488 
L 108.39971 77.05032 
L 109.144185 72.82944 
L 109.888661 70.41456 
L 110.633136 74.69736 
L 111.377612 76.6272 
L 112.122087 75.63648 
L 112.866562 75.97704 
L 113.611038 74.976 
L 114.355513 76.49304 
L 115.099989 76.99872 
L 115.844464 77.90688 
L 116.58894 79.4652 
L 117.333415 82.02456 
L 118.077891 83.19072 
L 118.822366 82.27224 
L 119.566841 80.21856 
L 120.311317 81.67368 
L 121.055792 80.5488 
L 121.800268 78.588 
L 122.544743 78.19584 
L 123.289219 77.21544 
L 124.033694 76.524 
L 124.77817 78.68088 
L 125.522645 73.88208 
L 126.26712 71.364 
L 127.011596 73.8408 
L 127.756071 75.79128 
L 128.500547 74.65608 
L 129.245022 74.14008 
L 129.989498 76.50336 
L 130.733973 78.30936 
L 131.478449 75.3372 
L 132.222924 77.25672 
L 132.9674 71.78712 
L 133.711875 70.75512 
L 134.45635 70.24944 
L 135.200826 75.35784 
L 135.945301 72.95328 
L 136.689777 70.96152 
L 137.434252 67.87584 
L 138.178728 70.46616 
L 138.923203 71.11632 
L 139.667679 71.61168 
L 140.412154 72.7056 
L 141.156629 69.33096 
L 141.901105 68.9388 
L 142.64558 71.12664 
L 143.390056 70.90992 
L 144.134531 71.80776 
L 144.879007 70.074 
L 145.623482 68.01 
L 146.367958 67.10184 
L 147.112433 65.29584 
L 147.856908 64.01616 
L 148.601384 60.31128 
L 149.345859 60.19776 
L 150.090335 60.786 
L 150.83481 62.61264 
L 151.579286 61.74576 
L 152.323761 59.57856 
L 153.068237 58.86648 
L 153.812712 61.38456 
L 154.557187 61.07496 
L 155.301663 61.83864 
L 156.046138 66.29688 
L 156.790614 67.97904 
L 157.535089 68.69112 
L 158.279565 73.9956 
L 159.02404 70.45584 
L 159.768516 70.87896 
L 160.512991 68.91816 
L 161.257466 68.3196 
L 162.001942 69.47544 
L 163.490893 62.39592 
L 164.235368 62.81904 
L 164.979844 64.22256 
L 165.724319 64.05744 
L 166.468795 62.9532 
L 167.21327 66.14208 
L 167.957745 63.91296 
L 168.702221 66.17304 
L 169.446696 74.6148 
L 170.191172 77.78304 
L 170.935647 72.66432 
L 171.680123 69.69216 
L 172.424598 71.09568 
L 173.913549 76.06992 
L 174.658024 76.76136 
L 175.4025 75.25464 
L 176.146975 75.24432 
L 176.891451 74.63544 
L 177.635926 75.73968 
L 178.380402 77.31864 
L 179.124877 74.202 
L 179.869353 73.64472 
L 180.613828 73.48992 
L 181.358303 71.83872 
L 182.102779 72.17928 
L 182.847254 73.38672 
L 183.59173 73.43832 
L 184.336205 76.15248 
L 185.080681 75.3372 
L 185.825156 75.58488 
L 186.569632 75.35784 
L 187.314107 81.168 
L 188.058583 84.01632 
L 188.803058 82.06584 
L 189.547533 84.19176 
L 190.292009 82.27224 
L 191.036484 83.29392 
L 191.78096 81.62208 
L 192.525435 80.72424 
L 193.269911 84.33624 
L 194.014386 84.64584 
L 194.758862 86.844 
L 195.503337 88.52616 
L 196.247812 88.36104 
L 196.992288 88.93896 
L 197.736763 90.79656 
L 198.481239 88.09272 
L 199.225714 89.22792 
L 199.97019 90.00192 
L 200.714665 91.39512 
L 201.459141 91.63248 
L 202.203616 90.75528 
L 202.948091 88.7016 
L 203.692567 88.52616 
L 204.437042 87.45288 
L 205.181518 88.0308 
L 205.925993 88.94928 
L 207.414944 89.7336 
L 208.15942 91.86984 
L 208.903895 88.60872 
L 209.64837 86.87496 
L 211.137321 90.11544 
L 212.626272 90.53856 
L 213.370748 90.08448 
L 214.115223 88.79448 
L 214.859699 89.20728 
L 215.604174 89.22792 
L 216.348649 90.31152 
L 217.093125 90.10512 
L 217.8376 91.09584 
L 218.582076 91.61184 
L 219.326551 91.31256 
L 220.071027 92.87088 
L 220.815502 93.8616 
L 221.559978 92.02464 
L 222.304453 92.13816 
L 223.048928 92.07624 
L 223.793404 92.14848 
L 226.02683 93.69648 
L 227.515781 92.44776 
L 228.260257 92.30328 
L 229.004732 92.87088 
L 229.749207 92.38584 
L 230.493683 92.47872 
L 231.238158 91.88016 
L 231.982634 90.42504 
L 232.727109 90.08448 
L 233.471585 89.92968 
L 234.21606 88.76352 
L 234.960536 87.94824 
L 235.705011 89.2692 
L 236.449487 88.72224 
L 237.193962 89.39304 
L 237.938437 89.40336 
L 238.682913 88.41264 
L 239.427388 88.4952 
L 240.171864 86.86464 
L 240.916339 86.42088 
L 241.660815 87.62832 
L 242.40529 86.93688 
L 243.149766 87.23616 
L 244.638716 90.0432 
L 245.383192 92.12784 
L 246.127667 91.16808 
L 247.616618 91.73568 
L 248.361094 91.78728 
L 249.105569 94.0164 
L 249.850045 92.5716 
L 250.59452 91.76664 
L 251.338995 92.33424 
L 252.083471 94.36728 
L 252.827946 94.46016 
L 253.572422 97.71096 
L 254.316897 98.48496 
L 255.061373 97.85544 
L 256.281502 100.16712 
L 257.025599 102.23112 
L 257.766886 100.54896 
L 258.528379 100.70376 
L 259.266711 100.68312 
L 260.758368 101.28168 
L 261.500163 101.71512 
L 262.244415 101.84928 
L 262.979937 101.034 
L 263.68513 100.54896 
L 264.477359 101.04432 
L 265.128318 100.81728 
L 265.965129 101.034 
L 266.7087 101.4984 
L 268.94173 101.06496 
L 269.688445 102.09696 
L 270.370028 102.05568 
L 271.174717 101.4984 
L 271.915875 100.60056 
L 272.658937 100.80696 
L 273.394641 101.45712 
L 274.15603 100.55928 
L 274.89282 101.10624 
L 276.379332 100.74504 
L 277.12541 100.21872 
L 277.869533 100.53864 
L 278.608295 101.07528 
L 279.36 101.38488 
L 279.36 101.38488 
" clip-path="url(#p3d3ee47d4d)" style="fill: none; stroke: #bebebe; stroke-width: 0.5; stroke-linecap: round"/>
   </g>
   <g id="line2d_6">
    <path d="M 8.64 86.93688 
L 9.384475 89.65104 
L 10.128951 91.6944 
L 10.873426 91.0752 
L 11.617902 91.23 
L 12.362377 91.94208 
L 13.106853 91.23 
L 13.851328 90.79656 
L 14.595804 91.57056 
L 15.340279 90.95136 
L 16.084754 90.89976 
L 16.82923 89.00088 
L 17.573705 90.18768 
L 18.318181 90.43536 
L 19.807132 89.8884 
L 20.551607 88.7532 
L 21.296083 88.88736 
L 22.040558 89.75424 
L 22.785033 89.85744 
L 23.529509 91.4364 
L 24.273984 92.43744 
L 25.01846 92.79864 
L 25.762935 92.50968 
L 26.507411 91.2816 
L 27.251886 92.9328 
L 27.996362 92.60256 
L 29.485312 92.7264 
L 30.229788 96.21456 
L 30.974263 96.4932 
L 31.718739 97.74192 
L 32.463214 94.91424 
L 33.20769 96.96792 
L 33.952165 96.31776 
L 34.696641 95.16192 
L 35.441116 95.90496 
L 36.185592 95.52312 
L 36.930067 96.01848 
L 37.674542 96.17328 
L 39.163493 95.99784 
L 39.907969 95.616 
L 40.652444 96.05976 
L 41.39692 96.17328 
L 42.141395 93.46944 
L 42.885871 92.96376 
L 43.630346 93.32496 
L 44.374821 93.036 
L 45.119297 92.56128 
L 45.863772 92.96376 
L 46.608248 92.8812 
L 48.097199 92.96376 
L 48.841674 92.29296 
L 49.58615 92.262 
L 50.330625 92.3652 
L 51.0751 92.74704 
L 51.819576 92.5716 
L 53.308527 92.71608 
L 54.053002 86.97816 
L 54.797478 84.84192 
L 55.541953 81.24024 
L 56.286429 82.37544 
L 57.030904 82.60248 
L 57.775379 79.86768 
L 59.26433 81.85944 
L 60.008806 81.82848 
L 60.753281 82.86048 
L 61.497757 83.00496 
L 62.242232 82.08648 
L 62.986708 82.12776 
L 63.731183 81.61176 
L 64.475658 80.15664 
L 65.220134 82.18968 
L 66.709085 81.79752 
L 67.45356 81.56016 
L 68.198036 80.0844 
L 68.942511 79.86768 
L 69.686987 80.50752 
L 70.431462 82.12776 
L 71.920413 81.92136 
L 72.664888 80.8584 
L 73.409364 81.07512 
L 74.153839 80.84808 
L 74.898315 83.6448 
L 75.64279 82.7676 
L 76.387266 82.0968 
L 77.131741 82.3548 
L 77.876216 79.74384 
L 78.620692 77.90688 
L 79.365167 78.39192 
L 80.109643 80.21856 
L 80.854118 81.34344 
L 81.598594 81.98328 
L 83.087545 81.5808 
L 83.83202 82.26192 
L 85.320971 82.15872 
L 86.065446 83.88216 
L 86.809922 85.89456 
L 87.554397 86.5344 
L 88.298873 83.61384 
L 89.043348 83.2836 
L 89.787824 83.71704 
L 90.532299 83.748 
L 92.02125 83.41776 
L 92.765725 82.44768 
L 93.510201 82.6644 
L 94.254676 83.89248 
L 94.999152 81.38472 
L 95.743627 81.14736 
L 96.488103 82.34448 
L 97.232578 82.23096 
L 97.977054 81.426 
L 98.721529 81.8388 
L 99.466004 80.76552 
L 100.954955 75.83256 
L 101.699431 75.67776 
L 102.443906 75.91512 
L 103.932857 74.88312 
L 104.677333 73.09776 
L 105.421808 69.6096 
L 106.166283 67.91712 
L 106.910759 66.94704 
L 107.655234 66.24528 
L 108.39971 63.80976 
L 109.144185 63.70656 
L 109.888661 63.9852 
L 110.633136 65.71896 
L 111.377612 64.5528 
L 112.866562 64.05744 
L 113.611038 62.25144 
L 114.355513 63.39696 
L 115.099989 63.366 
L 115.844464 63.08736 
L 116.58894 64.72824 
L 117.333415 67.89648 
L 118.077891 69.16584 
L 118.822366 67.69008 
L 119.566841 64.4496 
L 120.311317 65.97696 
L 121.055792 64.914 
L 121.800268 61.54968 
L 122.544743 60.04296 
L 123.289219 56.28648 
L 124.033694 56.47224 
L 124.77817 56.83344 
L 125.522645 51.22968 
L 126.26712 48.89736 
L 127.011596 52.00368 
L 127.756071 53.84064 
L 128.500547 53.90256 
L 129.245022 53.00472 
L 129.989498 55.5228 
L 130.733973 59.12448 
L 131.478449 55.32672 
L 132.222924 56.90568 
L 132.9674 47.92728 
L 133.711875 48.75288 
L 134.45635 48.68064 
L 135.200826 54.57336 
L 135.945301 51.2916 
L 136.689777 52.80864 
L 137.434252 52.69512 
L 138.178728 54.82104 
L 139.667679 54.45984 
L 140.412154 55.7292 
L 141.156629 55.39896 
L 141.901105 53.55168 
L 142.64558 55.81176 
L 143.390056 55.6776 
L 144.134531 56.18328 
L 144.879007 55.71888 
L 146.367958 55.63632 
L 147.112433 55.07904 
L 147.856908 53.41752 
L 148.601384 49.71264 
L 149.345859 50.32152 
L 150.090335 51.17808 
L 150.83481 52.44744 
L 151.579286 52.74672 
L 152.323761 51.4464 
L 153.068237 51.46704 
L 153.812712 53.2524 
L 154.557187 53.08728 
L 155.301663 53.5104 
L 156.046138 57.26688 
L 156.790614 57.76224 
L 157.535089 58.02024 
L 158.279565 62.26176 
L 159.02404 59.68176 
L 159.768516 59.9604 
L 160.512991 58.12344 
L 161.257466 57.02952 
L 162.001942 58.09248 
L 162.746417 55.13064 
L 163.490893 53.046 
L 164.235368 52.5816 
L 164.979844 52.9944 
L 165.724319 52.5816 
L 166.468795 50.0016 
L 167.21327 53.48976 
L 167.957745 52.40616 
L 168.702221 54.75912 
L 169.446696 62.67456 
L 170.191172 63.95424 
L 170.935647 57.86544 
L 171.680123 56.57544 
L 172.424598 58.31952 
L 173.169074 60.4764 
L 173.913549 61.85928 
L 174.658024 62.73648 
L 175.4025 61.8696 
L 176.146975 60.45576 
L 176.891451 60.54864 
L 177.635926 62.04504 
L 178.380402 63.16992 
L 179.124877 62.36496 
L 179.869353 61.21944 
L 180.613828 60.9408 
L 181.358303 57.83448 
L 182.102779 58.40208 
L 182.847254 60.49704 
L 184.336205 63.1596 
L 185.080681 62.49912 
L 185.825156 62.1276 
L 186.569632 61.56 
L 188.058583 70.66224 
L 188.803058 68.72208 
L 189.547533 70.4868 
L 190.292009 68.61888 
L 191.036484 69.11424 
L 191.78096 66.5136 
L 192.525435 66.68904 
L 193.269911 68.8872 
L 194.014386 68.9904 
L 194.758862 71.5704 
L 195.503337 73.48992 
L 196.247812 72.54048 
L 197.736763 74.74896 
L 198.481239 73.3248 
L 199.225714 74.80056 
L 199.97019 77.556 
L 200.714665 78.55704 
L 201.459141 78.50544 
L 202.203616 78.04104 
L 202.948091 75.76032 
L 203.692567 75.73968 
L 204.437042 74.65608 
L 205.181518 74.83152 
L 205.925993 74.57352 
L 206.670469 75.20304 
L 207.414944 75.17208 
L 208.15942 78.05136 
L 209.64837 72.16896 
L 210.392846 73.08744 
L 211.137321 74.72832 
L 212.626272 74.28456 
L 213.370748 73.21128 
L 214.115223 70.2804 
L 214.859699 70.2288 
L 215.604174 71.56008 
L 216.348649 73.79952 
L 217.093125 73.35576 
L 217.8376 74.0988 
L 218.582076 75.5952 
L 219.326551 75.5952 
L 220.071027 77.61792 
L 220.815502 77.63856 
L 221.559978 75.40944 
L 222.304453 75.40944 
L 223.048928 75.04824 
L 223.793404 74.98632 
L 224.537879 75.58488 
L 225.282355 75.87384 
L 226.02683 76.49304 
L 227.515781 75.82224 
L 228.260257 75.84288 
L 229.004732 76.03896 
L 229.749207 75.51264 
L 230.493683 75.56424 
L 231.238158 75.05856 
L 231.982634 73.26288 
L 232.727109 73.20096 
L 233.471585 73.00488 
L 234.21606 71.68392 
L 234.960536 70.6932 
L 235.705011 72.62304 
L 236.449487 73.52088 
L 237.193962 73.83048 
L 237.938437 73.8408 
L 238.682913 73.29384 
L 239.427388 73.72728 
L 240.171864 70.32168 
L 240.916339 69.77472 
L 241.660815 70.34232 
L 242.40529 70.67256 
L 243.149766 70.51776 
L 243.894241 70.848 
L 244.638716 72.31344 
L 245.383192 76.01832 
L 246.127667 75.41976 
L 246.872143 75.83256 
L 248.361094 75.82224 
L 249.105569 77.82432 
L 249.850045 76.14216 
L 250.59452 74.75928 
L 251.338995 74.96568 
L 252.083471 77.75208 
L 252.827946 79.48584 
L 253.572422 83.31456 
L 254.316897 85.90488 
L 255.061373 84.79032 
L 255.689877 85.84296 
L 257.025599 91.41576 
L 257.766886 88.7532 
L 259.266711 88.55712 
L 260.015435 88.96992 
L 261.500163 90.456 
L 262.244415 90.56952 
L 262.979937 89.15568 
L 263.68513 88.9596 
L 264.477359 90.6624 
L 265.128318 89.94 
L 265.965129 90.00192 
L 267.448824 90.62112 
L 268.94173 90.3528 
L 269.688445 92.004 
L 270.370028 92.13816 
L 271.174717 91.25064 
L 271.915875 89.166 
L 272.658937 89.56848 
L 273.394641 90.93072 
L 274.15603 89.41368 
L 274.89282 90.37344 
L 275.639027 89.79552 
L 276.379332 90.23928 
L 277.12541 88.0824 
L 277.869533 88.7532 
L 278.608295 90.16704 
L 279.36 90.67272 
L 279.36 90.67272 
" clip-path="url(#p3d3ee47d4d)" style="fill: none; stroke: #4a8dff; stroke-width: 0.6"/>
   </g>
   <g id="line2d_7">
    <path d="M 8.64 87.45288 
L 9.384475 93.036 
L 10.128951 95.07936 
L 10.873426 90.9204 
L 11.617902 89.79552 
L 12.362377 92.6748 
L 13.106853 89.70264 
L 13.851328 89.2692 
L 14.595804 91.11648 
L 15.340279 89.59944 
L 16.084754 90.94104 
L 16.82923 86.76144 
L 17.573705 89.39304 
L 19.062656 89.8884 
L 19.807132 87.8244 
L 20.551607 86.2248 
L 21.296083 86.02872 
L 22.040558 86.60664 
L 22.785033 86.328 
L 23.529509 89.30016 
L 24.273984 91.04424 
L 25.01846 91.37448 
L 25.762935 91.20936 
L 26.507411 88.392 
L 27.251886 91.19904 
L 28.740837 89.82648 
L 29.485312 90.0948 
L 30.229788 95.6676 
L 30.974263 94.66656 
L 31.718739 97.61808 
L 32.463214 91.10616 
L 33.20769 94.23312 
L 33.952165 90.25992 
L 34.696641 88.31976 
L 35.441116 90.08448 
L 36.185592 89.13504 
L 36.930067 90.03288 
L 37.674542 89.56848 
L 38.419018 88.71192 
L 39.163493 89.22792 
L 39.907969 88.50552 
L 40.652444 88.55712 
L 41.39692 86.10096 
L 42.141395 79.75416 
L 42.885871 79.7232 
L 43.630346 79.44456 
L 44.374821 78.51576 
L 45.119297 78.64992 
L 45.863772 79.5168 
L 46.608248 78.24744 
L 47.352723 79.0524 
L 48.097199 79.07304 
L 48.841674 76.80264 
L 49.58615 76.35888 
L 50.330625 77.31864 
L 51.0751 78.98016 
L 51.819576 78.52608 
L 52.564051 76.35888 
L 53.308527 76.18344 
L 54.053002 69.90888 
L 54.797478 70.03272 
L 55.541953 68.29896 
L 56.286429 68.95944 
L 57.030904 70.11528 
L 57.775379 68.76336 
L 58.519855 69.37224 
L 59.26433 69.25872 
L 60.008806 69.41352 
L 60.753281 69.77472 
L 61.497757 66.85416 
L 62.242232 67.26696 
L 62.986708 66.06984 
L 63.731183 63.08736 
L 64.475658 61.12656 
L 65.220134 65.62608 
L 65.964609 64.98624 
L 66.709085 63.91296 
L 67.45356 63.38664 
L 68.198036 63.70656 
L 68.942511 64.97592 
L 69.686987 67.14312 
L 70.431462 68.9388 
L 71.175937 68.23704 
L 71.920413 67.1844 
L 72.664888 66.99864 
L 73.409364 67.47336 
L 74.153839 68.1132 
L 74.898315 71.38464 
L 75.64279 68.526 
L 76.387266 67.21536 
L 77.131741 67.20504 
L 77.876216 62.46816 
L 78.620692 62.51976 
L 79.365167 64.10904 
L 80.109643 66.90576 
L 80.854118 66.83352 
L 81.598594 67.42176 
L 82.343069 67.3392 
L 83.087545 65.8944 
L 83.83202 68.24736 
L 85.320971 68.23704 
L 86.065446 69.69216 
L 86.809922 71.50848 
L 87.554397 72.21024 
L 88.298873 67.3908 
L 89.043348 66.90576 
L 89.787824 65.59512 
L 90.532299 65.86344 
L 91.276775 65.76024 
L 92.02125 65.50224 
L 92.765725 64.398 
L 93.510201 65.70864 
L 94.254676 67.2876 
L 94.999152 63.95424 
L 95.743627 63.14928 
L 96.488103 64.76952 
L 97.232578 64.58376 
L 97.977054 63.55176 
L 98.721529 64.5012 
L 99.466004 63.82008 
L 100.21048 61.36392 
L 100.954955 56.64768 
L 101.699431 54.89328 
L 102.443906 55.04808 
L 103.188382 53.29368 
L 103.932857 52.55064 
L 104.677333 54.77976 
L 105.421808 53.67552 
L 106.166283 52.95312 
L 106.910759 54.45984 
L 107.655234 54.55272 
L 108.39971 55.22352 
L 109.144185 54.98616 
L 109.888661 52.4268 
L 110.633136 53.79936 
L 111.377612 54.08832 
L 112.122087 54.92424 
L 112.866562 54.4908 
L 113.611038 52.98408 
L 114.355513 54.44952 
L 115.099989 54.60432 
L 115.844464 54.62496 
L 117.333415 59.38248 
L 118.077891 60.09456 
L 118.822366 58.39176 
L 119.566841 57.41136 
L 120.311317 58.464 
L 121.055792 57.5352 
L 121.800268 55.0068 
L 122.544743 55.81176 
L 123.289219 55.99752 
L 124.033694 53.13888 
L 124.77817 53.64456 
L 125.522645 52.1688 
L 126.26712 48.69096 
L 127.011596 54.0264 
L 127.756071 55.13064 
L 128.500547 54.96552 
L 129.245022 54.92424 
L 129.989498 56.25552 
L 130.733973 59.8572 
L 131.478449 58.32984 
L 132.222924 60.23904 
L 132.9674 55.65696 
L 133.711875 57.18432 
L 134.45635 59.21736 
L 135.200826 62.55072 
L 135.945301 60.82728 
L 136.689777 61.47744 
L 137.434252 60.12552 
L 138.178728 64.31544 
L 138.923203 63.99552 
L 139.667679 64.5528 
L 140.412154 63.60336 
L 141.156629 61.5084 
L 141.901105 60.96144 
L 142.64558 61.98312 
L 143.390056 62.05536 
L 144.134531 62.51976 
L 145.623482 60.64152 
L 146.367958 61.13688 
L 147.112433 58.6188 
L 147.856908 57.03984 
L 148.601384 56.35872 
L 149.345859 56.5548 
L 150.090335 57.174 
L 150.83481 57.14304 
L 151.579286 55.7292 
L 152.323761 56.04912 
L 153.068237 55.33704 
L 153.812712 56.87472 
L 154.557187 56.8128 
L 155.301663 57.24624 
L 156.046138 59.93976 
L 156.790614 60.64152 
L 157.535089 59.29992 
L 158.279565 63.80976 
L 159.02404 63.03576 
L 159.768516 63.09768 
L 161.257466 58.27824 
L 162.001942 58.5672 
L 162.746417 53.93352 
L 163.490893 51.74568 
L 164.235368 50.04288 
L 164.979844 49.90872 
L 166.468795 47.43192 
L 167.21327 50.80656 
L 167.957745 48.90768 
L 168.702221 50.6208 
L 169.446696 59.42376 
L 170.191172 61.85928 
L 170.935647 57.35976 
L 171.680123 57.3288 
L 172.424598 59.46504 
L 173.913549 64.72824 
L 174.658024 66.42072 
L 175.4025 65.688 
L 176.146975 64.17096 
L 176.891451 62.10696 
L 177.635926 64.30512 
L 178.380402 65.20296 
L 179.124877 62.68488 
L 179.869353 61.70448 
L 180.613828 61.06464 
L 181.358303 58.1028 
L 182.102779 58.40208 
L 182.847254 59.68176 
L 183.59173 62.6952 
L 184.336205 64.56312 
L 185.080681 63.18024 
L 185.825156 62.72616 
L 186.569632 62.06568 
L 187.314107 66.33816 
L 188.058583 71.40528 
L 188.803058 69.08328 
L 189.547533 71.7252 
L 190.292009 69.57864 
L 191.036484 70.72416 
L 191.78096 68.2164 
L 192.525435 66.978 
L 193.269911 70.03272 
L 194.014386 71.5188 
L 194.758862 73.3764 
L 195.503337 78.846 
L 196.247812 77.75208 
L 196.992288 78.88728 
L 197.736763 81.34344 
L 198.481239 80.53848 
L 199.225714 82.0452 
L 199.97019 86.92656 
L 200.714665 88.58808 
L 201.459141 88.96992 
L 202.203616 86.7924 
L 202.948091 85.296 
L 203.692567 86.24544 
L 204.437042 82.96368 
L 205.181518 82.13808 
L 205.925993 82.47864 
L 206.670469 82.58184 
L 207.414944 83.03592 
L 208.15942 87.3084 
L 208.903895 82.06584 
L 209.64837 79.71288 
L 210.392846 81.24024 
L 211.137321 84.17112 
L 211.881797 84.24336 
L 212.626272 83.29392 
L 213.370748 82.8192 
L 214.115223 80.64168 
L 214.859699 81.38472 
L 215.604174 80.87904 
L 216.348649 83.13912 
L 217.093125 83.19072 
L 218.582076 87.17424 
L 219.326551 85.71912 
L 220.071027 87.53544 
L 220.815502 88.17528 
L 221.559978 85.41984 
L 223.048928 84.9348 
L 223.793404 85.01736 
L 224.537879 86.14224 
L 225.282355 85.90488 
L 226.02683 86.328 
L 226.771306 86.24544 
L 227.515781 85.72944 
L 228.260257 85.7088 
L 229.004732 86.40024 
L 229.749207 85.09992 
L 230.493683 86.02872 
L 231.982634 83.53128 
L 233.471585 82.03488 
L 234.21606 79.39296 
L 234.960536 79.66128 
L 235.705011 82.15872 
L 236.449487 82.43736 
L 237.193962 82.93272 
L 237.938437 83.00496 
L 239.427388 82.28256 
L 240.171864 78.01008 
L 240.916339 76.19376 
L 241.660815 77.66952 
L 242.40529 77.74176 
L 243.149766 78.1752 
L 244.638716 80.8068 
L 245.383192 85.20312 
L 246.127667 84.12984 
L 246.872143 84.03696 
L 247.616618 84.06792 
L 248.361094 84.3156 
L 249.105569 87.02976 
L 249.850045 85.21344 
L 250.59452 84.28464 
L 251.338995 84.32592 
L 252.083471 89.08344 
L 252.827946 89.5272 
L 253.572422 95.14128 
L 254.316897 96.98856 
L 255.061373 95.08968 
L 256.281502 99.80592 
L 257.025599 101.79768 
L 257.766886 100.03296 
L 258.528379 100.518 
L 259.266711 99.98136 
L 260.015435 100.49736 
L 262.244415 101.26104 
L 262.979937 100.63152 
L 263.68513 100.38384 
L 264.477359 100.84824 
L 265.128318 100.65216 
L 265.965129 101.034 
L 266.7087 101.19912 
L 268.94173 100.91016 
L 269.688445 101.7564 
L 270.370028 101.84928 
L 271.174717 101.56032 
L 271.915875 100.85856 
L 273.394641 101.4468 
L 274.15603 101.02368 
L 274.89282 101.30232 
L 275.639027 100.81728 
L 276.379332 100.79664 
L 277.12541 99.3312 
L 277.869533 99.92976 
L 278.608295 100.78632 
L 279.36 101.17848 
L 279.36 101.17848 
" clip-path="url(#p3d3ee47d4d)" style="fill: none; stroke: #f5841e; stroke-width: 0.6"/>
   </g>
  </g>
 </g>
 <defs>
  <clipPath id="p3d3ee47d4d">
   <rect x="8.64" y="4.8" width="270.72" height="103.2"/>
  </clipPath>
 </defs>
</svg>
