<?xml version="1.0" encoding="utf-8" standalone="no"?>
<!DOCTYPE svg PUBLIC "-//W3C//DTD SVG 1.1//EN"
  "http://www.w3.org/Graphics/SVG/1.1/DTD/svg11.dtd">
<svg xmlns:xlink="http://www.w3.org/1999/xlink" width="288pt" height="120pt" viewBox="0 0 288 120" xmlns="http://www.w3.org/2000/svg" version="1.1">
<desc id="nav-meta">{"window":"3m","count":4,"labels":["28.11","28.12","26.01","25.02"],"tick_utc":["2025-11-28T12:00:00Z","2025-12-28T12:00:00Z","2026-01-26T12:00:00Z","2026-02-25T03:27:12Z"],"w":720,"h":300}</desc>

 <metadata>
  <rdf:RDF xmlns:dc="http://purl.org/dc/elements/1.1/" xmlns:cc="http://creativecommons.org/ns#" xmlns:rdf="http://www.w3.org/1999/02/22-rdf-syntax-ns#">
   <cc:Work>
    <dc:type rdf:resource="http://purl.org/dc/dcmitype/StillImage"/>
    <dc:date>2026-02-25T19:37:47.838654</dc:date>
    <dc:format>image/svg+xml</dc:format>
    <dc:creator>
     <cc:Agent>
      <dc:title>Matplotlib v3.10.8, https://matplotlib.org/</dc:title>
     </cc:Agent>
    </dc:creator>
   </cc:Work>
  </rdf:RDF>
 </metadata>
 <defs>
  <style type="text/css">*{stroke-linejoin: round; stroke-linecap: butt}</style>
 </defs>
 <g id="figure_1">
  <g id="patch_1">
   <path d="M 0 120 
L 288 120 
L 288 0 
L 0 0 
L 0 120 
z
" style="fill: none; opacity: 0"/>
  </g>
  <g id="axes_1">
   <g id="patch_2">
    <path d="M 8.64 108 
L 279.36 108 
L 279.36 4.8 
L 8.64 4.8 
L 8.64 108 
z
" style="fill: none"/>
   </g>
   <g id="matplotlib.axis_1"/>
   <g id="matplotlib.axis_2"/>
   <g id="line2d_1">
    <path d="M 8.64 87.36 
L 279.36 87.36 
" clip-path="url(#p9f16b74999)" style="fill: none; stroke: #b2b2b2; stroke-opacity: 0.35; stroke-width: 0.5; stroke-linecap: square"/>
   </g>
   <g id="line2d_2">
    <path d="M 8.64 66.72 
L 279.36 66.72 
" clip-path="url(#p9f16b74999)" style="fill: none; stroke: #b2b2b2; stroke-opacity: 0.35; stroke-width: 0.5; stroke-linecap: square"/>
   </g>
   <g id="line2d_3">
    <path d="M 8.64 46.08 
L 279.36 46.08 
" clip-path="url(#p9f16b74999)" style="fill: none; stroke: #b2b2b2; stroke-opacity: 0.35; stroke-width: 0.5; stroke-linecap: square"/>
   </g>
   <g id="line2d_4">
    <path d="M 8.64 25.44 
L 279.36 25.44 
" clip-path="url(#p9f16b74999)" style="fill: none; stroke: #b2b2b2; stroke-opacity: 0.35; stroke-width: 0.5; stroke-linecap: square"/>
   </g>
   <g id="line2d_5">
    <path d="M 8.64 88.0308 
L 11.694018 88.94928 
L 14.748035 89.3208 
L 17.802053 89.7336 
L 20.856071 91.86984 
L 23.910088 88.60872 
L 26.964106 86.87496 
L 30.018123 88.52616 
L 33.072141 90.11544 
L 36.126159 90.38376 
L 39.180176 90.53856 
L 42.234194 90.08448 
L 45.288212 88.79448 
L 48.342229 89.20728 
L 51.396247 89.22792 
L 54.450265 90.31152 
L 57.504282 90.10512 
L 60.5583 91.09584 
L 63.612317 91.61184 
L 66.666335 91.31256 
L 69.720353 92.87088 
L 72.77437 93.8616 
L 75.828388 92.02464 
L 78.882406 92.13816 
L 81.936423 92.07624 
L 84.990441 92.14848 
L 88.044459 92.64384 
L 91.098476 93.01536 
L 94.152494 93.69648 
L 97.206511 93.11856 
L 100.260529 92.44776 
L 103.314547 92.30328 
L 106.368564 92.87088 
L 109.422582 92.38584 
L 112.4766 92.47872 
L 115.530617 91.88016 
L 118.584635 90.42504 
L 121.638653 90.08448 
L 124.69267 89.92968 
L 127.746688 88.76352 
L 130.800705 87.94824 
L 133.854723 89.2692 
L 136.908741 88.72224 
L 139.962758 89.39304 
L 143.016776 89.40336 
L 146.070794 88.41264 
L 149.124811 88.4952 
L 152.178829 86.86464 
L 155.232847 86.42088 
L 158.286864 87.62832 
L 161.340882 86.93688 
L 164.394899 87.23616 
L 167.448917 88.63968 
L 170.502935 90.0432 
L 173.556952 92.12784 
L 176.61097 91.16808 
L 179.664988 91.46736 
L 182.719005 91.73568 
L 185.773023 91.78728 
L 188.827041 94.0164 
L 191.881058 92.5716 
L 194.935076 91.76664 
L 197.989093 92.33424 
L 201.043111 94.36728 
L 204.097129 94.46016 
L 207.151146 97.71096 
L 210.205164 98.48496 
L 213.259182 97.85544 
L 215.837458 99.10416 
L 218.264448 100.16712 
L 221.31691 102.23112 
L 224.357849 100.54896 
L 227.481678 100.70376 
L 230.510493 100.68312 
L 233.581937 100.95144 
L 236.629627 101.28168 
L 239.672652 101.71512 
L 242.725751 101.84928 
L 245.743042 101.034 
L 248.635911 100.54896 
L 251.885824 101.04432 
L 254.556216 100.81728 
L 257.989017 101.034 
L 261.039323 101.4984 
L 264.07549 101.33328 
L 267.110844 101.1372 
L 270.19975 101.06496 
L 273.262958 102.09696 
L 276.058975 102.05568 
L 279.36 101.4984 
" clip-path="url(#p9f16b74999)" style="fill: none; stroke: #bebebe; stroke-width: 0.5; stroke-linecap: round"/>
   </g>
   <g id="line2d_6">
    <path d="M 8.64 74.83152 
L 11.694018 74.57352 
L 14.748035 75.20304 
L 17.802053 75.17208 
L 20.856071 78.05136 
L 23.910088 75.1308 
L 26.964106 72.16896 
L 30.018123 73.08744 
L 33.072141 74.72832 
L 36.126159 74.48064 
L 39.180176 74.28456 
L 42.234194 73.21128 
L 45.288212 70.2804 
L 48.342229 70.2288 
L 51.396247 71.56008 
L 54.450265 73.79952 
L 57.504282 73.35576 
L 60.5583 74.0988 
L 63.612317 75.5952 
L 66.666335 75.5952 
L 69.720353 77.61792 
L 72.77437 77.63856 
L 75.828388 75.40944 
L 78.882406 75.40944 
L 81.936423 75.04824 
L 84.990441 74.98632 
L 88.044459 75.58488 
L 91.098476 75.87384 
L 94.152494 76.49304 
L 97.206511 76.15248 
L 100.260529 75.82224 
L 103.314547 75.84288 
L 106.368564 76.03896 
L 109.422582 75.51264 
L 112.4766 75.56424 
L 115.530617 75.05856 
L 118.584635 73.26288 
L 121.638653 73.20096 
L 124.69267 73.00488 
L 127.746688 71.68392 
L 130.800705 70.6932 
L 133.854723 72.62304 
L 136.908741 73.52088 
L 139.962758 73.83048 
L 143.016776 73.8408 
L 146.070794 73.29384 
L 149.124811 73.72728 
L 152.178829 70.32168 
L 155.232847 69.77472 
L 158.286864 70.34232 
L 161.340882 70.67256 
L 164.394899 70.51776 
L 167.448917 70.848 
L 170.502935 72.31344 
L 173.556952 76.01832 
L 176.61097 75.41976 
L 179.664988 75.83256 
L 182.719005 75.79128 
L 185.773023 75.82224 
L 188.827041 77.82432 
L 191.881058 76.14216 
L 194.935076 74.75928 
L 197.989093 74.96568 
L 201.043111 77.75208 
L 204.097129 79.48584 
L 207.151146 83.31456 
L 210.205164 85.90488 
L 213.259182 84.79032 
L 215.837458 85.84296 
L 218.264448 88.25784 
L 221.31691 91.41576 
L 224.357849 88.7532 
L 227.481678 88.65 
L 230.510493 88.55712 
L 233.581937 88.96992 
L 236.629627 89.7336 
L 239.672652 90.456 
L 242.725751 90.56952 
L 245.743042 89.15568 
L 248.635911 88.9596 
L 251.885824 90.6624 
L 254.556216 89.94 
L 257.989017 90.00192 
L 261.039323 90.3528 
L 264.07549 90.62112 
L 267.110844 90.5076 
L 270.19975 90.3528 
L 273.262958 92.004 
L 276.058975 92.13816 
L 279.36 91.25064 
" clip-path="url(#p9f16b74999)" style="fill: none; stroke: #4a8dff; stroke-width: 0.6"/>
   </g>
   <g id="line2d_7">
    <path d="M 8.64 82.13808 
L 11.694018 82.47864 
L 14.748035 82.58184 
L 17.802053 83.03592 
L 20.856071 87.3084 
L 23.910088 82.06584 
L 26.964106 79.71288 
L 30.018123 81.24024 
L 33.072141 84.17112 
L 36.126159 84.24336 
L 39.180176 83.29392 
L 42.234194 82.8192 
L 45.288212 80.64168 
L 48.342229 81.38472 
L 51.396247 80.87904 
L 54.450265 83.13912 
L 57.504282 83.19072 
L 60.5583 85.296 
L 63.612317 87.17424 
L 66.666335 85.71912 
L 69.720353 87.53544 
L 72.77437 88.17528 
L 75.828388 85.41984 
L 78.882406 85.17216 
L 81.936423 84.9348 
L 84.990441 85.01736 
L 88.044459 86.14224 
L 91.098476 85.90488 
L 94.152494 86.328 
L 97.206511 86.24544 
L 100.260529 85.72944 
L 103.314547 85.7088 
L 106.368564 86.40024 
L 109.422582 85.09992 
L 112.4766 86.02872 
L 115.530617 84.78 
L 118.584635 83.53128 
L 121.638653 82.83984 
L 124.69267 82.03488 
L 127.746688 79.39296 
L 130.800705 79.66128 
L 133.854723 82.15872 
L 136.908741 82.43736 
L 139.962758 82.93272 
L 143.016776 83.00496 
L 146.070794 82.6128 
L 149.124811 82.28256 
L 152.178829 78.01008 
L 155.232847 76.19376 
L 158.286864 77.66952 
L 161.340882 77.74176 
L 164.394899 78.1752 
L 167.448917 79.5684 
L 170.502935 80.8068 
L 173.556952 85.20312 
L 176.61097 84.12984 
L 179.664988 84.03696 
L 182.719005 84.06792 
L 185.773023 84.3156 
L 188.827041 87.02976 
L 191.881058 85.21344 
L 194.935076 84.28464 
L 197.989093 84.32592 
L 201.043111 89.08344 
L 204.097129 89.5272 
L 207.151146 95.14128 
L 210.205164 96.98856 
L 213.259182 95.08968 
L 215.837458 97.71096 
L 218.264448 99.80592 
L 221.31691 101.79768 
L 224.357849 100.03296 
L 227.481678 100.518 
L 230.510493 99.98136 
L 233.581937 100.49736 
L 236.629627 100.78632 
L 239.672652 101.07528 
L 242.725751 101.26104 
L 245.743042 100.63152 
L 248.635911 100.38384 
L 251.885824 100.84824 
L 254.556216 100.65216 
L 257.989017 101.034 
L 261.039323 101.19912 
L 264.07549 101.10624 
L 267.110844 100.97208 
L 270.19975 100.91016 
L 273.262958 101.7564 
L 276.058975 101.84928 
L 279.36 101.56032 
" clip-path="url(#p9f16b74999)" style="fill: none; stroke: #f5841e; stroke-width: 0.6"/>
   </g>
  </g>
 </g>
 <defs>
  <clipPath id="p9f16b74999">
   <rect x="8.64" y="4.8" width="270.72" height="103.2"/>
  </clipPath>
 </defs>
</svg>
