<?xml version="1.0" encoding="utf-8" standalone="no"?>
<!DOCTYPE svg PUBLIC "-//W3C//DTD SVG 1.1//EN"
  "http://www.w3.org/Graphics/SVG/1.1/DTD/svg11.dtd">
<svg xmlns:xlink="http://www.w3.org/1999/xlink" width="288pt" height="120pt" viewBox="0 0 288 120" xmlns="http://www.w3.org/2000/svg" version="1.1">
<desc id="nav-meta">{"window":"3m","count":4,"labels":["22.11","22.12","20.01","19.02"],"tick_utc":["2025-11-22T12:00:00Z","2025-12-22T12:00:00Z","2026-01-20T12:00:00Z","2026-02-19T03:28:49Z"],"w":720,"h":300}</desc>

 <metadata>
  <rdf:RDF xmlns:dc="http://purl.org/dc/elements/1.1/" xmlns:cc="http://creativecommons.org/ns#" xmlns:rdf="http://www.w3.org/1999/02/22-rdf-syntax-ns#">
   <cc:Work>
    <dc:type rdf:resource="http://purl.org/dc/dcmitype/StillImage"/>
    <dc:date>2026-02-19T13:55:12.728046</dc:date>
    <dc:format>image/svg+xml</dc:format>
    <dc:creator>
     <cc:Agent>
      <dc:title>Matplotlib v3.10.8, https://matplotlib.org/</dc:title>
     </cc:Agent>
    </dc:creator>
   </cc:Work>
  </rdf:RDF>
 </metadata>
 <defs>
  <style type="text/css">*{stroke-linejoin: round; stroke-linecap: butt}</style>
 </defs>
 <g id="figure_1">
  <g id="patch_1">
   <path d="M 0 120 
L 288 120 
L 288 0 
L 0 0 
L 0 120 
z
" style="fill: none; opacity: 0"/>
  </g>
  <g id="axes_1">
   <g id="patch_2">
    <path d="M 8.64 108 
L 279.36 108 
L 279.36 4.8 
L 8.64 4.8 
L 8.64 108 
z
" style="fill: none"/>
   </g>
   <g id="matplotlib.axis_1"/>
   <g id="matplotlib.axis_2"/>
   <g id="line2d_1">
    <path d="M 8.64 87.36 
L 279.36 87.36 
" clip-path="url(#p84dc9c3fc5)" style="fill: none; stroke: #b2b2b2; stroke-opacity: 0.35; stroke-width: 0.5; stroke-linecap: square"/>
   </g>
   <g id="line2d_2">
    <path d="M 8.64 66.72 
L 279.36 66.72 
" clip-path="url(#p84dc9c3fc5)" style="fill: none; stroke: #b2b2b2; stroke-opacity: 0.35; stroke-width: 0.5; stroke-linecap: square"/>
   </g>
   <g id="line2d_3">
    <path d="M 8.64 46.08 
L 279.36 46.08 
" clip-path="url(#p84dc9c3fc5)" style="fill: none; stroke: #b2b2b2; stroke-opacity: 0.35; stroke-width: 0.5; stroke-linecap: square"/>
   </g>
   <g id="line2d_4">
    <path d="M 8.64 25.44 
L 279.36 25.44 
" clip-path="url(#p84dc9c3fc5)" style="fill: none; stroke: #b2b2b2; stroke-opacity: 0.35; stroke-width: 0.5; stroke-linecap: square"/>
   </g>
   <g id="line2d_5">
    <path d="M 8.64 91.39512 
L 11.693979 91.63248 
L 14.747958 90.75528 
L 17.801937 88.7016 
L 20.855916 88.52616 
L 23.909895 87.45288 
L 26.963874 88.0308 
L 30.017853 88.94928 
L 33.071832 89.3208 
L 36.125811 89.7336 
L 39.17979 91.86984 
L 42.233769 88.60872 
L 45.287747 86.87496 
L 48.341726 88.52616 
L 51.395705 90.11544 
L 54.449684 90.38376 
L 57.503663 90.53856 
L 60.557642 90.08448 
L 63.611621 88.79448 
L 66.6656 89.20728 
L 69.719579 89.22792 
L 72.773558 90.31152 
L 75.827537 90.10512 
L 78.881516 91.09584 
L 81.935495 91.61184 
L 84.989474 91.31256 
L 88.043453 92.87088 
L 91.097432 93.8616 
L 94.151411 92.02464 
L 97.20539 92.13816 
L 100.259369 92.07624 
L 103.313348 92.14848 
L 106.367327 92.64384 
L 109.421306 93.01536 
L 112.475285 93.69648 
L 115.529263 93.11856 
L 118.583242 92.44776 
L 121.637221 92.30328 
L 124.6912 92.87088 
L 127.745179 92.38584 
L 130.799158 92.47872 
L 133.853137 91.88016 
L 136.907116 90.42504 
L 139.961095 90.08448 
L 143.015074 89.92968 
L 146.069053 88.76352 
L 149.123032 87.94824 
L 152.177011 89.2692 
L 155.23099 88.72224 
L 158.284969 89.39304 
L 161.338948 89.40336 
L 164.392927 88.41264 
L 167.446906 88.4952 
L 170.500885 86.86464 
L 173.554864 86.42088 
L 176.608843 87.62832 
L 179.662822 86.93688 
L 182.716801 87.23616 
L 185.77078 88.63968 
L 188.824758 90.0432 
L 191.878737 92.12784 
L 194.932716 91.16808 
L 197.986695 91.46736 
L 201.040674 91.73568 
L 204.094653 91.78728 
L 207.148632 94.0164 
L 210.202611 92.5716 
L 213.25659 91.76664 
L 216.310569 92.33424 
L 219.364548 94.36728 
L 222.418527 94.46016 
L 225.472506 97.71096 
L 228.526485 98.48496 
L 231.580464 97.85544 
L 234.158708 99.10416 
L 236.585667 100.16712 
L 239.63809 102.23112 
L 242.678991 100.54896 
L 245.80278 100.70376 
L 248.831557 100.68312 
L 251.902962 100.95144 
L 254.950614 101.28168 
L 257.9936 101.71512 
L 261.04666 101.84928 
L 264.063913 101.034 
L 266.956745 100.54896 
L 270.206617 101.04432 
L 272.876975 100.81728 
L 276.309732 101.034 
L 279.36 101.4984 
" clip-path="url(#p84dc9c3fc5)" style="fill: none; stroke: #bebebe; stroke-width: 0.5; stroke-linecap: round"/>
   </g>
   <g id="line2d_6">
    <path d="M 8.64 78.55704 
L 11.693979 78.50544 
L 14.747958 78.04104 
L 17.801937 75.76032 
L 20.855916 75.73968 
L 23.909895 74.65608 
L 26.963874 74.83152 
L 30.017853 74.57352 
L 33.071832 75.20304 
L 36.125811 75.17208 
L 39.17979 78.05136 
L 42.233769 75.1308 
L 45.287747 72.16896 
L 48.341726 73.08744 
L 51.395705 74.72832 
L 54.449684 74.48064 
L 57.503663 74.28456 
L 60.557642 73.21128 
L 63.611621 70.2804 
L 66.6656 70.2288 
L 69.719579 71.56008 
L 72.773558 73.79952 
L 75.827537 73.35576 
L 78.881516 74.0988 
L 81.935495 75.5952 
L 84.989474 75.5952 
L 88.043453 77.61792 
L 91.097432 77.63856 
L 94.151411 75.40944 
L 97.20539 75.40944 
L 100.259369 75.04824 
L 103.313348 74.98632 
L 106.367327 75.58488 
L 109.421306 75.87384 
L 112.475285 76.49304 
L 115.529263 76.15248 
L 118.583242 75.82224 
L 121.637221 75.84288 
L 124.6912 76.03896 
L 127.745179 75.51264 
L 130.799158 75.56424 
L 133.853137 75.05856 
L 136.907116 73.26288 
L 139.961095 73.20096 
L 143.015074 73.00488 
L 146.069053 71.68392 
L 149.123032 70.6932 
L 152.177011 72.62304 
L 155.23099 73.52088 
L 158.284969 73.83048 
L 161.338948 73.8408 
L 164.392927 73.29384 
L 167.446906 73.72728 
L 170.500885 70.32168 
L 173.554864 69.77472 
L 176.608843 70.34232 
L 179.662822 70.67256 
L 182.716801 70.51776 
L 185.77078 70.848 
L 188.824758 72.31344 
L 191.878737 76.01832 
L 194.932716 75.41976 
L 197.986695 75.83256 
L 201.040674 75.79128 
L 204.094653 75.82224 
L 207.148632 77.82432 
L 210.202611 76.14216 
L 213.25659 74.75928 
L 216.310569 74.96568 
L 219.364548 77.75208 
L 222.418527 79.48584 
L 225.472506 83.31456 
L 228.526485 85.90488 
L 231.580464 84.79032 
L 234.158708 85.84296 
L 236.585667 88.25784 
L 239.63809 91.41576 
L 242.678991 88.7532 
L 245.80278 88.65 
L 248.831557 88.55712 
L 251.902962 88.96992 
L 254.950614 89.7336 
L 257.9936 90.456 
L 261.04666 90.56952 
L 264.063913 89.15568 
L 266.956745 88.9596 
L 270.206617 90.6624 
L 272.876975 89.94 
L 276.309732 90.00192 
L 279.36 90.3528 
" clip-path="url(#p84dc9c3fc5)" style="fill: none; stroke: #4a8dff; stroke-width: 0.6"/>
   </g>
   <g id="line2d_7">
    <path d="M 8.64 88.58808 
L 11.693979 88.96992 
L 14.747958 86.7924 
L 17.801937 85.296 
L 20.855916 86.24544 
L 23.909895 82.96368 
L 26.963874 82.13808 
L 30.017853 82.47864 
L 33.071832 82.58184 
L 36.125811 83.03592 
L 39.17979 87.3084 
L 42.233769 82.06584 
L 45.287747 79.71288 
L 48.341726 81.24024 
L 51.395705 84.17112 
L 54.449684 84.24336 
L 57.503663 83.29392 
L 60.557642 82.8192 
L 63.611621 80.64168 
L 66.6656 81.38472 
L 69.719579 80.87904 
L 72.773558 83.13912 
L 75.827537 83.19072 
L 78.881516 85.296 
L 81.935495 87.17424 
L 84.989474 85.71912 
L 88.043453 87.53544 
L 91.097432 88.17528 
L 94.151411 85.41984 
L 97.20539 85.17216 
L 100.259369 84.9348 
L 103.313348 85.01736 
L 106.367327 86.14224 
L 109.421306 85.90488 
L 112.475285 86.328 
L 115.529263 86.24544 
L 118.583242 85.72944 
L 121.637221 85.7088 
L 124.6912 86.40024 
L 127.745179 85.09992 
L 130.799158 86.02872 
L 133.853137 84.78 
L 136.907116 83.53128 
L 139.961095 82.83984 
L 143.015074 82.03488 
L 146.069053 79.39296 
L 149.123032 79.66128 
L 152.177011 82.15872 
L 155.23099 82.43736 
L 158.284969 82.93272 
L 161.338948 83.00496 
L 164.392927 82.6128 
L 167.446906 82.28256 
L 170.500885 78.01008 
L 173.554864 76.19376 
L 176.608843 77.66952 
L 179.662822 77.74176 
L 182.716801 78.1752 
L 185.77078 79.5684 
L 188.824758 80.8068 
L 191.878737 85.20312 
L 194.932716 84.12984 
L 197.986695 84.03696 
L 201.040674 84.06792 
L 204.094653 84.3156 
L 207.148632 87.02976 
L 210.202611 85.21344 
L 213.25659 84.28464 
L 216.310569 84.32592 
L 219.364548 89.08344 
L 222.418527 89.5272 
L 225.472506 95.14128 
L 228.526485 96.98856 
L 231.580464 95.08968 
L 234.158708 97.71096 
L 236.585667 99.80592 
L 239.63809 101.79768 
L 242.678991 100.03296 
L 245.80278 100.518 
L 248.831557 99.98136 
L 251.902962 100.49736 
L 254.950614 100.78632 
L 257.9936 101.07528 
L 261.04666 101.26104 
L 264.063913 100.63152 
L 266.956745 100.38384 
L 270.206617 100.84824 
L 272.876975 100.65216 
L 276.309732 101.034 
L 279.36 101.19912 
" clip-path="url(#p84dc9c3fc5)" style="fill: none; stroke: #f5841e; stroke-width: 0.6"/>
   </g>
  </g>
 </g>
 <defs>
  <clipPath id="p84dc9c3fc5">
   <rect x="8.64" y="4.8" width="270.72" height="103.2"/>
  </clipPath>
 </defs>
</svg>
