<?xml version="1.0" encoding="utf-8" standalone="no"?>
<!DOCTYPE svg PUBLIC "-//W3C//DTD SVG 1.1//EN"
  "http://www.w3.org/Graphics/SVG/1.1/DTD/svg11.dtd">
<svg xmlns:xlink="http://www.w3.org/1999/xlink" width="288pt" height="120pt" viewBox="0 0 288 120" xmlns="http://www.w3.org/2000/svg" version="1.1">
<desc id="nav-meta">{"window":"3m","count":4,"labels":["30.01","01.03","31.03","30.04"],"tick_utc":["2026-01-30T12:00:00Z","2026-03-01T03:33:48Z","2026-03-31T03:42:11Z","2026-04-30T04:23:32Z"],"w":720,"h":300}</desc>

 <metadata>
  <rdf:RDF xmlns:dc="http://purl.org/dc/elements/1.1/" xmlns:cc="http://creativecommons.org/ns#" xmlns:rdf="http://www.w3.org/1999/02/22-rdf-syntax-ns#">
   <cc:Work>
    <dc:type rdf:resource="http://purl.org/dc/dcmitype/StillImage"/>
    <dc:date>2026-04-30T09:01:18.992842</dc:date>
    <dc:format>image/svg+xml</dc:format>
    <dc:creator>
     <cc:Agent>
      <dc:title>Matplotlib v3.10.9, https://matplotlib.org/</dc:title>
     </cc:Agent>
    </dc:creator>
   </cc:Work>
  </rdf:RDF>
 </metadata>
 <defs>
  <style type="text/css">*{stroke-linejoin: round; stroke-linecap: butt}</style>
 </defs>
 <g id="figure_1">
  <g id="patch_1">
   <path d="M 0 120 
L 288 120 
L 288 0 
L 0 0 
L 0 120 
z
" style="fill: none; opacity: 0"/>
  </g>
  <g id="axes_1">
   <g id="patch_2">
    <path d="M 8.64 108 
L 279.36 108 
L 279.36 4.8 
L 8.64 4.8 
L 8.64 108 
z
" style="fill: none"/>
   </g>
   <g id="matplotlib.axis_1"/>
   <g id="matplotlib.axis_2"/>
   <g id="line2d_1">
    <path d="M 8.64 87.36 
L 279.36 87.36 
" clip-path="url(#p869d803ff2)" style="fill: none; stroke: #b2b2b2; stroke-opacity: 0.35; stroke-width: 0.5; stroke-linecap: square"/>
   </g>
   <g id="line2d_2">
    <path d="M 8.64 66.72 
L 279.36 66.72 
" clip-path="url(#p869d803ff2)" style="fill: none; stroke: #b2b2b2; stroke-opacity: 0.35; stroke-width: 0.5; stroke-linecap: square"/>
   </g>
   <g id="line2d_3">
    <path d="M 8.64 46.08 
L 279.36 46.08 
" clip-path="url(#p869d803ff2)" style="fill: none; stroke: #b2b2b2; stroke-opacity: 0.35; stroke-width: 0.5; stroke-linecap: square"/>
   </g>
   <g id="line2d_4">
    <path d="M 8.64 25.44 
L 279.36 25.44 
" clip-path="url(#p869d803ff2)" style="fill: none; stroke: #b2b2b2; stroke-opacity: 0.35; stroke-width: 0.5; stroke-linecap: square"/>
   </g>
   <g id="line2d_5">
    <path d="M 8.64 94.36728 
L 11.658632 94.46016 
L 14.677264 97.71096 
L 17.695896 98.48496 
L 20.714528 97.85544 
L 23.262931 99.10416 
L 25.6618 100.16712 
L 28.678895 102.23112 
L 31.6846 100.54896 
L 34.772234 100.70376 
L 37.765955 100.68312 
L 40.801812 100.95144 
L 43.81419 101.28168 
L 46.821956 101.71512 
L 49.83968 101.84928 
L 52.822011 101.034 
L 55.681362 100.54896 
L 58.893619 101.04432 
L 61.533071 100.81728 
L 64.926097 101.034 
L 67.94106 101.4984 
L 70.942049 101.33328 
L 73.942233 101.1372 
L 76.995349 101.06496 
L 80.023065 102.09696 
L 82.786685 102.05568 
L 86.049463 101.4984 
L 89.054644 100.60056 
L 92.067546 100.80696 
L 95.050611 101.45712 
L 98.137826 100.55928 
L 101.125294 101.10624 
L 104.150948 100.8792 
L 107.15267 100.74504 
L 110.177801 100.21872 
L 113.195 100.53864 
L 116.190469 101.07528 
L 119.238413 101.38488 
L 122.266094 101.26104 
L 125.265336 100.78632 
L 128.28278 100.91016 
L 131.313291 100.99272 
L 134.326088 100.38384 
L 137.340702 100.50768 
L 140.417086 100.60056 
L 143.444243 99.76464 
L 146.410049 99.49632 
L 149.451705 99.40344 
L 152.471176 100.09488 
L 155.460425 100.3632 
L 158.461378 100.19808 
L 161.52515 100.47672 
L 164.550874 100.79664 
L 167.541556 100.26 
L 170.785013 99.83688 
L 173.61554 100.13616 
L 176.63798 100.80696 
L 179.627753 101.38488 
L 182.687507 101.3436 
L 185.714769 101.292 
L 188.71436 101.28168 
L 191.758881 101.28168 
L 194.737753 101.8596 
L 197.759844 101.88024 
L 200.752622 101.72544 
L 203.816708 101.68416 
L 206.843131 101.47776 
L 209.842163 101.78736 
L 212.865686 101.09592 
L 215.873802 101.46744 
L 218.92021 101.3436 
L 221.892689 101.05464 
L 224.965475 101.3952 
L 227.999584 101.47776 
L 230.999 100.86888 
L 234.015326 101.26104 
L 237.047025 100.99272 
L 240.059508 100.61088 
L 243.044844 100.44576 
L 246.10334 100.94112 
L 249.129449 101.09592 
L 252.134839 101.00304 
L 255.144108 100.69344 
L 258.174968 100.9308 
L 261.201601 100.92048 
L 264.184212 100.81728 
L 267.249801 100.8792 
L 270.30096 100.64184 
L 273.325915 101.1888 
L 276.336302 101.09592 
L 279.36 101.37456 
" clip-path="url(#p869d803ff2)" style="fill: none; stroke: #bebebe; stroke-width: 0.5; stroke-linecap: round"/>
   </g>
   <g id="line2d_6">
    <path d="M 8.64 77.75208 
L 11.658632 79.48584 
L 14.677264 83.31456 
L 17.695896 85.90488 
L 20.714528 84.79032 
L 23.262931 85.84296 
L 25.6618 88.25784 
L 28.678895 91.41576 
L 31.6846 88.7532 
L 34.772234 88.65 
L 37.765955 88.55712 
L 40.801812 88.96992 
L 43.81419 89.7336 
L 46.821956 90.456 
L 49.83968 90.56952 
L 52.822011 89.15568 
L 55.681362 88.9596 
L 58.893619 90.6624 
L 61.533071 89.94 
L 64.926097 90.00192 
L 67.94106 90.3528 
L 70.942049 90.62112 
L 73.942233 90.5076 
L 76.995349 90.3528 
L 80.023065 92.004 
L 82.786685 92.13816 
L 86.049463 91.25064 
L 89.054644 89.166 
L 92.067546 89.56848 
L 95.050611 90.93072 
L 98.137826 89.41368 
L 101.125294 90.37344 
L 104.150948 89.79552 
L 107.15267 90.23928 
L 110.177801 88.0824 
L 113.195 88.7532 
L 116.190469 90.16704 
L 119.238413 90.67272 
L 122.266094 90.18768 
L 125.265336 89.2692 
L 128.28278 89.54784 
L 131.313291 89.49624 
L 134.326088 88.31976 
L 137.340702 88.45392 
L 140.417086 88.46424 
L 143.444243 86.38992 
L 146.410049 84.80064 
L 149.451705 84.8316 
L 152.471176 86.586 
L 155.460425 87.74184 
L 158.461378 87.618 
L 161.52515 88.19592 
L 164.550874 89.08344 
L 167.541556 87.89664 
L 170.785013 87.3084 
L 173.61554 87.65928 
L 176.63798 88.96992 
L 179.627753 90.07416 
L 182.687507 89.76456 
L 185.714769 89.3724 
L 188.71436 89.00088 
L 191.758881 88.42296 
L 194.737753 88.81512 
L 197.759844 89.10408 
L 200.752622 89.14536 
L 203.816708 89.07312 
L 206.843131 87.9792 
L 209.842163 88.29912 
L 212.865686 86.38992 
L 215.873802 87.24648 
L 218.92021 87.1536 
L 221.892689 86.21448 
L 224.965475 86.66856 
L 227.999584 87.01944 
L 230.999 84.44976 
L 234.015326 85.05864 
L 237.047025 84.58392 
L 240.059508 85.04832 
L 243.044844 83.71704 
L 246.10334 84.86256 
L 249.129449 85.6572 
L 252.134839 85.27536 
L 255.144108 84.49104 
L 258.174968 84.86256 
L 261.201601 85.32696 
L 264.184212 85.17216 
L 267.249801 85.31664 
L 270.30096 84.11952 
L 273.325915 85.66752 
L 276.336302 85.26504 
L 279.36 86.26608 
" clip-path="url(#p869d803ff2)" style="fill: none; stroke: #4a8dff; stroke-width: 0.6"/>
   </g>
   <g id="line2d_7">
    <path d="M 8.64 89.08344 
L 11.658632 89.5272 
L 14.677264 95.14128 
L 17.695896 96.98856 
L 20.714528 95.08968 
L 23.262931 97.71096 
L 25.6618 99.80592 
L 28.678895 101.79768 
L 31.6846 100.03296 
L 34.772234 100.518 
L 37.765955 99.98136 
L 40.801812 100.49736 
L 43.81419 100.78632 
L 46.821956 101.07528 
L 49.83968 101.26104 
L 52.822011 100.63152 
L 55.681362 100.38384 
L 58.893619 100.84824 
L 61.533071 100.65216 
L 64.926097 101.034 
L 67.94106 101.19912 
L 70.942049 101.10624 
L 73.942233 100.97208 
L 76.995349 100.91016 
L 80.023065 101.7564 
L 82.786685 101.84928 
L 86.049463 101.56032 
L 89.054644 100.85856 
L 92.067546 101.12688 
L 95.050611 101.4468 
L 98.137826 101.02368 
L 101.125294 101.30232 
L 104.150948 100.81728 
L 107.15267 100.79664 
L 110.177801 99.3312 
L 113.195 99.92976 
L 116.190469 100.78632 
L 119.238413 101.17848 
L 122.266094 101.1372 
L 125.265336 100.21872 
L 128.28278 100.37352 
L 131.313291 100.4664 
L 134.326088 99.88848 
L 137.340702 99.94008 
L 140.417086 99.81624 
L 143.444243 98.93904 
L 146.410049 98.3508 
L 149.451705 98.52624 
L 152.471176 99.78528 
L 155.460425 100.12584 
L 158.461378 100.03296 
L 161.52515 100.45608 
L 164.550874 100.83792 
L 167.541556 100.11552 
L 170.785013 99.87816 
L 173.61554 100.002 
L 176.63798 100.64184 
L 179.627753 101.41584 
L 182.687507 101.21976 
L 185.714769 101.14752 
L 188.71436 101.00304 
L 191.758881 100.86888 
L 194.737753 101.21976 
L 197.759844 101.28168 
L 200.752622 101.20944 
L 203.816708 101.14752 
L 206.843131 100.55928 
L 209.842163 100.65216 
L 212.865686 99.80592 
L 215.873802 99.96072 
L 218.92021 99.6408 
L 221.892689 99.1764 
L 224.965475 99.70272 
L 227.999584 99.94008 
L 230.999 98.57784 
L 234.015326 98.65008 
L 237.047025 98.38176 
L 240.059508 98.48496 
L 243.044844 96.70992 
L 246.10334 98.05152 
L 249.129449 98.48496 
L 252.134839 97.96896 
L 255.144108 96.32808 
L 258.174968 96.20424 
L 261.201601 96.16296 
L 264.184212 96.1836 
L 267.249801 96.50352 
L 270.30096 94.76976 
L 273.325915 97.19496 
L 276.336302 96.9576 
L 279.36 97.9896 
" clip-path="url(#p869d803ff2)" style="fill: none; stroke: #f5841e; stroke-width: 0.6"/>
   </g>
  </g>
 </g>
 <defs>
  <clipPath id="p869d803ff2">
   <rect x="8.64" y="4.8" width="270.72" height="103.2"/>
  </clipPath>
 </defs>
</svg>
