<?xml version="1.0" encoding="utf-8" standalone="no"?>
<!DOCTYPE svg PUBLIC "-//W3C//DTD SVG 1.1//EN"
  "http://www.w3.org/Graphics/SVG/1.1/DTD/svg11.dtd">
<svg xmlns:xlink="http://www.w3.org/1999/xlink" width="288pt" height="120pt" viewBox="0 0 288 120" xmlns="http://www.w3.org/2000/svg" version="1.1">
<desc id="nav-meta">{"window":"2w","count":4,"labels":["13.04","17.04","22.04","26.04"],"tick_utc":["2026-04-13T04:02:42Z","2026-04-17T03:55:44Z","2026-04-22T03:51:39Z","2026-04-26T04:06:31Z"],"w":720,"h":300}</desc>

 <metadata>
  <rdf:RDF xmlns:dc="http://purl.org/dc/elements/1.1/" xmlns:cc="http://creativecommons.org/ns#" xmlns:rdf="http://www.w3.org/1999/02/22-rdf-syntax-ns#">
   <cc:Work>
    <dc:type rdf:resource="http://purl.org/dc/dcmitype/StillImage"/>
    <dc:date>2026-04-26T08:07:07.248609</dc:date>
    <dc:format>image/svg+xml</dc:format>
    <dc:creator>
     <cc:Agent>
      <dc:title>Matplotlib v3.10.9, https://matplotlib.org/</dc:title>
     </cc:Agent>
    </dc:creator>
   </cc:Work>
  </rdf:RDF>
 </metadata>
 <defs>
  <style type="text/css">*{stroke-linejoin: round; stroke-linecap: butt}</style>
 </defs>
 <g id="figure_1">
  <g id="patch_1">
   <path d="M 0 120 
L 288 120 
L 288 0 
L 0 0 
L 0 120 
z
" style="fill: none; opacity: 0"/>
  </g>
  <g id="axes_1">
   <g id="patch_2">
    <path d="M 8.64 108 
L 279.36 108 
L 279.36 4.8 
L 8.64 4.8 
L 8.64 108 
z
" style="fill: none"/>
   </g>
   <g id="matplotlib.axis_1"/>
   <g id="matplotlib.axis_2"/>
   <g id="line2d_1">
    <path d="M 8.64 87.36 
L 279.36 87.36 
" clip-path="url(#pd2e9f871d0)" style="fill: none; stroke: #b2b2b2; stroke-opacity: 0.35; stroke-width: 0.5; stroke-linecap: square"/>
   </g>
   <g id="line2d_2">
    <path d="M 8.64 66.72 
L 279.36 66.72 
" clip-path="url(#pd2e9f871d0)" style="fill: none; stroke: #b2b2b2; stroke-opacity: 0.35; stroke-width: 0.5; stroke-linecap: square"/>
   </g>
   <g id="line2d_3">
    <path d="M 8.64 46.08 
L 279.36 46.08 
" clip-path="url(#pd2e9f871d0)" style="fill: none; stroke: #b2b2b2; stroke-opacity: 0.35; stroke-width: 0.5; stroke-linecap: square"/>
   </g>
   <g id="line2d_4">
    <path d="M 8.64 25.44 
L 279.36 25.44 
" clip-path="url(#pd2e9f871d0)" style="fill: none; stroke: #b2b2b2; stroke-opacity: 0.35; stroke-width: 0.5; stroke-linecap: square"/>
   </g>
   <g id="line2d_5">
    <path d="M 8.64 101.47776 
L 29.327833 100.86888 
L 50.132299 101.26104 
L 71.042795 100.99272 
L 91.820754 100.61088 
L 112.411474 100.44576 
L 133.506798 100.94112 
L 154.378738 101.09592 
L 175.107778 101.00304 
L 195.863567 100.69344 
L 216.768279 100.9308 
L 237.643833 100.92048 
L 258.215757 100.81728 
L 279.36 100.8792 
" clip-path="url(#pd2e9f871d0)" style="fill: none; stroke: #bebebe; stroke-width: 0.5; stroke-linecap: round"/>
   </g>
   <g id="line2d_6">
    <path d="M 8.64 87.01944 
L 29.327833 84.44976 
L 50.132299 85.05864 
L 71.042795 84.58392 
L 91.820754 85.04832 
L 112.411474 83.71704 
L 133.506798 84.86256 
L 154.378738 85.6572 
L 175.107778 85.27536 
L 195.863567 84.49104 
L 216.768279 84.86256 
L 237.643833 85.32696 
L 258.215757 85.17216 
L 279.36 85.31664 
" clip-path="url(#pd2e9f871d0)" style="fill: none; stroke: #4a8dff; stroke-width: 0.6"/>
   </g>
   <g id="line2d_7">
    <path d="M 8.64 99.94008 
L 29.327833 98.57784 
L 50.132299 98.65008 
L 71.042795 98.38176 
L 91.820754 98.48496 
L 112.411474 96.70992 
L 133.506798 98.05152 
L 154.378738 98.48496 
L 175.107778 97.96896 
L 195.863567 96.32808 
L 216.768279 96.20424 
L 237.643833 96.16296 
L 258.215757 96.1836 
L 279.36 96.50352 
" clip-path="url(#pd2e9f871d0)" style="fill: none; stroke: #f5841e; stroke-width: 0.6"/>
   </g>
  </g>
 </g>
 <defs>
  <clipPath id="pd2e9f871d0">
   <rect x="8.64" y="4.8" width="270.72" height="103.2"/>
  </clipPath>
 </defs>
</svg>
