<?xml version="1.0" encoding="utf-8" standalone="no"?>
<!DOCTYPE svg PUBLIC "-//W3C//DTD SVG 1.1//EN"
  "http://www.w3.org/Graphics/SVG/1.1/DTD/svg11.dtd">
<svg xmlns:xlink="http://www.w3.org/1999/xlink" width="288pt" height="120pt" viewBox="0 0 288 120" xmlns="http://www.w3.org/2000/svg" version="1.1">
<desc id="nav-meta">{"window":"3m","count":4,"labels":["28.03","27.04","26.05","25.06"],"tick_utc":["2026-03-28T03:27:32Z","2026-04-27T04:22:02Z","2026-05-26T04:48:34Z","2026-06-25T04:50:14Z"],"w":720,"h":300}</desc>

 <metadata>
  <rdf:RDF xmlns:dc="http://purl.org/dc/elements/1.1/" xmlns:cc="http://creativecommons.org/ns#" xmlns:rdf="http://www.w3.org/1999/02/22-rdf-syntax-ns#">
   <cc:Work>
    <dc:type rdf:resource="http://purl.org/dc/dcmitype/StillImage"/>
    <dc:date>2026-06-25T04:50:16.206281</dc:date>
    <dc:format>image/svg+xml</dc:format>
    <dc:creator>
     <cc:Agent>
      <dc:title>Matplotlib v3.11.0, https://matplotlib.org/</dc:title>
     </cc:Agent>
    </dc:creator>
   </cc:Work>
  </rdf:RDF>
 </metadata>
 <defs>
  <style type="text/css">*{stroke-linejoin: round; stroke-linecap: butt}</style>
 </defs>
 <g id="figure_1">
  <g id="patch_1">
   <path d="M 0 120 
L 288 120 
L 288 0 
L 0 0 
L 0 120 
z
" style="fill: none; opacity: 0"/>
  </g>
  <g id="axes_1">
   <g id="patch_2">
    <path d="M 8.64 108 
L 279.36 108 
L 279.36 4.8 
L 8.64 4.8 
L 8.64 108 
z
" style="fill: none"/>
   </g>
   <g id="matplotlib.axis_1"/>
   <g id="matplotlib.axis_2"/>
   <g id="line2d_1">
    <path d="M 8.64 87.36 
L 279.36 87.36 
" clip-path="url(#p3c9ad0094d)" style="fill: none; stroke: #b2b2b2; stroke-opacity: 0.35; stroke-width: 0.5; stroke-linecap: square"/>
   </g>
   <g id="line2d_2">
    <path d="M 8.64 66.72 
L 279.36 66.72 
" clip-path="url(#p3c9ad0094d)" style="fill: none; stroke: #b2b2b2; stroke-opacity: 0.35; stroke-width: 0.5; stroke-linecap: square"/>
   </g>
   <g id="line2d_3">
    <path d="M 8.64 46.08 
L 279.36 46.08 
" clip-path="url(#p3c9ad0094d)" style="fill: none; stroke: #b2b2b2; stroke-opacity: 0.35; stroke-width: 0.5; stroke-linecap: square"/>
   </g>
   <g id="line2d_4">
    <path d="M 8.64 25.44 
L 279.36 25.44 
" clip-path="url(#p3c9ad0094d)" style="fill: none; stroke: #b2b2b2; stroke-opacity: 0.35; stroke-width: 0.5; stroke-linecap: square"/>
   </g>
   <g id="line2d_5">
    <path d="M 8.64 101.38488 
L 11.721247 101.3436 
L 14.769773 101.292 
L 17.790435 101.28168 
L 20.856342 101.28168 
L 23.856139 101.8596 
L 26.899459 101.88024 
L 29.913259 101.72544 
L 32.998869 101.68416 
L 36.046551 101.47776 
L 39.066649 101.78736 
L 42.111411 101.09592 
L 45.140657 101.46744 
L 48.208464 101.3436 
L 51.201823 101.05464 
L 54.296193 101.3952 
L 57.351616 101.47776 
L 60.372101 100.86888 
L 63.409615 101.26104 
L 66.46261 100.99272 
L 69.496254 100.61088 
L 72.50256 100.44576 
L 75.582541 100.94112 
L 78.629906 101.09592 
L 81.656408 101.00304 
L 84.686815 100.69344 
L 87.738965 100.9308 
L 90.786858 100.92048 
L 93.790421 100.81728 
L 96.877543 100.8792 
L 99.950135 100.64184 
L 102.996339 101.1888 
L 106.027872 101.09592 
L 109.07281 101.37456 
L 112.145859 101.21976 
L 115.108116 101.20944 
L 118.209664 101.23008 
L 121.248445 100.92048 
L 124.221327 101.06496 
L 127.314712 100.70376 
L 130.355358 100.55928 
L 133.3446 100.53864 
L 136.395554 99.60984 
L 139.496645 99.72336 
L 142.560476 99.44472 
L 145.558092 99.25896 
L 148.612388 99.32088 
L 151.648847 100.22904 
L 154.703671 100.01232 
L 157.7047 100.43544 
L 160.789923 100.75536 
L 163.859278 101.02368 
L 166.877336 101.02368 
L 169.928043 101.17848 
L 172.98519 100.7244 
L 176.001735 100.75536 
L 178.999808 101.11656 
L 182.087775 100.91016 
L 185.167615 100.89984 
L 188.161396 101.1372 
L 191.23244 101.2404 
L 194.262565 101.6532 
L 197.304653 101.4984 
L 200.300651 101.48808 
L 203.402551 101.32296 
L 206.487351 101.51904 
L 209.497282 101.7048 
L 212.571316 102.54072 
L 215.600738 103.08768 
L 218.590508 103.36632 
L 221.583621 104.22288 
L 224.688792 103.85136 
L 227.742069 103.68624 
L 230.723888 103.43856 
L 233.795248 103.81008 
L 236.852922 103.72752 
L 239.904685 103.50048 
L 242.922286 103.5108 
L 245.984182 103.31472 
L 249.125065 102.95352 
L 252.182246 102.61296 
L 255.125258 102.6336 
L 258.150528 102.9948 
L 261.261962 103.28376 
L 264.18024 103.01544 
L 267.283336 102.69552 
L 270.412151 102.582 
L 273.270265 102.88128 
L 276.320973 103.15992 
L 279.36 103.36632 
" clip-path="url(#p3c9ad0094d)" style="fill: none; stroke: #bebebe; stroke-width: 0.5; stroke-linecap: round"/>
   </g>
   <g id="line2d_6">
    <path d="M 8.64 90.07416 
L 11.721247 89.76456 
L 14.769773 89.3724 
L 17.790435 89.00088 
L 20.856342 88.42296 
L 23.856139 88.81512 
L 26.899459 89.10408 
L 29.913259 89.14536 
L 32.998869 89.07312 
L 36.046551 87.9792 
L 39.066649 88.29912 
L 42.111411 86.38992 
L 45.140657 87.24648 
L 48.208464 87.1536 
L 51.201823 86.21448 
L 54.296193 86.66856 
L 57.351616 87.01944 
L 60.372101 84.44976 
L 63.409615 85.05864 
L 66.46261 84.58392 
L 69.496254 85.04832 
L 72.50256 83.71704 
L 75.582541 84.86256 
L 78.629906 85.6572 
L 81.656408 85.27536 
L 84.686815 84.49104 
L 87.738965 84.86256 
L 90.786858 85.32696 
L 93.790421 85.17216 
L 96.877543 85.31664 
L 99.950135 84.11952 
L 102.996339 85.66752 
L 106.027872 85.26504 
L 109.07281 86.26608 
L 112.145859 85.77072 
L 115.108116 85.38888 
L 118.209664 85.3992 
L 121.248445 84.09888 
L 124.221327 84.22272 
L 127.314712 84.34656 
L 130.355358 85.06896 
L 133.3446 85.7604 
L 136.395554 85.0896 
L 139.496645 85.01736 
L 142.560476 84.9348 
L 145.558092 85.296 
L 148.612388 85.35792 
L 151.648847 86.1732 
L 154.703671 85.92552 
L 157.7047 86.55504 
L 160.789923 87.13296 
L 163.859278 88.10304 
L 166.877336 87.9276 
L 169.928043 88.26816 
L 172.98519 87.78312 
L 176.001735 87.95856 
L 178.999808 88.94928 
L 182.087775 88.14432 
L 185.167615 88.33008 
L 188.161396 88.52616 
L 191.23244 88.86672 
L 194.262565 90.22896 
L 197.304653 89.82648 
L 200.300651 89.87808 
L 203.402551 89.46528 
L 206.487351 90.0432 
L 209.497282 89.96064 
L 212.571316 91.99368 
L 215.600738 93.05664 
L 218.590508 93.74808 
L 221.583621 97.02984 
L 224.688792 95.93592 
L 227.742069 95.07936 
L 230.723888 94.46016 
L 233.795248 95.47152 
L 236.852922 95.11032 
L 239.904685 94.82136 
L 242.922286 94.8936 
L 245.984182 94.70784 
L 249.125065 94.04736 
L 252.182246 93.40752 
L 255.125258 92.9844 
L 258.150528 93.93384 
L 261.261962 94.4292 
L 264.18024 94.19184 
L 267.283336 93.87192 
L 270.412151 93.81 
L 273.270265 94.03704 
L 276.320973 94.83168 
L 279.36 95.48184 
" clip-path="url(#p3c9ad0094d)" style="fill: none; stroke: #4a8dff; stroke-width: 0.6"/>
   </g>
   <g id="line2d_7">
    <path d="M 8.64 101.41584 
L 11.721247 101.21976 
L 14.769773 101.14752 
L 17.790435 101.00304 
L 20.856342 100.86888 
L 23.856139 101.21976 
L 26.899459 101.28168 
L 29.913259 101.20944 
L 32.998869 101.14752 
L 36.046551 100.55928 
L 39.066649 100.65216 
L 42.111411 99.80592 
L 45.140657 99.96072 
L 48.208464 99.6408 
L 51.201823 99.1764 
L 54.296193 99.70272 
L 57.351616 99.94008 
L 60.372101 98.57784 
L 63.409615 98.65008 
L 66.46261 98.38176 
L 69.496254 98.48496 
L 72.50256 96.70992 
L 75.582541 98.05152 
L 78.629906 98.48496 
L 81.656408 97.96896 
L 84.686815 96.32808 
L 87.738965 96.20424 
L 90.786858 96.16296 
L 93.790421 96.1836 
L 96.877543 96.50352 
L 99.950135 94.76976 
L 102.996339 97.19496 
L 106.027872 96.9576 
L 109.07281 97.9896 
L 112.145859 96.89568 
L 115.108116 95.45088 
L 118.209664 95.67792 
L 121.248445 93.43848 
L 124.221327 92.90184 
L 127.314712 92.25168 
L 130.355358 92.87088 
L 133.3446 94.2744 
L 136.395554 93.1392 
L 139.496645 92.97408 
L 142.560476 92.9844 
L 145.558092 92.60256 
L 148.612388 92.53032 
L 151.648847 94.54272 
L 154.703671 92.85024 
L 157.7047 94.82136 
L 160.789923 95.75016 
L 163.859278 96.97824 
L 166.877336 97.08144 
L 169.928043 97.23624 
L 172.98519 95.94624 
L 176.001735 96.30744 
L 178.999808 98.08248 
L 182.087775 97.2672 
L 185.167615 96.61704 
L 188.161396 97.23624 
L 191.23244 98.08248 
L 194.262565 99.18672 
L 197.304653 99.03192 
L 200.300651 99.1248 
L 203.402551 98.74296 
L 206.487351 99.09384 
L 209.497282 100.0536 
L 212.571316 101.23008 
L 215.600738 101.99376 
L 218.590508 102.08664 
L 221.583621 102.8916 
L 224.688792 102.45816 
L 227.742069 102.28272 
L 230.723888 102.10728 
L 233.795248 102.582 
L 236.852922 102.29304 
L 239.904685 102.08664 
L 242.922286 102.066 
L 245.984182 101.86992 
L 249.125065 101.48808 
L 252.182246 101.40552 
L 255.125258 101.4984 
L 258.150528 101.97312 
L 261.261962 102.26208 
L 264.18024 102.066 
L 267.283336 101.90088 
L 270.412151 101.90088 
L 273.270265 102.0144 
L 276.320973 102.25176 
L 279.36 102.6336 
" clip-path="url(#p3c9ad0094d)" style="fill: none; stroke: #f5841e; stroke-width: 0.6"/>
   </g>
  </g>
 </g>
 <defs>
  <clipPath id="p3c9ad0094d">
   <rect x="8.64" y="4.8" width="270.72" height="103.2"/>
  </clipPath>
 </defs>
</svg>
