<?xml version="1.0" encoding="utf-8" standalone="no"?>
<!DOCTYPE svg PUBLIC "-//W3C//DTD SVG 1.1//EN"
  "http://www.w3.org/Graphics/SVG/1.1/DTD/svg11.dtd">
<svg xmlns:xlink="http://www.w3.org/1999/xlink" width="288pt" height="120pt" viewBox="0 0 288 120" xmlns="http://www.w3.org/2000/svg" version="1.1">
<desc id="nav-meta">{"window":"3m","count":4,"labels":["24.12","23.01","21.02","23.03"],"tick_utc":["2025-12-24T12:00:00Z","2026-01-23T12:00:00Z","2026-02-21T03:11:36Z","2026-03-23T03:35:18Z"],"w":720,"h":300}</desc>

 <metadata>
  <rdf:RDF xmlns:dc="http://purl.org/dc/elements/1.1/" xmlns:cc="http://creativecommons.org/ns#" xmlns:rdf="http://www.w3.org/1999/02/22-rdf-syntax-ns#">
   <cc:Work>
    <dc:type rdf:resource="http://purl.org/dc/dcmitype/StillImage"/>
    <dc:date>2026-03-23T19:35:08.430510</dc:date>
    <dc:format>image/svg+xml</dc:format>
    <dc:creator>
     <cc:Agent>
      <dc:title>Matplotlib v3.10.8, https://matplotlib.org/</dc:title>
     </cc:Agent>
    </dc:creator>
   </cc:Work>
  </rdf:RDF>
 </metadata>
 <defs>
  <style type="text/css">*{stroke-linejoin: round; stroke-linecap: butt}</style>
 </defs>
 <g id="figure_1">
  <g id="patch_1">
   <path d="M 0 120 
L 288 120 
L 288 0 
L 0 0 
L 0 120 
z
" style="fill: none; opacity: 0"/>
  </g>
  <g id="axes_1">
   <g id="patch_2">
    <path d="M 8.64 108 
L 279.36 108 
L 279.36 4.8 
L 8.64 4.8 
L 8.64 108 
z
" style="fill: none"/>
   </g>
   <g id="matplotlib.axis_1"/>
   <g id="matplotlib.axis_2"/>
   <g id="line2d_1">
    <path d="M 8.64 87.36 
L 279.36 87.36 
" clip-path="url(#pabc7744584)" style="fill: none; stroke: #b2b2b2; stroke-opacity: 0.35; stroke-width: 0.5; stroke-linecap: square"/>
   </g>
   <g id="line2d_2">
    <path d="M 8.64 66.72 
L 279.36 66.72 
" clip-path="url(#pabc7744584)" style="fill: none; stroke: #b2b2b2; stroke-opacity: 0.35; stroke-width: 0.5; stroke-linecap: square"/>
   </g>
   <g id="line2d_3">
    <path d="M 8.64 46.08 
L 279.36 46.08 
" clip-path="url(#pabc7744584)" style="fill: none; stroke: #b2b2b2; stroke-opacity: 0.35; stroke-width: 0.5; stroke-linecap: square"/>
   </g>
   <g id="line2d_4">
    <path d="M 8.64 25.44 
L 279.36 25.44 
" clip-path="url(#pabc7744584)" style="fill: none; stroke: #b2b2b2; stroke-opacity: 0.35; stroke-width: 0.5; stroke-linecap: square"/>
   </g>
   <g id="line2d_5">
    <path d="M 8.64 92.64384 
L 11.693824 93.01536 
L 14.747648 93.69648 
L 17.801472 93.11856 
L 20.855295 92.44776 
L 23.909119 92.30328 
L 26.962943 92.87088 
L 30.016767 92.38584 
L 33.070591 92.47872 
L 36.124415 91.88016 
L 39.178239 90.42504 
L 42.232062 90.08448 
L 45.285886 89.92968 
L 48.33971 88.76352 
L 51.393534 87.94824 
L 54.447358 89.2692 
L 57.501182 88.72224 
L 60.555005 89.39304 
L 63.608829 89.40336 
L 66.662653 88.41264 
L 69.716477 88.4952 
L 72.770301 86.86464 
L 75.824125 86.42088 
L 78.877949 87.62832 
L 81.931772 86.93688 
L 84.985596 87.23616 
L 88.03942 88.63968 
L 91.093244 90.0432 
L 94.147068 92.12784 
L 97.200892 91.16808 
L 100.254716 91.46736 
L 103.308539 91.73568 
L 106.362363 91.78728 
L 109.416187 94.0164 
L 112.470011 92.5716 
L 115.523835 91.76664 
L 118.577659 92.33424 
L 121.631483 94.36728 
L 124.685306 94.46016 
L 127.73913 97.71096 
L 130.792954 98.48496 
L 133.846778 97.85544 
L 136.424891 99.10416 
L 138.851727 100.16712 
L 141.903995 102.23112 
L 144.944741 100.54896 
L 148.068372 100.70376 
L 151.096995 100.68312 
L 154.168244 100.95144 
L 157.215741 101.28168 
L 160.258572 101.71512 
L 163.311477 101.84928 
L 166.328577 101.034 
L 169.221263 100.54896 
L 172.470969 101.04432 
L 175.141192 100.81728 
L 178.573775 101.034 
L 181.623887 101.4984 
L 184.659862 101.33328 
L 187.695024 101.1372 
L 190.783733 101.06496 
L 193.846747 102.09696 
L 196.642586 102.05568 
L 199.943402 101.4984 
L 202.983618 100.60056 
L 206.031645 100.80696 
L 209.049488 101.45712 
L 212.172694 100.55928 
L 215.19499 101.10624 
L 218.255918 100.8792 
L 221.292635 100.74504 
L 224.353033 100.21872 
L 227.405408 100.53864 
L 230.435798 101.07528 
L 233.519276 101.38488 
L 236.582255 101.26104 
L 239.616462 100.78632 
L 242.669084 100.91016 
L 245.734925 100.99272 
L 248.782846 100.38384 
L 251.832606 100.50768 
L 254.944855 100.60056 
L 258.007303 99.76464 
L 261.007685 99.49632 
L 264.084801 99.40344 
L 267.139474 100.09488 
L 270.163572 100.3632 
L 273.199511 100.19808 
L 276.299001 100.47672 
L 279.36 100.79664 
" clip-path="url(#pabc7744584)" style="fill: none; stroke: #bebebe; stroke-width: 0.5; stroke-linecap: round"/>
   </g>
   <g id="line2d_6">
    <path d="M 8.64 75.58488 
L 11.693824 75.87384 
L 14.747648 76.49304 
L 17.801472 76.15248 
L 20.855295 75.82224 
L 23.909119 75.84288 
L 26.962943 76.03896 
L 30.016767 75.51264 
L 33.070591 75.56424 
L 36.124415 75.05856 
L 39.178239 73.26288 
L 42.232062 73.20096 
L 45.285886 73.00488 
L 48.33971 71.68392 
L 51.393534 70.6932 
L 54.447358 72.62304 
L 57.501182 73.52088 
L 60.555005 73.83048 
L 63.608829 73.8408 
L 66.662653 73.29384 
L 69.716477 73.72728 
L 72.770301 70.32168 
L 75.824125 69.77472 
L 78.877949 70.34232 
L 81.931772 70.67256 
L 84.985596 70.51776 
L 88.03942 70.848 
L 91.093244 72.31344 
L 94.147068 76.01832 
L 97.200892 75.41976 
L 100.254716 75.83256 
L 103.308539 75.79128 
L 106.362363 75.82224 
L 109.416187 77.82432 
L 112.470011 76.14216 
L 115.523835 74.75928 
L 118.577659 74.96568 
L 121.631483 77.75208 
L 124.685306 79.48584 
L 127.73913 83.31456 
L 130.792954 85.90488 
L 133.846778 84.79032 
L 136.424891 85.84296 
L 138.851727 88.25784 
L 141.903995 91.41576 
L 144.944741 88.7532 
L 148.068372 88.65 
L 151.096995 88.55712 
L 154.168244 88.96992 
L 157.215741 89.7336 
L 160.258572 90.456 
L 163.311477 90.56952 
L 166.328577 89.15568 
L 169.221263 88.9596 
L 172.470969 90.6624 
L 175.141192 89.94 
L 178.573775 90.00192 
L 181.623887 90.3528 
L 184.659862 90.62112 
L 187.695024 90.5076 
L 190.783733 90.3528 
L 193.846747 92.004 
L 196.642586 92.13816 
L 199.943402 91.25064 
L 202.983618 89.166 
L 206.031645 89.56848 
L 209.049488 90.93072 
L 212.172694 89.41368 
L 215.19499 90.37344 
L 218.255918 89.79552 
L 221.292635 90.23928 
L 224.353033 88.0824 
L 227.405408 88.7532 
L 230.435798 90.16704 
L 233.519276 90.67272 
L 236.582255 90.18768 
L 239.616462 89.2692 
L 242.669084 89.54784 
L 245.734925 89.49624 
L 248.782846 88.31976 
L 251.832606 88.45392 
L 254.944855 88.46424 
L 258.007303 86.38992 
L 261.007685 84.80064 
L 264.084801 84.8316 
L 267.139474 86.586 
L 270.163572 87.74184 
L 273.199511 87.618 
L 276.299001 88.19592 
L 279.36 89.08344 
" clip-path="url(#pabc7744584)" style="fill: none; stroke: #4a8dff; stroke-width: 0.6"/>
   </g>
   <g id="line2d_7">
    <path d="M 8.64 86.14224 
L 11.693824 85.90488 
L 14.747648 86.328 
L 17.801472 86.24544 
L 20.855295 85.72944 
L 23.909119 85.7088 
L 26.962943 86.40024 
L 30.016767 85.09992 
L 33.070591 86.02872 
L 36.124415 84.78 
L 39.178239 83.53128 
L 42.232062 82.83984 
L 45.285886 82.03488 
L 48.33971 79.39296 
L 51.393534 79.66128 
L 54.447358 82.15872 
L 57.501182 82.43736 
L 60.555005 82.93272 
L 63.608829 83.00496 
L 66.662653 82.6128 
L 69.716477 82.28256 
L 72.770301 78.01008 
L 75.824125 76.19376 
L 78.877949 77.66952 
L 81.931772 77.74176 
L 84.985596 78.1752 
L 88.03942 79.5684 
L 91.093244 80.8068 
L 94.147068 85.20312 
L 97.200892 84.12984 
L 100.254716 84.03696 
L 103.308539 84.06792 
L 106.362363 84.3156 
L 109.416187 87.02976 
L 112.470011 85.21344 
L 115.523835 84.28464 
L 118.577659 84.32592 
L 121.631483 89.08344 
L 124.685306 89.5272 
L 127.73913 95.14128 
L 130.792954 96.98856 
L 133.846778 95.08968 
L 136.424891 97.71096 
L 138.851727 99.80592 
L 141.903995 101.79768 
L 144.944741 100.03296 
L 148.068372 100.518 
L 151.096995 99.98136 
L 154.168244 100.49736 
L 157.215741 100.78632 
L 160.258572 101.07528 
L 163.311477 101.26104 
L 166.328577 100.63152 
L 169.221263 100.38384 
L 172.470969 100.84824 
L 175.141192 100.65216 
L 178.573775 101.034 
L 181.623887 101.19912 
L 184.659862 101.10624 
L 187.695024 100.97208 
L 190.783733 100.91016 
L 193.846747 101.7564 
L 196.642586 101.84928 
L 199.943402 101.56032 
L 202.983618 100.85856 
L 206.031645 101.12688 
L 209.049488 101.4468 
L 212.172694 101.02368 
L 215.19499 101.30232 
L 218.255918 100.81728 
L 221.292635 100.79664 
L 224.353033 99.3312 
L 227.405408 99.92976 
L 230.435798 100.78632 
L 233.519276 101.17848 
L 236.582255 101.1372 
L 239.616462 100.21872 
L 242.669084 100.37352 
L 245.734925 100.4664 
L 248.782846 99.88848 
L 251.832606 99.94008 
L 254.944855 99.81624 
L 258.007303 98.93904 
L 261.007685 98.3508 
L 264.084801 98.52624 
L 267.139474 99.78528 
L 270.163572 100.12584 
L 273.199511 100.03296 
L 276.299001 100.45608 
L 279.36 100.83792 
" clip-path="url(#pabc7744584)" style="fill: none; stroke: #f5841e; stroke-width: 0.6"/>
   </g>
  </g>
 </g>
 <defs>
  <clipPath id="pabc7744584">
   <rect x="8.64" y="4.8" width="270.72" height="103.2"/>
  </clipPath>
 </defs>
</svg>
