<?xml version="1.0" encoding="utf-8" standalone="no"?>
<!DOCTYPE svg PUBLIC "-//W3C//DTD SVG 1.1//EN"
  "http://www.w3.org/Graphics/SVG/1.1/DTD/svg11.dtd">
<svg xmlns:xlink="http://www.w3.org/1999/xlink" width="288pt" height="120pt" viewBox="0 0 288 120" xmlns="http://www.w3.org/2000/svg" version="1.1">
<desc id="nav-meta">{"window":"1y","count":4,"labels":["01.05","31.08","30.12","01.05"],"tick_utc":["2025-05-01T12:00:00Z","2025-08-31T12:00:00Z","2025-12-30T12:00:00Z","2026-05-01T04:39:16Z"],"w":720,"h":300}</desc>

 <metadata>
  <rdf:RDF xmlns:dc="http://purl.org/dc/elements/1.1/" xmlns:cc="http://creativecommons.org/ns#" xmlns:rdf="http://www.w3.org/1999/02/22-rdf-syntax-ns#">
   <cc:Work>
    <dc:type rdf:resource="http://purl.org/dc/dcmitype/StillImage"/>
    <dc:date>2026-05-01T04:39:18.393655</dc:date>
    <dc:format>image/svg+xml</dc:format>
    <dc:creator>
     <cc:Agent>
      <dc:title>Matplotlib v3.10.9, https://matplotlib.org/</dc:title>
     </cc:Agent>
    </dc:creator>
   </cc:Work>
  </rdf:RDF>
 </metadata>
 <defs>
  <style type="text/css">*{stroke-linejoin: round; stroke-linecap: butt}</style>
 </defs>
 <g id="figure_1">
  <g id="patch_1">
   <path d="M 0 120 
L 288 120 
L 288 0 
L 0 0 
L 0 120 
z
" style="fill: none; opacity: 0"/>
  </g>
  <g id="axes_1">
   <g id="patch_2">
    <path d="M 8.64 108 
L 279.36 108 
L 279.36 4.8 
L 8.64 4.8 
L 8.64 108 
z
" style="fill: none"/>
   </g>
   <g id="matplotlib.axis_1"/>
   <g id="matplotlib.axis_2"/>
   <g id="line2d_1">
    <path d="M 8.64 87.36 
L 279.36 87.36 
" clip-path="url(#p898d16b335)" style="fill: none; stroke: #b2b2b2; stroke-opacity: 0.35; stroke-width: 0.5; stroke-linecap: square"/>
   </g>
   <g id="line2d_2">
    <path d="M 8.64 66.72 
L 279.36 66.72 
" clip-path="url(#p898d16b335)" style="fill: none; stroke: #b2b2b2; stroke-opacity: 0.35; stroke-width: 0.5; stroke-linecap: square"/>
   </g>
   <g id="line2d_3">
    <path d="M 8.64 46.08 
L 279.36 46.08 
" clip-path="url(#p898d16b335)" style="fill: none; stroke: #b2b2b2; stroke-opacity: 0.35; stroke-width: 0.5; stroke-linecap: square"/>
   </g>
   <g id="line2d_4">
    <path d="M 8.64 25.44 
L 279.36 25.44 
" clip-path="url(#p898d16b335)" style="fill: none; stroke: #b2b2b2; stroke-opacity: 0.35; stroke-width: 0.5; stroke-linecap: square"/>
   </g>
   <g id="line2d_5">
    <path d="M 8.64 86.14224 
L 9.382321 85.31664 
L 10.124642 86.07 
L 10.866963 86.38992 
L 11.609284 87.16392 
L 12.351605 86.38992 
L 13.836248 86.28672 
L 14.578569 81.84912 
L 15.32089 79.32072 
L 16.063211 78.05136 
L 16.805532 79.26912 
L 17.547853 78.846 
L 18.290174 76.2144 
L 19.774816 80.394 
L 20.517137 80.66232 
L 21.259459 81.168 
L 22.00178 79.63032 
L 22.744101 80.95128 
L 23.486422 80.4972 
L 24.971064 77.43216 
L 25.713385 78.846 
L 26.455706 78.41256 
L 27.198027 78.64992 
L 27.940348 78.76344 
L 28.682669 78.25776 
L 29.424991 79.47552 
L 30.167312 80.92032 
L 30.909633 83.73768 
L 31.651954 83.6448 
L 32.394275 83.4384 
L 33.136596 83.61384 
L 33.878917 83.99568 
L 34.621238 84.55296 
L 35.363559 87.00912 
L 36.10588 85.98744 
L 36.848201 85.5024 
L 37.590523 84.8316 
L 38.332844 82.46832 
L 39.075165 81.426 
L 39.817486 82.5096 
L 40.559807 84.79032 
L 42.044449 86.95752 
L 42.78677 84.79032 
L 43.529091 85.13088 
L 44.271412 86.07 
L 45.013733 86.5344 
L 45.756055 86.31768 
L 47.240697 89.97096 
L 47.983018 90.48696 
L 48.725339 86.9472 
L 49.46766 86.66856 
L 50.209981 87.32904 
L 50.952302 88.53648 
L 51.694623 87.6696 
L 52.436944 85.30632 
L 53.179265 84.61488 
L 53.921587 84.17112 
L 54.663908 86.3796 
L 55.406229 84.92448 
L 56.14855 84.89352 
L 56.890871 86.13192 
L 57.633192 86.1732 
L 58.375513 84.99672 
L 59.117834 85.85328 
L 59.860155 85.01736 
L 60.602476 83.55192 
L 61.344797 81.7356 
L 62.087119 82.03488 
L 62.82944 82.65408 
L 64.314082 82.15872 
L 65.056403 81.70464 
L 65.798724 79.01112 
L 66.541045 78.39192 
L 67.283366 78.04104 
L 68.025687 78.16488 
L 68.768008 77.05032 
L 69.510329 72.82944 
L 70.252651 70.41456 
L 70.994972 74.69736 
L 71.737293 76.6272 
L 72.479614 75.63648 
L 73.221935 75.97704 
L 73.964256 74.976 
L 74.706577 76.49304 
L 75.448898 76.99872 
L 76.191219 77.90688 
L 76.93354 79.4652 
L 77.675862 82.02456 
L 78.418183 83.19072 
L 79.160504 82.27224 
L 79.902825 80.21856 
L 80.645146 81.67368 
L 81.387467 80.5488 
L 82.129788 78.588 
L 82.872109 78.19584 
L 83.61443 77.21544 
L 84.356751 76.524 
L 85.099072 78.68088 
L 85.841394 73.88208 
L 86.583715 71.364 
L 87.326036 73.8408 
L 88.068357 75.79128 
L 88.810678 74.65608 
L 89.552999 74.14008 
L 90.29532 76.50336 
L 91.037641 78.30936 
L 91.779962 75.3372 
L 92.522283 77.25672 
L 93.264604 71.78712 
L 94.006926 70.75512 
L 94.749247 70.24944 
L 95.491568 75.35784 
L 96.233889 72.95328 
L 96.97621 70.96152 
L 97.718531 67.87584 
L 98.460852 70.46616 
L 99.203173 71.11632 
L 99.945494 71.61168 
L 100.687815 72.7056 
L 101.430136 69.33096 
L 102.172458 68.9388 
L 102.914779 71.12664 
L 103.6571 70.90992 
L 104.399421 71.80776 
L 105.141742 70.074 
L 105.884063 68.01 
L 106.626384 67.10184 
L 107.368705 65.29584 
L 108.111026 64.01616 
L 108.853347 60.31128 
L 109.595668 60.19776 
L 110.33799 60.786 
L 111.080311 62.61264 
L 111.822632 61.74576 
L 112.564953 59.57856 
L 113.307274 58.86648 
L 114.049595 61.38456 
L 114.791916 61.07496 
L 115.534237 61.83864 
L 116.276558 66.29688 
L 117.018879 67.97904 
L 117.7612 68.69112 
L 118.503522 73.9956 
L 119.245843 70.45584 
L 119.988164 70.87896 
L 120.730485 68.91816 
L 121.472806 68.3196 
L 122.215127 69.47544 
L 123.699769 62.39592 
L 124.44209 62.81904 
L 125.184411 64.22256 
L 125.926732 64.05744 
L 126.669054 62.9532 
L 127.411375 66.14208 
L 128.153696 63.91296 
L 128.896017 66.17304 
L 129.638338 74.6148 
L 130.380659 77.78304 
L 131.12298 72.66432 
L 131.865301 69.69216 
L 132.607622 71.09568 
L 134.092264 76.06992 
L 134.834586 76.76136 
L 135.576907 75.25464 
L 136.319228 75.24432 
L 137.061549 74.63544 
L 137.80387 75.73968 
L 138.546191 77.31864 
L 139.288512 74.202 
L 140.030833 73.64472 
L 140.773154 73.48992 
L 141.515475 71.83872 
L 142.257796 72.17928 
L 143.000118 73.38672 
L 143.742439 73.43832 
L 144.48476 76.15248 
L 145.227081 75.3372 
L 145.969402 75.58488 
L 146.711723 75.35784 
L 147.454044 81.168 
L 148.196365 84.01632 
L 148.938686 82.06584 
L 149.681007 84.19176 
L 150.423328 82.27224 
L 151.16565 83.29392 
L 151.907971 81.62208 
L 152.650292 80.72424 
L 153.392613 84.33624 
L 154.134934 84.64584 
L 154.877255 86.844 
L 155.619576 88.52616 
L 156.361897 88.36104 
L 157.104218 88.93896 
L 157.846539 90.79656 
L 158.58886 88.09272 
L 159.331182 89.22792 
L 160.073503 90.00192 
L 160.815824 91.39512 
L 161.558145 91.63248 
L 162.300466 90.75528 
L 163.042787 88.7016 
L 163.785108 88.52616 
L 164.527429 87.45288 
L 165.26975 88.0308 
L 166.012071 88.94928 
L 167.496714 89.7336 
L 168.239035 91.86984 
L 168.981356 88.60872 
L 169.723677 86.87496 
L 171.208319 90.11544 
L 172.692961 90.53856 
L 173.435282 90.08448 
L 174.177603 88.79448 
L 174.919924 89.20728 
L 175.662246 89.22792 
L 176.404567 90.31152 
L 177.146888 90.10512 
L 177.889209 91.09584 
L 178.63153 91.61184 
L 179.373851 91.31256 
L 180.116172 92.87088 
L 180.858493 93.8616 
L 181.600814 92.02464 
L 182.343135 92.13816 
L 183.085456 92.07624 
L 183.827778 92.14848 
L 186.054741 93.69648 
L 187.539383 92.44776 
L 188.281704 92.30328 
L 189.024025 92.87088 
L 189.766346 92.38584 
L 190.508667 92.47872 
L 191.250988 91.88016 
L 191.99331 90.42504 
L 192.735631 90.08448 
L 193.477952 89.92968 
L 194.220273 88.76352 
L 194.962594 87.94824 
L 195.704915 89.2692 
L 196.447236 88.72224 
L 197.189557 89.39304 
L 197.931878 89.40336 
L 198.674199 88.41264 
L 199.41652 88.4952 
L 200.158842 86.86464 
L 200.901163 86.42088 
L 201.643484 87.62832 
L 202.385805 86.93688 
L 203.128126 87.23616 
L 204.612768 90.0432 
L 205.355089 92.12784 
L 206.09741 91.16808 
L 207.582052 91.73568 
L 208.324374 91.78728 
L 209.066695 94.0164 
L 209.809016 92.5716 
L 210.551337 91.76664 
L 211.293658 92.33424 
L 212.035979 94.36728 
L 212.7783 94.46016 
L 213.520621 97.71096 
L 214.262942 98.48496 
L 215.005263 97.85544 
L 216.221862 100.16712 
L 216.963805 102.23112 
L 217.702948 100.54896 
L 218.462237 100.70376 
L 219.198432 100.68312 
L 220.685772 101.28168 
L 221.425422 101.71512 
L 222.167519 101.84928 
L 222.900914 101.034 
L 223.604065 100.54896 
L 224.394001 101.04432 
L 225.043077 100.81728 
L 225.877467 101.034 
L 226.618885 101.4984 
L 228.845454 101.06496 
L 229.590008 102.09696 
L 230.269619 102.05568 
L 231.071979 101.4984 
L 231.810992 100.60056 
L 232.551904 100.80696 
L 233.285479 101.45712 
L 234.044665 100.55928 
L 234.779323 101.10624 
L 236.261533 100.74504 
L 237.005453 100.21872 
L 237.747421 100.53864 
L 238.484046 101.07528 
L 239.233576 101.38488 
L 239.978122 101.26104 
L 240.715675 100.78632 
L 242.202946 100.99272 
L 242.943832 100.38384 
L 244.441688 100.60056 
L 245.186106 99.76464 
L 245.915436 99.49632 
L 246.663419 99.40344 
L 247.405947 100.09488 
L 248.141042 100.3632 
L 248.879016 100.19808 
L 250.376503 100.79664 
L 251.11195 100.26 
L 251.909559 99.83688 
L 252.605622 100.13616 
L 254.084104 101.38488 
L 257.067307 101.28168 
L 257.799851 101.8596 
L 258.543023 101.88024 
L 259.278986 101.72544 
L 260.032485 101.68416 
L 260.776722 101.47776 
L 261.514223 101.78736 
L 262.257747 101.09592 
L 262.997482 101.46744 
L 263.746633 101.3436 
L 264.477605 101.05464 
L 265.233243 101.3952 
L 265.97937 101.47776 
L 266.716966 100.86888 
L 267.45872 101.26104 
L 269.679196 100.44576 
L 270.431321 100.94112 
L 271.17548 101.09592 
L 271.914545 101.00304 
L 272.654564 100.69344 
L 273.399892 100.9308 
L 275.631512 100.8792 
L 276.381832 100.64184 
L 277.125708 101.1888 
L 277.866001 101.09592 
L 278.609568 101.37456 
L 279.36 101.21976 
L 279.36 101.21976 
" clip-path="url(#p898d16b335)" style="fill: none; stroke: #bebebe; stroke-width: 0.5; stroke-linecap: round"/>
   </g>
   <g id="line2d_6">
    <path d="M 8.64 92.96376 
L 9.382321 92.29296 
L 10.124642 92.262 
L 10.866963 92.3652 
L 11.609284 92.74704 
L 12.351605 92.5716 
L 13.836248 92.71608 
L 14.578569 86.97816 
L 15.32089 84.84192 
L 16.063211 81.24024 
L 16.805532 82.37544 
L 17.547853 82.60248 
L 18.290174 79.86768 
L 19.774816 81.85944 
L 20.517137 81.82848 
L 21.259459 82.86048 
L 22.00178 83.00496 
L 22.744101 82.08648 
L 23.486422 82.12776 
L 24.228743 81.61176 
L 24.971064 80.15664 
L 25.713385 82.18968 
L 27.198027 81.79752 
L 27.940348 81.56016 
L 28.682669 80.0844 
L 29.424991 79.86768 
L 30.167312 80.50752 
L 30.909633 82.12776 
L 32.394275 81.92136 
L 33.136596 80.8584 
L 33.878917 81.07512 
L 34.621238 80.84808 
L 35.363559 83.6448 
L 36.10588 82.7676 
L 36.848201 82.0968 
L 37.590523 82.3548 
L 38.332844 79.74384 
L 39.075165 77.90688 
L 39.817486 78.39192 
L 40.559807 80.21856 
L 41.302128 81.34344 
L 42.044449 81.98328 
L 43.529091 81.5808 
L 44.271412 82.26192 
L 45.756055 82.15872 
L 46.498376 83.88216 
L 47.240697 85.89456 
L 47.983018 86.5344 
L 48.725339 83.61384 
L 49.46766 83.2836 
L 50.209981 83.71704 
L 50.952302 83.748 
L 52.436944 83.41776 
L 53.179265 82.44768 
L 53.921587 82.6644 
L 54.663908 83.89248 
L 55.406229 81.38472 
L 56.14855 81.14736 
L 56.890871 82.34448 
L 57.633192 82.23096 
L 58.375513 81.426 
L 59.117834 81.8388 
L 59.860155 80.76552 
L 61.344797 75.83256 
L 62.087119 75.67776 
L 62.82944 75.91512 
L 64.314082 74.88312 
L 65.056403 73.09776 
L 65.798724 69.6096 
L 66.541045 67.91712 
L 67.283366 66.94704 
L 68.025687 66.24528 
L 68.768008 63.80976 
L 69.510329 63.70656 
L 70.252651 63.9852 
L 70.994972 65.71896 
L 71.737293 64.5528 
L 73.221935 64.05744 
L 73.964256 62.25144 
L 74.706577 63.39696 
L 75.448898 63.366 
L 76.191219 63.08736 
L 76.93354 64.72824 
L 77.675862 67.89648 
L 78.418183 69.16584 
L 79.160504 67.69008 
L 79.902825 64.4496 
L 80.645146 65.97696 
L 81.387467 64.914 
L 82.129788 61.54968 
L 82.872109 60.04296 
L 83.61443 56.28648 
L 84.356751 56.47224 
L 85.099072 56.83344 
L 85.841394 51.22968 
L 86.583715 48.89736 
L 87.326036 52.00368 
L 88.068357 53.84064 
L 88.810678 53.90256 
L 89.552999 53.00472 
L 90.29532 55.5228 
L 91.037641 59.12448 
L 91.779962 55.32672 
L 92.522283 56.90568 
L 93.264604 47.92728 
L 94.006926 48.75288 
L 94.749247 48.68064 
L 95.491568 54.57336 
L 96.233889 51.2916 
L 96.97621 52.80864 
L 97.718531 52.69512 
L 98.460852 54.82104 
L 99.945494 54.45984 
L 100.687815 55.7292 
L 101.430136 55.39896 
L 102.172458 53.55168 
L 102.914779 55.81176 
L 103.6571 55.6776 
L 104.399421 56.18328 
L 105.141742 55.71888 
L 106.626384 55.63632 
L 107.368705 55.07904 
L 108.111026 53.41752 
L 108.853347 49.71264 
L 109.595668 50.32152 
L 110.33799 51.17808 
L 111.080311 52.44744 
L 111.822632 52.74672 
L 112.564953 51.4464 
L 113.307274 51.46704 
L 114.049595 53.2524 
L 114.791916 53.08728 
L 115.534237 53.5104 
L 116.276558 57.26688 
L 117.018879 57.76224 
L 117.7612 58.02024 
L 118.503522 62.26176 
L 119.245843 59.68176 
L 119.988164 59.9604 
L 120.730485 58.12344 
L 121.472806 57.02952 
L 122.215127 58.09248 
L 122.957448 55.13064 
L 123.699769 53.046 
L 124.44209 52.5816 
L 125.184411 52.9944 
L 125.926732 52.5816 
L 126.669054 50.0016 
L 127.411375 53.48976 
L 128.153696 52.40616 
L 128.896017 54.75912 
L 129.638338 62.67456 
L 130.380659 63.95424 
L 131.12298 57.86544 
L 131.865301 56.57544 
L 132.607622 58.31952 
L 133.349943 60.4764 
L 134.092264 61.85928 
L 134.834586 62.73648 
L 135.576907 61.8696 
L 136.319228 60.45576 
L 137.061549 60.54864 
L 137.80387 62.04504 
L 138.546191 63.16992 
L 139.288512 62.36496 
L 140.030833 61.21944 
L 140.773154 60.9408 
L 141.515475 57.83448 
L 142.257796 58.40208 
L 143.000118 60.49704 
L 144.48476 63.1596 
L 145.227081 62.49912 
L 145.969402 62.1276 
L 146.711723 61.56 
L 148.196365 70.66224 
L 148.938686 68.72208 
L 149.681007 70.4868 
L 150.423328 68.61888 
L 151.16565 69.11424 
L 151.907971 66.5136 
L 152.650292 66.68904 
L 153.392613 68.8872 
L 154.134934 68.9904 
L 154.877255 71.5704 
L 155.619576 73.48992 
L 156.361897 72.54048 
L 157.846539 74.74896 
L 158.58886 73.3248 
L 159.331182 74.80056 
L 160.073503 77.556 
L 160.815824 78.55704 
L 161.558145 78.50544 
L 162.300466 78.04104 
L 163.042787 75.76032 
L 163.785108 75.73968 
L 164.527429 74.65608 
L 165.26975 74.83152 
L 166.012071 74.57352 
L 166.754392 75.20304 
L 167.496714 75.17208 
L 168.239035 78.05136 
L 169.723677 72.16896 
L 170.465998 73.08744 
L 171.208319 74.72832 
L 172.692961 74.28456 
L 173.435282 73.21128 
L 174.177603 70.2804 
L 174.919924 70.2288 
L 175.662246 71.56008 
L 176.404567 73.79952 
L 177.146888 73.35576 
L 177.889209 74.0988 
L 178.63153 75.5952 
L 179.373851 75.5952 
L 180.116172 77.61792 
L 180.858493 77.63856 
L 181.600814 75.40944 
L 182.343135 75.40944 
L 183.085456 75.04824 
L 183.827778 74.98632 
L 184.570099 75.58488 
L 185.31242 75.87384 
L 186.054741 76.49304 
L 187.539383 75.82224 
L 188.281704 75.84288 
L 189.024025 76.03896 
L 189.766346 75.51264 
L 190.508667 75.56424 
L 191.250988 75.05856 
L 191.99331 73.26288 
L 192.735631 73.20096 
L 193.477952 73.00488 
L 194.220273 71.68392 
L 194.962594 70.6932 
L 195.704915 72.62304 
L 196.447236 73.52088 
L 197.189557 73.83048 
L 197.931878 73.8408 
L 198.674199 73.29384 
L 199.41652 73.72728 
L 200.158842 70.32168 
L 200.901163 69.77472 
L 201.643484 70.34232 
L 202.385805 70.67256 
L 203.128126 70.51776 
L 203.870447 70.848 
L 204.612768 72.31344 
L 205.355089 76.01832 
L 206.09741 75.41976 
L 206.839731 75.83256 
L 208.324374 75.82224 
L 209.066695 77.82432 
L 209.809016 76.14216 
L 210.551337 74.75928 
L 211.293658 74.96568 
L 212.035979 77.75208 
L 212.7783 79.48584 
L 213.520621 83.31456 
L 214.262942 85.90488 
L 215.005263 84.79032 
L 215.631949 85.84296 
L 216.963805 91.41576 
L 217.702948 88.7532 
L 219.198432 88.55712 
L 219.944989 88.96992 
L 221.425422 90.456 
L 222.167519 90.56952 
L 222.900914 89.15568 
L 223.604065 88.9596 
L 224.394001 90.6624 
L 225.043077 89.94 
L 225.877467 90.00192 
L 227.356868 90.62112 
L 228.845454 90.3528 
L 229.590008 92.004 
L 230.269619 92.13816 
L 231.071979 91.25064 
L 231.810992 89.166 
L 232.551904 89.56848 
L 233.285479 90.93072 
L 234.044665 89.41368 
L 234.779323 90.37344 
L 235.523371 89.79552 
L 236.261533 90.23928 
L 237.005453 88.0824 
L 237.747421 88.7532 
L 238.484046 90.16704 
L 239.233576 90.67272 
L 239.978122 90.18768 
L 240.715675 89.2692 
L 241.457704 89.54784 
L 242.202946 89.49624 
L 242.943832 88.31976 
L 243.685165 88.45392 
L 244.441688 88.46424 
L 245.186106 86.38992 
L 245.915436 84.80064 
L 246.663419 84.8316 
L 247.405947 86.586 
L 248.141042 87.74184 
L 248.879016 87.618 
L 249.632437 88.19592 
L 250.376503 89.08344 
L 251.11195 87.89664 
L 251.909559 87.3084 
L 252.605622 87.65928 
L 254.084104 90.07416 
L 255.580981 89.3724 
L 256.31862 89.00088 
L 257.067307 88.42296 
L 258.543023 89.10408 
L 259.278986 89.14536 
L 260.032485 89.07312 
L 260.776722 87.9792 
L 261.514223 88.29912 
L 262.257747 86.38992 
L 262.997482 87.24648 
L 263.746633 87.1536 
L 264.477605 86.21448 
L 265.97937 87.01944 
L 266.716966 84.44976 
L 267.45872 85.05864 
L 268.204254 84.58392 
L 268.945063 85.04832 
L 269.679196 83.71704 
L 270.431321 84.86256 
L 271.17548 85.6572 
L 271.914545 85.27536 
L 272.654564 84.49104 
L 274.144181 85.32696 
L 274.877644 85.17216 
L 275.631512 85.31664 
L 276.381832 84.11952 
L 277.125708 85.66752 
L 277.866001 85.26504 
L 278.609568 86.26608 
L 279.36 85.77072 
L 279.36 85.77072 
" clip-path="url(#p898d16b335)" style="fill: none; stroke: #4a8dff; stroke-width: 0.6"/>
   </g>
   <g id="line2d_7">
    <path d="M 8.64 79.07304 
L 9.382321 76.80264 
L 10.124642 76.35888 
L 10.866963 77.31864 
L 11.609284 78.98016 
L 12.351605 78.52608 
L 13.093927 76.35888 
L 13.836248 76.18344 
L 14.578569 69.90888 
L 15.32089 70.03272 
L 16.063211 68.29896 
L 16.805532 68.95944 
L 17.547853 70.11528 
L 18.290174 68.76336 
L 19.032495 69.37224 
L 19.774816 69.25872 
L 20.517137 69.41352 
L 21.259459 69.77472 
L 22.00178 66.85416 
L 22.744101 67.26696 
L 23.486422 66.06984 
L 24.228743 63.08736 
L 24.971064 61.12656 
L 25.713385 65.62608 
L 26.455706 64.98624 
L 27.198027 63.91296 
L 27.940348 63.38664 
L 28.682669 63.70656 
L 29.424991 64.97592 
L 30.167312 67.14312 
L 30.909633 68.9388 
L 31.651954 68.23704 
L 32.394275 67.1844 
L 33.136596 66.99864 
L 33.878917 67.47336 
L 34.621238 68.1132 
L 35.363559 71.38464 
L 36.10588 68.526 
L 36.848201 67.21536 
L 37.590523 67.20504 
L 38.332844 62.46816 
L 39.075165 62.51976 
L 39.817486 64.10904 
L 40.559807 66.90576 
L 41.302128 66.83352 
L 42.044449 67.42176 
L 42.78677 67.3392 
L 43.529091 65.8944 
L 44.271412 68.24736 
L 45.756055 68.23704 
L 46.498376 69.69216 
L 47.240697 71.50848 
L 47.983018 72.21024 
L 48.725339 67.3908 
L 49.46766 66.90576 
L 50.209981 65.59512 
L 50.952302 65.86344 
L 51.694623 65.76024 
L 52.436944 65.50224 
L 53.179265 64.398 
L 53.921587 65.70864 
L 54.663908 67.2876 
L 55.406229 63.95424 
L 56.14855 63.14928 
L 56.890871 64.76952 
L 57.633192 64.58376 
L 58.375513 63.55176 
L 59.117834 64.5012 
L 59.860155 63.82008 
L 60.602476 61.36392 
L 61.344797 56.64768 
L 62.087119 54.89328 
L 62.82944 55.04808 
L 63.571761 53.29368 
L 64.314082 52.55064 
L 65.056403 54.77976 
L 65.798724 53.67552 
L 66.541045 52.95312 
L 67.283366 54.45984 
L 68.025687 54.55272 
L 68.768008 55.22352 
L 69.510329 54.98616 
L 70.252651 52.4268 
L 70.994972 53.79936 
L 71.737293 54.08832 
L 72.479614 54.92424 
L 73.221935 54.4908 
L 73.964256 52.98408 
L 74.706577 54.44952 
L 75.448898 54.60432 
L 76.191219 54.62496 
L 77.675862 59.38248 
L 78.418183 60.09456 
L 79.160504 58.39176 
L 79.902825 57.41136 
L 80.645146 58.464 
L 81.387467 57.5352 
L 82.129788 55.0068 
L 82.872109 55.81176 
L 83.61443 55.99752 
L 84.356751 53.13888 
L 85.099072 53.64456 
L 85.841394 52.1688 
L 86.583715 48.69096 
L 87.326036 54.0264 
L 88.068357 55.13064 
L 88.810678 54.96552 
L 89.552999 54.92424 
L 90.29532 56.25552 
L 91.037641 59.8572 
L 91.779962 58.32984 
L 92.522283 60.23904 
L 93.264604 55.65696 
L 94.006926 57.18432 
L 94.749247 59.21736 
L 95.491568 62.55072 
L 96.233889 60.82728 
L 96.97621 61.47744 
L 97.718531 60.12552 
L 98.460852 64.31544 
L 99.203173 63.99552 
L 99.945494 64.5528 
L 100.687815 63.60336 
L 101.430136 61.5084 
L 102.172458 60.96144 
L 102.914779 61.98312 
L 103.6571 62.05536 
L 104.399421 62.51976 
L 105.884063 60.64152 
L 106.626384 61.13688 
L 107.368705 58.6188 
L 108.111026 57.03984 
L 108.853347 56.35872 
L 109.595668 56.5548 
L 110.33799 57.174 
L 111.080311 57.14304 
L 111.822632 55.7292 
L 112.564953 56.04912 
L 113.307274 55.33704 
L 114.049595 56.87472 
L 114.791916 56.8128 
L 115.534237 57.24624 
L 116.276558 59.93976 
L 117.018879 60.64152 
L 117.7612 59.29992 
L 118.503522 63.80976 
L 119.245843 63.03576 
L 119.988164 63.09768 
L 121.472806 58.27824 
L 122.215127 58.5672 
L 122.957448 53.93352 
L 123.699769 51.74568 
L 124.44209 50.04288 
L 125.184411 49.90872 
L 126.669054 47.43192 
L 127.411375 50.80656 
L 128.153696 48.90768 
L 128.896017 50.6208 
L 129.638338 59.42376 
L 130.380659 61.85928 
L 131.12298 57.35976 
L 131.865301 57.3288 
L 132.607622 59.46504 
L 134.092264 64.72824 
L 134.834586 66.42072 
L 135.576907 65.688 
L 136.319228 64.17096 
L 137.061549 62.10696 
L 137.80387 64.30512 
L 138.546191 65.20296 
L 139.288512 62.68488 
L 140.030833 61.70448 
L 140.773154 61.06464 
L 141.515475 58.1028 
L 142.257796 58.40208 
L 143.000118 59.68176 
L 143.742439 62.6952 
L 144.48476 64.56312 
L 145.227081 63.18024 
L 145.969402 62.72616 
L 146.711723 62.06568 
L 147.454044 66.33816 
L 148.196365 71.40528 
L 148.938686 69.08328 
L 149.681007 71.7252 
L 150.423328 69.57864 
L 151.16565 70.72416 
L 151.907971 68.2164 
L 152.650292 66.978 
L 153.392613 70.03272 
L 154.134934 71.5188 
L 154.877255 73.3764 
L 155.619576 78.846 
L 156.361897 77.75208 
L 157.104218 78.88728 
L 157.846539 81.34344 
L 158.58886 80.53848 
L 159.331182 82.0452 
L 160.073503 86.92656 
L 160.815824 88.58808 
L 161.558145 88.96992 
L 162.300466 86.7924 
L 163.042787 85.296 
L 163.785108 86.24544 
L 164.527429 82.96368 
L 165.26975 82.13808 
L 166.012071 82.47864 
L 166.754392 82.58184 
L 167.496714 83.03592 
L 168.239035 87.3084 
L 168.981356 82.06584 
L 169.723677 79.71288 
L 170.465998 81.24024 
L 171.208319 84.17112 
L 171.95064 84.24336 
L 172.692961 83.29392 
L 173.435282 82.8192 
L 174.177603 80.64168 
L 174.919924 81.38472 
L 175.662246 80.87904 
L 176.404567 83.13912 
L 177.146888 83.19072 
L 178.63153 87.17424 
L 179.373851 85.71912 
L 180.116172 87.53544 
L 180.858493 88.17528 
L 181.600814 85.41984 
L 183.085456 84.9348 
L 183.827778 85.01736 
L 184.570099 86.14224 
L 185.31242 85.90488 
L 186.054741 86.328 
L 186.797062 86.24544 
L 187.539383 85.72944 
L 188.281704 85.7088 
L 189.024025 86.40024 
L 189.766346 85.09992 
L 190.508667 86.02872 
L 191.99331 83.53128 
L 193.477952 82.03488 
L 194.220273 79.39296 
L 194.962594 79.66128 
L 195.704915 82.15872 
L 196.447236 82.43736 
L 197.189557 82.93272 
L 197.931878 83.00496 
L 199.41652 82.28256 
L 200.158842 78.01008 
L 200.901163 76.19376 
L 201.643484 77.66952 
L 202.385805 77.74176 
L 203.128126 78.1752 
L 204.612768 80.8068 
L 205.355089 85.20312 
L 206.09741 84.12984 
L 206.839731 84.03696 
L 207.582052 84.06792 
L 208.324374 84.3156 
L 209.066695 87.02976 
L 209.809016 85.21344 
L 210.551337 84.28464 
L 211.293658 84.32592 
L 212.035979 89.08344 
L 212.7783 89.5272 
L 213.520621 95.14128 
L 214.262942 96.98856 
L 215.005263 95.08968 
L 216.221862 99.80592 
L 216.963805 101.79768 
L 217.702948 100.03296 
L 218.462237 100.518 
L 219.198432 99.98136 
L 219.944989 100.49736 
L 222.167519 101.26104 
L 222.900914 100.63152 
L 223.604065 100.38384 
L 224.394001 100.84824 
L 225.043077 100.65216 
L 225.877467 101.034 
L 226.618885 101.19912 
L 228.845454 100.91016 
L 229.590008 101.7564 
L 230.269619 101.84928 
L 231.071979 101.56032 
L 231.810992 100.85856 
L 233.285479 101.4468 
L 234.044665 101.02368 
L 234.779323 101.30232 
L 235.523371 100.81728 
L 236.261533 100.79664 
L 237.005453 99.3312 
L 237.747421 99.92976 
L 238.484046 100.78632 
L 239.233576 101.17848 
L 239.978122 101.1372 
L 240.715675 100.21872 
L 242.202946 100.4664 
L 242.943832 99.88848 
L 243.685165 99.94008 
L 244.441688 99.81624 
L 245.186106 98.93904 
L 245.915436 98.3508 
L 246.663419 98.52624 
L 247.405947 99.78528 
L 248.141042 100.12584 
L 248.879016 100.03296 
L 250.376503 100.83792 
L 251.11195 100.11552 
L 251.909559 99.87816 
L 252.605622 100.002 
L 254.084104 101.41584 
L 254.836538 101.21976 
L 256.31862 101.00304 
L 257.067307 100.86888 
L 257.799851 101.21976 
L 258.543023 101.28168 
L 260.032485 101.14752 
L 260.776722 100.55928 
L 261.514223 100.65216 
L 262.257747 99.80592 
L 262.997482 99.96072 
L 263.746633 99.6408 
L 264.477605 99.1764 
L 265.233243 99.70272 
L 265.97937 99.94008 
L 266.716966 98.57784 
L 267.45872 98.65008 
L 268.204254 98.38176 
L 268.945063 98.48496 
L 269.679196 96.70992 
L 270.431321 98.05152 
L 271.17548 98.48496 
L 271.914545 97.96896 
L 272.654564 96.32808 
L 274.144181 96.16296 
L 274.877644 96.1836 
L 275.631512 96.50352 
L 276.381832 94.76976 
L 277.125708 97.19496 
L 277.866001 96.9576 
L 278.609568 97.9896 
L 279.36 96.89568 
L 279.36 96.89568 
" clip-path="url(#p898d16b335)" style="fill: none; stroke: #f5841e; stroke-width: 0.6"/>
   </g>
  </g>
 </g>
 <defs>
  <clipPath id="p898d16b335">
   <rect x="8.64" y="4.8" width="270.72" height="103.2"/>
  </clipPath>
 </defs>
</svg>
