<?xml version="1.0" encoding="utf-8" standalone="no"?>
<!DOCTYPE svg PUBLIC "-//W3C//DTD SVG 1.1//EN"
  "http://www.w3.org/Graphics/SVG/1.1/DTD/svg11.dtd">
<svg xmlns:xlink="http://www.w3.org/1999/xlink" width="288pt" height="120pt" viewBox="0 0 288 120" xmlns="http://www.w3.org/2000/svg" version="1.1">
<desc id="nav-meta">{"window":"1y","count":4,"labels":["24.03","23.07","21.11","23.03"],"tick_utc":["2025-03-24T12:00:00Z","2025-07-23T12:00:00Z","2025-11-21T12:00:00Z","2026-03-23T03:35:18Z"],"w":720,"h":300}</desc>

 <metadata>
  <rdf:RDF xmlns:dc="http://purl.org/dc/elements/1.1/" xmlns:cc="http://creativecommons.org/ns#" xmlns:rdf="http://www.w3.org/1999/02/22-rdf-syntax-ns#">
   <cc:Work>
    <dc:type rdf:resource="http://purl.org/dc/dcmitype/StillImage"/>
    <dc:date>2026-03-23T14:01:00.836671</dc:date>
    <dc:format>image/svg+xml</dc:format>
    <dc:creator>
     <cc:Agent>
      <dc:title>Matplotlib v3.10.8, https://matplotlib.org/</dc:title>
     </cc:Agent>
    </dc:creator>
   </cc:Work>
  </rdf:RDF>
 </metadata>
 <defs>
  <style type="text/css">*{stroke-linejoin: round; stroke-linecap: butt}</style>
 </defs>
 <g id="figure_1">
  <g id="patch_1">
   <path d="M 0 120 
L 288 120 
L 288 0 
L 0 0 
L 0 120 
z
" style="fill: none; opacity: 0"/>
  </g>
  <g id="axes_1">
   <g id="patch_2">
    <path d="M 8.64 108 
L 279.36 108 
L 279.36 4.8 
L 8.64 4.8 
L 8.64 108 
z
" style="fill: none"/>
   </g>
   <g id="matplotlib.axis_1"/>
   <g id="matplotlib.axis_2"/>
   <g id="line2d_1">
    <path d="M 8.64 87.36 
L 279.36 87.36 
" clip-path="url(#p295b9dcded)" style="fill: none; stroke: #b2b2b2; stroke-opacity: 0.35; stroke-width: 0.5; stroke-linecap: square"/>
   </g>
   <g id="line2d_2">
    <path d="M 8.64 66.72 
L 279.36 66.72 
" clip-path="url(#p295b9dcded)" style="fill: none; stroke: #b2b2b2; stroke-opacity: 0.35; stroke-width: 0.5; stroke-linecap: square"/>
   </g>
   <g id="line2d_3">
    <path d="M 8.64 46.08 
L 279.36 46.08 
" clip-path="url(#p295b9dcded)" style="fill: none; stroke: #b2b2b2; stroke-opacity: 0.35; stroke-width: 0.5; stroke-linecap: square"/>
   </g>
   <g id="line2d_4">
    <path d="M 8.64 25.44 
L 279.36 25.44 
" clip-path="url(#p295b9dcded)" style="fill: none; stroke: #b2b2b2; stroke-opacity: 0.35; stroke-width: 0.5; stroke-linecap: square"/>
   </g>
   <g id="line2d_5">
    <path d="M 8.64 90.41472 
L 9.384453 88.09272 
L 10.128906 87.17424 
L 10.873359 89.04216 
L 11.617812 88.69128 
L 12.362265 91.13712 
L 13.106718 92.48904 
L 14.595625 92.38584 
L 15.340078 91.85952 
L 16.084531 94.24344 
L 16.828984 94.4808 
L 17.573437 92.97408 
L 18.31789 93.67584 
L 19.062343 97.60776 
L 19.806796 97.32912 
L 20.551249 97.68 
L 21.295702 94.00608 
L 22.040155 95.65728 
L 22.784608 93.33528 
L 23.529062 90.39408 
L 24.273515 91.46736 
L 25.017968 91.14744 
L 25.762421 91.99368 
L 26.506874 90.57984 
L 27.251327 89.72328 
L 27.99578 89.89872 
L 28.740233 88.35072 
L 29.484686 88.89768 
L 30.229139 89.25888 
L 30.973592 85.84296 
L 31.718045 85.2444 
L 32.462499 84.8832 
L 34.695858 85.99776 
L 35.440311 86.07 
L 36.184764 86.4828 
L 36.929217 86.14224 
L 37.67367 85.31664 
L 38.418123 86.07 
L 39.162576 86.38992 
L 39.907029 87.16392 
L 40.651482 86.38992 
L 42.140389 86.28672 
L 42.884842 81.84912 
L 43.629295 79.32072 
L 44.373748 78.05136 
L 45.118201 79.26912 
L 45.862654 78.846 
L 46.607107 76.2144 
L 48.096013 80.394 
L 48.840466 80.66232 
L 49.584919 81.168 
L 50.329372 79.63032 
L 51.073825 80.95128 
L 51.818279 80.4972 
L 53.307185 77.43216 
L 54.051638 78.846 
L 54.796091 78.41256 
L 55.540544 78.64992 
L 56.284997 78.76344 
L 57.02945 78.25776 
L 57.773903 79.47552 
L 58.518356 80.92032 
L 59.262809 83.73768 
L 60.007262 83.6448 
L 60.751715 83.4384 
L 61.496169 83.61384 
L 62.240622 83.99568 
L 62.985075 84.55296 
L 63.729528 87.00912 
L 64.473981 85.98744 
L 65.218434 85.5024 
L 65.962887 84.8316 
L 66.70734 82.46832 
L 67.451793 81.426 
L 68.196246 82.5096 
L 68.940699 84.79032 
L 70.429605 86.95752 
L 71.174059 84.79032 
L 71.918512 85.13088 
L 72.662965 86.07 
L 73.407418 86.5344 
L 74.151871 86.31768 
L 75.640777 89.97096 
L 76.38523 90.48696 
L 77.129683 86.9472 
L 77.874136 86.66856 
L 78.618589 87.32904 
L 79.363042 88.53648 
L 80.107496 87.6696 
L 80.851949 85.30632 
L 81.596402 84.61488 
L 82.340855 84.17112 
L 83.085308 86.3796 
L 83.829761 84.92448 
L 84.574214 84.89352 
L 85.318667 86.13192 
L 86.06312 86.1732 
L 86.807573 84.99672 
L 87.552026 85.85328 
L 88.296479 85.01736 
L 89.040932 83.55192 
L 89.785386 81.7356 
L 90.529839 82.03488 
L 91.274292 82.65408 
L 92.763198 82.15872 
L 93.507651 81.70464 
L 94.252104 79.01112 
L 94.996557 78.39192 
L 95.74101 78.04104 
L 96.485463 78.16488 
L 97.229916 77.05032 
L 97.974369 72.82944 
L 98.718822 70.41456 
L 99.463276 74.69736 
L 100.207729 76.6272 
L 100.952182 75.63648 
L 101.696635 75.97704 
L 102.441088 74.976 
L 103.185541 76.49304 
L 103.929994 76.99872 
L 104.674447 77.90688 
L 105.4189 79.4652 
L 106.163353 82.02456 
L 106.907806 83.19072 
L 107.652259 82.27224 
L 108.396712 80.21856 
L 109.141166 81.67368 
L 109.885619 80.5488 
L 110.630072 78.588 
L 111.374525 78.19584 
L 112.118978 77.21544 
L 112.863431 76.524 
L 113.607884 78.68088 
L 114.352337 73.88208 
L 115.09679 71.364 
L 115.841243 73.8408 
L 116.585696 75.79128 
L 117.330149 74.65608 
L 118.074602 74.14008 
L 118.819056 76.50336 
L 119.563509 78.30936 
L 120.307962 75.3372 
L 121.052415 77.25672 
L 121.796868 71.78712 
L 122.541321 70.75512 
L 123.285774 70.24944 
L 124.030227 75.35784 
L 124.77468 72.95328 
L 125.519133 70.96152 
L 126.263586 67.87584 
L 127.008039 70.46616 
L 127.752493 71.11632 
L 128.496946 71.61168 
L 129.241399 72.7056 
L 129.985852 69.33096 
L 130.730305 68.9388 
L 131.474758 71.12664 
L 132.219211 70.90992 
L 132.963664 71.80776 
L 133.708117 70.074 
L 134.45257 68.01 
L 135.197023 67.10184 
L 135.941476 65.29584 
L 136.685929 64.01616 
L 137.430383 60.31128 
L 138.174836 60.19776 
L 138.919289 60.786 
L 139.663742 62.61264 
L 140.408195 61.74576 
L 141.152648 59.57856 
L 141.897101 58.86648 
L 142.641554 61.38456 
L 143.386007 61.07496 
L 144.13046 61.83864 
L 144.874913 66.29688 
L 145.619366 67.97904 
L 146.363819 68.69112 
L 147.108273 73.9956 
L 147.852726 70.45584 
L 148.597179 70.87896 
L 149.341632 68.91816 
L 150.086085 68.3196 
L 150.830538 69.47544 
L 152.319444 62.39592 
L 153.063897 62.81904 
L 153.80835 64.22256 
L 154.552803 64.05744 
L 155.297256 62.9532 
L 156.041709 66.14208 
L 156.786163 63.91296 
L 157.530616 66.17304 
L 158.275069 74.6148 
L 159.019522 77.78304 
L 159.763975 72.66432 
L 160.508428 69.69216 
L 161.252881 71.09568 
L 162.741787 76.06992 
L 163.48624 76.76136 
L 164.230693 75.25464 
L 164.975146 75.24432 
L 165.719599 74.63544 
L 166.464053 75.73968 
L 167.208506 77.31864 
L 167.952959 74.202 
L 168.697412 73.64472 
L 169.441865 73.48992 
L 170.186318 71.83872 
L 170.930771 72.17928 
L 171.675224 73.38672 
L 172.419677 73.43832 
L 173.16413 76.15248 
L 173.908583 75.3372 
L 174.653036 75.58488 
L 175.39749 75.35784 
L 176.141943 81.168 
L 176.886396 84.01632 
L 177.630849 82.06584 
L 178.375302 84.19176 
L 179.119755 82.27224 
L 179.864208 83.29392 
L 180.608661 81.62208 
L 181.353114 80.72424 
L 182.097567 84.33624 
L 182.84202 84.64584 
L 183.586473 86.844 
L 184.330926 88.52616 
L 185.07538 88.36104 
L 185.819833 88.93896 
L 186.564286 90.79656 
L 187.308739 88.09272 
L 188.053192 89.22792 
L 188.797645 90.00192 
L 189.542098 91.39512 
L 190.286551 91.63248 
L 191.031004 90.75528 
L 191.775457 88.7016 
L 192.51991 88.52616 
L 193.264363 87.45288 
L 194.008816 88.0308 
L 194.75327 88.94928 
L 196.242176 89.7336 
L 196.986629 91.86984 
L 197.731082 88.60872 
L 198.475535 86.87496 
L 199.964441 90.11544 
L 201.453347 90.53856 
L 202.1978 90.08448 
L 202.942253 88.79448 
L 203.686706 89.20728 
L 204.43116 89.22792 
L 205.175613 90.31152 
L 205.920066 90.10512 
L 206.664519 91.09584 
L 207.408972 91.61184 
L 208.153425 91.31256 
L 208.897878 92.87088 
L 209.642331 93.8616 
L 210.386784 92.02464 
L 211.131237 92.13816 
L 211.87569 92.07624 
L 212.620143 92.14848 
L 214.853503 93.69648 
L 216.342409 92.44776 
L 217.086862 92.30328 
L 217.831315 92.87088 
L 218.575768 92.38584 
L 219.320221 92.47872 
L 220.064674 91.88016 
L 220.809127 90.42504 
L 221.55358 90.08448 
L 222.298033 89.92968 
L 223.042487 88.76352 
L 223.78694 87.94824 
L 224.531393 89.2692 
L 225.275846 88.72224 
L 226.020299 89.39304 
L 226.764752 89.40336 
L 227.509205 88.41264 
L 228.253658 88.4952 
L 228.998111 86.86464 
L 229.742564 86.42088 
L 230.487017 87.62832 
L 231.23147 86.93688 
L 231.975923 87.23616 
L 233.46483 90.0432 
L 234.209283 92.12784 
L 234.953736 91.16808 
L 236.442642 91.73568 
L 237.187095 91.78728 
L 237.931548 94.0164 
L 238.676001 92.5716 
L 239.420454 91.76664 
L 240.164907 92.33424 
L 240.90936 94.36728 
L 241.653813 94.46016 
L 242.398267 97.71096 
L 243.14272 98.48496 
L 243.887173 97.85544 
L 245.107266 100.16712 
L 245.85134 102.23112 
L 246.592605 100.54896 
L 247.354075 100.70376 
L 248.092385 100.68312 
L 249.583996 101.28168 
L 250.32577 101.71512 
L 251.069999 101.84928 
L 251.8055 101.034 
L 252.510671 100.54896 
L 253.302876 101.04432 
L 253.953815 100.81728 
L 254.790601 101.034 
L 255.53415 101.4984 
L 257.767113 101.06496 
L 258.513806 102.09696 
L 259.195368 102.05568 
L 260.000032 101.4984 
L 260.741168 100.60056 
L 261.484208 100.80696 
L 262.21989 101.45712 
L 262.981257 100.55928 
L 263.718024 101.10624 
L 265.204492 100.74504 
L 265.950548 100.21872 
L 266.694647 100.53864 
L 267.433388 101.07528 
L 268.18507 101.38488 
L 268.931755 101.26104 
L 269.671426 100.78632 
L 271.162968 100.99272 
L 271.905983 100.38384 
L 273.408141 100.60056 
L 274.154696 99.76464 
L 274.886121 99.49632 
L 275.636253 99.40344 
L 276.380912 100.09488 
L 277.118119 100.3632 
L 277.858212 100.19808 
L 279.36 100.79664 
L 279.36 100.79664 
" clip-path="url(#p295b9dcded)" style="fill: none; stroke: #bebebe; stroke-width: 0.5; stroke-linecap: round"/>
   </g>
   <g id="line2d_6">
    <path d="M 8.64 89.8884 
L 9.384453 88.7532 
L 10.128906 88.88736 
L 10.873359 89.75424 
L 11.617812 89.85744 
L 12.362265 91.4364 
L 13.106718 92.43744 
L 13.851172 92.79864 
L 14.595625 92.50968 
L 15.340078 91.2816 
L 16.084531 92.9328 
L 16.828984 92.60256 
L 18.31789 92.7264 
L 19.062343 96.21456 
L 19.806796 96.4932 
L 20.551249 97.74192 
L 21.295702 94.91424 
L 22.040155 96.96792 
L 22.784608 96.31776 
L 23.529062 95.16192 
L 24.273515 95.90496 
L 25.017968 95.52312 
L 25.762421 96.01848 
L 26.506874 96.17328 
L 27.99578 95.99784 
L 28.740233 95.616 
L 29.484686 96.05976 
L 30.229139 96.17328 
L 30.973592 93.46944 
L 31.718045 92.96376 
L 32.462499 93.32496 
L 33.206952 93.036 
L 33.951405 92.56128 
L 34.695858 92.96376 
L 35.440311 92.8812 
L 36.929217 92.96376 
L 37.67367 92.29296 
L 38.418123 92.262 
L 39.162576 92.3652 
L 39.907029 92.74704 
L 40.651482 92.5716 
L 42.140389 92.71608 
L 42.884842 86.97816 
L 43.629295 84.84192 
L 44.373748 81.24024 
L 45.118201 82.37544 
L 45.862654 82.60248 
L 46.607107 79.86768 
L 48.096013 81.85944 
L 48.840466 81.82848 
L 49.584919 82.86048 
L 50.329372 83.00496 
L 51.073825 82.08648 
L 51.818279 82.12776 
L 52.562732 81.61176 
L 53.307185 80.15664 
L 54.051638 82.18968 
L 55.540544 81.79752 
L 56.284997 81.56016 
L 57.02945 80.0844 
L 57.773903 79.86768 
L 58.518356 80.50752 
L 59.262809 82.12776 
L 60.751715 81.92136 
L 61.496169 80.8584 
L 62.240622 81.07512 
L 62.985075 80.84808 
L 63.729528 83.6448 
L 64.473981 82.7676 
L 65.218434 82.0968 
L 65.962887 82.3548 
L 66.70734 79.74384 
L 67.451793 77.90688 
L 68.196246 78.39192 
L 68.940699 80.21856 
L 69.685152 81.34344 
L 70.429605 81.98328 
L 71.918512 81.5808 
L 72.662965 82.26192 
L 74.151871 82.15872 
L 74.896324 83.88216 
L 75.640777 85.89456 
L 76.38523 86.5344 
L 77.129683 83.61384 
L 77.874136 83.2836 
L 78.618589 83.71704 
L 79.363042 83.748 
L 80.851949 83.41776 
L 81.596402 82.44768 
L 82.340855 82.6644 
L 83.085308 83.89248 
L 83.829761 81.38472 
L 84.574214 81.14736 
L 85.318667 82.34448 
L 86.06312 82.23096 
L 86.807573 81.426 
L 87.552026 81.8388 
L 88.296479 80.76552 
L 89.785386 75.83256 
L 90.529839 75.67776 
L 91.274292 75.91512 
L 92.763198 74.88312 
L 93.507651 73.09776 
L 94.252104 69.6096 
L 94.996557 67.91712 
L 95.74101 66.94704 
L 96.485463 66.24528 
L 97.229916 63.80976 
L 97.974369 63.70656 
L 98.718822 63.9852 
L 99.463276 65.71896 
L 100.207729 64.5528 
L 101.696635 64.05744 
L 102.441088 62.25144 
L 103.185541 63.39696 
L 103.929994 63.366 
L 104.674447 63.08736 
L 105.4189 64.72824 
L 106.163353 67.89648 
L 106.907806 69.16584 
L 107.652259 67.69008 
L 108.396712 64.4496 
L 109.141166 65.97696 
L 109.885619 64.914 
L 110.630072 61.54968 
L 111.374525 60.04296 
L 112.118978 56.28648 
L 112.863431 56.47224 
L 113.607884 56.83344 
L 114.352337 51.22968 
L 115.09679 48.89736 
L 115.841243 52.00368 
L 116.585696 53.84064 
L 117.330149 53.90256 
L 118.074602 53.00472 
L 118.819056 55.5228 
L 119.563509 59.12448 
L 120.307962 55.32672 
L 121.052415 56.90568 
L 121.796868 47.92728 
L 122.541321 48.75288 
L 123.285774 48.68064 
L 124.030227 54.57336 
L 124.77468 51.2916 
L 125.519133 52.80864 
L 126.263586 52.69512 
L 127.008039 54.82104 
L 128.496946 54.45984 
L 129.241399 55.7292 
L 129.985852 55.39896 
L 130.730305 53.55168 
L 131.474758 55.81176 
L 132.219211 55.6776 
L 132.963664 56.18328 
L 133.708117 55.71888 
L 135.197023 55.63632 
L 135.941476 55.07904 
L 136.685929 53.41752 
L 137.430383 49.71264 
L 138.174836 50.32152 
L 138.919289 51.17808 
L 139.663742 52.44744 
L 140.408195 52.74672 
L 141.152648 51.4464 
L 141.897101 51.46704 
L 142.641554 53.2524 
L 143.386007 53.08728 
L 144.13046 53.5104 
L 144.874913 57.26688 
L 145.619366 57.76224 
L 146.363819 58.02024 
L 147.108273 62.26176 
L 147.852726 59.68176 
L 148.597179 59.9604 
L 149.341632 58.12344 
L 150.086085 57.02952 
L 150.830538 58.09248 
L 151.574991 55.13064 
L 152.319444 53.046 
L 153.063897 52.5816 
L 153.80835 52.9944 
L 154.552803 52.5816 
L 155.297256 50.0016 
L 156.041709 53.48976 
L 156.786163 52.40616 
L 157.530616 54.75912 
L 158.275069 62.67456 
L 159.019522 63.95424 
L 159.763975 57.86544 
L 160.508428 56.57544 
L 161.252881 58.31952 
L 161.997334 60.4764 
L 162.741787 61.85928 
L 163.48624 62.73648 
L 164.230693 61.8696 
L 164.975146 60.45576 
L 165.719599 60.54864 
L 166.464053 62.04504 
L 167.208506 63.16992 
L 167.952959 62.36496 
L 168.697412 61.21944 
L 169.441865 60.9408 
L 170.186318 57.83448 
L 170.930771 58.40208 
L 171.675224 60.49704 
L 173.16413 63.1596 
L 173.908583 62.49912 
L 174.653036 62.1276 
L 175.39749 61.56 
L 176.886396 70.66224 
L 177.630849 68.72208 
L 178.375302 70.4868 
L 179.119755 68.61888 
L 179.864208 69.11424 
L 180.608661 66.5136 
L 181.353114 66.68904 
L 182.097567 68.8872 
L 182.84202 68.9904 
L 183.586473 71.5704 
L 184.330926 73.48992 
L 185.07538 72.54048 
L 186.564286 74.74896 
L 187.308739 73.3248 
L 188.053192 74.80056 
L 188.797645 77.556 
L 189.542098 78.55704 
L 190.286551 78.50544 
L 191.031004 78.04104 
L 191.775457 75.76032 
L 192.51991 75.73968 
L 193.264363 74.65608 
L 194.008816 74.83152 
L 194.75327 74.57352 
L 195.497723 75.20304 
L 196.242176 75.17208 
L 196.986629 78.05136 
L 198.475535 72.16896 
L 199.219988 73.08744 
L 199.964441 74.72832 
L 201.453347 74.28456 
L 202.1978 73.21128 
L 202.942253 70.2804 
L 203.686706 70.2288 
L 204.43116 71.56008 
L 205.175613 73.79952 
L 205.920066 73.35576 
L 206.664519 74.0988 
L 207.408972 75.5952 
L 208.153425 75.5952 
L 208.897878 77.61792 
L 209.642331 77.63856 
L 210.386784 75.40944 
L 211.131237 75.40944 
L 211.87569 75.04824 
L 212.620143 74.98632 
L 213.364597 75.58488 
L 214.10905 75.87384 
L 214.853503 76.49304 
L 216.342409 75.82224 
L 217.086862 75.84288 
L 217.831315 76.03896 
L 218.575768 75.51264 
L 219.320221 75.56424 
L 220.064674 75.05856 
L 220.809127 73.26288 
L 221.55358 73.20096 
L 222.298033 73.00488 
L 223.042487 71.68392 
L 223.78694 70.6932 
L 224.531393 72.62304 
L 225.275846 73.52088 
L 226.020299 73.83048 
L 226.764752 73.8408 
L 227.509205 73.29384 
L 228.253658 73.72728 
L 228.998111 70.32168 
L 229.742564 69.77472 
L 230.487017 70.34232 
L 231.23147 70.67256 
L 231.975923 70.51776 
L 232.720377 70.848 
L 233.46483 72.31344 
L 234.209283 76.01832 
L 234.953736 75.41976 
L 235.698189 75.83256 
L 237.187095 75.82224 
L 237.931548 77.82432 
L 238.676001 76.14216 
L 239.420454 74.75928 
L 240.164907 74.96568 
L 240.90936 77.75208 
L 241.653813 79.48584 
L 242.398267 83.31456 
L 243.14272 85.90488 
L 243.887173 84.79032 
L 244.515658 85.84296 
L 245.85134 91.41576 
L 246.592605 88.7532 
L 248.092385 88.55712 
L 248.841086 88.96992 
L 250.32577 90.456 
L 251.069999 90.56952 
L 251.8055 89.15568 
L 252.510671 88.9596 
L 253.302876 90.6624 
L 253.953815 89.94 
L 254.790601 90.00192 
L 256.274252 90.62112 
L 257.767113 90.3528 
L 258.513806 92.004 
L 259.195368 92.13816 
L 260.000032 91.25064 
L 260.741168 89.166 
L 261.484208 89.56848 
L 262.21989 90.93072 
L 262.981257 89.41368 
L 263.718024 90.37344 
L 264.464209 89.79552 
L 265.204492 90.23928 
L 265.950548 88.0824 
L 266.694647 88.7532 
L 267.433388 90.16704 
L 268.18507 90.67272 
L 268.931755 90.18768 
L 269.671426 89.2692 
L 270.415586 89.54784 
L 271.162968 89.49624 
L 271.905983 88.31976 
L 272.649445 88.45392 
L 273.408141 88.46424 
L 274.154696 86.38992 
L 274.886121 84.80064 
L 275.636253 84.8316 
L 276.380912 86.586 
L 277.118119 87.74184 
L 277.858212 87.618 
L 278.613798 88.19592 
L 279.36 89.08344 
L 279.36 89.08344 
" clip-path="url(#p295b9dcded)" style="fill: none; stroke: #4a8dff; stroke-width: 0.6"/>
   </g>
   <g id="line2d_7">
    <path d="M 8.64 87.8244 
L 9.384453 86.2248 
L 10.128906 86.02872 
L 10.873359 86.60664 
L 11.617812 86.328 
L 12.362265 89.30016 
L 13.106718 91.04424 
L 13.851172 91.37448 
L 14.595625 91.20936 
L 15.340078 88.392 
L 16.084531 91.19904 
L 17.573437 89.82648 
L 18.31789 90.0948 
L 19.062343 95.6676 
L 19.806796 94.66656 
L 20.551249 97.61808 
L 21.295702 91.10616 
L 22.040155 94.23312 
L 22.784608 90.25992 
L 23.529062 88.31976 
L 24.273515 90.08448 
L 25.017968 89.13504 
L 25.762421 90.03288 
L 26.506874 89.56848 
L 27.251327 88.71192 
L 27.99578 89.22792 
L 28.740233 88.50552 
L 29.484686 88.55712 
L 30.229139 86.10096 
L 30.973592 79.75416 
L 31.718045 79.7232 
L 32.462499 79.44456 
L 33.206952 78.51576 
L 33.951405 78.64992 
L 34.695858 79.5168 
L 35.440311 78.24744 
L 36.184764 79.0524 
L 36.929217 79.07304 
L 37.67367 76.80264 
L 38.418123 76.35888 
L 39.162576 77.31864 
L 39.907029 78.98016 
L 40.651482 78.52608 
L 41.395935 76.35888 
L 42.140389 76.18344 
L 42.884842 69.90888 
L 43.629295 70.03272 
L 44.373748 68.29896 
L 45.118201 68.95944 
L 45.862654 70.11528 
L 46.607107 68.76336 
L 47.35156 69.37224 
L 48.096013 69.25872 
L 48.840466 69.41352 
L 49.584919 69.77472 
L 50.329372 66.85416 
L 51.073825 67.26696 
L 51.818279 66.06984 
L 52.562732 63.08736 
L 53.307185 61.12656 
L 54.051638 65.62608 
L 54.796091 64.98624 
L 55.540544 63.91296 
L 56.284997 63.38664 
L 57.02945 63.70656 
L 57.773903 64.97592 
L 58.518356 67.14312 
L 59.262809 68.9388 
L 60.007262 68.23704 
L 60.751715 67.1844 
L 61.496169 66.99864 
L 62.240622 67.47336 
L 62.985075 68.1132 
L 63.729528 71.38464 
L 64.473981 68.526 
L 65.218434 67.21536 
L 65.962887 67.20504 
L 66.70734 62.46816 
L 67.451793 62.51976 
L 68.196246 64.10904 
L 68.940699 66.90576 
L 69.685152 66.83352 
L 70.429605 67.42176 
L 71.174059 67.3392 
L 71.918512 65.8944 
L 72.662965 68.24736 
L 74.151871 68.23704 
L 74.896324 69.69216 
L 75.640777 71.50848 
L 76.38523 72.21024 
L 77.129683 67.3908 
L 77.874136 66.90576 
L 78.618589 65.59512 
L 79.363042 65.86344 
L 80.107496 65.76024 
L 80.851949 65.50224 
L 81.596402 64.398 
L 82.340855 65.70864 
L 83.085308 67.2876 
L 83.829761 63.95424 
L 84.574214 63.14928 
L 85.318667 64.76952 
L 86.06312 64.58376 
L 86.807573 63.55176 
L 87.552026 64.5012 
L 88.296479 63.82008 
L 89.040932 61.36392 
L 89.785386 56.64768 
L 90.529839 54.89328 
L 91.274292 55.04808 
L 92.018745 53.29368 
L 92.763198 52.55064 
L 93.507651 54.77976 
L 94.252104 53.67552 
L 94.996557 52.95312 
L 95.74101 54.45984 
L 96.485463 54.55272 
L 97.229916 55.22352 
L 97.974369 54.98616 
L 98.718822 52.4268 
L 99.463276 53.79936 
L 100.207729 54.08832 
L 100.952182 54.92424 
L 101.696635 54.4908 
L 102.441088 52.98408 
L 103.185541 54.44952 
L 103.929994 54.60432 
L 104.674447 54.62496 
L 106.163353 59.38248 
L 106.907806 60.09456 
L 107.652259 58.39176 
L 108.396712 57.41136 
L 109.141166 58.464 
L 109.885619 57.5352 
L 110.630072 55.0068 
L 111.374525 55.81176 
L 112.118978 55.99752 
L 112.863431 53.13888 
L 113.607884 53.64456 
L 114.352337 52.1688 
L 115.09679 48.69096 
L 115.841243 54.0264 
L 116.585696 55.13064 
L 117.330149 54.96552 
L 118.074602 54.92424 
L 118.819056 56.25552 
L 119.563509 59.8572 
L 120.307962 58.32984 
L 121.052415 60.23904 
L 121.796868 55.65696 
L 122.541321 57.18432 
L 123.285774 59.21736 
L 124.030227 62.55072 
L 124.77468 60.82728 
L 125.519133 61.47744 
L 126.263586 60.12552 
L 127.008039 64.31544 
L 127.752493 63.99552 
L 128.496946 64.5528 
L 129.241399 63.60336 
L 129.985852 61.5084 
L 130.730305 60.96144 
L 131.474758 61.98312 
L 132.219211 62.05536 
L 132.963664 62.51976 
L 134.45257 60.64152 
L 135.197023 61.13688 
L 135.941476 58.6188 
L 136.685929 57.03984 
L 137.430383 56.35872 
L 138.174836 56.5548 
L 138.919289 57.174 
L 139.663742 57.14304 
L 140.408195 55.7292 
L 141.152648 56.04912 
L 141.897101 55.33704 
L 142.641554 56.87472 
L 143.386007 56.8128 
L 144.13046 57.24624 
L 144.874913 59.93976 
L 145.619366 60.64152 
L 146.363819 59.29992 
L 147.108273 63.80976 
L 147.852726 63.03576 
L 148.597179 63.09768 
L 150.086085 58.27824 
L 150.830538 58.5672 
L 151.574991 53.93352 
L 152.319444 51.74568 
L 153.063897 50.04288 
L 153.80835 49.90872 
L 155.297256 47.43192 
L 156.041709 50.80656 
L 156.786163 48.90768 
L 157.530616 50.6208 
L 158.275069 59.42376 
L 159.019522 61.85928 
L 159.763975 57.35976 
L 160.508428 57.3288 
L 161.252881 59.46504 
L 162.741787 64.72824 
L 163.48624 66.42072 
L 164.230693 65.688 
L 164.975146 64.17096 
L 165.719599 62.10696 
L 166.464053 64.30512 
L 167.208506 65.20296 
L 167.952959 62.68488 
L 168.697412 61.70448 
L 169.441865 61.06464 
L 170.186318 58.1028 
L 170.930771 58.40208 
L 171.675224 59.68176 
L 172.419677 62.6952 
L 173.16413 64.56312 
L 173.908583 63.18024 
L 174.653036 62.72616 
L 175.39749 62.06568 
L 176.141943 66.33816 
L 176.886396 71.40528 
L 177.630849 69.08328 
L 178.375302 71.7252 
L 179.119755 69.57864 
L 179.864208 70.72416 
L 180.608661 68.2164 
L 181.353114 66.978 
L 182.097567 70.03272 
L 182.84202 71.5188 
L 183.586473 73.3764 
L 184.330926 78.846 
L 185.07538 77.75208 
L 185.819833 78.88728 
L 186.564286 81.34344 
L 187.308739 80.53848 
L 188.053192 82.0452 
L 188.797645 86.92656 
L 189.542098 88.58808 
L 190.286551 88.96992 
L 191.031004 86.7924 
L 191.775457 85.296 
L 192.51991 86.24544 
L 193.264363 82.96368 
L 194.008816 82.13808 
L 194.75327 82.47864 
L 195.497723 82.58184 
L 196.242176 83.03592 
L 196.986629 87.3084 
L 197.731082 82.06584 
L 198.475535 79.71288 
L 199.219988 81.24024 
L 199.964441 84.17112 
L 200.708894 84.24336 
L 201.453347 83.29392 
L 202.1978 82.8192 
L 202.942253 80.64168 
L 203.686706 81.38472 
L 204.43116 80.87904 
L 205.175613 83.13912 
L 205.920066 83.19072 
L 207.408972 87.17424 
L 208.153425 85.71912 
L 208.897878 87.53544 
L 209.642331 88.17528 
L 210.386784 85.41984 
L 211.87569 84.9348 
L 212.620143 85.01736 
L 213.364597 86.14224 
L 214.10905 85.90488 
L 214.853503 86.328 
L 215.597956 86.24544 
L 216.342409 85.72944 
L 217.086862 85.7088 
L 217.831315 86.40024 
L 218.575768 85.09992 
L 219.320221 86.02872 
L 220.809127 83.53128 
L 222.298033 82.03488 
L 223.042487 79.39296 
L 223.78694 79.66128 
L 224.531393 82.15872 
L 225.275846 82.43736 
L 226.020299 82.93272 
L 226.764752 83.00496 
L 228.253658 82.28256 
L 228.998111 78.01008 
L 229.742564 76.19376 
L 230.487017 77.66952 
L 231.23147 77.74176 
L 231.975923 78.1752 
L 233.46483 80.8068 
L 234.209283 85.20312 
L 234.953736 84.12984 
L 235.698189 84.03696 
L 236.442642 84.06792 
L 237.187095 84.3156 
L 237.931548 87.02976 
L 238.676001 85.21344 
L 239.420454 84.28464 
L 240.164907 84.32592 
L 240.90936 89.08344 
L 241.653813 89.5272 
L 242.398267 95.14128 
L 243.14272 96.98856 
L 243.887173 95.08968 
L 245.107266 99.80592 
L 245.85134 101.79768 
L 246.592605 100.03296 
L 247.354075 100.518 
L 248.092385 99.98136 
L 248.841086 100.49736 
L 251.069999 101.26104 
L 251.8055 100.63152 
L 252.510671 100.38384 
L 253.302876 100.84824 
L 253.953815 100.65216 
L 254.790601 101.034 
L 255.53415 101.19912 
L 257.767113 100.91016 
L 258.513806 101.7564 
L 259.195368 101.84928 
L 260.000032 101.56032 
L 260.741168 100.85856 
L 262.21989 101.4468 
L 262.981257 101.02368 
L 263.718024 101.30232 
L 264.464209 100.81728 
L 265.204492 100.79664 
L 265.950548 99.3312 
L 266.694647 99.92976 
L 267.433388 100.78632 
L 268.18507 101.17848 
L 268.931755 101.1372 
L 269.671426 100.21872 
L 271.162968 100.4664 
L 271.905983 99.88848 
L 272.649445 99.94008 
L 273.408141 99.81624 
L 274.154696 98.93904 
L 274.886121 98.3508 
L 275.636253 98.52624 
L 276.380912 99.78528 
L 277.118119 100.12584 
L 277.858212 100.03296 
L 279.36 100.83792 
L 279.36 100.83792 
" clip-path="url(#p295b9dcded)" style="fill: none; stroke: #f5841e; stroke-width: 0.6"/>
   </g>
  </g>
 </g>
 <defs>
  <clipPath id="p295b9dcded">
   <rect x="8.64" y="4.8" width="270.72" height="103.2"/>
  </clipPath>
 </defs>
</svg>
