<?xml version="1.0" encoding="utf-8" standalone="no"?>
<!DOCTYPE svg PUBLIC "-//W3C//DTD SVG 1.1//EN"
  "http://www.w3.org/Graphics/SVG/1.1/DTD/svg11.dtd">
<svg xmlns:xlink="http://www.w3.org/1999/xlink" width="288pt" height="120pt" viewBox="0 0 288 120" xmlns="http://www.w3.org/2000/svg" version="1.1">
<desc id="nav-meta">{"window":"6m","count":4,"labels":["11.10","10.12","07.02","08.04"],"tick_utc":["2025-10-11T12:00:00Z","2025-12-10T12:00:00Z","2026-02-07T03:13:08Z","2026-04-08T03:43:16Z"],"w":720,"h":300}</desc>

 <metadata>
  <rdf:RDF xmlns:dc="http://purl.org/dc/elements/1.1/" xmlns:cc="http://creativecommons.org/ns#" xmlns:rdf="http://www.w3.org/1999/02/22-rdf-syntax-ns#">
   <cc:Work>
    <dc:type rdf:resource="http://purl.org/dc/dcmitype/StillImage"/>
    <dc:date>2026-04-08T14:14:13.346475</dc:date>
    <dc:format>image/svg+xml</dc:format>
    <dc:creator>
     <cc:Agent>
      <dc:title>Matplotlib v3.10.8, https://matplotlib.org/</dc:title>
     </cc:Agent>
    </dc:creator>
   </cc:Work>
  </rdf:RDF>
 </metadata>
 <defs>
  <style type="text/css">*{stroke-linejoin: round; stroke-linecap: butt}</style>
 </defs>
 <g id="figure_1">
  <g id="patch_1">
   <path d="M 0 120 
L 288 120 
L 288 0 
L 0 0 
L 0 120 
z
" style="fill: none; opacity: 0"/>
  </g>
  <g id="axes_1">
   <g id="patch_2">
    <path d="M 8.64 108 
L 279.36 108 
L 279.36 4.8 
L 8.64 4.8 
L 8.64 108 
z
" style="fill: none"/>
   </g>
   <g id="matplotlib.axis_1"/>
   <g id="matplotlib.axis_2"/>
   <g id="line2d_1">
    <path d="M 8.64 87.36 
L 279.36 87.36 
" clip-path="url(#p32dda62d20)" style="fill: none; stroke: #b2b2b2; stroke-opacity: 0.35; stroke-width: 0.5; stroke-linecap: square"/>
   </g>
   <g id="line2d_2">
    <path d="M 8.64 66.72 
L 279.36 66.72 
" clip-path="url(#p32dda62d20)" style="fill: none; stroke: #b2b2b2; stroke-opacity: 0.35; stroke-width: 0.5; stroke-linecap: square"/>
   </g>
   <g id="line2d_3">
    <path d="M 8.64 46.08 
L 279.36 46.08 
" clip-path="url(#p32dda62d20)" style="fill: none; stroke: #b2b2b2; stroke-opacity: 0.35; stroke-width: 0.5; stroke-linecap: square"/>
   </g>
   <g id="line2d_4">
    <path d="M 8.64 25.44 
L 279.36 25.44 
" clip-path="url(#p32dda62d20)" style="fill: none; stroke: #b2b2b2; stroke-opacity: 0.35; stroke-width: 0.5; stroke-linecap: square"/>
   </g>
   <g id="line2d_5">
    <path d="M 8.64 74.6148 
L 10.155322 77.78304 
L 11.670645 72.66432 
L 13.185967 69.69216 
L 14.70129 71.09568 
L 17.731935 76.06992 
L 19.247257 76.76136 
L 20.762579 75.25464 
L 22.277902 75.24432 
L 23.793224 74.63544 
L 25.308547 75.73968 
L 26.823869 77.31864 
L 28.339192 74.202 
L 29.854514 73.64472 
L 31.369837 73.48992 
L 32.885159 71.83872 
L 34.400481 72.17928 
L 35.915804 73.38672 
L 37.431126 73.43832 
L 38.946449 76.15248 
L 40.461771 75.3372 
L 41.977094 75.58488 
L 43.492416 75.35784 
L 45.007738 81.168 
L 46.523061 84.01632 
L 48.038383 82.06584 
L 49.553706 84.19176 
L 51.069028 82.27224 
L 52.584351 83.29392 
L 54.099673 81.62208 
L 55.614996 80.72424 
L 57.130318 84.33624 
L 58.64564 84.64584 
L 60.160963 86.844 
L 61.676285 88.52616 
L 63.191608 88.36104 
L 64.70693 88.93896 
L 66.222253 90.79656 
L 67.737575 88.09272 
L 69.252897 89.22792 
L 70.76822 90.00192 
L 72.283542 91.39512 
L 73.798865 91.63248 
L 75.314187 90.75528 
L 76.82951 88.7016 
L 78.344832 88.52616 
L 79.860155 87.45288 
L 81.375477 88.0308 
L 82.890799 88.94928 
L 85.921444 89.7336 
L 87.436767 91.86984 
L 88.952089 88.60872 
L 90.467412 86.87496 
L 93.498056 90.11544 
L 95.013379 90.38376 
L 96.528701 90.53856 
L 98.044024 90.08448 
L 99.559346 88.79448 
L 101.074669 89.20728 
L 102.589991 89.22792 
L 104.105313 90.31152 
L 105.620636 90.10512 
L 107.135958 91.09584 
L 108.651281 91.61184 
L 110.166603 91.31256 
L 111.681926 92.87088 
L 113.197248 93.8616 
L 114.712571 92.02464 
L 116.227893 92.13816 
L 117.743215 92.07624 
L 119.258538 92.14848 
L 120.77386 92.64384 
L 122.289183 93.01536 
L 123.804505 93.69648 
L 126.83515 92.44776 
L 128.350472 92.30328 
L 129.865795 92.87088 
L 131.381117 92.38584 
L 132.89644 92.47872 
L 134.411762 91.88016 
L 135.927085 90.42504 
L 137.442407 90.08448 
L 138.95773 89.92968 
L 140.473052 88.76352 
L 141.988374 87.94824 
L 143.503697 89.2692 
L 145.019019 88.72224 
L 146.534342 89.39304 
L 148.049664 89.40336 
L 149.564987 88.41264 
L 151.080309 88.4952 
L 152.595631 86.86464 
L 154.110954 86.42088 
L 155.626276 87.62832 
L 157.141599 86.93688 
L 158.656921 87.23616 
L 161.687566 90.0432 
L 163.202888 92.12784 
L 164.718211 91.16808 
L 167.748856 91.73568 
L 169.264178 91.78728 
L 170.779501 94.0164 
L 172.294823 92.5716 
L 173.810146 91.76664 
L 175.325468 92.33424 
L 176.84079 94.36728 
L 178.356113 94.46016 
L 179.871435 97.71096 
L 181.386758 98.48496 
L 182.90208 97.85544 
L 185.38556 100.16712 
L 186.900111 102.23112 
L 188.408944 100.54896 
L 189.958905 100.70376 
L 191.461723 100.68312 
L 194.497875 101.28168 
L 196.007743 101.71512 
L 197.522609 101.84928 
L 199.019709 101.034 
L 200.455074 100.54896 
L 202.067594 101.04432 
L 203.392572 100.81728 
L 205.095836 101.034 
L 206.609317 101.4984 
L 211.154478 101.06496 
L 212.67436 102.09696 
L 214.061669 102.05568 
L 215.699551 101.4984 
L 217.208121 100.60056 
L 218.720567 100.80696 
L 220.218035 101.45712 
L 221.767786 100.55928 
L 223.267464 101.10624 
L 226.293145 100.74504 
L 227.81173 100.21872 
L 229.326333 100.53864 
L 230.830028 101.07528 
L 232.360065 101.38488 
L 233.87993 101.26104 
L 235.385518 100.78632 
L 238.42153 100.99272 
L 239.933923 100.38384 
L 242.991542 100.60056 
L 244.511144 99.76464 
L 245.999949 99.49632 
L 247.526829 99.40344 
L 249.042572 100.09488 
L 250.543145 100.3632 
L 252.049593 100.19808 
L 255.106458 100.79664 
L 256.607749 100.26 
L 258.235932 99.83688 
L 259.656827 100.13616 
L 262.674897 101.38488 
L 268.764599 101.28168 
L 270.259963 101.8596 
L 271.777021 101.88024 
L 273.279365 101.72544 
L 274.817505 101.68416 
L 276.336739 101.47776 
L 277.842222 101.78736 
L 279.36 101.09592 
L 279.36 101.09592 
" clip-path="url(#p32dda62d20)" style="fill: none; stroke: #bebebe; stroke-width: 0.5; stroke-linecap: round"/>
   </g>
   <g id="line2d_6">
    <path d="M 8.64 62.67456 
L 10.155322 63.95424 
L 11.670645 57.86544 
L 13.185967 56.57544 
L 14.70129 58.31952 
L 16.216612 60.4764 
L 17.731935 61.85928 
L 19.247257 62.73648 
L 20.762579 61.8696 
L 22.277902 60.45576 
L 23.793224 60.54864 
L 25.308547 62.04504 
L 26.823869 63.16992 
L 28.339192 62.36496 
L 29.854514 61.21944 
L 31.369837 60.9408 
L 32.885159 57.83448 
L 34.400481 58.40208 
L 35.915804 60.49704 
L 37.431126 61.75608 
L 38.946449 63.1596 
L 40.461771 62.49912 
L 41.977094 62.1276 
L 43.492416 61.56 
L 46.523061 70.66224 
L 48.038383 68.72208 
L 49.553706 70.4868 
L 51.069028 68.61888 
L 52.584351 69.11424 
L 54.099673 66.5136 
L 55.614996 66.68904 
L 57.130318 68.8872 
L 58.64564 68.9904 
L 60.160963 71.5704 
L 61.676285 73.48992 
L 63.191608 72.54048 
L 64.70693 73.56216 
L 66.222253 74.74896 
L 67.737575 73.3248 
L 69.252897 74.80056 
L 70.76822 77.556 
L 72.283542 78.55704 
L 73.798865 78.50544 
L 75.314187 78.04104 
L 76.82951 75.76032 
L 78.344832 75.73968 
L 79.860155 74.65608 
L 81.375477 74.83152 
L 82.890799 74.57352 
L 84.406122 75.20304 
L 85.921444 75.17208 
L 87.436767 78.05136 
L 90.467412 72.16896 
L 91.982734 73.08744 
L 93.498056 74.72832 
L 96.528701 74.28456 
L 98.044024 73.21128 
L 99.559346 70.2804 
L 101.074669 70.2288 
L 102.589991 71.56008 
L 104.105313 73.79952 
L 105.620636 73.35576 
L 107.135958 74.0988 
L 108.651281 75.5952 
L 110.166603 75.5952 
L 111.681926 77.61792 
L 113.197248 77.63856 
L 114.712571 75.40944 
L 116.227893 75.40944 
L 117.743215 75.04824 
L 119.258538 74.98632 
L 120.77386 75.58488 
L 122.289183 75.87384 
L 123.804505 76.49304 
L 126.83515 75.82224 
L 128.350472 75.84288 
L 129.865795 76.03896 
L 131.381117 75.51264 
L 132.89644 75.56424 
L 134.411762 75.05856 
L 135.927085 73.26288 
L 137.442407 73.20096 
L 138.95773 73.00488 
L 140.473052 71.68392 
L 141.988374 70.6932 
L 143.503697 72.62304 
L 145.019019 73.52088 
L 146.534342 73.83048 
L 148.049664 73.8408 
L 149.564987 73.29384 
L 151.080309 73.72728 
L 152.595631 70.32168 
L 154.110954 69.77472 
L 155.626276 70.34232 
L 157.141599 70.67256 
L 158.656921 70.51776 
L 160.172244 70.848 
L 161.687566 72.31344 
L 163.202888 76.01832 
L 164.718211 75.41976 
L 166.233533 75.83256 
L 169.264178 75.82224 
L 170.779501 77.82432 
L 172.294823 76.14216 
L 173.810146 74.75928 
L 175.325468 74.96568 
L 176.84079 77.75208 
L 178.356113 79.48584 
L 179.871435 83.31456 
L 181.386758 85.90488 
L 182.90208 84.79032 
L 184.181353 85.84296 
L 186.900111 91.41576 
L 188.408944 88.7532 
L 191.461723 88.55712 
L 192.985692 88.96992 
L 196.007743 90.456 
L 197.522609 90.56952 
L 199.019709 89.15568 
L 200.455074 88.9596 
L 202.067594 90.6624 
L 203.392572 89.94 
L 205.095836 90.00192 
L 208.115783 90.62112 
L 211.154478 90.3528 
L 212.67436 92.004 
L 214.061669 92.13816 
L 215.699551 91.25064 
L 217.208121 89.166 
L 218.720567 89.56848 
L 220.218035 90.93072 
L 221.767786 89.41368 
L 223.267464 90.37344 
L 224.786311 89.79552 
L 226.293145 90.23928 
L 227.81173 88.0824 
L 229.326333 88.7532 
L 230.830028 90.16704 
L 232.360065 90.67272 
L 233.87993 90.18768 
L 235.385518 89.2692 
L 236.900244 89.54784 
L 238.42153 89.49624 
L 239.933923 88.31976 
L 241.447229 88.45392 
L 242.991542 88.46424 
L 244.511144 86.38992 
L 245.999949 84.80064 
L 247.526829 84.8316 
L 249.042572 86.586 
L 250.543145 87.74184 
L 252.049593 87.618 
L 253.587575 88.19592 
L 255.106458 89.08344 
L 256.607749 87.89664 
L 258.235932 87.3084 
L 259.656827 87.65928 
L 261.174061 88.96992 
L 262.674897 90.07416 
L 265.730517 89.3724 
L 267.236281 89.00088 
L 268.764599 88.42296 
L 271.777021 89.10408 
L 273.279365 89.14536 
L 274.817505 89.07312 
L 276.336739 87.9792 
L 277.842222 88.29912 
L 279.36 86.38992 
L 279.36 86.38992 
" clip-path="url(#p32dda62d20)" style="fill: none; stroke: #4a8dff; stroke-width: 0.6"/>
   </g>
   <g id="line2d_7">
    <path d="M 8.64 59.42376 
L 10.155322 61.85928 
L 11.670645 57.35976 
L 13.185967 57.3288 
L 14.70129 59.46504 
L 17.731935 64.72824 
L 19.247257 66.42072 
L 20.762579 65.688 
L 22.277902 64.17096 
L 23.793224 62.10696 
L 25.308547 64.30512 
L 26.823869 65.20296 
L 28.339192 62.68488 
L 29.854514 61.70448 
L 31.369837 61.06464 
L 32.885159 58.1028 
L 34.400481 58.40208 
L 35.915804 59.68176 
L 37.431126 62.6952 
L 38.946449 64.56312 
L 40.461771 63.18024 
L 41.977094 62.72616 
L 43.492416 62.06568 
L 45.007738 66.33816 
L 46.523061 71.40528 
L 48.038383 69.08328 
L 49.553706 71.7252 
L 51.069028 69.57864 
L 52.584351 70.72416 
L 54.099673 68.2164 
L 55.614996 66.978 
L 57.130318 70.03272 
L 58.64564 71.5188 
L 60.160963 73.3764 
L 61.676285 78.846 
L 63.191608 77.75208 
L 64.70693 78.88728 
L 66.222253 81.34344 
L 67.737575 80.53848 
L 69.252897 82.0452 
L 70.76822 86.92656 
L 72.283542 88.58808 
L 73.798865 88.96992 
L 75.314187 86.7924 
L 76.82951 85.296 
L 78.344832 86.24544 
L 79.860155 82.96368 
L 81.375477 82.13808 
L 82.890799 82.47864 
L 84.406122 82.58184 
L 85.921444 83.03592 
L 87.436767 87.3084 
L 88.952089 82.06584 
L 90.467412 79.71288 
L 91.982734 81.24024 
L 93.498056 84.17112 
L 95.013379 84.24336 
L 96.528701 83.29392 
L 98.044024 82.8192 
L 99.559346 80.64168 
L 101.074669 81.38472 
L 102.589991 80.87904 
L 104.105313 83.13912 
L 105.620636 83.19072 
L 107.135958 85.296 
L 108.651281 87.17424 
L 110.166603 85.71912 
L 111.681926 87.53544 
L 113.197248 88.17528 
L 114.712571 85.41984 
L 117.743215 84.9348 
L 119.258538 85.01736 
L 120.77386 86.14224 
L 122.289183 85.90488 
L 123.804505 86.328 
L 125.319828 86.24544 
L 126.83515 85.72944 
L 128.350472 85.7088 
L 129.865795 86.40024 
L 131.381117 85.09992 
L 132.89644 86.02872 
L 135.927085 83.53128 
L 138.95773 82.03488 
L 140.473052 79.39296 
L 141.988374 79.66128 
L 143.503697 82.15872 
L 145.019019 82.43736 
L 146.534342 82.93272 
L 148.049664 83.00496 
L 151.080309 82.28256 
L 152.595631 78.01008 
L 154.110954 76.19376 
L 155.626276 77.66952 
L 157.141599 77.74176 
L 158.656921 78.1752 
L 160.172244 79.5684 
L 161.687566 80.8068 
L 163.202888 85.20312 
L 164.718211 84.12984 
L 166.233533 84.03696 
L 167.748856 84.06792 
L 169.264178 84.3156 
L 170.779501 87.02976 
L 172.294823 85.21344 
L 173.810146 84.28464 
L 175.325468 84.32592 
L 176.84079 89.08344 
L 178.356113 89.5272 
L 179.871435 95.14128 
L 181.386758 96.98856 
L 182.90208 95.08968 
L 184.181353 97.71096 
L 185.38556 99.80592 
L 186.900111 101.79768 
L 188.408944 100.03296 
L 189.958905 100.518 
L 191.461723 99.98136 
L 192.985692 100.49736 
L 197.522609 101.26104 
L 199.019709 100.63152 
L 200.455074 100.38384 
L 202.067594 100.84824 
L 203.392572 100.65216 
L 205.095836 101.034 
L 206.609317 101.19912 
L 211.154478 100.91016 
L 212.67436 101.7564 
L 214.061669 101.84928 
L 215.699551 101.56032 
L 217.208121 100.85856 
L 220.218035 101.4468 
L 221.767786 101.02368 
L 223.267464 101.30232 
L 224.786311 100.81728 
L 226.293145 100.79664 
L 227.81173 99.3312 
L 229.326333 99.92976 
L 230.830028 100.78632 
L 232.360065 101.17848 
L 233.87993 101.1372 
L 235.385518 100.21872 
L 238.42153 100.4664 
L 239.933923 99.88848 
L 241.447229 99.94008 
L 242.991542 99.81624 
L 244.511144 98.93904 
L 245.999949 98.3508 
L 247.526829 98.52624 
L 249.042572 99.78528 
L 250.543145 100.12584 
L 252.049593 100.03296 
L 255.106458 100.83792 
L 256.607749 100.11552 
L 258.235932 99.87816 
L 259.656827 100.002 
L 261.174061 100.64184 
L 262.674897 101.41584 
L 264.210862 101.21976 
L 267.236281 101.00304 
L 268.764599 100.86888 
L 270.259963 101.21976 
L 271.777021 101.28168 
L 274.817505 101.14752 
L 276.336739 100.55928 
L 277.842222 100.65216 
L 279.36 99.80592 
L 279.36 99.80592 
" clip-path="url(#p32dda62d20)" style="fill: none; stroke: #f5841e; stroke-width: 0.6"/>
   </g>
  </g>
 </g>
 <defs>
  <clipPath id="p32dda62d20">
   <rect x="8.64" y="4.8" width="270.72" height="103.2"/>
  </clipPath>
 </defs>
</svg>
