<?xml version="1.0" encoding="utf-8" standalone="no"?>
<!DOCTYPE svg PUBLIC "-//W3C//DTD SVG 1.1//EN"
  "http://www.w3.org/Graphics/SVG/1.1/DTD/svg11.dtd">
<svg xmlns:xlink="http://www.w3.org/1999/xlink" width="288pt" height="120pt" viewBox="0 0 288 120" xmlns="http://www.w3.org/2000/svg" version="1.1">
<desc id="nav-meta">{"window":"6m","count":4,"labels":["20.08","19.10","18.12","16.02"],"tick_utc":["2025-08-20T12:00:00Z","2025-10-19T12:00:00Z","2025-12-18T12:00:00Z","2026-02-16T03:32:51Z"],"w":720,"h":300}</desc>

 <metadata>
  <rdf:RDF xmlns:dc="http://purl.org/dc/elements/1.1/" xmlns:cc="http://creativecommons.org/ns#" xmlns:rdf="http://www.w3.org/1999/02/22-rdf-syntax-ns#">
   <cc:Work>
    <dc:type rdf:resource="http://purl.org/dc/dcmitype/StillImage"/>
    <dc:date>2026-02-16T07:39:53.877307</dc:date>
    <dc:format>image/svg+xml</dc:format>
    <dc:creator>
     <cc:Agent>
      <dc:title>Matplotlib v3.10.8, https://matplotlib.org/</dc:title>
     </cc:Agent>
    </dc:creator>
   </cc:Work>
  </rdf:RDF>
 </metadata>
 <defs>
  <style type="text/css">*{stroke-linejoin: round; stroke-linecap: butt}</style>
 </defs>
 <g id="figure_1">
  <g id="patch_1">
   <path d="M 0 120 
L 288 120 
L 288 0 
L 0 0 
L 0 120 
z
" style="fill: none; opacity: 0"/>
  </g>
  <g id="axes_1">
   <g id="patch_2">
    <path d="M 8.64 108 
L 279.36 108 
L 279.36 4.8 
L 8.64 4.8 
L 8.64 108 
z
" style="fill: none"/>
   </g>
   <g id="matplotlib.axis_1"/>
   <g id="matplotlib.axis_2"/>
   <g id="line2d_1">
    <path d="M 8.64 87.36 
L 279.36 87.36 
" clip-path="url(#p19a9612ebd)" style="fill: none; stroke: #b2b2b2; stroke-opacity: 0.35; stroke-width: 0.5; stroke-linecap: square"/>
   </g>
   <g id="line2d_2">
    <path d="M 8.64 66.72 
L 279.36 66.72 
" clip-path="url(#p19a9612ebd)" style="fill: none; stroke: #b2b2b2; stroke-opacity: 0.35; stroke-width: 0.5; stroke-linecap: square"/>
   </g>
   <g id="line2d_3">
    <path d="M 8.64 46.08 
L 279.36 46.08 
" clip-path="url(#p19a9612ebd)" style="fill: none; stroke: #b2b2b2; stroke-opacity: 0.35; stroke-width: 0.5; stroke-linecap: square"/>
   </g>
   <g id="line2d_4">
    <path d="M 8.64 25.44 
L 279.36 25.44 
" clip-path="url(#p19a9612ebd)" style="fill: none; stroke: #b2b2b2; stroke-opacity: 0.35; stroke-width: 0.5; stroke-linecap: square"/>
   </g>
   <g id="line2d_5">
    <path d="M 8.64 78.30936 
L 10.146948 75.3372 
L 11.653897 77.25672 
L 13.160845 71.78712 
L 14.667794 70.75512 
L 16.174742 70.24944 
L 17.681691 75.35784 
L 19.188639 72.95328 
L 20.695588 70.96152 
L 22.202536 67.87584 
L 23.709485 70.46616 
L 25.216433 71.11632 
L 26.723382 71.61168 
L 28.23033 72.7056 
L 29.737279 69.33096 
L 31.244227 68.9388 
L 32.751176 71.12664 
L 34.258124 70.90992 
L 35.765073 71.80776 
L 37.272021 70.074 
L 38.77897 68.01 
L 40.285918 67.10184 
L 41.792867 65.29584 
L 43.299815 64.01616 
L 44.806764 60.31128 
L 46.313712 60.19776 
L 47.820661 60.786 
L 49.327609 62.61264 
L 50.834558 61.74576 
L 52.341506 59.57856 
L 53.848455 58.86648 
L 55.355403 61.38456 
L 56.862352 61.07496 
L 58.3693 61.83864 
L 59.876249 66.29688 
L 61.383197 67.97904 
L 62.890146 68.69112 
L 64.397094 73.9956 
L 65.904043 70.45584 
L 67.410991 70.87896 
L 68.91794 68.91816 
L 70.424888 68.3196 
L 71.931837 69.47544 
L 74.945734 62.39592 
L 76.452682 62.81904 
L 77.959631 64.22256 
L 79.466579 64.05744 
L 80.973528 62.9532 
L 82.480476 66.14208 
L 83.987425 63.91296 
L 85.494373 66.17304 
L 87.001322 74.6148 
L 88.50827 77.78304 
L 90.015219 72.66432 
L 91.522167 69.69216 
L 93.029116 71.09568 
L 96.043012 76.06992 
L 97.549961 76.76136 
L 99.056909 75.25464 
L 100.563858 75.24432 
L 102.070806 74.63544 
L 103.577755 75.73968 
L 105.084703 77.31864 
L 106.591652 74.202 
L 108.0986 73.64472 
L 109.605549 73.48992 
L 111.112497 71.83872 
L 112.619446 72.17928 
L 114.126394 73.38672 
L 115.633343 73.43832 
L 117.140291 76.15248 
L 118.64724 75.3372 
L 120.154188 75.58488 
L 121.661137 75.35784 
L 123.168085 81.168 
L 124.675034 84.01632 
L 126.181982 82.06584 
L 127.688931 84.19176 
L 129.195879 82.27224 
L 130.702828 83.29392 
L 132.209776 81.62208 
L 133.716725 80.72424 
L 135.223673 84.33624 
L 136.730622 84.64584 
L 138.23757 86.844 
L 139.744519 88.52616 
L 141.251467 88.36104 
L 142.758416 88.93896 
L 144.265364 90.79656 
L 145.772313 88.09272 
L 147.279261 89.22792 
L 148.78621 90.00192 
L 150.293158 91.39512 
L 151.800107 91.63248 
L 153.307055 90.75528 
L 154.814004 88.7016 
L 156.320952 88.52616 
L 157.827901 87.45288 
L 159.334849 88.0308 
L 160.841798 88.94928 
L 163.855695 89.7336 
L 165.362643 91.86984 
L 166.869592 88.60872 
L 168.37654 86.87496 
L 171.390437 90.11544 
L 172.897386 90.38376 
L 174.404334 90.53856 
L 175.911283 90.08448 
L 177.418231 88.79448 
L 178.92518 89.20728 
L 180.432128 89.22792 
L 181.939076 90.31152 
L 183.446025 90.10512 
L 184.952973 91.09584 
L 186.459922 91.61184 
L 187.96687 91.31256 
L 189.473819 92.87088 
L 190.980767 93.8616 
L 192.487716 92.02464 
L 193.994664 92.13816 
L 195.501613 92.07624 
L 197.008561 92.14848 
L 198.51551 92.64384 
L 200.022458 93.01536 
L 201.529407 93.69648 
L 204.543304 92.44776 
L 206.050252 92.30328 
L 207.557201 92.87088 
L 209.064149 92.38584 
L 210.571098 92.47872 
L 212.078046 91.88016 
L 213.584995 90.42504 
L 215.091943 90.08448 
L 216.598892 89.92968 
L 218.10584 88.76352 
L 219.612789 87.94824 
L 221.119737 89.2692 
L 222.626686 88.72224 
L 224.133634 89.39304 
L 225.640583 89.40336 
L 227.147531 88.41264 
L 228.65448 88.4952 
L 230.161428 86.86464 
L 231.668377 86.42088 
L 233.175325 87.62832 
L 234.682274 86.93688 
L 236.189222 87.23616 
L 239.203119 90.0432 
L 240.710068 92.12784 
L 242.217016 91.16808 
L 245.230913 91.73568 
L 246.737862 91.78728 
L 248.24481 94.0164 
L 249.751759 92.5716 
L 251.258707 91.76664 
L 252.765656 92.33424 
L 254.272604 94.36728 
L 255.779553 94.46016 
L 257.286501 97.71096 
L 258.79345 98.48496 
L 260.300398 97.85544 
L 262.770154 100.16712 
L 264.276335 102.23112 
L 265.77683 100.54896 
L 267.318226 100.70376 
L 268.812738 100.68312 
L 271.832112 101.28168 
L 273.333636 101.71512 
L 274.840131 101.84928 
L 276.328958 101.034 
L 277.756391 100.54896 
L 279.36 101.04432 
L 279.36 101.04432 
" clip-path="url(#p19a9612ebd)" style="fill: none; stroke: #bebebe; stroke-width: 0.5; stroke-linecap: round"/>
   </g>
   <g id="line2d_6">
    <path d="M 8.64 59.12448 
L 10.146948 55.32672 
L 11.653897 56.90568 
L 13.160845 47.92728 
L 14.667794 48.75288 
L 16.174742 48.68064 
L 17.681691 54.57336 
L 19.188639 51.2916 
L 20.695588 52.80864 
L 22.202536 52.69512 
L 23.709485 54.82104 
L 26.723382 54.45984 
L 28.23033 55.7292 
L 29.737279 55.39896 
L 31.244227 53.55168 
L 32.751176 55.81176 
L 34.258124 55.6776 
L 35.765073 56.18328 
L 37.272021 55.71888 
L 40.285918 55.63632 
L 41.792867 55.07904 
L 43.299815 53.41752 
L 44.806764 49.71264 
L 46.313712 50.32152 
L 47.820661 51.17808 
L 49.327609 52.44744 
L 50.834558 52.74672 
L 52.341506 51.4464 
L 53.848455 51.46704 
L 55.355403 53.2524 
L 56.862352 53.08728 
L 58.3693 53.5104 
L 59.876249 57.26688 
L 61.383197 57.76224 
L 62.890146 58.02024 
L 64.397094 62.26176 
L 65.904043 59.68176 
L 67.410991 59.9604 
L 68.91794 58.12344 
L 70.424888 57.02952 
L 71.931837 58.09248 
L 73.438785 55.13064 
L 74.945734 53.046 
L 76.452682 52.5816 
L 77.959631 52.9944 
L 79.466579 52.5816 
L 80.973528 50.0016 
L 82.480476 53.48976 
L 83.987425 52.40616 
L 85.494373 54.75912 
L 87.001322 62.67456 
L 88.50827 63.95424 
L 90.015219 57.86544 
L 91.522167 56.57544 
L 93.029116 58.31952 
L 94.536064 60.4764 
L 96.043012 61.85928 
L 97.549961 62.73648 
L 99.056909 61.8696 
L 100.563858 60.45576 
L 102.070806 60.54864 
L 103.577755 62.04504 
L 105.084703 63.16992 
L 106.591652 62.36496 
L 108.0986 61.21944 
L 109.605549 60.9408 
L 111.112497 57.83448 
L 112.619446 58.40208 
L 114.126394 60.49704 
L 117.140291 63.1596 
L 118.64724 62.49912 
L 120.154188 62.1276 
L 121.661137 61.56 
L 124.675034 70.66224 
L 126.181982 68.72208 
L 127.688931 70.4868 
L 129.195879 68.61888 
L 130.702828 69.11424 
L 132.209776 66.5136 
L 133.716725 66.68904 
L 135.223673 68.8872 
L 136.730622 68.9904 
L 138.23757 71.5704 
L 139.744519 73.48992 
L 141.251467 72.54048 
L 142.758416 73.56216 
L 144.265364 74.74896 
L 145.772313 73.3248 
L 147.279261 74.80056 
L 148.78621 77.556 
L 150.293158 78.55704 
L 151.800107 78.50544 
L 153.307055 78.04104 
L 154.814004 75.76032 
L 156.320952 75.73968 
L 157.827901 74.65608 
L 159.334849 74.83152 
L 160.841798 74.57352 
L 162.348746 75.20304 
L 163.855695 75.17208 
L 165.362643 78.05136 
L 168.37654 72.16896 
L 169.883489 73.08744 
L 171.390437 74.72832 
L 174.404334 74.28456 
L 175.911283 73.21128 
L 177.418231 70.2804 
L 178.92518 70.2288 
L 180.432128 71.56008 
L 181.939076 73.79952 
L 183.446025 73.35576 
L 184.952973 74.0988 
L 186.459922 75.5952 
L 187.96687 75.5952 
L 189.473819 77.61792 
L 190.980767 77.63856 
L 192.487716 75.40944 
L 193.994664 75.40944 
L 195.501613 75.04824 
L 197.008561 74.98632 
L 198.51551 75.58488 
L 200.022458 75.87384 
L 201.529407 76.49304 
L 204.543304 75.82224 
L 206.050252 75.84288 
L 207.557201 76.03896 
L 209.064149 75.51264 
L 210.571098 75.56424 
L 212.078046 75.05856 
L 213.584995 73.26288 
L 215.091943 73.20096 
L 216.598892 73.00488 
L 218.10584 71.68392 
L 219.612789 70.6932 
L 221.119737 72.62304 
L 222.626686 73.52088 
L 224.133634 73.83048 
L 225.640583 73.8408 
L 227.147531 73.29384 
L 228.65448 73.72728 
L 230.161428 70.32168 
L 231.668377 69.77472 
L 233.175325 70.34232 
L 234.682274 70.67256 
L 236.189222 70.51776 
L 237.696171 70.848 
L 239.203119 72.31344 
L 240.710068 76.01832 
L 242.217016 75.41976 
L 243.723965 75.83256 
L 246.737862 75.82224 
L 248.24481 77.82432 
L 249.751759 76.14216 
L 251.258707 74.75928 
L 252.765656 74.96568 
L 254.272604 77.75208 
L 255.779553 79.48584 
L 257.286501 83.31456 
L 258.79345 85.90488 
L 260.300398 84.79032 
L 261.572601 85.84296 
L 264.276335 91.41576 
L 265.77683 88.7532 
L 268.812738 88.55712 
L 270.328286 88.96992 
L 273.333636 90.456 
L 274.840131 90.56952 
L 276.328958 89.15568 
L 277.756391 88.9596 
L 279.36 90.6624 
L 279.36 90.6624 
" clip-path="url(#p19a9612ebd)" style="fill: none; stroke: #4a8dff; stroke-width: 0.6"/>
   </g>
   <g id="line2d_7">
    <path d="M 8.64 59.8572 
L 10.146948 58.32984 
L 11.653897 60.23904 
L 13.160845 55.65696 
L 14.667794 57.18432 
L 16.174742 59.21736 
L 17.681691 62.55072 
L 19.188639 60.82728 
L 20.695588 61.47744 
L 22.202536 60.12552 
L 23.709485 64.31544 
L 25.216433 63.99552 
L 26.723382 64.5528 
L 28.23033 63.60336 
L 29.737279 61.5084 
L 31.244227 60.96144 
L 32.751176 61.98312 
L 34.258124 62.05536 
L 35.765073 62.51976 
L 38.77897 60.64152 
L 40.285918 61.13688 
L 41.792867 58.6188 
L 43.299815 57.03984 
L 44.806764 56.35872 
L 46.313712 56.5548 
L 47.820661 57.174 
L 49.327609 57.14304 
L 50.834558 55.7292 
L 52.341506 56.04912 
L 53.848455 55.33704 
L 55.355403 56.87472 
L 56.862352 56.8128 
L 58.3693 57.24624 
L 59.876249 59.93976 
L 61.383197 60.64152 
L 62.890146 59.29992 
L 64.397094 63.80976 
L 65.904043 63.03576 
L 67.410991 63.09768 
L 68.91794 60.51768 
L 70.424888 58.27824 
L 71.931837 58.5672 
L 73.438785 53.93352 
L 74.945734 51.74568 
L 76.452682 50.04288 
L 77.959631 49.90872 
L 79.466579 48.74256 
L 80.973528 47.43192 
L 82.480476 50.80656 
L 83.987425 48.90768 
L 85.494373 50.6208 
L 87.001322 59.42376 
L 88.50827 61.85928 
L 90.015219 57.35976 
L 91.522167 57.3288 
L 93.029116 59.46504 
L 96.043012 64.72824 
L 97.549961 66.42072 
L 99.056909 65.688 
L 100.563858 64.17096 
L 102.070806 62.10696 
L 103.577755 64.30512 
L 105.084703 65.20296 
L 106.591652 62.68488 
L 108.0986 61.70448 
L 109.605549 61.06464 
L 111.112497 58.1028 
L 112.619446 58.40208 
L 114.126394 59.68176 
L 115.633343 62.6952 
L 117.140291 64.56312 
L 118.64724 63.18024 
L 120.154188 62.72616 
L 121.661137 62.06568 
L 123.168085 66.33816 
L 124.675034 71.40528 
L 126.181982 69.08328 
L 127.688931 71.7252 
L 129.195879 69.57864 
L 130.702828 70.72416 
L 132.209776 68.2164 
L 133.716725 66.978 
L 135.223673 70.03272 
L 136.730622 71.5188 
L 138.23757 73.3764 
L 139.744519 78.846 
L 141.251467 77.75208 
L 142.758416 78.88728 
L 144.265364 81.34344 
L 145.772313 80.53848 
L 147.279261 82.0452 
L 148.78621 86.92656 
L 150.293158 88.58808 
L 151.800107 88.96992 
L 153.307055 86.7924 
L 154.814004 85.296 
L 156.320952 86.24544 
L 157.827901 82.96368 
L 159.334849 82.13808 
L 160.841798 82.47864 
L 162.348746 82.58184 
L 163.855695 83.03592 
L 165.362643 87.3084 
L 166.869592 82.06584 
L 168.37654 79.71288 
L 169.883489 81.24024 
L 171.390437 84.17112 
L 172.897386 84.24336 
L 174.404334 83.29392 
L 175.911283 82.8192 
L 177.418231 80.64168 
L 178.92518 81.38472 
L 180.432128 80.87904 
L 181.939076 83.13912 
L 183.446025 83.19072 
L 184.952973 85.296 
L 186.459922 87.17424 
L 187.96687 85.71912 
L 189.473819 87.53544 
L 190.980767 88.17528 
L 192.487716 85.41984 
L 195.501613 84.9348 
L 197.008561 85.01736 
L 198.51551 86.14224 
L 200.022458 85.90488 
L 201.529407 86.328 
L 203.036355 86.24544 
L 204.543304 85.72944 
L 206.050252 85.7088 
L 207.557201 86.40024 
L 209.064149 85.09992 
L 210.571098 86.02872 
L 213.584995 83.53128 
L 216.598892 82.03488 
L 218.10584 79.39296 
L 219.612789 79.66128 
L 221.119737 82.15872 
L 222.626686 82.43736 
L 224.133634 82.93272 
L 225.640583 83.00496 
L 228.65448 82.28256 
L 230.161428 78.01008 
L 231.668377 76.19376 
L 233.175325 77.66952 
L 234.682274 77.74176 
L 236.189222 78.1752 
L 237.696171 79.5684 
L 239.203119 80.8068 
L 240.710068 85.20312 
L 242.217016 84.12984 
L 243.723965 84.03696 
L 245.230913 84.06792 
L 246.737862 84.3156 
L 248.24481 87.02976 
L 249.751759 85.21344 
L 251.258707 84.28464 
L 252.765656 84.32592 
L 254.272604 89.08344 
L 255.779553 89.5272 
L 257.286501 95.14128 
L 258.79345 96.98856 
L 260.300398 95.08968 
L 261.572601 97.71096 
L 262.770154 99.80592 
L 264.276335 101.79768 
L 265.77683 100.03296 
L 267.318226 100.518 
L 268.812738 99.98136 
L 270.328286 100.49736 
L 274.840131 101.26104 
L 276.328958 100.63152 
L 277.756391 100.38384 
L 279.36 100.84824 
L 279.36 100.84824 
" clip-path="url(#p19a9612ebd)" style="fill: none; stroke: #f5841e; stroke-width: 0.6"/>
   </g>
  </g>
 </g>
 <defs>
  <clipPath id="p19a9612ebd">
   <rect x="8.64" y="4.8" width="270.72" height="103.2"/>
  </clipPath>
 </defs>
</svg>
