<?xml version="1.0" encoding="utf-8" standalone="no"?>
<!DOCTYPE svg PUBLIC "-//W3C//DTD SVG 1.1//EN"
  "http://www.w3.org/Graphics/SVG/1.1/DTD/svg11.dtd">
<svg xmlns:xlink="http://www.w3.org/1999/xlink" width="288pt" height="120pt" viewBox="0 0 288 120" xmlns="http://www.w3.org/2000/svg" version="1.1">
<desc id="nav-meta">{"window":"1m","count":4,"labels":["25.04","05.05","14.05","24.05"],"tick_utc":["2026-04-25T03:44:07Z","2026-05-05T03:59:32Z","2026-05-14T04:32:13Z","2026-05-24T04:51:26Z"],"w":720,"h":300}</desc>

 <metadata>
  <rdf:RDF xmlns:dc="http://purl.org/dc/elements/1.1/" xmlns:cc="http://creativecommons.org/ns#" xmlns:rdf="http://www.w3.org/1999/02/22-rdf-syntax-ns#">
   <cc:Work>
    <dc:type rdf:resource="http://purl.org/dc/dcmitype/StillImage"/>
    <dc:date>2026-05-24T04:51:27.600463</dc:date>
    <dc:format>image/svg+xml</dc:format>
    <dc:creator>
     <cc:Agent>
      <dc:title>Matplotlib v3.10.9, https://matplotlib.org/</dc:title>
     </cc:Agent>
    </dc:creator>
   </cc:Work>
  </rdf:RDF>
 </metadata>
 <defs>
  <style type="text/css">*{stroke-linejoin: round; stroke-linecap: butt}</style>
 </defs>
 <g id="figure_1">
  <g id="patch_1">
   <path d="M 0 120 
L 288 120 
L 288 0 
L 0 0 
L 0 120 
z
" style="fill: none; opacity: 0"/>
  </g>
  <g id="axes_1">
   <g id="patch_2">
    <path d="M 8.64 108 
L 279.36 108 
L 279.36 4.8 
L 8.64 4.8 
L 8.64 108 
z
" style="fill: none"/>
   </g>
   <g id="matplotlib.axis_1"/>
   <g id="matplotlib.axis_2"/>
   <g id="line2d_1">
    <path d="M 8.64 87.36 
L 279.36 87.36 
" clip-path="url(#pf8278d2e27)" style="fill: none; stroke: #b2b2b2; stroke-opacity: 0.35; stroke-width: 0.5; stroke-linecap: square"/>
   </g>
   <g id="line2d_2">
    <path d="M 8.64 66.72 
L 279.36 66.72 
" clip-path="url(#pf8278d2e27)" style="fill: none; stroke: #b2b2b2; stroke-opacity: 0.35; stroke-width: 0.5; stroke-linecap: square"/>
   </g>
   <g id="line2d_3">
    <path d="M 8.64 46.08 
L 279.36 46.08 
" clip-path="url(#pf8278d2e27)" style="fill: none; stroke: #b2b2b2; stroke-opacity: 0.35; stroke-width: 0.5; stroke-linecap: square"/>
   </g>
   <g id="line2d_4">
    <path d="M 8.64 25.44 
L 279.36 25.44 
" clip-path="url(#pf8278d2e27)" style="fill: none; stroke: #b2b2b2; stroke-opacity: 0.35; stroke-width: 0.5; stroke-linecap: square"/>
   </g>
   <g id="line2d_5">
    <path d="M 8.64 100.81728 
L 18.105129 100.8792 
L 27.525706 100.64184 
L 36.865379 101.1888 
L 46.16007 101.09592 
L 55.49586 101.37456 
L 64.917839 101.21976 
L 74.00013 101.20944 
L 83.509486 101.23008 
L 92.826398 100.92048 
L 101.941266 101.06496 
L 111.425596 100.70376 
L 120.748225 100.55928 
L 129.913254 100.53864 
L 139.26749 99.60984 
L 148.775443 99.72336 
L 158.169161 99.44472 
L 167.359863 99.25896 
L 176.724346 99.32088 
L 186.034139 100.22904 
L 195.400241 100.01232 
L 204.601407 100.43544 
L 214.06071 100.75536 
L 223.471363 101.02368 
L 232.724739 101.02368 
L 242.07822 101.17848 
L 251.451441 100.7244 
L 260.700178 100.75536 
L 269.892283 101.11656 
L 279.36 100.91016 
" clip-path="url(#pf8278d2e27)" style="fill: none; stroke: #bebebe; stroke-width: 0.5; stroke-linecap: round"/>
   </g>
   <g id="line2d_6">
    <path d="M 8.64 85.17216 
L 18.105129 85.31664 
L 27.525706 84.11952 
L 36.865379 85.66752 
L 46.16007 85.26504 
L 55.49586 86.26608 
L 64.917839 85.77072 
L 74.00013 85.38888 
L 83.509486 85.3992 
L 92.826398 84.09888 
L 101.941266 84.22272 
L 111.425596 84.34656 
L 120.748225 85.06896 
L 129.913254 85.7604 
L 139.26749 85.0896 
L 148.775443 85.01736 
L 158.169161 84.9348 
L 167.359863 85.296 
L 176.724346 85.35792 
L 186.034139 86.1732 
L 195.400241 85.92552 
L 204.601407 86.55504 
L 214.06071 87.13296 
L 223.471363 88.10304 
L 232.724739 87.9276 
L 242.07822 88.26816 
L 251.451441 87.78312 
L 260.700178 87.95856 
L 269.892283 88.94928 
L 279.36 88.14432 
" clip-path="url(#pf8278d2e27)" style="fill: none; stroke: #4a8dff; stroke-width: 0.6"/>
   </g>
   <g id="line2d_7">
    <path d="M 8.64 96.1836 
L 18.105129 96.50352 
L 27.525706 94.76976 
L 36.865379 97.19496 
L 46.16007 96.9576 
L 55.49586 97.9896 
L 64.917839 96.89568 
L 74.00013 95.45088 
L 83.509486 95.67792 
L 92.826398 93.43848 
L 101.941266 92.90184 
L 111.425596 92.25168 
L 120.748225 92.87088 
L 129.913254 94.2744 
L 139.26749 93.1392 
L 148.775443 92.97408 
L 158.169161 92.9844 
L 167.359863 92.60256 
L 176.724346 92.53032 
L 186.034139 94.54272 
L 195.400241 92.85024 
L 204.601407 94.82136 
L 214.06071 95.75016 
L 223.471363 96.97824 
L 232.724739 97.08144 
L 242.07822 97.23624 
L 251.451441 95.94624 
L 260.700178 96.30744 
L 269.892283 98.08248 
L 279.36 97.2672 
" clip-path="url(#pf8278d2e27)" style="fill: none; stroke: #f5841e; stroke-width: 0.6"/>
   </g>
  </g>
 </g>
 <defs>
  <clipPath id="pf8278d2e27">
   <rect x="8.64" y="4.8" width="270.72" height="103.2"/>
  </clipPath>
 </defs>
</svg>
