<?xml version="1.0" encoding="utf-8" standalone="no"?>
<!DOCTYPE svg PUBLIC "-//W3C//DTD SVG 1.1//EN"
  "http://www.w3.org/Graphics/SVG/1.1/DTD/svg11.dtd">
<svg xmlns:xlink="http://www.w3.org/1999/xlink" width="288pt" height="120pt" viewBox="0 0 288 120" xmlns="http://www.w3.org/2000/svg" version="1.1">
<desc id="nav-meta">{"window":"3m","count":4,"labels":["16.11","16.12","15.01","14.02"],"tick_utc":["2025-11-16T12:00:00Z","2025-12-16T12:00:00Z","2026-01-15T12:00:00Z","2026-02-14T03:16:28Z"],"w":720,"h":300}</desc>

 <metadata>
  <rdf:RDF xmlns:dc="http://purl.org/dc/elements/1.1/" xmlns:cc="http://creativecommons.org/ns#" xmlns:rdf="http://www.w3.org/1999/02/22-rdf-syntax-ns#">
   <cc:Work>
    <dc:type rdf:resource="http://purl.org/dc/dcmitype/StillImage"/>
    <dc:date>2026-02-14T03:16:33.145409</dc:date>
    <dc:format>image/svg+xml</dc:format>
    <dc:creator>
     <cc:Agent>
      <dc:title>Matplotlib v3.10.8, https://matplotlib.org/</dc:title>
     </cc:Agent>
    </dc:creator>
   </cc:Work>
  </rdf:RDF>
 </metadata>
 <defs>
  <style type="text/css">*{stroke-linejoin: round; stroke-linecap: butt}</style>
 </defs>
 <g id="figure_1">
  <g id="patch_1">
   <path d="M 0 120 
L 288 120 
L 288 0 
L 0 0 
L 0 120 
z
" style="fill: none; opacity: 0"/>
  </g>
  <g id="axes_1">
   <g id="patch_2">
    <path d="M 8.64 108 
L 279.36 108 
L 279.36 4.8 
L 8.64 4.8 
L 8.64 108 
z
" style="fill: none"/>
   </g>
   <g id="matplotlib.axis_1"/>
   <g id="matplotlib.axis_2"/>
   <g id="line2d_1">
    <path d="M 8.64 87.36 
L 279.36 87.36 
" clip-path="url(#p93fb1cfdcd)" style="fill: none; stroke: #b2b2b2; stroke-opacity: 0.35; stroke-width: 0.5; stroke-linecap: square"/>
   </g>
   <g id="line2d_2">
    <path d="M 8.64 66.72 
L 279.36 66.72 
" clip-path="url(#p93fb1cfdcd)" style="fill: none; stroke: #b2b2b2; stroke-opacity: 0.35; stroke-width: 0.5; stroke-linecap: square"/>
   </g>
   <g id="line2d_3">
    <path d="M 8.64 46.08 
L 279.36 46.08 
" clip-path="url(#p93fb1cfdcd)" style="fill: none; stroke: #b2b2b2; stroke-opacity: 0.35; stroke-width: 0.5; stroke-linecap: square"/>
   </g>
   <g id="line2d_4">
    <path d="M 8.64 25.44 
L 279.36 25.44 
" clip-path="url(#p93fb1cfdcd)" style="fill: none; stroke: #b2b2b2; stroke-opacity: 0.35; stroke-width: 0.5; stroke-linecap: square"/>
   </g>
   <g id="line2d_5">
    <path d="M 8.64 88.36104 
L 11.6602 88.93896 
L 14.680401 90.79656 
L 17.700601 88.09272 
L 20.720802 89.22792 
L 23.741002 90.00192 
L 26.761203 91.39512 
L 29.781403 91.63248 
L 32.801603 90.75528 
L 35.821804 88.7016 
L 38.842004 88.52616 
L 41.862205 87.45288 
L 44.882405 88.0308 
L 47.902606 88.94928 
L 50.922806 89.3208 
L 53.943006 89.7336 
L 56.963207 91.86984 
L 59.983407 88.60872 
L 63.003608 86.87496 
L 66.023808 88.52616 
L 69.044009 90.11544 
L 72.064209 90.38376 
L 75.084409 90.53856 
L 78.10461 90.08448 
L 81.12481 88.79448 
L 84.145011 89.20728 
L 87.165211 89.22792 
L 90.185412 90.31152 
L 93.205612 90.10512 
L 96.225812 91.09584 
L 99.246013 91.61184 
L 102.266213 91.31256 
L 105.286414 92.87088 
L 108.306614 93.8616 
L 111.326815 92.02464 
L 114.347015 92.13816 
L 117.367215 92.07624 
L 120.387416 92.14848 
L 123.407616 92.64384 
L 126.427817 93.01536 
L 129.448017 93.69648 
L 132.468218 93.11856 
L 135.488418 92.44776 
L 138.508618 92.30328 
L 141.528819 92.87088 
L 144.549019 92.38584 
L 147.56922 92.47872 
L 150.58942 91.88016 
L 153.609621 90.42504 
L 156.629821 90.08448 
L 159.650021 89.92968 
L 162.670222 88.76352 
L 165.690422 87.94824 
L 168.710623 89.2692 
L 171.730823 88.72224 
L 174.751024 89.39304 
L 177.771224 89.40336 
L 180.791424 88.41264 
L 183.811625 88.4952 
L 186.831825 86.86464 
L 189.852026 86.42088 
L 192.872226 87.62832 
L 195.892427 86.93688 
L 198.912627 87.23616 
L 201.932827 88.63968 
L 204.953028 90.0432 
L 207.973228 92.12784 
L 210.993429 91.16808 
L 214.013629 91.46736 
L 217.03383 91.73568 
L 220.05403 91.78728 
L 223.07423 94.0164 
L 226.094431 92.5716 
L 229.114631 91.76664 
L 232.134832 92.33424 
L 235.155032 94.36728 
L 238.175233 94.46016 
L 241.195433 97.71096 
L 244.215633 98.48496 
L 247.235834 97.85544 
L 249.785561 99.10416 
L 252.185677 100.16712 
L 255.204339 102.23112 
L 258.211606 100.54896 
L 261.300844 100.70376 
L 264.296121 100.68312 
L 267.333555 100.95144 
L 270.347498 101.28168 
L 273.356827 101.71512 
L 276.376119 101.84928 
L 279.36 101.034 
" clip-path="url(#p93fb1cfdcd)" style="fill: none; stroke: #bebebe; stroke-width: 0.5; stroke-linecap: round"/>
   </g>
   <g id="line2d_6">
    <path d="M 8.64 72.54048 
L 11.6602 73.56216 
L 14.680401 74.74896 
L 17.700601 73.3248 
L 20.720802 74.80056 
L 23.741002 77.556 
L 26.761203 78.55704 
L 29.781403 78.50544 
L 32.801603 78.04104 
L 35.821804 75.76032 
L 38.842004 75.73968 
L 41.862205 74.65608 
L 44.882405 74.83152 
L 47.902606 74.57352 
L 50.922806 75.20304 
L 53.943006 75.17208 
L 56.963207 78.05136 
L 59.983407 75.1308 
L 63.003608 72.16896 
L 66.023808 73.08744 
L 69.044009 74.72832 
L 72.064209 74.48064 
L 75.084409 74.28456 
L 78.10461 73.21128 
L 81.12481 70.2804 
L 84.145011 70.2288 
L 87.165211 71.56008 
L 90.185412 73.79952 
L 93.205612 73.35576 
L 96.225812 74.0988 
L 99.246013 75.5952 
L 102.266213 75.5952 
L 105.286414 77.61792 
L 108.306614 77.63856 
L 111.326815 75.40944 
L 114.347015 75.40944 
L 117.367215 75.04824 
L 120.387416 74.98632 
L 123.407616 75.58488 
L 126.427817 75.87384 
L 129.448017 76.49304 
L 132.468218 76.15248 
L 135.488418 75.82224 
L 138.508618 75.84288 
L 141.528819 76.03896 
L 144.549019 75.51264 
L 147.56922 75.56424 
L 150.58942 75.05856 
L 153.609621 73.26288 
L 156.629821 73.20096 
L 159.650021 73.00488 
L 162.670222 71.68392 
L 165.690422 70.6932 
L 168.710623 72.62304 
L 171.730823 73.52088 
L 174.751024 73.83048 
L 177.771224 73.8408 
L 180.791424 73.29384 
L 183.811625 73.72728 
L 186.831825 70.32168 
L 189.852026 69.77472 
L 192.872226 70.34232 
L 195.892427 70.67256 
L 198.912627 70.51776 
L 201.932827 70.848 
L 204.953028 72.31344 
L 207.973228 76.01832 
L 210.993429 75.41976 
L 214.013629 75.83256 
L 217.03383 75.79128 
L 220.05403 75.82224 
L 223.07423 77.82432 
L 226.094431 76.14216 
L 229.114631 74.75928 
L 232.134832 74.96568 
L 235.155032 77.75208 
L 238.175233 79.48584 
L 241.195433 83.31456 
L 244.215633 85.90488 
L 247.235834 84.79032 
L 249.785561 85.84296 
L 252.185677 88.25784 
L 255.204339 91.41576 
L 258.211606 88.7532 
L 261.300844 88.65 
L 264.296121 88.55712 
L 267.333555 88.96992 
L 270.347498 89.7336 
L 273.356827 90.456 
L 276.376119 90.56952 
L 279.36 89.15568 
" clip-path="url(#p93fb1cfdcd)" style="fill: none; stroke: #4a8dff; stroke-width: 0.6"/>
   </g>
   <g id="line2d_7">
    <path d="M 8.64 77.75208 
L 11.6602 78.88728 
L 14.680401 81.34344 
L 17.700601 80.53848 
L 20.720802 82.0452 
L 23.741002 86.92656 
L 26.761203 88.58808 
L 29.781403 88.96992 
L 32.801603 86.7924 
L 35.821804 85.296 
L 38.842004 86.24544 
L 41.862205 82.96368 
L 44.882405 82.13808 
L 47.902606 82.47864 
L 50.922806 82.58184 
L 53.943006 83.03592 
L 56.963207 87.3084 
L 59.983407 82.06584 
L 63.003608 79.71288 
L 66.023808 81.24024 
L 69.044009 84.17112 
L 72.064209 84.24336 
L 75.084409 83.29392 
L 78.10461 82.8192 
L 81.12481 80.64168 
L 84.145011 81.38472 
L 87.165211 80.87904 
L 90.185412 83.13912 
L 93.205612 83.19072 
L 96.225812 85.296 
L 99.246013 87.17424 
L 102.266213 85.71912 
L 105.286414 87.53544 
L 108.306614 88.17528 
L 111.326815 85.41984 
L 114.347015 85.17216 
L 117.367215 84.9348 
L 120.387416 85.01736 
L 123.407616 86.14224 
L 126.427817 85.90488 
L 129.448017 86.328 
L 132.468218 86.24544 
L 135.488418 85.72944 
L 138.508618 85.7088 
L 141.528819 86.40024 
L 144.549019 85.09992 
L 147.56922 86.02872 
L 150.58942 84.78 
L 153.609621 83.53128 
L 156.629821 82.83984 
L 159.650021 82.03488 
L 162.670222 79.39296 
L 165.690422 79.66128 
L 168.710623 82.15872 
L 171.730823 82.43736 
L 174.751024 82.93272 
L 177.771224 83.00496 
L 180.791424 82.6128 
L 183.811625 82.28256 
L 186.831825 78.01008 
L 189.852026 76.19376 
L 192.872226 77.66952 
L 195.892427 77.74176 
L 198.912627 78.1752 
L 201.932827 79.5684 
L 204.953028 80.8068 
L 207.973228 85.20312 
L 210.993429 84.12984 
L 214.013629 84.03696 
L 217.03383 84.06792 
L 220.05403 84.3156 
L 223.07423 87.02976 
L 226.094431 85.21344 
L 229.114631 84.28464 
L 232.134832 84.32592 
L 235.155032 89.08344 
L 238.175233 89.5272 
L 241.195433 95.14128 
L 244.215633 96.98856 
L 247.235834 95.08968 
L 249.785561 97.71096 
L 252.185677 99.80592 
L 255.204339 101.79768 
L 258.211606 100.03296 
L 261.300844 100.518 
L 264.296121 99.98136 
L 267.333555 100.49736 
L 270.347498 100.78632 
L 273.356827 101.07528 
L 276.376119 101.26104 
L 279.36 100.63152 
" clip-path="url(#p93fb1cfdcd)" style="fill: none; stroke: #f5841e; stroke-width: 0.6"/>
   </g>
  </g>
 </g>
 <defs>
  <clipPath id="p93fb1cfdcd">
   <rect x="8.64" y="4.8" width="270.72" height="103.2"/>
  </clipPath>
 </defs>
</svg>
