<?xml version="1.0" encoding="utf-8" standalone="no"?>
<!DOCTYPE svg PUBLIC "-//W3C//DTD SVG 1.1//EN"
  "http://www.w3.org/Graphics/SVG/1.1/DTD/svg11.dtd">
<svg xmlns:xlink="http://www.w3.org/1999/xlink" width="288pt" height="120pt" viewBox="0 0 288 120" xmlns="http://www.w3.org/2000/svg" version="1.1">
<desc id="nav-meta">{"window":"3m","count":4,"labels":["18.01","17.02","18.03","17.04"],"tick_utc":["2026-01-18T12:00:00Z","2026-02-17T00:31:58Z","2026-03-18T03:32:26Z","2026-04-17T03:55:44Z"],"w":720,"h":300}</desc>

 <metadata>
  <rdf:RDF xmlns:dc="http://purl.org/dc/elements/1.1/" xmlns:cc="http://creativecommons.org/ns#" xmlns:rdf="http://www.w3.org/1999/02/22-rdf-syntax-ns#">
   <cc:Work>
    <dc:type rdf:resource="http://purl.org/dc/dcmitype/StillImage"/>
    <dc:date>2026-04-17T19:44:29.128666</dc:date>
    <dc:format>image/svg+xml</dc:format>
    <dc:creator>
     <cc:Agent>
      <dc:title>Matplotlib v3.10.8, https://matplotlib.org/</dc:title>
     </cc:Agent>
    </dc:creator>
   </cc:Work>
  </rdf:RDF>
 </metadata>
 <defs>
  <style type="text/css">*{stroke-linejoin: round; stroke-linecap: butt}</style>
 </defs>
 <g id="figure_1">
  <g id="patch_1">
   <path d="M 0 120 
L 288 120 
L 288 0 
L 0 0 
L 0 120 
z
" style="fill: none; opacity: 0"/>
  </g>
  <g id="axes_1">
   <g id="patch_2">
    <path d="M 8.64 108 
L 279.36 108 
L 279.36 4.8 
L 8.64 4.8 
L 8.64 108 
z
" style="fill: none"/>
   </g>
   <g id="matplotlib.axis_1"/>
   <g id="matplotlib.axis_2"/>
   <g id="line2d_1">
    <path d="M 8.64 87.36 
L 279.36 87.36 
" clip-path="url(#p01ac55606e)" style="fill: none; stroke: #b2b2b2; stroke-opacity: 0.35; stroke-width: 0.5; stroke-linecap: square"/>
   </g>
   <g id="line2d_2">
    <path d="M 8.64 66.72 
L 279.36 66.72 
" clip-path="url(#p01ac55606e)" style="fill: none; stroke: #b2b2b2; stroke-opacity: 0.35; stroke-width: 0.5; stroke-linecap: square"/>
   </g>
   <g id="line2d_3">
    <path d="M 8.64 46.08 
L 279.36 46.08 
" clip-path="url(#p01ac55606e)" style="fill: none; stroke: #b2b2b2; stroke-opacity: 0.35; stroke-width: 0.5; stroke-linecap: square"/>
   </g>
   <g id="line2d_4">
    <path d="M 8.64 25.44 
L 279.36 25.44 
" clip-path="url(#p01ac55606e)" style="fill: none; stroke: #b2b2b2; stroke-opacity: 0.35; stroke-width: 0.5; stroke-linecap: square"/>
   </g>
   <g id="line2d_5">
    <path d="M 8.64 87.23616 
L 11.693335 88.63968 
L 14.74667 90.0432 
L 17.800005 92.12784 
L 20.85334 91.16808 
L 23.906676 91.46736 
L 26.960011 91.73568 
L 30.013346 91.78728 
L 33.066681 94.0164 
L 36.120016 92.5716 
L 39.173351 91.76664 
L 42.226686 92.33424 
L 45.280021 94.36728 
L 48.333357 94.46016 
L 51.386692 97.71096 
L 54.440027 98.48496 
L 57.493362 97.85544 
L 60.071062 99.10416 
L 62.49751 100.16712 
L 65.54929 102.23112 
L 68.589549 100.54896 
L 71.71268 100.70376 
L 74.740818 100.68312 
L 77.811575 100.95144 
L 80.858585 101.28168 
L 83.900929 101.71512 
L 86.953346 101.84928 
L 89.969963 101.034 
L 92.862185 100.54896 
L 96.111372 101.04432 
L 98.781167 100.81728 
L 102.213201 101.034 
L 105.262825 101.4984 
L 108.298314 101.33328 
L 111.33299 101.1372 
L 114.421205 101.06496 
L 117.483728 102.09696 
L 120.27912 102.05568 
L 123.579408 101.4984 
L 126.619137 100.60056 
L 129.666677 100.80696 
L 132.684036 101.45712 
L 135.806743 100.55928 
L 138.828555 101.10624 
L 141.888993 100.8792 
L 144.925224 100.74504 
L 147.985132 100.21872 
L 151.037019 100.53864 
L 154.066924 101.07528 
L 157.149909 101.38488 
L 160.212397 101.26104 
L 163.246118 100.78632 
L 166.298252 100.91016 
L 169.363602 100.99272 
L 172.411036 100.38384 
L 175.460307 100.50768 
L 178.572058 100.60056 
L 181.634016 99.76464 
L 184.633918 99.49632 
L 187.710542 99.40344 
L 190.764725 100.09488 
L 193.78834 100.3632 
L 196.823793 100.19808 
L 199.922787 100.47672 
L 202.983296 100.79664 
L 206.008359 100.26 
L 209.289104 99.83688 
L 212.152171 100.13616 
L 215.209359 100.80696 
L 218.233503 101.38488 
L 221.328433 101.3436 
L 224.390497 101.292 
L 227.424572 101.28168 
L 230.504094 101.28168 
L 233.517212 101.8596 
L 236.574046 101.88024 
L 239.60123 101.72544 
L 242.700542 101.68416 
L 245.761758 101.47776 
L 248.795267 101.78736 
L 251.85355 101.09592 
L 254.896248 101.46744 
L 257.977678 101.3436 
L 260.98433 101.05464 
L 264.092441 101.3952 
L 267.161431 101.47776 
L 270.19533 100.86888 
L 273.246333 101.26104 
L 276.312885 100.99272 
L 279.36 100.61088 
" clip-path="url(#p01ac55606e)" style="fill: none; stroke: #bebebe; stroke-width: 0.5; stroke-linecap: round"/>
   </g>
   <g id="line2d_6">
    <path d="M 8.64 70.51776 
L 11.693335 70.848 
L 14.74667 72.31344 
L 17.800005 76.01832 
L 20.85334 75.41976 
L 23.906676 75.83256 
L 26.960011 75.79128 
L 30.013346 75.82224 
L 33.066681 77.82432 
L 36.120016 76.14216 
L 39.173351 74.75928 
L 42.226686 74.96568 
L 45.280021 77.75208 
L 48.333357 79.48584 
L 51.386692 83.31456 
L 54.440027 85.90488 
L 57.493362 84.79032 
L 60.071062 85.84296 
L 62.49751 88.25784 
L 65.54929 91.41576 
L 68.589549 88.7532 
L 71.71268 88.65 
L 74.740818 88.55712 
L 77.811575 88.96992 
L 80.858585 89.7336 
L 83.900929 90.456 
L 86.953346 90.56952 
L 89.969963 89.15568 
L 92.862185 88.9596 
L 96.111372 90.6624 
L 98.781167 89.94 
L 102.213201 90.00192 
L 105.262825 90.3528 
L 108.298314 90.62112 
L 111.33299 90.5076 
L 114.421205 90.3528 
L 117.483728 92.004 
L 120.27912 92.13816 
L 123.579408 91.25064 
L 126.619137 89.166 
L 129.666677 89.56848 
L 132.684036 90.93072 
L 135.806743 89.41368 
L 138.828555 90.37344 
L 141.888993 89.79552 
L 144.925224 90.23928 
L 147.985132 88.0824 
L 151.037019 88.7532 
L 154.066924 90.16704 
L 157.149909 90.67272 
L 160.212397 90.18768 
L 163.246118 89.2692 
L 166.298252 89.54784 
L 169.363602 89.49624 
L 172.411036 88.31976 
L 175.460307 88.45392 
L 178.572058 88.46424 
L 181.634016 86.38992 
L 184.633918 84.80064 
L 187.710542 84.8316 
L 190.764725 86.586 
L 193.78834 87.74184 
L 196.823793 87.618 
L 199.922787 88.19592 
L 202.983296 89.08344 
L 206.008359 87.89664 
L 209.289104 87.3084 
L 212.152171 87.65928 
L 215.209359 88.96992 
L 218.233503 90.07416 
L 221.328433 89.76456 
L 224.390497 89.3724 
L 227.424572 89.00088 
L 230.504094 88.42296 
L 233.517212 88.81512 
L 236.574046 89.10408 
L 239.60123 89.14536 
L 242.700542 89.07312 
L 245.761758 87.9792 
L 248.795267 88.29912 
L 251.85355 86.38992 
L 254.896248 87.24648 
L 257.977678 87.1536 
L 260.98433 86.21448 
L 264.092441 86.66856 
L 267.161431 87.01944 
L 270.19533 84.44976 
L 273.246333 85.05864 
L 276.312885 84.58392 
L 279.36 85.04832 
" clip-path="url(#p01ac55606e)" style="fill: none; stroke: #4a8dff; stroke-width: 0.6"/>
   </g>
   <g id="line2d_7">
    <path d="M 8.64 78.1752 
L 11.693335 79.5684 
L 14.74667 80.8068 
L 17.800005 85.20312 
L 20.85334 84.12984 
L 23.906676 84.03696 
L 26.960011 84.06792 
L 30.013346 84.3156 
L 33.066681 87.02976 
L 36.120016 85.21344 
L 39.173351 84.28464 
L 42.226686 84.32592 
L 45.280021 89.08344 
L 48.333357 89.5272 
L 51.386692 95.14128 
L 54.440027 96.98856 
L 57.493362 95.08968 
L 60.071062 97.71096 
L 62.49751 99.80592 
L 65.54929 101.79768 
L 68.589549 100.03296 
L 71.71268 100.518 
L 74.740818 99.98136 
L 77.811575 100.49736 
L 80.858585 100.78632 
L 83.900929 101.07528 
L 86.953346 101.26104 
L 89.969963 100.63152 
L 92.862185 100.38384 
L 96.111372 100.84824 
L 98.781167 100.65216 
L 102.213201 101.034 
L 105.262825 101.19912 
L 108.298314 101.10624 
L 111.33299 100.97208 
L 114.421205 100.91016 
L 117.483728 101.7564 
L 120.27912 101.84928 
L 123.579408 101.56032 
L 126.619137 100.85856 
L 129.666677 101.12688 
L 132.684036 101.4468 
L 135.806743 101.02368 
L 138.828555 101.30232 
L 141.888993 100.81728 
L 144.925224 100.79664 
L 147.985132 99.3312 
L 151.037019 99.92976 
L 154.066924 100.78632 
L 157.149909 101.17848 
L 160.212397 101.1372 
L 163.246118 100.21872 
L 166.298252 100.37352 
L 169.363602 100.4664 
L 172.411036 99.88848 
L 175.460307 99.94008 
L 178.572058 99.81624 
L 181.634016 98.93904 
L 184.633918 98.3508 
L 187.710542 98.52624 
L 190.764725 99.78528 
L 193.78834 100.12584 
L 196.823793 100.03296 
L 199.922787 100.45608 
L 202.983296 100.83792 
L 206.008359 100.11552 
L 209.289104 99.87816 
L 212.152171 100.002 
L 215.209359 100.64184 
L 218.233503 101.41584 
L 221.328433 101.21976 
L 224.390497 101.14752 
L 227.424572 101.00304 
L 230.504094 100.86888 
L 233.517212 101.21976 
L 236.574046 101.28168 
L 239.60123 101.20944 
L 242.700542 101.14752 
L 245.761758 100.55928 
L 248.795267 100.65216 
L 251.85355 99.80592 
L 254.896248 99.96072 
L 257.977678 99.6408 
L 260.98433 99.1764 
L 264.092441 99.70272 
L 267.161431 99.94008 
L 270.19533 98.57784 
L 273.246333 98.65008 
L 276.312885 98.38176 
L 279.36 98.48496 
" clip-path="url(#p01ac55606e)" style="fill: none; stroke: #f5841e; stroke-width: 0.6"/>
   </g>
  </g>
 </g>
 <defs>
  <clipPath id="p01ac55606e">
   <rect x="8.64" y="4.8" width="270.72" height="103.2"/>
  </clipPath>
 </defs>
</svg>
