<?xml version="1.0" encoding="utf-8" standalone="no"?>
<!DOCTYPE svg PUBLIC "-//W3C//DTD SVG 1.1//EN"
  "http://www.w3.org/Graphics/SVG/1.1/DTD/svg11.dtd">
<svg xmlns:xlink="http://www.w3.org/1999/xlink" width="288pt" height="120pt" viewBox="0 0 288 120" xmlns="http://www.w3.org/2000/svg" version="1.1">
<desc id="nav-meta">{"window":"3m","count":4,"labels":["27.12","26.01","24.02","26.03"],"tick_utc":["2025-12-27T12:00:00Z","2026-01-26T12:00:00Z","2026-02-24T01:30:44Z","2026-03-26T03:39:29Z"],"w":720,"h":300}</desc>

 <metadata>
  <rdf:RDF xmlns:dc="http://purl.org/dc/elements/1.1/" xmlns:cc="http://creativecommons.org/ns#" xmlns:rdf="http://www.w3.org/1999/02/22-rdf-syntax-ns#">
   <cc:Work>
    <dc:type rdf:resource="http://purl.org/dc/dcmitype/StillImage"/>
    <dc:date>2026-03-26T14:10:22.290464</dc:date>
    <dc:format>image/svg+xml</dc:format>
    <dc:creator>
     <cc:Agent>
      <dc:title>Matplotlib v3.10.8, https://matplotlib.org/</dc:title>
     </cc:Agent>
    </dc:creator>
   </cc:Work>
  </rdf:RDF>
 </metadata>
 <defs>
  <style type="text/css">*{stroke-linejoin: round; stroke-linecap: butt}</style>
 </defs>
 <g id="figure_1">
  <g id="patch_1">
   <path d="M 0 120 
L 288 120 
L 288 0 
L 0 0 
L 0 120 
z
" style="fill: none; opacity: 0"/>
  </g>
  <g id="axes_1">
   <g id="patch_2">
    <path d="M 8.64 108 
L 279.36 108 
L 279.36 4.8 
L 8.64 4.8 
L 8.64 108 
z
" style="fill: none"/>
   </g>
   <g id="matplotlib.axis_1"/>
   <g id="matplotlib.axis_2"/>
   <g id="line2d_1">
    <path d="M 8.64 87.36 
L 279.36 87.36 
" clip-path="url(#p1f08930ecd)" style="fill: none; stroke: #b2b2b2; stroke-opacity: 0.35; stroke-width: 0.5; stroke-linecap: square"/>
   </g>
   <g id="line2d_2">
    <path d="M 8.64 66.72 
L 279.36 66.72 
" clip-path="url(#p1f08930ecd)" style="fill: none; stroke: #b2b2b2; stroke-opacity: 0.35; stroke-width: 0.5; stroke-linecap: square"/>
   </g>
   <g id="line2d_3">
    <path d="M 8.64 46.08 
L 279.36 46.08 
" clip-path="url(#p1f08930ecd)" style="fill: none; stroke: #b2b2b2; stroke-opacity: 0.35; stroke-width: 0.5; stroke-linecap: square"/>
   </g>
   <g id="line2d_4">
    <path d="M 8.64 25.44 
L 279.36 25.44 
" clip-path="url(#p1f08930ecd)" style="fill: none; stroke: #b2b2b2; stroke-opacity: 0.35; stroke-width: 0.5; stroke-linecap: square"/>
   </g>
   <g id="line2d_5">
    <path d="M 8.64 93.11856 
L 11.693724 92.44776 
L 14.747448 92.30328 
L 17.801171 92.87088 
L 20.854895 92.38584 
L 23.908619 92.47872 
L 26.962343 91.88016 
L 30.016066 90.42504 
L 33.06979 90.08448 
L 36.123514 89.92968 
L 39.177238 88.76352 
L 42.230962 87.94824 
L 45.284685 89.2692 
L 48.338409 88.72224 
L 51.392133 89.39304 
L 54.445857 89.40336 
L 57.49958 88.41264 
L 60.553304 88.4952 
L 63.607028 86.86464 
L 66.660752 86.42088 
L 69.714476 87.62832 
L 72.768199 86.93688 
L 75.821923 87.23616 
L 78.875647 88.63968 
L 81.929371 90.0432 
L 84.983095 92.12784 
L 88.036818 91.16808 
L 91.090542 91.46736 
L 94.144266 91.73568 
L 97.19799 91.78728 
L 100.251713 94.0164 
L 103.305437 92.5716 
L 106.359161 91.76664 
L 109.412885 92.33424 
L 112.466609 94.36728 
L 115.520332 94.46016 
L 118.574056 97.71096 
L 121.62778 98.48496 
L 124.681504 97.85544 
L 127.259532 99.10416 
L 129.686288 100.16712 
L 132.738457 102.23112 
L 135.779103 100.54896 
L 138.902632 100.70376 
L 141.931155 100.68312 
L 145.002304 100.95144 
L 148.049701 101.28168 
L 151.092433 101.71512 
L 154.145237 101.84928 
L 157.162239 101.034 
L 160.054829 100.54896 
L 163.304429 101.04432 
L 165.974565 100.81728 
L 169.407035 101.034 
L 172.457048 101.4984 
L 175.492923 101.33328 
L 178.527985 101.1372 
L 181.616593 101.06496 
L 184.679506 102.09696 
L 187.475254 102.05568 
L 190.775962 101.4984 
L 193.816078 100.60056 
L 196.864006 100.80696 
L 199.881749 101.45712 
L 203.004853 100.55928 
L 206.02705 101.10624 
L 209.087878 100.8792 
L 212.124495 100.74504 
L 215.184793 100.21872 
L 218.237068 100.53864 
L 221.267358 101.07528 
L 224.350736 101.38488 
L 227.413614 101.26104 
L 230.447722 100.78632 
L 233.500244 100.91016 
L 236.565984 100.99272 
L 239.613806 100.38384 
L 242.663465 100.50768 
L 245.775612 100.60056 
L 248.83796 99.76464 
L 251.838244 99.49632 
L 254.915259 99.40344 
L 257.969831 100.09488 
L 260.993831 100.3632 
L 264.02967 100.19808 
L 267.129059 100.47672 
L 270.189957 100.79664 
L 273.215406 100.26 
L 276.496568 99.83688 
L 279.36 100.13616 
" clip-path="url(#p1f08930ecd)" style="fill: none; stroke: #bebebe; stroke-width: 0.5; stroke-linecap: round"/>
   </g>
   <g id="line2d_6">
    <path d="M 8.64 76.15248 
L 11.693724 75.82224 
L 14.747448 75.84288 
L 17.801171 76.03896 
L 20.854895 75.51264 
L 23.908619 75.56424 
L 26.962343 75.05856 
L 30.016066 73.26288 
L 33.06979 73.20096 
L 36.123514 73.00488 
L 39.177238 71.68392 
L 42.230962 70.6932 
L 45.284685 72.62304 
L 48.338409 73.52088 
L 51.392133 73.83048 
L 54.445857 73.8408 
L 57.49958 73.29384 
L 60.553304 73.72728 
L 63.607028 70.32168 
L 66.660752 69.77472 
L 69.714476 70.34232 
L 72.768199 70.67256 
L 75.821923 70.51776 
L 78.875647 70.848 
L 81.929371 72.31344 
L 84.983095 76.01832 
L 88.036818 75.41976 
L 91.090542 75.83256 
L 94.144266 75.79128 
L 97.19799 75.82224 
L 100.251713 77.82432 
L 103.305437 76.14216 
L 106.359161 74.75928 
L 109.412885 74.96568 
L 112.466609 77.75208 
L 115.520332 79.48584 
L 118.574056 83.31456 
L 121.62778 85.90488 
L 124.681504 84.79032 
L 127.259532 85.84296 
L 129.686288 88.25784 
L 132.738457 91.41576 
L 135.779103 88.7532 
L 138.902632 88.65 
L 141.931155 88.55712 
L 145.002304 88.96992 
L 148.049701 89.7336 
L 151.092433 90.456 
L 154.145237 90.56952 
L 157.162239 89.15568 
L 160.054829 88.9596 
L 163.304429 90.6624 
L 165.974565 89.94 
L 169.407035 90.00192 
L 172.457048 90.3528 
L 175.492923 90.62112 
L 178.527985 90.5076 
L 181.616593 90.3528 
L 184.679506 92.004 
L 187.475254 92.13816 
L 190.775962 91.25064 
L 193.816078 89.166 
L 196.864006 89.56848 
L 199.881749 90.93072 
L 203.004853 89.41368 
L 206.02705 90.37344 
L 209.087878 89.79552 
L 212.124495 90.23928 
L 215.184793 88.0824 
L 218.237068 88.7532 
L 221.267358 90.16704 
L 224.350736 90.67272 
L 227.413614 90.18768 
L 230.447722 89.2692 
L 233.500244 89.54784 
L 236.565984 89.49624 
L 239.613806 88.31976 
L 242.663465 88.45392 
L 245.775612 88.46424 
L 248.83796 86.38992 
L 251.838244 84.80064 
L 254.915259 84.8316 
L 257.969831 86.586 
L 260.993831 87.74184 
L 264.02967 87.618 
L 267.129059 88.19592 
L 270.189957 89.08344 
L 273.215406 87.89664 
L 276.496568 87.3084 
L 279.36 87.65928 
" clip-path="url(#p1f08930ecd)" style="fill: none; stroke: #4a8dff; stroke-width: 0.6"/>
   </g>
   <g id="line2d_7">
    <path d="M 8.64 86.24544 
L 11.693724 85.72944 
L 14.747448 85.7088 
L 17.801171 86.40024 
L 20.854895 85.09992 
L 23.908619 86.02872 
L 26.962343 84.78 
L 30.016066 83.53128 
L 33.06979 82.83984 
L 36.123514 82.03488 
L 39.177238 79.39296 
L 42.230962 79.66128 
L 45.284685 82.15872 
L 48.338409 82.43736 
L 51.392133 82.93272 
L 54.445857 83.00496 
L 57.49958 82.6128 
L 60.553304 82.28256 
L 63.607028 78.01008 
L 66.660752 76.19376 
L 69.714476 77.66952 
L 72.768199 77.74176 
L 75.821923 78.1752 
L 78.875647 79.5684 
L 81.929371 80.8068 
L 84.983095 85.20312 
L 88.036818 84.12984 
L 91.090542 84.03696 
L 94.144266 84.06792 
L 97.19799 84.3156 
L 100.251713 87.02976 
L 103.305437 85.21344 
L 106.359161 84.28464 
L 109.412885 84.32592 
L 112.466609 89.08344 
L 115.520332 89.5272 
L 118.574056 95.14128 
L 121.62778 96.98856 
L 124.681504 95.08968 
L 127.259532 97.71096 
L 129.686288 99.80592 
L 132.738457 101.79768 
L 135.779103 100.03296 
L 138.902632 100.518 
L 141.931155 99.98136 
L 145.002304 100.49736 
L 148.049701 100.78632 
L 151.092433 101.07528 
L 154.145237 101.26104 
L 157.162239 100.63152 
L 160.054829 100.38384 
L 163.304429 100.84824 
L 165.974565 100.65216 
L 169.407035 101.034 
L 172.457048 101.19912 
L 175.492923 101.10624 
L 178.527985 100.97208 
L 181.616593 100.91016 
L 184.679506 101.7564 
L 187.475254 101.84928 
L 190.775962 101.56032 
L 193.816078 100.85856 
L 196.864006 101.12688 
L 199.881749 101.4468 
L 203.004853 101.02368 
L 206.02705 101.30232 
L 209.087878 100.81728 
L 212.124495 100.79664 
L 215.184793 99.3312 
L 218.237068 99.92976 
L 221.267358 100.78632 
L 224.350736 101.17848 
L 227.413614 101.1372 
L 230.447722 100.21872 
L 233.500244 100.37352 
L 236.565984 100.4664 
L 239.613806 99.88848 
L 242.663465 99.94008 
L 245.775612 99.81624 
L 248.83796 98.93904 
L 251.838244 98.3508 
L 254.915259 98.52624 
L 257.969831 99.78528 
L 260.993831 100.12584 
L 264.02967 100.03296 
L 267.129059 100.45608 
L 270.189957 100.83792 
L 273.215406 100.11552 
L 276.496568 99.87816 
L 279.36 100.002 
" clip-path="url(#p1f08930ecd)" style="fill: none; stroke: #f5841e; stroke-width: 0.6"/>
   </g>
  </g>
 </g>
 <defs>
  <clipPath id="p1f08930ecd">
   <rect x="8.64" y="4.8" width="270.72" height="103.2"/>
  </clipPath>
 </defs>
</svg>
