<?xml version="1.0" encoding="utf-8" standalone="no"?>
<!DOCTYPE svg PUBLIC "-//W3C//DTD SVG 1.1//EN"
  "http://www.w3.org/Graphics/SVG/1.1/DTD/svg11.dtd">
<svg xmlns:xlink="http://www.w3.org/1999/xlink" width="288pt" height="120pt" viewBox="0 0 288 120" xmlns="http://www.w3.org/2000/svg" version="1.1">
<desc id="nav-meta">{"window":"3m","count":4,"labels":["15.04","15.05","13.06","13.07"],"tick_utc":["2026-04-15T03:52:26Z","2026-05-15T04:39:19Z","2026-06-13T05:09:20Z","2026-07-13T04:20:46Z"],"w":720,"h":300}</desc>

 <metadata>
  <rdf:RDF xmlns:dc="http://purl.org/dc/elements/1.1/" xmlns:cc="http://creativecommons.org/ns#" xmlns:rdf="http://www.w3.org/1999/02/22-rdf-syntax-ns#">
   <cc:Work>
    <dc:type rdf:resource="http://purl.org/dc/dcmitype/StillImage"/>
    <dc:date>2026-07-13T20:02:15.807620</dc:date>
    <dc:format>image/svg+xml</dc:format>
    <dc:creator>
     <cc:Agent>
      <dc:title>Matplotlib v3.11.0, https://matplotlib.org/</dc:title>
     </cc:Agent>
    </dc:creator>
   </cc:Work>
  </rdf:RDF>
 </metadata>
 <defs>
  <style type="text/css">*{stroke-linejoin: round; stroke-linecap: butt}</style>
 </defs>
 <g id="figure_1">
  <g id="patch_1">
   <path d="M 0 120 
L 288 120 
L 288 0 
L 0 0 
L 0 120 
z
" style="fill: none; opacity: 0"/>
  </g>
  <g id="axes_1">
   <g id="patch_2">
    <path d="M 8.64 108 
L 279.36 108 
L 279.36 4.8 
L 8.64 4.8 
L 8.64 108 
z
" style="fill: none"/>
   </g>
   <g id="matplotlib.axis_1"/>
   <g id="matplotlib.axis_2"/>
   <g id="line2d_1">
    <path d="M 8.64 87.36 
L 279.36 87.36 
" clip-path="url(#paa3d18fe89)" style="fill: none; stroke: #b2b2b2; stroke-opacity: 0.35; stroke-width: 0.5; stroke-linecap: square"/>
   </g>
   <g id="line2d_2">
    <path d="M 8.64 66.72 
L 279.36 66.72 
" clip-path="url(#paa3d18fe89)" style="fill: none; stroke: #b2b2b2; stroke-opacity: 0.35; stroke-width: 0.5; stroke-linecap: square"/>
   </g>
   <g id="line2d_3">
    <path d="M 8.64 46.08 
L 279.36 46.08 
" clip-path="url(#paa3d18fe89)" style="fill: none; stroke: #b2b2b2; stroke-opacity: 0.35; stroke-width: 0.5; stroke-linecap: square"/>
   </g>
   <g id="line2d_4">
    <path d="M 8.64 25.44 
L 279.36 25.44 
" clip-path="url(#paa3d18fe89)" style="fill: none; stroke: #b2b2b2; stroke-opacity: 0.35; stroke-width: 0.5; stroke-linecap: square"/>
   </g>
   <g id="line2d_5">
    <path d="M 8.64 101.26104 
L 11.69429 100.99272 
L 14.72922 100.61088 
L 17.736802 100.44576 
L 20.818088 100.94112 
L 23.866746 101.09592 
L 26.894531 101.00304 
L 29.926224 100.69344 
L 32.979668 100.9308 
L 36.028854 100.92048 
L 39.03369 100.81728 
L 42.122122 100.8792 
L 45.196017 100.64184 
L 48.243513 101.1888 
L 51.276332 101.09592 
L 54.322561 101.37456 
L 57.396914 101.21976 
L 60.360427 101.20944 
L 63.46329 101.23008 
L 66.50336 100.92048 
L 69.477503 101.06496 
L 72.5722 100.70376 
L 75.614135 100.55928 
L 78.604645 100.53864 
L 81.656894 99.60984 
L 84.759299 99.72336 
L 87.82443 99.44472 
L 90.823317 99.25896 
L 93.878909 99.32088 
L 96.916656 100.22904 
L 99.972775 100.01232 
L 102.975077 100.43544 
L 106.061608 100.75536 
L 109.132265 101.02368 
L 112.151603 101.02368 
L 115.203604 101.17848 
L 118.262047 100.7244 
L 121.279872 100.75536 
L 124.279217 101.11656 
L 127.368493 100.91016 
L 130.449639 100.89984 
L 133.44469 101.1372 
L 136.517036 101.2404 
L 139.548447 101.6532 
L 142.591825 101.4984 
L 145.589094 101.48808 
L 148.692309 101.32296 
L 151.778417 101.51904 
L 154.789624 101.7048 
L 157.864962 102.54072 
L 160.895669 103.08768 
L 163.886708 103.36632 
L 166.88109 104.22288 
L 169.987578 103.85136 
L 173.042149 103.68624 
L 176.025233 103.43856 
L 179.097896 103.81008 
L 182.156867 103.72752 
L 185.209925 103.50048 
L 188.228805 103.5108 
L 191.291999 103.31472 
L 194.434214 102.95352 
L 197.492692 102.61296 
L 200.436952 102.6336 
L 203.463506 102.9948 
L 206.576259 103.28376 
L 209.495775 103.01544 
L 212.600187 102.69552 
L 215.730329 102.582 
L 218.589655 102.88128 
L 221.641657 103.15992 
L 224.681973 103.36632 
L 227.738691 103.36632 
L 230.742542 102.81936 
L 233.841638 103.0464 
L 236.904763 102.9432 
L 239.886931 102.59232 
L 242.972547 102.40656 
L 245.960418 102.02472 
L 248.968457 101.68416 
L 251.996488 101.3436 
L 255.08214 101.6532 
L 258.152726 101.6532 
L 261.148234 101.63256 
L 264.106714 101.95248 
L 267.240024 102.08664 
L 270.274286 101.9112 
L 273.225621 102.066 
L 276.312222 102.18984 
L 279.36 102.31368 
" clip-path="url(#paa3d18fe89)" style="fill: none; stroke: #bebebe; stroke-width: 0.5; stroke-linecap: round"/>
   </g>
   <g id="line2d_6">
    <path d="M 8.64 85.05864 
L 11.69429 84.58392 
L 14.72922 85.04832 
L 17.736802 83.71704 
L 20.818088 84.86256 
L 23.866746 85.6572 
L 26.894531 85.27536 
L 29.926224 84.49104 
L 32.979668 84.86256 
L 36.028854 85.32696 
L 39.03369 85.17216 
L 42.122122 85.31664 
L 45.196017 84.11952 
L 48.243513 85.66752 
L 51.276332 85.26504 
L 54.322561 86.26608 
L 57.396914 85.77072 
L 60.360427 85.38888 
L 63.46329 85.3992 
L 66.50336 84.09888 
L 69.477503 84.22272 
L 72.5722 84.34656 
L 75.614135 85.06896 
L 78.604645 85.7604 
L 81.656894 85.0896 
L 84.759299 85.01736 
L 87.82443 84.9348 
L 90.823317 85.296 
L 93.878909 85.35792 
L 96.916656 86.1732 
L 99.972775 85.92552 
L 102.975077 86.55504 
L 106.061608 87.13296 
L 109.132265 88.10304 
L 112.151603 87.9276 
L 115.203604 88.26816 
L 118.262047 87.78312 
L 121.279872 87.95856 
L 124.279217 88.94928 
L 127.368493 88.14432 
L 130.449639 88.33008 
L 133.44469 88.52616 
L 136.517036 88.86672 
L 139.548447 90.22896 
L 142.591825 89.82648 
L 145.589094 89.87808 
L 148.692309 89.46528 
L 151.778417 90.0432 
L 154.789624 89.96064 
L 157.864962 91.99368 
L 160.895669 93.05664 
L 163.886708 93.74808 
L 166.88109 97.02984 
L 169.987578 95.93592 
L 173.042149 95.07936 
L 176.025233 94.46016 
L 179.097896 95.47152 
L 182.156867 95.11032 
L 185.209925 94.82136 
L 188.228805 94.8936 
L 191.291999 94.70784 
L 194.434214 94.04736 
L 197.492692 93.40752 
L 200.436952 92.9844 
L 203.463506 93.93384 
L 206.576259 94.4292 
L 209.495775 94.19184 
L 212.600187 93.87192 
L 215.730329 93.81 
L 218.589655 94.03704 
L 221.641657 94.83168 
L 224.681973 95.48184 
L 227.738691 96.63768 
L 230.742542 96.14232 
L 233.841638 96.30744 
L 236.904763 96.29712 
L 239.886931 96.04944 
L 242.972547 95.9256 
L 245.960418 95.39928 
L 248.968457 94.31568 
L 251.996488 93.57264 
L 255.08214 93.32496 
L 258.152726 93.22176 
L 261.148234 93.35592 
L 264.106714 93.61392 
L 267.240024 93.77904 
L 270.274286 93.26304 
L 273.225621 92.92248 
L 276.312222 92.71608 
L 279.36 93.15984 
" clip-path="url(#paa3d18fe89)" style="fill: none; stroke: #4a8dff; stroke-width: 0.6"/>
   </g>
   <g id="line2d_7">
    <path d="M 8.64 98.65008 
L 11.69429 98.38176 
L 14.72922 98.48496 
L 17.736802 96.70992 
L 20.818088 98.05152 
L 23.866746 98.48496 
L 26.894531 97.96896 
L 29.926224 96.32808 
L 32.979668 96.20424 
L 36.028854 96.16296 
L 39.03369 96.1836 
L 42.122122 96.50352 
L 45.196017 94.76976 
L 48.243513 97.19496 
L 51.276332 96.9576 
L 54.322561 97.9896 
L 57.396914 96.89568 
L 60.360427 95.45088 
L 63.46329 95.67792 
L 66.50336 93.43848 
L 69.477503 92.90184 
L 72.5722 92.25168 
L 75.614135 92.87088 
L 78.604645 94.2744 
L 81.656894 93.1392 
L 84.759299 92.97408 
L 87.82443 92.9844 
L 90.823317 92.60256 
L 93.878909 92.53032 
L 96.916656 94.54272 
L 99.972775 92.85024 
L 102.975077 94.82136 
L 106.061608 95.75016 
L 109.132265 96.97824 
L 112.151603 97.08144 
L 115.203604 97.23624 
L 118.262047 95.94624 
L 121.279872 96.30744 
L 124.279217 98.08248 
L 127.368493 97.2672 
L 130.449639 96.61704 
L 133.44469 97.23624 
L 136.517036 98.08248 
L 139.548447 99.18672 
L 142.591825 99.03192 
L 145.589094 99.1248 
L 148.692309 98.74296 
L 151.778417 99.09384 
L 154.789624 100.0536 
L 157.864962 101.23008 
L 160.895669 101.99376 
L 163.886708 102.08664 
L 166.88109 102.8916 
L 169.987578 102.45816 
L 173.042149 102.28272 
L 176.025233 102.10728 
L 179.097896 102.582 
L 182.156867 102.29304 
L 185.209925 102.08664 
L 188.228805 102.066 
L 191.291999 101.86992 
L 194.434214 101.48808 
L 197.492692 101.40552 
L 200.436952 101.4984 
L 203.463506 101.97312 
L 206.576259 102.26208 
L 209.495775 102.066 
L 212.600187 101.90088 
L 215.730329 101.90088 
L 218.589655 102.0144 
L 221.641657 102.25176 
L 224.681973 102.6336 
L 227.738691 102.88128 
L 230.742542 102.77808 
L 233.841638 102.85032 
L 236.904763 102.93288 
L 239.886931 102.95352 
L 242.972547 103.00512 
L 245.960418 102.69552 
L 248.968457 102.55104 
L 251.996488 102.2724 
L 255.08214 102.21048 
L 258.152726 102.12792 
L 261.148234 102.13824 
L 264.106714 102.25176 
L 267.240024 102.36528 
L 270.274286 101.94216 
L 273.225621 101.92152 
L 276.312222 101.9112 
L 279.36 102.2208 
" clip-path="url(#paa3d18fe89)" style="fill: none; stroke: #f5841e; stroke-width: 0.6"/>
   </g>
  </g>
 </g>
 <defs>
  <clipPath id="paa3d18fe89">
   <rect x="8.64" y="4.8" width="270.72" height="103.2"/>
  </clipPath>
 </defs>
</svg>
