<?xml version="1.0" encoding="utf-8" standalone="no"?>
<!DOCTYPE svg PUBLIC "-//W3C//DTD SVG 1.1//EN"
  "http://www.w3.org/Graphics/SVG/1.1/DTD/svg11.dtd">
<svg xmlns:xlink="http://www.w3.org/1999/xlink" width="288pt" height="120pt" viewBox="0 0 288 120" xmlns="http://www.w3.org/2000/svg" version="1.1">
<desc id="nav-meta">{"window":"1m","count":4,"labels":["12.02","22.02","03.03","13.03"],"tick_utc":["2026-02-12T03:34:13Z","2026-02-22T03:28:03Z","2026-03-03T03:22:17Z","2026-03-13T03:16:57Z"],"w":720,"h":300}</desc>

 <metadata>
  <rdf:RDF xmlns:dc="http://purl.org/dc/elements/1.1/" xmlns:cc="http://creativecommons.org/ns#" xmlns:rdf="http://www.w3.org/1999/02/22-rdf-syntax-ns#">
   <cc:Work>
    <dc:type rdf:resource="http://purl.org/dc/dcmitype/StillImage"/>
    <dc:date>2026-03-13T13:45:30.167659</dc:date>
    <dc:format>image/svg+xml</dc:format>
    <dc:creator>
     <cc:Agent>
      <dc:title>Matplotlib v3.10.8, https://matplotlib.org/</dc:title>
     </cc:Agent>
    </dc:creator>
   </cc:Work>
  </rdf:RDF>
 </metadata>
 <defs>
  <style type="text/css">*{stroke-linejoin: round; stroke-linecap: butt}</style>
 </defs>
 <g id="figure_1">
  <g id="patch_1">
   <path d="M 0 120 
L 288 120 
L 288 0 
L 0 0 
L 0 120 
z
" style="fill: none; opacity: 0"/>
  </g>
  <g id="axes_1">
   <g id="patch_2">
    <path d="M 8.64 108 
L 279.36 108 
L 279.36 4.8 
L 8.64 4.8 
L 8.64 108 
z
" style="fill: none"/>
   </g>
   <g id="matplotlib.axis_1"/>
   <g id="matplotlib.axis_2"/>
   <g id="line2d_1">
    <path d="M 8.64 87.36 
L 279.36 87.36 
" clip-path="url(#pad7a934a08)" style="fill: none; stroke: #b2b2b2; stroke-opacity: 0.35; stroke-width: 0.5; stroke-linecap: square"/>
   </g>
   <g id="line2d_2">
    <path d="M 8.64 66.72 
L 279.36 66.72 
" clip-path="url(#pad7a934a08)" style="fill: none; stroke: #b2b2b2; stroke-opacity: 0.35; stroke-width: 0.5; stroke-linecap: square"/>
   </g>
   <g id="line2d_3">
    <path d="M 8.64 46.08 
L 279.36 46.08 
" clip-path="url(#pad7a934a08)" style="fill: none; stroke: #b2b2b2; stroke-opacity: 0.35; stroke-width: 0.5; stroke-linecap: square"/>
   </g>
   <g id="line2d_4">
    <path d="M 8.64 25.44 
L 279.36 25.44 
" clip-path="url(#pad7a934a08)" style="fill: none; stroke: #b2b2b2; stroke-opacity: 0.35; stroke-width: 0.5; stroke-linecap: square"/>
   </g>
   <g id="line2d_5">
    <path d="M 8.64 101.71512 
L 17.976224 101.84928 
L 27.202951 101.034 
L 36.0492 100.54896 
L 45.987272 101.04432 
L 54.153198 100.81728 
L 64.650531 101.034 
L 73.978216 101.4984 
L 83.262664 101.33328 
L 92.544626 101.1372 
L 101.990345 101.06496 
L 111.357482 102.09696 
L 119.907563 102.05568 
L 130.001934 101.4984 
L 139.299353 100.60056 
L 148.62066 100.80696 
L 157.849658 101.45712 
L 167.400873 100.55928 
L 176.64349 101.10624 
L 186.00425 100.8792 
L 195.290968 100.74504 
L 204.650107 100.21872 
L 213.984709 100.53864 
L 223.252079 101.07528 
L 232.681801 101.38488 
L 242.04883 101.26104 
L 251.327874 100.78632 
L 260.663233 100.91016 
L 270.039017 100.99272 
L 279.36 100.38384 
" clip-path="url(#pad7a934a08)" style="fill: none; stroke: #bebebe; stroke-width: 0.5; stroke-linecap: round"/>
   </g>
   <g id="line2d_6">
    <path d="M 8.64 90.456 
L 17.976224 90.56952 
L 27.202951 89.15568 
L 36.0492 88.9596 
L 45.987272 90.6624 
L 54.153198 89.94 
L 64.650531 90.00192 
L 73.978216 90.3528 
L 83.262664 90.62112 
L 92.544626 90.5076 
L 101.990345 90.3528 
L 111.357482 92.004 
L 119.907563 92.13816 
L 130.001934 91.25064 
L 139.299353 89.166 
L 148.62066 89.56848 
L 157.849658 90.93072 
L 167.400873 89.41368 
L 176.64349 90.37344 
L 186.00425 89.79552 
L 195.290968 90.23928 
L 204.650107 88.0824 
L 213.984709 88.7532 
L 223.252079 90.16704 
L 232.681801 90.67272 
L 242.04883 90.18768 
L 251.327874 89.2692 
L 260.663233 89.54784 
L 270.039017 89.49624 
L 279.36 88.31976 
" clip-path="url(#pad7a934a08)" style="fill: none; stroke: #4a8dff; stroke-width: 0.6"/>
   </g>
   <g id="line2d_7">
    <path d="M 8.64 101.07528 
L 17.976224 101.26104 
L 27.202951 100.63152 
L 36.0492 100.38384 
L 45.987272 100.84824 
L 54.153198 100.65216 
L 64.650531 101.034 
L 73.978216 101.19912 
L 83.262664 101.10624 
L 92.544626 100.97208 
L 101.990345 100.91016 
L 111.357482 101.7564 
L 119.907563 101.84928 
L 130.001934 101.56032 
L 139.299353 100.85856 
L 148.62066 101.12688 
L 157.849658 101.4468 
L 167.400873 101.02368 
L 176.64349 101.30232 
L 186.00425 100.81728 
L 195.290968 100.79664 
L 204.650107 99.3312 
L 213.984709 99.92976 
L 223.252079 100.78632 
L 232.681801 101.17848 
L 242.04883 101.1372 
L 251.327874 100.21872 
L 260.663233 100.37352 
L 270.039017 100.4664 
L 279.36 99.88848 
" clip-path="url(#pad7a934a08)" style="fill: none; stroke: #f5841e; stroke-width: 0.6"/>
   </g>
  </g>
 </g>
 <defs>
  <clipPath id="pad7a934a08">
   <rect x="8.64" y="4.8" width="270.72" height="103.2"/>
  </clipPath>
 </defs>
</svg>
