<?xml version="1.0" encoding="utf-8" standalone="no"?>
<!DOCTYPE svg PUBLIC "-//W3C//DTD SVG 1.1//EN"
  "http://www.w3.org/Graphics/SVG/1.1/DTD/svg11.dtd">
<svg xmlns:xlink="http://www.w3.org/1999/xlink" width="288pt" height="120pt" viewBox="0 0 288 120" xmlns="http://www.w3.org/2000/svg" version="1.1">
<desc id="nav-meta">{"window":"1m","count":4,"labels":["04.04","14.04","23.04","03.05"],"tick_utc":["2026-04-04T03:24:53Z","2026-04-14T03:53:32Z","2026-04-23T03:57:29Z","2026-05-03T04:31:45Z"],"w":720,"h":300}</desc>

 <metadata>
  <rdf:RDF xmlns:dc="http://purl.org/dc/elements/1.1/" xmlns:cc="http://creativecommons.org/ns#" xmlns:rdf="http://www.w3.org/1999/02/22-rdf-syntax-ns#">
   <cc:Work>
    <dc:type rdf:resource="http://purl.org/dc/dcmitype/StillImage"/>
    <dc:date>2026-05-03T13:59:02.857549</dc:date>
    <dc:format>image/svg+xml</dc:format>
    <dc:creator>
     <cc:Agent>
      <dc:title>Matplotlib v3.10.9, https://matplotlib.org/</dc:title>
     </cc:Agent>
    </dc:creator>
   </cc:Work>
  </rdf:RDF>
 </metadata>
 <defs>
  <style type="text/css">*{stroke-linejoin: round; stroke-linecap: butt}</style>
 </defs>
 <g id="figure_1">
  <g id="patch_1">
   <path d="M 0 120 
L 288 120 
L 288 0 
L 0 0 
L 0 120 
z
" style="fill: none; opacity: 0"/>
  </g>
  <g id="axes_1">
   <g id="patch_2">
    <path d="M 8.64 108 
L 279.36 108 
L 279.36 4.8 
L 8.64 4.8 
L 8.64 108 
z
" style="fill: none"/>
   </g>
   <g id="matplotlib.axis_1"/>
   <g id="matplotlib.axis_2"/>
   <g id="line2d_1">
    <path d="M 8.64 87.36 
L 279.36 87.36 
" clip-path="url(#pedc4992839)" style="fill: none; stroke: #b2b2b2; stroke-opacity: 0.35; stroke-width: 0.5; stroke-linecap: square"/>
   </g>
   <g id="line2d_2">
    <path d="M 8.64 66.72 
L 279.36 66.72 
" clip-path="url(#pedc4992839)" style="fill: none; stroke: #b2b2b2; stroke-opacity: 0.35; stroke-width: 0.5; stroke-linecap: square"/>
   </g>
   <g id="line2d_3">
    <path d="M 8.64 46.08 
L 279.36 46.08 
" clip-path="url(#pedc4992839)" style="fill: none; stroke: #b2b2b2; stroke-opacity: 0.35; stroke-width: 0.5; stroke-linecap: square"/>
   </g>
   <g id="line2d_4">
    <path d="M 8.64 25.44 
L 279.36 25.44 
" clip-path="url(#pedc4992839)" style="fill: none; stroke: #b2b2b2; stroke-opacity: 0.35; stroke-width: 0.5; stroke-linecap: square"/>
   </g>
   <g id="line2d_5">
    <path d="M 8.64 101.72544 
L 18.100592 101.68416 
L 27.444896 101.47776 
L 36.704628 101.78736 
L 46.039979 101.09592 
L 55.327758 101.46744 
L 64.733766 101.3436 
L 73.911514 101.05464 
L 83.398966 101.3952 
L 92.767003 101.47776 
L 102.027921 100.86888 
L 111.34105 101.26104 
L 120.701644 100.99272 
L 130.002907 100.61088 
L 139.220352 100.44576 
L 148.663684 100.94112 
L 158.007018 101.09592 
L 167.286383 101.00304 
L 176.577721 100.69344 
L 185.935726 100.9308 
L 195.280677 100.92048 
L 204.489709 100.81728 
L 213.954939 100.8792 
L 223.375618 100.64184 
L 232.715391 101.1888 
L 242.010182 101.09592 
L 251.346072 101.37456 
L 260.768153 101.21976 
L 269.850542 101.20944 
L 279.36 101.23008 
" clip-path="url(#pedc4992839)" style="fill: none; stroke: #bebebe; stroke-width: 0.5; stroke-linecap: round"/>
   </g>
   <g id="line2d_6">
    <path d="M 8.64 89.14536 
L 18.100592 89.07312 
L 27.444896 87.9792 
L 36.704628 88.29912 
L 46.039979 86.38992 
L 55.327758 87.24648 
L 64.733766 87.1536 
L 73.911514 86.21448 
L 83.398966 86.66856 
L 92.767003 87.01944 
L 102.027921 84.44976 
L 111.34105 85.05864 
L 120.701644 84.58392 
L 130.002907 85.04832 
L 139.220352 83.71704 
L 148.663684 84.86256 
L 158.007018 85.6572 
L 167.286383 85.27536 
L 176.577721 84.49104 
L 185.935726 84.86256 
L 195.280677 85.32696 
L 204.489709 85.17216 
L 213.954939 85.31664 
L 223.375618 84.11952 
L 232.715391 85.66752 
L 242.010182 85.26504 
L 251.346072 86.26608 
L 260.768153 85.77072 
L 269.850542 85.38888 
L 279.36 85.3992 
" clip-path="url(#pedc4992839)" style="fill: none; stroke: #4a8dff; stroke-width: 0.6"/>
   </g>
   <g id="line2d_7">
    <path d="M 8.64 101.20944 
L 18.100592 101.14752 
L 27.444896 100.55928 
L 36.704628 100.65216 
L 46.039979 99.80592 
L 55.327758 99.96072 
L 64.733766 99.6408 
L 73.911514 99.1764 
L 83.398966 99.70272 
L 92.767003 99.94008 
L 102.027921 98.57784 
L 111.34105 98.65008 
L 120.701644 98.38176 
L 130.002907 98.48496 
L 139.220352 96.70992 
L 148.663684 98.05152 
L 158.007018 98.48496 
L 167.286383 97.96896 
L 176.577721 96.32808 
L 185.935726 96.20424 
L 195.280677 96.16296 
L 204.489709 96.1836 
L 213.954939 96.50352 
L 223.375618 94.76976 
L 232.715391 97.19496 
L 242.010182 96.9576 
L 251.346072 97.9896 
L 260.768153 96.89568 
L 269.850542 95.45088 
L 279.36 95.67792 
" clip-path="url(#pedc4992839)" style="fill: none; stroke: #f5841e; stroke-width: 0.6"/>
   </g>
  </g>
 </g>
 <defs>
  <clipPath id="pedc4992839">
   <rect x="8.64" y="4.8" width="270.72" height="103.2"/>
  </clipPath>
 </defs>
</svg>
