<?xml version="1.0" encoding="utf-8" standalone="no"?>
<!DOCTYPE svg PUBLIC "-//W3C//DTD SVG 1.1//EN"
  "http://www.w3.org/Graphics/SVG/1.1/DTD/svg11.dtd">
<svg xmlns:xlink="http://www.w3.org/1999/xlink" width="288pt" height="120pt" viewBox="0 0 288 120" xmlns="http://www.w3.org/2000/svg" version="1.1">
<desc id="nav-meta">{"window":"1y","count":4,"labels":["16.07","15.11","16.03","16.07"],"tick_utc":["2025-07-16T12:00:00Z","2025-11-15T12:00:00Z","2026-03-16T03:46:39Z","2026-07-16T03:51:26Z"],"w":720,"h":300}</desc>

 <metadata>
  <rdf:RDF xmlns:dc="http://purl.org/dc/elements/1.1/" xmlns:cc="http://creativecommons.org/ns#" xmlns:rdf="http://www.w3.org/1999/02/22-rdf-syntax-ns#">
   <cc:Work>
    <dc:type rdf:resource="http://purl.org/dc/dcmitype/StillImage"/>
    <dc:date>2026-07-16T08:59:53.786883</dc:date>
    <dc:format>image/svg+xml</dc:format>
    <dc:creator>
     <cc:Agent>
      <dc:title>Matplotlib v3.11.0, https://matplotlib.org/</dc:title>
     </cc:Agent>
    </dc:creator>
   </cc:Work>
  </rdf:RDF>
 </metadata>
 <defs>
  <style type="text/css">*{stroke-linejoin: round; stroke-linecap: butt}</style>
 </defs>
 <g id="figure_1">
  <g id="patch_1">
   <path d="M 0 120 
L 288 120 
L 288 0 
L 0 0 
L 0 120 
z
" style="fill: none; opacity: 0"/>
  </g>
  <g id="axes_1">
   <g id="patch_2">
    <path d="M 8.64 108 
L 279.36 108 
L 279.36 4.8 
L 8.64 4.8 
L 8.64 108 
z
" style="fill: none"/>
   </g>
   <g id="matplotlib.axis_1"/>
   <g id="matplotlib.axis_2"/>
   <g id="line2d_1">
    <path d="M 8.64 87.36 
L 279.36 87.36 
" clip-path="url(#p1a01971197)" style="fill: none; stroke: #b2b2b2; stroke-opacity: 0.35; stroke-width: 0.5; stroke-linecap: square"/>
   </g>
   <g id="line2d_2">
    <path d="M 8.64 66.72 
L 279.36 66.72 
" clip-path="url(#p1a01971197)" style="fill: none; stroke: #b2b2b2; stroke-opacity: 0.35; stroke-width: 0.5; stroke-linecap: square"/>
   </g>
   <g id="line2d_3">
    <path d="M 8.64 46.08 
L 279.36 46.08 
" clip-path="url(#p1a01971197)" style="fill: none; stroke: #b2b2b2; stroke-opacity: 0.35; stroke-width: 0.5; stroke-linecap: square"/>
   </g>
   <g id="line2d_4">
    <path d="M 8.64 25.44 
L 279.36 25.44 
" clip-path="url(#p1a01971197)" style="fill: none; stroke: #b2b2b2; stroke-opacity: 0.35; stroke-width: 0.5; stroke-linecap: square"/>
   </g>
   <g id="line2d_5">
    <path d="M 8.64 81.70464 
L 9.382389 79.01112 
L 10.124777 78.39192 
L 10.867166 78.04104 
L 11.609555 78.16488 
L 12.351944 77.05032 
L 13.094332 72.82944 
L 13.836721 70.41456 
L 14.57911 74.69736 
L 15.321498 76.6272 
L 16.063887 75.63648 
L 16.806276 75.97704 
L 17.548665 74.976 
L 18.291053 76.49304 
L 19.033442 76.99872 
L 19.775831 77.90688 
L 20.518219 79.4652 
L 21.260608 82.02456 
L 22.002997 83.19072 
L 22.745386 82.27224 
L 23.487774 80.21856 
L 24.230163 81.67368 
L 24.972552 80.5488 
L 25.71494 78.588 
L 26.457329 78.19584 
L 27.199718 77.21544 
L 27.942106 76.524 
L 28.684495 78.68088 
L 29.426884 73.88208 
L 30.169273 71.364 
L 30.911661 73.8408 
L 31.65405 75.79128 
L 32.396439 74.65608 
L 33.138827 74.14008 
L 33.881216 76.50336 
L 34.623605 78.30936 
L 35.365994 75.3372 
L 36.108382 77.25672 
L 36.850771 71.78712 
L 37.59316 70.75512 
L 38.335548 70.24944 
L 39.077937 75.35784 
L 39.820326 72.95328 
L 40.562715 70.96152 
L 41.305103 67.87584 
L 42.047492 70.46616 
L 42.789881 71.11632 
L 43.532269 71.61168 
L 44.274658 72.7056 
L 45.017047 69.33096 
L 45.759436 68.9388 
L 46.501824 71.12664 
L 47.244213 70.90992 
L 47.986602 71.80776 
L 48.72899 70.074 
L 49.471379 68.01 
L 50.213768 67.10184 
L 50.956157 65.29584 
L 51.698545 64.01616 
L 52.440934 60.31128 
L 53.183323 60.19776 
L 53.925711 60.786 
L 54.6681 62.61264 
L 55.410489 61.74576 
L 56.152877 59.57856 
L 56.895266 58.86648 
L 57.637655 61.38456 
L 58.380044 61.07496 
L 59.122432 61.83864 
L 59.864821 66.29688 
L 60.60721 67.97904 
L 61.349598 68.69112 
L 62.091987 73.9956 
L 62.834376 70.45584 
L 63.576765 70.87896 
L 64.319153 68.91816 
L 65.061542 68.3196 
L 65.803931 69.47544 
L 67.288708 62.39592 
L 68.031097 62.81904 
L 68.773486 64.22256 
L 69.515874 64.05744 
L 70.258263 62.9532 
L 71.000652 66.14208 
L 71.74304 63.91296 
L 72.485429 66.17304 
L 73.227818 74.6148 
L 73.970207 77.78304 
L 74.712595 72.66432 
L 75.454984 69.69216 
L 76.197373 71.09568 
L 77.68215 76.06992 
L 78.424539 76.76136 
L 79.166928 75.25464 
L 79.909316 75.24432 
L 80.651705 74.63544 
L 81.394094 75.73968 
L 82.136482 77.31864 
L 82.878871 74.202 
L 83.62126 73.64472 
L 84.363648 73.48992 
L 85.106037 71.83872 
L 85.848426 72.17928 
L 86.590815 73.38672 
L 87.333203 73.43832 
L 88.075592 76.15248 
L 88.817981 75.3372 
L 89.560369 75.58488 
L 90.302758 75.35784 
L 91.045147 81.168 
L 91.787536 84.01632 
L 92.529924 82.06584 
L 93.272313 84.19176 
L 94.014702 82.27224 
L 94.75709 83.29392 
L 95.499479 81.62208 
L 96.241868 80.72424 
L 96.984257 84.33624 
L 97.726645 84.64584 
L 98.469034 86.844 
L 99.211423 88.52616 
L 99.953811 88.36104 
L 100.6962 88.93896 
L 101.438589 90.79656 
L 102.180978 88.09272 
L 102.923366 89.22792 
L 103.665755 90.00192 
L 104.408144 91.39512 
L 105.150532 91.63248 
L 105.892921 90.75528 
L 106.63531 88.7016 
L 107.377699 88.52616 
L 108.120087 87.45288 
L 108.862476 88.0308 
L 109.604865 88.94928 
L 111.089642 89.7336 
L 111.832031 91.86984 
L 112.57442 88.60872 
L 113.316808 86.87496 
L 114.801586 90.11544 
L 116.286363 90.53856 
L 117.028752 90.08448 
L 117.77114 88.79448 
L 118.513529 89.20728 
L 119.255918 89.22792 
L 119.998307 90.31152 
L 120.740695 90.10512 
L 121.483084 91.09584 
L 122.225473 91.61184 
L 122.967861 91.31256 
L 123.71025 92.87088 
L 124.452639 93.8616 
L 125.195028 92.02464 
L 125.937416 92.13816 
L 126.679805 92.07624 
L 127.422194 92.14848 
L 129.64936 93.69648 
L 131.134137 92.44776 
L 131.876526 92.30328 
L 132.618915 92.87088 
L 133.361303 92.38584 
L 134.103692 92.47872 
L 134.846081 91.88016 
L 135.58847 90.42504 
L 136.330858 90.08448 
L 137.073247 89.92968 
L 137.815636 88.76352 
L 138.558024 87.94824 
L 139.300413 89.2692 
L 140.042802 88.72224 
L 140.785191 89.39304 
L 141.527579 89.40336 
L 142.269968 88.41264 
L 143.012357 88.4952 
L 143.754745 86.86464 
L 144.497134 86.42088 
L 145.239523 87.62832 
L 145.981911 86.93688 
L 146.7243 87.23616 
L 148.209078 90.0432 
L 148.951466 92.12784 
L 149.693855 91.16808 
L 151.178632 91.73568 
L 151.921021 91.78728 
L 152.66341 94.0164 
L 153.405799 92.5716 
L 154.148187 91.76664 
L 154.890576 92.33424 
L 155.632965 94.36728 
L 156.375353 94.46016 
L 157.117742 97.71096 
L 157.860131 98.48496 
L 158.60252 97.85544 
L 159.819229 100.16712 
L 160.56124 102.23112 
L 161.30045 100.54896 
L 162.059808 100.70376 
L 162.796071 100.68312 
L 164.283546 101.28168 
L 165.023263 101.71512 
L 165.765428 101.84928 
L 166.498889 101.034 
L 167.202105 100.54896 
L 167.992113 101.04432 
L 168.641248 100.81728 
L 169.475713 101.034 
L 170.2172 101.4984 
L 172.44397 101.06496 
L 173.188593 102.09696 
L 173.868266 102.05568 
L 174.670698 101.4984 
L 175.409779 100.60056 
L 176.150759 100.80696 
L 176.8844 101.45712 
L 177.643656 100.55928 
L 178.37838 101.10624 
L 179.860726 100.74504 
L 180.604713 100.21872 
L 181.346749 100.53864 
L 182.083441 101.07528 
L 182.833039 101.38488 
L 183.577653 101.26104 
L 184.315273 100.78632 
L 185.80268 100.99272 
L 186.543633 100.38384 
L 188.041626 100.60056 
L 188.786111 99.76464 
L 189.515508 99.49632 
L 190.263559 99.40344 
L 191.006154 100.09488 
L 191.741317 100.3632 
L 192.479358 100.19808 
L 193.976981 100.79664 
L 194.712496 100.26 
L 195.510177 99.83688 
L 196.206304 100.13616 
L 197.68492 101.38488 
L 200.668395 101.28168 
L 201.401005 101.8596 
L 202.144245 101.88024 
L 202.880275 101.72544 
L 203.633843 101.68416 
L 204.378147 101.47776 
L 205.115716 101.78736 
L 205.859307 101.09592 
L 206.59911 101.46744 
L 207.348329 101.3436 
L 208.079367 101.05464 
L 208.835075 101.3952 
L 209.58127 101.47776 
L 210.318933 100.86888 
L 211.060754 101.26104 
L 213.281433 100.44576 
L 214.033626 100.94112 
L 214.777853 101.09592 
L 215.516985 101.00304 
L 216.257071 100.69344 
L 217.002467 100.9308 
L 219.234291 100.8792 
L 219.984679 100.64184 
L 220.728623 101.1888 
L 221.468984 101.09592 
L 222.212618 101.37456 
L 222.963118 101.21976 
L 224.444021 101.23008 
L 225.186152 100.92048 
L 225.912189 101.06496 
L 226.667655 100.70376 
L 227.410242 100.55928 
L 228.140274 100.53864 
L 228.885378 99.60984 
L 229.642726 99.72336 
L 231.123053 99.25896 
L 231.868973 99.32088 
L 232.610537 100.22904 
L 233.356586 100.01232 
L 234.84297 100.75536 
L 235.592568 101.02368 
L 236.329638 101.02368 
L 237.074682 101.17848 
L 237.821298 100.7244 
L 238.557999 100.75536 
L 239.290188 101.11656 
L 240.044331 100.91016 
L 240.79649 100.89984 
L 241.527631 101.1372 
L 242.277641 101.2404 
L 243.017658 101.6532 
L 243.760597 101.4984 
L 244.492279 101.48808 
L 245.249825 101.32296 
L 246.73828 101.7048 
L 247.489021 102.54072 
L 248.228866 103.08768 
L 248.959028 103.36632 
L 249.690006 104.22288 
L 250.44835 103.85136 
L 251.922241 103.43856 
L 252.672329 103.81008 
L 253.419074 103.72752 
L 254.164375 103.50048 
L 254.901334 103.5108 
L 255.64911 103.31472 
L 257.162801 102.61296 
L 257.881543 102.6336 
L 259.380249 103.28376 
L 260.850789 102.69552 
L 261.614908 102.582 
L 263.05796 103.15992 
L 263.800151 103.36632 
L 264.546346 103.36632 
L 265.279636 102.81936 
L 266.036176 103.0464 
L 266.783935 102.9432 
L 267.511932 102.59232 
L 268.265181 102.40656 
L 270.468074 101.3436 
L 271.221332 101.6532 
L 272.702165 101.63256 
L 273.424379 101.95248 
L 274.189271 102.08664 
L 274.929984 101.9112 
L 277.873178 102.45816 
L 278.615755 102.08664 
L 279.36 102.21048 
L 279.36 102.21048 
" clip-path="url(#p1a01971197)" style="fill: none; stroke: #bebebe; stroke-width: 0.5; stroke-linecap: round"/>
   </g>
   <g id="line2d_6">
    <path d="M 8.64 73.09776 
L 9.382389 69.6096 
L 10.124777 67.91712 
L 10.867166 66.94704 
L 11.609555 66.24528 
L 12.351944 63.80976 
L 13.094332 63.70656 
L 13.836721 63.9852 
L 14.57911 65.71896 
L 15.321498 64.5528 
L 16.806276 64.05744 
L 17.548665 62.25144 
L 18.291053 63.39696 
L 19.033442 63.366 
L 19.775831 63.08736 
L 20.518219 64.72824 
L 21.260608 67.89648 
L 22.002997 69.16584 
L 22.745386 67.69008 
L 23.487774 64.4496 
L 24.230163 65.97696 
L 24.972552 64.914 
L 25.71494 61.54968 
L 26.457329 60.04296 
L 27.199718 56.28648 
L 27.942106 56.47224 
L 28.684495 56.83344 
L 29.426884 51.22968 
L 30.169273 48.89736 
L 30.911661 52.00368 
L 31.65405 53.84064 
L 32.396439 53.90256 
L 33.138827 53.00472 
L 33.881216 55.5228 
L 34.623605 59.12448 
L 35.365994 55.32672 
L 36.108382 56.90568 
L 36.850771 47.92728 
L 37.59316 48.75288 
L 38.335548 48.68064 
L 39.077937 54.57336 
L 39.820326 51.2916 
L 40.562715 52.80864 
L 41.305103 52.69512 
L 42.047492 54.82104 
L 43.532269 54.45984 
L 44.274658 55.7292 
L 45.017047 55.39896 
L 45.759436 53.55168 
L 46.501824 55.81176 
L 47.244213 55.6776 
L 47.986602 56.18328 
L 48.72899 55.71888 
L 50.213768 55.63632 
L 50.956157 55.07904 
L 51.698545 53.41752 
L 52.440934 49.71264 
L 53.183323 50.32152 
L 53.925711 51.17808 
L 54.6681 52.44744 
L 55.410489 52.74672 
L 56.152877 51.4464 
L 56.895266 51.46704 
L 57.637655 53.2524 
L 58.380044 53.08728 
L 59.122432 53.5104 
L 59.864821 57.26688 
L 60.60721 57.76224 
L 61.349598 58.02024 
L 62.091987 62.26176 
L 62.834376 59.68176 
L 63.576765 59.9604 
L 64.319153 58.12344 
L 65.061542 57.02952 
L 65.803931 58.09248 
L 66.546319 55.13064 
L 67.288708 53.046 
L 68.031097 52.5816 
L 68.773486 52.9944 
L 69.515874 52.5816 
L 70.258263 50.0016 
L 71.000652 53.48976 
L 71.74304 52.40616 
L 72.485429 54.75912 
L 73.227818 62.67456 
L 73.970207 63.95424 
L 74.712595 57.86544 
L 75.454984 56.57544 
L 76.197373 58.31952 
L 76.939761 60.4764 
L 77.68215 61.85928 
L 78.424539 62.73648 
L 79.166928 61.8696 
L 79.909316 60.45576 
L 80.651705 60.54864 
L 81.394094 62.04504 
L 82.136482 63.16992 
L 82.878871 62.36496 
L 83.62126 61.21944 
L 84.363648 60.9408 
L 85.106037 57.83448 
L 85.848426 58.40208 
L 86.590815 60.49704 
L 88.075592 63.1596 
L 88.817981 62.49912 
L 89.560369 62.1276 
L 90.302758 61.56 
L 91.787536 70.66224 
L 92.529924 68.72208 
L 93.272313 70.4868 
L 94.014702 68.61888 
L 94.75709 69.11424 
L 95.499479 66.5136 
L 96.241868 66.68904 
L 96.984257 68.8872 
L 97.726645 68.9904 
L 98.469034 71.5704 
L 99.211423 73.48992 
L 99.953811 72.54048 
L 101.438589 74.74896 
L 102.180978 73.3248 
L 102.923366 74.80056 
L 103.665755 77.556 
L 104.408144 78.55704 
L 105.150532 78.50544 
L 105.892921 78.04104 
L 106.63531 75.76032 
L 107.377699 75.73968 
L 108.120087 74.65608 
L 108.862476 74.83152 
L 109.604865 74.57352 
L 110.347253 75.20304 
L 111.089642 75.17208 
L 111.832031 78.05136 
L 113.316808 72.16896 
L 114.059197 73.08744 
L 114.801586 74.72832 
L 116.286363 74.28456 
L 117.028752 73.21128 
L 117.77114 70.2804 
L 118.513529 70.2288 
L 119.255918 71.56008 
L 119.998307 73.79952 
L 120.740695 73.35576 
L 121.483084 74.0988 
L 122.225473 75.5952 
L 122.967861 75.5952 
L 123.71025 77.61792 
L 124.452639 77.63856 
L 125.195028 75.40944 
L 125.937416 75.40944 
L 126.679805 75.04824 
L 127.422194 74.98632 
L 128.164582 75.58488 
L 128.906971 75.87384 
L 129.64936 76.49304 
L 131.134137 75.82224 
L 131.876526 75.84288 
L 132.618915 76.03896 
L 133.361303 75.51264 
L 134.103692 75.56424 
L 134.846081 75.05856 
L 135.58847 73.26288 
L 136.330858 73.20096 
L 137.073247 73.00488 
L 137.815636 71.68392 
L 138.558024 70.6932 
L 139.300413 72.62304 
L 140.042802 73.52088 
L 140.785191 73.83048 
L 141.527579 73.8408 
L 142.269968 73.29384 
L 143.012357 73.72728 
L 143.754745 70.32168 
L 144.497134 69.77472 
L 145.239523 70.34232 
L 145.981911 70.67256 
L 146.7243 70.51776 
L 147.466689 70.848 
L 148.209078 72.31344 
L 148.951466 76.01832 
L 149.693855 75.41976 
L 150.436244 75.83256 
L 151.921021 75.82224 
L 152.66341 77.82432 
L 153.405799 76.14216 
L 154.148187 74.75928 
L 154.890576 74.96568 
L 155.632965 77.75208 
L 156.375353 79.48584 
L 157.117742 83.31456 
L 157.860131 85.90488 
L 158.60252 84.79032 
L 159.229262 85.84296 
L 160.56124 91.41576 
L 161.30045 88.7532 
L 162.796071 88.55712 
L 163.542695 88.96992 
L 165.023263 90.456 
L 165.765428 90.56952 
L 166.498889 89.15568 
L 167.202105 88.9596 
L 167.992113 90.6624 
L 168.641248 89.94 
L 169.475713 90.00192 
L 170.955249 90.62112 
L 172.44397 90.3528 
L 173.188593 92.004 
L 173.868266 92.13816 
L 174.670698 91.25064 
L 175.409779 89.166 
L 176.150759 89.56848 
L 176.8844 90.93072 
L 177.643656 89.41368 
L 178.37838 90.37344 
L 179.122496 89.79552 
L 179.860726 90.23928 
L 180.604713 88.0824 
L 181.346749 88.7532 
L 182.083441 90.16704 
L 182.833039 90.67272 
L 183.577653 90.18768 
L 184.315273 89.2692 
L 185.057369 89.54784 
L 185.80268 89.49624 
L 186.543633 88.31976 
L 187.285034 88.45392 
L 188.041626 88.46424 
L 188.786111 86.38992 
L 189.515508 84.80064 
L 190.263559 84.8316 
L 191.006154 86.586 
L 191.741317 87.74184 
L 192.479358 87.618 
L 193.232848 88.19592 
L 193.976981 89.08344 
L 194.712496 87.89664 
L 195.510177 87.3084 
L 196.206304 87.65928 
L 197.68492 90.07416 
L 199.181933 89.3724 
L 199.919639 89.00088 
L 200.668395 88.42296 
L 202.144245 89.10408 
L 202.880275 89.14536 
L 203.633843 89.07312 
L 204.378147 87.9792 
L 205.115716 88.29912 
L 205.859307 86.38992 
L 206.59911 87.24648 
L 207.348329 87.1536 
L 208.079367 86.21448 
L 209.58127 87.01944 
L 210.318933 84.44976 
L 211.060754 85.05864 
L 211.806356 84.58392 
L 212.547233 85.04832 
L 213.281433 83.71704 
L 214.033626 84.86256 
L 214.777853 85.6572 
L 215.516985 85.27536 
L 216.257071 84.49104 
L 217.746824 85.32696 
L 218.480354 85.17216 
L 219.234291 85.31664 
L 219.984679 84.11952 
L 220.728623 85.66752 
L 221.468984 85.26504 
L 222.212618 86.26608 
L 223.686561 85.38888 
L 224.444021 85.3992 
L 225.186152 84.09888 
L 226.667655 84.34656 
L 228.140274 85.7604 
L 228.885378 85.0896 
L 230.390975 84.9348 
L 231.123053 85.296 
L 231.868973 85.35792 
L 232.610537 86.1732 
L 233.356586 85.92552 
L 234.84297 87.13296 
L 235.592568 88.10304 
L 236.329638 87.9276 
L 237.074682 88.26816 
L 237.821298 87.78312 
L 238.557999 87.95856 
L 239.290188 88.94928 
L 240.044331 88.14432 
L 241.527631 88.52616 
L 242.277641 88.86672 
L 243.017658 90.22896 
L 243.760597 89.82648 
L 244.492279 89.87808 
L 245.249825 89.46528 
L 246.003195 90.0432 
L 246.73828 89.96064 
L 247.489021 91.99368 
L 248.228866 93.05664 
L 248.959028 93.74808 
L 249.690006 97.02984 
L 250.44835 95.93592 
L 251.194021 95.07936 
L 251.922241 94.46016 
L 252.672329 95.47152 
L 254.164375 94.82136 
L 254.901334 94.8936 
L 255.64911 94.70784 
L 257.162801 93.40752 
L 257.881543 92.9844 
L 258.620375 93.93384 
L 259.380249 94.4292 
L 260.850789 93.87192 
L 261.614908 93.81 
L 262.312916 94.03704 
L 263.800151 95.48184 
L 264.546346 96.63768 
L 265.279636 96.14232 
L 266.036176 96.30744 
L 266.783935 96.29712 
L 267.511932 96.04944 
L 268.265181 95.9256 
L 268.994569 95.39928 
L 269.728881 94.31568 
L 270.468074 93.57264 
L 271.221332 93.32496 
L 271.970912 93.22176 
L 272.702165 93.35592 
L 274.189271 93.77904 
L 274.929984 93.26304 
L 275.650454 92.92248 
L 276.403944 92.71608 
L 277.147957 93.15984 
L 277.873178 93.17016 
L 278.615755 91.80792 
L 279.36 91.14744 
L 279.36 91.14744 
" clip-path="url(#p1a01971197)" style="fill: none; stroke: #4a8dff; stroke-width: 0.6"/>
   </g>
   <g id="line2d_7">
    <path d="M 8.64 54.77976 
L 9.382389 53.67552 
L 10.124777 52.95312 
L 10.867166 54.45984 
L 11.609555 54.55272 
L 12.351944 55.22352 
L 13.094332 54.98616 
L 13.836721 52.4268 
L 14.57911 53.79936 
L 15.321498 54.08832 
L 16.063887 54.92424 
L 16.806276 54.4908 
L 17.548665 52.98408 
L 18.291053 54.44952 
L 19.033442 54.60432 
L 19.775831 54.62496 
L 21.260608 59.38248 
L 22.002997 60.09456 
L 22.745386 58.39176 
L 23.487774 57.41136 
L 24.230163 58.464 
L 24.972552 57.5352 
L 25.71494 55.0068 
L 26.457329 55.81176 
L 27.199718 55.99752 
L 27.942106 53.13888 
L 28.684495 53.64456 
L 29.426884 52.1688 
L 30.169273 48.69096 
L 30.911661 54.0264 
L 31.65405 55.13064 
L 32.396439 54.96552 
L 33.138827 54.92424 
L 33.881216 56.25552 
L 34.623605 59.8572 
L 35.365994 58.32984 
L 36.108382 60.23904 
L 36.850771 55.65696 
L 37.59316 57.18432 
L 38.335548 59.21736 
L 39.077937 62.55072 
L 39.820326 60.82728 
L 40.562715 61.47744 
L 41.305103 60.12552 
L 42.047492 64.31544 
L 42.789881 63.99552 
L 43.532269 64.5528 
L 44.274658 63.60336 
L 45.017047 61.5084 
L 45.759436 60.96144 
L 46.501824 61.98312 
L 47.244213 62.05536 
L 47.986602 62.51976 
L 49.471379 60.64152 
L 50.213768 61.13688 
L 50.956157 58.6188 
L 51.698545 57.03984 
L 52.440934 56.35872 
L 53.183323 56.5548 
L 53.925711 57.174 
L 54.6681 57.14304 
L 55.410489 55.7292 
L 56.152877 56.04912 
L 56.895266 55.33704 
L 57.637655 56.87472 
L 58.380044 56.8128 
L 59.122432 57.24624 
L 59.864821 59.93976 
L 60.60721 60.64152 
L 61.349598 59.29992 
L 62.091987 63.80976 
L 62.834376 63.03576 
L 63.576765 63.09768 
L 65.061542 58.27824 
L 65.803931 58.5672 
L 66.546319 53.93352 
L 67.288708 51.74568 
L 68.031097 50.04288 
L 68.773486 49.90872 
L 70.258263 47.43192 
L 71.000652 50.80656 
L 71.74304 48.90768 
L 72.485429 50.6208 
L 73.227818 59.42376 
L 73.970207 61.85928 
L 74.712595 57.35976 
L 75.454984 57.3288 
L 76.197373 59.46504 
L 77.68215 64.72824 
L 78.424539 66.42072 
L 79.166928 65.688 
L 79.909316 64.17096 
L 80.651705 62.10696 
L 81.394094 64.30512 
L 82.136482 65.20296 
L 82.878871 62.68488 
L 83.62126 61.70448 
L 84.363648 61.06464 
L 85.106037 58.1028 
L 85.848426 58.40208 
L 86.590815 59.68176 
L 87.333203 62.6952 
L 88.075592 64.56312 
L 88.817981 63.18024 
L 89.560369 62.72616 
L 90.302758 62.06568 
L 91.045147 66.33816 
L 91.787536 71.40528 
L 92.529924 69.08328 
L 93.272313 71.7252 
L 94.014702 69.57864 
L 94.75709 70.72416 
L 95.499479 68.2164 
L 96.241868 66.978 
L 96.984257 70.03272 
L 97.726645 71.5188 
L 98.469034 73.3764 
L 99.211423 78.846 
L 99.953811 77.75208 
L 100.6962 78.88728 
L 101.438589 81.34344 
L 102.180978 80.53848 
L 102.923366 82.0452 
L 103.665755 86.92656 
L 104.408144 88.58808 
L 105.150532 88.96992 
L 105.892921 86.7924 
L 106.63531 85.296 
L 107.377699 86.24544 
L 108.120087 82.96368 
L 108.862476 82.13808 
L 109.604865 82.47864 
L 110.347253 82.58184 
L 111.089642 83.03592 
L 111.832031 87.3084 
L 112.57442 82.06584 
L 113.316808 79.71288 
L 114.059197 81.24024 
L 114.801586 84.17112 
L 115.543974 84.24336 
L 116.286363 83.29392 
L 117.028752 82.8192 
L 117.77114 80.64168 
L 118.513529 81.38472 
L 119.255918 80.87904 
L 119.998307 83.13912 
L 120.740695 83.19072 
L 122.225473 87.17424 
L 122.967861 85.71912 
L 123.71025 87.53544 
L 124.452639 88.17528 
L 125.195028 85.41984 
L 126.679805 84.9348 
L 127.422194 85.01736 
L 128.164582 86.14224 
L 128.906971 85.90488 
L 129.64936 86.328 
L 130.391749 86.24544 
L 131.134137 85.72944 
L 131.876526 85.7088 
L 132.618915 86.40024 
L 133.361303 85.09992 
L 134.103692 86.02872 
L 135.58847 83.53128 
L 137.073247 82.03488 
L 137.815636 79.39296 
L 138.558024 79.66128 
L 139.300413 82.15872 
L 140.042802 82.43736 
L 140.785191 82.93272 
L 141.527579 83.00496 
L 143.012357 82.28256 
L 143.754745 78.01008 
L 144.497134 76.19376 
L 145.239523 77.66952 
L 145.981911 77.74176 
L 146.7243 78.1752 
L 148.209078 80.8068 
L 148.951466 85.20312 
L 149.693855 84.12984 
L 150.436244 84.03696 
L 151.178632 84.06792 
L 151.921021 84.3156 
L 152.66341 87.02976 
L 153.405799 85.21344 
L 154.148187 84.28464 
L 154.890576 84.32592 
L 155.632965 89.08344 
L 156.375353 89.5272 
L 157.117742 95.14128 
L 157.860131 96.98856 
L 158.60252 95.08968 
L 159.819229 99.80592 
L 160.56124 101.79768 
L 161.30045 100.03296 
L 162.059808 100.518 
L 162.796071 99.98136 
L 163.542695 100.49736 
L 165.765428 101.26104 
L 166.498889 100.63152 
L 167.202105 100.38384 
L 167.992113 100.84824 
L 168.641248 100.65216 
L 169.475713 101.034 
L 170.2172 101.19912 
L 172.44397 100.91016 
L 173.188593 101.7564 
L 173.868266 101.84928 
L 174.670698 101.56032 
L 175.409779 100.85856 
L 176.8844 101.4468 
L 177.643656 101.02368 
L 178.37838 101.30232 
L 179.122496 100.81728 
L 179.860726 100.79664 
L 180.604713 99.3312 
L 181.346749 99.92976 
L 182.083441 100.78632 
L 182.833039 101.17848 
L 183.577653 101.1372 
L 184.315273 100.21872 
L 185.80268 100.4664 
L 186.543633 99.88848 
L 187.285034 99.94008 
L 188.041626 99.81624 
L 188.786111 98.93904 
L 189.515508 98.3508 
L 190.263559 98.52624 
L 191.006154 99.78528 
L 191.741317 100.12584 
L 192.479358 100.03296 
L 193.976981 100.83792 
L 194.712496 100.11552 
L 195.510177 99.87816 
L 196.206304 100.002 
L 197.68492 101.41584 
L 198.437422 101.21976 
L 199.919639 101.00304 
L 200.668395 100.86888 
L 201.401005 101.21976 
L 202.144245 101.28168 
L 203.633843 101.14752 
L 204.378147 100.55928 
L 205.115716 100.65216 
L 205.859307 99.80592 
L 206.59911 99.96072 
L 207.348329 99.6408 
L 208.079367 99.1764 
L 208.835075 99.70272 
L 209.58127 99.94008 
L 210.318933 98.57784 
L 211.060754 98.65008 
L 211.806356 98.38176 
L 212.547233 98.48496 
L 213.281433 96.70992 
L 214.033626 98.05152 
L 214.777853 98.48496 
L 215.516985 97.96896 
L 216.257071 96.32808 
L 217.746824 96.16296 
L 218.480354 96.1836 
L 219.234291 96.50352 
L 219.984679 94.76976 
L 220.728623 97.19496 
L 221.468984 96.9576 
L 222.212618 97.9896 
L 222.963118 96.89568 
L 223.686561 95.45088 
L 224.444021 95.67792 
L 225.186152 93.43848 
L 226.667655 92.25168 
L 227.410242 92.87088 
L 228.140274 94.2744 
L 228.885378 93.1392 
L 229.642726 92.97408 
L 230.390975 92.9844 
L 231.123053 92.60256 
L 231.868973 92.53032 
L 232.610537 94.54272 
L 233.356586 92.85024 
L 234.089497 94.82136 
L 234.84297 95.75016 
L 235.592568 96.97824 
L 237.074682 97.23624 
L 237.821298 95.94624 
L 238.557999 96.30744 
L 239.290188 98.08248 
L 240.79649 96.61704 
L 241.527631 97.23624 
L 242.277641 98.08248 
L 243.017658 99.18672 
L 243.760597 99.03192 
L 244.492279 99.1248 
L 245.249825 98.74296 
L 246.003195 99.09384 
L 246.73828 100.0536 
L 247.489021 101.23008 
L 248.228866 101.99376 
L 248.959028 102.08664 
L 249.690006 102.8916 
L 250.44835 102.45816 
L 251.922241 102.10728 
L 252.672329 102.582 
L 254.164375 102.08664 
L 254.901334 102.066 
L 255.64911 101.86992 
L 256.416176 101.48808 
L 257.162801 101.40552 
L 257.881543 101.4984 
L 258.620375 101.97312 
L 259.380249 102.26208 
L 260.850789 101.90088 
L 261.614908 101.90088 
L 262.312916 102.0144 
L 263.05796 102.25176 
L 263.800151 102.6336 
L 264.546346 102.88128 
L 265.279636 102.77808 
L 268.265181 103.00512 
L 268.994569 102.69552 
L 269.728881 102.55104 
L 270.468074 102.2724 
L 272.702165 102.13824 
L 274.189271 102.36528 
L 274.929984 101.94216 
L 276.403944 101.9112 
L 277.147957 102.2208 
L 277.873178 102.31368 
L 278.615755 101.79768 
L 279.36 101.81832 
L 279.36 101.81832 
" clip-path="url(#p1a01971197)" style="fill: none; stroke: #f5841e; stroke-width: 0.6"/>
   </g>
  </g>
 </g>
 <defs>
  <clipPath id="p1a01971197">
   <rect x="8.64" y="4.8" width="270.72" height="103.2"/>
  </clipPath>
 </defs>
</svg>
