<?xml version="1.0" encoding="utf-8" standalone="no"?>
<!DOCTYPE svg PUBLIC "-//W3C//DTD SVG 1.1//EN"
  "http://www.w3.org/Graphics/SVG/1.1/DTD/svg11.dtd">
<svg xmlns:xlink="http://www.w3.org/1999/xlink" width="288pt" height="120pt" viewBox="0 0 288 120" xmlns="http://www.w3.org/2000/svg" version="1.1">
<desc id="nav-meta">{"window":"1y","count":4,"labels":["05.02","06.06","06.10","04.02"],"tick_utc":["2025-02-05T12:00:00Z","2025-06-06T12:00:00Z","2025-10-06T12:00:00Z","2026-02-04T08:15:41Z"],"w":720,"h":300}</desc>

 <metadata>
  <rdf:RDF xmlns:dc="http://purl.org/dc/elements/1.1/" xmlns:cc="http://creativecommons.org/ns#" xmlns:rdf="http://www.w3.org/1999/02/22-rdf-syntax-ns#">
   <cc:Work>
    <dc:type rdf:resource="http://purl.org/dc/dcmitype/StillImage"/>
    <dc:date>2026-02-04T16:43:41.954741</dc:date>
    <dc:format>image/svg+xml</dc:format>
    <dc:creator>
     <cc:Agent>
      <dc:title>Matplotlib v3.10.8, https://matplotlib.org/</dc:title>
     </cc:Agent>
    </dc:creator>
   </cc:Work>
  </rdf:RDF>
 </metadata>
 <defs>
  <style type="text/css">*{stroke-linejoin: round; stroke-linecap: butt}</style>
 </defs>
 <g id="figure_1">
  <g id="patch_1">
   <path d="M 0 120 
L 288 120 
L 288 0 
L 0 0 
L 0 120 
z
" style="fill: none; opacity: 0"/>
  </g>
  <g id="axes_1">
   <g id="patch_2">
    <path d="M 8.64 108 
L 279.36 108 
L 279.36 4.8 
L 8.64 4.8 
L 8.64 108 
z
" style="fill: none"/>
   </g>
   <g id="matplotlib.axis_1"/>
   <g id="matplotlib.axis_2"/>
   <g id="line2d_1">
    <path d="M 8.64 87.36 
L 279.36 87.36 
" clip-path="url(#pc934e0d8a1)" style="fill: none; stroke: #b2b2b2; stroke-opacity: 0.35; stroke-width: 0.8; stroke-linecap: square"/>
   </g>
   <g id="line2d_2">
    <path d="M 8.64 66.72 
L 279.36 66.72 
" clip-path="url(#pc934e0d8a1)" style="fill: none; stroke: #b2b2b2; stroke-opacity: 0.35; stroke-width: 0.8; stroke-linecap: square"/>
   </g>
   <g id="line2d_3">
    <path d="M 8.64 46.08 
L 279.36 46.08 
" clip-path="url(#pc934e0d8a1)" style="fill: none; stroke: #b2b2b2; stroke-opacity: 0.35; stroke-width: 0.8; stroke-linecap: square"/>
   </g>
   <g id="line2d_4">
    <path d="M 8.64 25.44 
L 279.36 25.44 
" clip-path="url(#pc934e0d8a1)" style="fill: none; stroke: #b2b2b2; stroke-opacity: 0.35; stroke-width: 0.8; stroke-linecap: square"/>
   </g>
   <g id="line2d_5">
    <path d="M 8.64 69.82632 
L 9.384055 72.89136 
L 10.128109 74.75928 
L 10.872164 73.96464 
L 11.616219 71.9316 
L 12.360273 71.73552 
L 13.104328 71.84904 
L 13.848383 72.42696 
L 14.592437 72.78816 
L 15.336492 73.428 
L 16.080547 71.95224 
L 16.824602 73.3764 
L 17.568656 75.08952 
L 19.056766 80.30112 
L 19.80082 80.25984 
L 20.544875 78.41256 
L 21.28893 80.33208 
L 22.032984 79.45488 
L 22.777039 80.57976 
L 23.521094 87.93792 
L 24.265148 87.06072 
L 25.009203 89.71296 
L 25.753258 88.908 
L 26.497312 86.0184 
L 27.241367 87.31872 
L 27.985422 77.82432 
L 28.729477 87.5664 
L 29.473531 86.86464 
L 30.217586 86.56536 
L 30.961641 87.3084 
L 31.705695 88.47456 
L 32.44975 89.10408 
L 33.193805 91.9008 
L 33.937859 94.04736 
L 34.681914 92.23104 
L 35.425969 91.92144 
L 36.170023 92.8296 
L 36.914078 90.01224 
L 37.658133 89.39304 
L 38.402187 92.03496 
L 39.146242 91.45704 
L 39.890297 92.262 
L 40.634351 89.44464 
L 41.378406 91.62216 
L 42.122461 91.46736 
L 42.866516 91.42608 
L 43.61057 90.41472 
L 44.354625 88.09272 
L 45.09868 87.17424 
L 45.842734 89.04216 
L 46.586789 88.69128 
L 47.330844 91.13712 
L 48.074898 92.48904 
L 49.563008 92.38584 
L 50.307062 91.85952 
L 51.051117 94.24344 
L 51.795172 94.4808 
L 52.539226 92.97408 
L 53.283281 93.67584 
L 54.027336 97.60776 
L 54.77139 97.32912 
L 55.515445 97.68 
L 56.2595 94.00608 
L 57.003555 95.65728 
L 57.747609 93.33528 
L 58.491664 90.39408 
L 59.235719 91.46736 
L 59.979773 91.14744 
L 60.723828 91.99368 
L 61.467883 90.57984 
L 62.211937 89.72328 
L 62.955992 89.89872 
L 63.700047 88.35072 
L 64.444101 88.89768 
L 65.188156 89.25888 
L 65.932211 85.84296 
L 66.676265 85.2444 
L 67.42032 84.8832 
L 69.652484 85.99776 
L 70.396539 86.07 
L 71.140594 86.4828 
L 71.884648 86.14224 
L 72.628703 85.31664 
L 73.372758 86.07 
L 74.116812 86.38992 
L 74.860867 87.16392 
L 75.604922 86.38992 
L 77.093031 86.28672 
L 77.837086 81.84912 
L 78.58114 79.32072 
L 79.325195 78.05136 
L 80.06925 79.26912 
L 80.813304 78.846 
L 81.557359 76.2144 
L 83.045469 80.394 
L 83.789523 80.66232 
L 84.533578 81.168 
L 85.277633 79.63032 
L 86.021687 80.95128 
L 86.765742 80.4972 
L 88.253851 77.43216 
L 88.997906 78.846 
L 89.741961 78.41256 
L 90.486015 78.64992 
L 91.23007 78.76344 
L 91.974125 78.25776 
L 92.718179 79.47552 
L 93.462234 80.92032 
L 94.206289 83.73768 
L 94.950343 83.6448 
L 95.694398 83.4384 
L 96.438453 83.61384 
L 97.182508 83.99568 
L 97.926562 84.55296 
L 98.670617 87.00912 
L 99.414672 85.98744 
L 100.158726 85.5024 
L 100.902781 84.8316 
L 101.646836 82.46832 
L 102.39089 81.426 
L 103.134945 82.5096 
L 103.879 84.79032 
L 105.367109 86.95752 
L 106.111164 84.79032 
L 106.855218 85.13088 
L 107.599273 86.07 
L 108.343328 86.5344 
L 109.087383 86.31768 
L 110.575492 89.97096 
L 111.319547 90.48696 
L 112.063601 86.9472 
L 112.807656 86.66856 
L 113.551711 87.32904 
L 114.295765 88.53648 
L 115.03982 87.6696 
L 115.783875 85.30632 
L 116.527929 84.61488 
L 117.271984 84.17112 
L 118.016039 86.3796 
L 118.760093 84.92448 
L 119.504148 84.89352 
L 120.248203 86.13192 
L 120.992257 86.1732 
L 121.736312 84.99672 
L 122.480367 85.85328 
L 123.224422 85.01736 
L 123.968476 83.55192 
L 124.712531 81.7356 
L 125.456586 82.03488 
L 126.20064 82.65408 
L 127.68875 82.15872 
L 128.432804 81.70464 
L 129.176859 79.01112 
L 129.920914 78.39192 
L 130.664968 78.04104 
L 131.409023 78.16488 
L 132.153078 77.05032 
L 132.897132 72.82944 
L 133.641187 70.41456 
L 134.385242 74.69736 
L 135.129297 76.6272 
L 135.873351 75.63648 
L 136.617406 75.97704 
L 137.361461 74.976 
L 138.105515 76.49304 
L 138.84957 76.99872 
L 139.593625 77.90688 
L 140.337679 79.4652 
L 141.081734 82.02456 
L 141.825789 83.19072 
L 142.569843 82.27224 
L 143.313898 80.21856 
L 144.057953 81.67368 
L 144.802007 80.5488 
L 145.546062 78.588 
L 146.290117 78.19584 
L 147.034171 77.21544 
L 147.778226 76.524 
L 148.522281 78.68088 
L 149.266336 73.88208 
L 150.01039 71.364 
L 150.754445 73.8408 
L 151.4985 75.79128 
L 152.242554 74.65608 
L 152.986609 74.14008 
L 153.730664 76.50336 
L 154.474718 78.30936 
L 155.218773 75.3372 
L 155.962828 77.25672 
L 156.706882 71.78712 
L 157.450937 70.75512 
L 158.194992 70.24944 
L 158.939046 75.35784 
L 159.683101 72.95328 
L 160.427156 70.96152 
L 161.17121 67.87584 
L 161.915265 70.46616 
L 162.65932 71.11632 
L 163.403375 71.61168 
L 164.147429 72.7056 
L 164.891484 69.33096 
L 165.635539 68.9388 
L 166.379593 71.12664 
L 167.123648 70.90992 
L 167.867703 71.80776 
L 168.611757 70.074 
L 169.355812 68.01 
L 170.099867 67.10184 
L 170.843921 65.29584 
L 171.587976 64.01616 
L 172.332031 60.31128 
L 173.076085 60.19776 
L 173.82014 60.786 
L 174.564195 62.61264 
L 175.30825 61.74576 
L 176.052304 59.57856 
L 176.796359 58.86648 
L 177.540414 61.38456 
L 178.284468 61.07496 
L 179.028523 61.83864 
L 179.772578 66.29688 
L 180.516632 67.97904 
L 181.260687 68.69112 
L 182.004742 73.9956 
L 182.748796 70.45584 
L 183.492851 70.87896 
L 184.236906 68.91816 
L 184.98096 68.3196 
L 185.725015 69.47544 
L 187.213124 62.39592 
L 187.957179 62.81904 
L 188.701234 64.22256 
L 189.445289 64.05744 
L 190.189343 62.9532 
L 190.933398 66.14208 
L 191.677453 63.91296 
L 192.421507 66.17304 
L 193.165562 74.6148 
L 193.909617 77.78304 
L 194.653671 72.66432 
L 195.397726 69.69216 
L 196.141781 71.09568 
L 197.62989 76.06992 
L 198.373945 76.76136 
L 199.117999 75.25464 
L 199.862054 75.24432 
L 200.606109 74.63544 
L 201.350164 75.73968 
L 202.094218 77.31864 
L 202.838273 74.202 
L 203.582328 73.64472 
L 204.326382 73.48992 
L 205.070437 71.83872 
L 205.814492 72.17928 
L 206.558546 73.38672 
L 207.302601 73.43832 
L 208.046656 76.15248 
L 208.79071 75.3372 
L 209.534765 75.58488 
L 210.27882 75.35784 
L 211.022874 81.168 
L 211.766929 84.01632 
L 212.510984 82.06584 
L 213.255038 84.19176 
L 213.999093 82.27224 
L 214.743148 83.29392 
L 215.487203 81.62208 
L 216.231257 80.72424 
L 216.975312 84.33624 
L 217.719367 84.64584 
L 218.463421 86.844 
L 219.207476 88.52616 
L 219.951531 88.36104 
L 220.695585 88.93896 
L 221.43964 90.79656 
L 222.183695 88.09272 
L 222.927749 89.22792 
L 223.671804 90.00192 
L 224.415859 91.39512 
L 225.159913 91.63248 
L 225.903968 90.75528 
L 226.648023 88.7016 
L 227.392077 88.52616 
L 228.136132 87.45288 
L 228.880187 88.0308 
L 229.624242 88.94928 
L 231.112351 89.7336 
L 231.856406 91.86984 
L 232.60046 88.60872 
L 233.344515 86.87496 
L 234.832624 90.11544 
L 236.320734 90.53856 
L 237.064788 90.08448 
L 237.808843 88.79448 
L 238.552898 89.20728 
L 239.296952 89.22792 
L 240.041007 90.31152 
L 240.785062 90.10512 
L 241.529117 91.09584 
L 242.273171 91.61184 
L 243.017226 91.31256 
L 243.761281 92.87088 
L 244.505335 93.8616 
L 245.24939 92.02464 
L 245.993445 92.13816 
L 246.737499 92.07624 
L 247.481554 92.14848 
L 249.713718 93.69648 
L 251.201827 92.44776 
L 251.945882 92.30328 
L 252.689937 92.87088 
L 253.433991 92.38584 
L 254.178046 92.47872 
L 254.922101 91.88016 
L 255.666156 90.42504 
L 256.41021 90.08448 
L 257.154265 89.92968 
L 257.89832 88.76352 
L 258.642374 87.94824 
L 259.386429 89.2692 
L 260.130484 88.72224 
L 260.874538 89.39304 
L 261.618593 89.40336 
L 262.362648 88.41264 
L 263.106702 88.4952 
L 263.850757 86.86464 
L 264.594812 86.42088 
L 265.338866 87.62832 
L 266.082921 86.93688 
L 266.826976 87.23616 
L 268.315085 90.0432 
L 269.05914 92.12784 
L 269.803195 91.16808 
L 271.291304 91.73568 
L 272.035359 91.78728 
L 272.779413 94.0164 
L 273.523468 92.5716 
L 274.267523 91.76664 
L 275.011577 92.33424 
L 275.755632 94.36728 
L 276.499687 94.46016 
L 277.243741 97.71096 
L 277.987796 98.48496 
L 278.731851 97.85544 
L 279.36 99.10416 
L 279.36 99.10416 
" clip-path="url(#pc934e0d8a1)" style="fill: none; stroke: #bebebe; stroke-width: 0.5; stroke-linecap: round"/>
   </g>
   <g id="line2d_6">
    <path d="M 8.64 78.91824 
L 9.384055 78.1752 
L 10.128109 79.71288 
L 10.872164 80.652 
L 11.616219 80.47656 
L 12.360273 80.51784 
L 13.104328 80.10504 
L 13.848383 80.9616 
L 14.592437 78.98016 
L 15.336492 79.878 
L 16.080547 79.1556 
L 17.568656 80.11536 
L 18.312711 78.8976 
L 19.056766 79.97088 
L 19.80082 79.30008 
L 20.544875 78.8976 
L 21.28893 80.136 
L 22.032984 78.56736 
L 22.777039 77.62824 
L 23.521094 82.43736 
L 24.265148 82.5612 
L 25.009203 85.06896 
L 25.753258 85.37856 
L 26.497312 86.41056 
L 27.241367 86.75112 
L 27.985422 82.23096 
L 28.729477 87.71088 
L 29.473531 87.36 
L 30.217586 86.328 
L 30.961641 86.90592 
L 31.705695 87.81408 
L 32.44975 86.93688 
L 33.193805 89.65104 
L 33.937859 91.6944 
L 34.681914 91.0752 
L 35.425969 91.23 
L 36.170023 91.94208 
L 36.914078 91.23 
L 37.658133 90.79656 
L 38.402187 91.57056 
L 39.146242 90.95136 
L 39.890297 90.89976 
L 40.634351 89.00088 
L 41.378406 90.18768 
L 42.122461 90.43536 
L 43.61057 89.8884 
L 44.354625 88.7532 
L 45.09868 88.88736 
L 45.842734 89.75424 
L 46.586789 89.85744 
L 47.330844 91.4364 
L 48.074898 92.43744 
L 48.818953 92.79864 
L 49.563008 92.50968 
L 50.307062 91.2816 
L 51.051117 92.9328 
L 51.795172 92.60256 
L 53.283281 92.7264 
L 54.027336 96.21456 
L 54.77139 96.4932 
L 55.515445 97.74192 
L 56.2595 94.91424 
L 57.003555 96.96792 
L 57.747609 96.31776 
L 58.491664 95.16192 
L 59.235719 95.90496 
L 59.979773 95.52312 
L 60.723828 96.01848 
L 61.467883 96.17328 
L 62.955992 95.99784 
L 63.700047 95.616 
L 64.444101 96.05976 
L 65.188156 96.17328 
L 65.932211 93.46944 
L 66.676265 92.96376 
L 67.42032 93.32496 
L 68.164375 93.036 
L 68.90843 92.56128 
L 69.652484 92.96376 
L 70.396539 92.8812 
L 71.884648 92.96376 
L 72.628703 92.29296 
L 73.372758 92.262 
L 74.116812 92.3652 
L 74.860867 92.74704 
L 75.604922 92.5716 
L 77.093031 92.71608 
L 77.837086 86.97816 
L 78.58114 84.84192 
L 79.325195 81.24024 
L 80.06925 82.37544 
L 80.813304 82.60248 
L 81.557359 79.86768 
L 83.045469 81.85944 
L 83.789523 81.82848 
L 84.533578 82.86048 
L 85.277633 83.00496 
L 86.021687 82.08648 
L 86.765742 82.12776 
L 87.509797 81.61176 
L 88.253851 80.15664 
L 88.997906 82.18968 
L 90.486015 81.79752 
L 91.23007 81.56016 
L 91.974125 80.0844 
L 92.718179 79.86768 
L 93.462234 80.50752 
L 94.206289 82.12776 
L 95.694398 81.92136 
L 96.438453 80.8584 
L 97.182508 81.07512 
L 97.926562 80.84808 
L 98.670617 83.6448 
L 99.414672 82.7676 
L 100.158726 82.0968 
L 100.902781 82.3548 
L 101.646836 79.74384 
L 102.39089 77.90688 
L 103.134945 78.39192 
L 103.879 80.21856 
L 104.623054 81.34344 
L 105.367109 81.98328 
L 106.855218 81.5808 
L 107.599273 82.26192 
L 109.087383 82.15872 
L 109.831437 83.88216 
L 110.575492 85.89456 
L 111.319547 86.5344 
L 112.063601 83.61384 
L 112.807656 83.2836 
L 113.551711 83.71704 
L 114.295765 83.748 
L 115.783875 83.41776 
L 116.527929 82.44768 
L 117.271984 82.6644 
L 118.016039 83.89248 
L 118.760093 81.38472 
L 119.504148 81.14736 
L 120.248203 82.34448 
L 120.992257 82.23096 
L 121.736312 81.426 
L 122.480367 81.8388 
L 123.224422 80.76552 
L 124.712531 75.83256 
L 125.456586 75.67776 
L 126.20064 75.91512 
L 127.68875 74.88312 
L 128.432804 73.09776 
L 129.176859 69.6096 
L 129.920914 67.91712 
L 130.664968 66.94704 
L 131.409023 66.24528 
L 132.153078 63.80976 
L 132.897132 63.70656 
L 133.641187 63.9852 
L 134.385242 65.71896 
L 135.129297 64.5528 
L 136.617406 64.05744 
L 137.361461 62.25144 
L 138.105515 63.39696 
L 138.84957 63.366 
L 139.593625 63.08736 
L 140.337679 64.72824 
L 141.081734 67.89648 
L 141.825789 69.16584 
L 142.569843 67.69008 
L 143.313898 64.4496 
L 144.057953 65.97696 
L 144.802007 64.914 
L 145.546062 61.54968 
L 146.290117 60.04296 
L 147.034171 56.28648 
L 147.778226 56.47224 
L 148.522281 56.83344 
L 149.266336 51.22968 
L 150.01039 48.89736 
L 150.754445 52.00368 
L 151.4985 53.84064 
L 152.242554 53.90256 
L 152.986609 53.00472 
L 153.730664 55.5228 
L 154.474718 59.12448 
L 155.218773 55.32672 
L 155.962828 56.90568 
L 156.706882 47.92728 
L 157.450937 48.75288 
L 158.194992 48.68064 
L 158.939046 54.57336 
L 159.683101 51.2916 
L 160.427156 52.80864 
L 161.17121 52.69512 
L 161.915265 54.82104 
L 163.403375 54.45984 
L 164.147429 55.7292 
L 164.891484 55.39896 
L 165.635539 53.55168 
L 166.379593 55.81176 
L 167.123648 55.6776 
L 167.867703 56.18328 
L 168.611757 55.71888 
L 170.099867 55.63632 
L 170.843921 55.07904 
L 171.587976 53.41752 
L 172.332031 49.71264 
L 173.076085 50.32152 
L 173.82014 51.17808 
L 174.564195 52.44744 
L 175.30825 52.74672 
L 176.052304 51.4464 
L 176.796359 51.46704 
L 177.540414 53.2524 
L 178.284468 53.08728 
L 179.028523 53.5104 
L 179.772578 57.26688 
L 180.516632 57.76224 
L 181.260687 58.02024 
L 182.004742 62.26176 
L 182.748796 59.68176 
L 183.492851 59.9604 
L 184.236906 58.12344 
L 184.98096 57.02952 
L 185.725015 58.09248 
L 186.46907 55.13064 
L 187.213124 53.046 
L 187.957179 52.5816 
L 188.701234 52.9944 
L 189.445289 52.5816 
L 190.189343 50.0016 
L 190.933398 53.48976 
L 191.677453 52.40616 
L 192.421507 54.75912 
L 193.165562 62.67456 
L 193.909617 63.95424 
L 194.653671 57.86544 
L 195.397726 56.57544 
L 196.141781 58.31952 
L 196.885835 60.4764 
L 197.62989 61.85928 
L 198.373945 62.73648 
L 199.117999 61.8696 
L 199.862054 60.45576 
L 200.606109 60.54864 
L 201.350164 62.04504 
L 202.094218 63.16992 
L 202.838273 62.36496 
L 203.582328 61.21944 
L 204.326382 60.9408 
L 205.070437 57.83448 
L 205.814492 58.40208 
L 206.558546 60.49704 
L 208.046656 63.1596 
L 208.79071 62.49912 
L 209.534765 62.1276 
L 210.27882 61.56 
L 211.766929 70.66224 
L 212.510984 68.72208 
L 213.255038 70.4868 
L 213.999093 68.61888 
L 214.743148 69.11424 
L 215.487203 66.5136 
L 216.231257 66.68904 
L 216.975312 68.8872 
L 217.719367 68.9904 
L 218.463421 71.5704 
L 219.207476 73.48992 
L 219.951531 72.54048 
L 221.43964 74.74896 
L 222.183695 73.3248 
L 222.927749 74.80056 
L 223.671804 77.556 
L 224.415859 78.55704 
L 225.159913 78.50544 
L 225.903968 78.04104 
L 226.648023 75.76032 
L 227.392077 75.73968 
L 228.136132 74.65608 
L 228.880187 74.83152 
L 229.624242 74.57352 
L 230.368296 75.20304 
L 231.112351 75.17208 
L 231.856406 78.05136 
L 233.344515 72.16896 
L 234.08857 73.08744 
L 234.832624 74.72832 
L 236.320734 74.28456 
L 237.064788 73.21128 
L 237.808843 70.2804 
L 238.552898 70.2288 
L 239.296952 71.56008 
L 240.041007 73.79952 
L 240.785062 73.35576 
L 241.529117 74.0988 
L 242.273171 75.5952 
L 243.017226 75.5952 
L 243.761281 77.61792 
L 244.505335 77.63856 
L 245.24939 75.40944 
L 245.993445 75.40944 
L 246.737499 75.04824 
L 247.481554 74.98632 
L 248.225609 75.58488 
L 248.969663 75.87384 
L 249.713718 76.49304 
L 251.201827 75.82224 
L 251.945882 75.84288 
L 252.689937 76.03896 
L 253.433991 75.51264 
L 254.178046 75.56424 
L 254.922101 75.05856 
L 255.666156 73.26288 
L 256.41021 73.20096 
L 257.154265 73.00488 
L 257.89832 71.68392 
L 258.642374 70.6932 
L 259.386429 72.62304 
L 260.130484 73.52088 
L 260.874538 73.83048 
L 261.618593 73.8408 
L 262.362648 73.29384 
L 263.106702 73.72728 
L 263.850757 70.32168 
L 264.594812 69.77472 
L 265.338866 70.34232 
L 266.082921 70.67256 
L 266.826976 70.51776 
L 267.57103 70.848 
L 268.315085 72.31344 
L 269.05914 76.01832 
L 269.803195 75.41976 
L 270.547249 75.83256 
L 272.035359 75.82224 
L 272.779413 77.82432 
L 273.523468 76.14216 
L 274.267523 74.75928 
L 275.011577 74.96568 
L 275.755632 77.75208 
L 276.499687 79.48584 
L 277.243741 83.31456 
L 277.987796 85.90488 
L 278.731851 84.79032 
L 279.36 85.84296 
L 279.36 85.84296 
" clip-path="url(#pc934e0d8a1)" style="fill: none; stroke: #4a8dff; stroke-width: 0.5"/>
   </g>
   <g id="line2d_7">
    <path d="M 8.64 75.04824 
L 9.384055 76.63752 
L 10.128109 76.58592 
L 11.616219 76.66848 
L 12.360273 76.6788 
L 13.104328 75.79128 
L 13.848383 77.51472 
L 14.592437 75.3372 
L 15.336492 76.65816 
L 16.080547 75.6984 
L 16.824602 75.61584 
L 17.568656 77.0916 
L 19.056766 77.7624 
L 19.80082 76.66848 
L 20.544875 74.7696 
L 21.28893 77.10192 
L 22.032984 76.65816 
L 22.777039 76.90584 
L 23.521094 82.01424 
L 24.265148 84.74904 
L 25.009203 89.77488 
L 25.753258 88.93896 
L 26.497312 89.2176 
L 27.241367 87.59736 
L 27.985422 79.04208 
L 28.729477 87.47352 
L 29.473531 86.24544 
L 30.217586 82.82952 
L 30.961641 83.45904 
L 31.705695 86.80272 
L 32.44975 87.45288 
L 33.193805 93.036 
L 33.937859 95.07936 
L 34.681914 90.9204 
L 35.425969 89.79552 
L 36.170023 92.6748 
L 36.914078 89.70264 
L 37.658133 89.2692 
L 38.402187 91.11648 
L 39.146242 89.59944 
L 39.890297 90.94104 
L 40.634351 86.76144 
L 41.378406 89.39304 
L 42.866516 89.8884 
L 43.61057 87.8244 
L 44.354625 86.2248 
L 45.09868 86.02872 
L 45.842734 86.60664 
L 46.586789 86.328 
L 47.330844 89.30016 
L 48.074898 91.04424 
L 48.818953 91.37448 
L 49.563008 91.20936 
L 50.307062 88.392 
L 51.051117 91.19904 
L 52.539226 89.82648 
L 53.283281 90.0948 
L 54.027336 95.6676 
L 54.77139 94.66656 
L 55.515445 97.61808 
L 56.2595 91.10616 
L 57.003555 94.23312 
L 57.747609 90.25992 
L 58.491664 88.31976 
L 59.235719 90.08448 
L 59.979773 89.13504 
L 60.723828 90.03288 
L 61.467883 89.56848 
L 62.211937 88.71192 
L 62.955992 89.22792 
L 63.700047 88.50552 
L 64.444101 88.55712 
L 65.188156 86.10096 
L 65.932211 79.75416 
L 66.676265 79.7232 
L 67.42032 79.44456 
L 68.164375 78.51576 
L 68.90843 78.64992 
L 69.652484 79.5168 
L 70.396539 78.24744 
L 71.140594 79.0524 
L 71.884648 79.07304 
L 72.628703 76.80264 
L 73.372758 76.35888 
L 74.116812 77.31864 
L 74.860867 78.98016 
L 75.604922 78.52608 
L 76.348976 76.35888 
L 77.093031 76.18344 
L 77.837086 69.90888 
L 78.58114 70.03272 
L 79.325195 68.29896 
L 80.06925 68.95944 
L 80.813304 70.11528 
L 81.557359 68.76336 
L 82.301414 69.37224 
L 83.045469 69.25872 
L 83.789523 69.41352 
L 84.533578 69.77472 
L 85.277633 66.85416 
L 86.021687 67.26696 
L 86.765742 66.06984 
L 87.509797 63.08736 
L 88.253851 61.12656 
L 88.997906 65.62608 
L 89.741961 64.98624 
L 90.486015 63.91296 
L 91.23007 63.38664 
L 91.974125 63.70656 
L 92.718179 64.97592 
L 93.462234 67.14312 
L 94.206289 68.9388 
L 94.950343 68.23704 
L 95.694398 67.1844 
L 96.438453 66.99864 
L 97.182508 67.47336 
L 97.926562 68.1132 
L 98.670617 71.38464 
L 99.414672 68.526 
L 100.158726 67.21536 
L 100.902781 67.20504 
L 101.646836 62.46816 
L 102.39089 62.51976 
L 103.134945 64.10904 
L 103.879 66.90576 
L 104.623054 66.83352 
L 105.367109 67.42176 
L 106.111164 67.3392 
L 106.855218 65.8944 
L 107.599273 68.24736 
L 109.087383 68.23704 
L 109.831437 69.69216 
L 110.575492 71.50848 
L 111.319547 72.21024 
L 112.063601 67.3908 
L 112.807656 66.90576 
L 113.551711 65.59512 
L 114.295765 65.86344 
L 115.03982 65.76024 
L 115.783875 65.50224 
L 116.527929 64.398 
L 117.271984 65.70864 
L 118.016039 67.2876 
L 118.760093 63.95424 
L 119.504148 63.14928 
L 120.248203 64.76952 
L 120.992257 64.58376 
L 121.736312 63.55176 
L 122.480367 64.5012 
L 123.224422 63.82008 
L 123.968476 61.36392 
L 124.712531 56.64768 
L 125.456586 54.89328 
L 126.20064 55.04808 
L 126.944695 53.29368 
L 127.68875 52.55064 
L 128.432804 54.77976 
L 129.176859 53.67552 
L 129.920914 52.95312 
L 130.664968 54.45984 
L 131.409023 54.55272 
L 132.153078 55.22352 
L 132.897132 54.98616 
L 133.641187 52.4268 
L 134.385242 53.79936 
L 135.129297 54.08832 
L 135.873351 54.92424 
L 136.617406 54.4908 
L 137.361461 52.98408 
L 138.105515 54.44952 
L 138.84957 54.60432 
L 139.593625 54.62496 
L 141.081734 59.38248 
L 141.825789 60.09456 
L 142.569843 58.39176 
L 143.313898 57.41136 
L 144.057953 58.464 
L 144.802007 57.5352 
L 145.546062 55.0068 
L 146.290117 55.81176 
L 147.034171 55.99752 
L 147.778226 53.13888 
L 148.522281 53.64456 
L 149.266336 52.1688 
L 150.01039 48.69096 
L 150.754445 54.0264 
L 151.4985 55.13064 
L 152.242554 54.96552 
L 152.986609 54.92424 
L 153.730664 56.25552 
L 154.474718 59.8572 
L 155.218773 58.32984 
L 155.962828 60.23904 
L 156.706882 55.65696 
L 157.450937 57.18432 
L 158.194992 59.21736 
L 158.939046 62.55072 
L 159.683101 60.82728 
L 160.427156 61.47744 
L 161.17121 60.12552 
L 161.915265 64.31544 
L 162.65932 63.99552 
L 163.403375 64.5528 
L 164.147429 63.60336 
L 164.891484 61.5084 
L 165.635539 60.96144 
L 166.379593 61.98312 
L 167.123648 62.05536 
L 167.867703 62.51976 
L 169.355812 60.64152 
L 170.099867 61.13688 
L 170.843921 58.6188 
L 171.587976 57.03984 
L 172.332031 56.35872 
L 173.076085 56.5548 
L 173.82014 57.174 
L 174.564195 57.14304 
L 175.30825 55.7292 
L 176.052304 56.04912 
L 176.796359 55.33704 
L 177.540414 56.87472 
L 178.284468 56.8128 
L 179.028523 57.24624 
L 179.772578 59.93976 
L 180.516632 60.64152 
L 181.260687 59.29992 
L 182.004742 63.80976 
L 182.748796 63.03576 
L 183.492851 63.09768 
L 184.98096 58.27824 
L 185.725015 58.5672 
L 186.46907 53.93352 
L 187.213124 51.74568 
L 187.957179 50.04288 
L 188.701234 49.90872 
L 190.189343 47.43192 
L 190.933398 50.80656 
L 191.677453 48.90768 
L 192.421507 50.6208 
L 193.165562 59.42376 
L 193.909617 61.85928 
L 194.653671 57.35976 
L 195.397726 57.3288 
L 196.141781 59.46504 
L 197.62989 64.72824 
L 198.373945 66.42072 
L 199.117999 65.688 
L 199.862054 64.17096 
L 200.606109 62.10696 
L 201.350164 64.30512 
L 202.094218 65.20296 
L 202.838273 62.68488 
L 203.582328 61.70448 
L 204.326382 61.06464 
L 205.070437 58.1028 
L 205.814492 58.40208 
L 206.558546 59.68176 
L 207.302601 62.6952 
L 208.046656 64.56312 
L 208.79071 63.18024 
L 209.534765 62.72616 
L 210.27882 62.06568 
L 211.022874 66.33816 
L 211.766929 71.40528 
L 212.510984 69.08328 
L 213.255038 71.7252 
L 213.999093 69.57864 
L 214.743148 70.72416 
L 215.487203 68.2164 
L 216.231257 66.978 
L 216.975312 70.03272 
L 217.719367 71.5188 
L 218.463421 73.3764 
L 219.207476 78.846 
L 219.951531 77.75208 
L 220.695585 78.88728 
L 221.43964 81.34344 
L 222.183695 80.53848 
L 222.927749 82.0452 
L 223.671804 86.92656 
L 224.415859 88.58808 
L 225.159913 88.96992 
L 225.903968 86.7924 
L 226.648023 85.296 
L 227.392077 86.24544 
L 228.136132 82.96368 
L 228.880187 82.13808 
L 229.624242 82.47864 
L 230.368296 82.58184 
L 231.112351 83.03592 
L 231.856406 87.3084 
L 232.60046 82.06584 
L 233.344515 79.71288 
L 234.08857 81.24024 
L 234.832624 84.17112 
L 235.576679 84.24336 
L 236.320734 83.29392 
L 237.064788 82.8192 
L 237.808843 80.64168 
L 238.552898 81.38472 
L 239.296952 80.87904 
L 240.041007 83.13912 
L 240.785062 83.19072 
L 242.273171 87.17424 
L 243.017226 85.71912 
L 243.761281 87.53544 
L 244.505335 88.17528 
L 245.24939 85.41984 
L 246.737499 84.9348 
L 247.481554 85.01736 
L 248.225609 86.14224 
L 248.969663 85.90488 
L 249.713718 86.328 
L 250.457773 86.24544 
L 251.201827 85.72944 
L 251.945882 85.7088 
L 252.689937 86.40024 
L 253.433991 85.09992 
L 254.178046 86.02872 
L 255.666156 83.53128 
L 257.154265 82.03488 
L 257.89832 79.39296 
L 258.642374 79.66128 
L 259.386429 82.15872 
L 260.130484 82.43736 
L 260.874538 82.93272 
L 261.618593 83.00496 
L 263.106702 82.28256 
L 263.850757 78.01008 
L 264.594812 76.19376 
L 265.338866 77.66952 
L 266.082921 77.74176 
L 266.826976 78.1752 
L 268.315085 80.8068 
L 269.05914 85.20312 
L 269.803195 84.12984 
L 270.547249 84.03696 
L 271.291304 84.06792 
L 272.035359 84.3156 
L 272.779413 87.02976 
L 273.523468 85.21344 
L 274.267523 84.28464 
L 275.011577 84.32592 
L 275.755632 89.08344 
L 276.499687 89.5272 
L 277.243741 95.14128 
L 277.987796 96.98856 
L 278.731851 95.08968 
L 279.36 97.71096 
L 279.36 97.71096 
" clip-path="url(#pc934e0d8a1)" style="fill: none; stroke: #f5841e; stroke-width: 0.5"/>
   </g>
  </g>
 </g>
 <defs>
  <clipPath id="pc934e0d8a1">
   <rect x="8.64" y="4.8" width="270.72" height="103.2"/>
  </clipPath>
 </defs>
</svg>
