<?xml version="1.0" encoding="utf-8" standalone="no"?>
<!DOCTYPE svg PUBLIC "-//W3C//DTD SVG 1.1//EN"
  "http://www.w3.org/Graphics/SVG/1.1/DTD/svg11.dtd">
<svg xmlns:xlink="http://www.w3.org/1999/xlink" width="288pt" height="120pt" viewBox="0 0 288 120" xmlns="http://www.w3.org/2000/svg" version="1.1">
<desc id="nav-meta">{"window":"3m","count":4,"labels":["02.01","01.02","02.03","01.04"],"tick_utc":["2026-01-02T12:00:00Z","2026-02-01T12:00:00Z","2026-03-02T03:18:56Z","2026-04-01T03:54:32Z"],"w":720,"h":300}</desc>

 <metadata>
  <rdf:RDF xmlns:dc="http://purl.org/dc/elements/1.1/" xmlns:cc="http://creativecommons.org/ns#" xmlns:rdf="http://www.w3.org/1999/02/22-rdf-syntax-ns#">
   <cc:Work>
    <dc:type rdf:resource="http://purl.org/dc/dcmitype/StillImage"/>
    <dc:date>2026-04-01T14:15:51.011620</dc:date>
    <dc:format>image/svg+xml</dc:format>
    <dc:creator>
     <cc:Agent>
      <dc:title>Matplotlib v3.10.8, https://matplotlib.org/</dc:title>
     </cc:Agent>
    </dc:creator>
   </cc:Work>
  </rdf:RDF>
 </metadata>
 <defs>
  <style type="text/css">*{stroke-linejoin: round; stroke-linecap: butt}</style>
 </defs>
 <g id="figure_1">
  <g id="patch_1">
   <path d="M 0 120 
L 288 120 
L 288 0 
L 0 0 
L 0 120 
z
" style="fill: none; opacity: 0"/>
  </g>
  <g id="axes_1">
   <g id="patch_2">
    <path d="M 8.64 108 
L 279.36 108 
L 279.36 4.8 
L 8.64 4.8 
L 8.64 108 
z
" style="fill: none"/>
   </g>
   <g id="matplotlib.axis_1"/>
   <g id="matplotlib.axis_2"/>
   <g id="line2d_1">
    <path d="M 8.64 87.36 
L 279.36 87.36 
" clip-path="url(#pbcad93530b)" style="fill: none; stroke: #b2b2b2; stroke-opacity: 0.35; stroke-width: 0.5; stroke-linecap: square"/>
   </g>
   <g id="line2d_2">
    <path d="M 8.64 66.72 
L 279.36 66.72 
" clip-path="url(#pbcad93530b)" style="fill: none; stroke: #b2b2b2; stroke-opacity: 0.35; stroke-width: 0.5; stroke-linecap: square"/>
   </g>
   <g id="line2d_3">
    <path d="M 8.64 46.08 
L 279.36 46.08 
" clip-path="url(#pbcad93530b)" style="fill: none; stroke: #b2b2b2; stroke-opacity: 0.35; stroke-width: 0.5; stroke-linecap: square"/>
   </g>
   <g id="line2d_4">
    <path d="M 8.64 25.44 
L 279.36 25.44 
" clip-path="url(#pbcad93530b)" style="fill: none; stroke: #b2b2b2; stroke-opacity: 0.35; stroke-width: 0.5; stroke-linecap: square"/>
   </g>
   <g id="line2d_5">
    <path d="M 8.64 91.88016 
L 11.693364 90.42504 
L 14.746728 90.08448 
L 17.800091 89.92968 
L 20.853455 88.76352 
L 23.906819 87.94824 
L 26.960183 89.2692 
L 30.013547 88.72224 
L 33.066911 89.39304 
L 36.120274 89.40336 
L 39.173638 88.41264 
L 42.227002 88.4952 
L 45.280366 86.86464 
L 48.33373 86.42088 
L 51.387093 87.62832 
L 54.440457 86.93688 
L 57.493821 87.23616 
L 60.547185 88.63968 
L 63.600549 90.0432 
L 66.653912 92.12784 
L 69.707276 91.16808 
L 72.76064 91.46736 
L 75.814004 91.73568 
L 78.867368 91.78728 
L 81.920732 94.0164 
L 84.974095 92.5716 
L 88.027459 91.76664 
L 91.080823 92.33424 
L 94.134187 94.36728 
L 97.187551 94.46016 
L 100.240914 97.71096 
L 103.294278 98.48496 
L 106.347642 97.85544 
L 108.925367 99.10416 
L 111.351837 100.16712 
L 114.403646 102.23112 
L 117.443934 100.54896 
L 120.567094 100.70376 
L 123.59526 100.68312 
L 126.666047 100.95144 
L 129.713085 101.28168 
L 132.755458 101.71512 
L 135.807903 101.84928 
L 138.824548 101.034 
L 141.716798 100.54896 
L 144.966015 101.04432 
L 147.635835 100.81728 
L 151.067901 101.034 
L 154.117554 101.4984 
L 157.153071 101.33328 
L 160.187776 101.1372 
L 163.27602 101.06496 
L 166.338572 102.09696 
L 169.13399 102.05568 
L 172.434309 101.4984 
L 175.474067 100.60056 
L 178.521635 100.80696 
L 181.539023 101.45712 
L 184.661759 100.55928 
L 187.6836 101.10624 
L 190.744067 100.8792 
L 193.780326 100.74504 
L 196.840263 100.21872 
L 199.892178 100.53864 
L 202.922111 101.07528 
L 206.005125 101.38488 
L 209.067642 101.26104 
L 212.101392 100.78632 
L 215.153555 100.91016 
L 218.218934 100.99272 
L 221.266396 100.38384 
L 224.315696 100.50768 
L 227.427476 100.60056 
L 230.489463 99.76464 
L 233.489393 99.49632 
L 236.566046 99.40344 
L 239.620258 100.09488 
L 242.643901 100.3632 
L 245.679383 100.19808 
L 248.778406 100.47672 
L 251.838943 100.79664 
L 254.864035 100.26 
L 258.144811 99.83688 
L 261.007905 100.13616 
L 264.065121 100.80696 
L 267.089294 101.38488 
L 270.184253 101.3436 
L 273.246346 101.292 
L 276.280449 101.28168 
L 279.36 101.28168 
" clip-path="url(#pbcad93530b)" style="fill: none; stroke: #bebebe; stroke-width: 0.5; stroke-linecap: round"/>
   </g>
   <g id="line2d_6">
    <path d="M 8.64 75.05856 
L 11.693364 73.26288 
L 14.746728 73.20096 
L 17.800091 73.00488 
L 20.853455 71.68392 
L 23.906819 70.6932 
L 26.960183 72.62304 
L 30.013547 73.52088 
L 33.066911 73.83048 
L 36.120274 73.8408 
L 39.173638 73.29384 
L 42.227002 73.72728 
L 45.280366 70.32168 
L 48.33373 69.77472 
L 51.387093 70.34232 
L 54.440457 70.67256 
L 57.493821 70.51776 
L 60.547185 70.848 
L 63.600549 72.31344 
L 66.653912 76.01832 
L 69.707276 75.41976 
L 72.76064 75.83256 
L 75.814004 75.79128 
L 78.867368 75.82224 
L 81.920732 77.82432 
L 84.974095 76.14216 
L 88.027459 74.75928 
L 91.080823 74.96568 
L 94.134187 77.75208 
L 97.187551 79.48584 
L 100.240914 83.31456 
L 103.294278 85.90488 
L 106.347642 84.79032 
L 108.925367 85.84296 
L 111.351837 88.25784 
L 114.403646 91.41576 
L 117.443934 88.7532 
L 120.567094 88.65 
L 123.59526 88.55712 
L 126.666047 88.96992 
L 129.713085 89.7336 
L 132.755458 90.456 
L 135.807903 90.56952 
L 138.824548 89.15568 
L 141.716798 88.9596 
L 144.966015 90.6624 
L 147.635835 89.94 
L 151.067901 90.00192 
L 154.117554 90.3528 
L 157.153071 90.62112 
L 160.187776 90.5076 
L 163.27602 90.3528 
L 166.338572 92.004 
L 169.13399 92.13816 
L 172.434309 91.25064 
L 175.474067 89.166 
L 178.521635 89.56848 
L 181.539023 90.93072 
L 184.661759 89.41368 
L 187.6836 90.37344 
L 190.744067 89.79552 
L 193.780326 90.23928 
L 196.840263 88.0824 
L 199.892178 88.7532 
L 202.922111 90.16704 
L 206.005125 90.67272 
L 209.067642 90.18768 
L 212.101392 89.2692 
L 215.153555 89.54784 
L 218.218934 89.49624 
L 221.266396 88.31976 
L 224.315696 88.45392 
L 227.427476 88.46424 
L 230.489463 86.38992 
L 233.489393 84.80064 
L 236.566046 84.8316 
L 239.620258 86.586 
L 242.643901 87.74184 
L 245.679383 87.618 
L 248.778406 88.19592 
L 251.838943 89.08344 
L 254.864035 87.89664 
L 258.144811 87.3084 
L 261.007905 87.65928 
L 264.065121 88.96992 
L 267.089294 90.07416 
L 270.184253 89.76456 
L 273.246346 89.3724 
L 276.280449 89.00088 
L 279.36 88.42296 
" clip-path="url(#pbcad93530b)" style="fill: none; stroke: #4a8dff; stroke-width: 0.6"/>
   </g>
   <g id="line2d_7">
    <path d="M 8.64 84.78 
L 11.693364 83.53128 
L 14.746728 82.83984 
L 17.800091 82.03488 
L 20.853455 79.39296 
L 23.906819 79.66128 
L 26.960183 82.15872 
L 30.013547 82.43736 
L 33.066911 82.93272 
L 36.120274 83.00496 
L 39.173638 82.6128 
L 42.227002 82.28256 
L 45.280366 78.01008 
L 48.33373 76.19376 
L 51.387093 77.66952 
L 54.440457 77.74176 
L 57.493821 78.1752 
L 60.547185 79.5684 
L 63.600549 80.8068 
L 66.653912 85.20312 
L 69.707276 84.12984 
L 72.76064 84.03696 
L 75.814004 84.06792 
L 78.867368 84.3156 
L 81.920732 87.02976 
L 84.974095 85.21344 
L 88.027459 84.28464 
L 91.080823 84.32592 
L 94.134187 89.08344 
L 97.187551 89.5272 
L 100.240914 95.14128 
L 103.294278 96.98856 
L 106.347642 95.08968 
L 108.925367 97.71096 
L 111.351837 99.80592 
L 114.403646 101.79768 
L 117.443934 100.03296 
L 120.567094 100.518 
L 123.59526 99.98136 
L 126.666047 100.49736 
L 129.713085 100.78632 
L 132.755458 101.07528 
L 135.807903 101.26104 
L 138.824548 100.63152 
L 141.716798 100.38384 
L 144.966015 100.84824 
L 147.635835 100.65216 
L 151.067901 101.034 
L 154.117554 101.19912 
L 157.153071 101.10624 
L 160.187776 100.97208 
L 163.27602 100.91016 
L 166.338572 101.7564 
L 169.13399 101.84928 
L 172.434309 101.56032 
L 175.474067 100.85856 
L 178.521635 101.12688 
L 181.539023 101.4468 
L 184.661759 101.02368 
L 187.6836 101.30232 
L 190.744067 100.81728 
L 193.780326 100.79664 
L 196.840263 99.3312 
L 199.892178 99.92976 
L 202.922111 100.78632 
L 206.005125 101.17848 
L 209.067642 101.1372 
L 212.101392 100.21872 
L 215.153555 100.37352 
L 218.218934 100.4664 
L 221.266396 99.88848 
L 224.315696 99.94008 
L 227.427476 99.81624 
L 230.489463 98.93904 
L 233.489393 98.3508 
L 236.566046 98.52624 
L 239.620258 99.78528 
L 242.643901 100.12584 
L 245.679383 100.03296 
L 248.778406 100.45608 
L 251.838943 100.83792 
L 254.864035 100.11552 
L 258.144811 99.87816 
L 261.007905 100.002 
L 264.065121 100.64184 
L 267.089294 101.41584 
L 270.184253 101.21976 
L 273.246346 101.14752 
L 276.280449 101.00304 
L 279.36 100.86888 
" clip-path="url(#pbcad93530b)" style="fill: none; stroke: #f5841e; stroke-width: 0.6"/>
   </g>
  </g>
 </g>
 <defs>
  <clipPath id="pbcad93530b">
   <rect x="8.64" y="4.8" width="270.72" height="103.2"/>
  </clipPath>
 </defs>
</svg>
