<?xml version="1.0" encoding="utf-8" standalone="no"?>
<!DOCTYPE svg PUBLIC "-//W3C//DTD SVG 1.1//EN"
  "http://www.w3.org/Graphics/SVG/1.1/DTD/svg11.dtd">
<svg xmlns:xlink="http://www.w3.org/1999/xlink" width="288pt" height="120pt" viewBox="0 0 288 120" xmlns="http://www.w3.org/2000/svg" version="1.1">
<desc id="nav-meta">{"window":"1m","count":4,"labels":["28.01","07.02","17.02","27.02"],"tick_utc":["2026-01-28T12:00:00Z","2026-02-07T03:13:08Z","2026-02-17T00:31:58Z","2026-02-27T03:18:03Z"],"w":720,"h":300}</desc>

 <metadata>
  <rdf:RDF xmlns:dc="http://purl.org/dc/elements/1.1/" xmlns:cc="http://creativecommons.org/ns#" xmlns:rdf="http://www.w3.org/1999/02/22-rdf-syntax-ns#">
   <cc:Work>
    <dc:type rdf:resource="http://purl.org/dc/dcmitype/StillImage"/>
    <dc:date>2026-02-27T07:33:41.100472</dc:date>
    <dc:format>image/svg+xml</dc:format>
    <dc:creator>
     <cc:Agent>
      <dc:title>Matplotlib v3.10.8, https://matplotlib.org/</dc:title>
     </cc:Agent>
    </dc:creator>
   </cc:Work>
  </rdf:RDF>
 </metadata>
 <defs>
  <style type="text/css">*{stroke-linejoin: round; stroke-linecap: butt}</style>
 </defs>
 <g id="figure_1">
  <g id="patch_1">
   <path d="M 0 120 
L 288 120 
L 288 0 
L 0 0 
L 0 120 
z
" style="fill: none; opacity: 0"/>
  </g>
  <g id="axes_1">
   <g id="patch_2">
    <path d="M 8.64 108 
L 279.36 108 
L 279.36 4.8 
L 8.64 4.8 
L 8.64 108 
z
" style="fill: none"/>
   </g>
   <g id="matplotlib.axis_1"/>
   <g id="matplotlib.axis_2"/>
   <g id="line2d_1">
    <path d="M 8.64 87.36 
L 279.36 87.36 
" clip-path="url(#pf0be438539)" style="fill: none; stroke: #b2b2b2; stroke-opacity: 0.35; stroke-width: 0.5; stroke-linecap: square"/>
   </g>
   <g id="line2d_2">
    <path d="M 8.64 66.72 
L 279.36 66.72 
" clip-path="url(#pf0be438539)" style="fill: none; stroke: #b2b2b2; stroke-opacity: 0.35; stroke-width: 0.5; stroke-linecap: square"/>
   </g>
   <g id="line2d_3">
    <path d="M 8.64 46.08 
L 279.36 46.08 
" clip-path="url(#pf0be438539)" style="fill: none; stroke: #b2b2b2; stroke-opacity: 0.35; stroke-width: 0.5; stroke-linecap: square"/>
   </g>
   <g id="line2d_4">
    <path d="M 8.64 25.44 
L 279.36 25.44 
" clip-path="url(#pf0be438539)" style="fill: none; stroke: #b2b2b2; stroke-opacity: 0.35; stroke-width: 0.5; stroke-linecap: square"/>
   </g>
   <g id="line2d_5">
    <path d="M 8.64 91.76664 
L 17.774363 92.33424 
L 26.908726 94.36728 
L 36.043089 94.46016 
L 45.177452 97.71096 
L 54.311815 98.48496 
L 63.446178 97.85544 
L 71.157631 99.10416 
L 78.416595 100.16712 
L 87.546307 102.23112 
L 96.641552 100.54896 
L 105.984716 100.70376 
L 115.043699 100.68312 
L 124.230183 100.95144 
L 133.345622 101.28168 
L 142.447105 101.71512 
L 151.57872 101.84928 
L 160.603238 101.034 
L 169.255615 100.54896 
L 178.975888 101.04432 
L 186.962853 100.81728 
L 197.23013 101.034 
L 206.353392 101.4984 
L 215.434366 101.33328 
L 224.512908 101.1372 
L 233.751618 101.06496 
L 242.913469 102.09696 
L 251.276168 102.05568 
L 261.149315 101.4984 
L 270.242975 100.60056 
L 279.36 100.80696 
" clip-path="url(#pf0be438539)" style="fill: none; stroke: #bebebe; stroke-width: 0.5; stroke-linecap: round"/>
   </g>
   <g id="line2d_6">
    <path d="M 8.64 74.75928 
L 17.774363 74.96568 
L 26.908726 77.75208 
L 36.043089 79.48584 
L 45.177452 83.31456 
L 54.311815 85.90488 
L 63.446178 84.79032 
L 71.157631 85.84296 
L 78.416595 88.25784 
L 87.546307 91.41576 
L 96.641552 88.7532 
L 105.984716 88.65 
L 115.043699 88.55712 
L 124.230183 88.96992 
L 133.345622 89.7336 
L 142.447105 90.456 
L 151.57872 90.56952 
L 160.603238 89.15568 
L 169.255615 88.9596 
L 178.975888 90.6624 
L 186.962853 89.94 
L 197.23013 90.00192 
L 206.353392 90.3528 
L 215.434366 90.62112 
L 224.512908 90.5076 
L 233.751618 90.3528 
L 242.913469 92.004 
L 251.276168 92.13816 
L 261.149315 91.25064 
L 270.242975 89.166 
L 279.36 89.56848 
" clip-path="url(#pf0be438539)" style="fill: none; stroke: #4a8dff; stroke-width: 0.6"/>
   </g>
   <g id="line2d_7">
    <path d="M 8.64 84.28464 
L 17.774363 84.32592 
L 26.908726 89.08344 
L 36.043089 89.5272 
L 45.177452 95.14128 
L 54.311815 96.98856 
L 63.446178 95.08968 
L 71.157631 97.71096 
L 78.416595 99.80592 
L 87.546307 101.79768 
L 96.641552 100.03296 
L 105.984716 100.518 
L 115.043699 99.98136 
L 124.230183 100.49736 
L 133.345622 100.78632 
L 142.447105 101.07528 
L 151.57872 101.26104 
L 160.603238 100.63152 
L 169.255615 100.38384 
L 178.975888 100.84824 
L 186.962853 100.65216 
L 197.23013 101.034 
L 206.353392 101.19912 
L 215.434366 101.10624 
L 224.512908 100.97208 
L 233.751618 100.91016 
L 242.913469 101.7564 
L 251.276168 101.84928 
L 261.149315 101.56032 
L 270.242975 100.85856 
L 279.36 101.12688 
" clip-path="url(#pf0be438539)" style="fill: none; stroke: #f5841e; stroke-width: 0.6"/>
   </g>
  </g>
 </g>
 <defs>
  <clipPath id="pf0be438539">
   <rect x="8.64" y="4.8" width="270.72" height="103.2"/>
  </clipPath>
 </defs>
</svg>
