<?xml version="1.0" encoding="utf-8" standalone="no"?>
<!DOCTYPE svg PUBLIC "-//W3C//DTD SVG 1.1//EN"
  "http://www.w3.org/Graphics/SVG/1.1/DTD/svg11.dtd">
<svg xmlns:xlink="http://www.w3.org/1999/xlink" width="288pt" height="120pt" viewBox="0 0 288 120" xmlns="http://www.w3.org/2000/svg" version="1.1">
<desc id="nav-meta">{"window":"3m","count":4,"labels":["11.03","10.04","09.05","08.06"],"tick_utc":["2026-03-11T03:14:04Z","2026-04-10T03:51:30Z","2026-05-09T04:06:35Z","2026-06-08T05:18:19Z"],"w":720,"h":300}</desc>

 <metadata>
  <rdf:RDF xmlns:dc="http://purl.org/dc/elements/1.1/" xmlns:cc="http://creativecommons.org/ns#" xmlns:rdf="http://www.w3.org/1999/02/22-rdf-syntax-ns#">
   <cc:Work>
    <dc:type rdf:resource="http://purl.org/dc/dcmitype/StillImage"/>
    <dc:date>2026-06-08T21:05:33.700427</dc:date>
    <dc:format>image/svg+xml</dc:format>
    <dc:creator>
     <cc:Agent>
      <dc:title>Matplotlib v3.10.9, https://matplotlib.org/</dc:title>
     </cc:Agent>
    </dc:creator>
   </cc:Work>
  </rdf:RDF>
 </metadata>
 <defs>
  <style type="text/css">*{stroke-linejoin: round; stroke-linecap: butt}</style>
 </defs>
 <g id="figure_1">
  <g id="patch_1">
   <path d="M 0 120 
L 288 120 
L 288 0 
L 0 0 
L 0 120 
z
" style="fill: none; opacity: 0"/>
  </g>
  <g id="axes_1">
   <g id="patch_2">
    <path d="M 8.64 108 
L 279.36 108 
L 279.36 4.8 
L 8.64 4.8 
L 8.64 108 
z
" style="fill: none"/>
   </g>
   <g id="matplotlib.axis_1"/>
   <g id="matplotlib.axis_2"/>
   <g id="line2d_1">
    <path d="M 8.64 87.36 
L 279.36 87.36 
" clip-path="url(#pdc294383b3)" style="fill: none; stroke: #b2b2b2; stroke-opacity: 0.35; stroke-width: 0.5; stroke-linecap: square"/>
   </g>
   <g id="line2d_2">
    <path d="M 8.64 66.72 
L 279.36 66.72 
" clip-path="url(#pdc294383b3)" style="fill: none; stroke: #b2b2b2; stroke-opacity: 0.35; stroke-width: 0.5; stroke-linecap: square"/>
   </g>
   <g id="line2d_3">
    <path d="M 8.64 46.08 
L 279.36 46.08 
" clip-path="url(#pdc294383b3)" style="fill: none; stroke: #b2b2b2; stroke-opacity: 0.35; stroke-width: 0.5; stroke-linecap: square"/>
   </g>
   <g id="line2d_4">
    <path d="M 8.64 25.44 
L 279.36 25.44 
" clip-path="url(#pdc294383b3)" style="fill: none; stroke: #b2b2b2; stroke-opacity: 0.35; stroke-width: 0.5; stroke-linecap: square"/>
   </g>
   <g id="line2d_5">
    <path d="M 8.64 100.91016 
L 11.69081 100.99272 
L 14.723788 100.38384 
L 17.758595 100.50768 
L 20.855586 100.60056 
L 23.903019 99.76464 
L 26.888691 99.49632 
L 29.950721 99.40344 
L 32.990416 100.09488 
L 35.999689 100.3632 
L 39.020743 100.19808 
L 42.105037 100.47672 
L 45.151028 100.79664 
L 48.161742 100.26 
L 51.426925 99.83688 
L 54.276411 100.13616 
L 57.319097 100.80696 
L 60.328896 101.38488 
L 63.409145 101.3436 
L 66.456684 101.292 
L 69.476367 101.28168 
L 72.541281 101.28168 
L 75.540107 101.8596 
L 78.582441 101.88024 
L 81.595265 101.72544 
L 84.679876 101.68416 
L 87.72657 101.47776 
L 90.745691 101.78736 
L 93.789466 101.09592 
L 96.817731 101.46744 
L 99.884544 101.3436 
L 102.876934 101.05464 
L 105.970302 101.3952 
L 109.024735 101.47776 
L 112.044242 100.86888 
L 115.080772 101.26104 
L 118.132778 100.99272 
L 121.165439 100.61088 
L 124.170772 100.44576 
L 127.249755 100.94112 
L 130.296133 101.09592 
L 133.321655 101.00304 
L 136.35108 100.69344 
L 139.402242 100.9308 
L 142.449148 100.92048 
L 145.451737 100.81728 
L 148.53786 100.8792 
L 151.609457 100.64184 
L 154.654675 101.1888 
L 157.685226 101.09592 
L 160.729177 101.37456 
L 163.801231 101.21976 
L 166.762529 101.20944 
L 169.863072 101.23008 
L 172.900868 100.92048 
L 175.872788 101.06496 
L 178.965171 100.70376 
L 182.004831 100.55928 
L 184.993106 100.53864 
L 188.043072 99.60984 
L 191.143158 99.72336 
L 194.205997 99.44472 
L 197.202642 99.25896 
L 200.255949 99.32088 
L 203.291424 100.22904 
L 206.345259 100.01232 
L 209.345316 100.43544 
L 212.429539 100.75536 
L 215.4979 101.02368 
L 218.51498 101.02368 
L 221.5647 101.17848 
L 224.620856 100.7244 
L 227.636424 100.75536 
L 230.633527 101.11656 
L 233.720494 100.91016 
L 236.799336 100.89984 
L 239.792147 101.1372 
L 242.862196 101.2404 
L 245.89134 101.6532 
L 248.932443 101.4984 
L 251.927471 101.48808 
L 255.028365 101.32296 
L 258.112167 101.51904 
L 261.121122 101.7048 
L 264.194161 102.54072 
L 267.222602 103.08768 
L 270.211404 103.36632 
L 273.203547 104.22288 
L 276.307713 103.85136 
L 279.36 103.68624 
" clip-path="url(#pdc294383b3)" style="fill: none; stroke: #bebebe; stroke-width: 0.5; stroke-linecap: round"/>
   </g>
   <g id="line2d_6">
    <path d="M 8.64 89.54784 
L 11.69081 89.49624 
L 14.723788 88.31976 
L 17.758595 88.45392 
L 20.855586 88.46424 
L 23.903019 86.38992 
L 26.888691 84.80064 
L 29.950721 84.8316 
L 32.990416 86.586 
L 35.999689 87.74184 
L 39.020743 87.618 
L 42.105037 88.19592 
L 45.151028 89.08344 
L 48.161742 87.89664 
L 51.426925 87.3084 
L 54.276411 87.65928 
L 57.319097 88.96992 
L 60.328896 90.07416 
L 63.409145 89.76456 
L 66.456684 89.3724 
L 69.476367 89.00088 
L 72.541281 88.42296 
L 75.540107 88.81512 
L 78.582441 89.10408 
L 81.595265 89.14536 
L 84.679876 89.07312 
L 87.72657 87.9792 
L 90.745691 88.29912 
L 93.789466 86.38992 
L 96.817731 87.24648 
L 99.884544 87.1536 
L 102.876934 86.21448 
L 105.970302 86.66856 
L 109.024735 87.01944 
L 112.044242 84.44976 
L 115.080772 85.05864 
L 118.132778 84.58392 
L 121.165439 85.04832 
L 124.170772 83.71704 
L 127.249755 84.86256 
L 130.296133 85.6572 
L 133.321655 85.27536 
L 136.35108 84.49104 
L 139.402242 84.86256 
L 142.449148 85.32696 
L 145.451737 85.17216 
L 148.53786 85.31664 
L 151.609457 84.11952 
L 154.654675 85.66752 
L 157.685226 85.26504 
L 160.729177 86.26608 
L 163.801231 85.77072 
L 166.762529 85.38888 
L 169.863072 85.3992 
L 172.900868 84.09888 
L 175.872788 84.22272 
L 178.965171 84.34656 
L 182.004831 85.06896 
L 184.993106 85.7604 
L 188.043072 85.0896 
L 191.143158 85.01736 
L 194.205997 84.9348 
L 197.202642 85.296 
L 200.255949 85.35792 
L 203.291424 86.1732 
L 206.345259 85.92552 
L 209.345316 86.55504 
L 212.429539 87.13296 
L 215.4979 88.10304 
L 218.51498 87.9276 
L 221.5647 88.26816 
L 224.620856 87.78312 
L 227.636424 87.95856 
L 230.633527 88.94928 
L 233.720494 88.14432 
L 236.799336 88.33008 
L 239.792147 88.52616 
L 242.862196 88.86672 
L 245.89134 90.22896 
L 248.932443 89.82648 
L 251.927471 89.87808 
L 255.028365 89.46528 
L 258.112167 90.0432 
L 261.121122 89.96064 
L 264.194161 91.99368 
L 267.222602 93.05664 
L 270.211404 93.74808 
L 273.203547 97.02984 
L 276.307713 95.93592 
L 279.36 95.07936 
" clip-path="url(#pdc294383b3)" style="fill: none; stroke: #4a8dff; stroke-width: 0.6"/>
   </g>
   <g id="line2d_7">
    <path d="M 8.64 100.37352 
L 11.69081 100.4664 
L 14.723788 99.88848 
L 17.758595 99.94008 
L 20.855586 99.81624 
L 23.903019 98.93904 
L 26.888691 98.3508 
L 29.950721 98.52624 
L 32.990416 99.78528 
L 35.999689 100.12584 
L 39.020743 100.03296 
L 42.105037 100.45608 
L 45.151028 100.83792 
L 48.161742 100.11552 
L 51.426925 99.87816 
L 54.276411 100.002 
L 57.319097 100.64184 
L 60.328896 101.41584 
L 63.409145 101.21976 
L 66.456684 101.14752 
L 69.476367 101.00304 
L 72.541281 100.86888 
L 75.540107 101.21976 
L 78.582441 101.28168 
L 81.595265 101.20944 
L 84.679876 101.14752 
L 87.72657 100.55928 
L 90.745691 100.65216 
L 93.789466 99.80592 
L 96.817731 99.96072 
L 99.884544 99.6408 
L 102.876934 99.1764 
L 105.970302 99.70272 
L 109.024735 99.94008 
L 112.044242 98.57784 
L 115.080772 98.65008 
L 118.132778 98.38176 
L 121.165439 98.48496 
L 124.170772 96.70992 
L 127.249755 98.05152 
L 130.296133 98.48496 
L 133.321655 97.96896 
L 136.35108 96.32808 
L 139.402242 96.20424 
L 142.449148 96.16296 
L 145.451737 96.1836 
L 148.53786 96.50352 
L 151.609457 94.76976 
L 154.654675 97.19496 
L 157.685226 96.9576 
L 160.729177 97.9896 
L 163.801231 96.89568 
L 166.762529 95.45088 
L 169.863072 95.67792 
L 172.900868 93.43848 
L 175.872788 92.90184 
L 178.965171 92.25168 
L 182.004831 92.87088 
L 184.993106 94.2744 
L 188.043072 93.1392 
L 191.143158 92.97408 
L 194.205997 92.9844 
L 197.202642 92.60256 
L 200.255949 92.53032 
L 203.291424 94.54272 
L 206.345259 92.85024 
L 209.345316 94.82136 
L 212.429539 95.75016 
L 215.4979 96.97824 
L 218.51498 97.08144 
L 221.5647 97.23624 
L 224.620856 95.94624 
L 227.636424 96.30744 
L 230.633527 98.08248 
L 233.720494 97.2672 
L 236.799336 96.61704 
L 239.792147 97.23624 
L 242.862196 98.08248 
L 245.89134 99.18672 
L 248.932443 99.03192 
L 251.927471 99.1248 
L 255.028365 98.74296 
L 258.112167 99.09384 
L 261.121122 100.0536 
L 264.194161 101.23008 
L 267.222602 101.99376 
L 270.211404 102.08664 
L 273.203547 102.8916 
L 276.307713 102.45816 
L 279.36 102.28272 
" clip-path="url(#pdc294383b3)" style="fill: none; stroke: #f5841e; stroke-width: 0.6"/>
   </g>
  </g>
 </g>
 <defs>
  <clipPath id="pdc294383b3">
   <rect x="8.64" y="4.8" width="270.72" height="103.2"/>
  </clipPath>
 </defs>
</svg>
