<?xml version="1.0" encoding="utf-8" standalone="no"?>
<!DOCTYPE svg PUBLIC "-//W3C//DTD SVG 1.1//EN"
  "http://www.w3.org/Graphics/SVG/1.1/DTD/svg11.dtd">
<svg xmlns:xlink="http://www.w3.org/1999/xlink" width="288pt" height="120pt" viewBox="0 0 288 120" xmlns="http://www.w3.org/2000/svg" version="1.1">
<desc id="nav-meta">{"window":"1m","count":4,"labels":["05.06","15.06","24.06","04.07"],"tick_utc":["2026-06-05T05:03:08Z","2026-06-15T06:07:39Z","2026-06-24T04:50:37Z","2026-07-04T04:23:54Z"],"w":720,"h":300}</desc>

 <metadata>
  <rdf:RDF xmlns:dc="http://purl.org/dc/elements/1.1/" xmlns:cc="http://creativecommons.org/ns#" xmlns:rdf="http://www.w3.org/1999/02/22-rdf-syntax-ns#">
   <cc:Work>
    <dc:type rdf:resource="http://purl.org/dc/dcmitype/StillImage"/>
    <dc:date>2026-07-04T14:13:52.137515</dc:date>
    <dc:format>image/svg+xml</dc:format>
    <dc:creator>
     <cc:Agent>
      <dc:title>Matplotlib v3.11.0, https://matplotlib.org/</dc:title>
     </cc:Agent>
    </dc:creator>
   </cc:Work>
  </rdf:RDF>
 </metadata>
 <defs>
  <style type="text/css">*{stroke-linejoin: round; stroke-linecap: butt}</style>
 </defs>
 <g id="figure_1">
  <g id="patch_1">
   <path d="M 0 120 
L 288 120 
L 288 0 
L 0 0 
L 0 120 
z
" style="fill: none; opacity: 0"/>
  </g>
  <g id="axes_1">
   <g id="patch_2">
    <path d="M 8.64 108 
L 279.36 108 
L 279.36 4.8 
L 8.64 4.8 
L 8.64 108 
z
" style="fill: none"/>
   </g>
   <g id="matplotlib.axis_1"/>
   <g id="matplotlib.axis_2"/>
   <g id="line2d_1">
    <path d="M 8.64 87.36 
L 279.36 87.36 
" clip-path="url(#p6066234761)" style="fill: none; stroke: #b2b2b2; stroke-opacity: 0.35; stroke-width: 0.5; stroke-linecap: square"/>
   </g>
   <g id="line2d_2">
    <path d="M 8.64 66.72 
L 279.36 66.72 
" clip-path="url(#p6066234761)" style="fill: none; stroke: #b2b2b2; stroke-opacity: 0.35; stroke-width: 0.5; stroke-linecap: square"/>
   </g>
   <g id="line2d_3">
    <path d="M 8.64 46.08 
L 279.36 46.08 
" clip-path="url(#p6066234761)" style="fill: none; stroke: #b2b2b2; stroke-opacity: 0.35; stroke-width: 0.5; stroke-linecap: square"/>
   </g>
   <g id="line2d_4">
    <path d="M 8.64 25.44 
L 279.36 25.44 
" clip-path="url(#p6066234761)" style="fill: none; stroke: #b2b2b2; stroke-opacity: 0.35; stroke-width: 0.5; stroke-linecap: square"/>
   </g>
   <g id="line2d_5">
    <path d="M 8.64 103.36632 
L 17.840331 104.22288 
L 27.385112 103.85136 
L 36.770375 103.68624 
L 45.935991 103.43856 
L 55.376842 103.81008 
L 64.775624 103.72752 
L 74.156237 103.50048 
L 83.431839 103.5108 
L 92.843599 103.31472 
L 102.498149 102.95352 
L 111.895417 102.61296 
L 120.941746 102.6336 
L 130.240924 102.9948 
L 139.804955 103.28376 
L 148.775256 103.01544 
L 158.313657 102.69552 
L 167.931113 102.582 
L 176.716482 102.88128 
L 186.09385 103.15992 
L 195.435314 103.36632 
L 204.827174 103.36632 
L 214.056597 102.81936 
L 223.578667 103.0464 
L 232.990211 102.9432 
L 242.153014 102.59232 
L 251.633664 102.40656 
L 260.813988 102.02472 
L 270.05628 101.68416 
L 279.36 101.3436 
" clip-path="url(#p6066234761)" style="fill: none; stroke: #bebebe; stroke-width: 0.5; stroke-linecap: round"/>
   </g>
   <g id="line2d_6">
    <path d="M 8.64 93.74808 
L 17.840331 97.02984 
L 27.385112 95.93592 
L 36.770375 95.07936 
L 45.935991 94.46016 
L 55.376842 95.47152 
L 64.775624 95.11032 
L 74.156237 94.82136 
L 83.431839 94.8936 
L 92.843599 94.70784 
L 102.498149 94.04736 
L 111.895417 93.40752 
L 120.941746 92.9844 
L 130.240924 93.93384 
L 139.804955 94.4292 
L 148.775256 94.19184 
L 158.313657 93.87192 
L 167.931113 93.81 
L 176.716482 94.03704 
L 186.09385 94.83168 
L 195.435314 95.48184 
L 204.827174 96.63768 
L 214.056597 96.14232 
L 223.578667 96.30744 
L 232.990211 96.29712 
L 242.153014 96.04944 
L 251.633664 95.9256 
L 260.813988 95.39928 
L 270.05628 94.31568 
L 279.36 93.57264 
" clip-path="url(#p6066234761)" style="fill: none; stroke: #4a8dff; stroke-width: 0.6"/>
   </g>
   <g id="line2d_7">
    <path d="M 8.64 102.08664 
L 17.840331 102.8916 
L 27.385112 102.45816 
L 36.770375 102.28272 
L 45.935991 102.10728 
L 55.376842 102.582 
L 64.775624 102.29304 
L 74.156237 102.08664 
L 83.431839 102.066 
L 92.843599 101.86992 
L 102.498149 101.48808 
L 111.895417 101.40552 
L 120.941746 101.4984 
L 130.240924 101.97312 
L 139.804955 102.26208 
L 148.775256 102.066 
L 158.313657 101.90088 
L 167.931113 101.90088 
L 176.716482 102.0144 
L 186.09385 102.25176 
L 195.435314 102.6336 
L 204.827174 102.88128 
L 214.056597 102.77808 
L 223.578667 102.85032 
L 232.990211 102.93288 
L 242.153014 102.95352 
L 251.633664 103.00512 
L 260.813988 102.69552 
L 270.05628 102.55104 
L 279.36 102.2724 
" clip-path="url(#p6066234761)" style="fill: none; stroke: #f5841e; stroke-width: 0.6"/>
   </g>
  </g>
 </g>
 <defs>
  <clipPath id="p6066234761">
   <rect x="8.64" y="4.8" width="270.72" height="103.2"/>
  </clipPath>
 </defs>
</svg>
