<?xml version="1.0" encoding="utf-8" standalone="no"?>
<!DOCTYPE svg PUBLIC "-//W3C//DTD SVG 1.1//EN"
  "http://www.w3.org/Graphics/SVG/1.1/DTD/svg11.dtd">
<svg xmlns:xlink="http://www.w3.org/1999/xlink" width="288pt" height="120pt" viewBox="0 0 288 120" xmlns="http://www.w3.org/2000/svg" version="1.1">
<desc id="nav-meta">{"window":"3m","count":4,"labels":["09.12","08.01","06.02","08.03"],"tick_utc":["2025-12-09T12:00:00Z","2026-01-08T12:00:00Z","2026-02-06T03:19:18Z","2026-03-08T03:19:34Z"],"w":720,"h":300}</desc>

 <metadata>
  <rdf:RDF xmlns:dc="http://purl.org/dc/elements/1.1/" xmlns:cc="http://creativecommons.org/ns#" xmlns:rdf="http://www.w3.org/1999/02/22-rdf-syntax-ns#">
   <cc:Work>
    <dc:type rdf:resource="http://purl.org/dc/dcmitype/StillImage"/>
    <dc:date>2026-03-08T13:27:28.974504</dc:date>
    <dc:format>image/svg+xml</dc:format>
    <dc:creator>
     <cc:Agent>
      <dc:title>Matplotlib v3.10.8, https://matplotlib.org/</dc:title>
     </cc:Agent>
    </dc:creator>
   </cc:Work>
  </rdf:RDF>
 </metadata>
 <defs>
  <style type="text/css">*{stroke-linejoin: round; stroke-linecap: butt}</style>
 </defs>
 <g id="figure_1">
  <g id="patch_1">
   <path d="M 0 120 
L 288 120 
L 288 0 
L 0 0 
L 0 120 
z
" style="fill: none; opacity: 0"/>
  </g>
  <g id="axes_1">
   <g id="patch_2">
    <path d="M 8.64 108 
L 279.36 108 
L 279.36 4.8 
L 8.64 4.8 
L 8.64 108 
z
" style="fill: none"/>
   </g>
   <g id="matplotlib.axis_1"/>
   <g id="matplotlib.axis_2"/>
   <g id="line2d_1">
    <path d="M 8.64 87.36 
L 279.36 87.36 
" clip-path="url(#p9e44a03b6b)" style="fill: none; stroke: #b2b2b2; stroke-opacity: 0.35; stroke-width: 0.5; stroke-linecap: square"/>
   </g>
   <g id="line2d_2">
    <path d="M 8.64 66.72 
L 279.36 66.72 
" clip-path="url(#p9e44a03b6b)" style="fill: none; stroke: #b2b2b2; stroke-opacity: 0.35; stroke-width: 0.5; stroke-linecap: square"/>
   </g>
   <g id="line2d_3">
    <path d="M 8.64 46.08 
L 279.36 46.08 
" clip-path="url(#p9e44a03b6b)" style="fill: none; stroke: #b2b2b2; stroke-opacity: 0.35; stroke-width: 0.5; stroke-linecap: square"/>
   </g>
   <g id="line2d_4">
    <path d="M 8.64 25.44 
L 279.36 25.44 
" clip-path="url(#p9e44a03b6b)" style="fill: none; stroke: #b2b2b2; stroke-opacity: 0.35; stroke-width: 0.5; stroke-linecap: square"/>
   </g>
   <g id="line2d_5">
    <path d="M 8.64 90.08448 
L 11.6942 88.79448 
L 14.748401 89.20728 
L 17.802601 89.22792 
L 20.856801 90.31152 
L 23.911001 90.10512 
L 26.965202 91.09584 
L 30.019402 91.61184 
L 33.073602 91.31256 
L 36.127803 92.87088 
L 39.182003 93.8616 
L 42.236203 92.02464 
L 45.290403 92.13816 
L 48.344604 92.07624 
L 51.398804 92.14848 
L 54.453004 92.64384 
L 57.507204 93.01536 
L 60.561405 93.69648 
L 63.615605 93.11856 
L 66.669805 92.44776 
L 69.724006 92.30328 
L 72.778206 92.87088 
L 75.832406 92.38584 
L 78.886606 92.47872 
L 81.940807 91.88016 
L 84.995007 90.42504 
L 88.049207 90.08448 
L 91.103408 89.92968 
L 94.157608 88.76352 
L 97.211808 87.94824 
L 100.266008 89.2692 
L 103.320209 88.72224 
L 106.374409 89.39304 
L 109.428609 89.40336 
L 112.482809 88.41264 
L 115.53701 88.4952 
L 118.59121 86.86464 
L 121.64541 86.42088 
L 124.699611 87.62832 
L 127.753811 86.93688 
L 130.808011 87.23616 
L 133.862211 88.63968 
L 136.916412 90.0432 
L 139.970612 92.12784 
L 143.024812 91.16808 
L 146.079013 91.46736 
L 149.133213 91.73568 
L 152.187413 91.78728 
L 155.241613 94.0164 
L 158.295814 92.5716 
L 161.350014 91.76664 
L 164.404214 92.33424 
L 167.458414 94.36728 
L 170.512615 94.46016 
L 173.566815 97.71096 
L 176.621015 98.48496 
L 179.675216 97.85544 
L 182.253646 99.10416 
L 184.680781 100.16712 
L 187.733426 102.23112 
L 190.774547 100.54896 
L 193.898563 100.70376 
L 196.927559 100.68312 
L 199.999186 100.95144 
L 203.047059 101.28168 
L 206.090266 101.71512 
L 209.143547 101.84928 
L 212.161019 101.034 
L 215.054061 100.54896 
L 218.304168 101.04432 
L 220.97472 100.81728 
L 224.407726 101.034 
L 227.458214 101.4984 
L 230.494563 101.33328 
L 233.530099 101.1372 
L 236.619189 101.06496 
L 239.68258 102.09696 
L 242.478764 102.05568 
L 245.779987 101.4984 
L 248.820578 100.60056 
L 251.868981 100.80696 
L 254.887195 101.45712 
L 258.010787 100.55928 
L 261.033455 101.10624 
L 264.094761 100.8792 
L 267.131852 100.74504 
L 270.192627 100.21872 
L 273.245378 100.53864 
L 276.276141 101.07528 
L 279.36 101.38488 
" clip-path="url(#p9e44a03b6b)" style="fill: none; stroke: #bebebe; stroke-width: 0.5; stroke-linecap: round"/>
   </g>
   <g id="line2d_6">
    <path d="M 8.64 73.21128 
L 11.6942 70.2804 
L 14.748401 70.2288 
L 17.802601 71.56008 
L 20.856801 73.79952 
L 23.911001 73.35576 
L 26.965202 74.0988 
L 30.019402 75.5952 
L 33.073602 75.5952 
L 36.127803 77.61792 
L 39.182003 77.63856 
L 42.236203 75.40944 
L 45.290403 75.40944 
L 48.344604 75.04824 
L 51.398804 74.98632 
L 54.453004 75.58488 
L 57.507204 75.87384 
L 60.561405 76.49304 
L 63.615605 76.15248 
L 66.669805 75.82224 
L 69.724006 75.84288 
L 72.778206 76.03896 
L 75.832406 75.51264 
L 78.886606 75.56424 
L 81.940807 75.05856 
L 84.995007 73.26288 
L 88.049207 73.20096 
L 91.103408 73.00488 
L 94.157608 71.68392 
L 97.211808 70.6932 
L 100.266008 72.62304 
L 103.320209 73.52088 
L 106.374409 73.83048 
L 109.428609 73.8408 
L 112.482809 73.29384 
L 115.53701 73.72728 
L 118.59121 70.32168 
L 121.64541 69.77472 
L 124.699611 70.34232 
L 127.753811 70.67256 
L 130.808011 70.51776 
L 133.862211 70.848 
L 136.916412 72.31344 
L 139.970612 76.01832 
L 143.024812 75.41976 
L 146.079013 75.83256 
L 149.133213 75.79128 
L 152.187413 75.82224 
L 155.241613 77.82432 
L 158.295814 76.14216 
L 161.350014 74.75928 
L 164.404214 74.96568 
L 167.458414 77.75208 
L 170.512615 79.48584 
L 173.566815 83.31456 
L 176.621015 85.90488 
L 179.675216 84.79032 
L 182.253646 85.84296 
L 184.680781 88.25784 
L 187.733426 91.41576 
L 190.774547 88.7532 
L 193.898563 88.65 
L 196.927559 88.55712 
L 199.999186 88.96992 
L 203.047059 89.7336 
L 206.090266 90.456 
L 209.143547 90.56952 
L 212.161019 89.15568 
L 215.054061 88.9596 
L 218.304168 90.6624 
L 220.97472 89.94 
L 224.407726 90.00192 
L 227.458214 90.3528 
L 230.494563 90.62112 
L 233.530099 90.5076 
L 236.619189 90.3528 
L 239.68258 92.004 
L 242.478764 92.13816 
L 245.779987 91.25064 
L 248.820578 89.166 
L 251.868981 89.56848 
L 254.887195 90.93072 
L 258.010787 89.41368 
L 261.033455 90.37344 
L 264.094761 89.79552 
L 267.131852 90.23928 
L 270.192627 88.0824 
L 273.245378 88.7532 
L 276.276141 90.16704 
L 279.36 90.67272 
" clip-path="url(#p9e44a03b6b)" style="fill: none; stroke: #4a8dff; stroke-width: 0.6"/>
   </g>
   <g id="line2d_7">
    <path d="M 8.64 82.8192 
L 11.6942 80.64168 
L 14.748401 81.38472 
L 17.802601 80.87904 
L 20.856801 83.13912 
L 23.911001 83.19072 
L 26.965202 85.296 
L 30.019402 87.17424 
L 33.073602 85.71912 
L 36.127803 87.53544 
L 39.182003 88.17528 
L 42.236203 85.41984 
L 45.290403 85.17216 
L 48.344604 84.9348 
L 51.398804 85.01736 
L 54.453004 86.14224 
L 57.507204 85.90488 
L 60.561405 86.328 
L 63.615605 86.24544 
L 66.669805 85.72944 
L 69.724006 85.7088 
L 72.778206 86.40024 
L 75.832406 85.09992 
L 78.886606 86.02872 
L 81.940807 84.78 
L 84.995007 83.53128 
L 88.049207 82.83984 
L 91.103408 82.03488 
L 94.157608 79.39296 
L 97.211808 79.66128 
L 100.266008 82.15872 
L 103.320209 82.43736 
L 106.374409 82.93272 
L 109.428609 83.00496 
L 112.482809 82.6128 
L 115.53701 82.28256 
L 118.59121 78.01008 
L 121.64541 76.19376 
L 124.699611 77.66952 
L 127.753811 77.74176 
L 130.808011 78.1752 
L 133.862211 79.5684 
L 136.916412 80.8068 
L 139.970612 85.20312 
L 143.024812 84.12984 
L 146.079013 84.03696 
L 149.133213 84.06792 
L 152.187413 84.3156 
L 155.241613 87.02976 
L 158.295814 85.21344 
L 161.350014 84.28464 
L 164.404214 84.32592 
L 167.458414 89.08344 
L 170.512615 89.5272 
L 173.566815 95.14128 
L 176.621015 96.98856 
L 179.675216 95.08968 
L 182.253646 97.71096 
L 184.680781 99.80592 
L 187.733426 101.79768 
L 190.774547 100.03296 
L 193.898563 100.518 
L 196.927559 99.98136 
L 199.999186 100.49736 
L 203.047059 100.78632 
L 206.090266 101.07528 
L 209.143547 101.26104 
L 212.161019 100.63152 
L 215.054061 100.38384 
L 218.304168 100.84824 
L 220.97472 100.65216 
L 224.407726 101.034 
L 227.458214 101.19912 
L 230.494563 101.10624 
L 233.530099 100.97208 
L 236.619189 100.91016 
L 239.68258 101.7564 
L 242.478764 101.84928 
L 245.779987 101.56032 
L 248.820578 100.85856 
L 251.868981 101.12688 
L 254.887195 101.4468 
L 258.010787 101.02368 
L 261.033455 101.30232 
L 264.094761 100.81728 
L 267.131852 100.79664 
L 270.192627 99.3312 
L 273.245378 99.92976 
L 276.276141 100.78632 
L 279.36 101.17848 
" clip-path="url(#p9e44a03b6b)" style="fill: none; stroke: #f5841e; stroke-width: 0.6"/>
   </g>
  </g>
 </g>
 <defs>
  <clipPath id="p9e44a03b6b">
   <rect x="8.64" y="4.8" width="270.72" height="103.2"/>
  </clipPath>
 </defs>
</svg>
