<?xml version="1.0" encoding="utf-8" standalone="no"?>
<!DOCTYPE svg PUBLIC "-//W3C//DTD SVG 1.1//EN"
  "http://www.w3.org/Graphics/SVG/1.1/DTD/svg11.dtd">
<svg xmlns:xlink="http://www.w3.org/1999/xlink" width="288pt" height="120pt" viewBox="0 0 288 120" xmlns="http://www.w3.org/2000/svg" version="1.1">
<desc id="nav-meta">{"window":"3m","count":4,"labels":["25.01","24.02","26.03","25.04"],"tick_utc":["2026-01-25T12:00:00Z","2026-02-24T01:30:44Z","2026-03-26T03:39:29Z","2026-04-25T03:44:07Z"],"w":720,"h":300}</desc>

 <metadata>
  <rdf:RDF xmlns:dc="http://purl.org/dc/elements/1.1/" xmlns:cc="http://creativecommons.org/ns#" xmlns:rdf="http://www.w3.org/1999/02/22-rdf-syntax-ns#">
   <cc:Work>
    <dc:type rdf:resource="http://purl.org/dc/dcmitype/StillImage"/>
    <dc:date>2026-04-25T07:53:40.845971</dc:date>
    <dc:format>image/svg+xml</dc:format>
    <dc:creator>
     <cc:Agent>
      <dc:title>Matplotlib v3.10.9, https://matplotlib.org/</dc:title>
     </cc:Agent>
    </dc:creator>
   </cc:Work>
  </rdf:RDF>
 </metadata>
 <defs>
  <style type="text/css">*{stroke-linejoin: round; stroke-linecap: butt}</style>
 </defs>
 <g id="figure_1">
  <g id="patch_1">
   <path d="M 0 120 
L 288 120 
L 288 0 
L 0 0 
L 0 120 
z
" style="fill: none; opacity: 0"/>
  </g>
  <g id="axes_1">
   <g id="patch_2">
    <path d="M 8.64 108 
L 279.36 108 
L 279.36 4.8 
L 8.64 4.8 
L 8.64 108 
z
" style="fill: none"/>
   </g>
   <g id="matplotlib.axis_1"/>
   <g id="matplotlib.axis_2"/>
   <g id="line2d_1">
    <path d="M 8.64 87.36 
L 279.36 87.36 
" clip-path="url(#p03ecfb694f)" style="fill: none; stroke: #b2b2b2; stroke-opacity: 0.35; stroke-width: 0.5; stroke-linecap: square"/>
   </g>
   <g id="line2d_2">
    <path d="M 8.64 66.72 
L 279.36 66.72 
" clip-path="url(#p03ecfb694f)" style="fill: none; stroke: #b2b2b2; stroke-opacity: 0.35; stroke-width: 0.5; stroke-linecap: square"/>
   </g>
   <g id="line2d_3">
    <path d="M 8.64 46.08 
L 279.36 46.08 
" clip-path="url(#p03ecfb694f)" style="fill: none; stroke: #b2b2b2; stroke-opacity: 0.35; stroke-width: 0.5; stroke-linecap: square"/>
   </g>
   <g id="line2d_4">
    <path d="M 8.64 25.44 
L 279.36 25.44 
" clip-path="url(#p03ecfb694f)" style="fill: none; stroke: #b2b2b2; stroke-opacity: 0.35; stroke-width: 0.5; stroke-linecap: square"/>
   </g>
   <g id="line2d_5">
    <path d="M 8.64 91.78728 
L 11.659554 94.0164 
L 14.679107 92.5716 
L 17.698661 91.76664 
L 20.718214 92.33424 
L 23.737768 94.36728 
L 26.757322 94.46016 
L 29.776875 97.71096 
L 32.796429 98.48496 
L 35.815982 97.85544 
L 38.365164 99.10416 
L 40.764765 100.16712 
L 43.782781 102.23112 
L 46.789404 100.54896 
L 49.877981 100.70376 
L 52.872616 100.68312 
L 55.909399 100.95144 
L 58.922697 101.28168 
L 61.931382 101.71512 
L 64.950026 101.84928 
L 67.933269 101.034 
L 70.793492 100.54896 
L 74.00673 101.04432 
L 76.646987 100.81728 
L 80.041049 101.034 
L 83.056933 101.4984 
L 86.058838 101.33328 
L 89.059939 101.1372 
L 92.113987 101.06496 
L 95.142627 102.09696 
L 97.907091 102.05568 
L 101.170865 101.4984 
L 104.176963 100.60056 
L 107.190785 100.80696 
L 110.174761 101.45712 
L 113.262919 100.55928 
L 116.251298 101.10624 
L 119.277877 100.8792 
L 122.280515 100.74504 
L 125.306569 100.21872 
L 128.32469 100.53864 
L 131.321073 101.07528 
L 134.369948 101.38488 
L 137.398553 101.26104 
L 140.398711 100.78632 
L 143.417076 100.91016 
L 146.448512 100.99272 
L 149.462229 100.38384 
L 152.477764 100.50768 
L 155.555087 100.60056 
L 158.583168 99.76464 
L 161.54988 99.49632 
L 164.592464 99.40344 
L 167.612857 100.09488 
L 170.603019 100.3632 
L 173.604888 100.19808 
L 176.669595 100.47672 
L 179.696243 100.79664 
L 182.687838 100.26 
L 185.932286 99.83688 
L 188.763676 100.13616 
L 191.787039 100.80696 
L 194.777725 101.38488 
L 197.838413 101.3436 
L 200.866599 101.292 
L 203.867106 101.28168 
L 206.912556 101.28168 
L 209.892339 101.8596 
L 212.915352 101.88024 
L 215.909044 101.72544 
L 218.974065 101.68416 
L 222.001413 101.47776 
L 225.00136 101.78736 
L 228.025806 101.09592 
L 231.034841 101.46744 
L 234.082178 101.3436 
L 237.055565 101.05464 
L 240.129289 101.3952 
L 243.164324 101.47776 
L 246.164656 100.86888 
L 249.181903 101.26104 
L 252.214528 100.99272 
L 255.22793 100.61088 
L 258.214178 100.44576 
L 261.273608 100.94112 
L 264.30064 101.09592 
L 267.306949 101.00304 
L 270.317136 100.69344 
L 273.348922 100.9308 
L 276.376478 100.92048 
L 279.36 100.81728 
" clip-path="url(#p03ecfb694f)" style="fill: none; stroke: #bebebe; stroke-width: 0.5; stroke-linecap: round"/>
   </g>
   <g id="line2d_6">
    <path d="M 8.64 75.82224 
L 11.659554 77.82432 
L 14.679107 76.14216 
L 17.698661 74.75928 
L 20.718214 74.96568 
L 23.737768 77.75208 
L 26.757322 79.48584 
L 29.776875 83.31456 
L 32.796429 85.90488 
L 35.815982 84.79032 
L 38.365164 85.84296 
L 40.764765 88.25784 
L 43.782781 91.41576 
L 46.789404 88.7532 
L 49.877981 88.65 
L 52.872616 88.55712 
L 55.909399 88.96992 
L 58.922697 89.7336 
L 61.931382 90.456 
L 64.950026 90.56952 
L 67.933269 89.15568 
L 70.793492 88.9596 
L 74.00673 90.6624 
L 76.646987 89.94 
L 80.041049 90.00192 
L 83.056933 90.3528 
L 86.058838 90.62112 
L 89.059939 90.5076 
L 92.113987 90.3528 
L 95.142627 92.004 
L 97.907091 92.13816 
L 101.170865 91.25064 
L 104.176963 89.166 
L 107.190785 89.56848 
L 110.174761 90.93072 
L 113.262919 89.41368 
L 116.251298 90.37344 
L 119.277877 89.79552 
L 122.280515 90.23928 
L 125.306569 88.0824 
L 128.32469 88.7532 
L 131.321073 90.16704 
L 134.369948 90.67272 
L 137.398553 90.18768 
L 140.398711 89.2692 
L 143.417076 89.54784 
L 146.448512 89.49624 
L 149.462229 88.31976 
L 152.477764 88.45392 
L 155.555087 88.46424 
L 158.583168 86.38992 
L 161.54988 84.80064 
L 164.592464 84.8316 
L 167.612857 86.586 
L 170.603019 87.74184 
L 173.604888 87.618 
L 176.669595 88.19592 
L 179.696243 89.08344 
L 182.687838 87.89664 
L 185.932286 87.3084 
L 188.763676 87.65928 
L 191.787039 88.96992 
L 194.777725 90.07416 
L 197.838413 89.76456 
L 200.866599 89.3724 
L 203.867106 89.00088 
L 206.912556 88.42296 
L 209.892339 88.81512 
L 212.915352 89.10408 
L 215.909044 89.14536 
L 218.974065 89.07312 
L 222.001413 87.9792 
L 225.00136 88.29912 
L 228.025806 86.38992 
L 231.034841 87.24648 
L 234.082178 87.1536 
L 237.055565 86.21448 
L 240.129289 86.66856 
L 243.164324 87.01944 
L 246.164656 84.44976 
L 249.181903 85.05864 
L 252.214528 84.58392 
L 255.22793 85.04832 
L 258.214178 83.71704 
L 261.273608 84.86256 
L 264.30064 85.6572 
L 267.306949 85.27536 
L 270.317136 84.49104 
L 273.348922 84.86256 
L 276.376478 85.32696 
L 279.36 85.17216 
" clip-path="url(#p03ecfb694f)" style="fill: none; stroke: #4a8dff; stroke-width: 0.6"/>
   </g>
   <g id="line2d_7">
    <path d="M 8.64 84.3156 
L 11.659554 87.02976 
L 14.679107 85.21344 
L 17.698661 84.28464 
L 20.718214 84.32592 
L 23.737768 89.08344 
L 26.757322 89.5272 
L 29.776875 95.14128 
L 32.796429 96.98856 
L 35.815982 95.08968 
L 38.365164 97.71096 
L 40.764765 99.80592 
L 43.782781 101.79768 
L 46.789404 100.03296 
L 49.877981 100.518 
L 52.872616 99.98136 
L 55.909399 100.49736 
L 58.922697 100.78632 
L 61.931382 101.07528 
L 64.950026 101.26104 
L 67.933269 100.63152 
L 70.793492 100.38384 
L 74.00673 100.84824 
L 76.646987 100.65216 
L 80.041049 101.034 
L 83.056933 101.19912 
L 86.058838 101.10624 
L 89.059939 100.97208 
L 92.113987 100.91016 
L 95.142627 101.7564 
L 97.907091 101.84928 
L 101.170865 101.56032 
L 104.176963 100.85856 
L 107.190785 101.12688 
L 110.174761 101.4468 
L 113.262919 101.02368 
L 116.251298 101.30232 
L 119.277877 100.81728 
L 122.280515 100.79664 
L 125.306569 99.3312 
L 128.32469 99.92976 
L 131.321073 100.78632 
L 134.369948 101.17848 
L 137.398553 101.1372 
L 140.398711 100.21872 
L 143.417076 100.37352 
L 146.448512 100.4664 
L 149.462229 99.88848 
L 152.477764 99.94008 
L 155.555087 99.81624 
L 158.583168 98.93904 
L 161.54988 98.3508 
L 164.592464 98.52624 
L 167.612857 99.78528 
L 170.603019 100.12584 
L 173.604888 100.03296 
L 176.669595 100.45608 
L 179.696243 100.83792 
L 182.687838 100.11552 
L 185.932286 99.87816 
L 188.763676 100.002 
L 191.787039 100.64184 
L 194.777725 101.41584 
L 197.838413 101.21976 
L 200.866599 101.14752 
L 203.867106 101.00304 
L 206.912556 100.86888 
L 209.892339 101.21976 
L 212.915352 101.28168 
L 215.909044 101.20944 
L 218.974065 101.14752 
L 222.001413 100.55928 
L 225.00136 100.65216 
L 228.025806 99.80592 
L 231.034841 99.96072 
L 234.082178 99.6408 
L 237.055565 99.1764 
L 240.129289 99.70272 
L 243.164324 99.94008 
L 246.164656 98.57784 
L 249.181903 98.65008 
L 252.214528 98.38176 
L 255.22793 98.48496 
L 258.214178 96.70992 
L 261.273608 98.05152 
L 264.30064 98.48496 
L 267.306949 97.96896 
L 270.317136 96.32808 
L 273.348922 96.20424 
L 276.376478 96.16296 
L 279.36 96.1836 
" clip-path="url(#p03ecfb694f)" style="fill: none; stroke: #f5841e; stroke-width: 0.6"/>
   </g>
  </g>
 </g>
 <defs>
  <clipPath id="p03ecfb694f">
   <rect x="8.64" y="4.8" width="270.72" height="103.2"/>
  </clipPath>
 </defs>
</svg>
