<?xml version="1.0" encoding="utf-8" standalone="no"?>
<!DOCTYPE svg PUBLIC "-//W3C//DTD SVG 1.1//EN"
  "http://www.w3.org/Graphics/SVG/1.1/DTD/svg11.dtd">
<svg xmlns:xlink="http://www.w3.org/1999/xlink" width="288pt" height="120pt" viewBox="0 0 288 120" xmlns="http://www.w3.org/2000/svg" version="1.1">
<desc id="nav-meta">{"window":"1m","count":4,"labels":["22.06","02.07","12.07","22.07"],"tick_utc":["2026-06-22T06:11:33Z","2026-07-02T04:45:46Z","2026-07-12T04:17:37Z","2026-07-22T04:00:32Z"],"w":720,"h":300}</desc>

 <metadata>
  <rdf:RDF xmlns:dc="http://purl.org/dc/elements/1.1/" xmlns:cc="http://creativecommons.org/ns#" xmlns:rdf="http://www.w3.org/1999/02/22-rdf-syntax-ns#">
   <cc:Work>
    <dc:type rdf:resource="http://purl.org/dc/dcmitype/StillImage"/>
    <dc:date>2026-07-22T04:00:33.790140</dc:date>
    <dc:format>image/svg+xml</dc:format>
    <dc:creator>
     <cc:Agent>
      <dc:title>Matplotlib v3.11.1, https://matplotlib.org/</dc:title>
     </cc:Agent>
    </dc:creator>
   </cc:Work>
  </rdf:RDF>
 </metadata>
 <defs>
  <style type="text/css">*{stroke-linejoin: round; stroke-linecap: butt}</style>
 </defs>
 <g id="figure_1">
  <g id="patch_1">
   <path d="M 0 120 
L 288 120 
L 288 0 
L 0 0 
L 0 120 
z
" style="fill: none; opacity: 0"/>
  </g>
  <g id="axes_1">
   <g id="patch_2">
    <path d="M 8.64 108 
L 279.36 108 
L 279.36 4.8 
L 8.64 4.8 
L 8.64 108 
z
" style="fill: none"/>
   </g>
   <g id="matplotlib.axis_1"/>
   <g id="matplotlib.axis_2"/>
   <g id="line2d_1">
    <path d="M 8.64 87.36 
L 279.36 87.36 
" clip-path="url(#p47d62686ea)" style="fill: none; stroke: #b2b2b2; stroke-opacity: 0.35; stroke-width: 0.5; stroke-linecap: square"/>
   </g>
   <g id="line2d_2">
    <path d="M 8.64 66.72 
L 279.36 66.72 
" clip-path="url(#p47d62686ea)" style="fill: none; stroke: #b2b2b2; stroke-opacity: 0.35; stroke-width: 0.5; stroke-linecap: square"/>
   </g>
   <g id="line2d_3">
    <path d="M 8.64 46.08 
L 279.36 46.08 
" clip-path="url(#p47d62686ea)" style="fill: none; stroke: #b2b2b2; stroke-opacity: 0.35; stroke-width: 0.5; stroke-linecap: square"/>
   </g>
   <g id="line2d_4">
    <path d="M 8.64 25.44 
L 279.36 25.44 
" clip-path="url(#p47d62686ea)" style="fill: none; stroke: #b2b2b2; stroke-opacity: 0.35; stroke-width: 0.5; stroke-linecap: square"/>
   </g>
   <g id="line2d_5">
    <path d="M 8.64 102.582 
L 17.150355 102.88128 
L 26.234177 103.15992 
L 35.283219 103.36632 
L 44.38108 103.36632 
L 53.321588 102.81936 
L 62.545582 103.0464 
L 71.66251 102.9432 
L 80.538484 102.59232 
L 89.722355 102.40656 
L 98.615301 102.02472 
L 107.568276 101.68416 
L 116.580755 101.3436 
L 125.764731 101.6532 
L 134.903868 101.6532 
L 143.819547 101.63256 
L 152.625017 101.95248 
L 161.95084 102.08664 
L 170.981863 101.9112 
L 179.766066 102.066 
L 188.952869 102.18984 
L 198.024121 102.31368 
L 206.866257 102.45816 
L 215.920013 102.08664 
L 224.994093 102.21048 
L 234.047011 102.4272 
L 243.053728 102.4272 
L 252.241266 102.34464 
L 261.415498 102.25176 
L 270.301949 102.02472 
L 279.36 102.066 
" clip-path="url(#p47d62686ea)" style="fill: none; stroke: #bebebe; stroke-width: 0.5; stroke-linecap: round"/>
   </g>
   <g id="line2d_6">
    <path d="M 8.64 93.81 
L 17.150355 94.03704 
L 26.234177 94.83168 
L 35.283219 95.48184 
L 44.38108 96.63768 
L 53.321588 96.14232 
L 62.545582 96.30744 
L 71.66251 96.29712 
L 80.538484 96.04944 
L 89.722355 95.9256 
L 98.615301 95.39928 
L 107.568276 94.31568 
L 116.580755 93.57264 
L 125.764731 93.32496 
L 134.903868 93.22176 
L 143.819547 93.35592 
L 152.625017 93.61392 
L 161.95084 93.77904 
L 170.981863 93.26304 
L 179.766066 92.92248 
L 188.952869 92.71608 
L 198.024121 93.15984 
L 206.866257 93.17016 
L 215.920013 91.80792 
L 224.994093 91.14744 
L 234.047011 92.13816 
L 243.053728 92.25168 
L 252.241266 91.9008 
L 261.415498 91.81824 
L 270.301949 91.00296 
L 279.36 90.98232 
" clip-path="url(#p47d62686ea)" style="fill: none; stroke: #4a8dff; stroke-width: 0.6"/>
   </g>
   <g id="line2d_7">
    <path d="M 8.64 101.90088 
L 17.150355 102.0144 
L 26.234177 102.25176 
L 35.283219 102.6336 
L 44.38108 102.88128 
L 53.321588 102.77808 
L 62.545582 102.85032 
L 71.66251 102.93288 
L 80.538484 102.95352 
L 89.722355 103.00512 
L 98.615301 102.69552 
L 107.568276 102.55104 
L 116.580755 102.2724 
L 125.764731 102.21048 
L 134.903868 102.12792 
L 143.819547 102.13824 
L 152.625017 102.25176 
L 161.95084 102.36528 
L 170.981863 101.94216 
L 179.766066 101.92152 
L 188.952869 101.9112 
L 198.024121 102.2208 
L 206.866257 102.31368 
L 215.920013 101.79768 
L 224.994093 101.81832 
L 234.047011 102.07632 
L 243.053728 101.97312 
L 252.241266 101.79768 
L 261.415498 101.78736 
L 270.301949 101.57064 
L 279.36 101.40552 
" clip-path="url(#p47d62686ea)" style="fill: none; stroke: #f5841e; stroke-width: 0.6"/>
   </g>
  </g>
 </g>
 <defs>
  <clipPath id="p47d62686ea">
   <rect x="8.64" y="4.8" width="270.72" height="103.2"/>
  </clipPath>
 </defs>
</svg>
