<?xml version="1.0" encoding="utf-8" standalone="no"?>
<!DOCTYPE svg PUBLIC "-//W3C//DTD SVG 1.1//EN"
  "http://www.w3.org/Graphics/SVG/1.1/DTD/svg11.dtd">
<svg xmlns:xlink="http://www.w3.org/1999/xlink" width="288pt" height="120pt" viewBox="0 0 288 120" xmlns="http://www.w3.org/2000/svg" version="1.1">
<desc id="nav-meta">{"window":"6m","count":4,"labels":["14.12","12.02","13.04","12.06"],"tick_utc":["2025-12-14T12:00:00Z","2026-02-12T03:34:13Z","2026-04-13T04:02:42Z","2026-06-12T05:19:52Z"],"w":720,"h":300}</desc>

 <metadata>
  <rdf:RDF xmlns:dc="http://purl.org/dc/elements/1.1/" xmlns:cc="http://creativecommons.org/ns#" xmlns:rdf="http://www.w3.org/1999/02/22-rdf-syntax-ns#">
   <cc:Work>
    <dc:type rdf:resource="http://purl.org/dc/dcmitype/StillImage"/>
    <dc:date>2026-06-12T05:19:54.306447</dc:date>
    <dc:format>image/svg+xml</dc:format>
    <dc:creator>
     <cc:Agent>
      <dc:title>Matplotlib v3.11.0, https://matplotlib.org/</dc:title>
     </cc:Agent>
    </dc:creator>
   </cc:Work>
  </rdf:RDF>
 </metadata>
 <defs>
  <style type="text/css">*{stroke-linejoin: round; stroke-linecap: butt}</style>
 </defs>
 <g id="figure_1">
  <g id="patch_1">
   <path d="M 0 120 
L 288 120 
L 288 0 
L 0 0 
L 0 120 
z
" style="fill: none; opacity: 0"/>
  </g>
  <g id="axes_1">
   <g id="patch_2">
    <path d="M 8.64 108 
L 279.36 108 
L 279.36 4.8 
L 8.64 4.8 
L 8.64 108 
z
" style="fill: none"/>
   </g>
   <g id="matplotlib.axis_1"/>
   <g id="matplotlib.axis_2"/>
   <g id="line2d_1">
    <path d="M 8.64 87.36 
L 279.36 87.36 
" clip-path="url(#p835b051a99)" style="fill: none; stroke: #b2b2b2; stroke-opacity: 0.35; stroke-width: 0.5; stroke-linecap: square"/>
   </g>
   <g id="line2d_2">
    <path d="M 8.64 66.72 
L 279.36 66.72 
" clip-path="url(#p835b051a99)" style="fill: none; stroke: #b2b2b2; stroke-opacity: 0.35; stroke-width: 0.5; stroke-linecap: square"/>
   </g>
   <g id="line2d_3">
    <path d="M 8.64 46.08 
L 279.36 46.08 
" clip-path="url(#p835b051a99)" style="fill: none; stroke: #b2b2b2; stroke-opacity: 0.35; stroke-width: 0.5; stroke-linecap: square"/>
   </g>
   <g id="line2d_4">
    <path d="M 8.64 25.44 
L 279.36 25.44 
" clip-path="url(#p835b051a99)" style="fill: none; stroke: #b2b2b2; stroke-opacity: 0.35; stroke-width: 0.5; stroke-linecap: square"/>
   </g>
   <g id="line2d_5">
    <path d="M 8.64 90.10512 
L 10.146325 91.09584 
L 11.652651 91.61184 
L 13.158976 91.31256 
L 14.665301 92.87088 
L 16.171627 93.8616 
L 17.677952 92.02464 
L 19.184277 92.13816 
L 20.690603 92.07624 
L 22.196928 92.14848 
L 23.703254 92.64384 
L 25.209579 93.01536 
L 26.715904 93.69648 
L 29.728555 92.44776 
L 31.23488 92.30328 
L 32.741206 92.87088 
L 34.247531 92.38584 
L 35.753856 92.47872 
L 37.260182 91.88016 
L 38.766507 90.42504 
L 40.272832 90.08448 
L 41.779158 89.92968 
L 43.285483 88.76352 
L 44.791808 87.94824 
L 46.298134 89.2692 
L 47.804459 88.72224 
L 49.310784 89.39304 
L 50.81711 89.40336 
L 52.323435 88.41264 
L 53.829761 88.4952 
L 55.336086 86.86464 
L 56.842411 86.42088 
L 58.348737 87.62832 
L 59.855062 86.93688 
L 61.361387 87.23616 
L 64.374038 90.0432 
L 65.880363 92.12784 
L 67.386689 91.16808 
L 70.399339 91.73568 
L 71.905665 91.78728 
L 73.41199 94.0164 
L 74.918315 92.5716 
L 76.424641 91.76664 
L 77.930966 92.33424 
L 79.437291 94.36728 
L 80.943617 94.46016 
L 82.449942 97.71096 
L 83.956268 98.48496 
L 85.462593 97.85544 
L 87.931328 100.16712 
L 89.436886 102.23112 
L 90.936761 100.54896 
L 92.477519 100.70376 
L 93.971413 100.68312 
L 96.989538 101.28168 
L 98.490442 101.71512 
L 99.996314 101.84928 
L 101.484525 101.034 
L 102.911367 100.54896 
L 104.514314 101.04432 
L 105.831424 100.81728 
L 107.524576 101.034 
L 109.02907 101.4984 
L 113.547245 101.06496 
L 115.058103 102.09696 
L 116.437175 102.05568 
L 118.065331 101.4984 
L 119.564945 100.60056 
L 121.068411 100.80696 
L 122.556988 101.45712 
L 124.097537 100.55928 
L 125.588311 101.10624 
L 128.596028 100.74504 
L 130.105596 100.21872 
L 131.611206 100.53864 
L 133.105973 101.07528 
L 134.626925 101.38488 
L 136.137766 101.26104 
L 137.634416 100.78632 
L 140.652401 100.99272 
L 142.155815 100.38384 
L 145.19528 100.60056 
L 146.705859 99.76464 
L 148.185824 99.49632 
L 149.703638 99.40344 
L 151.210382 100.09488 
L 152.702045 100.3632 
L 154.199549 100.19808 
L 157.238264 100.79664 
L 158.730642 100.26 
L 160.349157 99.83688 
L 161.761616 100.13616 
L 164.761766 101.38488 
L 170.815311 101.28168 
L 172.301796 101.8596 
L 173.809847 101.88024 
L 175.303271 101.72544 
L 176.832279 101.68416 
L 178.342492 101.47776 
L 179.839037 101.78736 
L 181.347803 101.09592 
L 182.84888 101.46744 
L 184.369066 101.3436 
L 185.852361 101.05464 
L 187.385709 101.3952 
L 188.899758 101.47776 
L 190.396495 100.86888 
L 191.901669 101.26104 
L 193.414515 100.99272 
L 194.917772 100.61088 
L 196.407482 100.44576 
L 197.9337 100.94112 
L 199.443757 101.09592 
L 200.943474 101.00304 
L 202.445127 100.69344 
L 203.957555 100.9308 
L 208.48598 100.8792 
L 210.008537 100.64184 
L 211.518018 101.1888 
L 213.020229 101.09592 
L 214.529082 101.37456 
L 216.051865 101.21976 
L 219.056653 101.23008 
L 220.562455 100.92048 
L 222.035603 101.06496 
L 223.568464 100.70376 
L 225.07519 100.55928 
L 226.556445 100.53864 
L 228.068279 99.60984 
L 229.604958 99.72336 
L 232.608578 99.25896 
L 234.122068 99.32088 
L 235.62672 100.22904 
L 237.140472 100.01232 
L 240.156383 100.75536 
L 241.677336 101.02368 
L 243.17287 101.02368 
L 244.684582 101.17848 
L 246.199485 100.7244 
L 247.694269 100.75536 
L 249.1799 101.11656 
L 250.710075 100.91016 
L 252.236224 100.89984 
L 253.719727 101.1372 
L 255.241517 101.2404 
L 256.74303 101.6532 
L 258.250472 101.4984 
L 259.735074 101.48808 
L 261.272153 101.32296 
L 264.292266 101.7048 
L 265.815537 102.54072 
L 267.316702 103.08768 
L 268.798218 103.36632 
L 270.281391 104.22288 
L 271.820092 103.85136 
L 274.810653 103.43856 
L 276.3326 103.81008 
L 277.847764 103.72752 
L 279.36 103.50048 
L 279.36 103.50048 
" clip-path="url(#p835b051a99)" style="fill: none; stroke: #bebebe; stroke-width: 0.5; stroke-linecap: round"/>
   </g>
   <g id="line2d_6">
    <path d="M 8.64 73.35576 
L 10.146325 74.0988 
L 11.652651 75.5952 
L 13.158976 75.5952 
L 14.665301 77.61792 
L 16.171627 77.63856 
L 17.677952 75.40944 
L 19.184277 75.40944 
L 20.690603 75.04824 
L 22.196928 74.98632 
L 23.703254 75.58488 
L 25.209579 75.87384 
L 26.715904 76.49304 
L 29.728555 75.82224 
L 31.23488 75.84288 
L 32.741206 76.03896 
L 34.247531 75.51264 
L 35.753856 75.56424 
L 37.260182 75.05856 
L 38.766507 73.26288 
L 40.272832 73.20096 
L 41.779158 73.00488 
L 43.285483 71.68392 
L 44.791808 70.6932 
L 46.298134 72.62304 
L 47.804459 73.52088 
L 49.310784 73.83048 
L 50.81711 73.8408 
L 52.323435 73.29384 
L 53.829761 73.72728 
L 55.336086 70.32168 
L 56.842411 69.77472 
L 58.348737 70.34232 
L 59.855062 70.67256 
L 61.361387 70.51776 
L 62.867713 70.848 
L 64.374038 72.31344 
L 65.880363 76.01832 
L 67.386689 75.41976 
L 68.893014 75.83256 
L 71.905665 75.82224 
L 73.41199 77.82432 
L 74.918315 76.14216 
L 76.424641 74.75928 
L 77.930966 74.96568 
L 79.437291 77.75208 
L 80.943617 79.48584 
L 82.449942 83.31456 
L 83.956268 85.90488 
L 85.462593 84.79032 
L 86.73427 85.84296 
L 89.436886 91.41576 
L 90.936761 88.7532 
L 93.971413 88.55712 
L 95.486334 88.96992 
L 98.490442 90.456 
L 99.996314 90.56952 
L 101.484525 89.15568 
L 102.911367 88.9596 
L 104.514314 90.6624 
L 105.831424 89.94 
L 107.524576 90.00192 
L 110.526591 90.62112 
L 113.547245 90.3528 
L 115.058103 92.004 
L 116.437175 92.13816 
L 118.065331 91.25064 
L 119.564945 89.166 
L 121.068411 89.56848 
L 122.556988 90.93072 
L 124.097537 89.41368 
L 125.588311 90.37344 
L 127.09814 89.79552 
L 128.596028 90.23928 
L 130.105596 88.0824 
L 131.611206 88.7532 
L 133.105973 90.16704 
L 134.626925 90.67272 
L 136.137766 90.18768 
L 137.634416 89.2692 
L 139.140148 89.54784 
L 140.652401 89.49624 
L 142.155815 88.31976 
L 143.660135 88.45392 
L 145.19528 88.46424 
L 146.705859 86.38992 
L 148.185824 84.80064 
L 149.703638 84.8316 
L 151.210382 86.586 
L 152.702045 87.74184 
L 154.199549 87.618 
L 155.728399 88.19592 
L 157.238264 89.08344 
L 158.730642 87.89664 
L 160.349157 87.3084 
L 161.761616 87.65928 
L 163.269841 88.96992 
L 164.761766 90.07416 
L 167.799243 89.3724 
L 169.296067 89.00088 
L 170.815311 88.42296 
L 173.809847 89.10408 
L 175.303271 89.14536 
L 176.832279 89.07312 
L 178.342492 87.9792 
L 179.839037 88.29912 
L 181.347803 86.38992 
L 182.84888 87.24648 
L 184.369066 87.1536 
L 185.852361 86.21448 
L 188.899758 87.01944 
L 190.396495 84.44976 
L 191.901669 85.05864 
L 193.414515 84.58392 
L 194.917772 85.04832 
L 196.407482 83.71704 
L 197.9337 84.86256 
L 199.443757 85.6572 
L 200.943474 85.27536 
L 202.445127 84.49104 
L 205.467872 85.32696 
L 206.956223 85.17216 
L 208.48598 85.31664 
L 210.008537 84.11952 
L 211.518018 85.66752 
L 213.020229 85.26504 
L 214.529082 86.26608 
L 217.519748 85.38888 
L 219.056653 85.3992 
L 220.562455 84.09888 
L 223.568464 84.34656 
L 226.556445 85.7604 
L 228.068279 85.0896 
L 231.123173 84.9348 
L 232.608578 85.296 
L 234.122068 85.35792 
L 235.62672 86.1732 
L 237.140472 85.92552 
L 240.156383 87.13296 
L 241.677336 88.10304 
L 243.17287 87.9276 
L 244.684582 88.26816 
L 246.199485 87.78312 
L 247.694269 87.95856 
L 249.1799 88.94928 
L 250.710075 88.14432 
L 253.719727 88.52616 
L 255.241517 88.86672 
L 256.74303 90.22896 
L 258.250472 89.82648 
L 259.735074 89.87808 
L 261.272153 89.46528 
L 262.80076 90.0432 
L 264.292266 89.96064 
L 265.815537 91.99368 
L 267.316702 93.05664 
L 268.798218 93.74808 
L 270.281391 97.02984 
L 271.820092 95.93592 
L 273.333077 95.07936 
L 274.810653 94.46016 
L 276.3326 95.47152 
L 279.36 94.82136 
L 279.36 94.82136 
" clip-path="url(#p835b051a99)" style="fill: none; stroke: #4a8dff; stroke-width: 0.6"/>
   </g>
   <g id="line2d_7">
    <path d="M 8.64 83.19072 
L 10.146325 85.296 
L 11.652651 87.17424 
L 13.158976 85.71912 
L 14.665301 87.53544 
L 16.171627 88.17528 
L 17.677952 85.41984 
L 20.690603 84.9348 
L 22.196928 85.01736 
L 23.703254 86.14224 
L 25.209579 85.90488 
L 26.715904 86.328 
L 28.22223 86.24544 
L 29.728555 85.72944 
L 31.23488 85.7088 
L 32.741206 86.40024 
L 34.247531 85.09992 
L 35.753856 86.02872 
L 38.766507 83.53128 
L 41.779158 82.03488 
L 43.285483 79.39296 
L 44.791808 79.66128 
L 46.298134 82.15872 
L 47.804459 82.43736 
L 49.310784 82.93272 
L 50.81711 83.00496 
L 53.829761 82.28256 
L 55.336086 78.01008 
L 56.842411 76.19376 
L 58.348737 77.66952 
L 59.855062 77.74176 
L 61.361387 78.1752 
L 62.867713 79.5684 
L 64.374038 80.8068 
L 65.880363 85.20312 
L 67.386689 84.12984 
L 68.893014 84.03696 
L 70.399339 84.06792 
L 71.905665 84.3156 
L 73.41199 87.02976 
L 74.918315 85.21344 
L 76.424641 84.28464 
L 77.930966 84.32592 
L 79.437291 89.08344 
L 80.943617 89.5272 
L 82.449942 95.14128 
L 83.956268 96.98856 
L 85.462593 95.08968 
L 86.73427 97.71096 
L 87.931328 99.80592 
L 89.436886 101.79768 
L 90.936761 100.03296 
L 92.477519 100.518 
L 93.971413 99.98136 
L 95.486334 100.49736 
L 99.996314 101.26104 
L 101.484525 100.63152 
L 102.911367 100.38384 
L 104.514314 100.84824 
L 105.831424 100.65216 
L 107.524576 101.034 
L 109.02907 101.19912 
L 113.547245 100.91016 
L 115.058103 101.7564 
L 116.437175 101.84928 
L 118.065331 101.56032 
L 119.564945 100.85856 
L 122.556988 101.4468 
L 124.097537 101.02368 
L 125.588311 101.30232 
L 127.09814 100.81728 
L 128.596028 100.79664 
L 130.105596 99.3312 
L 131.611206 99.92976 
L 133.105973 100.78632 
L 134.626925 101.17848 
L 136.137766 101.1372 
L 137.634416 100.21872 
L 140.652401 100.4664 
L 142.155815 99.88848 
L 143.660135 99.94008 
L 145.19528 99.81624 
L 146.705859 98.93904 
L 148.185824 98.3508 
L 149.703638 98.52624 
L 151.210382 99.78528 
L 152.702045 100.12584 
L 154.199549 100.03296 
L 157.238264 100.83792 
L 158.730642 100.11552 
L 160.349157 99.87816 
L 161.761616 100.002 
L 163.269841 100.64184 
L 164.761766 101.41584 
L 166.288612 101.21976 
L 169.296067 101.00304 
L 170.815311 100.86888 
L 172.301796 101.21976 
L 173.809847 101.28168 
L 176.832279 101.14752 
L 178.342492 100.55928 
L 179.839037 100.65216 
L 181.347803 99.80592 
L 182.84888 99.96072 
L 184.369066 99.6408 
L 185.852361 99.1764 
L 187.385709 99.70272 
L 188.899758 99.94008 
L 190.396495 98.57784 
L 191.901669 98.65008 
L 193.414515 98.38176 
L 194.917772 98.48496 
L 196.407482 96.70992 
L 197.9337 98.05152 
L 199.443757 98.48496 
L 200.943474 97.96896 
L 202.445127 96.32808 
L 205.467872 96.16296 
L 206.956223 96.1836 
L 208.48598 96.50352 
L 210.008537 94.76976 
L 211.518018 97.19496 
L 213.020229 96.9576 
L 214.529082 97.9896 
L 216.051865 96.89568 
L 217.519748 95.45088 
L 219.056653 95.67792 
L 220.562455 93.43848 
L 223.568464 92.25168 
L 225.07519 92.87088 
L 226.556445 94.2744 
L 228.068279 93.1392 
L 229.604958 92.97408 
L 231.123173 92.9844 
L 232.608578 92.60256 
L 234.122068 92.53032 
L 235.62672 94.54272 
L 237.140472 92.85024 
L 238.627568 94.82136 
L 240.156383 95.75016 
L 241.677336 96.97824 
L 244.684582 97.23624 
L 246.199485 95.94624 
L 247.694269 96.30744 
L 249.1799 98.08248 
L 250.710075 97.2672 
L 252.236224 96.61704 
L 253.719727 97.23624 
L 255.241517 98.08248 
L 256.74303 99.18672 
L 258.250472 99.03192 
L 259.735074 99.1248 
L 261.272153 98.74296 
L 262.80076 99.09384 
L 264.292266 100.0536 
L 265.815537 101.23008 
L 267.316702 101.99376 
L 268.798218 102.08664 
L 270.281391 102.8916 
L 271.820092 102.45816 
L 274.810653 102.10728 
L 276.3326 102.582 
L 279.36 102.08664 
L 279.36 102.08664 
" clip-path="url(#p835b051a99)" style="fill: none; stroke: #f5841e; stroke-width: 0.6"/>
   </g>
  </g>
 </g>
 <defs>
  <clipPath id="p835b051a99">
   <rect x="8.64" y="4.8" width="270.72" height="103.2"/>
  </clipPath>
 </defs>
</svg>
