<?xml version="1.0" encoding="utf-8" standalone="no"?>
<!DOCTYPE svg PUBLIC "-//W3C//DTD SVG 1.1//EN"
  "http://www.w3.org/Graphics/SVG/1.1/DTD/svg11.dtd">
<svg xmlns:xlink="http://www.w3.org/1999/xlink" width="288pt" height="120pt" viewBox="0 0 288 120" xmlns="http://www.w3.org/2000/svg" version="1.1">
<desc id="nav-meta">{"window":"3m","count":4,"labels":["03.02","05.03","04.04","04.05"],"tick_utc":["2026-02-03T12:00:00Z","2026-03-05T03:17:19Z","2026-04-04T03:24:53Z","2026-05-04T04:31:15Z"],"w":720,"h":300}</desc>

 <metadata>
  <rdf:RDF xmlns:dc="http://purl.org/dc/elements/1.1/" xmlns:cc="http://creativecommons.org/ns#" xmlns:rdf="http://www.w3.org/1999/02/22-rdf-syntax-ns#">
   <cc:Work>
    <dc:type rdf:resource="http://purl.org/dc/dcmitype/StillImage"/>
    <dc:date>2026-05-04T04:31:18.151506</dc:date>
    <dc:format>image/svg+xml</dc:format>
    <dc:creator>
     <cc:Agent>
      <dc:title>Matplotlib v3.10.9, https://matplotlib.org/</dc:title>
     </cc:Agent>
    </dc:creator>
   </cc:Work>
  </rdf:RDF>
 </metadata>
 <defs>
  <style type="text/css">*{stroke-linejoin: round; stroke-linecap: butt}</style>
 </defs>
 <g id="figure_1">
  <g id="patch_1">
   <path d="M 0 120 
L 288 120 
L 288 0 
L 0 0 
L 0 120 
z
" style="fill: none; opacity: 0"/>
  </g>
  <g id="axes_1">
   <g id="patch_2">
    <path d="M 8.64 108 
L 279.36 108 
L 279.36 4.8 
L 8.64 4.8 
L 8.64 108 
z
" style="fill: none"/>
   </g>
   <g id="matplotlib.axis_1"/>
   <g id="matplotlib.axis_2"/>
   <g id="line2d_1">
    <path d="M 8.64 87.36 
L 279.36 87.36 
" clip-path="url(#p497d9ea0ef)" style="fill: none; stroke: #b2b2b2; stroke-opacity: 0.35; stroke-width: 0.5; stroke-linecap: square"/>
   </g>
   <g id="line2d_2">
    <path d="M 8.64 66.72 
L 279.36 66.72 
" clip-path="url(#p497d9ea0ef)" style="fill: none; stroke: #b2b2b2; stroke-opacity: 0.35; stroke-width: 0.5; stroke-linecap: square"/>
   </g>
   <g id="line2d_3">
    <path d="M 8.64 46.08 
L 279.36 46.08 
" clip-path="url(#p497d9ea0ef)" style="fill: none; stroke: #b2b2b2; stroke-opacity: 0.35; stroke-width: 0.5; stroke-linecap: square"/>
   </g>
   <g id="line2d_4">
    <path d="M 8.64 25.44 
L 279.36 25.44 
" clip-path="url(#p497d9ea0ef)" style="fill: none; stroke: #b2b2b2; stroke-opacity: 0.35; stroke-width: 0.5; stroke-linecap: square"/>
   </g>
   <g id="line2d_5">
    <path d="M 8.64 97.85544 
L 11.188251 99.10416 
L 13.586977 100.16712 
L 16.603891 102.23112 
L 19.609417 100.54896 
L 22.696866 100.70376 
L 25.690409 100.68312 
L 28.726084 100.95144 
L 31.738282 101.28168 
L 34.745868 101.71512 
L 37.763412 101.84928 
L 40.745565 101.034 
L 43.604744 100.54896 
L 46.81681 101.04432 
L 49.456104 100.81728 
L 52.848927 101.034 
L 55.863711 101.4984 
L 58.86452 101.33328 
L 61.864525 101.1372 
L 64.917458 101.06496 
L 67.944993 102.09696 
L 70.708449 102.05568 
L 73.971032 101.4984 
L 76.976033 100.60056 
L 79.988755 100.80696 
L 82.971642 101.45712 
L 86.058673 100.55928 
L 89.045961 101.10624 
L 92.071435 100.8792 
L 95.072978 100.74504 
L 98.097928 100.21872 
L 101.114947 100.53864 
L 104.110236 101.07528 
L 107.157999 101.38488 
L 110.185499 101.26104 
L 113.184561 100.78632 
L 116.201825 100.91016 
L 119.232155 100.99272 
L 122.244772 100.38384 
L 125.259206 100.50768 
L 128.335406 100.60056 
L 131.362382 99.76464 
L 134.328011 99.49632 
L 137.369485 99.40344 
L 140.388775 100.09488 
L 143.377846 100.3632 
L 146.37862 100.19808 
L 149.442209 100.47672 
L 152.467752 100.79664 
L 155.458255 100.26 
L 158.701519 99.83688 
L 161.531876 100.13616 
L 164.554136 100.80696 
L 167.543731 101.38488 
L 170.603302 101.3436 
L 173.630382 101.292 
L 176.629794 101.28168 
L 179.674133 101.28168 
L 182.652828 101.8596 
L 185.674738 101.88024 
L 188.667337 101.72544 
L 191.73124 101.68416 
L 194.757482 101.47776 
L 197.756335 101.78736 
L 200.779678 101.09592 
L 203.787614 101.46744 
L 206.833839 101.3436 
L 209.806141 101.05464 
L 212.878743 101.3952 
L 215.912671 101.47776 
L 218.911908 100.86888 
L 221.928054 101.26104 
L 224.959571 100.99272 
L 227.971874 100.61088 
L 230.957032 100.44576 
L 234.015345 100.94112 
L 237.041273 101.09592 
L 240.046484 101.00304 
L 243.055573 100.69344 
L 246.086252 100.9308 
L 249.112704 100.92048 
L 252.095137 100.81728 
L 255.160542 100.8792 
L 258.211519 100.64184 
L 261.236294 101.1888 
L 264.246501 101.09592 
L 267.270018 101.37456 
L 270.321449 101.21976 
L 273.262867 101.20944 
L 276.342596 101.23008 
L 279.36 100.92048 
" clip-path="url(#p497d9ea0ef)" style="fill: none; stroke: #bebebe; stroke-width: 0.5; stroke-linecap: round"/>
   </g>
   <g id="line2d_6">
    <path d="M 8.64 84.79032 
L 11.188251 85.84296 
L 13.586977 88.25784 
L 16.603891 91.41576 
L 19.609417 88.7532 
L 22.696866 88.65 
L 25.690409 88.55712 
L 28.726084 88.96992 
L 31.738282 89.7336 
L 34.745868 90.456 
L 37.763412 90.56952 
L 40.745565 89.15568 
L 43.604744 88.9596 
L 46.81681 90.6624 
L 49.456104 89.94 
L 52.848927 90.00192 
L 55.863711 90.3528 
L 58.86452 90.62112 
L 61.864525 90.5076 
L 64.917458 90.3528 
L 67.944993 92.004 
L 70.708449 92.13816 
L 73.971032 91.25064 
L 76.976033 89.166 
L 79.988755 89.56848 
L 82.971642 90.93072 
L 86.058673 89.41368 
L 89.045961 90.37344 
L 92.071435 89.79552 
L 95.072978 90.23928 
L 98.097928 88.0824 
L 101.114947 88.7532 
L 104.110236 90.16704 
L 107.157999 90.67272 
L 110.185499 90.18768 
L 113.184561 89.2692 
L 116.201825 89.54784 
L 119.232155 89.49624 
L 122.244772 88.31976 
L 125.259206 88.45392 
L 128.335406 88.46424 
L 131.362382 86.38992 
L 134.328011 84.80064 
L 137.369485 84.8316 
L 140.388775 86.586 
L 143.377846 87.74184 
L 146.37862 87.618 
L 149.442209 88.19592 
L 152.467752 89.08344 
L 155.458255 87.89664 
L 158.701519 87.3084 
L 161.531876 87.65928 
L 164.554136 88.96992 
L 167.543731 90.07416 
L 170.603302 89.76456 
L 173.630382 89.3724 
L 176.629794 89.00088 
L 179.674133 88.42296 
L 182.652828 88.81512 
L 185.674738 89.10408 
L 188.667337 89.14536 
L 191.73124 89.07312 
L 194.757482 87.9792 
L 197.756335 88.29912 
L 200.779678 86.38992 
L 203.787614 87.24648 
L 206.833839 87.1536 
L 209.806141 86.21448 
L 212.878743 86.66856 
L 215.912671 87.01944 
L 218.911908 84.44976 
L 221.928054 85.05864 
L 224.959571 84.58392 
L 227.971874 85.04832 
L 230.957032 83.71704 
L 234.015345 84.86256 
L 237.041273 85.6572 
L 240.046484 85.27536 
L 243.055573 84.49104 
L 246.086252 84.86256 
L 249.112704 85.32696 
L 252.095137 85.17216 
L 255.160542 85.31664 
L 258.211519 84.11952 
L 261.236294 85.66752 
L 264.246501 85.26504 
L 267.270018 86.26608 
L 270.321449 85.77072 
L 273.262867 85.38888 
L 276.342596 85.3992 
L 279.36 84.09888 
" clip-path="url(#p497d9ea0ef)" style="fill: none; stroke: #4a8dff; stroke-width: 0.6"/>
   </g>
   <g id="line2d_7">
    <path d="M 8.64 95.08968 
L 11.188251 97.71096 
L 13.586977 99.80592 
L 16.603891 101.79768 
L 19.609417 100.03296 
L 22.696866 100.518 
L 25.690409 99.98136 
L 28.726084 100.49736 
L 31.738282 100.78632 
L 34.745868 101.07528 
L 37.763412 101.26104 
L 40.745565 100.63152 
L 43.604744 100.38384 
L 46.81681 100.84824 
L 49.456104 100.65216 
L 52.848927 101.034 
L 55.863711 101.19912 
L 58.86452 101.10624 
L 61.864525 100.97208 
L 64.917458 100.91016 
L 67.944993 101.7564 
L 70.708449 101.84928 
L 73.971032 101.56032 
L 76.976033 100.85856 
L 79.988755 101.12688 
L 82.971642 101.4468 
L 86.058673 101.02368 
L 89.045961 101.30232 
L 92.071435 100.81728 
L 95.072978 100.79664 
L 98.097928 99.3312 
L 101.114947 99.92976 
L 104.110236 100.78632 
L 107.157999 101.17848 
L 110.185499 101.1372 
L 113.184561 100.21872 
L 116.201825 100.37352 
L 119.232155 100.4664 
L 122.244772 99.88848 
L 125.259206 99.94008 
L 128.335406 99.81624 
L 131.362382 98.93904 
L 134.328011 98.3508 
L 137.369485 98.52624 
L 140.388775 99.78528 
L 143.377846 100.12584 
L 146.37862 100.03296 
L 149.442209 100.45608 
L 152.467752 100.83792 
L 155.458255 100.11552 
L 158.701519 99.87816 
L 161.531876 100.002 
L 164.554136 100.64184 
L 167.543731 101.41584 
L 170.603302 101.21976 
L 173.630382 101.14752 
L 176.629794 101.00304 
L 179.674133 100.86888 
L 182.652828 101.21976 
L 185.674738 101.28168 
L 188.667337 101.20944 
L 191.73124 101.14752 
L 194.757482 100.55928 
L 197.756335 100.65216 
L 200.779678 99.80592 
L 203.787614 99.96072 
L 206.833839 99.6408 
L 209.806141 99.1764 
L 212.878743 99.70272 
L 215.912671 99.94008 
L 218.911908 98.57784 
L 221.928054 98.65008 
L 224.959571 98.38176 
L 227.971874 98.48496 
L 230.957032 96.70992 
L 234.015345 98.05152 
L 237.041273 98.48496 
L 240.046484 97.96896 
L 243.055573 96.32808 
L 246.086252 96.20424 
L 249.112704 96.16296 
L 252.095137 96.1836 
L 255.160542 96.50352 
L 258.211519 94.76976 
L 261.236294 97.19496 
L 264.246501 96.9576 
L 267.270018 97.9896 
L 270.321449 96.89568 
L 273.262867 95.45088 
L 276.342596 95.67792 
L 279.36 93.43848 
" clip-path="url(#p497d9ea0ef)" style="fill: none; stroke: #f5841e; stroke-width: 0.6"/>
   </g>
  </g>
 </g>
 <defs>
  <clipPath id="p497d9ea0ef">
   <rect x="8.64" y="4.8" width="270.72" height="103.2"/>
  </clipPath>
 </defs>
</svg>
