<?xml version="1.0" encoding="utf-8" standalone="no"?>
<!DOCTYPE svg PUBLIC "-//W3C//DTD SVG 1.1//EN"
  "http://www.w3.org/Graphics/SVG/1.1/DTD/svg11.dtd">
<svg xmlns:xlink="http://www.w3.org/1999/xlink" width="288pt" height="120pt" viewBox="0 0 288 120" xmlns="http://www.w3.org/2000/svg" version="1.1">
<desc id="nav-meta">{"window":"3m","count":4,"labels":["03.12","02.01","01.02","03.03"],"tick_utc":["2025-12-03T12:00:00Z","2026-01-02T12:00:00Z","2026-02-01T12:00:00Z","2026-03-03T03:22:17Z"],"w":720,"h":300}</desc>

 <metadata>
  <rdf:RDF xmlns:dc="http://purl.org/dc/elements/1.1/" xmlns:cc="http://creativecommons.org/ns#" xmlns:rdf="http://www.w3.org/1999/02/22-rdf-syntax-ns#">
   <cc:Work>
    <dc:type rdf:resource="http://purl.org/dc/dcmitype/StillImage"/>
    <dc:date>2026-03-03T07:29:33.991313</dc:date>
    <dc:format>image/svg+xml</dc:format>
    <dc:creator>
     <cc:Agent>
      <dc:title>Matplotlib v3.10.8, https://matplotlib.org/</dc:title>
     </cc:Agent>
    </dc:creator>
   </cc:Work>
  </rdf:RDF>
 </metadata>
 <defs>
  <style type="text/css">*{stroke-linejoin: round; stroke-linecap: butt}</style>
 </defs>
 <g id="figure_1">
  <g id="patch_1">
   <path d="M 0 120 
L 288 120 
L 288 0 
L 0 0 
L 0 120 
z
" style="fill: none; opacity: 0"/>
  </g>
  <g id="axes_1">
   <g id="patch_2">
    <path d="M 8.64 108 
L 279.36 108 
L 279.36 4.8 
L 8.64 4.8 
L 8.64 108 
z
" style="fill: none"/>
   </g>
   <g id="matplotlib.axis_1"/>
   <g id="matplotlib.axis_2"/>
   <g id="line2d_1">
    <path d="M 8.64 87.36 
L 279.36 87.36 
" clip-path="url(#pb0e3b73445)" style="fill: none; stroke: #b2b2b2; stroke-opacity: 0.35; stroke-width: 0.5; stroke-linecap: square"/>
   </g>
   <g id="line2d_2">
    <path d="M 8.64 66.72 
L 279.36 66.72 
" clip-path="url(#pb0e3b73445)" style="fill: none; stroke: #b2b2b2; stroke-opacity: 0.35; stroke-width: 0.5; stroke-linecap: square"/>
   </g>
   <g id="line2d_3">
    <path d="M 8.64 46.08 
L 279.36 46.08 
" clip-path="url(#pb0e3b73445)" style="fill: none; stroke: #b2b2b2; stroke-opacity: 0.35; stroke-width: 0.5; stroke-linecap: square"/>
   </g>
   <g id="line2d_4">
    <path d="M 8.64 25.44 
L 279.36 25.44 
" clip-path="url(#pb0e3b73445)" style="fill: none; stroke: #b2b2b2; stroke-opacity: 0.35; stroke-width: 0.5; stroke-linecap: square"/>
   </g>
   <g id="line2d_5">
    <path d="M 8.64 88.60872 
L 11.660064 86.87496 
L 14.680129 88.52616 
L 17.700193 90.11544 
L 20.720257 90.38376 
L 23.740322 90.53856 
L 26.760386 90.08448 
L 29.78045 88.79448 
L 32.800515 89.20728 
L 35.820579 89.22792 
L 38.840643 90.31152 
L 41.860708 90.10512 
L 44.880772 91.09584 
L 47.900836 91.61184 
L 50.920901 91.31256 
L 53.940965 92.87088 
L 56.961029 93.8616 
L 59.981094 92.02464 
L 63.001158 92.13816 
L 66.021222 92.07624 
L 69.041287 92.14848 
L 72.061351 92.64384 
L 75.081415 93.01536 
L 78.10148 93.69648 
L 81.121544 93.11856 
L 84.141608 92.44776 
L 87.161673 92.30328 
L 90.181737 92.87088 
L 93.201801 92.38584 
L 96.221866 92.47872 
L 99.24193 91.88016 
L 102.261994 90.42504 
L 105.282059 90.08448 
L 108.302123 89.92968 
L 111.322187 88.76352 
L 114.342252 87.94824 
L 117.362316 89.2692 
L 120.38238 88.72224 
L 123.402445 89.39304 
L 126.422509 89.40336 
L 129.442573 88.41264 
L 132.462638 88.4952 
L 135.482702 86.86464 
L 138.502766 86.42088 
L 141.522831 87.62832 
L 144.542895 86.93688 
L 147.562959 87.23616 
L 150.583024 88.63968 
L 153.603088 90.0432 
L 156.623152 92.12784 
L 159.643217 91.16808 
L 162.663281 91.46736 
L 165.683345 91.73568 
L 168.70341 91.78728 
L 171.723474 94.0164 
L 174.743538 92.5716 
L 177.763603 91.76664 
L 180.783667 92.33424 
L 183.803731 94.36728 
L 186.823796 94.46016 
L 189.84386 97.71096 
L 192.863924 98.48496 
L 195.883989 97.85544 
L 198.433601 99.10416 
L 200.833608 100.16712 
L 203.852135 102.23112 
L 206.859266 100.54896 
L 209.948365 100.70376 
L 212.943507 100.68312 
L 215.980804 100.95144 
L 218.994612 101.28168 
L 222.003805 101.71512 
L 225.022961 101.84928 
L 228.006707 101.034 
L 230.867414 100.54896 
L 234.081196 101.04432 
L 236.7219 100.81728 
L 240.116536 101.034 
L 243.13293 101.4984 
L 246.135342 101.33328 
L 249.136951 101.1372 
L 252.191515 101.06496 
L 255.220668 102.09696 
L 257.9856 102.05568 
L 261.249926 101.4984 
L 264.256532 100.60056 
L 267.270864 100.80696 
L 270.255345 101.45712 
L 273.344025 100.55928 
L 276.33291 101.10624 
L 279.36 100.8792 
" clip-path="url(#pb0e3b73445)" style="fill: none; stroke: #bebebe; stroke-width: 0.5; stroke-linecap: round"/>
   </g>
   <g id="line2d_6">
    <path d="M 8.64 75.1308 
L 11.660064 72.16896 
L 14.680129 73.08744 
L 17.700193 74.72832 
L 20.720257 74.48064 
L 23.740322 74.28456 
L 26.760386 73.21128 
L 29.78045 70.2804 
L 32.800515 70.2288 
L 35.820579 71.56008 
L 38.840643 73.79952 
L 41.860708 73.35576 
L 44.880772 74.0988 
L 47.900836 75.5952 
L 50.920901 75.5952 
L 53.940965 77.61792 
L 56.961029 77.63856 
L 59.981094 75.40944 
L 63.001158 75.40944 
L 66.021222 75.04824 
L 69.041287 74.98632 
L 72.061351 75.58488 
L 75.081415 75.87384 
L 78.10148 76.49304 
L 81.121544 76.15248 
L 84.141608 75.82224 
L 87.161673 75.84288 
L 90.181737 76.03896 
L 93.201801 75.51264 
L 96.221866 75.56424 
L 99.24193 75.05856 
L 102.261994 73.26288 
L 105.282059 73.20096 
L 108.302123 73.00488 
L 111.322187 71.68392 
L 114.342252 70.6932 
L 117.362316 72.62304 
L 120.38238 73.52088 
L 123.402445 73.83048 
L 126.422509 73.8408 
L 129.442573 73.29384 
L 132.462638 73.72728 
L 135.482702 70.32168 
L 138.502766 69.77472 
L 141.522831 70.34232 
L 144.542895 70.67256 
L 147.562959 70.51776 
L 150.583024 70.848 
L 153.603088 72.31344 
L 156.623152 76.01832 
L 159.643217 75.41976 
L 162.663281 75.83256 
L 165.683345 75.79128 
L 168.70341 75.82224 
L 171.723474 77.82432 
L 174.743538 76.14216 
L 177.763603 74.75928 
L 180.783667 74.96568 
L 183.803731 77.75208 
L 186.823796 79.48584 
L 189.84386 83.31456 
L 192.863924 85.90488 
L 195.883989 84.79032 
L 198.433601 85.84296 
L 200.833608 88.25784 
L 203.852135 91.41576 
L 206.859266 88.7532 
L 209.948365 88.65 
L 212.943507 88.55712 
L 215.980804 88.96992 
L 218.994612 89.7336 
L 222.003805 90.456 
L 225.022961 90.56952 
L 228.006707 89.15568 
L 230.867414 88.9596 
L 234.081196 90.6624 
L 236.7219 89.94 
L 240.116536 90.00192 
L 243.13293 90.3528 
L 246.135342 90.62112 
L 249.136951 90.5076 
L 252.191515 90.3528 
L 255.220668 92.004 
L 257.9856 92.13816 
L 261.249926 91.25064 
L 264.256532 89.166 
L 267.270864 89.56848 
L 270.255345 90.93072 
L 273.344025 89.41368 
L 276.33291 90.37344 
L 279.36 89.79552 
" clip-path="url(#pb0e3b73445)" style="fill: none; stroke: #4a8dff; stroke-width: 0.6"/>
   </g>
   <g id="line2d_7">
    <path d="M 8.64 82.06584 
L 11.660064 79.71288 
L 14.680129 81.24024 
L 17.700193 84.17112 
L 20.720257 84.24336 
L 23.740322 83.29392 
L 26.760386 82.8192 
L 29.78045 80.64168 
L 32.800515 81.38472 
L 35.820579 80.87904 
L 38.840643 83.13912 
L 41.860708 83.19072 
L 44.880772 85.296 
L 47.900836 87.17424 
L 50.920901 85.71912 
L 53.940965 87.53544 
L 56.961029 88.17528 
L 59.981094 85.41984 
L 63.001158 85.17216 
L 66.021222 84.9348 
L 69.041287 85.01736 
L 72.061351 86.14224 
L 75.081415 85.90488 
L 78.10148 86.328 
L 81.121544 86.24544 
L 84.141608 85.72944 
L 87.161673 85.7088 
L 90.181737 86.40024 
L 93.201801 85.09992 
L 96.221866 86.02872 
L 99.24193 84.78 
L 102.261994 83.53128 
L 105.282059 82.83984 
L 108.302123 82.03488 
L 111.322187 79.39296 
L 114.342252 79.66128 
L 117.362316 82.15872 
L 120.38238 82.43736 
L 123.402445 82.93272 
L 126.422509 83.00496 
L 129.442573 82.6128 
L 132.462638 82.28256 
L 135.482702 78.01008 
L 138.502766 76.19376 
L 141.522831 77.66952 
L 144.542895 77.74176 
L 147.562959 78.1752 
L 150.583024 79.5684 
L 153.603088 80.8068 
L 156.623152 85.20312 
L 159.643217 84.12984 
L 162.663281 84.03696 
L 165.683345 84.06792 
L 168.70341 84.3156 
L 171.723474 87.02976 
L 174.743538 85.21344 
L 177.763603 84.28464 
L 180.783667 84.32592 
L 183.803731 89.08344 
L 186.823796 89.5272 
L 189.84386 95.14128 
L 192.863924 96.98856 
L 195.883989 95.08968 
L 198.433601 97.71096 
L 200.833608 99.80592 
L 203.852135 101.79768 
L 206.859266 100.03296 
L 209.948365 100.518 
L 212.943507 99.98136 
L 215.980804 100.49736 
L 218.994612 100.78632 
L 222.003805 101.07528 
L 225.022961 101.26104 
L 228.006707 100.63152 
L 230.867414 100.38384 
L 234.081196 100.84824 
L 236.7219 100.65216 
L 240.116536 101.034 
L 243.13293 101.19912 
L 246.135342 101.10624 
L 249.136951 100.97208 
L 252.191515 100.91016 
L 255.220668 101.7564 
L 257.9856 101.84928 
L 261.249926 101.56032 
L 264.256532 100.85856 
L 267.270864 101.12688 
L 270.255345 101.4468 
L 273.344025 101.02368 
L 276.33291 101.30232 
L 279.36 100.81728 
" clip-path="url(#pb0e3b73445)" style="fill: none; stroke: #f5841e; stroke-width: 0.6"/>
   </g>
  </g>
 </g>
 <defs>
  <clipPath id="pb0e3b73445">
   <rect x="8.64" y="4.8" width="270.72" height="103.2"/>
  </clipPath>
 </defs>
</svg>
