<?xml version="1.0" encoding="utf-8" standalone="no"?>
<!DOCTYPE svg PUBLIC "-//W3C//DTD SVG 1.1//EN"
  "http://www.w3.org/Graphics/SVG/1.1/DTD/svg11.dtd">
<svg xmlns:xlink="http://www.w3.org/1999/xlink" width="288pt" height="120pt" viewBox="0 0 288 120" xmlns="http://www.w3.org/2000/svg" version="1.1">
<desc id="nav-meta">{"window":"1m","count":4,"labels":["04.03","14.03","23.03","02.04"],"tick_utc":["2026-03-04T03:14:13Z","2026-03-14T03:15:02Z","2026-03-23T03:35:18Z","2026-04-02T03:35:34Z"],"w":720,"h":300}</desc>

 <metadata>
  <rdf:RDF xmlns:dc="http://purl.org/dc/elements/1.1/" xmlns:cc="http://creativecommons.org/ns#" xmlns:rdf="http://www.w3.org/1999/02/22-rdf-syntax-ns#">
   <cc:Work>
    <dc:type rdf:resource="http://purl.org/dc/dcmitype/StillImage"/>
    <dc:date>2026-04-02T07:49:52.928502</dc:date>
    <dc:format>image/svg+xml</dc:format>
    <dc:creator>
     <cc:Agent>
      <dc:title>Matplotlib v3.10.8, https://matplotlib.org/</dc:title>
     </cc:Agent>
    </dc:creator>
   </cc:Work>
  </rdf:RDF>
 </metadata>
 <defs>
  <style type="text/css">*{stroke-linejoin: round; stroke-linecap: butt}</style>
 </defs>
 <g id="figure_1">
  <g id="patch_1">
   <path d="M 0 120 
L 288 120 
L 288 0 
L 0 0 
L 0 120 
z
" style="fill: none; opacity: 0"/>
  </g>
  <g id="axes_1">
   <g id="patch_2">
    <path d="M 8.64 108 
L 279.36 108 
L 279.36 4.8 
L 8.64 4.8 
L 8.64 108 
z
" style="fill: none"/>
   </g>
   <g id="matplotlib.axis_1"/>
   <g id="matplotlib.axis_2"/>
   <g id="line2d_1">
    <path d="M 8.64 87.36 
L 279.36 87.36 
" clip-path="url(#pba371bcc03)" style="fill: none; stroke: #b2b2b2; stroke-opacity: 0.35; stroke-width: 0.5; stroke-linecap: square"/>
   </g>
   <g id="line2d_2">
    <path d="M 8.64 66.72 
L 279.36 66.72 
" clip-path="url(#pba371bcc03)" style="fill: none; stroke: #b2b2b2; stroke-opacity: 0.35; stroke-width: 0.5; stroke-linecap: square"/>
   </g>
   <g id="line2d_3">
    <path d="M 8.64 46.08 
L 279.36 46.08 
" clip-path="url(#pba371bcc03)" style="fill: none; stroke: #b2b2b2; stroke-opacity: 0.35; stroke-width: 0.5; stroke-linecap: square"/>
   </g>
   <g id="line2d_4">
    <path d="M 8.64 25.44 
L 279.36 25.44 
" clip-path="url(#pba371bcc03)" style="fill: none; stroke: #b2b2b2; stroke-opacity: 0.35; stroke-width: 0.5; stroke-linecap: square"/>
   </g>
   <g id="line2d_5">
    <path d="M 8.64 100.74504 
L 17.990488 100.21872 
L 27.316463 100.53864 
L 36.575267 101.07528 
L 45.996274 101.38488 
L 55.354646 101.26104 
L 64.625113 100.78632 
L 73.951843 100.91016 
L 83.318963 100.99272 
L 92.63133 100.38384 
L 101.949314 100.50768 
L 111.458224 100.60056 
L 120.814976 99.76464 
L 129.982097 99.49632 
L 139.383665 99.40344 
L 148.716659 100.09488 
L 157.956241 100.3632 
L 167.232 100.19808 
L 176.701926 100.47672 
L 186.05425 100.79664 
L 195.29826 100.26 
L 205.323583 99.83688 
L 214.072562 100.13616 
L 223.414736 100.80696 
L 232.655937 101.38488 
L 242.113445 101.3436 
L 251.470521 101.292 
L 260.742068 101.28168 
L 270.152491 101.28168 
L 279.36 101.8596 
" clip-path="url(#pba371bcc03)" style="fill: none; stroke: #bebebe; stroke-width: 0.5; stroke-linecap: round"/>
   </g>
   <g id="line2d_6">
    <path d="M 8.64 90.23928 
L 17.990488 88.0824 
L 27.316463 88.7532 
L 36.575267 90.16704 
L 45.996274 90.67272 
L 55.354646 90.18768 
L 64.625113 89.2692 
L 73.951843 89.54784 
L 83.318963 89.49624 
L 92.63133 88.31976 
L 101.949314 88.45392 
L 111.458224 88.46424 
L 120.814976 86.38992 
L 129.982097 84.80064 
L 139.383665 84.8316 
L 148.716659 86.586 
L 157.956241 87.74184 
L 167.232 87.618 
L 176.701926 88.19592 
L 186.05425 89.08344 
L 195.29826 87.89664 
L 205.323583 87.3084 
L 214.072562 87.65928 
L 223.414736 88.96992 
L 232.655937 90.07416 
L 242.113445 89.76456 
L 251.470521 89.3724 
L 260.742068 89.00088 
L 270.152491 88.42296 
L 279.36 88.81512 
" clip-path="url(#pba371bcc03)" style="fill: none; stroke: #4a8dff; stroke-width: 0.6"/>
   </g>
   <g id="line2d_7">
    <path d="M 8.64 100.79664 
L 17.990488 99.3312 
L 27.316463 99.92976 
L 36.575267 100.78632 
L 45.996274 101.17848 
L 55.354646 101.1372 
L 64.625113 100.21872 
L 73.951843 100.37352 
L 83.318963 100.4664 
L 92.63133 99.88848 
L 101.949314 99.94008 
L 111.458224 99.81624 
L 120.814976 98.93904 
L 129.982097 98.3508 
L 139.383665 98.52624 
L 148.716659 99.78528 
L 157.956241 100.12584 
L 167.232 100.03296 
L 176.701926 100.45608 
L 186.05425 100.83792 
L 195.29826 100.11552 
L 205.323583 99.87816 
L 214.072562 100.002 
L 223.414736 100.64184 
L 232.655937 101.41584 
L 242.113445 101.21976 
L 251.470521 101.14752 
L 260.742068 101.00304 
L 270.152491 100.86888 
L 279.36 101.21976 
" clip-path="url(#pba371bcc03)" style="fill: none; stroke: #f5841e; stroke-width: 0.6"/>
   </g>
  </g>
 </g>
 <defs>
  <clipPath id="pba371bcc03">
   <rect x="8.64" y="4.8" width="270.72" height="103.2"/>
  </clipPath>
 </defs>
</svg>
