<?xml version="1.0" encoding="utf-8" standalone="no"?>
<!DOCTYPE svg PUBLIC "-//W3C//DTD SVG 1.1//EN"
  "http://www.w3.org/Graphics/SVG/1.1/DTD/svg11.dtd">
<svg xmlns:xlink="http://www.w3.org/1999/xlink" width="288pt" height="120pt" viewBox="0 0 288 120" xmlns="http://www.w3.org/2000/svg" version="1.1">
<desc id="nav-meta">{"window":"1m","count":4,"labels":["05.04","15.04","24.04","04.05"],"tick_utc":["2026-04-05T03:46:34Z","2026-04-15T03:52:26Z","2026-04-24T04:01:18Z","2026-05-04T04:31:15Z"],"w":720,"h":300}</desc>

 <metadata>
  <rdf:RDF xmlns:dc="http://purl.org/dc/elements/1.1/" xmlns:cc="http://creativecommons.org/ns#" xmlns:rdf="http://www.w3.org/1999/02/22-rdf-syntax-ns#">
   <cc:Work>
    <dc:type rdf:resource="http://purl.org/dc/dcmitype/StillImage"/>
    <dc:date>2026-05-04T04:31:18.138150</dc:date>
    <dc:format>image/svg+xml</dc:format>
    <dc:creator>
     <cc:Agent>
      <dc:title>Matplotlib v3.10.9, https://matplotlib.org/</dc:title>
     </cc:Agent>
    </dc:creator>
   </cc:Work>
  </rdf:RDF>
 </metadata>
 <defs>
  <style type="text/css">*{stroke-linejoin: round; stroke-linecap: butt}</style>
 </defs>
 <g id="figure_1">
  <g id="patch_1">
   <path d="M 0 120 
L 288 120 
L 288 0 
L 0 0 
L 0 120 
z
" style="fill: none; opacity: 0"/>
  </g>
  <g id="axes_1">
   <g id="patch_2">
    <path d="M 8.64 108 
L 279.36 108 
L 279.36 4.8 
L 8.64 4.8 
L 8.64 108 
z
" style="fill: none"/>
   </g>
   <g id="matplotlib.axis_1"/>
   <g id="matplotlib.axis_2"/>
   <g id="line2d_1">
    <path d="M 8.64 87.36 
L 279.36 87.36 
" clip-path="url(#pd675ea00da)" style="fill: none; stroke: #b2b2b2; stroke-opacity: 0.35; stroke-width: 0.5; stroke-linecap: square"/>
   </g>
   <g id="line2d_2">
    <path d="M 8.64 66.72 
L 279.36 66.72 
" clip-path="url(#pd675ea00da)" style="fill: none; stroke: #b2b2b2; stroke-opacity: 0.35; stroke-width: 0.5; stroke-linecap: square"/>
   </g>
   <g id="line2d_3">
    <path d="M 8.64 46.08 
L 279.36 46.08 
" clip-path="url(#pd675ea00da)" style="fill: none; stroke: #b2b2b2; stroke-opacity: 0.35; stroke-width: 0.5; stroke-linecap: square"/>
   </g>
   <g id="line2d_4">
    <path d="M 8.64 25.44 
L 279.36 25.44 
" clip-path="url(#pd675ea00da)" style="fill: none; stroke: #b2b2b2; stroke-opacity: 0.35; stroke-width: 0.5; stroke-linecap: square"/>
   </g>
   <g id="line2d_5">
    <path d="M 8.64 101.68416 
L 17.989263 101.47776 
L 27.253908 101.78736 
L 36.594213 101.09592 
L 45.88692 101.46744 
L 55.29792 101.3436 
L 64.480538 101.05464 
L 73.973024 101.3952 
L 83.346032 101.47776 
L 92.611865 100.86888 
L 101.929936 101.26104 
L 111.295496 100.99272 
L 120.601695 100.61088 
L 129.824032 100.44576 
L 139.272375 100.94112 
L 148.620666 101.09592 
L 157.904955 101.00304 
L 167.201224 100.69344 
L 176.564194 100.9308 
L 185.914105 100.92048 
L 195.128023 100.81728 
L 204.598276 100.8792 
L 214.023953 100.64184 
L 223.368683 101.1888 
L 232.668406 101.09592 
L 242.00925 101.37456 
L 251.436331 101.21976 
L 260.523539 101.20944 
L 270.038043 101.23008 
L 279.36 100.92048 
" clip-path="url(#pd675ea00da)" style="fill: none; stroke: #bebebe; stroke-width: 0.5; stroke-linecap: round"/>
   </g>
   <g id="line2d_6">
    <path d="M 8.64 89.07312 
L 17.989263 87.9792 
L 27.253908 88.29912 
L 36.594213 86.38992 
L 45.88692 87.24648 
L 55.29792 87.1536 
L 64.480538 86.21448 
L 73.973024 86.66856 
L 83.346032 87.01944 
L 92.611865 84.44976 
L 101.929936 85.05864 
L 111.295496 84.58392 
L 120.601695 85.04832 
L 129.824032 83.71704 
L 139.272375 84.86256 
L 148.620666 85.6572 
L 157.904955 85.27536 
L 167.201224 84.49104 
L 176.564194 84.86256 
L 185.914105 85.32696 
L 195.128023 85.17216 
L 204.598276 85.31664 
L 214.023953 84.11952 
L 223.368683 85.66752 
L 232.668406 85.26504 
L 242.00925 86.26608 
L 251.436331 85.77072 
L 260.523539 85.38888 
L 270.038043 85.3992 
L 279.36 84.09888 
" clip-path="url(#pd675ea00da)" style="fill: none; stroke: #4a8dff; stroke-width: 0.6"/>
   </g>
   <g id="line2d_7">
    <path d="M 8.64 101.14752 
L 17.989263 100.55928 
L 27.253908 100.65216 
L 36.594213 99.80592 
L 45.88692 99.96072 
L 55.29792 99.6408 
L 64.480538 99.1764 
L 73.973024 99.70272 
L 83.346032 99.94008 
L 92.611865 98.57784 
L 101.929936 98.65008 
L 111.295496 98.38176 
L 120.601695 98.48496 
L 129.824032 96.70992 
L 139.272375 98.05152 
L 148.620666 98.48496 
L 157.904955 97.96896 
L 167.201224 96.32808 
L 176.564194 96.20424 
L 185.914105 96.16296 
L 195.128023 96.1836 
L 204.598276 96.50352 
L 214.023953 94.76976 
L 223.368683 97.19496 
L 232.668406 96.9576 
L 242.00925 97.9896 
L 251.436331 96.89568 
L 260.523539 95.45088 
L 270.038043 95.67792 
L 279.36 93.43848 
" clip-path="url(#pd675ea00da)" style="fill: none; stroke: #f5841e; stroke-width: 0.6"/>
   </g>
  </g>
 </g>
 <defs>
  <clipPath id="pd675ea00da">
   <rect x="8.64" y="4.8" width="270.72" height="103.2"/>
  </clipPath>
 </defs>
</svg>
