<?xml version="1.0" encoding="utf-8" standalone="no"?>
<!DOCTYPE svg PUBLIC "-//W3C//DTD SVG 1.1//EN"
  "http://www.w3.org/Graphics/SVG/1.1/DTD/svg11.dtd">
<svg xmlns:xlink="http://www.w3.org/1999/xlink" width="288pt" height="120pt" viewBox="0 0 288 120" xmlns="http://www.w3.org/2000/svg" version="1.1">
<desc id="nav-meta">{"window":"3m","count":4,"labels":["22.01","21.02","23.03","22.04"],"tick_utc":["2026-01-22T12:00:00Z","2026-02-21T03:11:36Z","2026-03-23T03:35:18Z","2026-04-22T03:51:39Z"],"w":720,"h":300}</desc>

 <metadata>
  <rdf:RDF xmlns:dc="http://purl.org/dc/elements/1.1/" xmlns:cc="http://creativecommons.org/ns#" xmlns:rdf="http://www.w3.org/1999/02/22-rdf-syntax-ns#">
   <cc:Work>
    <dc:type rdf:resource="http://purl.org/dc/dcmitype/StillImage"/>
    <dc:date>2026-04-22T08:19:18.125378</dc:date>
    <dc:format>image/svg+xml</dc:format>
    <dc:creator>
     <cc:Agent>
      <dc:title>Matplotlib v3.10.8, https://matplotlib.org/</dc:title>
     </cc:Agent>
    </dc:creator>
   </cc:Work>
  </rdf:RDF>
 </metadata>
 <defs>
  <style type="text/css">*{stroke-linejoin: round; stroke-linecap: butt}</style>
 </defs>
 <g id="figure_1">
  <g id="patch_1">
   <path d="M 0 120 
L 288 120 
L 288 0 
L 0 0 
L 0 120 
z
" style="fill: none; opacity: 0"/>
  </g>
  <g id="axes_1">
   <g id="patch_2">
    <path d="M 8.64 108 
L 279.36 108 
L 279.36 4.8 
L 8.64 4.8 
L 8.64 108 
z
" style="fill: none"/>
   </g>
   <g id="matplotlib.axis_1"/>
   <g id="matplotlib.axis_2"/>
   <g id="line2d_1">
    <path d="M 8.64 87.36 
L 279.36 87.36 
" clip-path="url(#pf65ffd2dfc)" style="fill: none; stroke: #b2b2b2; stroke-opacity: 0.35; stroke-width: 0.5; stroke-linecap: square"/>
   </g>
   <g id="line2d_2">
    <path d="M 8.64 66.72 
L 279.36 66.72 
" clip-path="url(#pf65ffd2dfc)" style="fill: none; stroke: #b2b2b2; stroke-opacity: 0.35; stroke-width: 0.5; stroke-linecap: square"/>
   </g>
   <g id="line2d_3">
    <path d="M 8.64 46.08 
L 279.36 46.08 
" clip-path="url(#pf65ffd2dfc)" style="fill: none; stroke: #b2b2b2; stroke-opacity: 0.35; stroke-width: 0.5; stroke-linecap: square"/>
   </g>
   <g id="line2d_4">
    <path d="M 8.64 25.44 
L 279.36 25.44 
" clip-path="url(#pf65ffd2dfc)" style="fill: none; stroke: #b2b2b2; stroke-opacity: 0.35; stroke-width: 0.5; stroke-linecap: square"/>
   </g>
   <g id="line2d_5">
    <path d="M 8.64 91.16808 
L 11.659377 91.46736 
L 14.678755 91.73568 
L 17.698132 91.78728 
L 20.71751 94.0164 
L 23.736887 92.5716 
L 26.756264 91.76664 
L 29.775642 92.33424 
L 32.795019 94.36728 
L 35.814397 94.46016 
L 38.833774 97.71096 
L 41.853152 98.48496 
L 44.872529 97.85544 
L 47.421561 99.10416 
L 49.821023 100.16712 
L 52.838863 102.23112 
L 55.84531 100.54896 
L 58.933707 100.70376 
L 61.928167 100.68312 
L 64.964773 100.95144 
L 67.977895 101.28168 
L 70.986404 101.71512 
L 74.004873 101.84928 
L 76.987941 101.034 
L 79.847997 100.54896 
L 83.061048 101.04432 
L 85.701151 100.81728 
L 89.095016 101.034 
L 92.110724 101.4984 
L 95.112453 101.33328 
L 98.113379 101.1372 
L 101.167248 101.06496 
L 104.195712 102.09696 
L 106.960015 102.05568 
L 110.223598 101.4984 
L 113.229521 100.60056 
L 116.243167 100.80696 
L 119.226969 101.45712 
L 122.314947 100.55928 
L 125.303152 101.10624 
L 128.329554 100.8792 
L 131.332017 100.74504 
L 134.357894 100.21872 
L 137.375839 100.53864 
L 140.372047 101.07528 
L 143.420744 101.38488 
L 146.449173 101.26104 
L 149.449155 100.78632 
L 152.467344 100.91016 
L 155.498603 100.99272 
L 158.512145 100.38384 
L 161.527503 100.50768 
L 164.604647 100.60056 
L 167.632552 99.76464 
L 170.59909 99.49632 
L 173.641497 99.40344 
L 176.661713 100.09488 
L 179.651701 100.3632 
L 182.653395 100.19808 
L 185.717923 100.47672 
L 188.744395 100.79664 
L 191.735815 100.26 
L 194.980073 99.83688 
L 197.811299 100.13616 
L 200.834485 100.80696 
L 203.824997 101.38488 
L 206.885506 101.3436 
L 209.913516 101.292 
L 212.913847 101.28168 
L 215.95912 101.28168 
L 218.938728 101.8596 
L 221.961565 101.88024 
L 224.955082 101.72544 
L 228.019925 101.68416 
L 231.047096 101.47776 
L 234.046868 101.78736 
L 237.071138 101.09592 
L 240.079997 101.46744 
L 243.127157 101.3436 
L 246.10037 101.05464 
L 249.173914 101.3952 
L 252.208773 101.47776 
L 255.20893 100.86888 
L 258.226001 101.26104 
L 261.258448 100.99272 
L 264.271675 100.61088 
L 267.257748 100.44576 
L 270.317 100.94112 
L 273.343856 101.09592 
L 276.349988 101.00304 
L 279.36 100.69344 
" clip-path="url(#pf65ffd2dfc)" style="fill: none; stroke: #bebebe; stroke-width: 0.5; stroke-linecap: round"/>
   </g>
   <g id="line2d_6">
    <path d="M 8.64 75.41976 
L 11.659377 75.83256 
L 14.678755 75.79128 
L 17.698132 75.82224 
L 20.71751 77.82432 
L 23.736887 76.14216 
L 26.756264 74.75928 
L 29.775642 74.96568 
L 32.795019 77.75208 
L 35.814397 79.48584 
L 38.833774 83.31456 
L 41.853152 85.90488 
L 44.872529 84.79032 
L 47.421561 85.84296 
L 49.821023 88.25784 
L 52.838863 91.41576 
L 55.84531 88.7532 
L 58.933707 88.65 
L 61.928167 88.55712 
L 64.964773 88.96992 
L 67.977895 89.7336 
L 70.986404 90.456 
L 74.004873 90.56952 
L 76.987941 89.15568 
L 79.847997 88.9596 
L 83.061048 90.6624 
L 85.701151 89.94 
L 89.095016 90.00192 
L 92.110724 90.3528 
L 95.112453 90.62112 
L 98.113379 90.5076 
L 101.167248 90.3528 
L 104.195712 92.004 
L 106.960015 92.13816 
L 110.223598 91.25064 
L 113.229521 89.166 
L 116.243167 89.56848 
L 119.226969 90.93072 
L 122.314947 89.41368 
L 125.303152 90.37344 
L 128.329554 89.79552 
L 131.332017 90.23928 
L 134.357894 88.0824 
L 137.375839 88.7532 
L 140.372047 90.16704 
L 143.420744 90.67272 
L 146.449173 90.18768 
L 149.449155 89.2692 
L 152.467344 89.54784 
L 155.498603 89.49624 
L 158.512145 88.31976 
L 161.527503 88.45392 
L 164.604647 88.46424 
L 167.632552 86.38992 
L 170.59909 84.80064 
L 173.641497 84.8316 
L 176.661713 86.586 
L 179.651701 87.74184 
L 182.653395 87.618 
L 185.717923 88.19592 
L 188.744395 89.08344 
L 191.735815 87.89664 
L 194.980073 87.3084 
L 197.811299 87.65928 
L 200.834485 88.96992 
L 203.824997 90.07416 
L 206.885506 89.76456 
L 209.913516 89.3724 
L 212.913847 89.00088 
L 215.95912 88.42296 
L 218.938728 88.81512 
L 221.961565 89.10408 
L 224.955082 89.14536 
L 228.019925 89.07312 
L 231.047096 87.9792 
L 234.046868 88.29912 
L 237.071138 86.38992 
L 240.079997 87.24648 
L 243.127157 87.1536 
L 246.10037 86.21448 
L 249.173914 86.66856 
L 252.208773 87.01944 
L 255.20893 84.44976 
L 258.226001 85.05864 
L 261.258448 84.58392 
L 264.271675 85.04832 
L 267.257748 83.71704 
L 270.317 84.86256 
L 273.343856 85.6572 
L 276.349988 85.27536 
L 279.36 84.49104 
" clip-path="url(#pf65ffd2dfc)" style="fill: none; stroke: #4a8dff; stroke-width: 0.6"/>
   </g>
   <g id="line2d_7">
    <path d="M 8.64 84.12984 
L 11.659377 84.03696 
L 14.678755 84.06792 
L 17.698132 84.3156 
L 20.71751 87.02976 
L 23.736887 85.21344 
L 26.756264 84.28464 
L 29.775642 84.32592 
L 32.795019 89.08344 
L 35.814397 89.5272 
L 38.833774 95.14128 
L 41.853152 96.98856 
L 44.872529 95.08968 
L 47.421561 97.71096 
L 49.821023 99.80592 
L 52.838863 101.79768 
L 55.84531 100.03296 
L 58.933707 100.518 
L 61.928167 99.98136 
L 64.964773 100.49736 
L 67.977895 100.78632 
L 70.986404 101.07528 
L 74.004873 101.26104 
L 76.987941 100.63152 
L 79.847997 100.38384 
L 83.061048 100.84824 
L 85.701151 100.65216 
L 89.095016 101.034 
L 92.110724 101.19912 
L 95.112453 101.10624 
L 98.113379 100.97208 
L 101.167248 100.91016 
L 104.195712 101.7564 
L 106.960015 101.84928 
L 110.223598 101.56032 
L 113.229521 100.85856 
L 116.243167 101.12688 
L 119.226969 101.4468 
L 122.314947 101.02368 
L 125.303152 101.30232 
L 128.329554 100.81728 
L 131.332017 100.79664 
L 134.357894 99.3312 
L 137.375839 99.92976 
L 140.372047 100.78632 
L 143.420744 101.17848 
L 146.449173 101.1372 
L 149.449155 100.21872 
L 152.467344 100.37352 
L 155.498603 100.4664 
L 158.512145 99.88848 
L 161.527503 99.94008 
L 164.604647 99.81624 
L 167.632552 98.93904 
L 170.59909 98.3508 
L 173.641497 98.52624 
L 176.661713 99.78528 
L 179.651701 100.12584 
L 182.653395 100.03296 
L 185.717923 100.45608 
L 188.744395 100.83792 
L 191.735815 100.11552 
L 194.980073 99.87816 
L 197.811299 100.002 
L 200.834485 100.64184 
L 203.824997 101.41584 
L 206.885506 101.21976 
L 209.913516 101.14752 
L 212.913847 101.00304 
L 215.95912 100.86888 
L 218.938728 101.21976 
L 221.961565 101.28168 
L 224.955082 101.20944 
L 228.019925 101.14752 
L 231.047096 100.55928 
L 234.046868 100.65216 
L 237.071138 99.80592 
L 240.079997 99.96072 
L 243.127157 99.6408 
L 246.10037 99.1764 
L 249.173914 99.70272 
L 252.208773 99.94008 
L 255.20893 98.57784 
L 258.226001 98.65008 
L 261.258448 98.38176 
L 264.271675 98.48496 
L 267.257748 96.70992 
L 270.317 98.05152 
L 273.343856 98.48496 
L 276.349988 97.96896 
L 279.36 96.32808 
" clip-path="url(#pf65ffd2dfc)" style="fill: none; stroke: #f5841e; stroke-width: 0.6"/>
   </g>
  </g>
 </g>
 <defs>
  <clipPath id="pf65ffd2dfc">
   <rect x="8.64" y="4.8" width="270.72" height="103.2"/>
  </clipPath>
 </defs>
</svg>
