<?xml version="1.0" encoding="utf-8" standalone="no"?>
<!DOCTYPE svg PUBLIC "-//W3C//DTD SVG 1.1//EN"
  "http://www.w3.org/Graphics/SVG/1.1/DTD/svg11.dtd">
<svg xmlns:xlink="http://www.w3.org/1999/xlink" width="288pt" height="120pt" viewBox="0 0 288 120" xmlns="http://www.w3.org/2000/svg" version="1.1">
<desc id="nav-meta">{"window":"3m","count":4,"labels":["16.11","16.12","14.01","13.02"],"tick_utc":["2025-11-16T12:00:00Z","2025-12-16T12:00:00Z","2026-01-14T12:00:00Z","2026-02-13T03:33:47Z"],"w":720,"h":300}</desc>

 <metadata>
  <rdf:RDF xmlns:dc="http://purl.org/dc/elements/1.1/" xmlns:cc="http://creativecommons.org/ns#" xmlns:rdf="http://www.w3.org/1999/02/22-rdf-syntax-ns#">
   <cc:Work>
    <dc:type rdf:resource="http://purl.org/dc/dcmitype/StillImage"/>
    <dc:date>2026-02-13T19:29:44.804608</dc:date>
    <dc:format>image/svg+xml</dc:format>
    <dc:creator>
     <cc:Agent>
      <dc:title>Matplotlib v3.10.8, https://matplotlib.org/</dc:title>
     </cc:Agent>
    </dc:creator>
   </cc:Work>
  </rdf:RDF>
 </metadata>
 <defs>
  <style type="text/css">*{stroke-linejoin: round; stroke-linecap: butt}</style>
 </defs>
 <g id="figure_1">
  <g id="patch_1">
   <path d="M 0 120 
L 288 120 
L 288 0 
L 0 0 
L 0 120 
z
" style="fill: none; opacity: 0"/>
  </g>
  <g id="axes_1">
   <g id="patch_2">
    <path d="M 8.64 108 
L 279.36 108 
L 279.36 4.8 
L 8.64 4.8 
L 8.64 108 
z
" style="fill: none"/>
   </g>
   <g id="matplotlib.axis_1"/>
   <g id="matplotlib.axis_2"/>
   <g id="line2d_1">
    <path d="M 8.64 87.36 
L 279.36 87.36 
" clip-path="url(#pe3ed297c04)" style="fill: none; stroke: #b2b2b2; stroke-opacity: 0.35; stroke-width: 0.5; stroke-linecap: square"/>
   </g>
   <g id="line2d_2">
    <path d="M 8.64 66.72 
L 279.36 66.72 
" clip-path="url(#pe3ed297c04)" style="fill: none; stroke: #b2b2b2; stroke-opacity: 0.35; stroke-width: 0.5; stroke-linecap: square"/>
   </g>
   <g id="line2d_3">
    <path d="M 8.64 46.08 
L 279.36 46.08 
" clip-path="url(#pe3ed297c04)" style="fill: none; stroke: #b2b2b2; stroke-opacity: 0.35; stroke-width: 0.5; stroke-linecap: square"/>
   </g>
   <g id="line2d_4">
    <path d="M 8.64 25.44 
L 279.36 25.44 
" clip-path="url(#pe3ed297c04)" style="fill: none; stroke: #b2b2b2; stroke-opacity: 0.35; stroke-width: 0.5; stroke-linecap: square"/>
   </g>
   <g id="line2d_5">
    <path d="M 8.64 88.36104 
L 11.69386 88.93896 
L 14.74772 90.79656 
L 17.80158 88.09272 
L 20.855441 89.22792 
L 23.909301 90.00192 
L 26.963161 91.39512 
L 30.017021 91.63248 
L 33.070881 90.75528 
L 36.124741 88.7016 
L 39.178601 88.52616 
L 42.232461 87.45288 
L 45.286322 88.0308 
L 48.340182 88.94928 
L 51.394042 89.3208 
L 54.447902 89.7336 
L 57.501762 91.86984 
L 60.555622 88.60872 
L 63.609482 86.87496 
L 66.663343 88.52616 
L 69.717203 90.11544 
L 72.771063 90.38376 
L 75.824923 90.53856 
L 78.878783 90.08448 
L 81.932643 88.79448 
L 84.986503 89.20728 
L 88.040364 89.22792 
L 91.094224 90.31152 
L 94.148084 90.10512 
L 97.201944 91.09584 
L 100.255804 91.61184 
L 103.309664 91.31256 
L 106.363524 92.87088 
L 109.417384 93.8616 
L 112.471245 92.02464 
L 115.525105 92.13816 
L 118.578965 92.07624 
L 121.632825 92.14848 
L 124.686685 92.64384 
L 127.740545 93.01536 
L 130.794405 93.69648 
L 133.848266 93.11856 
L 136.902126 92.44776 
L 139.955986 92.30328 
L 143.009846 92.87088 
L 146.063706 92.38584 
L 149.117566 92.47872 
L 152.171426 91.88016 
L 155.225286 90.42504 
L 158.279147 90.08448 
L 161.333007 89.92968 
L 164.386867 88.76352 
L 167.440727 87.94824 
L 170.494587 89.2692 
L 173.548447 88.72224 
L 176.602307 89.39304 
L 179.656168 89.40336 
L 182.710028 88.41264 
L 185.763888 88.4952 
L 188.817748 86.86464 
L 191.871608 86.42088 
L 194.925468 87.62832 
L 197.979328 86.93688 
L 201.033189 87.23616 
L 204.087049 88.63968 
L 207.140909 90.0432 
L 210.194769 92.12784 
L 213.248629 91.16808 
L 216.302489 91.46736 
L 219.356349 91.73568 
L 222.410209 91.78728 
L 225.46407 94.0164 
L 228.51793 92.5716 
L 231.57179 91.76664 
L 234.62565 92.33424 
L 237.67951 94.36728 
L 240.73337 94.46016 
L 243.78723 97.71096 
L 246.841091 98.48496 
L 249.894951 97.85544 
L 252.473094 99.10416 
L 254.899959 100.16712 
L 257.952264 102.23112 
L 260.993046 100.54896 
L 264.116714 100.70376 
L 267.145372 100.68312 
L 270.216658 100.95144 
L 273.264191 101.28168 
L 276.307059 101.71512 
L 279.36 101.84928 
" clip-path="url(#pe3ed297c04)" style="fill: none; stroke: #bebebe; stroke-width: 0.5; stroke-linecap: round"/>
   </g>
   <g id="line2d_6">
    <path d="M 8.64 72.54048 
L 11.69386 73.56216 
L 14.74772 74.74896 
L 17.80158 73.3248 
L 20.855441 74.80056 
L 23.909301 77.556 
L 26.963161 78.55704 
L 30.017021 78.50544 
L 33.070881 78.04104 
L 36.124741 75.76032 
L 39.178601 75.73968 
L 42.232461 74.65608 
L 45.286322 74.83152 
L 48.340182 74.57352 
L 51.394042 75.20304 
L 54.447902 75.17208 
L 57.501762 78.05136 
L 60.555622 75.1308 
L 63.609482 72.16896 
L 66.663343 73.08744 
L 69.717203 74.72832 
L 72.771063 74.48064 
L 75.824923 74.28456 
L 78.878783 73.21128 
L 81.932643 70.2804 
L 84.986503 70.2288 
L 88.040364 71.56008 
L 91.094224 73.79952 
L 94.148084 73.35576 
L 97.201944 74.0988 
L 100.255804 75.5952 
L 103.309664 75.5952 
L 106.363524 77.61792 
L 109.417384 77.63856 
L 112.471245 75.40944 
L 115.525105 75.40944 
L 118.578965 75.04824 
L 121.632825 74.98632 
L 124.686685 75.58488 
L 127.740545 75.87384 
L 130.794405 76.49304 
L 133.848266 76.15248 
L 136.902126 75.82224 
L 139.955986 75.84288 
L 143.009846 76.03896 
L 146.063706 75.51264 
L 149.117566 75.56424 
L 152.171426 75.05856 
L 155.225286 73.26288 
L 158.279147 73.20096 
L 161.333007 73.00488 
L 164.386867 71.68392 
L 167.440727 70.6932 
L 170.494587 72.62304 
L 173.548447 73.52088 
L 176.602307 73.83048 
L 179.656168 73.8408 
L 182.710028 73.29384 
L 185.763888 73.72728 
L 188.817748 70.32168 
L 191.871608 69.77472 
L 194.925468 70.34232 
L 197.979328 70.67256 
L 201.033189 70.51776 
L 204.087049 70.848 
L 207.140909 72.31344 
L 210.194769 76.01832 
L 213.248629 75.41976 
L 216.302489 75.83256 
L 219.356349 75.79128 
L 222.410209 75.82224 
L 225.46407 77.82432 
L 228.51793 76.14216 
L 231.57179 74.75928 
L 234.62565 74.96568 
L 237.67951 77.75208 
L 240.73337 79.48584 
L 243.78723 83.31456 
L 246.841091 85.90488 
L 249.894951 84.79032 
L 252.473094 85.84296 
L 254.899959 88.25784 
L 257.952264 91.41576 
L 260.993046 88.7532 
L 264.116714 88.65 
L 267.145372 88.55712 
L 270.216658 88.96992 
L 273.264191 89.7336 
L 276.307059 90.456 
L 279.36 90.56952 
" clip-path="url(#pe3ed297c04)" style="fill: none; stroke: #4a8dff; stroke-width: 0.6"/>
   </g>
   <g id="line2d_7">
    <path d="M 8.64 77.75208 
L 11.69386 78.88728 
L 14.74772 81.34344 
L 17.80158 80.53848 
L 20.855441 82.0452 
L 23.909301 86.92656 
L 26.963161 88.58808 
L 30.017021 88.96992 
L 33.070881 86.7924 
L 36.124741 85.296 
L 39.178601 86.24544 
L 42.232461 82.96368 
L 45.286322 82.13808 
L 48.340182 82.47864 
L 51.394042 82.58184 
L 54.447902 83.03592 
L 57.501762 87.3084 
L 60.555622 82.06584 
L 63.609482 79.71288 
L 66.663343 81.24024 
L 69.717203 84.17112 
L 72.771063 84.24336 
L 75.824923 83.29392 
L 78.878783 82.8192 
L 81.932643 80.64168 
L 84.986503 81.38472 
L 88.040364 80.87904 
L 91.094224 83.13912 
L 94.148084 83.19072 
L 97.201944 85.296 
L 100.255804 87.17424 
L 103.309664 85.71912 
L 106.363524 87.53544 
L 109.417384 88.17528 
L 112.471245 85.41984 
L 115.525105 85.17216 
L 118.578965 84.9348 
L 121.632825 85.01736 
L 124.686685 86.14224 
L 127.740545 85.90488 
L 130.794405 86.328 
L 133.848266 86.24544 
L 136.902126 85.72944 
L 139.955986 85.7088 
L 143.009846 86.40024 
L 146.063706 85.09992 
L 149.117566 86.02872 
L 152.171426 84.78 
L 155.225286 83.53128 
L 158.279147 82.83984 
L 161.333007 82.03488 
L 164.386867 79.39296 
L 167.440727 79.66128 
L 170.494587 82.15872 
L 173.548447 82.43736 
L 176.602307 82.93272 
L 179.656168 83.00496 
L 182.710028 82.6128 
L 185.763888 82.28256 
L 188.817748 78.01008 
L 191.871608 76.19376 
L 194.925468 77.66952 
L 197.979328 77.74176 
L 201.033189 78.1752 
L 204.087049 79.5684 
L 207.140909 80.8068 
L 210.194769 85.20312 
L 213.248629 84.12984 
L 216.302489 84.03696 
L 219.356349 84.06792 
L 222.410209 84.3156 
L 225.46407 87.02976 
L 228.51793 85.21344 
L 231.57179 84.28464 
L 234.62565 84.32592 
L 237.67951 89.08344 
L 240.73337 89.5272 
L 243.78723 95.14128 
L 246.841091 96.98856 
L 249.894951 95.08968 
L 252.473094 97.71096 
L 254.899959 99.80592 
L 257.952264 101.79768 
L 260.993046 100.03296 
L 264.116714 100.518 
L 267.145372 99.98136 
L 270.216658 100.49736 
L 273.264191 100.78632 
L 276.307059 101.07528 
L 279.36 101.26104 
" clip-path="url(#pe3ed297c04)" style="fill: none; stroke: #f5841e; stroke-width: 0.6"/>
   </g>
  </g>
 </g>
 <defs>
  <clipPath id="pe3ed297c04">
   <rect x="8.64" y="4.8" width="270.72" height="103.2"/>
  </clipPath>
 </defs>
</svg>
