<?xml version="1.0" encoding="utf-8" standalone="no"?>
<!DOCTYPE svg PUBLIC "-//W3C//DTD SVG 1.1//EN"
  "http://www.w3.org/Graphics/SVG/1.1/DTD/svg11.dtd">
<svg xmlns:xlink="http://www.w3.org/1999/xlink" width="288pt" height="120pt" viewBox="0 0 288 120" xmlns="http://www.w3.org/2000/svg" version="1.1">
<desc id="nav-meta">{"window":"1m","count":4,"labels":["21.05","31.05","09.06","19.06"],"tick_utc":["2026-05-21T04:59:27Z","2026-05-31T05:08:27Z","2026-06-09T04:50:50Z","2026-06-19T05:57:01Z"],"w":720,"h":300}</desc>

 <metadata>
  <rdf:RDF xmlns:dc="http://purl.org/dc/elements/1.1/" xmlns:cc="http://creativecommons.org/ns#" xmlns:rdf="http://www.w3.org/1999/02/22-rdf-syntax-ns#">
   <cc:Work>
    <dc:type rdf:resource="http://purl.org/dc/dcmitype/StillImage"/>
    <dc:date>2026-06-19T20:20:34.515772</dc:date>
    <dc:format>image/svg+xml</dc:format>
    <dc:creator>
     <cc:Agent>
      <dc:title>Matplotlib v3.11.0, https://matplotlib.org/</dc:title>
     </cc:Agent>
    </dc:creator>
   </cc:Work>
  </rdf:RDF>
 </metadata>
 <defs>
  <style type="text/css">*{stroke-linejoin: round; stroke-linecap: butt}</style>
 </defs>
 <g id="figure_1">
  <g id="patch_1">
   <path d="M 0 120 
L 288 120 
L 288 0 
L 0 0 
L 0 120 
z
" style="fill: none; opacity: 0"/>
  </g>
  <g id="axes_1">
   <g id="patch_2">
    <path d="M 8.64 108 
L 279.36 108 
L 279.36 4.8 
L 8.64 4.8 
L 8.64 108 
z
" style="fill: none"/>
   </g>
   <g id="matplotlib.axis_1"/>
   <g id="matplotlib.axis_2"/>
   <g id="line2d_1">
    <path d="M 8.64 87.36 
L 279.36 87.36 
" clip-path="url(#p54b5ed5d51)" style="fill: none; stroke: #b2b2b2; stroke-opacity: 0.35; stroke-width: 0.5; stroke-linecap: square"/>
   </g>
   <g id="line2d_2">
    <path d="M 8.64 66.72 
L 279.36 66.72 
" clip-path="url(#p54b5ed5d51)" style="fill: none; stroke: #b2b2b2; stroke-opacity: 0.35; stroke-width: 0.5; stroke-linecap: square"/>
   </g>
   <g id="line2d_3">
    <path d="M 8.64 46.08 
L 279.36 46.08 
" clip-path="url(#p54b5ed5d51)" style="fill: none; stroke: #b2b2b2; stroke-opacity: 0.35; stroke-width: 0.5; stroke-linecap: square"/>
   </g>
   <g id="line2d_4">
    <path d="M 8.64 25.44 
L 279.36 25.44 
" clip-path="url(#p54b5ed5d51)" style="fill: none; stroke: #b2b2b2; stroke-opacity: 0.35; stroke-width: 0.5; stroke-linecap: square"/>
   </g>
   <g id="line2d_5">
    <path d="M 8.64 100.7244 
L 17.890894 100.75536 
L 27.085141 101.11656 
L 36.555066 100.91016 
L 46.000067 100.89984 
L 55.181151 101.1372 
L 64.599177 101.2404 
L 73.891719 101.6532 
L 83.220946 101.4984 
L 92.408827 101.48808 
L 101.921479 101.32296 
L 111.381693 101.51904 
L 120.612302 101.7048 
L 130.0395 102.54072 
L 139.329884 103.08768 
L 148.498667 103.36632 
L 157.677701 104.22288 
L 167.200388 103.85136 
L 176.563926 103.68624 
L 185.708325 103.43856 
L 195.127323 103.81008 
L 204.504348 103.72752 
L 213.863247 103.50048 
L 223.117377 103.5108 
L 232.50735 103.31472 
L 242.139553 102.95352 
L 251.515067 102.61296 
L 260.540456 102.6336 
L 269.818108 102.9948 
L 279.36 103.28376 
" clip-path="url(#p54b5ed5d51)" style="fill: none; stroke: #bebebe; stroke-width: 0.5; stroke-linecap: round"/>
   </g>
   <g id="line2d_6">
    <path d="M 8.64 87.78312 
L 17.890894 87.95856 
L 27.085141 88.94928 
L 36.555066 88.14432 
L 46.000067 88.33008 
L 55.181151 88.52616 
L 64.599177 88.86672 
L 73.891719 90.22896 
L 83.220946 89.82648 
L 92.408827 89.87808 
L 101.921479 89.46528 
L 111.381693 90.0432 
L 120.612302 89.96064 
L 130.0395 91.99368 
L 139.329884 93.05664 
L 148.498667 93.74808 
L 157.677701 97.02984 
L 167.200388 95.93592 
L 176.563926 95.07936 
L 185.708325 94.46016 
L 195.127323 95.47152 
L 204.504348 95.11032 
L 213.863247 94.82136 
L 223.117377 94.8936 
L 232.50735 94.70784 
L 242.139553 94.04736 
L 251.515067 93.40752 
L 260.540456 92.9844 
L 269.818108 93.93384 
L 279.36 94.4292 
" clip-path="url(#p54b5ed5d51)" style="fill: none; stroke: #4a8dff; stroke-width: 0.6"/>
   </g>
   <g id="line2d_7">
    <path d="M 8.64 95.94624 
L 17.890894 96.30744 
L 27.085141 98.08248 
L 36.555066 97.2672 
L 46.000067 96.61704 
L 55.181151 97.23624 
L 64.599177 98.08248 
L 73.891719 99.18672 
L 83.220946 99.03192 
L 92.408827 99.1248 
L 101.921479 98.74296 
L 111.381693 99.09384 
L 120.612302 100.0536 
L 130.0395 101.23008 
L 139.329884 101.99376 
L 148.498667 102.08664 
L 157.677701 102.8916 
L 167.200388 102.45816 
L 176.563926 102.28272 
L 185.708325 102.10728 
L 195.127323 102.582 
L 204.504348 102.29304 
L 213.863247 102.08664 
L 223.117377 102.066 
L 232.50735 101.86992 
L 242.139553 101.48808 
L 251.515067 101.40552 
L 260.540456 101.4984 
L 269.818108 101.97312 
L 279.36 102.26208 
" clip-path="url(#p54b5ed5d51)" style="fill: none; stroke: #f5841e; stroke-width: 0.6"/>
   </g>
  </g>
 </g>
 <defs>
  <clipPath id="p54b5ed5d51">
   <rect x="8.64" y="4.8" width="270.72" height="103.2"/>
  </clipPath>
 </defs>
</svg>
