<?xml version="1.0" encoding="utf-8" standalone="no"?>
<!DOCTYPE svg PUBLIC "-//W3C//DTD SVG 1.1//EN"
  "http://www.w3.org/Graphics/SVG/1.1/DTD/svg11.dtd">
<svg xmlns:xlink="http://www.w3.org/1999/xlink" width="288pt" height="120pt" viewBox="0 0 288 120" xmlns="http://www.w3.org/2000/svg" version="1.1">
<desc id="nav-meta">{"window":"1m","count":4,"labels":["17.02","27.02","08.03","18.03"],"tick_utc":["2026-02-17T00:31:58Z","2026-02-27T03:18:03Z","2026-03-08T03:19:34Z","2026-03-18T03:32:26Z"],"w":720,"h":300}</desc>

 <metadata>
  <rdf:RDF xmlns:dc="http://purl.org/dc/elements/1.1/" xmlns:cc="http://creativecommons.org/ns#" xmlns:rdf="http://www.w3.org/1999/02/22-rdf-syntax-ns#">
   <cc:Work>
    <dc:type rdf:resource="http://purl.org/dc/dcmitype/StillImage"/>
    <dc:date>2026-03-18T14:05:25.498722</dc:date>
    <dc:format>image/svg+xml</dc:format>
    <dc:creator>
     <cc:Agent>
      <dc:title>Matplotlib v3.10.8, https://matplotlib.org/</dc:title>
     </cc:Agent>
    </dc:creator>
   </cc:Work>
  </rdf:RDF>
 </metadata>
 <defs>
  <style type="text/css">*{stroke-linejoin: round; stroke-linecap: butt}</style>
 </defs>
 <g id="figure_1">
  <g id="patch_1">
   <path d="M 0 120 
L 288 120 
L 288 0 
L 0 0 
L 0 120 
z
" style="fill: none; opacity: 0"/>
  </g>
  <g id="axes_1">
   <g id="patch_2">
    <path d="M 8.64 108 
L 279.36 108 
L 279.36 4.8 
L 8.64 4.8 
L 8.64 108 
z
" style="fill: none"/>
   </g>
   <g id="matplotlib.axis_1"/>
   <g id="matplotlib.axis_2"/>
   <g id="line2d_1">
    <path d="M 8.64 87.36 
L 279.36 87.36 
" clip-path="url(#pe239e2f9ca)" style="fill: none; stroke: #b2b2b2; stroke-opacity: 0.35; stroke-width: 0.5; stroke-linecap: square"/>
   </g>
   <g id="line2d_2">
    <path d="M 8.64 66.72 
L 279.36 66.72 
" clip-path="url(#pe239e2f9ca)" style="fill: none; stroke: #b2b2b2; stroke-opacity: 0.35; stroke-width: 0.5; stroke-linecap: square"/>
   </g>
   <g id="line2d_3">
    <path d="M 8.64 46.08 
L 279.36 46.08 
" clip-path="url(#pe239e2f9ca)" style="fill: none; stroke: #b2b2b2; stroke-opacity: 0.35; stroke-width: 0.5; stroke-linecap: square"/>
   </g>
   <g id="line2d_4">
    <path d="M 8.64 25.44 
L 279.36 25.44 
" clip-path="url(#pe239e2f9ca)" style="fill: none; stroke: #b2b2b2; stroke-opacity: 0.35; stroke-width: 0.5; stroke-linecap: square"/>
   </g>
   <g id="line2d_5">
    <path d="M 8.64 100.81728 
L 19.087843 101.034 
L 28.37155 101.4984 
L 37.612226 101.33328 
L 46.850427 101.1372 
L 56.251613 101.06496 
L 65.574588 102.09696 
L 74.084358 102.05568 
L 84.131138 101.4984 
L 93.384723 100.60056 
L 102.662084 100.80696 
L 111.84757 101.45712 
L 121.353756 100.55928 
L 130.552797 101.10624 
L 139.869425 100.8792 
L 149.11236 100.74504 
L 158.427374 100.21872 
L 167.717967 100.53864 
L 176.941644 101.07528 
L 186.326909 101.38488 
L 195.649776 101.26104 
L 204.885072 100.78632 
L 214.176419 100.91016 
L 223.508 100.99272 
L 232.785038 100.38384 
L 242.06767 100.50768 
L 251.540505 100.60056 
L 260.861759 99.76464 
L 269.9941 99.49632 
L 279.36 99.40344 
" clip-path="url(#pe239e2f9ca)" style="fill: none; stroke: #bebebe; stroke-width: 0.5; stroke-linecap: round"/>
   </g>
   <g id="line2d_6">
    <path d="M 8.64 89.94 
L 19.087843 90.00192 
L 28.37155 90.3528 
L 37.612226 90.62112 
L 46.850427 90.5076 
L 56.251613 90.3528 
L 65.574588 92.004 
L 74.084358 92.13816 
L 84.131138 91.25064 
L 93.384723 89.166 
L 102.662084 89.56848 
L 111.84757 90.93072 
L 121.353756 89.41368 
L 130.552797 90.37344 
L 139.869425 89.79552 
L 149.11236 90.23928 
L 158.427374 88.0824 
L 167.717967 88.7532 
L 176.941644 90.16704 
L 186.326909 90.67272 
L 195.649776 90.18768 
L 204.885072 89.2692 
L 214.176419 89.54784 
L 223.508 89.49624 
L 232.785038 88.31976 
L 242.06767 88.45392 
L 251.540505 88.46424 
L 260.861759 86.38992 
L 269.9941 84.80064 
L 279.36 84.8316 
" clip-path="url(#pe239e2f9ca)" style="fill: none; stroke: #4a8dff; stroke-width: 0.6"/>
   </g>
   <g id="line2d_7">
    <path d="M 8.64 100.65216 
L 19.087843 101.034 
L 28.37155 101.19912 
L 37.612226 101.10624 
L 46.850427 100.97208 
L 56.251613 100.91016 
L 65.574588 101.7564 
L 74.084358 101.84928 
L 84.131138 101.56032 
L 93.384723 100.85856 
L 102.662084 101.12688 
L 111.84757 101.4468 
L 121.353756 101.02368 
L 130.552797 101.30232 
L 139.869425 100.81728 
L 149.11236 100.79664 
L 158.427374 99.3312 
L 167.717967 99.92976 
L 176.941644 100.78632 
L 186.326909 101.17848 
L 195.649776 101.1372 
L 204.885072 100.21872 
L 214.176419 100.37352 
L 223.508 100.4664 
L 232.785038 99.88848 
L 242.06767 99.94008 
L 251.540505 99.81624 
L 260.861759 98.93904 
L 269.9941 98.3508 
L 279.36 98.52624 
" clip-path="url(#pe239e2f9ca)" style="fill: none; stroke: #f5841e; stroke-width: 0.6"/>
   </g>
  </g>
 </g>
 <defs>
  <clipPath id="pe239e2f9ca">
   <rect x="8.64" y="4.8" width="270.72" height="103.2"/>
  </clipPath>
 </defs>
</svg>
