<?xml version="1.0" encoding="utf-8" standalone="no"?>
<!DOCTYPE svg PUBLIC "-//W3C//DTD SVG 1.1//EN"
  "http://www.w3.org/Graphics/SVG/1.1/DTD/svg11.dtd">
<svg xmlns:xlink="http://www.w3.org/1999/xlink" width="288pt" height="120pt" viewBox="0 0 288 120" xmlns="http://www.w3.org/2000/svg" version="1.1">
<desc id="nav-meta">{"window":"3m","count":4,"labels":["28.11","28.12","27.01","26.02"],"tick_utc":["2025-11-28T12:00:00Z","2025-12-28T12:00:00Z","2026-01-27T12:00:00Z","2026-02-26T03:20:47Z"],"w":720,"h":300}</desc>

 <metadata>
  <rdf:RDF xmlns:dc="http://purl.org/dc/elements/1.1/" xmlns:cc="http://creativecommons.org/ns#" xmlns:rdf="http://www.w3.org/1999/02/22-rdf-syntax-ns#">
   <cc:Work>
    <dc:type rdf:resource="http://purl.org/dc/dcmitype/StillImage"/>
    <dc:date>2026-02-26T07:38:05.487041</dc:date>
    <dc:format>image/svg+xml</dc:format>
    <dc:creator>
     <cc:Agent>
      <dc:title>Matplotlib v3.10.8, https://matplotlib.org/</dc:title>
     </cc:Agent>
    </dc:creator>
   </cc:Work>
  </rdf:RDF>
 </metadata>
 <defs>
  <style type="text/css">*{stroke-linejoin: round; stroke-linecap: butt}</style>
 </defs>
 <g id="figure_1">
  <g id="patch_1">
   <path d="M 0 120 
L 288 120 
L 288 0 
L 0 0 
L 0 120 
z
" style="fill: none; opacity: 0"/>
  </g>
  <g id="axes_1">
   <g id="patch_2">
    <path d="M 8.64 108 
L 279.36 108 
L 279.36 4.8 
L 8.64 4.8 
L 8.64 108 
z
" style="fill: none"/>
   </g>
   <g id="matplotlib.axis_1"/>
   <g id="matplotlib.axis_2"/>
   <g id="line2d_1">
    <path d="M 8.64 87.36 
L 279.36 87.36 
" clip-path="url(#pcf6324f00a)" style="fill: none; stroke: #b2b2b2; stroke-opacity: 0.35; stroke-width: 0.5; stroke-linecap: square"/>
   </g>
   <g id="line2d_2">
    <path d="M 8.64 66.72 
L 279.36 66.72 
" clip-path="url(#pcf6324f00a)" style="fill: none; stroke: #b2b2b2; stroke-opacity: 0.35; stroke-width: 0.5; stroke-linecap: square"/>
   </g>
   <g id="line2d_3">
    <path d="M 8.64 46.08 
L 279.36 46.08 
" clip-path="url(#pcf6324f00a)" style="fill: none; stroke: #b2b2b2; stroke-opacity: 0.35; stroke-width: 0.5; stroke-linecap: square"/>
   </g>
   <g id="line2d_4">
    <path d="M 8.64 25.44 
L 279.36 25.44 
" clip-path="url(#pcf6324f00a)" style="fill: none; stroke: #b2b2b2; stroke-opacity: 0.35; stroke-width: 0.5; stroke-linecap: square"/>
   </g>
   <g id="line2d_5">
    <path d="M 8.64 88.0308 
L 11.660099 88.94928 
L 14.680199 89.3208 
L 17.700298 89.7336 
L 20.720398 91.86984 
L 23.740497 88.60872 
L 26.760597 86.87496 
L 29.780696 88.52616 
L 32.800795 90.11544 
L 35.820895 90.38376 
L 38.840994 90.53856 
L 41.861094 90.08448 
L 44.881193 88.79448 
L 47.901293 89.20728 
L 50.921392 89.22792 
L 53.941491 90.31152 
L 56.961591 90.10512 
L 59.98169 91.09584 
L 63.00179 91.61184 
L 66.021889 91.31256 
L 69.041989 92.87088 
L 72.062088 93.8616 
L 75.082187 92.02464 
L 78.102287 92.13816 
L 81.122386 92.07624 
L 84.142486 92.14848 
L 87.162585 92.64384 
L 90.182685 93.01536 
L 93.202784 93.69648 
L 96.222883 93.11856 
L 99.242983 92.44776 
L 102.263082 92.30328 
L 105.283182 92.87088 
L 108.303281 92.38584 
L 111.323381 92.47872 
L 114.34348 91.88016 
L 117.363579 90.42504 
L 120.383679 90.08448 
L 123.403778 89.92968 
L 126.423878 88.76352 
L 129.443977 87.94824 
L 132.464077 89.2692 
L 135.484176 88.72224 
L 138.504275 89.39304 
L 141.524375 89.40336 
L 144.544474 88.41264 
L 147.564574 88.4952 
L 150.584673 86.86464 
L 153.604773 86.42088 
L 156.624872 87.62832 
L 159.644971 86.93688 
L 162.665071 87.23616 
L 165.68517 88.63968 
L 168.70527 90.0432 
L 171.725369 92.12784 
L 174.745469 91.16808 
L 177.765568 91.46736 
L 180.785667 91.73568 
L 183.805767 91.78728 
L 186.825866 94.0164 
L 189.845966 92.5716 
L 192.866065 91.76664 
L 195.886165 92.33424 
L 198.906264 94.36728 
L 201.926363 94.46016 
L 204.946463 97.71096 
L 207.966562 98.48496 
L 210.986662 97.85544 
L 213.536304 99.10416 
L 215.936339 100.16712 
L 218.9549 102.23112 
L 221.962067 100.54896 
L 225.051202 100.70376 
L 228.046378 100.68312 
L 231.083711 100.95144 
L 234.097553 101.28168 
L 237.106782 101.71512 
L 240.125972 101.84928 
L 243.109754 101.034 
L 245.970494 100.54896 
L 249.184313 101.04432 
L 251.825047 100.81728 
L 255.219723 101.034 
L 258.236152 101.4984 
L 261.238599 101.33328 
L 264.240243 101.1372 
L 267.294843 101.06496 
L 270.32403 102.09696 
L 273.088994 102.05568 
L 276.353358 101.4984 
L 279.36 100.60056 
" clip-path="url(#pcf6324f00a)" style="fill: none; stroke: #bebebe; stroke-width: 0.5; stroke-linecap: round"/>
   </g>
   <g id="line2d_6">
    <path d="M 8.64 74.83152 
L 11.660099 74.57352 
L 14.680199 75.20304 
L 17.700298 75.17208 
L 20.720398 78.05136 
L 23.740497 75.1308 
L 26.760597 72.16896 
L 29.780696 73.08744 
L 32.800795 74.72832 
L 35.820895 74.48064 
L 38.840994 74.28456 
L 41.861094 73.21128 
L 44.881193 70.2804 
L 47.901293 70.2288 
L 50.921392 71.56008 
L 53.941491 73.79952 
L 56.961591 73.35576 
L 59.98169 74.0988 
L 63.00179 75.5952 
L 66.021889 75.5952 
L 69.041989 77.61792 
L 72.062088 77.63856 
L 75.082187 75.40944 
L 78.102287 75.40944 
L 81.122386 75.04824 
L 84.142486 74.98632 
L 87.162585 75.58488 
L 90.182685 75.87384 
L 93.202784 76.49304 
L 96.222883 76.15248 
L 99.242983 75.82224 
L 102.263082 75.84288 
L 105.283182 76.03896 
L 108.303281 75.51264 
L 111.323381 75.56424 
L 114.34348 75.05856 
L 117.363579 73.26288 
L 120.383679 73.20096 
L 123.403778 73.00488 
L 126.423878 71.68392 
L 129.443977 70.6932 
L 132.464077 72.62304 
L 135.484176 73.52088 
L 138.504275 73.83048 
L 141.524375 73.8408 
L 144.544474 73.29384 
L 147.564574 73.72728 
L 150.584673 70.32168 
L 153.604773 69.77472 
L 156.624872 70.34232 
L 159.644971 70.67256 
L 162.665071 70.51776 
L 165.68517 70.848 
L 168.70527 72.31344 
L 171.725369 76.01832 
L 174.745469 75.41976 
L 177.765568 75.83256 
L 180.785667 75.79128 
L 183.805767 75.82224 
L 186.825866 77.82432 
L 189.845966 76.14216 
L 192.866065 74.75928 
L 195.886165 74.96568 
L 198.906264 77.75208 
L 201.926363 79.48584 
L 204.946463 83.31456 
L 207.966562 85.90488 
L 210.986662 84.79032 
L 213.536304 85.84296 
L 215.936339 88.25784 
L 218.9549 91.41576 
L 221.962067 88.7532 
L 225.051202 88.65 
L 228.046378 88.55712 
L 231.083711 88.96992 
L 234.097553 89.7336 
L 237.106782 90.456 
L 240.125972 90.56952 
L 243.109754 89.15568 
L 245.970494 88.9596 
L 249.184313 90.6624 
L 251.825047 89.94 
L 255.219723 90.00192 
L 258.236152 90.3528 
L 261.238599 90.62112 
L 264.240243 90.5076 
L 267.294843 90.3528 
L 270.32403 92.004 
L 273.088994 92.13816 
L 276.353358 91.25064 
L 279.36 89.166 
" clip-path="url(#pcf6324f00a)" style="fill: none; stroke: #4a8dff; stroke-width: 0.6"/>
   </g>
   <g id="line2d_7">
    <path d="M 8.64 82.13808 
L 11.660099 82.47864 
L 14.680199 82.58184 
L 17.700298 83.03592 
L 20.720398 87.3084 
L 23.740497 82.06584 
L 26.760597 79.71288 
L 29.780696 81.24024 
L 32.800795 84.17112 
L 35.820895 84.24336 
L 38.840994 83.29392 
L 41.861094 82.8192 
L 44.881193 80.64168 
L 47.901293 81.38472 
L 50.921392 80.87904 
L 53.941491 83.13912 
L 56.961591 83.19072 
L 59.98169 85.296 
L 63.00179 87.17424 
L 66.021889 85.71912 
L 69.041989 87.53544 
L 72.062088 88.17528 
L 75.082187 85.41984 
L 78.102287 85.17216 
L 81.122386 84.9348 
L 84.142486 85.01736 
L 87.162585 86.14224 
L 90.182685 85.90488 
L 93.202784 86.328 
L 96.222883 86.24544 
L 99.242983 85.72944 
L 102.263082 85.7088 
L 105.283182 86.40024 
L 108.303281 85.09992 
L 111.323381 86.02872 
L 114.34348 84.78 
L 117.363579 83.53128 
L 120.383679 82.83984 
L 123.403778 82.03488 
L 126.423878 79.39296 
L 129.443977 79.66128 
L 132.464077 82.15872 
L 135.484176 82.43736 
L 138.504275 82.93272 
L 141.524375 83.00496 
L 144.544474 82.6128 
L 147.564574 82.28256 
L 150.584673 78.01008 
L 153.604773 76.19376 
L 156.624872 77.66952 
L 159.644971 77.74176 
L 162.665071 78.1752 
L 165.68517 79.5684 
L 168.70527 80.8068 
L 171.725369 85.20312 
L 174.745469 84.12984 
L 177.765568 84.03696 
L 180.785667 84.06792 
L 183.805767 84.3156 
L 186.825866 87.02976 
L 189.845966 85.21344 
L 192.866065 84.28464 
L 195.886165 84.32592 
L 198.906264 89.08344 
L 201.926363 89.5272 
L 204.946463 95.14128 
L 207.966562 96.98856 
L 210.986662 95.08968 
L 213.536304 97.71096 
L 215.936339 99.80592 
L 218.9549 101.79768 
L 221.962067 100.03296 
L 225.051202 100.518 
L 228.046378 99.98136 
L 231.083711 100.49736 
L 234.097553 100.78632 
L 237.106782 101.07528 
L 240.125972 101.26104 
L 243.109754 100.63152 
L 245.970494 100.38384 
L 249.184313 100.84824 
L 251.825047 100.65216 
L 255.219723 101.034 
L 258.236152 101.19912 
L 261.238599 101.10624 
L 264.240243 100.97208 
L 267.294843 100.91016 
L 270.32403 101.7564 
L 273.088994 101.84928 
L 276.353358 101.56032 
L 279.36 100.85856 
" clip-path="url(#pcf6324f00a)" style="fill: none; stroke: #f5841e; stroke-width: 0.6"/>
   </g>
  </g>
 </g>
 <defs>
  <clipPath id="pcf6324f00a">
   <rect x="8.64" y="4.8" width="270.72" height="103.2"/>
  </clipPath>
 </defs>
</svg>
