<?xml version="1.0" encoding="utf-8" standalone="no"?>
<!DOCTYPE svg PUBLIC "-//W3C//DTD SVG 1.1//EN"
  "http://www.w3.org/Graphics/SVG/1.1/DTD/svg11.dtd">
<svg xmlns:xlink="http://www.w3.org/1999/xlink" width="288pt" height="120pt" viewBox="0 0 288 120" xmlns="http://www.w3.org/2000/svg" version="1.1">
<desc id="nav-meta">{"window":"1y","count":4,"labels":["26.06","26.10","25.02","26.06"],"tick_utc":["2025-06-26T12:00:00Z","2025-10-26T12:00:00Z","2026-02-25T03:27:12Z","2026-06-26T04:57:37Z"],"w":720,"h":300}</desc>

 <metadata>
  <rdf:RDF xmlns:dc="http://purl.org/dc/elements/1.1/" xmlns:cc="http://creativecommons.org/ns#" xmlns:rdf="http://www.w3.org/1999/02/22-rdf-syntax-ns#">
   <cc:Work>
    <dc:type rdf:resource="http://purl.org/dc/dcmitype/StillImage"/>
    <dc:date>2026-06-26T04:57:39.271414</dc:date>
    <dc:format>image/svg+xml</dc:format>
    <dc:creator>
     <cc:Agent>
      <dc:title>Matplotlib v3.11.0, https://matplotlib.org/</dc:title>
     </cc:Agent>
    </dc:creator>
   </cc:Work>
  </rdf:RDF>
 </metadata>
 <defs>
  <style type="text/css">*{stroke-linejoin: round; stroke-linecap: butt}</style>
 </defs>
 <g id="figure_1">
  <g id="patch_1">
   <path d="M 0 120 
L 288 120 
L 288 0 
L 0 0 
L 0 120 
z
" style="fill: none; opacity: 0"/>
  </g>
  <g id="axes_1">
   <g id="patch_2">
    <path d="M 8.64 108 
L 279.36 108 
L 279.36 4.8 
L 8.64 4.8 
L 8.64 108 
z
" style="fill: none"/>
   </g>
   <g id="matplotlib.axis_1"/>
   <g id="matplotlib.axis_2"/>
   <g id="line2d_1">
    <path d="M 8.64 87.36 
L 279.36 87.36 
" clip-path="url(#pdbda11b390)" style="fill: none; stroke: #b2b2b2; stroke-opacity: 0.35; stroke-width: 0.5; stroke-linecap: square"/>
   </g>
   <g id="line2d_2">
    <path d="M 8.64 66.72 
L 279.36 66.72 
" clip-path="url(#pdbda11b390)" style="fill: none; stroke: #b2b2b2; stroke-opacity: 0.35; stroke-width: 0.5; stroke-linecap: square"/>
   </g>
   <g id="line2d_3">
    <path d="M 8.64 46.08 
L 279.36 46.08 
" clip-path="url(#pdbda11b390)" style="fill: none; stroke: #b2b2b2; stroke-opacity: 0.35; stroke-width: 0.5; stroke-linecap: square"/>
   </g>
   <g id="line2d_4">
    <path d="M 8.64 25.44 
L 279.36 25.44 
" clip-path="url(#pdbda11b390)" style="fill: none; stroke: #b2b2b2; stroke-opacity: 0.35; stroke-width: 0.5; stroke-linecap: square"/>
   </g>
   <g id="line2d_5">
    <path d="M 8.64 87.32904 
L 9.382295 88.53648 
L 10.12459 87.6696 
L 10.866885 85.30632 
L 11.609181 84.61488 
L 12.351476 84.17112 
L 13.093771 86.3796 
L 13.836066 84.92448 
L 14.578361 84.89352 
L 15.320656 86.13192 
L 16.062952 86.1732 
L 16.805247 84.99672 
L 17.547542 85.85328 
L 18.289837 85.01736 
L 19.032132 83.55192 
L 19.774427 81.7356 
L 20.516722 82.03488 
L 21.259018 82.65408 
L 22.743608 82.15872 
L 23.485903 81.70464 
L 24.228198 79.01112 
L 24.970493 78.39192 
L 25.712789 78.04104 
L 26.455084 78.16488 
L 27.197379 77.05032 
L 27.939674 72.82944 
L 28.681969 70.41456 
L 29.424264 74.69736 
L 30.166559 76.6272 
L 30.908855 75.63648 
L 31.65115 75.97704 
L 32.393445 74.976 
L 33.13574 76.49304 
L 33.878035 76.99872 
L 34.62033 77.90688 
L 35.362626 79.4652 
L 36.104921 82.02456 
L 36.847216 83.19072 
L 37.589511 82.27224 
L 38.331806 80.21856 
L 39.074101 81.67368 
L 39.816396 80.5488 
L 40.558692 78.588 
L 41.300987 78.19584 
L 42.043282 77.21544 
L 42.785577 76.524 
L 43.527872 78.68088 
L 44.270167 73.88208 
L 45.012463 71.364 
L 45.754758 73.8408 
L 46.497053 75.79128 
L 47.239348 74.65608 
L 47.981643 74.14008 
L 48.723938 76.50336 
L 49.466233 78.30936 
L 50.208529 75.3372 
L 50.950824 77.25672 
L 51.693119 71.78712 
L 52.435414 70.75512 
L 53.177709 70.24944 
L 53.920004 75.35784 
L 54.6623 72.95328 
L 55.404595 70.96152 
L 56.14689 67.87584 
L 56.889185 70.46616 
L 57.63148 71.11632 
L 58.373775 71.61168 
L 59.11607 72.7056 
L 59.858366 69.33096 
L 60.600661 68.9388 
L 61.342956 71.12664 
L 62.085251 70.90992 
L 62.827546 71.80776 
L 63.569841 70.074 
L 64.312137 68.01 
L 65.054432 67.10184 
L 65.796727 65.29584 
L 66.539022 64.01616 
L 67.281317 60.31128 
L 68.023612 60.19776 
L 68.765907 60.786 
L 69.508203 62.61264 
L 70.250498 61.74576 
L 70.992793 59.57856 
L 71.735088 58.86648 
L 72.477383 61.38456 
L 73.219678 61.07496 
L 73.961974 61.83864 
L 74.704269 66.29688 
L 75.446564 67.97904 
L 76.188859 68.69112 
L 76.931154 73.9956 
L 77.673449 70.45584 
L 78.415745 70.87896 
L 79.15804 68.91816 
L 79.900335 68.3196 
L 80.64263 69.47544 
L 82.12722 62.39592 
L 82.869515 62.81904 
L 83.611811 64.22256 
L 84.354106 64.05744 
L 85.096401 62.9532 
L 85.838696 66.14208 
L 86.580991 63.91296 
L 87.323286 66.17304 
L 88.065582 74.6148 
L 88.807877 77.78304 
L 89.550172 72.66432 
L 90.292467 69.69216 
L 91.034762 71.09568 
L 92.519352 76.06992 
L 93.261648 76.76136 
L 94.003943 75.25464 
L 94.746238 75.24432 
L 95.488533 74.63544 
L 96.230828 75.73968 
L 96.973123 77.31864 
L 97.715419 74.202 
L 98.457714 73.64472 
L 99.200009 73.48992 
L 99.942304 71.83872 
L 100.684599 72.17928 
L 101.426894 73.38672 
L 102.169189 73.43832 
L 102.911485 76.15248 
L 103.65378 75.3372 
L 104.396075 75.58488 
L 105.13837 75.35784 
L 105.880665 81.168 
L 106.62296 84.01632 
L 107.365256 82.06584 
L 108.107551 84.19176 
L 108.849846 82.27224 
L 109.592141 83.29392 
L 110.334436 81.62208 
L 111.076731 80.72424 
L 111.819026 84.33624 
L 112.561322 84.64584 
L 113.303617 86.844 
L 114.045912 88.52616 
L 114.788207 88.36104 
L 115.530502 88.93896 
L 116.272797 90.79656 
L 117.015093 88.09272 
L 117.757388 89.22792 
L 118.499683 90.00192 
L 119.241978 91.39512 
L 119.984273 91.63248 
L 120.726568 90.75528 
L 121.468863 88.7016 
L 122.211159 88.52616 
L 122.953454 87.45288 
L 123.695749 88.0308 
L 124.438044 88.94928 
L 125.922634 89.7336 
L 126.66493 91.86984 
L 127.407225 88.60872 
L 128.14952 86.87496 
L 129.63411 90.11544 
L 131.1187 90.53856 
L 131.860996 90.08448 
L 132.603291 88.79448 
L 133.345586 89.20728 
L 134.087881 89.22792 
L 134.830176 90.31152 
L 135.572471 90.10512 
L 136.314767 91.09584 
L 137.057062 91.61184 
L 137.799357 91.31256 
L 138.541652 92.87088 
L 139.283947 93.8616 
L 140.026242 92.02464 
L 140.768537 92.13816 
L 141.510833 92.07624 
L 142.253128 92.14848 
L 144.480013 93.69648 
L 145.964604 92.44776 
L 146.706899 92.30328 
L 147.449194 92.87088 
L 148.191489 92.38584 
L 148.933784 92.47872 
L 149.676079 91.88016 
L 150.418374 90.42504 
L 151.16067 90.08448 
L 151.902965 89.92968 
L 152.64526 88.76352 
L 153.387555 87.94824 
L 154.12985 89.2692 
L 154.872145 88.72224 
L 155.614441 89.39304 
L 156.356736 89.40336 
L 157.099031 88.41264 
L 157.841326 88.4952 
L 158.583621 86.86464 
L 159.325916 86.42088 
L 160.068211 87.62832 
L 160.810507 86.93688 
L 161.552802 87.23616 
L 163.037392 90.0432 
L 163.779687 92.12784 
L 164.521982 91.16808 
L 166.006573 91.73568 
L 166.748868 91.78728 
L 167.491163 94.0164 
L 168.233458 92.5716 
L 168.975753 91.76664 
L 169.718048 92.33424 
L 170.460344 94.36728 
L 171.202639 94.46016 
L 171.944934 97.71096 
L 172.687229 98.48496 
L 173.429524 97.85544 
L 174.646081 100.16712 
L 175.387998 102.23112 
L 176.127114 100.54896 
L 176.886377 100.70376 
L 177.622547 100.68312 
L 179.109835 101.28168 
L 179.849458 101.71512 
L 180.59153 101.84928 
L 181.324899 101.034 
L 182.028026 100.54896 
L 182.817934 101.04432 
L 183.466987 100.81728 
L 184.301347 101.034 
L 185.042741 101.4984 
L 187.269231 101.06496 
L 188.01376 102.09696 
L 188.693346 102.05568 
L 189.495678 101.4984 
L 190.234666 100.60056 
L 190.975552 100.80696 
L 191.709101 101.45712 
L 192.468261 100.55928 
L 193.202893 101.10624 
L 194.685051 100.74504 
L 195.428945 100.21872 
L 196.170888 100.53864 
L 196.907487 101.07528 
L 197.65699 101.38488 
L 198.40151 101.26104 
L 199.139037 100.78632 
L 200.626256 100.99272 
L 201.367117 100.38384 
L 202.864921 100.60056 
L 203.609312 99.76464 
L 204.338617 99.49632 
L 205.086574 99.40344 
L 205.829075 100.09488 
L 206.564145 100.3632 
L 207.302093 100.19808 
L 208.799528 100.79664 
L 209.53495 100.26 
L 210.33253 99.83688 
L 211.028569 100.13616 
L 212.507 101.38488 
L 215.490098 101.28168 
L 216.222617 101.8596 
L 216.965762 101.88024 
L 217.7017 101.72544 
L 218.455172 101.68416 
L 219.199383 101.47776 
L 219.936859 101.78736 
L 220.680357 101.09592 
L 221.420066 101.46744 
L 222.169191 101.3436 
L 222.900137 101.05464 
L 223.655749 101.3952 
L 224.40185 101.47776 
L 225.13942 100.86888 
L 225.881148 101.26104 
L 228.101547 100.44576 
L 228.853645 100.94112 
L 229.597779 101.09592 
L 230.336818 101.00304 
L 231.07681 100.69344 
L 231.822112 100.9308 
L 234.053654 100.8792 
L 234.803948 100.64184 
L 235.547798 101.1888 
L 236.288066 101.09592 
L 237.031607 101.37456 
L 237.782012 101.21976 
L 239.262728 101.23008 
L 240.004765 100.92048 
L 240.730711 101.06496 
L 241.486082 100.70376 
L 242.228575 100.55928 
L 242.958516 100.53864 
L 243.703526 99.60984 
L 244.460779 99.72336 
L 245.940919 99.25896 
L 246.686745 99.32088 
L 247.428215 100.22904 
L 248.17417 100.01232 
L 249.660367 100.75536 
L 250.40987 101.02368 
L 251.146847 101.02368 
L 251.891797 101.17848 
L 252.638319 100.7244 
L 253.374927 100.75536 
L 254.107024 101.11656 
L 254.861073 100.91016 
L 255.613136 100.89984 
L 256.344185 101.1372 
L 257.094101 101.2404 
L 257.834025 101.6532 
L 258.57687 101.4984 
L 259.30846 101.48808 
L 260.06591 101.32296 
L 261.554178 101.7048 
L 262.304824 102.54072 
L 263.044576 103.08768 
L 263.774646 103.36632 
L 264.505531 104.22288 
L 265.263781 103.85136 
L 266.737486 103.43856 
L 267.487479 103.81008 
L 268.23413 103.72752 
L 268.979337 103.50048 
L 269.716203 103.5108 
L 270.463885 103.31472 
L 271.977385 102.61296 
L 272.696037 102.6336 
L 274.194554 103.28376 
L 275.664908 102.69552 
L 276.428931 102.582 
L 277.871801 103.15992 
L 278.613899 103.36632 
L 279.36 103.36632 
L 279.36 103.36632 
" clip-path="url(#pdbda11b390)" style="fill: none; stroke: #bebebe; stroke-width: 0.5; stroke-linecap: round"/>
   </g>
   <g id="line2d_6">
    <path d="M 8.64 83.71704 
L 9.382295 83.748 
L 10.866885 83.41776 
L 11.609181 82.44768 
L 12.351476 82.6644 
L 13.093771 83.89248 
L 13.836066 81.38472 
L 14.578361 81.14736 
L 15.320656 82.34448 
L 16.062952 82.23096 
L 16.805247 81.426 
L 17.547542 81.8388 
L 18.289837 80.76552 
L 19.774427 75.83256 
L 20.516722 75.67776 
L 21.259018 75.91512 
L 22.743608 74.88312 
L 23.485903 73.09776 
L 24.228198 69.6096 
L 24.970493 67.91712 
L 25.712789 66.94704 
L 26.455084 66.24528 
L 27.197379 63.80976 
L 27.939674 63.70656 
L 28.681969 63.9852 
L 29.424264 65.71896 
L 30.166559 64.5528 
L 31.65115 64.05744 
L 32.393445 62.25144 
L 33.13574 63.39696 
L 33.878035 63.366 
L 34.62033 63.08736 
L 35.362626 64.72824 
L 36.104921 67.89648 
L 36.847216 69.16584 
L 37.589511 67.69008 
L 38.331806 64.4496 
L 39.074101 65.97696 
L 39.816396 64.914 
L 40.558692 61.54968 
L 41.300987 60.04296 
L 42.043282 56.28648 
L 42.785577 56.47224 
L 43.527872 56.83344 
L 44.270167 51.22968 
L 45.012463 48.89736 
L 45.754758 52.00368 
L 46.497053 53.84064 
L 47.239348 53.90256 
L 47.981643 53.00472 
L 48.723938 55.5228 
L 49.466233 59.12448 
L 50.208529 55.32672 
L 50.950824 56.90568 
L 51.693119 47.92728 
L 52.435414 48.75288 
L 53.177709 48.68064 
L 53.920004 54.57336 
L 54.6623 51.2916 
L 55.404595 52.80864 
L 56.14689 52.69512 
L 56.889185 54.82104 
L 58.373775 54.45984 
L 59.11607 55.7292 
L 59.858366 55.39896 
L 60.600661 53.55168 
L 61.342956 55.81176 
L 62.085251 55.6776 
L 62.827546 56.18328 
L 63.569841 55.71888 
L 65.054432 55.63632 
L 65.796727 55.07904 
L 66.539022 53.41752 
L 67.281317 49.71264 
L 68.023612 50.32152 
L 68.765907 51.17808 
L 69.508203 52.44744 
L 70.250498 52.74672 
L 70.992793 51.4464 
L 71.735088 51.46704 
L 72.477383 53.2524 
L 73.219678 53.08728 
L 73.961974 53.5104 
L 74.704269 57.26688 
L 75.446564 57.76224 
L 76.188859 58.02024 
L 76.931154 62.26176 
L 77.673449 59.68176 
L 78.415745 59.9604 
L 79.15804 58.12344 
L 79.900335 57.02952 
L 80.64263 58.09248 
L 81.384925 55.13064 
L 82.12722 53.046 
L 82.869515 52.5816 
L 83.611811 52.9944 
L 84.354106 52.5816 
L 85.096401 50.0016 
L 85.838696 53.48976 
L 86.580991 52.40616 
L 87.323286 54.75912 
L 88.065582 62.67456 
L 88.807877 63.95424 
L 89.550172 57.86544 
L 90.292467 56.57544 
L 91.034762 58.31952 
L 91.777057 60.4764 
L 92.519352 61.85928 
L 93.261648 62.73648 
L 94.003943 61.8696 
L 94.746238 60.45576 
L 95.488533 60.54864 
L 96.230828 62.04504 
L 96.973123 63.16992 
L 97.715419 62.36496 
L 98.457714 61.21944 
L 99.200009 60.9408 
L 99.942304 57.83448 
L 100.684599 58.40208 
L 101.426894 60.49704 
L 102.911485 63.1596 
L 103.65378 62.49912 
L 104.396075 62.1276 
L 105.13837 61.56 
L 106.62296 70.66224 
L 107.365256 68.72208 
L 108.107551 70.4868 
L 108.849846 68.61888 
L 109.592141 69.11424 
L 110.334436 66.5136 
L 111.076731 66.68904 
L 111.819026 68.8872 
L 112.561322 68.9904 
L 113.303617 71.5704 
L 114.045912 73.48992 
L 114.788207 72.54048 
L 116.272797 74.74896 
L 117.015093 73.3248 
L 117.757388 74.80056 
L 118.499683 77.556 
L 119.241978 78.55704 
L 119.984273 78.50544 
L 120.726568 78.04104 
L 121.468863 75.76032 
L 122.211159 75.73968 
L 122.953454 74.65608 
L 123.695749 74.83152 
L 124.438044 74.57352 
L 125.180339 75.20304 
L 125.922634 75.17208 
L 126.66493 78.05136 
L 128.14952 72.16896 
L 128.891815 73.08744 
L 129.63411 74.72832 
L 131.1187 74.28456 
L 131.860996 73.21128 
L 132.603291 70.2804 
L 133.345586 70.2288 
L 134.087881 71.56008 
L 134.830176 73.79952 
L 135.572471 73.35576 
L 136.314767 74.0988 
L 137.057062 75.5952 
L 137.799357 75.5952 
L 138.541652 77.61792 
L 139.283947 77.63856 
L 140.026242 75.40944 
L 140.768537 75.40944 
L 141.510833 75.04824 
L 142.253128 74.98632 
L 142.995423 75.58488 
L 143.737718 75.87384 
L 144.480013 76.49304 
L 145.964604 75.82224 
L 146.706899 75.84288 
L 147.449194 76.03896 
L 148.191489 75.51264 
L 148.933784 75.56424 
L 149.676079 75.05856 
L 150.418374 73.26288 
L 151.16067 73.20096 
L 151.902965 73.00488 
L 152.64526 71.68392 
L 153.387555 70.6932 
L 154.12985 72.62304 
L 154.872145 73.52088 
L 155.614441 73.83048 
L 156.356736 73.8408 
L 157.099031 73.29384 
L 157.841326 73.72728 
L 158.583621 70.32168 
L 159.325916 69.77472 
L 160.068211 70.34232 
L 160.810507 70.67256 
L 161.552802 70.51776 
L 162.295097 70.848 
L 163.037392 72.31344 
L 163.779687 76.01832 
L 164.521982 75.41976 
L 165.264278 75.83256 
L 166.748868 75.82224 
L 167.491163 77.82432 
L 168.233458 76.14216 
L 168.975753 74.75928 
L 169.718048 74.96568 
L 170.460344 77.75208 
L 171.202639 79.48584 
L 171.944934 83.31456 
L 172.687229 85.90488 
L 173.429524 84.79032 
L 174.056188 85.84296 
L 175.387998 91.41576 
L 176.127114 88.7532 
L 177.622547 88.55712 
L 178.369078 88.96992 
L 179.849458 90.456 
L 180.59153 90.56952 
L 181.324899 89.15568 
L 182.028026 88.9596 
L 182.817934 90.6624 
L 183.466987 89.94 
L 184.301347 90.00192 
L 185.780697 90.62112 
L 187.269231 90.3528 
L 188.01376 92.004 
L 188.693346 92.13816 
L 189.495678 91.25064 
L 190.234666 89.166 
L 190.975552 89.56848 
L 191.709101 90.93072 
L 192.468261 89.41368 
L 193.202893 90.37344 
L 193.946915 89.79552 
L 194.685051 90.23928 
L 195.428945 88.0824 
L 196.170888 88.7532 
L 196.907487 90.16704 
L 197.65699 90.67272 
L 198.40151 90.18768 
L 199.139037 89.2692 
L 199.88104 89.54784 
L 200.626256 89.49624 
L 201.367117 88.31976 
L 202.108424 88.45392 
L 202.864921 88.46424 
L 203.609312 86.38992 
L 204.338617 84.80064 
L 205.086574 84.8316 
L 205.829075 86.586 
L 206.564145 87.74184 
L 207.302093 87.618 
L 208.055488 88.19592 
L 208.799528 89.08344 
L 209.53495 87.89664 
L 210.33253 87.3084 
L 211.028569 87.65928 
L 212.507 90.07416 
L 214.003824 89.3724 
L 214.741437 89.00088 
L 215.490098 88.42296 
L 216.965762 89.10408 
L 217.7017 89.14536 
L 218.455172 89.07312 
L 219.199383 87.9792 
L 219.936859 88.29912 
L 220.680357 86.38992 
L 221.420066 87.24648 
L 222.169191 87.1536 
L 222.900137 86.21448 
L 224.40185 87.01944 
L 225.13942 84.44976 
L 225.881148 85.05864 
L 226.626656 84.58392 
L 227.367439 85.04832 
L 228.101547 83.71704 
L 228.853645 84.86256 
L 229.597779 85.6572 
L 230.336818 85.27536 
L 231.07681 84.49104 
L 232.566375 85.32696 
L 233.299812 85.17216 
L 234.053654 85.31664 
L 234.803948 84.11952 
L 235.547798 85.66752 
L 236.288066 85.26504 
L 237.031607 86.26608 
L 238.505363 85.38888 
L 239.262728 85.3992 
L 240.004765 84.09888 
L 241.486082 84.34656 
L 242.958516 85.7604 
L 243.703526 85.0896 
L 245.208933 84.9348 
L 245.940919 85.296 
L 246.686745 85.35792 
L 247.428215 86.1732 
L 248.17417 85.92552 
L 249.660367 87.13296 
L 250.40987 88.10304 
L 251.146847 87.9276 
L 251.891797 88.26816 
L 252.638319 87.78312 
L 253.374927 87.95856 
L 254.107024 88.94928 
L 254.861073 88.14432 
L 256.344185 88.52616 
L 257.094101 88.86672 
L 257.834025 90.22896 
L 258.57687 89.82648 
L 259.30846 89.87808 
L 260.06591 89.46528 
L 260.819185 90.0432 
L 261.554178 89.96064 
L 262.304824 91.99368 
L 263.044576 93.05664 
L 263.774646 93.74808 
L 264.505531 97.02984 
L 265.263781 95.93592 
L 266.009358 95.07936 
L 266.737486 94.46016 
L 267.487479 95.47152 
L 268.979337 94.82136 
L 269.716203 94.8936 
L 270.463885 94.70784 
L 271.977385 93.40752 
L 272.696037 92.9844 
L 273.434775 93.93384 
L 274.194554 94.4292 
L 275.664908 93.87192 
L 276.428931 93.81 
L 277.126851 94.03704 
L 278.613899 95.48184 
L 279.36 96.63768 
L 279.36 96.63768 
" clip-path="url(#pdbda11b390)" style="fill: none; stroke: #4a8dff; stroke-width: 0.6"/>
   </g>
   <g id="line2d_7">
    <path d="M 8.64 65.59512 
L 9.382295 65.86344 
L 10.12459 65.76024 
L 10.866885 65.50224 
L 11.609181 64.398 
L 12.351476 65.70864 
L 13.093771 67.2876 
L 13.836066 63.95424 
L 14.578361 63.14928 
L 15.320656 64.76952 
L 16.062952 64.58376 
L 16.805247 63.55176 
L 17.547542 64.5012 
L 18.289837 63.82008 
L 19.032132 61.36392 
L 19.774427 56.64768 
L 20.516722 54.89328 
L 21.259018 55.04808 
L 22.001313 53.29368 
L 22.743608 52.55064 
L 23.485903 54.77976 
L 24.228198 53.67552 
L 24.970493 52.95312 
L 25.712789 54.45984 
L 26.455084 54.55272 
L 27.197379 55.22352 
L 27.939674 54.98616 
L 28.681969 52.4268 
L 29.424264 53.79936 
L 30.166559 54.08832 
L 30.908855 54.92424 
L 31.65115 54.4908 
L 32.393445 52.98408 
L 33.13574 54.44952 
L 33.878035 54.60432 
L 34.62033 54.62496 
L 36.104921 59.38248 
L 36.847216 60.09456 
L 37.589511 58.39176 
L 38.331806 57.41136 
L 39.074101 58.464 
L 39.816396 57.5352 
L 40.558692 55.0068 
L 41.300987 55.81176 
L 42.043282 55.99752 
L 42.785577 53.13888 
L 43.527872 53.64456 
L 44.270167 52.1688 
L 45.012463 48.69096 
L 45.754758 54.0264 
L 46.497053 55.13064 
L 47.239348 54.96552 
L 47.981643 54.92424 
L 48.723938 56.25552 
L 49.466233 59.8572 
L 50.208529 58.32984 
L 50.950824 60.23904 
L 51.693119 55.65696 
L 52.435414 57.18432 
L 53.177709 59.21736 
L 53.920004 62.55072 
L 54.6623 60.82728 
L 55.404595 61.47744 
L 56.14689 60.12552 
L 56.889185 64.31544 
L 57.63148 63.99552 
L 58.373775 64.5528 
L 59.11607 63.60336 
L 59.858366 61.5084 
L 60.600661 60.96144 
L 61.342956 61.98312 
L 62.085251 62.05536 
L 62.827546 62.51976 
L 64.312137 60.64152 
L 65.054432 61.13688 
L 65.796727 58.6188 
L 66.539022 57.03984 
L 67.281317 56.35872 
L 68.023612 56.5548 
L 68.765907 57.174 
L 69.508203 57.14304 
L 70.250498 55.7292 
L 70.992793 56.04912 
L 71.735088 55.33704 
L 72.477383 56.87472 
L 73.219678 56.8128 
L 73.961974 57.24624 
L 74.704269 59.93976 
L 75.446564 60.64152 
L 76.188859 59.29992 
L 76.931154 63.80976 
L 77.673449 63.03576 
L 78.415745 63.09768 
L 79.900335 58.27824 
L 80.64263 58.5672 
L 81.384925 53.93352 
L 82.12722 51.74568 
L 82.869515 50.04288 
L 83.611811 49.90872 
L 85.096401 47.43192 
L 85.838696 50.80656 
L 86.580991 48.90768 
L 87.323286 50.6208 
L 88.065582 59.42376 
L 88.807877 61.85928 
L 89.550172 57.35976 
L 90.292467 57.3288 
L 91.034762 59.46504 
L 92.519352 64.72824 
L 93.261648 66.42072 
L 94.003943 65.688 
L 94.746238 64.17096 
L 95.488533 62.10696 
L 96.230828 64.30512 
L 96.973123 65.20296 
L 97.715419 62.68488 
L 98.457714 61.70448 
L 99.200009 61.06464 
L 99.942304 58.1028 
L 100.684599 58.40208 
L 101.426894 59.68176 
L 102.169189 62.6952 
L 102.911485 64.56312 
L 103.65378 63.18024 
L 104.396075 62.72616 
L 105.13837 62.06568 
L 105.880665 66.33816 
L 106.62296 71.40528 
L 107.365256 69.08328 
L 108.107551 71.7252 
L 108.849846 69.57864 
L 109.592141 70.72416 
L 110.334436 68.2164 
L 111.076731 66.978 
L 111.819026 70.03272 
L 112.561322 71.5188 
L 113.303617 73.3764 
L 114.045912 78.846 
L 114.788207 77.75208 
L 115.530502 78.88728 
L 116.272797 81.34344 
L 117.015093 80.53848 
L 117.757388 82.0452 
L 118.499683 86.92656 
L 119.241978 88.58808 
L 119.984273 88.96992 
L 120.726568 86.7924 
L 121.468863 85.296 
L 122.211159 86.24544 
L 122.953454 82.96368 
L 123.695749 82.13808 
L 124.438044 82.47864 
L 125.180339 82.58184 
L 125.922634 83.03592 
L 126.66493 87.3084 
L 127.407225 82.06584 
L 128.14952 79.71288 
L 128.891815 81.24024 
L 129.63411 84.17112 
L 130.376405 84.24336 
L 131.1187 83.29392 
L 131.860996 82.8192 
L 132.603291 80.64168 
L 133.345586 81.38472 
L 134.087881 80.87904 
L 134.830176 83.13912 
L 135.572471 83.19072 
L 137.057062 87.17424 
L 137.799357 85.71912 
L 138.541652 87.53544 
L 139.283947 88.17528 
L 140.026242 85.41984 
L 141.510833 84.9348 
L 142.253128 85.01736 
L 142.995423 86.14224 
L 143.737718 85.90488 
L 144.480013 86.328 
L 145.222308 86.24544 
L 145.964604 85.72944 
L 146.706899 85.7088 
L 147.449194 86.40024 
L 148.191489 85.09992 
L 148.933784 86.02872 
L 150.418374 83.53128 
L 151.902965 82.03488 
L 152.64526 79.39296 
L 153.387555 79.66128 
L 154.12985 82.15872 
L 154.872145 82.43736 
L 155.614441 82.93272 
L 156.356736 83.00496 
L 157.841326 82.28256 
L 158.583621 78.01008 
L 159.325916 76.19376 
L 160.068211 77.66952 
L 160.810507 77.74176 
L 161.552802 78.1752 
L 163.037392 80.8068 
L 163.779687 85.20312 
L 164.521982 84.12984 
L 165.264278 84.03696 
L 166.006573 84.06792 
L 166.748868 84.3156 
L 167.491163 87.02976 
L 168.233458 85.21344 
L 168.975753 84.28464 
L 169.718048 84.32592 
L 170.460344 89.08344 
L 171.202639 89.5272 
L 171.944934 95.14128 
L 172.687229 96.98856 
L 173.429524 95.08968 
L 174.646081 99.80592 
L 175.387998 101.79768 
L 176.127114 100.03296 
L 176.886377 100.518 
L 177.622547 99.98136 
L 178.369078 100.49736 
L 180.59153 101.26104 
L 181.324899 100.63152 
L 182.028026 100.38384 
L 182.817934 100.84824 
L 183.466987 100.65216 
L 184.301347 101.034 
L 185.042741 101.19912 
L 187.269231 100.91016 
L 188.01376 101.7564 
L 188.693346 101.84928 
L 189.495678 101.56032 
L 190.234666 100.85856 
L 191.709101 101.4468 
L 192.468261 101.02368 
L 193.202893 101.30232 
L 193.946915 100.81728 
L 194.685051 100.79664 
L 195.428945 99.3312 
L 196.170888 99.92976 
L 196.907487 100.78632 
L 197.65699 101.17848 
L 198.40151 101.1372 
L 199.139037 100.21872 
L 200.626256 100.4664 
L 201.367117 99.88848 
L 202.108424 99.94008 
L 202.864921 99.81624 
L 203.609312 98.93904 
L 204.338617 98.3508 
L 205.086574 98.52624 
L 205.829075 99.78528 
L 206.564145 100.12584 
L 207.302093 100.03296 
L 208.799528 100.83792 
L 209.53495 100.11552 
L 210.33253 99.87816 
L 211.028569 100.002 
L 212.507 101.41584 
L 213.259407 101.21976 
L 214.741437 101.00304 
L 215.490098 100.86888 
L 216.222617 101.21976 
L 216.965762 101.28168 
L 218.455172 101.14752 
L 219.199383 100.55928 
L 219.936859 100.65216 
L 220.680357 99.80592 
L 221.420066 99.96072 
L 222.169191 99.6408 
L 222.900137 99.1764 
L 223.655749 99.70272 
L 224.40185 99.94008 
L 225.13942 98.57784 
L 225.881148 98.65008 
L 226.626656 98.38176 
L 227.367439 98.48496 
L 228.101547 96.70992 
L 228.853645 98.05152 
L 229.597779 98.48496 
L 230.336818 97.96896 
L 231.07681 96.32808 
L 232.566375 96.16296 
L 233.299812 96.1836 
L 234.053654 96.50352 
L 234.803948 94.76976 
L 235.547798 97.19496 
L 236.288066 96.9576 
L 237.031607 97.9896 
L 237.782012 96.89568 
L 238.505363 95.45088 
L 239.262728 95.67792 
L 240.004765 93.43848 
L 241.486082 92.25168 
L 242.228575 92.87088 
L 242.958516 94.2744 
L 243.703526 93.1392 
L 244.460779 92.97408 
L 245.208933 92.9844 
L 245.940919 92.60256 
L 246.686745 92.53032 
L 247.428215 94.54272 
L 248.17417 92.85024 
L 248.906989 94.82136 
L 249.660367 95.75016 
L 250.40987 96.97824 
L 251.891797 97.23624 
L 252.638319 95.94624 
L 253.374927 96.30744 
L 254.107024 98.08248 
L 255.613136 96.61704 
L 256.344185 97.23624 
L 257.094101 98.08248 
L 257.834025 99.18672 
L 258.57687 99.03192 
L 259.30846 99.1248 
L 260.06591 98.74296 
L 260.819185 99.09384 
L 261.554178 100.0536 
L 262.304824 101.23008 
L 263.044576 101.99376 
L 263.774646 102.08664 
L 264.505531 102.8916 
L 265.263781 102.45816 
L 266.737486 102.10728 
L 267.487479 102.582 
L 268.979337 102.08664 
L 269.716203 102.066 
L 270.463885 101.86992 
L 271.230854 101.48808 
L 271.977385 101.40552 
L 272.696037 101.4984 
L 273.434775 101.97312 
L 274.194554 102.26208 
L 275.664908 101.90088 
L 276.428931 101.90088 
L 277.126851 102.0144 
L 277.871801 102.25176 
L 278.613899 102.6336 
L 279.36 102.88128 
L 279.36 102.88128 
" clip-path="url(#pdbda11b390)" style="fill: none; stroke: #f5841e; stroke-width: 0.6"/>
   </g>
  </g>
 </g>
 <defs>
  <clipPath id="pdbda11b390">
   <rect x="8.64" y="4.8" width="270.72" height="103.2"/>
  </clipPath>
 </defs>
</svg>
