<?xml version="1.0" encoding="utf-8" standalone="no"?>
<!DOCTYPE svg PUBLIC "-//W3C//DTD SVG 1.1//EN"
  "http://www.w3.org/Graphics/SVG/1.1/DTD/svg11.dtd">
<svg xmlns:xlink="http://www.w3.org/1999/xlink" width="288pt" height="120pt" viewBox="0 0 288 120" xmlns="http://www.w3.org/2000/svg" version="1.1">
<desc id="nav-meta">{"window":"3m","count":4,"labels":["15.12","14.01","13.02","15.03"],"tick_utc":["2025-12-15T12:00:00Z","2026-01-14T12:00:00Z","2026-02-13T03:33:47Z","2026-03-15T03:42:35Z"],"w":720,"h":300}</desc>

 <metadata>
  <rdf:RDF xmlns:dc="http://purl.org/dc/elements/1.1/" xmlns:cc="http://creativecommons.org/ns#" xmlns:rdf="http://www.w3.org/1999/02/22-rdf-syntax-ns#">
   <cc:Work>
    <dc:type rdf:resource="http://purl.org/dc/dcmitype/StillImage"/>
    <dc:date>2026-03-15T03:42:37.216812</dc:date>
    <dc:format>image/svg+xml</dc:format>
    <dc:creator>
     <cc:Agent>
      <dc:title>Matplotlib v3.10.8, https://matplotlib.org/</dc:title>
     </cc:Agent>
    </dc:creator>
   </cc:Work>
  </rdf:RDF>
 </metadata>
 <defs>
  <style type="text/css">*{stroke-linejoin: round; stroke-linecap: butt}</style>
 </defs>
 <g id="figure_1">
  <g id="patch_1">
   <path d="M 0 120 
L 288 120 
L 288 0 
L 0 0 
L 0 120 
z
" style="fill: none; opacity: 0"/>
  </g>
  <g id="axes_1">
   <g id="patch_2">
    <path d="M 8.64 108 
L 279.36 108 
L 279.36 4.8 
L 8.64 4.8 
L 8.64 108 
z
" style="fill: none"/>
   </g>
   <g id="matplotlib.axis_1"/>
   <g id="matplotlib.axis_2"/>
   <g id="line2d_1">
    <path d="M 8.64 87.36 
L 279.36 87.36 
" clip-path="url(#pda03b054cc)" style="fill: none; stroke: #b2b2b2; stroke-opacity: 0.35; stroke-width: 0.5; stroke-linecap: square"/>
   </g>
   <g id="line2d_2">
    <path d="M 8.64 66.72 
L 279.36 66.72 
" clip-path="url(#pda03b054cc)" style="fill: none; stroke: #b2b2b2; stroke-opacity: 0.35; stroke-width: 0.5; stroke-linecap: square"/>
   </g>
   <g id="line2d_3">
    <path d="M 8.64 46.08 
L 279.36 46.08 
" clip-path="url(#pda03b054cc)" style="fill: none; stroke: #b2b2b2; stroke-opacity: 0.35; stroke-width: 0.5; stroke-linecap: square"/>
   </g>
   <g id="line2d_4">
    <path d="M 8.64 25.44 
L 279.36 25.44 
" clip-path="url(#pda03b054cc)" style="fill: none; stroke: #b2b2b2; stroke-opacity: 0.35; stroke-width: 0.5; stroke-linecap: square"/>
   </g>
   <g id="line2d_5">
    <path d="M 8.64 91.09584 
L 11.659589 91.61184 
L 14.679179 91.31256 
L 17.698768 92.87088 
L 20.718358 93.8616 
L 23.737947 92.02464 
L 26.757537 92.13816 
L 29.777126 92.07624 
L 32.796716 92.14848 
L 35.816305 92.64384 
L 38.835895 93.01536 
L 41.855484 93.69648 
L 44.875074 93.11856 
L 47.894663 92.44776 
L 50.914252 92.30328 
L 53.933842 92.87088 
L 56.953431 92.38584 
L 59.973021 92.47872 
L 62.99261 91.88016 
L 66.0122 90.42504 
L 69.031789 90.08448 
L 72.051379 89.92968 
L 75.070968 88.76352 
L 78.090558 87.94824 
L 81.110147 89.2692 
L 84.129737 88.72224 
L 87.149326 89.39304 
L 90.168915 89.40336 
L 93.188505 88.41264 
L 96.208094 88.4952 
L 99.227684 86.86464 
L 102.247273 86.42088 
L 105.266863 87.62832 
L 108.286452 86.93688 
L 111.306042 87.23616 
L 114.325631 88.63968 
L 117.345221 90.0432 
L 120.36481 92.12784 
L 123.3844 91.16808 
L 126.403989 91.46736 
L 129.423578 91.73568 
L 132.443168 91.78728 
L 135.462757 94.0164 
L 138.482347 92.5716 
L 141.501936 91.76664 
L 144.521526 92.33424 
L 147.541115 94.36728 
L 150.560705 94.46016 
L 153.580294 97.71096 
L 156.599884 98.48496 
L 159.619473 97.85544 
L 162.168685 99.10416 
L 164.568315 100.16712 
L 167.586366 102.23112 
L 170.593025 100.54896 
L 173.681638 100.70376 
L 176.676309 100.68312 
L 179.713128 100.95144 
L 182.726462 101.28168 
L 185.735182 101.71512 
L 188.753863 101.84928 
L 191.737141 101.034 
L 194.597398 100.54896 
L 197.810674 101.04432 
L 200.450963 100.81728 
L 203.845065 101.034 
L 206.860985 101.4984 
L 209.862925 101.33328 
L 212.864062 101.1372 
L 215.918146 101.06496 
L 218.946822 102.09696 
L 221.711319 102.05568 
L 224.975132 101.4984 
L 227.981266 100.60056 
L 230.995124 100.80696 
L 233.979135 101.45712 
L 237.067329 100.55928 
L 240.055744 101.10624 
L 243.082359 100.8792 
L 246.085033 100.74504 
L 249.111123 100.21872 
L 252.129279 100.53864 
L 255.125698 101.07528 
L 258.174609 101.38488 
L 261.203251 101.26104 
L 264.203443 100.78632 
L 267.221844 100.91016 
L 270.253317 100.99272 
L 273.26707 100.38384 
L 276.28264 100.50768 
L 279.36 100.60056 
" clip-path="url(#pda03b054cc)" style="fill: none; stroke: #bebebe; stroke-width: 0.5; stroke-linecap: round"/>
   </g>
   <g id="line2d_6">
    <path d="M 8.64 74.0988 
L 11.659589 75.5952 
L 14.679179 75.5952 
L 17.698768 77.61792 
L 20.718358 77.63856 
L 23.737947 75.40944 
L 26.757537 75.40944 
L 29.777126 75.04824 
L 32.796716 74.98632 
L 35.816305 75.58488 
L 38.835895 75.87384 
L 41.855484 76.49304 
L 44.875074 76.15248 
L 47.894663 75.82224 
L 50.914252 75.84288 
L 53.933842 76.03896 
L 56.953431 75.51264 
L 59.973021 75.56424 
L 62.99261 75.05856 
L 66.0122 73.26288 
L 69.031789 73.20096 
L 72.051379 73.00488 
L 75.070968 71.68392 
L 78.090558 70.6932 
L 81.110147 72.62304 
L 84.129737 73.52088 
L 87.149326 73.83048 
L 90.168915 73.8408 
L 93.188505 73.29384 
L 96.208094 73.72728 
L 99.227684 70.32168 
L 102.247273 69.77472 
L 105.266863 70.34232 
L 108.286452 70.67256 
L 111.306042 70.51776 
L 114.325631 70.848 
L 117.345221 72.31344 
L 120.36481 76.01832 
L 123.3844 75.41976 
L 126.403989 75.83256 
L 129.423578 75.79128 
L 132.443168 75.82224 
L 135.462757 77.82432 
L 138.482347 76.14216 
L 141.501936 74.75928 
L 144.521526 74.96568 
L 147.541115 77.75208 
L 150.560705 79.48584 
L 153.580294 83.31456 
L 156.599884 85.90488 
L 159.619473 84.79032 
L 162.168685 85.84296 
L 164.568315 88.25784 
L 167.586366 91.41576 
L 170.593025 88.7532 
L 173.681638 88.65 
L 176.676309 88.55712 
L 179.713128 88.96992 
L 182.726462 89.7336 
L 185.735182 90.456 
L 188.753863 90.56952 
L 191.737141 89.15568 
L 194.597398 88.9596 
L 197.810674 90.6624 
L 200.450963 89.94 
L 203.845065 90.00192 
L 206.860985 90.3528 
L 209.862925 90.62112 
L 212.864062 90.5076 
L 215.918146 90.3528 
L 218.946822 92.004 
L 221.711319 92.13816 
L 224.975132 91.25064 
L 227.981266 89.166 
L 230.995124 89.56848 
L 233.979135 90.93072 
L 237.067329 89.41368 
L 240.055744 90.37344 
L 243.082359 89.79552 
L 246.085033 90.23928 
L 249.111123 88.0824 
L 252.129279 88.7532 
L 255.125698 90.16704 
L 258.174609 90.67272 
L 261.203251 90.18768 
L 264.203443 89.2692 
L 267.221844 89.54784 
L 270.253317 89.49624 
L 273.26707 88.31976 
L 276.28264 88.45392 
L 279.36 88.46424 
" clip-path="url(#pda03b054cc)" style="fill: none; stroke: #4a8dff; stroke-width: 0.6"/>
   </g>
   <g id="line2d_7">
    <path d="M 8.64 85.296 
L 11.659589 87.17424 
L 14.679179 85.71912 
L 17.698768 87.53544 
L 20.718358 88.17528 
L 23.737947 85.41984 
L 26.757537 85.17216 
L 29.777126 84.9348 
L 32.796716 85.01736 
L 35.816305 86.14224 
L 38.835895 85.90488 
L 41.855484 86.328 
L 44.875074 86.24544 
L 47.894663 85.72944 
L 50.914252 85.7088 
L 53.933842 86.40024 
L 56.953431 85.09992 
L 59.973021 86.02872 
L 62.99261 84.78 
L 66.0122 83.53128 
L 69.031789 82.83984 
L 72.051379 82.03488 
L 75.070968 79.39296 
L 78.090558 79.66128 
L 81.110147 82.15872 
L 84.129737 82.43736 
L 87.149326 82.93272 
L 90.168915 83.00496 
L 93.188505 82.6128 
L 96.208094 82.28256 
L 99.227684 78.01008 
L 102.247273 76.19376 
L 105.266863 77.66952 
L 108.286452 77.74176 
L 111.306042 78.1752 
L 114.325631 79.5684 
L 117.345221 80.8068 
L 120.36481 85.20312 
L 123.3844 84.12984 
L 126.403989 84.03696 
L 129.423578 84.06792 
L 132.443168 84.3156 
L 135.462757 87.02976 
L 138.482347 85.21344 
L 141.501936 84.28464 
L 144.521526 84.32592 
L 147.541115 89.08344 
L 150.560705 89.5272 
L 153.580294 95.14128 
L 156.599884 96.98856 
L 159.619473 95.08968 
L 162.168685 97.71096 
L 164.568315 99.80592 
L 167.586366 101.79768 
L 170.593025 100.03296 
L 173.681638 100.518 
L 176.676309 99.98136 
L 179.713128 100.49736 
L 182.726462 100.78632 
L 185.735182 101.07528 
L 188.753863 101.26104 
L 191.737141 100.63152 
L 194.597398 100.38384 
L 197.810674 100.84824 
L 200.450963 100.65216 
L 203.845065 101.034 
L 206.860985 101.19912 
L 209.862925 101.10624 
L 212.864062 100.97208 
L 215.918146 100.91016 
L 218.946822 101.7564 
L 221.711319 101.84928 
L 224.975132 101.56032 
L 227.981266 100.85856 
L 230.995124 101.12688 
L 233.979135 101.4468 
L 237.067329 101.02368 
L 240.055744 101.30232 
L 243.082359 100.81728 
L 246.085033 100.79664 
L 249.111123 99.3312 
L 252.129279 99.92976 
L 255.125698 100.78632 
L 258.174609 101.17848 
L 261.203251 101.1372 
L 264.203443 100.21872 
L 267.221844 100.37352 
L 270.253317 100.4664 
L 273.26707 99.88848 
L 276.28264 99.94008 
L 279.36 99.81624 
" clip-path="url(#pda03b054cc)" style="fill: none; stroke: #f5841e; stroke-width: 0.6"/>
   </g>
  </g>
 </g>
 <defs>
  <clipPath id="pda03b054cc">
   <rect x="8.64" y="4.8" width="270.72" height="103.2"/>
  </clipPath>
 </defs>
</svg>
