<?xml version="1.0" encoding="utf-8" standalone="no"?>
<!DOCTYPE svg PUBLIC "-//W3C//DTD SVG 1.1//EN"
  "http://www.w3.org/Graphics/SVG/1.1/DTD/svg11.dtd">
<svg xmlns:xlink="http://www.w3.org/1999/xlink" width="288pt" height="120pt" viewBox="0 0 288 120" xmlns="http://www.w3.org/2000/svg" version="1.1">
<desc id="nav-meta">{"window":"1m","count":4,"labels":["17.01","27.01","05.02","15.02"],"tick_utc":["2026-01-17T12:00:00Z","2026-01-27T12:00:00Z","2026-02-05T03:20:02Z","2026-02-15T02:00:29Z"],"w":720,"h":300}</desc>

 <metadata>
  <rdf:RDF xmlns:dc="http://purl.org/dc/elements/1.1/" xmlns:cc="http://creativecommons.org/ns#" xmlns:rdf="http://www.w3.org/1999/02/22-rdf-syntax-ns#">
   <cc:Work>
    <dc:type rdf:resource="http://purl.org/dc/dcmitype/StillImage"/>
    <dc:date>2026-02-15T19:05:30.280463</dc:date>
    <dc:format>image/svg+xml</dc:format>
    <dc:creator>
     <cc:Agent>
      <dc:title>Matplotlib v3.10.8, https://matplotlib.org/</dc:title>
     </cc:Agent>
    </dc:creator>
   </cc:Work>
  </rdf:RDF>
 </metadata>
 <defs>
  <style type="text/css">*{stroke-linejoin: round; stroke-linecap: butt}</style>
 </defs>
 <g id="figure_1">
  <g id="patch_1">
   <path d="M 0 120 
L 288 120 
L 288 0 
L 0 0 
L 0 120 
z
" style="fill: none; opacity: 0"/>
  </g>
  <g id="axes_1">
   <g id="patch_2">
    <path d="M 8.64 108 
L 279.36 108 
L 279.36 4.8 
L 8.64 4.8 
L 8.64 108 
z
" style="fill: none"/>
   </g>
   <g id="matplotlib.axis_1"/>
   <g id="matplotlib.axis_2"/>
   <g id="line2d_1">
    <path d="M 8.64 87.36 
L 279.36 87.36 
" clip-path="url(#p1d0ec8c454)" style="fill: none; stroke: #b2b2b2; stroke-opacity: 0.35; stroke-width: 0.5; stroke-linecap: square"/>
   </g>
   <g id="line2d_2">
    <path d="M 8.64 66.72 
L 279.36 66.72 
" clip-path="url(#p1d0ec8c454)" style="fill: none; stroke: #b2b2b2; stroke-opacity: 0.35; stroke-width: 0.5; stroke-linecap: square"/>
   </g>
   <g id="line2d_3">
    <path d="M 8.64 46.08 
L 279.36 46.08 
" clip-path="url(#p1d0ec8c454)" style="fill: none; stroke: #b2b2b2; stroke-opacity: 0.35; stroke-width: 0.5; stroke-linecap: square"/>
   </g>
   <g id="line2d_4">
    <path d="M 8.64 25.44 
L 279.36 25.44 
" clip-path="url(#p1d0ec8c454)" style="fill: none; stroke: #b2b2b2; stroke-opacity: 0.35; stroke-width: 0.5; stroke-linecap: square"/>
   </g>
   <g id="line2d_5">
    <path d="M 8.64 86.93688 
L 18.111142 87.23616 
L 27.582285 88.63968 
L 37.053427 90.0432 
L 46.52457 92.12784 
L 55.995712 91.16808 
L 65.466855 91.46736 
L 74.937997 91.73568 
L 84.409139 91.78728 
L 93.880282 94.0164 
L 103.351424 92.5716 
L 112.822567 91.76664 
L 122.293709 92.33424 
L 131.764852 94.36728 
L 141.235994 94.46016 
L 150.707136 97.71096 
L 160.178279 98.48496 
L 169.649421 97.85544 
L 177.645192 99.10416 
L 185.171791 100.16712 
L 194.63811 102.23112 
L 204.068693 100.54896 
L 213.756334 100.70376 
L 223.149318 100.68312 
L 232.674503 100.95144 
L 242.126023 101.28168 
L 251.563074 101.71512 
L 261.031366 101.84928 
L 270.388614 101.034 
L 279.36 100.54896 
" clip-path="url(#p1d0ec8c454)" style="fill: none; stroke: #bebebe; stroke-width: 0.5; stroke-linecap: round"/>
   </g>
   <g id="line2d_6">
    <path d="M 8.64 70.67256 
L 18.111142 70.51776 
L 27.582285 70.848 
L 37.053427 72.31344 
L 46.52457 76.01832 
L 55.995712 75.41976 
L 65.466855 75.83256 
L 74.937997 75.79128 
L 84.409139 75.82224 
L 93.880282 77.82432 
L 103.351424 76.14216 
L 112.822567 74.75928 
L 122.293709 74.96568 
L 131.764852 77.75208 
L 141.235994 79.48584 
L 150.707136 83.31456 
L 160.178279 85.90488 
L 169.649421 84.79032 
L 177.645192 85.84296 
L 185.171791 88.25784 
L 194.63811 91.41576 
L 204.068693 88.7532 
L 213.756334 88.65 
L 223.149318 88.55712 
L 232.674503 88.96992 
L 242.126023 89.7336 
L 251.563074 90.456 
L 261.031366 90.56952 
L 270.388614 89.15568 
L 279.36 88.9596 
" clip-path="url(#p1d0ec8c454)" style="fill: none; stroke: #4a8dff; stroke-width: 0.6"/>
   </g>
   <g id="line2d_7">
    <path d="M 8.64 77.74176 
L 18.111142 78.1752 
L 27.582285 79.5684 
L 37.053427 80.8068 
L 46.52457 85.20312 
L 55.995712 84.12984 
L 65.466855 84.03696 
L 74.937997 84.06792 
L 84.409139 84.3156 
L 93.880282 87.02976 
L 103.351424 85.21344 
L 112.822567 84.28464 
L 122.293709 84.32592 
L 131.764852 89.08344 
L 141.235994 89.5272 
L 150.707136 95.14128 
L 160.178279 96.98856 
L 169.649421 95.08968 
L 177.645192 97.71096 
L 185.171791 99.80592 
L 194.63811 101.79768 
L 204.068693 100.03296 
L 213.756334 100.518 
L 223.149318 99.98136 
L 232.674503 100.49736 
L 242.126023 100.78632 
L 251.563074 101.07528 
L 261.031366 101.26104 
L 270.388614 100.63152 
L 279.36 100.38384 
" clip-path="url(#p1d0ec8c454)" style="fill: none; stroke: #f5841e; stroke-width: 0.6"/>
   </g>
  </g>
 </g>
 <defs>
  <clipPath id="p1d0ec8c454">
   <rect x="8.64" y="4.8" width="270.72" height="103.2"/>
  </clipPath>
 </defs>
</svg>
