<?xml version="1.0" encoding="utf-8" standalone="no"?>
<!DOCTYPE svg PUBLIC "-//W3C//DTD SVG 1.1//EN"
  "http://www.w3.org/Graphics/SVG/1.1/DTD/svg11.dtd">
<svg xmlns:xlink="http://www.w3.org/1999/xlink" width="288pt" height="120pt" viewBox="0 0 288 120" xmlns="http://www.w3.org/2000/svg" version="1.1">
<desc id="nav-meta">{"window":"3m","count":4,"labels":["28.12","27.01","25.02","27.03"],"tick_utc":["2025-12-28T12:00:00Z","2026-01-27T12:00:00Z","2026-02-25T03:27:12Z","2026-03-27T03:41:18Z"],"w":720,"h":300}</desc>

 <metadata>
  <rdf:RDF xmlns:dc="http://purl.org/dc/elements/1.1/" xmlns:cc="http://creativecommons.org/ns#" xmlns:rdf="http://www.w3.org/1999/02/22-rdf-syntax-ns#">
   <cc:Work>
    <dc:type rdf:resource="http://purl.org/dc/dcmitype/StillImage"/>
    <dc:date>2026-03-27T19:28:54.322612</dc:date>
    <dc:format>image/svg+xml</dc:format>
    <dc:creator>
     <cc:Agent>
      <dc:title>Matplotlib v3.10.8, https://matplotlib.org/</dc:title>
     </cc:Agent>
    </dc:creator>
   </cc:Work>
  </rdf:RDF>
 </metadata>
 <defs>
  <style type="text/css">*{stroke-linejoin: round; stroke-linecap: butt}</style>
 </defs>
 <g id="figure_1">
  <g id="patch_1">
   <path d="M 0 120 
L 288 120 
L 288 0 
L 0 0 
L 0 120 
z
" style="fill: none; opacity: 0"/>
  </g>
  <g id="axes_1">
   <g id="patch_2">
    <path d="M 8.64 108 
L 279.36 108 
L 279.36 4.8 
L 8.64 4.8 
L 8.64 108 
z
" style="fill: none"/>
   </g>
   <g id="matplotlib.axis_1"/>
   <g id="matplotlib.axis_2"/>
   <g id="line2d_1">
    <path d="M 8.64 87.36 
L 279.36 87.36 
" clip-path="url(#pfa8f381fbd)" style="fill: none; stroke: #b2b2b2; stroke-opacity: 0.35; stroke-width: 0.5; stroke-linecap: square"/>
   </g>
   <g id="line2d_2">
    <path d="M 8.64 66.72 
L 279.36 66.72 
" clip-path="url(#pfa8f381fbd)" style="fill: none; stroke: #b2b2b2; stroke-opacity: 0.35; stroke-width: 0.5; stroke-linecap: square"/>
   </g>
   <g id="line2d_3">
    <path d="M 8.64 46.08 
L 279.36 46.08 
" clip-path="url(#pfa8f381fbd)" style="fill: none; stroke: #b2b2b2; stroke-opacity: 0.35; stroke-width: 0.5; stroke-linecap: square"/>
   </g>
   <g id="line2d_4">
    <path d="M 8.64 25.44 
L 279.36 25.44 
" clip-path="url(#pfa8f381fbd)" style="fill: none; stroke: #b2b2b2; stroke-opacity: 0.35; stroke-width: 0.5; stroke-linecap: square"/>
   </g>
   <g id="line2d_5">
    <path d="M 8.64 92.44776 
L 11.69368 92.30328 
L 14.747361 92.87088 
L 17.801041 92.38584 
L 20.854721 92.47872 
L 23.908402 91.88016 
L 26.962082 90.42504 
L 30.015762 90.08448 
L 33.069443 89.92968 
L 36.123123 88.76352 
L 39.176803 87.94824 
L 42.230484 89.2692 
L 45.284164 88.72224 
L 48.337844 89.39304 
L 51.391525 89.40336 
L 54.445205 88.41264 
L 57.498885 88.4952 
L 60.552566 86.86464 
L 63.606246 86.42088 
L 66.659926 87.62832 
L 69.713606 86.93688 
L 72.767287 87.23616 
L 75.820967 88.63968 
L 78.874647 90.0432 
L 81.928328 92.12784 
L 84.982008 91.16808 
L 88.035688 91.46736 
L 91.089369 91.73568 
L 94.143049 91.78728 
L 97.196729 94.0164 
L 100.25041 92.5716 
L 103.30409 91.76664 
L 106.35777 92.33424 
L 109.411451 94.36728 
L 112.465131 94.46016 
L 115.518811 97.71096 
L 118.572492 98.48496 
L 121.626172 97.85544 
L 124.204164 99.10416 
L 126.630885 100.16712 
L 129.683011 102.23112 
L 132.723614 100.54896 
L 135.847098 100.70376 
L 138.875578 100.68312 
L 141.946683 100.95144 
L 144.994037 101.28168 
L 148.036725 101.71512 
L 151.089486 101.84928 
L 154.106445 101.034 
L 156.998994 100.54896 
L 160.248548 101.04432 
L 162.918645 100.81728 
L 166.351067 101.034 
L 169.401036 101.4984 
L 172.436868 101.33328 
L 175.471887 101.1372 
L 178.560451 101.06496 
L 181.623321 102.09696 
L 184.419029 102.05568 
L 187.71969 101.4984 
L 190.759763 100.60056 
L 193.807647 100.80696 
L 196.825347 101.45712 
L 199.948407 100.55928 
L 202.970561 101.10624 
L 206.031345 100.8792 
L 209.067919 100.74504 
L 212.128174 100.21872 
L 215.180405 100.53864 
L 218.210652 101.07528 
L 221.293986 101.38488 
L 224.35682 101.26104 
L 227.390885 100.78632 
L 230.443363 100.91016 
L 233.509061 100.99272 
L 236.556839 100.38384 
L 239.606454 100.50768 
L 242.718558 100.60056 
L 245.780862 99.76464 
L 248.781103 99.49632 
L 251.858074 99.40344 
L 254.912603 100.09488 
L 257.936559 100.3632 
L 260.972356 100.19808 
L 264.0717 100.47672 
L 267.132555 100.79664 
L 270.157961 100.26 
L 273.439076 99.83688 
L 276.302467 100.13616 
L 279.36 100.80696 
" clip-path="url(#pfa8f381fbd)" style="fill: none; stroke: #bebebe; stroke-width: 0.5; stroke-linecap: round"/>
   </g>
   <g id="line2d_6">
    <path d="M 8.64 75.82224 
L 11.69368 75.84288 
L 14.747361 76.03896 
L 17.801041 75.51264 
L 20.854721 75.56424 
L 23.908402 75.05856 
L 26.962082 73.26288 
L 30.015762 73.20096 
L 33.069443 73.00488 
L 36.123123 71.68392 
L 39.176803 70.6932 
L 42.230484 72.62304 
L 45.284164 73.52088 
L 48.337844 73.83048 
L 51.391525 73.8408 
L 54.445205 73.29384 
L 57.498885 73.72728 
L 60.552566 70.32168 
L 63.606246 69.77472 
L 66.659926 70.34232 
L 69.713606 70.67256 
L 72.767287 70.51776 
L 75.820967 70.848 
L 78.874647 72.31344 
L 81.928328 76.01832 
L 84.982008 75.41976 
L 88.035688 75.83256 
L 91.089369 75.79128 
L 94.143049 75.82224 
L 97.196729 77.82432 
L 100.25041 76.14216 
L 103.30409 74.75928 
L 106.35777 74.96568 
L 109.411451 77.75208 
L 112.465131 79.48584 
L 115.518811 83.31456 
L 118.572492 85.90488 
L 121.626172 84.79032 
L 124.204164 85.84296 
L 126.630885 88.25784 
L 129.683011 91.41576 
L 132.723614 88.7532 
L 135.847098 88.65 
L 138.875578 88.55712 
L 141.946683 88.96992 
L 144.994037 89.7336 
L 148.036725 90.456 
L 151.089486 90.56952 
L 154.106445 89.15568 
L 156.998994 88.9596 
L 160.248548 90.6624 
L 162.918645 89.94 
L 166.351067 90.00192 
L 169.401036 90.3528 
L 172.436868 90.62112 
L 175.471887 90.5076 
L 178.560451 90.3528 
L 181.623321 92.004 
L 184.419029 92.13816 
L 187.71969 91.25064 
L 190.759763 89.166 
L 193.807647 89.56848 
L 196.825347 90.93072 
L 199.948407 89.41368 
L 202.970561 90.37344 
L 206.031345 89.79552 
L 209.067919 90.23928 
L 212.128174 88.0824 
L 215.180405 88.7532 
L 218.210652 90.16704 
L 221.293986 90.67272 
L 224.35682 90.18768 
L 227.390885 89.2692 
L 230.443363 89.54784 
L 233.509061 89.49624 
L 236.556839 88.31976 
L 239.606454 88.45392 
L 242.718558 88.46424 
L 245.780862 86.38992 
L 248.781103 84.80064 
L 251.858074 84.8316 
L 254.912603 86.586 
L 257.936559 87.74184 
L 260.972356 87.618 
L 264.0717 88.19592 
L 267.132555 89.08344 
L 270.157961 87.89664 
L 273.439076 87.3084 
L 276.302467 87.65928 
L 279.36 88.96992 
" clip-path="url(#pfa8f381fbd)" style="fill: none; stroke: #4a8dff; stroke-width: 0.6"/>
   </g>
   <g id="line2d_7">
    <path d="M 8.64 85.72944 
L 11.69368 85.7088 
L 14.747361 86.40024 
L 17.801041 85.09992 
L 20.854721 86.02872 
L 23.908402 84.78 
L 26.962082 83.53128 
L 30.015762 82.83984 
L 33.069443 82.03488 
L 36.123123 79.39296 
L 39.176803 79.66128 
L 42.230484 82.15872 
L 45.284164 82.43736 
L 48.337844 82.93272 
L 51.391525 83.00496 
L 54.445205 82.6128 
L 57.498885 82.28256 
L 60.552566 78.01008 
L 63.606246 76.19376 
L 66.659926 77.66952 
L 69.713606 77.74176 
L 72.767287 78.1752 
L 75.820967 79.5684 
L 78.874647 80.8068 
L 81.928328 85.20312 
L 84.982008 84.12984 
L 88.035688 84.03696 
L 91.089369 84.06792 
L 94.143049 84.3156 
L 97.196729 87.02976 
L 100.25041 85.21344 
L 103.30409 84.28464 
L 106.35777 84.32592 
L 109.411451 89.08344 
L 112.465131 89.5272 
L 115.518811 95.14128 
L 118.572492 96.98856 
L 121.626172 95.08968 
L 124.204164 97.71096 
L 126.630885 99.80592 
L 129.683011 101.79768 
L 132.723614 100.03296 
L 135.847098 100.518 
L 138.875578 99.98136 
L 141.946683 100.49736 
L 144.994037 100.78632 
L 148.036725 101.07528 
L 151.089486 101.26104 
L 154.106445 100.63152 
L 156.998994 100.38384 
L 160.248548 100.84824 
L 162.918645 100.65216 
L 166.351067 101.034 
L 169.401036 101.19912 
L 172.436868 101.10624 
L 175.471887 100.97208 
L 178.560451 100.91016 
L 181.623321 101.7564 
L 184.419029 101.84928 
L 187.71969 101.56032 
L 190.759763 100.85856 
L 193.807647 101.12688 
L 196.825347 101.4468 
L 199.948407 101.02368 
L 202.970561 101.30232 
L 206.031345 100.81728 
L 209.067919 100.79664 
L 212.128174 99.3312 
L 215.180405 99.92976 
L 218.210652 100.78632 
L 221.293986 101.17848 
L 224.35682 101.1372 
L 227.390885 100.21872 
L 230.443363 100.37352 
L 233.509061 100.4664 
L 236.556839 99.88848 
L 239.606454 99.94008 
L 242.718558 99.81624 
L 245.780862 98.93904 
L 248.781103 98.3508 
L 251.858074 98.52624 
L 254.912603 99.78528 
L 257.936559 100.12584 
L 260.972356 100.03296 
L 264.0717 100.45608 
L 267.132555 100.83792 
L 270.157961 100.11552 
L 273.439076 99.87816 
L 276.302467 100.002 
L 279.36 100.64184 
" clip-path="url(#pfa8f381fbd)" style="fill: none; stroke: #f5841e; stroke-width: 0.6"/>
   </g>
  </g>
 </g>
 <defs>
  <clipPath id="pfa8f381fbd">
   <rect x="8.64" y="4.8" width="270.72" height="103.2"/>
  </clipPath>
 </defs>
</svg>
