<?xml version="1.0" encoding="utf-8" standalone="no"?>
<!DOCTYPE svg PUBLIC "-//W3C//DTD SVG 1.1//EN"
  "http://www.w3.org/Graphics/SVG/1.1/DTD/svg11.dtd">
<svg xmlns:xlink="http://www.w3.org/1999/xlink" width="288pt" height="120pt" viewBox="0 0 288 120" xmlns="http://www.w3.org/2000/svg" version="1.1">
<desc id="nav-meta">{"window":"3m","count":4,"labels":["24.02","26.03","24.04","24.05"],"tick_utc":["2026-02-24T01:30:44Z","2026-03-26T03:39:29Z","2026-04-24T04:01:18Z","2026-05-24T04:51:26Z"],"w":720,"h":300}</desc>

 <metadata>
  <rdf:RDF xmlns:dc="http://purl.org/dc/elements/1.1/" xmlns:cc="http://creativecommons.org/ns#" xmlns:rdf="http://www.w3.org/1999/02/22-rdf-syntax-ns#">
   <cc:Work>
    <dc:type rdf:resource="http://purl.org/dc/dcmitype/StillImage"/>
    <dc:date>2026-05-24T09:08:18.427162</dc:date>
    <dc:format>image/svg+xml</dc:format>
    <dc:creator>
     <cc:Agent>
      <dc:title>Matplotlib v3.10.9, https://matplotlib.org/</dc:title>
     </cc:Agent>
    </dc:creator>
   </cc:Work>
  </rdf:RDF>
 </metadata>
 <defs>
  <style type="text/css">*{stroke-linejoin: round; stroke-linecap: butt}</style>
 </defs>
 <g id="figure_1">
  <g id="patch_1">
   <path d="M 0 120 
L 288 120 
L 288 0 
L 0 0 
L 0 120 
z
" style="fill: none; opacity: 0"/>
  </g>
  <g id="axes_1">
   <g id="patch_2">
    <path d="M 8.64 108 
L 279.36 108 
L 279.36 4.8 
L 8.64 4.8 
L 8.64 108 
z
" style="fill: none"/>
   </g>
   <g id="matplotlib.axis_1"/>
   <g id="matplotlib.axis_2"/>
   <g id="line2d_1">
    <path d="M 8.64 87.36 
L 279.36 87.36 
" clip-path="url(#p4791b980fb)" style="fill: none; stroke: #b2b2b2; stroke-opacity: 0.35; stroke-width: 0.5; stroke-linecap: square"/>
   </g>
   <g id="line2d_2">
    <path d="M 8.64 66.72 
L 279.36 66.72 
" clip-path="url(#p4791b980fb)" style="fill: none; stroke: #b2b2b2; stroke-opacity: 0.35; stroke-width: 0.5; stroke-linecap: square"/>
   </g>
   <g id="line2d_3">
    <path d="M 8.64 46.08 
L 279.36 46.08 
" clip-path="url(#p4791b980fb)" style="fill: none; stroke: #b2b2b2; stroke-opacity: 0.35; stroke-width: 0.5; stroke-linecap: square"/>
   </g>
   <g id="line2d_4">
    <path d="M 8.64 25.44 
L 279.36 25.44 
" clip-path="url(#p4791b980fb)" style="fill: none; stroke: #b2b2b2; stroke-opacity: 0.35; stroke-width: 0.5; stroke-linecap: square"/>
   </g>
   <g id="line2d_5">
    <path d="M 8.64 102.05568 
L 11.922677 101.4984 
L 14.946185 100.60056 
L 17.977462 100.80696 
L 20.97872 101.45712 
L 24.084763 100.55928 
L 27.09045 101.10624 
L 30.134557 100.8792 
L 33.154586 100.74504 
L 36.198166 100.21872 
L 39.233766 100.53864 
L 42.247503 101.07528 
L 45.314036 101.38488 
L 48.360182 101.26104 
L 51.377715 100.78632 
L 54.413562 100.91016 
L 57.462555 100.99272 
L 60.493726 100.38384 
L 63.526725 100.50768 
L 66.621872 100.60056 
L 69.66749 99.76464 
L 72.651384 99.49632 
L 75.71159 99.40344 
L 78.749475 100.09488 
L 81.756955 100.3632 
L 84.77621 100.19808 
L 87.858667 100.47672 
L 90.902844 100.79664 
L 93.911765 100.26 
L 97.175003 99.83688 
L 100.022792 100.13616 
L 103.063666 100.80696 
L 106.071673 101.38488 
L 109.150087 101.3436 
L 112.195811 101.292 
L 115.213695 101.28168 
L 118.276784 101.28168 
L 121.273824 101.8596 
L 124.314346 101.88024 
L 127.325376 101.72544 
L 130.408149 101.68416 
L 133.453029 101.47776 
L 136.470351 101.78736 
L 139.512314 101.09592 
L 142.538775 101.46744 
L 145.603762 101.3436 
L 148.594369 101.05464 
L 151.685895 101.3952 
L 154.738508 101.47776 
L 157.756217 100.86888 
L 160.790939 101.26104 
L 163.841127 100.99272 
L 166.871982 100.61088 
L 169.875525 100.44576 
L 172.952674 100.94112 
L 175.997238 101.09592 
L 179.020958 101.00304 
L 182.048579 100.69344 
L 185.097923 100.9308 
L 188.143015 100.92048 
L 191.143816 100.81728 
L 194.2281 100.8792 
L 197.297868 100.64184 
L 200.341272 101.1888 
L 203.370018 101.09592 
L 206.412156 101.37456 
L 209.48238 101.21976 
L 212.441914 101.20944 
L 215.540611 101.23008 
L 218.576598 100.92048 
L 221.546747 101.06496 
L 224.637289 100.70376 
L 227.675139 100.55928 
L 230.661634 100.53864 
L 233.709783 99.60984 
L 236.808023 99.72336 
L 239.869037 99.44472 
L 242.863898 99.25896 
L 245.915387 99.32088 
L 248.949054 100.22904 
L 252.00107 100.01232 
L 254.99934 100.43544 
L 258.081727 100.75536 
L 261.14826 101.02368 
L 264.163543 101.02368 
L 267.211446 101.17848 
L 270.265782 100.7244 
L 273.279554 100.75536 
L 276.274872 101.11656 
L 279.36 100.91016 
" clip-path="url(#p4791b980fb)" style="fill: none; stroke: #bebebe; stroke-width: 0.5; stroke-linecap: round"/>
   </g>
   <g id="line2d_6">
    <path d="M 8.64 92.13816 
L 11.922677 91.25064 
L 14.946185 89.166 
L 17.977462 89.56848 
L 20.97872 90.93072 
L 24.084763 89.41368 
L 27.09045 90.37344 
L 30.134557 89.79552 
L 33.154586 90.23928 
L 36.198166 88.0824 
L 39.233766 88.7532 
L 42.247503 90.16704 
L 45.314036 90.67272 
L 48.360182 90.18768 
L 51.377715 89.2692 
L 54.413562 89.54784 
L 57.462555 89.49624 
L 60.493726 88.31976 
L 63.526725 88.45392 
L 66.621872 88.46424 
L 69.66749 86.38992 
L 72.651384 84.80064 
L 75.71159 84.8316 
L 78.749475 86.586 
L 81.756955 87.74184 
L 84.77621 87.618 
L 87.858667 88.19592 
L 90.902844 89.08344 
L 93.911765 87.89664 
L 97.175003 87.3084 
L 100.022792 87.65928 
L 103.063666 88.96992 
L 106.071673 90.07416 
L 109.150087 89.76456 
L 112.195811 89.3724 
L 115.213695 89.00088 
L 118.276784 88.42296 
L 121.273824 88.81512 
L 124.314346 89.10408 
L 127.325376 89.14536 
L 130.408149 89.07312 
L 133.453029 87.9792 
L 136.470351 88.29912 
L 139.512314 86.38992 
L 142.538775 87.24648 
L 145.603762 87.1536 
L 148.594369 86.21448 
L 151.685895 86.66856 
L 154.738508 87.01944 
L 157.756217 84.44976 
L 160.790939 85.05864 
L 163.841127 84.58392 
L 166.871982 85.04832 
L 169.875525 83.71704 
L 172.952674 84.86256 
L 175.997238 85.6572 
L 179.020958 85.27536 
L 182.048579 84.49104 
L 185.097923 84.86256 
L 188.143015 85.32696 
L 191.143816 85.17216 
L 194.2281 85.31664 
L 197.297868 84.11952 
L 200.341272 85.66752 
L 203.370018 85.26504 
L 206.412156 86.26608 
L 209.48238 85.77072 
L 212.441914 85.38888 
L 215.540611 85.3992 
L 218.576598 84.09888 
L 221.546747 84.22272 
L 224.637289 84.34656 
L 227.675139 85.06896 
L 230.661634 85.7604 
L 233.709783 85.0896 
L 236.808023 85.01736 
L 239.869037 84.9348 
L 242.863898 85.296 
L 245.915387 85.35792 
L 248.949054 86.1732 
L 252.00107 85.92552 
L 254.99934 86.55504 
L 258.081727 87.13296 
L 261.14826 88.10304 
L 264.163543 87.9276 
L 267.211446 88.26816 
L 270.265782 87.78312 
L 273.279554 87.95856 
L 276.274872 88.94928 
L 279.36 88.14432 
" clip-path="url(#p4791b980fb)" style="fill: none; stroke: #4a8dff; stroke-width: 0.6"/>
   </g>
   <g id="line2d_7">
    <path d="M 8.64 101.84928 
L 11.922677 101.56032 
L 14.946185 100.85856 
L 17.977462 101.12688 
L 20.97872 101.4468 
L 24.084763 101.02368 
L 27.09045 101.30232 
L 30.134557 100.81728 
L 33.154586 100.79664 
L 36.198166 99.3312 
L 39.233766 99.92976 
L 42.247503 100.78632 
L 45.314036 101.17848 
L 48.360182 101.1372 
L 51.377715 100.21872 
L 54.413562 100.37352 
L 57.462555 100.4664 
L 60.493726 99.88848 
L 63.526725 99.94008 
L 66.621872 99.81624 
L 69.66749 98.93904 
L 72.651384 98.3508 
L 75.71159 98.52624 
L 78.749475 99.78528 
L 81.756955 100.12584 
L 84.77621 100.03296 
L 87.858667 100.45608 
L 90.902844 100.83792 
L 93.911765 100.11552 
L 97.175003 99.87816 
L 100.022792 100.002 
L 103.063666 100.64184 
L 106.071673 101.41584 
L 109.150087 101.21976 
L 112.195811 101.14752 
L 115.213695 101.00304 
L 118.276784 100.86888 
L 121.273824 101.21976 
L 124.314346 101.28168 
L 127.325376 101.20944 
L 130.408149 101.14752 
L 133.453029 100.55928 
L 136.470351 100.65216 
L 139.512314 99.80592 
L 142.538775 99.96072 
L 145.603762 99.6408 
L 148.594369 99.1764 
L 151.685895 99.70272 
L 154.738508 99.94008 
L 157.756217 98.57784 
L 160.790939 98.65008 
L 163.841127 98.38176 
L 166.871982 98.48496 
L 169.875525 96.70992 
L 172.952674 98.05152 
L 175.997238 98.48496 
L 179.020958 97.96896 
L 182.048579 96.32808 
L 185.097923 96.20424 
L 188.143015 96.16296 
L 191.143816 96.1836 
L 194.2281 96.50352 
L 197.297868 94.76976 
L 200.341272 97.19496 
L 203.370018 96.9576 
L 206.412156 97.9896 
L 209.48238 96.89568 
L 212.441914 95.45088 
L 215.540611 95.67792 
L 218.576598 93.43848 
L 221.546747 92.90184 
L 224.637289 92.25168 
L 227.675139 92.87088 
L 230.661634 94.2744 
L 233.709783 93.1392 
L 236.808023 92.97408 
L 239.869037 92.9844 
L 242.863898 92.60256 
L 245.915387 92.53032 
L 248.949054 94.54272 
L 252.00107 92.85024 
L 254.99934 94.82136 
L 258.081727 95.75016 
L 261.14826 96.97824 
L 264.163543 97.08144 
L 267.211446 97.23624 
L 270.265782 95.94624 
L 273.279554 96.30744 
L 276.274872 98.08248 
L 279.36 97.2672 
" clip-path="url(#p4791b980fb)" style="fill: none; stroke: #f5841e; stroke-width: 0.6"/>
   </g>
  </g>
 </g>
 <defs>
  <clipPath id="p4791b980fb">
   <rect x="8.64" y="4.8" width="270.72" height="103.2"/>
  </clipPath>
 </defs>
</svg>
