<?xml version="1.0" encoding="utf-8" standalone="no"?>
<!DOCTYPE svg PUBLIC "-//W3C//DTD SVG 1.1//EN"
  "http://www.w3.org/Graphics/SVG/1.1/DTD/svg11.dtd">
<svg xmlns:xlink="http://www.w3.org/1999/xlink" width="288pt" height="120pt" viewBox="0 0 288 120" xmlns="http://www.w3.org/2000/svg" version="1.1">
<desc id="nav-meta">{"window":"3m","count":4,"labels":["21.11","21.12","20.01","19.02"],"tick_utc":["2025-11-21T12:00:00Z","2025-12-21T12:00:00Z","2026-01-20T12:00:00Z","2026-02-19T03:28:49Z"],"w":720,"h":300}</desc>

 <metadata>
  <rdf:RDF xmlns:dc="http://purl.org/dc/elements/1.1/" xmlns:cc="http://creativecommons.org/ns#" xmlns:rdf="http://www.w3.org/1999/02/22-rdf-syntax-ns#">
   <cc:Work>
    <dc:type rdf:resource="http://purl.org/dc/dcmitype/StillImage"/>
    <dc:date>2026-02-19T03:28:51.918550</dc:date>
    <dc:format>image/svg+xml</dc:format>
    <dc:creator>
     <cc:Agent>
      <dc:title>Matplotlib v3.10.8, https://matplotlib.org/</dc:title>
     </cc:Agent>
    </dc:creator>
   </cc:Work>
  </rdf:RDF>
 </metadata>
 <defs>
  <style type="text/css">*{stroke-linejoin: round; stroke-linecap: butt}</style>
 </defs>
 <g id="figure_1">
  <g id="patch_1">
   <path d="M 0 120 
L 288 120 
L 288 0 
L 0 0 
L 0 120 
z
" style="fill: none; opacity: 0"/>
  </g>
  <g id="axes_1">
   <g id="patch_2">
    <path d="M 8.64 108 
L 279.36 108 
L 279.36 4.8 
L 8.64 4.8 
L 8.64 108 
z
" style="fill: none"/>
   </g>
   <g id="matplotlib.axis_1"/>
   <g id="matplotlib.axis_2"/>
   <g id="line2d_1">
    <path d="M 8.64 87.36 
L 279.36 87.36 
" clip-path="url(#pd5d8faee8a)" style="fill: none; stroke: #b2b2b2; stroke-opacity: 0.35; stroke-width: 0.5; stroke-linecap: square"/>
   </g>
   <g id="line2d_2">
    <path d="M 8.64 66.72 
L 279.36 66.72 
" clip-path="url(#pd5d8faee8a)" style="fill: none; stroke: #b2b2b2; stroke-opacity: 0.35; stroke-width: 0.5; stroke-linecap: square"/>
   </g>
   <g id="line2d_3">
    <path d="M 8.64 46.08 
L 279.36 46.08 
" clip-path="url(#pd5d8faee8a)" style="fill: none; stroke: #b2b2b2; stroke-opacity: 0.35; stroke-width: 0.5; stroke-linecap: square"/>
   </g>
   <g id="line2d_4">
    <path d="M 8.64 25.44 
L 279.36 25.44 
" clip-path="url(#pd5d8faee8a)" style="fill: none; stroke: #b2b2b2; stroke-opacity: 0.35; stroke-width: 0.5; stroke-linecap: square"/>
   </g>
   <g id="line2d_5">
    <path d="M 8.64 90.00192 
L 11.659911 91.39512 
L 14.679823 91.63248 
L 17.699734 90.75528 
L 20.719646 88.7016 
L 23.739557 88.52616 
L 26.759469 87.45288 
L 29.77938 88.0308 
L 32.799292 88.94928 
L 35.819203 89.3208 
L 38.839115 89.7336 
L 41.859026 91.86984 
L 44.878938 88.60872 
L 47.898849 86.87496 
L 50.918761 88.52616 
L 53.938672 90.11544 
L 56.958584 90.38376 
L 59.978495 90.53856 
L 62.998407 90.08448 
L 66.018318 88.79448 
L 69.03823 89.20728 
L 72.058141 89.22792 
L 75.078053 90.31152 
L 78.097964 90.10512 
L 81.117876 91.09584 
L 84.137787 91.61184 
L 87.157699 91.31256 
L 90.17761 92.87088 
L 93.197522 93.8616 
L 96.217433 92.02464 
L 99.237345 92.13816 
L 102.257256 92.07624 
L 105.277168 92.14848 
L 108.297079 92.64384 
L 111.31699 93.01536 
L 114.336902 93.69648 
L 117.356813 93.11856 
L 120.376725 92.44776 
L 123.396636 92.30328 
L 126.416548 92.87088 
L 129.436459 92.38584 
L 132.456371 92.47872 
L 135.476282 91.88016 
L 138.496194 90.42504 
L 141.516105 90.08448 
L 144.536017 89.92968 
L 147.555928 88.76352 
L 150.57584 87.94824 
L 153.595751 89.2692 
L 156.615663 88.72224 
L 159.635574 89.39304 
L 162.655486 89.40336 
L 165.675397 88.41264 
L 168.695309 88.4952 
L 171.71522 86.86464 
L 174.735132 86.42088 
L 177.755043 87.62832 
L 180.774955 86.93688 
L 183.794866 87.23616 
L 186.814778 88.63968 
L 189.834689 90.0432 
L 192.854601 92.12784 
L 195.874512 91.16808 
L 198.894424 91.46736 
L 201.914335 91.73568 
L 204.934247 91.78728 
L 207.954158 94.0164 
L 210.974069 92.5716 
L 213.993981 91.76664 
L 217.013892 92.33424 
L 220.033804 94.36728 
L 223.053715 94.46016 
L 226.073627 97.71096 
L 229.093538 98.48496 
L 232.11345 97.85544 
L 234.662933 99.10416 
L 237.062819 100.16712 
L 240.081193 102.23112 
L 243.088172 100.54896 
L 246.177115 100.70376 
L 249.172105 100.68312 
L 252.209248 100.95144 
L 255.222903 101.28168 
L 258.231944 101.71512 
L 261.250947 101.84928 
L 264.234543 101.034 
L 267.095105 100.54896 
L 270.308724 101.04432 
L 272.949294 100.81728 
L 276.343759 101.034 
L 279.36 101.4984 
" clip-path="url(#pd5d8faee8a)" style="fill: none; stroke: #bebebe; stroke-width: 0.5; stroke-linecap: round"/>
   </g>
   <g id="line2d_6">
    <path d="M 8.64 77.556 
L 11.659911 78.55704 
L 14.679823 78.50544 
L 17.699734 78.04104 
L 20.719646 75.76032 
L 23.739557 75.73968 
L 26.759469 74.65608 
L 29.77938 74.83152 
L 32.799292 74.57352 
L 35.819203 75.20304 
L 38.839115 75.17208 
L 41.859026 78.05136 
L 44.878938 75.1308 
L 47.898849 72.16896 
L 50.918761 73.08744 
L 53.938672 74.72832 
L 56.958584 74.48064 
L 59.978495 74.28456 
L 62.998407 73.21128 
L 66.018318 70.2804 
L 69.03823 70.2288 
L 72.058141 71.56008 
L 75.078053 73.79952 
L 78.097964 73.35576 
L 81.117876 74.0988 
L 84.137787 75.5952 
L 87.157699 75.5952 
L 90.17761 77.61792 
L 93.197522 77.63856 
L 96.217433 75.40944 
L 99.237345 75.40944 
L 102.257256 75.04824 
L 105.277168 74.98632 
L 108.297079 75.58488 
L 111.31699 75.87384 
L 114.336902 76.49304 
L 117.356813 76.15248 
L 120.376725 75.82224 
L 123.396636 75.84288 
L 126.416548 76.03896 
L 129.436459 75.51264 
L 132.456371 75.56424 
L 135.476282 75.05856 
L 138.496194 73.26288 
L 141.516105 73.20096 
L 144.536017 73.00488 
L 147.555928 71.68392 
L 150.57584 70.6932 
L 153.595751 72.62304 
L 156.615663 73.52088 
L 159.635574 73.83048 
L 162.655486 73.8408 
L 165.675397 73.29384 
L 168.695309 73.72728 
L 171.71522 70.32168 
L 174.735132 69.77472 
L 177.755043 70.34232 
L 180.774955 70.67256 
L 183.794866 70.51776 
L 186.814778 70.848 
L 189.834689 72.31344 
L 192.854601 76.01832 
L 195.874512 75.41976 
L 198.894424 75.83256 
L 201.914335 75.79128 
L 204.934247 75.82224 
L 207.954158 77.82432 
L 210.974069 76.14216 
L 213.993981 74.75928 
L 217.013892 74.96568 
L 220.033804 77.75208 
L 223.053715 79.48584 
L 226.073627 83.31456 
L 229.093538 85.90488 
L 232.11345 84.79032 
L 234.662933 85.84296 
L 237.062819 88.25784 
L 240.081193 91.41576 
L 243.088172 88.7532 
L 246.177115 88.65 
L 249.172105 88.55712 
L 252.209248 88.96992 
L 255.222903 89.7336 
L 258.231944 90.456 
L 261.250947 90.56952 
L 264.234543 89.15568 
L 267.095105 88.9596 
L 270.308724 90.6624 
L 272.949294 89.94 
L 276.343759 90.00192 
L 279.36 90.3528 
" clip-path="url(#pd5d8faee8a)" style="fill: none; stroke: #4a8dff; stroke-width: 0.6"/>
   </g>
   <g id="line2d_7">
    <path d="M 8.64 86.92656 
L 11.659911 88.58808 
L 14.679823 88.96992 
L 17.699734 86.7924 
L 20.719646 85.296 
L 23.739557 86.24544 
L 26.759469 82.96368 
L 29.77938 82.13808 
L 32.799292 82.47864 
L 35.819203 82.58184 
L 38.839115 83.03592 
L 41.859026 87.3084 
L 44.878938 82.06584 
L 47.898849 79.71288 
L 50.918761 81.24024 
L 53.938672 84.17112 
L 56.958584 84.24336 
L 59.978495 83.29392 
L 62.998407 82.8192 
L 66.018318 80.64168 
L 69.03823 81.38472 
L 72.058141 80.87904 
L 75.078053 83.13912 
L 78.097964 83.19072 
L 81.117876 85.296 
L 84.137787 87.17424 
L 87.157699 85.71912 
L 90.17761 87.53544 
L 93.197522 88.17528 
L 96.217433 85.41984 
L 99.237345 85.17216 
L 102.257256 84.9348 
L 105.277168 85.01736 
L 108.297079 86.14224 
L 111.31699 85.90488 
L 114.336902 86.328 
L 117.356813 86.24544 
L 120.376725 85.72944 
L 123.396636 85.7088 
L 126.416548 86.40024 
L 129.436459 85.09992 
L 132.456371 86.02872 
L 135.476282 84.78 
L 138.496194 83.53128 
L 141.516105 82.83984 
L 144.536017 82.03488 
L 147.555928 79.39296 
L 150.57584 79.66128 
L 153.595751 82.15872 
L 156.615663 82.43736 
L 159.635574 82.93272 
L 162.655486 83.00496 
L 165.675397 82.6128 
L 168.695309 82.28256 
L 171.71522 78.01008 
L 174.735132 76.19376 
L 177.755043 77.66952 
L 180.774955 77.74176 
L 183.794866 78.1752 
L 186.814778 79.5684 
L 189.834689 80.8068 
L 192.854601 85.20312 
L 195.874512 84.12984 
L 198.894424 84.03696 
L 201.914335 84.06792 
L 204.934247 84.3156 
L 207.954158 87.02976 
L 210.974069 85.21344 
L 213.993981 84.28464 
L 217.013892 84.32592 
L 220.033804 89.08344 
L 223.053715 89.5272 
L 226.073627 95.14128 
L 229.093538 96.98856 
L 232.11345 95.08968 
L 234.662933 97.71096 
L 237.062819 99.80592 
L 240.081193 101.79768 
L 243.088172 100.03296 
L 246.177115 100.518 
L 249.172105 99.98136 
L 252.209248 100.49736 
L 255.222903 100.78632 
L 258.231944 101.07528 
L 261.250947 101.26104 
L 264.234543 100.63152 
L 267.095105 100.38384 
L 270.308724 100.84824 
L 272.949294 100.65216 
L 276.343759 101.034 
L 279.36 101.19912 
" clip-path="url(#pd5d8faee8a)" style="fill: none; stroke: #f5841e; stroke-width: 0.6"/>
   </g>
  </g>
 </g>
 <defs>
  <clipPath id="pd5d8faee8a">
   <rect x="8.64" y="4.8" width="270.72" height="103.2"/>
  </clipPath>
 </defs>
</svg>
