<?xml version="1.0" encoding="utf-8" standalone="no"?>
<!DOCTYPE svg PUBLIC "-//W3C//DTD SVG 1.1//EN"
  "http://www.w3.org/Graphics/SVG/1.1/DTD/svg11.dtd">
<svg xmlns:xlink="http://www.w3.org/1999/xlink" width="288pt" height="120pt" viewBox="0 0 288 120" xmlns="http://www.w3.org/2000/svg" version="1.1">
<desc id="nav-meta">{"window":"3m","count":4,"labels":["21.12","20.01","18.02","20.03"],"tick_utc":["2025-12-21T12:00:00Z","2026-01-20T12:00:00Z","2026-02-18T03:30:34Z","2026-03-20T03:18:49Z"],"w":720,"h":300}</desc>

 <metadata>
  <rdf:RDF xmlns:dc="http://purl.org/dc/elements/1.1/" xmlns:cc="http://creativecommons.org/ns#" xmlns:rdf="http://www.w3.org/1999/02/22-rdf-syntax-ns#">
   <cc:Work>
    <dc:type rdf:resource="http://purl.org/dc/dcmitype/StillImage"/>
    <dc:date>2026-03-20T13:46:25.911438</dc:date>
    <dc:format>image/svg+xml</dc:format>
    <dc:creator>
     <cc:Agent>
      <dc:title>Matplotlib v3.10.8, https://matplotlib.org/</dc:title>
     </cc:Agent>
    </dc:creator>
   </cc:Work>
  </rdf:RDF>
 </metadata>
 <defs>
  <style type="text/css">*{stroke-linejoin: round; stroke-linecap: butt}</style>
 </defs>
 <g id="figure_1">
  <g id="patch_1">
   <path d="M 0 120 
L 288 120 
L 288 0 
L 0 0 
L 0 120 
z
" style="fill: none; opacity: 0"/>
  </g>
  <g id="axes_1">
   <g id="patch_2">
    <path d="M 8.64 108 
L 279.36 108 
L 279.36 4.8 
L 8.64 4.8 
L 8.64 108 
z
" style="fill: none"/>
   </g>
   <g id="matplotlib.axis_1"/>
   <g id="matplotlib.axis_2"/>
   <g id="line2d_1">
    <path d="M 8.64 87.36 
L 279.36 87.36 
" clip-path="url(#pab4779865f)" style="fill: none; stroke: #b2b2b2; stroke-opacity: 0.35; stroke-width: 0.5; stroke-linecap: square"/>
   </g>
   <g id="line2d_2">
    <path d="M 8.64 66.72 
L 279.36 66.72 
" clip-path="url(#pab4779865f)" style="fill: none; stroke: #b2b2b2; stroke-opacity: 0.35; stroke-width: 0.5; stroke-linecap: square"/>
   </g>
   <g id="line2d_3">
    <path d="M 8.64 46.08 
L 279.36 46.08 
" clip-path="url(#pab4779865f)" style="fill: none; stroke: #b2b2b2; stroke-opacity: 0.35; stroke-width: 0.5; stroke-linecap: square"/>
   </g>
   <g id="line2d_4">
    <path d="M 8.64 25.44 
L 279.36 25.44 
" clip-path="url(#pab4779865f)" style="fill: none; stroke: #b2b2b2; stroke-opacity: 0.35; stroke-width: 0.5; stroke-linecap: square"/>
   </g>
   <g id="line2d_5">
    <path d="M 8.64 92.13816 
L 11.694218 92.07624 
L 14.748436 92.14848 
L 17.802655 92.64384 
L 20.856873 93.01536 
L 23.911091 93.69648 
L 26.965309 93.11856 
L 30.019528 92.44776 
L 33.073746 92.30328 
L 36.127964 92.87088 
L 39.182182 92.38584 
L 42.2364 92.47872 
L 45.290619 91.88016 
L 48.344837 90.42504 
L 51.399055 90.08448 
L 54.453273 89.92968 
L 57.507492 88.76352 
L 60.56171 87.94824 
L 63.615928 89.2692 
L 66.670146 88.72224 
L 69.724364 89.39304 
L 72.778583 89.40336 
L 75.832801 88.41264 
L 78.887019 88.4952 
L 81.941237 86.86464 
L 84.995456 86.42088 
L 88.049674 87.62832 
L 91.103892 86.93688 
L 94.15811 87.23616 
L 97.212329 88.63968 
L 100.266547 90.0432 
L 103.320765 92.12784 
L 106.374983 91.16808 
L 109.429201 91.46736 
L 112.48342 91.73568 
L 115.537638 91.78728 
L 118.591856 94.0164 
L 121.646074 92.5716 
L 124.700293 91.76664 
L 127.754511 92.33424 
L 130.808729 94.36728 
L 133.862947 94.46016 
L 136.917165 97.71096 
L 139.971384 98.48496 
L 143.025602 97.85544 
L 145.604048 99.10416 
L 148.031197 100.16712 
L 151.08386 102.23112 
L 154.124999 100.54896 
L 157.249033 100.70376 
L 160.278046 100.68312 
L 163.349692 100.95144 
L 166.397583 101.28168 
L 169.440807 101.71512 
L 172.494106 101.84928 
L 175.511596 101.034 
L 178.404655 100.54896 
L 181.654781 101.04432 
L 184.325349 100.81728 
L 187.758375 101.034 
L 190.808881 101.4984 
L 193.845248 101.33328 
L 196.880802 101.1372 
L 199.96991 101.06496 
L 203.033319 102.09696 
L 205.829519 102.05568 
L 209.130762 101.4984 
L 212.17137 100.60056 
L 215.219791 100.80696 
L 218.238023 101.45712 
L 221.361633 100.55928 
L 224.384319 101.10624 
L 227.445643 100.8792 
L 230.482752 100.74504 
L 233.543545 100.21872 
L 236.596314 100.53864 
L 239.627095 101.07528 
L 242.710972 101.38488 
L 245.774346 101.26104 
L 248.808945 100.78632 
L 251.861961 100.91016 
L 254.928198 100.99272 
L 257.976513 100.38384 
L 261.026666 100.50768 
L 264.139318 100.60056 
L 267.202161 99.76464 
L 270.202931 99.49632 
L 273.280444 99.40344 
L 276.335511 100.09488 
L 279.36 100.3632 
" clip-path="url(#pab4779865f)" style="fill: none; stroke: #bebebe; stroke-width: 0.5; stroke-linecap: round"/>
   </g>
   <g id="line2d_6">
    <path d="M 8.64 75.40944 
L 11.694218 75.04824 
L 14.748436 74.98632 
L 17.802655 75.58488 
L 20.856873 75.87384 
L 23.911091 76.49304 
L 26.965309 76.15248 
L 30.019528 75.82224 
L 33.073746 75.84288 
L 36.127964 76.03896 
L 39.182182 75.51264 
L 42.2364 75.56424 
L 45.290619 75.05856 
L 48.344837 73.26288 
L 51.399055 73.20096 
L 54.453273 73.00488 
L 57.507492 71.68392 
L 60.56171 70.6932 
L 63.615928 72.62304 
L 66.670146 73.52088 
L 69.724364 73.83048 
L 72.778583 73.8408 
L 75.832801 73.29384 
L 78.887019 73.72728 
L 81.941237 70.32168 
L 84.995456 69.77472 
L 88.049674 70.34232 
L 91.103892 70.67256 
L 94.15811 70.51776 
L 97.212329 70.848 
L 100.266547 72.31344 
L 103.320765 76.01832 
L 106.374983 75.41976 
L 109.429201 75.83256 
L 112.48342 75.79128 
L 115.537638 75.82224 
L 118.591856 77.82432 
L 121.646074 76.14216 
L 124.700293 74.75928 
L 127.754511 74.96568 
L 130.808729 77.75208 
L 133.862947 79.48584 
L 136.917165 83.31456 
L 139.971384 85.90488 
L 143.025602 84.79032 
L 145.604048 85.84296 
L 148.031197 88.25784 
L 151.08386 91.41576 
L 154.124999 88.7532 
L 157.249033 88.65 
L 160.278046 88.55712 
L 163.349692 88.96992 
L 166.397583 89.7336 
L 169.440807 90.456 
L 172.494106 90.56952 
L 175.511596 89.15568 
L 178.404655 88.9596 
L 181.654781 90.6624 
L 184.325349 89.94 
L 187.758375 90.00192 
L 190.808881 90.3528 
L 193.845248 90.62112 
L 196.880802 90.5076 
L 199.96991 90.3528 
L 203.033319 92.004 
L 205.829519 92.13816 
L 209.130762 91.25064 
L 212.17137 89.166 
L 215.219791 89.56848 
L 218.238023 90.93072 
L 221.361633 89.41368 
L 224.384319 90.37344 
L 227.445643 89.79552 
L 230.482752 90.23928 
L 233.543545 88.0824 
L 236.596314 88.7532 
L 239.627095 90.16704 
L 242.710972 90.67272 
L 245.774346 90.18768 
L 248.808945 89.2692 
L 251.861961 89.54784 
L 254.928198 89.49624 
L 257.976513 88.31976 
L 261.026666 88.45392 
L 264.139318 88.46424 
L 267.202161 86.38992 
L 270.202931 84.80064 
L 273.280444 84.8316 
L 276.335511 86.586 
L 279.36 87.74184 
" clip-path="url(#pab4779865f)" style="fill: none; stroke: #4a8dff; stroke-width: 0.6"/>
   </g>
   <g id="line2d_7">
    <path d="M 8.64 85.17216 
L 11.694218 84.9348 
L 14.748436 85.01736 
L 17.802655 86.14224 
L 20.856873 85.90488 
L 23.911091 86.328 
L 26.965309 86.24544 
L 30.019528 85.72944 
L 33.073746 85.7088 
L 36.127964 86.40024 
L 39.182182 85.09992 
L 42.2364 86.02872 
L 45.290619 84.78 
L 48.344837 83.53128 
L 51.399055 82.83984 
L 54.453273 82.03488 
L 57.507492 79.39296 
L 60.56171 79.66128 
L 63.615928 82.15872 
L 66.670146 82.43736 
L 69.724364 82.93272 
L 72.778583 83.00496 
L 75.832801 82.6128 
L 78.887019 82.28256 
L 81.941237 78.01008 
L 84.995456 76.19376 
L 88.049674 77.66952 
L 91.103892 77.74176 
L 94.15811 78.1752 
L 97.212329 79.5684 
L 100.266547 80.8068 
L 103.320765 85.20312 
L 106.374983 84.12984 
L 109.429201 84.03696 
L 112.48342 84.06792 
L 115.537638 84.3156 
L 118.591856 87.02976 
L 121.646074 85.21344 
L 124.700293 84.28464 
L 127.754511 84.32592 
L 130.808729 89.08344 
L 133.862947 89.5272 
L 136.917165 95.14128 
L 139.971384 96.98856 
L 143.025602 95.08968 
L 145.604048 97.71096 
L 148.031197 99.80592 
L 151.08386 101.79768 
L 154.124999 100.03296 
L 157.249033 100.518 
L 160.278046 99.98136 
L 163.349692 100.49736 
L 166.397583 100.78632 
L 169.440807 101.07528 
L 172.494106 101.26104 
L 175.511596 100.63152 
L 178.404655 100.38384 
L 181.654781 100.84824 
L 184.325349 100.65216 
L 187.758375 101.034 
L 190.808881 101.19912 
L 193.845248 101.10624 
L 196.880802 100.97208 
L 199.96991 100.91016 
L 203.033319 101.7564 
L 205.829519 101.84928 
L 209.130762 101.56032 
L 212.17137 100.85856 
L 215.219791 101.12688 
L 218.238023 101.4468 
L 221.361633 101.02368 
L 224.384319 101.30232 
L 227.445643 100.81728 
L 230.482752 100.79664 
L 233.543545 99.3312 
L 236.596314 99.92976 
L 239.627095 100.78632 
L 242.710972 101.17848 
L 245.774346 101.1372 
L 248.808945 100.21872 
L 251.861961 100.37352 
L 254.928198 100.4664 
L 257.976513 99.88848 
L 261.026666 99.94008 
L 264.139318 99.81624 
L 267.202161 98.93904 
L 270.202931 98.3508 
L 273.280444 98.52624 
L 276.335511 99.78528 
L 279.36 100.12584 
" clip-path="url(#pab4779865f)" style="fill: none; stroke: #f5841e; stroke-width: 0.6"/>
   </g>
  </g>
 </g>
 <defs>
  <clipPath id="pab4779865f">
   <rect x="8.64" y="4.8" width="270.72" height="103.2"/>
  </clipPath>
 </defs>
</svg>
