<?xml version="1.0" encoding="utf-8" standalone="no"?>
<!DOCTYPE svg PUBLIC "-//W3C//DTD SVG 1.1//EN"
  "http://www.w3.org/Graphics/SVG/1.1/DTD/svg11.dtd">
<svg xmlns:xlink="http://www.w3.org/1999/xlink" width="288pt" height="120pt" viewBox="0 0 288 120" xmlns="http://www.w3.org/2000/svg" version="1.1">
<desc id="nav-meta">{"window":"1m","count":4,"labels":["28.05","07.06","16.06","26.06"],"tick_utc":["2026-05-28T04:58:45Z","2026-06-07T05:11:57Z","2026-06-16T06:15:52Z","2026-06-26T04:57:37Z"],"w":720,"h":300}</desc>

 <metadata>
  <rdf:RDF xmlns:dc="http://purl.org/dc/elements/1.1/" xmlns:cc="http://creativecommons.org/ns#" xmlns:rdf="http://www.w3.org/1999/02/22-rdf-syntax-ns#">
   <cc:Work>
    <dc:type rdf:resource="http://purl.org/dc/dcmitype/StillImage"/>
    <dc:date>2026-06-26T10:01:03.724986</dc:date>
    <dc:format>image/svg+xml</dc:format>
    <dc:creator>
     <cc:Agent>
      <dc:title>Matplotlib v3.11.0, https://matplotlib.org/</dc:title>
     </cc:Agent>
    </dc:creator>
   </cc:Work>
  </rdf:RDF>
 </metadata>
 <defs>
  <style type="text/css">*{stroke-linejoin: round; stroke-linecap: butt}</style>
 </defs>
 <g id="figure_1">
  <g id="patch_1">
   <path d="M 0 120 
L 288 120 
L 288 0 
L 0 0 
L 0 120 
z
" style="fill: none; opacity: 0"/>
  </g>
  <g id="axes_1">
   <g id="patch_2">
    <path d="M 8.64 108 
L 279.36 108 
L 279.36 4.8 
L 8.64 4.8 
L 8.64 108 
z
" style="fill: none"/>
   </g>
   <g id="matplotlib.axis_1"/>
   <g id="matplotlib.axis_2"/>
   <g id="line2d_1">
    <path d="M 8.64 87.36 
L 279.36 87.36 
" clip-path="url(#p0858b535cb)" style="fill: none; stroke: #b2b2b2; stroke-opacity: 0.35; stroke-width: 0.5; stroke-linecap: square"/>
   </g>
   <g id="line2d_2">
    <path d="M 8.64 66.72 
L 279.36 66.72 
" clip-path="url(#p0858b535cb)" style="fill: none; stroke: #b2b2b2; stroke-opacity: 0.35; stroke-width: 0.5; stroke-linecap: square"/>
   </g>
   <g id="line2d_3">
    <path d="M 8.64 46.08 
L 279.36 46.08 
" clip-path="url(#p0858b535cb)" style="fill: none; stroke: #b2b2b2; stroke-opacity: 0.35; stroke-width: 0.5; stroke-linecap: square"/>
   </g>
   <g id="line2d_4">
    <path d="M 8.64 25.44 
L 279.36 25.44 
" clip-path="url(#p0858b535cb)" style="fill: none; stroke: #b2b2b2; stroke-opacity: 0.35; stroke-width: 0.5; stroke-linecap: square"/>
   </g>
   <g id="line2d_5">
    <path d="M 8.64 101.6532 
L 17.982341 101.4984 
L 27.183138 101.48808 
L 36.709162 101.32296 
L 46.182674 101.51904 
L 55.426258 101.7048 
L 64.866708 102.54072 
L 74.170151 103.08768 
L 83.351823 103.36632 
L 92.54376 104.22288 
L 102.079832 103.85136 
L 111.456533 103.68624 
L 120.613786 103.43856 
L 130.046024 103.81008 
L 139.43623 103.72752 
L 148.808285 103.50048 
L 158.075423 103.5108 
L 167.478596 103.31472 
L 177.124338 102.95352 
L 186.513032 102.61296 
L 195.551107 102.6336 
L 204.841801 102.9948 
L 214.397106 103.28376 
L 223.359223 103.01544 
L 232.88892 102.69552 
L 242.497602 102.582 
L 251.274955 102.88128 
L 260.643768 103.15992 
L 269.976709 103.36632 
L 279.36 103.36632 
" clip-path="url(#p0858b535cb)" style="fill: none; stroke: #bebebe; stroke-width: 0.5; stroke-linecap: round"/>
   </g>
   <g id="line2d_6">
    <path d="M 8.64 90.22896 
L 17.982341 89.82648 
L 27.183138 89.87808 
L 36.709162 89.46528 
L 46.182674 90.0432 
L 55.426258 89.96064 
L 64.866708 91.99368 
L 74.170151 93.05664 
L 83.351823 93.74808 
L 92.54376 97.02984 
L 102.079832 95.93592 
L 111.456533 95.07936 
L 120.613786 94.46016 
L 130.046024 95.47152 
L 139.43623 95.11032 
L 148.808285 94.82136 
L 158.075423 94.8936 
L 167.478596 94.70784 
L 177.124338 94.04736 
L 186.513032 93.40752 
L 195.551107 92.9844 
L 204.841801 93.93384 
L 214.397106 94.4292 
L 223.359223 94.19184 
L 232.88892 93.87192 
L 242.497602 93.81 
L 251.274955 94.03704 
L 260.643768 94.83168 
L 269.976709 95.48184 
L 279.36 96.63768 
" clip-path="url(#p0858b535cb)" style="fill: none; stroke: #4a8dff; stroke-width: 0.6"/>
   </g>
   <g id="line2d_7">
    <path d="M 8.64 99.18672 
L 17.982341 99.03192 
L 27.183138 99.1248 
L 36.709162 98.74296 
L 46.182674 99.09384 
L 55.426258 100.0536 
L 64.866708 101.23008 
L 74.170151 101.99376 
L 83.351823 102.08664 
L 92.54376 102.8916 
L 102.079832 102.45816 
L 111.456533 102.28272 
L 120.613786 102.10728 
L 130.046024 102.582 
L 139.43623 102.29304 
L 148.808285 102.08664 
L 158.075423 102.066 
L 167.478596 101.86992 
L 177.124338 101.48808 
L 186.513032 101.40552 
L 195.551107 101.4984 
L 204.841801 101.97312 
L 214.397106 102.26208 
L 223.359223 102.066 
L 232.88892 101.90088 
L 242.497602 101.90088 
L 251.274955 102.0144 
L 260.643768 102.25176 
L 269.976709 102.6336 
L 279.36 102.88128 
" clip-path="url(#p0858b535cb)" style="fill: none; stroke: #f5841e; stroke-width: 0.6"/>
   </g>
  </g>
 </g>
 <defs>
  <clipPath id="p0858b535cb">
   <rect x="8.64" y="4.8" width="270.72" height="103.2"/>
  </clipPath>
 </defs>
</svg>
