<?xml version="1.0" encoding="utf-8" standalone="no"?>
<!DOCTYPE svg PUBLIC "-//W3C//DTD SVG 1.1//EN"
  "http://www.w3.org/Graphics/SVG/1.1/DTD/svg11.dtd">
<svg xmlns:xlink="http://www.w3.org/1999/xlink" width="288pt" height="120pt" viewBox="0 0 288 120" xmlns="http://www.w3.org/2000/svg" version="1.1">
<desc id="nav-meta">{"window":"3m","count":4,"labels":["19.01","18.02","19.03","18.04"],"tick_utc":["2026-01-19T12:00:00Z","2026-02-18T03:30:34Z","2026-03-19T03:32:50Z","2026-04-18T03:39:51Z"],"w":720,"h":300}</desc>

 <metadata>
  <rdf:RDF xmlns:dc="http://purl.org/dc/elements/1.1/" xmlns:cc="http://creativecommons.org/ns#" xmlns:rdf="http://www.w3.org/1999/02/22-rdf-syntax-ns#">
   <cc:Work>
    <dc:type rdf:resource="http://purl.org/dc/dcmitype/StillImage"/>
    <dc:date>2026-04-18T13:47:39.479761</dc:date>
    <dc:format>image/svg+xml</dc:format>
    <dc:creator>
     <cc:Agent>
      <dc:title>Matplotlib v3.10.8, https://matplotlib.org/</dc:title>
     </cc:Agent>
    </dc:creator>
   </cc:Work>
  </rdf:RDF>
 </metadata>
 <defs>
  <style type="text/css">*{stroke-linejoin: round; stroke-linecap: butt}</style>
 </defs>
 <g id="figure_1">
  <g id="patch_1">
   <path d="M 0 120 
L 288 120 
L 288 0 
L 0 0 
L 0 120 
z
" style="fill: none; opacity: 0"/>
  </g>
  <g id="axes_1">
   <g id="patch_2">
    <path d="M 8.64 108 
L 279.36 108 
L 279.36 4.8 
L 8.64 4.8 
L 8.64 108 
z
" style="fill: none"/>
   </g>
   <g id="matplotlib.axis_1"/>
   <g id="matplotlib.axis_2"/>
   <g id="line2d_1">
    <path d="M 8.64 87.36 
L 279.36 87.36 
" clip-path="url(#pa632389426)" style="fill: none; stroke: #b2b2b2; stroke-opacity: 0.35; stroke-width: 0.5; stroke-linecap: square"/>
   </g>
   <g id="line2d_2">
    <path d="M 8.64 66.72 
L 279.36 66.72 
" clip-path="url(#pa632389426)" style="fill: none; stroke: #b2b2b2; stroke-opacity: 0.35; stroke-width: 0.5; stroke-linecap: square"/>
   </g>
   <g id="line2d_3">
    <path d="M 8.64 46.08 
L 279.36 46.08 
" clip-path="url(#pa632389426)" style="fill: none; stroke: #b2b2b2; stroke-opacity: 0.35; stroke-width: 0.5; stroke-linecap: square"/>
   </g>
   <g id="line2d_4">
    <path d="M 8.64 25.44 
L 279.36 25.44 
" clip-path="url(#pa632389426)" style="fill: none; stroke: #b2b2b2; stroke-opacity: 0.35; stroke-width: 0.5; stroke-linecap: square"/>
   </g>
   <g id="line2d_5">
    <path d="M 8.64 88.63968 
L 11.693715 90.0432 
L 14.74743 92.12784 
L 17.801145 91.16808 
L 20.85486 91.46736 
L 23.908575 91.73568 
L 26.96229 91.78728 
L 30.016005 94.0164 
L 33.06972 92.5716 
L 36.123435 91.76664 
L 39.17715 92.33424 
L 42.230865 94.36728 
L 45.28458 94.46016 
L 48.338295 97.71096 
L 51.39201 98.48496 
L 54.445725 97.85544 
L 57.023746 99.10416 
L 59.450495 100.16712 
L 62.502655 102.23112 
L 65.543293 100.54896 
L 68.666812 100.70376 
L 71.695327 100.68312 
L 74.766467 100.95144 
L 77.813855 101.28168 
L 80.856578 101.71512 
L 83.909374 101.84928 
L 86.926367 101.034 
L 89.818949 100.54896 
L 93.06854 101.04432 
L 95.738667 100.81728 
L 99.171128 101.034 
L 102.221132 101.4984 
L 105.256998 101.33328 
L 108.292052 101.1372 
L 111.380651 101.06496 
L 114.443555 102.09696 
L 117.239295 102.05568 
L 120.539993 101.4984 
L 123.580101 100.60056 
L 126.62802 100.80696 
L 129.645755 101.45712 
L 132.76885 100.55928 
L 135.791038 101.10624 
L 138.851857 100.8792 
L 141.888466 100.74504 
L 144.948755 100.21872 
L 148.001021 100.53864 
L 151.031303 101.07528 
L 154.114671 101.38488 
L 157.17754 101.26104 
L 160.211639 100.78632 
L 163.264153 100.91016 
L 166.329885 100.99272 
L 169.377697 100.38384 
L 172.427348 100.50768 
L 175.539486 100.60056 
L 178.601825 99.76464 
L 181.6021 99.49632 
L 184.679107 99.40344 
L 187.73367 100.09488 
L 190.757661 100.3632 
L 193.793492 100.19808 
L 196.892871 100.47672 
L 199.953761 100.79664 
L 202.979201 100.26 
L 206.260354 99.83688 
L 209.123777 100.13616 
L 212.181345 100.80696 
L 215.205866 101.38488 
L 218.30118 101.3436 
L 221.363625 101.292 
L 224.398078 101.28168 
L 227.477983 101.28168 
L 230.491476 101.8596 
L 233.548691 101.88024 
L 236.576251 101.72544 
L 239.675948 101.68416 
L 242.737545 101.47776 
L 245.771432 101.78736 
L 248.830095 101.09592 
L 251.873172 101.46744 
L 254.954985 101.3436 
L 257.962011 101.05464 
L 261.070509 101.3952 
L 264.139881 101.47776 
L 267.174157 100.86888 
L 270.22554 101.26104 
L 273.292473 100.99272 
L 276.339968 100.61088 
L 279.36 100.44576 
" clip-path="url(#pa632389426)" style="fill: none; stroke: #bebebe; stroke-width: 0.5; stroke-linecap: round"/>
   </g>
   <g id="line2d_6">
    <path d="M 8.64 70.848 
L 11.693715 72.31344 
L 14.74743 76.01832 
L 17.801145 75.41976 
L 20.85486 75.83256 
L 23.908575 75.79128 
L 26.96229 75.82224 
L 30.016005 77.82432 
L 33.06972 76.14216 
L 36.123435 74.75928 
L 39.17715 74.96568 
L 42.230865 77.75208 
L 45.28458 79.48584 
L 48.338295 83.31456 
L 51.39201 85.90488 
L 54.445725 84.79032 
L 57.023746 85.84296 
L 59.450495 88.25784 
L 62.502655 91.41576 
L 65.543293 88.7532 
L 68.666812 88.65 
L 71.695327 88.55712 
L 74.766467 88.96992 
L 77.813855 89.7336 
L 80.856578 90.456 
L 83.909374 90.56952 
L 86.926367 89.15568 
L 89.818949 88.9596 
L 93.06854 90.6624 
L 95.738667 89.94 
L 99.171128 90.00192 
L 102.221132 90.3528 
L 105.256998 90.62112 
L 108.292052 90.5076 
L 111.380651 90.3528 
L 114.443555 92.004 
L 117.239295 92.13816 
L 120.539993 91.25064 
L 123.580101 89.166 
L 126.62802 89.56848 
L 129.645755 90.93072 
L 132.76885 89.41368 
L 135.791038 90.37344 
L 138.851857 89.79552 
L 141.888466 90.23928 
L 144.948755 88.0824 
L 148.001021 88.7532 
L 151.031303 90.16704 
L 154.114671 90.67272 
L 157.17754 90.18768 
L 160.211639 89.2692 
L 163.264153 89.54784 
L 166.329885 89.49624 
L 169.377697 88.31976 
L 172.427348 88.45392 
L 175.539486 88.46424 
L 178.601825 86.38992 
L 181.6021 84.80064 
L 184.679107 84.8316 
L 187.73367 86.586 
L 190.757661 87.74184 
L 193.793492 87.618 
L 196.892871 88.19592 
L 199.953761 89.08344 
L 202.979201 87.89664 
L 206.260354 87.3084 
L 209.123777 87.65928 
L 212.181345 88.96992 
L 215.205866 90.07416 
L 218.30118 89.76456 
L 221.363625 89.3724 
L 224.398078 89.00088 
L 227.477983 88.42296 
L 230.491476 88.81512 
L 233.548691 89.10408 
L 236.576251 89.14536 
L 239.675948 89.07312 
L 242.737545 87.9792 
L 245.771432 88.29912 
L 248.830095 86.38992 
L 251.873172 87.24648 
L 254.954985 87.1536 
L 257.962011 86.21448 
L 261.070509 86.66856 
L 264.139881 87.01944 
L 267.174157 84.44976 
L 270.22554 85.05864 
L 273.292473 84.58392 
L 276.339968 85.04832 
L 279.36 83.71704 
" clip-path="url(#pa632389426)" style="fill: none; stroke: #4a8dff; stroke-width: 0.6"/>
   </g>
   <g id="line2d_7">
    <path d="M 8.64 79.5684 
L 11.693715 80.8068 
L 14.74743 85.20312 
L 17.801145 84.12984 
L 20.85486 84.03696 
L 23.908575 84.06792 
L 26.96229 84.3156 
L 30.016005 87.02976 
L 33.06972 85.21344 
L 36.123435 84.28464 
L 39.17715 84.32592 
L 42.230865 89.08344 
L 45.28458 89.5272 
L 48.338295 95.14128 
L 51.39201 96.98856 
L 54.445725 95.08968 
L 57.023746 97.71096 
L 59.450495 99.80592 
L 62.502655 101.79768 
L 65.543293 100.03296 
L 68.666812 100.518 
L 71.695327 99.98136 
L 74.766467 100.49736 
L 77.813855 100.78632 
L 80.856578 101.07528 
L 83.909374 101.26104 
L 86.926367 100.63152 
L 89.818949 100.38384 
L 93.06854 100.84824 
L 95.738667 100.65216 
L 99.171128 101.034 
L 102.221132 101.19912 
L 105.256998 101.10624 
L 108.292052 100.97208 
L 111.380651 100.91016 
L 114.443555 101.7564 
L 117.239295 101.84928 
L 120.539993 101.56032 
L 123.580101 100.85856 
L 126.62802 101.12688 
L 129.645755 101.4468 
L 132.76885 101.02368 
L 135.791038 101.30232 
L 138.851857 100.81728 
L 141.888466 100.79664 
L 144.948755 99.3312 
L 148.001021 99.92976 
L 151.031303 100.78632 
L 154.114671 101.17848 
L 157.17754 101.1372 
L 160.211639 100.21872 
L 163.264153 100.37352 
L 166.329885 100.4664 
L 169.377697 99.88848 
L 172.427348 99.94008 
L 175.539486 99.81624 
L 178.601825 98.93904 
L 181.6021 98.3508 
L 184.679107 98.52624 
L 187.73367 99.78528 
L 190.757661 100.12584 
L 193.793492 100.03296 
L 196.892871 100.45608 
L 199.953761 100.83792 
L 202.979201 100.11552 
L 206.260354 99.87816 
L 209.123777 100.002 
L 212.181345 100.64184 
L 215.205866 101.41584 
L 218.30118 101.21976 
L 221.363625 101.14752 
L 224.398078 101.00304 
L 227.477983 100.86888 
L 230.491476 101.21976 
L 233.548691 101.28168 
L 236.576251 101.20944 
L 239.675948 101.14752 
L 242.737545 100.55928 
L 245.771432 100.65216 
L 248.830095 99.80592 
L 251.873172 99.96072 
L 254.954985 99.6408 
L 257.962011 99.1764 
L 261.070509 99.70272 
L 264.139881 99.94008 
L 267.174157 98.57784 
L 270.22554 98.65008 
L 273.292473 98.38176 
L 276.339968 98.48496 
L 279.36 96.70992 
" clip-path="url(#pa632389426)" style="fill: none; stroke: #f5841e; stroke-width: 0.6"/>
   </g>
  </g>
 </g>
 <defs>
  <clipPath id="pa632389426">
   <rect x="8.64" y="4.8" width="270.72" height="103.2"/>
  </clipPath>
 </defs>
</svg>
