<?xml version="1.0" encoding="utf-8" standalone="no"?>
<!DOCTYPE svg PUBLIC "-//W3C//DTD SVG 1.1//EN"
  "http://www.w3.org/Graphics/SVG/1.1/DTD/svg11.dtd">
<svg xmlns:xlink="http://www.w3.org/1999/xlink" width="288pt" height="120pt" viewBox="0 0 288 120" xmlns="http://www.w3.org/2000/svg" version="1.1">
<desc id="nav-meta">{"window":"1m","count":4,"labels":["02.06","12.06","22.06","02.07"],"tick_utc":["2026-06-02T05:15:35Z","2026-06-12T05:19:52Z","2026-06-22T06:11:33Z","2026-07-02T04:45:46Z"],"w":720,"h":300}</desc>

 <metadata>
  <rdf:RDF xmlns:dc="http://purl.org/dc/elements/1.1/" xmlns:cc="http://creativecommons.org/ns#" xmlns:rdf="http://www.w3.org/1999/02/22-rdf-syntax-ns#">
   <cc:Work>
    <dc:type rdf:resource="http://purl.org/dc/dcmitype/StillImage"/>
    <dc:date>2026-07-02T04:45:51.754175</dc:date>
    <dc:format>image/svg+xml</dc:format>
    <dc:creator>
     <cc:Agent>
      <dc:title>Matplotlib v3.11.0, https://matplotlib.org/</dc:title>
     </cc:Agent>
    </dc:creator>
   </cc:Work>
  </rdf:RDF>
 </metadata>
 <defs>
  <style type="text/css">*{stroke-linejoin: round; stroke-linecap: butt}</style>
 </defs>
 <g id="figure_1">
  <g id="patch_1">
   <path d="M 0 120 
L 288 120 
L 288 0 
L 0 0 
L 0 120 
z
" style="fill: none; opacity: 0"/>
  </g>
  <g id="axes_1">
   <g id="patch_2">
    <path d="M 8.64 108 
L 279.36 108 
L 279.36 4.8 
L 8.64 4.8 
L 8.64 108 
z
" style="fill: none"/>
   </g>
   <g id="matplotlib.axis_1"/>
   <g id="matplotlib.axis_2"/>
   <g id="line2d_1">
    <path d="M 8.64 87.36 
L 279.36 87.36 
" clip-path="url(#pc61c6336a2)" style="fill: none; stroke: #b2b2b2; stroke-opacity: 0.35; stroke-width: 0.5; stroke-linecap: square"/>
   </g>
   <g id="line2d_2">
    <path d="M 8.64 66.72 
L 279.36 66.72 
" clip-path="url(#pc61c6336a2)" style="fill: none; stroke: #b2b2b2; stroke-opacity: 0.35; stroke-width: 0.5; stroke-linecap: square"/>
   </g>
   <g id="line2d_3">
    <path d="M 8.64 46.08 
L 279.36 46.08 
" clip-path="url(#pc61c6336a2)" style="fill: none; stroke: #b2b2b2; stroke-opacity: 0.35; stroke-width: 0.5; stroke-linecap: square"/>
   </g>
   <g id="line2d_4">
    <path d="M 8.64 25.44 
L 279.36 25.44 
" clip-path="url(#pc61c6336a2)" style="fill: none; stroke: #b2b2b2; stroke-opacity: 0.35; stroke-width: 0.5; stroke-linecap: square"/>
   </g>
   <g id="line2d_5">
    <path d="M 8.64 101.7048 
L 17.771823 102.54072 
L 26.771119 103.08768 
L 35.652624 103.36632 
L 44.544059 104.22288 
L 53.768379 103.85136 
L 62.838537 103.68624 
L 71.696422 103.43856 
L 80.820301 103.81008 
L 89.903524 103.72752 
L 98.969187 103.50048 
L 107.933366 103.5108 
L 117.02913 103.31472 
L 126.359535 102.95352 
L 135.441294 102.61296 
L 144.183897 102.6336 
L 153.17086 102.9948 
L 162.413784 103.28376 
L 171.082912 103.01544 
L 180.301065 102.69552 
L 189.59562 102.582 
L 198.086025 102.88128 
L 207.148553 103.15992 
L 216.176382 103.36632 
L 225.252915 103.36632 
L 234.172465 102.81936 
L 243.374836 103.0464 
L 252.470392 102.9432 
L 261.325559 102.59232 
L 270.487901 102.40656 
L 279.36 102.02472 
" clip-path="url(#pc61c6336a2)" style="fill: none; stroke: #bebebe; stroke-width: 0.5; stroke-linecap: round"/>
   </g>
   <g id="line2d_6">
    <path d="M 8.64 89.96064 
L 17.771823 91.99368 
L 26.771119 93.05664 
L 35.652624 93.74808 
L 44.544059 97.02984 
L 53.768379 95.93592 
L 62.838537 95.07936 
L 71.696422 94.46016 
L 80.820301 95.47152 
L 89.903524 95.11032 
L 98.969187 94.82136 
L 107.933366 94.8936 
L 117.02913 94.70784 
L 126.359535 94.04736 
L 135.441294 93.40752 
L 144.183897 92.9844 
L 153.17086 93.93384 
L 162.413784 94.4292 
L 171.082912 94.19184 
L 180.301065 93.87192 
L 189.59562 93.81 
L 198.086025 94.03704 
L 207.148553 94.83168 
L 216.176382 95.48184 
L 225.252915 96.63768 
L 234.172465 96.14232 
L 243.374836 96.30744 
L 252.470392 96.29712 
L 261.325559 96.04944 
L 270.487901 95.9256 
L 279.36 95.39928 
" clip-path="url(#pc61c6336a2)" style="fill: none; stroke: #4a8dff; stroke-width: 0.6"/>
   </g>
   <g id="line2d_7">
    <path d="M 8.64 100.0536 
L 17.771823 101.23008 
L 26.771119 101.99376 
L 35.652624 102.08664 
L 44.544059 102.8916 
L 53.768379 102.45816 
L 62.838537 102.28272 
L 71.696422 102.10728 
L 80.820301 102.582 
L 89.903524 102.29304 
L 98.969187 102.08664 
L 107.933366 102.066 
L 117.02913 101.86992 
L 126.359535 101.48808 
L 135.441294 101.40552 
L 144.183897 101.4984 
L 153.17086 101.97312 
L 162.413784 102.26208 
L 171.082912 102.066 
L 180.301065 101.90088 
L 189.59562 101.90088 
L 198.086025 102.0144 
L 207.148553 102.25176 
L 216.176382 102.6336 
L 225.252915 102.88128 
L 234.172465 102.77808 
L 243.374836 102.85032 
L 252.470392 102.93288 
L 261.325559 102.95352 
L 270.487901 103.00512 
L 279.36 102.69552 
" clip-path="url(#pc61c6336a2)" style="fill: none; stroke: #f5841e; stroke-width: 0.6"/>
   </g>
  </g>
 </g>
 <defs>
  <clipPath id="pc61c6336a2">
   <rect x="8.64" y="4.8" width="270.72" height="103.2"/>
  </clipPath>
 </defs>
</svg>
