<?xml version="1.0" encoding="utf-8" standalone="no"?>
<!DOCTYPE svg PUBLIC "-//W3C//DTD SVG 1.1//EN"
  "http://www.w3.org/Graphics/SVG/1.1/DTD/svg11.dtd">
<svg xmlns:xlink="http://www.w3.org/1999/xlink" width="288pt" height="120pt" viewBox="0 0 288 120" xmlns="http://www.w3.org/2000/svg" version="1.1">
<desc id="nav-meta">{"window":"3m","count":4,"labels":["17.11","17.12","15.01","14.02"],"tick_utc":["2025-11-17T12:00:00Z","2025-12-17T12:00:00Z","2026-01-15T12:00:00Z","2026-02-14T03:16:28Z"],"w":720,"h":300}</desc>

 <metadata>
  <rdf:RDF xmlns:dc="http://purl.org/dc/elements/1.1/" xmlns:cc="http://creativecommons.org/ns#" xmlns:rdf="http://www.w3.org/1999/02/22-rdf-syntax-ns#">
   <cc:Work>
    <dc:type rdf:resource="http://purl.org/dc/dcmitype/StillImage"/>
    <dc:date>2026-02-14T13:31:17.160320</dc:date>
    <dc:format>image/svg+xml</dc:format>
    <dc:creator>
     <cc:Agent>
      <dc:title>Matplotlib v3.10.8, https://matplotlib.org/</dc:title>
     </cc:Agent>
    </dc:creator>
   </cc:Work>
  </rdf:RDF>
 </metadata>
 <defs>
  <style type="text/css">*{stroke-linejoin: round; stroke-linecap: butt}</style>
 </defs>
 <g id="figure_1">
  <g id="patch_1">
   <path d="M 0 120 
L 288 120 
L 288 0 
L 0 0 
L 0 120 
z
" style="fill: none; opacity: 0"/>
  </g>
  <g id="axes_1">
   <g id="patch_2">
    <path d="M 8.64 108 
L 279.36 108 
L 279.36 4.8 
L 8.64 4.8 
L 8.64 108 
z
" style="fill: none"/>
   </g>
   <g id="matplotlib.axis_1"/>
   <g id="matplotlib.axis_2"/>
   <g id="line2d_1">
    <path d="M 8.64 87.36 
L 279.36 87.36 
" clip-path="url(#p3390c3f2c0)" style="fill: none; stroke: #b2b2b2; stroke-opacity: 0.35; stroke-width: 0.5; stroke-linecap: square"/>
   </g>
   <g id="line2d_2">
    <path d="M 8.64 66.72 
L 279.36 66.72 
" clip-path="url(#p3390c3f2c0)" style="fill: none; stroke: #b2b2b2; stroke-opacity: 0.35; stroke-width: 0.5; stroke-linecap: square"/>
   </g>
   <g id="line2d_3">
    <path d="M 8.64 46.08 
L 279.36 46.08 
" clip-path="url(#p3390c3f2c0)" style="fill: none; stroke: #b2b2b2; stroke-opacity: 0.35; stroke-width: 0.5; stroke-linecap: square"/>
   </g>
   <g id="line2d_4">
    <path d="M 8.64 25.44 
L 279.36 25.44 
" clip-path="url(#p3390c3f2c0)" style="fill: none; stroke: #b2b2b2; stroke-opacity: 0.35; stroke-width: 0.5; stroke-linecap: square"/>
   </g>
   <g id="line2d_5">
    <path d="M 8.64 88.93896 
L 11.694274 90.79656 
L 14.748549 88.09272 
L 17.802823 89.22792 
L 20.857098 90.00192 
L 23.911372 91.39512 
L 26.965647 91.63248 
L 30.019921 90.75528 
L 33.074196 88.7016 
L 36.12847 88.52616 
L 39.182745 87.45288 
L 42.237019 88.0308 
L 45.291293 88.94928 
L 48.345568 89.3208 
L 51.399842 89.7336 
L 54.454117 91.86984 
L 57.508391 88.60872 
L 60.562666 86.87496 
L 63.61694 88.52616 
L 66.671215 90.11544 
L 69.725489 90.38376 
L 72.779764 90.53856 
L 75.834038 90.08448 
L 78.888313 88.79448 
L 81.942587 89.20728 
L 84.996861 89.22792 
L 88.051136 90.31152 
L 91.10541 90.10512 
L 94.159685 91.09584 
L 97.213959 91.61184 
L 100.268234 91.31256 
L 103.322508 92.87088 
L 106.376783 93.8616 
L 109.431057 92.02464 
L 112.485332 92.13816 
L 115.539606 92.07624 
L 118.59388 92.14848 
L 121.648155 92.64384 
L 124.702429 93.01536 
L 127.756704 93.69648 
L 130.810978 93.11856 
L 133.865253 92.44776 
L 136.919527 92.30328 
L 139.973802 92.87088 
L 143.028076 92.38584 
L 146.082351 92.47872 
L 149.136625 91.88016 
L 152.1909 90.42504 
L 155.245174 90.08448 
L 158.299448 89.92968 
L 161.353723 88.76352 
L 164.407997 87.94824 
L 167.462272 89.2692 
L 170.516546 88.72224 
L 173.570821 89.39304 
L 176.625095 89.40336 
L 179.67937 88.41264 
L 182.733644 88.4952 
L 185.787919 86.86464 
L 188.842193 86.42088 
L 191.896467 87.62832 
L 194.950742 86.93688 
L 198.005016 87.23616 
L 201.059291 88.63968 
L 204.113565 90.0432 
L 207.16784 92.12784 
L 210.222114 91.16808 
L 213.276389 91.46736 
L 216.330663 91.73568 
L 219.384938 91.78728 
L 222.439212 94.0164 
L 225.493486 92.5716 
L 228.547761 91.76664 
L 231.602035 92.33424 
L 234.65631 94.36728 
L 237.710584 94.46016 
L 240.764859 97.71096 
L 243.819133 98.48496 
L 246.873408 97.85544 
L 249.451901 99.10416 
L 251.879095 100.16712 
L 254.931814 102.23112 
L 257.973009 100.54896 
L 261.0971 100.70376 
L 264.12617 100.68312 
L 267.197872 100.95144 
L 270.245819 101.28168 
L 273.289099 101.71512 
L 276.342455 101.84928 
L 279.36 101.034 
" clip-path="url(#p3390c3f2c0)" style="fill: none; stroke: #bebebe; stroke-width: 0.5; stroke-linecap: round"/>
   </g>
   <g id="line2d_6">
    <path d="M 8.64 73.56216 
L 11.694274 74.74896 
L 14.748549 73.3248 
L 17.802823 74.80056 
L 20.857098 77.556 
L 23.911372 78.55704 
L 26.965647 78.50544 
L 30.019921 78.04104 
L 33.074196 75.76032 
L 36.12847 75.73968 
L 39.182745 74.65608 
L 42.237019 74.83152 
L 45.291293 74.57352 
L 48.345568 75.20304 
L 51.399842 75.17208 
L 54.454117 78.05136 
L 57.508391 75.1308 
L 60.562666 72.16896 
L 63.61694 73.08744 
L 66.671215 74.72832 
L 69.725489 74.48064 
L 72.779764 74.28456 
L 75.834038 73.21128 
L 78.888313 70.2804 
L 81.942587 70.2288 
L 84.996861 71.56008 
L 88.051136 73.79952 
L 91.10541 73.35576 
L 94.159685 74.0988 
L 97.213959 75.5952 
L 100.268234 75.5952 
L 103.322508 77.61792 
L 106.376783 77.63856 
L 109.431057 75.40944 
L 112.485332 75.40944 
L 115.539606 75.04824 
L 118.59388 74.98632 
L 121.648155 75.58488 
L 124.702429 75.87384 
L 127.756704 76.49304 
L 130.810978 76.15248 
L 133.865253 75.82224 
L 136.919527 75.84288 
L 139.973802 76.03896 
L 143.028076 75.51264 
L 146.082351 75.56424 
L 149.136625 75.05856 
L 152.1909 73.26288 
L 155.245174 73.20096 
L 158.299448 73.00488 
L 161.353723 71.68392 
L 164.407997 70.6932 
L 167.462272 72.62304 
L 170.516546 73.52088 
L 173.570821 73.83048 
L 176.625095 73.8408 
L 179.67937 73.29384 
L 182.733644 73.72728 
L 185.787919 70.32168 
L 188.842193 69.77472 
L 191.896467 70.34232 
L 194.950742 70.67256 
L 198.005016 70.51776 
L 201.059291 70.848 
L 204.113565 72.31344 
L 207.16784 76.01832 
L 210.222114 75.41976 
L 213.276389 75.83256 
L 216.330663 75.79128 
L 219.384938 75.82224 
L 222.439212 77.82432 
L 225.493486 76.14216 
L 228.547761 74.75928 
L 231.602035 74.96568 
L 234.65631 77.75208 
L 237.710584 79.48584 
L 240.764859 83.31456 
L 243.819133 85.90488 
L 246.873408 84.79032 
L 249.451901 85.84296 
L 251.879095 88.25784 
L 254.931814 91.41576 
L 257.973009 88.7532 
L 261.0971 88.65 
L 264.12617 88.55712 
L 267.197872 88.96992 
L 270.245819 89.7336 
L 273.289099 90.456 
L 276.342455 90.56952 
L 279.36 89.15568 
" clip-path="url(#p3390c3f2c0)" style="fill: none; stroke: #4a8dff; stroke-width: 0.6"/>
   </g>
   <g id="line2d_7">
    <path d="M 8.64 78.88728 
L 11.694274 81.34344 
L 14.748549 80.53848 
L 17.802823 82.0452 
L 20.857098 86.92656 
L 23.911372 88.58808 
L 26.965647 88.96992 
L 30.019921 86.7924 
L 33.074196 85.296 
L 36.12847 86.24544 
L 39.182745 82.96368 
L 42.237019 82.13808 
L 45.291293 82.47864 
L 48.345568 82.58184 
L 51.399842 83.03592 
L 54.454117 87.3084 
L 57.508391 82.06584 
L 60.562666 79.71288 
L 63.61694 81.24024 
L 66.671215 84.17112 
L 69.725489 84.24336 
L 72.779764 83.29392 
L 75.834038 82.8192 
L 78.888313 80.64168 
L 81.942587 81.38472 
L 84.996861 80.87904 
L 88.051136 83.13912 
L 91.10541 83.19072 
L 94.159685 85.296 
L 97.213959 87.17424 
L 100.268234 85.71912 
L 103.322508 87.53544 
L 106.376783 88.17528 
L 109.431057 85.41984 
L 112.485332 85.17216 
L 115.539606 84.9348 
L 118.59388 85.01736 
L 121.648155 86.14224 
L 124.702429 85.90488 
L 127.756704 86.328 
L 130.810978 86.24544 
L 133.865253 85.72944 
L 136.919527 85.7088 
L 139.973802 86.40024 
L 143.028076 85.09992 
L 146.082351 86.02872 
L 149.136625 84.78 
L 152.1909 83.53128 
L 155.245174 82.83984 
L 158.299448 82.03488 
L 161.353723 79.39296 
L 164.407997 79.66128 
L 167.462272 82.15872 
L 170.516546 82.43736 
L 173.570821 82.93272 
L 176.625095 83.00496 
L 179.67937 82.6128 
L 182.733644 82.28256 
L 185.787919 78.01008 
L 188.842193 76.19376 
L 191.896467 77.66952 
L 194.950742 77.74176 
L 198.005016 78.1752 
L 201.059291 79.5684 
L 204.113565 80.8068 
L 207.16784 85.20312 
L 210.222114 84.12984 
L 213.276389 84.03696 
L 216.330663 84.06792 
L 219.384938 84.3156 
L 222.439212 87.02976 
L 225.493486 85.21344 
L 228.547761 84.28464 
L 231.602035 84.32592 
L 234.65631 89.08344 
L 237.710584 89.5272 
L 240.764859 95.14128 
L 243.819133 96.98856 
L 246.873408 95.08968 
L 249.451901 97.71096 
L 251.879095 99.80592 
L 254.931814 101.79768 
L 257.973009 100.03296 
L 261.0971 100.518 
L 264.12617 99.98136 
L 267.197872 100.49736 
L 270.245819 100.78632 
L 273.289099 101.07528 
L 276.342455 101.26104 
L 279.36 100.63152 
" clip-path="url(#p3390c3f2c0)" style="fill: none; stroke: #f5841e; stroke-width: 0.6"/>
   </g>
  </g>
 </g>
 <defs>
  <clipPath id="p3390c3f2c0">
   <rect x="8.64" y="4.8" width="270.72" height="103.2"/>
  </clipPath>
 </defs>
</svg>
