<?xml version="1.0" encoding="utf-8" standalone="no"?>
<!DOCTYPE svg PUBLIC "-//W3C//DTD SVG 1.1//EN"
  "http://www.w3.org/Graphics/SVG/1.1/DTD/svg11.dtd">
<svg xmlns:xlink="http://www.w3.org/1999/xlink" width="288pt" height="120pt" viewBox="0 0 288 120" xmlns="http://www.w3.org/2000/svg" version="1.1">
<desc id="nav-meta">{"window":"1y","count":4,"labels":["15.02","16.06","15.10","14.02"],"tick_utc":["2025-02-15T12:00:00Z","2025-06-16T12:00:00Z","2025-10-15T12:00:00Z","2026-02-14T03:16:28Z"],"w":720,"h":300}</desc>

 <metadata>
  <rdf:RDF xmlns:dc="http://purl.org/dc/elements/1.1/" xmlns:cc="http://creativecommons.org/ns#" xmlns:rdf="http://www.w3.org/1999/02/22-rdf-syntax-ns#">
   <cc:Work>
    <dc:type rdf:resource="http://purl.org/dc/dcmitype/StillImage"/>
    <dc:date>2026-02-14T18:38:55.476809</dc:date>
    <dc:format>image/svg+xml</dc:format>
    <dc:creator>
     <cc:Agent>
      <dc:title>Matplotlib v3.10.8, https://matplotlib.org/</dc:title>
     </cc:Agent>
    </dc:creator>
   </cc:Work>
  </rdf:RDF>
 </metadata>
 <defs>
  <style type="text/css">*{stroke-linejoin: round; stroke-linecap: butt}</style>
 </defs>
 <g id="figure_1">
  <g id="patch_1">
   <path d="M 0 120 
L 288 120 
L 288 0 
L 0 0 
L 0 120 
z
" style="fill: none; opacity: 0"/>
  </g>
  <g id="axes_1">
   <g id="patch_2">
    <path d="M 8.64 108 
L 279.36 108 
L 279.36 4.8 
L 8.64 4.8 
L 8.64 108 
z
" style="fill: none"/>
   </g>
   <g id="matplotlib.axis_1"/>
   <g id="matplotlib.axis_2"/>
   <g id="line2d_1">
    <path d="M 8.64 87.36 
L 279.36 87.36 
" clip-path="url(#pe1bc7bef7a)" style="fill: none; stroke: #b2b2b2; stroke-opacity: 0.35; stroke-width: 0.5; stroke-linecap: square"/>
   </g>
   <g id="line2d_2">
    <path d="M 8.64 66.72 
L 279.36 66.72 
" clip-path="url(#pe1bc7bef7a)" style="fill: none; stroke: #b2b2b2; stroke-opacity: 0.35; stroke-width: 0.5; stroke-linecap: square"/>
   </g>
   <g id="line2d_3">
    <path d="M 8.64 46.08 
L 279.36 46.08 
" clip-path="url(#pe1bc7bef7a)" style="fill: none; stroke: #b2b2b2; stroke-opacity: 0.35; stroke-width: 0.5; stroke-linecap: square"/>
   </g>
   <g id="line2d_4">
    <path d="M 8.64 25.44 
L 279.36 25.44 
" clip-path="url(#pe1bc7bef7a)" style="fill: none; stroke: #b2b2b2; stroke-opacity: 0.35; stroke-width: 0.5; stroke-linecap: square"/>
   </g>
   <g id="line2d_5">
    <path d="M 8.64 71.95224 
L 9.38448 73.3764 
L 10.12896 75.08952 
L 11.617919 80.30112 
L 12.362399 80.25984 
L 13.106879 78.41256 
L 13.851359 80.33208 
L 14.595839 79.45488 
L 15.340319 80.57976 
L 16.084799 87.93792 
L 16.829278 87.06072 
L 17.573758 89.71296 
L 18.318238 88.908 
L 19.062718 86.0184 
L 19.807198 87.31872 
L 20.551678 77.82432 
L 21.296158 87.5664 
L 22.040637 86.86464 
L 22.785117 86.56536 
L 23.529597 87.3084 
L 24.274077 88.47456 
L 25.018557 89.10408 
L 25.763037 91.9008 
L 26.507516 94.04736 
L 27.251996 92.23104 
L 27.996476 91.92144 
L 28.740956 92.8296 
L 29.485436 90.01224 
L 30.229916 89.39304 
L 30.974396 92.03496 
L 31.718875 91.45704 
L 32.463355 92.262 
L 33.207835 89.44464 
L 33.952315 91.62216 
L 34.696795 91.46736 
L 35.441275 91.42608 
L 36.185755 90.41472 
L 36.930234 88.09272 
L 37.674714 87.17424 
L 38.419194 89.04216 
L 39.163674 88.69128 
L 39.908154 91.13712 
L 40.652634 92.48904 
L 42.141593 92.38584 
L 42.886073 91.85952 
L 43.630553 94.24344 
L 44.375033 94.4808 
L 45.119513 92.97408 
L 45.863993 93.67584 
L 46.608473 97.60776 
L 47.352952 97.32912 
L 48.097432 97.68 
L 48.841912 94.00608 
L 49.586392 95.65728 
L 50.330872 93.33528 
L 51.075352 90.39408 
L 51.819832 91.46736 
L 52.564311 91.14744 
L 53.308791 91.99368 
L 54.053271 90.57984 
L 54.797751 89.72328 
L 55.542231 89.89872 
L 56.286711 88.35072 
L 57.03119 88.89768 
L 57.77567 89.25888 
L 58.52015 85.84296 
L 59.26463 85.2444 
L 60.00911 84.8832 
L 62.242549 85.99776 
L 62.987029 86.07 
L 63.731509 86.4828 
L 64.475989 86.14224 
L 65.220469 85.31664 
L 65.964949 86.07 
L 66.709429 86.38992 
L 67.453908 87.16392 
L 68.198388 86.38992 
L 69.687348 86.28672 
L 70.431828 81.84912 
L 71.176308 79.32072 
L 71.920788 78.05136 
L 72.665267 79.26912 
L 73.409747 78.846 
L 74.154227 76.2144 
L 75.643187 80.394 
L 76.387667 80.66232 
L 77.132147 81.168 
L 77.876626 79.63032 
L 78.621106 80.95128 
L 79.365586 80.4972 
L 80.854546 77.43216 
L 81.599026 78.846 
L 82.343505 78.41256 
L 83.087985 78.64992 
L 83.832465 78.76344 
L 84.576945 78.25776 
L 85.321425 79.47552 
L 86.065905 80.92032 
L 86.810385 83.73768 
L 87.554864 83.6448 
L 88.299344 83.4384 
L 89.043824 83.61384 
L 89.788304 83.99568 
L 90.532784 84.55296 
L 91.277264 87.00912 
L 92.021744 85.98744 
L 92.766223 85.5024 
L 93.510703 84.8316 
L 94.255183 82.46832 
L 94.999663 81.426 
L 95.744143 82.5096 
L 96.488623 84.79032 
L 97.977582 86.95752 
L 98.722062 84.79032 
L 99.466542 85.13088 
L 100.211022 86.07 
L 100.955502 86.5344 
L 101.699982 86.31768 
L 103.188941 89.97096 
L 103.933421 90.48696 
L 104.677901 86.9472 
L 105.422381 86.66856 
L 106.166861 87.32904 
L 106.911341 88.53648 
L 107.655821 87.6696 
L 108.4003 85.30632 
L 109.14478 84.61488 
L 109.88926 84.17112 
L 110.63374 86.3796 
L 111.37822 84.92448 
L 112.1227 84.89352 
L 112.867179 86.13192 
L 113.611659 86.1732 
L 114.356139 84.99672 
L 115.100619 85.85328 
L 115.845099 85.01736 
L 116.589579 83.55192 
L 117.334059 81.7356 
L 118.078538 82.03488 
L 118.823018 82.65408 
L 120.311978 82.15872 
L 121.056458 81.70464 
L 121.800938 79.01112 
L 122.545418 78.39192 
L 123.289897 78.04104 
L 124.034377 78.16488 
L 124.778857 77.05032 
L 125.523337 72.82944 
L 126.267817 70.41456 
L 127.012297 74.69736 
L 127.756777 76.6272 
L 128.501256 75.63648 
L 129.245736 75.97704 
L 129.990216 74.976 
L 130.734696 76.49304 
L 131.479176 76.99872 
L 132.223656 77.90688 
L 132.968136 79.4652 
L 133.712615 82.02456 
L 134.457095 83.19072 
L 135.201575 82.27224 
L 135.946055 80.21856 
L 136.690535 81.67368 
L 137.435015 80.5488 
L 138.179495 78.588 
L 138.923974 78.19584 
L 139.668454 77.21544 
L 140.412934 76.524 
L 141.157414 78.68088 
L 141.901894 73.88208 
L 142.646374 71.364 
L 143.390853 73.8408 
L 144.135333 75.79128 
L 144.879813 74.65608 
L 145.624293 74.14008 
L 146.368773 76.50336 
L 147.113253 78.30936 
L 147.857733 75.3372 
L 148.602212 77.25672 
L 149.346692 71.78712 
L 150.091172 70.75512 
L 150.835652 70.24944 
L 151.580132 75.35784 
L 152.324612 72.95328 
L 153.069092 70.96152 
L 153.813571 67.87584 
L 154.558051 70.46616 
L 155.302531 71.11632 
L 156.047011 71.61168 
L 156.791491 72.7056 
L 157.535971 69.33096 
L 158.280451 68.9388 
L 159.02493 71.12664 
L 159.76941 70.90992 
L 160.51389 71.80776 
L 161.25837 70.074 
L 162.00285 68.01 
L 162.74733 67.10184 
L 163.49181 65.29584 
L 164.236289 64.01616 
L 164.980769 60.31128 
L 165.725249 60.19776 
L 166.469729 60.786 
L 167.214209 62.61264 
L 167.958689 61.74576 
L 168.703169 59.57856 
L 169.447648 58.86648 
L 170.192128 61.38456 
L 170.936608 61.07496 
L 171.681088 61.83864 
L 172.425568 66.29688 
L 173.170048 67.97904 
L 173.914527 68.69112 
L 174.659007 73.9956 
L 175.403487 70.45584 
L 176.147967 70.87896 
L 176.892447 68.91816 
L 177.636927 68.3196 
L 178.381407 69.47544 
L 179.870366 62.39592 
L 180.614846 62.81904 
L 181.359326 64.22256 
L 182.103806 64.05744 
L 182.848286 62.9532 
L 183.592766 66.14208 
L 184.337245 63.91296 
L 185.081725 66.17304 
L 185.826205 74.6148 
L 186.570685 77.78304 
L 187.315165 72.66432 
L 188.059645 69.69216 
L 188.804125 71.09568 
L 190.293084 76.06992 
L 191.037564 76.76136 
L 191.782044 75.25464 
L 192.526524 75.24432 
L 193.271004 74.63544 
L 194.015484 75.73968 
L 194.759963 77.31864 
L 195.504443 74.202 
L 196.248923 73.64472 
L 196.993403 73.48992 
L 197.737883 71.83872 
L 198.482363 72.17928 
L 199.226843 73.38672 
L 199.971322 73.43832 
L 200.715802 76.15248 
L 201.460282 75.3372 
L 202.204762 75.58488 
L 202.949242 75.35784 
L 203.693722 81.168 
L 204.438201 84.01632 
L 205.182681 82.06584 
L 205.927161 84.19176 
L 206.671641 82.27224 
L 207.416121 83.29392 
L 208.160601 81.62208 
L 208.905081 80.72424 
L 209.64956 84.33624 
L 210.39404 84.64584 
L 211.13852 86.844 
L 211.883 88.52616 
L 212.62748 88.36104 
L 213.37196 88.93896 
L 214.11644 90.79656 
L 214.860919 88.09272 
L 215.605399 89.22792 
L 216.349879 90.00192 
L 217.094359 91.39512 
L 217.838839 91.63248 
L 218.583319 90.75528 
L 219.327799 88.7016 
L 220.072278 88.52616 
L 220.816758 87.45288 
L 221.561238 88.0308 
L 222.305718 88.94928 
L 223.794678 89.7336 
L 224.539158 91.86984 
L 225.283637 88.60872 
L 226.028117 86.87496 
L 227.517077 90.11544 
L 229.006037 90.53856 
L 229.750516 90.08448 
L 230.494996 88.79448 
L 231.239476 89.20728 
L 231.983956 89.22792 
L 232.728436 90.31152 
L 233.472916 90.10512 
L 234.217396 91.09584 
L 234.961875 91.61184 
L 235.706355 91.31256 
L 236.450835 92.87088 
L 237.195315 93.8616 
L 237.939795 92.02464 
L 238.684275 92.13816 
L 239.428755 92.07624 
L 240.173234 92.14848 
L 242.406674 93.69648 
L 243.895634 92.44776 
L 244.640114 92.30328 
L 245.384593 92.87088 
L 246.129073 92.38584 
L 246.873553 92.47872 
L 247.618033 91.88016 
L 248.362513 90.42504 
L 249.106993 90.08448 
L 249.851473 89.92968 
L 250.595952 88.76352 
L 251.340432 87.94824 
L 252.084912 89.2692 
L 252.829392 88.72224 
L 253.573872 89.39304 
L 254.318352 89.40336 
L 255.062832 88.41264 
L 255.807311 88.4952 
L 256.551791 86.86464 
L 257.296271 86.42088 
L 258.040751 87.62832 
L 258.785231 86.93688 
L 259.529711 87.23616 
L 261.01867 90.0432 
L 261.76315 92.12784 
L 262.50763 91.16808 
L 263.99659 91.73568 
L 264.74107 91.78728 
L 265.485549 94.0164 
L 266.230029 92.5716 
L 266.974509 91.76664 
L 267.718989 92.33424 
L 268.463469 94.36728 
L 269.207949 94.46016 
L 269.952429 97.71096 
L 270.696908 98.48496 
L 271.441388 97.85544 
L 272.661525 100.16712 
L 273.405626 102.23112 
L 274.146918 100.54896 
L 274.908415 100.70376 
L 275.646752 100.68312 
L 277.138417 101.28168 
L 277.880217 101.71512 
L 278.624473 101.84928 
L 279.36 101.034 
L 279.36 101.034 
" clip-path="url(#pe1bc7bef7a)" style="fill: none; stroke: #bebebe; stroke-width: 0.5; stroke-linecap: round"/>
   </g>
   <g id="line2d_6">
    <path d="M 8.64 79.1556 
L 10.12896 80.11536 
L 10.87344 78.8976 
L 11.617919 79.97088 
L 12.362399 79.30008 
L 13.106879 78.8976 
L 13.851359 80.136 
L 14.595839 78.56736 
L 15.340319 77.62824 
L 16.084799 82.43736 
L 16.829278 82.5612 
L 17.573758 85.06896 
L 18.318238 85.37856 
L 19.062718 86.41056 
L 19.807198 86.75112 
L 20.551678 82.23096 
L 21.296158 87.71088 
L 22.040637 87.36 
L 22.785117 86.328 
L 23.529597 86.90592 
L 24.274077 87.81408 
L 25.018557 86.93688 
L 25.763037 89.65104 
L 26.507516 91.6944 
L 27.251996 91.0752 
L 27.996476 91.23 
L 28.740956 91.94208 
L 29.485436 91.23 
L 30.229916 90.79656 
L 30.974396 91.57056 
L 31.718875 90.95136 
L 32.463355 90.89976 
L 33.207835 89.00088 
L 33.952315 90.18768 
L 34.696795 90.43536 
L 36.185755 89.8884 
L 36.930234 88.7532 
L 37.674714 88.88736 
L 38.419194 89.75424 
L 39.163674 89.85744 
L 39.908154 91.4364 
L 40.652634 92.43744 
L 41.397114 92.79864 
L 42.141593 92.50968 
L 42.886073 91.2816 
L 43.630553 92.9328 
L 44.375033 92.60256 
L 45.863993 92.7264 
L 46.608473 96.21456 
L 47.352952 96.4932 
L 48.097432 97.74192 
L 48.841912 94.91424 
L 49.586392 96.96792 
L 50.330872 96.31776 
L 51.075352 95.16192 
L 51.819832 95.90496 
L 52.564311 95.52312 
L 53.308791 96.01848 
L 54.053271 96.17328 
L 55.542231 95.99784 
L 56.286711 95.616 
L 57.03119 96.05976 
L 57.77567 96.17328 
L 58.52015 93.46944 
L 59.26463 92.96376 
L 60.00911 93.32496 
L 60.75359 93.036 
L 61.49807 92.56128 
L 62.242549 92.96376 
L 62.987029 92.8812 
L 64.475989 92.96376 
L 65.220469 92.29296 
L 65.964949 92.262 
L 66.709429 92.3652 
L 67.453908 92.74704 
L 68.198388 92.5716 
L 69.687348 92.71608 
L 70.431828 86.97816 
L 71.176308 84.84192 
L 71.920788 81.24024 
L 72.665267 82.37544 
L 73.409747 82.60248 
L 74.154227 79.86768 
L 75.643187 81.85944 
L 76.387667 81.82848 
L 77.132147 82.86048 
L 77.876626 83.00496 
L 78.621106 82.08648 
L 79.365586 82.12776 
L 80.110066 81.61176 
L 80.854546 80.15664 
L 81.599026 82.18968 
L 83.087985 81.79752 
L 83.832465 81.56016 
L 84.576945 80.0844 
L 85.321425 79.86768 
L 86.065905 80.50752 
L 86.810385 82.12776 
L 88.299344 81.92136 
L 89.043824 80.8584 
L 89.788304 81.07512 
L 90.532784 80.84808 
L 91.277264 83.6448 
L 92.021744 82.7676 
L 92.766223 82.0968 
L 93.510703 82.3548 
L 94.255183 79.74384 
L 94.999663 77.90688 
L 95.744143 78.39192 
L 96.488623 80.21856 
L 97.233103 81.34344 
L 97.977582 81.98328 
L 99.466542 81.5808 
L 100.211022 82.26192 
L 101.699982 82.15872 
L 102.444462 83.88216 
L 103.188941 85.89456 
L 103.933421 86.5344 
L 104.677901 83.61384 
L 105.422381 83.2836 
L 106.166861 83.71704 
L 106.911341 83.748 
L 108.4003 83.41776 
L 109.14478 82.44768 
L 109.88926 82.6644 
L 110.63374 83.89248 
L 111.37822 81.38472 
L 112.1227 81.14736 
L 112.867179 82.34448 
L 113.611659 82.23096 
L 114.356139 81.426 
L 115.100619 81.8388 
L 115.845099 80.76552 
L 117.334059 75.83256 
L 118.078538 75.67776 
L 118.823018 75.91512 
L 120.311978 74.88312 
L 121.056458 73.09776 
L 121.800938 69.6096 
L 122.545418 67.91712 
L 123.289897 66.94704 
L 124.034377 66.24528 
L 124.778857 63.80976 
L 125.523337 63.70656 
L 126.267817 63.9852 
L 127.012297 65.71896 
L 127.756777 64.5528 
L 129.245736 64.05744 
L 129.990216 62.25144 
L 130.734696 63.39696 
L 131.479176 63.366 
L 132.223656 63.08736 
L 132.968136 64.72824 
L 133.712615 67.89648 
L 134.457095 69.16584 
L 135.201575 67.69008 
L 135.946055 64.4496 
L 136.690535 65.97696 
L 137.435015 64.914 
L 138.179495 61.54968 
L 138.923974 60.04296 
L 139.668454 56.28648 
L 140.412934 56.47224 
L 141.157414 56.83344 
L 141.901894 51.22968 
L 142.646374 48.89736 
L 143.390853 52.00368 
L 144.135333 53.84064 
L 144.879813 53.90256 
L 145.624293 53.00472 
L 146.368773 55.5228 
L 147.113253 59.12448 
L 147.857733 55.32672 
L 148.602212 56.90568 
L 149.346692 47.92728 
L 150.091172 48.75288 
L 150.835652 48.68064 
L 151.580132 54.57336 
L 152.324612 51.2916 
L 153.069092 52.80864 
L 153.813571 52.69512 
L 154.558051 54.82104 
L 156.047011 54.45984 
L 156.791491 55.7292 
L 157.535971 55.39896 
L 158.280451 53.55168 
L 159.02493 55.81176 
L 159.76941 55.6776 
L 160.51389 56.18328 
L 161.25837 55.71888 
L 162.74733 55.63632 
L 163.49181 55.07904 
L 164.236289 53.41752 
L 164.980769 49.71264 
L 165.725249 50.32152 
L 166.469729 51.17808 
L 167.214209 52.44744 
L 167.958689 52.74672 
L 168.703169 51.4464 
L 169.447648 51.46704 
L 170.192128 53.2524 
L 170.936608 53.08728 
L 171.681088 53.5104 
L 172.425568 57.26688 
L 173.170048 57.76224 
L 173.914527 58.02024 
L 174.659007 62.26176 
L 175.403487 59.68176 
L 176.147967 59.9604 
L 176.892447 58.12344 
L 177.636927 57.02952 
L 178.381407 58.09248 
L 179.125886 55.13064 
L 179.870366 53.046 
L 180.614846 52.5816 
L 181.359326 52.9944 
L 182.103806 52.5816 
L 182.848286 50.0016 
L 183.592766 53.48976 
L 184.337245 52.40616 
L 185.081725 54.75912 
L 185.826205 62.67456 
L 186.570685 63.95424 
L 187.315165 57.86544 
L 188.059645 56.57544 
L 188.804125 58.31952 
L 189.548604 60.4764 
L 190.293084 61.85928 
L 191.037564 62.73648 
L 191.782044 61.8696 
L 192.526524 60.45576 
L 193.271004 60.54864 
L 194.015484 62.04504 
L 194.759963 63.16992 
L 195.504443 62.36496 
L 196.248923 61.21944 
L 196.993403 60.9408 
L 197.737883 57.83448 
L 198.482363 58.40208 
L 199.226843 60.49704 
L 200.715802 63.1596 
L 201.460282 62.49912 
L 202.204762 62.1276 
L 202.949242 61.56 
L 204.438201 70.66224 
L 205.182681 68.72208 
L 205.927161 70.4868 
L 206.671641 68.61888 
L 207.416121 69.11424 
L 208.160601 66.5136 
L 208.905081 66.68904 
L 209.64956 68.8872 
L 210.39404 68.9904 
L 211.13852 71.5704 
L 211.883 73.48992 
L 212.62748 72.54048 
L 214.11644 74.74896 
L 214.860919 73.3248 
L 215.605399 74.80056 
L 216.349879 77.556 
L 217.094359 78.55704 
L 217.838839 78.50544 
L 218.583319 78.04104 
L 219.327799 75.76032 
L 220.072278 75.73968 
L 220.816758 74.65608 
L 221.561238 74.83152 
L 222.305718 74.57352 
L 223.050198 75.20304 
L 223.794678 75.17208 
L 224.539158 78.05136 
L 226.028117 72.16896 
L 226.772597 73.08744 
L 227.517077 74.72832 
L 229.006037 74.28456 
L 229.750516 73.21128 
L 230.494996 70.2804 
L 231.239476 70.2288 
L 231.983956 71.56008 
L 232.728436 73.79952 
L 233.472916 73.35576 
L 234.217396 74.0988 
L 234.961875 75.5952 
L 235.706355 75.5952 
L 236.450835 77.61792 
L 237.195315 77.63856 
L 237.939795 75.40944 
L 238.684275 75.40944 
L 239.428755 75.04824 
L 240.173234 74.98632 
L 240.917714 75.58488 
L 241.662194 75.87384 
L 242.406674 76.49304 
L 243.895634 75.82224 
L 244.640114 75.84288 
L 245.384593 76.03896 
L 246.129073 75.51264 
L 246.873553 75.56424 
L 247.618033 75.05856 
L 248.362513 73.26288 
L 249.106993 73.20096 
L 249.851473 73.00488 
L 250.595952 71.68392 
L 251.340432 70.6932 
L 252.084912 72.62304 
L 252.829392 73.52088 
L 253.573872 73.83048 
L 254.318352 73.8408 
L 255.062832 73.29384 
L 255.807311 73.72728 
L 256.551791 70.32168 
L 257.296271 69.77472 
L 258.040751 70.34232 
L 258.785231 70.67256 
L 259.529711 70.51776 
L 260.27419 70.848 
L 261.01867 72.31344 
L 261.76315 76.01832 
L 262.50763 75.41976 
L 263.25211 75.83256 
L 264.74107 75.82224 
L 265.485549 77.82432 
L 266.230029 76.14216 
L 266.974509 74.75928 
L 267.718989 74.96568 
L 268.463469 77.75208 
L 269.207949 79.48584 
L 269.952429 83.31456 
L 270.696908 85.90488 
L 271.441388 84.79032 
L 272.069896 85.84296 
L 273.405626 91.41576 
L 274.146918 88.7532 
L 275.646752 88.55712 
L 276.395479 88.96992 
L 277.880217 90.456 
L 278.624473 90.56952 
L 279.36 89.15568 
L 279.36 89.15568 
" clip-path="url(#pe1bc7bef7a)" style="fill: none; stroke: #4a8dff; stroke-width: 0.6"/>
   </g>
   <g id="line2d_7">
    <path d="M 8.64 75.6984 
L 9.38448 75.61584 
L 10.12896 77.0916 
L 11.617919 77.7624 
L 12.362399 76.66848 
L 13.106879 74.7696 
L 13.851359 77.10192 
L 14.595839 76.65816 
L 15.340319 76.90584 
L 16.084799 82.01424 
L 16.829278 84.74904 
L 17.573758 89.77488 
L 18.318238 88.93896 
L 19.062718 89.2176 
L 19.807198 87.59736 
L 20.551678 79.04208 
L 21.296158 87.47352 
L 22.040637 86.24544 
L 22.785117 82.82952 
L 23.529597 83.45904 
L 24.274077 86.80272 
L 25.018557 87.45288 
L 25.763037 93.036 
L 26.507516 95.07936 
L 27.251996 90.9204 
L 27.996476 89.79552 
L 28.740956 92.6748 
L 29.485436 89.70264 
L 30.229916 89.2692 
L 30.974396 91.11648 
L 31.718875 89.59944 
L 32.463355 90.94104 
L 33.207835 86.76144 
L 33.952315 89.39304 
L 35.441275 89.8884 
L 36.185755 87.8244 
L 36.930234 86.2248 
L 37.674714 86.02872 
L 38.419194 86.60664 
L 39.163674 86.328 
L 39.908154 89.30016 
L 40.652634 91.04424 
L 41.397114 91.37448 
L 42.141593 91.20936 
L 42.886073 88.392 
L 43.630553 91.19904 
L 45.119513 89.82648 
L 45.863993 90.0948 
L 46.608473 95.6676 
L 47.352952 94.66656 
L 48.097432 97.61808 
L 48.841912 91.10616 
L 49.586392 94.23312 
L 50.330872 90.25992 
L 51.075352 88.31976 
L 51.819832 90.08448 
L 52.564311 89.13504 
L 53.308791 90.03288 
L 54.053271 89.56848 
L 54.797751 88.71192 
L 55.542231 89.22792 
L 56.286711 88.50552 
L 57.03119 88.55712 
L 57.77567 86.10096 
L 58.52015 79.75416 
L 59.26463 79.7232 
L 60.00911 79.44456 
L 60.75359 78.51576 
L 61.49807 78.64992 
L 62.242549 79.5168 
L 62.987029 78.24744 
L 63.731509 79.0524 
L 64.475989 79.07304 
L 65.220469 76.80264 
L 65.964949 76.35888 
L 66.709429 77.31864 
L 67.453908 78.98016 
L 68.198388 78.52608 
L 68.942868 76.35888 
L 69.687348 76.18344 
L 70.431828 69.90888 
L 71.176308 70.03272 
L 71.920788 68.29896 
L 72.665267 68.95944 
L 73.409747 70.11528 
L 74.154227 68.76336 
L 74.898707 69.37224 
L 75.643187 69.25872 
L 76.387667 69.41352 
L 77.132147 69.77472 
L 77.876626 66.85416 
L 78.621106 67.26696 
L 79.365586 66.06984 
L 80.110066 63.08736 
L 80.854546 61.12656 
L 81.599026 65.62608 
L 82.343505 64.98624 
L 83.087985 63.91296 
L 83.832465 63.38664 
L 84.576945 63.70656 
L 85.321425 64.97592 
L 86.065905 67.14312 
L 86.810385 68.9388 
L 87.554864 68.23704 
L 88.299344 67.1844 
L 89.043824 66.99864 
L 89.788304 67.47336 
L 90.532784 68.1132 
L 91.277264 71.38464 
L 92.021744 68.526 
L 92.766223 67.21536 
L 93.510703 67.20504 
L 94.255183 62.46816 
L 94.999663 62.51976 
L 95.744143 64.10904 
L 96.488623 66.90576 
L 97.233103 66.83352 
L 97.977582 67.42176 
L 98.722062 67.3392 
L 99.466542 65.8944 
L 100.211022 68.24736 
L 101.699982 68.23704 
L 102.444462 69.69216 
L 103.188941 71.50848 
L 103.933421 72.21024 
L 104.677901 67.3908 
L 105.422381 66.90576 
L 106.166861 65.59512 
L 106.911341 65.86344 
L 107.655821 65.76024 
L 108.4003 65.50224 
L 109.14478 64.398 
L 109.88926 65.70864 
L 110.63374 67.2876 
L 111.37822 63.95424 
L 112.1227 63.14928 
L 112.867179 64.76952 
L 113.611659 64.58376 
L 114.356139 63.55176 
L 115.100619 64.5012 
L 115.845099 63.82008 
L 116.589579 61.36392 
L 117.334059 56.64768 
L 118.078538 54.89328 
L 118.823018 55.04808 
L 119.567498 53.29368 
L 120.311978 52.55064 
L 121.056458 54.77976 
L 121.800938 53.67552 
L 122.545418 52.95312 
L 123.289897 54.45984 
L 124.034377 54.55272 
L 124.778857 55.22352 
L 125.523337 54.98616 
L 126.267817 52.4268 
L 127.012297 53.79936 
L 127.756777 54.08832 
L 128.501256 54.92424 
L 129.245736 54.4908 
L 129.990216 52.98408 
L 130.734696 54.44952 
L 131.479176 54.60432 
L 132.223656 54.62496 
L 133.712615 59.38248 
L 134.457095 60.09456 
L 135.201575 58.39176 
L 135.946055 57.41136 
L 136.690535 58.464 
L 137.435015 57.5352 
L 138.179495 55.0068 
L 138.923974 55.81176 
L 139.668454 55.99752 
L 140.412934 53.13888 
L 141.157414 53.64456 
L 141.901894 52.1688 
L 142.646374 48.69096 
L 143.390853 54.0264 
L 144.135333 55.13064 
L 144.879813 54.96552 
L 145.624293 54.92424 
L 146.368773 56.25552 
L 147.113253 59.8572 
L 147.857733 58.32984 
L 148.602212 60.23904 
L 149.346692 55.65696 
L 150.091172 57.18432 
L 150.835652 59.21736 
L 151.580132 62.55072 
L 152.324612 60.82728 
L 153.069092 61.47744 
L 153.813571 60.12552 
L 154.558051 64.31544 
L 155.302531 63.99552 
L 156.047011 64.5528 
L 156.791491 63.60336 
L 157.535971 61.5084 
L 158.280451 60.96144 
L 159.02493 61.98312 
L 159.76941 62.05536 
L 160.51389 62.51976 
L 162.00285 60.64152 
L 162.74733 61.13688 
L 163.49181 58.6188 
L 164.236289 57.03984 
L 164.980769 56.35872 
L 165.725249 56.5548 
L 166.469729 57.174 
L 167.214209 57.14304 
L 167.958689 55.7292 
L 168.703169 56.04912 
L 169.447648 55.33704 
L 170.192128 56.87472 
L 170.936608 56.8128 
L 171.681088 57.24624 
L 172.425568 59.93976 
L 173.170048 60.64152 
L 173.914527 59.29992 
L 174.659007 63.80976 
L 175.403487 63.03576 
L 176.147967 63.09768 
L 177.636927 58.27824 
L 178.381407 58.5672 
L 179.125886 53.93352 
L 179.870366 51.74568 
L 180.614846 50.04288 
L 181.359326 49.90872 
L 182.848286 47.43192 
L 183.592766 50.80656 
L 184.337245 48.90768 
L 185.081725 50.6208 
L 185.826205 59.42376 
L 186.570685 61.85928 
L 187.315165 57.35976 
L 188.059645 57.3288 
L 188.804125 59.46504 
L 190.293084 64.72824 
L 191.037564 66.42072 
L 191.782044 65.688 
L 192.526524 64.17096 
L 193.271004 62.10696 
L 194.015484 64.30512 
L 194.759963 65.20296 
L 195.504443 62.68488 
L 196.248923 61.70448 
L 196.993403 61.06464 
L 197.737883 58.1028 
L 198.482363 58.40208 
L 199.226843 59.68176 
L 199.971322 62.6952 
L 200.715802 64.56312 
L 201.460282 63.18024 
L 202.204762 62.72616 
L 202.949242 62.06568 
L 203.693722 66.33816 
L 204.438201 71.40528 
L 205.182681 69.08328 
L 205.927161 71.7252 
L 206.671641 69.57864 
L 207.416121 70.72416 
L 208.160601 68.2164 
L 208.905081 66.978 
L 209.64956 70.03272 
L 210.39404 71.5188 
L 211.13852 73.3764 
L 211.883 78.846 
L 212.62748 77.75208 
L 213.37196 78.88728 
L 214.11644 81.34344 
L 214.860919 80.53848 
L 215.605399 82.0452 
L 216.349879 86.92656 
L 217.094359 88.58808 
L 217.838839 88.96992 
L 218.583319 86.7924 
L 219.327799 85.296 
L 220.072278 86.24544 
L 220.816758 82.96368 
L 221.561238 82.13808 
L 222.305718 82.47864 
L 223.050198 82.58184 
L 223.794678 83.03592 
L 224.539158 87.3084 
L 225.283637 82.06584 
L 226.028117 79.71288 
L 226.772597 81.24024 
L 227.517077 84.17112 
L 228.261557 84.24336 
L 229.006037 83.29392 
L 229.750516 82.8192 
L 230.494996 80.64168 
L 231.239476 81.38472 
L 231.983956 80.87904 
L 232.728436 83.13912 
L 233.472916 83.19072 
L 234.961875 87.17424 
L 235.706355 85.71912 
L 236.450835 87.53544 
L 237.195315 88.17528 
L 237.939795 85.41984 
L 239.428755 84.9348 
L 240.173234 85.01736 
L 240.917714 86.14224 
L 241.662194 85.90488 
L 242.406674 86.328 
L 243.151154 86.24544 
L 243.895634 85.72944 
L 244.640114 85.7088 
L 245.384593 86.40024 
L 246.129073 85.09992 
L 246.873553 86.02872 
L 248.362513 83.53128 
L 249.851473 82.03488 
L 250.595952 79.39296 
L 251.340432 79.66128 
L 252.084912 82.15872 
L 252.829392 82.43736 
L 253.573872 82.93272 
L 254.318352 83.00496 
L 255.807311 82.28256 
L 256.551791 78.01008 
L 257.296271 76.19376 
L 258.040751 77.66952 
L 258.785231 77.74176 
L 259.529711 78.1752 
L 261.01867 80.8068 
L 261.76315 85.20312 
L 262.50763 84.12984 
L 263.25211 84.03696 
L 263.99659 84.06792 
L 264.74107 84.3156 
L 265.485549 87.02976 
L 266.230029 85.21344 
L 266.974509 84.28464 
L 267.718989 84.32592 
L 268.463469 89.08344 
L 269.207949 89.5272 
L 269.952429 95.14128 
L 270.696908 96.98856 
L 271.441388 95.08968 
L 272.661525 99.80592 
L 273.405626 101.79768 
L 274.146918 100.03296 
L 274.908415 100.518 
L 275.646752 99.98136 
L 276.395479 100.49736 
L 278.624473 101.26104 
L 279.36 100.63152 
L 279.36 100.63152 
" clip-path="url(#pe1bc7bef7a)" style="fill: none; stroke: #f5841e; stroke-width: 0.6"/>
   </g>
  </g>
 </g>
 <defs>
  <clipPath id="pe1bc7bef7a">
   <rect x="8.64" y="4.8" width="270.72" height="103.2"/>
  </clipPath>
 </defs>
</svg>
