<?xml version="1.0" encoding="utf-8" standalone="no"?>
<!DOCTYPE svg PUBLIC "-//W3C//DTD SVG 1.1//EN"
  "http://www.w3.org/Graphics/SVG/1.1/DTD/svg11.dtd">
<svg xmlns:xlink="http://www.w3.org/1999/xlink" width="288pt" height="120pt" viewBox="0 0 288 120" xmlns="http://www.w3.org/2000/svg" version="1.1">
<desc id="nav-meta">{"window":"3m","count":4,"labels":["15.01","14.02","16.03","15.04"],"tick_utc":["2026-01-15T12:00:00Z","2026-02-14T03:16:28Z","2026-03-16T03:46:39Z","2026-04-15T03:52:26Z"],"w":720,"h":300}</desc>

 <metadata>
  <rdf:RDF xmlns:dc="http://purl.org/dc/elements/1.1/" xmlns:cc="http://creativecommons.org/ns#" xmlns:rdf="http://www.w3.org/1999/02/22-rdf-syntax-ns#">
   <cc:Work>
    <dc:type rdf:resource="http://purl.org/dc/dcmitype/StillImage"/>
    <dc:date>2026-04-15T08:16:17.119734</dc:date>
    <dc:format>image/svg+xml</dc:format>
    <dc:creator>
     <cc:Agent>
      <dc:title>Matplotlib v3.10.8, https://matplotlib.org/</dc:title>
     </cc:Agent>
    </dc:creator>
   </cc:Work>
  </rdf:RDF>
 </metadata>
 <defs>
  <style type="text/css">*{stroke-linejoin: round; stroke-linecap: butt}</style>
 </defs>
 <g id="figure_1">
  <g id="patch_1">
   <path d="M 0 120 
L 288 120 
L 288 0 
L 0 0 
L 0 120 
z
" style="fill: none; opacity: 0"/>
  </g>
  <g id="axes_1">
   <g id="patch_2">
    <path d="M 8.64 108 
L 279.36 108 
L 279.36 4.8 
L 8.64 4.8 
L 8.64 108 
z
" style="fill: none"/>
   </g>
   <g id="matplotlib.axis_1"/>
   <g id="matplotlib.axis_2"/>
   <g id="line2d_1">
    <path d="M 8.64 87.36 
L 279.36 87.36 
" clip-path="url(#pbf6c3f4596)" style="fill: none; stroke: #b2b2b2; stroke-opacity: 0.35; stroke-width: 0.5; stroke-linecap: square"/>
   </g>
   <g id="line2d_2">
    <path d="M 8.64 66.72 
L 279.36 66.72 
" clip-path="url(#pbf6c3f4596)" style="fill: none; stroke: #b2b2b2; stroke-opacity: 0.35; stroke-width: 0.5; stroke-linecap: square"/>
   </g>
   <g id="line2d_3">
    <path d="M 8.64 46.08 
L 279.36 46.08 
" clip-path="url(#pbf6c3f4596)" style="fill: none; stroke: #b2b2b2; stroke-opacity: 0.35; stroke-width: 0.5; stroke-linecap: square"/>
   </g>
   <g id="line2d_4">
    <path d="M 8.64 25.44 
L 279.36 25.44 
" clip-path="url(#pbf6c3f4596)" style="fill: none; stroke: #b2b2b2; stroke-opacity: 0.35; stroke-width: 0.5; stroke-linecap: square"/>
   </g>
   <g id="line2d_5">
    <path d="M 8.64 86.42088 
L 11.659359 87.62832 
L 14.678718 86.93688 
L 17.698077 87.23616 
L 20.717436 88.63968 
L 23.736795 90.0432 
L 26.756155 92.12784 
L 29.775514 91.16808 
L 32.794873 91.46736 
L 35.814232 91.73568 
L 38.833591 91.78728 
L 41.85295 94.0164 
L 44.872309 92.5716 
L 47.891668 91.76664 
L 50.911027 92.33424 
L 53.930386 94.36728 
L 56.949746 94.46016 
L 59.969105 97.71096 
L 62.988464 98.48496 
L 66.007823 97.85544 
L 68.55684 99.10416 
L 70.956287 100.16712 
L 73.974108 102.23112 
L 76.980537 100.54896 
L 80.068915 100.70376 
L 83.063358 100.68312 
L 86.099945 100.95144 
L 89.113049 101.28168 
L 92.12154 101.71512 
L 95.13999 101.84928 
L 98.12304 101.034 
L 100.983079 100.54896 
L 104.196111 101.04432 
L 106.836198 100.81728 
L 110.230041 101.034 
L 113.245731 101.4984 
L 116.247442 101.33328 
L 119.24835 101.1372 
L 122.302201 101.06496 
L 125.330646 102.09696 
L 128.094932 102.05568 
L 131.358496 101.4984 
L 134.3644 100.60056 
L 137.378028 100.80696 
L 140.361812 101.45712 
L 143.449771 100.55928 
L 146.437958 101.10624 
L 149.464341 100.8792 
L 152.466786 100.74504 
L 155.492645 100.21872 
L 158.510572 100.53864 
L 161.506761 101.07528 
L 164.55544 101.38488 
L 167.58385 101.26104 
L 170.583814 100.78632 
L 173.601985 100.91016 
L 176.633226 100.99272 
L 179.646749 100.38384 
L 182.662089 100.50768 
L 185.739215 100.60056 
L 188.767101 99.76464 
L 191.733621 99.49632 
L 194.77601 99.40344 
L 197.796208 100.09488 
L 200.786177 100.3632 
L 203.787853 100.19808 
L 206.852363 100.47672 
L 209.878816 100.79664 
L 212.870218 100.26 
L 216.114457 99.83688 
L 218.945665 100.13616 
L 221.968833 100.80696 
L 224.959327 101.38488 
L 228.019817 101.3436 
L 231.047808 101.292 
L 234.048122 101.28168 
L 237.093376 101.28168 
L 240.072966 101.8596 
L 243.095785 101.88024 
L 246.089284 101.72544 
L 249.154108 101.68416 
L 252.18126 101.47776 
L 255.181014 101.78736 
L 258.205266 101.09592 
L 261.214106 101.46744 
L 264.261248 101.3436 
L 267.234443 101.05464 
L 270.307968 101.3952 
L 273.342809 101.47776 
L 276.342947 100.86888 
L 279.36 101.26104 
" clip-path="url(#pbf6c3f4596)" style="fill: none; stroke: #bebebe; stroke-width: 0.5; stroke-linecap: round"/>
   </g>
   <g id="line2d_6">
    <path d="M 8.64 69.77472 
L 11.659359 70.34232 
L 14.678718 70.67256 
L 17.698077 70.51776 
L 20.717436 70.848 
L 23.736795 72.31344 
L 26.756155 76.01832 
L 29.775514 75.41976 
L 32.794873 75.83256 
L 35.814232 75.79128 
L 38.833591 75.82224 
L 41.85295 77.82432 
L 44.872309 76.14216 
L 47.891668 74.75928 
L 50.911027 74.96568 
L 53.930386 77.75208 
L 56.949746 79.48584 
L 59.969105 83.31456 
L 62.988464 85.90488 
L 66.007823 84.79032 
L 68.55684 85.84296 
L 70.956287 88.25784 
L 73.974108 91.41576 
L 76.980537 88.7532 
L 80.068915 88.65 
L 83.063358 88.55712 
L 86.099945 88.96992 
L 89.113049 89.7336 
L 92.12154 90.456 
L 95.13999 90.56952 
L 98.12304 89.15568 
L 100.983079 88.9596 
L 104.196111 90.6624 
L 106.836198 89.94 
L 110.230041 90.00192 
L 113.245731 90.3528 
L 116.247442 90.62112 
L 119.24835 90.5076 
L 122.302201 90.3528 
L 125.330646 92.004 
L 128.094932 92.13816 
L 131.358496 91.25064 
L 134.3644 89.166 
L 137.378028 89.56848 
L 140.361812 90.93072 
L 143.449771 89.41368 
L 146.437958 90.37344 
L 149.464341 89.79552 
L 152.466786 90.23928 
L 155.492645 88.0824 
L 158.510572 88.7532 
L 161.506761 90.16704 
L 164.55544 90.67272 
L 167.58385 90.18768 
L 170.583814 89.2692 
L 173.601985 89.54784 
L 176.633226 89.49624 
L 179.646749 88.31976 
L 182.662089 88.45392 
L 185.739215 88.46424 
L 188.767101 86.38992 
L 191.733621 84.80064 
L 194.77601 84.8316 
L 197.796208 86.586 
L 200.786177 87.74184 
L 203.787853 87.618 
L 206.852363 88.19592 
L 209.878816 89.08344 
L 212.870218 87.89664 
L 216.114457 87.3084 
L 218.945665 87.65928 
L 221.968833 88.96992 
L 224.959327 90.07416 
L 228.019817 89.76456 
L 231.047808 89.3724 
L 234.048122 89.00088 
L 237.093376 88.42296 
L 240.072966 88.81512 
L 243.095785 89.10408 
L 246.089284 89.14536 
L 249.154108 89.07312 
L 252.18126 87.9792 
L 255.181014 88.29912 
L 258.205266 86.38992 
L 261.214106 87.24648 
L 264.261248 87.1536 
L 267.234443 86.21448 
L 270.307968 86.66856 
L 273.342809 87.01944 
L 276.342947 84.44976 
L 279.36 85.05864 
" clip-path="url(#pbf6c3f4596)" style="fill: none; stroke: #4a8dff; stroke-width: 0.6"/>
   </g>
   <g id="line2d_7">
    <path d="M 8.64 76.19376 
L 11.659359 77.66952 
L 14.678718 77.74176 
L 17.698077 78.1752 
L 20.717436 79.5684 
L 23.736795 80.8068 
L 26.756155 85.20312 
L 29.775514 84.12984 
L 32.794873 84.03696 
L 35.814232 84.06792 
L 38.833591 84.3156 
L 41.85295 87.02976 
L 44.872309 85.21344 
L 47.891668 84.28464 
L 50.911027 84.32592 
L 53.930386 89.08344 
L 56.949746 89.5272 
L 59.969105 95.14128 
L 62.988464 96.98856 
L 66.007823 95.08968 
L 68.55684 97.71096 
L 70.956287 99.80592 
L 73.974108 101.79768 
L 76.980537 100.03296 
L 80.068915 100.518 
L 83.063358 99.98136 
L 86.099945 100.49736 
L 89.113049 100.78632 
L 92.12154 101.07528 
L 95.13999 101.26104 
L 98.12304 100.63152 
L 100.983079 100.38384 
L 104.196111 100.84824 
L 106.836198 100.65216 
L 110.230041 101.034 
L 113.245731 101.19912 
L 116.247442 101.10624 
L 119.24835 100.97208 
L 122.302201 100.91016 
L 125.330646 101.7564 
L 128.094932 101.84928 
L 131.358496 101.56032 
L 134.3644 100.85856 
L 137.378028 101.12688 
L 140.361812 101.4468 
L 143.449771 101.02368 
L 146.437958 101.30232 
L 149.464341 100.81728 
L 152.466786 100.79664 
L 155.492645 99.3312 
L 158.510572 99.92976 
L 161.506761 100.78632 
L 164.55544 101.17848 
L 167.58385 101.1372 
L 170.583814 100.21872 
L 173.601985 100.37352 
L 176.633226 100.4664 
L 179.646749 99.88848 
L 182.662089 99.94008 
L 185.739215 99.81624 
L 188.767101 98.93904 
L 191.733621 98.3508 
L 194.77601 98.52624 
L 197.796208 99.78528 
L 200.786177 100.12584 
L 203.787853 100.03296 
L 206.852363 100.45608 
L 209.878816 100.83792 
L 212.870218 100.11552 
L 216.114457 99.87816 
L 218.945665 100.002 
L 221.968833 100.64184 
L 224.959327 101.41584 
L 228.019817 101.21976 
L 231.047808 101.14752 
L 234.048122 101.00304 
L 237.093376 100.86888 
L 240.072966 101.21976 
L 243.095785 101.28168 
L 246.089284 101.20944 
L 249.154108 101.14752 
L 252.18126 100.55928 
L 255.181014 100.65216 
L 258.205266 99.80592 
L 261.214106 99.96072 
L 264.261248 99.6408 
L 267.234443 99.1764 
L 270.307968 99.70272 
L 273.342809 99.94008 
L 276.342947 98.57784 
L 279.36 98.65008 
" clip-path="url(#pbf6c3f4596)" style="fill: none; stroke: #f5841e; stroke-width: 0.6"/>
   </g>
  </g>
 </g>
 <defs>
  <clipPath id="pbf6c3f4596">
   <rect x="8.64" y="4.8" width="270.72" height="103.2"/>
  </clipPath>
 </defs>
</svg>
