<?xml version="1.0" encoding="utf-8" standalone="no"?>
<!DOCTYPE svg PUBLIC "-//W3C//DTD SVG 1.1//EN"
  "http://www.w3.org/Graphics/SVG/1.1/DTD/svg11.dtd">
<svg xmlns:xlink="http://www.w3.org/1999/xlink" width="288pt" height="120pt" viewBox="0 0 288 120" xmlns="http://www.w3.org/2000/svg" version="1.1">
<desc id="nav-meta">{"window":"3m","count":4,"labels":["20.12","19.01","18.02","19.03"],"tick_utc":["2025-12-20T12:00:00Z","2026-01-19T12:00:00Z","2026-02-18T03:30:34Z","2026-03-19T03:32:50Z"],"w":720,"h":300}</desc>

 <metadata>
  <rdf:RDF xmlns:dc="http://purl.org/dc/elements/1.1/" xmlns:cc="http://creativecommons.org/ns#" xmlns:rdf="http://www.w3.org/1999/02/22-rdf-syntax-ns#">
   <cc:Work>
    <dc:type rdf:resource="http://purl.org/dc/dcmitype/StillImage"/>
    <dc:date>2026-03-19T19:34:15.029416</dc:date>
    <dc:format>image/svg+xml</dc:format>
    <dc:creator>
     <cc:Agent>
      <dc:title>Matplotlib v3.10.8, https://matplotlib.org/</dc:title>
     </cc:Agent>
    </dc:creator>
   </cc:Work>
  </rdf:RDF>
 </metadata>
 <defs>
  <style type="text/css">*{stroke-linejoin: round; stroke-linecap: butt}</style>
 </defs>
 <g id="figure_1">
  <g id="patch_1">
   <path d="M 0 120 
L 288 120 
L 288 0 
L 0 0 
L 0 120 
z
" style="fill: none; opacity: 0"/>
  </g>
  <g id="axes_1">
   <g id="patch_2">
    <path d="M 8.64 108 
L 279.36 108 
L 279.36 4.8 
L 8.64 4.8 
L 8.64 108 
z
" style="fill: none"/>
   </g>
   <g id="matplotlib.axis_1"/>
   <g id="matplotlib.axis_2"/>
   <g id="line2d_1">
    <path d="M 8.64 87.36 
L 279.36 87.36 
" clip-path="url(#p15c0ea481f)" style="fill: none; stroke: #b2b2b2; stroke-opacity: 0.35; stroke-width: 0.5; stroke-linecap: square"/>
   </g>
   <g id="line2d_2">
    <path d="M 8.64 66.72 
L 279.36 66.72 
" clip-path="url(#p15c0ea481f)" style="fill: none; stroke: #b2b2b2; stroke-opacity: 0.35; stroke-width: 0.5; stroke-linecap: square"/>
   </g>
   <g id="line2d_3">
    <path d="M 8.64 46.08 
L 279.36 46.08 
" clip-path="url(#p15c0ea481f)" style="fill: none; stroke: #b2b2b2; stroke-opacity: 0.35; stroke-width: 0.5; stroke-linecap: square"/>
   </g>
   <g id="line2d_4">
    <path d="M 8.64 25.44 
L 279.36 25.44 
" clip-path="url(#p15c0ea481f)" style="fill: none; stroke: #b2b2b2; stroke-opacity: 0.35; stroke-width: 0.5; stroke-linecap: square"/>
   </g>
   <g id="line2d_5">
    <path d="M 8.64 92.02464 
L 11.693883 92.13816 
L 14.747766 92.07624 
L 17.801649 92.14848 
L 20.855531 92.64384 
L 23.909414 93.01536 
L 26.963297 93.69648 
L 30.01718 93.11856 
L 33.071063 92.44776 
L 36.124946 92.30328 
L 39.178829 92.87088 
L 42.232711 92.38584 
L 45.286594 92.47872 
L 48.340477 91.88016 
L 51.39436 90.42504 
L 54.448243 90.08448 
L 57.502126 89.92968 
L 60.556009 88.76352 
L 63.609892 87.94824 
L 66.663774 89.2692 
L 69.717657 88.72224 
L 72.77154 89.39304 
L 75.825423 89.40336 
L 78.879306 88.41264 
L 81.933189 88.4952 
L 84.987072 86.86464 
L 88.040954 86.42088 
L 91.094837 87.62832 
L 94.14872 86.93688 
L 97.202603 87.23616 
L 100.256486 88.63968 
L 103.310369 90.0432 
L 106.364252 92.12784 
L 109.418134 91.16808 
L 112.472017 91.46736 
L 115.5259 91.73568 
L 118.579783 91.78728 
L 121.633666 94.0164 
L 124.687549 92.5716 
L 127.741432 91.76664 
L 130.795314 92.33424 
L 133.849197 94.36728 
L 136.90308 94.46016 
L 139.956963 97.71096 
L 143.010846 98.48496 
L 146.064729 97.85544 
L 148.642892 99.10416 
L 151.069774 100.16712 
L 154.122102 102.23112 
L 157.162907 100.54896 
L 160.286598 100.70376 
L 163.315279 100.68312 
L 166.386587 100.95144 
L 169.434143 101.28168 
L 172.477034 101.71512 
L 175.529997 101.84928 
L 178.547156 101.034 
L 181.439897 100.54896 
L 184.689667 101.04432 
L 187.359941 100.81728 
L 190.79259 101.034 
L 193.842762 101.4984 
L 196.878795 101.33328 
L 199.914015 101.1372 
L 203.002784 101.06496 
L 206.065857 102.09696 
L 208.86175 102.05568 
L 212.16263 101.4984 
L 215.202905 100.60056 
L 218.250991 100.80696 
L 221.268892 101.45712 
L 224.392159 100.55928 
L 227.414513 101.10624 
L 230.4755 100.8792 
L 233.512276 100.74504 
L 236.572733 100.21872 
L 239.625167 100.53864 
L 242.655615 101.07528 
L 245.739153 101.38488 
L 248.802191 101.26104 
L 251.836457 100.78632 
L 254.889138 100.91016 
L 257.955038 100.99272 
L 261.003018 100.38384 
L 264.052836 100.50768 
L 267.165146 100.60056 
L 270.227653 99.76464 
L 273.228093 99.49632 
L 276.305269 99.40344 
L 279.36 100.09488 
" clip-path="url(#p15c0ea481f)" style="fill: none; stroke: #bebebe; stroke-width: 0.5; stroke-linecap: round"/>
   </g>
   <g id="line2d_6">
    <path d="M 8.64 75.40944 
L 11.693883 75.40944 
L 14.747766 75.04824 
L 17.801649 74.98632 
L 20.855531 75.58488 
L 23.909414 75.87384 
L 26.963297 76.49304 
L 30.01718 76.15248 
L 33.071063 75.82224 
L 36.124946 75.84288 
L 39.178829 76.03896 
L 42.232711 75.51264 
L 45.286594 75.56424 
L 48.340477 75.05856 
L 51.39436 73.26288 
L 54.448243 73.20096 
L 57.502126 73.00488 
L 60.556009 71.68392 
L 63.609892 70.6932 
L 66.663774 72.62304 
L 69.717657 73.52088 
L 72.77154 73.83048 
L 75.825423 73.8408 
L 78.879306 73.29384 
L 81.933189 73.72728 
L 84.987072 70.32168 
L 88.040954 69.77472 
L 91.094837 70.34232 
L 94.14872 70.67256 
L 97.202603 70.51776 
L 100.256486 70.848 
L 103.310369 72.31344 
L 106.364252 76.01832 
L 109.418134 75.41976 
L 112.472017 75.83256 
L 115.5259 75.79128 
L 118.579783 75.82224 
L 121.633666 77.82432 
L 124.687549 76.14216 
L 127.741432 74.75928 
L 130.795314 74.96568 
L 133.849197 77.75208 
L 136.90308 79.48584 
L 139.956963 83.31456 
L 143.010846 85.90488 
L 146.064729 84.79032 
L 148.642892 85.84296 
L 151.069774 88.25784 
L 154.122102 91.41576 
L 157.162907 88.7532 
L 160.286598 88.65 
L 163.315279 88.55712 
L 166.386587 88.96992 
L 169.434143 89.7336 
L 172.477034 90.456 
L 175.529997 90.56952 
L 178.547156 89.15568 
L 181.439897 88.9596 
L 184.689667 90.6624 
L 187.359941 89.94 
L 190.79259 90.00192 
L 193.842762 90.3528 
L 196.878795 90.62112 
L 199.914015 90.5076 
L 203.002784 90.3528 
L 206.065857 92.004 
L 208.86175 92.13816 
L 212.16263 91.25064 
L 215.202905 89.166 
L 218.250991 89.56848 
L 221.268892 90.93072 
L 224.392159 89.41368 
L 227.414513 90.37344 
L 230.4755 89.79552 
L 233.512276 90.23928 
L 236.572733 88.0824 
L 239.625167 88.7532 
L 242.655615 90.16704 
L 245.739153 90.67272 
L 248.802191 90.18768 
L 251.836457 89.2692 
L 254.889138 89.54784 
L 257.955038 89.49624 
L 261.003018 88.31976 
L 264.052836 88.45392 
L 267.165146 88.46424 
L 270.227653 86.38992 
L 273.228093 84.80064 
L 276.305269 84.8316 
L 279.36 86.586 
" clip-path="url(#p15c0ea481f)" style="fill: none; stroke: #4a8dff; stroke-width: 0.6"/>
   </g>
   <g id="line2d_7">
    <path d="M 8.64 85.41984 
L 11.693883 85.17216 
L 14.747766 84.9348 
L 17.801649 85.01736 
L 20.855531 86.14224 
L 23.909414 85.90488 
L 26.963297 86.328 
L 30.01718 86.24544 
L 33.071063 85.72944 
L 36.124946 85.7088 
L 39.178829 86.40024 
L 42.232711 85.09992 
L 45.286594 86.02872 
L 48.340477 84.78 
L 51.39436 83.53128 
L 54.448243 82.83984 
L 57.502126 82.03488 
L 60.556009 79.39296 
L 63.609892 79.66128 
L 66.663774 82.15872 
L 69.717657 82.43736 
L 72.77154 82.93272 
L 75.825423 83.00496 
L 78.879306 82.6128 
L 81.933189 82.28256 
L 84.987072 78.01008 
L 88.040954 76.19376 
L 91.094837 77.66952 
L 94.14872 77.74176 
L 97.202603 78.1752 
L 100.256486 79.5684 
L 103.310369 80.8068 
L 106.364252 85.20312 
L 109.418134 84.12984 
L 112.472017 84.03696 
L 115.5259 84.06792 
L 118.579783 84.3156 
L 121.633666 87.02976 
L 124.687549 85.21344 
L 127.741432 84.28464 
L 130.795314 84.32592 
L 133.849197 89.08344 
L 136.90308 89.5272 
L 139.956963 95.14128 
L 143.010846 96.98856 
L 146.064729 95.08968 
L 148.642892 97.71096 
L 151.069774 99.80592 
L 154.122102 101.79768 
L 157.162907 100.03296 
L 160.286598 100.518 
L 163.315279 99.98136 
L 166.386587 100.49736 
L 169.434143 100.78632 
L 172.477034 101.07528 
L 175.529997 101.26104 
L 178.547156 100.63152 
L 181.439897 100.38384 
L 184.689667 100.84824 
L 187.359941 100.65216 
L 190.79259 101.034 
L 193.842762 101.19912 
L 196.878795 101.10624 
L 199.914015 100.97208 
L 203.002784 100.91016 
L 206.065857 101.7564 
L 208.86175 101.84928 
L 212.16263 101.56032 
L 215.202905 100.85856 
L 218.250991 101.12688 
L 221.268892 101.4468 
L 224.392159 101.02368 
L 227.414513 101.30232 
L 230.4755 100.81728 
L 233.512276 100.79664 
L 236.572733 99.3312 
L 239.625167 99.92976 
L 242.655615 100.78632 
L 245.739153 101.17848 
L 248.802191 101.1372 
L 251.836457 100.21872 
L 254.889138 100.37352 
L 257.955038 100.4664 
L 261.003018 99.88848 
L 264.052836 99.94008 
L 267.165146 99.81624 
L 270.227653 98.93904 
L 273.228093 98.3508 
L 276.305269 98.52624 
L 279.36 99.78528 
" clip-path="url(#p15c0ea481f)" style="fill: none; stroke: #f5841e; stroke-width: 0.6"/>
   </g>
  </g>
 </g>
 <defs>
  <clipPath id="p15c0ea481f">
   <rect x="8.64" y="4.8" width="270.72" height="103.2"/>
  </clipPath>
 </defs>
</svg>
