<?xml version="1.0" encoding="utf-8" standalone="no"?>
<!DOCTYPE svg PUBLIC "-//W3C//DTD SVG 1.1//EN"
  "http://www.w3.org/Graphics/SVG/1.1/DTD/svg11.dtd">
<svg xmlns:xlink="http://www.w3.org/1999/xlink" width="288pt" height="120pt" viewBox="0 0 288 120" xmlns="http://www.w3.org/2000/svg" version="1.1">
<desc id="nav-meta">{"window":"1m","count":4,"labels":["24.03","03.04","12.04","22.04"],"tick_utc":["2026-03-24T03:21:58Z","2026-04-03T03:37:13Z","2026-04-12T03:55:19Z","2026-04-22T03:51:39Z"],"w":720,"h":300}</desc>

 <metadata>
  <rdf:RDF xmlns:dc="http://purl.org/dc/elements/1.1/" xmlns:cc="http://creativecommons.org/ns#" xmlns:rdf="http://www.w3.org/1999/02/22-rdf-syntax-ns#">
   <cc:Work>
    <dc:type rdf:resource="http://purl.org/dc/dcmitype/StillImage"/>
    <dc:date>2026-04-22T08:19:18.111990</dc:date>
    <dc:format>image/svg+xml</dc:format>
    <dc:creator>
     <cc:Agent>
      <dc:title>Matplotlib v3.10.8, https://matplotlib.org/</dc:title>
     </cc:Agent>
    </dc:creator>
   </cc:Work>
  </rdf:RDF>
 </metadata>
 <defs>
  <style type="text/css">*{stroke-linejoin: round; stroke-linecap: butt}</style>
 </defs>
 <g id="figure_1">
  <g id="patch_1">
   <path d="M 0 120 
L 288 120 
L 288 0 
L 0 0 
L 0 120 
z
" style="fill: none; opacity: 0"/>
  </g>
  <g id="axes_1">
   <g id="patch_2">
    <path d="M 8.64 108 
L 279.36 108 
L 279.36 4.8 
L 8.64 4.8 
L 8.64 108 
z
" style="fill: none"/>
   </g>
   <g id="matplotlib.axis_1"/>
   <g id="matplotlib.axis_2"/>
   <g id="line2d_1">
    <path d="M 8.64 87.36 
L 279.36 87.36 
" clip-path="url(#p8bb423c1f7)" style="fill: none; stroke: #b2b2b2; stroke-opacity: 0.35; stroke-width: 0.5; stroke-linecap: square"/>
   </g>
   <g id="line2d_2">
    <path d="M 8.64 66.72 
L 279.36 66.72 
" clip-path="url(#p8bb423c1f7)" style="fill: none; stroke: #b2b2b2; stroke-opacity: 0.35; stroke-width: 0.5; stroke-linecap: square"/>
   </g>
   <g id="line2d_3">
    <path d="M 8.64 46.08 
L 279.36 46.08 
" clip-path="url(#p8bb423c1f7)" style="fill: none; stroke: #b2b2b2; stroke-opacity: 0.35; stroke-width: 0.5; stroke-linecap: square"/>
   </g>
   <g id="line2d_4">
    <path d="M 8.64 25.44 
L 279.36 25.44 
" clip-path="url(#p8bb423c1f7)" style="fill: none; stroke: #b2b2b2; stroke-opacity: 0.35; stroke-width: 0.5; stroke-linecap: square"/>
   </g>
   <g id="line2d_5">
    <path d="M 8.64 100.26 
L 18.663324 99.83688 
L 27.410559 100.13616 
L 36.750869 100.80696 
L 45.990228 101.38488 
L 55.44585 101.3436 
L 64.80106 101.292 
L 74.070758 101.28168 
L 83.479305 101.28168 
L 92.684977 101.8596 
L 102.024208 101.88024 
L 111.272852 101.72544 
L 120.741862 101.68416 
L 130.094481 101.47776 
L 139.362452 101.78736 
L 148.706109 101.09592 
L 158.002152 101.46744 
L 167.416529 101.3436 
L 176.602443 101.05464 
L 186.098337 101.3952 
L 195.474709 101.47776 
L 204.743868 100.86888 
L 214.065283 101.26104 
L 223.434205 100.99272 
L 232.743744 100.61088 
L 241.969391 100.44576 
L 251.421126 100.94112 
L 260.772773 101.09592 
L 270.060394 101.00304 
L 279.36 100.69344 
" clip-path="url(#p8bb423c1f7)" style="fill: none; stroke: #bebebe; stroke-width: 0.5; stroke-linecap: round"/>
   </g>
   <g id="line2d_6">
    <path d="M 8.64 87.89664 
L 18.663324 87.3084 
L 27.410559 87.65928 
L 36.750869 88.96992 
L 45.990228 90.07416 
L 55.44585 89.76456 
L 64.80106 89.3724 
L 74.070758 89.00088 
L 83.479305 88.42296 
L 92.684977 88.81512 
L 102.024208 89.10408 
L 111.272852 89.14536 
L 120.741862 89.07312 
L 130.094481 87.9792 
L 139.362452 88.29912 
L 148.706109 86.38992 
L 158.002152 87.24648 
L 167.416529 87.1536 
L 176.602443 86.21448 
L 186.098337 86.66856 
L 195.474709 87.01944 
L 204.743868 84.44976 
L 214.065283 85.05864 
L 223.434205 84.58392 
L 232.743744 85.04832 
L 241.969391 83.71704 
L 251.421126 84.86256 
L 260.772773 85.6572 
L 270.060394 85.27536 
L 279.36 84.49104 
" clip-path="url(#p8bb423c1f7)" style="fill: none; stroke: #4a8dff; stroke-width: 0.6"/>
   </g>
   <g id="line2d_7">
    <path d="M 8.64 100.11552 
L 18.663324 99.87816 
L 27.410559 100.002 
L 36.750869 100.64184 
L 45.990228 101.41584 
L 55.44585 101.21976 
L 64.80106 101.14752 
L 74.070758 101.00304 
L 83.479305 100.86888 
L 92.684977 101.21976 
L 102.024208 101.28168 
L 111.272852 101.20944 
L 120.741862 101.14752 
L 130.094481 100.55928 
L 139.362452 100.65216 
L 148.706109 99.80592 
L 158.002152 99.96072 
L 167.416529 99.6408 
L 176.602443 99.1764 
L 186.098337 99.70272 
L 195.474709 99.94008 
L 204.743868 98.57784 
L 214.065283 98.65008 
L 223.434205 98.38176 
L 232.743744 98.48496 
L 241.969391 96.70992 
L 251.421126 98.05152 
L 260.772773 98.48496 
L 270.060394 97.96896 
L 279.36 96.32808 
" clip-path="url(#p8bb423c1f7)" style="fill: none; stroke: #f5841e; stroke-width: 0.6"/>
   </g>
  </g>
 </g>
 <defs>
  <clipPath id="p8bb423c1f7">
   <rect x="8.64" y="4.8" width="270.72" height="103.2"/>
  </clipPath>
 </defs>
</svg>
