<?xml version="1.0" encoding="utf-8" standalone="no"?>
<!DOCTYPE svg PUBLIC "-//W3C//DTD SVG 1.1//EN"
  "http://www.w3.org/Graphics/SVG/1.1/DTD/svg11.dtd">
<svg xmlns:xlink="http://www.w3.org/1999/xlink" width="288pt" height="120pt" viewBox="0 0 288 120" xmlns="http://www.w3.org/2000/svg" version="1.1">
<desc id="nav-meta">{"window":"3m","count":4,"labels":["16.01","15.02","16.03","15.04"],"tick_utc":["2026-01-16T12:00:00Z","2026-02-15T02:00:29Z","2026-03-16T03:46:39Z","2026-04-15T03:52:26Z"],"w":720,"h":300}</desc>

 <metadata>
  <rdf:RDF xmlns:dc="http://purl.org/dc/elements/1.1/" xmlns:cc="http://creativecommons.org/ns#" xmlns:rdf="http://www.w3.org/1999/02/22-rdf-syntax-ns#">
   <cc:Work>
    <dc:type rdf:resource="http://purl.org/dc/dcmitype/StillImage"/>
    <dc:date>2026-04-15T14:13:43.119591</dc:date>
    <dc:format>image/svg+xml</dc:format>
    <dc:creator>
     <cc:Agent>
      <dc:title>Matplotlib v3.10.8, https://matplotlib.org/</dc:title>
     </cc:Agent>
    </dc:creator>
   </cc:Work>
  </rdf:RDF>
 </metadata>
 <defs>
  <style type="text/css">*{stroke-linejoin: round; stroke-linecap: butt}</style>
 </defs>
 <g id="figure_1">
  <g id="patch_1">
   <path d="M 0 120 
L 288 120 
L 288 0 
L 0 0 
L 0 120 
z
" style="fill: none; opacity: 0"/>
  </g>
  <g id="axes_1">
   <g id="patch_2">
    <path d="M 8.64 108 
L 279.36 108 
L 279.36 4.8 
L 8.64 4.8 
L 8.64 108 
z
" style="fill: none"/>
   </g>
   <g id="matplotlib.axis_1"/>
   <g id="matplotlib.axis_2"/>
   <g id="line2d_1">
    <path d="M 8.64 87.36 
L 279.36 87.36 
" clip-path="url(#p10e0754636)" style="fill: none; stroke: #b2b2b2; stroke-opacity: 0.35; stroke-width: 0.5; stroke-linecap: square"/>
   </g>
   <g id="line2d_2">
    <path d="M 8.64 66.72 
L 279.36 66.72 
" clip-path="url(#p10e0754636)" style="fill: none; stroke: #b2b2b2; stroke-opacity: 0.35; stroke-width: 0.5; stroke-linecap: square"/>
   </g>
   <g id="line2d_3">
    <path d="M 8.64 46.08 
L 279.36 46.08 
" clip-path="url(#p10e0754636)" style="fill: none; stroke: #b2b2b2; stroke-opacity: 0.35; stroke-width: 0.5; stroke-linecap: square"/>
   </g>
   <g id="line2d_4">
    <path d="M 8.64 25.44 
L 279.36 25.44 
" clip-path="url(#p10e0754636)" style="fill: none; stroke: #b2b2b2; stroke-opacity: 0.35; stroke-width: 0.5; stroke-linecap: square"/>
   </g>
   <g id="line2d_5">
    <path d="M 8.64 87.62832 
L 11.693414 86.93688 
L 14.746828 87.23616 
L 17.800242 88.63968 
L 20.853656 90.0432 
L 23.90707 92.12784 
L 26.960484 91.16808 
L 30.013898 91.46736 
L 33.067312 91.73568 
L 36.120726 91.78728 
L 39.17414 94.0164 
L 42.227554 92.5716 
L 45.280968 91.76664 
L 48.334382 92.33424 
L 51.387797 94.36728 
L 54.441211 94.46016 
L 57.494625 97.71096 
L 60.548039 98.48496 
L 63.601453 97.85544 
L 66.17922 99.10416 
L 68.60573 100.16712 
L 71.657589 102.23112 
L 74.697927 100.54896 
L 77.821138 100.70376 
L 80.849355 100.68312 
L 83.920191 100.95144 
L 86.967279 101.28168 
L 90.009703 101.71512 
L 93.062198 101.84928 
L 96.078893 101.034 
L 98.97119 100.54896 
L 102.220461 101.04432 
L 104.890325 100.81728 
L 108.322447 101.034 
L 111.372151 101.4984 
L 114.407718 101.33328 
L 117.442472 101.1372 
L 120.530767 101.06496 
L 123.59337 102.09696 
L 126.388834 102.05568 
L 129.689207 101.4984 
L 132.729015 100.60056 
L 135.776633 100.80696 
L 138.79407 101.45712 
L 141.916858 100.55928 
L 144.938748 101.10624 
L 147.999266 100.8792 
L 151.035575 100.74504 
L 154.095562 100.21872 
L 157.147527 100.53864 
L 160.177511 101.07528 
L 163.260575 101.38488 
L 166.323142 101.26104 
L 169.356943 100.78632 
L 172.409155 100.91016 
L 175.474585 100.99272 
L 178.522097 100.38384 
L 181.571447 100.50768 
L 184.683279 100.60056 
L 187.745316 99.76464 
L 190.745295 99.49632 
L 193.821998 99.40344 
L 196.876261 100.09488 
L 199.899953 100.3632 
L 202.935485 100.19808 
L 206.034559 100.47672 
L 209.095147 100.79664 
L 212.120289 100.26 
L 215.401119 99.83688 
L 218.26426 100.13616 
L 221.321526 100.80696 
L 224.345749 101.38488 
L 227.440758 101.3436 
L 230.502902 101.292 
L 233.537055 101.28168 
L 236.616656 101.28168 
L 239.629853 101.8596 
L 242.686766 101.88024 
L 245.714028 101.72544 
L 248.81342 101.68416 
L 251.874715 101.47776 
L 254.908303 101.78736 
L 257.966665 101.09592 
L 261.009441 101.46744 
L 264.090951 101.3436 
L 267.09768 101.05464 
L 270.205872 101.3952 
L 273.274942 101.47776 
L 276.308918 100.86888 
L 279.36 101.26104 
" clip-path="url(#p10e0754636)" style="fill: none; stroke: #bebebe; stroke-width: 0.5; stroke-linecap: round"/>
   </g>
   <g id="line2d_6">
    <path d="M 8.64 70.34232 
L 11.693414 70.67256 
L 14.746828 70.51776 
L 17.800242 70.848 
L 20.853656 72.31344 
L 23.90707 76.01832 
L 26.960484 75.41976 
L 30.013898 75.83256 
L 33.067312 75.79128 
L 36.120726 75.82224 
L 39.17414 77.82432 
L 42.227554 76.14216 
L 45.280968 74.75928 
L 48.334382 74.96568 
L 51.387797 77.75208 
L 54.441211 79.48584 
L 57.494625 83.31456 
L 60.548039 85.90488 
L 63.601453 84.79032 
L 66.17922 85.84296 
L 68.60573 88.25784 
L 71.657589 91.41576 
L 74.697927 88.7532 
L 77.821138 88.65 
L 80.849355 88.55712 
L 83.920191 88.96992 
L 86.967279 89.7336 
L 90.009703 90.456 
L 93.062198 90.56952 
L 96.078893 89.15568 
L 98.97119 88.9596 
L 102.220461 90.6624 
L 104.890325 89.94 
L 108.322447 90.00192 
L 111.372151 90.3528 
L 114.407718 90.62112 
L 117.442472 90.5076 
L 120.530767 90.3528 
L 123.59337 92.004 
L 126.388834 92.13816 
L 129.689207 91.25064 
L 132.729015 89.166 
L 135.776633 89.56848 
L 138.79407 90.93072 
L 141.916858 89.41368 
L 144.938748 90.37344 
L 147.999266 89.79552 
L 151.035575 90.23928 
L 154.095562 88.0824 
L 157.147527 88.7532 
L 160.177511 90.16704 
L 163.260575 90.67272 
L 166.323142 90.18768 
L 169.356943 89.2692 
L 172.409155 89.54784 
L 175.474585 89.49624 
L 178.522097 88.31976 
L 181.571447 88.45392 
L 184.683279 88.46424 
L 187.745316 86.38992 
L 190.745295 84.80064 
L 193.821998 84.8316 
L 196.876261 86.586 
L 199.899953 87.74184 
L 202.935485 87.618 
L 206.034559 88.19592 
L 209.095147 89.08344 
L 212.120289 87.89664 
L 215.401119 87.3084 
L 218.26426 87.65928 
L 221.321526 88.96992 
L 224.345749 90.07416 
L 227.440758 89.76456 
L 230.502902 89.3724 
L 233.537055 89.00088 
L 236.616656 88.42296 
L 239.629853 88.81512 
L 242.686766 89.10408 
L 245.714028 89.14536 
L 248.81342 89.07312 
L 251.874715 87.9792 
L 254.908303 88.29912 
L 257.966665 86.38992 
L 261.009441 87.24648 
L 264.090951 87.1536 
L 267.09768 86.21448 
L 270.205872 86.66856 
L 273.274942 87.01944 
L 276.308918 84.44976 
L 279.36 85.05864 
" clip-path="url(#p10e0754636)" style="fill: none; stroke: #4a8dff; stroke-width: 0.6"/>
   </g>
   <g id="line2d_7">
    <path d="M 8.64 77.66952 
L 11.693414 77.74176 
L 14.746828 78.1752 
L 17.800242 79.5684 
L 20.853656 80.8068 
L 23.90707 85.20312 
L 26.960484 84.12984 
L 30.013898 84.03696 
L 33.067312 84.06792 
L 36.120726 84.3156 
L 39.17414 87.02976 
L 42.227554 85.21344 
L 45.280968 84.28464 
L 48.334382 84.32592 
L 51.387797 89.08344 
L 54.441211 89.5272 
L 57.494625 95.14128 
L 60.548039 96.98856 
L 63.601453 95.08968 
L 66.17922 97.71096 
L 68.60573 99.80592 
L 71.657589 101.79768 
L 74.697927 100.03296 
L 77.821138 100.518 
L 80.849355 99.98136 
L 83.920191 100.49736 
L 86.967279 100.78632 
L 90.009703 101.07528 
L 93.062198 101.26104 
L 96.078893 100.63152 
L 98.97119 100.38384 
L 102.220461 100.84824 
L 104.890325 100.65216 
L 108.322447 101.034 
L 111.372151 101.19912 
L 114.407718 101.10624 
L 117.442472 100.97208 
L 120.530767 100.91016 
L 123.59337 101.7564 
L 126.388834 101.84928 
L 129.689207 101.56032 
L 132.729015 100.85856 
L 135.776633 101.12688 
L 138.79407 101.4468 
L 141.916858 101.02368 
L 144.938748 101.30232 
L 147.999266 100.81728 
L 151.035575 100.79664 
L 154.095562 99.3312 
L 157.147527 99.92976 
L 160.177511 100.78632 
L 163.260575 101.17848 
L 166.323142 101.1372 
L 169.356943 100.21872 
L 172.409155 100.37352 
L 175.474585 100.4664 
L 178.522097 99.88848 
L 181.571447 99.94008 
L 184.683279 99.81624 
L 187.745316 98.93904 
L 190.745295 98.3508 
L 193.821998 98.52624 
L 196.876261 99.78528 
L 199.899953 100.12584 
L 202.935485 100.03296 
L 206.034559 100.45608 
L 209.095147 100.83792 
L 212.120289 100.11552 
L 215.401119 99.87816 
L 218.26426 100.002 
L 221.321526 100.64184 
L 224.345749 101.41584 
L 227.440758 101.21976 
L 230.502902 101.14752 
L 233.537055 101.00304 
L 236.616656 100.86888 
L 239.629853 101.21976 
L 242.686766 101.28168 
L 245.714028 101.20944 
L 248.81342 101.14752 
L 251.874715 100.55928 
L 254.908303 100.65216 
L 257.966665 99.80592 
L 261.009441 99.96072 
L 264.090951 99.6408 
L 267.09768 99.1764 
L 270.205872 99.70272 
L 273.274942 99.94008 
L 276.308918 98.57784 
L 279.36 98.65008 
" clip-path="url(#p10e0754636)" style="fill: none; stroke: #f5841e; stroke-width: 0.6"/>
   </g>
  </g>
 </g>
 <defs>
  <clipPath id="p10e0754636">
   <rect x="8.64" y="4.8" width="270.72" height="103.2"/>
  </clipPath>
 </defs>
</svg>
