<?xml version="1.0" encoding="utf-8" standalone="no"?>
<!DOCTYPE svg PUBLIC "-//W3C//DTD SVG 1.1//EN"
  "http://www.w3.org/Graphics/SVG/1.1/DTD/svg11.dtd">
<svg xmlns:xlink="http://www.w3.org/1999/xlink" width="288pt" height="120pt" viewBox="0 0 288 120" xmlns="http://www.w3.org/2000/svg" version="1.1">
<desc id="nav-meta">{"window":"3m","count":4,"labels":["05.12","04.01","02.02","04.03"],"tick_utc":["2025-12-05T12:00:00Z","2026-01-04T12:00:00Z","2026-02-02T12:00:00Z","2026-03-04T03:14:13Z"],"w":720,"h":300}</desc>

 <metadata>
  <rdf:RDF xmlns:dc="http://purl.org/dc/elements/1.1/" xmlns:cc="http://creativecommons.org/ns#" xmlns:rdf="http://www.w3.org/1999/02/22-rdf-syntax-ns#">
   <cc:Work>
    <dc:type rdf:resource="http://purl.org/dc/dcmitype/StillImage"/>
    <dc:date>2026-03-04T13:42:47.791526</dc:date>
    <dc:format>image/svg+xml</dc:format>
    <dc:creator>
     <cc:Agent>
      <dc:title>Matplotlib v3.10.8, https://matplotlib.org/</dc:title>
     </cc:Agent>
    </dc:creator>
   </cc:Work>
  </rdf:RDF>
 </metadata>
 <defs>
  <style type="text/css">*{stroke-linejoin: round; stroke-linecap: butt}</style>
 </defs>
 <g id="figure_1">
  <g id="patch_1">
   <path d="M 0 120 
L 288 120 
L 288 0 
L 0 0 
L 0 120 
z
" style="fill: none; opacity: 0"/>
  </g>
  <g id="axes_1">
   <g id="patch_2">
    <path d="M 8.64 108 
L 279.36 108 
L 279.36 4.8 
L 8.64 4.8 
L 8.64 108 
z
" style="fill: none"/>
   </g>
   <g id="matplotlib.axis_1"/>
   <g id="matplotlib.axis_2"/>
   <g id="line2d_1">
    <path d="M 8.64 87.36 
L 279.36 87.36 
" clip-path="url(#p21ff5f6054)" style="fill: none; stroke: #b2b2b2; stroke-opacity: 0.35; stroke-width: 0.5; stroke-linecap: square"/>
   </g>
   <g id="line2d_2">
    <path d="M 8.64 66.72 
L 279.36 66.72 
" clip-path="url(#p21ff5f6054)" style="fill: none; stroke: #b2b2b2; stroke-opacity: 0.35; stroke-width: 0.5; stroke-linecap: square"/>
   </g>
   <g id="line2d_3">
    <path d="M 8.64 46.08 
L 279.36 46.08 
" clip-path="url(#p21ff5f6054)" style="fill: none; stroke: #b2b2b2; stroke-opacity: 0.35; stroke-width: 0.5; stroke-linecap: square"/>
   </g>
   <g id="line2d_4">
    <path d="M 8.64 25.44 
L 279.36 25.44 
" clip-path="url(#p21ff5f6054)" style="fill: none; stroke: #b2b2b2; stroke-opacity: 0.35; stroke-width: 0.5; stroke-linecap: square"/>
   </g>
   <g id="line2d_5">
    <path d="M 8.64 88.52616 
L 11.694328 90.11544 
L 14.748657 90.38376 
L 17.802985 90.53856 
L 20.857313 90.08448 
L 23.911641 88.79448 
L 26.96597 89.20728 
L 30.020298 89.22792 
L 33.074626 90.31152 
L 36.128955 90.10512 
L 39.183283 91.09584 
L 42.237611 91.61184 
L 45.29194 91.31256 
L 48.346268 92.87088 
L 51.400596 93.8616 
L 54.454924 92.02464 
L 57.509253 92.13816 
L 60.563581 92.07624 
L 63.617909 92.14848 
L 66.672238 92.64384 
L 69.726566 93.01536 
L 72.780894 93.69648 
L 75.835223 93.11856 
L 78.889551 92.44776 
L 81.943879 92.30328 
L 84.998207 92.87088 
L 88.052536 92.38584 
L 91.106864 92.47872 
L 94.161192 91.88016 
L 97.215521 90.42504 
L 100.269849 90.08448 
L 103.324177 89.92968 
L 106.378506 88.76352 
L 109.432834 87.94824 
L 112.487162 89.2692 
L 115.54149 88.72224 
L 118.595819 89.39304 
L 121.650147 89.40336 
L 124.704475 88.41264 
L 127.758804 88.4952 
L 130.813132 86.86464 
L 133.86746 86.42088 
L 136.921789 87.62832 
L 139.976117 86.93688 
L 143.030445 87.23616 
L 146.084773 88.63968 
L 149.139102 90.0432 
L 152.19343 92.12784 
L 155.247758 91.16808 
L 158.302087 91.46736 
L 161.356415 91.73568 
L 164.410743 91.78728 
L 167.465072 94.0164 
L 170.5194 92.5716 
L 173.573728 91.76664 
L 176.628056 92.33424 
L 179.682385 94.36728 
L 182.736713 94.46016 
L 185.791041 97.71096 
L 188.84537 98.48496 
L 191.899698 97.85544 
L 194.478237 99.10416 
L 196.905473 100.16712 
L 199.958246 102.23112 
L 202.999495 100.54896 
L 206.123641 100.70376 
L 209.152764 100.68312 
L 212.224521 100.95144 
L 215.272521 101.28168 
L 218.315855 101.71512 
L 221.369264 101.84928 
L 224.386863 101.034 
L 227.280026 100.54896 
L 230.53027 101.04432 
L 233.200933 100.81728 
L 236.634083 101.034 
L 239.6847 101.4984 
L 242.721176 101.33328 
L 245.756839 101.1372 
L 248.846058 101.06496 
L 251.909578 102.09696 
L 254.705879 102.05568 
L 258.00724 101.4984 
L 261.047959 100.60056 
L 264.096489 100.80696 
L 267.11483 101.45712 
L 270.238553 100.55928 
L 273.261348 101.10624 
L 276.322782 100.8792 
L 279.36 100.74504 
" clip-path="url(#p21ff5f6054)" style="fill: none; stroke: #bebebe; stroke-width: 0.5; stroke-linecap: round"/>
   </g>
   <g id="line2d_6">
    <path d="M 8.64 73.08744 
L 11.694328 74.72832 
L 14.748657 74.48064 
L 17.802985 74.28456 
L 20.857313 73.21128 
L 23.911641 70.2804 
L 26.96597 70.2288 
L 30.020298 71.56008 
L 33.074626 73.79952 
L 36.128955 73.35576 
L 39.183283 74.0988 
L 42.237611 75.5952 
L 45.29194 75.5952 
L 48.346268 77.61792 
L 51.400596 77.63856 
L 54.454924 75.40944 
L 57.509253 75.40944 
L 60.563581 75.04824 
L 63.617909 74.98632 
L 66.672238 75.58488 
L 69.726566 75.87384 
L 72.780894 76.49304 
L 75.835223 76.15248 
L 78.889551 75.82224 
L 81.943879 75.84288 
L 84.998207 76.03896 
L 88.052536 75.51264 
L 91.106864 75.56424 
L 94.161192 75.05856 
L 97.215521 73.26288 
L 100.269849 73.20096 
L 103.324177 73.00488 
L 106.378506 71.68392 
L 109.432834 70.6932 
L 112.487162 72.62304 
L 115.54149 73.52088 
L 118.595819 73.83048 
L 121.650147 73.8408 
L 124.704475 73.29384 
L 127.758804 73.72728 
L 130.813132 70.32168 
L 133.86746 69.77472 
L 136.921789 70.34232 
L 139.976117 70.67256 
L 143.030445 70.51776 
L 146.084773 70.848 
L 149.139102 72.31344 
L 152.19343 76.01832 
L 155.247758 75.41976 
L 158.302087 75.83256 
L 161.356415 75.79128 
L 164.410743 75.82224 
L 167.465072 77.82432 
L 170.5194 76.14216 
L 173.573728 74.75928 
L 176.628056 74.96568 
L 179.682385 77.75208 
L 182.736713 79.48584 
L 185.791041 83.31456 
L 188.84537 85.90488 
L 191.899698 84.79032 
L 194.478237 85.84296 
L 196.905473 88.25784 
L 199.958246 91.41576 
L 202.999495 88.7532 
L 206.123641 88.65 
L 209.152764 88.55712 
L 212.224521 88.96992 
L 215.272521 89.7336 
L 218.315855 90.456 
L 221.369264 90.56952 
L 224.386863 89.15568 
L 227.280026 88.9596 
L 230.53027 90.6624 
L 233.200933 89.94 
L 236.634083 90.00192 
L 239.6847 90.3528 
L 242.721176 90.62112 
L 245.756839 90.5076 
L 248.846058 90.3528 
L 251.909578 92.004 
L 254.705879 92.13816 
L 258.00724 91.25064 
L 261.047959 89.166 
L 264.096489 89.56848 
L 267.11483 90.93072 
L 270.238553 89.41368 
L 273.261348 90.37344 
L 276.322782 89.79552 
L 279.36 90.23928 
" clip-path="url(#p21ff5f6054)" style="fill: none; stroke: #4a8dff; stroke-width: 0.6"/>
   </g>
   <g id="line2d_7">
    <path d="M 8.64 81.24024 
L 11.694328 84.17112 
L 14.748657 84.24336 
L 17.802985 83.29392 
L 20.857313 82.8192 
L 23.911641 80.64168 
L 26.96597 81.38472 
L 30.020298 80.87904 
L 33.074626 83.13912 
L 36.128955 83.19072 
L 39.183283 85.296 
L 42.237611 87.17424 
L 45.29194 85.71912 
L 48.346268 87.53544 
L 51.400596 88.17528 
L 54.454924 85.41984 
L 57.509253 85.17216 
L 60.563581 84.9348 
L 63.617909 85.01736 
L 66.672238 86.14224 
L 69.726566 85.90488 
L 72.780894 86.328 
L 75.835223 86.24544 
L 78.889551 85.72944 
L 81.943879 85.7088 
L 84.998207 86.40024 
L 88.052536 85.09992 
L 91.106864 86.02872 
L 94.161192 84.78 
L 97.215521 83.53128 
L 100.269849 82.83984 
L 103.324177 82.03488 
L 106.378506 79.39296 
L 109.432834 79.66128 
L 112.487162 82.15872 
L 115.54149 82.43736 
L 118.595819 82.93272 
L 121.650147 83.00496 
L 124.704475 82.6128 
L 127.758804 82.28256 
L 130.813132 78.01008 
L 133.86746 76.19376 
L 136.921789 77.66952 
L 139.976117 77.74176 
L 143.030445 78.1752 
L 146.084773 79.5684 
L 149.139102 80.8068 
L 152.19343 85.20312 
L 155.247758 84.12984 
L 158.302087 84.03696 
L 161.356415 84.06792 
L 164.410743 84.3156 
L 167.465072 87.02976 
L 170.5194 85.21344 
L 173.573728 84.28464 
L 176.628056 84.32592 
L 179.682385 89.08344 
L 182.736713 89.5272 
L 185.791041 95.14128 
L 188.84537 96.98856 
L 191.899698 95.08968 
L 194.478237 97.71096 
L 196.905473 99.80592 
L 199.958246 101.79768 
L 202.999495 100.03296 
L 206.123641 100.518 
L 209.152764 99.98136 
L 212.224521 100.49736 
L 215.272521 100.78632 
L 218.315855 101.07528 
L 221.369264 101.26104 
L 224.386863 100.63152 
L 227.280026 100.38384 
L 230.53027 100.84824 
L 233.200933 100.65216 
L 236.634083 101.034 
L 239.6847 101.19912 
L 242.721176 101.10624 
L 245.756839 100.97208 
L 248.846058 100.91016 
L 251.909578 101.7564 
L 254.705879 101.84928 
L 258.00724 101.56032 
L 261.047959 100.85856 
L 264.096489 101.12688 
L 267.11483 101.4468 
L 270.238553 101.02368 
L 273.261348 101.30232 
L 276.322782 100.81728 
L 279.36 100.79664 
" clip-path="url(#p21ff5f6054)" style="fill: none; stroke: #f5841e; stroke-width: 0.6"/>
   </g>
  </g>
 </g>
 <defs>
  <clipPath id="p21ff5f6054">
   <rect x="8.64" y="4.8" width="270.72" height="103.2"/>
  </clipPath>
 </defs>
</svg>
