<?xml version="1.0" encoding="utf-8" standalone="no"?>
<!DOCTYPE svg PUBLIC "-//W3C//DTD SVG 1.1//EN"
  "http://www.w3.org/Graphics/SVG/1.1/DTD/svg11.dtd">
<svg xmlns:xlink="http://www.w3.org/1999/xlink" width="288pt" height="120pt" viewBox="0 0 288 120" xmlns="http://www.w3.org/2000/svg" version="1.1">
<desc id="nav-meta">{"window":"3m","count":4,"labels":["24.11","24.12","23.01","22.02"],"tick_utc":["2025-11-24T12:00:00Z","2025-12-24T12:00:00Z","2026-01-23T12:00:00Z","2026-02-22T03:28:03Z"],"w":720,"h":300}</desc>

 <metadata>
  <rdf:RDF xmlns:dc="http://purl.org/dc/elements/1.1/" xmlns:cc="http://creativecommons.org/ns#" xmlns:rdf="http://www.w3.org/1999/02/22-rdf-syntax-ns#">
   <cc:Work>
    <dc:type rdf:resource="http://purl.org/dc/dcmitype/StillImage"/>
    <dc:date>2026-02-22T07:25:05.123522</dc:date>
    <dc:format>image/svg+xml</dc:format>
    <dc:creator>
     <cc:Agent>
      <dc:title>Matplotlib v3.10.8, https://matplotlib.org/</dc:title>
     </cc:Agent>
    </dc:creator>
   </cc:Work>
  </rdf:RDF>
 </metadata>
 <defs>
  <style type="text/css">*{stroke-linejoin: round; stroke-linecap: butt}</style>
 </defs>
 <g id="figure_1">
  <g id="patch_1">
   <path d="M 0 120 
L 288 120 
L 288 0 
L 0 0 
L 0 120 
z
" style="fill: none; opacity: 0"/>
  </g>
  <g id="axes_1">
   <g id="patch_2">
    <path d="M 8.64 108 
L 279.36 108 
L 279.36 4.8 
L 8.64 4.8 
L 8.64 108 
z
" style="fill: none"/>
   </g>
   <g id="matplotlib.axis_1"/>
   <g id="matplotlib.axis_2"/>
   <g id="line2d_1">
    <path d="M 8.64 87.36 
L 279.36 87.36 
" clip-path="url(#p5d0ece392f)" style="fill: none; stroke: #b2b2b2; stroke-opacity: 0.35; stroke-width: 0.5; stroke-linecap: square"/>
   </g>
   <g id="line2d_2">
    <path d="M 8.64 66.72 
L 279.36 66.72 
" clip-path="url(#p5d0ece392f)" style="fill: none; stroke: #b2b2b2; stroke-opacity: 0.35; stroke-width: 0.5; stroke-linecap: square"/>
   </g>
   <g id="line2d_3">
    <path d="M 8.64 46.08 
L 279.36 46.08 
" clip-path="url(#p5d0ece392f)" style="fill: none; stroke: #b2b2b2; stroke-opacity: 0.35; stroke-width: 0.5; stroke-linecap: square"/>
   </g>
   <g id="line2d_4">
    <path d="M 8.64 25.44 
L 279.36 25.44 
" clip-path="url(#p5d0ece392f)" style="fill: none; stroke: #b2b2b2; stroke-opacity: 0.35; stroke-width: 0.5; stroke-linecap: square"/>
   </g>
   <g id="line2d_5">
    <path d="M 8.64 90.75528 
L 11.659929 88.7016 
L 14.679859 88.52616 
L 17.699788 87.45288 
L 20.719718 88.0308 
L 23.739647 88.94928 
L 26.759577 89.3208 
L 29.779506 89.7336 
L 32.799435 91.86984 
L 35.819365 88.60872 
L 38.839294 86.87496 
L 41.859224 88.52616 
L 44.879153 90.11544 
L 47.899082 90.38376 
L 50.919012 90.53856 
L 53.938941 90.08448 
L 56.958871 88.79448 
L 59.9788 89.20728 
L 62.99873 89.22792 
L 66.018659 90.31152 
L 69.038588 90.10512 
L 72.058518 91.09584 
L 75.078447 91.61184 
L 78.098377 91.31256 
L 81.118306 92.87088 
L 84.138236 93.8616 
L 87.158165 92.02464 
L 90.178094 92.13816 
L 93.198024 92.07624 
L 96.217953 92.14848 
L 99.237883 92.64384 
L 102.257812 93.01536 
L 105.277741 93.69648 
L 108.297671 93.11856 
L 111.3176 92.44776 
L 114.33753 92.30328 
L 117.357459 92.87088 
L 120.377389 92.38584 
L 123.397318 92.47872 
L 126.417247 91.88016 
L 129.437177 90.42504 
L 132.457106 90.08448 
L 135.477036 89.92968 
L 138.496965 88.76352 
L 141.516894 87.94824 
L 144.536824 89.2692 
L 147.556753 88.72224 
L 150.576683 89.39304 
L 153.596612 89.40336 
L 156.616542 88.41264 
L 159.636471 88.4952 
L 162.6564 86.86464 
L 165.67633 86.42088 
L 168.696259 87.62832 
L 171.716189 86.93688 
L 174.736118 87.23616 
L 177.756048 88.63968 
L 180.775977 90.0432 
L 183.795906 92.12784 
L 186.815836 91.16808 
L 189.835765 91.46736 
L 192.855695 91.73568 
L 195.875624 91.78728 
L 198.895553 94.0164 
L 201.915483 92.5716 
L 204.935412 91.76664 
L 207.955342 92.33424 
L 210.975271 94.36728 
L 213.995201 94.46016 
L 217.01513 97.71096 
L 220.035059 98.48496 
L 223.054989 97.85544 
L 225.604487 99.10416 
L 228.004388 100.16712 
L 231.022779 102.23112 
L 234.029776 100.54896 
L 237.118737 100.70376 
L 240.113745 100.68312 
L 243.150906 100.95144 
L 246.164579 101.28168 
L 249.173638 101.71512 
L 252.192659 101.84928 
L 255.176272 101.034 
L 258.036852 100.54896 
L 261.25049 101.04432 
L 263.891076 100.81728 
L 267.28556 101.034 
L 270.30182 101.4984 
L 273.304098 101.33328 
L 276.305572 101.1372 
L 279.36 101.06496 
" clip-path="url(#p5d0ece392f)" style="fill: none; stroke: #bebebe; stroke-width: 0.5; stroke-linecap: round"/>
   </g>
   <g id="line2d_6">
    <path d="M 8.64 78.04104 
L 11.659929 75.76032 
L 14.679859 75.73968 
L 17.699788 74.65608 
L 20.719718 74.83152 
L 23.739647 74.57352 
L 26.759577 75.20304 
L 29.779506 75.17208 
L 32.799435 78.05136 
L 35.819365 75.1308 
L 38.839294 72.16896 
L 41.859224 73.08744 
L 44.879153 74.72832 
L 47.899082 74.48064 
L 50.919012 74.28456 
L 53.938941 73.21128 
L 56.958871 70.2804 
L 59.9788 70.2288 
L 62.99873 71.56008 
L 66.018659 73.79952 
L 69.038588 73.35576 
L 72.058518 74.0988 
L 75.078447 75.5952 
L 78.098377 75.5952 
L 81.118306 77.61792 
L 84.138236 77.63856 
L 87.158165 75.40944 
L 90.178094 75.40944 
L 93.198024 75.04824 
L 96.217953 74.98632 
L 99.237883 75.58488 
L 102.257812 75.87384 
L 105.277741 76.49304 
L 108.297671 76.15248 
L 111.3176 75.82224 
L 114.33753 75.84288 
L 117.357459 76.03896 
L 120.377389 75.51264 
L 123.397318 75.56424 
L 126.417247 75.05856 
L 129.437177 73.26288 
L 132.457106 73.20096 
L 135.477036 73.00488 
L 138.496965 71.68392 
L 141.516894 70.6932 
L 144.536824 72.62304 
L 147.556753 73.52088 
L 150.576683 73.83048 
L 153.596612 73.8408 
L 156.616542 73.29384 
L 159.636471 73.72728 
L 162.6564 70.32168 
L 165.67633 69.77472 
L 168.696259 70.34232 
L 171.716189 70.67256 
L 174.736118 70.51776 
L 177.756048 70.848 
L 180.775977 72.31344 
L 183.795906 76.01832 
L 186.815836 75.41976 
L 189.835765 75.83256 
L 192.855695 75.79128 
L 195.875624 75.82224 
L 198.895553 77.82432 
L 201.915483 76.14216 
L 204.935412 74.75928 
L 207.955342 74.96568 
L 210.975271 77.75208 
L 213.995201 79.48584 
L 217.01513 83.31456 
L 220.035059 85.90488 
L 223.054989 84.79032 
L 225.604487 85.84296 
L 228.004388 88.25784 
L 231.022779 91.41576 
L 234.029776 88.7532 
L 237.118737 88.65 
L 240.113745 88.55712 
L 243.150906 88.96992 
L 246.164579 89.7336 
L 249.173638 90.456 
L 252.192659 90.56952 
L 255.176272 89.15568 
L 258.036852 88.9596 
L 261.25049 90.6624 
L 263.891076 89.94 
L 267.28556 90.00192 
L 270.30182 90.3528 
L 273.304098 90.62112 
L 276.305572 90.5076 
L 279.36 90.3528 
" clip-path="url(#p5d0ece392f)" style="fill: none; stroke: #4a8dff; stroke-width: 0.6"/>
   </g>
   <g id="line2d_7">
    <path d="M 8.64 86.7924 
L 11.659929 85.296 
L 14.679859 86.24544 
L 17.699788 82.96368 
L 20.719718 82.13808 
L 23.739647 82.47864 
L 26.759577 82.58184 
L 29.779506 83.03592 
L 32.799435 87.3084 
L 35.819365 82.06584 
L 38.839294 79.71288 
L 41.859224 81.24024 
L 44.879153 84.17112 
L 47.899082 84.24336 
L 50.919012 83.29392 
L 53.938941 82.8192 
L 56.958871 80.64168 
L 59.9788 81.38472 
L 62.99873 80.87904 
L 66.018659 83.13912 
L 69.038588 83.19072 
L 72.058518 85.296 
L 75.078447 87.17424 
L 78.098377 85.71912 
L 81.118306 87.53544 
L 84.138236 88.17528 
L 87.158165 85.41984 
L 90.178094 85.17216 
L 93.198024 84.9348 
L 96.217953 85.01736 
L 99.237883 86.14224 
L 102.257812 85.90488 
L 105.277741 86.328 
L 108.297671 86.24544 
L 111.3176 85.72944 
L 114.33753 85.7088 
L 117.357459 86.40024 
L 120.377389 85.09992 
L 123.397318 86.02872 
L 126.417247 84.78 
L 129.437177 83.53128 
L 132.457106 82.83984 
L 135.477036 82.03488 
L 138.496965 79.39296 
L 141.516894 79.66128 
L 144.536824 82.15872 
L 147.556753 82.43736 
L 150.576683 82.93272 
L 153.596612 83.00496 
L 156.616542 82.6128 
L 159.636471 82.28256 
L 162.6564 78.01008 
L 165.67633 76.19376 
L 168.696259 77.66952 
L 171.716189 77.74176 
L 174.736118 78.1752 
L 177.756048 79.5684 
L 180.775977 80.8068 
L 183.795906 85.20312 
L 186.815836 84.12984 
L 189.835765 84.03696 
L 192.855695 84.06792 
L 195.875624 84.3156 
L 198.895553 87.02976 
L 201.915483 85.21344 
L 204.935412 84.28464 
L 207.955342 84.32592 
L 210.975271 89.08344 
L 213.995201 89.5272 
L 217.01513 95.14128 
L 220.035059 96.98856 
L 223.054989 95.08968 
L 225.604487 97.71096 
L 228.004388 99.80592 
L 231.022779 101.79768 
L 234.029776 100.03296 
L 237.118737 100.518 
L 240.113745 99.98136 
L 243.150906 100.49736 
L 246.164579 100.78632 
L 249.173638 101.07528 
L 252.192659 101.26104 
L 255.176272 100.63152 
L 258.036852 100.38384 
L 261.25049 100.84824 
L 263.891076 100.65216 
L 267.28556 101.034 
L 270.30182 101.19912 
L 273.304098 101.10624 
L 276.305572 100.97208 
L 279.36 100.91016 
" clip-path="url(#p5d0ece392f)" style="fill: none; stroke: #f5841e; stroke-width: 0.6"/>
   </g>
  </g>
 </g>
 <defs>
  <clipPath id="p5d0ece392f">
   <rect x="8.64" y="4.8" width="270.72" height="103.2"/>
  </clipPath>
 </defs>
</svg>
