<?xml version="1.0" encoding="utf-8" standalone="no"?>
<!DOCTYPE svg PUBLIC "-//W3C//DTD SVG 1.1//EN"
  "http://www.w3.org/Graphics/SVG/1.1/DTD/svg11.dtd">
<svg xmlns:xlink="http://www.w3.org/1999/xlink" width="288pt" height="120pt" viewBox="0 0 288 120" xmlns="http://www.w3.org/2000/svg" version="1.1">
<desc id="nav-meta">{"window":"1m","count":4,"labels":["28.01","07.02","17.02","26.02"],"tick_utc":["2026-01-28T12:00:00Z","2026-02-07T03:13:08Z","2026-02-17T00:31:58Z","2026-02-26T03:20:47Z"],"w":720,"h":300}</desc>

 <metadata>
  <rdf:RDF xmlns:dc="http://purl.org/dc/elements/1.1/" xmlns:cc="http://creativecommons.org/ns#" xmlns:rdf="http://www.w3.org/1999/02/22-rdf-syntax-ns#">
   <cc:Work>
    <dc:type rdf:resource="http://purl.org/dc/dcmitype/StillImage"/>
    <dc:date>2026-02-26T13:56:22.681325</dc:date>
    <dc:format>image/svg+xml</dc:format>
    <dc:creator>
     <cc:Agent>
      <dc:title>Matplotlib v3.10.8, https://matplotlib.org/</dc:title>
     </cc:Agent>
    </dc:creator>
   </cc:Work>
  </rdf:RDF>
 </metadata>
 <defs>
  <style type="text/css">*{stroke-linejoin: round; stroke-linecap: butt}</style>
 </defs>
 <g id="figure_1">
  <g id="patch_1">
   <path d="M 0 120 
L 288 120 
L 288 0 
L 0 0 
L 0 120 
z
" style="fill: none; opacity: 0"/>
  </g>
  <g id="axes_1">
   <g id="patch_2">
    <path d="M 8.64 108 
L 279.36 108 
L 279.36 4.8 
L 8.64 4.8 
L 8.64 108 
z
" style="fill: none"/>
   </g>
   <g id="matplotlib.axis_1"/>
   <g id="matplotlib.axis_2"/>
   <g id="line2d_1">
    <path d="M 8.64 87.36 
L 279.36 87.36 
" clip-path="url(#p3aabe6714a)" style="fill: none; stroke: #b2b2b2; stroke-opacity: 0.35; stroke-width: 0.5; stroke-linecap: square"/>
   </g>
   <g id="line2d_2">
    <path d="M 8.64 66.72 
L 279.36 66.72 
" clip-path="url(#p3aabe6714a)" style="fill: none; stroke: #b2b2b2; stroke-opacity: 0.35; stroke-width: 0.5; stroke-linecap: square"/>
   </g>
   <g id="line2d_3">
    <path d="M 8.64 46.08 
L 279.36 46.08 
" clip-path="url(#p3aabe6714a)" style="fill: none; stroke: #b2b2b2; stroke-opacity: 0.35; stroke-width: 0.5; stroke-linecap: square"/>
   </g>
   <g id="line2d_4">
    <path d="M 8.64 25.44 
L 279.36 25.44 
" clip-path="url(#p3aabe6714a)" style="fill: none; stroke: #b2b2b2; stroke-opacity: 0.35; stroke-width: 0.5; stroke-linecap: square"/>
   </g>
   <g id="line2d_5">
    <path d="M 8.64 91.76664 
L 18.092701 92.33424 
L 27.545402 94.36728 
L 36.998103 94.46016 
L 46.450805 97.71096 
L 55.903506 98.48496 
L 65.356207 97.85544 
L 73.336409 99.10416 
L 80.848353 100.16712 
L 90.29624 102.23112 
L 99.708461 100.54896 
L 109.377239 100.70376 
L 118.751934 100.68312 
L 128.258572 100.95144 
L 137.69169 101.28168 
L 147.110365 101.71512 
L 156.560222 101.84928 
L 165.89925 101.034 
L 174.853168 100.54896 
L 184.912199 101.04432 
L 193.177514 100.81728 
L 203.802612 101.034 
L 213.243826 101.4984 
L 222.641277 101.33328 
L 232.036211 101.1372 
L 241.596897 101.06496 
L 251.078043 102.09696 
L 259.732188 102.05568 
L 269.94942 101.4984 
L 279.36 100.60056 
" clip-path="url(#p3aabe6714a)" style="fill: none; stroke: #bebebe; stroke-width: 0.5; stroke-linecap: round"/>
   </g>
   <g id="line2d_6">
    <path d="M 8.64 74.75928 
L 18.092701 74.96568 
L 27.545402 77.75208 
L 36.998103 79.48584 
L 46.450805 83.31456 
L 55.903506 85.90488 
L 65.356207 84.79032 
L 73.336409 85.84296 
L 80.848353 88.25784 
L 90.29624 91.41576 
L 99.708461 88.7532 
L 109.377239 88.65 
L 118.751934 88.55712 
L 128.258572 88.96992 
L 137.69169 89.7336 
L 147.110365 90.456 
L 156.560222 90.56952 
L 165.89925 89.15568 
L 174.853168 88.9596 
L 184.912199 90.6624 
L 193.177514 89.94 
L 203.802612 90.00192 
L 213.243826 90.3528 
L 222.641277 90.62112 
L 232.036211 90.5076 
L 241.596897 90.3528 
L 251.078043 92.004 
L 259.732188 92.13816 
L 269.94942 91.25064 
L 279.36 89.166 
" clip-path="url(#p3aabe6714a)" style="fill: none; stroke: #4a8dff; stroke-width: 0.6"/>
   </g>
   <g id="line2d_7">
    <path d="M 8.64 84.28464 
L 18.092701 84.32592 
L 27.545402 89.08344 
L 36.998103 89.5272 
L 46.450805 95.14128 
L 55.903506 96.98856 
L 65.356207 95.08968 
L 73.336409 97.71096 
L 80.848353 99.80592 
L 90.29624 101.79768 
L 99.708461 100.03296 
L 109.377239 100.518 
L 118.751934 99.98136 
L 128.258572 100.49736 
L 137.69169 100.78632 
L 147.110365 101.07528 
L 156.560222 101.26104 
L 165.89925 100.63152 
L 174.853168 100.38384 
L 184.912199 100.84824 
L 193.177514 100.65216 
L 203.802612 101.034 
L 213.243826 101.19912 
L 222.641277 101.10624 
L 232.036211 100.97208 
L 241.596897 100.91016 
L 251.078043 101.7564 
L 259.732188 101.84928 
L 269.94942 101.56032 
L 279.36 100.85856 
" clip-path="url(#p3aabe6714a)" style="fill: none; stroke: #f5841e; stroke-width: 0.6"/>
   </g>
  </g>
 </g>
 <defs>
  <clipPath id="p3aabe6714a">
   <rect x="8.64" y="4.8" width="270.72" height="103.2"/>
  </clipPath>
 </defs>
</svg>
