<?xml version="1.0" encoding="utf-8" standalone="no"?>
<!DOCTYPE svg PUBLIC "-//W3C//DTD SVG 1.1//EN"
  "http://www.w3.org/Graphics/SVG/1.1/DTD/svg11.dtd">
<svg xmlns:xlink="http://www.w3.org/1999/xlink" width="288pt" height="120pt" viewBox="0 0 288 120" xmlns="http://www.w3.org/2000/svg" version="1.1">
<desc id="nav-meta">{"window":"3m","count":4,"labels":["13.02","15.03","13.04","13.05"],"tick_utc":["2026-02-13T03:33:47Z","2026-03-15T03:42:35Z","2026-04-13T04:02:42Z","2026-05-13T04:33:49Z"],"w":720,"h":300}</desc>

 <metadata>
  <rdf:RDF xmlns:dc="http://purl.org/dc/elements/1.1/" xmlns:cc="http://creativecommons.org/ns#" xmlns:rdf="http://www.w3.org/1999/02/22-rdf-syntax-ns#">
   <cc:Work>
    <dc:type rdf:resource="http://purl.org/dc/dcmitype/StillImage"/>
    <dc:date>2026-05-13T09:31:06.757769</dc:date>
    <dc:format>image/svg+xml</dc:format>
    <dc:creator>
     <cc:Agent>
      <dc:title>Matplotlib v3.10.9, https://matplotlib.org/</dc:title>
     </cc:Agent>
    </dc:creator>
   </cc:Work>
  </rdf:RDF>
 </metadata>
 <defs>
  <style type="text/css">*{stroke-linejoin: round; stroke-linecap: butt}</style>
 </defs>
 <g id="figure_1">
  <g id="patch_1">
   <path d="M 0 120 
L 288 120 
L 288 0 
L 0 0 
L 0 120 
z
" style="fill: none; opacity: 0"/>
  </g>
  <g id="axes_1">
   <g id="patch_2">
    <path d="M 8.64 108 
L 279.36 108 
L 279.36 4.8 
L 8.64 4.8 
L 8.64 108 
z
" style="fill: none"/>
   </g>
   <g id="matplotlib.axis_1"/>
   <g id="matplotlib.axis_2"/>
   <g id="line2d_1">
    <path d="M 8.64 87.36 
L 279.36 87.36 
" clip-path="url(#p0f09413122)" style="fill: none; stroke: #b2b2b2; stroke-opacity: 0.35; stroke-width: 0.5; stroke-linecap: square"/>
   </g>
   <g id="line2d_2">
    <path d="M 8.64 66.72 
L 279.36 66.72 
" clip-path="url(#p0f09413122)" style="fill: none; stroke: #b2b2b2; stroke-opacity: 0.35; stroke-width: 0.5; stroke-linecap: square"/>
   </g>
   <g id="line2d_3">
    <path d="M 8.64 46.08 
L 279.36 46.08 
" clip-path="url(#p0f09413122)" style="fill: none; stroke: #b2b2b2; stroke-opacity: 0.35; stroke-width: 0.5; stroke-linecap: square"/>
   </g>
   <g id="line2d_4">
    <path d="M 8.64 25.44 
L 279.36 25.44 
" clip-path="url(#p0f09413122)" style="fill: none; stroke: #b2b2b2; stroke-opacity: 0.35; stroke-width: 0.5; stroke-linecap: square"/>
   </g>
   <g id="line2d_5">
    <path d="M 8.64 101.84928 
L 11.643812 101.034 
L 14.523756 100.54896 
L 17.75915 101.04432 
L 20.417612 100.81728 
L 23.835076 101.034 
L 26.871755 101.4984 
L 29.894358 101.33328 
L 32.916151 101.1372 
L 35.991257 101.06496 
L 39.04078 102.09696 
L 41.824305 102.05568 
L 45.110583 101.4984 
L 48.137409 100.60056 
L 51.172011 100.80696 
L 54.176562 101.45712 
L 57.286012 100.55928 
L 60.294997 101.10624 
L 63.342443 100.8792 
L 66.365785 100.74504 
L 69.412704 100.21872 
L 72.451635 100.53864 
L 75.468678 101.07528 
L 78.538575 101.38488 
L 81.588063 101.26104 
L 84.608906 100.78632 
L 87.648084 100.91016 
L 90.700422 100.99272 
L 93.734918 100.38384 
L 96.771245 100.50768 
L 99.869787 100.60056 
L 102.918747 99.76464 
L 105.905914 99.49632 
L 108.969477 99.40344 
L 112.010695 100.09488 
L 115.021475 100.3632 
L 118.044042 100.19808 
L 121.129881 100.47672 
L 124.177398 100.79664 
L 127.18962 100.26 
L 130.456438 99.83688 
L 133.307351 100.13616 
L 136.35156 100.80696 
L 139.362867 101.38488 
L 142.444659 101.3436 
L 145.493724 101.292 
L 148.51492 101.28168 
L 151.581369 101.28168 
L 154.581696 101.8596 
L 157.625554 101.88024 
L 160.639887 101.72544 
L 163.726042 101.68416 
L 166.774263 101.47776 
L 169.794895 101.78736 
L 172.840195 101.09592 
L 175.869977 101.46744 
L 178.938326 101.3436 
L 181.932214 101.05464 
L 185.027132 101.3952 
L 188.083094 101.47776 
L 191.104114 100.86888 
L 194.142165 101.26104 
L 197.195699 100.99272 
L 200.229879 100.61088 
L 203.236717 100.44576 
L 206.317242 100.94112 
L 209.365146 101.09592 
L 212.392183 101.00304 
L 215.423126 100.69344 
L 218.475816 100.9308 
L 221.524248 100.92048 
L 224.528341 100.81728 
L 227.616009 100.8792 
L 230.689144 100.64184 
L 233.735887 101.1888 
L 236.767956 101.09592 
L 239.813432 101.37456 
L 242.887024 101.21976 
L 245.849805 101.20944 
L 248.951901 101.23008 
L 251.991219 100.92048 
L 254.964627 101.06496 
L 258.058559 100.70376 
L 261.099742 100.55928 
L 264.089513 100.53864 
L 267.141006 99.60984 
L 270.242645 99.72336 
L 273.307017 99.44472 
L 276.305164 99.25896 
L 279.36 99.32088 
" clip-path="url(#p0f09413122)" style="fill: none; stroke: #bebebe; stroke-width: 0.5; stroke-linecap: round"/>
   </g>
   <g id="line2d_6">
    <path d="M 8.64 90.56952 
L 11.643812 89.15568 
L 14.523756 88.9596 
L 17.75915 90.6624 
L 20.417612 89.94 
L 23.835076 90.00192 
L 26.871755 90.3528 
L 29.894358 90.62112 
L 32.916151 90.5076 
L 35.991257 90.3528 
L 39.04078 92.004 
L 41.824305 92.13816 
L 45.110583 91.25064 
L 48.137409 89.166 
L 51.172011 89.56848 
L 54.176562 90.93072 
L 57.286012 89.41368 
L 60.294997 90.37344 
L 63.342443 89.79552 
L 66.365785 90.23928 
L 69.412704 88.0824 
L 72.451635 88.7532 
L 75.468678 90.16704 
L 78.538575 90.67272 
L 81.588063 90.18768 
L 84.608906 89.2692 
L 87.648084 89.54784 
L 90.700422 89.49624 
L 93.734918 88.31976 
L 96.771245 88.45392 
L 99.869787 88.46424 
L 102.918747 86.38992 
L 105.905914 84.80064 
L 108.969477 84.8316 
L 112.010695 86.586 
L 115.021475 87.74184 
L 118.044042 87.618 
L 121.129881 88.19592 
L 124.177398 89.08344 
L 127.18962 87.89664 
L 130.456438 87.3084 
L 133.307351 87.65928 
L 136.35156 88.96992 
L 139.362867 90.07416 
L 142.444659 89.76456 
L 145.493724 89.3724 
L 148.51492 89.00088 
L 151.581369 88.42296 
L 154.581696 88.81512 
L 157.625554 89.10408 
L 160.639887 89.14536 
L 163.726042 89.07312 
L 166.774263 87.9792 
L 169.794895 88.29912 
L 172.840195 86.38992 
L 175.869977 87.24648 
L 178.938326 87.1536 
L 181.932214 86.21448 
L 185.027132 86.66856 
L 188.083094 87.01944 
L 191.104114 84.44976 
L 194.142165 85.05864 
L 197.195699 84.58392 
L 200.229879 85.04832 
L 203.236717 83.71704 
L 206.317242 84.86256 
L 209.365146 85.6572 
L 212.392183 85.27536 
L 215.423126 84.49104 
L 218.475816 84.86256 
L 221.524248 85.32696 
L 224.528341 85.17216 
L 227.616009 85.31664 
L 230.689144 84.11952 
L 233.735887 85.66752 
L 236.767956 85.26504 
L 239.813432 86.26608 
L 242.887024 85.77072 
L 245.849805 85.38888 
L 248.951901 85.3992 
L 251.991219 84.09888 
L 254.964627 84.22272 
L 258.058559 84.34656 
L 261.099742 85.06896 
L 264.089513 85.7604 
L 267.141006 85.0896 
L 270.242645 85.01736 
L 273.307017 84.9348 
L 276.305164 85.296 
L 279.36 85.35792 
" clip-path="url(#p0f09413122)" style="fill: none; stroke: #4a8dff; stroke-width: 0.6"/>
   </g>
   <g id="line2d_7">
    <path d="M 8.64 101.26104 
L 11.643812 100.63152 
L 14.523756 100.38384 
L 17.75915 100.84824 
L 20.417612 100.65216 
L 23.835076 101.034 
L 26.871755 101.19912 
L 29.894358 101.10624 
L 32.916151 100.97208 
L 35.991257 100.91016 
L 39.04078 101.7564 
L 41.824305 101.84928 
L 45.110583 101.56032 
L 48.137409 100.85856 
L 51.172011 101.12688 
L 54.176562 101.4468 
L 57.286012 101.02368 
L 60.294997 101.30232 
L 63.342443 100.81728 
L 66.365785 100.79664 
L 69.412704 99.3312 
L 72.451635 99.92976 
L 75.468678 100.78632 
L 78.538575 101.17848 
L 81.588063 101.1372 
L 84.608906 100.21872 
L 87.648084 100.37352 
L 90.700422 100.4664 
L 93.734918 99.88848 
L 96.771245 99.94008 
L 99.869787 99.81624 
L 102.918747 98.93904 
L 105.905914 98.3508 
L 108.969477 98.52624 
L 112.010695 99.78528 
L 115.021475 100.12584 
L 118.044042 100.03296 
L 121.129881 100.45608 
L 124.177398 100.83792 
L 127.18962 100.11552 
L 130.456438 99.87816 
L 133.307351 100.002 
L 136.35156 100.64184 
L 139.362867 101.41584 
L 142.444659 101.21976 
L 145.493724 101.14752 
L 148.51492 101.00304 
L 151.581369 100.86888 
L 154.581696 101.21976 
L 157.625554 101.28168 
L 160.639887 101.20944 
L 163.726042 101.14752 
L 166.774263 100.55928 
L 169.794895 100.65216 
L 172.840195 99.80592 
L 175.869977 99.96072 
L 178.938326 99.6408 
L 181.932214 99.1764 
L 185.027132 99.70272 
L 188.083094 99.94008 
L 191.104114 98.57784 
L 194.142165 98.65008 
L 197.195699 98.38176 
L 200.229879 98.48496 
L 203.236717 96.70992 
L 206.317242 98.05152 
L 209.365146 98.48496 
L 212.392183 97.96896 
L 215.423126 96.32808 
L 218.475816 96.20424 
L 221.524248 96.16296 
L 224.528341 96.1836 
L 227.616009 96.50352 
L 230.689144 94.76976 
L 233.735887 97.19496 
L 236.767956 96.9576 
L 239.813432 97.9896 
L 242.887024 96.89568 
L 245.849805 95.45088 
L 248.951901 95.67792 
L 251.991219 93.43848 
L 254.964627 92.90184 
L 258.058559 92.25168 
L 261.099742 92.87088 
L 264.089513 94.2744 
L 267.141006 93.1392 
L 270.242645 92.97408 
L 273.307017 92.9844 
L 276.305164 92.60256 
L 279.36 92.53032 
" clip-path="url(#p0f09413122)" style="fill: none; stroke: #f5841e; stroke-width: 0.6"/>
   </g>
  </g>
 </g>
 <defs>
  <clipPath id="p0f09413122">
   <rect x="8.64" y="4.8" width="270.72" height="103.2"/>
  </clipPath>
 </defs>
</svg>
