<?xml version="1.0" encoding="utf-8" standalone="no"?>
<!DOCTYPE svg PUBLIC "-//W3C//DTD SVG 1.1//EN"
  "http://www.w3.org/Graphics/SVG/1.1/DTD/svg11.dtd">
<svg xmlns:xlink="http://www.w3.org/1999/xlink" width="288pt" height="120pt" viewBox="0 0 288 120" xmlns="http://www.w3.org/2000/svg" version="1.1">
<desc id="nav-meta">{"window":"1m","count":4,"labels":["13.01","23.01","02.02","12.02"],"tick_utc":["2026-01-13T12:00:00Z","2026-01-23T12:00:00Z","2026-02-02T12:00:00Z","2026-02-12T03:34:13Z"],"w":720,"h":300}</desc>

 <metadata>
  <rdf:RDF xmlns:dc="http://purl.org/dc/elements/1.1/" xmlns:cc="http://creativecommons.org/ns#" xmlns:rdf="http://www.w3.org/1999/02/22-rdf-syntax-ns#">
   <cc:Work>
    <dc:type rdf:resource="http://purl.org/dc/dcmitype/StillImage"/>
    <dc:date>2026-02-12T03:34:15.413594</dc:date>
    <dc:format>image/svg+xml</dc:format>
    <dc:creator>
     <cc:Agent>
      <dc:title>Matplotlib v3.10.8, https://matplotlib.org/</dc:title>
     </cc:Agent>
    </dc:creator>
   </cc:Work>
  </rdf:RDF>
 </metadata>
 <defs>
  <style type="text/css">*{stroke-linejoin: round; stroke-linecap: butt}</style>
 </defs>
 <g id="figure_1">
  <g id="patch_1">
   <path d="M 0 120 
L 288 120 
L 288 0 
L 0 0 
L 0 120 
z
" style="fill: none; opacity: 0"/>
  </g>
  <g id="axes_1">
   <g id="patch_2">
    <path d="M 8.64 108 
L 279.36 108 
L 279.36 4.8 
L 8.64 4.8 
L 8.64 108 
z
" style="fill: none"/>
   </g>
   <g id="matplotlib.axis_1"/>
   <g id="matplotlib.axis_2"/>
   <g id="line2d_1">
    <path d="M 8.64 87.36 
L 279.36 87.36 
" clip-path="url(#p2692d669e5)" style="fill: none; stroke: #b2b2b2; stroke-opacity: 0.35; stroke-width: 0.5; stroke-linecap: square"/>
   </g>
   <g id="line2d_2">
    <path d="M 8.64 66.72 
L 279.36 66.72 
" clip-path="url(#p2692d669e5)" style="fill: none; stroke: #b2b2b2; stroke-opacity: 0.35; stroke-width: 0.5; stroke-linecap: square"/>
   </g>
   <g id="line2d_3">
    <path d="M 8.64 46.08 
L 279.36 46.08 
" clip-path="url(#p2692d669e5)" style="fill: none; stroke: #b2b2b2; stroke-opacity: 0.35; stroke-width: 0.5; stroke-linecap: square"/>
   </g>
   <g id="line2d_4">
    <path d="M 8.64 25.44 
L 279.36 25.44 
" clip-path="url(#p2692d669e5)" style="fill: none; stroke: #b2b2b2; stroke-opacity: 0.35; stroke-width: 0.5; stroke-linecap: square"/>
   </g>
   <g id="line2d_5">
    <path d="M 8.64 88.4952 
L 17.770904 86.86464 
L 26.901808 86.42088 
L 36.032712 87.62832 
L 45.163617 86.93688 
L 54.294521 87.23616 
L 63.425425 88.63968 
L 72.556329 90.0432 
L 81.687233 92.12784 
L 90.818137 91.16808 
L 99.949041 91.46736 
L 109.079946 91.73568 
L 118.21085 91.78728 
L 127.341754 94.0164 
L 136.472658 92.5716 
L 145.603562 91.76664 
L 154.734466 92.33424 
L 163.86537 94.36728 
L 172.996275 94.46016 
L 182.127179 97.71096 
L 191.258083 98.48496 
L 200.388987 97.85544 
L 208.09752 99.10416 
L 215.353736 100.16712 
L 224.47999 102.23112 
L 233.571792 100.54896 
L 242.911417 100.70376 
L 251.966971 100.68312 
L 261.149976 100.95144 
L 270.261963 101.28168 
L 279.36 101.71512 
" clip-path="url(#p2692d669e5)" style="fill: none; stroke: #bebebe; stroke-width: 0.5; stroke-linecap: round"/>
   </g>
   <g id="line2d_6">
    <path d="M 8.64 73.72728 
L 17.770904 70.32168 
L 26.901808 69.77472 
L 36.032712 70.34232 
L 45.163617 70.67256 
L 54.294521 70.51776 
L 63.425425 70.848 
L 72.556329 72.31344 
L 81.687233 76.01832 
L 90.818137 75.41976 
L 99.949041 75.83256 
L 109.079946 75.79128 
L 118.21085 75.82224 
L 127.341754 77.82432 
L 136.472658 76.14216 
L 145.603562 74.75928 
L 154.734466 74.96568 
L 163.86537 77.75208 
L 172.996275 79.48584 
L 182.127179 83.31456 
L 191.258083 85.90488 
L 200.388987 84.79032 
L 208.09752 85.84296 
L 215.353736 88.25784 
L 224.47999 91.41576 
L 233.571792 88.7532 
L 242.911417 88.65 
L 251.966971 88.55712 
L 261.149976 88.96992 
L 270.261963 89.7336 
L 279.36 90.456 
" clip-path="url(#p2692d669e5)" style="fill: none; stroke: #4a8dff; stroke-width: 0.6"/>
   </g>
   <g id="line2d_7">
    <path d="M 8.64 82.28256 
L 17.770904 78.01008 
L 26.901808 76.19376 
L 36.032712 77.66952 
L 45.163617 77.74176 
L 54.294521 78.1752 
L 63.425425 79.5684 
L 72.556329 80.8068 
L 81.687233 85.20312 
L 90.818137 84.12984 
L 99.949041 84.03696 
L 109.079946 84.06792 
L 118.21085 84.3156 
L 127.341754 87.02976 
L 136.472658 85.21344 
L 145.603562 84.28464 
L 154.734466 84.32592 
L 163.86537 89.08344 
L 172.996275 89.5272 
L 182.127179 95.14128 
L 191.258083 96.98856 
L 200.388987 95.08968 
L 208.09752 97.71096 
L 215.353736 99.80592 
L 224.47999 101.79768 
L 233.571792 100.03296 
L 242.911417 100.518 
L 251.966971 99.98136 
L 261.149976 100.49736 
L 270.261963 100.78632 
L 279.36 101.07528 
" clip-path="url(#p2692d669e5)" style="fill: none; stroke: #f5841e; stroke-width: 0.6"/>
   </g>
  </g>
 </g>
 <defs>
  <clipPath id="p2692d669e5">
   <rect x="8.64" y="4.8" width="270.72" height="103.2"/>
  </clipPath>
 </defs>
</svg>
