<?xml version="1.0" encoding="utf-8" standalone="no"?>
<!DOCTYPE svg PUBLIC "-//W3C//DTD SVG 1.1//EN"
  "http://www.w3.org/Graphics/SVG/1.1/DTD/svg11.dtd">
<svg xmlns:xlink="http://www.w3.org/1999/xlink" width="288pt" height="120pt" viewBox="0 0 288 120" xmlns="http://www.w3.org/2000/svg" version="1.1">
<desc id="nav-meta">{"window":"3m","count":4,"labels":["08.11","08.12","07.01","06.02"],"tick_utc":["2025-11-08T12:00:00Z","2025-12-08T12:00:00Z","2026-01-07T12:00:00Z","2026-02-06T03:19:18Z"],"w":720,"h":300}</desc>

 <metadata>
  <rdf:RDF xmlns:dc="http://purl.org/dc/elements/1.1/" xmlns:cc="http://creativecommons.org/ns#" xmlns:rdf="http://www.w3.org/1999/02/22-rdf-syntax-ns#">
   <cc:Work>
    <dc:type rdf:resource="http://purl.org/dc/dcmitype/StillImage"/>
    <dc:date>2026-02-06T07:34:38.707653</dc:date>
    <dc:format>image/svg+xml</dc:format>
    <dc:creator>
     <cc:Agent>
      <dc:title>Matplotlib v3.10.8, https://matplotlib.org/</dc:title>
     </cc:Agent>
    </dc:creator>
   </cc:Work>
  </rdf:RDF>
 </metadata>
 <defs>
  <style type="text/css">*{stroke-linejoin: round; stroke-linecap: butt}</style>
 </defs>
 <g id="figure_1">
  <g id="patch_1">
   <path d="M 0 120 
L 288 120 
L 288 0 
L 0 0 
L 0 120 
z
" style="fill: none; opacity: 0"/>
  </g>
  <g id="axes_1">
   <g id="patch_2">
    <path d="M 8.64 108 
L 279.36 108 
L 279.36 4.8 
L 8.64 4.8 
L 8.64 108 
z
" style="fill: none"/>
   </g>
   <g id="matplotlib.axis_1"/>
   <g id="matplotlib.axis_2"/>
   <g id="line2d_1">
    <path d="M 8.64 87.36 
L 279.36 87.36 
" clip-path="url(#pc46c4a11f8)" style="fill: none; stroke: #b2b2b2; stroke-opacity: 0.35; stroke-width: 0.5; stroke-linecap: square"/>
   </g>
   <g id="line2d_2">
    <path d="M 8.64 66.72 
L 279.36 66.72 
" clip-path="url(#pc46c4a11f8)" style="fill: none; stroke: #b2b2b2; stroke-opacity: 0.35; stroke-width: 0.5; stroke-linecap: square"/>
   </g>
   <g id="line2d_3">
    <path d="M 8.64 46.08 
L 279.36 46.08 
" clip-path="url(#pc46c4a11f8)" style="fill: none; stroke: #b2b2b2; stroke-opacity: 0.35; stroke-width: 0.5; stroke-linecap: square"/>
   </g>
   <g id="line2d_4">
    <path d="M 8.64 25.44 
L 279.36 25.44 
" clip-path="url(#pc46c4a11f8)" style="fill: none; stroke: #b2b2b2; stroke-opacity: 0.35; stroke-width: 0.5; stroke-linecap: square"/>
   </g>
   <g id="line2d_5">
    <path d="M 8.64 82.27224 
L 11.660134 83.29392 
L 14.680268 81.62208 
L 17.700402 80.72424 
L 20.720537 84.33624 
L 23.740671 84.64584 
L 26.760805 86.844 
L 29.780939 88.52616 
L 32.801073 88.36104 
L 35.821207 88.93896 
L 38.841341 90.79656 
L 41.861475 88.09272 
L 44.88161 89.22792 
L 47.901744 90.00192 
L 50.921878 91.39512 
L 53.942012 91.63248 
L 56.962146 90.75528 
L 59.98228 88.7016 
L 63.002414 88.52616 
L 66.022549 87.45288 
L 69.042683 88.0308 
L 72.062817 88.94928 
L 75.082951 89.3208 
L 78.103085 89.7336 
L 81.123219 91.86984 
L 84.143353 88.60872 
L 87.163487 86.87496 
L 90.183622 88.52616 
L 93.203756 90.11544 
L 96.22389 90.38376 
L 99.244024 90.53856 
L 102.264158 90.08448 
L 105.284292 88.79448 
L 108.304426 89.20728 
L 111.324561 89.22792 
L 114.344695 90.31152 
L 117.364829 90.10512 
L 120.384963 91.09584 
L 123.405097 91.61184 
L 126.425231 91.31256 
L 129.445365 92.87088 
L 132.4655 93.8616 
L 135.485634 92.02464 
L 138.505768 92.13816 
L 141.525902 92.07624 
L 144.546036 92.14848 
L 147.56617 92.64384 
L 150.586304 93.01536 
L 153.606438 93.69648 
L 156.626573 93.11856 
L 159.646707 92.44776 
L 162.666841 92.30328 
L 165.686975 92.87088 
L 168.707109 92.38584 
L 171.727243 92.47872 
L 174.747377 91.88016 
L 177.767512 90.42504 
L 180.787646 90.08448 
L 183.80778 89.92968 
L 186.827914 88.76352 
L 189.848048 87.94824 
L 192.868182 89.2692 
L 195.888316 88.72224 
L 198.90845 89.39304 
L 201.928585 89.40336 
L 204.948719 88.41264 
L 207.968853 88.4952 
L 210.988987 86.86464 
L 214.009121 86.42088 
L 217.029255 87.62832 
L 220.049389 86.93688 
L 223.069524 87.23616 
L 226.089658 88.63968 
L 229.109792 90.0432 
L 232.129926 92.12784 
L 235.15006 91.16808 
L 238.170194 91.46736 
L 241.190328 91.73568 
L 244.210462 91.78728 
L 247.230597 94.0164 
L 250.250731 92.5716 
L 253.270865 91.76664 
L 256.290999 92.33424 
L 259.311133 94.36728 
L 262.331267 94.46016 
L 265.351401 97.71096 
L 268.371536 98.48496 
L 271.39167 97.85544 
L 273.941341 99.10416 
L 276.341404 100.16712 
L 279.36 102.23112 
" clip-path="url(#pc46c4a11f8)" style="fill: none; stroke: #bebebe; stroke-width: 0.5; stroke-linecap: round"/>
   </g>
   <g id="line2d_6">
    <path d="M 8.64 68.61888 
L 11.660134 69.11424 
L 14.680268 66.5136 
L 17.700402 66.68904 
L 20.720537 68.8872 
L 23.740671 68.9904 
L 26.760805 71.5704 
L 29.780939 73.48992 
L 32.801073 72.54048 
L 35.821207 73.56216 
L 38.841341 74.74896 
L 41.861475 73.3248 
L 44.88161 74.80056 
L 47.901744 77.556 
L 50.921878 78.55704 
L 53.942012 78.50544 
L 56.962146 78.04104 
L 59.98228 75.76032 
L 63.002414 75.73968 
L 66.022549 74.65608 
L 69.042683 74.83152 
L 72.062817 74.57352 
L 75.082951 75.20304 
L 78.103085 75.17208 
L 81.123219 78.05136 
L 84.143353 75.1308 
L 87.163487 72.16896 
L 90.183622 73.08744 
L 93.203756 74.72832 
L 96.22389 74.48064 
L 99.244024 74.28456 
L 102.264158 73.21128 
L 105.284292 70.2804 
L 108.304426 70.2288 
L 111.324561 71.56008 
L 114.344695 73.79952 
L 117.364829 73.35576 
L 120.384963 74.0988 
L 123.405097 75.5952 
L 126.425231 75.5952 
L 129.445365 77.61792 
L 132.4655 77.63856 
L 135.485634 75.40944 
L 138.505768 75.40944 
L 141.525902 75.04824 
L 144.546036 74.98632 
L 147.56617 75.58488 
L 150.586304 75.87384 
L 153.606438 76.49304 
L 156.626573 76.15248 
L 159.646707 75.82224 
L 162.666841 75.84288 
L 165.686975 76.03896 
L 168.707109 75.51264 
L 171.727243 75.56424 
L 174.747377 75.05856 
L 177.767512 73.26288 
L 180.787646 73.20096 
L 183.80778 73.00488 
L 186.827914 71.68392 
L 189.848048 70.6932 
L 192.868182 72.62304 
L 195.888316 73.52088 
L 198.90845 73.83048 
L 201.928585 73.8408 
L 204.948719 73.29384 
L 207.968853 73.72728 
L 210.988987 70.32168 
L 214.009121 69.77472 
L 217.029255 70.34232 
L 220.049389 70.67256 
L 223.069524 70.51776 
L 226.089658 70.848 
L 229.109792 72.31344 
L 232.129926 76.01832 
L 235.15006 75.41976 
L 238.170194 75.83256 
L 241.190328 75.79128 
L 244.210462 75.82224 
L 247.230597 77.82432 
L 250.250731 76.14216 
L 253.270865 74.75928 
L 256.290999 74.96568 
L 259.311133 77.75208 
L 262.331267 79.48584 
L 265.351401 83.31456 
L 268.371536 85.90488 
L 271.39167 84.79032 
L 273.941341 85.84296 
L 276.341404 88.25784 
L 279.36 91.41576 
" clip-path="url(#pc46c4a11f8)" style="fill: none; stroke: #4a8dff; stroke-width: 0.6"/>
   </g>
   <g id="line2d_7">
    <path d="M 8.64 69.57864 
L 11.660134 70.72416 
L 14.680268 68.2164 
L 17.700402 66.978 
L 20.720537 70.03272 
L 23.740671 71.5188 
L 26.760805 73.3764 
L 29.780939 78.846 
L 32.801073 77.75208 
L 35.821207 78.88728 
L 38.841341 81.34344 
L 41.861475 80.53848 
L 44.88161 82.0452 
L 47.901744 86.92656 
L 50.921878 88.58808 
L 53.942012 88.96992 
L 56.962146 86.7924 
L 59.98228 85.296 
L 63.002414 86.24544 
L 66.022549 82.96368 
L 69.042683 82.13808 
L 72.062817 82.47864 
L 75.082951 82.58184 
L 78.103085 83.03592 
L 81.123219 87.3084 
L 84.143353 82.06584 
L 87.163487 79.71288 
L 90.183622 81.24024 
L 93.203756 84.17112 
L 96.22389 84.24336 
L 99.244024 83.29392 
L 102.264158 82.8192 
L 105.284292 80.64168 
L 108.304426 81.38472 
L 111.324561 80.87904 
L 114.344695 83.13912 
L 117.364829 83.19072 
L 120.384963 85.296 
L 123.405097 87.17424 
L 126.425231 85.71912 
L 129.445365 87.53544 
L 132.4655 88.17528 
L 135.485634 85.41984 
L 138.505768 85.17216 
L 141.525902 84.9348 
L 144.546036 85.01736 
L 147.56617 86.14224 
L 150.586304 85.90488 
L 153.606438 86.328 
L 156.626573 86.24544 
L 159.646707 85.72944 
L 162.666841 85.7088 
L 165.686975 86.40024 
L 168.707109 85.09992 
L 171.727243 86.02872 
L 174.747377 84.78 
L 177.767512 83.53128 
L 180.787646 82.83984 
L 183.80778 82.03488 
L 186.827914 79.39296 
L 189.848048 79.66128 
L 192.868182 82.15872 
L 195.888316 82.43736 
L 198.90845 82.93272 
L 201.928585 83.00496 
L 204.948719 82.6128 
L 207.968853 82.28256 
L 210.988987 78.01008 
L 214.009121 76.19376 
L 217.029255 77.66952 
L 220.049389 77.74176 
L 223.069524 78.1752 
L 226.089658 79.5684 
L 229.109792 80.8068 
L 232.129926 85.20312 
L 235.15006 84.12984 
L 238.170194 84.03696 
L 241.190328 84.06792 
L 244.210462 84.3156 
L 247.230597 87.02976 
L 250.250731 85.21344 
L 253.270865 84.28464 
L 256.290999 84.32592 
L 259.311133 89.08344 
L 262.331267 89.5272 
L 265.351401 95.14128 
L 268.371536 96.98856 
L 271.39167 95.08968 
L 273.941341 97.71096 
L 276.341404 99.80592 
L 279.36 101.79768 
" clip-path="url(#pc46c4a11f8)" style="fill: none; stroke: #f5841e; stroke-width: 0.6"/>
   </g>
  </g>
 </g>
 <defs>
  <clipPath id="pc46c4a11f8">
   <rect x="8.64" y="4.8" width="270.72" height="103.2"/>
  </clipPath>
 </defs>
</svg>
