<?xml version="1.0" encoding="utf-8" standalone="no"?>
<!DOCTYPE svg PUBLIC "-//W3C//DTD SVG 1.1//EN"
  "http://www.w3.org/Graphics/SVG/1.1/DTD/svg11.dtd">
<svg xmlns:xlink="http://www.w3.org/1999/xlink" width="288pt" height="120pt" viewBox="0 0 288 120" xmlns="http://www.w3.org/2000/svg" version="1.1">
<desc id="nav-meta">{"window":"1m","count":4,"labels":["12.06","22.06","02.07","12.07"],"tick_utc":["2026-06-12T05:19:52Z","2026-06-22T06:11:33Z","2026-07-02T04:45:46Z","2026-07-12T04:17:37Z"],"w":720,"h":300}</desc>

 <metadata>
  <rdf:RDF xmlns:dc="http://purl.org/dc/elements/1.1/" xmlns:cc="http://creativecommons.org/ns#" xmlns:rdf="http://www.w3.org/1999/02/22-rdf-syntax-ns#">
   <cc:Work>
    <dc:type rdf:resource="http://purl.org/dc/dcmitype/StillImage"/>
    <dc:date>2026-07-12T04:17:38.811750</dc:date>
    <dc:format>image/svg+xml</dc:format>
    <dc:creator>
     <cc:Agent>
      <dc:title>Matplotlib v3.11.0, https://matplotlib.org/</dc:title>
     </cc:Agent>
    </dc:creator>
   </cc:Work>
  </rdf:RDF>
 </metadata>
 <defs>
  <style type="text/css">*{stroke-linejoin: round; stroke-linecap: butt}</style>
 </defs>
 <g id="figure_1">
  <g id="patch_1">
   <path d="M 0 120 
L 288 120 
L 288 0 
L 0 0 
L 0 120 
z
" style="fill: none; opacity: 0"/>
  </g>
  <g id="axes_1">
   <g id="patch_2">
    <path d="M 8.64 108 
L 279.36 108 
L 279.36 4.8 
L 8.64 4.8 
L 8.64 108 
z
" style="fill: none"/>
   </g>
   <g id="matplotlib.axis_1"/>
   <g id="matplotlib.axis_2"/>
   <g id="line2d_1">
    <path d="M 8.64 87.36 
L 279.36 87.36 
" clip-path="url(#p56905f500a)" style="fill: none; stroke: #b2b2b2; stroke-opacity: 0.35; stroke-width: 0.5; stroke-linecap: square"/>
   </g>
   <g id="line2d_2">
    <path d="M 8.64 66.72 
L 279.36 66.72 
" clip-path="url(#p56905f500a)" style="fill: none; stroke: #b2b2b2; stroke-opacity: 0.35; stroke-width: 0.5; stroke-linecap: square"/>
   </g>
   <g id="line2d_3">
    <path d="M 8.64 46.08 
L 279.36 46.08 
" clip-path="url(#p56905f500a)" style="fill: none; stroke: #b2b2b2; stroke-opacity: 0.35; stroke-width: 0.5; stroke-linecap: square"/>
   </g>
   <g id="line2d_4">
    <path d="M 8.64 25.44 
L 279.36 25.44 
" clip-path="url(#p56905f500a)" style="fill: none; stroke: #b2b2b2; stroke-opacity: 0.35; stroke-width: 0.5; stroke-linecap: square"/>
   </g>
   <g id="line2d_5">
    <path d="M 8.64 103.50048 
L 17.610918 103.5108 
L 26.713521 103.31472 
L 36.050941 102.95352 
L 45.139528 102.61296 
L 53.888704 102.6336 
L 62.882424 102.9948 
L 72.132297 103.28376 
L 80.807943 103.01544 
L 90.033027 102.69552 
L 99.334571 102.582 
L 107.831359 102.88128 
L 116.900701 103.15992 
L 125.935317 103.36632 
L 135.018675 103.36632 
L 143.944931 102.81936 
L 153.154221 103.0464 
L 162.256615 102.9432 
L 171.11844 102.59232 
L 180.287671 102.40656 
L 189.16644 102.02472 
L 198.105143 101.68416 
L 207.103256 101.3436 
L 216.272591 101.6532 
L 225.397159 101.6532 
L 234.298626 101.63256 
L 243.090058 101.95248 
L 252.401015 102.08664 
L 261.417641 101.9112 
L 270.187841 102.066 
L 279.36 102.18984 
" clip-path="url(#p56905f500a)" style="fill: none; stroke: #bebebe; stroke-width: 0.5; stroke-linecap: round"/>
   </g>
   <g id="line2d_6">
    <path d="M 8.64 94.82136 
L 17.610918 94.8936 
L 26.713521 94.70784 
L 36.050941 94.04736 
L 45.139528 93.40752 
L 53.888704 92.9844 
L 62.882424 93.93384 
L 72.132297 94.4292 
L 80.807943 94.19184 
L 90.033027 93.87192 
L 99.334571 93.81 
L 107.831359 94.03704 
L 116.900701 94.83168 
L 125.935317 95.48184 
L 135.018675 96.63768 
L 143.944931 96.14232 
L 153.154221 96.30744 
L 162.256615 96.29712 
L 171.11844 96.04944 
L 180.287671 95.9256 
L 189.16644 95.39928 
L 198.105143 94.31568 
L 207.103256 93.57264 
L 216.272591 93.32496 
L 225.397159 93.22176 
L 234.298626 93.35592 
L 243.090058 93.61392 
L 252.401015 93.77904 
L 261.417641 93.26304 
L 270.187841 92.92248 
L 279.36 92.71608 
" clip-path="url(#p56905f500a)" style="fill: none; stroke: #4a8dff; stroke-width: 0.6"/>
   </g>
   <g id="line2d_7">
    <path d="M 8.64 102.08664 
L 17.610918 102.066 
L 26.713521 101.86992 
L 36.050941 101.48808 
L 45.139528 101.40552 
L 53.888704 101.4984 
L 62.882424 101.97312 
L 72.132297 102.26208 
L 80.807943 102.066 
L 90.033027 101.90088 
L 99.334571 101.90088 
L 107.831359 102.0144 
L 116.900701 102.25176 
L 125.935317 102.6336 
L 135.018675 102.88128 
L 143.944931 102.77808 
L 153.154221 102.85032 
L 162.256615 102.93288 
L 171.11844 102.95352 
L 180.287671 103.00512 
L 189.16644 102.69552 
L 198.105143 102.55104 
L 207.103256 102.2724 
L 216.272591 102.21048 
L 225.397159 102.12792 
L 234.298626 102.13824 
L 243.090058 102.25176 
L 252.401015 102.36528 
L 261.417641 101.94216 
L 270.187841 101.92152 
L 279.36 101.9112 
" clip-path="url(#p56905f500a)" style="fill: none; stroke: #f5841e; stroke-width: 0.6"/>
   </g>
  </g>
 </g>
 <defs>
  <clipPath id="p56905f500a">
   <rect x="8.64" y="4.8" width="270.72" height="103.2"/>
  </clipPath>
 </defs>
</svg>
