<?xml version="1.0" encoding="utf-8" standalone="no"?>
<!DOCTYPE svg PUBLIC "-//W3C//DTD SVG 1.1//EN"
  "http://www.w3.org/Graphics/SVG/1.1/DTD/svg11.dtd">
<svg xmlns:xlink="http://www.w3.org/1999/xlink" width="288pt" height="120pt" viewBox="0 0 288 120" xmlns="http://www.w3.org/2000/svg" version="1.1">
<desc id="nav-meta">{"window":"3m","count":4,"labels":["10.04","10.05","08.06","08.07"],"tick_utc":["2026-04-10T03:51:30Z","2026-05-10T04:35:36Z","2026-06-08T05:18:19Z","2026-07-08T03:58:12Z"],"w":720,"h":300}</desc>

 <metadata>
  <rdf:RDF xmlns:dc="http://purl.org/dc/elements/1.1/" xmlns:cc="http://creativecommons.org/ns#" xmlns:rdf="http://www.w3.org/1999/02/22-rdf-syntax-ns#">
   <cc:Work>
    <dc:type rdf:resource="http://purl.org/dc/dcmitype/StillImage"/>
    <dc:date>2026-07-08T09:12:04.084106</dc:date>
    <dc:format>image/svg+xml</dc:format>
    <dc:creator>
     <cc:Agent>
      <dc:title>Matplotlib v3.11.0, https://matplotlib.org/</dc:title>
     </cc:Agent>
    </dc:creator>
   </cc:Work>
  </rdf:RDF>
 </metadata>
 <defs>
  <style type="text/css">*{stroke-linejoin: round; stroke-linecap: butt}</style>
 </defs>
 <g id="figure_1">
  <g id="patch_1">
   <path d="M 0 120 
L 288 120 
L 288 0 
L 0 0 
L 0 120 
z
" style="fill: none; opacity: 0"/>
  </g>
  <g id="axes_1">
   <g id="patch_2">
    <path d="M 8.64 108 
L 279.36 108 
L 279.36 4.8 
L 8.64 4.8 
L 8.64 108 
z
" style="fill: none"/>
   </g>
   <g id="matplotlib.axis_1"/>
   <g id="matplotlib.axis_2"/>
   <g id="line2d_1">
    <path d="M 8.64 87.36 
L 279.36 87.36 
" clip-path="url(#p3d9a3665ff)" style="fill: none; stroke: #b2b2b2; stroke-opacity: 0.35; stroke-width: 0.5; stroke-linecap: square"/>
   </g>
   <g id="line2d_2">
    <path d="M 8.64 66.72 
L 279.36 66.72 
" clip-path="url(#p3d9a3665ff)" style="fill: none; stroke: #b2b2b2; stroke-opacity: 0.35; stroke-width: 0.5; stroke-linecap: square"/>
   </g>
   <g id="line2d_3">
    <path d="M 8.64 46.08 
L 279.36 46.08 
" clip-path="url(#p3d9a3665ff)" style="fill: none; stroke: #b2b2b2; stroke-opacity: 0.35; stroke-width: 0.5; stroke-linecap: square"/>
   </g>
   <g id="line2d_4">
    <path d="M 8.64 25.44 
L 279.36 25.44 
" clip-path="url(#p3d9a3665ff)" style="fill: none; stroke: #b2b2b2; stroke-opacity: 0.35; stroke-width: 0.5; stroke-linecap: square"/>
   </g>
   <g id="line2d_5">
    <path d="M 8.64 101.3436 
L 11.635134 101.05464 
L 14.731339 101.3952 
L 17.788573 101.47776 
L 20.81085 100.86888 
L 23.850165 101.26104 
L 26.90497 100.99272 
L 29.940413 100.61088 
L 32.948502 100.44576 
L 36.030309 100.94112 
L 39.079481 101.09592 
L 42.107778 101.00304 
L 45.139982 100.69344 
L 48.193942 100.9308 
L 51.243642 100.92048 
L 54.248986 100.81728 
L 57.337939 100.8792 
L 60.412353 100.64184 
L 63.460363 101.1888 
L 66.493694 101.09592 
L 69.540437 101.37456 
L 72.615309 101.21976 
L 75.579322 101.20944 
L 78.682709 101.23008 
L 81.723292 100.92048 
L 84.697937 101.06496 
L 87.793156 100.70376 
L 90.835605 100.55928 
L 93.82662 100.53864 
L 96.879383 99.60984 
L 99.982312 99.72336 
L 103.04796 99.44472 
L 106.047354 99.25896 
L 109.103462 99.32088 
L 112.141721 100.22904 
L 115.198357 100.01232 
L 118.201165 100.43544 
L 121.288217 100.75536 
L 124.359392 101.02368 
L 127.37924 101.02368 
L 130.431757 101.17848 
L 133.490716 100.7244 
L 136.509049 100.75536 
L 139.508901 101.11656 
L 142.598699 100.91016 
L 145.680365 100.89984 
L 148.675921 101.1372 
L 151.748786 101.2404 
L 154.780708 101.6532 
L 157.8246 101.4984 
L 160.822374 101.48808 
L 163.926113 101.32296 
L 167.012743 101.51904 
L 170.024458 101.7048 
L 173.100315 102.54072 
L 176.131534 103.08768 
L 179.123077 103.36632 
L 182.117965 104.22288 
L 185.224977 103.85136 
L 188.280064 103.68624 
L 191.263651 103.43856 
L 194.336833 103.81008 
L 197.39632 103.72752 
L 200.449893 103.50048 
L 203.469283 103.5108 
L 206.532995 103.31472 
L 209.67574 102.95352 
L 212.734734 102.61296 
L 215.679491 102.6336 
L 218.706555 102.9948 
L 221.819834 103.28376 
L 224.739843 103.01544 
L 227.844779 102.69552 
L 230.975449 102.582 
L 233.835258 102.88128 
L 236.887775 103.15992 
L 239.928604 103.36632 
L 242.985838 103.36632 
L 245.990195 102.81936 
L 249.089815 103.0464 
L 252.153457 102.9432 
L 255.136129 102.59232 
L 258.222265 102.40656 
L 261.21064 102.02472 
L 264.219187 101.68416 
L 267.24773 101.3436 
L 270.333902 101.6532 
L 273.405006 101.6532 
L 276.401021 101.63256 
L 279.36 101.95248 
" clip-path="url(#p3d9a3665ff)" style="fill: none; stroke: #bebebe; stroke-width: 0.5; stroke-linecap: round"/>
   </g>
   <g id="line2d_6">
    <path d="M 8.64 87.1536 
L 11.635134 86.21448 
L 14.731339 86.66856 
L 17.788573 87.01944 
L 20.81085 84.44976 
L 23.850165 85.05864 
L 26.90497 84.58392 
L 29.940413 85.04832 
L 32.948502 83.71704 
L 36.030309 84.86256 
L 39.079481 85.6572 
L 42.107778 85.27536 
L 45.139982 84.49104 
L 48.193942 84.86256 
L 51.243642 85.32696 
L 54.248986 85.17216 
L 57.337939 85.31664 
L 60.412353 84.11952 
L 63.460363 85.66752 
L 66.493694 85.26504 
L 69.540437 86.26608 
L 72.615309 85.77072 
L 75.579322 85.38888 
L 78.682709 85.3992 
L 81.723292 84.09888 
L 84.697937 84.22272 
L 87.793156 84.34656 
L 90.835605 85.06896 
L 93.82662 85.7604 
L 96.879383 85.0896 
L 99.982312 85.01736 
L 103.04796 84.9348 
L 106.047354 85.296 
L 109.103462 85.35792 
L 112.141721 86.1732 
L 115.198357 85.92552 
L 118.201165 86.55504 
L 121.288217 87.13296 
L 124.359392 88.10304 
L 127.37924 87.9276 
L 130.431757 88.26816 
L 133.490716 87.78312 
L 136.509049 87.95856 
L 139.508901 88.94928 
L 142.598699 88.14432 
L 145.680365 88.33008 
L 148.675921 88.52616 
L 151.748786 88.86672 
L 154.780708 90.22896 
L 157.8246 89.82648 
L 160.822374 89.87808 
L 163.926113 89.46528 
L 167.012743 90.0432 
L 170.024458 89.96064 
L 173.100315 91.99368 
L 176.131534 93.05664 
L 179.123077 93.74808 
L 182.117965 97.02984 
L 185.224977 95.93592 
L 188.280064 95.07936 
L 191.263651 94.46016 
L 194.336833 95.47152 
L 197.39632 95.11032 
L 200.449893 94.82136 
L 203.469283 94.8936 
L 206.532995 94.70784 
L 209.67574 94.04736 
L 212.734734 93.40752 
L 215.679491 92.9844 
L 218.706555 93.93384 
L 221.819834 94.4292 
L 224.739843 94.19184 
L 227.844779 93.87192 
L 230.975449 93.81 
L 233.835258 94.03704 
L 236.887775 94.83168 
L 239.928604 95.48184 
L 242.985838 96.63768 
L 245.990195 96.14232 
L 249.089815 96.30744 
L 252.153457 96.29712 
L 255.136129 96.04944 
L 258.222265 95.9256 
L 261.21064 95.39928 
L 264.219187 94.31568 
L 267.24773 93.57264 
L 270.333902 93.32496 
L 273.405006 93.22176 
L 276.401021 93.35592 
L 279.36 93.61392 
" clip-path="url(#p3d9a3665ff)" style="fill: none; stroke: #4a8dff; stroke-width: 0.6"/>
   </g>
   <g id="line2d_7">
    <path d="M 8.64 99.6408 
L 11.635134 99.1764 
L 14.731339 99.70272 
L 17.788573 99.94008 
L 20.81085 98.57784 
L 23.850165 98.65008 
L 26.90497 98.38176 
L 29.940413 98.48496 
L 32.948502 96.70992 
L 36.030309 98.05152 
L 39.079481 98.48496 
L 42.107778 97.96896 
L 45.139982 96.32808 
L 48.193942 96.20424 
L 51.243642 96.16296 
L 54.248986 96.1836 
L 57.337939 96.50352 
L 60.412353 94.76976 
L 63.460363 97.19496 
L 66.493694 96.9576 
L 69.540437 97.9896 
L 72.615309 96.89568 
L 75.579322 95.45088 
L 78.682709 95.67792 
L 81.723292 93.43848 
L 84.697937 92.90184 
L 87.793156 92.25168 
L 90.835605 92.87088 
L 93.82662 94.2744 
L 96.879383 93.1392 
L 99.982312 92.97408 
L 103.04796 92.9844 
L 106.047354 92.60256 
L 109.103462 92.53032 
L 112.141721 94.54272 
L 115.198357 92.85024 
L 118.201165 94.82136 
L 121.288217 95.75016 
L 124.359392 96.97824 
L 127.37924 97.08144 
L 130.431757 97.23624 
L 133.490716 95.94624 
L 136.509049 96.30744 
L 139.508901 98.08248 
L 142.598699 97.2672 
L 145.680365 96.61704 
L 148.675921 97.23624 
L 151.748786 98.08248 
L 154.780708 99.18672 
L 157.8246 99.03192 
L 160.822374 99.1248 
L 163.926113 98.74296 
L 167.012743 99.09384 
L 170.024458 100.0536 
L 173.100315 101.23008 
L 176.131534 101.99376 
L 179.123077 102.08664 
L 182.117965 102.8916 
L 185.224977 102.45816 
L 188.280064 102.28272 
L 191.263651 102.10728 
L 194.336833 102.582 
L 197.39632 102.29304 
L 200.449893 102.08664 
L 203.469283 102.066 
L 206.532995 101.86992 
L 209.67574 101.48808 
L 212.734734 101.40552 
L 215.679491 101.4984 
L 218.706555 101.97312 
L 221.819834 102.26208 
L 224.739843 102.066 
L 227.844779 101.90088 
L 230.975449 101.90088 
L 233.835258 102.0144 
L 236.887775 102.25176 
L 239.928604 102.6336 
L 242.985838 102.88128 
L 245.990195 102.77808 
L 249.089815 102.85032 
L 252.153457 102.93288 
L 255.136129 102.95352 
L 258.222265 103.00512 
L 261.21064 102.69552 
L 264.219187 102.55104 
L 267.24773 102.2724 
L 270.333902 102.21048 
L 273.405006 102.12792 
L 276.401021 102.13824 
L 279.36 102.25176 
" clip-path="url(#p3d9a3665ff)" style="fill: none; stroke: #f5841e; stroke-width: 0.6"/>
   </g>
  </g>
 </g>
 <defs>
  <clipPath id="p3d9a3665ff">
   <rect x="8.64" y="4.8" width="270.72" height="103.2"/>
  </clipPath>
 </defs>
</svg>
