<?xml version="1.0" encoding="utf-8" standalone="no"?>
<!DOCTYPE svg PUBLIC "-//W3C//DTD SVG 1.1//EN"
  "http://www.w3.org/Graphics/SVG/1.1/DTD/svg11.dtd">
<svg xmlns:xlink="http://www.w3.org/1999/xlink" width="288pt" height="120pt" viewBox="0 0 288 120" xmlns="http://www.w3.org/2000/svg" version="1.1">
<desc id="nav-meta">{"window":"1m","count":4,"labels":["15.04","25.04","04.05","14.05"],"tick_utc":["2026-04-15T03:52:26Z","2026-04-25T03:44:07Z","2026-05-04T04:31:15Z","2026-05-14T04:32:13Z"],"w":720,"h":300}</desc>

 <metadata>
  <rdf:RDF xmlns:dc="http://purl.org/dc/elements/1.1/" xmlns:cc="http://creativecommons.org/ns#" xmlns:rdf="http://www.w3.org/1999/02/22-rdf-syntax-ns#">
   <cc:Work>
    <dc:type rdf:resource="http://purl.org/dc/dcmitype/StillImage"/>
    <dc:date>2026-05-14T20:18:27.371574</dc:date>
    <dc:format>image/svg+xml</dc:format>
    <dc:creator>
     <cc:Agent>
      <dc:title>Matplotlib v3.10.9, https://matplotlib.org/</dc:title>
     </cc:Agent>
    </dc:creator>
   </cc:Work>
  </rdf:RDF>
 </metadata>
 <defs>
  <style type="text/css">*{stroke-linejoin: round; stroke-linecap: butt}</style>
 </defs>
 <g id="figure_1">
  <g id="patch_1">
   <path d="M 0 120 
L 288 120 
L 288 0 
L 0 0 
L 0 120 
z
" style="fill: none; opacity: 0"/>
  </g>
  <g id="axes_1">
   <g id="patch_2">
    <path d="M 8.64 108 
L 279.36 108 
L 279.36 4.8 
L 8.64 4.8 
L 8.64 108 
z
" style="fill: none"/>
   </g>
   <g id="matplotlib.axis_1"/>
   <g id="matplotlib.axis_2"/>
   <g id="line2d_1">
    <path d="M 8.64 87.36 
L 279.36 87.36 
" clip-path="url(#p6aad69d137)" style="fill: none; stroke: #b2b2b2; stroke-opacity: 0.35; stroke-width: 0.5; stroke-linecap: square"/>
   </g>
   <g id="line2d_2">
    <path d="M 8.64 66.72 
L 279.36 66.72 
" clip-path="url(#p6aad69d137)" style="fill: none; stroke: #b2b2b2; stroke-opacity: 0.35; stroke-width: 0.5; stroke-linecap: square"/>
   </g>
   <g id="line2d_3">
    <path d="M 8.64 46.08 
L 279.36 46.08 
" clip-path="url(#p6aad69d137)" style="fill: none; stroke: #b2b2b2; stroke-opacity: 0.35; stroke-width: 0.5; stroke-linecap: square"/>
   </g>
   <g id="line2d_4">
    <path d="M 8.64 25.44 
L 279.36 25.44 
" clip-path="url(#p6aad69d137)" style="fill: none; stroke: #b2b2b2; stroke-opacity: 0.35; stroke-width: 0.5; stroke-linecap: square"/>
   </g>
   <g id="line2d_5">
    <path d="M 8.64 101.26104 
L 18.006658 100.99272 
L 27.313948 100.61088 
L 36.537366 100.44576 
L 45.986816 100.94112 
L 55.336204 101.09592 
L 64.621581 101.00304 
L 73.91894 100.69344 
L 83.283007 100.9308 
L 92.634014 100.92048 
L 101.849012 100.81728 
L 111.320375 100.8792 
L 120.747158 100.64184 
L 130.092983 101.1888 
L 139.393796 101.09592 
L 148.735736 101.37456 
L 158.163921 101.21976 
L 167.252194 101.20944 
L 176.767814 101.23008 
L 186.090864 100.92048 
L 195.211735 101.06496 
L 204.702312 100.70376 
L 214.031083 100.55928 
L 223.202148 100.53864 
L 232.562546 99.60984 
L 242.076762 99.72336 
L 251.476667 99.44472 
L 260.673423 99.25896 
L 270.044075 99.32088 
L 279.36 100.22904 
" clip-path="url(#p6aad69d137)" style="fill: none; stroke: #bebebe; stroke-width: 0.5; stroke-linecap: round"/>
   </g>
   <g id="line2d_6">
    <path d="M 8.64 85.05864 
L 18.006658 84.58392 
L 27.313948 85.04832 
L 36.537366 83.71704 
L 45.986816 84.86256 
L 55.336204 85.6572 
L 64.621581 85.27536 
L 73.91894 84.49104 
L 83.283007 84.86256 
L 92.634014 85.32696 
L 101.849012 85.17216 
L 111.320375 85.31664 
L 120.747158 84.11952 
L 130.092983 85.66752 
L 139.393796 85.26504 
L 148.735736 86.26608 
L 158.163921 85.77072 
L 167.252194 85.38888 
L 176.767814 85.3992 
L 186.090864 84.09888 
L 195.211735 84.22272 
L 204.702312 84.34656 
L 214.031083 85.06896 
L 223.202148 85.7604 
L 232.562546 85.0896 
L 242.076762 85.01736 
L 251.476667 84.9348 
L 260.673423 85.296 
L 270.044075 85.35792 
L 279.36 86.1732 
" clip-path="url(#p6aad69d137)" style="fill: none; stroke: #4a8dff; stroke-width: 0.6"/>
   </g>
   <g id="line2d_7">
    <path d="M 8.64 98.65008 
L 18.006658 98.38176 
L 27.313948 98.48496 
L 36.537366 96.70992 
L 45.986816 98.05152 
L 55.336204 98.48496 
L 64.621581 97.96896 
L 73.91894 96.32808 
L 83.283007 96.20424 
L 92.634014 96.16296 
L 101.849012 96.1836 
L 111.320375 96.50352 
L 120.747158 94.76976 
L 130.092983 97.19496 
L 139.393796 96.9576 
L 148.735736 97.9896 
L 158.163921 96.89568 
L 167.252194 95.45088 
L 176.767814 95.67792 
L 186.090864 93.43848 
L 195.211735 92.90184 
L 204.702312 92.25168 
L 214.031083 92.87088 
L 223.202148 94.2744 
L 232.562546 93.1392 
L 242.076762 92.97408 
L 251.476667 92.9844 
L 260.673423 92.60256 
L 270.044075 92.53032 
L 279.36 94.54272 
" clip-path="url(#p6aad69d137)" style="fill: none; stroke: #f5841e; stroke-width: 0.6"/>
   </g>
  </g>
 </g>
 <defs>
  <clipPath id="p6aad69d137">
   <rect x="8.64" y="4.8" width="270.72" height="103.2"/>
  </clipPath>
 </defs>
</svg>
