<?xml version="1.0" encoding="utf-8" standalone="no"?>
<!DOCTYPE svg PUBLIC "-//W3C//DTD SVG 1.1//EN"
  "http://www.w3.org/Graphics/SVG/1.1/DTD/svg11.dtd">
<svg xmlns:xlink="http://www.w3.org/1999/xlink" width="288pt" height="120pt" viewBox="0 0 288 120" xmlns="http://www.w3.org/2000/svg" version="1.1">
<desc id="nav-meta">{"window":"1m","count":4,"labels":["06.04","16.04","25.04","05.05"],"tick_utc":["2026-04-06T03:50:17Z","2026-04-16T03:58:40Z","2026-04-25T03:44:07Z","2026-05-05T03:59:32Z"],"w":720,"h":300}</desc>

 <metadata>
  <rdf:RDF xmlns:dc="http://purl.org/dc/elements/1.1/" xmlns:cc="http://creativecommons.org/ns#" xmlns:rdf="http://www.w3.org/1999/02/22-rdf-syntax-ns#">
   <cc:Work>
    <dc:type rdf:resource="http://purl.org/dc/dcmitype/StillImage"/>
    <dc:date>2026-05-05T20:00:21.345705</dc:date>
    <dc:format>image/svg+xml</dc:format>
    <dc:creator>
     <cc:Agent>
      <dc:title>Matplotlib v3.10.9, https://matplotlib.org/</dc:title>
     </cc:Agent>
    </dc:creator>
   </cc:Work>
  </rdf:RDF>
 </metadata>
 <defs>
  <style type="text/css">*{stroke-linejoin: round; stroke-linecap: butt}</style>
 </defs>
 <g id="figure_1">
  <g id="patch_1">
   <path d="M 0 120 
L 288 120 
L 288 0 
L 0 0 
L 0 120 
z
" style="fill: none; opacity: 0"/>
  </g>
  <g id="axes_1">
   <g id="patch_2">
    <path d="M 8.64 108 
L 279.36 108 
L 279.36 4.8 
L 8.64 4.8 
L 8.64 108 
z
" style="fill: none"/>
   </g>
   <g id="matplotlib.axis_1"/>
   <g id="matplotlib.axis_2"/>
   <g id="line2d_1">
    <path d="M 8.64 87.36 
L 279.36 87.36 
" clip-path="url(#p56386a878e)" style="fill: none; stroke: #b2b2b2; stroke-opacity: 0.35; stroke-width: 0.5; stroke-linecap: square"/>
   </g>
   <g id="line2d_2">
    <path d="M 8.64 66.72 
L 279.36 66.72 
" clip-path="url(#p56386a878e)" style="fill: none; stroke: #b2b2b2; stroke-opacity: 0.35; stroke-width: 0.5; stroke-linecap: square"/>
   </g>
   <g id="line2d_3">
    <path d="M 8.64 46.08 
L 279.36 46.08 
" clip-path="url(#p56386a878e)" style="fill: none; stroke: #b2b2b2; stroke-opacity: 0.35; stroke-width: 0.5; stroke-linecap: square"/>
   </g>
   <g id="line2d_4">
    <path d="M 8.64 25.44 
L 279.36 25.44 
" clip-path="url(#p56386a878e)" style="fill: none; stroke: #b2b2b2; stroke-opacity: 0.35; stroke-width: 0.5; stroke-linecap: square"/>
   </g>
   <g id="line2d_5">
    <path d="M 8.64 101.47776 
L 17.912505 101.78736 
L 27.260733 101.09592 
L 36.561323 101.46744 
L 45.980306 101.3436 
L 55.170714 101.05464 
L 64.671253 101.3952 
L 74.052212 101.47776 
L 83.325905 100.86888 
L 92.651881 101.26104 
L 102.025386 100.99272 
L 111.339479 100.61088 
L 120.569639 100.44576 
L 130.025998 100.94112 
L 139.382219 101.09592 
L 148.674384 101.00304 
L 157.978539 100.69344 
L 167.349452 100.9308 
L 176.707294 100.92048 
L 185.929029 100.81728 
L 195.407315 100.8792 
L 204.840989 100.64184 
L 214.193646 101.1888 
L 223.501258 101.09592 
L 232.850026 101.37456 
L 242.285104 101.21976 
L 251.380021 101.20944 
L 260.902596 101.23008 
L 270.232461 100.92048 
L 279.36 101.06496 
" clip-path="url(#p56386a878e)" style="fill: none; stroke: #bebebe; stroke-width: 0.5; stroke-linecap: round"/>
   </g>
   <g id="line2d_6">
    <path d="M 8.64 87.9792 
L 17.912505 88.29912 
L 27.260733 86.38992 
L 36.561323 87.24648 
L 45.980306 87.1536 
L 55.170714 86.21448 
L 64.671253 86.66856 
L 74.052212 87.01944 
L 83.325905 84.44976 
L 92.651881 85.05864 
L 102.025386 84.58392 
L 111.339479 85.04832 
L 120.569639 83.71704 
L 130.025998 84.86256 
L 139.382219 85.6572 
L 148.674384 85.27536 
L 157.978539 84.49104 
L 167.349452 84.86256 
L 176.707294 85.32696 
L 185.929029 85.17216 
L 195.407315 85.31664 
L 204.840989 84.11952 
L 214.193646 85.66752 
L 223.501258 85.26504 
L 232.850026 86.26608 
L 242.285104 85.77072 
L 251.380021 85.38888 
L 260.902596 85.3992 
L 270.232461 84.09888 
L 279.36 84.22272 
" clip-path="url(#p56386a878e)" style="fill: none; stroke: #4a8dff; stroke-width: 0.6"/>
   </g>
   <g id="line2d_7">
    <path d="M 8.64 100.55928 
L 17.912505 100.65216 
L 27.260733 99.80592 
L 36.561323 99.96072 
L 45.980306 99.6408 
L 55.170714 99.1764 
L 64.671253 99.70272 
L 74.052212 99.94008 
L 83.325905 98.57784 
L 92.651881 98.65008 
L 102.025386 98.38176 
L 111.339479 98.48496 
L 120.569639 96.70992 
L 130.025998 98.05152 
L 139.382219 98.48496 
L 148.674384 97.96896 
L 157.978539 96.32808 
L 167.349452 96.20424 
L 176.707294 96.16296 
L 185.929029 96.1836 
L 195.407315 96.50352 
L 204.840989 94.76976 
L 214.193646 97.19496 
L 223.501258 96.9576 
L 232.850026 97.9896 
L 242.285104 96.89568 
L 251.380021 95.45088 
L 260.902596 95.67792 
L 270.232461 93.43848 
L 279.36 92.90184 
" clip-path="url(#p56386a878e)" style="fill: none; stroke: #f5841e; stroke-width: 0.6"/>
   </g>
  </g>
 </g>
 <defs>
  <clipPath id="p56386a878e">
   <rect x="8.64" y="4.8" width="270.72" height="103.2"/>
  </clipPath>
 </defs>
</svg>
