<?xml version="1.0" encoding="utf-8" standalone="no"?>
<!DOCTYPE svg PUBLIC "-//W3C//DTD SVG 1.1//EN"
  "http://www.w3.org/Graphics/SVG/1.1/DTD/svg11.dtd">
<svg xmlns:xlink="http://www.w3.org/1999/xlink" width="288pt" height="120pt" viewBox="0 0 288 120" xmlns="http://www.w3.org/2000/svg" version="1.1">
<desc id="nav-meta">{"window":"1m","count":4,"labels":["07.02","17.02","26.02","08.03"],"tick_utc":["2026-02-07T03:13:08Z","2026-02-17T00:31:58Z","2026-02-26T03:20:47Z","2026-03-08T03:19:34Z"],"w":720,"h":300}</desc>

 <metadata>
  <rdf:RDF xmlns:dc="http://purl.org/dc/elements/1.1/" xmlns:cc="http://creativecommons.org/ns#" xmlns:rdf="http://www.w3.org/1999/02/22-rdf-syntax-ns#">
   <cc:Work>
    <dc:type rdf:resource="http://purl.org/dc/dcmitype/StillImage"/>
    <dc:date>2026-03-08T03:19:36.993533</dc:date>
    <dc:format>image/svg+xml</dc:format>
    <dc:creator>
     <cc:Agent>
      <dc:title>Matplotlib v3.10.8, https://matplotlib.org/</dc:title>
     </cc:Agent>
    </dc:creator>
   </cc:Work>
  </rdf:RDF>
 </metadata>
 <defs>
  <style type="text/css">*{stroke-linejoin: round; stroke-linecap: butt}</style>
 </defs>
 <g id="figure_1">
  <g id="patch_1">
   <path d="M 0 120 
L 288 120 
L 288 0 
L 0 0 
L 0 120 
z
" style="fill: none; opacity: 0"/>
  </g>
  <g id="axes_1">
   <g id="patch_2">
    <path d="M 8.64 108 
L 279.36 108 
L 279.36 4.8 
L 8.64 4.8 
L 8.64 108 
z
" style="fill: none"/>
   </g>
   <g id="matplotlib.axis_1"/>
   <g id="matplotlib.axis_2"/>
   <g id="line2d_1">
    <path d="M 8.64 87.36 
L 279.36 87.36 
" clip-path="url(#pc19744f01b)" style="fill: none; stroke: #b2b2b2; stroke-opacity: 0.35; stroke-width: 0.5; stroke-linecap: square"/>
   </g>
   <g id="line2d_2">
    <path d="M 8.64 66.72 
L 279.36 66.72 
" clip-path="url(#pc19744f01b)" style="fill: none; stroke: #b2b2b2; stroke-opacity: 0.35; stroke-width: 0.5; stroke-linecap: square"/>
   </g>
   <g id="line2d_3">
    <path d="M 8.64 46.08 
L 279.36 46.08 
" clip-path="url(#pc19744f01b)" style="fill: none; stroke: #b2b2b2; stroke-opacity: 0.35; stroke-width: 0.5; stroke-linecap: square"/>
   </g>
   <g id="line2d_4">
    <path d="M 8.64 25.44 
L 279.36 25.44 
" clip-path="url(#pc19744f01b)" style="fill: none; stroke: #b2b2b2; stroke-opacity: 0.35; stroke-width: 0.5; stroke-linecap: square"/>
   </g>
   <g id="line2d_5">
    <path d="M 8.64 100.54896 
L 18.187092 100.70376 
L 27.443802 100.68312 
L 36.830795 100.95144 
L 46.145192 101.28168 
L 55.44533 101.71512 
L 64.776255 101.84928 
L 73.997747 101.034 
L 82.838976 100.54896 
L 92.771409 101.04432 
L 100.932701 100.81728 
L 111.424078 101.034 
L 120.74647 101.4984 
L 130.025649 101.33328 
L 139.302344 101.1372 
L 148.742704 101.06496 
L 158.104526 102.09696 
L 166.649754 102.05568 
L 176.738398 101.4984 
L 186.030541 100.60056 
L 195.346559 100.80696 
L 204.570319 101.45712 
L 214.116116 100.55928 
L 223.353488 101.10624 
L 232.708936 100.8792 
L 241.990385 100.74504 
L 251.344213 100.21872 
L 260.673518 100.53864 
L 269.935629 101.07528 
L 279.36 101.38488 
" clip-path="url(#pc19744f01b)" style="fill: none; stroke: #bebebe; stroke-width: 0.5; stroke-linecap: round"/>
   </g>
   <g id="line2d_6">
    <path d="M 8.64 88.7532 
L 18.187092 88.65 
L 27.443802 88.55712 
L 36.830795 88.96992 
L 46.145192 89.7336 
L 55.44533 90.456 
L 64.776255 90.56952 
L 73.997747 89.15568 
L 82.838976 88.9596 
L 92.771409 90.6624 
L 100.932701 89.94 
L 111.424078 90.00192 
L 120.74647 90.3528 
L 130.025649 90.62112 
L 139.302344 90.5076 
L 148.742704 90.3528 
L 158.104526 92.004 
L 166.649754 92.13816 
L 176.738398 91.25064 
L 186.030541 89.166 
L 195.346559 89.56848 
L 204.570319 90.93072 
L 214.116116 89.41368 
L 223.353488 90.37344 
L 232.708936 89.79552 
L 241.990385 90.23928 
L 251.344213 88.0824 
L 260.673518 88.7532 
L 269.935629 90.16704 
L 279.36 90.67272 
" clip-path="url(#pc19744f01b)" style="fill: none; stroke: #4a8dff; stroke-width: 0.6"/>
   </g>
   <g id="line2d_7">
    <path d="M 8.64 100.03296 
L 18.187092 100.518 
L 27.443802 99.98136 
L 36.830795 100.49736 
L 46.145192 100.78632 
L 55.44533 101.07528 
L 64.776255 101.26104 
L 73.997747 100.63152 
L 82.838976 100.38384 
L 92.771409 100.84824 
L 100.932701 100.65216 
L 111.424078 101.034 
L 120.74647 101.19912 
L 130.025649 101.10624 
L 139.302344 100.97208 
L 148.742704 100.91016 
L 158.104526 101.7564 
L 166.649754 101.84928 
L 176.738398 101.56032 
L 186.030541 100.85856 
L 195.346559 101.12688 
L 204.570319 101.4468 
L 214.116116 101.02368 
L 223.353488 101.30232 
L 232.708936 100.81728 
L 241.990385 100.79664 
L 251.344213 99.3312 
L 260.673518 99.92976 
L 269.935629 100.78632 
L 279.36 101.17848 
" clip-path="url(#pc19744f01b)" style="fill: none; stroke: #f5841e; stroke-width: 0.6"/>
   </g>
  </g>
 </g>
 <defs>
  <clipPath id="pc19744f01b">
   <rect x="8.64" y="4.8" width="270.72" height="103.2"/>
  </clipPath>
 </defs>
</svg>
