<?xml version="1.0" encoding="utf-8" standalone="no"?>
<!DOCTYPE svg PUBLIC "-//W3C//DTD SVG 1.1//EN"
  "http://www.w3.org/Graphics/SVG/1.1/DTD/svg11.dtd">
<svg xmlns:xlink="http://www.w3.org/1999/xlink" width="288pt" height="120pt" viewBox="0 0 288 120" xmlns="http://www.w3.org/2000/svg" version="1.1">
<desc id="nav-meta">{"window":"3m","count":4,"labels":["05.03","04.04","03.05","02.06"],"tick_utc":["2026-03-05T03:17:19Z","2026-04-04T03:24:53Z","2026-05-03T04:31:45Z","2026-06-02T05:15:35Z"],"w":720,"h":300}</desc>

 <metadata>
  <rdf:RDF xmlns:dc="http://purl.org/dc/elements/1.1/" xmlns:cc="http://creativecommons.org/ns#" xmlns:rdf="http://www.w3.org/1999/02/22-rdf-syntax-ns#">
   <cc:Work>
    <dc:type rdf:resource="http://purl.org/dc/dcmitype/StillImage"/>
    <dc:date>2026-06-02T11:07:47.016519</dc:date>
    <dc:format>image/svg+xml</dc:format>
    <dc:creator>
     <cc:Agent>
      <dc:title>Matplotlib v3.10.9, https://matplotlib.org/</dc:title>
     </cc:Agent>
    </dc:creator>
   </cc:Work>
  </rdf:RDF>
 </metadata>
 <defs>
  <style type="text/css">*{stroke-linejoin: round; stroke-linecap: butt}</style>
 </defs>
 <g id="figure_1">
  <g id="patch_1">
   <path d="M 0 120 
L 288 120 
L 288 0 
L 0 0 
L 0 120 
z
" style="fill: none; opacity: 0"/>
  </g>
  <g id="axes_1">
   <g id="patch_2">
    <path d="M 8.64 108 
L 279.36 108 
L 279.36 4.8 
L 8.64 4.8 
L 8.64 108 
z
" style="fill: none"/>
   </g>
   <g id="matplotlib.axis_1"/>
   <g id="matplotlib.axis_2"/>
   <g id="line2d_1">
    <path d="M 8.64 87.36 
L 279.36 87.36 
" clip-path="url(#pddb72e6bf6)" style="fill: none; stroke: #b2b2b2; stroke-opacity: 0.35; stroke-width: 0.5; stroke-linecap: square"/>
   </g>
   <g id="line2d_2">
    <path d="M 8.64 66.72 
L 279.36 66.72 
" clip-path="url(#pddb72e6bf6)" style="fill: none; stroke: #b2b2b2; stroke-opacity: 0.35; stroke-width: 0.5; stroke-linecap: square"/>
   </g>
   <g id="line2d_3">
    <path d="M 8.64 46.08 
L 279.36 46.08 
" clip-path="url(#pddb72e6bf6)" style="fill: none; stroke: #b2b2b2; stroke-opacity: 0.35; stroke-width: 0.5; stroke-linecap: square"/>
   </g>
   <g id="line2d_4">
    <path d="M 8.64 25.44 
L 279.36 25.44 
" clip-path="url(#pddb72e6bf6)" style="fill: none; stroke: #b2b2b2; stroke-opacity: 0.35; stroke-width: 0.5; stroke-linecap: square"/>
   </g>
   <g id="line2d_5">
    <path d="M 8.64 100.21872 
L 11.677551 100.53864 
L 14.693225 101.07528 
L 17.761728 101.38488 
L 20.809832 101.26104 
L 23.829304 100.78632 
L 26.867101 100.91016 
L 29.918054 100.99272 
L 32.951173 100.38384 
L 35.986121 100.50768 
L 39.083257 100.60056 
L 42.130832 99.76464 
L 45.116643 99.49632 
L 48.178816 99.40344 
L 51.218654 100.09488 
L 54.228066 100.3632 
L 57.249261 100.19808 
L 60.333699 100.47672 
L 63.379833 100.79664 
L 66.390687 100.26 
L 69.656022 99.83688 
L 72.505641 100.13616 
L 75.548469 100.80696 
L 78.558409 101.38488 
L 81.638801 101.3436 
L 84.686482 101.292 
L 87.706306 101.28168 
L 90.771363 101.28168 
L 93.770329 101.8596 
L 96.812804 101.88024 
L 99.825769 101.72544 
L 102.910524 101.68416 
L 105.957361 101.47776 
L 108.976622 101.78736 
L 112.020539 101.09592 
L 115.048945 101.46744 
L 118.115902 101.3436 
L 121.108431 101.05464 
L 124.201943 101.3952 
L 127.256518 101.47776 
L 130.276166 100.86888 
L 133.312838 101.26104 
L 136.364986 100.99272 
L 139.397789 100.61088 
L 142.403262 100.44576 
L 145.482389 100.94112 
L 148.528909 101.09592 
L 151.554572 101.00304 
L 154.584139 100.69344 
L 157.635443 100.9308 
L 160.682491 100.92048 
L 163.68522 100.81728 
L 166.771487 100.8792 
L 169.843227 100.64184 
L 172.888586 101.1888 
L 175.919279 101.09592 
L 178.963372 101.37456 
L 182.03557 101.21976 
L 184.997005 101.20944 
L 188.097693 101.23008 
L 191.135631 100.92048 
L 194.107689 101.06496 
L 197.200217 100.70376 
L 200.240019 100.55928 
L 203.228433 100.53864 
L 206.278541 99.60984 
L 209.378772 99.72336 
L 212.441753 99.44472 
L 215.438538 99.25896 
L 218.491988 99.32088 
L 221.527605 100.22904 
L 224.581582 100.01232 
L 227.581779 100.43544 
L 230.666146 100.75536 
L 233.73465 101.02368 
L 236.751871 101.02368 
L 239.801733 101.17848 
L 242.858032 100.7244 
L 245.87374 100.75536 
L 248.870983 101.11656 
L 251.958093 100.91016 
L 255.037079 100.89984 
L 258.03003 101.1372 
L 261.100222 101.2404 
L 264.129508 101.6532 
L 267.170752 101.4984 
L 270.16592 101.48808 
L 273.266959 101.32296 
L 276.350904 101.51904 
L 279.36 101.7048 
" clip-path="url(#pddb72e6bf6)" style="fill: none; stroke: #bebebe; stroke-width: 0.5; stroke-linecap: round"/>
   </g>
   <g id="line2d_6">
    <path d="M 8.64 88.0824 
L 11.677551 88.7532 
L 14.693225 90.16704 
L 17.761728 90.67272 
L 20.809832 90.18768 
L 23.829304 89.2692 
L 26.867101 89.54784 
L 29.918054 89.49624 
L 32.951173 88.31976 
L 35.986121 88.45392 
L 39.083257 88.46424 
L 42.130832 86.38992 
L 45.116643 84.80064 
L 48.178816 84.8316 
L 51.218654 86.586 
L 54.228066 87.74184 
L 57.249261 87.618 
L 60.333699 88.19592 
L 63.379833 89.08344 
L 66.390687 87.89664 
L 69.656022 87.3084 
L 72.505641 87.65928 
L 75.548469 88.96992 
L 78.558409 90.07416 
L 81.638801 89.76456 
L 84.686482 89.3724 
L 87.706306 89.00088 
L 90.771363 88.42296 
L 93.770329 88.81512 
L 96.812804 89.10408 
L 99.825769 89.14536 
L 102.910524 89.07312 
L 105.957361 87.9792 
L 108.976622 88.29912 
L 112.020539 86.38992 
L 115.048945 87.24648 
L 118.115902 87.1536 
L 121.108431 86.21448 
L 124.201943 86.66856 
L 127.256518 87.01944 
L 130.276166 84.44976 
L 133.312838 85.05864 
L 136.364986 84.58392 
L 139.397789 85.04832 
L 142.403262 83.71704 
L 145.482389 84.86256 
L 148.528909 85.6572 
L 151.554572 85.27536 
L 154.584139 84.49104 
L 157.635443 84.86256 
L 160.682491 85.32696 
L 163.68522 85.17216 
L 166.771487 85.31664 
L 169.843227 84.11952 
L 172.888586 85.66752 
L 175.919279 85.26504 
L 178.963372 86.26608 
L 182.03557 85.77072 
L 184.997005 85.38888 
L 188.097693 85.3992 
L 191.135631 84.09888 
L 194.107689 84.22272 
L 197.200217 84.34656 
L 200.240019 85.06896 
L 203.228433 85.7604 
L 206.278541 85.0896 
L 209.378772 85.01736 
L 212.441753 84.9348 
L 215.438538 85.296 
L 218.491988 85.35792 
L 221.527605 86.1732 
L 224.581582 85.92552 
L 227.581779 86.55504 
L 230.666146 87.13296 
L 233.73465 88.10304 
L 236.751871 87.9276 
L 239.801733 88.26816 
L 242.858032 87.78312 
L 245.87374 87.95856 
L 248.870983 88.94928 
L 251.958093 88.14432 
L 255.037079 88.33008 
L 258.03003 88.52616 
L 261.100222 88.86672 
L 264.129508 90.22896 
L 267.170752 89.82648 
L 270.16592 89.87808 
L 273.266959 89.46528 
L 276.350904 90.0432 
L 279.36 89.96064 
" clip-path="url(#pddb72e6bf6)" style="fill: none; stroke: #4a8dff; stroke-width: 0.6"/>
   </g>
   <g id="line2d_7">
    <path d="M 8.64 99.3312 
L 11.677551 99.92976 
L 14.693225 100.78632 
L 17.761728 101.17848 
L 20.809832 101.1372 
L 23.829304 100.21872 
L 26.867101 100.37352 
L 29.918054 100.4664 
L 32.951173 99.88848 
L 35.986121 99.94008 
L 39.083257 99.81624 
L 42.130832 98.93904 
L 45.116643 98.3508 
L 48.178816 98.52624 
L 51.218654 99.78528 
L 54.228066 100.12584 
L 57.249261 100.03296 
L 60.333699 100.45608 
L 63.379833 100.83792 
L 66.390687 100.11552 
L 69.656022 99.87816 
L 72.505641 100.002 
L 75.548469 100.64184 
L 78.558409 101.41584 
L 81.638801 101.21976 
L 84.686482 101.14752 
L 87.706306 101.00304 
L 90.771363 100.86888 
L 93.770329 101.21976 
L 96.812804 101.28168 
L 99.825769 101.20944 
L 102.910524 101.14752 
L 105.957361 100.55928 
L 108.976622 100.65216 
L 112.020539 99.80592 
L 115.048945 99.96072 
L 118.115902 99.6408 
L 121.108431 99.1764 
L 124.201943 99.70272 
L 127.256518 99.94008 
L 130.276166 98.57784 
L 133.312838 98.65008 
L 136.364986 98.38176 
L 139.397789 98.48496 
L 142.403262 96.70992 
L 145.482389 98.05152 
L 148.528909 98.48496 
L 151.554572 97.96896 
L 154.584139 96.32808 
L 157.635443 96.20424 
L 160.682491 96.16296 
L 163.68522 96.1836 
L 166.771487 96.50352 
L 169.843227 94.76976 
L 172.888586 97.19496 
L 175.919279 96.9576 
L 178.963372 97.9896 
L 182.03557 96.89568 
L 184.997005 95.45088 
L 188.097693 95.67792 
L 191.135631 93.43848 
L 194.107689 92.90184 
L 197.200217 92.25168 
L 200.240019 92.87088 
L 203.228433 94.2744 
L 206.278541 93.1392 
L 209.378772 92.97408 
L 212.441753 92.9844 
L 215.438538 92.60256 
L 218.491988 92.53032 
L 221.527605 94.54272 
L 224.581582 92.85024 
L 227.581779 94.82136 
L 230.666146 95.75016 
L 233.73465 96.97824 
L 236.751871 97.08144 
L 239.801733 97.23624 
L 242.858032 95.94624 
L 245.87374 96.30744 
L 248.870983 98.08248 
L 251.958093 97.2672 
L 255.037079 96.61704 
L 258.03003 97.23624 
L 261.100222 98.08248 
L 264.129508 99.18672 
L 267.170752 99.03192 
L 270.16592 99.1248 
L 273.266959 98.74296 
L 276.350904 99.09384 
L 279.36 100.0536 
" clip-path="url(#pddb72e6bf6)" style="fill: none; stroke: #f5841e; stroke-width: 0.6"/>
   </g>
  </g>
 </g>
 <defs>
  <clipPath id="pddb72e6bf6">
   <rect x="8.64" y="4.8" width="270.72" height="103.2"/>
  </clipPath>
 </defs>
</svg>
