<?xml version="1.0" encoding="utf-8" standalone="no"?>
<!DOCTYPE svg PUBLIC "-//W3C//DTD SVG 1.1//EN"
  "http://www.w3.org/Graphics/SVG/1.1/DTD/svg11.dtd">
<svg xmlns:xlink="http://www.w3.org/1999/xlink" width="288pt" height="120pt" viewBox="0 0 288 120" xmlns="http://www.w3.org/2000/svg" version="1.1">
<desc id="nav-meta">{"window":"3m","count":4,"labels":["27.01","26.02","28.03","27.04"],"tick_utc":["2026-01-27T12:00:00Z","2026-02-26T03:20:47Z","2026-03-28T03:27:32Z","2026-04-27T04:22:02Z"],"w":720,"h":300}</desc>

 <metadata>
  <rdf:RDF xmlns:dc="http://purl.org/dc/elements/1.1/" xmlns:cc="http://creativecommons.org/ns#" xmlns:rdf="http://www.w3.org/1999/02/22-rdf-syntax-ns#">
   <cc:Work>
    <dc:type rdf:resource="http://purl.org/dc/dcmitype/StillImage"/>
    <dc:date>2026-04-27T09:07:27.705193</dc:date>
    <dc:format>image/svg+xml</dc:format>
    <dc:creator>
     <cc:Agent>
      <dc:title>Matplotlib v3.10.9, https://matplotlib.org/</dc:title>
     </cc:Agent>
    </dc:creator>
   </cc:Work>
  </rdf:RDF>
 </metadata>
 <defs>
  <style type="text/css">*{stroke-linejoin: round; stroke-linecap: butt}</style>
 </defs>
 <g id="figure_1">
  <g id="patch_1">
   <path d="M 0 120 
L 288 120 
L 288 0 
L 0 0 
L 0 120 
z
" style="fill: none; opacity: 0"/>
  </g>
  <g id="axes_1">
   <g id="patch_2">
    <path d="M 8.64 108 
L 279.36 108 
L 279.36 4.8 
L 8.64 4.8 
L 8.64 108 
z
" style="fill: none"/>
   </g>
   <g id="matplotlib.axis_1"/>
   <g id="matplotlib.axis_2"/>
   <g id="line2d_1">
    <path d="M 8.64 87.36 
L 279.36 87.36 
" clip-path="url(#p48c6b1e361)" style="fill: none; stroke: #b2b2b2; stroke-opacity: 0.35; stroke-width: 0.5; stroke-linecap: square"/>
   </g>
   <g id="line2d_2">
    <path d="M 8.64 66.72 
L 279.36 66.72 
" clip-path="url(#p48c6b1e361)" style="fill: none; stroke: #b2b2b2; stroke-opacity: 0.35; stroke-width: 0.5; stroke-linecap: square"/>
   </g>
   <g id="line2d_3">
    <path d="M 8.64 46.08 
L 279.36 46.08 
" clip-path="url(#p48c6b1e361)" style="fill: none; stroke: #b2b2b2; stroke-opacity: 0.35; stroke-width: 0.5; stroke-linecap: square"/>
   </g>
   <g id="line2d_4">
    <path d="M 8.64 25.44 
L 279.36 25.44 
" clip-path="url(#p48c6b1e361)" style="fill: none; stroke: #b2b2b2; stroke-opacity: 0.35; stroke-width: 0.5; stroke-linecap: square"/>
   </g>
   <g id="line2d_5">
    <path d="M 8.64 92.5716 
L 11.658667 91.76664 
L 14.677334 92.33424 
L 17.696001 94.36728 
L 20.714668 94.46016 
L 23.733335 97.71096 
L 26.752002 98.48496 
L 29.770669 97.85544 
L 32.319102 99.10416 
L 34.717999 100.16712 
L 37.735129 102.23112 
L 40.740869 100.54896 
L 43.828539 100.70376 
L 46.822295 100.68312 
L 49.858187 100.95144 
L 52.8706 101.28168 
L 55.878401 101.71512 
L 58.896159 101.84928 
L 61.878526 101.034 
L 64.737909 100.54896 
L 67.950204 101.04432 
L 70.589686 100.81728 
L 73.982752 101.034 
L 76.99775 101.4984 
L 79.998773 101.33328 
L 82.998993 101.1372 
L 86.052144 101.06496 
L 89.079895 102.09696 
L 91.843548 102.05568 
L 95.106363 101.4984 
L 98.111579 100.60056 
L 101.124516 100.80696 
L 104.107616 101.45712 
L 107.194867 100.55928 
L 110.182369 101.10624 
L 113.208059 100.8792 
L 116.209816 100.74504 
L 119.234981 100.21872 
L 122.252216 100.53864 
L 125.247719 101.07528 
L 128.295699 101.38488 
L 131.323415 101.26104 
L 134.322692 100.78632 
L 137.340171 100.91016 
L 140.370717 100.99272 
L 143.383549 100.38384 
L 146.398198 100.50768 
L 149.474618 100.60056 
L 152.50181 99.76464 
L 155.467651 99.49632 
L 158.509342 99.40344 
L 161.528847 100.09488 
L 164.518131 100.3632 
L 167.51912 100.19808 
L 170.582927 100.47672 
L 173.608687 100.79664 
L 176.599403 100.26 
L 179.842898 99.83688 
L 182.673457 100.13616 
L 185.695932 100.80696 
L 188.685741 101.38488 
L 191.74553 101.3436 
L 194.772827 101.292 
L 197.772452 101.28168 
L 200.817009 101.28168 
L 203.795916 101.8596 
L 206.818042 101.88024 
L 209.810855 101.72544 
L 212.874976 101.68416 
L 215.901435 101.47776 
L 218.900501 101.78736 
L 221.92406 101.09592 
L 224.93221 101.46744 
L 227.978653 101.3436 
L 230.951167 101.05464 
L 234.023988 101.3952 
L 237.058133 101.47776 
L 240.057584 100.86888 
L 243.073945 101.26104 
L 246.105679 100.99272 
L 249.118197 100.61088 
L 252.103568 100.44576 
L 255.162099 100.94112 
L 258.188243 101.09592 
L 261.193669 101.00304 
L 264.202972 100.69344 
L 267.233868 100.9308 
L 270.260536 100.92048 
L 273.243181 100.81728 
L 276.308805 100.8792 
L 279.36 100.64184 
" clip-path="url(#p48c6b1e361)" style="fill: none; stroke: #bebebe; stroke-width: 0.5; stroke-linecap: round"/>
   </g>
   <g id="line2d_6">
    <path d="M 8.64 76.14216 
L 11.658667 74.75928 
L 14.677334 74.96568 
L 17.696001 77.75208 
L 20.714668 79.48584 
L 23.733335 83.31456 
L 26.752002 85.90488 
L 29.770669 84.79032 
L 32.319102 85.84296 
L 34.717999 88.25784 
L 37.735129 91.41576 
L 40.740869 88.7532 
L 43.828539 88.65 
L 46.822295 88.55712 
L 49.858187 88.96992 
L 52.8706 89.7336 
L 55.878401 90.456 
L 58.896159 90.56952 
L 61.878526 89.15568 
L 64.737909 88.9596 
L 67.950204 90.6624 
L 70.589686 89.94 
L 73.982752 90.00192 
L 76.99775 90.3528 
L 79.998773 90.62112 
L 82.998993 90.5076 
L 86.052144 90.3528 
L 89.079895 92.004 
L 91.843548 92.13816 
L 95.106363 91.25064 
L 98.111579 89.166 
L 101.124516 89.56848 
L 104.107616 90.93072 
L 107.194867 89.41368 
L 110.182369 90.37344 
L 113.208059 89.79552 
L 116.209816 90.23928 
L 119.234981 88.0824 
L 122.252216 88.7532 
L 125.247719 90.16704 
L 128.295699 90.67272 
L 131.323415 90.18768 
L 134.322692 89.2692 
L 137.340171 89.54784 
L 140.370717 89.49624 
L 143.383549 88.31976 
L 146.398198 88.45392 
L 149.474618 88.46424 
L 152.50181 86.38992 
L 155.467651 84.80064 
L 158.509342 84.8316 
L 161.528847 86.586 
L 164.518131 87.74184 
L 167.51912 87.618 
L 170.582927 88.19592 
L 173.608687 89.08344 
L 176.599403 87.89664 
L 179.842898 87.3084 
L 182.673457 87.65928 
L 185.695932 88.96992 
L 188.685741 90.07416 
L 191.74553 89.76456 
L 194.772827 89.3724 
L 197.772452 89.00088 
L 200.817009 88.42296 
L 203.795916 88.81512 
L 206.818042 89.10408 
L 209.810855 89.14536 
L 212.874976 89.07312 
L 215.901435 87.9792 
L 218.900501 88.29912 
L 221.92406 86.38992 
L 224.93221 87.24648 
L 227.978653 87.1536 
L 230.951167 86.21448 
L 234.023988 86.66856 
L 237.058133 87.01944 
L 240.057584 84.44976 
L 243.073945 85.05864 
L 246.105679 84.58392 
L 249.118197 85.04832 
L 252.103568 83.71704 
L 255.162099 84.86256 
L 258.188243 85.6572 
L 261.193669 85.27536 
L 264.202972 84.49104 
L 267.233868 84.86256 
L 270.260536 85.32696 
L 273.243181 85.17216 
L 276.308805 85.31664 
L 279.36 84.11952 
" clip-path="url(#p48c6b1e361)" style="fill: none; stroke: #4a8dff; stroke-width: 0.6"/>
   </g>
   <g id="line2d_7">
    <path d="M 8.64 85.21344 
L 11.658667 84.28464 
L 14.677334 84.32592 
L 17.696001 89.08344 
L 20.714668 89.5272 
L 23.733335 95.14128 
L 26.752002 96.98856 
L 29.770669 95.08968 
L 32.319102 97.71096 
L 34.717999 99.80592 
L 37.735129 101.79768 
L 40.740869 100.03296 
L 43.828539 100.518 
L 46.822295 99.98136 
L 49.858187 100.49736 
L 52.8706 100.78632 
L 55.878401 101.07528 
L 58.896159 101.26104 
L 61.878526 100.63152 
L 64.737909 100.38384 
L 67.950204 100.84824 
L 70.589686 100.65216 
L 73.982752 101.034 
L 76.99775 101.19912 
L 79.998773 101.10624 
L 82.998993 100.97208 
L 86.052144 100.91016 
L 89.079895 101.7564 
L 91.843548 101.84928 
L 95.106363 101.56032 
L 98.111579 100.85856 
L 101.124516 101.12688 
L 104.107616 101.4468 
L 107.194867 101.02368 
L 110.182369 101.30232 
L 113.208059 100.81728 
L 116.209816 100.79664 
L 119.234981 99.3312 
L 122.252216 99.92976 
L 125.247719 100.78632 
L 128.295699 101.17848 
L 131.323415 101.1372 
L 134.322692 100.21872 
L 137.340171 100.37352 
L 140.370717 100.4664 
L 143.383549 99.88848 
L 146.398198 99.94008 
L 149.474618 99.81624 
L 152.50181 98.93904 
L 155.467651 98.3508 
L 158.509342 98.52624 
L 161.528847 99.78528 
L 164.518131 100.12584 
L 167.51912 100.03296 
L 170.582927 100.45608 
L 173.608687 100.83792 
L 176.599403 100.11552 
L 179.842898 99.87816 
L 182.673457 100.002 
L 185.695932 100.64184 
L 188.685741 101.41584 
L 191.74553 101.21976 
L 194.772827 101.14752 
L 197.772452 101.00304 
L 200.817009 100.86888 
L 203.795916 101.21976 
L 206.818042 101.28168 
L 209.810855 101.20944 
L 212.874976 101.14752 
L 215.901435 100.55928 
L 218.900501 100.65216 
L 221.92406 99.80592 
L 224.93221 99.96072 
L 227.978653 99.6408 
L 230.951167 99.1764 
L 234.023988 99.70272 
L 237.058133 99.94008 
L 240.057584 98.57784 
L 243.073945 98.65008 
L 246.105679 98.38176 
L 249.118197 98.48496 
L 252.103568 96.70992 
L 255.162099 98.05152 
L 258.188243 98.48496 
L 261.193669 97.96896 
L 264.202972 96.32808 
L 267.233868 96.20424 
L 270.260536 96.16296 
L 273.243181 96.1836 
L 276.308805 96.50352 
L 279.36 94.76976 
" clip-path="url(#p48c6b1e361)" style="fill: none; stroke: #f5841e; stroke-width: 0.6"/>
   </g>
  </g>
 </g>
 <defs>
  <clipPath id="p48c6b1e361">
   <rect x="8.64" y="4.8" width="270.72" height="103.2"/>
  </clipPath>
 </defs>
</svg>
