<?xml version="1.0" encoding="utf-8" standalone="no"?>
<!DOCTYPE svg PUBLIC "-//W3C//DTD SVG 1.1//EN"
  "http://www.w3.org/Graphics/SVG/1.1/DTD/svg11.dtd">
<svg xmlns:xlink="http://www.w3.org/1999/xlink" width="288pt" height="120pt" viewBox="0 0 288 120" xmlns="http://www.w3.org/2000/svg" version="1.1">
<desc id="nav-meta">{"window":"1m","count":4,"labels":["18.04","28.04","07.05","17.05"],"tick_utc":["2026-04-18T03:39:51Z","2026-04-28T04:25:03Z","2026-05-07T04:25:17Z","2026-05-17T04:42:26Z"],"w":720,"h":300}</desc>

 <metadata>
  <rdf:RDF xmlns:dc="http://purl.org/dc/elements/1.1/" xmlns:cc="http://creativecommons.org/ns#" xmlns:rdf="http://www.w3.org/1999/02/22-rdf-syntax-ns#">
   <cc:Work>
    <dc:type rdf:resource="http://purl.org/dc/dcmitype/StillImage"/>
    <dc:date>2026-05-17T04:42:27.815666</dc:date>
    <dc:format>image/svg+xml</dc:format>
    <dc:creator>
     <cc:Agent>
      <dc:title>Matplotlib v3.10.9, https://matplotlib.org/</dc:title>
     </cc:Agent>
    </dc:creator>
   </cc:Work>
  </rdf:RDF>
 </metadata>
 <defs>
  <style type="text/css">*{stroke-linejoin: round; stroke-linecap: butt}</style>
 </defs>
 <g id="figure_1">
  <g id="patch_1">
   <path d="M 0 120 
L 288 120 
L 288 0 
L 0 0 
L 0 120 
z
" style="fill: none; opacity: 0"/>
  </g>
  <g id="axes_1">
   <g id="patch_2">
    <path d="M 8.64 108 
L 279.36 108 
L 279.36 4.8 
L 8.64 4.8 
L 8.64 108 
z
" style="fill: none"/>
   </g>
   <g id="matplotlib.axis_1"/>
   <g id="matplotlib.axis_2"/>
   <g id="line2d_1">
    <path d="M 8.64 87.36 
L 279.36 87.36 
" clip-path="url(#p0b2da2eeb5)" style="fill: none; stroke: #b2b2b2; stroke-opacity: 0.35; stroke-width: 0.5; stroke-linecap: square"/>
   </g>
   <g id="line2d_2">
    <path d="M 8.64 66.72 
L 279.36 66.72 
" clip-path="url(#p0b2da2eeb5)" style="fill: none; stroke: #b2b2b2; stroke-opacity: 0.35; stroke-width: 0.5; stroke-linecap: square"/>
   </g>
   <g id="line2d_3">
    <path d="M 8.64 46.08 
L 279.36 46.08 
" clip-path="url(#p0b2da2eeb5)" style="fill: none; stroke: #b2b2b2; stroke-opacity: 0.35; stroke-width: 0.5; stroke-linecap: square"/>
   </g>
   <g id="line2d_4">
    <path d="M 8.64 25.44 
L 279.36 25.44 
" clip-path="url(#p0b2da2eeb5)" style="fill: none; stroke: #b2b2b2; stroke-opacity: 0.35; stroke-width: 0.5; stroke-linecap: square"/>
   </g>
   <g id="line2d_5">
    <path d="M 8.64 100.44576 
L 18.084299 100.94112 
L 27.42859 101.09592 
L 36.708905 101.00304 
L 46.001195 100.69344 
L 55.360158 100.9308 
L 64.706067 100.92048 
L 73.916041 100.81728 
L 83.382241 100.8792 
L 92.803884 100.64184 
L 102.144615 101.1888 
L 111.440357 101.09592 
L 120.777204 101.37456 
L 130.20025 101.21976 
L 139.283568 101.20944 
L 148.794001 101.23008 
L 158.111967 100.92048 
L 167.227867 101.06496 
L 176.71327 100.70376 
L 186.036954 100.55928 
L 195.20302 100.53864 
L 204.558315 99.60984 
L 214.067345 99.72336 
L 223.462125 99.44472 
L 232.653867 99.25896 
L 242.019411 99.32088 
L 251.330257 100.22904 
L 260.697419 100.01232 
L 269.899626 100.43544 
L 279.36 100.75536 
" clip-path="url(#p0b2da2eeb5)" style="fill: none; stroke: #bebebe; stroke-width: 0.5; stroke-linecap: round"/>
   </g>
   <g id="line2d_6">
    <path d="M 8.64 83.71704 
L 18.084299 84.86256 
L 27.42859 85.6572 
L 36.708905 85.27536 
L 46.001195 84.49104 
L 55.360158 84.86256 
L 64.706067 85.32696 
L 73.916041 85.17216 
L 83.382241 85.31664 
L 92.803884 84.11952 
L 102.144615 85.66752 
L 111.440357 85.26504 
L 120.777204 86.26608 
L 130.20025 85.77072 
L 139.283568 85.38888 
L 148.794001 85.3992 
L 158.111967 84.09888 
L 167.227867 84.22272 
L 176.71327 84.34656 
L 186.036954 85.06896 
L 195.20302 85.7604 
L 204.558315 85.0896 
L 214.067345 85.01736 
L 223.462125 84.9348 
L 232.653867 85.296 
L 242.019411 85.35792 
L 251.330257 86.1732 
L 260.697419 85.92552 
L 269.899626 86.55504 
L 279.36 87.13296 
" clip-path="url(#p0b2da2eeb5)" style="fill: none; stroke: #4a8dff; stroke-width: 0.6"/>
   </g>
   <g id="line2d_7">
    <path d="M 8.64 96.70992 
L 18.084299 98.05152 
L 27.42859 98.48496 
L 36.708905 97.96896 
L 46.001195 96.32808 
L 55.360158 96.20424 
L 64.706067 96.16296 
L 73.916041 96.1836 
L 83.382241 96.50352 
L 92.803884 94.76976 
L 102.144615 97.19496 
L 111.440357 96.9576 
L 120.777204 97.9896 
L 130.20025 96.89568 
L 139.283568 95.45088 
L 148.794001 95.67792 
L 158.111967 93.43848 
L 167.227867 92.90184 
L 176.71327 92.25168 
L 186.036954 92.87088 
L 195.20302 94.2744 
L 204.558315 93.1392 
L 214.067345 92.97408 
L 223.462125 92.9844 
L 232.653867 92.60256 
L 242.019411 92.53032 
L 251.330257 94.54272 
L 260.697419 92.85024 
L 269.899626 94.82136 
L 279.36 95.75016 
" clip-path="url(#p0b2da2eeb5)" style="fill: none; stroke: #f5841e; stroke-width: 0.6"/>
   </g>
  </g>
 </g>
 <defs>
  <clipPath id="p0b2da2eeb5">
   <rect x="8.64" y="4.8" width="270.72" height="103.2"/>
  </clipPath>
 </defs>
</svg>
