<?xml version="1.0" encoding="utf-8" standalone="no"?>
<!DOCTYPE svg PUBLIC "-//W3C//DTD SVG 1.1//EN"
  "http://www.w3.org/Graphics/SVG/1.1/DTD/svg11.dtd">
<svg xmlns:xlink="http://www.w3.org/1999/xlink" width="288pt" height="120pt" viewBox="0 0 288 120" xmlns="http://www.w3.org/2000/svg" version="1.1">
<desc id="nav-meta">{"window":"3m","count":4,"labels":["04.12","03.01","01.02","03.03"],"tick_utc":["2025-12-04T12:00:00Z","2026-01-03T12:00:00Z","2026-02-01T12:00:00Z","2026-03-03T03:22:17Z"],"w":720,"h":300}</desc>

 <metadata>
  <rdf:RDF xmlns:dc="http://purl.org/dc/elements/1.1/" xmlns:cc="http://creativecommons.org/ns#" xmlns:rdf="http://www.w3.org/1999/02/22-rdf-syntax-ns#">
   <cc:Work>
    <dc:type rdf:resource="http://purl.org/dc/dcmitype/StillImage"/>
    <dc:date>2026-03-03T19:28:02.956278</dc:date>
    <dc:format>image/svg+xml</dc:format>
    <dc:creator>
     <cc:Agent>
      <dc:title>Matplotlib v3.10.8, https://matplotlib.org/</dc:title>
     </cc:Agent>
    </dc:creator>
   </cc:Work>
  </rdf:RDF>
 </metadata>
 <defs>
  <style type="text/css">*{stroke-linejoin: round; stroke-linecap: butt}</style>
 </defs>
 <g id="figure_1">
  <g id="patch_1">
   <path d="M 0 120 
L 288 120 
L 288 0 
L 0 0 
L 0 120 
z
" style="fill: none; opacity: 0"/>
  </g>
  <g id="axes_1">
   <g id="patch_2">
    <path d="M 8.64 108 
L 279.36 108 
L 279.36 4.8 
L 8.64 4.8 
L 8.64 108 
z
" style="fill: none"/>
   </g>
   <g id="matplotlib.axis_1"/>
   <g id="matplotlib.axis_2"/>
   <g id="line2d_1">
    <path d="M 8.64 87.36 
L 279.36 87.36 
" clip-path="url(#p78c8ed63ee)" style="fill: none; stroke: #b2b2b2; stroke-opacity: 0.35; stroke-width: 0.5; stroke-linecap: square"/>
   </g>
   <g id="line2d_2">
    <path d="M 8.64 66.72 
L 279.36 66.72 
" clip-path="url(#p78c8ed63ee)" style="fill: none; stroke: #b2b2b2; stroke-opacity: 0.35; stroke-width: 0.5; stroke-linecap: square"/>
   </g>
   <g id="line2d_3">
    <path d="M 8.64 46.08 
L 279.36 46.08 
" clip-path="url(#p78c8ed63ee)" style="fill: none; stroke: #b2b2b2; stroke-opacity: 0.35; stroke-width: 0.5; stroke-linecap: square"/>
   </g>
   <g id="line2d_4">
    <path d="M 8.64 25.44 
L 279.36 25.44 
" clip-path="url(#p78c8ed63ee)" style="fill: none; stroke: #b2b2b2; stroke-opacity: 0.35; stroke-width: 0.5; stroke-linecap: square"/>
   </g>
   <g id="line2d_5">
    <path d="M 8.64 86.87496 
L 11.694135 88.52616 
L 14.748271 90.11544 
L 17.802406 90.38376 
L 20.856541 90.53856 
L 23.910676 90.08448 
L 26.964812 88.79448 
L 30.018947 89.20728 
L 33.073082 89.22792 
L 36.127217 90.31152 
L 39.181353 90.10512 
L 42.235488 91.09584 
L 45.289623 91.61184 
L 48.343759 91.31256 
L 51.397894 92.87088 
L 54.452029 93.8616 
L 57.506164 92.02464 
L 60.5603 92.13816 
L 63.614435 92.07624 
L 66.66857 92.14848 
L 69.722705 92.64384 
L 72.776841 93.01536 
L 75.830976 93.69648 
L 78.885111 93.11856 
L 81.939247 92.44776 
L 84.993382 92.30328 
L 88.047517 92.87088 
L 91.101652 92.38584 
L 94.155788 92.47872 
L 97.209923 91.88016 
L 100.264058 90.42504 
L 103.318193 90.08448 
L 106.372329 89.92968 
L 109.426464 88.76352 
L 112.480599 87.94824 
L 115.534735 89.2692 
L 118.58887 88.72224 
L 121.643005 89.39304 
L 124.69714 89.40336 
L 127.751276 88.41264 
L 130.805411 88.4952 
L 133.859546 86.86464 
L 136.913682 86.42088 
L 139.967817 87.62832 
L 143.021952 86.93688 
L 146.076087 87.23616 
L 149.130223 88.63968 
L 152.184358 90.0432 
L 155.238493 92.12784 
L 158.292628 91.16808 
L 161.346764 91.46736 
L 164.400899 91.73568 
L 167.455034 91.78728 
L 170.50917 94.0164 
L 173.563305 92.5716 
L 176.61744 91.76664 
L 179.671575 92.33424 
L 182.725711 94.36728 
L 185.779846 94.46016 
L 188.833981 97.71096 
L 191.888116 98.48496 
L 194.942252 97.85544 
L 197.520628 99.10416 
L 199.947711 100.16712 
L 203.000291 102.23112 
L 206.041347 100.54896 
L 209.165296 100.70376 
L 212.194228 100.68312 
L 215.26579 100.95144 
L 218.313598 101.28168 
L 221.35674 101.71512 
L 224.409956 101.84928 
L 227.427364 101.034 
L 230.320344 100.54896 
L 233.570382 101.04432 
L 236.240877 100.81728 
L 239.67381 101.034 
L 242.724233 101.4984 
L 245.760518 101.33328 
L 248.795989 101.1372 
L 251.885013 101.06496 
L 254.948339 102.09696 
L 257.744464 102.05568 
L 261.045616 101.4984 
L 264.086142 100.60056 
L 267.13448 100.80696 
L 270.152631 101.45712 
L 273.276155 100.55928 
L 276.29876 101.10624 
L 279.36 100.8792 
" clip-path="url(#p78c8ed63ee)" style="fill: none; stroke: #bebebe; stroke-width: 0.5; stroke-linecap: round"/>
   </g>
   <g id="line2d_6">
    <path d="M 8.64 72.16896 
L 11.694135 73.08744 
L 14.748271 74.72832 
L 17.802406 74.48064 
L 20.856541 74.28456 
L 23.910676 73.21128 
L 26.964812 70.2804 
L 30.018947 70.2288 
L 33.073082 71.56008 
L 36.127217 73.79952 
L 39.181353 73.35576 
L 42.235488 74.0988 
L 45.289623 75.5952 
L 48.343759 75.5952 
L 51.397894 77.61792 
L 54.452029 77.63856 
L 57.506164 75.40944 
L 60.5603 75.40944 
L 63.614435 75.04824 
L 66.66857 74.98632 
L 69.722705 75.58488 
L 72.776841 75.87384 
L 75.830976 76.49304 
L 78.885111 76.15248 
L 81.939247 75.82224 
L 84.993382 75.84288 
L 88.047517 76.03896 
L 91.101652 75.51264 
L 94.155788 75.56424 
L 97.209923 75.05856 
L 100.264058 73.26288 
L 103.318193 73.20096 
L 106.372329 73.00488 
L 109.426464 71.68392 
L 112.480599 70.6932 
L 115.534735 72.62304 
L 118.58887 73.52088 
L 121.643005 73.83048 
L 124.69714 73.8408 
L 127.751276 73.29384 
L 130.805411 73.72728 
L 133.859546 70.32168 
L 136.913682 69.77472 
L 139.967817 70.34232 
L 143.021952 70.67256 
L 146.076087 70.51776 
L 149.130223 70.848 
L 152.184358 72.31344 
L 155.238493 76.01832 
L 158.292628 75.41976 
L 161.346764 75.83256 
L 164.400899 75.79128 
L 167.455034 75.82224 
L 170.50917 77.82432 
L 173.563305 76.14216 
L 176.61744 74.75928 
L 179.671575 74.96568 
L 182.725711 77.75208 
L 185.779846 79.48584 
L 188.833981 83.31456 
L 191.888116 85.90488 
L 194.942252 84.79032 
L 197.520628 85.84296 
L 199.947711 88.25784 
L 203.000291 91.41576 
L 206.041347 88.7532 
L 209.165296 88.65 
L 212.194228 88.55712 
L 215.26579 88.96992 
L 218.313598 89.7336 
L 221.35674 90.456 
L 224.409956 90.56952 
L 227.427364 89.15568 
L 230.320344 88.9596 
L 233.570382 90.6624 
L 236.240877 89.94 
L 239.67381 90.00192 
L 242.724233 90.3528 
L 245.760518 90.62112 
L 248.795989 90.5076 
L 251.885013 90.3528 
L 254.948339 92.004 
L 257.744464 92.13816 
L 261.045616 91.25064 
L 264.086142 89.166 
L 267.13448 89.56848 
L 270.152631 90.93072 
L 273.276155 89.41368 
L 276.29876 90.37344 
L 279.36 89.79552 
" clip-path="url(#p78c8ed63ee)" style="fill: none; stroke: #4a8dff; stroke-width: 0.6"/>
   </g>
   <g id="line2d_7">
    <path d="M 8.64 79.71288 
L 11.694135 81.24024 
L 14.748271 84.17112 
L 17.802406 84.24336 
L 20.856541 83.29392 
L 23.910676 82.8192 
L 26.964812 80.64168 
L 30.018947 81.38472 
L 33.073082 80.87904 
L 36.127217 83.13912 
L 39.181353 83.19072 
L 42.235488 85.296 
L 45.289623 87.17424 
L 48.343759 85.71912 
L 51.397894 87.53544 
L 54.452029 88.17528 
L 57.506164 85.41984 
L 60.5603 85.17216 
L 63.614435 84.9348 
L 66.66857 85.01736 
L 69.722705 86.14224 
L 72.776841 85.90488 
L 75.830976 86.328 
L 78.885111 86.24544 
L 81.939247 85.72944 
L 84.993382 85.7088 
L 88.047517 86.40024 
L 91.101652 85.09992 
L 94.155788 86.02872 
L 97.209923 84.78 
L 100.264058 83.53128 
L 103.318193 82.83984 
L 106.372329 82.03488 
L 109.426464 79.39296 
L 112.480599 79.66128 
L 115.534735 82.15872 
L 118.58887 82.43736 
L 121.643005 82.93272 
L 124.69714 83.00496 
L 127.751276 82.6128 
L 130.805411 82.28256 
L 133.859546 78.01008 
L 136.913682 76.19376 
L 139.967817 77.66952 
L 143.021952 77.74176 
L 146.076087 78.1752 
L 149.130223 79.5684 
L 152.184358 80.8068 
L 155.238493 85.20312 
L 158.292628 84.12984 
L 161.346764 84.03696 
L 164.400899 84.06792 
L 167.455034 84.3156 
L 170.50917 87.02976 
L 173.563305 85.21344 
L 176.61744 84.28464 
L 179.671575 84.32592 
L 182.725711 89.08344 
L 185.779846 89.5272 
L 188.833981 95.14128 
L 191.888116 96.98856 
L 194.942252 95.08968 
L 197.520628 97.71096 
L 199.947711 99.80592 
L 203.000291 101.79768 
L 206.041347 100.03296 
L 209.165296 100.518 
L 212.194228 99.98136 
L 215.26579 100.49736 
L 218.313598 100.78632 
L 221.35674 101.07528 
L 224.409956 101.26104 
L 227.427364 100.63152 
L 230.320344 100.38384 
L 233.570382 100.84824 
L 236.240877 100.65216 
L 239.67381 101.034 
L 242.724233 101.19912 
L 245.760518 101.10624 
L 248.795989 100.97208 
L 251.885013 100.91016 
L 254.948339 101.7564 
L 257.744464 101.84928 
L 261.045616 101.56032 
L 264.086142 100.85856 
L 267.13448 101.12688 
L 270.152631 101.4468 
L 273.276155 101.02368 
L 276.29876 101.30232 
L 279.36 100.81728 
" clip-path="url(#p78c8ed63ee)" style="fill: none; stroke: #f5841e; stroke-width: 0.6"/>
   </g>
  </g>
 </g>
 <defs>
  <clipPath id="p78c8ed63ee">
   <rect x="8.64" y="4.8" width="270.72" height="103.2"/>
  </clipPath>
 </defs>
</svg>
