<?xml version="1.0" encoding="utf-8" standalone="no"?>
<!DOCTYPE svg PUBLIC "-//W3C//DTD SVG 1.1//EN"
  "http://www.w3.org/Graphics/SVG/1.1/DTD/svg11.dtd">
<svg xmlns:xlink="http://www.w3.org/1999/xlink" width="288pt" height="120pt" viewBox="0 0 288 120" xmlns="http://www.w3.org/2000/svg" version="1.1">
<desc id="nav-meta">{"window":"1m","count":4,"labels":["15.05","25.05","03.06","13.06"],"tick_utc":["2026-05-15T04:39:19Z","2026-05-25T05:10:23Z","2026-06-03T05:31:47Z","2026-06-13T05:09:20Z"],"w":720,"h":300}</desc>

 <metadata>
  <rdf:RDF xmlns:dc="http://purl.org/dc/elements/1.1/" xmlns:cc="http://creativecommons.org/ns#" xmlns:rdf="http://www.w3.org/1999/02/22-rdf-syntax-ns#">
   <cc:Work>
    <dc:type rdf:resource="http://purl.org/dc/dcmitype/StillImage"/>
    <dc:date>2026-06-13T09:45:09.701904</dc:date>
    <dc:format>image/svg+xml</dc:format>
    <dc:creator>
     <cc:Agent>
      <dc:title>Matplotlib v3.11.0, https://matplotlib.org/</dc:title>
     </cc:Agent>
    </dc:creator>
   </cc:Work>
  </rdf:RDF>
 </metadata>
 <defs>
  <style type="text/css">*{stroke-linejoin: round; stroke-linecap: butt}</style>
 </defs>
 <g id="figure_1">
  <g id="patch_1">
   <path d="M 0 120 
L 288 120 
L 288 0 
L 0 0 
L 0 120 
z
" style="fill: none; opacity: 0"/>
  </g>
  <g id="axes_1">
   <g id="patch_2">
    <path d="M 8.64 108 
L 279.36 108 
L 279.36 4.8 
L 8.64 4.8 
L 8.64 108 
z
" style="fill: none"/>
   </g>
   <g id="matplotlib.axis_1"/>
   <g id="matplotlib.axis_2"/>
   <g id="line2d_1">
    <path d="M 8.64 87.36 
L 279.36 87.36 
" clip-path="url(#pd36793bf21)" style="fill: none; stroke: #b2b2b2; stroke-opacity: 0.35; stroke-width: 0.5; stroke-linecap: square"/>
   </g>
   <g id="line2d_2">
    <path d="M 8.64 66.72 
L 279.36 66.72 
" clip-path="url(#pd36793bf21)" style="fill: none; stroke: #b2b2b2; stroke-opacity: 0.35; stroke-width: 0.5; stroke-linecap: square"/>
   </g>
   <g id="line2d_3">
    <path d="M 8.64 46.08 
L 279.36 46.08 
" clip-path="url(#pd36793bf21)" style="fill: none; stroke: #b2b2b2; stroke-opacity: 0.35; stroke-width: 0.5; stroke-linecap: square"/>
   </g>
   <g id="line2d_4">
    <path d="M 8.64 25.44 
L 279.36 25.44 
" clip-path="url(#pd36793bf21)" style="fill: none; stroke: #b2b2b2; stroke-opacity: 0.35; stroke-width: 0.5; stroke-linecap: square"/>
   </g>
   <g id="line2d_5">
    <path d="M 8.64 100.01232 
L 17.849378 100.43544 
L 27.317124 100.75536 
L 36.736177 101.02368 
L 45.997812 101.02368 
L 55.359641 101.17848 
L 64.741229 100.7244 
L 73.998221 100.75536 
L 83.19853 101.11656 
L 92.674698 100.91016 
L 102.125925 100.89984 
L 111.313062 101.1372 
L 120.737297 101.2404 
L 130.035965 101.6532 
L 139.371342 101.4984 
L 148.565281 101.48808 
L 158.084204 101.32296 
L 167.550655 101.51904 
L 176.787349 101.7048 
L 186.220761 102.54072 
L 195.51727 103.08768 
L 204.692098 103.36632 
L 213.877183 104.22288 
L 223.406148 103.85136 
L 232.775859 103.68624 
L 241.926286 103.43856 
L 251.351493 103.81008 
L 260.7347 103.72752 
L 270.099769 103.50048 
L 279.36 103.5108 
" clip-path="url(#pd36793bf21)" style="fill: none; stroke: #bebebe; stroke-width: 0.5; stroke-linecap: round"/>
   </g>
   <g id="line2d_6">
    <path d="M 8.64 85.92552 
L 17.849378 86.55504 
L 27.317124 87.13296 
L 36.736177 88.10304 
L 45.997812 87.9276 
L 55.359641 88.26816 
L 64.741229 87.78312 
L 73.998221 87.95856 
L 83.19853 88.94928 
L 92.674698 88.14432 
L 102.125925 88.33008 
L 111.313062 88.52616 
L 120.737297 88.86672 
L 130.035965 90.22896 
L 139.371342 89.82648 
L 148.565281 89.87808 
L 158.084204 89.46528 
L 167.550655 90.0432 
L 176.787349 89.96064 
L 186.220761 91.99368 
L 195.51727 93.05664 
L 204.692098 93.74808 
L 213.877183 97.02984 
L 223.406148 95.93592 
L 232.775859 95.07936 
L 241.926286 94.46016 
L 251.351493 95.47152 
L 260.7347 95.11032 
L 270.099769 94.82136 
L 279.36 94.8936 
" clip-path="url(#pd36793bf21)" style="fill: none; stroke: #4a8dff; stroke-width: 0.6"/>
   </g>
   <g id="line2d_7">
    <path d="M 8.64 92.85024 
L 17.849378 94.82136 
L 27.317124 95.75016 
L 36.736177 96.97824 
L 45.997812 97.08144 
L 55.359641 97.23624 
L 64.741229 95.94624 
L 73.998221 96.30744 
L 83.19853 98.08248 
L 92.674698 97.2672 
L 102.125925 96.61704 
L 111.313062 97.23624 
L 120.737297 98.08248 
L 130.035965 99.18672 
L 139.371342 99.03192 
L 148.565281 99.1248 
L 158.084204 98.74296 
L 167.550655 99.09384 
L 176.787349 100.0536 
L 186.220761 101.23008 
L 195.51727 101.99376 
L 204.692098 102.08664 
L 213.877183 102.8916 
L 223.406148 102.45816 
L 232.775859 102.28272 
L 241.926286 102.10728 
L 251.351493 102.582 
L 260.7347 102.29304 
L 270.099769 102.08664 
L 279.36 102.066 
" clip-path="url(#pd36793bf21)" style="fill: none; stroke: #f5841e; stroke-width: 0.6"/>
   </g>
  </g>
 </g>
 <defs>
  <clipPath id="pd36793bf21">
   <rect x="8.64" y="4.8" width="270.72" height="103.2"/>
  </clipPath>
 </defs>
</svg>
