<?xml version="1.0" encoding="utf-8" standalone="no"?>
<!DOCTYPE svg PUBLIC "-//W3C//DTD SVG 1.1//EN"
  "http://www.w3.org/Graphics/SVG/1.1/DTD/svg11.dtd">
<svg xmlns:xlink="http://www.w3.org/1999/xlink" width="288pt" height="120pt" viewBox="0 0 288 120" xmlns="http://www.w3.org/2000/svg" version="1.1">
<desc id="nav-meta">{"window":"3m","count":4,"labels":["18.04","18.05","16.06","16.07"],"tick_utc":["2026-04-18T03:39:51Z","2026-05-18T04:56:25Z","2026-06-16T06:15:52Z","2026-07-16T03:51:26Z"],"w":720,"h":300}</desc>

 <metadata>
  <rdf:RDF xmlns:dc="http://purl.org/dc/elements/1.1/" xmlns:cc="http://creativecommons.org/ns#" xmlns:rdf="http://www.w3.org/1999/02/22-rdf-syntax-ns#">
   <cc:Work>
    <dc:type rdf:resource="http://purl.org/dc/dcmitype/StillImage"/>
    <dc:date>2026-07-16T14:36:23.709846</dc:date>
    <dc:format>image/svg+xml</dc:format>
    <dc:creator>
     <cc:Agent>
      <dc:title>Matplotlib v3.11.0, https://matplotlib.org/</dc:title>
     </cc:Agent>
    </dc:creator>
   </cc:Work>
  </rdf:RDF>
 </metadata>
 <defs>
  <style type="text/css">*{stroke-linejoin: round; stroke-linecap: butt}</style>
 </defs>
 <g id="figure_1">
  <g id="patch_1">
   <path d="M 0 120 
L 288 120 
L 288 0 
L 0 0 
L 0 120 
z
" style="fill: none; opacity: 0"/>
  </g>
  <g id="axes_1">
   <g id="patch_2">
    <path d="M 8.64 108 
L 279.36 108 
L 279.36 4.8 
L 8.64 4.8 
L 8.64 108 
z
" style="fill: none"/>
   </g>
   <g id="matplotlib.axis_1"/>
   <g id="matplotlib.axis_2"/>
   <g id="line2d_1">
    <path d="M 8.64 87.36 
L 279.36 87.36 
" clip-path="url(#p17f84f3a12)" style="fill: none; stroke: #b2b2b2; stroke-opacity: 0.35; stroke-width: 0.5; stroke-linecap: square"/>
   </g>
   <g id="line2d_2">
    <path d="M 8.64 66.72 
L 279.36 66.72 
" clip-path="url(#p17f84f3a12)" style="fill: none; stroke: #b2b2b2; stroke-opacity: 0.35; stroke-width: 0.5; stroke-linecap: square"/>
   </g>
   <g id="line2d_3">
    <path d="M 8.64 46.08 
L 279.36 46.08 
" clip-path="url(#p17f84f3a12)" style="fill: none; stroke: #b2b2b2; stroke-opacity: 0.35; stroke-width: 0.5; stroke-linecap: square"/>
   </g>
   <g id="line2d_4">
    <path d="M 8.64 25.44 
L 279.36 25.44 
" clip-path="url(#p17f84f3a12)" style="fill: none; stroke: #b2b2b2; stroke-opacity: 0.35; stroke-width: 0.5; stroke-linecap: square"/>
   </g>
   <g id="line2d_5">
    <path d="M 8.64 100.44576 
L 11.721689 100.94112 
L 14.770746 101.09592 
L 17.798927 101.00304 
L 20.831015 100.69344 
L 23.884859 100.9308 
L 26.934443 100.92048 
L 29.939672 100.81728 
L 33.028507 100.8792 
L 36.102804 100.64184 
L 39.150699 101.1888 
L 42.183914 101.09592 
L 45.230541 101.37456 
L 48.305295 101.21976 
L 51.269196 101.20944 
L 54.372464 101.23008 
L 57.412931 100.92048 
L 60.387463 101.06496 
L 63.482565 100.70376 
L 66.524897 100.55928 
L 69.515798 100.53864 
L 72.568445 99.60984 
L 75.671256 99.72336 
L 78.736787 99.44472 
L 81.736067 99.25896 
L 84.792058 99.32088 
L 87.830201 100.22904 
L 90.886721 100.01232 
L 93.889415 100.43544 
L 96.976349 100.75536 
L 100.047407 101.02368 
L 103.06714 101.02368 
L 106.11954 101.17848 
L 109.178383 100.7244 
L 112.196601 100.75536 
L 115.196339 101.11656 
L 118.286019 100.91016 
L 121.367567 100.89984 
L 124.36301 101.1372 
L 127.435757 101.2404 
L 130.467564 101.6532 
L 133.51134 101.4984 
L 136.509 101.48808 
L 139.612621 101.32296 
L 142.699133 101.51904 
L 145.710733 101.7048 
L 148.786473 102.54072 
L 151.817576 103.08768 
L 154.809005 103.36632 
L 157.803779 104.22288 
L 160.910673 103.85136 
L 163.965644 103.68624 
L 166.949117 103.43856 
L 170.022182 103.81008 
L 173.081552 103.72752 
L 176.135009 103.50048 
L 179.154284 103.5108 
L 182.217879 103.31472 
L 185.360504 102.95352 
L 188.419382 102.61296 
L 191.364027 102.6336 
L 194.390976 102.9948 
L 197.504136 103.28376 
L 200.424033 103.01544 
L 203.528851 102.69552 
L 206.659402 102.582 
L 209.519102 102.88128 
L 212.571502 103.15992 
L 215.612216 103.36632 
L 218.669333 103.36632 
L 221.673576 102.81936 
L 224.773078 103.0464 
L 227.836603 102.9432 
L 230.819161 102.59232 
L 233.90518 102.40656 
L 236.893441 102.02472 
L 239.901873 101.68416 
L 242.930301 101.3436 
L 246.016355 101.6532 
L 249.087343 101.6532 
L 252.083243 101.63256 
L 255.04211 101.95248 
L 258.175829 102.08664 
L 261.210487 101.9112 
L 264.162207 102.066 
L 267.249212 102.18984 
L 270.297388 102.31368 
L 273.268576 102.45816 
L 276.310873 102.08664 
L 279.36 102.21048 
" clip-path="url(#p17f84f3a12)" style="fill: none; stroke: #bebebe; stroke-width: 0.5; stroke-linecap: round"/>
   </g>
   <g id="line2d_6">
    <path d="M 8.64 83.71704 
L 11.721689 84.86256 
L 14.770746 85.6572 
L 17.798927 85.27536 
L 20.831015 84.49104 
L 23.884859 84.86256 
L 26.934443 85.32696 
L 29.939672 85.17216 
L 33.028507 85.31664 
L 36.102804 84.11952 
L 39.150699 85.66752 
L 42.183914 85.26504 
L 45.230541 86.26608 
L 48.305295 85.77072 
L 51.269196 85.38888 
L 54.372464 85.3992 
L 57.412931 84.09888 
L 60.387463 84.22272 
L 63.482565 84.34656 
L 66.524897 85.06896 
L 69.515798 85.7604 
L 72.568445 85.0896 
L 75.671256 85.01736 
L 78.736787 84.9348 
L 81.736067 85.296 
L 84.792058 85.35792 
L 87.830201 86.1732 
L 90.886721 85.92552 
L 93.889415 86.55504 
L 96.976349 87.13296 
L 100.047407 88.10304 
L 103.06714 87.9276 
L 106.11954 88.26816 
L 109.178383 87.78312 
L 112.196601 87.95856 
L 115.196339 88.94928 
L 118.286019 88.14432 
L 121.367567 88.33008 
L 124.36301 88.52616 
L 127.435757 88.86672 
L 130.467564 90.22896 
L 133.51134 89.82648 
L 136.509 89.87808 
L 139.612621 89.46528 
L 142.699133 90.0432 
L 145.710733 89.96064 
L 148.786473 91.99368 
L 151.817576 93.05664 
L 154.809005 93.74808 
L 157.803779 97.02984 
L 160.910673 95.93592 
L 163.965644 95.07936 
L 166.949117 94.46016 
L 170.022182 95.47152 
L 173.081552 95.11032 
L 176.135009 94.82136 
L 179.154284 94.8936 
L 182.217879 94.70784 
L 185.360504 94.04736 
L 188.419382 93.40752 
L 191.364027 92.9844 
L 194.390976 93.93384 
L 197.504136 94.4292 
L 200.424033 94.19184 
L 203.528851 93.87192 
L 206.659402 93.81 
L 209.519102 94.03704 
L 212.571502 94.83168 
L 215.612216 95.48184 
L 218.669333 96.63768 
L 221.673576 96.14232 
L 224.773078 96.30744 
L 227.836603 96.29712 
L 230.819161 96.04944 
L 233.90518 95.9256 
L 236.893441 95.39928 
L 239.901873 94.31568 
L 242.930301 93.57264 
L 246.016355 93.32496 
L 249.087343 93.22176 
L 252.083243 93.35592 
L 255.04211 93.61392 
L 258.175829 93.77904 
L 261.210487 93.26304 
L 264.162207 92.92248 
L 267.249212 92.71608 
L 270.297388 93.15984 
L 273.268576 93.17016 
L 276.310873 91.80792 
L 279.36 91.14744 
" clip-path="url(#p17f84f3a12)" style="fill: none; stroke: #4a8dff; stroke-width: 0.6"/>
   </g>
   <g id="line2d_7">
    <path d="M 8.64 96.70992 
L 11.721689 98.05152 
L 14.770746 98.48496 
L 17.798927 97.96896 
L 20.831015 96.32808 
L 23.884859 96.20424 
L 26.934443 96.16296 
L 29.939672 96.1836 
L 33.028507 96.50352 
L 36.102804 94.76976 
L 39.150699 97.19496 
L 42.183914 96.9576 
L 45.230541 97.9896 
L 48.305295 96.89568 
L 51.269196 95.45088 
L 54.372464 95.67792 
L 57.412931 93.43848 
L 60.387463 92.90184 
L 63.482565 92.25168 
L 66.524897 92.87088 
L 69.515798 94.2744 
L 72.568445 93.1392 
L 75.671256 92.97408 
L 78.736787 92.9844 
L 81.736067 92.60256 
L 84.792058 92.53032 
L 87.830201 94.54272 
L 90.886721 92.85024 
L 93.889415 94.82136 
L 96.976349 95.75016 
L 100.047407 96.97824 
L 103.06714 97.08144 
L 106.11954 97.23624 
L 109.178383 95.94624 
L 112.196601 96.30744 
L 115.196339 98.08248 
L 118.286019 97.2672 
L 121.367567 96.61704 
L 124.36301 97.23624 
L 127.435757 98.08248 
L 130.467564 99.18672 
L 133.51134 99.03192 
L 136.509 99.1248 
L 139.612621 98.74296 
L 142.699133 99.09384 
L 145.710733 100.0536 
L 148.786473 101.23008 
L 151.817576 101.99376 
L 154.809005 102.08664 
L 157.803779 102.8916 
L 160.910673 102.45816 
L 163.965644 102.28272 
L 166.949117 102.10728 
L 170.022182 102.582 
L 173.081552 102.29304 
L 176.135009 102.08664 
L 179.154284 102.066 
L 182.217879 101.86992 
L 185.360504 101.48808 
L 188.419382 101.40552 
L 191.364027 101.4984 
L 194.390976 101.97312 
L 197.504136 102.26208 
L 200.424033 102.066 
L 203.528851 101.90088 
L 206.659402 101.90088 
L 209.519102 102.0144 
L 212.571502 102.25176 
L 215.612216 102.6336 
L 218.669333 102.88128 
L 221.673576 102.77808 
L 224.773078 102.85032 
L 227.836603 102.93288 
L 230.819161 102.95352 
L 233.90518 103.00512 
L 236.893441 102.69552 
L 239.901873 102.55104 
L 242.930301 102.2724 
L 246.016355 102.21048 
L 249.087343 102.12792 
L 252.083243 102.13824 
L 255.04211 102.25176 
L 258.175829 102.36528 
L 261.210487 101.94216 
L 264.162207 101.92152 
L 267.249212 101.9112 
L 270.297388 102.2208 
L 273.268576 102.31368 
L 276.310873 101.79768 
L 279.36 101.81832 
" clip-path="url(#p17f84f3a12)" style="fill: none; stroke: #f5841e; stroke-width: 0.6"/>
   </g>
  </g>
 </g>
 <defs>
  <clipPath id="p17f84f3a12">
   <rect x="8.64" y="4.8" width="270.72" height="103.2"/>
  </clipPath>
 </defs>
</svg>
