<?xml version="1.0" encoding="utf-8" standalone="no"?>
<!DOCTYPE svg PUBLIC "-//W3C//DTD SVG 1.1//EN"
  "http://www.w3.org/Graphics/SVG/1.1/DTD/svg11.dtd">
<svg xmlns:xlink="http://www.w3.org/1999/xlink" width="288pt" height="120pt" viewBox="0 0 288 120" xmlns="http://www.w3.org/2000/svg" version="1.1">
<desc id="nav-meta">{"window":"6m","count":4,"labels":["22.09","21.11","20.01","21.03"],"tick_utc":["2025-09-22T12:00:00Z","2025-11-21T12:00:00Z","2026-01-20T12:00:00Z","2026-03-21T03:10:23Z"],"w":720,"h":300}</desc>

 <metadata>
  <rdf:RDF xmlns:dc="http://purl.org/dc/elements/1.1/" xmlns:cc="http://creativecommons.org/ns#" xmlns:rdf="http://www.w3.org/1999/02/22-rdf-syntax-ns#">
   <cc:Work>
    <dc:type rdf:resource="http://purl.org/dc/dcmitype/StillImage"/>
    <dc:date>2026-03-21T07:21:10.991268</dc:date>
    <dc:format>image/svg+xml</dc:format>
    <dc:creator>
     <cc:Agent>
      <dc:title>Matplotlib v3.10.8, https://matplotlib.org/</dc:title>
     </cc:Agent>
    </dc:creator>
   </cc:Work>
  </rdf:RDF>
 </metadata>
 <defs>
  <style type="text/css">*{stroke-linejoin: round; stroke-linecap: butt}</style>
 </defs>
 <g id="figure_1">
  <g id="patch_1">
   <path d="M 0 120 
L 288 120 
L 288 0 
L 0 0 
L 0 120 
z
" style="fill: none; opacity: 0"/>
  </g>
  <g id="axes_1">
   <g id="patch_2">
    <path d="M 8.64 108 
L 279.36 108 
L 279.36 4.8 
L 8.64 4.8 
L 8.64 108 
z
" style="fill: none"/>
   </g>
   <g id="matplotlib.axis_1"/>
   <g id="matplotlib.axis_2"/>
   <g id="line2d_1">
    <path d="M 8.64 87.36 
L 279.36 87.36 
" clip-path="url(#pb6e756d648)" style="fill: none; stroke: #b2b2b2; stroke-opacity: 0.35; stroke-width: 0.5; stroke-linecap: square"/>
   </g>
   <g id="line2d_2">
    <path d="M 8.64 66.72 
L 279.36 66.72 
" clip-path="url(#pb6e756d648)" style="fill: none; stroke: #b2b2b2; stroke-opacity: 0.35; stroke-width: 0.5; stroke-linecap: square"/>
   </g>
   <g id="line2d_3">
    <path d="M 8.64 46.08 
L 279.36 46.08 
" clip-path="url(#pb6e756d648)" style="fill: none; stroke: #b2b2b2; stroke-opacity: 0.35; stroke-width: 0.5; stroke-linecap: square"/>
   </g>
   <g id="line2d_4">
    <path d="M 8.64 25.44 
L 279.36 25.44 
" clip-path="url(#pb6e756d648)" style="fill: none; stroke: #b2b2b2; stroke-opacity: 0.35; stroke-width: 0.5; stroke-linecap: square"/>
   </g>
   <g id="line2d_5">
    <path d="M 8.64 61.83864 
L 10.147079 66.29688 
L 11.654159 67.97904 
L 13.161238 68.69112 
L 14.668318 73.9956 
L 16.175397 70.45584 
L 17.682476 70.87896 
L 19.189556 68.91816 
L 20.696635 68.3196 
L 22.203714 69.47544 
L 25.217873 62.39592 
L 26.724953 62.81904 
L 28.232032 64.22256 
L 29.739111 64.05744 
L 31.246191 62.9532 
L 32.75327 66.14208 
L 34.260349 63.91296 
L 35.767429 66.17304 
L 37.274508 74.6148 
L 38.781588 77.78304 
L 40.288667 72.66432 
L 41.795746 69.69216 
L 43.302826 71.09568 
L 46.316984 76.06992 
L 47.824064 76.76136 
L 49.331143 75.25464 
L 50.838223 75.24432 
L 52.345302 74.63544 
L 53.852381 75.73968 
L 55.359461 77.31864 
L 56.86654 74.202 
L 58.373619 73.64472 
L 59.880699 73.48992 
L 61.387778 71.83872 
L 62.894858 72.17928 
L 64.401937 73.38672 
L 65.909016 73.43832 
L 67.416096 76.15248 
L 68.923175 75.3372 
L 70.430254 75.58488 
L 71.937334 75.35784 
L 73.444413 81.168 
L 74.951493 84.01632 
L 76.458572 82.06584 
L 77.965651 84.19176 
L 79.472731 82.27224 
L 80.97981 83.29392 
L 82.486889 81.62208 
L 83.993969 80.72424 
L 85.501048 84.33624 
L 87.008128 84.64584 
L 88.515207 86.844 
L 90.022286 88.52616 
L 91.529366 88.36104 
L 93.036445 88.93896 
L 94.543524 90.79656 
L 96.050604 88.09272 
L 97.557683 89.22792 
L 99.064763 90.00192 
L 100.571842 91.39512 
L 102.078921 91.63248 
L 103.586001 90.75528 
L 105.09308 88.7016 
L 106.600159 88.52616 
L 108.107239 87.45288 
L 109.614318 88.0308 
L 111.121398 88.94928 
L 114.135556 89.7336 
L 115.642636 91.86984 
L 117.149715 88.60872 
L 118.656794 86.87496 
L 121.670953 90.11544 
L 123.178033 90.38376 
L 124.685112 90.53856 
L 126.192191 90.08448 
L 127.699271 88.79448 
L 129.20635 89.20728 
L 130.713429 89.22792 
L 132.220509 90.31152 
L 133.727588 90.10512 
L 135.234668 91.09584 
L 136.741747 91.61184 
L 138.248826 91.31256 
L 139.755906 92.87088 
L 141.262985 93.8616 
L 142.770064 92.02464 
L 144.277144 92.13816 
L 145.784223 92.07624 
L 147.291303 92.14848 
L 148.798382 92.64384 
L 150.305461 93.01536 
L 151.812541 93.69648 
L 154.8267 92.44776 
L 156.333779 92.30328 
L 157.840858 92.87088 
L 159.347938 92.38584 
L 160.855017 92.47872 
L 162.362096 91.88016 
L 163.869176 90.42504 
L 165.376255 90.08448 
L 166.883335 89.92968 
L 168.390414 88.76352 
L 169.897493 87.94824 
L 171.404573 89.2692 
L 172.911652 88.72224 
L 174.418731 89.39304 
L 175.925811 89.40336 
L 177.43289 88.41264 
L 178.93997 88.4952 
L 180.447049 86.86464 
L 181.954128 86.42088 
L 183.461208 87.62832 
L 184.968287 86.93688 
L 186.475366 87.23616 
L 189.489525 90.0432 
L 190.996605 92.12784 
L 192.503684 91.16808 
L 195.517843 91.73568 
L 197.024922 91.78728 
L 198.532001 94.0164 
L 200.039081 92.5716 
L 201.54616 91.76664 
L 203.05324 92.33424 
L 204.560319 94.36728 
L 206.067398 94.46016 
L 207.574478 97.71096 
L 209.081557 98.48496 
L 210.588636 97.85544 
L 213.058607 100.16712 
L 214.564919 102.23112 
L 216.065544 100.54896 
L 217.607074 100.70376 
L 219.101716 100.68312 
L 222.121352 101.28168 
L 223.623007 101.71512 
L 225.129632 101.84928 
L 226.618589 101.034 
L 228.046145 100.54896 
L 229.649894 101.04432 
L 230.967664 100.81728 
L 232.661663 101.034 
L 234.166911 101.4984 
L 238.687346 101.06496 
L 240.198961 102.09696 
L 241.578724 102.05568 
L 243.207695 101.4984 
L 244.708059 100.60056 
L 246.212278 100.80696 
L 247.7016 101.45712 
L 249.24292 100.55928 
L 250.73444 101.10624 
L 253.743663 100.74504 
L 255.253986 100.21872 
L 256.76035 100.53864 
L 258.255865 101.07528 
L 259.777579 101.38488 
L 261.289176 101.26104 
L 262.786575 100.78632 
L 265.806071 100.99272 
L 267.310238 100.38384 
L 270.351224 100.60056 
L 271.862559 99.76464 
L 273.343265 99.49632 
L 274.861839 99.40344 
L 276.369337 100.09488 
L 277.861747 100.3632 
L 279.36 100.19808 
L 279.36 100.19808 
" clip-path="url(#pb6e756d648)" style="fill: none; stroke: #bebebe; stroke-width: 0.5; stroke-linecap: round"/>
   </g>
   <g id="line2d_6">
    <path d="M 8.64 53.5104 
L 10.147079 57.26688 
L 11.654159 57.76224 
L 13.161238 58.02024 
L 14.668318 62.26176 
L 16.175397 59.68176 
L 17.682476 59.9604 
L 19.189556 58.12344 
L 20.696635 57.02952 
L 22.203714 58.09248 
L 23.710794 55.13064 
L 25.217873 53.046 
L 26.724953 52.5816 
L 28.232032 52.9944 
L 29.739111 52.5816 
L 31.246191 50.0016 
L 32.75327 53.48976 
L 34.260349 52.40616 
L 35.767429 54.75912 
L 37.274508 62.67456 
L 38.781588 63.95424 
L 40.288667 57.86544 
L 41.795746 56.57544 
L 43.302826 58.31952 
L 44.809905 60.4764 
L 46.316984 61.85928 
L 47.824064 62.73648 
L 49.331143 61.8696 
L 50.838223 60.45576 
L 52.345302 60.54864 
L 53.852381 62.04504 
L 55.359461 63.16992 
L 56.86654 62.36496 
L 58.373619 61.21944 
L 59.880699 60.9408 
L 61.387778 57.83448 
L 62.894858 58.40208 
L 64.401937 60.49704 
L 67.416096 63.1596 
L 68.923175 62.49912 
L 70.430254 62.1276 
L 71.937334 61.56 
L 74.951493 70.66224 
L 76.458572 68.72208 
L 77.965651 70.4868 
L 79.472731 68.61888 
L 80.97981 69.11424 
L 82.486889 66.5136 
L 83.993969 66.68904 
L 85.501048 68.8872 
L 87.008128 68.9904 
L 88.515207 71.5704 
L 90.022286 73.48992 
L 91.529366 72.54048 
L 93.036445 73.56216 
L 94.543524 74.74896 
L 96.050604 73.3248 
L 97.557683 74.80056 
L 99.064763 77.556 
L 100.571842 78.55704 
L 102.078921 78.50544 
L 103.586001 78.04104 
L 105.09308 75.76032 
L 106.600159 75.73968 
L 108.107239 74.65608 
L 109.614318 74.83152 
L 111.121398 74.57352 
L 112.628477 75.20304 
L 114.135556 75.17208 
L 115.642636 78.05136 
L 118.656794 72.16896 
L 120.163874 73.08744 
L 121.670953 74.72832 
L 124.685112 74.28456 
L 126.192191 73.21128 
L 127.699271 70.2804 
L 129.20635 70.2288 
L 130.713429 71.56008 
L 132.220509 73.79952 
L 133.727588 73.35576 
L 135.234668 74.0988 
L 136.741747 75.5952 
L 138.248826 75.5952 
L 139.755906 77.61792 
L 141.262985 77.63856 
L 142.770064 75.40944 
L 144.277144 75.40944 
L 145.784223 75.04824 
L 147.291303 74.98632 
L 148.798382 75.58488 
L 150.305461 75.87384 
L 151.812541 76.49304 
L 154.8267 75.82224 
L 156.333779 75.84288 
L 157.840858 76.03896 
L 159.347938 75.51264 
L 160.855017 75.56424 
L 162.362096 75.05856 
L 163.869176 73.26288 
L 165.376255 73.20096 
L 166.883335 73.00488 
L 168.390414 71.68392 
L 169.897493 70.6932 
L 171.404573 72.62304 
L 172.911652 73.52088 
L 174.418731 73.83048 
L 175.925811 73.8408 
L 177.43289 73.29384 
L 178.93997 73.72728 
L 180.447049 70.32168 
L 181.954128 69.77472 
L 183.461208 70.34232 
L 184.968287 70.67256 
L 186.475366 70.51776 
L 187.982446 70.848 
L 189.489525 72.31344 
L 190.996605 76.01832 
L 192.503684 75.41976 
L 194.010763 75.83256 
L 197.024922 75.82224 
L 198.532001 77.82432 
L 200.039081 76.14216 
L 201.54616 74.75928 
L 203.05324 74.96568 
L 204.560319 77.75208 
L 206.067398 79.48584 
L 207.574478 83.31456 
L 209.081557 85.90488 
L 210.588636 84.79032 
L 211.86095 85.84296 
L 214.564919 91.41576 
L 216.065544 88.7532 
L 219.101716 88.55712 
L 220.617395 88.96992 
L 223.623007 90.456 
L 225.129632 90.56952 
L 226.618589 89.15568 
L 228.046145 88.9596 
L 229.649894 90.6624 
L 230.967664 89.94 
L 232.661663 90.00192 
L 235.665181 90.62112 
L 238.687346 90.3528 
L 240.198961 92.004 
L 241.578724 92.13816 
L 243.207695 91.25064 
L 244.708059 89.166 
L 246.212278 89.56848 
L 247.7016 90.93072 
L 249.24292 89.41368 
L 250.73444 90.37344 
L 252.245026 89.79552 
L 253.743663 90.23928 
L 255.253986 88.0824 
L 256.76035 88.7532 
L 258.255865 90.16704 
L 259.777579 90.67272 
L 261.289176 90.18768 
L 262.786575 89.2692 
L 264.293061 89.54784 
L 265.806071 89.49624 
L 267.310238 88.31976 
L 268.815311 88.45392 
L 270.351224 88.46424 
L 271.862559 86.38992 
L 273.343265 84.80064 
L 274.861839 84.8316 
L 276.369337 86.586 
L 277.861747 87.74184 
L 279.36 87.618 
L 279.36 87.618 
" clip-path="url(#pb6e756d648)" style="fill: none; stroke: #4a8dff; stroke-width: 0.6"/>
   </g>
   <g id="line2d_7">
    <path d="M 8.64 57.24624 
L 10.147079 59.93976 
L 11.654159 60.64152 
L 13.161238 59.29992 
L 14.668318 63.80976 
L 16.175397 63.03576 
L 17.682476 63.09768 
L 19.189556 60.51768 
L 20.696635 58.27824 
L 22.203714 58.5672 
L 23.710794 53.93352 
L 25.217873 51.74568 
L 26.724953 50.04288 
L 28.232032 49.90872 
L 29.739111 48.74256 
L 31.246191 47.43192 
L 32.75327 50.80656 
L 34.260349 48.90768 
L 35.767429 50.6208 
L 37.274508 59.42376 
L 38.781588 61.85928 
L 40.288667 57.35976 
L 41.795746 57.3288 
L 43.302826 59.46504 
L 46.316984 64.72824 
L 47.824064 66.42072 
L 49.331143 65.688 
L 50.838223 64.17096 
L 52.345302 62.10696 
L 53.852381 64.30512 
L 55.359461 65.20296 
L 56.86654 62.68488 
L 58.373619 61.70448 
L 59.880699 61.06464 
L 61.387778 58.1028 
L 62.894858 58.40208 
L 64.401937 59.68176 
L 65.909016 62.6952 
L 67.416096 64.56312 
L 68.923175 63.18024 
L 70.430254 62.72616 
L 71.937334 62.06568 
L 73.444413 66.33816 
L 74.951493 71.40528 
L 76.458572 69.08328 
L 77.965651 71.7252 
L 79.472731 69.57864 
L 80.97981 70.72416 
L 82.486889 68.2164 
L 83.993969 66.978 
L 85.501048 70.03272 
L 87.008128 71.5188 
L 88.515207 73.3764 
L 90.022286 78.846 
L 91.529366 77.75208 
L 93.036445 78.88728 
L 94.543524 81.34344 
L 96.050604 80.53848 
L 97.557683 82.0452 
L 99.064763 86.92656 
L 100.571842 88.58808 
L 102.078921 88.96992 
L 103.586001 86.7924 
L 105.09308 85.296 
L 106.600159 86.24544 
L 108.107239 82.96368 
L 109.614318 82.13808 
L 111.121398 82.47864 
L 112.628477 82.58184 
L 114.135556 83.03592 
L 115.642636 87.3084 
L 117.149715 82.06584 
L 118.656794 79.71288 
L 120.163874 81.24024 
L 121.670953 84.17112 
L 123.178033 84.24336 
L 124.685112 83.29392 
L 126.192191 82.8192 
L 127.699271 80.64168 
L 129.20635 81.38472 
L 130.713429 80.87904 
L 132.220509 83.13912 
L 133.727588 83.19072 
L 135.234668 85.296 
L 136.741747 87.17424 
L 138.248826 85.71912 
L 139.755906 87.53544 
L 141.262985 88.17528 
L 142.770064 85.41984 
L 145.784223 84.9348 
L 147.291303 85.01736 
L 148.798382 86.14224 
L 150.305461 85.90488 
L 151.812541 86.328 
L 153.31962 86.24544 
L 154.8267 85.72944 
L 156.333779 85.7088 
L 157.840858 86.40024 
L 159.347938 85.09992 
L 160.855017 86.02872 
L 163.869176 83.53128 
L 166.883335 82.03488 
L 168.390414 79.39296 
L 169.897493 79.66128 
L 171.404573 82.15872 
L 172.911652 82.43736 
L 174.418731 82.93272 
L 175.925811 83.00496 
L 178.93997 82.28256 
L 180.447049 78.01008 
L 181.954128 76.19376 
L 183.461208 77.66952 
L 184.968287 77.74176 
L 186.475366 78.1752 
L 187.982446 79.5684 
L 189.489525 80.8068 
L 190.996605 85.20312 
L 192.503684 84.12984 
L 194.010763 84.03696 
L 195.517843 84.06792 
L 197.024922 84.3156 
L 198.532001 87.02976 
L 200.039081 85.21344 
L 201.54616 84.28464 
L 203.05324 84.32592 
L 204.560319 89.08344 
L 206.067398 89.5272 
L 207.574478 95.14128 
L 209.081557 96.98856 
L 210.588636 95.08968 
L 211.86095 97.71096 
L 213.058607 99.80592 
L 214.564919 101.79768 
L 216.065544 100.03296 
L 217.607074 100.518 
L 219.101716 99.98136 
L 220.617395 100.49736 
L 225.129632 101.26104 
L 226.618589 100.63152 
L 228.046145 100.38384 
L 229.649894 100.84824 
L 230.967664 100.65216 
L 232.661663 101.034 
L 234.166911 101.19912 
L 238.687346 100.91016 
L 240.198961 101.7564 
L 241.578724 101.84928 
L 243.207695 101.56032 
L 244.708059 100.85856 
L 247.7016 101.4468 
L 249.24292 101.02368 
L 250.73444 101.30232 
L 252.245026 100.81728 
L 253.743663 100.79664 
L 255.253986 99.3312 
L 256.76035 99.92976 
L 258.255865 100.78632 
L 259.777579 101.17848 
L 261.289176 101.1372 
L 262.786575 100.21872 
L 265.806071 100.4664 
L 267.310238 99.88848 
L 268.815311 99.94008 
L 270.351224 99.81624 
L 271.862559 98.93904 
L 273.343265 98.3508 
L 274.861839 98.52624 
L 276.369337 99.78528 
L 277.861747 100.12584 
L 279.36 100.03296 
L 279.36 100.03296 
" clip-path="url(#pb6e756d648)" style="fill: none; stroke: #f5841e; stroke-width: 0.6"/>
   </g>
  </g>
 </g>
 <defs>
  <clipPath id="pb6e756d648">
   <rect x="8.64" y="4.8" width="270.72" height="103.2"/>
  </clipPath>
 </defs>
</svg>
