<?xml version="1.0" encoding="utf-8" standalone="no"?>
<!DOCTYPE svg PUBLIC "-//W3C//DTD SVG 1.1//EN"
  "http://www.w3.org/Graphics/SVG/1.1/DTD/svg11.dtd">
<svg xmlns:xlink="http://www.w3.org/1999/xlink" width="288pt" height="120pt" viewBox="0 0 288 120" xmlns="http://www.w3.org/2000/svg" version="1.1">
<desc id="nav-meta">{"window":"1y","count":4,"labels":["06.06","06.10","04.02","06.06"],"tick_utc":["2025-06-06T12:00:00Z","2025-10-06T12:00:00Z","2026-02-04T08:15:41Z","2026-06-06T04:41:00Z"],"w":720,"h":300}</desc>

 <metadata>
  <rdf:RDF xmlns:dc="http://purl.org/dc/elements/1.1/" xmlns:cc="http://creativecommons.org/ns#" xmlns:rdf="http://www.w3.org/1999/02/22-rdf-syntax-ns#">
   <cc:Work>
    <dc:type rdf:resource="http://purl.org/dc/dcmitype/StillImage"/>
    <dc:date>2026-06-06T09:11:47.109364</dc:date>
    <dc:format>image/svg+xml</dc:format>
    <dc:creator>
     <cc:Agent>
      <dc:title>Matplotlib v3.10.9, https://matplotlib.org/</dc:title>
     </cc:Agent>
    </dc:creator>
   </cc:Work>
  </rdf:RDF>
 </metadata>
 <defs>
  <style type="text/css">*{stroke-linejoin: round; stroke-linecap: butt}</style>
 </defs>
 <g id="figure_1">
  <g id="patch_1">
   <path d="M 0 120 
L 288 120 
L 288 0 
L 0 0 
L 0 120 
z
" style="fill: none; opacity: 0"/>
  </g>
  <g id="axes_1">
   <g id="patch_2">
    <path d="M 8.64 108 
L 279.36 108 
L 279.36 4.8 
L 8.64 4.8 
L 8.64 108 
z
" style="fill: none"/>
   </g>
   <g id="matplotlib.axis_1"/>
   <g id="matplotlib.axis_2"/>
   <g id="line2d_1">
    <path d="M 8.64 87.36 
L 279.36 87.36 
" clip-path="url(#pf567378167)" style="fill: none; stroke: #b2b2b2; stroke-opacity: 0.35; stroke-width: 0.5; stroke-linecap: square"/>
   </g>
   <g id="line2d_2">
    <path d="M 8.64 66.72 
L 279.36 66.72 
" clip-path="url(#pf567378167)" style="fill: none; stroke: #b2b2b2; stroke-opacity: 0.35; stroke-width: 0.5; stroke-linecap: square"/>
   </g>
   <g id="line2d_3">
    <path d="M 8.64 46.08 
L 279.36 46.08 
" clip-path="url(#pf567378167)" style="fill: none; stroke: #b2b2b2; stroke-opacity: 0.35; stroke-width: 0.5; stroke-linecap: square"/>
   </g>
   <g id="line2d_4">
    <path d="M 8.64 25.44 
L 279.36 25.44 
" clip-path="url(#pf567378167)" style="fill: none; stroke: #b2b2b2; stroke-opacity: 0.35; stroke-width: 0.5; stroke-linecap: square"/>
   </g>
   <g id="line2d_5">
    <path d="M 8.64 87.00912 
L 9.382319 85.98744 
L 10.124637 85.5024 
L 10.866956 84.8316 
L 11.609275 82.46832 
L 12.351593 81.426 
L 13.093912 82.5096 
L 13.83623 84.79032 
L 15.320868 86.95752 
L 16.063186 84.79032 
L 16.805505 85.13088 
L 17.547824 86.07 
L 18.290142 86.5344 
L 19.032461 86.31768 
L 20.517098 89.97096 
L 21.259417 90.48696 
L 22.001736 86.9472 
L 22.744054 86.66856 
L 23.486373 87.32904 
L 24.228691 88.53648 
L 24.97101 87.6696 
L 25.713329 85.30632 
L 26.455647 84.61488 
L 27.197966 84.17112 
L 27.940285 86.3796 
L 28.682603 84.92448 
L 29.424922 84.89352 
L 30.167241 86.13192 
L 30.909559 86.1732 
L 31.651878 84.99672 
L 32.394197 85.85328 
L 33.136515 85.01736 
L 33.878834 83.55192 
L 34.621152 81.7356 
L 35.363471 82.03488 
L 36.10579 82.65408 
L 37.590427 82.15872 
L 38.332746 81.70464 
L 39.075064 79.01112 
L 39.817383 78.39192 
L 40.559702 78.04104 
L 41.30202 78.16488 
L 42.044339 77.05032 
L 42.786658 72.82944 
L 43.528976 70.41456 
L 44.271295 74.69736 
L 45.013613 76.6272 
L 45.755932 75.63648 
L 46.498251 75.97704 
L 47.240569 74.976 
L 47.982888 76.49304 
L 48.725207 76.99872 
L 49.467525 77.90688 
L 50.209844 79.4652 
L 50.952163 82.02456 
L 51.694481 83.19072 
L 52.4368 82.27224 
L 53.179118 80.21856 
L 53.921437 81.67368 
L 54.663756 80.5488 
L 55.406074 78.588 
L 56.148393 78.19584 
L 56.890712 77.21544 
L 57.63303 76.524 
L 58.375349 78.68088 
L 59.117668 73.88208 
L 59.859986 71.364 
L 60.602305 73.8408 
L 61.344624 75.79128 
L 62.086942 74.65608 
L 62.829261 74.14008 
L 63.571579 76.50336 
L 64.313898 78.30936 
L 65.056217 75.3372 
L 65.798535 77.25672 
L 66.540854 71.78712 
L 67.283173 70.75512 
L 68.025491 70.24944 
L 68.76781 75.35784 
L 69.510129 72.95328 
L 70.252447 70.96152 
L 70.994766 67.87584 
L 71.737085 70.46616 
L 72.479403 71.11632 
L 73.221722 71.61168 
L 73.96404 72.7056 
L 74.706359 69.33096 
L 75.448678 68.9388 
L 76.190996 71.12664 
L 76.933315 70.90992 
L 77.675634 71.80776 
L 78.417952 70.074 
L 79.160271 68.01 
L 79.90259 67.10184 
L 80.644908 65.29584 
L 81.387227 64.01616 
L 82.129545 60.31128 
L 82.871864 60.19776 
L 83.614183 60.786 
L 84.356501 62.61264 
L 85.09882 61.74576 
L 85.841139 59.57856 
L 86.583457 58.86648 
L 87.325776 61.38456 
L 88.068095 61.07496 
L 88.810413 61.83864 
L 89.552732 66.29688 
L 90.295051 67.97904 
L 91.037369 68.69112 
L 91.779688 73.9956 
L 92.522006 70.45584 
L 93.264325 70.87896 
L 94.006644 68.91816 
L 94.748962 68.3196 
L 95.491281 69.47544 
L 96.975918 62.39592 
L 97.718237 62.81904 
L 98.460556 64.22256 
L 99.202874 64.05744 
L 99.945193 62.9532 
L 100.687512 66.14208 
L 101.42983 63.91296 
L 102.172149 66.17304 
L 102.914467 74.6148 
L 103.656786 77.78304 
L 104.399105 72.66432 
L 105.141423 69.69216 
L 105.883742 71.09568 
L 107.368379 76.06992 
L 108.110698 76.76136 
L 108.853017 75.25464 
L 109.595335 75.24432 
L 110.337654 74.63544 
L 111.079973 75.73968 
L 111.822291 77.31864 
L 112.56461 74.202 
L 113.306928 73.64472 
L 114.049247 73.48992 
L 114.791566 71.83872 
L 115.533884 72.17928 
L 116.276203 73.38672 
L 117.018522 73.43832 
L 117.76084 76.15248 
L 118.503159 75.3372 
L 119.245478 75.58488 
L 119.987796 75.35784 
L 120.730115 81.168 
L 121.472433 84.01632 
L 122.214752 82.06584 
L 122.957071 84.19176 
L 123.699389 82.27224 
L 124.441708 83.29392 
L 125.184027 81.62208 
L 125.926345 80.72424 
L 126.668664 84.33624 
L 127.410983 84.64584 
L 128.153301 86.844 
L 128.89562 88.52616 
L 129.637939 88.36104 
L 130.380257 88.93896 
L 131.122576 90.79656 
L 131.864894 88.09272 
L 132.607213 89.22792 
L 133.349532 90.00192 
L 134.09185 91.39512 
L 134.834169 91.63248 
L 135.576488 90.75528 
L 136.318806 88.7016 
L 137.061125 88.52616 
L 137.803444 87.45288 
L 138.545762 88.0308 
L 139.288081 88.94928 
L 140.772718 89.7336 
L 141.515037 91.86984 
L 142.257355 88.60872 
L 142.999674 86.87496 
L 144.484311 90.11544 
L 145.968949 90.53856 
L 146.711267 90.08448 
L 147.453586 88.79448 
L 148.195905 89.20728 
L 148.938223 89.22792 
L 149.680542 90.31152 
L 150.42286 90.10512 
L 151.165179 91.09584 
L 151.907498 91.61184 
L 152.649816 91.31256 
L 153.392135 92.87088 
L 154.134454 93.8616 
L 154.876772 92.02464 
L 155.619091 92.13816 
L 156.36141 92.07624 
L 157.103728 92.14848 
L 159.330684 93.69648 
L 160.815321 92.44776 
L 161.55764 92.30328 
L 162.299959 92.87088 
L 163.042277 92.38584 
L 163.784596 92.47872 
L 164.526915 91.88016 
L 165.269233 90.42504 
L 166.011552 90.08448 
L 166.753871 89.92968 
L 167.496189 88.76352 
L 168.238508 87.94824 
L 168.980827 89.2692 
L 169.723145 88.72224 
L 170.465464 89.39304 
L 171.207782 89.40336 
L 171.950101 88.41264 
L 172.69242 88.4952 
L 173.434738 86.86464 
L 174.177057 86.42088 
L 174.919376 87.62832 
L 175.661694 86.93688 
L 176.404013 87.23616 
L 177.88865 90.0432 
L 178.630969 92.12784 
L 179.373288 91.16808 
L 180.857925 91.73568 
L 181.600243 91.78728 
L 182.342562 94.0164 
L 183.084881 92.5716 
L 183.827199 91.76664 
L 184.569518 92.33424 
L 185.311837 94.36728 
L 186.054155 94.46016 
L 186.796474 97.71096 
L 187.538793 98.48496 
L 188.281111 97.85544 
L 189.497706 100.16712 
L 190.239647 102.23112 
L 190.978786 100.54896 
L 191.738074 100.70376 
L 192.474266 100.68312 
L 193.961602 101.28168 
L 194.701248 101.71512 
L 195.443343 101.84928 
L 196.176735 101.034 
L 196.879885 100.54896 
L 197.669818 101.04432 
L 198.318892 100.81728 
L 199.153278 101.034 
L 199.894695 101.4984 
L 202.121256 101.06496 
L 202.865808 102.09696 
L 203.545416 102.05568 
L 204.347773 101.4984 
L 205.086784 100.60056 
L 205.827694 100.80696 
L 206.561266 101.45712 
L 207.32045 100.55928 
L 208.055105 101.10624 
L 209.537311 100.74504 
L 210.281228 100.21872 
L 211.023194 100.53864 
L 211.759816 101.07528 
L 212.509343 101.38488 
L 213.253887 101.26104 
L 213.991438 100.78632 
L 215.478704 100.99272 
L 216.219588 100.38384 
L 217.717439 100.60056 
L 218.461854 99.76464 
L 219.191182 99.49632 
L 219.939163 99.40344 
L 220.681687 100.09488 
L 221.416781 100.3632 
L 222.154752 100.19808 
L 223.652234 100.79664 
L 224.387679 100.26 
L 225.185285 99.83688 
L 225.881346 100.13616 
L 227.359823 101.38488 
L 230.343016 101.28168 
L 231.075557 101.8596 
L 231.818727 101.88024 
L 232.554688 101.72544 
L 233.308184 101.68416 
L 234.052418 101.47776 
L 234.789917 101.78736 
L 235.533439 101.09592 
L 236.273171 101.46744 
L 237.02232 101.3436 
L 237.753289 101.05464 
L 238.508925 101.3952 
L 239.25505 101.47776 
L 239.992643 100.86888 
L 240.734395 101.26104 
L 242.954864 100.44576 
L 243.706986 100.94112 
L 244.451143 101.09592 
L 245.190205 101.00304 
L 245.930221 100.69344 
L 246.675547 100.9308 
L 248.90716 100.8792 
L 249.657477 100.64184 
L 250.401351 101.1888 
L 251.141642 101.09592 
L 251.885206 101.37456 
L 252.635635 101.21976 
L 254.116398 101.23008 
L 254.858459 100.92048 
L 255.584427 101.06496 
L 256.339823 100.70376 
L 257.082339 100.55928 
L 257.812303 100.53864 
L 258.557336 99.60984 
L 259.314613 99.72336 
L 260.7948 99.25896 
L 261.54065 99.32088 
L 262.282143 100.22904 
L 263.028122 100.01232 
L 264.514366 100.75536 
L 265.263893 101.02368 
L 266.000894 101.02368 
L 266.745867 101.17848 
L 267.492413 100.7244 
L 268.229044 100.75536 
L 268.961164 101.11656 
L 269.715236 100.91016 
L 270.467323 100.89984 
L 271.198396 101.1372 
L 271.948335 101.2404 
L 272.688282 101.6532 
L 273.431151 101.4984 
L 274.162764 101.48808 
L 274.920239 101.32296 
L 276.408553 101.7048 
L 277.159223 102.54072 
L 277.898998 103.08768 
L 278.629091 103.36632 
L 279.36 104.22288 
L 279.36 104.22288 
" clip-path="url(#pf567378167)" style="fill: none; stroke: #bebebe; stroke-width: 0.5; stroke-linecap: round"/>
   </g>
   <g id="line2d_6">
    <path d="M 8.64 83.6448 
L 9.382319 82.7676 
L 10.124637 82.0968 
L 10.866956 82.3548 
L 11.609275 79.74384 
L 12.351593 77.90688 
L 13.093912 78.39192 
L 13.83623 80.21856 
L 14.578549 81.34344 
L 15.320868 81.98328 
L 16.805505 81.5808 
L 17.547824 82.26192 
L 19.032461 82.15872 
L 19.77478 83.88216 
L 20.517098 85.89456 
L 21.259417 86.5344 
L 22.001736 83.61384 
L 22.744054 83.2836 
L 23.486373 83.71704 
L 24.228691 83.748 
L 25.713329 83.41776 
L 26.455647 82.44768 
L 27.197966 82.6644 
L 27.940285 83.89248 
L 28.682603 81.38472 
L 29.424922 81.14736 
L 30.167241 82.34448 
L 30.909559 82.23096 
L 31.651878 81.426 
L 32.394197 81.8388 
L 33.136515 80.76552 
L 34.621152 75.83256 
L 35.363471 75.67776 
L 36.10579 75.91512 
L 37.590427 74.88312 
L 38.332746 73.09776 
L 39.075064 69.6096 
L 39.817383 67.91712 
L 40.559702 66.94704 
L 41.30202 66.24528 
L 42.044339 63.80976 
L 42.786658 63.70656 
L 43.528976 63.9852 
L 44.271295 65.71896 
L 45.013613 64.5528 
L 46.498251 64.05744 
L 47.240569 62.25144 
L 47.982888 63.39696 
L 48.725207 63.366 
L 49.467525 63.08736 
L 50.209844 64.72824 
L 50.952163 67.89648 
L 51.694481 69.16584 
L 52.4368 67.69008 
L 53.179118 64.4496 
L 53.921437 65.97696 
L 54.663756 64.914 
L 55.406074 61.54968 
L 56.148393 60.04296 
L 56.890712 56.28648 
L 57.63303 56.47224 
L 58.375349 56.83344 
L 59.117668 51.22968 
L 59.859986 48.89736 
L 60.602305 52.00368 
L 61.344624 53.84064 
L 62.086942 53.90256 
L 62.829261 53.00472 
L 63.571579 55.5228 
L 64.313898 59.12448 
L 65.056217 55.32672 
L 65.798535 56.90568 
L 66.540854 47.92728 
L 67.283173 48.75288 
L 68.025491 48.68064 
L 68.76781 54.57336 
L 69.510129 51.2916 
L 70.252447 52.80864 
L 70.994766 52.69512 
L 71.737085 54.82104 
L 73.221722 54.45984 
L 73.96404 55.7292 
L 74.706359 55.39896 
L 75.448678 53.55168 
L 76.190996 55.81176 
L 76.933315 55.6776 
L 77.675634 56.18328 
L 78.417952 55.71888 
L 79.90259 55.63632 
L 80.644908 55.07904 
L 81.387227 53.41752 
L 82.129545 49.71264 
L 82.871864 50.32152 
L 83.614183 51.17808 
L 84.356501 52.44744 
L 85.09882 52.74672 
L 85.841139 51.4464 
L 86.583457 51.46704 
L 87.325776 53.2524 
L 88.068095 53.08728 
L 88.810413 53.5104 
L 89.552732 57.26688 
L 90.295051 57.76224 
L 91.037369 58.02024 
L 91.779688 62.26176 
L 92.522006 59.68176 
L 93.264325 59.9604 
L 94.006644 58.12344 
L 94.748962 57.02952 
L 95.491281 58.09248 
L 96.2336 55.13064 
L 96.975918 53.046 
L 97.718237 52.5816 
L 98.460556 52.9944 
L 99.202874 52.5816 
L 99.945193 50.0016 
L 100.687512 53.48976 
L 101.42983 52.40616 
L 102.172149 54.75912 
L 102.914467 62.67456 
L 103.656786 63.95424 
L 104.399105 57.86544 
L 105.141423 56.57544 
L 105.883742 58.31952 
L 106.626061 60.4764 
L 107.368379 61.85928 
L 108.110698 62.73648 
L 108.853017 61.8696 
L 109.595335 60.45576 
L 110.337654 60.54864 
L 111.079973 62.04504 
L 111.822291 63.16992 
L 112.56461 62.36496 
L 113.306928 61.21944 
L 114.049247 60.9408 
L 114.791566 57.83448 
L 115.533884 58.40208 
L 116.276203 60.49704 
L 117.76084 63.1596 
L 118.503159 62.49912 
L 119.245478 62.1276 
L 119.987796 61.56 
L 121.472433 70.66224 
L 122.214752 68.72208 
L 122.957071 70.4868 
L 123.699389 68.61888 
L 124.441708 69.11424 
L 125.184027 66.5136 
L 125.926345 66.68904 
L 126.668664 68.8872 
L 127.410983 68.9904 
L 128.153301 71.5704 
L 128.89562 73.48992 
L 129.637939 72.54048 
L 131.122576 74.74896 
L 131.864894 73.3248 
L 132.607213 74.80056 
L 133.349532 77.556 
L 134.09185 78.55704 
L 134.834169 78.50544 
L 135.576488 78.04104 
L 136.318806 75.76032 
L 137.061125 75.73968 
L 137.803444 74.65608 
L 138.545762 74.83152 
L 139.288081 74.57352 
L 140.0304 75.20304 
L 140.772718 75.17208 
L 141.515037 78.05136 
L 142.999674 72.16896 
L 143.741993 73.08744 
L 144.484311 74.72832 
L 145.968949 74.28456 
L 146.711267 73.21128 
L 147.453586 70.2804 
L 148.195905 70.2288 
L 148.938223 71.56008 
L 149.680542 73.79952 
L 150.42286 73.35576 
L 151.165179 74.0988 
L 151.907498 75.5952 
L 152.649816 75.5952 
L 153.392135 77.61792 
L 154.134454 77.63856 
L 154.876772 75.40944 
L 155.619091 75.40944 
L 156.36141 75.04824 
L 157.103728 74.98632 
L 157.846047 75.58488 
L 158.588366 75.87384 
L 159.330684 76.49304 
L 160.815321 75.82224 
L 161.55764 75.84288 
L 162.299959 76.03896 
L 163.042277 75.51264 
L 163.784596 75.56424 
L 164.526915 75.05856 
L 165.269233 73.26288 
L 166.011552 73.20096 
L 166.753871 73.00488 
L 167.496189 71.68392 
L 168.238508 70.6932 
L 168.980827 72.62304 
L 169.723145 73.52088 
L 170.465464 73.83048 
L 171.207782 73.8408 
L 171.950101 73.29384 
L 172.69242 73.72728 
L 173.434738 70.32168 
L 174.177057 69.77472 
L 174.919376 70.34232 
L 175.661694 70.67256 
L 176.404013 70.51776 
L 177.146332 70.848 
L 177.88865 72.31344 
L 178.630969 76.01832 
L 179.373288 75.41976 
L 180.115606 75.83256 
L 181.600243 75.82224 
L 182.342562 77.82432 
L 183.084881 76.14216 
L 183.827199 74.75928 
L 184.569518 74.96568 
L 185.311837 77.75208 
L 186.054155 79.48584 
L 186.796474 83.31456 
L 187.538793 85.90488 
L 188.281111 84.79032 
L 188.907795 85.84296 
L 190.239647 91.41576 
L 190.978786 88.7532 
L 192.474266 88.55712 
L 193.220821 88.96992 
L 194.701248 90.456 
L 195.443343 90.56952 
L 196.176735 89.15568 
L 196.879885 88.9596 
L 197.669818 90.6624 
L 198.318892 89.94 
L 199.153278 90.00192 
L 200.632675 90.62112 
L 202.121256 90.3528 
L 202.865808 92.004 
L 203.545416 92.13816 
L 204.347773 91.25064 
L 205.086784 89.166 
L 205.827694 89.56848 
L 206.561266 90.93072 
L 207.32045 89.41368 
L 208.055105 90.37344 
L 208.799151 89.79552 
L 209.537311 90.23928 
L 210.281228 88.0824 
L 211.023194 88.7532 
L 211.759816 90.16704 
L 212.509343 90.67272 
L 213.253887 90.18768 
L 213.991438 89.2692 
L 214.733464 89.54784 
L 215.478704 89.49624 
L 216.219588 88.31976 
L 216.960918 88.45392 
L 217.717439 88.46424 
L 218.461854 86.38992 
L 219.191182 84.80064 
L 219.939163 84.8316 
L 220.681687 86.586 
L 221.416781 87.74184 
L 222.154752 87.618 
L 222.908171 88.19592 
L 223.652234 89.08344 
L 224.387679 87.89664 
L 225.185285 87.3084 
L 225.881346 87.65928 
L 227.359823 90.07416 
L 228.856695 89.3724 
L 229.594331 89.00088 
L 230.343016 88.42296 
L 231.818727 89.10408 
L 232.554688 89.14536 
L 233.308184 89.07312 
L 234.052418 87.9792 
L 234.789917 88.29912 
L 235.533439 86.38992 
L 236.273171 87.24648 
L 237.02232 87.1536 
L 237.753289 86.21448 
L 239.25505 87.01944 
L 239.992643 84.44976 
L 240.734395 85.05864 
L 241.479926 84.58392 
L 242.220733 85.04832 
L 242.954864 83.71704 
L 243.706986 84.86256 
L 244.451143 85.6572 
L 245.190205 85.27536 
L 245.930221 84.49104 
L 247.419833 85.32696 
L 248.153294 85.17216 
L 248.90716 85.31664 
L 249.657477 84.11952 
L 250.401351 85.66752 
L 251.141642 85.26504 
L 251.885206 86.26608 
L 253.359009 85.38888 
L 254.116398 85.3992 
L 254.858459 84.09888 
L 256.339823 84.34656 
L 257.812303 85.7604 
L 258.557336 85.0896 
L 260.062791 84.9348 
L 260.7948 85.296 
L 261.54065 85.35792 
L 262.282143 86.1732 
L 263.028122 85.92552 
L 264.514366 87.13296 
L 265.263893 88.10304 
L 266.000894 87.9276 
L 266.745867 88.26816 
L 267.492413 87.78312 
L 268.229044 87.95856 
L 268.961164 88.94928 
L 269.715236 88.14432 
L 271.198396 88.52616 
L 271.948335 88.86672 
L 272.688282 90.22896 
L 273.431151 89.82648 
L 274.162764 89.87808 
L 274.920239 89.46528 
L 275.673537 90.0432 
L 276.408553 89.96064 
L 277.159223 91.99368 
L 277.898998 93.05664 
L 278.629091 93.74808 
L 279.36 97.02984 
L 279.36 97.02984 
" clip-path="url(#pf567378167)" style="fill: none; stroke: #4a8dff; stroke-width: 0.6"/>
   </g>
   <g id="line2d_7">
    <path d="M 8.64 71.38464 
L 9.382319 68.526 
L 10.124637 67.21536 
L 10.866956 67.20504 
L 11.609275 62.46816 
L 12.351593 62.51976 
L 13.093912 64.10904 
L 13.83623 66.90576 
L 14.578549 66.83352 
L 15.320868 67.42176 
L 16.063186 67.3392 
L 16.805505 65.8944 
L 17.547824 68.24736 
L 19.032461 68.23704 
L 19.77478 69.69216 
L 20.517098 71.50848 
L 21.259417 72.21024 
L 22.001736 67.3908 
L 22.744054 66.90576 
L 23.486373 65.59512 
L 24.228691 65.86344 
L 24.97101 65.76024 
L 25.713329 65.50224 
L 26.455647 64.398 
L 27.197966 65.70864 
L 27.940285 67.2876 
L 28.682603 63.95424 
L 29.424922 63.14928 
L 30.167241 64.76952 
L 30.909559 64.58376 
L 31.651878 63.55176 
L 32.394197 64.5012 
L 33.136515 63.82008 
L 33.878834 61.36392 
L 34.621152 56.64768 
L 35.363471 54.89328 
L 36.10579 55.04808 
L 36.848108 53.29368 
L 37.590427 52.55064 
L 38.332746 54.77976 
L 39.075064 53.67552 
L 39.817383 52.95312 
L 40.559702 54.45984 
L 41.30202 54.55272 
L 42.044339 55.22352 
L 42.786658 54.98616 
L 43.528976 52.4268 
L 44.271295 53.79936 
L 45.013613 54.08832 
L 45.755932 54.92424 
L 46.498251 54.4908 
L 47.240569 52.98408 
L 47.982888 54.44952 
L 48.725207 54.60432 
L 49.467525 54.62496 
L 50.952163 59.38248 
L 51.694481 60.09456 
L 52.4368 58.39176 
L 53.179118 57.41136 
L 53.921437 58.464 
L 54.663756 57.5352 
L 55.406074 55.0068 
L 56.148393 55.81176 
L 56.890712 55.99752 
L 57.63303 53.13888 
L 58.375349 53.64456 
L 59.117668 52.1688 
L 59.859986 48.69096 
L 60.602305 54.0264 
L 61.344624 55.13064 
L 62.086942 54.96552 
L 62.829261 54.92424 
L 63.571579 56.25552 
L 64.313898 59.8572 
L 65.056217 58.32984 
L 65.798535 60.23904 
L 66.540854 55.65696 
L 67.283173 57.18432 
L 68.025491 59.21736 
L 68.76781 62.55072 
L 69.510129 60.82728 
L 70.252447 61.47744 
L 70.994766 60.12552 
L 71.737085 64.31544 
L 72.479403 63.99552 
L 73.221722 64.5528 
L 73.96404 63.60336 
L 74.706359 61.5084 
L 75.448678 60.96144 
L 76.190996 61.98312 
L 76.933315 62.05536 
L 77.675634 62.51976 
L 79.160271 60.64152 
L 79.90259 61.13688 
L 80.644908 58.6188 
L 81.387227 57.03984 
L 82.129545 56.35872 
L 82.871864 56.5548 
L 83.614183 57.174 
L 84.356501 57.14304 
L 85.09882 55.7292 
L 85.841139 56.04912 
L 86.583457 55.33704 
L 87.325776 56.87472 
L 88.068095 56.8128 
L 88.810413 57.24624 
L 89.552732 59.93976 
L 90.295051 60.64152 
L 91.037369 59.29992 
L 91.779688 63.80976 
L 92.522006 63.03576 
L 93.264325 63.09768 
L 94.748962 58.27824 
L 95.491281 58.5672 
L 96.2336 53.93352 
L 96.975918 51.74568 
L 97.718237 50.04288 
L 98.460556 49.90872 
L 99.945193 47.43192 
L 100.687512 50.80656 
L 101.42983 48.90768 
L 102.172149 50.6208 
L 102.914467 59.42376 
L 103.656786 61.85928 
L 104.399105 57.35976 
L 105.141423 57.3288 
L 105.883742 59.46504 
L 107.368379 64.72824 
L 108.110698 66.42072 
L 108.853017 65.688 
L 109.595335 64.17096 
L 110.337654 62.10696 
L 111.079973 64.30512 
L 111.822291 65.20296 
L 112.56461 62.68488 
L 113.306928 61.70448 
L 114.049247 61.06464 
L 114.791566 58.1028 
L 115.533884 58.40208 
L 116.276203 59.68176 
L 117.018522 62.6952 
L 117.76084 64.56312 
L 118.503159 63.18024 
L 119.245478 62.72616 
L 119.987796 62.06568 
L 120.730115 66.33816 
L 121.472433 71.40528 
L 122.214752 69.08328 
L 122.957071 71.7252 
L 123.699389 69.57864 
L 124.441708 70.72416 
L 125.184027 68.2164 
L 125.926345 66.978 
L 126.668664 70.03272 
L 127.410983 71.5188 
L 128.153301 73.3764 
L 128.89562 78.846 
L 129.637939 77.75208 
L 130.380257 78.88728 
L 131.122576 81.34344 
L 131.864894 80.53848 
L 132.607213 82.0452 
L 133.349532 86.92656 
L 134.09185 88.58808 
L 134.834169 88.96992 
L 135.576488 86.7924 
L 136.318806 85.296 
L 137.061125 86.24544 
L 137.803444 82.96368 
L 138.545762 82.13808 
L 139.288081 82.47864 
L 140.0304 82.58184 
L 140.772718 83.03592 
L 141.515037 87.3084 
L 142.257355 82.06584 
L 142.999674 79.71288 
L 143.741993 81.24024 
L 144.484311 84.17112 
L 145.22663 84.24336 
L 145.968949 83.29392 
L 146.711267 82.8192 
L 147.453586 80.64168 
L 148.195905 81.38472 
L 148.938223 80.87904 
L 149.680542 83.13912 
L 150.42286 83.19072 
L 151.907498 87.17424 
L 152.649816 85.71912 
L 153.392135 87.53544 
L 154.134454 88.17528 
L 154.876772 85.41984 
L 156.36141 84.9348 
L 157.103728 85.01736 
L 157.846047 86.14224 
L 158.588366 85.90488 
L 159.330684 86.328 
L 160.073003 86.24544 
L 160.815321 85.72944 
L 161.55764 85.7088 
L 162.299959 86.40024 
L 163.042277 85.09992 
L 163.784596 86.02872 
L 165.269233 83.53128 
L 166.753871 82.03488 
L 167.496189 79.39296 
L 168.238508 79.66128 
L 168.980827 82.15872 
L 169.723145 82.43736 
L 170.465464 82.93272 
L 171.207782 83.00496 
L 172.69242 82.28256 
L 173.434738 78.01008 
L 174.177057 76.19376 
L 174.919376 77.66952 
L 175.661694 77.74176 
L 176.404013 78.1752 
L 177.88865 80.8068 
L 178.630969 85.20312 
L 179.373288 84.12984 
L 180.115606 84.03696 
L 180.857925 84.06792 
L 181.600243 84.3156 
L 182.342562 87.02976 
L 183.084881 85.21344 
L 183.827199 84.28464 
L 184.569518 84.32592 
L 185.311837 89.08344 
L 186.054155 89.5272 
L 186.796474 95.14128 
L 187.538793 96.98856 
L 188.281111 95.08968 
L 189.497706 99.80592 
L 190.239647 101.79768 
L 190.978786 100.03296 
L 191.738074 100.518 
L 192.474266 99.98136 
L 193.220821 100.49736 
L 195.443343 101.26104 
L 196.176735 100.63152 
L 196.879885 100.38384 
L 197.669818 100.84824 
L 198.318892 100.65216 
L 199.153278 101.034 
L 199.894695 101.19912 
L 202.121256 100.91016 
L 202.865808 101.7564 
L 203.545416 101.84928 
L 204.347773 101.56032 
L 205.086784 100.85856 
L 206.561266 101.4468 
L 207.32045 101.02368 
L 208.055105 101.30232 
L 208.799151 100.81728 
L 209.537311 100.79664 
L 210.281228 99.3312 
L 211.023194 99.92976 
L 211.759816 100.78632 
L 212.509343 101.17848 
L 213.253887 101.1372 
L 213.991438 100.21872 
L 215.478704 100.4664 
L 216.219588 99.88848 
L 216.960918 99.94008 
L 217.717439 99.81624 
L 218.461854 98.93904 
L 219.191182 98.3508 
L 219.939163 98.52624 
L 220.681687 99.78528 
L 221.416781 100.12584 
L 222.154752 100.03296 
L 223.652234 100.83792 
L 224.387679 100.11552 
L 225.185285 99.87816 
L 225.881346 100.002 
L 227.359823 101.41584 
L 228.112254 101.21976 
L 229.594331 101.00304 
L 230.343016 100.86888 
L 231.075557 101.21976 
L 231.818727 101.28168 
L 233.308184 101.14752 
L 234.052418 100.55928 
L 234.789917 100.65216 
L 235.533439 99.80592 
L 236.273171 99.96072 
L 237.02232 99.6408 
L 237.753289 99.1764 
L 238.508925 99.70272 
L 239.25505 99.94008 
L 239.992643 98.57784 
L 240.734395 98.65008 
L 241.479926 98.38176 
L 242.220733 98.48496 
L 242.954864 96.70992 
L 243.706986 98.05152 
L 244.451143 98.48496 
L 245.190205 97.96896 
L 245.930221 96.32808 
L 247.419833 96.16296 
L 248.153294 96.1836 
L 248.90716 96.50352 
L 249.657477 94.76976 
L 250.401351 97.19496 
L 251.141642 96.9576 
L 251.885206 97.9896 
L 252.635635 96.89568 
L 253.359009 95.45088 
L 254.116398 95.67792 
L 254.858459 93.43848 
L 256.339823 92.25168 
L 257.082339 92.87088 
L 257.812303 94.2744 
L 258.557336 93.1392 
L 259.314613 92.97408 
L 260.062791 92.9844 
L 260.7948 92.60256 
L 261.54065 92.53032 
L 262.282143 94.54272 
L 263.028122 92.85024 
L 263.760964 94.82136 
L 264.514366 95.75016 
L 265.263893 96.97824 
L 266.745867 97.23624 
L 267.492413 95.94624 
L 268.229044 96.30744 
L 268.961164 98.08248 
L 270.467323 96.61704 
L 271.198396 97.23624 
L 271.948335 98.08248 
L 272.688282 99.18672 
L 273.431151 99.03192 
L 274.162764 99.1248 
L 274.920239 98.74296 
L 275.673537 99.09384 
L 276.408553 100.0536 
L 277.159223 101.23008 
L 277.898998 101.99376 
L 278.629091 102.08664 
L 279.36 102.8916 
L 279.36 102.8916 
" clip-path="url(#pf567378167)" style="fill: none; stroke: #f5841e; stroke-width: 0.6"/>
   </g>
  </g>
 </g>
 <defs>
  <clipPath id="pf567378167">
   <rect x="8.64" y="4.8" width="270.72" height="103.2"/>
  </clipPath>
 </defs>
</svg>
