<?xml version="1.0" encoding="utf-8" standalone="no"?>
<!DOCTYPE svg PUBLIC "-//W3C//DTD SVG 1.1//EN"
  "http://www.w3.org/Graphics/SVG/1.1/DTD/svg11.dtd">
<svg xmlns:xlink="http://www.w3.org/1999/xlink" width="288pt" height="120pt" viewBox="0 0 288 120" xmlns="http://www.w3.org/2000/svg" version="1.1">
<desc id="nav-meta">{"window":"1m","count":4,"labels":["28.04","08.05","17.05","27.05"],"tick_utc":["2026-04-28T04:25:03Z","2026-05-08T04:01:19Z","2026-05-17T04:42:26Z","2026-05-27T05:03:21Z"],"w":720,"h":300}</desc>

 <metadata>
  <rdf:RDF xmlns:dc="http://purl.org/dc/elements/1.1/" xmlns:cc="http://creativecommons.org/ns#" xmlns:rdf="http://www.w3.org/1999/02/22-rdf-syntax-ns#">
   <cc:Work>
    <dc:type rdf:resource="http://purl.org/dc/dcmitype/StillImage"/>
    <dc:date>2026-05-27T10:41:25.095503</dc:date>
    <dc:format>image/svg+xml</dc:format>
    <dc:creator>
     <cc:Agent>
      <dc:title>Matplotlib v3.10.9, https://matplotlib.org/</dc:title>
     </cc:Agent>
    </dc:creator>
   </cc:Work>
  </rdf:RDF>
 </metadata>
 <defs>
  <style type="text/css">*{stroke-linejoin: round; stroke-linecap: butt}</style>
 </defs>
 <g id="figure_1">
  <g id="patch_1">
   <path d="M 0 120 
L 288 120 
L 288 0 
L 0 0 
L 0 120 
z
" style="fill: none; opacity: 0"/>
  </g>
  <g id="axes_1">
   <g id="patch_2">
    <path d="M 8.64 108 
L 279.36 108 
L 279.36 4.8 
L 8.64 4.8 
L 8.64 108 
z
" style="fill: none"/>
   </g>
   <g id="matplotlib.axis_1"/>
   <g id="matplotlib.axis_2"/>
   <g id="line2d_1">
    <path d="M 8.64 87.36 
L 279.36 87.36 
" clip-path="url(#p72a4eaa454)" style="fill: none; stroke: #b2b2b2; stroke-opacity: 0.35; stroke-width: 0.5; stroke-linecap: square"/>
   </g>
   <g id="line2d_2">
    <path d="M 8.64 66.72 
L 279.36 66.72 
" clip-path="url(#p72a4eaa454)" style="fill: none; stroke: #b2b2b2; stroke-opacity: 0.35; stroke-width: 0.5; stroke-linecap: square"/>
   </g>
   <g id="line2d_3">
    <path d="M 8.64 46.08 
L 279.36 46.08 
" clip-path="url(#p72a4eaa454)" style="fill: none; stroke: #b2b2b2; stroke-opacity: 0.35; stroke-width: 0.5; stroke-linecap: square"/>
   </g>
   <g id="line2d_4">
    <path d="M 8.64 25.44 
L 279.36 25.44 
" clip-path="url(#p72a4eaa454)" style="fill: none; stroke: #b2b2b2; stroke-opacity: 0.35; stroke-width: 0.5; stroke-linecap: square"/>
   </g>
   <g id="line2d_5">
    <path d="M 8.64 101.1888 
L 17.941143 101.09592 
L 27.283414 101.37456 
L 36.711934 101.21976 
L 45.80053 101.20944 
L 55.316487 101.23008 
L 64.639868 100.92048 
L 73.761063 101.06496 
L 83.251977 100.70376 
L 92.581078 100.55928 
L 101.752469 100.53864 
L 111.113199 99.60984 
L 120.627753 99.72336 
L 130.027991 99.44472 
L 139.225074 99.25896 
L 148.596058 99.32088 
L 157.912314 100.22904 
L 167.284918 100.01232 
L 176.492471 100.43544 
L 185.958341 100.75536 
L 195.375527 101.02368 
L 204.635327 101.02368 
L 213.995301 101.17848 
L 223.375029 100.7244 
L 232.630187 100.75536 
L 241.828672 101.11656 
L 251.302962 100.91016 
L 260.752317 100.89984 
L 269.937632 101.1372 
L 279.36 101.2404 
" clip-path="url(#p72a4eaa454)" style="fill: none; stroke: #bebebe; stroke-width: 0.5; stroke-linecap: round"/>
   </g>
   <g id="line2d_6">
    <path d="M 8.64 85.66752 
L 17.941143 85.26504 
L 27.283414 86.26608 
L 36.711934 85.77072 
L 45.80053 85.38888 
L 55.316487 85.3992 
L 64.639868 84.09888 
L 73.761063 84.22272 
L 83.251977 84.34656 
L 92.581078 85.06896 
L 101.752469 85.7604 
L 111.113199 85.0896 
L 120.627753 85.01736 
L 130.027991 84.9348 
L 139.225074 85.296 
L 148.596058 85.35792 
L 157.912314 86.1732 
L 167.284918 85.92552 
L 176.492471 86.55504 
L 185.958341 87.13296 
L 195.375527 88.10304 
L 204.635327 87.9276 
L 213.995301 88.26816 
L 223.375029 87.78312 
L 232.630187 87.95856 
L 241.828672 88.94928 
L 251.302962 88.14432 
L 260.752317 88.33008 
L 269.937632 88.52616 
L 279.36 88.86672 
" clip-path="url(#p72a4eaa454)" style="fill: none; stroke: #4a8dff; stroke-width: 0.6"/>
   </g>
   <g id="line2d_7">
    <path d="M 8.64 97.19496 
L 17.941143 96.9576 
L 27.283414 97.9896 
L 36.711934 96.89568 
L 45.80053 95.45088 
L 55.316487 95.67792 
L 64.639868 93.43848 
L 73.761063 92.90184 
L 83.251977 92.25168 
L 92.581078 92.87088 
L 101.752469 94.2744 
L 111.113199 93.1392 
L 120.627753 92.97408 
L 130.027991 92.9844 
L 139.225074 92.60256 
L 148.596058 92.53032 
L 157.912314 94.54272 
L 167.284918 92.85024 
L 176.492471 94.82136 
L 185.958341 95.75016 
L 195.375527 96.97824 
L 204.635327 97.08144 
L 213.995301 97.23624 
L 223.375029 95.94624 
L 232.630187 96.30744 
L 241.828672 98.08248 
L 251.302962 97.2672 
L 260.752317 96.61704 
L 269.937632 97.23624 
L 279.36 98.08248 
" clip-path="url(#p72a4eaa454)" style="fill: none; stroke: #f5841e; stroke-width: 0.6"/>
   </g>
  </g>
 </g>
 <defs>
  <clipPath id="p72a4eaa454">
   <rect x="8.64" y="4.8" width="270.72" height="103.2"/>
  </clipPath>
 </defs>
</svg>
