<?xml version="1.0" encoding="utf-8" standalone="no"?>
<!DOCTYPE svg PUBLIC "-//W3C//DTD SVG 1.1//EN"
  "http://www.w3.org/Graphics/SVG/1.1/DTD/svg11.dtd">
<svg xmlns:xlink="http://www.w3.org/1999/xlink" width="288pt" height="120pt" viewBox="0 0 288 120" xmlns="http://www.w3.org/2000/svg" version="1.1">
<desc id="nav-meta">{"window":"3m","count":4,"labels":["09.02","11.03","09.04","09.05"],"tick_utc":["2026-02-09T03:34:10Z","2026-03-11T03:14:04Z","2026-04-09T03:38:15Z","2026-05-09T04:06:35Z"],"w":720,"h":300}</desc>

 <metadata>
  <rdf:RDF xmlns:dc="http://purl.org/dc/elements/1.1/" xmlns:cc="http://creativecommons.org/ns#" xmlns:rdf="http://www.w3.org/1999/02/22-rdf-syntax-ns#">
   <cc:Work>
    <dc:type rdf:resource="http://purl.org/dc/dcmitype/StillImage"/>
    <dc:date>2026-05-09T14:04:52.903869</dc:date>
    <dc:format>image/svg+xml</dc:format>
    <dc:creator>
     <cc:Agent>
      <dc:title>Matplotlib v3.10.9, https://matplotlib.org/</dc:title>
     </cc:Agent>
    </dc:creator>
   </cc:Work>
  </rdf:RDF>
 </metadata>
 <defs>
  <style type="text/css">*{stroke-linejoin: round; stroke-linecap: butt}</style>
 </defs>
 <g id="figure_1">
  <g id="patch_1">
   <path d="M 0 120 
L 288 120 
L 288 0 
L 0 0 
L 0 120 
z
" style="fill: none; opacity: 0"/>
  </g>
  <g id="axes_1">
   <g id="patch_2">
    <path d="M 8.64 108 
L 279.36 108 
L 279.36 4.8 
L 8.64 4.8 
L 8.64 108 
z
" style="fill: none"/>
   </g>
   <g id="matplotlib.axis_1"/>
   <g id="matplotlib.axis_2"/>
   <g id="line2d_1">
    <path d="M 8.64 87.36 
L 279.36 87.36 
" clip-path="url(#p4912ba9bfc)" style="fill: none; stroke: #b2b2b2; stroke-opacity: 0.35; stroke-width: 0.5; stroke-linecap: square"/>
   </g>
   <g id="line2d_2">
    <path d="M 8.64 66.72 
L 279.36 66.72 
" clip-path="url(#p4912ba9bfc)" style="fill: none; stroke: #b2b2b2; stroke-opacity: 0.35; stroke-width: 0.5; stroke-linecap: square"/>
   </g>
   <g id="line2d_3">
    <path d="M 8.64 46.08 
L 279.36 46.08 
" clip-path="url(#p4912ba9bfc)" style="fill: none; stroke: #b2b2b2; stroke-opacity: 0.35; stroke-width: 0.5; stroke-linecap: square"/>
   </g>
   <g id="line2d_4">
    <path d="M 8.64 25.44 
L 279.36 25.44 
" clip-path="url(#p4912ba9bfc)" style="fill: none; stroke: #b2b2b2; stroke-opacity: 0.35; stroke-width: 0.5; stroke-linecap: square"/>
   </g>
   <g id="line2d_5">
    <path d="M 8.64 100.68312 
L 11.698381 100.95144 
L 14.733109 101.28168 
L 17.763191 101.71512 
L 20.803305 101.84928 
L 23.807763 101.034 
L 26.688329 100.54896 
L 29.924419 101.04432 
L 32.583454 100.81728 
L 36.001654 101.034 
L 39.038987 101.4984 
L 42.062241 101.33328 
L 45.084686 101.1372 
L 48.160454 101.06496 
L 51.210634 102.09696 
L 53.994759 102.05568 
L 57.281745 101.4984 
L 60.309222 100.60056 
L 63.344478 100.80696 
L 66.349676 101.45712 
L 69.459797 100.55928 
L 72.46943 101.10624 
L 75.517533 100.8792 
L 78.541526 100.74504 
L 81.589101 100.21872 
L 84.628687 100.53864 
L 87.646379 101.07528 
L 90.716938 101.38488 
L 93.767083 101.26104 
L 96.788577 100.78632 
L 99.828409 100.91016 
L 102.881405 100.99272 
L 105.916555 100.38384 
L 108.953536 100.50768 
L 112.052746 100.60056 
L 115.102362 99.76464 
L 118.090173 99.49632 
L 121.154396 99.40344 
L 124.196269 100.09488 
L 127.207697 100.3632 
L 130.230916 100.19808 
L 133.317419 100.47672 
L 136.365593 100.79664 
L 139.378464 100.26 
L 142.645986 99.83688 
L 145.497513 100.13616 
L 148.542378 100.80696 
L 151.554334 101.38488 
L 154.636789 101.3436 
L 157.686512 101.292 
L 160.708358 101.28168 
L 163.775467 101.28168 
L 166.776442 101.8596 
L 169.820955 101.88024 
L 172.835937 101.72544 
L 175.922757 101.68416 
L 178.971635 101.47776 
L 181.992918 101.78736 
L 185.038874 101.09592 
L 188.069308 101.46744 
L 191.138318 101.3436 
L 194.132852 101.05464 
L 197.228436 101.3952 
L 200.285057 101.47776 
L 203.306727 100.86888 
L 206.345432 101.26104 
L 209.399625 100.99272 
L 212.434458 100.61088 
L 215.441944 100.44576 
L 218.523133 100.94112 
L 221.571693 101.09592 
L 224.599382 101.00304 
L 227.630978 100.69344 
L 230.684325 100.9308 
L 233.733414 100.92048 
L 236.738155 100.81728 
L 239.826488 100.8792 
L 242.900285 100.64184 
L 245.947684 101.1888 
L 248.980406 101.09592 
L 252.026538 101.37456 
L 255.100793 101.21976 
L 258.064212 101.20944 
L 261.166976 101.23008 
L 264.206949 100.92048 
L 267.180997 101.06496 
L 270.275596 100.70376 
L 273.317434 100.55928 
L 276.307849 100.53864 
L 279.36 99.60984 
" clip-path="url(#p4912ba9bfc)" style="fill: none; stroke: #bebebe; stroke-width: 0.5; stroke-linecap: round"/>
   </g>
   <g id="line2d_6">
    <path d="M 8.64 88.55712 
L 11.698381 88.96992 
L 14.733109 89.7336 
L 17.763191 90.456 
L 20.803305 90.56952 
L 23.807763 89.15568 
L 26.688329 88.9596 
L 29.924419 90.6624 
L 32.583454 89.94 
L 36.001654 90.00192 
L 39.038987 90.3528 
L 42.062241 90.62112 
L 45.084686 90.5076 
L 48.160454 90.3528 
L 51.210634 92.004 
L 53.994759 92.13816 
L 57.281745 91.25064 
L 60.309222 89.166 
L 63.344478 89.56848 
L 66.349676 90.93072 
L 69.459797 89.41368 
L 72.46943 90.37344 
L 75.517533 89.79552 
L 78.541526 90.23928 
L 81.589101 88.0824 
L 84.628687 88.7532 
L 87.646379 90.16704 
L 90.716938 90.67272 
L 93.767083 90.18768 
L 96.788577 89.2692 
L 99.828409 89.54784 
L 102.881405 89.49624 
L 105.916555 88.31976 
L 108.953536 88.45392 
L 112.052746 88.46424 
L 115.102362 86.38992 
L 118.090173 84.80064 
L 121.154396 84.8316 
L 124.196269 86.586 
L 127.207697 87.74184 
L 130.230916 87.618 
L 133.317419 88.19592 
L 136.365593 89.08344 
L 139.378464 87.89664 
L 142.645986 87.3084 
L 145.497513 87.65928 
L 148.542378 88.96992 
L 151.554334 90.07416 
L 154.636789 89.76456 
L 157.686512 89.3724 
L 160.708358 89.00088 
L 163.775467 88.42296 
L 166.776442 88.81512 
L 169.820955 89.10408 
L 172.835937 89.14536 
L 175.922757 89.07312 
L 178.971635 87.9792 
L 181.992918 88.29912 
L 185.038874 86.38992 
L 188.069308 87.24648 
L 191.138318 87.1536 
L 194.132852 86.21448 
L 197.228436 86.66856 
L 200.285057 87.01944 
L 203.306727 84.44976 
L 206.345432 85.05864 
L 209.399625 84.58392 
L 212.434458 85.04832 
L 215.441944 83.71704 
L 218.523133 84.86256 
L 221.571693 85.6572 
L 224.599382 85.27536 
L 227.630978 84.49104 
L 230.684325 84.86256 
L 233.733414 85.32696 
L 236.738155 85.17216 
L 239.826488 85.31664 
L 242.900285 84.11952 
L 245.947684 85.66752 
L 248.980406 85.26504 
L 252.026538 86.26608 
L 255.100793 85.77072 
L 258.064212 85.38888 
L 261.166976 85.3992 
L 264.206949 84.09888 
L 267.180997 84.22272 
L 270.275596 84.34656 
L 273.317434 85.06896 
L 276.307849 85.7604 
L 279.36 85.0896 
" clip-path="url(#p4912ba9bfc)" style="fill: none; stroke: #4a8dff; stroke-width: 0.6"/>
   </g>
   <g id="line2d_7">
    <path d="M 8.64 99.98136 
L 11.698381 100.49736 
L 14.733109 100.78632 
L 17.763191 101.07528 
L 20.803305 101.26104 
L 23.807763 100.63152 
L 26.688329 100.38384 
L 29.924419 100.84824 
L 32.583454 100.65216 
L 36.001654 101.034 
L 39.038987 101.19912 
L 42.062241 101.10624 
L 45.084686 100.97208 
L 48.160454 100.91016 
L 51.210634 101.7564 
L 53.994759 101.84928 
L 57.281745 101.56032 
L 60.309222 100.85856 
L 63.344478 101.12688 
L 66.349676 101.4468 
L 69.459797 101.02368 
L 72.46943 101.30232 
L 75.517533 100.81728 
L 78.541526 100.79664 
L 81.589101 99.3312 
L 84.628687 99.92976 
L 87.646379 100.78632 
L 90.716938 101.17848 
L 93.767083 101.1372 
L 96.788577 100.21872 
L 99.828409 100.37352 
L 102.881405 100.4664 
L 105.916555 99.88848 
L 108.953536 99.94008 
L 112.052746 99.81624 
L 115.102362 98.93904 
L 118.090173 98.3508 
L 121.154396 98.52624 
L 124.196269 99.78528 
L 127.207697 100.12584 
L 130.230916 100.03296 
L 133.317419 100.45608 
L 136.365593 100.83792 
L 139.378464 100.11552 
L 142.645986 99.87816 
L 145.497513 100.002 
L 148.542378 100.64184 
L 151.554334 101.41584 
L 154.636789 101.21976 
L 157.686512 101.14752 
L 160.708358 101.00304 
L 163.775467 100.86888 
L 166.776442 101.21976 
L 169.820955 101.28168 
L 172.835937 101.20944 
L 175.922757 101.14752 
L 178.971635 100.55928 
L 181.992918 100.65216 
L 185.038874 99.80592 
L 188.069308 99.96072 
L 191.138318 99.6408 
L 194.132852 99.1764 
L 197.228436 99.70272 
L 200.285057 99.94008 
L 203.306727 98.57784 
L 206.345432 98.65008 
L 209.399625 98.38176 
L 212.434458 98.48496 
L 215.441944 96.70992 
L 218.523133 98.05152 
L 221.571693 98.48496 
L 224.599382 97.96896 
L 227.630978 96.32808 
L 230.684325 96.20424 
L 233.733414 96.16296 
L 236.738155 96.1836 
L 239.826488 96.50352 
L 242.900285 94.76976 
L 245.947684 97.19496 
L 248.980406 96.9576 
L 252.026538 97.9896 
L 255.100793 96.89568 
L 258.064212 95.45088 
L 261.166976 95.67792 
L 264.206949 93.43848 
L 267.180997 92.90184 
L 270.275596 92.25168 
L 273.317434 92.87088 
L 276.307849 94.2744 
L 279.36 93.1392 
" clip-path="url(#p4912ba9bfc)" style="fill: none; stroke: #f5841e; stroke-width: 0.6"/>
   </g>
  </g>
 </g>
 <defs>
  <clipPath id="p4912ba9bfc">
   <rect x="8.64" y="4.8" width="270.72" height="103.2"/>
  </clipPath>
 </defs>
</svg>
