<?xml version="1.0" encoding="utf-8" standalone="no"?>
<!DOCTYPE svg PUBLIC "-//W3C//DTD SVG 1.1//EN"
  "http://www.w3.org/Graphics/SVG/1.1/DTD/svg11.dtd">
<svg xmlns:xlink="http://www.w3.org/1999/xlink" width="288pt" height="120pt" viewBox="0 0 288 120" xmlns="http://www.w3.org/2000/svg" version="1.1">
<desc id="nav-meta">{"window":"3m","count":4,"labels":["02.12","01.01","30.01","01.03"],"tick_utc":["2025-12-02T12:00:00Z","2026-01-01T12:00:00Z","2026-01-30T12:00:00Z","2026-03-01T03:33:48Z"],"w":720,"h":300}</desc>

 <metadata>
  <rdf:RDF xmlns:dc="http://purl.org/dc/elements/1.1/" xmlns:cc="http://creativecommons.org/ns#" xmlns:rdf="http://www.w3.org/1999/02/22-rdf-syntax-ns#">
   <cc:Work>
    <dc:type rdf:resource="http://purl.org/dc/dcmitype/StillImage"/>
    <dc:date>2026-03-01T19:01:27.698345</dc:date>
    <dc:format>image/svg+xml</dc:format>
    <dc:creator>
     <cc:Agent>
      <dc:title>Matplotlib v3.10.8, https://matplotlib.org/</dc:title>
     </cc:Agent>
    </dc:creator>
   </cc:Work>
  </rdf:RDF>
 </metadata>
 <defs>
  <style type="text/css">*{stroke-linejoin: round; stroke-linecap: butt}</style>
 </defs>
 <g id="figure_1">
  <g id="patch_1">
   <path d="M 0 120 
L 288 120 
L 288 0 
L 0 0 
L 0 120 
z
" style="fill: none; opacity: 0"/>
  </g>
  <g id="axes_1">
   <g id="patch_2">
    <path d="M 8.64 108 
L 279.36 108 
L 279.36 4.8 
L 8.64 4.8 
L 8.64 108 
z
" style="fill: none"/>
   </g>
   <g id="matplotlib.axis_1"/>
   <g id="matplotlib.axis_2"/>
   <g id="line2d_1">
    <path d="M 8.64 87.36 
L 279.36 87.36 
" clip-path="url(#p03d9e33578)" style="fill: none; stroke: #b2b2b2; stroke-opacity: 0.35; stroke-width: 0.5; stroke-linecap: square"/>
   </g>
   <g id="line2d_2">
    <path d="M 8.64 66.72 
L 279.36 66.72 
" clip-path="url(#p03d9e33578)" style="fill: none; stroke: #b2b2b2; stroke-opacity: 0.35; stroke-width: 0.5; stroke-linecap: square"/>
   </g>
   <g id="line2d_3">
    <path d="M 8.64 46.08 
L 279.36 46.08 
" clip-path="url(#p03d9e33578)" style="fill: none; stroke: #b2b2b2; stroke-opacity: 0.35; stroke-width: 0.5; stroke-linecap: square"/>
   </g>
   <g id="line2d_4">
    <path d="M 8.64 25.44 
L 279.36 25.44 
" clip-path="url(#p03d9e33578)" style="fill: none; stroke: #b2b2b2; stroke-opacity: 0.35; stroke-width: 0.5; stroke-linecap: square"/>
   </g>
   <g id="line2d_5">
    <path d="M 8.64 91.86984 
L 11.69386 88.60872 
L 14.747719 86.87496 
L 17.801579 88.52616 
L 20.855439 90.11544 
L 23.909299 90.38376 
L 26.963158 90.53856 
L 30.017018 90.08448 
L 33.070878 88.79448 
L 36.124738 89.20728 
L 39.178597 89.22792 
L 42.232457 90.31152 
L 45.286317 90.10512 
L 48.340177 91.09584 
L 51.394036 91.61184 
L 54.447896 91.31256 
L 57.501756 92.87088 
L 60.555616 93.8616 
L 63.609475 92.02464 
L 66.663335 92.13816 
L 69.717195 92.07624 
L 72.771054 92.14848 
L 75.824914 92.64384 
L 78.878774 93.01536 
L 81.932634 93.69648 
L 84.986493 93.11856 
L 88.040353 92.44776 
L 91.094213 92.30328 
L 94.148073 92.87088 
L 97.201932 92.38584 
L 100.255792 92.47872 
L 103.309652 91.88016 
L 106.363512 90.42504 
L 109.417371 90.08448 
L 112.471231 89.92968 
L 115.525091 88.76352 
L 118.578951 87.94824 
L 121.63281 89.2692 
L 124.68667 88.72224 
L 127.74053 89.39304 
L 130.794389 89.40336 
L 133.848249 88.41264 
L 136.902109 88.4952 
L 139.955969 86.86464 
L 143.009828 86.42088 
L 146.063688 87.62832 
L 149.117548 86.93688 
L 152.171408 87.23616 
L 155.225267 88.63968 
L 158.279127 90.0432 
L 161.332987 92.12784 
L 164.386847 91.16808 
L 167.440706 91.46736 
L 170.494566 91.73568 
L 173.548426 91.78728 
L 176.602285 94.0164 
L 179.656145 92.5716 
L 182.710005 91.76664 
L 185.763865 92.33424 
L 188.817724 94.36728 
L 191.871584 94.46016 
L 194.925444 97.71096 
L 197.979304 98.48496 
L 201.033163 97.85544 
L 203.611307 99.10416 
L 206.038171 100.16712 
L 209.090475 102.23112 
L 212.131257 100.54896 
L 215.254925 100.70376 
L 218.283583 100.68312 
L 221.354868 100.95144 
L 224.402401 101.28168 
L 227.445268 101.71512 
L 230.498209 101.84928 
L 233.515345 101.034 
L 236.408064 100.54896 
L 239.657809 101.04432 
L 242.328063 100.81728 
L 245.760686 101.034 
L 248.810834 101.4984 
L 251.846845 101.33328 
L 254.882042 101.1372 
L 257.970788 101.06496 
L 261.033837 102.09696 
L 263.829709 102.05568 
L 267.130564 101.4984 
L 270.170816 100.60056 
L 273.218879 100.80696 
L 276.236757 101.45712 
L 279.36 100.55928 
" clip-path="url(#p03d9e33578)" style="fill: none; stroke: #bebebe; stroke-width: 0.5; stroke-linecap: round"/>
   </g>
   <g id="line2d_6">
    <path d="M 8.64 78.05136 
L 11.69386 75.1308 
L 14.747719 72.16896 
L 17.801579 73.08744 
L 20.855439 74.72832 
L 23.909299 74.48064 
L 26.963158 74.28456 
L 30.017018 73.21128 
L 33.070878 70.2804 
L 36.124738 70.2288 
L 39.178597 71.56008 
L 42.232457 73.79952 
L 45.286317 73.35576 
L 48.340177 74.0988 
L 51.394036 75.5952 
L 54.447896 75.5952 
L 57.501756 77.61792 
L 60.555616 77.63856 
L 63.609475 75.40944 
L 66.663335 75.40944 
L 69.717195 75.04824 
L 72.771054 74.98632 
L 75.824914 75.58488 
L 78.878774 75.87384 
L 81.932634 76.49304 
L 84.986493 76.15248 
L 88.040353 75.82224 
L 91.094213 75.84288 
L 94.148073 76.03896 
L 97.201932 75.51264 
L 100.255792 75.56424 
L 103.309652 75.05856 
L 106.363512 73.26288 
L 109.417371 73.20096 
L 112.471231 73.00488 
L 115.525091 71.68392 
L 118.578951 70.6932 
L 121.63281 72.62304 
L 124.68667 73.52088 
L 127.74053 73.83048 
L 130.794389 73.8408 
L 133.848249 73.29384 
L 136.902109 73.72728 
L 139.955969 70.32168 
L 143.009828 69.77472 
L 146.063688 70.34232 
L 149.117548 70.67256 
L 152.171408 70.51776 
L 155.225267 70.848 
L 158.279127 72.31344 
L 161.332987 76.01832 
L 164.386847 75.41976 
L 167.440706 75.83256 
L 170.494566 75.79128 
L 173.548426 75.82224 
L 176.602285 77.82432 
L 179.656145 76.14216 
L 182.710005 74.75928 
L 185.763865 74.96568 
L 188.817724 77.75208 
L 191.871584 79.48584 
L 194.925444 83.31456 
L 197.979304 85.90488 
L 201.033163 84.79032 
L 203.611307 85.84296 
L 206.038171 88.25784 
L 209.090475 91.41576 
L 212.131257 88.7532 
L 215.254925 88.65 
L 218.283583 88.55712 
L 221.354868 88.96992 
L 224.402401 89.7336 
L 227.445268 90.456 
L 230.498209 90.56952 
L 233.515345 89.15568 
L 236.408064 88.9596 
L 239.657809 90.6624 
L 242.328063 89.94 
L 245.760686 90.00192 
L 248.810834 90.3528 
L 251.846845 90.62112 
L 254.882042 90.5076 
L 257.970788 90.3528 
L 261.033837 92.004 
L 263.829709 92.13816 
L 267.130564 91.25064 
L 270.170816 89.166 
L 273.218879 89.56848 
L 276.236757 90.93072 
L 279.36 89.41368 
" clip-path="url(#p03d9e33578)" style="fill: none; stroke: #4a8dff; stroke-width: 0.6"/>
   </g>
   <g id="line2d_7">
    <path d="M 8.64 87.3084 
L 11.69386 82.06584 
L 14.747719 79.71288 
L 17.801579 81.24024 
L 20.855439 84.17112 
L 23.909299 84.24336 
L 26.963158 83.29392 
L 30.017018 82.8192 
L 33.070878 80.64168 
L 36.124738 81.38472 
L 39.178597 80.87904 
L 42.232457 83.13912 
L 45.286317 83.19072 
L 48.340177 85.296 
L 51.394036 87.17424 
L 54.447896 85.71912 
L 57.501756 87.53544 
L 60.555616 88.17528 
L 63.609475 85.41984 
L 66.663335 85.17216 
L 69.717195 84.9348 
L 72.771054 85.01736 
L 75.824914 86.14224 
L 78.878774 85.90488 
L 81.932634 86.328 
L 84.986493 86.24544 
L 88.040353 85.72944 
L 91.094213 85.7088 
L 94.148073 86.40024 
L 97.201932 85.09992 
L 100.255792 86.02872 
L 103.309652 84.78 
L 106.363512 83.53128 
L 109.417371 82.83984 
L 112.471231 82.03488 
L 115.525091 79.39296 
L 118.578951 79.66128 
L 121.63281 82.15872 
L 124.68667 82.43736 
L 127.74053 82.93272 
L 130.794389 83.00496 
L 133.848249 82.6128 
L 136.902109 82.28256 
L 139.955969 78.01008 
L 143.009828 76.19376 
L 146.063688 77.66952 
L 149.117548 77.74176 
L 152.171408 78.1752 
L 155.225267 79.5684 
L 158.279127 80.8068 
L 161.332987 85.20312 
L 164.386847 84.12984 
L 167.440706 84.03696 
L 170.494566 84.06792 
L 173.548426 84.3156 
L 176.602285 87.02976 
L 179.656145 85.21344 
L 182.710005 84.28464 
L 185.763865 84.32592 
L 188.817724 89.08344 
L 191.871584 89.5272 
L 194.925444 95.14128 
L 197.979304 96.98856 
L 201.033163 95.08968 
L 203.611307 97.71096 
L 206.038171 99.80592 
L 209.090475 101.79768 
L 212.131257 100.03296 
L 215.254925 100.518 
L 218.283583 99.98136 
L 221.354868 100.49736 
L 224.402401 100.78632 
L 227.445268 101.07528 
L 230.498209 101.26104 
L 233.515345 100.63152 
L 236.408064 100.38384 
L 239.657809 100.84824 
L 242.328063 100.65216 
L 245.760686 101.034 
L 248.810834 101.19912 
L 251.846845 101.10624 
L 254.882042 100.97208 
L 257.970788 100.91016 
L 261.033837 101.7564 
L 263.829709 101.84928 
L 267.130564 101.56032 
L 270.170816 100.85856 
L 273.218879 101.12688 
L 276.236757 101.4468 
L 279.36 101.02368 
" clip-path="url(#p03d9e33578)" style="fill: none; stroke: #f5841e; stroke-width: 0.6"/>
   </g>
  </g>
 </g>
 <defs>
  <clipPath id="p03d9e33578">
   <rect x="8.64" y="4.8" width="270.72" height="103.2"/>
  </clipPath>
 </defs>
</svg>
