<?xml version="1.0" encoding="utf-8" standalone="no"?>
<!DOCTYPE svg PUBLIC "-//W3C//DTD SVG 1.1//EN"
  "http://www.w3.org/Graphics/SVG/1.1/DTD/svg11.dtd">
<svg xmlns:xlink="http://www.w3.org/1999/xlink" width="288pt" height="120pt" viewBox="0 0 288 120" xmlns="http://www.w3.org/2000/svg" version="1.1">
<desc id="nav-meta">{"window":"1m","count":4,"labels":["25.01","04.02","14.02","24.02"],"tick_utc":["2026-01-25T12:00:00Z","2026-02-04T08:15:41Z","2026-02-14T03:16:28Z","2026-02-24T01:30:44Z"],"w":720,"h":300}</desc>

 <metadata>
  <rdf:RDF xmlns:dc="http://purl.org/dc/elements/1.1/" xmlns:cc="http://creativecommons.org/ns#" xmlns:rdf="http://www.w3.org/1999/02/22-rdf-syntax-ns#">
   <cc:Work>
    <dc:type rdf:resource="http://purl.org/dc/dcmitype/StillImage"/>
    <dc:date>2026-02-24T07:37:44.279398</dc:date>
    <dc:format>image/svg+xml</dc:format>
    <dc:creator>
     <cc:Agent>
      <dc:title>Matplotlib v3.10.8, https://matplotlib.org/</dc:title>
     </cc:Agent>
    </dc:creator>
   </cc:Work>
  </rdf:RDF>
 </metadata>
 <defs>
  <style type="text/css">*{stroke-linejoin: round; stroke-linecap: butt}</style>
 </defs>
 <g id="figure_1">
  <g id="patch_1">
   <path d="M 0 120 
L 288 120 
L 288 0 
L 0 0 
L 0 120 
z
" style="fill: none; opacity: 0"/>
  </g>
  <g id="axes_1">
   <g id="patch_2">
    <path d="M 8.64 108 
L 279.36 108 
L 279.36 4.8 
L 8.64 4.8 
L 8.64 108 
z
" style="fill: none"/>
   </g>
   <g id="matplotlib.axis_1"/>
   <g id="matplotlib.axis_2"/>
   <g id="line2d_1">
    <path d="M 8.64 87.36 
L 279.36 87.36 
" clip-path="url(#p0a618201f2)" style="fill: none; stroke: #b2b2b2; stroke-opacity: 0.35; stroke-width: 0.5; stroke-linecap: square"/>
   </g>
   <g id="line2d_2">
    <path d="M 8.64 66.72 
L 279.36 66.72 
" clip-path="url(#p0a618201f2)" style="fill: none; stroke: #b2b2b2; stroke-opacity: 0.35; stroke-width: 0.5; stroke-linecap: square"/>
   </g>
   <g id="line2d_3">
    <path d="M 8.64 46.08 
L 279.36 46.08 
" clip-path="url(#p0a618201f2)" style="fill: none; stroke: #b2b2b2; stroke-opacity: 0.35; stroke-width: 0.5; stroke-linecap: square"/>
   </g>
   <g id="line2d_4">
    <path d="M 8.64 25.44 
L 279.36 25.44 
" clip-path="url(#p0a618201f2)" style="fill: none; stroke: #b2b2b2; stroke-opacity: 0.35; stroke-width: 0.5; stroke-linecap: square"/>
   </g>
   <g id="line2d_5">
    <path d="M 8.64 91.78728 
L 17.79739 94.0164 
L 26.95478 92.5716 
L 36.112169 91.76664 
L 45.269559 92.33424 
L 54.426949 94.36728 
L 63.584339 94.46016 
L 72.741729 97.71096 
L 81.899119 98.48496 
L 91.056508 97.85544 
L 98.787402 99.10416 
L 106.064665 100.16712 
L 115.217391 102.23112 
L 124.335565 100.54896 
L 133.702282 100.70376 
L 142.784102 100.68312 
L 151.993744 100.95144 
L 161.132162 101.28168 
L 170.25659 101.71512 
L 179.411224 101.84928 
L 188.458492 101.034 
L 197.132681 100.54896 
L 206.877458 101.04432 
L 214.884556 100.81728 
L 225.177717 101.034 
L 234.323978 101.4984 
L 243.427844 101.33328 
L 252.529272 101.1372 
L 261.791272 101.06496 
L 270.976219 102.09696 
L 279.36 102.05568 
" clip-path="url(#p0a618201f2)" style="fill: none; stroke: #bebebe; stroke-width: 0.5; stroke-linecap: round"/>
   </g>
   <g id="line2d_6">
    <path d="M 8.64 75.82224 
L 17.79739 77.82432 
L 26.95478 76.14216 
L 36.112169 74.75928 
L 45.269559 74.96568 
L 54.426949 77.75208 
L 63.584339 79.48584 
L 72.741729 83.31456 
L 81.899119 85.90488 
L 91.056508 84.79032 
L 98.787402 85.84296 
L 106.064665 88.25784 
L 115.217391 91.41576 
L 124.335565 88.7532 
L 133.702282 88.65 
L 142.784102 88.55712 
L 151.993744 88.96992 
L 161.132162 89.7336 
L 170.25659 90.456 
L 179.411224 90.56952 
L 188.458492 89.15568 
L 197.132681 88.9596 
L 206.877458 90.6624 
L 214.884556 89.94 
L 225.177717 90.00192 
L 234.323978 90.3528 
L 243.427844 90.62112 
L 252.529272 90.5076 
L 261.791272 90.3528 
L 270.976219 92.004 
L 279.36 92.13816 
" clip-path="url(#p0a618201f2)" style="fill: none; stroke: #4a8dff; stroke-width: 0.6"/>
   </g>
   <g id="line2d_7">
    <path d="M 8.64 84.3156 
L 17.79739 87.02976 
L 26.95478 85.21344 
L 36.112169 84.28464 
L 45.269559 84.32592 
L 54.426949 89.08344 
L 63.584339 89.5272 
L 72.741729 95.14128 
L 81.899119 96.98856 
L 91.056508 95.08968 
L 98.787402 97.71096 
L 106.064665 99.80592 
L 115.217391 101.79768 
L 124.335565 100.03296 
L 133.702282 100.518 
L 142.784102 99.98136 
L 151.993744 100.49736 
L 161.132162 100.78632 
L 170.25659 101.07528 
L 179.411224 101.26104 
L 188.458492 100.63152 
L 197.132681 100.38384 
L 206.877458 100.84824 
L 214.884556 100.65216 
L 225.177717 101.034 
L 234.323978 101.19912 
L 243.427844 101.10624 
L 252.529272 100.97208 
L 261.791272 100.91016 
L 270.976219 101.7564 
L 279.36 101.84928 
" clip-path="url(#p0a618201f2)" style="fill: none; stroke: #f5841e; stroke-width: 0.6"/>
   </g>
  </g>
 </g>
 <defs>
  <clipPath id="p0a618201f2">
   <rect x="8.64" y="4.8" width="270.72" height="103.2"/>
  </clipPath>
 </defs>
</svg>
