<?xml version="1.0" encoding="utf-8" standalone="no"?>
<!DOCTYPE svg PUBLIC "-//W3C//DTD SVG 1.1//EN"
  "http://www.w3.org/Graphics/SVG/1.1/DTD/svg11.dtd">
<svg xmlns:xlink="http://www.w3.org/1999/xlink" width="288pt" height="120pt" viewBox="0 0 288 120" xmlns="http://www.w3.org/2000/svg" version="1.1">
<desc id="nav-meta">{"window":"1m","count":4,"labels":["14.02","24.02","05.03","15.03"],"tick_utc":["2026-02-14T03:16:28Z","2026-02-24T01:30:44Z","2026-03-05T03:17:19Z","2026-03-15T03:42:35Z"],"w":720,"h":300}</desc>

 <metadata>
  <rdf:RDF xmlns:dc="http://purl.org/dc/elements/1.1/" xmlns:cc="http://creativecommons.org/ns#" xmlns:rdf="http://www.w3.org/1999/02/22-rdf-syntax-ns#">
   <cc:Work>
    <dc:type rdf:resource="http://purl.org/dc/dcmitype/StillImage"/>
    <dc:date>2026-03-15T03:42:37.204020</dc:date>
    <dc:format>image/svg+xml</dc:format>
    <dc:creator>
     <cc:Agent>
      <dc:title>Matplotlib v3.10.8, https://matplotlib.org/</dc:title>
     </cc:Agent>
    </dc:creator>
   </cc:Work>
  </rdf:RDF>
 </metadata>
 <defs>
  <style type="text/css">*{stroke-linejoin: round; stroke-linecap: butt}</style>
 </defs>
 <g id="figure_1">
  <g id="patch_1">
   <path d="M 0 120 
L 288 120 
L 288 0 
L 0 0 
L 0 120 
z
" style="fill: none; opacity: 0"/>
  </g>
  <g id="axes_1">
   <g id="patch_2">
    <path d="M 8.64 108 
L 279.36 108 
L 279.36 4.8 
L 8.64 4.8 
L 8.64 108 
z
" style="fill: none"/>
   </g>
   <g id="matplotlib.axis_1"/>
   <g id="matplotlib.axis_2"/>
   <g id="line2d_1">
    <path d="M 8.64 87.36 
L 279.36 87.36 
" clip-path="url(#pe2f12fabda)" style="fill: none; stroke: #b2b2b2; stroke-opacity: 0.35; stroke-width: 0.5; stroke-linecap: square"/>
   </g>
   <g id="line2d_2">
    <path d="M 8.64 66.72 
L 279.36 66.72 
" clip-path="url(#pe2f12fabda)" style="fill: none; stroke: #b2b2b2; stroke-opacity: 0.35; stroke-width: 0.5; stroke-linecap: square"/>
   </g>
   <g id="line2d_3">
    <path d="M 8.64 46.08 
L 279.36 46.08 
" clip-path="url(#pe2f12fabda)" style="fill: none; stroke: #b2b2b2; stroke-opacity: 0.35; stroke-width: 0.5; stroke-linecap: square"/>
   </g>
   <g id="line2d_4">
    <path d="M 8.64 25.44 
L 279.36 25.44 
" clip-path="url(#pe2f12fabda)" style="fill: none; stroke: #b2b2b2; stroke-opacity: 0.35; stroke-width: 0.5; stroke-linecap: square"/>
   </g>
   <g id="line2d_5">
    <path d="M 8.64 101.034 
L 17.477064 100.54896 
L 27.404819 101.04432 
L 35.562266 100.81728 
L 46.048701 101.034 
L 55.366701 101.4984 
L 64.64151 101.33328 
L 73.913835 101.1372 
L 83.349748 101.06496 
L 92.70716 102.09696 
L 101.248363 102.05568 
L 111.332255 101.4984 
L 120.620021 100.60056 
L 129.93165 100.80696 
L 139.151066 101.45712 
L 148.692365 100.55928 
L 157.925386 101.10624 
L 167.276428 100.8792 
L 176.553504 100.74504 
L 185.902926 100.21872 
L 195.227837 100.53864 
L 204.485585 101.07528 
L 213.905517 101.38488 
L 223.262821 101.26104 
L 232.532231 100.78632 
L 241.857897 100.91016 
L 251.223948 100.99272 
L 260.535253 100.38384 
L 269.852174 100.50768 
L 279.36 100.60056 
" clip-path="url(#pe2f12fabda)" style="fill: none; stroke: #bebebe; stroke-width: 0.5; stroke-linecap: round"/>
   </g>
   <g id="line2d_6">
    <path d="M 8.64 89.15568 
L 17.477064 88.9596 
L 27.404819 90.6624 
L 35.562266 89.94 
L 46.048701 90.00192 
L 55.366701 90.3528 
L 64.64151 90.62112 
L 73.913835 90.5076 
L 83.349748 90.3528 
L 92.70716 92.004 
L 101.248363 92.13816 
L 111.332255 91.25064 
L 120.620021 89.166 
L 129.93165 89.56848 
L 139.151066 90.93072 
L 148.692365 89.41368 
L 157.925386 90.37344 
L 167.276428 89.79552 
L 176.553504 90.23928 
L 185.902926 88.0824 
L 195.227837 88.7532 
L 204.485585 90.16704 
L 213.905517 90.67272 
L 223.262821 90.18768 
L 232.532231 89.2692 
L 241.857897 89.54784 
L 251.223948 89.49624 
L 260.535253 88.31976 
L 269.852174 88.45392 
L 279.36 88.46424 
" clip-path="url(#pe2f12fabda)" style="fill: none; stroke: #4a8dff; stroke-width: 0.6"/>
   </g>
   <g id="line2d_7">
    <path d="M 8.64 100.63152 
L 17.477064 100.38384 
L 27.404819 100.84824 
L 35.562266 100.65216 
L 46.048701 101.034 
L 55.366701 101.19912 
L 64.64151 101.10624 
L 73.913835 100.97208 
L 83.349748 100.91016 
L 92.70716 101.7564 
L 101.248363 101.84928 
L 111.332255 101.56032 
L 120.620021 100.85856 
L 129.93165 101.12688 
L 139.151066 101.4468 
L 148.692365 101.02368 
L 157.925386 101.30232 
L 167.276428 100.81728 
L 176.553504 100.79664 
L 185.902926 99.3312 
L 195.227837 99.92976 
L 204.485585 100.78632 
L 213.905517 101.17848 
L 223.262821 101.1372 
L 232.532231 100.21872 
L 241.857897 100.37352 
L 251.223948 100.4664 
L 260.535253 99.88848 
L 269.852174 99.94008 
L 279.36 99.81624 
" clip-path="url(#pe2f12fabda)" style="fill: none; stroke: #f5841e; stroke-width: 0.6"/>
   </g>
  </g>
 </g>
 <defs>
  <clipPath id="pe2f12fabda">
   <rect x="8.64" y="4.8" width="270.72" height="103.2"/>
  </clipPath>
 </defs>
</svg>
