<?xml version="1.0" encoding="utf-8" standalone="no"?>
<!DOCTYPE svg PUBLIC "-//W3C//DTD SVG 1.1//EN"
  "http://www.w3.org/Graphics/SVG/1.1/DTD/svg11.dtd">
<svg xmlns:xlink="http://www.w3.org/1999/xlink" width="288pt" height="120pt" viewBox="0 0 288 120" xmlns="http://www.w3.org/2000/svg" version="1.1">
<desc id="nav-meta">{"window":"3m","count":4,"labels":["24.01","23.02","24.03","23.04"],"tick_utc":["2026-01-24T12:00:00Z","2026-02-23T03:32:23Z","2026-03-24T03:21:58Z","2026-04-23T03:57:29Z"],"w":720,"h":300}</desc>

 <metadata>
  <rdf:RDF xmlns:dc="http://purl.org/dc/elements/1.1/" xmlns:cc="http://creativecommons.org/ns#" xmlns:rdf="http://www.w3.org/1999/02/22-rdf-syntax-ns#">
   <cc:Work>
    <dc:type rdf:resource="http://purl.org/dc/dcmitype/StillImage"/>
    <dc:date>2026-04-23T19:53:03.652433</dc:date>
    <dc:format>image/svg+xml</dc:format>
    <dc:creator>
     <cc:Agent>
      <dc:title>Matplotlib v3.10.8, https://matplotlib.org/</dc:title>
     </cc:Agent>
    </dc:creator>
   </cc:Work>
  </rdf:RDF>
 </metadata>
 <defs>
  <style type="text/css">*{stroke-linejoin: round; stroke-linecap: butt}</style>
 </defs>
 <g id="figure_1">
  <g id="patch_1">
   <path d="M 0 120 
L 288 120 
L 288 0 
L 0 0 
L 0 120 
z
" style="fill: none; opacity: 0"/>
  </g>
  <g id="axes_1">
   <g id="patch_2">
    <path d="M 8.64 108 
L 279.36 108 
L 279.36 4.8 
L 8.64 4.8 
L 8.64 108 
z
" style="fill: none"/>
   </g>
   <g id="matplotlib.axis_1"/>
   <g id="matplotlib.axis_2"/>
   <g id="line2d_1">
    <path d="M 8.64 87.36 
L 279.36 87.36 
" clip-path="url(#pa4baf18c5d)" style="fill: none; stroke: #b2b2b2; stroke-opacity: 0.35; stroke-width: 0.5; stroke-linecap: square"/>
   </g>
   <g id="line2d_2">
    <path d="M 8.64 66.72 
L 279.36 66.72 
" clip-path="url(#pa4baf18c5d)" style="fill: none; stroke: #b2b2b2; stroke-opacity: 0.35; stroke-width: 0.5; stroke-linecap: square"/>
   </g>
   <g id="line2d_3">
    <path d="M 8.64 46.08 
L 279.36 46.08 
" clip-path="url(#pa4baf18c5d)" style="fill: none; stroke: #b2b2b2; stroke-opacity: 0.35; stroke-width: 0.5; stroke-linecap: square"/>
   </g>
   <g id="line2d_4">
    <path d="M 8.64 25.44 
L 279.36 25.44 
" clip-path="url(#pa4baf18c5d)" style="fill: none; stroke: #b2b2b2; stroke-opacity: 0.35; stroke-width: 0.5; stroke-linecap: square"/>
   </g>
   <g id="line2d_5">
    <path d="M 8.64 91.73568 
L 11.693293 91.78728 
L 14.746587 94.0164 
L 17.79988 92.5716 
L 20.853173 91.76664 
L 23.906466 92.33424 
L 26.95976 94.36728 
L 30.013053 94.46016 
L 33.066346 97.71096 
L 36.119639 98.48496 
L 39.172933 97.85544 
L 41.750598 99.10416 
L 44.177012 100.16712 
L 47.22875 102.23112 
L 50.268968 100.54896 
L 53.392056 100.70376 
L 56.420152 100.68312 
L 59.490868 100.95144 
L 62.537835 101.28168 
L 65.580138 101.71512 
L 68.632513 101.84928 
L 71.649089 101.034 
L 74.541271 100.54896 
L 77.790413 101.04432 
L 80.460172 100.81728 
L 83.892158 101.034 
L 86.941741 101.4984 
L 89.977188 101.33328 
L 93.011822 101.1372 
L 96.099995 101.06496 
L 99.162477 102.09696 
L 101.95783 102.05568 
L 105.258073 101.4984 
L 108.297761 100.60056 
L 111.345258 100.80696 
L 114.362576 101.45712 
L 117.48524 100.55928 
L 120.507011 101.10624 
L 123.567407 100.8792 
L 126.603597 100.74504 
L 129.663463 100.21872 
L 132.715307 100.53864 
L 135.745171 101.07528 
L 138.828113 101.38488 
L 141.89056 101.26104 
L 144.92424 100.78632 
L 147.976331 100.91016 
L 151.04164 100.99272 
L 154.089032 100.38384 
L 157.138261 100.50768 
L 160.24997 100.60056 
L 163.311886 99.76464 
L 166.311746 99.49632 
L 169.388328 99.40344 
L 172.442469 100.09488 
L 175.466042 100.3632 
L 178.501454 100.19808 
L 181.600405 100.47672 
L 184.660873 100.79664 
L 187.685895 100.26 
L 190.966595 99.83688 
L 193.829622 100.13616 
L 196.886768 100.80696 
L 199.910871 101.38488 
L 203.005758 101.3436 
L 206.06778 101.292 
L 209.101814 101.28168 
L 212.181293 101.28168 
L 215.194371 101.8596 
L 218.251162 101.88024 
L 221.278305 101.72544 
L 224.377574 101.68416 
L 227.438748 101.47776 
L 230.472216 101.78736 
L 233.530457 101.09592 
L 236.573113 101.46744 
L 239.654501 101.3436 
L 242.661111 101.05464 
L 245.76918 101.3952 
L 248.838128 101.47776 
L 251.871985 100.86888 
L 254.922946 101.26104 
L 257.989456 100.99272 
L 261.03653 100.61088 
L 264.056145 100.44576 
L 267.14976 100.94112 
L 270.210616 101.09592 
L 273.250516 101.00304 
L 276.294338 100.69344 
L 279.36 100.9308 
" clip-path="url(#pa4baf18c5d)" style="fill: none; stroke: #bebebe; stroke-width: 0.5; stroke-linecap: round"/>
   </g>
   <g id="line2d_6">
    <path d="M 8.64 75.79128 
L 11.693293 75.82224 
L 14.746587 77.82432 
L 17.79988 76.14216 
L 20.853173 74.75928 
L 23.906466 74.96568 
L 26.95976 77.75208 
L 30.013053 79.48584 
L 33.066346 83.31456 
L 36.119639 85.90488 
L 39.172933 84.79032 
L 41.750598 85.84296 
L 44.177012 88.25784 
L 47.22875 91.41576 
L 50.268968 88.7532 
L 53.392056 88.65 
L 56.420152 88.55712 
L 59.490868 88.96992 
L 62.537835 89.7336 
L 65.580138 90.456 
L 68.632513 90.56952 
L 71.649089 89.15568 
L 74.541271 88.9596 
L 77.790413 90.6624 
L 80.460172 89.94 
L 83.892158 90.00192 
L 86.941741 90.3528 
L 89.977188 90.62112 
L 93.011822 90.5076 
L 96.099995 90.3528 
L 99.162477 92.004 
L 101.95783 92.13816 
L 105.258073 91.25064 
L 108.297761 89.166 
L 111.345258 89.56848 
L 114.362576 90.93072 
L 117.48524 89.41368 
L 120.507011 90.37344 
L 123.567407 89.79552 
L 126.603597 90.23928 
L 129.663463 88.0824 
L 132.715307 88.7532 
L 135.745171 90.16704 
L 138.828113 90.67272 
L 141.89056 90.18768 
L 144.92424 89.2692 
L 147.976331 89.54784 
L 151.04164 89.49624 
L 154.089032 88.31976 
L 157.138261 88.45392 
L 160.24997 88.46424 
L 163.311886 86.38992 
L 166.311746 84.80064 
L 169.388328 84.8316 
L 172.442469 86.586 
L 175.466042 87.74184 
L 178.501454 87.618 
L 181.600405 88.19592 
L 184.660873 89.08344 
L 187.685895 87.89664 
L 190.966595 87.3084 
L 193.829622 87.65928 
L 196.886768 88.96992 
L 199.910871 90.07416 
L 203.005758 89.76456 
L 206.06778 89.3724 
L 209.101814 89.00088 
L 212.181293 88.42296 
L 215.194371 88.81512 
L 218.251162 89.10408 
L 221.278305 89.14536 
L 224.377574 89.07312 
L 227.438748 87.9792 
L 230.472216 88.29912 
L 233.530457 86.38992 
L 236.573113 87.24648 
L 239.654501 87.1536 
L 242.661111 86.21448 
L 245.76918 86.66856 
L 248.838128 87.01944 
L 251.871985 84.44976 
L 254.922946 85.05864 
L 257.989456 84.58392 
L 261.03653 85.04832 
L 264.056145 83.71704 
L 267.14976 84.86256 
L 270.210616 85.6572 
L 273.250516 85.27536 
L 276.294338 84.49104 
L 279.36 84.86256 
" clip-path="url(#pa4baf18c5d)" style="fill: none; stroke: #4a8dff; stroke-width: 0.6"/>
   </g>
   <g id="line2d_7">
    <path d="M 8.64 84.06792 
L 11.693293 84.3156 
L 14.746587 87.02976 
L 17.79988 85.21344 
L 20.853173 84.28464 
L 23.906466 84.32592 
L 26.95976 89.08344 
L 30.013053 89.5272 
L 33.066346 95.14128 
L 36.119639 96.98856 
L 39.172933 95.08968 
L 41.750598 97.71096 
L 44.177012 99.80592 
L 47.22875 101.79768 
L 50.268968 100.03296 
L 53.392056 100.518 
L 56.420152 99.98136 
L 59.490868 100.49736 
L 62.537835 100.78632 
L 65.580138 101.07528 
L 68.632513 101.26104 
L 71.649089 100.63152 
L 74.541271 100.38384 
L 77.790413 100.84824 
L 80.460172 100.65216 
L 83.892158 101.034 
L 86.941741 101.19912 
L 89.977188 101.10624 
L 93.011822 100.97208 
L 96.099995 100.91016 
L 99.162477 101.7564 
L 101.95783 101.84928 
L 105.258073 101.56032 
L 108.297761 100.85856 
L 111.345258 101.12688 
L 114.362576 101.4468 
L 117.48524 101.02368 
L 120.507011 101.30232 
L 123.567407 100.81728 
L 126.603597 100.79664 
L 129.663463 99.3312 
L 132.715307 99.92976 
L 135.745171 100.78632 
L 138.828113 101.17848 
L 141.89056 101.1372 
L 144.92424 100.21872 
L 147.976331 100.37352 
L 151.04164 100.4664 
L 154.089032 99.88848 
L 157.138261 99.94008 
L 160.24997 99.81624 
L 163.311886 98.93904 
L 166.311746 98.3508 
L 169.388328 98.52624 
L 172.442469 99.78528 
L 175.466042 100.12584 
L 178.501454 100.03296 
L 181.600405 100.45608 
L 184.660873 100.83792 
L 187.685895 100.11552 
L 190.966595 99.87816 
L 193.829622 100.002 
L 196.886768 100.64184 
L 199.910871 101.41584 
L 203.005758 101.21976 
L 206.06778 101.14752 
L 209.101814 101.00304 
L 212.181293 100.86888 
L 215.194371 101.21976 
L 218.251162 101.28168 
L 221.278305 101.20944 
L 224.377574 101.14752 
L 227.438748 100.55928 
L 230.472216 100.65216 
L 233.530457 99.80592 
L 236.573113 99.96072 
L 239.654501 99.6408 
L 242.661111 99.1764 
L 245.76918 99.70272 
L 248.838128 99.94008 
L 251.871985 98.57784 
L 254.922946 98.65008 
L 257.989456 98.38176 
L 261.03653 98.48496 
L 264.056145 96.70992 
L 267.14976 98.05152 
L 270.210616 98.48496 
L 273.250516 97.96896 
L 276.294338 96.32808 
L 279.36 96.20424 
" clip-path="url(#pa4baf18c5d)" style="fill: none; stroke: #f5841e; stroke-width: 0.6"/>
   </g>
  </g>
 </g>
 <defs>
  <clipPath id="pa4baf18c5d">
   <rect x="8.64" y="4.8" width="270.72" height="103.2"/>
  </clipPath>
 </defs>
</svg>
