<?xml version="1.0" encoding="utf-8" standalone="no"?>
<!DOCTYPE svg PUBLIC "-//W3C//DTD SVG 1.1//EN"
  "http://www.w3.org/Graphics/SVG/1.1/DTD/svg11.dtd">
<svg xmlns:xlink="http://www.w3.org/1999/xlink" width="288pt" height="120pt" viewBox="0 0 288 120" xmlns="http://www.w3.org/2000/svg" version="1.1">
<desc id="nav-meta">{"window":"3m","count":4,"labels":["17.03","16.04","15.05","14.06"],"tick_utc":["2026-03-17T03:21:27Z","2026-04-16T03:58:40Z","2026-05-15T04:39:19Z","2026-06-14T05:19:47Z"],"w":720,"h":300}</desc>

 <metadata>
  <rdf:RDF xmlns:dc="http://purl.org/dc/elements/1.1/" xmlns:cc="http://creativecommons.org/ns#" xmlns:rdf="http://www.w3.org/1999/02/22-rdf-syntax-ns#">
   <cc:Work>
    <dc:type rdf:resource="http://purl.org/dc/dcmitype/StillImage"/>
    <dc:date>2026-06-14T20:09:38.879057</dc:date>
    <dc:format>image/svg+xml</dc:format>
    <dc:creator>
     <cc:Agent>
      <dc:title>Matplotlib v3.11.0, https://matplotlib.org/</dc:title>
     </cc:Agent>
    </dc:creator>
   </cc:Work>
  </rdf:RDF>
 </metadata>
 <defs>
  <style type="text/css">*{stroke-linejoin: round; stroke-linecap: butt}</style>
 </defs>
 <g id="figure_1">
  <g id="patch_1">
   <path d="M 0 120 
L 288 120 
L 288 0 
L 0 0 
L 0 120 
z
" style="fill: none; opacity: 0"/>
  </g>
  <g id="axes_1">
   <g id="patch_2">
    <path d="M 8.64 108 
L 279.36 108 
L 279.36 4.8 
L 8.64 4.8 
L 8.64 108 
z
" style="fill: none"/>
   </g>
   <g id="matplotlib.axis_1"/>
   <g id="matplotlib.axis_2"/>
   <g id="line2d_1">
    <path d="M 8.64 87.36 
L 279.36 87.36 
" clip-path="url(#p1a56590406)" style="fill: none; stroke: #b2b2b2; stroke-opacity: 0.35; stroke-width: 0.5; stroke-linecap: square"/>
   </g>
   <g id="line2d_2">
    <path d="M 8.64 66.72 
L 279.36 66.72 
" clip-path="url(#p1a56590406)" style="fill: none; stroke: #b2b2b2; stroke-opacity: 0.35; stroke-width: 0.5; stroke-linecap: square"/>
   </g>
   <g id="line2d_3">
    <path d="M 8.64 46.08 
L 279.36 46.08 
" clip-path="url(#p1a56590406)" style="fill: none; stroke: #b2b2b2; stroke-opacity: 0.35; stroke-width: 0.5; stroke-linecap: square"/>
   </g>
   <g id="line2d_4">
    <path d="M 8.64 25.44 
L 279.36 25.44 
" clip-path="url(#p1a56590406)" style="fill: none; stroke: #b2b2b2; stroke-opacity: 0.35; stroke-width: 0.5; stroke-linecap: square"/>
   </g>
   <g id="line2d_5">
    <path d="M 8.64 99.49632 
L 11.702171 99.40344 
L 14.742007 100.09488 
L 17.751418 100.3632 
L 20.772612 100.19808 
L 23.857048 100.47672 
L 26.90318 100.79664 
L 29.914033 100.26 
L 33.179366 99.83688 
L 36.028984 100.13616 
L 39.071809 100.80696 
L 42.081748 101.38488 
L 45.162139 101.3436 
L 48.209819 101.292 
L 51.229641 101.28168 
L 54.294696 101.28168 
L 57.29366 101.8596 
L 60.336134 101.88024 
L 63.349098 101.72544 
L 66.43385 101.68416 
L 69.480686 101.47776 
L 72.499945 101.78736 
L 75.543861 101.09592 
L 78.572266 101.46744 
L 81.63922 101.3436 
L 84.631748 101.05464 
L 87.725259 101.3952 
L 90.779832 101.47776 
L 93.799479 100.86888 
L 96.836149 101.26104 
L 99.888296 100.99272 
L 102.921097 100.61088 
L 105.926568 100.44576 
L 109.005693 100.94112 
L 112.052212 101.09592 
L 115.077873 101.00304 
L 118.107438 100.69344 
L 121.158741 100.9308 
L 124.205787 100.92048 
L 127.208515 100.81728 
L 130.29478 100.8792 
L 133.366519 100.64184 
L 136.411877 101.1888 
L 139.442568 101.09592 
L 142.486659 101.37456 
L 145.558855 101.21976 
L 148.520289 101.20944 
L 151.620975 101.23008 
L 154.658912 100.92048 
L 157.630968 101.06496 
L 160.723494 100.70376 
L 163.763295 100.55928 
L 166.751707 100.53864 
L 169.801814 99.60984 
L 172.902043 99.72336 
L 175.965023 99.44472 
L 178.961807 99.25896 
L 182.015255 99.32088 
L 185.05087 100.22904 
L 188.104845 100.01232 
L 191.105041 100.43544 
L 194.189406 100.75536 
L 197.257909 101.02368 
L 200.275128 101.02368 
L 203.324989 101.17848 
L 206.381286 100.7244 
L 209.396993 100.75536 
L 212.394233 101.11656 
L 215.481343 100.91016 
L 218.560327 100.89984 
L 221.553276 101.1372 
L 224.623467 101.2404 
L 227.652751 101.6532 
L 230.693994 101.4984 
L 233.689159 101.48808 
L 236.790197 101.32296 
L 239.874141 101.51904 
L 242.883235 101.7048 
L 245.956415 102.54072 
L 248.984996 103.08768 
L 251.973936 103.36632 
L 254.966217 104.22288 
L 258.070526 103.85136 
L 261.122954 103.68624 
L 264.103945 103.43856 
L 267.174452 103.81008 
L 270.231277 103.72752 
L 273.282192 103.50048 
L 276.298954 103.5108 
L 279.36 103.31472 
" clip-path="url(#p1a56590406)" style="fill: none; stroke: #bebebe; stroke-width: 0.5; stroke-linecap: round"/>
   </g>
   <g id="line2d_6">
    <path d="M 8.64 84.80064 
L 11.702171 84.8316 
L 14.742007 86.586 
L 17.751418 87.74184 
L 20.772612 87.618 
L 23.857048 88.19592 
L 26.90318 89.08344 
L 29.914033 87.89664 
L 33.179366 87.3084 
L 36.028984 87.65928 
L 39.071809 88.96992 
L 42.081748 90.07416 
L 45.162139 89.76456 
L 48.209819 89.3724 
L 51.229641 89.00088 
L 54.294696 88.42296 
L 57.29366 88.81512 
L 60.336134 89.10408 
L 63.349098 89.14536 
L 66.43385 89.07312 
L 69.480686 87.9792 
L 72.499945 88.29912 
L 75.543861 86.38992 
L 78.572266 87.24648 
L 81.63922 87.1536 
L 84.631748 86.21448 
L 87.725259 86.66856 
L 90.779832 87.01944 
L 93.799479 84.44976 
L 96.836149 85.05864 
L 99.888296 84.58392 
L 102.921097 85.04832 
L 105.926568 83.71704 
L 109.005693 84.86256 
L 112.052212 85.6572 
L 115.077873 85.27536 
L 118.107438 84.49104 
L 121.158741 84.86256 
L 124.205787 85.32696 
L 127.208515 85.17216 
L 130.29478 85.31664 
L 133.366519 84.11952 
L 136.411877 85.66752 
L 139.442568 85.26504 
L 142.486659 86.26608 
L 145.558855 85.77072 
L 148.520289 85.38888 
L 151.620975 85.3992 
L 154.658912 84.09888 
L 157.630968 84.22272 
L 160.723494 84.34656 
L 163.763295 85.06896 
L 166.751707 85.7604 
L 169.801814 85.0896 
L 172.902043 85.01736 
L 175.965023 84.9348 
L 178.961807 85.296 
L 182.015255 85.35792 
L 185.05087 86.1732 
L 188.104845 85.92552 
L 191.105041 86.55504 
L 194.189406 87.13296 
L 197.257909 88.10304 
L 200.275128 87.9276 
L 203.324989 88.26816 
L 206.381286 87.78312 
L 209.396993 87.95856 
L 212.394233 88.94928 
L 215.481343 88.14432 
L 218.560327 88.33008 
L 221.553276 88.52616 
L 224.623467 88.86672 
L 227.652751 90.22896 
L 230.693994 89.82648 
L 233.689159 89.87808 
L 236.790197 89.46528 
L 239.874141 90.0432 
L 242.883235 89.96064 
L 245.956415 91.99368 
L 248.984996 93.05664 
L 251.973936 93.74808 
L 254.966217 97.02984 
L 258.070526 95.93592 
L 261.122954 95.07936 
L 264.103945 94.46016 
L 267.174452 95.47152 
L 270.231277 95.11032 
L 273.282192 94.82136 
L 276.298954 94.8936 
L 279.36 94.70784 
" clip-path="url(#p1a56590406)" style="fill: none; stroke: #4a8dff; stroke-width: 0.6"/>
   </g>
   <g id="line2d_7">
    <path d="M 8.64 98.3508 
L 11.702171 98.52624 
L 14.742007 99.78528 
L 17.751418 100.12584 
L 20.772612 100.03296 
L 23.857048 100.45608 
L 26.90318 100.83792 
L 29.914033 100.11552 
L 33.179366 99.87816 
L 36.028984 100.002 
L 39.071809 100.64184 
L 42.081748 101.41584 
L 45.162139 101.21976 
L 48.209819 101.14752 
L 51.229641 101.00304 
L 54.294696 100.86888 
L 57.29366 101.21976 
L 60.336134 101.28168 
L 63.349098 101.20944 
L 66.43385 101.14752 
L 69.480686 100.55928 
L 72.499945 100.65216 
L 75.543861 99.80592 
L 78.572266 99.96072 
L 81.63922 99.6408 
L 84.631748 99.1764 
L 87.725259 99.70272 
L 90.779832 99.94008 
L 93.799479 98.57784 
L 96.836149 98.65008 
L 99.888296 98.38176 
L 102.921097 98.48496 
L 105.926568 96.70992 
L 109.005693 98.05152 
L 112.052212 98.48496 
L 115.077873 97.96896 
L 118.107438 96.32808 
L 121.158741 96.20424 
L 124.205787 96.16296 
L 127.208515 96.1836 
L 130.29478 96.50352 
L 133.366519 94.76976 
L 136.411877 97.19496 
L 139.442568 96.9576 
L 142.486659 97.9896 
L 145.558855 96.89568 
L 148.520289 95.45088 
L 151.620975 95.67792 
L 154.658912 93.43848 
L 157.630968 92.90184 
L 160.723494 92.25168 
L 163.763295 92.87088 
L 166.751707 94.2744 
L 169.801814 93.1392 
L 172.902043 92.97408 
L 175.965023 92.9844 
L 178.961807 92.60256 
L 182.015255 92.53032 
L 185.05087 94.54272 
L 188.104845 92.85024 
L 191.105041 94.82136 
L 194.189406 95.75016 
L 197.257909 96.97824 
L 200.275128 97.08144 
L 203.324989 97.23624 
L 206.381286 95.94624 
L 209.396993 96.30744 
L 212.394233 98.08248 
L 215.481343 97.2672 
L 218.560327 96.61704 
L 221.553276 97.23624 
L 224.623467 98.08248 
L 227.652751 99.18672 
L 230.693994 99.03192 
L 233.689159 99.1248 
L 236.790197 98.74296 
L 239.874141 99.09384 
L 242.883235 100.0536 
L 245.956415 101.23008 
L 248.984996 101.99376 
L 251.973936 102.08664 
L 254.966217 102.8916 
L 258.070526 102.45816 
L 261.122954 102.28272 
L 264.103945 102.10728 
L 267.174452 102.582 
L 270.231277 102.29304 
L 273.282192 102.08664 
L 276.298954 102.066 
L 279.36 101.86992 
" clip-path="url(#p1a56590406)" style="fill: none; stroke: #f5841e; stroke-width: 0.6"/>
   </g>
  </g>
 </g>
 <defs>
  <clipPath id="p1a56590406">
   <rect x="8.64" y="4.8" width="270.72" height="103.2"/>
  </clipPath>
 </defs>
</svg>
