<?xml version="1.0" encoding="utf-8" standalone="no"?>
<!DOCTYPE svg PUBLIC "-//W3C//DTD SVG 1.1//EN"
  "http://www.w3.org/Graphics/SVG/1.1/DTD/svg11.dtd">
<svg xmlns:xlink="http://www.w3.org/1999/xlink" width="288pt" height="120pt" viewBox="0 0 288 120" xmlns="http://www.w3.org/2000/svg" version="1.1">
<desc id="nav-meta">{"window":"3m","count":4,"labels":["28.01","27.02","28.03","27.04"],"tick_utc":["2026-01-28T12:00:00Z","2026-02-27T03:18:03Z","2026-03-28T03:27:32Z","2026-04-27T04:22:02Z"],"w":720,"h":300}</desc>

 <metadata>
  <rdf:RDF xmlns:dc="http://purl.org/dc/elements/1.1/" xmlns:cc="http://creativecommons.org/ns#" xmlns:rdf="http://www.w3.org/1999/02/22-rdf-syntax-ns#">
   <cc:Work>
    <dc:type rdf:resource="http://purl.org/dc/dcmitype/StillImage"/>
    <dc:date>2026-04-27T19:57:51.667935</dc:date>
    <dc:format>image/svg+xml</dc:format>
    <dc:creator>
     <cc:Agent>
      <dc:title>Matplotlib v3.10.9, https://matplotlib.org/</dc:title>
     </cc:Agent>
    </dc:creator>
   </cc:Work>
  </rdf:RDF>
 </metadata>
 <defs>
  <style type="text/css">*{stroke-linejoin: round; stroke-linecap: butt}</style>
 </defs>
 <g id="figure_1">
  <g id="patch_1">
   <path d="M 0 120 
L 288 120 
L 288 0 
L 0 0 
L 0 120 
z
" style="fill: none; opacity: 0"/>
  </g>
  <g id="axes_1">
   <g id="patch_2">
    <path d="M 8.64 108 
L 279.36 108 
L 279.36 4.8 
L 8.64 4.8 
L 8.64 108 
z
" style="fill: none"/>
   </g>
   <g id="matplotlib.axis_1"/>
   <g id="matplotlib.axis_2"/>
   <g id="line2d_1">
    <path d="M 8.64 87.36 
L 279.36 87.36 
" clip-path="url(#pc8972a84cb)" style="fill: none; stroke: #b2b2b2; stroke-opacity: 0.35; stroke-width: 0.5; stroke-linecap: square"/>
   </g>
   <g id="line2d_2">
    <path d="M 8.64 66.72 
L 279.36 66.72 
" clip-path="url(#pc8972a84cb)" style="fill: none; stroke: #b2b2b2; stroke-opacity: 0.35; stroke-width: 0.5; stroke-linecap: square"/>
   </g>
   <g id="line2d_3">
    <path d="M 8.64 46.08 
L 279.36 46.08 
" clip-path="url(#pc8972a84cb)" style="fill: none; stroke: #b2b2b2; stroke-opacity: 0.35; stroke-width: 0.5; stroke-linecap: square"/>
   </g>
   <g id="line2d_4">
    <path d="M 8.64 25.44 
L 279.36 25.44 
" clip-path="url(#pc8972a84cb)" style="fill: none; stroke: #b2b2b2; stroke-opacity: 0.35; stroke-width: 0.5; stroke-linecap: square"/>
   </g>
   <g id="line2d_5">
    <path d="M 8.64 91.76664 
L 11.692706 92.33424 
L 14.745413 94.36728 
L 17.798119 94.46016 
L 20.850825 97.71096 
L 23.903531 98.48496 
L 26.956238 97.85544 
L 29.533407 99.10416 
L 31.959355 100.16712 
L 35.010506 102.23112 
L 38.05014 100.54896 
L 41.172627 100.70376 
L 44.200142 100.68312 
L 47.270267 100.95144 
L 50.316649 101.28168 
L 53.358367 101.71512 
L 56.410154 101.84928 
L 59.42615 101.034 
L 62.317777 100.54896 
L 65.566294 101.04432 
L 68.23554 100.81728 
L 71.666867 101.034 
L 74.715863 101.4984 
L 77.750726 101.33328 
L 80.784777 101.1372 
L 83.872356 101.06496 
L 86.934249 102.09696 
L 89.729065 102.05568 
L 93.028673 101.4984 
L 96.067777 100.60056 
L 99.114689 100.80696 
L 102.131427 101.45712 
L 105.25349 100.55928 
L 108.27468 101.10624 
L 111.334488 100.8792 
L 114.370094 100.74504 
L 117.429372 100.21872 
L 120.480629 100.53864 
L 123.50991 101.07528 
L 126.59226 101.38488 
L 129.654118 101.26104 
L 132.687215 100.78632 
L 135.73872 100.91016 
L 138.803439 100.99272 
L 141.850245 100.38384 
L 144.898888 100.50768 
L 148.009998 100.60056 
L 151.071326 99.76464 
L 154.07061 99.49632 
L 157.1466 99.40344 
L 160.200154 100.09488 
L 163.223146 100.3632 
L 166.257974 100.19808 
L 169.35633 100.47672 
L 172.416208 100.79664 
L 175.440649 100.26 
L 178.720718 99.83688 
L 181.583196 100.13616 
L 184.639753 100.80696 
L 187.663275 101.38488 
L 190.757567 101.3436 
L 193.819001 101.292 
L 196.852451 101.28168 
L 199.931338 101.28168 
L 202.943837 101.8596 
L 206.000041 101.88024 
L 209.026601 101.72544 
L 212.125275 101.68416 
L 215.18586 101.47776 
L 218.218745 101.78736 
L 221.276398 101.09592 
L 224.318469 101.46744 
L 227.399264 101.3436 
L 230.405297 101.05464 
L 233.512768 101.3952 
L 236.581127 101.47776 
L 239.6144 100.86888 
L 242.664774 101.26104 
L 245.730695 100.99272 
L 248.777183 100.61088 
L 251.796217 100.44576 
L 254.889238 100.94112 
L 257.949505 101.09592 
L 260.988821 101.00304 
L 264.032058 100.69344 
L 267.09713 100.9308 
L 270.157928 100.92048 
L 273.174207 100.81728 
L 276.274399 100.8792 
L 279.36 100.64184 
" clip-path="url(#pc8972a84cb)" style="fill: none; stroke: #bebebe; stroke-width: 0.5; stroke-linecap: round"/>
   </g>
   <g id="line2d_6">
    <path d="M 8.64 74.75928 
L 11.692706 74.96568 
L 14.745413 77.75208 
L 17.798119 79.48584 
L 20.850825 83.31456 
L 23.903531 85.90488 
L 26.956238 84.79032 
L 29.533407 85.84296 
L 31.959355 88.25784 
L 35.010506 91.41576 
L 38.05014 88.7532 
L 41.172627 88.65 
L 44.200142 88.55712 
L 47.270267 88.96992 
L 50.316649 89.7336 
L 53.358367 90.456 
L 56.410154 90.56952 
L 59.42615 89.15568 
L 62.317777 88.9596 
L 65.566294 90.6624 
L 68.23554 89.94 
L 71.666867 90.00192 
L 74.715863 90.3528 
L 77.750726 90.62112 
L 80.784777 90.5076 
L 83.872356 90.3528 
L 86.934249 92.004 
L 89.729065 92.13816 
L 93.028673 91.25064 
L 96.067777 89.166 
L 99.114689 89.56848 
L 102.131427 90.93072 
L 105.25349 89.41368 
L 108.27468 90.37344 
L 111.334488 89.79552 
L 114.370094 90.23928 
L 117.429372 88.0824 
L 120.480629 88.7532 
L 123.50991 90.16704 
L 126.59226 90.67272 
L 129.654118 90.18768 
L 132.687215 89.2692 
L 135.73872 89.54784 
L 138.803439 89.49624 
L 141.850245 88.31976 
L 144.898888 88.45392 
L 148.009998 88.46424 
L 151.071326 86.38992 
L 154.07061 84.80064 
L 157.1466 84.8316 
L 160.200154 86.586 
L 163.223146 87.74184 
L 166.257974 87.618 
L 169.35633 88.19592 
L 172.416208 89.08344 
L 175.440649 87.89664 
L 178.720718 87.3084 
L 181.583196 87.65928 
L 184.639753 88.96992 
L 187.663275 90.07416 
L 190.757567 89.76456 
L 193.819001 89.3724 
L 196.852451 89.00088 
L 199.931338 88.42296 
L 202.943837 88.81512 
L 206.000041 89.10408 
L 209.026601 89.14536 
L 212.125275 89.07312 
L 215.18586 87.9792 
L 218.218745 88.29912 
L 221.276398 86.38992 
L 224.318469 87.24648 
L 227.399264 87.1536 
L 230.405297 86.21448 
L 233.512768 86.66856 
L 236.581127 87.01944 
L 239.6144 84.44976 
L 242.664774 85.05864 
L 245.730695 84.58392 
L 248.777183 85.04832 
L 251.796217 83.71704 
L 254.889238 84.86256 
L 257.949505 85.6572 
L 260.988821 85.27536 
L 264.032058 84.49104 
L 267.09713 84.86256 
L 270.157928 85.32696 
L 273.174207 85.17216 
L 276.274399 85.31664 
L 279.36 84.11952 
" clip-path="url(#pc8972a84cb)" style="fill: none; stroke: #4a8dff; stroke-width: 0.6"/>
   </g>
   <g id="line2d_7">
    <path d="M 8.64 84.28464 
L 11.692706 84.32592 
L 14.745413 89.08344 
L 17.798119 89.5272 
L 20.850825 95.14128 
L 23.903531 96.98856 
L 26.956238 95.08968 
L 29.533407 97.71096 
L 31.959355 99.80592 
L 35.010506 101.79768 
L 38.05014 100.03296 
L 41.172627 100.518 
L 44.200142 99.98136 
L 47.270267 100.49736 
L 50.316649 100.78632 
L 53.358367 101.07528 
L 56.410154 101.26104 
L 59.42615 100.63152 
L 62.317777 100.38384 
L 65.566294 100.84824 
L 68.23554 100.65216 
L 71.666867 101.034 
L 74.715863 101.19912 
L 77.750726 101.10624 
L 80.784777 100.97208 
L 83.872356 100.91016 
L 86.934249 101.7564 
L 89.729065 101.84928 
L 93.028673 101.56032 
L 96.067777 100.85856 
L 99.114689 101.12688 
L 102.131427 101.4468 
L 105.25349 101.02368 
L 108.27468 101.30232 
L 111.334488 100.81728 
L 114.370094 100.79664 
L 117.429372 99.3312 
L 120.480629 99.92976 
L 123.50991 100.78632 
L 126.59226 101.17848 
L 129.654118 101.1372 
L 132.687215 100.21872 
L 135.73872 100.37352 
L 138.803439 100.4664 
L 141.850245 99.88848 
L 144.898888 99.94008 
L 148.009998 99.81624 
L 151.071326 98.93904 
L 154.07061 98.3508 
L 157.1466 98.52624 
L 160.200154 99.78528 
L 163.223146 100.12584 
L 166.257974 100.03296 
L 169.35633 100.45608 
L 172.416208 100.83792 
L 175.440649 100.11552 
L 178.720718 99.87816 
L 181.583196 100.002 
L 184.639753 100.64184 
L 187.663275 101.41584 
L 190.757567 101.21976 
L 193.819001 101.14752 
L 196.852451 101.00304 
L 199.931338 100.86888 
L 202.943837 101.21976 
L 206.000041 101.28168 
L 209.026601 101.20944 
L 212.125275 101.14752 
L 215.18586 100.55928 
L 218.218745 100.65216 
L 221.276398 99.80592 
L 224.318469 99.96072 
L 227.399264 99.6408 
L 230.405297 99.1764 
L 233.512768 99.70272 
L 236.581127 99.94008 
L 239.6144 98.57784 
L 242.664774 98.65008 
L 245.730695 98.38176 
L 248.777183 98.48496 
L 251.796217 96.70992 
L 254.889238 98.05152 
L 257.949505 98.48496 
L 260.988821 97.96896 
L 264.032058 96.32808 
L 267.09713 96.20424 
L 270.157928 96.16296 
L 273.174207 96.1836 
L 276.274399 96.50352 
L 279.36 94.76976 
" clip-path="url(#pc8972a84cb)" style="fill: none; stroke: #f5841e; stroke-width: 0.6"/>
   </g>
  </g>
 </g>
 <defs>
  <clipPath id="pc8972a84cb">
   <rect x="8.64" y="4.8" width="270.72" height="103.2"/>
  </clipPath>
 </defs>
</svg>
