<?xml version="1.0" encoding="utf-8" standalone="no"?>
<!DOCTYPE svg PUBLIC "-//W3C//DTD SVG 1.1//EN"
  "http://www.w3.org/Graphics/SVG/1.1/DTD/svg11.dtd">
<svg xmlns:xlink="http://www.w3.org/1999/xlink" width="288pt" height="120pt" viewBox="0 0 288 120" xmlns="http://www.w3.org/2000/svg" version="1.1">
<desc id="nav-meta">{"window":"3m","count":4,"labels":["08.11","08.12","06.01","05.02"],"tick_utc":["2025-11-08T12:00:00Z","2025-12-08T12:00:00Z","2026-01-06T12:00:00Z","2026-02-05T03:20:02Z"],"w":720,"h":300}</desc>

 <metadata>
  <rdf:RDF xmlns:dc="http://purl.org/dc/elements/1.1/" xmlns:cc="http://creativecommons.org/ns#" xmlns:rdf="http://www.w3.org/1999/02/22-rdf-syntax-ns#">
   <cc:Work>
    <dc:type rdf:resource="http://purl.org/dc/dcmitype/StillImage"/>
    <dc:date>2026-02-05T15:09:21.691885</dc:date>
    <dc:format>image/svg+xml</dc:format>
    <dc:creator>
     <cc:Agent>
      <dc:title>Matplotlib v3.10.8, https://matplotlib.org/</dc:title>
     </cc:Agent>
    </dc:creator>
   </cc:Work>
  </rdf:RDF>
 </metadata>
 <defs>
  <style type="text/css">*{stroke-linejoin: round; stroke-linecap: butt}</style>
 </defs>
 <g id="figure_1">
  <g id="patch_1">
   <path d="M 0 120 
L 288 120 
L 288 0 
L 0 0 
L 0 120 
z
" style="fill: none; opacity: 0"/>
  </g>
  <g id="axes_1">
   <g id="patch_2">
    <path d="M 8.64 108 
L 279.36 108 
L 279.36 4.8 
L 8.64 4.8 
L 8.64 108 
z
" style="fill: none"/>
   </g>
   <g id="matplotlib.axis_1"/>
   <g id="matplotlib.axis_2"/>
   <g id="line2d_1">
    <path d="M 8.64 87.36 
L 279.36 87.36 
" clip-path="url(#pae4b26d90b)" style="fill: none; stroke: #b2b2b2; stroke-opacity: 0.35; stroke-width: 0.5; stroke-linecap: square"/>
   </g>
   <g id="line2d_2">
    <path d="M 8.64 66.72 
L 279.36 66.72 
" clip-path="url(#pae4b26d90b)" style="fill: none; stroke: #b2b2b2; stroke-opacity: 0.35; stroke-width: 0.5; stroke-linecap: square"/>
   </g>
   <g id="line2d_3">
    <path d="M 8.64 46.08 
L 279.36 46.08 
" clip-path="url(#pae4b26d90b)" style="fill: none; stroke: #b2b2b2; stroke-opacity: 0.35; stroke-width: 0.5; stroke-linecap: square"/>
   </g>
   <g id="line2d_4">
    <path d="M 8.64 25.44 
L 279.36 25.44 
" clip-path="url(#pae4b26d90b)" style="fill: none; stroke: #b2b2b2; stroke-opacity: 0.35; stroke-width: 0.5; stroke-linecap: square"/>
   </g>
   <g id="line2d_5">
    <path d="M 8.64 82.27224 
L 11.694189 83.29392 
L 14.748378 81.62208 
L 17.802567 80.72424 
L 20.856756 84.33624 
L 23.910946 84.64584 
L 26.965135 86.844 
L 30.019324 88.52616 
L 33.073513 88.36104 
L 36.127702 88.93896 
L 39.181891 90.79656 
L 42.23608 88.09272 
L 45.290269 89.22792 
L 48.344458 90.00192 
L 51.398648 91.39512 
L 54.452837 91.63248 
L 57.507026 90.75528 
L 60.561215 88.7016 
L 63.615404 88.52616 
L 66.669593 87.45288 
L 69.723782 88.0308 
L 72.777971 88.94928 
L 75.83216 89.3208 
L 78.88635 89.7336 
L 81.940539 91.86984 
L 84.994728 88.60872 
L 88.048917 86.87496 
L 91.103106 88.52616 
L 94.157295 90.11544 
L 97.211484 90.38376 
L 100.265673 90.53856 
L 103.319862 90.08448 
L 106.374052 88.79448 
L 109.428241 89.20728 
L 112.48243 89.22792 
L 115.536619 90.31152 
L 118.590808 90.10512 
L 121.644997 91.09584 
L 124.699186 91.61184 
L 127.753375 91.31256 
L 130.807564 92.87088 
L 133.861754 93.8616 
L 136.915943 92.02464 
L 139.970132 92.13816 
L 143.024321 92.07624 
L 146.07851 92.14848 
L 149.132699 92.64384 
L 152.186888 93.01536 
L 155.241077 93.69648 
L 158.295266 93.11856 
L 161.349456 92.44776 
L 164.403645 92.30328 
L 167.457834 92.87088 
L 170.512023 92.38584 
L 173.566212 92.47872 
L 176.620401 91.88016 
L 179.67459 90.42504 
L 182.728779 90.08448 
L 185.782968 89.92968 
L 188.837158 88.76352 
L 191.891347 87.94824 
L 194.945536 89.2692 
L 197.999725 88.72224 
L 201.053914 89.39304 
L 204.108103 89.40336 
L 207.162292 88.41264 
L 210.216481 88.4952 
L 213.27067 86.86464 
L 216.32486 86.42088 
L 219.379049 87.62832 
L 222.433238 86.93688 
L 225.487427 87.23616 
L 228.541616 88.63968 
L 231.595805 90.0432 
L 234.649994 92.12784 
L 237.704183 91.16808 
L 240.758372 91.46736 
L 243.812562 91.73568 
L 246.866751 91.78728 
L 249.92094 94.0164 
L 252.975129 92.5716 
L 256.029318 91.76664 
L 259.083507 92.33424 
L 262.137696 94.36728 
L 265.191885 94.46016 
L 268.246074 97.71096 
L 271.300264 98.48496 
L 274.354453 97.85544 
L 276.932874 99.10416 
L 279.36 100.16712 
" clip-path="url(#pae4b26d90b)" style="fill: none; stroke: #bebebe; stroke-width: 0.5; stroke-linecap: round"/>
   </g>
   <g id="line2d_6">
    <path d="M 8.64 68.61888 
L 11.694189 69.11424 
L 14.748378 66.5136 
L 17.802567 66.68904 
L 20.856756 68.8872 
L 23.910946 68.9904 
L 26.965135 71.5704 
L 30.019324 73.48992 
L 33.073513 72.54048 
L 36.127702 73.56216 
L 39.181891 74.74896 
L 42.23608 73.3248 
L 45.290269 74.80056 
L 48.344458 77.556 
L 51.398648 78.55704 
L 54.452837 78.50544 
L 57.507026 78.04104 
L 60.561215 75.76032 
L 63.615404 75.73968 
L 66.669593 74.65608 
L 69.723782 74.83152 
L 72.777971 74.57352 
L 75.83216 75.20304 
L 78.88635 75.17208 
L 81.940539 78.05136 
L 84.994728 75.1308 
L 88.048917 72.16896 
L 91.103106 73.08744 
L 94.157295 74.72832 
L 97.211484 74.48064 
L 100.265673 74.28456 
L 103.319862 73.21128 
L 106.374052 70.2804 
L 109.428241 70.2288 
L 112.48243 71.56008 
L 115.536619 73.79952 
L 118.590808 73.35576 
L 121.644997 74.0988 
L 124.699186 75.5952 
L 127.753375 75.5952 
L 130.807564 77.61792 
L 133.861754 77.63856 
L 136.915943 75.40944 
L 139.970132 75.40944 
L 143.024321 75.04824 
L 146.07851 74.98632 
L 149.132699 75.58488 
L 152.186888 75.87384 
L 155.241077 76.49304 
L 158.295266 76.15248 
L 161.349456 75.82224 
L 164.403645 75.84288 
L 167.457834 76.03896 
L 170.512023 75.51264 
L 173.566212 75.56424 
L 176.620401 75.05856 
L 179.67459 73.26288 
L 182.728779 73.20096 
L 185.782968 73.00488 
L 188.837158 71.68392 
L 191.891347 70.6932 
L 194.945536 72.62304 
L 197.999725 73.52088 
L 201.053914 73.83048 
L 204.108103 73.8408 
L 207.162292 73.29384 
L 210.216481 73.72728 
L 213.27067 70.32168 
L 216.32486 69.77472 
L 219.379049 70.34232 
L 222.433238 70.67256 
L 225.487427 70.51776 
L 228.541616 70.848 
L 231.595805 72.31344 
L 234.649994 76.01832 
L 237.704183 75.41976 
L 240.758372 75.83256 
L 243.812562 75.79128 
L 246.866751 75.82224 
L 249.92094 77.82432 
L 252.975129 76.14216 
L 256.029318 74.75928 
L 259.083507 74.96568 
L 262.137696 77.75208 
L 265.191885 79.48584 
L 268.246074 83.31456 
L 271.300264 85.90488 
L 274.354453 84.79032 
L 276.932874 85.84296 
L 279.36 88.25784 
" clip-path="url(#pae4b26d90b)" style="fill: none; stroke: #4a8dff; stroke-width: 0.6"/>
   </g>
   <g id="line2d_7">
    <path d="M 8.64 69.57864 
L 11.694189 70.72416 
L 14.748378 68.2164 
L 17.802567 66.978 
L 20.856756 70.03272 
L 23.910946 71.5188 
L 26.965135 73.3764 
L 30.019324 78.846 
L 33.073513 77.75208 
L 36.127702 78.88728 
L 39.181891 81.34344 
L 42.23608 80.53848 
L 45.290269 82.0452 
L 48.344458 86.92656 
L 51.398648 88.58808 
L 54.452837 88.96992 
L 57.507026 86.7924 
L 60.561215 85.296 
L 63.615404 86.24544 
L 66.669593 82.96368 
L 69.723782 82.13808 
L 72.777971 82.47864 
L 75.83216 82.58184 
L 78.88635 83.03592 
L 81.940539 87.3084 
L 84.994728 82.06584 
L 88.048917 79.71288 
L 91.103106 81.24024 
L 94.157295 84.17112 
L 97.211484 84.24336 
L 100.265673 83.29392 
L 103.319862 82.8192 
L 106.374052 80.64168 
L 109.428241 81.38472 
L 112.48243 80.87904 
L 115.536619 83.13912 
L 118.590808 83.19072 
L 121.644997 85.296 
L 124.699186 87.17424 
L 127.753375 85.71912 
L 130.807564 87.53544 
L 133.861754 88.17528 
L 136.915943 85.41984 
L 139.970132 85.17216 
L 143.024321 84.9348 
L 146.07851 85.01736 
L 149.132699 86.14224 
L 152.186888 85.90488 
L 155.241077 86.328 
L 158.295266 86.24544 
L 161.349456 85.72944 
L 164.403645 85.7088 
L 167.457834 86.40024 
L 170.512023 85.09992 
L 173.566212 86.02872 
L 176.620401 84.78 
L 179.67459 83.53128 
L 182.728779 82.83984 
L 185.782968 82.03488 
L 188.837158 79.39296 
L 191.891347 79.66128 
L 194.945536 82.15872 
L 197.999725 82.43736 
L 201.053914 82.93272 
L 204.108103 83.00496 
L 207.162292 82.6128 
L 210.216481 82.28256 
L 213.27067 78.01008 
L 216.32486 76.19376 
L 219.379049 77.66952 
L 222.433238 77.74176 
L 225.487427 78.1752 
L 228.541616 79.5684 
L 231.595805 80.8068 
L 234.649994 85.20312 
L 237.704183 84.12984 
L 240.758372 84.03696 
L 243.812562 84.06792 
L 246.866751 84.3156 
L 249.92094 87.02976 
L 252.975129 85.21344 
L 256.029318 84.28464 
L 259.083507 84.32592 
L 262.137696 89.08344 
L 265.191885 89.5272 
L 268.246074 95.14128 
L 271.300264 96.98856 
L 274.354453 95.08968 
L 276.932874 97.71096 
L 279.36 99.80592 
" clip-path="url(#pae4b26d90b)" style="fill: none; stroke: #f5841e; stroke-width: 0.6"/>
   </g>
  </g>
 </g>
 <defs>
  <clipPath id="pae4b26d90b">
   <rect x="8.64" y="4.8" width="270.72" height="103.2"/>
  </clipPath>
 </defs>
</svg>
