<?xml version="1.0" encoding="utf-8" standalone="no"?>
<!DOCTYPE svg PUBLIC "-//W3C//DTD SVG 1.1//EN"
  "http://www.w3.org/Graphics/SVG/1.1/DTD/svg11.dtd">
<svg xmlns:xlink="http://www.w3.org/1999/xlink" width="288pt" height="120pt" viewBox="0 0 288 120" xmlns="http://www.w3.org/2000/svg" version="1.1">
<desc id="nav-meta">{"window":"3m","count":4,"labels":["04.04","04.05","02.06","02.07"],"tick_utc":["2026-04-04T03:24:53Z","2026-05-04T04:31:15Z","2026-06-02T05:15:35Z","2026-07-02T04:45:46Z"],"w":720,"h":300}</desc>

 <metadata>
  <rdf:RDF xmlns:dc="http://purl.org/dc/elements/1.1/" xmlns:cc="http://creativecommons.org/ns#" xmlns:rdf="http://www.w3.org/1999/02/22-rdf-syntax-ns#">
   <cc:Work>
    <dc:type rdf:resource="http://purl.org/dc/dcmitype/StillImage"/>
    <dc:date>2026-07-02T04:45:51.766749</dc:date>
    <dc:format>image/svg+xml</dc:format>
    <dc:creator>
     <cc:Agent>
      <dc:title>Matplotlib v3.11.0, https://matplotlib.org/</dc:title>
     </cc:Agent>
    </dc:creator>
   </cc:Work>
  </rdf:RDF>
 </metadata>
 <defs>
  <style type="text/css">*{stroke-linejoin: round; stroke-linecap: butt}</style>
 </defs>
 <g id="figure_1">
  <g id="patch_1">
   <path d="M 0 120 
L 288 120 
L 288 0 
L 0 0 
L 0 120 
z
" style="fill: none; opacity: 0"/>
  </g>
  <g id="axes_1">
   <g id="patch_2">
    <path d="M 8.64 108 
L 279.36 108 
L 279.36 4.8 
L 8.64 4.8 
L 8.64 108 
z
" style="fill: none"/>
   </g>
   <g id="matplotlib.axis_1"/>
   <g id="matplotlib.axis_2"/>
   <g id="line2d_1">
    <path d="M 8.64 87.36 
L 279.36 87.36 
" clip-path="url(#p5440a73a95)" style="fill: none; stroke: #b2b2b2; stroke-opacity: 0.35; stroke-width: 0.5; stroke-linecap: square"/>
   </g>
   <g id="line2d_2">
    <path d="M 8.64 66.72 
L 279.36 66.72 
" clip-path="url(#p5440a73a95)" style="fill: none; stroke: #b2b2b2; stroke-opacity: 0.35; stroke-width: 0.5; stroke-linecap: square"/>
   </g>
   <g id="line2d_3">
    <path d="M 8.64 46.08 
L 279.36 46.08 
" clip-path="url(#p5440a73a95)" style="fill: none; stroke: #b2b2b2; stroke-opacity: 0.35; stroke-width: 0.5; stroke-linecap: square"/>
   </g>
   <g id="line2d_4">
    <path d="M 8.64 25.44 
L 279.36 25.44 
" clip-path="url(#p5440a73a95)" style="fill: none; stroke: #b2b2b2; stroke-opacity: 0.35; stroke-width: 0.5; stroke-linecap: square"/>
   </g>
   <g id="line2d_5">
    <path d="M 8.64 101.72544 
L 11.725653 101.68416 
L 14.773379 101.47776 
L 17.79352 101.78736 
L 20.838325 101.09592 
L 23.867614 101.46744 
L 26.935464 101.3436 
L 29.928865 101.05464 
L 33.02328 101.3952 
L 36.078745 101.47776 
L 39.099273 100.86888 
L 42.136831 101.26104 
L 45.189869 100.99272 
L 48.223555 100.61088 
L 51.229905 100.44576 
L 54.309928 100.94112 
L 57.357337 101.09592 
L 60.383882 101.00304 
L 63.414332 100.69344 
L 66.466525 100.9308 
L 69.514462 100.92048 
L 72.518066 100.81728 
L 75.605233 100.8792 
L 78.677868 100.64184 
L 81.724115 101.1888 
L 84.755691 101.09592 
L 87.800672 101.37456 
L 90.873765 101.21976 
L 93.836064 101.20944 
L 96.937656 101.23008 
L 99.976479 100.92048 
L 102.949404 101.06496 
L 106.042833 100.70376 
L 109.083521 100.55928 
L 112.072806 100.53864 
L 115.123804 99.60984 
L 118.224938 99.72336 
L 121.288812 99.44472 
L 124.286471 99.25896 
L 127.340811 99.32088 
L 130.377312 100.22904 
L 133.43218 100.01232 
L 136.433251 100.43544 
L 139.518518 100.75536 
L 142.587916 101.02368 
L 145.606017 101.02368 
L 148.656768 101.17848 
L 151.713957 100.7244 
L 154.730545 100.75536 
L 157.728661 101.11656 
L 160.816672 100.91016 
L 163.896555 100.89984 
L 166.890379 101.1372 
L 169.961466 101.2404 
L 172.991634 101.6532 
L 176.033765 101.4984 
L 179.029806 101.48808 
L 182.131749 101.32296 
L 185.216593 101.51904 
L 188.226566 101.7048 
L 191.300644 102.54072 
L 194.330109 103.08768 
L 197.319922 103.36632 
L 200.313077 104.22288 
L 203.418293 103.85136 
L 206.471612 103.68624 
L 209.453473 103.43856 
L 212.524877 103.81008 
L 215.582595 103.72752 
L 218.634401 103.50048 
L 221.652044 103.5108 
L 224.713984 103.31472 
L 227.854911 102.95352 
L 230.912136 102.61296 
L 233.855189 102.6336 
L 236.880502 102.9948 
L 239.99198 103.28376 
L 242.9103 103.01544 
L 246.013439 102.69552 
L 249.142298 102.582 
L 252.000453 102.88128 
L 255.051204 103.15992 
L 258.090275 103.36632 
L 261.14574 103.36632 
L 264.14836 102.81936 
L 267.246187 103.0464 
L 270.308056 102.9432 
L 273.289002 102.59232 
L 276.373354 102.40656 
L 279.36 102.02472 
" clip-path="url(#p5440a73a95)" style="fill: none; stroke: #bebebe; stroke-width: 0.5; stroke-linecap: round"/>
   </g>
   <g id="line2d_6">
    <path d="M 8.64 89.14536 
L 11.725653 89.07312 
L 14.773379 87.9792 
L 17.79352 88.29912 
L 20.838325 86.38992 
L 23.867614 87.24648 
L 26.935464 87.1536 
L 29.928865 86.21448 
L 33.02328 86.66856 
L 36.078745 87.01944 
L 39.099273 84.44976 
L 42.136831 85.05864 
L 45.189869 84.58392 
L 48.223555 85.04832 
L 51.229905 83.71704 
L 54.309928 84.86256 
L 57.357337 85.6572 
L 60.383882 85.27536 
L 63.414332 84.49104 
L 66.466525 84.86256 
L 69.514462 85.32696 
L 72.518066 85.17216 
L 75.605233 85.31664 
L 78.677868 84.11952 
L 81.724115 85.66752 
L 84.755691 85.26504 
L 87.800672 86.26608 
L 90.873765 85.77072 
L 93.836064 85.38888 
L 96.937656 85.3992 
L 99.976479 84.09888 
L 102.949404 84.22272 
L 106.042833 84.34656 
L 109.083521 85.06896 
L 112.072806 85.7604 
L 115.123804 85.0896 
L 118.224938 85.01736 
L 121.288812 84.9348 
L 124.286471 85.296 
L 127.340811 85.35792 
L 130.377312 86.1732 
L 133.43218 85.92552 
L 136.433251 86.55504 
L 139.518518 87.13296 
L 142.587916 88.10304 
L 145.606017 87.9276 
L 148.656768 88.26816 
L 151.713957 87.78312 
L 154.730545 87.95856 
L 157.728661 88.94928 
L 160.816672 88.14432 
L 163.896555 88.33008 
L 166.890379 88.52616 
L 169.961466 88.86672 
L 172.991634 90.22896 
L 176.033765 89.82648 
L 179.029806 89.87808 
L 182.131749 89.46528 
L 185.216593 90.0432 
L 188.226566 89.96064 
L 191.300644 91.99368 
L 194.330109 93.05664 
L 197.319922 93.74808 
L 200.313077 97.02984 
L 203.418293 95.93592 
L 206.471612 95.07936 
L 209.453473 94.46016 
L 212.524877 95.47152 
L 215.582595 95.11032 
L 218.634401 94.82136 
L 221.652044 94.8936 
L 224.713984 94.70784 
L 227.854911 94.04736 
L 230.912136 93.40752 
L 233.855189 92.9844 
L 236.880502 93.93384 
L 239.99198 94.4292 
L 242.9103 94.19184 
L 246.013439 93.87192 
L 249.142298 93.81 
L 252.000453 94.03704 
L 255.051204 94.83168 
L 258.090275 95.48184 
L 261.14574 96.63768 
L 264.14836 96.14232 
L 267.246187 96.30744 
L 270.308056 96.29712 
L 273.289002 96.04944 
L 276.373354 95.9256 
L 279.36 95.39928 
" clip-path="url(#p5440a73a95)" style="fill: none; stroke: #4a8dff; stroke-width: 0.6"/>
   </g>
   <g id="line2d_7">
    <path d="M 8.64 101.20944 
L 11.725653 101.14752 
L 14.773379 100.55928 
L 17.79352 100.65216 
L 20.838325 99.80592 
L 23.867614 99.96072 
L 26.935464 99.6408 
L 29.928865 99.1764 
L 33.02328 99.70272 
L 36.078745 99.94008 
L 39.099273 98.57784 
L 42.136831 98.65008 
L 45.189869 98.38176 
L 48.223555 98.48496 
L 51.229905 96.70992 
L 54.309928 98.05152 
L 57.357337 98.48496 
L 60.383882 97.96896 
L 63.414332 96.32808 
L 66.466525 96.20424 
L 69.514462 96.16296 
L 72.518066 96.1836 
L 75.605233 96.50352 
L 78.677868 94.76976 
L 81.724115 97.19496 
L 84.755691 96.9576 
L 87.800672 97.9896 
L 90.873765 96.89568 
L 93.836064 95.45088 
L 96.937656 95.67792 
L 99.976479 93.43848 
L 102.949404 92.90184 
L 106.042833 92.25168 
L 109.083521 92.87088 
L 112.072806 94.2744 
L 115.123804 93.1392 
L 118.224938 92.97408 
L 121.288812 92.9844 
L 124.286471 92.60256 
L 127.340811 92.53032 
L 130.377312 94.54272 
L 133.43218 92.85024 
L 136.433251 94.82136 
L 139.518518 95.75016 
L 142.587916 96.97824 
L 145.606017 97.08144 
L 148.656768 97.23624 
L 151.713957 95.94624 
L 154.730545 96.30744 
L 157.728661 98.08248 
L 160.816672 97.2672 
L 163.896555 96.61704 
L 166.890379 97.23624 
L 169.961466 98.08248 
L 172.991634 99.18672 
L 176.033765 99.03192 
L 179.029806 99.1248 
L 182.131749 98.74296 
L 185.216593 99.09384 
L 188.226566 100.0536 
L 191.300644 101.23008 
L 194.330109 101.99376 
L 197.319922 102.08664 
L 200.313077 102.8916 
L 203.418293 102.45816 
L 206.471612 102.28272 
L 209.453473 102.10728 
L 212.524877 102.582 
L 215.582595 102.29304 
L 218.634401 102.08664 
L 221.652044 102.066 
L 224.713984 101.86992 
L 227.854911 101.48808 
L 230.912136 101.40552 
L 233.855189 101.4984 
L 236.880502 101.97312 
L 239.99198 102.26208 
L 242.9103 102.066 
L 246.013439 101.90088 
L 249.142298 101.90088 
L 252.000453 102.0144 
L 255.051204 102.25176 
L 258.090275 102.6336 
L 261.14574 102.88128 
L 264.14836 102.77808 
L 267.246187 102.85032 
L 270.308056 102.93288 
L 273.289002 102.95352 
L 276.373354 103.00512 
L 279.36 102.69552 
" clip-path="url(#p5440a73a95)" style="fill: none; stroke: #f5841e; stroke-width: 0.6"/>
   </g>
  </g>
 </g>
 <defs>
  <clipPath id="p5440a73a95">
   <rect x="8.64" y="4.8" width="270.72" height="103.2"/>
  </clipPath>
 </defs>
</svg>
