<?xml version="1.0" encoding="utf-8" standalone="no"?>
<!DOCTYPE svg PUBLIC "-//W3C//DTD SVG 1.1//EN"
  "http://www.w3.org/Graphics/SVG/1.1/DTD/svg11.dtd">
<svg xmlns:xlink="http://www.w3.org/1999/xlink" width="288pt" height="120pt" viewBox="0 0 288 120" xmlns="http://www.w3.org/2000/svg" version="1.1">
<desc id="nav-meta">{"window":"1m","count":4,"labels":["22.02","04.03","14.03","24.03"],"tick_utc":["2026-02-22T03:28:03Z","2026-03-04T03:14:13Z","2026-03-14T03:15:02Z","2026-03-24T03:21:58Z"],"w":720,"h":300}</desc>

 <metadata>
  <rdf:RDF xmlns:dc="http://purl.org/dc/elements/1.1/" xmlns:cc="http://creativecommons.org/ns#" xmlns:rdf="http://www.w3.org/1999/02/22-rdf-syntax-ns#">
   <cc:Work>
    <dc:type rdf:resource="http://purl.org/dc/dcmitype/StillImage"/>
    <dc:date>2026-03-24T03:22:00.114333</dc:date>
    <dc:format>image/svg+xml</dc:format>
    <dc:creator>
     <cc:Agent>
      <dc:title>Matplotlib v3.10.8, https://matplotlib.org/</dc:title>
     </cc:Agent>
    </dc:creator>
   </cc:Work>
  </rdf:RDF>
 </metadata>
 <defs>
  <style type="text/css">*{stroke-linejoin: round; stroke-linecap: butt}</style>
 </defs>
 <g id="figure_1">
  <g id="patch_1">
   <path d="M 0 120 
L 288 120 
L 288 0 
L 0 0 
L 0 120 
z
" style="fill: none; opacity: 0"/>
  </g>
  <g id="axes_1">
   <g id="patch_2">
    <path d="M 8.64 108 
L 279.36 108 
L 279.36 4.8 
L 8.64 4.8 
L 8.64 108 
z
" style="fill: none"/>
   </g>
   <g id="matplotlib.axis_1"/>
   <g id="matplotlib.axis_2"/>
   <g id="line2d_1">
    <path d="M 8.64 87.36 
L 279.36 87.36 
" clip-path="url(#p8fe1c34efa)" style="fill: none; stroke: #b2b2b2; stroke-opacity: 0.35; stroke-width: 0.5; stroke-linecap: square"/>
   </g>
   <g id="line2d_2">
    <path d="M 8.64 66.72 
L 279.36 66.72 
" clip-path="url(#p8fe1c34efa)" style="fill: none; stroke: #b2b2b2; stroke-opacity: 0.35; stroke-width: 0.5; stroke-linecap: square"/>
   </g>
   <g id="line2d_3">
    <path d="M 8.64 46.08 
L 279.36 46.08 
" clip-path="url(#p8fe1c34efa)" style="fill: none; stroke: #b2b2b2; stroke-opacity: 0.35; stroke-width: 0.5; stroke-linecap: square"/>
   </g>
   <g id="line2d_4">
    <path d="M 8.64 25.44 
L 279.36 25.44 
" clip-path="url(#p8fe1c34efa)" style="fill: none; stroke: #b2b2b2; stroke-opacity: 0.35; stroke-width: 0.5; stroke-linecap: square"/>
   </g>
   <g id="line2d_5">
    <path d="M 8.64 101.06496 
L 17.69243 102.09696 
L 25.955254 102.05568 
L 35.710485 101.4984 
L 44.695539 100.60056 
L 53.703679 100.80696 
L 62.622611 101.45712 
L 71.852935 100.55928 
L 80.785028 101.10624 
L 89.831295 100.8792 
L 98.806008 100.74504 
L 107.850708 100.21872 
L 116.871697 100.53864 
L 125.827711 101.07528 
L 134.940623 101.38488 
L 143.992949 101.26104 
L 152.960245 100.78632 
L 161.981964 100.91016 
L 171.042751 100.99272 
L 180.050578 100.38384 
L 189.063836 100.50768 
L 198.261778 100.60056 
L 207.312537 99.76464 
L 216.179865 99.49632 
L 225.273975 99.40344 
L 234.301753 100.09488 
L 243.239174 100.3632 
L 252.211588 100.19808 
L 261.37182 100.47672 
L 270.418296 100.79664 
L 279.36 100.26 
" clip-path="url(#p8fe1c34efa)" style="fill: none; stroke: #bebebe; stroke-width: 0.5; stroke-linecap: round"/>
   </g>
   <g id="line2d_6">
    <path d="M 8.64 90.3528 
L 17.69243 92.004 
L 25.955254 92.13816 
L 35.710485 91.25064 
L 44.695539 89.166 
L 53.703679 89.56848 
L 62.622611 90.93072 
L 71.852935 89.41368 
L 80.785028 90.37344 
L 89.831295 89.79552 
L 98.806008 90.23928 
L 107.850708 88.0824 
L 116.871697 88.7532 
L 125.827711 90.16704 
L 134.940623 90.67272 
L 143.992949 90.18768 
L 152.960245 89.2692 
L 161.981964 89.54784 
L 171.042751 89.49624 
L 180.050578 88.31976 
L 189.063836 88.45392 
L 198.261778 88.46424 
L 207.312537 86.38992 
L 216.179865 84.80064 
L 225.273975 84.8316 
L 234.301753 86.586 
L 243.239174 87.74184 
L 252.211588 87.618 
L 261.37182 88.19592 
L 270.418296 89.08344 
L 279.36 87.89664 
" clip-path="url(#p8fe1c34efa)" style="fill: none; stroke: #4a8dff; stroke-width: 0.6"/>
   </g>
   <g id="line2d_7">
    <path d="M 8.64 100.91016 
L 17.69243 101.7564 
L 25.955254 101.84928 
L 35.710485 101.56032 
L 44.695539 100.85856 
L 53.703679 101.12688 
L 62.622611 101.4468 
L 71.852935 101.02368 
L 80.785028 101.30232 
L 89.831295 100.81728 
L 98.806008 100.79664 
L 107.850708 99.3312 
L 116.871697 99.92976 
L 125.827711 100.78632 
L 134.940623 101.17848 
L 143.992949 101.1372 
L 152.960245 100.21872 
L 161.981964 100.37352 
L 171.042751 100.4664 
L 180.050578 99.88848 
L 189.063836 99.94008 
L 198.261778 99.81624 
L 207.312537 98.93904 
L 216.179865 98.3508 
L 225.273975 98.52624 
L 234.301753 99.78528 
L 243.239174 100.12584 
L 252.211588 100.03296 
L 261.37182 100.45608 
L 270.418296 100.83792 
L 279.36 100.11552 
" clip-path="url(#p8fe1c34efa)" style="fill: none; stroke: #f5841e; stroke-width: 0.6"/>
   </g>
  </g>
 </g>
 <defs>
  <clipPath id="p8fe1c34efa">
   <rect x="8.64" y="4.8" width="270.72" height="103.2"/>
  </clipPath>
 </defs>
</svg>
