<?xml version="1.0" encoding="utf-8" standalone="no"?>
<!DOCTYPE svg PUBLIC "-//W3C//DTD SVG 1.1//EN"
  "http://www.w3.org/Graphics/SVG/1.1/DTD/svg11.dtd">
<svg xmlns:xlink="http://www.w3.org/1999/xlink" width="288pt" height="120pt" viewBox="0 0 288 120" xmlns="http://www.w3.org/2000/svg" version="1.1">
<desc id="nav-meta">{"window":"1m","count":4,"labels":["10.01","20.01","29.01","08.02"],"tick_utc":["2026-01-10T12:00:00Z","2026-01-20T12:00:00Z","2026-01-29T12:00:00Z","2026-02-08T03:46:03Z"],"w":720,"h":300}</desc>

 <metadata>
  <rdf:RDF xmlns:dc="http://purl.org/dc/elements/1.1/" xmlns:cc="http://creativecommons.org/ns#" xmlns:rdf="http://www.w3.org/1999/02/22-rdf-syntax-ns#">
   <cc:Work>
    <dc:type rdf:resource="http://purl.org/dc/dcmitype/StillImage"/>
    <dc:date>2026-02-08T13:31:15.289041</dc:date>
    <dc:format>image/svg+xml</dc:format>
    <dc:creator>
     <cc:Agent>
      <dc:title>Matplotlib v3.10.8, https://matplotlib.org/</dc:title>
     </cc:Agent>
    </dc:creator>
   </cc:Work>
  </rdf:RDF>
 </metadata>
 <defs>
  <style type="text/css">*{stroke-linejoin: round; stroke-linecap: butt}</style>
 </defs>
 <g id="figure_1">
  <g id="patch_1">
   <path d="M 0 120 
L 288 120 
L 288 0 
L 0 0 
L 0 120 
z
" style="fill: none; opacity: 0"/>
  </g>
  <g id="axes_1">
   <g id="patch_2">
    <path d="M 8.64 108 
L 279.36 108 
L 279.36 4.8 
L 8.64 4.8 
L 8.64 108 
z
" style="fill: none"/>
   </g>
   <g id="matplotlib.axis_1"/>
   <g id="matplotlib.axis_2"/>
   <g id="line2d_1">
    <path d="M 8.64 87.36 
L 279.36 87.36 
" clip-path="url(#p05641c8af2)" style="fill: none; stroke: #b2b2b2; stroke-opacity: 0.35; stroke-width: 0.5; stroke-linecap: square"/>
   </g>
   <g id="line2d_2">
    <path d="M 8.64 66.72 
L 279.36 66.72 
" clip-path="url(#p05641c8af2)" style="fill: none; stroke: #b2b2b2; stroke-opacity: 0.35; stroke-width: 0.5; stroke-linecap: square"/>
   </g>
   <g id="line2d_3">
    <path d="M 8.64 46.08 
L 279.36 46.08 
" clip-path="url(#p05641c8af2)" style="fill: none; stroke: #b2b2b2; stroke-opacity: 0.35; stroke-width: 0.5; stroke-linecap: square"/>
   </g>
   <g id="line2d_4">
    <path d="M 8.64 25.44 
L 279.36 25.44 
" clip-path="url(#p05641c8af2)" style="fill: none; stroke: #b2b2b2; stroke-opacity: 0.35; stroke-width: 0.5; stroke-linecap: square"/>
   </g>
   <g id="line2d_5">
    <path d="M 8.64 89.39304 
L 18.086913 89.40336 
L 27.533827 88.41264 
L 36.98074 88.4952 
L 46.427654 86.86464 
L 55.874567 86.42088 
L 65.32148 87.62832 
L 74.768394 86.93688 
L 84.215307 87.23616 
L 93.66222 88.63968 
L 103.109134 90.0432 
L 112.556047 92.12784 
L 122.002961 91.16808 
L 131.449874 91.46736 
L 140.896787 91.73568 
L 150.343701 91.78728 
L 159.790614 94.0164 
L 169.237528 92.5716 
L 178.684441 91.76664 
L 188.131354 92.33424 
L 197.578268 94.36728 
L 207.025181 94.46016 
L 216.472094 97.71096 
L 225.919008 98.48496 
L 235.365921 97.85544 
L 243.341237 99.10416 
L 250.848581 100.16712 
L 260.290684 102.23112 
L 269.697142 100.54896 
L 279.36 100.70376 
" clip-path="url(#p05641c8af2)" style="fill: none; stroke: #bebebe; stroke-width: 0.5; stroke-linecap: round"/>
   </g>
   <g id="line2d_6">
    <path d="M 8.64 73.83048 
L 18.086913 73.8408 
L 27.533827 73.29384 
L 36.98074 73.72728 
L 46.427654 70.32168 
L 55.874567 69.77472 
L 65.32148 70.34232 
L 74.768394 70.67256 
L 84.215307 70.51776 
L 93.66222 70.848 
L 103.109134 72.31344 
L 112.556047 76.01832 
L 122.002961 75.41976 
L 131.449874 75.83256 
L 140.896787 75.79128 
L 150.343701 75.82224 
L 159.790614 77.82432 
L 169.237528 76.14216 
L 178.684441 74.75928 
L 188.131354 74.96568 
L 197.578268 77.75208 
L 207.025181 79.48584 
L 216.472094 83.31456 
L 225.919008 85.90488 
L 235.365921 84.79032 
L 243.341237 85.84296 
L 250.848581 88.25784 
L 260.290684 91.41576 
L 269.697142 88.7532 
L 279.36 88.65 
" clip-path="url(#p05641c8af2)" style="fill: none; stroke: #4a8dff; stroke-width: 0.6"/>
   </g>
   <g id="line2d_7">
    <path d="M 8.64 82.93272 
L 18.086913 83.00496 
L 27.533827 82.6128 
L 36.98074 82.28256 
L 46.427654 78.01008 
L 55.874567 76.19376 
L 65.32148 77.66952 
L 74.768394 77.74176 
L 84.215307 78.1752 
L 93.66222 79.5684 
L 103.109134 80.8068 
L 112.556047 85.20312 
L 122.002961 84.12984 
L 131.449874 84.03696 
L 140.896787 84.06792 
L 150.343701 84.3156 
L 159.790614 87.02976 
L 169.237528 85.21344 
L 178.684441 84.28464 
L 188.131354 84.32592 
L 197.578268 89.08344 
L 207.025181 89.5272 
L 216.472094 95.14128 
L 225.919008 96.98856 
L 235.365921 95.08968 
L 243.341237 97.71096 
L 250.848581 99.80592 
L 260.290684 101.79768 
L 269.697142 100.03296 
L 279.36 100.518 
" clip-path="url(#p05641c8af2)" style="fill: none; stroke: #f5841e; stroke-width: 0.6"/>
   </g>
  </g>
 </g>
 <defs>
  <clipPath id="p05641c8af2">
   <rect x="8.64" y="4.8" width="270.72" height="103.2"/>
  </clipPath>
 </defs>
</svg>
