<?xml version="1.0" encoding="utf-8" standalone="no"?>
<!DOCTYPE svg PUBLIC "-//W3C//DTD SVG 1.1//EN"
  "http://www.w3.org/Graphics/SVG/1.1/DTD/svg11.dtd">
<svg xmlns:xlink="http://www.w3.org/1999/xlink" width="288pt" height="120pt" viewBox="0 0 288 120" xmlns="http://www.w3.org/2000/svg" version="1.1">
<desc id="nav-meta">{"window":"1m","count":4,"labels":["28.05","07.06","17.06","27.06"],"tick_utc":["2026-05-28T04:58:45Z","2026-06-07T05:11:57Z","2026-06-17T05:30:00Z","2026-06-27T04:39:58Z"],"w":720,"h":300}</desc>

 <metadata>
  <rdf:RDF xmlns:dc="http://purl.org/dc/elements/1.1/" xmlns:cc="http://creativecommons.org/ns#" xmlns:rdf="http://www.w3.org/1999/02/22-rdf-syntax-ns#">
   <cc:Work>
    <dc:type rdf:resource="http://purl.org/dc/dcmitype/StillImage"/>
    <dc:date>2026-06-27T04:40:00.652307</dc:date>
    <dc:format>image/svg+xml</dc:format>
    <dc:creator>
     <cc:Agent>
      <dc:title>Matplotlib v3.11.0, https://matplotlib.org/</dc:title>
     </cc:Agent>
    </dc:creator>
   </cc:Work>
  </rdf:RDF>
 </metadata>
 <defs>
  <style type="text/css">*{stroke-linejoin: round; stroke-linecap: butt}</style>
 </defs>
 <g id="figure_1">
  <g id="patch_1">
   <path d="M 0 120 
L 288 120 
L 288 0 
L 0 0 
L 0 120 
z
" style="fill: none; opacity: 0"/>
  </g>
  <g id="axes_1">
   <g id="patch_2">
    <path d="M 8.64 108 
L 279.36 108 
L 279.36 4.8 
L 8.64 4.8 
L 8.64 108 
z
" style="fill: none"/>
   </g>
   <g id="matplotlib.axis_1"/>
   <g id="matplotlib.axis_2"/>
   <g id="line2d_1">
    <path d="M 8.64 87.36 
L 279.36 87.36 
" clip-path="url(#pc98436f8fe)" style="fill: none; stroke: #b2b2b2; stroke-opacity: 0.35; stroke-width: 0.5; stroke-linecap: square"/>
   </g>
   <g id="line2d_2">
    <path d="M 8.64 66.72 
L 279.36 66.72 
" clip-path="url(#pc98436f8fe)" style="fill: none; stroke: #b2b2b2; stroke-opacity: 0.35; stroke-width: 0.5; stroke-linecap: square"/>
   </g>
   <g id="line2d_3">
    <path d="M 8.64 46.08 
L 279.36 46.08 
" clip-path="url(#pc98436f8fe)" style="fill: none; stroke: #b2b2b2; stroke-opacity: 0.35; stroke-width: 0.5; stroke-linecap: square"/>
   </g>
   <g id="line2d_4">
    <path d="M 8.64 25.44 
L 279.36 25.44 
" clip-path="url(#pc98436f8fe)" style="fill: none; stroke: #b2b2b2; stroke-opacity: 0.35; stroke-width: 0.5; stroke-linecap: square"/>
   </g>
   <g id="line2d_5">
    <path d="M 8.64 101.6532 
L 17.674613 101.4984 
L 26.572344 101.48808 
L 35.784589 101.32296 
L 44.946053 101.51904 
L 53.885161 101.7048 
L 63.014651 102.54072 
L 72.011647 103.08768 
L 80.890884 103.36632 
L 89.780046 104.22288 
L 99.002009 103.85136 
L 108.06985 103.68624 
L 116.925471 103.43856 
L 126.04702 103.81008 
L 135.127921 103.72752 
L 144.191269 103.50048 
L 153.153156 103.5108 
L 162.246597 103.31472 
L 171.574617 102.95352 
L 180.654056 102.61296 
L 189.394425 102.6336 
L 198.379092 102.9948 
L 207.619654 103.28376 
L 216.286567 103.01544 
L 225.502365 102.69552 
L 234.794545 102.582 
L 243.28278 102.88128 
L 252.342993 103.15992 
L 261.368515 103.36632 
L 270.442729 103.36632 
L 279.36 102.81936 
" clip-path="url(#pc98436f8fe)" style="fill: none; stroke: #bebebe; stroke-width: 0.5; stroke-linecap: round"/>
   </g>
   <g id="line2d_6">
    <path d="M 8.64 90.22896 
L 17.674613 89.82648 
L 26.572344 89.87808 
L 35.784589 89.46528 
L 44.946053 90.0432 
L 53.885161 89.96064 
L 63.014651 91.99368 
L 72.011647 93.05664 
L 80.890884 93.74808 
L 89.780046 97.02984 
L 99.002009 95.93592 
L 108.06985 95.07936 
L 116.925471 94.46016 
L 126.04702 95.47152 
L 135.127921 95.11032 
L 144.191269 94.82136 
L 153.153156 94.8936 
L 162.246597 94.70784 
L 171.574617 94.04736 
L 180.654056 93.40752 
L 189.394425 92.9844 
L 198.379092 93.93384 
L 207.619654 94.4292 
L 216.286567 94.19184 
L 225.502365 93.87192 
L 234.794545 93.81 
L 243.28278 94.03704 
L 252.342993 94.83168 
L 261.368515 95.48184 
L 270.442729 96.63768 
L 279.36 96.14232 
" clip-path="url(#pc98436f8fe)" style="fill: none; stroke: #4a8dff; stroke-width: 0.6"/>
   </g>
   <g id="line2d_7">
    <path d="M 8.64 99.18672 
L 17.674613 99.03192 
L 26.572344 99.1248 
L 35.784589 98.74296 
L 44.946053 99.09384 
L 53.885161 100.0536 
L 63.014651 101.23008 
L 72.011647 101.99376 
L 80.890884 102.08664 
L 89.780046 102.8916 
L 99.002009 102.45816 
L 108.06985 102.28272 
L 116.925471 102.10728 
L 126.04702 102.582 
L 135.127921 102.29304 
L 144.191269 102.08664 
L 153.153156 102.066 
L 162.246597 101.86992 
L 171.574617 101.48808 
L 180.654056 101.40552 
L 189.394425 101.4984 
L 198.379092 101.97312 
L 207.619654 102.26208 
L 216.286567 102.066 
L 225.502365 101.90088 
L 234.794545 101.90088 
L 243.28278 102.0144 
L 252.342993 102.25176 
L 261.368515 102.6336 
L 270.442729 102.88128 
L 279.36 102.77808 
" clip-path="url(#pc98436f8fe)" style="fill: none; stroke: #f5841e; stroke-width: 0.6"/>
   </g>
  </g>
 </g>
 <defs>
  <clipPath id="pc98436f8fe">
   <rect x="8.64" y="4.8" width="270.72" height="103.2"/>
  </clipPath>
 </defs>
</svg>
