<?xml version="1.0" encoding="utf-8" standalone="no"?>
<!DOCTYPE svg PUBLIC "-//W3C//DTD SVG 1.1//EN"
  "http://www.w3.org/Graphics/SVG/1.1/DTD/svg11.dtd">
<svg xmlns:xlink="http://www.w3.org/1999/xlink" width="288pt" height="120pt" viewBox="0 0 288 120" xmlns="http://www.w3.org/2000/svg" version="1.1">
<desc id="nav-meta">{"window":"1y","count":4,"labels":["12.05","11.09","10.01","12.05"],"tick_utc":["2025-05-12T12:00:00Z","2025-09-11T12:00:00Z","2026-01-10T12:00:00Z","2026-05-12T04:26:58Z"],"w":720,"h":300}</desc>

 <metadata>
  <rdf:RDF xmlns:dc="http://purl.org/dc/elements/1.1/" xmlns:cc="http://creativecommons.org/ns#" xmlns:rdf="http://www.w3.org/1999/02/22-rdf-syntax-ns#">
   <cc:Work>
    <dc:type rdf:resource="http://purl.org/dc/dcmitype/StillImage"/>
    <dc:date>2026-05-12T09:21:06.908694</dc:date>
    <dc:format>image/svg+xml</dc:format>
    <dc:creator>
     <cc:Agent>
      <dc:title>Matplotlib v3.10.9, https://matplotlib.org/</dc:title>
     </cc:Agent>
    </dc:creator>
   </cc:Work>
  </rdf:RDF>
 </metadata>
 <defs>
  <style type="text/css">*{stroke-linejoin: round; stroke-linecap: butt}</style>
 </defs>
 <g id="figure_1">
  <g id="patch_1">
   <path d="M 0 120 
L 288 120 
L 288 0 
L 0 0 
L 0 120 
z
" style="fill: none; opacity: 0"/>
  </g>
  <g id="axes_1">
   <g id="patch_2">
    <path d="M 8.64 108 
L 279.36 108 
L 279.36 4.8 
L 8.64 4.8 
L 8.64 108 
z
" style="fill: none"/>
   </g>
   <g id="matplotlib.axis_1"/>
   <g id="matplotlib.axis_2"/>
   <g id="line2d_1">
    <path d="M 8.64 87.36 
L 279.36 87.36 
" clip-path="url(#p773330b702)" style="fill: none; stroke: #b2b2b2; stroke-opacity: 0.35; stroke-width: 0.5; stroke-linecap: square"/>
   </g>
   <g id="line2d_2">
    <path d="M 8.64 66.72 
L 279.36 66.72 
" clip-path="url(#p773330b702)" style="fill: none; stroke: #b2b2b2; stroke-opacity: 0.35; stroke-width: 0.5; stroke-linecap: square"/>
   </g>
   <g id="line2d_3">
    <path d="M 8.64 46.08 
L 279.36 46.08 
" clip-path="url(#p773330b702)" style="fill: none; stroke: #b2b2b2; stroke-opacity: 0.35; stroke-width: 0.5; stroke-linecap: square"/>
   </g>
   <g id="line2d_4">
    <path d="M 8.64 25.44 
L 279.36 25.44 
" clip-path="url(#p773330b702)" style="fill: none; stroke: #b2b2b2; stroke-opacity: 0.35; stroke-width: 0.5; stroke-linecap: square"/>
   </g>
   <g id="line2d_5">
    <path d="M 8.64 79.26912 
L 9.382338 78.846 
L 10.124677 76.2144 
L 11.609354 80.394 
L 12.351692 80.66232 
L 13.094031 81.168 
L 13.836369 79.63032 
L 14.578708 80.95128 
L 15.321046 80.4972 
L 16.805723 77.43216 
L 17.548062 78.846 
L 18.2904 78.41256 
L 19.032739 78.64992 
L 19.775077 78.76344 
L 20.517416 78.25776 
L 21.259754 79.47552 
L 22.002093 80.92032 
L 22.744431 83.73768 
L 23.48677 83.6448 
L 24.229108 83.4384 
L 24.971447 83.61384 
L 25.713785 83.99568 
L 26.456123 84.55296 
L 27.198462 87.00912 
L 27.9408 85.98744 
L 28.683139 85.5024 
L 29.425477 84.8316 
L 30.167816 82.46832 
L 30.910154 81.426 
L 31.652493 82.5096 
L 32.394831 84.79032 
L 33.879508 86.95752 
L 34.621847 84.79032 
L 35.364185 85.13088 
L 36.106524 86.07 
L 36.848862 86.5344 
L 37.591201 86.31768 
L 39.075878 89.97096 
L 39.818216 90.48696 
L 40.560555 86.9472 
L 41.302893 86.66856 
L 42.045232 87.32904 
L 42.78757 88.53648 
L 43.529908 87.6696 
L 44.272247 85.30632 
L 45.014585 84.61488 
L 45.756924 84.17112 
L 46.499262 86.3796 
L 47.241601 84.92448 
L 47.983939 84.89352 
L 48.726278 86.13192 
L 49.468616 86.1732 
L 50.210955 84.99672 
L 50.953293 85.85328 
L 51.695632 85.01736 
L 52.43797 83.55192 
L 53.180309 81.7356 
L 53.922647 82.03488 
L 54.664986 82.65408 
L 56.149663 82.15872 
L 56.892001 81.70464 
L 57.63434 79.01112 
L 58.376678 78.39192 
L 59.119017 78.04104 
L 59.861355 78.16488 
L 60.603693 77.05032 
L 61.346032 72.82944 
L 62.08837 70.41456 
L 62.830709 74.69736 
L 63.573047 76.6272 
L 64.315386 75.63648 
L 65.057724 75.97704 
L 65.800063 74.976 
L 66.542401 76.49304 
L 67.28474 76.99872 
L 68.027078 77.90688 
L 68.769417 79.4652 
L 69.511755 82.02456 
L 70.254094 83.19072 
L 70.996432 82.27224 
L 71.738771 80.21856 
L 72.481109 81.67368 
L 73.223448 80.5488 
L 73.965786 78.588 
L 74.708125 78.19584 
L 75.450463 77.21544 
L 76.192802 76.524 
L 76.93514 78.68088 
L 77.677478 73.88208 
L 78.419817 71.364 
L 79.162155 73.8408 
L 79.904494 75.79128 
L 80.646832 74.65608 
L 81.389171 74.14008 
L 82.131509 76.50336 
L 82.873848 78.30936 
L 83.616186 75.3372 
L 84.358525 77.25672 
L 85.100863 71.78712 
L 85.843202 70.75512 
L 86.58554 70.24944 
L 87.327879 75.35784 
L 88.070217 72.95328 
L 88.812556 70.96152 
L 89.554894 67.87584 
L 90.297233 70.46616 
L 91.039571 71.11632 
L 91.78191 71.61168 
L 92.524248 72.7056 
L 93.266587 69.33096 
L 94.008925 68.9388 
L 94.751263 71.12664 
L 95.493602 70.90992 
L 96.23594 71.80776 
L 96.978279 70.074 
L 97.720617 68.01 
L 98.462956 67.10184 
L 99.205294 65.29584 
L 99.947633 64.01616 
L 100.689971 60.31128 
L 101.43231 60.19776 
L 102.174648 60.786 
L 102.916987 62.61264 
L 103.659325 61.74576 
L 104.401664 59.57856 
L 105.144002 58.86648 
L 105.886341 61.38456 
L 106.628679 61.07496 
L 107.371018 61.83864 
L 108.113356 66.29688 
L 108.855695 67.97904 
L 109.598033 68.69112 
L 110.340371 73.9956 
L 111.08271 70.45584 
L 111.825048 70.87896 
L 112.567387 68.91816 
L 113.309725 68.3196 
L 114.052064 69.47544 
L 115.536741 62.39592 
L 116.279079 62.81904 
L 117.021418 64.22256 
L 117.763756 64.05744 
L 118.506095 62.9532 
L 119.248433 66.14208 
L 119.990772 63.91296 
L 120.73311 66.17304 
L 121.475449 74.6148 
L 122.217787 77.78304 
L 122.960126 72.66432 
L 123.702464 69.69216 
L 124.444803 71.09568 
L 125.92948 76.06992 
L 126.671818 76.76136 
L 127.414156 75.25464 
L 128.156495 75.24432 
L 128.898833 74.63544 
L 129.641172 75.73968 
L 130.38351 77.31864 
L 131.125849 74.202 
L 131.868187 73.64472 
L 132.610526 73.48992 
L 133.352864 71.83872 
L 134.095203 72.17928 
L 134.837541 73.38672 
L 135.57988 73.43832 
L 136.322218 76.15248 
L 137.064557 75.3372 
L 137.806895 75.58488 
L 138.549234 75.35784 
L 139.291572 81.168 
L 140.033911 84.01632 
L 140.776249 82.06584 
L 141.518588 84.19176 
L 142.260926 82.27224 
L 143.003265 83.29392 
L 143.745603 81.62208 
L 144.487941 80.72424 
L 145.23028 84.33624 
L 145.972618 84.64584 
L 146.714957 86.844 
L 147.457295 88.52616 
L 148.199634 88.36104 
L 148.941972 88.93896 
L 149.684311 90.79656 
L 150.426649 88.09272 
L 151.168988 89.22792 
L 151.911326 90.00192 
L 152.653665 91.39512 
L 153.396003 91.63248 
L 154.138342 90.75528 
L 154.88068 88.7016 
L 155.623019 88.52616 
L 156.365357 87.45288 
L 157.107696 88.0308 
L 157.850034 88.94928 
L 159.334711 89.7336 
L 160.07705 91.86984 
L 160.819388 88.60872 
L 161.561726 86.87496 
L 163.046403 90.11544 
L 164.53108 90.53856 
L 165.273419 90.08448 
L 166.015757 88.79448 
L 166.758096 89.20728 
L 167.500434 89.22792 
L 168.242773 90.31152 
L 168.985111 90.10512 
L 169.72745 91.09584 
L 170.469788 91.61184 
L 171.212127 91.31256 
L 171.954465 92.87088 
L 172.696804 93.8616 
L 173.439142 92.02464 
L 174.181481 92.13816 
L 174.923819 92.07624 
L 175.666158 92.14848 
L 177.893173 93.69648 
L 179.37785 92.44776 
L 180.120188 92.30328 
L 180.862527 92.87088 
L 181.604865 92.38584 
L 182.347204 92.47872 
L 183.089542 91.88016 
L 183.831881 90.42504 
L 184.574219 90.08448 
L 185.316558 89.92968 
L 186.058896 88.76352 
L 186.801235 87.94824 
L 187.543573 89.2692 
L 188.285912 88.72224 
L 189.02825 89.39304 
L 189.770589 89.40336 
L 190.512927 88.41264 
L 191.255266 88.4952 
L 191.997604 86.86464 
L 192.739943 86.42088 
L 193.482281 87.62832 
L 194.22462 86.93688 
L 194.966958 87.23616 
L 196.451635 90.0432 
L 197.193973 92.12784 
L 197.936312 91.16808 
L 199.420989 91.73568 
L 200.163327 91.78728 
L 200.905666 94.0164 
L 201.648004 92.5716 
L 202.390343 91.76664 
L 203.132681 92.33424 
L 203.87502 94.36728 
L 204.617358 94.46016 
L 205.359697 97.71096 
L 206.102035 98.48496 
L 206.844374 97.85544 
L 208.061001 100.16712 
L 208.802962 102.23112 
L 209.542121 100.54896 
L 210.301428 100.70376 
L 211.037641 100.68312 
L 212.525016 101.28168 
L 213.264682 101.71512 
L 214.006797 101.84928 
L 214.740209 101.034 
L 215.443377 100.54896 
L 216.233332 101.04432 
L 216.882422 100.81728 
L 217.716831 101.034 
L 218.458268 101.4984 
L 220.684888 101.06496 
L 221.42946 102.09696 
L 222.109087 102.05568 
L 222.911465 101.4984 
L 223.650496 100.60056 
L 224.391425 100.80696 
L 225.125017 101.45712 
L 225.884221 100.55928 
L 226.618896 101.10624 
L 228.101141 100.74504 
L 228.845078 100.21872 
L 229.587064 100.53864 
L 230.323706 101.07528 
L 231.073253 101.38488 
L 231.817817 101.26104 
L 232.555387 100.78632 
L 234.042693 100.99272 
L 234.783597 100.38384 
L 236.281488 100.60056 
L 237.025923 99.76464 
L 237.755271 99.49632 
L 238.503271 99.40344 
L 239.245816 100.09488 
L 239.980928 100.3632 
L 240.718919 100.19808 
L 242.216441 100.79664 
L 242.951906 100.26 
L 243.749533 99.83688 
L 244.445613 100.13616 
L 245.92413 101.38488 
L 248.907403 101.28168 
L 249.639964 101.8596 
L 250.383153 101.88024 
L 251.119133 101.72544 
L 251.87265 101.68416 
L 252.616904 101.47776 
L 253.354422 101.78736 
L 254.097964 101.09592 
L 254.837716 101.46744 
L 255.586885 101.3436 
L 256.317874 101.05464 
L 257.07353 101.3952 
L 257.819674 101.47776 
L 258.557287 100.86888 
L 259.299059 101.26104 
L 261.519587 100.44576 
L 262.271729 100.94112 
L 263.015906 101.09592 
L 263.754988 101.00304 
L 264.495024 100.69344 
L 265.24037 100.9308 
L 267.472042 100.8792 
L 268.22238 100.64184 
L 268.966273 101.1888 
L 269.706584 101.09592 
L 270.450168 101.37456 
L 271.200618 101.21976 
L 272.68142 101.23008 
L 273.4235 100.92048 
L 274.149488 101.06496 
L 274.904904 100.70376 
L 275.64744 100.55928 
L 276.377423 100.53864 
L 277.122477 99.60984 
L 277.879774 99.72336 
L 279.36 99.25896 
L 279.36 99.25896 
" clip-path="url(#p773330b702)" style="fill: none; stroke: #bebebe; stroke-width: 0.5; stroke-linecap: round"/>
   </g>
   <g id="line2d_6">
    <path d="M 8.64 82.37544 
L 9.382338 82.60248 
L 10.124677 79.86768 
L 11.609354 81.85944 
L 12.351692 81.82848 
L 13.094031 82.86048 
L 13.836369 83.00496 
L 14.578708 82.08648 
L 15.321046 82.12776 
L 16.063385 81.61176 
L 16.805723 80.15664 
L 17.548062 82.18968 
L 19.032739 81.79752 
L 19.775077 81.56016 
L 20.517416 80.0844 
L 21.259754 79.86768 
L 22.002093 80.50752 
L 22.744431 82.12776 
L 24.229108 81.92136 
L 24.971447 80.8584 
L 25.713785 81.07512 
L 26.456123 80.84808 
L 27.198462 83.6448 
L 27.9408 82.7676 
L 28.683139 82.0968 
L 29.425477 82.3548 
L 30.167816 79.74384 
L 30.910154 77.90688 
L 31.652493 78.39192 
L 32.394831 80.21856 
L 33.13717 81.34344 
L 33.879508 81.98328 
L 35.364185 81.5808 
L 36.106524 82.26192 
L 37.591201 82.15872 
L 38.333539 83.88216 
L 39.075878 85.89456 
L 39.818216 86.5344 
L 40.560555 83.61384 
L 41.302893 83.2836 
L 42.045232 83.71704 
L 42.78757 83.748 
L 44.272247 83.41776 
L 45.014585 82.44768 
L 45.756924 82.6644 
L 46.499262 83.89248 
L 47.241601 81.38472 
L 47.983939 81.14736 
L 48.726278 82.34448 
L 49.468616 82.23096 
L 50.210955 81.426 
L 50.953293 81.8388 
L 51.695632 80.76552 
L 53.180309 75.83256 
L 53.922647 75.67776 
L 54.664986 75.91512 
L 56.149663 74.88312 
L 56.892001 73.09776 
L 57.63434 69.6096 
L 58.376678 67.91712 
L 59.119017 66.94704 
L 59.861355 66.24528 
L 60.603693 63.80976 
L 61.346032 63.70656 
L 62.08837 63.9852 
L 62.830709 65.71896 
L 63.573047 64.5528 
L 65.057724 64.05744 
L 65.800063 62.25144 
L 66.542401 63.39696 
L 67.28474 63.366 
L 68.027078 63.08736 
L 68.769417 64.72824 
L 69.511755 67.89648 
L 70.254094 69.16584 
L 70.996432 67.69008 
L 71.738771 64.4496 
L 72.481109 65.97696 
L 73.223448 64.914 
L 73.965786 61.54968 
L 74.708125 60.04296 
L 75.450463 56.28648 
L 76.192802 56.47224 
L 76.93514 56.83344 
L 77.677478 51.22968 
L 78.419817 48.89736 
L 79.162155 52.00368 
L 79.904494 53.84064 
L 80.646832 53.90256 
L 81.389171 53.00472 
L 82.131509 55.5228 
L 82.873848 59.12448 
L 83.616186 55.32672 
L 84.358525 56.90568 
L 85.100863 47.92728 
L 85.843202 48.75288 
L 86.58554 48.68064 
L 87.327879 54.57336 
L 88.070217 51.2916 
L 88.812556 52.80864 
L 89.554894 52.69512 
L 90.297233 54.82104 
L 91.78191 54.45984 
L 92.524248 55.7292 
L 93.266587 55.39896 
L 94.008925 53.55168 
L 94.751263 55.81176 
L 95.493602 55.6776 
L 96.23594 56.18328 
L 96.978279 55.71888 
L 98.462956 55.63632 
L 99.205294 55.07904 
L 99.947633 53.41752 
L 100.689971 49.71264 
L 101.43231 50.32152 
L 102.174648 51.17808 
L 102.916987 52.44744 
L 103.659325 52.74672 
L 104.401664 51.4464 
L 105.144002 51.46704 
L 105.886341 53.2524 
L 106.628679 53.08728 
L 107.371018 53.5104 
L 108.113356 57.26688 
L 108.855695 57.76224 
L 109.598033 58.02024 
L 110.340371 62.26176 
L 111.08271 59.68176 
L 111.825048 59.9604 
L 112.567387 58.12344 
L 113.309725 57.02952 
L 114.052064 58.09248 
L 114.794402 55.13064 
L 115.536741 53.046 
L 116.279079 52.5816 
L 117.021418 52.9944 
L 117.763756 52.5816 
L 118.506095 50.0016 
L 119.248433 53.48976 
L 119.990772 52.40616 
L 120.73311 54.75912 
L 121.475449 62.67456 
L 122.217787 63.95424 
L 122.960126 57.86544 
L 123.702464 56.57544 
L 124.444803 58.31952 
L 125.187141 60.4764 
L 125.92948 61.85928 
L 126.671818 62.73648 
L 127.414156 61.8696 
L 128.156495 60.45576 
L 128.898833 60.54864 
L 129.641172 62.04504 
L 130.38351 63.16992 
L 131.125849 62.36496 
L 131.868187 61.21944 
L 132.610526 60.9408 
L 133.352864 57.83448 
L 134.095203 58.40208 
L 134.837541 60.49704 
L 136.322218 63.1596 
L 137.064557 62.49912 
L 137.806895 62.1276 
L 138.549234 61.56 
L 140.033911 70.66224 
L 140.776249 68.72208 
L 141.518588 70.4868 
L 142.260926 68.61888 
L 143.003265 69.11424 
L 143.745603 66.5136 
L 144.487941 66.68904 
L 145.23028 68.8872 
L 145.972618 68.9904 
L 146.714957 71.5704 
L 147.457295 73.48992 
L 148.199634 72.54048 
L 149.684311 74.74896 
L 150.426649 73.3248 
L 151.168988 74.80056 
L 151.911326 77.556 
L 152.653665 78.55704 
L 153.396003 78.50544 
L 154.138342 78.04104 
L 154.88068 75.76032 
L 155.623019 75.73968 
L 156.365357 74.65608 
L 157.107696 74.83152 
L 157.850034 74.57352 
L 158.592373 75.20304 
L 159.334711 75.17208 
L 160.07705 78.05136 
L 161.561726 72.16896 
L 162.304065 73.08744 
L 163.046403 74.72832 
L 164.53108 74.28456 
L 165.273419 73.21128 
L 166.015757 70.2804 
L 166.758096 70.2288 
L 167.500434 71.56008 
L 168.242773 73.79952 
L 168.985111 73.35576 
L 169.72745 74.0988 
L 170.469788 75.5952 
L 171.212127 75.5952 
L 171.954465 77.61792 
L 172.696804 77.63856 
L 173.439142 75.40944 
L 174.181481 75.40944 
L 174.923819 75.04824 
L 175.666158 74.98632 
L 176.408496 75.58488 
L 177.150835 75.87384 
L 177.893173 76.49304 
L 179.37785 75.82224 
L 180.120188 75.84288 
L 180.862527 76.03896 
L 181.604865 75.51264 
L 182.347204 75.56424 
L 183.089542 75.05856 
L 183.831881 73.26288 
L 184.574219 73.20096 
L 185.316558 73.00488 
L 186.058896 71.68392 
L 186.801235 70.6932 
L 187.543573 72.62304 
L 188.285912 73.52088 
L 189.02825 73.83048 
L 189.770589 73.8408 
L 190.512927 73.29384 
L 191.255266 73.72728 
L 191.997604 70.32168 
L 192.739943 69.77472 
L 193.482281 70.34232 
L 194.22462 70.67256 
L 194.966958 70.51776 
L 195.709296 70.848 
L 196.451635 72.31344 
L 197.193973 76.01832 
L 197.936312 75.41976 
L 198.67865 75.83256 
L 200.163327 75.82224 
L 200.905666 77.82432 
L 201.648004 76.14216 
L 202.390343 74.75928 
L 203.132681 74.96568 
L 203.87502 77.75208 
L 204.617358 79.48584 
L 205.359697 83.31456 
L 206.102035 85.90488 
L 206.844374 84.79032 
L 207.471074 85.84296 
L 208.802962 91.41576 
L 209.542121 88.7532 
L 211.037641 88.55712 
L 211.784215 88.96992 
L 213.264682 90.456 
L 214.006797 90.56952 
L 214.740209 89.15568 
L 215.443377 88.9596 
L 216.233332 90.6624 
L 216.882422 89.94 
L 217.716831 90.00192 
L 219.196267 90.62112 
L 220.684888 90.3528 
L 221.42946 92.004 
L 222.109087 92.13816 
L 222.911465 91.25064 
L 223.650496 89.166 
L 224.391425 89.56848 
L 225.125017 90.93072 
L 225.884221 89.41368 
L 226.618896 90.37344 
L 227.362961 89.79552 
L 228.101141 90.23928 
L 228.845078 88.0824 
L 229.587064 88.7532 
L 230.323706 90.16704 
L 231.073253 90.67272 
L 231.817817 90.18768 
L 232.555387 89.2692 
L 233.297433 89.54784 
L 234.042693 89.49624 
L 234.783597 88.31976 
L 235.524947 88.45392 
L 236.281488 88.46424 
L 237.025923 86.38992 
L 237.755271 84.80064 
L 238.503271 84.8316 
L 239.245816 86.586 
L 239.980928 87.74184 
L 240.718919 87.618 
L 241.472359 88.19592 
L 242.216441 89.08344 
L 242.951906 87.89664 
L 243.749533 87.3084 
L 244.445613 87.65928 
L 245.92413 90.07416 
L 247.421042 89.3724 
L 248.158698 89.00088 
L 248.907403 88.42296 
L 250.383153 89.10408 
L 251.119133 89.14536 
L 251.87265 89.07312 
L 252.616904 87.9792 
L 253.354422 88.29912 
L 254.097964 86.38992 
L 254.837716 87.24648 
L 255.586885 87.1536 
L 256.317874 86.21448 
L 257.819674 87.01944 
L 258.557287 84.44976 
L 259.299059 85.05864 
L 260.044611 84.58392 
L 260.785437 85.04832 
L 261.519587 83.71704 
L 262.271729 84.86256 
L 263.015906 85.6572 
L 263.754988 85.27536 
L 264.495024 84.49104 
L 265.984676 85.32696 
L 266.718156 85.17216 
L 267.472042 85.31664 
L 268.22238 84.11952 
L 268.966273 85.66752 
L 269.706584 85.26504 
L 270.450168 86.26608 
L 271.924011 85.38888 
L 272.68142 85.3992 
L 273.4235 84.09888 
L 274.904904 84.34656 
L 276.377423 85.7604 
L 277.122477 85.0896 
L 278.627972 84.9348 
L 279.36 85.296 
L 279.36 85.296 
" clip-path="url(#p773330b702)" style="fill: none; stroke: #4a8dff; stroke-width: 0.6"/>
   </g>
   <g id="line2d_7">
    <path d="M 8.64 68.95944 
L 9.382338 70.11528 
L 10.124677 68.76336 
L 10.867015 69.37224 
L 11.609354 69.25872 
L 12.351692 69.41352 
L 13.094031 69.77472 
L 13.836369 66.85416 
L 14.578708 67.26696 
L 15.321046 66.06984 
L 16.063385 63.08736 
L 16.805723 61.12656 
L 17.548062 65.62608 
L 18.2904 64.98624 
L 19.032739 63.91296 
L 19.775077 63.38664 
L 20.517416 63.70656 
L 21.259754 64.97592 
L 22.002093 67.14312 
L 22.744431 68.9388 
L 23.48677 68.23704 
L 24.229108 67.1844 
L 24.971447 66.99864 
L 25.713785 67.47336 
L 26.456123 68.1132 
L 27.198462 71.38464 
L 27.9408 68.526 
L 28.683139 67.21536 
L 29.425477 67.20504 
L 30.167816 62.46816 
L 30.910154 62.51976 
L 31.652493 64.10904 
L 32.394831 66.90576 
L 33.13717 66.83352 
L 33.879508 67.42176 
L 34.621847 67.3392 
L 35.364185 65.8944 
L 36.106524 68.24736 
L 37.591201 68.23704 
L 38.333539 69.69216 
L 39.075878 71.50848 
L 39.818216 72.21024 
L 40.560555 67.3908 
L 41.302893 66.90576 
L 42.045232 65.59512 
L 42.78757 65.86344 
L 43.529908 65.76024 
L 44.272247 65.50224 
L 45.014585 64.398 
L 45.756924 65.70864 
L 46.499262 67.2876 
L 47.241601 63.95424 
L 47.983939 63.14928 
L 48.726278 64.76952 
L 49.468616 64.58376 
L 50.210955 63.55176 
L 50.953293 64.5012 
L 51.695632 63.82008 
L 52.43797 61.36392 
L 53.180309 56.64768 
L 53.922647 54.89328 
L 54.664986 55.04808 
L 55.407324 53.29368 
L 56.149663 52.55064 
L 56.892001 54.77976 
L 57.63434 53.67552 
L 58.376678 52.95312 
L 59.119017 54.45984 
L 59.861355 54.55272 
L 60.603693 55.22352 
L 61.346032 54.98616 
L 62.08837 52.4268 
L 62.830709 53.79936 
L 63.573047 54.08832 
L 64.315386 54.92424 
L 65.057724 54.4908 
L 65.800063 52.98408 
L 66.542401 54.44952 
L 67.28474 54.60432 
L 68.027078 54.62496 
L 69.511755 59.38248 
L 70.254094 60.09456 
L 70.996432 58.39176 
L 71.738771 57.41136 
L 72.481109 58.464 
L 73.223448 57.5352 
L 73.965786 55.0068 
L 74.708125 55.81176 
L 75.450463 55.99752 
L 76.192802 53.13888 
L 76.93514 53.64456 
L 77.677478 52.1688 
L 78.419817 48.69096 
L 79.162155 54.0264 
L 79.904494 55.13064 
L 80.646832 54.96552 
L 81.389171 54.92424 
L 82.131509 56.25552 
L 82.873848 59.8572 
L 83.616186 58.32984 
L 84.358525 60.23904 
L 85.100863 55.65696 
L 85.843202 57.18432 
L 86.58554 59.21736 
L 87.327879 62.55072 
L 88.070217 60.82728 
L 88.812556 61.47744 
L 89.554894 60.12552 
L 90.297233 64.31544 
L 91.039571 63.99552 
L 91.78191 64.5528 
L 92.524248 63.60336 
L 93.266587 61.5084 
L 94.008925 60.96144 
L 94.751263 61.98312 
L 95.493602 62.05536 
L 96.23594 62.51976 
L 97.720617 60.64152 
L 98.462956 61.13688 
L 99.205294 58.6188 
L 99.947633 57.03984 
L 100.689971 56.35872 
L 101.43231 56.5548 
L 102.174648 57.174 
L 102.916987 57.14304 
L 103.659325 55.7292 
L 104.401664 56.04912 
L 105.144002 55.33704 
L 105.886341 56.87472 
L 106.628679 56.8128 
L 107.371018 57.24624 
L 108.113356 59.93976 
L 108.855695 60.64152 
L 109.598033 59.29992 
L 110.340371 63.80976 
L 111.08271 63.03576 
L 111.825048 63.09768 
L 113.309725 58.27824 
L 114.052064 58.5672 
L 114.794402 53.93352 
L 115.536741 51.74568 
L 116.279079 50.04288 
L 117.021418 49.90872 
L 118.506095 47.43192 
L 119.248433 50.80656 
L 119.990772 48.90768 
L 120.73311 50.6208 
L 121.475449 59.42376 
L 122.217787 61.85928 
L 122.960126 57.35976 
L 123.702464 57.3288 
L 124.444803 59.46504 
L 125.92948 64.72824 
L 126.671818 66.42072 
L 127.414156 65.688 
L 128.156495 64.17096 
L 128.898833 62.10696 
L 129.641172 64.30512 
L 130.38351 65.20296 
L 131.125849 62.68488 
L 131.868187 61.70448 
L 132.610526 61.06464 
L 133.352864 58.1028 
L 134.095203 58.40208 
L 134.837541 59.68176 
L 135.57988 62.6952 
L 136.322218 64.56312 
L 137.064557 63.18024 
L 137.806895 62.72616 
L 138.549234 62.06568 
L 139.291572 66.33816 
L 140.033911 71.40528 
L 140.776249 69.08328 
L 141.518588 71.7252 
L 142.260926 69.57864 
L 143.003265 70.72416 
L 143.745603 68.2164 
L 144.487941 66.978 
L 145.23028 70.03272 
L 145.972618 71.5188 
L 146.714957 73.3764 
L 147.457295 78.846 
L 148.199634 77.75208 
L 148.941972 78.88728 
L 149.684311 81.34344 
L 150.426649 80.53848 
L 151.168988 82.0452 
L 151.911326 86.92656 
L 152.653665 88.58808 
L 153.396003 88.96992 
L 154.138342 86.7924 
L 154.88068 85.296 
L 155.623019 86.24544 
L 156.365357 82.96368 
L 157.107696 82.13808 
L 157.850034 82.47864 
L 158.592373 82.58184 
L 159.334711 83.03592 
L 160.07705 87.3084 
L 160.819388 82.06584 
L 161.561726 79.71288 
L 162.304065 81.24024 
L 163.046403 84.17112 
L 163.788742 84.24336 
L 164.53108 83.29392 
L 165.273419 82.8192 
L 166.015757 80.64168 
L 166.758096 81.38472 
L 167.500434 80.87904 
L 168.242773 83.13912 
L 168.985111 83.19072 
L 170.469788 87.17424 
L 171.212127 85.71912 
L 171.954465 87.53544 
L 172.696804 88.17528 
L 173.439142 85.41984 
L 174.923819 84.9348 
L 175.666158 85.01736 
L 176.408496 86.14224 
L 177.150835 85.90488 
L 177.893173 86.328 
L 178.635511 86.24544 
L 179.37785 85.72944 
L 180.120188 85.7088 
L 180.862527 86.40024 
L 181.604865 85.09992 
L 182.347204 86.02872 
L 183.831881 83.53128 
L 185.316558 82.03488 
L 186.058896 79.39296 
L 186.801235 79.66128 
L 187.543573 82.15872 
L 188.285912 82.43736 
L 189.02825 82.93272 
L 189.770589 83.00496 
L 191.255266 82.28256 
L 191.997604 78.01008 
L 192.739943 76.19376 
L 193.482281 77.66952 
L 194.22462 77.74176 
L 194.966958 78.1752 
L 196.451635 80.8068 
L 197.193973 85.20312 
L 197.936312 84.12984 
L 198.67865 84.03696 
L 199.420989 84.06792 
L 200.163327 84.3156 
L 200.905666 87.02976 
L 201.648004 85.21344 
L 202.390343 84.28464 
L 203.132681 84.32592 
L 203.87502 89.08344 
L 204.617358 89.5272 
L 205.359697 95.14128 
L 206.102035 96.98856 
L 206.844374 95.08968 
L 208.061001 99.80592 
L 208.802962 101.79768 
L 209.542121 100.03296 
L 210.301428 100.518 
L 211.037641 99.98136 
L 211.784215 100.49736 
L 214.006797 101.26104 
L 214.740209 100.63152 
L 215.443377 100.38384 
L 216.233332 100.84824 
L 216.882422 100.65216 
L 217.716831 101.034 
L 218.458268 101.19912 
L 220.684888 100.91016 
L 221.42946 101.7564 
L 222.109087 101.84928 
L 222.911465 101.56032 
L 223.650496 100.85856 
L 225.125017 101.4468 
L 225.884221 101.02368 
L 226.618896 101.30232 
L 227.362961 100.81728 
L 228.101141 100.79664 
L 228.845078 99.3312 
L 229.587064 99.92976 
L 230.323706 100.78632 
L 231.073253 101.17848 
L 231.817817 101.1372 
L 232.555387 100.21872 
L 234.042693 100.4664 
L 234.783597 99.88848 
L 235.524947 99.94008 
L 236.281488 99.81624 
L 237.025923 98.93904 
L 237.755271 98.3508 
L 238.503271 98.52624 
L 239.245816 99.78528 
L 239.980928 100.12584 
L 240.718919 100.03296 
L 242.216441 100.83792 
L 242.951906 100.11552 
L 243.749533 99.87816 
L 244.445613 100.002 
L 245.92413 101.41584 
L 246.676581 101.21976 
L 248.158698 101.00304 
L 248.907403 100.86888 
L 249.639964 101.21976 
L 250.383153 101.28168 
L 251.87265 101.14752 
L 252.616904 100.55928 
L 253.354422 100.65216 
L 254.097964 99.80592 
L 254.837716 99.96072 
L 255.586885 99.6408 
L 256.317874 99.1764 
L 257.07353 99.70272 
L 257.819674 99.94008 
L 258.557287 98.57784 
L 259.299059 98.65008 
L 260.044611 98.38176 
L 260.785437 98.48496 
L 261.519587 96.70992 
L 262.271729 98.05152 
L 263.015906 98.48496 
L 263.754988 97.96896 
L 264.495024 96.32808 
L 265.984676 96.16296 
L 266.718156 96.1836 
L 267.472042 96.50352 
L 268.22238 94.76976 
L 268.966273 97.19496 
L 269.706584 96.9576 
L 270.450168 97.9896 
L 271.200618 96.89568 
L 271.924011 95.45088 
L 272.68142 95.67792 
L 273.4235 93.43848 
L 274.904904 92.25168 
L 275.64744 92.87088 
L 276.377423 94.2744 
L 277.122477 93.1392 
L 277.879774 92.97408 
L 278.627972 92.9844 
L 279.36 92.60256 
L 279.36 92.60256 
" clip-path="url(#p773330b702)" style="fill: none; stroke: #f5841e; stroke-width: 0.6"/>
   </g>
  </g>
 </g>
 <defs>
  <clipPath id="p773330b702">
   <rect x="8.64" y="4.8" width="270.72" height="103.2"/>
  </clipPath>
 </defs>
</svg>
