<?xml version="1.0" encoding="utf-8" standalone="no"?>
<!DOCTYPE svg PUBLIC "-//W3C//DTD SVG 1.1//EN"
  "http://www.w3.org/Graphics/SVG/1.1/DTD/svg11.dtd">
<svg xmlns:xlink="http://www.w3.org/1999/xlink" width="288pt" height="120pt" viewBox="0 0 288 120" xmlns="http://www.w3.org/2000/svg" version="1.1">
<desc id="nav-meta">{"window":"2w","count":4,"labels":["27.02","03.03","08.03","12.03"],"tick_utc":["2026-02-27T03:18:03Z","2026-03-03T03:22:17Z","2026-03-08T03:19:34Z","2026-03-12T03:19:44Z"],"w":720,"h":300}</desc>

 <metadata>
  <rdf:RDF xmlns:dc="http://purl.org/dc/elements/1.1/" xmlns:cc="http://creativecommons.org/ns#" xmlns:rdf="http://www.w3.org/1999/02/22-rdf-syntax-ns#">
   <cc:Work>
    <dc:type rdf:resource="http://purl.org/dc/dcmitype/StillImage"/>
    <dc:date>2026-03-12T13:48:09.514304</dc:date>
    <dc:format>image/svg+xml</dc:format>
    <dc:creator>
     <cc:Agent>
      <dc:title>Matplotlib v3.10.8, https://matplotlib.org/</dc:title>
     </cc:Agent>
    </dc:creator>
   </cc:Work>
  </rdf:RDF>
 </metadata>
 <defs>
  <style type="text/css">*{stroke-linejoin: round; stroke-linecap: butt}</style>
 </defs>
 <g id="figure_1">
  <g id="patch_1">
   <path d="M 0 120 
L 288 120 
L 288 0 
L 0 0 
L 0 120 
z
" style="fill: none; opacity: 0"/>
  </g>
  <g id="axes_1">
   <g id="patch_2">
    <path d="M 8.64 108 
L 279.36 108 
L 279.36 4.8 
L 8.64 4.8 
L 8.64 108 
z
" style="fill: none"/>
   </g>
   <g id="matplotlib.axis_1"/>
   <g id="matplotlib.axis_2"/>
   <g id="line2d_1">
    <path d="M 8.64 87.36 
L 279.36 87.36 
" clip-path="url(#p1c80b098b9)" style="fill: none; stroke: #b2b2b2; stroke-opacity: 0.35; stroke-width: 0.5; stroke-linecap: square"/>
   </g>
   <g id="line2d_2">
    <path d="M 8.64 66.72 
L 279.36 66.72 
" clip-path="url(#p1c80b098b9)" style="fill: none; stroke: #b2b2b2; stroke-opacity: 0.35; stroke-width: 0.5; stroke-linecap: square"/>
   </g>
   <g id="line2d_3">
    <path d="M 8.64 46.08 
L 279.36 46.08 
" clip-path="url(#p1c80b098b9)" style="fill: none; stroke: #b2b2b2; stroke-opacity: 0.35; stroke-width: 0.5; stroke-linecap: square"/>
   </g>
   <g id="line2d_4">
    <path d="M 8.64 25.44 
L 279.36 25.44 
" clip-path="url(#p1c80b098b9)" style="fill: none; stroke: #b2b2b2; stroke-opacity: 0.35; stroke-width: 0.5; stroke-linecap: square"/>
   </g>
   <g id="line2d_5">
    <path d="M 8.64 100.80696 
L 29.217401 101.45712 
L 50.513235 100.55928 
L 71.121002 101.10624 
L 91.992187 100.8792 
L 112.698284 100.74504 
L 133.565854 100.21872 
L 154.378715 100.53864 
L 175.041673 101.07528 
L 196.066618 101.38488 
L 216.951781 101.26104 
L 237.640767 100.78632 
L 258.455316 100.91016 
L 279.36 100.99272 
" clip-path="url(#p1c80b098b9)" style="fill: none; stroke: #bebebe; stroke-width: 0.5; stroke-linecap: round"/>
   </g>
   <g id="line2d_6">
    <path d="M 8.64 89.56848 
L 29.217401 90.93072 
L 50.513235 89.41368 
L 71.121002 90.37344 
L 91.992187 89.79552 
L 112.698284 90.23928 
L 133.565854 88.0824 
L 154.378715 88.7532 
L 175.041673 90.16704 
L 196.066618 90.67272 
L 216.951781 90.18768 
L 237.640767 89.2692 
L 258.455316 89.54784 
L 279.36 89.49624 
" clip-path="url(#p1c80b098b9)" style="fill: none; stroke: #4a8dff; stroke-width: 0.6"/>
   </g>
   <g id="line2d_7">
    <path d="M 8.64 101.12688 
L 29.217401 101.4468 
L 50.513235 101.02368 
L 71.121002 101.30232 
L 91.992187 100.81728 
L 112.698284 100.79664 
L 133.565854 99.3312 
L 154.378715 99.92976 
L 175.041673 100.78632 
L 196.066618 101.17848 
L 216.951781 101.1372 
L 237.640767 100.21872 
L 258.455316 100.37352 
L 279.36 100.4664 
" clip-path="url(#p1c80b098b9)" style="fill: none; stroke: #f5841e; stroke-width: 0.6"/>
   </g>
  </g>
 </g>
 <defs>
  <clipPath id="p1c80b098b9">
   <rect x="8.64" y="4.8" width="270.72" height="103.2"/>
  </clipPath>
 </defs>
</svg>
