<?xml version="1.0" encoding="utf-8" standalone="no"?>
<!DOCTYPE svg PUBLIC "-//W3C//DTD SVG 1.1//EN"
  "http://www.w3.org/Graphics/SVG/1.1/DTD/svg11.dtd">
<svg xmlns:xlink="http://www.w3.org/1999/xlink" width="288pt" height="120pt" viewBox="0 0 288 120" xmlns="http://www.w3.org/2000/svg" version="1.1">
<desc id="nav-meta">{"window":"3m","count":4,"labels":["15.11","15.12","13.01","12.02"],"tick_utc":["2025-11-15T12:00:00Z","2025-12-15T12:00:00Z","2026-01-13T12:00:00Z","2026-02-12T03:34:13Z"],"w":720,"h":300}</desc>

 <metadata>
  <rdf:RDF xmlns:dc="http://purl.org/dc/elements/1.1/" xmlns:cc="http://creativecommons.org/ns#" xmlns:rdf="http://www.w3.org/1999/02/22-rdf-syntax-ns#">
   <cc:Work>
    <dc:type rdf:resource="http://purl.org/dc/dcmitype/StillImage"/>
    <dc:date>2026-02-12T13:57:10.419310</dc:date>
    <dc:format>image/svg+xml</dc:format>
    <dc:creator>
     <cc:Agent>
      <dc:title>Matplotlib v3.10.8, https://matplotlib.org/</dc:title>
     </cc:Agent>
    </dc:creator>
   </cc:Work>
  </rdf:RDF>
 </metadata>
 <defs>
  <style type="text/css">*{stroke-linejoin: round; stroke-linecap: butt}</style>
 </defs>
 <g id="figure_1">
  <g id="patch_1">
   <path d="M 0 120 
L 288 120 
L 288 0 
L 0 0 
L 0 120 
z
" style="fill: none; opacity: 0"/>
  </g>
  <g id="axes_1">
   <g id="patch_2">
    <path d="M 8.64 108 
L 279.36 108 
L 279.36 4.8 
L 8.64 4.8 
L 8.64 108 
z
" style="fill: none"/>
   </g>
   <g id="matplotlib.axis_1"/>
   <g id="matplotlib.axis_2"/>
   <g id="line2d_1">
    <path d="M 8.64 87.36 
L 279.36 87.36 
" clip-path="url(#pf9a34b5bf4)" style="fill: none; stroke: #b2b2b2; stroke-opacity: 0.35; stroke-width: 0.5; stroke-linecap: square"/>
   </g>
   <g id="line2d_2">
    <path d="M 8.64 66.72 
L 279.36 66.72 
" clip-path="url(#pf9a34b5bf4)" style="fill: none; stroke: #b2b2b2; stroke-opacity: 0.35; stroke-width: 0.5; stroke-linecap: square"/>
   </g>
   <g id="line2d_3">
    <path d="M 8.64 46.08 
L 279.36 46.08 
" clip-path="url(#pf9a34b5bf4)" style="fill: none; stroke: #b2b2b2; stroke-opacity: 0.35; stroke-width: 0.5; stroke-linecap: square"/>
   </g>
   <g id="line2d_4">
    <path d="M 8.64 25.44 
L 279.36 25.44 
" clip-path="url(#pf9a34b5bf4)" style="fill: none; stroke: #b2b2b2; stroke-opacity: 0.35; stroke-width: 0.5; stroke-linecap: square"/>
   </g>
   <g id="line2d_5">
    <path d="M 8.64 88.52616 
L 11.69385 88.36104 
L 14.7477 88.93896 
L 17.801549 90.79656 
L 20.855399 88.09272 
L 23.909249 89.22792 
L 26.963099 90.00192 
L 30.016948 91.39512 
L 33.070798 91.63248 
L 36.124648 90.75528 
L 39.178498 88.7016 
L 42.232347 88.52616 
L 45.286197 87.45288 
L 48.340047 88.0308 
L 51.393897 88.94928 
L 54.447747 89.3208 
L 57.501596 89.7336 
L 60.555446 91.86984 
L 63.609296 88.60872 
L 66.663146 86.87496 
L 69.716995 88.52616 
L 72.770845 90.11544 
L 75.824695 90.38376 
L 78.878545 90.53856 
L 81.932394 90.08448 
L 84.986244 88.79448 
L 88.040094 89.20728 
L 91.093944 89.22792 
L 94.147794 90.31152 
L 97.201643 90.10512 
L 100.255493 91.09584 
L 103.309343 91.61184 
L 106.363193 91.31256 
L 109.417042 92.87088 
L 112.470892 93.8616 
L 115.524742 92.02464 
L 118.578592 92.13816 
L 121.632441 92.07624 
L 124.686291 92.14848 
L 127.740141 92.64384 
L 130.793991 93.01536 
L 133.847841 93.69648 
L 136.90169 93.11856 
L 139.95554 92.44776 
L 143.00939 92.30328 
L 146.06324 92.87088 
L 149.117089 92.38584 
L 152.170939 92.47872 
L 155.224789 91.88016 
L 158.278639 90.42504 
L 161.332488 90.08448 
L 164.386338 89.92968 
L 167.440188 88.76352 
L 170.494038 87.94824 
L 173.547887 89.2692 
L 176.601737 88.72224 
L 179.655587 89.39304 
L 182.709437 89.40336 
L 185.763287 88.41264 
L 188.817136 88.4952 
L 191.870986 86.86464 
L 194.924836 86.42088 
L 197.978686 87.62832 
L 201.032535 86.93688 
L 204.086385 87.23616 
L 207.140235 88.63968 
L 210.194085 90.0432 
L 213.247934 92.12784 
L 216.301784 91.16808 
L 219.355634 91.46736 
L 222.409484 91.73568 
L 225.463334 91.78728 
L 228.517183 94.0164 
L 231.571033 92.5716 
L 234.624883 91.76664 
L 237.678733 92.33424 
L 240.732582 94.36728 
L 243.786432 94.46016 
L 246.840282 97.71096 
L 249.894132 98.48496 
L 252.947981 97.85544 
L 255.526116 99.10416 
L 257.952973 100.16712 
L 261.005267 102.23112 
L 264.046039 100.54896 
L 267.169696 100.70376 
L 270.198345 100.68312 
L 273.26962 100.95144 
L 276.317143 101.28168 
L 279.36 101.71512 
" clip-path="url(#pf9a34b5bf4)" style="fill: none; stroke: #bebebe; stroke-width: 0.5; stroke-linecap: round"/>
   </g>
   <g id="line2d_6">
    <path d="M 8.64 73.48992 
L 11.69385 72.54048 
L 14.7477 73.56216 
L 17.801549 74.74896 
L 20.855399 73.3248 
L 23.909249 74.80056 
L 26.963099 77.556 
L 30.016948 78.55704 
L 33.070798 78.50544 
L 36.124648 78.04104 
L 39.178498 75.76032 
L 42.232347 75.73968 
L 45.286197 74.65608 
L 48.340047 74.83152 
L 51.393897 74.57352 
L 54.447747 75.20304 
L 57.501596 75.17208 
L 60.555446 78.05136 
L 63.609296 75.1308 
L 66.663146 72.16896 
L 69.716995 73.08744 
L 72.770845 74.72832 
L 75.824695 74.48064 
L 78.878545 74.28456 
L 81.932394 73.21128 
L 84.986244 70.2804 
L 88.040094 70.2288 
L 91.093944 71.56008 
L 94.147794 73.79952 
L 97.201643 73.35576 
L 100.255493 74.0988 
L 103.309343 75.5952 
L 106.363193 75.5952 
L 109.417042 77.61792 
L 112.470892 77.63856 
L 115.524742 75.40944 
L 118.578592 75.40944 
L 121.632441 75.04824 
L 124.686291 74.98632 
L 127.740141 75.58488 
L 130.793991 75.87384 
L 133.847841 76.49304 
L 136.90169 76.15248 
L 139.95554 75.82224 
L 143.00939 75.84288 
L 146.06324 76.03896 
L 149.117089 75.51264 
L 152.170939 75.56424 
L 155.224789 75.05856 
L 158.278639 73.26288 
L 161.332488 73.20096 
L 164.386338 73.00488 
L 167.440188 71.68392 
L 170.494038 70.6932 
L 173.547887 72.62304 
L 176.601737 73.52088 
L 179.655587 73.83048 
L 182.709437 73.8408 
L 185.763287 73.29384 
L 188.817136 73.72728 
L 191.870986 70.32168 
L 194.924836 69.77472 
L 197.978686 70.34232 
L 201.032535 70.67256 
L 204.086385 70.51776 
L 207.140235 70.848 
L 210.194085 72.31344 
L 213.247934 76.01832 
L 216.301784 75.41976 
L 219.355634 75.83256 
L 222.409484 75.79128 
L 225.463334 75.82224 
L 228.517183 77.82432 
L 231.571033 76.14216 
L 234.624883 74.75928 
L 237.678733 74.96568 
L 240.732582 77.75208 
L 243.786432 79.48584 
L 246.840282 83.31456 
L 249.894132 85.90488 
L 252.947981 84.79032 
L 255.526116 85.84296 
L 257.952973 88.25784 
L 261.005267 91.41576 
L 264.046039 88.7532 
L 267.169696 88.65 
L 270.198345 88.55712 
L 273.26962 88.96992 
L 276.317143 89.7336 
L 279.36 90.456 
" clip-path="url(#pf9a34b5bf4)" style="fill: none; stroke: #4a8dff; stroke-width: 0.6"/>
   </g>
   <g id="line2d_7">
    <path d="M 8.64 78.846 
L 11.69385 77.75208 
L 14.7477 78.88728 
L 17.801549 81.34344 
L 20.855399 80.53848 
L 23.909249 82.0452 
L 26.963099 86.92656 
L 30.016948 88.58808 
L 33.070798 88.96992 
L 36.124648 86.7924 
L 39.178498 85.296 
L 42.232347 86.24544 
L 45.286197 82.96368 
L 48.340047 82.13808 
L 51.393897 82.47864 
L 54.447747 82.58184 
L 57.501596 83.03592 
L 60.555446 87.3084 
L 63.609296 82.06584 
L 66.663146 79.71288 
L 69.716995 81.24024 
L 72.770845 84.17112 
L 75.824695 84.24336 
L 78.878545 83.29392 
L 81.932394 82.8192 
L 84.986244 80.64168 
L 88.040094 81.38472 
L 91.093944 80.87904 
L 94.147794 83.13912 
L 97.201643 83.19072 
L 100.255493 85.296 
L 103.309343 87.17424 
L 106.363193 85.71912 
L 109.417042 87.53544 
L 112.470892 88.17528 
L 115.524742 85.41984 
L 118.578592 85.17216 
L 121.632441 84.9348 
L 124.686291 85.01736 
L 127.740141 86.14224 
L 130.793991 85.90488 
L 133.847841 86.328 
L 136.90169 86.24544 
L 139.95554 85.72944 
L 143.00939 85.7088 
L 146.06324 86.40024 
L 149.117089 85.09992 
L 152.170939 86.02872 
L 155.224789 84.78 
L 158.278639 83.53128 
L 161.332488 82.83984 
L 164.386338 82.03488 
L 167.440188 79.39296 
L 170.494038 79.66128 
L 173.547887 82.15872 
L 176.601737 82.43736 
L 179.655587 82.93272 
L 182.709437 83.00496 
L 185.763287 82.6128 
L 188.817136 82.28256 
L 191.870986 78.01008 
L 194.924836 76.19376 
L 197.978686 77.66952 
L 201.032535 77.74176 
L 204.086385 78.1752 
L 207.140235 79.5684 
L 210.194085 80.8068 
L 213.247934 85.20312 
L 216.301784 84.12984 
L 219.355634 84.03696 
L 222.409484 84.06792 
L 225.463334 84.3156 
L 228.517183 87.02976 
L 231.571033 85.21344 
L 234.624883 84.28464 
L 237.678733 84.32592 
L 240.732582 89.08344 
L 243.786432 89.5272 
L 246.840282 95.14128 
L 249.894132 96.98856 
L 252.947981 95.08968 
L 255.526116 97.71096 
L 257.952973 99.80592 
L 261.005267 101.79768 
L 264.046039 100.03296 
L 267.169696 100.518 
L 270.198345 99.98136 
L 273.26962 100.49736 
L 276.317143 100.78632 
L 279.36 101.07528 
" clip-path="url(#pf9a34b5bf4)" style="fill: none; stroke: #f5841e; stroke-width: 0.6"/>
   </g>
  </g>
 </g>
 <defs>
  <clipPath id="pf9a34b5bf4">
   <rect x="8.64" y="4.8" width="270.72" height="103.2"/>
  </clipPath>
 </defs>
</svg>
