<?xml version="1.0" encoding="utf-8" standalone="no"?>
<!DOCTYPE svg PUBLIC "-//W3C//DTD SVG 1.1//EN"
  "http://www.w3.org/Graphics/SVG/1.1/DTD/svg11.dtd">
<svg xmlns:xlink="http://www.w3.org/1999/xlink" width="288pt" height="120pt" viewBox="0 0 288 120" xmlns="http://www.w3.org/2000/svg" version="1.1">
<desc id="nav-meta">{"window":"1m","count":4,"labels":["11.04","21.04","30.04","10.05"],"tick_utc":["2026-04-11T03:29:29Z","2026-04-21T03:56:07Z","2026-04-30T04:23:32Z","2026-05-10T04:35:36Z"],"w":720,"h":300}</desc>

 <metadata>
  <rdf:RDF xmlns:dc="http://purl.org/dc/elements/1.1/" xmlns:cc="http://creativecommons.org/ns#" xmlns:rdf="http://www.w3.org/1999/02/22-rdf-syntax-ns#">
   <cc:Work>
    <dc:type rdf:resource="http://purl.org/dc/dcmitype/StillImage"/>
    <dc:date>2026-05-10T19:44:31.669740</dc:date>
    <dc:format>image/svg+xml</dc:format>
    <dc:creator>
     <cc:Agent>
      <dc:title>Matplotlib v3.10.9, https://matplotlib.org/</dc:title>
     </cc:Agent>
    </dc:creator>
   </cc:Work>
  </rdf:RDF>
 </metadata>
 <defs>
  <style type="text/css">*{stroke-linejoin: round; stroke-linecap: butt}</style>
 </defs>
 <g id="figure_1">
  <g id="patch_1">
   <path d="M 0 120 
L 288 120 
L 288 0 
L 0 0 
L 0 120 
z
" style="fill: none; opacity: 0"/>
  </g>
  <g id="axes_1">
   <g id="patch_2">
    <path d="M 8.64 108 
L 279.36 108 
L 279.36 4.8 
L 8.64 4.8 
L 8.64 108 
z
" style="fill: none"/>
   </g>
   <g id="matplotlib.axis_1"/>
   <g id="matplotlib.axis_2"/>
   <g id="line2d_1">
    <path d="M 8.64 87.36 
L 279.36 87.36 
" clip-path="url(#p866ca6cf22)" style="fill: none; stroke: #b2b2b2; stroke-opacity: 0.35; stroke-width: 0.5; stroke-linecap: square"/>
   </g>
   <g id="line2d_2">
    <path d="M 8.64 66.72 
L 279.36 66.72 
" clip-path="url(#p866ca6cf22)" style="fill: none; stroke: #b2b2b2; stroke-opacity: 0.35; stroke-width: 0.5; stroke-linecap: square"/>
   </g>
   <g id="line2d_3">
    <path d="M 8.64 46.08 
L 279.36 46.08 
" clip-path="url(#p866ca6cf22)" style="fill: none; stroke: #b2b2b2; stroke-opacity: 0.35; stroke-width: 0.5; stroke-linecap: square"/>
   </g>
   <g id="line2d_4">
    <path d="M 8.64 25.44 
L 279.36 25.44 
" clip-path="url(#p866ca6cf22)" style="fill: none; stroke: #b2b2b2; stroke-opacity: 0.35; stroke-width: 0.5; stroke-linecap: square"/>
   </g>
   <g id="line2d_5">
    <path d="M 8.64 101.05464 
L 18.127622 101.3952 
L 27.495827 101.47776 
L 36.756911 100.86888 
L 46.070207 101.26104 
L 55.430969 100.99272 
L 64.732398 100.61088 
L 73.950009 100.44576 
L 83.393511 100.94112 
L 92.737012 101.09592 
L 102.016543 101.00304 
L 111.308048 100.69344 
L 120.66622 100.9308 
L 130.01134 100.92048 
L 139.220536 100.81728 
L 148.685936 100.8792 
L 158.106784 100.64184 
L 167.446725 101.1888 
L 176.741682 101.09592 
L 186.07774 101.37456 
L 195.49999 101.21976 
L 204.582541 101.20944 
L 214.09217 101.23008 
L 223.40935 100.92048 
L 232.524479 101.06496 
L 242.009081 100.70376 
L 251.331978 100.55928 
L 260.497269 100.53864 
L 269.851773 99.60984 
L 279.36 99.72336 
" clip-path="url(#p866ca6cf22)" style="fill: none; stroke: #bebebe; stroke-width: 0.5; stroke-linecap: round"/>
   </g>
   <g id="line2d_6">
    <path d="M 8.64 86.21448 
L 18.127622 86.66856 
L 27.495827 87.01944 
L 36.756911 84.44976 
L 46.070207 85.05864 
L 55.430969 84.58392 
L 64.732398 85.04832 
L 73.950009 83.71704 
L 83.393511 84.86256 
L 92.737012 85.6572 
L 102.016543 85.27536 
L 111.308048 84.49104 
L 120.66622 84.86256 
L 130.01134 85.32696 
L 139.220536 85.17216 
L 148.685936 85.31664 
L 158.106784 84.11952 
L 167.446725 85.66752 
L 176.741682 85.26504 
L 186.07774 86.26608 
L 195.49999 85.77072 
L 204.582541 85.38888 
L 214.09217 85.3992 
L 223.40935 84.09888 
L 232.524479 84.22272 
L 242.009081 84.34656 
L 251.331978 85.06896 
L 260.497269 85.7604 
L 269.851773 85.0896 
L 279.36 85.01736 
" clip-path="url(#p866ca6cf22)" style="fill: none; stroke: #4a8dff; stroke-width: 0.6"/>
   </g>
   <g id="line2d_7">
    <path d="M 8.64 99.1764 
L 18.127622 99.70272 
L 27.495827 99.94008 
L 36.756911 98.57784 
L 46.070207 98.65008 
L 55.430969 98.38176 
L 64.732398 98.48496 
L 73.950009 96.70992 
L 83.393511 98.05152 
L 92.737012 98.48496 
L 102.016543 97.96896 
L 111.308048 96.32808 
L 120.66622 96.20424 
L 130.01134 96.16296 
L 139.220536 96.1836 
L 148.685936 96.50352 
L 158.106784 94.76976 
L 167.446725 97.19496 
L 176.741682 96.9576 
L 186.07774 97.9896 
L 195.49999 96.89568 
L 204.582541 95.45088 
L 214.09217 95.67792 
L 223.40935 93.43848 
L 232.524479 92.90184 
L 242.009081 92.25168 
L 251.331978 92.87088 
L 260.497269 94.2744 
L 269.851773 93.1392 
L 279.36 92.97408 
" clip-path="url(#p866ca6cf22)" style="fill: none; stroke: #f5841e; stroke-width: 0.6"/>
   </g>
  </g>
 </g>
 <defs>
  <clipPath id="p866ca6cf22">
   <rect x="8.64" y="4.8" width="270.72" height="103.2"/>
  </clipPath>
 </defs>
</svg>
