<?xml version="1.0" encoding="utf-8" standalone="no"?>
<!DOCTYPE svg PUBLIC "-//W3C//DTD SVG 1.1//EN"
  "http://www.w3.org/Graphics/SVG/1.1/DTD/svg11.dtd">
<svg xmlns:xlink="http://www.w3.org/1999/xlink" width="288pt" height="120pt" viewBox="0 0 288 120" xmlns="http://www.w3.org/2000/svg" version="1.1">
<desc id="nav-meta">{"window":"2w","count":4,"labels":["14.03","18.03","23.03","27.03"],"tick_utc":["2026-03-14T03:15:02Z","2026-03-18T03:32:26Z","2026-03-23T03:35:18Z","2026-03-27T03:41:18Z"],"w":720,"h":300}</desc>

 <metadata>
  <rdf:RDF xmlns:dc="http://purl.org/dc/elements/1.1/" xmlns:cc="http://creativecommons.org/ns#" xmlns:rdf="http://www.w3.org/1999/02/22-rdf-syntax-ns#">
   <cc:Work>
    <dc:type rdf:resource="http://purl.org/dc/dcmitype/StillImage"/>
    <dc:date>2026-03-27T03:41:21.442306</dc:date>
    <dc:format>image/svg+xml</dc:format>
    <dc:creator>
     <cc:Agent>
      <dc:title>Matplotlib v3.10.8, https://matplotlib.org/</dc:title>
     </cc:Agent>
    </dc:creator>
   </cc:Work>
  </rdf:RDF>
 </metadata>
 <defs>
  <style type="text/css">*{stroke-linejoin: round; stroke-linecap: butt}</style>
 </defs>
 <g id="figure_1">
  <g id="patch_1">
   <path d="M 0 120 
L 288 120 
L 288 0 
L 0 0 
L 0 120 
z
" style="fill: none; opacity: 0"/>
  </g>
  <g id="axes_1">
   <g id="patch_2">
    <path d="M 8.64 108 
L 279.36 108 
L 279.36 4.8 
L 8.64 4.8 
L 8.64 108 
z
" style="fill: none"/>
   </g>
   <g id="matplotlib.axis_1"/>
   <g id="matplotlib.axis_2"/>
   <g id="line2d_1">
    <path d="M 8.64 87.36 
L 279.36 87.36 
" clip-path="url(#pb3eb7604e7)" style="fill: none; stroke: #b2b2b2; stroke-opacity: 0.35; stroke-width: 0.5; stroke-linecap: square"/>
   </g>
   <g id="line2d_2">
    <path d="M 8.64 66.72 
L 279.36 66.72 
" clip-path="url(#pb3eb7604e7)" style="fill: none; stroke: #b2b2b2; stroke-opacity: 0.35; stroke-width: 0.5; stroke-linecap: square"/>
   </g>
   <g id="line2d_3">
    <path d="M 8.64 46.08 
L 279.36 46.08 
" clip-path="url(#pb3eb7604e7)" style="fill: none; stroke: #b2b2b2; stroke-opacity: 0.35; stroke-width: 0.5; stroke-linecap: square"/>
   </g>
   <g id="line2d_4">
    <path d="M 8.64 25.44 
L 279.36 25.44 
" clip-path="url(#pb3eb7604e7)" style="fill: none; stroke: #b2b2b2; stroke-opacity: 0.35; stroke-width: 0.5; stroke-linecap: square"/>
   </g>
   <g id="line2d_5">
    <path d="M 8.64 100.50768 
L 29.833294 100.60056 
L 50.687458 99.76464 
L 71.118975 99.49632 
L 92.073025 99.40344 
L 112.874238 100.09488 
L 133.467256 100.3632 
L 154.140904 100.19808 
L 175.24731 100.47672 
L 196.091606 100.79664 
L 216.694492 100.26 
L 239.038756 99.83688 
L 258.538328 100.13616 
L 279.36 100.80696 
" clip-path="url(#pb3eb7604e7)" style="fill: none; stroke: #bebebe; stroke-width: 0.5; stroke-linecap: round"/>
   </g>
   <g id="line2d_6">
    <path d="M 8.64 88.45392 
L 29.833294 88.46424 
L 50.687458 86.38992 
L 71.118975 84.80064 
L 92.073025 84.8316 
L 112.874238 86.586 
L 133.467256 87.74184 
L 154.140904 87.618 
L 175.24731 88.19592 
L 196.091606 89.08344 
L 216.694492 87.89664 
L 239.038756 87.3084 
L 258.538328 87.65928 
L 279.36 88.96992 
" clip-path="url(#pb3eb7604e7)" style="fill: none; stroke: #4a8dff; stroke-width: 0.6"/>
   </g>
   <g id="line2d_7">
    <path d="M 8.64 99.94008 
L 29.833294 99.81624 
L 50.687458 98.93904 
L 71.118975 98.3508 
L 92.073025 98.52624 
L 112.874238 99.78528 
L 133.467256 100.12584 
L 154.140904 100.03296 
L 175.24731 100.45608 
L 196.091606 100.83792 
L 216.694492 100.11552 
L 239.038756 99.87816 
L 258.538328 100.002 
L 279.36 100.64184 
" clip-path="url(#pb3eb7604e7)" style="fill: none; stroke: #f5841e; stroke-width: 0.6"/>
   </g>
  </g>
 </g>
 <defs>
  <clipPath id="pb3eb7604e7">
   <rect x="8.64" y="4.8" width="270.72" height="103.2"/>
  </clipPath>
 </defs>
</svg>
