<?xml version="1.0" encoding="utf-8" standalone="no"?>
<!DOCTYPE svg PUBLIC "-//W3C//DTD SVG 1.1//EN"
  "http://www.w3.org/Graphics/SVG/1.1/DTD/svg11.dtd">
<svg xmlns:xlink="http://www.w3.org/1999/xlink" width="288pt" height="120pt" viewBox="0 0 288 120" xmlns="http://www.w3.org/2000/svg" version="1.1">
<desc id="nav-meta">{"window":"3m","count":4,"labels":["07.02","09.03","07.04","07.05"],"tick_utc":["2026-02-07T03:13:08Z","2026-03-09T03:23:53Z","2026-04-07T03:40:56Z","2026-05-07T04:25:17Z"],"w":720,"h":300}</desc>

 <metadata>
  <rdf:RDF xmlns:dc="http://purl.org/dc/elements/1.1/" xmlns:cc="http://creativecommons.org/ns#" xmlns:rdf="http://www.w3.org/1999/02/22-rdf-syntax-ns#">
   <cc:Work>
    <dc:type rdf:resource="http://purl.org/dc/dcmitype/StillImage"/>
    <dc:date>2026-05-07T15:17:09.744200</dc:date>
    <dc:format>image/svg+xml</dc:format>
    <dc:creator>
     <cc:Agent>
      <dc:title>Matplotlib v3.10.9, https://matplotlib.org/</dc:title>
     </cc:Agent>
    </dc:creator>
   </cc:Work>
  </rdf:RDF>
 </metadata>
 <defs>
  <style type="text/css">*{stroke-linejoin: round; stroke-linecap: butt}</style>
 </defs>
 <g id="figure_1">
  <g id="patch_1">
   <path d="M 0 120 
L 288 120 
L 288 0 
L 0 0 
L 0 120 
z
" style="fill: none; opacity: 0"/>
  </g>
  <g id="axes_1">
   <g id="patch_2">
    <path d="M 8.64 108 
L 279.36 108 
L 279.36 4.8 
L 8.64 4.8 
L 8.64 108 
z
" style="fill: none"/>
   </g>
   <g id="matplotlib.axis_1"/>
   <g id="matplotlib.axis_2"/>
   <g id="line2d_1">
    <path d="M 8.64 87.36 
L 279.36 87.36 
" clip-path="url(#pa34ab5b831)" style="fill: none; stroke: #b2b2b2; stroke-opacity: 0.35; stroke-width: 0.5; stroke-linecap: square"/>
   </g>
   <g id="line2d_2">
    <path d="M 8.64 66.72 
L 279.36 66.72 
" clip-path="url(#pa34ab5b831)" style="fill: none; stroke: #b2b2b2; stroke-opacity: 0.35; stroke-width: 0.5; stroke-linecap: square"/>
   </g>
   <g id="line2d_3">
    <path d="M 8.64 46.08 
L 279.36 46.08 
" clip-path="url(#pa34ab5b831)" style="fill: none; stroke: #b2b2b2; stroke-opacity: 0.35; stroke-width: 0.5; stroke-linecap: square"/>
   </g>
   <g id="line2d_4">
    <path d="M 8.64 25.44 
L 279.36 25.44 
" clip-path="url(#pa34ab5b831)" style="fill: none; stroke: #b2b2b2; stroke-opacity: 0.35; stroke-width: 0.5; stroke-linecap: square"/>
   </g>
   <g id="line2d_5">
    <path d="M 8.64 100.54896 
L 11.749579 100.70376 
L 14.764578 100.68312 
L 17.822011 100.95144 
L 20.855799 101.28168 
L 23.884942 101.71512 
L 26.924113 101.84928 
L 29.927641 101.034 
L 32.807314 100.54896 
L 36.042402 101.04432 
L 38.700612 100.81728 
L 42.117754 101.034 
L 45.154146 101.4984 
L 48.176463 101.33328 
L 51.197971 101.1372 
L 54.272786 101.06496 
L 57.322021 102.09696 
L 60.105283 102.05568 
L 63.39125 101.4984 
L 66.41779 100.60056 
L 69.452106 100.80696 
L 72.456372 101.45712 
L 75.565529 100.55928 
L 78.574229 101.10624 
L 81.621388 100.8792 
L 84.644444 100.74504 
L 87.691075 100.21872 
L 90.729719 100.53864 
L 93.746477 101.07528 
L 96.816084 101.38488 
L 99.865284 101.26104 
L 102.885841 100.78632 
L 105.924731 100.91016 
L 108.976781 100.99272 
L 112.010991 100.38384 
L 115.047031 100.50768 
L 118.14528 100.60056 
L 121.193952 99.76464 
L 124.180837 99.49632 
L 127.244111 99.40344 
L 130.285041 100.09488 
L 133.295536 100.3632 
L 136.317818 100.19808 
L 139.403365 100.47672 
L 142.450594 100.79664 
L 145.462531 100.26 
L 148.729041 99.83688 
L 151.579685 100.13616 
L 154.623606 100.80696 
L 157.634629 101.38488 
L 160.716129 101.3436 
L 163.764906 101.292 
L 166.785816 101.28168 
L 169.851975 101.28168 
L 172.85202 101.8596 
L 175.895589 101.88024 
L 178.909638 101.72544 
L 181.995502 101.68416 
L 185.043434 101.47776 
L 188.063781 101.78736 
L 191.108793 101.09592 
L 194.138289 101.46744 
L 197.206348 101.3436 
L 200.199953 101.05464 
L 203.294578 101.3952 
L 206.350252 101.47776 
L 209.370986 100.86888 
L 212.40875 101.26104 
L 215.461996 100.99272 
L 218.495889 100.61088 
L 221.502443 100.44576 
L 224.582677 100.94112 
L 227.630293 101.09592 
L 230.657044 101.00304 
L 233.6877 100.69344 
L 236.740102 100.9308 
L 239.788245 100.92048 
L 242.792055 100.81728 
L 245.879431 100.8792 
L 248.952276 100.64184 
L 251.998731 101.1888 
L 255.030513 101.09592 
L 258.075701 101.37456 
L 261.149004 101.21976 
L 264.111504 101.20944 
L 267.213307 101.23008 
L 270.252338 100.92048 
L 273.225465 101.06496 
L 276.319104 100.70376 
L 279.36 100.55928 
" clip-path="url(#pa34ab5b831)" style="fill: none; stroke: #bebebe; stroke-width: 0.5; stroke-linecap: round"/>
   </g>
   <g id="line2d_6">
    <path d="M 8.64 88.7532 
L 11.749579 88.65 
L 14.764578 88.55712 
L 17.822011 88.96992 
L 20.855799 89.7336 
L 23.884942 90.456 
L 26.924113 90.56952 
L 29.927641 89.15568 
L 32.807314 88.9596 
L 36.042402 90.6624 
L 38.700612 89.94 
L 42.117754 90.00192 
L 45.154146 90.3528 
L 48.176463 90.62112 
L 51.197971 90.5076 
L 54.272786 90.3528 
L 57.322021 92.004 
L 60.105283 92.13816 
L 63.39125 91.25064 
L 66.41779 89.166 
L 69.452106 89.56848 
L 72.456372 90.93072 
L 75.565529 89.41368 
L 78.574229 90.37344 
L 81.621388 89.79552 
L 84.644444 90.23928 
L 87.691075 88.0824 
L 90.729719 88.7532 
L 93.746477 90.16704 
L 96.816084 90.67272 
L 99.865284 90.18768 
L 102.885841 89.2692 
L 105.924731 89.54784 
L 108.976781 89.49624 
L 112.010991 88.31976 
L 115.047031 88.45392 
L 118.14528 88.46424 
L 121.193952 86.38992 
L 124.180837 84.80064 
L 127.244111 84.8316 
L 130.285041 86.586 
L 133.295536 87.74184 
L 136.317818 87.618 
L 139.403365 88.19592 
L 142.450594 89.08344 
L 145.462531 87.89664 
L 148.729041 87.3084 
L 151.579685 87.65928 
L 154.623606 88.96992 
L 157.634629 90.07416 
L 160.716129 89.76456 
L 163.764906 89.3724 
L 166.785816 89.00088 
L 169.851975 88.42296 
L 172.85202 88.81512 
L 175.895589 89.10408 
L 178.909638 89.14536 
L 181.995502 89.07312 
L 185.043434 87.9792 
L 188.063781 88.29912 
L 191.108793 86.38992 
L 194.138289 87.24648 
L 197.206348 87.1536 
L 200.199953 86.21448 
L 203.294578 86.66856 
L 206.350252 87.01944 
L 209.370986 84.44976 
L 212.40875 85.05864 
L 215.461996 84.58392 
L 218.495889 85.04832 
L 221.502443 83.71704 
L 224.582677 84.86256 
L 227.630293 85.6572 
L 230.657044 85.27536 
L 233.6877 84.49104 
L 236.740102 84.86256 
L 239.788245 85.32696 
L 242.792055 85.17216 
L 245.879431 85.31664 
L 248.952276 84.11952 
L 251.998731 85.66752 
L 255.030513 85.26504 
L 258.075701 86.26608 
L 261.149004 85.77072 
L 264.111504 85.38888 
L 267.213307 85.3992 
L 270.252338 84.09888 
L 273.225465 84.22272 
L 276.319104 84.34656 
L 279.36 85.06896 
" clip-path="url(#pa34ab5b831)" style="fill: none; stroke: #4a8dff; stroke-width: 0.6"/>
   </g>
   <g id="line2d_7">
    <path d="M 8.64 100.03296 
L 11.749579 100.518 
L 14.764578 99.98136 
L 17.822011 100.49736 
L 20.855799 100.78632 
L 23.884942 101.07528 
L 26.924113 101.26104 
L 29.927641 100.63152 
L 32.807314 100.38384 
L 36.042402 100.84824 
L 38.700612 100.65216 
L 42.117754 101.034 
L 45.154146 101.19912 
L 48.176463 101.10624 
L 51.197971 100.97208 
L 54.272786 100.91016 
L 57.322021 101.7564 
L 60.105283 101.84928 
L 63.39125 101.56032 
L 66.41779 100.85856 
L 69.452106 101.12688 
L 72.456372 101.4468 
L 75.565529 101.02368 
L 78.574229 101.30232 
L 81.621388 100.81728 
L 84.644444 100.79664 
L 87.691075 99.3312 
L 90.729719 99.92976 
L 93.746477 100.78632 
L 96.816084 101.17848 
L 99.865284 101.1372 
L 102.885841 100.21872 
L 105.924731 100.37352 
L 108.976781 100.4664 
L 112.010991 99.88848 
L 115.047031 99.94008 
L 118.14528 99.81624 
L 121.193952 98.93904 
L 124.180837 98.3508 
L 127.244111 98.52624 
L 130.285041 99.78528 
L 133.295536 100.12584 
L 136.317818 100.03296 
L 139.403365 100.45608 
L 142.450594 100.83792 
L 145.462531 100.11552 
L 148.729041 99.87816 
L 151.579685 100.002 
L 154.623606 100.64184 
L 157.634629 101.41584 
L 160.716129 101.21976 
L 163.764906 101.14752 
L 166.785816 101.00304 
L 169.851975 100.86888 
L 172.85202 101.21976 
L 175.895589 101.28168 
L 178.909638 101.20944 
L 181.995502 101.14752 
L 185.043434 100.55928 
L 188.063781 100.65216 
L 191.108793 99.80592 
L 194.138289 99.96072 
L 197.206348 99.6408 
L 200.199953 99.1764 
L 203.294578 99.70272 
L 206.350252 99.94008 
L 209.370986 98.57784 
L 212.40875 98.65008 
L 215.461996 98.38176 
L 218.495889 98.48496 
L 221.502443 96.70992 
L 224.582677 98.05152 
L 227.630293 98.48496 
L 230.657044 97.96896 
L 233.6877 96.32808 
L 236.740102 96.20424 
L 239.788245 96.16296 
L 242.792055 96.1836 
L 245.879431 96.50352 
L 248.952276 94.76976 
L 251.998731 97.19496 
L 255.030513 96.9576 
L 258.075701 97.9896 
L 261.149004 96.89568 
L 264.111504 95.45088 
L 267.213307 95.67792 
L 270.252338 93.43848 
L 273.225465 92.90184 
L 276.319104 92.25168 
L 279.36 92.87088 
" clip-path="url(#pa34ab5b831)" style="fill: none; stroke: #f5841e; stroke-width: 0.6"/>
   </g>
  </g>
 </g>
 <defs>
  <clipPath id="pa34ab5b831">
   <rect x="8.64" y="4.8" width="270.72" height="103.2"/>
  </clipPath>
 </defs>
</svg>
