<?xml version="1.0" encoding="utf-8" standalone="no"?>
<!DOCTYPE svg PUBLIC "-//W3C//DTD SVG 1.1//EN"
  "http://www.w3.org/Graphics/SVG/1.1/DTD/svg11.dtd">
<svg xmlns:xlink="http://www.w3.org/1999/xlink" width="288pt" height="120pt" viewBox="0 0 288 120" xmlns="http://www.w3.org/2000/svg" version="1.1">
<desc id="nav-meta">{"window":"3m","count":4,"labels":["17.12","16.01","15.02","17.03"],"tick_utc":["2025-12-17T12:00:00Z","2026-01-16T12:00:00Z","2026-02-15T02:00:29Z","2026-03-17T03:21:27Z"],"w":720,"h":300}</desc>

 <metadata>
  <rdf:RDF xmlns:dc="http://purl.org/dc/elements/1.1/" xmlns:cc="http://creativecommons.org/ns#" xmlns:rdf="http://www.w3.org/1999/02/22-rdf-syntax-ns#">
   <cc:Work>
    <dc:type rdf:resource="http://purl.org/dc/dcmitype/StillImage"/>
    <dc:date>2026-03-17T03:21:29.808308</dc:date>
    <dc:format>image/svg+xml</dc:format>
    <dc:creator>
     <cc:Agent>
      <dc:title>Matplotlib v3.10.8, https://matplotlib.org/</dc:title>
     </cc:Agent>
    </dc:creator>
   </cc:Work>
  </rdf:RDF>
 </metadata>
 <defs>
  <style type="text/css">*{stroke-linejoin: round; stroke-linecap: butt}</style>
 </defs>
 <g id="figure_1">
  <g id="patch_1">
   <path d="M 0 120 
L 288 120 
L 288 0 
L 0 0 
L 0 120 
z
" style="fill: none; opacity: 0"/>
  </g>
  <g id="axes_1">
   <g id="patch_2">
    <path d="M 8.64 108 
L 279.36 108 
L 279.36 4.8 
L 8.64 4.8 
L 8.64 108 
z
" style="fill: none"/>
   </g>
   <g id="matplotlib.axis_1"/>
   <g id="matplotlib.axis_2"/>
   <g id="line2d_1">
    <path d="M 8.64 87.36 
L 279.36 87.36 
" clip-path="url(#p5d639e5800)" style="fill: none; stroke: #b2b2b2; stroke-opacity: 0.35; stroke-width: 0.5; stroke-linecap: square"/>
   </g>
   <g id="line2d_2">
    <path d="M 8.64 66.72 
L 279.36 66.72 
" clip-path="url(#p5d639e5800)" style="fill: none; stroke: #b2b2b2; stroke-opacity: 0.35; stroke-width: 0.5; stroke-linecap: square"/>
   </g>
   <g id="line2d_3">
    <path d="M 8.64 46.08 
L 279.36 46.08 
" clip-path="url(#p5d639e5800)" style="fill: none; stroke: #b2b2b2; stroke-opacity: 0.35; stroke-width: 0.5; stroke-linecap: square"/>
   </g>
   <g id="line2d_4">
    <path d="M 8.64 25.44 
L 279.36 25.44 
" clip-path="url(#p5d639e5800)" style="fill: none; stroke: #b2b2b2; stroke-opacity: 0.35; stroke-width: 0.5; stroke-linecap: square"/>
   </g>
   <g id="line2d_5">
    <path d="M 8.64 91.31256 
L 11.660084 92.87088 
L 14.680168 93.8616 
L 17.700251 92.02464 
L 20.720335 92.13816 
L 23.740419 92.07624 
L 26.760503 92.14848 
L 29.780587 92.64384 
L 32.800671 93.01536 
L 35.820754 93.69648 
L 38.840838 93.11856 
L 41.860922 92.44776 
L 44.881006 92.30328 
L 47.90109 92.87088 
L 50.921174 92.38584 
L 53.941257 92.47872 
L 56.961341 91.88016 
L 59.981425 90.42504 
L 63.001509 90.08448 
L 66.021593 89.92968 
L 69.041677 88.76352 
L 72.06176 87.94824 
L 75.081844 89.2692 
L 78.101928 88.72224 
L 81.122012 89.39304 
L 84.142096 89.40336 
L 87.16218 88.41264 
L 90.182263 88.4952 
L 93.202347 86.86464 
L 96.222431 86.42088 
L 99.242515 87.62832 
L 102.262599 86.93688 
L 105.282683 87.23616 
L 108.302766 88.63968 
L 111.32285 90.0432 
L 114.342934 92.12784 
L 117.363018 91.16808 
L 120.383102 91.46736 
L 123.403186 91.73568 
L 126.423269 91.78728 
L 129.443353 94.0164 
L 132.463437 92.5716 
L 135.483521 91.76664 
L 138.503605 92.33424 
L 141.523689 94.36728 
L 144.543772 94.46016 
L 147.563856 97.71096 
L 150.58394 98.48496 
L 153.604024 97.85544 
L 156.153653 99.10416 
L 158.553676 100.16712 
L 161.572221 102.23112 
L 164.579372 100.54896 
L 167.668491 100.70376 
L 170.663653 100.68312 
L 173.700969 100.95144 
L 176.714796 101.28168 
L 179.724009 101.71512 
L 182.743184 101.84928 
L 185.72695 101.034 
L 188.587675 100.54896 
L 191.801478 101.04432 
L 194.442199 100.81728 
L 197.836857 101.034 
L 200.85327 101.4984 
L 203.855702 101.33328 
L 206.85733 101.1372 
L 209.911914 101.06496 
L 212.941086 102.09696 
L 215.706036 102.05568 
L 218.970383 101.4984 
L 221.977009 100.60056 
L 224.99136 100.80696 
L 227.97586 101.45712 
L 231.06456 100.55928 
L 234.053464 101.10624 
L 237.080574 100.8792 
L 240.08374 100.74504 
L 243.110325 100.21872 
L 246.128976 100.53864 
L 249.125885 101.07528 
L 252.175296 101.38488 
L 255.204433 101.26104 
L 258.205117 100.78632 
L 261.224012 100.91016 
L 264.255981 100.99272 
L 267.270227 100.38384 
L 270.286291 100.50768 
L 273.364155 100.60056 
L 276.392768 99.76464 
L 279.36 99.49632 
" clip-path="url(#p5d639e5800)" style="fill: none; stroke: #bebebe; stroke-width: 0.5; stroke-linecap: round"/>
   </g>
   <g id="line2d_6">
    <path d="M 8.64 75.5952 
L 11.660084 77.61792 
L 14.680168 77.63856 
L 17.700251 75.40944 
L 20.720335 75.40944 
L 23.740419 75.04824 
L 26.760503 74.98632 
L 29.780587 75.58488 
L 32.800671 75.87384 
L 35.820754 76.49304 
L 38.840838 76.15248 
L 41.860922 75.82224 
L 44.881006 75.84288 
L 47.90109 76.03896 
L 50.921174 75.51264 
L 53.941257 75.56424 
L 56.961341 75.05856 
L 59.981425 73.26288 
L 63.001509 73.20096 
L 66.021593 73.00488 
L 69.041677 71.68392 
L 72.06176 70.6932 
L 75.081844 72.62304 
L 78.101928 73.52088 
L 81.122012 73.83048 
L 84.142096 73.8408 
L 87.16218 73.29384 
L 90.182263 73.72728 
L 93.202347 70.32168 
L 96.222431 69.77472 
L 99.242515 70.34232 
L 102.262599 70.67256 
L 105.282683 70.51776 
L 108.302766 70.848 
L 111.32285 72.31344 
L 114.342934 76.01832 
L 117.363018 75.41976 
L 120.383102 75.83256 
L 123.403186 75.79128 
L 126.423269 75.82224 
L 129.443353 77.82432 
L 132.463437 76.14216 
L 135.483521 74.75928 
L 138.503605 74.96568 
L 141.523689 77.75208 
L 144.543772 79.48584 
L 147.563856 83.31456 
L 150.58394 85.90488 
L 153.604024 84.79032 
L 156.153653 85.84296 
L 158.553676 88.25784 
L 161.572221 91.41576 
L 164.579372 88.7532 
L 167.668491 88.65 
L 170.663653 88.55712 
L 173.700969 88.96992 
L 176.714796 89.7336 
L 179.724009 90.456 
L 182.743184 90.56952 
L 185.72695 89.15568 
L 188.587675 88.9596 
L 191.801478 90.6624 
L 194.442199 89.94 
L 197.836857 90.00192 
L 200.85327 90.3528 
L 203.855702 90.62112 
L 206.85733 90.5076 
L 209.911914 90.3528 
L 212.941086 92.004 
L 215.706036 92.13816 
L 218.970383 91.25064 
L 221.977009 89.166 
L 224.99136 89.56848 
L 227.97586 90.93072 
L 231.06456 89.41368 
L 234.053464 90.37344 
L 237.080574 89.79552 
L 240.08374 90.23928 
L 243.110325 88.0824 
L 246.128976 88.7532 
L 249.125885 90.16704 
L 252.175296 90.67272 
L 255.204433 90.18768 
L 258.205117 89.2692 
L 261.224012 89.54784 
L 264.255981 89.49624 
L 267.270227 88.31976 
L 270.286291 88.45392 
L 273.364155 88.46424 
L 276.392768 86.38992 
L 279.36 84.80064 
" clip-path="url(#p5d639e5800)" style="fill: none; stroke: #4a8dff; stroke-width: 0.6"/>
   </g>
   <g id="line2d_7">
    <path d="M 8.64 85.71912 
L 11.660084 87.53544 
L 14.680168 88.17528 
L 17.700251 85.41984 
L 20.720335 85.17216 
L 23.740419 84.9348 
L 26.760503 85.01736 
L 29.780587 86.14224 
L 32.800671 85.90488 
L 35.820754 86.328 
L 38.840838 86.24544 
L 41.860922 85.72944 
L 44.881006 85.7088 
L 47.90109 86.40024 
L 50.921174 85.09992 
L 53.941257 86.02872 
L 56.961341 84.78 
L 59.981425 83.53128 
L 63.001509 82.83984 
L 66.021593 82.03488 
L 69.041677 79.39296 
L 72.06176 79.66128 
L 75.081844 82.15872 
L 78.101928 82.43736 
L 81.122012 82.93272 
L 84.142096 83.00496 
L 87.16218 82.6128 
L 90.182263 82.28256 
L 93.202347 78.01008 
L 96.222431 76.19376 
L 99.242515 77.66952 
L 102.262599 77.74176 
L 105.282683 78.1752 
L 108.302766 79.5684 
L 111.32285 80.8068 
L 114.342934 85.20312 
L 117.363018 84.12984 
L 120.383102 84.03696 
L 123.403186 84.06792 
L 126.423269 84.3156 
L 129.443353 87.02976 
L 132.463437 85.21344 
L 135.483521 84.28464 
L 138.503605 84.32592 
L 141.523689 89.08344 
L 144.543772 89.5272 
L 147.563856 95.14128 
L 150.58394 96.98856 
L 153.604024 95.08968 
L 156.153653 97.71096 
L 158.553676 99.80592 
L 161.572221 101.79768 
L 164.579372 100.03296 
L 167.668491 100.518 
L 170.663653 99.98136 
L 173.700969 100.49736 
L 176.714796 100.78632 
L 179.724009 101.07528 
L 182.743184 101.26104 
L 185.72695 100.63152 
L 188.587675 100.38384 
L 191.801478 100.84824 
L 194.442199 100.65216 
L 197.836857 101.034 
L 200.85327 101.19912 
L 203.855702 101.10624 
L 206.85733 100.97208 
L 209.911914 100.91016 
L 212.941086 101.7564 
L 215.706036 101.84928 
L 218.970383 101.56032 
L 221.977009 100.85856 
L 224.99136 101.12688 
L 227.97586 101.4468 
L 231.06456 101.02368 
L 234.053464 101.30232 
L 237.080574 100.81728 
L 240.08374 100.79664 
L 243.110325 99.3312 
L 246.128976 99.92976 
L 249.125885 100.78632 
L 252.175296 101.17848 
L 255.204433 101.1372 
L 258.205117 100.21872 
L 261.224012 100.37352 
L 264.255981 100.4664 
L 267.270227 99.88848 
L 270.286291 99.94008 
L 273.364155 99.81624 
L 276.392768 98.93904 
L 279.36 98.3508 
" clip-path="url(#p5d639e5800)" style="fill: none; stroke: #f5841e; stroke-width: 0.6"/>
   </g>
  </g>
 </g>
 <defs>
  <clipPath id="p5d639e5800">
   <rect x="8.64" y="4.8" width="270.72" height="103.2"/>
  </clipPath>
 </defs>
</svg>
