<?xml version="1.0" encoding="utf-8" standalone="no"?>
<!DOCTYPE svg PUBLIC "-//W3C//DTD SVG 1.1//EN"
  "http://www.w3.org/Graphics/SVG/1.1/DTD/svg11.dtd">
<svg xmlns:xlink="http://www.w3.org/1999/xlink" width="288pt" height="120pt" viewBox="0 0 288 120" xmlns="http://www.w3.org/2000/svg" version="1.1">
<desc id="nav-meta">{"window":"3m","count":4,"labels":["14.04","14.05","12.06","12.07"],"tick_utc":["2026-04-14T03:53:32Z","2026-05-14T04:32:13Z","2026-06-12T05:19:52Z","2026-07-12T04:17:37Z"],"w":720,"h":300}</desc>

 <metadata>
  <rdf:RDF xmlns:dc="http://purl.org/dc/elements/1.1/" xmlns:cc="http://creativecommons.org/ns#" xmlns:rdf="http://www.w3.org/1999/02/22-rdf-syntax-ns#">
   <cc:Work>
    <dc:type rdf:resource="http://purl.org/dc/dcmitype/StillImage"/>
    <dc:date>2026-07-12T14:12:19.458422</dc:date>
    <dc:format>image/svg+xml</dc:format>
    <dc:creator>
     <cc:Agent>
      <dc:title>Matplotlib v3.11.0, https://matplotlib.org/</dc:title>
     </cc:Agent>
    </dc:creator>
   </cc:Work>
  </rdf:RDF>
 </metadata>
 <defs>
  <style type="text/css">*{stroke-linejoin: round; stroke-linecap: butt}</style>
 </defs>
 <g id="figure_1">
  <g id="patch_1">
   <path d="M 0 120 
L 288 120 
L 288 0 
L 0 0 
L 0 120 
z
" style="fill: none; opacity: 0"/>
  </g>
  <g id="axes_1">
   <g id="patch_2">
    <path d="M 8.64 108 
L 279.36 108 
L 279.36 4.8 
L 8.64 4.8 
L 8.64 108 
z
" style="fill: none"/>
   </g>
   <g id="matplotlib.axis_1"/>
   <g id="matplotlib.axis_2"/>
   <g id="line2d_1">
    <path d="M 8.64 87.36 
L 279.36 87.36 
" clip-path="url(#p70e7ff07af)" style="fill: none; stroke: #b2b2b2; stroke-opacity: 0.35; stroke-width: 0.5; stroke-linecap: square"/>
   </g>
   <g id="line2d_2">
    <path d="M 8.64 66.72 
L 279.36 66.72 
" clip-path="url(#p70e7ff07af)" style="fill: none; stroke: #b2b2b2; stroke-opacity: 0.35; stroke-width: 0.5; stroke-linecap: square"/>
   </g>
   <g id="line2d_3">
    <path d="M 8.64 46.08 
L 279.36 46.08 
" clip-path="url(#p70e7ff07af)" style="fill: none; stroke: #b2b2b2; stroke-opacity: 0.35; stroke-width: 0.5; stroke-linecap: square"/>
   </g>
   <g id="line2d_4">
    <path d="M 8.64 25.44 
L 279.36 25.44 
" clip-path="url(#p70e7ff07af)" style="fill: none; stroke: #b2b2b2; stroke-opacity: 0.35; stroke-width: 0.5; stroke-linecap: square"/>
   </g>
   <g id="line2d_5">
    <path d="M 8.64 100.86888 
L 11.678903 101.26104 
L 14.733294 100.99272 
L 17.768325 100.61088 
L 20.776006 100.44576 
L 23.857395 100.94112 
L 26.906154 101.09592 
L 29.93404 101.00304 
L 32.965833 100.69344 
L 36.019379 100.9308 
L 39.068665 100.92048 
L 42.073601 100.81728 
L 45.162135 100.8792 
L 48.236132 100.64184 
L 51.28373 101.1888 
L 54.316649 101.09592 
L 57.362979 101.37456 
L 60.437433 101.21976 
L 63.401045 101.20944 
L 66.504011 101.23008 
L 69.544181 100.92048 
L 72.518423 101.06496 
L 75.613223 100.70376 
L 78.655259 100.55928 
L 81.645868 100.53864 
L 84.698218 99.60984 
L 87.800726 99.72336 
L 90.865958 99.44472 
L 93.864945 99.25896 
L 96.920638 99.32088 
L 99.958485 100.22904 
L 103.014707 100.01232 
L 106.017108 100.43544 
L 109.103741 100.75536 
L 112.1745 101.02368 
L 115.193938 101.02368 
L 118.246041 101.17848 
L 121.304585 100.7244 
L 124.322509 100.75536 
L 127.321954 101.11656 
L 130.411333 100.91016 
L 133.492581 100.89984 
L 136.487731 101.1372 
L 139.560179 101.2404 
L 142.59169 101.6532 
L 145.63517 101.4984 
L 148.632537 101.48808 
L 151.735855 101.32296 
L 154.822066 101.51904 
L 157.833373 101.7048 
L 160.908813 102.54072 
L 163.93962 103.08768 
L 166.930758 103.36632 
L 169.925239 104.22288 
L 173.031831 103.85136 
L 176.086503 103.68624 
L 179.069686 103.43856 
L 182.142451 103.81008 
L 185.201523 103.72752 
L 188.254682 103.50048 
L 191.273662 103.5108 
L 194.336958 103.31472 
L 197.479277 102.95352 
L 200.537857 102.61296 
L 203.482214 102.6336 
L 206.508868 102.9948 
L 209.621725 103.28376 
L 212.541338 103.01544 
L 215.645852 102.69552 
L 218.776098 102.582 
L 221.635519 102.88128 
L 224.687622 103.15992 
L 227.728039 103.36632 
L 230.784858 103.36632 
L 233.788809 102.81936 
L 236.888008 103.0464 
L 239.951234 102.9432 
L 242.933501 102.59232 
L 246.01922 102.40656 
L 249.007189 102.02472 
L 252.015328 101.68416 
L 255.04346 101.3436 
L 258.129214 101.6532 
L 261.199902 101.6532 
L 264.19551 101.63256 
L 267.154088 101.95248 
L 270.287501 102.08664 
L 273.321864 101.9112 
L 276.273296 102.066 
L 279.36 102.18984 
" clip-path="url(#p70e7ff07af)" style="fill: none; stroke: #bebebe; stroke-width: 0.5; stroke-linecap: round"/>
   </g>
   <g id="line2d_6">
    <path d="M 8.64 84.44976 
L 11.678903 85.05864 
L 14.733294 84.58392 
L 17.768325 85.04832 
L 20.776006 83.71704 
L 23.857395 84.86256 
L 26.906154 85.6572 
L 29.93404 85.27536 
L 32.965833 84.49104 
L 36.019379 84.86256 
L 39.068665 85.32696 
L 42.073601 85.17216 
L 45.162135 85.31664 
L 48.236132 84.11952 
L 51.28373 85.66752 
L 54.316649 85.26504 
L 57.362979 86.26608 
L 60.437433 85.77072 
L 63.401045 85.38888 
L 66.504011 85.3992 
L 69.544181 84.09888 
L 72.518423 84.22272 
L 75.613223 84.34656 
L 78.655259 85.06896 
L 81.645868 85.7604 
L 84.698218 85.0896 
L 87.800726 85.01736 
L 90.865958 84.9348 
L 93.864945 85.296 
L 96.920638 85.35792 
L 99.958485 86.1732 
L 103.014707 85.92552 
L 106.017108 86.55504 
L 109.103741 87.13296 
L 112.1745 88.10304 
L 115.193938 87.9276 
L 118.246041 88.26816 
L 121.304585 87.78312 
L 124.322509 87.95856 
L 127.321954 88.94928 
L 130.411333 88.14432 
L 133.492581 88.33008 
L 136.487731 88.52616 
L 139.560179 88.86672 
L 142.59169 90.22896 
L 145.63517 89.82648 
L 148.632537 89.87808 
L 151.735855 89.46528 
L 154.822066 90.0432 
L 157.833373 89.96064 
L 160.908813 91.99368 
L 163.93962 93.05664 
L 166.930758 93.74808 
L 169.925239 97.02984 
L 173.031831 95.93592 
L 176.086503 95.07936 
L 179.069686 94.46016 
L 182.142451 95.47152 
L 185.201523 95.11032 
L 188.254682 94.82136 
L 191.273662 94.8936 
L 194.336958 94.70784 
L 197.479277 94.04736 
L 200.537857 93.40752 
L 203.482214 92.9844 
L 206.508868 93.93384 
L 209.621725 94.4292 
L 212.541338 94.19184 
L 215.645852 93.87192 
L 218.776098 93.81 
L 221.635519 94.03704 
L 224.687622 94.83168 
L 227.728039 95.48184 
L 230.784858 96.63768 
L 233.788809 96.14232 
L 236.888008 96.30744 
L 239.951234 96.29712 
L 242.933501 96.04944 
L 246.01922 95.9256 
L 249.007189 95.39928 
L 252.015328 94.31568 
L 255.04346 93.57264 
L 258.129214 93.32496 
L 261.199902 93.22176 
L 264.19551 93.35592 
L 267.154088 93.61392 
L 270.287501 93.77904 
L 273.321864 93.26304 
L 276.273296 92.92248 
L 279.36 92.71608 
" clip-path="url(#p70e7ff07af)" style="fill: none; stroke: #4a8dff; stroke-width: 0.6"/>
   </g>
   <g id="line2d_7">
    <path d="M 8.64 98.57784 
L 11.678903 98.65008 
L 14.733294 98.38176 
L 17.768325 98.48496 
L 20.776006 96.70992 
L 23.857395 98.05152 
L 26.906154 98.48496 
L 29.93404 97.96896 
L 32.965833 96.32808 
L 36.019379 96.20424 
L 39.068665 96.16296 
L 42.073601 96.1836 
L 45.162135 96.50352 
L 48.236132 94.76976 
L 51.28373 97.19496 
L 54.316649 96.9576 
L 57.362979 97.9896 
L 60.437433 96.89568 
L 63.401045 95.45088 
L 66.504011 95.67792 
L 69.544181 93.43848 
L 72.518423 92.90184 
L 75.613223 92.25168 
L 78.655259 92.87088 
L 81.645868 94.2744 
L 84.698218 93.1392 
L 87.800726 92.97408 
L 90.865958 92.9844 
L 93.864945 92.60256 
L 96.920638 92.53032 
L 99.958485 94.54272 
L 103.014707 92.85024 
L 106.017108 94.82136 
L 109.103741 95.75016 
L 112.1745 96.97824 
L 115.193938 97.08144 
L 118.246041 97.23624 
L 121.304585 95.94624 
L 124.322509 96.30744 
L 127.321954 98.08248 
L 130.411333 97.2672 
L 133.492581 96.61704 
L 136.487731 97.23624 
L 139.560179 98.08248 
L 142.59169 99.18672 
L 145.63517 99.03192 
L 148.632537 99.1248 
L 151.735855 98.74296 
L 154.822066 99.09384 
L 157.833373 100.0536 
L 160.908813 101.23008 
L 163.93962 101.99376 
L 166.930758 102.08664 
L 169.925239 102.8916 
L 173.031831 102.45816 
L 176.086503 102.28272 
L 179.069686 102.10728 
L 182.142451 102.582 
L 185.201523 102.29304 
L 188.254682 102.08664 
L 191.273662 102.066 
L 194.336958 101.86992 
L 197.479277 101.48808 
L 200.537857 101.40552 
L 203.482214 101.4984 
L 206.508868 101.97312 
L 209.621725 102.26208 
L 212.541338 102.066 
L 215.645852 101.90088 
L 218.776098 101.90088 
L 221.635519 102.0144 
L 224.687622 102.25176 
L 227.728039 102.6336 
L 230.784858 102.88128 
L 233.788809 102.77808 
L 236.888008 102.85032 
L 239.951234 102.93288 
L 242.933501 102.95352 
L 246.01922 103.00512 
L 249.007189 102.69552 
L 252.015328 102.55104 
L 255.04346 102.2724 
L 258.129214 102.21048 
L 261.199902 102.12792 
L 264.19551 102.13824 
L 267.154088 102.25176 
L 270.287501 102.36528 
L 273.321864 101.94216 
L 276.273296 101.92152 
L 279.36 101.9112 
" clip-path="url(#p70e7ff07af)" style="fill: none; stroke: #f5841e; stroke-width: 0.6"/>
   </g>
  </g>
 </g>
 <defs>
  <clipPath id="p70e7ff07af">
   <rect x="8.64" y="4.8" width="270.72" height="103.2"/>
  </clipPath>
 </defs>
</svg>
