<?xml version="1.0" encoding="utf-8" standalone="no"?>
<!DOCTYPE svg PUBLIC "-//W3C//DTD SVG 1.1//EN"
  "http://www.w3.org/Graphics/SVG/1.1/DTD/svg11.dtd">
<svg xmlns:xlink="http://www.w3.org/1999/xlink" width="288pt" height="120pt" viewBox="0 0 288 120" xmlns="http://www.w3.org/2000/svg" version="1.1">
<desc id="nav-meta">{"window":"3m","count":4,"labels":["26.01","25.02","27.03","26.04"],"tick_utc":["2026-01-26T12:00:00Z","2026-02-25T03:27:12Z","2026-03-27T03:41:18Z","2026-04-26T04:06:31Z"],"w":720,"h":300}</desc>

 <metadata>
  <rdf:RDF xmlns:dc="http://purl.org/dc/elements/1.1/" xmlns:cc="http://creativecommons.org/ns#" xmlns:rdf="http://www.w3.org/1999/02/22-rdf-syntax-ns#">
   <cc:Work>
    <dc:type rdf:resource="http://purl.org/dc/dcmitype/StillImage"/>
    <dc:date>2026-04-26T08:07:07.272221</dc:date>
    <dc:format>image/svg+xml</dc:format>
    <dc:creator>
     <cc:Agent>
      <dc:title>Matplotlib v3.10.9, https://matplotlib.org/</dc:title>
     </cc:Agent>
    </dc:creator>
   </cc:Work>
  </rdf:RDF>
 </metadata>
 <defs>
  <style type="text/css">*{stroke-linejoin: round; stroke-linecap: butt}</style>
 </defs>
 <g id="figure_1">
  <g id="patch_1">
   <path d="M 0 120 
L 288 120 
L 288 0 
L 0 0 
L 0 120 
z
" style="fill: none; opacity: 0"/>
  </g>
  <g id="axes_1">
   <g id="patch_2">
    <path d="M 8.64 108 
L 279.36 108 
L 279.36 4.8 
L 8.64 4.8 
L 8.64 108 
z
" style="fill: none"/>
   </g>
   <g id="matplotlib.axis_1"/>
   <g id="matplotlib.axis_2"/>
   <g id="line2d_1">
    <path d="M 8.64 87.36 
L 279.36 87.36 
" clip-path="url(#p7f95e6a9b2)" style="fill: none; stroke: #b2b2b2; stroke-opacity: 0.35; stroke-width: 0.5; stroke-linecap: square"/>
   </g>
   <g id="line2d_2">
    <path d="M 8.64 66.72 
L 279.36 66.72 
" clip-path="url(#p7f95e6a9b2)" style="fill: none; stroke: #b2b2b2; stroke-opacity: 0.35; stroke-width: 0.5; stroke-linecap: square"/>
   </g>
   <g id="line2d_3">
    <path d="M 8.64 46.08 
L 279.36 46.08 
" clip-path="url(#p7f95e6a9b2)" style="fill: none; stroke: #b2b2b2; stroke-opacity: 0.35; stroke-width: 0.5; stroke-linecap: square"/>
   </g>
   <g id="line2d_4">
    <path d="M 8.64 25.44 
L 279.36 25.44 
" clip-path="url(#p7f95e6a9b2)" style="fill: none; stroke: #b2b2b2; stroke-opacity: 0.35; stroke-width: 0.5; stroke-linecap: square"/>
   </g>
   <g id="line2d_5">
    <path d="M 8.64 94.0164 
L 11.65903 92.5716 
L 14.67806 91.76664 
L 17.697089 92.33424 
L 20.716119 94.36728 
L 23.735149 94.46016 
L 26.754179 97.71096 
L 29.773209 98.48496 
L 32.792238 97.85544 
L 35.340977 99.10416 
L 37.740163 100.16712 
L 40.757655 102.23112 
L 43.763756 100.54896 
L 46.851797 100.70376 
L 49.845913 100.68312 
L 52.882169 100.95144 
L 55.894944 101.28168 
L 58.903107 101.71512 
L 61.921228 101.84928 
L 64.903953 101.034 
L 67.76368 100.54896 
L 70.976361 101.04432 
L 73.61616 100.81728 
L 77.009633 101.034 
L 80.024994 101.4984 
L 83.026378 101.33328 
L 86.026958 101.1372 
L 89.080476 101.06496 
L 92.108591 102.09696 
L 94.872576 102.05568 
L 98.135784 101.4984 
L 101.14136 100.60056 
L 104.15466 100.80696 
L 107.138118 101.45712 
L 110.22574 100.55928 
L 113.213601 101.10624 
L 116.239654 100.8792 
L 119.241772 100.74504 
L 122.267301 100.21872 
L 125.284898 100.53864 
L 128.280761 101.07528 
L 131.329108 101.38488 
L 134.357187 101.26104 
L 137.356824 100.78632 
L 140.374666 100.91016 
L 143.405576 100.99272 
L 146.41877 100.38384 
L 149.433782 100.50768 
L 152.510572 100.60056 
L 155.538127 99.76464 
L 158.504324 99.49632 
L 161.546381 99.40344 
L 164.566249 100.09488 
L 167.555893 100.3632 
L 170.557241 100.19808 
L 173.621417 100.47672 
L 176.64754 100.79664 
L 179.638616 100.26 
L 182.8825 99.83688 
L 185.7134 100.13616 
L 188.736238 100.80696 
L 191.726406 101.38488 
L 194.786563 101.3436 
L 197.814223 101.292 
L 200.81421 101.28168 
L 203.859132 101.28168 
L 206.838397 101.8596 
L 209.860886 101.88024 
L 212.854058 101.72544 
L 215.918548 101.68416 
L 218.94537 101.47776 
L 221.944797 101.78736 
L 224.968719 101.09592 
L 227.977231 101.46744 
L 231.02404 101.3436 
L 233.996911 101.05464 
L 237.070102 101.3952 
L 240.104611 101.47776 
L 243.104422 100.86888 
L 246.121146 101.26104 
L 249.153244 100.99272 
L 252.166124 100.61088 
L 255.151854 100.44576 
L 258.210753 100.94112 
L 261.23726 101.09592 
L 264.243047 101.00304 
L 267.252712 100.69344 
L 270.283972 100.9308 
L 273.311003 100.92048 
L 276.294008 100.81728 
L 279.36 100.8792 
" clip-path="url(#p7f95e6a9b2)" style="fill: none; stroke: #bebebe; stroke-width: 0.5; stroke-linecap: round"/>
   </g>
   <g id="line2d_6">
    <path d="M 8.64 77.82432 
L 11.65903 76.14216 
L 14.67806 74.75928 
L 17.697089 74.96568 
L 20.716119 77.75208 
L 23.735149 79.48584 
L 26.754179 83.31456 
L 29.773209 85.90488 
L 32.792238 84.79032 
L 35.340977 85.84296 
L 37.740163 88.25784 
L 40.757655 91.41576 
L 43.763756 88.7532 
L 46.851797 88.65 
L 49.845913 88.55712 
L 52.882169 88.96992 
L 55.894944 89.7336 
L 58.903107 90.456 
L 61.921228 90.56952 
L 64.903953 89.15568 
L 67.76368 88.9596 
L 70.976361 90.6624 
L 73.61616 89.94 
L 77.009633 90.00192 
L 80.024994 90.3528 
L 83.026378 90.62112 
L 86.026958 90.5076 
L 89.080476 90.3528 
L 92.108591 92.004 
L 94.872576 92.13816 
L 98.135784 91.25064 
L 101.14136 89.166 
L 104.15466 89.56848 
L 107.138118 90.93072 
L 110.22574 89.41368 
L 113.213601 90.37344 
L 116.239654 89.79552 
L 119.241772 90.23928 
L 122.267301 88.0824 
L 125.284898 88.7532 
L 128.280761 90.16704 
L 131.329108 90.67272 
L 134.357187 90.18768 
L 137.356824 89.2692 
L 140.374666 89.54784 
L 143.405576 89.49624 
L 146.41877 88.31976 
L 149.433782 88.45392 
L 152.510572 88.46424 
L 155.538127 86.38992 
L 158.504324 84.80064 
L 161.546381 84.8316 
L 164.566249 86.586 
L 167.555893 87.74184 
L 170.557241 87.618 
L 173.621417 88.19592 
L 176.64754 89.08344 
L 179.638616 87.89664 
L 182.8825 87.3084 
L 185.7134 87.65928 
L 188.736238 88.96992 
L 191.726406 90.07416 
L 194.786563 89.76456 
L 197.814223 89.3724 
L 200.81421 89.00088 
L 203.859132 88.42296 
L 206.838397 88.81512 
L 209.860886 89.10408 
L 212.854058 89.14536 
L 215.918548 89.07312 
L 218.94537 87.9792 
L 221.944797 88.29912 
L 224.968719 86.38992 
L 227.977231 87.24648 
L 231.02404 87.1536 
L 233.996911 86.21448 
L 237.070102 86.66856 
L 240.104611 87.01944 
L 243.104422 84.44976 
L 246.121146 85.05864 
L 249.153244 84.58392 
L 252.166124 85.04832 
L 255.151854 83.71704 
L 258.210753 84.86256 
L 261.23726 85.6572 
L 264.243047 85.27536 
L 267.252712 84.49104 
L 270.283972 84.86256 
L 273.311003 85.32696 
L 276.294008 85.17216 
L 279.36 85.31664 
" clip-path="url(#p7f95e6a9b2)" style="fill: none; stroke: #4a8dff; stroke-width: 0.6"/>
   </g>
   <g id="line2d_7">
    <path d="M 8.64 87.02976 
L 11.65903 85.21344 
L 14.67806 84.28464 
L 17.697089 84.32592 
L 20.716119 89.08344 
L 23.735149 89.5272 
L 26.754179 95.14128 
L 29.773209 96.98856 
L 32.792238 95.08968 
L 35.340977 97.71096 
L 37.740163 99.80592 
L 40.757655 101.79768 
L 43.763756 100.03296 
L 46.851797 100.518 
L 49.845913 99.98136 
L 52.882169 100.49736 
L 55.894944 100.78632 
L 58.903107 101.07528 
L 61.921228 101.26104 
L 64.903953 100.63152 
L 67.76368 100.38384 
L 70.976361 100.84824 
L 73.61616 100.65216 
L 77.009633 101.034 
L 80.024994 101.19912 
L 83.026378 101.10624 
L 86.026958 100.97208 
L 89.080476 100.91016 
L 92.108591 101.7564 
L 94.872576 101.84928 
L 98.135784 101.56032 
L 101.14136 100.85856 
L 104.15466 101.12688 
L 107.138118 101.4468 
L 110.22574 101.02368 
L 113.213601 101.30232 
L 116.239654 100.81728 
L 119.241772 100.79664 
L 122.267301 99.3312 
L 125.284898 99.92976 
L 128.280761 100.78632 
L 131.329108 101.17848 
L 134.357187 101.1372 
L 137.356824 100.21872 
L 140.374666 100.37352 
L 143.405576 100.4664 
L 146.41877 99.88848 
L 149.433782 99.94008 
L 152.510572 99.81624 
L 155.538127 98.93904 
L 158.504324 98.3508 
L 161.546381 98.52624 
L 164.566249 99.78528 
L 167.555893 100.12584 
L 170.557241 100.03296 
L 173.621417 100.45608 
L 176.64754 100.83792 
L 179.638616 100.11552 
L 182.8825 99.87816 
L 185.7134 100.002 
L 188.736238 100.64184 
L 191.726406 101.41584 
L 194.786563 101.21976 
L 197.814223 101.14752 
L 200.81421 101.00304 
L 203.859132 100.86888 
L 206.838397 101.21976 
L 209.860886 101.28168 
L 212.854058 101.20944 
L 215.918548 101.14752 
L 218.94537 100.55928 
L 221.944797 100.65216 
L 224.968719 99.80592 
L 227.977231 99.96072 
L 231.02404 99.6408 
L 233.996911 99.1764 
L 237.070102 99.70272 
L 240.104611 99.94008 
L 243.104422 98.57784 
L 246.121146 98.65008 
L 249.153244 98.38176 
L 252.166124 98.48496 
L 255.151854 96.70992 
L 258.210753 98.05152 
L 261.23726 98.48496 
L 264.243047 97.96896 
L 267.252712 96.32808 
L 270.283972 96.20424 
L 273.311003 96.16296 
L 276.294008 96.1836 
L 279.36 96.50352 
" clip-path="url(#p7f95e6a9b2)" style="fill: none; stroke: #f5841e; stroke-width: 0.6"/>
   </g>
  </g>
 </g>
 <defs>
  <clipPath id="p7f95e6a9b2">
   <rect x="8.64" y="4.8" width="270.72" height="103.2"/>
  </clipPath>
 </defs>
</svg>
