<?xml version="1.0" encoding="utf-8" standalone="no"?>
<!DOCTYPE svg PUBLIC "-//W3C//DTD SVG 1.1//EN"
  "http://www.w3.org/Graphics/SVG/1.1/DTD/svg11.dtd">
<svg xmlns:xlink="http://www.w3.org/1999/xlink" width="288pt" height="120pt" viewBox="0 0 288 120" xmlns="http://www.w3.org/2000/svg" version="1.1">
<desc id="nav-meta">{"window":"6m","count":4,"labels":["14.12","12.02","12.04","11.06"],"tick_utc":["2025-12-14T12:00:00Z","2026-02-12T03:34:13Z","2026-04-12T03:55:19Z","2026-06-11T05:14:13Z"],"w":720,"h":300}</desc>

 <metadata>
  <rdf:RDF xmlns:dc="http://purl.org/dc/elements/1.1/" xmlns:cc="http://creativecommons.org/ns#" xmlns:rdf="http://www.w3.org/1999/02/22-rdf-syntax-ns#">
   <cc:Work>
    <dc:type rdf:resource="http://purl.org/dc/dcmitype/StillImage"/>
    <dc:date>2026-06-11T21:07:50.244427</dc:date>
    <dc:format>image/svg+xml</dc:format>
    <dc:creator>
     <cc:Agent>
      <dc:title>Matplotlib v3.10.9, https://matplotlib.org/</dc:title>
     </cc:Agent>
    </dc:creator>
   </cc:Work>
  </rdf:RDF>
 </metadata>
 <defs>
  <style type="text/css">*{stroke-linejoin: round; stroke-linecap: butt}</style>
 </defs>
 <g id="figure_1">
  <g id="patch_1">
   <path d="M 0 120 
L 288 120 
L 288 0 
L 0 0 
L 0 120 
z
" style="fill: none; opacity: 0"/>
  </g>
  <g id="axes_1">
   <g id="patch_2">
    <path d="M 8.64 108 
L 279.36 108 
L 279.36 4.8 
L 8.64 4.8 
L 8.64 108 
z
" style="fill: none"/>
   </g>
   <g id="matplotlib.axis_1"/>
   <g id="matplotlib.axis_2"/>
   <g id="line2d_1">
    <path d="M 8.64 87.36 
L 279.36 87.36 
" clip-path="url(#pb59e68eeef)" style="fill: none; stroke: #b2b2b2; stroke-opacity: 0.35; stroke-width: 0.5; stroke-linecap: square"/>
   </g>
   <g id="line2d_2">
    <path d="M 8.64 66.72 
L 279.36 66.72 
" clip-path="url(#pb59e68eeef)" style="fill: none; stroke: #b2b2b2; stroke-opacity: 0.35; stroke-width: 0.5; stroke-linecap: square"/>
   </g>
   <g id="line2d_3">
    <path d="M 8.64 46.08 
L 279.36 46.08 
" clip-path="url(#pb59e68eeef)" style="fill: none; stroke: #b2b2b2; stroke-opacity: 0.35; stroke-width: 0.5; stroke-linecap: square"/>
   </g>
   <g id="line2d_4">
    <path d="M 8.64 25.44 
L 279.36 25.44 
" clip-path="url(#pb59e68eeef)" style="fill: none; stroke: #b2b2b2; stroke-opacity: 0.35; stroke-width: 0.5; stroke-linecap: square"/>
   </g>
   <g id="line2d_5">
    <path d="M 8.64 90.10512 
L 10.154787 91.09584 
L 11.669574 91.61184 
L 13.184361 91.31256 
L 14.699148 92.87088 
L 16.213935 93.8616 
L 17.728721 92.02464 
L 19.243508 92.13816 
L 20.758295 92.07624 
L 22.273082 92.14848 
L 23.787869 92.64384 
L 25.302656 93.01536 
L 26.817443 93.69648 
L 29.847017 92.44776 
L 31.361804 92.30328 
L 32.876591 92.87088 
L 34.391378 92.38584 
L 35.906164 92.47872 
L 37.420951 91.88016 
L 38.935738 90.42504 
L 40.450525 90.08448 
L 41.965312 89.92968 
L 43.480099 88.76352 
L 44.994886 87.94824 
L 46.509673 89.2692 
L 48.02446 88.72224 
L 49.539247 89.39304 
L 51.054034 89.40336 
L 52.568821 88.41264 
L 54.083607 88.4952 
L 55.598394 86.86464 
L 57.113181 86.42088 
L 58.627968 87.62832 
L 60.142755 86.93688 
L 61.657542 87.23616 
L 64.687116 90.0432 
L 66.201903 92.12784 
L 67.71669 91.16808 
L 70.746264 91.73568 
L 72.26105 91.78728 
L 73.775837 94.0164 
L 75.290624 92.5716 
L 76.805411 91.76664 
L 78.320198 92.33424 
L 79.834985 94.36728 
L 81.349772 94.46016 
L 82.864559 97.71096 
L 84.379346 98.48496 
L 85.894133 97.85544 
L 88.376735 100.16712 
L 89.890751 102.23112 
L 91.399051 100.54896 
L 92.948464 100.70376 
L 94.45075 100.68312 
L 97.485829 101.28168 
L 98.995164 101.71512 
L 100.509495 101.84928 
L 102.006066 101.034 
L 103.440923 100.54896 
L 105.052874 101.04432 
L 106.377383 100.81728 
L 108.080045 101.034 
L 109.592992 101.4984 
L 114.136546 101.06496 
L 115.655891 102.09696 
L 117.04271 102.05568 
L 118.680012 101.4984 
L 120.188049 100.60056 
L 121.699961 100.80696 
L 123.1969 101.45712 
L 124.746103 100.55928 
L 126.245251 101.10624 
L 129.269863 100.74504 
L 130.787911 100.21872 
L 132.301979 100.53864 
L 133.805142 101.07528 
L 135.334639 101.38488 
L 136.853966 101.26104 
L 138.359023 100.78632 
L 141.393962 100.99272 
L 142.905821 100.38384 
L 145.962359 100.60056 
L 147.481424 99.76464 
L 148.969702 99.49632 
L 150.496043 99.40344 
L 152.01125 100.09488 
L 153.511293 100.3632 
L 155.017208 100.19808 
L 158.072993 100.79664 
L 159.573754 100.26 
L 161.201361 99.83688 
L 162.621754 100.13616 
L 165.638757 101.38488 
L 171.726307 101.28168 
L 173.221143 101.8596 
L 174.737665 101.88024 
L 176.239478 101.72544 
L 177.777075 101.68416 
L 179.295771 101.47776 
L 180.800722 101.78736 
L 182.317964 101.09592 
L 183.827474 101.46744 
L 185.356199 101.3436 
L 186.847825 101.05464 
L 188.389787 101.3952 
L 189.912341 101.47776 
L 191.417485 100.86888 
L 192.931115 101.26104 
L 194.452459 100.99272 
L 195.96416 100.61088 
L 197.462239 100.44576 
L 198.99703 100.94112 
L 200.515569 101.09592 
L 202.023711 101.00304 
L 203.533799 100.69344 
L 205.054723 100.9308 
L 209.608586 100.8792 
L 211.139695 100.64184 
L 212.657656 101.1888 
L 214.168305 101.09592 
L 215.685634 101.37456 
L 217.216971 101.21976 
L 220.238638 101.23008 
L 221.752899 100.92048 
L 223.234322 101.06496 
L 224.775793 100.70376 
L 226.290983 100.55928 
L 227.780559 100.53864 
L 229.300886 99.60984 
L 230.846196 99.72336 
L 233.866689 99.25896 
L 235.388681 99.32088 
L 236.901785 100.22904 
L 238.424041 100.01232 
L 241.456893 100.75536 
L 242.98639 101.02368 
L 244.490324 101.02368 
L 246.010528 101.17848 
L 247.533941 100.7244 
L 249.037122 100.75536 
L 250.531098 101.11656 
L 252.069869 100.91016 
L 253.60459 100.89984 
L 255.096427 101.1372 
L 256.626765 101.2404 
L 258.136713 101.6532 
L 259.652622 101.4984 
L 261.145564 101.48808 
L 262.691278 101.32296 
L 265.728355 101.7048 
L 267.260184 102.54072 
L 268.769781 103.08768 
L 270.25962 103.36632 
L 271.751124 104.22288 
L 273.298468 103.85136 
L 276.305828 103.43856 
L 277.836324 103.81008 
L 279.36 103.72752 
L 279.36 103.72752 
" clip-path="url(#pb59e68eeef)" style="fill: none; stroke: #bebebe; stroke-width: 0.5; stroke-linecap: round"/>
   </g>
   <g id="line2d_6">
    <path d="M 8.64 73.35576 
L 10.154787 74.0988 
L 11.669574 75.5952 
L 13.184361 75.5952 
L 14.699148 77.61792 
L 16.213935 77.63856 
L 17.728721 75.40944 
L 19.243508 75.40944 
L 20.758295 75.04824 
L 22.273082 74.98632 
L 23.787869 75.58488 
L 25.302656 75.87384 
L 26.817443 76.49304 
L 29.847017 75.82224 
L 31.361804 75.84288 
L 32.876591 76.03896 
L 34.391378 75.51264 
L 35.906164 75.56424 
L 37.420951 75.05856 
L 38.935738 73.26288 
L 40.450525 73.20096 
L 41.965312 73.00488 
L 43.480099 71.68392 
L 44.994886 70.6932 
L 46.509673 72.62304 
L 48.02446 73.52088 
L 49.539247 73.83048 
L 51.054034 73.8408 
L 52.568821 73.29384 
L 54.083607 73.72728 
L 55.598394 70.32168 
L 57.113181 69.77472 
L 58.627968 70.34232 
L 60.142755 70.67256 
L 61.657542 70.51776 
L 63.172329 70.848 
L 64.687116 72.31344 
L 66.201903 76.01832 
L 67.71669 75.41976 
L 69.231477 75.83256 
L 72.26105 75.82224 
L 73.775837 77.82432 
L 75.290624 76.14216 
L 76.805411 74.75928 
L 78.320198 74.96568 
L 79.834985 77.75208 
L 81.349772 79.48584 
L 82.864559 83.31456 
L 84.379346 85.90488 
L 85.894133 84.79032 
L 87.172953 85.84296 
L 89.890751 91.41576 
L 91.399051 88.7532 
L 94.45075 88.55712 
L 95.974181 88.96992 
L 98.995164 90.456 
L 100.509495 90.56952 
L 102.006066 89.15568 
L 103.440923 88.9596 
L 105.052874 90.6624 
L 106.377383 89.94 
L 108.080045 90.00192 
L 111.098925 90.62112 
L 114.136546 90.3528 
L 115.655891 92.004 
L 117.04271 92.13816 
L 118.680012 91.25064 
L 120.188049 89.166 
L 121.699961 89.56848 
L 123.1969 90.93072 
L 124.746103 89.41368 
L 126.245251 90.37344 
L 127.763562 89.79552 
L 129.269863 90.23928 
L 130.787911 88.0824 
L 132.301979 88.7532 
L 133.805142 90.16704 
L 135.334639 90.67272 
L 136.853966 90.18768 
L 138.359023 89.2692 
L 139.873214 89.54784 
L 141.393962 89.49624 
L 142.905821 88.31976 
L 144.418591 88.45392 
L 145.962359 88.46424 
L 147.481424 86.38992 
L 148.969702 84.80064 
L 150.496043 84.8316 
L 152.01125 86.586 
L 153.511293 87.74184 
L 155.017208 87.618 
L 156.554647 88.19592 
L 158.072993 89.08344 
L 159.573754 87.89664 
L 161.201361 87.3084 
L 162.621754 87.65928 
L 164.138452 88.96992 
L 165.638757 90.07416 
L 168.693297 89.3724 
L 170.198529 89.00088 
L 171.726307 88.42296 
L 174.737665 89.10408 
L 176.239478 89.14536 
L 177.777075 89.07312 
L 179.295771 87.9792 
L 180.800722 88.29912 
L 182.317964 86.38992 
L 183.827474 87.24648 
L 185.356199 87.1536 
L 186.847825 86.21448 
L 189.912341 87.01944 
L 191.417485 84.44976 
L 192.931115 85.05864 
L 194.452459 84.58392 
L 195.96416 85.04832 
L 197.462239 83.71704 
L 198.99703 84.86256 
L 200.515569 85.6572 
L 202.023711 85.27536 
L 203.533799 84.49104 
L 206.573524 85.32696 
L 208.070236 85.17216 
L 209.608586 85.31664 
L 211.139695 84.11952 
L 212.657656 85.66752 
L 214.168305 85.26504 
L 215.685634 86.26608 
L 218.6931 85.38888 
L 220.238638 85.3992 
L 221.752899 84.09888 
L 224.775793 84.34656 
L 227.780559 85.7604 
L 229.300886 85.0896 
L 232.37294 84.9348 
L 233.866689 85.296 
L 235.388681 85.35792 
L 236.901785 86.1732 
L 238.424041 85.92552 
L 241.456893 87.13296 
L 242.98639 88.10304 
L 244.490324 87.9276 
L 246.010528 88.26816 
L 247.533941 87.78312 
L 249.037122 87.95856 
L 250.531098 88.94928 
L 252.069869 88.14432 
L 255.096427 88.52616 
L 256.626765 88.86672 
L 258.136713 90.22896 
L 259.652622 89.82648 
L 261.145564 89.87808 
L 262.691278 89.46528 
L 264.228471 90.0432 
L 265.728355 89.96064 
L 267.260184 91.99368 
L 268.769781 93.05664 
L 270.25962 93.74808 
L 271.751124 97.02984 
L 273.298468 95.93592 
L 274.819952 95.07936 
L 276.305828 94.46016 
L 277.836324 95.47152 
L 279.36 95.11032 
L 279.36 95.11032 
" clip-path="url(#pb59e68eeef)" style="fill: none; stroke: #4a8dff; stroke-width: 0.6"/>
   </g>
   <g id="line2d_7">
    <path d="M 8.64 83.19072 
L 10.154787 85.296 
L 11.669574 87.17424 
L 13.184361 85.71912 
L 14.699148 87.53544 
L 16.213935 88.17528 
L 17.728721 85.41984 
L 20.758295 84.9348 
L 22.273082 85.01736 
L 23.787869 86.14224 
L 25.302656 85.90488 
L 26.817443 86.328 
L 28.33223 86.24544 
L 29.847017 85.72944 
L 31.361804 85.7088 
L 32.876591 86.40024 
L 34.391378 85.09992 
L 35.906164 86.02872 
L 38.935738 83.53128 
L 41.965312 82.03488 
L 43.480099 79.39296 
L 44.994886 79.66128 
L 46.509673 82.15872 
L 48.02446 82.43736 
L 49.539247 82.93272 
L 51.054034 83.00496 
L 54.083607 82.28256 
L 55.598394 78.01008 
L 57.113181 76.19376 
L 58.627968 77.66952 
L 60.142755 77.74176 
L 61.657542 78.1752 
L 63.172329 79.5684 
L 64.687116 80.8068 
L 66.201903 85.20312 
L 67.71669 84.12984 
L 69.231477 84.03696 
L 70.746264 84.06792 
L 72.26105 84.3156 
L 73.775837 87.02976 
L 75.290624 85.21344 
L 76.805411 84.28464 
L 78.320198 84.32592 
L 79.834985 89.08344 
L 81.349772 89.5272 
L 82.864559 95.14128 
L 84.379346 96.98856 
L 85.894133 95.08968 
L 87.172953 97.71096 
L 88.376735 99.80592 
L 89.890751 101.79768 
L 91.399051 100.03296 
L 92.948464 100.518 
L 94.45075 99.98136 
L 95.974181 100.49736 
L 100.509495 101.26104 
L 102.006066 100.63152 
L 103.440923 100.38384 
L 105.052874 100.84824 
L 106.377383 100.65216 
L 108.080045 101.034 
L 109.592992 101.19912 
L 114.136546 100.91016 
L 115.655891 101.7564 
L 117.04271 101.84928 
L 118.680012 101.56032 
L 120.188049 100.85856 
L 123.1969 101.4468 
L 124.746103 101.02368 
L 126.245251 101.30232 
L 127.763562 100.81728 
L 129.269863 100.79664 
L 130.787911 99.3312 
L 132.301979 99.92976 
L 133.805142 100.78632 
L 135.334639 101.17848 
L 136.853966 101.1372 
L 138.359023 100.21872 
L 141.393962 100.4664 
L 142.905821 99.88848 
L 144.418591 99.94008 
L 145.962359 99.81624 
L 147.481424 98.93904 
L 148.969702 98.3508 
L 150.496043 98.52624 
L 152.01125 99.78528 
L 153.511293 100.12584 
L 155.017208 100.03296 
L 158.072993 100.83792 
L 159.573754 100.11552 
L 161.201361 99.87816 
L 162.621754 100.002 
L 164.138452 100.64184 
L 165.638757 101.41584 
L 167.17418 101.21976 
L 170.198529 101.00304 
L 171.726307 100.86888 
L 173.221143 101.21976 
L 174.737665 101.28168 
L 177.777075 101.14752 
L 179.295771 100.55928 
L 180.800722 100.65216 
L 182.317964 99.80592 
L 183.827474 99.96072 
L 185.356199 99.6408 
L 186.847825 99.1764 
L 188.389787 99.70272 
L 189.912341 99.94008 
L 191.417485 98.57784 
L 192.931115 98.65008 
L 194.452459 98.38176 
L 195.96416 98.48496 
L 197.462239 96.70992 
L 198.99703 98.05152 
L 200.515569 98.48496 
L 202.023711 97.96896 
L 203.533799 96.32808 
L 206.573524 96.16296 
L 208.070236 96.1836 
L 209.608586 96.50352 
L 211.139695 94.76976 
L 212.657656 97.19496 
L 214.168305 96.9576 
L 215.685634 97.9896 
L 217.216971 96.89568 
L 218.6931 95.45088 
L 220.238638 95.67792 
L 221.752899 93.43848 
L 224.775793 92.25168 
L 226.290983 92.87088 
L 227.780559 94.2744 
L 229.300886 93.1392 
L 230.846196 92.97408 
L 232.37294 92.9844 
L 233.866689 92.60256 
L 235.388681 92.53032 
L 236.901785 94.54272 
L 238.424041 92.85024 
L 239.91949 94.82136 
L 241.456893 95.75016 
L 242.98639 96.97824 
L 246.010528 97.23624 
L 247.533941 95.94624 
L 249.037122 96.30744 
L 250.531098 98.08248 
L 252.069869 97.2672 
L 253.60459 96.61704 
L 255.096427 97.23624 
L 256.626765 98.08248 
L 258.136713 99.18672 
L 259.652622 99.03192 
L 261.145564 99.1248 
L 262.691278 98.74296 
L 264.228471 99.09384 
L 265.728355 100.0536 
L 267.260184 101.23008 
L 268.769781 101.99376 
L 270.25962 102.08664 
L 271.751124 102.8916 
L 273.298468 102.45816 
L 276.305828 102.10728 
L 277.836324 102.582 
L 279.36 102.29304 
L 279.36 102.29304 
" clip-path="url(#pb59e68eeef)" style="fill: none; stroke: #f5841e; stroke-width: 0.6"/>
   </g>
  </g>
 </g>
 <defs>
  <clipPath id="pb59e68eeef">
   <rect x="8.64" y="4.8" width="270.72" height="103.2"/>
  </clipPath>
 </defs>
</svg>
