<?xml version="1.0" encoding="utf-8" standalone="no"?>
<!DOCTYPE svg PUBLIC "-//W3C//DTD SVG 1.1//EN"
  "http://www.w3.org/Graphics/SVG/1.1/DTD/svg11.dtd">
<svg xmlns:xlink="http://www.w3.org/1999/xlink" width="288pt" height="120pt" viewBox="0 0 288 120" xmlns="http://www.w3.org/2000/svg" version="1.1">
<desc id="nav-meta">{"window":"3m","count":4,"labels":["31.01","02.03","31.03","30.04"],"tick_utc":["2026-01-31T12:00:00Z","2026-03-02T03:18:56Z","2026-03-31T03:42:11Z","2026-04-30T04:23:32Z"],"w":720,"h":300}</desc>

 <metadata>
  <rdf:RDF xmlns:dc="http://purl.org/dc/elements/1.1/" xmlns:cc="http://creativecommons.org/ns#" xmlns:rdf="http://www.w3.org/1999/02/22-rdf-syntax-ns#">
   <cc:Work>
    <dc:type rdf:resource="http://purl.org/dc/dcmitype/StillImage"/>
    <dc:date>2026-04-30T20:00:50.610881</dc:date>
    <dc:format>image/svg+xml</dc:format>
    <dc:creator>
     <cc:Agent>
      <dc:title>Matplotlib v3.10.9, https://matplotlib.org/</dc:title>
     </cc:Agent>
    </dc:creator>
   </cc:Work>
  </rdf:RDF>
 </metadata>
 <defs>
  <style type="text/css">*{stroke-linejoin: round; stroke-linecap: butt}</style>
 </defs>
 <g id="figure_1">
  <g id="patch_1">
   <path d="M 0 120 
L 288 120 
L 288 0 
L 0 0 
L 0 120 
z
" style="fill: none; opacity: 0"/>
  </g>
  <g id="axes_1">
   <g id="patch_2">
    <path d="M 8.64 108 
L 279.36 108 
L 279.36 4.8 
L 8.64 4.8 
L 8.64 108 
z
" style="fill: none"/>
   </g>
   <g id="matplotlib.axis_1"/>
   <g id="matplotlib.axis_2"/>
   <g id="line2d_1">
    <path d="M 8.64 87.36 
L 279.36 87.36 
" clip-path="url(#p2321479ce6)" style="fill: none; stroke: #b2b2b2; stroke-opacity: 0.35; stroke-width: 0.5; stroke-linecap: square"/>
   </g>
   <g id="line2d_2">
    <path d="M 8.64 66.72 
L 279.36 66.72 
" clip-path="url(#p2321479ce6)" style="fill: none; stroke: #b2b2b2; stroke-opacity: 0.35; stroke-width: 0.5; stroke-linecap: square"/>
   </g>
   <g id="line2d_3">
    <path d="M 8.64 46.08 
L 279.36 46.08 
" clip-path="url(#p2321479ce6)" style="fill: none; stroke: #b2b2b2; stroke-opacity: 0.35; stroke-width: 0.5; stroke-linecap: square"/>
   </g>
   <g id="line2d_4">
    <path d="M 8.64 25.44 
L 279.36 25.44 
" clip-path="url(#p2321479ce6)" style="fill: none; stroke: #b2b2b2; stroke-opacity: 0.35; stroke-width: 0.5; stroke-linecap: square"/>
   </g>
   <g id="line2d_5">
    <path d="M 8.64 94.46016 
L 11.69267 97.71096 
L 14.745341 98.48496 
L 17.798011 97.85544 
L 20.375151 99.10416 
L 22.80107 100.16712 
L 25.852185 102.23112 
L 28.891783 100.54896 
L 32.014234 100.70376 
L 35.041713 100.68312 
L 38.111802 100.95144 
L 41.158148 101.28168 
L 44.19983 101.71512 
L 47.251582 101.84928 
L 50.267542 101.034 
L 53.159135 100.54896 
L 56.407615 101.04432 
L 59.076829 100.81728 
L 62.508115 101.034 
L 65.557075 101.4984 
L 68.591903 101.33328 
L 71.625919 101.1372 
L 74.713462 101.06496 
L 77.775318 102.09696 
L 80.570102 102.05568 
L 83.869671 101.4984 
L 86.908739 100.60056 
L 89.955615 100.80696 
L 92.972317 101.45712 
L 96.094344 100.55928 
L 99.115498 101.10624 
L 102.175271 100.8792 
L 105.21084 100.74504 
L 108.270083 100.21872 
L 111.321304 100.53864 
L 114.35055 101.07528 
L 117.432864 101.38488 
L 120.494685 101.26104 
L 123.527746 100.78632 
L 126.579215 100.91016 
L 129.643899 100.99272 
L 132.690669 100.38384 
L 135.739276 100.50768 
L 138.85035 100.60056 
L 141.911641 99.76464 
L 144.91089 99.49632 
L 147.986844 99.40344 
L 151.040363 100.09488 
L 154.063319 100.3632 
L 157.098111 100.19808 
L 160.196431 100.47672 
L 163.256273 100.79664 
L 166.280678 100.26 
L 169.560709 99.83688 
L 172.423153 100.13616 
L 175.479675 100.80696 
L 178.503161 101.38488 
L 181.597417 101.3436 
L 184.658814 101.292 
L 187.692229 101.28168 
L 190.77108 101.28168 
L 193.783543 101.8596 
L 196.839711 101.88024 
L 199.866236 101.72544 
L 202.964873 101.68416 
L 206.025423 101.47776 
L 209.058272 101.78736 
L 212.115889 101.09592 
L 215.157924 101.46744 
L 218.238684 101.3436 
L 221.244681 101.05464 
L 224.352115 101.3952 
L 227.420438 101.47776 
L 230.453676 100.86888 
L 233.504014 101.26104 
L 236.569899 100.99272 
L 239.616351 100.61088 
L 242.63535 100.44576 
L 245.728334 100.94112 
L 248.788566 101.09592 
L 251.827845 101.00304 
L 254.871047 100.69344 
L 257.936083 100.9308 
L 260.996845 100.92048 
L 264.013088 100.81728 
L 267.113244 100.8792 
L 270.198809 100.64184 
L 273.257874 101.1888 
L 276.302206 101.09592 
L 279.36 101.37456 
" clip-path="url(#p2321479ce6)" style="fill: none; stroke: #bebebe; stroke-width: 0.5; stroke-linecap: round"/>
   </g>
   <g id="line2d_6">
    <path d="M 8.64 79.48584 
L 11.69267 83.31456 
L 14.745341 85.90488 
L 17.798011 84.79032 
L 20.375151 85.84296 
L 22.80107 88.25784 
L 25.852185 91.41576 
L 28.891783 88.7532 
L 32.014234 88.65 
L 35.041713 88.55712 
L 38.111802 88.96992 
L 41.158148 89.7336 
L 44.19983 90.456 
L 47.251582 90.56952 
L 50.267542 89.15568 
L 53.159135 88.9596 
L 56.407615 90.6624 
L 59.076829 89.94 
L 62.508115 90.00192 
L 65.557075 90.3528 
L 68.591903 90.62112 
L 71.625919 90.5076 
L 74.713462 90.3528 
L 77.775318 92.004 
L 80.570102 92.13816 
L 83.869671 91.25064 
L 86.908739 89.166 
L 89.955615 89.56848 
L 92.972317 90.93072 
L 96.094344 89.41368 
L 99.115498 90.37344 
L 102.175271 89.79552 
L 105.21084 90.23928 
L 108.270083 88.0824 
L 111.321304 88.7532 
L 114.35055 90.16704 
L 117.432864 90.67272 
L 120.494685 90.18768 
L 123.527746 89.2692 
L 126.579215 89.54784 
L 129.643899 89.49624 
L 132.690669 88.31976 
L 135.739276 88.45392 
L 138.85035 88.46424 
L 141.911641 86.38992 
L 144.91089 84.80064 
L 147.986844 84.8316 
L 151.040363 86.586 
L 154.063319 87.74184 
L 157.098111 87.618 
L 160.196431 88.19592 
L 163.256273 89.08344 
L 166.280678 87.89664 
L 169.560709 87.3084 
L 172.423153 87.65928 
L 175.479675 88.96992 
L 178.503161 90.07416 
L 181.597417 89.76456 
L 184.658814 89.3724 
L 187.692229 89.00088 
L 190.77108 88.42296 
L 193.783543 88.81512 
L 196.839711 89.10408 
L 199.866236 89.14536 
L 202.964873 89.07312 
L 206.025423 87.9792 
L 209.058272 88.29912 
L 212.115889 86.38992 
L 215.157924 87.24648 
L 218.238684 87.1536 
L 221.244681 86.21448 
L 224.352115 86.66856 
L 227.420438 87.01944 
L 230.453676 84.44976 
L 233.504014 85.05864 
L 236.569899 84.58392 
L 239.616351 85.04832 
L 242.63535 83.71704 
L 245.728334 84.86256 
L 248.788566 85.6572 
L 251.827845 85.27536 
L 254.871047 84.49104 
L 257.936083 84.86256 
L 260.996845 85.32696 
L 264.013088 85.17216 
L 267.113244 85.31664 
L 270.198809 84.11952 
L 273.257874 85.66752 
L 276.302206 85.26504 
L 279.36 86.26608 
" clip-path="url(#p2321479ce6)" style="fill: none; stroke: #4a8dff; stroke-width: 0.6"/>
   </g>
   <g id="line2d_7">
    <path d="M 8.64 89.5272 
L 11.69267 95.14128 
L 14.745341 96.98856 
L 17.798011 95.08968 
L 20.375151 97.71096 
L 22.80107 99.80592 
L 25.852185 101.79768 
L 28.891783 100.03296 
L 32.014234 100.518 
L 35.041713 99.98136 
L 38.111802 100.49736 
L 41.158148 100.78632 
L 44.19983 101.07528 
L 47.251582 101.26104 
L 50.267542 100.63152 
L 53.159135 100.38384 
L 56.407615 100.84824 
L 59.076829 100.65216 
L 62.508115 101.034 
L 65.557075 101.19912 
L 68.591903 101.10624 
L 71.625919 100.97208 
L 74.713462 100.91016 
L 77.775318 101.7564 
L 80.570102 101.84928 
L 83.869671 101.56032 
L 86.908739 100.85856 
L 89.955615 101.12688 
L 92.972317 101.4468 
L 96.094344 101.02368 
L 99.115498 101.30232 
L 102.175271 100.81728 
L 105.21084 100.79664 
L 108.270083 99.3312 
L 111.321304 99.92976 
L 114.35055 100.78632 
L 117.432864 101.17848 
L 120.494685 101.1372 
L 123.527746 100.21872 
L 126.579215 100.37352 
L 129.643899 100.4664 
L 132.690669 99.88848 
L 135.739276 99.94008 
L 138.85035 99.81624 
L 141.911641 98.93904 
L 144.91089 98.3508 
L 147.986844 98.52624 
L 151.040363 99.78528 
L 154.063319 100.12584 
L 157.098111 100.03296 
L 160.196431 100.45608 
L 163.256273 100.83792 
L 166.280678 100.11552 
L 169.560709 99.87816 
L 172.423153 100.002 
L 175.479675 100.64184 
L 178.503161 101.41584 
L 181.597417 101.21976 
L 184.658814 101.14752 
L 187.692229 101.00304 
L 190.77108 100.86888 
L 193.783543 101.21976 
L 196.839711 101.28168 
L 199.866236 101.20944 
L 202.964873 101.14752 
L 206.025423 100.55928 
L 209.058272 100.65216 
L 212.115889 99.80592 
L 215.157924 99.96072 
L 218.238684 99.6408 
L 221.244681 99.1764 
L 224.352115 99.70272 
L 227.420438 99.94008 
L 230.453676 98.57784 
L 233.504014 98.65008 
L 236.569899 98.38176 
L 239.616351 98.48496 
L 242.63535 96.70992 
L 245.728334 98.05152 
L 248.788566 98.48496 
L 251.827845 97.96896 
L 254.871047 96.32808 
L 257.936083 96.20424 
L 260.996845 96.16296 
L 264.013088 96.1836 
L 267.113244 96.50352 
L 270.198809 94.76976 
L 273.257874 97.19496 
L 276.302206 96.9576 
L 279.36 97.9896 
" clip-path="url(#p2321479ce6)" style="fill: none; stroke: #f5841e; stroke-width: 0.6"/>
   </g>
  </g>
 </g>
 <defs>
  <clipPath id="p2321479ce6">
   <rect x="8.64" y="4.8" width="270.72" height="103.2"/>
  </clipPath>
 </defs>
</svg>
