<?xml version="1.0" encoding="utf-8" standalone="no"?>
<!DOCTYPE svg PUBLIC "-//W3C//DTD SVG 1.1//EN"
  "http://www.w3.org/Graphics/SVG/1.1/DTD/svg11.dtd">
<svg xmlns:xlink="http://www.w3.org/1999/xlink" width="288pt" height="120pt" viewBox="0 0 288 120" xmlns="http://www.w3.org/2000/svg" version="1.1">
<desc id="nav-meta">{"window":"1m","count":4,"labels":["25.05","04.06","13.06","23.06"],"tick_utc":["2026-05-25T05:10:23Z","2026-06-04T05:26:51Z","2026-06-13T05:09:20Z","2026-06-23T04:45:28Z"],"w":720,"h":300}</desc>

 <metadata>
  <rdf:RDF xmlns:dc="http://purl.org/dc/elements/1.1/" xmlns:cc="http://creativecommons.org/ns#" xmlns:rdf="http://www.w3.org/1999/02/22-rdf-syntax-ns#">
   <cc:Work>
    <dc:type rdf:resource="http://purl.org/dc/dcmitype/StillImage"/>
    <dc:date>2026-06-23T20:55:13.774340</dc:date>
    <dc:format>image/svg+xml</dc:format>
    <dc:creator>
     <cc:Agent>
      <dc:title>Matplotlib v3.11.0, https://matplotlib.org/</dc:title>
     </cc:Agent>
    </dc:creator>
   </cc:Work>
  </rdf:RDF>
 </metadata>
 <defs>
  <style type="text/css">*{stroke-linejoin: round; stroke-linecap: butt}</style>
 </defs>
 <g id="figure_1">
  <g id="patch_1">
   <path d="M 0 120 
L 288 120 
L 288 0 
L 0 0 
L 0 120 
z
" style="fill: none; opacity: 0"/>
  </g>
  <g id="axes_1">
   <g id="patch_2">
    <path d="M 8.64 108 
L 279.36 108 
L 279.36 4.8 
L 8.64 4.8 
L 8.64 108 
z
" style="fill: none"/>
   </g>
   <g id="matplotlib.axis_1"/>
   <g id="matplotlib.axis_2"/>
   <g id="line2d_1">
    <path d="M 8.64 87.36 
L 279.36 87.36 
" clip-path="url(#p954cbef106)" style="fill: none; stroke: #b2b2b2; stroke-opacity: 0.35; stroke-width: 0.5; stroke-linecap: square"/>
   </g>
   <g id="line2d_2">
    <path d="M 8.64 66.72 
L 279.36 66.72 
" clip-path="url(#p954cbef106)" style="fill: none; stroke: #b2b2b2; stroke-opacity: 0.35; stroke-width: 0.5; stroke-linecap: square"/>
   </g>
   <g id="line2d_3">
    <path d="M 8.64 46.08 
L 279.36 46.08 
" clip-path="url(#p954cbef106)" style="fill: none; stroke: #b2b2b2; stroke-opacity: 0.35; stroke-width: 0.5; stroke-linecap: square"/>
   </g>
   <g id="line2d_4">
    <path d="M 8.64 25.44 
L 279.36 25.44 
" clip-path="url(#p954cbef106)" style="fill: none; stroke: #b2b2b2; stroke-opacity: 0.35; stroke-width: 0.5; stroke-linecap: square"/>
   </g>
   <g id="line2d_5">
    <path d="M 8.64 100.89984 
L 17.839229 101.1372 
L 27.275869 101.2404 
L 36.586776 101.6532 
L 45.934441 101.4984 
L 55.140481 101.48808 
L 64.671933 101.32296 
L 74.150844 101.51904 
L 83.399696 101.7048 
L 92.845525 102.54072 
L 102.15427 103.08768 
L 111.341175 103.36632 
L 120.53835 104.22288 
L 130.079856 103.85136 
L 139.4619 103.68624 
L 148.624372 103.43856 
L 158.061985 103.81008 
L 167.457542 103.72752 
L 176.834937 103.50048 
L 186.107357 103.5108 
L 195.515888 103.31472 
L 205.167127 102.95352 
L 214.561171 102.61296 
L 223.604397 102.6336 
L 232.900385 102.9948 
L 242.461136 103.28376 
L 251.428359 103.01544 
L 260.963488 102.69552 
L 270.577645 102.582 
L 279.36 102.88128 
" clip-path="url(#p954cbef106)" style="fill: none; stroke: #bebebe; stroke-width: 0.5; stroke-linecap: round"/>
   </g>
   <g id="line2d_6">
    <path d="M 8.64 88.33008 
L 17.839229 88.52616 
L 27.275869 88.86672 
L 36.586776 90.22896 
L 45.934441 89.82648 
L 55.140481 89.87808 
L 64.671933 89.46528 
L 74.150844 90.0432 
L 83.399696 89.96064 
L 92.845525 91.99368 
L 102.15427 93.05664 
L 111.341175 93.74808 
L 120.53835 97.02984 
L 130.079856 95.93592 
L 139.4619 95.07936 
L 148.624372 94.46016 
L 158.061985 95.47152 
L 167.457542 95.11032 
L 176.834937 94.82136 
L 186.107357 94.8936 
L 195.515888 94.70784 
L 205.167127 94.04736 
L 214.561171 93.40752 
L 223.604397 92.9844 
L 232.900385 93.93384 
L 242.461136 94.4292 
L 251.428359 94.19184 
L 260.963488 93.87192 
L 270.577645 93.81 
L 279.36 94.03704 
" clip-path="url(#p954cbef106)" style="fill: none; stroke: #4a8dff; stroke-width: 0.6"/>
   </g>
   <g id="line2d_7">
    <path d="M 8.64 96.61704 
L 17.839229 97.23624 
L 27.275869 98.08248 
L 36.586776 99.18672 
L 45.934441 99.03192 
L 55.140481 99.1248 
L 64.671933 98.74296 
L 74.150844 99.09384 
L 83.399696 100.0536 
L 92.845525 101.23008 
L 102.15427 101.99376 
L 111.341175 102.08664 
L 120.53835 102.8916 
L 130.079856 102.45816 
L 139.4619 102.28272 
L 148.624372 102.10728 
L 158.061985 102.582 
L 167.457542 102.29304 
L 176.834937 102.08664 
L 186.107357 102.066 
L 195.515888 101.86992 
L 205.167127 101.48808 
L 214.561171 101.40552 
L 223.604397 101.4984 
L 232.900385 101.97312 
L 242.461136 102.26208 
L 251.428359 102.066 
L 260.963488 101.90088 
L 270.577645 101.90088 
L 279.36 102.0144 
" clip-path="url(#p954cbef106)" style="fill: none; stroke: #f5841e; stroke-width: 0.6"/>
   </g>
  </g>
 </g>
 <defs>
  <clipPath id="p954cbef106">
   <rect x="8.64" y="4.8" width="270.72" height="103.2"/>
  </clipPath>
 </defs>
</svg>
