<?xml version="1.0" encoding="utf-8" standalone="no"?>
<!DOCTYPE svg PUBLIC "-//W3C//DTD SVG 1.1//EN"
  "http://www.w3.org/Graphics/SVG/1.1/DTD/svg11.dtd">
<svg xmlns:xlink="http://www.w3.org/1999/xlink" width="288pt" height="120pt" viewBox="0 0 288 120" xmlns="http://www.w3.org/2000/svg" version="1.1">
<desc id="nav-meta">{"window":"1m","count":4,"labels":["18.05","28.05","06.06","16.06"],"tick_utc":["2026-05-18T04:56:25Z","2026-05-28T04:58:45Z","2026-06-06T04:41:00Z","2026-06-16T06:15:52Z"],"w":720,"h":300}</desc>

 <metadata>
  <rdf:RDF xmlns:dc="http://purl.org/dc/elements/1.1/" xmlns:cc="http://creativecommons.org/ns#" xmlns:rdf="http://www.w3.org/1999/02/22-rdf-syntax-ns#">
   <cc:Work>
    <dc:type rdf:resource="http://purl.org/dc/dcmitype/StillImage"/>
    <dc:date>2026-06-16T21:34:57.211936</dc:date>
    <dc:format>image/svg+xml</dc:format>
    <dc:creator>
     <cc:Agent>
      <dc:title>Matplotlib v3.11.0, https://matplotlib.org/</dc:title>
     </cc:Agent>
    </dc:creator>
   </cc:Work>
  </rdf:RDF>
 </metadata>
 <defs>
  <style type="text/css">*{stroke-linejoin: round; stroke-linecap: butt}</style>
 </defs>
 <g id="figure_1">
  <g id="patch_1">
   <path d="M 0 120 
L 288 120 
L 288 0 
L 0 0 
L 0 120 
z
" style="fill: none; opacity: 0"/>
  </g>
  <g id="axes_1">
   <g id="patch_2">
    <path d="M 8.64 108 
L 279.36 108 
L 279.36 4.8 
L 8.64 4.8 
L 8.64 108 
z
" style="fill: none"/>
   </g>
   <g id="matplotlib.axis_1"/>
   <g id="matplotlib.axis_2"/>
   <g id="line2d_1">
    <path d="M 8.64 87.36 
L 279.36 87.36 
" clip-path="url(#p7a780d48d6)" style="fill: none; stroke: #b2b2b2; stroke-opacity: 0.35; stroke-width: 0.5; stroke-linecap: square"/>
   </g>
   <g id="line2d_2">
    <path d="M 8.64 66.72 
L 279.36 66.72 
" clip-path="url(#p7a780d48d6)" style="fill: none; stroke: #b2b2b2; stroke-opacity: 0.35; stroke-width: 0.5; stroke-linecap: square"/>
   </g>
   <g id="line2d_3">
    <path d="M 8.64 46.08 
L 279.36 46.08 
" clip-path="url(#p7a780d48d6)" style="fill: none; stroke: #b2b2b2; stroke-opacity: 0.35; stroke-width: 0.5; stroke-linecap: square"/>
   </g>
   <g id="line2d_4">
    <path d="M 8.64 25.44 
L 279.36 25.44 
" clip-path="url(#p7a780d48d6)" style="fill: none; stroke: #b2b2b2; stroke-opacity: 0.35; stroke-width: 0.5; stroke-linecap: square"/>
   </g>
   <g id="line2d_5">
    <path d="M 8.64 101.02368 
L 17.890692 101.02368 
L 27.241461 101.17848 
L 36.611964 100.7244 
L 45.858019 100.75536 
L 55.047457 101.11656 
L 64.512429 100.91016 
L 73.95249 100.89984 
L 83.128772 101.1372 
L 92.541872 101.2404 
L 101.829554 101.6532 
L 111.153901 101.4984 
L 120.336977 101.48808 
L 129.844654 101.32296 
L 139.29992 101.51904 
L 148.525701 101.7048 
L 157.947968 102.54072 
L 167.233493 103.08768 
L 176.397481 103.36632 
L 185.571714 104.22288 
L 195.08942 103.85136 
L 204.448061 103.68624 
L 213.587677 103.43856 
L 223.001748 103.81008 
L 232.373869 103.72752 
L 241.727872 103.50048 
L 250.977163 103.5108 
L 260.362224 103.31472 
L 269.989389 102.95352 
L 279.36 102.61296 
" clip-path="url(#p7a780d48d6)" style="fill: none; stroke: #bebebe; stroke-width: 0.5; stroke-linecap: round"/>
   </g>
   <g id="line2d_6">
    <path d="M 8.64 88.10304 
L 17.890692 87.9276 
L 27.241461 88.26816 
L 36.611964 87.78312 
L 45.858019 87.95856 
L 55.047457 88.94928 
L 64.512429 88.14432 
L 73.95249 88.33008 
L 83.128772 88.52616 
L 92.541872 88.86672 
L 101.829554 90.22896 
L 111.153901 89.82648 
L 120.336977 89.87808 
L 129.844654 89.46528 
L 139.29992 90.0432 
L 148.525701 89.96064 
L 157.947968 91.99368 
L 167.233493 93.05664 
L 176.397481 93.74808 
L 185.571714 97.02984 
L 195.08942 95.93592 
L 204.448061 95.07936 
L 213.587677 94.46016 
L 223.001748 95.47152 
L 232.373869 95.11032 
L 241.727872 94.82136 
L 250.977163 94.8936 
L 260.362224 94.70784 
L 269.989389 94.04736 
L 279.36 93.40752 
" clip-path="url(#p7a780d48d6)" style="fill: none; stroke: #4a8dff; stroke-width: 0.6"/>
   </g>
   <g id="line2d_7">
    <path d="M 8.64 96.97824 
L 17.890692 97.08144 
L 27.241461 97.23624 
L 36.611964 95.94624 
L 45.858019 96.30744 
L 55.047457 98.08248 
L 64.512429 97.2672 
L 73.95249 96.61704 
L 83.128772 97.23624 
L 92.541872 98.08248 
L 101.829554 99.18672 
L 111.153901 99.03192 
L 120.336977 99.1248 
L 129.844654 98.74296 
L 139.29992 99.09384 
L 148.525701 100.0536 
L 157.947968 101.23008 
L 167.233493 101.99376 
L 176.397481 102.08664 
L 185.571714 102.8916 
L 195.08942 102.45816 
L 204.448061 102.28272 
L 213.587677 102.10728 
L 223.001748 102.582 
L 232.373869 102.29304 
L 241.727872 102.08664 
L 250.977163 102.066 
L 260.362224 101.86992 
L 269.989389 101.48808 
L 279.36 101.40552 
" clip-path="url(#p7a780d48d6)" style="fill: none; stroke: #f5841e; stroke-width: 0.6"/>
   </g>
  </g>
 </g>
 <defs>
  <clipPath id="p7a780d48d6">
   <rect x="8.64" y="4.8" width="270.72" height="103.2"/>
  </clipPath>
 </defs>
</svg>
