<?xml version="1.0" encoding="utf-8" standalone="no"?>
<!DOCTYPE svg PUBLIC "-//W3C//DTD SVG 1.1//EN"
  "http://www.w3.org/Graphics/SVG/1.1/DTD/svg11.dtd">
<svg xmlns:xlink="http://www.w3.org/1999/xlink" width="288pt" height="120pt" viewBox="0 0 288 120" xmlns="http://www.w3.org/2000/svg" version="1.1">
<desc id="nav-meta">{"window":"3m","count":4,"labels":["25.02","27.03","25.04","25.05"],"tick_utc":["2026-02-25T03:27:12Z","2026-03-27T03:41:18Z","2026-04-25T03:44:07Z","2026-05-25T05:10:23Z"],"w":720,"h":300}</desc>

 <metadata>
  <rdf:RDF xmlns:dc="http://purl.org/dc/elements/1.1/" xmlns:cc="http://creativecommons.org/ns#" xmlns:rdf="http://www.w3.org/1999/02/22-rdf-syntax-ns#">
   <cc:Work>
    <dc:type rdf:resource="http://purl.org/dc/dcmitype/StillImage"/>
    <dc:date>2026-05-25T15:40:40.994663</dc:date>
    <dc:format>image/svg+xml</dc:format>
    <dc:creator>
     <cc:Agent>
      <dc:title>Matplotlib v3.10.9, https://matplotlib.org/</dc:title>
     </cc:Agent>
    </dc:creator>
   </cc:Work>
  </rdf:RDF>
 </metadata>
 <defs>
  <style type="text/css">*{stroke-linejoin: round; stroke-linecap: butt}</style>
 </defs>
 <g id="figure_1">
  <g id="patch_1">
   <path d="M 0 120 
L 288 120 
L 288 0 
L 0 0 
L 0 120 
z
" style="fill: none; opacity: 0"/>
  </g>
  <g id="axes_1">
   <g id="patch_2">
    <path d="M 8.64 108 
L 279.36 108 
L 279.36 4.8 
L 8.64 4.8 
L 8.64 108 
z
" style="fill: none"/>
   </g>
   <g id="matplotlib.axis_1"/>
   <g id="matplotlib.axis_2"/>
   <g id="line2d_1">
    <path d="M 8.64 87.36 
L 279.36 87.36 
" clip-path="url(#peb103cabd0)" style="fill: none; stroke: #b2b2b2; stroke-opacity: 0.35; stroke-width: 0.5; stroke-linecap: square"/>
   </g>
   <g id="line2d_2">
    <path d="M 8.64 66.72 
L 279.36 66.72 
" clip-path="url(#peb103cabd0)" style="fill: none; stroke: #b2b2b2; stroke-opacity: 0.35; stroke-width: 0.5; stroke-linecap: square"/>
   </g>
   <g id="line2d_3">
    <path d="M 8.64 46.08 
L 279.36 46.08 
" clip-path="url(#peb103cabd0)" style="fill: none; stroke: #b2b2b2; stroke-opacity: 0.35; stroke-width: 0.5; stroke-linecap: square"/>
   </g>
   <g id="line2d_4">
    <path d="M 8.64 25.44 
L 279.36 25.44 
" clip-path="url(#peb103cabd0)" style="fill: none; stroke: #b2b2b2; stroke-opacity: 0.35; stroke-width: 0.5; stroke-linecap: square"/>
   </g>
   <g id="line2d_5">
    <path d="M 8.64 101.4984 
L 11.665807 100.60056 
L 14.699389 100.80696 
L 17.702929 101.45712 
L 20.811333 100.55928 
L 23.819306 101.10624 
L 26.865727 100.8792 
L 29.888052 100.74504 
L 32.933945 100.21872 
L 35.971854 100.53864 
L 38.987882 101.07528 
L 42.056747 101.38488 
L 45.105208 101.26104 
L 48.125036 100.78632 
L 51.16319 100.91016 
L 54.214501 100.99272 
L 57.247977 100.38384 
L 60.283283 100.50768 
L 63.380782 100.60056 
L 66.428716 99.76464 
L 69.414878 99.49632 
L 72.477411 99.40344 
L 75.517606 100.09488 
L 78.527372 100.3632 
L 81.548923 100.19808 
L 84.633724 100.47672 
L 87.680215 100.79664 
L 90.691424 100.26 
L 93.957143 99.83688 
L 96.807097 100.13616 
L 99.850282 100.80696 
L 102.860576 101.38488 
L 105.941331 101.3436 
L 108.989371 101.292 
L 112.00955 101.28168 
L 115.074967 101.28168 
L 118.074285 101.8596 
L 121.117119 101.88024 
L 124.130438 101.72544 
L 127.215555 101.68416 
L 130.26275 101.47776 
L 133.282366 101.78736 
L 136.326642 101.09592 
L 139.355404 101.46744 
L 142.422721 101.3436 
L 145.415602 101.05464 
L 148.509478 101.3952 
L 151.564413 101.47776 
L 154.584416 100.86888 
L 157.621445 101.26104 
L 160.673952 100.99272 
L 163.707111 100.61088 
L 166.712938 100.44576 
L 169.792426 100.94112 
L 172.839305 101.09592 
L 175.865323 101.00304 
L 178.895247 100.69344 
L 181.946909 100.9308 
L 184.994316 100.92048 
L 187.997398 100.81728 
L 191.084028 100.8792 
L 194.156129 100.64184 
L 197.201847 101.1888 
L 200.232896 101.09592 
L 203.277347 101.37456 
L 206.349906 101.21976 
L 209.31169 101.20944 
L 212.412742 101.23008 
L 215.451037 100.92048 
L 218.423445 101.06496 
L 221.516336 100.70376 
L 224.556496 100.55928 
L 227.545261 100.53864 
L 230.595728 99.60984 
L 233.696323 99.72336 
L 236.759665 99.44472 
L 239.756803 99.25896 
L 242.810611 99.32088 
L 245.846585 100.22904 
L 248.900922 100.01232 
L 251.901471 100.43544 
L 254.986201 100.75536 
L 258.055066 101.02368 
L 261.072642 101.02368 
L 264.122862 101.17848 
L 267.179521 100.7244 
L 270.195584 100.75536 
L 273.193178 101.11656 
L 276.280652 100.91016 
L 279.36 100.89984 
" clip-path="url(#peb103cabd0)" style="fill: none; stroke: #bebebe; stroke-width: 0.5; stroke-linecap: round"/>
   </g>
   <g id="line2d_6">
    <path d="M 8.64 91.25064 
L 11.665807 89.166 
L 14.699389 89.56848 
L 17.702929 90.93072 
L 20.811333 89.41368 
L 23.819306 90.37344 
L 26.865727 89.79552 
L 29.888052 90.23928 
L 32.933945 88.0824 
L 35.971854 88.7532 
L 38.987882 90.16704 
L 42.056747 90.67272 
L 45.105208 90.18768 
L 48.125036 89.2692 
L 51.16319 89.54784 
L 54.214501 89.49624 
L 57.247977 88.31976 
L 60.283283 88.45392 
L 63.380782 88.46424 
L 66.428716 86.38992 
L 69.414878 84.80064 
L 72.477411 84.8316 
L 75.517606 86.586 
L 78.527372 87.74184 
L 81.548923 87.618 
L 84.633724 88.19592 
L 87.680215 89.08344 
L 90.691424 87.89664 
L 93.957143 87.3084 
L 96.807097 87.65928 
L 99.850282 88.96992 
L 102.860576 90.07416 
L 105.941331 89.76456 
L 108.989371 89.3724 
L 112.00955 89.00088 
L 115.074967 88.42296 
L 118.074285 88.81512 
L 121.117119 89.10408 
L 124.130438 89.14536 
L 127.215555 89.07312 
L 130.26275 87.9792 
L 133.282366 88.29912 
L 136.326642 86.38992 
L 139.355404 87.24648 
L 142.422721 87.1536 
L 145.415602 86.21448 
L 148.509478 86.66856 
L 151.564413 87.01944 
L 154.584416 84.44976 
L 157.621445 85.05864 
L 160.673952 84.58392 
L 163.707111 85.04832 
L 166.712938 83.71704 
L 169.792426 84.86256 
L 172.839305 85.6572 
L 175.865323 85.27536 
L 178.895247 84.49104 
L 181.946909 84.86256 
L 184.994316 85.32696 
L 187.997398 85.17216 
L 191.084028 85.31664 
L 194.156129 84.11952 
L 197.201847 85.66752 
L 200.232896 85.26504 
L 203.277347 86.26608 
L 206.349906 85.77072 
L 209.31169 85.38888 
L 212.412742 85.3992 
L 215.451037 84.09888 
L 218.423445 84.22272 
L 221.516336 84.34656 
L 224.556496 85.06896 
L 227.545261 85.7604 
L 230.595728 85.0896 
L 233.696323 85.01736 
L 236.759665 84.9348 
L 239.756803 85.296 
L 242.810611 85.35792 
L 245.846585 86.1732 
L 248.900922 85.92552 
L 251.901471 86.55504 
L 254.986201 87.13296 
L 258.055066 88.10304 
L 261.072642 87.9276 
L 264.122862 88.26816 
L 267.179521 87.78312 
L 270.195584 87.95856 
L 273.193178 88.94928 
L 276.280652 88.14432 
L 279.36 88.33008 
" clip-path="url(#peb103cabd0)" style="fill: none; stroke: #4a8dff; stroke-width: 0.6"/>
   </g>
   <g id="line2d_7">
    <path d="M 8.64 101.56032 
L 11.665807 100.85856 
L 14.699389 101.12688 
L 17.702929 101.4468 
L 20.811333 101.02368 
L 23.819306 101.30232 
L 26.865727 100.81728 
L 29.888052 100.79664 
L 32.933945 99.3312 
L 35.971854 99.92976 
L 38.987882 100.78632 
L 42.056747 101.17848 
L 45.105208 101.1372 
L 48.125036 100.21872 
L 51.16319 100.37352 
L 54.214501 100.4664 
L 57.247977 99.88848 
L 60.283283 99.94008 
L 63.380782 99.81624 
L 66.428716 98.93904 
L 69.414878 98.3508 
L 72.477411 98.52624 
L 75.517606 99.78528 
L 78.527372 100.12584 
L 81.548923 100.03296 
L 84.633724 100.45608 
L 87.680215 100.83792 
L 90.691424 100.11552 
L 93.957143 99.87816 
L 96.807097 100.002 
L 99.850282 100.64184 
L 102.860576 101.41584 
L 105.941331 101.21976 
L 108.989371 101.14752 
L 112.00955 101.00304 
L 115.074967 100.86888 
L 118.074285 101.21976 
L 121.117119 101.28168 
L 124.130438 101.20944 
L 127.215555 101.14752 
L 130.26275 100.55928 
L 133.282366 100.65216 
L 136.326642 99.80592 
L 139.355404 99.96072 
L 142.422721 99.6408 
L 145.415602 99.1764 
L 148.509478 99.70272 
L 151.564413 99.94008 
L 154.584416 98.57784 
L 157.621445 98.65008 
L 160.673952 98.38176 
L 163.707111 98.48496 
L 166.712938 96.70992 
L 169.792426 98.05152 
L 172.839305 98.48496 
L 175.865323 97.96896 
L 178.895247 96.32808 
L 181.946909 96.20424 
L 184.994316 96.16296 
L 187.997398 96.1836 
L 191.084028 96.50352 
L 194.156129 94.76976 
L 197.201847 97.19496 
L 200.232896 96.9576 
L 203.277347 97.9896 
L 206.349906 96.89568 
L 209.31169 95.45088 
L 212.412742 95.67792 
L 215.451037 93.43848 
L 218.423445 92.90184 
L 221.516336 92.25168 
L 224.556496 92.87088 
L 227.545261 94.2744 
L 230.595728 93.1392 
L 233.696323 92.97408 
L 236.759665 92.9844 
L 239.756803 92.60256 
L 242.810611 92.53032 
L 245.846585 94.54272 
L 248.900922 92.85024 
L 251.901471 94.82136 
L 254.986201 95.75016 
L 258.055066 96.97824 
L 261.072642 97.08144 
L 264.122862 97.23624 
L 267.179521 95.94624 
L 270.195584 96.30744 
L 273.193178 98.08248 
L 276.280652 97.2672 
L 279.36 96.61704 
" clip-path="url(#peb103cabd0)" style="fill: none; stroke: #f5841e; stroke-width: 0.6"/>
   </g>
  </g>
 </g>
 <defs>
  <clipPath id="peb103cabd0">
   <rect x="8.64" y="4.8" width="270.72" height="103.2"/>
  </clipPath>
 </defs>
</svg>
