<?xml version="1.0" encoding="utf-8" standalone="no"?>
<!DOCTYPE svg PUBLIC "-//W3C//DTD SVG 1.1//EN"
  "http://www.w3.org/Graphics/SVG/1.1/DTD/svg11.dtd">
<svg xmlns:xlink="http://www.w3.org/1999/xlink" width="288pt" height="120pt" viewBox="0 0 288 120" xmlns="http://www.w3.org/2000/svg" version="1.1">
<desc id="nav-meta">{"window":"3m","count":4,"labels":["10.11","10.12","08.01","07.02"],"tick_utc":["2025-11-10T12:00:00Z","2025-12-10T12:00:00Z","2026-01-08T12:00:00Z","2026-02-07T03:13:08Z"],"w":720,"h":300}</desc>

 <metadata>
  <rdf:RDF xmlns:dc="http://purl.org/dc/elements/1.1/" xmlns:cc="http://creativecommons.org/ns#" xmlns:rdf="http://www.w3.org/1999/02/22-rdf-syntax-ns#">
   <cc:Work>
    <dc:type rdf:resource="http://purl.org/dc/dcmitype/StillImage"/>
    <dc:date>2026-02-07T16:29:01.230881</dc:date>
    <dc:format>image/svg+xml</dc:format>
    <dc:creator>
     <cc:Agent>
      <dc:title>Matplotlib v3.10.8, https://matplotlib.org/</dc:title>
     </cc:Agent>
    </dc:creator>
   </cc:Work>
  </rdf:RDF>
 </metadata>
 <defs>
  <style type="text/css">*{stroke-linejoin: round; stroke-linecap: butt}</style>
 </defs>
 <g id="figure_1">
  <g id="patch_1">
   <path d="M 0 120 
L 288 120 
L 288 0 
L 0 0 
L 0 120 
z
" style="fill: none; opacity: 0"/>
  </g>
  <g id="axes_1">
   <g id="patch_2">
    <path d="M 8.64 108 
L 279.36 108 
L 279.36 4.8 
L 8.64 4.8 
L 8.64 108 
z
" style="fill: none"/>
   </g>
   <g id="matplotlib.axis_1"/>
   <g id="matplotlib.axis_2"/>
   <g id="line2d_1">
    <path d="M 8.64 87.36 
L 279.36 87.36 
" clip-path="url(#p4452ee7758)" style="fill: none; stroke: #b2b2b2; stroke-opacity: 0.35; stroke-width: 0.5; stroke-linecap: square"/>
   </g>
   <g id="line2d_2">
    <path d="M 8.64 66.72 
L 279.36 66.72 
" clip-path="url(#p4452ee7758)" style="fill: none; stroke: #b2b2b2; stroke-opacity: 0.35; stroke-width: 0.5; stroke-linecap: square"/>
   </g>
   <g id="line2d_3">
    <path d="M 8.64 46.08 
L 279.36 46.08 
" clip-path="url(#p4452ee7758)" style="fill: none; stroke: #b2b2b2; stroke-opacity: 0.35; stroke-width: 0.5; stroke-linecap: square"/>
   </g>
   <g id="line2d_4">
    <path d="M 8.64 25.44 
L 279.36 25.44 
" clip-path="url(#p4452ee7758)" style="fill: none; stroke: #b2b2b2; stroke-opacity: 0.35; stroke-width: 0.5; stroke-linecap: square"/>
   </g>
   <g id="line2d_5">
    <path d="M 8.64 81.62208 
L 11.694354 80.72424 
L 14.748708 84.33624 
L 17.803063 84.64584 
L 20.857417 86.844 
L 23.911771 88.52616 
L 26.966125 88.36104 
L 30.02048 88.93896 
L 33.074834 90.79656 
L 36.129188 88.09272 
L 39.183542 89.22792 
L 42.237896 90.00192 
L 45.292251 91.39512 
L 48.346605 91.63248 
L 51.400959 90.75528 
L 54.455313 88.7016 
L 57.509668 88.52616 
L 60.564022 87.45288 
L 63.618376 88.0308 
L 66.67273 88.94928 
L 69.727084 89.3208 
L 72.781439 89.7336 
L 75.835793 91.86984 
L 78.890147 88.60872 
L 81.944501 86.87496 
L 84.998856 88.52616 
L 88.05321 90.11544 
L 91.107564 90.38376 
L 94.161918 90.53856 
L 97.216273 90.08448 
L 100.270627 88.79448 
L 103.324981 89.20728 
L 106.379335 89.22792 
L 109.433689 90.31152 
L 112.488044 90.10512 
L 115.542398 91.09584 
L 118.596752 91.61184 
L 121.651106 91.31256 
L 124.705461 92.87088 
L 127.759815 93.8616 
L 130.814169 92.02464 
L 133.868523 92.13816 
L 136.922877 92.07624 
L 139.977232 92.14848 
L 143.031586 92.64384 
L 146.08594 93.01536 
L 149.140294 93.69648 
L 152.194649 93.11856 
L 155.249003 92.44776 
L 158.303357 92.30328 
L 161.357711 92.87088 
L 164.412065 92.38584 
L 167.46642 92.47872 
L 170.520774 91.88016 
L 173.575128 90.42504 
L 176.629482 90.08448 
L 179.683837 89.92968 
L 182.738191 88.76352 
L 185.792545 87.94824 
L 188.846899 89.2692 
L 191.901253 88.72224 
L 194.955608 89.39304 
L 198.009962 89.40336 
L 201.064316 88.41264 
L 204.11867 88.4952 
L 207.173025 86.86464 
L 210.227379 86.42088 
L 213.281733 87.62832 
L 216.336087 86.93688 
L 219.390441 87.23616 
L 222.444796 88.63968 
L 225.49915 90.0432 
L 228.553504 92.12784 
L 231.607858 91.16808 
L 234.662213 91.46736 
L 237.716567 91.73568 
L 240.770921 91.78728 
L 243.825275 94.0164 
L 246.87963 92.5716 
L 249.933984 91.76664 
L 252.988338 92.33424 
L 256.042692 94.36728 
L 259.097046 94.46016 
L 262.151401 97.71096 
L 265.205755 98.48496 
L 268.260109 97.85544 
L 270.83867 99.10416 
L 273.265927 100.16712 
L 276.318726 102.23112 
L 279.36 100.54896 
" clip-path="url(#p4452ee7758)" style="fill: none; stroke: #bebebe; stroke-width: 0.5; stroke-linecap: round"/>
   </g>
   <g id="line2d_6">
    <path d="M 8.64 66.5136 
L 11.694354 66.68904 
L 14.748708 68.8872 
L 17.803063 68.9904 
L 20.857417 71.5704 
L 23.911771 73.48992 
L 26.966125 72.54048 
L 30.02048 73.56216 
L 33.074834 74.74896 
L 36.129188 73.3248 
L 39.183542 74.80056 
L 42.237896 77.556 
L 45.292251 78.55704 
L 48.346605 78.50544 
L 51.400959 78.04104 
L 54.455313 75.76032 
L 57.509668 75.73968 
L 60.564022 74.65608 
L 63.618376 74.83152 
L 66.67273 74.57352 
L 69.727084 75.20304 
L 72.781439 75.17208 
L 75.835793 78.05136 
L 78.890147 75.1308 
L 81.944501 72.16896 
L 84.998856 73.08744 
L 88.05321 74.72832 
L 91.107564 74.48064 
L 94.161918 74.28456 
L 97.216273 73.21128 
L 100.270627 70.2804 
L 103.324981 70.2288 
L 106.379335 71.56008 
L 109.433689 73.79952 
L 112.488044 73.35576 
L 115.542398 74.0988 
L 118.596752 75.5952 
L 121.651106 75.5952 
L 124.705461 77.61792 
L 127.759815 77.63856 
L 130.814169 75.40944 
L 133.868523 75.40944 
L 136.922877 75.04824 
L 139.977232 74.98632 
L 143.031586 75.58488 
L 146.08594 75.87384 
L 149.140294 76.49304 
L 152.194649 76.15248 
L 155.249003 75.82224 
L 158.303357 75.84288 
L 161.357711 76.03896 
L 164.412065 75.51264 
L 167.46642 75.56424 
L 170.520774 75.05856 
L 173.575128 73.26288 
L 176.629482 73.20096 
L 179.683837 73.00488 
L 182.738191 71.68392 
L 185.792545 70.6932 
L 188.846899 72.62304 
L 191.901253 73.52088 
L 194.955608 73.83048 
L 198.009962 73.8408 
L 201.064316 73.29384 
L 204.11867 73.72728 
L 207.173025 70.32168 
L 210.227379 69.77472 
L 213.281733 70.34232 
L 216.336087 70.67256 
L 219.390441 70.51776 
L 222.444796 70.848 
L 225.49915 72.31344 
L 228.553504 76.01832 
L 231.607858 75.41976 
L 234.662213 75.83256 
L 237.716567 75.79128 
L 240.770921 75.82224 
L 243.825275 77.82432 
L 246.87963 76.14216 
L 249.933984 74.75928 
L 252.988338 74.96568 
L 256.042692 77.75208 
L 259.097046 79.48584 
L 262.151401 83.31456 
L 265.205755 85.90488 
L 268.260109 84.79032 
L 270.83867 85.84296 
L 273.265927 88.25784 
L 276.318726 91.41576 
L 279.36 88.7532 
" clip-path="url(#p4452ee7758)" style="fill: none; stroke: #4a8dff; stroke-width: 0.6"/>
   </g>
   <g id="line2d_7">
    <path d="M 8.64 68.2164 
L 11.694354 66.978 
L 14.748708 70.03272 
L 17.803063 71.5188 
L 20.857417 73.3764 
L 23.911771 78.846 
L 26.966125 77.75208 
L 30.02048 78.88728 
L 33.074834 81.34344 
L 36.129188 80.53848 
L 39.183542 82.0452 
L 42.237896 86.92656 
L 45.292251 88.58808 
L 48.346605 88.96992 
L 51.400959 86.7924 
L 54.455313 85.296 
L 57.509668 86.24544 
L 60.564022 82.96368 
L 63.618376 82.13808 
L 66.67273 82.47864 
L 69.727084 82.58184 
L 72.781439 83.03592 
L 75.835793 87.3084 
L 78.890147 82.06584 
L 81.944501 79.71288 
L 84.998856 81.24024 
L 88.05321 84.17112 
L 91.107564 84.24336 
L 94.161918 83.29392 
L 97.216273 82.8192 
L 100.270627 80.64168 
L 103.324981 81.38472 
L 106.379335 80.87904 
L 109.433689 83.13912 
L 112.488044 83.19072 
L 115.542398 85.296 
L 118.596752 87.17424 
L 121.651106 85.71912 
L 124.705461 87.53544 
L 127.759815 88.17528 
L 130.814169 85.41984 
L 133.868523 85.17216 
L 136.922877 84.9348 
L 139.977232 85.01736 
L 143.031586 86.14224 
L 146.08594 85.90488 
L 149.140294 86.328 
L 152.194649 86.24544 
L 155.249003 85.72944 
L 158.303357 85.7088 
L 161.357711 86.40024 
L 164.412065 85.09992 
L 167.46642 86.02872 
L 170.520774 84.78 
L 173.575128 83.53128 
L 176.629482 82.83984 
L 179.683837 82.03488 
L 182.738191 79.39296 
L 185.792545 79.66128 
L 188.846899 82.15872 
L 191.901253 82.43736 
L 194.955608 82.93272 
L 198.009962 83.00496 
L 201.064316 82.6128 
L 204.11867 82.28256 
L 207.173025 78.01008 
L 210.227379 76.19376 
L 213.281733 77.66952 
L 216.336087 77.74176 
L 219.390441 78.1752 
L 222.444796 79.5684 
L 225.49915 80.8068 
L 228.553504 85.20312 
L 231.607858 84.12984 
L 234.662213 84.03696 
L 237.716567 84.06792 
L 240.770921 84.3156 
L 243.825275 87.02976 
L 246.87963 85.21344 
L 249.933984 84.28464 
L 252.988338 84.32592 
L 256.042692 89.08344 
L 259.097046 89.5272 
L 262.151401 95.14128 
L 265.205755 96.98856 
L 268.260109 95.08968 
L 270.83867 97.71096 
L 273.265927 99.80592 
L 276.318726 101.79768 
L 279.36 100.03296 
" clip-path="url(#p4452ee7758)" style="fill: none; stroke: #f5841e; stroke-width: 0.6"/>
   </g>
  </g>
 </g>
 <defs>
  <clipPath id="p4452ee7758">
   <rect x="8.64" y="4.8" width="270.72" height="103.2"/>
  </clipPath>
 </defs>
</svg>
