<?xml version="1.0" encoding="utf-8" standalone="no"?>
<!DOCTYPE svg PUBLIC "-//W3C//DTD SVG 1.1//EN"
  "http://www.w3.org/Graphics/SVG/1.1/DTD/svg11.dtd">
<svg xmlns:xlink="http://www.w3.org/1999/xlink" width="288pt" height="120pt" viewBox="0 0 288 120" xmlns="http://www.w3.org/2000/svg" version="1.1">
<desc id="nav-meta">{"window":"6m","count":4,"labels":["07.01","08.03","07.05","06.07"],"tick_utc":["2026-01-07T12:00:00Z","2026-03-08T03:19:34Z","2026-05-07T04:25:17Z","2026-07-06T04:58:56Z"],"w":720,"h":300}</desc>

 <metadata>
  <rdf:RDF xmlns:dc="http://purl.org/dc/elements/1.1/" xmlns:cc="http://creativecommons.org/ns#" xmlns:rdf="http://www.w3.org/1999/02/22-rdf-syntax-ns#">
   <cc:Work>
    <dc:type rdf:resource="http://purl.org/dc/dcmitype/StillImage"/>
    <dc:date>2026-07-06T04:58:58.520927</dc:date>
    <dc:format>image/svg+xml</dc:format>
    <dc:creator>
     <cc:Agent>
      <dc:title>Matplotlib v3.11.0, https://matplotlib.org/</dc:title>
     </cc:Agent>
    </dc:creator>
   </cc:Work>
  </rdf:RDF>
 </metadata>
 <defs>
  <style type="text/css">*{stroke-linejoin: round; stroke-linecap: butt}</style>
 </defs>
 <g id="figure_1">
  <g id="patch_1">
   <path d="M 0 120 
L 288 120 
L 288 0 
L 0 0 
L 0 120 
z
" style="fill: none; opacity: 0"/>
  </g>
  <g id="axes_1">
   <g id="patch_2">
    <path d="M 8.64 108 
L 279.36 108 
L 279.36 4.8 
L 8.64 4.8 
L 8.64 108 
z
" style="fill: none"/>
   </g>
   <g id="matplotlib.axis_1"/>
   <g id="matplotlib.axis_2"/>
   <g id="line2d_1">
    <path d="M 8.64 87.36 
L 279.36 87.36 
" clip-path="url(#pe3543f3dc8)" style="fill: none; stroke: #b2b2b2; stroke-opacity: 0.35; stroke-width: 0.5; stroke-linecap: square"/>
   </g>
   <g id="line2d_2">
    <path d="M 8.64 66.72 
L 279.36 66.72 
" clip-path="url(#pe3543f3dc8)" style="fill: none; stroke: #b2b2b2; stroke-opacity: 0.35; stroke-width: 0.5; stroke-linecap: square"/>
   </g>
   <g id="line2d_3">
    <path d="M 8.64 46.08 
L 279.36 46.08 
" clip-path="url(#pe3543f3dc8)" style="fill: none; stroke: #b2b2b2; stroke-opacity: 0.35; stroke-width: 0.5; stroke-linecap: square"/>
   </g>
   <g id="line2d_4">
    <path d="M 8.64 25.44 
L 279.36 25.44 
" clip-path="url(#pe3543f3dc8)" style="fill: none; stroke: #b2b2b2; stroke-opacity: 0.35; stroke-width: 0.5; stroke-linecap: square"/>
   </g>
   <g id="line2d_5">
    <path d="M 8.64 87.94824 
L 10.146447 89.2692 
L 11.652894 88.72224 
L 13.159342 89.39304 
L 14.665789 89.40336 
L 16.172236 88.41264 
L 17.678683 88.4952 
L 19.18513 86.86464 
L 20.691578 86.42088 
L 22.198025 87.62832 
L 23.704472 86.93688 
L 25.210919 87.23616 
L 28.223814 90.0432 
L 29.730261 92.12784 
L 31.236708 91.16808 
L 34.249602 91.73568 
L 35.75605 91.78728 
L 37.262497 94.0164 
L 38.768944 92.5716 
L 40.275391 91.76664 
L 41.781838 92.33424 
L 43.288286 94.36728 
L 44.794733 94.46016 
L 46.30118 97.71096 
L 47.807627 98.48496 
L 49.314074 97.85544 
L 51.783009 100.16712 
L 53.288689 102.23112 
L 54.788685 100.54896 
L 56.329568 100.70376 
L 57.823583 100.68312 
L 60.841952 101.28168 
L 62.342977 101.71512 
L 63.848971 101.84928 
L 65.337302 101.034 
L 66.76426 100.54896 
L 68.367336 101.04432 
L 69.684553 100.81728 
L 71.377842 101.034 
L 72.882458 101.4984 
L 77.400998 101.06496 
L 78.911978 102.09696 
L 80.291162 102.05568 
L 81.91945 101.4984 
L 83.419185 100.60056 
L 84.922772 100.80696 
L 86.41147 101.45712 
L 87.952144 100.55928 
L 89.443038 101.10624 
L 92.450998 100.74504 
L 93.960689 100.21872 
L 95.466421 100.53864 
L 96.961308 101.07528 
L 98.482384 101.38488 
L 99.993347 101.26104 
L 101.490117 100.78632 
L 104.508347 100.99272 
L 106.011883 100.38384 
L 109.051593 100.60056 
L 110.562295 99.76464 
L 112.042379 99.49632 
L 113.560316 99.40344 
L 115.067182 100.09488 
L 116.558966 100.3632 
L 118.05659 100.19808 
L 121.095551 100.79664 
L 122.58805 100.26 
L 124.206696 99.83688 
L 125.619269 100.13616 
L 128.619662 101.38488 
L 134.673697 101.28168 
L 136.160302 101.8596 
L 137.668476 101.88024 
L 139.16202 101.72544 
L 140.691151 101.68416 
L 142.201487 101.47776 
L 143.698153 101.78736 
L 145.207041 101.09592 
L 146.70824 101.46744 
L 148.228548 101.3436 
L 149.711963 101.05464 
L 151.245436 101.3952 
L 152.759607 101.47776 
L 154.256464 100.86888 
L 155.761761 101.26104 
L 157.274729 100.99272 
L 158.778108 100.61088 
L 160.267939 100.44576 
L 161.79428 100.94112 
L 163.304458 101.09592 
L 164.804297 101.00304 
L 166.306072 100.69344 
L 167.818622 100.9308 
L 172.347413 100.8792 
L 173.870093 100.64184 
L 175.379696 101.1888 
L 176.882029 101.09592 
L 178.391004 101.37456 
L 179.913911 101.21976 
L 182.918941 101.23008 
L 184.424866 100.92048 
L 185.898133 101.06496 
L 187.431117 100.70376 
L 188.937965 100.55928 
L 190.41934 100.53864 
L 191.931297 99.60984 
L 193.468099 99.72336 
L 196.471962 99.25896 
L 197.985575 99.32088 
L 199.490349 100.22904 
L 201.004224 100.01232 
L 204.020379 100.75536 
L 205.541454 101.02368 
L 207.037109 101.02368 
L 208.548944 101.17848 
L 210.063969 100.7244 
L 211.558874 100.75536 
L 213.044625 101.11656 
L 214.574924 100.91016 
L 216.101196 100.89984 
L 217.58482 101.1372 
L 219.106732 101.2404 
L 220.608367 101.6532 
L 222.11593 101.4984 
L 223.600653 101.48808 
L 225.137857 101.32296 
L 228.158213 101.7048 
L 229.681608 102.54072 
L 231.182894 103.08768 
L 232.664531 103.36632 
L 234.147823 104.22288 
L 235.686648 103.85136 
L 238.677452 103.43856 
L 240.199521 103.81008 
L 241.714809 103.72752 
L 243.227166 103.50048 
L 244.722594 103.5108 
L 246.239974 103.31472 
L 249.311539 102.61296 
L 250.770003 102.6336 
L 253.811161 103.28376 
L 256.795164 102.69552 
L 258.345707 102.582 
L 261.273933 103.15992 
L 262.779979 103.36632 
L 264.294151 103.36632 
L 265.782133 102.81936 
L 267.317297 103.0464 
L 268.834642 102.9432 
L 270.311884 102.59232 
L 271.84037 102.40656 
L 276.310456 101.3436 
L 277.838959 101.6532 
L 279.36 101.6532 
L 279.36 101.6532 
" clip-path="url(#pe3543f3dc8)" style="fill: none; stroke: #bebebe; stroke-width: 0.5; stroke-linecap: round"/>
   </g>
   <g id="line2d_6">
    <path d="M 8.64 70.6932 
L 10.146447 72.62304 
L 11.652894 73.52088 
L 13.159342 73.83048 
L 14.665789 73.8408 
L 16.172236 73.29384 
L 17.678683 73.72728 
L 19.18513 70.32168 
L 20.691578 69.77472 
L 22.198025 70.34232 
L 23.704472 70.67256 
L 25.210919 70.51776 
L 26.717366 70.848 
L 28.223814 72.31344 
L 29.730261 76.01832 
L 31.236708 75.41976 
L 32.743155 75.83256 
L 35.75605 75.82224 
L 37.262497 77.82432 
L 38.768944 76.14216 
L 40.275391 74.75928 
L 41.781838 74.96568 
L 43.288286 77.75208 
L 44.794733 79.48584 
L 46.30118 83.31456 
L 47.807627 85.90488 
L 49.314074 84.79032 
L 50.585854 85.84296 
L 53.288689 91.41576 
L 54.788685 88.7532 
L 57.823583 88.55712 
L 59.338626 88.96992 
L 62.342977 90.456 
L 63.848971 90.56952 
L 65.337302 89.15568 
L 66.76426 88.9596 
L 68.367336 90.6624 
L 69.684553 89.94 
L 71.377842 90.00192 
L 74.380101 90.62112 
L 77.400998 90.3528 
L 78.911978 92.004 
L 80.291162 92.13816 
L 81.91945 91.25064 
L 83.419185 89.166 
L 84.922772 89.56848 
L 86.41147 90.93072 
L 87.952144 89.41368 
L 89.443038 90.37344 
L 90.95299 89.79552 
L 92.450998 90.23928 
L 93.960689 88.0824 
L 95.466421 88.7532 
L 96.961308 90.16704 
L 98.482384 90.67272 
L 99.993347 90.18768 
L 101.490117 89.2692 
L 102.995972 89.54784 
L 104.508347 89.49624 
L 106.011883 88.31976 
L 107.516325 88.45392 
L 109.051593 88.46424 
L 110.562295 86.38992 
L 112.042379 84.80064 
L 113.560316 84.8316 
L 115.067182 86.586 
L 116.558966 87.74184 
L 118.05659 87.618 
L 119.585565 88.19592 
L 121.095551 89.08344 
L 122.58805 87.89664 
L 124.206696 87.3084 
L 125.619269 87.65928 
L 127.127617 88.96992 
L 128.619662 90.07416 
L 131.657385 89.3724 
L 133.15433 89.00088 
L 134.673697 88.42296 
L 137.668476 89.10408 
L 139.16202 89.14536 
L 140.691151 89.07312 
L 142.201487 87.9792 
L 143.698153 88.29912 
L 145.207041 86.38992 
L 146.70824 87.24648 
L 148.228548 87.1536 
L 149.711963 86.21448 
L 152.759607 87.01944 
L 154.256464 84.44976 
L 155.761761 85.05864 
L 157.274729 84.58392 
L 158.778108 85.04832 
L 160.267939 83.71704 
L 161.79428 84.86256 
L 163.304458 85.6572 
L 164.804297 85.27536 
L 166.306072 84.49104 
L 169.329062 85.32696 
L 170.817532 85.17216 
L 172.347413 85.31664 
L 173.870093 84.11952 
L 175.379696 85.66752 
L 176.882029 85.26504 
L 178.391004 86.26608 
L 181.381912 85.38888 
L 182.918941 85.3992 
L 184.424866 84.09888 
L 187.431117 84.34656 
L 190.41934 85.7604 
L 191.931297 85.0896 
L 194.986438 84.9348 
L 196.471962 85.296 
L 197.985575 85.35792 
L 199.490349 86.1732 
L 201.004224 85.92552 
L 204.020379 87.13296 
L 205.541454 88.10304 
L 207.037109 87.9276 
L 208.548944 88.26816 
L 210.063969 87.78312 
L 211.558874 87.95856 
L 213.044625 88.94928 
L 214.574924 88.14432 
L 217.58482 88.52616 
L 219.106732 88.86672 
L 220.608367 90.22896 
L 222.11593 89.82648 
L 223.600653 89.87808 
L 225.137857 89.46528 
L 226.666587 90.0432 
L 228.158213 89.96064 
L 229.681608 91.99368 
L 231.182894 93.05664 
L 232.664531 93.74808 
L 234.147823 97.02984 
L 235.686648 95.93592 
L 237.199756 95.07936 
L 238.677452 94.46016 
L 240.199521 95.47152 
L 243.227166 94.82136 
L 244.722594 94.8936 
L 246.239974 94.70784 
L 249.311539 93.40752 
L 250.770003 92.9844 
L 252.269232 93.93384 
L 253.811161 94.4292 
L 256.795164 93.87192 
L 258.345707 93.81 
L 259.762098 94.03704 
L 261.273933 94.83168 
L 262.779979 95.48184 
L 264.294151 96.63768 
L 265.782133 96.14232 
L 267.317297 96.30744 
L 268.834642 96.29712 
L 270.311884 96.04944 
L 271.84037 95.9256 
L 273.320437 95.39928 
L 274.810495 94.31568 
L 276.310456 93.57264 
L 277.838959 93.32496 
L 279.36 93.22176 
L 279.36 93.22176 
" clip-path="url(#pe3543f3dc8)" style="fill: none; stroke: #4a8dff; stroke-width: 0.6"/>
   </g>
   <g id="line2d_7">
    <path d="M 8.64 79.66128 
L 10.146447 82.15872 
L 11.652894 82.43736 
L 13.159342 82.93272 
L 14.665789 83.00496 
L 17.678683 82.28256 
L 19.18513 78.01008 
L 20.691578 76.19376 
L 22.198025 77.66952 
L 23.704472 77.74176 
L 25.210919 78.1752 
L 26.717366 79.5684 
L 28.223814 80.8068 
L 29.730261 85.20312 
L 31.236708 84.12984 
L 32.743155 84.03696 
L 34.249602 84.06792 
L 35.75605 84.3156 
L 37.262497 87.02976 
L 38.768944 85.21344 
L 40.275391 84.28464 
L 41.781838 84.32592 
L 43.288286 89.08344 
L 44.794733 89.5272 
L 46.30118 95.14128 
L 47.807627 96.98856 
L 49.314074 95.08968 
L 50.585854 97.71096 
L 51.783009 99.80592 
L 53.288689 101.79768 
L 54.788685 100.03296 
L 56.329568 100.518 
L 57.823583 99.98136 
L 59.338626 100.49736 
L 63.848971 101.26104 
L 65.337302 100.63152 
L 66.76426 100.38384 
L 68.367336 100.84824 
L 69.684553 100.65216 
L 71.377842 101.034 
L 72.882458 101.19912 
L 77.400998 100.91016 
L 78.911978 101.7564 
L 80.291162 101.84928 
L 81.91945 101.56032 
L 83.419185 100.85856 
L 86.41147 101.4468 
L 87.952144 101.02368 
L 89.443038 101.30232 
L 90.95299 100.81728 
L 92.450998 100.79664 
L 93.960689 99.3312 
L 95.466421 99.92976 
L 96.961308 100.78632 
L 98.482384 101.17848 
L 99.993347 101.1372 
L 101.490117 100.21872 
L 104.508347 100.4664 
L 106.011883 99.88848 
L 107.516325 99.94008 
L 109.051593 99.81624 
L 110.562295 98.93904 
L 112.042379 98.3508 
L 113.560316 98.52624 
L 115.067182 99.78528 
L 116.558966 100.12584 
L 118.05659 100.03296 
L 121.095551 100.83792 
L 122.58805 100.11552 
L 124.206696 99.87816 
L 125.619269 100.002 
L 127.127617 100.64184 
L 128.619662 101.41584 
L 130.146631 101.21976 
L 133.15433 101.00304 
L 134.673697 100.86888 
L 136.160302 101.21976 
L 137.668476 101.28168 
L 140.691151 101.14752 
L 142.201487 100.55928 
L 143.698153 100.65216 
L 145.207041 99.80592 
L 146.70824 99.96072 
L 148.228548 99.6408 
L 149.711963 99.1764 
L 151.245436 99.70272 
L 152.759607 99.94008 
L 154.256464 98.57784 
L 155.761761 98.65008 
L 157.274729 98.38176 
L 158.778108 98.48496 
L 160.267939 96.70992 
L 161.79428 98.05152 
L 163.304458 98.48496 
L 164.804297 97.96896 
L 166.306072 96.32808 
L 169.329062 96.16296 
L 170.817532 96.1836 
L 172.347413 96.50352 
L 173.870093 94.76976 
L 175.379696 97.19496 
L 176.882029 96.9576 
L 178.391004 97.9896 
L 179.913911 96.89568 
L 181.381912 95.45088 
L 182.918941 95.67792 
L 184.424866 93.43848 
L 187.431117 92.25168 
L 188.937965 92.87088 
L 190.41934 94.2744 
L 191.931297 93.1392 
L 193.468099 92.97408 
L 194.986438 92.9844 
L 196.471962 92.60256 
L 197.985575 92.53032 
L 199.490349 94.54272 
L 201.004224 92.85024 
L 202.491439 94.82136 
L 204.020379 95.75016 
L 205.541454 96.97824 
L 208.548944 97.23624 
L 210.063969 95.94624 
L 211.558874 96.30744 
L 213.044625 98.08248 
L 214.574924 97.2672 
L 216.101196 96.61704 
L 217.58482 97.23624 
L 219.106732 98.08248 
L 220.608367 99.18672 
L 222.11593 99.03192 
L 223.600653 99.1248 
L 225.137857 98.74296 
L 226.666587 99.09384 
L 228.158213 100.0536 
L 229.681608 101.23008 
L 231.182894 101.99376 
L 232.664531 102.08664 
L 234.147823 102.8916 
L 235.686648 102.45816 
L 238.677452 102.10728 
L 240.199521 102.582 
L 243.227166 102.08664 
L 244.722594 102.066 
L 246.239974 101.86992 
L 247.796496 101.48808 
L 249.311539 101.40552 
L 250.770003 101.4984 
L 252.269232 101.97312 
L 253.811161 102.26208 
L 256.795164 101.90088 
L 258.345707 101.90088 
L 259.762098 102.0144 
L 261.273933 102.25176 
L 262.779979 102.6336 
L 264.294151 102.88128 
L 265.782133 102.77808 
L 271.84037 103.00512 
L 273.320437 102.69552 
L 274.810495 102.55104 
L 276.310456 102.2724 
L 279.36 102.12792 
L 279.36 102.12792 
" clip-path="url(#pe3543f3dc8)" style="fill: none; stroke: #f5841e; stroke-width: 0.6"/>
   </g>
  </g>
 </g>
 <defs>
  <clipPath id="pe3543f3dc8">
   <rect x="8.64" y="4.8" width="270.72" height="103.2"/>
  </clipPath>
 </defs>
</svg>
