<?xml version="1.0" encoding="utf-8" standalone="no"?>
<!DOCTYPE svg PUBLIC "-//W3C//DTD SVG 1.1//EN"
  "http://www.w3.org/Graphics/SVG/1.1/DTD/svg11.dtd">
<svg xmlns:xlink="http://www.w3.org/1999/xlink" width="288pt" height="120pt" viewBox="0 0 288 120" xmlns="http://www.w3.org/2000/svg" version="1.1">
<desc id="nav-meta">{"window":"6m","count":4,"labels":["22.12","20.02","20.04","19.06"],"tick_utc":["2025-12-22T12:00:00Z","2026-02-20T03:20:24Z","2026-04-20T04:02:26Z","2026-06-19T05:57:01Z"],"w":720,"h":300}</desc>

 <metadata>
  <rdf:RDF xmlns:dc="http://purl.org/dc/elements/1.1/" xmlns:cc="http://creativecommons.org/ns#" xmlns:rdf="http://www.w3.org/1999/02/22-rdf-syntax-ns#">
   <cc:Work>
    <dc:type rdf:resource="http://purl.org/dc/dcmitype/StillImage"/>
    <dc:date>2026-06-19T20:20:34.540520</dc:date>
    <dc:format>image/svg+xml</dc:format>
    <dc:creator>
     <cc:Agent>
      <dc:title>Matplotlib v3.11.0, https://matplotlib.org/</dc:title>
     </cc:Agent>
    </dc:creator>
   </cc:Work>
  </rdf:RDF>
 </metadata>
 <defs>
  <style type="text/css">*{stroke-linejoin: round; stroke-linecap: butt}</style>
 </defs>
 <g id="figure_1">
  <g id="patch_1">
   <path d="M 0 120 
L 288 120 
L 288 0 
L 0 0 
L 0 120 
z
" style="fill: none; opacity: 0"/>
  </g>
  <g id="axes_1">
   <g id="patch_2">
    <path d="M 8.64 108 
L 279.36 108 
L 279.36 4.8 
L 8.64 4.8 
L 8.64 108 
z
" style="fill: none"/>
   </g>
   <g id="matplotlib.axis_1"/>
   <g id="matplotlib.axis_2"/>
   <g id="line2d_1">
    <path d="M 8.64 87.36 
L 279.36 87.36 
" clip-path="url(#pc897ae0324)" style="fill: none; stroke: #b2b2b2; stroke-opacity: 0.35; stroke-width: 0.5; stroke-linecap: square"/>
   </g>
   <g id="line2d_2">
    <path d="M 8.64 66.72 
L 279.36 66.72 
" clip-path="url(#pc897ae0324)" style="fill: none; stroke: #b2b2b2; stroke-opacity: 0.35; stroke-width: 0.5; stroke-linecap: square"/>
   </g>
   <g id="line2d_3">
    <path d="M 8.64 46.08 
L 279.36 46.08 
" clip-path="url(#pc897ae0324)" style="fill: none; stroke: #b2b2b2; stroke-opacity: 0.35; stroke-width: 0.5; stroke-linecap: square"/>
   </g>
   <g id="line2d_4">
    <path d="M 8.64 25.44 
L 279.36 25.44 
" clip-path="url(#pc897ae0324)" style="fill: none; stroke: #b2b2b2; stroke-opacity: 0.35; stroke-width: 0.5; stroke-linecap: square"/>
   </g>
   <g id="line2d_5">
    <path d="M 8.64 92.07624 
L 10.154535 92.14848 
L 11.66907 92.64384 
L 13.183605 93.01536 
L 14.69814 93.69648 
L 17.72721 92.44776 
L 19.241745 92.30328 
L 20.75628 92.87088 
L 22.270815 92.38584 
L 23.78535 92.47872 
L 25.299885 91.88016 
L 26.81442 90.42504 
L 28.328955 90.08448 
L 29.843491 89.92968 
L 31.358026 88.76352 
L 32.872561 87.94824 
L 34.387096 89.2692 
L 35.901631 88.72224 
L 37.416166 89.39304 
L 38.930701 89.40336 
L 40.445236 88.41264 
L 41.959771 88.4952 
L 43.474306 86.86464 
L 44.988841 86.42088 
L 46.503376 87.62832 
L 48.017911 86.93688 
L 49.532446 87.23616 
L 52.561516 90.0432 
L 54.076051 92.12784 
L 55.590586 91.16808 
L 58.619656 91.73568 
L 60.134191 91.78728 
L 61.648726 94.0164 
L 63.163261 92.5716 
L 64.677796 91.76664 
L 66.192331 92.33424 
L 67.706866 94.36728 
L 69.221401 94.46016 
L 70.735936 97.71096 
L 72.250472 98.48496 
L 73.765007 97.85544 
L 76.247196 100.16712 
L 77.76096 102.23112 
L 79.269009 100.54896 
L 80.818165 100.70376 
L 82.320201 100.68312 
L 85.354776 101.28168 
L 86.863859 101.71512 
L 88.377938 101.84928 
L 89.87426 101.034 
L 91.308879 100.54896 
L 92.920562 101.04432 
L 94.244851 100.81728 
L 95.94723 101.034 
L 97.459925 101.4984 
L 102.002723 101.06496 
L 103.521816 102.09696 
L 104.908405 102.05568 
L 106.545435 101.4984 
L 108.053221 100.60056 
L 109.564881 100.80696 
L 111.061571 101.45712 
L 112.610516 100.55928 
L 114.109415 101.10624 
L 117.133525 100.74504 
L 118.65132 100.21872 
L 120.165136 100.53864 
L 121.668049 101.07528 
L 123.197292 101.38488 
L 124.716367 101.26104 
L 126.221173 100.78632 
L 129.255607 100.99272 
L 130.767215 100.38384 
L 133.823245 100.60056 
L 135.342057 99.76464 
L 136.830088 99.49632 
L 138.356175 99.40344 
L 139.87113 100.09488 
L 141.370923 100.3632 
L 142.876588 100.19808 
L 145.931865 100.79664 
L 147.432376 100.26 
L 149.059713 99.83688 
L 150.47987 100.13616 
L 153.496371 101.38488 
L 159.582909 101.28168 
L 161.077496 101.8596 
L 162.593766 101.88024 
L 164.095329 101.72544 
L 165.63267 101.68416 
L 167.151114 101.47776 
L 168.655815 101.78736 
L 170.172804 101.09592 
L 171.682063 101.46744 
L 173.210534 101.3436 
L 174.701913 101.05464 
L 176.243618 101.3952 
L 177.765919 101.47776 
L 179.270813 100.86888 
L 180.784191 101.26104 
L 182.305282 100.99272 
L 183.816732 100.61088 
L 185.314561 100.44576 
L 186.849097 100.94112 
L 188.367384 101.09592 
L 189.875275 101.00304 
L 191.385112 100.69344 
L 192.905782 100.9308 
L 197.458889 100.8792 
L 198.989743 100.64184 
L 200.507451 101.1888 
L 202.017849 101.09592 
L 203.534926 101.37456 
L 205.066009 101.21976 
L 208.087173 101.23008 
L 209.601182 100.92048 
L 211.082359 101.06496 
L 212.623574 100.70376 
L 214.138512 100.55928 
L 215.62784 100.53864 
L 217.147914 99.60984 
L 218.692968 99.72336 
L 221.712958 99.25896 
L 223.234697 99.32088 
L 224.747549 100.22904 
L 226.269552 100.01232 
L 229.3019 100.75536 
L 230.831142 101.02368 
L 232.334827 101.02368 
L 233.854778 101.17848 
L 235.377938 100.7244 
L 236.880868 100.75536 
L 238.374596 101.11656 
L 239.913111 100.91016 
L 241.447577 100.89984 
L 242.939166 101.1372 
L 244.46925 101.2404 
L 245.978947 101.6532 
L 247.494604 101.4984 
L 248.987297 101.48808 
L 250.532754 101.32296 
L 253.569326 101.7048 
L 255.1009 102.54072 
L 256.610246 103.08768 
L 258.099837 103.36632 
L 259.591093 104.22288 
L 261.13818 103.85136 
L 264.145041 103.43856 
L 265.675282 103.81008 
L 267.198704 103.72752 
L 268.719182 103.50048 
L 270.222638 103.5108 
L 271.748164 103.31472 
L 274.836221 102.61296 
L 276.302515 102.6336 
L 279.36 103.28376 
L 279.36 103.28376 
" clip-path="url(#pc897ae0324)" style="fill: none; stroke: #bebebe; stroke-width: 0.5; stroke-linecap: round"/>
   </g>
   <g id="line2d_6">
    <path d="M 8.64 75.04824 
L 10.154535 74.98632 
L 11.66907 75.58488 
L 13.183605 75.87384 
L 14.69814 76.49304 
L 17.72721 75.82224 
L 19.241745 75.84288 
L 20.75628 76.03896 
L 22.270815 75.51264 
L 23.78535 75.56424 
L 25.299885 75.05856 
L 26.81442 73.26288 
L 28.328955 73.20096 
L 29.843491 73.00488 
L 31.358026 71.68392 
L 32.872561 70.6932 
L 34.387096 72.62304 
L 35.901631 73.52088 
L 37.416166 73.83048 
L 38.930701 73.8408 
L 40.445236 73.29384 
L 41.959771 73.72728 
L 43.474306 70.32168 
L 44.988841 69.77472 
L 46.503376 70.34232 
L 48.017911 70.67256 
L 49.532446 70.51776 
L 51.046981 70.848 
L 52.561516 72.31344 
L 54.076051 76.01832 
L 55.590586 75.41976 
L 57.105121 75.83256 
L 60.134191 75.82224 
L 61.648726 77.82432 
L 63.163261 76.14216 
L 64.677796 74.75928 
L 66.192331 74.96568 
L 67.706866 77.75208 
L 69.221401 79.48584 
L 70.735936 83.31456 
L 72.250472 85.90488 
L 73.765007 84.79032 
L 75.043614 85.84296 
L 77.76096 91.41576 
L 79.269009 88.7532 
L 82.320201 88.55712 
L 83.843378 88.96992 
L 86.863859 90.456 
L 88.377938 90.56952 
L 89.87426 89.15568 
L 91.308879 88.9596 
L 92.920562 90.6624 
L 94.244851 89.94 
L 95.94723 90.00192 
L 98.965607 90.62112 
L 102.002723 90.3528 
L 103.521816 92.004 
L 104.908405 92.13816 
L 106.545435 91.25064 
L 108.053221 89.166 
L 109.564881 89.56848 
L 111.061571 90.93072 
L 112.610516 89.41368 
L 114.109415 90.37344 
L 115.627474 89.79552 
L 117.133525 90.23928 
L 118.65132 88.0824 
L 120.165136 88.7532 
L 121.668049 90.16704 
L 123.197292 90.67272 
L 124.716367 90.18768 
L 126.221173 89.2692 
L 127.735112 89.54784 
L 129.255607 89.49624 
L 130.767215 88.31976 
L 132.279734 88.45392 
L 133.823245 88.46424 
L 135.342057 86.38992 
L 136.830088 84.80064 
L 138.356175 84.8316 
L 139.87113 86.586 
L 141.370923 87.74184 
L 142.876588 87.618 
L 144.413771 88.19592 
L 145.931865 89.08344 
L 147.432376 87.89664 
L 149.059713 87.3084 
L 150.47987 87.65928 
L 151.996316 88.96992 
L 153.496371 90.07416 
L 156.550403 89.3724 
L 158.055385 89.00088 
L 159.582909 88.42296 
L 162.593766 89.10408 
L 164.095329 89.14536 
L 165.63267 89.07312 
L 167.151114 87.9792 
L 168.655815 88.29912 
L 170.172804 86.38992 
L 171.682063 87.24648 
L 173.210534 87.1536 
L 174.701913 86.21448 
L 177.765919 87.01944 
L 179.270813 84.44976 
L 180.784191 85.05864 
L 182.305282 84.58392 
L 183.816732 85.04832 
L 185.314561 83.71704 
L 186.849097 84.86256 
L 188.367384 85.6572 
L 189.875275 85.27536 
L 191.385112 84.49104 
L 194.424332 85.32696 
L 195.920794 85.17216 
L 197.458889 85.31664 
L 198.989743 84.11952 
L 200.507451 85.66752 
L 202.017849 85.26504 
L 203.534926 86.26608 
L 206.541892 85.38888 
L 208.087173 85.3992 
L 209.601182 84.09888 
L 212.623574 84.34656 
L 215.62784 85.7604 
L 217.147914 85.0896 
L 220.219458 84.9348 
L 221.712958 85.296 
L 223.234697 85.35792 
L 224.747549 86.1732 
L 226.269552 85.92552 
L 229.3019 87.13296 
L 230.831142 88.10304 
L 232.334827 87.9276 
L 233.854778 88.26816 
L 235.377938 87.78312 
L 236.880868 87.95856 
L 238.374596 88.94928 
L 239.913111 88.14432 
L 242.939166 88.52616 
L 244.46925 88.86672 
L 245.978947 90.22896 
L 247.494604 89.82648 
L 248.987297 89.87808 
L 250.532754 89.46528 
L 252.069691 90.0432 
L 253.569326 89.96064 
L 255.1009 91.99368 
L 256.610246 93.05664 
L 258.099837 93.74808 
L 259.591093 97.02984 
L 261.13818 95.93592 
L 262.659411 95.07936 
L 264.145041 94.46016 
L 265.675282 95.47152 
L 268.719182 94.82136 
L 270.222638 94.8936 
L 271.748164 94.70784 
L 274.836221 93.40752 
L 276.302515 92.9844 
L 277.809793 93.93384 
L 279.36 94.4292 
L 279.36 94.4292 
" clip-path="url(#pc897ae0324)" style="fill: none; stroke: #4a8dff; stroke-width: 0.6"/>
   </g>
   <g id="line2d_7">
    <path d="M 8.64 84.9348 
L 10.154535 85.01736 
L 11.66907 86.14224 
L 13.183605 85.90488 
L 14.69814 86.328 
L 16.212675 86.24544 
L 17.72721 85.72944 
L 19.241745 85.7088 
L 20.75628 86.40024 
L 22.270815 85.09992 
L 23.78535 86.02872 
L 26.81442 83.53128 
L 29.843491 82.03488 
L 31.358026 79.39296 
L 32.872561 79.66128 
L 34.387096 82.15872 
L 35.901631 82.43736 
L 37.416166 82.93272 
L 38.930701 83.00496 
L 41.959771 82.28256 
L 43.474306 78.01008 
L 44.988841 76.19376 
L 46.503376 77.66952 
L 48.017911 77.74176 
L 49.532446 78.1752 
L 51.046981 79.5684 
L 52.561516 80.8068 
L 54.076051 85.20312 
L 55.590586 84.12984 
L 57.105121 84.03696 
L 58.619656 84.06792 
L 60.134191 84.3156 
L 61.648726 87.02976 
L 63.163261 85.21344 
L 64.677796 84.28464 
L 66.192331 84.32592 
L 67.706866 89.08344 
L 69.221401 89.5272 
L 70.735936 95.14128 
L 72.250472 96.98856 
L 73.765007 95.08968 
L 75.043614 97.71096 
L 76.247196 99.80592 
L 77.76096 101.79768 
L 79.269009 100.03296 
L 80.818165 100.518 
L 82.320201 99.98136 
L 83.843378 100.49736 
L 88.377938 101.26104 
L 89.87426 100.63152 
L 91.308879 100.38384 
L 92.920562 100.84824 
L 94.244851 100.65216 
L 95.94723 101.034 
L 97.459925 101.19912 
L 102.002723 100.91016 
L 103.521816 101.7564 
L 104.908405 101.84928 
L 106.545435 101.56032 
L 108.053221 100.85856 
L 111.061571 101.4468 
L 112.610516 101.02368 
L 114.109415 101.30232 
L 115.627474 100.81728 
L 117.133525 100.79664 
L 118.65132 99.3312 
L 120.165136 99.92976 
L 121.668049 100.78632 
L 123.197292 101.17848 
L 124.716367 101.1372 
L 126.221173 100.21872 
L 129.255607 100.4664 
L 130.767215 99.88848 
L 132.279734 99.94008 
L 133.823245 99.81624 
L 135.342057 98.93904 
L 136.830088 98.3508 
L 138.356175 98.52624 
L 139.87113 99.78528 
L 141.370923 100.12584 
L 142.876588 100.03296 
L 145.931865 100.83792 
L 147.432376 100.11552 
L 149.059713 99.87816 
L 150.47987 100.002 
L 151.996316 100.64184 
L 153.496371 101.41584 
L 155.031538 101.21976 
L 158.055385 101.00304 
L 159.582909 100.86888 
L 161.077496 101.21976 
L 162.593766 101.28168 
L 165.63267 101.14752 
L 167.151114 100.55928 
L 168.655815 100.65216 
L 170.172804 99.80592 
L 171.682063 99.96072 
L 173.210534 99.6408 
L 174.701913 99.1764 
L 176.243618 99.70272 
L 177.765919 99.94008 
L 179.270813 98.57784 
L 180.784191 98.65008 
L 182.305282 98.38176 
L 183.816732 98.48496 
L 185.314561 96.70992 
L 186.849097 98.05152 
L 188.367384 98.48496 
L 189.875275 97.96896 
L 191.385112 96.32808 
L 194.424332 96.16296 
L 195.920794 96.1836 
L 197.458889 96.50352 
L 198.989743 94.76976 
L 200.507451 97.19496 
L 202.017849 96.9576 
L 203.534926 97.9896 
L 205.066009 96.89568 
L 206.541892 95.45088 
L 208.087173 95.67792 
L 209.601182 93.43848 
L 212.623574 92.25168 
L 214.138512 92.87088 
L 215.62784 94.2744 
L 217.147914 93.1392 
L 218.692968 92.97408 
L 220.219458 92.9844 
L 221.712958 92.60256 
L 223.234697 92.53032 
L 224.747549 94.54272 
L 226.269552 92.85024 
L 227.764752 94.82136 
L 229.3019 95.75016 
L 230.831142 96.97824 
L 233.854778 97.23624 
L 235.377938 95.94624 
L 236.880868 96.30744 
L 238.374596 98.08248 
L 239.913111 97.2672 
L 241.447577 96.61704 
L 242.939166 97.23624 
L 244.46925 98.08248 
L 245.978947 99.18672 
L 247.494604 99.03192 
L 248.987297 99.1248 
L 250.532754 98.74296 
L 252.069691 99.09384 
L 253.569326 100.0536 
L 255.1009 101.23008 
L 256.610246 101.99376 
L 258.099837 102.08664 
L 259.591093 102.8916 
L 261.13818 102.45816 
L 264.145041 102.10728 
L 265.675282 102.582 
L 268.719182 102.08664 
L 270.222638 102.066 
L 271.748164 101.86992 
L 273.313044 101.48808 
L 274.836221 101.40552 
L 276.302515 101.4984 
L 277.809793 101.97312 
L 279.36 102.26208 
L 279.36 102.26208 
" clip-path="url(#pc897ae0324)" style="fill: none; stroke: #f5841e; stroke-width: 0.6"/>
   </g>
  </g>
 </g>
 <defs>
  <clipPath id="pc897ae0324">
   <rect x="8.64" y="4.8" width="270.72" height="103.2"/>
  </clipPath>
 </defs>
</svg>
