<?xml version="1.0" encoding="utf-8" standalone="no"?>
<!DOCTYPE svg PUBLIC "-//W3C//DTD SVG 1.1//EN"
  "http://www.w3.org/Graphics/SVG/1.1/DTD/svg11.dtd">
<svg xmlns:xlink="http://www.w3.org/1999/xlink" width="288pt" height="120pt" viewBox="0 0 288 120" xmlns="http://www.w3.org/2000/svg" version="1.1">
<desc id="nav-meta">{"window":"1m","count":4,"labels":["05.03","15.03","24.03","03.04"],"tick_utc":["2026-03-05T03:17:19Z","2026-03-15T03:42:35Z","2026-03-24T03:21:58Z","2026-04-03T03:37:13Z"],"w":720,"h":300}</desc>

 <metadata>
  <rdf:RDF xmlns:dc="http://purl.org/dc/elements/1.1/" xmlns:cc="http://creativecommons.org/ns#" xmlns:rdf="http://www.w3.org/1999/02/22-rdf-syntax-ns#">
   <cc:Work>
    <dc:type rdf:resource="http://purl.org/dc/dcmitype/StillImage"/>
    <dc:date>2026-04-03T07:46:07.406696</dc:date>
    <dc:format>image/svg+xml</dc:format>
    <dc:creator>
     <cc:Agent>
      <dc:title>Matplotlib v3.10.8, https://matplotlib.org/</dc:title>
     </cc:Agent>
    </dc:creator>
   </cc:Work>
  </rdf:RDF>
 </metadata>
 <defs>
  <style type="text/css">*{stroke-linejoin: round; stroke-linecap: butt}</style>
 </defs>
 <g id="figure_1">
  <g id="patch_1">
   <path d="M 0 120 
L 288 120 
L 288 0 
L 0 0 
L 0 120 
z
" style="fill: none; opacity: 0"/>
  </g>
  <g id="axes_1">
   <g id="patch_2">
    <path d="M 8.64 108 
L 279.36 108 
L 279.36 4.8 
L 8.64 4.8 
L 8.64 108 
z
" style="fill: none"/>
   </g>
   <g id="matplotlib.axis_1"/>
   <g id="matplotlib.axis_2"/>
   <g id="line2d_1">
    <path d="M 8.64 87.36 
L 279.36 87.36 
" clip-path="url(#pb9ec4a9375)" style="fill: none; stroke: #b2b2b2; stroke-opacity: 0.35; stroke-width: 0.5; stroke-linecap: square"/>
   </g>
   <g id="line2d_2">
    <path d="M 8.64 66.72 
L 279.36 66.72 
" clip-path="url(#pb9ec4a9375)" style="fill: none; stroke: #b2b2b2; stroke-opacity: 0.35; stroke-width: 0.5; stroke-linecap: square"/>
   </g>
   <g id="line2d_3">
    <path d="M 8.64 46.08 
L 279.36 46.08 
" clip-path="url(#pb9ec4a9375)" style="fill: none; stroke: #b2b2b2; stroke-opacity: 0.35; stroke-width: 0.5; stroke-linecap: square"/>
   </g>
   <g id="line2d_4">
    <path d="M 8.64 25.44 
L 279.36 25.44 
" clip-path="url(#pb9ec4a9375)" style="fill: none; stroke: #b2b2b2; stroke-opacity: 0.35; stroke-width: 0.5; stroke-linecap: square"/>
   </g>
   <g id="line2d_5">
    <path d="M 8.64 100.21872 
L 17.966298 100.53864 
L 27.225424 101.07528 
L 36.646757 101.38488 
L 46.005454 101.26104 
L 55.276243 100.78632 
L 64.603297 100.91016 
L 73.970741 100.99272 
L 83.283432 100.38384 
L 92.601739 100.50768 
L 102.11098 100.60056 
L 111.468057 99.76464 
L 120.635495 99.49632 
L 130.037389 99.40344 
L 139.370707 100.09488 
L 148.61061 100.3632 
L 157.886691 100.19808 
L 167.356946 100.47672 
L 176.709594 100.79664 
L 185.953925 100.26 
L 195.979596 99.83688 
L 204.728879 100.13616 
L 214.071377 100.80696 
L 223.312899 101.38488 
L 232.770735 101.3436 
L 242.128135 101.292 
L 251.400004 101.28168 
L 260.810754 101.28168 
L 270.018583 101.8596 
L 279.36 101.88024 
" clip-path="url(#pb9ec4a9375)" style="fill: none; stroke: #bebebe; stroke-width: 0.5; stroke-linecap: round"/>
   </g>
   <g id="line2d_6">
    <path d="M 8.64 88.0824 
L 17.966298 88.7532 
L 27.225424 90.16704 
L 36.646757 90.67272 
L 46.005454 90.18768 
L 55.276243 89.2692 
L 64.603297 89.54784 
L 73.970741 89.49624 
L 83.283432 88.31976 
L 92.601739 88.45392 
L 102.11098 88.46424 
L 111.468057 86.38992 
L 120.635495 84.80064 
L 130.037389 84.8316 
L 139.370707 86.586 
L 148.61061 87.74184 
L 157.886691 87.618 
L 167.356946 88.19592 
L 176.709594 89.08344 
L 185.953925 87.89664 
L 195.979596 87.3084 
L 204.728879 87.65928 
L 214.071377 88.96992 
L 223.312899 90.07416 
L 232.770735 89.76456 
L 242.128135 89.3724 
L 251.400004 89.00088 
L 260.810754 88.42296 
L 270.018583 88.81512 
L 279.36 89.10408 
" clip-path="url(#pb9ec4a9375)" style="fill: none; stroke: #4a8dff; stroke-width: 0.6"/>
   </g>
   <g id="line2d_7">
    <path d="M 8.64 99.3312 
L 17.966298 99.92976 
L 27.225424 100.78632 
L 36.646757 101.17848 
L 46.005454 101.1372 
L 55.276243 100.21872 
L 64.603297 100.37352 
L 73.970741 100.4664 
L 83.283432 99.88848 
L 92.601739 99.94008 
L 102.11098 99.81624 
L 111.468057 98.93904 
L 120.635495 98.3508 
L 130.037389 98.52624 
L 139.370707 99.78528 
L 148.61061 100.12584 
L 157.886691 100.03296 
L 167.356946 100.45608 
L 176.709594 100.83792 
L 185.953925 100.11552 
L 195.979596 99.87816 
L 204.728879 100.002 
L 214.071377 100.64184 
L 223.312899 101.41584 
L 232.770735 101.21976 
L 242.128135 101.14752 
L 251.400004 101.00304 
L 260.810754 100.86888 
L 270.018583 101.21976 
L 279.36 101.28168 
" clip-path="url(#pb9ec4a9375)" style="fill: none; stroke: #f5841e; stroke-width: 0.6"/>
   </g>
  </g>
 </g>
 <defs>
  <clipPath id="pb9ec4a9375">
   <rect x="8.64" y="4.8" width="270.72" height="103.2"/>
  </clipPath>
 </defs>
</svg>
