<?xml version="1.0" encoding="utf-8" standalone="no"?>
<!DOCTYPE svg PUBLIC "-//W3C//DTD SVG 1.1//EN"
  "http://www.w3.org/Graphics/SVG/1.1/DTD/svg11.dtd">
<svg xmlns:xlink="http://www.w3.org/1999/xlink" width="288pt" height="120pt" viewBox="0 0 288 120" xmlns="http://www.w3.org/2000/svg" version="1.1">
<desc id="nav-meta">{"window":"1m","count":4,"labels":["01.02","11.02","21.02","03.03"],"tick_utc":["2026-02-01T12:00:00Z","2026-02-11T03:39:24Z","2026-02-21T03:11:36Z","2026-03-03T03:22:17Z"],"w":720,"h":300}</desc>

 <metadata>
  <rdf:RDF xmlns:dc="http://purl.org/dc/elements/1.1/" xmlns:cc="http://creativecommons.org/ns#" xmlns:rdf="http://www.w3.org/1999/02/22-rdf-syntax-ns#">
   <cc:Work>
    <dc:type rdf:resource="http://purl.org/dc/dcmitype/StillImage"/>
    <dc:date>2026-03-03T03:22:18.822180</dc:date>
    <dc:format>image/svg+xml</dc:format>
    <dc:creator>
     <cc:Agent>
      <dc:title>Matplotlib v3.10.8, https://matplotlib.org/</dc:title>
     </cc:Agent>
    </dc:creator>
   </cc:Work>
  </rdf:RDF>
 </metadata>
 <defs>
  <style type="text/css">*{stroke-linejoin: round; stroke-linecap: butt}</style>
 </defs>
 <g id="figure_1">
  <g id="patch_1">
   <path d="M 0 120 
L 288 120 
L 288 0 
L 0 0 
L 0 120 
z
" style="fill: none; opacity: 0"/>
  </g>
  <g id="axes_1">
   <g id="patch_2">
    <path d="M 8.64 108 
L 279.36 108 
L 279.36 4.8 
L 8.64 4.8 
L 8.64 108 
z
" style="fill: none"/>
   </g>
   <g id="matplotlib.axis_1"/>
   <g id="matplotlib.axis_2"/>
   <g id="line2d_1">
    <path d="M 8.64 87.36 
L 279.36 87.36 
" clip-path="url(#p6ea55e7662)" style="fill: none; stroke: #b2b2b2; stroke-opacity: 0.35; stroke-width: 0.5; stroke-linecap: square"/>
   </g>
   <g id="line2d_2">
    <path d="M 8.64 66.72 
L 279.36 66.72 
" clip-path="url(#p6ea55e7662)" style="fill: none; stroke: #b2b2b2; stroke-opacity: 0.35; stroke-width: 0.5; stroke-linecap: square"/>
   </g>
   <g id="line2d_3">
    <path d="M 8.64 46.08 
L 279.36 46.08 
" clip-path="url(#p6ea55e7662)" style="fill: none; stroke: #b2b2b2; stroke-opacity: 0.35; stroke-width: 0.5; stroke-linecap: square"/>
   </g>
   <g id="line2d_4">
    <path d="M 8.64 25.44 
L 279.36 25.44 
" clip-path="url(#p6ea55e7662)" style="fill: none; stroke: #b2b2b2; stroke-opacity: 0.35; stroke-width: 0.5; stroke-linecap: square"/>
   </g>
   <g id="line2d_5">
    <path d="M 8.64 97.71096 
L 17.773457 98.48496 
L 26.906914 97.85544 
L 34.617603 99.10416 
L 41.875847 100.16712 
L 51.004652 102.23112 
L 60.098996 100.54896 
L 69.441233 100.70376 
L 78.499318 100.68312 
L 87.684891 100.95144 
L 96.799425 101.28168 
L 105.900006 101.71512 
L 115.030715 101.84928 
L 124.054338 101.034 
L 132.705857 100.54896 
L 142.425166 101.04432 
L 150.411338 100.81728 
L 160.677597 101.034 
L 169.799955 101.4984 
L 178.880027 101.33328 
L 187.957669 101.1372 
L 197.195463 101.06496 
L 206.356405 102.09696 
L 214.718275 102.05568 
L 224.590443 101.4984 
L 233.683201 100.60056 
L 242.799321 100.80696 
L 251.825164 101.45712 
L 261.166132 100.55928 
L 270.205295 101.10624 
L 279.36 100.8792 
" clip-path="url(#p6ea55e7662)" style="fill: none; stroke: #bebebe; stroke-width: 0.5; stroke-linecap: round"/>
   </g>
   <g id="line2d_6">
    <path d="M 8.64 83.31456 
L 17.773457 85.90488 
L 26.906914 84.79032 
L 34.617603 85.84296 
L 41.875847 88.25784 
L 51.004652 91.41576 
L 60.098996 88.7532 
L 69.441233 88.65 
L 78.499318 88.55712 
L 87.684891 88.96992 
L 96.799425 89.7336 
L 105.900006 90.456 
L 115.030715 90.56952 
L 124.054338 89.15568 
L 132.705857 88.9596 
L 142.425166 90.6624 
L 150.411338 89.94 
L 160.677597 90.00192 
L 169.799955 90.3528 
L 178.880027 90.62112 
L 187.957669 90.5076 
L 197.195463 90.3528 
L 206.356405 92.004 
L 214.718275 92.13816 
L 224.590443 91.25064 
L 233.683201 89.166 
L 242.799321 89.56848 
L 251.825164 90.93072 
L 261.166132 89.41368 
L 270.205295 90.37344 
L 279.36 89.79552 
" clip-path="url(#p6ea55e7662)" style="fill: none; stroke: #4a8dff; stroke-width: 0.6"/>
   </g>
   <g id="line2d_7">
    <path d="M 8.64 95.14128 
L 17.773457 96.98856 
L 26.906914 95.08968 
L 34.617603 97.71096 
L 41.875847 99.80592 
L 51.004652 101.79768 
L 60.098996 100.03296 
L 69.441233 100.518 
L 78.499318 99.98136 
L 87.684891 100.49736 
L 96.799425 100.78632 
L 105.900006 101.07528 
L 115.030715 101.26104 
L 124.054338 100.63152 
L 132.705857 100.38384 
L 142.425166 100.84824 
L 150.411338 100.65216 
L 160.677597 101.034 
L 169.799955 101.19912 
L 178.880027 101.10624 
L 187.957669 100.97208 
L 197.195463 100.91016 
L 206.356405 101.7564 
L 214.718275 101.84928 
L 224.590443 101.56032 
L 233.683201 100.85856 
L 242.799321 101.12688 
L 251.825164 101.4468 
L 261.166132 101.02368 
L 270.205295 101.30232 
L 279.36 100.81728 
" clip-path="url(#p6ea55e7662)" style="fill: none; stroke: #f5841e; stroke-width: 0.6"/>
   </g>
  </g>
 </g>
 <defs>
  <clipPath id="p6ea55e7662">
   <rect x="8.64" y="4.8" width="270.72" height="103.2"/>
  </clipPath>
 </defs>
</svg>
