<?xml version="1.0" encoding="utf-8" standalone="no"?>
<!DOCTYPE svg PUBLIC "-//W3C//DTD SVG 1.1//EN"
  "http://www.w3.org/Graphics/SVG/1.1/DTD/svg11.dtd">
<svg xmlns:xlink="http://www.w3.org/1999/xlink" width="288pt" height="120pt" viewBox="0 0 288 120" xmlns="http://www.w3.org/2000/svg" version="1.1">
<desc id="nav-meta">{"window":"1m","count":4,"labels":["27.02","09.03","18.03","28.03"],"tick_utc":["2026-02-27T03:18:03Z","2026-03-09T03:23:53Z","2026-03-18T03:32:26Z","2026-03-28T03:27:32Z"],"w":720,"h":300}</desc>

 <metadata>
  <rdf:RDF xmlns:dc="http://purl.org/dc/elements/1.1/" xmlns:cc="http://creativecommons.org/ns#" xmlns:rdf="http://www.w3.org/1999/02/22-rdf-syntax-ns#">
   <cc:Work>
    <dc:type rdf:resource="http://purl.org/dc/dcmitype/StillImage"/>
    <dc:date>2026-03-28T13:37:20.530699</dc:date>
    <dc:format>image/svg+xml</dc:format>
    <dc:creator>
     <cc:Agent>
      <dc:title>Matplotlib v3.10.8, https://matplotlib.org/</dc:title>
     </cc:Agent>
    </dc:creator>
   </cc:Work>
  </rdf:RDF>
 </metadata>
 <defs>
  <style type="text/css">*{stroke-linejoin: round; stroke-linecap: butt}</style>
 </defs>
 <g id="figure_1">
  <g id="patch_1">
   <path d="M 0 120 
L 288 120 
L 288 0 
L 0 0 
L 0 120 
z
" style="fill: none; opacity: 0"/>
  </g>
  <g id="axes_1">
   <g id="patch_2">
    <path d="M 8.64 108 
L 279.36 108 
L 279.36 4.8 
L 8.64 4.8 
L 8.64 108 
z
" style="fill: none"/>
   </g>
   <g id="matplotlib.axis_1"/>
   <g id="matplotlib.axis_2"/>
   <g id="line2d_1">
    <path d="M 8.64 87.36 
L 279.36 87.36 
" clip-path="url(#p254312f07d)" style="fill: none; stroke: #b2b2b2; stroke-opacity: 0.35; stroke-width: 0.5; stroke-linecap: square"/>
   </g>
   <g id="line2d_2">
    <path d="M 8.64 66.72 
L 279.36 66.72 
" clip-path="url(#p254312f07d)" style="fill: none; stroke: #b2b2b2; stroke-opacity: 0.35; stroke-width: 0.5; stroke-linecap: square"/>
   </g>
   <g id="line2d_3">
    <path d="M 8.64 46.08 
L 279.36 46.08 
" clip-path="url(#p254312f07d)" style="fill: none; stroke: #b2b2b2; stroke-opacity: 0.35; stroke-width: 0.5; stroke-linecap: square"/>
   </g>
   <g id="line2d_4">
    <path d="M 8.64 25.44 
L 279.36 25.44 
" clip-path="url(#p254312f07d)" style="fill: none; stroke: #b2b2b2; stroke-opacity: 0.35; stroke-width: 0.5; stroke-linecap: square"/>
   </g>
   <g id="line2d_5">
    <path d="M 8.64 100.80696 
L 17.863087 101.45712 
L 27.408186 100.55928 
L 36.644884 101.10624 
L 45.999649 100.8792 
L 55.28042 100.74504 
L 64.633565 100.21872 
L 73.962189 100.53864 
L 83.223624 101.07528 
L 92.647307 101.38488 
L 102.008337 101.26104 
L 111.281438 100.78632 
L 120.610818 100.91016 
L 129.980599 100.99272 
L 139.295612 100.38384 
L 148.616242 100.50768 
L 158.127855 100.60056 
L 167.487265 99.76464 
L 176.65699 99.49632 
L 186.061229 99.40344 
L 195.396874 100.09488 
L 204.639081 100.3632 
L 213.917475 100.19808 
L 223.390092 100.47672 
L 232.745073 100.79664 
L 241.991709 100.26 
L 252.01988 99.83688 
L 260.771345 100.13616 
L 270.116173 100.80696 
L 279.36 101.38488 
" clip-path="url(#p254312f07d)" style="fill: none; stroke: #bebebe; stroke-width: 0.5; stroke-linecap: round"/>
   </g>
   <g id="line2d_6">
    <path d="M 8.64 89.56848 
L 17.863087 90.93072 
L 27.408186 89.41368 
L 36.644884 90.37344 
L 45.999649 89.79552 
L 55.28042 90.23928 
L 64.633565 88.0824 
L 73.962189 88.7532 
L 83.223624 90.16704 
L 92.647307 90.67272 
L 102.008337 90.18768 
L 111.281438 89.2692 
L 120.610818 89.54784 
L 129.980599 89.49624 
L 139.295612 88.31976 
L 148.616242 88.45392 
L 158.127855 88.46424 
L 167.487265 86.38992 
L 176.65699 84.80064 
L 186.061229 84.8316 
L 195.396874 86.586 
L 204.639081 87.74184 
L 213.917475 87.618 
L 223.390092 88.19592 
L 232.745073 89.08344 
L 241.991709 87.89664 
L 252.01988 87.3084 
L 260.771345 87.65928 
L 270.116173 88.96992 
L 279.36 90.07416 
" clip-path="url(#p254312f07d)" style="fill: none; stroke: #4a8dff; stroke-width: 0.6"/>
   </g>
   <g id="line2d_7">
    <path d="M 8.64 101.12688 
L 17.863087 101.4468 
L 27.408186 101.02368 
L 36.644884 101.30232 
L 45.999649 100.81728 
L 55.28042 100.79664 
L 64.633565 99.3312 
L 73.962189 99.92976 
L 83.223624 100.78632 
L 92.647307 101.17848 
L 102.008337 101.1372 
L 111.281438 100.21872 
L 120.610818 100.37352 
L 129.980599 100.4664 
L 139.295612 99.88848 
L 148.616242 99.94008 
L 158.127855 99.81624 
L 167.487265 98.93904 
L 176.65699 98.3508 
L 186.061229 98.52624 
L 195.396874 99.78528 
L 204.639081 100.12584 
L 213.917475 100.03296 
L 223.390092 100.45608 
L 232.745073 100.83792 
L 241.991709 100.11552 
L 252.01988 99.87816 
L 260.771345 100.002 
L 270.116173 100.64184 
L 279.36 101.41584 
" clip-path="url(#p254312f07d)" style="fill: none; stroke: #f5841e; stroke-width: 0.6"/>
   </g>
  </g>
 </g>
 <defs>
  <clipPath id="p254312f07d">
   <rect x="8.64" y="4.8" width="270.72" height="103.2"/>
  </clipPath>
 </defs>
</svg>
