<?xml version="1.0" encoding="utf-8" standalone="no"?>
<!DOCTYPE svg PUBLIC "-//W3C//DTD SVG 1.1//EN"
  "http://www.w3.org/Graphics/SVG/1.1/DTD/svg11.dtd">
<svg xmlns:xlink="http://www.w3.org/1999/xlink" width="288pt" height="120pt" viewBox="0 0 288 120" xmlns="http://www.w3.org/2000/svg" version="1.1">
<desc id="nav-meta">{"window":"3m","count":4,"labels":["18.02","20.03","18.04","18.05"],"tick_utc":["2026-02-18T03:30:34Z","2026-03-20T03:18:49Z","2026-04-18T03:39:51Z","2026-05-18T04:56:25Z"],"w":720,"h":300}</desc>

 <metadata>
  <rdf:RDF xmlns:dc="http://purl.org/dc/elements/1.1/" xmlns:cc="http://creativecommons.org/ns#" xmlns:rdf="http://www.w3.org/1999/02/22-rdf-syntax-ns#">
   <cc:Work>
    <dc:type rdf:resource="http://purl.org/dc/dcmitype/StillImage"/>
    <dc:date>2026-05-18T20:18:34.107445</dc:date>
    <dc:format>image/svg+xml</dc:format>
    <dc:creator>
     <cc:Agent>
      <dc:title>Matplotlib v3.10.9, https://matplotlib.org/</dc:title>
     </cc:Agent>
    </dc:creator>
   </cc:Work>
  </rdf:RDF>
 </metadata>
 <defs>
  <style type="text/css">*{stroke-linejoin: round; stroke-linecap: butt}</style>
 </defs>
 <g id="figure_1">
  <g id="patch_1">
   <path d="M 0 120 
L 288 120 
L 288 0 
L 0 0 
L 0 120 
z
" style="fill: none; opacity: 0"/>
  </g>
  <g id="axes_1">
   <g id="patch_2">
    <path d="M 8.64 108 
L 279.36 108 
L 279.36 4.8 
L 8.64 4.8 
L 8.64 108 
z
" style="fill: none"/>
   </g>
   <g id="matplotlib.axis_1"/>
   <g id="matplotlib.axis_2"/>
   <g id="line2d_1">
    <path d="M 8.64 87.36 
L 279.36 87.36 
" clip-path="url(#p5c352482bc)" style="fill: none; stroke: #b2b2b2; stroke-opacity: 0.35; stroke-width: 0.5; stroke-linecap: square"/>
   </g>
   <g id="line2d_2">
    <path d="M 8.64 66.72 
L 279.36 66.72 
" clip-path="url(#p5c352482bc)" style="fill: none; stroke: #b2b2b2; stroke-opacity: 0.35; stroke-width: 0.5; stroke-linecap: square"/>
   </g>
   <g id="line2d_3">
    <path d="M 8.64 46.08 
L 279.36 46.08 
" clip-path="url(#p5c352482bc)" style="fill: none; stroke: #b2b2b2; stroke-opacity: 0.35; stroke-width: 0.5; stroke-linecap: square"/>
   </g>
   <g id="line2d_4">
    <path d="M 8.64 25.44 
L 279.36 25.44 
" clip-path="url(#p5c352482bc)" style="fill: none; stroke: #b2b2b2; stroke-opacity: 0.35; stroke-width: 0.5; stroke-linecap: square"/>
   </g>
   <g id="line2d_5">
    <path d="M 8.64 101.034 
L 11.676067 101.4984 
L 14.698062 101.33328 
L 17.719247 101.1372 
L 20.793734 101.06496 
L 23.842642 102.09696 
L 26.625607 102.05568 
L 29.911224 101.4984 
L 32.93744 100.60056 
L 35.971432 100.80696 
L 38.975377 101.45712 
L 42.084202 100.55928 
L 45.092581 101.10624 
L 48.139414 100.8792 
L 51.162147 100.74504 
L 54.208453 100.21872 
L 57.246772 100.53864 
L 60.263207 101.07528 
L 63.332487 101.38488 
L 66.381361 101.26104 
L 69.401596 100.78632 
L 72.440161 100.91016 
L 75.491885 100.99272 
L 78.525771 100.38384 
L 81.561486 100.50768 
L 84.659405 100.60056 
L 87.707751 99.76464 
L 90.694316 99.49632 
L 93.757263 99.40344 
L 96.797869 100.09488 
L 99.808042 100.3632 
L 102.830001 100.19808 
L 105.915218 100.47672 
L 108.962122 100.79664 
L 111.973738 100.26 
L 115.239898 99.83688 
L 118.090237 100.13616 
L 121.133834 100.80696 
L 124.144535 101.38488 
L 127.225706 101.3436 
L 130.274157 101.292 
L 133.294744 101.28168 
L 136.360576 101.28168 
L 139.3603 101.8596 
L 142.403545 101.88024 
L 145.417271 101.72544 
L 148.502805 101.68416 
L 151.550412 101.47776 
L 154.570436 101.78736 
L 157.615124 101.09592 
L 160.644295 101.46744 
L 163.712027 101.3436 
L 166.705312 101.05464 
L 169.799606 101.3952 
L 172.854954 101.47776 
L 175.875365 100.86888 
L 178.912804 101.26104 
L 181.965724 100.99272 
L 184.999294 100.61088 
L 188.005526 100.44576 
L 191.085431 100.94112 
L 194.132722 101.09592 
L 197.159149 101.00304 
L 200.189482 100.69344 
L 203.241557 100.9308 
L 206.289375 100.92048 
L 209.292864 100.81728 
L 212.37991 100.8792 
L 215.452427 100.64184 
L 218.498556 101.1888 
L 221.530015 101.09592 
L 224.574878 101.37456 
L 227.647851 101.21976 
L 230.610036 101.20944 
L 233.711507 101.23008 
L 236.750213 100.92048 
L 239.723023 101.06496 
L 242.816332 100.70376 
L 245.856903 100.55928 
L 248.846072 100.53864 
L 251.896951 99.60984 
L 254.997965 99.72336 
L 258.061721 99.44472 
L 261.059264 99.25896 
L 264.113485 99.32088 
L 267.149869 100.22904 
L 270.204618 100.01232 
L 273.205574 100.43544 
L 276.29072 100.75536 
L 279.36 101.02368 
" clip-path="url(#p5c352482bc)" style="fill: none; stroke: #bebebe; stroke-width: 0.5; stroke-linecap: round"/>
   </g>
   <g id="line2d_6">
    <path d="M 8.64 90.00192 
L 11.676067 90.3528 
L 14.698062 90.62112 
L 17.719247 90.5076 
L 20.793734 90.3528 
L 23.842642 92.004 
L 26.625607 92.13816 
L 29.911224 91.25064 
L 32.93744 89.166 
L 35.971432 89.56848 
L 38.975377 90.93072 
L 42.084202 89.41368 
L 45.092581 90.37344 
L 48.139414 89.79552 
L 51.162147 90.23928 
L 54.208453 88.0824 
L 57.246772 88.7532 
L 60.263207 90.16704 
L 63.332487 90.67272 
L 66.381361 90.18768 
L 69.401596 89.2692 
L 72.440161 89.54784 
L 75.491885 89.49624 
L 78.525771 88.31976 
L 81.561486 88.45392 
L 84.659405 88.46424 
L 87.707751 86.38992 
L 90.694316 84.80064 
L 93.757263 84.8316 
L 96.797869 86.586 
L 99.808042 87.74184 
L 102.830001 87.618 
L 105.915218 88.19592 
L 108.962122 89.08344 
L 111.973738 87.89664 
L 115.239898 87.3084 
L 118.090237 87.65928 
L 121.133834 88.96992 
L 124.144535 90.07416 
L 127.225706 89.76456 
L 130.274157 89.3724 
L 133.294744 89.00088 
L 136.360576 88.42296 
L 139.3603 88.81512 
L 142.403545 89.10408 
L 145.417271 89.14536 
L 148.502805 89.07312 
L 151.550412 87.9792 
L 154.570436 88.29912 
L 157.615124 86.38992 
L 160.644295 87.24648 
L 163.712027 87.1536 
L 166.705312 86.21448 
L 169.799606 86.66856 
L 172.854954 87.01944 
L 175.875365 84.44976 
L 178.912804 85.05864 
L 181.965724 84.58392 
L 184.999294 85.04832 
L 188.005526 83.71704 
L 191.085431 84.86256 
L 194.132722 85.6572 
L 197.159149 85.27536 
L 200.189482 84.49104 
L 203.241557 84.86256 
L 206.289375 85.32696 
L 209.292864 85.17216 
L 212.37991 85.31664 
L 215.452427 84.11952 
L 218.498556 85.66752 
L 221.530015 85.26504 
L 224.574878 86.26608 
L 227.647851 85.77072 
L 230.610036 85.38888 
L 233.711507 85.3992 
L 236.750213 84.09888 
L 239.723023 84.22272 
L 242.816332 84.34656 
L 245.856903 85.06896 
L 248.846072 85.7604 
L 251.896951 85.0896 
L 254.997965 85.01736 
L 258.061721 84.9348 
L 261.059264 85.296 
L 264.113485 85.35792 
L 267.149869 86.1732 
L 270.204618 85.92552 
L 273.205574 86.55504 
L 276.29072 87.13296 
L 279.36 88.10304 
" clip-path="url(#p5c352482bc)" style="fill: none; stroke: #4a8dff; stroke-width: 0.6"/>
   </g>
   <g id="line2d_7">
    <path d="M 8.64 101.034 
L 11.676067 101.19912 
L 14.698062 101.10624 
L 17.719247 100.97208 
L 20.793734 100.91016 
L 23.842642 101.7564 
L 26.625607 101.84928 
L 29.911224 101.56032 
L 32.93744 100.85856 
L 35.971432 101.12688 
L 38.975377 101.4468 
L 42.084202 101.02368 
L 45.092581 101.30232 
L 48.139414 100.81728 
L 51.162147 100.79664 
L 54.208453 99.3312 
L 57.246772 99.92976 
L 60.263207 100.78632 
L 63.332487 101.17848 
L 66.381361 101.1372 
L 69.401596 100.21872 
L 72.440161 100.37352 
L 75.491885 100.4664 
L 78.525771 99.88848 
L 81.561486 99.94008 
L 84.659405 99.81624 
L 87.707751 98.93904 
L 90.694316 98.3508 
L 93.757263 98.52624 
L 96.797869 99.78528 
L 99.808042 100.12584 
L 102.830001 100.03296 
L 105.915218 100.45608 
L 108.962122 100.83792 
L 111.973738 100.11552 
L 115.239898 99.87816 
L 118.090237 100.002 
L 121.133834 100.64184 
L 124.144535 101.41584 
L 127.225706 101.21976 
L 130.274157 101.14752 
L 133.294744 101.00304 
L 136.360576 100.86888 
L 139.3603 101.21976 
L 142.403545 101.28168 
L 145.417271 101.20944 
L 148.502805 101.14752 
L 151.550412 100.55928 
L 154.570436 100.65216 
L 157.615124 99.80592 
L 160.644295 99.96072 
L 163.712027 99.6408 
L 166.705312 99.1764 
L 169.799606 99.70272 
L 172.854954 99.94008 
L 175.875365 98.57784 
L 178.912804 98.65008 
L 181.965724 98.38176 
L 184.999294 98.48496 
L 188.005526 96.70992 
L 191.085431 98.05152 
L 194.132722 98.48496 
L 197.159149 97.96896 
L 200.189482 96.32808 
L 203.241557 96.20424 
L 206.289375 96.16296 
L 209.292864 96.1836 
L 212.37991 96.50352 
L 215.452427 94.76976 
L 218.498556 97.19496 
L 221.530015 96.9576 
L 224.574878 97.9896 
L 227.647851 96.89568 
L 230.610036 95.45088 
L 233.711507 95.67792 
L 236.750213 93.43848 
L 239.723023 92.90184 
L 242.816332 92.25168 
L 245.856903 92.87088 
L 248.846072 94.2744 
L 251.896951 93.1392 
L 254.997965 92.97408 
L 258.061721 92.9844 
L 261.059264 92.60256 
L 264.113485 92.53032 
L 267.149869 94.54272 
L 270.204618 92.85024 
L 273.205574 94.82136 
L 276.29072 95.75016 
L 279.36 96.97824 
" clip-path="url(#p5c352482bc)" style="fill: none; stroke: #f5841e; stroke-width: 0.6"/>
   </g>
  </g>
 </g>
 <defs>
  <clipPath id="p5c352482bc">
   <rect x="8.64" y="4.8" width="270.72" height="103.2"/>
  </clipPath>
 </defs>
</svg>
