<?xml version="1.0" encoding="utf-8" standalone="no"?>
<!DOCTYPE svg PUBLIC "-//W3C//DTD SVG 1.1//EN"
  "http://www.w3.org/Graphics/SVG/1.1/DTD/svg11.dtd">
<svg xmlns:xlink="http://www.w3.org/1999/xlink" width="288pt" height="120pt" viewBox="0 0 288 120" xmlns="http://www.w3.org/2000/svg" version="1.1">
<desc id="nav-meta">{"window":"1m","count":4,"labels":["21.02","03.03","12.03","22.03"],"tick_utc":["2026-02-21T03:11:36Z","2026-03-03T03:22:17Z","2026-03-12T03:19:44Z","2026-03-22T03:31:55Z"],"w":720,"h":300}</desc>

 <metadata>
  <rdf:RDF xmlns:dc="http://purl.org/dc/elements/1.1/" xmlns:cc="http://creativecommons.org/ns#" xmlns:rdf="http://www.w3.org/1999/02/22-rdf-syntax-ns#">
   <cc:Work>
    <dc:type rdf:resource="http://purl.org/dc/dcmitype/StillImage"/>
    <dc:date>2026-03-22T03:31:57.972230</dc:date>
    <dc:format>image/svg+xml</dc:format>
    <dc:creator>
     <cc:Agent>
      <dc:title>Matplotlib v3.10.8, https://matplotlib.org/</dc:title>
     </cc:Agent>
    </dc:creator>
   </cc:Work>
  </rdf:RDF>
 </metadata>
 <defs>
  <style type="text/css">*{stroke-linejoin: round; stroke-linecap: butt}</style>
 </defs>
 <g id="figure_1">
  <g id="patch_1">
   <path d="M 0 120 
L 288 120 
L 288 0 
L 0 0 
L 0 120 
z
" style="fill: none; opacity: 0"/>
  </g>
  <g id="axes_1">
   <g id="patch_2">
    <path d="M 8.64 108 
L 279.36 108 
L 279.36 4.8 
L 8.64 4.8 
L 8.64 108 
z
" style="fill: none"/>
   </g>
   <g id="matplotlib.axis_1"/>
   <g id="matplotlib.axis_2"/>
   <g id="line2d_1">
    <path d="M 8.64 87.36 
L 279.36 87.36 
" clip-path="url(#pb1cef0e1d8)" style="fill: none; stroke: #b2b2b2; stroke-opacity: 0.35; stroke-width: 0.5; stroke-linecap: square"/>
   </g>
   <g id="line2d_2">
    <path d="M 8.64 66.72 
L 279.36 66.72 
" clip-path="url(#pb1cef0e1d8)" style="fill: none; stroke: #b2b2b2; stroke-opacity: 0.35; stroke-width: 0.5; stroke-linecap: square"/>
   </g>
   <g id="line2d_3">
    <path d="M 8.64 46.08 
L 279.36 46.08 
" clip-path="url(#pb1cef0e1d8)" style="fill: none; stroke: #b2b2b2; stroke-opacity: 0.35; stroke-width: 0.5; stroke-linecap: square"/>
   </g>
   <g id="line2d_4">
    <path d="M 8.64 25.44 
L 279.36 25.44 
" clip-path="url(#pb1cef0e1d8)" style="fill: none; stroke: #b2b2b2; stroke-opacity: 0.35; stroke-width: 0.5; stroke-linecap: square"/>
   </g>
   <g id="line2d_5">
    <path d="M 8.64 101.1372 
L 18.077222 101.06496 
L 27.435934 102.09696 
L 35.978323 102.05568 
L 46.063614 101.4984 
L 55.352669 100.60056 
L 64.665591 100.80696 
L 73.886287 101.45712 
L 83.428911 100.55928 
L 92.663214 101.10624 
L 102.015553 100.8792 
L 111.293918 100.74504 
L 120.644637 100.21872 
L 129.970843 100.53864 
L 139.229876 101.07528 
L 148.651115 101.38488 
L 158.009719 101.26104 
L 167.280415 100.78632 
L 176.607376 100.91016 
L 185.974727 100.99272 
L 195.287325 100.38384 
L 204.605539 100.50768 
L 214.114685 100.60056 
L 223.471668 99.76464 
L 232.639015 99.49632 
L 242.040816 99.40344 
L 251.374041 100.09488 
L 260.613851 100.3632 
L 269.88984 100.19808 
L 279.36 100.47672 
" clip-path="url(#pb1cef0e1d8)" style="fill: none; stroke: #bebebe; stroke-width: 0.5; stroke-linecap: round"/>
   </g>
   <g id="line2d_6">
    <path d="M 8.64 90.5076 
L 18.077222 90.3528 
L 27.435934 92.004 
L 35.978323 92.13816 
L 46.063614 91.25064 
L 55.352669 89.166 
L 64.665591 89.56848 
L 73.886287 90.93072 
L 83.428911 89.41368 
L 92.663214 90.37344 
L 102.015553 89.79552 
L 111.293918 90.23928 
L 120.644637 88.0824 
L 129.970843 88.7532 
L 139.229876 90.16704 
L 148.651115 90.67272 
L 158.009719 90.18768 
L 167.280415 89.2692 
L 176.607376 89.54784 
L 185.974727 89.49624 
L 195.287325 88.31976 
L 204.605539 88.45392 
L 214.114685 88.46424 
L 223.471668 86.38992 
L 232.639015 84.80064 
L 242.040816 84.8316 
L 251.374041 86.586 
L 260.613851 87.74184 
L 269.88984 87.618 
L 279.36 88.19592 
" clip-path="url(#pb1cef0e1d8)" style="fill: none; stroke: #4a8dff; stroke-width: 0.6"/>
   </g>
   <g id="line2d_7">
    <path d="M 8.64 100.97208 
L 18.077222 100.91016 
L 27.435934 101.7564 
L 35.978323 101.84928 
L 46.063614 101.56032 
L 55.352669 100.85856 
L 64.665591 101.12688 
L 73.886287 101.4468 
L 83.428911 101.02368 
L 92.663214 101.30232 
L 102.015553 100.81728 
L 111.293918 100.79664 
L 120.644637 99.3312 
L 129.970843 99.92976 
L 139.229876 100.78632 
L 148.651115 101.17848 
L 158.009719 101.1372 
L 167.280415 100.21872 
L 176.607376 100.37352 
L 185.974727 100.4664 
L 195.287325 99.88848 
L 204.605539 99.94008 
L 214.114685 99.81624 
L 223.471668 98.93904 
L 232.639015 98.3508 
L 242.040816 98.52624 
L 251.374041 99.78528 
L 260.613851 100.12584 
L 269.88984 100.03296 
L 279.36 100.45608 
" clip-path="url(#pb1cef0e1d8)" style="fill: none; stroke: #f5841e; stroke-width: 0.6"/>
   </g>
  </g>
 </g>
 <defs>
  <clipPath id="pb1cef0e1d8">
   <rect x="8.64" y="4.8" width="270.72" height="103.2"/>
  </clipPath>
 </defs>
</svg>
