<?xml version="1.0" encoding="utf-8" standalone="no"?>
<!DOCTYPE svg PUBLIC "-//W3C//DTD SVG 1.1//EN"
  "http://www.w3.org/Graphics/SVG/1.1/DTD/svg11.dtd">
<svg xmlns:xlink="http://www.w3.org/1999/xlink" width="288pt" height="120pt" viewBox="0 0 288 120" xmlns="http://www.w3.org/2000/svg" version="1.1">
<desc id="nav-meta">{"window":"1m","count":4,"labels":["14.04","24.04","03.05","13.05"],"tick_utc":["2026-04-14T03:53:32Z","2026-04-24T04:01:18Z","2026-05-03T04:31:45Z","2026-05-13T04:33:49Z"],"w":720,"h":300}</desc>

 <metadata>
  <rdf:RDF xmlns:dc="http://purl.org/dc/elements/1.1/" xmlns:cc="http://creativecommons.org/ns#" xmlns:rdf="http://www.w3.org/1999/02/22-rdf-syntax-ns#">
   <cc:Work>
    <dc:type rdf:resource="http://purl.org/dc/dcmitype/StillImage"/>
    <dc:date>2026-05-13T15:35:13.068854</dc:date>
    <dc:format>image/svg+xml</dc:format>
    <dc:creator>
     <cc:Agent>
      <dc:title>Matplotlib v3.10.9, https://matplotlib.org/</dc:title>
     </cc:Agent>
    </dc:creator>
   </cc:Work>
  </rdf:RDF>
 </metadata>
 <defs>
  <style type="text/css">*{stroke-linejoin: round; stroke-linecap: butt}</style>
 </defs>
 <g id="figure_1">
  <g id="patch_1">
   <path d="M 0 120 
L 288 120 
L 288 0 
L 0 0 
L 0 120 
z
" style="fill: none; opacity: 0"/>
  </g>
  <g id="axes_1">
   <g id="patch_2">
    <path d="M 8.64 108 
L 279.36 108 
L 279.36 4.8 
L 8.64 4.8 
L 8.64 108 
z
" style="fill: none"/>
   </g>
   <g id="matplotlib.axis_1"/>
   <g id="matplotlib.axis_2"/>
   <g id="line2d_1">
    <path d="M 8.64 87.36 
L 279.36 87.36 
" clip-path="url(#p11321b1f5e)" style="fill: none; stroke: #b2b2b2; stroke-opacity: 0.35; stroke-width: 0.5; stroke-linecap: square"/>
   </g>
   <g id="line2d_2">
    <path d="M 8.64 66.72 
L 279.36 66.72 
" clip-path="url(#p11321b1f5e)" style="fill: none; stroke: #b2b2b2; stroke-opacity: 0.35; stroke-width: 0.5; stroke-linecap: square"/>
   </g>
   <g id="line2d_3">
    <path d="M 8.64 46.08 
L 279.36 46.08 
" clip-path="url(#p11321b1f5e)" style="fill: none; stroke: #b2b2b2; stroke-opacity: 0.35; stroke-width: 0.5; stroke-linecap: square"/>
   </g>
   <g id="line2d_4">
    <path d="M 8.64 25.44 
L 279.36 25.44 
" clip-path="url(#p11321b1f5e)" style="fill: none; stroke: #b2b2b2; stroke-opacity: 0.35; stroke-width: 0.5; stroke-linecap: square"/>
   </g>
   <g id="line2d_5">
    <path d="M 8.64 100.86888 
L 17.959052 101.26104 
L 27.325598 100.99272 
L 36.632776 100.61088 
L 45.856084 100.44576 
L 55.305421 100.94112 
L 64.654697 101.09592 
L 73.939963 101.00304 
L 83.237211 100.69344 
L 92.601166 100.9308 
L 101.952061 100.92048 
L 111.166949 100.81728 
L 120.638199 100.8792 
L 130.064869 100.64184 
L 139.410582 101.1888 
L 148.711284 101.09592 
L 158.053112 101.37456 
L 167.481185 101.21976 
L 176.569349 101.20944 
L 186.084855 101.23008 
L 195.407793 100.92048 
L 204.528555 101.06496 
L 214.019019 100.70376 
L 223.347678 100.55928 
L 232.518633 100.53864 
L 241.878919 99.60984 
L 251.393022 99.72336 
L 260.792814 99.44472 
L 269.98946 99.25896 
L 279.36 99.32088 
" clip-path="url(#p11321b1f5e)" style="fill: none; stroke: #bebebe; stroke-width: 0.5; stroke-linecap: round"/>
   </g>
   <g id="line2d_6">
    <path d="M 8.64 84.44976 
L 17.959052 85.05864 
L 27.325598 84.58392 
L 36.632776 85.04832 
L 45.856084 83.71704 
L 55.305421 84.86256 
L 64.654697 85.6572 
L 73.939963 85.27536 
L 83.237211 84.49104 
L 92.601166 84.86256 
L 101.952061 85.32696 
L 111.166949 85.17216 
L 120.638199 85.31664 
L 130.064869 84.11952 
L 139.410582 85.66752 
L 148.711284 85.26504 
L 158.053112 86.26608 
L 167.481185 85.77072 
L 176.569349 85.38888 
L 186.084855 85.3992 
L 195.407793 84.09888 
L 204.528555 84.22272 
L 214.019019 84.34656 
L 223.347678 85.06896 
L 232.518633 85.7604 
L 241.878919 85.0896 
L 251.393022 85.01736 
L 260.792814 84.9348 
L 269.98946 85.296 
L 279.36 85.35792 
" clip-path="url(#p11321b1f5e)" style="fill: none; stroke: #4a8dff; stroke-width: 0.6"/>
   </g>
   <g id="line2d_7">
    <path d="M 8.64 98.57784 
L 17.959052 98.65008 
L 27.325598 98.38176 
L 36.632776 98.48496 
L 45.856084 96.70992 
L 55.305421 98.05152 
L 64.654697 98.48496 
L 73.939963 97.96896 
L 83.237211 96.32808 
L 92.601166 96.20424 
L 101.952061 96.16296 
L 111.166949 96.1836 
L 120.638199 96.50352 
L 130.064869 94.76976 
L 139.410582 97.19496 
L 148.711284 96.9576 
L 158.053112 97.9896 
L 167.481185 96.89568 
L 176.569349 95.45088 
L 186.084855 95.67792 
L 195.407793 93.43848 
L 204.528555 92.90184 
L 214.019019 92.25168 
L 223.347678 92.87088 
L 232.518633 94.2744 
L 241.878919 93.1392 
L 251.393022 92.97408 
L 260.792814 92.9844 
L 269.98946 92.60256 
L 279.36 92.53032 
" clip-path="url(#p11321b1f5e)" style="fill: none; stroke: #f5841e; stroke-width: 0.6"/>
   </g>
  </g>
 </g>
 <defs>
  <clipPath id="p11321b1f5e">
   <rect x="8.64" y="4.8" width="270.72" height="103.2"/>
  </clipPath>
 </defs>
</svg>
