<?xml version="1.0" encoding="utf-8" standalone="no"?>
<!DOCTYPE svg PUBLIC "-//W3C//DTD SVG 1.1//EN"
  "http://www.w3.org/Graphics/SVG/1.1/DTD/svg11.dtd">
<svg xmlns:xlink="http://www.w3.org/1999/xlink" width="288pt" height="120pt" viewBox="0 0 288 120" xmlns="http://www.w3.org/2000/svg" version="1.1">
<desc id="nav-meta">{"window":"1m","count":4,"labels":["31.01","10.02","20.02","02.03"],"tick_utc":["2026-01-31T12:00:00Z","2026-02-10T03:42:23Z","2026-02-20T03:20:24Z","2026-03-02T03:18:56Z"],"w":720,"h":300}</desc>

 <metadata>
  <rdf:RDF xmlns:dc="http://purl.org/dc/elements/1.1/" xmlns:cc="http://creativecommons.org/ns#" xmlns:rdf="http://www.w3.org/1999/02/22-rdf-syntax-ns#">
   <cc:Work>
    <dc:type rdf:resource="http://purl.org/dc/dcmitype/StillImage"/>
    <dc:date>2026-03-02T03:18:59.108891</dc:date>
    <dc:format>image/svg+xml</dc:format>
    <dc:creator>
     <cc:Agent>
      <dc:title>Matplotlib v3.10.8, https://matplotlib.org/</dc:title>
     </cc:Agent>
    </dc:creator>
   </cc:Work>
  </rdf:RDF>
 </metadata>
 <defs>
  <style type="text/css">*{stroke-linejoin: round; stroke-linecap: butt}</style>
 </defs>
 <g id="figure_1">
  <g id="patch_1">
   <path d="M 0 120 
L 288 120 
L 288 0 
L 0 0 
L 0 120 
z
" style="fill: none; opacity: 0"/>
  </g>
  <g id="axes_1">
   <g id="patch_2">
    <path d="M 8.64 108 
L 279.36 108 
L 279.36 4.8 
L 8.64 4.8 
L 8.64 108 
z
" style="fill: none"/>
   </g>
   <g id="matplotlib.axis_1"/>
   <g id="matplotlib.axis_2"/>
   <g id="line2d_1">
    <path d="M 8.64 87.36 
L 279.36 87.36 
" clip-path="url(#p8f80d2e7ba)" style="fill: none; stroke: #b2b2b2; stroke-opacity: 0.35; stroke-width: 0.5; stroke-linecap: square"/>
   </g>
   <g id="line2d_2">
    <path d="M 8.64 66.72 
L 279.36 66.72 
" clip-path="url(#p8f80d2e7ba)" style="fill: none; stroke: #b2b2b2; stroke-opacity: 0.35; stroke-width: 0.5; stroke-linecap: square"/>
   </g>
   <g id="line2d_3">
    <path d="M 8.64 46.08 
L 279.36 46.08 
" clip-path="url(#p8f80d2e7ba)" style="fill: none; stroke: #b2b2b2; stroke-opacity: 0.35; stroke-width: 0.5; stroke-linecap: square"/>
   </g>
   <g id="line2d_4">
    <path d="M 8.64 25.44 
L 279.36 25.44 
" clip-path="url(#p8f80d2e7ba)" style="fill: none; stroke: #b2b2b2; stroke-opacity: 0.35; stroke-width: 0.5; stroke-linecap: square"/>
   </g>
   <g id="line2d_5">
    <path d="M 8.64 94.46016 
L 17.774174 97.71096 
L 26.908348 98.48496 
L 36.042522 97.85544 
L 43.753816 99.10416 
L 51.012629 100.16712 
L 60.142152 102.23112 
L 69.237209 100.54896 
L 78.580179 100.70376 
L 87.638975 100.68312 
L 96.825269 100.95144 
L 105.940519 101.28168 
L 115.041814 101.71512 
L 124.173239 101.84928 
L 133.197571 101.034 
L 141.849769 100.54896 
L 151.569841 101.04432 
L 159.55664 100.81728 
L 169.823705 101.034 
L 178.946779 101.4984 
L 188.027564 101.33328 
L 197.105918 101.1372 
L 206.344437 101.06496 
L 215.506098 102.09696 
L 223.868625 102.05568 
L 233.741567 101.4984 
L 242.835039 100.60056 
L 251.951875 100.80696 
L 260.978426 101.45712 
L 270.320128 100.55928 
L 279.36 101.10624 
" clip-path="url(#p8f80d2e7ba)" style="fill: none; stroke: #bebebe; stroke-width: 0.5; stroke-linecap: round"/>
   </g>
   <g id="line2d_6">
    <path d="M 8.64 79.48584 
L 17.774174 83.31456 
L 26.908348 85.90488 
L 36.042522 84.79032 
L 43.753816 85.84296 
L 51.012629 88.25784 
L 60.142152 91.41576 
L 69.237209 88.7532 
L 78.580179 88.65 
L 87.638975 88.55712 
L 96.825269 88.96992 
L 105.940519 89.7336 
L 115.041814 90.456 
L 124.173239 90.56952 
L 133.197571 89.15568 
L 141.849769 88.9596 
L 151.569841 90.6624 
L 159.55664 89.94 
L 169.823705 90.00192 
L 178.946779 90.3528 
L 188.027564 90.62112 
L 197.105918 90.5076 
L 206.344437 90.3528 
L 215.506098 92.004 
L 223.868625 92.13816 
L 233.741567 91.25064 
L 242.835039 89.166 
L 251.951875 89.56848 
L 260.978426 90.93072 
L 270.320128 89.41368 
L 279.36 90.37344 
" clip-path="url(#p8f80d2e7ba)" style="fill: none; stroke: #4a8dff; stroke-width: 0.6"/>
   </g>
   <g id="line2d_7">
    <path d="M 8.64 89.5272 
L 17.774174 95.14128 
L 26.908348 96.98856 
L 36.042522 95.08968 
L 43.753816 97.71096 
L 51.012629 99.80592 
L 60.142152 101.79768 
L 69.237209 100.03296 
L 78.580179 100.518 
L 87.638975 99.98136 
L 96.825269 100.49736 
L 105.940519 100.78632 
L 115.041814 101.07528 
L 124.173239 101.26104 
L 133.197571 100.63152 
L 141.849769 100.38384 
L 151.569841 100.84824 
L 159.55664 100.65216 
L 169.823705 101.034 
L 178.946779 101.19912 
L 188.027564 101.10624 
L 197.105918 100.97208 
L 206.344437 100.91016 
L 215.506098 101.7564 
L 223.868625 101.84928 
L 233.741567 101.56032 
L 242.835039 100.85856 
L 251.951875 101.12688 
L 260.978426 101.4468 
L 270.320128 101.02368 
L 279.36 101.30232 
" clip-path="url(#p8f80d2e7ba)" style="fill: none; stroke: #f5841e; stroke-width: 0.6"/>
   </g>
  </g>
 </g>
 <defs>
  <clipPath id="p8f80d2e7ba">
   <rect x="8.64" y="4.8" width="270.72" height="103.2"/>
  </clipPath>
 </defs>
</svg>
