<?xml version="1.0" encoding="utf-8" standalone="no"?>
<!DOCTYPE svg PUBLIC "-//W3C//DTD SVG 1.1//EN"
  "http://www.w3.org/Graphics/SVG/1.1/DTD/svg11.dtd">
<svg xmlns:xlink="http://www.w3.org/1999/xlink" width="288pt" height="120pt" viewBox="0 0 288 120" xmlns="http://www.w3.org/2000/svg" version="1.1">
<desc id="nav-meta">{"window":"1m","count":4,"labels":["21.03","31.03","09.04","19.04"],"tick_utc":["2026-03-21T03:10:23Z","2026-03-31T03:42:11Z","2026-04-09T03:38:15Z","2026-04-19T03:58:52Z"],"w":720,"h":300}</desc>

 <metadata>
  <rdf:RDF xmlns:dc="http://purl.org/dc/elements/1.1/" xmlns:cc="http://creativecommons.org/ns#" xmlns:rdf="http://www.w3.org/1999/02/22-rdf-syntax-ns#">
   <cc:Work>
    <dc:type rdf:resource="http://purl.org/dc/dcmitype/StillImage"/>
    <dc:date>2026-04-19T19:29:31.823360</dc:date>
    <dc:format>image/svg+xml</dc:format>
    <dc:creator>
     <cc:Agent>
      <dc:title>Matplotlib v3.10.8, https://matplotlib.org/</dc:title>
     </cc:Agent>
    </dc:creator>
   </cc:Work>
  </rdf:RDF>
 </metadata>
 <defs>
  <style type="text/css">*{stroke-linejoin: round; stroke-linecap: butt}</style>
 </defs>
 <g id="figure_1">
  <g id="patch_1">
   <path d="M 0 120 
L 288 120 
L 288 0 
L 0 0 
L 0 120 
z
" style="fill: none; opacity: 0"/>
  </g>
  <g id="axes_1">
   <g id="patch_2">
    <path d="M 8.64 108 
L 279.36 108 
L 279.36 4.8 
L 8.64 4.8 
L 8.64 108 
z
" style="fill: none"/>
   </g>
   <g id="matplotlib.axis_1"/>
   <g id="matplotlib.axis_2"/>
   <g id="line2d_1">
    <path d="M 8.64 87.36 
L 279.36 87.36 
" clip-path="url(#pd4169cca60)" style="fill: none; stroke: #b2b2b2; stroke-opacity: 0.35; stroke-width: 0.5; stroke-linecap: square"/>
   </g>
   <g id="line2d_2">
    <path d="M 8.64 66.72 
L 279.36 66.72 
" clip-path="url(#pd4169cca60)" style="fill: none; stroke: #b2b2b2; stroke-opacity: 0.35; stroke-width: 0.5; stroke-linecap: square"/>
   </g>
   <g id="line2d_3">
    <path d="M 8.64 46.08 
L 279.36 46.08 
" clip-path="url(#pd4169cca60)" style="fill: none; stroke: #b2b2b2; stroke-opacity: 0.35; stroke-width: 0.5; stroke-linecap: square"/>
   </g>
   <g id="line2d_4">
    <path d="M 8.64 25.44 
L 279.36 25.44 
" clip-path="url(#pd4169cca60)" style="fill: none; stroke: #b2b2b2; stroke-opacity: 0.35; stroke-width: 0.5; stroke-linecap: square"/>
   </g>
   <g id="line2d_5">
    <path d="M 8.64 100.19808 
L 18.10378 100.47672 
L 27.450035 100.79664 
L 36.688045 100.26 
L 46.706862 99.83688 
L 55.450164 100.13616 
L 64.786274 100.80696 
L 74.021478 101.38488 
L 83.472848 101.3436 
L 92.823851 101.292 
L 102.089381 101.28168 
L 111.493697 101.28168 
L 120.69523 101.8596 
L 130.030261 101.88024 
L 139.274747 101.72544 
L 148.739499 101.68416 
L 158.087912 101.47776 
L 167.351715 101.78736 
L 176.691171 101.09592 
L 185.983034 101.46744 
L 195.393177 101.3436 
L 204.574961 101.05464 
L 214.066585 101.3952 
L 223.438741 101.47776 
L 232.703731 100.86888 
L 242.020955 101.26104 
L 251.385664 100.99272 
L 260.691017 100.61088 
L 269.912516 100.44576 
L 279.36 100.94112 
" clip-path="url(#pd4169cca60)" style="fill: none; stroke: #bebebe; stroke-width: 0.5; stroke-linecap: round"/>
   </g>
   <g id="line2d_6">
    <path d="M 8.64 87.618 
L 18.10378 88.19592 
L 27.450035 89.08344 
L 36.688045 87.89664 
L 46.706862 87.3084 
L 55.450164 87.65928 
L 64.786274 88.96992 
L 74.021478 90.07416 
L 83.472848 89.76456 
L 92.823851 89.3724 
L 102.089381 89.00088 
L 111.493697 88.42296 
L 120.69523 88.81512 
L 130.030261 89.10408 
L 139.274747 89.14536 
L 148.739499 89.07312 
L 158.087912 87.9792 
L 167.351715 88.29912 
L 176.691171 86.38992 
L 185.983034 87.24648 
L 195.393177 87.1536 
L 204.574961 86.21448 
L 214.066585 86.66856 
L 223.438741 87.01944 
L 232.703731 84.44976 
L 242.020955 85.05864 
L 251.385664 84.58392 
L 260.691017 85.04832 
L 269.912516 83.71704 
L 279.36 84.86256 
" clip-path="url(#pd4169cca60)" style="fill: none; stroke: #4a8dff; stroke-width: 0.6"/>
   </g>
   <g id="line2d_7">
    <path d="M 8.64 100.03296 
L 18.10378 100.45608 
L 27.450035 100.83792 
L 36.688045 100.11552 
L 46.706862 99.87816 
L 55.450164 100.002 
L 64.786274 100.64184 
L 74.021478 101.41584 
L 83.472848 101.21976 
L 92.823851 101.14752 
L 102.089381 101.00304 
L 111.493697 100.86888 
L 120.69523 101.21976 
L 130.030261 101.28168 
L 139.274747 101.20944 
L 148.739499 101.14752 
L 158.087912 100.55928 
L 167.351715 100.65216 
L 176.691171 99.80592 
L 185.983034 99.96072 
L 195.393177 99.6408 
L 204.574961 99.1764 
L 214.066585 99.70272 
L 223.438741 99.94008 
L 232.703731 98.57784 
L 242.020955 98.65008 
L 251.385664 98.38176 
L 260.691017 98.48496 
L 269.912516 96.70992 
L 279.36 98.05152 
" clip-path="url(#pd4169cca60)" style="fill: none; stroke: #f5841e; stroke-width: 0.6"/>
   </g>
  </g>
 </g>
 <defs>
  <clipPath id="pd4169cca60">
   <rect x="8.64" y="4.8" width="270.72" height="103.2"/>
  </clipPath>
 </defs>
</svg>
