<?xml version="1.0" encoding="utf-8" standalone="no"?>
<!DOCTYPE svg PUBLIC "-//W3C//DTD SVG 1.1//EN"
  "http://www.w3.org/Graphics/SVG/1.1/DTD/svg11.dtd">
<svg xmlns:xlink="http://www.w3.org/1999/xlink" width="288pt" height="120pt" viewBox="0 0 288 120" xmlns="http://www.w3.org/2000/svg" version="1.1">
<desc id="nav-meta">{"window":"1m","count":4,"labels":["23.01","02.02","12.02","22.02"],"tick_utc":["2026-01-23T12:00:00Z","2026-02-02T12:00:00Z","2026-02-12T03:34:13Z","2026-02-22T03:28:03Z"],"w":720,"h":300}</desc>

 <metadata>
  <rdf:RDF xmlns:dc="http://purl.org/dc/elements/1.1/" xmlns:cc="http://creativecommons.org/ns#" xmlns:rdf="http://www.w3.org/1999/02/22-rdf-syntax-ns#">
   <cc:Work>
    <dc:type rdf:resource="http://purl.org/dc/dcmitype/StillImage"/>
    <dc:date>2026-02-22T03:28:05.151810</dc:date>
    <dc:format>image/svg+xml</dc:format>
    <dc:creator>
     <cc:Agent>
      <dc:title>Matplotlib v3.10.8, https://matplotlib.org/</dc:title>
     </cc:Agent>
    </dc:creator>
   </cc:Work>
  </rdf:RDF>
 </metadata>
 <defs>
  <style type="text/css">*{stroke-linejoin: round; stroke-linecap: butt}</style>
 </defs>
 <g id="figure_1">
  <g id="patch_1">
   <path d="M 0 120 
L 288 120 
L 288 0 
L 0 0 
L 0 120 
z
" style="fill: none; opacity: 0"/>
  </g>
  <g id="axes_1">
   <g id="patch_2">
    <path d="M 8.64 108 
L 279.36 108 
L 279.36 4.8 
L 8.64 4.8 
L 8.64 108 
z
" style="fill: none"/>
   </g>
   <g id="matplotlib.axis_1"/>
   <g id="matplotlib.axis_2"/>
   <g id="line2d_1">
    <path d="M 8.64 87.36 
L 279.36 87.36 
" clip-path="url(#p6c574d9f4a)" style="fill: none; stroke: #b2b2b2; stroke-opacity: 0.35; stroke-width: 0.5; stroke-linecap: square"/>
   </g>
   <g id="line2d_2">
    <path d="M 8.64 66.72 
L 279.36 66.72 
" clip-path="url(#p6c574d9f4a)" style="fill: none; stroke: #b2b2b2; stroke-opacity: 0.35; stroke-width: 0.5; stroke-linecap: square"/>
   </g>
   <g id="line2d_3">
    <path d="M 8.64 46.08 
L 279.36 46.08 
" clip-path="url(#p6c574d9f4a)" style="fill: none; stroke: #b2b2b2; stroke-opacity: 0.35; stroke-width: 0.5; stroke-linecap: square"/>
   </g>
   <g id="line2d_4">
    <path d="M 8.64 25.44 
L 279.36 25.44 
" clip-path="url(#p6c574d9f4a)" style="fill: none; stroke: #b2b2b2; stroke-opacity: 0.35; stroke-width: 0.5; stroke-linecap: square"/>
   </g>
   <g id="line2d_5">
    <path d="M 8.64 91.46736 
L 17.772223 91.73568 
L 26.904446 91.78728 
L 36.03667 94.0164 
L 45.168893 92.5716 
L 54.301116 91.76664 
L 63.433339 92.33424 
L 72.565562 94.36728 
L 81.697785 94.46016 
L 90.830009 97.71096 
L 99.962232 98.48496 
L 109.094455 97.85544 
L 116.804102 99.10416 
L 124.061366 100.16712 
L 133.188938 102.23112 
L 142.282053 100.54896 
L 151.623028 100.70376 
L 160.679889 100.68312 
L 169.864221 100.95144 
L 178.977525 101.28168 
L 188.076876 101.71512 
L 197.206351 101.84928 
L 206.228755 101.034 
L 214.879106 100.54896 
L 224.597102 101.04432 
L 232.582195 100.81728 
L 242.847068 101.034 
L 251.968193 101.4984 
L 261.047039 101.33328 
L 270.123454 101.1372 
L 279.36 101.06496 
" clip-path="url(#p6c574d9f4a)" style="fill: none; stroke: #bebebe; stroke-width: 0.5; stroke-linecap: round"/>
   </g>
   <g id="line2d_6">
    <path d="M 8.64 75.83256 
L 17.772223 75.79128 
L 26.904446 75.82224 
L 36.03667 77.82432 
L 45.168893 76.14216 
L 54.301116 74.75928 
L 63.433339 74.96568 
L 72.565562 77.75208 
L 81.697785 79.48584 
L 90.830009 83.31456 
L 99.962232 85.90488 
L 109.094455 84.79032 
L 116.804102 85.84296 
L 124.061366 88.25784 
L 133.188938 91.41576 
L 142.282053 88.7532 
L 151.623028 88.65 
L 160.679889 88.55712 
L 169.864221 88.96992 
L 178.977525 89.7336 
L 188.076876 90.456 
L 197.206351 90.56952 
L 206.228755 89.15568 
L 214.879106 88.9596 
L 224.597102 90.6624 
L 232.582195 89.94 
L 242.847068 90.00192 
L 251.968193 90.3528 
L 261.047039 90.62112 
L 270.123454 90.5076 
L 279.36 90.3528 
" clip-path="url(#p6c574d9f4a)" style="fill: none; stroke: #4a8dff; stroke-width: 0.6"/>
   </g>
   <g id="line2d_7">
    <path d="M 8.64 84.03696 
L 17.772223 84.06792 
L 26.904446 84.3156 
L 36.03667 87.02976 
L 45.168893 85.21344 
L 54.301116 84.28464 
L 63.433339 84.32592 
L 72.565562 89.08344 
L 81.697785 89.5272 
L 90.830009 95.14128 
L 99.962232 96.98856 
L 109.094455 95.08968 
L 116.804102 97.71096 
L 124.061366 99.80592 
L 133.188938 101.79768 
L 142.282053 100.03296 
L 151.623028 100.518 
L 160.679889 99.98136 
L 169.864221 100.49736 
L 178.977525 100.78632 
L 188.076876 101.07528 
L 197.206351 101.26104 
L 206.228755 100.63152 
L 214.879106 100.38384 
L 224.597102 100.84824 
L 232.582195 100.65216 
L 242.847068 101.034 
L 251.968193 101.19912 
L 261.047039 101.10624 
L 270.123454 100.97208 
L 279.36 100.91016 
" clip-path="url(#p6c574d9f4a)" style="fill: none; stroke: #f5841e; stroke-width: 0.6"/>
   </g>
  </g>
 </g>
 <defs>
  <clipPath id="p6c574d9f4a">
   <rect x="8.64" y="4.8" width="270.72" height="103.2"/>
  </clipPath>
 </defs>
</svg>
