<?xml version="1.0" encoding="utf-8" standalone="no"?>
<!DOCTYPE svg PUBLIC "-//W3C//DTD SVG 1.1//EN"
  "http://www.w3.org/Graphics/SVG/1.1/DTD/svg11.dtd">
<svg xmlns:xlink="http://www.w3.org/1999/xlink" width="288pt" height="120pt" viewBox="0 0 288 120" xmlns="http://www.w3.org/2000/svg" version="1.1">
<desc id="nav-meta">{"window":"6m","count":4,"labels":["17.09","16.11","14.01","15.03"],"tick_utc":["2025-09-17T12:00:00Z","2025-11-16T12:00:00Z","2026-01-14T12:00:00Z","2026-03-15T03:42:35Z"],"w":720,"h":300}</desc>

 <metadata>
  <rdf:RDF xmlns:dc="http://purl.org/dc/elements/1.1/" xmlns:cc="http://creativecommons.org/ns#" xmlns:rdf="http://www.w3.org/1999/02/22-rdf-syntax-ns#">
   <cc:Work>
    <dc:type rdf:resource="http://purl.org/dc/dcmitype/StillImage"/>
    <dc:date>2026-03-15T19:16:07.390083</dc:date>
    <dc:format>image/svg+xml</dc:format>
    <dc:creator>
     <cc:Agent>
      <dc:title>Matplotlib v3.10.8, https://matplotlib.org/</dc:title>
     </cc:Agent>
    </dc:creator>
   </cc:Work>
  </rdf:RDF>
 </metadata>
 <defs>
  <style type="text/css">*{stroke-linejoin: round; stroke-linecap: butt}</style>
 </defs>
 <g id="figure_1">
  <g id="patch_1">
   <path d="M 0 120 
L 288 120 
L 288 0 
L 0 0 
L 0 120 
z
" style="fill: none; opacity: 0"/>
  </g>
  <g id="axes_1">
   <g id="patch_2">
    <path d="M 8.64 108 
L 279.36 108 
L 279.36 4.8 
L 8.64 4.8 
L 8.64 108 
z
" style="fill: none"/>
   </g>
   <g id="matplotlib.axis_1"/>
   <g id="matplotlib.axis_2"/>
   <g id="line2d_1">
    <path d="M 8.64 87.36 
L 279.36 87.36 
" clip-path="url(#pb200af40ee)" style="fill: none; stroke: #b2b2b2; stroke-opacity: 0.35; stroke-width: 0.5; stroke-linecap: square"/>
   </g>
   <g id="line2d_2">
    <path d="M 8.64 66.72 
L 279.36 66.72 
" clip-path="url(#pb200af40ee)" style="fill: none; stroke: #b2b2b2; stroke-opacity: 0.35; stroke-width: 0.5; stroke-linecap: square"/>
   </g>
   <g id="line2d_3">
    <path d="M 8.64 46.08 
L 279.36 46.08 
" clip-path="url(#pb200af40ee)" style="fill: none; stroke: #b2b2b2; stroke-opacity: 0.35; stroke-width: 0.5; stroke-linecap: square"/>
   </g>
   <g id="line2d_4">
    <path d="M 8.64 25.44 
L 279.36 25.44 
" clip-path="url(#pb200af40ee)" style="fill: none; stroke: #b2b2b2; stroke-opacity: 0.35; stroke-width: 0.5; stroke-linecap: square"/>
   </g>
   <g id="line2d_5">
    <path d="M 8.64 61.74576 
L 10.155326 59.57856 
L 11.670653 58.86648 
L 13.185979 61.38456 
L 14.701306 61.07496 
L 16.216632 61.83864 
L 17.731959 66.29688 
L 19.247285 67.97904 
L 20.762612 68.69112 
L 22.277938 73.9956 
L 23.793265 70.45584 
L 25.308591 70.87896 
L 26.823918 68.91816 
L 28.339244 68.3196 
L 29.85457 69.47544 
L 32.885223 62.39592 
L 34.40055 62.81904 
L 35.915876 64.22256 
L 37.431203 64.05744 
L 38.946529 62.9532 
L 40.461856 66.14208 
L 41.977182 63.91296 
L 43.492509 66.17304 
L 45.007835 74.6148 
L 46.523162 77.78304 
L 48.038488 72.66432 
L 49.553814 69.69216 
L 51.069141 71.09568 
L 54.099794 76.06992 
L 55.61512 76.76136 
L 57.130447 75.25464 
L 58.645773 75.24432 
L 60.1611 74.63544 
L 61.676426 75.73968 
L 63.191753 77.31864 
L 64.707079 74.202 
L 66.222406 73.64472 
L 67.737732 73.48992 
L 69.253058 71.83872 
L 70.768385 72.17928 
L 72.283711 73.38672 
L 73.799038 73.43832 
L 75.314364 76.15248 
L 76.829691 75.3372 
L 78.345017 75.58488 
L 79.860344 75.35784 
L 81.37567 81.168 
L 82.890997 84.01632 
L 84.406323 82.06584 
L 85.92165 84.19176 
L 87.436976 82.27224 
L 88.952302 83.29392 
L 90.467629 81.62208 
L 91.982955 80.72424 
L 93.498282 84.33624 
L 95.013608 84.64584 
L 96.528935 86.844 
L 98.044261 88.52616 
L 99.559588 88.36104 
L 101.074914 88.93896 
L 102.590241 90.79656 
L 104.105567 88.09272 
L 105.620894 89.22792 
L 107.13622 90.00192 
L 108.651546 91.39512 
L 110.166873 91.63248 
L 111.682199 90.75528 
L 113.197526 88.7016 
L 114.712852 88.52616 
L 116.228179 87.45288 
L 117.743505 88.0308 
L 119.258832 88.94928 
L 122.289485 89.7336 
L 123.804811 91.86984 
L 125.320138 88.60872 
L 126.835464 86.87496 
L 129.866117 90.11544 
L 131.381443 90.38376 
L 132.89677 90.53856 
L 134.412096 90.08448 
L 135.927423 88.79448 
L 137.442749 89.20728 
L 138.958076 89.22792 
L 140.473402 90.31152 
L 141.988729 90.10512 
L 143.504055 91.09584 
L 145.019382 91.61184 
L 146.534708 91.31256 
L 148.050034 92.87088 
L 149.565361 93.8616 
L 151.080687 92.02464 
L 152.596014 92.13816 
L 154.11134 92.07624 
L 155.626667 92.14848 
L 157.141993 92.64384 
L 158.65732 93.01536 
L 160.172646 93.69648 
L 163.203299 92.44776 
L 164.718626 92.30328 
L 166.233952 92.87088 
L 167.749278 92.38584 
L 169.264605 92.47872 
L 170.779931 91.88016 
L 172.295258 90.42504 
L 173.810584 90.08448 
L 175.325911 89.92968 
L 176.841237 88.76352 
L 178.356564 87.94824 
L 179.87189 89.2692 
L 181.387217 88.72224 
L 182.902543 89.39304 
L 184.417869 89.40336 
L 185.933196 88.41264 
L 187.448522 88.4952 
L 188.963849 86.86464 
L 190.479175 86.42088 
L 191.994502 87.62832 
L 193.509828 86.93688 
L 195.025155 87.23616 
L 198.055808 90.0432 
L 199.571134 92.12784 
L 201.086461 91.16808 
L 204.117113 91.73568 
L 205.63244 91.78728 
L 207.147766 94.0164 
L 208.663093 92.5716 
L 210.178419 91.76664 
L 211.693746 92.33424 
L 213.209072 94.36728 
L 214.724399 94.46016 
L 216.239725 97.71096 
L 217.755052 98.48496 
L 219.270378 97.85544 
L 221.753865 100.16712 
L 223.26842 102.23112 
L 224.777257 100.54896 
L 226.327222 100.70376 
L 227.830043 100.68312 
L 230.866203 101.28168 
L 232.376075 101.71512 
L 233.890946 101.84928 
L 235.38805 101.034 
L 236.823418 100.54896 
L 238.435943 101.04432 
L 239.760924 100.81728 
L 241.464193 101.034 
L 242.977678 101.4984 
L 247.522851 101.06496 
L 249.042737 102.09696 
L 250.43005 102.05568 
L 252.067936 101.4984 
L 253.57651 100.60056 
L 255.08896 100.80696 
L 256.586432 101.45712 
L 258.136187 100.55928 
L 259.635869 101.10624 
L 262.661558 100.74504 
L 264.180147 100.21872 
L 265.694754 100.53864 
L 267.198453 101.07528 
L 268.728494 101.38488 
L 270.248363 101.26104 
L 271.753956 100.78632 
L 274.789975 100.99272 
L 276.302373 100.38384 
L 279.36 100.60056 
L 279.36 100.60056 
" clip-path="url(#pb200af40ee)" style="fill: none; stroke: #bebebe; stroke-width: 0.5; stroke-linecap: round"/>
   </g>
   <g id="line2d_6">
    <path d="M 8.64 52.74672 
L 10.155326 51.4464 
L 11.670653 51.46704 
L 13.185979 53.2524 
L 14.701306 53.08728 
L 16.216632 53.5104 
L 17.731959 57.26688 
L 19.247285 57.76224 
L 20.762612 58.02024 
L 22.277938 62.26176 
L 23.793265 59.68176 
L 25.308591 59.9604 
L 26.823918 58.12344 
L 28.339244 57.02952 
L 29.85457 58.09248 
L 31.369897 55.13064 
L 32.885223 53.046 
L 34.40055 52.5816 
L 35.915876 52.9944 
L 37.431203 52.5816 
L 38.946529 50.0016 
L 40.461856 53.48976 
L 41.977182 52.40616 
L 43.492509 54.75912 
L 45.007835 62.67456 
L 46.523162 63.95424 
L 48.038488 57.86544 
L 49.553814 56.57544 
L 51.069141 58.31952 
L 52.584467 60.4764 
L 54.099794 61.85928 
L 55.61512 62.73648 
L 57.130447 61.8696 
L 58.645773 60.45576 
L 60.1611 60.54864 
L 61.676426 62.04504 
L 63.191753 63.16992 
L 64.707079 62.36496 
L 66.222406 61.21944 
L 67.737732 60.9408 
L 69.253058 57.83448 
L 70.768385 58.40208 
L 72.283711 60.49704 
L 73.799038 61.75608 
L 75.314364 63.1596 
L 76.829691 62.49912 
L 78.345017 62.1276 
L 79.860344 61.56 
L 82.890997 70.66224 
L 84.406323 68.72208 
L 85.92165 70.4868 
L 87.436976 68.61888 
L 88.952302 69.11424 
L 90.467629 66.5136 
L 91.982955 66.68904 
L 93.498282 68.8872 
L 95.013608 68.9904 
L 96.528935 71.5704 
L 98.044261 73.48992 
L 99.559588 72.54048 
L 101.074914 73.56216 
L 102.590241 74.74896 
L 104.105567 73.3248 
L 105.620894 74.80056 
L 107.13622 77.556 
L 108.651546 78.55704 
L 110.166873 78.50544 
L 111.682199 78.04104 
L 113.197526 75.76032 
L 114.712852 75.73968 
L 116.228179 74.65608 
L 117.743505 74.83152 
L 119.258832 74.57352 
L 120.774158 75.20304 
L 122.289485 75.17208 
L 123.804811 78.05136 
L 126.835464 72.16896 
L 128.35079 73.08744 
L 129.866117 74.72832 
L 132.89677 74.28456 
L 134.412096 73.21128 
L 135.927423 70.2804 
L 137.442749 70.2288 
L 138.958076 71.56008 
L 140.473402 73.79952 
L 141.988729 73.35576 
L 143.504055 74.0988 
L 145.019382 75.5952 
L 146.534708 75.5952 
L 148.050034 77.61792 
L 149.565361 77.63856 
L 151.080687 75.40944 
L 152.596014 75.40944 
L 154.11134 75.04824 
L 155.626667 74.98632 
L 157.141993 75.58488 
L 158.65732 75.87384 
L 160.172646 76.49304 
L 163.203299 75.82224 
L 164.718626 75.84288 
L 166.233952 76.03896 
L 167.749278 75.51264 
L 169.264605 75.56424 
L 170.779931 75.05856 
L 172.295258 73.26288 
L 173.810584 73.20096 
L 175.325911 73.00488 
L 176.841237 71.68392 
L 178.356564 70.6932 
L 179.87189 72.62304 
L 181.387217 73.52088 
L 182.902543 73.83048 
L 184.417869 73.8408 
L 185.933196 73.29384 
L 187.448522 73.72728 
L 188.963849 70.32168 
L 190.479175 69.77472 
L 191.994502 70.34232 
L 193.509828 70.67256 
L 195.025155 70.51776 
L 196.540481 70.848 
L 198.055808 72.31344 
L 199.571134 76.01832 
L 201.086461 75.41976 
L 202.601787 75.83256 
L 205.63244 75.82224 
L 207.147766 77.82432 
L 208.663093 76.14216 
L 210.178419 74.75928 
L 211.693746 74.96568 
L 213.209072 77.75208 
L 214.724399 79.48584 
L 216.239725 83.31456 
L 217.755052 85.90488 
L 219.270378 84.79032 
L 220.549654 85.84296 
L 223.26842 91.41576 
L 224.777257 88.7532 
L 227.830043 88.55712 
L 229.354016 88.96992 
L 232.376075 90.456 
L 233.890946 90.56952 
L 235.38805 89.15568 
L 236.823418 88.9596 
L 238.435943 90.6624 
L 239.760924 89.94 
L 241.464193 90.00192 
L 244.484148 90.62112 
L 247.522851 90.3528 
L 249.042737 92.004 
L 250.43005 92.13816 
L 252.067936 91.25064 
L 253.57651 89.166 
L 255.08896 89.56848 
L 256.586432 90.93072 
L 258.136187 89.41368 
L 259.635869 90.37344 
L 261.154721 89.79552 
L 262.661558 90.23928 
L 264.180147 88.0824 
L 265.694754 88.7532 
L 267.198453 90.16704 
L 268.728494 90.67272 
L 270.248363 90.18768 
L 271.753956 89.2692 
L 273.268686 89.54784 
L 274.789975 89.49624 
L 276.302373 88.31976 
L 277.815682 88.45392 
L 279.36 88.46424 
L 279.36 88.46424 
" clip-path="url(#pb200af40ee)" style="fill: none; stroke: #4a8dff; stroke-width: 0.6"/>
   </g>
   <g id="line2d_7">
    <path d="M 8.64 55.7292 
L 10.155326 56.04912 
L 11.670653 55.33704 
L 13.185979 56.87472 
L 14.701306 56.8128 
L 16.216632 57.24624 
L 17.731959 59.93976 
L 19.247285 60.64152 
L 20.762612 59.29992 
L 22.277938 63.80976 
L 23.793265 63.03576 
L 25.308591 63.09768 
L 26.823918 60.51768 
L 28.339244 58.27824 
L 29.85457 58.5672 
L 31.369897 53.93352 
L 32.885223 51.74568 
L 34.40055 50.04288 
L 35.915876 49.90872 
L 37.431203 48.74256 
L 38.946529 47.43192 
L 40.461856 50.80656 
L 41.977182 48.90768 
L 43.492509 50.6208 
L 45.007835 59.42376 
L 46.523162 61.85928 
L 48.038488 57.35976 
L 49.553814 57.3288 
L 51.069141 59.46504 
L 54.099794 64.72824 
L 55.61512 66.42072 
L 57.130447 65.688 
L 58.645773 64.17096 
L 60.1611 62.10696 
L 61.676426 64.30512 
L 63.191753 65.20296 
L 64.707079 62.68488 
L 66.222406 61.70448 
L 67.737732 61.06464 
L 69.253058 58.1028 
L 70.768385 58.40208 
L 72.283711 59.68176 
L 73.799038 62.6952 
L 75.314364 64.56312 
L 76.829691 63.18024 
L 78.345017 62.72616 
L 79.860344 62.06568 
L 81.37567 66.33816 
L 82.890997 71.40528 
L 84.406323 69.08328 
L 85.92165 71.7252 
L 87.436976 69.57864 
L 88.952302 70.72416 
L 90.467629 68.2164 
L 91.982955 66.978 
L 93.498282 70.03272 
L 95.013608 71.5188 
L 96.528935 73.3764 
L 98.044261 78.846 
L 99.559588 77.75208 
L 101.074914 78.88728 
L 102.590241 81.34344 
L 104.105567 80.53848 
L 105.620894 82.0452 
L 107.13622 86.92656 
L 108.651546 88.58808 
L 110.166873 88.96992 
L 111.682199 86.7924 
L 113.197526 85.296 
L 114.712852 86.24544 
L 116.228179 82.96368 
L 117.743505 82.13808 
L 119.258832 82.47864 
L 120.774158 82.58184 
L 122.289485 83.03592 
L 123.804811 87.3084 
L 125.320138 82.06584 
L 126.835464 79.71288 
L 128.35079 81.24024 
L 129.866117 84.17112 
L 131.381443 84.24336 
L 132.89677 83.29392 
L 134.412096 82.8192 
L 135.927423 80.64168 
L 137.442749 81.38472 
L 138.958076 80.87904 
L 140.473402 83.13912 
L 141.988729 83.19072 
L 143.504055 85.296 
L 145.019382 87.17424 
L 146.534708 85.71912 
L 148.050034 87.53544 
L 149.565361 88.17528 
L 151.080687 85.41984 
L 154.11134 84.9348 
L 155.626667 85.01736 
L 157.141993 86.14224 
L 158.65732 85.90488 
L 160.172646 86.328 
L 161.687973 86.24544 
L 163.203299 85.72944 
L 164.718626 85.7088 
L 166.233952 86.40024 
L 167.749278 85.09992 
L 169.264605 86.02872 
L 172.295258 83.53128 
L 175.325911 82.03488 
L 176.841237 79.39296 
L 178.356564 79.66128 
L 179.87189 82.15872 
L 181.387217 82.43736 
L 182.902543 82.93272 
L 184.417869 83.00496 
L 187.448522 82.28256 
L 188.963849 78.01008 
L 190.479175 76.19376 
L 191.994502 77.66952 
L 193.509828 77.74176 
L 195.025155 78.1752 
L 196.540481 79.5684 
L 198.055808 80.8068 
L 199.571134 85.20312 
L 201.086461 84.12984 
L 202.601787 84.03696 
L 204.117113 84.06792 
L 205.63244 84.3156 
L 207.147766 87.02976 
L 208.663093 85.21344 
L 210.178419 84.28464 
L 211.693746 84.32592 
L 213.209072 89.08344 
L 214.724399 89.5272 
L 216.239725 95.14128 
L 217.755052 96.98856 
L 219.270378 95.08968 
L 220.549654 97.71096 
L 221.753865 99.80592 
L 223.26842 101.79768 
L 224.777257 100.03296 
L 226.327222 100.518 
L 227.830043 99.98136 
L 229.354016 100.49736 
L 233.890946 101.26104 
L 235.38805 100.63152 
L 236.823418 100.38384 
L 238.435943 100.84824 
L 239.760924 100.65216 
L 241.464193 101.034 
L 242.977678 101.19912 
L 247.522851 100.91016 
L 249.042737 101.7564 
L 250.43005 101.84928 
L 252.067936 101.56032 
L 253.57651 100.85856 
L 256.586432 101.4468 
L 258.136187 101.02368 
L 259.635869 101.30232 
L 261.154721 100.81728 
L 262.661558 100.79664 
L 264.180147 99.3312 
L 265.694754 99.92976 
L 267.198453 100.78632 
L 268.728494 101.17848 
L 270.248363 101.1372 
L 271.753956 100.21872 
L 274.789975 100.4664 
L 276.302373 99.88848 
L 277.815682 99.94008 
L 279.36 99.81624 
L 279.36 99.81624 
" clip-path="url(#pb200af40ee)" style="fill: none; stroke: #f5841e; stroke-width: 0.6"/>
   </g>
  </g>
 </g>
 <defs>
  <clipPath id="pb200af40ee">
   <rect x="8.64" y="4.8" width="270.72" height="103.2"/>
  </clipPath>
 </defs>
</svg>
