<?xml version="1.0" encoding="utf-8" standalone="no"?>
<!DOCTYPE svg PUBLIC "-//W3C//DTD SVG 1.1//EN"
  "http://www.w3.org/Graphics/SVG/1.1/DTD/svg11.dtd">
<svg xmlns:xlink="http://www.w3.org/1999/xlink" width="288pt" height="120pt" viewBox="0 0 288 120" xmlns="http://www.w3.org/2000/svg" version="1.1">
<desc id="nav-meta">{"window":"1y","count":4,"labels":["11.05","09.09","08.01","10.05"],"tick_utc":["2025-05-11T12:00:00Z","2025-09-09T12:00:00Z","2026-01-08T12:00:00Z","2026-05-10T04:35:36Z"],"w":720,"h":300}</desc>

 <metadata>
  <rdf:RDF xmlns:dc="http://purl.org/dc/elements/1.1/" xmlns:cc="http://creativecommons.org/ns#" xmlns:rdf="http://www.w3.org/1999/02/22-rdf-syntax-ns#">
   <cc:Work>
    <dc:type rdf:resource="http://purl.org/dc/dcmitype/StillImage"/>
    <dc:date>2026-05-10T19:44:31.711812</dc:date>
    <dc:format>image/svg+xml</dc:format>
    <dc:creator>
     <cc:Agent>
      <dc:title>Matplotlib v3.10.9, https://matplotlib.org/</dc:title>
     </cc:Agent>
    </dc:creator>
   </cc:Work>
  </rdf:RDF>
 </metadata>
 <defs>
  <style type="text/css">*{stroke-linejoin: round; stroke-linecap: butt}</style>
 </defs>
 <g id="figure_1">
  <g id="patch_1">
   <path d="M 0 120 
L 288 120 
L 288 0 
L 0 0 
L 0 120 
z
" style="fill: none; opacity: 0"/>
  </g>
  <g id="axes_1">
   <g id="patch_2">
    <path d="M 8.64 108 
L 279.36 108 
L 279.36 4.8 
L 8.64 4.8 
L 8.64 108 
z
" style="fill: none"/>
   </g>
   <g id="matplotlib.axis_1"/>
   <g id="matplotlib.axis_2"/>
   <g id="line2d_1">
    <path d="M 8.64 87.36 
L 279.36 87.36 
" clip-path="url(#p628b896a02)" style="fill: none; stroke: #b2b2b2; stroke-opacity: 0.35; stroke-width: 0.5; stroke-linecap: square"/>
   </g>
   <g id="line2d_2">
    <path d="M 8.64 66.72 
L 279.36 66.72 
" clip-path="url(#p628b896a02)" style="fill: none; stroke: #b2b2b2; stroke-opacity: 0.35; stroke-width: 0.5; stroke-linecap: square"/>
   </g>
   <g id="line2d_3">
    <path d="M 8.64 46.08 
L 279.36 46.08 
" clip-path="url(#p628b896a02)" style="fill: none; stroke: #b2b2b2; stroke-opacity: 0.35; stroke-width: 0.5; stroke-linecap: square"/>
   </g>
   <g id="line2d_4">
    <path d="M 8.64 25.44 
L 279.36 25.44 
" clip-path="url(#p628b896a02)" style="fill: none; stroke: #b2b2b2; stroke-opacity: 0.35; stroke-width: 0.5; stroke-linecap: square"/>
   </g>
   <g id="line2d_5">
    <path d="M 8.64 78.05136 
L 9.384367 79.26912 
L 10.128735 78.846 
L 10.873102 76.2144 
L 12.361837 80.394 
L 13.106204 80.66232 
L 13.850572 81.168 
L 14.594939 79.63032 
L 15.339306 80.95128 
L 16.083674 80.4972 
L 17.572408 77.43216 
L 18.316776 78.846 
L 19.061143 78.41256 
L 19.80551 78.64992 
L 20.549878 78.76344 
L 21.294245 78.25776 
L 22.038613 79.47552 
L 22.78298 80.92032 
L 23.527347 83.73768 
L 24.271715 83.6448 
L 25.016082 83.4384 
L 25.760449 83.61384 
L 26.504817 83.99568 
L 27.249184 84.55296 
L 27.993551 87.00912 
L 28.737919 85.98744 
L 29.482286 85.5024 
L 30.226654 84.8316 
L 30.971021 82.46832 
L 31.715388 81.426 
L 32.459756 82.5096 
L 33.204123 84.79032 
L 34.692858 86.95752 
L 35.437225 84.79032 
L 36.181592 85.13088 
L 36.92596 86.07 
L 37.670327 86.5344 
L 38.414695 86.31768 
L 39.903429 89.97096 
L 40.647797 90.48696 
L 41.392164 86.9472 
L 42.136531 86.66856 
L 42.880899 87.32904 
L 43.625266 88.53648 
L 44.369633 87.6696 
L 45.114001 85.30632 
L 45.858368 84.61488 
L 46.602735 84.17112 
L 47.347103 86.3796 
L 48.09147 84.92448 
L 48.835838 84.89352 
L 49.580205 86.13192 
L 50.324572 86.1732 
L 51.06894 84.99672 
L 51.813307 85.85328 
L 52.557674 85.01736 
L 53.302042 83.55192 
L 54.046409 81.7356 
L 54.790776 82.03488 
L 55.535144 82.65408 
L 57.023879 82.15872 
L 57.768246 81.70464 
L 58.512613 79.01112 
L 59.256981 78.39192 
L 60.001348 78.04104 
L 60.745715 78.16488 
L 61.490083 77.05032 
L 62.23445 72.82944 
L 62.978817 70.41456 
L 63.723185 74.69736 
L 64.467552 76.6272 
L 65.21192 75.63648 
L 65.956287 75.97704 
L 66.700654 74.976 
L 67.445022 76.49304 
L 68.189389 76.99872 
L 68.933756 77.90688 
L 69.678124 79.4652 
L 70.422491 82.02456 
L 71.166858 83.19072 
L 71.911226 82.27224 
L 72.655593 80.21856 
L 73.399961 81.67368 
L 74.144328 80.5488 
L 74.888695 78.588 
L 75.633063 78.19584 
L 76.37743 77.21544 
L 77.121797 76.524 
L 77.866165 78.68088 
L 78.610532 73.88208 
L 79.354899 71.364 
L 80.099267 73.8408 
L 80.843634 75.79128 
L 81.588002 74.65608 
L 82.332369 74.14008 
L 83.076736 76.50336 
L 83.821104 78.30936 
L 84.565471 75.3372 
L 85.309838 77.25672 
L 86.054206 71.78712 
L 86.798573 70.75512 
L 87.54294 70.24944 
L 88.287308 75.35784 
L 89.031675 72.95328 
L 89.776043 70.96152 
L 90.52041 67.87584 
L 91.264777 70.46616 
L 92.009145 71.11632 
L 92.753512 71.61168 
L 93.497879 72.7056 
L 94.242247 69.33096 
L 94.986614 68.9388 
L 95.730981 71.12664 
L 96.475349 70.90992 
L 97.219716 71.80776 
L 97.964084 70.074 
L 98.708451 68.01 
L 99.452818 67.10184 
L 100.197186 65.29584 
L 100.941553 64.01616 
L 101.68592 60.31128 
L 102.430288 60.19776 
L 103.174655 60.786 
L 103.919022 62.61264 
L 104.66339 61.74576 
L 105.407757 59.57856 
L 106.152125 58.86648 
L 106.896492 61.38456 
L 107.640859 61.07496 
L 108.385227 61.83864 
L 109.129594 66.29688 
L 109.873961 67.97904 
L 110.618329 68.69112 
L 111.362696 73.9956 
L 112.107063 70.45584 
L 112.851431 70.87896 
L 113.595798 68.91816 
L 114.340166 68.3196 
L 115.084533 69.47544 
L 116.573268 62.39592 
L 117.317635 62.81904 
L 118.062002 64.22256 
L 118.80637 64.05744 
L 119.550737 62.9532 
L 120.295104 66.14208 
L 121.039472 63.91296 
L 121.783839 66.17304 
L 122.528206 74.6148 
L 123.272574 77.78304 
L 124.016941 72.66432 
L 124.761309 69.69216 
L 125.505676 71.09568 
L 126.994411 76.06992 
L 127.738778 76.76136 
L 128.483145 75.25464 
L 129.227513 75.24432 
L 129.97188 74.63544 
L 130.716247 75.73968 
L 131.460615 77.31864 
L 132.204982 74.202 
L 132.94935 73.64472 
L 133.693717 73.48992 
L 134.438084 71.83872 
L 135.182452 72.17928 
L 135.926819 73.38672 
L 136.671186 73.43832 
L 137.415554 76.15248 
L 138.159921 75.3372 
L 138.904288 75.58488 
L 139.648656 75.35784 
L 140.393023 81.168 
L 141.137391 84.01632 
L 141.881758 82.06584 
L 142.626125 84.19176 
L 143.370493 82.27224 
L 144.11486 83.29392 
L 144.859227 81.62208 
L 145.603595 80.72424 
L 146.347962 84.33624 
L 147.092329 84.64584 
L 147.836697 86.844 
L 148.581064 88.52616 
L 149.325432 88.36104 
L 150.069799 88.93896 
L 150.814166 90.79656 
L 151.558534 88.09272 
L 152.302901 89.22792 
L 153.047268 90.00192 
L 153.791636 91.39512 
L 154.536003 91.63248 
L 155.28037 90.75528 
L 156.024738 88.7016 
L 156.769105 88.52616 
L 157.513473 87.45288 
L 158.25784 88.0308 
L 159.002207 88.94928 
L 160.490942 89.7336 
L 161.235309 91.86984 
L 161.979677 88.60872 
L 162.724044 86.87496 
L 164.212779 90.11544 
L 165.701514 90.53856 
L 166.445881 90.08448 
L 167.190248 88.79448 
L 167.934616 89.20728 
L 168.678983 89.22792 
L 169.42335 90.31152 
L 170.167718 90.10512 
L 170.912085 91.09584 
L 171.656452 91.61184 
L 172.40082 91.31256 
L 173.145187 92.87088 
L 173.889555 93.8616 
L 174.633922 92.02464 
L 175.378289 92.13816 
L 176.122657 92.07624 
L 176.867024 92.14848 
L 179.100126 93.69648 
L 180.588861 92.44776 
L 181.333228 92.30328 
L 182.077596 92.87088 
L 182.821963 92.38584 
L 183.56633 92.47872 
L 184.310698 91.88016 
L 185.055065 90.42504 
L 185.799432 90.08448 
L 186.5438 89.92968 
L 187.288167 88.76352 
L 188.032534 87.94824 
L 188.776902 89.2692 
L 189.521269 88.72224 
L 190.265637 89.39304 
L 191.010004 89.40336 
L 191.754371 88.41264 
L 192.498739 88.4952 
L 193.243106 86.86464 
L 193.987473 86.42088 
L 194.731841 87.62832 
L 195.476208 86.93688 
L 196.220575 87.23616 
L 197.70931 90.0432 
L 198.453677 92.12784 
L 199.198045 91.16808 
L 200.68678 91.73568 
L 201.431147 91.78728 
L 202.175514 94.0164 
L 202.919882 92.5716 
L 203.664249 91.76664 
L 204.408616 92.33424 
L 205.152984 94.36728 
L 205.897351 94.46016 
L 206.641718 97.71096 
L 207.386086 98.48496 
L 208.130453 97.85544 
L 209.350406 100.16712 
L 210.094394 102.23112 
L 210.835574 100.54896 
L 211.596957 100.70376 
L 212.335181 100.68312 
L 213.826621 101.28168 
L 214.568309 101.71512 
L 215.312452 101.84928 
L 216.047868 101.034 
L 216.752958 100.54896 
L 217.545072 101.04432 
L 218.195937 100.81728 
L 219.032626 101.034 
L 219.776089 101.4984 
L 222.008795 101.06496 
L 222.755402 102.09696 
L 223.436886 102.05568 
L 224.241458 101.4984 
L 224.982508 100.60056 
L 225.725463 100.80696 
L 226.46106 101.45712 
L 227.222339 100.55928 
L 227.959021 101.10624 
L 229.445318 100.74504 
L 230.191288 100.21872 
L 230.935302 100.53864 
L 231.673957 101.07528 
L 232.425553 101.38488 
L 233.172152 101.26104 
L 233.911737 100.78632 
L 235.403108 100.99272 
L 236.146037 100.38384 
L 237.648022 100.60056 
L 238.394492 99.76464 
L 239.125833 99.49632 
L 239.875878 99.40344 
L 240.620452 100.09488 
L 241.357574 100.3632 
L 242.097582 100.19808 
L 243.599196 100.79664 
L 244.336671 100.26 
L 245.136479 99.83688 
L 245.834461 100.13616 
L 247.317018 101.38488 
L 250.308445 101.28168 
L 251.043008 101.8596 
L 251.788228 101.88024 
L 252.52622 101.72544 
L 253.281796 101.68416 
L 254.028084 101.47776 
L 254.767619 101.78736 
L 255.513192 101.09592 
L 256.254966 101.46744 
L 257.006183 101.3436 
L 257.739169 101.05464 
L 258.496891 101.3952 
L 259.245074 101.47776 
L 259.984703 100.86888 
L 260.728502 101.26104 
L 262.9551 100.44576 
L 263.709297 100.94112 
L 264.455508 101.09592 
L 265.19661 101.00304 
L 265.938669 100.69344 
L 266.686051 100.9308 
L 268.923823 100.8792 
L 269.676211 100.64184 
L 270.422138 101.1888 
L 271.164472 101.09592 
L 271.910089 101.37456 
L 272.662589 101.21976 
L 274.147438 101.23008 
L 274.891547 100.92048 
L 275.61952 101.06496 
L 276.376999 100.70376 
L 277.121565 100.55928 
L 277.853543 100.53864 
L 278.600633 99.60984 
L 279.36 99.72336 
L 279.36 99.72336 
" clip-path="url(#p628b896a02)" style="fill: none; stroke: #bebebe; stroke-width: 0.5; stroke-linecap: round"/>
   </g>
   <g id="line2d_6">
    <path d="M 8.64 81.24024 
L 9.384367 82.37544 
L 10.128735 82.60248 
L 10.873102 79.86768 
L 12.361837 81.85944 
L 13.106204 81.82848 
L 13.850572 82.86048 
L 14.594939 83.00496 
L 15.339306 82.08648 
L 16.083674 82.12776 
L 16.828041 81.61176 
L 17.572408 80.15664 
L 18.316776 82.18968 
L 19.80551 81.79752 
L 20.549878 81.56016 
L 21.294245 80.0844 
L 22.038613 79.86768 
L 22.78298 80.50752 
L 23.527347 82.12776 
L 25.016082 81.92136 
L 25.760449 80.8584 
L 26.504817 81.07512 
L 27.249184 80.84808 
L 27.993551 83.6448 
L 28.737919 82.7676 
L 29.482286 82.0968 
L 30.226654 82.3548 
L 30.971021 79.74384 
L 31.715388 77.90688 
L 32.459756 78.39192 
L 33.204123 80.21856 
L 33.94849 81.34344 
L 34.692858 81.98328 
L 36.181592 81.5808 
L 36.92596 82.26192 
L 38.414695 82.15872 
L 39.159062 83.88216 
L 39.903429 85.89456 
L 40.647797 86.5344 
L 41.392164 83.61384 
L 42.136531 83.2836 
L 42.880899 83.71704 
L 43.625266 83.748 
L 45.114001 83.41776 
L 45.858368 82.44768 
L 46.602735 82.6644 
L 47.347103 83.89248 
L 48.09147 81.38472 
L 48.835838 81.14736 
L 49.580205 82.34448 
L 50.324572 82.23096 
L 51.06894 81.426 
L 51.813307 81.8388 
L 52.557674 80.76552 
L 54.046409 75.83256 
L 54.790776 75.67776 
L 55.535144 75.91512 
L 57.023879 74.88312 
L 57.768246 73.09776 
L 58.512613 69.6096 
L 59.256981 67.91712 
L 60.001348 66.94704 
L 60.745715 66.24528 
L 61.490083 63.80976 
L 62.23445 63.70656 
L 62.978817 63.9852 
L 63.723185 65.71896 
L 64.467552 64.5528 
L 65.956287 64.05744 
L 66.700654 62.25144 
L 67.445022 63.39696 
L 68.189389 63.366 
L 68.933756 63.08736 
L 69.678124 64.72824 
L 70.422491 67.89648 
L 71.166858 69.16584 
L 71.911226 67.69008 
L 72.655593 64.4496 
L 73.399961 65.97696 
L 74.144328 64.914 
L 74.888695 61.54968 
L 75.633063 60.04296 
L 76.37743 56.28648 
L 77.121797 56.47224 
L 77.866165 56.83344 
L 78.610532 51.22968 
L 79.354899 48.89736 
L 80.099267 52.00368 
L 80.843634 53.84064 
L 81.588002 53.90256 
L 82.332369 53.00472 
L 83.076736 55.5228 
L 83.821104 59.12448 
L 84.565471 55.32672 
L 85.309838 56.90568 
L 86.054206 47.92728 
L 86.798573 48.75288 
L 87.54294 48.68064 
L 88.287308 54.57336 
L 89.031675 51.2916 
L 89.776043 52.80864 
L 90.52041 52.69512 
L 91.264777 54.82104 
L 92.753512 54.45984 
L 93.497879 55.7292 
L 94.242247 55.39896 
L 94.986614 53.55168 
L 95.730981 55.81176 
L 96.475349 55.6776 
L 97.219716 56.18328 
L 97.964084 55.71888 
L 99.452818 55.63632 
L 100.197186 55.07904 
L 100.941553 53.41752 
L 101.68592 49.71264 
L 102.430288 50.32152 
L 103.174655 51.17808 
L 103.919022 52.44744 
L 104.66339 52.74672 
L 105.407757 51.4464 
L 106.152125 51.46704 
L 106.896492 53.2524 
L 107.640859 53.08728 
L 108.385227 53.5104 
L 109.129594 57.26688 
L 109.873961 57.76224 
L 110.618329 58.02024 
L 111.362696 62.26176 
L 112.107063 59.68176 
L 112.851431 59.9604 
L 113.595798 58.12344 
L 114.340166 57.02952 
L 115.084533 58.09248 
L 115.8289 55.13064 
L 116.573268 53.046 
L 117.317635 52.5816 
L 118.062002 52.9944 
L 118.80637 52.5816 
L 119.550737 50.0016 
L 120.295104 53.48976 
L 121.039472 52.40616 
L 121.783839 54.75912 
L 122.528206 62.67456 
L 123.272574 63.95424 
L 124.016941 57.86544 
L 124.761309 56.57544 
L 125.505676 58.31952 
L 126.250043 60.4764 
L 126.994411 61.85928 
L 127.738778 62.73648 
L 128.483145 61.8696 
L 129.227513 60.45576 
L 129.97188 60.54864 
L 130.716247 62.04504 
L 131.460615 63.16992 
L 132.204982 62.36496 
L 132.94935 61.21944 
L 133.693717 60.9408 
L 134.438084 57.83448 
L 135.182452 58.40208 
L 135.926819 60.49704 
L 137.415554 63.1596 
L 138.159921 62.49912 
L 138.904288 62.1276 
L 139.648656 61.56 
L 141.137391 70.66224 
L 141.881758 68.72208 
L 142.626125 70.4868 
L 143.370493 68.61888 
L 144.11486 69.11424 
L 144.859227 66.5136 
L 145.603595 66.68904 
L 146.347962 68.8872 
L 147.092329 68.9904 
L 147.836697 71.5704 
L 148.581064 73.48992 
L 149.325432 72.54048 
L 150.814166 74.74896 
L 151.558534 73.3248 
L 152.302901 74.80056 
L 153.047268 77.556 
L 153.791636 78.55704 
L 154.536003 78.50544 
L 155.28037 78.04104 
L 156.024738 75.76032 
L 156.769105 75.73968 
L 157.513473 74.65608 
L 158.25784 74.83152 
L 159.002207 74.57352 
L 159.746575 75.20304 
L 160.490942 75.17208 
L 161.235309 78.05136 
L 162.724044 72.16896 
L 163.468411 73.08744 
L 164.212779 74.72832 
L 165.701514 74.28456 
L 166.445881 73.21128 
L 167.190248 70.2804 
L 167.934616 70.2288 
L 168.678983 71.56008 
L 169.42335 73.79952 
L 170.167718 73.35576 
L 170.912085 74.0988 
L 171.656452 75.5952 
L 172.40082 75.5952 
L 173.145187 77.61792 
L 173.889555 77.63856 
L 174.633922 75.40944 
L 175.378289 75.40944 
L 176.122657 75.04824 
L 176.867024 74.98632 
L 177.611391 75.58488 
L 178.355759 75.87384 
L 179.100126 76.49304 
L 180.588861 75.82224 
L 181.333228 75.84288 
L 182.077596 76.03896 
L 182.821963 75.51264 
L 183.56633 75.56424 
L 184.310698 75.05856 
L 185.055065 73.26288 
L 185.799432 73.20096 
L 186.5438 73.00488 
L 187.288167 71.68392 
L 188.032534 70.6932 
L 188.776902 72.62304 
L 189.521269 73.52088 
L 190.265637 73.83048 
L 191.010004 73.8408 
L 191.754371 73.29384 
L 192.498739 73.72728 
L 193.243106 70.32168 
L 193.987473 69.77472 
L 194.731841 70.34232 
L 195.476208 70.67256 
L 196.220575 70.51776 
L 196.964943 70.848 
L 197.70931 72.31344 
L 198.453677 76.01832 
L 199.198045 75.41976 
L 199.942412 75.83256 
L 201.431147 75.82224 
L 202.175514 77.82432 
L 202.919882 76.14216 
L 203.664249 74.75928 
L 204.408616 74.96568 
L 205.152984 77.75208 
L 205.897351 79.48584 
L 206.641718 83.31456 
L 207.386086 85.90488 
L 208.130453 84.79032 
L 208.758866 85.84296 
L 210.094394 91.41576 
L 210.835574 88.7532 
L 212.335181 88.55712 
L 213.083796 88.96992 
L 214.568309 90.456 
L 215.312452 90.56952 
L 216.047868 89.15568 
L 216.752958 88.9596 
L 217.545072 90.6624 
L 218.195937 89.94 
L 219.032626 90.00192 
L 220.516106 90.62112 
L 222.008795 90.3528 
L 222.755402 92.004 
L 223.436886 92.13816 
L 224.241458 91.25064 
L 224.982508 89.166 
L 225.725463 89.56848 
L 226.46106 90.93072 
L 227.222339 89.41368 
L 227.959021 90.37344 
L 228.70512 89.79552 
L 229.445318 90.23928 
L 230.191288 88.0824 
L 230.935302 88.7532 
L 231.673957 90.16704 
L 232.425553 90.67272 
L 233.172152 90.18768 
L 233.911737 89.2692 
L 234.655812 89.54784 
L 235.403108 89.49624 
L 236.146037 88.31976 
L 236.889414 88.45392 
L 237.648022 88.46424 
L 238.394492 86.38992 
L 239.125833 84.80064 
L 239.875878 84.8316 
L 240.620452 86.586 
L 241.357574 87.74184 
L 242.097582 87.618 
L 242.85308 88.19592 
L 243.599196 89.08344 
L 244.336671 87.89664 
L 245.136479 87.3084 
L 245.834461 87.65928 
L 247.317018 90.07416 
L 248.818021 89.3724 
L 249.557693 89.00088 
L 250.308445 88.42296 
L 251.788228 89.10408 
L 252.52622 89.14536 
L 253.281796 89.07312 
L 254.028084 87.9792 
L 254.767619 88.29912 
L 255.513192 86.38992 
L 256.254966 87.24648 
L 257.006183 87.1536 
L 257.739169 86.21448 
L 259.245074 87.01944 
L 259.984703 84.44976 
L 260.728502 85.05864 
L 261.476092 84.58392 
L 262.218943 85.04832 
L 262.9551 83.71704 
L 263.709297 84.86256 
L 264.455508 85.6572 
L 265.19661 85.27536 
L 265.938669 84.49104 
L 267.432392 85.32696 
L 268.167877 85.17216 
L 268.923823 85.31664 
L 269.676211 84.11952 
L 270.422138 85.66752 
L 271.164472 85.26504 
L 271.910089 86.26608 
L 273.38796 85.38888 
L 274.147438 85.3992 
L 274.891547 84.09888 
L 276.376999 84.34656 
L 277.853543 85.7604 
L 278.600633 85.0896 
L 279.36 85.01736 
L 279.36 85.01736 
" clip-path="url(#p628b896a02)" style="fill: none; stroke: #4a8dff; stroke-width: 0.6"/>
   </g>
   <g id="line2d_7">
    <path d="M 8.64 68.29896 
L 9.384367 68.95944 
L 10.128735 70.11528 
L 10.873102 68.76336 
L 11.617469 69.37224 
L 12.361837 69.25872 
L 13.106204 69.41352 
L 13.850572 69.77472 
L 14.594939 66.85416 
L 15.339306 67.26696 
L 16.083674 66.06984 
L 16.828041 63.08736 
L 17.572408 61.12656 
L 18.316776 65.62608 
L 19.061143 64.98624 
L 19.80551 63.91296 
L 20.549878 63.38664 
L 21.294245 63.70656 
L 22.038613 64.97592 
L 22.78298 67.14312 
L 23.527347 68.9388 
L 24.271715 68.23704 
L 25.016082 67.1844 
L 25.760449 66.99864 
L 26.504817 67.47336 
L 27.249184 68.1132 
L 27.993551 71.38464 
L 28.737919 68.526 
L 29.482286 67.21536 
L 30.226654 67.20504 
L 30.971021 62.46816 
L 31.715388 62.51976 
L 32.459756 64.10904 
L 33.204123 66.90576 
L 33.94849 66.83352 
L 34.692858 67.42176 
L 35.437225 67.3392 
L 36.181592 65.8944 
L 36.92596 68.24736 
L 38.414695 68.23704 
L 39.159062 69.69216 
L 39.903429 71.50848 
L 40.647797 72.21024 
L 41.392164 67.3908 
L 42.136531 66.90576 
L 42.880899 65.59512 
L 43.625266 65.86344 
L 44.369633 65.76024 
L 45.114001 65.50224 
L 45.858368 64.398 
L 46.602735 65.70864 
L 47.347103 67.2876 
L 48.09147 63.95424 
L 48.835838 63.14928 
L 49.580205 64.76952 
L 50.324572 64.58376 
L 51.06894 63.55176 
L 51.813307 64.5012 
L 52.557674 63.82008 
L 53.302042 61.36392 
L 54.046409 56.64768 
L 54.790776 54.89328 
L 55.535144 55.04808 
L 56.279511 53.29368 
L 57.023879 52.55064 
L 57.768246 54.77976 
L 58.512613 53.67552 
L 59.256981 52.95312 
L 60.001348 54.45984 
L 60.745715 54.55272 
L 61.490083 55.22352 
L 62.23445 54.98616 
L 62.978817 52.4268 
L 63.723185 53.79936 
L 64.467552 54.08832 
L 65.21192 54.92424 
L 65.956287 54.4908 
L 66.700654 52.98408 
L 67.445022 54.44952 
L 68.189389 54.60432 
L 68.933756 54.62496 
L 70.422491 59.38248 
L 71.166858 60.09456 
L 71.911226 58.39176 
L 72.655593 57.41136 
L 73.399961 58.464 
L 74.144328 57.5352 
L 74.888695 55.0068 
L 75.633063 55.81176 
L 76.37743 55.99752 
L 77.121797 53.13888 
L 77.866165 53.64456 
L 78.610532 52.1688 
L 79.354899 48.69096 
L 80.099267 54.0264 
L 80.843634 55.13064 
L 81.588002 54.96552 
L 82.332369 54.92424 
L 83.076736 56.25552 
L 83.821104 59.8572 
L 84.565471 58.32984 
L 85.309838 60.23904 
L 86.054206 55.65696 
L 86.798573 57.18432 
L 87.54294 59.21736 
L 88.287308 62.55072 
L 89.031675 60.82728 
L 89.776043 61.47744 
L 90.52041 60.12552 
L 91.264777 64.31544 
L 92.009145 63.99552 
L 92.753512 64.5528 
L 93.497879 63.60336 
L 94.242247 61.5084 
L 94.986614 60.96144 
L 95.730981 61.98312 
L 96.475349 62.05536 
L 97.219716 62.51976 
L 98.708451 60.64152 
L 99.452818 61.13688 
L 100.197186 58.6188 
L 100.941553 57.03984 
L 101.68592 56.35872 
L 102.430288 56.5548 
L 103.174655 57.174 
L 103.919022 57.14304 
L 104.66339 55.7292 
L 105.407757 56.04912 
L 106.152125 55.33704 
L 106.896492 56.87472 
L 107.640859 56.8128 
L 108.385227 57.24624 
L 109.129594 59.93976 
L 109.873961 60.64152 
L 110.618329 59.29992 
L 111.362696 63.80976 
L 112.107063 63.03576 
L 112.851431 63.09768 
L 114.340166 58.27824 
L 115.084533 58.5672 
L 115.8289 53.93352 
L 116.573268 51.74568 
L 117.317635 50.04288 
L 118.062002 49.90872 
L 119.550737 47.43192 
L 120.295104 50.80656 
L 121.039472 48.90768 
L 121.783839 50.6208 
L 122.528206 59.42376 
L 123.272574 61.85928 
L 124.016941 57.35976 
L 124.761309 57.3288 
L 125.505676 59.46504 
L 126.994411 64.72824 
L 127.738778 66.42072 
L 128.483145 65.688 
L 129.227513 64.17096 
L 129.97188 62.10696 
L 130.716247 64.30512 
L 131.460615 65.20296 
L 132.204982 62.68488 
L 132.94935 61.70448 
L 133.693717 61.06464 
L 134.438084 58.1028 
L 135.182452 58.40208 
L 135.926819 59.68176 
L 136.671186 62.6952 
L 137.415554 64.56312 
L 138.159921 63.18024 
L 138.904288 62.72616 
L 139.648656 62.06568 
L 140.393023 66.33816 
L 141.137391 71.40528 
L 141.881758 69.08328 
L 142.626125 71.7252 
L 143.370493 69.57864 
L 144.11486 70.72416 
L 144.859227 68.2164 
L 145.603595 66.978 
L 146.347962 70.03272 
L 147.092329 71.5188 
L 147.836697 73.3764 
L 148.581064 78.846 
L 149.325432 77.75208 
L 150.069799 78.88728 
L 150.814166 81.34344 
L 151.558534 80.53848 
L 152.302901 82.0452 
L 153.047268 86.92656 
L 153.791636 88.58808 
L 154.536003 88.96992 
L 155.28037 86.7924 
L 156.024738 85.296 
L 156.769105 86.24544 
L 157.513473 82.96368 
L 158.25784 82.13808 
L 159.002207 82.47864 
L 159.746575 82.58184 
L 160.490942 83.03592 
L 161.235309 87.3084 
L 161.979677 82.06584 
L 162.724044 79.71288 
L 163.468411 81.24024 
L 164.212779 84.17112 
L 164.957146 84.24336 
L 165.701514 83.29392 
L 166.445881 82.8192 
L 167.190248 80.64168 
L 167.934616 81.38472 
L 168.678983 80.87904 
L 169.42335 83.13912 
L 170.167718 83.19072 
L 171.656452 87.17424 
L 172.40082 85.71912 
L 173.145187 87.53544 
L 173.889555 88.17528 
L 174.633922 85.41984 
L 176.122657 84.9348 
L 176.867024 85.01736 
L 177.611391 86.14224 
L 178.355759 85.90488 
L 179.100126 86.328 
L 179.844493 86.24544 
L 180.588861 85.72944 
L 181.333228 85.7088 
L 182.077596 86.40024 
L 182.821963 85.09992 
L 183.56633 86.02872 
L 185.055065 83.53128 
L 186.5438 82.03488 
L 187.288167 79.39296 
L 188.032534 79.66128 
L 188.776902 82.15872 
L 189.521269 82.43736 
L 190.265637 82.93272 
L 191.010004 83.00496 
L 192.498739 82.28256 
L 193.243106 78.01008 
L 193.987473 76.19376 
L 194.731841 77.66952 
L 195.476208 77.74176 
L 196.220575 78.1752 
L 197.70931 80.8068 
L 198.453677 85.20312 
L 199.198045 84.12984 
L 199.942412 84.03696 
L 200.68678 84.06792 
L 201.431147 84.3156 
L 202.175514 87.02976 
L 202.919882 85.21344 
L 203.664249 84.28464 
L 204.408616 84.32592 
L 205.152984 89.08344 
L 205.897351 89.5272 
L 206.641718 95.14128 
L 207.386086 96.98856 
L 208.130453 95.08968 
L 209.350406 99.80592 
L 210.094394 101.79768 
L 210.835574 100.03296 
L 211.596957 100.518 
L 212.335181 99.98136 
L 213.083796 100.49736 
L 215.312452 101.26104 
L 216.047868 100.63152 
L 216.752958 100.38384 
L 217.545072 100.84824 
L 218.195937 100.65216 
L 219.032626 101.034 
L 219.776089 101.19912 
L 222.008795 100.91016 
L 222.755402 101.7564 
L 223.436886 101.84928 
L 224.241458 101.56032 
L 224.982508 100.85856 
L 226.46106 101.4468 
L 227.222339 101.02368 
L 227.959021 101.30232 
L 228.70512 100.81728 
L 229.445318 100.79664 
L 230.191288 99.3312 
L 230.935302 99.92976 
L 231.673957 100.78632 
L 232.425553 101.17848 
L 233.172152 101.1372 
L 233.911737 100.21872 
L 235.403108 100.4664 
L 236.146037 99.88848 
L 236.889414 99.94008 
L 237.648022 99.81624 
L 238.394492 98.93904 
L 239.125833 98.3508 
L 239.875878 98.52624 
L 240.620452 99.78528 
L 241.357574 100.12584 
L 242.097582 100.03296 
L 243.599196 100.83792 
L 244.336671 100.11552 
L 245.136479 99.87816 
L 245.834461 100.002 
L 247.317018 101.41584 
L 248.071526 101.21976 
L 249.557693 101.00304 
L 250.308445 100.86888 
L 251.043008 101.21976 
L 251.788228 101.28168 
L 253.281796 101.14752 
L 254.028084 100.55928 
L 254.767619 100.65216 
L 255.513192 99.80592 
L 256.254966 99.96072 
L 257.006183 99.6408 
L 257.739169 99.1764 
L 258.496891 99.70272 
L 259.245074 99.94008 
L 259.984703 98.57784 
L 260.728502 98.65008 
L 261.476092 98.38176 
L 262.218943 98.48496 
L 262.9551 96.70992 
L 263.709297 98.05152 
L 264.455508 98.48496 
L 265.19661 97.96896 
L 265.938669 96.32808 
L 267.432392 96.16296 
L 268.167877 96.1836 
L 268.923823 96.50352 
L 269.676211 94.76976 
L 270.422138 97.19496 
L 271.164472 96.9576 
L 271.910089 97.9896 
L 272.662589 96.89568 
L 273.38796 95.45088 
L 274.147438 95.67792 
L 274.891547 93.43848 
L 276.376999 92.25168 
L 277.121565 92.87088 
L 277.853543 94.2744 
L 278.600633 93.1392 
L 279.36 92.97408 
L 279.36 92.97408 
" clip-path="url(#p628b896a02)" style="fill: none; stroke: #f5841e; stroke-width: 0.6"/>
   </g>
  </g>
 </g>
 <defs>
  <clipPath id="p628b896a02">
   <rect x="8.64" y="4.8" width="270.72" height="103.2"/>
  </clipPath>
 </defs>
</svg>
