<?xml version="1.0" encoding="utf-8" standalone="no"?>
<!DOCTYPE svg PUBLIC "-//W3C//DTD SVG 1.1//EN"
  "http://www.w3.org/Graphics/SVG/1.1/DTD/svg11.dtd">
<svg xmlns:xlink="http://www.w3.org/1999/xlink" width="288pt" height="120pt" viewBox="0 0 288 120" xmlns="http://www.w3.org/2000/svg" version="1.1">
<desc id="nav-meta">{"window":"1m","count":4,"labels":["10.01","20.01","30.01","09.02"],"tick_utc":["2026-01-10T12:00:00Z","2026-01-20T12:00:00Z","2026-01-30T12:00:00Z","2026-02-09T03:34:10Z"],"w":720,"h":300}</desc>

 <metadata>
  <rdf:RDF xmlns:dc="http://purl.org/dc/elements/1.1/" xmlns:cc="http://creativecommons.org/ns#" xmlns:rdf="http://www.w3.org/1999/02/22-rdf-syntax-ns#">
   <cc:Work>
    <dc:type rdf:resource="http://purl.org/dc/dcmitype/StillImage"/>
    <dc:date>2026-02-09T07:42:03.835980</dc:date>
    <dc:format>image/svg+xml</dc:format>
    <dc:creator>
     <cc:Agent>
      <dc:title>Matplotlib v3.10.8, https://matplotlib.org/</dc:title>
     </cc:Agent>
    </dc:creator>
   </cc:Work>
  </rdf:RDF>
 </metadata>
 <defs>
  <style type="text/css">*{stroke-linejoin: round; stroke-linecap: butt}</style>
 </defs>
 <g id="figure_1">
  <g id="patch_1">
   <path d="M 0 120 
L 288 120 
L 288 0 
L 0 0 
L 0 120 
z
" style="fill: none; opacity: 0"/>
  </g>
  <g id="axes_1">
   <g id="patch_2">
    <path d="M 8.64 108 
L 279.36 108 
L 279.36 4.8 
L 8.64 4.8 
L 8.64 108 
z
" style="fill: none"/>
   </g>
   <g id="matplotlib.axis_1"/>
   <g id="matplotlib.axis_2"/>
   <g id="line2d_1">
    <path d="M 8.64 87.36 
L 279.36 87.36 
" clip-path="url(#p766d53d408)" style="fill: none; stroke: #b2b2b2; stroke-opacity: 0.35; stroke-width: 0.5; stroke-linecap: square"/>
   </g>
   <g id="line2d_2">
    <path d="M 8.64 66.72 
L 279.36 66.72 
" clip-path="url(#p766d53d408)" style="fill: none; stroke: #b2b2b2; stroke-opacity: 0.35; stroke-width: 0.5; stroke-linecap: square"/>
   </g>
   <g id="line2d_3">
    <path d="M 8.64 46.08 
L 279.36 46.08 
" clip-path="url(#p766d53d408)" style="fill: none; stroke: #b2b2b2; stroke-opacity: 0.35; stroke-width: 0.5; stroke-linecap: square"/>
   </g>
   <g id="line2d_4">
    <path d="M 8.64 25.44 
L 279.36 25.44 
" clip-path="url(#p766d53d408)" style="fill: none; stroke: #b2b2b2; stroke-opacity: 0.35; stroke-width: 0.5; stroke-linecap: square"/>
   </g>
   <g id="line2d_5">
    <path d="M 8.64 89.39304 
L 17.770915 89.40336 
L 26.90183 88.41264 
L 36.032745 88.4952 
L 45.163659 86.86464 
L 54.294574 86.42088 
L 63.425489 87.62832 
L 72.556404 86.93688 
L 81.687319 87.23616 
L 90.818234 88.63968 
L 99.949148 90.0432 
L 109.080063 92.12784 
L 118.210978 91.16808 
L 127.341893 91.46736 
L 136.472808 91.73568 
L 145.603723 91.78728 
L 154.734637 94.0164 
L 163.865552 92.5716 
L 172.996467 91.76664 
L 182.127382 92.33424 
L 191.258297 94.36728 
L 200.389212 94.46016 
L 209.520126 97.71096 
L 218.651041 98.48496 
L 227.781956 97.85544 
L 235.490499 99.10416 
L 242.746722 100.16712 
L 251.872987 102.23112 
L 260.9648 100.54896 
L 270.304436 100.70376 
L 279.36 100.68312 
" clip-path="url(#p766d53d408)" style="fill: none; stroke: #bebebe; stroke-width: 0.5; stroke-linecap: round"/>
   </g>
   <g id="line2d_6">
    <path d="M 8.64 73.83048 
L 17.770915 73.8408 
L 26.90183 73.29384 
L 36.032745 73.72728 
L 45.163659 70.32168 
L 54.294574 69.77472 
L 63.425489 70.34232 
L 72.556404 70.67256 
L 81.687319 70.51776 
L 90.818234 70.848 
L 99.949148 72.31344 
L 109.080063 76.01832 
L 118.210978 75.41976 
L 127.341893 75.83256 
L 136.472808 75.79128 
L 145.603723 75.82224 
L 154.734637 77.82432 
L 163.865552 76.14216 
L 172.996467 74.75928 
L 182.127382 74.96568 
L 191.258297 77.75208 
L 200.389212 79.48584 
L 209.520126 83.31456 
L 218.651041 85.90488 
L 227.781956 84.79032 
L 235.490499 85.84296 
L 242.746722 88.25784 
L 251.872987 91.41576 
L 260.9648 88.7532 
L 270.304436 88.65 
L 279.36 88.55712 
" clip-path="url(#p766d53d408)" style="fill: none; stroke: #4a8dff; stroke-width: 0.6"/>
   </g>
   <g id="line2d_7">
    <path d="M 8.64 82.93272 
L 17.770915 83.00496 
L 26.90183 82.6128 
L 36.032745 82.28256 
L 45.163659 78.01008 
L 54.294574 76.19376 
L 63.425489 77.66952 
L 72.556404 77.74176 
L 81.687319 78.1752 
L 90.818234 79.5684 
L 99.949148 80.8068 
L 109.080063 85.20312 
L 118.210978 84.12984 
L 127.341893 84.03696 
L 136.472808 84.06792 
L 145.603723 84.3156 
L 154.734637 87.02976 
L 163.865552 85.21344 
L 172.996467 84.28464 
L 182.127382 84.32592 
L 191.258297 89.08344 
L 200.389212 89.5272 
L 209.520126 95.14128 
L 218.651041 96.98856 
L 227.781956 95.08968 
L 235.490499 97.71096 
L 242.746722 99.80592 
L 251.872987 101.79768 
L 260.9648 100.03296 
L 270.304436 100.518 
L 279.36 99.98136 
" clip-path="url(#p766d53d408)" style="fill: none; stroke: #f5841e; stroke-width: 0.6"/>
   </g>
  </g>
 </g>
 <defs>
  <clipPath id="p766d53d408">
   <rect x="8.64" y="4.8" width="270.72" height="103.2"/>
  </clipPath>
 </defs>
</svg>
