<?xml version="1.0" encoding="utf-8" standalone="no"?>
<!DOCTYPE svg PUBLIC "-//W3C//DTD SVG 1.1//EN"
  "http://www.w3.org/Graphics/SVG/1.1/DTD/svg11.dtd">
<svg xmlns:xlink="http://www.w3.org/1999/xlink" width="288pt" height="120pt" viewBox="0 0 288 120" xmlns="http://www.w3.org/2000/svg" version="1.1">
<desc id="nav-meta">{"window":"1m","count":4,"labels":["07.01","17.01","27.01","06.02"],"tick_utc":["2026-01-07T12:00:00Z","2026-01-17T12:00:00Z","2026-01-27T12:00:00Z","2026-02-06T03:19:18Z"],"w":720,"h":300}</desc>

 <metadata>
  <rdf:RDF xmlns:dc="http://purl.org/dc/elements/1.1/" xmlns:cc="http://creativecommons.org/ns#" xmlns:rdf="http://www.w3.org/1999/02/22-rdf-syntax-ns#">
   <cc:Work>
    <dc:type rdf:resource="http://purl.org/dc/dcmitype/StillImage"/>
    <dc:date>2026-02-06T07:34:38.694468</dc:date>
    <dc:format>image/svg+xml</dc:format>
    <dc:creator>
     <cc:Agent>
      <dc:title>Matplotlib v3.10.8, https://matplotlib.org/</dc:title>
     </cc:Agent>
    </dc:creator>
   </cc:Work>
  </rdf:RDF>
 </metadata>
 <defs>
  <style type="text/css">*{stroke-linejoin: round; stroke-linecap: butt}</style>
 </defs>
 <g id="figure_1">
  <g id="patch_1">
   <path d="M 0 120 
L 288 120 
L 288 0 
L 0 0 
L 0 120 
z
" style="fill: none; opacity: 0"/>
  </g>
  <g id="axes_1">
   <g id="patch_2">
    <path d="M 8.64 108 
L 279.36 108 
L 279.36 4.8 
L 8.64 4.8 
L 8.64 108 
z
" style="fill: none"/>
   </g>
   <g id="matplotlib.axis_1"/>
   <g id="matplotlib.axis_2"/>
   <g id="line2d_1">
    <path d="M 8.64 87.36 
L 279.36 87.36 
" clip-path="url(#p55585cf04d)" style="fill: none; stroke: #b2b2b2; stroke-opacity: 0.35; stroke-width: 0.5; stroke-linecap: square"/>
   </g>
   <g id="line2d_2">
    <path d="M 8.64 66.72 
L 279.36 66.72 
" clip-path="url(#p55585cf04d)" style="fill: none; stroke: #b2b2b2; stroke-opacity: 0.35; stroke-width: 0.5; stroke-linecap: square"/>
   </g>
   <g id="line2d_3">
    <path d="M 8.64 46.08 
L 279.36 46.08 
" clip-path="url(#p55585cf04d)" style="fill: none; stroke: #b2b2b2; stroke-opacity: 0.35; stroke-width: 0.5; stroke-linecap: square"/>
   </g>
   <g id="line2d_4">
    <path d="M 8.64 25.44 
L 279.36 25.44 
" clip-path="url(#p55585cf04d)" style="fill: none; stroke: #b2b2b2; stroke-opacity: 0.35; stroke-width: 0.5; stroke-linecap: square"/>
   </g>
   <g id="line2d_5">
    <path d="M 8.64 87.94824 
L 17.774095 89.2692 
L 26.908191 88.72224 
L 36.042286 89.39304 
L 45.176382 89.40336 
L 54.310477 88.41264 
L 63.444573 88.4952 
L 72.578668 86.86464 
L 81.712764 86.42088 
L 90.846859 87.62832 
L 99.980955 86.93688 
L 109.11505 87.23616 
L 118.249145 88.63968 
L 127.383241 90.0432 
L 136.517336 92.12784 
L 145.651432 91.16808 
L 154.785527 91.46736 
L 163.919623 91.73568 
L 173.053718 91.78728 
L 182.187814 94.0164 
L 191.321909 92.5716 
L 200.456004 91.76664 
L 209.5901 92.33424 
L 218.724195 94.36728 
L 227.858291 94.46016 
L 236.992386 97.71096 
L 246.126482 98.48496 
L 255.260577 97.85544 
L 262.971805 99.10416 
L 270.230556 100.16712 
L 279.36 102.23112 
" clip-path="url(#p55585cf04d)" style="fill: none; stroke: #bebebe; stroke-width: 0.5; stroke-linecap: round"/>
   </g>
   <g id="line2d_6">
    <path d="M 8.64 70.6932 
L 17.774095 72.62304 
L 26.908191 73.52088 
L 36.042286 73.83048 
L 45.176382 73.8408 
L 54.310477 73.29384 
L 63.444573 73.72728 
L 72.578668 70.32168 
L 81.712764 69.77472 
L 90.846859 70.34232 
L 99.980955 70.67256 
L 109.11505 70.51776 
L 118.249145 70.848 
L 127.383241 72.31344 
L 136.517336 76.01832 
L 145.651432 75.41976 
L 154.785527 75.83256 
L 163.919623 75.79128 
L 173.053718 75.82224 
L 182.187814 77.82432 
L 191.321909 76.14216 
L 200.456004 74.75928 
L 209.5901 74.96568 
L 218.724195 77.75208 
L 227.858291 79.48584 
L 236.992386 83.31456 
L 246.126482 85.90488 
L 255.260577 84.79032 
L 262.971805 85.84296 
L 270.230556 88.25784 
L 279.36 91.41576 
" clip-path="url(#p55585cf04d)" style="fill: none; stroke: #4a8dff; stroke-width: 0.6"/>
   </g>
   <g id="line2d_7">
    <path d="M 8.64 79.66128 
L 17.774095 82.15872 
L 26.908191 82.43736 
L 36.042286 82.93272 
L 45.176382 83.00496 
L 54.310477 82.6128 
L 63.444573 82.28256 
L 72.578668 78.01008 
L 81.712764 76.19376 
L 90.846859 77.66952 
L 99.980955 77.74176 
L 109.11505 78.1752 
L 118.249145 79.5684 
L 127.383241 80.8068 
L 136.517336 85.20312 
L 145.651432 84.12984 
L 154.785527 84.03696 
L 163.919623 84.06792 
L 173.053718 84.3156 
L 182.187814 87.02976 
L 191.321909 85.21344 
L 200.456004 84.28464 
L 209.5901 84.32592 
L 218.724195 89.08344 
L 227.858291 89.5272 
L 236.992386 95.14128 
L 246.126482 96.98856 
L 255.260577 95.08968 
L 262.971805 97.71096 
L 270.230556 99.80592 
L 279.36 101.79768 
" clip-path="url(#p55585cf04d)" style="fill: none; stroke: #f5841e; stroke-width: 0.6"/>
   </g>
  </g>
 </g>
 <defs>
  <clipPath id="p55585cf04d">
   <rect x="8.64" y="4.8" width="270.72" height="103.2"/>
  </clipPath>
 </defs>
</svg>
