<?xml version="1.0" encoding="utf-8" standalone="no"?>
<!DOCTYPE svg PUBLIC "-//W3C//DTD SVG 1.1//EN"
  "http://www.w3.org/Graphics/SVG/1.1/DTD/svg11.dtd">
<svg xmlns:xlink="http://www.w3.org/1999/xlink" width="288pt" height="120pt" viewBox="0 0 288 120" xmlns="http://www.w3.org/2000/svg" version="1.1">
<desc id="nav-meta">{"window":"3m","count":4,"labels":["08.12","07.01","06.02","08.03"],"tick_utc":["2025-12-08T12:00:00Z","2026-01-07T12:00:00Z","2026-02-06T03:19:18Z","2026-03-08T03:19:34Z"],"w":720,"h":300}</desc>

 <metadata>
  <rdf:RDF xmlns:dc="http://purl.org/dc/elements/1.1/" xmlns:cc="http://creativecommons.org/ns#" xmlns:rdf="http://www.w3.org/1999/02/22-rdf-syntax-ns#">
   <cc:Work>
    <dc:type rdf:resource="http://purl.org/dc/dcmitype/StillImage"/>
    <dc:date>2026-03-08T07:20:16.466079</dc:date>
    <dc:format>image/svg+xml</dc:format>
    <dc:creator>
     <cc:Agent>
      <dc:title>Matplotlib v3.10.8, https://matplotlib.org/</dc:title>
     </cc:Agent>
    </dc:creator>
   </cc:Work>
  </rdf:RDF>
 </metadata>
 <defs>
  <style type="text/css">*{stroke-linejoin: round; stroke-linecap: butt}</style>
 </defs>
 <g id="figure_1">
  <g id="patch_1">
   <path d="M 0 120 
L 288 120 
L 288 0 
L 0 0 
L 0 120 
z
" style="fill: none; opacity: 0"/>
  </g>
  <g id="axes_1">
   <g id="patch_2">
    <path d="M 8.64 108 
L 279.36 108 
L 279.36 4.8 
L 8.64 4.8 
L 8.64 108 
z
" style="fill: none"/>
   </g>
   <g id="matplotlib.axis_1"/>
   <g id="matplotlib.axis_2"/>
   <g id="line2d_1">
    <path d="M 8.64 87.36 
L 279.36 87.36 
" clip-path="url(#p81c267ab3e)" style="fill: none; stroke: #b2b2b2; stroke-opacity: 0.35; stroke-width: 0.5; stroke-linecap: square"/>
   </g>
   <g id="line2d_2">
    <path d="M 8.64 66.72 
L 279.36 66.72 
" clip-path="url(#p81c267ab3e)" style="fill: none; stroke: #b2b2b2; stroke-opacity: 0.35; stroke-width: 0.5; stroke-linecap: square"/>
   </g>
   <g id="line2d_3">
    <path d="M 8.64 46.08 
L 279.36 46.08 
" clip-path="url(#p81c267ab3e)" style="fill: none; stroke: #b2b2b2; stroke-opacity: 0.35; stroke-width: 0.5; stroke-linecap: square"/>
   </g>
   <g id="line2d_4">
    <path d="M 8.64 25.44 
L 279.36 25.44 
" clip-path="url(#p81c267ab3e)" style="fill: none; stroke: #b2b2b2; stroke-opacity: 0.35; stroke-width: 0.5; stroke-linecap: square"/>
   </g>
   <g id="line2d_5">
    <path d="M 8.64 90.53856 
L 11.660128 90.08448 
L 14.680256 88.79448 
L 17.700384 89.20728 
L 20.720512 89.22792 
L 23.740639 90.31152 
L 26.760767 90.10512 
L 29.780895 91.09584 
L 32.801023 91.61184 
L 35.821151 91.31256 
L 38.841279 92.87088 
L 41.861407 93.8616 
L 44.881535 92.02464 
L 47.901663 92.13816 
L 50.921791 92.07624 
L 53.941918 92.14848 
L 56.962046 92.64384 
L 59.982174 93.01536 
L 63.002302 93.69648 
L 66.02243 93.11856 
L 69.042558 92.44776 
L 72.062686 92.30328 
L 75.082814 92.87088 
L 78.102942 92.38584 
L 81.123069 92.47872 
L 84.143197 91.88016 
L 87.163325 90.42504 
L 90.183453 90.08448 
L 93.203581 89.92968 
L 96.223709 88.76352 
L 99.243837 87.94824 
L 102.263965 89.2692 
L 105.284093 88.72224 
L 108.304221 89.39304 
L 111.324348 89.40336 
L 114.344476 88.41264 
L 117.364604 88.4952 
L 120.384732 86.86464 
L 123.40486 86.42088 
L 126.424988 87.62832 
L 129.445116 86.93688 
L 132.465244 87.23616 
L 135.485372 88.63968 
L 138.505499 90.0432 
L 141.525627 92.12784 
L 144.545755 91.16808 
L 147.565883 91.46736 
L 150.586011 91.73568 
L 153.606139 91.78728 
L 156.626267 94.0164 
L 159.646395 92.5716 
L 162.666523 91.76664 
L 165.686651 92.33424 
L 168.706778 94.36728 
L 171.726906 94.46016 
L 174.747034 97.71096 
L 177.767162 98.48496 
L 180.78729 97.85544 
L 183.336956 99.10416 
L 185.737014 100.16712 
L 188.755604 102.23112 
L 191.762798 100.54896 
L 194.851963 100.70376 
L 197.847168 100.68312 
L 200.884528 100.95144 
L 203.898399 101.28168 
L 206.907656 101.71512 
L 209.926875 101.84928 
L 212.910685 101.034 
L 215.771452 100.54896 
L 218.985301 101.04432 
L 221.626061 100.81728 
L 225.020768 101.034 
L 228.037226 101.4984 
L 231.039701 101.33328 
L 234.041373 101.1372 
L 237.096002 101.06496 
L 240.125218 102.09696 
L 242.890208 102.05568 
L 246.154603 101.4984 
L 249.161273 100.60056 
L 252.175668 100.80696 
L 255.160212 101.45712 
L 258.248956 100.55928 
L 261.237904 101.10624 
L 264.265058 100.8792 
L 267.268268 100.74504 
L 270.294897 100.21872 
L 273.313592 100.53864 
L 276.310545 101.07528 
L 279.36 101.38488 
" clip-path="url(#p81c267ab3e)" style="fill: none; stroke: #bebebe; stroke-width: 0.5; stroke-linecap: round"/>
   </g>
   <g id="line2d_6">
    <path d="M 8.64 74.28456 
L 11.660128 73.21128 
L 14.680256 70.2804 
L 17.700384 70.2288 
L 20.720512 71.56008 
L 23.740639 73.79952 
L 26.760767 73.35576 
L 29.780895 74.0988 
L 32.801023 75.5952 
L 35.821151 75.5952 
L 38.841279 77.61792 
L 41.861407 77.63856 
L 44.881535 75.40944 
L 47.901663 75.40944 
L 50.921791 75.04824 
L 53.941918 74.98632 
L 56.962046 75.58488 
L 59.982174 75.87384 
L 63.002302 76.49304 
L 66.02243 76.15248 
L 69.042558 75.82224 
L 72.062686 75.84288 
L 75.082814 76.03896 
L 78.102942 75.51264 
L 81.123069 75.56424 
L 84.143197 75.05856 
L 87.163325 73.26288 
L 90.183453 73.20096 
L 93.203581 73.00488 
L 96.223709 71.68392 
L 99.243837 70.6932 
L 102.263965 72.62304 
L 105.284093 73.52088 
L 108.304221 73.83048 
L 111.324348 73.8408 
L 114.344476 73.29384 
L 117.364604 73.72728 
L 120.384732 70.32168 
L 123.40486 69.77472 
L 126.424988 70.34232 
L 129.445116 70.67256 
L 132.465244 70.51776 
L 135.485372 70.848 
L 138.505499 72.31344 
L 141.525627 76.01832 
L 144.545755 75.41976 
L 147.565883 75.83256 
L 150.586011 75.79128 
L 153.606139 75.82224 
L 156.626267 77.82432 
L 159.646395 76.14216 
L 162.666523 74.75928 
L 165.686651 74.96568 
L 168.706778 77.75208 
L 171.726906 79.48584 
L 174.747034 83.31456 
L 177.767162 85.90488 
L 180.78729 84.79032 
L 183.336956 85.84296 
L 185.737014 88.25784 
L 188.755604 91.41576 
L 191.762798 88.7532 
L 194.851963 88.65 
L 197.847168 88.55712 
L 200.884528 88.96992 
L 203.898399 89.7336 
L 206.907656 90.456 
L 209.926875 90.56952 
L 212.910685 89.15568 
L 215.771452 88.9596 
L 218.985301 90.6624 
L 221.626061 89.94 
L 225.020768 90.00192 
L 228.037226 90.3528 
L 231.039701 90.62112 
L 234.041373 90.5076 
L 237.096002 90.3528 
L 240.125218 92.004 
L 242.890208 92.13816 
L 246.154603 91.25064 
L 249.161273 89.166 
L 252.175668 89.56848 
L 255.160212 90.93072 
L 258.248956 89.41368 
L 261.237904 90.37344 
L 264.265058 89.79552 
L 267.268268 90.23928 
L 270.294897 88.0824 
L 273.313592 88.7532 
L 276.310545 90.16704 
L 279.36 90.67272 
" clip-path="url(#p81c267ab3e)" style="fill: none; stroke: #4a8dff; stroke-width: 0.6"/>
   </g>
   <g id="line2d_7">
    <path d="M 8.64 83.29392 
L 11.660128 82.8192 
L 14.680256 80.64168 
L 17.700384 81.38472 
L 20.720512 80.87904 
L 23.740639 83.13912 
L 26.760767 83.19072 
L 29.780895 85.296 
L 32.801023 87.17424 
L 35.821151 85.71912 
L 38.841279 87.53544 
L 41.861407 88.17528 
L 44.881535 85.41984 
L 47.901663 85.17216 
L 50.921791 84.9348 
L 53.941918 85.01736 
L 56.962046 86.14224 
L 59.982174 85.90488 
L 63.002302 86.328 
L 66.02243 86.24544 
L 69.042558 85.72944 
L 72.062686 85.7088 
L 75.082814 86.40024 
L 78.102942 85.09992 
L 81.123069 86.02872 
L 84.143197 84.78 
L 87.163325 83.53128 
L 90.183453 82.83984 
L 93.203581 82.03488 
L 96.223709 79.39296 
L 99.243837 79.66128 
L 102.263965 82.15872 
L 105.284093 82.43736 
L 108.304221 82.93272 
L 111.324348 83.00496 
L 114.344476 82.6128 
L 117.364604 82.28256 
L 120.384732 78.01008 
L 123.40486 76.19376 
L 126.424988 77.66952 
L 129.445116 77.74176 
L 132.465244 78.1752 
L 135.485372 79.5684 
L 138.505499 80.8068 
L 141.525627 85.20312 
L 144.545755 84.12984 
L 147.565883 84.03696 
L 150.586011 84.06792 
L 153.606139 84.3156 
L 156.626267 87.02976 
L 159.646395 85.21344 
L 162.666523 84.28464 
L 165.686651 84.32592 
L 168.706778 89.08344 
L 171.726906 89.5272 
L 174.747034 95.14128 
L 177.767162 96.98856 
L 180.78729 95.08968 
L 183.336956 97.71096 
L 185.737014 99.80592 
L 188.755604 101.79768 
L 191.762798 100.03296 
L 194.851963 100.518 
L 197.847168 99.98136 
L 200.884528 100.49736 
L 203.898399 100.78632 
L 206.907656 101.07528 
L 209.926875 101.26104 
L 212.910685 100.63152 
L 215.771452 100.38384 
L 218.985301 100.84824 
L 221.626061 100.65216 
L 225.020768 101.034 
L 228.037226 101.19912 
L 231.039701 101.10624 
L 234.041373 100.97208 
L 237.096002 100.91016 
L 240.125218 101.7564 
L 242.890208 101.84928 
L 246.154603 101.56032 
L 249.161273 100.85856 
L 252.175668 101.12688 
L 255.160212 101.4468 
L 258.248956 101.02368 
L 261.237904 101.30232 
L 264.265058 100.81728 
L 267.268268 100.79664 
L 270.294897 99.3312 
L 273.313592 99.92976 
L 276.310545 100.78632 
L 279.36 101.17848 
" clip-path="url(#p81c267ab3e)" style="fill: none; stroke: #f5841e; stroke-width: 0.6"/>
   </g>
  </g>
 </g>
 <defs>
  <clipPath id="p81c267ab3e">
   <rect x="8.64" y="4.8" width="270.72" height="103.2"/>
  </clipPath>
 </defs>
</svg>
