<?xml version="1.0" encoding="utf-8" standalone="no"?>
<!DOCTYPE svg PUBLIC "-//W3C//DTD SVG 1.1//EN"
  "http://www.w3.org/Graphics/SVG/1.1/DTD/svg11.dtd">
<svg xmlns:xlink="http://www.w3.org/1999/xlink" width="288pt" height="120pt" viewBox="0 0 288 120" xmlns="http://www.w3.org/2000/svg" version="1.1">
<desc id="nav-meta">{"window":"3m","count":4,"labels":["25.03","24.04","23.05","22.06"],"tick_utc":["2026-03-25T05:09:13Z","2026-04-24T04:01:18Z","2026-05-23T04:28:38Z","2026-06-22T06:11:33Z"],"w":720,"h":300}</desc>

 <metadata>
  <rdf:RDF xmlns:dc="http://purl.org/dc/elements/1.1/" xmlns:cc="http://creativecommons.org/ns#" xmlns:rdf="http://www.w3.org/1999/02/22-rdf-syntax-ns#">
   <cc:Work>
    <dc:type rdf:resource="http://purl.org/dc/dcmitype/StillImage"/>
    <dc:date>2026-06-22T21:23:43.150245</dc:date>
    <dc:format>image/svg+xml</dc:format>
    <dc:creator>
     <cc:Agent>
      <dc:title>Matplotlib v3.11.0, https://matplotlib.org/</dc:title>
     </cc:Agent>
    </dc:creator>
   </cc:Work>
  </rdf:RDF>
 </metadata>
 <defs>
  <style type="text/css">*{stroke-linejoin: round; stroke-linecap: butt}</style>
 </defs>
 <g id="figure_1">
  <g id="patch_1">
   <path d="M 0 120 
L 288 120 
L 288 0 
L 0 0 
L 0 120 
z
" style="fill: none; opacity: 0"/>
  </g>
  <g id="axes_1">
   <g id="patch_2">
    <path d="M 8.64 108 
L 279.36 108 
L 279.36 4.8 
L 8.64 4.8 
L 8.64 108 
z
" style="fill: none"/>
   </g>
   <g id="matplotlib.axis_1"/>
   <g id="matplotlib.axis_2"/>
   <g id="line2d_1">
    <path d="M 8.64 87.36 
L 279.36 87.36 
" clip-path="url(#pae2f12e0e1)" style="fill: none; stroke: #b2b2b2; stroke-opacity: 0.35; stroke-width: 0.5; stroke-linecap: square"/>
   </g>
   <g id="line2d_2">
    <path d="M 8.64 66.72 
L 279.36 66.72 
" clip-path="url(#pae2f12e0e1)" style="fill: none; stroke: #b2b2b2; stroke-opacity: 0.35; stroke-width: 0.5; stroke-linecap: square"/>
   </g>
   <g id="line2d_3">
    <path d="M 8.64 46.08 
L 279.36 46.08 
" clip-path="url(#pae2f12e0e1)" style="fill: none; stroke: #b2b2b2; stroke-opacity: 0.35; stroke-width: 0.5; stroke-linecap: square"/>
   </g>
   <g id="line2d_4">
    <path d="M 8.64 25.44 
L 279.36 25.44 
" clip-path="url(#pae2f12e0e1)" style="fill: none; stroke: #b2b2b2; stroke-opacity: 0.35; stroke-width: 0.5; stroke-linecap: square"/>
   </g>
   <g id="line2d_5">
    <path d="M 8.64 99.83688 
L 11.490862 100.13616 
L 14.535017 100.80696 
L 17.54627 101.38488 
L 20.628006 101.3436 
L 23.677017 101.292 
L 26.698158 101.28168 
L 29.764552 101.28168 
L 32.764826 101.8596 
L 35.808629 101.88024 
L 38.822908 101.72544 
L 41.909008 101.68416 
L 44.957174 101.47776 
L 47.977752 101.78736 
L 51.022997 101.09592 
L 54.052725 101.46744 
L 57.121019 101.3436 
L 60.114853 101.05464 
L 63.209715 101.3952 
L 66.265623 101.47776 
L 69.286588 100.86888 
L 72.324584 101.26104 
L 75.378064 100.99272 
L 78.41219 100.61088 
L 81.418974 100.44576 
L 84.499443 100.94112 
L 87.547293 101.09592 
L 90.574275 101.00304 
L 93.605164 100.69344 
L 96.657799 100.9308 
L 99.706176 100.92048 
L 102.710215 100.81728 
L 105.797828 100.8792 
L 108.870908 100.64184 
L 111.917596 101.1888 
L 114.949611 101.09592 
L 117.995032 101.37456 
L 121.06857 101.21976 
L 124.031297 101.20944 
L 127.133338 101.23008 
L 130.172601 100.92048 
L 133.145955 101.06496 
L 136.239832 100.70376 
L 139.28096 100.55928 
L 142.270678 100.53864 
L 145.322117 99.60984 
L 148.423699 99.72336 
L 151.488017 99.44472 
L 154.48611 99.25896 
L 157.540891 99.32088 
L 160.577832 100.22904 
L 163.633142 100.01232 
L 166.634647 100.43544 
L 169.72036 100.75536 
L 172.790203 101.02368 
L 175.80874 101.02368 
L 178.859932 101.17848 
L 181.917564 100.7244 
L 184.934588 100.75536 
L 187.933138 101.11656 
L 191.021595 100.91016 
L 194.101924 100.89984 
L 197.096181 101.1372 
L 200.167712 101.2404 
L 203.198319 101.6532 
L 206.24089 101.4984 
L 209.237364 101.48808 
L 212.339756 101.32296 
L 215.425047 101.51904 
L 218.435455 101.7048 
L 221.509978 102.54072 
L 224.539881 103.08768 
L 227.530126 103.36632 
L 230.523714 104.22288 
L 233.629379 103.85136 
L 236.68314 103.68624 
L 239.665433 103.43856 
L 242.737281 103.81008 
L 245.795441 103.72752 
L 248.847689 103.50048 
L 251.865769 103.5108 
L 254.928151 103.31472 
L 258.069533 102.95352 
L 261.1272 102.61296 
L 264.070679 102.6336 
L 267.09643 102.9948 
L 270.208358 103.28376 
L 273.1271 103.01544 
L 276.230688 102.69552 
L 279.36 102.582 
" clip-path="url(#pae2f12e0e1)" style="fill: none; stroke: #bebebe; stroke-width: 0.5; stroke-linecap: round"/>
   </g>
   <g id="line2d_6">
    <path d="M 8.64 87.3084 
L 11.490862 87.65928 
L 14.535017 88.96992 
L 17.54627 90.07416 
L 20.628006 89.76456 
L 23.677017 89.3724 
L 26.698158 89.00088 
L 29.764552 88.42296 
L 32.764826 88.81512 
L 35.808629 89.10408 
L 38.822908 89.14536 
L 41.909008 89.07312 
L 44.957174 87.9792 
L 47.977752 88.29912 
L 51.022997 86.38992 
L 54.052725 87.24648 
L 57.121019 87.1536 
L 60.114853 86.21448 
L 63.209715 86.66856 
L 66.265623 87.01944 
L 69.286588 84.44976 
L 72.324584 85.05864 
L 75.378064 84.58392 
L 78.41219 85.04832 
L 81.418974 83.71704 
L 84.499443 84.86256 
L 87.547293 85.6572 
L 90.574275 85.27536 
L 93.605164 84.49104 
L 96.657799 84.86256 
L 99.706176 85.32696 
L 102.710215 85.17216 
L 105.797828 85.31664 
L 108.870908 84.11952 
L 111.917596 85.66752 
L 114.949611 85.26504 
L 117.995032 86.26608 
L 121.06857 85.77072 
L 124.031297 85.38888 
L 127.133338 85.3992 
L 130.172601 84.09888 
L 133.145955 84.22272 
L 136.239832 84.34656 
L 139.28096 85.06896 
L 142.270678 85.7604 
L 145.322117 85.0896 
L 148.423699 85.01736 
L 151.488017 84.9348 
L 154.48611 85.296 
L 157.540891 85.35792 
L 160.577832 86.1732 
L 163.633142 85.92552 
L 166.634647 86.55504 
L 169.72036 87.13296 
L 172.790203 88.10304 
L 175.80874 87.9276 
L 178.859932 88.26816 
L 181.917564 87.78312 
L 184.934588 87.95856 
L 187.933138 88.94928 
L 191.021595 88.14432 
L 194.101924 88.33008 
L 197.096181 88.52616 
L 200.167712 88.86672 
L 203.198319 90.22896 
L 206.24089 89.82648 
L 209.237364 89.87808 
L 212.339756 89.46528 
L 215.425047 90.0432 
L 218.435455 89.96064 
L 221.509978 91.99368 
L 224.539881 93.05664 
L 227.530126 93.74808 
L 230.523714 97.02984 
L 233.629379 95.93592 
L 236.68314 95.07936 
L 239.665433 94.46016 
L 242.737281 95.47152 
L 245.795441 95.11032 
L 248.847689 94.82136 
L 251.865769 94.8936 
L 254.928151 94.70784 
L 258.069533 94.04736 
L 261.1272 93.40752 
L 264.070679 92.9844 
L 267.09643 93.93384 
L 270.208358 94.4292 
L 273.1271 94.19184 
L 276.230688 93.87192 
L 279.36 93.81 
" clip-path="url(#pae2f12e0e1)" style="fill: none; stroke: #4a8dff; stroke-width: 0.6"/>
   </g>
   <g id="line2d_7">
    <path d="M 8.64 99.87816 
L 11.490862 100.002 
L 14.535017 100.64184 
L 17.54627 101.41584 
L 20.628006 101.21976 
L 23.677017 101.14752 
L 26.698158 101.00304 
L 29.764552 100.86888 
L 32.764826 101.21976 
L 35.808629 101.28168 
L 38.822908 101.20944 
L 41.909008 101.14752 
L 44.957174 100.55928 
L 47.977752 100.65216 
L 51.022997 99.80592 
L 54.052725 99.96072 
L 57.121019 99.6408 
L 60.114853 99.1764 
L 63.209715 99.70272 
L 66.265623 99.94008 
L 69.286588 98.57784 
L 72.324584 98.65008 
L 75.378064 98.38176 
L 78.41219 98.48496 
L 81.418974 96.70992 
L 84.499443 98.05152 
L 87.547293 98.48496 
L 90.574275 97.96896 
L 93.605164 96.32808 
L 96.657799 96.20424 
L 99.706176 96.16296 
L 102.710215 96.1836 
L 105.797828 96.50352 
L 108.870908 94.76976 
L 111.917596 97.19496 
L 114.949611 96.9576 
L 117.995032 97.9896 
L 121.06857 96.89568 
L 124.031297 95.45088 
L 127.133338 95.67792 
L 130.172601 93.43848 
L 133.145955 92.90184 
L 136.239832 92.25168 
L 139.28096 92.87088 
L 142.270678 94.2744 
L 145.322117 93.1392 
L 148.423699 92.97408 
L 151.488017 92.9844 
L 154.48611 92.60256 
L 157.540891 92.53032 
L 160.577832 94.54272 
L 163.633142 92.85024 
L 166.634647 94.82136 
L 169.72036 95.75016 
L 172.790203 96.97824 
L 175.80874 97.08144 
L 178.859932 97.23624 
L 181.917564 95.94624 
L 184.934588 96.30744 
L 187.933138 98.08248 
L 191.021595 97.2672 
L 194.101924 96.61704 
L 197.096181 97.23624 
L 200.167712 98.08248 
L 203.198319 99.18672 
L 206.24089 99.03192 
L 209.237364 99.1248 
L 212.339756 98.74296 
L 215.425047 99.09384 
L 218.435455 100.0536 
L 221.509978 101.23008 
L 224.539881 101.99376 
L 227.530126 102.08664 
L 230.523714 102.8916 
L 233.629379 102.45816 
L 236.68314 102.28272 
L 239.665433 102.10728 
L 242.737281 102.582 
L 245.795441 102.29304 
L 248.847689 102.08664 
L 251.865769 102.066 
L 254.928151 101.86992 
L 258.069533 101.48808 
L 261.1272 101.40552 
L 264.070679 101.4984 
L 267.09643 101.97312 
L 270.208358 102.26208 
L 273.1271 102.066 
L 276.230688 101.90088 
L 279.36 101.90088 
" clip-path="url(#pae2f12e0e1)" style="fill: none; stroke: #f5841e; stroke-width: 0.6"/>
   </g>
  </g>
 </g>
 <defs>
  <clipPath id="pae2f12e0e1">
   <rect x="8.64" y="4.8" width="270.72" height="103.2"/>
  </clipPath>
 </defs>
</svg>
