<?xml version="1.0" encoding="utf-8" standalone="no"?>
<!DOCTYPE svg PUBLIC "-//W3C//DTD SVG 1.1//EN"
  "http://www.w3.org/Graphics/SVG/1.1/DTD/svg11.dtd">
<svg xmlns:xlink="http://www.w3.org/1999/xlink" width="288pt" height="120pt" viewBox="0 0 288 120" xmlns="http://www.w3.org/2000/svg" version="1.1">
<desc id="nav-meta">{"window":"1m","count":4,"labels":["19.01","29.01","08.02","18.02"],"tick_utc":["2026-01-19T12:00:00Z","2026-01-29T12:00:00Z","2026-02-08T03:46:03Z","2026-02-18T03:30:34Z"],"w":720,"h":300}</desc>

 <metadata>
  <rdf:RDF xmlns:dc="http://purl.org/dc/elements/1.1/" xmlns:cc="http://creativecommons.org/ns#" xmlns:rdf="http://www.w3.org/1999/02/22-rdf-syntax-ns#">
   <cc:Work>
    <dc:type rdf:resource="http://purl.org/dc/dcmitype/StillImage"/>
    <dc:date>2026-02-18T07:38:06.770753</dc:date>
    <dc:format>image/svg+xml</dc:format>
    <dc:creator>
     <cc:Agent>
      <dc:title>Matplotlib v3.10.8, https://matplotlib.org/</dc:title>
     </cc:Agent>
    </dc:creator>
   </cc:Work>
  </rdf:RDF>
 </metadata>
 <defs>
  <style type="text/css">*{stroke-linejoin: round; stroke-linecap: butt}</style>
 </defs>
 <g id="figure_1">
  <g id="patch_1">
   <path d="M 0 120 
L 288 120 
L 288 0 
L 0 0 
L 0 120 
z
" style="fill: none; opacity: 0"/>
  </g>
  <g id="axes_1">
   <g id="patch_2">
    <path d="M 8.64 108 
L 279.36 108 
L 279.36 4.8 
L 8.64 4.8 
L 8.64 108 
z
" style="fill: none"/>
   </g>
   <g id="matplotlib.axis_1"/>
   <g id="matplotlib.axis_2"/>
   <g id="line2d_1">
    <path d="M 8.64 87.36 
L 279.36 87.36 
" clip-path="url(#p15a98b6f8f)" style="fill: none; stroke: #b2b2b2; stroke-opacity: 0.35; stroke-width: 0.5; stroke-linecap: square"/>
   </g>
   <g id="line2d_2">
    <path d="M 8.64 66.72 
L 279.36 66.72 
" clip-path="url(#p15a98b6f8f)" style="fill: none; stroke: #b2b2b2; stroke-opacity: 0.35; stroke-width: 0.5; stroke-linecap: square"/>
   </g>
   <g id="line2d_3">
    <path d="M 8.64 46.08 
L 279.36 46.08 
" clip-path="url(#p15a98b6f8f)" style="fill: none; stroke: #b2b2b2; stroke-opacity: 0.35; stroke-width: 0.5; stroke-linecap: square"/>
   </g>
   <g id="line2d_4">
    <path d="M 8.64 25.44 
L 279.36 25.44 
" clip-path="url(#p15a98b6f8f)" style="fill: none; stroke: #b2b2b2; stroke-opacity: 0.35; stroke-width: 0.5; stroke-linecap: square"/>
   </g>
   <g id="line2d_5">
    <path d="M 8.64 88.63968 
L 17.771685 90.0432 
L 26.90337 92.12784 
L 36.035054 91.16808 
L 45.166739 91.46736 
L 54.298424 91.73568 
L 63.430109 91.78728 
L 72.561794 94.0164 
L 81.693479 92.5716 
L 90.825163 91.76664 
L 99.956848 92.33424 
L 109.088533 94.36728 
L 118.220218 94.46016 
L 127.351903 97.71096 
L 136.483588 98.48496 
L 145.615272 97.85544 
L 153.324465 99.10416 
L 160.581301 100.16712 
L 169.708335 102.23112 
L 178.800914 100.54896 
L 188.141338 100.70376 
L 197.197666 100.68312 
L 206.381456 100.95144 
L 215.494222 101.28168 
L 224.593037 101.71512 
L 233.721974 101.84928 
L 242.743846 101.034 
L 251.393687 100.54896 
L 261.11111 101.04432 
L 269.095733 100.81728 
L 279.36 101.034 
" clip-path="url(#p15a98b6f8f)" style="fill: none; stroke: #bebebe; stroke-width: 0.5; stroke-linecap: round"/>
   </g>
   <g id="line2d_6">
    <path d="M 8.64 70.848 
L 17.771685 72.31344 
L 26.90337 76.01832 
L 36.035054 75.41976 
L 45.166739 75.83256 
L 54.298424 75.79128 
L 63.430109 75.82224 
L 72.561794 77.82432 
L 81.693479 76.14216 
L 90.825163 74.75928 
L 99.956848 74.96568 
L 109.088533 77.75208 
L 118.220218 79.48584 
L 127.351903 83.31456 
L 136.483588 85.90488 
L 145.615272 84.79032 
L 153.324465 85.84296 
L 160.581301 88.25784 
L 169.708335 91.41576 
L 178.800914 88.7532 
L 188.141338 88.65 
L 197.197666 88.55712 
L 206.381456 88.96992 
L 215.494222 89.7336 
L 224.593037 90.456 
L 233.721974 90.56952 
L 242.743846 89.15568 
L 251.393687 88.9596 
L 261.11111 90.6624 
L 269.095733 89.94 
L 279.36 90.00192 
" clip-path="url(#p15a98b6f8f)" style="fill: none; stroke: #4a8dff; stroke-width: 0.6"/>
   </g>
   <g id="line2d_7">
    <path d="M 8.64 79.5684 
L 17.771685 80.8068 
L 26.90337 85.20312 
L 36.035054 84.12984 
L 45.166739 84.03696 
L 54.298424 84.06792 
L 63.430109 84.3156 
L 72.561794 87.02976 
L 81.693479 85.21344 
L 90.825163 84.28464 
L 99.956848 84.32592 
L 109.088533 89.08344 
L 118.220218 89.5272 
L 127.351903 95.14128 
L 136.483588 96.98856 
L 145.615272 95.08968 
L 153.324465 97.71096 
L 160.581301 99.80592 
L 169.708335 101.79768 
L 178.800914 100.03296 
L 188.141338 100.518 
L 197.197666 99.98136 
L 206.381456 100.49736 
L 215.494222 100.78632 
L 224.593037 101.07528 
L 233.721974 101.26104 
L 242.743846 100.63152 
L 251.393687 100.38384 
L 261.11111 100.84824 
L 269.095733 100.65216 
L 279.36 101.034 
" clip-path="url(#p15a98b6f8f)" style="fill: none; stroke: #f5841e; stroke-width: 0.6"/>
   </g>
  </g>
 </g>
 <defs>
  <clipPath id="p15a98b6f8f">
   <rect x="8.64" y="4.8" width="270.72" height="103.2"/>
  </clipPath>
 </defs>
</svg>
