<?xml version="1.0" encoding="utf-8" standalone="no"?>
<!DOCTYPE svg PUBLIC "-//W3C//DTD SVG 1.1//EN"
  "http://www.w3.org/Graphics/SVG/1.1/DTD/svg11.dtd">
<svg xmlns:xlink="http://www.w3.org/1999/xlink" width="288pt" height="120pt" viewBox="0 0 288 120" xmlns="http://www.w3.org/2000/svg" version="1.1">
<desc id="nav-meta">{"window":"3m","count":4,"labels":["17.11","17.12","16.01","15.02"],"tick_utc":["2025-11-17T12:00:00Z","2025-12-17T12:00:00Z","2026-01-16T12:00:00Z","2026-02-15T02:00:29Z"],"w":720,"h":300}</desc>

 <metadata>
  <rdf:RDF xmlns:dc="http://purl.org/dc/elements/1.1/" xmlns:cc="http://creativecommons.org/ns#" xmlns:rdf="http://www.w3.org/1999/02/22-rdf-syntax-ns#">
   <cc:Work>
    <dc:type rdf:resource="http://purl.org/dc/dcmitype/StillImage"/>
    <dc:date>2026-02-15T07:26:24.874982</dc:date>
    <dc:format>image/svg+xml</dc:format>
    <dc:creator>
     <cc:Agent>
      <dc:title>Matplotlib v3.10.8, https://matplotlib.org/</dc:title>
     </cc:Agent>
    </dc:creator>
   </cc:Work>
  </rdf:RDF>
 </metadata>
 <defs>
  <style type="text/css">*{stroke-linejoin: round; stroke-linecap: butt}</style>
 </defs>
 <g id="figure_1">
  <g id="patch_1">
   <path d="M 0 120 
L 288 120 
L 288 0 
L 0 0 
L 0 120 
z
" style="fill: none; opacity: 0"/>
  </g>
  <g id="axes_1">
   <g id="patch_2">
    <path d="M 8.64 108 
L 279.36 108 
L 279.36 4.8 
L 8.64 4.8 
L 8.64 108 
z
" style="fill: none"/>
   </g>
   <g id="matplotlib.axis_1"/>
   <g id="matplotlib.axis_2"/>
   <g id="line2d_1">
    <path d="M 8.64 87.36 
L 279.36 87.36 
" clip-path="url(#pcfdaac070c)" style="fill: none; stroke: #b2b2b2; stroke-opacity: 0.35; stroke-width: 0.5; stroke-linecap: square"/>
   </g>
   <g id="line2d_2">
    <path d="M 8.64 66.72 
L 279.36 66.72 
" clip-path="url(#pcfdaac070c)" style="fill: none; stroke: #b2b2b2; stroke-opacity: 0.35; stroke-width: 0.5; stroke-linecap: square"/>
   </g>
   <g id="line2d_3">
    <path d="M 8.64 46.08 
L 279.36 46.08 
" clip-path="url(#pcfdaac070c)" style="fill: none; stroke: #b2b2b2; stroke-opacity: 0.35; stroke-width: 0.5; stroke-linecap: square"/>
   </g>
   <g id="line2d_4">
    <path d="M 8.64 25.44 
L 279.36 25.44 
" clip-path="url(#pcfdaac070c)" style="fill: none; stroke: #b2b2b2; stroke-opacity: 0.35; stroke-width: 0.5; stroke-linecap: square"/>
   </g>
   <g id="line2d_5">
    <path d="M 8.64 88.93896 
L 11.661979 90.79656 
L 14.683959 88.09272 
L 17.705938 89.22792 
L 20.727918 90.00192 
L 23.749897 91.39512 
L 26.771876 91.63248 
L 29.793856 90.75528 
L 32.815835 88.7016 
L 35.837814 88.52616 
L 38.859794 87.45288 
L 41.881773 88.0308 
L 44.903753 88.94928 
L 47.925732 89.3208 
L 50.947711 89.7336 
L 53.969691 91.86984 
L 56.99167 88.60872 
L 60.013649 86.87496 
L 63.035629 88.52616 
L 66.057608 90.11544 
L 69.079588 90.38376 
L 72.101567 90.53856 
L 75.123546 90.08448 
L 78.145526 88.79448 
L 81.167505 89.20728 
L 84.189484 89.22792 
L 87.211464 90.31152 
L 90.233443 90.10512 
L 93.255423 91.09584 
L 96.277402 91.61184 
L 99.299381 91.31256 
L 102.321361 92.87088 
L 105.34334 93.8616 
L 108.365319 92.02464 
L 111.387299 92.13816 
L 114.409278 92.07624 
L 117.431258 92.14848 
L 120.453237 92.64384 
L 123.475216 93.01536 
L 126.497196 93.69648 
L 129.519175 93.11856 
L 132.541154 92.44776 
L 135.563134 92.30328 
L 138.585113 92.87088 
L 141.607093 92.38584 
L 144.629072 92.47872 
L 147.651051 91.88016 
L 150.673031 90.42504 
L 153.69501 90.08448 
L 156.716989 89.92968 
L 159.738969 88.76352 
L 162.760948 87.94824 
L 165.782928 89.2692 
L 168.804907 88.72224 
L 171.826886 89.39304 
L 174.848866 89.40336 
L 177.870845 88.41264 
L 180.892824 88.4952 
L 183.914804 86.86464 
L 186.936783 86.42088 
L 189.958763 87.62832 
L 192.980742 86.93688 
L 196.002721 87.23616 
L 199.024701 88.63968 
L 202.04668 90.0432 
L 205.068659 92.12784 
L 208.090639 91.16808 
L 211.112618 91.46736 
L 214.134598 91.73568 
L 217.156577 91.78728 
L 220.178556 94.0164 
L 223.200536 92.5716 
L 226.222515 91.76664 
L 229.244494 92.33424 
L 232.266474 94.36728 
L 235.288453 94.46016 
L 238.310433 97.71096 
L 241.332412 98.48496 
L 244.354391 97.85544 
L 246.90562 99.10416 
L 249.30715 100.16712 
L 252.32759 102.23112 
L 255.336628 100.54896 
L 258.427686 100.70376 
L 261.424727 100.68312 
L 264.46395 100.95144 
L 267.479669 101.28168 
L 270.49077 101.71512 
L 273.51184 101.84928 
L 276.497479 101.034 
L 279.36 100.54896 
" clip-path="url(#pcfdaac070c)" style="fill: none; stroke: #bebebe; stroke-width: 0.5; stroke-linecap: round"/>
   </g>
   <g id="line2d_6">
    <path d="M 8.64 73.56216 
L 11.661979 74.74896 
L 14.683959 73.3248 
L 17.705938 74.80056 
L 20.727918 77.556 
L 23.749897 78.55704 
L 26.771876 78.50544 
L 29.793856 78.04104 
L 32.815835 75.76032 
L 35.837814 75.73968 
L 38.859794 74.65608 
L 41.881773 74.83152 
L 44.903753 74.57352 
L 47.925732 75.20304 
L 50.947711 75.17208 
L 53.969691 78.05136 
L 56.99167 75.1308 
L 60.013649 72.16896 
L 63.035629 73.08744 
L 66.057608 74.72832 
L 69.079588 74.48064 
L 72.101567 74.28456 
L 75.123546 73.21128 
L 78.145526 70.2804 
L 81.167505 70.2288 
L 84.189484 71.56008 
L 87.211464 73.79952 
L 90.233443 73.35576 
L 93.255423 74.0988 
L 96.277402 75.5952 
L 99.299381 75.5952 
L 102.321361 77.61792 
L 105.34334 77.63856 
L 108.365319 75.40944 
L 111.387299 75.40944 
L 114.409278 75.04824 
L 117.431258 74.98632 
L 120.453237 75.58488 
L 123.475216 75.87384 
L 126.497196 76.49304 
L 129.519175 76.15248 
L 132.541154 75.82224 
L 135.563134 75.84288 
L 138.585113 76.03896 
L 141.607093 75.51264 
L 144.629072 75.56424 
L 147.651051 75.05856 
L 150.673031 73.26288 
L 153.69501 73.20096 
L 156.716989 73.00488 
L 159.738969 71.68392 
L 162.760948 70.6932 
L 165.782928 72.62304 
L 168.804907 73.52088 
L 171.826886 73.83048 
L 174.848866 73.8408 
L 177.870845 73.29384 
L 180.892824 73.72728 
L 183.914804 70.32168 
L 186.936783 69.77472 
L 189.958763 70.34232 
L 192.980742 70.67256 
L 196.002721 70.51776 
L 199.024701 70.848 
L 202.04668 72.31344 
L 205.068659 76.01832 
L 208.090639 75.41976 
L 211.112618 75.83256 
L 214.134598 75.79128 
L 217.156577 75.82224 
L 220.178556 77.82432 
L 223.200536 76.14216 
L 226.222515 74.75928 
L 229.244494 74.96568 
L 232.266474 77.75208 
L 235.288453 79.48584 
L 238.310433 83.31456 
L 241.332412 85.90488 
L 244.354391 84.79032 
L 246.90562 85.84296 
L 249.30715 88.25784 
L 252.32759 91.41576 
L 255.336628 88.7532 
L 258.427686 88.65 
L 261.424727 88.55712 
L 264.46395 88.96992 
L 267.479669 89.7336 
L 270.49077 90.456 
L 273.51184 90.56952 
L 276.497479 89.15568 
L 279.36 88.9596 
" clip-path="url(#pcfdaac070c)" style="fill: none; stroke: #4a8dff; stroke-width: 0.6"/>
   </g>
   <g id="line2d_7">
    <path d="M 8.64 78.88728 
L 11.661979 81.34344 
L 14.683959 80.53848 
L 17.705938 82.0452 
L 20.727918 86.92656 
L 23.749897 88.58808 
L 26.771876 88.96992 
L 29.793856 86.7924 
L 32.815835 85.296 
L 35.837814 86.24544 
L 38.859794 82.96368 
L 41.881773 82.13808 
L 44.903753 82.47864 
L 47.925732 82.58184 
L 50.947711 83.03592 
L 53.969691 87.3084 
L 56.99167 82.06584 
L 60.013649 79.71288 
L 63.035629 81.24024 
L 66.057608 84.17112 
L 69.079588 84.24336 
L 72.101567 83.29392 
L 75.123546 82.8192 
L 78.145526 80.64168 
L 81.167505 81.38472 
L 84.189484 80.87904 
L 87.211464 83.13912 
L 90.233443 83.19072 
L 93.255423 85.296 
L 96.277402 87.17424 
L 99.299381 85.71912 
L 102.321361 87.53544 
L 105.34334 88.17528 
L 108.365319 85.41984 
L 111.387299 85.17216 
L 114.409278 84.9348 
L 117.431258 85.01736 
L 120.453237 86.14224 
L 123.475216 85.90488 
L 126.497196 86.328 
L 129.519175 86.24544 
L 132.541154 85.72944 
L 135.563134 85.7088 
L 138.585113 86.40024 
L 141.607093 85.09992 
L 144.629072 86.02872 
L 147.651051 84.78 
L 150.673031 83.53128 
L 153.69501 82.83984 
L 156.716989 82.03488 
L 159.738969 79.39296 
L 162.760948 79.66128 
L 165.782928 82.15872 
L 168.804907 82.43736 
L 171.826886 82.93272 
L 174.848866 83.00496 
L 177.870845 82.6128 
L 180.892824 82.28256 
L 183.914804 78.01008 
L 186.936783 76.19376 
L 189.958763 77.66952 
L 192.980742 77.74176 
L 196.002721 78.1752 
L 199.024701 79.5684 
L 202.04668 80.8068 
L 205.068659 85.20312 
L 208.090639 84.12984 
L 211.112618 84.03696 
L 214.134598 84.06792 
L 217.156577 84.3156 
L 220.178556 87.02976 
L 223.200536 85.21344 
L 226.222515 84.28464 
L 229.244494 84.32592 
L 232.266474 89.08344 
L 235.288453 89.5272 
L 238.310433 95.14128 
L 241.332412 96.98856 
L 244.354391 95.08968 
L 246.90562 97.71096 
L 249.30715 99.80592 
L 252.32759 101.79768 
L 255.336628 100.03296 
L 258.427686 100.518 
L 261.424727 99.98136 
L 264.46395 100.49736 
L 267.479669 100.78632 
L 270.49077 101.07528 
L 273.51184 101.26104 
L 276.497479 100.63152 
L 279.36 100.38384 
" clip-path="url(#pcfdaac070c)" style="fill: none; stroke: #f5841e; stroke-width: 0.6"/>
   </g>
  </g>
 </g>
 <defs>
  <clipPath id="pcfdaac070c">
   <rect x="8.64" y="4.8" width="270.72" height="103.2"/>
  </clipPath>
 </defs>
</svg>
