<?xml version="1.0" encoding="utf-8" standalone="no"?>
<!DOCTYPE svg PUBLIC "-//W3C//DTD SVG 1.1//EN"
  "http://www.w3.org/Graphics/SVG/1.1/DTD/svg11.dtd">
<svg xmlns:xlink="http://www.w3.org/1999/xlink" width="288pt" height="120pt" viewBox="0 0 288 120" xmlns="http://www.w3.org/2000/svg" version="1.1">
<desc id="nav-meta">{"window":"1m","count":4,"labels":["02.02","12.02","22.02","04.03"],"tick_utc":["2026-02-02T12:00:00Z","2026-02-12T03:34:13Z","2026-02-22T03:28:03Z","2026-03-04T03:14:13Z"],"w":720,"h":300}</desc>

 <metadata>
  <rdf:RDF xmlns:dc="http://purl.org/dc/elements/1.1/" xmlns:cc="http://creativecommons.org/ns#" xmlns:rdf="http://www.w3.org/1999/02/22-rdf-syntax-ns#">
   <cc:Work>
    <dc:type rdf:resource="http://purl.org/dc/dcmitype/StillImage"/>
    <dc:date>2026-03-04T07:26:13.943466</dc:date>
    <dc:format>image/svg+xml</dc:format>
    <dc:creator>
     <cc:Agent>
      <dc:title>Matplotlib v3.10.8, https://matplotlib.org/</dc:title>
     </cc:Agent>
    </dc:creator>
   </cc:Work>
  </rdf:RDF>
 </metadata>
 <defs>
  <style type="text/css">*{stroke-linejoin: round; stroke-linecap: butt}</style>
 </defs>
 <g id="figure_1">
  <g id="patch_1">
   <path d="M 0 120 
L 288 120 
L 288 0 
L 0 0 
L 0 120 
z
" style="fill: none; opacity: 0"/>
  </g>
  <g id="axes_1">
   <g id="patch_2">
    <path d="M 8.64 108 
L 279.36 108 
L 279.36 4.8 
L 8.64 4.8 
L 8.64 108 
z
" style="fill: none"/>
   </g>
   <g id="matplotlib.axis_1"/>
   <g id="matplotlib.axis_2"/>
   <g id="line2d_1">
    <path d="M 8.64 87.36 
L 279.36 87.36 
" clip-path="url(#p2c2194d8ac)" style="fill: none; stroke: #b2b2b2; stroke-opacity: 0.35; stroke-width: 0.5; stroke-linecap: square"/>
   </g>
   <g id="line2d_2">
    <path d="M 8.64 66.72 
L 279.36 66.72 
" clip-path="url(#p2c2194d8ac)" style="fill: none; stroke: #b2b2b2; stroke-opacity: 0.35; stroke-width: 0.5; stroke-linecap: square"/>
   </g>
   <g id="line2d_3">
    <path d="M 8.64 46.08 
L 279.36 46.08 
" clip-path="url(#p2c2194d8ac)" style="fill: none; stroke: #b2b2b2; stroke-opacity: 0.35; stroke-width: 0.5; stroke-linecap: square"/>
   </g>
   <g id="line2d_4">
    <path d="M 8.64 25.44 
L 279.36 25.44 
" clip-path="url(#p2c2194d8ac)" style="fill: none; stroke: #b2b2b2; stroke-opacity: 0.35; stroke-width: 0.5; stroke-linecap: square"/>
   </g>
   <g id="line2d_5">
    <path d="M 8.64 98.48496 
L 17.775184 97.85544 
L 25.48733 99.10416 
L 32.746946 100.16712 
L 41.877477 102.23112 
L 50.97354 100.54896 
L 60.317543 100.70376 
L 69.37734 100.68312 
L 78.564649 100.95144 
L 87.680906 101.28168 
L 96.783208 101.71512 
L 105.915642 101.84928 
L 114.940971 101.034 
L 123.594125 100.54896 
L 133.315272 101.04432 
L 141.302953 100.81728 
L 151.571153 101.034 
L 160.695235 101.4984 
L 169.777024 101.33328 
L 178.856382 101.1372 
L 188.095922 101.06496 
L 197.258596 102.09696 
L 205.622046 102.05568 
L 215.49608 101.4984 
L 224.590557 100.60056 
L 233.708401 100.80696 
L 242.73595 101.45712 
L 252.078684 100.55928 
L 261.119555 101.10624 
L 270.27599 100.8792 
L 279.36 100.74504 
" clip-path="url(#p2c2194d8ac)" style="fill: none; stroke: #bebebe; stroke-width: 0.5; stroke-linecap: round"/>
   </g>
   <g id="line2d_6">
    <path d="M 8.64 85.90488 
L 17.775184 84.79032 
L 25.48733 85.84296 
L 32.746946 88.25784 
L 41.877477 91.41576 
L 50.97354 88.7532 
L 60.317543 88.65 
L 69.37734 88.55712 
L 78.564649 88.96992 
L 87.680906 89.7336 
L 96.783208 90.456 
L 105.915642 90.56952 
L 114.940971 89.15568 
L 123.594125 88.9596 
L 133.315272 90.6624 
L 141.302953 89.94 
L 151.571153 90.00192 
L 160.695235 90.3528 
L 169.777024 90.62112 
L 178.856382 90.5076 
L 188.095922 90.3528 
L 197.258596 92.004 
L 205.622046 92.13816 
L 215.49608 91.25064 
L 224.590557 89.166 
L 233.708401 89.56848 
L 242.73595 90.93072 
L 252.078684 89.41368 
L 261.119555 90.37344 
L 270.27599 89.79552 
L 279.36 90.23928 
" clip-path="url(#p2c2194d8ac)" style="fill: none; stroke: #4a8dff; stroke-width: 0.6"/>
   </g>
   <g id="line2d_7">
    <path d="M 8.64 96.98856 
L 17.775184 95.08968 
L 25.48733 97.71096 
L 32.746946 99.80592 
L 41.877477 101.79768 
L 50.97354 100.03296 
L 60.317543 100.518 
L 69.37734 99.98136 
L 78.564649 100.49736 
L 87.680906 100.78632 
L 96.783208 101.07528 
L 105.915642 101.26104 
L 114.940971 100.63152 
L 123.594125 100.38384 
L 133.315272 100.84824 
L 141.302953 100.65216 
L 151.571153 101.034 
L 160.695235 101.19912 
L 169.777024 101.10624 
L 178.856382 100.97208 
L 188.095922 100.91016 
L 197.258596 101.7564 
L 205.622046 101.84928 
L 215.49608 101.56032 
L 224.590557 100.85856 
L 233.708401 101.12688 
L 242.73595 101.4468 
L 252.078684 101.02368 
L 261.119555 101.30232 
L 270.27599 100.81728 
L 279.36 100.79664 
" clip-path="url(#p2c2194d8ac)" style="fill: none; stroke: #f5841e; stroke-width: 0.6"/>
   </g>
  </g>
 </g>
 <defs>
  <clipPath id="p2c2194d8ac">
   <rect x="8.64" y="4.8" width="270.72" height="103.2"/>
  </clipPath>
 </defs>
</svg>
