<?xml version="1.0" encoding="utf-8" standalone="no"?>
<!DOCTYPE svg PUBLIC "-//W3C//DTD SVG 1.1//EN"
  "http://www.w3.org/Graphics/SVG/1.1/DTD/svg11.dtd">
<svg xmlns:xlink="http://www.w3.org/1999/xlink" width="288pt" height="120pt" viewBox="0 0 288 120" xmlns="http://www.w3.org/2000/svg" version="1.1">
<desc id="nav-meta">{"window":"1m","count":4,"labels":["14.01","24.01","03.02","13.02"],"tick_utc":["2026-01-14T12:00:00Z","2026-01-24T12:00:00Z","2026-02-03T12:00:00Z","2026-02-13T03:33:47Z"],"w":720,"h":300}</desc>

 <metadata>
  <rdf:RDF xmlns:dc="http://purl.org/dc/elements/1.1/" xmlns:cc="http://creativecommons.org/ns#" xmlns:rdf="http://www.w3.org/1999/02/22-rdf-syntax-ns#">
   <cc:Work>
    <dc:type rdf:resource="http://purl.org/dc/dcmitype/StillImage"/>
    <dc:date>2026-02-13T07:37:18.005350</dc:date>
    <dc:format>image/svg+xml</dc:format>
    <dc:creator>
     <cc:Agent>
      <dc:title>Matplotlib v3.10.8, https://matplotlib.org/</dc:title>
     </cc:Agent>
    </dc:creator>
   </cc:Work>
  </rdf:RDF>
 </metadata>
 <defs>
  <style type="text/css">*{stroke-linejoin: round; stroke-linecap: butt}</style>
 </defs>
 <g id="figure_1">
  <g id="patch_1">
   <path d="M 0 120 
L 288 120 
L 288 0 
L 0 0 
L 0 120 
z
" style="fill: none; opacity: 0"/>
  </g>
  <g id="axes_1">
   <g id="patch_2">
    <path d="M 8.64 108 
L 279.36 108 
L 279.36 4.8 
L 8.64 4.8 
L 8.64 108 
z
" style="fill: none"/>
   </g>
   <g id="matplotlib.axis_1"/>
   <g id="matplotlib.axis_2"/>
   <g id="line2d_1">
    <path d="M 8.64 87.36 
L 279.36 87.36 
" clip-path="url(#p1624fb443f)" style="fill: none; stroke: #b2b2b2; stroke-opacity: 0.35; stroke-width: 0.5; stroke-linecap: square"/>
   </g>
   <g id="line2d_2">
    <path d="M 8.64 66.72 
L 279.36 66.72 
" clip-path="url(#p1624fb443f)" style="fill: none; stroke: #b2b2b2; stroke-opacity: 0.35; stroke-width: 0.5; stroke-linecap: square"/>
   </g>
   <g id="line2d_3">
    <path d="M 8.64 46.08 
L 279.36 46.08 
" clip-path="url(#p1624fb443f)" style="fill: none; stroke: #b2b2b2; stroke-opacity: 0.35; stroke-width: 0.5; stroke-linecap: square"/>
   </g>
   <g id="line2d_4">
    <path d="M 8.64 25.44 
L 279.36 25.44 
" clip-path="url(#p1624fb443f)" style="fill: none; stroke: #b2b2b2; stroke-opacity: 0.35; stroke-width: 0.5; stroke-linecap: square"/>
   </g>
   <g id="line2d_5">
    <path d="M 8.64 86.86464 
L 17.770997 86.42088 
L 26.901994 87.62832 
L 36.03299 86.93688 
L 45.163987 87.23616 
L 54.294984 88.63968 
L 63.425981 90.0432 
L 72.556978 92.12784 
L 81.687975 91.16808 
L 90.818971 91.46736 
L 99.949968 91.73568 
L 109.080965 91.78728 
L 118.211962 94.0164 
L 127.342959 92.5716 
L 136.473956 91.76664 
L 145.604952 92.33424 
L 154.735949 94.36728 
L 163.866946 94.46016 
L 172.997943 97.71096 
L 182.12894 98.48496 
L 191.259936 97.85544 
L 198.968548 99.10416 
L 206.224837 100.16712 
L 215.351184 102.23112 
L 224.443078 100.54896 
L 233.782798 100.70376 
L 242.838443 100.68312 
L 252.021542 100.95144 
L 261.133621 101.28168 
L 270.231751 101.71512 
L 279.36 101.84928 
" clip-path="url(#p1624fb443f)" style="fill: none; stroke: #bebebe; stroke-width: 0.5; stroke-linecap: round"/>
   </g>
   <g id="line2d_6">
    <path d="M 8.64 70.32168 
L 17.770997 69.77472 
L 26.901994 70.34232 
L 36.03299 70.67256 
L 45.163987 70.51776 
L 54.294984 70.848 
L 63.425981 72.31344 
L 72.556978 76.01832 
L 81.687975 75.41976 
L 90.818971 75.83256 
L 99.949968 75.79128 
L 109.080965 75.82224 
L 118.211962 77.82432 
L 127.342959 76.14216 
L 136.473956 74.75928 
L 145.604952 74.96568 
L 154.735949 77.75208 
L 163.866946 79.48584 
L 172.997943 83.31456 
L 182.12894 85.90488 
L 191.259936 84.79032 
L 198.968548 85.84296 
L 206.224837 88.25784 
L 215.351184 91.41576 
L 224.443078 88.7532 
L 233.782798 88.65 
L 242.838443 88.55712 
L 252.021542 88.96992 
L 261.133621 89.7336 
L 270.231751 90.456 
L 279.36 90.56952 
" clip-path="url(#p1624fb443f)" style="fill: none; stroke: #4a8dff; stroke-width: 0.6"/>
   </g>
   <g id="line2d_7">
    <path d="M 8.64 78.01008 
L 17.770997 76.19376 
L 26.901994 77.66952 
L 36.03299 77.74176 
L 45.163987 78.1752 
L 54.294984 79.5684 
L 63.425981 80.8068 
L 72.556978 85.20312 
L 81.687975 84.12984 
L 90.818971 84.03696 
L 99.949968 84.06792 
L 109.080965 84.3156 
L 118.211962 87.02976 
L 127.342959 85.21344 
L 136.473956 84.28464 
L 145.604952 84.32592 
L 154.735949 89.08344 
L 163.866946 89.5272 
L 172.997943 95.14128 
L 182.12894 96.98856 
L 191.259936 95.08968 
L 198.968548 97.71096 
L 206.224837 99.80592 
L 215.351184 101.79768 
L 224.443078 100.03296 
L 233.782798 100.518 
L 242.838443 99.98136 
L 252.021542 100.49736 
L 261.133621 100.78632 
L 270.231751 101.07528 
L 279.36 101.26104 
" clip-path="url(#p1624fb443f)" style="fill: none; stroke: #f5841e; stroke-width: 0.6"/>
   </g>
  </g>
 </g>
 <defs>
  <clipPath id="p1624fb443f">
   <rect x="8.64" y="4.8" width="270.72" height="103.2"/>
  </clipPath>
 </defs>
</svg>
