<?xml version="1.0" encoding="utf-8" standalone="no"?>
<!DOCTYPE svg PUBLIC "-//W3C//DTD SVG 1.1//EN"
  "http://www.w3.org/Graphics/SVG/1.1/DTD/svg11.dtd">
<svg xmlns:xlink="http://www.w3.org/1999/xlink" width="288pt" height="120pt" viewBox="0 0 288 120" xmlns="http://www.w3.org/2000/svg" version="1.1">
<desc id="nav-meta">{"window":"3m","count":4,"labels":["09.03","08.04","07.05","06.06"],"tick_utc":["2026-03-09T03:23:53Z","2026-04-08T03:43:16Z","2026-05-07T04:25:17Z","2026-06-06T04:41:00Z"],"w":720,"h":300}</desc>

 <metadata>
  <rdf:RDF xmlns:dc="http://purl.org/dc/elements/1.1/" xmlns:cc="http://creativecommons.org/ns#" xmlns:rdf="http://www.w3.org/1999/02/22-rdf-syntax-ns#">
   <cc:Work>
    <dc:type rdf:resource="http://purl.org/dc/dcmitype/StillImage"/>
    <dc:date>2026-06-06T19:58:14.275542</dc:date>
    <dc:format>image/svg+xml</dc:format>
    <dc:creator>
     <cc:Agent>
      <dc:title>Matplotlib v3.10.9, https://matplotlib.org/</dc:title>
     </cc:Agent>
    </dc:creator>
   </cc:Work>
  </rdf:RDF>
 </metadata>
 <defs>
  <style type="text/css">*{stroke-linejoin: round; stroke-linecap: butt}</style>
 </defs>
 <g id="figure_1">
  <g id="patch_1">
   <path d="M 0 120 
L 288 120 
L 288 0 
L 0 0 
L 0 120 
z
" style="fill: none; opacity: 0"/>
  </g>
  <g id="axes_1">
   <g id="patch_2">
    <path d="M 8.64 108 
L 279.36 108 
L 279.36 4.8 
L 8.64 4.8 
L 8.64 108 
z
" style="fill: none"/>
   </g>
   <g id="matplotlib.axis_1"/>
   <g id="matplotlib.axis_2"/>
   <g id="line2d_1">
    <path d="M 8.64 87.36 
L 279.36 87.36 
" clip-path="url(#p854e287ae8)" style="fill: none; stroke: #b2b2b2; stroke-opacity: 0.35; stroke-width: 0.5; stroke-linecap: square"/>
   </g>
   <g id="line2d_2">
    <path d="M 8.64 66.72 
L 279.36 66.72 
" clip-path="url(#p854e287ae8)" style="fill: none; stroke: #b2b2b2; stroke-opacity: 0.35; stroke-width: 0.5; stroke-linecap: square"/>
   </g>
   <g id="line2d_3">
    <path d="M 8.64 46.08 
L 279.36 46.08 
" clip-path="url(#p854e287ae8)" style="fill: none; stroke: #b2b2b2; stroke-opacity: 0.35; stroke-width: 0.5; stroke-linecap: square"/>
   </g>
   <g id="line2d_4">
    <path d="M 8.64 25.44 
L 279.36 25.44 
" clip-path="url(#p854e287ae8)" style="fill: none; stroke: #b2b2b2; stroke-opacity: 0.35; stroke-width: 0.5; stroke-linecap: square"/>
   </g>
   <g id="line2d_5">
    <path d="M 8.64 101.26104 
L 11.660441 100.78632 
L 14.699213 100.91016 
L 17.751145 100.99272 
L 20.785237 100.38384 
L 23.82116 100.50768 
L 26.919289 100.60056 
L 29.967842 99.76464 
L 32.954611 99.49632 
L 36.017767 99.40344 
L 39.05858 100.09488 
L 42.068958 100.3632 
L 45.091123 100.19808 
L 48.17655 100.47672 
L 51.223661 100.79664 
L 54.235482 100.26 
L 57.501865 99.83688 
L 60.352398 100.13616 
L 63.396202 100.80696 
L 66.407108 101.38488 
L 69.488489 101.3436 
L 72.537148 101.292 
L 75.557941 101.28168 
L 78.623981 101.28168 
L 81.623909 101.8596 
L 84.667361 101.88024 
L 87.681293 101.72544 
L 90.767037 101.68416 
L 93.814852 101.47776 
L 96.835082 101.78736 
L 99.879976 101.09592 
L 102.909354 101.46744 
L 105.977294 101.3436 
L 108.970784 101.05464 
L 112.065289 101.3952 
L 115.120844 101.47776 
L 118.141461 100.86888 
L 121.179107 101.26104 
L 124.232235 100.99272 
L 127.266011 100.61088 
L 130.272449 100.44576 
L 133.352563 100.94112 
L 136.400061 101.09592 
L 139.426695 101.00304 
L 142.457234 100.69344 
L 145.509517 100.9308 
L 148.557543 100.92048 
L 151.561236 100.81728 
L 154.648493 100.8792 
L 157.721218 100.64184 
L 160.767555 101.1888 
L 163.79922 101.09592 
L 166.84429 101.37456 
L 169.917473 101.21976 
L 172.879859 101.20944 
L 175.981542 101.23008 
L 179.020455 100.92048 
L 181.993467 101.06496 
L 185.086987 100.70376 
L 188.127765 100.55928 
L 191.117137 100.53864 
L 194.168224 99.60984 
L 197.26945 99.72336 
L 200.333414 99.44472 
L 203.331161 99.25896 
L 206.38559 99.32088 
L 209.422181 100.22904 
L 212.477139 100.01232 
L 215.478298 100.43544 
L 218.563655 100.75536 
L 221.633144 101.02368 
L 224.651333 101.02368 
L 227.702174 101.17848 
L 230.759453 100.7244 
L 233.776129 100.75536 
L 236.774333 101.11656 
L 239.862435 100.91016 
L 242.942408 100.89984 
L 245.93632 101.1372 
L 249.007497 101.2404 
L 252.037755 101.6532 
L 255.079975 101.4984 
L 258.076104 101.48808 
L 261.178138 101.32296 
L 264.263073 101.51904 
L 267.273134 101.7048 
L 270.347303 102.54072 
L 273.376856 103.08768 
L 276.366757 103.36632 
L 279.36 104.22288 
" clip-path="url(#p854e287ae8)" style="fill: none; stroke: #bebebe; stroke-width: 0.5; stroke-linecap: round"/>
   </g>
   <g id="line2d_6">
    <path d="M 8.64 90.18768 
L 11.660441 89.2692 
L 14.699213 89.54784 
L 17.751145 89.49624 
L 20.785237 88.31976 
L 23.82116 88.45392 
L 26.919289 88.46424 
L 29.967842 86.38992 
L 32.954611 84.80064 
L 36.017767 84.8316 
L 39.05858 86.586 
L 42.068958 87.74184 
L 45.091123 87.618 
L 48.17655 88.19592 
L 51.223661 89.08344 
L 54.235482 87.89664 
L 57.501865 87.3084 
L 60.352398 87.65928 
L 63.396202 88.96992 
L 66.407108 90.07416 
L 69.488489 89.76456 
L 72.537148 89.3724 
L 75.557941 89.00088 
L 78.623981 88.42296 
L 81.623909 88.81512 
L 84.667361 89.10408 
L 87.681293 89.14536 
L 90.767037 89.07312 
L 93.814852 87.9792 
L 96.835082 88.29912 
L 99.879976 86.38992 
L 102.909354 87.24648 
L 105.977294 87.1536 
L 108.970784 86.21448 
L 112.065289 86.66856 
L 115.120844 87.01944 
L 118.141461 84.44976 
L 121.179107 85.05864 
L 124.232235 84.58392 
L 127.266011 85.04832 
L 130.272449 83.71704 
L 133.352563 84.86256 
L 136.400061 85.6572 
L 139.426695 85.27536 
L 142.457234 84.49104 
L 145.509517 84.86256 
L 148.557543 85.32696 
L 151.561236 85.17216 
L 154.648493 85.31664 
L 157.721218 84.11952 
L 160.767555 85.66752 
L 163.79922 85.26504 
L 166.84429 86.26608 
L 169.917473 85.77072 
L 172.879859 85.38888 
L 175.981542 85.3992 
L 179.020455 84.09888 
L 181.993467 84.22272 
L 185.086987 84.34656 
L 188.127765 85.06896 
L 191.117137 85.7604 
L 194.168224 85.0896 
L 197.26945 85.01736 
L 200.333414 84.9348 
L 203.331161 85.296 
L 206.38559 85.35792 
L 209.422181 86.1732 
L 212.477139 85.92552 
L 215.478298 86.55504 
L 218.563655 87.13296 
L 221.633144 88.10304 
L 224.651333 87.9276 
L 227.702174 88.26816 
L 230.759453 87.78312 
L 233.776129 87.95856 
L 236.774333 88.94928 
L 239.862435 88.14432 
L 242.942408 88.33008 
L 245.93632 88.52616 
L 249.007497 88.86672 
L 252.037755 90.22896 
L 255.079975 89.82648 
L 258.076104 89.87808 
L 261.178138 89.46528 
L 264.263073 90.0432 
L 267.273134 89.96064 
L 270.347303 91.99368 
L 273.376856 93.05664 
L 276.366757 93.74808 
L 279.36 97.02984 
" clip-path="url(#p854e287ae8)" style="fill: none; stroke: #4a8dff; stroke-width: 0.6"/>
   </g>
   <g id="line2d_7">
    <path d="M 8.64 101.1372 
L 11.660441 100.21872 
L 14.699213 100.37352 
L 17.751145 100.4664 
L 20.785237 99.88848 
L 23.82116 99.94008 
L 26.919289 99.81624 
L 29.967842 98.93904 
L 32.954611 98.3508 
L 36.017767 98.52624 
L 39.05858 99.78528 
L 42.068958 100.12584 
L 45.091123 100.03296 
L 48.17655 100.45608 
L 51.223661 100.83792 
L 54.235482 100.11552 
L 57.501865 99.87816 
L 60.352398 100.002 
L 63.396202 100.64184 
L 66.407108 101.41584 
L 69.488489 101.21976 
L 72.537148 101.14752 
L 75.557941 101.00304 
L 78.623981 100.86888 
L 81.623909 101.21976 
L 84.667361 101.28168 
L 87.681293 101.20944 
L 90.767037 101.14752 
L 93.814852 100.55928 
L 96.835082 100.65216 
L 99.879976 99.80592 
L 102.909354 99.96072 
L 105.977294 99.6408 
L 108.970784 99.1764 
L 112.065289 99.70272 
L 115.120844 99.94008 
L 118.141461 98.57784 
L 121.179107 98.65008 
L 124.232235 98.38176 
L 127.266011 98.48496 
L 130.272449 96.70992 
L 133.352563 98.05152 
L 136.400061 98.48496 
L 139.426695 97.96896 
L 142.457234 96.32808 
L 145.509517 96.20424 
L 148.557543 96.16296 
L 151.561236 96.1836 
L 154.648493 96.50352 
L 157.721218 94.76976 
L 160.767555 97.19496 
L 163.79922 96.9576 
L 166.84429 97.9896 
L 169.917473 96.89568 
L 172.879859 95.45088 
L 175.981542 95.67792 
L 179.020455 93.43848 
L 181.993467 92.90184 
L 185.086987 92.25168 
L 188.127765 92.87088 
L 191.117137 94.2744 
L 194.168224 93.1392 
L 197.26945 92.97408 
L 200.333414 92.9844 
L 203.331161 92.60256 
L 206.38559 92.53032 
L 209.422181 94.54272 
L 212.477139 92.85024 
L 215.478298 94.82136 
L 218.563655 95.75016 
L 221.633144 96.97824 
L 224.651333 97.08144 
L 227.702174 97.23624 
L 230.759453 95.94624 
L 233.776129 96.30744 
L 236.774333 98.08248 
L 239.862435 97.2672 
L 242.942408 96.61704 
L 245.93632 97.23624 
L 249.007497 98.08248 
L 252.037755 99.18672 
L 255.079975 99.03192 
L 258.076104 99.1248 
L 261.178138 98.74296 
L 264.263073 99.09384 
L 267.273134 100.0536 
L 270.347303 101.23008 
L 273.376856 101.99376 
L 276.366757 102.08664 
L 279.36 102.8916 
" clip-path="url(#p854e287ae8)" style="fill: none; stroke: #f5841e; stroke-width: 0.6"/>
   </g>
  </g>
 </g>
 <defs>
  <clipPath id="p854e287ae8">
   <rect x="8.64" y="4.8" width="270.72" height="103.2"/>
  </clipPath>
 </defs>
</svg>
