<?xml version="1.0" encoding="utf-8" standalone="no"?>
<!DOCTYPE svg PUBLIC "-//W3C//DTD SVG 1.1//EN"
  "http://www.w3.org/Graphics/SVG/1.1/DTD/svg11.dtd">
<svg xmlns:xlink="http://www.w3.org/1999/xlink" width="288pt" height="120pt" viewBox="0 0 288 120" xmlns="http://www.w3.org/2000/svg" version="1.1">
<desc id="nav-meta">{"window":"3m","count":4,"labels":["14.03","13.04","12.05","11.06"],"tick_utc":["2026-03-14T03:15:02Z","2026-04-13T04:02:42Z","2026-05-12T04:26:58Z","2026-06-11T05:14:13Z"],"w":720,"h":300}</desc>

 <metadata>
  <rdf:RDF xmlns:dc="http://purl.org/dc/elements/1.1/" xmlns:cc="http://creativecommons.org/ns#" xmlns:rdf="http://www.w3.org/1999/02/22-rdf-syntax-ns#">
   <cc:Work>
    <dc:type rdf:resource="http://purl.org/dc/dcmitype/StillImage"/>
    <dc:date>2026-06-11T11:14:25.693539</dc:date>
    <dc:format>image/svg+xml</dc:format>
    <dc:creator>
     <cc:Agent>
      <dc:title>Matplotlib v3.10.9, https://matplotlib.org/</dc:title>
     </cc:Agent>
    </dc:creator>
   </cc:Work>
  </rdf:RDF>
 </metadata>
 <defs>
  <style type="text/css">*{stroke-linejoin: round; stroke-linecap: butt}</style>
 </defs>
 <g id="figure_1">
  <g id="patch_1">
   <path d="M 0 120 
L 288 120 
L 288 0 
L 0 0 
L 0 120 
z
" style="fill: none; opacity: 0"/>
  </g>
  <g id="axes_1">
   <g id="patch_2">
    <path d="M 8.64 108 
L 279.36 108 
L 279.36 4.8 
L 8.64 4.8 
L 8.64 108 
z
" style="fill: none"/>
   </g>
   <g id="matplotlib.axis_1"/>
   <g id="matplotlib.axis_2"/>
   <g id="line2d_1">
    <path d="M 8.64 87.36 
L 279.36 87.36 
" clip-path="url(#p736e27a85a)" style="fill: none; stroke: #b2b2b2; stroke-opacity: 0.35; stroke-width: 0.5; stroke-linecap: square"/>
   </g>
   <g id="line2d_2">
    <path d="M 8.64 66.72 
L 279.36 66.72 
" clip-path="url(#p736e27a85a)" style="fill: none; stroke: #b2b2b2; stroke-opacity: 0.35; stroke-width: 0.5; stroke-linecap: square"/>
   </g>
   <g id="line2d_3">
    <path d="M 8.64 46.08 
L 279.36 46.08 
" clip-path="url(#p736e27a85a)" style="fill: none; stroke: #b2b2b2; stroke-opacity: 0.35; stroke-width: 0.5; stroke-linecap: square"/>
   </g>
   <g id="line2d_4">
    <path d="M 8.64 25.44 
L 279.36 25.44 
" clip-path="url(#p736e27a85a)" style="fill: none; stroke: #b2b2b2; stroke-opacity: 0.35; stroke-width: 0.5; stroke-linecap: square"/>
   </g>
   <g id="line2d_5">
    <path d="M 8.64 100.50768 
L 11.737113 100.60056 
L 14.784667 99.76464 
L 17.770457 99.49632 
L 20.832607 99.40344 
L 23.872423 100.09488 
L 26.881814 100.3632 
L 29.902988 100.19808 
L 32.987404 100.47672 
L 36.033515 100.79664 
L 39.044348 100.26 
L 42.30966 99.83688 
L 45.159259 100.13616 
L 48.202064 100.80696 
L 51.211983 101.38488 
L 54.292353 101.3436 
L 57.340013 101.292 
L 60.359815 101.28168 
L 63.42485 101.28168 
L 66.423795 101.8596 
L 69.466248 101.88024 
L 72.479192 101.72544 
L 75.563924 101.68416 
L 78.610739 101.47776 
L 81.629979 101.78736 
L 84.673875 101.09592 
L 87.702259 101.46744 
L 90.769193 101.3436 
L 93.761701 101.05464 
L 96.855191 101.3952 
L 99.909745 101.47776 
L 102.929371 100.86888 
L 105.966021 101.26104 
L 109.018148 100.99272 
L 112.050929 100.61088 
L 115.05638 100.44576 
L 118.135485 100.94112 
L 121.181983 101.09592 
L 124.207624 101.00304 
L 127.23717 100.69344 
L 130.288452 100.9308 
L 133.335478 100.92048 
L 136.338186 100.81728 
L 139.424431 100.8792 
L 142.496149 100.64184 
L 145.541487 101.1888 
L 148.572157 101.09592 
L 151.616229 101.37456 
L 154.688404 101.21976 
L 157.649819 101.20944 
L 160.750485 101.23008 
L 163.788401 100.92048 
L 166.760438 101.06496 
L 169.852943 100.70376 
L 172.892724 100.55928 
L 175.881116 100.53864 
L 178.931203 99.60984 
L 182.031411 99.72336 
L 185.094371 99.44472 
L 188.091135 99.25896 
L 191.144562 99.32088 
L 194.180157 100.22904 
L 197.234113 100.01232 
L 200.234288 100.43544 
L 203.318634 100.75536 
L 206.387116 101.02368 
L 209.404315 101.02368 
L 212.454155 101.17848 
L 215.510432 100.7244 
L 218.526119 100.75536 
L 221.52334 101.11656 
L 224.610429 100.91016 
L 227.689392 100.89984 
L 230.682322 101.1372 
L 233.752492 101.2404 
L 236.781756 101.6532 
L 239.822979 101.4984 
L 242.818125 101.48808 
L 245.919142 101.32296 
L 249.003065 101.51904 
L 252.012139 101.7048 
L 255.0853 102.54072 
L 258.11386 103.08768 
L 261.10278 103.36632 
L 264.095041 104.22288 
L 267.19933 103.85136 
L 270.251738 103.68624 
L 273.232709 103.43856 
L 276.303196 103.81008 
L 279.36 103.72752 
" clip-path="url(#p736e27a85a)" style="fill: none; stroke: #bebebe; stroke-width: 0.5; stroke-linecap: round"/>
   </g>
   <g id="line2d_6">
    <path d="M 8.64 88.45392 
L 11.737113 88.46424 
L 14.784667 86.38992 
L 17.770457 84.80064 
L 20.832607 84.8316 
L 23.872423 86.586 
L 26.881814 87.74184 
L 29.902988 87.618 
L 32.987404 88.19592 
L 36.033515 89.08344 
L 39.044348 87.89664 
L 42.30966 87.3084 
L 45.159259 87.65928 
L 48.202064 88.96992 
L 51.211983 90.07416 
L 54.292353 89.76456 
L 57.340013 89.3724 
L 60.359815 89.00088 
L 63.42485 88.42296 
L 66.423795 88.81512 
L 69.466248 89.10408 
L 72.479192 89.14536 
L 75.563924 89.07312 
L 78.610739 87.9792 
L 81.629979 88.29912 
L 84.673875 86.38992 
L 87.702259 87.24648 
L 90.769193 87.1536 
L 93.761701 86.21448 
L 96.855191 86.66856 
L 99.909745 87.01944 
L 102.929371 84.44976 
L 105.966021 85.05864 
L 109.018148 84.58392 
L 112.050929 85.04832 
L 115.05638 83.71704 
L 118.135485 84.86256 
L 121.181983 85.6572 
L 124.207624 85.27536 
L 127.23717 84.49104 
L 130.288452 84.86256 
L 133.335478 85.32696 
L 136.338186 85.17216 
L 139.424431 85.31664 
L 142.496149 84.11952 
L 145.541487 85.66752 
L 148.572157 85.26504 
L 151.616229 86.26608 
L 154.688404 85.77072 
L 157.649819 85.38888 
L 160.750485 85.3992 
L 163.788401 84.09888 
L 166.760438 84.22272 
L 169.852943 84.34656 
L 172.892724 85.06896 
L 175.881116 85.7604 
L 178.931203 85.0896 
L 182.031411 85.01736 
L 185.094371 84.9348 
L 188.091135 85.296 
L 191.144562 85.35792 
L 194.180157 86.1732 
L 197.234113 85.92552 
L 200.234288 86.55504 
L 203.318634 87.13296 
L 206.387116 88.10304 
L 209.404315 87.9276 
L 212.454155 88.26816 
L 215.510432 87.78312 
L 218.526119 87.95856 
L 221.52334 88.94928 
L 224.610429 88.14432 
L 227.689392 88.33008 
L 230.682322 88.52616 
L 233.752492 88.86672 
L 236.781756 90.22896 
L 239.822979 89.82648 
L 242.818125 89.87808 
L 245.919142 89.46528 
L 249.003065 90.0432 
L 252.012139 89.96064 
L 255.0853 91.99368 
L 258.11386 93.05664 
L 261.10278 93.74808 
L 264.095041 97.02984 
L 267.19933 95.93592 
L 270.251738 95.07936 
L 273.232709 94.46016 
L 276.303196 95.47152 
L 279.36 95.11032 
" clip-path="url(#p736e27a85a)" style="fill: none; stroke: #4a8dff; stroke-width: 0.6"/>
   </g>
   <g id="line2d_7">
    <path d="M 8.64 99.94008 
L 11.737113 99.81624 
L 14.784667 98.93904 
L 17.770457 98.3508 
L 20.832607 98.52624 
L 23.872423 99.78528 
L 26.881814 100.12584 
L 29.902988 100.03296 
L 32.987404 100.45608 
L 36.033515 100.83792 
L 39.044348 100.11552 
L 42.30966 99.87816 
L 45.159259 100.002 
L 48.202064 100.64184 
L 51.211983 101.41584 
L 54.292353 101.21976 
L 57.340013 101.14752 
L 60.359815 101.00304 
L 63.42485 100.86888 
L 66.423795 101.21976 
L 69.466248 101.28168 
L 72.479192 101.20944 
L 75.563924 101.14752 
L 78.610739 100.55928 
L 81.629979 100.65216 
L 84.673875 99.80592 
L 87.702259 99.96072 
L 90.769193 99.6408 
L 93.761701 99.1764 
L 96.855191 99.70272 
L 99.909745 99.94008 
L 102.929371 98.57784 
L 105.966021 98.65008 
L 109.018148 98.38176 
L 112.050929 98.48496 
L 115.05638 96.70992 
L 118.135485 98.05152 
L 121.181983 98.48496 
L 124.207624 97.96896 
L 127.23717 96.32808 
L 130.288452 96.20424 
L 133.335478 96.16296 
L 136.338186 96.1836 
L 139.424431 96.50352 
L 142.496149 94.76976 
L 145.541487 97.19496 
L 148.572157 96.9576 
L 151.616229 97.9896 
L 154.688404 96.89568 
L 157.649819 95.45088 
L 160.750485 95.67792 
L 163.788401 93.43848 
L 166.760438 92.90184 
L 169.852943 92.25168 
L 172.892724 92.87088 
L 175.881116 94.2744 
L 178.931203 93.1392 
L 182.031411 92.97408 
L 185.094371 92.9844 
L 188.091135 92.60256 
L 191.144562 92.53032 
L 194.180157 94.54272 
L 197.234113 92.85024 
L 200.234288 94.82136 
L 203.318634 95.75016 
L 206.387116 96.97824 
L 209.404315 97.08144 
L 212.454155 97.23624 
L 215.510432 95.94624 
L 218.526119 96.30744 
L 221.52334 98.08248 
L 224.610429 97.2672 
L 227.689392 96.61704 
L 230.682322 97.23624 
L 233.752492 98.08248 
L 236.781756 99.18672 
L 239.822979 99.03192 
L 242.818125 99.1248 
L 245.919142 98.74296 
L 249.003065 99.09384 
L 252.012139 100.0536 
L 255.0853 101.23008 
L 258.11386 101.99376 
L 261.10278 102.08664 
L 264.095041 102.8916 
L 267.19933 102.45816 
L 270.251738 102.28272 
L 273.232709 102.10728 
L 276.303196 102.582 
L 279.36 102.29304 
" clip-path="url(#p736e27a85a)" style="fill: none; stroke: #f5841e; stroke-width: 0.6"/>
   </g>
  </g>
 </g>
 <defs>
  <clipPath id="p736e27a85a">
   <rect x="8.64" y="4.8" width="270.72" height="103.2"/>
  </clipPath>
 </defs>
</svg>
