<?xml version="1.0" encoding="utf-8" standalone="no"?>
<!DOCTYPE svg PUBLIC "-//W3C//DTD SVG 1.1//EN"
  "http://www.w3.org/Graphics/SVG/1.1/DTD/svg11.dtd">
<svg xmlns:xlink="http://www.w3.org/1999/xlink" width="288pt" height="120pt" viewBox="0 0 288 120" xmlns="http://www.w3.org/2000/svg" version="1.1">
<desc id="nav-meta">{"window":"1m","count":4,"labels":["03.02","13.02","23.02","05.03"],"tick_utc":["2026-02-03T12:00:00Z","2026-02-13T03:33:47Z","2026-02-23T03:32:23Z","2026-03-05T03:17:19Z"],"w":720,"h":300}</desc>

 <metadata>
  <rdf:RDF xmlns:dc="http://purl.org/dc/elements/1.1/" xmlns:cc="http://creativecommons.org/ns#" xmlns:rdf="http://www.w3.org/1999/02/22-rdf-syntax-ns#">
   <cc:Work>
    <dc:type rdf:resource="http://purl.org/dc/dcmitype/StillImage"/>
    <dc:date>2026-03-05T07:29:35.599715</dc:date>
    <dc:format>image/svg+xml</dc:format>
    <dc:creator>
     <cc:Agent>
      <dc:title>Matplotlib v3.10.8, https://matplotlib.org/</dc:title>
     </cc:Agent>
    </dc:creator>
   </cc:Work>
  </rdf:RDF>
 </metadata>
 <defs>
  <style type="text/css">*{stroke-linejoin: round; stroke-linecap: butt}</style>
 </defs>
 <g id="figure_1">
  <g id="patch_1">
   <path d="M 0 120 
L 288 120 
L 288 0 
L 0 0 
L 0 120 
z
" style="fill: none; opacity: 0"/>
  </g>
  <g id="axes_1">
   <g id="patch_2">
    <path d="M 8.64 108 
L 279.36 108 
L 279.36 4.8 
L 8.64 4.8 
L 8.64 108 
z
" style="fill: none"/>
   </g>
   <g id="matplotlib.axis_1"/>
   <g id="matplotlib.axis_2"/>
   <g id="line2d_1">
    <path d="M 8.64 87.36 
L 279.36 87.36 
" clip-path="url(#p1e97ecad04)" style="fill: none; stroke: #b2b2b2; stroke-opacity: 0.35; stroke-width: 0.5; stroke-linecap: square"/>
   </g>
   <g id="line2d_2">
    <path d="M 8.64 66.72 
L 279.36 66.72 
" clip-path="url(#p1e97ecad04)" style="fill: none; stroke: #b2b2b2; stroke-opacity: 0.35; stroke-width: 0.5; stroke-linecap: square"/>
   </g>
   <g id="line2d_3">
    <path d="M 8.64 46.08 
L 279.36 46.08 
" clip-path="url(#p1e97ecad04)" style="fill: none; stroke: #b2b2b2; stroke-opacity: 0.35; stroke-width: 0.5; stroke-linecap: square"/>
   </g>
   <g id="line2d_4">
    <path d="M 8.64 25.44 
L 279.36 25.44 
" clip-path="url(#p1e97ecad04)" style="fill: none; stroke: #b2b2b2; stroke-opacity: 0.35; stroke-width: 0.5; stroke-linecap: square"/>
   </g>
   <g id="line2d_5">
    <path d="M 8.64 97.85544 
L 16.351586 99.10416 
L 23.610675 100.16712 
L 32.740543 102.23112 
L 41.835945 100.54896 
L 51.179269 100.70376 
L 60.238408 100.68312 
L 69.42505 100.95144 
L 78.540645 101.28168 
L 87.642285 101.71512 
L 96.774056 101.84928 
L 105.798729 101.034 
L 114.451255 100.54896 
L 124.171695 101.04432 
L 132.158797 100.81728 
L 142.426251 101.034 
L 151.54967 101.4984 
L 160.6308 101.33328 
L 169.709498 101.1372 
L 178.948367 101.06496 
L 188.110375 102.09696 
L 196.473218 102.05568 
L 206.346535 101.4984 
L 215.440351 100.60056 
L 224.557532 100.80696 
L 233.584426 101.45712 
L 242.926481 100.55928 
L 251.966695 101.10624 
L 261.122466 100.8792 
L 270.205815 100.74504 
L 279.36 100.21872 
" clip-path="url(#p1e97ecad04)" style="fill: none; stroke: #bebebe; stroke-width: 0.5; stroke-linecap: round"/>
   </g>
   <g id="line2d_6">
    <path d="M 8.64 84.79032 
L 16.351586 85.84296 
L 23.610675 88.25784 
L 32.740543 91.41576 
L 41.835945 88.7532 
L 51.179269 88.65 
L 60.238408 88.55712 
L 69.42505 88.96992 
L 78.540645 89.7336 
L 87.642285 90.456 
L 96.774056 90.56952 
L 105.798729 89.15568 
L 114.451255 88.9596 
L 124.171695 90.6624 
L 132.158797 89.94 
L 142.426251 90.00192 
L 151.54967 90.3528 
L 160.6308 90.62112 
L 169.709498 90.5076 
L 178.948367 90.3528 
L 188.110375 92.004 
L 196.473218 92.13816 
L 206.346535 91.25064 
L 215.440351 89.166 
L 224.557532 89.56848 
L 233.584426 90.93072 
L 242.926481 89.41368 
L 251.966695 90.37344 
L 261.122466 89.79552 
L 270.205815 90.23928 
L 279.36 88.0824 
" clip-path="url(#p1e97ecad04)" style="fill: none; stroke: #4a8dff; stroke-width: 0.6"/>
   </g>
   <g id="line2d_7">
    <path d="M 8.64 95.08968 
L 16.351586 97.71096 
L 23.610675 99.80592 
L 32.740543 101.79768 
L 41.835945 100.03296 
L 51.179269 100.518 
L 60.238408 99.98136 
L 69.42505 100.49736 
L 78.540645 100.78632 
L 87.642285 101.07528 
L 96.774056 101.26104 
L 105.798729 100.63152 
L 114.451255 100.38384 
L 124.171695 100.84824 
L 132.158797 100.65216 
L 142.426251 101.034 
L 151.54967 101.19912 
L 160.6308 101.10624 
L 169.709498 100.97208 
L 178.948367 100.91016 
L 188.110375 101.7564 
L 196.473218 101.84928 
L 206.346535 101.56032 
L 215.440351 100.85856 
L 224.557532 101.12688 
L 233.584426 101.4468 
L 242.926481 101.02368 
L 251.966695 101.30232 
L 261.122466 100.81728 
L 270.205815 100.79664 
L 279.36 99.3312 
" clip-path="url(#p1e97ecad04)" style="fill: none; stroke: #f5841e; stroke-width: 0.6"/>
   </g>
  </g>
 </g>
 <defs>
  <clipPath id="p1e97ecad04">
   <rect x="8.64" y="4.8" width="270.72" height="103.2"/>
  </clipPath>
 </defs>
</svg>
