<?xml version="1.0" encoding="utf-8" standalone="no"?>
<!DOCTYPE svg PUBLIC "-//W3C//DTD SVG 1.1//EN"
  "http://www.w3.org/Graphics/SVG/1.1/DTD/svg11.dtd">
<svg xmlns:xlink="http://www.w3.org/1999/xlink" width="288pt" height="120pt" viewBox="0 0 288 120" xmlns="http://www.w3.org/2000/svg" version="1.1">
<desc id="nav-meta">{"window":"3m","count":4,"labels":["11.01","10.02","11.03","10.04"],"tick_utc":["2026-01-11T12:00:00Z","2026-02-10T03:42:23Z","2026-03-11T03:14:04Z","2026-04-10T03:51:30Z"],"w":720,"h":300}</desc>

 <metadata>
  <rdf:RDF xmlns:dc="http://purl.org/dc/elements/1.1/" xmlns:cc="http://creativecommons.org/ns#" xmlns:rdf="http://www.w3.org/1999/02/22-rdf-syntax-ns#">
   <cc:Work>
    <dc:type rdf:resource="http://purl.org/dc/dcmitype/StillImage"/>
    <dc:date>2026-04-10T14:02:32.966121</dc:date>
    <dc:format>image/svg+xml</dc:format>
    <dc:creator>
     <cc:Agent>
      <dc:title>Matplotlib v3.10.8, https://matplotlib.org/</dc:title>
     </cc:Agent>
    </dc:creator>
   </cc:Work>
  </rdf:RDF>
 </metadata>
 <defs>
  <style type="text/css">*{stroke-linejoin: round; stroke-linecap: butt}</style>
 </defs>
 <g id="figure_1">
  <g id="patch_1">
   <path d="M 0 120 
L 288 120 
L 288 0 
L 0 0 
L 0 120 
z
" style="fill: none; opacity: 0"/>
  </g>
  <g id="axes_1">
   <g id="patch_2">
    <path d="M 8.64 108 
L 279.36 108 
L 279.36 4.8 
L 8.64 4.8 
L 8.64 108 
z
" style="fill: none"/>
   </g>
   <g id="matplotlib.axis_1"/>
   <g id="matplotlib.axis_2"/>
   <g id="line2d_1">
    <path d="M 8.64 87.36 
L 279.36 87.36 
" clip-path="url(#p052ecdb796)" style="fill: none; stroke: #b2b2b2; stroke-opacity: 0.35; stroke-width: 0.5; stroke-linecap: square"/>
   </g>
   <g id="line2d_2">
    <path d="M 8.64 66.72 
L 279.36 66.72 
" clip-path="url(#p052ecdb796)" style="fill: none; stroke: #b2b2b2; stroke-opacity: 0.35; stroke-width: 0.5; stroke-linecap: square"/>
   </g>
   <g id="line2d_3">
    <path d="M 8.64 46.08 
L 279.36 46.08 
" clip-path="url(#p052ecdb796)" style="fill: none; stroke: #b2b2b2; stroke-opacity: 0.35; stroke-width: 0.5; stroke-linecap: square"/>
   </g>
   <g id="line2d_4">
    <path d="M 8.64 25.44 
L 279.36 25.44 
" clip-path="url(#p052ecdb796)" style="fill: none; stroke: #b2b2b2; stroke-opacity: 0.35; stroke-width: 0.5; stroke-linecap: square"/>
   </g>
   <g id="line2d_5">
    <path d="M 8.64 89.40336 
L 11.693436 88.41264 
L 14.746873 88.4952 
L 17.800309 86.86464 
L 20.853745 86.42088 
L 23.907182 87.62832 
L 26.960618 86.93688 
L 30.014055 87.23616 
L 33.067491 88.63968 
L 36.120927 90.0432 
L 39.174364 92.12784 
L 42.2278 91.16808 
L 45.281236 91.46736 
L 48.334673 91.73568 
L 51.388109 91.78728 
L 54.441545 94.0164 
L 57.494982 92.5716 
L 60.548418 91.76664 
L 63.601854 92.33424 
L 66.655291 94.36728 
L 69.708727 94.46016 
L 72.762164 97.71096 
L 75.8156 98.48496 
L 78.869036 97.85544 
L 81.446822 99.10416 
L 83.87335 100.16712 
L 86.925231 102.23112 
L 89.965592 100.54896 
L 93.088826 100.70376 
L 96.117064 100.68312 
L 99.187924 100.95144 
L 102.235034 101.28168 
L 105.277479 101.71512 
L 108.329997 101.84928 
L 111.346714 101.034 
L 114.239032 100.54896 
L 117.488327 101.04432 
L 120.158211 100.81728 
L 123.590358 101.034 
L 126.640083 101.4984 
L 129.675673 101.33328 
L 132.710449 101.1372 
L 135.798767 101.06496 
L 138.861392 102.09696 
L 141.656876 102.05568 
L 144.957274 101.4984 
L 147.997104 100.60056 
L 151.044744 100.80696 
L 154.062204 101.45712 
L 157.185014 100.55928 
L 160.206926 101.10624 
L 163.267466 100.8792 
L 166.303798 100.74504 
L 169.363807 100.21872 
L 172.415795 100.53864 
L 175.4458 101.07528 
L 178.528887 101.38488 
L 181.591477 101.26104 
L 184.625299 100.78632 
L 187.677534 100.91016 
L 190.742986 100.99272 
L 193.790521 100.38384 
L 196.839893 100.50768 
L 199.951747 100.60056 
L 203.013807 99.76464 
L 206.013808 99.49632 
L 209.090534 99.40344 
L 212.144819 100.09488 
L 215.168533 100.3632 
L 218.204087 100.19808 
L 221.303184 100.47672 
L 224.363794 100.79664 
L 227.388958 100.26 
L 230.669812 99.83688 
L 233.532974 100.13616 
L 236.590262 100.80696 
L 239.614507 101.38488 
L 242.70954 101.3436 
L 245.771705 101.292 
L 248.805881 101.28168 
L 251.885505 101.28168 
L 254.898723 101.8596 
L 257.955659 101.88024 
L 260.982943 101.72544 
L 264.082357 101.68416 
L 267.143675 101.47776 
L 270.177285 101.78736 
L 273.235669 101.09592 
L 276.278468 101.46744 
L 279.36 101.3436 
" clip-path="url(#p052ecdb796)" style="fill: none; stroke: #bebebe; stroke-width: 0.5; stroke-linecap: round"/>
   </g>
   <g id="line2d_6">
    <path d="M 8.64 73.8408 
L 11.693436 73.29384 
L 14.746873 73.72728 
L 17.800309 70.32168 
L 20.853745 69.77472 
L 23.907182 70.34232 
L 26.960618 70.67256 
L 30.014055 70.51776 
L 33.067491 70.848 
L 36.120927 72.31344 
L 39.174364 76.01832 
L 42.2278 75.41976 
L 45.281236 75.83256 
L 48.334673 75.79128 
L 51.388109 75.82224 
L 54.441545 77.82432 
L 57.494982 76.14216 
L 60.548418 74.75928 
L 63.601854 74.96568 
L 66.655291 77.75208 
L 69.708727 79.48584 
L 72.762164 83.31456 
L 75.8156 85.90488 
L 78.869036 84.79032 
L 81.446822 85.84296 
L 83.87335 88.25784 
L 86.925231 91.41576 
L 89.965592 88.7532 
L 93.088826 88.65 
L 96.117064 88.55712 
L 99.187924 88.96992 
L 102.235034 89.7336 
L 105.277479 90.456 
L 108.329997 90.56952 
L 111.346714 89.15568 
L 114.239032 88.9596 
L 117.488327 90.6624 
L 120.158211 89.94 
L 123.590358 90.00192 
L 126.640083 90.3528 
L 129.675673 90.62112 
L 132.710449 90.5076 
L 135.798767 90.3528 
L 138.861392 92.004 
L 141.656876 92.13816 
L 144.957274 91.25064 
L 147.997104 89.166 
L 151.044744 89.56848 
L 154.062204 90.93072 
L 157.185014 89.41368 
L 160.206926 90.37344 
L 163.267466 89.79552 
L 166.303798 90.23928 
L 169.363807 88.0824 
L 172.415795 88.7532 
L 175.4458 90.16704 
L 178.528887 90.67272 
L 181.591477 90.18768 
L 184.625299 89.2692 
L 187.677534 89.54784 
L 190.742986 89.49624 
L 193.790521 88.31976 
L 196.839893 88.45392 
L 199.951747 88.46424 
L 203.013807 86.38992 
L 206.013808 84.80064 
L 209.090534 84.8316 
L 212.144819 86.586 
L 215.168533 87.74184 
L 218.204087 87.618 
L 221.303184 88.19592 
L 224.363794 89.08344 
L 227.388958 87.89664 
L 230.669812 87.3084 
L 233.532974 87.65928 
L 236.590262 88.96992 
L 239.614507 90.07416 
L 242.70954 89.76456 
L 245.771705 89.3724 
L 248.805881 89.00088 
L 251.885505 88.42296 
L 254.898723 88.81512 
L 257.955659 89.10408 
L 260.982943 89.14536 
L 264.082357 89.07312 
L 267.143675 87.9792 
L 270.177285 88.29912 
L 273.235669 86.38992 
L 276.278468 87.24648 
L 279.36 87.1536 
" clip-path="url(#p052ecdb796)" style="fill: none; stroke: #4a8dff; stroke-width: 0.6"/>
   </g>
   <g id="line2d_7">
    <path d="M 8.64 83.00496 
L 11.693436 82.6128 
L 14.746873 82.28256 
L 17.800309 78.01008 
L 20.853745 76.19376 
L 23.907182 77.66952 
L 26.960618 77.74176 
L 30.014055 78.1752 
L 33.067491 79.5684 
L 36.120927 80.8068 
L 39.174364 85.20312 
L 42.2278 84.12984 
L 45.281236 84.03696 
L 48.334673 84.06792 
L 51.388109 84.3156 
L 54.441545 87.02976 
L 57.494982 85.21344 
L 60.548418 84.28464 
L 63.601854 84.32592 
L 66.655291 89.08344 
L 69.708727 89.5272 
L 72.762164 95.14128 
L 75.8156 96.98856 
L 78.869036 95.08968 
L 81.446822 97.71096 
L 83.87335 99.80592 
L 86.925231 101.79768 
L 89.965592 100.03296 
L 93.088826 100.518 
L 96.117064 99.98136 
L 99.187924 100.49736 
L 102.235034 100.78632 
L 105.277479 101.07528 
L 108.329997 101.26104 
L 111.346714 100.63152 
L 114.239032 100.38384 
L 117.488327 100.84824 
L 120.158211 100.65216 
L 123.590358 101.034 
L 126.640083 101.19912 
L 129.675673 101.10624 
L 132.710449 100.97208 
L 135.798767 100.91016 
L 138.861392 101.7564 
L 141.656876 101.84928 
L 144.957274 101.56032 
L 147.997104 100.85856 
L 151.044744 101.12688 
L 154.062204 101.4468 
L 157.185014 101.02368 
L 160.206926 101.30232 
L 163.267466 100.81728 
L 166.303798 100.79664 
L 169.363807 99.3312 
L 172.415795 99.92976 
L 175.4458 100.78632 
L 178.528887 101.17848 
L 181.591477 101.1372 
L 184.625299 100.21872 
L 187.677534 100.37352 
L 190.742986 100.4664 
L 193.790521 99.88848 
L 196.839893 99.94008 
L 199.951747 99.81624 
L 203.013807 98.93904 
L 206.013808 98.3508 
L 209.090534 98.52624 
L 212.144819 99.78528 
L 215.168533 100.12584 
L 218.204087 100.03296 
L 221.303184 100.45608 
L 224.363794 100.83792 
L 227.388958 100.11552 
L 230.669812 99.87816 
L 233.532974 100.002 
L 236.590262 100.64184 
L 239.614507 101.41584 
L 242.70954 101.21976 
L 245.771705 101.14752 
L 248.805881 101.00304 
L 251.885505 100.86888 
L 254.898723 101.21976 
L 257.955659 101.28168 
L 260.982943 101.20944 
L 264.082357 101.14752 
L 267.143675 100.55928 
L 270.177285 100.65216 
L 273.235669 99.80592 
L 276.278468 99.96072 
L 279.36 99.6408 
" clip-path="url(#p052ecdb796)" style="fill: none; stroke: #f5841e; stroke-width: 0.6"/>
   </g>
  </g>
 </g>
 <defs>
  <clipPath id="p052ecdb796">
   <rect x="8.64" y="4.8" width="270.72" height="103.2"/>
  </clipPath>
 </defs>
</svg>
