<?xml version="1.0" encoding="utf-8" standalone="no"?>
<!DOCTYPE svg PUBLIC "-//W3C//DTD SVG 1.1//EN"
  "http://www.w3.org/Graphics/SVG/1.1/DTD/svg11.dtd">
<svg xmlns:xlink="http://www.w3.org/1999/xlink" width="288pt" height="120pt" viewBox="0 0 288 120" xmlns="http://www.w3.org/2000/svg" version="1.1">
<desc id="nav-meta">{"window":"1m","count":4,"labels":["07.04","17.04","26.04","06.05"],"tick_utc":["2026-04-07T03:40:56Z","2026-04-17T03:55:44Z","2026-04-26T04:06:31Z","2026-05-06T04:24:54Z"],"w":720,"h":300}</desc>

 <metadata>
  <rdf:RDF xmlns:dc="http://purl.org/dc/elements/1.1/" xmlns:cc="http://creativecommons.org/ns#" xmlns:rdf="http://www.w3.org/1999/02/22-rdf-syntax-ns#">
   <cc:Work>
    <dc:type rdf:resource="http://purl.org/dc/dcmitype/StillImage"/>
    <dc:date>2026-05-06T20:12:16.768276</dc:date>
    <dc:format>image/svg+xml</dc:format>
    <dc:creator>
     <cc:Agent>
      <dc:title>Matplotlib v3.10.9, https://matplotlib.org/</dc:title>
     </cc:Agent>
    </dc:creator>
   </cc:Work>
  </rdf:RDF>
 </metadata>
 <defs>
  <style type="text/css">*{stroke-linejoin: round; stroke-linecap: butt}</style>
 </defs>
 <g id="figure_1">
  <g id="patch_1">
   <path d="M 0 120 
L 288 120 
L 288 0 
L 0 0 
L 0 120 
z
" style="fill: none; opacity: 0"/>
  </g>
  <g id="axes_1">
   <g id="patch_2">
    <path d="M 8.64 108 
L 279.36 108 
L 279.36 4.8 
L 8.64 4.8 
L 8.64 108 
z
" style="fill: none"/>
   </g>
   <g id="matplotlib.axis_1"/>
   <g id="matplotlib.axis_2"/>
   <g id="line2d_1">
    <path d="M 8.64 87.36 
L 279.36 87.36 
" clip-path="url(#p4022442a21)" style="fill: none; stroke: #b2b2b2; stroke-opacity: 0.35; stroke-width: 0.5; stroke-linecap: square"/>
   </g>
   <g id="line2d_2">
    <path d="M 8.64 66.72 
L 279.36 66.72 
" clip-path="url(#p4022442a21)" style="fill: none; stroke: #b2b2b2; stroke-opacity: 0.35; stroke-width: 0.5; stroke-linecap: square"/>
   </g>
   <g id="line2d_3">
    <path d="M 8.64 46.08 
L 279.36 46.08 
" clip-path="url(#p4022442a21)" style="fill: none; stroke: #b2b2b2; stroke-opacity: 0.35; stroke-width: 0.5; stroke-linecap: square"/>
   </g>
   <g id="line2d_4">
    <path d="M 8.64 25.44 
L 279.36 25.44 
" clip-path="url(#p4022442a21)" style="fill: none; stroke: #b2b2b2; stroke-opacity: 0.35; stroke-width: 0.5; stroke-linecap: square"/>
   </g>
   <g id="line2d_5">
    <path d="M 8.64 101.78736 
L 17.980465 101.09592 
L 27.273331 101.46744 
L 36.684492 101.3436 
L 45.867268 101.05464 
L 55.359917 101.3952 
L 64.733085 101.47776 
L 73.999077 100.86888 
L 83.317308 101.26104 
L 92.683029 100.99272 
L 101.989387 100.61088 
L 111.211882 100.44576 
L 120.660387 100.94112 
L 130.008839 101.09592 
L 139.293286 101.00304 
L 148.589715 100.69344 
L 157.952845 100.9308 
L 167.302916 100.92048 
L 176.516992 100.81728 
L 185.987408 100.8792 
L 195.413247 100.64184 
L 204.758137 101.1888 
L 214.058019 101.09592 
L 223.399024 101.37456 
L 232.826266 101.21976 
L 241.91363 101.20944 
L 251.428297 101.23008 
L 260.750414 100.92048 
L 269.870373 101.06496 
L 279.36 100.70376 
" clip-path="url(#p4022442a21)" style="fill: none; stroke: #bebebe; stroke-width: 0.5; stroke-linecap: round"/>
   </g>
   <g id="line2d_6">
    <path d="M 8.64 88.29912 
L 17.980465 86.38992 
L 27.273331 87.24648 
L 36.684492 87.1536 
L 45.867268 86.21448 
L 55.359917 86.66856 
L 64.733085 87.01944 
L 73.999077 84.44976 
L 83.317308 85.05864 
L 92.683029 84.58392 
L 101.989387 85.04832 
L 111.211882 83.71704 
L 120.660387 84.86256 
L 130.008839 85.6572 
L 139.293286 85.27536 
L 148.589715 84.49104 
L 157.952845 84.86256 
L 167.302916 85.32696 
L 176.516992 85.17216 
L 185.987408 85.31664 
L 195.413247 84.11952 
L 204.758137 85.66752 
L 214.058019 85.26504 
L 223.399024 86.26608 
L 232.826266 85.77072 
L 241.91363 85.38888 
L 251.428297 85.3992 
L 260.750414 84.09888 
L 269.870373 84.22272 
L 279.36 84.34656 
" clip-path="url(#p4022442a21)" style="fill: none; stroke: #4a8dff; stroke-width: 0.6"/>
   </g>
   <g id="line2d_7">
    <path d="M 8.64 100.65216 
L 17.980465 99.80592 
L 27.273331 99.96072 
L 36.684492 99.6408 
L 45.867268 99.1764 
L 55.359917 99.70272 
L 64.733085 99.94008 
L 73.999077 98.57784 
L 83.317308 98.65008 
L 92.683029 98.38176 
L 101.989387 98.48496 
L 111.211882 96.70992 
L 120.660387 98.05152 
L 130.008839 98.48496 
L 139.293286 97.96896 
L 148.589715 96.32808 
L 157.952845 96.20424 
L 167.302916 96.16296 
L 176.516992 96.1836 
L 185.987408 96.50352 
L 195.413247 94.76976 
L 204.758137 97.19496 
L 214.058019 96.9576 
L 223.399024 97.9896 
L 232.826266 96.89568 
L 241.91363 95.45088 
L 251.428297 95.67792 
L 260.750414 93.43848 
L 269.870373 92.90184 
L 279.36 92.25168 
" clip-path="url(#p4022442a21)" style="fill: none; stroke: #f5841e; stroke-width: 0.6"/>
   </g>
  </g>
 </g>
 <defs>
  <clipPath id="p4022442a21">
   <rect x="8.64" y="4.8" width="270.72" height="103.2"/>
  </clipPath>
 </defs>
</svg>
