<?xml version="1.0" encoding="utf-8" standalone="no"?>
<!DOCTYPE svg PUBLIC "-//W3C//DTD SVG 1.1//EN"
  "http://www.w3.org/Graphics/SVG/1.1/DTD/svg11.dtd">
<svg xmlns:xlink="http://www.w3.org/1999/xlink" width="288pt" height="120pt" viewBox="0 0 288 120" xmlns="http://www.w3.org/2000/svg" version="1.1">
<desc id="nav-meta">{"window":"1m","count":4,"labels":["04.06","14.06","23.06","03.07"],"tick_utc":["2026-06-04T05:26:51Z","2026-06-14T05:19:47Z","2026-06-23T04:45:28Z","2026-07-03T04:30:06Z"],"w":720,"h":300}</desc>

 <metadata>
  <rdf:RDF xmlns:dc="http://purl.org/dc/elements/1.1/" xmlns:cc="http://creativecommons.org/ns#" xmlns:rdf="http://www.w3.org/1999/02/22-rdf-syntax-ns#">
   <cc:Work>
    <dc:type rdf:resource="http://purl.org/dc/dcmitype/StillImage"/>
    <dc:date>2026-07-03T09:44:33.500851</dc:date>
    <dc:format>image/svg+xml</dc:format>
    <dc:creator>
     <cc:Agent>
      <dc:title>Matplotlib v3.11.0, https://matplotlib.org/</dc:title>
     </cc:Agent>
    </dc:creator>
   </cc:Work>
  </rdf:RDF>
 </metadata>
 <defs>
  <style type="text/css">*{stroke-linejoin: round; stroke-linecap: butt}</style>
 </defs>
 <g id="figure_1">
  <g id="patch_1">
   <path d="M 0 120 
L 288 120 
L 288 0 
L 0 0 
L 0 120 
z
" style="fill: none; opacity: 0"/>
  </g>
  <g id="axes_1">
   <g id="patch_2">
    <path d="M 8.64 108 
L 279.36 108 
L 279.36 4.8 
L 8.64 4.8 
L 8.64 108 
z
" style="fill: none"/>
   </g>
   <g id="matplotlib.axis_1"/>
   <g id="matplotlib.axis_2"/>
   <g id="line2d_1">
    <path d="M 8.64 87.36 
L 279.36 87.36 
" clip-path="url(#p637dbcc6e0)" style="fill: none; stroke: #b2b2b2; stroke-opacity: 0.35; stroke-width: 0.5; stroke-linecap: square"/>
   </g>
   <g id="line2d_2">
    <path d="M 8.64 66.72 
L 279.36 66.72 
" clip-path="url(#p637dbcc6e0)" style="fill: none; stroke: #b2b2b2; stroke-opacity: 0.35; stroke-width: 0.5; stroke-linecap: square"/>
   </g>
   <g id="line2d_3">
    <path d="M 8.64 46.08 
L 279.36 46.08 
" clip-path="url(#p637dbcc6e0)" style="fill: none; stroke: #b2b2b2; stroke-opacity: 0.35; stroke-width: 0.5; stroke-linecap: square"/>
   </g>
   <g id="line2d_4">
    <path d="M 8.64 25.44 
L 279.36 25.44 
" clip-path="url(#p637dbcc6e0)" style="fill: none; stroke: #b2b2b2; stroke-opacity: 0.35; stroke-width: 0.5; stroke-linecap: square"/>
   </g>
   <g id="line2d_5">
    <path d="M 8.64 103.08768 
L 17.833917 103.36632 
L 27.038113 104.22288 
L 36.586903 103.85136 
L 45.976108 103.68624 
L 55.145574 103.43856 
L 64.59039 103.81008 
L 73.99312 103.72752 
L 83.377673 103.50048 
L 92.657171 103.5108 
L 102.072884 103.31472 
L 111.73149 102.95352 
L 121.132705 102.61296 
L 130.182833 102.6336 
L 139.485917 102.9948 
L 149.053966 103.28376 
L 158.028035 103.01544 
L 167.570442 102.69552 
L 177.191937 102.582 
L 185.980996 102.88128 
L 195.362304 103.15992 
L 204.707691 103.36632 
L 214.103496 103.36632 
L 223.336796 102.81936 
L 232.862865 103.0464 
L 242.278362 102.9432 
L 251.445014 102.59232 
L 260.929646 102.40656 
L 270.113826 102.02472 
L 279.36 101.68416 
" clip-path="url(#p637dbcc6e0)" style="fill: none; stroke: #bebebe; stroke-width: 0.5; stroke-linecap: round"/>
   </g>
   <g id="line2d_6">
    <path d="M 8.64 93.05664 
L 17.833917 93.74808 
L 27.038113 97.02984 
L 36.586903 95.93592 
L 45.976108 95.07936 
L 55.145574 94.46016 
L 64.59039 95.47152 
L 73.99312 95.11032 
L 83.377673 94.82136 
L 92.657171 94.8936 
L 102.072884 94.70784 
L 111.73149 94.04736 
L 121.132705 93.40752 
L 130.182833 92.9844 
L 139.485917 93.93384 
L 149.053966 94.4292 
L 158.028035 94.19184 
L 167.570442 93.87192 
L 177.191937 93.81 
L 185.980996 94.03704 
L 195.362304 94.83168 
L 204.707691 95.48184 
L 214.103496 96.63768 
L 223.336796 96.14232 
L 232.862865 96.30744 
L 242.278362 96.29712 
L 251.445014 96.04944 
L 260.929646 95.9256 
L 270.113826 95.39928 
L 279.36 94.31568 
" clip-path="url(#p637dbcc6e0)" style="fill: none; stroke: #4a8dff; stroke-width: 0.6"/>
   </g>
   <g id="line2d_7">
    <path d="M 8.64 101.99376 
L 17.833917 102.08664 
L 27.038113 102.8916 
L 36.586903 102.45816 
L 45.976108 102.28272 
L 55.145574 102.10728 
L 64.59039 102.582 
L 73.99312 102.29304 
L 83.377673 102.08664 
L 92.657171 102.066 
L 102.072884 101.86992 
L 111.73149 101.48808 
L 121.132705 101.40552 
L 130.182833 101.4984 
L 139.485917 101.97312 
L 149.053966 102.26208 
L 158.028035 102.066 
L 167.570442 101.90088 
L 177.191937 101.90088 
L 185.980996 102.0144 
L 195.362304 102.25176 
L 204.707691 102.6336 
L 214.103496 102.88128 
L 223.336796 102.77808 
L 232.862865 102.85032 
L 242.278362 102.93288 
L 251.445014 102.95352 
L 260.929646 103.00512 
L 270.113826 102.69552 
L 279.36 102.55104 
" clip-path="url(#p637dbcc6e0)" style="fill: none; stroke: #f5841e; stroke-width: 0.6"/>
   </g>
  </g>
 </g>
 <defs>
  <clipPath id="p637dbcc6e0">
   <rect x="8.64" y="4.8" width="270.72" height="103.2"/>
  </clipPath>
 </defs>
</svg>
