<?xml version="1.0" encoding="utf-8" standalone="no"?>
<!DOCTYPE svg PUBLIC "-//W3C//DTD SVG 1.1//EN"
  "http://www.w3.org/Graphics/SVG/1.1/DTD/svg11.dtd">
<svg xmlns:xlink="http://www.w3.org/1999/xlink" width="288pt" height="120pt" viewBox="0 0 288 120" xmlns="http://www.w3.org/2000/svg" version="1.1">
<desc id="nav-meta">{"window":"3m","count":4,"labels":["28.01","27.02","29.03","28.04"],"tick_utc":["2026-01-28T12:00:00Z","2026-02-27T03:18:03Z","2026-03-29T03:47:09Z","2026-04-28T04:25:03Z"],"w":720,"h":300}</desc>

 <metadata>
  <rdf:RDF xmlns:dc="http://purl.org/dc/elements/1.1/" xmlns:cc="http://creativecommons.org/ns#" xmlns:rdf="http://www.w3.org/1999/02/22-rdf-syntax-ns#">
   <cc:Work>
    <dc:type rdf:resource="http://purl.org/dc/dcmitype/StillImage"/>
    <dc:date>2026-04-28T09:07:56.865841</dc:date>
    <dc:format>image/svg+xml</dc:format>
    <dc:creator>
     <cc:Agent>
      <dc:title>Matplotlib v3.10.9, https://matplotlib.org/</dc:title>
     </cc:Agent>
    </dc:creator>
   </cc:Work>
  </rdf:RDF>
 </metadata>
 <defs>
  <style type="text/css">*{stroke-linejoin: round; stroke-linecap: butt}</style>
 </defs>
 <g id="figure_1">
  <g id="patch_1">
   <path d="M 0 120 
L 288 120 
L 288 0 
L 0 0 
L 0 120 
z
" style="fill: none; opacity: 0"/>
  </g>
  <g id="axes_1">
   <g id="patch_2">
    <path d="M 8.64 108 
L 279.36 108 
L 279.36 4.8 
L 8.64 4.8 
L 8.64 108 
z
" style="fill: none"/>
   </g>
   <g id="matplotlib.axis_1"/>
   <g id="matplotlib.axis_2"/>
   <g id="line2d_1">
    <path d="M 8.64 87.36 
L 279.36 87.36 
" clip-path="url(#pf3316c3eff)" style="fill: none; stroke: #b2b2b2; stroke-opacity: 0.35; stroke-width: 0.5; stroke-linecap: square"/>
   </g>
   <g id="line2d_2">
    <path d="M 8.64 66.72 
L 279.36 66.72 
" clip-path="url(#pf3316c3eff)" style="fill: none; stroke: #b2b2b2; stroke-opacity: 0.35; stroke-width: 0.5; stroke-linecap: square"/>
   </g>
   <g id="line2d_3">
    <path d="M 8.64 46.08 
L 279.36 46.08 
" clip-path="url(#pf3316c3eff)" style="fill: none; stroke: #b2b2b2; stroke-opacity: 0.35; stroke-width: 0.5; stroke-linecap: square"/>
   </g>
   <g id="line2d_4">
    <path d="M 8.64 25.44 
L 279.36 25.44 
" clip-path="url(#pf3316c3eff)" style="fill: none; stroke: #b2b2b2; stroke-opacity: 0.35; stroke-width: 0.5; stroke-linecap: square"/>
   </g>
   <g id="line2d_5">
    <path d="M 8.64 91.76664 
L 11.658597 92.33424 
L 14.677193 94.36728 
L 17.69579 94.46016 
L 20.714386 97.71096 
L 23.732983 98.48496 
L 26.751579 97.85544 
L 29.299952 99.10416 
L 31.698793 100.16712 
L 34.715853 102.23112 
L 37.721522 100.54896 
L 40.80912 100.70376 
L 43.802806 100.68312 
L 46.838627 100.95144 
L 49.85097 101.28168 
L 52.858701 101.71512 
L 55.876389 101.84928 
L 58.858686 101.034 
L 61.718002 100.54896 
L 64.930222 101.04432 
L 67.569642 100.81728 
L 70.962629 101.034 
L 73.977557 101.4984 
L 76.97851 101.33328 
L 79.97866 101.1372 
L 83.031739 101.06496 
L 86.05942 102.09696 
L 88.823008 102.05568 
L 92.085747 101.4984 
L 95.090893 100.60056 
L 98.10376 100.80696 
L 101.08679 101.45712 
L 104.173968 100.55928 
L 107.161401 101.10624 
L 110.18702 100.8792 
L 113.188707 100.74504 
L 116.213801 100.21872 
L 119.230966 100.53864 
L 122.226399 101.07528 
L 125.274308 101.38488 
L 128.301953 101.26104 
L 131.301159 100.78632 
L 134.318568 100.91016 
L 137.349043 100.99272 
L 140.361805 100.38384 
L 143.376384 100.50768 
L 146.452732 100.60056 
L 149.479853 99.76464 
L 152.445624 99.49632 
L 155.487245 99.40344 
L 158.50668 100.09488 
L 161.495894 100.3632 
L 164.496812 100.19808 
L 167.560548 100.47672 
L 170.586237 100.79664 
L 173.576883 100.26 
L 176.820302 99.83688 
L 179.650795 100.13616 
L 182.6732 100.80696 
L 185.662938 101.38488 
L 188.722656 101.3436 
L 191.749882 101.292 
L 194.749438 101.28168 
L 197.793923 101.28168 
L 200.772761 101.8596 
L 203.794816 101.88024 
L 206.787559 101.72544 
L 209.851609 101.68416 
L 212.877997 101.47776 
L 215.876993 101.78736 
L 218.900481 101.09592 
L 221.908562 101.46744 
L 224.954933 101.3436 
L 227.927377 101.05464 
L 231.000127 101.3952 
L 234.034201 101.47776 
L 237.033582 100.86888 
L 240.049872 101.26104 
L 243.081536 100.99272 
L 246.093983 100.61088 
L 249.079284 100.44576 
L 252.137744 100.94112 
L 255.163818 101.09592 
L 258.169173 101.00304 
L 261.178406 100.69344 
L 264.209231 100.9308 
L 267.235828 100.92048 
L 270.218404 100.81728 
L 273.283956 100.8792 
L 276.33508 100.64184 
L 279.36 101.1888 
" clip-path="url(#pf3316c3eff)" style="fill: none; stroke: #bebebe; stroke-width: 0.5; stroke-linecap: round"/>
   </g>
   <g id="line2d_6">
    <path d="M 8.64 74.75928 
L 11.658597 74.96568 
L 14.677193 77.75208 
L 17.69579 79.48584 
L 20.714386 83.31456 
L 23.732983 85.90488 
L 26.751579 84.79032 
L 29.299952 85.84296 
L 31.698793 88.25784 
L 34.715853 91.41576 
L 37.721522 88.7532 
L 40.80912 88.65 
L 43.802806 88.55712 
L 46.838627 88.96992 
L 49.85097 89.7336 
L 52.858701 90.456 
L 55.876389 90.56952 
L 58.858686 89.15568 
L 61.718002 88.9596 
L 64.930222 90.6624 
L 67.569642 89.94 
L 70.962629 90.00192 
L 73.977557 90.3528 
L 76.97851 90.62112 
L 79.97866 90.5076 
L 83.031739 90.3528 
L 86.05942 92.004 
L 88.823008 92.13816 
L 92.085747 91.25064 
L 95.090893 89.166 
L 98.10376 89.56848 
L 101.08679 90.93072 
L 104.173968 89.41368 
L 107.161401 90.37344 
L 110.18702 89.79552 
L 113.188707 90.23928 
L 116.213801 88.0824 
L 119.230966 88.7532 
L 122.226399 90.16704 
L 125.274308 90.67272 
L 128.301953 90.18768 
L 131.301159 89.2692 
L 134.318568 89.54784 
L 137.349043 89.49624 
L 140.361805 88.31976 
L 143.376384 88.45392 
L 146.452732 88.46424 
L 149.479853 86.38992 
L 152.445624 84.80064 
L 155.487245 84.8316 
L 158.50668 86.586 
L 161.495894 87.74184 
L 164.496812 87.618 
L 167.560548 88.19592 
L 170.586237 89.08344 
L 173.576883 87.89664 
L 176.820302 87.3084 
L 179.650795 87.65928 
L 182.6732 88.96992 
L 185.662938 90.07416 
L 188.722656 89.76456 
L 191.749882 89.3724 
L 194.749438 89.00088 
L 197.793923 88.42296 
L 200.772761 88.81512 
L 203.794816 89.10408 
L 206.787559 89.14536 
L 209.851609 89.07312 
L 212.877997 87.9792 
L 215.876993 88.29912 
L 218.900481 86.38992 
L 221.908562 87.24648 
L 224.954933 87.1536 
L 227.927377 86.21448 
L 231.000127 86.66856 
L 234.034201 87.01944 
L 237.033582 84.44976 
L 240.049872 85.05864 
L 243.081536 84.58392 
L 246.093983 85.04832 
L 249.079284 83.71704 
L 252.137744 84.86256 
L 255.163818 85.6572 
L 258.169173 85.27536 
L 261.178406 84.49104 
L 264.209231 84.86256 
L 267.235828 85.32696 
L 270.218404 85.17216 
L 273.283956 85.31664 
L 276.33508 84.11952 
L 279.36 85.66752 
" clip-path="url(#pf3316c3eff)" style="fill: none; stroke: #4a8dff; stroke-width: 0.6"/>
   </g>
   <g id="line2d_7">
    <path d="M 8.64 84.28464 
L 11.658597 84.32592 
L 14.677193 89.08344 
L 17.69579 89.5272 
L 20.714386 95.14128 
L 23.732983 96.98856 
L 26.751579 95.08968 
L 29.299952 97.71096 
L 31.698793 99.80592 
L 34.715853 101.79768 
L 37.721522 100.03296 
L 40.80912 100.518 
L 43.802806 99.98136 
L 46.838627 100.49736 
L 49.85097 100.78632 
L 52.858701 101.07528 
L 55.876389 101.26104 
L 58.858686 100.63152 
L 61.718002 100.38384 
L 64.930222 100.84824 
L 67.569642 100.65216 
L 70.962629 101.034 
L 73.977557 101.19912 
L 76.97851 101.10624 
L 79.97866 100.97208 
L 83.031739 100.91016 
L 86.05942 101.7564 
L 88.823008 101.84928 
L 92.085747 101.56032 
L 95.090893 100.85856 
L 98.10376 101.12688 
L 101.08679 101.4468 
L 104.173968 101.02368 
L 107.161401 101.30232 
L 110.18702 100.81728 
L 113.188707 100.79664 
L 116.213801 99.3312 
L 119.230966 99.92976 
L 122.226399 100.78632 
L 125.274308 101.17848 
L 128.301953 101.1372 
L 131.301159 100.21872 
L 134.318568 100.37352 
L 137.349043 100.4664 
L 140.361805 99.88848 
L 143.376384 99.94008 
L 146.452732 99.81624 
L 149.479853 98.93904 
L 152.445624 98.3508 
L 155.487245 98.52624 
L 158.50668 99.78528 
L 161.495894 100.12584 
L 164.496812 100.03296 
L 167.560548 100.45608 
L 170.586237 100.83792 
L 173.576883 100.11552 
L 176.820302 99.87816 
L 179.650795 100.002 
L 182.6732 100.64184 
L 185.662938 101.41584 
L 188.722656 101.21976 
L 191.749882 101.14752 
L 194.749438 101.00304 
L 197.793923 100.86888 
L 200.772761 101.21976 
L 203.794816 101.28168 
L 206.787559 101.20944 
L 209.851609 101.14752 
L 212.877997 100.55928 
L 215.876993 100.65216 
L 218.900481 99.80592 
L 221.908562 99.96072 
L 224.954933 99.6408 
L 227.927377 99.1764 
L 231.000127 99.70272 
L 234.034201 99.94008 
L 237.033582 98.57784 
L 240.049872 98.65008 
L 243.081536 98.38176 
L 246.093983 98.48496 
L 249.079284 96.70992 
L 252.137744 98.05152 
L 255.163818 98.48496 
L 258.169173 97.96896 
L 261.178406 96.32808 
L 264.209231 96.20424 
L 267.235828 96.16296 
L 270.218404 96.1836 
L 273.283956 96.50352 
L 276.33508 94.76976 
L 279.36 97.19496 
" clip-path="url(#pf3316c3eff)" style="fill: none; stroke: #f5841e; stroke-width: 0.6"/>
   </g>
  </g>
 </g>
 <defs>
  <clipPath id="pf3316c3eff">
   <rect x="8.64" y="4.8" width="270.72" height="103.2"/>
  </clipPath>
 </defs>
</svg>
