<?xml version="1.0" encoding="utf-8" standalone="no"?>
<!DOCTYPE svg PUBLIC "-//W3C//DTD SVG 1.1//EN"
  "http://www.w3.org/Graphics/SVG/1.1/DTD/svg11.dtd">
<svg xmlns:xlink="http://www.w3.org/1999/xlink" width="288pt" height="120pt" viewBox="0 0 288 120" xmlns="http://www.w3.org/2000/svg" version="1.1">
<desc id="nav-meta">{"window":"3m","count":4,"labels":["20.02","22.03","20.04","20.05"],"tick_utc":["2026-02-20T03:20:24Z","2026-03-22T03:31:55Z","2026-04-20T04:02:26Z","2026-05-20T04:51:15Z"],"w":720,"h":300}</desc>

 <metadata>
  <rdf:RDF xmlns:dc="http://purl.org/dc/elements/1.1/" xmlns:cc="http://creativecommons.org/ns#" xmlns:rdf="http://www.w3.org/1999/02/22-rdf-syntax-ns#">
   <cc:Work>
    <dc:type rdf:resource="http://purl.org/dc/dcmitype/StillImage"/>
    <dc:date>2026-05-20T04:51:17.713833</dc:date>
    <dc:format>image/svg+xml</dc:format>
    <dc:creator>
     <cc:Agent>
      <dc:title>Matplotlib v3.10.9, https://matplotlib.org/</dc:title>
     </cc:Agent>
    </dc:creator>
   </cc:Work>
  </rdf:RDF>
 </metadata>
 <defs>
  <style type="text/css">*{stroke-linejoin: round; stroke-linecap: butt}</style>
 </defs>
 <g id="figure_1">
  <g id="patch_1">
   <path d="M 0 120 
L 288 120 
L 288 0 
L 0 0 
L 0 120 
z
" style="fill: none; opacity: 0"/>
  </g>
  <g id="axes_1">
   <g id="patch_2">
    <path d="M 8.64 108 
L 279.36 108 
L 279.36 4.8 
L 8.64 4.8 
L 8.64 108 
z
" style="fill: none"/>
   </g>
   <g id="matplotlib.axis_1"/>
   <g id="matplotlib.axis_2"/>
   <g id="line2d_1">
    <path d="M 8.64 87.36 
L 279.36 87.36 
" clip-path="url(#pfd57e73402)" style="fill: none; stroke: #b2b2b2; stroke-opacity: 0.35; stroke-width: 0.5; stroke-linecap: square"/>
   </g>
   <g id="line2d_2">
    <path d="M 8.64 66.72 
L 279.36 66.72 
" clip-path="url(#pfd57e73402)" style="fill: none; stroke: #b2b2b2; stroke-opacity: 0.35; stroke-width: 0.5; stroke-linecap: square"/>
   </g>
   <g id="line2d_3">
    <path d="M 8.64 46.08 
L 279.36 46.08 
" clip-path="url(#pfd57e73402)" style="fill: none; stroke: #b2b2b2; stroke-opacity: 0.35; stroke-width: 0.5; stroke-linecap: square"/>
   </g>
   <g id="line2d_4">
    <path d="M 8.64 25.44 
L 279.36 25.44 
" clip-path="url(#pfd57e73402)" style="fill: none; stroke: #b2b2b2; stroke-opacity: 0.35; stroke-width: 0.5; stroke-linecap: square"/>
   </g>
   <g id="line2d_5">
    <path d="M 8.64 101.33328 
L 11.661067 101.1372 
L 14.735434 101.06496 
L 17.784224 102.09696 
L 20.567081 102.05568 
L 23.852569 101.4984 
L 26.878667 100.60056 
L 29.912541 100.80696 
L 32.916369 101.45712 
L 36.025073 100.55928 
L 39.033334 101.10624 
L 42.080049 100.8792 
L 45.102664 100.74504 
L 48.148851 100.21872 
L 51.187051 100.53864 
L 54.203369 101.07528 
L 57.272529 101.38488 
L 60.321284 101.26104 
L 63.341402 100.78632 
L 66.379848 100.91016 
L 69.431453 100.99272 
L 72.465221 100.38384 
L 75.500818 100.50768 
L 78.598615 100.60056 
L 81.646842 99.76464 
L 84.633292 99.49632 
L 87.696119 99.40344 
L 90.736606 100.09488 
L 93.746662 100.3632 
L 96.768504 100.19808 
L 99.8536 100.47672 
L 102.900385 100.79664 
L 105.911883 100.26 
L 109.177916 99.83688 
L 112.028145 100.13616 
L 115.071622 100.80696 
L 118.082206 101.38488 
L 121.163257 101.3436 
L 124.21159 101.292 
L 127.232059 101.28168 
L 130.297771 101.28168 
L 133.297378 101.8596 
L 136.340504 101.88024 
L 139.354113 101.72544 
L 142.439527 101.68416 
L 145.487015 101.47776 
L 148.506922 101.78736 
L 151.55149 101.09592 
L 154.580543 101.46744 
L 157.648155 101.3436 
L 160.641324 101.05464 
L 163.735498 101.3952 
L 166.790726 101.47776 
L 169.81102 100.86888 
L 172.848341 101.26104 
L 175.901141 100.99272 
L 178.934593 100.61088 
L 181.940708 100.44576 
L 185.020493 100.94112 
L 188.067664 101.09592 
L 191.093974 101.00304 
L 194.124188 100.69344 
L 197.176145 100.9308 
L 200.223844 100.92048 
L 203.227215 100.81728 
L 206.314142 100.8792 
L 209.386538 100.64184 
L 212.432549 101.1888 
L 215.463889 101.09592 
L 218.508634 101.37456 
L 221.581488 101.21976 
L 224.543556 101.20944 
L 227.644907 101.23008 
L 230.683495 100.92048 
L 233.656188 101.06496 
L 236.749377 100.70376 
L 239.789829 100.55928 
L 242.778881 100.53864 
L 245.829642 99.60984 
L 248.930535 99.72336 
L 251.994171 99.44472 
L 254.991597 99.25896 
L 258.0457 99.32088 
L 261.081965 100.22904 
L 264.136595 100.01232 
L 267.137434 100.43544 
L 270.22246 100.75536 
L 273.29162 101.02368 
L 276.309486 101.02368 
L 279.36 101.17848 
" clip-path="url(#pfd57e73402)" style="fill: none; stroke: #bebebe; stroke-width: 0.5; stroke-linecap: round"/>
   </g>
   <g id="line2d_6">
    <path d="M 8.64 90.62112 
L 11.661067 90.5076 
L 14.735434 90.3528 
L 17.784224 92.004 
L 20.567081 92.13816 
L 23.852569 91.25064 
L 26.878667 89.166 
L 29.912541 89.56848 
L 32.916369 90.93072 
L 36.025073 89.41368 
L 39.033334 90.37344 
L 42.080049 89.79552 
L 45.102664 90.23928 
L 48.148851 88.0824 
L 51.187051 88.7532 
L 54.203369 90.16704 
L 57.272529 90.67272 
L 60.321284 90.18768 
L 63.341402 89.2692 
L 66.379848 89.54784 
L 69.431453 89.49624 
L 72.465221 88.31976 
L 75.500818 88.45392 
L 78.598615 88.46424 
L 81.646842 86.38992 
L 84.633292 84.80064 
L 87.696119 84.8316 
L 90.736606 86.586 
L 93.746662 87.74184 
L 96.768504 87.618 
L 99.8536 88.19592 
L 102.900385 89.08344 
L 105.911883 87.89664 
L 109.177916 87.3084 
L 112.028145 87.65928 
L 115.071622 88.96992 
L 118.082206 90.07416 
L 121.163257 89.76456 
L 124.21159 89.3724 
L 127.232059 89.00088 
L 130.297771 88.42296 
L 133.297378 88.81512 
L 136.340504 89.10408 
L 139.354113 89.14536 
L 142.439527 89.07312 
L 145.487015 87.9792 
L 148.506922 88.29912 
L 151.55149 86.38992 
L 154.580543 87.24648 
L 157.648155 87.1536 
L 160.641324 86.21448 
L 163.735498 86.66856 
L 166.790726 87.01944 
L 169.81102 84.44976 
L 172.848341 85.05864 
L 175.901141 84.58392 
L 178.934593 85.04832 
L 181.940708 83.71704 
L 185.020493 84.86256 
L 188.067664 85.6572 
L 191.093974 85.27536 
L 194.124188 84.49104 
L 197.176145 84.86256 
L 200.223844 85.32696 
L 203.227215 85.17216 
L 206.314142 85.31664 
L 209.386538 84.11952 
L 212.432549 85.66752 
L 215.463889 85.26504 
L 218.508634 86.26608 
L 221.581488 85.77072 
L 224.543556 85.38888 
L 227.644907 85.3992 
L 230.683495 84.09888 
L 233.656188 84.22272 
L 236.749377 84.34656 
L 239.789829 85.06896 
L 242.778881 85.7604 
L 245.829642 85.0896 
L 248.930535 85.01736 
L 251.994171 84.9348 
L 254.991597 85.296 
L 258.0457 85.35792 
L 261.081965 86.1732 
L 264.136595 85.92552 
L 267.137434 86.55504 
L 270.22246 87.13296 
L 273.29162 88.10304 
L 276.309486 87.9276 
L 279.36 88.26816 
" clip-path="url(#pfd57e73402)" style="fill: none; stroke: #4a8dff; stroke-width: 0.6"/>
   </g>
   <g id="line2d_7">
    <path d="M 8.64 101.10624 
L 11.661067 100.97208 
L 14.735434 100.91016 
L 17.784224 101.7564 
L 20.567081 101.84928 
L 23.852569 101.56032 
L 26.878667 100.85856 
L 29.912541 101.12688 
L 32.916369 101.4468 
L 36.025073 101.02368 
L 39.033334 101.30232 
L 42.080049 100.81728 
L 45.102664 100.79664 
L 48.148851 99.3312 
L 51.187051 99.92976 
L 54.203369 100.78632 
L 57.272529 101.17848 
L 60.321284 101.1372 
L 63.341402 100.21872 
L 66.379848 100.37352 
L 69.431453 100.4664 
L 72.465221 99.88848 
L 75.500818 99.94008 
L 78.598615 99.81624 
L 81.646842 98.93904 
L 84.633292 98.3508 
L 87.696119 98.52624 
L 90.736606 99.78528 
L 93.746662 100.12584 
L 96.768504 100.03296 
L 99.8536 100.45608 
L 102.900385 100.83792 
L 105.911883 100.11552 
L 109.177916 99.87816 
L 112.028145 100.002 
L 115.071622 100.64184 
L 118.082206 101.41584 
L 121.163257 101.21976 
L 124.21159 101.14752 
L 127.232059 101.00304 
L 130.297771 100.86888 
L 133.297378 101.21976 
L 136.340504 101.28168 
L 139.354113 101.20944 
L 142.439527 101.14752 
L 145.487015 100.55928 
L 148.506922 100.65216 
L 151.55149 99.80592 
L 154.580543 99.96072 
L 157.648155 99.6408 
L 160.641324 99.1764 
L 163.735498 99.70272 
L 166.790726 99.94008 
L 169.81102 98.57784 
L 172.848341 98.65008 
L 175.901141 98.38176 
L 178.934593 98.48496 
L 181.940708 96.70992 
L 185.020493 98.05152 
L 188.067664 98.48496 
L 191.093974 97.96896 
L 194.124188 96.32808 
L 197.176145 96.20424 
L 200.223844 96.16296 
L 203.227215 96.1836 
L 206.314142 96.50352 
L 209.386538 94.76976 
L 212.432549 97.19496 
L 215.463889 96.9576 
L 218.508634 97.9896 
L 221.581488 96.89568 
L 224.543556 95.45088 
L 227.644907 95.67792 
L 230.683495 93.43848 
L 233.656188 92.90184 
L 236.749377 92.25168 
L 239.789829 92.87088 
L 242.778881 94.2744 
L 245.829642 93.1392 
L 248.930535 92.97408 
L 251.994171 92.9844 
L 254.991597 92.60256 
L 258.0457 92.53032 
L 261.081965 94.54272 
L 264.136595 92.85024 
L 267.137434 94.82136 
L 270.22246 95.75016 
L 273.29162 96.97824 
L 276.309486 97.08144 
L 279.36 97.23624 
" clip-path="url(#pfd57e73402)" style="fill: none; stroke: #f5841e; stroke-width: 0.6"/>
   </g>
  </g>
 </g>
 <defs>
  <clipPath id="pfd57e73402">
   <rect x="8.64" y="4.8" width="270.72" height="103.2"/>
  </clipPath>
 </defs>
</svg>
