<?xml version="1.0" encoding="utf-8" standalone="no"?>
<!DOCTYPE svg PUBLIC "-//W3C//DTD SVG 1.1//EN"
  "http://www.w3.org/Graphics/SVG/1.1/DTD/svg11.dtd">
<svg xmlns:xlink="http://www.w3.org/1999/xlink" width="288pt" height="120pt" viewBox="0 0 288 120" xmlns="http://www.w3.org/2000/svg" version="1.1">
<desc id="nav-meta">{"window":"6m","count":4,"labels":["21.01","22.03","20.05","19.07"],"tick_utc":["2026-01-21T12:00:00Z","2026-03-22T03:31:55Z","2026-05-20T04:51:15Z","2026-07-19T04:06:12Z"],"w":720,"h":300}</desc>

 <metadata>
  <rdf:RDF xmlns:dc="http://purl.org/dc/elements/1.1/" xmlns:cc="http://creativecommons.org/ns#" xmlns:rdf="http://www.w3.org/1999/02/22-rdf-syntax-ns#">
   <cc:Work>
    <dc:type rdf:resource="http://purl.org/dc/dcmitype/StillImage"/>
    <dc:date>2026-07-19T19:50:46.234733</dc:date>
    <dc:format>image/svg+xml</dc:format>
    <dc:creator>
     <cc:Agent>
      <dc:title>Matplotlib v3.11.1, https://matplotlib.org/</dc:title>
     </cc:Agent>
    </dc:creator>
   </cc:Work>
  </rdf:RDF>
 </metadata>
 <defs>
  <style type="text/css">*{stroke-linejoin: round; stroke-linecap: butt}</style>
 </defs>
 <g id="figure_1">
  <g id="patch_1">
   <path d="M 0 120 
L 288 120 
L 288 0 
L 0 0 
L 0 120 
z
" style="fill: none; opacity: 0"/>
  </g>
  <g id="axes_1">
   <g id="patch_2">
    <path d="M 8.64 108 
L 279.36 108 
L 279.36 4.8 
L 8.64 4.8 
L 8.64 108 
z
" style="fill: none"/>
   </g>
   <g id="matplotlib.axis_1"/>
   <g id="matplotlib.axis_2"/>
   <g id="line2d_1">
    <path d="M 8.64 87.36 
L 279.36 87.36 
" clip-path="url(#pabae62ac6f)" style="fill: none; stroke: #b2b2b2; stroke-opacity: 0.35; stroke-width: 0.5; stroke-linecap: square"/>
   </g>
   <g id="line2d_2">
    <path d="M 8.64 66.72 
L 279.36 66.72 
" clip-path="url(#pabae62ac6f)" style="fill: none; stroke: #b2b2b2; stroke-opacity: 0.35; stroke-width: 0.5; stroke-linecap: square"/>
   </g>
   <g id="line2d_3">
    <path d="M 8.64 46.08 
L 279.36 46.08 
" clip-path="url(#pabae62ac6f)" style="fill: none; stroke: #b2b2b2; stroke-opacity: 0.35; stroke-width: 0.5; stroke-linecap: square"/>
   </g>
   <g id="line2d_4">
    <path d="M 8.64 25.44 
L 279.36 25.44 
" clip-path="url(#pabae62ac6f)" style="fill: none; stroke: #b2b2b2; stroke-opacity: 0.35; stroke-width: 0.5; stroke-linecap: square"/>
   </g>
   <g id="line2d_5">
    <path d="M 8.64 92.12784 
L 10.155187 91.16808 
L 13.185562 91.73568 
L 14.700749 91.78728 
L 16.215937 94.0164 
L 17.731124 92.5716 
L 19.246312 91.76664 
L 20.761499 92.33424 
L 22.276686 94.36728 
L 23.791874 94.46016 
L 25.307061 97.71096 
L 26.822248 98.48496 
L 28.337436 97.85544 
L 30.820695 100.16712 
L 32.33511 102.23112 
L 33.843809 100.54896 
L 35.393632 100.70376 
L 36.896315 100.68312 
L 39.932197 101.28168 
L 41.44193 101.71512 
L 42.956661 101.84928 
L 44.453628 101.034 
L 45.888865 100.54896 
L 47.501241 101.04432 
L 48.826101 100.81728 
L 50.529214 101.034 
L 52.04256 101.4984 
L 56.587315 101.06496 
L 58.107062 102.09696 
L 59.494248 102.05568 
L 61.131983 101.4984 
L 62.640418 100.60056 
L 64.15273 100.80696 
L 65.650065 101.45712 
L 67.199677 100.55928 
L 68.699221 101.10624 
L 71.724633 100.74504 
L 73.243082 100.21872 
L 74.757551 100.53864 
L 76.261111 101.07528 
L 77.791012 101.38488 
L 79.310741 101.26104 
L 80.816196 100.78632 
L 83.851937 100.99272 
L 85.364195 100.38384 
L 88.421542 100.60056 
L 89.941008 99.76464 
L 91.42968 99.49632 
L 92.956424 99.40344 
L 94.472032 100.09488 
L 95.972471 100.3632 
L 97.478785 100.19808 
L 100.535377 100.79664 
L 102.036535 100.26 
L 103.664572 99.83688 
L 105.085341 100.13616 
L 108.103142 101.38488 
L 114.192301 101.28168 
L 115.687532 101.8596 
L 117.204455 101.88024 
L 118.706665 101.72544 
L 120.244668 101.68416 
L 121.763766 101.47776 
L 123.269115 101.78736 
L 124.786758 101.09592 
L 126.296667 101.46744 
L 127.825796 101.3436 
L 129.317817 101.05464 
L 130.860186 101.3952 
L 132.383143 101.47776 
L 133.888685 100.86888 
L 135.402715 101.26104 
L 136.924461 100.99272 
L 138.436562 100.61088 
L 139.935036 100.44576 
L 141.470233 100.94112 
L 142.989174 101.09592 
L 144.497714 101.00304 
L 146.008202 100.69344 
L 147.529527 100.9308 
L 152.084594 100.8792 
L 153.616109 100.64184 
L 155.13447 101.1888 
L 156.645519 101.09592 
L 158.163249 101.37456 
L 159.694991 101.21976 
L 162.717457 101.23008 
L 164.232118 100.92048 
L 165.713933 101.06496 
L 167.255811 100.70376 
L 168.771402 100.55928 
L 170.261371 100.53864 
L 171.7821 99.60984 
L 173.327819 99.72336 
L 176.34911 99.25896 
L 177.871505 99.32088 
L 179.385009 100.22904 
L 180.907667 100.01232 
L 183.941321 100.75536 
L 185.471222 101.02368 
L 186.975554 101.02368 
L 188.49616 101.17848 
L 190.019976 100.7244 
L 191.523554 100.75536 
L 193.017925 101.11656 
L 194.557103 100.91016 
L 196.092229 100.89984 
L 197.584461 101.1372 
L 199.115204 101.2404 
L 200.625551 101.6532 
L 202.14186 101.4984 
L 203.635197 101.48808 
L 205.181319 101.32296 
L 208.2192 101.7048 
L 209.751433 102.54072 
L 211.261429 103.08768 
L 212.751662 103.36632 
L 214.24356 104.22288 
L 215.791314 103.85136 
L 218.799469 103.43856 
L 220.33037 103.81008 
L 221.854448 103.72752 
L 223.37558 103.50048 
L 224.879685 103.5108 
L 226.405868 103.31472 
L 229.495254 102.61296 
L 230.96218 102.6336 
L 234.020982 103.28376 
L 237.022298 102.69552 
L 238.581836 102.582 
L 241.527052 103.15992 
L 243.041836 103.36632 
L 244.564792 103.36632 
L 246.061408 102.81936 
L 247.605478 103.0464 
L 249.131626 102.9432 
L 250.617439 102.59232 
L 252.154793 102.40656 
L 256.650814 101.3436 
L 258.188185 101.6532 
L 261.210511 101.63256 
L 262.684521 101.95248 
L 264.245638 102.08664 
L 265.757405 101.9112 
L 271.764352 102.45816 
L 273.279925 102.08664 
L 277.822032 102.4272 
L 279.36 102.34464 
L 279.36 102.34464 
" clip-path="url(#pabae62ac6f)" style="fill: none; stroke: #bebebe; stroke-width: 0.5; stroke-linecap: round"/>
   </g>
   <g id="line2d_6">
    <path d="M 8.64 76.01832 
L 10.155187 75.41976 
L 11.670375 75.83256 
L 14.700749 75.82224 
L 16.215937 77.82432 
L 17.731124 76.14216 
L 19.246312 74.75928 
L 20.761499 74.96568 
L 22.276686 77.75208 
L 23.791874 79.48584 
L 25.307061 83.31456 
L 26.822248 85.90488 
L 28.337436 84.79032 
L 29.616594 85.84296 
L 32.33511 91.41576 
L 33.843809 88.7532 
L 36.896315 88.55712 
L 38.420148 88.96992 
L 41.44193 90.456 
L 42.956661 90.56952 
L 44.453628 89.15568 
L 45.888865 88.9596 
L 47.501241 90.6624 
L 48.826101 89.94 
L 50.529214 90.00192 
L 53.548891 90.62112 
L 56.587315 90.3528 
L 58.107062 92.004 
L 59.494248 92.13816 
L 61.131983 91.25064 
L 62.640418 89.166 
L 64.15273 89.56848 
L 65.650065 90.93072 
L 67.199677 89.41368 
L 68.699221 90.37344 
L 70.217934 89.79552 
L 71.724633 90.23928 
L 73.243082 88.0824 
L 74.757551 88.7532 
L 76.261111 90.16704 
L 77.791012 90.67272 
L 79.310741 90.18768 
L 80.816196 89.2692 
L 82.330787 89.54784 
L 83.851937 89.49624 
L 85.364195 88.31976 
L 86.877366 88.45392 
L 88.421542 88.46424 
L 89.941008 86.38992 
L 91.42968 84.80064 
L 92.956424 84.8316 
L 94.472032 86.586 
L 95.972471 87.74184 
L 97.478785 87.618 
L 99.01663 88.19592 
L 100.535377 89.08344 
L 102.036535 87.89664 
L 103.664572 87.3084 
L 105.085341 87.65928 
L 106.60244 88.96992 
L 108.103142 90.07416 
L 111.158489 89.3724 
L 112.664119 89.00088 
L 114.192301 88.42296 
L 117.204455 89.10408 
L 118.706665 89.14536 
L 120.244668 89.07312 
L 121.763766 87.9792 
L 123.269115 88.29912 
L 124.786758 86.38992 
L 126.296667 87.24648 
L 127.825796 87.1536 
L 129.317817 86.21448 
L 132.383143 87.01944 
L 133.888685 84.44976 
L 135.402715 85.05864 
L 136.924461 84.58392 
L 138.436562 85.04832 
L 139.935036 83.71704 
L 141.470233 84.86256 
L 142.989174 85.6572 
L 144.497714 85.27536 
L 146.008202 84.49104 
L 149.048731 85.32696 
L 150.545837 85.17216 
L 152.084594 85.31664 
L 153.616109 84.11952 
L 155.13447 85.66752 
L 156.645519 85.26504 
L 158.163249 86.26608 
L 161.17151 85.38888 
L 162.717457 85.3992 
L 164.232118 84.09888 
L 167.255811 84.34656 
L 170.261371 85.7604 
L 171.7821 85.0896 
L 174.854967 84.9348 
L 176.34911 85.296 
L 177.871505 85.35792 
L 179.385009 86.1732 
L 180.907667 85.92552 
L 183.941321 87.13296 
L 185.471222 88.10304 
L 186.975554 87.9276 
L 188.49616 88.26816 
L 190.019976 87.78312 
L 191.523554 87.95856 
L 193.017925 88.94928 
L 194.557103 88.14432 
L 197.584461 88.52616 
L 199.115204 88.86672 
L 200.625551 90.22896 
L 202.14186 89.82648 
L 203.635197 89.87808 
L 205.181319 89.46528 
L 206.718919 90.0432 
L 208.2192 89.96064 
L 209.751433 91.99368 
L 211.261429 93.05664 
L 212.751662 93.74808 
L 214.24356 97.02984 
L 215.791314 95.93592 
L 217.3132 95.07936 
L 218.799469 94.46016 
L 220.33037 95.47152 
L 223.37558 94.82136 
L 224.879685 94.8936 
L 226.405868 94.70784 
L 229.495254 93.40752 
L 230.96218 92.9844 
L 232.470107 93.93384 
L 234.020982 94.4292 
L 237.022298 93.87192 
L 238.581836 93.81 
L 240.006445 94.03704 
L 241.527052 94.83168 
L 243.041836 95.48184 
L 244.564792 96.63768 
L 246.061408 96.14232 
L 247.605478 96.30744 
L 249.131626 96.29712 
L 250.617439 96.04944 
L 252.154793 95.9256 
L 253.643447 95.39928 
L 255.14215 94.31568 
L 256.650814 93.57264 
L 258.188185 93.32496 
L 259.718051 93.22176 
L 261.210511 93.35592 
L 264.245638 93.77904 
L 265.757405 93.26304 
L 267.227856 92.92248 
L 268.765701 92.71608 
L 270.284203 93.15984 
L 271.764352 93.17016 
L 273.279925 91.80792 
L 274.7989 91.14744 
L 276.314333 92.13816 
L 277.822032 92.25168 
L 279.36 91.9008 
L 279.36 91.9008 
" clip-path="url(#pabae62ac6f)" style="fill: none; stroke: #4a8dff; stroke-width: 0.6"/>
   </g>
   <g id="line2d_7">
    <path d="M 8.64 85.20312 
L 10.155187 84.12984 
L 11.670375 84.03696 
L 13.185562 84.06792 
L 14.700749 84.3156 
L 16.215937 87.02976 
L 17.731124 85.21344 
L 19.246312 84.28464 
L 20.761499 84.32592 
L 22.276686 89.08344 
L 23.791874 89.5272 
L 25.307061 95.14128 
L 26.822248 96.98856 
L 28.337436 95.08968 
L 29.616594 97.71096 
L 30.820695 99.80592 
L 32.33511 101.79768 
L 33.843809 100.03296 
L 35.393632 100.518 
L 36.896315 99.98136 
L 38.420148 100.49736 
L 42.956661 101.26104 
L 44.453628 100.63152 
L 45.888865 100.38384 
L 47.501241 100.84824 
L 48.826101 100.65216 
L 50.529214 101.034 
L 52.04256 101.19912 
L 56.587315 100.91016 
L 58.107062 101.7564 
L 59.494248 101.84928 
L 61.131983 101.56032 
L 62.640418 100.85856 
L 65.650065 101.4468 
L 67.199677 101.02368 
L 68.699221 101.30232 
L 70.217934 100.81728 
L 71.724633 100.79664 
L 73.243082 99.3312 
L 74.757551 99.92976 
L 76.261111 100.78632 
L 77.791012 101.17848 
L 79.310741 101.1372 
L 80.816196 100.21872 
L 83.851937 100.4664 
L 85.364195 99.88848 
L 86.877366 99.94008 
L 88.421542 99.81624 
L 89.941008 98.93904 
L 91.42968 98.3508 
L 92.956424 98.52624 
L 94.472032 99.78528 
L 95.972471 100.12584 
L 97.478785 100.03296 
L 100.535377 100.83792 
L 102.036535 100.11552 
L 103.664572 99.87816 
L 105.085341 100.002 
L 106.60244 100.64184 
L 108.103142 101.41584 
L 109.63897 101.21976 
L 112.664119 101.00304 
L 114.192301 100.86888 
L 115.687532 101.21976 
L 117.204455 101.28168 
L 120.244668 101.14752 
L 121.763766 100.55928 
L 123.269115 100.65216 
L 124.786758 99.80592 
L 126.296667 99.96072 
L 127.825796 99.6408 
L 129.317817 99.1764 
L 130.860186 99.70272 
L 132.383143 99.94008 
L 133.888685 98.57784 
L 135.402715 98.65008 
L 136.924461 98.38176 
L 138.436562 98.48496 
L 139.935036 96.70992 
L 141.470233 98.05152 
L 142.989174 98.48496 
L 144.497714 97.96896 
L 146.008202 96.32808 
L 149.048731 96.16296 
L 150.545837 96.1836 
L 152.084594 96.50352 
L 153.616109 94.76976 
L 155.13447 97.19496 
L 156.645519 96.9576 
L 158.163249 97.9896 
L 159.694991 96.89568 
L 161.17151 95.45088 
L 162.717457 95.67792 
L 164.232118 93.43848 
L 167.255811 92.25168 
L 168.771402 92.87088 
L 170.261371 94.2744 
L 171.7821 93.1392 
L 173.327819 92.97408 
L 174.854967 92.9844 
L 176.34911 92.60256 
L 177.871505 92.53032 
L 179.385009 94.54272 
L 180.907667 92.85024 
L 182.403511 94.82136 
L 183.941321 95.75016 
L 185.471222 96.97824 
L 188.49616 97.23624 
L 190.019976 95.94624 
L 191.523554 96.30744 
L 193.017925 98.08248 
L 194.557103 97.2672 
L 196.092229 96.61704 
L 197.584461 97.23624 
L 199.115204 98.08248 
L 200.625551 99.18672 
L 202.14186 99.03192 
L 203.635197 99.1248 
L 205.181319 98.74296 
L 206.718919 99.09384 
L 208.2192 100.0536 
L 209.751433 101.23008 
L 211.261429 101.99376 
L 212.751662 102.08664 
L 214.24356 102.8916 
L 215.791314 102.45816 
L 218.799469 102.10728 
L 220.33037 102.582 
L 223.37558 102.08664 
L 224.879685 102.066 
L 226.405868 101.86992 
L 227.971421 101.48808 
L 229.495254 101.40552 
L 230.96218 101.4984 
L 232.470107 101.97312 
L 234.020982 102.26208 
L 237.022298 101.90088 
L 238.581836 101.90088 
L 240.006445 102.0144 
L 241.527052 102.25176 
L 243.041836 102.6336 
L 244.564792 102.88128 
L 246.061408 102.77808 
L 252.154793 103.00512 
L 253.643447 102.69552 
L 255.14215 102.55104 
L 256.650814 102.2724 
L 261.210511 102.13824 
L 264.245638 102.36528 
L 265.757405 101.94216 
L 268.765701 101.9112 
L 270.284203 102.2208 
L 271.764352 102.31368 
L 273.279925 101.79768 
L 274.7989 101.81832 
L 276.314333 102.07632 
L 279.36 101.79768 
L 279.36 101.79768 
" clip-path="url(#pabae62ac6f)" style="fill: none; stroke: #f5841e; stroke-width: 0.6"/>
   </g>
  </g>
 </g>
 <defs>
  <clipPath id="pabae62ac6f">
   <rect x="8.64" y="4.8" width="270.72" height="103.2"/>
  </clipPath>
 </defs>
</svg>
