<?xml version="1.0" encoding="utf-8" standalone="no"?>
<!DOCTYPE svg PUBLIC "-//W3C//DTD SVG 1.1//EN"
  "http://www.w3.org/Graphics/SVG/1.1/DTD/svg11.dtd">
<svg xmlns:xlink="http://www.w3.org/1999/xlink" width="288pt" height="120pt" viewBox="0 0 288 120" xmlns="http://www.w3.org/2000/svg" version="1.1">
<desc id="nav-meta">{"window":"1y","count":4,"labels":["18.05","16.09","15.01","17.05"],"tick_utc":["2025-05-18T12:00:00Z","2025-09-16T12:00:00Z","2026-01-15T12:00:00Z","2026-05-17T04:42:26Z"],"w":720,"h":300}</desc>

 <metadata>
  <rdf:RDF xmlns:dc="http://purl.org/dc/elements/1.1/" xmlns:cc="http://creativecommons.org/ns#" xmlns:rdf="http://www.w3.org/1999/02/22-rdf-syntax-ns#">
   <cc:Work>
    <dc:type rdf:resource="http://purl.org/dc/dcmitype/StillImage"/>
    <dc:date>2026-05-17T14:10:16.690240</dc:date>
    <dc:format>image/svg+xml</dc:format>
    <dc:creator>
     <cc:Agent>
      <dc:title>Matplotlib v3.10.9, https://matplotlib.org/</dc:title>
     </cc:Agent>
    </dc:creator>
   </cc:Work>
  </rdf:RDF>
 </metadata>
 <defs>
  <style type="text/css">*{stroke-linejoin: round; stroke-linecap: butt}</style>
 </defs>
 <g id="figure_1">
  <g id="patch_1">
   <path d="M 0 120 
L 288 120 
L 288 0 
L 0 0 
L 0 120 
z
" style="fill: none; opacity: 0"/>
  </g>
  <g id="axes_1">
   <g id="patch_2">
    <path d="M 8.64 108 
L 279.36 108 
L 279.36 4.8 
L 8.64 4.8 
L 8.64 108 
z
" style="fill: none"/>
   </g>
   <g id="matplotlib.axis_1"/>
   <g id="matplotlib.axis_2"/>
   <g id="line2d_1">
    <path d="M 8.64 87.36 
L 279.36 87.36 
" clip-path="url(#p54dfffc0a5)" style="fill: none; stroke: #b2b2b2; stroke-opacity: 0.35; stroke-width: 0.5; stroke-linecap: square"/>
   </g>
   <g id="line2d_2">
    <path d="M 8.64 66.72 
L 279.36 66.72 
" clip-path="url(#p54dfffc0a5)" style="fill: none; stroke: #b2b2b2; stroke-opacity: 0.35; stroke-width: 0.5; stroke-linecap: square"/>
   </g>
   <g id="line2d_3">
    <path d="M 8.64 46.08 
L 279.36 46.08 
" clip-path="url(#p54dfffc0a5)" style="fill: none; stroke: #b2b2b2; stroke-opacity: 0.35; stroke-width: 0.5; stroke-linecap: square"/>
   </g>
   <g id="line2d_4">
    <path d="M 8.64 25.44 
L 279.36 25.44 
" clip-path="url(#p54dfffc0a5)" style="fill: none; stroke: #b2b2b2; stroke-opacity: 0.35; stroke-width: 0.5; stroke-linecap: square"/>
   </g>
   <g id="line2d_5">
    <path d="M 8.64 81.168 
L 9.384358 79.63032 
L 10.128715 80.95128 
L 10.873073 80.4972 
L 12.361788 77.43216 
L 13.106146 78.846 
L 13.850504 78.41256 
L 14.594861 78.64992 
L 15.339219 78.76344 
L 16.083577 78.25776 
L 16.827934 79.47552 
L 17.572292 80.92032 
L 18.316649 83.73768 
L 19.061007 83.6448 
L 19.805365 83.4384 
L 20.549722 83.61384 
L 21.29408 83.99568 
L 22.038438 84.55296 
L 22.782795 87.00912 
L 23.527153 85.98744 
L 24.271511 85.5024 
L 25.015868 84.8316 
L 25.760226 82.46832 
L 26.504584 81.426 
L 27.248941 82.5096 
L 27.993299 84.79032 
L 29.482014 86.95752 
L 30.226372 84.79032 
L 30.97073 85.13088 
L 31.715087 86.07 
L 32.459445 86.5344 
L 33.203802 86.31768 
L 34.692518 89.97096 
L 35.436875 90.48696 
L 36.181233 86.9472 
L 36.925591 86.66856 
L 37.669948 87.32904 
L 38.414306 88.53648 
L 39.158664 87.6696 
L 39.903021 85.30632 
L 40.647379 84.61488 
L 41.391737 84.17112 
L 42.136094 86.3796 
L 42.880452 84.92448 
L 43.62481 84.89352 
L 44.369167 86.13192 
L 45.113525 86.1732 
L 45.857883 84.99672 
L 46.60224 85.85328 
L 47.346598 85.01736 
L 48.090955 83.55192 
L 48.835313 81.7356 
L 49.579671 82.03488 
L 50.324028 82.65408 
L 51.812744 82.15872 
L 52.557101 81.70464 
L 53.301459 79.01112 
L 54.045817 78.39192 
L 54.790174 78.04104 
L 55.534532 78.16488 
L 56.27889 77.05032 
L 57.023247 72.82944 
L 57.767605 70.41456 
L 58.511963 74.69736 
L 59.25632 76.6272 
L 60.000678 75.63648 
L 60.745036 75.97704 
L 61.489393 74.976 
L 62.233751 76.49304 
L 62.978108 76.99872 
L 63.722466 77.90688 
L 64.466824 79.4652 
L 65.211181 82.02456 
L 65.955539 83.19072 
L 66.699897 82.27224 
L 67.444254 80.21856 
L 68.188612 81.67368 
L 68.93297 80.5488 
L 69.677327 78.588 
L 70.421685 78.19584 
L 71.166043 77.21544 
L 71.9104 76.524 
L 72.654758 78.68088 
L 73.399116 73.88208 
L 74.143473 71.364 
L 74.887831 73.8408 
L 75.632189 75.79128 
L 76.376546 74.65608 
L 77.120904 74.14008 
L 77.865261 76.50336 
L 78.609619 78.30936 
L 79.353977 75.3372 
L 80.098334 77.25672 
L 80.842692 71.78712 
L 81.58705 70.75512 
L 82.331407 70.24944 
L 83.075765 75.35784 
L 83.820123 72.95328 
L 84.56448 70.96152 
L 85.308838 67.87584 
L 86.053196 70.46616 
L 86.797553 71.11632 
L 87.541911 71.61168 
L 88.286269 72.7056 
L 89.030626 69.33096 
L 89.774984 68.9388 
L 90.519342 71.12664 
L 91.263699 70.90992 
L 92.008057 71.80776 
L 92.752415 70.074 
L 93.496772 68.01 
L 94.24113 67.10184 
L 94.985487 65.29584 
L 95.729845 64.01616 
L 96.474203 60.31128 
L 97.21856 60.19776 
L 97.962918 60.786 
L 98.707276 62.61264 
L 99.451633 61.74576 
L 100.195991 59.57856 
L 100.940349 58.86648 
L 101.684706 61.38456 
L 102.429064 61.07496 
L 103.173422 61.83864 
L 103.917779 66.29688 
L 104.662137 67.97904 
L 105.406495 68.69112 
L 106.150852 73.9956 
L 106.89521 70.45584 
L 107.639568 70.87896 
L 108.383925 68.91816 
L 109.128283 68.3196 
L 109.87264 69.47544 
L 111.361356 62.39592 
L 112.105713 62.81904 
L 112.850071 64.22256 
L 113.594429 64.05744 
L 114.338786 62.9532 
L 115.083144 66.14208 
L 115.827502 63.91296 
L 116.571859 66.17304 
L 117.316217 74.6148 
L 118.060575 77.78304 
L 118.804932 72.66432 
L 119.54929 69.69216 
L 120.293648 71.09568 
L 121.782363 76.06992 
L 122.526721 76.76136 
L 123.271078 75.25464 
L 124.015436 75.24432 
L 124.759793 74.63544 
L 125.504151 75.73968 
L 126.248509 77.31864 
L 126.992866 74.202 
L 127.737224 73.64472 
L 128.481582 73.48992 
L 129.225939 71.83872 
L 129.970297 72.17928 
L 130.714655 73.38672 
L 131.459012 73.43832 
L 132.20337 76.15248 
L 132.947728 75.3372 
L 133.692085 75.58488 
L 134.436443 75.35784 
L 135.180801 81.168 
L 135.925158 84.01632 
L 136.669516 82.06584 
L 137.413874 84.19176 
L 138.158231 82.27224 
L 138.902589 83.29392 
L 139.646946 81.62208 
L 140.391304 80.72424 
L 141.135662 84.33624 
L 141.880019 84.64584 
L 142.624377 86.844 
L 143.368735 88.52616 
L 144.113092 88.36104 
L 144.85745 88.93896 
L 145.601808 90.79656 
L 146.346165 88.09272 
L 147.090523 89.22792 
L 147.834881 90.00192 
L 148.579238 91.39512 
L 149.323596 91.63248 
L 150.067954 90.75528 
L 150.812311 88.7016 
L 151.556669 88.52616 
L 152.301027 87.45288 
L 153.045384 88.0308 
L 153.789742 88.94928 
L 155.278457 89.7336 
L 156.022815 91.86984 
L 156.767172 88.60872 
L 157.51153 86.87496 
L 159.000245 90.11544 
L 160.488961 90.53856 
L 161.233318 90.08448 
L 161.977676 88.79448 
L 162.722034 89.20728 
L 163.466391 89.22792 
L 164.210749 90.31152 
L 164.955107 90.10512 
L 165.699464 91.09584 
L 166.443822 91.61184 
L 167.18818 91.31256 
L 167.932537 92.87088 
L 168.676895 93.8616 
L 169.421253 92.02464 
L 170.16561 92.13816 
L 170.909968 92.07624 
L 171.654325 92.14848 
L 173.887398 93.69648 
L 175.376114 92.44776 
L 176.120471 92.30328 
L 176.864829 92.87088 
L 177.609187 92.38584 
L 178.353544 92.47872 
L 179.097902 91.88016 
L 179.84226 90.42504 
L 180.586617 90.08448 
L 181.330975 89.92968 
L 182.075333 88.76352 
L 182.81969 87.94824 
L 183.564048 89.2692 
L 184.308406 88.72224 
L 185.052763 89.39304 
L 185.797121 89.40336 
L 186.541478 88.41264 
L 187.285836 88.4952 
L 188.030194 86.86464 
L 188.774551 86.42088 
L 189.518909 87.62832 
L 190.263267 86.93688 
L 191.007624 87.23616 
L 192.49634 90.0432 
L 193.240697 92.12784 
L 193.985055 91.16808 
L 195.47377 91.73568 
L 196.218128 91.78728 
L 196.962486 94.0164 
L 197.706843 92.5716 
L 198.451201 91.76664 
L 199.195559 92.33424 
L 199.939916 94.36728 
L 200.684274 94.46016 
L 201.428631 97.71096 
L 202.172989 98.48496 
L 202.917347 97.85544 
L 204.137283 100.16712 
L 204.881262 102.23112 
L 205.622432 100.54896 
L 206.383805 100.70376 
L 207.12202 100.68312 
L 208.61344 101.28168 
L 209.355119 101.71512 
L 210.099252 101.84928 
L 210.834659 101.034 
L 211.539739 100.54896 
L 212.331843 101.04432 
L 212.982699 100.81728 
L 213.819378 101.034 
L 214.562831 101.4984 
L 216.795507 101.06496 
L 217.542105 102.09696 
L 218.22358 102.05568 
L 219.028141 101.4984 
L 219.769182 100.60056 
L 220.512127 100.80696 
L 221.247714 101.45712 
L 222.008983 100.55928 
L 222.745656 101.10624 
L 224.231933 100.74504 
L 224.977893 100.21872 
L 225.721898 100.53864 
L 226.460544 101.07528 
L 227.212129 101.38488 
L 227.958718 101.26104 
L 228.698295 100.78632 
L 230.189646 100.99272 
L 230.932565 100.38384 
L 232.434531 100.60056 
L 233.18099 99.76464 
L 233.912322 99.49632 
L 234.662357 99.40344 
L 235.406921 100.09488 
L 236.144034 100.3632 
L 236.884032 100.19808 
L 238.385627 100.79664 
L 239.123092 100.26 
L 239.922889 99.83688 
L 240.620862 100.13616 
L 242.103401 101.38488 
L 245.094788 101.28168 
L 245.829341 101.8596 
L 246.574552 101.88024 
L 247.312534 101.72544 
L 248.0681 101.68416 
L 248.814379 101.47776 
L 249.553904 101.78736 
L 250.299467 101.09592 
L 251.041232 101.46744 
L 251.792439 101.3436 
L 252.525416 101.05464 
L 253.283127 101.3952 
L 254.031301 101.47776 
L 254.77092 100.86888 
L 255.514709 101.26104 
L 257.741278 100.44576 
L 258.495466 100.94112 
L 259.241667 101.09592 
L 259.982759 101.00304 
L 260.724808 100.69344 
L 261.472181 100.9308 
L 263.709923 100.8792 
L 264.462302 100.64184 
L 265.208219 101.1888 
L 265.950543 101.09592 
L 266.69615 101.37456 
L 267.448641 101.21976 
L 268.933471 101.23008 
L 269.67757 100.92048 
L 270.405533 101.06496 
L 271.163003 100.70376 
L 271.907558 100.55928 
L 272.639527 100.53864 
L 273.386607 99.60984 
L 274.145964 99.72336 
L 275.630217 99.25896 
L 276.378115 99.32088 
L 277.121646 100.22904 
L 277.869674 100.01232 
L 279.36 100.75536 
L 279.36 100.75536 
" clip-path="url(#p54dfffc0a5)" style="fill: none; stroke: #bebebe; stroke-width: 0.5; stroke-linecap: round"/>
   </g>
   <g id="line2d_6">
    <path d="M 8.64 82.86048 
L 9.384358 83.00496 
L 10.128715 82.08648 
L 10.873073 82.12776 
L 11.617431 81.61176 
L 12.361788 80.15664 
L 13.106146 82.18968 
L 14.594861 81.79752 
L 15.339219 81.56016 
L 16.083577 80.0844 
L 16.827934 79.86768 
L 17.572292 80.50752 
L 18.316649 82.12776 
L 19.805365 81.92136 
L 20.549722 80.8584 
L 21.29408 81.07512 
L 22.038438 80.84808 
L 22.782795 83.6448 
L 23.527153 82.7676 
L 24.271511 82.0968 
L 25.015868 82.3548 
L 25.760226 79.74384 
L 26.504584 77.90688 
L 27.248941 78.39192 
L 27.993299 80.21856 
L 28.737657 81.34344 
L 29.482014 81.98328 
L 30.97073 81.5808 
L 31.715087 82.26192 
L 33.203802 82.15872 
L 33.94816 83.88216 
L 34.692518 85.89456 
L 35.436875 86.5344 
L 36.181233 83.61384 
L 36.925591 83.2836 
L 37.669948 83.71704 
L 38.414306 83.748 
L 39.903021 83.41776 
L 40.647379 82.44768 
L 41.391737 82.6644 
L 42.136094 83.89248 
L 42.880452 81.38472 
L 43.62481 81.14736 
L 44.369167 82.34448 
L 45.113525 82.23096 
L 45.857883 81.426 
L 46.60224 81.8388 
L 47.346598 80.76552 
L 48.835313 75.83256 
L 49.579671 75.67776 
L 50.324028 75.91512 
L 51.812744 74.88312 
L 52.557101 73.09776 
L 53.301459 69.6096 
L 54.045817 67.91712 
L 54.790174 66.94704 
L 55.534532 66.24528 
L 56.27889 63.80976 
L 57.023247 63.70656 
L 57.767605 63.9852 
L 58.511963 65.71896 
L 59.25632 64.5528 
L 60.745036 64.05744 
L 61.489393 62.25144 
L 62.233751 63.39696 
L 62.978108 63.366 
L 63.722466 63.08736 
L 64.466824 64.72824 
L 65.211181 67.89648 
L 65.955539 69.16584 
L 66.699897 67.69008 
L 67.444254 64.4496 
L 68.188612 65.97696 
L 68.93297 64.914 
L 69.677327 61.54968 
L 70.421685 60.04296 
L 71.166043 56.28648 
L 71.9104 56.47224 
L 72.654758 56.83344 
L 73.399116 51.22968 
L 74.143473 48.89736 
L 74.887831 52.00368 
L 75.632189 53.84064 
L 76.376546 53.90256 
L 77.120904 53.00472 
L 77.865261 55.5228 
L 78.609619 59.12448 
L 79.353977 55.32672 
L 80.098334 56.90568 
L 80.842692 47.92728 
L 81.58705 48.75288 
L 82.331407 48.68064 
L 83.075765 54.57336 
L 83.820123 51.2916 
L 84.56448 52.80864 
L 85.308838 52.69512 
L 86.053196 54.82104 
L 87.541911 54.45984 
L 88.286269 55.7292 
L 89.030626 55.39896 
L 89.774984 53.55168 
L 90.519342 55.81176 
L 91.263699 55.6776 
L 92.008057 56.18328 
L 92.752415 55.71888 
L 94.24113 55.63632 
L 94.985487 55.07904 
L 95.729845 53.41752 
L 96.474203 49.71264 
L 97.21856 50.32152 
L 97.962918 51.17808 
L 98.707276 52.44744 
L 99.451633 52.74672 
L 100.195991 51.4464 
L 100.940349 51.46704 
L 101.684706 53.2524 
L 102.429064 53.08728 
L 103.173422 53.5104 
L 103.917779 57.26688 
L 104.662137 57.76224 
L 105.406495 58.02024 
L 106.150852 62.26176 
L 106.89521 59.68176 
L 107.639568 59.9604 
L 108.383925 58.12344 
L 109.128283 57.02952 
L 109.87264 58.09248 
L 110.616998 55.13064 
L 111.361356 53.046 
L 112.105713 52.5816 
L 112.850071 52.9944 
L 113.594429 52.5816 
L 114.338786 50.0016 
L 115.083144 53.48976 
L 115.827502 52.40616 
L 116.571859 54.75912 
L 117.316217 62.67456 
L 118.060575 63.95424 
L 118.804932 57.86544 
L 119.54929 56.57544 
L 120.293648 58.31952 
L 121.038005 60.4764 
L 121.782363 61.85928 
L 122.526721 62.73648 
L 123.271078 61.8696 
L 124.015436 60.45576 
L 124.759793 60.54864 
L 125.504151 62.04504 
L 126.248509 63.16992 
L 126.992866 62.36496 
L 127.737224 61.21944 
L 128.481582 60.9408 
L 129.225939 57.83448 
L 129.970297 58.40208 
L 130.714655 60.49704 
L 132.20337 63.1596 
L 132.947728 62.49912 
L 133.692085 62.1276 
L 134.436443 61.56 
L 135.925158 70.66224 
L 136.669516 68.72208 
L 137.413874 70.4868 
L 138.158231 68.61888 
L 138.902589 69.11424 
L 139.646946 66.5136 
L 140.391304 66.68904 
L 141.135662 68.8872 
L 141.880019 68.9904 
L 142.624377 71.5704 
L 143.368735 73.48992 
L 144.113092 72.54048 
L 145.601808 74.74896 
L 146.346165 73.3248 
L 147.090523 74.80056 
L 147.834881 77.556 
L 148.579238 78.55704 
L 149.323596 78.50544 
L 150.067954 78.04104 
L 150.812311 75.76032 
L 151.556669 75.73968 
L 152.301027 74.65608 
L 153.045384 74.83152 
L 153.789742 74.57352 
L 154.5341 75.20304 
L 155.278457 75.17208 
L 156.022815 78.05136 
L 157.51153 72.16896 
L 158.255888 73.08744 
L 159.000245 74.72832 
L 160.488961 74.28456 
L 161.233318 73.21128 
L 161.977676 70.2804 
L 162.722034 70.2288 
L 163.466391 71.56008 
L 164.210749 73.79952 
L 164.955107 73.35576 
L 165.699464 74.0988 
L 166.443822 75.5952 
L 167.18818 75.5952 
L 167.932537 77.61792 
L 168.676895 77.63856 
L 169.421253 75.40944 
L 170.16561 75.40944 
L 170.909968 75.04824 
L 171.654325 74.98632 
L 172.398683 75.58488 
L 173.143041 75.87384 
L 173.887398 76.49304 
L 175.376114 75.82224 
L 176.120471 75.84288 
L 176.864829 76.03896 
L 177.609187 75.51264 
L 178.353544 75.56424 
L 179.097902 75.05856 
L 179.84226 73.26288 
L 180.586617 73.20096 
L 181.330975 73.00488 
L 182.075333 71.68392 
L 182.81969 70.6932 
L 183.564048 72.62304 
L 184.308406 73.52088 
L 185.052763 73.83048 
L 185.797121 73.8408 
L 186.541478 73.29384 
L 187.285836 73.72728 
L 188.030194 70.32168 
L 188.774551 69.77472 
L 189.518909 70.34232 
L 190.263267 70.67256 
L 191.007624 70.51776 
L 191.751982 70.848 
L 192.49634 72.31344 
L 193.240697 76.01832 
L 193.985055 75.41976 
L 194.729413 75.83256 
L 196.218128 75.82224 
L 196.962486 77.82432 
L 197.706843 76.14216 
L 198.451201 74.75928 
L 199.195559 74.96568 
L 199.939916 77.75208 
L 200.684274 79.48584 
L 201.428631 83.31456 
L 202.172989 85.90488 
L 202.917347 84.79032 
L 203.545752 85.84296 
L 204.881262 91.41576 
L 205.622432 88.7532 
L 207.12202 88.55712 
L 207.870625 88.96992 
L 209.355119 90.456 
L 210.099252 90.56952 
L 210.834659 89.15568 
L 211.539739 88.9596 
L 212.331843 90.6624 
L 212.982699 89.94 
L 213.819378 90.00192 
L 215.302838 90.62112 
L 216.795507 90.3528 
L 217.542105 92.004 
L 218.22358 92.13816 
L 219.028141 91.25064 
L 219.769182 89.166 
L 220.512127 89.56848 
L 221.247714 90.93072 
L 222.008983 89.41368 
L 222.745656 90.37344 
L 223.491745 89.79552 
L 224.231933 90.23928 
L 224.977893 88.0824 
L 225.721898 88.7532 
L 226.460544 90.16704 
L 227.212129 90.67272 
L 227.958718 90.18768 
L 228.698295 89.2692 
L 229.442359 89.54784 
L 230.189646 89.49624 
L 230.932565 88.31976 
L 231.675932 88.45392 
L 232.434531 88.46424 
L 233.18099 86.38992 
L 233.912322 84.80064 
L 234.662357 84.8316 
L 235.406921 86.586 
L 236.144034 87.74184 
L 236.884032 87.618 
L 237.63952 88.19592 
L 238.385627 89.08344 
L 239.123092 87.89664 
L 239.922889 87.3084 
L 240.620862 87.65928 
L 242.103401 90.07416 
L 243.604384 89.3724 
L 244.344046 89.00088 
L 245.094788 88.42296 
L 246.574552 89.10408 
L 247.312534 89.14536 
L 248.0681 89.07312 
L 248.814379 87.9792 
L 249.553904 88.29912 
L 250.299467 86.38992 
L 251.041232 87.24648 
L 251.792439 87.1536 
L 252.525416 86.21448 
L 254.031301 87.01944 
L 254.77092 84.44976 
L 255.514709 85.05864 
L 256.262289 84.58392 
L 257.005131 85.04832 
L 257.741278 83.71704 
L 258.495466 84.86256 
L 259.241667 85.6572 
L 259.982759 85.27536 
L 260.724808 84.49104 
L 262.218512 85.32696 
L 262.953987 85.17216 
L 263.709923 85.31664 
L 264.462302 84.11952 
L 265.208219 85.66752 
L 265.950543 85.26504 
L 266.69615 86.26608 
L 268.174002 85.38888 
L 268.933471 85.3992 
L 269.67757 84.09888 
L 271.163003 84.34656 
L 272.639527 85.7604 
L 273.386607 85.0896 
L 274.896197 84.9348 
L 275.630217 85.296 
L 276.378115 85.35792 
L 277.121646 86.1732 
L 277.869674 85.92552 
L 279.36 87.13296 
L 279.36 87.13296 
" clip-path="url(#p54dfffc0a5)" style="fill: none; stroke: #4a8dff; stroke-width: 0.6"/>
   </g>
   <g id="line2d_7">
    <path d="M 8.64 69.77472 
L 9.384358 66.85416 
L 10.128715 67.26696 
L 10.873073 66.06984 
L 11.617431 63.08736 
L 12.361788 61.12656 
L 13.106146 65.62608 
L 13.850504 64.98624 
L 14.594861 63.91296 
L 15.339219 63.38664 
L 16.083577 63.70656 
L 16.827934 64.97592 
L 17.572292 67.14312 
L 18.316649 68.9388 
L 19.061007 68.23704 
L 19.805365 67.1844 
L 20.549722 66.99864 
L 21.29408 67.47336 
L 22.038438 68.1132 
L 22.782795 71.38464 
L 23.527153 68.526 
L 24.271511 67.21536 
L 25.015868 67.20504 
L 25.760226 62.46816 
L 26.504584 62.51976 
L 27.248941 64.10904 
L 27.993299 66.90576 
L 28.737657 66.83352 
L 29.482014 67.42176 
L 30.226372 67.3392 
L 30.97073 65.8944 
L 31.715087 68.24736 
L 33.203802 68.23704 
L 33.94816 69.69216 
L 34.692518 71.50848 
L 35.436875 72.21024 
L 36.181233 67.3908 
L 36.925591 66.90576 
L 37.669948 65.59512 
L 38.414306 65.86344 
L 39.158664 65.76024 
L 39.903021 65.50224 
L 40.647379 64.398 
L 41.391737 65.70864 
L 42.136094 67.2876 
L 42.880452 63.95424 
L 43.62481 63.14928 
L 44.369167 64.76952 
L 45.113525 64.58376 
L 45.857883 63.55176 
L 46.60224 64.5012 
L 47.346598 63.82008 
L 48.090955 61.36392 
L 48.835313 56.64768 
L 49.579671 54.89328 
L 50.324028 55.04808 
L 51.068386 53.29368 
L 51.812744 52.55064 
L 52.557101 54.77976 
L 53.301459 53.67552 
L 54.045817 52.95312 
L 54.790174 54.45984 
L 55.534532 54.55272 
L 56.27889 55.22352 
L 57.023247 54.98616 
L 57.767605 52.4268 
L 58.511963 53.79936 
L 59.25632 54.08832 
L 60.000678 54.92424 
L 60.745036 54.4908 
L 61.489393 52.98408 
L 62.233751 54.44952 
L 62.978108 54.60432 
L 63.722466 54.62496 
L 65.211181 59.38248 
L 65.955539 60.09456 
L 66.699897 58.39176 
L 67.444254 57.41136 
L 68.188612 58.464 
L 68.93297 57.5352 
L 69.677327 55.0068 
L 70.421685 55.81176 
L 71.166043 55.99752 
L 71.9104 53.13888 
L 72.654758 53.64456 
L 73.399116 52.1688 
L 74.143473 48.69096 
L 74.887831 54.0264 
L 75.632189 55.13064 
L 76.376546 54.96552 
L 77.120904 54.92424 
L 77.865261 56.25552 
L 78.609619 59.8572 
L 79.353977 58.32984 
L 80.098334 60.23904 
L 80.842692 55.65696 
L 81.58705 57.18432 
L 82.331407 59.21736 
L 83.075765 62.55072 
L 83.820123 60.82728 
L 84.56448 61.47744 
L 85.308838 60.12552 
L 86.053196 64.31544 
L 86.797553 63.99552 
L 87.541911 64.5528 
L 88.286269 63.60336 
L 89.030626 61.5084 
L 89.774984 60.96144 
L 90.519342 61.98312 
L 91.263699 62.05536 
L 92.008057 62.51976 
L 93.496772 60.64152 
L 94.24113 61.13688 
L 94.985487 58.6188 
L 95.729845 57.03984 
L 96.474203 56.35872 
L 97.21856 56.5548 
L 97.962918 57.174 
L 98.707276 57.14304 
L 99.451633 55.7292 
L 100.195991 56.04912 
L 100.940349 55.33704 
L 101.684706 56.87472 
L 102.429064 56.8128 
L 103.173422 57.24624 
L 103.917779 59.93976 
L 104.662137 60.64152 
L 105.406495 59.29992 
L 106.150852 63.80976 
L 106.89521 63.03576 
L 107.639568 63.09768 
L 109.128283 58.27824 
L 109.87264 58.5672 
L 110.616998 53.93352 
L 111.361356 51.74568 
L 112.105713 50.04288 
L 112.850071 49.90872 
L 114.338786 47.43192 
L 115.083144 50.80656 
L 115.827502 48.90768 
L 116.571859 50.6208 
L 117.316217 59.42376 
L 118.060575 61.85928 
L 118.804932 57.35976 
L 119.54929 57.3288 
L 120.293648 59.46504 
L 121.782363 64.72824 
L 122.526721 66.42072 
L 123.271078 65.688 
L 124.015436 64.17096 
L 124.759793 62.10696 
L 125.504151 64.30512 
L 126.248509 65.20296 
L 126.992866 62.68488 
L 127.737224 61.70448 
L 128.481582 61.06464 
L 129.225939 58.1028 
L 129.970297 58.40208 
L 130.714655 59.68176 
L 131.459012 62.6952 
L 132.20337 64.56312 
L 132.947728 63.18024 
L 133.692085 62.72616 
L 134.436443 62.06568 
L 135.180801 66.33816 
L 135.925158 71.40528 
L 136.669516 69.08328 
L 137.413874 71.7252 
L 138.158231 69.57864 
L 138.902589 70.72416 
L 139.646946 68.2164 
L 140.391304 66.978 
L 141.135662 70.03272 
L 141.880019 71.5188 
L 142.624377 73.3764 
L 143.368735 78.846 
L 144.113092 77.75208 
L 144.85745 78.88728 
L 145.601808 81.34344 
L 146.346165 80.53848 
L 147.090523 82.0452 
L 147.834881 86.92656 
L 148.579238 88.58808 
L 149.323596 88.96992 
L 150.067954 86.7924 
L 150.812311 85.296 
L 151.556669 86.24544 
L 152.301027 82.96368 
L 153.045384 82.13808 
L 153.789742 82.47864 
L 154.5341 82.58184 
L 155.278457 83.03592 
L 156.022815 87.3084 
L 156.767172 82.06584 
L 157.51153 79.71288 
L 158.255888 81.24024 
L 159.000245 84.17112 
L 159.744603 84.24336 
L 160.488961 83.29392 
L 161.233318 82.8192 
L 161.977676 80.64168 
L 162.722034 81.38472 
L 163.466391 80.87904 
L 164.210749 83.13912 
L 164.955107 83.19072 
L 166.443822 87.17424 
L 167.18818 85.71912 
L 167.932537 87.53544 
L 168.676895 88.17528 
L 169.421253 85.41984 
L 170.909968 84.9348 
L 171.654325 85.01736 
L 172.398683 86.14224 
L 173.143041 85.90488 
L 173.887398 86.328 
L 174.631756 86.24544 
L 175.376114 85.72944 
L 176.120471 85.7088 
L 176.864829 86.40024 
L 177.609187 85.09992 
L 178.353544 86.02872 
L 179.84226 83.53128 
L 181.330975 82.03488 
L 182.075333 79.39296 
L 182.81969 79.66128 
L 183.564048 82.15872 
L 184.308406 82.43736 
L 185.052763 82.93272 
L 185.797121 83.00496 
L 187.285836 82.28256 
L 188.030194 78.01008 
L 188.774551 76.19376 
L 189.518909 77.66952 
L 190.263267 77.74176 
L 191.007624 78.1752 
L 192.49634 80.8068 
L 193.240697 85.20312 
L 193.985055 84.12984 
L 194.729413 84.03696 
L 195.47377 84.06792 
L 196.218128 84.3156 
L 196.962486 87.02976 
L 197.706843 85.21344 
L 198.451201 84.28464 
L 199.195559 84.32592 
L 199.939916 89.08344 
L 200.684274 89.5272 
L 201.428631 95.14128 
L 202.172989 96.98856 
L 202.917347 95.08968 
L 204.137283 99.80592 
L 204.881262 101.79768 
L 205.622432 100.03296 
L 206.383805 100.518 
L 207.12202 99.98136 
L 207.870625 100.49736 
L 210.099252 101.26104 
L 210.834659 100.63152 
L 211.539739 100.38384 
L 212.331843 100.84824 
L 212.982699 100.65216 
L 213.819378 101.034 
L 214.562831 101.19912 
L 216.795507 100.91016 
L 217.542105 101.7564 
L 218.22358 101.84928 
L 219.028141 101.56032 
L 219.769182 100.85856 
L 221.247714 101.4468 
L 222.008983 101.02368 
L 222.745656 101.30232 
L 223.491745 100.81728 
L 224.231933 100.79664 
L 224.977893 99.3312 
L 225.721898 99.92976 
L 226.460544 100.78632 
L 227.212129 101.17848 
L 227.958718 101.1372 
L 228.698295 100.21872 
L 230.189646 100.4664 
L 230.932565 99.88848 
L 231.675932 99.94008 
L 232.434531 99.81624 
L 233.18099 98.93904 
L 233.912322 98.3508 
L 234.662357 98.52624 
L 235.406921 99.78528 
L 236.144034 100.12584 
L 236.884032 100.03296 
L 238.385627 100.83792 
L 239.123092 100.11552 
L 239.922889 99.87816 
L 240.620862 100.002 
L 242.103401 101.41584 
L 242.857898 101.21976 
L 244.344046 101.00304 
L 245.094788 100.86888 
L 245.829341 101.21976 
L 246.574552 101.28168 
L 248.0681 101.14752 
L 248.814379 100.55928 
L 249.553904 100.65216 
L 250.299467 99.80592 
L 251.041232 99.96072 
L 251.792439 99.6408 
L 252.525416 99.1764 
L 253.283127 99.70272 
L 254.031301 99.94008 
L 254.77092 98.57784 
L 255.514709 98.65008 
L 256.262289 98.38176 
L 257.005131 98.48496 
L 257.741278 96.70992 
L 258.495466 98.05152 
L 259.241667 98.48496 
L 259.982759 97.96896 
L 260.724808 96.32808 
L 262.218512 96.16296 
L 262.953987 96.1836 
L 263.709923 96.50352 
L 264.462302 94.76976 
L 265.208219 97.19496 
L 265.950543 96.9576 
L 266.69615 97.9896 
L 267.448641 96.89568 
L 268.174002 95.45088 
L 268.933471 95.67792 
L 269.67757 93.43848 
L 271.163003 92.25168 
L 271.907558 92.87088 
L 272.639527 94.2744 
L 273.386607 93.1392 
L 274.145964 92.97408 
L 274.896197 92.9844 
L 275.630217 92.60256 
L 276.378115 92.53032 
L 277.121646 94.54272 
L 277.869674 92.85024 
L 278.604529 94.82136 
L 279.36 95.75016 
L 279.36 95.75016 
" clip-path="url(#p54dfffc0a5)" style="fill: none; stroke: #f5841e; stroke-width: 0.6"/>
   </g>
  </g>
 </g>
 <defs>
  <clipPath id="p54dfffc0a5">
   <rect x="8.64" y="4.8" width="270.72" height="103.2"/>
  </clipPath>
 </defs>
</svg>
