<?xml version="1.0" encoding="utf-8" standalone="no"?>
<!DOCTYPE svg PUBLIC "-//W3C//DTD SVG 1.1//EN"
  "http://www.w3.org/Graphics/SVG/1.1/DTD/svg11.dtd">
<svg xmlns:xlink="http://www.w3.org/1999/xlink" width="288pt" height="120pt" viewBox="0 0 288 120" xmlns="http://www.w3.org/2000/svg" version="1.1">
<desc id="nav-meta">{"window":"6m","count":4,"labels":["26.11","25.01","26.03","25.05"],"tick_utc":["2025-11-26T12:00:00Z","2026-01-25T12:00:00Z","2026-03-26T03:39:29Z","2026-05-25T05:10:23Z"],"w":720,"h":300}</desc>

 <metadata>
  <rdf:RDF xmlns:dc="http://purl.org/dc/elements/1.1/" xmlns:cc="http://creativecommons.org/ns#" xmlns:rdf="http://www.w3.org/1999/02/22-rdf-syntax-ns#">
   <cc:Work>
    <dc:type rdf:resource="http://purl.org/dc/dcmitype/StillImage"/>
    <dc:date>2026-05-25T10:59:03.587831</dc:date>
    <dc:format>image/svg+xml</dc:format>
    <dc:creator>
     <cc:Agent>
      <dc:title>Matplotlib v3.10.9, https://matplotlib.org/</dc:title>
     </cc:Agent>
    </dc:creator>
   </cc:Work>
  </rdf:RDF>
 </metadata>
 <defs>
  <style type="text/css">*{stroke-linejoin: round; stroke-linecap: butt}</style>
 </defs>
 <g id="figure_1">
  <g id="patch_1">
   <path d="M 0 120 
L 288 120 
L 288 0 
L 0 0 
L 0 120 
z
" style="fill: none; opacity: 0"/>
  </g>
  <g id="axes_1">
   <g id="patch_2">
    <path d="M 8.64 108 
L 279.36 108 
L 279.36 4.8 
L 8.64 4.8 
L 8.64 108 
z
" style="fill: none"/>
   </g>
   <g id="matplotlib.axis_1"/>
   <g id="matplotlib.axis_2"/>
   <g id="line2d_1">
    <path d="M 8.64 87.36 
L 279.36 87.36 
" clip-path="url(#p3b38b37ee6)" style="fill: none; stroke: #b2b2b2; stroke-opacity: 0.35; stroke-width: 0.5; stroke-linecap: square"/>
   </g>
   <g id="line2d_2">
    <path d="M 8.64 66.72 
L 279.36 66.72 
" clip-path="url(#p3b38b37ee6)" style="fill: none; stroke: #b2b2b2; stroke-opacity: 0.35; stroke-width: 0.5; stroke-linecap: square"/>
   </g>
   <g id="line2d_3">
    <path d="M 8.64 46.08 
L 279.36 46.08 
" clip-path="url(#p3b38b37ee6)" style="fill: none; stroke: #b2b2b2; stroke-opacity: 0.35; stroke-width: 0.5; stroke-linecap: square"/>
   </g>
   <g id="line2d_4">
    <path d="M 8.64 25.44 
L 279.36 25.44 
" clip-path="url(#p3b38b37ee6)" style="fill: none; stroke: #b2b2b2; stroke-opacity: 0.35; stroke-width: 0.5; stroke-linecap: square"/>
   </g>
   <g id="line2d_5">
    <path d="M 8.64 88.52616 
L 10.146381 87.45288 
L 11.652761 88.0308 
L 13.159142 88.94928 
L 16.171903 89.7336 
L 17.678283 91.86984 
L 19.184664 88.60872 
L 20.691044 86.87496 
L 23.703806 90.11544 
L 25.210186 90.38376 
L 26.716567 90.53856 
L 28.222947 90.08448 
L 29.729328 88.79448 
L 31.235708 89.20728 
L 32.742089 89.22792 
L 34.248469 90.31152 
L 35.75485 90.10512 
L 37.26123 91.09584 
L 38.767611 91.61184 
L 40.273992 91.31256 
L 41.780372 92.87088 
L 43.286753 93.8616 
L 44.793133 92.02464 
L 46.299514 92.13816 
L 47.805894 92.07624 
L 49.312275 92.14848 
L 50.818655 92.64384 
L 52.325036 93.01536 
L 53.831417 93.69648 
L 56.844178 92.44776 
L 58.350558 92.30328 
L 59.856939 92.87088 
L 61.363319 92.38584 
L 62.8697 92.47872 
L 64.37608 91.88016 
L 65.882461 90.42504 
L 67.388841 90.08448 
L 68.895222 89.92968 
L 70.401603 88.76352 
L 71.907983 87.94824 
L 73.414364 89.2692 
L 74.920744 88.72224 
L 76.427125 89.39304 
L 77.933505 89.40336 
L 79.439886 88.41264 
L 80.946266 88.4952 
L 82.452647 86.86464 
L 83.959028 86.42088 
L 85.465408 87.62832 
L 86.971789 86.93688 
L 88.478169 87.23616 
L 91.49093 90.0432 
L 92.997311 92.12784 
L 94.503691 91.16808 
L 97.516452 91.73568 
L 99.022833 91.78728 
L 100.529214 94.0164 
L 102.035594 92.5716 
L 103.541975 91.76664 
L 105.048355 92.33424 
L 106.554736 94.36728 
L 108.061116 94.46016 
L 109.567497 97.71096 
L 111.073877 98.48496 
L 112.580258 97.85544 
L 115.049083 100.16712 
L 116.554697 102.23112 
L 118.054626 100.54896 
L 119.595441 100.70376 
L 121.08939 100.68312 
L 124.107626 101.28168 
L 125.608584 101.71512 
L 127.114511 101.84928 
L 128.602777 101.034 
L 130.029672 100.54896 
L 131.632677 101.04432 
L 132.949836 100.81728 
L 134.643049 101.034 
L 136.147599 101.4984 
L 140.665939 101.06496 
L 142.176852 102.09696 
L 143.555975 102.05568 
L 145.184191 101.4984 
L 146.683859 100.60056 
L 148.187381 100.80696 
L 149.676012 101.45712 
L 151.216618 100.55928 
L 152.707446 101.10624 
L 155.715273 100.74504 
L 157.224897 100.21872 
L 158.730562 100.53864 
L 160.225384 101.07528 
L 161.746392 101.38488 
L 163.257288 101.26104 
L 164.753992 100.78632 
L 167.772089 100.99272 
L 169.275558 100.38384 
L 172.315134 100.60056 
L 173.825768 99.76464 
L 175.305787 99.49632 
L 176.823657 99.40344 
L 178.330456 100.09488 
L 179.822174 100.3632 
L 181.319733 100.19808 
L 184.358559 100.79664 
L 185.850991 100.26 
L 187.469566 99.83688 
L 188.882077 100.13616 
L 191.882337 101.38488 
L 197.936104 101.28168 
L 199.422643 101.8596 
L 200.93075 101.88024 
L 202.424229 101.72544 
L 203.953292 101.68416 
L 205.463561 101.47776 
L 206.96016 101.78736 
L 208.468982 101.09592 
L 209.970114 101.46744 
L 211.490356 101.3436 
L 212.973705 101.05464 
L 214.507109 101.3952 
L 216.021214 101.47776 
L 217.518005 100.86888 
L 219.023235 101.26104 
L 220.536136 100.99272 
L 222.039448 100.61088 
L 223.529213 100.44576 
L 225.055487 100.94112 
L 226.565598 101.09592 
L 228.065371 101.00304 
L 229.567079 100.69344 
L 231.079562 100.9308 
L 235.608153 100.8792 
L 237.130766 100.64184 
L 238.640302 101.1888 
L 240.142568 101.09592 
L 241.651477 101.37456 
L 243.174316 101.21976 
L 246.179214 101.23008 
L 247.685071 100.92048 
L 249.158273 101.06496 
L 250.69119 100.70376 
L 252.197971 100.55928 
L 253.67928 100.53864 
L 255.19117 99.60984 
L 256.727905 99.72336 
L 259.731635 99.25896 
L 261.245181 99.32088 
L 262.749888 100.22904 
L 264.263696 100.01232 
L 267.279717 100.75536 
L 268.800726 101.02368 
L 270.296314 101.02368 
L 271.808082 101.17848 
L 273.32304 100.7244 
L 274.817879 100.75536 
L 276.303564 101.11656 
L 277.833796 100.91016 
L 279.36 100.89984 
L 279.36 100.89984 
" clip-path="url(#p3b38b37ee6)" style="fill: none; stroke: #bebebe; stroke-width: 0.5; stroke-linecap: round"/>
   </g>
   <g id="line2d_6">
    <path d="M 8.64 75.73968 
L 10.146381 74.65608 
L 11.652761 74.83152 
L 13.159142 74.57352 
L 14.665522 75.20304 
L 16.171903 75.17208 
L 17.678283 78.05136 
L 20.691044 72.16896 
L 22.197425 73.08744 
L 23.703806 74.72832 
L 26.716567 74.28456 
L 28.222947 73.21128 
L 29.729328 70.2804 
L 31.235708 70.2288 
L 32.742089 71.56008 
L 34.248469 73.79952 
L 35.75485 73.35576 
L 37.26123 74.0988 
L 38.767611 75.5952 
L 40.273992 75.5952 
L 41.780372 77.61792 
L 43.286753 77.63856 
L 44.793133 75.40944 
L 46.299514 75.40944 
L 47.805894 75.04824 
L 49.312275 74.98632 
L 50.818655 75.58488 
L 52.325036 75.87384 
L 53.831417 76.49304 
L 56.844178 75.82224 
L 58.350558 75.84288 
L 59.856939 76.03896 
L 61.363319 75.51264 
L 62.8697 75.56424 
L 64.37608 75.05856 
L 65.882461 73.26288 
L 67.388841 73.20096 
L 68.895222 73.00488 
L 70.401603 71.68392 
L 71.907983 70.6932 
L 73.414364 72.62304 
L 74.920744 73.52088 
L 76.427125 73.83048 
L 77.933505 73.8408 
L 79.439886 73.29384 
L 80.946266 73.72728 
L 82.452647 70.32168 
L 83.959028 69.77472 
L 85.465408 70.34232 
L 86.971789 70.67256 
L 88.478169 70.51776 
L 89.98455 70.848 
L 91.49093 72.31344 
L 92.997311 76.01832 
L 94.503691 75.41976 
L 96.010072 75.83256 
L 99.022833 75.82224 
L 100.529214 77.82432 
L 102.035594 76.14216 
L 103.541975 74.75928 
L 105.048355 74.96568 
L 106.554736 77.75208 
L 108.061116 79.48584 
L 109.567497 83.31456 
L 111.073877 85.90488 
L 112.580258 84.79032 
L 113.851981 85.84296 
L 116.554697 91.41576 
L 118.054626 88.7532 
L 121.08939 88.55712 
L 122.604366 88.96992 
L 125.608584 90.456 
L 127.114511 90.56952 
L 128.602777 89.15568 
L 130.029672 88.9596 
L 131.632677 90.6624 
L 132.949836 89.94 
L 134.643049 90.00192 
L 137.645175 90.62112 
L 140.665939 90.3528 
L 142.176852 92.004 
L 143.555975 92.13816 
L 145.184191 91.25064 
L 146.683859 89.166 
L 148.187381 89.56848 
L 149.676012 90.93072 
L 151.216618 89.41368 
L 152.707446 90.37344 
L 154.217331 89.79552 
L 155.715273 90.23928 
L 157.224897 88.0824 
L 158.730562 88.7532 
L 160.225384 90.16704 
L 161.746392 90.67272 
L 163.257288 90.18768 
L 164.753992 89.2692 
L 166.25978 89.54784 
L 167.772089 89.49624 
L 169.275558 88.31976 
L 170.779933 88.45392 
L 172.315134 88.46424 
L 173.825768 86.38992 
L 175.305787 84.80064 
L 176.823657 84.8316 
L 178.330456 86.586 
L 179.822174 87.74184 
L 181.319733 87.618 
L 182.848639 88.19592 
L 184.358559 89.08344 
L 185.850991 87.89664 
L 187.469566 87.3084 
L 188.882077 87.65928 
L 190.390358 88.96992 
L 191.882337 90.07416 
L 194.919925 89.3724 
L 196.416804 89.00088 
L 197.936104 88.42296 
L 200.93075 89.10408 
L 202.424229 89.14536 
L 203.953292 89.07312 
L 205.463561 87.9792 
L 206.96016 88.29912 
L 208.468982 86.38992 
L 209.970114 87.24648 
L 211.490356 87.1536 
L 212.973705 86.21448 
L 216.021214 87.01944 
L 217.518005 84.44976 
L 219.023235 85.05864 
L 220.536136 84.58392 
L 222.039448 85.04832 
L 223.529213 83.71704 
L 225.055487 84.86256 
L 226.565598 85.6572 
L 228.065371 85.27536 
L 229.567079 84.49104 
L 232.589935 85.32696 
L 234.07834 85.17216 
L 235.608153 85.31664 
L 237.130766 84.11952 
L 238.640302 85.66752 
L 240.142568 85.26504 
L 241.651477 86.26608 
L 244.642252 85.38888 
L 246.179214 85.3992 
L 247.685071 84.09888 
L 250.69119 84.34656 
L 253.67928 85.7604 
L 255.19117 85.0896 
L 258.246176 84.9348 
L 259.731635 85.296 
L 261.245181 85.35792 
L 262.749888 86.1732 
L 264.263696 85.92552 
L 267.279717 87.13296 
L 268.800726 88.10304 
L 270.296314 87.9276 
L 271.808082 88.26816 
L 273.32304 87.78312 
L 274.817879 87.95856 
L 276.303564 88.94928 
L 277.833796 88.14432 
L 279.36 88.33008 
L 279.36 88.33008 
" clip-path="url(#p3b38b37ee6)" style="fill: none; stroke: #4a8dff; stroke-width: 0.6"/>
   </g>
   <g id="line2d_7">
    <path d="M 8.64 86.24544 
L 10.146381 82.96368 
L 11.652761 82.13808 
L 13.159142 82.47864 
L 14.665522 82.58184 
L 16.171903 83.03592 
L 17.678283 87.3084 
L 19.184664 82.06584 
L 20.691044 79.71288 
L 22.197425 81.24024 
L 23.703806 84.17112 
L 25.210186 84.24336 
L 26.716567 83.29392 
L 28.222947 82.8192 
L 29.729328 80.64168 
L 31.235708 81.38472 
L 32.742089 80.87904 
L 34.248469 83.13912 
L 35.75485 83.19072 
L 37.26123 85.296 
L 38.767611 87.17424 
L 40.273992 85.71912 
L 41.780372 87.53544 
L 43.286753 88.17528 
L 44.793133 85.41984 
L 47.805894 84.9348 
L 49.312275 85.01736 
L 50.818655 86.14224 
L 52.325036 85.90488 
L 53.831417 86.328 
L 55.337797 86.24544 
L 56.844178 85.72944 
L 58.350558 85.7088 
L 59.856939 86.40024 
L 61.363319 85.09992 
L 62.8697 86.02872 
L 65.882461 83.53128 
L 68.895222 82.03488 
L 70.401603 79.39296 
L 71.907983 79.66128 
L 73.414364 82.15872 
L 74.920744 82.43736 
L 76.427125 82.93272 
L 77.933505 83.00496 
L 80.946266 82.28256 
L 82.452647 78.01008 
L 83.959028 76.19376 
L 85.465408 77.66952 
L 86.971789 77.74176 
L 88.478169 78.1752 
L 89.98455 79.5684 
L 91.49093 80.8068 
L 92.997311 85.20312 
L 94.503691 84.12984 
L 96.010072 84.03696 
L 97.516452 84.06792 
L 99.022833 84.3156 
L 100.529214 87.02976 
L 102.035594 85.21344 
L 103.541975 84.28464 
L 105.048355 84.32592 
L 106.554736 89.08344 
L 108.061116 89.5272 
L 109.567497 95.14128 
L 111.073877 96.98856 
L 112.580258 95.08968 
L 113.851981 97.71096 
L 115.049083 99.80592 
L 116.554697 101.79768 
L 118.054626 100.03296 
L 119.595441 100.518 
L 121.08939 99.98136 
L 122.604366 100.49736 
L 127.114511 101.26104 
L 128.602777 100.63152 
L 130.029672 100.38384 
L 131.632677 100.84824 
L 132.949836 100.65216 
L 134.643049 101.034 
L 136.147599 101.19912 
L 140.665939 100.91016 
L 142.176852 101.7564 
L 143.555975 101.84928 
L 145.184191 101.56032 
L 146.683859 100.85856 
L 149.676012 101.4468 
L 151.216618 101.02368 
L 152.707446 101.30232 
L 154.217331 100.81728 
L 155.715273 100.79664 
L 157.224897 99.3312 
L 158.730562 99.92976 
L 160.225384 100.78632 
L 161.746392 101.17848 
L 163.257288 101.1372 
L 164.753992 100.21872 
L 167.772089 100.4664 
L 169.275558 99.88848 
L 170.779933 99.94008 
L 172.315134 99.81624 
L 173.825768 98.93904 
L 175.305787 98.3508 
L 176.823657 98.52624 
L 178.330456 99.78528 
L 179.822174 100.12584 
L 181.319733 100.03296 
L 184.358559 100.83792 
L 185.850991 100.11552 
L 187.469566 99.87816 
L 188.882077 100.002 
L 190.390358 100.64184 
L 191.882337 101.41584 
L 193.409238 101.21976 
L 196.416804 101.00304 
L 197.936104 100.86888 
L 199.422643 101.21976 
L 200.93075 101.28168 
L 203.953292 101.14752 
L 205.463561 100.55928 
L 206.96016 100.65216 
L 208.468982 99.80592 
L 209.970114 99.96072 
L 211.490356 99.6408 
L 212.973705 99.1764 
L 214.507109 99.70272 
L 216.021214 99.94008 
L 217.518005 98.57784 
L 219.023235 98.65008 
L 220.536136 98.38176 
L 222.039448 98.48496 
L 223.529213 96.70992 
L 225.055487 98.05152 
L 226.565598 98.48496 
L 228.065371 97.96896 
L 229.567079 96.32808 
L 232.589935 96.16296 
L 234.07834 96.1836 
L 235.608153 96.50352 
L 237.130766 94.76976 
L 238.640302 97.19496 
L 240.142568 96.9576 
L 241.651477 97.9896 
L 243.174316 96.89568 
L 244.642252 95.45088 
L 246.179214 95.67792 
L 247.685071 93.43848 
L 250.69119 92.25168 
L 252.197971 92.87088 
L 253.67928 94.2744 
L 255.19117 93.1392 
L 256.727905 92.97408 
L 258.246176 92.9844 
L 259.731635 92.60256 
L 261.245181 92.53032 
L 262.749888 94.54272 
L 264.263696 92.85024 
L 265.750846 94.82136 
L 267.279717 95.75016 
L 268.800726 96.97824 
L 271.808082 97.23624 
L 273.32304 95.94624 
L 274.817879 96.30744 
L 276.303564 98.08248 
L 277.833796 97.2672 
L 279.36 96.61704 
L 279.36 96.61704 
" clip-path="url(#p3b38b37ee6)" style="fill: none; stroke: #f5841e; stroke-width: 0.6"/>
   </g>
  </g>
 </g>
 <defs>
  <clipPath id="p3b38b37ee6">
   <rect x="8.64" y="4.8" width="270.72" height="103.2"/>
  </clipPath>
 </defs>
</svg>
