<?xml version="1.0" encoding="utf-8" standalone="no"?>
<!DOCTYPE svg PUBLIC "-//W3C//DTD SVG 1.1//EN"
  "http://www.w3.org/Graphics/SVG/1.1/DTD/svg11.dtd">
<svg xmlns:xlink="http://www.w3.org/1999/xlink" width="288pt" height="120pt" viewBox="0 0 288 120" xmlns="http://www.w3.org/2000/svg" version="1.1">
<desc id="nav-meta">{"window":"3m","count":4,"labels":["10.02","12.03","10.04","10.05"],"tick_utc":["2026-02-10T03:42:23Z","2026-03-12T03:19:44Z","2026-04-10T03:51:30Z","2026-05-10T04:35:36Z"],"w":720,"h":300}</desc>

 <metadata>
  <rdf:RDF xmlns:dc="http://purl.org/dc/elements/1.1/" xmlns:cc="http://creativecommons.org/ns#" xmlns:rdf="http://www.w3.org/1999/02/22-rdf-syntax-ns#">
   <cc:Work>
    <dc:type rdf:resource="http://purl.org/dc/dcmitype/StillImage"/>
    <dc:date>2026-05-10T04:35:38.401976</dc:date>
    <dc:format>image/svg+xml</dc:format>
    <dc:creator>
     <cc:Agent>
      <dc:title>Matplotlib v3.10.9, https://matplotlib.org/</dc:title>
     </cc:Agent>
    </dc:creator>
   </cc:Work>
  </rdf:RDF>
 </metadata>
 <defs>
  <style type="text/css">*{stroke-linejoin: round; stroke-linecap: butt}</style>
 </defs>
 <g id="figure_1">
  <g id="patch_1">
   <path d="M 0 120 
L 288 120 
L 288 0 
L 0 0 
L 0 120 
z
" style="fill: none; opacity: 0"/>
  </g>
  <g id="axes_1">
   <g id="patch_2">
    <path d="M 8.64 108 
L 279.36 108 
L 279.36 4.8 
L 8.64 4.8 
L 8.64 108 
z
" style="fill: none"/>
   </g>
   <g id="matplotlib.axis_1"/>
   <g id="matplotlib.axis_2"/>
   <g id="line2d_1">
    <path d="M 8.64 87.36 
L 279.36 87.36 
" clip-path="url(#pb816deaa7f)" style="fill: none; stroke: #b2b2b2; stroke-opacity: 0.35; stroke-width: 0.5; stroke-linecap: square"/>
   </g>
   <g id="line2d_2">
    <path d="M 8.64 66.72 
L 279.36 66.72 
" clip-path="url(#pb816deaa7f)" style="fill: none; stroke: #b2b2b2; stroke-opacity: 0.35; stroke-width: 0.5; stroke-linecap: square"/>
   </g>
   <g id="line2d_3">
    <path d="M 8.64 46.08 
L 279.36 46.08 
" clip-path="url(#pb816deaa7f)" style="fill: none; stroke: #b2b2b2; stroke-opacity: 0.35; stroke-width: 0.5; stroke-linecap: square"/>
   </g>
   <g id="line2d_4">
    <path d="M 8.64 25.44 
L 279.36 25.44 
" clip-path="url(#pb816deaa7f)" style="fill: none; stroke: #b2b2b2; stroke-opacity: 0.35; stroke-width: 0.5; stroke-linecap: square"/>
   </g>
   <g id="line2d_5">
    <path d="M 8.64 100.95144 
L 11.674236 101.28168 
L 14.703827 101.71512 
L 17.743447 101.84928 
L 20.747418 101.034 
L 23.627516 100.54896 
L 26.863082 101.04432 
L 29.521685 100.81728 
L 32.939331 101.034 
L 35.976171 101.4984 
L 38.998935 101.33328 
L 42.020889 101.1372 
L 45.096158 101.06496 
L 48.145843 102.09696 
L 50.929516 102.05568 
L 54.215969 101.4984 
L 57.242955 100.60056 
L 60.277719 100.80696 
L 63.28243 101.45712 
L 66.392045 100.55928 
L 69.40119 101.10624 
L 72.448799 100.8792 
L 75.472301 100.74504 
L 78.519382 100.21872 
L 81.558474 100.53864 
L 84.575678 101.07528 
L 87.645739 101.38488 
L 90.695388 101.26104 
L 93.716392 100.78632 
L 96.755731 100.91016 
L 99.808231 100.99272 
L 102.84289 100.38384 
L 105.879378 100.50768 
L 108.978084 100.60056 
L 112.027206 99.76464 
L 115.014532 99.49632 
L 118.078258 99.40344 
L 121.119638 100.09488 
L 124.130577 100.3632 
L 127.153306 100.19808 
L 130.239308 100.47672 
L 133.286987 100.79664 
L 136.299369 100.26 
L 139.566361 99.83688 
L 142.417426 100.13616 
L 145.461797 100.80696 
L 148.473264 101.38488 
L 151.55522 101.3436 
L 154.604447 101.292 
L 157.625803 101.28168 
L 160.692415 101.28168 
L 163.692903 101.8596 
L 166.736922 101.88024 
L 169.751415 101.72544 
L 172.837735 101.68416 
L 175.886117 101.47776 
L 178.90691 101.78736 
L 181.952372 101.09592 
L 184.982315 101.46744 
L 188.050827 101.3436 
L 191.044875 101.05464 
L 194.139956 101.3952 
L 197.196081 101.47776 
L 200.217261 100.86888 
L 203.255474 101.26104 
L 206.309171 100.99272 
L 209.343512 100.61088 
L 212.35051 100.44576 
L 215.431199 100.94112 
L 218.479265 101.09592 
L 221.506463 101.00304 
L 224.537567 100.69344 
L 227.590419 100.9308 
L 230.639013 100.92048 
L 233.643266 100.81728 
L 236.731098 100.8792 
L 239.804396 100.64184 
L 242.851301 101.1888 
L 245.883531 101.09592 
L 248.929169 101.37456 
L 252.002925 101.21976 
L 254.965863 101.20944 
L 258.068124 101.23008 
L 261.107604 100.92048 
L 264.08117 101.06496 
L 267.175266 100.70376 
L 270.216611 100.55928 
L 273.206541 100.53864 
L 276.258197 99.60984 
L 279.36 99.72336 
" clip-path="url(#pb816deaa7f)" style="fill: none; stroke: #bebebe; stroke-width: 0.5; stroke-linecap: round"/>
   </g>
   <g id="line2d_6">
    <path d="M 8.64 88.96992 
L 11.674236 89.7336 
L 14.703827 90.456 
L 17.743447 90.56952 
L 20.747418 89.15568 
L 23.627516 88.9596 
L 26.863082 90.6624 
L 29.521685 89.94 
L 32.939331 90.00192 
L 35.976171 90.3528 
L 38.998935 90.62112 
L 42.020889 90.5076 
L 45.096158 90.3528 
L 48.145843 92.004 
L 50.929516 92.13816 
L 54.215969 91.25064 
L 57.242955 89.166 
L 60.277719 89.56848 
L 63.28243 90.93072 
L 66.392045 89.41368 
L 69.40119 90.37344 
L 72.448799 89.79552 
L 75.472301 90.23928 
L 78.519382 88.0824 
L 81.558474 88.7532 
L 84.575678 90.16704 
L 87.645739 90.67272 
L 90.695388 90.18768 
L 93.716392 89.2692 
L 96.755731 89.54784 
L 99.808231 89.49624 
L 102.84289 88.31976 
L 105.879378 88.45392 
L 108.978084 88.46424 
L 112.027206 86.38992 
L 115.014532 84.80064 
L 118.078258 84.8316 
L 121.119638 86.586 
L 124.130577 87.74184 
L 127.153306 87.618 
L 130.239308 88.19592 
L 133.286987 89.08344 
L 136.299369 87.89664 
L 139.566361 87.3084 
L 142.417426 87.65928 
L 145.461797 88.96992 
L 148.473264 90.07416 
L 151.55522 89.76456 
L 154.604447 89.3724 
L 157.625803 89.00088 
L 160.692415 88.42296 
L 163.692903 88.81512 
L 166.736922 89.10408 
L 169.751415 89.14536 
L 172.837735 89.07312 
L 175.886117 87.9792 
L 178.90691 88.29912 
L 181.952372 86.38992 
L 184.982315 87.24648 
L 188.050827 87.1536 
L 191.044875 86.21448 
L 194.139956 86.66856 
L 197.196081 87.01944 
L 200.217261 84.44976 
L 203.255474 85.05864 
L 206.309171 84.58392 
L 209.343512 85.04832 
L 212.35051 83.71704 
L 215.431199 84.86256 
L 218.479265 85.6572 
L 221.506463 85.27536 
L 224.537567 84.49104 
L 227.590419 84.86256 
L 230.639013 85.32696 
L 233.643266 85.17216 
L 236.731098 85.31664 
L 239.804396 84.11952 
L 242.851301 85.66752 
L 245.883531 85.26504 
L 248.929169 86.26608 
L 252.002925 85.77072 
L 254.965863 85.38888 
L 258.068124 85.3992 
L 261.107604 84.09888 
L 264.08117 84.22272 
L 267.175266 84.34656 
L 270.216611 85.06896 
L 273.206541 85.7604 
L 276.258197 85.0896 
L 279.36 85.01736 
" clip-path="url(#pb816deaa7f)" style="fill: none; stroke: #4a8dff; stroke-width: 0.6"/>
   </g>
   <g id="line2d_7">
    <path d="M 8.64 100.49736 
L 11.674236 100.78632 
L 14.703827 101.07528 
L 17.743447 101.26104 
L 20.747418 100.63152 
L 23.627516 100.38384 
L 26.863082 100.84824 
L 29.521685 100.65216 
L 32.939331 101.034 
L 35.976171 101.19912 
L 38.998935 101.10624 
L 42.020889 100.97208 
L 45.096158 100.91016 
L 48.145843 101.7564 
L 50.929516 101.84928 
L 54.215969 101.56032 
L 57.242955 100.85856 
L 60.277719 101.12688 
L 63.28243 101.4468 
L 66.392045 101.02368 
L 69.40119 101.30232 
L 72.448799 100.81728 
L 75.472301 100.79664 
L 78.519382 99.3312 
L 81.558474 99.92976 
L 84.575678 100.78632 
L 87.645739 101.17848 
L 90.695388 101.1372 
L 93.716392 100.21872 
L 96.755731 100.37352 
L 99.808231 100.4664 
L 102.84289 99.88848 
L 105.879378 99.94008 
L 108.978084 99.81624 
L 112.027206 98.93904 
L 115.014532 98.3508 
L 118.078258 98.52624 
L 121.119638 99.78528 
L 124.130577 100.12584 
L 127.153306 100.03296 
L 130.239308 100.45608 
L 133.286987 100.83792 
L 136.299369 100.11552 
L 139.566361 99.87816 
L 142.417426 100.002 
L 145.461797 100.64184 
L 148.473264 101.41584 
L 151.55522 101.21976 
L 154.604447 101.14752 
L 157.625803 101.00304 
L 160.692415 100.86888 
L 163.692903 101.21976 
L 166.736922 101.28168 
L 169.751415 101.20944 
L 172.837735 101.14752 
L 175.886117 100.55928 
L 178.90691 100.65216 
L 181.952372 99.80592 
L 184.982315 99.96072 
L 188.050827 99.6408 
L 191.044875 99.1764 
L 194.139956 99.70272 
L 197.196081 99.94008 
L 200.217261 98.57784 
L 203.255474 98.65008 
L 206.309171 98.38176 
L 209.343512 98.48496 
L 212.35051 96.70992 
L 215.431199 98.05152 
L 218.479265 98.48496 
L 221.506463 97.96896 
L 224.537567 96.32808 
L 227.590419 96.20424 
L 230.639013 96.16296 
L 233.643266 96.1836 
L 236.731098 96.50352 
L 239.804396 94.76976 
L 242.851301 97.19496 
L 245.883531 96.9576 
L 248.929169 97.9896 
L 252.002925 96.89568 
L 254.965863 95.45088 
L 258.068124 95.67792 
L 261.107604 93.43848 
L 264.08117 92.90184 
L 267.175266 92.25168 
L 270.216611 92.87088 
L 273.206541 94.2744 
L 276.258197 93.1392 
L 279.36 92.97408 
" clip-path="url(#pb816deaa7f)" style="fill: none; stroke: #f5841e; stroke-width: 0.6"/>
   </g>
  </g>
 </g>
 <defs>
  <clipPath id="pb816deaa7f">
   <rect x="8.64" y="4.8" width="270.72" height="103.2"/>
  </clipPath>
 </defs>
</svg>
