<?xml version="1.0" encoding="utf-8" standalone="no"?>
<!DOCTYPE svg PUBLIC "-//W3C//DTD SVG 1.1//EN"
  "http://www.w3.org/Graphics/SVG/1.1/DTD/svg11.dtd">
<svg xmlns:xlink="http://www.w3.org/1999/xlink" width="288pt" height="120pt" viewBox="0 0 288 120" xmlns="http://www.w3.org/2000/svg" version="1.1">
<desc id="nav-meta">{"window":"3m","count":4,"labels":["12.04","12.05","10.06","10.07"],"tick_utc":["2026-04-12T03:55:19Z","2026-05-12T04:26:58Z","2026-06-10T05:05:46Z","2026-07-10T04:38:36Z"],"w":720,"h":300}</desc>

 <metadata>
  <rdf:RDF xmlns:dc="http://purl.org/dc/elements/1.1/" xmlns:cc="http://creativecommons.org/ns#" xmlns:rdf="http://www.w3.org/1999/02/22-rdf-syntax-ns#">
   <cc:Work>
    <dc:type rdf:resource="http://purl.org/dc/dcmitype/StillImage"/>
    <dc:date>2026-07-10T10:03:48.982480</dc:date>
    <dc:format>image/svg+xml</dc:format>
    <dc:creator>
     <cc:Agent>
      <dc:title>Matplotlib v3.11.0, https://matplotlib.org/</dc:title>
     </cc:Agent>
    </dc:creator>
   </cc:Work>
  </rdf:RDF>
 </metadata>
 <defs>
  <style type="text/css">*{stroke-linejoin: round; stroke-linecap: butt}</style>
 </defs>
 <g id="figure_1">
  <g id="patch_1">
   <path d="M 0 120 
L 288 120 
L 288 0 
L 0 0 
L 0 120 
z
" style="fill: none; opacity: 0"/>
  </g>
  <g id="axes_1">
   <g id="patch_2">
    <path d="M 8.64 108 
L 279.36 108 
L 279.36 4.8 
L 8.64 4.8 
L 8.64 108 
z
" style="fill: none"/>
   </g>
   <g id="matplotlib.axis_1"/>
   <g id="matplotlib.axis_2"/>
   <g id="line2d_1">
    <path d="M 8.64 87.36 
L 279.36 87.36 
" clip-path="url(#p3d10190211)" style="fill: none; stroke: #b2b2b2; stroke-opacity: 0.35; stroke-width: 0.5; stroke-linecap: square"/>
   </g>
   <g id="line2d_2">
    <path d="M 8.64 66.72 
L 279.36 66.72 
" clip-path="url(#p3d10190211)" style="fill: none; stroke: #b2b2b2; stroke-opacity: 0.35; stroke-width: 0.5; stroke-linecap: square"/>
   </g>
   <g id="line2d_3">
    <path d="M 8.64 46.08 
L 279.36 46.08 
" clip-path="url(#p3d10190211)" style="fill: none; stroke: #b2b2b2; stroke-opacity: 0.35; stroke-width: 0.5; stroke-linecap: square"/>
   </g>
   <g id="line2d_4">
    <path d="M 8.64 25.44 
L 279.36 25.44 
" clip-path="url(#p3d10190211)" style="fill: none; stroke: #b2b2b2; stroke-opacity: 0.35; stroke-width: 0.5; stroke-linecap: square"/>
   </g>
   <g id="line2d_5">
    <path d="M 8.64 101.3952 
L 11.696362 101.47776 
L 14.717776 100.86888 
L 17.756224 101.26104 
L 20.810157 100.99272 
L 23.844734 100.61088 
L 26.851965 100.44576 
L 29.932892 100.94112 
L 32.981194 101.09592 
L 36.008626 101.00304 
L 39.039965 100.69344 
L 42.093054 100.9308 
L 45.141884 100.92048 
L 48.14637 100.81728 
L 51.234442 100.8792 
L 54.307978 100.64184 
L 57.355119 101.1888 
L 60.387584 101.09592 
L 63.433458 101.37456 
L 66.507452 101.21976 
L 69.47062 101.20944 
L 72.573121 101.23008 
L 75.612836 100.92048 
L 78.586632 101.06496 
L 81.680969 100.70376 
L 84.722549 100.55928 
L 87.712711 100.53864 
L 90.764603 99.60984 
L 93.866646 99.72336 
L 96.93142 99.44472 
L 99.929958 99.25896 
L 102.985193 99.32088 
L 106.022585 100.22904 
L 109.078349 100.01232 
L 112.0803 100.43544 
L 115.166472 100.75536 
L 118.23677 101.02368 
L 121.255756 101.02368 
L 124.307402 101.17848 
L 127.365488 100.7244 
L 130.38296 100.75536 
L 133.381956 101.11656 
L 136.470872 100.91016 
L 139.551659 100.89984 
L 142.54636 101.1372 
L 145.618348 101.2404 
L 148.649405 101.6532 
L 151.692429 101.4984 
L 154.689348 101.48808 
L 157.792201 101.32296 
L 160.87795 101.51904 
L 163.888805 101.7048 
L 166.963785 102.54072 
L 169.994138 103.08768 
L 172.984828 103.36632 
L 175.978861 104.22288 
L 179.084987 103.85136 
L 182.139202 103.68624 
L 185.121938 103.43856 
L 188.194242 103.81008 
L 191.252857 103.72752 
L 194.305558 103.50048 
L 197.324086 103.5108 
L 200.386924 103.31472 
L 203.528772 102.95352 
L 206.586894 102.61296 
L 209.53081 102.6336 
L 212.557011 102.9948 
L 215.669402 103.28376 
L 218.588577 103.01544 
L 221.692626 102.69552 
L 224.822403 102.582 
L 227.681396 102.88128 
L 230.733042 103.15992 
L 233.773004 103.36632 
L 236.829365 103.36632 
L 239.832866 102.81936 
L 242.931601 103.0464 
L 245.994368 102.9432 
L 248.976189 102.59232 
L 252.061445 102.40656 
L 255.048967 102.02472 
L 258.056655 101.68416 
L 261.084334 101.3436 
L 264.169625 101.6532 
L 267.239854 101.6532 
L 270.235013 101.63256 
L 273.193148 101.95248 
L 276.326092 102.08664 
L 279.36 101.9112 
" clip-path="url(#p3d10190211)" style="fill: none; stroke: #bebebe; stroke-width: 0.5; stroke-linecap: round"/>
   </g>
   <g id="line2d_6">
    <path d="M 8.64 86.66856 
L 11.696362 87.01944 
L 14.717776 84.44976 
L 17.756224 85.05864 
L 20.810157 84.58392 
L 23.844734 85.04832 
L 26.851965 83.71704 
L 29.932892 84.86256 
L 32.981194 85.6572 
L 36.008626 85.27536 
L 39.039965 84.49104 
L 42.093054 84.86256 
L 45.141884 85.32696 
L 48.14637 85.17216 
L 51.234442 85.31664 
L 54.307978 84.11952 
L 57.355119 85.66752 
L 60.387584 85.26504 
L 63.433458 86.26608 
L 66.507452 85.77072 
L 69.47062 85.38888 
L 72.573121 85.3992 
L 75.612836 84.09888 
L 78.586632 84.22272 
L 81.680969 84.34656 
L 84.722549 85.06896 
L 87.712711 85.7604 
L 90.764603 85.0896 
L 93.866646 85.01736 
L 96.93142 84.9348 
L 99.929958 85.296 
L 102.985193 85.35792 
L 106.022585 86.1732 
L 109.078349 85.92552 
L 112.0803 86.55504 
L 115.166472 87.13296 
L 118.23677 88.10304 
L 121.255756 87.9276 
L 124.307402 88.26816 
L 127.365488 87.78312 
L 130.38296 87.95856 
L 133.381956 88.94928 
L 136.470872 88.14432 
L 139.551659 88.33008 
L 142.54636 88.52616 
L 145.618348 88.86672 
L 148.649405 90.22896 
L 151.692429 89.82648 
L 154.689348 89.87808 
L 157.792201 89.46528 
L 160.87795 90.0432 
L 163.888805 89.96064 
L 166.963785 91.99368 
L 169.994138 93.05664 
L 172.984828 93.74808 
L 175.978861 97.02984 
L 179.084987 95.93592 
L 182.139202 95.07936 
L 185.121938 94.46016 
L 188.194242 95.47152 
L 191.252857 95.11032 
L 194.305558 94.82136 
L 197.324086 94.8936 
L 200.386924 94.70784 
L 203.528772 94.04736 
L 206.586894 93.40752 
L 209.53081 92.9844 
L 212.557011 93.93384 
L 215.669402 94.4292 
L 218.588577 94.19184 
L 221.692626 93.87192 
L 224.822403 93.81 
L 227.681396 94.03704 
L 230.733042 94.83168 
L 233.773004 95.48184 
L 236.829365 96.63768 
L 239.832866 96.14232 
L 242.931601 96.30744 
L 245.994368 96.29712 
L 248.976189 96.04944 
L 252.061445 95.9256 
L 255.048967 95.39928 
L 258.056655 94.31568 
L 261.084334 93.57264 
L 264.169625 93.32496 
L 267.239854 93.22176 
L 270.235013 93.35592 
L 273.193148 93.61392 
L 276.326092 93.77904 
L 279.36 93.26304 
" clip-path="url(#p3d10190211)" style="fill: none; stroke: #4a8dff; stroke-width: 0.6"/>
   </g>
   <g id="line2d_7">
    <path d="M 8.64 99.70272 
L 11.696362 99.94008 
L 14.717776 98.57784 
L 17.756224 98.65008 
L 20.810157 98.38176 
L 23.844734 98.48496 
L 26.851965 96.70992 
L 29.932892 98.05152 
L 32.981194 98.48496 
L 36.008626 97.96896 
L 39.039965 96.32808 
L 42.093054 96.20424 
L 45.141884 96.16296 
L 48.14637 96.1836 
L 51.234442 96.50352 
L 54.307978 94.76976 
L 57.355119 97.19496 
L 60.387584 96.9576 
L 63.433458 97.9896 
L 66.507452 96.89568 
L 69.47062 95.45088 
L 72.573121 95.67792 
L 75.612836 93.43848 
L 78.586632 92.90184 
L 81.680969 92.25168 
L 84.722549 92.87088 
L 87.712711 94.2744 
L 90.764603 93.1392 
L 93.866646 92.97408 
L 96.93142 92.9844 
L 99.929958 92.60256 
L 102.985193 92.53032 
L 106.022585 94.54272 
L 109.078349 92.85024 
L 112.0803 94.82136 
L 115.166472 95.75016 
L 118.23677 96.97824 
L 121.255756 97.08144 
L 124.307402 97.23624 
L 127.365488 95.94624 
L 130.38296 96.30744 
L 133.381956 98.08248 
L 136.470872 97.2672 
L 139.551659 96.61704 
L 142.54636 97.23624 
L 145.618348 98.08248 
L 148.649405 99.18672 
L 151.692429 99.03192 
L 154.689348 99.1248 
L 157.792201 98.74296 
L 160.87795 99.09384 
L 163.888805 100.0536 
L 166.963785 101.23008 
L 169.994138 101.99376 
L 172.984828 102.08664 
L 175.978861 102.8916 
L 179.084987 102.45816 
L 182.139202 102.28272 
L 185.121938 102.10728 
L 188.194242 102.582 
L 191.252857 102.29304 
L 194.305558 102.08664 
L 197.324086 102.066 
L 200.386924 101.86992 
L 203.528772 101.48808 
L 206.586894 101.40552 
L 209.53081 101.4984 
L 212.557011 101.97312 
L 215.669402 102.26208 
L 218.588577 102.066 
L 221.692626 101.90088 
L 224.822403 101.90088 
L 227.681396 102.0144 
L 230.733042 102.25176 
L 233.773004 102.6336 
L 236.829365 102.88128 
L 239.832866 102.77808 
L 242.931601 102.85032 
L 245.994368 102.93288 
L 248.976189 102.95352 
L 252.061445 103.00512 
L 255.048967 102.69552 
L 258.056655 102.55104 
L 261.084334 102.2724 
L 264.169625 102.21048 
L 267.239854 102.12792 
L 270.235013 102.13824 
L 273.193148 102.25176 
L 276.326092 102.36528 
L 279.36 101.94216 
" clip-path="url(#p3d10190211)" style="fill: none; stroke: #f5841e; stroke-width: 0.6"/>
   </g>
  </g>
 </g>
 <defs>
  <clipPath id="p3d10190211">
   <rect x="8.64" y="4.8" width="270.72" height="103.2"/>
  </clipPath>
 </defs>
</svg>
