<?xml version="1.0" encoding="utf-8" standalone="no"?>
<!DOCTYPE svg PUBLIC "-//W3C//DTD SVG 1.1//EN"
  "http://www.w3.org/Graphics/SVG/1.1/DTD/svg11.dtd">
<svg xmlns:xlink="http://www.w3.org/1999/xlink" width="288pt" height="120pt" viewBox="0 0 288 120" xmlns="http://www.w3.org/2000/svg" version="1.1">
<desc id="nav-meta">{"window":"1y","count":4,"labels":["21.03","21.07","19.11","21.03"],"tick_utc":["2025-03-21T12:00:00Z","2025-07-21T12:00:00Z","2025-11-19T12:00:00Z","2026-03-21T03:10:23Z"],"w":720,"h":300}</desc>

 <metadata>
  <rdf:RDF xmlns:dc="http://purl.org/dc/elements/1.1/" xmlns:cc="http://creativecommons.org/ns#" xmlns:rdf="http://www.w3.org/1999/02/22-rdf-syntax-ns#">
   <cc:Work>
    <dc:type rdf:resource="http://purl.org/dc/dcmitype/StillImage"/>
    <dc:date>2026-03-21T03:10:25.221274</dc:date>
    <dc:format>image/svg+xml</dc:format>
    <dc:creator>
     <cc:Agent>
      <dc:title>Matplotlib v3.10.8, https://matplotlib.org/</dc:title>
     </cc:Agent>
    </dc:creator>
   </cc:Work>
  </rdf:RDF>
 </metadata>
 <defs>
  <style type="text/css">*{stroke-linejoin: round; stroke-linecap: butt}</style>
 </defs>
 <g id="figure_1">
  <g id="patch_1">
   <path d="M 0 120 
L 288 120 
L 288 0 
L 0 0 
L 0 120 
z
" style="fill: none; opacity: 0"/>
  </g>
  <g id="axes_1">
   <g id="patch_2">
    <path d="M 8.64 108 
L 279.36 108 
L 279.36 4.8 
L 8.64 4.8 
L 8.64 108 
z
" style="fill: none"/>
   </g>
   <g id="matplotlib.axis_1"/>
   <g id="matplotlib.axis_2"/>
   <g id="line2d_1">
    <path d="M 8.64 87.36 
L 279.36 87.36 
" clip-path="url(#p8626c18a04)" style="fill: none; stroke: #b2b2b2; stroke-opacity: 0.35; stroke-width: 0.5; stroke-linecap: square"/>
   </g>
   <g id="line2d_2">
    <path d="M 8.64 66.72 
L 279.36 66.72 
" clip-path="url(#p8626c18a04)" style="fill: none; stroke: #b2b2b2; stroke-opacity: 0.35; stroke-width: 0.5; stroke-linecap: square"/>
   </g>
   <g id="line2d_3">
    <path d="M 8.64 46.08 
L 279.36 46.08 
" clip-path="url(#p8626c18a04)" style="fill: none; stroke: #b2b2b2; stroke-opacity: 0.35; stroke-width: 0.5; stroke-linecap: square"/>
   </g>
   <g id="line2d_4">
    <path d="M 8.64 25.44 
L 279.36 25.44 
" clip-path="url(#p8626c18a04)" style="fill: none; stroke: #b2b2b2; stroke-opacity: 0.35; stroke-width: 0.5; stroke-linecap: square"/>
   </g>
   <g id="line2d_5">
    <path d="M 8.64 91.62216 
L 9.382447 91.46736 
L 10.124894 91.42608 
L 10.86734 90.41472 
L 11.609787 88.09272 
L 12.352234 87.17424 
L 13.094681 89.04216 
L 13.837127 88.69128 
L 14.579574 91.13712 
L 15.322021 92.48904 
L 16.806914 92.38584 
L 17.549361 91.85952 
L 18.291808 94.24344 
L 19.034255 94.4808 
L 19.776701 92.97408 
L 20.519148 93.67584 
L 21.261595 97.60776 
L 22.004042 97.32912 
L 22.746488 97.68 
L 23.488935 94.00608 
L 24.231382 95.65728 
L 24.973829 93.33528 
L 25.716275 90.39408 
L 26.458722 91.46736 
L 27.201169 91.14744 
L 27.943616 91.99368 
L 28.686062 90.57984 
L 29.428509 89.72328 
L 30.170956 89.89872 
L 30.913403 88.35072 
L 31.655849 88.89768 
L 32.398296 89.25888 
L 33.140743 85.84296 
L 33.88319 85.2444 
L 34.625636 84.8832 
L 36.852977 85.99776 
L 37.595423 86.07 
L 38.33787 86.4828 
L 39.080317 86.14224 
L 39.822764 85.31664 
L 40.56521 86.07 
L 41.307657 86.38992 
L 42.050104 87.16392 
L 42.792551 86.38992 
L 44.277444 86.28672 
L 45.019891 81.84912 
L 45.762338 79.32072 
L 46.504784 78.05136 
L 47.247231 79.26912 
L 47.989678 78.846 
L 48.732125 76.2144 
L 50.217018 80.394 
L 50.959465 80.66232 
L 51.701912 81.168 
L 52.444358 79.63032 
L 53.186805 80.95128 
L 53.929252 80.4972 
L 55.414145 77.43216 
L 56.156592 78.846 
L 56.899039 78.41256 
L 57.641486 78.64992 
L 58.383932 78.76344 
L 59.126379 78.25776 
L 59.868826 79.47552 
L 60.611273 80.92032 
L 61.353719 83.73768 
L 62.096166 83.6448 
L 62.838613 83.4384 
L 63.58106 83.61384 
L 64.323506 83.99568 
L 65.065953 84.55296 
L 65.8084 87.00912 
L 66.550847 85.98744 
L 67.293293 85.5024 
L 68.03574 84.8316 
L 68.778187 82.46832 
L 69.520634 81.426 
L 70.26308 82.5096 
L 71.005527 84.79032 
L 72.490421 86.95752 
L 73.232867 84.79032 
L 73.975314 85.13088 
L 74.717761 86.07 
L 75.460208 86.5344 
L 76.202654 86.31768 
L 77.687548 89.97096 
L 78.429995 90.48696 
L 79.172441 86.9472 
L 79.914888 86.66856 
L 80.657335 87.32904 
L 81.399782 88.53648 
L 82.142228 87.6696 
L 82.884675 85.30632 
L 83.627122 84.61488 
L 84.369569 84.17112 
L 85.112015 86.3796 
L 85.854462 84.92448 
L 86.596909 84.89352 
L 87.339356 86.13192 
L 88.081802 86.1732 
L 88.824249 84.99672 
L 89.566696 85.85328 
L 90.309143 85.01736 
L 91.051589 83.55192 
L 91.794036 81.7356 
L 92.536483 82.03488 
L 93.27893 82.65408 
L 94.763823 82.15872 
L 95.50627 81.70464 
L 96.248717 79.01112 
L 96.991163 78.39192 
L 97.73361 78.04104 
L 98.476057 78.16488 
L 99.218504 77.05032 
L 99.96095 72.82944 
L 100.703397 70.41456 
L 101.445844 74.69736 
L 102.188291 76.6272 
L 102.930737 75.63648 
L 103.673184 75.97704 
L 104.415631 74.976 
L 105.158078 76.49304 
L 105.900524 76.99872 
L 106.642971 77.90688 
L 107.385418 79.4652 
L 108.127865 82.02456 
L 108.870311 83.19072 
L 109.612758 82.27224 
L 110.355205 80.21856 
L 111.097652 81.67368 
L 111.840098 80.5488 
L 112.582545 78.588 
L 113.324992 78.19584 
L 114.067439 77.21544 
L 114.809885 76.524 
L 115.552332 78.68088 
L 116.294779 73.88208 
L 117.037226 71.364 
L 117.779672 73.8408 
L 118.522119 75.79128 
L 119.264566 74.65608 
L 120.007013 74.14008 
L 120.749459 76.50336 
L 121.491906 78.30936 
L 122.234353 75.3372 
L 122.9768 77.25672 
L 123.719246 71.78712 
L 124.461693 70.75512 
L 125.20414 70.24944 
L 125.946587 75.35784 
L 126.689033 72.95328 
L 127.43148 70.96152 
L 128.173927 67.87584 
L 128.916374 70.46616 
L 129.65882 71.11632 
L 130.401267 71.61168 
L 131.143714 72.7056 
L 131.886161 69.33096 
L 132.628607 68.9388 
L 133.371054 71.12664 
L 134.113501 70.90992 
L 134.855948 71.80776 
L 135.598394 70.074 
L 136.340841 68.01 
L 137.083288 67.10184 
L 137.825735 65.29584 
L 138.568181 64.01616 
L 139.310628 60.31128 
L 140.053075 60.19776 
L 140.795522 60.786 
L 141.537968 62.61264 
L 142.280415 61.74576 
L 143.022862 59.57856 
L 143.765309 58.86648 
L 144.507755 61.38456 
L 145.250202 61.07496 
L 145.992649 61.83864 
L 146.735096 66.29688 
L 147.477542 67.97904 
L 148.219989 68.69112 
L 148.962436 73.9956 
L 149.704883 70.45584 
L 150.447329 70.87896 
L 151.189776 68.91816 
L 151.932223 68.3196 
L 152.67467 69.47544 
L 154.159563 62.39592 
L 154.90201 62.81904 
L 155.644457 64.22256 
L 156.386903 64.05744 
L 157.12935 62.9532 
L 157.871797 66.14208 
L 158.614244 63.91296 
L 159.35669 66.17304 
L 160.099137 74.6148 
L 160.841584 77.78304 
L 161.584031 72.66432 
L 162.326477 69.69216 
L 163.068924 71.09568 
L 164.553818 76.06992 
L 165.296264 76.76136 
L 166.038711 75.25464 
L 166.781158 75.24432 
L 167.523605 74.63544 
L 168.266051 75.73968 
L 169.008498 77.31864 
L 169.750945 74.202 
L 170.493392 73.64472 
L 171.235838 73.48992 
L 171.978285 71.83872 
L 172.720732 72.17928 
L 173.463179 73.38672 
L 174.205625 73.43832 
L 174.948072 76.15248 
L 175.690519 75.3372 
L 176.432966 75.58488 
L 177.175412 75.35784 
L 177.917859 81.168 
L 178.660306 84.01632 
L 179.402753 82.06584 
L 180.145199 84.19176 
L 180.887646 82.27224 
L 181.630093 83.29392 
L 182.37254 81.62208 
L 183.114986 80.72424 
L 183.857433 84.33624 
L 184.59988 84.64584 
L 185.342327 86.844 
L 186.084773 88.52616 
L 186.82722 88.36104 
L 187.569667 88.93896 
L 188.312114 90.79656 
L 189.05456 88.09272 
L 189.797007 89.22792 
L 190.539454 90.00192 
L 191.281901 91.39512 
L 192.024347 91.63248 
L 192.766794 90.75528 
L 193.509241 88.7016 
L 194.251688 88.52616 
L 194.994134 87.45288 
L 195.736581 88.0308 
L 196.479028 88.94928 
L 197.963921 89.7336 
L 198.706368 91.86984 
L 199.448815 88.60872 
L 200.191262 86.87496 
L 201.676155 90.11544 
L 203.161049 90.53856 
L 203.903495 90.08448 
L 204.645942 88.79448 
L 205.388389 89.20728 
L 206.130836 89.22792 
L 206.873282 90.31152 
L 207.615729 90.10512 
L 208.358176 91.09584 
L 209.100623 91.61184 
L 209.843069 91.31256 
L 210.585516 92.87088 
L 211.327963 93.8616 
L 212.07041 92.02464 
L 212.812856 92.13816 
L 213.555303 92.07624 
L 214.29775 92.14848 
L 216.52509 93.69648 
L 218.009984 92.44776 
L 218.75243 92.30328 
L 219.494877 92.87088 
L 220.237324 92.38584 
L 220.979771 92.47872 
L 221.722217 91.88016 
L 222.464664 90.42504 
L 223.207111 90.08448 
L 223.949558 89.92968 
L 224.692004 88.76352 
L 225.434451 87.94824 
L 226.176898 89.2692 
L 226.919345 88.72224 
L 227.661791 89.39304 
L 228.404238 89.40336 
L 229.146685 88.41264 
L 229.889132 88.4952 
L 230.631578 86.86464 
L 231.374025 86.42088 
L 232.116472 87.62832 
L 232.858919 86.93688 
L 233.601365 87.23616 
L 235.086259 90.0432 
L 235.828706 92.12784 
L 236.571152 91.16808 
L 238.056046 91.73568 
L 238.798493 91.78728 
L 239.540939 94.0164 
L 240.283386 92.5716 
L 241.025833 91.76664 
L 241.76828 92.33424 
L 242.510726 94.36728 
L 243.253173 94.46016 
L 243.99562 97.71096 
L 244.738067 98.48496 
L 245.480513 97.85544 
L 246.697318 100.16712 
L 247.439387 102.23112 
L 248.178654 100.54896 
L 248.938073 100.70376 
L 249.674392 100.68312 
L 251.161984 101.28168 
L 251.901758 101.71512 
L 252.643982 101.84928 
L 253.3775 101.034 
L 254.080771 100.54896 
L 254.870841 101.04432 
L 255.520026 100.81728 
L 256.354557 101.034 
L 257.096101 101.4984 
L 259.323046 101.06496 
L 260.067727 102.09696 
L 260.747453 102.05568 
L 261.549948 101.4984 
L 262.289087 100.60056 
L 263.030124 100.80696 
L 263.763823 101.45712 
L 264.523138 100.55928 
L 265.25792 101.10624 
L 266.740382 100.74504 
L 267.484427 100.21872 
L 268.226521 100.53864 
L 268.963271 101.07528 
L 269.712927 101.38488 
L 270.457599 101.26104 
L 271.195277 100.78632 
L 272.6828 100.99272 
L 273.423812 100.38384 
L 274.921921 100.60056 
L 275.666465 99.76464 
L 276.395919 99.49632 
L 277.144028 99.40344 
L 277.886681 100.09488 
L 278.621901 100.3632 
L 279.36 100.19808 
L 279.36 100.19808 
" clip-path="url(#p8626c18a04)" style="fill: none; stroke: #bebebe; stroke-width: 0.5; stroke-linecap: round"/>
   </g>
   <g id="line2d_6">
    <path d="M 8.64 90.18768 
L 9.382447 90.43536 
L 10.86734 89.8884 
L 11.609787 88.7532 
L 12.352234 88.88736 
L 13.094681 89.75424 
L 13.837127 89.85744 
L 14.579574 91.4364 
L 15.322021 92.43744 
L 16.064468 92.79864 
L 16.806914 92.50968 
L 17.549361 91.2816 
L 18.291808 92.9328 
L 19.034255 92.60256 
L 20.519148 92.7264 
L 21.261595 96.21456 
L 22.004042 96.4932 
L 22.746488 97.74192 
L 23.488935 94.91424 
L 24.231382 96.96792 
L 24.973829 96.31776 
L 25.716275 95.16192 
L 26.458722 95.90496 
L 27.201169 95.52312 
L 27.943616 96.01848 
L 28.686062 96.17328 
L 30.170956 95.99784 
L 30.913403 95.616 
L 31.655849 96.05976 
L 32.398296 96.17328 
L 33.140743 93.46944 
L 33.88319 92.96376 
L 34.625636 93.32496 
L 35.368083 93.036 
L 36.11053 92.56128 
L 36.852977 92.96376 
L 37.595423 92.8812 
L 39.080317 92.96376 
L 39.822764 92.29296 
L 40.56521 92.262 
L 41.307657 92.3652 
L 42.050104 92.74704 
L 42.792551 92.5716 
L 44.277444 92.71608 
L 45.019891 86.97816 
L 45.762338 84.84192 
L 46.504784 81.24024 
L 47.247231 82.37544 
L 47.989678 82.60248 
L 48.732125 79.86768 
L 50.217018 81.85944 
L 50.959465 81.82848 
L 51.701912 82.86048 
L 52.444358 83.00496 
L 53.186805 82.08648 
L 53.929252 82.12776 
L 54.671699 81.61176 
L 55.414145 80.15664 
L 56.156592 82.18968 
L 57.641486 81.79752 
L 58.383932 81.56016 
L 59.126379 80.0844 
L 59.868826 79.86768 
L 60.611273 80.50752 
L 61.353719 82.12776 
L 62.838613 81.92136 
L 63.58106 80.8584 
L 64.323506 81.07512 
L 65.065953 80.84808 
L 65.8084 83.6448 
L 66.550847 82.7676 
L 67.293293 82.0968 
L 68.03574 82.3548 
L 68.778187 79.74384 
L 69.520634 77.90688 
L 70.26308 78.39192 
L 71.005527 80.21856 
L 71.747974 81.34344 
L 72.490421 81.98328 
L 73.975314 81.5808 
L 74.717761 82.26192 
L 76.202654 82.15872 
L 76.945101 83.88216 
L 77.687548 85.89456 
L 78.429995 86.5344 
L 79.172441 83.61384 
L 79.914888 83.2836 
L 80.657335 83.71704 
L 81.399782 83.748 
L 82.884675 83.41776 
L 83.627122 82.44768 
L 84.369569 82.6644 
L 85.112015 83.89248 
L 85.854462 81.38472 
L 86.596909 81.14736 
L 87.339356 82.34448 
L 88.081802 82.23096 
L 88.824249 81.426 
L 89.566696 81.8388 
L 90.309143 80.76552 
L 91.794036 75.83256 
L 92.536483 75.67776 
L 93.27893 75.91512 
L 94.763823 74.88312 
L 95.50627 73.09776 
L 96.248717 69.6096 
L 96.991163 67.91712 
L 97.73361 66.94704 
L 98.476057 66.24528 
L 99.218504 63.80976 
L 99.96095 63.70656 
L 100.703397 63.9852 
L 101.445844 65.71896 
L 102.188291 64.5528 
L 103.673184 64.05744 
L 104.415631 62.25144 
L 105.158078 63.39696 
L 105.900524 63.366 
L 106.642971 63.08736 
L 107.385418 64.72824 
L 108.127865 67.89648 
L 108.870311 69.16584 
L 109.612758 67.69008 
L 110.355205 64.4496 
L 111.097652 65.97696 
L 111.840098 64.914 
L 112.582545 61.54968 
L 113.324992 60.04296 
L 114.067439 56.28648 
L 114.809885 56.47224 
L 115.552332 56.83344 
L 116.294779 51.22968 
L 117.037226 48.89736 
L 117.779672 52.00368 
L 118.522119 53.84064 
L 119.264566 53.90256 
L 120.007013 53.00472 
L 120.749459 55.5228 
L 121.491906 59.12448 
L 122.234353 55.32672 
L 122.9768 56.90568 
L 123.719246 47.92728 
L 124.461693 48.75288 
L 125.20414 48.68064 
L 125.946587 54.57336 
L 126.689033 51.2916 
L 127.43148 52.80864 
L 128.173927 52.69512 
L 128.916374 54.82104 
L 130.401267 54.45984 
L 131.143714 55.7292 
L 131.886161 55.39896 
L 132.628607 53.55168 
L 133.371054 55.81176 
L 134.113501 55.6776 
L 134.855948 56.18328 
L 135.598394 55.71888 
L 137.083288 55.63632 
L 137.825735 55.07904 
L 138.568181 53.41752 
L 139.310628 49.71264 
L 140.053075 50.32152 
L 140.795522 51.17808 
L 141.537968 52.44744 
L 142.280415 52.74672 
L 143.022862 51.4464 
L 143.765309 51.46704 
L 144.507755 53.2524 
L 145.250202 53.08728 
L 145.992649 53.5104 
L 146.735096 57.26688 
L 147.477542 57.76224 
L 148.219989 58.02024 
L 148.962436 62.26176 
L 149.704883 59.68176 
L 150.447329 59.9604 
L 151.189776 58.12344 
L 151.932223 57.02952 
L 152.67467 58.09248 
L 153.417116 55.13064 
L 154.159563 53.046 
L 154.90201 52.5816 
L 155.644457 52.9944 
L 156.386903 52.5816 
L 157.12935 50.0016 
L 157.871797 53.48976 
L 158.614244 52.40616 
L 159.35669 54.75912 
L 160.099137 62.67456 
L 160.841584 63.95424 
L 161.584031 57.86544 
L 162.326477 56.57544 
L 163.068924 58.31952 
L 163.811371 60.4764 
L 164.553818 61.85928 
L 165.296264 62.73648 
L 166.038711 61.8696 
L 166.781158 60.45576 
L 167.523605 60.54864 
L 168.266051 62.04504 
L 169.008498 63.16992 
L 169.750945 62.36496 
L 170.493392 61.21944 
L 171.235838 60.9408 
L 171.978285 57.83448 
L 172.720732 58.40208 
L 173.463179 60.49704 
L 174.948072 63.1596 
L 175.690519 62.49912 
L 176.432966 62.1276 
L 177.175412 61.56 
L 178.660306 70.66224 
L 179.402753 68.72208 
L 180.145199 70.4868 
L 180.887646 68.61888 
L 181.630093 69.11424 
L 182.37254 66.5136 
L 183.114986 66.68904 
L 183.857433 68.8872 
L 184.59988 68.9904 
L 185.342327 71.5704 
L 186.084773 73.48992 
L 186.82722 72.54048 
L 188.312114 74.74896 
L 189.05456 73.3248 
L 189.797007 74.80056 
L 190.539454 77.556 
L 191.281901 78.55704 
L 192.024347 78.50544 
L 192.766794 78.04104 
L 193.509241 75.76032 
L 194.251688 75.73968 
L 194.994134 74.65608 
L 195.736581 74.83152 
L 196.479028 74.57352 
L 197.221475 75.20304 
L 197.963921 75.17208 
L 198.706368 78.05136 
L 200.191262 72.16896 
L 200.933708 73.08744 
L 201.676155 74.72832 
L 203.161049 74.28456 
L 203.903495 73.21128 
L 204.645942 70.2804 
L 205.388389 70.2288 
L 206.130836 71.56008 
L 206.873282 73.79952 
L 207.615729 73.35576 
L 208.358176 74.0988 
L 209.100623 75.5952 
L 209.843069 75.5952 
L 210.585516 77.61792 
L 211.327963 77.63856 
L 212.07041 75.40944 
L 212.812856 75.40944 
L 213.555303 75.04824 
L 214.29775 74.98632 
L 215.040197 75.58488 
L 215.782643 75.87384 
L 216.52509 76.49304 
L 218.009984 75.82224 
L 218.75243 75.84288 
L 219.494877 76.03896 
L 220.237324 75.51264 
L 220.979771 75.56424 
L 221.722217 75.05856 
L 222.464664 73.26288 
L 223.207111 73.20096 
L 223.949558 73.00488 
L 224.692004 71.68392 
L 225.434451 70.6932 
L 226.176898 72.62304 
L 226.919345 73.52088 
L 227.661791 73.83048 
L 228.404238 73.8408 
L 229.146685 73.29384 
L 229.889132 73.72728 
L 230.631578 70.32168 
L 231.374025 69.77472 
L 232.116472 70.34232 
L 232.858919 70.67256 
L 233.601365 70.51776 
L 234.343812 70.848 
L 235.086259 72.31344 
L 235.828706 76.01832 
L 236.571152 75.41976 
L 237.313599 75.83256 
L 238.798493 75.82224 
L 239.540939 77.82432 
L 240.283386 76.14216 
L 241.025833 74.75928 
L 241.76828 74.96568 
L 242.510726 77.75208 
L 243.253173 79.48584 
L 243.99562 83.31456 
L 244.738067 85.90488 
L 245.480513 84.79032 
L 246.107305 85.84296 
L 247.439387 91.41576 
L 248.178654 88.7532 
L 249.674392 88.55712 
L 250.421076 88.96992 
L 251.901758 90.456 
L 252.643982 90.56952 
L 253.3775 89.15568 
L 254.080771 88.9596 
L 254.870841 90.6624 
L 255.520026 89.94 
L 256.354557 90.00192 
L 257.834209 90.62112 
L 259.323046 90.3528 
L 260.067727 92.004 
L 260.747453 92.13816 
L 261.549948 91.25064 
L 262.289087 89.166 
L 263.030124 89.56848 
L 263.763823 90.93072 
L 264.523138 89.41368 
L 265.25792 90.37344 
L 266.002094 89.79552 
L 266.740382 90.23928 
L 267.484427 88.0824 
L 268.226521 88.7532 
L 268.963271 90.16704 
L 269.712927 90.67272 
L 270.457599 90.18768 
L 271.195277 89.2692 
L 271.937432 89.54784 
L 272.6828 89.49624 
L 273.423812 88.31976 
L 274.16527 88.45392 
L 274.921921 88.46424 
L 275.666465 86.38992 
L 276.395919 84.80064 
L 277.144028 84.8316 
L 277.886681 86.586 
L 278.621901 87.74184 
L 279.36 87.618 
L 279.36 87.618 
" clip-path="url(#p8626c18a04)" style="fill: none; stroke: #4a8dff; stroke-width: 0.6"/>
   </g>
   <g id="line2d_7">
    <path d="M 8.64 89.39304 
L 10.124894 89.8884 
L 10.86734 87.8244 
L 11.609787 86.2248 
L 12.352234 86.02872 
L 13.094681 86.60664 
L 13.837127 86.328 
L 14.579574 89.30016 
L 15.322021 91.04424 
L 16.064468 91.37448 
L 16.806914 91.20936 
L 17.549361 88.392 
L 18.291808 91.19904 
L 19.776701 89.82648 
L 20.519148 90.0948 
L 21.261595 95.6676 
L 22.004042 94.66656 
L 22.746488 97.61808 
L 23.488935 91.10616 
L 24.231382 94.23312 
L 24.973829 90.25992 
L 25.716275 88.31976 
L 26.458722 90.08448 
L 27.201169 89.13504 
L 27.943616 90.03288 
L 28.686062 89.56848 
L 29.428509 88.71192 
L 30.170956 89.22792 
L 30.913403 88.50552 
L 31.655849 88.55712 
L 32.398296 86.10096 
L 33.140743 79.75416 
L 33.88319 79.7232 
L 34.625636 79.44456 
L 35.368083 78.51576 
L 36.11053 78.64992 
L 36.852977 79.5168 
L 37.595423 78.24744 
L 38.33787 79.0524 
L 39.080317 79.07304 
L 39.822764 76.80264 
L 40.56521 76.35888 
L 41.307657 77.31864 
L 42.050104 78.98016 
L 42.792551 78.52608 
L 43.534997 76.35888 
L 44.277444 76.18344 
L 45.019891 69.90888 
L 45.762338 70.03272 
L 46.504784 68.29896 
L 47.247231 68.95944 
L 47.989678 70.11528 
L 48.732125 68.76336 
L 49.474571 69.37224 
L 50.217018 69.25872 
L 50.959465 69.41352 
L 51.701912 69.77472 
L 52.444358 66.85416 
L 53.186805 67.26696 
L 53.929252 66.06984 
L 54.671699 63.08736 
L 55.414145 61.12656 
L 56.156592 65.62608 
L 56.899039 64.98624 
L 57.641486 63.91296 
L 58.383932 63.38664 
L 59.126379 63.70656 
L 59.868826 64.97592 
L 60.611273 67.14312 
L 61.353719 68.9388 
L 62.096166 68.23704 
L 62.838613 67.1844 
L 63.58106 66.99864 
L 64.323506 67.47336 
L 65.065953 68.1132 
L 65.8084 71.38464 
L 66.550847 68.526 
L 67.293293 67.21536 
L 68.03574 67.20504 
L 68.778187 62.46816 
L 69.520634 62.51976 
L 70.26308 64.10904 
L 71.005527 66.90576 
L 71.747974 66.83352 
L 72.490421 67.42176 
L 73.232867 67.3392 
L 73.975314 65.8944 
L 74.717761 68.24736 
L 76.202654 68.23704 
L 76.945101 69.69216 
L 77.687548 71.50848 
L 78.429995 72.21024 
L 79.172441 67.3908 
L 79.914888 66.90576 
L 80.657335 65.59512 
L 81.399782 65.86344 
L 82.142228 65.76024 
L 82.884675 65.50224 
L 83.627122 64.398 
L 84.369569 65.70864 
L 85.112015 67.2876 
L 85.854462 63.95424 
L 86.596909 63.14928 
L 87.339356 64.76952 
L 88.081802 64.58376 
L 88.824249 63.55176 
L 89.566696 64.5012 
L 90.309143 63.82008 
L 91.051589 61.36392 
L 91.794036 56.64768 
L 92.536483 54.89328 
L 93.27893 55.04808 
L 94.021376 53.29368 
L 94.763823 52.55064 
L 95.50627 54.77976 
L 96.248717 53.67552 
L 96.991163 52.95312 
L 97.73361 54.45984 
L 98.476057 54.55272 
L 99.218504 55.22352 
L 99.96095 54.98616 
L 100.703397 52.4268 
L 101.445844 53.79936 
L 102.188291 54.08832 
L 102.930737 54.92424 
L 103.673184 54.4908 
L 104.415631 52.98408 
L 105.158078 54.44952 
L 105.900524 54.60432 
L 106.642971 54.62496 
L 108.127865 59.38248 
L 108.870311 60.09456 
L 109.612758 58.39176 
L 110.355205 57.41136 
L 111.097652 58.464 
L 111.840098 57.5352 
L 112.582545 55.0068 
L 113.324992 55.81176 
L 114.067439 55.99752 
L 114.809885 53.13888 
L 115.552332 53.64456 
L 116.294779 52.1688 
L 117.037226 48.69096 
L 117.779672 54.0264 
L 118.522119 55.13064 
L 119.264566 54.96552 
L 120.007013 54.92424 
L 120.749459 56.25552 
L 121.491906 59.8572 
L 122.234353 58.32984 
L 122.9768 60.23904 
L 123.719246 55.65696 
L 124.461693 57.18432 
L 125.20414 59.21736 
L 125.946587 62.55072 
L 126.689033 60.82728 
L 127.43148 61.47744 
L 128.173927 60.12552 
L 128.916374 64.31544 
L 129.65882 63.99552 
L 130.401267 64.5528 
L 131.143714 63.60336 
L 131.886161 61.5084 
L 132.628607 60.96144 
L 133.371054 61.98312 
L 134.113501 62.05536 
L 134.855948 62.51976 
L 136.340841 60.64152 
L 137.083288 61.13688 
L 137.825735 58.6188 
L 138.568181 57.03984 
L 139.310628 56.35872 
L 140.053075 56.5548 
L 140.795522 57.174 
L 141.537968 57.14304 
L 142.280415 55.7292 
L 143.022862 56.04912 
L 143.765309 55.33704 
L 144.507755 56.87472 
L 145.250202 56.8128 
L 145.992649 57.24624 
L 146.735096 59.93976 
L 147.477542 60.64152 
L 148.219989 59.29992 
L 148.962436 63.80976 
L 149.704883 63.03576 
L 150.447329 63.09768 
L 151.932223 58.27824 
L 152.67467 58.5672 
L 153.417116 53.93352 
L 154.159563 51.74568 
L 154.90201 50.04288 
L 155.644457 49.90872 
L 157.12935 47.43192 
L 157.871797 50.80656 
L 158.614244 48.90768 
L 159.35669 50.6208 
L 160.099137 59.42376 
L 160.841584 61.85928 
L 161.584031 57.35976 
L 162.326477 57.3288 
L 163.068924 59.46504 
L 164.553818 64.72824 
L 165.296264 66.42072 
L 166.038711 65.688 
L 166.781158 64.17096 
L 167.523605 62.10696 
L 168.266051 64.30512 
L 169.008498 65.20296 
L 169.750945 62.68488 
L 170.493392 61.70448 
L 171.235838 61.06464 
L 171.978285 58.1028 
L 172.720732 58.40208 
L 173.463179 59.68176 
L 174.205625 62.6952 
L 174.948072 64.56312 
L 175.690519 63.18024 
L 176.432966 62.72616 
L 177.175412 62.06568 
L 177.917859 66.33816 
L 178.660306 71.40528 
L 179.402753 69.08328 
L 180.145199 71.7252 
L 180.887646 69.57864 
L 181.630093 70.72416 
L 182.37254 68.2164 
L 183.114986 66.978 
L 183.857433 70.03272 
L 184.59988 71.5188 
L 185.342327 73.3764 
L 186.084773 78.846 
L 186.82722 77.75208 
L 187.569667 78.88728 
L 188.312114 81.34344 
L 189.05456 80.53848 
L 189.797007 82.0452 
L 190.539454 86.92656 
L 191.281901 88.58808 
L 192.024347 88.96992 
L 192.766794 86.7924 
L 193.509241 85.296 
L 194.251688 86.24544 
L 194.994134 82.96368 
L 195.736581 82.13808 
L 196.479028 82.47864 
L 197.221475 82.58184 
L 197.963921 83.03592 
L 198.706368 87.3084 
L 199.448815 82.06584 
L 200.191262 79.71288 
L 200.933708 81.24024 
L 201.676155 84.17112 
L 202.418602 84.24336 
L 203.161049 83.29392 
L 203.903495 82.8192 
L 204.645942 80.64168 
L 205.388389 81.38472 
L 206.130836 80.87904 
L 206.873282 83.13912 
L 207.615729 83.19072 
L 209.100623 87.17424 
L 209.843069 85.71912 
L 210.585516 87.53544 
L 211.327963 88.17528 
L 212.07041 85.41984 
L 213.555303 84.9348 
L 214.29775 85.01736 
L 215.040197 86.14224 
L 215.782643 85.90488 
L 216.52509 86.328 
L 217.267537 86.24544 
L 218.009984 85.72944 
L 218.75243 85.7088 
L 219.494877 86.40024 
L 220.237324 85.09992 
L 220.979771 86.02872 
L 222.464664 83.53128 
L 223.949558 82.03488 
L 224.692004 79.39296 
L 225.434451 79.66128 
L 226.176898 82.15872 
L 226.919345 82.43736 
L 227.661791 82.93272 
L 228.404238 83.00496 
L 229.889132 82.28256 
L 230.631578 78.01008 
L 231.374025 76.19376 
L 232.116472 77.66952 
L 232.858919 77.74176 
L 233.601365 78.1752 
L 235.086259 80.8068 
L 235.828706 85.20312 
L 236.571152 84.12984 
L 237.313599 84.03696 
L 238.056046 84.06792 
L 238.798493 84.3156 
L 239.540939 87.02976 
L 240.283386 85.21344 
L 241.025833 84.28464 
L 241.76828 84.32592 
L 242.510726 89.08344 
L 243.253173 89.5272 
L 243.99562 95.14128 
L 244.738067 96.98856 
L 245.480513 95.08968 
L 246.697318 99.80592 
L 247.439387 101.79768 
L 248.178654 100.03296 
L 248.938073 100.518 
L 249.674392 99.98136 
L 250.421076 100.49736 
L 252.643982 101.26104 
L 253.3775 100.63152 
L 254.080771 100.38384 
L 254.870841 100.84824 
L 255.520026 100.65216 
L 256.354557 101.034 
L 257.096101 101.19912 
L 259.323046 100.91016 
L 260.067727 101.7564 
L 260.747453 101.84928 
L 261.549948 101.56032 
L 262.289087 100.85856 
L 263.763823 101.4468 
L 264.523138 101.02368 
L 265.25792 101.30232 
L 266.002094 100.81728 
L 266.740382 100.79664 
L 267.484427 99.3312 
L 268.226521 99.92976 
L 268.963271 100.78632 
L 269.712927 101.17848 
L 270.457599 101.1372 
L 271.195277 100.21872 
L 272.6828 100.4664 
L 273.423812 99.88848 
L 274.16527 99.94008 
L 274.921921 99.81624 
L 275.666465 98.93904 
L 276.395919 98.3508 
L 277.144028 98.52624 
L 277.886681 99.78528 
L 278.621901 100.12584 
L 279.36 100.03296 
L 279.36 100.03296 
" clip-path="url(#p8626c18a04)" style="fill: none; stroke: #f5841e; stroke-width: 0.6"/>
   </g>
  </g>
 </g>
 <defs>
  <clipPath id="p8626c18a04">
   <rect x="8.64" y="4.8" width="270.72" height="103.2"/>
  </clipPath>
 </defs>
</svg>
