<?xml version="1.0" encoding="utf-8" standalone="no"?>
<!DOCTYPE svg PUBLIC "-//W3C//DTD SVG 1.1//EN"
  "http://www.w3.org/Graphics/SVG/1.1/DTD/svg11.dtd">
<svg xmlns:xlink="http://www.w3.org/1999/xlink" width="288pt" height="120pt" viewBox="0 0 288 120" xmlns="http://www.w3.org/2000/svg" version="1.1">
<desc id="nav-meta">{"window":"3m","count":4,"labels":["04.02","06.03","05.04","05.05"],"tick_utc":["2026-02-04T08:15:41Z","2026-03-06T03:16:38Z","2026-04-05T03:46:34Z","2026-05-05T03:59:32Z"],"w":720,"h":300}</desc>

 <metadata>
  <rdf:RDF xmlns:dc="http://purl.org/dc/elements/1.1/" xmlns:cc="http://creativecommons.org/ns#" xmlns:rdf="http://www.w3.org/1999/02/22-rdf-syntax-ns#">
   <cc:Work>
    <dc:type rdf:resource="http://purl.org/dc/dcmitype/StillImage"/>
    <dc:date>2026-05-05T03:59:34.018269</dc:date>
    <dc:format>image/svg+xml</dc:format>
    <dc:creator>
     <cc:Agent>
      <dc:title>Matplotlib v3.10.9, https://matplotlib.org/</dc:title>
     </cc:Agent>
    </dc:creator>
   </cc:Work>
  </rdf:RDF>
 </metadata>
 <defs>
  <style type="text/css">*{stroke-linejoin: round; stroke-linecap: butt}</style>
 </defs>
 <g id="figure_1">
  <g id="patch_1">
   <path d="M 0 120 
L 288 120 
L 288 0 
L 0 0 
L 0 120 
z
" style="fill: none; opacity: 0"/>
  </g>
  <g id="axes_1">
   <g id="patch_2">
    <path d="M 8.64 108 
L 279.36 108 
L 279.36 4.8 
L 8.64 4.8 
L 8.64 108 
z
" style="fill: none"/>
   </g>
   <g id="matplotlib.axis_1"/>
   <g id="matplotlib.axis_2"/>
   <g id="line2d_1">
    <path d="M 8.64 87.36 
L 279.36 87.36 
" clip-path="url(#p511f8e238b)" style="fill: none; stroke: #b2b2b2; stroke-opacity: 0.35; stroke-width: 0.5; stroke-linecap: square"/>
   </g>
   <g id="line2d_2">
    <path d="M 8.64 66.72 
L 279.36 66.72 
" clip-path="url(#p511f8e238b)" style="fill: none; stroke: #b2b2b2; stroke-opacity: 0.35; stroke-width: 0.5; stroke-linecap: square"/>
   </g>
   <g id="line2d_3">
    <path d="M 8.64 46.08 
L 279.36 46.08 
" clip-path="url(#p511f8e238b)" style="fill: none; stroke: #b2b2b2; stroke-opacity: 0.35; stroke-width: 0.5; stroke-linecap: square"/>
   </g>
   <g id="line2d_4">
    <path d="M 8.64 25.44 
L 279.36 25.44 
" clip-path="url(#p511f8e238b)" style="fill: none; stroke: #b2b2b2; stroke-opacity: 0.35; stroke-width: 0.5; stroke-linecap: square"/>
   </g>
   <g id="line2d_5">
    <path d="M 8.64 99.10416 
L 11.035154 100.16712 
L 14.047576 102.23112 
L 17.048626 100.54896 
L 20.131478 100.70376 
L 23.120563 100.68312 
L 26.151718 100.95144 
L 29.159431 101.28168 
L 32.162539 101.71512 
L 35.175589 101.84928 
L 38.153302 101.034 
L 41.008224 100.54896 
L 44.215506 101.04432 
L 46.85087 100.81728 
L 50.238641 101.034 
L 53.248935 101.4984 
L 56.245276 101.33328 
L 59.240814 101.1372 
L 62.289202 101.06496 
L 65.312229 102.09696 
L 68.071569 102.05568 
L 71.329294 101.4984 
L 74.32982 100.60056 
L 77.338056 100.80696 
L 80.316502 101.45712 
L 83.398936 100.55928 
L 86.381776 101.10624 
L 89.402745 100.8792 
L 92.399818 100.74504 
L 95.420263 100.21872 
L 98.43279 100.53864 
L 101.423619 101.07528 
L 104.466844 101.38488 
L 107.489836 101.26104 
L 110.484432 100.78632 
L 113.497203 100.91016 
L 116.52302 100.99272 
L 119.531152 100.38384 
L 122.541097 100.50768 
L 125.612717 100.60056 
L 128.635186 99.76464 
L 131.596398 99.49632 
L 134.633344 99.40344 
L 137.648138 100.09488 
L 140.632758 100.3632 
L 143.629064 100.19808 
L 146.68809 100.47672 
L 149.709129 100.79664 
L 152.695179 100.26 
L 155.933613 99.83688 
L 158.759755 100.13616 
L 161.777515 100.80696 
L 164.762658 101.38488 
L 167.817673 101.3436 
L 170.840246 101.292 
L 173.835192 101.28168 
L 176.874997 101.28168 
L 179.849257 101.8596 
L 182.866667 101.88024 
L 185.85481 101.72544 
L 188.914151 101.68416 
L 191.935887 101.47776 
L 194.930274 101.78736 
L 197.949115 101.09592 
L 200.952572 101.46744 
L 203.994261 101.3436 
L 206.962137 101.05464 
L 210.030164 101.3952 
L 213.059574 101.47776 
L 216.054345 100.86888 
L 219.066 101.26104 
L 222.093003 100.99272 
L 225.100821 100.61088 
L 228.081534 100.44576 
L 231.135293 100.94112 
L 234.156715 101.09592 
L 237.157451 101.00304 
L 240.162059 100.69344 
L 243.188225 100.9308 
L 246.210171 100.92048 
L 249.188163 100.81728 
L 252.249003 100.8792 
L 255.295437 100.64184 
L 258.315708 101.1888 
L 261.321433 101.09592 
L 264.340448 101.37456 
L 267.387335 101.21976 
L 270.324373 101.20944 
L 273.399516 101.23008 
L 276.412427 100.92048 
L 279.36 101.06496 
" clip-path="url(#p511f8e238b)" style="fill: none; stroke: #bebebe; stroke-width: 0.5; stroke-linecap: round"/>
   </g>
   <g id="line2d_6">
    <path d="M 8.64 85.84296 
L 11.035154 88.25784 
L 14.047576 91.41576 
L 17.048626 88.7532 
L 20.131478 88.65 
L 23.120563 88.55712 
L 26.151718 88.96992 
L 29.159431 89.7336 
L 32.162539 90.456 
L 35.175589 90.56952 
L 38.153302 89.15568 
L 41.008224 88.9596 
L 44.215506 90.6624 
L 46.85087 89.94 
L 50.238641 90.00192 
L 53.248935 90.3528 
L 56.245276 90.62112 
L 59.240814 90.5076 
L 62.289202 90.3528 
L 65.312229 92.004 
L 68.071569 92.13816 
L 71.329294 91.25064 
L 74.32982 89.166 
L 77.338056 89.56848 
L 80.316502 90.93072 
L 83.398936 89.41368 
L 86.381776 90.37344 
L 89.402745 89.79552 
L 92.399818 90.23928 
L 95.420263 88.0824 
L 98.43279 88.7532 
L 101.423619 90.16704 
L 104.466844 90.67272 
L 107.489836 90.18768 
L 110.484432 89.2692 
L 113.497203 89.54784 
L 116.52302 89.49624 
L 119.531152 88.31976 
L 122.541097 88.45392 
L 125.612717 88.46424 
L 128.635186 86.38992 
L 131.596398 84.80064 
L 134.633344 84.8316 
L 137.648138 86.586 
L 140.632758 87.74184 
L 143.629064 87.618 
L 146.68809 88.19592 
L 149.709129 89.08344 
L 152.695179 87.89664 
L 155.933613 87.3084 
L 158.759755 87.65928 
L 161.777515 88.96992 
L 164.762658 90.07416 
L 167.817673 89.76456 
L 170.840246 89.3724 
L 173.835192 89.00088 
L 176.874997 88.42296 
L 179.849257 88.81512 
L 182.866667 89.10408 
L 185.85481 89.14536 
L 188.914151 89.07312 
L 191.935887 87.9792 
L 194.930274 88.29912 
L 197.949115 86.38992 
L 200.952572 87.24648 
L 203.994261 87.1536 
L 206.962137 86.21448 
L 210.030164 86.66856 
L 213.059574 87.01944 
L 216.054345 84.44976 
L 219.066 85.05864 
L 222.093003 84.58392 
L 225.100821 85.04832 
L 228.081534 83.71704 
L 231.135293 84.86256 
L 234.156715 85.6572 
L 237.157451 85.27536 
L 240.162059 84.49104 
L 243.188225 84.86256 
L 246.210171 85.32696 
L 249.188163 85.17216 
L 252.249003 85.31664 
L 255.295437 84.11952 
L 258.315708 85.66752 
L 261.321433 85.26504 
L 264.340448 86.26608 
L 267.387335 85.77072 
L 270.324373 85.38888 
L 273.399516 85.3992 
L 276.412427 84.09888 
L 279.36 84.22272 
" clip-path="url(#p511f8e238b)" style="fill: none; stroke: #4a8dff; stroke-width: 0.6"/>
   </g>
   <g id="line2d_7">
    <path d="M 8.64 97.71096 
L 11.035154 99.80592 
L 14.047576 101.79768 
L 17.048626 100.03296 
L 20.131478 100.518 
L 23.120563 99.98136 
L 26.151718 100.49736 
L 29.159431 100.78632 
L 32.162539 101.07528 
L 35.175589 101.26104 
L 38.153302 100.63152 
L 41.008224 100.38384 
L 44.215506 100.84824 
L 46.85087 100.65216 
L 50.238641 101.034 
L 53.248935 101.19912 
L 56.245276 101.10624 
L 59.240814 100.97208 
L 62.289202 100.91016 
L 65.312229 101.7564 
L 68.071569 101.84928 
L 71.329294 101.56032 
L 74.32982 100.85856 
L 77.338056 101.12688 
L 80.316502 101.4468 
L 83.398936 101.02368 
L 86.381776 101.30232 
L 89.402745 100.81728 
L 92.399818 100.79664 
L 95.420263 99.3312 
L 98.43279 99.92976 
L 101.423619 100.78632 
L 104.466844 101.17848 
L 107.489836 101.1372 
L 110.484432 100.21872 
L 113.497203 100.37352 
L 116.52302 100.4664 
L 119.531152 99.88848 
L 122.541097 99.94008 
L 125.612717 99.81624 
L 128.635186 98.93904 
L 131.596398 98.3508 
L 134.633344 98.52624 
L 137.648138 99.78528 
L 140.632758 100.12584 
L 143.629064 100.03296 
L 146.68809 100.45608 
L 149.709129 100.83792 
L 152.695179 100.11552 
L 155.933613 99.87816 
L 158.759755 100.002 
L 161.777515 100.64184 
L 164.762658 101.41584 
L 167.817673 101.21976 
L 170.840246 101.14752 
L 173.835192 101.00304 
L 176.874997 100.86888 
L 179.849257 101.21976 
L 182.866667 101.28168 
L 185.85481 101.20944 
L 188.914151 101.14752 
L 191.935887 100.55928 
L 194.930274 100.65216 
L 197.949115 99.80592 
L 200.952572 99.96072 
L 203.994261 99.6408 
L 206.962137 99.1764 
L 210.030164 99.70272 
L 213.059574 99.94008 
L 216.054345 98.57784 
L 219.066 98.65008 
L 222.093003 98.38176 
L 225.100821 98.48496 
L 228.081534 96.70992 
L 231.135293 98.05152 
L 234.156715 98.48496 
L 237.157451 97.96896 
L 240.162059 96.32808 
L 243.188225 96.20424 
L 246.210171 96.16296 
L 249.188163 96.1836 
L 252.249003 96.50352 
L 255.295437 94.76976 
L 258.315708 97.19496 
L 261.321433 96.9576 
L 264.340448 97.9896 
L 267.387335 96.89568 
L 270.324373 95.45088 
L 273.399516 95.67792 
L 276.412427 93.43848 
L 279.36 92.90184 
" clip-path="url(#p511f8e238b)" style="fill: none; stroke: #f5841e; stroke-width: 0.6"/>
   </g>
  </g>
 </g>
 <defs>
  <clipPath id="p511f8e238b">
   <rect x="8.64" y="4.8" width="270.72" height="103.2"/>
  </clipPath>
 </defs>
</svg>
