<?xml version="1.0" encoding="utf-8" standalone="no"?>
<!DOCTYPE svg PUBLIC "-//W3C//DTD SVG 1.1//EN"
  "http://www.w3.org/Graphics/SVG/1.1/DTD/svg11.dtd">
<svg xmlns:xlink="http://www.w3.org/1999/xlink" width="288pt" height="120pt" viewBox="0 0 288 120" xmlns="http://www.w3.org/2000/svg" version="1.1">
<desc id="nav-meta">{"window":"3m","count":4,"labels":["22.12","21.01","20.02","22.03"],"tick_utc":["2025-12-22T12:00:00Z","2026-01-21T12:00:00Z","2026-02-20T03:20:24Z","2026-03-22T03:31:55Z"],"w":720,"h":300}</desc>

 <metadata>
  <rdf:RDF xmlns:dc="http://purl.org/dc/elements/1.1/" xmlns:cc="http://creativecommons.org/ns#" xmlns:rdf="http://www.w3.org/1999/02/22-rdf-syntax-ns#">
   <cc:Work>
    <dc:type rdf:resource="http://purl.org/dc/dcmitype/StillImage"/>
    <dc:date>2026-03-22T03:31:57.983721</dc:date>
    <dc:format>image/svg+xml</dc:format>
    <dc:creator>
     <cc:Agent>
      <dc:title>Matplotlib v3.10.8, https://matplotlib.org/</dc:title>
     </cc:Agent>
    </dc:creator>
   </cc:Work>
  </rdf:RDF>
 </metadata>
 <defs>
  <style type="text/css">*{stroke-linejoin: round; stroke-linecap: butt}</style>
 </defs>
 <g id="figure_1">
  <g id="patch_1">
   <path d="M 0 120 
L 288 120 
L 288 0 
L 0 0 
L 0 120 
z
" style="fill: none; opacity: 0"/>
  </g>
  <g id="axes_1">
   <g id="patch_2">
    <path d="M 8.64 108 
L 279.36 108 
L 279.36 4.8 
L 8.64 4.8 
L 8.64 108 
z
" style="fill: none"/>
   </g>
   <g id="matplotlib.axis_1"/>
   <g id="matplotlib.axis_2"/>
   <g id="line2d_1">
    <path d="M 8.64 87.36 
L 279.36 87.36 
" clip-path="url(#pf274ceb297)" style="fill: none; stroke: #b2b2b2; stroke-opacity: 0.35; stroke-width: 0.5; stroke-linecap: square"/>
   </g>
   <g id="line2d_2">
    <path d="M 8.64 66.72 
L 279.36 66.72 
" clip-path="url(#pf274ceb297)" style="fill: none; stroke: #b2b2b2; stroke-opacity: 0.35; stroke-width: 0.5; stroke-linecap: square"/>
   </g>
   <g id="line2d_3">
    <path d="M 8.64 46.08 
L 279.36 46.08 
" clip-path="url(#pf274ceb297)" style="fill: none; stroke: #b2b2b2; stroke-opacity: 0.35; stroke-width: 0.5; stroke-linecap: square"/>
   </g>
   <g id="line2d_4">
    <path d="M 8.64 25.44 
L 279.36 25.44 
" clip-path="url(#pf274ceb297)" style="fill: none; stroke: #b2b2b2; stroke-opacity: 0.35; stroke-width: 0.5; stroke-linecap: square"/>
   </g>
   <g id="line2d_5">
    <path d="M 8.64 92.07624 
L 11.659839 92.14848 
L 14.679678 92.64384 
L 17.699517 93.01536 
L 20.719356 93.69648 
L 23.739195 93.11856 
L 26.759034 92.44776 
L 29.778873 92.30328 
L 32.798712 92.87088 
L 35.818551 92.38584 
L 38.83839 92.47872 
L 41.858229 91.88016 
L 44.878068 90.42504 
L 47.897907 90.08448 
L 50.917746 89.92968 
L 53.937584 88.76352 
L 56.957423 87.94824 
L 59.977262 89.2692 
L 62.997101 88.72224 
L 66.01694 89.39304 
L 69.036779 89.40336 
L 72.056618 88.41264 
L 75.076457 88.4952 
L 78.096296 86.86464 
L 81.116135 86.42088 
L 84.135974 87.62832 
L 87.155813 86.93688 
L 90.175652 87.23616 
L 93.195491 88.63968 
L 96.21533 90.0432 
L 99.235169 92.12784 
L 102.255008 91.16808 
L 105.274847 91.46736 
L 108.294686 91.73568 
L 111.314525 91.78728 
L 114.334364 94.0164 
L 117.354203 92.5716 
L 120.374042 91.76664 
L 123.393881 92.33424 
L 126.41372 94.36728 
L 129.433559 94.46016 
L 132.453398 97.71096 
L 135.473237 98.48496 
L 138.493075 97.85544 
L 141.042498 99.10416 
L 143.442326 100.16712 
L 146.460627 102.23112 
L 149.467534 100.54896 
L 152.556403 100.70376 
L 155.551321 100.68312 
L 158.588391 100.95144 
L 161.601974 101.28168 
L 164.610943 101.71512 
L 167.629873 101.84928 
L 170.613397 101.034 
L 173.47389 100.54896 
L 176.687432 101.04432 
L 179.327939 100.81728 
L 182.722322 101.034 
L 185.738491 101.4984 
L 188.740679 101.33328 
L 191.742064 101.1372 
L 194.7964 101.06496 
L 197.825327 102.09696 
L 200.590052 102.05568 
L 203.854135 101.4984 
L 206.860517 100.60056 
L 209.874624 100.80696 
L 212.858882 101.45712 
L 215.947331 100.55928 
L 218.935993 101.10624 
L 221.962858 100.8792 
L 224.96578 100.74504 
L 227.99212 100.21872 
L 231.010526 100.53864 
L 234.007192 101.07528 
L 237.056355 101.38488 
L 240.085247 101.26104 
L 243.085687 100.78632 
L 246.104338 100.91016 
L 249.136061 100.99272 
L 252.150063 100.38384 
L 255.165882 100.50768 
L 258.243496 100.60056 
L 261.271864 99.76464 
L 264.238855 99.49632 
L 267.281728 99.40344 
L 270.302405 100.09488 
L 273.29285 100.3632 
L 276.295003 100.19808 
L 279.36 100.47672 
" clip-path="url(#pf274ceb297)" style="fill: none; stroke: #bebebe; stroke-width: 0.5; stroke-linecap: round"/>
   </g>
   <g id="line2d_6">
    <path d="M 8.64 75.04824 
L 11.659839 74.98632 
L 14.679678 75.58488 
L 17.699517 75.87384 
L 20.719356 76.49304 
L 23.739195 76.15248 
L 26.759034 75.82224 
L 29.778873 75.84288 
L 32.798712 76.03896 
L 35.818551 75.51264 
L 38.83839 75.56424 
L 41.858229 75.05856 
L 44.878068 73.26288 
L 47.897907 73.20096 
L 50.917746 73.00488 
L 53.937584 71.68392 
L 56.957423 70.6932 
L 59.977262 72.62304 
L 62.997101 73.52088 
L 66.01694 73.83048 
L 69.036779 73.8408 
L 72.056618 73.29384 
L 75.076457 73.72728 
L 78.096296 70.32168 
L 81.116135 69.77472 
L 84.135974 70.34232 
L 87.155813 70.67256 
L 90.175652 70.51776 
L 93.195491 70.848 
L 96.21533 72.31344 
L 99.235169 76.01832 
L 102.255008 75.41976 
L 105.274847 75.83256 
L 108.294686 75.79128 
L 111.314525 75.82224 
L 114.334364 77.82432 
L 117.354203 76.14216 
L 120.374042 74.75928 
L 123.393881 74.96568 
L 126.41372 77.75208 
L 129.433559 79.48584 
L 132.453398 83.31456 
L 135.473237 85.90488 
L 138.493075 84.79032 
L 141.042498 85.84296 
L 143.442326 88.25784 
L 146.460627 91.41576 
L 149.467534 88.7532 
L 152.556403 88.65 
L 155.551321 88.55712 
L 158.588391 88.96992 
L 161.601974 89.7336 
L 164.610943 90.456 
L 167.629873 90.56952 
L 170.613397 89.15568 
L 173.47389 88.9596 
L 176.687432 90.6624 
L 179.327939 89.94 
L 182.722322 90.00192 
L 185.738491 90.3528 
L 188.740679 90.62112 
L 191.742064 90.5076 
L 194.7964 90.3528 
L 197.825327 92.004 
L 200.590052 92.13816 
L 203.854135 91.25064 
L 206.860517 89.166 
L 209.874624 89.56848 
L 212.858882 90.93072 
L 215.947331 89.41368 
L 218.935993 90.37344 
L 221.962858 89.79552 
L 224.96578 90.23928 
L 227.99212 88.0824 
L 231.010526 88.7532 
L 234.007192 90.16704 
L 237.056355 90.67272 
L 240.085247 90.18768 
L 243.085687 89.2692 
L 246.104338 89.54784 
L 249.136061 89.49624 
L 252.150063 88.31976 
L 255.165882 88.45392 
L 258.243496 88.46424 
L 261.271864 86.38992 
L 264.238855 84.80064 
L 267.281728 84.8316 
L 270.302405 86.586 
L 273.29285 87.74184 
L 276.295003 87.618 
L 279.36 88.19592 
" clip-path="url(#pf274ceb297)" style="fill: none; stroke: #4a8dff; stroke-width: 0.6"/>
   </g>
   <g id="line2d_7">
    <path d="M 8.64 84.9348 
L 11.659839 85.01736 
L 14.679678 86.14224 
L 17.699517 85.90488 
L 20.719356 86.328 
L 23.739195 86.24544 
L 26.759034 85.72944 
L 29.778873 85.7088 
L 32.798712 86.40024 
L 35.818551 85.09992 
L 38.83839 86.02872 
L 41.858229 84.78 
L 44.878068 83.53128 
L 47.897907 82.83984 
L 50.917746 82.03488 
L 53.937584 79.39296 
L 56.957423 79.66128 
L 59.977262 82.15872 
L 62.997101 82.43736 
L 66.01694 82.93272 
L 69.036779 83.00496 
L 72.056618 82.6128 
L 75.076457 82.28256 
L 78.096296 78.01008 
L 81.116135 76.19376 
L 84.135974 77.66952 
L 87.155813 77.74176 
L 90.175652 78.1752 
L 93.195491 79.5684 
L 96.21533 80.8068 
L 99.235169 85.20312 
L 102.255008 84.12984 
L 105.274847 84.03696 
L 108.294686 84.06792 
L 111.314525 84.3156 
L 114.334364 87.02976 
L 117.354203 85.21344 
L 120.374042 84.28464 
L 123.393881 84.32592 
L 126.41372 89.08344 
L 129.433559 89.5272 
L 132.453398 95.14128 
L 135.473237 96.98856 
L 138.493075 95.08968 
L 141.042498 97.71096 
L 143.442326 99.80592 
L 146.460627 101.79768 
L 149.467534 100.03296 
L 152.556403 100.518 
L 155.551321 99.98136 
L 158.588391 100.49736 
L 161.601974 100.78632 
L 164.610943 101.07528 
L 167.629873 101.26104 
L 170.613397 100.63152 
L 173.47389 100.38384 
L 176.687432 100.84824 
L 179.327939 100.65216 
L 182.722322 101.034 
L 185.738491 101.19912 
L 188.740679 101.10624 
L 191.742064 100.97208 
L 194.7964 100.91016 
L 197.825327 101.7564 
L 200.590052 101.84928 
L 203.854135 101.56032 
L 206.860517 100.85856 
L 209.874624 101.12688 
L 212.858882 101.4468 
L 215.947331 101.02368 
L 218.935993 101.30232 
L 221.962858 100.81728 
L 224.96578 100.79664 
L 227.99212 99.3312 
L 231.010526 99.92976 
L 234.007192 100.78632 
L 237.056355 101.17848 
L 240.085247 101.1372 
L 243.085687 100.21872 
L 246.104338 100.37352 
L 249.136061 100.4664 
L 252.150063 99.88848 
L 255.165882 99.94008 
L 258.243496 99.81624 
L 261.271864 98.93904 
L 264.238855 98.3508 
L 267.281728 98.52624 
L 270.302405 99.78528 
L 273.29285 100.12584 
L 276.295003 100.03296 
L 279.36 100.45608 
" clip-path="url(#pf274ceb297)" style="fill: none; stroke: #f5841e; stroke-width: 0.6"/>
   </g>
  </g>
 </g>
 <defs>
  <clipPath id="pf274ceb297">
   <rect x="8.64" y="4.8" width="270.72" height="103.2"/>
  </clipPath>
 </defs>
</svg>
