<?xml version="1.0" encoding="utf-8" standalone="no"?>
<!DOCTYPE svg PUBLIC "-//W3C//DTD SVG 1.1//EN"
  "http://www.w3.org/Graphics/SVG/1.1/DTD/svg11.dtd">
<svg xmlns:xlink="http://www.w3.org/1999/xlink" width="288pt" height="120pt" viewBox="0 0 288 120" xmlns="http://www.w3.org/2000/svg" version="1.1">
<desc id="nav-meta">{"window":"2w","count":4,"labels":["20.06","24.06","29.06","03.07"],"tick_utc":["2026-06-20T04:59:26Z","2026-06-24T04:50:37Z","2026-06-29T05:17:50Z","2026-07-03T04:30:06Z"],"w":720,"h":300}</desc>

 <metadata>
  <rdf:RDF xmlns:dc="http://purl.org/dc/elements/1.1/" xmlns:cc="http://creativecommons.org/ns#" xmlns:rdf="http://www.w3.org/1999/02/22-rdf-syntax-ns#">
   <cc:Work>
    <dc:type rdf:resource="http://purl.org/dc/dcmitype/StillImage"/>
    <dc:date>2026-07-03T20:02:37.949721</dc:date>
    <dc:format>image/svg+xml</dc:format>
    <dc:creator>
     <cc:Agent>
      <dc:title>Matplotlib v3.11.0, https://matplotlib.org/</dc:title>
     </cc:Agent>
    </dc:creator>
   </cc:Work>
  </rdf:RDF>
 </metadata>
 <defs>
  <style type="text/css">*{stroke-linejoin: round; stroke-linecap: butt}</style>
 </defs>
 <g id="figure_1">
  <g id="patch_1">
   <path d="M 0 120 
L 288 120 
L 288 0 
L 0 0 
L 0 120 
z
" style="fill: none; opacity: 0"/>
  </g>
  <g id="axes_1">
   <g id="patch_2">
    <path d="M 8.64 108 
L 279.36 108 
L 279.36 4.8 
L 8.64 4.8 
L 8.64 108 
z
" style="fill: none"/>
   </g>
   <g id="matplotlib.axis_1"/>
   <g id="matplotlib.axis_2"/>
   <g id="line2d_1">
    <path d="M 8.64 87.36 
L 279.36 87.36 
" clip-path="url(#p5562917547)" style="fill: none; stroke: #b2b2b2; stroke-opacity: 0.35; stroke-width: 0.5; stroke-linecap: square"/>
   </g>
   <g id="line2d_2">
    <path d="M 8.64 66.72 
L 279.36 66.72 
" clip-path="url(#p5562917547)" style="fill: none; stroke: #b2b2b2; stroke-opacity: 0.35; stroke-width: 0.5; stroke-linecap: square"/>
   </g>
   <g id="line2d_3">
    <path d="M 8.64 46.08 
L 279.36 46.08 
" clip-path="url(#p5562917547)" style="fill: none; stroke: #b2b2b2; stroke-opacity: 0.35; stroke-width: 0.5; stroke-linecap: square"/>
   </g>
   <g id="line2d_4">
    <path d="M 8.64 25.44 
L 279.36 25.44 
" clip-path="url(#p5562917547)" style="fill: none; stroke: #b2b2b2; stroke-opacity: 0.35; stroke-width: 0.5; stroke-linecap: square"/>
   </g>
   <g id="line2d_5">
    <path d="M 8.64 103.01544 
L 29.931342 102.69552 
L 51.39915 102.582 
L 71.009597 102.88128 
L 91.941488 103.15992 
L 112.793234 103.36632 
L 133.757474 103.36632 
L 154.359125 102.81936 
L 175.614015 103.0464 
L 196.62219 102.9432 
L 217.075136 102.59232 
L 238.237568 102.40656 
L 258.729622 102.02472 
L 279.36 101.68416 
" clip-path="url(#p5562917547)" style="fill: none; stroke: #bebebe; stroke-width: 0.5; stroke-linecap: round"/>
   </g>
   <g id="line2d_6">
    <path d="M 8.64 94.19184 
L 29.931342 93.87192 
L 51.39915 93.81 
L 71.009597 94.03704 
L 91.941488 94.83168 
L 112.793234 95.48184 
L 133.757474 96.63768 
L 154.359125 96.14232 
L 175.614015 96.30744 
L 196.62219 96.29712 
L 217.075136 96.04944 
L 238.237568 95.9256 
L 258.729622 95.39928 
L 279.36 94.31568 
" clip-path="url(#p5562917547)" style="fill: none; stroke: #4a8dff; stroke-width: 0.6"/>
   </g>
   <g id="line2d_7">
    <path d="M 8.64 102.066 
L 29.931342 101.90088 
L 51.39915 101.90088 
L 71.009597 102.0144 
L 91.941488 102.25176 
L 112.793234 102.6336 
L 133.757474 102.88128 
L 154.359125 102.77808 
L 175.614015 102.85032 
L 196.62219 102.93288 
L 217.075136 102.95352 
L 238.237568 103.00512 
L 258.729622 102.69552 
L 279.36 102.55104 
" clip-path="url(#p5562917547)" style="fill: none; stroke: #f5841e; stroke-width: 0.6"/>
   </g>
  </g>
 </g>
 <defs>
  <clipPath id="p5562917547">
   <rect x="8.64" y="4.8" width="270.72" height="103.2"/>
  </clipPath>
 </defs>
</svg>
