<?xml version="1.0" encoding="utf-8" standalone="no"?>
<!DOCTYPE svg PUBLIC "-//W3C//DTD SVG 1.1//EN"
  "http://www.w3.org/Graphics/SVG/1.1/DTD/svg11.dtd">
<svg xmlns:xlink="http://www.w3.org/1999/xlink" width="288pt" height="120pt" viewBox="0 0 288 120" xmlns="http://www.w3.org/2000/svg" version="1.1">
<desc id="nav-meta">{"window":"3m","count":4,"labels":["31.01","02.03","01.04","01.05"],"tick_utc":["2026-01-31T12:00:00Z","2026-03-02T03:18:56Z","2026-04-01T03:54:32Z","2026-05-01T04:39:16Z"],"w":720,"h":300}</desc>

 <metadata>
  <rdf:RDF xmlns:dc="http://purl.org/dc/elements/1.1/" xmlns:cc="http://creativecommons.org/ns#" xmlns:rdf="http://www.w3.org/1999/02/22-rdf-syntax-ns#">
   <cc:Work>
    <dc:type rdf:resource="http://purl.org/dc/dcmitype/StillImage"/>
    <dc:date>2026-05-01T04:39:18.353750</dc:date>
    <dc:format>image/svg+xml</dc:format>
    <dc:creator>
     <cc:Agent>
      <dc:title>Matplotlib v3.10.9, https://matplotlib.org/</dc:title>
     </cc:Agent>
    </dc:creator>
   </cc:Work>
  </rdf:RDF>
 </metadata>
 <defs>
  <style type="text/css">*{stroke-linejoin: round; stroke-linecap: butt}</style>
 </defs>
 <g id="figure_1">
  <g id="patch_1">
   <path d="M 0 120 
L 288 120 
L 288 0 
L 0 0 
L 0 120 
z
" style="fill: none; opacity: 0"/>
  </g>
  <g id="axes_1">
   <g id="patch_2">
    <path d="M 8.64 108 
L 279.36 108 
L 279.36 4.8 
L 8.64 4.8 
L 8.64 108 
z
" style="fill: none"/>
   </g>
   <g id="matplotlib.axis_1"/>
   <g id="matplotlib.axis_2"/>
   <g id="line2d_1">
    <path d="M 8.64 87.36 
L 279.36 87.36 
" clip-path="url(#p9b73b84032)" style="fill: none; stroke: #b2b2b2; stroke-opacity: 0.35; stroke-width: 0.5; stroke-linecap: square"/>
   </g>
   <g id="line2d_2">
    <path d="M 8.64 66.72 
L 279.36 66.72 
" clip-path="url(#p9b73b84032)" style="fill: none; stroke: #b2b2b2; stroke-opacity: 0.35; stroke-width: 0.5; stroke-linecap: square"/>
   </g>
   <g id="line2d_3">
    <path d="M 8.64 46.08 
L 279.36 46.08 
" clip-path="url(#p9b73b84032)" style="fill: none; stroke: #b2b2b2; stroke-opacity: 0.35; stroke-width: 0.5; stroke-linecap: square"/>
   </g>
   <g id="line2d_4">
    <path d="M 8.64 25.44 
L 279.36 25.44 
" clip-path="url(#p9b73b84032)" style="fill: none; stroke: #b2b2b2; stroke-opacity: 0.35; stroke-width: 0.5; stroke-linecap: square"/>
   </g>
   <g id="line2d_5">
    <path d="M 8.64 94.46016 
L 11.658264 97.71096 
L 14.676529 98.48496 
L 17.694793 97.85544 
L 20.242886 99.10416 
L 22.641462 100.16712 
L 25.65819 102.23112 
L 28.663528 100.54896 
L 31.750787 100.70376 
L 34.744143 100.68312 
L 37.77963 100.95144 
L 40.791641 101.28168 
L 43.799041 101.71512 
L 46.816397 101.84928 
L 49.798365 101.034 
L 52.657367 100.54896 
L 55.869233 101.04432 
L 58.508363 100.81728 
L 61.900976 101.034 
L 64.915572 101.4984 
L 67.916195 101.33328 
L 70.916014 101.1372 
L 73.968758 101.06496 
L 76.996105 102.09696 
L 79.759389 102.05568 
L 83.021769 101.4984 
L 86.026584 100.60056 
L 89.039119 100.80696 
L 92.021821 101.45712 
L 95.10866 100.55928 
L 98.095764 101.10624 
L 101.12105 100.8792 
L 104.122406 100.74504 
L 107.147168 100.21872 
L 110.164 100.53864 
L 113.159103 101.07528 
L 116.206677 101.38488 
L 119.233989 101.26104 
L 122.232865 100.78632 
L 125.249941 100.91016 
L 128.280083 100.99272 
L 131.292514 100.38384 
L 134.30676 100.50768 
L 137.38277 100.60056 
L 140.409558 99.76464 
L 143.375003 99.49632 
L 146.416288 99.40344 
L 149.435391 100.09488 
L 152.424276 100.3632 
L 155.424864 100.19808 
L 158.488262 100.47672 
L 161.513618 100.79664 
L 164.503936 100.26 
L 167.746998 99.83688 
L 170.577179 100.13616 
L 173.599251 100.80696 
L 176.58866 101.38488 
L 179.648042 101.3436 
L 182.674934 101.292 
L 185.67416 101.28168 
L 188.71831 101.28168 
L 191.69682 101.8596 
L 194.718543 101.88024 
L 197.710956 101.72544 
L 200.774669 101.68416 
L 203.800723 101.47776 
L 206.79939 101.78736 
L 209.822545 101.09592 
L 212.830294 101.46744 
L 215.876331 101.3436 
L 218.848448 101.05464 
L 221.920859 101.3952 
L 224.954599 101.47776 
L 227.95365 100.86888 
L 230.969608 101.26104 
L 234.000938 100.99272 
L 237.013054 100.61088 
L 239.998026 100.44576 
L 243.05615 100.94112 
L 246.08189 101.09592 
L 249.086914 101.00304 
L 252.095816 100.69344 
L 255.126307 100.9308 
L 258.152571 100.92048 
L 261.134819 100.81728 
L 264.200034 100.8792 
L 267.250822 100.64184 
L 270.275409 101.1888 
L 273.285429 101.09592 
L 276.308758 101.37456 
L 279.36 101.21976 
" clip-path="url(#p9b73b84032)" style="fill: none; stroke: #bebebe; stroke-width: 0.5; stroke-linecap: round"/>
   </g>
   <g id="line2d_6">
    <path d="M 8.64 79.48584 
L 11.658264 83.31456 
L 14.676529 85.90488 
L 17.694793 84.79032 
L 20.242886 85.84296 
L 22.641462 88.25784 
L 25.65819 91.41576 
L 28.663528 88.7532 
L 31.750787 88.65 
L 34.744143 88.55712 
L 37.77963 88.96992 
L 40.791641 89.7336 
L 43.799041 90.456 
L 46.816397 90.56952 
L 49.798365 89.15568 
L 52.657367 88.9596 
L 55.869233 90.6624 
L 58.508363 89.94 
L 61.900976 90.00192 
L 64.915572 90.3528 
L 67.916195 90.62112 
L 70.916014 90.5076 
L 73.968758 90.3528 
L 76.996105 92.004 
L 79.759389 92.13816 
L 83.021769 91.25064 
L 86.026584 89.166 
L 89.039119 89.56848 
L 92.021821 90.93072 
L 95.10866 89.41368 
L 98.095764 90.37344 
L 101.12105 89.79552 
L 104.122406 90.23928 
L 107.147168 88.0824 
L 110.164 88.7532 
L 113.159103 90.16704 
L 116.206677 90.67272 
L 119.233989 90.18768 
L 122.232865 89.2692 
L 125.249941 89.54784 
L 128.280083 89.49624 
L 131.292514 88.31976 
L 134.30676 88.45392 
L 137.38277 88.46424 
L 140.409558 86.38992 
L 143.375003 84.80064 
L 146.416288 84.8316 
L 149.435391 86.586 
L 152.424276 87.74184 
L 155.424864 87.618 
L 158.488262 88.19592 
L 161.513618 89.08344 
L 164.503936 87.89664 
L 167.746998 87.3084 
L 170.577179 87.65928 
L 173.599251 88.96992 
L 176.58866 90.07416 
L 179.648042 89.76456 
L 182.674934 89.3724 
L 185.67416 89.00088 
L 188.71831 88.42296 
L 191.69682 88.81512 
L 194.718543 89.10408 
L 197.710956 89.14536 
L 200.774669 89.07312 
L 203.800723 87.9792 
L 206.79939 88.29912 
L 209.822545 86.38992 
L 212.830294 87.24648 
L 215.876331 87.1536 
L 218.848448 86.21448 
L 221.920859 86.66856 
L 224.954599 87.01944 
L 227.95365 84.44976 
L 230.969608 85.05864 
L 234.000938 84.58392 
L 237.013054 85.04832 
L 239.998026 83.71704 
L 243.05615 84.86256 
L 246.08189 85.6572 
L 249.086914 85.27536 
L 252.095816 84.49104 
L 255.126307 84.86256 
L 258.152571 85.32696 
L 261.134819 85.17216 
L 264.200034 85.31664 
L 267.250822 84.11952 
L 270.275409 85.66752 
L 273.285429 85.26504 
L 276.308758 86.26608 
L 279.36 85.77072 
" clip-path="url(#p9b73b84032)" style="fill: none; stroke: #4a8dff; stroke-width: 0.6"/>
   </g>
   <g id="line2d_7">
    <path d="M 8.64 89.5272 
L 11.658264 95.14128 
L 14.676529 96.98856 
L 17.694793 95.08968 
L 20.242886 97.71096 
L 22.641462 99.80592 
L 25.65819 101.79768 
L 28.663528 100.03296 
L 31.750787 100.518 
L 34.744143 99.98136 
L 37.77963 100.49736 
L 40.791641 100.78632 
L 43.799041 101.07528 
L 46.816397 101.26104 
L 49.798365 100.63152 
L 52.657367 100.38384 
L 55.869233 100.84824 
L 58.508363 100.65216 
L 61.900976 101.034 
L 64.915572 101.19912 
L 67.916195 101.10624 
L 70.916014 100.97208 
L 73.968758 100.91016 
L 76.996105 101.7564 
L 79.759389 101.84928 
L 83.021769 101.56032 
L 86.026584 100.85856 
L 89.039119 101.12688 
L 92.021821 101.4468 
L 95.10866 101.02368 
L 98.095764 101.30232 
L 101.12105 100.81728 
L 104.122406 100.79664 
L 107.147168 99.3312 
L 110.164 99.92976 
L 113.159103 100.78632 
L 116.206677 101.17848 
L 119.233989 101.1372 
L 122.232865 100.21872 
L 125.249941 100.37352 
L 128.280083 100.4664 
L 131.292514 99.88848 
L 134.30676 99.94008 
L 137.38277 99.81624 
L 140.409558 98.93904 
L 143.375003 98.3508 
L 146.416288 98.52624 
L 149.435391 99.78528 
L 152.424276 100.12584 
L 155.424864 100.03296 
L 158.488262 100.45608 
L 161.513618 100.83792 
L 164.503936 100.11552 
L 167.746998 99.87816 
L 170.577179 100.002 
L 173.599251 100.64184 
L 176.58866 101.41584 
L 179.648042 101.21976 
L 182.674934 101.14752 
L 185.67416 101.00304 
L 188.71831 100.86888 
L 191.69682 101.21976 
L 194.718543 101.28168 
L 197.710956 101.20944 
L 200.774669 101.14752 
L 203.800723 100.55928 
L 206.79939 100.65216 
L 209.822545 99.80592 
L 212.830294 99.96072 
L 215.876331 99.6408 
L 218.848448 99.1764 
L 221.920859 99.70272 
L 224.954599 99.94008 
L 227.95365 98.57784 
L 230.969608 98.65008 
L 234.000938 98.38176 
L 237.013054 98.48496 
L 239.998026 96.70992 
L 243.05615 98.05152 
L 246.08189 98.48496 
L 249.086914 97.96896 
L 252.095816 96.32808 
L 255.126307 96.20424 
L 258.152571 96.16296 
L 261.134819 96.1836 
L 264.200034 96.50352 
L 267.250822 94.76976 
L 270.275409 97.19496 
L 273.285429 96.9576 
L 276.308758 97.9896 
L 279.36 96.89568 
" clip-path="url(#p9b73b84032)" style="fill: none; stroke: #f5841e; stroke-width: 0.6"/>
   </g>
  </g>
 </g>
 <defs>
  <clipPath id="p9b73b84032">
   <rect x="8.64" y="4.8" width="270.72" height="103.2"/>
  </clipPath>
 </defs>
</svg>
