<?xml version="1.0" encoding="utf-8" standalone="no"?>
<!DOCTYPE svg PUBLIC "-//W3C//DTD SVG 1.1//EN"
  "http://www.w3.org/Graphics/SVG/1.1/DTD/svg11.dtd">
<svg xmlns:xlink="http://www.w3.org/1999/xlink" width="288pt" height="120pt" viewBox="0 0 288 120" xmlns="http://www.w3.org/2000/svg" version="1.1">
<desc id="nav-meta">{"window":"1m","count":4,"labels":["03.06","13.06","23.06","03.07"],"tick_utc":["2026-06-03T05:31:47Z","2026-06-13T05:09:20Z","2026-06-23T04:45:28Z","2026-07-03T04:30:06Z"],"w":720,"h":300}</desc>

 <metadata>
  <rdf:RDF xmlns:dc="http://purl.org/dc/elements/1.1/" xmlns:cc="http://creativecommons.org/ns#" xmlns:rdf="http://www.w3.org/1999/02/22-rdf-syntax-ns#">
   <cc:Work>
    <dc:type rdf:resource="http://purl.org/dc/dcmitype/StillImage"/>
    <dc:date>2026-07-03T04:30:08.774283</dc:date>
    <dc:format>image/svg+xml</dc:format>
    <dc:creator>
     <cc:Agent>
      <dc:title>Matplotlib v3.11.0, https://matplotlib.org/</dc:title>
     </cc:Agent>
    </dc:creator>
   </cc:Work>
  </rdf:RDF>
 </metadata>
 <defs>
  <style type="text/css">*{stroke-linejoin: round; stroke-linecap: butt}</style>
 </defs>
 <g id="figure_1">
  <g id="patch_1">
   <path d="M 0 120 
L 288 120 
L 288 0 
L 0 0 
L 0 120 
z
" style="fill: none; opacity: 0"/>
  </g>
  <g id="axes_1">
   <g id="patch_2">
    <path d="M 8.64 108 
L 279.36 108 
L 279.36 4.8 
L 8.64 4.8 
L 8.64 108 
z
" style="fill: none"/>
   </g>
   <g id="matplotlib.axis_1"/>
   <g id="matplotlib.axis_2"/>
   <g id="line2d_1">
    <path d="M 8.64 87.36 
L 279.36 87.36 
" clip-path="url(#pa8b7e4a158)" style="fill: none; stroke: #b2b2b2; stroke-opacity: 0.35; stroke-width: 0.5; stroke-linecap: square"/>
   </g>
   <g id="line2d_2">
    <path d="M 8.64 66.72 
L 279.36 66.72 
" clip-path="url(#pa8b7e4a158)" style="fill: none; stroke: #b2b2b2; stroke-opacity: 0.35; stroke-width: 0.5; stroke-linecap: square"/>
   </g>
   <g id="line2d_3">
    <path d="M 8.64 46.08 
L 279.36 46.08 
" clip-path="url(#pa8b7e4a158)" style="fill: none; stroke: #b2b2b2; stroke-opacity: 0.35; stroke-width: 0.5; stroke-linecap: square"/>
   </g>
   <g id="line2d_4">
    <path d="M 8.64 25.44 
L 279.36 25.44 
" clip-path="url(#pa8b7e4a158)" style="fill: none; stroke: #b2b2b2; stroke-opacity: 0.35; stroke-width: 0.5; stroke-linecap: square"/>
   </g>
   <g id="line2d_5">
    <path d="M 8.64 102.54072 
L 17.645944 103.08768 
L 26.53401 103.36632 
L 35.432013 104.22288 
L 44.663147 103.85136 
L 53.740005 103.68624 
L 62.604433 103.43856 
L 71.735053 103.81008 
L 80.824985 103.72752 
L 89.897346 103.50048 
L 98.868146 103.5108 
L 107.97063 103.31472 
L 117.307926 102.95352 
L 126.396395 102.61296 
L 135.145456 102.6336 
L 144.139057 102.9948 
L 153.388809 103.28376 
L 162.064341 103.01544 
L 171.289304 102.69552 
L 180.590725 102.582 
L 189.087402 102.88128 
L 198.156624 103.15992 
L 207.191122 103.36632 
L 216.274361 103.36632 
L 225.200499 102.81936 
L 234.409669 103.0464 
L 243.511943 102.9432 
L 252.373652 102.59232 
L 261.542762 102.40656 
L 270.421415 102.02472 
L 279.36 101.68416 
" clip-path="url(#pa8b7e4a158)" style="fill: none; stroke: #bebebe; stroke-width: 0.5; stroke-linecap: round"/>
   </g>
   <g id="line2d_6">
    <path d="M 8.64 91.99368 
L 17.645944 93.05664 
L 26.53401 93.74808 
L 35.432013 97.02984 
L 44.663147 95.93592 
L 53.740005 95.07936 
L 62.604433 94.46016 
L 71.735053 95.47152 
L 80.824985 95.11032 
L 89.897346 94.82136 
L 98.868146 94.8936 
L 107.97063 94.70784 
L 117.307926 94.04736 
L 126.396395 93.40752 
L 135.145456 92.9844 
L 144.139057 93.93384 
L 153.388809 94.4292 
L 162.064341 94.19184 
L 171.289304 93.87192 
L 180.590725 93.81 
L 189.087402 94.03704 
L 198.156624 94.83168 
L 207.191122 95.48184 
L 216.274361 96.63768 
L 225.200499 96.14232 
L 234.409669 96.30744 
L 243.511943 96.29712 
L 252.373652 96.04944 
L 261.542762 95.9256 
L 270.421415 95.39928 
L 279.36 94.31568 
" clip-path="url(#pa8b7e4a158)" style="fill: none; stroke: #4a8dff; stroke-width: 0.6"/>
   </g>
   <g id="line2d_7">
    <path d="M 8.64 101.23008 
L 17.645944 101.99376 
L 26.53401 102.08664 
L 35.432013 102.8916 
L 44.663147 102.45816 
L 53.740005 102.28272 
L 62.604433 102.10728 
L 71.735053 102.582 
L 80.824985 102.29304 
L 89.897346 102.08664 
L 98.868146 102.066 
L 107.97063 101.86992 
L 117.307926 101.48808 
L 126.396395 101.40552 
L 135.145456 101.4984 
L 144.139057 101.97312 
L 153.388809 102.26208 
L 162.064341 102.066 
L 171.289304 101.90088 
L 180.590725 101.90088 
L 189.087402 102.0144 
L 198.156624 102.25176 
L 207.191122 102.6336 
L 216.274361 102.88128 
L 225.200499 102.77808 
L 234.409669 102.85032 
L 243.511943 102.93288 
L 252.373652 102.95352 
L 261.542762 103.00512 
L 270.421415 102.69552 
L 279.36 102.55104 
" clip-path="url(#pa8b7e4a158)" style="fill: none; stroke: #f5841e; stroke-width: 0.6"/>
   </g>
  </g>
 </g>
 <defs>
  <clipPath id="pa8b7e4a158">
   <rect x="8.64" y="4.8" width="270.72" height="103.2"/>
  </clipPath>
 </defs>
</svg>
