<?xml version="1.0" encoding="utf-8" standalone="no"?>
<!DOCTYPE svg PUBLIC "-//W3C//DTD SVG 1.1//EN"
  "http://www.w3.org/Graphics/SVG/1.1/DTD/svg11.dtd">
<svg xmlns:xlink="http://www.w3.org/1999/xlink" width="288pt" height="120pt" viewBox="0 0 288 120" xmlns="http://www.w3.org/2000/svg" version="1.1">
<desc id="nav-meta">{"window":"1m","count":4,"labels":["27.05","06.06","15.06","25.06"],"tick_utc":["2026-05-27T05:03:21Z","2026-06-06T04:41:00Z","2026-06-15T06:07:39Z","2026-06-25T04:50:14Z"],"w":720,"h":300}</desc>

 <metadata>
  <rdf:RDF xmlns:dc="http://purl.org/dc/elements/1.1/" xmlns:cc="http://creativecommons.org/ns#" xmlns:rdf="http://www.w3.org/1999/02/22-rdf-syntax-ns#">
   <cc:Work>
    <dc:type rdf:resource="http://purl.org/dc/dcmitype/StillImage"/>
    <dc:date>2026-06-25T20:34:51.535118</dc:date>
    <dc:format>image/svg+xml</dc:format>
    <dc:creator>
     <cc:Agent>
      <dc:title>Matplotlib v3.11.0, https://matplotlib.org/</dc:title>
     </cc:Agent>
    </dc:creator>
   </cc:Work>
  </rdf:RDF>
 </metadata>
 <defs>
  <style type="text/css">*{stroke-linejoin: round; stroke-linecap: butt}</style>
 </defs>
 <g id="figure_1">
  <g id="patch_1">
   <path d="M 0 120 
L 288 120 
L 288 0 
L 0 0 
L 0 120 
z
" style="fill: none; opacity: 0"/>
  </g>
  <g id="axes_1">
   <g id="patch_2">
    <path d="M 8.64 108 
L 279.36 108 
L 279.36 4.8 
L 8.64 4.8 
L 8.64 108 
z
" style="fill: none"/>
   </g>
   <g id="matplotlib.axis_1"/>
   <g id="matplotlib.axis_2"/>
   <g id="line2d_1">
    <path d="M 8.64 87.36 
L 279.36 87.36 
" clip-path="url(#pc9f40e77de)" style="fill: none; stroke: #b2b2b2; stroke-opacity: 0.35; stroke-width: 0.5; stroke-linecap: square"/>
   </g>
   <g id="line2d_2">
    <path d="M 8.64 66.72 
L 279.36 66.72 
" clip-path="url(#pc9f40e77de)" style="fill: none; stroke: #b2b2b2; stroke-opacity: 0.35; stroke-width: 0.5; stroke-linecap: square"/>
   </g>
   <g id="line2d_3">
    <path d="M 8.64 46.08 
L 279.36 46.08 
" clip-path="url(#pc9f40e77de)" style="fill: none; stroke: #b2b2b2; stroke-opacity: 0.35; stroke-width: 0.5; stroke-linecap: square"/>
   </g>
   <g id="line2d_4">
    <path d="M 8.64 25.44 
L 279.36 25.44 
" clip-path="url(#pc9f40e77de)" style="fill: none; stroke: #b2b2b2; stroke-opacity: 0.35; stroke-width: 0.5; stroke-linecap: square"/>
   </g>
   <g id="line2d_5">
    <path d="M 8.64 101.2404 
L 17.948275 101.6532 
L 27.293298 101.4984 
L 36.496736 101.48808 
L 46.025494 101.32296 
L 55.501726 101.51904 
L 64.747964 101.7048 
L 74.191123 102.54072 
L 83.497237 103.08768 
L 92.681544 103.36632 
L 101.87612 104.22288 
L 111.41493 103.85136 
L 120.794322 103.68624 
L 129.954203 103.43856 
L 139.389148 103.81008 
L 148.78205 103.72752 
L 158.156795 103.50048 
L 167.426594 103.5108 
L 176.832465 103.31472 
L 186.480976 102.95352 
L 195.872365 102.61296 
L 204.913035 102.6336 
L 214.206395 102.9948 
L 223.764443 103.28376 
L 232.729133 103.01544 
L 242.261566 102.69552 
L 251.873006 102.582 
L 260.652878 102.88128 
L 270.02438 103.15992 
L 279.36 103.36632 
" clip-path="url(#pc9f40e77de)" style="fill: none; stroke: #bebebe; stroke-width: 0.5; stroke-linecap: round"/>
   </g>
   <g id="line2d_6">
    <path d="M 8.64 88.86672 
L 17.948275 90.22896 
L 27.293298 89.82648 
L 36.496736 89.87808 
L 46.025494 89.46528 
L 55.501726 90.0432 
L 64.747964 89.96064 
L 74.191123 91.99368 
L 83.497237 93.05664 
L 92.681544 93.74808 
L 101.87612 97.02984 
L 111.41493 95.93592 
L 120.794322 95.07936 
L 129.954203 94.46016 
L 139.389148 95.47152 
L 148.78205 95.11032 
L 158.156795 94.82136 
L 167.426594 94.8936 
L 176.832465 94.70784 
L 186.480976 94.04736 
L 195.872365 93.40752 
L 204.913035 92.9844 
L 214.206395 93.93384 
L 223.764443 94.4292 
L 232.729133 94.19184 
L 242.261566 93.87192 
L 251.873006 93.81 
L 260.652878 94.03704 
L 270.02438 94.83168 
L 279.36 95.48184 
" clip-path="url(#pc9f40e77de)" style="fill: none; stroke: #4a8dff; stroke-width: 0.6"/>
   </g>
   <g id="line2d_7">
    <path d="M 8.64 98.08248 
L 17.948275 99.18672 
L 27.293298 99.03192 
L 36.496736 99.1248 
L 46.025494 98.74296 
L 55.501726 99.09384 
L 64.747964 100.0536 
L 74.191123 101.23008 
L 83.497237 101.99376 
L 92.681544 102.08664 
L 101.87612 102.8916 
L 111.41493 102.45816 
L 120.794322 102.28272 
L 129.954203 102.10728 
L 139.389148 102.582 
L 148.78205 102.29304 
L 158.156795 102.08664 
L 167.426594 102.066 
L 176.832465 101.86992 
L 186.480976 101.48808 
L 195.872365 101.40552 
L 204.913035 101.4984 
L 214.206395 101.97312 
L 223.764443 102.26208 
L 232.729133 102.066 
L 242.261566 101.90088 
L 251.873006 101.90088 
L 260.652878 102.0144 
L 270.02438 102.25176 
L 279.36 102.6336 
" clip-path="url(#pc9f40e77de)" style="fill: none; stroke: #f5841e; stroke-width: 0.6"/>
   </g>
  </g>
 </g>
 <defs>
  <clipPath id="pc9f40e77de">
   <rect x="8.64" y="4.8" width="270.72" height="103.2"/>
  </clipPath>
 </defs>
</svg>
