<?xml version="1.0" encoding="utf-8" standalone="no"?>
<!DOCTYPE svg PUBLIC "-//W3C//DTD SVG 1.1//EN"
  "http://www.w3.org/Graphics/SVG/1.1/DTD/svg11.dtd">
<svg xmlns:xlink="http://www.w3.org/1999/xlink" width="288pt" height="120pt" viewBox="0 0 288 120" xmlns="http://www.w3.org/2000/svg" version="1.1">
<desc id="nav-meta">{"window":"1m","count":4,"labels":["18.06","28.06","08.07","18.07"],"tick_utc":["2026-06-18T05:23:06Z","2026-06-28T05:07:25Z","2026-07-08T03:58:12Z","2026-07-18T03:44:33Z"],"w":720,"h":300}</desc>

 <metadata>
  <rdf:RDF xmlns:dc="http://purl.org/dc/elements/1.1/" xmlns:cc="http://creativecommons.org/ns#" xmlns:rdf="http://www.w3.org/1999/02/22-rdf-syntax-ns#">
   <cc:Work>
    <dc:type rdf:resource="http://purl.org/dc/dcmitype/StillImage"/>
    <dc:date>2026-07-18T03:44:34.997303</dc:date>
    <dc:format>image/svg+xml</dc:format>
    <dc:creator>
     <cc:Agent>
      <dc:title>Matplotlib v3.11.1, https://matplotlib.org/</dc:title>
     </cc:Agent>
    </dc:creator>
   </cc:Work>
  </rdf:RDF>
 </metadata>
 <defs>
  <style type="text/css">*{stroke-linejoin: round; stroke-linecap: butt}</style>
 </defs>
 <g id="figure_1">
  <g id="patch_1">
   <path d="M 0 120 
L 288 120 
L 288 0 
L 0 0 
L 0 120 
z
" style="fill: none; opacity: 0"/>
  </g>
  <g id="axes_1">
   <g id="patch_2">
    <path d="M 8.64 108 
L 279.36 108 
L 279.36 4.8 
L 8.64 4.8 
L 8.64 108 
z
" style="fill: none"/>
   </g>
   <g id="matplotlib.axis_1"/>
   <g id="matplotlib.axis_2"/>
   <g id="line2d_1">
    <path d="M 8.64 87.36 
L 279.36 87.36 
" clip-path="url(#pea45e2d73b)" style="fill: none; stroke: #b2b2b2; stroke-opacity: 0.35; stroke-width: 0.5; stroke-linecap: square"/>
   </g>
   <g id="line2d_2">
    <path d="M 8.64 66.72 
L 279.36 66.72 
" clip-path="url(#pea45e2d73b)" style="fill: none; stroke: #b2b2b2; stroke-opacity: 0.35; stroke-width: 0.5; stroke-linecap: square"/>
   </g>
   <g id="line2d_3">
    <path d="M 8.64 46.08 
L 279.36 46.08 
" clip-path="url(#pea45e2d73b)" style="fill: none; stroke: #b2b2b2; stroke-opacity: 0.35; stroke-width: 0.5; stroke-linecap: square"/>
   </g>
   <g id="line2d_4">
    <path d="M 8.64 25.44 
L 279.36 25.44 
" clip-path="url(#pea45e2d73b)" style="fill: none; stroke: #b2b2b2; stroke-opacity: 0.35; stroke-width: 0.5; stroke-linecap: square"/>
   </g>
   <g id="line2d_5">
    <path d="M 8.64 102.9948 
L 17.897663 103.28376 
L 26.580616 103.01544 
L 35.813469 102.69552 
L 45.122846 102.582 
L 53.626791 102.88128 
L 62.703771 103.15992 
L 71.745996 103.36632 
L 80.837004 103.36632 
L 89.770777 102.81936 
L 98.987824 103.0464 
L 108.097884 102.9432 
L 116.967172 102.59232 
L 126.144125 102.40656 
L 135.030372 102.02472 
L 143.976603 101.68416 
L 152.982294 101.3436 
L 162.159352 101.6532 
L 171.291605 101.6532 
L 180.200568 101.63256 
L 188.999405 101.95248 
L 198.318203 102.08664 
L 207.342423 101.9112 
L 216.120009 102.066 
L 225.299893 102.18984 
L 234.364311 102.31368 
L 243.199787 102.45816 
L 252.246723 102.08664 
L 261.313968 102.21048 
L 270.360067 102.4272 
L 279.36 102.4272 
" clip-path="url(#pea45e2d73b)" style="fill: none; stroke: #bebebe; stroke-width: 0.5; stroke-linecap: round"/>
   </g>
   <g id="line2d_6">
    <path d="M 8.64 93.93384 
L 17.897663 94.4292 
L 26.580616 94.19184 
L 35.813469 93.87192 
L 45.122846 93.81 
L 53.626791 94.03704 
L 62.703771 94.83168 
L 71.745996 95.48184 
L 80.837004 96.63768 
L 89.770777 96.14232 
L 98.987824 96.30744 
L 108.097884 96.29712 
L 116.967172 96.04944 
L 126.144125 95.9256 
L 135.030372 95.39928 
L 143.976603 94.31568 
L 152.982294 93.57264 
L 162.159352 93.32496 
L 171.291605 93.22176 
L 180.200568 93.35592 
L 188.999405 93.61392 
L 198.318203 93.77904 
L 207.342423 93.26304 
L 216.120009 92.92248 
L 225.299893 92.71608 
L 234.364311 93.15984 
L 243.199787 93.17016 
L 252.246723 91.80792 
L 261.313968 91.14744 
L 270.360067 92.13816 
L 279.36 92.25168 
" clip-path="url(#pea45e2d73b)" style="fill: none; stroke: #4a8dff; stroke-width: 0.6"/>
   </g>
   <g id="line2d_7">
    <path d="M 8.64 101.97312 
L 17.897663 102.26208 
L 26.580616 102.066 
L 35.813469 101.90088 
L 45.122846 101.90088 
L 53.626791 102.0144 
L 62.703771 102.25176 
L 71.745996 102.6336 
L 80.837004 102.88128 
L 89.770777 102.77808 
L 98.987824 102.85032 
L 108.097884 102.93288 
L 116.967172 102.95352 
L 126.144125 103.00512 
L 135.030372 102.69552 
L 143.976603 102.55104 
L 152.982294 102.2724 
L 162.159352 102.21048 
L 171.291605 102.12792 
L 180.200568 102.13824 
L 188.999405 102.25176 
L 198.318203 102.36528 
L 207.342423 101.94216 
L 216.120009 101.92152 
L 225.299893 101.9112 
L 234.364311 102.2208 
L 243.199787 102.31368 
L 252.246723 101.79768 
L 261.313968 101.81832 
L 270.360067 102.07632 
L 279.36 101.97312 
" clip-path="url(#pea45e2d73b)" style="fill: none; stroke: #f5841e; stroke-width: 0.6"/>
   </g>
  </g>
 </g>
 <defs>
  <clipPath id="pea45e2d73b">
   <rect x="8.64" y="4.8" width="270.72" height="103.2"/>
  </clipPath>
 </defs>
</svg>
