<?xml version="1.0" encoding="utf-8" standalone="no"?>
<!DOCTYPE svg PUBLIC "-//W3C//DTD SVG 1.1//EN"
  "http://www.w3.org/Graphics/SVG/1.1/DTD/svg11.dtd">
<svg xmlns:xlink="http://www.w3.org/1999/xlink" width="288pt" height="120pt" viewBox="0 0 288 120" xmlns="http://www.w3.org/2000/svg" version="1.1">
<desc id="nav-meta">{"window":"1m","count":4,"labels":["24.06","04.07","14.07","24.07"],"tick_utc":["2026-06-24T04:50:37Z","2026-07-04T04:23:54Z","2026-07-14T03:47:28Z","2026-07-24T03:57:40Z"],"w":720,"h":300}</desc>

 <metadata>
  <rdf:RDF xmlns:dc="http://purl.org/dc/elements/1.1/" xmlns:cc="http://creativecommons.org/ns#" xmlns:rdf="http://www.w3.org/1999/02/22-rdf-syntax-ns#">
   <cc:Work>
    <dc:type rdf:resource="http://purl.org/dc/dcmitype/StillImage"/>
    <dc:date>2026-07-24T03:57:42.567909</dc:date>
    <dc:format>image/svg+xml</dc:format>
    <dc:creator>
     <cc:Agent>
      <dc:title>Matplotlib v3.11.1, https://matplotlib.org/</dc:title>
     </cc:Agent>
    </dc:creator>
   </cc:Work>
  </rdf:RDF>
 </metadata>
 <defs>
  <style type="text/css">*{stroke-linejoin: round; stroke-linecap: butt}</style>
 </defs>
 <g id="figure_1">
  <g id="patch_1">
   <path d="M 0 120 
L 288 120 
L 288 0 
L 0 0 
L 0 120 
z
" style="fill: none; opacity: 0"/>
  </g>
  <g id="axes_1">
   <g id="patch_2">
    <path d="M 8.64 108 
L 279.36 108 
L 279.36 4.8 
L 8.64 4.8 
L 8.64 108 
z
" style="fill: none"/>
   </g>
   <g id="matplotlib.axis_1"/>
   <g id="matplotlib.axis_2"/>
   <g id="line2d_1">
    <path d="M 8.64 87.36 
L 279.36 87.36 
" clip-path="url(#p9bd7e61889)" style="fill: none; stroke: #b2b2b2; stroke-opacity: 0.35; stroke-width: 0.5; stroke-linecap: square"/>
   </g>
   <g id="line2d_2">
    <path d="M 8.64 66.72 
L 279.36 66.72 
" clip-path="url(#p9bd7e61889)" style="fill: none; stroke: #b2b2b2; stroke-opacity: 0.35; stroke-width: 0.5; stroke-linecap: square"/>
   </g>
   <g id="line2d_3">
    <path d="M 8.64 46.08 
L 279.36 46.08 
" clip-path="url(#p9bd7e61889)" style="fill: none; stroke: #b2b2b2; stroke-opacity: 0.35; stroke-width: 0.5; stroke-linecap: square"/>
   </g>
   <g id="line2d_4">
    <path d="M 8.64 25.44 
L 279.36 25.44 
" clip-path="url(#p9bd7e61889)" style="fill: none; stroke: #b2b2b2; stroke-opacity: 0.35; stroke-width: 0.5; stroke-linecap: square"/>
   </g>
   <g id="line2d_5">
    <path d="M 8.64 103.15992 
L 17.672669 103.36632 
L 26.754069 103.36632 
L 35.678401 102.81936 
L 44.885706 103.0464 
L 53.986138 102.9432 
L 62.846053 102.59232 
L 72.013307 102.40656 
L 80.890163 102.02472 
L 89.826939 101.68416 
L 98.823112 101.3436 
L 107.990471 101.6532 
L 117.113073 101.6532 
L 126.012621 101.63256 
L 134.802158 101.95248 
L 144.111108 102.08664 
L 153.125791 101.9112 
L 161.8941 102.066 
L 171.064283 102.18984 
L 180.119121 102.31368 
L 188.945259 102.45816 
L 197.982634 102.08664 
L 207.040296 102.21048 
L 216.076834 102.4272 
L 225.067256 102.4272 
L 234.23817 102.34464 
L 243.395803 102.25176 
L 252.266176 102.02472 
L 261.307838 102.066 
L 270.329109 102.10728 
L 279.36 102.34464 
" clip-path="url(#p9bd7e61889)" style="fill: none; stroke: #bebebe; stroke-width: 0.5; stroke-linecap: round"/>
   </g>
   <g id="line2d_6">
    <path d="M 8.64 94.83168 
L 17.672669 95.48184 
L 26.754069 96.63768 
L 35.678401 96.14232 
L 44.885706 96.30744 
L 53.986138 96.29712 
L 62.846053 96.04944 
L 72.013307 95.9256 
L 80.890163 95.39928 
L 89.826939 94.31568 
L 98.823112 93.57264 
L 107.990471 93.32496 
L 117.113073 93.22176 
L 126.012621 93.35592 
L 134.802158 93.61392 
L 144.111108 93.77904 
L 153.125791 93.26304 
L 161.8941 92.92248 
L 171.064283 92.71608 
L 180.119121 93.15984 
L 188.945259 93.17016 
L 197.982634 91.80792 
L 207.040296 91.14744 
L 216.076834 92.13816 
L 225.067256 92.25168 
L 234.23817 91.9008 
L 243.395803 91.81824 
L 252.266176 91.00296 
L 261.307838 90.98232 
L 270.329109 91.10616 
L 279.36 91.6944 
" clip-path="url(#p9bd7e61889)" style="fill: none; stroke: #4a8dff; stroke-width: 0.6"/>
   </g>
   <g id="line2d_7">
    <path d="M 8.64 102.25176 
L 17.672669 102.6336 
L 26.754069 102.88128 
L 35.678401 102.77808 
L 44.885706 102.85032 
L 53.986138 102.93288 
L 62.846053 102.95352 
L 72.013307 103.00512 
L 80.890163 102.69552 
L 89.826939 102.55104 
L 98.823112 102.2724 
L 107.990471 102.21048 
L 117.113073 102.12792 
L 126.012621 102.13824 
L 134.802158 102.25176 
L 144.111108 102.36528 
L 153.125791 101.94216 
L 161.8941 101.92152 
L 171.064283 101.9112 
L 180.119121 102.2208 
L 188.945259 102.31368 
L 197.982634 101.79768 
L 207.040296 101.81832 
L 216.076834 102.07632 
L 225.067256 101.97312 
L 234.23817 101.79768 
L 243.395803 101.78736 
L 252.266176 101.57064 
L 261.307838 101.40552 
L 270.329109 101.55 
L 279.36 101.6016 
" clip-path="url(#p9bd7e61889)" style="fill: none; stroke: #f5841e; stroke-width: 0.6"/>
   </g>
  </g>
 </g>
 <defs>
  <clipPath id="p9bd7e61889">
   <rect x="8.64" y="4.8" width="270.72" height="103.2"/>
  </clipPath>
 </defs>
</svg>
