<?xml version="1.0" encoding="utf-8" standalone="no"?>
<!DOCTYPE svg PUBLIC "-//W3C//DTD SVG 1.1//EN"
  "http://www.w3.org/Graphics/SVG/1.1/DTD/svg11.dtd">
<svg xmlns:xlink="http://www.w3.org/1999/xlink" width="288pt" height="120pt" viewBox="0 0 288 120" xmlns="http://www.w3.org/2000/svg" version="1.1">
<desc id="nav-meta">{"window":"3m","count":4,"labels":["08.02","10.03","08.04","08.05"],"tick_utc":["2026-02-08T03:46:03Z","2026-03-10T03:14:38Z","2026-04-08T03:43:16Z","2026-05-08T04:01:19Z"],"w":720,"h":300}</desc>

 <metadata>
  <rdf:RDF xmlns:dc="http://purl.org/dc/elements/1.1/" xmlns:cc="http://creativecommons.org/ns#" xmlns:rdf="http://www.w3.org/1999/02/22-rdf-syntax-ns#">
   <cc:Work>
    <dc:type rdf:resource="http://purl.org/dc/dcmitype/StillImage"/>
    <dc:date>2026-05-08T14:26:06.366040</dc:date>
    <dc:format>image/svg+xml</dc:format>
    <dc:creator>
     <cc:Agent>
      <dc:title>Matplotlib v3.10.9, https://matplotlib.org/</dc:title>
     </cc:Agent>
    </dc:creator>
   </cc:Work>
  </rdf:RDF>
 </metadata>
 <defs>
  <style type="text/css">*{stroke-linejoin: round; stroke-linecap: butt}</style>
 </defs>
 <g id="figure_1">
  <g id="patch_1">
   <path d="M 0 120 
L 288 120 
L 288 0 
L 0 0 
L 0 120 
z
" style="fill: none; opacity: 0"/>
  </g>
  <g id="axes_1">
   <g id="patch_2">
    <path d="M 8.64 108 
L 279.36 108 
L 279.36 4.8 
L 8.64 4.8 
L 8.64 108 
z
" style="fill: none"/>
   </g>
   <g id="matplotlib.axis_1"/>
   <g id="matplotlib.axis_2"/>
   <g id="line2d_1">
    <path d="M 8.64 87.36 
L 279.36 87.36 
" clip-path="url(#p9a84f960b1)" style="fill: none; stroke: #b2b2b2; stroke-opacity: 0.35; stroke-width: 0.5; stroke-linecap: square"/>
   </g>
   <g id="line2d_2">
    <path d="M 8.64 66.72 
L 279.36 66.72 
" clip-path="url(#p9a84f960b1)" style="fill: none; stroke: #b2b2b2; stroke-opacity: 0.35; stroke-width: 0.5; stroke-linecap: square"/>
   </g>
   <g id="line2d_3">
    <path d="M 8.64 46.08 
L 279.36 46.08 
" clip-path="url(#p9a84f960b1)" style="fill: none; stroke: #b2b2b2; stroke-opacity: 0.35; stroke-width: 0.5; stroke-linecap: square"/>
   </g>
   <g id="line2d_4">
    <path d="M 8.64 25.44 
L 279.36 25.44 
" clip-path="url(#p9a84f960b1)" style="fill: none; stroke: #b2b2b2; stroke-opacity: 0.35; stroke-width: 0.5; stroke-linecap: square"/>
   </g>
   <g id="line2d_5">
    <path d="M 8.64 100.70376 
L 11.656337 100.68312 
L 14.715127 100.95144 
L 17.750261 101.28168 
L 20.780749 101.71512 
L 23.821269 101.84928 
L 26.82613 101.034 
L 29.70708 100.54896 
L 32.943604 101.04432 
L 35.602994 100.81728 
L 39.021652 101.034 
L 42.059391 101.4984 
L 45.08305 101.33328 
L 48.105899 101.1372 
L 51.182078 101.06496 
L 54.232666 102.09696 
L 57.017164 102.05568 
L 60.304589 101.4984 
L 63.332472 100.60056 
L 66.368135 100.80696 
L 69.373735 101.45712 
L 72.484271 100.55928 
L 75.494307 101.10624 
L 78.542818 100.8792 
L 81.567215 100.74504 
L 84.615198 100.21872 
L 87.655191 100.53864 
L 90.673287 101.07528 
L 93.744257 101.38488 
L 96.79481 101.26104 
L 99.816708 100.78632 
L 102.856947 100.91016 
L 105.910351 100.99272 
L 108.945908 100.38384 
L 111.983295 100.50768 
L 115.082919 100.60056 
L 118.132944 99.76464 
L 121.121154 99.49632 
L 124.185787 99.40344 
L 127.228068 100.09488 
L 130.239898 100.3632 
L 133.263522 100.19808 
L 136.350438 100.47672 
L 139.399019 100.79664 
L 142.412293 100.26 
L 145.680252 99.83688 
L 148.532161 100.13616 
L 151.577434 100.80696 
L 154.589792 101.38488 
L 157.67266 101.3436 
L 160.722791 101.292 
L 163.745041 101.28168 
L 166.812561 101.28168 
L 169.813937 101.8596 
L 172.858857 101.88024 
L 175.874244 101.72544 
L 178.961477 101.68416 
L 182.010762 101.47776 
L 185.032449 101.78736 
L 188.078813 101.09592 
L 191.109653 101.46744 
L 194.179074 101.3436 
L 197.174007 101.05464 
L 200.270006 101.3952 
L 203.327035 101.47776 
L 206.34911 100.86888 
L 209.388222 101.26104 
L 212.442823 100.99272 
L 215.478063 100.61088 
L 218.485951 100.44576 
L 221.567552 100.94112 
L 224.61652 101.09592 
L 227.644614 101.00304 
L 230.676616 100.69344 
L 233.730372 100.9308 
L 236.779868 100.92048 
L 239.785011 100.81728 
L 242.873758 100.8792 
L 245.947966 100.64184 
L 248.995773 101.1888 
L 252.028901 101.09592 
L 255.07544 101.37456 
L 258.150106 101.21976 
L 261.113922 101.20944 
L 264.217101 101.23008 
L 267.257481 100.92048 
L 270.231927 101.06496 
L 273.32694 100.70376 
L 276.369185 100.55928 
L 279.36 100.53864 
" clip-path="url(#p9a84f960b1)" style="fill: none; stroke: #bebebe; stroke-width: 0.5; stroke-linecap: round"/>
   </g>
   <g id="line2d_6">
    <path d="M 8.64 88.65 
L 11.656337 88.55712 
L 14.715127 88.96992 
L 17.750261 89.7336 
L 20.780749 90.456 
L 23.821269 90.56952 
L 26.82613 89.15568 
L 29.70708 88.9596 
L 32.943604 90.6624 
L 35.602994 89.94 
L 39.021652 90.00192 
L 42.059391 90.3528 
L 45.08305 90.62112 
L 48.105899 90.5076 
L 51.182078 90.3528 
L 54.232666 92.004 
L 57.017164 92.13816 
L 60.304589 91.25064 
L 63.332472 89.166 
L 66.368135 89.56848 
L 69.373735 90.93072 
L 72.484271 89.41368 
L 75.494307 90.37344 
L 78.542818 89.79552 
L 81.567215 90.23928 
L 84.615198 88.0824 
L 87.655191 88.7532 
L 90.673287 90.16704 
L 93.744257 90.67272 
L 96.79481 90.18768 
L 99.816708 89.2692 
L 102.856947 89.54784 
L 105.910351 89.49624 
L 108.945908 88.31976 
L 111.983295 88.45392 
L 115.082919 88.46424 
L 118.132944 86.38992 
L 121.121154 84.80064 
L 124.185787 84.8316 
L 127.228068 86.586 
L 130.239898 87.74184 
L 133.263522 87.618 
L 136.350438 88.19592 
L 139.399019 89.08344 
L 142.412293 87.89664 
L 145.680252 87.3084 
L 148.532161 87.65928 
L 151.577434 88.96992 
L 154.589792 90.07416 
L 157.67266 89.76456 
L 160.722791 89.3724 
L 163.745041 89.00088 
L 166.812561 88.42296 
L 169.813937 88.81512 
L 172.858857 89.10408 
L 175.874244 89.14536 
L 178.961477 89.07312 
L 182.010762 87.9792 
L 185.032449 88.29912 
L 188.078813 86.38992 
L 191.109653 87.24648 
L 194.179074 87.1536 
L 197.174007 86.21448 
L 200.270006 86.66856 
L 203.327035 87.01944 
L 206.34911 84.44976 
L 209.388222 85.05864 
L 212.442823 84.58392 
L 215.478063 85.04832 
L 218.485951 83.71704 
L 221.567552 84.86256 
L 224.61652 85.6572 
L 227.644614 85.27536 
L 230.676616 84.49104 
L 233.730372 84.86256 
L 236.779868 85.32696 
L 239.785011 85.17216 
L 242.873758 85.31664 
L 245.947966 84.11952 
L 248.995773 85.66752 
L 252.028901 85.26504 
L 255.07544 86.26608 
L 258.150106 85.77072 
L 261.113922 85.38888 
L 264.217101 85.3992 
L 267.257481 84.09888 
L 270.231927 84.22272 
L 273.32694 84.34656 
L 276.369185 85.06896 
L 279.36 85.7604 
" clip-path="url(#p9a84f960b1)" style="fill: none; stroke: #4a8dff; stroke-width: 0.6"/>
   </g>
   <g id="line2d_7">
    <path d="M 8.64 100.518 
L 11.656337 99.98136 
L 14.715127 100.49736 
L 17.750261 100.78632 
L 20.780749 101.07528 
L 23.821269 101.26104 
L 26.82613 100.63152 
L 29.70708 100.38384 
L 32.943604 100.84824 
L 35.602994 100.65216 
L 39.021652 101.034 
L 42.059391 101.19912 
L 45.08305 101.10624 
L 48.105899 100.97208 
L 51.182078 100.91016 
L 54.232666 101.7564 
L 57.017164 101.84928 
L 60.304589 101.56032 
L 63.332472 100.85856 
L 66.368135 101.12688 
L 69.373735 101.4468 
L 72.484271 101.02368 
L 75.494307 101.30232 
L 78.542818 100.81728 
L 81.567215 100.79664 
L 84.615198 99.3312 
L 87.655191 99.92976 
L 90.673287 100.78632 
L 93.744257 101.17848 
L 96.79481 101.1372 
L 99.816708 100.21872 
L 102.856947 100.37352 
L 105.910351 100.4664 
L 108.945908 99.88848 
L 111.983295 99.94008 
L 115.082919 99.81624 
L 118.132944 98.93904 
L 121.121154 98.3508 
L 124.185787 98.52624 
L 127.228068 99.78528 
L 130.239898 100.12584 
L 133.263522 100.03296 
L 136.350438 100.45608 
L 139.399019 100.83792 
L 142.412293 100.11552 
L 145.680252 99.87816 
L 148.532161 100.002 
L 151.577434 100.64184 
L 154.589792 101.41584 
L 157.67266 101.21976 
L 160.722791 101.14752 
L 163.745041 101.00304 
L 166.812561 100.86888 
L 169.813937 101.21976 
L 172.858857 101.28168 
L 175.874244 101.20944 
L 178.961477 101.14752 
L 182.010762 100.55928 
L 185.032449 100.65216 
L 188.078813 99.80592 
L 191.109653 99.96072 
L 194.179074 99.6408 
L 197.174007 99.1764 
L 200.270006 99.70272 
L 203.327035 99.94008 
L 206.34911 98.57784 
L 209.388222 98.65008 
L 212.442823 98.38176 
L 215.478063 98.48496 
L 218.485951 96.70992 
L 221.567552 98.05152 
L 224.61652 98.48496 
L 227.644614 97.96896 
L 230.676616 96.32808 
L 233.730372 96.20424 
L 236.779868 96.16296 
L 239.785011 96.1836 
L 242.873758 96.50352 
L 245.947966 94.76976 
L 248.995773 97.19496 
L 252.028901 96.9576 
L 255.07544 97.9896 
L 258.150106 96.89568 
L 261.113922 95.45088 
L 264.217101 95.67792 
L 267.257481 93.43848 
L 270.231927 92.90184 
L 273.32694 92.25168 
L 276.369185 92.87088 
L 279.36 94.2744 
" clip-path="url(#p9a84f960b1)" style="fill: none; stroke: #f5841e; stroke-width: 0.6"/>
   </g>
  </g>
 </g>
 <defs>
  <clipPath id="p9a84f960b1">
   <rect x="8.64" y="4.8" width="270.72" height="103.2"/>
  </clipPath>
 </defs>
</svg>
