<?xml version="1.0" encoding="utf-8" standalone="no"?>
<!DOCTYPE svg PUBLIC "-//W3C//DTD SVG 1.1//EN"
  "http://www.w3.org/Graphics/SVG/1.1/DTD/svg11.dtd">
<svg xmlns:xlink="http://www.w3.org/1999/xlink" width="288pt" height="120pt" viewBox="0 0 288 120" xmlns="http://www.w3.org/2000/svg" version="1.1">
<desc id="nav-meta">{"window":"3m","count":4,"labels":["01.03","31.03","29.04","29.05"],"tick_utc":["2026-03-01T03:33:48Z","2026-03-31T03:42:11Z","2026-04-29T04:21:07Z","2026-05-29T04:59:49Z"],"w":720,"h":300}</desc>

 <metadata>
  <rdf:RDF xmlns:dc="http://purl.org/dc/elements/1.1/" xmlns:cc="http://creativecommons.org/ns#" xmlns:rdf="http://www.w3.org/1999/02/22-rdf-syntax-ns#">
   <cc:Work>
    <dc:type rdf:resource="http://purl.org/dc/dcmitype/StillImage"/>
    <dc:date>2026-05-29T10:33:58.982688</dc:date>
    <dc:format>image/svg+xml</dc:format>
    <dc:creator>
     <cc:Agent>
      <dc:title>Matplotlib v3.10.9, https://matplotlib.org/</dc:title>
     </cc:Agent>
    </dc:creator>
   </cc:Work>
  </rdf:RDF>
 </metadata>
 <defs>
  <style type="text/css">*{stroke-linejoin: round; stroke-linecap: butt}</style>
 </defs>
 <g id="figure_1">
  <g id="patch_1">
   <path d="M 0 120 
L 288 120 
L 288 0 
L 0 0 
L 0 120 
z
" style="fill: none; opacity: 0"/>
  </g>
  <g id="axes_1">
   <g id="patch_2">
    <path d="M 8.64 108 
L 279.36 108 
L 279.36 4.8 
L 8.64 4.8 
L 8.64 108 
z
" style="fill: none"/>
   </g>
   <g id="matplotlib.axis_1"/>
   <g id="matplotlib.axis_2"/>
   <g id="line2d_1">
    <path d="M 8.64 87.36 
L 279.36 87.36 
" clip-path="url(#p29dcf6555d)" style="fill: none; stroke: #b2b2b2; stroke-opacity: 0.35; stroke-width: 0.5; stroke-linecap: square"/>
   </g>
   <g id="line2d_2">
    <path d="M 8.64 66.72 
L 279.36 66.72 
" clip-path="url(#p29dcf6555d)" style="fill: none; stroke: #b2b2b2; stroke-opacity: 0.35; stroke-width: 0.5; stroke-linecap: square"/>
   </g>
   <g id="line2d_3">
    <path d="M 8.64 46.08 
L 279.36 46.08 
" clip-path="url(#p29dcf6555d)" style="fill: none; stroke: #b2b2b2; stroke-opacity: 0.35; stroke-width: 0.5; stroke-linecap: square"/>
   </g>
   <g id="line2d_4">
    <path d="M 8.64 25.44 
L 279.36 25.44 
" clip-path="url(#p29dcf6555d)" style="fill: none; stroke: #b2b2b2; stroke-opacity: 0.35; stroke-width: 0.5; stroke-linecap: square"/>
   </g>
   <g id="line2d_5">
    <path d="M 8.64 100.55928 
L 11.648375 101.10624 
L 14.695204 100.8792 
L 17.717933 100.74504 
L 20.764235 100.21872 
L 23.80255 100.53864 
L 26.818982 101.07528 
L 29.888257 101.38488 
L 32.937127 101.26104 
L 35.957358 100.78632 
L 38.99592 100.91016 
L 42.047639 100.99272 
L 45.081521 100.38384 
L 48.117233 100.50768 
L 51.215147 100.60056 
L 54.263489 99.76464 
L 57.250051 99.49632 
L 60.312994 99.40344 
L 63.353596 100.09488 
L 66.363765 100.3632 
L 69.38572 100.19808 
L 72.470933 100.47672 
L 75.517833 100.79664 
L 78.529445 100.26 
L 81.795601 99.83688 
L 84.645936 100.13616 
L 87.689529 100.80696 
L 90.700226 101.38488 
L 93.781393 101.3436 
L 96.829841 101.292 
L 99.850424 101.28168 
L 102.916252 101.28168 
L 105.915972 101.8596 
L 108.959212 101.88024 
L 111.972935 101.72544 
L 115.058465 101.68416 
L 118.106068 101.47776 
L 121.126088 101.78736 
L 124.170771 101.09592 
L 127.199939 101.46744 
L 130.267666 101.3436 
L 133.260948 101.05464 
L 136.355238 101.3952 
L 139.410582 101.47776 
L 142.430989 100.86888 
L 145.468425 101.26104 
L 148.52134 100.99272 
L 151.554906 100.61088 
L 154.561135 100.44576 
L 157.641035 100.94112 
L 160.688322 101.09592 
L 163.714745 101.00304 
L 166.745074 100.69344 
L 169.797145 100.9308 
L 172.84496 100.92048 
L 175.848444 100.81728 
L 178.935487 100.8792 
L 182.007999 100.64184 
L 185.054125 101.1888 
L 188.085579 101.09592 
L 191.130438 101.37456 
L 194.203408 101.21976 
L 197.165589 101.20944 
L 200.267056 101.23008 
L 203.305758 100.92048 
L 206.278564 101.06496 
L 209.371869 100.70376 
L 212.412436 100.55928 
L 215.401601 100.53864 
L 218.452476 99.60984 
L 221.553486 99.72336 
L 224.617238 99.44472 
L 227.614777 99.25896 
L 230.668994 99.32088 
L 233.705374 100.22904 
L 236.76012 100.01232 
L 239.761071 100.43544 
L 242.846214 100.75536 
L 245.91549 101.02368 
L 248.933469 101.02368 
L 251.984098 101.17848 
L 255.041165 100.7244 
L 258.057632 100.75536 
L 261.055628 101.11656 
L 264.143515 100.91016 
L 267.223275 100.89984 
L 270.216979 101.1372 
L 273.287944 101.2404 
L 276.317991 101.6532 
L 279.36 101.4984 
" clip-path="url(#p29dcf6555d)" style="fill: none; stroke: #bebebe; stroke-width: 0.5; stroke-linecap: round"/>
   </g>
   <g id="line2d_6">
    <path d="M 8.64 89.41368 
L 11.648375 90.37344 
L 14.695204 89.79552 
L 17.717933 90.23928 
L 20.764235 88.0824 
L 23.80255 88.7532 
L 26.818982 90.16704 
L 29.888257 90.67272 
L 32.937127 90.18768 
L 35.957358 89.2692 
L 38.99592 89.54784 
L 42.047639 89.49624 
L 45.081521 88.31976 
L 48.117233 88.45392 
L 51.215147 88.46424 
L 54.263489 86.38992 
L 57.250051 84.80064 
L 60.312994 84.8316 
L 63.353596 86.586 
L 66.363765 87.74184 
L 69.38572 87.618 
L 72.470933 88.19592 
L 75.517833 89.08344 
L 78.529445 87.89664 
L 81.795601 87.3084 
L 84.645936 87.65928 
L 87.689529 88.96992 
L 90.700226 90.07416 
L 93.781393 89.76456 
L 96.829841 89.3724 
L 99.850424 89.00088 
L 102.916252 88.42296 
L 105.915972 88.81512 
L 108.959212 89.10408 
L 111.972935 89.14536 
L 115.058465 89.07312 
L 118.106068 87.9792 
L 121.126088 88.29912 
L 124.170771 86.38992 
L 127.199939 87.24648 
L 130.267666 87.1536 
L 133.260948 86.21448 
L 136.355238 86.66856 
L 139.410582 87.01944 
L 142.430989 84.44976 
L 145.468425 85.05864 
L 148.52134 84.58392 
L 151.554906 85.04832 
L 154.561135 83.71704 
L 157.641035 84.86256 
L 160.688322 85.6572 
L 163.714745 85.27536 
L 166.745074 84.49104 
L 169.797145 84.86256 
L 172.84496 85.32696 
L 175.848444 85.17216 
L 178.935487 85.31664 
L 182.007999 84.11952 
L 185.054125 85.66752 
L 188.085579 85.26504 
L 191.130438 86.26608 
L 194.203408 85.77072 
L 197.165589 85.38888 
L 200.267056 85.3992 
L 203.305758 84.09888 
L 206.278564 84.22272 
L 209.371869 84.34656 
L 212.412436 85.06896 
L 215.401601 85.7604 
L 218.452476 85.0896 
L 221.553486 85.01736 
L 224.617238 84.9348 
L 227.614777 85.296 
L 230.668994 85.35792 
L 233.705374 86.1732 
L 236.76012 85.92552 
L 239.761071 86.55504 
L 242.846214 87.13296 
L 245.91549 88.10304 
L 248.933469 87.9276 
L 251.984098 88.26816 
L 255.041165 87.78312 
L 258.057632 87.95856 
L 261.055628 88.94928 
L 264.143515 88.14432 
L 267.223275 88.33008 
L 270.216979 88.52616 
L 273.287944 88.86672 
L 276.317991 90.22896 
L 279.36 89.82648 
" clip-path="url(#p29dcf6555d)" style="fill: none; stroke: #4a8dff; stroke-width: 0.6"/>
   </g>
   <g id="line2d_7">
    <path d="M 8.64 101.02368 
L 11.648375 101.30232 
L 14.695204 100.81728 
L 17.717933 100.79664 
L 20.764235 99.3312 
L 23.80255 99.92976 
L 26.818982 100.78632 
L 29.888257 101.17848 
L 32.937127 101.1372 
L 35.957358 100.21872 
L 38.99592 100.37352 
L 42.047639 100.4664 
L 45.081521 99.88848 
L 48.117233 99.94008 
L 51.215147 99.81624 
L 54.263489 98.93904 
L 57.250051 98.3508 
L 60.312994 98.52624 
L 63.353596 99.78528 
L 66.363765 100.12584 
L 69.38572 100.03296 
L 72.470933 100.45608 
L 75.517833 100.83792 
L 78.529445 100.11552 
L 81.795601 99.87816 
L 84.645936 100.002 
L 87.689529 100.64184 
L 90.700226 101.41584 
L 93.781393 101.21976 
L 96.829841 101.14752 
L 99.850424 101.00304 
L 102.916252 100.86888 
L 105.915972 101.21976 
L 108.959212 101.28168 
L 111.972935 101.20944 
L 115.058465 101.14752 
L 118.106068 100.55928 
L 121.126088 100.65216 
L 124.170771 99.80592 
L 127.199939 99.96072 
L 130.267666 99.6408 
L 133.260948 99.1764 
L 136.355238 99.70272 
L 139.410582 99.94008 
L 142.430989 98.57784 
L 145.468425 98.65008 
L 148.52134 98.38176 
L 151.554906 98.48496 
L 154.561135 96.70992 
L 157.641035 98.05152 
L 160.688322 98.48496 
L 163.714745 97.96896 
L 166.745074 96.32808 
L 169.797145 96.20424 
L 172.84496 96.16296 
L 175.848444 96.1836 
L 178.935487 96.50352 
L 182.007999 94.76976 
L 185.054125 97.19496 
L 188.085579 96.9576 
L 191.130438 97.9896 
L 194.203408 96.89568 
L 197.165589 95.45088 
L 200.267056 95.67792 
L 203.305758 93.43848 
L 206.278564 92.90184 
L 209.371869 92.25168 
L 212.412436 92.87088 
L 215.401601 94.2744 
L 218.452476 93.1392 
L 221.553486 92.97408 
L 224.617238 92.9844 
L 227.614777 92.60256 
L 230.668994 92.53032 
L 233.705374 94.54272 
L 236.76012 92.85024 
L 239.761071 94.82136 
L 242.846214 95.75016 
L 245.91549 96.97824 
L 248.933469 97.08144 
L 251.984098 97.23624 
L 255.041165 95.94624 
L 258.057632 96.30744 
L 261.055628 98.08248 
L 264.143515 97.2672 
L 267.223275 96.61704 
L 270.216979 97.23624 
L 273.287944 98.08248 
L 276.317991 99.18672 
L 279.36 99.03192 
" clip-path="url(#p29dcf6555d)" style="fill: none; stroke: #f5841e; stroke-width: 0.6"/>
   </g>
  </g>
 </g>
 <defs>
  <clipPath id="p29dcf6555d">
   <rect x="8.64" y="4.8" width="270.72" height="103.2"/>
  </clipPath>
 </defs>
</svg>
