<?xml version="1.0" encoding="utf-8" standalone="no"?>
<!DOCTYPE svg PUBLIC "-//W3C//DTD SVG 1.1//EN"
  "http://www.w3.org/Graphics/SVG/1.1/DTD/svg11.dtd">
<svg xmlns:xlink="http://www.w3.org/1999/xlink" width="288pt" height="120pt" viewBox="0 0 288 120" xmlns="http://www.w3.org/2000/svg" version="1.1">
<desc id="nav-meta">{"window":"1m","count":4,"labels":["08.04","18.04","27.04","07.05"],"tick_utc":["2026-04-08T03:43:16Z","2026-04-18T03:39:51Z","2026-04-27T04:22:02Z","2026-05-07T04:25:17Z"],"w":720,"h":300}</desc>

 <metadata>
  <rdf:RDF xmlns:dc="http://purl.org/dc/elements/1.1/" xmlns:cc="http://creativecommons.org/ns#" xmlns:rdf="http://www.w3.org/1999/02/22-rdf-syntax-ns#">
   <cc:Work>
    <dc:type rdf:resource="http://purl.org/dc/dcmitype/StillImage"/>
    <dc:date>2026-05-07T04:25:19.331146</dc:date>
    <dc:format>image/svg+xml</dc:format>
    <dc:creator>
     <cc:Agent>
      <dc:title>Matplotlib v3.10.9, https://matplotlib.org/</dc:title>
     </cc:Agent>
    </dc:creator>
   </cc:Work>
  </rdf:RDF>
 </metadata>
 <defs>
  <style type="text/css">*{stroke-linejoin: round; stroke-linecap: butt}</style>
 </defs>
 <g id="figure_1">
  <g id="patch_1">
   <path d="M 0 120 
L 288 120 
L 288 0 
L 0 0 
L 0 120 
z
" style="fill: none; opacity: 0"/>
  </g>
  <g id="axes_1">
   <g id="patch_2">
    <path d="M 8.64 108 
L 279.36 108 
L 279.36 4.8 
L 8.64 4.8 
L 8.64 108 
z
" style="fill: none"/>
   </g>
   <g id="matplotlib.axis_1"/>
   <g id="matplotlib.axis_2"/>
   <g id="line2d_1">
    <path d="M 8.64 87.36 
L 279.36 87.36 
" clip-path="url(#pd8f4255f54)" style="fill: none; stroke: #b2b2b2; stroke-opacity: 0.35; stroke-width: 0.5; stroke-linecap: square"/>
   </g>
   <g id="line2d_2">
    <path d="M 8.64 66.72 
L 279.36 66.72 
" clip-path="url(#pd8f4255f54)" style="fill: none; stroke: #b2b2b2; stroke-opacity: 0.35; stroke-width: 0.5; stroke-linecap: square"/>
   </g>
   <g id="line2d_3">
    <path d="M 8.64 46.08 
L 279.36 46.08 
" clip-path="url(#pd8f4255f54)" style="fill: none; stroke: #b2b2b2; stroke-opacity: 0.35; stroke-width: 0.5; stroke-linecap: square"/>
   </g>
   <g id="line2d_4">
    <path d="M 8.64 25.44 
L 279.36 25.44 
" clip-path="url(#pd8f4255f54)" style="fill: none; stroke: #b2b2b2; stroke-opacity: 0.35; stroke-width: 0.5; stroke-linecap: square"/>
   </g>
   <g id="line2d_5">
    <path d="M 8.64 101.09592 
L 17.9333 101.46744 
L 27.3449 101.3436 
L 36.528104 101.05464 
L 46.021196 101.3952 
L 55.394802 101.47776 
L 64.661225 100.86888 
L 73.979891 101.26104 
L 83.346049 100.99272 
L 92.652841 100.61088 
L 101.875766 100.44576 
L 111.324712 100.94112 
L 120.6736 101.09592 
L 129.958481 101.00304 
L 139.255343 100.69344 
L 148.61891 100.9308 
L 157.969417 100.92048 
L 167.183923 100.81728 
L 176.65478 100.8792 
L 186.081059 100.64184 
L 195.426385 101.1888 
L 204.726701 101.09592 
L 214.068141 101.37456 
L 223.495824 101.21976 
L 232.583611 101.20944 
L 242.098722 101.23008 
L 251.421274 100.92048 
L 260.541658 101.06496 
L 270.031728 100.70376 
L 279.36 100.55928 
" clip-path="url(#pd8f4255f54)" style="fill: none; stroke: #bebebe; stroke-width: 0.5; stroke-linecap: round"/>
   </g>
   <g id="line2d_6">
    <path d="M 8.64 86.38992 
L 17.9333 87.24648 
L 27.3449 87.1536 
L 36.528104 86.21448 
L 46.021196 86.66856 
L 55.394802 87.01944 
L 64.661225 84.44976 
L 73.979891 85.05864 
L 83.346049 84.58392 
L 92.652841 85.04832 
L 101.875766 83.71704 
L 111.324712 84.86256 
L 120.6736 85.6572 
L 129.958481 85.27536 
L 139.255343 84.49104 
L 148.61891 84.86256 
L 157.969417 85.32696 
L 167.183923 85.17216 
L 176.65478 85.31664 
L 186.081059 84.11952 
L 195.426385 85.66752 
L 204.726701 85.26504 
L 214.068141 86.26608 
L 223.495824 85.77072 
L 232.583611 85.38888 
L 242.098722 85.3992 
L 251.421274 84.09888 
L 260.541658 84.22272 
L 270.031728 84.34656 
L 279.36 85.06896 
" clip-path="url(#pd8f4255f54)" style="fill: none; stroke: #4a8dff; stroke-width: 0.6"/>
   </g>
   <g id="line2d_7">
    <path d="M 8.64 99.80592 
L 17.9333 99.96072 
L 27.3449 99.6408 
L 36.528104 99.1764 
L 46.021196 99.70272 
L 55.394802 99.94008 
L 64.661225 98.57784 
L 73.979891 98.65008 
L 83.346049 98.38176 
L 92.652841 98.48496 
L 101.875766 96.70992 
L 111.324712 98.05152 
L 120.6736 98.48496 
L 129.958481 97.96896 
L 139.255343 96.32808 
L 148.61891 96.20424 
L 157.969417 96.16296 
L 167.183923 96.1836 
L 176.65478 96.50352 
L 186.081059 94.76976 
L 195.426385 97.19496 
L 204.726701 96.9576 
L 214.068141 97.9896 
L 223.495824 96.89568 
L 232.583611 95.45088 
L 242.098722 95.67792 
L 251.421274 93.43848 
L 260.541658 92.90184 
L 270.031728 92.25168 
L 279.36 92.87088 
" clip-path="url(#pd8f4255f54)" style="fill: none; stroke: #f5841e; stroke-width: 0.6"/>
   </g>
  </g>
 </g>
 <defs>
  <clipPath id="pd8f4255f54">
   <rect x="8.64" y="4.8" width="270.72" height="103.2"/>
  </clipPath>
 </defs>
</svg>
