<?xml version="1.0" encoding="utf-8" standalone="no"?>
<!DOCTYPE svg PUBLIC "-//W3C//DTD SVG 1.1//EN"
  "http://www.w3.org/Graphics/SVG/1.1/DTD/svg11.dtd">
<svg xmlns:xlink="http://www.w3.org/1999/xlink" width="288pt" height="120pt" viewBox="0 0 288 120" xmlns="http://www.w3.org/2000/svg" version="1.1">
<desc id="nav-meta">{"window":"3m","count":4,"labels":["16.01","15.02","17.03","16.04"],"tick_utc":["2026-01-16T12:00:00Z","2026-02-15T02:00:29Z","2026-03-17T03:21:27Z","2026-04-16T03:58:40Z"],"w":720,"h":300}</desc>

 <metadata>
  <rdf:RDF xmlns:dc="http://purl.org/dc/elements/1.1/" xmlns:cc="http://creativecommons.org/ns#" xmlns:rdf="http://www.w3.org/1999/02/22-rdf-syntax-ns#">
   <cc:Work>
    <dc:type rdf:resource="http://purl.org/dc/dcmitype/StillImage"/>
    <dc:date>2026-04-16T08:17:23.760592</dc:date>
    <dc:format>image/svg+xml</dc:format>
    <dc:creator>
     <cc:Agent>
      <dc:title>Matplotlib v3.10.8, https://matplotlib.org/</dc:title>
     </cc:Agent>
    </dc:creator>
   </cc:Work>
  </rdf:RDF>
 </metadata>
 <defs>
  <style type="text/css">*{stroke-linejoin: round; stroke-linecap: butt}</style>
 </defs>
 <g id="figure_1">
  <g id="patch_1">
   <path d="M 0 120 
L 288 120 
L 288 0 
L 0 0 
L 0 120 
z
" style="fill: none; opacity: 0"/>
  </g>
  <g id="axes_1">
   <g id="patch_2">
    <path d="M 8.64 108 
L 279.36 108 
L 279.36 4.8 
L 8.64 4.8 
L 8.64 108 
z
" style="fill: none"/>
   </g>
   <g id="matplotlib.axis_1"/>
   <g id="matplotlib.axis_2"/>
   <g id="line2d_1">
    <path d="M 8.64 87.36 
L 279.36 87.36 
" clip-path="url(#p43d958acec)" style="fill: none; stroke: #b2b2b2; stroke-opacity: 0.35; stroke-width: 0.5; stroke-linecap: square"/>
   </g>
   <g id="line2d_2">
    <path d="M 8.64 66.72 
L 279.36 66.72 
" clip-path="url(#p43d958acec)" style="fill: none; stroke: #b2b2b2; stroke-opacity: 0.35; stroke-width: 0.5; stroke-linecap: square"/>
   </g>
   <g id="line2d_3">
    <path d="M 8.64 46.08 
L 279.36 46.08 
" clip-path="url(#p43d958acec)" style="fill: none; stroke: #b2b2b2; stroke-opacity: 0.35; stroke-width: 0.5; stroke-linecap: square"/>
   </g>
   <g id="line2d_4">
    <path d="M 8.64 25.44 
L 279.36 25.44 
" clip-path="url(#p43d958acec)" style="fill: none; stroke: #b2b2b2; stroke-opacity: 0.35; stroke-width: 0.5; stroke-linecap: square"/>
   </g>
   <g id="line2d_5">
    <path d="M 8.64 87.62832 
L 11.659213 86.93688 
L 14.678427 87.23616 
L 17.69764 88.63968 
L 20.716853 90.0432 
L 23.736067 92.12784 
L 26.75528 91.16808 
L 29.774493 91.46736 
L 32.793707 91.73568 
L 35.81292 91.78728 
L 38.832133 94.0164 
L 41.851347 92.5716 
L 44.87056 91.76664 
L 47.889773 92.33424 
L 50.908987 94.36728 
L 53.9282 94.46016 
L 56.947413 97.71096 
L 59.966627 98.48496 
L 62.98584 97.85544 
L 65.534734 99.10416 
L 67.934065 100.16712 
L 70.951741 102.23112 
L 73.958025 100.54896 
L 77.046254 100.70376 
L 80.040551 100.68312 
L 83.076992 100.95144 
L 86.089951 101.28168 
L 89.098296 101.71512 
L 92.116601 101.84928 
L 95.099507 101.034 
L 97.959408 100.54896 
L 101.172284 101.04432 
L 103.812244 100.81728 
L 107.205923 101.034 
L 110.221468 101.4984 
L 113.223034 101.33328 
L 116.223796 101.1372 
L 119.2775 101.06496 
L 122.305799 102.09696 
L 125.069952 102.05568 
L 128.333358 101.4984 
L 131.339118 100.60056 
L 134.3526 100.80696 
L 137.33624 101.45712 
L 140.424049 100.55928 
L 143.412092 101.10624 
L 146.438329 100.8792 
L 149.440629 100.74504 
L 152.466342 100.21872 
L 155.484123 100.53864 
L 158.480168 101.07528 
L 161.5287 101.38488 
L 164.556964 101.26104 
L 167.556783 100.78632 
L 170.574808 100.91016 
L 173.605903 100.99272 
L 176.61928 100.38384 
L 179.634475 100.50768 
L 182.711452 100.60056 
L 185.739192 99.76464 
L 188.705569 99.49632 
L 191.747811 99.40344 
L 194.767863 100.09488 
L 197.757687 100.3632 
L 200.759219 100.19808 
L 203.823581 100.47672 
L 206.849888 100.79664 
L 209.841145 100.26 
L 213.085227 99.83688 
L 215.916299 100.13616 
L 218.939321 100.80696 
L 221.92967 101.38488 
L 224.990013 101.3436 
L 228.017858 101.292 
L 231.018026 101.28168 
L 234.063134 101.28168 
L 237.04258 101.8596 
L 240.065253 101.88024 
L 243.058607 101.72544 
L 246.123284 101.68416 
L 249.15029 101.47776 
L 252.149899 101.78736 
L 255.174005 101.09592 
L 258.1827 101.46744 
L 261.229694 101.3436 
L 264.202745 101.05464 
L 267.276123 101.3952 
L 270.310817 101.47776 
L 273.31081 100.86888 
L 276.327717 101.26104 
L 279.36 100.99272 
" clip-path="url(#p43d958acec)" style="fill: none; stroke: #bebebe; stroke-width: 0.5; stroke-linecap: round"/>
   </g>
   <g id="line2d_6">
    <path d="M 8.64 70.34232 
L 11.659213 70.67256 
L 14.678427 70.51776 
L 17.69764 70.848 
L 20.716853 72.31344 
L 23.736067 76.01832 
L 26.75528 75.41976 
L 29.774493 75.83256 
L 32.793707 75.79128 
L 35.81292 75.82224 
L 38.832133 77.82432 
L 41.851347 76.14216 
L 44.87056 74.75928 
L 47.889773 74.96568 
L 50.908987 77.75208 
L 53.9282 79.48584 
L 56.947413 83.31456 
L 59.966627 85.90488 
L 62.98584 84.79032 
L 65.534734 85.84296 
L 67.934065 88.25784 
L 70.951741 91.41576 
L 73.958025 88.7532 
L 77.046254 88.65 
L 80.040551 88.55712 
L 83.076992 88.96992 
L 86.089951 89.7336 
L 89.098296 90.456 
L 92.116601 90.56952 
L 95.099507 89.15568 
L 97.959408 88.9596 
L 101.172284 90.6624 
L 103.812244 89.94 
L 107.205923 90.00192 
L 110.221468 90.3528 
L 113.223034 90.62112 
L 116.223796 90.5076 
L 119.2775 90.3528 
L 122.305799 92.004 
L 125.069952 92.13816 
L 128.333358 91.25064 
L 131.339118 89.166 
L 134.3526 89.56848 
L 137.33624 90.93072 
L 140.424049 89.41368 
L 143.412092 90.37344 
L 146.438329 89.79552 
L 149.440629 90.23928 
L 152.466342 88.0824 
L 155.484123 88.7532 
L 158.480168 90.16704 
L 161.5287 90.67272 
L 164.556964 90.18768 
L 167.556783 89.2692 
L 170.574808 89.54784 
L 173.605903 89.49624 
L 176.61928 88.31976 
L 179.634475 88.45392 
L 182.711452 88.46424 
L 185.739192 86.38992 
L 188.705569 84.80064 
L 191.747811 84.8316 
L 194.767863 86.586 
L 197.757687 87.74184 
L 200.759219 87.618 
L 203.823581 88.19592 
L 206.849888 89.08344 
L 209.841145 87.89664 
L 213.085227 87.3084 
L 215.916299 87.65928 
L 218.939321 88.96992 
L 221.92967 90.07416 
L 224.990013 89.76456 
L 228.017858 89.3724 
L 231.018026 89.00088 
L 234.063134 88.42296 
L 237.04258 88.81512 
L 240.065253 89.10408 
L 243.058607 89.14536 
L 246.123284 89.07312 
L 249.15029 87.9792 
L 252.149899 88.29912 
L 255.174005 86.38992 
L 258.1827 87.24648 
L 261.229694 87.1536 
L 264.202745 86.21448 
L 267.276123 86.66856 
L 270.310817 87.01944 
L 273.31081 84.44976 
L 276.327717 85.05864 
L 279.36 84.58392 
" clip-path="url(#p43d958acec)" style="fill: none; stroke: #4a8dff; stroke-width: 0.6"/>
   </g>
   <g id="line2d_7">
    <path d="M 8.64 77.66952 
L 11.659213 77.74176 
L 14.678427 78.1752 
L 17.69764 79.5684 
L 20.716853 80.8068 
L 23.736067 85.20312 
L 26.75528 84.12984 
L 29.774493 84.03696 
L 32.793707 84.06792 
L 35.81292 84.3156 
L 38.832133 87.02976 
L 41.851347 85.21344 
L 44.87056 84.28464 
L 47.889773 84.32592 
L 50.908987 89.08344 
L 53.9282 89.5272 
L 56.947413 95.14128 
L 59.966627 96.98856 
L 62.98584 95.08968 
L 65.534734 97.71096 
L 67.934065 99.80592 
L 70.951741 101.79768 
L 73.958025 100.03296 
L 77.046254 100.518 
L 80.040551 99.98136 
L 83.076992 100.49736 
L 86.089951 100.78632 
L 89.098296 101.07528 
L 92.116601 101.26104 
L 95.099507 100.63152 
L 97.959408 100.38384 
L 101.172284 100.84824 
L 103.812244 100.65216 
L 107.205923 101.034 
L 110.221468 101.19912 
L 113.223034 101.10624 
L 116.223796 100.97208 
L 119.2775 100.91016 
L 122.305799 101.7564 
L 125.069952 101.84928 
L 128.333358 101.56032 
L 131.339118 100.85856 
L 134.3526 101.12688 
L 137.33624 101.4468 
L 140.424049 101.02368 
L 143.412092 101.30232 
L 146.438329 100.81728 
L 149.440629 100.79664 
L 152.466342 99.3312 
L 155.484123 99.92976 
L 158.480168 100.78632 
L 161.5287 101.17848 
L 164.556964 101.1372 
L 167.556783 100.21872 
L 170.574808 100.37352 
L 173.605903 100.4664 
L 176.61928 99.88848 
L 179.634475 99.94008 
L 182.711452 99.81624 
L 185.739192 98.93904 
L 188.705569 98.3508 
L 191.747811 98.52624 
L 194.767863 99.78528 
L 197.757687 100.12584 
L 200.759219 100.03296 
L 203.823581 100.45608 
L 206.849888 100.83792 
L 209.841145 100.11552 
L 213.085227 99.87816 
L 215.916299 100.002 
L 218.939321 100.64184 
L 221.92967 101.41584 
L 224.990013 101.21976 
L 228.017858 101.14752 
L 231.018026 101.00304 
L 234.063134 100.86888 
L 237.04258 101.21976 
L 240.065253 101.28168 
L 243.058607 101.20944 
L 246.123284 101.14752 
L 249.15029 100.55928 
L 252.149899 100.65216 
L 255.174005 99.80592 
L 258.1827 99.96072 
L 261.229694 99.6408 
L 264.202745 99.1764 
L 267.276123 99.70272 
L 270.310817 99.94008 
L 273.31081 98.57784 
L 276.327717 98.65008 
L 279.36 98.38176 
" clip-path="url(#p43d958acec)" style="fill: none; stroke: #f5841e; stroke-width: 0.6"/>
   </g>
  </g>
 </g>
 <defs>
  <clipPath id="p43d958acec">
   <rect x="8.64" y="4.8" width="270.72" height="103.2"/>
  </clipPath>
 </defs>
</svg>
