<?xml version="1.0" encoding="utf-8" standalone="no"?>
<!DOCTYPE svg PUBLIC "-//W3C//DTD SVG 1.1//EN"
  "http://www.w3.org/Graphics/SVG/1.1/DTD/svg11.dtd">
<svg xmlns:xlink="http://www.w3.org/1999/xlink" width="288pt" height="120pt" viewBox="0 0 288 120" xmlns="http://www.w3.org/2000/svg" version="1.1">
<desc id="nav-meta">{"window":"1m","count":4,"labels":["26.01","05.02","14.02","24.02"],"tick_utc":["2026-01-26T12:00:00Z","2026-02-05T03:20:02Z","2026-02-14T03:16:28Z","2026-02-24T01:30:44Z"],"w":720,"h":300}</desc>

 <metadata>
  <rdf:RDF xmlns:dc="http://purl.org/dc/elements/1.1/" xmlns:cc="http://creativecommons.org/ns#" xmlns:rdf="http://www.w3.org/1999/02/22-rdf-syntax-ns#">
   <cc:Work>
    <dc:type rdf:resource="http://purl.org/dc/dcmitype/StillImage"/>
    <dc:date>2026-02-24T19:37:56.510802</dc:date>
    <dc:format>image/svg+xml</dc:format>
    <dc:creator>
     <cc:Agent>
      <dc:title>Matplotlib v3.10.8, https://matplotlib.org/</dc:title>
     </cc:Agent>
    </dc:creator>
   </cc:Work>
  </rdf:RDF>
 </metadata>
 <defs>
  <style type="text/css">*{stroke-linejoin: round; stroke-linecap: butt}</style>
 </defs>
 <g id="figure_1">
  <g id="patch_1">
   <path d="M 0 120 
L 288 120 
L 288 0 
L 0 0 
L 0 120 
z
" style="fill: none; opacity: 0"/>
  </g>
  <g id="axes_1">
   <g id="patch_2">
    <path d="M 8.64 108 
L 279.36 108 
L 279.36 4.8 
L 8.64 4.8 
L 8.64 108 
z
" style="fill: none"/>
   </g>
   <g id="matplotlib.axis_1"/>
   <g id="matplotlib.axis_2"/>
   <g id="line2d_1">
    <path d="M 8.64 87.36 
L 279.36 87.36 
" clip-path="url(#pf1f0142150)" style="fill: none; stroke: #b2b2b2; stroke-opacity: 0.35; stroke-width: 0.5; stroke-linecap: square"/>
   </g>
   <g id="line2d_2">
    <path d="M 8.64 66.72 
L 279.36 66.72 
" clip-path="url(#pf1f0142150)" style="fill: none; stroke: #b2b2b2; stroke-opacity: 0.35; stroke-width: 0.5; stroke-linecap: square"/>
   </g>
   <g id="line2d_3">
    <path d="M 8.64 46.08 
L 279.36 46.08 
" clip-path="url(#pf1f0142150)" style="fill: none; stroke: #b2b2b2; stroke-opacity: 0.35; stroke-width: 0.5; stroke-linecap: square"/>
   </g>
   <g id="line2d_4">
    <path d="M 8.64 25.44 
L 279.36 25.44 
" clip-path="url(#pf1f0142150)" style="fill: none; stroke: #b2b2b2; stroke-opacity: 0.35; stroke-width: 0.5; stroke-linecap: square"/>
   </g>
   <g id="line2d_5">
    <path d="M 8.64 94.0164 
L 18.117993 92.5716 
L 27.595986 91.76664 
L 37.073979 92.33424 
L 46.551972 94.36728 
L 56.029965 94.46016 
L 65.507958 97.71096 
L 74.985951 98.48496 
L 84.463943 97.85544 
L 92.465498 99.10416 
L 99.99754 100.16712 
L 109.470706 102.23112 
L 118.908111 100.54896 
L 128.602759 100.70376 
L 138.002537 100.68312 
L 147.534611 100.95144 
L 156.992968 101.28168 
L 166.436845 101.71512 
L 175.911985 101.84928 
L 185.276001 101.034 
L 194.253876 100.54896 
L 204.339821 101.04432 
L 212.627251 100.81728 
L 223.280778 101.034 
L 232.747253 101.4984 
L 242.169848 101.33328 
L 251.589919 101.1372 
L 261.176185 101.06496 
L 270.6827 102.09696 
L 279.36 102.05568 
" clip-path="url(#pf1f0142150)" style="fill: none; stroke: #bebebe; stroke-width: 0.5; stroke-linecap: round"/>
   </g>
   <g id="line2d_6">
    <path d="M 8.64 77.82432 
L 18.117993 76.14216 
L 27.595986 74.75928 
L 37.073979 74.96568 
L 46.551972 77.75208 
L 56.029965 79.48584 
L 65.507958 83.31456 
L 74.985951 85.90488 
L 84.463943 84.79032 
L 92.465498 85.84296 
L 99.99754 88.25784 
L 109.470706 91.41576 
L 118.908111 88.7532 
L 128.602759 88.65 
L 138.002537 88.55712 
L 147.534611 88.96992 
L 156.992968 89.7336 
L 166.436845 90.456 
L 175.911985 90.56952 
L 185.276001 89.15568 
L 194.253876 88.9596 
L 204.339821 90.6624 
L 212.627251 89.94 
L 223.280778 90.00192 
L 232.747253 90.3528 
L 242.169848 90.62112 
L 251.589919 90.5076 
L 261.176185 90.3528 
L 270.6827 92.004 
L 279.36 92.13816 
" clip-path="url(#pf1f0142150)" style="fill: none; stroke: #4a8dff; stroke-width: 0.6"/>
   </g>
   <g id="line2d_7">
    <path d="M 8.64 87.02976 
L 18.117993 85.21344 
L 27.595986 84.28464 
L 37.073979 84.32592 
L 46.551972 89.08344 
L 56.029965 89.5272 
L 65.507958 95.14128 
L 74.985951 96.98856 
L 84.463943 95.08968 
L 92.465498 97.71096 
L 99.99754 99.80592 
L 109.470706 101.79768 
L 118.908111 100.03296 
L 128.602759 100.518 
L 138.002537 99.98136 
L 147.534611 100.49736 
L 156.992968 100.78632 
L 166.436845 101.07528 
L 175.911985 101.26104 
L 185.276001 100.63152 
L 194.253876 100.38384 
L 204.339821 100.84824 
L 212.627251 100.65216 
L 223.280778 101.034 
L 232.747253 101.19912 
L 242.169848 101.10624 
L 251.589919 100.97208 
L 261.176185 100.91016 
L 270.6827 101.7564 
L 279.36 101.84928 
" clip-path="url(#pf1f0142150)" style="fill: none; stroke: #f5841e; stroke-width: 0.6"/>
   </g>
  </g>
 </g>
 <defs>
  <clipPath id="pf1f0142150">
   <rect x="8.64" y="4.8" width="270.72" height="103.2"/>
  </clipPath>
 </defs>
</svg>
