<?xml version="1.0" encoding="utf-8" standalone="no"?>
<!DOCTYPE svg PUBLIC "-//W3C//DTD SVG 1.1//EN"
  "http://www.w3.org/Graphics/SVG/1.1/DTD/svg11.dtd">
<svg xmlns:xlink="http://www.w3.org/1999/xlink" width="288pt" height="120pt" viewBox="0 0 288 120" xmlns="http://www.w3.org/2000/svg" version="1.1">
<desc id="nav-meta">{"window":"1m","count":4,"labels":["19.06","29.06","09.07","19.07"],"tick_utc":["2026-06-19T05:57:01Z","2026-06-29T05:17:50Z","2026-07-09T04:41:51Z","2026-07-19T04:06:12Z"],"w":720,"h":300}</desc>

 <metadata>
  <rdf:RDF xmlns:dc="http://purl.org/dc/elements/1.1/" xmlns:cc="http://creativecommons.org/ns#" xmlns:rdf="http://www.w3.org/1999/02/22-rdf-syntax-ns#">
   <cc:Work>
    <dc:type rdf:resource="http://purl.org/dc/dcmitype/StillImage"/>
    <dc:date>2026-07-19T04:06:14.122087</dc:date>
    <dc:format>image/svg+xml</dc:format>
    <dc:creator>
     <cc:Agent>
      <dc:title>Matplotlib v3.11.1, https://matplotlib.org/</dc:title>
     </cc:Agent>
    </dc:creator>
   </cc:Work>
  </rdf:RDF>
 </metadata>
 <defs>
  <style type="text/css">*{stroke-linejoin: round; stroke-linecap: butt}</style>
 </defs>
 <g id="figure_1">
  <g id="patch_1">
   <path d="M 0 120 
L 288 120 
L 288 0 
L 0 0 
L 0 120 
z
" style="fill: none; opacity: 0"/>
  </g>
  <g id="axes_1">
   <g id="patch_2">
    <path d="M 8.64 108 
L 279.36 108 
L 279.36 4.8 
L 8.64 4.8 
L 8.64 108 
z
" style="fill: none"/>
   </g>
   <g id="matplotlib.axis_1"/>
   <g id="matplotlib.axis_2"/>
   <g id="line2d_1">
    <path d="M 8.64 87.36 
L 279.36 87.36 
" clip-path="url(#p75493cd273)" style="fill: none; stroke: #b2b2b2; stroke-opacity: 0.35; stroke-width: 0.5; stroke-linecap: square"/>
   </g>
   <g id="line2d_2">
    <path d="M 8.64 66.72 
L 279.36 66.72 
" clip-path="url(#p75493cd273)" style="fill: none; stroke: #b2b2b2; stroke-opacity: 0.35; stroke-width: 0.5; stroke-linecap: square"/>
   </g>
   <g id="line2d_3">
    <path d="M 8.64 46.08 
L 279.36 46.08 
" clip-path="url(#p75493cd273)" style="fill: none; stroke: #b2b2b2; stroke-opacity: 0.35; stroke-width: 0.5; stroke-linecap: square"/>
   </g>
   <g id="line2d_4">
    <path d="M 8.64 25.44 
L 279.36 25.44 
" clip-path="url(#p75493cd273)" style="fill: none; stroke: #b2b2b2; stroke-opacity: 0.35; stroke-width: 0.5; stroke-linecap: square"/>
   </g>
   <g id="line2d_5">
    <path d="M 8.64 103.28376 
L 17.325424 103.01544 
L 26.560906 102.69552 
L 35.872933 102.582 
L 44.379298 102.88128 
L 53.458863 103.15992 
L 62.503662 103.36632 
L 71.597258 103.36632 
L 80.533575 102.81936 
L 89.753245 103.0464 
L 98.865899 102.9432 
L 107.737712 102.59232 
L 116.917277 102.40656 
L 125.806054 102.02472 
L 134.754832 101.68416 
L 143.763087 101.3436 
L 152.942757 101.6532 
L 162.077609 101.6532 
L 170.989109 101.63256 
L 179.790451 101.95248 
L 189.111902 102.08664 
L 198.138691 101.9112 
L 206.918776 102.066 
L 216.101273 102.18984 
L 225.168272 102.31368 
L 234.006263 102.45816 
L 243.055775 102.08664 
L 252.125601 102.21048 
L 261.174274 102.4272 
L 270.17677 102.4272 
L 279.36 102.34464 
" clip-path="url(#p75493cd273)" style="fill: none; stroke: #bebebe; stroke-width: 0.5; stroke-linecap: round"/>
   </g>
   <g id="line2d_6">
    <path d="M 8.64 94.4292 
L 17.325424 94.19184 
L 26.560906 93.87192 
L 35.872933 93.81 
L 44.379298 94.03704 
L 53.458863 94.83168 
L 62.503662 95.48184 
L 71.597258 96.63768 
L 80.533575 96.14232 
L 89.753245 96.30744 
L 98.865899 96.29712 
L 107.737712 96.04944 
L 116.917277 95.9256 
L 125.806054 95.39928 
L 134.754832 94.31568 
L 143.763087 93.57264 
L 152.942757 93.32496 
L 162.077609 93.22176 
L 170.989109 93.35592 
L 179.790451 93.61392 
L 189.111902 93.77904 
L 198.138691 93.26304 
L 206.918776 92.92248 
L 216.101273 92.71608 
L 225.168272 93.15984 
L 234.006263 93.17016 
L 243.055775 91.80792 
L 252.125601 91.14744 
L 261.174274 92.13816 
L 270.17677 92.25168 
L 279.36 91.9008 
" clip-path="url(#p75493cd273)" style="fill: none; stroke: #4a8dff; stroke-width: 0.6"/>
   </g>
   <g id="line2d_7">
    <path d="M 8.64 102.26208 
L 17.325424 102.066 
L 26.560906 101.90088 
L 35.872933 101.90088 
L 44.379298 102.0144 
L 53.458863 102.25176 
L 62.503662 102.6336 
L 71.597258 102.88128 
L 80.533575 102.77808 
L 89.753245 102.85032 
L 98.865899 102.93288 
L 107.737712 102.95352 
L 116.917277 103.00512 
L 125.806054 102.69552 
L 134.754832 102.55104 
L 143.763087 102.2724 
L 152.942757 102.21048 
L 162.077609 102.12792 
L 170.989109 102.13824 
L 179.790451 102.25176 
L 189.111902 102.36528 
L 198.138691 101.94216 
L 206.918776 101.92152 
L 216.101273 101.9112 
L 225.168272 102.2208 
L 234.006263 102.31368 
L 243.055775 101.79768 
L 252.125601 101.81832 
L 261.174274 102.07632 
L 270.17677 101.97312 
L 279.36 101.79768 
" clip-path="url(#p75493cd273)" style="fill: none; stroke: #f5841e; stroke-width: 0.6"/>
   </g>
  </g>
 </g>
 <defs>
  <clipPath id="p75493cd273">
   <rect x="8.64" y="4.8" width="270.72" height="103.2"/>
  </clipPath>
 </defs>
</svg>
