<?xml version="1.0" encoding="utf-8" standalone="no"?>
<!DOCTYPE svg PUBLIC "-//W3C//DTD SVG 1.1//EN"
  "http://www.w3.org/Graphics/SVG/1.1/DTD/svg11.dtd">
<svg xmlns:xlink="http://www.w3.org/1999/xlink" width="288pt" height="120pt" viewBox="0 0 288 120" xmlns="http://www.w3.org/2000/svg" version="1.1">
<desc id="nav-meta">{"window":"3m","count":4,"labels":["24.12","23.01","22.02","24.03"],"tick_utc":["2025-12-24T12:00:00Z","2026-01-23T12:00:00Z","2026-02-22T03:28:03Z","2026-03-24T03:21:58Z"],"w":720,"h":300}</desc>

 <metadata>
  <rdf:RDF xmlns:dc="http://purl.org/dc/elements/1.1/" xmlns:cc="http://creativecommons.org/ns#" xmlns:rdf="http://www.w3.org/1999/02/22-rdf-syntax-ns#">
   <cc:Work>
    <dc:type rdf:resource="http://purl.org/dc/dcmitype/StillImage"/>
    <dc:date>2026-03-24T03:22:00.133523</dc:date>
    <dc:format>image/svg+xml</dc:format>
    <dc:creator>
     <cc:Agent>
      <dc:title>Matplotlib v3.10.8, https://matplotlib.org/</dc:title>
     </cc:Agent>
    </dc:creator>
   </cc:Work>
  </rdf:RDF>
 </metadata>
 <defs>
  <style type="text/css">*{stroke-linejoin: round; stroke-linecap: butt}</style>
 </defs>
 <g id="figure_1">
  <g id="patch_1">
   <path d="M 0 120 
L 288 120 
L 288 0 
L 0 0 
L 0 120 
z
" style="fill: none; opacity: 0"/>
  </g>
  <g id="axes_1">
   <g id="patch_2">
    <path d="M 8.64 108 
L 279.36 108 
L 279.36 4.8 
L 8.64 4.8 
L 8.64 108 
z
" style="fill: none"/>
   </g>
   <g id="matplotlib.axis_1"/>
   <g id="matplotlib.axis_2"/>
   <g id="line2d_1">
    <path d="M 8.64 87.36 
L 279.36 87.36 
" clip-path="url(#pb4b2cfa19f)" style="fill: none; stroke: #b2b2b2; stroke-opacity: 0.35; stroke-width: 0.5; stroke-linecap: square"/>
   </g>
   <g id="line2d_2">
    <path d="M 8.64 66.72 
L 279.36 66.72 
" clip-path="url(#pb4b2cfa19f)" style="fill: none; stroke: #b2b2b2; stroke-opacity: 0.35; stroke-width: 0.5; stroke-linecap: square"/>
   </g>
   <g id="line2d_3">
    <path d="M 8.64 46.08 
L 279.36 46.08 
" clip-path="url(#pb4b2cfa19f)" style="fill: none; stroke: #b2b2b2; stroke-opacity: 0.35; stroke-width: 0.5; stroke-linecap: square"/>
   </g>
   <g id="line2d_4">
    <path d="M 8.64 25.44 
L 279.36 25.44 
" clip-path="url(#pb4b2cfa19f)" style="fill: none; stroke: #b2b2b2; stroke-opacity: 0.35; stroke-width: 0.5; stroke-linecap: square"/>
   </g>
   <g id="line2d_5">
    <path d="M 8.64 92.64384 
L 11.660072 93.01536 
L 14.680143 93.69648 
L 17.700215 93.11856 
L 20.720287 92.44776 
L 23.740359 92.30328 
L 26.76043 92.87088 
L 29.780502 92.38584 
L 32.800574 92.47872 
L 35.820646 91.88016 
L 38.840717 90.42504 
L 41.860789 90.08448 
L 44.880861 89.92968 
L 47.900933 88.76352 
L 50.921004 87.94824 
L 53.941076 89.2692 
L 56.961148 88.72224 
L 59.98122 89.39304 
L 63.001291 89.40336 
L 66.021363 88.41264 
L 69.041435 88.4952 
L 72.061507 86.86464 
L 75.081578 86.42088 
L 78.10165 87.62832 
L 81.121722 86.93688 
L 84.141794 87.23616 
L 87.161865 88.63968 
L 90.181937 90.0432 
L 93.202009 92.12784 
L 96.222081 91.16808 
L 99.242152 91.46736 
L 102.262224 91.73568 
L 105.282296 91.78728 
L 108.302368 94.0164 
L 111.322439 92.5716 
L 114.342511 91.76664 
L 117.362583 92.33424 
L 120.382654 94.36728 
L 123.402726 94.46016 
L 126.422798 97.71096 
L 129.44287 98.48496 
L 132.462941 97.85544 
L 135.01256 99.10416 
L 137.412573 100.16712 
L 140.431107 102.23112 
L 143.438246 100.54896 
L 146.527353 100.70376 
L 149.522502 100.68312 
L 152.559806 100.95144 
L 155.573621 101.28168 
L 158.582822 101.71512 
L 161.601985 101.84928 
L 164.585739 101.034 
L 167.446453 100.54896 
L 170.660243 101.04432 
L 173.300953 100.81728 
L 176.695597 101.034 
L 179.711999 101.4984 
L 182.714419 101.33328 
L 185.716034 101.1372 
L 188.770606 101.06496 
L 191.799766 102.09696 
L 194.564705 102.05568 
L 197.829039 101.4984 
L 200.835653 100.60056 
L 203.849992 100.80696 
L 206.83448 101.45712 
L 209.923168 100.55928 
L 212.91206 101.10624 
L 215.939158 100.8792 
L 218.942311 100.74504 
L 221.968885 100.21872 
L 224.987523 100.53864 
L 227.98442 101.07528 
L 231.033819 101.38488 
L 234.062944 101.26104 
L 237.063616 100.78632 
L 240.082499 100.91016 
L 243.114455 100.99272 
L 246.12869 100.38384 
L 249.144741 100.50768 
L 252.222593 100.60056 
L 255.251194 99.76464 
L 258.218414 99.49632 
L 261.261521 99.40344 
L 264.282432 100.09488 
L 267.273107 100.3632 
L 270.275491 100.19808 
L 273.340724 100.47672 
L 276.367892 100.79664 
L 279.36 100.26 
" clip-path="url(#pb4b2cfa19f)" style="fill: none; stroke: #bebebe; stroke-width: 0.5; stroke-linecap: round"/>
   </g>
   <g id="line2d_6">
    <path d="M 8.64 75.58488 
L 11.660072 75.87384 
L 14.680143 76.49304 
L 17.700215 76.15248 
L 20.720287 75.82224 
L 23.740359 75.84288 
L 26.76043 76.03896 
L 29.780502 75.51264 
L 32.800574 75.56424 
L 35.820646 75.05856 
L 38.840717 73.26288 
L 41.860789 73.20096 
L 44.880861 73.00488 
L 47.900933 71.68392 
L 50.921004 70.6932 
L 53.941076 72.62304 
L 56.961148 73.52088 
L 59.98122 73.83048 
L 63.001291 73.8408 
L 66.021363 73.29384 
L 69.041435 73.72728 
L 72.061507 70.32168 
L 75.081578 69.77472 
L 78.10165 70.34232 
L 81.121722 70.67256 
L 84.141794 70.51776 
L 87.161865 70.848 
L 90.181937 72.31344 
L 93.202009 76.01832 
L 96.222081 75.41976 
L 99.242152 75.83256 
L 102.262224 75.79128 
L 105.282296 75.82224 
L 108.302368 77.82432 
L 111.322439 76.14216 
L 114.342511 74.75928 
L 117.362583 74.96568 
L 120.382654 77.75208 
L 123.402726 79.48584 
L 126.422798 83.31456 
L 129.44287 85.90488 
L 132.462941 84.79032 
L 135.01256 85.84296 
L 137.412573 88.25784 
L 140.431107 91.41576 
L 143.438246 88.7532 
L 146.527353 88.65 
L 149.522502 88.55712 
L 152.559806 88.96992 
L 155.573621 89.7336 
L 158.582822 90.456 
L 161.601985 90.56952 
L 164.585739 89.15568 
L 167.446453 88.9596 
L 170.660243 90.6624 
L 173.300953 89.94 
L 176.695597 90.00192 
L 179.711999 90.3528 
L 182.714419 90.62112 
L 185.716034 90.5076 
L 188.770606 90.3528 
L 191.799766 92.004 
L 194.564705 92.13816 
L 197.829039 91.25064 
L 200.835653 89.166 
L 203.849992 89.56848 
L 206.83448 90.93072 
L 209.923168 89.41368 
L 212.91206 90.37344 
L 215.939158 89.79552 
L 218.942311 90.23928 
L 221.968885 88.0824 
L 224.987523 88.7532 
L 227.98442 90.16704 
L 231.033819 90.67272 
L 234.062944 90.18768 
L 237.063616 89.2692 
L 240.082499 89.54784 
L 243.114455 89.49624 
L 246.12869 88.31976 
L 249.144741 88.45392 
L 252.222593 88.46424 
L 255.251194 86.38992 
L 258.218414 84.80064 
L 261.261521 84.8316 
L 264.282432 86.586 
L 267.273107 87.74184 
L 270.275491 87.618 
L 273.340724 88.19592 
L 276.367892 89.08344 
L 279.36 87.89664 
" clip-path="url(#pb4b2cfa19f)" style="fill: none; stroke: #4a8dff; stroke-width: 0.6"/>
   </g>
   <g id="line2d_7">
    <path d="M 8.64 86.14224 
L 11.660072 85.90488 
L 14.680143 86.328 
L 17.700215 86.24544 
L 20.720287 85.72944 
L 23.740359 85.7088 
L 26.76043 86.40024 
L 29.780502 85.09992 
L 32.800574 86.02872 
L 35.820646 84.78 
L 38.840717 83.53128 
L 41.860789 82.83984 
L 44.880861 82.03488 
L 47.900933 79.39296 
L 50.921004 79.66128 
L 53.941076 82.15872 
L 56.961148 82.43736 
L 59.98122 82.93272 
L 63.001291 83.00496 
L 66.021363 82.6128 
L 69.041435 82.28256 
L 72.061507 78.01008 
L 75.081578 76.19376 
L 78.10165 77.66952 
L 81.121722 77.74176 
L 84.141794 78.1752 
L 87.161865 79.5684 
L 90.181937 80.8068 
L 93.202009 85.20312 
L 96.222081 84.12984 
L 99.242152 84.03696 
L 102.262224 84.06792 
L 105.282296 84.3156 
L 108.302368 87.02976 
L 111.322439 85.21344 
L 114.342511 84.28464 
L 117.362583 84.32592 
L 120.382654 89.08344 
L 123.402726 89.5272 
L 126.422798 95.14128 
L 129.44287 96.98856 
L 132.462941 95.08968 
L 135.01256 97.71096 
L 137.412573 99.80592 
L 140.431107 101.79768 
L 143.438246 100.03296 
L 146.527353 100.518 
L 149.522502 99.98136 
L 152.559806 100.49736 
L 155.573621 100.78632 
L 158.582822 101.07528 
L 161.601985 101.26104 
L 164.585739 100.63152 
L 167.446453 100.38384 
L 170.660243 100.84824 
L 173.300953 100.65216 
L 176.695597 101.034 
L 179.711999 101.19912 
L 182.714419 101.10624 
L 185.716034 100.97208 
L 188.770606 100.91016 
L 191.799766 101.7564 
L 194.564705 101.84928 
L 197.829039 101.56032 
L 200.835653 100.85856 
L 203.849992 101.12688 
L 206.83448 101.4468 
L 209.923168 101.02368 
L 212.91206 101.30232 
L 215.939158 100.81728 
L 218.942311 100.79664 
L 221.968885 99.3312 
L 224.987523 99.92976 
L 227.98442 100.78632 
L 231.033819 101.17848 
L 234.062944 101.1372 
L 237.063616 100.21872 
L 240.082499 100.37352 
L 243.114455 100.4664 
L 246.12869 99.88848 
L 249.144741 99.94008 
L 252.222593 99.81624 
L 255.251194 98.93904 
L 258.218414 98.3508 
L 261.261521 98.52624 
L 264.282432 99.78528 
L 267.273107 100.12584 
L 270.275491 100.03296 
L 273.340724 100.45608 
L 276.367892 100.83792 
L 279.36 100.11552 
" clip-path="url(#pb4b2cfa19f)" style="fill: none; stroke: #f5841e; stroke-width: 0.6"/>
   </g>
  </g>
 </g>
 <defs>
  <clipPath id="pb4b2cfa19f">
   <rect x="8.64" y="4.8" width="270.72" height="103.2"/>
  </clipPath>
 </defs>
</svg>
