<?xml version="1.0" encoding="utf-8" standalone="no"?>
<!DOCTYPE svg PUBLIC "-//W3C//DTD SVG 1.1//EN"
  "http://www.w3.org/Graphics/SVG/1.1/DTD/svg11.dtd">
<svg xmlns:xlink="http://www.w3.org/1999/xlink" width="288pt" height="120pt" viewBox="0 0 288 120" xmlns="http://www.w3.org/2000/svg" version="1.1">
<desc id="nav-meta">{"window":"3m","count":4,"labels":["19.03","18.04","17.05","16.06"],"tick_utc":["2026-03-19T03:32:50Z","2026-04-18T03:39:51Z","2026-05-17T04:42:26Z","2026-06-16T06:15:52Z"],"w":720,"h":300}</desc>

 <metadata>
  <rdf:RDF xmlns:dc="http://purl.org/dc/elements/1.1/" xmlns:cc="http://creativecommons.org/ns#" xmlns:rdf="http://www.w3.org/1999/02/22-rdf-syntax-ns#">
   <cc:Work>
    <dc:type rdf:resource="http://purl.org/dc/dcmitype/StillImage"/>
    <dc:date>2026-06-16T17:48:35.986468</dc:date>
    <dc:format>image/svg+xml</dc:format>
    <dc:creator>
     <cc:Agent>
      <dc:title>Matplotlib v3.11.0, https://matplotlib.org/</dc:title>
     </cc:Agent>
    </dc:creator>
   </cc:Work>
  </rdf:RDF>
 </metadata>
 <defs>
  <style type="text/css">*{stroke-linejoin: round; stroke-linecap: butt}</style>
 </defs>
 <g id="figure_1">
  <g id="patch_1">
   <path d="M 0 120 
L 288 120 
L 288 0 
L 0 0 
L 0 120 
z
" style="fill: none; opacity: 0"/>
  </g>
  <g id="axes_1">
   <g id="patch_2">
    <path d="M 8.64 108 
L 279.36 108 
L 279.36 4.8 
L 8.64 4.8 
L 8.64 108 
z
" style="fill: none"/>
   </g>
   <g id="matplotlib.axis_1"/>
   <g id="matplotlib.axis_2"/>
   <g id="line2d_1">
    <path d="M 8.64 87.36 
L 279.36 87.36 
" clip-path="url(#p9ea37b495f)" style="fill: none; stroke: #b2b2b2; stroke-opacity: 0.35; stroke-width: 0.5; stroke-linecap: square"/>
   </g>
   <g id="line2d_2">
    <path d="M 8.64 66.72 
L 279.36 66.72 
" clip-path="url(#p9ea37b495f)" style="fill: none; stroke: #b2b2b2; stroke-opacity: 0.35; stroke-width: 0.5; stroke-linecap: square"/>
   </g>
   <g id="line2d_3">
    <path d="M 8.64 46.08 
L 279.36 46.08 
" clip-path="url(#p9ea37b495f)" style="fill: none; stroke: #b2b2b2; stroke-opacity: 0.35; stroke-width: 0.5; stroke-linecap: square"/>
   </g>
   <g id="line2d_4">
    <path d="M 8.64 25.44 
L 279.36 25.44 
" clip-path="url(#p9ea37b495f)" style="fill: none; stroke: #b2b2b2; stroke-opacity: 0.35; stroke-width: 0.5; stroke-linecap: square"/>
   </g>
   <g id="line2d_5">
    <path d="M 8.64 100.09488 
L 11.648363 100.3632 
L 14.668504 100.19808 
L 17.751866 100.47672 
L 20.796937 100.79664 
L 23.806741 100.26 
L 27.070937 99.83688 
L 29.919562 100.13616 
L 32.961327 100.80696 
L 35.970217 101.38488 
L 39.049535 101.3436 
L 42.096153 101.292 
L 45.114924 101.28168 
L 48.178911 101.28168 
L 51.176831 101.8596 
L 54.218245 101.88024 
L 57.230159 101.72544 
L 60.313837 101.68416 
L 63.359611 101.47776 
L 66.377819 101.78736 
L 69.420674 101.09592 
L 72.448024 101.46744 
L 75.51391 101.3436 
L 78.505396 101.05464 
L 81.597829 101.3952 
L 84.651338 101.47776 
L 87.669933 100.86888 
L 90.705545 101.26104 
L 93.756629 100.99272 
L 96.788374 100.61088 
L 99.792798 100.44576 
L 102.87085 100.94112 
L 105.916308 101.09592 
L 108.940915 101.00304 
L 111.969425 100.69344 
L 115.019665 100.9308 
L 118.06565 100.92048 
L 121.067332 100.81728 
L 124.152522 100.8792 
L 127.22319 100.64184 
L 130.267487 101.1888 
L 133.297122 101.09592 
L 136.340154 101.37456 
L 139.411279 101.21976 
L 142.371682 101.20944 
L 145.471288 101.23008 
L 148.508166 100.92048 
L 151.479188 101.06496 
L 154.570636 100.70376 
L 157.609378 100.55928 
L 160.596749 100.53864 
L 163.645793 99.60984 
L 166.744942 99.72336 
L 169.806856 99.44472 
L 172.802595 99.25896 
L 175.85498 99.32088 
L 178.889537 100.22904 
L 181.942449 100.01232 
L 184.9416 100.43544 
L 188.024891 100.75536 
L 191.092324 101.02368 
L 194.108493 101.02368 
L 197.157291 101.17848 
L 200.212523 100.7244 
L 203.227179 100.75536 
L 206.223376 101.11656 
L 209.30941 100.91016 
L 212.387322 100.89984 
L 215.379229 101.1372 
L 218.44835 101.2404 
L 221.476579 101.6532 
L 224.516762 101.4984 
L 227.510884 101.48808 
L 230.610842 101.32296 
L 233.693711 101.51904 
L 236.701757 101.7048 
L 239.773867 102.54072 
L 242.801393 103.08768 
L 245.789291 103.36632 
L 248.78053 104.22288 
L 251.883758 103.85136 
L 254.935123 103.68624 
L 257.915075 103.43856 
L 260.984513 103.81008 
L 264.040273 103.72752 
L 267.090125 103.50048 
L 270.105837 103.5108 
L 273.165816 103.31472 
L 276.304732 102.95352 
L 279.36 102.61296 
" clip-path="url(#p9ea37b495f)" style="fill: none; stroke: #bebebe; stroke-width: 0.5; stroke-linecap: round"/>
   </g>
   <g id="line2d_6">
    <path d="M 8.64 86.586 
L 11.648363 87.74184 
L 14.668504 87.618 
L 17.751866 88.19592 
L 20.796937 89.08344 
L 23.806741 87.89664 
L 27.070937 87.3084 
L 29.919562 87.65928 
L 32.961327 88.96992 
L 35.970217 90.07416 
L 39.049535 89.76456 
L 42.096153 89.3724 
L 45.114924 89.00088 
L 48.178911 88.42296 
L 51.176831 88.81512 
L 54.218245 89.10408 
L 57.230159 89.14536 
L 60.313837 89.07312 
L 63.359611 87.9792 
L 66.377819 88.29912 
L 69.420674 86.38992 
L 72.448024 87.24648 
L 75.51391 87.1536 
L 78.505396 86.21448 
L 81.597829 86.66856 
L 84.651338 87.01944 
L 87.669933 84.44976 
L 90.705545 85.05864 
L 93.756629 84.58392 
L 96.788374 85.04832 
L 99.792798 83.71704 
L 102.87085 84.86256 
L 105.916308 85.6572 
L 108.940915 85.27536 
L 111.969425 84.49104 
L 115.019665 84.86256 
L 118.06565 85.32696 
L 121.067332 85.17216 
L 124.152522 85.31664 
L 127.22319 84.11952 
L 130.267487 85.66752 
L 133.297122 85.26504 
L 136.340154 86.26608 
L 139.411279 85.77072 
L 142.371682 85.38888 
L 145.471288 85.3992 
L 148.508166 84.09888 
L 151.479188 84.22272 
L 154.570636 84.34656 
L 157.609378 85.06896 
L 160.596749 85.7604 
L 163.645793 85.0896 
L 166.744942 85.01736 
L 169.806856 84.9348 
L 172.802595 85.296 
L 175.85498 85.35792 
L 178.889537 86.1732 
L 181.942449 85.92552 
L 184.9416 86.55504 
L 188.024891 87.13296 
L 191.092324 88.10304 
L 194.108493 87.9276 
L 197.157291 88.26816 
L 200.212523 87.78312 
L 203.227179 87.95856 
L 206.223376 88.94928 
L 209.30941 88.14432 
L 212.387322 88.33008 
L 215.379229 88.52616 
L 218.44835 88.86672 
L 221.476579 90.22896 
L 224.516762 89.82648 
L 227.510884 89.87808 
L 230.610842 89.46528 
L 233.693711 90.0432 
L 236.701757 89.96064 
L 239.773867 91.99368 
L 242.801393 93.05664 
L 245.789291 93.74808 
L 248.78053 97.02984 
L 251.883758 95.93592 
L 254.935123 95.07936 
L 257.915075 94.46016 
L 260.984513 95.47152 
L 264.040273 95.11032 
L 267.090125 94.82136 
L 270.105837 94.8936 
L 273.165816 94.70784 
L 276.304732 94.04736 
L 279.36 93.40752 
" clip-path="url(#p9ea37b495f)" style="fill: none; stroke: #4a8dff; stroke-width: 0.6"/>
   </g>
   <g id="line2d_7">
    <path d="M 8.64 99.78528 
L 11.648363 100.12584 
L 14.668504 100.03296 
L 17.751866 100.45608 
L 20.796937 100.83792 
L 23.806741 100.11552 
L 27.070937 99.87816 
L 29.919562 100.002 
L 32.961327 100.64184 
L 35.970217 101.41584 
L 39.049535 101.21976 
L 42.096153 101.14752 
L 45.114924 101.00304 
L 48.178911 100.86888 
L 51.176831 101.21976 
L 54.218245 101.28168 
L 57.230159 101.20944 
L 60.313837 101.14752 
L 63.359611 100.55928 
L 66.377819 100.65216 
L 69.420674 99.80592 
L 72.448024 99.96072 
L 75.51391 99.6408 
L 78.505396 99.1764 
L 81.597829 99.70272 
L 84.651338 99.94008 
L 87.669933 98.57784 
L 90.705545 98.65008 
L 93.756629 98.38176 
L 96.788374 98.48496 
L 99.792798 96.70992 
L 102.87085 98.05152 
L 105.916308 98.48496 
L 108.940915 97.96896 
L 111.969425 96.32808 
L 115.019665 96.20424 
L 118.06565 96.16296 
L 121.067332 96.1836 
L 124.152522 96.50352 
L 127.22319 94.76976 
L 130.267487 97.19496 
L 133.297122 96.9576 
L 136.340154 97.9896 
L 139.411279 96.89568 
L 142.371682 95.45088 
L 145.471288 95.67792 
L 148.508166 93.43848 
L 151.479188 92.90184 
L 154.570636 92.25168 
L 157.609378 92.87088 
L 160.596749 94.2744 
L 163.645793 93.1392 
L 166.744942 92.97408 
L 169.806856 92.9844 
L 172.802595 92.60256 
L 175.85498 92.53032 
L 178.889537 94.54272 
L 181.942449 92.85024 
L 184.9416 94.82136 
L 188.024891 95.75016 
L 191.092324 96.97824 
L 194.108493 97.08144 
L 197.157291 97.23624 
L 200.212523 95.94624 
L 203.227179 96.30744 
L 206.223376 98.08248 
L 209.30941 97.2672 
L 212.387322 96.61704 
L 215.379229 97.23624 
L 218.44835 98.08248 
L 221.476579 99.18672 
L 224.516762 99.03192 
L 227.510884 99.1248 
L 230.610842 98.74296 
L 233.693711 99.09384 
L 236.701757 100.0536 
L 239.773867 101.23008 
L 242.801393 101.99376 
L 245.789291 102.08664 
L 248.78053 102.8916 
L 251.883758 102.45816 
L 254.935123 102.28272 
L 257.915075 102.10728 
L 260.984513 102.582 
L 264.040273 102.29304 
L 267.090125 102.08664 
L 270.105837 102.066 
L 273.165816 101.86992 
L 276.304732 101.48808 
L 279.36 101.40552 
" clip-path="url(#p9ea37b495f)" style="fill: none; stroke: #f5841e; stroke-width: 0.6"/>
   </g>
  </g>
 </g>
 <defs>
  <clipPath id="p9ea37b495f">
   <rect x="8.64" y="4.8" width="270.72" height="103.2"/>
  </clipPath>
 </defs>
</svg>
