<?xml version="1.0" encoding="utf-8" standalone="no"?>
<!DOCTYPE svg PUBLIC "-//W3C//DTD SVG 1.1//EN"
  "http://www.w3.org/Graphics/SVG/1.1/DTD/svg11.dtd">
<svg xmlns:xlink="http://www.w3.org/1999/xlink" width="288pt" height="120pt" viewBox="0 0 288 120" xmlns="http://www.w3.org/2000/svg" version="1.1">
<desc id="nav-meta">{"window":"3m","count":4,"labels":["29.12","28.01","26.02","28.03"],"tick_utc":["2025-12-29T12:00:00Z","2026-01-28T12:00:00Z","2026-02-26T03:20:47Z","2026-03-28T03:27:32Z"],"w":720,"h":300}</desc>

 <metadata>
  <rdf:RDF xmlns:dc="http://purl.org/dc/elements/1.1/" xmlns:cc="http://creativecommons.org/ns#" xmlns:rdf="http://www.w3.org/1999/02/22-rdf-syntax-ns#">
   <cc:Work>
    <dc:type rdf:resource="http://purl.org/dc/dcmitype/StillImage"/>
    <dc:date>2026-03-28T13:37:20.543130</dc:date>
    <dc:format>image/svg+xml</dc:format>
    <dc:creator>
     <cc:Agent>
      <dc:title>Matplotlib v3.10.8, https://matplotlib.org/</dc:title>
     </cc:Agent>
    </dc:creator>
   </cc:Work>
  </rdf:RDF>
 </metadata>
 <defs>
  <style type="text/css">*{stroke-linejoin: round; stroke-linecap: butt}</style>
 </defs>
 <g id="figure_1">
  <g id="patch_1">
   <path d="M 0 120 
L 288 120 
L 288 0 
L 0 0 
L 0 120 
z
" style="fill: none; opacity: 0"/>
  </g>
  <g id="axes_1">
   <g id="patch_2">
    <path d="M 8.64 108 
L 279.36 108 
L 279.36 4.8 
L 8.64 4.8 
L 8.64 108 
z
" style="fill: none"/>
   </g>
   <g id="matplotlib.axis_1"/>
   <g id="matplotlib.axis_2"/>
   <g id="line2d_1">
    <path d="M 8.64 87.36 
L 279.36 87.36 
" clip-path="url(#p573254fca5)" style="fill: none; stroke: #b2b2b2; stroke-opacity: 0.35; stroke-width: 0.5; stroke-linecap: square"/>
   </g>
   <g id="line2d_2">
    <path d="M 8.64 66.72 
L 279.36 66.72 
" clip-path="url(#p573254fca5)" style="fill: none; stroke: #b2b2b2; stroke-opacity: 0.35; stroke-width: 0.5; stroke-linecap: square"/>
   </g>
   <g id="line2d_3">
    <path d="M 8.64 46.08 
L 279.36 46.08 
" clip-path="url(#p573254fca5)" style="fill: none; stroke: #b2b2b2; stroke-opacity: 0.35; stroke-width: 0.5; stroke-linecap: square"/>
   </g>
   <g id="line2d_4">
    <path d="M 8.64 25.44 
L 279.36 25.44 
" clip-path="url(#p573254fca5)" style="fill: none; stroke: #b2b2b2; stroke-opacity: 0.35; stroke-width: 0.5; stroke-linecap: square"/>
   </g>
   <g id="line2d_5">
    <path d="M 8.64 92.30328 
L 11.69401 92.87088 
L 14.748019 92.38584 
L 17.802029 92.47872 
L 20.856039 91.88016 
L 23.910048 90.42504 
L 26.964058 90.08448 
L 30.018068 89.92968 
L 33.072077 88.76352 
L 36.126087 87.94824 
L 39.180097 89.2692 
L 42.234106 88.72224 
L 45.288116 89.39304 
L 48.342126 89.40336 
L 51.396135 88.41264 
L 54.450145 88.4952 
L 57.504155 86.86464 
L 60.558164 86.42088 
L 63.612174 87.62832 
L 66.666184 86.93688 
L 69.720193 87.23616 
L 72.774203 88.63968 
L 75.828213 90.0432 
L 78.882222 92.12784 
L 81.936232 91.16808 
L 84.990242 91.46736 
L 88.044251 91.73568 
L 91.098261 91.78728 
L 94.152271 94.0164 
L 97.20628 92.5716 
L 100.26029 91.76664 
L 103.314299 92.33424 
L 106.368309 94.36728 
L 109.422319 94.46016 
L 112.476328 97.71096 
L 115.530338 98.48496 
L 118.584348 97.85544 
L 121.162618 99.10416 
L 123.589601 100.16712 
L 126.642055 102.23112 
L 129.682987 100.54896 
L 132.806807 100.70376 
L 135.835614 100.68312 
L 138.90705 100.95144 
L 141.954733 101.28168 
L 144.997749 101.71512 
L 148.05084 101.84928 
L 151.068124 101.034 
L 153.960985 100.54896 
L 157.210889 101.04432 
L 159.881274 100.81728 
L 163.314066 101.034 
L 166.364364 101.4984 
L 169.400524 101.33328 
L 172.43587 101.1372 
L 175.524767 101.06496 
L 178.587967 102.09696 
L 181.383977 102.05568 
L 184.684994 101.4984 
L 187.725395 100.60056 
L 190.773607 100.80696 
L 193.791633 101.45712 
L 196.91503 100.55928 
L 199.93751 101.10624 
L 202.998624 100.8792 
L 206.035526 100.74504 
L 209.09611 100.21872 
L 212.14867 100.53864 
L 215.179245 101.07528 
L 218.262911 101.38488 
L 221.326075 101.26104 
L 224.360467 100.78632 
L 227.413275 100.91016 
L 230.479303 100.99272 
L 233.52741 100.38384 
L 236.577354 100.50768 
L 239.689793 100.60056 
L 242.752427 99.76464 
L 245.752992 99.49632 
L 248.830296 99.40344 
L 251.885154 100.09488 
L 254.909436 100.3632 
L 257.94556 100.19808 
L 261.045238 100.47672 
L 264.106424 100.79664 
L 267.132155 100.26 
L 270.413625 99.83688 
L 273.277325 100.13616 
L 276.335187 100.80696 
L 279.36 101.38488 
" clip-path="url(#p573254fca5)" style="fill: none; stroke: #bebebe; stroke-width: 0.5; stroke-linecap: round"/>
   </g>
   <g id="line2d_6">
    <path d="M 8.64 75.84288 
L 11.69401 76.03896 
L 14.748019 75.51264 
L 17.802029 75.56424 
L 20.856039 75.05856 
L 23.910048 73.26288 
L 26.964058 73.20096 
L 30.018068 73.00488 
L 33.072077 71.68392 
L 36.126087 70.6932 
L 39.180097 72.62304 
L 42.234106 73.52088 
L 45.288116 73.83048 
L 48.342126 73.8408 
L 51.396135 73.29384 
L 54.450145 73.72728 
L 57.504155 70.32168 
L 60.558164 69.77472 
L 63.612174 70.34232 
L 66.666184 70.67256 
L 69.720193 70.51776 
L 72.774203 70.848 
L 75.828213 72.31344 
L 78.882222 76.01832 
L 81.936232 75.41976 
L 84.990242 75.83256 
L 88.044251 75.79128 
L 91.098261 75.82224 
L 94.152271 77.82432 
L 97.20628 76.14216 
L 100.26029 74.75928 
L 103.314299 74.96568 
L 106.368309 77.75208 
L 109.422319 79.48584 
L 112.476328 83.31456 
L 115.530338 85.90488 
L 118.584348 84.79032 
L 121.162618 85.84296 
L 123.589601 88.25784 
L 126.642055 91.41576 
L 129.682987 88.7532 
L 132.806807 88.65 
L 135.835614 88.55712 
L 138.90705 88.96992 
L 141.954733 89.7336 
L 144.997749 90.456 
L 148.05084 90.56952 
L 151.068124 89.15568 
L 153.960985 88.9596 
L 157.210889 90.6624 
L 159.881274 89.94 
L 163.314066 90.00192 
L 166.364364 90.3528 
L 169.400524 90.62112 
L 172.43587 90.5076 
L 175.524767 90.3528 
L 178.587967 92.004 
L 181.383977 92.13816 
L 184.684994 91.25064 
L 187.725395 89.166 
L 190.773607 89.56848 
L 193.791633 90.93072 
L 196.91503 89.41368 
L 199.93751 90.37344 
L 202.998624 89.79552 
L 206.035526 90.23928 
L 209.09611 88.0824 
L 212.14867 88.7532 
L 215.179245 90.16704 
L 218.262911 90.67272 
L 221.326075 90.18768 
L 224.360467 89.2692 
L 227.413275 89.54784 
L 230.479303 89.49624 
L 233.52741 88.31976 
L 236.577354 88.45392 
L 239.689793 88.46424 
L 242.752427 86.38992 
L 245.752992 84.80064 
L 248.830296 84.8316 
L 251.885154 86.586 
L 254.909436 87.74184 
L 257.94556 87.618 
L 261.045238 88.19592 
L 264.106424 89.08344 
L 267.132155 87.89664 
L 270.413625 87.3084 
L 273.277325 87.65928 
L 276.335187 88.96992 
L 279.36 90.07416 
" clip-path="url(#p573254fca5)" style="fill: none; stroke: #4a8dff; stroke-width: 0.6"/>
   </g>
   <g id="line2d_7">
    <path d="M 8.64 85.7088 
L 11.69401 86.40024 
L 14.748019 85.09992 
L 17.802029 86.02872 
L 20.856039 84.78 
L 23.910048 83.53128 
L 26.964058 82.83984 
L 30.018068 82.03488 
L 33.072077 79.39296 
L 36.126087 79.66128 
L 39.180097 82.15872 
L 42.234106 82.43736 
L 45.288116 82.93272 
L 48.342126 83.00496 
L 51.396135 82.6128 
L 54.450145 82.28256 
L 57.504155 78.01008 
L 60.558164 76.19376 
L 63.612174 77.66952 
L 66.666184 77.74176 
L 69.720193 78.1752 
L 72.774203 79.5684 
L 75.828213 80.8068 
L 78.882222 85.20312 
L 81.936232 84.12984 
L 84.990242 84.03696 
L 88.044251 84.06792 
L 91.098261 84.3156 
L 94.152271 87.02976 
L 97.20628 85.21344 
L 100.26029 84.28464 
L 103.314299 84.32592 
L 106.368309 89.08344 
L 109.422319 89.5272 
L 112.476328 95.14128 
L 115.530338 96.98856 
L 118.584348 95.08968 
L 121.162618 97.71096 
L 123.589601 99.80592 
L 126.642055 101.79768 
L 129.682987 100.03296 
L 132.806807 100.518 
L 135.835614 99.98136 
L 138.90705 100.49736 
L 141.954733 100.78632 
L 144.997749 101.07528 
L 148.05084 101.26104 
L 151.068124 100.63152 
L 153.960985 100.38384 
L 157.210889 100.84824 
L 159.881274 100.65216 
L 163.314066 101.034 
L 166.364364 101.19912 
L 169.400524 101.10624 
L 172.43587 100.97208 
L 175.524767 100.91016 
L 178.587967 101.7564 
L 181.383977 101.84928 
L 184.684994 101.56032 
L 187.725395 100.85856 
L 190.773607 101.12688 
L 193.791633 101.4468 
L 196.91503 101.02368 
L 199.93751 101.30232 
L 202.998624 100.81728 
L 206.035526 100.79664 
L 209.09611 99.3312 
L 212.14867 99.92976 
L 215.179245 100.78632 
L 218.262911 101.17848 
L 221.326075 101.1372 
L 224.360467 100.21872 
L 227.413275 100.37352 
L 230.479303 100.4664 
L 233.52741 99.88848 
L 236.577354 99.94008 
L 239.689793 99.81624 
L 242.752427 98.93904 
L 245.752992 98.3508 
L 248.830296 98.52624 
L 251.885154 99.78528 
L 254.909436 100.12584 
L 257.94556 100.03296 
L 261.045238 100.45608 
L 264.106424 100.83792 
L 267.132155 100.11552 
L 270.413625 99.87816 
L 273.277325 100.002 
L 276.335187 100.64184 
L 279.36 101.41584 
" clip-path="url(#p573254fca5)" style="fill: none; stroke: #f5841e; stroke-width: 0.6"/>
   </g>
  </g>
 </g>
 <defs>
  <clipPath id="p573254fca5">
   <rect x="8.64" y="4.8" width="270.72" height="103.2"/>
  </clipPath>
 </defs>
</svg>
