<?xml version="1.0" encoding="utf-8" standalone="no"?>
<!DOCTYPE svg PUBLIC "-//W3C//DTD SVG 1.1//EN"
  "http://www.w3.org/Graphics/SVG/1.1/DTD/svg11.dtd">
<svg xmlns:xlink="http://www.w3.org/1999/xlink" width="288pt" height="120pt" viewBox="0 0 288 120" xmlns="http://www.w3.org/2000/svg" version="1.1">
<desc id="nav-meta">{"window":"1m","count":4,"labels":["18.03","28.03","06.04","16.04"],"tick_utc":["2026-03-18T03:32:26Z","2026-03-28T03:27:32Z","2026-04-06T03:50:17Z","2026-04-16T03:58:40Z"],"w":720,"h":300}</desc>

 <metadata>
  <rdf:RDF xmlns:dc="http://purl.org/dc/elements/1.1/" xmlns:cc="http://creativecommons.org/ns#" xmlns:rdf="http://www.w3.org/1999/02/22-rdf-syntax-ns#">
   <cc:Work>
    <dc:type rdf:resource="http://purl.org/dc/dcmitype/StillImage"/>
    <dc:date>2026-04-16T03:58:43.474352</dc:date>
    <dc:format>image/svg+xml</dc:format>
    <dc:creator>
     <cc:Agent>
      <dc:title>Matplotlib v3.10.8, https://matplotlib.org/</dc:title>
     </cc:Agent>
    </dc:creator>
   </cc:Work>
  </rdf:RDF>
 </metadata>
 <defs>
  <style type="text/css">*{stroke-linejoin: round; stroke-linecap: butt}</style>
 </defs>
 <g id="figure_1">
  <g id="patch_1">
   <path d="M 0 120 
L 288 120 
L 288 0 
L 0 0 
L 0 120 
z
" style="fill: none; opacity: 0"/>
  </g>
  <g id="axes_1">
   <g id="patch_2">
    <path d="M 8.64 108 
L 279.36 108 
L 279.36 4.8 
L 8.64 4.8 
L 8.64 108 
z
" style="fill: none"/>
   </g>
   <g id="matplotlib.axis_1"/>
   <g id="matplotlib.axis_2"/>
   <g id="line2d_1">
    <path d="M 8.64 87.36 
L 279.36 87.36 
" clip-path="url(#pd2ef7e5718)" style="fill: none; stroke: #b2b2b2; stroke-opacity: 0.35; stroke-width: 0.5; stroke-linecap: square"/>
   </g>
   <g id="line2d_2">
    <path d="M 8.64 66.72 
L 279.36 66.72 
" clip-path="url(#pd2ef7e5718)" style="fill: none; stroke: #b2b2b2; stroke-opacity: 0.35; stroke-width: 0.5; stroke-linecap: square"/>
   </g>
   <g id="line2d_3">
    <path d="M 8.64 46.08 
L 279.36 46.08 
" clip-path="url(#pd2ef7e5718)" style="fill: none; stroke: #b2b2b2; stroke-opacity: 0.35; stroke-width: 0.5; stroke-linecap: square"/>
   </g>
   <g id="line2d_4">
    <path d="M 8.64 25.44 
L 279.36 25.44 
" clip-path="url(#pd2ef7e5718)" style="fill: none; stroke: #b2b2b2; stroke-opacity: 0.35; stroke-width: 0.5; stroke-linecap: square"/>
   </g>
   <g id="line2d_5">
    <path d="M 8.64 99.40344 
L 17.971903 100.09488 
L 27.210405 100.3632 
L 36.48508 100.19808 
L 45.9539 100.47672 
L 55.305131 100.79664 
L 64.548061 100.26 
L 74.572212 99.83688 
L 83.320169 100.13616 
L 92.661251 100.80696 
L 101.901372 101.38488 
L 111.357775 101.3436 
L 120.713757 101.292 
L 129.984221 101.28168 
L 139.393544 101.28168 
L 148.599977 101.8596 
L 157.939979 101.88024 
L 167.189387 101.72544 
L 176.659178 101.68416 
L 186.012569 101.47776 
L 195.281305 101.78736 
L 204.625734 101.09592 
L 213.922544 101.46744 
L 223.337699 101.3436 
L 232.524371 101.05464 
L 242.021049 101.3952 
L 251.398195 101.47776 
L 260.668119 100.86888 
L 269.990304 101.26104 
L 279.36 100.99272 
" clip-path="url(#pd2ef7e5718)" style="fill: none; stroke: #bebebe; stroke-width: 0.5; stroke-linecap: round"/>
   </g>
   <g id="line2d_6">
    <path d="M 8.64 84.8316 
L 17.971903 86.586 
L 27.210405 87.74184 
L 36.48508 87.618 
L 45.9539 88.19592 
L 55.305131 89.08344 
L 64.548061 87.89664 
L 74.572212 87.3084 
L 83.320169 87.65928 
L 92.661251 88.96992 
L 101.901372 90.07416 
L 111.357775 89.76456 
L 120.713757 89.3724 
L 129.984221 89.00088 
L 139.393544 88.42296 
L 148.599977 88.81512 
L 157.939979 89.10408 
L 167.189387 89.14536 
L 176.659178 89.07312 
L 186.012569 87.9792 
L 195.281305 88.29912 
L 204.625734 86.38992 
L 213.922544 87.24648 
L 223.337699 87.1536 
L 232.524371 86.21448 
L 242.021049 86.66856 
L 251.398195 87.01944 
L 260.668119 84.44976 
L 269.990304 85.05864 
L 279.36 84.58392 
" clip-path="url(#pd2ef7e5718)" style="fill: none; stroke: #4a8dff; stroke-width: 0.6"/>
   </g>
   <g id="line2d_7">
    <path d="M 8.64 98.52624 
L 17.971903 99.78528 
L 27.210405 100.12584 
L 36.48508 100.03296 
L 45.9539 100.45608 
L 55.305131 100.83792 
L 64.548061 100.11552 
L 74.572212 99.87816 
L 83.320169 100.002 
L 92.661251 100.64184 
L 101.901372 101.41584 
L 111.357775 101.21976 
L 120.713757 101.14752 
L 129.984221 101.00304 
L 139.393544 100.86888 
L 148.599977 101.21976 
L 157.939979 101.28168 
L 167.189387 101.20944 
L 176.659178 101.14752 
L 186.012569 100.55928 
L 195.281305 100.65216 
L 204.625734 99.80592 
L 213.922544 99.96072 
L 223.337699 99.6408 
L 232.524371 99.1764 
L 242.021049 99.70272 
L 251.398195 99.94008 
L 260.668119 98.57784 
L 269.990304 98.65008 
L 279.36 98.38176 
" clip-path="url(#pd2ef7e5718)" style="fill: none; stroke: #f5841e; stroke-width: 0.6"/>
   </g>
  </g>
 </g>
 <defs>
  <clipPath id="pd2ef7e5718">
   <rect x="8.64" y="4.8" width="270.72" height="103.2"/>
  </clipPath>
 </defs>
</svg>
