<?xml version="1.0" encoding="utf-8" standalone="no"?>
<!DOCTYPE svg PUBLIC "-//W3C//DTD SVG 1.1//EN"
  "http://www.w3.org/Graphics/SVG/1.1/DTD/svg11.dtd">
<svg xmlns:xlink="http://www.w3.org/1999/xlink" width="288pt" height="120pt" viewBox="0 0 288 120" xmlns="http://www.w3.org/2000/svg" version="1.1">
<desc id="nav-meta">{"window":"3m","count":4,"labels":["13.04","13.05","11.06","11.07"],"tick_utc":["2026-04-13T04:02:42Z","2026-05-13T04:33:49Z","2026-06-11T05:14:13Z","2026-07-11T03:56:05Z"],"w":720,"h":300}</desc>

 <metadata>
  <rdf:RDF xmlns:dc="http://purl.org/dc/elements/1.1/" xmlns:cc="http://creativecommons.org/ns#" xmlns:rdf="http://www.w3.org/1999/02/22-rdf-syntax-ns#">
   <cc:Work>
    <dc:type rdf:resource="http://purl.org/dc/dcmitype/StillImage"/>
    <dc:date>2026-07-11T03:56:06.797434</dc:date>
    <dc:format>image/svg+xml</dc:format>
    <dc:creator>
     <cc:Agent>
      <dc:title>Matplotlib v3.11.0, https://matplotlib.org/</dc:title>
     </cc:Agent>
    </dc:creator>
   </cc:Work>
  </rdf:RDF>
 </metadata>
 <defs>
  <style type="text/css">*{stroke-linejoin: round; stroke-linecap: butt}</style>
 </defs>
 <g id="figure_1">
  <g id="patch_1">
   <path d="M 0 120 
L 288 120 
L 288 0 
L 0 0 
L 0 120 
z
" style="fill: none; opacity: 0"/>
  </g>
  <g id="axes_1">
   <g id="patch_2">
    <path d="M 8.64 108 
L 279.36 108 
L 279.36 4.8 
L 8.64 4.8 
L 8.64 108 
z
" style="fill: none"/>
   </g>
   <g id="matplotlib.axis_1"/>
   <g id="matplotlib.axis_2"/>
   <g id="line2d_1">
    <path d="M 8.64 87.36 
L 279.36 87.36 
" clip-path="url(#p6de8bba03f)" style="fill: none; stroke: #b2b2b2; stroke-opacity: 0.35; stroke-width: 0.5; stroke-linecap: square"/>
   </g>
   <g id="line2d_2">
    <path d="M 8.64 66.72 
L 279.36 66.72 
" clip-path="url(#p6de8bba03f)" style="fill: none; stroke: #b2b2b2; stroke-opacity: 0.35; stroke-width: 0.5; stroke-linecap: square"/>
   </g>
   <g id="line2d_3">
    <path d="M 8.64 46.08 
L 279.36 46.08 
" clip-path="url(#p6de8bba03f)" style="fill: none; stroke: #b2b2b2; stroke-opacity: 0.35; stroke-width: 0.5; stroke-linecap: square"/>
   </g>
   <g id="line2d_4">
    <path d="M 8.64 25.44 
L 279.36 25.44 
" clip-path="url(#p6de8bba03f)" style="fill: none; stroke: #b2b2b2; stroke-opacity: 0.35; stroke-width: 0.5; stroke-linecap: square"/>
   </g>
   <g id="line2d_5">
    <path d="M 8.64 101.47776 
L 11.662591 100.86888 
L 14.702222 101.26104 
L 17.757344 100.99272 
L 20.793102 100.61088 
L 23.801504 100.44576 
L 26.883631 100.94112 
L 29.93312 101.09592 
L 32.961731 101.00304 
L 35.99425 100.69344 
L 39.048528 100.9308 
L 42.098545 100.92048 
L 45.104201 100.81728 
L 48.193475 100.8792 
L 51.268208 100.64184 
L 54.316536 101.1888 
L 57.350181 101.09592 
L 60.397241 101.37456 
L 63.472432 101.21976 
L 66.436754 101.20944 
L 69.540463 101.23008 
L 72.581362 100.92048 
L 75.556316 101.06496 
L 78.651857 100.70376 
L 81.694622 100.55928 
L 84.685948 100.53864 
L 87.739028 99.60984 
L 90.84228 99.72336 
L 93.908246 99.44472 
L 96.907952 99.25896 
L 99.964377 99.32088 
L 103.002952 100.22904 
L 106.059905 100.01232 
L 109.063026 100.43544 
L 112.150399 100.75536 
L 115.221893 101.02368 
L 118.242054 101.02368 
L 121.294888 101.17848 
L 124.354165 100.7244 
L 127.372812 100.75536 
L 130.372975 101.11656 
L 133.463095 100.91016 
L 136.545081 100.89984 
L 139.540948 101.1372 
L 142.614133 101.2404 
L 145.64637 101.6532 
L 148.690578 101.4984 
L 151.688664 101.48808 
L 154.792725 101.32296 
L 157.879676 101.51904 
L 160.891704 101.7048 
L 163.967881 102.54072 
L 166.999414 103.08768 
L 169.991268 103.36632 
L 172.986467 104.22288 
L 176.093803 103.85136 
L 179.149207 103.68624 
L 182.133104 103.43856 
L 185.206605 103.81008 
L 188.26641 103.72752 
L 191.3203 103.50048 
L 194.340004 103.5108 
L 197.404034 103.31472 
L 200.547106 102.95352 
L 203.606418 102.61296 
L 206.551481 102.6336 
L 209.578859 102.9948 
L 212.692462 103.28376 
L 215.612774 103.01544 
L 218.718032 102.69552 
L 221.849028 102.582 
L 224.709134 102.88128 
L 227.761968 103.15992 
L 230.803113 103.36632 
L 233.860665 103.36632 
L 236.865335 102.81936 
L 239.965277 103.0464 
L 243.029237 102.9432 
L 246.012218 102.59232 
L 249.098676 102.40656 
L 252.087361 102.02472 
L 255.096221 101.68416 
L 258.125078 101.3436 
L 261.211571 101.6532 
L 264.282995 101.6532 
L 267.27932 101.63256 
L 270.238607 101.95248 
L 273.372771 102.08664 
L 276.40786 101.9112 
L 279.36 102.066 
" clip-path="url(#p6de8bba03f)" style="fill: none; stroke: #bebebe; stroke-width: 0.5; stroke-linecap: round"/>
   </g>
   <g id="line2d_6">
    <path d="M 8.64 87.01944 
L 11.662591 84.44976 
L 14.702222 85.05864 
L 17.757344 84.58392 
L 20.793102 85.04832 
L 23.801504 83.71704 
L 26.883631 84.86256 
L 29.93312 85.6572 
L 32.961731 85.27536 
L 35.99425 84.49104 
L 39.048528 84.86256 
L 42.098545 85.32696 
L 45.104201 85.17216 
L 48.193475 85.31664 
L 51.268208 84.11952 
L 54.316536 85.66752 
L 57.350181 85.26504 
L 60.397241 86.26608 
L 63.472432 85.77072 
L 66.436754 85.38888 
L 69.540463 85.3992 
L 72.581362 84.09888 
L 75.556316 84.22272 
L 78.651857 84.34656 
L 81.694622 85.06896 
L 84.685948 85.7604 
L 87.739028 85.0896 
L 90.84228 85.01736 
L 93.908246 84.9348 
L 96.907952 85.296 
L 99.964377 85.35792 
L 103.002952 86.1732 
L 106.059905 85.92552 
L 109.063026 86.55504 
L 112.150399 87.13296 
L 115.221893 88.10304 
L 118.242054 87.9276 
L 121.294888 88.26816 
L 124.354165 87.78312 
L 127.372812 87.95856 
L 130.372975 88.94928 
L 133.463095 88.14432 
L 136.545081 88.33008 
L 139.540948 88.52616 
L 142.614133 88.86672 
L 145.64637 90.22896 
L 148.690578 89.82648 
L 151.688664 89.87808 
L 154.792725 89.46528 
L 157.879676 90.0432 
L 160.891704 89.96064 
L 163.967881 91.99368 
L 166.999414 93.05664 
L 169.991268 93.74808 
L 172.986467 97.02984 
L 176.093803 95.93592 
L 179.149207 95.07936 
L 182.133104 94.46016 
L 185.206605 95.47152 
L 188.26641 95.11032 
L 191.3203 94.82136 
L 194.340004 94.8936 
L 197.404034 94.70784 
L 200.547106 94.04736 
L 203.606418 93.40752 
L 206.551481 92.9844 
L 209.578859 93.93384 
L 212.692462 94.4292 
L 215.612774 94.19184 
L 218.718032 93.87192 
L 221.849028 93.81 
L 224.709134 94.03704 
L 227.761968 94.83168 
L 230.803113 95.48184 
L 233.860665 96.63768 
L 236.865335 96.14232 
L 239.965277 96.30744 
L 243.029237 96.29712 
L 246.012218 96.04944 
L 249.098676 95.9256 
L 252.087361 95.39928 
L 255.096221 94.31568 
L 258.125078 93.57264 
L 261.211571 93.32496 
L 264.282995 93.22176 
L 267.27932 93.35592 
L 270.238607 93.61392 
L 273.372771 93.77904 
L 276.40786 93.26304 
L 279.36 92.92248 
" clip-path="url(#p6de8bba03f)" style="fill: none; stroke: #4a8dff; stroke-width: 0.6"/>
   </g>
   <g id="line2d_7">
    <path d="M 8.64 99.94008 
L 11.662591 98.57784 
L 14.702222 98.65008 
L 17.757344 98.38176 
L 20.793102 98.48496 
L 23.801504 96.70992 
L 26.883631 98.05152 
L 29.93312 98.48496 
L 32.961731 97.96896 
L 35.99425 96.32808 
L 39.048528 96.20424 
L 42.098545 96.16296 
L 45.104201 96.1836 
L 48.193475 96.50352 
L 51.268208 94.76976 
L 54.316536 97.19496 
L 57.350181 96.9576 
L 60.397241 97.9896 
L 63.472432 96.89568 
L 66.436754 95.45088 
L 69.540463 95.67792 
L 72.581362 93.43848 
L 75.556316 92.90184 
L 78.651857 92.25168 
L 81.694622 92.87088 
L 84.685948 94.2744 
L 87.739028 93.1392 
L 90.84228 92.97408 
L 93.908246 92.9844 
L 96.907952 92.60256 
L 99.964377 92.53032 
L 103.002952 94.54272 
L 106.059905 92.85024 
L 109.063026 94.82136 
L 112.150399 95.75016 
L 115.221893 96.97824 
L 118.242054 97.08144 
L 121.294888 97.23624 
L 124.354165 95.94624 
L 127.372812 96.30744 
L 130.372975 98.08248 
L 133.463095 97.2672 
L 136.545081 96.61704 
L 139.540948 97.23624 
L 142.614133 98.08248 
L 145.64637 99.18672 
L 148.690578 99.03192 
L 151.688664 99.1248 
L 154.792725 98.74296 
L 157.879676 99.09384 
L 160.891704 100.0536 
L 163.967881 101.23008 
L 166.999414 101.99376 
L 169.991268 102.08664 
L 172.986467 102.8916 
L 176.093803 102.45816 
L 179.149207 102.28272 
L 182.133104 102.10728 
L 185.206605 102.582 
L 188.26641 102.29304 
L 191.3203 102.08664 
L 194.340004 102.066 
L 197.404034 101.86992 
L 200.547106 101.48808 
L 203.606418 101.40552 
L 206.551481 101.4984 
L 209.578859 101.97312 
L 212.692462 102.26208 
L 215.612774 102.066 
L 218.718032 101.90088 
L 221.849028 101.90088 
L 224.709134 102.0144 
L 227.761968 102.25176 
L 230.803113 102.6336 
L 233.860665 102.88128 
L 236.865335 102.77808 
L 239.965277 102.85032 
L 243.029237 102.93288 
L 246.012218 102.95352 
L 249.098676 103.00512 
L 252.087361 102.69552 
L 255.096221 102.55104 
L 258.125078 102.2724 
L 261.211571 102.21048 
L 264.282995 102.12792 
L 267.27932 102.13824 
L 270.238607 102.25176 
L 273.372771 102.36528 
L 276.40786 101.94216 
L 279.36 101.92152 
" clip-path="url(#p6de8bba03f)" style="fill: none; stroke: #f5841e; stroke-width: 0.6"/>
   </g>
  </g>
 </g>
 <defs>
  <clipPath id="p6de8bba03f">
   <rect x="8.64" y="4.8" width="270.72" height="103.2"/>
  </clipPath>
 </defs>
</svg>
