<?xml version="1.0" encoding="utf-8" standalone="no"?>
<!DOCTYPE svg PUBLIC "-//W3C//DTD SVG 1.1//EN"
  "http://www.w3.org/Graphics/SVG/1.1/DTD/svg11.dtd">
<svg xmlns:xlink="http://www.w3.org/1999/xlink" width="288pt" height="120pt" viewBox="0 0 288 120" xmlns="http://www.w3.org/2000/svg" version="1.1">
<desc id="nav-meta">{"window":"1m","count":4,"labels":["16.03","26.03","04.04","14.04"],"tick_utc":["2026-03-16T03:46:39Z","2026-03-26T03:39:29Z","2026-04-04T03:24:53Z","2026-04-14T03:53:32Z"],"w":720,"h":300}</desc>

 <metadata>
  <rdf:RDF xmlns:dc="http://purl.org/dc/elements/1.1/" xmlns:cc="http://creativecommons.org/ns#" xmlns:rdf="http://www.w3.org/1999/02/22-rdf-syntax-ns#">
   <cc:Work>
    <dc:type rdf:resource="http://purl.org/dc/dcmitype/StillImage"/>
    <dc:date>2026-04-14T08:14:21.737981</dc:date>
    <dc:format>image/svg+xml</dc:format>
    <dc:creator>
     <cc:Agent>
      <dc:title>Matplotlib v3.10.8, https://matplotlib.org/</dc:title>
     </cc:Agent>
    </dc:creator>
   </cc:Work>
  </rdf:RDF>
 </metadata>
 <defs>
  <style type="text/css">*{stroke-linejoin: round; stroke-linecap: butt}</style>
 </defs>
 <g id="figure_1">
  <g id="patch_1">
   <path d="M 0 120 
L 288 120 
L 288 0 
L 0 0 
L 0 120 
z
" style="fill: none; opacity: 0"/>
  </g>
  <g id="axes_1">
   <g id="patch_2">
    <path d="M 8.64 108 
L 279.36 108 
L 279.36 4.8 
L 8.64 4.8 
L 8.64 108 
z
" style="fill: none"/>
   </g>
   <g id="matplotlib.axis_1"/>
   <g id="matplotlib.axis_2"/>
   <g id="line2d_1">
    <path d="M 8.64 87.36 
L 279.36 87.36 
" clip-path="url(#p95bc8a9ef6)" style="fill: none; stroke: #b2b2b2; stroke-opacity: 0.35; stroke-width: 0.5; stroke-linecap: square"/>
   </g>
   <g id="line2d_2">
    <path d="M 8.64 66.72 
L 279.36 66.72 
" clip-path="url(#p95bc8a9ef6)" style="fill: none; stroke: #b2b2b2; stroke-opacity: 0.35; stroke-width: 0.5; stroke-linecap: square"/>
   </g>
   <g id="line2d_3">
    <path d="M 8.64 46.08 
L 279.36 46.08 
" clip-path="url(#p95bc8a9ef6)" style="fill: none; stroke: #b2b2b2; stroke-opacity: 0.35; stroke-width: 0.5; stroke-linecap: square"/>
   </g>
   <g id="line2d_4">
    <path d="M 8.64 25.44 
L 279.36 25.44 
" clip-path="url(#p95bc8a9ef6)" style="fill: none; stroke: #b2b2b2; stroke-opacity: 0.35; stroke-width: 0.5; stroke-linecap: square"/>
   </g>
   <g id="line2d_5">
    <path d="M 8.64 99.76464 
L 17.810295 99.49632 
L 27.21512 99.40344 
L 36.551346 100.09488 
L 45.794129 100.3632 
L 55.0731 100.19808 
L 64.546307 100.47672 
L 73.90187 100.79664 
L 83.149082 100.26 
L 93.177877 99.83688 
L 101.929887 100.13616 
L 111.275296 100.80696 
L 120.519699 101.38488 
L 129.980482 101.3436 
L 139.340799 101.292 
L 148.615558 101.28168 
L 158.02924 101.28168 
L 167.239938 101.8596 
L 176.584267 101.88024 
L 185.83796 101.72544 
L 195.312139 101.68416 
L 204.669863 101.47776 
L 213.942893 101.78736 
L 223.291651 101.09592 
L 232.592768 101.46744 
L 242.012285 101.3436 
L 251.203214 101.05464 
L 260.704291 101.3952 
L 270.085782 101.47776 
L 279.36 100.86888 
" clip-path="url(#p95bc8a9ef6)" style="fill: none; stroke: #bebebe; stroke-width: 0.5; stroke-linecap: round"/>
   </g>
   <g id="line2d_6">
    <path d="M 8.64 86.38992 
L 17.810295 84.80064 
L 27.21512 84.8316 
L 36.551346 86.586 
L 45.794129 87.74184 
L 55.0731 87.618 
L 64.546307 88.19592 
L 73.90187 89.08344 
L 83.149082 87.89664 
L 93.177877 87.3084 
L 101.929887 87.65928 
L 111.275296 88.96992 
L 120.519699 90.07416 
L 129.980482 89.76456 
L 139.340799 89.3724 
L 148.615558 89.00088 
L 158.02924 88.42296 
L 167.239938 88.81512 
L 176.584267 89.10408 
L 185.83796 89.14536 
L 195.312139 89.07312 
L 204.669863 87.9792 
L 213.942893 88.29912 
L 223.291651 86.38992 
L 232.592768 87.24648 
L 242.012285 87.1536 
L 251.203214 86.21448 
L 260.704291 86.66856 
L 270.085782 87.01944 
L 279.36 84.44976 
" clip-path="url(#p95bc8a9ef6)" style="fill: none; stroke: #4a8dff; stroke-width: 0.6"/>
   </g>
   <g id="line2d_7">
    <path d="M 8.64 98.93904 
L 17.810295 98.3508 
L 27.21512 98.52624 
L 36.551346 99.78528 
L 45.794129 100.12584 
L 55.0731 100.03296 
L 64.546307 100.45608 
L 73.90187 100.83792 
L 83.149082 100.11552 
L 93.177877 99.87816 
L 101.929887 100.002 
L 111.275296 100.64184 
L 120.519699 101.41584 
L 129.980482 101.21976 
L 139.340799 101.14752 
L 148.615558 101.00304 
L 158.02924 100.86888 
L 167.239938 101.21976 
L 176.584267 101.28168 
L 185.83796 101.20944 
L 195.312139 101.14752 
L 204.669863 100.55928 
L 213.942893 100.65216 
L 223.291651 99.80592 
L 232.592768 99.96072 
L 242.012285 99.6408 
L 251.203214 99.1764 
L 260.704291 99.70272 
L 270.085782 99.94008 
L 279.36 98.57784 
" clip-path="url(#p95bc8a9ef6)" style="fill: none; stroke: #f5841e; stroke-width: 0.6"/>
   </g>
  </g>
 </g>
 <defs>
  <clipPath id="p95bc8a9ef6">
   <rect x="8.64" y="4.8" width="270.72" height="103.2"/>
  </clipPath>
 </defs>
</svg>
