<?xml version="1.0" encoding="utf-8" standalone="no"?>
<!DOCTYPE svg PUBLIC "-//W3C//DTD SVG 1.1//EN"
  "http://www.w3.org/Graphics/SVG/1.1/DTD/svg11.dtd">
<svg xmlns:xlink="http://www.w3.org/1999/xlink" width="288pt" height="120pt" viewBox="0 0 288 120" xmlns="http://www.w3.org/2000/svg" version="1.1">
<desc id="nav-meta">{"window":"1m","count":4,"labels":["12.05","22.05","31.05","10.06"],"tick_utc":["2026-05-12T04:26:58Z","2026-05-22T04:48:25Z","2026-05-31T05:08:27Z","2026-06-10T05:05:46Z"],"w":720,"h":300}</desc>

 <metadata>
  <rdf:RDF xmlns:dc="http://purl.org/dc/elements/1.1/" xmlns:cc="http://creativecommons.org/ns#" xmlns:rdf="http://www.w3.org/1999/02/22-rdf-syntax-ns#">
   <cc:Work>
    <dc:type rdf:resource="http://purl.org/dc/dcmitype/StillImage"/>
    <dc:date>2026-06-10T10:43:19.260334</dc:date>
    <dc:format>image/svg+xml</dc:format>
    <dc:creator>
     <cc:Agent>
      <dc:title>Matplotlib v3.10.9, https://matplotlib.org/</dc:title>
     </cc:Agent>
    </dc:creator>
   </cc:Work>
  </rdf:RDF>
 </metadata>
 <defs>
  <style type="text/css">*{stroke-linejoin: round; stroke-linecap: butt}</style>
 </defs>
 <g id="figure_1">
  <g id="patch_1">
   <path d="M 0 120 
L 288 120 
L 288 0 
L 0 0 
L 0 120 
z
" style="fill: none; opacity: 0"/>
  </g>
  <g id="axes_1">
   <g id="patch_2">
    <path d="M 8.64 108 
L 279.36 108 
L 279.36 4.8 
L 8.64 4.8 
L 8.64 108 
z
" style="fill: none"/>
   </g>
   <g id="matplotlib.axis_1"/>
   <g id="matplotlib.axis_2"/>
   <g id="line2d_1">
    <path d="M 8.64 87.36 
L 279.36 87.36 
" clip-path="url(#pbb4496b459)" style="fill: none; stroke: #b2b2b2; stroke-opacity: 0.35; stroke-width: 0.5; stroke-linecap: square"/>
   </g>
   <g id="line2d_2">
    <path d="M 8.64 66.72 
L 279.36 66.72 
" clip-path="url(#pbb4496b459)" style="fill: none; stroke: #b2b2b2; stroke-opacity: 0.35; stroke-width: 0.5; stroke-linecap: square"/>
   </g>
   <g id="line2d_3">
    <path d="M 8.64 46.08 
L 279.36 46.08 
" clip-path="url(#pbb4496b459)" style="fill: none; stroke: #b2b2b2; stroke-opacity: 0.35; stroke-width: 0.5; stroke-linecap: square"/>
   </g>
   <g id="line2d_4">
    <path d="M 8.64 25.44 
L 279.36 25.44 
" clip-path="url(#pbb4496b459)" style="fill: none; stroke: #b2b2b2; stroke-opacity: 0.35; stroke-width: 0.5; stroke-linecap: square"/>
   </g>
   <g id="line2d_5">
    <path d="M 8.64 99.25896 
L 18.010873 99.32088 
L 27.327017 100.22904 
L 36.699509 100.01232 
L 45.906952 100.43544 
L 55.372708 100.75536 
L 64.789782 101.02368 
L 74.049471 101.02368 
L 83.409333 101.17848 
L 92.788949 100.7244 
L 102.043996 100.75536 
L 111.242371 101.11656 
L 120.716548 100.91016 
L 130.165789 100.89984 
L 139.350995 101.1372 
L 148.77325 101.2404 
L 158.069964 101.6532 
L 167.40338 101.4984 
L 176.595386 101.48808 
L 186.112309 101.32296 
L 195.576771 101.51904 
L 204.811524 101.7048 
L 214.242954 102.54072 
L 223.537509 103.08768 
L 232.71041 103.36632 
L 241.893565 104.22288 
L 251.420527 103.85136 
L 260.788269 103.68624 
L 269.936774 103.43856 
L 279.36 103.81008 
" clip-path="url(#pbb4496b459)" style="fill: none; stroke: #bebebe; stroke-width: 0.5; stroke-linecap: round"/>
   </g>
   <g id="line2d_6">
    <path d="M 8.64 85.296 
L 18.010873 85.35792 
L 27.327017 86.1732 
L 36.699509 85.92552 
L 45.906952 86.55504 
L 55.372708 87.13296 
L 64.789782 88.10304 
L 74.049471 87.9276 
L 83.409333 88.26816 
L 92.788949 87.78312 
L 102.043996 87.95856 
L 111.242371 88.94928 
L 120.716548 88.14432 
L 130.165789 88.33008 
L 139.350995 88.52616 
L 148.77325 88.86672 
L 158.069964 90.22896 
L 167.40338 89.82648 
L 176.595386 89.87808 
L 186.112309 89.46528 
L 195.576771 90.0432 
L 204.811524 89.96064 
L 214.242954 91.99368 
L 223.537509 93.05664 
L 232.71041 93.74808 
L 241.893565 97.02984 
L 251.420527 95.93592 
L 260.788269 95.07936 
L 269.936774 94.46016 
L 279.36 95.47152 
" clip-path="url(#pbb4496b459)" style="fill: none; stroke: #4a8dff; stroke-width: 0.6"/>
   </g>
   <g id="line2d_7">
    <path d="M 8.64 92.60256 
L 18.010873 92.53032 
L 27.327017 94.54272 
L 36.699509 92.85024 
L 45.906952 94.82136 
L 55.372708 95.75016 
L 64.789782 96.97824 
L 74.049471 97.08144 
L 83.409333 97.23624 
L 92.788949 95.94624 
L 102.043996 96.30744 
L 111.242371 98.08248 
L 120.716548 97.2672 
L 130.165789 96.61704 
L 139.350995 97.23624 
L 148.77325 98.08248 
L 158.069964 99.18672 
L 167.40338 99.03192 
L 176.595386 99.1248 
L 186.112309 98.74296 
L 195.576771 99.09384 
L 204.811524 100.0536 
L 214.242954 101.23008 
L 223.537509 101.99376 
L 232.71041 102.08664 
L 241.893565 102.8916 
L 251.420527 102.45816 
L 260.788269 102.28272 
L 269.936774 102.10728 
L 279.36 102.582 
" clip-path="url(#pbb4496b459)" style="fill: none; stroke: #f5841e; stroke-width: 0.6"/>
   </g>
  </g>
 </g>
 <defs>
  <clipPath id="pbb4496b459">
   <rect x="8.64" y="4.8" width="270.72" height="103.2"/>
  </clipPath>
 </defs>
</svg>
