<?xml version="1.0" encoding="utf-8" standalone="no"?>
<!DOCTYPE svg PUBLIC "-//W3C//DTD SVG 1.1//EN"
  "http://www.w3.org/Graphics/SVG/1.1/DTD/svg11.dtd">
<svg xmlns:xlink="http://www.w3.org/1999/xlink" width="288pt" height="120pt" viewBox="0 0 288 120" xmlns="http://www.w3.org/2000/svg" version="1.1">
<desc id="nav-meta">{"window":"3m","count":4,"labels":["21.12","20.01","19.02","21.03"],"tick_utc":["2025-12-21T12:00:00Z","2026-01-20T12:00:00Z","2026-02-19T03:28:49Z","2026-03-21T03:10:23Z"],"w":720,"h":300}</desc>

 <metadata>
  <rdf:RDF xmlns:dc="http://purl.org/dc/elements/1.1/" xmlns:cc="http://creativecommons.org/ns#" xmlns:rdf="http://www.w3.org/1999/02/22-rdf-syntax-ns#">
   <cc:Work>
    <dc:type rdf:resource="http://purl.org/dc/dcmitype/StillImage"/>
    <dc:date>2026-03-21T07:21:10.976667</dc:date>
    <dc:format>image/svg+xml</dc:format>
    <dc:creator>
     <cc:Agent>
      <dc:title>Matplotlib v3.10.8, https://matplotlib.org/</dc:title>
     </cc:Agent>
    </dc:creator>
   </cc:Work>
  </rdf:RDF>
 </metadata>
 <defs>
  <style type="text/css">*{stroke-linejoin: round; stroke-linecap: butt}</style>
 </defs>
 <g id="figure_1">
  <g id="patch_1">
   <path d="M 0 120 
L 288 120 
L 288 0 
L 0 0 
L 0 120 
z
" style="fill: none; opacity: 0"/>
  </g>
  <g id="axes_1">
   <g id="patch_2">
    <path d="M 8.64 108 
L 279.36 108 
L 279.36 4.8 
L 8.64 4.8 
L 8.64 108 
z
" style="fill: none"/>
   </g>
   <g id="matplotlib.axis_1"/>
   <g id="matplotlib.axis_2"/>
   <g id="line2d_1">
    <path d="M 8.64 87.36 
L 279.36 87.36 
" clip-path="url(#pfc2f80a793)" style="fill: none; stroke: #b2b2b2; stroke-opacity: 0.35; stroke-width: 0.5; stroke-linecap: square"/>
   </g>
   <g id="line2d_2">
    <path d="M 8.64 66.72 
L 279.36 66.72 
" clip-path="url(#pfc2f80a793)" style="fill: none; stroke: #b2b2b2; stroke-opacity: 0.35; stroke-width: 0.5; stroke-linecap: square"/>
   </g>
   <g id="line2d_3">
    <path d="M 8.64 46.08 
L 279.36 46.08 
" clip-path="url(#pfc2f80a793)" style="fill: none; stroke: #b2b2b2; stroke-opacity: 0.35; stroke-width: 0.5; stroke-linecap: square"/>
   </g>
   <g id="line2d_4">
    <path d="M 8.64 25.44 
L 279.36 25.44 
" clip-path="url(#pfc2f80a793)" style="fill: none; stroke: #b2b2b2; stroke-opacity: 0.35; stroke-width: 0.5; stroke-linecap: square"/>
   </g>
   <g id="line2d_5">
    <path d="M 8.64 92.13816 
L 11.660343 92.07624 
L 14.680686 92.14848 
L 17.701028 92.64384 
L 20.721371 93.01536 
L 23.741714 93.69648 
L 26.762057 93.11856 
L 29.782399 92.44776 
L 32.802742 92.30328 
L 35.823085 92.87088 
L 38.843428 92.38584 
L 41.863771 92.47872 
L 44.884113 91.88016 
L 47.904456 90.42504 
L 50.924799 90.08448 
L 53.945142 89.92968 
L 56.965484 88.76352 
L 59.985827 87.94824 
L 63.00617 89.2692 
L 66.026513 88.72224 
L 69.046856 89.39304 
L 72.067198 89.40336 
L 75.087541 88.41264 
L 78.107884 88.4952 
L 81.128227 86.86464 
L 84.148569 86.42088 
L 87.168912 87.62832 
L 90.189255 86.93688 
L 93.209598 87.23616 
L 96.229941 88.63968 
L 99.250283 90.0432 
L 102.270626 92.12784 
L 105.290969 91.16808 
L 108.311312 91.46736 
L 111.331654 91.73568 
L 114.351997 91.78728 
L 117.37234 94.0164 
L 120.392683 92.5716 
L 123.413026 91.76664 
L 126.433368 92.33424 
L 129.453711 94.36728 
L 132.474054 94.46016 
L 135.494397 97.71096 
L 138.514739 98.48496 
L 141.535082 97.85544 
L 144.08493 99.10416 
L 146.485158 100.16712 
L 149.503963 102.23112 
L 152.511371 100.54896 
L 155.600756 100.70376 
L 158.596174 100.68312 
L 161.63375 100.95144 
L 164.647836 101.28168 
L 167.657307 101.71512 
L 170.676741 101.84928 
L 173.660762 101.034 
L 176.521733 100.54896 
L 179.735811 101.04432 
L 182.376758 100.81728 
L 185.771708 101.034 
L 188.78838 101.4984 
L 191.791069 101.33328 
L 194.792954 101.1372 
L 197.8478 101.06496 
L 200.877232 102.09696 
L 203.642419 102.05568 
L 206.907046 101.4984 
L 209.91393 100.60056 
L 212.928539 100.80696 
L 215.913295 101.45712 
L 219.00226 100.55928 
L 221.991421 101.10624 
L 225.01879 100.8792 
L 228.022213 100.74504 
L 231.049058 100.21872 
L 234.067967 100.53864 
L 237.065133 101.07528 
L 240.114806 101.38488 
L 243.144202 101.26104 
L 246.145144 100.78632 
L 249.164298 100.91016 
L 252.196526 100.99272 
L 255.211031 100.38384 
L 258.227354 100.50768 
L 261.305482 100.60056 
L 264.334354 99.76464 
L 267.301841 99.49632 
L 270.345221 99.40344 
L 273.366402 100.09488 
L 276.357346 100.3632 
L 279.36 100.19808 
" clip-path="url(#pfc2f80a793)" style="fill: none; stroke: #bebebe; stroke-width: 0.5; stroke-linecap: round"/>
   </g>
   <g id="line2d_6">
    <path d="M 8.64 75.40944 
L 11.660343 75.04824 
L 14.680686 74.98632 
L 17.701028 75.58488 
L 20.721371 75.87384 
L 23.741714 76.49304 
L 26.762057 76.15248 
L 29.782399 75.82224 
L 32.802742 75.84288 
L 35.823085 76.03896 
L 38.843428 75.51264 
L 41.863771 75.56424 
L 44.884113 75.05856 
L 47.904456 73.26288 
L 50.924799 73.20096 
L 53.945142 73.00488 
L 56.965484 71.68392 
L 59.985827 70.6932 
L 63.00617 72.62304 
L 66.026513 73.52088 
L 69.046856 73.83048 
L 72.067198 73.8408 
L 75.087541 73.29384 
L 78.107884 73.72728 
L 81.128227 70.32168 
L 84.148569 69.77472 
L 87.168912 70.34232 
L 90.189255 70.67256 
L 93.209598 70.51776 
L 96.229941 70.848 
L 99.250283 72.31344 
L 102.270626 76.01832 
L 105.290969 75.41976 
L 108.311312 75.83256 
L 111.331654 75.79128 
L 114.351997 75.82224 
L 117.37234 77.82432 
L 120.392683 76.14216 
L 123.413026 74.75928 
L 126.433368 74.96568 
L 129.453711 77.75208 
L 132.474054 79.48584 
L 135.494397 83.31456 
L 138.514739 85.90488 
L 141.535082 84.79032 
L 144.08493 85.84296 
L 146.485158 88.25784 
L 149.503963 91.41576 
L 152.511371 88.7532 
L 155.600756 88.65 
L 158.596174 88.55712 
L 161.63375 88.96992 
L 164.647836 89.7336 
L 167.657307 90.456 
L 170.676741 90.56952 
L 173.660762 89.15568 
L 176.521733 88.9596 
L 179.735811 90.6624 
L 182.376758 89.94 
L 185.771708 90.00192 
L 188.78838 90.3528 
L 191.791069 90.62112 
L 194.792954 90.5076 
L 197.8478 90.3528 
L 200.877232 92.004 
L 203.642419 92.13816 
L 206.907046 91.25064 
L 209.91393 89.166 
L 212.928539 89.56848 
L 215.913295 90.93072 
L 219.00226 89.41368 
L 221.991421 90.37344 
L 225.01879 89.79552 
L 228.022213 90.23928 
L 231.049058 88.0824 
L 234.067967 88.7532 
L 237.065133 90.16704 
L 240.114806 90.67272 
L 243.144202 90.18768 
L 246.145144 89.2692 
L 249.164298 89.54784 
L 252.196526 89.49624 
L 255.211031 88.31976 
L 258.227354 88.45392 
L 261.305482 88.46424 
L 264.334354 86.38992 
L 267.301841 84.80064 
L 270.345221 84.8316 
L 273.366402 86.586 
L 276.357346 87.74184 
L 279.36 87.618 
" clip-path="url(#pfc2f80a793)" style="fill: none; stroke: #4a8dff; stroke-width: 0.6"/>
   </g>
   <g id="line2d_7">
    <path d="M 8.64 85.17216 
L 11.660343 84.9348 
L 14.680686 85.01736 
L 17.701028 86.14224 
L 20.721371 85.90488 
L 23.741714 86.328 
L 26.762057 86.24544 
L 29.782399 85.72944 
L 32.802742 85.7088 
L 35.823085 86.40024 
L 38.843428 85.09992 
L 41.863771 86.02872 
L 44.884113 84.78 
L 47.904456 83.53128 
L 50.924799 82.83984 
L 53.945142 82.03488 
L 56.965484 79.39296 
L 59.985827 79.66128 
L 63.00617 82.15872 
L 66.026513 82.43736 
L 69.046856 82.93272 
L 72.067198 83.00496 
L 75.087541 82.6128 
L 78.107884 82.28256 
L 81.128227 78.01008 
L 84.148569 76.19376 
L 87.168912 77.66952 
L 90.189255 77.74176 
L 93.209598 78.1752 
L 96.229941 79.5684 
L 99.250283 80.8068 
L 102.270626 85.20312 
L 105.290969 84.12984 
L 108.311312 84.03696 
L 111.331654 84.06792 
L 114.351997 84.3156 
L 117.37234 87.02976 
L 120.392683 85.21344 
L 123.413026 84.28464 
L 126.433368 84.32592 
L 129.453711 89.08344 
L 132.474054 89.5272 
L 135.494397 95.14128 
L 138.514739 96.98856 
L 141.535082 95.08968 
L 144.08493 97.71096 
L 146.485158 99.80592 
L 149.503963 101.79768 
L 152.511371 100.03296 
L 155.600756 100.518 
L 158.596174 99.98136 
L 161.63375 100.49736 
L 164.647836 100.78632 
L 167.657307 101.07528 
L 170.676741 101.26104 
L 173.660762 100.63152 
L 176.521733 100.38384 
L 179.735811 100.84824 
L 182.376758 100.65216 
L 185.771708 101.034 
L 188.78838 101.19912 
L 191.791069 101.10624 
L 194.792954 100.97208 
L 197.8478 100.91016 
L 200.877232 101.7564 
L 203.642419 101.84928 
L 206.907046 101.56032 
L 209.91393 100.85856 
L 212.928539 101.12688 
L 215.913295 101.4468 
L 219.00226 101.02368 
L 221.991421 101.30232 
L 225.01879 100.81728 
L 228.022213 100.79664 
L 231.049058 99.3312 
L 234.067967 99.92976 
L 237.065133 100.78632 
L 240.114806 101.17848 
L 243.144202 101.1372 
L 246.145144 100.21872 
L 249.164298 100.37352 
L 252.196526 100.4664 
L 255.211031 99.88848 
L 258.227354 99.94008 
L 261.305482 99.81624 
L 264.334354 98.93904 
L 267.301841 98.3508 
L 270.345221 98.52624 
L 273.366402 99.78528 
L 276.357346 100.12584 
L 279.36 100.03296 
" clip-path="url(#pfc2f80a793)" style="fill: none; stroke: #f5841e; stroke-width: 0.6"/>
   </g>
  </g>
 </g>
 <defs>
  <clipPath id="pfc2f80a793">
   <rect x="8.64" y="4.8" width="270.72" height="103.2"/>
  </clipPath>
 </defs>
</svg>
