<?xml version="1.0" encoding="utf-8" standalone="no"?>
<!DOCTYPE svg PUBLIC "-//W3C//DTD SVG 1.1//EN"
  "http://www.w3.org/Graphics/SVG/1.1/DTD/svg11.dtd">
<svg xmlns:xlink="http://www.w3.org/1999/xlink" width="288pt" height="120pt" viewBox="0 0 288 120" xmlns="http://www.w3.org/2000/svg" version="1.1">
<desc id="nav-meta">{"window":"1y","count":4,"labels":["09.07","08.11","09.03","09.07"],"tick_utc":["2025-07-09T12:00:00Z","2025-11-08T12:00:00Z","2026-03-09T03:23:53Z","2026-07-09T04:41:51Z"],"w":720,"h":300}</desc>

 <metadata>
  <rdf:RDF xmlns:dc="http://purl.org/dc/elements/1.1/" xmlns:cc="http://creativecommons.org/ns#" xmlns:rdf="http://www.w3.org/1999/02/22-rdf-syntax-ns#">
   <cc:Work>
    <dc:type rdf:resource="http://purl.org/dc/dcmitype/StillImage"/>
    <dc:date>2026-07-09T10:06:54.446238</dc:date>
    <dc:format>image/svg+xml</dc:format>
    <dc:creator>
     <cc:Agent>
      <dc:title>Matplotlib v3.11.0, https://matplotlib.org/</dc:title>
     </cc:Agent>
    </dc:creator>
   </cc:Work>
  </rdf:RDF>
 </metadata>
 <defs>
  <style type="text/css">*{stroke-linejoin: round; stroke-linecap: butt}</style>
 </defs>
 <g id="figure_1">
  <g id="patch_1">
   <path d="M 0 120 
L 288 120 
L 288 0 
L 0 0 
L 0 120 
z
" style="fill: none; opacity: 0"/>
  </g>
  <g id="axes_1">
   <g id="patch_2">
    <path d="M 8.64 108 
L 279.36 108 
L 279.36 4.8 
L 8.64 4.8 
L 8.64 108 
z
" style="fill: none"/>
   </g>
   <g id="matplotlib.axis_1"/>
   <g id="matplotlib.axis_2"/>
   <g id="line2d_1">
    <path d="M 8.64 87.36 
L 279.36 87.36 
" clip-path="url(#pe9e5f0e09e)" style="fill: none; stroke: #b2b2b2; stroke-opacity: 0.35; stroke-width: 0.5; stroke-linecap: square"/>
   </g>
   <g id="line2d_2">
    <path d="M 8.64 66.72 
L 279.36 66.72 
" clip-path="url(#pe9e5f0e09e)" style="fill: none; stroke: #b2b2b2; stroke-opacity: 0.35; stroke-width: 0.5; stroke-linecap: square"/>
   </g>
   <g id="line2d_3">
    <path d="M 8.64 46.08 
L 279.36 46.08 
" clip-path="url(#pe9e5f0e09e)" style="fill: none; stroke: #b2b2b2; stroke-opacity: 0.35; stroke-width: 0.5; stroke-linecap: square"/>
   </g>
   <g id="line2d_4">
    <path d="M 8.64 25.44 
L 279.36 25.44 
" clip-path="url(#pe9e5f0e09e)" style="fill: none; stroke: #b2b2b2; stroke-opacity: 0.35; stroke-width: 0.5; stroke-linecap: square"/>
   </g>
   <g id="line2d_5">
    <path d="M 8.64 85.01736 
L 9.382317 83.55192 
L 10.124635 81.7356 
L 10.866952 82.03488 
L 11.60927 82.65408 
L 13.093905 82.15872 
L 13.836222 81.70464 
L 14.57854 79.01112 
L 15.320857 78.39192 
L 16.063174 78.04104 
L 16.805492 78.16488 
L 17.547809 77.05032 
L 18.290127 72.82944 
L 19.032444 70.41456 
L 19.774762 74.69736 
L 20.517079 76.6272 
L 21.259396 75.63648 
L 22.001714 75.97704 
L 22.744031 74.976 
L 23.486349 76.49304 
L 24.228666 76.99872 
L 24.970984 77.90688 
L 25.713301 79.4652 
L 26.455619 82.02456 
L 27.197936 83.19072 
L 27.940253 82.27224 
L 28.682571 80.21856 
L 29.424888 81.67368 
L 30.167206 80.5488 
L 30.909523 78.588 
L 31.651841 78.19584 
L 32.394158 77.21544 
L 33.136476 76.524 
L 33.878793 78.68088 
L 34.62111 73.88208 
L 35.363428 71.364 
L 36.105745 73.8408 
L 36.848063 75.79128 
L 37.59038 74.65608 
L 38.332698 74.14008 
L 39.075015 76.50336 
L 39.817332 78.30936 
L 40.55965 75.3372 
L 41.301967 77.25672 
L 42.044285 71.78712 
L 42.786602 70.75512 
L 43.52892 70.24944 
L 44.271237 75.35784 
L 45.013555 72.95328 
L 45.755872 70.96152 
L 46.498189 67.87584 
L 47.240507 70.46616 
L 47.982824 71.11632 
L 48.725142 71.61168 
L 49.467459 72.7056 
L 50.209777 69.33096 
L 50.952094 68.9388 
L 51.694412 71.12664 
L 52.436729 70.90992 
L 53.179046 71.80776 
L 53.921364 70.074 
L 54.663681 68.01 
L 55.405999 67.10184 
L 56.148316 65.29584 
L 56.890634 64.01616 
L 57.632951 60.31128 
L 58.375268 60.19776 
L 59.117586 60.786 
L 59.859903 62.61264 
L 60.602221 61.74576 
L 61.344538 59.57856 
L 62.086856 58.86648 
L 62.829173 61.38456 
L 63.571491 61.07496 
L 64.313808 61.83864 
L 65.056125 66.29688 
L 65.798443 67.97904 
L 66.54076 68.69112 
L 67.283078 73.9956 
L 68.025395 70.45584 
L 68.767713 70.87896 
L 69.51003 68.91816 
L 70.252348 68.3196 
L 70.994665 69.47544 
L 72.4793 62.39592 
L 73.221617 62.81904 
L 73.963935 64.22256 
L 74.706252 64.05744 
L 75.44857 62.9532 
L 76.190887 66.14208 
L 76.933204 63.91296 
L 77.675522 66.17304 
L 78.417839 74.6148 
L 79.160157 77.78304 
L 79.902474 72.66432 
L 80.644792 69.69216 
L 81.387109 71.09568 
L 82.871744 76.06992 
L 83.614061 76.76136 
L 84.356379 75.25464 
L 85.098696 75.24432 
L 85.841014 74.63544 
L 86.583331 75.73968 
L 87.325649 77.31864 
L 88.067966 74.202 
L 88.810284 73.64472 
L 89.552601 73.48992 
L 90.294918 71.83872 
L 91.037236 72.17928 
L 91.779553 73.38672 
L 92.521871 73.43832 
L 93.264188 76.15248 
L 94.006506 75.3372 
L 94.748823 75.58488 
L 95.49114 75.35784 
L 96.233458 81.168 
L 96.975775 84.01632 
L 97.718093 82.06584 
L 98.46041 84.19176 
L 99.202728 82.27224 
L 99.945045 83.29392 
L 100.687363 81.62208 
L 101.42968 80.72424 
L 102.171997 84.33624 
L 102.914315 84.64584 
L 103.656632 86.844 
L 104.39895 88.52616 
L 105.141267 88.36104 
L 105.883585 88.93896 
L 106.625902 90.79656 
L 107.36822 88.09272 
L 108.110537 89.22792 
L 108.852854 90.00192 
L 109.595172 91.39512 
L 110.337489 91.63248 
L 111.079807 90.75528 
L 111.822124 88.7016 
L 112.564442 88.52616 
L 113.306759 87.45288 
L 114.049076 88.0308 
L 114.791394 88.94928 
L 116.276029 89.7336 
L 117.018346 91.86984 
L 117.760664 88.60872 
L 118.502981 86.87496 
L 119.987616 90.11544 
L 121.472251 90.53856 
L 122.214568 90.08448 
L 122.956886 88.79448 
L 123.699203 89.20728 
L 124.441521 89.22792 
L 125.183838 90.31152 
L 125.926155 90.10512 
L 126.668473 91.09584 
L 127.41079 91.61184 
L 128.153108 91.31256 
L 128.895425 92.87088 
L 129.637743 93.8616 
L 130.38006 92.02464 
L 131.122378 92.13816 
L 131.864695 92.07624 
L 132.607012 92.14848 
L 134.833965 93.69648 
L 136.3186 92.44776 
L 137.060917 92.30328 
L 137.803235 92.87088 
L 138.545552 92.38584 
L 139.287869 92.47872 
L 140.030187 91.88016 
L 140.772504 90.42504 
L 141.514822 90.08448 
L 142.257139 89.92968 
L 142.999457 88.76352 
L 143.741774 87.94824 
L 144.484091 89.2692 
L 145.226409 88.72224 
L 145.968726 89.39304 
L 146.711044 89.40336 
L 147.453361 88.41264 
L 148.195679 88.4952 
L 148.937996 86.86464 
L 149.680314 86.42088 
L 150.422631 87.62832 
L 151.164948 86.93688 
L 151.907266 87.23616 
L 153.391901 90.0432 
L 154.134218 92.12784 
L 154.876536 91.16808 
L 156.361171 91.73568 
L 157.103488 91.78728 
L 157.845805 94.0164 
L 158.588123 92.5716 
L 159.33044 91.76664 
L 160.072758 92.33424 
L 160.815075 94.36728 
L 161.557393 94.46016 
L 162.29971 97.71096 
L 163.042027 98.48496 
L 163.784345 97.85544 
L 165.000938 100.16712 
L 165.742877 102.23112 
L 166.482016 100.54896 
L 167.241302 100.70376 
L 167.977493 100.68312 
L 169.464826 101.28168 
L 170.204471 101.71512 
L 170.946566 101.84928 
L 171.679956 101.034 
L 172.383104 100.54896 
L 173.173037 101.04432 
L 173.822109 100.81728 
L 174.656495 101.034 
L 175.39791 101.4984 
L 177.624467 101.06496 
L 178.369018 102.09696 
L 179.048625 102.05568 
L 179.850981 101.4984 
L 180.589991 100.60056 
L 181.330899 100.80696 
L 182.06447 101.45712 
L 182.823653 100.55928 
L 183.558307 101.10624 
L 185.04051 100.74504 
L 185.784426 100.21872 
L 186.526391 100.53864 
L 187.263012 101.07528 
L 188.012538 101.38488 
L 188.757081 101.26104 
L 189.49463 100.78632 
L 190.981894 100.99272 
L 191.722776 100.38384 
L 193.220625 100.60056 
L 193.965039 99.76464 
L 194.694366 99.49632 
L 195.442345 99.40344 
L 196.184869 100.09488 
L 196.919961 100.3632 
L 197.657931 100.19808 
L 199.15541 100.79664 
L 199.890854 100.26 
L 200.688459 99.83688 
L 201.384519 100.13616 
L 202.862994 101.38488 
L 205.846182 101.28168 
L 206.578722 101.8596 
L 207.32189 101.88024 
L 208.05785 101.72544 
L 208.811345 101.68416 
L 209.555578 101.47776 
L 210.293076 101.78736 
L 211.036596 101.09592 
L 211.776327 101.46744 
L 212.525475 101.3436 
L 213.256443 101.05464 
L 214.012077 101.3952 
L 214.758201 101.47776 
L 215.495793 100.86888 
L 216.237543 101.26104 
L 218.458009 100.44576 
L 219.21013 100.94112 
L 219.954286 101.09592 
L 220.693347 101.00304 
L 221.433362 100.69344 
L 222.178686 100.9308 
L 224.410295 100.8792 
L 225.160611 100.64184 
L 225.904484 101.1888 
L 226.644774 101.09592 
L 227.388337 101.37456 
L 228.138765 101.21976 
L 229.619525 101.23008 
L 230.361585 100.92048 
L 231.087552 101.06496 
L 231.842946 100.70376 
L 232.585461 100.55928 
L 233.315424 100.53864 
L 234.060456 99.60984 
L 234.817732 99.72336 
L 236.297916 99.25896 
L 237.043765 99.32088 
L 237.785257 100.22904 
L 238.531235 100.01232 
L 240.017476 100.75536 
L 240.767002 101.02368 
L 241.504001 101.02368 
L 242.248974 101.17848 
L 242.995518 100.7244 
L 243.732148 100.75536 
L 244.464267 101.11656 
L 245.218338 100.91016 
L 245.970424 100.89984 
L 246.701495 101.1372 
L 247.451433 101.2404 
L 248.191379 101.6532 
L 248.934247 101.4984 
L 249.665859 101.48808 
L 250.423332 101.32296 
L 251.911644 101.7048 
L 252.662313 102.54072 
L 253.402087 103.08768 
L 254.132179 103.36632 
L 254.863086 104.22288 
L 255.621358 103.85136 
L 257.095108 103.43856 
L 257.845123 103.81008 
L 258.591797 103.72752 
L 259.337027 103.50048 
L 260.073914 103.5108 
L 260.821619 103.31472 
L 262.335164 102.61296 
L 263.053838 102.6336 
L 264.552399 103.28376 
L 266.022798 102.69552 
L 266.786844 102.582 
L 268.229758 103.15992 
L 268.971877 103.36632 
L 269.718001 103.36632 
L 270.45122 102.81936 
L 271.207688 103.0464 
L 271.955375 102.9432 
L 272.683301 102.59232 
L 273.436479 102.40656 
L 275.63916 101.3436 
L 276.392345 101.6532 
L 277.873037 101.63256 
L 278.595181 101.95248 
L 279.36 102.08664 
L 279.36 102.08664 
" clip-path="url(#pe9e5f0e09e)" style="fill: none; stroke: #bebebe; stroke-width: 0.5; stroke-linecap: round"/>
   </g>
   <g id="line2d_6">
    <path d="M 8.64 80.76552 
L 10.124635 75.83256 
L 10.866952 75.67776 
L 11.60927 75.91512 
L 13.093905 74.88312 
L 13.836222 73.09776 
L 14.57854 69.6096 
L 15.320857 67.91712 
L 16.063174 66.94704 
L 16.805492 66.24528 
L 17.547809 63.80976 
L 18.290127 63.70656 
L 19.032444 63.9852 
L 19.774762 65.71896 
L 20.517079 64.5528 
L 22.001714 64.05744 
L 22.744031 62.25144 
L 23.486349 63.39696 
L 24.228666 63.366 
L 24.970984 63.08736 
L 25.713301 64.72824 
L 26.455619 67.89648 
L 27.197936 69.16584 
L 27.940253 67.69008 
L 28.682571 64.4496 
L 29.424888 65.97696 
L 30.167206 64.914 
L 30.909523 61.54968 
L 31.651841 60.04296 
L 32.394158 56.28648 
L 33.136476 56.47224 
L 33.878793 56.83344 
L 34.62111 51.22968 
L 35.363428 48.89736 
L 36.105745 52.00368 
L 36.848063 53.84064 
L 37.59038 53.90256 
L 38.332698 53.00472 
L 39.075015 55.5228 
L 39.817332 59.12448 
L 40.55965 55.32672 
L 41.301967 56.90568 
L 42.044285 47.92728 
L 42.786602 48.75288 
L 43.52892 48.68064 
L 44.271237 54.57336 
L 45.013555 51.2916 
L 45.755872 52.80864 
L 46.498189 52.69512 
L 47.240507 54.82104 
L 48.725142 54.45984 
L 49.467459 55.7292 
L 50.209777 55.39896 
L 50.952094 53.55168 
L 51.694412 55.81176 
L 52.436729 55.6776 
L 53.179046 56.18328 
L 53.921364 55.71888 
L 55.405999 55.63632 
L 56.148316 55.07904 
L 56.890634 53.41752 
L 57.632951 49.71264 
L 58.375268 50.32152 
L 59.117586 51.17808 
L 59.859903 52.44744 
L 60.602221 52.74672 
L 61.344538 51.4464 
L 62.086856 51.46704 
L 62.829173 53.2524 
L 63.571491 53.08728 
L 64.313808 53.5104 
L 65.056125 57.26688 
L 65.798443 57.76224 
L 66.54076 58.02024 
L 67.283078 62.26176 
L 68.025395 59.68176 
L 68.767713 59.9604 
L 69.51003 58.12344 
L 70.252348 57.02952 
L 70.994665 58.09248 
L 71.736982 55.13064 
L 72.4793 53.046 
L 73.221617 52.5816 
L 73.963935 52.9944 
L 74.706252 52.5816 
L 75.44857 50.0016 
L 76.190887 53.48976 
L 76.933204 52.40616 
L 77.675522 54.75912 
L 78.417839 62.67456 
L 79.160157 63.95424 
L 79.902474 57.86544 
L 80.644792 56.57544 
L 81.387109 58.31952 
L 82.129427 60.4764 
L 82.871744 61.85928 
L 83.614061 62.73648 
L 84.356379 61.8696 
L 85.098696 60.45576 
L 85.841014 60.54864 
L 86.583331 62.04504 
L 87.325649 63.16992 
L 88.067966 62.36496 
L 88.810284 61.21944 
L 89.552601 60.9408 
L 90.294918 57.83448 
L 91.037236 58.40208 
L 91.779553 60.49704 
L 93.264188 63.1596 
L 94.006506 62.49912 
L 94.748823 62.1276 
L 95.49114 61.56 
L 96.975775 70.66224 
L 97.718093 68.72208 
L 98.46041 70.4868 
L 99.202728 68.61888 
L 99.945045 69.11424 
L 100.687363 66.5136 
L 101.42968 66.68904 
L 102.171997 68.8872 
L 102.914315 68.9904 
L 103.656632 71.5704 
L 104.39895 73.48992 
L 105.141267 72.54048 
L 106.625902 74.74896 
L 107.36822 73.3248 
L 108.110537 74.80056 
L 108.852854 77.556 
L 109.595172 78.55704 
L 110.337489 78.50544 
L 111.079807 78.04104 
L 111.822124 75.76032 
L 112.564442 75.73968 
L 113.306759 74.65608 
L 114.049076 74.83152 
L 114.791394 74.57352 
L 115.533711 75.20304 
L 116.276029 75.17208 
L 117.018346 78.05136 
L 118.502981 72.16896 
L 119.245299 73.08744 
L 119.987616 74.72832 
L 121.472251 74.28456 
L 122.214568 73.21128 
L 122.956886 70.2804 
L 123.699203 70.2288 
L 124.441521 71.56008 
L 125.183838 73.79952 
L 125.926155 73.35576 
L 126.668473 74.0988 
L 127.41079 75.5952 
L 128.153108 75.5952 
L 128.895425 77.61792 
L 129.637743 77.63856 
L 130.38006 75.40944 
L 131.122378 75.40944 
L 131.864695 75.04824 
L 132.607012 74.98632 
L 133.34933 75.58488 
L 134.091647 75.87384 
L 134.833965 76.49304 
L 136.3186 75.82224 
L 137.060917 75.84288 
L 137.803235 76.03896 
L 138.545552 75.51264 
L 139.287869 75.56424 
L 140.030187 75.05856 
L 140.772504 73.26288 
L 141.514822 73.20096 
L 142.257139 73.00488 
L 142.999457 71.68392 
L 143.741774 70.6932 
L 144.484091 72.62304 
L 145.226409 73.52088 
L 145.968726 73.83048 
L 146.711044 73.8408 
L 147.453361 73.29384 
L 148.195679 73.72728 
L 148.937996 70.32168 
L 149.680314 69.77472 
L 150.422631 70.34232 
L 151.164948 70.67256 
L 151.907266 70.51776 
L 152.649583 70.848 
L 153.391901 72.31344 
L 154.134218 76.01832 
L 154.876536 75.41976 
L 155.618853 75.83256 
L 157.103488 75.82224 
L 157.845805 77.82432 
L 158.588123 76.14216 
L 159.33044 74.75928 
L 160.072758 74.96568 
L 160.815075 77.75208 
L 161.557393 79.48584 
L 162.29971 83.31456 
L 163.042027 85.90488 
L 163.784345 84.79032 
L 164.411028 85.84296 
L 165.742877 91.41576 
L 166.482016 88.7532 
L 167.977493 88.55712 
L 168.724047 88.96992 
L 170.204471 90.456 
L 170.946566 90.56952 
L 171.679956 89.15568 
L 172.383104 88.9596 
L 173.173037 90.6624 
L 173.822109 89.94 
L 174.656495 90.00192 
L 176.135889 90.62112 
L 177.624467 90.3528 
L 178.369018 92.004 
L 179.048625 92.13816 
L 179.850981 91.25064 
L 180.589991 89.166 
L 181.330899 89.56848 
L 182.06447 90.93072 
L 182.823653 89.41368 
L 183.558307 90.37344 
L 184.302351 89.79552 
L 185.04051 90.23928 
L 185.784426 88.0824 
L 186.526391 88.7532 
L 187.263012 90.16704 
L 188.012538 90.67272 
L 188.757081 90.18768 
L 189.49463 89.2692 
L 190.236655 89.54784 
L 190.981894 89.49624 
L 191.722776 88.31976 
L 192.464106 88.45392 
L 193.220625 88.46424 
L 193.965039 86.38992 
L 194.694366 84.80064 
L 195.442345 84.8316 
L 196.184869 86.586 
L 196.919961 87.74184 
L 197.657931 87.618 
L 198.411349 88.19592 
L 199.15541 89.08344 
L 199.890854 87.89664 
L 200.688459 87.3084 
L 201.384519 87.65928 
L 202.862994 90.07416 
L 204.359863 89.3724 
L 205.097498 89.00088 
L 205.846182 88.42296 
L 207.32189 89.10408 
L 208.05785 89.14536 
L 208.811345 89.07312 
L 209.555578 87.9792 
L 210.293076 88.29912 
L 211.036596 86.38992 
L 211.776327 87.24648 
L 212.525475 87.1536 
L 213.256443 86.21448 
L 214.758201 87.01944 
L 215.495793 84.44976 
L 216.237543 85.05864 
L 216.983074 84.58392 
L 217.723879 85.04832 
L 218.458009 83.71704 
L 219.21013 84.86256 
L 219.954286 85.6572 
L 220.693347 85.27536 
L 221.433362 84.49104 
L 222.922971 85.32696 
L 223.656431 85.17216 
L 224.410295 85.31664 
L 225.160611 84.11952 
L 225.904484 85.66752 
L 226.644774 85.26504 
L 227.388337 86.26608 
L 228.862138 85.38888 
L 229.619525 85.3992 
L 230.361585 84.09888 
L 231.842946 84.34656 
L 233.315424 85.7604 
L 234.060456 85.0896 
L 235.565909 84.9348 
L 236.297916 85.296 
L 237.043765 85.35792 
L 237.785257 86.1732 
L 238.531235 85.92552 
L 240.017476 87.13296 
L 240.767002 88.10304 
L 241.504001 87.9276 
L 242.248974 88.26816 
L 242.995518 87.78312 
L 243.732148 87.95856 
L 244.464267 88.94928 
L 245.218338 88.14432 
L 246.701495 88.52616 
L 247.451433 88.86672 
L 248.191379 90.22896 
L 248.934247 89.82648 
L 249.665859 89.87808 
L 250.423332 89.46528 
L 251.17663 90.0432 
L 251.911644 89.96064 
L 252.662313 91.99368 
L 253.402087 93.05664 
L 254.132179 93.74808 
L 254.863086 97.02984 
L 255.621358 95.93592 
L 256.366958 95.07936 
L 257.095108 94.46016 
L 257.845123 95.47152 
L 259.337027 94.82136 
L 260.073914 94.8936 
L 260.821619 94.70784 
L 262.335164 93.40752 
L 263.053838 92.9844 
L 263.792598 93.93384 
L 264.552399 94.4292 
L 266.022798 93.87192 
L 266.786844 93.81 
L 267.484785 94.03704 
L 268.971877 95.48184 
L 269.718001 96.63768 
L 270.45122 96.14232 
L 271.207688 96.30744 
L 271.955375 96.29712 
L 272.683301 96.04944 
L 273.436479 95.9256 
L 274.165797 95.39928 
L 274.900038 94.31568 
L 275.63916 93.57264 
L 276.392345 93.32496 
L 277.141854 93.22176 
L 277.873037 93.35592 
L 279.36 93.77904 
L 279.36 93.77904 
" clip-path="url(#pe9e5f0e09e)" style="fill: none; stroke: #4a8dff; stroke-width: 0.6"/>
   </g>
   <g id="line2d_7">
    <path d="M 8.64 63.82008 
L 9.382317 61.36392 
L 10.124635 56.64768 
L 10.866952 54.89328 
L 11.60927 55.04808 
L 12.351587 53.29368 
L 13.093905 52.55064 
L 13.836222 54.77976 
L 14.57854 53.67552 
L 15.320857 52.95312 
L 16.063174 54.45984 
L 16.805492 54.55272 
L 17.547809 55.22352 
L 18.290127 54.98616 
L 19.032444 52.4268 
L 19.774762 53.79936 
L 20.517079 54.08832 
L 21.259396 54.92424 
L 22.001714 54.4908 
L 22.744031 52.98408 
L 23.486349 54.44952 
L 24.228666 54.60432 
L 24.970984 54.62496 
L 26.455619 59.38248 
L 27.197936 60.09456 
L 27.940253 58.39176 
L 28.682571 57.41136 
L 29.424888 58.464 
L 30.167206 57.5352 
L 30.909523 55.0068 
L 31.651841 55.81176 
L 32.394158 55.99752 
L 33.136476 53.13888 
L 33.878793 53.64456 
L 34.62111 52.1688 
L 35.363428 48.69096 
L 36.105745 54.0264 
L 36.848063 55.13064 
L 37.59038 54.96552 
L 38.332698 54.92424 
L 39.075015 56.25552 
L 39.817332 59.8572 
L 40.55965 58.32984 
L 41.301967 60.23904 
L 42.044285 55.65696 
L 42.786602 57.18432 
L 43.52892 59.21736 
L 44.271237 62.55072 
L 45.013555 60.82728 
L 45.755872 61.47744 
L 46.498189 60.12552 
L 47.240507 64.31544 
L 47.982824 63.99552 
L 48.725142 64.5528 
L 49.467459 63.60336 
L 50.209777 61.5084 
L 50.952094 60.96144 
L 51.694412 61.98312 
L 52.436729 62.05536 
L 53.179046 62.51976 
L 54.663681 60.64152 
L 55.405999 61.13688 
L 56.148316 58.6188 
L 56.890634 57.03984 
L 57.632951 56.35872 
L 58.375268 56.5548 
L 59.117586 57.174 
L 59.859903 57.14304 
L 60.602221 55.7292 
L 61.344538 56.04912 
L 62.086856 55.33704 
L 62.829173 56.87472 
L 63.571491 56.8128 
L 64.313808 57.24624 
L 65.056125 59.93976 
L 65.798443 60.64152 
L 66.54076 59.29992 
L 67.283078 63.80976 
L 68.025395 63.03576 
L 68.767713 63.09768 
L 70.252348 58.27824 
L 70.994665 58.5672 
L 71.736982 53.93352 
L 72.4793 51.74568 
L 73.221617 50.04288 
L 73.963935 49.90872 
L 75.44857 47.43192 
L 76.190887 50.80656 
L 76.933204 48.90768 
L 77.675522 50.6208 
L 78.417839 59.42376 
L 79.160157 61.85928 
L 79.902474 57.35976 
L 80.644792 57.3288 
L 81.387109 59.46504 
L 82.871744 64.72824 
L 83.614061 66.42072 
L 84.356379 65.688 
L 85.098696 64.17096 
L 85.841014 62.10696 
L 86.583331 64.30512 
L 87.325649 65.20296 
L 88.067966 62.68488 
L 88.810284 61.70448 
L 89.552601 61.06464 
L 90.294918 58.1028 
L 91.037236 58.40208 
L 91.779553 59.68176 
L 92.521871 62.6952 
L 93.264188 64.56312 
L 94.006506 63.18024 
L 94.748823 62.72616 
L 95.49114 62.06568 
L 96.233458 66.33816 
L 96.975775 71.40528 
L 97.718093 69.08328 
L 98.46041 71.7252 
L 99.202728 69.57864 
L 99.945045 70.72416 
L 100.687363 68.2164 
L 101.42968 66.978 
L 102.171997 70.03272 
L 102.914315 71.5188 
L 103.656632 73.3764 
L 104.39895 78.846 
L 105.141267 77.75208 
L 105.883585 78.88728 
L 106.625902 81.34344 
L 107.36822 80.53848 
L 108.110537 82.0452 
L 108.852854 86.92656 
L 109.595172 88.58808 
L 110.337489 88.96992 
L 111.079807 86.7924 
L 111.822124 85.296 
L 112.564442 86.24544 
L 113.306759 82.96368 
L 114.049076 82.13808 
L 114.791394 82.47864 
L 115.533711 82.58184 
L 116.276029 83.03592 
L 117.018346 87.3084 
L 117.760664 82.06584 
L 118.502981 79.71288 
L 119.245299 81.24024 
L 119.987616 84.17112 
L 120.729933 84.24336 
L 121.472251 83.29392 
L 122.214568 82.8192 
L 122.956886 80.64168 
L 123.699203 81.38472 
L 124.441521 80.87904 
L 125.183838 83.13912 
L 125.926155 83.19072 
L 127.41079 87.17424 
L 128.153108 85.71912 
L 128.895425 87.53544 
L 129.637743 88.17528 
L 130.38006 85.41984 
L 131.864695 84.9348 
L 132.607012 85.01736 
L 133.34933 86.14224 
L 134.091647 85.90488 
L 134.833965 86.328 
L 135.576282 86.24544 
L 136.3186 85.72944 
L 137.060917 85.7088 
L 137.803235 86.40024 
L 138.545552 85.09992 
L 139.287869 86.02872 
L 140.772504 83.53128 
L 142.257139 82.03488 
L 142.999457 79.39296 
L 143.741774 79.66128 
L 144.484091 82.15872 
L 145.226409 82.43736 
L 145.968726 82.93272 
L 146.711044 83.00496 
L 148.195679 82.28256 
L 148.937996 78.01008 
L 149.680314 76.19376 
L 150.422631 77.66952 
L 151.164948 77.74176 
L 151.907266 78.1752 
L 153.391901 80.8068 
L 154.134218 85.20312 
L 154.876536 84.12984 
L 155.618853 84.03696 
L 156.361171 84.06792 
L 157.103488 84.3156 
L 157.845805 87.02976 
L 158.588123 85.21344 
L 159.33044 84.28464 
L 160.072758 84.32592 
L 160.815075 89.08344 
L 161.557393 89.5272 
L 162.29971 95.14128 
L 163.042027 96.98856 
L 163.784345 95.08968 
L 165.000938 99.80592 
L 165.742877 101.79768 
L 166.482016 100.03296 
L 167.241302 100.518 
L 167.977493 99.98136 
L 168.724047 100.49736 
L 170.946566 101.26104 
L 171.679956 100.63152 
L 172.383104 100.38384 
L 173.173037 100.84824 
L 173.822109 100.65216 
L 174.656495 101.034 
L 175.39791 101.19912 
L 177.624467 100.91016 
L 178.369018 101.7564 
L 179.048625 101.84928 
L 179.850981 101.56032 
L 180.589991 100.85856 
L 182.06447 101.4468 
L 182.823653 101.02368 
L 183.558307 101.30232 
L 184.302351 100.81728 
L 185.04051 100.79664 
L 185.784426 99.3312 
L 186.526391 99.92976 
L 187.263012 100.78632 
L 188.012538 101.17848 
L 188.757081 101.1372 
L 189.49463 100.21872 
L 190.981894 100.4664 
L 191.722776 99.88848 
L 192.464106 99.94008 
L 193.220625 99.81624 
L 193.965039 98.93904 
L 194.694366 98.3508 
L 195.442345 98.52624 
L 196.184869 99.78528 
L 196.919961 100.12584 
L 197.657931 100.03296 
L 199.15541 100.83792 
L 199.890854 100.11552 
L 200.688459 99.87816 
L 201.384519 100.002 
L 202.862994 101.41584 
L 203.615423 101.21976 
L 205.097498 101.00304 
L 205.846182 100.86888 
L 206.578722 101.21976 
L 207.32189 101.28168 
L 208.811345 101.14752 
L 209.555578 100.55928 
L 210.293076 100.65216 
L 211.036596 99.80592 
L 211.776327 99.96072 
L 212.525475 99.6408 
L 213.256443 99.1764 
L 214.012077 99.70272 
L 214.758201 99.94008 
L 215.495793 98.57784 
L 216.237543 98.65008 
L 216.983074 98.38176 
L 217.723879 98.48496 
L 218.458009 96.70992 
L 219.21013 98.05152 
L 219.954286 98.48496 
L 220.693347 97.96896 
L 221.433362 96.32808 
L 222.922971 96.16296 
L 223.656431 96.1836 
L 224.410295 96.50352 
L 225.160611 94.76976 
L 225.904484 97.19496 
L 226.644774 96.9576 
L 227.388337 97.9896 
L 228.138765 96.89568 
L 228.862138 95.45088 
L 229.619525 95.67792 
L 230.361585 93.43848 
L 231.842946 92.25168 
L 232.585461 92.87088 
L 233.315424 94.2744 
L 234.060456 93.1392 
L 234.817732 92.97408 
L 235.565909 92.9844 
L 236.297916 92.60256 
L 237.043765 92.53032 
L 237.785257 94.54272 
L 238.531235 92.85024 
L 239.264076 94.82136 
L 240.017476 95.75016 
L 240.767002 96.97824 
L 242.248974 97.23624 
L 242.995518 95.94624 
L 243.732148 96.30744 
L 244.464267 98.08248 
L 245.970424 96.61704 
L 246.701495 97.23624 
L 247.451433 98.08248 
L 248.191379 99.18672 
L 248.934247 99.03192 
L 249.665859 99.1248 
L 250.423332 98.74296 
L 251.17663 99.09384 
L 251.911644 100.0536 
L 252.662313 101.23008 
L 253.402087 101.99376 
L 254.132179 102.08664 
L 254.863086 102.8916 
L 255.621358 102.45816 
L 257.095108 102.10728 
L 257.845123 102.582 
L 259.337027 102.08664 
L 260.073914 102.066 
L 260.821619 101.86992 
L 261.588611 101.48808 
L 262.335164 101.40552 
L 263.053838 101.4984 
L 263.792598 101.97312 
L 264.552399 102.26208 
L 266.022798 101.90088 
L 266.786844 101.90088 
L 267.484785 102.0144 
L 268.229758 102.25176 
L 268.971877 102.6336 
L 269.718001 102.88128 
L 270.45122 102.77808 
L 273.436479 103.00512 
L 274.165797 102.69552 
L 274.900038 102.55104 
L 275.63916 102.2724 
L 277.873037 102.13824 
L 279.36 102.36528 
L 279.36 102.36528 
" clip-path="url(#pe9e5f0e09e)" style="fill: none; stroke: #f5841e; stroke-width: 0.6"/>
   </g>
  </g>
 </g>
 <defs>
  <clipPath id="pe9e5f0e09e">
   <rect x="8.64" y="4.8" width="270.72" height="103.2"/>
  </clipPath>
 </defs>
</svg>
