<?xml version="1.0" encoding="utf-8" standalone="no"?>
<!DOCTYPE svg PUBLIC "-//W3C//DTD SVG 1.1//EN"
  "http://www.w3.org/Graphics/SVG/1.1/DTD/svg11.dtd">
<svg xmlns:xlink="http://www.w3.org/1999/xlink" width="288pt" height="120pt" viewBox="0 0 288 120" xmlns="http://www.w3.org/2000/svg" version="1.1">
<desc id="nav-meta">{"window":"3m","count":4,"labels":["14.01","13.02","14.03","13.04"],"tick_utc":["2026-01-14T12:00:00Z","2026-02-13T03:33:47Z","2026-03-14T03:15:02Z","2026-04-13T04:02:42Z"],"w":720,"h":300}</desc>

 <metadata>
  <rdf:RDF xmlns:dc="http://purl.org/dc/elements/1.1/" xmlns:cc="http://creativecommons.org/ns#" xmlns:rdf="http://www.w3.org/1999/02/22-rdf-syntax-ns#">
   <cc:Work>
    <dc:type rdf:resource="http://purl.org/dc/dcmitype/StillImage"/>
    <dc:date>2026-04-13T19:51:33.473592</dc:date>
    <dc:format>image/svg+xml</dc:format>
    <dc:creator>
     <cc:Agent>
      <dc:title>Matplotlib v3.10.8, https://matplotlib.org/</dc:title>
     </cc:Agent>
    </dc:creator>
   </cc:Work>
  </rdf:RDF>
 </metadata>
 <defs>
  <style type="text/css">*{stroke-linejoin: round; stroke-linecap: butt}</style>
 </defs>
 <g id="figure_1">
  <g id="patch_1">
   <path d="M 0 120 
L 288 120 
L 288 0 
L 0 0 
L 0 120 
z
" style="fill: none; opacity: 0"/>
  </g>
  <g id="axes_1">
   <g id="patch_2">
    <path d="M 8.64 108 
L 279.36 108 
L 279.36 4.8 
L 8.64 4.8 
L 8.64 108 
z
" style="fill: none"/>
   </g>
   <g id="matplotlib.axis_1"/>
   <g id="matplotlib.axis_2"/>
   <g id="line2d_1">
    <path d="M 8.64 87.36 
L 279.36 87.36 
" clip-path="url(#p33cfee045e)" style="fill: none; stroke: #b2b2b2; stroke-opacity: 0.35; stroke-width: 0.5; stroke-linecap: square"/>
   </g>
   <g id="line2d_2">
    <path d="M 8.64 66.72 
L 279.36 66.72 
" clip-path="url(#p33cfee045e)" style="fill: none; stroke: #b2b2b2; stroke-opacity: 0.35; stroke-width: 0.5; stroke-linecap: square"/>
   </g>
   <g id="line2d_3">
    <path d="M 8.64 46.08 
L 279.36 46.08 
" clip-path="url(#p33cfee045e)" style="fill: none; stroke: #b2b2b2; stroke-opacity: 0.35; stroke-width: 0.5; stroke-linecap: square"/>
   </g>
   <g id="line2d_4">
    <path d="M 8.64 25.44 
L 279.36 25.44 
" clip-path="url(#p33cfee045e)" style="fill: none; stroke: #b2b2b2; stroke-opacity: 0.35; stroke-width: 0.5; stroke-linecap: square"/>
   </g>
   <g id="line2d_5">
    <path d="M 8.64 86.86464 
L 11.693169 86.42088 
L 14.746337 87.62832 
L 17.799506 86.93688 
L 20.852674 87.23616 
L 23.905843 88.63968 
L 26.959011 90.0432 
L 30.01218 92.12784 
L 33.065348 91.16808 
L 36.118517 91.46736 
L 39.171685 91.73568 
L 42.224854 91.78728 
L 45.278022 94.0164 
L 48.331191 92.5716 
L 51.384359 91.76664 
L 54.437528 92.33424 
L 57.490696 94.36728 
L 60.543865 94.46016 
L 63.597033 97.71096 
L 66.650202 98.48496 
L 69.70337 97.85544 
L 72.28093 99.10416 
L 74.707245 100.16712 
L 77.758859 102.23112 
L 80.798952 100.54896 
L 83.921913 100.70376 
L 86.949885 100.68312 
L 90.020475 100.95144 
L 93.067318 101.28168 
L 96.109497 101.71512 
L 99.161747 101.84928 
L 102.178199 101.034 
L 105.070264 100.54896 
L 108.319273 101.04432 
L 110.988923 100.81728 
L 114.420769 101.034 
L 117.470227 101.4984 
L 120.50555 101.33328 
L 123.54006 101.1372 
L 126.628107 101.06496 
L 129.690464 102.09696 
L 132.485703 102.05568 
L 135.785811 101.4984 
L 138.825374 100.60056 
L 141.872747 100.80696 
L 144.889942 101.45712 
L 148.012478 100.55928 
L 151.034126 101.10624 
L 154.094397 100.8792 
L 157.130462 100.74504 
L 160.190203 100.21872 
L 163.241923 100.53864 
L 166.271663 101.07528 
L 169.35448 101.38488 
L 172.416801 101.26104 
L 175.450357 100.78632 
L 178.502324 100.91016 
L 181.567507 100.99272 
L 184.614774 100.38384 
L 187.663879 100.50768 
L 190.77546 100.60056 
L 193.837251 99.76464 
L 196.836989 99.49632 
L 199.913445 99.40344 
L 202.967462 100.09488 
L 205.990912 100.3632 
L 209.026199 100.19808 
L 212.125024 100.47672 
L 215.185366 100.79664 
L 218.210265 100.26 
L 221.490831 99.83688 
L 224.353741 100.13616 
L 227.410762 100.80696 
L 230.434741 101.38488 
L 233.529502 101.3436 
L 236.591399 101.292 
L 239.625309 101.28168 
L 242.704662 101.28168 
L 245.717617 101.8596 
L 248.774284 101.88024 
L 251.801302 101.72544 
L 254.900445 101.68416 
L 257.961494 101.47776 
L 260.994838 101.78736 
L 264.052954 101.09592 
L 267.095486 101.46744 
L 270.176748 101.3436 
L 273.183235 101.05464 
L 276.291177 101.3952 
L 279.36 101.47776 
" clip-path="url(#p33cfee045e)" style="fill: none; stroke: #bebebe; stroke-width: 0.5; stroke-linecap: round"/>
   </g>
   <g id="line2d_6">
    <path d="M 8.64 70.32168 
L 11.693169 69.77472 
L 14.746337 70.34232 
L 17.799506 70.67256 
L 20.852674 70.51776 
L 23.905843 70.848 
L 26.959011 72.31344 
L 30.01218 76.01832 
L 33.065348 75.41976 
L 36.118517 75.83256 
L 39.171685 75.79128 
L 42.224854 75.82224 
L 45.278022 77.82432 
L 48.331191 76.14216 
L 51.384359 74.75928 
L 54.437528 74.96568 
L 57.490696 77.75208 
L 60.543865 79.48584 
L 63.597033 83.31456 
L 66.650202 85.90488 
L 69.70337 84.79032 
L 72.28093 85.84296 
L 74.707245 88.25784 
L 77.758859 91.41576 
L 80.798952 88.7532 
L 83.921913 88.65 
L 86.949885 88.55712 
L 90.020475 88.96992 
L 93.067318 89.7336 
L 96.109497 90.456 
L 99.161747 90.56952 
L 102.178199 89.15568 
L 105.070264 88.9596 
L 108.319273 90.6624 
L 110.988923 89.94 
L 114.420769 90.00192 
L 117.470227 90.3528 
L 120.50555 90.62112 
L 123.54006 90.5076 
L 126.628107 90.3528 
L 129.690464 92.004 
L 132.485703 92.13816 
L 135.785811 91.25064 
L 138.825374 89.166 
L 141.872747 89.56848 
L 144.889942 90.93072 
L 148.012478 89.41368 
L 151.034126 90.37344 
L 154.094397 89.79552 
L 157.130462 90.23928 
L 160.190203 88.0824 
L 163.241923 88.7532 
L 166.271663 90.16704 
L 169.35448 90.67272 
L 172.416801 90.18768 
L 175.450357 89.2692 
L 178.502324 89.54784 
L 181.567507 89.49624 
L 184.614774 88.31976 
L 187.663879 88.45392 
L 190.77546 88.46424 
L 193.837251 86.38992 
L 196.836989 84.80064 
L 199.913445 84.8316 
L 202.967462 86.586 
L 205.990912 87.74184 
L 209.026199 87.618 
L 212.125024 88.19592 
L 215.185366 89.08344 
L 218.210265 87.89664 
L 221.490831 87.3084 
L 224.353741 87.65928 
L 227.410762 88.96992 
L 230.434741 90.07416 
L 233.529502 89.76456 
L 236.591399 89.3724 
L 239.625309 89.00088 
L 242.704662 88.42296 
L 245.717617 88.81512 
L 248.774284 89.10408 
L 251.801302 89.14536 
L 254.900445 89.07312 
L 257.961494 87.9792 
L 260.994838 88.29912 
L 264.052954 86.38992 
L 267.095486 87.24648 
L 270.176748 87.1536 
L 273.183235 86.21448 
L 276.291177 86.66856 
L 279.36 87.01944 
" clip-path="url(#p33cfee045e)" style="fill: none; stroke: #4a8dff; stroke-width: 0.6"/>
   </g>
   <g id="line2d_7">
    <path d="M 8.64 78.01008 
L 11.693169 76.19376 
L 14.746337 77.66952 
L 17.799506 77.74176 
L 20.852674 78.1752 
L 23.905843 79.5684 
L 26.959011 80.8068 
L 30.01218 85.20312 
L 33.065348 84.12984 
L 36.118517 84.03696 
L 39.171685 84.06792 
L 42.224854 84.3156 
L 45.278022 87.02976 
L 48.331191 85.21344 
L 51.384359 84.28464 
L 54.437528 84.32592 
L 57.490696 89.08344 
L 60.543865 89.5272 
L 63.597033 95.14128 
L 66.650202 96.98856 
L 69.70337 95.08968 
L 72.28093 97.71096 
L 74.707245 99.80592 
L 77.758859 101.79768 
L 80.798952 100.03296 
L 83.921913 100.518 
L 86.949885 99.98136 
L 90.020475 100.49736 
L 93.067318 100.78632 
L 96.109497 101.07528 
L 99.161747 101.26104 
L 102.178199 100.63152 
L 105.070264 100.38384 
L 108.319273 100.84824 
L 110.988923 100.65216 
L 114.420769 101.034 
L 117.470227 101.19912 
L 120.50555 101.10624 
L 123.54006 100.97208 
L 126.628107 100.91016 
L 129.690464 101.7564 
L 132.485703 101.84928 
L 135.785811 101.56032 
L 138.825374 100.85856 
L 141.872747 101.12688 
L 144.889942 101.4468 
L 148.012478 101.02368 
L 151.034126 101.30232 
L 154.094397 100.81728 
L 157.130462 100.79664 
L 160.190203 99.3312 
L 163.241923 99.92976 
L 166.271663 100.78632 
L 169.35448 101.17848 
L 172.416801 101.1372 
L 175.450357 100.21872 
L 178.502324 100.37352 
L 181.567507 100.4664 
L 184.614774 99.88848 
L 187.663879 99.94008 
L 190.77546 99.81624 
L 193.837251 98.93904 
L 196.836989 98.3508 
L 199.913445 98.52624 
L 202.967462 99.78528 
L 205.990912 100.12584 
L 209.026199 100.03296 
L 212.125024 100.45608 
L 215.185366 100.83792 
L 218.210265 100.11552 
L 221.490831 99.87816 
L 224.353741 100.002 
L 227.410762 100.64184 
L 230.434741 101.41584 
L 233.529502 101.21976 
L 236.591399 101.14752 
L 239.625309 101.00304 
L 242.704662 100.86888 
L 245.717617 101.21976 
L 248.774284 101.28168 
L 251.801302 101.20944 
L 254.900445 101.14752 
L 257.961494 100.55928 
L 260.994838 100.65216 
L 264.052954 99.80592 
L 267.095486 99.96072 
L 270.176748 99.6408 
L 273.183235 99.1764 
L 276.291177 99.70272 
L 279.36 99.94008 
" clip-path="url(#p33cfee045e)" style="fill: none; stroke: #f5841e; stroke-width: 0.6"/>
   </g>
  </g>
 </g>
 <defs>
  <clipPath id="p33cfee045e">
   <rect x="8.64" y="4.8" width="270.72" height="103.2"/>
  </clipPath>
 </defs>
</svg>
