<?xml version="1.0" encoding="utf-8" standalone="no"?>
<!DOCTYPE svg PUBLIC "-//W3C//DTD SVG 1.1//EN"
  "http://www.w3.org/Graphics/SVG/1.1/DTD/svg11.dtd">
<svg xmlns:xlink="http://www.w3.org/1999/xlink" width="288pt" height="120pt" viewBox="0 0 288 120" xmlns="http://www.w3.org/2000/svg" version="1.1">
<desc id="nav-meta">{"window":"3m","count":4,"labels":["06.01","05.02","06.03","05.04"],"tick_utc":["2026-01-06T12:00:00Z","2026-02-05T03:20:02Z","2026-03-06T03:16:38Z","2026-04-05T03:46:34Z"],"w":720,"h":300}</desc>

 <metadata>
  <rdf:RDF xmlns:dc="http://purl.org/dc/elements/1.1/" xmlns:cc="http://creativecommons.org/ns#" xmlns:rdf="http://www.w3.org/1999/02/22-rdf-syntax-ns#">
   <cc:Work>
    <dc:type rdf:resource="http://purl.org/dc/dcmitype/StillImage"/>
    <dc:date>2026-04-05T19:22:15.480079</dc:date>
    <dc:format>image/svg+xml</dc:format>
    <dc:creator>
     <cc:Agent>
      <dc:title>Matplotlib v3.10.8, https://matplotlib.org/</dc:title>
     </cc:Agent>
    </dc:creator>
   </cc:Work>
  </rdf:RDF>
 </metadata>
 <defs>
  <style type="text/css">*{stroke-linejoin: round; stroke-linecap: butt}</style>
 </defs>
 <g id="figure_1">
  <g id="patch_1">
   <path d="M 0 120 
L 288 120 
L 288 0 
L 0 0 
L 0 120 
z
" style="fill: none; opacity: 0"/>
  </g>
  <g id="axes_1">
   <g id="patch_2">
    <path d="M 8.64 108 
L 279.36 108 
L 279.36 4.8 
L 8.64 4.8 
L 8.64 108 
z
" style="fill: none"/>
   </g>
   <g id="matplotlib.axis_1"/>
   <g id="matplotlib.axis_2"/>
   <g id="line2d_1">
    <path d="M 8.64 87.36 
L 279.36 87.36 
" clip-path="url(#p52ee3f83fe)" style="fill: none; stroke: #b2b2b2; stroke-opacity: 0.35; stroke-width: 0.5; stroke-linecap: square"/>
   </g>
   <g id="line2d_2">
    <path d="M 8.64 66.72 
L 279.36 66.72 
" clip-path="url(#p52ee3f83fe)" style="fill: none; stroke: #b2b2b2; stroke-opacity: 0.35; stroke-width: 0.5; stroke-linecap: square"/>
   </g>
   <g id="line2d_3">
    <path d="M 8.64 46.08 
L 279.36 46.08 
" clip-path="url(#p52ee3f83fe)" style="fill: none; stroke: #b2b2b2; stroke-opacity: 0.35; stroke-width: 0.5; stroke-linecap: square"/>
   </g>
   <g id="line2d_4">
    <path d="M 8.64 25.44 
L 279.36 25.44 
" clip-path="url(#p52ee3f83fe)" style="fill: none; stroke: #b2b2b2; stroke-opacity: 0.35; stroke-width: 0.5; stroke-linecap: square"/>
   </g>
   <g id="line2d_5">
    <path d="M 8.64 88.76352 
L 11.693554 87.94824 
L 14.747109 89.2692 
L 17.800663 88.72224 
L 20.854217 89.39304 
L 23.907772 89.40336 
L 26.961326 88.41264 
L 30.01488 88.4952 
L 33.068435 86.86464 
L 36.121989 86.42088 
L 39.175544 87.62832 
L 42.229098 86.93688 
L 45.282652 87.23616 
L 48.336207 88.63968 
L 51.389761 90.0432 
L 54.443315 92.12784 
L 57.49687 91.16808 
L 60.550424 91.46736 
L 63.603978 91.73568 
L 66.657533 91.78728 
L 69.711087 94.0164 
L 72.764641 92.5716 
L 75.818196 91.76664 
L 78.87175 92.33424 
L 81.925304 94.36728 
L 84.978859 94.46016 
L 88.032413 97.71096 
L 91.085967 98.48496 
L 94.139522 97.85544 
L 96.717407 99.10416 
L 99.144029 100.16712 
L 102.196028 102.23112 
L 105.236506 100.54896 
L 108.359861 100.70376 
L 111.388216 100.68312 
L 114.459194 100.95144 
L 117.506422 101.28168 
L 120.548985 101.71512 
L 123.601621 101.84928 
L 126.618455 101.034 
L 129.510885 100.54896 
L 132.760305 101.04432 
L 135.430292 100.81728 
L 138.862572 101.034 
L 141.912415 101.4984 
L 144.948122 101.33328 
L 147.983015 101.1372 
L 151.071452 101.06496 
L 154.134196 102.09696 
L 156.929788 102.05568 
L 160.230313 101.4984 
L 163.270261 100.60056 
L 166.318019 100.80696 
L 169.335595 101.45712 
L 172.458526 100.55928 
L 175.480555 101.10624 
L 178.541213 100.8792 
L 181.577662 100.74504 
L 184.63779 100.21872 
L 187.689895 100.53864 
L 190.720018 101.07528 
L 193.803224 101.38488 
L 196.865932 101.26104 
L 199.899872 100.78632 
L 202.952224 100.91016 
L 206.017795 100.99272 
L 209.065447 100.38384 
L 212.114937 100.50768 
L 215.226912 100.60056 
L 218.28909 99.76464 
L 221.289207 99.49632 
L 224.366052 99.40344 
L 227.420454 100.09488 
L 230.444286 100.3632 
L 233.479957 100.19808 
L 236.579173 100.47672 
L 239.639902 100.79664 
L 242.665183 100.26 
L 245.946163 99.83688 
L 248.809436 100.13616 
L 251.866843 100.80696 
L 254.891205 101.38488 
L 257.986357 101.3436 
L 261.04864 101.292 
L 264.082933 101.28168 
L 267.162676 101.28168 
L 270.176011 101.8596 
L 273.233064 101.88024 
L 276.260466 101.72544 
L 279.36 101.68416 
" clip-path="url(#p52ee3f83fe)" style="fill: none; stroke: #bebebe; stroke-width: 0.5; stroke-linecap: round"/>
   </g>
   <g id="line2d_6">
    <path d="M 8.64 71.68392 
L 11.693554 70.6932 
L 14.747109 72.62304 
L 17.800663 73.52088 
L 20.854217 73.83048 
L 23.907772 73.8408 
L 26.961326 73.29384 
L 30.01488 73.72728 
L 33.068435 70.32168 
L 36.121989 69.77472 
L 39.175544 70.34232 
L 42.229098 70.67256 
L 45.282652 70.51776 
L 48.336207 70.848 
L 51.389761 72.31344 
L 54.443315 76.01832 
L 57.49687 75.41976 
L 60.550424 75.83256 
L 63.603978 75.79128 
L 66.657533 75.82224 
L 69.711087 77.82432 
L 72.764641 76.14216 
L 75.818196 74.75928 
L 78.87175 74.96568 
L 81.925304 77.75208 
L 84.978859 79.48584 
L 88.032413 83.31456 
L 91.085967 85.90488 
L 94.139522 84.79032 
L 96.717407 85.84296 
L 99.144029 88.25784 
L 102.196028 91.41576 
L 105.236506 88.7532 
L 108.359861 88.65 
L 111.388216 88.55712 
L 114.459194 88.96992 
L 117.506422 89.7336 
L 120.548985 90.456 
L 123.601621 90.56952 
L 126.618455 89.15568 
L 129.510885 88.9596 
L 132.760305 90.6624 
L 135.430292 89.94 
L 138.862572 90.00192 
L 141.912415 90.3528 
L 144.948122 90.62112 
L 147.983015 90.5076 
L 151.071452 90.3528 
L 154.134196 92.004 
L 156.929788 92.13816 
L 160.230313 91.25064 
L 163.270261 89.166 
L 166.318019 89.56848 
L 169.335595 90.93072 
L 172.458526 89.41368 
L 175.480555 90.37344 
L 178.541213 89.79552 
L 181.577662 90.23928 
L 184.63779 88.0824 
L 187.689895 88.7532 
L 190.720018 90.16704 
L 193.803224 90.67272 
L 196.865932 90.18768 
L 199.899872 89.2692 
L 202.952224 89.54784 
L 206.017795 89.49624 
L 209.065447 88.31976 
L 212.114937 88.45392 
L 215.226912 88.46424 
L 218.28909 86.38992 
L 221.289207 84.80064 
L 224.366052 84.8316 
L 227.420454 86.586 
L 230.444286 87.74184 
L 233.479957 87.618 
L 236.579173 88.19592 
L 239.639902 89.08344 
L 242.665183 87.89664 
L 245.946163 87.3084 
L 248.809436 87.65928 
L 251.866843 88.96992 
L 254.891205 90.07416 
L 257.986357 89.76456 
L 261.04864 89.3724 
L 264.082933 89.00088 
L 267.162676 88.42296 
L 270.176011 88.81512 
L 273.233064 89.10408 
L 276.260466 89.14536 
L 279.36 89.07312 
" clip-path="url(#p52ee3f83fe)" style="fill: none; stroke: #4a8dff; stroke-width: 0.6"/>
   </g>
   <g id="line2d_7">
    <path d="M 8.64 79.39296 
L 11.693554 79.66128 
L 14.747109 82.15872 
L 17.800663 82.43736 
L 20.854217 82.93272 
L 23.907772 83.00496 
L 26.961326 82.6128 
L 30.01488 82.28256 
L 33.068435 78.01008 
L 36.121989 76.19376 
L 39.175544 77.66952 
L 42.229098 77.74176 
L 45.282652 78.1752 
L 48.336207 79.5684 
L 51.389761 80.8068 
L 54.443315 85.20312 
L 57.49687 84.12984 
L 60.550424 84.03696 
L 63.603978 84.06792 
L 66.657533 84.3156 
L 69.711087 87.02976 
L 72.764641 85.21344 
L 75.818196 84.28464 
L 78.87175 84.32592 
L 81.925304 89.08344 
L 84.978859 89.5272 
L 88.032413 95.14128 
L 91.085967 96.98856 
L 94.139522 95.08968 
L 96.717407 97.71096 
L 99.144029 99.80592 
L 102.196028 101.79768 
L 105.236506 100.03296 
L 108.359861 100.518 
L 111.388216 99.98136 
L 114.459194 100.49736 
L 117.506422 100.78632 
L 120.548985 101.07528 
L 123.601621 101.26104 
L 126.618455 100.63152 
L 129.510885 100.38384 
L 132.760305 100.84824 
L 135.430292 100.65216 
L 138.862572 101.034 
L 141.912415 101.19912 
L 144.948122 101.10624 
L 147.983015 100.97208 
L 151.071452 100.91016 
L 154.134196 101.7564 
L 156.929788 101.84928 
L 160.230313 101.56032 
L 163.270261 100.85856 
L 166.318019 101.12688 
L 169.335595 101.4468 
L 172.458526 101.02368 
L 175.480555 101.30232 
L 178.541213 100.81728 
L 181.577662 100.79664 
L 184.63779 99.3312 
L 187.689895 99.92976 
L 190.720018 100.78632 
L 193.803224 101.17848 
L 196.865932 101.1372 
L 199.899872 100.21872 
L 202.952224 100.37352 
L 206.017795 100.4664 
L 209.065447 99.88848 
L 212.114937 99.94008 
L 215.226912 99.81624 
L 218.28909 98.93904 
L 221.289207 98.3508 
L 224.366052 98.52624 
L 227.420454 99.78528 
L 230.444286 100.12584 
L 233.479957 100.03296 
L 236.579173 100.45608 
L 239.639902 100.83792 
L 242.665183 100.11552 
L 245.946163 99.87816 
L 248.809436 100.002 
L 251.866843 100.64184 
L 254.891205 101.41584 
L 257.986357 101.21976 
L 261.04864 101.14752 
L 264.082933 101.00304 
L 267.162676 100.86888 
L 270.176011 101.21976 
L 273.233064 101.28168 
L 276.260466 101.20944 
L 279.36 101.14752 
" clip-path="url(#p52ee3f83fe)" style="fill: none; stroke: #f5841e; stroke-width: 0.6"/>
   </g>
  </g>
 </g>
 <defs>
  <clipPath id="p52ee3f83fe">
   <rect x="8.64" y="4.8" width="270.72" height="103.2"/>
  </clipPath>
 </defs>
</svg>
