<?xml version="1.0" encoding="utf-8" standalone="no"?>
<!DOCTYPE svg PUBLIC "-//W3C//DTD SVG 1.1//EN"
  "http://www.w3.org/Graphics/SVG/1.1/DTD/svg11.dtd">
<svg xmlns:xlink="http://www.w3.org/1999/xlink" width="288pt" height="120pt" viewBox="0 0 288 120" xmlns="http://www.w3.org/2000/svg" version="1.1">
<desc id="nav-meta">{"window":"6m","count":4,"labels":["12.08","11.10","10.12","08.02"],"tick_utc":["2025-08-12T12:00:00Z","2025-10-11T12:00:00Z","2025-12-10T12:00:00Z","2026-02-08T03:46:03Z"],"w":720,"h":300}</desc>

 <metadata>
  <rdf:RDF xmlns:dc="http://purl.org/dc/elements/1.1/" xmlns:cc="http://creativecommons.org/ns#" xmlns:rdf="http://www.w3.org/1999/02/22-rdf-syntax-ns#">
   <cc:Work>
    <dc:type rdf:resource="http://purl.org/dc/dcmitype/StillImage"/>
    <dc:date>2026-02-08T07:27:13.576783</dc:date>
    <dc:format>image/svg+xml</dc:format>
    <dc:creator>
     <cc:Agent>
      <dc:title>Matplotlib v3.10.8, https://matplotlib.org/</dc:title>
     </cc:Agent>
    </dc:creator>
   </cc:Work>
  </rdf:RDF>
 </metadata>
 <defs>
  <style type="text/css">*{stroke-linejoin: round; stroke-linecap: butt}</style>
 </defs>
 <g id="figure_1">
  <g id="patch_1">
   <path d="M 0 120 
L 288 120 
L 288 0 
L 0 0 
L 0 120 
z
" style="fill: none; opacity: 0"/>
  </g>
  <g id="axes_1">
   <g id="patch_2">
    <path d="M 8.64 108 
L 279.36 108 
L 279.36 4.8 
L 8.64 4.8 
L 8.64 108 
z
" style="fill: none"/>
   </g>
   <g id="matplotlib.axis_1"/>
   <g id="matplotlib.axis_2"/>
   <g id="line2d_1">
    <path d="M 8.64 87.36 
L 279.36 87.36 
" clip-path="url(#pc2acb5294b)" style="fill: none; stroke: #b2b2b2; stroke-opacity: 0.35; stroke-width: 0.5; stroke-linecap: square"/>
   </g>
   <g id="line2d_2">
    <path d="M 8.64 66.72 
L 279.36 66.72 
" clip-path="url(#pc2acb5294b)" style="fill: none; stroke: #b2b2b2; stroke-opacity: 0.35; stroke-width: 0.5; stroke-linecap: square"/>
   </g>
   <g id="line2d_3">
    <path d="M 8.64 46.08 
L 279.36 46.08 
" clip-path="url(#pc2acb5294b)" style="fill: none; stroke: #b2b2b2; stroke-opacity: 0.35; stroke-width: 0.5; stroke-linecap: square"/>
   </g>
   <g id="line2d_4">
    <path d="M 8.64 25.44 
L 279.36 25.44 
" clip-path="url(#pc2acb5294b)" style="fill: none; stroke: #b2b2b2; stroke-opacity: 0.35; stroke-width: 0.5; stroke-linecap: square"/>
   </g>
   <g id="line2d_5">
    <path d="M 8.64 78.68088 
L 10.146872 73.88208 
L 11.653743 71.364 
L 13.160615 73.8408 
L 14.667486 75.79128 
L 16.174358 74.65608 
L 17.68123 74.14008 
L 19.188101 76.50336 
L 20.694973 78.30936 
L 22.201844 75.3372 
L 23.708716 77.25672 
L 25.215588 71.78712 
L 26.722459 70.75512 
L 28.229331 70.24944 
L 29.736202 75.35784 
L 31.243074 72.95328 
L 32.749946 70.96152 
L 34.256817 67.87584 
L 35.763689 70.46616 
L 37.27056 71.11632 
L 38.777432 71.61168 
L 40.284304 72.7056 
L 41.791175 69.33096 
L 43.298047 68.9388 
L 44.804918 71.12664 
L 46.31179 70.90992 
L 47.818662 71.80776 
L 49.325533 70.074 
L 50.832405 68.01 
L 52.339276 67.10184 
L 53.846148 65.29584 
L 55.35302 64.01616 
L 56.859891 60.31128 
L 58.366763 60.19776 
L 59.873634 60.786 
L 61.380506 62.61264 
L 62.887378 61.74576 
L 64.394249 59.57856 
L 65.901121 58.86648 
L 67.407992 61.38456 
L 68.914864 61.07496 
L 70.421736 61.83864 
L 71.928607 66.29688 
L 73.435479 67.97904 
L 74.94235 68.69112 
L 76.449222 73.9956 
L 77.956094 70.45584 
L 79.462965 70.87896 
L 80.969837 68.91816 
L 82.476708 68.3196 
L 83.98358 69.47544 
L 86.997323 62.39592 
L 88.504195 62.81904 
L 90.011067 64.22256 
L 91.517938 64.05744 
L 93.02481 62.9532 
L 94.531681 66.14208 
L 96.038553 63.91296 
L 97.545425 66.17304 
L 99.052296 74.6148 
L 100.559168 77.78304 
L 102.066039 72.66432 
L 103.572911 69.69216 
L 105.079783 71.09568 
L 108.093526 76.06992 
L 109.600397 76.76136 
L 111.107269 75.25464 
L 112.614141 75.24432 
L 114.121012 74.63544 
L 115.627884 75.73968 
L 117.134755 77.31864 
L 118.641627 74.202 
L 120.148499 73.64472 
L 121.65537 73.48992 
L 123.162242 71.83872 
L 124.669113 72.17928 
L 126.175985 73.38672 
L 127.682857 73.43832 
L 129.189728 76.15248 
L 130.6966 75.3372 
L 132.203471 75.58488 
L 133.710343 75.35784 
L 135.217215 81.168 
L 136.724086 84.01632 
L 138.230958 82.06584 
L 139.737829 84.19176 
L 141.244701 82.27224 
L 142.751573 83.29392 
L 144.258444 81.62208 
L 145.765316 80.72424 
L 147.272187 84.33624 
L 148.779059 84.64584 
L 150.285931 86.844 
L 151.792802 88.52616 
L 153.299674 88.36104 
L 154.806545 88.93896 
L 156.313417 90.79656 
L 157.820289 88.09272 
L 159.32716 89.22792 
L 160.834032 90.00192 
L 162.340903 91.39512 
L 163.847775 91.63248 
L 165.354647 90.75528 
L 166.861518 88.7016 
L 168.36839 88.52616 
L 169.875261 87.45288 
L 171.382133 88.0308 
L 172.889005 88.94928 
L 175.902748 89.7336 
L 177.409619 91.86984 
L 178.916491 88.60872 
L 180.423363 86.87496 
L 183.437106 90.11544 
L 184.943977 90.38376 
L 186.450849 90.53856 
L 187.957721 90.08448 
L 189.464592 88.79448 
L 190.971464 89.20728 
L 192.478335 89.22792 
L 193.985207 90.31152 
L 195.492079 90.10512 
L 196.99895 91.09584 
L 198.505822 91.61184 
L 200.012693 91.31256 
L 201.519565 92.87088 
L 203.026437 93.8616 
L 204.533308 92.02464 
L 206.04018 92.13816 
L 207.547051 92.07624 
L 209.053923 92.14848 
L 210.560795 92.64384 
L 212.067666 93.01536 
L 213.574538 93.69648 
L 216.588281 92.44776 
L 218.095153 92.30328 
L 219.602024 92.87088 
L 221.108896 92.38584 
L 222.615767 92.47872 
L 224.122639 91.88016 
L 225.629511 90.42504 
L 227.136382 90.08448 
L 228.643254 89.92968 
L 230.150125 88.76352 
L 231.656997 87.94824 
L 233.163869 89.2692 
L 234.67074 88.72224 
L 236.177612 89.39304 
L 237.684483 89.40336 
L 239.191355 88.41264 
L 240.698227 88.4952 
L 242.205098 86.86464 
L 243.71197 86.42088 
L 245.218842 87.62832 
L 246.725713 86.93688 
L 248.232585 87.23616 
L 251.246328 90.0432 
L 252.7532 92.12784 
L 254.260071 91.16808 
L 257.273814 91.73568 
L 258.780686 91.78728 
L 260.287558 94.0164 
L 261.794429 92.5716 
L 263.301301 91.76664 
L 264.808172 92.33424 
L 266.315044 94.36728 
L 267.821916 94.46016 
L 269.328787 97.71096 
L 270.835659 98.48496 
L 272.34253 97.85544 
L 274.81216 100.16712 
L 276.318265 102.23112 
L 277.818683 100.54896 
L 279.36 100.70376 
L 279.36 100.70376 
" clip-path="url(#pc2acb5294b)" style="fill: none; stroke: #bebebe; stroke-width: 0.5; stroke-linecap: round"/>
   </g>
   <g id="line2d_6">
    <path d="M 8.64 56.83344 
L 10.146872 51.22968 
L 11.653743 48.89736 
L 13.160615 52.00368 
L 14.667486 53.84064 
L 16.174358 53.90256 
L 17.68123 53.00472 
L 19.188101 55.5228 
L 20.694973 59.12448 
L 22.201844 55.32672 
L 23.708716 56.90568 
L 25.215588 47.92728 
L 26.722459 48.75288 
L 28.229331 48.68064 
L 29.736202 54.57336 
L 31.243074 51.2916 
L 32.749946 52.80864 
L 34.256817 52.69512 
L 35.763689 54.82104 
L 38.777432 54.45984 
L 40.284304 55.7292 
L 41.791175 55.39896 
L 43.298047 53.55168 
L 44.804918 55.81176 
L 46.31179 55.6776 
L 47.818662 56.18328 
L 49.325533 55.71888 
L 52.339276 55.63632 
L 53.846148 55.07904 
L 55.35302 53.41752 
L 56.859891 49.71264 
L 58.366763 50.32152 
L 59.873634 51.17808 
L 61.380506 52.44744 
L 62.887378 52.74672 
L 64.394249 51.4464 
L 65.901121 51.46704 
L 67.407992 53.2524 
L 68.914864 53.08728 
L 70.421736 53.5104 
L 71.928607 57.26688 
L 73.435479 57.76224 
L 74.94235 58.02024 
L 76.449222 62.26176 
L 77.956094 59.68176 
L 79.462965 59.9604 
L 80.969837 58.12344 
L 82.476708 57.02952 
L 83.98358 58.09248 
L 85.490452 55.13064 
L 86.997323 53.046 
L 88.504195 52.5816 
L 90.011067 52.9944 
L 91.517938 52.5816 
L 93.02481 50.0016 
L 94.531681 53.48976 
L 96.038553 52.40616 
L 97.545425 54.75912 
L 99.052296 62.67456 
L 100.559168 63.95424 
L 102.066039 57.86544 
L 103.572911 56.57544 
L 105.079783 58.31952 
L 106.586654 60.4764 
L 108.093526 61.85928 
L 109.600397 62.73648 
L 111.107269 61.8696 
L 112.614141 60.45576 
L 114.121012 60.54864 
L 115.627884 62.04504 
L 117.134755 63.16992 
L 118.641627 62.36496 
L 120.148499 61.21944 
L 121.65537 60.9408 
L 123.162242 57.83448 
L 124.669113 58.40208 
L 126.175985 60.49704 
L 129.189728 63.1596 
L 130.6966 62.49912 
L 132.203471 62.1276 
L 133.710343 61.56 
L 136.724086 70.66224 
L 138.230958 68.72208 
L 139.737829 70.4868 
L 141.244701 68.61888 
L 142.751573 69.11424 
L 144.258444 66.5136 
L 145.765316 66.68904 
L 147.272187 68.8872 
L 148.779059 68.9904 
L 150.285931 71.5704 
L 151.792802 73.48992 
L 153.299674 72.54048 
L 154.806545 73.56216 
L 156.313417 74.74896 
L 157.820289 73.3248 
L 159.32716 74.80056 
L 160.834032 77.556 
L 162.340903 78.55704 
L 163.847775 78.50544 
L 165.354647 78.04104 
L 166.861518 75.76032 
L 168.36839 75.73968 
L 169.875261 74.65608 
L 171.382133 74.83152 
L 172.889005 74.57352 
L 174.395876 75.20304 
L 175.902748 75.17208 
L 177.409619 78.05136 
L 180.423363 72.16896 
L 181.930234 73.08744 
L 183.437106 74.72832 
L 186.450849 74.28456 
L 187.957721 73.21128 
L 189.464592 70.2804 
L 190.971464 70.2288 
L 192.478335 71.56008 
L 193.985207 73.79952 
L 195.492079 73.35576 
L 196.99895 74.0988 
L 198.505822 75.5952 
L 200.012693 75.5952 
L 201.519565 77.61792 
L 203.026437 77.63856 
L 204.533308 75.40944 
L 206.04018 75.40944 
L 207.547051 75.04824 
L 209.053923 74.98632 
L 210.560795 75.58488 
L 212.067666 75.87384 
L 213.574538 76.49304 
L 216.588281 75.82224 
L 218.095153 75.84288 
L 219.602024 76.03896 
L 221.108896 75.51264 
L 222.615767 75.56424 
L 224.122639 75.05856 
L 225.629511 73.26288 
L 227.136382 73.20096 
L 228.643254 73.00488 
L 230.150125 71.68392 
L 231.656997 70.6932 
L 233.163869 72.62304 
L 234.67074 73.52088 
L 236.177612 73.83048 
L 237.684483 73.8408 
L 239.191355 73.29384 
L 240.698227 73.72728 
L 242.205098 70.32168 
L 243.71197 69.77472 
L 245.218842 70.34232 
L 246.725713 70.67256 
L 248.232585 70.51776 
L 249.739456 70.848 
L 251.246328 72.31344 
L 252.7532 76.01832 
L 254.260071 75.41976 
L 255.766943 75.83256 
L 258.780686 75.82224 
L 260.287558 77.82432 
L 261.794429 76.14216 
L 263.301301 74.75928 
L 264.808172 74.96568 
L 266.315044 77.75208 
L 267.821916 79.48584 
L 269.328787 83.31456 
L 270.835659 85.90488 
L 272.34253 84.79032 
L 273.614668 85.84296 
L 276.318265 91.41576 
L 277.818683 88.7532 
L 279.36 88.65 
L 279.36 88.65 
" clip-path="url(#pc2acb5294b)" style="fill: none; stroke: #4a8dff; stroke-width: 0.6"/>
   </g>
   <g id="line2d_7">
    <path d="M 8.64 53.64456 
L 10.146872 52.1688 
L 11.653743 48.69096 
L 13.160615 54.0264 
L 14.667486 55.13064 
L 16.174358 54.96552 
L 17.68123 54.92424 
L 19.188101 56.25552 
L 20.694973 59.8572 
L 22.201844 58.32984 
L 23.708716 60.23904 
L 25.215588 55.65696 
L 26.722459 57.18432 
L 28.229331 59.21736 
L 29.736202 62.55072 
L 31.243074 60.82728 
L 32.749946 61.47744 
L 34.256817 60.12552 
L 35.763689 64.31544 
L 37.27056 63.99552 
L 38.777432 64.5528 
L 40.284304 63.60336 
L 41.791175 61.5084 
L 43.298047 60.96144 
L 44.804918 61.98312 
L 46.31179 62.05536 
L 47.818662 62.51976 
L 50.832405 60.64152 
L 52.339276 61.13688 
L 53.846148 58.6188 
L 55.35302 57.03984 
L 56.859891 56.35872 
L 58.366763 56.5548 
L 59.873634 57.174 
L 61.380506 57.14304 
L 62.887378 55.7292 
L 64.394249 56.04912 
L 65.901121 55.33704 
L 67.407992 56.87472 
L 68.914864 56.8128 
L 70.421736 57.24624 
L 71.928607 59.93976 
L 73.435479 60.64152 
L 74.94235 59.29992 
L 76.449222 63.80976 
L 77.956094 63.03576 
L 79.462965 63.09768 
L 80.969837 60.51768 
L 82.476708 58.27824 
L 83.98358 58.5672 
L 85.490452 53.93352 
L 86.997323 51.74568 
L 88.504195 50.04288 
L 90.011067 49.90872 
L 91.517938 48.74256 
L 93.02481 47.43192 
L 94.531681 50.80656 
L 96.038553 48.90768 
L 97.545425 50.6208 
L 99.052296 59.42376 
L 100.559168 61.85928 
L 102.066039 57.35976 
L 103.572911 57.3288 
L 105.079783 59.46504 
L 108.093526 64.72824 
L 109.600397 66.42072 
L 111.107269 65.688 
L 112.614141 64.17096 
L 114.121012 62.10696 
L 115.627884 64.30512 
L 117.134755 65.20296 
L 118.641627 62.68488 
L 120.148499 61.70448 
L 121.65537 61.06464 
L 123.162242 58.1028 
L 124.669113 58.40208 
L 126.175985 59.68176 
L 127.682857 62.6952 
L 129.189728 64.56312 
L 130.6966 63.18024 
L 132.203471 62.72616 
L 133.710343 62.06568 
L 135.217215 66.33816 
L 136.724086 71.40528 
L 138.230958 69.08328 
L 139.737829 71.7252 
L 141.244701 69.57864 
L 142.751573 70.72416 
L 144.258444 68.2164 
L 145.765316 66.978 
L 147.272187 70.03272 
L 148.779059 71.5188 
L 150.285931 73.3764 
L 151.792802 78.846 
L 153.299674 77.75208 
L 154.806545 78.88728 
L 156.313417 81.34344 
L 157.820289 80.53848 
L 159.32716 82.0452 
L 160.834032 86.92656 
L 162.340903 88.58808 
L 163.847775 88.96992 
L 165.354647 86.7924 
L 166.861518 85.296 
L 168.36839 86.24544 
L 169.875261 82.96368 
L 171.382133 82.13808 
L 172.889005 82.47864 
L 174.395876 82.58184 
L 175.902748 83.03592 
L 177.409619 87.3084 
L 178.916491 82.06584 
L 180.423363 79.71288 
L 181.930234 81.24024 
L 183.437106 84.17112 
L 184.943977 84.24336 
L 186.450849 83.29392 
L 187.957721 82.8192 
L 189.464592 80.64168 
L 190.971464 81.38472 
L 192.478335 80.87904 
L 193.985207 83.13912 
L 195.492079 83.19072 
L 196.99895 85.296 
L 198.505822 87.17424 
L 200.012693 85.71912 
L 201.519565 87.53544 
L 203.026437 88.17528 
L 204.533308 85.41984 
L 207.547051 84.9348 
L 209.053923 85.01736 
L 210.560795 86.14224 
L 212.067666 85.90488 
L 213.574538 86.328 
L 215.081409 86.24544 
L 216.588281 85.72944 
L 218.095153 85.7088 
L 219.602024 86.40024 
L 221.108896 85.09992 
L 222.615767 86.02872 
L 225.629511 83.53128 
L 228.643254 82.03488 
L 230.150125 79.39296 
L 231.656997 79.66128 
L 233.163869 82.15872 
L 234.67074 82.43736 
L 236.177612 82.93272 
L 237.684483 83.00496 
L 240.698227 82.28256 
L 242.205098 78.01008 
L 243.71197 76.19376 
L 245.218842 77.66952 
L 246.725713 77.74176 
L 248.232585 78.1752 
L 249.739456 79.5684 
L 251.246328 80.8068 
L 252.7532 85.20312 
L 254.260071 84.12984 
L 255.766943 84.03696 
L 257.273814 84.06792 
L 258.780686 84.3156 
L 260.287558 87.02976 
L 261.794429 85.21344 
L 263.301301 84.28464 
L 264.808172 84.32592 
L 266.315044 89.08344 
L 267.821916 89.5272 
L 269.328787 95.14128 
L 270.835659 96.98856 
L 272.34253 95.08968 
L 273.614668 97.71096 
L 274.81216 99.80592 
L 276.318265 101.79768 
L 277.818683 100.03296 
L 279.36 100.518 
L 279.36 100.518 
" clip-path="url(#pc2acb5294b)" style="fill: none; stroke: #f5841e; stroke-width: 0.6"/>
   </g>
  </g>
 </g>
 <defs>
  <clipPath id="pc2acb5294b">
   <rect x="8.64" y="4.8" width="270.72" height="103.2"/>
  </clipPath>
 </defs>
</svg>
