<?xml version="1.0" encoding="utf-8" standalone="no"?>
<!DOCTYPE svg PUBLIC "-//W3C//DTD SVG 1.1//EN"
  "http://www.w3.org/Graphics/SVG/1.1/DTD/svg11.dtd">
<svg xmlns:xlink="http://www.w3.org/1999/xlink" width="288pt" height="120pt" viewBox="0 0 288 120" xmlns="http://www.w3.org/2000/svg" version="1.1">
<desc id="nav-meta">{"window":"2w","count":4,"labels":["10.03","14.03","19.03","23.03"],"tick_utc":["2026-03-10T03:14:38Z","2026-03-14T03:15:02Z","2026-03-19T03:32:50Z","2026-03-23T03:35:18Z"],"w":720,"h":300}</desc>

 <metadata>
  <rdf:RDF xmlns:dc="http://purl.org/dc/elements/1.1/" xmlns:cc="http://creativecommons.org/ns#" xmlns:rdf="http://www.w3.org/1999/02/22-rdf-syntax-ns#">
   <cc:Work>
    <dc:type rdf:resource="http://purl.org/dc/dcmitype/StillImage"/>
    <dc:date>2026-03-23T14:01:00.783730</dc:date>
    <dc:format>image/svg+xml</dc:format>
    <dc:creator>
     <cc:Agent>
      <dc:title>Matplotlib v3.10.8, https://matplotlib.org/</dc:title>
     </cc:Agent>
    </dc:creator>
   </cc:Work>
  </rdf:RDF>
 </metadata>
 <defs>
  <style type="text/css">*{stroke-linejoin: round; stroke-linecap: butt}</style>
 </defs>
 <g id="figure_1">
  <g id="patch_1">
   <path d="M 0 120 
L 288 120 
L 288 0 
L 0 0 
L 0 120 
z
" style="fill: none; opacity: 0"/>
  </g>
  <g id="axes_1">
   <g id="patch_2">
    <path d="M 8.64 108 
L 279.36 108 
L 279.36 4.8 
L 8.64 4.8 
L 8.64 108 
z
" style="fill: none"/>
   </g>
   <g id="matplotlib.axis_1"/>
   <g id="matplotlib.axis_2"/>
   <g id="line2d_1">
    <path d="M 8.64 87.36 
L 279.36 87.36 
" clip-path="url(#pa3258fd58f)" style="fill: none; stroke: #b2b2b2; stroke-opacity: 0.35; stroke-width: 0.5; stroke-linecap: square"/>
   </g>
   <g id="line2d_2">
    <path d="M 8.64 66.72 
L 279.36 66.72 
" clip-path="url(#pa3258fd58f)" style="fill: none; stroke: #b2b2b2; stroke-opacity: 0.35; stroke-width: 0.5; stroke-linecap: square"/>
   </g>
   <g id="line2d_3">
    <path d="M 8.64 46.08 
L 279.36 46.08 
" clip-path="url(#pa3258fd58f)" style="fill: none; stroke: #b2b2b2; stroke-opacity: 0.35; stroke-width: 0.5; stroke-linecap: square"/>
   </g>
   <g id="line2d_4">
    <path d="M 8.64 25.44 
L 279.36 25.44 
" clip-path="url(#pa3258fd58f)" style="fill: none; stroke: #b2b2b2; stroke-opacity: 0.35; stroke-width: 0.5; stroke-linecap: square"/>
   </g>
   <g id="line2d_5">
    <path d="M 8.64 100.78632 
L 29.433465 100.91016 
L 50.316974 100.99272 
L 71.078417 100.38384 
L 91.852381 100.50768 
L 113.052007 100.60056 
L 133.912403 99.76464 
L 154.350025 99.49632 
L 175.310336 99.40344 
L 196.117765 100.09488 
L 216.716937 100.3632 
L 237.396763 100.19808 
L 258.509475 100.47672 
L 279.36 100.79664 
" clip-path="url(#pa3258fd58f)" style="fill: none; stroke: #bebebe; stroke-width: 0.5; stroke-linecap: round"/>
   </g>
   <g id="line2d_6">
    <path d="M 8.64 89.2692 
L 29.433465 89.54784 
L 50.316974 89.49624 
L 71.078417 88.31976 
L 91.852381 88.45392 
L 113.052007 88.46424 
L 133.912403 86.38992 
L 154.350025 84.80064 
L 175.310336 84.8316 
L 196.117765 86.586 
L 216.716937 87.74184 
L 237.396763 87.618 
L 258.509475 88.19592 
L 279.36 89.08344 
" clip-path="url(#pa3258fd58f)" style="fill: none; stroke: #4a8dff; stroke-width: 0.6"/>
   </g>
   <g id="line2d_7">
    <path d="M 8.64 100.21872 
L 29.433465 100.37352 
L 50.316974 100.4664 
L 71.078417 99.88848 
L 91.852381 99.94008 
L 113.052007 99.81624 
L 133.912403 98.93904 
L 154.350025 98.3508 
L 175.310336 98.52624 
L 196.117765 99.78528 
L 216.716937 100.12584 
L 237.396763 100.03296 
L 258.509475 100.45608 
L 279.36 100.83792 
" clip-path="url(#pa3258fd58f)" style="fill: none; stroke: #f5841e; stroke-width: 0.6"/>
   </g>
  </g>
 </g>
 <defs>
  <clipPath id="pa3258fd58f">
   <rect x="8.64" y="4.8" width="270.72" height="103.2"/>
  </clipPath>
 </defs>
</svg>
