<?xml version="1.0" encoding="utf-8" standalone="no"?>
<!DOCTYPE svg PUBLIC "-//W3C//DTD SVG 1.1//EN"
  "http://www.w3.org/Graphics/SVG/1.1/DTD/svg11.dtd">
<svg xmlns:xlink="http://www.w3.org/1999/xlink" width="288pt" height="120pt" viewBox="0 0 288 120" xmlns="http://www.w3.org/2000/svg" version="1.1">
<desc id="nav-meta">{"window":"3m","count":4,"labels":["28.12","27.01","26.02","28.03"],"tick_utc":["2025-12-28T12:00:00Z","2026-01-27T12:00:00Z","2026-02-26T03:20:47Z","2026-03-28T03:27:32Z"],"w":720,"h":300}</desc>

 <metadata>
  <rdf:RDF xmlns:dc="http://purl.org/dc/elements/1.1/" xmlns:cc="http://creativecommons.org/ns#" xmlns:rdf="http://www.w3.org/1999/02/22-rdf-syntax-ns#">
   <cc:Work>
    <dc:type rdf:resource="http://purl.org/dc/dcmitype/StillImage"/>
    <dc:date>2026-03-28T07:33:00.678059</dc:date>
    <dc:format>image/svg+xml</dc:format>
    <dc:creator>
     <cc:Agent>
      <dc:title>Matplotlib v3.10.8, https://matplotlib.org/</dc:title>
     </cc:Agent>
    </dc:creator>
   </cc:Work>
  </rdf:RDF>
 </metadata>
 <defs>
  <style type="text/css">*{stroke-linejoin: round; stroke-linecap: butt}</style>
 </defs>
 <g id="figure_1">
  <g id="patch_1">
   <path d="M 0 120 
L 288 120 
L 288 0 
L 0 0 
L 0 120 
z
" style="fill: none; opacity: 0"/>
  </g>
  <g id="axes_1">
   <g id="patch_2">
    <path d="M 8.64 108 
L 279.36 108 
L 279.36 4.8 
L 8.64 4.8 
L 8.64 108 
z
" style="fill: none"/>
   </g>
   <g id="matplotlib.axis_1"/>
   <g id="matplotlib.axis_2"/>
   <g id="line2d_1">
    <path d="M 8.64 87.36 
L 279.36 87.36 
" clip-path="url(#pdfb9d23980)" style="fill: none; stroke: #b2b2b2; stroke-opacity: 0.35; stroke-width: 0.5; stroke-linecap: square"/>
   </g>
   <g id="line2d_2">
    <path d="M 8.64 66.72 
L 279.36 66.72 
" clip-path="url(#pdfb9d23980)" style="fill: none; stroke: #b2b2b2; stroke-opacity: 0.35; stroke-width: 0.5; stroke-linecap: square"/>
   </g>
   <g id="line2d_3">
    <path d="M 8.64 46.08 
L 279.36 46.08 
" clip-path="url(#pdfb9d23980)" style="fill: none; stroke: #b2b2b2; stroke-opacity: 0.35; stroke-width: 0.5; stroke-linecap: square"/>
   </g>
   <g id="line2d_4">
    <path d="M 8.64 25.44 
L 279.36 25.44 
" clip-path="url(#pdfb9d23980)" style="fill: none; stroke: #b2b2b2; stroke-opacity: 0.35; stroke-width: 0.5; stroke-linecap: square"/>
   </g>
   <g id="line2d_5">
    <path d="M 8.64 92.44776 
L 11.659942 92.30328 
L 14.679883 92.87088 
L 17.699825 92.38584 
L 20.719766 92.47872 
L 23.739708 91.88016 
L 26.759649 90.42504 
L 29.779591 90.08448 
L 32.799532 89.92968 
L 35.819474 88.76352 
L 38.839415 87.94824 
L 41.859357 89.2692 
L 44.879298 88.72224 
L 47.89924 89.39304 
L 50.919181 89.40336 
L 53.939123 88.41264 
L 56.959064 88.4952 
L 59.979006 86.86464 
L 62.998947 86.42088 
L 66.018889 87.62832 
L 69.03883 86.93688 
L 72.058772 87.23616 
L 75.078713 88.63968 
L 78.098655 90.0432 
L 81.118596 92.12784 
L 84.138538 91.16808 
L 87.158479 91.46736 
L 90.178421 91.73568 
L 93.198362 91.78728 
L 96.218304 94.0164 
L 99.238245 92.5716 
L 102.258187 91.76664 
L 105.278128 92.33424 
L 108.29807 94.36728 
L 111.318011 94.46016 
L 114.337953 97.71096 
L 117.357894 98.48496 
L 120.377836 97.85544 
L 122.927344 99.10416 
L 125.327254 100.16712 
L 128.345658 102.23112 
L 131.352667 100.54896 
L 134.44164 100.70376 
L 137.43666 100.68312 
L 140.473834 100.95144 
L 143.487519 101.28168 
L 146.49659 101.71512 
L 149.515623 101.84928 
L 152.499248 101.034 
L 155.359839 100.54896 
L 158.57349 101.04432 
L 161.214086 100.81728 
L 164.608584 101.034 
L 167.624856 101.4984 
L 170.627146 101.33328 
L 173.628632 101.1372 
L 176.683072 101.06496 
L 179.712102 102.09696 
L 182.476921 102.05568 
L 185.741114 101.4984 
L 188.747599 100.60056 
L 191.761808 100.80696 
L 194.746167 101.45712 
L 197.834722 100.55928 
L 200.823485 101.10624 
L 203.850452 100.8792 
L 206.853476 100.74504 
L 209.879919 100.21872 
L 212.898428 100.53864 
L 215.895195 101.07528 
L 218.944462 101.38488 
L 221.973457 101.26104 
L 224.973999 100.78632 
L 227.992752 100.91016 
L 231.024578 100.99272 
L 234.038682 100.38384 
L 237.054604 100.50768 
L 240.132323 100.60056 
L 243.160793 99.76464 
L 246.127886 99.49632 
L 249.170861 99.40344 
L 252.191641 100.09488 
L 255.182188 100.3632 
L 258.184443 100.19808 
L 261.249544 100.47672 
L 264.276581 100.79664 
L 267.26856 100.26 
L 270.513424 99.83688 
L 273.345178 100.13616 
L 276.36893 100.80696 
L 279.36 101.38488 
" clip-path="url(#pdfb9d23980)" style="fill: none; stroke: #bebebe; stroke-width: 0.5; stroke-linecap: round"/>
   </g>
   <g id="line2d_6">
    <path d="M 8.64 75.82224 
L 11.659942 75.84288 
L 14.679883 76.03896 
L 17.699825 75.51264 
L 20.719766 75.56424 
L 23.739708 75.05856 
L 26.759649 73.26288 
L 29.779591 73.20096 
L 32.799532 73.00488 
L 35.819474 71.68392 
L 38.839415 70.6932 
L 41.859357 72.62304 
L 44.879298 73.52088 
L 47.89924 73.83048 
L 50.919181 73.8408 
L 53.939123 73.29384 
L 56.959064 73.72728 
L 59.979006 70.32168 
L 62.998947 69.77472 
L 66.018889 70.34232 
L 69.03883 70.67256 
L 72.058772 70.51776 
L 75.078713 70.848 
L 78.098655 72.31344 
L 81.118596 76.01832 
L 84.138538 75.41976 
L 87.158479 75.83256 
L 90.178421 75.79128 
L 93.198362 75.82224 
L 96.218304 77.82432 
L 99.238245 76.14216 
L 102.258187 74.75928 
L 105.278128 74.96568 
L 108.29807 77.75208 
L 111.318011 79.48584 
L 114.337953 83.31456 
L 117.357894 85.90488 
L 120.377836 84.79032 
L 122.927344 85.84296 
L 125.327254 88.25784 
L 128.345658 91.41576 
L 131.352667 88.7532 
L 134.44164 88.65 
L 137.43666 88.55712 
L 140.473834 88.96992 
L 143.487519 89.7336 
L 146.49659 90.456 
L 149.515623 90.56952 
L 152.499248 89.15568 
L 155.359839 88.9596 
L 158.57349 90.6624 
L 161.214086 89.94 
L 164.608584 90.00192 
L 167.624856 90.3528 
L 170.627146 90.62112 
L 173.628632 90.5076 
L 176.683072 90.3528 
L 179.712102 92.004 
L 182.476921 92.13816 
L 185.741114 91.25064 
L 188.747599 89.166 
L 191.761808 89.56848 
L 194.746167 90.93072 
L 197.834722 89.41368 
L 200.823485 90.37344 
L 203.850452 89.79552 
L 206.853476 90.23928 
L 209.879919 88.0824 
L 212.898428 88.7532 
L 215.895195 90.16704 
L 218.944462 90.67272 
L 221.973457 90.18768 
L 224.973999 89.2692 
L 227.992752 89.54784 
L 231.024578 89.49624 
L 234.038682 88.31976 
L 237.054604 88.45392 
L 240.132323 88.46424 
L 243.160793 86.38992 
L 246.127886 84.80064 
L 249.170861 84.8316 
L 252.191641 86.586 
L 255.182188 87.74184 
L 258.184443 87.618 
L 261.249544 88.19592 
L 264.276581 89.08344 
L 267.26856 87.89664 
L 270.513424 87.3084 
L 273.345178 87.65928 
L 276.36893 88.96992 
L 279.36 90.07416 
" clip-path="url(#pdfb9d23980)" style="fill: none; stroke: #4a8dff; stroke-width: 0.6"/>
   </g>
   <g id="line2d_7">
    <path d="M 8.64 85.72944 
L 11.659942 85.7088 
L 14.679883 86.40024 
L 17.699825 85.09992 
L 20.719766 86.02872 
L 23.739708 84.78 
L 26.759649 83.53128 
L 29.779591 82.83984 
L 32.799532 82.03488 
L 35.819474 79.39296 
L 38.839415 79.66128 
L 41.859357 82.15872 
L 44.879298 82.43736 
L 47.89924 82.93272 
L 50.919181 83.00496 
L 53.939123 82.6128 
L 56.959064 82.28256 
L 59.979006 78.01008 
L 62.998947 76.19376 
L 66.018889 77.66952 
L 69.03883 77.74176 
L 72.058772 78.1752 
L 75.078713 79.5684 
L 78.098655 80.8068 
L 81.118596 85.20312 
L 84.138538 84.12984 
L 87.158479 84.03696 
L 90.178421 84.06792 
L 93.198362 84.3156 
L 96.218304 87.02976 
L 99.238245 85.21344 
L 102.258187 84.28464 
L 105.278128 84.32592 
L 108.29807 89.08344 
L 111.318011 89.5272 
L 114.337953 95.14128 
L 117.357894 96.98856 
L 120.377836 95.08968 
L 122.927344 97.71096 
L 125.327254 99.80592 
L 128.345658 101.79768 
L 131.352667 100.03296 
L 134.44164 100.518 
L 137.43666 99.98136 
L 140.473834 100.49736 
L 143.487519 100.78632 
L 146.49659 101.07528 
L 149.515623 101.26104 
L 152.499248 100.63152 
L 155.359839 100.38384 
L 158.57349 100.84824 
L 161.214086 100.65216 
L 164.608584 101.034 
L 167.624856 101.19912 
L 170.627146 101.10624 
L 173.628632 100.97208 
L 176.683072 100.91016 
L 179.712102 101.7564 
L 182.476921 101.84928 
L 185.741114 101.56032 
L 188.747599 100.85856 
L 191.761808 101.12688 
L 194.746167 101.4468 
L 197.834722 101.02368 
L 200.823485 101.30232 
L 203.850452 100.81728 
L 206.853476 100.79664 
L 209.879919 99.3312 
L 212.898428 99.92976 
L 215.895195 100.78632 
L 218.944462 101.17848 
L 221.973457 101.1372 
L 224.973999 100.21872 
L 227.992752 100.37352 
L 231.024578 100.4664 
L 234.038682 99.88848 
L 237.054604 99.94008 
L 240.132323 99.81624 
L 243.160793 98.93904 
L 246.127886 98.3508 
L 249.170861 98.52624 
L 252.191641 99.78528 
L 255.182188 100.12584 
L 258.184443 100.03296 
L 261.249544 100.45608 
L 264.276581 100.83792 
L 267.26856 100.11552 
L 270.513424 99.87816 
L 273.345178 100.002 
L 276.36893 100.64184 
L 279.36 101.41584 
" clip-path="url(#pdfb9d23980)" style="fill: none; stroke: #f5841e; stroke-width: 0.6"/>
   </g>
  </g>
 </g>
 <defs>
  <clipPath id="pdfb9d23980">
   <rect x="8.64" y="4.8" width="270.72" height="103.2"/>
  </clipPath>
 </defs>
</svg>
