<?xml version="1.0" encoding="utf-8" standalone="no"?>
<!DOCTYPE svg PUBLIC "-//W3C//DTD SVG 1.1//EN"
  "http://www.w3.org/Graphics/SVG/1.1/DTD/svg11.dtd">
<svg xmlns:xlink="http://www.w3.org/1999/xlink" width="288pt" height="120pt" viewBox="0 0 288 120" xmlns="http://www.w3.org/2000/svg" version="1.1">
<desc id="nav-meta">{"window":"1m","count":4,"labels":["14.06","24.06","03.07","13.07"],"tick_utc":["2026-06-14T05:19:47Z","2026-06-24T04:50:37Z","2026-07-03T04:30:06Z","2026-07-13T04:20:46Z"],"w":720,"h":300}</desc>

 <metadata>
  <rdf:RDF xmlns:dc="http://purl.org/dc/elements/1.1/" xmlns:cc="http://creativecommons.org/ns#" xmlns:rdf="http://www.w3.org/1999/02/22-rdf-syntax-ns#">
   <cc:Work>
    <dc:type rdf:resource="http://purl.org/dc/dcmitype/StillImage"/>
    <dc:date>2026-07-13T09:57:43.112615</dc:date>
    <dc:format>image/svg+xml</dc:format>
    <dc:creator>
     <cc:Agent>
      <dc:title>Matplotlib v3.11.0, https://matplotlib.org/</dc:title>
     </cc:Agent>
    </dc:creator>
   </cc:Work>
  </rdf:RDF>
 </metadata>
 <defs>
  <style type="text/css">*{stroke-linejoin: round; stroke-linecap: butt}</style>
 </defs>
 <g id="figure_1">
  <g id="patch_1">
   <path d="M 0 120 
L 288 120 
L 288 0 
L 0 0 
L 0 120 
z
" style="fill: none; opacity: 0"/>
  </g>
  <g id="axes_1">
   <g id="patch_2">
    <path d="M 8.64 108 
L 279.36 108 
L 279.36 4.8 
L 8.64 4.8 
L 8.64 108 
z
" style="fill: none"/>
   </g>
   <g id="matplotlib.axis_1"/>
   <g id="matplotlib.axis_2"/>
   <g id="line2d_1">
    <path d="M 8.64 87.36 
L 279.36 87.36 
" clip-path="url(#pd511e61ab1)" style="fill: none; stroke: #b2b2b2; stroke-opacity: 0.35; stroke-width: 0.5; stroke-linecap: square"/>
   </g>
   <g id="line2d_2">
    <path d="M 8.64 66.72 
L 279.36 66.72 
" clip-path="url(#pd511e61ab1)" style="fill: none; stroke: #b2b2b2; stroke-opacity: 0.35; stroke-width: 0.5; stroke-linecap: square"/>
   </g>
   <g id="line2d_3">
    <path d="M 8.64 46.08 
L 279.36 46.08 
" clip-path="url(#pd511e61ab1)" style="fill: none; stroke: #b2b2b2; stroke-opacity: 0.35; stroke-width: 0.5; stroke-linecap: square"/>
   </g>
   <g id="line2d_4">
    <path d="M 8.64 25.44 
L 279.36 25.44 
" clip-path="url(#pd511e61ab1)" style="fill: none; stroke: #b2b2b2; stroke-opacity: 0.35; stroke-width: 0.5; stroke-linecap: square"/>
   </g>
   <g id="line2d_5">
    <path d="M 8.64 103.31472 
L 18.299131 102.95352 
L 27.700857 102.61296 
L 36.751478 102.6336 
L 46.055067 102.9948 
L 55.623636 103.28376 
L 64.598192 103.01544 
L 74.141118 102.69552 
L 83.763137 102.582 
L 92.552673 102.88128 
L 101.934491 103.15992 
L 111.280386 103.36632 
L 120.676702 103.36632 
L 129.910503 102.81936 
L 139.437091 103.0464 
L 148.853099 102.9432 
L 158.02025 102.59232 
L 167.505397 102.40656 
L 176.690076 102.02472 
L 185.936753 101.68416 
L 195.244887 101.3436 
L 204.730142 101.6532 
L 214.169088 101.6532 
L 223.377246 101.63256 
L 232.471579 101.95248 
L 242.103336 102.08664 
L 251.430621 101.9112 
L 260.50299 102.066 
L 269.991167 102.18984 
L 279.36 102.31368 
" clip-path="url(#pd511e61ab1)" style="fill: none; stroke: #bebebe; stroke-width: 0.5; stroke-linecap: round"/>
   </g>
   <g id="line2d_6">
    <path d="M 8.64 94.70784 
L 18.299131 94.04736 
L 27.700857 93.40752 
L 36.751478 92.9844 
L 46.055067 93.93384 
L 55.623636 94.4292 
L 64.598192 94.19184 
L 74.141118 93.87192 
L 83.763137 93.81 
L 92.552673 94.03704 
L 101.934491 94.83168 
L 111.280386 95.48184 
L 120.676702 96.63768 
L 129.910503 96.14232 
L 139.437091 96.30744 
L 148.853099 96.29712 
L 158.02025 96.04944 
L 167.505397 95.9256 
L 176.690076 95.39928 
L 185.936753 94.31568 
L 195.244887 93.57264 
L 204.730142 93.32496 
L 214.169088 93.22176 
L 223.377246 93.35592 
L 232.471579 93.61392 
L 242.103336 93.77904 
L 251.430621 93.26304 
L 260.50299 92.92248 
L 269.991167 92.71608 
L 279.36 93.15984 
" clip-path="url(#pd511e61ab1)" style="fill: none; stroke: #4a8dff; stroke-width: 0.6"/>
   </g>
   <g id="line2d_7">
    <path d="M 8.64 101.86992 
L 18.299131 101.48808 
L 27.700857 101.40552 
L 36.751478 101.4984 
L 46.055067 101.97312 
L 55.623636 102.26208 
L 64.598192 102.066 
L 74.141118 101.90088 
L 83.763137 101.90088 
L 92.552673 102.0144 
L 101.934491 102.25176 
L 111.280386 102.6336 
L 120.676702 102.88128 
L 129.910503 102.77808 
L 139.437091 102.85032 
L 148.853099 102.93288 
L 158.02025 102.95352 
L 167.505397 103.00512 
L 176.690076 102.69552 
L 185.936753 102.55104 
L 195.244887 102.2724 
L 204.730142 102.21048 
L 214.169088 102.12792 
L 223.377246 102.13824 
L 232.471579 102.25176 
L 242.103336 102.36528 
L 251.430621 101.94216 
L 260.50299 101.92152 
L 269.991167 101.9112 
L 279.36 102.2208 
" clip-path="url(#pd511e61ab1)" style="fill: none; stroke: #f5841e; stroke-width: 0.6"/>
   </g>
  </g>
 </g>
 <defs>
  <clipPath id="pd511e61ab1">
   <rect x="8.64" y="4.8" width="270.72" height="103.2"/>
  </clipPath>
 </defs>
</svg>
