<?xml version="1.0" encoding="utf-8" standalone="no"?>
<!DOCTYPE svg PUBLIC "-//W3C//DTD SVG 1.1//EN"
  "http://www.w3.org/Graphics/SVG/1.1/DTD/svg11.dtd">
<svg xmlns:xlink="http://www.w3.org/1999/xlink" width="288pt" height="120pt" viewBox="0 0 288 120" xmlns="http://www.w3.org/2000/svg" version="1.1">
<desc id="nav-meta">{"window":"1m","count":4,"labels":["27.04","07.05","16.05","26.05"],"tick_utc":["2026-04-27T04:22:02Z","2026-05-07T04:25:17Z","2026-05-16T04:20:56Z","2026-05-26T04:48:34Z"],"w":720,"h":300}</desc>

 <metadata>
  <rdf:RDF xmlns:dc="http://purl.org/dc/elements/1.1/" xmlns:cc="http://creativecommons.org/ns#" xmlns:rdf="http://www.w3.org/1999/02/22-rdf-syntax-ns#">
   <cc:Work>
    <dc:type rdf:resource="http://purl.org/dc/dcmitype/StillImage"/>
    <dc:date>2026-05-26T20:34:48.400316</dc:date>
    <dc:format>image/svg+xml</dc:format>
    <dc:creator>
     <cc:Agent>
      <dc:title>Matplotlib v3.10.9, https://matplotlib.org/</dc:title>
     </cc:Agent>
    </dc:creator>
   </cc:Work>
  </rdf:RDF>
 </metadata>
 <defs>
  <style type="text/css">*{stroke-linejoin: round; stroke-linecap: butt}</style>
 </defs>
 <g id="figure_1">
  <g id="patch_1">
   <path d="M 0 120 
L 288 120 
L 288 0 
L 0 0 
L 0 120 
z
" style="fill: none; opacity: 0"/>
  </g>
  <g id="axes_1">
   <g id="patch_2">
    <path d="M 8.64 108 
L 279.36 108 
L 279.36 4.8 
L 8.64 4.8 
L 8.64 108 
z
" style="fill: none"/>
   </g>
   <g id="matplotlib.axis_1"/>
   <g id="matplotlib.axis_2"/>
   <g id="line2d_1">
    <path d="M 8.64 87.36 
L 279.36 87.36 
" clip-path="url(#p4cac553a26)" style="fill: none; stroke: #b2b2b2; stroke-opacity: 0.35; stroke-width: 0.5; stroke-linecap: square"/>
   </g>
   <g id="line2d_2">
    <path d="M 8.64 66.72 
L 279.36 66.72 
" clip-path="url(#p4cac553a26)" style="fill: none; stroke: #b2b2b2; stroke-opacity: 0.35; stroke-width: 0.5; stroke-linecap: square"/>
   </g>
   <g id="line2d_3">
    <path d="M 8.64 46.08 
L 279.36 46.08 
" clip-path="url(#p4cac553a26)" style="fill: none; stroke: #b2b2b2; stroke-opacity: 0.35; stroke-width: 0.5; stroke-linecap: square"/>
   </g>
   <g id="line2d_4">
    <path d="M 8.64 25.44 
L 279.36 25.44 
" clip-path="url(#p4cac553a26)" style="fill: none; stroke: #b2b2b2; stroke-opacity: 0.35; stroke-width: 0.5; stroke-linecap: square"/>
   </g>
   <g id="line2d_5">
    <path d="M 8.64 100.64184 
L 17.988789 101.1888 
L 27.292551 101.09592 
L 36.637452 101.37456 
L 46.068628 101.21976 
L 55.159783 101.20944 
L 64.67842 101.23008 
L 74.004425 100.92048 
L 83.128189 101.06496 
L 92.621776 100.70376 
L 101.953504 100.55928 
L 111.127477 100.53864 
L 120.490843 99.60984 
L 130.008076 99.72336 
L 139.410962 99.44472 
L 148.610634 99.25896 
L 157.984257 99.32088 
L 167.303136 100.22904 
L 176.678379 100.01232 
L 185.888525 100.43544 
L 195.357061 100.75536 
L 204.776899 101.02368 
L 214.039306 101.02368 
L 223.401915 101.17848 
L 232.784285 100.7244 
L 242.042049 100.75536 
L 251.243125 101.11656 
L 260.720082 100.91016 
L 270.172098 100.89984 
L 279.36 101.1372 
" clip-path="url(#p4cac553a26)" style="fill: none; stroke: #bebebe; stroke-width: 0.5; stroke-linecap: round"/>
   </g>
   <g id="line2d_6">
    <path d="M 8.64 84.11952 
L 17.988789 85.66752 
L 27.292551 85.26504 
L 36.637452 86.26608 
L 46.068628 85.77072 
L 55.159783 85.38888 
L 64.67842 85.3992 
L 74.004425 84.09888 
L 83.128189 84.22272 
L 92.621776 84.34656 
L 101.953504 85.06896 
L 111.127477 85.7604 
L 120.490843 85.0896 
L 130.008076 85.01736 
L 139.410962 84.9348 
L 148.610634 85.296 
L 157.984257 85.35792 
L 167.303136 86.1732 
L 176.678379 85.92552 
L 185.888525 86.55504 
L 195.357061 87.13296 
L 204.776899 88.10304 
L 214.039306 87.9276 
L 223.401915 88.26816 
L 232.784285 87.78312 
L 242.042049 87.95856 
L 251.243125 88.94928 
L 260.720082 88.14432 
L 270.172098 88.33008 
L 279.36 88.52616 
" clip-path="url(#p4cac553a26)" style="fill: none; stroke: #4a8dff; stroke-width: 0.6"/>
   </g>
   <g id="line2d_7">
    <path d="M 8.64 94.76976 
L 17.988789 97.19496 
L 27.292551 96.9576 
L 36.637452 97.9896 
L 46.068628 96.89568 
L 55.159783 95.45088 
L 64.67842 95.67792 
L 74.004425 93.43848 
L 83.128189 92.90184 
L 92.621776 92.25168 
L 101.953504 92.87088 
L 111.127477 94.2744 
L 120.490843 93.1392 
L 130.008076 92.97408 
L 139.410962 92.9844 
L 148.610634 92.60256 
L 157.984257 92.53032 
L 167.303136 94.54272 
L 176.678379 92.85024 
L 185.888525 94.82136 
L 195.357061 95.75016 
L 204.776899 96.97824 
L 214.039306 97.08144 
L 223.401915 97.23624 
L 232.784285 95.94624 
L 242.042049 96.30744 
L 251.243125 98.08248 
L 260.720082 97.2672 
L 270.172098 96.61704 
L 279.36 97.23624 
" clip-path="url(#p4cac553a26)" style="fill: none; stroke: #f5841e; stroke-width: 0.6"/>
   </g>
  </g>
 </g>
 <defs>
  <clipPath id="p4cac553a26">
   <rect x="8.64" y="4.8" width="270.72" height="103.2"/>
  </clipPath>
 </defs>
</svg>
