<?xml version="1.0" encoding="utf-8" standalone="no"?>
<!DOCTYPE svg PUBLIC "-//W3C//DTD SVG 1.1//EN"
  "http://www.w3.org/Graphics/SVG/1.1/DTD/svg11.dtd">
<svg xmlns:xlink="http://www.w3.org/1999/xlink" width="288pt" height="120pt" viewBox="0 0 288 120" xmlns="http://www.w3.org/2000/svg" version="1.1">
<desc id="nav-meta">{"window":"1m","count":4,"labels":["11.02","21.02","03.03","13.03"],"tick_utc":["2026-02-11T03:39:24Z","2026-02-21T03:11:36Z","2026-03-03T03:22:17Z","2026-03-13T03:16:57Z"],"w":720,"h":300}</desc>

 <metadata>
  <rdf:RDF xmlns:dc="http://purl.org/dc/elements/1.1/" xmlns:cc="http://creativecommons.org/ns#" xmlns:rdf="http://www.w3.org/1999/02/22-rdf-syntax-ns#">
   <cc:Work>
    <dc:type rdf:resource="http://purl.org/dc/dcmitype/StillImage"/>
    <dc:date>2026-03-13T03:16:59.123043</dc:date>
    <dc:format>image/svg+xml</dc:format>
    <dc:creator>
     <cc:Agent>
      <dc:title>Matplotlib v3.10.8, https://matplotlib.org/</dc:title>
     </cc:Agent>
    </dc:creator>
   </cc:Work>
  </rdf:RDF>
 </metadata>
 <defs>
  <style type="text/css">*{stroke-linejoin: round; stroke-linecap: butt}</style>
 </defs>
 <g id="figure_1">
  <g id="patch_1">
   <path d="M 0 120 
L 288 120 
L 288 0 
L 0 0 
L 0 120 
z
" style="fill: none; opacity: 0"/>
  </g>
  <g id="axes_1">
   <g id="patch_2">
    <path d="M 8.64 108 
L 279.36 108 
L 279.36 4.8 
L 8.64 4.8 
L 8.64 108 
z
" style="fill: none"/>
   </g>
   <g id="matplotlib.axis_1"/>
   <g id="matplotlib.axis_2"/>
   <g id="line2d_1">
    <path d="M 8.64 87.36 
L 279.36 87.36 
" clip-path="url(#p2320ce750f)" style="fill: none; stroke: #b2b2b2; stroke-opacity: 0.35; stroke-width: 0.5; stroke-linecap: square"/>
   </g>
   <g id="line2d_2">
    <path d="M 8.64 66.72 
L 279.36 66.72 
" clip-path="url(#p2320ce750f)" style="fill: none; stroke: #b2b2b2; stroke-opacity: 0.35; stroke-width: 0.5; stroke-linecap: square"/>
   </g>
   <g id="line2d_3">
    <path d="M 8.64 46.08 
L 279.36 46.08 
" clip-path="url(#p2320ce750f)" style="fill: none; stroke: #b2b2b2; stroke-opacity: 0.35; stroke-width: 0.5; stroke-linecap: square"/>
   </g>
   <g id="line2d_4">
    <path d="M 8.64 25.44 
L 279.36 25.44 
" clip-path="url(#p2320ce750f)" style="fill: none; stroke: #b2b2b2; stroke-opacity: 0.35; stroke-width: 0.5; stroke-linecap: square"/>
   </g>
   <g id="line2d_5">
    <path d="M 8.64 101.28168 
L 17.636193 101.71512 
L 26.662168 101.84928 
L 35.582286 101.034 
L 44.134568 100.54896 
L 53.742392 101.04432 
L 61.636959 100.81728 
L 71.78546 101.034 
L 80.803179 101.4984 
L 89.779099 101.33328 
L 98.752616 101.1372 
L 107.884448 101.06496 
L 116.94031 102.09696 
L 125.206266 102.05568 
L 134.965195 101.4984 
L 143.953655 100.60056 
L 152.965209 100.80696 
L 161.887521 101.45712 
L 171.121344 100.55928 
L 180.056823 101.10624 
L 189.10652 100.8792 
L 198.084634 100.74504 
L 207.132763 100.21872 
L 216.157171 100.53864 
L 225.11658 101.07528 
L 234.232946 101.38488 
L 243.288704 101.26104 
L 252.259399 100.78632 
L 261.284538 100.91016 
L 270.348759 100.99272 
L 279.36 100.38384 
" clip-path="url(#p2320ce750f)" style="fill: none; stroke: #bebebe; stroke-width: 0.5; stroke-linecap: round"/>
   </g>
   <g id="line2d_6">
    <path d="M 8.64 89.7336 
L 17.636193 90.456 
L 26.662168 90.56952 
L 35.582286 89.15568 
L 44.134568 88.9596 
L 53.742392 90.6624 
L 61.636959 89.94 
L 71.78546 90.00192 
L 80.803179 90.3528 
L 89.779099 90.62112 
L 98.752616 90.5076 
L 107.884448 90.3528 
L 116.94031 92.004 
L 125.206266 92.13816 
L 134.965195 91.25064 
L 143.953655 89.166 
L 152.965209 89.56848 
L 161.887521 90.93072 
L 171.121344 89.41368 
L 180.056823 90.37344 
L 189.10652 89.79552 
L 198.084634 90.23928 
L 207.132763 88.0824 
L 216.157171 88.7532 
L 225.11658 90.16704 
L 234.232946 90.67272 
L 243.288704 90.18768 
L 252.259399 89.2692 
L 261.284538 89.54784 
L 270.348759 89.49624 
L 279.36 88.31976 
" clip-path="url(#p2320ce750f)" style="fill: none; stroke: #4a8dff; stroke-width: 0.6"/>
   </g>
   <g id="line2d_7">
    <path d="M 8.64 100.78632 
L 17.636193 101.07528 
L 26.662168 101.26104 
L 35.582286 100.63152 
L 44.134568 100.38384 
L 53.742392 100.84824 
L 61.636959 100.65216 
L 71.78546 101.034 
L 80.803179 101.19912 
L 89.779099 101.10624 
L 98.752616 100.97208 
L 107.884448 100.91016 
L 116.94031 101.7564 
L 125.206266 101.84928 
L 134.965195 101.56032 
L 143.953655 100.85856 
L 152.965209 101.12688 
L 161.887521 101.4468 
L 171.121344 101.02368 
L 180.056823 101.30232 
L 189.10652 100.81728 
L 198.084634 100.79664 
L 207.132763 99.3312 
L 216.157171 99.92976 
L 225.11658 100.78632 
L 234.232946 101.17848 
L 243.288704 101.1372 
L 252.259399 100.21872 
L 261.284538 100.37352 
L 270.348759 100.4664 
L 279.36 99.88848 
" clip-path="url(#p2320ce750f)" style="fill: none; stroke: #f5841e; stroke-width: 0.6"/>
   </g>
  </g>
 </g>
 <defs>
  <clipPath id="p2320ce750f">
   <rect x="8.64" y="4.8" width="270.72" height="103.2"/>
  </clipPath>
 </defs>
</svg>
