<?xml version="1.0" encoding="utf-8" standalone="no"?>
<!DOCTYPE svg PUBLIC "-//W3C//DTD SVG 1.1//EN"
  "http://www.w3.org/Graphics/SVG/1.1/DTD/svg11.dtd">
<svg xmlns:xlink="http://www.w3.org/1999/xlink" width="288pt" height="120pt" viewBox="0 0 288 120" xmlns="http://www.w3.org/2000/svg" version="1.1">
<desc id="nav-meta">{"window":"3m","count":4,"labels":["08.01","07.02","09.03","08.04"],"tick_utc":["2026-01-08T12:00:00Z","2026-02-07T03:13:08Z","2026-03-09T03:23:53Z","2026-04-08T03:43:16Z"],"w":720,"h":300}</desc>

 <metadata>
  <rdf:RDF xmlns:dc="http://purl.org/dc/elements/1.1/" xmlns:cc="http://creativecommons.org/ns#" xmlns:rdf="http://www.w3.org/1999/02/22-rdf-syntax-ns#">
   <cc:Work>
    <dc:type rdf:resource="http://purl.org/dc/dcmitype/StillImage"/>
    <dc:date>2026-04-08T08:02:14.153201</dc:date>
    <dc:format>image/svg+xml</dc:format>
    <dc:creator>
     <cc:Agent>
      <dc:title>Matplotlib v3.10.8, https://matplotlib.org/</dc:title>
     </cc:Agent>
    </dc:creator>
   </cc:Work>
  </rdf:RDF>
 </metadata>
 <defs>
  <style type="text/css">*{stroke-linejoin: round; stroke-linecap: butt}</style>
 </defs>
 <g id="figure_1">
  <g id="patch_1">
   <path d="M 0 120 
L 288 120 
L 288 0 
L 0 0 
L 0 120 
z
" style="fill: none; opacity: 0"/>
  </g>
  <g id="axes_1">
   <g id="patch_2">
    <path d="M 8.64 108 
L 279.36 108 
L 279.36 4.8 
L 8.64 4.8 
L 8.64 108 
z
" style="fill: none"/>
   </g>
   <g id="matplotlib.axis_1"/>
   <g id="matplotlib.axis_2"/>
   <g id="line2d_1">
    <path d="M 8.64 87.36 
L 279.36 87.36 
" clip-path="url(#p14c8a994a1)" style="fill: none; stroke: #b2b2b2; stroke-opacity: 0.35; stroke-width: 0.5; stroke-linecap: square"/>
   </g>
   <g id="line2d_2">
    <path d="M 8.64 66.72 
L 279.36 66.72 
" clip-path="url(#p14c8a994a1)" style="fill: none; stroke: #b2b2b2; stroke-opacity: 0.35; stroke-width: 0.5; stroke-linecap: square"/>
   </g>
   <g id="line2d_3">
    <path d="M 8.64 46.08 
L 279.36 46.08 
" clip-path="url(#p14c8a994a1)" style="fill: none; stroke: #b2b2b2; stroke-opacity: 0.35; stroke-width: 0.5; stroke-linecap: square"/>
   </g>
   <g id="line2d_4">
    <path d="M 8.64 25.44 
L 279.36 25.44 
" clip-path="url(#p14c8a994a1)" style="fill: none; stroke: #b2b2b2; stroke-opacity: 0.35; stroke-width: 0.5; stroke-linecap: square"/>
   </g>
   <g id="line2d_5">
    <path d="M 8.64 89.2692 
L 11.659573 88.72224 
L 14.679147 89.39304 
L 17.69872 89.40336 
L 20.718294 88.41264 
L 23.737867 88.4952 
L 26.757441 86.86464 
L 29.777014 86.42088 
L 32.796588 87.62832 
L 35.816161 86.93688 
L 38.835735 87.23616 
L 41.855308 88.63968 
L 44.874882 90.0432 
L 47.894455 92.12784 
L 50.914029 91.16808 
L 53.933602 91.46736 
L 56.953176 91.73568 
L 59.972749 91.78728 
L 62.992323 94.0164 
L 66.011896 92.5716 
L 69.03147 91.76664 
L 72.051043 92.33424 
L 75.070617 94.36728 
L 78.09019 94.46016 
L 81.109763 97.71096 
L 84.129337 98.48496 
L 87.14891 97.85544 
L 89.698108 99.10416 
L 92.097726 100.16712 
L 95.115761 102.23112 
L 98.122404 100.54896 
L 101.211001 100.70376 
L 104.205656 100.68312 
L 107.242459 100.95144 
L 110.255777 101.28168 
L 113.264482 101.71512 
L 116.283146 101.84928 
L 119.266408 101.034 
L 122.12665 100.54896 
L 125.33991 101.04432 
L 127.980184 100.81728 
L 131.374269 101.034 
L 134.390172 101.4984 
L 137.392097 101.33328 
L 140.393217 101.1372 
L 143.447285 101.06496 
L 146.475945 102.09696 
L 149.240428 102.05568 
L 152.504223 101.4984 
L 155.510341 100.60056 
L 158.524183 100.80696 
L 161.508179 101.45712 
L 164.596357 100.55928 
L 167.584756 101.10624 
L 170.611354 100.8792 
L 173.614013 100.74504 
L 176.640087 100.21872 
L 179.658227 100.53864 
L 182.65463 101.07528 
L 185.703525 101.38488 
L 188.73215 101.26104 
L 191.732327 100.78632 
L 194.750712 100.91016 
L 197.782168 100.99272 
L 200.795905 100.38384 
L 203.81146 100.50768 
L 206.888804 100.60056 
L 209.916905 99.76464 
L 212.883636 99.49632 
L 215.92624 99.40344 
L 218.946653 100.09488 
L 221.936834 100.3632 
L 224.938723 100.19808 
L 228.003451 100.47672 
L 231.030119 100.79664 
L 234.021733 100.26 
L 237.266202 99.83688 
L 240.097611 100.13616 
L 243.120994 100.80696 
L 246.1117 101.38488 
L 249.172408 101.3436 
L 252.200614 101.292 
L 255.201141 101.28168 
L 258.246611 101.28168 
L 261.226413 101.8596 
L 264.249446 101.88024 
L 267.243158 101.72544 
L 270.308199 101.68416 
L 273.335566 101.47776 
L 276.335534 101.78736 
L 279.36 101.09592 
" clip-path="url(#p14c8a994a1)" style="fill: none; stroke: #bebebe; stroke-width: 0.5; stroke-linecap: round"/>
   </g>
   <g id="line2d_6">
    <path d="M 8.64 72.62304 
L 11.659573 73.52088 
L 14.679147 73.83048 
L 17.69872 73.8408 
L 20.718294 73.29384 
L 23.737867 73.72728 
L 26.757441 70.32168 
L 29.777014 69.77472 
L 32.796588 70.34232 
L 35.816161 70.67256 
L 38.835735 70.51776 
L 41.855308 70.848 
L 44.874882 72.31344 
L 47.894455 76.01832 
L 50.914029 75.41976 
L 53.933602 75.83256 
L 56.953176 75.79128 
L 59.972749 75.82224 
L 62.992323 77.82432 
L 66.011896 76.14216 
L 69.03147 74.75928 
L 72.051043 74.96568 
L 75.070617 77.75208 
L 78.09019 79.48584 
L 81.109763 83.31456 
L 84.129337 85.90488 
L 87.14891 84.79032 
L 89.698108 85.84296 
L 92.097726 88.25784 
L 95.115761 91.41576 
L 98.122404 88.7532 
L 101.211001 88.65 
L 104.205656 88.55712 
L 107.242459 88.96992 
L 110.255777 89.7336 
L 113.264482 90.456 
L 116.283146 90.56952 
L 119.266408 89.15568 
L 122.12665 88.9596 
L 125.33991 90.6624 
L 127.980184 89.94 
L 131.374269 90.00192 
L 134.390172 90.3528 
L 137.392097 90.62112 
L 140.393217 90.5076 
L 143.447285 90.3528 
L 146.475945 92.004 
L 149.240428 92.13816 
L 152.504223 91.25064 
L 155.510341 89.166 
L 158.524183 89.56848 
L 161.508179 90.93072 
L 164.596357 89.41368 
L 167.584756 90.37344 
L 170.611354 89.79552 
L 173.614013 90.23928 
L 176.640087 88.0824 
L 179.658227 88.7532 
L 182.65463 90.16704 
L 185.703525 90.67272 
L 188.73215 90.18768 
L 191.732327 89.2692 
L 194.750712 89.54784 
L 197.782168 89.49624 
L 200.795905 88.31976 
L 203.81146 88.45392 
L 206.888804 88.46424 
L 209.916905 86.38992 
L 212.883636 84.80064 
L 215.92624 84.8316 
L 218.946653 86.586 
L 221.936834 87.74184 
L 224.938723 87.618 
L 228.003451 88.19592 
L 231.030119 89.08344 
L 234.021733 87.89664 
L 237.266202 87.3084 
L 240.097611 87.65928 
L 243.120994 88.96992 
L 246.1117 90.07416 
L 249.172408 89.76456 
L 252.200614 89.3724 
L 255.201141 89.00088 
L 258.246611 88.42296 
L 261.226413 88.81512 
L 264.249446 89.10408 
L 267.243158 89.14536 
L 270.308199 89.07312 
L 273.335566 87.9792 
L 276.335534 88.29912 
L 279.36 86.38992 
" clip-path="url(#p14c8a994a1)" style="fill: none; stroke: #4a8dff; stroke-width: 0.6"/>
   </g>
   <g id="line2d_7">
    <path d="M 8.64 82.15872 
L 11.659573 82.43736 
L 14.679147 82.93272 
L 17.69872 83.00496 
L 20.718294 82.6128 
L 23.737867 82.28256 
L 26.757441 78.01008 
L 29.777014 76.19376 
L 32.796588 77.66952 
L 35.816161 77.74176 
L 38.835735 78.1752 
L 41.855308 79.5684 
L 44.874882 80.8068 
L 47.894455 85.20312 
L 50.914029 84.12984 
L 53.933602 84.03696 
L 56.953176 84.06792 
L 59.972749 84.3156 
L 62.992323 87.02976 
L 66.011896 85.21344 
L 69.03147 84.28464 
L 72.051043 84.32592 
L 75.070617 89.08344 
L 78.09019 89.5272 
L 81.109763 95.14128 
L 84.129337 96.98856 
L 87.14891 95.08968 
L 89.698108 97.71096 
L 92.097726 99.80592 
L 95.115761 101.79768 
L 98.122404 100.03296 
L 101.211001 100.518 
L 104.205656 99.98136 
L 107.242459 100.49736 
L 110.255777 100.78632 
L 113.264482 101.07528 
L 116.283146 101.26104 
L 119.266408 100.63152 
L 122.12665 100.38384 
L 125.33991 100.84824 
L 127.980184 100.65216 
L 131.374269 101.034 
L 134.390172 101.19912 
L 137.392097 101.10624 
L 140.393217 100.97208 
L 143.447285 100.91016 
L 146.475945 101.7564 
L 149.240428 101.84928 
L 152.504223 101.56032 
L 155.510341 100.85856 
L 158.524183 101.12688 
L 161.508179 101.4468 
L 164.596357 101.02368 
L 167.584756 101.30232 
L 170.611354 100.81728 
L 173.614013 100.79664 
L 176.640087 99.3312 
L 179.658227 99.92976 
L 182.65463 100.78632 
L 185.703525 101.17848 
L 188.73215 101.1372 
L 191.732327 100.21872 
L 194.750712 100.37352 
L 197.782168 100.4664 
L 200.795905 99.88848 
L 203.81146 99.94008 
L 206.888804 99.81624 
L 209.916905 98.93904 
L 212.883636 98.3508 
L 215.92624 98.52624 
L 218.946653 99.78528 
L 221.936834 100.12584 
L 224.938723 100.03296 
L 228.003451 100.45608 
L 231.030119 100.83792 
L 234.021733 100.11552 
L 237.266202 99.87816 
L 240.097611 100.002 
L 243.120994 100.64184 
L 246.1117 101.41584 
L 249.172408 101.21976 
L 252.200614 101.14752 
L 255.201141 101.00304 
L 258.246611 100.86888 
L 261.226413 101.21976 
L 264.249446 101.28168 
L 267.243158 101.20944 
L 270.308199 101.14752 
L 273.335566 100.55928 
L 276.335534 100.65216 
L 279.36 99.80592 
" clip-path="url(#p14c8a994a1)" style="fill: none; stroke: #f5841e; stroke-width: 0.6"/>
   </g>
  </g>
 </g>
 <defs>
  <clipPath id="p14c8a994a1">
   <rect x="8.64" y="4.8" width="270.72" height="103.2"/>
  </clipPath>
 </defs>
</svg>
