<?xml version="1.0" encoding="utf-8" standalone="no"?>
<!DOCTYPE svg PUBLIC "-//W3C//DTD SVG 1.1//EN"
  "http://www.w3.org/Graphics/SVG/1.1/DTD/svg11.dtd">
<svg xmlns:xlink="http://www.w3.org/1999/xlink" width="288pt" height="120pt" viewBox="0 0 288 120" xmlns="http://www.w3.org/2000/svg" version="1.1">
<desc id="nav-meta">{"window":"6m","count":4,"labels":["02.11","01.01","01.03","30.04"],"tick_utc":["2025-11-02T12:00:00Z","2026-01-01T12:00:00Z","2026-03-01T03:33:48Z","2026-04-30T04:23:32Z"],"w":720,"h":300}</desc>

 <metadata>
  <rdf:RDF xmlns:dc="http://purl.org/dc/elements/1.1/" xmlns:cc="http://creativecommons.org/ns#" xmlns:rdf="http://www.w3.org/1999/02/22-rdf-syntax-ns#">
   <cc:Work>
    <dc:type rdf:resource="http://purl.org/dc/dcmitype/StillImage"/>
    <dc:date>2026-04-30T20:00:50.624639</dc:date>
    <dc:format>image/svg+xml</dc:format>
    <dc:creator>
     <cc:Agent>
      <dc:title>Matplotlib v3.10.9, https://matplotlib.org/</dc:title>
     </cc:Agent>
    </dc:creator>
   </cc:Work>
  </rdf:RDF>
 </metadata>
 <defs>
  <style type="text/css">*{stroke-linejoin: round; stroke-linecap: butt}</style>
 </defs>
 <g id="figure_1">
  <g id="patch_1">
   <path d="M 0 120 
L 288 120 
L 288 0 
L 0 0 
L 0 120 
z
" style="fill: none; opacity: 0"/>
  </g>
  <g id="axes_1">
   <g id="patch_2">
    <path d="M 8.64 108 
L 279.36 108 
L 279.36 4.8 
L 8.64 4.8 
L 8.64 108 
z
" style="fill: none"/>
   </g>
   <g id="matplotlib.axis_1"/>
   <g id="matplotlib.axis_2"/>
   <g id="line2d_1">
    <path d="M 8.64 87.36 
L 279.36 87.36 
" clip-path="url(#p2023bf0d7c)" style="fill: none; stroke: #b2b2b2; stroke-opacity: 0.35; stroke-width: 0.5; stroke-linecap: square"/>
   </g>
   <g id="line2d_2">
    <path d="M 8.64 66.72 
L 279.36 66.72 
" clip-path="url(#p2023bf0d7c)" style="fill: none; stroke: #b2b2b2; stroke-opacity: 0.35; stroke-width: 0.5; stroke-linecap: square"/>
   </g>
   <g id="line2d_3">
    <path d="M 8.64 46.08 
L 279.36 46.08 
" clip-path="url(#p2023bf0d7c)" style="fill: none; stroke: #b2b2b2; stroke-opacity: 0.35; stroke-width: 0.5; stroke-linecap: square"/>
   </g>
   <g id="line2d_4">
    <path d="M 8.64 25.44 
L 279.36 25.44 
" clip-path="url(#p2023bf0d7c)" style="fill: none; stroke: #b2b2b2; stroke-opacity: 0.35; stroke-width: 0.5; stroke-linecap: square"/>
   </g>
   <g id="line2d_5">
    <path d="M 8.64 75.58488 
L 10.155085 75.35784 
L 11.670171 81.168 
L 13.185256 84.01632 
L 14.700341 82.06584 
L 16.215426 84.19176 
L 17.730512 82.27224 
L 19.245597 83.29392 
L 20.760682 81.62208 
L 22.275768 80.72424 
L 23.790853 84.33624 
L 25.305938 84.64584 
L 26.821024 86.844 
L 28.336109 88.52616 
L 29.851194 88.36104 
L 31.366279 88.93896 
L 32.881365 90.79656 
L 34.39645 88.09272 
L 35.911535 89.22792 
L 37.426621 90.00192 
L 38.941706 91.39512 
L 40.456791 91.63248 
L 41.971877 90.75528 
L 43.486962 88.7016 
L 45.002047 88.52616 
L 46.517132 87.45288 
L 48.032218 88.0308 
L 49.547303 88.94928 
L 52.577474 89.7336 
L 54.092559 91.86984 
L 55.607644 88.60872 
L 57.122729 86.87496 
L 60.1529 90.11544 
L 61.667985 90.38376 
L 63.183071 90.53856 
L 64.698156 90.08448 
L 66.213241 88.79448 
L 67.728327 89.20728 
L 69.243412 89.22792 
L 70.758497 90.31152 
L 72.273582 90.10512 
L 73.788668 91.09584 
L 75.303753 91.61184 
L 76.818838 91.31256 
L 78.333924 92.87088 
L 79.849009 93.8616 
L 81.364094 92.02464 
L 82.87918 92.13816 
L 84.394265 92.07624 
L 85.90935 92.14848 
L 87.424435 92.64384 
L 88.939521 93.01536 
L 90.454606 93.69648 
L 93.484777 92.44776 
L 94.999862 92.30328 
L 96.514947 92.87088 
L 98.030032 92.38584 
L 99.545118 92.47872 
L 101.060203 91.88016 
L 102.575288 90.42504 
L 104.090374 90.08448 
L 105.605459 89.92968 
L 107.120544 88.76352 
L 108.63563 87.94824 
L 110.150715 89.2692 
L 111.6658 88.72224 
L 113.180885 89.39304 
L 114.695971 89.40336 
L 116.211056 88.41264 
L 117.726141 88.4952 
L 119.241227 86.86464 
L 120.756312 86.42088 
L 122.271397 87.62832 
L 123.786483 86.93688 
L 125.301568 87.23616 
L 128.331738 90.0432 
L 129.846824 92.12784 
L 131.361909 91.16808 
L 134.39208 91.73568 
L 135.907165 91.78728 
L 137.42225 94.0164 
L 138.937335 92.5716 
L 140.452421 91.76664 
L 141.967506 92.33424 
L 143.482591 94.36728 
L 144.997677 94.46016 
L 146.512762 97.71096 
L 148.027847 98.48496 
L 149.542933 97.85544 
L 152.026024 100.16712 
L 153.540338 102.23112 
L 155.048935 100.54896 
L 156.598653 100.70376 
L 158.101236 100.68312 
L 161.136912 101.28168 
L 162.646544 101.71512 
L 164.161173 101.84928 
L 165.658039 101.034 
L 167.093179 100.54896 
L 168.705447 101.04432 
L 170.030218 100.81728 
L 171.733215 101.034 
L 173.24646 101.4984 
L 177.790909 101.06496 
L 179.310553 102.09696 
L 180.697646 102.05568 
L 182.33527 101.4984 
L 183.843604 100.60056 
L 185.355814 100.80696 
L 186.853048 101.45712 
L 188.402556 100.55928 
L 189.901999 101.10624 
L 192.927207 100.74504 
L 194.445554 100.21872 
L 195.95992 100.53864 
L 197.463379 101.07528 
L 198.993177 101.38488 
L 200.512804 101.26104 
L 202.018157 100.78632 
L 205.053694 100.99272 
L 206.565851 100.38384 
L 209.622991 100.60056 
L 211.142355 99.76464 
L 212.630926 99.49632 
L 214.157568 99.40344 
L 215.673074 100.09488 
L 217.173412 100.3632 
L 218.679624 100.19808 
L 221.73601 100.79664 
L 223.237067 100.26 
L 224.864995 99.83688 
L 226.285668 100.13616 
L 229.303265 101.38488 
L 235.392014 101.28168 
L 236.887144 101.8596 
L 238.403965 101.88024 
L 239.906074 101.72544 
L 241.443973 101.68416 
L 242.962969 101.47776 
L 244.468217 101.78736 
L 245.985757 101.09592 
L 247.495564 101.46744 
L 249.02459 101.3436 
L 250.516511 101.05464 
L 252.058777 101.3952 
L 253.58163 101.47776 
L 255.087071 100.86888 
L 256.600999 101.26104 
L 258.122643 100.99272 
L 259.634642 100.61088 
L 261.133015 100.44576 
L 262.668109 100.94112 
L 264.186947 101.09592 
L 265.695386 101.00304 
L 267.205772 100.69344 
L 268.726995 100.9308 
L 273.281755 100.8792 
L 274.813166 100.64184 
L 276.331425 101.1888 
L 277.842372 101.09592 
L 279.36 101.37456 
L 279.36 101.37456 
" clip-path="url(#p2023bf0d7c)" style="fill: none; stroke: #bebebe; stroke-width: 0.5; stroke-linecap: round"/>
   </g>
   <g id="line2d_6">
    <path d="M 8.64 62.1276 
L 10.155085 61.56 
L 13.185256 70.66224 
L 14.700341 68.72208 
L 16.215426 70.4868 
L 17.730512 68.61888 
L 19.245597 69.11424 
L 20.760682 66.5136 
L 22.275768 66.68904 
L 23.790853 68.8872 
L 25.305938 68.9904 
L 26.821024 71.5704 
L 28.336109 73.48992 
L 29.851194 72.54048 
L 31.366279 73.56216 
L 32.881365 74.74896 
L 34.39645 73.3248 
L 35.911535 74.80056 
L 37.426621 77.556 
L 38.941706 78.55704 
L 40.456791 78.50544 
L 41.971877 78.04104 
L 43.486962 75.76032 
L 45.002047 75.73968 
L 46.517132 74.65608 
L 48.032218 74.83152 
L 49.547303 74.57352 
L 51.062388 75.20304 
L 52.577474 75.17208 
L 54.092559 78.05136 
L 57.122729 72.16896 
L 58.637815 73.08744 
L 60.1529 74.72832 
L 63.183071 74.28456 
L 64.698156 73.21128 
L 66.213241 70.2804 
L 67.728327 70.2288 
L 69.243412 71.56008 
L 70.758497 73.79952 
L 72.273582 73.35576 
L 73.788668 74.0988 
L 75.303753 75.5952 
L 76.818838 75.5952 
L 78.333924 77.61792 
L 79.849009 77.63856 
L 81.364094 75.40944 
L 82.87918 75.40944 
L 84.394265 75.04824 
L 85.90935 74.98632 
L 87.424435 75.58488 
L 88.939521 75.87384 
L 90.454606 76.49304 
L 93.484777 75.82224 
L 94.999862 75.84288 
L 96.514947 76.03896 
L 98.030032 75.51264 
L 99.545118 75.56424 
L 101.060203 75.05856 
L 102.575288 73.26288 
L 104.090374 73.20096 
L 105.605459 73.00488 
L 107.120544 71.68392 
L 108.63563 70.6932 
L 110.150715 72.62304 
L 111.6658 73.52088 
L 113.180885 73.83048 
L 114.695971 73.8408 
L 116.211056 73.29384 
L 117.726141 73.72728 
L 119.241227 70.32168 
L 120.756312 69.77472 
L 122.271397 70.34232 
L 123.786483 70.67256 
L 125.301568 70.51776 
L 126.816653 70.848 
L 128.331738 72.31344 
L 129.846824 76.01832 
L 131.361909 75.41976 
L 132.876994 75.83256 
L 135.907165 75.82224 
L 137.42225 77.82432 
L 138.937335 76.14216 
L 140.452421 74.75928 
L 141.967506 74.96568 
L 143.482591 77.75208 
L 144.997677 79.48584 
L 146.512762 83.31456 
L 148.027847 85.90488 
L 149.542933 84.79032 
L 150.822005 85.84296 
L 153.540338 91.41576 
L 155.048935 88.7532 
L 158.101236 88.55712 
L 159.624966 88.96992 
L 162.646544 90.456 
L 164.161173 90.56952 
L 165.658039 89.15568 
L 167.093179 88.9596 
L 168.705447 90.6624 
L 170.030218 89.94 
L 171.733215 90.00192 
L 174.752689 90.62112 
L 177.790909 90.3528 
L 179.310553 92.004 
L 180.697646 92.13816 
L 182.33527 91.25064 
L 183.843604 89.166 
L 185.355814 89.56848 
L 186.853048 90.93072 
L 188.402556 89.41368 
L 189.901999 90.37344 
L 191.420609 89.79552 
L 192.927207 90.23928 
L 194.445554 88.0824 
L 195.95992 88.7532 
L 197.463379 90.16704 
L 198.993177 90.67272 
L 200.512804 90.18768 
L 202.018157 89.2692 
L 203.532646 89.54784 
L 205.053694 89.49624 
L 206.565851 88.31976 
L 208.078919 88.45392 
L 209.622991 88.46424 
L 211.142355 86.38992 
L 212.630926 84.80064 
L 214.157568 84.8316 
L 215.673074 86.586 
L 217.173412 87.74184 
L 218.679624 87.618 
L 220.217365 88.19592 
L 221.73601 89.08344 
L 223.237067 87.89664 
L 224.864995 87.3084 
L 226.285668 87.65928 
L 227.802664 88.96992 
L 229.303265 90.07416 
L 232.358407 89.3724 
L 233.863935 89.00088 
L 235.392014 88.42296 
L 238.403965 89.10408 
L 239.906074 89.14536 
L 241.443973 89.07312 
L 242.962969 87.9792 
L 244.468217 88.29912 
L 245.985757 86.38992 
L 247.495564 87.24648 
L 249.02459 87.1536 
L 250.516511 86.21448 
L 253.58163 87.01944 
L 255.087071 84.44976 
L 256.600999 85.05864 
L 258.122643 84.58392 
L 259.634642 85.04832 
L 261.133015 83.71704 
L 262.668109 84.86256 
L 264.186947 85.6572 
L 265.695386 85.27536 
L 267.205772 84.49104 
L 270.246096 85.32696 
L 271.743102 85.17216 
L 273.281755 85.31664 
L 274.813166 84.11952 
L 276.331425 85.66752 
L 277.842372 85.26504 
L 279.36 86.26608 
L 279.36 86.26608 
" clip-path="url(#p2023bf0d7c)" style="fill: none; stroke: #4a8dff; stroke-width: 0.6"/>
   </g>
   <g id="line2d_7">
    <path d="M 8.64 62.72616 
L 10.155085 62.06568 
L 11.670171 66.33816 
L 13.185256 71.40528 
L 14.700341 69.08328 
L 16.215426 71.7252 
L 17.730512 69.57864 
L 19.245597 70.72416 
L 20.760682 68.2164 
L 22.275768 66.978 
L 23.790853 70.03272 
L 25.305938 71.5188 
L 26.821024 73.3764 
L 28.336109 78.846 
L 29.851194 77.75208 
L 31.366279 78.88728 
L 32.881365 81.34344 
L 34.39645 80.53848 
L 35.911535 82.0452 
L 37.426621 86.92656 
L 38.941706 88.58808 
L 40.456791 88.96992 
L 41.971877 86.7924 
L 43.486962 85.296 
L 45.002047 86.24544 
L 46.517132 82.96368 
L 48.032218 82.13808 
L 49.547303 82.47864 
L 51.062388 82.58184 
L 52.577474 83.03592 
L 54.092559 87.3084 
L 55.607644 82.06584 
L 57.122729 79.71288 
L 58.637815 81.24024 
L 60.1529 84.17112 
L 61.667985 84.24336 
L 63.183071 83.29392 
L 64.698156 82.8192 
L 66.213241 80.64168 
L 67.728327 81.38472 
L 69.243412 80.87904 
L 70.758497 83.13912 
L 72.273582 83.19072 
L 73.788668 85.296 
L 75.303753 87.17424 
L 76.818838 85.71912 
L 78.333924 87.53544 
L 79.849009 88.17528 
L 81.364094 85.41984 
L 84.394265 84.9348 
L 85.90935 85.01736 
L 87.424435 86.14224 
L 88.939521 85.90488 
L 90.454606 86.328 
L 91.969691 86.24544 
L 93.484777 85.72944 
L 94.999862 85.7088 
L 96.514947 86.40024 
L 98.030032 85.09992 
L 99.545118 86.02872 
L 102.575288 83.53128 
L 105.605459 82.03488 
L 107.120544 79.39296 
L 108.63563 79.66128 
L 110.150715 82.15872 
L 111.6658 82.43736 
L 113.180885 82.93272 
L 114.695971 83.00496 
L 117.726141 82.28256 
L 119.241227 78.01008 
L 120.756312 76.19376 
L 122.271397 77.66952 
L 123.786483 77.74176 
L 125.301568 78.1752 
L 126.816653 79.5684 
L 128.331738 80.8068 
L 129.846824 85.20312 
L 131.361909 84.12984 
L 132.876994 84.03696 
L 134.39208 84.06792 
L 135.907165 84.3156 
L 137.42225 87.02976 
L 138.937335 85.21344 
L 140.452421 84.28464 
L 141.967506 84.32592 
L 143.482591 89.08344 
L 144.997677 89.5272 
L 146.512762 95.14128 
L 148.027847 96.98856 
L 149.542933 95.08968 
L 150.822005 97.71096 
L 152.026024 99.80592 
L 153.540338 101.79768 
L 155.048935 100.03296 
L 156.598653 100.518 
L 158.101236 99.98136 
L 159.624966 100.49736 
L 164.161173 101.26104 
L 165.658039 100.63152 
L 167.093179 100.38384 
L 168.705447 100.84824 
L 170.030218 100.65216 
L 171.733215 101.034 
L 173.24646 101.19912 
L 177.790909 100.91016 
L 179.310553 101.7564 
L 180.697646 101.84928 
L 182.33527 101.56032 
L 183.843604 100.85856 
L 186.853048 101.4468 
L 188.402556 101.02368 
L 189.901999 101.30232 
L 191.420609 100.81728 
L 192.927207 100.79664 
L 194.445554 99.3312 
L 195.95992 99.92976 
L 197.463379 100.78632 
L 198.993177 101.17848 
L 200.512804 101.1372 
L 202.018157 100.21872 
L 205.053694 100.4664 
L 206.565851 99.88848 
L 208.078919 99.94008 
L 209.622991 99.81624 
L 211.142355 98.93904 
L 212.630926 98.3508 
L 214.157568 98.52624 
L 215.673074 99.78528 
L 217.173412 100.12584 
L 218.679624 100.03296 
L 221.73601 100.83792 
L 223.237067 100.11552 
L 224.864995 99.87816 
L 226.285668 100.002 
L 227.802664 100.64184 
L 229.303265 101.41584 
L 230.83899 101.21976 
L 233.863935 101.00304 
L 235.392014 100.86888 
L 236.887144 101.21976 
L 238.403965 101.28168 
L 241.443973 101.14752 
L 242.962969 100.55928 
L 244.468217 100.65216 
L 245.985757 99.80592 
L 247.495564 99.96072 
L 249.02459 99.6408 
L 250.516511 99.1764 
L 252.058777 99.70272 
L 253.58163 99.94008 
L 255.087071 98.57784 
L 256.600999 98.65008 
L 258.122643 98.38176 
L 259.634642 98.48496 
L 261.133015 96.70992 
L 262.668109 98.05152 
L 264.186947 98.48496 
L 265.695386 97.96896 
L 267.205772 96.32808 
L 270.246096 96.16296 
L 271.743102 96.1836 
L 273.281755 96.50352 
L 274.813166 94.76976 
L 276.331425 97.19496 
L 277.842372 96.9576 
L 279.36 97.9896 
L 279.36 97.9896 
" clip-path="url(#p2023bf0d7c)" style="fill: none; stroke: #f5841e; stroke-width: 0.6"/>
   </g>
  </g>
 </g>
 <defs>
  <clipPath id="p2023bf0d7c">
   <rect x="8.64" y="4.8" width="270.72" height="103.2"/>
  </clipPath>
 </defs>
</svg>
