<?xml version="1.0" encoding="utf-8" standalone="no"?>
<!DOCTYPE svg PUBLIC "-//W3C//DTD SVG 1.1//EN"
  "http://www.w3.org/Graphics/SVG/1.1/DTD/svg11.dtd">
<svg xmlns:xlink="http://www.w3.org/1999/xlink" width="288pt" height="120pt" viewBox="0 0 288 120" xmlns="http://www.w3.org/2000/svg" version="1.1">
<desc id="nav-meta">{"window":"3m","count":4,"labels":["06.03","05.04","04.05","03.06"],"tick_utc":["2026-03-06T03:16:38Z","2026-04-05T03:46:34Z","2026-05-04T04:31:15Z","2026-06-03T05:31:47Z"],"w":720,"h":300}</desc>

 <metadata>
  <rdf:RDF xmlns:dc="http://purl.org/dc/elements/1.1/" xmlns:cc="http://creativecommons.org/ns#" xmlns:rdf="http://www.w3.org/1999/02/22-rdf-syntax-ns#">
   <cc:Work>
    <dc:type rdf:resource="http://purl.org/dc/dcmitype/StillImage"/>
    <dc:date>2026-06-03T17:33:18.914701</dc:date>
    <dc:format>image/svg+xml</dc:format>
    <dc:creator>
     <cc:Agent>
      <dc:title>Matplotlib v3.10.9, https://matplotlib.org/</dc:title>
     </cc:Agent>
    </dc:creator>
   </cc:Work>
  </rdf:RDF>
 </metadata>
 <defs>
  <style type="text/css">*{stroke-linejoin: round; stroke-linecap: butt}</style>
 </defs>
 <g id="figure_1">
  <g id="patch_1">
   <path d="M 0 120 
L 288 120 
L 288 0 
L 0 0 
L 0 120 
z
" style="fill: none; opacity: 0"/>
  </g>
  <g id="axes_1">
   <g id="patch_2">
    <path d="M 8.64 108 
L 279.36 108 
L 279.36 4.8 
L 8.64 4.8 
L 8.64 108 
z
" style="fill: none"/>
   </g>
   <g id="matplotlib.axis_1"/>
   <g id="matplotlib.axis_2"/>
   <g id="line2d_1">
    <path d="M 8.64 87.36 
L 279.36 87.36 
" clip-path="url(#pb575807761)" style="fill: none; stroke: #b2b2b2; stroke-opacity: 0.35; stroke-width: 0.5; stroke-linecap: square"/>
   </g>
   <g id="line2d_2">
    <path d="M 8.64 66.72 
L 279.36 66.72 
" clip-path="url(#pb575807761)" style="fill: none; stroke: #b2b2b2; stroke-opacity: 0.35; stroke-width: 0.5; stroke-linecap: square"/>
   </g>
   <g id="line2d_3">
    <path d="M 8.64 46.08 
L 279.36 46.08 
" clip-path="url(#pb575807761)" style="fill: none; stroke: #b2b2b2; stroke-opacity: 0.35; stroke-width: 0.5; stroke-linecap: square"/>
   </g>
   <g id="line2d_4">
    <path d="M 8.64 25.44 
L 279.36 25.44 
" clip-path="url(#pb575807761)" style="fill: none; stroke: #b2b2b2; stroke-opacity: 0.35; stroke-width: 0.5; stroke-linecap: square"/>
   </g>
   <g id="line2d_5">
    <path d="M 8.64 100.53864 
L 11.655276 101.07528 
L 14.723377 101.38488 
L 17.771079 101.26104 
L 20.790153 100.78632 
L 23.827551 100.91016 
L 26.878102 100.99272 
L 29.910822 100.38384 
L 32.945371 100.50768 
L 36.042099 100.60056 
L 39.089274 99.76464 
L 42.074692 99.49632 
L 45.136461 99.40344 
L 48.175899 100.09488 
L 51.184915 100.3632 
L 54.205713 100.19808 
L 57.289745 100.47672 
L 60.335477 100.79664 
L 63.345936 100.26 
L 66.610841 99.83688 
L 69.460085 100.13616 
L 72.502512 100.80696 
L 75.512056 101.38488 
L 78.592043 101.3436 
L 81.639323 101.292 
L 84.65875 101.28168 
L 87.723403 101.28168 
L 90.721975 101.8596 
L 93.76405 101.88024 
L 96.776618 101.72544 
L 99.860966 101.68416 
L 102.907402 101.47776 
L 105.926266 101.78736 
L 108.969783 101.09592 
L 111.997791 101.46744 
L 115.064343 101.3436 
L 118.056479 101.05464 
L 121.149584 101.3952 
L 124.203757 101.47776 
L 127.223008 100.86888 
L 130.25928 101.26104 
L 133.311027 100.99272 
L 136.34343 100.61088 
L 139.348508 100.44576 
L 142.427229 100.94112 
L 145.473349 101.09592 
L 148.498613 101.00304 
L 151.527781 100.69344 
L 154.578684 100.9308 
L 157.625331 100.92048 
L 160.627665 100.81728 
L 163.713526 100.8792 
L 166.784861 100.64184 
L 169.82982 101.1888 
L 172.860114 101.09592 
L 175.903807 101.37456 
L 178.9756 101.21976 
L 181.936646 101.20944 
L 185.036925 101.23008 
L 188.074464 100.92048 
L 191.046131 101.06496 
L 194.138251 100.70376 
L 197.177653 100.55928 
L 200.165674 100.53864 
L 203.215381 99.60984 
L 206.315203 99.72336 
L 209.377782 99.44472 
L 212.374173 99.25896 
L 215.42722 99.32088 
L 218.462438 100.22904 
L 221.516013 100.01232 
L 224.515815 100.43544 
L 227.599777 100.75536 
L 230.667877 101.02368 
L 233.684701 101.02368 
L 236.734161 101.17848 
L 239.790058 100.7244 
L 242.805369 100.75536 
L 245.802217 101.11656 
L 248.888922 100.91016 
L 251.967502 100.89984 
L 254.96006 101.1372 
L 258.029848 101.2404 
L 261.058735 101.6532 
L 264.099579 101.4984 
L 267.094352 101.48808 
L 270.194983 101.32296 
L 273.278523 101.51904 
L 276.287222 101.7048 
L 279.36 102.54072 
" clip-path="url(#pb575807761)" style="fill: none; stroke: #bebebe; stroke-width: 0.5; stroke-linecap: round"/>
   </g>
   <g id="line2d_6">
    <path d="M 8.64 88.7532 
L 11.655276 90.16704 
L 14.723377 90.67272 
L 17.771079 90.18768 
L 20.790153 89.2692 
L 23.827551 89.54784 
L 26.878102 89.49624 
L 29.910822 88.31976 
L 32.945371 88.45392 
L 36.042099 88.46424 
L 39.089274 86.38992 
L 42.074692 84.80064 
L 45.136461 84.8316 
L 48.175899 86.586 
L 51.184915 87.74184 
L 54.205713 87.618 
L 57.289745 88.19592 
L 60.335477 89.08344 
L 63.345936 87.89664 
L 66.610841 87.3084 
L 69.460085 87.65928 
L 72.502512 88.96992 
L 75.512056 90.07416 
L 78.592043 89.76456 
L 81.639323 89.3724 
L 84.65875 89.00088 
L 87.723403 88.42296 
L 90.721975 88.81512 
L 93.76405 89.10408 
L 96.776618 89.14536 
L 99.860966 89.07312 
L 102.907402 87.9792 
L 105.926266 88.29912 
L 108.969783 86.38992 
L 111.997791 87.24648 
L 115.064343 87.1536 
L 118.056479 86.21448 
L 121.149584 86.66856 
L 124.203757 87.01944 
L 127.223008 84.44976 
L 130.25928 85.05864 
L 133.311027 84.58392 
L 136.34343 85.04832 
L 139.348508 83.71704 
L 142.427229 84.86256 
L 145.473349 85.6572 
L 148.498613 85.27536 
L 151.527781 84.49104 
L 154.578684 84.86256 
L 157.625331 85.32696 
L 160.627665 85.17216 
L 163.713526 85.31664 
L 166.784861 84.11952 
L 169.82982 85.66752 
L 172.860114 85.26504 
L 175.903807 86.26608 
L 178.9756 85.77072 
L 181.936646 85.38888 
L 185.036925 85.3992 
L 188.074464 84.09888 
L 191.046131 84.22272 
L 194.138251 84.34656 
L 197.177653 85.06896 
L 200.165674 85.7604 
L 203.215381 85.0896 
L 206.315203 85.01736 
L 209.377782 84.9348 
L 212.374173 85.296 
L 215.42722 85.35792 
L 218.462438 86.1732 
L 221.516013 85.92552 
L 224.515815 86.55504 
L 227.599777 87.13296 
L 230.667877 88.10304 
L 233.684701 87.9276 
L 236.734161 88.26816 
L 239.790058 87.78312 
L 242.805369 87.95856 
L 245.802217 88.94928 
L 248.888922 88.14432 
L 251.967502 88.33008 
L 254.96006 88.52616 
L 258.029848 88.86672 
L 261.058735 90.22896 
L 264.099579 89.82648 
L 267.094352 89.87808 
L 270.194983 89.46528 
L 273.278523 90.0432 
L 276.287222 89.96064 
L 279.36 91.99368 
" clip-path="url(#pb575807761)" style="fill: none; stroke: #4a8dff; stroke-width: 0.6"/>
   </g>
   <g id="line2d_7">
    <path d="M 8.64 99.92976 
L 11.655276 100.78632 
L 14.723377 101.17848 
L 17.771079 101.1372 
L 20.790153 100.21872 
L 23.827551 100.37352 
L 26.878102 100.4664 
L 29.910822 99.88848 
L 32.945371 99.94008 
L 36.042099 99.81624 
L 39.089274 98.93904 
L 42.074692 98.3508 
L 45.136461 98.52624 
L 48.175899 99.78528 
L 51.184915 100.12584 
L 54.205713 100.03296 
L 57.289745 100.45608 
L 60.335477 100.83792 
L 63.345936 100.11552 
L 66.610841 99.87816 
L 69.460085 100.002 
L 72.502512 100.64184 
L 75.512056 101.41584 
L 78.592043 101.21976 
L 81.639323 101.14752 
L 84.65875 101.00304 
L 87.723403 100.86888 
L 90.721975 101.21976 
L 93.76405 101.28168 
L 96.776618 101.20944 
L 99.860966 101.14752 
L 102.907402 100.55928 
L 105.926266 100.65216 
L 108.969783 99.80592 
L 111.997791 99.96072 
L 115.064343 99.6408 
L 118.056479 99.1764 
L 121.149584 99.70272 
L 124.203757 99.94008 
L 127.223008 98.57784 
L 130.25928 98.65008 
L 133.311027 98.38176 
L 136.34343 98.48496 
L 139.348508 96.70992 
L 142.427229 98.05152 
L 145.473349 98.48496 
L 148.498613 97.96896 
L 151.527781 96.32808 
L 154.578684 96.20424 
L 157.625331 96.16296 
L 160.627665 96.1836 
L 163.713526 96.50352 
L 166.784861 94.76976 
L 169.82982 97.19496 
L 172.860114 96.9576 
L 175.903807 97.9896 
L 178.9756 96.89568 
L 181.936646 95.45088 
L 185.036925 95.67792 
L 188.074464 93.43848 
L 191.046131 92.90184 
L 194.138251 92.25168 
L 197.177653 92.87088 
L 200.165674 94.2744 
L 203.215381 93.1392 
L 206.315203 92.97408 
L 209.377782 92.9844 
L 212.374173 92.60256 
L 215.42722 92.53032 
L 218.462438 94.54272 
L 221.516013 92.85024 
L 224.515815 94.82136 
L 227.599777 95.75016 
L 230.667877 96.97824 
L 233.684701 97.08144 
L 236.734161 97.23624 
L 239.790058 95.94624 
L 242.805369 96.30744 
L 245.802217 98.08248 
L 248.888922 97.2672 
L 251.967502 96.61704 
L 254.96006 97.23624 
L 258.029848 98.08248 
L 261.058735 99.18672 
L 264.099579 99.03192 
L 267.094352 99.1248 
L 270.194983 98.74296 
L 273.278523 99.09384 
L 276.287222 100.0536 
L 279.36 101.23008 
" clip-path="url(#pb575807761)" style="fill: none; stroke: #f5841e; stroke-width: 0.6"/>
   </g>
  </g>
 </g>
 <defs>
  <clipPath id="pb575807761">
   <rect x="8.64" y="4.8" width="270.72" height="103.2"/>
  </clipPath>
 </defs>
</svg>
