<?xml version="1.0" encoding="utf-8" standalone="no"?>
<!DOCTYPE svg PUBLIC "-//W3C//DTD SVG 1.1//EN"
  "http://www.w3.org/Graphics/SVG/1.1/DTD/svg11.dtd">
<svg xmlns:xlink="http://www.w3.org/1999/xlink" width="288pt" height="120pt" viewBox="0 0 288 120" xmlns="http://www.w3.org/2000/svg" version="1.1">
<desc id="nav-meta">{"window":"3m","count":4,"labels":["27.03","26.04","25.05","24.06"],"tick_utc":["2026-03-27T03:41:18Z","2026-04-26T04:06:31Z","2026-05-25T05:10:23Z","2026-06-24T04:50:37Z"],"w":720,"h":300}</desc>

 <metadata>
  <rdf:RDF xmlns:dc="http://purl.org/dc/elements/1.1/" xmlns:cc="http://creativecommons.org/ns#" xmlns:rdf="http://www.w3.org/1999/02/22-rdf-syntax-ns#">
   <cc:Work>
    <dc:type rdf:resource="http://purl.org/dc/dcmitype/StillImage"/>
    <dc:date>2026-06-24T20:22:36.732487</dc:date>
    <dc:format>image/svg+xml</dc:format>
    <dc:creator>
     <cc:Agent>
      <dc:title>Matplotlib v3.11.0, https://matplotlib.org/</dc:title>
     </cc:Agent>
    </dc:creator>
   </cc:Work>
  </rdf:RDF>
 </metadata>
 <defs>
  <style type="text/css">*{stroke-linejoin: round; stroke-linecap: butt}</style>
 </defs>
 <g id="figure_1">
  <g id="patch_1">
   <path d="M 0 120 
L 288 120 
L 288 0 
L 0 0 
L 0 120 
z
" style="fill: none; opacity: 0"/>
  </g>
  <g id="axes_1">
   <g id="patch_2">
    <path d="M 8.64 108 
L 279.36 108 
L 279.36 4.8 
L 8.64 4.8 
L 8.64 108 
z
" style="fill: none"/>
   </g>
   <g id="matplotlib.axis_1"/>
   <g id="matplotlib.axis_2"/>
   <g id="line2d_1">
    <path d="M 8.64 87.36 
L 279.36 87.36 
" clip-path="url(#pae899aacf8)" style="fill: none; stroke: #b2b2b2; stroke-opacity: 0.35; stroke-width: 0.5; stroke-linecap: square"/>
   </g>
   <g id="line2d_2">
    <path d="M 8.64 66.72 
L 279.36 66.72 
" clip-path="url(#pae899aacf8)" style="fill: none; stroke: #b2b2b2; stroke-opacity: 0.35; stroke-width: 0.5; stroke-linecap: square"/>
   </g>
   <g id="line2d_3">
    <path d="M 8.64 46.08 
L 279.36 46.08 
" clip-path="url(#pae899aacf8)" style="fill: none; stroke: #b2b2b2; stroke-opacity: 0.35; stroke-width: 0.5; stroke-linecap: square"/>
   </g>
   <g id="line2d_4">
    <path d="M 8.64 25.44 
L 279.36 25.44 
" clip-path="url(#pae899aacf8)" style="fill: none; stroke: #b2b2b2; stroke-opacity: 0.35; stroke-width: 0.5; stroke-linecap: square"/>
   </g>
   <g id="line2d_5">
    <path d="M 8.64 100.80696 
L 11.651089 101.38488 
L 14.732658 101.3436 
L 17.781502 101.292 
L 20.802479 101.28168 
L 23.868706 101.28168 
L 26.868816 101.8596 
L 29.912453 101.88024 
L 32.926568 101.72544 
L 36.0125 101.68416 
L 39.0605 101.47776 
L 42.080914 101.78736 
L 45.125994 101.09592 
L 48.155556 101.46744 
L 51.223683 101.3436 
L 54.217354 101.05464 
L 57.312048 101.3952 
L 60.367789 101.47776 
L 63.388589 100.86888 
L 66.426421 101.26104 
L 69.479734 100.99272 
L 72.513694 100.61088 
L 75.520315 100.44576 
L 78.600617 100.94112 
L 81.6483 101.09592 
L 84.675118 101.00304 
L 87.705841 100.69344 
L 90.75831 100.9308 
L 93.806521 100.92048 
L 96.810397 100.81728 
L 99.897841 100.8792 
L 102.970754 100.64184 
L 106.017276 101.1888 
L 109.049126 101.09592 
L 112.094381 101.37456 
L 115.167751 101.21976 
L 118.130317 101.20944 
L 121.232189 101.23008 
L 124.271287 100.92048 
L 127.244479 101.06496 
L 130.338187 100.70376 
L 133.37915 100.55928 
L 136.368705 100.53864 
L 139.419977 99.60984 
L 142.521391 99.72336 
L 145.585542 99.44472 
L 148.583471 99.25896 
L 151.638086 99.32088 
L 154.674862 100.22904 
L 157.730005 100.01232 
L 160.731347 100.43544 
L 163.816892 100.75536 
L 166.886567 101.02368 
L 169.90494 101.02368 
L 172.955966 101.17848 
L 176.013432 100.7244 
L 179.030291 100.75536 
L 182.028678 101.11656 
L 185.116967 100.91016 
L 188.197128 100.89984 
L 191.191222 101.1372 
L 194.262586 101.2404 
L 197.293028 101.6532 
L 200.335433 101.4984 
L 203.331744 101.48808 
L 206.433967 101.32296 
L 209.51909 101.51904 
L 212.529334 101.7048 
L 215.603689 102.54072 
L 218.633427 103.08768 
L 221.62351 103.36632 
L 224.616935 104.22288 
L 227.722431 103.85136 
L 230.776025 103.68624 
L 233.758156 103.43856 
L 236.829837 103.81008 
L 239.88783 103.72752 
L 242.939912 103.50048 
L 245.957827 103.5108 
L 249.020043 103.31472 
L 252.161253 102.95352 
L 255.218754 102.61296 
L 258.162073 102.6336 
L 261.187659 102.9948 
L 264.299418 103.28376 
L 267.218 103.01544 
L 270.32142 102.69552 
L 273.450561 102.582 
L 276.308974 102.88128 
L 279.36 103.15992 
" clip-path="url(#pae899aacf8)" style="fill: none; stroke: #bebebe; stroke-width: 0.5; stroke-linecap: round"/>
   </g>
   <g id="line2d_6">
    <path d="M 8.64 88.96992 
L 11.651089 90.07416 
L 14.732658 89.76456 
L 17.781502 89.3724 
L 20.802479 89.00088 
L 23.868706 88.42296 
L 26.868816 88.81512 
L 29.912453 89.10408 
L 32.926568 89.14536 
L 36.0125 89.07312 
L 39.0605 87.9792 
L 42.080914 88.29912 
L 45.125994 86.38992 
L 48.155556 87.24648 
L 51.223683 87.1536 
L 54.217354 86.21448 
L 57.312048 86.66856 
L 60.367789 87.01944 
L 63.388589 84.44976 
L 66.426421 85.05864 
L 69.479734 84.58392 
L 72.513694 85.04832 
L 75.520315 83.71704 
L 78.600617 84.86256 
L 81.6483 85.6572 
L 84.675118 85.27536 
L 87.705841 84.49104 
L 90.75831 84.86256 
L 93.806521 85.32696 
L 96.810397 85.17216 
L 99.897841 85.31664 
L 102.970754 84.11952 
L 106.017276 85.66752 
L 109.049126 85.26504 
L 112.094381 86.26608 
L 115.167751 85.77072 
L 118.130317 85.38888 
L 121.232189 85.3992 
L 124.271287 84.09888 
L 127.244479 84.22272 
L 130.338187 84.34656 
L 133.37915 85.06896 
L 136.368705 85.7604 
L 139.419977 85.0896 
L 142.521391 85.01736 
L 145.585542 84.9348 
L 148.583471 85.296 
L 151.638086 85.35792 
L 154.674862 86.1732 
L 157.730005 85.92552 
L 160.731347 86.55504 
L 163.816892 87.13296 
L 166.886567 88.10304 
L 169.90494 87.9276 
L 172.955966 88.26816 
L 176.013432 87.78312 
L 179.030291 87.95856 
L 182.028678 88.94928 
L 185.116967 88.14432 
L 188.197128 88.33008 
L 191.191222 88.52616 
L 194.262586 88.86672 
L 197.293028 90.22896 
L 200.335433 89.82648 
L 203.331744 89.87808 
L 206.433967 89.46528 
L 209.51909 90.0432 
L 212.529334 89.96064 
L 215.603689 91.99368 
L 218.633427 93.05664 
L 221.62351 93.74808 
L 224.616935 97.02984 
L 227.722431 95.93592 
L 230.776025 95.07936 
L 233.758156 94.46016 
L 236.829837 95.47152 
L 239.88783 95.11032 
L 242.939912 94.82136 
L 245.957827 94.8936 
L 249.020043 94.70784 
L 252.161253 94.04736 
L 255.218754 93.40752 
L 258.162073 92.9844 
L 261.187659 93.93384 
L 264.299418 94.4292 
L 267.218 94.19184 
L 270.32142 93.87192 
L 273.450561 93.81 
L 276.308974 94.03704 
L 279.36 94.83168 
" clip-path="url(#pae899aacf8)" style="fill: none; stroke: #4a8dff; stroke-width: 0.6"/>
   </g>
   <g id="line2d_7">
    <path d="M 8.64 100.64184 
L 11.651089 101.41584 
L 14.732658 101.21976 
L 17.781502 101.14752 
L 20.802479 101.00304 
L 23.868706 100.86888 
L 26.868816 101.21976 
L 29.912453 101.28168 
L 32.926568 101.20944 
L 36.0125 101.14752 
L 39.0605 100.55928 
L 42.080914 100.65216 
L 45.125994 99.80592 
L 48.155556 99.96072 
L 51.223683 99.6408 
L 54.217354 99.1764 
L 57.312048 99.70272 
L 60.367789 99.94008 
L 63.388589 98.57784 
L 66.426421 98.65008 
L 69.479734 98.38176 
L 72.513694 98.48496 
L 75.520315 96.70992 
L 78.600617 98.05152 
L 81.6483 98.48496 
L 84.675118 97.96896 
L 87.705841 96.32808 
L 90.75831 96.20424 
L 93.806521 96.16296 
L 96.810397 96.1836 
L 99.897841 96.50352 
L 102.970754 94.76976 
L 106.017276 97.19496 
L 109.049126 96.9576 
L 112.094381 97.9896 
L 115.167751 96.89568 
L 118.130317 95.45088 
L 121.232189 95.67792 
L 124.271287 93.43848 
L 127.244479 92.90184 
L 130.338187 92.25168 
L 133.37915 92.87088 
L 136.368705 94.2744 
L 139.419977 93.1392 
L 142.521391 92.97408 
L 145.585542 92.9844 
L 148.583471 92.60256 
L 151.638086 92.53032 
L 154.674862 94.54272 
L 157.730005 92.85024 
L 160.731347 94.82136 
L 163.816892 95.75016 
L 166.886567 96.97824 
L 169.90494 97.08144 
L 172.955966 97.23624 
L 176.013432 95.94624 
L 179.030291 96.30744 
L 182.028678 98.08248 
L 185.116967 97.2672 
L 188.197128 96.61704 
L 191.191222 97.23624 
L 194.262586 98.08248 
L 197.293028 99.18672 
L 200.335433 99.03192 
L 203.331744 99.1248 
L 206.433967 98.74296 
L 209.51909 99.09384 
L 212.529334 100.0536 
L 215.603689 101.23008 
L 218.633427 101.99376 
L 221.62351 102.08664 
L 224.616935 102.8916 
L 227.722431 102.45816 
L 230.776025 102.28272 
L 233.758156 102.10728 
L 236.829837 102.582 
L 239.88783 102.29304 
L 242.939912 102.08664 
L 245.957827 102.066 
L 249.020043 101.86992 
L 252.161253 101.48808 
L 255.218754 101.40552 
L 258.162073 101.4984 
L 261.187659 101.97312 
L 264.299418 102.26208 
L 267.218 102.066 
L 270.32142 101.90088 
L 273.450561 101.90088 
L 276.308974 102.0144 
L 279.36 102.25176 
" clip-path="url(#pae899aacf8)" style="fill: none; stroke: #f5841e; stroke-width: 0.6"/>
   </g>
  </g>
 </g>
 <defs>
  <clipPath id="pae899aacf8">
   <rect x="8.64" y="4.8" width="270.72" height="103.2"/>
  </clipPath>
 </defs>
</svg>
