<?xml version="1.0" encoding="utf-8" standalone="no"?>
<!DOCTYPE svg PUBLIC "-//W3C//DTD SVG 1.1//EN"
  "http://www.w3.org/Graphics/SVG/1.1/DTD/svg11.dtd">
<svg xmlns:xlink="http://www.w3.org/1999/xlink" width="288pt" height="120pt" viewBox="0 0 288 120" xmlns="http://www.w3.org/2000/svg" version="1.1">
<desc id="nav-meta">{"window":"1m","count":4,"labels":["13.06","23.06","03.07","13.07"],"tick_utc":["2026-06-13T05:09:20Z","2026-06-23T04:45:28Z","2026-07-03T04:30:06Z","2026-07-13T04:20:46Z"],"w":720,"h":300}</desc>

 <metadata>
  <rdf:RDF xmlns:dc="http://purl.org/dc/elements/1.1/" xmlns:cc="http://creativecommons.org/ns#" xmlns:rdf="http://www.w3.org/1999/02/22-rdf-syntax-ns#">
   <cc:Work>
    <dc:type rdf:resource="http://purl.org/dc/dcmitype/StillImage"/>
    <dc:date>2026-07-13T04:20:48.204653</dc:date>
    <dc:format>image/svg+xml</dc:format>
    <dc:creator>
     <cc:Agent>
      <dc:title>Matplotlib v3.11.0, https://matplotlib.org/</dc:title>
     </cc:Agent>
    </dc:creator>
   </cc:Work>
  </rdf:RDF>
 </metadata>
 <defs>
  <style type="text/css">*{stroke-linejoin: round; stroke-linecap: butt}</style>
 </defs>
 <g id="figure_1">
  <g id="patch_1">
   <path d="M 0 120 
L 288 120 
L 288 0 
L 0 0 
L 0 120 
z
" style="fill: none; opacity: 0"/>
  </g>
  <g id="axes_1">
   <g id="patch_2">
    <path d="M 8.64 108 
L 279.36 108 
L 279.36 4.8 
L 8.64 4.8 
L 8.64 108 
z
" style="fill: none"/>
   </g>
   <g id="matplotlib.axis_1"/>
   <g id="matplotlib.axis_2"/>
   <g id="line2d_1">
    <path d="M 8.64 87.36 
L 279.36 87.36 
" clip-path="url(#pc859c216b2)" style="fill: none; stroke: #b2b2b2; stroke-opacity: 0.35; stroke-width: 0.5; stroke-linecap: square"/>
   </g>
   <g id="line2d_2">
    <path d="M 8.64 66.72 
L 279.36 66.72 
" clip-path="url(#pc859c216b2)" style="fill: none; stroke: #b2b2b2; stroke-opacity: 0.35; stroke-width: 0.5; stroke-linecap: square"/>
   </g>
   <g id="line2d_3">
    <path d="M 8.64 46.08 
L 279.36 46.08 
" clip-path="url(#pc859c216b2)" style="fill: none; stroke: #b2b2b2; stroke-opacity: 0.35; stroke-width: 0.5; stroke-linecap: square"/>
   </g>
   <g id="line2d_4">
    <path d="M 8.64 25.44 
L 279.36 25.44 
" clip-path="url(#pc859c216b2)" style="fill: none; stroke: #b2b2b2; stroke-opacity: 0.35; stroke-width: 0.5; stroke-linecap: square"/>
   </g>
   <g id="line2d_5">
    <path d="M 8.64 103.5108 
L 17.739717 103.31472 
L 27.074175 102.95352 
L 36.159881 102.61296 
L 44.906283 102.6336 
L 53.89715 102.9948 
L 63.144091 103.28376 
L 71.816985 103.01544 
L 81.039144 102.69552 
L 90.337738 102.582 
L 98.831832 102.88128 
L 107.898298 103.15992 
L 116.930049 103.36632 
L 126.010527 103.36632 
L 134.933952 102.81936 
L 144.140322 103.0464 
L 153.23983 102.9432 
L 162.098845 102.59232 
L 171.265168 102.40656 
L 180.141122 102.02472 
L 189.07699 101.68416 
L 198.07225 101.3436 
L 207.238677 101.6532 
L 216.360352 101.6532 
L 225.258996 101.63256 
L 234.047641 101.95248 
L 243.355645 102.08664 
L 252.369412 101.9112 
L 261.136831 102.066 
L 270.306081 102.18984 
L 279.36 102.31368 
" clip-path="url(#pc859c216b2)" style="fill: none; stroke: #bebebe; stroke-width: 0.5; stroke-linecap: round"/>
   </g>
   <g id="line2d_6">
    <path d="M 8.64 94.8936 
L 17.739717 94.70784 
L 27.074175 94.04736 
L 36.159881 93.40752 
L 44.906283 92.9844 
L 53.89715 93.93384 
L 63.144091 94.4292 
L 71.816985 94.19184 
L 81.039144 93.87192 
L 90.337738 93.81 
L 98.831832 94.03704 
L 107.898298 94.83168 
L 116.930049 95.48184 
L 126.010527 96.63768 
L 134.933952 96.14232 
L 144.140322 96.30744 
L 153.23983 96.29712 
L 162.098845 96.04944 
L 171.265168 95.9256 
L 180.141122 95.39928 
L 189.07699 94.31568 
L 198.07225 93.57264 
L 207.238677 93.32496 
L 216.360352 93.22176 
L 225.258996 93.35592 
L 234.047641 93.61392 
L 243.355645 93.77904 
L 252.369412 93.26304 
L 261.136831 92.92248 
L 270.306081 92.71608 
L 279.36 93.15984 
" clip-path="url(#pc859c216b2)" style="fill: none; stroke: #4a8dff; stroke-width: 0.6"/>
   </g>
   <g id="line2d_7">
    <path d="M 8.64 102.066 
L 17.739717 101.86992 
L 27.074175 101.48808 
L 36.159881 101.40552 
L 44.906283 101.4984 
L 53.89715 101.97312 
L 63.144091 102.26208 
L 71.816985 102.066 
L 81.039144 101.90088 
L 90.337738 101.90088 
L 98.831832 102.0144 
L 107.898298 102.25176 
L 116.930049 102.6336 
L 126.010527 102.88128 
L 134.933952 102.77808 
L 144.140322 102.85032 
L 153.23983 102.93288 
L 162.098845 102.95352 
L 171.265168 103.00512 
L 180.141122 102.69552 
L 189.07699 102.55104 
L 198.07225 102.2724 
L 207.238677 102.21048 
L 216.360352 102.12792 
L 225.258996 102.13824 
L 234.047641 102.25176 
L 243.355645 102.36528 
L 252.369412 101.94216 
L 261.136831 101.92152 
L 270.306081 101.9112 
L 279.36 102.2208 
" clip-path="url(#pc859c216b2)" style="fill: none; stroke: #f5841e; stroke-width: 0.6"/>
   </g>
  </g>
 </g>
 <defs>
  <clipPath id="pc859c216b2">
   <rect x="8.64" y="4.8" width="270.72" height="103.2"/>
  </clipPath>
 </defs>
</svg>
