<?xml version="1.0" encoding="utf-8" standalone="no"?>
<!DOCTYPE svg PUBLIC "-//W3C//DTD SVG 1.1//EN"
  "http://www.w3.org/Graphics/SVG/1.1/DTD/svg11.dtd">
<svg xmlns:xlink="http://www.w3.org/1999/xlink" width="288pt" height="120pt" viewBox="0 0 288 120" xmlns="http://www.w3.org/2000/svg" version="1.1">
<desc id="nav-meta">{"window":"1m","count":4,"labels":["17.03","27.03","05.04","15.04"],"tick_utc":["2026-03-17T03:21:27Z","2026-03-27T03:41:18Z","2026-04-05T03:46:34Z","2026-04-15T03:52:26Z"],"w":720,"h":300}</desc>

 <metadata>
  <rdf:RDF xmlns:dc="http://purl.org/dc/elements/1.1/" xmlns:cc="http://creativecommons.org/ns#" xmlns:rdf="http://www.w3.org/1999/02/22-rdf-syntax-ns#">
   <cc:Work>
    <dc:type rdf:resource="http://purl.org/dc/dcmitype/StillImage"/>
    <dc:date>2026-04-15T14:13:43.110663</dc:date>
    <dc:format>image/svg+xml</dc:format>
    <dc:creator>
     <cc:Agent>
      <dc:title>Matplotlib v3.10.8, https://matplotlib.org/</dc:title>
     </cc:Agent>
    </dc:creator>
   </cc:Work>
  </rdf:RDF>
 </metadata>
 <defs>
  <style type="text/css">*{stroke-linejoin: round; stroke-linecap: butt}</style>
 </defs>
 <g id="figure_1">
  <g id="patch_1">
   <path d="M 0 120 
L 288 120 
L 288 0 
L 0 0 
L 0 120 
z
" style="fill: none; opacity: 0"/>
  </g>
  <g id="axes_1">
   <g id="patch_2">
    <path d="M 8.64 108 
L 279.36 108 
L 279.36 4.8 
L 8.64 4.8 
L 8.64 108 
z
" style="fill: none"/>
   </g>
   <g id="matplotlib.axis_1"/>
   <g id="matplotlib.axis_2"/>
   <g id="line2d_1">
    <path d="M 8.64 87.36 
L 279.36 87.36 
" clip-path="url(#pb5c64d008e)" style="fill: none; stroke: #b2b2b2; stroke-opacity: 0.35; stroke-width: 0.5; stroke-linecap: square"/>
   </g>
   <g id="line2d_2">
    <path d="M 8.64 66.72 
L 279.36 66.72 
" clip-path="url(#pb5c64d008e)" style="fill: none; stroke: #b2b2b2; stroke-opacity: 0.35; stroke-width: 0.5; stroke-linecap: square"/>
   </g>
   <g id="line2d_3">
    <path d="M 8.64 46.08 
L 279.36 46.08 
" clip-path="url(#pb5c64d008e)" style="fill: none; stroke: #b2b2b2; stroke-opacity: 0.35; stroke-width: 0.5; stroke-linecap: square"/>
   </g>
   <g id="line2d_4">
    <path d="M 8.64 25.44 
L 279.36 25.44 
" clip-path="url(#pb5c64d008e)" style="fill: none; stroke: #b2b2b2; stroke-opacity: 0.35; stroke-width: 0.5; stroke-linecap: square"/>
   </g>
   <g id="line2d_5">
    <path d="M 8.64 99.49632 
L 18.039401 99.40344 
L 27.370244 100.09488 
L 36.607696 100.3632 
L 45.881316 100.19808 
L 55.34906 100.47672 
L 64.699228 100.79664 
L 73.941107 100.26 
L 83.964119 99.83688 
L 92.711082 100.13616 
L 102.051102 100.80696 
L 111.290173 101.38488 
L 120.745501 101.3436 
L 130.10042 101.292 
L 139.36983 101.28168 
L 148.778084 101.28168 
L 157.98347 101.8596 
L 167.32241 101.88024 
L 176.570767 101.72544 
L 186.039482 101.68416 
L 195.39181 101.47776 
L 204.659492 101.78736 
L 214.002859 101.09592 
L 223.298612 101.46744 
L 232.712697 101.3436 
L 241.898325 101.05464 
L 251.393924 101.3952 
L 260.770004 101.47776 
L 270.038874 100.86888 
L 279.36 101.26104 
" clip-path="url(#pb5c64d008e)" style="fill: none; stroke: #bebebe; stroke-width: 0.5; stroke-linecap: round"/>
   </g>
   <g id="line2d_6">
    <path d="M 8.64 84.80064 
L 18.039401 84.8316 
L 27.370244 86.586 
L 36.607696 87.74184 
L 45.881316 87.618 
L 55.34906 88.19592 
L 64.699228 89.08344 
L 73.941107 87.89664 
L 83.964119 87.3084 
L 92.711082 87.65928 
L 102.051102 88.96992 
L 111.290173 90.07416 
L 120.745501 89.76456 
L 130.10042 89.3724 
L 139.36983 89.00088 
L 148.778084 88.42296 
L 157.98347 88.81512 
L 167.32241 89.10408 
L 176.570767 89.14536 
L 186.039482 89.07312 
L 195.39181 87.9792 
L 204.659492 88.29912 
L 214.002859 86.38992 
L 223.298612 87.24648 
L 232.712697 87.1536 
L 241.898325 86.21448 
L 251.393924 86.66856 
L 260.770004 87.01944 
L 270.038874 84.44976 
L 279.36 85.05864 
" clip-path="url(#pb5c64d008e)" style="fill: none; stroke: #4a8dff; stroke-width: 0.6"/>
   </g>
   <g id="line2d_7">
    <path d="M 8.64 98.3508 
L 18.039401 98.52624 
L 27.370244 99.78528 
L 36.607696 100.12584 
L 45.881316 100.03296 
L 55.34906 100.45608 
L 64.699228 100.83792 
L 73.941107 100.11552 
L 83.964119 99.87816 
L 92.711082 100.002 
L 102.051102 100.64184 
L 111.290173 101.41584 
L 120.745501 101.21976 
L 130.10042 101.14752 
L 139.36983 101.00304 
L 148.778084 100.86888 
L 157.98347 101.21976 
L 167.32241 101.28168 
L 176.570767 101.20944 
L 186.039482 101.14752 
L 195.39181 100.55928 
L 204.659492 100.65216 
L 214.002859 99.80592 
L 223.298612 99.96072 
L 232.712697 99.6408 
L 241.898325 99.1764 
L 251.393924 99.70272 
L 260.770004 99.94008 
L 270.038874 98.57784 
L 279.36 98.65008 
" clip-path="url(#pb5c64d008e)" style="fill: none; stroke: #f5841e; stroke-width: 0.6"/>
   </g>
  </g>
 </g>
 <defs>
  <clipPath id="pb5c64d008e">
   <rect x="8.64" y="4.8" width="270.72" height="103.2"/>
  </clipPath>
 </defs>
</svg>
