<?xml version="1.0" encoding="utf-8" standalone="no"?>
<!DOCTYPE svg PUBLIC "-//W3C//DTD SVG 1.1//EN"
  "http://www.w3.org/Graphics/SVG/1.1/DTD/svg11.dtd">
<svg xmlns:xlink="http://www.w3.org/1999/xlink" width="288pt" height="120pt" viewBox="0 0 288 120" xmlns="http://www.w3.org/2000/svg" version="1.1">
<desc id="nav-meta">{"window":"3m","count":4,"labels":["06.12","05.01","03.02","05.03"],"tick_utc":["2025-12-06T12:00:00Z","2026-01-05T12:00:00Z","2026-02-03T12:00:00Z","2026-03-05T03:17:19Z"],"w":720,"h":300}</desc>

 <metadata>
  <rdf:RDF xmlns:dc="http://purl.org/dc/elements/1.1/" xmlns:cc="http://creativecommons.org/ns#" xmlns:rdf="http://www.w3.org/1999/02/22-rdf-syntax-ns#">
   <cc:Work>
    <dc:type rdf:resource="http://purl.org/dc/dcmitype/StillImage"/>
    <dc:date>2026-03-05T13:47:39.811840</dc:date>
    <dc:format>image/svg+xml</dc:format>
    <dc:creator>
     <cc:Agent>
      <dc:title>Matplotlib v3.10.8, https://matplotlib.org/</dc:title>
     </cc:Agent>
    </dc:creator>
   </cc:Work>
  </rdf:RDF>
 </metadata>
 <defs>
  <style type="text/css">*{stroke-linejoin: round; stroke-linecap: butt}</style>
 </defs>
 <g id="figure_1">
  <g id="patch_1">
   <path d="M 0 120 
L 288 120 
L 288 0 
L 0 0 
L 0 120 
z
" style="fill: none; opacity: 0"/>
  </g>
  <g id="axes_1">
   <g id="patch_2">
    <path d="M 8.64 108 
L 279.36 108 
L 279.36 4.8 
L 8.64 4.8 
L 8.64 108 
z
" style="fill: none"/>
   </g>
   <g id="matplotlib.axis_1"/>
   <g id="matplotlib.axis_2"/>
   <g id="line2d_1">
    <path d="M 8.64 87.36 
L 279.36 87.36 
" clip-path="url(#pb376189e5b)" style="fill: none; stroke: #b2b2b2; stroke-opacity: 0.35; stroke-width: 0.5; stroke-linecap: square"/>
   </g>
   <g id="line2d_2">
    <path d="M 8.64 66.72 
L 279.36 66.72 
" clip-path="url(#pb376189e5b)" style="fill: none; stroke: #b2b2b2; stroke-opacity: 0.35; stroke-width: 0.5; stroke-linecap: square"/>
   </g>
   <g id="line2d_3">
    <path d="M 8.64 46.08 
L 279.36 46.08 
" clip-path="url(#pb376189e5b)" style="fill: none; stroke: #b2b2b2; stroke-opacity: 0.35; stroke-width: 0.5; stroke-linecap: square"/>
   </g>
   <g id="line2d_4">
    <path d="M 8.64 25.44 
L 279.36 25.44 
" clip-path="url(#pb376189e5b)" style="fill: none; stroke: #b2b2b2; stroke-opacity: 0.35; stroke-width: 0.5; stroke-linecap: square"/>
   </g>
   <g id="line2d_5">
    <path d="M 8.64 90.11544 
L 11.694254 90.38376 
L 14.748508 90.53856 
L 17.802762 90.08448 
L 20.857016 88.79448 
L 23.911271 89.20728 
L 26.965525 89.22792 
L 30.019779 90.31152 
L 33.074033 90.10512 
L 36.128287 91.09584 
L 39.182541 91.61184 
L 42.236795 91.31256 
L 45.291049 92.87088 
L 48.345304 93.8616 
L 51.399558 92.02464 
L 54.453812 92.13816 
L 57.508066 92.07624 
L 60.56232 92.14848 
L 63.616574 92.64384 
L 66.670828 93.01536 
L 69.725082 93.69648 
L 72.779336 93.11856 
L 75.833591 92.44776 
L 78.887845 92.30328 
L 81.942099 92.87088 
L 84.996353 92.38584 
L 88.050607 92.47872 
L 91.104861 91.88016 
L 94.159115 90.42504 
L 97.213369 90.08448 
L 100.267624 89.92968 
L 103.321878 88.76352 
L 106.376132 87.94824 
L 109.430386 89.2692 
L 112.48464 88.72224 
L 115.538894 89.39304 
L 118.593148 89.40336 
L 121.647402 88.41264 
L 124.701656 88.4952 
L 127.755911 86.86464 
L 130.810165 86.42088 
L 133.864419 87.62832 
L 136.918673 86.93688 
L 139.972927 87.23616 
L 143.027181 88.63968 
L 146.081435 90.0432 
L 149.135689 92.12784 
L 152.189944 91.16808 
L 155.244198 91.46736 
L 158.298452 91.73568 
L 161.352706 91.78728 
L 164.40696 94.0164 
L 167.461214 92.5716 
L 170.515468 91.76664 
L 173.569722 92.33424 
L 176.623976 94.36728 
L 179.678231 94.46016 
L 182.732485 97.71096 
L 185.786739 98.48496 
L 188.840993 97.85544 
L 191.419469 99.10416 
L 193.846647 100.16712 
L 196.899345 102.23112 
L 199.94052 100.54896 
L 203.064591 100.70376 
L 206.09364 100.68312 
L 209.165322 100.95144 
L 212.213248 101.28168 
L 215.256509 101.71512 
L 218.309844 101.84928 
L 221.327369 101.034 
L 224.220462 100.54896 
L 227.470626 101.04432 
L 230.141225 100.81728 
L 233.574292 101.034 
L 236.624834 101.4984 
L 239.661236 101.33328 
L 242.696825 101.1372 
L 245.78597 101.06496 
L 248.849415 102.09696 
L 251.645649 102.05568 
L 254.94693 101.4984 
L 257.987574 100.60056 
L 261.036031 100.80696 
L 264.054298 101.45712 
L 267.177945 100.55928 
L 270.200667 101.10624 
L 273.262026 100.8792 
L 276.299171 100.74504 
L 279.36 100.21872 
" clip-path="url(#pb376189e5b)" style="fill: none; stroke: #bebebe; stroke-width: 0.5; stroke-linecap: round"/>
   </g>
   <g id="line2d_6">
    <path d="M 8.64 74.72832 
L 11.694254 74.48064 
L 14.748508 74.28456 
L 17.802762 73.21128 
L 20.857016 70.2804 
L 23.911271 70.2288 
L 26.965525 71.56008 
L 30.019779 73.79952 
L 33.074033 73.35576 
L 36.128287 74.0988 
L 39.182541 75.5952 
L 42.236795 75.5952 
L 45.291049 77.61792 
L 48.345304 77.63856 
L 51.399558 75.40944 
L 54.453812 75.40944 
L 57.508066 75.04824 
L 60.56232 74.98632 
L 63.616574 75.58488 
L 66.670828 75.87384 
L 69.725082 76.49304 
L 72.779336 76.15248 
L 75.833591 75.82224 
L 78.887845 75.84288 
L 81.942099 76.03896 
L 84.996353 75.51264 
L 88.050607 75.56424 
L 91.104861 75.05856 
L 94.159115 73.26288 
L 97.213369 73.20096 
L 100.267624 73.00488 
L 103.321878 71.68392 
L 106.376132 70.6932 
L 109.430386 72.62304 
L 112.48464 73.52088 
L 115.538894 73.83048 
L 118.593148 73.8408 
L 121.647402 73.29384 
L 124.701656 73.72728 
L 127.755911 70.32168 
L 130.810165 69.77472 
L 133.864419 70.34232 
L 136.918673 70.67256 
L 139.972927 70.51776 
L 143.027181 70.848 
L 146.081435 72.31344 
L 149.135689 76.01832 
L 152.189944 75.41976 
L 155.244198 75.83256 
L 158.298452 75.79128 
L 161.352706 75.82224 
L 164.40696 77.82432 
L 167.461214 76.14216 
L 170.515468 74.75928 
L 173.569722 74.96568 
L 176.623976 77.75208 
L 179.678231 79.48584 
L 182.732485 83.31456 
L 185.786739 85.90488 
L 188.840993 84.79032 
L 191.419469 85.84296 
L 193.846647 88.25784 
L 196.899345 91.41576 
L 199.94052 88.7532 
L 203.064591 88.65 
L 206.09364 88.55712 
L 209.165322 88.96992 
L 212.213248 89.7336 
L 215.256509 90.456 
L 218.309844 90.56952 
L 221.327369 89.15568 
L 224.220462 88.9596 
L 227.470626 90.6624 
L 230.141225 89.94 
L 233.574292 90.00192 
L 236.624834 90.3528 
L 239.661236 90.62112 
L 242.696825 90.5076 
L 245.78597 90.3528 
L 248.849415 92.004 
L 251.645649 92.13816 
L 254.94693 91.25064 
L 257.987574 89.166 
L 261.036031 89.56848 
L 264.054298 90.93072 
L 267.177945 89.41368 
L 270.200667 90.37344 
L 273.262026 89.79552 
L 276.299171 90.23928 
L 279.36 88.0824 
" clip-path="url(#pb376189e5b)" style="fill: none; stroke: #4a8dff; stroke-width: 0.6"/>
   </g>
   <g id="line2d_7">
    <path d="M 8.64 84.17112 
L 11.694254 84.24336 
L 14.748508 83.29392 
L 17.802762 82.8192 
L 20.857016 80.64168 
L 23.911271 81.38472 
L 26.965525 80.87904 
L 30.019779 83.13912 
L 33.074033 83.19072 
L 36.128287 85.296 
L 39.182541 87.17424 
L 42.236795 85.71912 
L 45.291049 87.53544 
L 48.345304 88.17528 
L 51.399558 85.41984 
L 54.453812 85.17216 
L 57.508066 84.9348 
L 60.56232 85.01736 
L 63.616574 86.14224 
L 66.670828 85.90488 
L 69.725082 86.328 
L 72.779336 86.24544 
L 75.833591 85.72944 
L 78.887845 85.7088 
L 81.942099 86.40024 
L 84.996353 85.09992 
L 88.050607 86.02872 
L 91.104861 84.78 
L 94.159115 83.53128 
L 97.213369 82.83984 
L 100.267624 82.03488 
L 103.321878 79.39296 
L 106.376132 79.66128 
L 109.430386 82.15872 
L 112.48464 82.43736 
L 115.538894 82.93272 
L 118.593148 83.00496 
L 121.647402 82.6128 
L 124.701656 82.28256 
L 127.755911 78.01008 
L 130.810165 76.19376 
L 133.864419 77.66952 
L 136.918673 77.74176 
L 139.972927 78.1752 
L 143.027181 79.5684 
L 146.081435 80.8068 
L 149.135689 85.20312 
L 152.189944 84.12984 
L 155.244198 84.03696 
L 158.298452 84.06792 
L 161.352706 84.3156 
L 164.40696 87.02976 
L 167.461214 85.21344 
L 170.515468 84.28464 
L 173.569722 84.32592 
L 176.623976 89.08344 
L 179.678231 89.5272 
L 182.732485 95.14128 
L 185.786739 96.98856 
L 188.840993 95.08968 
L 191.419469 97.71096 
L 193.846647 99.80592 
L 196.899345 101.79768 
L 199.94052 100.03296 
L 203.064591 100.518 
L 206.09364 99.98136 
L 209.165322 100.49736 
L 212.213248 100.78632 
L 215.256509 101.07528 
L 218.309844 101.26104 
L 221.327369 100.63152 
L 224.220462 100.38384 
L 227.470626 100.84824 
L 230.141225 100.65216 
L 233.574292 101.034 
L 236.624834 101.19912 
L 239.661236 101.10624 
L 242.696825 100.97208 
L 245.78597 100.91016 
L 248.849415 101.7564 
L 251.645649 101.84928 
L 254.94693 101.56032 
L 257.987574 100.85856 
L 261.036031 101.12688 
L 264.054298 101.4468 
L 267.177945 101.02368 
L 270.200667 101.30232 
L 273.262026 100.81728 
L 276.299171 100.79664 
L 279.36 99.3312 
" clip-path="url(#pb376189e5b)" style="fill: none; stroke: #f5841e; stroke-width: 0.6"/>
   </g>
  </g>
 </g>
 <defs>
  <clipPath id="pb376189e5b">
   <rect x="8.64" y="4.8" width="270.72" height="103.2"/>
  </clipPath>
 </defs>
</svg>
