<?xml version="1.0" encoding="utf-8" standalone="no"?>
<!DOCTYPE svg PUBLIC "-//W3C//DTD SVG 1.1//EN"
  "http://www.w3.org/Graphics/SVG/1.1/DTD/svg11.dtd">
<svg xmlns:xlink="http://www.w3.org/1999/xlink" width="288pt" height="120pt" viewBox="0 0 288 120" xmlns="http://www.w3.org/2000/svg" version="1.1">
<desc id="nav-meta">{"window":"1m","count":4,"labels":["08.05","18.05","27.05","06.06"],"tick_utc":["2026-05-08T04:01:19Z","2026-05-18T04:56:25Z","2026-05-27T05:03:21Z","2026-06-06T04:41:00Z"],"w":720,"h":300}</desc>

 <metadata>
  <rdf:RDF xmlns:dc="http://purl.org/dc/elements/1.1/" xmlns:cc="http://creativecommons.org/ns#" xmlns:rdf="http://www.w3.org/1999/02/22-rdf-syntax-ns#">
   <cc:Work>
    <dc:type rdf:resource="http://purl.org/dc/dcmitype/StillImage"/>
    <dc:date>2026-06-06T14:19:47.102202</dc:date>
    <dc:format>image/svg+xml</dc:format>
    <dc:creator>
     <cc:Agent>
      <dc:title>Matplotlib v3.10.9, https://matplotlib.org/</dc:title>
     </cc:Agent>
    </dc:creator>
   </cc:Work>
  </rdf:RDF>
 </metadata>
 <defs>
  <style type="text/css">*{stroke-linejoin: round; stroke-linecap: butt}</style>
 </defs>
 <g id="figure_1">
  <g id="patch_1">
   <path d="M 0 120 
L 288 120 
L 288 0 
L 0 0 
L 0 120 
z
" style="fill: none; opacity: 0"/>
  </g>
  <g id="axes_1">
   <g id="patch_2">
    <path d="M 8.64 108 
L 279.36 108 
L 279.36 4.8 
L 8.64 4.8 
L 8.64 108 
z
" style="fill: none"/>
   </g>
   <g id="matplotlib.axis_1"/>
   <g id="matplotlib.axis_2"/>
   <g id="line2d_1">
    <path d="M 8.64 87.36 
L 279.36 87.36 
" clip-path="url(#p6c05e452f5)" style="fill: none; stroke: #b2b2b2; stroke-opacity: 0.35; stroke-width: 0.5; stroke-linecap: square"/>
   </g>
   <g id="line2d_2">
    <path d="M 8.64 66.72 
L 279.36 66.72 
" clip-path="url(#p6c05e452f5)" style="fill: none; stroke: #b2b2b2; stroke-opacity: 0.35; stroke-width: 0.5; stroke-linecap: square"/>
   </g>
   <g id="line2d_3">
    <path d="M 8.64 46.08 
L 279.36 46.08 
" clip-path="url(#p6c05e452f5)" style="fill: none; stroke: #b2b2b2; stroke-opacity: 0.35; stroke-width: 0.5; stroke-linecap: square"/>
   </g>
   <g id="line2d_4">
    <path d="M 8.64 25.44 
L 279.36 25.44 
" clip-path="url(#p6c05e452f5)" style="fill: none; stroke: #b2b2b2; stroke-opacity: 0.35; stroke-width: 0.5; stroke-linecap: square"/>
   </g>
   <g id="line2d_5">
    <path d="M 8.64 100.53864 
L 18.00042 99.60984 
L 27.514659 99.72336 
L 36.914587 99.44472 
L 46.111364 99.25896 
L 55.482039 99.32088 
L 64.797986 100.22904 
L 74.17028 100.01232 
L 83.377528 100.43544 
L 92.843085 100.75536 
L 102.25996 101.02368 
L 111.519453 101.02368 
L 120.879117 101.17848 
L 130.258535 100.7244 
L 139.513386 100.75536 
L 148.711568 101.11656 
L 158.185544 100.91016 
L 167.634586 100.89984 
L 176.819598 101.1372 
L 186.241653 101.2404 
L 195.538171 101.6532 
L 204.871389 101.4984 
L 214.063201 101.48808 
L 223.579923 101.32296 
L 233.044185 101.51904 
L 242.278743 101.7048 
L 251.709974 102.54072 
L 261.004333 103.08768 
L 270.177039 103.36632 
L 279.36 104.22288 
" clip-path="url(#p6c05e452f5)" style="fill: none; stroke: #bebebe; stroke-width: 0.5; stroke-linecap: round"/>
   </g>
   <g id="line2d_6">
    <path d="M 8.64 85.7604 
L 18.00042 85.0896 
L 27.514659 85.01736 
L 36.914587 84.9348 
L 46.111364 85.296 
L 55.482039 85.35792 
L 64.797986 86.1732 
L 74.17028 85.92552 
L 83.377528 86.55504 
L 92.843085 87.13296 
L 102.25996 88.10304 
L 111.519453 87.9276 
L 120.879117 88.26816 
L 130.258535 87.78312 
L 139.513386 87.95856 
L 148.711568 88.94928 
L 158.185544 88.14432 
L 167.634586 88.33008 
L 176.819598 88.52616 
L 186.241653 88.86672 
L 195.538171 90.22896 
L 204.871389 89.82648 
L 214.063201 89.87808 
L 223.579923 89.46528 
L 233.044185 90.0432 
L 242.278743 89.96064 
L 251.709974 91.99368 
L 261.004333 93.05664 
L 270.177039 93.74808 
L 279.36 97.02984 
" clip-path="url(#p6c05e452f5)" style="fill: none; stroke: #4a8dff; stroke-width: 0.6"/>
   </g>
   <g id="line2d_7">
    <path d="M 8.64 94.2744 
L 18.00042 93.1392 
L 27.514659 92.97408 
L 36.914587 92.9844 
L 46.111364 92.60256 
L 55.482039 92.53032 
L 64.797986 94.54272 
L 74.17028 92.85024 
L 83.377528 94.82136 
L 92.843085 95.75016 
L 102.25996 96.97824 
L 111.519453 97.08144 
L 120.879117 97.23624 
L 130.258535 95.94624 
L 139.513386 96.30744 
L 148.711568 98.08248 
L 158.185544 97.2672 
L 167.634586 96.61704 
L 176.819598 97.23624 
L 186.241653 98.08248 
L 195.538171 99.18672 
L 204.871389 99.03192 
L 214.063201 99.1248 
L 223.579923 98.74296 
L 233.044185 99.09384 
L 242.278743 100.0536 
L 251.709974 101.23008 
L 261.004333 101.99376 
L 270.177039 102.08664 
L 279.36 102.8916 
" clip-path="url(#p6c05e452f5)" style="fill: none; stroke: #f5841e; stroke-width: 0.6"/>
   </g>
  </g>
 </g>
 <defs>
  <clipPath id="p6c05e452f5">
   <rect x="8.64" y="4.8" width="270.72" height="103.2"/>
  </clipPath>
 </defs>
</svg>
