<?xml version="1.0" encoding="utf-8" standalone="no"?>
<!DOCTYPE svg PUBLIC "-//W3C//DTD SVG 1.1//EN"
  "http://www.w3.org/Graphics/SVG/1.1/DTD/svg11.dtd">
<svg xmlns:xlink="http://www.w3.org/1999/xlink" width="288pt" height="120pt" viewBox="0 0 288 120" xmlns="http://www.w3.org/2000/svg" version="1.1">
<desc id="nav-meta">{"window":"1m","count":4,"labels":["10.02","20.02","02.03","12.03"],"tick_utc":["2026-02-10T03:42:23Z","2026-02-20T03:20:24Z","2026-03-02T03:18:56Z","2026-03-12T03:19:44Z"],"w":720,"h":300}</desc>

 <metadata>
  <rdf:RDF xmlns:dc="http://purl.org/dc/elements/1.1/" xmlns:cc="http://creativecommons.org/ns#" xmlns:rdf="http://www.w3.org/1999/02/22-rdf-syntax-ns#">
   <cc:Work>
    <dc:type rdf:resource="http://purl.org/dc/dcmitype/StillImage"/>
    <dc:date>2026-03-12T03:19:45.921067</dc:date>
    <dc:format>image/svg+xml</dc:format>
    <dc:creator>
     <cc:Agent>
      <dc:title>Matplotlib v3.10.8, https://matplotlib.org/</dc:title>
     </cc:Agent>
    </dc:creator>
   </cc:Work>
  </rdf:RDF>
 </metadata>
 <defs>
  <style type="text/css">*{stroke-linejoin: round; stroke-linecap: butt}</style>
 </defs>
 <g id="figure_1">
  <g id="patch_1">
   <path d="M 0 120 
L 288 120 
L 288 0 
L 0 0 
L 0 120 
z
" style="fill: none; opacity: 0"/>
  </g>
  <g id="axes_1">
   <g id="patch_2">
    <path d="M 8.64 108 
L 279.36 108 
L 279.36 4.8 
L 8.64 4.8 
L 8.64 108 
z
" style="fill: none"/>
   </g>
   <g id="matplotlib.axis_1"/>
   <g id="matplotlib.axis_2"/>
   <g id="line2d_1">
    <path d="M 8.64 87.36 
L 279.36 87.36 
" clip-path="url(#p1d7bc4571b)" style="fill: none; stroke: #b2b2b2; stroke-opacity: 0.35; stroke-width: 0.5; stroke-linecap: square"/>
   </g>
   <g id="line2d_2">
    <path d="M 8.64 66.72 
L 279.36 66.72 
" clip-path="url(#p1d7bc4571b)" style="fill: none; stroke: #b2b2b2; stroke-opacity: 0.35; stroke-width: 0.5; stroke-linecap: square"/>
   </g>
   <g id="line2d_3">
    <path d="M 8.64 46.08 
L 279.36 46.08 
" clip-path="url(#p1d7bc4571b)" style="fill: none; stroke: #b2b2b2; stroke-opacity: 0.35; stroke-width: 0.5; stroke-linecap: square"/>
   </g>
   <g id="line2d_4">
    <path d="M 8.64 25.44 
L 279.36 25.44 
" clip-path="url(#p1d7bc4571b)" style="fill: none; stroke: #b2b2b2; stroke-opacity: 0.35; stroke-width: 0.5; stroke-linecap: square"/>
   </g>
   <g id="line2d_5">
    <path d="M 8.64 100.95144 
L 17.650028 101.28168 
L 26.646263 101.71512 
L 35.67228 101.84928 
L 44.592439 101.034 
L 53.144761 100.54896 
L 62.752629 101.04432 
L 70.647233 100.81728 
L 80.795781 101.034 
L 89.813542 101.4984 
L 98.789504 101.33328 
L 107.763062 101.1372 
L 116.894936 101.06496 
L 125.95084 102.09696 
L 134.216834 102.05568 
L 143.975808 101.4984 
L 152.96431 100.60056 
L 161.975906 100.80696 
L 170.89826 101.45712 
L 180.132125 100.55928 
L 189.067646 101.10624 
L 198.117384 100.8792 
L 207.09554 100.74504 
L 216.143711 100.21872 
L 225.16816 100.53864 
L 234.127611 101.07528 
L 243.24402 101.38488 
L 252.299819 101.26104 
L 261.270556 100.78632 
L 270.295736 100.91016 
L 279.36 100.99272 
" clip-path="url(#p1d7bc4571b)" style="fill: none; stroke: #bebebe; stroke-width: 0.5; stroke-linecap: round"/>
   </g>
   <g id="line2d_6">
    <path d="M 8.64 88.96992 
L 17.650028 89.7336 
L 26.646263 90.456 
L 35.67228 90.56952 
L 44.592439 89.15568 
L 53.144761 88.9596 
L 62.752629 90.6624 
L 70.647233 89.94 
L 80.795781 90.00192 
L 89.813542 90.3528 
L 98.789504 90.62112 
L 107.763062 90.5076 
L 116.894936 90.3528 
L 125.95084 92.004 
L 134.216834 92.13816 
L 143.975808 91.25064 
L 152.96431 89.166 
L 161.975906 89.56848 
L 170.89826 90.93072 
L 180.132125 89.41368 
L 189.067646 90.37344 
L 198.117384 89.79552 
L 207.09554 90.23928 
L 216.143711 88.0824 
L 225.16816 88.7532 
L 234.127611 90.16704 
L 243.24402 90.67272 
L 252.299819 90.18768 
L 261.270556 89.2692 
L 270.295736 89.54784 
L 279.36 89.49624 
" clip-path="url(#p1d7bc4571b)" style="fill: none; stroke: #4a8dff; stroke-width: 0.6"/>
   </g>
   <g id="line2d_7">
    <path d="M 8.64 100.49736 
L 17.650028 100.78632 
L 26.646263 101.07528 
L 35.67228 101.26104 
L 44.592439 100.63152 
L 53.144761 100.38384 
L 62.752629 100.84824 
L 70.647233 100.65216 
L 80.795781 101.034 
L 89.813542 101.19912 
L 98.789504 101.10624 
L 107.763062 100.97208 
L 116.894936 100.91016 
L 125.95084 101.7564 
L 134.216834 101.84928 
L 143.975808 101.56032 
L 152.96431 100.85856 
L 161.975906 101.12688 
L 170.89826 101.4468 
L 180.132125 101.02368 
L 189.067646 101.30232 
L 198.117384 100.81728 
L 207.09554 100.79664 
L 216.143711 99.3312 
L 225.16816 99.92976 
L 234.127611 100.78632 
L 243.24402 101.17848 
L 252.299819 101.1372 
L 261.270556 100.21872 
L 270.295736 100.37352 
L 279.36 100.4664 
" clip-path="url(#p1d7bc4571b)" style="fill: none; stroke: #f5841e; stroke-width: 0.6"/>
   </g>
  </g>
 </g>
 <defs>
  <clipPath id="p1d7bc4571b">
   <rect x="8.64" y="4.8" width="270.72" height="103.2"/>
  </clipPath>
 </defs>
</svg>
