<?xml version="1.0" encoding="utf-8" standalone="no"?>
<!DOCTYPE svg PUBLIC "-//W3C//DTD SVG 1.1//EN"
  "http://www.w3.org/Graphics/SVG/1.1/DTD/svg11.dtd">
<svg xmlns:xlink="http://www.w3.org/1999/xlink" width="288pt" height="120pt" viewBox="0 0 288 120" xmlns="http://www.w3.org/2000/svg" version="1.1">
<desc id="nav-meta">{"window":"1m","count":4,"labels":["04.02","14.02","23.02","05.03"],"tick_utc":["2026-02-04T08:15:41Z","2026-02-14T03:16:28Z","2026-02-23T03:32:23Z","2026-03-05T03:17:19Z"],"w":720,"h":300}</desc>

 <metadata>
  <rdf:RDF xmlns:dc="http://purl.org/dc/elements/1.1/" xmlns:cc="http://creativecommons.org/ns#" xmlns:rdf="http://www.w3.org/1999/02/22-rdf-syntax-ns#">
   <cc:Work>
    <dc:type rdf:resource="http://purl.org/dc/dcmitype/StillImage"/>
    <dc:date>2026-03-05T13:47:39.789589</dc:date>
    <dc:format>image/svg+xml</dc:format>
    <dc:creator>
     <cc:Agent>
      <dc:title>Matplotlib v3.10.8, https://matplotlib.org/</dc:title>
     </cc:Agent>
    </dc:creator>
   </cc:Work>
  </rdf:RDF>
 </metadata>
 <defs>
  <style type="text/css">*{stroke-linejoin: round; stroke-linecap: butt}</style>
 </defs>
 <g id="figure_1">
  <g id="patch_1">
   <path d="M 0 120 
L 288 120 
L 288 0 
L 0 0 
L 0 120 
z
" style="fill: none; opacity: 0"/>
  </g>
  <g id="axes_1">
   <g id="patch_2">
    <path d="M 8.64 108 
L 279.36 108 
L 279.36 4.8 
L 8.64 4.8 
L 8.64 108 
z
" style="fill: none"/>
   </g>
   <g id="matplotlib.axis_1"/>
   <g id="matplotlib.axis_2"/>
   <g id="line2d_1">
    <path d="M 8.64 87.36 
L 279.36 87.36 
" clip-path="url(#p51f2ec30a9)" style="fill: none; stroke: #b2b2b2; stroke-opacity: 0.35; stroke-width: 0.5; stroke-linecap: square"/>
   </g>
   <g id="line2d_2">
    <path d="M 8.64 66.72 
L 279.36 66.72 
" clip-path="url(#p51f2ec30a9)" style="fill: none; stroke: #b2b2b2; stroke-opacity: 0.35; stroke-width: 0.5; stroke-linecap: square"/>
   </g>
   <g id="line2d_3">
    <path d="M 8.64 46.08 
L 279.36 46.08 
" clip-path="url(#p51f2ec30a9)" style="fill: none; stroke: #b2b2b2; stroke-opacity: 0.35; stroke-width: 0.5; stroke-linecap: square"/>
   </g>
   <g id="line2d_4">
    <path d="M 8.64 25.44 
L 279.36 25.44 
" clip-path="url(#p51f2ec30a9)" style="fill: none; stroke: #b2b2b2; stroke-opacity: 0.35; stroke-width: 0.5; stroke-linecap: square"/>
   </g>
   <g id="line2d_5">
    <path d="M 8.64 99.10416 
L 16.11193 100.16712 
L 25.509492 102.23112 
L 34.871578 100.54896 
L 44.488855 100.70376 
L 53.813614 100.68312 
L 63.269614 100.95144 
L 72.652485 101.28168 
L 82.020991 101.71512 
L 91.420512 101.84928 
L 100.709795 101.034 
L 109.616019 100.54896 
L 119.621469 101.04432 
L 127.842758 100.81728 
L 138.41126 101.034 
L 147.802184 101.4984 
L 157.149579 101.33328 
L 166.49447 101.1372 
L 176.004229 101.06496 
L 185.434874 102.09696 
L 194.042921 102.05568 
L 204.20573 101.4984 
L 213.566183 100.60056 
L 222.950687 100.80696 
L 232.242254 101.45712 
L 241.858225 100.55928 
L 251.163505 101.10624 
L 260.587729 100.8792 
L 269.937409 100.74504 
L 279.36 100.21872 
" clip-path="url(#p51f2ec30a9)" style="fill: none; stroke: #bebebe; stroke-width: 0.5; stroke-linecap: round"/>
   </g>
   <g id="line2d_6">
    <path d="M 8.64 85.84296 
L 16.11193 88.25784 
L 25.509492 91.41576 
L 34.871578 88.7532 
L 44.488855 88.65 
L 53.813614 88.55712 
L 63.269614 88.96992 
L 72.652485 89.7336 
L 82.020991 90.456 
L 91.420512 90.56952 
L 100.709795 89.15568 
L 109.616019 88.9596 
L 119.621469 90.6624 
L 127.842758 89.94 
L 138.41126 90.00192 
L 147.802184 90.3528 
L 157.149579 90.62112 
L 166.49447 90.5076 
L 176.004229 90.3528 
L 185.434874 92.004 
L 194.042921 92.13816 
L 204.20573 91.25064 
L 213.566183 89.166 
L 222.950687 89.56848 
L 232.242254 90.93072 
L 241.858225 89.41368 
L 251.163505 90.37344 
L 260.587729 89.79552 
L 269.937409 90.23928 
L 279.36 88.0824 
" clip-path="url(#p51f2ec30a9)" style="fill: none; stroke: #4a8dff; stroke-width: 0.6"/>
   </g>
   <g id="line2d_7">
    <path d="M 8.64 97.71096 
L 16.11193 99.80592 
L 25.509492 101.79768 
L 34.871578 100.03296 
L 44.488855 100.518 
L 53.813614 99.98136 
L 63.269614 100.49736 
L 72.652485 100.78632 
L 82.020991 101.07528 
L 91.420512 101.26104 
L 100.709795 100.63152 
L 109.616019 100.38384 
L 119.621469 100.84824 
L 127.842758 100.65216 
L 138.41126 101.034 
L 147.802184 101.19912 
L 157.149579 101.10624 
L 166.49447 100.97208 
L 176.004229 100.91016 
L 185.434874 101.7564 
L 194.042921 101.84928 
L 204.20573 101.56032 
L 213.566183 100.85856 
L 222.950687 101.12688 
L 232.242254 101.4468 
L 241.858225 101.02368 
L 251.163505 101.30232 
L 260.587729 100.81728 
L 269.937409 100.79664 
L 279.36 99.3312 
" clip-path="url(#p51f2ec30a9)" style="fill: none; stroke: #f5841e; stroke-width: 0.6"/>
   </g>
  </g>
 </g>
 <defs>
  <clipPath id="p51f2ec30a9">
   <rect x="8.64" y="4.8" width="270.72" height="103.2"/>
  </clipPath>
 </defs>
</svg>
