<?xml version="1.0" encoding="utf-8" standalone="no"?>
<!DOCTYPE svg PUBLIC "-//W3C//DTD SVG 1.1//EN"
  "http://www.w3.org/Graphics/SVG/1.1/DTD/svg11.dtd">
<svg xmlns:xlink="http://www.w3.org/1999/xlink" width="288pt" height="120pt" viewBox="0 0 288 120" xmlns="http://www.w3.org/2000/svg" version="1.1">
<desc id="nav-meta">{"window":"1m","count":4,"labels":["12.01","22.01","01.02","11.02"],"tick_utc":["2026-01-12T12:00:00Z","2026-01-22T12:00:00Z","2026-02-01T12:00:00Z","2026-02-11T03:39:24Z"],"w":720,"h":300}</desc>

 <metadata>
  <rdf:RDF xmlns:dc="http://purl.org/dc/elements/1.1/" xmlns:cc="http://creativecommons.org/ns#" xmlns:rdf="http://www.w3.org/1999/02/22-rdf-syntax-ns#">
   <cc:Work>
    <dc:type rdf:resource="http://purl.org/dc/dcmitype/StillImage"/>
    <dc:date>2026-02-11T03:39:25.897044</dc:date>
    <dc:format>image/svg+xml</dc:format>
    <dc:creator>
     <cc:Agent>
      <dc:title>Matplotlib v3.10.8, https://matplotlib.org/</dc:title>
     </cc:Agent>
    </dc:creator>
   </cc:Work>
  </rdf:RDF>
 </metadata>
 <defs>
  <style type="text/css">*{stroke-linejoin: round; stroke-linecap: butt}</style>
 </defs>
 <g id="figure_1">
  <g id="patch_1">
   <path d="M 0 120 
L 288 120 
L 288 0 
L 0 0 
L 0 120 
z
" style="fill: none; opacity: 0"/>
  </g>
  <g id="axes_1">
   <g id="patch_2">
    <path d="M 8.64 108 
L 279.36 108 
L 279.36 4.8 
L 8.64 4.8 
L 8.64 108 
z
" style="fill: none"/>
   </g>
   <g id="matplotlib.axis_1"/>
   <g id="matplotlib.axis_2"/>
   <g id="line2d_1">
    <path d="M 8.64 87.36 
L 279.36 87.36 
" clip-path="url(#p2b2342528e)" style="fill: none; stroke: #b2b2b2; stroke-opacity: 0.35; stroke-width: 0.5; stroke-linecap: square"/>
   </g>
   <g id="line2d_2">
    <path d="M 8.64 66.72 
L 279.36 66.72 
" clip-path="url(#p2b2342528e)" style="fill: none; stroke: #b2b2b2; stroke-opacity: 0.35; stroke-width: 0.5; stroke-linecap: square"/>
   </g>
   <g id="line2d_3">
    <path d="M 8.64 46.08 
L 279.36 46.08 
" clip-path="url(#p2b2342528e)" style="fill: none; stroke: #b2b2b2; stroke-opacity: 0.35; stroke-width: 0.5; stroke-linecap: square"/>
   </g>
   <g id="line2d_4">
    <path d="M 8.64 25.44 
L 279.36 25.44 
" clip-path="url(#p2b2342528e)" style="fill: none; stroke: #b2b2b2; stroke-opacity: 0.35; stroke-width: 0.5; stroke-linecap: square"/>
   </g>
   <g id="line2d_5">
    <path d="M 8.64 88.41264 
L 17.769796 88.4952 
L 26.899591 86.86464 
L 36.029387 86.42088 
L 45.159183 87.62832 
L 54.288979 86.93688 
L 63.418774 87.23616 
L 72.54857 88.63968 
L 81.678366 90.0432 
L 90.808162 92.12784 
L 99.937957 91.16808 
L 109.067753 91.46736 
L 118.197549 91.73568 
L 127.327345 91.78728 
L 136.45714 94.0164 
L 145.586936 92.5716 
L 154.716732 91.76664 
L 163.846527 92.33424 
L 172.976323 94.36728 
L 182.106119 94.46016 
L 191.235915 97.71096 
L 200.36571 98.48496 
L 209.495506 97.85544 
L 217.203104 99.10416 
L 224.458438 100.16712 
L 233.583585 102.23112 
L 242.674283 100.54896 
L 252.012775 100.70376 
L 261.067228 100.68312 
L 270.249119 100.95144 
L 279.36 101.28168 
" clip-path="url(#p2b2342528e)" style="fill: none; stroke: #bebebe; stroke-width: 0.5; stroke-linecap: round"/>
   </g>
   <g id="line2d_6">
    <path d="M 8.64 73.29384 
L 17.769796 73.72728 
L 26.899591 70.32168 
L 36.029387 69.77472 
L 45.159183 70.34232 
L 54.288979 70.67256 
L 63.418774 70.51776 
L 72.54857 70.848 
L 81.678366 72.31344 
L 90.808162 76.01832 
L 99.937957 75.41976 
L 109.067753 75.83256 
L 118.197549 75.79128 
L 127.327345 75.82224 
L 136.45714 77.82432 
L 145.586936 76.14216 
L 154.716732 74.75928 
L 163.846527 74.96568 
L 172.976323 77.75208 
L 182.106119 79.48584 
L 191.235915 83.31456 
L 200.36571 85.90488 
L 209.495506 84.79032 
L 217.203104 85.84296 
L 224.458438 88.25784 
L 233.583585 91.41576 
L 242.674283 88.7532 
L 252.012775 88.65 
L 261.067228 88.55712 
L 270.249119 88.96992 
L 279.36 89.7336 
" clip-path="url(#p2b2342528e)" style="fill: none; stroke: #4a8dff; stroke-width: 0.6"/>
   </g>
   <g id="line2d_7">
    <path d="M 8.64 82.6128 
L 17.769796 82.28256 
L 26.899591 78.01008 
L 36.029387 76.19376 
L 45.159183 77.66952 
L 54.288979 77.74176 
L 63.418774 78.1752 
L 72.54857 79.5684 
L 81.678366 80.8068 
L 90.808162 85.20312 
L 99.937957 84.12984 
L 109.067753 84.03696 
L 118.197549 84.06792 
L 127.327345 84.3156 
L 136.45714 87.02976 
L 145.586936 85.21344 
L 154.716732 84.28464 
L 163.846527 84.32592 
L 172.976323 89.08344 
L 182.106119 89.5272 
L 191.235915 95.14128 
L 200.36571 96.98856 
L 209.495506 95.08968 
L 217.203104 97.71096 
L 224.458438 99.80592 
L 233.583585 101.79768 
L 242.674283 100.03296 
L 252.012775 100.518 
L 261.067228 99.98136 
L 270.249119 100.49736 
L 279.36 100.78632 
" clip-path="url(#p2b2342528e)" style="fill: none; stroke: #f5841e; stroke-width: 0.6"/>
   </g>
  </g>
 </g>
 <defs>
  <clipPath id="p2b2342528e">
   <rect x="8.64" y="4.8" width="270.72" height="103.2"/>
  </clipPath>
 </defs>
</svg>
