<?xml version="1.0" encoding="utf-8" standalone="no"?>
<!DOCTYPE svg PUBLIC "-//W3C//DTD SVG 1.1//EN"
  "http://www.w3.org/Graphics/SVG/1.1/DTD/svg11.dtd">
<svg xmlns:xlink="http://www.w3.org/1999/xlink" width="288pt" height="120pt" viewBox="0 0 288 120" xmlns="http://www.w3.org/2000/svg" version="1.1">
<desc id="nav-meta">{"window":"1m","count":4,"labels":["07.05","17.05","26.05","05.06"],"tick_utc":["2026-05-07T04:25:17Z","2026-05-17T04:42:26Z","2026-05-26T04:48:34Z","2026-06-05T05:03:08Z"],"w":720,"h":300}</desc>

 <metadata>
  <rdf:RDF xmlns:dc="http://purl.org/dc/elements/1.1/" xmlns:cc="http://creativecommons.org/ns#" xmlns:rdf="http://www.w3.org/1999/02/22-rdf-syntax-ns#">
   <cc:Work>
    <dc:type rdf:resource="http://purl.org/dc/dcmitype/StillImage"/>
    <dc:date>2026-06-05T20:32:17.332807</dc:date>
    <dc:format>image/svg+xml</dc:format>
    <dc:creator>
     <cc:Agent>
      <dc:title>Matplotlib v3.10.9, https://matplotlib.org/</dc:title>
     </cc:Agent>
    </dc:creator>
   </cc:Work>
  </rdf:RDF>
 </metadata>
 <defs>
  <style type="text/css">*{stroke-linejoin: round; stroke-linecap: butt}</style>
 </defs>
 <g id="figure_1">
  <g id="patch_1">
   <path d="M 0 120 
L 288 120 
L 288 0 
L 0 0 
L 0 120 
z
" style="fill: none; opacity: 0"/>
  </g>
  <g id="axes_1">
   <g id="patch_2">
    <path d="M 8.64 108 
L 279.36 108 
L 279.36 4.8 
L 8.64 4.8 
L 8.64 108 
z
" style="fill: none"/>
   </g>
   <g id="matplotlib.axis_1"/>
   <g id="matplotlib.axis_2"/>
   <g id="line2d_1">
    <path d="M 8.64 87.36 
L 279.36 87.36 
" clip-path="url(#pf8882234d1)" style="fill: none; stroke: #b2b2b2; stroke-opacity: 0.35; stroke-width: 0.5; stroke-linecap: square"/>
   </g>
   <g id="line2d_2">
    <path d="M 8.64 66.72 
L 279.36 66.72 
" clip-path="url(#pf8882234d1)" style="fill: none; stroke: #b2b2b2; stroke-opacity: 0.35; stroke-width: 0.5; stroke-linecap: square"/>
   </g>
   <g id="line2d_3">
    <path d="M 8.64 46.08 
L 279.36 46.08 
" clip-path="url(#pf8882234d1)" style="fill: none; stroke: #b2b2b2; stroke-opacity: 0.35; stroke-width: 0.5; stroke-linecap: square"/>
   </g>
   <g id="line2d_4">
    <path d="M 8.64 25.44 
L 279.36 25.44 
" clip-path="url(#pf8882234d1)" style="fill: none; stroke: #b2b2b2; stroke-opacity: 0.35; stroke-width: 0.5; stroke-linecap: square"/>
   </g>
   <g id="line2d_5">
    <path d="M 8.64 100.55928 
L 17.81149 100.53864 
L 27.17232 99.60984 
L 36.686977 99.72336 
L 46.087316 99.44472 
L 55.284498 99.25896 
L 64.655583 99.32088 
L 73.971939 100.22904 
L 83.344644 100.01232 
L 92.552296 100.43544 
L 102.018268 100.75536 
L 111.435556 101.02368 
L 120.695455 101.02368 
L 130.05553 101.17848 
L 139.435359 100.7244 
L 148.690616 100.75536 
L 157.889201 101.11656 
L 167.363593 100.91016 
L 176.813049 100.89984 
L 185.998464 101.1372 
L 195.420933 101.2404 
L 204.717858 101.6532 
L 214.051486 101.4984 
L 223.243701 101.48808 
L 232.760841 101.32296 
L 242.225517 101.51904 
L 251.46048 101.7048 
L 260.892125 102.54072 
L 270.186891 103.08768 
L 279.36 103.36632 
" clip-path="url(#pf8882234d1)" style="fill: none; stroke: #bebebe; stroke-width: 0.5; stroke-linecap: round"/>
   </g>
   <g id="line2d_6">
    <path d="M 8.64 85.06896 
L 17.81149 85.7604 
L 27.17232 85.0896 
L 36.686977 85.01736 
L 46.087316 84.9348 
L 55.284498 85.296 
L 64.655583 85.35792 
L 73.971939 86.1732 
L 83.344644 85.92552 
L 92.552296 86.55504 
L 102.018268 87.13296 
L 111.435556 88.10304 
L 120.695455 87.9276 
L 130.05553 88.26816 
L 139.435359 87.78312 
L 148.690616 87.95856 
L 157.889201 88.94928 
L 167.363593 88.14432 
L 176.813049 88.33008 
L 185.998464 88.52616 
L 195.420933 88.86672 
L 204.717858 90.22896 
L 214.051486 89.82648 
L 223.243701 89.87808 
L 232.760841 89.46528 
L 242.225517 90.0432 
L 251.46048 89.96064 
L 260.892125 91.99368 
L 270.186891 93.05664 
L 279.36 93.74808 
" clip-path="url(#pf8882234d1)" style="fill: none; stroke: #4a8dff; stroke-width: 0.6"/>
   </g>
   <g id="line2d_7">
    <path d="M 8.64 92.87088 
L 17.81149 94.2744 
L 27.17232 93.1392 
L 36.686977 92.97408 
L 46.087316 92.9844 
L 55.284498 92.60256 
L 64.655583 92.53032 
L 73.971939 94.54272 
L 83.344644 92.85024 
L 92.552296 94.82136 
L 102.018268 95.75016 
L 111.435556 96.97824 
L 120.695455 97.08144 
L 130.05553 97.23624 
L 139.435359 95.94624 
L 148.690616 96.30744 
L 157.889201 98.08248 
L 167.363593 97.2672 
L 176.813049 96.61704 
L 185.998464 97.23624 
L 195.420933 98.08248 
L 204.717858 99.18672 
L 214.051486 99.03192 
L 223.243701 99.1248 
L 232.760841 98.74296 
L 242.225517 99.09384 
L 251.46048 100.0536 
L 260.892125 101.23008 
L 270.186891 101.99376 
L 279.36 102.08664 
" clip-path="url(#pf8882234d1)" style="fill: none; stroke: #f5841e; stroke-width: 0.6"/>
   </g>
  </g>
 </g>
 <defs>
  <clipPath id="pf8882234d1">
   <rect x="8.64" y="4.8" width="270.72" height="103.2"/>
  </clipPath>
 </defs>
</svg>
