<?xml version="1.0" encoding="utf-8" standalone="no"?>
<!DOCTYPE svg PUBLIC "-//W3C//DTD SVG 1.1//EN"
  "http://www.w3.org/Graphics/SVG/1.1/DTD/svg11.dtd">
<svg xmlns:xlink="http://www.w3.org/1999/xlink" width="288pt" height="120pt" viewBox="0 0 288 120" xmlns="http://www.w3.org/2000/svg" version="1.1">
<desc id="nav-meta">{"window":"1m","count":4,"labels":["24.01","03.02","12.02","22.02"],"tick_utc":["2026-01-24T12:00:00Z","2026-02-03T12:00:00Z","2026-02-12T03:34:13Z","2026-02-22T03:28:03Z"],"w":720,"h":300}</desc>

 <metadata>
  <rdf:RDF xmlns:dc="http://purl.org/dc/elements/1.1/" xmlns:cc="http://creativecommons.org/ns#" xmlns:rdf="http://www.w3.org/1999/02/22-rdf-syntax-ns#">
   <cc:Work>
    <dc:type rdf:resource="http://purl.org/dc/dcmitype/StillImage"/>
    <dc:date>2026-02-22T19:04:37.304845</dc:date>
    <dc:format>image/svg+xml</dc:format>
    <dc:creator>
     <cc:Agent>
      <dc:title>Matplotlib v3.10.8, https://matplotlib.org/</dc:title>
     </cc:Agent>
    </dc:creator>
   </cc:Work>
  </rdf:RDF>
 </metadata>
 <defs>
  <style type="text/css">*{stroke-linejoin: round; stroke-linecap: butt}</style>
 </defs>
 <g id="figure_1">
  <g id="patch_1">
   <path d="M 0 120 
L 288 120 
L 288 0 
L 0 0 
L 0 120 
z
" style="fill: none; opacity: 0"/>
  </g>
  <g id="axes_1">
   <g id="patch_2">
    <path d="M 8.64 108 
L 279.36 108 
L 279.36 4.8 
L 8.64 4.8 
L 8.64 108 
z
" style="fill: none"/>
   </g>
   <g id="matplotlib.axis_1"/>
   <g id="matplotlib.axis_2"/>
   <g id="line2d_1">
    <path d="M 8.64 87.36 
L 279.36 87.36 
" clip-path="url(#p1206af6465)" style="fill: none; stroke: #b2b2b2; stroke-opacity: 0.35; stroke-width: 0.5; stroke-linecap: square"/>
   </g>
   <g id="line2d_2">
    <path d="M 8.64 66.72 
L 279.36 66.72 
" clip-path="url(#p1206af6465)" style="fill: none; stroke: #b2b2b2; stroke-opacity: 0.35; stroke-width: 0.5; stroke-linecap: square"/>
   </g>
   <g id="line2d_3">
    <path d="M 8.64 46.08 
L 279.36 46.08 
" clip-path="url(#p1206af6465)" style="fill: none; stroke: #b2b2b2; stroke-opacity: 0.35; stroke-width: 0.5; stroke-linecap: square"/>
   </g>
   <g id="line2d_4">
    <path d="M 8.64 25.44 
L 279.36 25.44 
" clip-path="url(#p1206af6465)" style="fill: none; stroke: #b2b2b2; stroke-opacity: 0.35; stroke-width: 0.5; stroke-linecap: square"/>
   </g>
   <g id="line2d_5">
    <path d="M 8.64 91.73568 
L 18.091036 91.78728 
L 27.542072 94.0164 
L 36.993108 92.5716 
L 46.444143 91.76664 
L 55.895179 92.33424 
L 65.346215 94.36728 
L 74.797251 94.46016 
L 84.248287 97.71096 
L 93.699323 98.48496 
L 103.150359 97.85544 
L 111.129155 99.10416 
L 118.639775 100.16712 
L 128.085998 102.23112 
L 137.496561 100.54896 
L 147.163636 100.70376 
L 156.536679 100.68312 
L 166.041642 100.95144 
L 175.473098 101.28168 
L 184.890115 101.71512 
L 194.338306 101.84928 
L 203.675689 101.034 
L 212.62803 100.54896 
L 222.685288 101.04432 
L 230.949147 100.81728 
L 241.572374 101.034 
L 251.011924 101.4984 
L 260.40772 101.33328 
L 269.800999 101.1372 
L 279.36 101.06496 
" clip-path="url(#p1206af6465)" style="fill: none; stroke: #bebebe; stroke-width: 0.5; stroke-linecap: round"/>
   </g>
   <g id="line2d_6">
    <path d="M 8.64 75.79128 
L 18.091036 75.82224 
L 27.542072 77.82432 
L 36.993108 76.14216 
L 46.444143 74.75928 
L 55.895179 74.96568 
L 65.346215 77.75208 
L 74.797251 79.48584 
L 84.248287 83.31456 
L 93.699323 85.90488 
L 103.150359 84.79032 
L 111.129155 85.84296 
L 118.639775 88.25784 
L 128.085998 91.41576 
L 137.496561 88.7532 
L 147.163636 88.65 
L 156.536679 88.55712 
L 166.041642 88.96992 
L 175.473098 89.7336 
L 184.890115 90.456 
L 194.338306 90.56952 
L 203.675689 89.15568 
L 212.62803 88.9596 
L 222.685288 90.6624 
L 230.949147 89.94 
L 241.572374 90.00192 
L 251.011924 90.3528 
L 260.40772 90.62112 
L 269.800999 90.5076 
L 279.36 90.3528 
" clip-path="url(#p1206af6465)" style="fill: none; stroke: #4a8dff; stroke-width: 0.6"/>
   </g>
   <g id="line2d_7">
    <path d="M 8.64 84.06792 
L 18.091036 84.3156 
L 27.542072 87.02976 
L 36.993108 85.21344 
L 46.444143 84.28464 
L 55.895179 84.32592 
L 65.346215 89.08344 
L 74.797251 89.5272 
L 84.248287 95.14128 
L 93.699323 96.98856 
L 103.150359 95.08968 
L 111.129155 97.71096 
L 118.639775 99.80592 
L 128.085998 101.79768 
L 137.496561 100.03296 
L 147.163636 100.518 
L 156.536679 99.98136 
L 166.041642 100.49736 
L 175.473098 100.78632 
L 184.890115 101.07528 
L 194.338306 101.26104 
L 203.675689 100.63152 
L 212.62803 100.38384 
L 222.685288 100.84824 
L 230.949147 100.65216 
L 241.572374 101.034 
L 251.011924 101.19912 
L 260.40772 101.10624 
L 269.800999 100.97208 
L 279.36 100.91016 
" clip-path="url(#p1206af6465)" style="fill: none; stroke: #f5841e; stroke-width: 0.6"/>
   </g>
  </g>
 </g>
 <defs>
  <clipPath id="p1206af6465">
   <rect x="8.64" y="4.8" width="270.72" height="103.2"/>
  </clipPath>
 </defs>
</svg>
