<?xml version="1.0" encoding="utf-8" standalone="no"?>
<!DOCTYPE svg PUBLIC "-//W3C//DTD SVG 1.1//EN"
  "http://www.w3.org/Graphics/SVG/1.1/DTD/svg11.dtd">
<svg xmlns:xlink="http://www.w3.org/1999/xlink" width="288pt" height="120pt" viewBox="0 0 288 120" xmlns="http://www.w3.org/2000/svg" version="1.1">
<desc id="nav-meta">{"window":"6m","count":4,"labels":["07.12","05.02","05.04","04.06"],"tick_utc":["2025-12-07T12:00:00Z","2026-02-05T03:20:02Z","2026-04-05T03:46:34Z","2026-06-04T05:26:51Z"],"w":720,"h":300}</desc>

 <metadata>
  <rdf:RDF xmlns:dc="http://purl.org/dc/elements/1.1/" xmlns:cc="http://creativecommons.org/ns#" xmlns:rdf="http://www.w3.org/1999/02/22-rdf-syntax-ns#">
   <cc:Work>
    <dc:type rdf:resource="http://purl.org/dc/dcmitype/StillImage"/>
    <dc:date>2026-06-04T20:52:16.604317</dc:date>
    <dc:format>image/svg+xml</dc:format>
    <dc:creator>
     <cc:Agent>
      <dc:title>Matplotlib v3.10.9, https://matplotlib.org/</dc:title>
     </cc:Agent>
    </dc:creator>
   </cc:Work>
  </rdf:RDF>
 </metadata>
 <defs>
  <style type="text/css">*{stroke-linejoin: round; stroke-linecap: butt}</style>
 </defs>
 <g id="figure_1">
  <g id="patch_1">
   <path d="M 0 120 
L 288 120 
L 288 0 
L 0 0 
L 0 120 
z
" style="fill: none; opacity: 0"/>
  </g>
  <g id="axes_1">
   <g id="patch_2">
    <path d="M 8.64 108 
L 279.36 108 
L 279.36 4.8 
L 8.64 4.8 
L 8.64 108 
z
" style="fill: none"/>
   </g>
   <g id="matplotlib.axis_1"/>
   <g id="matplotlib.axis_2"/>
   <g id="line2d_1">
    <path d="M 8.64 87.36 
L 279.36 87.36 
" clip-path="url(#p7bc70ff542)" style="fill: none; stroke: #b2b2b2; stroke-opacity: 0.35; stroke-width: 0.5; stroke-linecap: square"/>
   </g>
   <g id="line2d_2">
    <path d="M 8.64 66.72 
L 279.36 66.72 
" clip-path="url(#p7bc70ff542)" style="fill: none; stroke: #b2b2b2; stroke-opacity: 0.35; stroke-width: 0.5; stroke-linecap: square"/>
   </g>
   <g id="line2d_3">
    <path d="M 8.64 46.08 
L 279.36 46.08 
" clip-path="url(#p7bc70ff542)" style="fill: none; stroke: #b2b2b2; stroke-opacity: 0.35; stroke-width: 0.5; stroke-linecap: square"/>
   </g>
   <g id="line2d_4">
    <path d="M 8.64 25.44 
L 279.36 25.44 
" clip-path="url(#p7bc70ff542)" style="fill: none; stroke: #b2b2b2; stroke-opacity: 0.35; stroke-width: 0.5; stroke-linecap: square"/>
   </g>
   <g id="line2d_5">
    <path d="M 8.64 90.38376 
L 10.154713 90.53856 
L 11.669425 90.08448 
L 13.184138 88.79448 
L 14.69885 89.20728 
L 16.213563 89.22792 
L 17.728275 90.31152 
L 19.242988 90.10512 
L 20.7577 91.09584 
L 22.272413 91.61184 
L 23.787126 91.31256 
L 25.301838 92.87088 
L 26.816551 93.8616 
L 28.331263 92.02464 
L 29.845976 92.13816 
L 31.360688 92.07624 
L 32.875401 92.14848 
L 34.390114 92.64384 
L 35.904826 93.01536 
L 37.419539 93.69648 
L 40.448964 92.44776 
L 41.963676 92.30328 
L 43.478389 92.87088 
L 44.993101 92.38584 
L 46.507814 92.47872 
L 48.022527 91.88016 
L 49.537239 90.42504 
L 51.051952 90.08448 
L 52.566664 89.92968 
L 54.081377 88.76352 
L 55.596089 87.94824 
L 57.110802 89.2692 
L 58.625514 88.72224 
L 60.140227 89.39304 
L 61.65494 89.40336 
L 63.169652 88.41264 
L 64.684365 88.4952 
L 66.199077 86.86464 
L 67.71379 86.42088 
L 69.228502 87.62832 
L 70.743215 86.93688 
L 72.257927 87.23616 
L 75.287353 90.0432 
L 76.802065 92.12784 
L 78.316778 91.16808 
L 81.346203 91.73568 
L 82.860915 91.78728 
L 84.375628 94.0164 
L 85.890341 92.5716 
L 87.405053 91.76664 
L 88.919766 92.33424 
L 90.434478 94.36728 
L 91.949191 94.46016 
L 93.463903 97.71096 
L 94.978616 98.48496 
L 96.493328 97.85544 
L 98.975809 100.16712 
L 100.48975 102.23112 
L 101.997976 100.54896 
L 103.547313 100.70376 
L 105.049526 100.68312 
L 108.084456 101.28168 
L 109.593716 101.71512 
L 111.107973 101.84928 
L 112.60447 101.034 
L 114.039257 100.54896 
L 115.651129 101.04432 
L 116.975573 100.81728 
L 118.678152 101.034 
L 120.191024 101.4984 
L 124.734355 101.06496 
L 126.253626 102.09696 
L 127.640377 102.05568 
L 129.277599 101.4984 
L 130.785562 100.60056 
L 132.297399 100.80696 
L 133.794265 101.45712 
L 135.343391 100.55928 
L 136.842466 101.10624 
L 139.86693 100.74504 
L 141.384903 100.21872 
L 142.898897 100.53864 
L 144.401986 101.07528 
L 145.931408 101.38488 
L 147.450661 101.26104 
L 148.955643 100.78632 
L 151.990433 100.99272 
L 153.502218 100.38384 
L 156.558606 100.60056 
L 158.077597 99.76464 
L 159.565802 99.49632 
L 161.092067 99.40344 
L 162.607201 100.09488 
L 164.107169 100.3632 
L 165.613011 100.19808 
L 168.668646 100.79664 
L 170.169333 100.26 
L 171.79686 99.83688 
L 173.217184 100.13616 
L 176.234039 101.38488 
L 182.32129 101.28168 
L 183.816052 101.8596 
L 185.3325 101.88024 
L 186.834239 101.72544 
L 188.37176 101.68416 
L 189.890382 101.47776 
L 191.39526 101.78736 
L 192.912427 101.09592 
L 194.421862 101.46744 
L 195.950512 101.3436 
L 197.442066 101.05464 
L 198.983952 101.3952 
L 200.506431 101.47776 
L 202.011501 100.86888 
L 203.525057 101.26104 
L 205.046326 100.99272 
L 206.557953 100.61088 
L 208.055958 100.44576 
L 209.590674 100.94112 
L 211.109138 101.09592 
L 212.617206 101.00304 
L 214.127221 100.69344 
L 215.648069 100.9308 
L 220.201709 100.8792 
L 221.732743 100.64184 
L 223.250629 101.1888 
L 224.761204 101.09592 
L 226.278459 101.37456 
L 227.809721 101.21976 
L 230.831239 101.23008 
L 232.345426 100.92048 
L 233.826776 101.06496 
L 235.368172 100.70376 
L 236.883287 100.55928 
L 238.37279 100.53864 
L 239.893042 99.60984 
L 241.438277 99.72336 
L 244.458621 99.25896 
L 245.980539 99.32088 
L 247.493568 100.22904 
L 249.015749 100.01232 
L 252.048453 100.75536 
L 253.577874 101.02368 
L 255.081735 101.02368 
L 256.601865 101.17848 
L 258.125203 100.7244 
L 259.628309 100.75536 
L 261.122212 101.11656 
L 262.660908 100.91016 
L 264.195553 100.89984 
L 265.687317 101.1372 
L 267.21758 101.2404 
L 268.727454 101.6532 
L 270.243289 101.4984 
L 271.736157 101.48808 
L 273.281795 101.32296 
L 276.318724 101.7048 
L 277.850477 102.54072 
L 279.36 103.08768 
L 279.36 103.08768 
" clip-path="url(#p7bc70ff542)" style="fill: none; stroke: #bebebe; stroke-width: 0.5; stroke-linecap: round"/>
   </g>
   <g id="line2d_6">
    <path d="M 8.64 74.48064 
L 10.154713 74.28456 
L 11.669425 73.21128 
L 13.184138 70.2804 
L 14.69885 70.2288 
L 16.213563 71.56008 
L 17.728275 73.79952 
L 19.242988 73.35576 
L 20.7577 74.0988 
L 22.272413 75.5952 
L 23.787126 75.5952 
L 25.301838 77.61792 
L 26.816551 77.63856 
L 28.331263 75.40944 
L 29.845976 75.40944 
L 31.360688 75.04824 
L 32.875401 74.98632 
L 34.390114 75.58488 
L 35.904826 75.87384 
L 37.419539 76.49304 
L 40.448964 75.82224 
L 41.963676 75.84288 
L 43.478389 76.03896 
L 44.993101 75.51264 
L 46.507814 75.56424 
L 48.022527 75.05856 
L 49.537239 73.26288 
L 51.051952 73.20096 
L 52.566664 73.00488 
L 54.081377 71.68392 
L 55.596089 70.6932 
L 57.110802 72.62304 
L 58.625514 73.52088 
L 60.140227 73.83048 
L 61.65494 73.8408 
L 63.169652 73.29384 
L 64.684365 73.72728 
L 66.199077 70.32168 
L 67.71379 69.77472 
L 69.228502 70.34232 
L 70.743215 70.67256 
L 72.257927 70.51776 
L 73.77264 70.848 
L 75.287353 72.31344 
L 76.802065 76.01832 
L 78.316778 75.41976 
L 79.83149 75.83256 
L 82.860915 75.82224 
L 84.375628 77.82432 
L 85.890341 76.14216 
L 87.405053 74.75928 
L 88.919766 74.96568 
L 90.434478 77.75208 
L 91.949191 79.48584 
L 93.463903 83.31456 
L 94.978616 85.90488 
L 96.493328 84.79032 
L 97.772086 85.84296 
L 100.48975 91.41576 
L 101.997976 88.7532 
L 105.049526 88.55712 
L 106.572881 88.96992 
L 109.593716 90.456 
L 111.107973 90.56952 
L 112.60447 89.15568 
L 114.039257 88.9596 
L 115.651129 90.6624 
L 116.975573 89.94 
L 118.678152 90.00192 
L 121.696883 90.62112 
L 124.734355 90.3528 
L 126.253626 92.004 
L 127.640377 92.13816 
L 129.277599 91.25064 
L 130.785562 89.166 
L 132.297399 89.56848 
L 133.794265 90.93072 
L 135.343391 89.41368 
L 136.842466 90.37344 
L 138.360702 89.79552 
L 139.86693 90.23928 
L 141.384903 88.0824 
L 142.898897 88.7532 
L 144.401986 90.16704 
L 145.931408 90.67272 
L 147.450661 90.18768 
L 148.955643 89.2692 
L 150.46976 89.54784 
L 151.990433 89.49624 
L 153.502218 88.31976 
L 155.014914 88.45392 
L 156.558606 88.46424 
L 158.077597 86.38992 
L 159.565802 84.80064 
L 161.092067 84.8316 
L 162.607201 86.586 
L 164.107169 87.74184 
L 165.613011 87.618 
L 167.150374 88.19592 
L 168.668646 89.08344 
L 170.169333 87.89664 
L 171.79686 87.3084 
L 173.217184 87.65928 
L 174.733807 88.96992 
L 176.234039 90.07416 
L 179.288429 89.3724 
L 180.793586 89.00088 
L 182.32129 88.42296 
L 185.3325 89.10408 
L 186.834239 89.14536 
L 188.37176 89.07312 
L 189.890382 87.9792 
L 191.39526 88.29912 
L 192.912427 86.38992 
L 194.421862 87.24648 
L 195.950512 87.1536 
L 197.442066 86.21448 
L 200.506431 87.01944 
L 202.011501 84.44976 
L 203.525057 85.05864 
L 205.046326 84.58392 
L 206.557953 85.04832 
L 208.055958 83.71704 
L 209.590674 84.86256 
L 211.109138 85.6572 
L 212.617206 85.27536 
L 214.127221 84.49104 
L 217.166796 85.32696 
L 218.663434 85.17216 
L 220.201709 85.31664 
L 221.732743 84.11952 
L 223.250629 85.66752 
L 224.761204 85.26504 
L 226.278459 86.26608 
L 229.285777 85.38888 
L 230.831239 85.3992 
L 232.345426 84.09888 
L 235.368172 84.34656 
L 238.37279 85.7604 
L 239.893042 85.0896 
L 242.964946 84.9348 
L 244.458621 85.296 
L 245.980539 85.35792 
L 247.493568 86.1732 
L 249.015749 85.92552 
L 252.048453 87.13296 
L 253.577874 88.10304 
L 255.081735 87.9276 
L 256.601865 88.26816 
L 258.125203 87.78312 
L 259.628309 87.95856 
L 261.122212 88.94928 
L 262.660908 88.14432 
L 265.687317 88.52616 
L 267.21758 88.86672 
L 268.727454 90.22896 
L 270.243289 89.82648 
L 271.736157 89.87808 
L 273.281795 89.46528 
L 274.818913 90.0432 
L 276.318724 89.96064 
L 277.850477 91.99368 
L 279.36 93.05664 
L 279.36 93.05664 
" clip-path="url(#p7bc70ff542)" style="fill: none; stroke: #4a8dff; stroke-width: 0.6"/>
   </g>
   <g id="line2d_7">
    <path d="M 8.64 84.24336 
L 10.154713 83.29392 
L 11.669425 82.8192 
L 13.184138 80.64168 
L 14.69885 81.38472 
L 16.213563 80.87904 
L 17.728275 83.13912 
L 19.242988 83.19072 
L 20.7577 85.296 
L 22.272413 87.17424 
L 23.787126 85.71912 
L 25.301838 87.53544 
L 26.816551 88.17528 
L 28.331263 85.41984 
L 31.360688 84.9348 
L 32.875401 85.01736 
L 34.390114 86.14224 
L 35.904826 85.90488 
L 37.419539 86.328 
L 38.934251 86.24544 
L 40.448964 85.72944 
L 41.963676 85.7088 
L 43.478389 86.40024 
L 44.993101 85.09992 
L 46.507814 86.02872 
L 49.537239 83.53128 
L 52.566664 82.03488 
L 54.081377 79.39296 
L 55.596089 79.66128 
L 57.110802 82.15872 
L 58.625514 82.43736 
L 60.140227 82.93272 
L 61.65494 83.00496 
L 64.684365 82.28256 
L 66.199077 78.01008 
L 67.71379 76.19376 
L 69.228502 77.66952 
L 70.743215 77.74176 
L 72.257927 78.1752 
L 73.77264 79.5684 
L 75.287353 80.8068 
L 76.802065 85.20312 
L 78.316778 84.12984 
L 79.83149 84.03696 
L 81.346203 84.06792 
L 82.860915 84.3156 
L 84.375628 87.02976 
L 85.890341 85.21344 
L 87.405053 84.28464 
L 88.919766 84.32592 
L 90.434478 89.08344 
L 91.949191 89.5272 
L 93.463903 95.14128 
L 94.978616 96.98856 
L 96.493328 95.08968 
L 97.772086 97.71096 
L 98.975809 99.80592 
L 100.48975 101.79768 
L 101.997976 100.03296 
L 103.547313 100.518 
L 105.049526 99.98136 
L 106.572881 100.49736 
L 111.107973 101.26104 
L 112.60447 100.63152 
L 114.039257 100.38384 
L 115.651129 100.84824 
L 116.975573 100.65216 
L 118.678152 101.034 
L 120.191024 101.19912 
L 124.734355 100.91016 
L 126.253626 101.7564 
L 127.640377 101.84928 
L 129.277599 101.56032 
L 130.785562 100.85856 
L 133.794265 101.4468 
L 135.343391 101.02368 
L 136.842466 101.30232 
L 138.360702 100.81728 
L 139.86693 100.79664 
L 141.384903 99.3312 
L 142.898897 99.92976 
L 144.401986 100.78632 
L 145.931408 101.17848 
L 147.450661 101.1372 
L 148.955643 100.21872 
L 151.990433 100.4664 
L 153.502218 99.88848 
L 155.014914 99.94008 
L 156.558606 99.81624 
L 158.077597 98.93904 
L 159.565802 98.3508 
L 161.092067 98.52624 
L 162.607201 99.78528 
L 164.107169 100.12584 
L 165.613011 100.03296 
L 168.668646 100.83792 
L 170.169333 100.11552 
L 171.79686 99.87816 
L 173.217184 100.002 
L 174.733807 100.64184 
L 176.234039 101.41584 
L 177.769386 101.21976 
L 180.793586 101.00304 
L 182.32129 100.86888 
L 183.816052 101.21976 
L 185.3325 101.28168 
L 188.37176 101.14752 
L 189.890382 100.55928 
L 191.39526 100.65216 
L 192.912427 99.80592 
L 194.421862 99.96072 
L 195.950512 99.6408 
L 197.442066 99.1764 
L 198.983952 99.70272 
L 200.506431 99.94008 
L 202.011501 98.57784 
L 203.525057 98.65008 
L 205.046326 98.38176 
L 206.557953 98.48496 
L 208.055958 96.70992 
L 209.590674 98.05152 
L 211.109138 98.48496 
L 212.617206 97.96896 
L 214.127221 96.32808 
L 217.166796 96.16296 
L 218.663434 96.1836 
L 220.201709 96.50352 
L 221.732743 94.76976 
L 223.250629 97.19496 
L 224.761204 96.9576 
L 226.278459 97.9896 
L 227.809721 96.89568 
L 229.285777 95.45088 
L 230.831239 95.67792 
L 232.345426 93.43848 
L 235.368172 92.25168 
L 236.883287 92.87088 
L 238.37279 94.2744 
L 239.893042 93.1392 
L 241.438277 92.97408 
L 242.964946 92.9844 
L 244.458621 92.60256 
L 245.980539 92.53032 
L 247.493568 94.54272 
L 249.015749 92.85024 
L 250.511125 94.82136 
L 252.048453 95.75016 
L 253.577874 96.97824 
L 256.601865 97.23624 
L 258.125203 95.94624 
L 259.628309 96.30744 
L 261.122212 98.08248 
L 262.660908 97.2672 
L 264.195553 96.61704 
L 265.687317 97.23624 
L 267.21758 98.08248 
L 268.727454 99.18672 
L 270.243289 99.03192 
L 271.736157 99.1248 
L 273.281795 98.74296 
L 274.818913 99.09384 
L 276.318724 100.0536 
L 277.850477 101.23008 
L 279.36 101.99376 
L 279.36 101.99376 
" clip-path="url(#p7bc70ff542)" style="fill: none; stroke: #f5841e; stroke-width: 0.6"/>
   </g>
  </g>
 </g>
 <defs>
  <clipPath id="p7bc70ff542">
   <rect x="8.64" y="4.8" width="270.72" height="103.2"/>
  </clipPath>
 </defs>
</svg>
