<?xml version="1.0" encoding="utf-8" standalone="no"?>
<!DOCTYPE svg PUBLIC "-//W3C//DTD SVG 1.1//EN"
  "http://www.w3.org/Graphics/SVG/1.1/DTD/svg11.dtd">
<svg xmlns:xlink="http://www.w3.org/1999/xlink" width="288pt" height="120pt" viewBox="0 0 288 120" xmlns="http://www.w3.org/2000/svg" version="1.1">
<desc id="nav-meta">{"window":"3m","count":4,"labels":["26.01","25.02","26.03","25.04"],"tick_utc":["2026-01-26T12:00:00Z","2026-02-25T03:27:12Z","2026-03-26T03:39:29Z","2026-04-25T03:44:07Z"],"w":720,"h":300}</desc>

 <metadata>
  <rdf:RDF xmlns:dc="http://purl.org/dc/elements/1.1/" xmlns:cc="http://creativecommons.org/ns#" xmlns:rdf="http://www.w3.org/1999/02/22-rdf-syntax-ns#">
   <cc:Work>
    <dc:type rdf:resource="http://purl.org/dc/dcmitype/StillImage"/>
    <dc:date>2026-04-25T13:50:15.646023</dc:date>
    <dc:format>image/svg+xml</dc:format>
    <dc:creator>
     <cc:Agent>
      <dc:title>Matplotlib v3.10.9, https://matplotlib.org/</dc:title>
     </cc:Agent>
    </dc:creator>
   </cc:Work>
  </rdf:RDF>
 </metadata>
 <defs>
  <style type="text/css">*{stroke-linejoin: round; stroke-linecap: butt}</style>
 </defs>
 <g id="figure_1">
  <g id="patch_1">
   <path d="M 0 120 
L 288 120 
L 288 0 
L 0 0 
L 0 120 
z
" style="fill: none; opacity: 0"/>
  </g>
  <g id="axes_1">
   <g id="patch_2">
    <path d="M 8.64 108 
L 279.36 108 
L 279.36 4.8 
L 8.64 4.8 
L 8.64 108 
z
" style="fill: none"/>
   </g>
   <g id="matplotlib.axis_1"/>
   <g id="matplotlib.axis_2"/>
   <g id="line2d_1">
    <path d="M 8.64 87.36 
L 279.36 87.36 
" clip-path="url(#p93b9971487)" style="fill: none; stroke: #b2b2b2; stroke-opacity: 0.35; stroke-width: 0.5; stroke-linecap: square"/>
   </g>
   <g id="line2d_2">
    <path d="M 8.64 66.72 
L 279.36 66.72 
" clip-path="url(#p93b9971487)" style="fill: none; stroke: #b2b2b2; stroke-opacity: 0.35; stroke-width: 0.5; stroke-linecap: square"/>
   </g>
   <g id="line2d_3">
    <path d="M 8.64 46.08 
L 279.36 46.08 
" clip-path="url(#p93b9971487)" style="fill: none; stroke: #b2b2b2; stroke-opacity: 0.35; stroke-width: 0.5; stroke-linecap: square"/>
   </g>
   <g id="line2d_4">
    <path d="M 8.64 25.44 
L 279.36 25.44 
" clip-path="url(#p93b9971487)" style="fill: none; stroke: #b2b2b2; stroke-opacity: 0.35; stroke-width: 0.5; stroke-linecap: square"/>
   </g>
   <g id="line2d_5">
    <path d="M 8.64 94.0164 
L 11.693613 92.5716 
L 14.747226 91.76664 
L 17.800839 92.33424 
L 20.854452 94.36728 
L 23.908065 94.46016 
L 26.961678 97.71096 
L 30.015291 98.48496 
L 33.068904 97.85544 
L 35.646839 99.10416 
L 38.073507 100.16712 
L 41.125564 102.23112 
L 44.166101 100.54896 
L 47.289516 100.70376 
L 50.317929 100.68312 
L 53.388966 100.95144 
L 56.436253 101.28168 
L 59.478874 101.71512 
L 62.531568 101.84928 
L 65.54846 101.034 
L 68.440945 100.54896 
L 71.690428 101.04432 
L 74.360466 100.81728 
L 77.792812 101.034 
L 80.842714 101.4984 
L 83.878478 101.33328 
L 86.91343 101.1372 
L 90.001927 101.06496 
L 93.064729 102.09696 
L 95.860375 102.05568 
L 99.160963 101.4984 
L 102.200969 100.60056 
L 105.248786 100.80696 
L 108.26642 101.45712 
L 111.389411 100.55928 
L 114.411498 101.10624 
L 117.472215 100.8792 
L 120.508722 100.74504 
L 123.568908 100.21872 
L 126.621072 100.53864 
L 129.651253 101.07528 
L 132.734519 101.38488 
L 135.797285 101.26104 
L 138.831283 100.78632 
L 141.883694 100.91016 
L 144.949324 100.99272 
L 147.997034 100.38384 
L 151.046583 100.50768 
L 154.158617 100.60056 
L 157.220854 99.76464 
L 160.221029 99.49632 
L 163.297933 99.40344 
L 166.352394 100.09488 
L 169.376283 100.3632 
L 172.412013 100.19808 
L 175.511289 100.47672 
L 178.572076 100.79664 
L 181.597415 100.26 
L 184.878459 99.83688 
L 187.741786 100.13616 
L 190.799252 100.80696 
L 193.823671 101.38488 
L 196.918883 101.3436 
L 199.981225 101.292 
L 203.015576 101.28168 
L 206.095378 101.28168 
L 209.108771 101.8596 
L 212.165883 101.88024 
L 215.193343 101.72544 
L 218.292936 101.68416 
L 221.354431 101.47776 
L 224.388216 101.78736 
L 227.446777 101.09592 
L 230.489752 101.46744 
L 233.571463 101.3436 
L 236.578388 101.05464 
L 239.686782 101.3952 
L 242.756052 101.47776 
L 245.790226 100.86888 
L 248.841507 101.26104 
L 251.908338 100.99272 
L 254.95573 100.61088 
L 257.975662 100.44576 
L 261.069601 100.94112 
L 264.130777 101.09592 
L 267.170995 101.00304 
L 270.215136 100.69344 
L 273.281119 100.9308 
L 276.342825 100.92048 
L 279.36 100.81728 
" clip-path="url(#p93b9971487)" style="fill: none; stroke: #bebebe; stroke-width: 0.5; stroke-linecap: round"/>
   </g>
   <g id="line2d_6">
    <path d="M 8.64 77.82432 
L 11.693613 76.14216 
L 14.747226 74.75928 
L 17.800839 74.96568 
L 20.854452 77.75208 
L 23.908065 79.48584 
L 26.961678 83.31456 
L 30.015291 85.90488 
L 33.068904 84.79032 
L 35.646839 85.84296 
L 38.073507 88.25784 
L 41.125564 91.41576 
L 44.166101 88.7532 
L 47.289516 88.65 
L 50.317929 88.55712 
L 53.388966 88.96992 
L 56.436253 89.7336 
L 59.478874 90.456 
L 62.531568 90.56952 
L 65.54846 89.15568 
L 68.440945 88.9596 
L 71.690428 90.6624 
L 74.360466 89.94 
L 77.792812 90.00192 
L 80.842714 90.3528 
L 83.878478 90.62112 
L 86.91343 90.5076 
L 90.001927 90.3528 
L 93.064729 92.004 
L 95.860375 92.13816 
L 99.160963 91.25064 
L 102.200969 89.166 
L 105.248786 89.56848 
L 108.26642 90.93072 
L 111.389411 89.41368 
L 114.411498 90.37344 
L 117.472215 89.79552 
L 120.508722 90.23928 
L 123.568908 88.0824 
L 126.621072 88.7532 
L 129.651253 90.16704 
L 132.734519 90.67272 
L 135.797285 90.18768 
L 138.831283 89.2692 
L 141.883694 89.54784 
L 144.949324 89.49624 
L 147.997034 88.31976 
L 151.046583 88.45392 
L 154.158617 88.46424 
L 157.220854 86.38992 
L 160.221029 84.80064 
L 163.297933 84.8316 
L 166.352394 86.586 
L 169.376283 87.74184 
L 172.412013 87.618 
L 175.511289 88.19592 
L 178.572076 89.08344 
L 181.597415 87.89664 
L 184.878459 87.3084 
L 187.741786 87.65928 
L 190.799252 88.96992 
L 193.823671 90.07416 
L 196.918883 89.76456 
L 199.981225 89.3724 
L 203.015576 89.00088 
L 206.095378 88.42296 
L 209.108771 88.81512 
L 212.165883 89.10408 
L 215.193343 89.14536 
L 218.292936 89.07312 
L 221.354431 87.9792 
L 224.388216 88.29912 
L 227.446777 86.38992 
L 230.489752 87.24648 
L 233.571463 87.1536 
L 236.578388 86.21448 
L 239.686782 86.66856 
L 242.756052 87.01944 
L 245.790226 84.44976 
L 248.841507 85.05864 
L 251.908338 84.58392 
L 254.95573 85.04832 
L 257.975662 83.71704 
L 261.069601 84.86256 
L 264.130777 85.6572 
L 267.170995 85.27536 
L 270.215136 84.49104 
L 273.281119 84.86256 
L 276.342825 85.32696 
L 279.36 85.17216 
" clip-path="url(#p93b9971487)" style="fill: none; stroke: #4a8dff; stroke-width: 0.6"/>
   </g>
   <g id="line2d_7">
    <path d="M 8.64 87.02976 
L 11.693613 85.21344 
L 14.747226 84.28464 
L 17.800839 84.32592 
L 20.854452 89.08344 
L 23.908065 89.5272 
L 26.961678 95.14128 
L 30.015291 96.98856 
L 33.068904 95.08968 
L 35.646839 97.71096 
L 38.073507 99.80592 
L 41.125564 101.79768 
L 44.166101 100.03296 
L 47.289516 100.518 
L 50.317929 99.98136 
L 53.388966 100.49736 
L 56.436253 100.78632 
L 59.478874 101.07528 
L 62.531568 101.26104 
L 65.54846 100.63152 
L 68.440945 100.38384 
L 71.690428 100.84824 
L 74.360466 100.65216 
L 77.792812 101.034 
L 80.842714 101.19912 
L 83.878478 101.10624 
L 86.91343 100.97208 
L 90.001927 100.91016 
L 93.064729 101.7564 
L 95.860375 101.84928 
L 99.160963 101.56032 
L 102.200969 100.85856 
L 105.248786 101.12688 
L 108.26642 101.4468 
L 111.389411 101.02368 
L 114.411498 101.30232 
L 117.472215 100.81728 
L 120.508722 100.79664 
L 123.568908 99.3312 
L 126.621072 99.92976 
L 129.651253 100.78632 
L 132.734519 101.17848 
L 135.797285 101.1372 
L 138.831283 100.21872 
L 141.883694 100.37352 
L 144.949324 100.4664 
L 147.997034 99.88848 
L 151.046583 99.94008 
L 154.158617 99.81624 
L 157.220854 98.93904 
L 160.221029 98.3508 
L 163.297933 98.52624 
L 166.352394 99.78528 
L 169.376283 100.12584 
L 172.412013 100.03296 
L 175.511289 100.45608 
L 178.572076 100.83792 
L 181.597415 100.11552 
L 184.878459 99.87816 
L 187.741786 100.002 
L 190.799252 100.64184 
L 193.823671 101.41584 
L 196.918883 101.21976 
L 199.981225 101.14752 
L 203.015576 101.00304 
L 206.095378 100.86888 
L 209.108771 101.21976 
L 212.165883 101.28168 
L 215.193343 101.20944 
L 218.292936 101.14752 
L 221.354431 100.55928 
L 224.388216 100.65216 
L 227.446777 99.80592 
L 230.489752 99.96072 
L 233.571463 99.6408 
L 236.578388 99.1764 
L 239.686782 99.70272 
L 242.756052 99.94008 
L 245.790226 98.57784 
L 248.841507 98.65008 
L 251.908338 98.38176 
L 254.95573 98.48496 
L 257.975662 96.70992 
L 261.069601 98.05152 
L 264.130777 98.48496 
L 267.170995 97.96896 
L 270.215136 96.32808 
L 273.281119 96.20424 
L 276.342825 96.16296 
L 279.36 96.1836 
" clip-path="url(#p93b9971487)" style="fill: none; stroke: #f5841e; stroke-width: 0.6"/>
   </g>
  </g>
 </g>
 <defs>
  <clipPath id="p93b9971487">
   <rect x="8.64" y="4.8" width="270.72" height="103.2"/>
  </clipPath>
 </defs>
</svg>
