<?xml version="1.0" encoding="utf-8" standalone="no"?>
<!DOCTYPE svg PUBLIC "-//W3C//DTD SVG 1.1//EN"
  "http://www.w3.org/Graphics/SVG/1.1/DTD/svg11.dtd">
<svg xmlns:xlink="http://www.w3.org/1999/xlink" width="288pt" height="120pt" viewBox="0 0 288 120" xmlns="http://www.w3.org/2000/svg" version="1.1">
<desc id="nav-meta">{"window":"2w","count":4,"labels":["25.02","01.03","06.03","10.03"],"tick_utc":["2026-02-25T03:27:12Z","2026-03-01T03:33:48Z","2026-03-06T03:16:38Z","2026-03-10T03:14:38Z"],"w":720,"h":300}</desc>

 <metadata>
  <rdf:RDF xmlns:dc="http://purl.org/dc/elements/1.1/" xmlns:cc="http://creativecommons.org/ns#" xmlns:rdf="http://www.w3.org/1999/02/22-rdf-syntax-ns#">
   <cc:Work>
    <dc:type rdf:resource="http://purl.org/dc/dcmitype/StillImage"/>
    <dc:date>2026-03-10T03:14:39.819986</dc:date>
    <dc:format>image/svg+xml</dc:format>
    <dc:creator>
     <cc:Agent>
      <dc:title>Matplotlib v3.10.8, https://matplotlib.org/</dc:title>
     </cc:Agent>
    </dc:creator>
   </cc:Work>
  </rdf:RDF>
 </metadata>
 <defs>
  <style type="text/css">*{stroke-linejoin: round; stroke-linecap: butt}</style>
 </defs>
 <g id="figure_1">
  <g id="patch_1">
   <path d="M 0 120 
L 288 120 
L 288 0 
L 0 0 
L 0 120 
z
" style="fill: none; opacity: 0"/>
  </g>
  <g id="axes_1">
   <g id="patch_2">
    <path d="M 8.64 108 
L 279.36 108 
L 279.36 4.8 
L 8.64 4.8 
L 8.64 108 
z
" style="fill: none"/>
   </g>
   <g id="matplotlib.axis_1"/>
   <g id="matplotlib.axis_2"/>
   <g id="line2d_1">
    <path d="M 8.64 87.36 
L 279.36 87.36 
" clip-path="url(#pc4112956a5)" style="fill: none; stroke: #b2b2b2; stroke-opacity: 0.35; stroke-width: 0.5; stroke-linecap: square"/>
   </g>
   <g id="line2d_2">
    <path d="M 8.64 66.72 
L 279.36 66.72 
" clip-path="url(#pc4112956a5)" style="fill: none; stroke: #b2b2b2; stroke-opacity: 0.35; stroke-width: 0.5; stroke-linecap: square"/>
   </g>
   <g id="line2d_3">
    <path d="M 8.64 46.08 
L 279.36 46.08 
" clip-path="url(#pc4112956a5)" style="fill: none; stroke: #b2b2b2; stroke-opacity: 0.35; stroke-width: 0.5; stroke-linecap: square"/>
   </g>
   <g id="line2d_4">
    <path d="M 8.64 25.44 
L 279.36 25.44 
" clip-path="url(#pc4112956a5)" style="fill: none; stroke: #b2b2b2; stroke-opacity: 0.35; stroke-width: 0.5; stroke-linecap: square"/>
   </g>
   <g id="line2d_5">
    <path d="M 8.64 101.4984 
L 29.385747 100.60056 
L 50.184797 100.80696 
L 70.777872 101.45712 
L 92.089927 100.55928 
L 112.713392 101.10624 
L 133.600475 100.8792 
L 154.322345 100.74504 
L 175.20581 100.21872 
L 196.034525 100.53864 
L 216.713222 101.07528 
L 237.754183 101.38488 
L 258.655255 101.26104 
L 279.36 100.78632 
" clip-path="url(#pc4112956a5)" style="fill: none; stroke: #bebebe; stroke-width: 0.5; stroke-linecap: round"/>
   </g>
   <g id="line2d_6">
    <path d="M 8.64 91.25064 
L 29.385747 89.166 
L 50.184797 89.56848 
L 70.777872 90.93072 
L 92.089927 89.41368 
L 112.713392 90.37344 
L 133.600475 89.79552 
L 154.322345 90.23928 
L 175.20581 88.0824 
L 196.034525 88.7532 
L 216.713222 90.16704 
L 237.754183 90.67272 
L 258.655255 90.18768 
L 279.36 89.2692 
" clip-path="url(#pc4112956a5)" style="fill: none; stroke: #4a8dff; stroke-width: 0.6"/>
   </g>
   <g id="line2d_7">
    <path d="M 8.64 101.56032 
L 29.385747 100.85856 
L 50.184797 101.12688 
L 70.777872 101.4468 
L 92.089927 101.02368 
L 112.713392 101.30232 
L 133.600475 100.81728 
L 154.322345 100.79664 
L 175.20581 99.3312 
L 196.034525 99.92976 
L 216.713222 100.78632 
L 237.754183 101.17848 
L 258.655255 101.1372 
L 279.36 100.21872 
" clip-path="url(#pc4112956a5)" style="fill: none; stroke: #f5841e; stroke-width: 0.6"/>
   </g>
  </g>
 </g>
 <defs>
  <clipPath id="pc4112956a5">
   <rect x="8.64" y="4.8" width="270.72" height="103.2"/>
  </clipPath>
 </defs>
</svg>
