<?xml version="1.0" encoding="utf-8" standalone="no"?>
<!DOCTYPE svg PUBLIC "-//W3C//DTD SVG 1.1//EN"
  "http://www.w3.org/Graphics/SVG/1.1/DTD/svg11.dtd">
<svg xmlns:xlink="http://www.w3.org/1999/xlink" width="288pt" height="120pt" viewBox="0 0 288 120" xmlns="http://www.w3.org/2000/svg" version="1.1">
<desc id="nav-meta">{"window":"1m","count":4,"labels":["24.05","03.06","13.06","23.06"],"tick_utc":["2026-05-24T04:51:26Z","2026-06-03T05:31:47Z","2026-06-13T05:09:20Z","2026-06-23T04:45:28Z"],"w":720,"h":300}</desc>

 <metadata>
  <rdf:RDF xmlns:dc="http://purl.org/dc/elements/1.1/" xmlns:cc="http://creativecommons.org/ns#" xmlns:rdf="http://www.w3.org/1999/02/22-rdf-syntax-ns#">
   <cc:Work>
    <dc:type rdf:resource="http://purl.org/dc/dcmitype/StillImage"/>
    <dc:date>2026-06-23T04:45:29.783864</dc:date>
    <dc:format>image/svg+xml</dc:format>
    <dc:creator>
     <cc:Agent>
      <dc:title>Matplotlib v3.11.0, https://matplotlib.org/</dc:title>
     </cc:Agent>
    </dc:creator>
   </cc:Work>
  </rdf:RDF>
 </metadata>
 <defs>
  <style type="text/css">*{stroke-linejoin: round; stroke-linecap: butt}</style>
 </defs>
 <g id="figure_1">
  <g id="patch_1">
   <path d="M 0 120 
L 288 120 
L 288 0 
L 0 0 
L 0 120 
z
" style="fill: none; opacity: 0"/>
  </g>
  <g id="axes_1">
   <g id="patch_2">
    <path d="M 8.64 108 
L 279.36 108 
L 279.36 4.8 
L 8.64 4.8 
L 8.64 108 
z
" style="fill: none"/>
   </g>
   <g id="matplotlib.axis_1"/>
   <g id="matplotlib.axis_2"/>
   <g id="line2d_1">
    <path d="M 8.64 87.36 
L 279.36 87.36 
" clip-path="url(#pba151f10df)" style="fill: none; stroke: #b2b2b2; stroke-opacity: 0.35; stroke-width: 0.5; stroke-linecap: square"/>
   </g>
   <g id="line2d_2">
    <path d="M 8.64 66.72 
L 279.36 66.72 
" clip-path="url(#pba151f10df)" style="fill: none; stroke: #b2b2b2; stroke-opacity: 0.35; stroke-width: 0.5; stroke-linecap: square"/>
   </g>
   <g id="line2d_3">
    <path d="M 8.64 46.08 
L 279.36 46.08 
" clip-path="url(#pba151f10df)" style="fill: none; stroke: #b2b2b2; stroke-opacity: 0.35; stroke-width: 0.5; stroke-linecap: square"/>
   </g>
   <g id="line2d_4">
    <path d="M 8.64 25.44 
L 279.36 25.44 
" clip-path="url(#pba151f10df)" style="fill: none; stroke: #b2b2b2; stroke-opacity: 0.35; stroke-width: 0.5; stroke-linecap: square"/>
   </g>
   <g id="line2d_5">
    <path d="M 8.64 100.91016 
L 17.784016 100.89984 
L 26.672526 101.1372 
L 35.790428 101.2404 
L 44.786844 101.6532 
L 53.818776 101.4984 
L 62.713866 101.48808 
L 71.923378 101.32296 
L 81.082123 101.51904 
L 90.01858 101.7048 
L 99.14536 102.54072 
L 108.139687 103.08768 
L 117.016289 103.36632 
L 125.902814 104.22288 
L 135.12204 103.85136 
L 144.18719 103.68624 
L 153.040184 103.43856 
L 162.159026 103.81008 
L 171.237233 103.72752 
L 180.297891 103.50048 
L 189.25712 103.5108 
L 198.347862 103.31472 
L 207.673114 102.95352 
L 216.749859 102.61296 
L 225.487635 102.6336 
L 234.469635 102.9948 
L 243.707456 103.28376 
L 252.371797 103.01544 
L 261.584861 102.69552 
L 270.874284 102.582 
L 279.36 102.88128 
" clip-path="url(#pba151f10df)" style="fill: none; stroke: #bebebe; stroke-width: 0.5; stroke-linecap: round"/>
   </g>
   <g id="line2d_6">
    <path d="M 8.64 88.14432 
L 17.784016 88.33008 
L 26.672526 88.52616 
L 35.790428 88.86672 
L 44.786844 90.22896 
L 53.818776 89.82648 
L 62.713866 89.87808 
L 71.923378 89.46528 
L 81.082123 90.0432 
L 90.01858 89.96064 
L 99.14536 91.99368 
L 108.139687 93.05664 
L 117.016289 93.74808 
L 125.902814 97.02984 
L 135.12204 95.93592 
L 144.18719 95.07936 
L 153.040184 94.46016 
L 162.159026 95.47152 
L 171.237233 95.11032 
L 180.297891 94.82136 
L 189.25712 94.8936 
L 198.347862 94.70784 
L 207.673114 94.04736 
L 216.749859 93.40752 
L 225.487635 92.9844 
L 234.469635 93.93384 
L 243.707456 94.4292 
L 252.371797 94.19184 
L 261.584861 93.87192 
L 270.874284 93.81 
L 279.36 94.03704 
" clip-path="url(#pba151f10df)" style="fill: none; stroke: #4a8dff; stroke-width: 0.6"/>
   </g>
   <g id="line2d_7">
    <path d="M 8.64 97.2672 
L 17.784016 96.61704 
L 26.672526 97.23624 
L 35.790428 98.08248 
L 44.786844 99.18672 
L 53.818776 99.03192 
L 62.713866 99.1248 
L 71.923378 98.74296 
L 81.082123 99.09384 
L 90.01858 100.0536 
L 99.14536 101.23008 
L 108.139687 101.99376 
L 117.016289 102.08664 
L 125.902814 102.8916 
L 135.12204 102.45816 
L 144.18719 102.28272 
L 153.040184 102.10728 
L 162.159026 102.582 
L 171.237233 102.29304 
L 180.297891 102.08664 
L 189.25712 102.066 
L 198.347862 101.86992 
L 207.673114 101.48808 
L 216.749859 101.40552 
L 225.487635 101.4984 
L 234.469635 101.97312 
L 243.707456 102.26208 
L 252.371797 102.066 
L 261.584861 101.90088 
L 270.874284 101.90088 
L 279.36 102.0144 
" clip-path="url(#pba151f10df)" style="fill: none; stroke: #f5841e; stroke-width: 0.6"/>
   </g>
  </g>
 </g>
 <defs>
  <clipPath id="pba151f10df">
   <rect x="8.64" y="4.8" width="270.72" height="103.2"/>
  </clipPath>
 </defs>
</svg>
