<?xml version="1.0" encoding="utf-8" standalone="no"?>
<!DOCTYPE svg PUBLIC "-//W3C//DTD SVG 1.1//EN"
  "http://www.w3.org/Graphics/SVG/1.1/DTD/svg11.dtd">
<svg xmlns:xlink="http://www.w3.org/1999/xlink" width="288pt" height="120pt" viewBox="0 0 288 120" xmlns="http://www.w3.org/2000/svg" version="1.1">
<desc id="nav-meta">{"window":"1m","count":4,"labels":["29.01","08.02","18.02","27.02"],"tick_utc":["2026-01-29T12:00:00Z","2026-02-08T03:46:03Z","2026-02-18T03:30:34Z","2026-02-27T03:18:03Z"],"w":720,"h":300}</desc>

 <metadata>
  <rdf:RDF xmlns:dc="http://purl.org/dc/elements/1.1/" xmlns:cc="http://creativecommons.org/ns#" xmlns:rdf="http://www.w3.org/1999/02/22-rdf-syntax-ns#">
   <cc:Work>
    <dc:type rdf:resource="http://purl.org/dc/dcmitype/StillImage"/>
    <dc:date>2026-02-27T13:44:54.822420</dc:date>
    <dc:format>image/svg+xml</dc:format>
    <dc:creator>
     <cc:Agent>
      <dc:title>Matplotlib v3.10.8, https://matplotlib.org/</dc:title>
     </cc:Agent>
    </dc:creator>
   </cc:Work>
  </rdf:RDF>
 </metadata>
 <defs>
  <style type="text/css">*{stroke-linejoin: round; stroke-linecap: butt}</style>
 </defs>
 <g id="figure_1">
  <g id="patch_1">
   <path d="M 0 120 
L 288 120 
L 288 0 
L 0 0 
L 0 120 
z
" style="fill: none; opacity: 0"/>
  </g>
  <g id="axes_1">
   <g id="patch_2">
    <path d="M 8.64 108 
L 279.36 108 
L 279.36 4.8 
L 8.64 4.8 
L 8.64 108 
z
" style="fill: none"/>
   </g>
   <g id="matplotlib.axis_1"/>
   <g id="matplotlib.axis_2"/>
   <g id="line2d_1">
    <path d="M 8.64 87.36 
L 279.36 87.36 
" clip-path="url(#p605bb209f9)" style="fill: none; stroke: #b2b2b2; stroke-opacity: 0.35; stroke-width: 0.5; stroke-linecap: square"/>
   </g>
   <g id="line2d_2">
    <path d="M 8.64 66.72 
L 279.36 66.72 
" clip-path="url(#p605bb209f9)" style="fill: none; stroke: #b2b2b2; stroke-opacity: 0.35; stroke-width: 0.5; stroke-linecap: square"/>
   </g>
   <g id="line2d_3">
    <path d="M 8.64 46.08 
L 279.36 46.08 
" clip-path="url(#p605bb209f9)" style="fill: none; stroke: #b2b2b2; stroke-opacity: 0.35; stroke-width: 0.5; stroke-linecap: square"/>
   </g>
   <g id="line2d_4">
    <path d="M 8.64 25.44 
L 279.36 25.44 
" clip-path="url(#p605bb209f9)" style="fill: none; stroke: #b2b2b2; stroke-opacity: 0.35; stroke-width: 0.5; stroke-linecap: square"/>
   </g>
   <g id="line2d_5">
    <path d="M 8.64 92.33424 
L 18.093328 94.36728 
L 27.546655 94.46016 
L 36.999983 97.71096 
L 46.453311 98.48496 
L 55.906638 97.85544 
L 63.88737 99.10416 
L 71.399811 100.16712 
L 80.848324 102.23112 
L 90.261169 100.54896 
L 99.930589 100.70376 
L 109.305904 100.68312 
L 118.813173 100.95144 
L 128.246916 101.28168 
L 137.666216 101.71512 
L 147.116699 101.84928 
L 156.456346 101.034 
L 165.410857 100.54896 
L 175.470555 101.04432 
L 183.736417 100.81728 
L 194.36222 101.034 
L 203.80406 101.4984 
L 213.202133 101.33328 
L 222.597691 101.1372 
L 232.15901 101.06496 
L 241.640785 102.09696 
L 250.295503 102.05568 
L 260.513413 101.4984 
L 269.924616 100.60056 
L 279.36 100.80696 
" clip-path="url(#p605bb209f9)" style="fill: none; stroke: #bebebe; stroke-width: 0.5; stroke-linecap: round"/>
   </g>
   <g id="line2d_6">
    <path d="M 8.64 74.96568 
L 18.093328 77.75208 
L 27.546655 79.48584 
L 36.999983 83.31456 
L 46.453311 85.90488 
L 55.906638 84.79032 
L 63.88737 85.84296 
L 71.399811 88.25784 
L 80.848324 91.41576 
L 90.261169 88.7532 
L 99.930589 88.65 
L 109.305904 88.55712 
L 118.813173 88.96992 
L 128.246916 89.7336 
L 137.666216 90.456 
L 147.116699 90.56952 
L 156.456346 89.15568 
L 165.410857 88.9596 
L 175.470555 90.6624 
L 183.736417 89.94 
L 194.36222 90.00192 
L 203.80406 90.3528 
L 213.202133 90.62112 
L 222.597691 90.5076 
L 232.15901 90.3528 
L 241.640785 92.004 
L 250.295503 92.13816 
L 260.513413 91.25064 
L 269.924616 89.166 
L 279.36 89.56848 
" clip-path="url(#p605bb209f9)" style="fill: none; stroke: #4a8dff; stroke-width: 0.6"/>
   </g>
   <g id="line2d_7">
    <path d="M 8.64 84.32592 
L 18.093328 89.08344 
L 27.546655 89.5272 
L 36.999983 95.14128 
L 46.453311 96.98856 
L 55.906638 95.08968 
L 63.88737 97.71096 
L 71.399811 99.80592 
L 80.848324 101.79768 
L 90.261169 100.03296 
L 99.930589 100.518 
L 109.305904 99.98136 
L 118.813173 100.49736 
L 128.246916 100.78632 
L 137.666216 101.07528 
L 147.116699 101.26104 
L 156.456346 100.63152 
L 165.410857 100.38384 
L 175.470555 100.84824 
L 183.736417 100.65216 
L 194.36222 101.034 
L 203.80406 101.19912 
L 213.202133 101.10624 
L 222.597691 100.97208 
L 232.15901 100.91016 
L 241.640785 101.7564 
L 250.295503 101.84928 
L 260.513413 101.56032 
L 269.924616 100.85856 
L 279.36 101.12688 
" clip-path="url(#p605bb209f9)" style="fill: none; stroke: #f5841e; stroke-width: 0.6"/>
   </g>
  </g>
 </g>
 <defs>
  <clipPath id="p605bb209f9">
   <rect x="8.64" y="4.8" width="270.72" height="103.2"/>
  </clipPath>
 </defs>
</svg>
