<?xml version="1.0" encoding="utf-8" standalone="no"?>
<!DOCTYPE svg PUBLIC "-//W3C//DTD SVG 1.1//EN"
  "http://www.w3.org/Graphics/SVG/1.1/DTD/svg11.dtd">
<svg xmlns:xlink="http://www.w3.org/1999/xlink" width="288pt" height="120pt" viewBox="0 0 288 120" xmlns="http://www.w3.org/2000/svg" version="1.1">
<desc id="nav-meta">{"window":"3m","count":4,"labels":["17.12","16.01","14.02","16.03"],"tick_utc":["2025-12-17T12:00:00Z","2026-01-16T12:00:00Z","2026-02-14T03:16:28Z","2026-03-16T03:46:39Z"],"w":720,"h":300}</desc>

 <metadata>
  <rdf:RDF xmlns:dc="http://purl.org/dc/elements/1.1/" xmlns:cc="http://creativecommons.org/ns#" xmlns:rdf="http://www.w3.org/1999/02/22-rdf-syntax-ns#">
   <cc:Work>
    <dc:type rdf:resource="http://purl.org/dc/dcmitype/StillImage"/>
    <dc:date>2026-03-16T14:05:25.991083</dc:date>
    <dc:format>image/svg+xml</dc:format>
    <dc:creator>
     <cc:Agent>
      <dc:title>Matplotlib v3.10.8, https://matplotlib.org/</dc:title>
     </cc:Agent>
    </dc:creator>
   </cc:Work>
  </rdf:RDF>
 </metadata>
 <defs>
  <style type="text/css">*{stroke-linejoin: round; stroke-linecap: butt}</style>
 </defs>
 <g id="figure_1">
  <g id="patch_1">
   <path d="M 0 120 
L 288 120 
L 288 0 
L 0 0 
L 0 120 
z
" style="fill: none; opacity: 0"/>
  </g>
  <g id="axes_1">
   <g id="patch_2">
    <path d="M 8.64 108 
L 279.36 108 
L 279.36 4.8 
L 8.64 4.8 
L 8.64 108 
z
" style="fill: none"/>
   </g>
   <g id="matplotlib.axis_1"/>
   <g id="matplotlib.axis_2"/>
   <g id="line2d_1">
    <path d="M 8.64 87.36 
L 279.36 87.36 
" clip-path="url(#pe832c11f1f)" style="fill: none; stroke: #b2b2b2; stroke-opacity: 0.35; stroke-width: 0.5; stroke-linecap: square"/>
   </g>
   <g id="line2d_2">
    <path d="M 8.64 66.72 
L 279.36 66.72 
" clip-path="url(#pe832c11f1f)" style="fill: none; stroke: #b2b2b2; stroke-opacity: 0.35; stroke-width: 0.5; stroke-linecap: square"/>
   </g>
   <g id="line2d_3">
    <path d="M 8.64 46.08 
L 279.36 46.08 
" clip-path="url(#pe832c11f1f)" style="fill: none; stroke: #b2b2b2; stroke-opacity: 0.35; stroke-width: 0.5; stroke-linecap: square"/>
   </g>
   <g id="line2d_4">
    <path d="M 8.64 25.44 
L 279.36 25.44 
" clip-path="url(#pe832c11f1f)" style="fill: none; stroke: #b2b2b2; stroke-opacity: 0.35; stroke-width: 0.5; stroke-linecap: square"/>
   </g>
   <g id="line2d_5">
    <path d="M 8.64 91.31256 
L 11.693552 92.87088 
L 14.747105 93.8616 
L 17.800657 92.02464 
L 20.854209 92.13816 
L 23.907762 92.07624 
L 26.961314 92.14848 
L 30.014866 92.64384 
L 33.068419 93.01536 
L 36.121971 93.69648 
L 39.175524 93.11856 
L 42.229076 92.44776 
L 45.282628 92.30328 
L 48.336181 92.87088 
L 51.389733 92.38584 
L 54.443285 92.47872 
L 57.496838 91.88016 
L 60.55039 90.42504 
L 63.603942 90.08448 
L 66.657495 89.92968 
L 69.711047 88.76352 
L 72.764599 87.94824 
L 75.818152 89.2692 
L 78.871704 88.72224 
L 81.925257 89.39304 
L 84.978809 89.40336 
L 88.032361 88.41264 
L 91.085914 88.4952 
L 94.139466 86.86464 
L 97.193018 86.42088 
L 100.246571 87.62832 
L 103.300123 86.93688 
L 106.353675 87.23616 
L 109.407228 88.63968 
L 112.46078 90.0432 
L 115.514332 92.12784 
L 118.567885 91.16808 
L 121.621437 91.46736 
L 124.67499 91.73568 
L 127.728542 91.78728 
L 130.782094 94.0164 
L 133.835647 92.5716 
L 136.889199 91.76664 
L 139.942751 92.33424 
L 142.996304 94.36728 
L 146.049856 94.46016 
L 149.103408 97.71096 
L 152.156961 98.48496 
L 155.210513 97.85544 
L 157.788397 99.10416 
L 160.215017 100.16712 
L 163.267014 102.23112 
L 166.30749 100.54896 
L 169.430843 100.70376 
L 172.459196 100.68312 
L 175.530172 100.95144 
L 178.577398 101.28168 
L 181.619959 101.71512 
L 184.672593 101.84928 
L 187.689425 101.034 
L 190.581853 100.54896 
L 193.831271 101.04432 
L 196.501256 100.81728 
L 199.933534 101.034 
L 202.983375 101.4984 
L 206.01908 101.33328 
L 209.053971 101.1372 
L 212.142406 101.06496 
L 215.205148 102.09696 
L 218.000739 102.05568 
L 221.301261 101.4984 
L 224.341207 100.60056 
L 227.388963 100.80696 
L 230.406537 101.45712 
L 233.529466 100.55928 
L 236.551493 101.10624 
L 239.612149 100.8792 
L 242.648596 100.74504 
L 245.708722 100.21872 
L 248.760825 100.53864 
L 251.790946 101.07528 
L 254.87415 101.38488 
L 257.936856 101.26104 
L 260.970794 100.78632 
L 264.023145 100.91016 
L 267.088713 100.99272 
L 270.136363 100.38384 
L 273.185851 100.50768 
L 276.297824 100.60056 
L 279.36 99.76464 
" clip-path="url(#pe832c11f1f)" style="fill: none; stroke: #bebebe; stroke-width: 0.5; stroke-linecap: round"/>
   </g>
   <g id="line2d_6">
    <path d="M 8.64 75.5952 
L 11.693552 77.61792 
L 14.747105 77.63856 
L 17.800657 75.40944 
L 20.854209 75.40944 
L 23.907762 75.04824 
L 26.961314 74.98632 
L 30.014866 75.58488 
L 33.068419 75.87384 
L 36.121971 76.49304 
L 39.175524 76.15248 
L 42.229076 75.82224 
L 45.282628 75.84288 
L 48.336181 76.03896 
L 51.389733 75.51264 
L 54.443285 75.56424 
L 57.496838 75.05856 
L 60.55039 73.26288 
L 63.603942 73.20096 
L 66.657495 73.00488 
L 69.711047 71.68392 
L 72.764599 70.6932 
L 75.818152 72.62304 
L 78.871704 73.52088 
L 81.925257 73.83048 
L 84.978809 73.8408 
L 88.032361 73.29384 
L 91.085914 73.72728 
L 94.139466 70.32168 
L 97.193018 69.77472 
L 100.246571 70.34232 
L 103.300123 70.67256 
L 106.353675 70.51776 
L 109.407228 70.848 
L 112.46078 72.31344 
L 115.514332 76.01832 
L 118.567885 75.41976 
L 121.621437 75.83256 
L 124.67499 75.79128 
L 127.728542 75.82224 
L 130.782094 77.82432 
L 133.835647 76.14216 
L 136.889199 74.75928 
L 139.942751 74.96568 
L 142.996304 77.75208 
L 146.049856 79.48584 
L 149.103408 83.31456 
L 152.156961 85.90488 
L 155.210513 84.79032 
L 157.788397 85.84296 
L 160.215017 88.25784 
L 163.267014 91.41576 
L 166.30749 88.7532 
L 169.430843 88.65 
L 172.459196 88.55712 
L 175.530172 88.96992 
L 178.577398 89.7336 
L 181.619959 90.456 
L 184.672593 90.56952 
L 187.689425 89.15568 
L 190.581853 88.9596 
L 193.831271 90.6624 
L 196.501256 89.94 
L 199.933534 90.00192 
L 202.983375 90.3528 
L 206.01908 90.62112 
L 209.053971 90.5076 
L 212.142406 90.3528 
L 215.205148 92.004 
L 218.000739 92.13816 
L 221.301261 91.25064 
L 224.341207 89.166 
L 227.388963 89.56848 
L 230.406537 90.93072 
L 233.529466 89.41368 
L 236.551493 90.37344 
L 239.612149 89.79552 
L 242.648596 90.23928 
L 245.708722 88.0824 
L 248.760825 88.7532 
L 251.790946 90.16704 
L 254.87415 90.67272 
L 257.936856 90.18768 
L 260.970794 89.2692 
L 264.023145 89.54784 
L 267.088713 89.49624 
L 270.136363 88.31976 
L 273.185851 88.45392 
L 276.297824 88.46424 
L 279.36 86.38992 
" clip-path="url(#pe832c11f1f)" style="fill: none; stroke: #4a8dff; stroke-width: 0.6"/>
   </g>
   <g id="line2d_7">
    <path d="M 8.64 85.71912 
L 11.693552 87.53544 
L 14.747105 88.17528 
L 17.800657 85.41984 
L 20.854209 85.17216 
L 23.907762 84.9348 
L 26.961314 85.01736 
L 30.014866 86.14224 
L 33.068419 85.90488 
L 36.121971 86.328 
L 39.175524 86.24544 
L 42.229076 85.72944 
L 45.282628 85.7088 
L 48.336181 86.40024 
L 51.389733 85.09992 
L 54.443285 86.02872 
L 57.496838 84.78 
L 60.55039 83.53128 
L 63.603942 82.83984 
L 66.657495 82.03488 
L 69.711047 79.39296 
L 72.764599 79.66128 
L 75.818152 82.15872 
L 78.871704 82.43736 
L 81.925257 82.93272 
L 84.978809 83.00496 
L 88.032361 82.6128 
L 91.085914 82.28256 
L 94.139466 78.01008 
L 97.193018 76.19376 
L 100.246571 77.66952 
L 103.300123 77.74176 
L 106.353675 78.1752 
L 109.407228 79.5684 
L 112.46078 80.8068 
L 115.514332 85.20312 
L 118.567885 84.12984 
L 121.621437 84.03696 
L 124.67499 84.06792 
L 127.728542 84.3156 
L 130.782094 87.02976 
L 133.835647 85.21344 
L 136.889199 84.28464 
L 139.942751 84.32592 
L 142.996304 89.08344 
L 146.049856 89.5272 
L 149.103408 95.14128 
L 152.156961 96.98856 
L 155.210513 95.08968 
L 157.788397 97.71096 
L 160.215017 99.80592 
L 163.267014 101.79768 
L 166.30749 100.03296 
L 169.430843 100.518 
L 172.459196 99.98136 
L 175.530172 100.49736 
L 178.577398 100.78632 
L 181.619959 101.07528 
L 184.672593 101.26104 
L 187.689425 100.63152 
L 190.581853 100.38384 
L 193.831271 100.84824 
L 196.501256 100.65216 
L 199.933534 101.034 
L 202.983375 101.19912 
L 206.01908 101.10624 
L 209.053971 100.97208 
L 212.142406 100.91016 
L 215.205148 101.7564 
L 218.000739 101.84928 
L 221.301261 101.56032 
L 224.341207 100.85856 
L 227.388963 101.12688 
L 230.406537 101.4468 
L 233.529466 101.02368 
L 236.551493 101.30232 
L 239.612149 100.81728 
L 242.648596 100.79664 
L 245.708722 99.3312 
L 248.760825 99.92976 
L 251.790946 100.78632 
L 254.87415 101.17848 
L 257.936856 101.1372 
L 260.970794 100.21872 
L 264.023145 100.37352 
L 267.088713 100.4664 
L 270.136363 99.88848 
L 273.185851 99.94008 
L 276.297824 99.81624 
L 279.36 98.93904 
" clip-path="url(#pe832c11f1f)" style="fill: none; stroke: #f5841e; stroke-width: 0.6"/>
   </g>
  </g>
 </g>
 <defs>
  <clipPath id="pe832c11f1f">
   <rect x="8.64" y="4.8" width="270.72" height="103.2"/>
  </clipPath>
 </defs>
</svg>
