<?xml version="1.0" encoding="utf-8" standalone="no"?>
<!DOCTYPE svg PUBLIC "-//W3C//DTD SVG 1.1//EN"
  "http://www.w3.org/Graphics/SVG/1.1/DTD/svg11.dtd">
<svg xmlns:xlink="http://www.w3.org/1999/xlink" width="288pt" height="120pt" viewBox="0 0 288 120" xmlns="http://www.w3.org/2000/svg" version="1.1">
<desc id="nav-meta">{"window":"3m","count":4,"labels":["13.12","12.01","11.02","13.03"],"tick_utc":["2025-12-13T12:00:00Z","2026-01-12T12:00:00Z","2026-02-11T03:39:24Z","2026-03-13T03:16:57Z"],"w":720,"h":300}</desc>

 <metadata>
  <rdf:RDF xmlns:dc="http://purl.org/dc/elements/1.1/" xmlns:cc="http://creativecommons.org/ns#" xmlns:rdf="http://www.w3.org/1999/02/22-rdf-syntax-ns#">
   <cc:Work>
    <dc:type rdf:resource="http://purl.org/dc/dcmitype/StillImage"/>
    <dc:date>2026-03-13T07:32:28.614869</dc:date>
    <dc:format>image/svg+xml</dc:format>
    <dc:creator>
     <cc:Agent>
      <dc:title>Matplotlib v3.10.8, https://matplotlib.org/</dc:title>
     </cc:Agent>
    </dc:creator>
   </cc:Work>
  </rdf:RDF>
 </metadata>
 <defs>
  <style type="text/css">*{stroke-linejoin: round; stroke-linecap: butt}</style>
 </defs>
 <g id="figure_1">
  <g id="patch_1">
   <path d="M 0 120 
L 288 120 
L 288 0 
L 0 0 
L 0 120 
z
" style="fill: none; opacity: 0"/>
  </g>
  <g id="axes_1">
   <g id="patch_2">
    <path d="M 8.64 108 
L 279.36 108 
L 279.36 4.8 
L 8.64 4.8 
L 8.64 108 
z
" style="fill: none"/>
   </g>
   <g id="matplotlib.axis_1"/>
   <g id="matplotlib.axis_2"/>
   <g id="line2d_1">
    <path d="M 8.64 87.36 
L 279.36 87.36 
" clip-path="url(#pe3c6fad018)" style="fill: none; stroke: #b2b2b2; stroke-opacity: 0.35; stroke-width: 0.5; stroke-linecap: square"/>
   </g>
   <g id="line2d_2">
    <path d="M 8.64 66.72 
L 279.36 66.72 
" clip-path="url(#pe3c6fad018)" style="fill: none; stroke: #b2b2b2; stroke-opacity: 0.35; stroke-width: 0.5; stroke-linecap: square"/>
   </g>
   <g id="line2d_3">
    <path d="M 8.64 46.08 
L 279.36 46.08 
" clip-path="url(#pe3c6fad018)" style="fill: none; stroke: #b2b2b2; stroke-opacity: 0.35; stroke-width: 0.5; stroke-linecap: square"/>
   </g>
   <g id="line2d_4">
    <path d="M 8.64 25.44 
L 279.36 25.44 
" clip-path="url(#pe3c6fad018)" style="fill: none; stroke: #b2b2b2; stroke-opacity: 0.35; stroke-width: 0.5; stroke-linecap: square"/>
   </g>
   <g id="line2d_5">
    <path d="M 8.64 90.31152 
L 11.660189 90.10512 
L 14.680378 91.09584 
L 17.700567 91.61184 
L 20.720756 91.31256 
L 23.740946 92.87088 
L 26.761135 93.8616 
L 29.781324 92.02464 
L 32.801513 92.13816 
L 35.821702 92.07624 
L 38.841891 92.14848 
L 41.86208 92.64384 
L 44.882269 93.01536 
L 47.902459 93.69648 
L 50.922648 93.11856 
L 53.942837 92.44776 
L 56.963026 92.30328 
L 59.983215 92.87088 
L 63.003404 92.38584 
L 66.023593 92.47872 
L 69.043782 91.88016 
L 72.063972 90.42504 
L 75.084161 90.08448 
L 78.10435 89.92968 
L 81.124539 88.76352 
L 84.144728 87.94824 
L 87.164917 89.2692 
L 90.185106 88.72224 
L 93.205295 89.39304 
L 96.225484 89.40336 
L 99.245674 88.41264 
L 102.265863 88.4952 
L 105.286052 86.86464 
L 108.306241 86.42088 
L 111.32643 87.62832 
L 114.346619 86.93688 
L 117.366808 87.23616 
L 120.386997 88.63968 
L 123.407187 90.0432 
L 126.427376 92.12784 
L 129.447565 91.16808 
L 132.467754 91.46736 
L 135.487943 91.73568 
L 138.508132 91.78728 
L 141.528321 94.0164 
L 144.54851 92.5716 
L 147.5687 91.76664 
L 150.588889 92.33424 
L 153.609078 94.36728 
L 156.629267 94.46016 
L 159.649456 97.71096 
L 162.669645 98.48496 
L 165.689834 97.85544 
L 168.239552 99.10416 
L 170.639659 100.16712 
L 173.65831 102.23112 
L 176.665565 100.54896 
L 179.754792 100.70376 
L 182.750058 100.68312 
L 185.78748 100.95144 
L 188.801412 101.28168 
L 191.81073 101.71512 
L 194.83001 101.84928 
L 197.81388 101.034 
L 200.674705 100.54896 
L 203.88862 101.04432 
L 206.529433 100.81728 
L 209.924209 101.034 
L 212.940728 101.4984 
L 215.943264 101.33328 
L 218.944997 101.1372 
L 221.999687 101.06496 
L 225.028965 102.09696 
L 227.794011 102.05568 
L 231.058472 101.4984 
L 234.065203 100.60056 
L 237.079659 100.80696 
L 240.064263 101.45712 
L 243.153071 100.55928 
L 246.142079 101.10624 
L 249.169295 100.8792 
L 252.172565 100.74504 
L 255.199256 100.21872 
L 258.218012 100.53864 
L 261.215025 101.07528 
L 264.264542 101.38488 
L 267.293785 101.26104 
L 270.294574 100.78632 
L 273.313574 100.91016 
L 276.345649 100.99272 
L 279.36 100.38384 
" clip-path="url(#pe3c6fad018)" style="fill: none; stroke: #bebebe; stroke-width: 0.5; stroke-linecap: round"/>
   </g>
   <g id="line2d_6">
    <path d="M 8.64 73.79952 
L 11.660189 73.35576 
L 14.680378 74.0988 
L 17.700567 75.5952 
L 20.720756 75.5952 
L 23.740946 77.61792 
L 26.761135 77.63856 
L 29.781324 75.40944 
L 32.801513 75.40944 
L 35.821702 75.04824 
L 38.841891 74.98632 
L 41.86208 75.58488 
L 44.882269 75.87384 
L 47.902459 76.49304 
L 50.922648 76.15248 
L 53.942837 75.82224 
L 56.963026 75.84288 
L 59.983215 76.03896 
L 63.003404 75.51264 
L 66.023593 75.56424 
L 69.043782 75.05856 
L 72.063972 73.26288 
L 75.084161 73.20096 
L 78.10435 73.00488 
L 81.124539 71.68392 
L 84.144728 70.6932 
L 87.164917 72.62304 
L 90.185106 73.52088 
L 93.205295 73.83048 
L 96.225484 73.8408 
L 99.245674 73.29384 
L 102.265863 73.72728 
L 105.286052 70.32168 
L 108.306241 69.77472 
L 111.32643 70.34232 
L 114.346619 70.67256 
L 117.366808 70.51776 
L 120.386997 70.848 
L 123.407187 72.31344 
L 126.427376 76.01832 
L 129.447565 75.41976 
L 132.467754 75.83256 
L 135.487943 75.79128 
L 138.508132 75.82224 
L 141.528321 77.82432 
L 144.54851 76.14216 
L 147.5687 74.75928 
L 150.588889 74.96568 
L 153.609078 77.75208 
L 156.629267 79.48584 
L 159.649456 83.31456 
L 162.669645 85.90488 
L 165.689834 84.79032 
L 168.239552 85.84296 
L 170.639659 88.25784 
L 173.65831 91.41576 
L 176.665565 88.7532 
L 179.754792 88.65 
L 182.750058 88.55712 
L 185.78748 88.96992 
L 188.801412 89.7336 
L 191.81073 90.456 
L 194.83001 90.56952 
L 197.81388 89.15568 
L 200.674705 88.9596 
L 203.88862 90.6624 
L 206.529433 89.94 
L 209.924209 90.00192 
L 212.940728 90.3528 
L 215.943264 90.62112 
L 218.944997 90.5076 
L 221.999687 90.3528 
L 225.028965 92.004 
L 227.794011 92.13816 
L 231.058472 91.25064 
L 234.065203 89.166 
L 237.079659 89.56848 
L 240.064263 90.93072 
L 243.153071 89.41368 
L 246.142079 90.37344 
L 249.169295 89.79552 
L 252.172565 90.23928 
L 255.199256 88.0824 
L 258.218012 88.7532 
L 261.215025 90.16704 
L 264.264542 90.67272 
L 267.293785 90.18768 
L 270.294574 89.2692 
L 273.313574 89.54784 
L 276.345649 89.49624 
L 279.36 88.31976 
" clip-path="url(#pe3c6fad018)" style="fill: none; stroke: #4a8dff; stroke-width: 0.6"/>
   </g>
   <g id="line2d_7">
    <path d="M 8.64 83.13912 
L 11.660189 83.19072 
L 14.680378 85.296 
L 17.700567 87.17424 
L 20.720756 85.71912 
L 23.740946 87.53544 
L 26.761135 88.17528 
L 29.781324 85.41984 
L 32.801513 85.17216 
L 35.821702 84.9348 
L 38.841891 85.01736 
L 41.86208 86.14224 
L 44.882269 85.90488 
L 47.902459 86.328 
L 50.922648 86.24544 
L 53.942837 85.72944 
L 56.963026 85.7088 
L 59.983215 86.40024 
L 63.003404 85.09992 
L 66.023593 86.02872 
L 69.043782 84.78 
L 72.063972 83.53128 
L 75.084161 82.83984 
L 78.10435 82.03488 
L 81.124539 79.39296 
L 84.144728 79.66128 
L 87.164917 82.15872 
L 90.185106 82.43736 
L 93.205295 82.93272 
L 96.225484 83.00496 
L 99.245674 82.6128 
L 102.265863 82.28256 
L 105.286052 78.01008 
L 108.306241 76.19376 
L 111.32643 77.66952 
L 114.346619 77.74176 
L 117.366808 78.1752 
L 120.386997 79.5684 
L 123.407187 80.8068 
L 126.427376 85.20312 
L 129.447565 84.12984 
L 132.467754 84.03696 
L 135.487943 84.06792 
L 138.508132 84.3156 
L 141.528321 87.02976 
L 144.54851 85.21344 
L 147.5687 84.28464 
L 150.588889 84.32592 
L 153.609078 89.08344 
L 156.629267 89.5272 
L 159.649456 95.14128 
L 162.669645 96.98856 
L 165.689834 95.08968 
L 168.239552 97.71096 
L 170.639659 99.80592 
L 173.65831 101.79768 
L 176.665565 100.03296 
L 179.754792 100.518 
L 182.750058 99.98136 
L 185.78748 100.49736 
L 188.801412 100.78632 
L 191.81073 101.07528 
L 194.83001 101.26104 
L 197.81388 100.63152 
L 200.674705 100.38384 
L 203.88862 100.84824 
L 206.529433 100.65216 
L 209.924209 101.034 
L 212.940728 101.19912 
L 215.943264 101.10624 
L 218.944997 100.97208 
L 221.999687 100.91016 
L 225.028965 101.7564 
L 227.794011 101.84928 
L 231.058472 101.56032 
L 234.065203 100.85856 
L 237.079659 101.12688 
L 240.064263 101.4468 
L 243.153071 101.02368 
L 246.142079 101.30232 
L 249.169295 100.81728 
L 252.172565 100.79664 
L 255.199256 99.3312 
L 258.218012 99.92976 
L 261.215025 100.78632 
L 264.264542 101.17848 
L 267.293785 101.1372 
L 270.294574 100.21872 
L 273.313574 100.37352 
L 276.345649 100.4664 
L 279.36 99.88848 
" clip-path="url(#pe3c6fad018)" style="fill: none; stroke: #f5841e; stroke-width: 0.6"/>
   </g>
  </g>
 </g>
 <defs>
  <clipPath id="pe3c6fad018">
   <rect x="8.64" y="4.8" width="270.72" height="103.2"/>
  </clipPath>
 </defs>
</svg>
