<?xml version="1.0" encoding="utf-8" standalone="no"?>
<!DOCTYPE svg PUBLIC "-//W3C//DTD SVG 1.1//EN"
  "http://www.w3.org/Graphics/SVG/1.1/DTD/svg11.dtd">
<svg xmlns:xlink="http://www.w3.org/1999/xlink" width="288pt" height="120pt" viewBox="0 0 288 120" xmlns="http://www.w3.org/2000/svg" version="1.1">
<desc id="nav-meta">{"window":"1m","count":4,"labels":["20.06","30.06","10.07","20.07"],"tick_utc":["2026-06-20T04:59:26Z","2026-06-30T04:49:55Z","2026-07-10T04:38:36Z","2026-07-20T04:25:44Z"],"w":720,"h":300}</desc>

 <metadata>
  <rdf:RDF xmlns:dc="http://purl.org/dc/elements/1.1/" xmlns:cc="http://creativecommons.org/ns#" xmlns:rdf="http://www.w3.org/1999/02/22-rdf-syntax-ns#">
   <cc:Work>
    <dc:type rdf:resource="http://purl.org/dc/dcmitype/StillImage"/>
    <dc:date>2026-07-20T04:25:46.055459</dc:date>
    <dc:format>image/svg+xml</dc:format>
    <dc:creator>
     <cc:Agent>
      <dc:title>Matplotlib v3.11.1, https://matplotlib.org/</dc:title>
     </cc:Agent>
    </dc:creator>
   </cc:Work>
  </rdf:RDF>
 </metadata>
 <defs>
  <style type="text/css">*{stroke-linejoin: round; stroke-linecap: butt}</style>
 </defs>
 <g id="figure_1">
  <g id="patch_1">
   <path d="M 0 120 
L 288 120 
L 288 0 
L 0 0 
L 0 120 
z
" style="fill: none; opacity: 0"/>
  </g>
  <g id="axes_1">
   <g id="patch_2">
    <path d="M 8.64 108 
L 279.36 108 
L 279.36 4.8 
L 8.64 4.8 
L 8.64 108 
z
" style="fill: none"/>
   </g>
   <g id="matplotlib.axis_1"/>
   <g id="matplotlib.axis_2"/>
   <g id="line2d_1">
    <path d="M 8.64 87.36 
L 279.36 87.36 
" clip-path="url(#pfc7dd8eff1)" style="fill: none; stroke: #b2b2b2; stroke-opacity: 0.35; stroke-width: 0.5; stroke-linecap: square"/>
   </g>
   <g id="line2d_2">
    <path d="M 8.64 66.72 
L 279.36 66.72 
" clip-path="url(#pfc7dd8eff1)" style="fill: none; stroke: #b2b2b2; stroke-opacity: 0.35; stroke-width: 0.5; stroke-linecap: square"/>
   </g>
   <g id="line2d_3">
    <path d="M 8.64 46.08 
L 279.36 46.08 
" clip-path="url(#pfc7dd8eff1)" style="fill: none; stroke: #b2b2b2; stroke-opacity: 0.35; stroke-width: 0.5; stroke-linecap: square"/>
   </g>
   <g id="line2d_4">
    <path d="M 8.64 25.44 
L 279.36 25.44 
" clip-path="url(#pfc7dd8eff1)" style="fill: none; stroke: #b2b2b2; stroke-opacity: 0.35; stroke-width: 0.5; stroke-linecap: square"/>
   </g>
   <g id="line2d_5">
    <path d="M 8.64 103.01544 
L 17.858983 102.69552 
L 27.154374 102.582 
L 35.645542 102.88128 
L 44.708886 103.15992 
L 53.737527 103.36632 
L 62.814877 103.36632 
L 71.735229 102.81936 
L 80.938428 103.0464 
L 90.034802 102.9432 
L 98.890766 102.59232 
L 108.053932 102.40656 
L 116.926829 102.02472 
L 125.85962 101.68416 
L 134.851781 101.3436 
L 144.015052 101.6532 
L 153.133585 101.6532 
L 162.029164 101.63256 
L 170.814782 101.95248 
L 180.119581 102.08664 
L 189.130244 101.9112 
L 197.894643 102.066 
L 207.060735 102.18984 
L 216.111536 102.31368 
L 224.933738 102.45816 
L 233.967083 102.08664 
L 243.020705 102.21048 
L 252.053214 102.4272 
L 261.039626 102.4272 
L 270.20645 102.34464 
L 279.36 102.25176 
" clip-path="url(#pfc7dd8eff1)" style="fill: none; stroke: #bebebe; stroke-width: 0.5; stroke-linecap: round"/>
   </g>
   <g id="line2d_6">
    <path d="M 8.64 94.19184 
L 17.858983 93.87192 
L 27.154374 93.81 
L 35.645542 94.03704 
L 44.708886 94.83168 
L 53.737527 95.48184 
L 62.814877 96.63768 
L 71.735229 96.14232 
L 80.938428 96.30744 
L 90.034802 96.29712 
L 98.890766 96.04944 
L 108.053932 95.9256 
L 116.926829 95.39928 
L 125.85962 94.31568 
L 134.851781 93.57264 
L 144.015052 93.32496 
L 153.133585 93.22176 
L 162.029164 93.35592 
L 170.814782 93.61392 
L 180.119581 93.77904 
L 189.130244 93.26304 
L 197.894643 92.92248 
L 207.060735 92.71608 
L 216.111536 93.15984 
L 224.933738 93.17016 
L 233.967083 91.80792 
L 243.020705 91.14744 
L 252.053214 92.13816 
L 261.039626 92.25168 
L 270.20645 91.9008 
L 279.36 91.81824 
" clip-path="url(#pfc7dd8eff1)" style="fill: none; stroke: #4a8dff; stroke-width: 0.6"/>
   </g>
   <g id="line2d_7">
    <path d="M 8.64 102.066 
L 17.858983 101.90088 
L 27.154374 101.90088 
L 35.645542 102.0144 
L 44.708886 102.25176 
L 53.737527 102.6336 
L 62.814877 102.88128 
L 71.735229 102.77808 
L 80.938428 102.85032 
L 90.034802 102.93288 
L 98.890766 102.95352 
L 108.053932 103.00512 
L 116.926829 102.69552 
L 125.85962 102.55104 
L 134.851781 102.2724 
L 144.015052 102.21048 
L 153.133585 102.12792 
L 162.029164 102.13824 
L 170.814782 102.25176 
L 180.119581 102.36528 
L 189.130244 101.94216 
L 197.894643 101.92152 
L 207.060735 101.9112 
L 216.111536 102.2208 
L 224.933738 102.31368 
L 233.967083 101.79768 
L 243.020705 101.81832 
L 252.053214 102.07632 
L 261.039626 101.97312 
L 270.20645 101.79768 
L 279.36 101.78736 
" clip-path="url(#pfc7dd8eff1)" style="fill: none; stroke: #f5841e; stroke-width: 0.6"/>
   </g>
  </g>
 </g>
 <defs>
  <clipPath id="pfc7dd8eff1">
   <rect x="8.64" y="4.8" width="270.72" height="103.2"/>
  </clipPath>
 </defs>
</svg>
