<?xml version="1.0" encoding="utf-8" standalone="no"?>
<!DOCTYPE svg PUBLIC "-//W3C//DTD SVG 1.1//EN"
  "http://www.w3.org/Graphics/SVG/1.1/DTD/svg11.dtd">
<svg xmlns:xlink="http://www.w3.org/1999/xlink" width="288pt" height="120pt" viewBox="0 0 288 120" xmlns="http://www.w3.org/2000/svg" version="1.1">
<desc id="nav-meta">{"window":"1y","count":4,"labels":["03.03","03.07","01.11","03.03"],"tick_utc":["2025-03-03T12:00:00Z","2025-07-03T12:00:00Z","2025-11-01T12:00:00Z","2026-03-03T03:22:17Z"],"w":720,"h":300}</desc>

 <metadata>
  <rdf:RDF xmlns:dc="http://purl.org/dc/elements/1.1/" xmlns:cc="http://creativecommons.org/ns#" xmlns:rdf="http://www.w3.org/1999/02/22-rdf-syntax-ns#">
   <cc:Work>
    <dc:type rdf:resource="http://purl.org/dc/dcmitype/StillImage"/>
    <dc:date>2026-03-03T03:22:18.865884</dc:date>
    <dc:format>image/svg+xml</dc:format>
    <dc:creator>
     <cc:Agent>
      <dc:title>Matplotlib v3.10.8, https://matplotlib.org/</dc:title>
     </cc:Agent>
    </dc:creator>
   </cc:Work>
  </rdf:RDF>
 </metadata>
 <defs>
  <style type="text/css">*{stroke-linejoin: round; stroke-linecap: butt}</style>
 </defs>
 <g id="figure_1">
  <g id="patch_1">
   <path d="M 0 120 
L 288 120 
L 288 0 
L 0 0 
L 0 120 
z
" style="fill: none; opacity: 0"/>
  </g>
  <g id="axes_1">
   <g id="patch_2">
    <path d="M 8.64 108 
L 279.36 108 
L 279.36 4.8 
L 8.64 4.8 
L 8.64 108 
z
" style="fill: none"/>
   </g>
   <g id="matplotlib.axis_1"/>
   <g id="matplotlib.axis_2"/>
   <g id="line2d_1">
    <path d="M 8.64 87.36 
L 279.36 87.36 
" clip-path="url(#pc0aebd932a)" style="fill: none; stroke: #b2b2b2; stroke-opacity: 0.35; stroke-width: 0.5; stroke-linecap: square"/>
   </g>
   <g id="line2d_2">
    <path d="M 8.64 66.72 
L 279.36 66.72 
" clip-path="url(#pc0aebd932a)" style="fill: none; stroke: #b2b2b2; stroke-opacity: 0.35; stroke-width: 0.5; stroke-linecap: square"/>
   </g>
   <g id="line2d_3">
    <path d="M 8.64 46.08 
L 279.36 46.08 
" clip-path="url(#pc0aebd932a)" style="fill: none; stroke: #b2b2b2; stroke-opacity: 0.35; stroke-width: 0.5; stroke-linecap: square"/>
   </g>
   <g id="line2d_4">
    <path d="M 8.64 25.44 
L 279.36 25.44 
" clip-path="url(#pc0aebd932a)" style="fill: none; stroke: #b2b2b2; stroke-opacity: 0.35; stroke-width: 0.5; stroke-linecap: square"/>
   </g>
   <g id="line2d_5">
    <path d="M 8.64 77.82432 
L 9.38243 87.5664 
L 10.12486 86.86464 
L 10.86729 86.56536 
L 11.60972 87.3084 
L 12.35215 88.47456 
L 13.09458 89.10408 
L 13.837009 91.9008 
L 14.579439 94.04736 
L 15.321869 92.23104 
L 16.064299 91.92144 
L 16.806729 92.8296 
L 17.549159 90.01224 
L 18.291589 89.39304 
L 19.034019 92.03496 
L 19.776449 91.45704 
L 20.518879 92.262 
L 21.261309 89.44464 
L 22.003739 91.62216 
L 22.746169 91.46736 
L 23.488598 91.42608 
L 24.231028 90.41472 
L 24.973458 88.09272 
L 25.715888 87.17424 
L 26.458318 89.04216 
L 27.200748 88.69128 
L 27.943178 91.13712 
L 28.685608 92.48904 
L 30.170468 92.38584 
L 30.912898 91.85952 
L 31.655328 94.24344 
L 32.397758 94.4808 
L 33.140188 92.97408 
L 33.882617 93.67584 
L 34.625047 97.60776 
L 35.367477 97.32912 
L 36.109907 97.68 
L 36.852337 94.00608 
L 37.594767 95.65728 
L 38.337197 93.33528 
L 39.079627 90.39408 
L 39.822057 91.46736 
L 40.564487 91.14744 
L 41.306917 91.99368 
L 42.049347 90.57984 
L 42.791777 89.72328 
L 43.534206 89.89872 
L 44.276636 88.35072 
L 45.019066 88.89768 
L 45.761496 89.25888 
L 46.503926 85.84296 
L 47.246356 85.2444 
L 47.988786 84.8832 
L 50.216076 85.99776 
L 50.958506 86.07 
L 51.700936 86.4828 
L 52.443366 86.14224 
L 53.185795 85.31664 
L 53.928225 86.07 
L 54.670655 86.38992 
L 55.413085 87.16392 
L 56.155515 86.38992 
L 57.640375 86.28672 
L 58.382805 81.84912 
L 59.125235 79.32072 
L 59.867665 78.05136 
L 60.610095 79.26912 
L 61.352525 78.846 
L 62.094955 76.2144 
L 63.579814 80.394 
L 64.322244 80.66232 
L 65.064674 81.168 
L 65.807104 79.63032 
L 66.549534 80.95128 
L 67.291964 80.4972 
L 68.776824 77.43216 
L 69.519254 78.846 
L 70.261684 78.41256 
L 71.004114 78.64992 
L 71.746544 78.76344 
L 72.488974 78.25776 
L 73.231403 79.47552 
L 73.973833 80.92032 
L 74.716263 83.73768 
L 75.458693 83.6448 
L 76.201123 83.4384 
L 76.943553 83.61384 
L 77.685983 83.99568 
L 78.428413 84.55296 
L 79.170843 87.00912 
L 79.913273 85.98744 
L 80.655703 85.5024 
L 81.398133 84.8316 
L 82.140563 82.46832 
L 82.882992 81.426 
L 83.625422 82.5096 
L 84.367852 84.79032 
L 85.852712 86.95752 
L 86.595142 84.79032 
L 87.337572 85.13088 
L 88.080002 86.07 
L 88.822432 86.5344 
L 89.564862 86.31768 
L 91.049722 89.97096 
L 91.792152 90.48696 
L 92.534581 86.9472 
L 93.277011 86.66856 
L 94.019441 87.32904 
L 94.761871 88.53648 
L 95.504301 87.6696 
L 96.246731 85.30632 
L 96.989161 84.61488 
L 97.731591 84.17112 
L 98.474021 86.3796 
L 99.216451 84.92448 
L 99.958881 84.89352 
L 100.701311 86.13192 
L 101.443741 86.1732 
L 102.18617 84.99672 
L 102.9286 85.85328 
L 103.67103 85.01736 
L 104.41346 83.55192 
L 105.15589 81.7356 
L 105.89832 82.03488 
L 106.64075 82.65408 
L 108.12561 82.15872 
L 108.86804 81.70464 
L 109.61047 79.01112 
L 110.3529 78.39192 
L 111.09533 78.04104 
L 111.83776 78.16488 
L 112.580189 77.05032 
L 113.322619 72.82944 
L 114.065049 70.41456 
L 114.807479 74.69736 
L 115.549909 76.6272 
L 116.292339 75.63648 
L 117.034769 75.97704 
L 117.777199 74.976 
L 118.519629 76.49304 
L 119.262059 76.99872 
L 120.004489 77.90688 
L 120.746919 79.4652 
L 121.489349 82.02456 
L 122.231778 83.19072 
L 122.974208 82.27224 
L 123.716638 80.21856 
L 124.459068 81.67368 
L 125.201498 80.5488 
L 125.943928 78.588 
L 126.686358 78.19584 
L 127.428788 77.21544 
L 128.171218 76.524 
L 128.913648 78.68088 
L 129.656078 73.88208 
L 130.398508 71.364 
L 131.140938 73.8408 
L 131.883367 75.79128 
L 132.625797 74.65608 
L 133.368227 74.14008 
L 134.110657 76.50336 
L 134.853087 78.30936 
L 135.595517 75.3372 
L 136.337947 77.25672 
L 137.080377 71.78712 
L 137.822807 70.75512 
L 138.565237 70.24944 
L 139.307667 75.35784 
L 140.050097 72.95328 
L 140.792527 70.96152 
L 141.534956 67.87584 
L 142.277386 70.46616 
L 143.019816 71.11632 
L 143.762246 71.61168 
L 144.504676 72.7056 
L 145.247106 69.33096 
L 145.989536 68.9388 
L 146.731966 71.12664 
L 147.474396 70.90992 
L 148.216826 71.80776 
L 148.959256 70.074 
L 149.701686 68.01 
L 150.444116 67.10184 
L 151.186546 65.29584 
L 151.928975 64.01616 
L 152.671405 60.31128 
L 153.413835 60.19776 
L 154.156265 60.786 
L 154.898695 62.61264 
L 155.641125 61.74576 
L 156.383555 59.57856 
L 157.125985 58.86648 
L 157.868415 61.38456 
L 158.610845 61.07496 
L 159.353275 61.83864 
L 160.095705 66.29688 
L 160.838135 67.97904 
L 161.580564 68.69112 
L 162.322994 73.9956 
L 163.065424 70.45584 
L 163.807854 70.87896 
L 164.550284 68.91816 
L 165.292714 68.3196 
L 166.035144 69.47544 
L 167.520004 62.39592 
L 168.262434 62.81904 
L 169.004864 64.22256 
L 169.747294 64.05744 
L 170.489724 62.9532 
L 171.232153 66.14208 
L 171.974583 63.91296 
L 172.717013 66.17304 
L 173.459443 74.6148 
L 174.201873 77.78304 
L 174.944303 72.66432 
L 175.686733 69.69216 
L 176.429163 71.09568 
L 177.914023 76.06992 
L 178.656453 76.76136 
L 179.398883 75.25464 
L 180.141313 75.24432 
L 180.883742 74.63544 
L 181.626172 75.73968 
L 182.368602 77.31864 
L 183.111032 74.202 
L 183.853462 73.64472 
L 184.595892 73.48992 
L 185.338322 71.83872 
L 186.080752 72.17928 
L 186.823182 73.38672 
L 187.565612 73.43832 
L 188.308042 76.15248 
L 189.050472 75.3372 
L 189.792902 75.58488 
L 190.535332 75.35784 
L 191.277761 81.168 
L 192.020191 84.01632 
L 192.762621 82.06584 
L 193.505051 84.19176 
L 194.247481 82.27224 
L 194.989911 83.29392 
L 195.732341 81.62208 
L 196.474771 80.72424 
L 197.217201 84.33624 
L 197.959631 84.64584 
L 198.702061 86.844 
L 199.444491 88.52616 
L 200.186921 88.36104 
L 200.92935 88.93896 
L 201.67178 90.79656 
L 202.41421 88.09272 
L 203.15664 89.22792 
L 203.89907 90.00192 
L 204.6415 91.39512 
L 205.38393 91.63248 
L 206.12636 90.75528 
L 206.86879 88.7016 
L 207.61122 88.52616 
L 208.35365 87.45288 
L 209.09608 88.0308 
L 209.83851 88.94928 
L 211.323369 89.7336 
L 212.065799 91.86984 
L 212.808229 88.60872 
L 213.550659 86.87496 
L 215.035519 90.11544 
L 216.520379 90.53856 
L 217.262809 90.08448 
L 218.005239 88.79448 
L 218.747669 89.20728 
L 219.490099 89.22792 
L 220.232528 90.31152 
L 220.974958 90.10512 
L 221.717388 91.09584 
L 222.459818 91.61184 
L 223.202248 91.31256 
L 223.944678 92.87088 
L 224.687108 93.8616 
L 225.429538 92.02464 
L 226.171968 92.13816 
L 226.914398 92.07624 
L 227.656828 92.14848 
L 229.884118 93.69648 
L 231.368977 92.44776 
L 232.111407 92.30328 
L 232.853837 92.87088 
L 233.596267 92.38584 
L 234.338697 92.47872 
L 235.081127 91.88016 
L 235.823557 90.42504 
L 236.565987 90.08448 
L 237.308417 89.92968 
L 238.050847 88.76352 
L 238.793277 87.94824 
L 239.535707 89.2692 
L 240.278136 88.72224 
L 241.020566 89.39304 
L 241.762996 89.40336 
L 242.505426 88.41264 
L 243.247856 88.4952 
L 243.990286 86.86464 
L 244.732716 86.42088 
L 245.475146 87.62832 
L 246.217576 86.93688 
L 246.960006 87.23616 
L 248.444866 90.0432 
L 249.187296 92.12784 
L 249.929725 91.16808 
L 251.414585 91.73568 
L 252.157015 91.78728 
L 252.899445 94.0164 
L 253.641875 92.5716 
L 254.384305 91.76664 
L 255.126735 92.33424 
L 255.869165 94.36728 
L 256.611595 94.46016 
L 257.354025 97.71096 
L 258.096455 98.48496 
L 258.838885 97.85544 
L 260.055662 100.16712 
L 260.797714 102.23112 
L 261.536964 100.54896 
L 262.296365 100.70376 
L 263.032668 100.68312 
L 264.520226 101.28168 
L 265.259984 101.71512 
L 266.00219 101.84928 
L 266.735692 101.034 
L 267.438947 100.54896 
L 268.228999 101.04432 
L 268.87817 100.81728 
L 269.712682 101.034 
L 270.454209 101.4984 
L 272.681104 101.06496 
L 273.425768 102.09696 
L 274.105478 102.05568 
L 274.907955 101.4984 
L 275.647077 100.60056 
L 276.388098 100.80696 
L 277.12178 101.45712 
L 277.881078 100.55928 
L 278.615843 101.10624 
L 279.36 100.8792 
L 279.36 100.8792 
" clip-path="url(#pc0aebd932a)" style="fill: none; stroke: #bebebe; stroke-width: 0.5; stroke-linecap: round"/>
   </g>
   <g id="line2d_6">
    <path d="M 8.64 82.23096 
L 9.38243 87.71088 
L 10.12486 87.36 
L 10.86729 86.328 
L 11.60972 86.90592 
L 12.35215 87.81408 
L 13.09458 86.93688 
L 13.837009 89.65104 
L 14.579439 91.6944 
L 15.321869 91.0752 
L 16.064299 91.23 
L 16.806729 91.94208 
L 17.549159 91.23 
L 18.291589 90.79656 
L 19.034019 91.57056 
L 19.776449 90.95136 
L 20.518879 90.89976 
L 21.261309 89.00088 
L 22.003739 90.18768 
L 22.746169 90.43536 
L 24.231028 89.8884 
L 24.973458 88.7532 
L 25.715888 88.88736 
L 26.458318 89.75424 
L 27.200748 89.85744 
L 27.943178 91.4364 
L 28.685608 92.43744 
L 29.428038 92.79864 
L 30.170468 92.50968 
L 30.912898 91.2816 
L 31.655328 92.9328 
L 32.397758 92.60256 
L 33.882617 92.7264 
L 34.625047 96.21456 
L 35.367477 96.4932 
L 36.109907 97.74192 
L 36.852337 94.91424 
L 37.594767 96.96792 
L 38.337197 96.31776 
L 39.079627 95.16192 
L 39.822057 95.90496 
L 40.564487 95.52312 
L 41.306917 96.01848 
L 42.049347 96.17328 
L 43.534206 95.99784 
L 44.276636 95.616 
L 45.019066 96.05976 
L 45.761496 96.17328 
L 46.503926 93.46944 
L 47.246356 92.96376 
L 47.988786 93.32496 
L 48.731216 93.036 
L 49.473646 92.56128 
L 50.216076 92.96376 
L 50.958506 92.8812 
L 52.443366 92.96376 
L 53.185795 92.29296 
L 53.928225 92.262 
L 54.670655 92.3652 
L 55.413085 92.74704 
L 56.155515 92.5716 
L 57.640375 92.71608 
L 58.382805 86.97816 
L 59.125235 84.84192 
L 59.867665 81.24024 
L 60.610095 82.37544 
L 61.352525 82.60248 
L 62.094955 79.86768 
L 63.579814 81.85944 
L 64.322244 81.82848 
L 65.064674 82.86048 
L 65.807104 83.00496 
L 66.549534 82.08648 
L 67.291964 82.12776 
L 68.034394 81.61176 
L 68.776824 80.15664 
L 69.519254 82.18968 
L 71.004114 81.79752 
L 71.746544 81.56016 
L 72.488974 80.0844 
L 73.231403 79.86768 
L 73.973833 80.50752 
L 74.716263 82.12776 
L 76.201123 81.92136 
L 76.943553 80.8584 
L 77.685983 81.07512 
L 78.428413 80.84808 
L 79.170843 83.6448 
L 79.913273 82.7676 
L 80.655703 82.0968 
L 81.398133 82.3548 
L 82.140563 79.74384 
L 82.882992 77.90688 
L 83.625422 78.39192 
L 84.367852 80.21856 
L 85.110282 81.34344 
L 85.852712 81.98328 
L 87.337572 81.5808 
L 88.080002 82.26192 
L 89.564862 82.15872 
L 90.307292 83.88216 
L 91.049722 85.89456 
L 91.792152 86.5344 
L 92.534581 83.61384 
L 93.277011 83.2836 
L 94.019441 83.71704 
L 94.761871 83.748 
L 96.246731 83.41776 
L 96.989161 82.44768 
L 97.731591 82.6644 
L 98.474021 83.89248 
L 99.216451 81.38472 
L 99.958881 81.14736 
L 100.701311 82.34448 
L 101.443741 82.23096 
L 102.18617 81.426 
L 102.9286 81.8388 
L 103.67103 80.76552 
L 105.15589 75.83256 
L 105.89832 75.67776 
L 106.64075 75.91512 
L 108.12561 74.88312 
L 108.86804 73.09776 
L 109.61047 69.6096 
L 110.3529 67.91712 
L 111.09533 66.94704 
L 111.83776 66.24528 
L 112.580189 63.80976 
L 113.322619 63.70656 
L 114.065049 63.9852 
L 114.807479 65.71896 
L 115.549909 64.5528 
L 117.034769 64.05744 
L 117.777199 62.25144 
L 118.519629 63.39696 
L 119.262059 63.366 
L 120.004489 63.08736 
L 120.746919 64.72824 
L 121.489349 67.89648 
L 122.231778 69.16584 
L 122.974208 67.69008 
L 123.716638 64.4496 
L 124.459068 65.97696 
L 125.201498 64.914 
L 125.943928 61.54968 
L 126.686358 60.04296 
L 127.428788 56.28648 
L 128.171218 56.47224 
L 128.913648 56.83344 
L 129.656078 51.22968 
L 130.398508 48.89736 
L 131.140938 52.00368 
L 131.883367 53.84064 
L 132.625797 53.90256 
L 133.368227 53.00472 
L 134.110657 55.5228 
L 134.853087 59.12448 
L 135.595517 55.32672 
L 136.337947 56.90568 
L 137.080377 47.92728 
L 137.822807 48.75288 
L 138.565237 48.68064 
L 139.307667 54.57336 
L 140.050097 51.2916 
L 140.792527 52.80864 
L 141.534956 52.69512 
L 142.277386 54.82104 
L 143.762246 54.45984 
L 144.504676 55.7292 
L 145.247106 55.39896 
L 145.989536 53.55168 
L 146.731966 55.81176 
L 147.474396 55.6776 
L 148.216826 56.18328 
L 148.959256 55.71888 
L 150.444116 55.63632 
L 151.186546 55.07904 
L 151.928975 53.41752 
L 152.671405 49.71264 
L 153.413835 50.32152 
L 154.156265 51.17808 
L 154.898695 52.44744 
L 155.641125 52.74672 
L 156.383555 51.4464 
L 157.125985 51.46704 
L 157.868415 53.2524 
L 158.610845 53.08728 
L 159.353275 53.5104 
L 160.095705 57.26688 
L 160.838135 57.76224 
L 161.580564 58.02024 
L 162.322994 62.26176 
L 163.065424 59.68176 
L 163.807854 59.9604 
L 164.550284 58.12344 
L 165.292714 57.02952 
L 166.035144 58.09248 
L 166.777574 55.13064 
L 167.520004 53.046 
L 168.262434 52.5816 
L 169.004864 52.9944 
L 169.747294 52.5816 
L 170.489724 50.0016 
L 171.232153 53.48976 
L 171.974583 52.40616 
L 172.717013 54.75912 
L 173.459443 62.67456 
L 174.201873 63.95424 
L 174.944303 57.86544 
L 175.686733 56.57544 
L 176.429163 58.31952 
L 177.171593 60.4764 
L 177.914023 61.85928 
L 178.656453 62.73648 
L 179.398883 61.8696 
L 180.141313 60.45576 
L 180.883742 60.54864 
L 181.626172 62.04504 
L 182.368602 63.16992 
L 183.111032 62.36496 
L 183.853462 61.21944 
L 184.595892 60.9408 
L 185.338322 57.83448 
L 186.080752 58.40208 
L 186.823182 60.49704 
L 188.308042 63.1596 
L 189.050472 62.49912 
L 189.792902 62.1276 
L 190.535332 61.56 
L 192.020191 70.66224 
L 192.762621 68.72208 
L 193.505051 70.4868 
L 194.247481 68.61888 
L 194.989911 69.11424 
L 195.732341 66.5136 
L 196.474771 66.68904 
L 197.217201 68.8872 
L 197.959631 68.9904 
L 198.702061 71.5704 
L 199.444491 73.48992 
L 200.186921 72.54048 
L 201.67178 74.74896 
L 202.41421 73.3248 
L 203.15664 74.80056 
L 203.89907 77.556 
L 204.6415 78.55704 
L 205.38393 78.50544 
L 206.12636 78.04104 
L 206.86879 75.76032 
L 207.61122 75.73968 
L 208.35365 74.65608 
L 209.09608 74.83152 
L 209.83851 74.57352 
L 210.580939 75.20304 
L 211.323369 75.17208 
L 212.065799 78.05136 
L 213.550659 72.16896 
L 214.293089 73.08744 
L 215.035519 74.72832 
L 216.520379 74.28456 
L 217.262809 73.21128 
L 218.005239 70.2804 
L 218.747669 70.2288 
L 219.490099 71.56008 
L 220.232528 73.79952 
L 220.974958 73.35576 
L 221.717388 74.0988 
L 222.459818 75.5952 
L 223.202248 75.5952 
L 223.944678 77.61792 
L 224.687108 77.63856 
L 225.429538 75.40944 
L 226.171968 75.40944 
L 226.914398 75.04824 
L 227.656828 74.98632 
L 228.399258 75.58488 
L 229.141688 75.87384 
L 229.884118 76.49304 
L 231.368977 75.82224 
L 232.111407 75.84288 
L 232.853837 76.03896 
L 233.596267 75.51264 
L 234.338697 75.56424 
L 235.081127 75.05856 
L 235.823557 73.26288 
L 236.565987 73.20096 
L 237.308417 73.00488 
L 238.050847 71.68392 
L 238.793277 70.6932 
L 239.535707 72.62304 
L 240.278136 73.52088 
L 241.020566 73.83048 
L 241.762996 73.8408 
L 242.505426 73.29384 
L 243.247856 73.72728 
L 243.990286 70.32168 
L 244.732716 69.77472 
L 245.475146 70.34232 
L 246.217576 70.67256 
L 246.960006 70.51776 
L 247.702436 70.848 
L 248.444866 72.31344 
L 249.187296 76.01832 
L 249.929725 75.41976 
L 250.672155 75.83256 
L 252.157015 75.82224 
L 252.899445 77.82432 
L 253.641875 76.14216 
L 254.384305 74.75928 
L 255.126735 74.96568 
L 255.869165 77.75208 
L 256.611595 79.48584 
L 257.354025 83.31456 
L 258.096455 85.90488 
L 258.838885 84.79032 
L 259.465662 85.84296 
L 260.797714 91.41576 
L 261.536964 88.7532 
L 263.032668 88.55712 
L 263.779335 88.96992 
L 265.259984 90.456 
L 266.00219 90.56952 
L 266.735692 89.15568 
L 267.438947 88.9596 
L 268.228999 90.6624 
L 268.87817 89.94 
L 269.712682 90.00192 
L 271.1923 90.62112 
L 272.681104 90.3528 
L 273.425768 92.004 
L 274.105478 92.13816 
L 274.907955 91.25064 
L 275.647077 89.166 
L 276.388098 89.56848 
L 277.12178 90.93072 
L 277.881078 89.41368 
L 278.615843 90.37344 
L 279.36 89.79552 
L 279.36 89.79552 
" clip-path="url(#pc0aebd932a)" style="fill: none; stroke: #4a8dff; stroke-width: 0.6"/>
   </g>
   <g id="line2d_7">
    <path d="M 8.64 79.04208 
L 9.38243 87.47352 
L 10.12486 86.24544 
L 10.86729 82.82952 
L 11.60972 83.45904 
L 12.35215 86.80272 
L 13.09458 87.45288 
L 13.837009 93.036 
L 14.579439 95.07936 
L 15.321869 90.9204 
L 16.064299 89.79552 
L 16.806729 92.6748 
L 17.549159 89.70264 
L 18.291589 89.2692 
L 19.034019 91.11648 
L 19.776449 89.59944 
L 20.518879 90.94104 
L 21.261309 86.76144 
L 22.003739 89.39304 
L 23.488598 89.8884 
L 24.231028 87.8244 
L 24.973458 86.2248 
L 25.715888 86.02872 
L 26.458318 86.60664 
L 27.200748 86.328 
L 27.943178 89.30016 
L 28.685608 91.04424 
L 29.428038 91.37448 
L 30.170468 91.20936 
L 30.912898 88.392 
L 31.655328 91.19904 
L 33.140188 89.82648 
L 33.882617 90.0948 
L 34.625047 95.6676 
L 35.367477 94.66656 
L 36.109907 97.61808 
L 36.852337 91.10616 
L 37.594767 94.23312 
L 38.337197 90.25992 
L 39.079627 88.31976 
L 39.822057 90.08448 
L 40.564487 89.13504 
L 41.306917 90.03288 
L 42.049347 89.56848 
L 42.791777 88.71192 
L 43.534206 89.22792 
L 44.276636 88.50552 
L 45.019066 88.55712 
L 45.761496 86.10096 
L 46.503926 79.75416 
L 47.246356 79.7232 
L 47.988786 79.44456 
L 48.731216 78.51576 
L 49.473646 78.64992 
L 50.216076 79.5168 
L 50.958506 78.24744 
L 51.700936 79.0524 
L 52.443366 79.07304 
L 53.185795 76.80264 
L 53.928225 76.35888 
L 54.670655 77.31864 
L 55.413085 78.98016 
L 56.155515 78.52608 
L 56.897945 76.35888 
L 57.640375 76.18344 
L 58.382805 69.90888 
L 59.125235 70.03272 
L 59.867665 68.29896 
L 60.610095 68.95944 
L 61.352525 70.11528 
L 62.094955 68.76336 
L 62.837384 69.37224 
L 63.579814 69.25872 
L 64.322244 69.41352 
L 65.064674 69.77472 
L 65.807104 66.85416 
L 66.549534 67.26696 
L 67.291964 66.06984 
L 68.034394 63.08736 
L 68.776824 61.12656 
L 69.519254 65.62608 
L 70.261684 64.98624 
L 71.004114 63.91296 
L 71.746544 63.38664 
L 72.488974 63.70656 
L 73.231403 64.97592 
L 73.973833 67.14312 
L 74.716263 68.9388 
L 75.458693 68.23704 
L 76.201123 67.1844 
L 76.943553 66.99864 
L 77.685983 67.47336 
L 78.428413 68.1132 
L 79.170843 71.38464 
L 79.913273 68.526 
L 80.655703 67.21536 
L 81.398133 67.20504 
L 82.140563 62.46816 
L 82.882992 62.51976 
L 83.625422 64.10904 
L 84.367852 66.90576 
L 85.110282 66.83352 
L 85.852712 67.42176 
L 86.595142 67.3392 
L 87.337572 65.8944 
L 88.080002 68.24736 
L 89.564862 68.23704 
L 90.307292 69.69216 
L 91.049722 71.50848 
L 91.792152 72.21024 
L 92.534581 67.3908 
L 93.277011 66.90576 
L 94.019441 65.59512 
L 94.761871 65.86344 
L 95.504301 65.76024 
L 96.246731 65.50224 
L 96.989161 64.398 
L 97.731591 65.70864 
L 98.474021 67.2876 
L 99.216451 63.95424 
L 99.958881 63.14928 
L 100.701311 64.76952 
L 101.443741 64.58376 
L 102.18617 63.55176 
L 102.9286 64.5012 
L 103.67103 63.82008 
L 104.41346 61.36392 
L 105.15589 56.64768 
L 105.89832 54.89328 
L 106.64075 55.04808 
L 107.38318 53.29368 
L 108.12561 52.55064 
L 108.86804 54.77976 
L 109.61047 53.67552 
L 110.3529 52.95312 
L 111.09533 54.45984 
L 111.83776 54.55272 
L 112.580189 55.22352 
L 113.322619 54.98616 
L 114.065049 52.4268 
L 114.807479 53.79936 
L 115.549909 54.08832 
L 116.292339 54.92424 
L 117.034769 54.4908 
L 117.777199 52.98408 
L 118.519629 54.44952 
L 119.262059 54.60432 
L 120.004489 54.62496 
L 121.489349 59.38248 
L 122.231778 60.09456 
L 122.974208 58.39176 
L 123.716638 57.41136 
L 124.459068 58.464 
L 125.201498 57.5352 
L 125.943928 55.0068 
L 126.686358 55.81176 
L 127.428788 55.99752 
L 128.171218 53.13888 
L 128.913648 53.64456 
L 129.656078 52.1688 
L 130.398508 48.69096 
L 131.140938 54.0264 
L 131.883367 55.13064 
L 132.625797 54.96552 
L 133.368227 54.92424 
L 134.110657 56.25552 
L 134.853087 59.8572 
L 135.595517 58.32984 
L 136.337947 60.23904 
L 137.080377 55.65696 
L 137.822807 57.18432 
L 138.565237 59.21736 
L 139.307667 62.55072 
L 140.050097 60.82728 
L 140.792527 61.47744 
L 141.534956 60.12552 
L 142.277386 64.31544 
L 143.019816 63.99552 
L 143.762246 64.5528 
L 144.504676 63.60336 
L 145.247106 61.5084 
L 145.989536 60.96144 
L 146.731966 61.98312 
L 147.474396 62.05536 
L 148.216826 62.51976 
L 149.701686 60.64152 
L 150.444116 61.13688 
L 151.186546 58.6188 
L 151.928975 57.03984 
L 152.671405 56.35872 
L 153.413835 56.5548 
L 154.156265 57.174 
L 154.898695 57.14304 
L 155.641125 55.7292 
L 156.383555 56.04912 
L 157.125985 55.33704 
L 157.868415 56.87472 
L 158.610845 56.8128 
L 159.353275 57.24624 
L 160.095705 59.93976 
L 160.838135 60.64152 
L 161.580564 59.29992 
L 162.322994 63.80976 
L 163.065424 63.03576 
L 163.807854 63.09768 
L 165.292714 58.27824 
L 166.035144 58.5672 
L 166.777574 53.93352 
L 167.520004 51.74568 
L 168.262434 50.04288 
L 169.004864 49.90872 
L 170.489724 47.43192 
L 171.232153 50.80656 
L 171.974583 48.90768 
L 172.717013 50.6208 
L 173.459443 59.42376 
L 174.201873 61.85928 
L 174.944303 57.35976 
L 175.686733 57.3288 
L 176.429163 59.46504 
L 177.914023 64.72824 
L 178.656453 66.42072 
L 179.398883 65.688 
L 180.141313 64.17096 
L 180.883742 62.10696 
L 181.626172 64.30512 
L 182.368602 65.20296 
L 183.111032 62.68488 
L 183.853462 61.70448 
L 184.595892 61.06464 
L 185.338322 58.1028 
L 186.080752 58.40208 
L 186.823182 59.68176 
L 187.565612 62.6952 
L 188.308042 64.56312 
L 189.050472 63.18024 
L 189.792902 62.72616 
L 190.535332 62.06568 
L 191.277761 66.33816 
L 192.020191 71.40528 
L 192.762621 69.08328 
L 193.505051 71.7252 
L 194.247481 69.57864 
L 194.989911 70.72416 
L 195.732341 68.2164 
L 196.474771 66.978 
L 197.217201 70.03272 
L 197.959631 71.5188 
L 198.702061 73.3764 
L 199.444491 78.846 
L 200.186921 77.75208 
L 200.92935 78.88728 
L 201.67178 81.34344 
L 202.41421 80.53848 
L 203.15664 82.0452 
L 203.89907 86.92656 
L 204.6415 88.58808 
L 205.38393 88.96992 
L 206.12636 86.7924 
L 206.86879 85.296 
L 207.61122 86.24544 
L 208.35365 82.96368 
L 209.09608 82.13808 
L 209.83851 82.47864 
L 210.580939 82.58184 
L 211.323369 83.03592 
L 212.065799 87.3084 
L 212.808229 82.06584 
L 213.550659 79.71288 
L 214.293089 81.24024 
L 215.035519 84.17112 
L 215.777949 84.24336 
L 216.520379 83.29392 
L 217.262809 82.8192 
L 218.005239 80.64168 
L 218.747669 81.38472 
L 219.490099 80.87904 
L 220.232528 83.13912 
L 220.974958 83.19072 
L 222.459818 87.17424 
L 223.202248 85.71912 
L 223.944678 87.53544 
L 224.687108 88.17528 
L 225.429538 85.41984 
L 226.914398 84.9348 
L 227.656828 85.01736 
L 228.399258 86.14224 
L 229.141688 85.90488 
L 229.884118 86.328 
L 230.626547 86.24544 
L 231.368977 85.72944 
L 232.111407 85.7088 
L 232.853837 86.40024 
L 233.596267 85.09992 
L 234.338697 86.02872 
L 235.823557 83.53128 
L 237.308417 82.03488 
L 238.050847 79.39296 
L 238.793277 79.66128 
L 239.535707 82.15872 
L 240.278136 82.43736 
L 241.020566 82.93272 
L 241.762996 83.00496 
L 243.247856 82.28256 
L 243.990286 78.01008 
L 244.732716 76.19376 
L 245.475146 77.66952 
L 246.217576 77.74176 
L 246.960006 78.1752 
L 248.444866 80.8068 
L 249.187296 85.20312 
L 249.929725 84.12984 
L 250.672155 84.03696 
L 251.414585 84.06792 
L 252.157015 84.3156 
L 252.899445 87.02976 
L 253.641875 85.21344 
L 254.384305 84.28464 
L 255.126735 84.32592 
L 255.869165 89.08344 
L 256.611595 89.5272 
L 257.354025 95.14128 
L 258.096455 96.98856 
L 258.838885 95.08968 
L 260.055662 99.80592 
L 260.797714 101.79768 
L 261.536964 100.03296 
L 262.296365 100.518 
L 263.032668 99.98136 
L 263.779335 100.49736 
L 266.00219 101.26104 
L 266.735692 100.63152 
L 267.438947 100.38384 
L 268.228999 100.84824 
L 268.87817 100.65216 
L 269.712682 101.034 
L 270.454209 101.19912 
L 272.681104 100.91016 
L 273.425768 101.7564 
L 274.105478 101.84928 
L 274.907955 101.56032 
L 275.647077 100.85856 
L 277.12178 101.4468 
L 277.881078 101.02368 
L 278.615843 101.30232 
L 279.36 100.81728 
L 279.36 100.81728 
" clip-path="url(#pc0aebd932a)" style="fill: none; stroke: #f5841e; stroke-width: 0.6"/>
   </g>
  </g>
 </g>
 <defs>
  <clipPath id="pc0aebd932a">
   <rect x="8.64" y="4.8" width="270.72" height="103.2"/>
  </clipPath>
 </defs>
</svg>
