<?xml version="1.0" encoding="utf-8" standalone="no"?>
<!DOCTYPE svg PUBLIC "-//W3C//DTD SVG 1.1//EN"
  "http://www.w3.org/Graphics/SVG/1.1/DTD/svg11.dtd">
<svg xmlns:xlink="http://www.w3.org/1999/xlink" width="288pt" height="120pt" viewBox="0 0 288 120" xmlns="http://www.w3.org/2000/svg" version="1.1">
<desc id="nav-meta">{"window":"1m","count":4,"labels":["18.02","28.02","10.03","20.03"],"tick_utc":["2026-02-18T03:30:34Z","2026-02-28T03:01:05Z","2026-03-10T03:14:38Z","2026-03-20T03:18:49Z"],"w":720,"h":300}</desc>

 <metadata>
  <rdf:RDF xmlns:dc="http://purl.org/dc/elements/1.1/" xmlns:cc="http://creativecommons.org/ns#" xmlns:rdf="http://www.w3.org/1999/02/22-rdf-syntax-ns#">
   <cc:Work>
    <dc:type rdf:resource="http://purl.org/dc/dcmitype/StillImage"/>
    <dc:date>2026-03-20T03:18:51.821112</dc:date>
    <dc:format>image/svg+xml</dc:format>
    <dc:creator>
     <cc:Agent>
      <dc:title>Matplotlib v3.10.8, https://matplotlib.org/</dc:title>
     </cc:Agent>
    </dc:creator>
   </cc:Work>
  </rdf:RDF>
 </metadata>
 <defs>
  <style type="text/css">*{stroke-linejoin: round; stroke-linecap: butt}</style>
 </defs>
 <g id="figure_1">
  <g id="patch_1">
   <path d="M 0 120 
L 288 120 
L 288 0 
L 0 0 
L 0 120 
z
" style="fill: none; opacity: 0"/>
  </g>
  <g id="axes_1">
   <g id="patch_2">
    <path d="M 8.64 108 
L 279.36 108 
L 279.36 4.8 
L 8.64 4.8 
L 8.64 108 
z
" style="fill: none"/>
   </g>
   <g id="matplotlib.axis_1"/>
   <g id="matplotlib.axis_2"/>
   <g id="line2d_1">
    <path d="M 8.64 87.36 
L 279.36 87.36 
" clip-path="url(#pd21a7188a7)" style="fill: none; stroke: #b2b2b2; stroke-opacity: 0.35; stroke-width: 0.5; stroke-linecap: square"/>
   </g>
   <g id="line2d_2">
    <path d="M 8.64 66.72 
L 279.36 66.72 
" clip-path="url(#pd21a7188a7)" style="fill: none; stroke: #b2b2b2; stroke-opacity: 0.35; stroke-width: 0.5; stroke-linecap: square"/>
   </g>
   <g id="line2d_3">
    <path d="M 8.64 46.08 
L 279.36 46.08 
" clip-path="url(#pd21a7188a7)" style="fill: none; stroke: #b2b2b2; stroke-opacity: 0.35; stroke-width: 0.5; stroke-linecap: square"/>
   </g>
   <g id="line2d_4">
    <path d="M 8.64 25.44 
L 279.36 25.44 
" clip-path="url(#pd21a7188a7)" style="fill: none; stroke: #b2b2b2; stroke-opacity: 0.35; stroke-width: 0.5; stroke-linecap: square"/>
   </g>
   <g id="line2d_5">
    <path d="M 8.64 101.034 
L 17.655485 101.4984 
L 26.629182 101.33328 
L 35.600475 101.1372 
L 44.730045 101.06496 
L 53.783663 102.09696 
L 62.047571 102.05568 
L 71.804082 101.4984 
L 80.790315 100.60056 
L 89.799637 100.80696 
L 98.719739 101.45712 
L 107.951274 100.55928 
L 116.884539 101.10624 
L 125.931993 100.8792 
L 134.907884 100.74504 
L 143.953771 100.21872 
L 152.975942 100.53864 
L 161.933132 101.07528 
L 171.04724 101.38488 
L 180.100754 101.26104 
L 189.069226 100.78632 
L 198.092129 100.91016 
L 207.154105 100.99272 
L 216.163113 100.38384 
L 225.177554 100.50768 
L 234.376703 100.60056 
L 243.428649 99.76464 
L 252.297141 99.49632 
L 261.392444 99.40344 
L 270.421407 100.09488 
L 279.36 100.3632 
" clip-path="url(#pd21a7188a7)" style="fill: none; stroke: #bebebe; stroke-width: 0.5; stroke-linecap: round"/>
   </g>
   <g id="line2d_6">
    <path d="M 8.64 90.00192 
L 17.655485 90.3528 
L 26.629182 90.62112 
L 35.600475 90.5076 
L 44.730045 90.3528 
L 53.783663 92.004 
L 62.047571 92.13816 
L 71.804082 91.25064 
L 80.790315 89.166 
L 89.799637 89.56848 
L 98.719739 90.93072 
L 107.951274 89.41368 
L 116.884539 90.37344 
L 125.931993 89.79552 
L 134.907884 90.23928 
L 143.953771 88.0824 
L 152.975942 88.7532 
L 161.933132 90.16704 
L 171.04724 90.67272 
L 180.100754 90.18768 
L 189.069226 89.2692 
L 198.092129 89.54784 
L 207.154105 89.49624 
L 216.163113 88.31976 
L 225.177554 88.45392 
L 234.376703 88.46424 
L 243.428649 86.38992 
L 252.297141 84.80064 
L 261.392444 84.8316 
L 270.421407 86.586 
L 279.36 87.74184 
" clip-path="url(#pd21a7188a7)" style="fill: none; stroke: #4a8dff; stroke-width: 0.6"/>
   </g>
   <g id="line2d_7">
    <path d="M 8.64 101.034 
L 17.655485 101.19912 
L 26.629182 101.10624 
L 35.600475 100.97208 
L 44.730045 100.91016 
L 53.783663 101.7564 
L 62.047571 101.84928 
L 71.804082 101.56032 
L 80.790315 100.85856 
L 89.799637 101.12688 
L 98.719739 101.4468 
L 107.951274 101.02368 
L 116.884539 101.30232 
L 125.931993 100.81728 
L 134.907884 100.79664 
L 143.953771 99.3312 
L 152.975942 99.92976 
L 161.933132 100.78632 
L 171.04724 101.17848 
L 180.100754 101.1372 
L 189.069226 100.21872 
L 198.092129 100.37352 
L 207.154105 100.4664 
L 216.163113 99.88848 
L 225.177554 99.94008 
L 234.376703 99.81624 
L 243.428649 98.93904 
L 252.297141 98.3508 
L 261.392444 98.52624 
L 270.421407 99.78528 
L 279.36 100.12584 
" clip-path="url(#pd21a7188a7)" style="fill: none; stroke: #f5841e; stroke-width: 0.6"/>
   </g>
  </g>
 </g>
 <defs>
  <clipPath id="pd21a7188a7">
   <rect x="8.64" y="4.8" width="270.72" height="103.2"/>
  </clipPath>
 </defs>
</svg>
