<?xml version="1.0" encoding="utf-8" standalone="no"?>
<!DOCTYPE svg PUBLIC "-//W3C//DTD SVG 1.1//EN"
  "http://www.w3.org/Graphics/SVG/1.1/DTD/svg11.dtd">
<svg xmlns:xlink="http://www.w3.org/1999/xlink" width="288pt" height="120pt" viewBox="0 0 288 120" xmlns="http://www.w3.org/2000/svg" version="1.1">
<desc id="nav-meta">{"window":"3m","count":4,"labels":["21.02","23.03","21.04","21.05"],"tick_utc":["2026-02-21T03:11:36Z","2026-03-23T03:35:18Z","2026-04-21T03:56:07Z","2026-05-21T04:59:27Z"],"w":720,"h":300}</desc>

 <metadata>
  <rdf:RDF xmlns:dc="http://purl.org/dc/elements/1.1/" xmlns:cc="http://creativecommons.org/ns#" xmlns:rdf="http://www.w3.org/1999/02/22-rdf-syntax-ns#">
   <cc:Work>
    <dc:type rdf:resource="http://purl.org/dc/dcmitype/StillImage"/>
    <dc:date>2026-05-21T20:25:51.211290</dc:date>
    <dc:format>image/svg+xml</dc:format>
    <dc:creator>
     <cc:Agent>
      <dc:title>Matplotlib v3.10.9, https://matplotlib.org/</dc:title>
     </cc:Agent>
    </dc:creator>
   </cc:Work>
  </rdf:RDF>
 </metadata>
 <defs>
  <style type="text/css">*{stroke-linejoin: round; stroke-linecap: butt}</style>
 </defs>
 <g id="figure_1">
  <g id="patch_1">
   <path d="M 0 120 
L 288 120 
L 288 0 
L 0 0 
L 0 120 
z
" style="fill: none; opacity: 0"/>
  </g>
  <g id="axes_1">
   <g id="patch_2">
    <path d="M 8.64 108 
L 279.36 108 
L 279.36 4.8 
L 8.64 4.8 
L 8.64 108 
z
" style="fill: none"/>
   </g>
   <g id="matplotlib.axis_1"/>
   <g id="matplotlib.axis_2"/>
   <g id="line2d_1">
    <path d="M 8.64 87.36 
L 279.36 87.36 
" clip-path="url(#pc9468cc748)" style="fill: none; stroke: #b2b2b2; stroke-opacity: 0.35; stroke-width: 0.5; stroke-linecap: square"/>
   </g>
   <g id="line2d_2">
    <path d="M 8.64 66.72 
L 279.36 66.72 
" clip-path="url(#pc9468cc748)" style="fill: none; stroke: #b2b2b2; stroke-opacity: 0.35; stroke-width: 0.5; stroke-linecap: square"/>
   </g>
   <g id="line2d_3">
    <path d="M 8.64 46.08 
L 279.36 46.08 
" clip-path="url(#pc9468cc748)" style="fill: none; stroke: #b2b2b2; stroke-opacity: 0.35; stroke-width: 0.5; stroke-linecap: square"/>
   </g>
   <g id="line2d_4">
    <path d="M 8.64 25.44 
L 279.36 25.44 
" clip-path="url(#pc9468cc748)" style="fill: none; stroke: #b2b2b2; stroke-opacity: 0.35; stroke-width: 0.5; stroke-linecap: square"/>
   </g>
   <g id="line2d_5">
    <path d="M 8.64 101.1372 
L 11.713959 101.06496 
L 14.762345 102.09696 
L 17.544833 102.05568 
L 20.829886 101.4984 
L 23.855583 100.60056 
L 26.889054 100.80696 
L 29.892485 101.45712 
L 33.000776 100.55928 
L 36.008639 101.10624 
L 39.05495 100.8792 
L 42.077164 100.74504 
L 45.122947 100.21872 
L 48.160745 100.53864 
L 51.176663 101.07528 
L 54.245417 101.38488 
L 57.293767 101.26104 
L 60.313485 100.78632 
L 63.351529 100.91016 
L 66.402729 100.99272 
L 69.436095 100.38384 
L 72.47129 100.50768 
L 75.568676 100.60056 
L 78.616499 99.76464 
L 81.602553 99.49632 
L 84.664974 99.40344 
L 87.705059 100.09488 
L 90.714715 100.3632 
L 93.736156 100.19808 
L 96.820844 100.47672 
L 99.867225 100.79664 
L 102.878324 100.26 
L 106.143925 99.83688 
L 108.993775 100.13616 
L 112.03685 100.80696 
L 115.047034 101.38488 
L 118.127677 101.3436 
L 121.175605 101.292 
L 124.195674 101.28168 
L 127.26098 101.28168 
L 130.26019 101.8596 
L 133.302912 101.88024 
L 136.316122 101.72544 
L 139.401127 101.68416 
L 142.448211 101.47776 
L 145.467717 101.78736 
L 148.511882 101.09592 
L 151.540534 101.46744 
L 154.60774 101.3436 
L 157.600512 101.05464 
L 160.694275 101.3952 
L 163.749099 101.47776 
L 166.768992 100.86888 
L 169.80591 101.26104 
L 172.858306 100.99272 
L 175.891355 100.61088 
L 178.897073 100.44576 
L 181.976449 100.94112 
L 185.023217 101.09592 
L 188.049125 101.00304 
L 191.078938 100.69344 
L 194.13049 100.9308 
L 197.177785 100.92048 
L 200.180759 100.81728 
L 203.267276 100.8792 
L 206.339265 100.64184 
L 209.384872 101.1888 
L 212.415811 101.09592 
L 215.460152 101.37456 
L 218.532598 101.21976 
L 221.494275 101.20944 
L 224.595214 101.23008 
L 227.633399 100.92048 
L 230.605698 101.06496 
L 233.698477 100.70376 
L 236.738526 100.55928 
L 239.727183 100.53864 
L 242.777539 99.60984 
L 245.878021 99.72336 
L 248.941251 99.44472 
L 251.93828 99.25896 
L 254.991977 99.32088 
L 258.027841 100.22904 
L 261.082066 100.01232 
L 264.082507 100.43544 
L 267.167124 100.75536 
L 270.235877 101.02368 
L 273.253343 101.02368 
L 276.303453 101.17848 
L 279.36 100.7244 
" clip-path="url(#pc9468cc748)" style="fill: none; stroke: #bebebe; stroke-width: 0.5; stroke-linecap: round"/>
   </g>
   <g id="line2d_6">
    <path d="M 8.64 90.5076 
L 11.713959 90.3528 
L 14.762345 92.004 
L 17.544833 92.13816 
L 20.829886 91.25064 
L 23.855583 89.166 
L 26.889054 89.56848 
L 29.892485 90.93072 
L 33.000776 89.41368 
L 36.008639 90.37344 
L 39.05495 89.79552 
L 42.077164 90.23928 
L 45.122947 88.0824 
L 48.160745 88.7532 
L 51.176663 90.16704 
L 54.245417 90.67272 
L 57.293767 90.18768 
L 60.313485 89.2692 
L 63.351529 89.54784 
L 66.402729 89.49624 
L 69.436095 88.31976 
L 72.47129 88.45392 
L 75.568676 88.46424 
L 78.616499 86.38992 
L 81.602553 84.80064 
L 84.664974 84.8316 
L 87.705059 86.586 
L 90.714715 87.74184 
L 93.736156 87.618 
L 96.820844 88.19592 
L 99.867225 89.08344 
L 102.878324 87.89664 
L 106.143925 87.3084 
L 108.993775 87.65928 
L 112.03685 88.96992 
L 115.047034 90.07416 
L 118.127677 89.76456 
L 121.175605 89.3724 
L 124.195674 89.00088 
L 127.26098 88.42296 
L 130.26019 88.81512 
L 133.302912 89.10408 
L 136.316122 89.14536 
L 139.401127 89.07312 
L 142.448211 87.9792 
L 145.467717 88.29912 
L 148.511882 86.38992 
L 151.540534 87.24648 
L 154.60774 87.1536 
L 157.600512 86.21448 
L 160.694275 86.66856 
L 163.749099 87.01944 
L 166.768992 84.44976 
L 169.80591 85.05864 
L 172.858306 84.58392 
L 175.891355 85.04832 
L 178.897073 83.71704 
L 181.976449 84.86256 
L 185.023217 85.6572 
L 188.049125 85.27536 
L 191.078938 84.49104 
L 194.13049 84.86256 
L 197.177785 85.32696 
L 200.180759 85.17216 
L 203.267276 85.31664 
L 206.339265 84.11952 
L 209.384872 85.66752 
L 212.415811 85.26504 
L 215.460152 86.26608 
L 218.532598 85.77072 
L 221.494275 85.38888 
L 224.595214 85.3992 
L 227.633399 84.09888 
L 230.605698 84.22272 
L 233.698477 84.34656 
L 236.738526 85.06896 
L 239.727183 85.7604 
L 242.777539 85.0896 
L 245.878021 85.01736 
L 248.941251 84.9348 
L 251.93828 85.296 
L 254.991977 85.35792 
L 258.027841 86.1732 
L 261.082066 85.92552 
L 264.082507 86.55504 
L 267.167124 87.13296 
L 270.235877 88.10304 
L 273.253343 87.9276 
L 276.303453 88.26816 
L 279.36 87.78312 
" clip-path="url(#pc9468cc748)" style="fill: none; stroke: #4a8dff; stroke-width: 0.6"/>
   </g>
   <g id="line2d_7">
    <path d="M 8.64 100.97208 
L 11.713959 100.91016 
L 14.762345 101.7564 
L 17.544833 101.84928 
L 20.829886 101.56032 
L 23.855583 100.85856 
L 26.889054 101.12688 
L 29.892485 101.4468 
L 33.000776 101.02368 
L 36.008639 101.30232 
L 39.05495 100.81728 
L 42.077164 100.79664 
L 45.122947 99.3312 
L 48.160745 99.92976 
L 51.176663 100.78632 
L 54.245417 101.17848 
L 57.293767 101.1372 
L 60.313485 100.21872 
L 63.351529 100.37352 
L 66.402729 100.4664 
L 69.436095 99.88848 
L 72.47129 99.94008 
L 75.568676 99.81624 
L 78.616499 98.93904 
L 81.602553 98.3508 
L 84.664974 98.52624 
L 87.705059 99.78528 
L 90.714715 100.12584 
L 93.736156 100.03296 
L 96.820844 100.45608 
L 99.867225 100.83792 
L 102.878324 100.11552 
L 106.143925 99.87816 
L 108.993775 100.002 
L 112.03685 100.64184 
L 115.047034 101.41584 
L 118.127677 101.21976 
L 121.175605 101.14752 
L 124.195674 101.00304 
L 127.26098 100.86888 
L 130.26019 101.21976 
L 133.302912 101.28168 
L 136.316122 101.20944 
L 139.401127 101.14752 
L 142.448211 100.55928 
L 145.467717 100.65216 
L 148.511882 99.80592 
L 151.540534 99.96072 
L 154.60774 99.6408 
L 157.600512 99.1764 
L 160.694275 99.70272 
L 163.749099 99.94008 
L 166.768992 98.57784 
L 169.80591 98.65008 
L 172.858306 98.38176 
L 175.891355 98.48496 
L 178.897073 96.70992 
L 181.976449 98.05152 
L 185.023217 98.48496 
L 188.049125 97.96896 
L 191.078938 96.32808 
L 194.13049 96.20424 
L 197.177785 96.16296 
L 200.180759 96.1836 
L 203.267276 96.50352 
L 206.339265 94.76976 
L 209.384872 97.19496 
L 212.415811 96.9576 
L 215.460152 97.9896 
L 218.532598 96.89568 
L 221.494275 95.45088 
L 224.595214 95.67792 
L 227.633399 93.43848 
L 230.605698 92.90184 
L 233.698477 92.25168 
L 236.738526 92.87088 
L 239.727183 94.2744 
L 242.777539 93.1392 
L 245.878021 92.97408 
L 248.941251 92.9844 
L 251.93828 92.60256 
L 254.991977 92.53032 
L 258.027841 94.54272 
L 261.082066 92.85024 
L 264.082507 94.82136 
L 267.167124 95.75016 
L 270.235877 96.97824 
L 273.253343 97.08144 
L 276.303453 97.23624 
L 279.36 95.94624 
" clip-path="url(#pc9468cc748)" style="fill: none; stroke: #f5841e; stroke-width: 0.6"/>
   </g>
  </g>
 </g>
 <defs>
  <clipPath id="pc9468cc748">
   <rect x="8.64" y="4.8" width="270.72" height="103.2"/>
  </clipPath>
 </defs>
</svg>
