<?xml version="1.0" encoding="utf-8" standalone="no"?>
<!DOCTYPE svg PUBLIC "-//W3C//DTD SVG 1.1//EN"
  "http://www.w3.org/Graphics/SVG/1.1/DTD/svg11.dtd">
<svg xmlns:xlink="http://www.w3.org/1999/xlink" width="288pt" height="120pt" viewBox="0 0 288 120" xmlns="http://www.w3.org/2000/svg" version="1.1">
<desc id="nav-meta">{"window":"3m","count":4,"labels":["17.04","17.05","15.06","15.07"],"tick_utc":["2026-04-17T03:55:44Z","2026-05-17T04:42:26Z","2026-06-15T06:07:39Z","2026-07-15T03:47:50Z"],"w":720,"h":300}</desc>

 <metadata>
  <rdf:RDF xmlns:dc="http://purl.org/dc/elements/1.1/" xmlns:cc="http://creativecommons.org/ns#" xmlns:rdf="http://www.w3.org/1999/02/22-rdf-syntax-ns#">
   <cc:Work>
    <dc:type rdf:resource="http://purl.org/dc/dcmitype/StillImage"/>
    <dc:date>2026-07-15T08:59:22.204031</dc:date>
    <dc:format>image/svg+xml</dc:format>
    <dc:creator>
     <cc:Agent>
      <dc:title>Matplotlib v3.11.0, https://matplotlib.org/</dc:title>
     </cc:Agent>
    </dc:creator>
   </cc:Work>
  </rdf:RDF>
 </metadata>
 <defs>
  <style type="text/css">*{stroke-linejoin: round; stroke-linecap: butt}</style>
 </defs>
 <g id="figure_1">
  <g id="patch_1">
   <path d="M 0 120 
L 288 120 
L 288 0 
L 0 0 
L 0 120 
z
" style="fill: none; opacity: 0"/>
  </g>
  <g id="axes_1">
   <g id="patch_2">
    <path d="M 8.64 108 
L 279.36 108 
L 279.36 4.8 
L 8.64 4.8 
L 8.64 108 
z
" style="fill: none"/>
   </g>
   <g id="matplotlib.axis_1"/>
   <g id="matplotlib.axis_2"/>
   <g id="line2d_1">
    <path d="M 8.64 87.36 
L 279.36 87.36 
" clip-path="url(#p11229be5d6)" style="fill: none; stroke: #b2b2b2; stroke-opacity: 0.35; stroke-width: 0.5; stroke-linecap: square"/>
   </g>
   <g id="line2d_2">
    <path d="M 8.64 66.72 
L 279.36 66.72 
" clip-path="url(#p11229be5d6)" style="fill: none; stroke: #b2b2b2; stroke-opacity: 0.35; stroke-width: 0.5; stroke-linecap: square"/>
   </g>
   <g id="line2d_3">
    <path d="M 8.64 46.08 
L 279.36 46.08 
" clip-path="url(#p11229be5d6)" style="fill: none; stroke: #b2b2b2; stroke-opacity: 0.35; stroke-width: 0.5; stroke-linecap: square"/>
   </g>
   <g id="line2d_4">
    <path d="M 8.64 25.44 
L 279.36 25.44 
" clip-path="url(#p11229be5d6)" style="fill: none; stroke: #b2b2b2; stroke-opacity: 0.35; stroke-width: 0.5; stroke-linecap: square"/>
   </g>
   <g id="line2d_5">
    <path d="M 8.64 100.61088 
L 11.648432 100.44576 
L 14.73059 100.94112 
L 17.780109 101.09592 
L 20.808751 101.00304 
L 23.8413 100.69344 
L 26.895608 100.9308 
L 29.945656 100.92048 
L 32.951342 100.81728 
L 36.040647 100.8792 
L 39.115411 100.64184 
L 42.163769 101.1888 
L 45.197445 101.09592 
L 48.244536 101.37456 
L 51.319757 101.21976 
L 54.284109 101.20944 
L 57.387849 101.23008 
L 60.428778 100.92048 
L 63.403762 101.06496 
L 66.499334 100.70376 
L 69.542129 100.55928 
L 72.533485 100.53864 
L 75.586596 99.60984 
L 78.689879 99.72336 
L 81.755876 99.44472 
L 84.755612 99.25896 
L 87.812068 99.32088 
L 90.850673 100.22904 
L 93.907657 100.01232 
L 96.910807 100.43544 
L 99.998211 100.75536 
L 103.069736 101.02368 
L 106.089928 101.02368 
L 109.142792 101.17848 
L 112.2021 100.7244 
L 115.220777 100.75536 
L 118.22097 101.11656 
L 121.311121 100.91016 
L 124.393137 100.89984 
L 127.389035 101.1372 
L 130.46225 101.2404 
L 133.494518 101.6532 
L 136.538757 101.4984 
L 139.536872 101.48808 
L 142.640965 101.32296 
L 145.727946 101.51904 
L 148.740005 101.7048 
L 151.816212 102.54072 
L 154.847776 103.08768 
L 157.83966 103.36632 
L 160.834889 104.22288 
L 163.942255 103.85136 
L 166.99769 103.68624 
L 169.981617 103.43856 
L 173.055149 103.81008 
L 176.114985 103.72752 
L 179.168906 103.50048 
L 182.188639 103.5108 
L 185.2527 103.31472 
L 188.395803 102.95352 
L 191.455146 102.61296 
L 194.400239 102.6336 
L 197.427648 102.9948 
L 200.541282 103.28376 
L 203.461623 103.01544 
L 206.566912 102.69552 
L 209.697939 102.582 
L 212.558074 102.88128 
L 215.610939 103.15992 
L 218.652114 103.36632 
L 221.709697 103.36632 
L 224.714396 102.81936 
L 227.814369 103.0464 
L 230.87836 102.9432 
L 233.861371 102.59232 
L 236.94786 102.40656 
L 239.936575 102.02472 
L 242.945465 101.68416 
L 245.974353 101.3436 
L 249.060876 101.6532 
L 252.132331 101.6532 
L 255.128686 101.63256 
L 258.088003 101.95248 
L 261.222198 102.08664 
L 264.257318 101.9112 
L 267.209487 102.066 
L 270.296961 102.18984 
L 273.345601 102.31368 
L 276.31724 102.45816 
L 279.36 102.08664 
" clip-path="url(#p11229be5d6)" style="fill: none; stroke: #bebebe; stroke-width: 0.5; stroke-linecap: round"/>
   </g>
   <g id="line2d_6">
    <path d="M 8.64 85.04832 
L 11.648432 83.71704 
L 14.73059 84.86256 
L 17.780109 85.6572 
L 20.808751 85.27536 
L 23.8413 84.49104 
L 26.895608 84.86256 
L 29.945656 85.32696 
L 32.951342 85.17216 
L 36.040647 85.31664 
L 39.115411 84.11952 
L 42.163769 85.66752 
L 45.197445 85.26504 
L 48.244536 86.26608 
L 51.319757 85.77072 
L 54.284109 85.38888 
L 57.387849 85.3992 
L 60.428778 84.09888 
L 63.403762 84.22272 
L 66.499334 84.34656 
L 69.542129 85.06896 
L 72.533485 85.7604 
L 75.586596 85.0896 
L 78.689879 85.01736 
L 81.755876 84.9348 
L 84.755612 85.296 
L 87.812068 85.35792 
L 90.850673 86.1732 
L 93.907657 85.92552 
L 96.910807 86.55504 
L 99.998211 87.13296 
L 103.069736 88.10304 
L 106.089928 87.9276 
L 109.142792 88.26816 
L 112.2021 87.78312 
L 115.220777 87.95856 
L 118.22097 88.94928 
L 121.311121 88.14432 
L 124.393137 88.33008 
L 127.389035 88.52616 
L 130.46225 88.86672 
L 133.494518 90.22896 
L 136.538757 89.82648 
L 139.536872 89.87808 
L 142.640965 89.46528 
L 145.727946 90.0432 
L 148.740005 89.96064 
L 151.816212 91.99368 
L 154.847776 93.05664 
L 157.83966 93.74808 
L 160.834889 97.02984 
L 163.942255 95.93592 
L 166.99769 95.07936 
L 169.981617 94.46016 
L 173.055149 95.47152 
L 176.114985 95.11032 
L 179.168906 94.82136 
L 182.188639 94.8936 
L 185.2527 94.70784 
L 188.395803 94.04736 
L 191.455146 93.40752 
L 194.400239 92.9844 
L 197.427648 93.93384 
L 200.541282 94.4292 
L 203.461623 94.19184 
L 206.566912 93.87192 
L 209.697939 93.81 
L 212.558074 94.03704 
L 215.610939 94.83168 
L 218.652114 95.48184 
L 221.709697 96.63768 
L 224.714396 96.14232 
L 227.814369 96.30744 
L 230.87836 96.29712 
L 233.861371 96.04944 
L 236.94786 95.9256 
L 239.936575 95.39928 
L 242.945465 94.31568 
L 245.974353 93.57264 
L 249.060876 93.32496 
L 252.132331 93.22176 
L 255.128686 93.35592 
L 258.088003 93.61392 
L 261.222198 93.77904 
L 264.257318 93.26304 
L 267.209487 92.92248 
L 270.296961 92.71608 
L 273.345601 93.15984 
L 276.31724 93.17016 
L 279.36 91.80792 
" clip-path="url(#p11229be5d6)" style="fill: none; stroke: #4a8dff; stroke-width: 0.6"/>
   </g>
   <g id="line2d_7">
    <path d="M 8.64 98.48496 
L 11.648432 96.70992 
L 14.73059 98.05152 
L 17.780109 98.48496 
L 20.808751 97.96896 
L 23.8413 96.32808 
L 26.895608 96.20424 
L 29.945656 96.16296 
L 32.951342 96.1836 
L 36.040647 96.50352 
L 39.115411 94.76976 
L 42.163769 97.19496 
L 45.197445 96.9576 
L 48.244536 97.9896 
L 51.319757 96.89568 
L 54.284109 95.45088 
L 57.387849 95.67792 
L 60.428778 93.43848 
L 63.403762 92.90184 
L 66.499334 92.25168 
L 69.542129 92.87088 
L 72.533485 94.2744 
L 75.586596 93.1392 
L 78.689879 92.97408 
L 81.755876 92.9844 
L 84.755612 92.60256 
L 87.812068 92.53032 
L 90.850673 94.54272 
L 93.907657 92.85024 
L 96.910807 94.82136 
L 99.998211 95.75016 
L 103.069736 96.97824 
L 106.089928 97.08144 
L 109.142792 97.23624 
L 112.2021 95.94624 
L 115.220777 96.30744 
L 118.22097 98.08248 
L 121.311121 97.2672 
L 124.393137 96.61704 
L 127.389035 97.23624 
L 130.46225 98.08248 
L 133.494518 99.18672 
L 136.538757 99.03192 
L 139.536872 99.1248 
L 142.640965 98.74296 
L 145.727946 99.09384 
L 148.740005 100.0536 
L 151.816212 101.23008 
L 154.847776 101.99376 
L 157.83966 102.08664 
L 160.834889 102.8916 
L 163.942255 102.45816 
L 166.99769 102.28272 
L 169.981617 102.10728 
L 173.055149 102.582 
L 176.114985 102.29304 
L 179.168906 102.08664 
L 182.188639 102.066 
L 185.2527 101.86992 
L 188.395803 101.48808 
L 191.455146 101.40552 
L 194.400239 101.4984 
L 197.427648 101.97312 
L 200.541282 102.26208 
L 203.461623 102.066 
L 206.566912 101.90088 
L 209.697939 101.90088 
L 212.558074 102.0144 
L 215.610939 102.25176 
L 218.652114 102.6336 
L 221.709697 102.88128 
L 224.714396 102.77808 
L 227.814369 102.85032 
L 230.87836 102.93288 
L 233.861371 102.95352 
L 236.94786 103.00512 
L 239.936575 102.69552 
L 242.945465 102.55104 
L 245.974353 102.2724 
L 249.060876 102.21048 
L 252.132331 102.12792 
L 255.128686 102.13824 
L 258.088003 102.25176 
L 261.222198 102.36528 
L 264.257318 101.94216 
L 267.209487 101.92152 
L 270.296961 101.9112 
L 273.345601 102.2208 
L 276.31724 102.31368 
L 279.36 101.79768 
" clip-path="url(#p11229be5d6)" style="fill: none; stroke: #f5841e; stroke-width: 0.6"/>
   </g>
  </g>
 </g>
 <defs>
  <clipPath id="p11229be5d6">
   <rect x="8.64" y="4.8" width="270.72" height="103.2"/>
  </clipPath>
 </defs>
</svg>
