<?xml version="1.0" encoding="utf-8" standalone="no"?>
<!DOCTYPE svg PUBLIC "-//W3C//DTD SVG 1.1//EN"
  "http://www.w3.org/Graphics/SVG/1.1/DTD/svg11.dtd">
<svg xmlns:xlink="http://www.w3.org/1999/xlink" width="288pt" height="120pt" viewBox="0 0 288 120" xmlns="http://www.w3.org/2000/svg" version="1.1">
<desc id="nav-meta">{"window":"3m","count":4,"labels":["28.02","30.03","28.04","28.05"],"tick_utc":["2026-02-28T03:01:05Z","2026-03-30T03:51:16Z","2026-04-28T04:25:03Z","2026-05-28T04:58:45Z"],"w":720,"h":300}</desc>

 <metadata>
  <rdf:RDF xmlns:dc="http://purl.org/dc/elements/1.1/" xmlns:cc="http://creativecommons.org/ns#" xmlns:rdf="http://www.w3.org/1999/02/22-rdf-syntax-ns#">
   <cc:Work>
    <dc:type rdf:resource="http://purl.org/dc/dcmitype/StillImage"/>
    <dc:date>2026-05-28T20:58:27.303128</dc:date>
    <dc:format>image/svg+xml</dc:format>
    <dc:creator>
     <cc:Agent>
      <dc:title>Matplotlib v3.10.9, https://matplotlib.org/</dc:title>
     </cc:Agent>
    </dc:creator>
   </cc:Work>
  </rdf:RDF>
 </metadata>
 <defs>
  <style type="text/css">*{stroke-linejoin: round; stroke-linecap: butt}</style>
 </defs>
 <g id="figure_1">
  <g id="patch_1">
   <path d="M 0 120 
L 288 120 
L 288 0 
L 0 0 
L 0 120 
z
" style="fill: none; opacity: 0"/>
  </g>
  <g id="axes_1">
   <g id="patch_2">
    <path d="M 8.64 108 
L 279.36 108 
L 279.36 4.8 
L 8.64 4.8 
L 8.64 108 
z
" style="fill: none"/>
   </g>
   <g id="matplotlib.axis_1"/>
   <g id="matplotlib.axis_2"/>
   <g id="line2d_1">
    <path d="M 8.64 87.36 
L 279.36 87.36 
" clip-path="url(#pb231bd908a)" style="fill: none; stroke: #b2b2b2; stroke-opacity: 0.35; stroke-width: 0.5; stroke-linecap: square"/>
   </g>
   <g id="line2d_2">
    <path d="M 8.64 66.72 
L 279.36 66.72 
" clip-path="url(#pb231bd908a)" style="fill: none; stroke: #b2b2b2; stroke-opacity: 0.35; stroke-width: 0.5; stroke-linecap: square"/>
   </g>
   <g id="line2d_3">
    <path d="M 8.64 46.08 
L 279.36 46.08 
" clip-path="url(#pb231bd908a)" style="fill: none; stroke: #b2b2b2; stroke-opacity: 0.35; stroke-width: 0.5; stroke-linecap: square"/>
   </g>
   <g id="line2d_4">
    <path d="M 8.64 25.44 
L 279.36 25.44 
" clip-path="url(#pb231bd908a)" style="fill: none; stroke: #b2b2b2; stroke-opacity: 0.35; stroke-width: 0.5; stroke-linecap: square"/>
   </g>
   <g id="line2d_5">
    <path d="M 8.64 101.45712 
L 11.748054 100.55928 
L 14.755686 101.10624 
L 17.801764 100.8792 
L 20.823747 100.74504 
L 23.869297 100.21872 
L 26.906862 100.53864 
L 29.92255 101.07528 
L 32.991068 101.38488 
L 36.039186 101.26104 
L 39.058672 100.78632 
L 42.096484 100.91016 
L 45.14745 100.99272 
L 48.180584 100.38384 
L 51.215546 100.50768 
L 54.312696 100.60056 
L 57.360286 99.76464 
L 60.346111 99.49632 
L 63.408298 99.40344 
L 66.44815 100.09488 
L 69.457576 100.3632 
L 72.478786 100.19808 
L 75.563238 100.47672 
L 78.609386 100.79664 
L 81.620254 100.26 
L 84.885605 99.83688 
L 87.735237 100.13616 
L 90.778079 100.80696 
L 93.788033 101.38488 
L 96.86844 101.3436 
L 99.916135 101.292 
L 102.935973 101.28168 
L 106.001044 101.28168 
L 109.000024 101.8596 
L 112.042514 101.88024 
L 115.055493 101.72544 
L 118.140262 101.68416 
L 121.187113 101.47776 
L 124.206388 101.78736 
L 127.25032 101.09592 
L 130.27874 101.46744 
L 133.345711 101.3436 
L 136.338254 101.05464 
L 139.431781 101.3952 
L 142.48637 101.47776 
L 145.506032 100.86888 
L 148.542718 101.26104 
L 151.594881 100.99272 
L 154.627698 100.61088 
L 157.633185 100.44576 
L 160.712326 100.94112 
L 163.75886 101.09592 
L 166.784537 101.00304 
L 169.814118 100.69344 
L 172.865437 100.9308 
L 175.912499 100.92048 
L 178.915242 100.81728 
L 182.001523 100.8792 
L 185.073278 100.64184 
L 188.118652 101.1888 
L 191.149358 101.09592 
L 194.193466 101.37456 
L 197.265678 101.21976 
L 200.227127 101.20944 
L 203.327829 101.23008 
L 206.365782 100.92048 
L 209.337854 101.06496 
L 212.430396 100.70376 
L 215.470212 100.55928 
L 218.45864 100.53864 
L 221.508763 99.60984 
L 224.609007 99.72336 
L 227.672004 99.44472 
L 230.668803 99.25896 
L 233.722267 99.32088 
L 236.757897 100.22904 
L 239.811889 100.01232 
L 242.8121 100.43544 
L 245.896482 100.75536 
L 248.965 101.02368 
L 251.982235 101.02368 
L 255.032111 101.17848 
L 258.088424 100.7244 
L 261.104147 100.75536 
L 264.101403 101.11656 
L 267.188528 100.91016 
L 270.267529 100.89984 
L 273.260494 101.1372 
L 276.3307 101.2404 
L 279.36 101.6532 
" clip-path="url(#pb231bd908a)" style="fill: none; stroke: #bebebe; stroke-width: 0.5; stroke-linecap: round"/>
   </g>
   <g id="line2d_6">
    <path d="M 8.64 90.93072 
L 11.748054 89.41368 
L 14.755686 90.37344 
L 17.801764 89.79552 
L 20.823747 90.23928 
L 23.869297 88.0824 
L 26.906862 88.7532 
L 29.92255 90.16704 
L 32.991068 90.67272 
L 36.039186 90.18768 
L 39.058672 89.2692 
L 42.096484 89.54784 
L 45.14745 89.49624 
L 48.180584 88.31976 
L 51.215546 88.45392 
L 54.312696 88.46424 
L 57.360286 86.38992 
L 60.346111 84.80064 
L 63.408298 84.8316 
L 66.44815 86.586 
L 69.457576 87.74184 
L 72.478786 87.618 
L 75.563238 88.19592 
L 78.609386 89.08344 
L 81.620254 87.89664 
L 84.885605 87.3084 
L 87.735237 87.65928 
L 90.778079 88.96992 
L 93.788033 90.07416 
L 96.86844 89.76456 
L 99.916135 89.3724 
L 102.935973 89.00088 
L 106.001044 88.42296 
L 109.000024 88.81512 
L 112.042514 89.10408 
L 115.055493 89.14536 
L 118.140262 89.07312 
L 121.187113 87.9792 
L 124.206388 88.29912 
L 127.25032 86.38992 
L 130.27874 87.24648 
L 133.345711 87.1536 
L 136.338254 86.21448 
L 139.431781 86.66856 
L 142.48637 87.01944 
L 145.506032 84.44976 
L 148.542718 85.05864 
L 151.594881 84.58392 
L 154.627698 85.04832 
L 157.633185 83.71704 
L 160.712326 84.86256 
L 163.75886 85.6572 
L 166.784537 85.27536 
L 169.814118 84.49104 
L 172.865437 84.86256 
L 175.912499 85.32696 
L 178.915242 85.17216 
L 182.001523 85.31664 
L 185.073278 84.11952 
L 188.118652 85.66752 
L 191.149358 85.26504 
L 194.193466 86.26608 
L 197.265678 85.77072 
L 200.227127 85.38888 
L 203.327829 85.3992 
L 206.365782 84.09888 
L 209.337854 84.22272 
L 212.430396 84.34656 
L 215.470212 85.06896 
L 218.45864 85.7604 
L 221.508763 85.0896 
L 224.609007 85.01736 
L 227.672004 84.9348 
L 230.668803 85.296 
L 233.722267 85.35792 
L 236.757897 86.1732 
L 239.811889 85.92552 
L 242.8121 86.55504 
L 245.896482 87.13296 
L 248.965 88.10304 
L 251.982235 87.9276 
L 255.032111 88.26816 
L 258.088424 87.78312 
L 261.104147 87.95856 
L 264.101403 88.94928 
L 267.188528 88.14432 
L 270.267529 88.33008 
L 273.260494 88.52616 
L 276.3307 88.86672 
L 279.36 90.22896 
" clip-path="url(#pb231bd908a)" style="fill: none; stroke: #4a8dff; stroke-width: 0.6"/>
   </g>
   <g id="line2d_7">
    <path d="M 8.64 101.4468 
L 11.748054 101.02368 
L 14.755686 101.30232 
L 17.801764 100.81728 
L 20.823747 100.79664 
L 23.869297 99.3312 
L 26.906862 99.92976 
L 29.92255 100.78632 
L 32.991068 101.17848 
L 36.039186 101.1372 
L 39.058672 100.21872 
L 42.096484 100.37352 
L 45.14745 100.4664 
L 48.180584 99.88848 
L 51.215546 99.94008 
L 54.312696 99.81624 
L 57.360286 98.93904 
L 60.346111 98.3508 
L 63.408298 98.52624 
L 66.44815 99.78528 
L 69.457576 100.12584 
L 72.478786 100.03296 
L 75.563238 100.45608 
L 78.609386 100.83792 
L 81.620254 100.11552 
L 84.885605 99.87816 
L 87.735237 100.002 
L 90.778079 100.64184 
L 93.788033 101.41584 
L 96.86844 101.21976 
L 99.916135 101.14752 
L 102.935973 101.00304 
L 106.001044 100.86888 
L 109.000024 101.21976 
L 112.042514 101.28168 
L 115.055493 101.20944 
L 118.140262 101.14752 
L 121.187113 100.55928 
L 124.206388 100.65216 
L 127.25032 99.80592 
L 130.27874 99.96072 
L 133.345711 99.6408 
L 136.338254 99.1764 
L 139.431781 99.70272 
L 142.48637 99.94008 
L 145.506032 98.57784 
L 148.542718 98.65008 
L 151.594881 98.38176 
L 154.627698 98.48496 
L 157.633185 96.70992 
L 160.712326 98.05152 
L 163.75886 98.48496 
L 166.784537 97.96896 
L 169.814118 96.32808 
L 172.865437 96.20424 
L 175.912499 96.16296 
L 178.915242 96.1836 
L 182.001523 96.50352 
L 185.073278 94.76976 
L 188.118652 97.19496 
L 191.149358 96.9576 
L 194.193466 97.9896 
L 197.265678 96.89568 
L 200.227127 95.45088 
L 203.327829 95.67792 
L 206.365782 93.43848 
L 209.337854 92.90184 
L 212.430396 92.25168 
L 215.470212 92.87088 
L 218.45864 94.2744 
L 221.508763 93.1392 
L 224.609007 92.97408 
L 227.672004 92.9844 
L 230.668803 92.60256 
L 233.722267 92.53032 
L 236.757897 94.54272 
L 239.811889 92.85024 
L 242.8121 94.82136 
L 245.896482 95.75016 
L 248.965 96.97824 
L 251.982235 97.08144 
L 255.032111 97.23624 
L 258.088424 95.94624 
L 261.104147 96.30744 
L 264.101403 98.08248 
L 267.188528 97.2672 
L 270.267529 96.61704 
L 273.260494 97.23624 
L 276.3307 98.08248 
L 279.36 99.18672 
" clip-path="url(#pb231bd908a)" style="fill: none; stroke: #f5841e; stroke-width: 0.6"/>
   </g>
  </g>
 </g>
 <defs>
  <clipPath id="pb231bd908a">
   <rect x="8.64" y="4.8" width="270.72" height="103.2"/>
  </clipPath>
 </defs>
</svg>
