<?xml version="1.0" encoding="utf-8" standalone="no"?>
<!DOCTYPE svg PUBLIC "-//W3C//DTD SVG 1.1//EN"
  "http://www.w3.org/Graphics/SVG/1.1/DTD/svg11.dtd">
<svg xmlns:xlink="http://www.w3.org/1999/xlink" width="288pt" height="120pt" viewBox="0 0 288 120" xmlns="http://www.w3.org/2000/svg" version="1.1">
<desc id="nav-meta">{"window":"3m","count":4,"labels":["23.01","22.02","24.03","23.04"],"tick_utc":["2026-01-23T12:00:00Z","2026-02-22T03:28:03Z","2026-03-24T03:21:58Z","2026-04-23T03:57:29Z"],"w":720,"h":300}</desc>

 <metadata>
  <rdf:RDF xmlns:dc="http://purl.org/dc/elements/1.1/" xmlns:cc="http://creativecommons.org/ns#" xmlns:rdf="http://www.w3.org/1999/02/22-rdf-syntax-ns#">
   <cc:Work>
    <dc:type rdf:resource="http://purl.org/dc/dcmitype/StillImage"/>
    <dc:date>2026-04-23T08:23:58.583724</dc:date>
    <dc:format>image/svg+xml</dc:format>
    <dc:creator>
     <cc:Agent>
      <dc:title>Matplotlib v3.10.8, https://matplotlib.org/</dc:title>
     </cc:Agent>
    </dc:creator>
   </cc:Work>
  </rdf:RDF>
 </metadata>
 <defs>
  <style type="text/css">*{stroke-linejoin: round; stroke-linecap: butt}</style>
 </defs>
 <g id="figure_1">
  <g id="patch_1">
   <path d="M 0 120 
L 288 120 
L 288 0 
L 0 0 
L 0 120 
z
" style="fill: none; opacity: 0"/>
  </g>
  <g id="axes_1">
   <g id="patch_2">
    <path d="M 8.64 108 
L 279.36 108 
L 279.36 4.8 
L 8.64 4.8 
L 8.64 108 
z
" style="fill: none"/>
   </g>
   <g id="matplotlib.axis_1"/>
   <g id="matplotlib.axis_2"/>
   <g id="line2d_1">
    <path d="M 8.64 87.36 
L 279.36 87.36 
" clip-path="url(#p1c8d014746)" style="fill: none; stroke: #b2b2b2; stroke-opacity: 0.35; stroke-width: 0.5; stroke-linecap: square"/>
   </g>
   <g id="line2d_2">
    <path d="M 8.64 66.72 
L 279.36 66.72 
" clip-path="url(#p1c8d014746)" style="fill: none; stroke: #b2b2b2; stroke-opacity: 0.35; stroke-width: 0.5; stroke-linecap: square"/>
   </g>
   <g id="line2d_3">
    <path d="M 8.64 46.08 
L 279.36 46.08 
" clip-path="url(#p1c8d014746)" style="fill: none; stroke: #b2b2b2; stroke-opacity: 0.35; stroke-width: 0.5; stroke-linecap: square"/>
   </g>
   <g id="line2d_4">
    <path d="M 8.64 25.44 
L 279.36 25.44 
" clip-path="url(#p1c8d014746)" style="fill: none; stroke: #b2b2b2; stroke-opacity: 0.35; stroke-width: 0.5; stroke-linecap: square"/>
   </g>
   <g id="line2d_5">
    <path d="M 8.64 91.46736 
L 11.659241 91.73568 
L 14.678482 91.78728 
L 17.697723 94.0164 
L 20.716964 92.5716 
L 23.736205 91.76664 
L 26.755446 92.33424 
L 29.774687 94.36728 
L 32.793928 94.46016 
L 35.813169 97.71096 
L 38.83241 98.48496 
L 41.851651 97.85544 
L 44.400568 99.10416 
L 46.799921 100.16712 
L 49.817625 102.23112 
L 52.823936 100.54896 
L 55.912193 100.70376 
L 58.906519 100.68312 
L 61.942988 100.95144 
L 64.955973 101.28168 
L 67.964347 101.71512 
L 70.982679 101.84928 
L 73.965612 101.034 
L 76.825539 100.54896 
L 80.038445 101.04432 
L 82.678429 100.81728 
L 86.07214 101.034 
L 89.087711 101.4984 
L 92.089305 101.33328 
L 95.090095 101.1372 
L 98.143827 101.06496 
L 101.172154 102.09696 
L 103.936332 102.05568 
L 107.199768 101.4984 
L 110.205555 100.60056 
L 113.219065 100.80696 
L 116.202732 101.45712 
L 119.29057 100.55928 
L 122.27864 101.10624 
L 125.304905 100.8792 
L 128.307233 100.74504 
L 131.332974 100.21872 
L 134.350782 100.53864 
L 137.346854 101.07528 
L 140.395414 101.38488 
L 143.423706 101.26104 
L 146.423552 100.78632 
L 149.441605 100.91016 
L 152.472728 100.99272 
L 155.486133 100.38384 
L 158.501355 100.50768 
L 161.57836 100.60056 
L 164.606128 99.76464 
L 167.572532 99.49632 
L 170.614802 99.40344 
L 173.634881 100.09488 
L 176.624734 100.3632 
L 179.626293 100.19808 
L 182.690682 100.47672 
L 185.717017 100.79664 
L 188.708302 100.26 
L 191.952414 99.83688 
L 194.783511 100.13616 
L 197.806561 100.80696 
L 200.796938 101.38488 
L 203.857309 101.3436 
L 206.885181 101.292 
L 209.885377 101.28168 
L 212.930513 101.28168 
L 215.909986 101.8596 
L 218.932687 101.88024 
L 221.926069 101.72544 
L 224.990773 101.68416 
L 228.017807 101.47776 
L 231.017444 101.78736 
L 234.041577 101.09592 
L 237.0503 101.46744 
L 240.097322 101.3436 
L 243.0704 101.05464 
L 246.143806 101.3952 
L 249.178528 101.47776 
L 252.178549 100.86888 
L 255.195484 101.26104 
L 258.227794 100.99272 
L 261.240885 100.61088 
L 264.226823 100.44576 
L 267.285936 100.94112 
L 270.312656 101.09592 
L 273.318653 101.00304 
L 276.328528 100.69344 
L 279.36 100.9308 
" clip-path="url(#p1c8d014746)" style="fill: none; stroke: #bebebe; stroke-width: 0.5; stroke-linecap: round"/>
   </g>
   <g id="line2d_6">
    <path d="M 8.64 75.83256 
L 11.659241 75.79128 
L 14.678482 75.82224 
L 17.697723 77.82432 
L 20.716964 76.14216 
L 23.736205 74.75928 
L 26.755446 74.96568 
L 29.774687 77.75208 
L 32.793928 79.48584 
L 35.813169 83.31456 
L 38.83241 85.90488 
L 41.851651 84.79032 
L 44.400568 85.84296 
L 46.799921 88.25784 
L 49.817625 91.41576 
L 52.823936 88.7532 
L 55.912193 88.65 
L 58.906519 88.55712 
L 61.942988 88.96992 
L 64.955973 89.7336 
L 67.964347 90.456 
L 70.982679 90.56952 
L 73.965612 89.15568 
L 76.825539 88.9596 
L 80.038445 90.6624 
L 82.678429 89.94 
L 86.07214 90.00192 
L 89.087711 90.3528 
L 92.089305 90.62112 
L 95.090095 90.5076 
L 98.143827 90.3528 
L 101.172154 92.004 
L 103.936332 92.13816 
L 107.199768 91.25064 
L 110.205555 89.166 
L 113.219065 89.56848 
L 116.202732 90.93072 
L 119.29057 89.41368 
L 122.27864 90.37344 
L 125.304905 89.79552 
L 128.307233 90.23928 
L 131.332974 88.0824 
L 134.350782 88.7532 
L 137.346854 90.16704 
L 140.395414 90.67272 
L 143.423706 90.18768 
L 146.423552 89.2692 
L 149.441605 89.54784 
L 152.472728 89.49624 
L 155.486133 88.31976 
L 158.501355 88.45392 
L 161.57836 88.46424 
L 164.606128 86.38992 
L 167.572532 84.80064 
L 170.614802 84.8316 
L 173.634881 86.586 
L 176.624734 87.74184 
L 179.626293 87.618 
L 182.690682 88.19592 
L 185.717017 89.08344 
L 188.708302 87.89664 
L 191.952414 87.3084 
L 194.783511 87.65928 
L 197.806561 88.96992 
L 200.796938 90.07416 
L 203.857309 89.76456 
L 206.885181 89.3724 
L 209.885377 89.00088 
L 212.930513 88.42296 
L 215.909986 88.81512 
L 218.932687 89.10408 
L 221.926069 89.14536 
L 224.990773 89.07312 
L 228.017807 87.9792 
L 231.017444 88.29912 
L 234.041577 86.38992 
L 237.0503 87.24648 
L 240.097322 87.1536 
L 243.0704 86.21448 
L 246.143806 86.66856 
L 249.178528 87.01944 
L 252.178549 84.44976 
L 255.195484 85.05864 
L 258.227794 84.58392 
L 261.240885 85.04832 
L 264.226823 83.71704 
L 267.285936 84.86256 
L 270.312656 85.6572 
L 273.318653 85.27536 
L 276.328528 84.49104 
L 279.36 84.86256 
" clip-path="url(#p1c8d014746)" style="fill: none; stroke: #4a8dff; stroke-width: 0.6"/>
   </g>
   <g id="line2d_7">
    <path d="M 8.64 84.03696 
L 11.659241 84.06792 
L 14.678482 84.3156 
L 17.697723 87.02976 
L 20.716964 85.21344 
L 23.736205 84.28464 
L 26.755446 84.32592 
L 29.774687 89.08344 
L 32.793928 89.5272 
L 35.813169 95.14128 
L 38.83241 96.98856 
L 41.851651 95.08968 
L 44.400568 97.71096 
L 46.799921 99.80592 
L 49.817625 101.79768 
L 52.823936 100.03296 
L 55.912193 100.518 
L 58.906519 99.98136 
L 61.942988 100.49736 
L 64.955973 100.78632 
L 67.964347 101.07528 
L 70.982679 101.26104 
L 73.965612 100.63152 
L 76.825539 100.38384 
L 80.038445 100.84824 
L 82.678429 100.65216 
L 86.07214 101.034 
L 89.087711 101.19912 
L 92.089305 101.10624 
L 95.090095 100.97208 
L 98.143827 100.91016 
L 101.172154 101.7564 
L 103.936332 101.84928 
L 107.199768 101.56032 
L 110.205555 100.85856 
L 113.219065 101.12688 
L 116.202732 101.4468 
L 119.29057 101.02368 
L 122.27864 101.30232 
L 125.304905 100.81728 
L 128.307233 100.79664 
L 131.332974 99.3312 
L 134.350782 99.92976 
L 137.346854 100.78632 
L 140.395414 101.17848 
L 143.423706 101.1372 
L 146.423552 100.21872 
L 149.441605 100.37352 
L 152.472728 100.4664 
L 155.486133 99.88848 
L 158.501355 99.94008 
L 161.57836 99.81624 
L 164.606128 98.93904 
L 167.572532 98.3508 
L 170.614802 98.52624 
L 173.634881 99.78528 
L 176.624734 100.12584 
L 179.626293 100.03296 
L 182.690682 100.45608 
L 185.717017 100.83792 
L 188.708302 100.11552 
L 191.952414 99.87816 
L 194.783511 100.002 
L 197.806561 100.64184 
L 200.796938 101.41584 
L 203.857309 101.21976 
L 206.885181 101.14752 
L 209.885377 101.00304 
L 212.930513 100.86888 
L 215.909986 101.21976 
L 218.932687 101.28168 
L 221.926069 101.20944 
L 224.990773 101.14752 
L 228.017807 100.55928 
L 231.017444 100.65216 
L 234.041577 99.80592 
L 237.0503 99.96072 
L 240.097322 99.6408 
L 243.0704 99.1764 
L 246.143806 99.70272 
L 249.178528 99.94008 
L 252.178549 98.57784 
L 255.195484 98.65008 
L 258.227794 98.38176 
L 261.240885 98.48496 
L 264.226823 96.70992 
L 267.285936 98.05152 
L 270.312656 98.48496 
L 273.318653 97.96896 
L 276.328528 96.32808 
L 279.36 96.20424 
" clip-path="url(#p1c8d014746)" style="fill: none; stroke: #f5841e; stroke-width: 0.6"/>
   </g>
  </g>
 </g>
 <defs>
  <clipPath id="p1c8d014746">
   <rect x="8.64" y="4.8" width="270.72" height="103.2"/>
  </clipPath>
 </defs>
</svg>
