<?xml version="1.0" encoding="utf-8" standalone="no"?>
<!DOCTYPE svg PUBLIC "-//W3C//DTD SVG 1.1//EN"
  "http://www.w3.org/Graphics/SVG/1.1/DTD/svg11.dtd">
<svg xmlns:xlink="http://www.w3.org/1999/xlink" width="288pt" height="120pt" viewBox="0 0 288 120" xmlns="http://www.w3.org/2000/svg" version="1.1">
<desc id="nav-meta">{"window":"3m","count":4,"labels":["08.01","07.02","08.03","07.04"],"tick_utc":["2026-01-08T12:00:00Z","2026-02-07T03:13:08Z","2026-03-08T03:19:34Z","2026-04-07T03:40:56Z"],"w":720,"h":300}</desc>

 <metadata>
  <rdf:RDF xmlns:dc="http://purl.org/dc/elements/1.1/" xmlns:cc="http://creativecommons.org/ns#" xmlns:rdf="http://www.w3.org/1999/02/22-rdf-syntax-ns#">
   <cc:Work>
    <dc:type rdf:resource="http://purl.org/dc/dcmitype/StillImage"/>
    <dc:date>2026-04-07T14:12:42.634018</dc:date>
    <dc:format>image/svg+xml</dc:format>
    <dc:creator>
     <cc:Agent>
      <dc:title>Matplotlib v3.10.8, https://matplotlib.org/</dc:title>
     </cc:Agent>
    </dc:creator>
   </cc:Work>
  </rdf:RDF>
 </metadata>
 <defs>
  <style type="text/css">*{stroke-linejoin: round; stroke-linecap: butt}</style>
 </defs>
 <g id="figure_1">
  <g id="patch_1">
   <path d="M 0 120 
L 288 120 
L 288 0 
L 0 0 
L 0 120 
z
" style="fill: none; opacity: 0"/>
  </g>
  <g id="axes_1">
   <g id="patch_2">
    <path d="M 8.64 108 
L 279.36 108 
L 279.36 4.8 
L 8.64 4.8 
L 8.64 108 
z
" style="fill: none"/>
   </g>
   <g id="matplotlib.axis_1"/>
   <g id="matplotlib.axis_2"/>
   <g id="line2d_1">
    <path d="M 8.64 87.36 
L 279.36 87.36 
" clip-path="url(#pe948e498d5)" style="fill: none; stroke: #b2b2b2; stroke-opacity: 0.35; stroke-width: 0.5; stroke-linecap: square"/>
   </g>
   <g id="line2d_2">
    <path d="M 8.64 66.72 
L 279.36 66.72 
" clip-path="url(#pe948e498d5)" style="fill: none; stroke: #b2b2b2; stroke-opacity: 0.35; stroke-width: 0.5; stroke-linecap: square"/>
   </g>
   <g id="line2d_3">
    <path d="M 8.64 46.08 
L 279.36 46.08 
" clip-path="url(#pe948e498d5)" style="fill: none; stroke: #b2b2b2; stroke-opacity: 0.35; stroke-width: 0.5; stroke-linecap: square"/>
   </g>
   <g id="line2d_4">
    <path d="M 8.64 25.44 
L 279.36 25.44 
" clip-path="url(#pe948e498d5)" style="fill: none; stroke: #b2b2b2; stroke-opacity: 0.35; stroke-width: 0.5; stroke-linecap: square"/>
   </g>
   <g id="line2d_5">
    <path d="M 8.64 89.2692 
L 11.693689 88.72224 
L 14.747378 89.39304 
L 17.801067 89.40336 
L 20.854756 88.41264 
L 23.908445 88.4952 
L 26.962135 86.86464 
L 30.015824 86.42088 
L 33.069513 87.62832 
L 36.123202 86.93688 
L 39.176891 87.23616 
L 42.23058 88.63968 
L 45.284269 90.0432 
L 48.337958 92.12784 
L 51.391647 91.16808 
L 54.445336 91.46736 
L 57.499026 91.73568 
L 60.552715 91.78728 
L 63.606404 94.0164 
L 66.660093 92.5716 
L 69.713782 91.76664 
L 72.767471 92.33424 
L 75.82116 94.36728 
L 78.874849 94.46016 
L 81.928538 97.71096 
L 84.982227 98.48496 
L 88.035916 97.85544 
L 90.613916 99.10416 
L 93.040644 100.16712 
L 96.092778 102.23112 
L 99.13339 100.54896 
L 102.256883 100.70376 
L 105.285372 100.68312 
L 108.356486 100.95144 
L 111.403848 101.28168 
L 114.446545 101.71512 
L 117.499316 101.84928 
L 120.516283 101.034 
L 123.40884 100.54896 
L 126.658404 101.04432 
L 129.328508 100.81728 
L 132.76094 101.034 
L 135.810918 101.4984 
L 138.846758 101.33328 
L 141.881786 101.1372 
L 144.970359 101.06496 
L 148.033238 102.09696 
L 150.828954 102.05568 
L 154.129624 101.4984 
L 157.169706 100.60056 
L 160.217598 100.80696 
L 163.235308 101.45712 
L 166.358376 100.55928 
L 169.380539 101.10624 
L 172.441332 100.8792 
L 175.477915 100.74504 
L 178.538178 100.21872 
L 181.590418 100.53864 
L 184.620674 101.07528 
L 187.704017 101.38488 
L 190.76686 101.26104 
L 193.800933 100.78632 
L 196.853421 100.91016 
L 199.919126 100.99272 
L 202.966913 100.38384 
L 206.016538 100.50768 
L 209.12865 100.60056 
L 212.190963 99.76464 
L 215.191212 99.49632 
L 218.268193 99.40344 
L 221.32273 100.09488 
L 224.346695 100.3632 
L 227.382501 100.19808 
L 230.481854 100.47672 
L 233.542717 100.79664 
L 236.568132 100.26 
L 239.849257 99.83688 
L 242.712656 100.13616 
L 245.770198 100.80696 
L 248.794693 101.38488 
L 251.889981 101.3436 
L 254.9524 101.292 
L 257.986827 101.28168 
L 261.066706 101.28168 
L 264.080174 101.8596 
L 267.137362 101.88024 
L 270.164897 101.72544 
L 273.264568 101.68416 
L 276.326139 101.47776 
L 279.36 101.78736 
" clip-path="url(#pe948e498d5)" style="fill: none; stroke: #bebebe; stroke-width: 0.5; stroke-linecap: round"/>
   </g>
   <g id="line2d_6">
    <path d="M 8.64 72.62304 
L 11.693689 73.52088 
L 14.747378 73.83048 
L 17.801067 73.8408 
L 20.854756 73.29384 
L 23.908445 73.72728 
L 26.962135 70.32168 
L 30.015824 69.77472 
L 33.069513 70.34232 
L 36.123202 70.67256 
L 39.176891 70.51776 
L 42.23058 70.848 
L 45.284269 72.31344 
L 48.337958 76.01832 
L 51.391647 75.41976 
L 54.445336 75.83256 
L 57.499026 75.79128 
L 60.552715 75.82224 
L 63.606404 77.82432 
L 66.660093 76.14216 
L 69.713782 74.75928 
L 72.767471 74.96568 
L 75.82116 77.75208 
L 78.874849 79.48584 
L 81.928538 83.31456 
L 84.982227 85.90488 
L 88.035916 84.79032 
L 90.613916 85.84296 
L 93.040644 88.25784 
L 96.092778 91.41576 
L 99.13339 88.7532 
L 102.256883 88.65 
L 105.285372 88.55712 
L 108.356486 88.96992 
L 111.403848 89.7336 
L 114.446545 90.456 
L 117.499316 90.56952 
L 120.516283 89.15568 
L 123.40884 88.9596 
L 126.658404 90.6624 
L 129.328508 89.94 
L 132.76094 90.00192 
L 135.810918 90.3528 
L 138.846758 90.62112 
L 141.881786 90.5076 
L 144.970359 90.3528 
L 148.033238 92.004 
L 150.828954 92.13816 
L 154.129624 91.25064 
L 157.169706 89.166 
L 160.217598 89.56848 
L 163.235308 90.93072 
L 166.358376 89.41368 
L 169.380539 90.37344 
L 172.441332 89.79552 
L 175.477915 90.23928 
L 178.538178 88.0824 
L 181.590418 88.7532 
L 184.620674 90.16704 
L 187.704017 90.67272 
L 190.76686 90.18768 
L 193.800933 89.2692 
L 196.853421 89.54784 
L 199.919126 89.49624 
L 202.966913 88.31976 
L 206.016538 88.45392 
L 209.12865 88.46424 
L 212.190963 86.38992 
L 215.191212 84.80064 
L 218.268193 84.8316 
L 221.32273 86.586 
L 224.346695 87.74184 
L 227.382501 87.618 
L 230.481854 88.19592 
L 233.542717 89.08344 
L 236.568132 87.89664 
L 239.849257 87.3084 
L 242.712656 87.65928 
L 245.770198 88.96992 
L 248.794693 90.07416 
L 251.889981 89.76456 
L 254.9524 89.3724 
L 257.986827 89.00088 
L 261.066706 88.42296 
L 264.080174 88.81512 
L 267.137362 89.10408 
L 270.164897 89.14536 
L 273.264568 89.07312 
L 276.326139 87.9792 
L 279.36 88.29912 
" clip-path="url(#pe948e498d5)" style="fill: none; stroke: #4a8dff; stroke-width: 0.6"/>
   </g>
   <g id="line2d_7">
    <path d="M 8.64 82.15872 
L 11.693689 82.43736 
L 14.747378 82.93272 
L 17.801067 83.00496 
L 20.854756 82.6128 
L 23.908445 82.28256 
L 26.962135 78.01008 
L 30.015824 76.19376 
L 33.069513 77.66952 
L 36.123202 77.74176 
L 39.176891 78.1752 
L 42.23058 79.5684 
L 45.284269 80.8068 
L 48.337958 85.20312 
L 51.391647 84.12984 
L 54.445336 84.03696 
L 57.499026 84.06792 
L 60.552715 84.3156 
L 63.606404 87.02976 
L 66.660093 85.21344 
L 69.713782 84.28464 
L 72.767471 84.32592 
L 75.82116 89.08344 
L 78.874849 89.5272 
L 81.928538 95.14128 
L 84.982227 96.98856 
L 88.035916 95.08968 
L 90.613916 97.71096 
L 93.040644 99.80592 
L 96.092778 101.79768 
L 99.13339 100.03296 
L 102.256883 100.518 
L 105.285372 99.98136 
L 108.356486 100.49736 
L 111.403848 100.78632 
L 114.446545 101.07528 
L 117.499316 101.26104 
L 120.516283 100.63152 
L 123.40884 100.38384 
L 126.658404 100.84824 
L 129.328508 100.65216 
L 132.76094 101.034 
L 135.810918 101.19912 
L 138.846758 101.10624 
L 141.881786 100.97208 
L 144.970359 100.91016 
L 148.033238 101.7564 
L 150.828954 101.84928 
L 154.129624 101.56032 
L 157.169706 100.85856 
L 160.217598 101.12688 
L 163.235308 101.4468 
L 166.358376 101.02368 
L 169.380539 101.30232 
L 172.441332 100.81728 
L 175.477915 100.79664 
L 178.538178 99.3312 
L 181.590418 99.92976 
L 184.620674 100.78632 
L 187.704017 101.17848 
L 190.76686 101.1372 
L 193.800933 100.21872 
L 196.853421 100.37352 
L 199.919126 100.4664 
L 202.966913 99.88848 
L 206.016538 99.94008 
L 209.12865 99.81624 
L 212.190963 98.93904 
L 215.191212 98.3508 
L 218.268193 98.52624 
L 221.32273 99.78528 
L 224.346695 100.12584 
L 227.382501 100.03296 
L 230.481854 100.45608 
L 233.542717 100.83792 
L 236.568132 100.11552 
L 239.849257 99.87816 
L 242.712656 100.002 
L 245.770198 100.64184 
L 248.794693 101.41584 
L 251.889981 101.21976 
L 254.9524 101.14752 
L 257.986827 101.00304 
L 261.066706 100.86888 
L 264.080174 101.21976 
L 267.137362 101.28168 
L 270.164897 101.20944 
L 273.264568 101.14752 
L 276.326139 100.55928 
L 279.36 100.65216 
" clip-path="url(#pe948e498d5)" style="fill: none; stroke: #f5841e; stroke-width: 0.6"/>
   </g>
  </g>
 </g>
 <defs>
  <clipPath id="pe948e498d5">
   <rect x="8.64" y="4.8" width="270.72" height="103.2"/>
  </clipPath>
 </defs>
</svg>
