<?xml version="1.0" encoding="utf-8" standalone="no"?>
<!DOCTYPE svg PUBLIC "-//W3C//DTD SVG 1.1//EN"
  "http://www.w3.org/Graphics/SVG/1.1/DTD/svg11.dtd">
<svg xmlns:xlink="http://www.w3.org/1999/xlink" width="288pt" height="120pt" viewBox="0 0 288 120" xmlns="http://www.w3.org/2000/svg" version="1.1">
<desc id="nav-meta">{"window":"1m","count":4,"labels":["19.06","29.06","08.07","18.07"],"tick_utc":["2026-06-19T05:57:01Z","2026-06-29T05:17:50Z","2026-07-08T03:58:12Z","2026-07-18T03:44:33Z"],"w":720,"h":300}</desc>

 <metadata>
  <rdf:RDF xmlns:dc="http://purl.org/dc/elements/1.1/" xmlns:cc="http://creativecommons.org/ns#" xmlns:rdf="http://www.w3.org/1999/02/22-rdf-syntax-ns#">
   <cc:Work>
    <dc:type rdf:resource="http://purl.org/dc/dcmitype/StillImage"/>
    <dc:date>2026-07-18T19:49:29.902864</dc:date>
    <dc:format>image/svg+xml</dc:format>
    <dc:creator>
     <cc:Agent>
      <dc:title>Matplotlib v3.11.1, https://matplotlib.org/</dc:title>
     </cc:Agent>
    </dc:creator>
   </cc:Work>
  </rdf:RDF>
 </metadata>
 <defs>
  <style type="text/css">*{stroke-linejoin: round; stroke-linecap: butt}</style>
 </defs>
 <g id="figure_1">
  <g id="patch_1">
   <path d="M 0 120 
L 288 120 
L 288 0 
L 0 0 
L 0 120 
z
" style="fill: none; opacity: 0"/>
  </g>
  <g id="axes_1">
   <g id="patch_2">
    <path d="M 8.64 108 
L 279.36 108 
L 279.36 4.8 
L 8.64 4.8 
L 8.64 108 
z
" style="fill: none"/>
   </g>
   <g id="matplotlib.axis_1"/>
   <g id="matplotlib.axis_2"/>
   <g id="line2d_1">
    <path d="M 8.64 87.36 
L 279.36 87.36 
" clip-path="url(#pd79e38999f)" style="fill: none; stroke: #b2b2b2; stroke-opacity: 0.35; stroke-width: 0.5; stroke-linecap: square"/>
   </g>
   <g id="line2d_2">
    <path d="M 8.64 66.72 
L 279.36 66.72 
" clip-path="url(#pd79e38999f)" style="fill: none; stroke: #b2b2b2; stroke-opacity: 0.35; stroke-width: 0.5; stroke-linecap: square"/>
   </g>
   <g id="line2d_3">
    <path d="M 8.64 46.08 
L 279.36 46.08 
" clip-path="url(#pd79e38999f)" style="fill: none; stroke: #b2b2b2; stroke-opacity: 0.35; stroke-width: 0.5; stroke-linecap: square"/>
   </g>
   <g id="line2d_4">
    <path d="M 8.64 25.44 
L 279.36 25.44 
" clip-path="url(#pd79e38999f)" style="fill: none; stroke: #b2b2b2; stroke-opacity: 0.35; stroke-width: 0.5; stroke-linecap: square"/>
   </g>
   <g id="line2d_5">
    <path d="M 8.64 103.28376 
L 17.630392 103.01544 
L 27.190155 102.69552 
L 36.829152 102.582 
L 45.634197 102.88128 
L 55.032569 103.15992 
L 64.394954 103.36632 
L 73.80785 103.36632 
L 83.057944 102.81936 
L 92.60134 103.0464 
L 102.033963 102.9432 
L 111.217288 102.59232 
L 120.719172 102.40656 
L 129.920057 102.02472 
L 139.183049 101.68416 
L 148.507607 101.3436 
L 158.009598 101.6532 
L 167.465199 101.6532 
L 176.689605 101.63256 
L 185.799984 101.95248 
L 195.448736 102.08664 
L 204.792479 101.9112 
L 213.880855 102.066 
L 223.385773 102.18984 
L 232.771138 102.31368 
L 241.919453 102.45816 
L 251.286717 102.08664 
L 260.675008 102.21048 
L 270.041404 102.4272 
L 279.36 102.4272 
" clip-path="url(#pd79e38999f)" style="fill: none; stroke: #bebebe; stroke-width: 0.5; stroke-linecap: round"/>
   </g>
   <g id="line2d_6">
    <path d="M 8.64 94.4292 
L 17.630392 94.19184 
L 27.190155 93.87192 
L 36.829152 93.81 
L 45.634197 94.03704 
L 55.032569 94.83168 
L 64.394954 95.48184 
L 73.80785 96.63768 
L 83.057944 96.14232 
L 92.60134 96.30744 
L 102.033963 96.29712 
L 111.217288 96.04944 
L 120.719172 95.9256 
L 129.920057 95.39928 
L 139.183049 94.31568 
L 148.507607 93.57264 
L 158.009598 93.32496 
L 167.465199 93.22176 
L 176.689605 93.35592 
L 185.799984 93.61392 
L 195.448736 93.77904 
L 204.792479 93.26304 
L 213.880855 92.92248 
L 223.385773 92.71608 
L 232.771138 93.15984 
L 241.919453 93.17016 
L 251.286717 91.80792 
L 260.675008 91.14744 
L 270.041404 92.13816 
L 279.36 92.25168 
" clip-path="url(#pd79e38999f)" style="fill: none; stroke: #4a8dff; stroke-width: 0.6"/>
   </g>
   <g id="line2d_7">
    <path d="M 8.64 102.26208 
L 17.630392 102.066 
L 27.190155 101.90088 
L 36.829152 101.90088 
L 45.634197 102.0144 
L 55.032569 102.25176 
L 64.394954 102.6336 
L 73.80785 102.88128 
L 83.057944 102.77808 
L 92.60134 102.85032 
L 102.033963 102.93288 
L 111.217288 102.95352 
L 120.719172 103.00512 
L 129.920057 102.69552 
L 139.183049 102.55104 
L 148.507607 102.2724 
L 158.009598 102.21048 
L 167.465199 102.12792 
L 176.689605 102.13824 
L 185.799984 102.25176 
L 195.448736 102.36528 
L 204.792479 101.94216 
L 213.880855 101.92152 
L 223.385773 101.9112 
L 232.771138 102.2208 
L 241.919453 102.31368 
L 251.286717 101.79768 
L 260.675008 101.81832 
L 270.041404 102.07632 
L 279.36 101.97312 
" clip-path="url(#pd79e38999f)" style="fill: none; stroke: #f5841e; stroke-width: 0.6"/>
   </g>
  </g>
 </g>
 <defs>
  <clipPath id="pd79e38999f">
   <rect x="8.64" y="4.8" width="270.72" height="103.2"/>
  </clipPath>
 </defs>
</svg>
