<?xml version="1.0" encoding="utf-8" standalone="no"?>
<!DOCTYPE svg PUBLIC "-//W3C//DTD SVG 1.1//EN"
  "http://www.w3.org/Graphics/SVG/1.1/DTD/svg11.dtd">
<svg xmlns:xlink="http://www.w3.org/1999/xlink" width="288pt" height="120pt" viewBox="0 0 288 120" xmlns="http://www.w3.org/2000/svg" version="1.1">
<desc id="nav-meta">{"window":"3m","count":4,"labels":["20.03","19.04","18.05","17.06"],"tick_utc":["2026-03-20T03:18:49Z","2026-04-19T03:58:52Z","2026-05-18T04:56:25Z","2026-06-17T05:30:00Z"],"w":720,"h":300}</desc>

 <metadata>
  <rdf:RDF xmlns:dc="http://purl.org/dc/elements/1.1/" xmlns:cc="http://creativecommons.org/ns#" xmlns:rdf="http://www.w3.org/1999/02/22-rdf-syntax-ns#">
   <cc:Work>
    <dc:type rdf:resource="http://purl.org/dc/dcmitype/StillImage"/>
    <dc:date>2026-06-17T11:22:56.561702</dc:date>
    <dc:format>image/svg+xml</dc:format>
    <dc:creator>
     <cc:Agent>
      <dc:title>Matplotlib v3.11.0, https://matplotlib.org/</dc:title>
     </cc:Agent>
    </dc:creator>
   </cc:Work>
  </rdf:RDF>
 </metadata>
 <defs>
  <style type="text/css">*{stroke-linejoin: round; stroke-linecap: butt}</style>
 </defs>
 <g id="figure_1">
  <g id="patch_1">
   <path d="M 0 120 
L 288 120 
L 288 0 
L 0 0 
L 0 120 
z
" style="fill: none; opacity: 0"/>
  </g>
  <g id="axes_1">
   <g id="patch_2">
    <path d="M 8.64 108 
L 279.36 108 
L 279.36 4.8 
L 8.64 4.8 
L 8.64 108 
z
" style="fill: none"/>
   </g>
   <g id="matplotlib.axis_1"/>
   <g id="matplotlib.axis_2"/>
   <g id="line2d_1">
    <path d="M 8.64 87.36 
L 279.36 87.36 
" clip-path="url(#pe7b9f26248)" style="fill: none; stroke: #b2b2b2; stroke-opacity: 0.35; stroke-width: 0.5; stroke-linecap: square"/>
   </g>
   <g id="line2d_2">
    <path d="M 8.64 66.72 
L 279.36 66.72 
" clip-path="url(#pe7b9f26248)" style="fill: none; stroke: #b2b2b2; stroke-opacity: 0.35; stroke-width: 0.5; stroke-linecap: square"/>
   </g>
   <g id="line2d_3">
    <path d="M 8.64 46.08 
L 279.36 46.08 
" clip-path="url(#pe7b9f26248)" style="fill: none; stroke: #b2b2b2; stroke-opacity: 0.35; stroke-width: 0.5; stroke-linecap: square"/>
   </g>
   <g id="line2d_4">
    <path d="M 8.64 25.44 
L 279.36 25.44 
" clip-path="url(#pe7b9f26248)" style="fill: none; stroke: #b2b2b2; stroke-opacity: 0.35; stroke-width: 0.5; stroke-linecap: square"/>
   </g>
   <g id="line2d_5">
    <path d="M 8.64 100.3632 
L 11.660891 100.19808 
L 14.745018 100.47672 
L 17.790845 100.79664 
L 20.801397 100.26 
L 24.066403 99.83688 
L 26.915735 100.13616 
L 29.958256 100.80696 
L 32.967893 101.38488 
L 36.047975 101.3436 
L 39.09535 101.292 
L 42.11487 101.28168 
L 45.179618 101.28168 
L 48.178282 101.8596 
L 51.220451 101.88024 
L 54.233113 101.72544 
L 57.317556 101.68416 
L 60.364086 101.47776 
L 63.383043 101.78736 
L 66.426655 101.09592 
L 69.454756 101.46744 
L 72.521403 101.3436 
L 75.513631 101.05464 
L 78.606832 101.3952 
L 81.6611 101.47776 
L 84.680444 100.86888 
L 87.71681 101.26104 
L 90.768651 100.99272 
L 93.801148 100.61088 
L 96.806319 100.44576 
L 99.885135 100.94112 
L 102.931349 101.09592 
L 105.956707 101.00304 
L 108.985968 100.69344 
L 112.036965 100.9308 
L 115.083707 100.92048 
L 118.086134 100.81728 
L 121.17209 100.8792 
L 124.24352 100.64184 
L 127.288573 101.1888 
L 130.318961 101.09592 
L 133.362748 101.37456 
L 136.434636 101.21976 
L 139.395773 101.20944 
L 142.496149 101.23008 
L 145.533781 100.92048 
L 148.50554 101.06496 
L 151.597756 100.70376 
L 154.637252 100.55928 
L 157.625365 100.53864 
L 160.675166 99.60984 
L 163.775085 99.72336 
L 166.837758 99.44472 
L 169.834241 99.25896 
L 172.887384 99.32088 
L 175.922695 100.22904 
L 178.976364 100.01232 
L 181.976259 100.43544 
L 185.060316 100.75536 
L 188.128511 101.02368 
L 191.145428 101.02368 
L 194.194983 101.17848 
L 197.250974 100.7244 
L 200.266379 100.75536 
L 203.26332 101.11656 
L 206.350119 100.91016 
L 209.428795 100.89984 
L 212.421445 101.1372 
L 215.491328 101.2404 
L 218.520309 101.6532 
L 221.561247 101.4984 
L 224.556112 101.48808 
L 227.65684 101.32296 
L 230.740474 101.51904 
L 233.749267 101.7048 
L 236.82214 102.54072 
L 239.850417 103.08768 
L 242.839057 103.36632 
L 245.831039 104.22288 
L 248.935037 103.85136 
L 251.987159 103.68624 
L 254.967851 103.43856 
L 258.038051 103.81008 
L 261.09457 103.72752 
L 264.14518 103.50048 
L 267.16164 103.5108 
L 270.222379 103.31472 
L 273.362074 102.95352 
L 276.4181 102.61296 
L 279.36 102.6336 
" clip-path="url(#pe7b9f26248)" style="fill: none; stroke: #bebebe; stroke-width: 0.5; stroke-linecap: round"/>
   </g>
   <g id="line2d_6">
    <path d="M 8.64 87.74184 
L 11.660891 87.618 
L 14.745018 88.19592 
L 17.790845 89.08344 
L 20.801397 87.89664 
L 24.066403 87.3084 
L 26.915735 87.65928 
L 29.958256 88.96992 
L 32.967893 90.07416 
L 36.047975 89.76456 
L 39.09535 89.3724 
L 42.11487 89.00088 
L 45.179618 88.42296 
L 48.178282 88.81512 
L 51.220451 89.10408 
L 54.233113 89.14536 
L 57.317556 89.07312 
L 60.364086 87.9792 
L 63.383043 88.29912 
L 66.426655 86.38992 
L 69.454756 87.24648 
L 72.521403 87.1536 
L 75.513631 86.21448 
L 78.606832 86.66856 
L 81.6611 87.01944 
L 84.680444 84.44976 
L 87.71681 85.05864 
L 90.768651 84.58392 
L 93.801148 85.04832 
L 96.806319 83.71704 
L 99.885135 84.86256 
L 102.931349 85.6572 
L 105.956707 85.27536 
L 108.985968 84.49104 
L 112.036965 84.86256 
L 115.083707 85.32696 
L 118.086134 85.17216 
L 121.17209 85.31664 
L 124.24352 84.11952 
L 127.288573 85.66752 
L 130.318961 85.26504 
L 133.362748 86.26608 
L 136.434636 85.77072 
L 139.395773 85.38888 
L 142.496149 85.3992 
L 145.533781 84.09888 
L 148.50554 84.22272 
L 151.597756 84.34656 
L 154.637252 85.06896 
L 157.625365 85.7604 
L 160.675166 85.0896 
L 163.775085 85.01736 
L 166.837758 84.9348 
L 169.834241 85.296 
L 172.887384 85.35792 
L 175.922695 86.1732 
L 178.976364 85.92552 
L 181.976259 86.55504 
L 185.060316 87.13296 
L 188.128511 88.10304 
L 191.145428 87.9276 
L 194.194983 88.26816 
L 197.250974 87.78312 
L 200.266379 87.95856 
L 203.26332 88.94928 
L 206.350119 88.14432 
L 209.428795 88.33008 
L 212.421445 88.52616 
L 215.491328 88.86672 
L 218.520309 90.22896 
L 221.561247 89.82648 
L 224.556112 89.87808 
L 227.65684 89.46528 
L 230.740474 90.0432 
L 233.749267 89.96064 
L 236.82214 91.99368 
L 239.850417 93.05664 
L 242.839057 93.74808 
L 245.831039 97.02984 
L 248.935037 95.93592 
L 251.987159 95.07936 
L 254.967851 94.46016 
L 258.038051 95.47152 
L 261.09457 95.11032 
L 264.14518 94.82136 
L 267.16164 94.8936 
L 270.222379 94.70784 
L 273.362074 94.04736 
L 276.4181 93.40752 
L 279.36 92.9844 
" clip-path="url(#pe7b9f26248)" style="fill: none; stroke: #4a8dff; stroke-width: 0.6"/>
   </g>
   <g id="line2d_7">
    <path d="M 8.64 100.12584 
L 11.660891 100.03296 
L 14.745018 100.45608 
L 17.790845 100.83792 
L 20.801397 100.11552 
L 24.066403 99.87816 
L 26.915735 100.002 
L 29.958256 100.64184 
L 32.967893 101.41584 
L 36.047975 101.21976 
L 39.09535 101.14752 
L 42.11487 101.00304 
L 45.179618 100.86888 
L 48.178282 101.21976 
L 51.220451 101.28168 
L 54.233113 101.20944 
L 57.317556 101.14752 
L 60.364086 100.55928 
L 63.383043 100.65216 
L 66.426655 99.80592 
L 69.454756 99.96072 
L 72.521403 99.6408 
L 75.513631 99.1764 
L 78.606832 99.70272 
L 81.6611 99.94008 
L 84.680444 98.57784 
L 87.71681 98.65008 
L 90.768651 98.38176 
L 93.801148 98.48496 
L 96.806319 96.70992 
L 99.885135 98.05152 
L 102.931349 98.48496 
L 105.956707 97.96896 
L 108.985968 96.32808 
L 112.036965 96.20424 
L 115.083707 96.16296 
L 118.086134 96.1836 
L 121.17209 96.50352 
L 124.24352 94.76976 
L 127.288573 97.19496 
L 130.318961 96.9576 
L 133.362748 97.9896 
L 136.434636 96.89568 
L 139.395773 95.45088 
L 142.496149 95.67792 
L 145.533781 93.43848 
L 148.50554 92.90184 
L 151.597756 92.25168 
L 154.637252 92.87088 
L 157.625365 94.2744 
L 160.675166 93.1392 
L 163.775085 92.97408 
L 166.837758 92.9844 
L 169.834241 92.60256 
L 172.887384 92.53032 
L 175.922695 94.54272 
L 178.976364 92.85024 
L 181.976259 94.82136 
L 185.060316 95.75016 
L 188.128511 96.97824 
L 191.145428 97.08144 
L 194.194983 97.23624 
L 197.250974 95.94624 
L 200.266379 96.30744 
L 203.26332 98.08248 
L 206.350119 97.2672 
L 209.428795 96.61704 
L 212.421445 97.23624 
L 215.491328 98.08248 
L 218.520309 99.18672 
L 221.561247 99.03192 
L 224.556112 99.1248 
L 227.65684 98.74296 
L 230.740474 99.09384 
L 233.749267 100.0536 
L 236.82214 101.23008 
L 239.850417 101.99376 
L 242.839057 102.08664 
L 245.831039 102.8916 
L 248.935037 102.45816 
L 251.987159 102.28272 
L 254.967851 102.10728 
L 258.038051 102.582 
L 261.09457 102.29304 
L 264.14518 102.08664 
L 267.16164 102.066 
L 270.222379 101.86992 
L 273.362074 101.48808 
L 276.4181 101.40552 
L 279.36 101.4984 
" clip-path="url(#pe7b9f26248)" style="fill: none; stroke: #f5841e; stroke-width: 0.6"/>
   </g>
  </g>
 </g>
 <defs>
  <clipPath id="pe7b9f26248">
   <rect x="8.64" y="4.8" width="270.72" height="103.2"/>
  </clipPath>
 </defs>
</svg>
