<?xml version="1.0" encoding="utf-8" standalone="no"?>
<!DOCTYPE svg PUBLIC "-//W3C//DTD SVG 1.1//EN"
  "http://www.w3.org/Graphics/SVG/1.1/DTD/svg11.dtd">
<svg xmlns:xlink="http://www.w3.org/1999/xlink" width="288pt" height="120pt" viewBox="0 0 288 120" xmlns="http://www.w3.org/2000/svg" version="1.1">
<desc id="nav-meta">{"window":"1m","count":4,"labels":["17.06","27.06","07.07","17.07"],"tick_utc":["2026-06-17T05:30:00Z","2026-06-27T04:39:58Z","2026-07-07T04:37:20Z","2026-07-17T03:51:40Z"],"w":720,"h":300}</desc>

 <metadata>
  <rdf:RDF xmlns:dc="http://purl.org/dc/elements/1.1/" xmlns:cc="http://creativecommons.org/ns#" xmlns:rdf="http://www.w3.org/1999/02/22-rdf-syntax-ns#">
   <cc:Work>
    <dc:type rdf:resource="http://purl.org/dc/dcmitype/StillImage"/>
    <dc:date>2026-07-17T03:51:42.876895</dc:date>
    <dc:format>image/svg+xml</dc:format>
    <dc:creator>
     <cc:Agent>
      <dc:title>Matplotlib v3.11.0, https://matplotlib.org/</dc:title>
     </cc:Agent>
    </dc:creator>
   </cc:Work>
  </rdf:RDF>
 </metadata>
 <defs>
  <style type="text/css">*{stroke-linejoin: round; stroke-linecap: butt}</style>
 </defs>
 <g id="figure_1">
  <g id="patch_1">
   <path d="M 0 120 
L 288 120 
L 288 0 
L 0 0 
L 0 120 
z
" style="fill: none; opacity: 0"/>
  </g>
  <g id="axes_1">
   <g id="patch_2">
    <path d="M 8.64 108 
L 279.36 108 
L 279.36 4.8 
L 8.64 4.8 
L 8.64 108 
z
" style="fill: none"/>
   </g>
   <g id="matplotlib.axis_1"/>
   <g id="matplotlib.axis_2"/>
   <g id="line2d_1">
    <path d="M 8.64 87.36 
L 279.36 87.36 
" clip-path="url(#p042a4a448e)" style="fill: none; stroke: #b2b2b2; stroke-opacity: 0.35; stroke-width: 0.5; stroke-linecap: square"/>
   </g>
   <g id="line2d_2">
    <path d="M 8.64 66.72 
L 279.36 66.72 
" clip-path="url(#p042a4a448e)" style="fill: none; stroke: #b2b2b2; stroke-opacity: 0.35; stroke-width: 0.5; stroke-linecap: square"/>
   </g>
   <g id="line2d_3">
    <path d="M 8.64 46.08 
L 279.36 46.08 
" clip-path="url(#p042a4a448e)" style="fill: none; stroke: #b2b2b2; stroke-opacity: 0.35; stroke-width: 0.5; stroke-linecap: square"/>
   </g>
   <g id="line2d_4">
    <path d="M 8.64 25.44 
L 279.36 25.44 
" clip-path="url(#p042a4a448e)" style="fill: none; stroke: #b2b2b2; stroke-opacity: 0.35; stroke-width: 0.5; stroke-linecap: square"/>
   </g>
   <g id="line2d_5">
    <path d="M 8.64 102.6336 
L 17.641249 102.9948 
L 26.898866 103.28376 
L 35.581775 103.01544 
L 44.814582 102.69552 
L 54.123912 102.582 
L 62.627813 102.88128 
L 71.704748 103.15992 
L 80.746928 103.36632 
L 89.83789 103.36632 
L 98.771618 102.81936 
L 107.988619 103.0464 
L 117.098633 102.9432 
L 125.967877 102.59232 
L 135.144783 102.40656 
L 144.030986 102.02472 
L 152.977172 101.68416 
L 161.982818 101.3436 
L 171.159829 101.6532 
L 180.292036 101.6532 
L 189.200955 101.63256 
L 197.999747 101.95248 
L 207.318499 102.08664 
L 216.342673 101.9112 
L 225.120215 102.066 
L 234.300053 102.18984 
L 243.364426 102.31368 
L 252.199857 102.45816 
L 261.246748 102.08664 
L 270.313947 102.21048 
L 279.36 102.4272 
" clip-path="url(#p042a4a448e)" style="fill: none; stroke: #bebebe; stroke-width: 0.5; stroke-linecap: round"/>
   </g>
   <g id="line2d_6">
    <path d="M 8.64 92.9844 
L 17.641249 93.93384 
L 26.898866 94.4292 
L 35.581775 94.19184 
L 44.814582 93.87192 
L 54.123912 93.81 
L 62.627813 94.03704 
L 71.704748 94.83168 
L 80.746928 95.48184 
L 89.83789 96.63768 
L 98.771618 96.14232 
L 107.988619 96.30744 
L 117.098633 96.29712 
L 125.967877 96.04944 
L 135.144783 95.9256 
L 144.030986 95.39928 
L 152.977172 94.31568 
L 161.982818 93.57264 
L 171.159829 93.32496 
L 180.292036 93.22176 
L 189.200955 93.35592 
L 197.999747 93.61392 
L 207.318499 93.77904 
L 216.342673 93.26304 
L 225.120215 92.92248 
L 234.300053 92.71608 
L 243.364426 93.15984 
L 252.199857 93.17016 
L 261.246748 91.80792 
L 270.313947 91.14744 
L 279.36 92.13816 
" clip-path="url(#p042a4a448e)" style="fill: none; stroke: #4a8dff; stroke-width: 0.6"/>
   </g>
   <g id="line2d_7">
    <path d="M 8.64 101.4984 
L 17.641249 101.97312 
L 26.898866 102.26208 
L 35.581775 102.066 
L 44.814582 101.90088 
L 54.123912 101.90088 
L 62.627813 102.0144 
L 71.704748 102.25176 
L 80.746928 102.6336 
L 89.83789 102.88128 
L 98.771618 102.77808 
L 107.988619 102.85032 
L 117.098633 102.93288 
L 125.967877 102.95352 
L 135.144783 103.00512 
L 144.030986 102.69552 
L 152.977172 102.55104 
L 161.982818 102.2724 
L 171.159829 102.21048 
L 180.292036 102.12792 
L 189.200955 102.13824 
L 197.999747 102.25176 
L 207.318499 102.36528 
L 216.342673 101.94216 
L 225.120215 101.92152 
L 234.300053 101.9112 
L 243.364426 102.2208 
L 252.199857 102.31368 
L 261.246748 101.79768 
L 270.313947 101.81832 
L 279.36 102.07632 
" clip-path="url(#p042a4a448e)" style="fill: none; stroke: #f5841e; stroke-width: 0.6"/>
   </g>
  </g>
 </g>
 <defs>
  <clipPath id="p042a4a448e">
   <rect x="8.64" y="4.8" width="270.72" height="103.2"/>
  </clipPath>
 </defs>
</svg>
