<?xml version="1.0" encoding="utf-8" standalone="no"?>
<!DOCTYPE svg PUBLIC "-//W3C//DTD SVG 1.1//EN"
  "http://www.w3.org/Graphics/SVG/1.1/DTD/svg11.dtd">
<svg xmlns:xlink="http://www.w3.org/1999/xlink" width="288pt" height="120pt" viewBox="0 0 288 120" xmlns="http://www.w3.org/2000/svg" version="1.1">
<desc id="nav-meta">{"window":"1m","count":4,"labels":["24.04","04.05","13.05","23.05"],"tick_utc":["2026-04-24T04:01:18Z","2026-05-04T04:31:15Z","2026-05-13T04:33:49Z","2026-05-23T04:28:38Z"],"w":720,"h":300}</desc>

 <metadata>
  <rdf:RDF xmlns:dc="http://purl.org/dc/elements/1.1/" xmlns:cc="http://creativecommons.org/ns#" xmlns:rdf="http://www.w3.org/1999/02/22-rdf-syntax-ns#">
   <cc:Work>
    <dc:type rdf:resource="http://purl.org/dc/dcmitype/StillImage"/>
    <dc:date>2026-05-23T08:37:07.773845</dc:date>
    <dc:format>image/svg+xml</dc:format>
    <dc:creator>
     <cc:Agent>
      <dc:title>Matplotlib v3.10.9, https://matplotlib.org/</dc:title>
     </cc:Agent>
    </dc:creator>
   </cc:Work>
  </rdf:RDF>
 </metadata>
 <defs>
  <style type="text/css">*{stroke-linejoin: round; stroke-linecap: butt}</style>
 </defs>
 <g id="figure_1">
  <g id="patch_1">
   <path d="M 0 120 
L 288 120 
L 288 0 
L 0 0 
L 0 120 
z
" style="fill: none; opacity: 0"/>
  </g>
  <g id="axes_1">
   <g id="patch_2">
    <path d="M 8.64 108 
L 279.36 108 
L 279.36 4.8 
L 8.64 4.8 
L 8.64 108 
z
" style="fill: none"/>
   </g>
   <g id="matplotlib.axis_1"/>
   <g id="matplotlib.axis_2"/>
   <g id="line2d_1">
    <path d="M 8.64 87.36 
L 279.36 87.36 
" clip-path="url(#p09e3697a65)" style="fill: none; stroke: #b2b2b2; stroke-opacity: 0.35; stroke-width: 0.5; stroke-linecap: square"/>
   </g>
   <g id="line2d_2">
    <path d="M 8.64 66.72 
L 279.36 66.72 
" clip-path="url(#p09e3697a65)" style="fill: none; stroke: #b2b2b2; stroke-opacity: 0.35; stroke-width: 0.5; stroke-linecap: square"/>
   </g>
   <g id="line2d_3">
    <path d="M 8.64 46.08 
L 279.36 46.08 
" clip-path="url(#p09e3697a65)" style="fill: none; stroke: #b2b2b2; stroke-opacity: 0.35; stroke-width: 0.5; stroke-linecap: square"/>
   </g>
   <g id="line2d_4">
    <path d="M 8.64 25.44 
L 279.36 25.44 
" clip-path="url(#p09e3697a65)" style="fill: none; stroke: #b2b2b2; stroke-opacity: 0.35; stroke-width: 0.5; stroke-linecap: square"/>
   </g>
   <g id="line2d_5">
    <path d="M 8.64 100.92048 
L 17.857744 100.81728 
L 27.331929 100.8792 
L 36.76152 100.64184 
L 46.11013 101.1888 
L 55.413714 101.09592 
L 64.758436 101.37456 
L 74.189431 101.21976 
L 83.280412 101.20944 
L 92.798867 101.23008 
L 102.124694 100.92048 
L 111.248283 101.06496 
L 120.741688 100.70376 
L 130.073237 100.55928 
L 139.247035 100.53864 
L 148.610222 99.60984 
L 158.127273 99.72336 
L 167.529978 99.44472 
L 176.729474 99.25896 
L 186.102918 99.32088 
L 195.421619 100.22904 
L 204.796682 100.01232 
L 214.006652 100.43544 
L 223.475006 100.75536 
L 232.894664 101.02368 
L 242.156893 101.02368 
L 251.519324 101.17848 
L 260.901514 100.7244 
L 270.1591 100.75536 
L 279.36 101.11656 
" clip-path="url(#p09e3697a65)" style="fill: none; stroke: #bebebe; stroke-width: 0.5; stroke-linecap: round"/>
   </g>
   <g id="line2d_6">
    <path d="M 8.64 85.32696 
L 17.857744 85.17216 
L 27.331929 85.31664 
L 36.76152 84.11952 
L 46.11013 85.66752 
L 55.413714 85.26504 
L 64.758436 86.26608 
L 74.189431 85.77072 
L 83.280412 85.38888 
L 92.798867 85.3992 
L 102.124694 84.09888 
L 111.248283 84.22272 
L 120.741688 84.34656 
L 130.073237 85.06896 
L 139.247035 85.7604 
L 148.610222 85.0896 
L 158.127273 85.01736 
L 167.529978 84.9348 
L 176.729474 85.296 
L 186.102918 85.35792 
L 195.421619 86.1732 
L 204.796682 85.92552 
L 214.006652 86.55504 
L 223.475006 87.13296 
L 232.894664 88.10304 
L 242.156893 87.9276 
L 251.519324 88.26816 
L 260.901514 87.78312 
L 270.1591 87.95856 
L 279.36 88.94928 
" clip-path="url(#p09e3697a65)" style="fill: none; stroke: #4a8dff; stroke-width: 0.6"/>
   </g>
   <g id="line2d_7">
    <path d="M 8.64 96.16296 
L 17.857744 96.1836 
L 27.331929 96.50352 
L 36.76152 94.76976 
L 46.11013 97.19496 
L 55.413714 96.9576 
L 64.758436 97.9896 
L 74.189431 96.89568 
L 83.280412 95.45088 
L 92.798867 95.67792 
L 102.124694 93.43848 
L 111.248283 92.90184 
L 120.741688 92.25168 
L 130.073237 92.87088 
L 139.247035 94.2744 
L 148.610222 93.1392 
L 158.127273 92.97408 
L 167.529978 92.9844 
L 176.729474 92.60256 
L 186.102918 92.53032 
L 195.421619 94.54272 
L 204.796682 92.85024 
L 214.006652 94.82136 
L 223.475006 95.75016 
L 232.894664 96.97824 
L 242.156893 97.08144 
L 251.519324 97.23624 
L 260.901514 95.94624 
L 270.1591 96.30744 
L 279.36 98.08248 
" clip-path="url(#p09e3697a65)" style="fill: none; stroke: #f5841e; stroke-width: 0.6"/>
   </g>
  </g>
 </g>
 <defs>
  <clipPath id="p09e3697a65">
   <rect x="8.64" y="4.8" width="270.72" height="103.2"/>
  </clipPath>
 </defs>
</svg>
