<?xml version="1.0" encoding="utf-8" standalone="no"?>
<!DOCTYPE svg PUBLIC "-//W3C//DTD SVG 1.1//EN"
  "http://www.w3.org/Graphics/SVG/1.1/DTD/svg11.dtd">
<svg xmlns:xlink="http://www.w3.org/1999/xlink" width="288pt" height="120pt" viewBox="0 0 288 120" xmlns="http://www.w3.org/2000/svg" version="1.1">
<desc id="nav-meta">{"window":"1m","count":4,"labels":["24.06","04.07","13.07","23.07"],"tick_utc":["2026-06-24T04:50:37Z","2026-07-04T04:23:54Z","2026-07-13T04:20:46Z","2026-07-23T03:58:20Z"],"w":720,"h":300}</desc>

 <metadata>
  <rdf:RDF xmlns:dc="http://purl.org/dc/elements/1.1/" xmlns:cc="http://creativecommons.org/ns#" xmlns:rdf="http://www.w3.org/1999/02/22-rdf-syntax-ns#">
   <cc:Work>
    <dc:type rdf:resource="http://purl.org/dc/dcmitype/StillImage"/>
    <dc:date>2026-07-23T14:52:58.594108</dc:date>
    <dc:format>image/svg+xml</dc:format>
    <dc:creator>
     <cc:Agent>
      <dc:title>Matplotlib v3.11.1, https://matplotlib.org/</dc:title>
     </cc:Agent>
    </dc:creator>
   </cc:Work>
  </rdf:RDF>
 </metadata>
 <defs>
  <style type="text/css">*{stroke-linejoin: round; stroke-linecap: butt}</style>
 </defs>
 <g id="figure_1">
  <g id="patch_1">
   <path d="M 0 120 
L 288 120 
L 288 0 
L 0 0 
L 0 120 
z
" style="fill: none; opacity: 0"/>
  </g>
  <g id="axes_1">
   <g id="patch_2">
    <path d="M 8.64 108 
L 279.36 108 
L 279.36 4.8 
L 8.64 4.8 
L 8.64 108 
z
" style="fill: none"/>
   </g>
   <g id="matplotlib.axis_1"/>
   <g id="matplotlib.axis_2"/>
   <g id="line2d_1">
    <path d="M 8.64 87.36 
L 279.36 87.36 
" clip-path="url(#pdf4313d3fb)" style="fill: none; stroke: #b2b2b2; stroke-opacity: 0.35; stroke-width: 0.5; stroke-linecap: square"/>
   </g>
   <g id="line2d_2">
    <path d="M 8.64 66.72 
L 279.36 66.72 
" clip-path="url(#pdf4313d3fb)" style="fill: none; stroke: #b2b2b2; stroke-opacity: 0.35; stroke-width: 0.5; stroke-linecap: square"/>
   </g>
   <g id="line2d_3">
    <path d="M 8.64 46.08 
L 279.36 46.08 
" clip-path="url(#pdf4313d3fb)" style="fill: none; stroke: #b2b2b2; stroke-opacity: 0.35; stroke-width: 0.5; stroke-linecap: square"/>
   </g>
   <g id="line2d_4">
    <path d="M 8.64 25.44 
L 279.36 25.44 
" clip-path="url(#pdf4313d3fb)" style="fill: none; stroke: #b2b2b2; stroke-opacity: 0.35; stroke-width: 0.5; stroke-linecap: square"/>
   </g>
   <g id="line2d_5">
    <path d="M 8.64 103.15992 
L 17.984386 103.36632 
L 27.379186 103.36632 
L 36.611496 102.81936 
L 46.136546 103.0464 
L 55.551034 102.9432 
L 64.716704 102.59232 
L 74.20032 102.40656 
L 83.383516 102.02472 
L 92.628701 101.68416 
L 101.935332 101.3436 
L 111.419056 101.6532 
L 120.856478 101.6532 
L 130.06315 101.63256 
L 139.156015 101.95248 
L 148.786216 102.08664 
L 158.111996 101.9112 
L 167.1829 102.066 
L 176.669545 102.18984 
L 186.036866 102.31368 
L 195.167594 102.45816 
L 204.516848 102.08664 
L 213.88709 102.21048 
L 223.235479 102.4272 
L 232.536161 102.4272 
L 242.023563 102.34464 
L 251.497226 102.25176 
L 260.673715 102.02472 
L 270.027405 102.066 
L 279.36 102.10728 
" clip-path="url(#pdf4313d3fb)" style="fill: none; stroke: #bebebe; stroke-width: 0.5; stroke-linecap: round"/>
   </g>
   <g id="line2d_6">
    <path d="M 8.64 94.83168 
L 17.984386 95.48184 
L 27.379186 96.63768 
L 36.611496 96.14232 
L 46.136546 96.30744 
L 55.551034 96.29712 
L 64.716704 96.04944 
L 74.20032 95.9256 
L 83.383516 95.39928 
L 92.628701 94.31568 
L 101.935332 93.57264 
L 111.419056 93.32496 
L 120.856478 93.22176 
L 130.06315 93.35592 
L 139.156015 93.61392 
L 148.786216 93.77904 
L 158.111996 93.26304 
L 167.1829 92.92248 
L 176.669545 92.71608 
L 186.036866 93.15984 
L 195.167594 93.17016 
L 204.516848 91.80792 
L 213.88709 91.14744 
L 223.235479 92.13816 
L 232.536161 92.25168 
L 242.023563 91.9008 
L 251.497226 91.81824 
L 260.673715 91.00296 
L 270.027405 90.98232 
L 279.36 91.10616 
" clip-path="url(#pdf4313d3fb)" style="fill: none; stroke: #4a8dff; stroke-width: 0.6"/>
   </g>
   <g id="line2d_7">
    <path d="M 8.64 102.25176 
L 17.984386 102.6336 
L 27.379186 102.88128 
L 36.611496 102.77808 
L 46.136546 102.85032 
L 55.551034 102.93288 
L 64.716704 102.95352 
L 74.20032 103.00512 
L 83.383516 102.69552 
L 92.628701 102.55104 
L 101.935332 102.2724 
L 111.419056 102.21048 
L 120.856478 102.12792 
L 130.06315 102.13824 
L 139.156015 102.25176 
L 148.786216 102.36528 
L 158.111996 101.94216 
L 167.1829 101.92152 
L 176.669545 101.9112 
L 186.036866 102.2208 
L 195.167594 102.31368 
L 204.516848 101.79768 
L 213.88709 101.81832 
L 223.235479 102.07632 
L 232.536161 101.97312 
L 242.023563 101.79768 
L 251.497226 101.78736 
L 260.673715 101.57064 
L 270.027405 101.40552 
L 279.36 101.55 
" clip-path="url(#pdf4313d3fb)" style="fill: none; stroke: #f5841e; stroke-width: 0.6"/>
   </g>
  </g>
 </g>
 <defs>
  <clipPath id="pdf4313d3fb">
   <rect x="8.64" y="4.8" width="270.72" height="103.2"/>
  </clipPath>
 </defs>
</svg>
