<?xml version="1.0" encoding="utf-8" standalone="no"?>
<!DOCTYPE svg PUBLIC "-//W3C//DTD SVG 1.1//EN"
  "http://www.w3.org/Graphics/SVG/1.1/DTD/svg11.dtd">
<svg xmlns:xlink="http://www.w3.org/1999/xlink" width="288pt" height="120pt" viewBox="0 0 288 120" xmlns="http://www.w3.org/2000/svg" version="1.1">
<desc id="nav-meta">{"window":"3m","count":4,"labels":["21.03","20.04","19.05","18.06"],"tick_utc":["2026-03-21T03:10:23Z","2026-04-20T04:02:26Z","2026-05-19T04:46:06Z","2026-06-18T05:23:06Z"],"w":720,"h":300}</desc>

 <metadata>
  <rdf:RDF xmlns:dc="http://purl.org/dc/elements/1.1/" xmlns:cc="http://creativecommons.org/ns#" xmlns:rdf="http://www.w3.org/1999/02/22-rdf-syntax-ns#">
   <cc:Work>
    <dc:type rdf:resource="http://purl.org/dc/dcmitype/StillImage"/>
    <dc:date>2026-06-18T16:06:14.279920</dc:date>
    <dc:format>image/svg+xml</dc:format>
    <dc:creator>
     <cc:Agent>
      <dc:title>Matplotlib v3.11.0, https://matplotlib.org/</dc:title>
     </cc:Agent>
    </dc:creator>
   </cc:Work>
  </rdf:RDF>
 </metadata>
 <defs>
  <style type="text/css">*{stroke-linejoin: round; stroke-linecap: butt}</style>
 </defs>
 <g id="figure_1">
  <g id="patch_1">
   <path d="M 0 120 
L 288 120 
L 288 0 
L 0 0 
L 0 120 
z
" style="fill: none; opacity: 0"/>
  </g>
  <g id="axes_1">
   <g id="patch_2">
    <path d="M 8.64 108 
L 279.36 108 
L 279.36 4.8 
L 8.64 4.8 
L 8.64 108 
z
" style="fill: none"/>
   </g>
   <g id="matplotlib.axis_1"/>
   <g id="matplotlib.axis_2"/>
   <g id="line2d_1">
    <path d="M 8.64 87.36 
L 279.36 87.36 
" clip-path="url(#p52ee5c5a7c)" style="fill: none; stroke: #b2b2b2; stroke-opacity: 0.35; stroke-width: 0.5; stroke-linecap: square"/>
   </g>
   <g id="line2d_2">
    <path d="M 8.64 66.72 
L 279.36 66.72 
" clip-path="url(#p52ee5c5a7c)" style="fill: none; stroke: #b2b2b2; stroke-opacity: 0.35; stroke-width: 0.5; stroke-linecap: square"/>
   </g>
   <g id="line2d_3">
    <path d="M 8.64 46.08 
L 279.36 46.08 
" clip-path="url(#p52ee5c5a7c)" style="fill: none; stroke: #b2b2b2; stroke-opacity: 0.35; stroke-width: 0.5; stroke-linecap: square"/>
   </g>
   <g id="line2d_4">
    <path d="M 8.64 25.44 
L 279.36 25.44 
" clip-path="url(#p52ee5c5a7c)" style="fill: none; stroke: #b2b2b2; stroke-opacity: 0.35; stroke-width: 0.5; stroke-linecap: square"/>
   </g>
   <g id="line2d_5">
    <path d="M 8.64 100.19808 
L 11.72409 100.47672 
L 14.769881 100.79664 
L 17.780396 100.26 
L 21.045363 99.83688 
L 23.894661 100.13616 
L 26.937146 100.80696 
L 29.946747 101.38488 
L 33.026793 101.3436 
L 36.074131 101.292 
L 39.093614 101.28168 
L 42.158326 101.28168 
L 45.156954 101.8596 
L 48.199087 101.88024 
L 51.211712 101.72544 
L 54.296119 101.68416 
L 57.342613 101.47776 
L 60.361534 101.78736 
L 63.405109 101.09592 
L 66.433174 101.46744 
L 69.499785 101.3436 
L 72.491977 101.05464 
L 75.585141 101.3952 
L 78.639372 101.47776 
L 81.65868 100.86888 
L 84.695009 101.26104 
L 87.746814 100.99272 
L 90.779275 100.61088 
L 93.78441 100.44576 
L 96.863189 100.94112 
L 99.909366 101.09592 
L 102.934688 101.00304 
L 105.963914 100.69344 
L 109.014874 100.9308 
L 112.061579 100.92048 
L 115.06397 100.81728 
L 118.149889 100.8792 
L 121.221283 100.64184 
L 124.2663 101.1888 
L 127.296651 101.09592 
L 130.340402 101.37456 
L 133.412253 101.21976 
L 136.373355 101.20944 
L 139.473694 101.23008 
L 142.51129 100.92048 
L 145.483013 101.06496 
L 148.575192 100.70376 
L 151.614652 100.55928 
L 154.602729 100.53864 
L 157.652494 99.60984 
L 160.752375 99.72336 
L 163.815012 99.44472 
L 166.81146 99.25896 
L 169.864565 99.32088 
L 172.89984 100.22904 
L 175.953473 100.01232 
L 178.953332 100.43544 
L 182.037352 100.75536 
L 185.105511 101.02368 
L 188.122392 101.02368 
L 191.17191 101.17848 
L 194.227865 100.7244 
L 197.243233 100.75536 
L 200.240138 101.11656 
L 203.326901 100.91016 
L 206.40554 100.89984 
L 209.398154 101.1372 
L 212.468001 101.2404 
L 215.496945 101.6532 
L 218.537847 101.4984 
L 221.532677 101.48808 
L 224.633367 101.32296 
L 227.716965 101.51904 
L 230.725721 101.7048 
L 233.798557 102.54072 
L 236.826798 103.08768 
L 239.815403 103.36632 
L 242.807349 104.22288 
L 245.91131 103.85136 
L 248.963396 103.68624 
L 251.944052 103.43856 
L 255.014215 103.81008 
L 258.070697 103.72752 
L 261.121271 103.50048 
L 264.137695 103.5108 
L 267.198397 103.31472 
L 270.338055 102.95352 
L 273.394045 102.61296 
L 276.335909 102.6336 
L 279.36 102.9948 
" clip-path="url(#p52ee5c5a7c)" style="fill: none; stroke: #bebebe; stroke-width: 0.5; stroke-linecap: round"/>
   </g>
   <g id="line2d_6">
    <path d="M 8.64 87.618 
L 11.72409 88.19592 
L 14.769881 89.08344 
L 17.780396 87.89664 
L 21.045363 87.3084 
L 23.894661 87.65928 
L 26.937146 88.96992 
L 29.946747 90.07416 
L 33.026793 89.76456 
L 36.074131 89.3724 
L 39.093614 89.00088 
L 42.158326 88.42296 
L 45.156954 88.81512 
L 48.199087 89.10408 
L 51.211712 89.14536 
L 54.296119 89.07312 
L 57.342613 87.9792 
L 60.361534 88.29912 
L 63.405109 86.38992 
L 66.433174 87.24648 
L 69.499785 87.1536 
L 72.491977 86.21448 
L 75.585141 86.66856 
L 78.639372 87.01944 
L 81.65868 84.44976 
L 84.695009 85.05864 
L 87.746814 84.58392 
L 90.779275 85.04832 
L 93.78441 83.71704 
L 96.863189 84.86256 
L 99.909366 85.6572 
L 102.934688 85.27536 
L 105.963914 84.49104 
L 109.014874 84.86256 
L 112.061579 85.32696 
L 115.06397 85.17216 
L 118.149889 85.31664 
L 121.221283 84.11952 
L 124.2663 85.66752 
L 127.296651 85.26504 
L 130.340402 86.26608 
L 133.412253 85.77072 
L 136.373355 85.38888 
L 139.473694 85.3992 
L 142.51129 84.09888 
L 145.483013 84.22272 
L 148.575192 84.34656 
L 151.614652 85.06896 
L 154.602729 85.7604 
L 157.652494 85.0896 
L 160.752375 85.01736 
L 163.815012 84.9348 
L 166.81146 85.296 
L 169.864565 85.35792 
L 172.89984 86.1732 
L 175.953473 85.92552 
L 178.953332 86.55504 
L 182.037352 87.13296 
L 185.105511 88.10304 
L 188.122392 87.9276 
L 191.17191 88.26816 
L 194.227865 87.78312 
L 197.243233 87.95856 
L 200.240138 88.94928 
L 203.326901 88.14432 
L 206.40554 88.33008 
L 209.398154 88.52616 
L 212.468001 88.86672 
L 215.496945 90.22896 
L 218.537847 89.82648 
L 221.532677 89.87808 
L 224.633367 89.46528 
L 227.716965 90.0432 
L 230.725721 89.96064 
L 233.798557 91.99368 
L 236.826798 93.05664 
L 239.815403 93.74808 
L 242.807349 97.02984 
L 245.91131 95.93592 
L 248.963396 95.07936 
L 251.944052 94.46016 
L 255.014215 95.47152 
L 258.070697 95.11032 
L 261.121271 94.82136 
L 264.137695 94.8936 
L 267.198397 94.70784 
L 270.338055 94.04736 
L 273.394045 93.40752 
L 276.335909 92.9844 
L 279.36 93.93384 
" clip-path="url(#p52ee5c5a7c)" style="fill: none; stroke: #4a8dff; stroke-width: 0.6"/>
   </g>
   <g id="line2d_7">
    <path d="M 8.64 100.03296 
L 11.72409 100.45608 
L 14.769881 100.83792 
L 17.780396 100.11552 
L 21.045363 99.87816 
L 23.894661 100.002 
L 26.937146 100.64184 
L 29.946747 101.41584 
L 33.026793 101.21976 
L 36.074131 101.14752 
L 39.093614 101.00304 
L 42.158326 100.86888 
L 45.156954 101.21976 
L 48.199087 101.28168 
L 51.211712 101.20944 
L 54.296119 101.14752 
L 57.342613 100.55928 
L 60.361534 100.65216 
L 63.405109 99.80592 
L 66.433174 99.96072 
L 69.499785 99.6408 
L 72.491977 99.1764 
L 75.585141 99.70272 
L 78.639372 99.94008 
L 81.65868 98.57784 
L 84.695009 98.65008 
L 87.746814 98.38176 
L 90.779275 98.48496 
L 93.78441 96.70992 
L 96.863189 98.05152 
L 99.909366 98.48496 
L 102.934688 97.96896 
L 105.963914 96.32808 
L 109.014874 96.20424 
L 112.061579 96.16296 
L 115.06397 96.1836 
L 118.149889 96.50352 
L 121.221283 94.76976 
L 124.2663 97.19496 
L 127.296651 96.9576 
L 130.340402 97.9896 
L 133.412253 96.89568 
L 136.373355 95.45088 
L 139.473694 95.67792 
L 142.51129 93.43848 
L 145.483013 92.90184 
L 148.575192 92.25168 
L 151.614652 92.87088 
L 154.602729 94.2744 
L 157.652494 93.1392 
L 160.752375 92.97408 
L 163.815012 92.9844 
L 166.81146 92.60256 
L 169.864565 92.53032 
L 172.89984 94.54272 
L 175.953473 92.85024 
L 178.953332 94.82136 
L 182.037352 95.75016 
L 185.105511 96.97824 
L 188.122392 97.08144 
L 191.17191 97.23624 
L 194.227865 95.94624 
L 197.243233 96.30744 
L 200.240138 98.08248 
L 203.326901 97.2672 
L 206.40554 96.61704 
L 209.398154 97.23624 
L 212.468001 98.08248 
L 215.496945 99.18672 
L 218.537847 99.03192 
L 221.532677 99.1248 
L 224.633367 98.74296 
L 227.716965 99.09384 
L 230.725721 100.0536 
L 233.798557 101.23008 
L 236.826798 101.99376 
L 239.815403 102.08664 
L 242.807349 102.8916 
L 245.91131 102.45816 
L 248.963396 102.28272 
L 251.944052 102.10728 
L 255.014215 102.582 
L 258.070697 102.29304 
L 261.121271 102.08664 
L 264.137695 102.066 
L 267.198397 101.86992 
L 270.338055 101.48808 
L 273.394045 101.40552 
L 276.335909 101.4984 
L 279.36 101.97312 
" clip-path="url(#p52ee5c5a7c)" style="fill: none; stroke: #f5841e; stroke-width: 0.6"/>
   </g>
  </g>
 </g>
 <defs>
  <clipPath id="p52ee5c5a7c">
   <rect x="8.64" y="4.8" width="270.72" height="103.2"/>
  </clipPath>
 </defs>
</svg>
