<?xml version="1.0" encoding="utf-8" standalone="no"?>
<!DOCTYPE svg PUBLIC "-//W3C//DTD SVG 1.1//EN"
  "http://www.w3.org/Graphics/SVG/1.1/DTD/svg11.dtd">
<svg xmlns:xlink="http://www.w3.org/1999/xlink" width="288pt" height="120pt" viewBox="0 0 288 120" xmlns="http://www.w3.org/2000/svg" version="1.1">
<desc id="nav-meta">{"window":"3m","count":4,"labels":["13.11","13.12","12.01","11.02"],"tick_utc":["2025-11-13T12:00:00Z","2025-12-13T12:00:00Z","2026-01-12T12:00:00Z","2026-02-11T03:39:24Z"],"w":720,"h":300}</desc>

 <metadata>
  <rdf:RDF xmlns:dc="http://purl.org/dc/elements/1.1/" xmlns:cc="http://creativecommons.org/ns#" xmlns:rdf="http://www.w3.org/1999/02/22-rdf-syntax-ns#">
   <cc:Work>
    <dc:type rdf:resource="http://purl.org/dc/dcmitype/StillImage"/>
    <dc:date>2026-02-11T03:39:25.909904</dc:date>
    <dc:format>image/svg+xml</dc:format>
    <dc:creator>
     <cc:Agent>
      <dc:title>Matplotlib v3.10.8, https://matplotlib.org/</dc:title>
     </cc:Agent>
    </dc:creator>
   </cc:Work>
  </rdf:RDF>
 </metadata>
 <defs>
  <style type="text/css">*{stroke-linejoin: round; stroke-linecap: butt}</style>
 </defs>
 <g id="figure_1">
  <g id="patch_1">
   <path d="M 0 120 
L 288 120 
L 288 0 
L 0 0 
L 0 120 
z
" style="fill: none; opacity: 0"/>
  </g>
  <g id="axes_1">
   <g id="patch_2">
    <path d="M 8.64 108 
L 279.36 108 
L 279.36 4.8 
L 8.64 4.8 
L 8.64 108 
z
" style="fill: none"/>
   </g>
   <g id="matplotlib.axis_1"/>
   <g id="matplotlib.axis_2"/>
   <g id="line2d_1">
    <path d="M 8.64 87.36 
L 279.36 87.36 
" clip-path="url(#p0848e3b6be)" style="fill: none; stroke: #b2b2b2; stroke-opacity: 0.35; stroke-width: 0.5; stroke-linecap: square"/>
   </g>
   <g id="line2d_2">
    <path d="M 8.64 66.72 
L 279.36 66.72 
" clip-path="url(#p0848e3b6be)" style="fill: none; stroke: #b2b2b2; stroke-opacity: 0.35; stroke-width: 0.5; stroke-linecap: square"/>
   </g>
   <g id="line2d_3">
    <path d="M 8.64 46.08 
L 279.36 46.08 
" clip-path="url(#p0848e3b6be)" style="fill: none; stroke: #b2b2b2; stroke-opacity: 0.35; stroke-width: 0.5; stroke-linecap: square"/>
   </g>
   <g id="line2d_4">
    <path d="M 8.64 25.44 
L 279.36 25.44 
" clip-path="url(#p0848e3b6be)" style="fill: none; stroke: #b2b2b2; stroke-opacity: 0.35; stroke-width: 0.5; stroke-linecap: square"/>
   </g>
   <g id="line2d_5">
    <path d="M 8.64 84.64584 
L 11.659664 86.844 
L 14.679328 88.52616 
L 17.698992 88.36104 
L 20.718656 88.93896 
L 23.73832 90.79656 
L 26.757984 88.09272 
L 29.777647 89.22792 
L 32.797311 90.00192 
L 35.816975 91.39512 
L 38.836639 91.63248 
L 41.856303 90.75528 
L 44.875967 88.7016 
L 47.895631 88.52616 
L 50.915295 87.45288 
L 53.934959 88.0308 
L 56.954623 88.94928 
L 59.974287 89.3208 
L 62.993951 89.7336 
L 66.013614 91.86984 
L 69.033278 88.60872 
L 72.052942 86.87496 
L 75.072606 88.52616 
L 78.09227 90.11544 
L 81.111934 90.38376 
L 84.131598 90.53856 
L 87.151262 90.08448 
L 90.170926 88.79448 
L 93.19059 89.20728 
L 96.210254 89.22792 
L 99.229918 90.31152 
L 102.249581 90.10512 
L 105.269245 91.09584 
L 108.288909 91.61184 
L 111.308573 91.31256 
L 114.328237 92.87088 
L 117.347901 93.8616 
L 120.367565 92.02464 
L 123.387229 92.13816 
L 126.406893 92.07624 
L 129.426557 92.14848 
L 132.446221 92.64384 
L 135.465885 93.01536 
L 138.485548 93.69648 
L 141.505212 93.11856 
L 144.524876 92.44776 
L 147.54454 92.30328 
L 150.564204 92.87088 
L 153.583868 92.38584 
L 156.603532 92.47872 
L 159.623196 91.88016 
L 162.64286 90.42504 
L 165.662524 90.08448 
L 168.682188 89.92968 
L 171.701852 88.76352 
L 174.721515 87.94824 
L 177.741179 89.2692 
L 180.760843 88.72224 
L 183.780507 89.39304 
L 186.800171 89.40336 
L 189.819835 88.41264 
L 192.839499 88.4952 
L 195.859163 86.86464 
L 198.878827 86.42088 
L 201.898491 87.62832 
L 204.918155 86.93688 
L 207.937819 87.23616 
L 210.957482 88.63968 
L 213.977146 90.0432 
L 216.99681 92.12784 
L 220.016474 91.16808 
L 223.036138 91.46736 
L 226.055802 91.73568 
L 229.075466 91.78728 
L 232.09513 94.0164 
L 235.114794 92.5716 
L 238.134458 91.76664 
L 241.154122 92.33424 
L 244.173786 94.36728 
L 247.19345 94.46016 
L 250.213113 97.71096 
L 253.232777 98.48496 
L 256.252441 97.85544 
L 258.801716 99.10416 
L 261.201405 100.16712 
L 264.219531 102.23112 
L 267.226263 100.54896 
L 270.314953 100.70376 
L 273.309698 100.68312 
L 276.346592 100.95144 
L 279.36 101.28168 
" clip-path="url(#p0848e3b6be)" style="fill: none; stroke: #bebebe; stroke-width: 0.5; stroke-linecap: round"/>
   </g>
   <g id="line2d_6">
    <path d="M 8.64 68.9904 
L 11.659664 71.5704 
L 14.679328 73.48992 
L 17.698992 72.54048 
L 20.718656 73.56216 
L 23.73832 74.74896 
L 26.757984 73.3248 
L 29.777647 74.80056 
L 32.797311 77.556 
L 35.816975 78.55704 
L 38.836639 78.50544 
L 41.856303 78.04104 
L 44.875967 75.76032 
L 47.895631 75.73968 
L 50.915295 74.65608 
L 53.934959 74.83152 
L 56.954623 74.57352 
L 59.974287 75.20304 
L 62.993951 75.17208 
L 66.013614 78.05136 
L 69.033278 75.1308 
L 72.052942 72.16896 
L 75.072606 73.08744 
L 78.09227 74.72832 
L 81.111934 74.48064 
L 84.131598 74.28456 
L 87.151262 73.21128 
L 90.170926 70.2804 
L 93.19059 70.2288 
L 96.210254 71.56008 
L 99.229918 73.79952 
L 102.249581 73.35576 
L 105.269245 74.0988 
L 108.288909 75.5952 
L 111.308573 75.5952 
L 114.328237 77.61792 
L 117.347901 77.63856 
L 120.367565 75.40944 
L 123.387229 75.40944 
L 126.406893 75.04824 
L 129.426557 74.98632 
L 132.446221 75.58488 
L 135.465885 75.87384 
L 138.485548 76.49304 
L 141.505212 76.15248 
L 144.524876 75.82224 
L 147.54454 75.84288 
L 150.564204 76.03896 
L 153.583868 75.51264 
L 156.603532 75.56424 
L 159.623196 75.05856 
L 162.64286 73.26288 
L 165.662524 73.20096 
L 168.682188 73.00488 
L 171.701852 71.68392 
L 174.721515 70.6932 
L 177.741179 72.62304 
L 180.760843 73.52088 
L 183.780507 73.83048 
L 186.800171 73.8408 
L 189.819835 73.29384 
L 192.839499 73.72728 
L 195.859163 70.32168 
L 198.878827 69.77472 
L 201.898491 70.34232 
L 204.918155 70.67256 
L 207.937819 70.51776 
L 210.957482 70.848 
L 213.977146 72.31344 
L 216.99681 76.01832 
L 220.016474 75.41976 
L 223.036138 75.83256 
L 226.055802 75.79128 
L 229.075466 75.82224 
L 232.09513 77.82432 
L 235.114794 76.14216 
L 238.134458 74.75928 
L 241.154122 74.96568 
L 244.173786 77.75208 
L 247.19345 79.48584 
L 250.213113 83.31456 
L 253.232777 85.90488 
L 256.252441 84.79032 
L 258.801716 85.84296 
L 261.201405 88.25784 
L 264.219531 91.41576 
L 267.226263 88.7532 
L 270.314953 88.65 
L 273.309698 88.55712 
L 276.346592 88.96992 
L 279.36 89.7336 
" clip-path="url(#p0848e3b6be)" style="fill: none; stroke: #4a8dff; stroke-width: 0.6"/>
   </g>
   <g id="line2d_7">
    <path d="M 8.64 71.5188 
L 11.659664 73.3764 
L 14.679328 78.846 
L 17.698992 77.75208 
L 20.718656 78.88728 
L 23.73832 81.34344 
L 26.757984 80.53848 
L 29.777647 82.0452 
L 32.797311 86.92656 
L 35.816975 88.58808 
L 38.836639 88.96992 
L 41.856303 86.7924 
L 44.875967 85.296 
L 47.895631 86.24544 
L 50.915295 82.96368 
L 53.934959 82.13808 
L 56.954623 82.47864 
L 59.974287 82.58184 
L 62.993951 83.03592 
L 66.013614 87.3084 
L 69.033278 82.06584 
L 72.052942 79.71288 
L 75.072606 81.24024 
L 78.09227 84.17112 
L 81.111934 84.24336 
L 84.131598 83.29392 
L 87.151262 82.8192 
L 90.170926 80.64168 
L 93.19059 81.38472 
L 96.210254 80.87904 
L 99.229918 83.13912 
L 102.249581 83.19072 
L 105.269245 85.296 
L 108.288909 87.17424 
L 111.308573 85.71912 
L 114.328237 87.53544 
L 117.347901 88.17528 
L 120.367565 85.41984 
L 123.387229 85.17216 
L 126.406893 84.9348 
L 129.426557 85.01736 
L 132.446221 86.14224 
L 135.465885 85.90488 
L 138.485548 86.328 
L 141.505212 86.24544 
L 144.524876 85.72944 
L 147.54454 85.7088 
L 150.564204 86.40024 
L 153.583868 85.09992 
L 156.603532 86.02872 
L 159.623196 84.78 
L 162.64286 83.53128 
L 165.662524 82.83984 
L 168.682188 82.03488 
L 171.701852 79.39296 
L 174.721515 79.66128 
L 177.741179 82.15872 
L 180.760843 82.43736 
L 183.780507 82.93272 
L 186.800171 83.00496 
L 189.819835 82.6128 
L 192.839499 82.28256 
L 195.859163 78.01008 
L 198.878827 76.19376 
L 201.898491 77.66952 
L 204.918155 77.74176 
L 207.937819 78.1752 
L 210.957482 79.5684 
L 213.977146 80.8068 
L 216.99681 85.20312 
L 220.016474 84.12984 
L 223.036138 84.03696 
L 226.055802 84.06792 
L 229.075466 84.3156 
L 232.09513 87.02976 
L 235.114794 85.21344 
L 238.134458 84.28464 
L 241.154122 84.32592 
L 244.173786 89.08344 
L 247.19345 89.5272 
L 250.213113 95.14128 
L 253.232777 96.98856 
L 256.252441 95.08968 
L 258.801716 97.71096 
L 261.201405 99.80592 
L 264.219531 101.79768 
L 267.226263 100.03296 
L 270.314953 100.518 
L 273.309698 99.98136 
L 276.346592 100.49736 
L 279.36 100.78632 
" clip-path="url(#p0848e3b6be)" style="fill: none; stroke: #f5841e; stroke-width: 0.6"/>
   </g>
  </g>
 </g>
 <defs>
  <clipPath id="p0848e3b6be">
   <rect x="8.64" y="4.8" width="270.72" height="103.2"/>
  </clipPath>
 </defs>
</svg>
