<?xml version="1.0" encoding="utf-8" standalone="no"?>
<!DOCTYPE svg PUBLIC "-//W3C//DTD SVG 1.1//EN"
  "http://www.w3.org/Graphics/SVG/1.1/DTD/svg11.dtd">
<svg xmlns:xlink="http://www.w3.org/1999/xlink" width="288pt" height="120pt" viewBox="0 0 288 120" xmlns="http://www.w3.org/2000/svg" version="1.1">
<desc id="nav-meta">{"window":"1m","count":4,"labels":["15.02","25.02","06.03","16.03"],"tick_utc":["2026-02-15T02:00:29Z","2026-02-25T03:27:12Z","2026-03-06T03:16:38Z","2026-03-16T03:46:39Z"],"w":720,"h":300}</desc>

 <metadata>
  <rdf:RDF xmlns:dc="http://purl.org/dc/elements/1.1/" xmlns:cc="http://creativecommons.org/ns#" xmlns:rdf="http://www.w3.org/1999/02/22-rdf-syntax-ns#">
   <cc:Work>
    <dc:type rdf:resource="http://purl.org/dc/dcmitype/StillImage"/>
    <dc:date>2026-03-16T07:57:30.475827</dc:date>
    <dc:format>image/svg+xml</dc:format>
    <dc:creator>
     <cc:Agent>
      <dc:title>Matplotlib v3.10.8, https://matplotlib.org/</dc:title>
     </cc:Agent>
    </dc:creator>
   </cc:Work>
  </rdf:RDF>
 </metadata>
 <defs>
  <style type="text/css">*{stroke-linejoin: round; stroke-linecap: butt}</style>
 </defs>
 <g id="figure_1">
  <g id="patch_1">
   <path d="M 0 120 
L 288 120 
L 288 0 
L 0 0 
L 0 120 
z
" style="fill: none; opacity: 0"/>
  </g>
  <g id="axes_1">
   <g id="patch_2">
    <path d="M 8.64 108 
L 279.36 108 
L 279.36 4.8 
L 8.64 4.8 
L 8.64 108 
z
" style="fill: none"/>
   </g>
   <g id="matplotlib.axis_1"/>
   <g id="matplotlib.axis_2"/>
   <g id="line2d_1">
    <path d="M 8.64 87.36 
L 279.36 87.36 
" clip-path="url(#p5ca7c7de23)" style="fill: none; stroke: #b2b2b2; stroke-opacity: 0.35; stroke-width: 0.5; stroke-linecap: square"/>
   </g>
   <g id="line2d_2">
    <path d="M 8.64 66.72 
L 279.36 66.72 
" clip-path="url(#p5ca7c7de23)" style="fill: none; stroke: #b2b2b2; stroke-opacity: 0.35; stroke-width: 0.5; stroke-linecap: square"/>
   </g>
   <g id="line2d_3">
    <path d="M 8.64 46.08 
L 279.36 46.08 
" clip-path="url(#p5ca7c7de23)" style="fill: none; stroke: #b2b2b2; stroke-opacity: 0.35; stroke-width: 0.5; stroke-linecap: square"/>
   </g>
   <g id="line2d_4">
    <path d="M 8.64 25.44 
L 279.36 25.44 
" clip-path="url(#p5ca7c7de23)" style="fill: none; stroke: #b2b2b2; stroke-opacity: 0.35; stroke-width: 0.5; stroke-linecap: square"/>
   </g>
   <g id="line2d_5">
    <path d="M 8.64 100.54896 
L 18.548772 101.04432 
L 26.690622 100.81728 
L 37.157007 101.034 
L 46.45719 101.4984 
L 55.714265 101.33328 
L 64.968862 101.1372 
L 74.386732 101.06496 
L 83.726253 102.09696 
L 92.251125 102.05568 
L 102.315735 101.4984 
L 111.585743 100.60056 
L 120.879568 100.80696 
L 130.081356 101.45712 
L 139.604412 100.55928 
L 148.819779 101.10624 
L 158.152941 100.8792 
L 167.412279 100.74504 
L 176.743824 100.21872 
L 186.050905 100.53864 
L 195.290952 101.07528 
L 204.692873 101.38488 
L 214.032285 101.26104 
L 223.283972 100.78632 
L 232.591807 100.91016 
L 241.939949 100.99272 
L 251.233451 100.38384 
L 260.532557 100.50768 
L 270.022204 100.60056 
L 279.36 99.76464 
" clip-path="url(#p5ca7c7de23)" style="fill: none; stroke: #bebebe; stroke-width: 0.5; stroke-linecap: round"/>
   </g>
   <g id="line2d_6">
    <path d="M 8.64 88.9596 
L 18.548772 90.6624 
L 26.690622 89.94 
L 37.157007 90.00192 
L 46.45719 90.3528 
L 55.714265 90.62112 
L 64.968862 90.5076 
L 74.386732 90.3528 
L 83.726253 92.004 
L 92.251125 92.13816 
L 102.315735 91.25064 
L 111.585743 89.166 
L 120.879568 89.56848 
L 130.081356 90.93072 
L 139.604412 89.41368 
L 148.819779 90.37344 
L 158.152941 89.79552 
L 167.412279 90.23928 
L 176.743824 88.0824 
L 186.050905 88.7532 
L 195.290952 90.16704 
L 204.692873 90.67272 
L 214.032285 90.18768 
L 223.283972 89.2692 
L 232.591807 89.54784 
L 241.939949 89.49624 
L 251.233451 88.31976 
L 260.532557 88.45392 
L 270.022204 88.46424 
L 279.36 86.38992 
" clip-path="url(#p5ca7c7de23)" style="fill: none; stroke: #4a8dff; stroke-width: 0.6"/>
   </g>
   <g id="line2d_7">
    <path d="M 8.64 100.38384 
L 18.548772 100.84824 
L 26.690622 100.65216 
L 37.157007 101.034 
L 46.45719 101.19912 
L 55.714265 101.10624 
L 64.968862 100.97208 
L 74.386732 100.91016 
L 83.726253 101.7564 
L 92.251125 101.84928 
L 102.315735 101.56032 
L 111.585743 100.85856 
L 120.879568 101.12688 
L 130.081356 101.4468 
L 139.604412 101.02368 
L 148.819779 101.30232 
L 158.152941 100.81728 
L 167.412279 100.79664 
L 176.743824 99.3312 
L 186.050905 99.92976 
L 195.290952 100.78632 
L 204.692873 101.17848 
L 214.032285 101.1372 
L 223.283972 100.21872 
L 232.591807 100.37352 
L 241.939949 100.4664 
L 251.233451 99.88848 
L 260.532557 99.94008 
L 270.022204 99.81624 
L 279.36 98.93904 
" clip-path="url(#p5ca7c7de23)" style="fill: none; stroke: #f5841e; stroke-width: 0.6"/>
   </g>
  </g>
 </g>
 <defs>
  <clipPath id="p5ca7c7de23">
   <rect x="8.64" y="4.8" width="270.72" height="103.2"/>
  </clipPath>
 </defs>
</svg>
