<?xml version="1.0" encoding="utf-8" standalone="no"?>
<!DOCTYPE svg PUBLIC "-//W3C//DTD SVG 1.1//EN"
  "http://www.w3.org/Graphics/SVG/1.1/DTD/svg11.dtd">
<svg xmlns:xlink="http://www.w3.org/1999/xlink" width="288pt" height="120pt" viewBox="0 0 288 120" xmlns="http://www.w3.org/2000/svg" version="1.1">
<desc id="nav-meta">{"window":"1m","count":4,"labels":["14.05","24.05","02.06","12.06"],"tick_utc":["2026-05-14T04:32:13Z","2026-05-24T04:51:26Z","2026-06-02T05:15:35Z","2026-06-12T05:19:52Z"],"w":720,"h":300}</desc>

 <metadata>
  <rdf:RDF xmlns:dc="http://purl.org/dc/elements/1.1/" xmlns:cc="http://creativecommons.org/ns#" xmlns:rdf="http://www.w3.org/1999/02/22-rdf-syntax-ns#">
   <cc:Work>
    <dc:type rdf:resource="http://purl.org/dc/dcmitype/StillImage"/>
    <dc:date>2026-06-12T20:55:24.561051</dc:date>
    <dc:format>image/svg+xml</dc:format>
    <dc:creator>
     <cc:Agent>
      <dc:title>Matplotlib v3.11.0, https://matplotlib.org/</dc:title>
     </cc:Agent>
    </dc:creator>
   </cc:Work>
  </rdf:RDF>
 </metadata>
 <defs>
  <style type="text/css">*{stroke-linejoin: round; stroke-linecap: butt}</style>
 </defs>
 <g id="figure_1">
  <g id="patch_1">
   <path d="M 0 120 
L 288 120 
L 288 0 
L 0 0 
L 0 120 
z
" style="fill: none; opacity: 0"/>
  </g>
  <g id="axes_1">
   <g id="patch_2">
    <path d="M 8.64 108 
L 279.36 108 
L 279.36 4.8 
L 8.64 4.8 
L 8.64 108 
z
" style="fill: none"/>
   </g>
   <g id="matplotlib.axis_1"/>
   <g id="matplotlib.axis_2"/>
   <g id="line2d_1">
    <path d="M 8.64 87.36 
L 279.36 87.36 
" clip-path="url(#pa29fe52968)" style="fill: none; stroke: #b2b2b2; stroke-opacity: 0.35; stroke-width: 0.5; stroke-linecap: square"/>
   </g>
   <g id="line2d_2">
    <path d="M 8.64 66.72 
L 279.36 66.72 
" clip-path="url(#pa29fe52968)" style="fill: none; stroke: #b2b2b2; stroke-opacity: 0.35; stroke-width: 0.5; stroke-linecap: square"/>
   </g>
   <g id="line2d_3">
    <path d="M 8.64 46.08 
L 279.36 46.08 
" clip-path="url(#pa29fe52968)" style="fill: none; stroke: #b2b2b2; stroke-opacity: 0.35; stroke-width: 0.5; stroke-linecap: square"/>
   </g>
   <g id="line2d_4">
    <path d="M 8.64 25.44 
L 279.36 25.44 
" clip-path="url(#pa29fe52968)" style="fill: none; stroke: #b2b2b2; stroke-opacity: 0.35; stroke-width: 0.5; stroke-linecap: square"/>
   </g>
   <g id="line2d_5">
    <path d="M 8.64 100.22904 
L 18.010508 100.01232 
L 27.216002 100.43544 
L 36.679755 100.75536 
L 46.094835 101.02368 
L 55.352563 101.02368 
L 64.710444 101.17848 
L 74.088075 100.7244 
L 83.341163 100.75536 
L 92.537591 101.11656 
L 102.009762 100.91016 
L 111.457003 100.89984 
L 120.640265 101.1372 
L 130.060525 101.2404 
L 139.355271 101.6532 
L 148.686711 101.4984 
L 157.876772 101.48808 
L 167.39168 101.32296 
L 176.854138 101.51904 
L 186.086937 101.7048 
L 195.51637 102.54072 
L 204.808958 103.08768 
L 213.979916 103.36632 
L 223.161128 104.22288 
L 232.686073 103.85136 
L 242.051832 103.68624 
L 251.1984 103.43856 
L 260.619632 103.81008 
L 269.998881 103.72752 
L 279.36 103.50048 
" clip-path="url(#pa29fe52968)" style="fill: none; stroke: #bebebe; stroke-width: 0.5; stroke-linecap: round"/>
   </g>
   <g id="line2d_6">
    <path d="M 8.64 86.1732 
L 18.010508 85.92552 
L 27.216002 86.55504 
L 36.679755 87.13296 
L 46.094835 88.10304 
L 55.352563 87.9276 
L 64.710444 88.26816 
L 74.088075 87.78312 
L 83.341163 87.95856 
L 92.537591 88.94928 
L 102.009762 88.14432 
L 111.457003 88.33008 
L 120.640265 88.52616 
L 130.060525 88.86672 
L 139.355271 90.22896 
L 148.686711 89.82648 
L 157.876772 89.87808 
L 167.39168 89.46528 
L 176.854138 90.0432 
L 186.086937 89.96064 
L 195.51637 91.99368 
L 204.808958 93.05664 
L 213.979916 93.74808 
L 223.161128 97.02984 
L 232.686073 95.93592 
L 242.051832 95.07936 
L 251.1984 94.46016 
L 260.619632 95.47152 
L 269.998881 95.11032 
L 279.36 94.82136 
" clip-path="url(#pa29fe52968)" style="fill: none; stroke: #4a8dff; stroke-width: 0.6"/>
   </g>
   <g id="line2d_7">
    <path d="M 8.64 94.54272 
L 18.010508 92.85024 
L 27.216002 94.82136 
L 36.679755 95.75016 
L 46.094835 96.97824 
L 55.352563 97.08144 
L 64.710444 97.23624 
L 74.088075 95.94624 
L 83.341163 96.30744 
L 92.537591 98.08248 
L 102.009762 97.2672 
L 111.457003 96.61704 
L 120.640265 97.23624 
L 130.060525 98.08248 
L 139.355271 99.18672 
L 148.686711 99.03192 
L 157.876772 99.1248 
L 167.39168 98.74296 
L 176.854138 99.09384 
L 186.086937 100.0536 
L 195.51637 101.23008 
L 204.808958 101.99376 
L 213.979916 102.08664 
L 223.161128 102.8916 
L 232.686073 102.45816 
L 242.051832 102.28272 
L 251.1984 102.10728 
L 260.619632 102.582 
L 269.998881 102.29304 
L 279.36 102.08664 
" clip-path="url(#pa29fe52968)" style="fill: none; stroke: #f5841e; stroke-width: 0.6"/>
   </g>
  </g>
 </g>
 <defs>
  <clipPath id="pa29fe52968">
   <rect x="8.64" y="4.8" width="270.72" height="103.2"/>
  </clipPath>
 </defs>
</svg>
