<?xml version="1.0" encoding="utf-8" standalone="no"?>
<!DOCTYPE svg PUBLIC "-//W3C//DTD SVG 1.1//EN"
  "http://www.w3.org/Graphics/SVG/1.1/DTD/svg11.dtd">
<svg xmlns:xlink="http://www.w3.org/1999/xlink" width="288pt" height="120pt" viewBox="0 0 288 120" xmlns="http://www.w3.org/2000/svg" version="1.1">
<desc id="nav-meta">{"window":"1m","count":4,"labels":["05.06","15.06","25.06","05.07"],"tick_utc":["2026-06-05T05:03:08Z","2026-06-15T06:07:39Z","2026-06-25T04:50:14Z","2026-07-05T04:44:59Z"],"w":720,"h":300}</desc>

 <metadata>
  <rdf:RDF xmlns:dc="http://purl.org/dc/elements/1.1/" xmlns:cc="http://creativecommons.org/ns#" xmlns:rdf="http://www.w3.org/1999/02/22-rdf-syntax-ns#">
   <cc:Work>
    <dc:type rdf:resource="http://purl.org/dc/dcmitype/StillImage"/>
    <dc:date>2026-07-05T04:45:01.502039</dc:date>
    <dc:format>image/svg+xml</dc:format>
    <dc:creator>
     <cc:Agent>
      <dc:title>Matplotlib v3.11.0, https://matplotlib.org/</dc:title>
     </cc:Agent>
    </dc:creator>
   </cc:Work>
  </rdf:RDF>
 </metadata>
 <defs>
  <style type="text/css">*{stroke-linejoin: round; stroke-linecap: butt}</style>
 </defs>
 <g id="figure_1">
  <g id="patch_1">
   <path d="M 0 120 
L 288 120 
L 288 0 
L 0 0 
L 0 120 
z
" style="fill: none; opacity: 0"/>
  </g>
  <g id="axes_1">
   <g id="patch_2">
    <path d="M 8.64 108 
L 279.36 108 
L 279.36 4.8 
L 8.64 4.8 
L 8.64 108 
z
" style="fill: none"/>
   </g>
   <g id="matplotlib.axis_1"/>
   <g id="matplotlib.axis_2"/>
   <g id="line2d_1">
    <path d="M 8.64 87.36 
L 279.36 87.36 
" clip-path="url(#pcf5ac3f181)" style="fill: none; stroke: #b2b2b2; stroke-opacity: 0.35; stroke-width: 0.5; stroke-linecap: square"/>
   </g>
   <g id="line2d_2">
    <path d="M 8.64 66.72 
L 279.36 66.72 
" clip-path="url(#pcf5ac3f181)" style="fill: none; stroke: #b2b2b2; stroke-opacity: 0.35; stroke-width: 0.5; stroke-linecap: square"/>
   </g>
   <g id="line2d_3">
    <path d="M 8.64 46.08 
L 279.36 46.08 
" clip-path="url(#pcf5ac3f181)" style="fill: none; stroke: #b2b2b2; stroke-opacity: 0.35; stroke-width: 0.5; stroke-linecap: square"/>
   </g>
   <g id="line2d_4">
    <path d="M 8.64 25.44 
L 279.36 25.44 
" clip-path="url(#pcf5ac3f181)" style="fill: none; stroke: #b2b2b2; stroke-opacity: 0.35; stroke-width: 0.5; stroke-linecap: square"/>
   </g>
   <g id="line2d_5">
    <path d="M 8.64 103.36632 
L 17.529032 104.22288 
L 26.75086 103.85136 
L 35.818568 103.68624 
L 44.674059 103.43856 
L 53.795474 103.81008 
L 62.876242 103.72752 
L 71.939457 103.50048 
L 80.901213 103.5108 
L 89.99452 103.31472 
L 99.322404 102.95352 
L 108.401709 102.61296 
L 117.14195 102.6336 
L 126.126485 102.9948 
L 135.366912 103.28376 
L 144.033697 103.01544 
L 153.24936 102.69552 
L 162.541404 102.582 
L 171.029515 102.88128 
L 180.089595 103.15992 
L 189.114985 103.36632 
L 198.189066 103.36632 
L 207.106206 102.81936 
L 216.306091 103.0464 
L 225.399189 102.9432 
L 234.251964 102.59232 
L 243.41183 102.40656 
L 252.281532 102.02472 
L 261.211106 101.68416 
L 270.200029 101.3436 
L 279.36 101.6532 
" clip-path="url(#pcf5ac3f181)" style="fill: none; stroke: #bebebe; stroke-width: 0.5; stroke-linecap: round"/>
   </g>
   <g id="line2d_6">
    <path d="M 8.64 93.74808 
L 17.529032 97.02984 
L 26.75086 95.93592 
L 35.818568 95.07936 
L 44.674059 94.46016 
L 53.795474 95.47152 
L 62.876242 95.11032 
L 71.939457 94.82136 
L 80.901213 94.8936 
L 89.99452 94.70784 
L 99.322404 94.04736 
L 108.401709 93.40752 
L 117.14195 92.9844 
L 126.126485 93.93384 
L 135.366912 94.4292 
L 144.033697 94.19184 
L 153.24936 93.87192 
L 162.541404 93.81 
L 171.029515 94.03704 
L 180.089595 94.83168 
L 189.114985 95.48184 
L 198.189066 96.63768 
L 207.106206 96.14232 
L 216.306091 96.30744 
L 225.399189 96.29712 
L 234.251964 96.04944 
L 243.41183 95.9256 
L 252.281532 95.39928 
L 261.211106 94.31568 
L 270.200029 93.57264 
L 279.36 93.32496 
" clip-path="url(#pcf5ac3f181)" style="fill: none; stroke: #4a8dff; stroke-width: 0.6"/>
   </g>
   <g id="line2d_7">
    <path d="M 8.64 102.08664 
L 17.529032 102.8916 
L 26.75086 102.45816 
L 35.818568 102.28272 
L 44.674059 102.10728 
L 53.795474 102.582 
L 62.876242 102.29304 
L 71.939457 102.08664 
L 80.901213 102.066 
L 89.99452 101.86992 
L 99.322404 101.48808 
L 108.401709 101.40552 
L 117.14195 101.4984 
L 126.126485 101.97312 
L 135.366912 102.26208 
L 144.033697 102.066 
L 153.24936 101.90088 
L 162.541404 101.90088 
L 171.029515 102.0144 
L 180.089595 102.25176 
L 189.114985 102.6336 
L 198.189066 102.88128 
L 207.106206 102.77808 
L 216.306091 102.85032 
L 225.399189 102.93288 
L 234.251964 102.95352 
L 243.41183 103.00512 
L 252.281532 102.69552 
L 261.211106 102.55104 
L 270.200029 102.2724 
L 279.36 102.21048 
" clip-path="url(#pcf5ac3f181)" style="fill: none; stroke: #f5841e; stroke-width: 0.6"/>
   </g>
  </g>
 </g>
 <defs>
  <clipPath id="pcf5ac3f181">
   <rect x="8.64" y="4.8" width="270.72" height="103.2"/>
  </clipPath>
 </defs>
</svg>
