<?xml version="1.0" encoding="utf-8" standalone="no"?>
<!DOCTYPE svg PUBLIC "-//W3C//DTD SVG 1.1//EN"
  "http://www.w3.org/Graphics/SVG/1.1/DTD/svg11.dtd">
<svg xmlns:xlink="http://www.w3.org/1999/xlink" width="288pt" height="120pt" viewBox="0 0 288 120" xmlns="http://www.w3.org/2000/svg" version="1.1">
<desc id="nav-meta">{"window":"1m","count":4,"labels":["01.05","11.05","20.05","30.05"],"tick_utc":["2026-05-01T04:39:16Z","2026-05-11T04:46:58Z","2026-05-20T04:51:15Z","2026-05-30T04:39:03Z"],"w":720,"h":300}</desc>

 <metadata>
  <rdf:RDF xmlns:dc="http://purl.org/dc/elements/1.1/" xmlns:cc="http://creativecommons.org/ns#" xmlns:rdf="http://www.w3.org/1999/02/22-rdf-syntax-ns#">
   <cc:Work>
    <dc:type rdf:resource="http://purl.org/dc/dcmitype/StillImage"/>
    <dc:date>2026-05-30T14:17:32.513050</dc:date>
    <dc:format>image/svg+xml</dc:format>
    <dc:creator>
     <cc:Agent>
      <dc:title>Matplotlib v3.10.9, https://matplotlib.org/</dc:title>
     </cc:Agent>
    </dc:creator>
   </cc:Work>
  </rdf:RDF>
 </metadata>
 <defs>
  <style type="text/css">*{stroke-linejoin: round; stroke-linecap: butt}</style>
 </defs>
 <g id="figure_1">
  <g id="patch_1">
   <path d="M 0 120 
L 288 120 
L 288 0 
L 0 0 
L 0 120 
z
" style="fill: none; opacity: 0"/>
  </g>
  <g id="axes_1">
   <g id="patch_2">
    <path d="M 8.64 108 
L 279.36 108 
L 279.36 4.8 
L 8.64 4.8 
L 8.64 108 
z
" style="fill: none"/>
   </g>
   <g id="matplotlib.axis_1"/>
   <g id="matplotlib.axis_2"/>
   <g id="line2d_1">
    <path d="M 8.64 87.36 
L 279.36 87.36 
" clip-path="url(#pb11670dba9)" style="fill: none; stroke: #b2b2b2; stroke-opacity: 0.35; stroke-width: 0.5; stroke-linecap: square"/>
   </g>
   <g id="line2d_2">
    <path d="M 8.64 66.72 
L 279.36 66.72 
" clip-path="url(#pb11670dba9)" style="fill: none; stroke: #b2b2b2; stroke-opacity: 0.35; stroke-width: 0.5; stroke-linecap: square"/>
   </g>
   <g id="line2d_3">
    <path d="M 8.64 46.08 
L 279.36 46.08 
" clip-path="url(#pb11670dba9)" style="fill: none; stroke: #b2b2b2; stroke-opacity: 0.35; stroke-width: 0.5; stroke-linecap: square"/>
   </g>
   <g id="line2d_4">
    <path d="M 8.64 25.44 
L 279.36 25.44 
" clip-path="url(#pb11670dba9)" style="fill: none; stroke: #b2b2b2; stroke-opacity: 0.35; stroke-width: 0.5; stroke-linecap: square"/>
   </g>
   <g id="line2d_5">
    <path d="M 8.64 101.21976 
L 17.736978 101.20944 
L 27.261713 101.23008 
L 36.593692 100.92048 
L 45.7233 101.06496 
L 55.222968 100.70376 
L 64.560674 100.55928 
L 73.740524 100.53864 
L 83.109888 99.60984 
L 92.633217 99.72336 
L 102.042126 99.44472 
L 111.247691 99.25896 
L 120.627319 99.32088 
L 129.952167 100.22904 
L 139.333416 100.01232 
L 148.549462 100.43544 
L 158.024062 100.75536 
L 167.449934 101.02368 
L 176.718274 101.02368 
L 186.086882 101.17848 
L 195.475261 100.7244 
L 204.738955 100.75536 
L 213.945925 101.11656 
L 223.428953 100.91016 
L 232.887023 100.89984 
L 242.080811 101.1372 
L 251.511869 101.2404 
L 260.817269 101.6532 
L 270.159405 101.4984 
L 279.36 101.48808 
" clip-path="url(#pb11670dba9)" style="fill: none; stroke: #bebebe; stroke-width: 0.5; stroke-linecap: round"/>
   </g>
   <g id="line2d_6">
    <path d="M 8.64 85.77072 
L 17.736978 85.38888 
L 27.261713 85.3992 
L 36.593692 84.09888 
L 45.7233 84.22272 
L 55.222968 84.34656 
L 64.560674 85.06896 
L 73.740524 85.7604 
L 83.109888 85.0896 
L 92.633217 85.01736 
L 102.042126 84.9348 
L 111.247691 85.296 
L 120.627319 85.35792 
L 129.952167 86.1732 
L 139.333416 85.92552 
L 148.549462 86.55504 
L 158.024062 87.13296 
L 167.449934 88.10304 
L 176.718274 87.9276 
L 186.086882 88.26816 
L 195.475261 87.78312 
L 204.738955 87.95856 
L 213.945925 88.94928 
L 223.428953 88.14432 
L 232.887023 88.33008 
L 242.080811 88.52616 
L 251.511869 88.86672 
L 260.817269 90.22896 
L 270.159405 89.82648 
L 279.36 89.87808 
" clip-path="url(#pb11670dba9)" style="fill: none; stroke: #4a8dff; stroke-width: 0.6"/>
   </g>
   <g id="line2d_7">
    <path d="M 8.64 96.89568 
L 17.736978 95.45088 
L 27.261713 95.67792 
L 36.593692 93.43848 
L 45.7233 92.90184 
L 55.222968 92.25168 
L 64.560674 92.87088 
L 73.740524 94.2744 
L 83.109888 93.1392 
L 92.633217 92.97408 
L 102.042126 92.9844 
L 111.247691 92.60256 
L 120.627319 92.53032 
L 129.952167 94.54272 
L 139.333416 92.85024 
L 148.549462 94.82136 
L 158.024062 95.75016 
L 167.449934 96.97824 
L 176.718274 97.08144 
L 186.086882 97.23624 
L 195.475261 95.94624 
L 204.738955 96.30744 
L 213.945925 98.08248 
L 223.428953 97.2672 
L 232.887023 96.61704 
L 242.080811 97.23624 
L 251.511869 98.08248 
L 260.817269 99.18672 
L 270.159405 99.03192 
L 279.36 99.1248 
" clip-path="url(#pb11670dba9)" style="fill: none; stroke: #f5841e; stroke-width: 0.6"/>
   </g>
  </g>
 </g>
 <defs>
  <clipPath id="pb11670dba9">
   <rect x="8.64" y="4.8" width="270.72" height="103.2"/>
  </clipPath>
 </defs>
</svg>
