<?xml version="1.0" encoding="utf-8" standalone="no"?>
<!DOCTYPE svg PUBLIC "-//W3C//DTD SVG 1.1//EN"
  "http://www.w3.org/Graphics/SVG/1.1/DTD/svg11.dtd">
<svg xmlns:xlink="http://www.w3.org/1999/xlink" width="288pt" height="120pt" viewBox="0 0 288 120" xmlns="http://www.w3.org/2000/svg" version="1.1">
<desc id="nav-meta">{"window":"1m","count":4,"labels":["04.02","14.02","24.02","06.03"],"tick_utc":["2026-02-04T08:15:41Z","2026-02-14T03:16:28Z","2026-02-24T01:30:44Z","2026-03-06T03:16:38Z"],"w":720,"h":300}</desc>

 <metadata>
  <rdf:RDF xmlns:dc="http://purl.org/dc/elements/1.1/" xmlns:cc="http://creativecommons.org/ns#" xmlns:rdf="http://www.w3.org/1999/02/22-rdf-syntax-ns#">
   <cc:Work>
    <dc:type rdf:resource="http://purl.org/dc/dcmitype/StillImage"/>
    <dc:date>2026-03-06T03:16:40.710146</dc:date>
    <dc:format>image/svg+xml</dc:format>
    <dc:creator>
     <cc:Agent>
      <dc:title>Matplotlib v3.10.8, https://matplotlib.org/</dc:title>
     </cc:Agent>
    </dc:creator>
   </cc:Work>
  </rdf:RDF>
 </metadata>
 <defs>
  <style type="text/css">*{stroke-linejoin: round; stroke-linecap: butt}</style>
 </defs>
 <g id="figure_1">
  <g id="patch_1">
   <path d="M 0 120 
L 288 120 
L 288 0 
L 0 0 
L 0 120 
z
" style="fill: none; opacity: 0"/>
  </g>
  <g id="axes_1">
   <g id="patch_2">
    <path d="M 8.64 108 
L 279.36 108 
L 279.36 4.8 
L 8.64 4.8 
L 8.64 108 
z
" style="fill: none"/>
   </g>
   <g id="matplotlib.axis_1"/>
   <g id="matplotlib.axis_2"/>
   <g id="line2d_1">
    <path d="M 8.64 87.36 
L 279.36 87.36 
" clip-path="url(#p2309b478bd)" style="fill: none; stroke: #b2b2b2; stroke-opacity: 0.35; stroke-width: 0.5; stroke-linecap: square"/>
   </g>
   <g id="line2d_2">
    <path d="M 8.64 66.72 
L 279.36 66.72 
" clip-path="url(#p2309b478bd)" style="fill: none; stroke: #b2b2b2; stroke-opacity: 0.35; stroke-width: 0.5; stroke-linecap: square"/>
   </g>
   <g id="line2d_3">
    <path d="M 8.64 46.08 
L 279.36 46.08 
" clip-path="url(#p2309b478bd)" style="fill: none; stroke: #b2b2b2; stroke-opacity: 0.35; stroke-width: 0.5; stroke-linecap: square"/>
   </g>
   <g id="line2d_4">
    <path d="M 8.64 25.44 
L 279.36 25.44 
" clip-path="url(#p2309b478bd)" style="fill: none; stroke: #b2b2b2; stroke-opacity: 0.35; stroke-width: 0.5; stroke-linecap: square"/>
   </g>
   <g id="line2d_5">
    <path d="M 8.64 99.10416 
L 15.861249 100.16712 
L 24.943525 102.23112 
L 33.991515 100.54896 
L 43.286134 100.70376 
L 52.29805 100.68312 
L 61.436803 100.95144 
L 70.504881 101.28168 
L 79.559076 101.71512 
L 88.643245 101.84928 
L 97.620875 101.034 
L 106.228297 100.54896 
L 115.898067 101.04432 
L 123.843533 100.81728 
L 134.057465 101.034 
L 143.133326 101.4984 
L 152.167118 101.33328 
L 161.19849 101.1372 
L 170.389199 101.06496 
L 179.503448 102.09696 
L 187.822697 102.05568 
L 197.644546 101.4984 
L 206.690959 100.60056 
L 215.760614 100.80696 
L 224.740452 101.45712 
L 234.033809 100.55928 
L 243.026899 101.10624 
L 252.134942 100.8792 
L 261.170943 100.74504 
L 270.277408 100.21872 
L 279.36 100.53864 
" clip-path="url(#p2309b478bd)" style="fill: none; stroke: #bebebe; stroke-width: 0.5; stroke-linecap: round"/>
   </g>
   <g id="line2d_6">
    <path d="M 8.64 85.84296 
L 15.861249 88.25784 
L 24.943525 91.41576 
L 33.991515 88.7532 
L 43.286134 88.65 
L 52.29805 88.55712 
L 61.436803 88.96992 
L 70.504881 89.7336 
L 79.559076 90.456 
L 88.643245 90.56952 
L 97.620875 89.15568 
L 106.228297 88.9596 
L 115.898067 90.6624 
L 123.843533 89.94 
L 134.057465 90.00192 
L 143.133326 90.3528 
L 152.167118 90.62112 
L 161.19849 90.5076 
L 170.389199 90.3528 
L 179.503448 92.004 
L 187.822697 92.13816 
L 197.644546 91.25064 
L 206.690959 89.166 
L 215.760614 89.56848 
L 224.740452 90.93072 
L 234.033809 89.41368 
L 243.026899 90.37344 
L 252.134942 89.79552 
L 261.170943 90.23928 
L 270.277408 88.0824 
L 279.36 88.7532 
" clip-path="url(#p2309b478bd)" style="fill: none; stroke: #4a8dff; stroke-width: 0.6"/>
   </g>
   <g id="line2d_7">
    <path d="M 8.64 97.71096 
L 15.861249 99.80592 
L 24.943525 101.79768 
L 33.991515 100.03296 
L 43.286134 100.518 
L 52.29805 99.98136 
L 61.436803 100.49736 
L 70.504881 100.78632 
L 79.559076 101.07528 
L 88.643245 101.26104 
L 97.620875 100.63152 
L 106.228297 100.38384 
L 115.898067 100.84824 
L 123.843533 100.65216 
L 134.057465 101.034 
L 143.133326 101.19912 
L 152.167118 101.10624 
L 161.19849 100.97208 
L 170.389199 100.91016 
L 179.503448 101.7564 
L 187.822697 101.84928 
L 197.644546 101.56032 
L 206.690959 100.85856 
L 215.760614 101.12688 
L 224.740452 101.4468 
L 234.033809 101.02368 
L 243.026899 101.30232 
L 252.134942 100.81728 
L 261.170943 100.79664 
L 270.277408 99.3312 
L 279.36 99.92976 
" clip-path="url(#p2309b478bd)" style="fill: none; stroke: #f5841e; stroke-width: 0.6"/>
   </g>
  </g>
 </g>
 <defs>
  <clipPath id="p2309b478bd">
   <rect x="8.64" y="4.8" width="270.72" height="103.2"/>
  </clipPath>
 </defs>
</svg>
