<?xml version="1.0" encoding="utf-8" standalone="no"?>
<!DOCTYPE svg PUBLIC "-//W3C//DTD SVG 1.1//EN"
  "http://www.w3.org/Graphics/SVG/1.1/DTD/svg11.dtd">
<svg xmlns:xlink="http://www.w3.org/1999/xlink" width="288pt" height="120pt" viewBox="0 0 288 120" xmlns="http://www.w3.org/2000/svg" version="1.1">
<desc id="nav-meta">{"window":"1m","count":4,"labels":["19.02","01.03","10.03","20.03"],"tick_utc":["2026-02-19T03:28:49Z","2026-03-01T03:33:48Z","2026-03-10T03:14:38Z","2026-03-20T03:18:49Z"],"w":720,"h":300}</desc>

 <metadata>
  <rdf:RDF xmlns:dc="http://purl.org/dc/elements/1.1/" xmlns:cc="http://creativecommons.org/ns#" xmlns:rdf="http://www.w3.org/1999/02/22-rdf-syntax-ns#">
   <cc:Work>
    <dc:type rdf:resource="http://purl.org/dc/dcmitype/StillImage"/>
    <dc:date>2026-03-20T19:24:58.578395</dc:date>
    <dc:format>image/svg+xml</dc:format>
    <dc:creator>
     <cc:Agent>
      <dc:title>Matplotlib v3.10.8, https://matplotlib.org/</dc:title>
     </cc:Agent>
    </dc:creator>
   </cc:Work>
  </rdf:RDF>
 </metadata>
 <defs>
  <style type="text/css">*{stroke-linejoin: round; stroke-linecap: butt}</style>
 </defs>
 <g id="figure_1">
  <g id="patch_1">
   <path d="M 0 120 
L 288 120 
L 288 0 
L 0 0 
L 0 120 
z
" style="fill: none; opacity: 0"/>
  </g>
  <g id="axes_1">
   <g id="patch_2">
    <path d="M 8.64 108 
L 279.36 108 
L 279.36 4.8 
L 8.64 4.8 
L 8.64 108 
z
" style="fill: none"/>
   </g>
   <g id="matplotlib.axis_1"/>
   <g id="matplotlib.axis_2"/>
   <g id="line2d_1">
    <path d="M 8.64 87.36 
L 279.36 87.36 
" clip-path="url(#pff280172dd)" style="fill: none; stroke: #b2b2b2; stroke-opacity: 0.35; stroke-width: 0.5; stroke-linecap: square"/>
   </g>
   <g id="line2d_2">
    <path d="M 8.64 66.72 
L 279.36 66.72 
" clip-path="url(#pff280172dd)" style="fill: none; stroke: #b2b2b2; stroke-opacity: 0.35; stroke-width: 0.5; stroke-linecap: square"/>
   </g>
   <g id="line2d_3">
    <path d="M 8.64 46.08 
L 279.36 46.08 
" clip-path="url(#pff280172dd)" style="fill: none; stroke: #b2b2b2; stroke-opacity: 0.35; stroke-width: 0.5; stroke-linecap: square"/>
   </g>
   <g id="line2d_4">
    <path d="M 8.64 25.44 
L 279.36 25.44 
" clip-path="url(#pff280172dd)" style="fill: none; stroke: #b2b2b2; stroke-opacity: 0.35; stroke-width: 0.5; stroke-linecap: square"/>
   </g>
   <g id="line2d_5">
    <path d="M 8.64 101.4984 
L 17.922832 101.33328 
L 27.203179 101.1372 
L 36.647254 101.06496 
L 46.012761 102.09696 
L 54.561353 102.05568 
L 64.653967 101.4984 
L 73.949768 100.60056 
L 83.269453 100.80696 
L 92.496844 101.45712 
L 102.046397 100.55928 
L 111.287406 101.10624 
L 120.646536 100.8792 
L 129.931638 100.74504 
L 139.289148 100.21872 
L 148.622125 100.53864 
L 157.887882 101.07528 
L 167.315963 101.38488 
L 176.681362 101.26104 
L 185.95879 100.78632 
L 195.292524 100.91016 
L 204.666677 100.99272 
L 213.986037 100.38384 
L 223.311017 100.50768 
L 232.827069 100.60056 
L 242.190846 99.76464 
L 251.36485 99.49632 
L 260.773478 99.40344 
L 270.11348 100.09488 
L 279.36 100.3632 
" clip-path="url(#pff280172dd)" style="fill: none; stroke: #bebebe; stroke-width: 0.5; stroke-linecap: round"/>
   </g>
   <g id="line2d_6">
    <path d="M 8.64 90.3528 
L 17.922832 90.62112 
L 27.203179 90.5076 
L 36.647254 90.3528 
L 46.012761 92.004 
L 54.561353 92.13816 
L 64.653967 91.25064 
L 73.949768 89.166 
L 83.269453 89.56848 
L 92.496844 90.93072 
L 102.046397 89.41368 
L 111.287406 90.37344 
L 120.646536 89.79552 
L 129.931638 90.23928 
L 139.289148 88.0824 
L 148.622125 88.7532 
L 157.887882 90.16704 
L 167.315963 90.67272 
L 176.681362 90.18768 
L 185.95879 89.2692 
L 195.292524 89.54784 
L 204.666677 89.49624 
L 213.986037 88.31976 
L 223.311017 88.45392 
L 232.827069 88.46424 
L 242.190846 86.38992 
L 251.36485 84.80064 
L 260.773478 84.8316 
L 270.11348 86.586 
L 279.36 87.74184 
" clip-path="url(#pff280172dd)" style="fill: none; stroke: #4a8dff; stroke-width: 0.6"/>
   </g>
   <g id="line2d_7">
    <path d="M 8.64 101.19912 
L 17.922832 101.10624 
L 27.203179 100.97208 
L 36.647254 100.91016 
L 46.012761 101.7564 
L 54.561353 101.84928 
L 64.653967 101.56032 
L 73.949768 100.85856 
L 83.269453 101.12688 
L 92.496844 101.4468 
L 102.046397 101.02368 
L 111.287406 101.30232 
L 120.646536 100.81728 
L 129.931638 100.79664 
L 139.289148 99.3312 
L 148.622125 99.92976 
L 157.887882 100.78632 
L 167.315963 101.17848 
L 176.681362 101.1372 
L 185.95879 100.21872 
L 195.292524 100.37352 
L 204.666677 100.4664 
L 213.986037 99.88848 
L 223.311017 99.94008 
L 232.827069 99.81624 
L 242.190846 98.93904 
L 251.36485 98.3508 
L 260.773478 98.52624 
L 270.11348 99.78528 
L 279.36 100.12584 
" clip-path="url(#pff280172dd)" style="fill: none; stroke: #f5841e; stroke-width: 0.6"/>
   </g>
  </g>
 </g>
 <defs>
  <clipPath id="pff280172dd">
   <rect x="8.64" y="4.8" width="270.72" height="103.2"/>
  </clipPath>
 </defs>
</svg>
