<?xml version="1.0" encoding="utf-8" standalone="no"?>
<!DOCTYPE svg PUBLIC "-//W3C//DTD SVG 1.1//EN"
  "http://www.w3.org/Graphics/SVG/1.1/DTD/svg11.dtd">
<svg xmlns:xlink="http://www.w3.org/1999/xlink" width="288pt" height="120pt" viewBox="0 0 288 120" xmlns="http://www.w3.org/2000/svg" version="1.1">
<desc id="nav-meta">{"window":"3m","count":4,"labels":["12.11","12.12","10.01","09.02"],"tick_utc":["2025-11-12T12:00:00Z","2025-12-12T12:00:00Z","2026-01-10T12:00:00Z","2026-02-09T03:34:10Z"],"w":720,"h":300}</desc>

 <metadata>
  <rdf:RDF xmlns:dc="http://purl.org/dc/elements/1.1/" xmlns:cc="http://creativecommons.org/ns#" xmlns:rdf="http://www.w3.org/1999/02/22-rdf-syntax-ns#">
   <cc:Work>
    <dc:type rdf:resource="http://purl.org/dc/dcmitype/StillImage"/>
    <dc:date>2026-02-09T14:00:52.912102</dc:date>
    <dc:format>image/svg+xml</dc:format>
    <dc:creator>
     <cc:Agent>
      <dc:title>Matplotlib v3.10.8, https://matplotlib.org/</dc:title>
     </cc:Agent>
    </dc:creator>
   </cc:Work>
  </rdf:RDF>
 </metadata>
 <defs>
  <style type="text/css">*{stroke-linejoin: round; stroke-linecap: butt}</style>
 </defs>
 <g id="figure_1">
  <g id="patch_1">
   <path d="M 0 120 
L 288 120 
L 288 0 
L 0 0 
L 0 120 
z
" style="fill: none; opacity: 0"/>
  </g>
  <g id="axes_1">
   <g id="patch_2">
    <path d="M 8.64 108 
L 279.36 108 
L 279.36 4.8 
L 8.64 4.8 
L 8.64 108 
z
" style="fill: none"/>
   </g>
   <g id="matplotlib.axis_1"/>
   <g id="matplotlib.axis_2"/>
   <g id="line2d_1">
    <path d="M 8.64 87.36 
L 279.36 87.36 
" clip-path="url(#p4cd0566351)" style="fill: none; stroke: #b2b2b2; stroke-opacity: 0.35; stroke-width: 0.5; stroke-linecap: square"/>
   </g>
   <g id="line2d_2">
    <path d="M 8.64 66.72 
L 279.36 66.72 
" clip-path="url(#p4cd0566351)" style="fill: none; stroke: #b2b2b2; stroke-opacity: 0.35; stroke-width: 0.5; stroke-linecap: square"/>
   </g>
   <g id="line2d_3">
    <path d="M 8.64 46.08 
L 279.36 46.08 
" clip-path="url(#p4cd0566351)" style="fill: none; stroke: #b2b2b2; stroke-opacity: 0.35; stroke-width: 0.5; stroke-linecap: square"/>
   </g>
   <g id="line2d_4">
    <path d="M 8.64 25.44 
L 279.36 25.44 
" clip-path="url(#p4cd0566351)" style="fill: none; stroke: #b2b2b2; stroke-opacity: 0.35; stroke-width: 0.5; stroke-linecap: square"/>
   </g>
   <g id="line2d_5">
    <path d="M 8.64 84.33624 
L 11.693851 84.64584 
L 14.747702 86.844 
L 17.801553 88.52616 
L 20.855404 88.36104 
L 23.909255 88.93896 
L 26.963106 90.79656 
L 30.016957 88.09272 
L 33.070808 89.22792 
L 36.124659 90.00192 
L 39.17851 91.39512 
L 42.232361 91.63248 
L 45.286212 90.75528 
L 48.340063 88.7016 
L 51.393914 88.52616 
L 54.447764 87.45288 
L 57.501615 88.0308 
L 60.555466 88.94928 
L 63.609317 89.3208 
L 66.663168 89.7336 
L 69.717019 91.86984 
L 72.77087 88.60872 
L 75.824721 86.87496 
L 78.878572 88.52616 
L 81.932423 90.11544 
L 84.986274 90.38376 
L 88.040125 90.53856 
L 91.093976 90.08448 
L 94.147827 88.79448 
L 97.201678 89.20728 
L 100.255529 89.22792 
L 103.30938 90.31152 
L 106.363231 90.10512 
L 109.417082 91.09584 
L 112.470933 91.61184 
L 115.524784 91.31256 
L 118.578635 92.87088 
L 121.632486 93.8616 
L 124.686337 92.02464 
L 127.740188 92.13816 
L 130.794039 92.07624 
L 133.84789 92.14848 
L 136.901741 92.64384 
L 139.955591 93.01536 
L 143.009442 93.69648 
L 146.063293 93.11856 
L 149.117144 92.44776 
L 152.170995 92.30328 
L 155.224846 92.87088 
L 158.278697 92.38584 
L 161.332548 92.47872 
L 164.386399 91.88016 
L 167.44025 90.42504 
L 170.494101 90.08448 
L 173.547952 89.92968 
L 176.601803 88.76352 
L 179.655654 87.94824 
L 182.709505 89.2692 
L 185.763356 88.72224 
L 188.817207 89.39304 
L 191.871058 89.40336 
L 194.924909 88.41264 
L 197.97876 88.4952 
L 201.032611 86.86464 
L 204.086462 86.42088 
L 207.140313 87.62832 
L 210.194164 86.93688 
L 213.248015 87.23616 
L 216.301866 88.63968 
L 219.355717 90.0432 
L 222.409568 92.12784 
L 225.463418 91.16808 
L 228.517269 91.46736 
L 231.57112 91.73568 
L 234.624971 91.78728 
L 237.678822 94.0164 
L 240.732673 92.5716 
L 243.786524 91.76664 
L 246.840375 92.33424 
L 249.894226 94.36728 
L 252.948077 94.46016 
L 256.001928 97.71096 
L 259.055779 98.48496 
L 262.10963 97.85544 
L 264.687766 99.10416 
L 267.114623 100.16712 
L 270.166919 102.23112 
L 273.207692 100.54896 
L 276.33135 100.70376 
L 279.36 100.68312 
" clip-path="url(#p4cd0566351)" style="fill: none; stroke: #bebebe; stroke-width: 0.5; stroke-linecap: round"/>
   </g>
   <g id="line2d_6">
    <path d="M 8.64 68.8872 
L 11.693851 68.9904 
L 14.747702 71.5704 
L 17.801553 73.48992 
L 20.855404 72.54048 
L 23.909255 73.56216 
L 26.963106 74.74896 
L 30.016957 73.3248 
L 33.070808 74.80056 
L 36.124659 77.556 
L 39.17851 78.55704 
L 42.232361 78.50544 
L 45.286212 78.04104 
L 48.340063 75.76032 
L 51.393914 75.73968 
L 54.447764 74.65608 
L 57.501615 74.83152 
L 60.555466 74.57352 
L 63.609317 75.20304 
L 66.663168 75.17208 
L 69.717019 78.05136 
L 72.77087 75.1308 
L 75.824721 72.16896 
L 78.878572 73.08744 
L 81.932423 74.72832 
L 84.986274 74.48064 
L 88.040125 74.28456 
L 91.093976 73.21128 
L 94.147827 70.2804 
L 97.201678 70.2288 
L 100.255529 71.56008 
L 103.30938 73.79952 
L 106.363231 73.35576 
L 109.417082 74.0988 
L 112.470933 75.5952 
L 115.524784 75.5952 
L 118.578635 77.61792 
L 121.632486 77.63856 
L 124.686337 75.40944 
L 127.740188 75.40944 
L 130.794039 75.04824 
L 133.84789 74.98632 
L 136.901741 75.58488 
L 139.955591 75.87384 
L 143.009442 76.49304 
L 146.063293 76.15248 
L 149.117144 75.82224 
L 152.170995 75.84288 
L 155.224846 76.03896 
L 158.278697 75.51264 
L 161.332548 75.56424 
L 164.386399 75.05856 
L 167.44025 73.26288 
L 170.494101 73.20096 
L 173.547952 73.00488 
L 176.601803 71.68392 
L 179.655654 70.6932 
L 182.709505 72.62304 
L 185.763356 73.52088 
L 188.817207 73.83048 
L 191.871058 73.8408 
L 194.924909 73.29384 
L 197.97876 73.72728 
L 201.032611 70.32168 
L 204.086462 69.77472 
L 207.140313 70.34232 
L 210.194164 70.67256 
L 213.248015 70.51776 
L 216.301866 70.848 
L 219.355717 72.31344 
L 222.409568 76.01832 
L 225.463418 75.41976 
L 228.517269 75.83256 
L 231.57112 75.79128 
L 234.624971 75.82224 
L 237.678822 77.82432 
L 240.732673 76.14216 
L 243.786524 74.75928 
L 246.840375 74.96568 
L 249.894226 77.75208 
L 252.948077 79.48584 
L 256.001928 83.31456 
L 259.055779 85.90488 
L 262.10963 84.79032 
L 264.687766 85.84296 
L 267.114623 88.25784 
L 270.166919 91.41576 
L 273.207692 88.7532 
L 276.33135 88.65 
L 279.36 88.55712 
" clip-path="url(#p4cd0566351)" style="fill: none; stroke: #4a8dff; stroke-width: 0.6"/>
   </g>
   <g id="line2d_7">
    <path d="M 8.64 70.03272 
L 11.693851 71.5188 
L 14.747702 73.3764 
L 17.801553 78.846 
L 20.855404 77.75208 
L 23.909255 78.88728 
L 26.963106 81.34344 
L 30.016957 80.53848 
L 33.070808 82.0452 
L 36.124659 86.92656 
L 39.17851 88.58808 
L 42.232361 88.96992 
L 45.286212 86.7924 
L 48.340063 85.296 
L 51.393914 86.24544 
L 54.447764 82.96368 
L 57.501615 82.13808 
L 60.555466 82.47864 
L 63.609317 82.58184 
L 66.663168 83.03592 
L 69.717019 87.3084 
L 72.77087 82.06584 
L 75.824721 79.71288 
L 78.878572 81.24024 
L 81.932423 84.17112 
L 84.986274 84.24336 
L 88.040125 83.29392 
L 91.093976 82.8192 
L 94.147827 80.64168 
L 97.201678 81.38472 
L 100.255529 80.87904 
L 103.30938 83.13912 
L 106.363231 83.19072 
L 109.417082 85.296 
L 112.470933 87.17424 
L 115.524784 85.71912 
L 118.578635 87.53544 
L 121.632486 88.17528 
L 124.686337 85.41984 
L 127.740188 85.17216 
L 130.794039 84.9348 
L 133.84789 85.01736 
L 136.901741 86.14224 
L 139.955591 85.90488 
L 143.009442 86.328 
L 146.063293 86.24544 
L 149.117144 85.72944 
L 152.170995 85.7088 
L 155.224846 86.40024 
L 158.278697 85.09992 
L 161.332548 86.02872 
L 164.386399 84.78 
L 167.44025 83.53128 
L 170.494101 82.83984 
L 173.547952 82.03488 
L 176.601803 79.39296 
L 179.655654 79.66128 
L 182.709505 82.15872 
L 185.763356 82.43736 
L 188.817207 82.93272 
L 191.871058 83.00496 
L 194.924909 82.6128 
L 197.97876 82.28256 
L 201.032611 78.01008 
L 204.086462 76.19376 
L 207.140313 77.66952 
L 210.194164 77.74176 
L 213.248015 78.1752 
L 216.301866 79.5684 
L 219.355717 80.8068 
L 222.409568 85.20312 
L 225.463418 84.12984 
L 228.517269 84.03696 
L 231.57112 84.06792 
L 234.624971 84.3156 
L 237.678822 87.02976 
L 240.732673 85.21344 
L 243.786524 84.28464 
L 246.840375 84.32592 
L 249.894226 89.08344 
L 252.948077 89.5272 
L 256.001928 95.14128 
L 259.055779 96.98856 
L 262.10963 95.08968 
L 264.687766 97.71096 
L 267.114623 99.80592 
L 270.166919 101.79768 
L 273.207692 100.03296 
L 276.33135 100.518 
L 279.36 99.98136 
" clip-path="url(#p4cd0566351)" style="fill: none; stroke: #f5841e; stroke-width: 0.6"/>
   </g>
  </g>
 </g>
 <defs>
  <clipPath id="p4cd0566351">
   <rect x="8.64" y="4.8" width="270.72" height="103.2"/>
  </clipPath>
 </defs>
</svg>
