<?xml version="1.0" encoding="utf-8" standalone="no"?>
<!DOCTYPE svg PUBLIC "-//W3C//DTD SVG 1.1//EN"
  "http://www.w3.org/Graphics/SVG/1.1/DTD/svg11.dtd">
<svg xmlns:xlink="http://www.w3.org/1999/xlink" width="288pt" height="120pt" viewBox="0 0 288 120" xmlns="http://www.w3.org/2000/svg" version="1.1">
<desc id="nav-meta">{"window":"1m","count":4,"labels":["31.05","10.06","19.06","29.06"],"tick_utc":["2026-05-31T05:08:27Z","2026-06-10T05:05:46Z","2026-06-19T05:57:01Z","2026-06-29T05:17:50Z"],"w":720,"h":300}</desc>

 <metadata>
  <rdf:RDF xmlns:dc="http://purl.org/dc/elements/1.1/" xmlns:cc="http://creativecommons.org/ns#" xmlns:rdf="http://www.w3.org/1999/02/22-rdf-syntax-ns#">
   <cc:Work>
    <dc:type rdf:resource="http://purl.org/dc/dcmitype/StillImage"/>
    <dc:date>2026-06-29T11:34:27.950958</dc:date>
    <dc:format>image/svg+xml</dc:format>
    <dc:creator>
     <cc:Agent>
      <dc:title>Matplotlib v3.11.0, https://matplotlib.org/</dc:title>
     </cc:Agent>
    </dc:creator>
   </cc:Work>
  </rdf:RDF>
 </metadata>
 <defs>
  <style type="text/css">*{stroke-linejoin: round; stroke-linecap: butt}</style>
 </defs>
 <g id="figure_1">
  <g id="patch_1">
   <path d="M 0 120 
L 288 120 
L 288 0 
L 0 0 
L 0 120 
z
" style="fill: none; opacity: 0"/>
  </g>
  <g id="axes_1">
   <g id="patch_2">
    <path d="M 8.64 108 
L 279.36 108 
L 279.36 4.8 
L 8.64 4.8 
L 8.64 108 
z
" style="fill: none"/>
   </g>
   <g id="matplotlib.axis_1"/>
   <g id="matplotlib.axis_2"/>
   <g id="line2d_1">
    <path d="M 8.64 87.36 
L 279.36 87.36 
" clip-path="url(#p8af8a338f0)" style="fill: none; stroke: #b2b2b2; stroke-opacity: 0.35; stroke-width: 0.5; stroke-linecap: square"/>
   </g>
   <g id="line2d_2">
    <path d="M 8.64 66.72 
L 279.36 66.72 
" clip-path="url(#p8af8a338f0)" style="fill: none; stroke: #b2b2b2; stroke-opacity: 0.35; stroke-width: 0.5; stroke-linecap: square"/>
   </g>
   <g id="line2d_3">
    <path d="M 8.64 46.08 
L 279.36 46.08 
" clip-path="url(#p8af8a338f0)" style="fill: none; stroke: #b2b2b2; stroke-opacity: 0.35; stroke-width: 0.5; stroke-linecap: square"/>
   </g>
   <g id="line2d_4">
    <path d="M 8.64 25.44 
L 279.36 25.44 
" clip-path="url(#p8af8a338f0)" style="fill: none; stroke: #b2b2b2; stroke-opacity: 0.35; stroke-width: 0.5; stroke-linecap: square"/>
   </g>
   <g id="line2d_5">
    <path d="M 8.64 101.32296 
L 18.111127 101.51904 
L 27.352384 101.7048 
L 36.790456 102.54072 
L 46.091557 103.08768 
L 55.270918 103.36632 
L 64.46054 104.22288 
L 73.994212 103.85136 
L 83.368551 103.68624 
L 92.523499 103.43856 
L 101.953362 103.81008 
L 111.341204 103.72752 
L 120.710899 103.50048 
L 129.975704 103.5108 
L 139.376509 103.31472 
L 149.019823 102.95352 
L 158.406153 102.61296 
L 167.441952 102.6336 
L 176.730307 102.9948 
L 186.283206 103.28376 
L 195.243066 103.01544 
L 204.770365 102.69552 
L 214.376627 102.582 
L 223.15177 102.88128 
L 232.518224 103.15992 
L 241.848815 103.36632 
L 251.229744 103.36632 
L 260.448424 102.81936 
L 269.959411 103.0464 
L 279.36 102.9432 
" clip-path="url(#p8af8a338f0)" style="fill: none; stroke: #bebebe; stroke-width: 0.5; stroke-linecap: round"/>
   </g>
   <g id="line2d_6">
    <path d="M 8.64 89.46528 
L 18.111127 90.0432 
L 27.352384 89.96064 
L 36.790456 91.99368 
L 46.091557 93.05664 
L 55.270918 93.74808 
L 64.46054 97.02984 
L 73.994212 95.93592 
L 83.368551 95.07936 
L 92.523499 94.46016 
L 101.953362 95.47152 
L 111.341204 95.11032 
L 120.710899 94.82136 
L 129.975704 94.8936 
L 139.376509 94.70784 
L 149.019823 94.04736 
L 158.406153 93.40752 
L 167.441952 92.9844 
L 176.730307 93.93384 
L 186.283206 94.4292 
L 195.243066 94.19184 
L 204.770365 93.87192 
L 214.376627 93.81 
L 223.15177 94.03704 
L 232.518224 94.83168 
L 241.848815 95.48184 
L 251.229744 96.63768 
L 260.448424 96.14232 
L 269.959411 96.30744 
L 279.36 96.29712 
" clip-path="url(#p8af8a338f0)" style="fill: none; stroke: #4a8dff; stroke-width: 0.6"/>
   </g>
   <g id="line2d_7">
    <path d="M 8.64 98.74296 
L 18.111127 99.09384 
L 27.352384 100.0536 
L 36.790456 101.23008 
L 46.091557 101.99376 
L 55.270918 102.08664 
L 64.46054 102.8916 
L 73.994212 102.45816 
L 83.368551 102.28272 
L 92.523499 102.10728 
L 101.953362 102.582 
L 111.341204 102.29304 
L 120.710899 102.08664 
L 129.975704 102.066 
L 139.376509 101.86992 
L 149.019823 101.48808 
L 158.406153 101.40552 
L 167.441952 101.4984 
L 176.730307 101.97312 
L 186.283206 102.26208 
L 195.243066 102.066 
L 204.770365 101.90088 
L 214.376627 101.90088 
L 223.15177 102.0144 
L 232.518224 102.25176 
L 241.848815 102.6336 
L 251.229744 102.88128 
L 260.448424 102.77808 
L 269.959411 102.85032 
L 279.36 102.93288 
" clip-path="url(#p8af8a338f0)" style="fill: none; stroke: #f5841e; stroke-width: 0.6"/>
   </g>
  </g>
 </g>
 <defs>
  <clipPath id="p8af8a338f0">
   <rect x="8.64" y="4.8" width="270.72" height="103.2"/>
  </clipPath>
 </defs>
</svg>
