<?xml version="1.0" encoding="utf-8" standalone="no"?>
<!DOCTYPE svg PUBLIC "-//W3C//DTD SVG 1.1//EN"
  "http://www.w3.org/Graphics/SVG/1.1/DTD/svg11.dtd">
<svg xmlns:xlink="http://www.w3.org/1999/xlink" width="288pt" height="120pt" viewBox="0 0 288 120" xmlns="http://www.w3.org/2000/svg" version="1.1">
<desc id="nav-meta">{"window":"3m","count":4,"labels":["04.01","03.02","04.03","03.04"],"tick_utc":["2026-01-04T12:00:00Z","2026-02-03T12:00:00Z","2026-03-04T03:14:13Z","2026-04-03T03:37:13Z"],"w":720,"h":300}</desc>

 <metadata>
  <rdf:RDF xmlns:dc="http://purl.org/dc/elements/1.1/" xmlns:cc="http://creativecommons.org/ns#" xmlns:rdf="http://www.w3.org/1999/02/22-rdf-syntax-ns#">
   <cc:Work>
    <dc:type rdf:resource="http://purl.org/dc/dcmitype/StillImage"/>
    <dc:date>2026-04-03T13:49:19.054965</dc:date>
    <dc:format>image/svg+xml</dc:format>
    <dc:creator>
     <cc:Agent>
      <dc:title>Matplotlib v3.10.8, https://matplotlib.org/</dc:title>
     </cc:Agent>
    </dc:creator>
   </cc:Work>
  </rdf:RDF>
 </metadata>
 <defs>
  <style type="text/css">*{stroke-linejoin: round; stroke-linecap: butt}</style>
 </defs>
 <g id="figure_1">
  <g id="patch_1">
   <path d="M 0 120 
L 288 120 
L 288 0 
L 0 0 
L 0 120 
z
" style="fill: none; opacity: 0"/>
  </g>
  <g id="axes_1">
   <g id="patch_2">
    <path d="M 8.64 108 
L 279.36 108 
L 279.36 4.8 
L 8.64 4.8 
L 8.64 108 
z
" style="fill: none"/>
   </g>
   <g id="matplotlib.axis_1"/>
   <g id="matplotlib.axis_2"/>
   <g id="line2d_1">
    <path d="M 8.64 87.36 
L 279.36 87.36 
" clip-path="url(#p0389e51cf4)" style="fill: none; stroke: #b2b2b2; stroke-opacity: 0.35; stroke-width: 0.5; stroke-linecap: square"/>
   </g>
   <g id="line2d_2">
    <path d="M 8.64 66.72 
L 279.36 66.72 
" clip-path="url(#p0389e51cf4)" style="fill: none; stroke: #b2b2b2; stroke-opacity: 0.35; stroke-width: 0.5; stroke-linecap: square"/>
   </g>
   <g id="line2d_3">
    <path d="M 8.64 46.08 
L 279.36 46.08 
" clip-path="url(#p0389e51cf4)" style="fill: none; stroke: #b2b2b2; stroke-opacity: 0.35; stroke-width: 0.5; stroke-linecap: square"/>
   </g>
   <g id="line2d_4">
    <path d="M 8.64 25.44 
L 279.36 25.44 
" clip-path="url(#p0389e51cf4)" style="fill: none; stroke: #b2b2b2; stroke-opacity: 0.35; stroke-width: 0.5; stroke-linecap: square"/>
   </g>
   <g id="line2d_5">
    <path d="M 8.64 90.08448 
L 11.693778 89.92968 
L 14.747556 88.76352 
L 17.801334 87.94824 
L 20.855112 89.2692 
L 23.90889 88.72224 
L 26.962668 89.39304 
L 30.016446 89.40336 
L 33.070224 88.41264 
L 36.124002 88.4952 
L 39.17778 86.86464 
L 42.231558 86.42088 
L 45.285336 87.62832 
L 48.339114 86.93688 
L 51.392892 87.23616 
L 54.44667 88.63968 
L 57.500448 90.0432 
L 60.554226 92.12784 
L 63.608004 91.16808 
L 66.661782 91.46736 
L 69.71556 91.73568 
L 72.769338 91.78728 
L 75.823116 94.0164 
L 78.876894 92.5716 
L 81.930672 91.76664 
L 84.98445 92.33424 
L 88.038228 94.36728 
L 91.092006 94.46016 
L 94.145784 97.71096 
L 97.199562 98.48496 
L 100.25334 97.85544 
L 102.831414 99.10416 
L 105.258214 100.16712 
L 108.310436 102.23112 
L 111.351137 100.54896 
L 114.474721 100.70376 
L 117.503298 100.68312 
L 120.574501 100.95144 
L 123.621952 101.28168 
L 126.664738 101.71512 
L 129.717597 101.84928 
L 132.734652 101.034 
L 135.627294 100.54896 
L 138.876952 101.04432 
L 141.547134 100.81728 
L 144.979665 101.034 
L 148.029732 101.4984 
L 151.065661 101.33328 
L 154.100777 101.1372 
L 157.18944 101.06496 
L 160.252408 102.09696 
L 163.048205 102.05568 
L 166.348972 101.4984 
L 169.389142 100.60056 
L 172.437124 100.80696 
L 175.454921 101.45712 
L 178.57808 100.55928 
L 181.600331 101.10624 
L 184.661213 100.8792 
L 187.697884 100.74504 
L 190.758236 100.21872 
L 193.810565 100.53864 
L 196.84091 101.07528 
L 199.924342 101.38488 
L 202.987274 101.26104 
L 206.021436 100.78632 
L 209.074012 100.91016 
L 212.139807 100.99272 
L 215.187683 100.38384 
L 218.237396 100.50768 
L 221.349599 100.60056 
L 224.412001 99.76464 
L 227.412338 99.49632 
L 230.489408 99.40344 
L 233.544034 100.09488 
L 236.568087 100.3632 
L 239.603981 100.19808 
L 242.703424 100.47672 
L 245.764377 100.79664 
L 248.78988 100.26 
L 252.0711 99.83688 
L 254.934583 100.13616 
L 257.992213 100.80696 
L 261.016797 101.38488 
L 264.112175 101.3436 
L 267.174684 101.292 
L 270.209199 101.28168 
L 273.289167 101.28168 
L 276.302723 101.8596 
L 279.36 101.88024 
" clip-path="url(#p0389e51cf4)" style="fill: none; stroke: #bebebe; stroke-width: 0.5; stroke-linecap: round"/>
   </g>
   <g id="line2d_6">
    <path d="M 8.64 73.20096 
L 11.693778 73.00488 
L 14.747556 71.68392 
L 17.801334 70.6932 
L 20.855112 72.62304 
L 23.90889 73.52088 
L 26.962668 73.83048 
L 30.016446 73.8408 
L 33.070224 73.29384 
L 36.124002 73.72728 
L 39.17778 70.32168 
L 42.231558 69.77472 
L 45.285336 70.34232 
L 48.339114 70.67256 
L 51.392892 70.51776 
L 54.44667 70.848 
L 57.500448 72.31344 
L 60.554226 76.01832 
L 63.608004 75.41976 
L 66.661782 75.83256 
L 69.71556 75.79128 
L 72.769338 75.82224 
L 75.823116 77.82432 
L 78.876894 76.14216 
L 81.930672 74.75928 
L 84.98445 74.96568 
L 88.038228 77.75208 
L 91.092006 79.48584 
L 94.145784 83.31456 
L 97.199562 85.90488 
L 100.25334 84.79032 
L 102.831414 85.84296 
L 105.258214 88.25784 
L 108.310436 91.41576 
L 111.351137 88.7532 
L 114.474721 88.65 
L 117.503298 88.55712 
L 120.574501 88.96992 
L 123.621952 89.7336 
L 126.664738 90.456 
L 129.717597 90.56952 
L 132.734652 89.15568 
L 135.627294 88.9596 
L 138.876952 90.6624 
L 141.547134 89.94 
L 144.979665 90.00192 
L 148.029732 90.3528 
L 151.065661 90.62112 
L 154.100777 90.5076 
L 157.18944 90.3528 
L 160.252408 92.004 
L 163.048205 92.13816 
L 166.348972 91.25064 
L 169.389142 89.166 
L 172.437124 89.56848 
L 175.454921 90.93072 
L 178.57808 89.41368 
L 181.600331 90.37344 
L 184.661213 89.79552 
L 187.697884 90.23928 
L 190.758236 88.0824 
L 193.810565 88.7532 
L 196.84091 90.16704 
L 199.924342 90.67272 
L 202.987274 90.18768 
L 206.021436 89.2692 
L 209.074012 89.54784 
L 212.139807 89.49624 
L 215.187683 88.31976 
L 218.237396 88.45392 
L 221.349599 88.46424 
L 224.412001 86.38992 
L 227.412338 84.80064 
L 230.489408 84.8316 
L 233.544034 86.586 
L 236.568087 87.74184 
L 239.603981 87.618 
L 242.703424 88.19592 
L 245.764377 89.08344 
L 248.78988 87.89664 
L 252.0711 87.3084 
L 254.934583 87.65928 
L 257.992213 88.96992 
L 261.016797 90.07416 
L 264.112175 89.76456 
L 267.174684 89.3724 
L 270.209199 89.00088 
L 273.289167 88.42296 
L 276.302723 88.81512 
L 279.36 89.10408 
" clip-path="url(#p0389e51cf4)" style="fill: none; stroke: #4a8dff; stroke-width: 0.6"/>
   </g>
   <g id="line2d_7">
    <path d="M 8.64 82.83984 
L 11.693778 82.03488 
L 14.747556 79.39296 
L 17.801334 79.66128 
L 20.855112 82.15872 
L 23.90889 82.43736 
L 26.962668 82.93272 
L 30.016446 83.00496 
L 33.070224 82.6128 
L 36.124002 82.28256 
L 39.17778 78.01008 
L 42.231558 76.19376 
L 45.285336 77.66952 
L 48.339114 77.74176 
L 51.392892 78.1752 
L 54.44667 79.5684 
L 57.500448 80.8068 
L 60.554226 85.20312 
L 63.608004 84.12984 
L 66.661782 84.03696 
L 69.71556 84.06792 
L 72.769338 84.3156 
L 75.823116 87.02976 
L 78.876894 85.21344 
L 81.930672 84.28464 
L 84.98445 84.32592 
L 88.038228 89.08344 
L 91.092006 89.5272 
L 94.145784 95.14128 
L 97.199562 96.98856 
L 100.25334 95.08968 
L 102.831414 97.71096 
L 105.258214 99.80592 
L 108.310436 101.79768 
L 111.351137 100.03296 
L 114.474721 100.518 
L 117.503298 99.98136 
L 120.574501 100.49736 
L 123.621952 100.78632 
L 126.664738 101.07528 
L 129.717597 101.26104 
L 132.734652 100.63152 
L 135.627294 100.38384 
L 138.876952 100.84824 
L 141.547134 100.65216 
L 144.979665 101.034 
L 148.029732 101.19912 
L 151.065661 101.10624 
L 154.100777 100.97208 
L 157.18944 100.91016 
L 160.252408 101.7564 
L 163.048205 101.84928 
L 166.348972 101.56032 
L 169.389142 100.85856 
L 172.437124 101.12688 
L 175.454921 101.4468 
L 178.57808 101.02368 
L 181.600331 101.30232 
L 184.661213 100.81728 
L 187.697884 100.79664 
L 190.758236 99.3312 
L 193.810565 99.92976 
L 196.84091 100.78632 
L 199.924342 101.17848 
L 202.987274 101.1372 
L 206.021436 100.21872 
L 209.074012 100.37352 
L 212.139807 100.4664 
L 215.187683 99.88848 
L 218.237396 99.94008 
L 221.349599 99.81624 
L 224.412001 98.93904 
L 227.412338 98.3508 
L 230.489408 98.52624 
L 233.544034 99.78528 
L 236.568087 100.12584 
L 239.603981 100.03296 
L 242.703424 100.45608 
L 245.764377 100.83792 
L 248.78988 100.11552 
L 252.0711 99.87816 
L 254.934583 100.002 
L 257.992213 100.64184 
L 261.016797 101.41584 
L 264.112175 101.21976 
L 267.174684 101.14752 
L 270.209199 101.00304 
L 273.289167 100.86888 
L 276.302723 101.21976 
L 279.36 101.28168 
" clip-path="url(#p0389e51cf4)" style="fill: none; stroke: #f5841e; stroke-width: 0.6"/>
   </g>
  </g>
 </g>
 <defs>
  <clipPath id="p0389e51cf4">
   <rect x="8.64" y="4.8" width="270.72" height="103.2"/>
  </clipPath>
 </defs>
</svg>
