<?xml version="1.0" encoding="utf-8" standalone="no"?>
<!DOCTYPE svg PUBLIC "-//W3C//DTD SVG 1.1//EN"
  "http://www.w3.org/Graphics/SVG/1.1/DTD/svg11.dtd">
<svg xmlns:xlink="http://www.w3.org/1999/xlink" width="288pt" height="120pt" viewBox="0 0 288 120" xmlns="http://www.w3.org/2000/svg" version="1.1">
<desc id="nav-meta">{"window":"1m","count":4,"labels":["17.05","27.05","05.06","15.06"],"tick_utc":["2026-05-17T04:42:26Z","2026-05-27T05:03:21Z","2026-06-05T05:03:08Z","2026-06-15T06:07:39Z"],"w":720,"h":300}</desc>

 <metadata>
  <rdf:RDF xmlns:dc="http://purl.org/dc/elements/1.1/" xmlns:cc="http://creativecommons.org/ns#" xmlns:rdf="http://www.w3.org/1999/02/22-rdf-syntax-ns#">
   <cc:Work>
    <dc:type rdf:resource="http://purl.org/dc/dcmitype/StillImage"/>
    <dc:date>2026-06-15T21:35:38.019510</dc:date>
    <dc:format>image/svg+xml</dc:format>
    <dc:creator>
     <cc:Agent>
      <dc:title>Matplotlib v3.11.0, https://matplotlib.org/</dc:title>
     </cc:Agent>
    </dc:creator>
   </cc:Work>
  </rdf:RDF>
 </metadata>
 <defs>
  <style type="text/css">*{stroke-linejoin: round; stroke-linecap: butt}</style>
 </defs>
 <g id="figure_1">
  <g id="patch_1">
   <path d="M 0 120 
L 288 120 
L 288 0 
L 0 0 
L 0 120 
z
" style="fill: none; opacity: 0"/>
  </g>
  <g id="axes_1">
   <g id="patch_2">
    <path d="M 8.64 108 
L 279.36 108 
L 279.36 4.8 
L 8.64 4.8 
L 8.64 108 
z
" style="fill: none"/>
   </g>
   <g id="matplotlib.axis_1"/>
   <g id="matplotlib.axis_2"/>
   <g id="line2d_1">
    <path d="M 8.64 87.36 
L 279.36 87.36 
" clip-path="url(#peafc854362)" style="fill: none; stroke: #b2b2b2; stroke-opacity: 0.35; stroke-width: 0.5; stroke-linecap: square"/>
   </g>
   <g id="line2d_2">
    <path d="M 8.64 66.72 
L 279.36 66.72 
" clip-path="url(#peafc854362)" style="fill: none; stroke: #b2b2b2; stroke-opacity: 0.35; stroke-width: 0.5; stroke-linecap: square"/>
   </g>
   <g id="line2d_3">
    <path d="M 8.64 46.08 
L 279.36 46.08 
" clip-path="url(#peafc854362)" style="fill: none; stroke: #b2b2b2; stroke-opacity: 0.35; stroke-width: 0.5; stroke-linecap: square"/>
   </g>
   <g id="line2d_4">
    <path d="M 8.64 25.44 
L 279.36 25.44 
" clip-path="url(#peafc854362)" style="fill: none; stroke: #b2b2b2; stroke-opacity: 0.35; stroke-width: 0.5; stroke-linecap: square"/>
   </g>
   <g id="line2d_5">
    <path d="M 8.64 100.75536 
L 18.046628 101.02368 
L 27.296045 101.02368 
L 36.645525 101.17848 
L 46.014737 100.7244 
L 55.259517 100.75536 
L 64.44769 101.11656 
L 73.911357 100.91016 
L 83.350117 100.89984 
L 92.525134 101.1372 
L 101.936937 101.2404 
L 111.223339 101.6532 
L 120.546401 101.4984 
L 129.728212 101.48808 
L 139.234578 101.32296 
L 148.688542 101.51904 
L 157.913051 101.7048 
L 167.33402 102.54072 
L 176.618265 103.08768 
L 185.78099 103.36632 
L 194.953959 104.22288 
L 204.470353 103.85136 
L 213.827704 103.68624 
L 222.966061 103.43856 
L 232.378834 103.81008 
L 241.749664 103.72752 
L 251.102378 103.50048 
L 260.350394 103.5108 
L 269.734162 103.31472 
L 279.36 102.95352 
" clip-path="url(#peafc854362)" style="fill: none; stroke: #bebebe; stroke-width: 0.5; stroke-linecap: round"/>
   </g>
   <g id="line2d_6">
    <path d="M 8.64 87.13296 
L 18.046628 88.10304 
L 27.296045 87.9276 
L 36.645525 88.26816 
L 46.014737 87.78312 
L 55.259517 87.95856 
L 64.44769 88.94928 
L 73.911357 88.14432 
L 83.350117 88.33008 
L 92.525134 88.52616 
L 101.936937 88.86672 
L 111.223339 90.22896 
L 120.546401 89.82648 
L 129.728212 89.87808 
L 139.234578 89.46528 
L 148.688542 90.0432 
L 157.913051 89.96064 
L 167.33402 91.99368 
L 176.618265 93.05664 
L 185.78099 93.74808 
L 194.953959 97.02984 
L 204.470353 95.93592 
L 213.827704 95.07936 
L 222.966061 94.46016 
L 232.378834 95.47152 
L 241.749664 95.11032 
L 251.102378 94.82136 
L 260.350394 94.8936 
L 269.734162 94.70784 
L 279.36 94.04736 
" clip-path="url(#peafc854362)" style="fill: none; stroke: #4a8dff; stroke-width: 0.6"/>
   </g>
   <g id="line2d_7">
    <path d="M 8.64 95.75016 
L 18.046628 96.97824 
L 27.296045 97.08144 
L 36.645525 97.23624 
L 46.014737 95.94624 
L 55.259517 96.30744 
L 64.44769 98.08248 
L 73.911357 97.2672 
L 83.350117 96.61704 
L 92.525134 97.23624 
L 101.936937 98.08248 
L 111.223339 99.18672 
L 120.546401 99.03192 
L 129.728212 99.1248 
L 139.234578 98.74296 
L 148.688542 99.09384 
L 157.913051 100.0536 
L 167.33402 101.23008 
L 176.618265 101.99376 
L 185.78099 102.08664 
L 194.953959 102.8916 
L 204.470353 102.45816 
L 213.827704 102.28272 
L 222.966061 102.10728 
L 232.378834 102.582 
L 241.749664 102.29304 
L 251.102378 102.08664 
L 260.350394 102.066 
L 269.734162 101.86992 
L 279.36 101.48808 
" clip-path="url(#peafc854362)" style="fill: none; stroke: #f5841e; stroke-width: 0.6"/>
   </g>
  </g>
 </g>
 <defs>
  <clipPath id="peafc854362">
   <rect x="8.64" y="4.8" width="270.72" height="103.2"/>
  </clipPath>
 </defs>
</svg>
