<?xml version="1.0" encoding="utf-8" standalone="no"?>
<!DOCTYPE svg PUBLIC "-//W3C//DTD SVG 1.1//EN"
  "http://www.w3.org/Graphics/SVG/1.1/DTD/svg11.dtd">
<svg xmlns:xlink="http://www.w3.org/1999/xlink" width="288pt" height="120pt" viewBox="0 0 288 120" xmlns="http://www.w3.org/2000/svg" version="1.1">
<desc id="nav-meta">{"window":"6m","count":4,"labels":["01.01","02.03","01.05","30.06"],"tick_utc":["2026-01-01T12:00:00Z","2026-03-02T03:18:56Z","2026-05-01T04:39:16Z","2026-06-30T04:49:55Z"],"w":720,"h":300}</desc>

 <metadata>
  <rdf:RDF xmlns:dc="http://purl.org/dc/elements/1.1/" xmlns:cc="http://creativecommons.org/ns#" xmlns:rdf="http://www.w3.org/1999/02/22-rdf-syntax-ns#">
   <cc:Work>
    <dc:type rdf:resource="http://purl.org/dc/dcmitype/StillImage"/>
    <dc:date>2026-06-30T10:18:41.050447</dc:date>
    <dc:format>image/svg+xml</dc:format>
    <dc:creator>
     <cc:Agent>
      <dc:title>Matplotlib v3.11.0, https://matplotlib.org/</dc:title>
     </cc:Agent>
    </dc:creator>
   </cc:Work>
  </rdf:RDF>
 </metadata>
 <defs>
  <style type="text/css">*{stroke-linejoin: round; stroke-linecap: butt}</style>
 </defs>
 <g id="figure_1">
  <g id="patch_1">
   <path d="M 0 120 
L 288 120 
L 288 0 
L 0 0 
L 0 120 
z
" style="fill: none; opacity: 0"/>
  </g>
  <g id="axes_1">
   <g id="patch_2">
    <path d="M 8.64 108 
L 279.36 108 
L 279.36 4.8 
L 8.64 4.8 
L 8.64 108 
z
" style="fill: none"/>
   </g>
   <g id="matplotlib.axis_1"/>
   <g id="matplotlib.axis_2"/>
   <g id="line2d_1">
    <path d="M 8.64 87.36 
L 279.36 87.36 
" clip-path="url(#pdc0e5cf80f)" style="fill: none; stroke: #b2b2b2; stroke-opacity: 0.35; stroke-width: 0.5; stroke-linecap: square"/>
   </g>
   <g id="line2d_2">
    <path d="M 8.64 66.72 
L 279.36 66.72 
" clip-path="url(#pdc0e5cf80f)" style="fill: none; stroke: #b2b2b2; stroke-opacity: 0.35; stroke-width: 0.5; stroke-linecap: square"/>
   </g>
   <g id="line2d_3">
    <path d="M 8.64 46.08 
L 279.36 46.08 
" clip-path="url(#pdc0e5cf80f)" style="fill: none; stroke: #b2b2b2; stroke-opacity: 0.35; stroke-width: 0.5; stroke-linecap: square"/>
   </g>
   <g id="line2d_4">
    <path d="M 8.64 25.44 
L 279.36 25.44 
" clip-path="url(#pdc0e5cf80f)" style="fill: none; stroke: #b2b2b2; stroke-opacity: 0.35; stroke-width: 0.5; stroke-linecap: square"/>
   </g>
   <g id="line2d_5">
    <path d="M 8.64 92.47872 
L 10.1465 91.88016 
L 11.652999 90.42504 
L 13.159499 90.08448 
L 14.665999 89.92968 
L 16.172498 88.76352 
L 17.678998 87.94824 
L 19.185498 89.2692 
L 20.691998 88.72224 
L 22.198497 89.39304 
L 23.704997 89.40336 
L 25.211497 88.41264 
L 26.717996 88.4952 
L 28.224496 86.86464 
L 29.730996 86.42088 
L 31.237495 87.62832 
L 32.743995 86.93688 
L 34.250495 87.23616 
L 37.263494 90.0432 
L 38.769994 92.12784 
L 40.276494 91.16808 
L 43.289493 91.73568 
L 44.795993 91.78728 
L 46.302492 94.0164 
L 47.808992 92.5716 
L 49.315492 91.76664 
L 50.821991 92.33424 
L 52.328491 94.36728 
L 53.834991 94.46016 
L 55.34149 97.71096 
L 56.84799 98.48496 
L 58.35449 97.85544 
L 60.82351 100.16712 
L 62.329243 102.23112 
L 63.829291 100.54896 
L 65.370228 100.70376 
L 66.864295 100.68312 
L 69.88277 101.28168 
L 71.383847 101.71512 
L 72.889893 101.84928 
L 74.378276 101.034 
L 75.805284 100.54896 
L 77.408416 101.04432 
L 78.725679 100.81728 
L 80.419026 101.034 
L 81.923695 101.4984 
L 86.442392 101.06496 
L 87.953425 102.09696 
L 89.332657 102.05568 
L 90.961002 101.4984 
L 92.460789 100.60056 
L 93.964429 100.80696 
L 95.453178 101.45712 
L 96.993905 100.55928 
L 98.484852 101.10624 
L 101.492917 100.74504 
L 103.00266 100.21872 
L 104.508444 100.53864 
L 106.003384 101.07528 
L 107.524513 101.38488 
L 109.035528 101.26104 
L 110.532351 100.78632 
L 113.550686 100.99272 
L 115.054274 100.38384 
L 118.09409 100.60056 
L 119.604844 99.76464 
L 121.08498 99.49632 
L 122.60297 99.40344 
L 124.109889 100.09488 
L 125.601724 100.3632 
L 127.099401 100.19808 
L 130.138468 100.79664 
L 131.631019 100.26 
L 133.249721 99.83688 
L 134.662344 100.13616 
L 137.662841 101.38488 
L 143.717087 101.28168 
L 145.203744 101.8596 
L 146.71197 101.88024 
L 148.205567 101.72544 
L 149.734751 101.68416 
L 151.245139 101.47776 
L 152.741857 101.78736 
L 154.250798 101.09592 
L 155.752049 101.46744 
L 157.272411 101.3436 
L 158.755877 101.05464 
L 160.289403 101.3952 
L 161.803627 101.47776 
L 163.300537 100.86888 
L 164.805885 101.26104 
L 166.318906 100.99272 
L 167.822337 100.61088 
L 169.31222 100.44576 
L 170.838615 100.94112 
L 172.348846 101.09592 
L 173.848737 101.00304 
L 175.350564 100.69344 
L 176.863166 100.9308 
L 181.392116 100.8792 
L 182.914849 100.64184 
L 184.424504 101.1888 
L 185.926889 101.09592 
L 187.435917 101.37456 
L 188.958877 101.21976 
L 191.964012 101.23008 
L 193.469989 100.92048 
L 194.943307 101.06496 
L 196.476345 100.70376 
L 197.983246 100.55928 
L 199.464672 100.53864 
L 200.976681 99.60984 
L 202.513538 99.72336 
L 205.517505 99.25896 
L 207.031171 99.32088 
L 208.535997 100.22904 
L 210.049925 100.01232 
L 213.066185 100.75536 
L 214.587313 101.02368 
L 216.08302 101.02368 
L 217.594907 101.17848 
L 219.109986 100.7244 
L 220.604943 100.75536 
L 222.090745 101.11656 
L 223.621098 100.91016 
L 225.147423 100.89984 
L 226.631098 101.1372 
L 228.153064 101.2404 
L 229.654751 101.6532 
L 231.162367 101.4984 
L 232.647141 101.48808 
L 234.184398 101.32296 
L 237.204861 101.7048 
L 238.728308 102.54072 
L 240.229647 103.08768 
L 241.711335 103.36632 
L 243.194679 104.22288 
L 244.733558 103.85136 
L 247.724465 103.43856 
L 249.246588 103.81008 
L 250.761928 103.72752 
L 252.274339 103.50048 
L 253.769819 103.5108 
L 255.287251 103.31472 
L 258.358923 102.61296 
L 259.817438 102.6336 
L 262.858702 103.28376 
L 265.842809 102.69552 
L 267.393406 102.582 
L 270.321734 103.15992 
L 271.827833 103.36632 
L 273.342057 103.36632 
L 274.830091 102.81936 
L 276.365309 103.0464 
L 277.882706 102.9432 
L 279.36 102.59232 
L 279.36 102.59232 
" clip-path="url(#pdc0e5cf80f)" style="fill: none; stroke: #bebebe; stroke-width: 0.5; stroke-linecap: round"/>
   </g>
   <g id="line2d_6">
    <path d="M 8.64 75.56424 
L 10.1465 75.05856 
L 11.652999 73.26288 
L 13.159499 73.20096 
L 14.665999 73.00488 
L 16.172498 71.68392 
L 17.678998 70.6932 
L 19.185498 72.62304 
L 20.691998 73.52088 
L 22.198497 73.83048 
L 23.704997 73.8408 
L 25.211497 73.29384 
L 26.717996 73.72728 
L 28.224496 70.32168 
L 29.730996 69.77472 
L 31.237495 70.34232 
L 32.743995 70.67256 
L 34.250495 70.51776 
L 35.756994 70.848 
L 37.263494 72.31344 
L 38.769994 76.01832 
L 40.276494 75.41976 
L 41.782993 75.83256 
L 44.795993 75.82224 
L 46.302492 77.82432 
L 47.808992 76.14216 
L 49.315492 74.75928 
L 50.821991 74.96568 
L 52.328491 77.75208 
L 53.834991 79.48584 
L 55.34149 83.31456 
L 56.84799 85.90488 
L 58.35449 84.79032 
L 59.626314 85.84296 
L 62.329243 91.41576 
L 63.829291 88.7532 
L 66.864295 88.55712 
L 68.379391 88.96992 
L 71.383847 90.456 
L 72.889893 90.56952 
L 74.378276 89.15568 
L 75.805284 88.9596 
L 77.408416 90.6624 
L 78.725679 89.94 
L 80.419026 90.00192 
L 83.421389 90.62112 
L 86.442392 90.3528 
L 87.953425 92.004 
L 89.332657 92.13816 
L 90.961002 91.25064 
L 92.460789 89.166 
L 93.964429 89.56848 
L 95.453178 90.93072 
L 96.993905 89.41368 
L 98.484852 90.37344 
L 99.994856 89.79552 
L 101.492917 90.23928 
L 103.00266 88.0824 
L 104.508444 88.7532 
L 106.003384 90.16704 
L 107.524513 90.67272 
L 109.035528 90.18768 
L 110.532351 89.2692 
L 112.038258 89.54784 
L 113.550686 89.49624 
L 115.054274 88.31976 
L 116.558768 88.45392 
L 118.09409 88.46424 
L 119.604844 86.38992 
L 121.08498 84.80064 
L 122.60297 84.8316 
L 124.109889 86.586 
L 125.601724 87.74184 
L 127.099401 87.618 
L 128.628429 88.19592 
L 130.138468 89.08344 
L 131.631019 87.89664 
L 133.249721 87.3084 
L 134.662344 87.65928 
L 136.170744 88.96992 
L 137.662841 90.07416 
L 140.70067 89.3724 
L 142.197667 89.00088 
L 143.717087 88.42296 
L 146.71197 89.10408 
L 148.205567 89.14536 
L 149.734751 89.07312 
L 151.245139 87.9792 
L 152.741857 88.29912 
L 154.250798 86.38992 
L 155.752049 87.24648 
L 157.272411 87.1536 
L 158.755877 86.21448 
L 161.803627 87.01944 
L 163.300537 84.44976 
L 164.805885 85.05864 
L 166.318906 84.58392 
L 167.822337 85.04832 
L 169.31222 83.71704 
L 170.838615 84.86256 
L 172.348846 85.6572 
L 173.848737 85.27536 
L 175.350564 84.49104 
L 178.373659 85.32696 
L 179.862182 85.17216 
L 181.392116 85.31664 
L 182.914849 84.11952 
L 184.424504 85.66752 
L 185.926889 85.26504 
L 187.435917 86.26608 
L 190.426929 85.38888 
L 191.964012 85.3992 
L 193.469989 84.09888 
L 196.476345 84.34656 
L 199.464672 85.7604 
L 200.976681 85.0896 
L 204.031929 84.9348 
L 205.517505 85.296 
L 207.031171 85.35792 
L 208.535997 86.1732 
L 210.049925 85.92552 
L 213.066185 87.13296 
L 214.587313 88.10304 
L 216.08302 87.9276 
L 217.594907 88.26816 
L 219.109986 87.78312 
L 220.604943 87.95856 
L 222.090745 88.94928 
L 223.621098 88.14432 
L 226.631098 88.52616 
L 228.153064 88.86672 
L 229.654751 90.22896 
L 231.162367 89.82648 
L 232.647141 89.87808 
L 234.184398 89.46528 
L 235.713182 90.0432 
L 237.204861 89.96064 
L 238.728308 91.99368 
L 240.229647 93.05664 
L 241.711335 93.74808 
L 243.194679 97.02984 
L 244.733558 95.93592 
L 246.246718 95.07936 
L 247.724465 94.46016 
L 249.246588 95.47152 
L 252.274339 94.82136 
L 253.769819 94.8936 
L 255.287251 94.70784 
L 258.358923 93.40752 
L 259.817438 92.9844 
L 261.316719 93.93384 
L 262.858702 94.4292 
L 265.842809 93.87192 
L 267.393406 93.81 
L 268.809847 94.03704 
L 270.321734 94.83168 
L 271.827833 95.48184 
L 273.342057 96.63768 
L 274.830091 96.14232 
L 276.365309 96.30744 
L 277.882706 96.29712 
L 279.36 96.04944 
L 279.36 96.04944 
" clip-path="url(#pdc0e5cf80f)" style="fill: none; stroke: #4a8dff; stroke-width: 0.6"/>
   </g>
   <g id="line2d_7">
    <path d="M 8.64 86.02872 
L 11.652999 83.53128 
L 14.665999 82.03488 
L 16.172498 79.39296 
L 17.678998 79.66128 
L 19.185498 82.15872 
L 20.691998 82.43736 
L 22.198497 82.93272 
L 23.704997 83.00496 
L 26.717996 82.28256 
L 28.224496 78.01008 
L 29.730996 76.19376 
L 31.237495 77.66952 
L 32.743995 77.74176 
L 34.250495 78.1752 
L 35.756994 79.5684 
L 37.263494 80.8068 
L 38.769994 85.20312 
L 40.276494 84.12984 
L 41.782993 84.03696 
L 43.289493 84.06792 
L 44.795993 84.3156 
L 46.302492 87.02976 
L 47.808992 85.21344 
L 49.315492 84.28464 
L 50.821991 84.32592 
L 52.328491 89.08344 
L 53.834991 89.5272 
L 55.34149 95.14128 
L 56.84799 96.98856 
L 58.35449 95.08968 
L 59.626314 97.71096 
L 60.82351 99.80592 
L 62.329243 101.79768 
L 63.829291 100.03296 
L 65.370228 100.518 
L 66.864295 99.98136 
L 68.379391 100.49736 
L 72.889893 101.26104 
L 74.378276 100.63152 
L 75.805284 100.38384 
L 77.408416 100.84824 
L 78.725679 100.65216 
L 80.419026 101.034 
L 81.923695 101.19912 
L 86.442392 100.91016 
L 87.953425 101.7564 
L 89.332657 101.84928 
L 90.961002 101.56032 
L 92.460789 100.85856 
L 95.453178 101.4468 
L 96.993905 101.02368 
L 98.484852 101.30232 
L 99.994856 100.81728 
L 101.492917 100.79664 
L 103.00266 99.3312 
L 104.508444 99.92976 
L 106.003384 100.78632 
L 107.524513 101.17848 
L 109.035528 101.1372 
L 110.532351 100.21872 
L 113.550686 100.4664 
L 115.054274 99.88848 
L 116.558768 99.94008 
L 118.09409 99.81624 
L 119.604844 98.93904 
L 121.08498 98.3508 
L 122.60297 98.52624 
L 124.109889 99.78528 
L 125.601724 100.12584 
L 127.099401 100.03296 
L 130.138468 100.83792 
L 131.631019 100.11552 
L 133.249721 99.87816 
L 134.662344 100.002 
L 136.170744 100.64184 
L 137.662841 101.41584 
L 139.189863 101.21976 
L 142.197667 101.00304 
L 143.717087 100.86888 
L 145.203744 101.21976 
L 146.71197 101.28168 
L 149.734751 101.14752 
L 151.245139 100.55928 
L 152.741857 100.65216 
L 154.250798 99.80592 
L 155.752049 99.96072 
L 157.272411 99.6408 
L 158.755877 99.1764 
L 160.289403 99.70272 
L 161.803627 99.94008 
L 163.300537 98.57784 
L 164.805885 98.65008 
L 166.318906 98.38176 
L 167.822337 98.48496 
L 169.31222 96.70992 
L 170.838615 98.05152 
L 172.348846 98.48496 
L 173.848737 97.96896 
L 175.350564 96.32808 
L 178.373659 96.16296 
L 179.862182 96.1836 
L 181.392116 96.50352 
L 182.914849 94.76976 
L 184.424504 97.19496 
L 185.926889 96.9576 
L 187.435917 97.9896 
L 188.958877 96.89568 
L 190.426929 95.45088 
L 191.964012 95.67792 
L 193.469989 93.43848 
L 196.476345 92.25168 
L 197.983246 92.87088 
L 199.464672 94.2744 
L 200.976681 93.1392 
L 202.513538 92.97408 
L 204.031929 92.9844 
L 205.517505 92.60256 
L 207.031171 92.53032 
L 208.535997 94.54272 
L 210.049925 92.85024 
L 211.537192 94.82136 
L 213.066185 95.75016 
L 214.587313 96.97824 
L 217.594907 97.23624 
L 219.109986 95.94624 
L 220.604943 96.30744 
L 222.090745 98.08248 
L 223.621098 97.2672 
L 225.147423 96.61704 
L 226.631098 97.23624 
L 228.153064 98.08248 
L 229.654751 99.18672 
L 231.162367 99.03192 
L 232.647141 99.1248 
L 234.184398 98.74296 
L 235.713182 99.09384 
L 237.204861 100.0536 
L 238.728308 101.23008 
L 240.229647 101.99376 
L 241.711335 102.08664 
L 243.194679 102.8916 
L 244.733558 102.45816 
L 247.724465 102.10728 
L 249.246588 102.582 
L 252.274339 102.08664 
L 253.769819 102.066 
L 255.287251 101.86992 
L 256.843828 101.48808 
L 258.358923 101.40552 
L 259.817438 101.4984 
L 261.316719 101.97312 
L 262.858702 102.26208 
L 265.842809 101.90088 
L 267.393406 101.90088 
L 268.809847 102.0144 
L 270.321734 102.25176 
L 271.827833 102.6336 
L 273.342057 102.88128 
L 274.830091 102.77808 
L 279.36 102.95352 
L 279.36 102.95352 
" clip-path="url(#pdc0e5cf80f)" style="fill: none; stroke: #f5841e; stroke-width: 0.6"/>
   </g>
  </g>
 </g>
 <defs>
  <clipPath id="pdc0e5cf80f">
   <rect x="8.64" y="4.8" width="270.72" height="103.2"/>
  </clipPath>
 </defs>
</svg>
