<?xml version="1.0" encoding="utf-8" standalone="no"?>
<!DOCTYPE svg PUBLIC "-//W3C//DTD SVG 1.1//EN"
  "http://www.w3.org/Graphics/SVG/1.1/DTD/svg11.dtd">
<svg xmlns:xlink="http://www.w3.org/1999/xlink" width="288pt" height="120pt" viewBox="0 0 288 120" xmlns="http://www.w3.org/2000/svg" version="1.1">
<desc id="nav-meta">{"window":"1m","count":4,"labels":["16.04","26.04","05.05","15.05"],"tick_utc":["2026-04-16T03:58:40Z","2026-04-26T04:06:31Z","2026-05-05T03:59:32Z","2026-05-15T04:39:19Z"],"w":720,"h":300}</desc>

 <metadata>
  <rdf:RDF xmlns:dc="http://purl.org/dc/elements/1.1/" xmlns:cc="http://creativecommons.org/ns#" xmlns:rdf="http://www.w3.org/1999/02/22-rdf-syntax-ns#">
   <cc:Work>
    <dc:type rdf:resource="http://purl.org/dc/dcmitype/StillImage"/>
    <dc:date>2026-05-15T20:06:30.038699</dc:date>
    <dc:format>image/svg+xml</dc:format>
    <dc:creator>
     <cc:Agent>
      <dc:title>Matplotlib v3.10.9, https://matplotlib.org/</dc:title>
     </cc:Agent>
    </dc:creator>
   </cc:Work>
  </rdf:RDF>
 </metadata>
 <defs>
  <style type="text/css">*{stroke-linejoin: round; stroke-linecap: butt}</style>
 </defs>
 <g id="figure_1">
  <g id="patch_1">
   <path d="M 0 120 
L 288 120 
L 288 0 
L 0 0 
L 0 120 
z
" style="fill: none; opacity: 0"/>
  </g>
  <g id="axes_1">
   <g id="patch_2">
    <path d="M 8.64 108 
L 279.36 108 
L 279.36 4.8 
L 8.64 4.8 
L 8.64 108 
z
" style="fill: none"/>
   </g>
   <g id="matplotlib.axis_1"/>
   <g id="matplotlib.axis_2"/>
   <g id="line2d_1">
    <path d="M 8.64 87.36 
L 279.36 87.36 
" clip-path="url(#p7a3b4f6f4d)" style="fill: none; stroke: #b2b2b2; stroke-opacity: 0.35; stroke-width: 0.5; stroke-linecap: square"/>
   </g>
   <g id="line2d_2">
    <path d="M 8.64 66.72 
L 279.36 66.72 
" clip-path="url(#p7a3b4f6f4d)" style="fill: none; stroke: #b2b2b2; stroke-opacity: 0.35; stroke-width: 0.5; stroke-linecap: square"/>
   </g>
   <g id="line2d_3">
    <path d="M 8.64 46.08 
L 279.36 46.08 
" clip-path="url(#p7a3b4f6f4d)" style="fill: none; stroke: #b2b2b2; stroke-opacity: 0.35; stroke-width: 0.5; stroke-linecap: square"/>
   </g>
   <g id="line2d_4">
    <path d="M 8.64 25.44 
L 279.36 25.44 
" clip-path="url(#p7a3b4f6f4d)" style="fill: none; stroke: #b2b2b2; stroke-opacity: 0.35; stroke-width: 0.5; stroke-linecap: square"/>
   </g>
   <g id="line2d_5">
    <path d="M 8.64 100.99272 
L 17.947097 100.61088 
L 27.170323 100.44576 
L 36.619578 100.94112 
L 45.968771 101.09592 
L 55.253956 101.00304 
L 64.551122 100.69344 
L 73.914996 100.9308 
L 83.265808 100.92048 
L 92.480615 100.81728 
L 101.951782 100.8792 
L 111.378369 100.64184 
L 120.724001 101.1888 
L 130.024621 101.09592 
L 139.366367 101.37456 
L 148.794357 101.21976 
L 157.882442 101.20944 
L 167.397864 101.23008 
L 176.72072 100.92048 
L 185.841403 101.06496 
L 195.331783 100.70376 
L 204.66036 100.55928 
L 213.831235 100.53864 
L 223.191439 99.60984 
L 232.705458 99.72336 
L 242.105168 99.44472 
L 251.301733 99.25896 
L 260.672191 99.32088 
L 269.987923 100.22904 
L 279.36 100.01232 
" clip-path="url(#p7a3b4f6f4d)" style="fill: none; stroke: #bebebe; stroke-width: 0.5; stroke-linecap: round"/>
   </g>
   <g id="line2d_6">
    <path d="M 8.64 84.58392 
L 17.947097 85.04832 
L 27.170323 83.71704 
L 36.619578 84.86256 
L 45.968771 85.6572 
L 55.253956 85.27536 
L 64.551122 84.49104 
L 73.914996 84.86256 
L 83.265808 85.32696 
L 92.480615 85.17216 
L 101.951782 85.31664 
L 111.378369 84.11952 
L 120.724001 85.66752 
L 130.024621 85.26504 
L 139.366367 86.26608 
L 148.794357 85.77072 
L 157.882442 85.38888 
L 167.397864 85.3992 
L 176.72072 84.09888 
L 185.841403 84.22272 
L 195.331783 84.34656 
L 204.66036 85.06896 
L 213.831235 85.7604 
L 223.191439 85.0896 
L 232.705458 85.01736 
L 242.105168 84.9348 
L 251.301733 85.296 
L 260.672191 85.35792 
L 269.987923 86.1732 
L 279.36 85.92552 
" clip-path="url(#p7a3b4f6f4d)" style="fill: none; stroke: #4a8dff; stroke-width: 0.6"/>
   </g>
   <g id="line2d_7">
    <path d="M 8.64 98.38176 
L 17.947097 98.48496 
L 27.170323 96.70992 
L 36.619578 98.05152 
L 45.968771 98.48496 
L 55.253956 97.96896 
L 64.551122 96.32808 
L 73.914996 96.20424 
L 83.265808 96.16296 
L 92.480615 96.1836 
L 101.951782 96.50352 
L 111.378369 94.76976 
L 120.724001 97.19496 
L 130.024621 96.9576 
L 139.366367 97.9896 
L 148.794357 96.89568 
L 157.882442 95.45088 
L 167.397864 95.67792 
L 176.72072 93.43848 
L 185.841403 92.90184 
L 195.331783 92.25168 
L 204.66036 92.87088 
L 213.831235 94.2744 
L 223.191439 93.1392 
L 232.705458 92.97408 
L 242.105168 92.9844 
L 251.301733 92.60256 
L 260.672191 92.53032 
L 269.987923 94.54272 
L 279.36 92.85024 
" clip-path="url(#p7a3b4f6f4d)" style="fill: none; stroke: #f5841e; stroke-width: 0.6"/>
   </g>
  </g>
 </g>
 <defs>
  <clipPath id="p7a3b4f6f4d">
   <rect x="8.64" y="4.8" width="270.72" height="103.2"/>
  </clipPath>
 </defs>
</svg>
