<?xml version="1.0" encoding="utf-8" standalone="no"?>
<!DOCTYPE svg PUBLIC "-//W3C//DTD SVG 1.1//EN"
  "http://www.w3.org/Graphics/SVG/1.1/DTD/svg11.dtd">
<svg xmlns:xlink="http://www.w3.org/1999/xlink" width="288pt" height="120pt" viewBox="0 0 288 120" xmlns="http://www.w3.org/2000/svg" version="1.1">
<desc id="nav-meta">{"window":"1y","count":4,"labels":["13.05","11.09","10.01","12.05"],"tick_utc":["2025-05-13T12:00:00Z","2025-09-11T12:00:00Z","2026-01-10T12:00:00Z","2026-05-12T04:26:58Z"],"w":720,"h":300}</desc>

 <metadata>
  <rdf:RDF xmlns:dc="http://purl.org/dc/elements/1.1/" xmlns:cc="http://creativecommons.org/ns#" xmlns:rdf="http://www.w3.org/1999/02/22-rdf-syntax-ns#">
   <cc:Work>
    <dc:type rdf:resource="http://purl.org/dc/dcmitype/StillImage"/>
    <dc:date>2026-05-12T20:19:49.995276</dc:date>
    <dc:format>image/svg+xml</dc:format>
    <dc:creator>
     <cc:Agent>
      <dc:title>Matplotlib v3.10.9, https://matplotlib.org/</dc:title>
     </cc:Agent>
    </dc:creator>
   </cc:Work>
  </rdf:RDF>
 </metadata>
 <defs>
  <style type="text/css">*{stroke-linejoin: round; stroke-linecap: butt}</style>
 </defs>
 <g id="figure_1">
  <g id="patch_1">
   <path d="M 0 120 
L 288 120 
L 288 0 
L 0 0 
L 0 120 
z
" style="fill: none; opacity: 0"/>
  </g>
  <g id="axes_1">
   <g id="patch_2">
    <path d="M 8.64 108 
L 279.36 108 
L 279.36 4.8 
L 8.64 4.8 
L 8.64 108 
z
" style="fill: none"/>
   </g>
   <g id="matplotlib.axis_1"/>
   <g id="matplotlib.axis_2"/>
   <g id="line2d_1">
    <path d="M 8.64 87.36 
L 279.36 87.36 
" clip-path="url(#pf5528f58ae)" style="fill: none; stroke: #b2b2b2; stroke-opacity: 0.35; stroke-width: 0.5; stroke-linecap: square"/>
   </g>
   <g id="line2d_2">
    <path d="M 8.64 66.72 
L 279.36 66.72 
" clip-path="url(#pf5528f58ae)" style="fill: none; stroke: #b2b2b2; stroke-opacity: 0.35; stroke-width: 0.5; stroke-linecap: square"/>
   </g>
   <g id="line2d_3">
    <path d="M 8.64 46.08 
L 279.36 46.08 
" clip-path="url(#pf5528f58ae)" style="fill: none; stroke: #b2b2b2; stroke-opacity: 0.35; stroke-width: 0.5; stroke-linecap: square"/>
   </g>
   <g id="line2d_4">
    <path d="M 8.64 25.44 
L 279.36 25.44 
" clip-path="url(#pf5528f58ae)" style="fill: none; stroke: #b2b2b2; stroke-opacity: 0.35; stroke-width: 0.5; stroke-linecap: square"/>
   </g>
   <g id="line2d_5">
    <path d="M 8.64 78.846 
L 9.38438 76.2144 
L 10.873139 80.394 
L 11.617519 80.66232 
L 12.361898 81.168 
L 13.106278 79.63032 
L 13.850657 80.95128 
L 14.595037 80.4972 
L 16.083796 77.43216 
L 16.828176 78.846 
L 17.572556 78.41256 
L 18.316935 78.64992 
L 19.061315 78.76344 
L 19.805695 78.25776 
L 20.550074 79.47552 
L 21.294454 80.92032 
L 22.038833 83.73768 
L 22.783213 83.6448 
L 23.527593 83.4384 
L 24.271972 83.61384 
L 25.016352 83.99568 
L 25.760732 84.55296 
L 26.505111 87.00912 
L 27.249491 85.98744 
L 27.99387 85.5024 
L 28.73825 84.8316 
L 29.48263 82.46832 
L 30.227009 81.426 
L 30.971389 82.5096 
L 31.715769 84.79032 
L 33.204528 86.95752 
L 33.948908 84.79032 
L 34.693287 85.13088 
L 35.437667 86.07 
L 36.182046 86.5344 
L 36.926426 86.31768 
L 38.415185 89.97096 
L 39.159565 90.48696 
L 39.903945 86.9472 
L 40.648324 86.66856 
L 41.392704 87.32904 
L 42.137084 88.53648 
L 42.881463 87.6696 
L 43.625843 85.30632 
L 44.370222 84.61488 
L 45.114602 84.17112 
L 45.858982 86.3796 
L 46.603361 84.92448 
L 47.347741 84.89352 
L 48.092121 86.13192 
L 48.8365 86.1732 
L 49.58088 84.99672 
L 50.325259 85.85328 
L 51.069639 85.01736 
L 51.814019 83.55192 
L 52.558398 81.7356 
L 53.302778 82.03488 
L 54.047158 82.65408 
L 55.535917 82.15872 
L 56.280297 81.70464 
L 57.024676 79.01112 
L 57.769056 78.39192 
L 58.513435 78.04104 
L 59.257815 78.16488 
L 60.002195 77.05032 
L 60.746574 72.82944 
L 61.490954 70.41456 
L 62.235334 74.69736 
L 62.979713 76.6272 
L 63.724093 75.63648 
L 64.468473 75.97704 
L 65.212852 74.976 
L 65.957232 76.49304 
L 66.701611 76.99872 
L 67.445991 77.90688 
L 68.190371 79.4652 
L 68.93475 82.02456 
L 69.67913 83.19072 
L 70.42351 82.27224 
L 71.167889 80.21856 
L 71.912269 81.67368 
L 72.656648 80.5488 
L 73.401028 78.588 
L 74.145408 78.19584 
L 74.889787 77.21544 
L 75.634167 76.524 
L 76.378547 78.68088 
L 77.122926 73.88208 
L 77.867306 71.364 
L 78.611686 73.8408 
L 79.356065 75.79128 
L 80.100445 74.65608 
L 80.844824 74.14008 
L 81.589204 76.50336 
L 82.333584 78.30936 
L 83.077963 75.3372 
L 83.822343 77.25672 
L 84.566723 71.78712 
L 85.311102 70.75512 
L 86.055482 70.24944 
L 86.799862 75.35784 
L 87.544241 72.95328 
L 88.288621 70.96152 
L 89.033 67.87584 
L 89.77738 70.46616 
L 90.52176 71.11632 
L 91.266139 71.61168 
L 92.010519 72.7056 
L 92.754899 69.33096 
L 93.499278 68.9388 
L 94.243658 71.12664 
L 94.988038 70.90992 
L 95.732417 71.80776 
L 96.476797 70.074 
L 97.221176 68.01 
L 97.965556 67.10184 
L 98.709936 65.29584 
L 99.454315 64.01616 
L 100.198695 60.31128 
L 100.943075 60.19776 
L 101.687454 60.786 
L 102.431834 62.61264 
L 103.176213 61.74576 
L 103.920593 59.57856 
L 104.664973 58.86648 
L 105.409352 61.38456 
L 106.153732 61.07496 
L 106.898112 61.83864 
L 107.642491 66.29688 
L 108.386871 67.97904 
L 109.131251 68.69112 
L 109.87563 73.9956 
L 110.62001 70.45584 
L 111.364389 70.87896 
L 112.108769 68.91816 
L 112.853149 68.3196 
L 113.597528 69.47544 
L 115.086288 62.39592 
L 115.830667 62.81904 
L 116.575047 64.22256 
L 117.319427 64.05744 
L 118.063806 62.9532 
L 118.808186 66.14208 
L 119.552565 63.91296 
L 120.296945 66.17304 
L 121.041325 74.6148 
L 121.785704 77.78304 
L 122.530084 72.66432 
L 123.274464 69.69216 
L 124.018843 71.09568 
L 125.507602 76.06992 
L 126.251982 76.76136 
L 126.996362 75.25464 
L 127.740741 75.24432 
L 128.485121 74.63544 
L 129.229501 75.73968 
L 129.97388 77.31864 
L 130.71826 74.202 
L 131.46264 73.64472 
L 132.207019 73.48992 
L 132.951399 71.83872 
L 133.695778 72.17928 
L 134.440158 73.38672 
L 135.184538 73.43832 
L 135.928917 76.15248 
L 136.673297 75.3372 
L 137.417677 75.58488 
L 138.162056 75.35784 
L 138.906436 81.168 
L 139.650816 84.01632 
L 140.395195 82.06584 
L 141.139575 84.19176 
L 141.883954 82.27224 
L 142.628334 83.29392 
L 143.372714 81.62208 
L 144.117093 80.72424 
L 144.861473 84.33624 
L 145.605853 84.64584 
L 146.350232 86.844 
L 147.094612 88.52616 
L 147.838991 88.36104 
L 148.583371 88.93896 
L 149.327751 90.79656 
L 150.07213 88.09272 
L 150.81651 89.22792 
L 151.56089 90.00192 
L 152.305269 91.39512 
L 153.049649 91.63248 
L 153.794029 90.75528 
L 154.538408 88.7016 
L 155.282788 88.52616 
L 156.027167 87.45288 
L 156.771547 88.0308 
L 157.515927 88.94928 
L 159.004686 89.7336 
L 159.749066 91.86984 
L 160.493445 88.60872 
L 161.237825 86.87496 
L 162.726584 90.11544 
L 164.215343 90.53856 
L 164.959723 90.08448 
L 165.704103 88.79448 
L 166.448482 89.20728 
L 167.192862 89.22792 
L 167.937242 90.31152 
L 168.681621 90.10512 
L 169.426001 91.09584 
L 170.170381 91.61184 
L 170.91476 91.31256 
L 171.65914 92.87088 
L 172.403519 93.8616 
L 173.147899 92.02464 
L 173.892279 92.13816 
L 174.636658 92.07624 
L 175.381038 92.14848 
L 177.614177 93.69648 
L 179.102936 92.44776 
L 179.847316 92.30328 
L 180.591695 92.87088 
L 181.336075 92.38584 
L 182.080455 92.47872 
L 182.824834 91.88016 
L 183.569214 90.42504 
L 184.313594 90.08448 
L 185.057973 89.92968 
L 185.802353 88.76352 
L 186.546732 87.94824 
L 187.291112 89.2692 
L 188.035492 88.72224 
L 188.779871 89.39304 
L 189.524251 89.40336 
L 190.268631 88.41264 
L 191.01301 88.4952 
L 191.75739 86.86464 
L 192.50177 86.42088 
L 193.246149 87.62832 
L 193.990529 86.93688 
L 194.734908 87.23616 
L 196.223668 90.0432 
L 196.968047 92.12784 
L 197.712427 91.16808 
L 199.201186 91.73568 
L 199.945566 91.78728 
L 200.689945 94.0164 
L 201.434325 92.5716 
L 202.178705 91.76664 
L 202.923084 92.33424 
L 203.667464 94.36728 
L 204.411844 94.46016 
L 205.156223 97.71096 
L 205.900603 98.48496 
L 206.644983 97.85544 
L 207.864955 100.16712 
L 208.608956 102.23112 
L 209.350148 100.54896 
L 210.111543 100.70376 
L 210.84978 100.68312 
L 212.341244 101.28168 
L 213.082945 101.71512 
L 213.8271 101.84928 
L 214.562528 101.034 
L 215.26763 100.54896 
L 216.059757 101.04432 
L 216.710632 100.81728 
L 217.547336 101.034 
L 218.290811 101.4984 
L 220.523553 101.06496 
L 221.270173 102.09696 
L 221.951668 102.05568 
L 222.756253 101.4984 
L 223.497315 100.60056 
L 224.240282 100.80696 
L 224.975891 101.45712 
L 225.737183 100.55928 
L 226.473878 101.10624 
L 227.960199 100.74504 
L 228.706181 100.21872 
L 229.450207 100.53864 
L 230.188875 101.07528 
L 230.940483 101.38488 
L 231.687094 101.26104 
L 232.426692 100.78632 
L 233.918087 100.99272 
L 234.661028 100.38384 
L 236.163038 100.60056 
L 236.90952 99.76464 
L 237.640873 99.49632 
L 238.39093 99.40344 
L 239.135517 100.09488 
L 239.872651 100.3632 
L 240.612671 100.19808 
L 242.11431 100.79664 
L 242.851797 100.26 
L 243.651618 99.83688 
L 244.349612 100.13616 
L 245.832194 101.38488 
L 248.823669 101.28168 
L 249.558244 101.8596 
L 250.303477 101.88024 
L 251.041481 101.72544 
L 251.79707 101.68416 
L 252.54337 101.47776 
L 253.282917 101.78736 
L 254.028503 101.09592 
L 254.770289 101.46744 
L 255.521518 101.3436 
L 256.254516 101.05464 
L 257.01225 101.3952 
L 257.760446 101.47776 
L 258.500088 100.86888 
L 259.243899 101.26104 
L 261.470533 100.44576 
L 262.224743 100.94112 
L 262.970966 101.09592 
L 263.71208 101.00304 
L 264.454151 100.69344 
L 265.201546 100.9308 
L 267.439355 100.8792 
L 268.191755 100.64184 
L 268.937694 101.1888 
L 269.680041 101.09592 
L 270.42567 101.37456 
L 271.178182 101.21976 
L 272.663056 101.23008 
L 273.407177 100.92048 
L 274.135161 101.06496 
L 274.892654 100.70376 
L 275.637232 100.55928 
L 276.369222 100.53864 
L 277.116324 99.60984 
L 277.875704 99.72336 
L 279.36 99.25896 
L 279.36 99.25896 
" clip-path="url(#pf5528f58ae)" style="fill: none; stroke: #bebebe; stroke-width: 0.5; stroke-linecap: round"/>
   </g>
   <g id="line2d_6">
    <path d="M 8.64 82.60248 
L 9.38438 79.86768 
L 10.873139 81.85944 
L 11.617519 81.82848 
L 12.361898 82.86048 
L 13.106278 83.00496 
L 13.850657 82.08648 
L 14.595037 82.12776 
L 15.339417 81.61176 
L 16.083796 80.15664 
L 16.828176 82.18968 
L 18.316935 81.79752 
L 19.061315 81.56016 
L 19.805695 80.0844 
L 20.550074 79.86768 
L 21.294454 80.50752 
L 22.038833 82.12776 
L 23.527593 81.92136 
L 24.271972 80.8584 
L 25.016352 81.07512 
L 25.760732 80.84808 
L 26.505111 83.6448 
L 27.249491 82.7676 
L 27.99387 82.0968 
L 28.73825 82.3548 
L 29.48263 79.74384 
L 30.227009 77.90688 
L 30.971389 78.39192 
L 31.715769 80.21856 
L 32.460148 81.34344 
L 33.204528 81.98328 
L 34.693287 81.5808 
L 35.437667 82.26192 
L 36.926426 82.15872 
L 37.670806 83.88216 
L 38.415185 85.89456 
L 39.159565 86.5344 
L 39.903945 83.61384 
L 40.648324 83.2836 
L 41.392704 83.71704 
L 42.137084 83.748 
L 43.625843 83.41776 
L 44.370222 82.44768 
L 45.114602 82.6644 
L 45.858982 83.89248 
L 46.603361 81.38472 
L 47.347741 81.14736 
L 48.092121 82.34448 
L 48.8365 82.23096 
L 49.58088 81.426 
L 50.325259 81.8388 
L 51.069639 80.76552 
L 52.558398 75.83256 
L 53.302778 75.67776 
L 54.047158 75.91512 
L 55.535917 74.88312 
L 56.280297 73.09776 
L 57.024676 69.6096 
L 57.769056 67.91712 
L 58.513435 66.94704 
L 59.257815 66.24528 
L 60.002195 63.80976 
L 60.746574 63.70656 
L 61.490954 63.9852 
L 62.235334 65.71896 
L 62.979713 64.5528 
L 64.468473 64.05744 
L 65.212852 62.25144 
L 65.957232 63.39696 
L 66.701611 63.366 
L 67.445991 63.08736 
L 68.190371 64.72824 
L 68.93475 67.89648 
L 69.67913 69.16584 
L 70.42351 67.69008 
L 71.167889 64.4496 
L 71.912269 65.97696 
L 72.656648 64.914 
L 73.401028 61.54968 
L 74.145408 60.04296 
L 74.889787 56.28648 
L 75.634167 56.47224 
L 76.378547 56.83344 
L 77.122926 51.22968 
L 77.867306 48.89736 
L 78.611686 52.00368 
L 79.356065 53.84064 
L 80.100445 53.90256 
L 80.844824 53.00472 
L 81.589204 55.5228 
L 82.333584 59.12448 
L 83.077963 55.32672 
L 83.822343 56.90568 
L 84.566723 47.92728 
L 85.311102 48.75288 
L 86.055482 48.68064 
L 86.799862 54.57336 
L 87.544241 51.2916 
L 88.288621 52.80864 
L 89.033 52.69512 
L 89.77738 54.82104 
L 91.266139 54.45984 
L 92.010519 55.7292 
L 92.754899 55.39896 
L 93.499278 53.55168 
L 94.243658 55.81176 
L 94.988038 55.6776 
L 95.732417 56.18328 
L 96.476797 55.71888 
L 97.965556 55.63632 
L 98.709936 55.07904 
L 99.454315 53.41752 
L 100.198695 49.71264 
L 100.943075 50.32152 
L 101.687454 51.17808 
L 102.431834 52.44744 
L 103.176213 52.74672 
L 103.920593 51.4464 
L 104.664973 51.46704 
L 105.409352 53.2524 
L 106.153732 53.08728 
L 106.898112 53.5104 
L 107.642491 57.26688 
L 108.386871 57.76224 
L 109.131251 58.02024 
L 109.87563 62.26176 
L 110.62001 59.68176 
L 111.364389 59.9604 
L 112.108769 58.12344 
L 112.853149 57.02952 
L 113.597528 58.09248 
L 114.341908 55.13064 
L 115.086288 53.046 
L 115.830667 52.5816 
L 116.575047 52.9944 
L 117.319427 52.5816 
L 118.063806 50.0016 
L 118.808186 53.48976 
L 119.552565 52.40616 
L 120.296945 54.75912 
L 121.041325 62.67456 
L 121.785704 63.95424 
L 122.530084 57.86544 
L 123.274464 56.57544 
L 124.018843 58.31952 
L 124.763223 60.4764 
L 125.507602 61.85928 
L 126.251982 62.73648 
L 126.996362 61.8696 
L 127.740741 60.45576 
L 128.485121 60.54864 
L 129.229501 62.04504 
L 129.97388 63.16992 
L 130.71826 62.36496 
L 131.46264 61.21944 
L 132.207019 60.9408 
L 132.951399 57.83448 
L 133.695778 58.40208 
L 134.440158 60.49704 
L 135.928917 63.1596 
L 136.673297 62.49912 
L 137.417677 62.1276 
L 138.162056 61.56 
L 139.650816 70.66224 
L 140.395195 68.72208 
L 141.139575 70.4868 
L 141.883954 68.61888 
L 142.628334 69.11424 
L 143.372714 66.5136 
L 144.117093 66.68904 
L 144.861473 68.8872 
L 145.605853 68.9904 
L 146.350232 71.5704 
L 147.094612 73.48992 
L 147.838991 72.54048 
L 149.327751 74.74896 
L 150.07213 73.3248 
L 150.81651 74.80056 
L 151.56089 77.556 
L 152.305269 78.55704 
L 153.049649 78.50544 
L 153.794029 78.04104 
L 154.538408 75.76032 
L 155.282788 75.73968 
L 156.027167 74.65608 
L 156.771547 74.83152 
L 157.515927 74.57352 
L 158.260306 75.20304 
L 159.004686 75.17208 
L 159.749066 78.05136 
L 161.237825 72.16896 
L 161.982205 73.08744 
L 162.726584 74.72832 
L 164.215343 74.28456 
L 164.959723 73.21128 
L 165.704103 70.2804 
L 166.448482 70.2288 
L 167.192862 71.56008 
L 167.937242 73.79952 
L 168.681621 73.35576 
L 169.426001 74.0988 
L 170.170381 75.5952 
L 170.91476 75.5952 
L 171.65914 77.61792 
L 172.403519 77.63856 
L 173.147899 75.40944 
L 173.892279 75.40944 
L 174.636658 75.04824 
L 175.381038 74.98632 
L 176.125418 75.58488 
L 176.869797 75.87384 
L 177.614177 76.49304 
L 179.102936 75.82224 
L 179.847316 75.84288 
L 180.591695 76.03896 
L 181.336075 75.51264 
L 182.080455 75.56424 
L 182.824834 75.05856 
L 183.569214 73.26288 
L 184.313594 73.20096 
L 185.057973 73.00488 
L 185.802353 71.68392 
L 186.546732 70.6932 
L 187.291112 72.62304 
L 188.035492 73.52088 
L 188.779871 73.83048 
L 189.524251 73.8408 
L 190.268631 73.29384 
L 191.01301 73.72728 
L 191.75739 70.32168 
L 192.50177 69.77472 
L 193.246149 70.34232 
L 193.990529 70.67256 
L 194.734908 70.51776 
L 195.479288 70.848 
L 196.223668 72.31344 
L 196.968047 76.01832 
L 197.712427 75.41976 
L 198.456807 75.83256 
L 199.945566 75.82224 
L 200.689945 77.82432 
L 201.434325 76.14216 
L 202.178705 74.75928 
L 202.923084 74.96568 
L 203.667464 77.75208 
L 204.411844 79.48584 
L 205.156223 83.31456 
L 205.900603 85.90488 
L 206.644983 84.79032 
L 207.273406 85.84296 
L 208.608956 91.41576 
L 209.350148 88.7532 
L 210.84978 88.55712 
L 211.598407 88.96992 
L 213.082945 90.456 
L 213.8271 90.56952 
L 214.562528 89.15568 
L 215.26763 88.9596 
L 216.059757 90.6624 
L 216.710632 89.94 
L 217.547336 90.00192 
L 219.030839 90.62112 
L 220.523553 90.3528 
L 221.270173 92.004 
L 221.951668 92.13816 
L 222.756253 91.25064 
L 223.497315 89.166 
L 224.240282 89.56848 
L 224.975891 90.93072 
L 225.737183 89.41368 
L 226.473878 90.37344 
L 227.219989 89.79552 
L 227.960199 90.23928 
L 228.706181 88.0824 
L 229.450207 88.7532 
L 230.188875 90.16704 
L 230.940483 90.67272 
L 231.687094 90.18768 
L 232.426692 89.2692 
L 233.170778 89.54784 
L 233.918087 89.49624 
L 234.661028 88.31976 
L 235.404417 88.45392 
L 236.163038 88.46424 
L 236.90952 86.38992 
L 237.640873 84.80064 
L 238.39093 84.8316 
L 239.135517 86.586 
L 239.872651 87.74184 
L 240.612671 87.618 
L 241.368182 88.19592 
L 242.11431 89.08344 
L 242.851797 87.89664 
L 243.651618 87.3084 
L 244.349612 87.65928 
L 245.832194 90.07416 
L 247.333221 89.3724 
L 248.072906 89.00088 
L 248.823669 88.42296 
L 250.303477 89.10408 
L 251.041481 89.14536 
L 251.79707 89.07312 
L 252.54337 87.9792 
L 253.282917 88.29912 
L 254.028503 86.38992 
L 254.770289 87.24648 
L 255.521518 87.1536 
L 256.254516 86.21448 
L 257.760446 87.01944 
L 258.500088 84.44976 
L 259.243899 85.05864 
L 259.9915 84.58392 
L 260.734364 85.04832 
L 261.470533 83.71704 
L 262.224743 84.86256 
L 262.970966 85.6572 
L 263.71208 85.27536 
L 264.454151 84.49104 
L 265.947899 85.32696 
L 266.683396 85.17216 
L 267.439355 85.31664 
L 268.191755 84.11952 
L 268.937694 85.66752 
L 269.680041 85.26504 
L 270.42567 86.26608 
L 271.903565 85.38888 
L 272.663056 85.3992 
L 273.407177 84.09888 
L 274.892654 84.34656 
L 276.369222 85.7604 
L 277.116324 85.0896 
L 278.625959 84.9348 
L 279.36 85.296 
L 279.36 85.296 
" clip-path="url(#pf5528f58ae)" style="fill: none; stroke: #4a8dff; stroke-width: 0.6"/>
   </g>
   <g id="line2d_7">
    <path d="M 8.64 70.11528 
L 9.38438 68.76336 
L 10.128759 69.37224 
L 10.873139 69.25872 
L 11.617519 69.41352 
L 12.361898 69.77472 
L 13.106278 66.85416 
L 13.850657 67.26696 
L 14.595037 66.06984 
L 15.339417 63.08736 
L 16.083796 61.12656 
L 16.828176 65.62608 
L 17.572556 64.98624 
L 18.316935 63.91296 
L 19.061315 63.38664 
L 19.805695 63.70656 
L 20.550074 64.97592 
L 21.294454 67.14312 
L 22.038833 68.9388 
L 22.783213 68.23704 
L 23.527593 67.1844 
L 24.271972 66.99864 
L 25.016352 67.47336 
L 25.760732 68.1132 
L 26.505111 71.38464 
L 27.249491 68.526 
L 27.99387 67.21536 
L 28.73825 67.20504 
L 29.48263 62.46816 
L 30.227009 62.51976 
L 30.971389 64.10904 
L 31.715769 66.90576 
L 32.460148 66.83352 
L 33.204528 67.42176 
L 33.948908 67.3392 
L 34.693287 65.8944 
L 35.437667 68.24736 
L 36.926426 68.23704 
L 37.670806 69.69216 
L 38.415185 71.50848 
L 39.159565 72.21024 
L 39.903945 67.3908 
L 40.648324 66.90576 
L 41.392704 65.59512 
L 42.137084 65.86344 
L 42.881463 65.76024 
L 43.625843 65.50224 
L 44.370222 64.398 
L 45.114602 65.70864 
L 45.858982 67.2876 
L 46.603361 63.95424 
L 47.347741 63.14928 
L 48.092121 64.76952 
L 48.8365 64.58376 
L 49.58088 63.55176 
L 50.325259 64.5012 
L 51.069639 63.82008 
L 51.814019 61.36392 
L 52.558398 56.64768 
L 53.302778 54.89328 
L 54.047158 55.04808 
L 54.791537 53.29368 
L 55.535917 52.55064 
L 56.280297 54.77976 
L 57.024676 53.67552 
L 57.769056 52.95312 
L 58.513435 54.45984 
L 59.257815 54.55272 
L 60.002195 55.22352 
L 60.746574 54.98616 
L 61.490954 52.4268 
L 62.235334 53.79936 
L 62.979713 54.08832 
L 63.724093 54.92424 
L 64.468473 54.4908 
L 65.212852 52.98408 
L 65.957232 54.44952 
L 66.701611 54.60432 
L 67.445991 54.62496 
L 68.93475 59.38248 
L 69.67913 60.09456 
L 70.42351 58.39176 
L 71.167889 57.41136 
L 71.912269 58.464 
L 72.656648 57.5352 
L 73.401028 55.0068 
L 74.145408 55.81176 
L 74.889787 55.99752 
L 75.634167 53.13888 
L 76.378547 53.64456 
L 77.122926 52.1688 
L 77.867306 48.69096 
L 78.611686 54.0264 
L 79.356065 55.13064 
L 80.100445 54.96552 
L 80.844824 54.92424 
L 81.589204 56.25552 
L 82.333584 59.8572 
L 83.077963 58.32984 
L 83.822343 60.23904 
L 84.566723 55.65696 
L 85.311102 57.18432 
L 86.055482 59.21736 
L 86.799862 62.55072 
L 87.544241 60.82728 
L 88.288621 61.47744 
L 89.033 60.12552 
L 89.77738 64.31544 
L 90.52176 63.99552 
L 91.266139 64.5528 
L 92.010519 63.60336 
L 92.754899 61.5084 
L 93.499278 60.96144 
L 94.243658 61.98312 
L 94.988038 62.05536 
L 95.732417 62.51976 
L 97.221176 60.64152 
L 97.965556 61.13688 
L 98.709936 58.6188 
L 99.454315 57.03984 
L 100.198695 56.35872 
L 100.943075 56.5548 
L 101.687454 57.174 
L 102.431834 57.14304 
L 103.176213 55.7292 
L 103.920593 56.04912 
L 104.664973 55.33704 
L 105.409352 56.87472 
L 106.153732 56.8128 
L 106.898112 57.24624 
L 107.642491 59.93976 
L 108.386871 60.64152 
L 109.131251 59.29992 
L 109.87563 63.80976 
L 110.62001 63.03576 
L 111.364389 63.09768 
L 112.853149 58.27824 
L 113.597528 58.5672 
L 114.341908 53.93352 
L 115.086288 51.74568 
L 115.830667 50.04288 
L 116.575047 49.90872 
L 118.063806 47.43192 
L 118.808186 50.80656 
L 119.552565 48.90768 
L 120.296945 50.6208 
L 121.041325 59.42376 
L 121.785704 61.85928 
L 122.530084 57.35976 
L 123.274464 57.3288 
L 124.018843 59.46504 
L 125.507602 64.72824 
L 126.251982 66.42072 
L 126.996362 65.688 
L 127.740741 64.17096 
L 128.485121 62.10696 
L 129.229501 64.30512 
L 129.97388 65.20296 
L 130.71826 62.68488 
L 131.46264 61.70448 
L 132.207019 61.06464 
L 132.951399 58.1028 
L 133.695778 58.40208 
L 134.440158 59.68176 
L 135.184538 62.6952 
L 135.928917 64.56312 
L 136.673297 63.18024 
L 137.417677 62.72616 
L 138.162056 62.06568 
L 138.906436 66.33816 
L 139.650816 71.40528 
L 140.395195 69.08328 
L 141.139575 71.7252 
L 141.883954 69.57864 
L 142.628334 70.72416 
L 143.372714 68.2164 
L 144.117093 66.978 
L 144.861473 70.03272 
L 145.605853 71.5188 
L 146.350232 73.3764 
L 147.094612 78.846 
L 147.838991 77.75208 
L 148.583371 78.88728 
L 149.327751 81.34344 
L 150.07213 80.53848 
L 150.81651 82.0452 
L 151.56089 86.92656 
L 152.305269 88.58808 
L 153.049649 88.96992 
L 153.794029 86.7924 
L 154.538408 85.296 
L 155.282788 86.24544 
L 156.027167 82.96368 
L 156.771547 82.13808 
L 157.515927 82.47864 
L 158.260306 82.58184 
L 159.004686 83.03592 
L 159.749066 87.3084 
L 160.493445 82.06584 
L 161.237825 79.71288 
L 161.982205 81.24024 
L 162.726584 84.17112 
L 163.470964 84.24336 
L 164.215343 83.29392 
L 164.959723 82.8192 
L 165.704103 80.64168 
L 166.448482 81.38472 
L 167.192862 80.87904 
L 167.937242 83.13912 
L 168.681621 83.19072 
L 170.170381 87.17424 
L 170.91476 85.71912 
L 171.65914 87.53544 
L 172.403519 88.17528 
L 173.147899 85.41984 
L 174.636658 84.9348 
L 175.381038 85.01736 
L 176.125418 86.14224 
L 176.869797 85.90488 
L 177.614177 86.328 
L 178.358556 86.24544 
L 179.102936 85.72944 
L 179.847316 85.7088 
L 180.591695 86.40024 
L 181.336075 85.09992 
L 182.080455 86.02872 
L 183.569214 83.53128 
L 185.057973 82.03488 
L 185.802353 79.39296 
L 186.546732 79.66128 
L 187.291112 82.15872 
L 188.035492 82.43736 
L 188.779871 82.93272 
L 189.524251 83.00496 
L 191.01301 82.28256 
L 191.75739 78.01008 
L 192.50177 76.19376 
L 193.246149 77.66952 
L 193.990529 77.74176 
L 194.734908 78.1752 
L 196.223668 80.8068 
L 196.968047 85.20312 
L 197.712427 84.12984 
L 198.456807 84.03696 
L 199.201186 84.06792 
L 199.945566 84.3156 
L 200.689945 87.02976 
L 201.434325 85.21344 
L 202.178705 84.28464 
L 202.923084 84.32592 
L 203.667464 89.08344 
L 204.411844 89.5272 
L 205.156223 95.14128 
L 205.900603 96.98856 
L 206.644983 95.08968 
L 207.864955 99.80592 
L 208.608956 101.79768 
L 209.350148 100.03296 
L 210.111543 100.518 
L 210.84978 99.98136 
L 211.598407 100.49736 
L 213.8271 101.26104 
L 214.562528 100.63152 
L 215.26763 100.38384 
L 216.059757 100.84824 
L 216.710632 100.65216 
L 217.547336 101.034 
L 218.290811 101.19912 
L 220.523553 100.91016 
L 221.270173 101.7564 
L 221.951668 101.84928 
L 222.756253 101.56032 
L 223.497315 100.85856 
L 224.975891 101.4468 
L 225.737183 101.02368 
L 226.473878 101.30232 
L 227.219989 100.81728 
L 227.960199 100.79664 
L 228.706181 99.3312 
L 229.450207 99.92976 
L 230.188875 100.78632 
L 230.940483 101.17848 
L 231.687094 101.1372 
L 232.426692 100.21872 
L 233.918087 100.4664 
L 234.661028 99.88848 
L 235.404417 99.94008 
L 236.163038 99.81624 
L 236.90952 98.93904 
L 237.640873 98.3508 
L 238.39093 98.52624 
L 239.135517 99.78528 
L 239.872651 100.12584 
L 240.612671 100.03296 
L 242.11431 100.83792 
L 242.851797 100.11552 
L 243.651618 99.87816 
L 244.349612 100.002 
L 245.832194 101.41584 
L 246.586714 101.21976 
L 248.072906 101.00304 
L 248.823669 100.86888 
L 249.558244 101.21976 
L 250.303477 101.28168 
L 251.79707 101.14752 
L 252.54337 100.55928 
L 253.282917 100.65216 
L 254.028503 99.80592 
L 254.770289 99.96072 
L 255.521518 99.6408 
L 256.254516 99.1764 
L 257.01225 99.70272 
L 257.760446 99.94008 
L 258.500088 98.57784 
L 259.243899 98.65008 
L 259.9915 98.38176 
L 260.734364 98.48496 
L 261.470533 96.70992 
L 262.224743 98.05152 
L 262.970966 98.48496 
L 263.71208 97.96896 
L 264.454151 96.32808 
L 265.947899 96.16296 
L 266.683396 96.1836 
L 267.439355 96.50352 
L 268.191755 94.76976 
L 268.937694 97.19496 
L 269.680041 96.9576 
L 270.42567 97.9896 
L 271.178182 96.89568 
L 271.903565 95.45088 
L 272.663056 95.67792 
L 273.407177 93.43848 
L 274.892654 92.25168 
L 275.637232 92.87088 
L 276.369222 94.2744 
L 277.116324 93.1392 
L 277.875704 92.97408 
L 278.625959 92.9844 
L 279.36 92.60256 
L 279.36 92.60256 
" clip-path="url(#pf5528f58ae)" style="fill: none; stroke: #f5841e; stroke-width: 0.6"/>
   </g>
  </g>
 </g>
 <defs>
  <clipPath id="pf5528f58ae">
   <rect x="8.64" y="4.8" width="270.72" height="103.2"/>
  </clipPath>
 </defs>
</svg>
