<?xml version="1.0" encoding="utf-8" standalone="no"?>
<!DOCTYPE svg PUBLIC "-//W3C//DTD SVG 1.1//EN"
  "http://www.w3.org/Graphics/SVG/1.1/DTD/svg11.dtd">
<svg xmlns:xlink="http://www.w3.org/1999/xlink" width="288pt" height="120pt" viewBox="0 0 288 120" xmlns="http://www.w3.org/2000/svg" version="1.1">
<desc id="nav-meta">{"window":"3m","count":4,"labels":["22.04","22.05","20.06","20.07"],"tick_utc":["2026-04-22T03:51:39Z","2026-05-22T04:48:25Z","2026-06-20T04:59:26Z","2026-07-20T04:25:44Z"],"w":720,"h":300}</desc>

 <metadata>
  <rdf:RDF xmlns:dc="http://purl.org/dc/elements/1.1/" xmlns:cc="http://creativecommons.org/ns#" xmlns:rdf="http://www.w3.org/1999/02/22-rdf-syntax-ns#">
   <cc:Work>
    <dc:type rdf:resource="http://purl.org/dc/dcmitype/StillImage"/>
    <dc:date>2026-07-20T20:11:45.586518</dc:date>
    <dc:format>image/svg+xml</dc:format>
    <dc:creator>
     <cc:Agent>
      <dc:title>Matplotlib v3.11.1, https://matplotlib.org/</dc:title>
     </cc:Agent>
    </dc:creator>
   </cc:Work>
  </rdf:RDF>
 </metadata>
 <defs>
  <style type="text/css">*{stroke-linejoin: round; stroke-linecap: butt}</style>
 </defs>
 <g id="figure_1">
  <g id="patch_1">
   <path d="M 0 120 
L 288 120 
L 288 0 
L 0 0 
L 0 120 
z
" style="fill: none; opacity: 0"/>
  </g>
  <g id="axes_1">
   <g id="patch_2">
    <path d="M 8.64 108 
L 279.36 108 
L 279.36 4.8 
L 8.64 4.8 
L 8.64 108 
z
" style="fill: none"/>
   </g>
   <g id="matplotlib.axis_1"/>
   <g id="matplotlib.axis_2"/>
   <g id="line2d_1">
    <path d="M 8.64 87.36 
L 279.36 87.36 
" clip-path="url(#pc9fd9cb99e)" style="fill: none; stroke: #b2b2b2; stroke-opacity: 0.35; stroke-width: 0.5; stroke-linecap: square"/>
   </g>
   <g id="line2d_2">
    <path d="M 8.64 66.72 
L 279.36 66.72 
" clip-path="url(#pc9fd9cb99e)" style="fill: none; stroke: #b2b2b2; stroke-opacity: 0.35; stroke-width: 0.5; stroke-linecap: square"/>
   </g>
   <g id="line2d_3">
    <path d="M 8.64 46.08 
L 279.36 46.08 
" clip-path="url(#pc9fd9cb99e)" style="fill: none; stroke: #b2b2b2; stroke-opacity: 0.35; stroke-width: 0.5; stroke-linecap: square"/>
   </g>
   <g id="line2d_4">
    <path d="M 8.64 25.44 
L 279.36 25.44 
" clip-path="url(#pc9fd9cb99e)" style="fill: none; stroke: #b2b2b2; stroke-opacity: 0.35; stroke-width: 0.5; stroke-linecap: square"/>
   </g>
   <g id="line2d_5">
    <path d="M 8.64 100.69344 
L 11.693308 100.9308 
L 14.742357 100.92048 
L 17.747058 100.81728 
L 20.835351 100.8792 
L 23.909109 100.64184 
L 26.956468 101.1888 
L 29.989151 101.09592 
L 33.035243 101.37456 
L 36.109458 101.21976 
L 39.072838 101.20944 
L 42.175562 101.23008 
L 45.215495 100.92048 
L 48.189505 101.06496 
L 51.284064 100.70376 
L 54.325862 100.55928 
L 57.316238 100.53864 
L 60.36835 99.60984 
L 63.470616 99.72336 
L 66.535609 99.44472 
L 69.534362 99.25896 
L 72.589817 99.32088 
L 75.627427 100.22904 
L 78.68341 100.01232 
L 81.685577 100.43544 
L 84.77197 100.75536 
L 87.842489 101.02368 
L 90.861691 101.02368 
L 93.913556 101.17848 
L 96.971862 100.7244 
L 99.98955 100.75536 
L 102.988761 101.11656 
L 106.077899 100.91016 
L 109.158907 100.89984 
L 112.153823 101.1372 
L 115.226032 101.2404 
L 118.257306 101.6532 
L 121.300548 101.4984 
L 124.297682 101.48808 
L 127.400758 101.32296 
L 130.486728 101.51904 
L 133.4978 101.7048 
L 136.573 102.54072 
L 139.603571 103.08768 
L 142.594475 103.36632 
L 145.588723 104.22288 
L 148.695072 103.85136 
L 151.749506 103.68624 
L 154.732456 103.43856 
L 157.804981 103.81008 
L 160.863815 103.72752 
L 163.916736 103.50048 
L 166.935481 103.5108 
L 169.998538 103.31472 
L 173.140612 102.95352 
L 176.198953 102.61296 
L 179.143081 102.6336 
L 182.169498 102.9948 
L 185.282112 103.28376 
L 188.201497 103.01544 
L 191.30577 102.69552 
L 194.435771 102.582 
L 197.294969 102.88128 
L 200.346834 103.15992 
L 203.387014 103.36632 
L 206.443595 103.36632 
L 209.44731 102.81936 
L 212.546268 103.0464 
L 215.609255 102.9432 
L 218.59129 102.59232 
L 221.676767 102.40656 
L 224.664504 102.02472 
L 227.672408 101.68416 
L 230.700304 101.3436 
L 233.785817 101.6532 
L 236.856265 101.6532 
L 239.85164 101.63256 
L 242.809987 101.95248 
L 245.943156 102.08664 
L 248.977282 101.9112 
L 251.928484 102.066 
L 255.014947 102.18984 
L 258.062588 102.31368 
L 261.033254 102.45816 
L 264.075018 102.08664 
L 267.123609 102.21048 
L 270.165091 102.4272 
L 273.191051 102.4272 
L 276.277761 102.34464 
L 279.36 102.25176 
" clip-path="url(#pc9fd9cb99e)" style="fill: none; stroke: #bebebe; stroke-width: 0.5; stroke-linecap: round"/>
   </g>
   <g id="line2d_6">
    <path d="M 8.64 84.49104 
L 11.693308 84.86256 
L 14.742357 85.32696 
L 17.747058 85.17216 
L 20.835351 85.31664 
L 23.909109 84.11952 
L 26.956468 85.66752 
L 29.989151 85.26504 
L 33.035243 86.26608 
L 36.109458 85.77072 
L 39.072838 85.38888 
L 42.175562 85.3992 
L 45.215495 84.09888 
L 48.189505 84.22272 
L 51.284064 84.34656 
L 54.325862 85.06896 
L 57.316238 85.7604 
L 60.36835 85.0896 
L 63.470616 85.01736 
L 66.535609 84.9348 
L 69.534362 85.296 
L 72.589817 85.35792 
L 75.627427 86.1732 
L 78.68341 85.92552 
L 81.685577 86.55504 
L 84.77197 87.13296 
L 87.842489 88.10304 
L 90.861691 87.9276 
L 93.913556 88.26816 
L 96.971862 87.78312 
L 99.98955 87.95856 
L 102.988761 88.94928 
L 106.077899 88.14432 
L 109.158907 88.33008 
L 112.153823 88.52616 
L 115.226032 88.86672 
L 118.257306 90.22896 
L 121.300548 89.82648 
L 124.297682 89.87808 
L 127.400758 89.46528 
L 130.486728 90.0432 
L 133.4978 89.96064 
L 136.573 91.99368 
L 139.603571 93.05664 
L 142.594475 93.74808 
L 145.588723 97.02984 
L 148.695072 95.93592 
L 151.749506 95.07936 
L 154.732456 94.46016 
L 157.804981 95.47152 
L 160.863815 95.11032 
L 163.916736 94.82136 
L 166.935481 94.8936 
L 169.998538 94.70784 
L 173.140612 94.04736 
L 176.198953 93.40752 
L 179.143081 92.9844 
L 182.169498 93.93384 
L 185.282112 94.4292 
L 188.201497 94.19184 
L 191.30577 93.87192 
L 194.435771 93.81 
L 197.294969 94.03704 
L 200.346834 94.83168 
L 203.387014 95.48184 
L 206.443595 96.63768 
L 209.44731 96.14232 
L 212.546268 96.30744 
L 215.609255 96.29712 
L 218.59129 96.04944 
L 221.676767 95.9256 
L 224.664504 95.39928 
L 227.672408 94.31568 
L 230.700304 93.57264 
L 233.785817 93.32496 
L 236.856265 93.22176 
L 239.85164 93.35592 
L 242.809987 93.61392 
L 245.943156 93.77904 
L 248.977282 93.26304 
L 251.928484 92.92248 
L 255.014947 92.71608 
L 258.062588 93.15984 
L 261.033254 93.17016 
L 264.075018 91.80792 
L 267.123609 91.14744 
L 270.165091 92.13816 
L 273.191051 92.25168 
L 276.277761 91.9008 
L 279.36 91.81824 
" clip-path="url(#pc9fd9cb99e)" style="fill: none; stroke: #4a8dff; stroke-width: 0.6"/>
   </g>
   <g id="line2d_7">
    <path d="M 8.64 96.32808 
L 11.693308 96.20424 
L 14.742357 96.16296 
L 17.747058 96.1836 
L 20.835351 96.50352 
L 23.909109 94.76976 
L 26.956468 97.19496 
L 29.989151 96.9576 
L 33.035243 97.9896 
L 36.109458 96.89568 
L 39.072838 95.45088 
L 42.175562 95.67792 
L 45.215495 93.43848 
L 48.189505 92.90184 
L 51.284064 92.25168 
L 54.325862 92.87088 
L 57.316238 94.2744 
L 60.36835 93.1392 
L 63.470616 92.97408 
L 66.535609 92.9844 
L 69.534362 92.60256 
L 72.589817 92.53032 
L 75.627427 94.54272 
L 78.68341 92.85024 
L 81.685577 94.82136 
L 84.77197 95.75016 
L 87.842489 96.97824 
L 90.861691 97.08144 
L 93.913556 97.23624 
L 96.971862 95.94624 
L 99.98955 96.30744 
L 102.988761 98.08248 
L 106.077899 97.2672 
L 109.158907 96.61704 
L 112.153823 97.23624 
L 115.226032 98.08248 
L 118.257306 99.18672 
L 121.300548 99.03192 
L 124.297682 99.1248 
L 127.400758 98.74296 
L 130.486728 99.09384 
L 133.4978 100.0536 
L 136.573 101.23008 
L 139.603571 101.99376 
L 142.594475 102.08664 
L 145.588723 102.8916 
L 148.695072 102.45816 
L 151.749506 102.28272 
L 154.732456 102.10728 
L 157.804981 102.582 
L 160.863815 102.29304 
L 163.916736 102.08664 
L 166.935481 102.066 
L 169.998538 101.86992 
L 173.140612 101.48808 
L 176.198953 101.40552 
L 179.143081 101.4984 
L 182.169498 101.97312 
L 185.282112 102.26208 
L 188.201497 102.066 
L 191.30577 101.90088 
L 194.435771 101.90088 
L 197.294969 102.0144 
L 200.346834 102.25176 
L 203.387014 102.6336 
L 206.443595 102.88128 
L 209.44731 102.77808 
L 212.546268 102.85032 
L 215.609255 102.93288 
L 218.59129 102.95352 
L 221.676767 103.00512 
L 224.664504 102.69552 
L 227.672408 102.55104 
L 230.700304 102.2724 
L 233.785817 102.21048 
L 236.856265 102.12792 
L 239.85164 102.13824 
L 242.809987 102.25176 
L 245.943156 102.36528 
L 248.977282 101.94216 
L 251.928484 101.92152 
L 255.014947 101.9112 
L 258.062588 102.2208 
L 261.033254 102.31368 
L 264.075018 101.79768 
L 267.123609 101.81832 
L 270.165091 102.07632 
L 273.191051 101.97312 
L 276.277761 101.79768 
L 279.36 101.78736 
" clip-path="url(#pc9fd9cb99e)" style="fill: none; stroke: #f5841e; stroke-width: 0.6"/>
   </g>
  </g>
 </g>
 <defs>
  <clipPath id="pc9fd9cb99e">
   <rect x="8.64" y="4.8" width="270.72" height="103.2"/>
  </clipPath>
 </defs>
</svg>
