<?xml version="1.0" encoding="utf-8" standalone="no"?>
<!DOCTYPE svg PUBLIC "-//W3C//DTD SVG 1.1//EN"
  "http://www.w3.org/Graphics/SVG/1.1/DTD/svg11.dtd">
<svg xmlns:xlink="http://www.w3.org/1999/xlink" width="288pt" height="120pt" viewBox="0 0 288 120" xmlns="http://www.w3.org/2000/svg" version="1.1">
<desc id="nav-meta">{"window":"3m","count":4,"labels":["18.01","17.02","19.03","18.04"],"tick_utc":["2026-01-18T12:00:00Z","2026-02-17T00:31:58Z","2026-03-19T03:32:50Z","2026-04-18T03:39:51Z"],"w":720,"h":300}</desc>

 <metadata>
  <rdf:RDF xmlns:dc="http://purl.org/dc/elements/1.1/" xmlns:cc="http://creativecommons.org/ns#" xmlns:rdf="http://www.w3.org/1999/02/22-rdf-syntax-ns#">
   <cc:Work>
    <dc:type rdf:resource="http://purl.org/dc/dcmitype/StillImage"/>
    <dc:date>2026-04-18T03:39:54.320480</dc:date>
    <dc:format>image/svg+xml</dc:format>
    <dc:creator>
     <cc:Agent>
      <dc:title>Matplotlib v3.10.8, https://matplotlib.org/</dc:title>
     </cc:Agent>
    </dc:creator>
   </cc:Work>
  </rdf:RDF>
 </metadata>
 <defs>
  <style type="text/css">*{stroke-linejoin: round; stroke-linecap: butt}</style>
 </defs>
 <g id="figure_1">
  <g id="patch_1">
   <path d="M 0 120 
L 288 120 
L 288 0 
L 0 0 
L 0 120 
z
" style="fill: none; opacity: 0"/>
  </g>
  <g id="axes_1">
   <g id="patch_2">
    <path d="M 8.64 108 
L 279.36 108 
L 279.36 4.8 
L 8.64 4.8 
L 8.64 108 
z
" style="fill: none"/>
   </g>
   <g id="matplotlib.axis_1"/>
   <g id="matplotlib.axis_2"/>
   <g id="line2d_1">
    <path d="M 8.64 87.36 
L 279.36 87.36 
" clip-path="url(#p5a232d48d4)" style="fill: none; stroke: #b2b2b2; stroke-opacity: 0.35; stroke-width: 0.5; stroke-linecap: square"/>
   </g>
   <g id="line2d_2">
    <path d="M 8.64 66.72 
L 279.36 66.72 
" clip-path="url(#p5a232d48d4)" style="fill: none; stroke: #b2b2b2; stroke-opacity: 0.35; stroke-width: 0.5; stroke-linecap: square"/>
   </g>
   <g id="line2d_3">
    <path d="M 8.64 46.08 
L 279.36 46.08 
" clip-path="url(#p5a232d48d4)" style="fill: none; stroke: #b2b2b2; stroke-opacity: 0.35; stroke-width: 0.5; stroke-linecap: square"/>
   </g>
   <g id="line2d_4">
    <path d="M 8.64 25.44 
L 279.36 25.44 
" clip-path="url(#p5a232d48d4)" style="fill: none; stroke: #b2b2b2; stroke-opacity: 0.35; stroke-width: 0.5; stroke-linecap: square"/>
   </g>
   <g id="line2d_5">
    <path d="M 8.64 87.23616 
L 11.659653 88.63968 
L 14.679307 90.0432 
L 17.69896 92.12784 
L 20.718614 91.16808 
L 23.738267 91.46736 
L 26.75792 91.73568 
L 29.777574 91.78728 
L 32.797227 94.0164 
L 35.816881 92.5716 
L 38.836534 91.76664 
L 41.856187 92.33424 
L 44.875841 94.36728 
L 47.895494 94.46016 
L 50.915147 97.71096 
L 53.934801 98.48496 
L 56.954454 97.85544 
L 59.50372 99.10416 
L 61.903401 100.16712 
L 64.921516 102.23112 
L 67.928238 100.54896 
L 71.016917 100.70376 
L 74.011651 100.68312 
L 77.048535 100.95144 
L 80.061932 101.28168 
L 83.070717 101.71512 
L 86.089461 101.84928 
L 89.072802 101.034 
L 91.93312 100.54896 
L 95.146464 101.04432 
L 97.786809 100.81728 
L 101.180983 101.034 
L 104.196967 101.4984 
L 107.19897 101.33328 
L 110.20017 101.1372 
L 113.254319 101.06496 
L 116.283059 102.09696 
L 119.047615 102.05568 
L 122.311497 101.4984 
L 125.317695 100.60056 
L 128.331616 100.80696 
L 131.315691 101.45712 
L 134.40395 100.55928 
L 137.392429 101.10624 
L 140.419107 100.8792 
L 143.421845 100.74504 
L 146.447999 100.21872 
L 149.466219 100.53864 
L 152.462701 101.07528 
L 155.511677 101.38488 
L 158.540383 101.26104 
L 161.540639 100.78632 
L 164.559104 100.91016 
L 167.59064 100.99272 
L 170.604457 100.38384 
L 173.620091 100.50768 
L 176.697516 100.60056 
L 179.725698 99.76464 
L 182.692507 99.49632 
L 185.735192 99.40344 
L 188.755684 100.09488 
L 191.745945 100.3632 
L 194.747914 100.19808 
L 197.812722 100.47672 
L 200.839471 100.79664 
L 203.831164 100.26 
L 207.075719 99.83688 
L 209.907203 100.13616 
L 212.930666 100.80696 
L 215.921451 101.38488 
L 218.98224 101.3436 
L 222.010526 101.292 
L 225.011132 101.28168 
L 228.056683 101.28168 
L 231.036564 101.8596 
L 234.059677 101.88024 
L 237.053468 101.72544 
L 240.118591 101.68416 
L 243.146038 101.47776 
L 246.146084 101.78736 
L 249.170631 101.09592 
L 252.179764 101.46744 
L 255.227203 101.3436 
L 258.200688 101.05464 
L 261.274513 101.3952 
L 264.309649 101.47776 
L 267.31008 100.86888 
L 270.327427 101.26104 
L 273.360151 100.99272 
L 276.373654 100.61088 
L 279.36 100.44576 
" clip-path="url(#p5a232d48d4)" style="fill: none; stroke: #bebebe; stroke-width: 0.5; stroke-linecap: round"/>
   </g>
   <g id="line2d_6">
    <path d="M 8.64 70.51776 
L 11.659653 70.848 
L 14.679307 72.31344 
L 17.69896 76.01832 
L 20.718614 75.41976 
L 23.738267 75.83256 
L 26.75792 75.79128 
L 29.777574 75.82224 
L 32.797227 77.82432 
L 35.816881 76.14216 
L 38.836534 74.75928 
L 41.856187 74.96568 
L 44.875841 77.75208 
L 47.895494 79.48584 
L 50.915147 83.31456 
L 53.934801 85.90488 
L 56.954454 84.79032 
L 59.50372 85.84296 
L 61.903401 88.25784 
L 64.921516 91.41576 
L 67.928238 88.7532 
L 71.016917 88.65 
L 74.011651 88.55712 
L 77.048535 88.96992 
L 80.061932 89.7336 
L 83.070717 90.456 
L 86.089461 90.56952 
L 89.072802 89.15568 
L 91.93312 88.9596 
L 95.146464 90.6624 
L 97.786809 89.94 
L 101.180983 90.00192 
L 104.196967 90.3528 
L 107.19897 90.62112 
L 110.20017 90.5076 
L 113.254319 90.3528 
L 116.283059 92.004 
L 119.047615 92.13816 
L 122.311497 91.25064 
L 125.317695 89.166 
L 128.331616 89.56848 
L 131.315691 90.93072 
L 134.40395 89.41368 
L 137.392429 90.37344 
L 140.419107 89.79552 
L 143.421845 90.23928 
L 146.447999 88.0824 
L 149.466219 88.7532 
L 152.462701 90.16704 
L 155.511677 90.67272 
L 158.540383 90.18768 
L 161.540639 89.2692 
L 164.559104 89.54784 
L 167.59064 89.49624 
L 170.604457 88.31976 
L 173.620091 88.45392 
L 176.697516 88.46424 
L 179.725698 86.38992 
L 182.692507 84.80064 
L 185.735192 84.8316 
L 188.755684 86.586 
L 191.745945 87.74184 
L 194.747914 87.618 
L 197.812722 88.19592 
L 200.839471 89.08344 
L 203.831164 87.89664 
L 207.075719 87.3084 
L 209.907203 87.65928 
L 212.930666 88.96992 
L 215.921451 90.07416 
L 218.98224 89.76456 
L 222.010526 89.3724 
L 225.011132 89.00088 
L 228.056683 88.42296 
L 231.036564 88.81512 
L 234.059677 89.10408 
L 237.053468 89.14536 
L 240.118591 89.07312 
L 243.146038 87.9792 
L 246.146084 88.29912 
L 249.170631 86.38992 
L 252.179764 87.24648 
L 255.227203 87.1536 
L 258.200688 86.21448 
L 261.274513 86.66856 
L 264.309649 87.01944 
L 267.31008 84.44976 
L 270.327427 85.05864 
L 273.360151 84.58392 
L 276.373654 85.04832 
L 279.36 83.71704 
" clip-path="url(#p5a232d48d4)" style="fill: none; stroke: #4a8dff; stroke-width: 0.6"/>
   </g>
   <g id="line2d_7">
    <path d="M 8.64 78.1752 
L 11.659653 79.5684 
L 14.679307 80.8068 
L 17.69896 85.20312 
L 20.718614 84.12984 
L 23.738267 84.03696 
L 26.75792 84.06792 
L 29.777574 84.3156 
L 32.797227 87.02976 
L 35.816881 85.21344 
L 38.836534 84.28464 
L 41.856187 84.32592 
L 44.875841 89.08344 
L 47.895494 89.5272 
L 50.915147 95.14128 
L 53.934801 96.98856 
L 56.954454 95.08968 
L 59.50372 97.71096 
L 61.903401 99.80592 
L 64.921516 101.79768 
L 67.928238 100.03296 
L 71.016917 100.518 
L 74.011651 99.98136 
L 77.048535 100.49736 
L 80.061932 100.78632 
L 83.070717 101.07528 
L 86.089461 101.26104 
L 89.072802 100.63152 
L 91.93312 100.38384 
L 95.146464 100.84824 
L 97.786809 100.65216 
L 101.180983 101.034 
L 104.196967 101.19912 
L 107.19897 101.10624 
L 110.20017 100.97208 
L 113.254319 100.91016 
L 116.283059 101.7564 
L 119.047615 101.84928 
L 122.311497 101.56032 
L 125.317695 100.85856 
L 128.331616 101.12688 
L 131.315691 101.4468 
L 134.40395 101.02368 
L 137.392429 101.30232 
L 140.419107 100.81728 
L 143.421845 100.79664 
L 146.447999 99.3312 
L 149.466219 99.92976 
L 152.462701 100.78632 
L 155.511677 101.17848 
L 158.540383 101.1372 
L 161.540639 100.21872 
L 164.559104 100.37352 
L 167.59064 100.4664 
L 170.604457 99.88848 
L 173.620091 99.94008 
L 176.697516 99.81624 
L 179.725698 98.93904 
L 182.692507 98.3508 
L 185.735192 98.52624 
L 188.755684 99.78528 
L 191.745945 100.12584 
L 194.747914 100.03296 
L 197.812722 100.45608 
L 200.839471 100.83792 
L 203.831164 100.11552 
L 207.075719 99.87816 
L 209.907203 100.002 
L 212.930666 100.64184 
L 215.921451 101.41584 
L 218.98224 101.21976 
L 222.010526 101.14752 
L 225.011132 101.00304 
L 228.056683 100.86888 
L 231.036564 101.21976 
L 234.059677 101.28168 
L 237.053468 101.20944 
L 240.118591 101.14752 
L 243.146038 100.55928 
L 246.146084 100.65216 
L 249.170631 99.80592 
L 252.179764 99.96072 
L 255.227203 99.6408 
L 258.200688 99.1764 
L 261.274513 99.70272 
L 264.309649 99.94008 
L 267.31008 98.57784 
L 270.327427 98.65008 
L 273.360151 98.38176 
L 276.373654 98.48496 
L 279.36 96.70992 
" clip-path="url(#p5a232d48d4)" style="fill: none; stroke: #f5841e; stroke-width: 0.6"/>
   </g>
  </g>
 </g>
 <defs>
  <clipPath id="p5a232d48d4">
   <rect x="8.64" y="4.8" width="270.72" height="103.2"/>
  </clipPath>
 </defs>
</svg>
