<?xml version="1.0" encoding="utf-8" standalone="no"?>
<!DOCTYPE svg PUBLIC "-//W3C//DTD SVG 1.1//EN"
  "http://www.w3.org/Graphics/SVG/1.1/DTD/svg11.dtd">
<svg xmlns:xlink="http://www.w3.org/1999/xlink" width="288pt" height="120pt" viewBox="0 0 288 120" xmlns="http://www.w3.org/2000/svg" version="1.1">
<desc id="nav-meta">{"window":"3m","count":4,"labels":["08.04","08.05","06.06","06.07"],"tick_utc":["2026-04-08T03:43:16Z","2026-05-08T04:01:19Z","2026-06-06T04:41:00Z","2026-07-06T04:58:56Z"],"w":720,"h":300}</desc>

 <metadata>
  <rdf:RDF xmlns:dc="http://purl.org/dc/elements/1.1/" xmlns:cc="http://creativecommons.org/ns#" xmlns:rdf="http://www.w3.org/1999/02/22-rdf-syntax-ns#">
   <cc:Work>
    <dc:type rdf:resource="http://purl.org/dc/dcmitype/StillImage"/>
    <dc:date>2026-07-06T04:58:58.512281</dc:date>
    <dc:format>image/svg+xml</dc:format>
    <dc:creator>
     <cc:Agent>
      <dc:title>Matplotlib v3.11.0, https://matplotlib.org/</dc:title>
     </cc:Agent>
    </dc:creator>
   </cc:Work>
  </rdf:RDF>
 </metadata>
 <defs>
  <style type="text/css">*{stroke-linejoin: round; stroke-linecap: butt}</style>
 </defs>
 <g id="figure_1">
  <g id="patch_1">
   <path d="M 0 120 
L 288 120 
L 288 0 
L 0 0 
L 0 120 
z
" style="fill: none; opacity: 0"/>
  </g>
  <g id="axes_1">
   <g id="patch_2">
    <path d="M 8.64 108 
L 279.36 108 
L 279.36 4.8 
L 8.64 4.8 
L 8.64 108 
z
" style="fill: none"/>
   </g>
   <g id="matplotlib.axis_1"/>
   <g id="matplotlib.axis_2"/>
   <g id="line2d_1">
    <path d="M 8.64 87.36 
L 279.36 87.36 
" clip-path="url(#p2a93d6823d)" style="fill: none; stroke: #b2b2b2; stroke-opacity: 0.35; stroke-width: 0.5; stroke-linecap: square"/>
   </g>
   <g id="line2d_2">
    <path d="M 8.64 66.72 
L 279.36 66.72 
" clip-path="url(#p2a93d6823d)" style="fill: none; stroke: #b2b2b2; stroke-opacity: 0.35; stroke-width: 0.5; stroke-linecap: square"/>
   </g>
   <g id="line2d_3">
    <path d="M 8.64 46.08 
L 279.36 46.08 
" clip-path="url(#p2a93d6823d)" style="fill: none; stroke: #b2b2b2; stroke-opacity: 0.35; stroke-width: 0.5; stroke-linecap: square"/>
   </g>
   <g id="line2d_4">
    <path d="M 8.64 25.44 
L 279.36 25.44 
" clip-path="url(#p2a93d6823d)" style="fill: none; stroke: #b2b2b2; stroke-opacity: 0.35; stroke-width: 0.5; stroke-linecap: square"/>
   </g>
   <g id="line2d_5">
    <path d="M 8.64 101.09592 
L 11.669412 101.46744 
L 14.737387 101.3436 
L 17.730911 101.05464 
L 20.825451 101.3952 
L 23.881041 101.47776 
L 26.901692 100.86888 
L 29.939372 101.26104 
L 32.992534 100.99272 
L 36.026345 100.61088 
L 39.032816 100.44576 
L 42.112965 100.94112 
L 45.160498 101.09592 
L 48.187166 101.00304 
L 51.217739 100.69344 
L 54.270057 100.9308 
L 57.318117 100.92048 
L 60.321844 100.81728 
L 63.409136 100.8792 
L 66.481896 100.64184 
L 69.528268 101.1888 
L 72.559967 101.09592 
L 75.605072 101.37456 
L 78.678289 101.21976 
L 81.640709 101.20944 
L 84.742427 101.23008 
L 87.781374 100.92048 
L 90.754419 101.06496 
L 93.847974 100.70376 
L 96.888786 100.55928 
L 99.878193 100.53864 
L 102.929314 99.60984 
L 106.030575 99.72336 
L 109.094574 99.44472 
L 112.092355 99.25896 
L 115.146819 99.32088 
L 118.183444 100.22904 
L 121.238436 100.01232 
L 124.239629 100.43544 
L 127.325021 100.75536 
L 130.394544 101.02368 
L 133.412768 101.02368 
L 136.463643 101.17848 
L 139.520957 100.7244 
L 142.537667 100.75536 
L 145.535905 101.11656 
L 148.624041 100.91016 
L 151.70405 100.89984 
L 154.697995 101.1372 
L 157.769208 101.2404 
L 160.799499 101.6532 
L 163.841754 101.4984 
L 166.837916 101.48808 
L 169.939986 101.32296 
L 173.024956 101.51904 
L 176.035051 101.7048 
L 179.109254 102.54072 
L 182.138842 103.08768 
L 185.128776 103.36632 
L 188.122053 104.22288 
L 191.227395 103.85136 
L 194.280839 103.68624 
L 197.262821 103.43856 
L 200.33435 103.81008 
L 203.392192 103.72752 
L 206.444123 103.50048 
L 209.461889 103.5108 
L 212.523953 103.31472 
L 215.665008 102.95352 
L 218.722357 102.61296 
L 221.66553 102.6336 
L 224.690966 102.9948 
L 227.802571 103.28376 
L 230.721009 103.01544 
L 233.824275 102.69552 
L 236.953261 102.582 
L 239.811532 102.88128 
L 242.862408 103.15992 
L 245.901601 103.36632 
L 248.957191 103.36632 
L 251.959933 102.81936 
L 255.057886 103.0464 
L 258.11988 102.9432 
L 261.100947 102.59232 
L 264.185424 102.40656 
L 267.172192 102.02472 
L 270.179121 101.68416 
L 273.206035 101.3436 
L 276.290547 101.6532 
L 279.36 101.6532 
" clip-path="url(#p2a93d6823d)" style="fill: none; stroke: #bebebe; stroke-width: 0.5; stroke-linecap: round"/>
   </g>
   <g id="line2d_6">
    <path d="M 8.64 86.38992 
L 11.669412 87.24648 
L 14.737387 87.1536 
L 17.730911 86.21448 
L 20.825451 86.66856 
L 23.881041 87.01944 
L 26.901692 84.44976 
L 29.939372 85.05864 
L 32.992534 84.58392 
L 36.026345 85.04832 
L 39.032816 83.71704 
L 42.112965 84.86256 
L 45.160498 85.6572 
L 48.187166 85.27536 
L 51.217739 84.49104 
L 54.270057 84.86256 
L 57.318117 85.32696 
L 60.321844 85.17216 
L 63.409136 85.31664 
L 66.481896 84.11952 
L 69.528268 85.66752 
L 72.559967 85.26504 
L 75.605072 86.26608 
L 78.678289 85.77072 
L 81.640709 85.38888 
L 84.742427 85.3992 
L 87.781374 84.09888 
L 90.754419 84.22272 
L 93.847974 84.34656 
L 96.888786 85.06896 
L 99.878193 85.7604 
L 102.929314 85.0896 
L 106.030575 85.01736 
L 109.094574 84.9348 
L 112.092355 85.296 
L 115.146819 85.35792 
L 118.183444 86.1732 
L 121.238436 85.92552 
L 124.239629 86.55504 
L 127.325021 87.13296 
L 130.394544 88.10304 
L 133.412768 87.9276 
L 136.463643 88.26816 
L 139.520957 87.78312 
L 142.537667 87.95856 
L 145.535905 88.94928 
L 148.624041 88.14432 
L 151.70405 88.33008 
L 154.697995 88.52616 
L 157.769208 88.86672 
L 160.799499 90.22896 
L 163.841754 89.82648 
L 166.837916 89.87808 
L 169.939986 89.46528 
L 173.024956 90.0432 
L 176.035051 89.96064 
L 179.109254 91.99368 
L 182.138842 93.05664 
L 185.128776 93.74808 
L 188.122053 97.02984 
L 191.227395 95.93592 
L 194.280839 95.07936 
L 197.262821 94.46016 
L 200.33435 95.47152 
L 203.392192 95.11032 
L 206.444123 94.82136 
L 209.461889 94.8936 
L 212.523953 94.70784 
L 215.665008 94.04736 
L 218.722357 93.40752 
L 221.66553 92.9844 
L 224.690966 93.93384 
L 227.802571 94.4292 
L 230.721009 94.19184 
L 233.824275 93.87192 
L 236.953261 93.81 
L 239.811532 94.03704 
L 242.862408 94.83168 
L 245.901601 95.48184 
L 248.957191 96.63768 
L 251.959933 96.14232 
L 255.057886 96.30744 
L 258.11988 96.29712 
L 261.100947 96.04944 
L 264.185424 95.9256 
L 267.172192 95.39928 
L 270.179121 94.31568 
L 273.206035 93.57264 
L 276.290547 93.32496 
L 279.36 93.22176 
" clip-path="url(#p2a93d6823d)" style="fill: none; stroke: #4a8dff; stroke-width: 0.6"/>
   </g>
   <g id="line2d_7">
    <path d="M 8.64 99.80592 
L 11.669412 99.96072 
L 14.737387 99.6408 
L 17.730911 99.1764 
L 20.825451 99.70272 
L 23.881041 99.94008 
L 26.901692 98.57784 
L 29.939372 98.65008 
L 32.992534 98.38176 
L 36.026345 98.48496 
L 39.032816 96.70992 
L 42.112965 98.05152 
L 45.160498 98.48496 
L 48.187166 97.96896 
L 51.217739 96.32808 
L 54.270057 96.20424 
L 57.318117 96.16296 
L 60.321844 96.1836 
L 63.409136 96.50352 
L 66.481896 94.76976 
L 69.528268 97.19496 
L 72.559967 96.9576 
L 75.605072 97.9896 
L 78.678289 96.89568 
L 81.640709 95.45088 
L 84.742427 95.67792 
L 87.781374 93.43848 
L 90.754419 92.90184 
L 93.847974 92.25168 
L 96.888786 92.87088 
L 99.878193 94.2744 
L 102.929314 93.1392 
L 106.030575 92.97408 
L 109.094574 92.9844 
L 112.092355 92.60256 
L 115.146819 92.53032 
L 118.183444 94.54272 
L 121.238436 92.85024 
L 124.239629 94.82136 
L 127.325021 95.75016 
L 130.394544 96.97824 
L 133.412768 97.08144 
L 136.463643 97.23624 
L 139.520957 95.94624 
L 142.537667 96.30744 
L 145.535905 98.08248 
L 148.624041 97.2672 
L 151.70405 96.61704 
L 154.697995 97.23624 
L 157.769208 98.08248 
L 160.799499 99.18672 
L 163.841754 99.03192 
L 166.837916 99.1248 
L 169.939986 98.74296 
L 173.024956 99.09384 
L 176.035051 100.0536 
L 179.109254 101.23008 
L 182.138842 101.99376 
L 185.128776 102.08664 
L 188.122053 102.8916 
L 191.227395 102.45816 
L 194.280839 102.28272 
L 197.262821 102.10728 
L 200.33435 102.582 
L 203.392192 102.29304 
L 206.444123 102.08664 
L 209.461889 102.066 
L 212.523953 101.86992 
L 215.665008 101.48808 
L 218.722357 101.40552 
L 221.66553 101.4984 
L 224.690966 101.97312 
L 227.802571 102.26208 
L 230.721009 102.066 
L 233.824275 101.90088 
L 236.953261 101.90088 
L 239.811532 102.0144 
L 242.862408 102.25176 
L 245.901601 102.6336 
L 248.957191 102.88128 
L 251.959933 102.77808 
L 255.057886 102.85032 
L 258.11988 102.93288 
L 261.100947 102.95352 
L 264.185424 103.00512 
L 267.172192 102.69552 
L 270.179121 102.55104 
L 273.206035 102.2724 
L 276.290547 102.21048 
L 279.36 102.12792 
" clip-path="url(#p2a93d6823d)" style="fill: none; stroke: #f5841e; stroke-width: 0.6"/>
   </g>
  </g>
 </g>
 <defs>
  <clipPath id="p2a93d6823d">
   <rect x="8.64" y="4.8" width="270.72" height="103.2"/>
  </clipPath>
 </defs>
</svg>
