<?xml version="1.0" encoding="utf-8" standalone="no"?>
<!DOCTYPE svg PUBLIC "-//W3C//DTD SVG 1.1//EN"
  "http://www.w3.org/Graphics/SVG/1.1/DTD/svg11.dtd">
<svg xmlns:xlink="http://www.w3.org/1999/xlink" width="288pt" height="120pt" viewBox="0 0 288 120" xmlns="http://www.w3.org/2000/svg" version="1.1">
<desc id="nav-meta">{"window":"1y","count":4,"labels":["11.04","11.08","10.12","11.04"],"tick_utc":["2025-04-11T12:00:00Z","2025-08-11T12:00:00Z","2025-12-10T12:00:00Z","2026-04-11T03:29:29Z"],"w":720,"h":300}</desc>

 <metadata>
  <rdf:RDF xmlns:dc="http://purl.org/dc/elements/1.1/" xmlns:cc="http://creativecommons.org/ns#" xmlns:rdf="http://www.w3.org/1999/02/22-rdf-syntax-ns#">
   <cc:Work>
    <dc:type rdf:resource="http://purl.org/dc/dcmitype/StillImage"/>
    <dc:date>2026-04-11T07:37:28.526002</dc:date>
    <dc:format>image/svg+xml</dc:format>
    <dc:creator>
     <cc:Agent>
      <dc:title>Matplotlib v3.10.8, https://matplotlib.org/</dc:title>
     </cc:Agent>
    </dc:creator>
   </cc:Work>
  </rdf:RDF>
 </metadata>
 <defs>
  <style type="text/css">*{stroke-linejoin: round; stroke-linecap: butt}</style>
 </defs>
 <g id="figure_1">
  <g id="patch_1">
   <path d="M 0 120 
L 288 120 
L 288 0 
L 0 0 
L 0 120 
z
" style="fill: none; opacity: 0"/>
  </g>
  <g id="axes_1">
   <g id="patch_2">
    <path d="M 8.64 108 
L 279.36 108 
L 279.36 4.8 
L 8.64 4.8 
L 8.64 108 
z
" style="fill: none"/>
   </g>
   <g id="matplotlib.axis_1"/>
   <g id="matplotlib.axis_2"/>
   <g id="line2d_1">
    <path d="M 8.64 87.36 
L 279.36 87.36 
" clip-path="url(#p1350197a62)" style="fill: none; stroke: #b2b2b2; stroke-opacity: 0.35; stroke-width: 0.5; stroke-linecap: square"/>
   </g>
   <g id="line2d_2">
    <path d="M 8.64 66.72 
L 279.36 66.72 
" clip-path="url(#p1350197a62)" style="fill: none; stroke: #b2b2b2; stroke-opacity: 0.35; stroke-width: 0.5; stroke-linecap: square"/>
   </g>
   <g id="line2d_3">
    <path d="M 8.64 46.08 
L 279.36 46.08 
" clip-path="url(#p1350197a62)" style="fill: none; stroke: #b2b2b2; stroke-opacity: 0.35; stroke-width: 0.5; stroke-linecap: square"/>
   </g>
   <g id="line2d_4">
    <path d="M 8.64 25.44 
L 279.36 25.44 
" clip-path="url(#p1350197a62)" style="fill: none; stroke: #b2b2b2; stroke-opacity: 0.35; stroke-width: 0.5; stroke-linecap: square"/>
   </g>
   <g id="line2d_5">
    <path d="M 8.64 95.65728 
L 9.38242 93.33528 
L 10.124839 90.39408 
L 10.867259 91.46736 
L 11.609679 91.14744 
L 12.352099 91.99368 
L 13.094518 90.57984 
L 13.836938 89.72328 
L 14.579358 89.89872 
L 15.321778 88.35072 
L 16.064197 88.89768 
L 16.806617 89.25888 
L 17.549037 85.84296 
L 18.291457 85.2444 
L 19.033876 84.8832 
L 21.261136 85.99776 
L 22.003555 86.07 
L 22.745975 86.4828 
L 23.488395 86.14224 
L 24.230815 85.31664 
L 24.973234 86.07 
L 25.715654 86.38992 
L 26.458074 87.16392 
L 27.200494 86.38992 
L 28.685333 86.28672 
L 29.427753 81.84912 
L 30.170173 79.32072 
L 30.912592 78.05136 
L 31.655012 79.26912 
L 32.397432 78.846 
L 33.139852 76.2144 
L 34.624691 80.394 
L 35.367111 80.66232 
L 36.109531 81.168 
L 36.85195 79.63032 
L 37.59437 80.95128 
L 38.33679 80.4972 
L 39.821629 77.43216 
L 40.564049 78.846 
L 41.306469 78.41256 
L 42.048888 78.64992 
L 42.791308 78.76344 
L 43.533728 78.25776 
L 44.276148 79.47552 
L 45.018567 80.92032 
L 45.760987 83.73768 
L 46.503407 83.6448 
L 47.245827 83.4384 
L 47.988246 83.61384 
L 48.730666 83.99568 
L 49.473086 84.55296 
L 50.215506 87.00912 
L 50.957925 85.98744 
L 51.700345 85.5024 
L 52.442765 84.8316 
L 53.185185 82.46832 
L 53.927604 81.426 
L 54.670024 82.5096 
L 55.412444 84.79032 
L 56.897283 86.95752 
L 57.639703 84.79032 
L 58.382123 85.13088 
L 59.124543 86.07 
L 59.866962 86.5344 
L 60.609382 86.31768 
L 62.094222 89.97096 
L 62.836641 90.48696 
L 63.579061 86.9472 
L 64.321481 86.66856 
L 65.063901 87.32904 
L 65.80632 88.53648 
L 66.54874 87.6696 
L 67.29116 85.30632 
L 68.03358 84.61488 
L 68.775999 84.17112 
L 69.518419 86.3796 
L 70.260839 84.92448 
L 71.003259 84.89352 
L 71.745678 86.13192 
L 72.488098 86.1732 
L 73.230518 84.99672 
L 73.972938 85.85328 
L 74.715357 85.01736 
L 75.457777 83.55192 
L 76.200197 81.7356 
L 76.942616 82.03488 
L 77.685036 82.65408 
L 79.169876 82.15872 
L 79.912295 81.70464 
L 80.654715 79.01112 
L 81.397135 78.39192 
L 82.139555 78.04104 
L 82.881974 78.16488 
L 83.624394 77.05032 
L 84.366814 72.82944 
L 85.109234 70.41456 
L 85.851653 74.69736 
L 86.594073 76.6272 
L 87.336493 75.63648 
L 88.078913 75.97704 
L 88.821332 74.976 
L 89.563752 76.49304 
L 90.306172 76.99872 
L 91.048592 77.90688 
L 91.791011 79.4652 
L 92.533431 82.02456 
L 93.275851 83.19072 
L 94.018271 82.27224 
L 94.76069 80.21856 
L 95.50311 81.67368 
L 96.24553 80.5488 
L 96.98795 78.588 
L 97.730369 78.19584 
L 98.472789 77.21544 
L 99.215209 76.524 
L 99.957629 78.68088 
L 100.700048 73.88208 
L 101.442468 71.364 
L 102.184888 73.8408 
L 102.927308 75.79128 
L 103.669727 74.65608 
L 104.412147 74.14008 
L 105.154567 76.50336 
L 105.896987 78.30936 
L 106.639406 75.3372 
L 107.381826 77.25672 
L 108.124246 71.78712 
L 108.866665 70.75512 
L 109.609085 70.24944 
L 110.351505 75.35784 
L 111.093925 72.95328 
L 111.836344 70.96152 
L 112.578764 67.87584 
L 113.321184 70.46616 
L 114.063604 71.11632 
L 114.806023 71.61168 
L 115.548443 72.7056 
L 116.290863 69.33096 
L 117.033283 68.9388 
L 117.775702 71.12664 
L 118.518122 70.90992 
L 119.260542 71.80776 
L 120.002962 70.074 
L 120.745381 68.01 
L 121.487801 67.10184 
L 122.230221 65.29584 
L 122.972641 64.01616 
L 123.71506 60.31128 
L 124.45748 60.19776 
L 125.1999 60.786 
L 125.94232 62.61264 
L 126.684739 61.74576 
L 127.427159 59.57856 
L 128.169579 58.86648 
L 128.911999 61.38456 
L 129.654418 61.07496 
L 130.396838 61.83864 
L 131.139258 66.29688 
L 131.881678 67.97904 
L 132.624097 68.69112 
L 133.366517 73.9956 
L 134.108937 70.45584 
L 134.851357 70.87896 
L 135.593776 68.91816 
L 136.336196 68.3196 
L 137.078616 69.47544 
L 138.563455 62.39592 
L 139.305875 62.81904 
L 140.048295 64.22256 
L 140.790715 64.05744 
L 141.533134 62.9532 
L 142.275554 66.14208 
L 143.017974 63.91296 
L 143.760393 66.17304 
L 144.502813 74.6148 
L 145.245233 77.78304 
L 145.987653 72.66432 
L 146.730072 69.69216 
L 147.472492 71.09568 
L 148.957332 76.06992 
L 149.699751 76.76136 
L 150.442171 75.25464 
L 151.184591 75.24432 
L 151.927011 74.63544 
L 152.66943 75.73968 
L 153.41185 77.31864 
L 154.15427 74.202 
L 154.89669 73.64472 
L 155.639109 73.48992 
L 156.381529 71.83872 
L 157.123949 72.17928 
L 157.866369 73.38672 
L 158.608788 73.43832 
L 159.351208 76.15248 
L 160.093628 75.3372 
L 160.836048 75.58488 
L 161.578467 75.35784 
L 162.320887 81.168 
L 163.063307 84.01632 
L 163.805727 82.06584 
L 164.548146 84.19176 
L 165.290566 82.27224 
L 166.032986 83.29392 
L 166.775406 81.62208 
L 167.517825 80.72424 
L 168.260245 84.33624 
L 169.002665 84.64584 
L 169.745085 86.844 
L 170.487504 88.52616 
L 171.229924 88.36104 
L 171.972344 88.93896 
L 172.714764 90.79656 
L 173.457183 88.09272 
L 174.199603 89.22792 
L 174.942023 90.00192 
L 175.684442 91.39512 
L 176.426862 91.63248 
L 177.169282 90.75528 
L 177.911702 88.7016 
L 178.654121 88.52616 
L 179.396541 87.45288 
L 180.138961 88.0308 
L 180.881381 88.94928 
L 182.36622 89.7336 
L 183.10864 91.86984 
L 183.85106 88.60872 
L 184.593479 86.87496 
L 186.078319 90.11544 
L 187.563158 90.53856 
L 188.305578 90.08448 
L 189.047998 88.79448 
L 189.790418 89.20728 
L 190.532837 89.22792 
L 191.275257 90.31152 
L 192.017677 90.10512 
L 192.760097 91.09584 
L 193.502516 91.61184 
L 194.244936 91.31256 
L 194.987356 92.87088 
L 195.729776 93.8616 
L 196.472195 92.02464 
L 197.214615 92.13816 
L 197.957035 92.07624 
L 198.699455 92.14848 
L 200.926714 93.69648 
L 202.411553 92.44776 
L 203.153973 92.30328 
L 203.896393 92.87088 
L 204.638813 92.38584 
L 205.381232 92.47872 
L 206.123652 91.88016 
L 206.866072 90.42504 
L 207.608491 90.08448 
L 208.350911 89.92968 
L 209.093331 88.76352 
L 209.835751 87.94824 
L 210.57817 89.2692 
L 211.32059 88.72224 
L 212.06301 89.39304 
L 212.80543 89.40336 
L 213.547849 88.41264 
L 214.290269 88.4952 
L 215.032689 86.86464 
L 215.775109 86.42088 
L 216.517528 87.62832 
L 217.259948 86.93688 
L 218.002368 87.23616 
L 219.487207 90.0432 
L 220.229627 92.12784 
L 220.972047 91.16808 
L 222.456886 91.73568 
L 223.199306 91.78728 
L 223.941726 94.0164 
L 224.684146 92.5716 
L 225.426565 91.76664 
L 226.168985 92.33424 
L 226.911405 94.36728 
L 227.653825 94.46016 
L 228.396244 97.71096 
L 229.138664 98.48496 
L 229.881084 97.85544 
L 231.097844 100.16712 
L 231.839886 102.23112 
L 232.579127 100.54896 
L 233.338517 100.70376 
L 234.07481 100.68312 
L 235.562348 101.28168 
L 236.302095 101.71512 
L 237.044292 101.84928 
L 237.777783 101.034 
L 238.481028 100.54896 
L 239.27107 101.04432 
L 239.920231 100.81728 
L 240.754732 101.034 
L 241.496249 101.4984 
L 243.723113 101.06496 
L 244.467767 102.09696 
L 245.147468 102.05568 
L 245.949934 101.4984 
L 246.689046 100.60056 
L 247.430056 100.80696 
L 248.163729 101.45712 
L 248.923016 100.55928 
L 249.657771 101.10624 
L 251.140179 100.74504 
L 251.884197 100.21872 
L 252.626264 100.53864 
L 253.362987 101.07528 
L 254.112616 101.38488 
L 254.857261 101.26104 
L 255.594912 100.78632 
L 257.082381 100.99272 
L 257.823366 100.38384 
L 259.321421 100.60056 
L 260.065937 99.76464 
L 260.795365 99.49632 
L 261.543447 99.40344 
L 262.286073 100.09488 
L 263.021266 100.3632 
L 263.759338 100.19808 
L 265.257024 100.79664 
L 265.992569 100.26 
L 266.790284 99.83688 
L 267.48644 100.13616 
L 268.965118 101.38488 
L 271.948718 101.28168 
L 272.681359 101.8596 
L 273.424629 101.88024 
L 274.16069 101.72544 
L 274.914289 101.68416 
L 275.658625 101.47776 
L 276.396224 101.78736 
L 277.139847 101.09592 
L 277.87968 101.46744 
L 278.628931 101.3436 
L 279.36 101.05464 
L 279.36 101.05464 
" clip-path="url(#p1350197a62)" style="fill: none; stroke: #bebebe; stroke-width: 0.5; stroke-linecap: round"/>
   </g>
   <g id="line2d_6">
    <path d="M 8.64 96.96792 
L 9.38242 96.31776 
L 10.124839 95.16192 
L 10.867259 95.90496 
L 11.609679 95.52312 
L 12.352099 96.01848 
L 13.094518 96.17328 
L 14.579358 95.99784 
L 15.321778 95.616 
L 16.064197 96.05976 
L 16.806617 96.17328 
L 17.549037 93.46944 
L 18.291457 92.96376 
L 19.033876 93.32496 
L 19.776296 93.036 
L 20.518716 92.56128 
L 21.261136 92.96376 
L 22.003555 92.8812 
L 23.488395 92.96376 
L 24.230815 92.29296 
L 24.973234 92.262 
L 25.715654 92.3652 
L 26.458074 92.74704 
L 27.200494 92.5716 
L 28.685333 92.71608 
L 29.427753 86.97816 
L 30.170173 84.84192 
L 30.912592 81.24024 
L 31.655012 82.37544 
L 32.397432 82.60248 
L 33.139852 79.86768 
L 34.624691 81.85944 
L 35.367111 81.82848 
L 36.109531 82.86048 
L 36.85195 83.00496 
L 37.59437 82.08648 
L 38.33679 82.12776 
L 39.07921 81.61176 
L 39.821629 80.15664 
L 40.564049 82.18968 
L 42.048888 81.79752 
L 42.791308 81.56016 
L 43.533728 80.0844 
L 44.276148 79.86768 
L 45.018567 80.50752 
L 45.760987 82.12776 
L 47.245827 81.92136 
L 47.988246 80.8584 
L 48.730666 81.07512 
L 49.473086 80.84808 
L 50.215506 83.6448 
L 50.957925 82.7676 
L 51.700345 82.0968 
L 52.442765 82.3548 
L 53.185185 79.74384 
L 53.927604 77.90688 
L 54.670024 78.39192 
L 55.412444 80.21856 
L 56.154864 81.34344 
L 56.897283 81.98328 
L 58.382123 81.5808 
L 59.124543 82.26192 
L 60.609382 82.15872 
L 61.351802 83.88216 
L 62.094222 85.89456 
L 62.836641 86.5344 
L 63.579061 83.61384 
L 64.321481 83.2836 
L 65.063901 83.71704 
L 65.80632 83.748 
L 67.29116 83.41776 
L 68.03358 82.44768 
L 68.775999 82.6644 
L 69.518419 83.89248 
L 70.260839 81.38472 
L 71.003259 81.14736 
L 71.745678 82.34448 
L 72.488098 82.23096 
L 73.230518 81.426 
L 73.972938 81.8388 
L 74.715357 80.76552 
L 76.200197 75.83256 
L 76.942616 75.67776 
L 77.685036 75.91512 
L 79.169876 74.88312 
L 79.912295 73.09776 
L 80.654715 69.6096 
L 81.397135 67.91712 
L 82.139555 66.94704 
L 82.881974 66.24528 
L 83.624394 63.80976 
L 84.366814 63.70656 
L 85.109234 63.9852 
L 85.851653 65.71896 
L 86.594073 64.5528 
L 88.078913 64.05744 
L 88.821332 62.25144 
L 89.563752 63.39696 
L 90.306172 63.366 
L 91.048592 63.08736 
L 91.791011 64.72824 
L 92.533431 67.89648 
L 93.275851 69.16584 
L 94.018271 67.69008 
L 94.76069 64.4496 
L 95.50311 65.97696 
L 96.24553 64.914 
L 96.98795 61.54968 
L 97.730369 60.04296 
L 98.472789 56.28648 
L 99.215209 56.47224 
L 99.957629 56.83344 
L 100.700048 51.22968 
L 101.442468 48.89736 
L 102.184888 52.00368 
L 102.927308 53.84064 
L 103.669727 53.90256 
L 104.412147 53.00472 
L 105.154567 55.5228 
L 105.896987 59.12448 
L 106.639406 55.32672 
L 107.381826 56.90568 
L 108.124246 47.92728 
L 108.866665 48.75288 
L 109.609085 48.68064 
L 110.351505 54.57336 
L 111.093925 51.2916 
L 111.836344 52.80864 
L 112.578764 52.69512 
L 113.321184 54.82104 
L 114.806023 54.45984 
L 115.548443 55.7292 
L 116.290863 55.39896 
L 117.033283 53.55168 
L 117.775702 55.81176 
L 118.518122 55.6776 
L 119.260542 56.18328 
L 120.002962 55.71888 
L 121.487801 55.63632 
L 122.230221 55.07904 
L 122.972641 53.41752 
L 123.71506 49.71264 
L 124.45748 50.32152 
L 125.1999 51.17808 
L 125.94232 52.44744 
L 126.684739 52.74672 
L 127.427159 51.4464 
L 128.169579 51.46704 
L 128.911999 53.2524 
L 129.654418 53.08728 
L 130.396838 53.5104 
L 131.139258 57.26688 
L 131.881678 57.76224 
L 132.624097 58.02024 
L 133.366517 62.26176 
L 134.108937 59.68176 
L 134.851357 59.9604 
L 135.593776 58.12344 
L 136.336196 57.02952 
L 137.078616 58.09248 
L 137.821036 55.13064 
L 138.563455 53.046 
L 139.305875 52.5816 
L 140.048295 52.9944 
L 140.790715 52.5816 
L 141.533134 50.0016 
L 142.275554 53.48976 
L 143.017974 52.40616 
L 143.760393 54.75912 
L 144.502813 62.67456 
L 145.245233 63.95424 
L 145.987653 57.86544 
L 146.730072 56.57544 
L 147.472492 58.31952 
L 148.214912 60.4764 
L 148.957332 61.85928 
L 149.699751 62.73648 
L 150.442171 61.8696 
L 151.184591 60.45576 
L 151.927011 60.54864 
L 152.66943 62.04504 
L 153.41185 63.16992 
L 154.15427 62.36496 
L 154.89669 61.21944 
L 155.639109 60.9408 
L 156.381529 57.83448 
L 157.123949 58.40208 
L 157.866369 60.49704 
L 159.351208 63.1596 
L 160.093628 62.49912 
L 160.836048 62.1276 
L 161.578467 61.56 
L 163.063307 70.66224 
L 163.805727 68.72208 
L 164.548146 70.4868 
L 165.290566 68.61888 
L 166.032986 69.11424 
L 166.775406 66.5136 
L 167.517825 66.68904 
L 168.260245 68.8872 
L 169.002665 68.9904 
L 169.745085 71.5704 
L 170.487504 73.48992 
L 171.229924 72.54048 
L 172.714764 74.74896 
L 173.457183 73.3248 
L 174.199603 74.80056 
L 174.942023 77.556 
L 175.684442 78.55704 
L 176.426862 78.50544 
L 177.169282 78.04104 
L 177.911702 75.76032 
L 178.654121 75.73968 
L 179.396541 74.65608 
L 180.138961 74.83152 
L 180.881381 74.57352 
L 181.6238 75.20304 
L 182.36622 75.17208 
L 183.10864 78.05136 
L 184.593479 72.16896 
L 185.335899 73.08744 
L 186.078319 74.72832 
L 187.563158 74.28456 
L 188.305578 73.21128 
L 189.047998 70.2804 
L 189.790418 70.2288 
L 190.532837 71.56008 
L 191.275257 73.79952 
L 192.017677 73.35576 
L 192.760097 74.0988 
L 193.502516 75.5952 
L 194.244936 75.5952 
L 194.987356 77.61792 
L 195.729776 77.63856 
L 196.472195 75.40944 
L 197.214615 75.40944 
L 197.957035 75.04824 
L 198.699455 74.98632 
L 199.441874 75.58488 
L 200.184294 75.87384 
L 200.926714 76.49304 
L 202.411553 75.82224 
L 203.153973 75.84288 
L 203.896393 76.03896 
L 204.638813 75.51264 
L 205.381232 75.56424 
L 206.123652 75.05856 
L 206.866072 73.26288 
L 207.608491 73.20096 
L 208.350911 73.00488 
L 209.093331 71.68392 
L 209.835751 70.6932 
L 210.57817 72.62304 
L 211.32059 73.52088 
L 212.06301 73.83048 
L 212.80543 73.8408 
L 213.547849 73.29384 
L 214.290269 73.72728 
L 215.032689 70.32168 
L 215.775109 69.77472 
L 216.517528 70.34232 
L 217.259948 70.67256 
L 218.002368 70.51776 
L 218.744788 70.848 
L 219.487207 72.31344 
L 220.229627 76.01832 
L 220.972047 75.41976 
L 221.714467 75.83256 
L 223.199306 75.82224 
L 223.941726 77.82432 
L 224.684146 76.14216 
L 225.426565 74.75928 
L 226.168985 74.96568 
L 226.911405 77.75208 
L 227.653825 79.48584 
L 228.396244 83.31456 
L 229.138664 85.90488 
L 229.881084 84.79032 
L 230.507853 85.84296 
L 231.839886 91.41576 
L 232.579127 88.7532 
L 234.07481 88.55712 
L 234.821466 88.96992 
L 236.302095 90.456 
L 237.044292 90.56952 
L 237.777783 89.15568 
L 238.481028 88.9596 
L 239.27107 90.6624 
L 239.920231 89.94 
L 240.754732 90.00192 
L 242.23433 90.62112 
L 243.723113 90.3528 
L 244.467767 92.004 
L 245.147468 92.13816 
L 245.949934 91.25064 
L 246.689046 89.166 
L 247.430056 89.56848 
L 248.163729 90.93072 
L 248.923016 89.41368 
L 249.657771 90.37344 
L 250.401918 89.79552 
L 251.140179 90.23928 
L 251.884197 88.0824 
L 252.626264 88.7532 
L 253.362987 90.16704 
L 254.112616 90.67272 
L 254.857261 90.18768 
L 255.594912 89.2692 
L 256.33704 89.54784 
L 257.082381 89.49624 
L 257.823366 88.31976 
L 258.564797 88.45392 
L 259.321421 88.46424 
L 260.065937 86.38992 
L 260.795365 84.80064 
L 261.543447 84.8316 
L 262.286073 86.586 
L 263.021266 87.74184 
L 263.759338 87.618 
L 264.51286 88.19592 
L 265.257024 89.08344 
L 265.992569 87.89664 
L 266.790284 87.3084 
L 267.48644 87.65928 
L 268.965118 90.07416 
L 270.462194 89.3724 
L 271.199931 89.00088 
L 271.948718 88.42296 
L 273.424629 89.10408 
L 274.16069 89.14536 
L 274.914289 89.07312 
L 275.658625 87.9792 
L 276.396224 88.29912 
L 277.139847 86.38992 
L 277.87968 87.24648 
L 278.628931 87.1536 
L 279.36 86.21448 
L 279.36 86.21448 
" clip-path="url(#p1350197a62)" style="fill: none; stroke: #4a8dff; stroke-width: 0.6"/>
   </g>
   <g id="line2d_7">
    <path d="M 8.64 94.23312 
L 9.38242 90.25992 
L 10.124839 88.31976 
L 10.867259 90.08448 
L 11.609679 89.13504 
L 12.352099 90.03288 
L 13.094518 89.56848 
L 13.836938 88.71192 
L 14.579358 89.22792 
L 15.321778 88.50552 
L 16.064197 88.55712 
L 16.806617 86.10096 
L 17.549037 79.75416 
L 18.291457 79.7232 
L 19.033876 79.44456 
L 19.776296 78.51576 
L 20.518716 78.64992 
L 21.261136 79.5168 
L 22.003555 78.24744 
L 22.745975 79.0524 
L 23.488395 79.07304 
L 24.230815 76.80264 
L 24.973234 76.35888 
L 25.715654 77.31864 
L 26.458074 78.98016 
L 27.200494 78.52608 
L 27.942913 76.35888 
L 28.685333 76.18344 
L 29.427753 69.90888 
L 30.170173 70.03272 
L 30.912592 68.29896 
L 31.655012 68.95944 
L 32.397432 70.11528 
L 33.139852 68.76336 
L 33.882271 69.37224 
L 34.624691 69.25872 
L 35.367111 69.41352 
L 36.109531 69.77472 
L 36.85195 66.85416 
L 37.59437 67.26696 
L 38.33679 66.06984 
L 39.07921 63.08736 
L 39.821629 61.12656 
L 40.564049 65.62608 
L 41.306469 64.98624 
L 42.048888 63.91296 
L 42.791308 63.38664 
L 43.533728 63.70656 
L 44.276148 64.97592 
L 45.018567 67.14312 
L 45.760987 68.9388 
L 46.503407 68.23704 
L 47.245827 67.1844 
L 47.988246 66.99864 
L 48.730666 67.47336 
L 49.473086 68.1132 
L 50.215506 71.38464 
L 50.957925 68.526 
L 51.700345 67.21536 
L 52.442765 67.20504 
L 53.185185 62.46816 
L 53.927604 62.51976 
L 54.670024 64.10904 
L 55.412444 66.90576 
L 56.154864 66.83352 
L 56.897283 67.42176 
L 57.639703 67.3392 
L 58.382123 65.8944 
L 59.124543 68.24736 
L 60.609382 68.23704 
L 61.351802 69.69216 
L 62.094222 71.50848 
L 62.836641 72.21024 
L 63.579061 67.3908 
L 64.321481 66.90576 
L 65.063901 65.59512 
L 65.80632 65.86344 
L 66.54874 65.76024 
L 67.29116 65.50224 
L 68.03358 64.398 
L 68.775999 65.70864 
L 69.518419 67.2876 
L 70.260839 63.95424 
L 71.003259 63.14928 
L 71.745678 64.76952 
L 72.488098 64.58376 
L 73.230518 63.55176 
L 73.972938 64.5012 
L 74.715357 63.82008 
L 75.457777 61.36392 
L 76.200197 56.64768 
L 76.942616 54.89328 
L 77.685036 55.04808 
L 78.427456 53.29368 
L 79.169876 52.55064 
L 79.912295 54.77976 
L 80.654715 53.67552 
L 81.397135 52.95312 
L 82.139555 54.45984 
L 82.881974 54.55272 
L 83.624394 55.22352 
L 84.366814 54.98616 
L 85.109234 52.4268 
L 85.851653 53.79936 
L 86.594073 54.08832 
L 87.336493 54.92424 
L 88.078913 54.4908 
L 88.821332 52.98408 
L 89.563752 54.44952 
L 90.306172 54.60432 
L 91.048592 54.62496 
L 92.533431 59.38248 
L 93.275851 60.09456 
L 94.018271 58.39176 
L 94.76069 57.41136 
L 95.50311 58.464 
L 96.24553 57.5352 
L 96.98795 55.0068 
L 97.730369 55.81176 
L 98.472789 55.99752 
L 99.215209 53.13888 
L 99.957629 53.64456 
L 100.700048 52.1688 
L 101.442468 48.69096 
L 102.184888 54.0264 
L 102.927308 55.13064 
L 103.669727 54.96552 
L 104.412147 54.92424 
L 105.154567 56.25552 
L 105.896987 59.8572 
L 106.639406 58.32984 
L 107.381826 60.23904 
L 108.124246 55.65696 
L 108.866665 57.18432 
L 109.609085 59.21736 
L 110.351505 62.55072 
L 111.093925 60.82728 
L 111.836344 61.47744 
L 112.578764 60.12552 
L 113.321184 64.31544 
L 114.063604 63.99552 
L 114.806023 64.5528 
L 115.548443 63.60336 
L 116.290863 61.5084 
L 117.033283 60.96144 
L 117.775702 61.98312 
L 118.518122 62.05536 
L 119.260542 62.51976 
L 120.745381 60.64152 
L 121.487801 61.13688 
L 122.230221 58.6188 
L 122.972641 57.03984 
L 123.71506 56.35872 
L 124.45748 56.5548 
L 125.1999 57.174 
L 125.94232 57.14304 
L 126.684739 55.7292 
L 127.427159 56.04912 
L 128.169579 55.33704 
L 128.911999 56.87472 
L 129.654418 56.8128 
L 130.396838 57.24624 
L 131.139258 59.93976 
L 131.881678 60.64152 
L 132.624097 59.29992 
L 133.366517 63.80976 
L 134.108937 63.03576 
L 134.851357 63.09768 
L 136.336196 58.27824 
L 137.078616 58.5672 
L 137.821036 53.93352 
L 138.563455 51.74568 
L 139.305875 50.04288 
L 140.048295 49.90872 
L 141.533134 47.43192 
L 142.275554 50.80656 
L 143.017974 48.90768 
L 143.760393 50.6208 
L 144.502813 59.42376 
L 145.245233 61.85928 
L 145.987653 57.35976 
L 146.730072 57.3288 
L 147.472492 59.46504 
L 148.957332 64.72824 
L 149.699751 66.42072 
L 150.442171 65.688 
L 151.184591 64.17096 
L 151.927011 62.10696 
L 152.66943 64.30512 
L 153.41185 65.20296 
L 154.15427 62.68488 
L 154.89669 61.70448 
L 155.639109 61.06464 
L 156.381529 58.1028 
L 157.123949 58.40208 
L 157.866369 59.68176 
L 158.608788 62.6952 
L 159.351208 64.56312 
L 160.093628 63.18024 
L 160.836048 62.72616 
L 161.578467 62.06568 
L 162.320887 66.33816 
L 163.063307 71.40528 
L 163.805727 69.08328 
L 164.548146 71.7252 
L 165.290566 69.57864 
L 166.032986 70.72416 
L 166.775406 68.2164 
L 167.517825 66.978 
L 168.260245 70.03272 
L 169.002665 71.5188 
L 169.745085 73.3764 
L 170.487504 78.846 
L 171.229924 77.75208 
L 171.972344 78.88728 
L 172.714764 81.34344 
L 173.457183 80.53848 
L 174.199603 82.0452 
L 174.942023 86.92656 
L 175.684442 88.58808 
L 176.426862 88.96992 
L 177.169282 86.7924 
L 177.911702 85.296 
L 178.654121 86.24544 
L 179.396541 82.96368 
L 180.138961 82.13808 
L 180.881381 82.47864 
L 181.6238 82.58184 
L 182.36622 83.03592 
L 183.10864 87.3084 
L 183.85106 82.06584 
L 184.593479 79.71288 
L 185.335899 81.24024 
L 186.078319 84.17112 
L 186.820739 84.24336 
L 187.563158 83.29392 
L 188.305578 82.8192 
L 189.047998 80.64168 
L 189.790418 81.38472 
L 190.532837 80.87904 
L 191.275257 83.13912 
L 192.017677 83.19072 
L 193.502516 87.17424 
L 194.244936 85.71912 
L 194.987356 87.53544 
L 195.729776 88.17528 
L 196.472195 85.41984 
L 197.957035 84.9348 
L 198.699455 85.01736 
L 199.441874 86.14224 
L 200.184294 85.90488 
L 200.926714 86.328 
L 201.669134 86.24544 
L 202.411553 85.72944 
L 203.153973 85.7088 
L 203.896393 86.40024 
L 204.638813 85.09992 
L 205.381232 86.02872 
L 206.866072 83.53128 
L 208.350911 82.03488 
L 209.093331 79.39296 
L 209.835751 79.66128 
L 210.57817 82.15872 
L 211.32059 82.43736 
L 212.06301 82.93272 
L 212.80543 83.00496 
L 214.290269 82.28256 
L 215.032689 78.01008 
L 215.775109 76.19376 
L 216.517528 77.66952 
L 217.259948 77.74176 
L 218.002368 78.1752 
L 219.487207 80.8068 
L 220.229627 85.20312 
L 220.972047 84.12984 
L 221.714467 84.03696 
L 222.456886 84.06792 
L 223.199306 84.3156 
L 223.941726 87.02976 
L 224.684146 85.21344 
L 225.426565 84.28464 
L 226.168985 84.32592 
L 226.911405 89.08344 
L 227.653825 89.5272 
L 228.396244 95.14128 
L 229.138664 96.98856 
L 229.881084 95.08968 
L 231.097844 99.80592 
L 231.839886 101.79768 
L 232.579127 100.03296 
L 233.338517 100.518 
L 234.07481 99.98136 
L 234.821466 100.49736 
L 237.044292 101.26104 
L 237.777783 100.63152 
L 238.481028 100.38384 
L 239.27107 100.84824 
L 239.920231 100.65216 
L 240.754732 101.034 
L 241.496249 101.19912 
L 243.723113 100.91016 
L 244.467767 101.7564 
L 245.147468 101.84928 
L 245.949934 101.56032 
L 246.689046 100.85856 
L 248.163729 101.4468 
L 248.923016 101.02368 
L 249.657771 101.30232 
L 250.401918 100.81728 
L 251.140179 100.79664 
L 251.884197 99.3312 
L 252.626264 99.92976 
L 253.362987 100.78632 
L 254.112616 101.17848 
L 254.857261 101.1372 
L 255.594912 100.21872 
L 257.082381 100.4664 
L 257.823366 99.88848 
L 258.564797 99.94008 
L 259.321421 99.81624 
L 260.065937 98.93904 
L 260.795365 98.3508 
L 261.543447 98.52624 
L 262.286073 99.78528 
L 263.021266 100.12584 
L 263.759338 100.03296 
L 265.257024 100.83792 
L 265.992569 100.11552 
L 266.790284 99.87816 
L 267.48644 100.002 
L 268.965118 101.41584 
L 269.717652 101.21976 
L 271.199931 101.00304 
L 271.948718 100.86888 
L 272.681359 101.21976 
L 273.424629 101.28168 
L 274.914289 101.14752 
L 275.658625 100.55928 
L 276.396224 100.65216 
L 277.139847 99.80592 
L 277.87968 99.96072 
L 278.628931 99.6408 
L 279.36 99.1764 
L 279.36 99.1764 
" clip-path="url(#p1350197a62)" style="fill: none; stroke: #f5841e; stroke-width: 0.6"/>
   </g>
  </g>
 </g>
 <defs>
  <clipPath id="p1350197a62">
   <rect x="8.64" y="4.8" width="270.72" height="103.2"/>
  </clipPath>
 </defs>
</svg>
