<?xml version="1.0" encoding="utf-8" standalone="no"?>
<!DOCTYPE svg PUBLIC "-//W3C//DTD SVG 1.1//EN"
  "http://www.w3.org/Graphics/SVG/1.1/DTD/svg11.dtd">
<svg xmlns:xlink="http://www.w3.org/1999/xlink" width="288pt" height="120pt" viewBox="0 0 288 120" xmlns="http://www.w3.org/2000/svg" version="1.1">
<desc id="nav-meta">{"window":"1y","count":4,"labels":["01.06","30.09","29.01","31.05"],"tick_utc":["2025-06-01T12:00:00Z","2025-09-30T12:00:00Z","2026-01-29T12:00:00Z","2026-05-31T05:08:27Z"],"w":720,"h":300}</desc>

 <metadata>
  <rdf:RDF xmlns:dc="http://purl.org/dc/elements/1.1/" xmlns:cc="http://creativecommons.org/ns#" xmlns:rdf="http://www.w3.org/1999/02/22-rdf-syntax-ns#">
   <cc:Work>
    <dc:type rdf:resource="http://purl.org/dc/dcmitype/StillImage"/>
    <dc:date>2026-05-31T19:52:24.450498</dc:date>
    <dc:format>image/svg+xml</dc:format>
    <dc:creator>
     <cc:Agent>
      <dc:title>Matplotlib v3.10.9, https://matplotlib.org/</dc:title>
     </cc:Agent>
    </dc:creator>
   </cc:Work>
  </rdf:RDF>
 </metadata>
 <defs>
  <style type="text/css">*{stroke-linejoin: round; stroke-linecap: butt}</style>
 </defs>
 <g id="figure_1">
  <g id="patch_1">
   <path d="M 0 120 
L 288 120 
L 288 0 
L 0 0 
L 0 120 
z
" style="fill: none; opacity: 0"/>
  </g>
  <g id="axes_1">
   <g id="patch_2">
    <path d="M 8.64 108 
L 279.36 108 
L 279.36 4.8 
L 8.64 4.8 
L 8.64 108 
z
" style="fill: none"/>
   </g>
   <g id="matplotlib.axis_1"/>
   <g id="matplotlib.axis_2"/>
   <g id="line2d_1">
    <path d="M 8.64 87.36 
L 279.36 87.36 
" clip-path="url(#pa2387184ef)" style="fill: none; stroke: #b2b2b2; stroke-opacity: 0.35; stroke-width: 0.5; stroke-linecap: square"/>
   </g>
   <g id="line2d_2">
    <path d="M 8.64 66.72 
L 279.36 66.72 
" clip-path="url(#pa2387184ef)" style="fill: none; stroke: #b2b2b2; stroke-opacity: 0.35; stroke-width: 0.5; stroke-linecap: square"/>
   </g>
   <g id="line2d_3">
    <path d="M 8.64 46.08 
L 279.36 46.08 
" clip-path="url(#pa2387184ef)" style="fill: none; stroke: #b2b2b2; stroke-opacity: 0.35; stroke-width: 0.5; stroke-linecap: square"/>
   </g>
   <g id="line2d_4">
    <path d="M 8.64 25.44 
L 279.36 25.44 
" clip-path="url(#pa2387184ef)" style="fill: none; stroke: #b2b2b2; stroke-opacity: 0.35; stroke-width: 0.5; stroke-linecap: square"/>
   </g>
   <g id="line2d_5">
    <path d="M 8.64 83.6448 
L 9.384321 83.4384 
L 10.128641 83.61384 
L 10.872962 83.99568 
L 11.617283 84.55296 
L 12.361603 87.00912 
L 13.105924 85.98744 
L 13.850245 85.5024 
L 14.594565 84.8316 
L 15.338886 82.46832 
L 16.083207 81.426 
L 16.827527 82.5096 
L 17.571848 84.79032 
L 19.060489 86.95752 
L 19.80481 84.79032 
L 20.549131 85.13088 
L 21.293451 86.07 
L 22.037772 86.5344 
L 22.782093 86.31768 
L 24.270734 89.97096 
L 25.015055 90.48696 
L 25.759376 86.9472 
L 26.503696 86.66856 
L 27.248017 87.32904 
L 27.992338 88.53648 
L 28.736658 87.6696 
L 29.480979 85.30632 
L 30.2253 84.61488 
L 30.96962 84.17112 
L 31.713941 86.3796 
L 32.458262 84.92448 
L 33.202582 84.89352 
L 33.946903 86.13192 
L 34.691224 86.1732 
L 35.435544 84.99672 
L 36.179865 85.85328 
L 36.924186 85.01736 
L 37.668506 83.55192 
L 38.412827 81.7356 
L 39.157148 82.03488 
L 39.901468 82.65408 
L 41.39011 82.15872 
L 42.13443 81.70464 
L 42.878751 79.01112 
L 43.623072 78.39192 
L 44.367392 78.04104 
L 45.111713 78.16488 
L 45.856034 77.05032 
L 46.600354 72.82944 
L 47.344675 70.41456 
L 48.088996 74.69736 
L 48.833316 76.6272 
L 49.577637 75.63648 
L 50.321958 75.97704 
L 51.066278 74.976 
L 51.810599 76.49304 
L 52.55492 76.99872 
L 53.299241 77.90688 
L 54.043561 79.4652 
L 54.787882 82.02456 
L 55.532203 83.19072 
L 56.276523 82.27224 
L 57.020844 80.21856 
L 57.765165 81.67368 
L 58.509485 80.5488 
L 59.253806 78.588 
L 59.998127 78.19584 
L 60.742447 77.21544 
L 61.486768 76.524 
L 62.231089 78.68088 
L 62.975409 73.88208 
L 63.71973 71.364 
L 64.464051 73.8408 
L 65.208371 75.79128 
L 65.952692 74.65608 
L 66.697013 74.14008 
L 67.441333 76.50336 
L 68.185654 78.30936 
L 68.929975 75.3372 
L 69.674295 77.25672 
L 70.418616 71.78712 
L 71.162937 70.75512 
L 71.907257 70.24944 
L 72.651578 75.35784 
L 73.395899 72.95328 
L 74.140219 70.96152 
L 74.88454 67.87584 
L 75.628861 70.46616 
L 76.373181 71.11632 
L 77.117502 71.61168 
L 77.861823 72.7056 
L 78.606143 69.33096 
L 79.350464 68.9388 
L 80.094785 71.12664 
L 80.839106 70.90992 
L 81.583426 71.80776 
L 82.327747 70.074 
L 83.072068 68.01 
L 83.816388 67.10184 
L 84.560709 65.29584 
L 85.30503 64.01616 
L 86.04935 60.31128 
L 86.793671 60.19776 
L 87.537992 60.786 
L 88.282312 62.61264 
L 89.026633 61.74576 
L 89.770954 59.57856 
L 90.515274 58.86648 
L 91.259595 61.38456 
L 92.003916 61.07496 
L 92.748236 61.83864 
L 93.492557 66.29688 
L 94.236878 67.97904 
L 94.981198 68.69112 
L 95.725519 73.9956 
L 96.46984 70.45584 
L 97.21416 70.87896 
L 97.958481 68.91816 
L 98.702802 68.3196 
L 99.447122 69.47544 
L 100.935764 62.39592 
L 101.680084 62.81904 
L 102.424405 64.22256 
L 103.168726 64.05744 
L 103.913046 62.9532 
L 104.657367 66.14208 
L 105.401688 63.91296 
L 106.146008 66.17304 
L 106.890329 74.6148 
L 107.63465 77.78304 
L 108.37897 72.66432 
L 109.123291 69.69216 
L 109.867612 71.09568 
L 111.356253 76.06992 
L 112.100574 76.76136 
L 112.844895 75.25464 
L 113.589215 75.24432 
L 114.333536 74.63544 
L 115.077857 75.73968 
L 115.822177 77.31864 
L 116.566498 74.202 
L 117.310819 73.64472 
L 118.055139 73.48992 
L 118.79946 71.83872 
L 119.543781 72.17928 
L 120.288101 73.38672 
L 121.032422 73.43832 
L 121.776743 76.15248 
L 122.521063 75.3372 
L 123.265384 75.58488 
L 124.009705 75.35784 
L 124.754025 81.168 
L 125.498346 84.01632 
L 126.242667 82.06584 
L 126.986987 84.19176 
L 127.731308 82.27224 
L 128.475629 83.29392 
L 129.219949 81.62208 
L 129.96427 80.72424 
L 130.708591 84.33624 
L 131.452911 84.64584 
L 132.197232 86.844 
L 132.941553 88.52616 
L 133.685873 88.36104 
L 134.430194 88.93896 
L 135.174515 90.79656 
L 135.918835 88.09272 
L 136.663156 89.22792 
L 137.407477 90.00192 
L 138.151798 91.39512 
L 138.896118 91.63248 
L 139.640439 90.75528 
L 140.38476 88.7016 
L 141.12908 88.52616 
L 141.873401 87.45288 
L 142.617722 88.0308 
L 143.362042 88.94928 
L 144.850684 89.7336 
L 145.595004 91.86984 
L 146.339325 88.60872 
L 147.083646 86.87496 
L 148.572287 90.11544 
L 150.060928 90.53856 
L 150.805249 90.08448 
L 151.54957 88.79448 
L 152.29389 89.20728 
L 153.038211 89.22792 
L 153.782532 90.31152 
L 154.526852 90.10512 
L 155.271173 91.09584 
L 156.015494 91.61184 
L 156.759814 91.31256 
L 157.504135 92.87088 
L 158.248456 93.8616 
L 158.992776 92.02464 
L 159.737097 92.13816 
L 160.481418 92.07624 
L 161.225738 92.14848 
L 163.4587 93.69648 
L 164.947342 92.44776 
L 165.691662 92.30328 
L 166.435983 92.87088 
L 167.180304 92.38584 
L 167.924625 92.47872 
L 168.668945 91.88016 
L 169.413266 90.42504 
L 170.157587 90.08448 
L 170.901907 89.92968 
L 171.646228 88.76352 
L 172.390549 87.94824 
L 173.134869 89.2692 
L 173.87919 88.72224 
L 174.623511 89.39304 
L 175.367831 89.40336 
L 176.112152 88.41264 
L 176.856473 88.4952 
L 177.600793 86.86464 
L 178.345114 86.42088 
L 179.089435 87.62832 
L 179.833755 86.93688 
L 180.578076 87.23616 
L 182.066717 90.0432 
L 182.811038 92.12784 
L 183.555359 91.16808 
L 185.044 91.73568 
L 185.788321 91.78728 
L 186.532641 94.0164 
L 187.276962 92.5716 
L 188.021283 91.76664 
L 188.765603 92.33424 
L 189.509924 94.36728 
L 190.254245 94.46016 
L 190.998565 97.71096 
L 191.742886 98.48496 
L 192.487207 97.85544 
L 193.707083 100.16712 
L 194.451025 102.23112 
L 195.192158 100.54896 
L 195.953493 100.70376 
L 196.691671 100.68312 
L 198.183017 101.28168 
L 198.924659 101.71512 
L 199.668756 101.84928 
L 200.404125 101.034 
L 201.109171 100.54896 
L 201.901235 101.04432 
L 202.552059 100.81728 
L 203.388696 101.034 
L 204.132112 101.4984 
L 206.364678 101.06496 
L 207.111239 102.09696 
L 207.79268 102.05568 
L 208.597201 101.4984 
L 209.338205 100.60056 
L 210.081113 100.80696 
L 210.816663 101.45712 
L 211.577895 100.55928 
L 212.314531 101.10624 
L 213.800735 100.74504 
L 214.546658 100.21872 
L 215.290625 100.53864 
L 216.029234 101.07528 
L 216.780783 101.38488 
L 217.527335 101.26104 
L 218.266874 100.78632 
L 219.758151 100.99272 
L 220.501033 100.38384 
L 222.002924 100.60056 
L 222.749347 99.76464 
L 223.480642 99.49632 
L 224.23064 99.40344 
L 224.975167 100.09488 
L 225.712243 100.3632 
L 226.452205 100.19808 
L 227.953725 100.79664 
L 228.691154 100.26 
L 229.490911 99.83688 
L 230.18885 100.13616 
L 231.671314 101.38488 
L 234.662553 101.28168 
L 235.39707 101.8596 
L 236.142243 101.88024 
L 236.880189 101.72544 
L 237.635718 101.68416 
L 238.381959 101.47776 
L 239.121447 101.78736 
L 239.866974 101.09592 
L 240.608701 101.46744 
L 241.359871 101.3436 
L 242.092811 101.05464 
L 242.850485 101.3952 
L 243.598622 101.47776 
L 244.338205 100.86888 
L 245.081957 101.26104 
L 247.308415 100.44576 
L 248.062565 100.94112 
L 248.808729 101.09592 
L 249.549785 101.00304 
L 250.291797 100.69344 
L 251.039132 100.9308 
L 253.276764 100.8792 
L 254.029105 100.64184 
L 254.774985 101.1888 
L 255.517272 101.09592 
L 256.262842 101.37456 
L 257.015295 101.21976 
L 258.500051 101.23008 
L 259.244113 100.92048 
L 259.97204 101.06496 
L 260.729473 100.70376 
L 261.473991 100.55928 
L 262.205924 100.53864 
L 262.952967 99.60984 
L 263.712286 99.72336 
L 265.196465 99.25896 
L 265.944326 99.32088 
L 266.68782 100.22904 
L 267.43581 100.01232 
L 268.926063 100.75536 
L 269.677611 101.02368 
L 270.416599 101.02368 
L 271.163582 101.17848 
L 271.912141 100.7244 
L 272.650759 100.75536 
L 273.384854 101.11656 
L 274.14096 100.91016 
L 274.895075 100.89984 
L 275.628119 101.1372 
L 276.380081 101.2404 
L 277.122024 101.6532 
L 277.866896 101.4984 
L 278.600483 101.48808 
L 279.36 101.32296 
L 279.36 101.32296 
" clip-path="url(#pa2387184ef)" style="fill: none; stroke: #bebebe; stroke-width: 0.5; stroke-linecap: round"/>
   </g>
   <g id="line2d_6">
    <path d="M 8.64 82.00392 
L 9.384321 81.92136 
L 10.128641 80.8584 
L 10.872962 81.07512 
L 11.617283 80.84808 
L 12.361603 83.6448 
L 13.105924 82.7676 
L 13.850245 82.0968 
L 14.594565 82.3548 
L 15.338886 79.74384 
L 16.083207 77.90688 
L 16.827527 78.39192 
L 17.571848 80.21856 
L 18.316169 81.34344 
L 19.060489 81.98328 
L 20.549131 81.5808 
L 21.293451 82.26192 
L 22.782093 82.15872 
L 23.526414 83.88216 
L 24.270734 85.89456 
L 25.015055 86.5344 
L 25.759376 83.61384 
L 26.503696 83.2836 
L 27.248017 83.71704 
L 27.992338 83.748 
L 29.480979 83.41776 
L 30.2253 82.44768 
L 30.96962 82.6644 
L 31.713941 83.89248 
L 32.458262 81.38472 
L 33.202582 81.14736 
L 33.946903 82.34448 
L 34.691224 82.23096 
L 35.435544 81.426 
L 36.179865 81.8388 
L 36.924186 80.76552 
L 38.412827 75.83256 
L 39.157148 75.67776 
L 39.901468 75.91512 
L 41.39011 74.88312 
L 42.13443 73.09776 
L 42.878751 69.6096 
L 43.623072 67.91712 
L 44.367392 66.94704 
L 45.111713 66.24528 
L 45.856034 63.80976 
L 46.600354 63.70656 
L 47.344675 63.9852 
L 48.088996 65.71896 
L 48.833316 64.5528 
L 50.321958 64.05744 
L 51.066278 62.25144 
L 51.810599 63.39696 
L 52.55492 63.366 
L 53.299241 63.08736 
L 54.043561 64.72824 
L 54.787882 67.89648 
L 55.532203 69.16584 
L 56.276523 67.69008 
L 57.020844 64.4496 
L 57.765165 65.97696 
L 58.509485 64.914 
L 59.253806 61.54968 
L 59.998127 60.04296 
L 60.742447 56.28648 
L 61.486768 56.47224 
L 62.231089 56.83344 
L 62.975409 51.22968 
L 63.71973 48.89736 
L 64.464051 52.00368 
L 65.208371 53.84064 
L 65.952692 53.90256 
L 66.697013 53.00472 
L 67.441333 55.5228 
L 68.185654 59.12448 
L 68.929975 55.32672 
L 69.674295 56.90568 
L 70.418616 47.92728 
L 71.162937 48.75288 
L 71.907257 48.68064 
L 72.651578 54.57336 
L 73.395899 51.2916 
L 74.140219 52.80864 
L 74.88454 52.69512 
L 75.628861 54.82104 
L 77.117502 54.45984 
L 77.861823 55.7292 
L 78.606143 55.39896 
L 79.350464 53.55168 
L 80.094785 55.81176 
L 80.839106 55.6776 
L 81.583426 56.18328 
L 82.327747 55.71888 
L 83.816388 55.63632 
L 84.560709 55.07904 
L 85.30503 53.41752 
L 86.04935 49.71264 
L 86.793671 50.32152 
L 87.537992 51.17808 
L 88.282312 52.44744 
L 89.026633 52.74672 
L 89.770954 51.4464 
L 90.515274 51.46704 
L 91.259595 53.2524 
L 92.003916 53.08728 
L 92.748236 53.5104 
L 93.492557 57.26688 
L 94.236878 57.76224 
L 94.981198 58.02024 
L 95.725519 62.26176 
L 96.46984 59.68176 
L 97.21416 59.9604 
L 97.958481 58.12344 
L 98.702802 57.02952 
L 99.447122 58.09248 
L 100.191443 55.13064 
L 100.935764 53.046 
L 101.680084 52.5816 
L 102.424405 52.9944 
L 103.168726 52.5816 
L 103.913046 50.0016 
L 104.657367 53.48976 
L 105.401688 52.40616 
L 106.146008 54.75912 
L 106.890329 62.67456 
L 107.63465 63.95424 
L 108.37897 57.86544 
L 109.123291 56.57544 
L 109.867612 58.31952 
L 110.611933 60.4764 
L 111.356253 61.85928 
L 112.100574 62.73648 
L 112.844895 61.8696 
L 113.589215 60.45576 
L 114.333536 60.54864 
L 115.077857 62.04504 
L 115.822177 63.16992 
L 116.566498 62.36496 
L 117.310819 61.21944 
L 118.055139 60.9408 
L 118.79946 57.83448 
L 119.543781 58.40208 
L 120.288101 60.49704 
L 121.776743 63.1596 
L 122.521063 62.49912 
L 123.265384 62.1276 
L 124.009705 61.56 
L 125.498346 70.66224 
L 126.242667 68.72208 
L 126.986987 70.4868 
L 127.731308 68.61888 
L 128.475629 69.11424 
L 129.219949 66.5136 
L 129.96427 66.68904 
L 130.708591 68.8872 
L 131.452911 68.9904 
L 132.197232 71.5704 
L 132.941553 73.48992 
L 133.685873 72.54048 
L 135.174515 74.74896 
L 135.918835 73.3248 
L 136.663156 74.80056 
L 137.407477 77.556 
L 138.151798 78.55704 
L 138.896118 78.50544 
L 139.640439 78.04104 
L 140.38476 75.76032 
L 141.12908 75.73968 
L 141.873401 74.65608 
L 142.617722 74.83152 
L 143.362042 74.57352 
L 144.106363 75.20304 
L 144.850684 75.17208 
L 145.595004 78.05136 
L 147.083646 72.16896 
L 147.827966 73.08744 
L 148.572287 74.72832 
L 150.060928 74.28456 
L 150.805249 73.21128 
L 151.54957 70.2804 
L 152.29389 70.2288 
L 153.038211 71.56008 
L 153.782532 73.79952 
L 154.526852 73.35576 
L 155.271173 74.0988 
L 156.015494 75.5952 
L 156.759814 75.5952 
L 157.504135 77.61792 
L 158.248456 77.63856 
L 158.992776 75.40944 
L 159.737097 75.40944 
L 160.481418 75.04824 
L 161.225738 74.98632 
L 161.970059 75.58488 
L 162.71438 75.87384 
L 163.4587 76.49304 
L 164.947342 75.82224 
L 165.691662 75.84288 
L 166.435983 76.03896 
L 167.180304 75.51264 
L 167.924625 75.56424 
L 168.668945 75.05856 
L 169.413266 73.26288 
L 170.157587 73.20096 
L 170.901907 73.00488 
L 171.646228 71.68392 
L 172.390549 70.6932 
L 173.134869 72.62304 
L 173.87919 73.52088 
L 174.623511 73.83048 
L 175.367831 73.8408 
L 176.112152 73.29384 
L 176.856473 73.72728 
L 177.600793 70.32168 
L 178.345114 69.77472 
L 179.089435 70.34232 
L 179.833755 70.67256 
L 180.578076 70.51776 
L 181.322397 70.848 
L 182.066717 72.31344 
L 182.811038 76.01832 
L 183.555359 75.41976 
L 184.299679 75.83256 
L 185.788321 75.82224 
L 186.532641 77.82432 
L 187.276962 76.14216 
L 188.021283 74.75928 
L 188.765603 74.96568 
L 189.509924 77.75208 
L 190.254245 79.48584 
L 190.998565 83.31456 
L 191.742886 85.90488 
L 192.487207 84.79032 
L 193.115581 85.84296 
L 194.451025 91.41576 
L 195.192158 88.7532 
L 196.691671 88.55712 
L 197.440239 88.96992 
L 198.924659 90.456 
L 199.668756 90.56952 
L 200.404125 89.15568 
L 201.109171 88.9596 
L 201.901235 90.6624 
L 202.552059 89.94 
L 203.388696 90.00192 
L 204.872083 90.62112 
L 206.364678 90.3528 
L 207.111239 92.004 
L 207.79268 92.13816 
L 208.597201 91.25064 
L 209.338205 89.166 
L 210.081113 89.56848 
L 210.816663 90.93072 
L 211.577895 89.41368 
L 212.314531 90.37344 
L 213.060583 89.79552 
L 213.800735 90.23928 
L 214.546658 88.0824 
L 215.290625 88.7532 
L 216.029234 90.16704 
L 216.780783 90.67272 
L 217.527335 90.18768 
L 218.266874 89.2692 
L 219.010902 89.54784 
L 219.758151 89.49624 
L 220.501033 88.31976 
L 221.244363 88.45392 
L 222.002924 88.46424 
L 222.749347 86.38992 
L 223.480642 84.80064 
L 224.23064 84.8316 
L 224.975167 86.586 
L 225.712243 87.74184 
L 226.452205 87.618 
L 227.207656 88.19592 
L 227.953725 89.08344 
L 228.691154 87.89664 
L 229.490911 87.3084 
L 230.18885 87.65928 
L 231.671314 90.07416 
L 233.172223 89.3724 
L 233.911848 89.00088 
L 234.662553 88.42296 
L 236.142243 89.10408 
L 236.880189 89.14536 
L 237.635718 89.07312 
L 238.381959 87.9792 
L 239.121447 88.29912 
L 239.866974 86.38992 
L 240.608701 87.24648 
L 241.359871 87.1536 
L 242.092811 86.21448 
L 243.598622 87.01944 
L 244.338205 84.44976 
L 245.081957 85.05864 
L 245.829499 84.58392 
L 246.572304 85.04832 
L 247.308415 83.71704 
L 248.062565 84.86256 
L 248.808729 85.6572 
L 249.549785 85.27536 
L 250.291797 84.49104 
L 251.785426 85.32696 
L 252.520865 85.17216 
L 253.276764 85.31664 
L 254.029105 84.11952 
L 254.774985 85.66752 
L 255.517272 85.26504 
L 256.262842 86.26608 
L 257.74062 85.38888 
L 258.500051 85.3992 
L 259.244113 84.09888 
L 260.729473 84.34656 
L 262.205924 85.7604 
L 262.952967 85.0896 
L 264.462482 84.9348 
L 265.196465 85.296 
L 265.944326 85.35792 
L 266.68782 86.1732 
L 267.43581 85.92552 
L 268.926063 87.13296 
L 269.677611 88.10304 
L 270.416599 87.9276 
L 271.163582 88.26816 
L 271.912141 87.78312 
L 272.650759 87.95856 
L 273.384854 88.94928 
L 274.14096 88.14432 
L 275.628119 88.52616 
L 276.380081 88.86672 
L 277.122024 90.22896 
L 277.866896 89.82648 
L 278.600483 89.87808 
L 279.36 89.46528 
L 279.36 89.46528 
" clip-path="url(#pa2387184ef)" style="fill: none; stroke: #4a8dff; stroke-width: 0.6"/>
   </g>
   <g id="line2d_7">
    <path d="M 8.64 68.23704 
L 9.384321 67.1844 
L 10.128641 66.99864 
L 10.872962 67.47336 
L 11.617283 68.1132 
L 12.361603 71.38464 
L 13.105924 68.526 
L 13.850245 67.21536 
L 14.594565 67.20504 
L 15.338886 62.46816 
L 16.083207 62.51976 
L 16.827527 64.10904 
L 17.571848 66.90576 
L 18.316169 66.83352 
L 19.060489 67.42176 
L 19.80481 67.3392 
L 20.549131 65.8944 
L 21.293451 68.24736 
L 22.782093 68.23704 
L 23.526414 69.69216 
L 24.270734 71.50848 
L 25.015055 72.21024 
L 25.759376 67.3908 
L 26.503696 66.90576 
L 27.248017 65.59512 
L 27.992338 65.86344 
L 28.736658 65.76024 
L 29.480979 65.50224 
L 30.2253 64.398 
L 30.96962 65.70864 
L 31.713941 67.2876 
L 32.458262 63.95424 
L 33.202582 63.14928 
L 33.946903 64.76952 
L 34.691224 64.58376 
L 35.435544 63.55176 
L 36.179865 64.5012 
L 36.924186 63.82008 
L 37.668506 61.36392 
L 38.412827 56.64768 
L 39.157148 54.89328 
L 39.901468 55.04808 
L 40.645789 53.29368 
L 41.39011 52.55064 
L 42.13443 54.77976 
L 42.878751 53.67552 
L 43.623072 52.95312 
L 44.367392 54.45984 
L 45.111713 54.55272 
L 45.856034 55.22352 
L 46.600354 54.98616 
L 47.344675 52.4268 
L 48.088996 53.79936 
L 48.833316 54.08832 
L 49.577637 54.92424 
L 50.321958 54.4908 
L 51.066278 52.98408 
L 51.810599 54.44952 
L 52.55492 54.60432 
L 53.299241 54.62496 
L 54.787882 59.38248 
L 55.532203 60.09456 
L 56.276523 58.39176 
L 57.020844 57.41136 
L 57.765165 58.464 
L 58.509485 57.5352 
L 59.253806 55.0068 
L 59.998127 55.81176 
L 60.742447 55.99752 
L 61.486768 53.13888 
L 62.231089 53.64456 
L 62.975409 52.1688 
L 63.71973 48.69096 
L 64.464051 54.0264 
L 65.208371 55.13064 
L 65.952692 54.96552 
L 66.697013 54.92424 
L 67.441333 56.25552 
L 68.185654 59.8572 
L 68.929975 58.32984 
L 69.674295 60.23904 
L 70.418616 55.65696 
L 71.162937 57.18432 
L 71.907257 59.21736 
L 72.651578 62.55072 
L 73.395899 60.82728 
L 74.140219 61.47744 
L 74.88454 60.12552 
L 75.628861 64.31544 
L 76.373181 63.99552 
L 77.117502 64.5528 
L 77.861823 63.60336 
L 78.606143 61.5084 
L 79.350464 60.96144 
L 80.094785 61.98312 
L 80.839106 62.05536 
L 81.583426 62.51976 
L 83.072068 60.64152 
L 83.816388 61.13688 
L 84.560709 58.6188 
L 85.30503 57.03984 
L 86.04935 56.35872 
L 86.793671 56.5548 
L 87.537992 57.174 
L 88.282312 57.14304 
L 89.026633 55.7292 
L 89.770954 56.04912 
L 90.515274 55.33704 
L 91.259595 56.87472 
L 92.003916 56.8128 
L 92.748236 57.24624 
L 93.492557 59.93976 
L 94.236878 60.64152 
L 94.981198 59.29992 
L 95.725519 63.80976 
L 96.46984 63.03576 
L 97.21416 63.09768 
L 98.702802 58.27824 
L 99.447122 58.5672 
L 100.191443 53.93352 
L 100.935764 51.74568 
L 101.680084 50.04288 
L 102.424405 49.90872 
L 103.913046 47.43192 
L 104.657367 50.80656 
L 105.401688 48.90768 
L 106.146008 50.6208 
L 106.890329 59.42376 
L 107.63465 61.85928 
L 108.37897 57.35976 
L 109.123291 57.3288 
L 109.867612 59.46504 
L 111.356253 64.72824 
L 112.100574 66.42072 
L 112.844895 65.688 
L 113.589215 64.17096 
L 114.333536 62.10696 
L 115.077857 64.30512 
L 115.822177 65.20296 
L 116.566498 62.68488 
L 117.310819 61.70448 
L 118.055139 61.06464 
L 118.79946 58.1028 
L 119.543781 58.40208 
L 120.288101 59.68176 
L 121.032422 62.6952 
L 121.776743 64.56312 
L 122.521063 63.18024 
L 123.265384 62.72616 
L 124.009705 62.06568 
L 124.754025 66.33816 
L 125.498346 71.40528 
L 126.242667 69.08328 
L 126.986987 71.7252 
L 127.731308 69.57864 
L 128.475629 70.72416 
L 129.219949 68.2164 
L 129.96427 66.978 
L 130.708591 70.03272 
L 131.452911 71.5188 
L 132.197232 73.3764 
L 132.941553 78.846 
L 133.685873 77.75208 
L 134.430194 78.88728 
L 135.174515 81.34344 
L 135.918835 80.53848 
L 136.663156 82.0452 
L 137.407477 86.92656 
L 138.151798 88.58808 
L 138.896118 88.96992 
L 139.640439 86.7924 
L 140.38476 85.296 
L 141.12908 86.24544 
L 141.873401 82.96368 
L 142.617722 82.13808 
L 143.362042 82.47864 
L 144.106363 82.58184 
L 144.850684 83.03592 
L 145.595004 87.3084 
L 146.339325 82.06584 
L 147.083646 79.71288 
L 147.827966 81.24024 
L 148.572287 84.17112 
L 149.316608 84.24336 
L 150.060928 83.29392 
L 150.805249 82.8192 
L 151.54957 80.64168 
L 152.29389 81.38472 
L 153.038211 80.87904 
L 153.782532 83.13912 
L 154.526852 83.19072 
L 156.015494 87.17424 
L 156.759814 85.71912 
L 157.504135 87.53544 
L 158.248456 88.17528 
L 158.992776 85.41984 
L 160.481418 84.9348 
L 161.225738 85.01736 
L 161.970059 86.14224 
L 162.71438 85.90488 
L 163.4587 86.328 
L 164.203021 86.24544 
L 164.947342 85.72944 
L 165.691662 85.7088 
L 166.435983 86.40024 
L 167.180304 85.09992 
L 167.924625 86.02872 
L 169.413266 83.53128 
L 170.901907 82.03488 
L 171.646228 79.39296 
L 172.390549 79.66128 
L 173.134869 82.15872 
L 173.87919 82.43736 
L 174.623511 82.93272 
L 175.367831 83.00496 
L 176.856473 82.28256 
L 177.600793 78.01008 
L 178.345114 76.19376 
L 179.089435 77.66952 
L 179.833755 77.74176 
L 180.578076 78.1752 
L 182.066717 80.8068 
L 182.811038 85.20312 
L 183.555359 84.12984 
L 184.299679 84.03696 
L 185.044 84.06792 
L 185.788321 84.3156 
L 186.532641 87.02976 
L 187.276962 85.21344 
L 188.021283 84.28464 
L 188.765603 84.32592 
L 189.509924 89.08344 
L 190.254245 89.5272 
L 190.998565 95.14128 
L 191.742886 96.98856 
L 192.487207 95.08968 
L 193.707083 99.80592 
L 194.451025 101.79768 
L 195.192158 100.03296 
L 195.953493 100.518 
L 196.691671 99.98136 
L 197.440239 100.49736 
L 199.668756 101.26104 
L 200.404125 100.63152 
L 201.109171 100.38384 
L 201.901235 100.84824 
L 202.552059 100.65216 
L 203.388696 101.034 
L 204.132112 101.19912 
L 206.364678 100.91016 
L 207.111239 101.7564 
L 207.79268 101.84928 
L 208.597201 101.56032 
L 209.338205 100.85856 
L 210.816663 101.4468 
L 211.577895 101.02368 
L 212.314531 101.30232 
L 213.060583 100.81728 
L 213.800735 100.79664 
L 214.546658 99.3312 
L 215.290625 99.92976 
L 216.029234 100.78632 
L 216.780783 101.17848 
L 217.527335 101.1372 
L 218.266874 100.21872 
L 219.758151 100.4664 
L 220.501033 99.88848 
L 221.244363 99.94008 
L 222.002924 99.81624 
L 222.749347 98.93904 
L 223.480642 98.3508 
L 224.23064 98.52624 
L 224.975167 99.78528 
L 225.712243 100.12584 
L 226.452205 100.03296 
L 227.953725 100.83792 
L 228.691154 100.11552 
L 229.490911 99.87816 
L 230.18885 100.002 
L 231.671314 101.41584 
L 232.425774 101.21976 
L 233.911848 101.00304 
L 234.662553 100.86888 
L 235.39707 101.21976 
L 236.142243 101.28168 
L 237.635718 101.14752 
L 238.381959 100.55928 
L 239.121447 100.65216 
L 239.866974 99.80592 
L 240.608701 99.96072 
L 241.359871 99.6408 
L 242.092811 99.1764 
L 242.850485 99.70272 
L 243.598622 99.94008 
L 244.338205 98.57784 
L 245.081957 98.65008 
L 245.829499 98.38176 
L 246.572304 98.48496 
L 247.308415 96.70992 
L 248.062565 98.05152 
L 248.808729 98.48496 
L 249.549785 97.96896 
L 250.291797 96.32808 
L 251.785426 96.16296 
L 252.520865 96.1836 
L 253.276764 96.50352 
L 254.029105 94.76976 
L 254.774985 97.19496 
L 255.517272 96.9576 
L 256.262842 97.9896 
L 257.015295 96.89568 
L 257.74062 95.45088 
L 258.500051 95.67792 
L 259.244113 93.43848 
L 260.729473 92.25168 
L 261.473991 92.87088 
L 262.205924 94.2744 
L 262.952967 93.1392 
L 263.712286 92.97408 
L 264.462482 92.9844 
L 265.196465 92.60256 
L 265.944326 92.53032 
L 266.68782 94.54272 
L 267.43581 92.85024 
L 268.170629 94.82136 
L 268.926063 95.75016 
L 269.677611 96.97824 
L 271.163582 97.23624 
L 271.912141 95.94624 
L 272.650759 96.30744 
L 273.384854 98.08248 
L 274.895075 96.61704 
L 275.628119 97.23624 
L 276.380081 98.08248 
L 277.122024 99.18672 
L 277.866896 99.03192 
L 278.600483 99.1248 
L 279.36 98.74296 
L 279.36 98.74296 
" clip-path="url(#pa2387184ef)" style="fill: none; stroke: #f5841e; stroke-width: 0.6"/>
   </g>
  </g>
 </g>
 <defs>
  <clipPath id="pa2387184ef">
   <rect x="8.64" y="4.8" width="270.72" height="103.2"/>
  </clipPath>
 </defs>
</svg>
