<?xml version="1.0" encoding="utf-8" standalone="no"?>
<!DOCTYPE svg PUBLIC "-//W3C//DTD SVG 1.1//EN"
  "http://www.w3.org/Graphics/SVG/1.1/DTD/svg11.dtd">
<svg xmlns:xlink="http://www.w3.org/1999/xlink" width="288pt" height="120pt" viewBox="0 0 288 120" xmlns="http://www.w3.org/2000/svg" version="1.1">
<desc id="nav-meta">{"window":"3m","count":4,"labels":["10.03","09.04","08.05","07.06"],"tick_utc":["2026-03-10T03:14:38Z","2026-04-09T03:38:15Z","2026-05-08T04:01:19Z","2026-06-07T05:11:57Z"],"w":720,"h":300}</desc>

 <metadata>
  <rdf:RDF xmlns:dc="http://purl.org/dc/elements/1.1/" xmlns:cc="http://creativecommons.org/ns#" xmlns:rdf="http://www.w3.org/1999/02/22-rdf-syntax-ns#">
   <cc:Work>
    <dc:type rdf:resource="http://purl.org/dc/dcmitype/StillImage"/>
    <dc:date>2026-06-07T14:32:03.427841</dc:date>
    <dc:format>image/svg+xml</dc:format>
    <dc:creator>
     <cc:Agent>
      <dc:title>Matplotlib v3.10.9, https://matplotlib.org/</dc:title>
     </cc:Agent>
    </dc:creator>
   </cc:Work>
  </rdf:RDF>
 </metadata>
 <defs>
  <style type="text/css">*{stroke-linejoin: round; stroke-linecap: butt}</style>
 </defs>
 <g id="figure_1">
  <g id="patch_1">
   <path d="M 0 120 
L 288 120 
L 288 0 
L 0 0 
L 0 120 
z
" style="fill: none; opacity: 0"/>
  </g>
  <g id="axes_1">
   <g id="patch_2">
    <path d="M 8.64 108 
L 279.36 108 
L 279.36 4.8 
L 8.64 4.8 
L 8.64 108 
z
" style="fill: none"/>
   </g>
   <g id="matplotlib.axis_1"/>
   <g id="matplotlib.axis_2"/>
   <g id="line2d_1">
    <path d="M 8.64 87.36 
L 279.36 87.36 
" clip-path="url(#p60c3d36cfb)" style="fill: none; stroke: #b2b2b2; stroke-opacity: 0.35; stroke-width: 0.5; stroke-linecap: square"/>
   </g>
   <g id="line2d_2">
    <path d="M 8.64 66.72 
L 279.36 66.72 
" clip-path="url(#p60c3d36cfb)" style="fill: none; stroke: #b2b2b2; stroke-opacity: 0.35; stroke-width: 0.5; stroke-linecap: square"/>
   </g>
   <g id="line2d_3">
    <path d="M 8.64 46.08 
L 279.36 46.08 
" clip-path="url(#p60c3d36cfb)" style="fill: none; stroke: #b2b2b2; stroke-opacity: 0.35; stroke-width: 0.5; stroke-linecap: square"/>
   </g>
   <g id="line2d_4">
    <path d="M 8.64 25.44 
L 279.36 25.44 
" clip-path="url(#p60c3d36cfb)" style="fill: none; stroke: #b2b2b2; stroke-opacity: 0.35; stroke-width: 0.5; stroke-linecap: square"/>
   </g>
   <g id="line2d_5">
    <path d="M 8.64 100.78632 
L 11.67782 100.91016 
L 14.728795 100.99272 
L 17.761937 100.38384 
L 20.796908 100.50768 
L 23.894066 100.60056 
L 26.941664 99.76464 
L 29.927497 99.49632 
L 32.989693 99.40344 
L 36.029553 100.09488 
L 39.038987 100.3632 
L 42.060205 100.19808 
L 45.144666 100.47672 
L 48.190822 100.79664 
L 51.201699 100.26 
L 54.467058 99.83688 
L 57.316698 100.13616 
L 60.359548 100.80696 
L 63.36951 101.38488 
L 66.449925 101.3436 
L 69.497629 101.292 
L 72.517475 101.28168 
L 75.582555 101.28168 
L 78.581543 101.8596 
L 81.624041 101.88024 
L 84.637028 101.72544 
L 87.721805 101.68416 
L 90.768665 101.47776 
L 93.787948 101.78736 
L 96.831889 101.09592 
L 99.860317 101.46744 
L 102.927296 101.3436 
L 105.919847 101.05464 
L 109.013383 101.3952 
L 112.067981 101.47776 
L 115.087651 100.86888 
L 118.124345 101.26104 
L 121.176516 100.99272 
L 124.209341 100.61088 
L 127.214837 100.44576 
L 130.293986 100.94112 
L 133.340529 101.09592 
L 136.366214 101.00304 
L 139.395803 100.69344 
L 142.44713 100.9308 
L 145.4942 100.92048 
L 148.496952 100.81728 
L 151.583242 100.8792 
L 154.655004 100.64184 
L 157.700386 101.1888 
L 160.731101 101.09592 
L 163.775217 101.37456 
L 166.847437 101.21976 
L 169.808895 101.20944 
L 172.909606 101.23008 
L 175.947566 100.92048 
L 178.919646 101.06496 
L 182.012197 100.70376 
L 185.052022 100.55928 
L 188.040458 100.53864 
L 191.090588 99.60984 
L 194.190842 99.72336 
L 197.253846 99.44472 
L 200.250654 99.25896 
L 203.304126 99.32088 
L 206.339765 100.22904 
L 209.393765 100.01232 
L 212.393984 100.43544 
L 215.478374 100.75536 
L 218.546901 101.02368 
L 221.564144 101.02368 
L 224.614029 101.17848 
L 227.67035 100.7244 
L 230.686081 100.75536 
L 233.683345 101.11656 
L 236.770479 100.91016 
L 239.849487 100.89984 
L 242.842461 101.1372 
L 245.912676 101.2404 
L 248.941984 101.6532 
L 251.983251 101.4984 
L 254.97844 101.48808 
L 258.079502 101.32296 
L 261.16347 101.51904 
L 264.172589 101.7048 
L 267.245793 102.54072 
L 270.274398 103.08768 
L 273.263361 103.36632 
L 276.255666 104.22288 
L 279.36 103.85136 
" clip-path="url(#p60c3d36cfb)" style="fill: none; stroke: #bebebe; stroke-width: 0.5; stroke-linecap: round"/>
   </g>
   <g id="line2d_6">
    <path d="M 8.64 89.2692 
L 11.67782 89.54784 
L 14.728795 89.49624 
L 17.761937 88.31976 
L 20.796908 88.45392 
L 23.894066 88.46424 
L 26.941664 86.38992 
L 29.927497 84.80064 
L 32.989693 84.8316 
L 36.029553 86.586 
L 39.038987 87.74184 
L 42.060205 87.618 
L 45.144666 88.19592 
L 48.190822 89.08344 
L 51.201699 87.89664 
L 54.467058 87.3084 
L 57.316698 87.65928 
L 60.359548 88.96992 
L 63.36951 90.07416 
L 66.449925 89.76456 
L 69.497629 89.3724 
L 72.517475 89.00088 
L 75.582555 88.42296 
L 78.581543 88.81512 
L 81.624041 89.10408 
L 84.637028 89.14536 
L 87.721805 89.07312 
L 90.768665 87.9792 
L 93.787948 88.29912 
L 96.831889 86.38992 
L 99.860317 87.24648 
L 102.927296 87.1536 
L 105.919847 86.21448 
L 109.013383 86.66856 
L 112.067981 87.01944 
L 115.087651 84.44976 
L 118.124345 85.05864 
L 121.176516 84.58392 
L 124.209341 85.04832 
L 127.214837 83.71704 
L 130.293986 84.86256 
L 133.340529 85.6572 
L 136.366214 85.27536 
L 139.395803 84.49104 
L 142.44713 84.86256 
L 145.4942 85.32696 
L 148.496952 85.17216 
L 151.583242 85.31664 
L 154.655004 84.11952 
L 157.700386 85.66752 
L 160.731101 85.26504 
L 163.775217 86.26608 
L 166.847437 85.77072 
L 169.808895 85.38888 
L 172.909606 85.3992 
L 175.947566 84.09888 
L 178.919646 84.22272 
L 182.012197 84.34656 
L 185.052022 85.06896 
L 188.040458 85.7604 
L 191.090588 85.0896 
L 194.190842 85.01736 
L 197.253846 84.9348 
L 200.250654 85.296 
L 203.304126 85.35792 
L 206.339765 86.1732 
L 209.393765 85.92552 
L 212.393984 86.55504 
L 215.478374 87.13296 
L 218.546901 88.10304 
L 221.564144 87.9276 
L 224.614029 88.26816 
L 227.67035 87.78312 
L 230.686081 87.95856 
L 233.683345 88.94928 
L 236.770479 88.14432 
L 239.849487 88.33008 
L 242.842461 88.52616 
L 245.912676 88.86672 
L 248.941984 90.22896 
L 251.983251 89.82648 
L 254.97844 89.87808 
L 258.079502 89.46528 
L 261.16347 90.0432 
L 264.172589 89.96064 
L 267.245793 91.99368 
L 270.274398 93.05664 
L 273.263361 93.74808 
L 276.255666 97.02984 
L 279.36 95.93592 
" clip-path="url(#p60c3d36cfb)" style="fill: none; stroke: #4a8dff; stroke-width: 0.6"/>
   </g>
   <g id="line2d_7">
    <path d="M 8.64 100.21872 
L 11.67782 100.37352 
L 14.728795 100.4664 
L 17.761937 99.88848 
L 20.796908 99.94008 
L 23.894066 99.81624 
L 26.941664 98.93904 
L 29.927497 98.3508 
L 32.989693 98.52624 
L 36.029553 99.78528 
L 39.038987 100.12584 
L 42.060205 100.03296 
L 45.144666 100.45608 
L 48.190822 100.83792 
L 51.201699 100.11552 
L 54.467058 99.87816 
L 57.316698 100.002 
L 60.359548 100.64184 
L 63.36951 101.41584 
L 66.449925 101.21976 
L 69.497629 101.14752 
L 72.517475 101.00304 
L 75.582555 100.86888 
L 78.581543 101.21976 
L 81.624041 101.28168 
L 84.637028 101.20944 
L 87.721805 101.14752 
L 90.768665 100.55928 
L 93.787948 100.65216 
L 96.831889 99.80592 
L 99.860317 99.96072 
L 102.927296 99.6408 
L 105.919847 99.1764 
L 109.013383 99.70272 
L 112.067981 99.94008 
L 115.087651 98.57784 
L 118.124345 98.65008 
L 121.176516 98.38176 
L 124.209341 98.48496 
L 127.214837 96.70992 
L 130.293986 98.05152 
L 133.340529 98.48496 
L 136.366214 97.96896 
L 139.395803 96.32808 
L 142.44713 96.20424 
L 145.4942 96.16296 
L 148.496952 96.1836 
L 151.583242 96.50352 
L 154.655004 94.76976 
L 157.700386 97.19496 
L 160.731101 96.9576 
L 163.775217 97.9896 
L 166.847437 96.89568 
L 169.808895 95.45088 
L 172.909606 95.67792 
L 175.947566 93.43848 
L 178.919646 92.90184 
L 182.012197 92.25168 
L 185.052022 92.87088 
L 188.040458 94.2744 
L 191.090588 93.1392 
L 194.190842 92.97408 
L 197.253846 92.9844 
L 200.250654 92.60256 
L 203.304126 92.53032 
L 206.339765 94.54272 
L 209.393765 92.85024 
L 212.393984 94.82136 
L 215.478374 95.75016 
L 218.546901 96.97824 
L 221.564144 97.08144 
L 224.614029 97.23624 
L 227.67035 95.94624 
L 230.686081 96.30744 
L 233.683345 98.08248 
L 236.770479 97.2672 
L 239.849487 96.61704 
L 242.842461 97.23624 
L 245.912676 98.08248 
L 248.941984 99.18672 
L 251.983251 99.03192 
L 254.97844 99.1248 
L 258.079502 98.74296 
L 261.16347 99.09384 
L 264.172589 100.0536 
L 267.245793 101.23008 
L 270.274398 101.99376 
L 273.263361 102.08664 
L 276.255666 102.8916 
L 279.36 102.45816 
" clip-path="url(#p60c3d36cfb)" style="fill: none; stroke: #f5841e; stroke-width: 0.6"/>
   </g>
  </g>
 </g>
 <defs>
  <clipPath id="p60c3d36cfb">
   <rect x="8.64" y="4.8" width="270.72" height="103.2"/>
  </clipPath>
 </defs>
</svg>
