<?xml version="1.0" encoding="utf-8" standalone="no"?>
<!DOCTYPE svg PUBLIC "-//W3C//DTD SVG 1.1//EN"
  "http://www.w3.org/Graphics/SVG/1.1/DTD/svg11.dtd">
<svg xmlns:xlink="http://www.w3.org/1999/xlink" width="288pt" height="120pt" viewBox="0 0 288 120" xmlns="http://www.w3.org/2000/svg" version="1.1">
<desc id="nav-meta">{"window":"3m","count":4,"labels":["11.12","10.01","09.02","11.03"],"tick_utc":["2025-12-11T12:00:00Z","2026-01-10T12:00:00Z","2026-02-09T03:34:10Z","2026-03-11T03:14:04Z"],"w":720,"h":300}</desc>

 <metadata>
  <rdf:RDF xmlns:dc="http://purl.org/dc/elements/1.1/" xmlns:cc="http://creativecommons.org/ns#" xmlns:rdf="http://www.w3.org/1999/02/22-rdf-syntax-ns#">
   <cc:Work>
    <dc:type rdf:resource="http://purl.org/dc/dcmitype/StillImage"/>
    <dc:date>2026-03-11T07:30:49.058240</dc:date>
    <dc:format>image/svg+xml</dc:format>
    <dc:creator>
     <cc:Agent>
      <dc:title>Matplotlib v3.10.8, https://matplotlib.org/</dc:title>
     </cc:Agent>
    </dc:creator>
   </cc:Work>
  </rdf:RDF>
 </metadata>
 <defs>
  <style type="text/css">*{stroke-linejoin: round; stroke-linecap: butt}</style>
 </defs>
 <g id="figure_1">
  <g id="patch_1">
   <path d="M 0 120 
L 288 120 
L 288 0 
L 0 0 
L 0 120 
z
" style="fill: none; opacity: 0"/>
  </g>
  <g id="axes_1">
   <g id="patch_2">
    <path d="M 8.64 108 
L 279.36 108 
L 279.36 4.8 
L 8.64 4.8 
L 8.64 108 
z
" style="fill: none"/>
   </g>
   <g id="matplotlib.axis_1"/>
   <g id="matplotlib.axis_2"/>
   <g id="line2d_1">
    <path d="M 8.64 87.36 
L 279.36 87.36 
" clip-path="url(#pd560482a60)" style="fill: none; stroke: #b2b2b2; stroke-opacity: 0.35; stroke-width: 0.5; stroke-linecap: square"/>
   </g>
   <g id="line2d_2">
    <path d="M 8.64 66.72 
L 279.36 66.72 
" clip-path="url(#pd560482a60)" style="fill: none; stroke: #b2b2b2; stroke-opacity: 0.35; stroke-width: 0.5; stroke-linecap: square"/>
   </g>
   <g id="line2d_3">
    <path d="M 8.64 46.08 
L 279.36 46.08 
" clip-path="url(#pd560482a60)" style="fill: none; stroke: #b2b2b2; stroke-opacity: 0.35; stroke-width: 0.5; stroke-linecap: square"/>
   </g>
   <g id="line2d_4">
    <path d="M 8.64 25.44 
L 279.36 25.44 
" clip-path="url(#pd560482a60)" style="fill: none; stroke: #b2b2b2; stroke-opacity: 0.35; stroke-width: 0.5; stroke-linecap: square"/>
   </g>
   <g id="line2d_5">
    <path d="M 8.64 89.20728 
L 11.660257 89.22792 
L 14.680513 90.31152 
L 17.70077 90.10512 
L 20.721026 91.09584 
L 23.741283 91.61184 
L 26.76154 91.31256 
L 29.781796 92.87088 
L 32.802053 93.8616 
L 35.822309 92.02464 
L 38.842566 92.13816 
L 41.862822 92.07624 
L 44.883079 92.14848 
L 47.903336 92.64384 
L 50.923592 93.01536 
L 53.943849 93.69648 
L 56.964105 93.11856 
L 59.984362 92.44776 
L 63.004619 92.30328 
L 66.024875 92.87088 
L 69.045132 92.38584 
L 72.065388 92.47872 
L 75.085645 91.88016 
L 78.105901 90.42504 
L 81.126158 90.08448 
L 84.146415 89.92968 
L 87.166671 88.76352 
L 90.186928 87.94824 
L 93.207184 89.2692 
L 96.227441 88.72224 
L 99.247698 89.39304 
L 102.267954 89.40336 
L 105.288211 88.41264 
L 108.308467 88.4952 
L 111.328724 86.86464 
L 114.348981 86.42088 
L 117.369237 87.62832 
L 120.389494 86.93688 
L 123.40975 87.23616 
L 126.430007 88.63968 
L 129.450263 90.0432 
L 132.47052 92.12784 
L 135.490777 91.16808 
L 138.511033 91.46736 
L 141.53129 91.73568 
L 144.551546 91.78728 
L 147.571803 94.0164 
L 150.59206 92.5716 
L 153.612316 91.76664 
L 156.632573 92.33424 
L 159.652829 94.36728 
L 162.673086 94.46016 
L 165.693342 97.71096 
L 168.713599 98.48496 
L 171.733856 97.85544 
L 174.28363 99.10416 
L 176.683791 100.16712 
L 179.702509 102.23112 
L 182.709832 100.54896 
L 185.799128 100.70376 
L 188.79446 100.68312 
L 191.83195 100.95144 
L 194.84595 101.28168 
L 197.855335 101.71512 
L 200.874682 101.84928 
L 203.858619 101.034 
L 206.719508 100.54896 
L 209.933495 101.04432 
L 212.574366 100.81728 
L 215.969219 101.034 
L 218.985805 101.4984 
L 221.988408 101.33328 
L 224.990208 101.1372 
L 228.044967 101.06496 
L 231.074312 102.09696 
L 233.83942 102.05568 
L 237.103954 101.4984 
L 240.110752 100.60056 
L 243.125276 100.80696 
L 246.109946 101.45712 
L 249.198823 100.55928 
L 252.187898 101.10624 
L 255.215181 100.8792 
L 258.218519 100.74504 
L 261.245277 100.21872 
L 264.2641 100.53864 
L 267.261181 101.07528 
L 270.310766 101.38488 
L 273.340076 101.26104 
L 276.340932 100.78632 
L 279.36 100.91016 
" clip-path="url(#pd560482a60)" style="fill: none; stroke: #bebebe; stroke-width: 0.5; stroke-linecap: round"/>
   </g>
   <g id="line2d_6">
    <path d="M 8.64 70.2288 
L 11.660257 71.56008 
L 14.680513 73.79952 
L 17.70077 73.35576 
L 20.721026 74.0988 
L 23.741283 75.5952 
L 26.76154 75.5952 
L 29.781796 77.61792 
L 32.802053 77.63856 
L 35.822309 75.40944 
L 38.842566 75.40944 
L 41.862822 75.04824 
L 44.883079 74.98632 
L 47.903336 75.58488 
L 50.923592 75.87384 
L 53.943849 76.49304 
L 56.964105 76.15248 
L 59.984362 75.82224 
L 63.004619 75.84288 
L 66.024875 76.03896 
L 69.045132 75.51264 
L 72.065388 75.56424 
L 75.085645 75.05856 
L 78.105901 73.26288 
L 81.126158 73.20096 
L 84.146415 73.00488 
L 87.166671 71.68392 
L 90.186928 70.6932 
L 93.207184 72.62304 
L 96.227441 73.52088 
L 99.247698 73.83048 
L 102.267954 73.8408 
L 105.288211 73.29384 
L 108.308467 73.72728 
L 111.328724 70.32168 
L 114.348981 69.77472 
L 117.369237 70.34232 
L 120.389494 70.67256 
L 123.40975 70.51776 
L 126.430007 70.848 
L 129.450263 72.31344 
L 132.47052 76.01832 
L 135.490777 75.41976 
L 138.511033 75.83256 
L 141.53129 75.79128 
L 144.551546 75.82224 
L 147.571803 77.82432 
L 150.59206 76.14216 
L 153.612316 74.75928 
L 156.632573 74.96568 
L 159.652829 77.75208 
L 162.673086 79.48584 
L 165.693342 83.31456 
L 168.713599 85.90488 
L 171.733856 84.79032 
L 174.28363 85.84296 
L 176.683791 88.25784 
L 179.702509 91.41576 
L 182.709832 88.7532 
L 185.799128 88.65 
L 188.79446 88.55712 
L 191.83195 88.96992 
L 194.84595 89.7336 
L 197.855335 90.456 
L 200.874682 90.56952 
L 203.858619 89.15568 
L 206.719508 88.9596 
L 209.933495 90.6624 
L 212.574366 89.94 
L 215.969219 90.00192 
L 218.985805 90.3528 
L 221.988408 90.62112 
L 224.990208 90.5076 
L 228.044967 90.3528 
L 231.074312 92.004 
L 233.83942 92.13816 
L 237.103954 91.25064 
L 240.110752 89.166 
L 243.125276 89.56848 
L 246.109946 90.93072 
L 249.198823 89.41368 
L 252.187898 90.37344 
L 255.215181 89.79552 
L 258.218519 90.23928 
L 261.245277 88.0824 
L 264.2641 88.7532 
L 267.261181 90.16704 
L 270.310766 90.67272 
L 273.340076 90.18768 
L 276.340932 89.2692 
L 279.36 89.54784 
" clip-path="url(#pd560482a60)" style="fill: none; stroke: #4a8dff; stroke-width: 0.6"/>
   </g>
   <g id="line2d_7">
    <path d="M 8.64 81.38472 
L 11.660257 80.87904 
L 14.680513 83.13912 
L 17.70077 83.19072 
L 20.721026 85.296 
L 23.741283 87.17424 
L 26.76154 85.71912 
L 29.781796 87.53544 
L 32.802053 88.17528 
L 35.822309 85.41984 
L 38.842566 85.17216 
L 41.862822 84.9348 
L 44.883079 85.01736 
L 47.903336 86.14224 
L 50.923592 85.90488 
L 53.943849 86.328 
L 56.964105 86.24544 
L 59.984362 85.72944 
L 63.004619 85.7088 
L 66.024875 86.40024 
L 69.045132 85.09992 
L 72.065388 86.02872 
L 75.085645 84.78 
L 78.105901 83.53128 
L 81.126158 82.83984 
L 84.146415 82.03488 
L 87.166671 79.39296 
L 90.186928 79.66128 
L 93.207184 82.15872 
L 96.227441 82.43736 
L 99.247698 82.93272 
L 102.267954 83.00496 
L 105.288211 82.6128 
L 108.308467 82.28256 
L 111.328724 78.01008 
L 114.348981 76.19376 
L 117.369237 77.66952 
L 120.389494 77.74176 
L 123.40975 78.1752 
L 126.430007 79.5684 
L 129.450263 80.8068 
L 132.47052 85.20312 
L 135.490777 84.12984 
L 138.511033 84.03696 
L 141.53129 84.06792 
L 144.551546 84.3156 
L 147.571803 87.02976 
L 150.59206 85.21344 
L 153.612316 84.28464 
L 156.632573 84.32592 
L 159.652829 89.08344 
L 162.673086 89.5272 
L 165.693342 95.14128 
L 168.713599 96.98856 
L 171.733856 95.08968 
L 174.28363 97.71096 
L 176.683791 99.80592 
L 179.702509 101.79768 
L 182.709832 100.03296 
L 185.799128 100.518 
L 188.79446 99.98136 
L 191.83195 100.49736 
L 194.84595 100.78632 
L 197.855335 101.07528 
L 200.874682 101.26104 
L 203.858619 100.63152 
L 206.719508 100.38384 
L 209.933495 100.84824 
L 212.574366 100.65216 
L 215.969219 101.034 
L 218.985805 101.19912 
L 221.988408 101.10624 
L 224.990208 100.97208 
L 228.044967 100.91016 
L 231.074312 101.7564 
L 233.83942 101.84928 
L 237.103954 101.56032 
L 240.110752 100.85856 
L 243.125276 101.12688 
L 246.109946 101.4468 
L 249.198823 101.02368 
L 252.187898 101.30232 
L 255.215181 100.81728 
L 258.218519 100.79664 
L 261.245277 99.3312 
L 264.2641 99.92976 
L 267.261181 100.78632 
L 270.310766 101.17848 
L 273.340076 101.1372 
L 276.340932 100.21872 
L 279.36 100.37352 
" clip-path="url(#pd560482a60)" style="fill: none; stroke: #f5841e; stroke-width: 0.6"/>
   </g>
  </g>
 </g>
 <defs>
  <clipPath id="pd560482a60">
   <rect x="8.64" y="4.8" width="270.72" height="103.2"/>
  </clipPath>
 </defs>
</svg>
