<?xml version="1.0" encoding="utf-8" standalone="no"?>
<!DOCTYPE svg PUBLIC "-//W3C//DTD SVG 1.1//EN"
  "http://www.w3.org/Graphics/SVG/1.1/DTD/svg11.dtd">
<svg xmlns:xlink="http://www.w3.org/1999/xlink" width="288pt" height="120pt" viewBox="0 0 288 120" xmlns="http://www.w3.org/2000/svg" version="1.1">
<desc id="nav-meta">{"window":"1m","count":4,"labels":["21.01","31.01","09.02","19.02"],"tick_utc":["2026-01-21T12:00:00Z","2026-01-31T12:00:00Z","2026-02-09T03:34:10Z","2026-02-19T03:28:49Z"],"w":720,"h":300}</desc>

 <metadata>
  <rdf:RDF xmlns:dc="http://purl.org/dc/elements/1.1/" xmlns:cc="http://creativecommons.org/ns#" xmlns:rdf="http://www.w3.org/1999/02/22-rdf-syntax-ns#">
   <cc:Work>
    <dc:type rdf:resource="http://purl.org/dc/dcmitype/StillImage"/>
    <dc:date>2026-02-19T13:55:12.715143</dc:date>
    <dc:format>image/svg+xml</dc:format>
    <dc:creator>
     <cc:Agent>
      <dc:title>Matplotlib v3.10.8, https://matplotlib.org/</dc:title>
     </cc:Agent>
    </dc:creator>
   </cc:Work>
  </rdf:RDF>
 </metadata>
 <defs>
  <style type="text/css">*{stroke-linejoin: round; stroke-linecap: butt}</style>
 </defs>
 <g id="figure_1">
  <g id="patch_1">
   <path d="M 0 120 
L 288 120 
L 288 0 
L 0 0 
L 0 120 
z
" style="fill: none; opacity: 0"/>
  </g>
  <g id="axes_1">
   <g id="patch_2">
    <path d="M 8.64 108 
L 279.36 108 
L 279.36 4.8 
L 8.64 4.8 
L 8.64 108 
z
" style="fill: none"/>
   </g>
   <g id="matplotlib.axis_1"/>
   <g id="matplotlib.axis_2"/>
   <g id="line2d_1">
    <path d="M 8.64 87.36 
L 279.36 87.36 
" clip-path="url(#p8951e0c532)" style="fill: none; stroke: #b2b2b2; stroke-opacity: 0.35; stroke-width: 0.5; stroke-linecap: square"/>
   </g>
   <g id="line2d_2">
    <path d="M 8.64 66.72 
L 279.36 66.72 
" clip-path="url(#p8951e0c532)" style="fill: none; stroke: #b2b2b2; stroke-opacity: 0.35; stroke-width: 0.5; stroke-linecap: square"/>
   </g>
   <g id="line2d_3">
    <path d="M 8.64 46.08 
L 279.36 46.08 
" clip-path="url(#p8951e0c532)" style="fill: none; stroke: #b2b2b2; stroke-opacity: 0.35; stroke-width: 0.5; stroke-linecap: square"/>
   </g>
   <g id="line2d_4">
    <path d="M 8.64 25.44 
L 279.36 25.44 
" clip-path="url(#p8951e0c532)" style="fill: none; stroke: #b2b2b2; stroke-opacity: 0.35; stroke-width: 0.5; stroke-linecap: square"/>
   </g>
   <g id="line2d_5">
    <path d="M 8.64 92.12784 
L 18.09086 91.16808 
L 27.54172 91.46736 
L 36.992581 91.73568 
L 46.443441 91.78728 
L 55.894301 94.0164 
L 65.345161 92.5716 
L 74.796021 91.76664 
L 84.246882 92.33424 
L 93.697742 94.36728 
L 103.148602 94.46016 
L 112.599462 97.71096 
L 122.050322 98.48496 
L 131.501183 97.85544 
L 139.479831 99.10416 
L 146.990311 100.16712 
L 156.436359 102.23112 
L 165.846746 100.54896 
L 175.513642 100.70376 
L 184.886511 100.68312 
L 194.391297 100.95144 
L 203.822578 101.28168 
L 213.239419 101.71512 
L 222.687435 101.84928 
L 232.024645 101.034 
L 240.976819 100.54896 
L 251.033891 101.04432 
L 259.297596 100.81728 
L 269.920625 101.034 
L 279.36 101.4984 
" clip-path="url(#p8951e0c532)" style="fill: none; stroke: #bebebe; stroke-width: 0.5; stroke-linecap: round"/>
   </g>
   <g id="line2d_6">
    <path d="M 8.64 76.01832 
L 18.09086 75.41976 
L 27.54172 75.83256 
L 36.992581 75.79128 
L 46.443441 75.82224 
L 55.894301 77.82432 
L 65.345161 76.14216 
L 74.796021 74.75928 
L 84.246882 74.96568 
L 93.697742 77.75208 
L 103.148602 79.48584 
L 112.599462 83.31456 
L 122.050322 85.90488 
L 131.501183 84.79032 
L 139.479831 85.84296 
L 146.990311 88.25784 
L 156.436359 91.41576 
L 165.846746 88.7532 
L 175.513642 88.65 
L 184.886511 88.55712 
L 194.391297 88.96992 
L 203.822578 89.7336 
L 213.239419 90.456 
L 222.687435 90.56952 
L 232.024645 89.15568 
L 240.976819 88.9596 
L 251.033891 90.6624 
L 259.297596 89.94 
L 269.920625 90.00192 
L 279.36 90.3528 
" clip-path="url(#p8951e0c532)" style="fill: none; stroke: #4a8dff; stroke-width: 0.6"/>
   </g>
   <g id="line2d_7">
    <path d="M 8.64 85.20312 
L 18.09086 84.12984 
L 27.54172 84.03696 
L 36.992581 84.06792 
L 46.443441 84.3156 
L 55.894301 87.02976 
L 65.345161 85.21344 
L 74.796021 84.28464 
L 84.246882 84.32592 
L 93.697742 89.08344 
L 103.148602 89.5272 
L 112.599462 95.14128 
L 122.050322 96.98856 
L 131.501183 95.08968 
L 139.479831 97.71096 
L 146.990311 99.80592 
L 156.436359 101.79768 
L 165.846746 100.03296 
L 175.513642 100.518 
L 184.886511 99.98136 
L 194.391297 100.49736 
L 203.822578 100.78632 
L 213.239419 101.07528 
L 222.687435 101.26104 
L 232.024645 100.63152 
L 240.976819 100.38384 
L 251.033891 100.84824 
L 259.297596 100.65216 
L 269.920625 101.034 
L 279.36 101.19912 
" clip-path="url(#p8951e0c532)" style="fill: none; stroke: #f5841e; stroke-width: 0.6"/>
   </g>
  </g>
 </g>
 <defs>
  <clipPath id="p8951e0c532">
   <rect x="8.64" y="4.8" width="270.72" height="103.2"/>
  </clipPath>
 </defs>
</svg>
