<?xml version="1.0" encoding="utf-8" standalone="no"?>
<!DOCTYPE svg PUBLIC "-//W3C//DTD SVG 1.1//EN"
  "http://www.w3.org/Graphics/SVG/1.1/DTD/svg11.dtd">
<svg xmlns:xlink="http://www.w3.org/1999/xlink" width="288pt" height="120pt" viewBox="0 0 288 120" xmlns="http://www.w3.org/2000/svg" version="1.1">
<desc id="nav-meta">{"window":"3m","count":4,"labels":["07.04","07.05","05.06","05.07"],"tick_utc":["2026-04-07T03:40:56Z","2026-05-07T04:25:17Z","2026-06-05T05:03:08Z","2026-07-05T04:44:59Z"],"w":720,"h":300}</desc>

 <metadata>
  <rdf:RDF xmlns:dc="http://purl.org/dc/elements/1.1/" xmlns:cc="http://creativecommons.org/ns#" xmlns:rdf="http://www.w3.org/1999/02/22-rdf-syntax-ns#">
   <cc:Work>
    <dc:type rdf:resource="http://purl.org/dc/dcmitype/StillImage"/>
    <dc:date>2026-07-05T19:56:03.778164</dc:date>
    <dc:format>image/svg+xml</dc:format>
    <dc:creator>
     <cc:Agent>
      <dc:title>Matplotlib v3.11.0, https://matplotlib.org/</dc:title>
     </cc:Agent>
    </dc:creator>
   </cc:Work>
  </rdf:RDF>
 </metadata>
 <defs>
  <style type="text/css">*{stroke-linejoin: round; stroke-linecap: butt}</style>
 </defs>
 <g id="figure_1">
  <g id="patch_1">
   <path d="M 0 120 
L 288 120 
L 288 0 
L 0 0 
L 0 120 
z
" style="fill: none; opacity: 0"/>
  </g>
  <g id="axes_1">
   <g id="patch_2">
    <path d="M 8.64 108 
L 279.36 108 
L 279.36 4.8 
L 8.64 4.8 
L 8.64 108 
z
" style="fill: none"/>
   </g>
   <g id="matplotlib.axis_1"/>
   <g id="matplotlib.axis_2"/>
   <g id="line2d_1">
    <path d="M 8.64 87.36 
L 279.36 87.36 
" clip-path="url(#p13028ec882)" style="fill: none; stroke: #b2b2b2; stroke-opacity: 0.35; stroke-width: 0.5; stroke-linecap: square"/>
   </g>
   <g id="line2d_2">
    <path d="M 8.64 66.72 
L 279.36 66.72 
" clip-path="url(#p13028ec882)" style="fill: none; stroke: #b2b2b2; stroke-opacity: 0.35; stroke-width: 0.5; stroke-linecap: square"/>
   </g>
   <g id="line2d_3">
    <path d="M 8.64 46.08 
L 279.36 46.08 
" clip-path="url(#p13028ec882)" style="fill: none; stroke: #b2b2b2; stroke-opacity: 0.35; stroke-width: 0.5; stroke-linecap: square"/>
   </g>
   <g id="line2d_4">
    <path d="M 8.64 25.44 
L 279.36 25.44 
" clip-path="url(#p13028ec882)" style="fill: none; stroke: #b2b2b2; stroke-opacity: 0.35; stroke-width: 0.5; stroke-linecap: square"/>
   </g>
   <g id="line2d_5">
    <path d="M 8.64 101.78736 
L 11.685205 101.09592 
L 14.714891 101.46744 
L 17.783144 101.3436 
L 20.776939 101.05464 
L 23.871759 101.3952 
L 26.927626 101.47776 
L 29.948551 100.86888 
L 32.986507 101.26104 
L 36.039945 100.99272 
L 39.074031 100.61088 
L 42.080774 100.44576 
L 45.161203 100.94112 
L 48.209011 101.09592 
L 51.235953 101.00304 
L 54.266801 100.69344 
L 57.319395 100.9308 
L 60.367732 100.92048 
L 63.371731 100.81728 
L 66.459302 100.8792 
L 69.532341 100.64184 
L 72.578989 101.1888 
L 75.610962 101.09592 
L 78.656343 101.37456 
L 81.729839 101.21976 
L 84.692527 101.20944 
L 87.794526 101.23008 
L 90.833749 100.92048 
L 93.807063 101.06496 
L 96.900898 100.70376 
L 99.941986 100.55928 
L 102.931664 100.53864 
L 105.983061 99.60984 
L 109.084603 99.72336 
L 112.14888 99.44472 
L 115.146932 99.25896 
L 118.201673 99.32088 
L 121.238573 100.22904 
L 124.293841 100.01232 
L 127.295307 100.43544 
L 130.380978 100.75536 
L 133.45078 101.02368 
L 136.469276 101.02368 
L 139.520428 101.17848 
L 142.578019 100.7244 
L 145.595002 100.75536 
L 148.593512 101.11656 
L 151.681928 100.91016 
L 154.762216 100.89984 
L 157.756432 101.1372 
L 160.827923 101.2404 
L 163.858489 101.6532 
L 166.90102 101.4984 
L 169.897453 101.48808 
L 172.999804 101.32296 
L 176.085053 101.51904 
L 179.095421 101.7048 
L 182.169903 102.54072 
L 185.199765 103.08768 
L 188.18997 103.36632 
L 191.183519 104.22288 
L 194.289142 103.85136 
L 197.342862 103.68624 
L 200.325115 103.43856 
L 203.396922 103.81008 
L 206.455041 103.72752 
L 209.507248 103.50048 
L 212.525287 103.5108 
L 215.587629 103.31472 
L 218.728968 102.95352 
L 221.786594 102.61296 
L 224.730034 102.6336 
L 227.755744 102.9948 
L 230.867631 103.28376 
L 233.786333 103.01544 
L 236.889881 102.69552 
L 240.01915 102.582 
L 242.877681 102.88128 
L 245.928832 103.15992 
L 248.968301 103.36632 
L 252.024168 103.36632 
L 255.027182 102.81936 
L 258.125415 103.0464 
L 261.187686 102.9432 
L 264.169024 102.59232 
L 267.253781 102.40656 
L 270.240819 102.02472 
L 273.24802 101.68416 
L 276.275208 101.3436 
L 279.36 101.6532 
" clip-path="url(#p13028ec882)" style="fill: none; stroke: #bebebe; stroke-width: 0.5; stroke-linecap: round"/>
   </g>
   <g id="line2d_6">
    <path d="M 8.64 88.29912 
L 11.685205 86.38992 
L 14.714891 87.24648 
L 17.783144 87.1536 
L 20.776939 86.21448 
L 23.871759 86.66856 
L 26.927626 87.01944 
L 29.948551 84.44976 
L 32.986507 85.05864 
L 36.039945 84.58392 
L 39.074031 85.04832 
L 42.080774 83.71704 
L 45.161203 84.86256 
L 48.209011 85.6572 
L 51.235953 85.27536 
L 54.266801 84.49104 
L 57.319395 84.86256 
L 60.367732 85.32696 
L 63.371731 85.17216 
L 66.459302 85.31664 
L 69.532341 84.11952 
L 72.578989 85.66752 
L 75.610962 85.26504 
L 78.656343 86.26608 
L 81.729839 85.77072 
L 84.692527 85.38888 
L 87.794526 85.3992 
L 90.833749 84.09888 
L 93.807063 84.22272 
L 96.900898 84.34656 
L 99.941986 85.06896 
L 102.931664 85.7604 
L 105.983061 85.0896 
L 109.084603 85.01736 
L 112.14888 84.9348 
L 115.146932 85.296 
L 118.201673 85.35792 
L 121.238573 86.1732 
L 124.293841 85.92552 
L 127.295307 86.55504 
L 130.380978 87.13296 
L 133.45078 88.10304 
L 136.469276 87.9276 
L 139.520428 88.26816 
L 142.578019 87.78312 
L 145.595002 87.95856 
L 148.593512 88.94928 
L 151.681928 88.14432 
L 154.762216 88.33008 
L 157.756432 88.52616 
L 160.827923 88.86672 
L 163.858489 90.22896 
L 166.90102 89.82648 
L 169.897453 89.87808 
L 172.999804 89.46528 
L 176.085053 90.0432 
L 179.095421 89.96064 
L 182.169903 91.99368 
L 185.199765 93.05664 
L 188.18997 93.74808 
L 191.183519 97.02984 
L 194.289142 95.93592 
L 197.342862 95.07936 
L 200.325115 94.46016 
L 203.396922 95.47152 
L 206.455041 95.11032 
L 209.507248 94.82136 
L 212.525287 94.8936 
L 215.587629 94.70784 
L 218.728968 94.04736 
L 221.786594 93.40752 
L 224.730034 92.9844 
L 227.755744 93.93384 
L 230.867631 94.4292 
L 233.786333 94.19184 
L 236.889881 93.87192 
L 240.01915 93.81 
L 242.877681 94.03704 
L 245.928832 94.83168 
L 248.968301 95.48184 
L 252.024168 96.63768 
L 255.027182 96.14232 
L 258.125415 96.30744 
L 261.187686 96.29712 
L 264.169024 96.04944 
L 267.253781 95.9256 
L 270.240819 95.39928 
L 273.24802 94.31568 
L 276.275208 93.57264 
L 279.36 93.32496 
" clip-path="url(#p13028ec882)" style="fill: none; stroke: #4a8dff; stroke-width: 0.6"/>
   </g>
   <g id="line2d_7">
    <path d="M 8.64 100.65216 
L 11.685205 99.80592 
L 14.714891 99.96072 
L 17.783144 99.6408 
L 20.776939 99.1764 
L 23.871759 99.70272 
L 26.927626 99.94008 
L 29.948551 98.57784 
L 32.986507 98.65008 
L 36.039945 98.38176 
L 39.074031 98.48496 
L 42.080774 96.70992 
L 45.161203 98.05152 
L 48.209011 98.48496 
L 51.235953 97.96896 
L 54.266801 96.32808 
L 57.319395 96.20424 
L 60.367732 96.16296 
L 63.371731 96.1836 
L 66.459302 96.50352 
L 69.532341 94.76976 
L 72.578989 97.19496 
L 75.610962 96.9576 
L 78.656343 97.9896 
L 81.729839 96.89568 
L 84.692527 95.45088 
L 87.794526 95.67792 
L 90.833749 93.43848 
L 93.807063 92.90184 
L 96.900898 92.25168 
L 99.941986 92.87088 
L 102.931664 94.2744 
L 105.983061 93.1392 
L 109.084603 92.97408 
L 112.14888 92.9844 
L 115.146932 92.60256 
L 118.201673 92.53032 
L 121.238573 94.54272 
L 124.293841 92.85024 
L 127.295307 94.82136 
L 130.380978 95.75016 
L 133.45078 96.97824 
L 136.469276 97.08144 
L 139.520428 97.23624 
L 142.578019 95.94624 
L 145.595002 96.30744 
L 148.593512 98.08248 
L 151.681928 97.2672 
L 154.762216 96.61704 
L 157.756432 97.23624 
L 160.827923 98.08248 
L 163.858489 99.18672 
L 166.90102 99.03192 
L 169.897453 99.1248 
L 172.999804 98.74296 
L 176.085053 99.09384 
L 179.095421 100.0536 
L 182.169903 101.23008 
L 185.199765 101.99376 
L 188.18997 102.08664 
L 191.183519 102.8916 
L 194.289142 102.45816 
L 197.342862 102.28272 
L 200.325115 102.10728 
L 203.396922 102.582 
L 206.455041 102.29304 
L 209.507248 102.08664 
L 212.525287 102.066 
L 215.587629 101.86992 
L 218.728968 101.48808 
L 221.786594 101.40552 
L 224.730034 101.4984 
L 227.755744 101.97312 
L 230.867631 102.26208 
L 233.786333 102.066 
L 236.889881 101.90088 
L 240.01915 101.90088 
L 242.877681 102.0144 
L 245.928832 102.25176 
L 248.968301 102.6336 
L 252.024168 102.88128 
L 255.027182 102.77808 
L 258.125415 102.85032 
L 261.187686 102.93288 
L 264.169024 102.95352 
L 267.253781 103.00512 
L 270.240819 102.69552 
L 273.24802 102.55104 
L 276.275208 102.2724 
L 279.36 102.21048 
" clip-path="url(#p13028ec882)" style="fill: none; stroke: #f5841e; stroke-width: 0.6"/>
   </g>
  </g>
 </g>
 <defs>
  <clipPath id="p13028ec882">
   <rect x="8.64" y="4.8" width="270.72" height="103.2"/>
  </clipPath>
 </defs>
</svg>
