<?xml version="1.0" encoding="utf-8" standalone="no"?>
<!DOCTYPE svg PUBLIC "-//W3C//DTD SVG 1.1//EN"
  "http://www.w3.org/Graphics/SVG/1.1/DTD/svg11.dtd">
<svg xmlns:xlink="http://www.w3.org/1999/xlink" width="288pt" height="120pt" viewBox="0 0 288 120" xmlns="http://www.w3.org/2000/svg" version="1.1">
<desc id="nav-meta">{"window":"3m","count":4,"labels":["21.11","21.12","19.01","18.02"],"tick_utc":["2025-11-21T12:00:00Z","2025-12-21T12:00:00Z","2026-01-19T12:00:00Z","2026-02-18T03:30:34Z"],"w":720,"h":300}</desc>

 <metadata>
  <rdf:RDF xmlns:dc="http://purl.org/dc/elements/1.1/" xmlns:cc="http://creativecommons.org/ns#" xmlns:rdf="http://www.w3.org/1999/02/22-rdf-syntax-ns#">
   <cc:Work>
    <dc:type rdf:resource="http://purl.org/dc/dcmitype/StillImage"/>
    <dc:date>2026-02-18T19:34:31.629812</dc:date>
    <dc:format>image/svg+xml</dc:format>
    <dc:creator>
     <cc:Agent>
      <dc:title>Matplotlib v3.10.8, https://matplotlib.org/</dc:title>
     </cc:Agent>
    </dc:creator>
   </cc:Work>
  </rdf:RDF>
 </metadata>
 <defs>
  <style type="text/css">*{stroke-linejoin: round; stroke-linecap: butt}</style>
 </defs>
 <g id="figure_1">
  <g id="patch_1">
   <path d="M 0 120 
L 288 120 
L 288 0 
L 0 0 
L 0 120 
z
" style="fill: none; opacity: 0"/>
  </g>
  <g id="axes_1">
   <g id="patch_2">
    <path d="M 8.64 108 
L 279.36 108 
L 279.36 4.8 
L 8.64 4.8 
L 8.64 108 
z
" style="fill: none"/>
   </g>
   <g id="matplotlib.axis_1"/>
   <g id="matplotlib.axis_2"/>
   <g id="line2d_1">
    <path d="M 8.64 87.36 
L 279.36 87.36 
" clip-path="url(#p15f8b38c6d)" style="fill: none; stroke: #b2b2b2; stroke-opacity: 0.35; stroke-width: 0.5; stroke-linecap: square"/>
   </g>
   <g id="line2d_2">
    <path d="M 8.64 66.72 
L 279.36 66.72 
" clip-path="url(#p15f8b38c6d)" style="fill: none; stroke: #b2b2b2; stroke-opacity: 0.35; stroke-width: 0.5; stroke-linecap: square"/>
   </g>
   <g id="line2d_3">
    <path d="M 8.64 46.08 
L 279.36 46.08 
" clip-path="url(#p15f8b38c6d)" style="fill: none; stroke: #b2b2b2; stroke-opacity: 0.35; stroke-width: 0.5; stroke-linecap: square"/>
   </g>
   <g id="line2d_4">
    <path d="M 8.64 25.44 
L 279.36 25.44 
" clip-path="url(#p15f8b38c6d)" style="fill: none; stroke: #b2b2b2; stroke-opacity: 0.35; stroke-width: 0.5; stroke-linecap: square"/>
   </g>
   <g id="line2d_5">
    <path d="M 8.64 90.00192 
L 11.693937 91.39512 
L 14.747874 91.63248 
L 17.801811 90.75528 
L 20.855748 88.7016 
L 23.909685 88.52616 
L 26.963623 87.45288 
L 30.01756 88.0308 
L 33.071497 88.94928 
L 36.125434 89.3208 
L 39.179371 89.7336 
L 42.233308 91.86984 
L 45.287245 88.60872 
L 48.341182 86.87496 
L 51.395119 88.52616 
L 54.449056 90.11544 
L 57.502993 90.38376 
L 60.556931 90.53856 
L 63.610868 90.08448 
L 66.664805 88.79448 
L 69.718742 89.20728 
L 72.772679 89.22792 
L 75.826616 90.31152 
L 78.880553 90.10512 
L 81.93449 91.09584 
L 84.988427 91.61184 
L 88.042364 91.31256 
L 91.096301 92.87088 
L 94.150238 93.8616 
L 97.204176 92.02464 
L 100.258113 92.13816 
L 103.31205 92.07624 
L 106.365987 92.14848 
L 109.419924 92.64384 
L 112.473861 93.01536 
L 115.527798 93.69648 
L 118.581735 93.11856 
L 121.635672 92.44776 
L 124.689609 92.30328 
L 127.743546 92.87088 
L 130.797484 92.38584 
L 133.851421 92.47872 
L 136.905358 91.88016 
L 139.959295 90.42504 
L 143.013232 90.08448 
L 146.067169 89.92968 
L 149.121106 88.76352 
L 152.175043 87.94824 
L 155.22898 89.2692 
L 158.282917 88.72224 
L 161.336854 89.39304 
L 164.390792 89.40336 
L 167.444729 88.41264 
L 170.498666 88.4952 
L 173.552603 86.86464 
L 176.60654 86.42088 
L 179.660477 87.62832 
L 182.714414 86.93688 
L 185.768351 87.23616 
L 188.822288 88.63968 
L 191.876225 90.0432 
L 194.930162 92.12784 
L 197.9841 91.16808 
L 201.038037 91.46736 
L 204.091974 91.73568 
L 207.145911 91.78728 
L 210.199848 94.0164 
L 213.253785 92.5716 
L 216.307722 91.76664 
L 219.361659 92.33424 
L 222.415596 94.36728 
L 225.469533 94.46016 
L 228.52347 97.71096 
L 231.577408 98.48496 
L 234.631345 97.85544 
L 237.209553 99.10416 
L 239.636479 100.16712 
L 242.688861 102.23112 
L 245.72972 100.54896 
L 248.853466 100.70376 
L 251.882201 100.68312 
L 254.953564 100.95144 
L 258.001174 101.28168 
L 261.044118 101.71512 
L 264.097136 101.84928 
L 267.114349 101.034 
L 270.007141 100.54896 
L 273.256968 101.04432 
L 275.92729 100.81728 
L 279.36 101.034 
" clip-path="url(#p15f8b38c6d)" style="fill: none; stroke: #bebebe; stroke-width: 0.5; stroke-linecap: round"/>
   </g>
   <g id="line2d_6">
    <path d="M 8.64 77.556 
L 11.693937 78.55704 
L 14.747874 78.50544 
L 17.801811 78.04104 
L 20.855748 75.76032 
L 23.909685 75.73968 
L 26.963623 74.65608 
L 30.01756 74.83152 
L 33.071497 74.57352 
L 36.125434 75.20304 
L 39.179371 75.17208 
L 42.233308 78.05136 
L 45.287245 75.1308 
L 48.341182 72.16896 
L 51.395119 73.08744 
L 54.449056 74.72832 
L 57.502993 74.48064 
L 60.556931 74.28456 
L 63.610868 73.21128 
L 66.664805 70.2804 
L 69.718742 70.2288 
L 72.772679 71.56008 
L 75.826616 73.79952 
L 78.880553 73.35576 
L 81.93449 74.0988 
L 84.988427 75.5952 
L 88.042364 75.5952 
L 91.096301 77.61792 
L 94.150238 77.63856 
L 97.204176 75.40944 
L 100.258113 75.40944 
L 103.31205 75.04824 
L 106.365987 74.98632 
L 109.419924 75.58488 
L 112.473861 75.87384 
L 115.527798 76.49304 
L 118.581735 76.15248 
L 121.635672 75.82224 
L 124.689609 75.84288 
L 127.743546 76.03896 
L 130.797484 75.51264 
L 133.851421 75.56424 
L 136.905358 75.05856 
L 139.959295 73.26288 
L 143.013232 73.20096 
L 146.067169 73.00488 
L 149.121106 71.68392 
L 152.175043 70.6932 
L 155.22898 72.62304 
L 158.282917 73.52088 
L 161.336854 73.83048 
L 164.390792 73.8408 
L 167.444729 73.29384 
L 170.498666 73.72728 
L 173.552603 70.32168 
L 176.60654 69.77472 
L 179.660477 70.34232 
L 182.714414 70.67256 
L 185.768351 70.51776 
L 188.822288 70.848 
L 191.876225 72.31344 
L 194.930162 76.01832 
L 197.9841 75.41976 
L 201.038037 75.83256 
L 204.091974 75.79128 
L 207.145911 75.82224 
L 210.199848 77.82432 
L 213.253785 76.14216 
L 216.307722 74.75928 
L 219.361659 74.96568 
L 222.415596 77.75208 
L 225.469533 79.48584 
L 228.52347 83.31456 
L 231.577408 85.90488 
L 234.631345 84.79032 
L 237.209553 85.84296 
L 239.636479 88.25784 
L 242.688861 91.41576 
L 245.72972 88.7532 
L 248.853466 88.65 
L 251.882201 88.55712 
L 254.953564 88.96992 
L 258.001174 89.7336 
L 261.044118 90.456 
L 264.097136 90.56952 
L 267.114349 89.15568 
L 270.007141 88.9596 
L 273.256968 90.6624 
L 275.92729 89.94 
L 279.36 90.00192 
" clip-path="url(#p15f8b38c6d)" style="fill: none; stroke: #4a8dff; stroke-width: 0.6"/>
   </g>
   <g id="line2d_7">
    <path d="M 8.64 86.92656 
L 11.693937 88.58808 
L 14.747874 88.96992 
L 17.801811 86.7924 
L 20.855748 85.296 
L 23.909685 86.24544 
L 26.963623 82.96368 
L 30.01756 82.13808 
L 33.071497 82.47864 
L 36.125434 82.58184 
L 39.179371 83.03592 
L 42.233308 87.3084 
L 45.287245 82.06584 
L 48.341182 79.71288 
L 51.395119 81.24024 
L 54.449056 84.17112 
L 57.502993 84.24336 
L 60.556931 83.29392 
L 63.610868 82.8192 
L 66.664805 80.64168 
L 69.718742 81.38472 
L 72.772679 80.87904 
L 75.826616 83.13912 
L 78.880553 83.19072 
L 81.93449 85.296 
L 84.988427 87.17424 
L 88.042364 85.71912 
L 91.096301 87.53544 
L 94.150238 88.17528 
L 97.204176 85.41984 
L 100.258113 85.17216 
L 103.31205 84.9348 
L 106.365987 85.01736 
L 109.419924 86.14224 
L 112.473861 85.90488 
L 115.527798 86.328 
L 118.581735 86.24544 
L 121.635672 85.72944 
L 124.689609 85.7088 
L 127.743546 86.40024 
L 130.797484 85.09992 
L 133.851421 86.02872 
L 136.905358 84.78 
L 139.959295 83.53128 
L 143.013232 82.83984 
L 146.067169 82.03488 
L 149.121106 79.39296 
L 152.175043 79.66128 
L 155.22898 82.15872 
L 158.282917 82.43736 
L 161.336854 82.93272 
L 164.390792 83.00496 
L 167.444729 82.6128 
L 170.498666 82.28256 
L 173.552603 78.01008 
L 176.60654 76.19376 
L 179.660477 77.66952 
L 182.714414 77.74176 
L 185.768351 78.1752 
L 188.822288 79.5684 
L 191.876225 80.8068 
L 194.930162 85.20312 
L 197.9841 84.12984 
L 201.038037 84.03696 
L 204.091974 84.06792 
L 207.145911 84.3156 
L 210.199848 87.02976 
L 213.253785 85.21344 
L 216.307722 84.28464 
L 219.361659 84.32592 
L 222.415596 89.08344 
L 225.469533 89.5272 
L 228.52347 95.14128 
L 231.577408 96.98856 
L 234.631345 95.08968 
L 237.209553 97.71096 
L 239.636479 99.80592 
L 242.688861 101.79768 
L 245.72972 100.03296 
L 248.853466 100.518 
L 251.882201 99.98136 
L 254.953564 100.49736 
L 258.001174 100.78632 
L 261.044118 101.07528 
L 264.097136 101.26104 
L 267.114349 100.63152 
L 270.007141 100.38384 
L 273.256968 100.84824 
L 275.92729 100.65216 
L 279.36 101.034 
" clip-path="url(#p15f8b38c6d)" style="fill: none; stroke: #f5841e; stroke-width: 0.6"/>
   </g>
  </g>
 </g>
 <defs>
  <clipPath id="p15f8b38c6d">
   <rect x="8.64" y="4.8" width="270.72" height="103.2"/>
  </clipPath>
 </defs>
</svg>
