<?xml version="1.0" encoding="utf-8" standalone="no"?>
<!DOCTYPE svg PUBLIC "-//W3C//DTD SVG 1.1//EN"
  "http://www.w3.org/Graphics/SVG/1.1/DTD/svg11.dtd">
<svg xmlns:xlink="http://www.w3.org/1999/xlink" width="288pt" height="120pt" viewBox="0 0 288 120" xmlns="http://www.w3.org/2000/svg" version="1.1">
<desc id="nav-meta">{"window":"1m","count":4,"labels":["09.02","19.02","28.02","10.03"],"tick_utc":["2026-02-09T03:34:10Z","2026-02-19T03:28:49Z","2026-02-28T03:01:05Z","2026-03-10T03:14:38Z"],"w":720,"h":300}</desc>

 <metadata>
  <rdf:RDF xmlns:dc="http://purl.org/dc/elements/1.1/" xmlns:cc="http://creativecommons.org/ns#" xmlns:rdf="http://www.w3.org/1999/02/22-rdf-syntax-ns#">
   <cc:Work>
    <dc:type rdf:resource="http://purl.org/dc/dcmitype/StillImage"/>
    <dc:date>2026-03-10T07:28:41.145118</dc:date>
    <dc:format>image/svg+xml</dc:format>
    <dc:creator>
     <cc:Agent>
      <dc:title>Matplotlib v3.10.8, https://matplotlib.org/</dc:title>
     </cc:Agent>
    </dc:creator>
   </cc:Work>
  </rdf:RDF>
 </metadata>
 <defs>
  <style type="text/css">*{stroke-linejoin: round; stroke-linecap: butt}</style>
 </defs>
 <g id="figure_1">
  <g id="patch_1">
   <path d="M 0 120 
L 288 120 
L 288 0 
L 0 0 
L 0 120 
z
" style="fill: none; opacity: 0"/>
  </g>
  <g id="axes_1">
   <g id="patch_2">
    <path d="M 8.64 108 
L 279.36 108 
L 279.36 4.8 
L 8.64 4.8 
L 8.64 108 
z
" style="fill: none"/>
   </g>
   <g id="matplotlib.axis_1"/>
   <g id="matplotlib.axis_2"/>
   <g id="line2d_1">
    <path d="M 8.64 87.36 
L 279.36 87.36 
" clip-path="url(#p7c4accd3c0)" style="fill: none; stroke: #b2b2b2; stroke-opacity: 0.35; stroke-width: 0.5; stroke-linecap: square"/>
   </g>
   <g id="line2d_2">
    <path d="M 8.64 66.72 
L 279.36 66.72 
" clip-path="url(#p7c4accd3c0)" style="fill: none; stroke: #b2b2b2; stroke-opacity: 0.35; stroke-width: 0.5; stroke-linecap: square"/>
   </g>
   <g id="line2d_3">
    <path d="M 8.64 46.08 
L 279.36 46.08 
" clip-path="url(#p7c4accd3c0)" style="fill: none; stroke: #b2b2b2; stroke-opacity: 0.35; stroke-width: 0.5; stroke-linecap: square"/>
   </g>
   <g id="line2d_4">
    <path d="M 8.64 25.44 
L 279.36 25.44 
" clip-path="url(#p7c4accd3c0)" style="fill: none; stroke: #b2b2b2; stroke-opacity: 0.35; stroke-width: 0.5; stroke-linecap: square"/>
   </g>
   <g id="line2d_5">
    <path d="M 8.64 100.68312 
L 18.032833 100.95144 
L 27.353024 101.28168 
L 36.658947 101.71512 
L 45.995678 101.84928 
L 55.222907 101.034 
L 64.069635 100.54896 
L 74.008247 101.04432 
L 82.174617 100.81728 
L 92.67252 101.034 
L 102.000711 101.4984 
L 111.285663 101.33328 
L 120.568129 101.1372 
L 130.014362 101.06496 
L 139.382008 102.09696 
L 147.932552 102.05568 
L 158.027472 101.4984 
L 167.325396 100.60056 
L 176.647209 100.80696 
L 185.876707 101.45712 
L 195.428442 100.55928 
L 204.671561 101.10624 
L 214.032829 100.8792 
L 223.320052 100.74504 
L 232.679699 100.21872 
L 242.014808 100.53864 
L 251.282681 101.07528 
L 260.712915 101.38488 
L 270.080453 101.26104 
L 279.36 100.78632 
" clip-path="url(#p7c4accd3c0)" style="fill: none; stroke: #bebebe; stroke-width: 0.5; stroke-linecap: round"/>
   </g>
   <g id="line2d_6">
    <path d="M 8.64 88.55712 
L 18.032833 88.96992 
L 27.353024 89.7336 
L 36.658947 90.456 
L 45.995678 90.56952 
L 55.222907 89.15568 
L 64.069635 88.9596 
L 74.008247 90.6624 
L 82.174617 89.94 
L 92.67252 90.00192 
L 102.000711 90.3528 
L 111.285663 90.62112 
L 120.568129 90.5076 
L 130.014362 90.3528 
L 139.382008 92.004 
L 147.932552 92.13816 
L 158.027472 91.25064 
L 167.325396 89.166 
L 176.647209 89.56848 
L 185.876707 90.93072 
L 195.428442 89.41368 
L 204.671561 90.37344 
L 214.032829 89.79552 
L 223.320052 90.23928 
L 232.679699 88.0824 
L 242.014808 88.7532 
L 251.282681 90.16704 
L 260.712915 90.67272 
L 270.080453 90.18768 
L 279.36 89.2692 
" clip-path="url(#p7c4accd3c0)" style="fill: none; stroke: #4a8dff; stroke-width: 0.6"/>
   </g>
   <g id="line2d_7">
    <path d="M 8.64 99.98136 
L 18.032833 100.49736 
L 27.353024 100.78632 
L 36.658947 101.07528 
L 45.995678 101.26104 
L 55.222907 100.63152 
L 64.069635 100.38384 
L 74.008247 100.84824 
L 82.174617 100.65216 
L 92.67252 101.034 
L 102.000711 101.19912 
L 111.285663 101.10624 
L 120.568129 100.97208 
L 130.014362 100.91016 
L 139.382008 101.7564 
L 147.932552 101.84928 
L 158.027472 101.56032 
L 167.325396 100.85856 
L 176.647209 101.12688 
L 185.876707 101.4468 
L 195.428442 101.02368 
L 204.671561 101.30232 
L 214.032829 100.81728 
L 223.320052 100.79664 
L 232.679699 99.3312 
L 242.014808 99.92976 
L 251.282681 100.78632 
L 260.712915 101.17848 
L 270.080453 101.1372 
L 279.36 100.21872 
" clip-path="url(#p7c4accd3c0)" style="fill: none; stroke: #f5841e; stroke-width: 0.6"/>
   </g>
  </g>
 </g>
 <defs>
  <clipPath id="p7c4accd3c0">
   <rect x="8.64" y="4.8" width="270.72" height="103.2"/>
  </clipPath>
 </defs>
</svg>
