<?xml version="1.0" encoding="utf-8" standalone="no"?>
<!DOCTYPE svg PUBLIC "-//W3C//DTD SVG 1.1//EN"
  "http://www.w3.org/Graphics/SVG/1.1/DTD/svg11.dtd">
<svg xmlns:xlink="http://www.w3.org/1999/xlink" width="288pt" height="120pt" viewBox="0 0 288 120" xmlns="http://www.w3.org/2000/svg" version="1.1">
<desc id="nav-meta">{"window":"3m","count":4,"labels":["27.01","26.02","27.03","26.04"],"tick_utc":["2026-01-27T12:00:00Z","2026-02-26T03:20:47Z","2026-03-27T03:41:18Z","2026-04-26T04:06:31Z"],"w":720,"h":300}</desc>

 <metadata>
  <rdf:RDF xmlns:dc="http://purl.org/dc/elements/1.1/" xmlns:cc="http://creativecommons.org/ns#" xmlns:rdf="http://www.w3.org/1999/02/22-rdf-syntax-ns#">
   <cc:Work>
    <dc:type rdf:resource="http://purl.org/dc/dcmitype/StillImage"/>
    <dc:date>2026-04-26T19:33:51.375092</dc:date>
    <dc:format>image/svg+xml</dc:format>
    <dc:creator>
     <cc:Agent>
      <dc:title>Matplotlib v3.10.9, https://matplotlib.org/</dc:title>
     </cc:Agent>
    </dc:creator>
   </cc:Work>
  </rdf:RDF>
 </metadata>
 <defs>
  <style type="text/css">*{stroke-linejoin: round; stroke-linecap: butt}</style>
 </defs>
 <g id="figure_1">
  <g id="patch_1">
   <path d="M 0 120 
L 288 120 
L 288 0 
L 0 0 
L 0 120 
z
" style="fill: none; opacity: 0"/>
  </g>
  <g id="axes_1">
   <g id="patch_2">
    <path d="M 8.64 108 
L 279.36 108 
L 279.36 4.8 
L 8.64 4.8 
L 8.64 108 
z
" style="fill: none"/>
   </g>
   <g id="matplotlib.axis_1"/>
   <g id="matplotlib.axis_2"/>
   <g id="line2d_1">
    <path d="M 8.64 87.36 
L 279.36 87.36 
" clip-path="url(#p5183907945)" style="fill: none; stroke: #b2b2b2; stroke-opacity: 0.35; stroke-width: 0.5; stroke-linecap: square"/>
   </g>
   <g id="line2d_2">
    <path d="M 8.64 66.72 
L 279.36 66.72 
" clip-path="url(#p5183907945)" style="fill: none; stroke: #b2b2b2; stroke-opacity: 0.35; stroke-width: 0.5; stroke-linecap: square"/>
   </g>
   <g id="line2d_3">
    <path d="M 8.64 46.08 
L 279.36 46.08 
" clip-path="url(#p5183907945)" style="fill: none; stroke: #b2b2b2; stroke-opacity: 0.35; stroke-width: 0.5; stroke-linecap: square"/>
   </g>
   <g id="line2d_4">
    <path d="M 8.64 25.44 
L 279.36 25.44 
" clip-path="url(#p5183907945)" style="fill: none; stroke: #b2b2b2; stroke-opacity: 0.35; stroke-width: 0.5; stroke-linecap: square"/>
   </g>
   <g id="line2d_5">
    <path d="M 8.64 92.5716 
L 11.693077 91.76664 
L 14.746155 92.33424 
L 17.799232 94.36728 
L 20.852309 94.46016 
L 23.905386 97.71096 
L 26.958464 98.48496 
L 30.011541 97.85544 
L 32.589024 99.10416 
L 35.015266 100.16712 
L 38.066788 102.23112 
L 41.106791 100.54896 
L 44.229658 100.70376 
L 47.25754 100.68312 
L 50.328038 100.95144 
L 53.37479 101.28168 
L 56.416878 101.71512 
L 59.469037 101.84928 
L 62.485399 101.034 
L 65.377377 100.54896 
L 68.626289 101.04432 
L 71.295859 100.81728 
L 74.727603 101.034 
L 77.77697 101.4984 
L 80.812202 101.33328 
L 83.846622 101.1372 
L 86.934576 101.06496 
L 89.996841 102.09696 
L 92.791997 102.05568 
L 96.092006 101.4984 
L 99.131478 100.60056 
L 102.17876 100.80696 
L 105.195865 101.45712 
L 108.318308 100.55928 
L 111.339865 101.10624 
L 114.400045 100.8792 
L 117.436019 100.74504 
L 120.495669 100.21872 
L 123.547298 100.53864 
L 126.576947 101.07528 
L 129.659671 101.38488 
L 132.721901 101.26104 
L 135.755366 100.78632 
L 138.807242 100.91016 
L 141.872334 100.99272 
L 144.91951 100.38384 
L 147.968523 100.50768 
L 151.080012 100.60056 
L 154.141711 99.76464 
L 157.14136 99.49632 
L 160.217724 99.40344 
L 163.271649 100.09488 
L 166.295008 100.3632 
L 169.330205 100.19808 
L 172.428937 100.47672 
L 175.489188 100.79664 
L 178.513996 100.26 
L 181.794464 99.83688 
L 184.657289 100.13616 
L 187.714218 100.80696 
L 190.738107 101.38488 
L 193.832776 101.3436 
L 196.894581 101.292 
L 199.9284 101.28168 
L 203.007662 101.28168 
L 206.020526 101.8596 
L 209.077101 101.88024 
L 212.10403 101.72544 
L 215.20308 101.68416 
L 218.264037 101.47776 
L 221.297291 101.78736 
L 224.355315 101.09592 
L 227.397756 101.46744 
L 230.478926 101.3436 
L 233.485323 101.05464 
L 236.593172 101.3952 
L 239.661904 101.47776 
L 242.695546 100.86888 
L 245.746291 101.26104 
L 248.812584 100.99272 
L 251.859442 100.61088 
L 254.878843 100.44576 
L 257.97224 100.94112 
L 261.032879 101.09592 
L 264.072564 101.00304 
L 267.116171 100.69344 
L 270.181616 100.9308 
L 273.242785 100.92048 
L 276.25943 100.81728 
L 279.36 100.8792 
" clip-path="url(#p5183907945)" style="fill: none; stroke: #bebebe; stroke-width: 0.5; stroke-linecap: round"/>
   </g>
   <g id="line2d_6">
    <path d="M 8.64 76.14216 
L 11.693077 74.75928 
L 14.746155 74.96568 
L 17.799232 77.75208 
L 20.852309 79.48584 
L 23.905386 83.31456 
L 26.958464 85.90488 
L 30.011541 84.79032 
L 32.589024 85.84296 
L 35.015266 88.25784 
L 38.066788 91.41576 
L 41.106791 88.7532 
L 44.229658 88.65 
L 47.25754 88.55712 
L 50.328038 88.96992 
L 53.37479 89.7336 
L 56.416878 90.456 
L 59.469037 90.56952 
L 62.485399 89.15568 
L 65.377377 88.9596 
L 68.626289 90.6624 
L 71.295859 89.94 
L 74.727603 90.00192 
L 77.77697 90.3528 
L 80.812202 90.62112 
L 83.846622 90.5076 
L 86.934576 90.3528 
L 89.996841 92.004 
L 92.791997 92.13816 
L 96.092006 91.25064 
L 99.131478 89.166 
L 102.17876 89.56848 
L 105.195865 90.93072 
L 108.318308 89.41368 
L 111.339865 90.37344 
L 114.400045 89.79552 
L 117.436019 90.23928 
L 120.495669 88.0824 
L 123.547298 88.7532 
L 126.576947 90.16704 
L 129.659671 90.67272 
L 132.721901 90.18768 
L 135.755366 89.2692 
L 138.807242 89.54784 
L 141.872334 89.49624 
L 144.91951 88.31976 
L 147.968523 88.45392 
L 151.080012 88.46424 
L 154.141711 86.38992 
L 157.14136 84.80064 
L 160.217724 84.8316 
L 163.271649 86.586 
L 166.295008 87.74184 
L 169.330205 87.618 
L 172.428937 88.19592 
L 175.489188 89.08344 
L 178.513996 87.89664 
L 181.794464 87.3084 
L 184.657289 87.65928 
L 187.714218 88.96992 
L 190.738107 90.07416 
L 193.832776 89.76456 
L 196.894581 89.3724 
L 199.9284 89.00088 
L 203.007662 88.42296 
L 206.020526 88.81512 
L 209.077101 89.10408 
L 212.10403 89.14536 
L 215.20308 89.07312 
L 218.264037 87.9792 
L 221.297291 88.29912 
L 224.355315 86.38992 
L 227.397756 87.24648 
L 230.478926 87.1536 
L 233.485323 86.21448 
L 236.593172 86.66856 
L 239.661904 87.01944 
L 242.695546 84.44976 
L 245.746291 85.05864 
L 248.812584 84.58392 
L 251.859442 85.04832 
L 254.878843 83.71704 
L 257.97224 84.86256 
L 261.032879 85.6572 
L 264.072564 85.27536 
L 267.116171 84.49104 
L 270.181616 84.86256 
L 273.242785 85.32696 
L 276.25943 85.17216 
L 279.36 85.31664 
" clip-path="url(#p5183907945)" style="fill: none; stroke: #4a8dff; stroke-width: 0.6"/>
   </g>
   <g id="line2d_7">
    <path d="M 8.64 85.21344 
L 11.693077 84.28464 
L 14.746155 84.32592 
L 17.799232 89.08344 
L 20.852309 89.5272 
L 23.905386 95.14128 
L 26.958464 96.98856 
L 30.011541 95.08968 
L 32.589024 97.71096 
L 35.015266 99.80592 
L 38.066788 101.79768 
L 41.106791 100.03296 
L 44.229658 100.518 
L 47.25754 99.98136 
L 50.328038 100.49736 
L 53.37479 100.78632 
L 56.416878 101.07528 
L 59.469037 101.26104 
L 62.485399 100.63152 
L 65.377377 100.38384 
L 68.626289 100.84824 
L 71.295859 100.65216 
L 74.727603 101.034 
L 77.77697 101.19912 
L 80.812202 101.10624 
L 83.846622 100.97208 
L 86.934576 100.91016 
L 89.996841 101.7564 
L 92.791997 101.84928 
L 96.092006 101.56032 
L 99.131478 100.85856 
L 102.17876 101.12688 
L 105.195865 101.4468 
L 108.318308 101.02368 
L 111.339865 101.30232 
L 114.400045 100.81728 
L 117.436019 100.79664 
L 120.495669 99.3312 
L 123.547298 99.92976 
L 126.576947 100.78632 
L 129.659671 101.17848 
L 132.721901 101.1372 
L 135.755366 100.21872 
L 138.807242 100.37352 
L 141.872334 100.4664 
L 144.91951 99.88848 
L 147.968523 99.94008 
L 151.080012 99.81624 
L 154.141711 98.93904 
L 157.14136 98.3508 
L 160.217724 98.52624 
L 163.271649 99.78528 
L 166.295008 100.12584 
L 169.330205 100.03296 
L 172.428937 100.45608 
L 175.489188 100.83792 
L 178.513996 100.11552 
L 181.794464 99.87816 
L 184.657289 100.002 
L 187.714218 100.64184 
L 190.738107 101.41584 
L 193.832776 101.21976 
L 196.894581 101.14752 
L 199.9284 101.00304 
L 203.007662 100.86888 
L 206.020526 101.21976 
L 209.077101 101.28168 
L 212.10403 101.20944 
L 215.20308 101.14752 
L 218.264037 100.55928 
L 221.297291 100.65216 
L 224.355315 99.80592 
L 227.397756 99.96072 
L 230.478926 99.6408 
L 233.485323 99.1764 
L 236.593172 99.70272 
L 239.661904 99.94008 
L 242.695546 98.57784 
L 245.746291 98.65008 
L 248.812584 98.38176 
L 251.859442 98.48496 
L 254.878843 96.70992 
L 257.97224 98.05152 
L 261.032879 98.48496 
L 264.072564 97.96896 
L 267.116171 96.32808 
L 270.181616 96.20424 
L 273.242785 96.16296 
L 276.25943 96.1836 
L 279.36 96.50352 
" clip-path="url(#p5183907945)" style="fill: none; stroke: #f5841e; stroke-width: 0.6"/>
   </g>
  </g>
 </g>
 <defs>
  <clipPath id="p5183907945">
   <rect x="8.64" y="4.8" width="270.72" height="103.2"/>
  </clipPath>
 </defs>
</svg>
