<?xml version="1.0" encoding="utf-8" standalone="no"?>
<!DOCTYPE svg PUBLIC "-//W3C//DTD SVG 1.1//EN"
  "http://www.w3.org/Graphics/SVG/1.1/DTD/svg11.dtd">
<svg xmlns:xlink="http://www.w3.org/1999/xlink" width="288pt" height="120pt" viewBox="0 0 288 120" xmlns="http://www.w3.org/2000/svg" version="1.1">
<desc id="nav-meta">{"window":"1m","count":4,"labels":["09.04","19.04","28.04","08.05"],"tick_utc":["2026-04-09T03:38:15Z","2026-04-19T03:58:52Z","2026-04-28T04:25:03Z","2026-05-08T04:01:19Z"],"w":720,"h":300}</desc>

 <metadata>
  <rdf:RDF xmlns:dc="http://purl.org/dc/elements/1.1/" xmlns:cc="http://creativecommons.org/ns#" xmlns:rdf="http://www.w3.org/1999/02/22-rdf-syntax-ns#">
   <cc:Work>
    <dc:type rdf:resource="http://purl.org/dc/dcmitype/StillImage"/>
    <dc:date>2026-05-08T14:26:06.354078</dc:date>
    <dc:format>image/svg+xml</dc:format>
    <dc:creator>
     <cc:Agent>
      <dc:title>Matplotlib v3.10.9, https://matplotlib.org/</dc:title>
     </cc:Agent>
    </dc:creator>
   </cc:Work>
  </rdf:RDF>
 </metadata>
 <defs>
  <style type="text/css">*{stroke-linejoin: round; stroke-linecap: butt}</style>
 </defs>
 <g id="figure_1">
  <g id="patch_1">
   <path d="M 0 120 
L 288 120 
L 288 0 
L 0 0 
L 0 120 
z
" style="fill: none; opacity: 0"/>
  </g>
  <g id="axes_1">
   <g id="patch_2">
    <path d="M 8.64 108 
L 279.36 108 
L 279.36 4.8 
L 8.64 4.8 
L 8.64 108 
z
" style="fill: none"/>
   </g>
   <g id="matplotlib.axis_1"/>
   <g id="matplotlib.axis_2"/>
   <g id="line2d_1">
    <path d="M 8.64 87.36 
L 279.36 87.36 
" clip-path="url(#p3665da776c)" style="fill: none; stroke: #b2b2b2; stroke-opacity: 0.35; stroke-width: 0.5; stroke-linecap: square"/>
   </g>
   <g id="line2d_2">
    <path d="M 8.64 66.72 
L 279.36 66.72 
" clip-path="url(#p3665da776c)" style="fill: none; stroke: #b2b2b2; stroke-opacity: 0.35; stroke-width: 0.5; stroke-linecap: square"/>
   </g>
   <g id="line2d_3">
    <path d="M 8.64 46.08 
L 279.36 46.08 
" clip-path="url(#p3665da776c)" style="fill: none; stroke: #b2b2b2; stroke-opacity: 0.35; stroke-width: 0.5; stroke-linecap: square"/>
   </g>
   <g id="line2d_4">
    <path d="M 8.64 25.44 
L 279.36 25.44 
" clip-path="url(#p3665da776c)" style="fill: none; stroke: #b2b2b2; stroke-opacity: 0.35; stroke-width: 0.5; stroke-linecap: square"/>
   </g>
   <g id="line2d_5">
    <path d="M 8.64 101.46744 
L 18.055868 101.3436 
L 27.243237 101.05464 
L 36.740635 101.3952 
L 46.118491 101.47776 
L 55.389118 100.86888 
L 64.71201 101.26104 
L 74.082415 100.99272 
L 83.393429 100.61088 
L 92.620536 100.44576 
L 102.073768 100.94112 
L 111.426896 101.09592 
L 120.715988 101.00304 
L 130.017066 100.69344 
L 139.38488 100.9308 
L 148.739628 100.92048 
L 157.958313 100.81728 
L 167.433465 100.8792 
L 176.86402 100.64184 
L 186.213584 101.1888 
L 195.518118 101.09592 
L 204.863795 101.37456 
L 214.295753 101.21976 
L 223.387662 101.20944 
L 232.907089 101.23008 
L 242.233868 100.92048 
L 251.358389 101.06496 
L 260.852763 100.70376 
L 270.185265 100.55928 
L 279.36 100.53864 
" clip-path="url(#p3665da776c)" style="fill: none; stroke: #bebebe; stroke-width: 0.5; stroke-linecap: round"/>
   </g>
   <g id="line2d_6">
    <path d="M 8.64 87.24648 
L 18.055868 87.1536 
L 27.243237 86.21448 
L 36.740635 86.66856 
L 46.118491 87.01944 
L 55.389118 84.44976 
L 64.71201 85.05864 
L 74.082415 84.58392 
L 83.393429 85.04832 
L 92.620536 83.71704 
L 102.073768 84.86256 
L 111.426896 85.6572 
L 120.715988 85.27536 
L 130.017066 84.49104 
L 139.38488 84.86256 
L 148.739628 85.32696 
L 157.958313 85.17216 
L 167.433465 85.31664 
L 176.86402 84.11952 
L 186.213584 85.66752 
L 195.518118 85.26504 
L 204.863795 86.26608 
L 214.295753 85.77072 
L 223.387662 85.38888 
L 232.907089 85.3992 
L 242.233868 84.09888 
L 251.358389 84.22272 
L 260.852763 84.34656 
L 270.185265 85.06896 
L 279.36 85.7604 
" clip-path="url(#p3665da776c)" style="fill: none; stroke: #4a8dff; stroke-width: 0.6"/>
   </g>
   <g id="line2d_7">
    <path d="M 8.64 99.96072 
L 18.055868 99.6408 
L 27.243237 99.1764 
L 36.740635 99.70272 
L 46.118491 99.94008 
L 55.389118 98.57784 
L 64.71201 98.65008 
L 74.082415 98.38176 
L 83.393429 98.48496 
L 92.620536 96.70992 
L 102.073768 98.05152 
L 111.426896 98.48496 
L 120.715988 97.96896 
L 130.017066 96.32808 
L 139.38488 96.20424 
L 148.739628 96.16296 
L 157.958313 96.1836 
L 167.433465 96.50352 
L 176.86402 94.76976 
L 186.213584 97.19496 
L 195.518118 96.9576 
L 204.863795 97.9896 
L 214.295753 96.89568 
L 223.387662 95.45088 
L 232.907089 95.67792 
L 242.233868 93.43848 
L 251.358389 92.90184 
L 260.852763 92.25168 
L 270.185265 92.87088 
L 279.36 94.2744 
" clip-path="url(#p3665da776c)" style="fill: none; stroke: #f5841e; stroke-width: 0.6"/>
   </g>
  </g>
 </g>
 <defs>
  <clipPath id="p3665da776c">
   <rect x="8.64" y="4.8" width="270.72" height="103.2"/>
  </clipPath>
 </defs>
</svg>
