<?xml version="1.0" encoding="utf-8" standalone="no"?>
<!DOCTYPE svg PUBLIC "-//W3C//DTD SVG 1.1//EN"
  "http://www.w3.org/Graphics/SVG/1.1/DTD/svg11.dtd">
<svg xmlns:xlink="http://www.w3.org/1999/xlink" width="288pt" height="120pt" viewBox="0 0 288 120" xmlns="http://www.w3.org/2000/svg" version="1.1">
<desc id="nav-meta">{"window":"1m","count":4,"labels":["07.06","17.06","27.06","07.07"],"tick_utc":["2026-06-07T05:11:57Z","2026-06-17T05:30:00Z","2026-06-27T04:39:58Z","2026-07-07T04:37:20Z"],"w":720,"h":300}</desc>

 <metadata>
  <rdf:RDF xmlns:dc="http://purl.org/dc/elements/1.1/" xmlns:cc="http://creativecommons.org/ns#" xmlns:rdf="http://www.w3.org/1999/02/22-rdf-syntax-ns#">
   <cc:Work>
    <dc:type rdf:resource="http://purl.org/dc/dcmitype/StillImage"/>
    <dc:date>2026-07-07T04:37:22.655682</dc:date>
    <dc:format>image/svg+xml</dc:format>
    <dc:creator>
     <cc:Agent>
      <dc:title>Matplotlib v3.11.0, https://matplotlib.org/</dc:title>
     </cc:Agent>
    </dc:creator>
   </cc:Work>
  </rdf:RDF>
 </metadata>
 <defs>
  <style type="text/css">*{stroke-linejoin: round; stroke-linecap: butt}</style>
 </defs>
 <g id="figure_1">
  <g id="patch_1">
   <path d="M 0 120 
L 288 120 
L 288 0 
L 0 0 
L 0 120 
z
" style="fill: none; opacity: 0"/>
  </g>
  <g id="axes_1">
   <g id="patch_2">
    <path d="M 8.64 108 
L 279.36 108 
L 279.36 4.8 
L 8.64 4.8 
L 8.64 108 
z
" style="fill: none"/>
   </g>
   <g id="matplotlib.axis_1"/>
   <g id="matplotlib.axis_2"/>
   <g id="line2d_1">
    <path d="M 8.64 87.36 
L 279.36 87.36 
" clip-path="url(#p439248d0af)" style="fill: none; stroke: #b2b2b2; stroke-opacity: 0.35; stroke-width: 0.5; stroke-linecap: square"/>
   </g>
   <g id="line2d_2">
    <path d="M 8.64 66.72 
L 279.36 66.72 
" clip-path="url(#p439248d0af)" style="fill: none; stroke: #b2b2b2; stroke-opacity: 0.35; stroke-width: 0.5; stroke-linecap: square"/>
   </g>
   <g id="line2d_3">
    <path d="M 8.64 46.08 
L 279.36 46.08 
" clip-path="url(#p439248d0af)" style="fill: none; stroke: #b2b2b2; stroke-opacity: 0.35; stroke-width: 0.5; stroke-linecap: square"/>
   </g>
   <g id="line2d_4">
    <path d="M 8.64 25.44 
L 279.36 25.44 
" clip-path="url(#p439248d0af)" style="fill: none; stroke: #b2b2b2; stroke-opacity: 0.35; stroke-width: 0.5; stroke-linecap: square"/>
   </g>
   <g id="line2d_5">
    <path d="M 8.64 103.85136 
L 17.711167 103.68624 
L 26.570036 103.43856 
L 35.694931 103.81008 
L 44.779163 103.72752 
L 53.845835 103.50048 
L 62.81101 103.5108 
L 71.907786 103.31472 
L 81.239228 102.95352 
L 90.321997 102.61296 
L 99.065572 102.6336 
L 108.053535 102.9948 
L 117.297486 103.28376 
L 125.967578 103.01544 
L 135.186757 102.69552 
L 144.482345 102.582 
L 152.973694 102.88128 
L 162.03723 103.15992 
L 171.066063 103.36632 
L 180.143606 103.36632 
L 189.064147 102.81936 
L 198.267542 103.0464 
L 207.364109 102.9432 
L 216.220261 102.59232 
L 225.383621 102.40656 
L 234.256707 102.02472 
L 243.189687 101.68416 
L 252.18204 101.3436 
L 261.345505 101.6532 
L 270.464232 101.6532 
L 279.36 101.63256 
" clip-path="url(#p439248d0af)" style="fill: none; stroke: #bebebe; stroke-width: 0.5; stroke-linecap: round"/>
   </g>
   <g id="line2d_6">
    <path d="M 8.64 95.93592 
L 17.711167 95.07936 
L 26.570036 94.46016 
L 35.694931 95.47152 
L 44.779163 95.11032 
L 53.845835 94.82136 
L 62.81101 94.8936 
L 71.907786 94.70784 
L 81.239228 94.04736 
L 90.321997 93.40752 
L 99.065572 92.9844 
L 108.053535 93.93384 
L 117.297486 94.4292 
L 125.967578 94.19184 
L 135.186757 93.87192 
L 144.482345 93.81 
L 152.973694 94.03704 
L 162.03723 94.83168 
L 171.066063 95.48184 
L 180.143606 96.63768 
L 189.064147 96.14232 
L 198.267542 96.30744 
L 207.364109 96.29712 
L 216.220261 96.04944 
L 225.383621 95.9256 
L 234.256707 95.39928 
L 243.189687 94.31568 
L 252.18204 93.57264 
L 261.345505 93.32496 
L 270.464232 93.22176 
L 279.36 93.35592 
" clip-path="url(#p439248d0af)" style="fill: none; stroke: #4a8dff; stroke-width: 0.6"/>
   </g>
   <g id="line2d_7">
    <path d="M 8.64 102.45816 
L 17.711167 102.28272 
L 26.570036 102.10728 
L 35.694931 102.582 
L 44.779163 102.29304 
L 53.845835 102.08664 
L 62.81101 102.066 
L 71.907786 101.86992 
L 81.239228 101.48808 
L 90.321997 101.40552 
L 99.065572 101.4984 
L 108.053535 101.97312 
L 117.297486 102.26208 
L 125.967578 102.066 
L 135.186757 101.90088 
L 144.482345 101.90088 
L 152.973694 102.0144 
L 162.03723 102.25176 
L 171.066063 102.6336 
L 180.143606 102.88128 
L 189.064147 102.77808 
L 198.267542 102.85032 
L 207.364109 102.93288 
L 216.220261 102.95352 
L 225.383621 103.00512 
L 234.256707 102.69552 
L 243.189687 102.55104 
L 252.18204 102.2724 
L 261.345505 102.21048 
L 270.464232 102.12792 
L 279.36 102.13824 
" clip-path="url(#p439248d0af)" style="fill: none; stroke: #f5841e; stroke-width: 0.6"/>
   </g>
  </g>
 </g>
 <defs>
  <clipPath id="p439248d0af">
   <rect x="8.64" y="4.8" width="270.72" height="103.2"/>
  </clipPath>
 </defs>
</svg>
