<?xml version="1.0" encoding="utf-8" standalone="no"?>
<!DOCTYPE svg PUBLIC "-//W3C//DTD SVG 1.1//EN"
  "http://www.w3.org/Graphics/SVG/1.1/DTD/svg11.dtd">
<svg xmlns:xlink="http://www.w3.org/1999/xlink" width="288pt" height="120pt" viewBox="0 0 288 120" xmlns="http://www.w3.org/2000/svg" version="1.1">
<desc id="nav-meta">{"window":"1m","count":4,"labels":["28.02","10.03","19.03","29.03"],"tick_utc":["2026-02-28T03:01:05Z","2026-03-10T03:14:38Z","2026-03-19T03:32:50Z","2026-03-29T03:47:09Z"],"w":720,"h":300}</desc>

 <metadata>
  <rdf:RDF xmlns:dc="http://purl.org/dc/elements/1.1/" xmlns:cc="http://creativecommons.org/ns#" xmlns:rdf="http://www.w3.org/1999/02/22-rdf-syntax-ns#">
   <cc:Work>
    <dc:type rdf:resource="http://purl.org/dc/dcmitype/StillImage"/>
    <dc:date>2026-03-29T07:37:53.844046</dc:date>
    <dc:format>image/svg+xml</dc:format>
    <dc:creator>
     <cc:Agent>
      <dc:title>Matplotlib v3.10.8, https://matplotlib.org/</dc:title>
     </cc:Agent>
    </dc:creator>
   </cc:Work>
  </rdf:RDF>
 </metadata>
 <defs>
  <style type="text/css">*{stroke-linejoin: round; stroke-linecap: butt}</style>
 </defs>
 <g id="figure_1">
  <g id="patch_1">
   <path d="M 0 120 
L 288 120 
L 288 0 
L 0 0 
L 0 120 
z
" style="fill: none; opacity: 0"/>
  </g>
  <g id="axes_1">
   <g id="patch_2">
    <path d="M 8.64 108 
L 279.36 108 
L 279.36 4.8 
L 8.64 4.8 
L 8.64 108 
z
" style="fill: none"/>
   </g>
   <g id="matplotlib.axis_1"/>
   <g id="matplotlib.axis_2"/>
   <g id="line2d_1">
    <path d="M 8.64 87.36 
L 279.36 87.36 
" clip-path="url(#p6e79b861ba)" style="fill: none; stroke: #b2b2b2; stroke-opacity: 0.35; stroke-width: 0.5; stroke-linecap: square"/>
   </g>
   <g id="line2d_2">
    <path d="M 8.64 66.72 
L 279.36 66.72 
" clip-path="url(#p6e79b861ba)" style="fill: none; stroke: #b2b2b2; stroke-opacity: 0.35; stroke-width: 0.5; stroke-linecap: square"/>
   </g>
   <g id="line2d_3">
    <path d="M 8.64 46.08 
L 279.36 46.08 
" clip-path="url(#p6e79b861ba)" style="fill: none; stroke: #b2b2b2; stroke-opacity: 0.35; stroke-width: 0.5; stroke-linecap: square"/>
   </g>
   <g id="line2d_4">
    <path d="M 8.64 25.44 
L 279.36 25.44 
" clip-path="url(#p6e79b861ba)" style="fill: none; stroke: #b2b2b2; stroke-opacity: 0.35; stroke-width: 0.5; stroke-linecap: square"/>
   </g>
   <g id="line2d_5">
    <path d="M 8.64 101.45712 
L 18.176746 100.55928 
L 27.405361 101.10624 
L 36.751941 100.8792 
L 46.02459 100.74504 
L 55.36955 100.21872 
L 64.690011 100.53864 
L 73.943341 101.07528 
L 83.358778 101.38488 
L 92.711617 101.26104 
L 101.976603 100.78632 
L 111.29782 100.91016 
L 120.659401 100.99272 
L 129.966263 100.38384 
L 139.278737 100.50768 
L 148.782026 100.60056 
L 158.133246 99.76464 
L 167.294946 99.49632 
L 176.690956 99.40344 
L 186.018432 100.09488 
L 195.252551 100.3632 
L 204.522826 100.19808 
L 213.987154 100.47672 
L 223.333949 100.79664 
L 232.572493 100.26 
L 242.591889 99.83688 
L 251.335696 100.13616 
L 260.672346 100.80696 
L 269.908084 101.38488 
L 279.36 101.3436 
" clip-path="url(#p6e79b861ba)" style="fill: none; stroke: #bebebe; stroke-width: 0.5; stroke-linecap: round"/>
   </g>
   <g id="line2d_6">
    <path d="M 8.64 90.93072 
L 18.176746 89.41368 
L 27.405361 90.37344 
L 36.751941 89.79552 
L 46.02459 90.23928 
L 55.36955 88.0824 
L 64.690011 88.7532 
L 73.943341 90.16704 
L 83.358778 90.67272 
L 92.711617 90.18768 
L 101.976603 89.2692 
L 111.29782 89.54784 
L 120.659401 89.49624 
L 129.966263 88.31976 
L 139.278737 88.45392 
L 148.782026 88.46424 
L 158.133246 86.38992 
L 167.294946 84.80064 
L 176.690956 84.8316 
L 186.018432 86.586 
L 195.252551 87.74184 
L 204.522826 87.618 
L 213.987154 88.19592 
L 223.333949 89.08344 
L 232.572493 87.89664 
L 242.591889 87.3084 
L 251.335696 87.65928 
L 260.672346 88.96992 
L 269.908084 90.07416 
L 279.36 89.76456 
" clip-path="url(#p6e79b861ba)" style="fill: none; stroke: #4a8dff; stroke-width: 0.6"/>
   </g>
   <g id="line2d_7">
    <path d="M 8.64 101.4468 
L 18.176746 101.02368 
L 27.405361 101.30232 
L 36.751941 100.81728 
L 46.02459 100.79664 
L 55.36955 99.3312 
L 64.690011 99.92976 
L 73.943341 100.78632 
L 83.358778 101.17848 
L 92.711617 101.1372 
L 101.976603 100.21872 
L 111.29782 100.37352 
L 120.659401 100.4664 
L 129.966263 99.88848 
L 139.278737 99.94008 
L 148.782026 99.81624 
L 158.133246 98.93904 
L 167.294946 98.3508 
L 176.690956 98.52624 
L 186.018432 99.78528 
L 195.252551 100.12584 
L 204.522826 100.03296 
L 213.987154 100.45608 
L 223.333949 100.83792 
L 232.572493 100.11552 
L 242.591889 99.87816 
L 251.335696 100.002 
L 260.672346 100.64184 
L 269.908084 101.41584 
L 279.36 101.21976 
" clip-path="url(#p6e79b861ba)" style="fill: none; stroke: #f5841e; stroke-width: 0.6"/>
   </g>
  </g>
 </g>
 <defs>
  <clipPath id="p6e79b861ba">
   <rect x="8.64" y="4.8" width="270.72" height="103.2"/>
  </clipPath>
 </defs>
</svg>
