<?xml version="1.0" encoding="utf-8" standalone="no"?>
<!DOCTYPE svg PUBLIC "-//W3C//DTD SVG 1.1//EN"
  "http://www.w3.org/Graphics/SVG/1.1/DTD/svg11.dtd">
<svg xmlns:xlink="http://www.w3.org/1999/xlink" width="288pt" height="120pt" viewBox="0 0 288 120" xmlns="http://www.w3.org/2000/svg" version="1.1">
<desc id="nav-meta">{"window":"3m","count":4,"labels":["09.04","09.05","07.06","07.07"],"tick_utc":["2026-04-09T03:38:15Z","2026-05-09T04:06:35Z","2026-06-07T05:11:57Z","2026-07-07T04:37:20Z"],"w":720,"h":300}</desc>

 <metadata>
  <rdf:RDF xmlns:dc="http://purl.org/dc/elements/1.1/" xmlns:cc="http://creativecommons.org/ns#" xmlns:rdf="http://www.w3.org/1999/02/22-rdf-syntax-ns#">
   <cc:Work>
    <dc:type rdf:resource="http://purl.org/dc/dcmitype/StillImage"/>
    <dc:date>2026-07-07T20:30:49.770952</dc:date>
    <dc:format>image/svg+xml</dc:format>
    <dc:creator>
     <cc:Agent>
      <dc:title>Matplotlib v3.11.0, https://matplotlib.org/</dc:title>
     </cc:Agent>
    </dc:creator>
   </cc:Work>
  </rdf:RDF>
 </metadata>
 <defs>
  <style type="text/css">*{stroke-linejoin: round; stroke-linecap: butt}</style>
 </defs>
 <g id="figure_1">
  <g id="patch_1">
   <path d="M 0 120 
L 288 120 
L 288 0 
L 0 0 
L 0 120 
z
" style="fill: none; opacity: 0"/>
  </g>
  <g id="axes_1">
   <g id="patch_2">
    <path d="M 8.64 108 
L 279.36 108 
L 279.36 4.8 
L 8.64 4.8 
L 8.64 108 
z
" style="fill: none"/>
   </g>
   <g id="matplotlib.axis_1"/>
   <g id="matplotlib.axis_2"/>
   <g id="line2d_1">
    <path d="M 8.64 87.36 
L 279.36 87.36 
" clip-path="url(#p2e8ebfc3f2)" style="fill: none; stroke: #b2b2b2; stroke-opacity: 0.35; stroke-width: 0.5; stroke-linecap: square"/>
   </g>
   <g id="line2d_2">
    <path d="M 8.64 66.72 
L 279.36 66.72 
" clip-path="url(#p2e8ebfc3f2)" style="fill: none; stroke: #b2b2b2; stroke-opacity: 0.35; stroke-width: 0.5; stroke-linecap: square"/>
   </g>
   <g id="line2d_3">
    <path d="M 8.64 46.08 
L 279.36 46.08 
" clip-path="url(#p2e8ebfc3f2)" style="fill: none; stroke: #b2b2b2; stroke-opacity: 0.35; stroke-width: 0.5; stroke-linecap: square"/>
   </g>
   <g id="line2d_4">
    <path d="M 8.64 25.44 
L 279.36 25.44 
" clip-path="url(#p2e8ebfc3f2)" style="fill: none; stroke: #b2b2b2; stroke-opacity: 0.35; stroke-width: 0.5; stroke-linecap: square"/>
   </g>
   <g id="line2d_5">
    <path d="M 8.64 101.46744 
L 11.708372 101.3436 
L 14.702282 101.05464 
L 17.797223 101.3952 
L 20.853208 101.47776 
L 23.874249 100.86888 
L 26.912323 101.26104 
L 29.96588 100.99272 
L 33.000083 100.61088 
L 36.006943 100.44576 
L 39.087491 100.94112 
L 42.135417 101.09592 
L 45.162477 101.00304 
L 48.193442 100.69344 
L 51.246154 100.9308 
L 54.294609 100.92048 
L 57.298724 100.81728 
L 60.386415 100.8792 
L 63.459573 100.64184 
L 66.506339 101.1888 
L 69.53843 101.09592 
L 72.583929 101.37456 
L 75.657544 101.21976 
L 78.620346 101.20944 
L 81.722465 101.23008 
L 84.761806 100.92048 
L 87.735236 101.06496 
L 90.829191 100.70376 
L 93.870396 100.55928 
L 96.860189 100.53864 
L 99.911705 99.60984 
L 103.013367 99.72336 
L 106.077762 99.44472 
L 109.075931 99.25896 
L 112.13079 99.32088 
L 115.167808 100.22904 
L 118.223195 100.01232 
L 121.224776 100.43544 
L 124.310567 100.75536 
L 127.380488 101.02368 
L 130.399101 101.02368 
L 133.450371 101.17848 
L 136.50808 100.7244 
L 139.525181 100.75536 
L 142.523807 101.11656 
L 145.612342 100.91016 
L 148.692749 100.89984 
L 151.687082 101.1372 
L 154.758691 101.2404 
L 157.789375 101.6532 
L 160.832023 101.4984 
L 163.828573 101.48808 
L 166.931044 101.32296 
L 170.016412 101.51904 
L 173.026897 101.7048 
L 176.101498 102.54072 
L 179.131478 103.08768 
L 182.121799 103.36632 
L 185.115463 104.22288 
L 188.221206 103.85136 
L 191.275045 103.68624 
L 194.257413 103.43856 
L 197.329339 103.81008 
L 200.387577 103.72752 
L 203.439902 103.50048 
L 206.458058 103.5108 
L 209.520518 103.31472 
L 212.661979 102.95352 
L 215.719724 102.61296 
L 218.663278 102.6336 
L 221.689105 102.9948 
L 224.801113 103.28376 
L 227.719928 103.01544 
L 230.823595 102.69552 
L 233.952986 102.582 
L 236.811627 102.88128 
L 239.862897 103.15992 
L 242.902484 103.36632 
L 245.958469 103.36632 
L 248.961599 102.81936 
L 252.059953 103.0464 
L 255.122342 102.9432 
L 258.103796 102.59232 
L 261.188672 102.40656 
L 264.175826 102.02472 
L 267.183143 101.68416 
L 270.210449 101.3436 
L 273.29536 101.6532 
L 276.36521 101.6532 
L 279.36 101.63256 
" clip-path="url(#p2e8ebfc3f2)" style="fill: none; stroke: #bebebe; stroke-width: 0.5; stroke-linecap: round"/>
   </g>
   <g id="line2d_6">
    <path d="M 8.64 87.24648 
L 11.708372 87.1536 
L 14.702282 86.21448 
L 17.797223 86.66856 
L 20.853208 87.01944 
L 23.874249 84.44976 
L 26.912323 85.05864 
L 29.96588 84.58392 
L 33.000083 85.04832 
L 36.006943 83.71704 
L 39.087491 84.86256 
L 42.135417 85.6572 
L 45.162477 85.27536 
L 48.193442 84.49104 
L 51.246154 84.86256 
L 54.294609 85.32696 
L 57.298724 85.17216 
L 60.386415 85.31664 
L 63.459573 84.11952 
L 66.506339 85.66752 
L 69.53843 85.26504 
L 72.583929 86.26608 
L 75.657544 85.77072 
L 78.620346 85.38888 
L 81.722465 85.3992 
L 84.761806 84.09888 
L 87.735236 84.22272 
L 90.829191 84.34656 
L 93.870396 85.06896 
L 96.860189 85.7604 
L 99.911705 85.0896 
L 103.013367 85.01736 
L 106.077762 84.9348 
L 109.075931 85.296 
L 112.13079 85.35792 
L 115.167808 86.1732 
L 118.223195 85.92552 
L 121.224776 86.55504 
L 124.310567 87.13296 
L 127.380488 88.10304 
L 130.399101 87.9276 
L 133.450371 88.26816 
L 136.50808 87.78312 
L 139.525181 87.95856 
L 142.523807 88.94928 
L 145.612342 88.14432 
L 148.692749 88.33008 
L 151.687082 88.52616 
L 154.758691 88.86672 
L 157.789375 90.22896 
L 160.832023 89.82648 
L 163.828573 89.87808 
L 166.931044 89.46528 
L 170.016412 90.0432 
L 173.026897 89.96064 
L 176.101498 91.99368 
L 179.131478 93.05664 
L 182.121799 93.74808 
L 185.115463 97.02984 
L 188.221206 95.93592 
L 191.275045 95.07936 
L 194.257413 94.46016 
L 197.329339 95.47152 
L 200.387577 95.11032 
L 203.439902 94.82136 
L 206.458058 94.8936 
L 209.520518 94.70784 
L 212.661979 94.04736 
L 215.719724 93.40752 
L 218.663278 92.9844 
L 221.689105 93.93384 
L 224.801113 94.4292 
L 227.719928 94.19184 
L 230.823595 93.87192 
L 233.952986 93.81 
L 236.811627 94.03704 
L 239.862897 94.83168 
L 242.902484 95.48184 
L 245.958469 96.63768 
L 248.961599 96.14232 
L 252.059953 96.30744 
L 255.122342 96.29712 
L 258.103796 96.04944 
L 261.188672 95.9256 
L 264.175826 95.39928 
L 267.183143 94.31568 
L 270.210449 93.57264 
L 273.29536 93.32496 
L 276.36521 93.22176 
L 279.36 93.35592 
" clip-path="url(#p2e8ebfc3f2)" style="fill: none; stroke: #4a8dff; stroke-width: 0.6"/>
   </g>
   <g id="line2d_7">
    <path d="M 8.64 99.96072 
L 11.708372 99.6408 
L 14.702282 99.1764 
L 17.797223 99.70272 
L 20.853208 99.94008 
L 23.874249 98.57784 
L 26.912323 98.65008 
L 29.96588 98.38176 
L 33.000083 98.48496 
L 36.006943 96.70992 
L 39.087491 98.05152 
L 42.135417 98.48496 
L 45.162477 97.96896 
L 48.193442 96.32808 
L 51.246154 96.20424 
L 54.294609 96.16296 
L 57.298724 96.1836 
L 60.386415 96.50352 
L 63.459573 94.76976 
L 66.506339 97.19496 
L 69.53843 96.9576 
L 72.583929 97.9896 
L 75.657544 96.89568 
L 78.620346 95.45088 
L 81.722465 95.67792 
L 84.761806 93.43848 
L 87.735236 92.90184 
L 90.829191 92.25168 
L 93.870396 92.87088 
L 96.860189 94.2744 
L 99.911705 93.1392 
L 103.013367 92.97408 
L 106.077762 92.9844 
L 109.075931 92.60256 
L 112.13079 92.53032 
L 115.167808 94.54272 
L 118.223195 92.85024 
L 121.224776 94.82136 
L 124.310567 95.75016 
L 127.380488 96.97824 
L 130.399101 97.08144 
L 133.450371 97.23624 
L 136.50808 95.94624 
L 139.525181 96.30744 
L 142.523807 98.08248 
L 145.612342 97.2672 
L 148.692749 96.61704 
L 151.687082 97.23624 
L 154.758691 98.08248 
L 157.789375 99.18672 
L 160.832023 99.03192 
L 163.828573 99.1248 
L 166.931044 98.74296 
L 170.016412 99.09384 
L 173.026897 100.0536 
L 176.101498 101.23008 
L 179.131478 101.99376 
L 182.121799 102.08664 
L 185.115463 102.8916 
L 188.221206 102.45816 
L 191.275045 102.28272 
L 194.257413 102.10728 
L 197.329339 102.582 
L 200.387577 102.29304 
L 203.439902 102.08664 
L 206.458058 102.066 
L 209.520518 101.86992 
L 212.661979 101.48808 
L 215.719724 101.40552 
L 218.663278 101.4984 
L 221.689105 101.97312 
L 224.801113 102.26208 
L 227.719928 102.066 
L 230.823595 101.90088 
L 233.952986 101.90088 
L 236.811627 102.0144 
L 239.862897 102.25176 
L 242.902484 102.6336 
L 245.958469 102.88128 
L 248.961599 102.77808 
L 252.059953 102.85032 
L 255.122342 102.93288 
L 258.103796 102.95352 
L 261.188672 103.00512 
L 264.175826 102.69552 
L 267.183143 102.55104 
L 270.210449 102.2724 
L 273.29536 102.21048 
L 276.36521 102.12792 
L 279.36 102.13824 
" clip-path="url(#p2e8ebfc3f2)" style="fill: none; stroke: #f5841e; stroke-width: 0.6"/>
   </g>
  </g>
 </g>
 <defs>
  <clipPath id="p2e8ebfc3f2">
   <rect x="8.64" y="4.8" width="270.72" height="103.2"/>
  </clipPath>
 </defs>
</svg>
