<?xml version="1.0" encoding="utf-8" standalone="no"?>
<!DOCTYPE svg PUBLIC "-//W3C//DTD SVG 1.1//EN"
  "http://www.w3.org/Graphics/SVG/1.1/DTD/svg11.dtd">
<svg xmlns:xlink="http://www.w3.org/1999/xlink" width="288pt" height="120pt" viewBox="0 0 288 120" xmlns="http://www.w3.org/2000/svg" version="1.1">
<desc id="nav-meta">{"window":"1y","count":4,"labels":["23.05","22.09","21.01","23.05"],"tick_utc":["2025-05-23T12:00:00Z","2025-09-22T12:00:00Z","2026-01-21T12:00:00Z","2026-05-23T04:28:38Z"],"w":720,"h":300}</desc>

 <metadata>
  <rdf:RDF xmlns:dc="http://purl.org/dc/elements/1.1/" xmlns:cc="http://creativecommons.org/ns#" xmlns:rdf="http://www.w3.org/1999/02/22-rdf-syntax-ns#">
   <cc:Work>
    <dc:type rdf:resource="http://purl.org/dc/dcmitype/StillImage"/>
    <dc:date>2026-05-23T08:37:07.817218</dc:date>
    <dc:format>image/svg+xml</dc:format>
    <dc:creator>
     <cc:Agent>
      <dc:title>Matplotlib v3.10.9, https://matplotlib.org/</dc:title>
     </cc:Agent>
    </dc:creator>
   </cc:Work>
  </rdf:RDF>
 </metadata>
 <defs>
  <style type="text/css">*{stroke-linejoin: round; stroke-linecap: butt}</style>
 </defs>
 <g id="figure_1">
  <g id="patch_1">
   <path d="M 0 120 
L 288 120 
L 288 0 
L 0 0 
L 0 120 
z
" style="fill: none; opacity: 0"/>
  </g>
  <g id="axes_1">
   <g id="patch_2">
    <path d="M 8.64 108 
L 279.36 108 
L 279.36 4.8 
L 8.64 4.8 
L 8.64 108 
z
" style="fill: none"/>
   </g>
   <g id="matplotlib.axis_1"/>
   <g id="matplotlib.axis_2"/>
   <g id="line2d_1">
    <path d="M 8.64 87.36 
L 279.36 87.36 
" clip-path="url(#pd639c17cd6)" style="fill: none; stroke: #b2b2b2; stroke-opacity: 0.35; stroke-width: 0.5; stroke-linecap: square"/>
   </g>
   <g id="line2d_2">
    <path d="M 8.64 66.72 
L 279.36 66.72 
" clip-path="url(#pd639c17cd6)" style="fill: none; stroke: #b2b2b2; stroke-opacity: 0.35; stroke-width: 0.5; stroke-linecap: square"/>
   </g>
   <g id="line2d_3">
    <path d="M 8.64 46.08 
L 279.36 46.08 
" clip-path="url(#pd639c17cd6)" style="fill: none; stroke: #b2b2b2; stroke-opacity: 0.35; stroke-width: 0.5; stroke-linecap: square"/>
   </g>
   <g id="line2d_4">
    <path d="M 8.64 25.44 
L 279.36 25.44 
" clip-path="url(#pd639c17cd6)" style="fill: none; stroke: #b2b2b2; stroke-opacity: 0.35; stroke-width: 0.5; stroke-linecap: square"/>
   </g>
   <g id="line2d_5">
    <path d="M 8.64 77.43216 
L 9.382336 78.846 
L 10.124672 78.41256 
L 10.867008 78.64992 
L 11.609344 78.76344 
L 12.351681 78.25776 
L 13.094017 79.47552 
L 13.836353 80.92032 
L 14.578689 83.73768 
L 15.321025 83.6448 
L 16.063361 83.4384 
L 16.805697 83.61384 
L 17.548033 83.99568 
L 18.29037 84.55296 
L 19.032706 87.00912 
L 19.775042 85.98744 
L 20.517378 85.5024 
L 21.259714 84.8316 
L 22.00205 82.46832 
L 22.744386 81.426 
L 23.486722 82.5096 
L 24.229059 84.79032 
L 25.713731 86.95752 
L 26.456067 84.79032 
L 27.198403 85.13088 
L 27.940739 86.07 
L 28.683075 86.5344 
L 29.425411 86.31768 
L 30.910084 89.97096 
L 31.65242 90.48696 
L 32.394756 86.9472 
L 33.137092 86.66856 
L 33.879428 87.32904 
L 34.621764 88.53648 
L 35.3641 87.6696 
L 36.106437 85.30632 
L 36.848773 84.61488 
L 37.591109 84.17112 
L 38.333445 86.3796 
L 39.075781 84.92448 
L 39.818117 84.89352 
L 40.560453 86.13192 
L 41.302789 86.1732 
L 42.045125 84.99672 
L 42.787462 85.85328 
L 43.529798 85.01736 
L 44.272134 83.55192 
L 45.01447 81.7356 
L 45.756806 82.03488 
L 46.499142 82.65408 
L 47.983814 82.15872 
L 48.726151 81.70464 
L 49.468487 79.01112 
L 50.210823 78.39192 
L 50.953159 78.04104 
L 51.695495 78.16488 
L 52.437831 77.05032 
L 53.180167 72.82944 
L 53.922503 70.41456 
L 54.66484 74.69736 
L 55.407176 76.6272 
L 56.149512 75.63648 
L 56.891848 75.97704 
L 57.634184 74.976 
L 58.37652 76.49304 
L 59.118856 76.99872 
L 59.861192 77.90688 
L 60.603529 79.4652 
L 61.345865 82.02456 
L 62.088201 83.19072 
L 62.830537 82.27224 
L 63.572873 80.21856 
L 64.315209 81.67368 
L 65.057545 80.5488 
L 65.799881 78.588 
L 66.542218 78.19584 
L 67.284554 77.21544 
L 68.02689 76.524 
L 68.769226 78.68088 
L 69.511562 73.88208 
L 70.253898 71.364 
L 70.996234 73.8408 
L 71.73857 75.79128 
L 72.480907 74.65608 
L 73.223243 74.14008 
L 73.965579 76.50336 
L 74.707915 78.30936 
L 75.450251 75.3372 
L 76.192587 77.25672 
L 76.934923 71.78712 
L 77.677259 70.75512 
L 78.419595 70.24944 
L 79.161932 75.35784 
L 79.904268 72.95328 
L 80.646604 70.96152 
L 81.38894 67.87584 
L 82.131276 70.46616 
L 82.873612 71.11632 
L 83.615948 71.61168 
L 84.358284 72.7056 
L 85.100621 69.33096 
L 85.842957 68.9388 
L 86.585293 71.12664 
L 87.327629 70.90992 
L 88.069965 71.80776 
L 88.812301 70.074 
L 89.554637 68.01 
L 90.296973 67.10184 
L 91.03931 65.29584 
L 91.781646 64.01616 
L 92.523982 60.31128 
L 93.266318 60.19776 
L 94.008654 60.786 
L 94.75099 62.61264 
L 95.493326 61.74576 
L 96.235662 59.57856 
L 96.977999 58.86648 
L 97.720335 61.38456 
L 98.462671 61.07496 
L 99.205007 61.83864 
L 99.947343 66.29688 
L 100.689679 67.97904 
L 101.432015 68.69112 
L 102.174351 73.9956 
L 102.916688 70.45584 
L 103.659024 70.87896 
L 104.40136 68.91816 
L 105.143696 68.3196 
L 105.886032 69.47544 
L 107.370704 62.39592 
L 108.11304 62.81904 
L 108.855376 64.22256 
L 109.597713 64.05744 
L 110.340049 62.9532 
L 111.082385 66.14208 
L 111.824721 63.91296 
L 112.567057 66.17304 
L 113.309393 74.6148 
L 114.051729 77.78304 
L 114.794065 72.66432 
L 115.536402 69.69216 
L 116.278738 71.09568 
L 117.76341 76.06992 
L 118.505746 76.76136 
L 119.248082 75.25464 
L 119.990418 75.24432 
L 120.732754 74.63544 
L 121.475091 75.73968 
L 122.217427 77.31864 
L 122.959763 74.202 
L 123.702099 73.64472 
L 124.444435 73.48992 
L 125.186771 71.83872 
L 125.929107 72.17928 
L 126.671443 73.38672 
L 127.41378 73.43832 
L 128.156116 76.15248 
L 128.898452 75.3372 
L 129.640788 75.58488 
L 130.383124 75.35784 
L 131.12546 81.168 
L 131.867796 84.01632 
L 132.610132 82.06584 
L 133.352469 84.19176 
L 134.094805 82.27224 
L 134.837141 83.29392 
L 135.579477 81.62208 
L 136.321813 80.72424 
L 137.064149 84.33624 
L 137.806485 84.64584 
L 138.548821 86.844 
L 139.291157 88.52616 
L 140.033494 88.36104 
L 140.77583 88.93896 
L 141.518166 90.79656 
L 142.260502 88.09272 
L 143.002838 89.22792 
L 143.745174 90.00192 
L 144.48751 91.39512 
L 145.229846 91.63248 
L 145.972183 90.75528 
L 146.714519 88.7016 
L 147.456855 88.52616 
L 148.199191 87.45288 
L 148.941527 88.0308 
L 149.683863 88.94928 
L 151.168535 89.7336 
L 151.910872 91.86984 
L 152.653208 88.60872 
L 153.395544 86.87496 
L 154.880216 90.11544 
L 156.364888 90.53856 
L 157.107224 90.08448 
L 157.849561 88.79448 
L 158.591897 89.20728 
L 159.334233 89.22792 
L 160.076569 90.31152 
L 160.818905 90.10512 
L 161.561241 91.09584 
L 162.303577 91.61184 
L 163.045913 91.31256 
L 163.78825 92.87088 
L 164.530586 93.8616 
L 165.272922 92.02464 
L 166.015258 92.13816 
L 166.757594 92.07624 
L 167.49993 92.14848 
L 169.726938 93.69648 
L 171.211611 92.44776 
L 171.953947 92.30328 
L 172.696283 92.87088 
L 173.438619 92.38584 
L 174.180955 92.47872 
L 174.923291 91.88016 
L 175.665627 90.42504 
L 176.407964 90.08448 
L 177.1503 89.92968 
L 177.892636 88.76352 
L 178.634972 87.94824 
L 179.377308 89.2692 
L 180.119644 88.72224 
L 180.86198 89.39304 
L 181.604316 89.40336 
L 182.346653 88.41264 
L 183.088989 88.4952 
L 183.831325 86.86464 
L 184.573661 86.42088 
L 185.315997 87.62832 
L 186.058333 86.93688 
L 186.800669 87.23616 
L 188.285342 90.0432 
L 189.027678 92.12784 
L 189.770014 91.16808 
L 191.254686 91.73568 
L 191.997022 91.78728 
L 192.739358 94.0164 
L 193.481694 92.5716 
L 194.224031 91.76664 
L 194.966367 92.33424 
L 195.708703 94.36728 
L 196.451039 94.46016 
L 197.193375 97.71096 
L 197.935711 98.48496 
L 198.678047 97.85544 
L 199.894671 100.16712 
L 200.636629 102.23112 
L 201.375786 100.54896 
L 202.135091 100.70376 
L 202.871301 100.68312 
L 204.358671 101.28168 
L 205.098335 101.71512 
L 205.840448 101.84928 
L 206.573857 101.034 
L 207.277023 100.54896 
L 208.066975 101.04432 
L 208.716064 100.81728 
L 209.550471 101.034 
L 210.291904 101.4984 
L 212.518518 101.06496 
L 213.263088 102.09696 
L 213.942712 102.05568 
L 214.745088 101.4984 
L 215.484116 100.60056 
L 216.225043 100.80696 
L 216.958633 101.45712 
L 217.717835 100.55928 
L 218.452507 101.10624 
L 219.934748 100.74504 
L 220.678682 100.21872 
L 221.420666 100.53864 
L 222.157305 101.07528 
L 222.90685 101.38488 
L 223.651411 101.26104 
L 224.388979 100.78632 
L 225.87628 100.99272 
L 226.617182 100.38384 
L 228.115068 100.60056 
L 228.859501 99.76464 
L 229.588846 99.49632 
L 230.336844 99.40344 
L 231.079387 100.09488 
L 231.814497 100.3632 
L 232.552486 100.19808 
L 234.050003 100.79664 
L 234.785465 100.26 
L 235.58309 99.83688 
L 236.279168 100.13616 
L 237.757679 101.38488 
L 240.740943 101.28168 
L 241.473501 101.8596 
L 242.216688 101.88024 
L 242.952666 101.72544 
L 243.70618 101.68416 
L 244.450432 101.47776 
L 245.187948 101.78736 
L 245.931487 101.09592 
L 246.671237 101.46744 
L 247.420404 101.3436 
L 248.15139 101.05464 
L 248.907044 101.3952 
L 249.653186 101.47776 
L 250.390797 100.86888 
L 251.132566 101.26104 
L 253.353087 100.44576 
L 254.105227 100.94112 
L 254.849402 101.09592 
L 255.588481 101.00304 
L 256.328515 100.69344 
L 257.073858 100.9308 
L 259.305523 100.8792 
L 260.055858 100.64184 
L 260.79975 101.1888 
L 261.540058 101.09592 
L 262.28364 101.37456 
L 263.034087 101.21976 
L 264.514884 101.23008 
L 265.256963 100.92048 
L 265.982948 101.06496 
L 266.738361 100.70376 
L 267.480895 100.55928 
L 268.210876 100.53864 
L 268.955927 99.60984 
L 269.713222 99.72336 
L 271.193443 99.25896 
L 271.939311 99.32088 
L 272.680822 100.22904 
L 273.426818 100.01232 
L 274.913097 100.75536 
L 275.662642 101.02368 
L 276.39966 101.02368 
L 277.144651 101.17848 
L 277.891214 100.7244 
L 278.627862 100.75536 
L 279.36 101.11656 
L 279.36 101.11656 
" clip-path="url(#pd639c17cd6)" style="fill: none; stroke: #bebebe; stroke-width: 0.5; stroke-linecap: round"/>
   </g>
   <g id="line2d_6">
    <path d="M 8.64 80.15664 
L 9.382336 82.18968 
L 10.867008 81.79752 
L 11.609344 81.56016 
L 12.351681 80.0844 
L 13.094017 79.86768 
L 13.836353 80.50752 
L 14.578689 82.12776 
L 16.063361 81.92136 
L 16.805697 80.8584 
L 17.548033 81.07512 
L 18.29037 80.84808 
L 19.032706 83.6448 
L 19.775042 82.7676 
L 20.517378 82.0968 
L 21.259714 82.3548 
L 22.00205 79.74384 
L 22.744386 77.90688 
L 23.486722 78.39192 
L 24.229059 80.21856 
L 24.971395 81.34344 
L 25.713731 81.98328 
L 27.198403 81.5808 
L 27.940739 82.26192 
L 29.425411 82.15872 
L 30.167748 83.88216 
L 30.910084 85.89456 
L 31.65242 86.5344 
L 32.394756 83.61384 
L 33.137092 83.2836 
L 33.879428 83.71704 
L 34.621764 83.748 
L 36.106437 83.41776 
L 36.848773 82.44768 
L 37.591109 82.6644 
L 38.333445 83.89248 
L 39.075781 81.38472 
L 39.818117 81.14736 
L 40.560453 82.34448 
L 41.302789 82.23096 
L 42.045125 81.426 
L 42.787462 81.8388 
L 43.529798 80.76552 
L 45.01447 75.83256 
L 45.756806 75.67776 
L 46.499142 75.91512 
L 47.983814 74.88312 
L 48.726151 73.09776 
L 49.468487 69.6096 
L 50.210823 67.91712 
L 50.953159 66.94704 
L 51.695495 66.24528 
L 52.437831 63.80976 
L 53.180167 63.70656 
L 53.922503 63.9852 
L 54.66484 65.71896 
L 55.407176 64.5528 
L 56.891848 64.05744 
L 57.634184 62.25144 
L 58.37652 63.39696 
L 59.118856 63.366 
L 59.861192 63.08736 
L 60.603529 64.72824 
L 61.345865 67.89648 
L 62.088201 69.16584 
L 62.830537 67.69008 
L 63.572873 64.4496 
L 64.315209 65.97696 
L 65.057545 64.914 
L 65.799881 61.54968 
L 66.542218 60.04296 
L 67.284554 56.28648 
L 68.02689 56.47224 
L 68.769226 56.83344 
L 69.511562 51.22968 
L 70.253898 48.89736 
L 70.996234 52.00368 
L 71.73857 53.84064 
L 72.480907 53.90256 
L 73.223243 53.00472 
L 73.965579 55.5228 
L 74.707915 59.12448 
L 75.450251 55.32672 
L 76.192587 56.90568 
L 76.934923 47.92728 
L 77.677259 48.75288 
L 78.419595 48.68064 
L 79.161932 54.57336 
L 79.904268 51.2916 
L 80.646604 52.80864 
L 81.38894 52.69512 
L 82.131276 54.82104 
L 83.615948 54.45984 
L 84.358284 55.7292 
L 85.100621 55.39896 
L 85.842957 53.55168 
L 86.585293 55.81176 
L 87.327629 55.6776 
L 88.069965 56.18328 
L 88.812301 55.71888 
L 90.296973 55.63632 
L 91.03931 55.07904 
L 91.781646 53.41752 
L 92.523982 49.71264 
L 93.266318 50.32152 
L 94.008654 51.17808 
L 94.75099 52.44744 
L 95.493326 52.74672 
L 96.235662 51.4464 
L 96.977999 51.46704 
L 97.720335 53.2524 
L 98.462671 53.08728 
L 99.205007 53.5104 
L 99.947343 57.26688 
L 100.689679 57.76224 
L 101.432015 58.02024 
L 102.174351 62.26176 
L 102.916688 59.68176 
L 103.659024 59.9604 
L 104.40136 58.12344 
L 105.143696 57.02952 
L 105.886032 58.09248 
L 106.628368 55.13064 
L 107.370704 53.046 
L 108.11304 52.5816 
L 108.855376 52.9944 
L 109.597713 52.5816 
L 110.340049 50.0016 
L 111.082385 53.48976 
L 111.824721 52.40616 
L 112.567057 54.75912 
L 113.309393 62.67456 
L 114.051729 63.95424 
L 114.794065 57.86544 
L 115.536402 56.57544 
L 116.278738 58.31952 
L 117.021074 60.4764 
L 117.76341 61.85928 
L 118.505746 62.73648 
L 119.248082 61.8696 
L 119.990418 60.45576 
L 120.732754 60.54864 
L 121.475091 62.04504 
L 122.217427 63.16992 
L 122.959763 62.36496 
L 123.702099 61.21944 
L 124.444435 60.9408 
L 125.186771 57.83448 
L 125.929107 58.40208 
L 126.671443 60.49704 
L 128.156116 63.1596 
L 128.898452 62.49912 
L 129.640788 62.1276 
L 130.383124 61.56 
L 131.867796 70.66224 
L 132.610132 68.72208 
L 133.352469 70.4868 
L 134.094805 68.61888 
L 134.837141 69.11424 
L 135.579477 66.5136 
L 136.321813 66.68904 
L 137.064149 68.8872 
L 137.806485 68.9904 
L 138.548821 71.5704 
L 139.291157 73.48992 
L 140.033494 72.54048 
L 141.518166 74.74896 
L 142.260502 73.3248 
L 143.002838 74.80056 
L 143.745174 77.556 
L 144.48751 78.55704 
L 145.229846 78.50544 
L 145.972183 78.04104 
L 146.714519 75.76032 
L 147.456855 75.73968 
L 148.199191 74.65608 
L 148.941527 74.83152 
L 149.683863 74.57352 
L 150.426199 75.20304 
L 151.168535 75.17208 
L 151.910872 78.05136 
L 153.395544 72.16896 
L 154.13788 73.08744 
L 154.880216 74.72832 
L 156.364888 74.28456 
L 157.107224 73.21128 
L 157.849561 70.2804 
L 158.591897 70.2288 
L 159.334233 71.56008 
L 160.076569 73.79952 
L 160.818905 73.35576 
L 161.561241 74.0988 
L 162.303577 75.5952 
L 163.045913 75.5952 
L 163.78825 77.61792 
L 164.530586 77.63856 
L 165.272922 75.40944 
L 166.015258 75.40944 
L 166.757594 75.04824 
L 167.49993 74.98632 
L 168.242266 75.58488 
L 168.984602 75.87384 
L 169.726938 76.49304 
L 171.211611 75.82224 
L 171.953947 75.84288 
L 172.696283 76.03896 
L 173.438619 75.51264 
L 174.180955 75.56424 
L 174.923291 75.05856 
L 175.665627 73.26288 
L 176.407964 73.20096 
L 177.1503 73.00488 
L 177.892636 71.68392 
L 178.634972 70.6932 
L 179.377308 72.62304 
L 180.119644 73.52088 
L 180.86198 73.83048 
L 181.604316 73.8408 
L 182.346653 73.29384 
L 183.088989 73.72728 
L 183.831325 70.32168 
L 184.573661 69.77472 
L 185.315997 70.34232 
L 186.058333 70.67256 
L 186.800669 70.51776 
L 187.543005 70.848 
L 188.285342 72.31344 
L 189.027678 76.01832 
L 189.770014 75.41976 
L 190.51235 75.83256 
L 191.997022 75.82224 
L 192.739358 77.82432 
L 193.481694 76.14216 
L 194.224031 74.75928 
L 194.966367 74.96568 
L 195.708703 77.75208 
L 196.451039 79.48584 
L 197.193375 83.31456 
L 197.935711 85.90488 
L 198.678047 84.79032 
L 199.304746 85.84296 
L 200.636629 91.41576 
L 201.375786 88.7532 
L 202.871301 88.55712 
L 203.617873 88.96992 
L 205.098335 90.456 
L 205.840448 90.56952 
L 206.573857 89.15568 
L 207.277023 88.9596 
L 208.066975 90.6624 
L 208.716064 89.94 
L 209.550471 90.00192 
L 211.029902 90.62112 
L 212.518518 90.3528 
L 213.263088 92.004 
L 213.942712 92.13816 
L 214.745088 91.25064 
L 215.484116 89.166 
L 216.225043 89.56848 
L 216.958633 90.93072 
L 217.717835 89.41368 
L 218.452507 90.37344 
L 219.19657 89.79552 
L 219.934748 90.23928 
L 220.678682 88.0824 
L 221.420666 88.7532 
L 222.157305 90.16704 
L 222.90685 90.67272 
L 223.651411 90.18768 
L 224.388979 89.2692 
L 225.131023 89.54784 
L 225.87628 89.49624 
L 226.617182 88.31976 
L 227.35853 88.45392 
L 228.115068 88.46424 
L 228.859501 86.38992 
L 229.588846 84.80064 
L 230.336844 84.8316 
L 231.079387 86.586 
L 231.814497 87.74184 
L 232.552486 87.618 
L 233.305922 88.19592 
L 234.050003 89.08344 
L 234.785465 87.89664 
L 235.58309 87.3084 
L 236.279168 87.65928 
L 237.757679 90.07416 
L 239.254586 89.3724 
L 239.99224 89.00088 
L 240.740943 88.42296 
L 242.216688 89.10408 
L 242.952666 89.14536 
L 243.70618 89.07312 
L 244.450432 87.9792 
L 245.187948 88.29912 
L 245.931487 86.38992 
L 246.671237 87.24648 
L 247.420404 87.1536 
L 248.15139 86.21448 
L 249.653186 87.01944 
L 250.390797 84.44976 
L 251.132566 85.05864 
L 251.878115 84.58392 
L 252.618939 85.04832 
L 253.353087 83.71704 
L 254.105227 84.86256 
L 254.849402 85.6572 
L 255.588481 85.27536 
L 256.328515 84.49104 
L 257.818162 85.32696 
L 258.55164 85.17216 
L 259.305523 85.31664 
L 260.055858 84.11952 
L 260.79975 85.66752 
L 261.540058 85.26504 
L 262.28364 86.26608 
L 263.757478 85.38888 
L 264.514884 85.3992 
L 265.256963 84.09888 
L 266.738361 84.34656 
L 268.210876 85.7604 
L 268.955927 85.0896 
L 270.461418 84.9348 
L 271.193443 85.296 
L 271.939311 85.35792 
L 272.680822 86.1732 
L 273.426818 85.92552 
L 274.913097 87.13296 
L 275.662642 88.10304 
L 276.39966 87.9276 
L 277.144651 88.26816 
L 277.891214 87.78312 
L 278.627862 87.95856 
L 279.36 88.94928 
L 279.36 88.94928 
" clip-path="url(#pd639c17cd6)" style="fill: none; stroke: #4a8dff; stroke-width: 0.6"/>
   </g>
   <g id="line2d_7">
    <path d="M 8.64 61.12656 
L 9.382336 65.62608 
L 10.124672 64.98624 
L 10.867008 63.91296 
L 11.609344 63.38664 
L 12.351681 63.70656 
L 13.094017 64.97592 
L 13.836353 67.14312 
L 14.578689 68.9388 
L 15.321025 68.23704 
L 16.063361 67.1844 
L 16.805697 66.99864 
L 17.548033 67.47336 
L 18.29037 68.1132 
L 19.032706 71.38464 
L 19.775042 68.526 
L 20.517378 67.21536 
L 21.259714 67.20504 
L 22.00205 62.46816 
L 22.744386 62.51976 
L 23.486722 64.10904 
L 24.229059 66.90576 
L 24.971395 66.83352 
L 25.713731 67.42176 
L 26.456067 67.3392 
L 27.198403 65.8944 
L 27.940739 68.24736 
L 29.425411 68.23704 
L 30.167748 69.69216 
L 30.910084 71.50848 
L 31.65242 72.21024 
L 32.394756 67.3908 
L 33.137092 66.90576 
L 33.879428 65.59512 
L 34.621764 65.86344 
L 35.3641 65.76024 
L 36.106437 65.50224 
L 36.848773 64.398 
L 37.591109 65.70864 
L 38.333445 67.2876 
L 39.075781 63.95424 
L 39.818117 63.14928 
L 40.560453 64.76952 
L 41.302789 64.58376 
L 42.045125 63.55176 
L 42.787462 64.5012 
L 43.529798 63.82008 
L 44.272134 61.36392 
L 45.01447 56.64768 
L 45.756806 54.89328 
L 46.499142 55.04808 
L 47.241478 53.29368 
L 47.983814 52.55064 
L 48.726151 54.77976 
L 49.468487 53.67552 
L 50.210823 52.95312 
L 50.953159 54.45984 
L 51.695495 54.55272 
L 52.437831 55.22352 
L 53.180167 54.98616 
L 53.922503 52.4268 
L 54.66484 53.79936 
L 55.407176 54.08832 
L 56.149512 54.92424 
L 56.891848 54.4908 
L 57.634184 52.98408 
L 58.37652 54.44952 
L 59.118856 54.60432 
L 59.861192 54.62496 
L 61.345865 59.38248 
L 62.088201 60.09456 
L 62.830537 58.39176 
L 63.572873 57.41136 
L 64.315209 58.464 
L 65.057545 57.5352 
L 65.799881 55.0068 
L 66.542218 55.81176 
L 67.284554 55.99752 
L 68.02689 53.13888 
L 68.769226 53.64456 
L 69.511562 52.1688 
L 70.253898 48.69096 
L 70.996234 54.0264 
L 71.73857 55.13064 
L 72.480907 54.96552 
L 73.223243 54.92424 
L 73.965579 56.25552 
L 74.707915 59.8572 
L 75.450251 58.32984 
L 76.192587 60.23904 
L 76.934923 55.65696 
L 77.677259 57.18432 
L 78.419595 59.21736 
L 79.161932 62.55072 
L 79.904268 60.82728 
L 80.646604 61.47744 
L 81.38894 60.12552 
L 82.131276 64.31544 
L 82.873612 63.99552 
L 83.615948 64.5528 
L 84.358284 63.60336 
L 85.100621 61.5084 
L 85.842957 60.96144 
L 86.585293 61.98312 
L 87.327629 62.05536 
L 88.069965 62.51976 
L 89.554637 60.64152 
L 90.296973 61.13688 
L 91.03931 58.6188 
L 91.781646 57.03984 
L 92.523982 56.35872 
L 93.266318 56.5548 
L 94.008654 57.174 
L 94.75099 57.14304 
L 95.493326 55.7292 
L 96.235662 56.04912 
L 96.977999 55.33704 
L 97.720335 56.87472 
L 98.462671 56.8128 
L 99.205007 57.24624 
L 99.947343 59.93976 
L 100.689679 60.64152 
L 101.432015 59.29992 
L 102.174351 63.80976 
L 102.916688 63.03576 
L 103.659024 63.09768 
L 105.143696 58.27824 
L 105.886032 58.5672 
L 106.628368 53.93352 
L 107.370704 51.74568 
L 108.11304 50.04288 
L 108.855376 49.90872 
L 110.340049 47.43192 
L 111.082385 50.80656 
L 111.824721 48.90768 
L 112.567057 50.6208 
L 113.309393 59.42376 
L 114.051729 61.85928 
L 114.794065 57.35976 
L 115.536402 57.3288 
L 116.278738 59.46504 
L 117.76341 64.72824 
L 118.505746 66.42072 
L 119.248082 65.688 
L 119.990418 64.17096 
L 120.732754 62.10696 
L 121.475091 64.30512 
L 122.217427 65.20296 
L 122.959763 62.68488 
L 123.702099 61.70448 
L 124.444435 61.06464 
L 125.186771 58.1028 
L 125.929107 58.40208 
L 126.671443 59.68176 
L 127.41378 62.6952 
L 128.156116 64.56312 
L 128.898452 63.18024 
L 129.640788 62.72616 
L 130.383124 62.06568 
L 131.12546 66.33816 
L 131.867796 71.40528 
L 132.610132 69.08328 
L 133.352469 71.7252 
L 134.094805 69.57864 
L 134.837141 70.72416 
L 135.579477 68.2164 
L 136.321813 66.978 
L 137.064149 70.03272 
L 137.806485 71.5188 
L 138.548821 73.3764 
L 139.291157 78.846 
L 140.033494 77.75208 
L 140.77583 78.88728 
L 141.518166 81.34344 
L 142.260502 80.53848 
L 143.002838 82.0452 
L 143.745174 86.92656 
L 144.48751 88.58808 
L 145.229846 88.96992 
L 145.972183 86.7924 
L 146.714519 85.296 
L 147.456855 86.24544 
L 148.199191 82.96368 
L 148.941527 82.13808 
L 149.683863 82.47864 
L 150.426199 82.58184 
L 151.168535 83.03592 
L 151.910872 87.3084 
L 152.653208 82.06584 
L 153.395544 79.71288 
L 154.13788 81.24024 
L 154.880216 84.17112 
L 155.622552 84.24336 
L 156.364888 83.29392 
L 157.107224 82.8192 
L 157.849561 80.64168 
L 158.591897 81.38472 
L 159.334233 80.87904 
L 160.076569 83.13912 
L 160.818905 83.19072 
L 162.303577 87.17424 
L 163.045913 85.71912 
L 163.78825 87.53544 
L 164.530586 88.17528 
L 165.272922 85.41984 
L 166.757594 84.9348 
L 167.49993 85.01736 
L 168.242266 86.14224 
L 168.984602 85.90488 
L 169.726938 86.328 
L 170.469275 86.24544 
L 171.211611 85.72944 
L 171.953947 85.7088 
L 172.696283 86.40024 
L 173.438619 85.09992 
L 174.180955 86.02872 
L 175.665627 83.53128 
L 177.1503 82.03488 
L 177.892636 79.39296 
L 178.634972 79.66128 
L 179.377308 82.15872 
L 180.119644 82.43736 
L 180.86198 82.93272 
L 181.604316 83.00496 
L 183.088989 82.28256 
L 183.831325 78.01008 
L 184.573661 76.19376 
L 185.315997 77.66952 
L 186.058333 77.74176 
L 186.800669 78.1752 
L 188.285342 80.8068 
L 189.027678 85.20312 
L 189.770014 84.12984 
L 190.51235 84.03696 
L 191.254686 84.06792 
L 191.997022 84.3156 
L 192.739358 87.02976 
L 193.481694 85.21344 
L 194.224031 84.28464 
L 194.966367 84.32592 
L 195.708703 89.08344 
L 196.451039 89.5272 
L 197.193375 95.14128 
L 197.935711 96.98856 
L 198.678047 95.08968 
L 199.894671 99.80592 
L 200.636629 101.79768 
L 201.375786 100.03296 
L 202.135091 100.518 
L 202.871301 99.98136 
L 203.617873 100.49736 
L 205.840448 101.26104 
L 206.573857 100.63152 
L 207.277023 100.38384 
L 208.066975 100.84824 
L 208.716064 100.65216 
L 209.550471 101.034 
L 210.291904 101.19912 
L 212.518518 100.91016 
L 213.263088 101.7564 
L 213.942712 101.84928 
L 214.745088 101.56032 
L 215.484116 100.85856 
L 216.958633 101.4468 
L 217.717835 101.02368 
L 218.452507 101.30232 
L 219.19657 100.81728 
L 219.934748 100.79664 
L 220.678682 99.3312 
L 221.420666 99.92976 
L 222.157305 100.78632 
L 222.90685 101.17848 
L 223.651411 101.1372 
L 224.388979 100.21872 
L 225.87628 100.4664 
L 226.617182 99.88848 
L 227.35853 99.94008 
L 228.115068 99.81624 
L 228.859501 98.93904 
L 229.588846 98.3508 
L 230.336844 98.52624 
L 231.079387 99.78528 
L 231.814497 100.12584 
L 232.552486 100.03296 
L 234.050003 100.83792 
L 234.785465 100.11552 
L 235.58309 99.87816 
L 236.279168 100.002 
L 237.757679 101.41584 
L 238.510128 101.21976 
L 239.99224 101.00304 
L 240.740943 100.86888 
L 241.473501 101.21976 
L 242.216688 101.28168 
L 243.70618 101.14752 
L 244.450432 100.55928 
L 245.187948 100.65216 
L 245.931487 99.80592 
L 246.671237 99.96072 
L 247.420404 99.6408 
L 248.15139 99.1764 
L 248.907044 99.70272 
L 249.653186 99.94008 
L 250.390797 98.57784 
L 251.132566 98.65008 
L 251.878115 98.38176 
L 252.618939 98.48496 
L 253.353087 96.70992 
L 254.105227 98.05152 
L 254.849402 98.48496 
L 255.588481 97.96896 
L 256.328515 96.32808 
L 257.818162 96.16296 
L 258.55164 96.1836 
L 259.305523 96.50352 
L 260.055858 94.76976 
L 260.79975 97.19496 
L 261.540058 96.9576 
L 262.28364 97.9896 
L 263.034087 96.89568 
L 263.757478 95.45088 
L 264.514884 95.67792 
L 265.256963 93.43848 
L 266.738361 92.25168 
L 267.480895 92.87088 
L 268.210876 94.2744 
L 268.955927 93.1392 
L 269.713222 92.97408 
L 270.461418 92.9844 
L 271.193443 92.60256 
L 271.939311 92.53032 
L 272.680822 94.54272 
L 273.426818 92.85024 
L 274.159678 94.82136 
L 274.913097 95.75016 
L 275.662642 96.97824 
L 277.144651 97.23624 
L 277.891214 95.94624 
L 278.627862 96.30744 
L 279.36 98.08248 
L 279.36 98.08248 
" clip-path="url(#pd639c17cd6)" style="fill: none; stroke: #f5841e; stroke-width: 0.6"/>
   </g>
  </g>
 </g>
 <defs>
  <clipPath id="pd639c17cd6">
   <rect x="8.64" y="4.8" width="270.72" height="103.2"/>
  </clipPath>
 </defs>
</svg>
