<?xml version="1.0" encoding="utf-8" standalone="no"?>
<!DOCTYPE svg PUBLIC "-//W3C//DTD SVG 1.1//EN"
  "http://www.w3.org/Graphics/SVG/1.1/DTD/svg11.dtd">
<svg xmlns:xlink="http://www.w3.org/1999/xlink" width="288pt" height="120pt" viewBox="0 0 288 120" xmlns="http://www.w3.org/2000/svg" version="1.1">
<desc id="nav-meta">{"window":"1m","count":4,"labels":["05.02","15.02","24.02","06.03"],"tick_utc":["2026-02-05T03:20:02Z","2026-02-15T02:00:29Z","2026-02-24T01:30:44Z","2026-03-06T03:16:38Z"],"w":720,"h":300}</desc>

 <metadata>
  <rdf:RDF xmlns:dc="http://purl.org/dc/elements/1.1/" xmlns:cc="http://creativecommons.org/ns#" xmlns:rdf="http://www.w3.org/1999/02/22-rdf-syntax-ns#">
   <cc:Work>
    <dc:type rdf:resource="http://purl.org/dc/dcmitype/StillImage"/>
    <dc:date>2026-03-06T13:40:09.970280</dc:date>
    <dc:format>image/svg+xml</dc:format>
    <dc:creator>
     <cc:Agent>
      <dc:title>Matplotlib v3.10.8, https://matplotlib.org/</dc:title>
     </cc:Agent>
    </dc:creator>
   </cc:Work>
  </rdf:RDF>
 </metadata>
 <defs>
  <style type="text/css">*{stroke-linejoin: round; stroke-linecap: butt}</style>
 </defs>
 <g id="figure_1">
  <g id="patch_1">
   <path d="M 0 120 
L 288 120 
L 288 0 
L 0 0 
L 0 120 
z
" style="fill: none; opacity: 0"/>
  </g>
  <g id="axes_1">
   <g id="patch_2">
    <path d="M 8.64 108 
L 279.36 108 
L 279.36 4.8 
L 8.64 4.8 
L 8.64 108 
z
" style="fill: none"/>
   </g>
   <g id="matplotlib.axis_1"/>
   <g id="matplotlib.axis_2"/>
   <g id="line2d_1">
    <path d="M 8.64 87.36 
L 279.36 87.36 
" clip-path="url(#pd0cdbabbf1)" style="fill: none; stroke: #b2b2b2; stroke-opacity: 0.35; stroke-width: 0.5; stroke-linecap: square"/>
   </g>
   <g id="line2d_2">
    <path d="M 8.64 66.72 
L 279.36 66.72 
" clip-path="url(#pd0cdbabbf1)" style="fill: none; stroke: #b2b2b2; stroke-opacity: 0.35; stroke-width: 0.5; stroke-linecap: square"/>
   </g>
   <g id="line2d_3">
    <path d="M 8.64 46.08 
L 279.36 46.08 
" clip-path="url(#pd0cdbabbf1)" style="fill: none; stroke: #b2b2b2; stroke-opacity: 0.35; stroke-width: 0.5; stroke-linecap: square"/>
   </g>
   <g id="line2d_4">
    <path d="M 8.64 25.44 
L 279.36 25.44 
" clip-path="url(#pd0cdbabbf1)" style="fill: none; stroke: #b2b2b2; stroke-opacity: 0.35; stroke-width: 0.5; stroke-linecap: square"/>
   </g>
   <g id="line2d_5">
    <path d="M 8.64 100.16712 
L 17.971178 102.23112 
L 27.26713 100.54896 
L 36.816471 100.70376 
L 46.075361 100.68312 
L 55.464564 100.95144 
L 64.781155 101.28168 
L 74.083482 101.71512 
L 83.416605 101.84928 
L 92.640269 101.034 
L 101.48358 100.54896 
L 111.418352 101.04432 
L 119.581566 100.81728 
L 130.075413 101.034 
L 139.4 101.4984 
L 148.681365 101.33328 
L 157.960245 101.1372 
L 167.402827 101.06496 
L 176.766854 102.09696 
L 185.314095 102.05568 
L 195.405114 101.4984 
L 204.699445 100.60056 
L 214.017657 100.80696 
L 223.24359 101.45712 
L 232.791634 100.55928 
L 242.031181 101.10624 
L 251.388833 100.8792 
L 260.672467 100.74504 
L 270.028498 100.21872 
L 279.36 100.53864 
" clip-path="url(#pd0cdbabbf1)" style="fill: none; stroke: #bebebe; stroke-width: 0.5; stroke-linecap: round"/>
   </g>
   <g id="line2d_6">
    <path d="M 8.64 88.25784 
L 17.971178 91.41576 
L 27.26713 88.7532 
L 36.816471 88.65 
L 46.075361 88.55712 
L 55.464564 88.96992 
L 64.781155 89.7336 
L 74.083482 90.456 
L 83.416605 90.56952 
L 92.640269 89.15568 
L 101.48358 88.9596 
L 111.418352 90.6624 
L 119.581566 89.94 
L 130.075413 90.00192 
L 139.4 90.3528 
L 148.681365 90.62112 
L 157.960245 90.5076 
L 167.402827 90.3528 
L 176.766854 92.004 
L 185.314095 92.13816 
L 195.405114 91.25064 
L 204.699445 89.166 
L 214.017657 89.56848 
L 223.24359 90.93072 
L 232.791634 89.41368 
L 242.031181 90.37344 
L 251.388833 89.79552 
L 260.672467 90.23928 
L 270.028498 88.0824 
L 279.36 88.7532 
" clip-path="url(#pd0cdbabbf1)" style="fill: none; stroke: #4a8dff; stroke-width: 0.6"/>
   </g>
   <g id="line2d_7">
    <path d="M 8.64 99.80592 
L 17.971178 101.79768 
L 27.26713 100.03296 
L 36.816471 100.518 
L 46.075361 99.98136 
L 55.464564 100.49736 
L 64.781155 100.78632 
L 74.083482 101.07528 
L 83.416605 101.26104 
L 92.640269 100.63152 
L 101.48358 100.38384 
L 111.418352 100.84824 
L 119.581566 100.65216 
L 130.075413 101.034 
L 139.4 101.19912 
L 148.681365 101.10624 
L 157.960245 100.97208 
L 167.402827 100.91016 
L 176.766854 101.7564 
L 185.314095 101.84928 
L 195.405114 101.56032 
L 204.699445 100.85856 
L 214.017657 101.12688 
L 223.24359 101.4468 
L 232.791634 101.02368 
L 242.031181 101.30232 
L 251.388833 100.81728 
L 260.672467 100.79664 
L 270.028498 99.3312 
L 279.36 99.92976 
" clip-path="url(#pd0cdbabbf1)" style="fill: none; stroke: #f5841e; stroke-width: 0.6"/>
   </g>
  </g>
 </g>
 <defs>
  <clipPath id="pd0cdbabbf1">
   <rect x="8.64" y="4.8" width="270.72" height="103.2"/>
  </clipPath>
 </defs>
</svg>
