<?xml version="1.0" encoding="utf-8" standalone="no"?>
<!DOCTYPE svg PUBLIC "-//W3C//DTD SVG 1.1//EN"
  "http://www.w3.org/Graphics/SVG/1.1/DTD/svg11.dtd">
<svg xmlns:xlink="http://www.w3.org/1999/xlink" width="288pt" height="120pt" viewBox="0 0 288 120" xmlns="http://www.w3.org/2000/svg" version="1.1">
<desc id="nav-meta">{"window":"1m","count":4,"labels":["23.01","02.02","11.02","21.02"],"tick_utc":["2026-01-23T12:00:00Z","2026-02-02T12:00:00Z","2026-02-11T03:39:24Z","2026-02-21T03:11:36Z"],"w":720,"h":300}</desc>

 <metadata>
  <rdf:RDF xmlns:dc="http://purl.org/dc/elements/1.1/" xmlns:cc="http://creativecommons.org/ns#" xmlns:rdf="http://www.w3.org/1999/02/22-rdf-syntax-ns#">
   <cc:Work>
    <dc:type rdf:resource="http://purl.org/dc/dcmitype/StillImage"/>
    <dc:date>2026-02-21T19:03:57.479996</dc:date>
    <dc:format>image/svg+xml</dc:format>
    <dc:creator>
     <cc:Agent>
      <dc:title>Matplotlib v3.10.8, https://matplotlib.org/</dc:title>
     </cc:Agent>
    </dc:creator>
   </cc:Work>
  </rdf:RDF>
 </metadata>
 <defs>
  <style type="text/css">*{stroke-linejoin: round; stroke-linecap: butt}</style>
 </defs>
 <g id="figure_1">
  <g id="patch_1">
   <path d="M 0 120 
L 288 120 
L 288 0 
L 0 0 
L 0 120 
z
" style="fill: none; opacity: 0"/>
  </g>
  <g id="axes_1">
   <g id="patch_2">
    <path d="M 8.64 108 
L 279.36 108 
L 279.36 4.8 
L 8.64 4.8 
L 8.64 108 
z
" style="fill: none"/>
   </g>
   <g id="matplotlib.axis_1"/>
   <g id="matplotlib.axis_2"/>
   <g id="line2d_1">
    <path d="M 8.64 87.36 
L 279.36 87.36 
" clip-path="url(#pad2550702c)" style="fill: none; stroke: #b2b2b2; stroke-opacity: 0.35; stroke-width: 0.5; stroke-linecap: square"/>
   </g>
   <g id="line2d_2">
    <path d="M 8.64 66.72 
L 279.36 66.72 
" clip-path="url(#pad2550702c)" style="fill: none; stroke: #b2b2b2; stroke-opacity: 0.35; stroke-width: 0.5; stroke-linecap: square"/>
   </g>
   <g id="line2d_3">
    <path d="M 8.64 46.08 
L 279.36 46.08 
" clip-path="url(#pad2550702c)" style="fill: none; stroke: #b2b2b2; stroke-opacity: 0.35; stroke-width: 0.5; stroke-linecap: square"/>
   </g>
   <g id="line2d_4">
    <path d="M 8.64 25.44 
L 279.36 25.44 
" clip-path="url(#pad2550702c)" style="fill: none; stroke: #b2b2b2; stroke-opacity: 0.35; stroke-width: 0.5; stroke-linecap: square"/>
   </g>
   <g id="line2d_5">
    <path d="M 8.64 91.46736 
L 18.094807 91.73568 
L 27.549613 91.78728 
L 37.00442 94.0164 
L 46.459226 92.5716 
L 55.914033 91.76664 
L 65.368839 92.33424 
L 74.823646 94.36728 
L 84.278452 94.46016 
L 93.733259 97.71096 
L 103.188065 98.48496 
L 112.642872 97.85544 
L 120.624851 99.10416 
L 128.138468 100.16712 
L 137.588459 102.23112 
L 147.002777 100.54896 
L 156.673709 100.70376 
L 166.050491 100.68312 
L 175.559247 100.95144 
L 184.994465 101.28168 
L 194.415239 101.71512 
L 203.8672 101.84928 
L 213.208308 101.034 
L 222.16422 100.54896 
L 232.225492 101.04432 
L 240.492647 100.81728 
L 251.120113 101.034 
L 260.563429 101.4984 
L 269.962973 101.33328 
L 279.36 101.1372 
" clip-path="url(#pad2550702c)" style="fill: none; stroke: #bebebe; stroke-width: 0.5; stroke-linecap: round"/>
   </g>
   <g id="line2d_6">
    <path d="M 8.64 75.83256 
L 18.094807 75.79128 
L 27.549613 75.82224 
L 37.00442 77.82432 
L 46.459226 76.14216 
L 55.914033 74.75928 
L 65.368839 74.96568 
L 74.823646 77.75208 
L 84.278452 79.48584 
L 93.733259 83.31456 
L 103.188065 85.90488 
L 112.642872 84.79032 
L 120.624851 85.84296 
L 128.138468 88.25784 
L 137.588459 91.41576 
L 147.002777 88.7532 
L 156.673709 88.65 
L 166.050491 88.55712 
L 175.559247 88.96992 
L 184.994465 89.7336 
L 194.415239 90.456 
L 203.8672 90.56952 
L 213.208308 89.15568 
L 222.16422 88.9596 
L 232.225492 90.6624 
L 240.492647 89.94 
L 251.120113 90.00192 
L 260.563429 90.3528 
L 269.962973 90.62112 
L 279.36 90.5076 
" clip-path="url(#pad2550702c)" style="fill: none; stroke: #4a8dff; stroke-width: 0.6"/>
   </g>
   <g id="line2d_7">
    <path d="M 8.64 84.03696 
L 18.094807 84.06792 
L 27.549613 84.3156 
L 37.00442 87.02976 
L 46.459226 85.21344 
L 55.914033 84.28464 
L 65.368839 84.32592 
L 74.823646 89.08344 
L 84.278452 89.5272 
L 93.733259 95.14128 
L 103.188065 96.98856 
L 112.642872 95.08968 
L 120.624851 97.71096 
L 128.138468 99.80592 
L 137.588459 101.79768 
L 147.002777 100.03296 
L 156.673709 100.518 
L 166.050491 99.98136 
L 175.559247 100.49736 
L 184.994465 100.78632 
L 194.415239 101.07528 
L 203.8672 101.26104 
L 213.208308 100.63152 
L 222.16422 100.38384 
L 232.225492 100.84824 
L 240.492647 100.65216 
L 251.120113 101.034 
L 260.563429 101.19912 
L 269.962973 101.10624 
L 279.36 100.97208 
" clip-path="url(#pad2550702c)" style="fill: none; stroke: #f5841e; stroke-width: 0.6"/>
   </g>
  </g>
 </g>
 <defs>
  <clipPath id="pad2550702c">
   <rect x="8.64" y="4.8" width="270.72" height="103.2"/>
  </clipPath>
 </defs>
</svg>
