<?xml version="1.0" encoding="utf-8" standalone="no"?>
<!DOCTYPE svg PUBLIC "-//W3C//DTD SVG 1.1//EN"
  "http://www.w3.org/Graphics/SVG/1.1/DTD/svg11.dtd">
<svg xmlns:xlink="http://www.w3.org/1999/xlink" width="288pt" height="120pt" viewBox="0 0 288 120" xmlns="http://www.w3.org/2000/svg" version="1.1">
<desc id="nav-meta">{"window":"3m","count":4,"labels":["14.11","14.12","13.01","12.02"],"tick_utc":["2025-11-14T12:00:00Z","2025-12-14T12:00:00Z","2026-01-13T12:00:00Z","2026-02-12T03:34:13Z"],"w":720,"h":300}</desc>

 <metadata>
  <rdf:RDF xmlns:dc="http://purl.org/dc/elements/1.1/" xmlns:cc="http://creativecommons.org/ns#" xmlns:rdf="http://www.w3.org/1999/02/22-rdf-syntax-ns#">
   <cc:Work>
    <dc:type rdf:resource="http://purl.org/dc/dcmitype/StillImage"/>
    <dc:date>2026-02-12T03:34:15.426512</dc:date>
    <dc:format>image/svg+xml</dc:format>
    <dc:creator>
     <cc:Agent>
      <dc:title>Matplotlib v3.10.8, https://matplotlib.org/</dc:title>
     </cc:Agent>
    </dc:creator>
   </cc:Work>
  </rdf:RDF>
 </metadata>
 <defs>
  <style type="text/css">*{stroke-linejoin: round; stroke-linecap: butt}</style>
 </defs>
 <g id="figure_1">
  <g id="patch_1">
   <path d="M 0 120 
L 288 120 
L 288 0 
L 0 0 
L 0 120 
z
" style="fill: none; opacity: 0"/>
  </g>
  <g id="axes_1">
   <g id="patch_2">
    <path d="M 8.64 108 
L 279.36 108 
L 279.36 4.8 
L 8.64 4.8 
L 8.64 108 
z
" style="fill: none"/>
   </g>
   <g id="matplotlib.axis_1"/>
   <g id="matplotlib.axis_2"/>
   <g id="line2d_1">
    <path d="M 8.64 87.36 
L 279.36 87.36 
" clip-path="url(#p76fcf9646a)" style="fill: none; stroke: #b2b2b2; stroke-opacity: 0.35; stroke-width: 0.5; stroke-linecap: square"/>
   </g>
   <g id="line2d_2">
    <path d="M 8.64 66.72 
L 279.36 66.72 
" clip-path="url(#p76fcf9646a)" style="fill: none; stroke: #b2b2b2; stroke-opacity: 0.35; stroke-width: 0.5; stroke-linecap: square"/>
   </g>
   <g id="line2d_3">
    <path d="M 8.64 46.08 
L 279.36 46.08 
" clip-path="url(#p76fcf9646a)" style="fill: none; stroke: #b2b2b2; stroke-opacity: 0.35; stroke-width: 0.5; stroke-linecap: square"/>
   </g>
   <g id="line2d_4">
    <path d="M 8.64 25.44 
L 279.36 25.44 
" clip-path="url(#p76fcf9646a)" style="fill: none; stroke: #b2b2b2; stroke-opacity: 0.35; stroke-width: 0.5; stroke-linecap: square"/>
   </g>
   <g id="line2d_5">
    <path d="M 8.64 86.844 
L 11.659785 88.52616 
L 14.67957 88.36104 
L 17.699355 88.93896 
L 20.719141 90.79656 
L 23.738926 88.09272 
L 26.758711 89.22792 
L 29.778496 90.00192 
L 32.798281 91.39512 
L 35.818066 91.63248 
L 38.837852 90.75528 
L 41.857637 88.7016 
L 44.877422 88.52616 
L 47.897207 87.45288 
L 50.916992 88.0308 
L 53.936777 88.94928 
L 56.956563 89.3208 
L 59.976348 89.7336 
L 62.996133 91.86984 
L 66.015918 88.60872 
L 69.035703 86.87496 
L 72.055488 88.52616 
L 75.075274 90.11544 
L 78.095059 90.38376 
L 81.114844 90.53856 
L 84.134629 90.08448 
L 87.154414 88.79448 
L 90.174199 89.20728 
L 93.193985 89.22792 
L 96.21377 90.31152 
L 99.233555 90.10512 
L 102.25334 91.09584 
L 105.273125 91.61184 
L 108.29291 91.31256 
L 111.312696 92.87088 
L 114.332481 93.8616 
L 117.352266 92.02464 
L 120.372051 92.13816 
L 123.391836 92.07624 
L 126.411621 92.14848 
L 129.431406 92.64384 
L 132.451192 93.01536 
L 135.470977 93.69648 
L 138.490762 93.11856 
L 141.510547 92.44776 
L 144.530332 92.30328 
L 147.550117 92.87088 
L 150.569903 92.38584 
L 153.589688 92.47872 
L 156.609473 91.88016 
L 159.629258 90.42504 
L 162.649043 90.08448 
L 165.668828 89.92968 
L 168.688614 88.76352 
L 171.708399 87.94824 
L 174.728184 89.2692 
L 177.747969 88.72224 
L 180.767754 89.39304 
L 183.787539 89.40336 
L 186.807325 88.41264 
L 189.82711 88.4952 
L 192.846895 86.86464 
L 195.86668 86.42088 
L 198.886465 87.62832 
L 201.90625 86.93688 
L 204.926036 87.23616 
L 207.945821 88.63968 
L 210.965606 90.0432 
L 213.985391 92.12784 
L 217.005176 91.16808 
L 220.024961 91.46736 
L 223.044747 91.73568 
L 226.064532 91.78728 
L 229.084317 94.0164 
L 232.104102 92.5716 
L 235.123887 91.76664 
L 238.143672 92.33424 
L 241.163457 94.36728 
L 244.183243 94.46016 
L 247.203028 97.71096 
L 250.222813 98.48496 
L 253.242598 97.85544 
L 255.791975 99.10416 
L 258.19176 100.16712 
L 261.210008 102.23112 
L 264.216861 100.54896 
L 267.305675 100.70376 
L 270.30054 100.68312 
L 273.337556 100.95144 
L 276.351085 101.28168 
L 279.36 101.71512 
" clip-path="url(#p76fcf9646a)" style="fill: none; stroke: #bebebe; stroke-width: 0.5; stroke-linecap: round"/>
   </g>
   <g id="line2d_6">
    <path d="M 8.64 71.5704 
L 11.659785 73.48992 
L 14.67957 72.54048 
L 17.699355 73.56216 
L 20.719141 74.74896 
L 23.738926 73.3248 
L 26.758711 74.80056 
L 29.778496 77.556 
L 32.798281 78.55704 
L 35.818066 78.50544 
L 38.837852 78.04104 
L 41.857637 75.76032 
L 44.877422 75.73968 
L 47.897207 74.65608 
L 50.916992 74.83152 
L 53.936777 74.57352 
L 56.956563 75.20304 
L 59.976348 75.17208 
L 62.996133 78.05136 
L 66.015918 75.1308 
L 69.035703 72.16896 
L 72.055488 73.08744 
L 75.075274 74.72832 
L 78.095059 74.48064 
L 81.114844 74.28456 
L 84.134629 73.21128 
L 87.154414 70.2804 
L 90.174199 70.2288 
L 93.193985 71.56008 
L 96.21377 73.79952 
L 99.233555 73.35576 
L 102.25334 74.0988 
L 105.273125 75.5952 
L 108.29291 75.5952 
L 111.312696 77.61792 
L 114.332481 77.63856 
L 117.352266 75.40944 
L 120.372051 75.40944 
L 123.391836 75.04824 
L 126.411621 74.98632 
L 129.431406 75.58488 
L 132.451192 75.87384 
L 135.470977 76.49304 
L 138.490762 76.15248 
L 141.510547 75.82224 
L 144.530332 75.84288 
L 147.550117 76.03896 
L 150.569903 75.51264 
L 153.589688 75.56424 
L 156.609473 75.05856 
L 159.629258 73.26288 
L 162.649043 73.20096 
L 165.668828 73.00488 
L 168.688614 71.68392 
L 171.708399 70.6932 
L 174.728184 72.62304 
L 177.747969 73.52088 
L 180.767754 73.83048 
L 183.787539 73.8408 
L 186.807325 73.29384 
L 189.82711 73.72728 
L 192.846895 70.32168 
L 195.86668 69.77472 
L 198.886465 70.34232 
L 201.90625 70.67256 
L 204.926036 70.51776 
L 207.945821 70.848 
L 210.965606 72.31344 
L 213.985391 76.01832 
L 217.005176 75.41976 
L 220.024961 75.83256 
L 223.044747 75.79128 
L 226.064532 75.82224 
L 229.084317 77.82432 
L 232.104102 76.14216 
L 235.123887 74.75928 
L 238.143672 74.96568 
L 241.163457 77.75208 
L 244.183243 79.48584 
L 247.203028 83.31456 
L 250.222813 85.90488 
L 253.242598 84.79032 
L 255.791975 85.84296 
L 258.19176 88.25784 
L 261.210008 91.41576 
L 264.216861 88.7532 
L 267.305675 88.65 
L 270.30054 88.55712 
L 273.337556 88.96992 
L 276.351085 89.7336 
L 279.36 90.456 
" clip-path="url(#p76fcf9646a)" style="fill: none; stroke: #4a8dff; stroke-width: 0.6"/>
   </g>
   <g id="line2d_7">
    <path d="M 8.64 73.3764 
L 11.659785 78.846 
L 14.67957 77.75208 
L 17.699355 78.88728 
L 20.719141 81.34344 
L 23.738926 80.53848 
L 26.758711 82.0452 
L 29.778496 86.92656 
L 32.798281 88.58808 
L 35.818066 88.96992 
L 38.837852 86.7924 
L 41.857637 85.296 
L 44.877422 86.24544 
L 47.897207 82.96368 
L 50.916992 82.13808 
L 53.936777 82.47864 
L 56.956563 82.58184 
L 59.976348 83.03592 
L 62.996133 87.3084 
L 66.015918 82.06584 
L 69.035703 79.71288 
L 72.055488 81.24024 
L 75.075274 84.17112 
L 78.095059 84.24336 
L 81.114844 83.29392 
L 84.134629 82.8192 
L 87.154414 80.64168 
L 90.174199 81.38472 
L 93.193985 80.87904 
L 96.21377 83.13912 
L 99.233555 83.19072 
L 102.25334 85.296 
L 105.273125 87.17424 
L 108.29291 85.71912 
L 111.312696 87.53544 
L 114.332481 88.17528 
L 117.352266 85.41984 
L 120.372051 85.17216 
L 123.391836 84.9348 
L 126.411621 85.01736 
L 129.431406 86.14224 
L 132.451192 85.90488 
L 135.470977 86.328 
L 138.490762 86.24544 
L 141.510547 85.72944 
L 144.530332 85.7088 
L 147.550117 86.40024 
L 150.569903 85.09992 
L 153.589688 86.02872 
L 156.609473 84.78 
L 159.629258 83.53128 
L 162.649043 82.83984 
L 165.668828 82.03488 
L 168.688614 79.39296 
L 171.708399 79.66128 
L 174.728184 82.15872 
L 177.747969 82.43736 
L 180.767754 82.93272 
L 183.787539 83.00496 
L 186.807325 82.6128 
L 189.82711 82.28256 
L 192.846895 78.01008 
L 195.86668 76.19376 
L 198.886465 77.66952 
L 201.90625 77.74176 
L 204.926036 78.1752 
L 207.945821 79.5684 
L 210.965606 80.8068 
L 213.985391 85.20312 
L 217.005176 84.12984 
L 220.024961 84.03696 
L 223.044747 84.06792 
L 226.064532 84.3156 
L 229.084317 87.02976 
L 232.104102 85.21344 
L 235.123887 84.28464 
L 238.143672 84.32592 
L 241.163457 89.08344 
L 244.183243 89.5272 
L 247.203028 95.14128 
L 250.222813 96.98856 
L 253.242598 95.08968 
L 255.791975 97.71096 
L 258.19176 99.80592 
L 261.210008 101.79768 
L 264.216861 100.03296 
L 267.305675 100.518 
L 270.30054 99.98136 
L 273.337556 100.49736 
L 276.351085 100.78632 
L 279.36 101.07528 
" clip-path="url(#p76fcf9646a)" style="fill: none; stroke: #f5841e; stroke-width: 0.6"/>
   </g>
  </g>
 </g>
 <defs>
  <clipPath id="p76fcf9646a">
   <rect x="8.64" y="4.8" width="270.72" height="103.2"/>
  </clipPath>
 </defs>
</svg>
