<?xml version="1.0" encoding="utf-8" standalone="no"?>
<!DOCTYPE svg PUBLIC "-//W3C//DTD SVG 1.1//EN"
  "http://www.w3.org/Graphics/SVG/1.1/DTD/svg11.dtd">
<svg xmlns:xlink="http://www.w3.org/1999/xlink" width="288pt" height="120pt" viewBox="0 0 288 120" xmlns="http://www.w3.org/2000/svg" version="1.1">
<desc id="nav-meta">{"window":"1m","count":4,"labels":["11.01","21.01","31.01","10.02"],"tick_utc":["2026-01-11T12:00:00Z","2026-01-21T12:00:00Z","2026-01-31T12:00:00Z","2026-02-10T03:42:23Z"],"w":720,"h":300}</desc>

 <metadata>
  <rdf:RDF xmlns:dc="http://purl.org/dc/elements/1.1/" xmlns:cc="http://creativecommons.org/ns#" xmlns:rdf="http://www.w3.org/1999/02/22-rdf-syntax-ns#">
   <cc:Work>
    <dc:type rdf:resource="http://purl.org/dc/dcmitype/StillImage"/>
    <dc:date>2026-02-10T03:42:25.917547</dc:date>
    <dc:format>image/svg+xml</dc:format>
    <dc:creator>
     <cc:Agent>
      <dc:title>Matplotlib v3.10.8, https://matplotlib.org/</dc:title>
     </cc:Agent>
    </dc:creator>
   </cc:Work>
  </rdf:RDF>
 </metadata>
 <defs>
  <style type="text/css">*{stroke-linejoin: round; stroke-linecap: butt}</style>
 </defs>
 <g id="figure_1">
  <g id="patch_1">
   <path d="M 0 120 
L 288 120 
L 288 0 
L 0 0 
L 0 120 
z
" style="fill: none; opacity: 0"/>
  </g>
  <g id="axes_1">
   <g id="patch_2">
    <path d="M 8.64 108 
L 279.36 108 
L 279.36 4.8 
L 8.64 4.8 
L 8.64 108 
z
" style="fill: none"/>
   </g>
   <g id="matplotlib.axis_1"/>
   <g id="matplotlib.axis_2"/>
   <g id="line2d_1">
    <path d="M 8.64 87.36 
L 279.36 87.36 
" clip-path="url(#pde58a8065a)" style="fill: none; stroke: #b2b2b2; stroke-opacity: 0.35; stroke-width: 0.5; stroke-linecap: square"/>
   </g>
   <g id="line2d_2">
    <path d="M 8.64 66.72 
L 279.36 66.72 
" clip-path="url(#pde58a8065a)" style="fill: none; stroke: #b2b2b2; stroke-opacity: 0.35; stroke-width: 0.5; stroke-linecap: square"/>
   </g>
   <g id="line2d_3">
    <path d="M 8.64 46.08 
L 279.36 46.08 
" clip-path="url(#pde58a8065a)" style="fill: none; stroke: #b2b2b2; stroke-opacity: 0.35; stroke-width: 0.5; stroke-linecap: square"/>
   </g>
   <g id="line2d_4">
    <path d="M 8.64 25.44 
L 279.36 25.44 
" clip-path="url(#pde58a8065a)" style="fill: none; stroke: #b2b2b2; stroke-opacity: 0.35; stroke-width: 0.5; stroke-linecap: square"/>
   </g>
   <g id="line2d_5">
    <path d="M 8.64 89.40336 
L 17.769158 88.41264 
L 26.898316 88.4952 
L 36.027474 86.86464 
L 45.156632 86.42088 
L 54.285789 87.62832 
L 63.414947 86.93688 
L 72.544105 87.23616 
L 81.673263 88.63968 
L 90.802421 90.0432 
L 99.931579 92.12784 
L 109.060737 91.16808 
L 118.189895 91.46736 
L 127.319053 91.73568 
L 136.448211 91.78728 
L 145.577368 94.0164 
L 154.706526 92.5716 
L 163.835684 91.76664 
L 172.964842 92.33424 
L 182.094 94.36728 
L 191.223158 94.46016 
L 200.352316 97.71096 
L 209.481474 98.48496 
L 218.610632 97.85544 
L 226.317691 99.10416 
L 233.572518 100.16712 
L 242.697027 102.23112 
L 251.78709 100.54896 
L 261.12493 100.70376 
L 270.178751 100.68312 
L 279.36 100.95144 
" clip-path="url(#pde58a8065a)" style="fill: none; stroke: #bebebe; stroke-width: 0.5; stroke-linecap: round"/>
   </g>
   <g id="line2d_6">
    <path d="M 8.64 73.8408 
L 17.769158 73.29384 
L 26.898316 73.72728 
L 36.027474 70.32168 
L 45.156632 69.77472 
L 54.285789 70.34232 
L 63.414947 70.67256 
L 72.544105 70.51776 
L 81.673263 70.848 
L 90.802421 72.31344 
L 99.931579 76.01832 
L 109.060737 75.41976 
L 118.189895 75.83256 
L 127.319053 75.79128 
L 136.448211 75.82224 
L 145.577368 77.82432 
L 154.706526 76.14216 
L 163.835684 74.75928 
L 172.964842 74.96568 
L 182.094 77.75208 
L 191.223158 79.48584 
L 200.352316 83.31456 
L 209.481474 85.90488 
L 218.610632 84.79032 
L 226.317691 85.84296 
L 233.572518 88.25784 
L 242.697027 91.41576 
L 251.78709 88.7532 
L 261.12493 88.65 
L 270.178751 88.55712 
L 279.36 88.96992 
" clip-path="url(#pde58a8065a)" style="fill: none; stroke: #4a8dff; stroke-width: 0.6"/>
   </g>
   <g id="line2d_7">
    <path d="M 8.64 83.00496 
L 17.769158 82.6128 
L 26.898316 82.28256 
L 36.027474 78.01008 
L 45.156632 76.19376 
L 54.285789 77.66952 
L 63.414947 77.74176 
L 72.544105 78.1752 
L 81.673263 79.5684 
L 90.802421 80.8068 
L 99.931579 85.20312 
L 109.060737 84.12984 
L 118.189895 84.03696 
L 127.319053 84.06792 
L 136.448211 84.3156 
L 145.577368 87.02976 
L 154.706526 85.21344 
L 163.835684 84.28464 
L 172.964842 84.32592 
L 182.094 89.08344 
L 191.223158 89.5272 
L 200.352316 95.14128 
L 209.481474 96.98856 
L 218.610632 95.08968 
L 226.317691 97.71096 
L 233.572518 99.80592 
L 242.697027 101.79768 
L 251.78709 100.03296 
L 261.12493 100.518 
L 270.178751 99.98136 
L 279.36 100.49736 
" clip-path="url(#pde58a8065a)" style="fill: none; stroke: #f5841e; stroke-width: 0.6"/>
   </g>
  </g>
 </g>
 <defs>
  <clipPath id="pde58a8065a">
   <rect x="8.64" y="4.8" width="270.72" height="103.2"/>
  </clipPath>
 </defs>
</svg>
