<?xml version="1.0" encoding="utf-8" standalone="no"?>
<!DOCTYPE svg PUBLIC "-//W3C//DTD SVG 1.1//EN"
  "http://www.w3.org/Graphics/SVG/1.1/DTD/svg11.dtd">
<svg xmlns:xlink="http://www.w3.org/1999/xlink" width="288pt" height="120pt" viewBox="0 0 288 120" xmlns="http://www.w3.org/2000/svg" version="1.1">
<desc id="nav-meta">{"window":"3m","count":4,"labels":["26.12","25.01","24.02","26.03"],"tick_utc":["2025-12-26T12:00:00Z","2026-01-25T12:00:00Z","2026-02-24T01:30:44Z","2026-03-26T03:39:29Z"],"w":720,"h":300}</desc>

 <metadata>
  <rdf:RDF xmlns:dc="http://purl.org/dc/elements/1.1/" xmlns:cc="http://creativecommons.org/ns#" xmlns:rdf="http://www.w3.org/1999/02/22-rdf-syntax-ns#">
   <cc:Work>
    <dc:type rdf:resource="http://purl.org/dc/dcmitype/StillImage"/>
    <dc:date>2026-03-26T07:45:19.461511</dc:date>
    <dc:format>image/svg+xml</dc:format>
    <dc:creator>
     <cc:Agent>
      <dc:title>Matplotlib v3.10.8, https://matplotlib.org/</dc:title>
     </cc:Agent>
    </dc:creator>
   </cc:Work>
  </rdf:RDF>
 </metadata>
 <defs>
  <style type="text/css">*{stroke-linejoin: round; stroke-linecap: butt}</style>
 </defs>
 <g id="figure_1">
  <g id="patch_1">
   <path d="M 0 120 
L 288 120 
L 288 0 
L 0 0 
L 0 120 
z
" style="fill: none; opacity: 0"/>
  </g>
  <g id="axes_1">
   <g id="patch_2">
    <path d="M 8.64 108 
L 279.36 108 
L 279.36 4.8 
L 8.64 4.8 
L 8.64 108 
z
" style="fill: none"/>
   </g>
   <g id="matplotlib.axis_1"/>
   <g id="matplotlib.axis_2"/>
   <g id="line2d_1">
    <path d="M 8.64 87.36 
L 279.36 87.36 
" clip-path="url(#p9f8245afb1)" style="fill: none; stroke: #b2b2b2; stroke-opacity: 0.35; stroke-width: 0.5; stroke-linecap: square"/>
   </g>
   <g id="line2d_2">
    <path d="M 8.64 66.72 
L 279.36 66.72 
" clip-path="url(#p9f8245afb1)" style="fill: none; stroke: #b2b2b2; stroke-opacity: 0.35; stroke-width: 0.5; stroke-linecap: square"/>
   </g>
   <g id="line2d_3">
    <path d="M 8.64 46.08 
L 279.36 46.08 
" clip-path="url(#p9f8245afb1)" style="fill: none; stroke: #b2b2b2; stroke-opacity: 0.35; stroke-width: 0.5; stroke-linecap: square"/>
   </g>
   <g id="line2d_4">
    <path d="M 8.64 25.44 
L 279.36 25.44 
" clip-path="url(#p9f8245afb1)" style="fill: none; stroke: #b2b2b2; stroke-opacity: 0.35; stroke-width: 0.5; stroke-linecap: square"/>
   </g>
   <g id="line2d_5">
    <path d="M 8.64 93.69648 
L 11.659662 93.11856 
L 14.679324 92.44776 
L 17.698986 92.30328 
L 20.718648 92.87088 
L 23.73831 92.38584 
L 26.757972 92.47872 
L 29.777634 91.88016 
L 32.797296 90.42504 
L 35.816958 90.08448 
L 38.83662 89.92968 
L 41.856282 88.76352 
L 44.875944 87.94824 
L 47.895606 89.2692 
L 50.915268 88.72224 
L 53.93493 89.39304 
L 56.954591 89.40336 
L 59.974253 88.41264 
L 62.993915 88.4952 
L 66.013577 86.86464 
L 69.033239 86.42088 
L 72.052901 87.62832 
L 75.072563 86.93688 
L 78.092225 87.23616 
L 81.111887 88.63968 
L 84.131549 90.0432 
L 87.151211 92.12784 
L 90.170873 91.16808 
L 93.190535 91.46736 
L 96.210197 91.73568 
L 99.229859 91.78728 
L 102.249521 94.0164 
L 105.269183 92.5716 
L 108.288845 91.76664 
L 111.308507 92.33424 
L 114.328169 94.36728 
L 117.347831 94.46016 
L 120.367493 97.71096 
L 123.387155 98.48496 
L 126.406817 97.85544 
L 128.95609 99.10416 
L 131.355777 100.16712 
L 134.373901 102.23112 
L 137.380632 100.54896 
L 140.46932 100.70376 
L 143.464062 100.68312 
L 146.500955 100.95144 
L 149.514361 101.28168 
L 152.523153 101.71512 
L 155.541906 101.84928 
L 158.525256 101.034 
L 161.385581 100.54896 
L 164.598935 101.04432 
L 167.239287 100.81728 
L 170.633471 101.034 
L 173.649463 101.4984 
L 176.651476 101.33328 
L 179.652684 101.1372 
L 182.706841 101.06496 
L 185.73559 102.09696 
L 188.500154 102.05568 
L 191.764045 101.4984 
L 194.770251 100.60056 
L 197.784181 100.80696 
L 200.768264 101.45712 
L 203.856533 100.55928 
L 206.84502 101.10624 
L 209.871707 100.8792 
L 212.874453 100.74504 
L 215.900615 100.21872 
L 218.918844 100.53864 
L 221.915335 101.07528 
L 224.96432 101.38488 
L 227.993034 101.26104 
L 230.993298 100.78632 
L 234.011772 100.91016 
L 237.043317 100.99272 
L 240.057142 100.38384 
L 243.072785 100.50768 
L 246.150219 100.60056 
L 249.178409 99.76464 
L 252.145227 99.49632 
L 255.18792 99.40344 
L 258.208421 100.09488 
L 261.19869 100.3632 
L 264.200668 100.19808 
L 267.265485 100.47672 
L 270.292242 100.79664 
L 273.283944 100.26 
L 276.528508 99.83688 
L 279.36 100.13616 
" clip-path="url(#p9f8245afb1)" style="fill: none; stroke: #bebebe; stroke-width: 0.5; stroke-linecap: round"/>
   </g>
   <g id="line2d_6">
    <path d="M 8.64 76.49304 
L 11.659662 76.15248 
L 14.679324 75.82224 
L 17.698986 75.84288 
L 20.718648 76.03896 
L 23.73831 75.51264 
L 26.757972 75.56424 
L 29.777634 75.05856 
L 32.797296 73.26288 
L 35.816958 73.20096 
L 38.83662 73.00488 
L 41.856282 71.68392 
L 44.875944 70.6932 
L 47.895606 72.62304 
L 50.915268 73.52088 
L 53.93493 73.83048 
L 56.954591 73.8408 
L 59.974253 73.29384 
L 62.993915 73.72728 
L 66.013577 70.32168 
L 69.033239 69.77472 
L 72.052901 70.34232 
L 75.072563 70.67256 
L 78.092225 70.51776 
L 81.111887 70.848 
L 84.131549 72.31344 
L 87.151211 76.01832 
L 90.170873 75.41976 
L 93.190535 75.83256 
L 96.210197 75.79128 
L 99.229859 75.82224 
L 102.249521 77.82432 
L 105.269183 76.14216 
L 108.288845 74.75928 
L 111.308507 74.96568 
L 114.328169 77.75208 
L 117.347831 79.48584 
L 120.367493 83.31456 
L 123.387155 85.90488 
L 126.406817 84.79032 
L 128.95609 85.84296 
L 131.355777 88.25784 
L 134.373901 91.41576 
L 137.380632 88.7532 
L 140.46932 88.65 
L 143.464062 88.55712 
L 146.500955 88.96992 
L 149.514361 89.7336 
L 152.523153 90.456 
L 155.541906 90.56952 
L 158.525256 89.15568 
L 161.385581 88.9596 
L 164.598935 90.6624 
L 167.239287 89.94 
L 170.633471 90.00192 
L 173.649463 90.3528 
L 176.651476 90.62112 
L 179.652684 90.5076 
L 182.706841 90.3528 
L 185.73559 92.004 
L 188.500154 92.13816 
L 191.764045 91.25064 
L 194.770251 89.166 
L 197.784181 89.56848 
L 200.768264 90.93072 
L 203.856533 89.41368 
L 206.84502 90.37344 
L 209.871707 89.79552 
L 212.874453 90.23928 
L 215.900615 88.0824 
L 218.918844 88.7532 
L 221.915335 90.16704 
L 224.96432 90.67272 
L 227.993034 90.18768 
L 230.993298 89.2692 
L 234.011772 89.54784 
L 237.043317 89.49624 
L 240.057142 88.31976 
L 243.072785 88.45392 
L 246.150219 88.46424 
L 249.178409 86.38992 
L 252.145227 84.80064 
L 255.18792 84.8316 
L 258.208421 86.586 
L 261.19869 87.74184 
L 264.200668 87.618 
L 267.265485 88.19592 
L 270.292242 89.08344 
L 273.283944 87.89664 
L 276.528508 87.3084 
L 279.36 87.65928 
" clip-path="url(#p9f8245afb1)" style="fill: none; stroke: #4a8dff; stroke-width: 0.6"/>
   </g>
   <g id="line2d_7">
    <path d="M 8.64 86.328 
L 11.659662 86.24544 
L 14.679324 85.72944 
L 17.698986 85.7088 
L 20.718648 86.40024 
L 23.73831 85.09992 
L 26.757972 86.02872 
L 29.777634 84.78 
L 32.797296 83.53128 
L 35.816958 82.83984 
L 38.83662 82.03488 
L 41.856282 79.39296 
L 44.875944 79.66128 
L 47.895606 82.15872 
L 50.915268 82.43736 
L 53.93493 82.93272 
L 56.954591 83.00496 
L 59.974253 82.6128 
L 62.993915 82.28256 
L 66.013577 78.01008 
L 69.033239 76.19376 
L 72.052901 77.66952 
L 75.072563 77.74176 
L 78.092225 78.1752 
L 81.111887 79.5684 
L 84.131549 80.8068 
L 87.151211 85.20312 
L 90.170873 84.12984 
L 93.190535 84.03696 
L 96.210197 84.06792 
L 99.229859 84.3156 
L 102.249521 87.02976 
L 105.269183 85.21344 
L 108.288845 84.28464 
L 111.308507 84.32592 
L 114.328169 89.08344 
L 117.347831 89.5272 
L 120.367493 95.14128 
L 123.387155 96.98856 
L 126.406817 95.08968 
L 128.95609 97.71096 
L 131.355777 99.80592 
L 134.373901 101.79768 
L 137.380632 100.03296 
L 140.46932 100.518 
L 143.464062 99.98136 
L 146.500955 100.49736 
L 149.514361 100.78632 
L 152.523153 101.07528 
L 155.541906 101.26104 
L 158.525256 100.63152 
L 161.385581 100.38384 
L 164.598935 100.84824 
L 167.239287 100.65216 
L 170.633471 101.034 
L 173.649463 101.19912 
L 176.651476 101.10624 
L 179.652684 100.97208 
L 182.706841 100.91016 
L 185.73559 101.7564 
L 188.500154 101.84928 
L 191.764045 101.56032 
L 194.770251 100.85856 
L 197.784181 101.12688 
L 200.768264 101.4468 
L 203.856533 101.02368 
L 206.84502 101.30232 
L 209.871707 100.81728 
L 212.874453 100.79664 
L 215.900615 99.3312 
L 218.918844 99.92976 
L 221.915335 100.78632 
L 224.96432 101.17848 
L 227.993034 101.1372 
L 230.993298 100.21872 
L 234.011772 100.37352 
L 237.043317 100.4664 
L 240.057142 99.88848 
L 243.072785 99.94008 
L 246.150219 99.81624 
L 249.178409 98.93904 
L 252.145227 98.3508 
L 255.18792 98.52624 
L 258.208421 99.78528 
L 261.19869 100.12584 
L 264.200668 100.03296 
L 267.265485 100.45608 
L 270.292242 100.83792 
L 273.283944 100.11552 
L 276.528508 99.87816 
L 279.36 100.002 
" clip-path="url(#p9f8245afb1)" style="fill: none; stroke: #f5841e; stroke-width: 0.6"/>
   </g>
  </g>
 </g>
 <defs>
  <clipPath id="p9f8245afb1">
   <rect x="8.64" y="4.8" width="270.72" height="103.2"/>
  </clipPath>
 </defs>
</svg>
