<?xml version="1.0" encoding="utf-8" standalone="no"?>
<!DOCTYPE svg PUBLIC "-//W3C//DTD SVG 1.1//EN"
  "http://www.w3.org/Graphics/SVG/1.1/DTD/svg11.dtd">
<svg xmlns:xlink="http://www.w3.org/1999/xlink" width="288pt" height="120pt" viewBox="0 0 288 120" xmlns="http://www.w3.org/2000/svg" version="1.1">
<desc id="nav-meta">{"window":"1y","count":4,"labels":["15.07","14.11","15.03","15.07"],"tick_utc":["2025-07-15T12:00:00Z","2025-11-14T12:00:00Z","2026-03-15T03:42:35Z","2026-07-15T03:47:50Z"],"w":720,"h":300}</desc>

 <metadata>
  <rdf:RDF xmlns:dc="http://purl.org/dc/elements/1.1/" xmlns:cc="http://creativecommons.org/ns#" xmlns:rdf="http://www.w3.org/1999/02/22-rdf-syntax-ns#">
   <cc:Work>
    <dc:type rdf:resource="http://purl.org/dc/dcmitype/StillImage"/>
    <dc:date>2026-07-15T03:47:52.183489</dc:date>
    <dc:format>image/svg+xml</dc:format>
    <dc:creator>
     <cc:Agent>
      <dc:title>Matplotlib v3.11.0, https://matplotlib.org/</dc:title>
     </cc:Agent>
    </dc:creator>
   </cc:Work>
  </rdf:RDF>
 </metadata>
 <defs>
  <style type="text/css">*{stroke-linejoin: round; stroke-linecap: butt}</style>
 </defs>
 <g id="figure_1">
  <g id="patch_1">
   <path d="M 0 120 
L 288 120 
L 288 0 
L 0 0 
L 0 120 
z
" style="fill: none; opacity: 0"/>
  </g>
  <g id="axes_1">
   <g id="patch_2">
    <path d="M 8.64 108 
L 279.36 108 
L 279.36 4.8 
L 8.64 4.8 
L 8.64 108 
z
" style="fill: none"/>
   </g>
   <g id="matplotlib.axis_1"/>
   <g id="matplotlib.axis_2"/>
   <g id="line2d_1">
    <path d="M 8.64 87.36 
L 279.36 87.36 
" clip-path="url(#p845d85f200)" style="fill: none; stroke: #b2b2b2; stroke-opacity: 0.35; stroke-width: 0.5; stroke-linecap: square"/>
   </g>
   <g id="line2d_2">
    <path d="M 8.64 66.72 
L 279.36 66.72 
" clip-path="url(#p845d85f200)" style="fill: none; stroke: #b2b2b2; stroke-opacity: 0.35; stroke-width: 0.5; stroke-linecap: square"/>
   </g>
   <g id="line2d_3">
    <path d="M 8.64 46.08 
L 279.36 46.08 
" clip-path="url(#p845d85f200)" style="fill: none; stroke: #b2b2b2; stroke-opacity: 0.35; stroke-width: 0.5; stroke-linecap: square"/>
   </g>
   <g id="line2d_4">
    <path d="M 8.64 25.44 
L 279.36 25.44 
" clip-path="url(#p845d85f200)" style="fill: none; stroke: #b2b2b2; stroke-opacity: 0.35; stroke-width: 0.5; stroke-linecap: square"/>
   </g>
   <g id="line2d_5">
    <path d="M 8.64 82.15872 
L 9.382394 81.70464 
L 10.124788 79.01112 
L 10.867181 78.39192 
L 11.609575 78.04104 
L 12.351969 78.16488 
L 13.094363 77.05032 
L 13.836757 72.82944 
L 14.57915 70.41456 
L 15.321544 74.69736 
L 16.063938 76.6272 
L 16.806332 75.63648 
L 17.548726 75.97704 
L 18.291119 74.976 
L 19.033513 76.49304 
L 19.775907 76.99872 
L 20.518301 77.90688 
L 21.260695 79.4652 
L 22.003088 82.02456 
L 22.745482 83.19072 
L 23.487876 82.27224 
L 24.23027 80.21856 
L 24.972664 81.67368 
L 25.715057 80.5488 
L 26.457451 78.588 
L 27.199845 78.19584 
L 27.942239 77.21544 
L 28.684633 76.524 
L 29.427026 78.68088 
L 30.16942 73.88208 
L 30.911814 71.364 
L 31.654208 73.8408 
L 32.396602 75.79128 
L 33.138995 74.65608 
L 33.881389 74.14008 
L 34.623783 76.50336 
L 35.366177 78.30936 
L 36.108571 75.3372 
L 36.850964 77.25672 
L 37.593358 71.78712 
L 38.335752 70.75512 
L 39.078146 70.24944 
L 39.82054 75.35784 
L 40.562933 72.95328 
L 41.305327 70.96152 
L 42.047721 67.87584 
L 42.790115 70.46616 
L 43.532509 71.11632 
L 44.274902 71.61168 
L 45.017296 72.7056 
L 45.75969 69.33096 
L 46.502084 68.9388 
L 47.244478 71.12664 
L 47.986871 70.90992 
L 48.729265 71.80776 
L 49.471659 70.074 
L 50.214053 68.01 
L 50.956447 67.10184 
L 51.69884 65.29584 
L 52.441234 64.01616 
L 53.183628 60.31128 
L 53.926022 60.19776 
L 54.668416 60.786 
L 55.410809 62.61264 
L 56.153203 61.74576 
L 56.895597 59.57856 
L 57.637991 58.86648 
L 58.380385 61.38456 
L 59.122778 61.07496 
L 59.865172 61.83864 
L 60.607566 66.29688 
L 61.34996 67.97904 
L 62.092354 68.69112 
L 62.834747 73.9956 
L 63.577141 70.45584 
L 64.319535 70.87896 
L 65.061929 68.91816 
L 65.804323 68.3196 
L 66.546716 69.47544 
L 68.031504 62.39592 
L 68.773898 62.81904 
L 69.516292 64.22256 
L 70.258685 64.05744 
L 71.001079 62.9532 
L 71.743473 66.14208 
L 72.485867 63.91296 
L 73.228261 66.17304 
L 73.970654 74.6148 
L 74.713048 77.78304 
L 75.455442 72.66432 
L 76.197836 69.69216 
L 76.94023 71.09568 
L 78.425017 76.06992 
L 79.167411 76.76136 
L 79.909805 75.25464 
L 80.652199 75.24432 
L 81.394592 74.63544 
L 82.136986 75.73968 
L 82.87938 77.31864 
L 83.621774 74.202 
L 84.364168 73.64472 
L 85.106561 73.48992 
L 85.848955 71.83872 
L 86.591349 72.17928 
L 87.333743 73.38672 
L 88.076137 73.43832 
L 88.81853 76.15248 
L 89.560924 75.3372 
L 90.303318 75.58488 
L 91.045712 75.35784 
L 91.788106 81.168 
L 92.530499 84.01632 
L 93.272893 82.06584 
L 94.015287 84.19176 
L 94.757681 82.27224 
L 95.500075 83.29392 
L 96.242468 81.62208 
L 96.984862 80.72424 
L 97.727256 84.33624 
L 98.46965 84.64584 
L 99.212044 86.844 
L 99.954437 88.52616 
L 100.696831 88.36104 
L 101.439225 88.93896 
L 102.181619 90.79656 
L 102.924013 88.09272 
L 103.666406 89.22792 
L 104.4088 90.00192 
L 105.151194 91.39512 
L 105.893588 91.63248 
L 106.635982 90.75528 
L 107.378375 88.7016 
L 108.120769 88.52616 
L 108.863163 87.45288 
L 109.605557 88.0308 
L 110.347951 88.94928 
L 111.832738 89.7336 
L 112.575132 91.86984 
L 113.317526 88.60872 
L 114.05992 86.87496 
L 115.544707 90.11544 
L 117.029495 90.53856 
L 117.771889 90.08448 
L 118.514282 88.79448 
L 119.256676 89.20728 
L 119.99907 89.22792 
L 120.741464 90.31152 
L 121.483858 90.10512 
L 122.226251 91.09584 
L 122.968645 91.61184 
L 123.711039 91.31256 
L 124.453433 92.87088 
L 125.195827 93.8616 
L 125.93822 92.02464 
L 126.680614 92.13816 
L 127.423008 92.07624 
L 128.165402 92.14848 
L 130.392583 93.69648 
L 131.877371 92.44776 
L 132.619765 92.30328 
L 133.362158 92.87088 
L 134.104552 92.38584 
L 134.846946 92.47872 
L 135.58934 91.88016 
L 136.331734 90.42504 
L 137.074127 90.08448 
L 137.816521 89.92968 
L 138.558915 88.76352 
L 139.301309 87.94824 
L 140.043703 89.2692 
L 140.786096 88.72224 
L 141.52849 89.39304 
L 142.270884 89.40336 
L 143.013278 88.41264 
L 143.755672 88.4952 
L 144.498065 86.86464 
L 145.240459 86.42088 
L 145.982853 87.62832 
L 146.725247 86.93688 
L 147.467641 87.23616 
L 148.952428 90.0432 
L 149.694822 92.12784 
L 150.437216 91.16808 
L 151.922003 91.73568 
L 152.664397 91.78728 
L 153.406791 94.0164 
L 154.149185 92.5716 
L 154.891579 91.76664 
L 155.633972 92.33424 
L 156.376366 94.36728 
L 157.11876 94.46016 
L 157.861154 97.71096 
L 158.603548 98.48496 
L 159.345941 97.85544 
L 160.56266 100.16712 
L 161.304675 102.23112 
L 162.04389 100.54896 
L 162.803254 100.70376 
L 163.539521 100.68312 
L 165.027007 101.28168 
L 165.766728 101.71512 
L 166.508899 101.84928 
L 167.242365 101.034 
L 167.945586 100.54896 
L 168.735599 101.04432 
L 169.384738 100.81728 
L 170.219209 101.034 
L 170.960701 101.4984 
L 173.187487 101.06496 
L 173.932115 102.09696 
L 174.611792 102.05568 
L 175.41423 101.4984 
L 176.153316 100.60056 
L 176.894301 100.80696 
L 177.627947 101.45712 
L 178.387208 100.55928 
L 179.121938 101.10624 
L 180.604293 100.74504 
L 181.348285 100.21872 
L 182.090327 100.53864 
L 182.827024 101.07528 
L 183.576627 101.38488 
L 184.321246 101.26104 
L 185.058871 100.78632 
L 186.546288 100.99272 
L 187.287247 100.38384 
L 188.78525 100.60056 
L 189.52974 99.76464 
L 190.259142 99.49632 
L 191.007198 99.40344 
L 191.749798 100.09488 
L 192.484966 100.3632 
L 193.223012 100.19808 
L 194.720645 100.79664 
L 195.456165 100.26 
L 196.253852 99.83688 
L 196.949983 100.13616 
L 198.42861 101.38488 
L 201.412105 101.28168 
L 202.144721 101.8596 
L 202.887965 101.88024 
L 203.624 101.72544 
L 204.377573 101.68416 
L 205.121883 101.47776 
L 205.859456 101.78736 
L 206.603053 101.09592 
L 207.342861 101.46744 
L 208.092086 101.3436 
L 208.823129 101.05464 
L 209.578841 101.3952 
L 210.325041 101.47776 
L 211.062709 100.86888 
L 211.804536 101.26104 
L 214.02523 100.44576 
L 214.777428 100.94112 
L 215.52166 101.09592 
L 216.260797 101.00304 
L 217.000888 100.69344 
L 217.74629 100.9308 
L 219.978128 100.8792 
L 220.728522 100.64184 
L 221.472471 101.1888 
L 222.212837 101.09592 
L 222.956476 101.37456 
L 223.706981 101.21976 
L 225.187894 101.23008 
L 225.93003 100.92048 
L 226.656072 101.06496 
L 227.411544 100.70376 
L 228.154135 100.55928 
L 228.884173 100.53864 
L 229.629282 99.60984 
L 230.386635 99.72336 
L 231.866972 99.25896 
L 232.612897 99.32088 
L 233.354466 100.22904 
L 234.10052 100.01232 
L 235.586915 100.75536 
L 236.336518 101.02368 
L 237.073593 101.02368 
L 237.818642 101.17848 
L 238.565263 100.7244 
L 239.301969 100.75536 
L 240.034163 101.11656 
L 240.788311 100.91016 
L 241.540475 100.89984 
L 242.271621 101.1372 
L 243.021636 101.2404 
L 243.761659 101.6532 
L 244.504602 101.4984 
L 245.23629 101.48808 
L 245.993841 101.32296 
L 247.482306 101.7048 
L 248.233052 102.54072 
L 248.972902 103.08768 
L 249.703069 103.36632 
L 250.434052 104.22288 
L 251.192402 103.85136 
L 252.666303 103.43856 
L 253.416396 103.81008 
L 254.163146 103.72752 
L 254.908452 103.50048 
L 255.645416 103.5108 
L 256.393197 103.31472 
L 257.906899 102.61296 
L 258.625646 102.6336 
L 260.124362 103.28376 
L 261.594912 102.69552 
L 262.359036 102.582 
L 263.802098 103.15992 
L 264.544294 103.36632 
L 265.290495 103.36632 
L 266.023789 102.81936 
L 266.780335 103.0464 
L 267.528099 102.9432 
L 268.2561 102.59232 
L 269.009355 102.40656 
L 271.212262 101.3436 
L 271.965526 101.6532 
L 273.446369 101.63256 
L 274.168588 101.95248 
L 274.933486 102.08664 
L 275.674204 101.9112 
L 278.617417 102.45816 
L 279.36 102.08664 
L 279.36 102.08664 
" clip-path="url(#p845d85f200)" style="fill: none; stroke: #bebebe; stroke-width: 0.5; stroke-linecap: round"/>
   </g>
   <g id="line2d_6">
    <path d="M 8.64 74.88312 
L 9.382394 73.09776 
L 10.124788 69.6096 
L 10.867181 67.91712 
L 11.609575 66.94704 
L 12.351969 66.24528 
L 13.094363 63.80976 
L 13.836757 63.70656 
L 14.57915 63.9852 
L 15.321544 65.71896 
L 16.063938 64.5528 
L 17.548726 64.05744 
L 18.291119 62.25144 
L 19.033513 63.39696 
L 19.775907 63.366 
L 20.518301 63.08736 
L 21.260695 64.72824 
L 22.003088 67.89648 
L 22.745482 69.16584 
L 23.487876 67.69008 
L 24.23027 64.4496 
L 24.972664 65.97696 
L 25.715057 64.914 
L 26.457451 61.54968 
L 27.199845 60.04296 
L 27.942239 56.28648 
L 28.684633 56.47224 
L 29.427026 56.83344 
L 30.16942 51.22968 
L 30.911814 48.89736 
L 31.654208 52.00368 
L 32.396602 53.84064 
L 33.138995 53.90256 
L 33.881389 53.00472 
L 34.623783 55.5228 
L 35.366177 59.12448 
L 36.108571 55.32672 
L 36.850964 56.90568 
L 37.593358 47.92728 
L 38.335752 48.75288 
L 39.078146 48.68064 
L 39.82054 54.57336 
L 40.562933 51.2916 
L 41.305327 52.80864 
L 42.047721 52.69512 
L 42.790115 54.82104 
L 44.274902 54.45984 
L 45.017296 55.7292 
L 45.75969 55.39896 
L 46.502084 53.55168 
L 47.244478 55.81176 
L 47.986871 55.6776 
L 48.729265 56.18328 
L 49.471659 55.71888 
L 50.956447 55.63632 
L 51.69884 55.07904 
L 52.441234 53.41752 
L 53.183628 49.71264 
L 53.926022 50.32152 
L 54.668416 51.17808 
L 55.410809 52.44744 
L 56.153203 52.74672 
L 56.895597 51.4464 
L 57.637991 51.46704 
L 58.380385 53.2524 
L 59.122778 53.08728 
L 59.865172 53.5104 
L 60.607566 57.26688 
L 61.34996 57.76224 
L 62.092354 58.02024 
L 62.834747 62.26176 
L 63.577141 59.68176 
L 64.319535 59.9604 
L 65.061929 58.12344 
L 65.804323 57.02952 
L 66.546716 58.09248 
L 67.28911 55.13064 
L 68.031504 53.046 
L 68.773898 52.5816 
L 69.516292 52.9944 
L 70.258685 52.5816 
L 71.001079 50.0016 
L 71.743473 53.48976 
L 72.485867 52.40616 
L 73.228261 54.75912 
L 73.970654 62.67456 
L 74.713048 63.95424 
L 75.455442 57.86544 
L 76.197836 56.57544 
L 76.94023 58.31952 
L 77.682623 60.4764 
L 78.425017 61.85928 
L 79.167411 62.73648 
L 79.909805 61.8696 
L 80.652199 60.45576 
L 81.394592 60.54864 
L 82.136986 62.04504 
L 82.87938 63.16992 
L 83.621774 62.36496 
L 84.364168 61.21944 
L 85.106561 60.9408 
L 85.848955 57.83448 
L 86.591349 58.40208 
L 87.333743 60.49704 
L 88.81853 63.1596 
L 89.560924 62.49912 
L 90.303318 62.1276 
L 91.045712 61.56 
L 92.530499 70.66224 
L 93.272893 68.72208 
L 94.015287 70.4868 
L 94.757681 68.61888 
L 95.500075 69.11424 
L 96.242468 66.5136 
L 96.984862 66.68904 
L 97.727256 68.8872 
L 98.46965 68.9904 
L 99.212044 71.5704 
L 99.954437 73.48992 
L 100.696831 72.54048 
L 102.181619 74.74896 
L 102.924013 73.3248 
L 103.666406 74.80056 
L 104.4088 77.556 
L 105.151194 78.55704 
L 105.893588 78.50544 
L 106.635982 78.04104 
L 107.378375 75.76032 
L 108.120769 75.73968 
L 108.863163 74.65608 
L 109.605557 74.83152 
L 110.347951 74.57352 
L 111.090344 75.20304 
L 111.832738 75.17208 
L 112.575132 78.05136 
L 114.05992 72.16896 
L 114.802313 73.08744 
L 115.544707 74.72832 
L 117.029495 74.28456 
L 117.771889 73.21128 
L 118.514282 70.2804 
L 119.256676 70.2288 
L 119.99907 71.56008 
L 120.741464 73.79952 
L 121.483858 73.35576 
L 122.226251 74.0988 
L 122.968645 75.5952 
L 123.711039 75.5952 
L 124.453433 77.61792 
L 125.195827 77.63856 
L 125.93822 75.40944 
L 126.680614 75.40944 
L 127.423008 75.04824 
L 128.165402 74.98632 
L 128.907796 75.58488 
L 129.650189 75.87384 
L 130.392583 76.49304 
L 131.877371 75.82224 
L 132.619765 75.84288 
L 133.362158 76.03896 
L 134.104552 75.51264 
L 134.846946 75.56424 
L 135.58934 75.05856 
L 136.331734 73.26288 
L 137.074127 73.20096 
L 137.816521 73.00488 
L 138.558915 71.68392 
L 139.301309 70.6932 
L 140.043703 72.62304 
L 140.786096 73.52088 
L 141.52849 73.83048 
L 142.270884 73.8408 
L 143.013278 73.29384 
L 143.755672 73.72728 
L 144.498065 70.32168 
L 145.240459 69.77472 
L 145.982853 70.34232 
L 146.725247 70.67256 
L 147.467641 70.51776 
L 148.210034 70.848 
L 148.952428 72.31344 
L 149.694822 76.01832 
L 150.437216 75.41976 
L 151.17961 75.83256 
L 152.664397 75.82224 
L 153.406791 77.82432 
L 154.149185 76.14216 
L 154.891579 74.75928 
L 155.633972 74.96568 
L 156.376366 77.75208 
L 157.11876 79.48584 
L 157.861154 83.31456 
L 158.603548 85.90488 
L 159.345941 84.79032 
L 159.972689 85.84296 
L 161.304675 91.41576 
L 162.04389 88.7532 
L 163.539521 88.55712 
L 164.286151 88.96992 
L 165.766728 90.456 
L 166.508899 90.56952 
L 167.242365 89.15568 
L 167.945586 88.9596 
L 168.735599 90.6624 
L 169.384738 89.94 
L 170.219209 90.00192 
L 171.698756 90.62112 
L 173.187487 90.3528 
L 173.932115 92.004 
L 174.611792 92.13816 
L 175.41423 91.25064 
L 176.153316 89.166 
L 176.894301 89.56848 
L 177.627947 90.93072 
L 178.387208 89.41368 
L 179.121938 90.37344 
L 179.866058 89.79552 
L 180.604293 90.23928 
L 181.348285 88.0824 
L 182.090327 88.7532 
L 182.827024 90.16704 
L 183.576627 90.67272 
L 184.321246 90.18768 
L 185.058871 89.2692 
L 185.800973 89.54784 
L 186.546288 89.49624 
L 187.287247 88.31976 
L 188.028652 88.45392 
L 188.78525 88.46424 
L 189.52974 86.38992 
L 190.259142 84.80064 
L 191.007198 84.8316 
L 191.749798 86.586 
L 192.484966 87.74184 
L 193.223012 87.618 
L 193.976507 88.19592 
L 194.720645 89.08344 
L 195.456165 87.89664 
L 196.253852 87.3084 
L 196.949983 87.65928 
L 198.42861 90.07416 
L 199.925633 89.3724 
L 200.663344 89.00088 
L 201.412105 88.42296 
L 202.887965 89.10408 
L 203.624 89.14536 
L 204.377573 89.07312 
L 205.121883 87.9792 
L 205.859456 88.29912 
L 206.603053 86.38992 
L 207.342861 87.24648 
L 208.092086 87.1536 
L 208.823129 86.21448 
L 210.325041 87.01944 
L 211.062709 84.44976 
L 211.804536 85.05864 
L 212.550143 84.58392 
L 213.291025 85.04832 
L 214.02523 83.71704 
L 214.777428 84.86256 
L 215.52166 85.6572 
L 216.260797 85.27536 
L 217.000888 84.49104 
L 218.490651 85.32696 
L 219.224186 85.17216 
L 219.978128 85.31664 
L 220.728522 84.11952 
L 221.472471 85.66752 
L 222.212837 85.26504 
L 222.956476 86.26608 
L 224.430429 85.38888 
L 225.187894 85.3992 
L 225.93003 84.09888 
L 227.411544 84.34656 
L 228.884173 85.7604 
L 229.629282 85.0896 
L 231.134889 84.9348 
L 231.866972 85.296 
L 232.612897 85.35792 
L 233.354466 86.1732 
L 234.10052 85.92552 
L 235.586915 87.13296 
L 236.336518 88.10304 
L 237.073593 87.9276 
L 237.818642 88.26816 
L 238.565263 87.78312 
L 239.301969 87.95856 
L 240.034163 88.94928 
L 240.788311 88.14432 
L 242.271621 88.52616 
L 243.021636 88.86672 
L 243.761659 90.22896 
L 244.504602 89.82648 
L 245.23629 89.87808 
L 245.993841 89.46528 
L 246.747216 90.0432 
L 247.482306 89.96064 
L 248.233052 91.99368 
L 248.972902 93.05664 
L 249.703069 93.74808 
L 250.434052 97.02984 
L 251.192402 95.93592 
L 251.938078 95.07936 
L 252.666303 94.46016 
L 253.416396 95.47152 
L 254.908452 94.82136 
L 255.645416 94.8936 
L 256.393197 94.70784 
L 257.906899 93.40752 
L 258.625646 92.9844 
L 259.364482 93.93384 
L 260.124362 94.4292 
L 261.594912 93.87192 
L 262.359036 93.81 
L 263.057049 94.03704 
L 264.544294 95.48184 
L 265.290495 96.63768 
L 266.023789 96.14232 
L 266.780335 96.30744 
L 267.528099 96.29712 
L 268.2561 96.04944 
L 269.009355 95.9256 
L 269.738748 95.39928 
L 270.473065 94.31568 
L 271.212262 93.57264 
L 271.965526 93.32496 
L 272.715111 93.22176 
L 273.446369 93.35592 
L 274.933486 93.77904 
L 275.674204 93.26304 
L 276.394678 92.92248 
L 277.148173 92.71608 
L 277.892191 93.15984 
L 278.617417 93.17016 
L 279.36 91.80792 
L 279.36 91.80792 
" clip-path="url(#p845d85f200)" style="fill: none; stroke: #4a8dff; stroke-width: 0.6"/>
   </g>
   <g id="line2d_7">
    <path d="M 8.64 52.55064 
L 9.382394 54.77976 
L 10.124788 53.67552 
L 10.867181 52.95312 
L 11.609575 54.45984 
L 12.351969 54.55272 
L 13.094363 55.22352 
L 13.836757 54.98616 
L 14.57915 52.4268 
L 15.321544 53.79936 
L 16.063938 54.08832 
L 16.806332 54.92424 
L 17.548726 54.4908 
L 18.291119 52.98408 
L 19.033513 54.44952 
L 19.775907 54.60432 
L 20.518301 54.62496 
L 22.003088 59.38248 
L 22.745482 60.09456 
L 23.487876 58.39176 
L 24.23027 57.41136 
L 24.972664 58.464 
L 25.715057 57.5352 
L 26.457451 55.0068 
L 27.199845 55.81176 
L 27.942239 55.99752 
L 28.684633 53.13888 
L 29.427026 53.64456 
L 30.16942 52.1688 
L 30.911814 48.69096 
L 31.654208 54.0264 
L 32.396602 55.13064 
L 33.138995 54.96552 
L 33.881389 54.92424 
L 34.623783 56.25552 
L 35.366177 59.8572 
L 36.108571 58.32984 
L 36.850964 60.23904 
L 37.593358 55.65696 
L 38.335752 57.18432 
L 39.078146 59.21736 
L 39.82054 62.55072 
L 40.562933 60.82728 
L 41.305327 61.47744 
L 42.047721 60.12552 
L 42.790115 64.31544 
L 43.532509 63.99552 
L 44.274902 64.5528 
L 45.017296 63.60336 
L 45.75969 61.5084 
L 46.502084 60.96144 
L 47.244478 61.98312 
L 47.986871 62.05536 
L 48.729265 62.51976 
L 50.214053 60.64152 
L 50.956447 61.13688 
L 51.69884 58.6188 
L 52.441234 57.03984 
L 53.183628 56.35872 
L 53.926022 56.5548 
L 54.668416 57.174 
L 55.410809 57.14304 
L 56.153203 55.7292 
L 56.895597 56.04912 
L 57.637991 55.33704 
L 58.380385 56.87472 
L 59.122778 56.8128 
L 59.865172 57.24624 
L 60.607566 59.93976 
L 61.34996 60.64152 
L 62.092354 59.29992 
L 62.834747 63.80976 
L 63.577141 63.03576 
L 64.319535 63.09768 
L 65.804323 58.27824 
L 66.546716 58.5672 
L 67.28911 53.93352 
L 68.031504 51.74568 
L 68.773898 50.04288 
L 69.516292 49.90872 
L 71.001079 47.43192 
L 71.743473 50.80656 
L 72.485867 48.90768 
L 73.228261 50.6208 
L 73.970654 59.42376 
L 74.713048 61.85928 
L 75.455442 57.35976 
L 76.197836 57.3288 
L 76.94023 59.46504 
L 78.425017 64.72824 
L 79.167411 66.42072 
L 79.909805 65.688 
L 80.652199 64.17096 
L 81.394592 62.10696 
L 82.136986 64.30512 
L 82.87938 65.20296 
L 83.621774 62.68488 
L 84.364168 61.70448 
L 85.106561 61.06464 
L 85.848955 58.1028 
L 86.591349 58.40208 
L 87.333743 59.68176 
L 88.076137 62.6952 
L 88.81853 64.56312 
L 89.560924 63.18024 
L 90.303318 62.72616 
L 91.045712 62.06568 
L 91.788106 66.33816 
L 92.530499 71.40528 
L 93.272893 69.08328 
L 94.015287 71.7252 
L 94.757681 69.57864 
L 95.500075 70.72416 
L 96.242468 68.2164 
L 96.984862 66.978 
L 97.727256 70.03272 
L 98.46965 71.5188 
L 99.212044 73.3764 
L 99.954437 78.846 
L 100.696831 77.75208 
L 101.439225 78.88728 
L 102.181619 81.34344 
L 102.924013 80.53848 
L 103.666406 82.0452 
L 104.4088 86.92656 
L 105.151194 88.58808 
L 105.893588 88.96992 
L 106.635982 86.7924 
L 107.378375 85.296 
L 108.120769 86.24544 
L 108.863163 82.96368 
L 109.605557 82.13808 
L 110.347951 82.47864 
L 111.090344 82.58184 
L 111.832738 83.03592 
L 112.575132 87.3084 
L 113.317526 82.06584 
L 114.05992 79.71288 
L 114.802313 81.24024 
L 115.544707 84.17112 
L 116.287101 84.24336 
L 117.029495 83.29392 
L 117.771889 82.8192 
L 118.514282 80.64168 
L 119.256676 81.38472 
L 119.99907 80.87904 
L 120.741464 83.13912 
L 121.483858 83.19072 
L 122.968645 87.17424 
L 123.711039 85.71912 
L 124.453433 87.53544 
L 125.195827 88.17528 
L 125.93822 85.41984 
L 127.423008 84.9348 
L 128.165402 85.01736 
L 128.907796 86.14224 
L 129.650189 85.90488 
L 130.392583 86.328 
L 131.134977 86.24544 
L 131.877371 85.72944 
L 132.619765 85.7088 
L 133.362158 86.40024 
L 134.104552 85.09992 
L 134.846946 86.02872 
L 136.331734 83.53128 
L 137.816521 82.03488 
L 138.558915 79.39296 
L 139.301309 79.66128 
L 140.043703 82.15872 
L 140.786096 82.43736 
L 141.52849 82.93272 
L 142.270884 83.00496 
L 143.755672 82.28256 
L 144.498065 78.01008 
L 145.240459 76.19376 
L 145.982853 77.66952 
L 146.725247 77.74176 
L 147.467641 78.1752 
L 148.952428 80.8068 
L 149.694822 85.20312 
L 150.437216 84.12984 
L 151.17961 84.03696 
L 151.922003 84.06792 
L 152.664397 84.3156 
L 153.406791 87.02976 
L 154.149185 85.21344 
L 154.891579 84.28464 
L 155.633972 84.32592 
L 156.376366 89.08344 
L 157.11876 89.5272 
L 157.861154 95.14128 
L 158.603548 96.98856 
L 159.345941 95.08968 
L 160.56266 99.80592 
L 161.304675 101.79768 
L 162.04389 100.03296 
L 162.803254 100.518 
L 163.539521 99.98136 
L 164.286151 100.49736 
L 166.508899 101.26104 
L 167.242365 100.63152 
L 167.945586 100.38384 
L 168.735599 100.84824 
L 169.384738 100.65216 
L 170.219209 101.034 
L 170.960701 101.19912 
L 173.187487 100.91016 
L 173.932115 101.7564 
L 174.611792 101.84928 
L 175.41423 101.56032 
L 176.153316 100.85856 
L 177.627947 101.4468 
L 178.387208 101.02368 
L 179.121938 101.30232 
L 179.866058 100.81728 
L 180.604293 100.79664 
L 181.348285 99.3312 
L 182.090327 99.92976 
L 182.827024 100.78632 
L 183.576627 101.17848 
L 184.321246 101.1372 
L 185.058871 100.21872 
L 186.546288 100.4664 
L 187.287247 99.88848 
L 188.028652 99.94008 
L 188.78525 99.81624 
L 189.52974 98.93904 
L 190.259142 98.3508 
L 191.007198 98.52624 
L 191.749798 99.78528 
L 192.484966 100.12584 
L 193.223012 100.03296 
L 194.720645 100.83792 
L 195.456165 100.11552 
L 196.253852 99.87816 
L 196.949983 100.002 
L 198.42861 101.41584 
L 199.181117 101.21976 
L 200.663344 101.00304 
L 201.412105 100.86888 
L 202.144721 101.21976 
L 202.887965 101.28168 
L 204.377573 101.14752 
L 205.121883 100.55928 
L 205.859456 100.65216 
L 206.603053 99.80592 
L 207.342861 99.96072 
L 208.092086 99.6408 
L 208.823129 99.1764 
L 209.578841 99.70272 
L 210.325041 99.94008 
L 211.062709 98.57784 
L 211.804536 98.65008 
L 212.550143 98.38176 
L 213.291025 98.48496 
L 214.02523 96.70992 
L 214.777428 98.05152 
L 215.52166 98.48496 
L 216.260797 97.96896 
L 217.000888 96.32808 
L 218.490651 96.16296 
L 219.224186 96.1836 
L 219.978128 96.50352 
L 220.728522 94.76976 
L 221.472471 97.19496 
L 222.212837 96.9576 
L 222.956476 97.9896 
L 223.706981 96.89568 
L 224.430429 95.45088 
L 225.187894 95.67792 
L 225.93003 93.43848 
L 227.411544 92.25168 
L 228.154135 92.87088 
L 228.884173 94.2744 
L 229.629282 93.1392 
L 230.386635 92.97408 
L 231.134889 92.9844 
L 231.866972 92.60256 
L 232.612897 92.53032 
L 233.354466 94.54272 
L 234.10052 92.85024 
L 234.833437 94.82136 
L 235.586915 95.75016 
L 236.336518 96.97824 
L 237.818642 97.23624 
L 238.565263 95.94624 
L 239.301969 96.30744 
L 240.034163 98.08248 
L 241.540475 96.61704 
L 242.271621 97.23624 
L 243.021636 98.08248 
L 243.761659 99.18672 
L 244.504602 99.03192 
L 245.23629 99.1248 
L 245.993841 98.74296 
L 246.747216 99.09384 
L 247.482306 100.0536 
L 248.233052 101.23008 
L 248.972902 101.99376 
L 249.703069 102.08664 
L 250.434052 102.8916 
L 251.192402 102.45816 
L 252.666303 102.10728 
L 253.416396 102.582 
L 254.908452 102.08664 
L 255.645416 102.066 
L 256.393197 101.86992 
L 257.160269 101.48808 
L 257.906899 101.40552 
L 258.625646 101.4984 
L 259.364482 101.97312 
L 260.124362 102.26208 
L 261.594912 101.90088 
L 262.359036 101.90088 
L 263.057049 102.0144 
L 263.802098 102.25176 
L 264.544294 102.6336 
L 265.290495 102.88128 
L 266.023789 102.77808 
L 269.009355 103.00512 
L 269.738748 102.69552 
L 270.473065 102.55104 
L 271.212262 102.2724 
L 273.446369 102.13824 
L 274.933486 102.36528 
L 275.674204 101.94216 
L 277.148173 101.9112 
L 277.892191 102.2208 
L 278.617417 102.31368 
L 279.36 101.79768 
L 279.36 101.79768 
" clip-path="url(#p845d85f200)" style="fill: none; stroke: #f5841e; stroke-width: 0.6"/>
   </g>
  </g>
 </g>
 <defs>
  <clipPath id="p845d85f200">
   <rect x="8.64" y="4.8" width="270.72" height="103.2"/>
  </clipPath>
 </defs>
</svg>
