<?xml version="1.0" encoding="utf-8" standalone="no"?>
<!DOCTYPE svg PUBLIC "-//W3C//DTD SVG 1.1//EN"
  "http://www.w3.org/Graphics/SVG/1.1/DTD/svg11.dtd">
<svg xmlns:xlink="http://www.w3.org/1999/xlink" width="288pt" height="120pt" viewBox="0 0 288 120" xmlns="http://www.w3.org/2000/svg" version="1.1">
<desc id="nav-meta">{"window":"1y","count":4,"labels":["24.07","22.11","24.03","23.07"],"tick_utc":["2025-07-24T12:00:00Z","2025-11-22T12:00:00Z","2026-03-24T03:21:58Z","2026-07-23T03:58:20Z"],"w":720,"h":300}</desc>

 <metadata>
  <rdf:RDF xmlns:dc="http://purl.org/dc/elements/1.1/" xmlns:cc="http://creativecommons.org/ns#" xmlns:rdf="http://www.w3.org/1999/02/22-rdf-syntax-ns#">
   <cc:Work>
    <dc:type rdf:resource="http://purl.org/dc/dcmitype/StillImage"/>
    <dc:date>2026-07-23T19:59:28.951209</dc:date>
    <dc:format>image/svg+xml</dc:format>
    <dc:creator>
     <cc:Agent>
      <dc:title>Matplotlib v3.11.1, https://matplotlib.org/</dc:title>
     </cc:Agent>
    </dc:creator>
   </cc:Work>
  </rdf:RDF>
 </metadata>
 <defs>
  <style type="text/css">*{stroke-linejoin: round; stroke-linecap: butt}</style>
 </defs>
 <g id="figure_1">
  <g id="patch_1">
   <path d="M 0 120 
L 288 120 
L 288 0 
L 0 0 
L 0 120 
z
" style="fill: none; opacity: 0"/>
  </g>
  <g id="axes_1">
   <g id="patch_2">
    <path d="M 8.64 108 
L 279.36 108 
L 279.36 4.8 
L 8.64 4.8 
L 8.64 108 
z
" style="fill: none"/>
   </g>
   <g id="matplotlib.axis_1"/>
   <g id="matplotlib.axis_2"/>
   <g id="line2d_1">
    <path d="M 8.64 87.36 
L 279.36 87.36 
" clip-path="url(#p1c3827b542)" style="fill: none; stroke: #b2b2b2; stroke-opacity: 0.35; stroke-width: 0.5; stroke-linecap: square"/>
   </g>
   <g id="line2d_2">
    <path d="M 8.64 66.72 
L 279.36 66.72 
" clip-path="url(#p1c3827b542)" style="fill: none; stroke: #b2b2b2; stroke-opacity: 0.35; stroke-width: 0.5; stroke-linecap: square"/>
   </g>
   <g id="line2d_3">
    <path d="M 8.64 46.08 
L 279.36 46.08 
" clip-path="url(#p1c3827b542)" style="fill: none; stroke: #b2b2b2; stroke-opacity: 0.35; stroke-width: 0.5; stroke-linecap: square"/>
   </g>
   <g id="line2d_4">
    <path d="M 8.64 25.44 
L 279.36 25.44 
" clip-path="url(#p1c3827b542)" style="fill: none; stroke: #b2b2b2; stroke-opacity: 0.35; stroke-width: 0.5; stroke-linecap: square"/>
   </g>
   <g id="line2d_5">
    <path d="M 8.64 74.69736 
L 9.38442 76.6272 
L 10.128841 75.63648 
L 10.873261 75.97704 
L 11.617681 74.976 
L 12.362102 76.49304 
L 13.106522 76.99872 
L 13.850942 77.90688 
L 14.595363 79.4652 
L 15.339783 82.02456 
L 16.084203 83.19072 
L 16.828624 82.27224 
L 17.573044 80.21856 
L 18.317464 81.67368 
L 19.061885 80.5488 
L 19.806305 78.588 
L 20.550725 78.19584 
L 21.295146 77.21544 
L 22.039566 76.524 
L 22.783986 78.68088 
L 23.528407 73.88208 
L 24.272827 71.364 
L 25.017247 73.8408 
L 25.761668 75.79128 
L 26.506088 74.65608 
L 27.250508 74.14008 
L 27.994929 76.50336 
L 28.739349 78.30936 
L 29.483769 75.3372 
L 30.22819 77.25672 
L 30.97261 71.78712 
L 31.71703 70.75512 
L 32.461451 70.24944 
L 33.205871 75.35784 
L 33.950291 72.95328 
L 34.694712 70.96152 
L 35.439132 67.87584 
L 36.183552 70.46616 
L 36.927973 71.11632 
L 37.672393 71.61168 
L 38.416813 72.7056 
L 39.161234 69.33096 
L 39.905654 68.9388 
L 40.650074 71.12664 
L 41.394495 70.90992 
L 42.138915 71.80776 
L 42.883335 70.074 
L 43.627756 68.01 
L 44.372176 67.10184 
L 45.116596 65.29584 
L 45.861017 64.01616 
L 46.605437 60.31128 
L 47.349857 60.19776 
L 48.094278 60.786 
L 48.838698 62.61264 
L 49.583118 61.74576 
L 50.327539 59.57856 
L 51.071959 58.86648 
L 51.816379 61.38456 
L 52.5608 61.07496 
L 53.30522 61.83864 
L 54.04964 66.29688 
L 54.794061 67.97904 
L 55.538481 68.69112 
L 56.282901 73.9956 
L 57.027322 70.45584 
L 57.771742 70.87896 
L 58.516162 68.91816 
L 59.260583 68.3196 
L 60.005003 69.47544 
L 61.493844 62.39592 
L 62.238264 62.81904 
L 62.982684 64.22256 
L 63.727105 64.05744 
L 64.471525 62.9532 
L 65.215945 66.14208 
L 65.960366 63.91296 
L 66.704786 66.17304 
L 67.449206 74.6148 
L 68.193627 77.78304 
L 68.938047 72.66432 
L 69.682467 69.69216 
L 70.426888 71.09568 
L 71.915728 76.06992 
L 72.660149 76.76136 
L 73.404569 75.25464 
L 74.148989 75.24432 
L 74.89341 74.63544 
L 75.63783 75.73968 
L 76.38225 77.31864 
L 77.126671 74.202 
L 77.871091 73.64472 
L 78.615511 73.48992 
L 79.359932 71.83872 
L 80.104352 72.17928 
L 80.848772 73.38672 
L 81.593193 73.43832 
L 82.337613 76.15248 
L 83.082033 75.3372 
L 83.826454 75.58488 
L 84.570874 75.35784 
L 85.315294 81.168 
L 86.059715 84.01632 
L 86.804135 82.06584 
L 87.548555 84.19176 
L 88.292976 82.27224 
L 89.037396 83.29392 
L 89.781816 81.62208 
L 90.526237 80.72424 
L 91.270657 84.33624 
L 92.015077 84.64584 
L 92.759498 86.844 
L 93.503918 88.52616 
L 94.248338 88.36104 
L 94.992759 88.93896 
L 95.737179 90.79656 
L 96.481599 88.09272 
L 97.22602 89.22792 
L 97.97044 90.00192 
L 98.71486 91.39512 
L 99.459281 91.63248 
L 100.203701 90.75528 
L 100.948121 88.7016 
L 101.692542 88.52616 
L 102.436962 87.45288 
L 103.181382 88.0308 
L 103.925803 88.94928 
L 105.414643 89.7336 
L 106.159064 91.86984 
L 106.903484 88.60872 
L 107.647904 86.87496 
L 109.136745 90.11544 
L 110.625586 90.53856 
L 111.370006 90.08448 
L 112.114426 88.79448 
L 112.858847 89.20728 
L 113.603267 89.22792 
L 114.347687 90.31152 
L 115.092108 90.10512 
L 115.836528 91.09584 
L 116.580948 91.61184 
L 117.325369 91.31256 
L 118.069789 92.87088 
L 118.814209 93.8616 
L 119.55863 92.02464 
L 120.30305 92.13816 
L 121.04747 92.07624 
L 121.791891 92.14848 
L 124.025152 93.69648 
L 125.513992 92.44776 
L 126.258413 92.30328 
L 127.002833 92.87088 
L 127.747253 92.38584 
L 128.491674 92.47872 
L 129.236094 91.88016 
L 129.980515 90.42504 
L 130.724935 90.08448 
L 131.469355 89.92968 
L 132.213776 88.76352 
L 132.958196 87.94824 
L 133.702616 89.2692 
L 134.447037 88.72224 
L 135.191457 89.39304 
L 135.935877 89.40336 
L 136.680298 88.41264 
L 137.424718 88.4952 
L 138.169138 86.86464 
L 138.913559 86.42088 
L 139.657979 87.62832 
L 140.402399 86.93688 
L 141.14682 87.23616 
L 142.63566 90.0432 
L 143.380081 92.12784 
L 144.124501 91.16808 
L 145.613342 91.73568 
L 146.357762 91.78728 
L 147.102182 94.0164 
L 147.846603 92.5716 
L 148.591023 91.76664 
L 149.335443 92.33424 
L 150.079864 94.36728 
L 150.824284 94.46016 
L 151.568704 97.71096 
L 152.313125 98.48496 
L 153.057545 97.85544 
L 154.277584 100.16712 
L 155.021626 102.23112 
L 155.762858 100.54896 
L 156.524295 100.70376 
L 157.262572 100.68312 
L 158.754118 101.28168 
L 159.495859 101.71512 
L 160.240055 101.84928 
L 160.975524 101.034 
L 161.680664 100.54896 
L 162.472834 101.04432 
L 163.123745 100.81728 
L 163.960494 101.034 
L 164.70401 101.4984 
L 166.936874 101.06496 
L 167.683535 102.09696 
L 168.365067 102.05568 
L 169.169696 101.4984 
L 169.910799 100.60056 
L 170.653806 100.80696 
L 171.389456 101.45712 
L 172.150789 100.55928 
L 172.887524 101.10624 
L 174.373926 100.74504 
L 175.119949 100.21872 
L 175.864016 100.53864 
L 176.602724 101.07528 
L 177.354373 101.38488 
L 178.101025 101.26104 
L 178.840664 100.78632 
L 180.332141 100.99272 
L 181.075122 100.38384 
L 182.577214 100.60056 
L 183.323737 99.76464 
L 184.05513 99.49632 
L 184.805228 99.40344 
L 185.549855 100.09488 
L 186.28703 100.3632 
L 187.02709 100.19808 
L 188.528812 100.79664 
L 189.266339 100.26 
L 190.066204 99.83688 
L 190.764236 100.13616 
L 192.246899 101.38488 
L 195.238538 101.28168 
L 195.973153 101.8596 
L 196.718426 101.88024 
L 197.456471 101.72544 
L 198.212101 101.68416 
L 198.958442 101.47776 
L 199.698029 101.78736 
L 200.443656 101.09592 
L 201.185483 101.46744 
L 201.936753 101.3436 
L 202.669791 101.05464 
L 203.427566 101.3952 
L 204.175804 101.47776 
L 204.915485 100.86888 
L 205.659337 101.26104 
L 207.886093 100.44576 
L 208.640344 100.94112 
L 209.386608 101.09592 
L 210.127763 101.00304 
L 210.869874 100.69344 
L 211.61731 100.9308 
L 213.855241 100.8792 
L 214.607683 100.64184 
L 215.353663 101.1888 
L 216.09605 101.09592 
L 216.841719 101.37456 
L 217.594273 101.21976 
L 219.079228 101.23008 
L 219.82339 100.92048 
L 220.551414 101.06496 
L 221.308948 100.70376 
L 222.053566 100.55928 
L 222.785597 100.53864 
L 223.53274 99.60984 
L 224.292161 99.72336 
L 225.776538 99.25896 
L 226.5245 99.32088 
L 227.268093 100.22904 
L 228.016184 100.01232 
L 229.506635 100.75536 
L 230.258285 101.02368 
L 230.997372 101.02368 
L 231.744454 101.17848 
L 232.493114 100.7244 
L 233.23183 100.75536 
L 233.966023 101.11656 
L 234.72223 100.91016 
L 235.476447 100.89984 
L 236.209589 101.1372 
L 236.961652 101.2404 
L 237.703694 101.6532 
L 238.448666 101.4984 
L 239.182351 101.48808 
L 239.94197 101.32296 
L 241.434498 101.7048 
L 242.187293 102.54072 
L 242.929163 103.08768 
L 243.661323 103.36632 
L 244.394301 104.22288 
L 245.154721 103.85136 
L 246.632646 103.43856 
L 247.384786 103.81008 
L 248.133574 103.72752 
L 248.880916 103.50048 
L 249.619891 103.5108 
L 250.369713 103.31472 
L 251.887547 102.61296 
L 252.608256 102.6336 
L 254.111063 103.28376 
L 255.585627 102.69552 
L 256.351837 102.582 
L 257.798839 103.15992 
L 258.543061 103.36632 
L 259.291298 103.36632 
L 260.026594 102.81936 
L 260.785205 103.0464 
L 261.53501 102.9432 
L 262.264999 102.59232 
L 263.02031 102.40656 
L 265.229231 101.3436 
L 265.98455 101.6532 
L 267.469436 101.63256 
L 268.193626 101.95248 
L 268.960612 102.08664 
L 269.703352 101.9112 
L 272.654599 102.45816 
L 273.399209 102.08664 
L 275.630773 102.4272 
L 277.140904 102.25176 
L 277.871754 102.02472 
L 279.36 102.10728 
L 279.36 102.10728 
" clip-path="url(#p1c3827b542)" style="fill: none; stroke: #bebebe; stroke-width: 0.5; stroke-linecap: round"/>
   </g>
   <g id="line2d_6">
    <path d="M 8.64 65.71896 
L 9.38442 64.5528 
L 10.873261 64.05744 
L 11.617681 62.25144 
L 12.362102 63.39696 
L 13.106522 63.366 
L 13.850942 63.08736 
L 14.595363 64.72824 
L 15.339783 67.89648 
L 16.084203 69.16584 
L 16.828624 67.69008 
L 17.573044 64.4496 
L 18.317464 65.97696 
L 19.061885 64.914 
L 19.806305 61.54968 
L 20.550725 60.04296 
L 21.295146 56.28648 
L 22.039566 56.47224 
L 22.783986 56.83344 
L 23.528407 51.22968 
L 24.272827 48.89736 
L 25.017247 52.00368 
L 25.761668 53.84064 
L 26.506088 53.90256 
L 27.250508 53.00472 
L 27.994929 55.5228 
L 28.739349 59.12448 
L 29.483769 55.32672 
L 30.22819 56.90568 
L 30.97261 47.92728 
L 31.71703 48.75288 
L 32.461451 48.68064 
L 33.205871 54.57336 
L 33.950291 51.2916 
L 34.694712 52.80864 
L 35.439132 52.69512 
L 36.183552 54.82104 
L 37.672393 54.45984 
L 38.416813 55.7292 
L 39.161234 55.39896 
L 39.905654 53.55168 
L 40.650074 55.81176 
L 41.394495 55.6776 
L 42.138915 56.18328 
L 42.883335 55.71888 
L 44.372176 55.63632 
L 45.116596 55.07904 
L 45.861017 53.41752 
L 46.605437 49.71264 
L 47.349857 50.32152 
L 48.094278 51.17808 
L 48.838698 52.44744 
L 49.583118 52.74672 
L 50.327539 51.4464 
L 51.071959 51.46704 
L 51.816379 53.2524 
L 52.5608 53.08728 
L 53.30522 53.5104 
L 54.04964 57.26688 
L 54.794061 57.76224 
L 55.538481 58.02024 
L 56.282901 62.26176 
L 57.027322 59.68176 
L 57.771742 59.9604 
L 58.516162 58.12344 
L 59.260583 57.02952 
L 60.005003 58.09248 
L 60.749423 55.13064 
L 61.493844 53.046 
L 62.238264 52.5816 
L 62.982684 52.9944 
L 63.727105 52.5816 
L 64.471525 50.0016 
L 65.215945 53.48976 
L 65.960366 52.40616 
L 66.704786 54.75912 
L 67.449206 62.67456 
L 68.193627 63.95424 
L 68.938047 57.86544 
L 69.682467 56.57544 
L 70.426888 58.31952 
L 71.171308 60.4764 
L 71.915728 61.85928 
L 72.660149 62.73648 
L 73.404569 61.8696 
L 74.148989 60.45576 
L 74.89341 60.54864 
L 75.63783 62.04504 
L 76.38225 63.16992 
L 77.126671 62.36496 
L 77.871091 61.21944 
L 78.615511 60.9408 
L 79.359932 57.83448 
L 80.104352 58.40208 
L 80.848772 60.49704 
L 82.337613 63.1596 
L 83.082033 62.49912 
L 83.826454 62.1276 
L 84.570874 61.56 
L 86.059715 70.66224 
L 86.804135 68.72208 
L 87.548555 70.4868 
L 88.292976 68.61888 
L 89.037396 69.11424 
L 89.781816 66.5136 
L 90.526237 66.68904 
L 91.270657 68.8872 
L 92.015077 68.9904 
L 92.759498 71.5704 
L 93.503918 73.48992 
L 94.248338 72.54048 
L 95.737179 74.74896 
L 96.481599 73.3248 
L 97.22602 74.80056 
L 97.97044 77.556 
L 98.71486 78.55704 
L 99.459281 78.50544 
L 100.203701 78.04104 
L 100.948121 75.76032 
L 101.692542 75.73968 
L 102.436962 74.65608 
L 103.181382 74.83152 
L 103.925803 74.57352 
L 104.670223 75.20304 
L 105.414643 75.17208 
L 106.159064 78.05136 
L 107.647904 72.16896 
L 108.392325 73.08744 
L 109.136745 74.72832 
L 110.625586 74.28456 
L 111.370006 73.21128 
L 112.114426 70.2804 
L 112.858847 70.2288 
L 113.603267 71.56008 
L 114.347687 73.79952 
L 115.092108 73.35576 
L 115.836528 74.0988 
L 116.580948 75.5952 
L 117.325369 75.5952 
L 118.069789 77.61792 
L 118.814209 77.63856 
L 119.55863 75.40944 
L 120.30305 75.40944 
L 121.04747 75.04824 
L 121.791891 74.98632 
L 122.536311 75.58488 
L 123.280731 75.87384 
L 124.025152 76.49304 
L 125.513992 75.82224 
L 126.258413 75.84288 
L 127.002833 76.03896 
L 127.747253 75.51264 
L 128.491674 75.56424 
L 129.236094 75.05856 
L 129.980515 73.26288 
L 130.724935 73.20096 
L 131.469355 73.00488 
L 132.213776 71.68392 
L 132.958196 70.6932 
L 133.702616 72.62304 
L 134.447037 73.52088 
L 135.191457 73.83048 
L 135.935877 73.8408 
L 136.680298 73.29384 
L 137.424718 73.72728 
L 138.169138 70.32168 
L 138.913559 69.77472 
L 139.657979 70.34232 
L 140.402399 70.67256 
L 141.14682 70.51776 
L 141.89124 70.848 
L 142.63566 72.31344 
L 143.380081 76.01832 
L 144.124501 75.41976 
L 144.868921 75.83256 
L 146.357762 75.82224 
L 147.102182 77.82432 
L 147.846603 76.14216 
L 148.591023 74.75928 
L 149.335443 74.96568 
L 150.079864 77.75208 
L 150.824284 79.48584 
L 151.568704 83.31456 
L 152.313125 85.90488 
L 153.057545 84.79032 
L 153.686003 85.84296 
L 155.021626 91.41576 
L 155.762858 88.7532 
L 157.262572 88.55712 
L 158.01124 88.96992 
L 159.495859 90.456 
L 160.240055 90.56952 
L 160.975524 89.15568 
L 161.680664 88.9596 
L 162.472834 90.6624 
L 163.123745 89.94 
L 163.960494 90.00192 
L 165.444079 90.62112 
L 166.936874 90.3528 
L 167.683535 92.004 
L 168.365067 92.13816 
L 169.169696 91.25064 
L 169.910799 89.166 
L 170.653806 89.56848 
L 171.389456 90.93072 
L 172.150789 89.41368 
L 172.887524 90.37344 
L 173.633676 89.79552 
L 174.373926 90.23928 
L 175.119949 88.0824 
L 175.864016 88.7532 
L 176.602724 90.16704 
L 177.354373 90.67272 
L 178.101025 90.18768 
L 178.840664 89.2692 
L 179.584791 89.54784 
L 180.332141 89.49624 
L 181.075122 88.31976 
L 181.818552 88.45392 
L 182.577214 88.46424 
L 183.323737 86.38992 
L 184.05513 84.80064 
L 184.805228 84.8316 
L 185.549855 86.586 
L 186.28703 87.74184 
L 187.02709 87.618 
L 187.782643 88.19592 
L 188.528812 89.08344 
L 189.266339 87.89664 
L 190.066204 87.3084 
L 190.764236 87.65928 
L 192.246899 90.07416 
L 193.748008 89.3724 
L 194.487733 89.00088 
L 195.238538 88.42296 
L 196.718426 89.10408 
L 197.456471 89.14536 
L 198.212101 89.07312 
L 198.958442 87.9792 
L 199.698029 88.29912 
L 200.443656 86.38992 
L 201.185483 87.24648 
L 201.936753 87.1536 
L 202.669791 86.21448 
L 204.175804 87.01944 
L 204.915485 84.44976 
L 205.659337 85.05864 
L 206.40698 84.58392 
L 207.149883 85.04832 
L 207.886093 83.71704 
L 208.640344 84.86256 
L 209.386608 85.6572 
L 210.127763 85.27536 
L 210.869874 84.49104 
L 212.363704 85.32696 
L 213.099241 85.17216 
L 213.855241 85.31664 
L 214.607683 84.11952 
L 215.353663 85.66752 
L 216.09605 85.26504 
L 216.841719 86.26608 
L 218.319695 85.38888 
L 219.079228 85.3992 
L 219.82339 84.09888 
L 221.308948 84.34656 
L 222.785597 85.7604 
L 223.53274 85.0896 
L 225.042457 84.9348 
L 225.776538 85.296 
L 226.5245 85.35792 
L 227.268093 86.1732 
L 228.016184 85.92552 
L 229.506635 87.13296 
L 230.258285 88.10304 
L 230.997372 87.9276 
L 231.744454 88.26816 
L 232.493114 87.78312 
L 233.23183 87.95856 
L 233.966023 88.94928 
L 234.72223 88.14432 
L 236.209589 88.52616 
L 236.961652 88.86672 
L 237.703694 90.22896 
L 238.448666 89.82648 
L 239.182351 89.87808 
L 239.94197 89.46528 
L 240.697401 90.0432 
L 241.434498 89.96064 
L 242.187293 91.99368 
L 242.929163 93.05664 
L 243.661323 93.74808 
L 244.394301 97.02984 
L 245.154721 95.93592 
L 245.902433 95.07936 
L 246.632646 94.46016 
L 247.384786 95.47152 
L 248.880916 94.82136 
L 249.619891 94.8936 
L 250.369713 94.70784 
L 251.887547 93.40752 
L 252.608256 92.9844 
L 253.349109 93.93384 
L 254.111063 94.4292 
L 255.585627 93.87192 
L 256.351837 93.81 
L 257.051756 94.03704 
L 258.543061 95.48184 
L 259.291298 96.63768 
L 260.026594 96.14232 
L 260.785205 96.30744 
L 261.53501 96.29712 
L 262.264999 96.04944 
L 263.02031 95.9256 
L 263.751694 95.39928 
L 264.488015 94.31568 
L 265.229231 93.57264 
L 265.98455 93.32496 
L 266.736182 93.22176 
L 267.469436 93.35592 
L 268.960612 93.77904 
L 269.703352 93.26304 
L 270.425793 92.92248 
L 271.181345 92.71608 
L 271.927394 93.15984 
L 272.654599 93.17016 
L 273.399209 91.80792 
L 274.145491 91.14744 
L 274.890032 92.13816 
L 275.630773 92.25168 
L 276.386385 91.9008 
L 277.140904 91.81824 
L 277.871754 91.00296 
L 278.616717 90.98232 
L 279.36 91.10616 
L 279.36 91.10616 
" clip-path="url(#p1c3827b542)" style="fill: none; stroke: #4a8dff; stroke-width: 0.6"/>
   </g>
   <g id="line2d_7">
    <path d="M 8.64 53.79936 
L 9.38442 54.08832 
L 10.128841 54.92424 
L 10.873261 54.4908 
L 11.617681 52.98408 
L 12.362102 54.44952 
L 13.106522 54.60432 
L 13.850942 54.62496 
L 15.339783 59.38248 
L 16.084203 60.09456 
L 16.828624 58.39176 
L 17.573044 57.41136 
L 18.317464 58.464 
L 19.061885 57.5352 
L 19.806305 55.0068 
L 20.550725 55.81176 
L 21.295146 55.99752 
L 22.039566 53.13888 
L 22.783986 53.64456 
L 23.528407 52.1688 
L 24.272827 48.69096 
L 25.017247 54.0264 
L 25.761668 55.13064 
L 26.506088 54.96552 
L 27.250508 54.92424 
L 27.994929 56.25552 
L 28.739349 59.8572 
L 29.483769 58.32984 
L 30.22819 60.23904 
L 30.97261 55.65696 
L 31.71703 57.18432 
L 32.461451 59.21736 
L 33.205871 62.55072 
L 33.950291 60.82728 
L 34.694712 61.47744 
L 35.439132 60.12552 
L 36.183552 64.31544 
L 36.927973 63.99552 
L 37.672393 64.5528 
L 38.416813 63.60336 
L 39.161234 61.5084 
L 39.905654 60.96144 
L 40.650074 61.98312 
L 41.394495 62.05536 
L 42.138915 62.51976 
L 43.627756 60.64152 
L 44.372176 61.13688 
L 45.116596 58.6188 
L 45.861017 57.03984 
L 46.605437 56.35872 
L 47.349857 56.5548 
L 48.094278 57.174 
L 48.838698 57.14304 
L 49.583118 55.7292 
L 50.327539 56.04912 
L 51.071959 55.33704 
L 51.816379 56.87472 
L 52.5608 56.8128 
L 53.30522 57.24624 
L 54.04964 59.93976 
L 54.794061 60.64152 
L 55.538481 59.29992 
L 56.282901 63.80976 
L 57.027322 63.03576 
L 57.771742 63.09768 
L 59.260583 58.27824 
L 60.005003 58.5672 
L 60.749423 53.93352 
L 61.493844 51.74568 
L 62.238264 50.04288 
L 62.982684 49.90872 
L 64.471525 47.43192 
L 65.215945 50.80656 
L 65.960366 48.90768 
L 66.704786 50.6208 
L 67.449206 59.42376 
L 68.193627 61.85928 
L 68.938047 57.35976 
L 69.682467 57.3288 
L 70.426888 59.46504 
L 71.915728 64.72824 
L 72.660149 66.42072 
L 73.404569 65.688 
L 74.148989 64.17096 
L 74.89341 62.10696 
L 75.63783 64.30512 
L 76.38225 65.20296 
L 77.126671 62.68488 
L 77.871091 61.70448 
L 78.615511 61.06464 
L 79.359932 58.1028 
L 80.104352 58.40208 
L 80.848772 59.68176 
L 81.593193 62.6952 
L 82.337613 64.56312 
L 83.082033 63.18024 
L 83.826454 62.72616 
L 84.570874 62.06568 
L 85.315294 66.33816 
L 86.059715 71.40528 
L 86.804135 69.08328 
L 87.548555 71.7252 
L 88.292976 69.57864 
L 89.037396 70.72416 
L 89.781816 68.2164 
L 90.526237 66.978 
L 91.270657 70.03272 
L 92.015077 71.5188 
L 92.759498 73.3764 
L 93.503918 78.846 
L 94.248338 77.75208 
L 94.992759 78.88728 
L 95.737179 81.34344 
L 96.481599 80.53848 
L 97.22602 82.0452 
L 97.97044 86.92656 
L 98.71486 88.58808 
L 99.459281 88.96992 
L 100.203701 86.7924 
L 100.948121 85.296 
L 101.692542 86.24544 
L 102.436962 82.96368 
L 103.181382 82.13808 
L 103.925803 82.47864 
L 104.670223 82.58184 
L 105.414643 83.03592 
L 106.159064 87.3084 
L 106.903484 82.06584 
L 107.647904 79.71288 
L 108.392325 81.24024 
L 109.136745 84.17112 
L 109.881165 84.24336 
L 110.625586 83.29392 
L 111.370006 82.8192 
L 112.114426 80.64168 
L 112.858847 81.38472 
L 113.603267 80.87904 
L 114.347687 83.13912 
L 115.092108 83.19072 
L 116.580948 87.17424 
L 117.325369 85.71912 
L 118.069789 87.53544 
L 118.814209 88.17528 
L 119.55863 85.41984 
L 121.04747 84.9348 
L 121.791891 85.01736 
L 122.536311 86.14224 
L 123.280731 85.90488 
L 124.025152 86.328 
L 124.769572 86.24544 
L 125.513992 85.72944 
L 126.258413 85.7088 
L 127.002833 86.40024 
L 127.747253 85.09992 
L 128.491674 86.02872 
L 129.980515 83.53128 
L 131.469355 82.03488 
L 132.213776 79.39296 
L 132.958196 79.66128 
L 133.702616 82.15872 
L 134.447037 82.43736 
L 135.191457 82.93272 
L 135.935877 83.00496 
L 137.424718 82.28256 
L 138.169138 78.01008 
L 138.913559 76.19376 
L 139.657979 77.66952 
L 140.402399 77.74176 
L 141.14682 78.1752 
L 142.63566 80.8068 
L 143.380081 85.20312 
L 144.124501 84.12984 
L 144.868921 84.03696 
L 145.613342 84.06792 
L 146.357762 84.3156 
L 147.102182 87.02976 
L 147.846603 85.21344 
L 148.591023 84.28464 
L 149.335443 84.32592 
L 150.079864 89.08344 
L 150.824284 89.5272 
L 151.568704 95.14128 
L 152.313125 96.98856 
L 153.057545 95.08968 
L 154.277584 99.80592 
L 155.021626 101.79768 
L 155.762858 100.03296 
L 156.524295 100.518 
L 157.262572 99.98136 
L 158.01124 100.49736 
L 160.240055 101.26104 
L 160.975524 100.63152 
L 161.680664 100.38384 
L 162.472834 100.84824 
L 163.123745 100.65216 
L 163.960494 101.034 
L 164.70401 101.19912 
L 166.936874 100.91016 
L 167.683535 101.7564 
L 168.365067 101.84928 
L 169.169696 101.56032 
L 169.910799 100.85856 
L 171.389456 101.4468 
L 172.150789 101.02368 
L 172.887524 101.30232 
L 173.633676 100.81728 
L 174.373926 100.79664 
L 175.119949 99.3312 
L 175.864016 99.92976 
L 176.602724 100.78632 
L 177.354373 101.17848 
L 178.101025 101.1372 
L 178.840664 100.21872 
L 180.332141 100.4664 
L 181.075122 99.88848 
L 181.818552 99.94008 
L 182.577214 99.81624 
L 183.323737 98.93904 
L 184.05513 98.3508 
L 184.805228 98.52624 
L 185.549855 99.78528 
L 186.28703 100.12584 
L 187.02709 100.03296 
L 188.528812 100.83792 
L 189.266339 100.11552 
L 190.066204 99.87816 
L 190.764236 100.002 
L 192.246899 101.41584 
L 193.00146 101.21976 
L 194.487733 101.00304 
L 195.238538 100.86888 
L 195.973153 101.21976 
L 196.718426 101.28168 
L 198.212101 101.14752 
L 198.958442 100.55928 
L 199.698029 100.65216 
L 200.443656 99.80592 
L 201.185483 99.96072 
L 201.936753 99.6408 
L 202.669791 99.1764 
L 203.427566 99.70272 
L 204.175804 99.94008 
L 204.915485 98.57784 
L 205.659337 98.65008 
L 206.40698 98.38176 
L 207.149883 98.48496 
L 207.886093 96.70992 
L 208.640344 98.05152 
L 209.386608 98.48496 
L 210.127763 97.96896 
L 210.869874 96.32808 
L 212.363704 96.16296 
L 213.099241 96.1836 
L 213.855241 96.50352 
L 214.607683 94.76976 
L 215.353663 97.19496 
L 216.09605 96.9576 
L 216.841719 97.9896 
L 217.594273 96.89568 
L 218.319695 95.45088 
L 219.079228 95.67792 
L 219.82339 93.43848 
L 221.308948 92.25168 
L 222.053566 92.87088 
L 222.785597 94.2744 
L 223.53274 93.1392 
L 224.292161 92.97408 
L 225.042457 92.9844 
L 225.776538 92.60256 
L 226.5245 92.53032 
L 227.268093 94.54272 
L 228.016184 92.85024 
L 228.751101 94.82136 
L 229.506635 95.75016 
L 230.258285 96.97824 
L 231.744454 97.23624 
L 232.493114 95.94624 
L 233.23183 96.30744 
L 233.966023 98.08248 
L 235.476447 96.61704 
L 236.209589 97.23624 
L 236.961652 98.08248 
L 237.703694 99.18672 
L 238.448666 99.03192 
L 239.182351 99.1248 
L 239.94197 98.74296 
L 240.697401 99.09384 
L 241.434498 100.0536 
L 242.187293 101.23008 
L 242.929163 101.99376 
L 243.661323 102.08664 
L 244.394301 102.8916 
L 245.154721 102.45816 
L 246.632646 102.10728 
L 247.384786 102.582 
L 248.880916 102.08664 
L 249.619891 102.066 
L 250.369713 101.86992 
L 251.138879 101.48808 
L 251.887547 101.40552 
L 252.608256 101.4984 
L 253.349109 101.97312 
L 254.111063 102.26208 
L 255.585627 101.90088 
L 256.351837 101.90088 
L 257.051756 102.0144 
L 257.798839 102.25176 
L 258.543061 102.6336 
L 259.291298 102.88128 
L 260.026594 102.77808 
L 263.02031 103.00512 
L 263.751694 102.69552 
L 264.488015 102.55104 
L 265.229231 102.2724 
L 267.469436 102.13824 
L 268.960612 102.36528 
L 269.703352 101.94216 
L 271.181345 101.9112 
L 271.927394 102.2208 
L 272.654599 102.31368 
L 273.399209 101.79768 
L 274.145491 101.81832 
L 274.890032 102.07632 
L 277.871754 101.57064 
L 278.616717 101.40552 
L 279.36 101.55 
L 279.36 101.55 
" clip-path="url(#p1c3827b542)" style="fill: none; stroke: #f5841e; stroke-width: 0.6"/>
   </g>
  </g>
 </g>
 <defs>
  <clipPath id="p1c3827b542">
   <rect x="8.64" y="4.8" width="270.72" height="103.2"/>
  </clipPath>
 </defs>
</svg>
