<?xml version="1.0" encoding="utf-8" standalone="no"?>
<!DOCTYPE svg PUBLIC "-//W3C//DTD SVG 1.1//EN"
  "http://www.w3.org/Graphics/SVG/1.1/DTD/svg11.dtd">
<svg xmlns:xlink="http://www.w3.org/1999/xlink" width="288pt" height="120pt" viewBox="0 0 288 120" xmlns="http://www.w3.org/2000/svg" version="1.1">
<desc id="nav-meta">{"window":"1y","count":4,"labels":["26.05","25.09","24.01","26.05"],"tick_utc":["2025-05-26T12:00:00Z","2025-09-25T12:00:00Z","2026-01-24T12:00:00Z","2026-05-26T04:48:34Z"],"w":720,"h":300}</desc>

 <metadata>
  <rdf:RDF xmlns:dc="http://purl.org/dc/elements/1.1/" xmlns:cc="http://creativecommons.org/ns#" xmlns:rdf="http://www.w3.org/1999/02/22-rdf-syntax-ns#">
   <cc:Work>
    <dc:type rdf:resource="http://purl.org/dc/dcmitype/StillImage"/>
    <dc:date>2026-05-26T10:36:55.344106</dc:date>
    <dc:format>image/svg+xml</dc:format>
    <dc:creator>
     <cc:Agent>
      <dc:title>Matplotlib v3.10.9, https://matplotlib.org/</dc:title>
     </cc:Agent>
    </dc:creator>
   </cc:Work>
  </rdf:RDF>
 </metadata>
 <defs>
  <style type="text/css">*{stroke-linejoin: round; stroke-linecap: butt}</style>
 </defs>
 <g id="figure_1">
  <g id="patch_1">
   <path d="M 0 120 
L 288 120 
L 288 0 
L 0 0 
L 0 120 
z
" style="fill: none; opacity: 0"/>
  </g>
  <g id="axes_1">
   <g id="patch_2">
    <path d="M 8.64 108 
L 279.36 108 
L 279.36 4.8 
L 8.64 4.8 
L 8.64 108 
z
" style="fill: none"/>
   </g>
   <g id="matplotlib.axis_1"/>
   <g id="matplotlib.axis_2"/>
   <g id="line2d_1">
    <path d="M 8.64 87.36 
L 279.36 87.36 
" clip-path="url(#p181009e65a)" style="fill: none; stroke: #b2b2b2; stroke-opacity: 0.35; stroke-width: 0.5; stroke-linecap: square"/>
   </g>
   <g id="line2d_2">
    <path d="M 8.64 66.72 
L 279.36 66.72 
" clip-path="url(#p181009e65a)" style="fill: none; stroke: #b2b2b2; stroke-opacity: 0.35; stroke-width: 0.5; stroke-linecap: square"/>
   </g>
   <g id="line2d_3">
    <path d="M 8.64 46.08 
L 279.36 46.08 
" clip-path="url(#p181009e65a)" style="fill: none; stroke: #b2b2b2; stroke-opacity: 0.35; stroke-width: 0.5; stroke-linecap: square"/>
   </g>
   <g id="line2d_4">
    <path d="M 8.64 25.44 
L 279.36 25.44 
" clip-path="url(#p181009e65a)" style="fill: none; stroke: #b2b2b2; stroke-opacity: 0.35; stroke-width: 0.5; stroke-linecap: square"/>
   </g>
   <g id="line2d_5">
    <path d="M 8.64 78.64992 
L 9.382308 78.76344 
L 10.124616 78.25776 
L 10.866924 79.47552 
L 11.609232 80.92032 
L 12.35154 83.73768 
L 13.093848 83.6448 
L 13.836156 83.4384 
L 14.578464 83.61384 
L 15.320772 83.99568 
L 16.063079 84.55296 
L 16.805387 87.00912 
L 17.547695 85.98744 
L 18.290003 85.5024 
L 19.032311 84.8316 
L 19.774619 82.46832 
L 20.516927 81.426 
L 21.259235 82.5096 
L 22.001543 84.79032 
L 23.486159 86.95752 
L 24.228467 84.79032 
L 24.970775 85.13088 
L 25.713083 86.07 
L 26.455391 86.5344 
L 27.197699 86.31768 
L 28.682315 89.97096 
L 29.424622 90.48696 
L 30.16693 86.9472 
L 30.909238 86.66856 
L 31.651546 87.32904 
L 32.393854 88.53648 
L 33.136162 87.6696 
L 33.87847 85.30632 
L 34.620778 84.61488 
L 35.363086 84.17112 
L 36.105394 86.3796 
L 36.847702 84.92448 
L 37.59001 84.89352 
L 38.332318 86.13192 
L 39.074626 86.1732 
L 39.816934 84.99672 
L 40.559242 85.85328 
L 41.30155 85.01736 
L 42.043858 83.55192 
L 42.786166 81.7356 
L 43.528473 82.03488 
L 44.270781 82.65408 
L 45.755397 82.15872 
L 46.497705 81.70464 
L 47.240013 79.01112 
L 47.982321 78.39192 
L 48.724629 78.04104 
L 49.466937 78.16488 
L 50.209245 77.05032 
L 50.951553 72.82944 
L 51.693861 70.41456 
L 52.436169 74.69736 
L 53.178477 76.6272 
L 53.920785 75.63648 
L 54.663093 75.97704 
L 55.405401 74.976 
L 56.147709 76.49304 
L 56.890016 76.99872 
L 57.632324 77.90688 
L 58.374632 79.4652 
L 59.11694 82.02456 
L 59.859248 83.19072 
L 60.601556 82.27224 
L 61.343864 80.21856 
L 62.086172 81.67368 
L 62.82848 80.5488 
L 63.570788 78.588 
L 64.313096 78.19584 
L 65.055404 77.21544 
L 65.797712 76.524 
L 66.54002 78.68088 
L 67.282328 73.88208 
L 68.024636 71.364 
L 68.766944 73.8408 
L 69.509252 75.79128 
L 70.25156 74.65608 
L 70.993867 74.14008 
L 71.736175 76.50336 
L 72.478483 78.30936 
L 73.220791 75.3372 
L 73.963099 77.25672 
L 74.705407 71.78712 
L 75.447715 70.75512 
L 76.190023 70.24944 
L 76.932331 75.35784 
L 77.674639 72.95328 
L 78.416947 70.96152 
L 79.159255 67.87584 
L 79.901563 70.46616 
L 80.643871 71.11632 
L 81.386179 71.61168 
L 82.128487 72.7056 
L 82.870795 69.33096 
L 83.613103 68.9388 
L 84.35541 71.12664 
L 85.097718 70.90992 
L 85.840026 71.80776 
L 86.582334 70.074 
L 87.324642 68.01 
L 88.06695 67.10184 
L 88.809258 65.29584 
L 89.551566 64.01616 
L 90.293874 60.31128 
L 91.036182 60.19776 
L 91.77849 60.786 
L 92.520798 62.61264 
L 93.263106 61.74576 
L 94.005414 59.57856 
L 94.747722 58.86648 
L 95.49003 61.38456 
L 96.232338 61.07496 
L 96.974646 61.83864 
L 97.716954 66.29688 
L 98.459261 67.97904 
L 99.201569 68.69112 
L 99.943877 73.9956 
L 100.686185 70.45584 
L 101.428493 70.87896 
L 102.170801 68.91816 
L 102.913109 68.3196 
L 103.655417 69.47544 
L 105.140033 62.39592 
L 105.882341 62.81904 
L 106.624649 64.22256 
L 107.366957 64.05744 
L 108.109265 62.9532 
L 108.851573 66.14208 
L 109.593881 63.91296 
L 110.336189 66.17304 
L 111.078497 74.6148 
L 111.820804 77.78304 
L 112.563112 72.66432 
L 113.30542 69.69216 
L 114.047728 71.09568 
L 115.532344 76.06992 
L 116.274652 76.76136 
L 117.01696 75.25464 
L 117.759268 75.24432 
L 118.501576 74.63544 
L 119.243884 75.73968 
L 119.986192 77.31864 
L 120.7285 74.202 
L 121.470808 73.64472 
L 122.213116 73.48992 
L 122.955424 71.83872 
L 123.697732 72.17928 
L 124.44004 73.38672 
L 125.182348 73.43832 
L 125.924655 76.15248 
L 126.666963 75.3372 
L 127.409271 75.58488 
L 128.151579 75.35784 
L 128.893887 81.168 
L 129.636195 84.01632 
L 130.378503 82.06584 
L 131.120811 84.19176 
L 131.863119 82.27224 
L 132.605427 83.29392 
L 133.347735 81.62208 
L 134.090043 80.72424 
L 134.832351 84.33624 
L 135.574659 84.64584 
L 136.316967 86.844 
L 137.059275 88.52616 
L 137.801583 88.36104 
L 138.543891 88.93896 
L 139.286198 90.79656 
L 140.028506 88.09272 
L 140.770814 89.22792 
L 141.513122 90.00192 
L 142.25543 91.39512 
L 142.997738 91.63248 
L 143.740046 90.75528 
L 144.482354 88.7016 
L 145.224662 88.52616 
L 145.96697 87.45288 
L 146.709278 88.0308 
L 147.451586 88.94928 
L 148.936202 89.7336 
L 149.67851 91.86984 
L 150.420818 88.60872 
L 151.163126 86.87496 
L 152.647742 90.11544 
L 154.132357 90.53856 
L 154.874665 90.08448 
L 155.616973 88.79448 
L 156.359281 89.20728 
L 157.101589 89.22792 
L 157.843897 90.31152 
L 158.586205 90.10512 
L 159.328513 91.09584 
L 160.070821 91.61184 
L 160.813129 91.31256 
L 161.555437 92.87088 
L 162.297745 93.8616 
L 163.040053 92.02464 
L 163.782361 92.13816 
L 164.524669 92.07624 
L 165.266977 92.14848 
L 167.4939 93.69648 
L 168.978516 92.44776 
L 169.720824 92.30328 
L 170.463132 92.87088 
L 171.20544 92.38584 
L 171.947748 92.47872 
L 172.690056 91.88016 
L 173.432364 90.42504 
L 174.174672 90.08448 
L 174.91698 89.92968 
L 175.659288 88.76352 
L 176.401596 87.94824 
L 177.143904 89.2692 
L 177.886212 88.72224 
L 178.62852 89.39304 
L 179.370828 89.40336 
L 180.113136 88.41264 
L 180.855443 88.4952 
L 181.597751 86.86464 
L 182.340059 86.42088 
L 183.082367 87.62832 
L 183.824675 86.93688 
L 184.566983 87.23616 
L 186.051599 90.0432 
L 186.793907 92.12784 
L 187.536215 91.16808 
L 189.020831 91.73568 
L 189.763139 91.78728 
L 190.505447 94.0164 
L 191.247755 92.5716 
L 191.990063 91.76664 
L 192.732371 92.33424 
L 193.474679 94.36728 
L 194.216986 94.46016 
L 194.959294 97.71096 
L 195.701602 98.48496 
L 196.44391 97.85544 
L 197.660488 100.16712 
L 198.402418 102.23112 
L 199.141547 100.54896 
L 199.900823 100.70376 
L 200.637005 100.68312 
L 202.124319 101.28168 
L 202.863955 101.71512 
L 203.606039 101.84928 
L 204.339421 101.034 
L 205.04256 100.54896 
L 205.832482 101.04432 
L 206.481546 100.81728 
L 207.315921 101.034 
L 208.057327 101.4984 
L 210.283855 101.06496 
L 211.028397 102.09696 
L 211.707995 102.05568 
L 212.510341 101.4984 
L 213.249341 100.60056 
L 213.99024 100.80696 
L 214.723802 101.45712 
L 215.482975 100.55928 
L 216.217619 101.10624 
L 217.699804 100.74504 
L 218.44371 100.21872 
L 219.185666 100.53864 
L 219.922277 101.07528 
L 220.671794 101.38488 
L 221.416327 101.26104 
L 222.153866 100.78632 
L 223.641111 100.99272 
L 224.381984 100.38384 
L 225.879814 100.60056 
L 226.624218 99.76464 
L 227.353536 99.49632 
L 228.101506 99.40344 
L 228.84402 100.09488 
L 229.579102 100.3632 
L 230.317063 100.19808 
L 231.814523 100.79664 
L 232.549958 100.26 
L 233.347552 99.83688 
L 234.043603 100.13616 
L 235.522059 101.38488 
L 238.505209 101.28168 
L 239.23774 101.8596 
L 239.980899 101.88024 
L 240.716849 101.72544 
L 241.470334 101.68416 
L 242.214558 101.47776 
L 242.952046 101.78736 
L 243.695557 101.09592 
L 244.435279 101.46744 
L 245.184417 101.3436 
L 245.915376 101.05464 
L 246.671 101.3952 
L 247.417114 101.47776 
L 248.154697 100.86888 
L 248.896438 101.26104 
L 251.116875 100.44576 
L 251.868986 100.94112 
L 252.613133 101.09592 
L 253.352184 101.00304 
L 254.09219 100.69344 
L 254.837505 100.9308 
L 257.069085 100.8792 
L 257.819392 100.64184 
L 258.563255 101.1888 
L 259.303535 101.09592 
L 260.047089 101.37456 
L 260.797507 101.21976 
L 262.278248 101.23008 
L 263.020299 100.92048 
L 263.746257 101.06496 
L 264.501641 100.70376 
L 265.244147 100.55928 
L 265.9741 100.53864 
L 266.719123 99.60984 
L 267.476389 99.72336 
L 268.956554 99.25896 
L 269.702393 99.32088 
L 270.443876 100.22904 
L 271.189844 100.01232 
L 272.676067 100.75536 
L 273.425583 101.02368 
L 274.162573 101.02368 
L 274.907536 101.17848 
L 275.654071 100.7244 
L 276.390691 100.75536 
L 277.122801 101.11656 
L 277.876862 100.91016 
L 278.628938 100.89984 
L 279.36 101.1372 
L 279.36 101.1372 
" clip-path="url(#p181009e65a)" style="fill: none; stroke: #bebebe; stroke-width: 0.5; stroke-linecap: round"/>
   </g>
   <g id="line2d_6">
    <path d="M 8.64 81.79752 
L 9.382308 81.56016 
L 10.124616 80.0844 
L 10.866924 79.86768 
L 11.609232 80.50752 
L 12.35154 82.12776 
L 13.836156 81.92136 
L 14.578464 80.8584 
L 15.320772 81.07512 
L 16.063079 80.84808 
L 16.805387 83.6448 
L 17.547695 82.7676 
L 18.290003 82.0968 
L 19.032311 82.3548 
L 19.774619 79.74384 
L 20.516927 77.90688 
L 21.259235 78.39192 
L 22.001543 80.21856 
L 22.743851 81.34344 
L 23.486159 81.98328 
L 24.970775 81.5808 
L 25.713083 82.26192 
L 27.197699 82.15872 
L 27.940007 83.88216 
L 28.682315 85.89456 
L 29.424622 86.5344 
L 30.16693 83.61384 
L 30.909238 83.2836 
L 31.651546 83.71704 
L 32.393854 83.748 
L 33.87847 83.41776 
L 34.620778 82.44768 
L 35.363086 82.6644 
L 36.105394 83.89248 
L 36.847702 81.38472 
L 37.59001 81.14736 
L 38.332318 82.34448 
L 39.074626 82.23096 
L 39.816934 81.426 
L 40.559242 81.8388 
L 41.30155 80.76552 
L 42.786166 75.83256 
L 43.528473 75.67776 
L 44.270781 75.91512 
L 45.755397 74.88312 
L 46.497705 73.09776 
L 47.240013 69.6096 
L 47.982321 67.91712 
L 48.724629 66.94704 
L 49.466937 66.24528 
L 50.209245 63.80976 
L 50.951553 63.70656 
L 51.693861 63.9852 
L 52.436169 65.71896 
L 53.178477 64.5528 
L 54.663093 64.05744 
L 55.405401 62.25144 
L 56.147709 63.39696 
L 56.890016 63.366 
L 57.632324 63.08736 
L 58.374632 64.72824 
L 59.11694 67.89648 
L 59.859248 69.16584 
L 60.601556 67.69008 
L 61.343864 64.4496 
L 62.086172 65.97696 
L 62.82848 64.914 
L 63.570788 61.54968 
L 64.313096 60.04296 
L 65.055404 56.28648 
L 65.797712 56.47224 
L 66.54002 56.83344 
L 67.282328 51.22968 
L 68.024636 48.89736 
L 68.766944 52.00368 
L 69.509252 53.84064 
L 70.25156 53.90256 
L 70.993867 53.00472 
L 71.736175 55.5228 
L 72.478483 59.12448 
L 73.220791 55.32672 
L 73.963099 56.90568 
L 74.705407 47.92728 
L 75.447715 48.75288 
L 76.190023 48.68064 
L 76.932331 54.57336 
L 77.674639 51.2916 
L 78.416947 52.80864 
L 79.159255 52.69512 
L 79.901563 54.82104 
L 81.386179 54.45984 
L 82.128487 55.7292 
L 82.870795 55.39896 
L 83.613103 53.55168 
L 84.35541 55.81176 
L 85.097718 55.6776 
L 85.840026 56.18328 
L 86.582334 55.71888 
L 88.06695 55.63632 
L 88.809258 55.07904 
L 89.551566 53.41752 
L 90.293874 49.71264 
L 91.036182 50.32152 
L 91.77849 51.17808 
L 92.520798 52.44744 
L 93.263106 52.74672 
L 94.005414 51.4464 
L 94.747722 51.46704 
L 95.49003 53.2524 
L 96.232338 53.08728 
L 96.974646 53.5104 
L 97.716954 57.26688 
L 98.459261 57.76224 
L 99.201569 58.02024 
L 99.943877 62.26176 
L 100.686185 59.68176 
L 101.428493 59.9604 
L 102.170801 58.12344 
L 102.913109 57.02952 
L 103.655417 58.09248 
L 104.397725 55.13064 
L 105.140033 53.046 
L 105.882341 52.5816 
L 106.624649 52.9944 
L 107.366957 52.5816 
L 108.109265 50.0016 
L 108.851573 53.48976 
L 109.593881 52.40616 
L 110.336189 54.75912 
L 111.078497 62.67456 
L 111.820804 63.95424 
L 112.563112 57.86544 
L 113.30542 56.57544 
L 114.047728 58.31952 
L 114.790036 60.4764 
L 115.532344 61.85928 
L 116.274652 62.73648 
L 117.01696 61.8696 
L 117.759268 60.45576 
L 118.501576 60.54864 
L 119.243884 62.04504 
L 119.986192 63.16992 
L 120.7285 62.36496 
L 121.470808 61.21944 
L 122.213116 60.9408 
L 122.955424 57.83448 
L 123.697732 58.40208 
L 124.44004 60.49704 
L 125.924655 63.1596 
L 126.666963 62.49912 
L 127.409271 62.1276 
L 128.151579 61.56 
L 129.636195 70.66224 
L 130.378503 68.72208 
L 131.120811 70.4868 
L 131.863119 68.61888 
L 132.605427 69.11424 
L 133.347735 66.5136 
L 134.090043 66.68904 
L 134.832351 68.8872 
L 135.574659 68.9904 
L 136.316967 71.5704 
L 137.059275 73.48992 
L 137.801583 72.54048 
L 139.286198 74.74896 
L 140.028506 73.3248 
L 140.770814 74.80056 
L 141.513122 77.556 
L 142.25543 78.55704 
L 142.997738 78.50544 
L 143.740046 78.04104 
L 144.482354 75.76032 
L 145.224662 75.73968 
L 145.96697 74.65608 
L 146.709278 74.83152 
L 147.451586 74.57352 
L 148.193894 75.20304 
L 148.936202 75.17208 
L 149.67851 78.05136 
L 151.163126 72.16896 
L 151.905434 73.08744 
L 152.647742 74.72832 
L 154.132357 74.28456 
L 154.874665 73.21128 
L 155.616973 70.2804 
L 156.359281 70.2288 
L 157.101589 71.56008 
L 157.843897 73.79952 
L 158.586205 73.35576 
L 159.328513 74.0988 
L 160.070821 75.5952 
L 160.813129 75.5952 
L 161.555437 77.61792 
L 162.297745 77.63856 
L 163.040053 75.40944 
L 163.782361 75.40944 
L 164.524669 75.04824 
L 165.266977 74.98632 
L 166.009285 75.58488 
L 166.751592 75.87384 
L 167.4939 76.49304 
L 168.978516 75.82224 
L 169.720824 75.84288 
L 170.463132 76.03896 
L 171.20544 75.51264 
L 171.947748 75.56424 
L 172.690056 75.05856 
L 173.432364 73.26288 
L 174.174672 73.20096 
L 174.91698 73.00488 
L 175.659288 71.68392 
L 176.401596 70.6932 
L 177.143904 72.62304 
L 177.886212 73.52088 
L 178.62852 73.83048 
L 179.370828 73.8408 
L 180.113136 73.29384 
L 180.855443 73.72728 
L 181.597751 70.32168 
L 182.340059 69.77472 
L 183.082367 70.34232 
L 183.824675 70.67256 
L 184.566983 70.51776 
L 185.309291 70.848 
L 186.051599 72.31344 
L 186.793907 76.01832 
L 187.536215 75.41976 
L 188.278523 75.83256 
L 189.763139 75.82224 
L 190.505447 77.82432 
L 191.247755 76.14216 
L 191.990063 74.75928 
L 192.732371 74.96568 
L 193.474679 77.75208 
L 194.216986 79.48584 
L 194.959294 83.31456 
L 195.701602 85.90488 
L 196.44391 84.79032 
L 197.070585 85.84296 
L 198.402418 91.41576 
L 199.141547 88.7532 
L 200.637005 88.55712 
L 201.383549 88.96992 
L 202.863955 90.456 
L 203.606039 90.56952 
L 204.339421 89.15568 
L 205.04256 88.9596 
L 205.832482 90.6624 
L 206.481546 89.94 
L 207.315921 90.00192 
L 208.795296 90.62112 
L 210.283855 90.3528 
L 211.028397 92.004 
L 211.707995 92.13816 
L 212.510341 91.25064 
L 213.249341 89.166 
L 213.99024 89.56848 
L 214.723802 90.93072 
L 215.482975 89.41368 
L 216.217619 90.37344 
L 216.961654 89.79552 
L 217.699804 90.23928 
L 218.44371 88.0824 
L 219.185666 88.7532 
L 219.922277 90.16704 
L 220.671794 90.67272 
L 221.416327 90.18768 
L 222.153866 89.2692 
L 222.895882 89.54784 
L 223.641111 89.49624 
L 224.381984 88.31976 
L 225.123304 88.45392 
L 225.879814 88.46424 
L 226.624218 86.38992 
L 227.353536 84.80064 
L 228.101506 84.8316 
L 228.84402 86.586 
L 229.579102 87.74184 
L 230.317063 87.618 
L 231.070471 88.19592 
L 231.814523 89.08344 
L 232.549958 87.89664 
L 233.347552 87.3084 
L 234.043603 87.65928 
L 235.522059 90.07416 
L 237.018909 89.3724 
L 237.756535 89.00088 
L 238.505209 88.42296 
L 239.980899 89.10408 
L 240.716849 89.14536 
L 241.470334 89.07312 
L 242.214558 87.9792 
L 242.952046 88.29912 
L 243.695557 86.38992 
L 244.435279 87.24648 
L 245.184417 87.1536 
L 245.915376 86.21448 
L 247.417114 87.01944 
L 248.154697 84.44976 
L 248.896438 85.05864 
L 249.641959 84.58392 
L 250.382755 85.04832 
L 251.116875 83.71704 
L 251.868986 84.86256 
L 252.613133 85.6572 
L 253.352184 85.27536 
L 254.09219 84.49104 
L 255.58178 85.32696 
L 256.31523 85.17216 
L 257.069085 85.31664 
L 257.819392 84.11952 
L 258.563255 85.66752 
L 259.303535 85.26504 
L 260.047089 86.26608 
L 261.520871 85.38888 
L 262.278248 85.3992 
L 263.020299 84.09888 
L 264.501641 84.34656 
L 265.9741 85.7604 
L 266.719123 85.0896 
L 268.224556 84.9348 
L 268.956554 85.296 
L 269.702393 85.35792 
L 270.443876 86.1732 
L 271.189844 85.92552 
L 272.676067 87.13296 
L 273.425583 88.10304 
L 274.162573 87.9276 
L 274.907536 88.26816 
L 275.654071 87.78312 
L 276.390691 87.95856 
L 277.122801 88.94928 
L 277.876862 88.14432 
L 279.36 88.52616 
L 279.36 88.52616 
" clip-path="url(#p181009e65a)" style="fill: none; stroke: #4a8dff; stroke-width: 0.6"/>
   </g>
   <g id="line2d_7">
    <path d="M 8.64 63.91296 
L 9.382308 63.38664 
L 10.124616 63.70656 
L 10.866924 64.97592 
L 11.609232 67.14312 
L 12.35154 68.9388 
L 13.093848 68.23704 
L 13.836156 67.1844 
L 14.578464 66.99864 
L 15.320772 67.47336 
L 16.063079 68.1132 
L 16.805387 71.38464 
L 17.547695 68.526 
L 18.290003 67.21536 
L 19.032311 67.20504 
L 19.774619 62.46816 
L 20.516927 62.51976 
L 21.259235 64.10904 
L 22.001543 66.90576 
L 22.743851 66.83352 
L 23.486159 67.42176 
L 24.228467 67.3392 
L 24.970775 65.8944 
L 25.713083 68.24736 
L 27.197699 68.23704 
L 27.940007 69.69216 
L 28.682315 71.50848 
L 29.424622 72.21024 
L 30.16693 67.3908 
L 30.909238 66.90576 
L 31.651546 65.59512 
L 32.393854 65.86344 
L 33.136162 65.76024 
L 33.87847 65.50224 
L 34.620778 64.398 
L 35.363086 65.70864 
L 36.105394 67.2876 
L 36.847702 63.95424 
L 37.59001 63.14928 
L 38.332318 64.76952 
L 39.074626 64.58376 
L 39.816934 63.55176 
L 40.559242 64.5012 
L 41.30155 63.82008 
L 42.043858 61.36392 
L 42.786166 56.64768 
L 43.528473 54.89328 
L 44.270781 55.04808 
L 45.013089 53.29368 
L 45.755397 52.55064 
L 46.497705 54.77976 
L 47.240013 53.67552 
L 47.982321 52.95312 
L 48.724629 54.45984 
L 49.466937 54.55272 
L 50.209245 55.22352 
L 50.951553 54.98616 
L 51.693861 52.4268 
L 52.436169 53.79936 
L 53.178477 54.08832 
L 53.920785 54.92424 
L 54.663093 54.4908 
L 55.405401 52.98408 
L 56.147709 54.44952 
L 56.890016 54.60432 
L 57.632324 54.62496 
L 59.11694 59.38248 
L 59.859248 60.09456 
L 60.601556 58.39176 
L 61.343864 57.41136 
L 62.086172 58.464 
L 62.82848 57.5352 
L 63.570788 55.0068 
L 64.313096 55.81176 
L 65.055404 55.99752 
L 65.797712 53.13888 
L 66.54002 53.64456 
L 67.282328 52.1688 
L 68.024636 48.69096 
L 68.766944 54.0264 
L 69.509252 55.13064 
L 70.25156 54.96552 
L 70.993867 54.92424 
L 71.736175 56.25552 
L 72.478483 59.8572 
L 73.220791 58.32984 
L 73.963099 60.23904 
L 74.705407 55.65696 
L 75.447715 57.18432 
L 76.190023 59.21736 
L 76.932331 62.55072 
L 77.674639 60.82728 
L 78.416947 61.47744 
L 79.159255 60.12552 
L 79.901563 64.31544 
L 80.643871 63.99552 
L 81.386179 64.5528 
L 82.128487 63.60336 
L 82.870795 61.5084 
L 83.613103 60.96144 
L 84.35541 61.98312 
L 85.097718 62.05536 
L 85.840026 62.51976 
L 87.324642 60.64152 
L 88.06695 61.13688 
L 88.809258 58.6188 
L 89.551566 57.03984 
L 90.293874 56.35872 
L 91.036182 56.5548 
L 91.77849 57.174 
L 92.520798 57.14304 
L 93.263106 55.7292 
L 94.005414 56.04912 
L 94.747722 55.33704 
L 95.49003 56.87472 
L 96.232338 56.8128 
L 96.974646 57.24624 
L 97.716954 59.93976 
L 98.459261 60.64152 
L 99.201569 59.29992 
L 99.943877 63.80976 
L 100.686185 63.03576 
L 101.428493 63.09768 
L 102.913109 58.27824 
L 103.655417 58.5672 
L 104.397725 53.93352 
L 105.140033 51.74568 
L 105.882341 50.04288 
L 106.624649 49.90872 
L 108.109265 47.43192 
L 108.851573 50.80656 
L 109.593881 48.90768 
L 110.336189 50.6208 
L 111.078497 59.42376 
L 111.820804 61.85928 
L 112.563112 57.35976 
L 113.30542 57.3288 
L 114.047728 59.46504 
L 115.532344 64.72824 
L 116.274652 66.42072 
L 117.01696 65.688 
L 117.759268 64.17096 
L 118.501576 62.10696 
L 119.243884 64.30512 
L 119.986192 65.20296 
L 120.7285 62.68488 
L 121.470808 61.70448 
L 122.213116 61.06464 
L 122.955424 58.1028 
L 123.697732 58.40208 
L 124.44004 59.68176 
L 125.182348 62.6952 
L 125.924655 64.56312 
L 126.666963 63.18024 
L 127.409271 62.72616 
L 128.151579 62.06568 
L 128.893887 66.33816 
L 129.636195 71.40528 
L 130.378503 69.08328 
L 131.120811 71.7252 
L 131.863119 69.57864 
L 132.605427 70.72416 
L 133.347735 68.2164 
L 134.090043 66.978 
L 134.832351 70.03272 
L 135.574659 71.5188 
L 136.316967 73.3764 
L 137.059275 78.846 
L 137.801583 77.75208 
L 138.543891 78.88728 
L 139.286198 81.34344 
L 140.028506 80.53848 
L 140.770814 82.0452 
L 141.513122 86.92656 
L 142.25543 88.58808 
L 142.997738 88.96992 
L 143.740046 86.7924 
L 144.482354 85.296 
L 145.224662 86.24544 
L 145.96697 82.96368 
L 146.709278 82.13808 
L 147.451586 82.47864 
L 148.193894 82.58184 
L 148.936202 83.03592 
L 149.67851 87.3084 
L 150.420818 82.06584 
L 151.163126 79.71288 
L 151.905434 81.24024 
L 152.647742 84.17112 
L 153.390049 84.24336 
L 154.132357 83.29392 
L 154.874665 82.8192 
L 155.616973 80.64168 
L 156.359281 81.38472 
L 157.101589 80.87904 
L 157.843897 83.13912 
L 158.586205 83.19072 
L 160.070821 87.17424 
L 160.813129 85.71912 
L 161.555437 87.53544 
L 162.297745 88.17528 
L 163.040053 85.41984 
L 164.524669 84.9348 
L 165.266977 85.01736 
L 166.009285 86.14224 
L 166.751592 85.90488 
L 167.4939 86.328 
L 168.236208 86.24544 
L 168.978516 85.72944 
L 169.720824 85.7088 
L 170.463132 86.40024 
L 171.20544 85.09992 
L 171.947748 86.02872 
L 173.432364 83.53128 
L 174.91698 82.03488 
L 175.659288 79.39296 
L 176.401596 79.66128 
L 177.143904 82.15872 
L 177.886212 82.43736 
L 178.62852 82.93272 
L 179.370828 83.00496 
L 180.855443 82.28256 
L 181.597751 78.01008 
L 182.340059 76.19376 
L 183.082367 77.66952 
L 183.824675 77.74176 
L 184.566983 78.1752 
L 186.051599 80.8068 
L 186.793907 85.20312 
L 187.536215 84.12984 
L 188.278523 84.03696 
L 189.020831 84.06792 
L 189.763139 84.3156 
L 190.505447 87.02976 
L 191.247755 85.21344 
L 191.990063 84.28464 
L 192.732371 84.32592 
L 193.474679 89.08344 
L 194.216986 89.5272 
L 194.959294 95.14128 
L 195.701602 96.98856 
L 196.44391 95.08968 
L 197.660488 99.80592 
L 198.402418 101.79768 
L 199.141547 100.03296 
L 199.900823 100.518 
L 200.637005 99.98136 
L 201.383549 100.49736 
L 203.606039 101.26104 
L 204.339421 100.63152 
L 205.04256 100.38384 
L 205.832482 100.84824 
L 206.481546 100.65216 
L 207.315921 101.034 
L 208.057327 101.19912 
L 210.283855 100.91016 
L 211.028397 101.7564 
L 211.707995 101.84928 
L 212.510341 101.56032 
L 213.249341 100.85856 
L 214.723802 101.4468 
L 215.482975 101.02368 
L 216.217619 101.30232 
L 216.961654 100.81728 
L 217.699804 100.79664 
L 218.44371 99.3312 
L 219.185666 99.92976 
L 219.922277 100.78632 
L 220.671794 101.17848 
L 221.416327 101.1372 
L 222.153866 100.21872 
L 223.641111 100.4664 
L 224.381984 99.88848 
L 225.123304 99.94008 
L 225.879814 99.81624 
L 226.624218 98.93904 
L 227.353536 98.3508 
L 228.101506 98.52624 
L 228.84402 99.78528 
L 229.579102 100.12584 
L 230.317063 100.03296 
L 231.814523 100.83792 
L 232.549958 100.11552 
L 233.347552 99.87816 
L 234.043603 100.002 
L 235.522059 101.41584 
L 236.274479 101.21976 
L 237.756535 101.00304 
L 238.505209 100.86888 
L 239.23774 101.21976 
L 239.980899 101.28168 
L 241.470334 101.14752 
L 242.214558 100.55928 
L 242.952046 100.65216 
L 243.695557 99.80592 
L 244.435279 99.96072 
L 245.184417 99.6408 
L 245.915376 99.1764 
L 246.671 99.70272 
L 247.417114 99.94008 
L 248.154697 98.57784 
L 248.896438 98.65008 
L 249.641959 98.38176 
L 250.382755 98.48496 
L 251.116875 96.70992 
L 251.868986 98.05152 
L 252.613133 98.48496 
L 253.352184 97.96896 
L 254.09219 96.32808 
L 255.58178 96.16296 
L 256.31523 96.1836 
L 257.069085 96.50352 
L 257.819392 94.76976 
L 258.563255 97.19496 
L 259.303535 96.9576 
L 260.047089 97.9896 
L 260.797507 96.89568 
L 261.520871 95.45088 
L 262.278248 95.67792 
L 263.020299 93.43848 
L 264.501641 92.25168 
L 265.244147 92.87088 
L 265.9741 94.2744 
L 266.719123 93.1392 
L 267.476389 92.97408 
L 268.224556 92.9844 
L 268.956554 92.60256 
L 269.702393 92.53032 
L 270.443876 94.54272 
L 271.189844 92.85024 
L 271.922676 94.82136 
L 272.676067 95.75016 
L 273.425583 96.97824 
L 274.907536 97.23624 
L 275.654071 95.94624 
L 276.390691 96.30744 
L 277.122801 98.08248 
L 278.628938 96.61704 
L 279.36 97.23624 
L 279.36 97.23624 
" clip-path="url(#p181009e65a)" style="fill: none; stroke: #f5841e; stroke-width: 0.6"/>
   </g>
  </g>
 </g>
 <defs>
  <clipPath id="p181009e65a">
   <rect x="8.64" y="4.8" width="270.72" height="103.2"/>
  </clipPath>
 </defs>
</svg>
