<?xml version="1.0" encoding="utf-8" standalone="no"?>
<!DOCTYPE svg PUBLIC "-//W3C//DTD SVG 1.1//EN"
  "http://www.w3.org/Graphics/SVG/1.1/DTD/svg11.dtd">
<svg xmlns:xlink="http://www.w3.org/1999/xlink" width="288pt" height="120pt" viewBox="0 0 288 120" xmlns="http://www.w3.org/2000/svg" version="1.1">
<desc id="nav-meta">{"window":"6m","count":4,"labels":["05.01","06.03","04.05","03.07"],"tick_utc":["2026-01-05T12:00:00Z","2026-03-06T03:16:38Z","2026-05-04T04:31:15Z","2026-07-03T04:30:06Z"],"w":720,"h":300}</desc>

 <metadata>
  <rdf:RDF xmlns:dc="http://purl.org/dc/elements/1.1/" xmlns:cc="http://creativecommons.org/ns#" xmlns:rdf="http://www.w3.org/1999/02/22-rdf-syntax-ns#">
   <cc:Work>
    <dc:type rdf:resource="http://purl.org/dc/dcmitype/StillImage"/>
    <dc:date>2026-07-03T20:02:37.988040</dc:date>
    <dc:format>image/svg+xml</dc:format>
    <dc:creator>
     <cc:Agent>
      <dc:title>Matplotlib v3.11.0, https://matplotlib.org/</dc:title>
     </cc:Agent>
    </dc:creator>
   </cc:Work>
  </rdf:RDF>
 </metadata>
 <defs>
  <style type="text/css">*{stroke-linejoin: round; stroke-linecap: butt}</style>
 </defs>
 <g id="figure_1">
  <g id="patch_1">
   <path d="M 0 120 
L 288 120 
L 288 0 
L 0 0 
L 0 120 
z
" style="fill: none; opacity: 0"/>
  </g>
  <g id="axes_1">
   <g id="patch_2">
    <path d="M 8.64 108 
L 279.36 108 
L 279.36 4.8 
L 8.64 4.8 
L 8.64 108 
z
" style="fill: none"/>
   </g>
   <g id="matplotlib.axis_1"/>
   <g id="matplotlib.axis_2"/>
   <g id="line2d_1">
    <path d="M 8.64 87.36 
L 279.36 87.36 
" clip-path="url(#pda824dae80)" style="fill: none; stroke: #b2b2b2; stroke-opacity: 0.35; stroke-width: 0.5; stroke-linecap: square"/>
   </g>
   <g id="line2d_2">
    <path d="M 8.64 66.72 
L 279.36 66.72 
" clip-path="url(#pda824dae80)" style="fill: none; stroke: #b2b2b2; stroke-opacity: 0.35; stroke-width: 0.5; stroke-linecap: square"/>
   </g>
   <g id="line2d_3">
    <path d="M 8.64 46.08 
L 279.36 46.08 
" clip-path="url(#pda824dae80)" style="fill: none; stroke: #b2b2b2; stroke-opacity: 0.35; stroke-width: 0.5; stroke-linecap: square"/>
   </g>
   <g id="line2d_4">
    <path d="M 8.64 25.44 
L 279.36 25.44 
" clip-path="url(#pda824dae80)" style="fill: none; stroke: #b2b2b2; stroke-opacity: 0.35; stroke-width: 0.5; stroke-linecap: square"/>
   </g>
   <g id="line2d_5">
    <path d="M 8.64 89.92968 
L 10.155047 88.76352 
L 11.670093 87.94824 
L 13.18514 89.2692 
L 14.700187 88.72224 
L 16.215233 89.39304 
L 17.73028 89.40336 
L 19.245326 88.41264 
L 20.760373 88.4952 
L 22.27542 86.86464 
L 23.790466 86.42088 
L 25.305513 87.62832 
L 26.82056 86.93688 
L 28.335606 87.23616 
L 31.365699 90.0432 
L 32.880746 92.12784 
L 34.395793 91.16808 
L 37.425886 91.73568 
L 38.940933 91.78728 
L 40.455979 94.0164 
L 41.971026 92.5716 
L 43.486073 91.76664 
L 45.001119 92.33424 
L 46.516166 94.36728 
L 48.031212 94.46016 
L 49.546259 97.71096 
L 51.061306 98.48496 
L 52.576352 97.85544 
L 55.05938 100.16712 
L 56.573656 102.23112 
L 58.082214 100.54896 
L 59.631893 100.70376 
L 61.134437 100.68312 
L 64.170036 101.28168 
L 65.679629 101.71512 
L 67.19422 101.84928 
L 68.691048 101.034 
L 70.126151 100.54896 
L 71.738378 101.04432 
L 73.063114 100.81728 
L 74.766069 101.034 
L 76.279274 101.4984 
L 80.823608 101.06496 
L 82.343213 102.09696 
L 83.73027 102.05568 
L 85.367853 101.4984 
L 86.876149 100.60056 
L 88.38832 100.80696 
L 89.885515 101.45712 
L 91.434984 100.55928 
L 92.934389 101.10624 
L 95.95952 100.74504 
L 97.477828 100.21872 
L 98.992156 100.53864 
L 100.495576 101.07528 
L 102.025335 101.38488 
L 103.544923 101.26104 
L 105.050238 100.78632 
L 108.085697 100.99272 
L 109.597815 100.38384 
L 112.654878 100.60056 
L 114.174203 99.76464 
L 115.662736 99.49632 
L 117.189339 99.40344 
L 118.704806 100.09488 
L 120.205105 100.3632 
L 121.711279 100.19808 
L 124.767588 100.79664 
L 126.268606 100.26 
L 127.896492 99.83688 
L 129.317129 100.13616 
L 132.334649 101.38488 
L 138.423243 101.28168 
L 139.918335 101.8596 
L 141.435117 101.88024 
L 142.937188 101.72544 
L 144.475048 101.68416 
L 145.994005 101.47776 
L 147.499214 101.78736 
L 149.016716 101.09592 
L 150.526484 101.46744 
L 152.055471 101.3436 
L 153.547354 101.05464 
L 155.08958 101.3952 
L 156.612395 101.47776 
L 158.117797 100.86888 
L 159.631686 101.26104 
L 161.153291 100.99272 
L 162.665252 100.61088 
L 164.163587 100.44576 
L 165.698642 100.94112 
L 167.217441 101.09592 
L 168.725842 101.00304 
L 170.236189 100.69344 
L 171.757373 100.9308 
L 176.312017 100.8792 
L 177.843389 100.64184 
L 179.361609 101.1888 
L 180.872518 101.09592 
L 182.390107 101.37456 
L 183.921707 101.21976 
L 186.943892 101.23008 
L 188.458412 100.92048 
L 189.940089 101.06496 
L 191.481824 100.70376 
L 192.997274 100.55928 
L 194.487105 100.53864 
L 196.007693 99.60984 
L 197.553269 99.72336 
L 200.574279 99.25896 
L 202.096532 99.32088 
L 203.609895 100.22904 
L 205.132412 100.01232 
L 208.165784 100.75536 
L 209.695543 101.02368 
L 211.199735 101.02368 
L 212.720201 101.17848 
L 214.243874 100.7244 
L 215.747313 100.75536 
L 217.241545 101.11656 
L 218.78058 100.91016 
L 220.315564 100.89984 
L 221.807657 101.1372 
L 223.338258 101.2404 
L 224.848464 101.6532 
L 226.364633 101.4984 
L 227.857831 101.48808 
L 229.40381 101.32296 
L 232.441408 101.7048 
L 233.973499 102.54072 
L 235.483355 103.08768 
L 236.973449 103.36632 
L 238.465209 104.22288 
L 240.012819 103.85136 
L 243.020695 103.43856 
L 244.551453 103.81008 
L 246.07539 103.72752 
L 247.596381 103.50048 
L 249.100345 103.5108 
L 250.626387 103.31472 
L 253.715486 102.61296 
L 255.182276 102.6336 
L 258.240794 103.28376 
L 261.241831 102.69552 
L 262.801224 102.582 
L 265.746166 103.15992 
L 267.26081 103.36632 
L 268.783624 103.36632 
L 270.280101 102.81936 
L 271.824028 103.0464 
L 273.350034 102.9432 
L 274.83571 102.59232 
L 276.372921 102.40656 
L 279.36 101.68416 
L 279.36 101.68416 
" clip-path="url(#pda824dae80)" style="fill: none; stroke: #bebebe; stroke-width: 0.5; stroke-linecap: round"/>
   </g>
   <g id="line2d_6">
    <path d="M 8.64 73.00488 
L 10.155047 71.68392 
L 11.670093 70.6932 
L 13.18514 72.62304 
L 14.700187 73.52088 
L 16.215233 73.83048 
L 17.73028 73.8408 
L 19.245326 73.29384 
L 20.760373 73.72728 
L 22.27542 70.32168 
L 23.790466 69.77472 
L 25.305513 70.34232 
L 26.82056 70.67256 
L 28.335606 70.51776 
L 29.850653 70.848 
L 31.365699 72.31344 
L 32.880746 76.01832 
L 34.395793 75.41976 
L 35.910839 75.83256 
L 38.940933 75.82224 
L 40.455979 77.82432 
L 41.971026 76.14216 
L 43.486073 74.75928 
L 45.001119 74.96568 
L 46.516166 77.75208 
L 48.031212 79.48584 
L 49.546259 83.31456 
L 51.061306 85.90488 
L 52.576352 84.79032 
L 53.855392 85.84296 
L 56.573656 91.41576 
L 58.082214 88.7532 
L 61.134437 88.55712 
L 62.658128 88.96992 
L 65.679629 90.456 
L 67.19422 90.56952 
L 68.691048 89.15568 
L 70.126151 88.9596 
L 71.738378 90.6624 
L 73.063114 89.94 
L 74.766069 90.00192 
L 77.785466 90.62112 
L 80.823608 90.3528 
L 82.343213 92.004 
L 83.73027 92.13816 
L 85.367853 91.25064 
L 86.876149 89.166 
L 88.38832 89.56848 
L 89.885515 90.93072 
L 91.434984 89.41368 
L 92.934389 90.37344 
L 94.45296 89.79552 
L 95.95952 90.23928 
L 97.477828 88.0824 
L 98.992156 88.7532 
L 100.495576 90.16704 
L 102.025335 90.67272 
L 103.544923 90.18768 
L 105.050238 89.2692 
L 106.564688 89.54784 
L 108.085697 89.49624 
L 109.597815 88.31976 
L 111.110845 88.45392 
L 112.654878 88.46424 
L 114.174203 86.38992 
L 115.662736 84.80064 
L 117.189339 84.8316 
L 118.704806 86.586 
L 120.205105 87.74184 
L 121.711279 87.618 
L 123.248981 88.19592 
L 124.767588 89.08344 
L 126.268606 87.89664 
L 127.896492 87.3084 
L 129.317129 87.65928 
L 130.834087 88.96992 
L 132.334649 90.07416 
L 135.389713 89.3724 
L 136.895203 89.00088 
L 138.423243 88.42296 
L 141.435117 89.10408 
L 142.937188 89.14536 
L 144.475048 89.07312 
L 145.994005 87.9792 
L 147.499214 88.29912 
L 149.016716 86.38992 
L 150.526484 87.24648 
L 152.055471 87.1536 
L 153.547354 86.21448 
L 156.612395 87.01944 
L 158.117797 84.44976 
L 159.631686 85.05864 
L 161.153291 84.58392 
L 162.665252 85.04832 
L 164.163587 83.71704 
L 165.698642 84.86256 
L 167.217441 85.6572 
L 168.725842 85.27536 
L 170.236189 84.49104 
L 173.276435 85.32696 
L 174.773403 85.17216 
L 176.312017 85.31664 
L 177.843389 84.11952 
L 179.361609 85.66752 
L 180.872518 85.26504 
L 182.390107 86.26608 
L 185.398088 85.38888 
L 186.943892 85.3992 
L 188.458412 84.09888 
L 191.481824 84.34656 
L 194.487105 85.7604 
L 196.007693 85.0896 
L 199.080274 84.9348 
L 200.574279 85.296 
L 202.096532 85.35792 
L 203.609895 86.1732 
L 205.132412 85.92552 
L 208.165784 87.13296 
L 209.695543 88.10304 
L 211.199735 87.9276 
L 212.720201 88.26816 
L 214.243874 87.78312 
L 215.747313 87.95856 
L 217.241545 88.94928 
L 218.78058 88.14432 
L 221.807657 88.52616 
L 223.338258 88.86672 
L 224.848464 90.22896 
L 226.364633 89.82648 
L 227.857831 89.87808 
L 229.40381 89.46528 
L 230.941267 90.0432 
L 232.441408 89.96064 
L 233.973499 91.99368 
L 235.483355 93.05664 
L 236.973449 93.74808 
L 238.465209 97.02984 
L 240.012819 95.93592 
L 241.534564 95.07936 
L 243.020695 94.46016 
L 244.551453 95.47152 
L 247.596381 94.82136 
L 249.100345 94.8936 
L 250.626387 94.70784 
L 253.715486 93.40752 
L 255.182276 92.9844 
L 256.690063 93.93384 
L 258.240794 94.4292 
L 261.241831 93.87192 
L 262.801224 93.81 
L 264.225701 94.03704 
L 265.746166 94.83168 
L 267.26081 95.48184 
L 268.783624 96.63768 
L 270.280101 96.14232 
L 271.824028 96.30744 
L 273.350034 96.29712 
L 274.83571 96.04944 
L 276.372921 95.9256 
L 277.861437 95.39928 
L 279.36 94.31568 
L 279.36 94.31568 
" clip-path="url(#pda824dae80)" style="fill: none; stroke: #4a8dff; stroke-width: 0.6"/>
   </g>
   <g id="line2d_7">
    <path d="M 8.64 82.03488 
L 10.155047 79.39296 
L 11.670093 79.66128 
L 13.18514 82.15872 
L 14.700187 82.43736 
L 16.215233 82.93272 
L 17.73028 83.00496 
L 20.760373 82.28256 
L 22.27542 78.01008 
L 23.790466 76.19376 
L 25.305513 77.66952 
L 26.82056 77.74176 
L 28.335606 78.1752 
L 29.850653 79.5684 
L 31.365699 80.8068 
L 32.880746 85.20312 
L 34.395793 84.12984 
L 35.910839 84.03696 
L 37.425886 84.06792 
L 38.940933 84.3156 
L 40.455979 87.02976 
L 41.971026 85.21344 
L 43.486073 84.28464 
L 45.001119 84.32592 
L 46.516166 89.08344 
L 48.031212 89.5272 
L 49.546259 95.14128 
L 51.061306 96.98856 
L 52.576352 95.08968 
L 53.855392 97.71096 
L 55.05938 99.80592 
L 56.573656 101.79768 
L 58.082214 100.03296 
L 59.631893 100.518 
L 61.134437 99.98136 
L 62.658128 100.49736 
L 67.19422 101.26104 
L 68.691048 100.63152 
L 70.126151 100.38384 
L 71.738378 100.84824 
L 73.063114 100.65216 
L 74.766069 101.034 
L 76.279274 101.19912 
L 80.823608 100.91016 
L 82.343213 101.7564 
L 83.73027 101.84928 
L 85.367853 101.56032 
L 86.876149 100.85856 
L 89.885515 101.4468 
L 91.434984 101.02368 
L 92.934389 101.30232 
L 94.45296 100.81728 
L 95.95952 100.79664 
L 97.477828 99.3312 
L 98.992156 99.92976 
L 100.495576 100.78632 
L 102.025335 101.17848 
L 103.544923 101.1372 
L 105.050238 100.21872 
L 108.085697 100.4664 
L 109.597815 99.88848 
L 111.110845 99.94008 
L 112.654878 99.81624 
L 114.174203 98.93904 
L 115.662736 98.3508 
L 117.189339 98.52624 
L 118.704806 99.78528 
L 120.205105 100.12584 
L 121.711279 100.03296 
L 124.767588 100.83792 
L 126.268606 100.11552 
L 127.896492 99.87816 
L 129.317129 100.002 
L 130.834087 100.64184 
L 132.334649 101.41584 
L 133.870335 101.21976 
L 136.895203 101.00304 
L 138.423243 100.86888 
L 139.918335 101.21976 
L 141.435117 101.28168 
L 144.475048 101.14752 
L 145.994005 100.55928 
L 147.499214 100.65216 
L 149.016716 99.80592 
L 150.526484 99.96072 
L 152.055471 99.6408 
L 153.547354 99.1764 
L 155.08958 99.70272 
L 156.612395 99.94008 
L 158.117797 98.57784 
L 159.631686 98.65008 
L 161.153291 98.38176 
L 162.665252 98.48496 
L 164.163587 96.70992 
L 165.698642 98.05152 
L 167.217441 98.48496 
L 168.725842 97.96896 
L 170.236189 96.32808 
L 173.276435 96.16296 
L 174.773403 96.1836 
L 176.312017 96.50352 
L 177.843389 94.76976 
L 179.361609 97.19496 
L 180.872518 96.9576 
L 182.390107 97.9896 
L 183.921707 96.89568 
L 185.398088 95.45088 
L 186.943892 95.67792 
L 188.458412 93.43848 
L 191.481824 92.25168 
L 192.997274 92.87088 
L 194.487105 94.2744 
L 196.007693 93.1392 
L 197.553269 92.97408 
L 199.080274 92.9844 
L 200.574279 92.60256 
L 202.096532 92.53032 
L 203.609895 94.54272 
L 205.132412 92.85024 
L 206.628117 94.82136 
L 208.165784 95.75016 
L 209.695543 96.97824 
L 212.720201 97.23624 
L 214.243874 95.94624 
L 215.747313 96.30744 
L 217.241545 98.08248 
L 218.78058 97.2672 
L 220.315564 96.61704 
L 221.807657 97.23624 
L 223.338258 98.08248 
L 224.848464 99.18672 
L 226.364633 99.03192 
L 227.857831 99.1248 
L 229.40381 98.74296 
L 230.941267 99.09384 
L 232.441408 100.0536 
L 233.973499 101.23008 
L 235.483355 101.99376 
L 236.973449 102.08664 
L 238.465209 102.8916 
L 240.012819 102.45816 
L 243.020695 102.10728 
L 244.551453 102.582 
L 247.596381 102.08664 
L 249.100345 102.066 
L 250.626387 101.86992 
L 252.191795 101.48808 
L 253.715486 101.40552 
L 255.182276 101.4984 
L 256.690063 101.97312 
L 258.240794 102.26208 
L 261.241831 101.90088 
L 262.801224 101.90088 
L 264.225701 102.0144 
L 265.746166 102.25176 
L 267.26081 102.6336 
L 268.783624 102.88128 
L 270.280101 102.77808 
L 276.372921 103.00512 
L 277.861437 102.69552 
L 279.36 102.55104 
L 279.36 102.55104 
" clip-path="url(#pda824dae80)" style="fill: none; stroke: #f5841e; stroke-width: 0.6"/>
   </g>
  </g>
 </g>
 <defs>
  <clipPath id="pda824dae80">
   <rect x="8.64" y="4.8" width="270.72" height="103.2"/>
  </clipPath>
 </defs>
</svg>
