<?xml version="1.0" encoding="utf-8" standalone="no"?>
<!DOCTYPE svg PUBLIC "-//W3C//DTD SVG 1.1//EN"
  "http://www.w3.org/Graphics/SVG/1.1/DTD/svg11.dtd">
<svg xmlns:xlink="http://www.w3.org/1999/xlink" width="288pt" height="120pt" viewBox="0 0 288 120" xmlns="http://www.w3.org/2000/svg" version="1.1">
<desc id="nav-meta">{"window":"1m","count":4,"labels":["16.06","26.06","05.07","15.07"],"tick_utc":["2026-06-16T06:15:52Z","2026-06-26T04:57:37Z","2026-07-05T04:44:59Z","2026-07-15T03:47:50Z"],"w":720,"h":300}</desc>

 <metadata>
  <rdf:RDF xmlns:dc="http://purl.org/dc/elements/1.1/" xmlns:cc="http://creativecommons.org/ns#" xmlns:rdf="http://www.w3.org/1999/02/22-rdf-syntax-ns#">
   <cc:Work>
    <dc:type rdf:resource="http://purl.org/dc/dcmitype/StillImage"/>
    <dc:date>2026-07-15T19:49:48.048271</dc:date>
    <dc:format>image/svg+xml</dc:format>
    <dc:creator>
     <cc:Agent>
      <dc:title>Matplotlib v3.11.0, https://matplotlib.org/</dc:title>
     </cc:Agent>
    </dc:creator>
   </cc:Work>
  </rdf:RDF>
 </metadata>
 <defs>
  <style type="text/css">*{stroke-linejoin: round; stroke-linecap: butt}</style>
 </defs>
 <g id="figure_1">
  <g id="patch_1">
   <path d="M 0 120 
L 288 120 
L 288 0 
L 0 0 
L 0 120 
z
" style="fill: none; opacity: 0"/>
  </g>
  <g id="axes_1">
   <g id="patch_2">
    <path d="M 8.64 108 
L 279.36 108 
L 279.36 4.8 
L 8.64 4.8 
L 8.64 108 
z
" style="fill: none"/>
   </g>
   <g id="matplotlib.axis_1"/>
   <g id="matplotlib.axis_2"/>
   <g id="line2d_1">
    <path d="M 8.64 87.36 
L 279.36 87.36 
" clip-path="url(#p58d676b12a)" style="fill: none; stroke: #b2b2b2; stroke-opacity: 0.35; stroke-width: 0.5; stroke-linecap: square"/>
   </g>
   <g id="line2d_2">
    <path d="M 8.64 66.72 
L 279.36 66.72 
" clip-path="url(#p58d676b12a)" style="fill: none; stroke: #b2b2b2; stroke-opacity: 0.35; stroke-width: 0.5; stroke-linecap: square"/>
   </g>
   <g id="line2d_3">
    <path d="M 8.64 46.08 
L 279.36 46.08 
" clip-path="url(#p58d676b12a)" style="fill: none; stroke: #b2b2b2; stroke-opacity: 0.35; stroke-width: 0.5; stroke-linecap: square"/>
   </g>
   <g id="line2d_4">
    <path d="M 8.64 25.44 
L 279.36 25.44 
" clip-path="url(#p58d676b12a)" style="fill: none; stroke: #b2b2b2; stroke-opacity: 0.35; stroke-width: 0.5; stroke-linecap: square"/>
   </g>
   <g id="line2d_5">
    <path d="M 8.64 102.61296 
L 17.709982 102.6336 
L 27.033474 102.9948 
L 36.622511 103.28376 
L 45.616266 103.01544 
L 55.179606 102.69552 
L 64.822209 102.582 
L 73.630548 102.88128 
L 83.032435 103.15992 
L 92.398323 103.36632 
L 101.81474 103.36632 
L 111.068294 102.81936 
L 120.615261 103.0464 
L 130.051412 102.9432 
L 139.238173 102.59232 
L 148.743611 102.40656 
L 157.947938 102.02472 
L 167.214395 101.68416 
L 176.542441 101.3436 
L 186.047988 101.6532 
L 195.507126 101.6532 
L 204.734982 101.63256 
L 213.84877 101.95248 
L 223.501131 102.08664 
L 232.848369 101.9112 
L 241.940145 102.066 
L 251.448619 102.18984 
L 260.837494 102.31368 
L 269.989233 102.45816 
L 279.36 102.08664 
" clip-path="url(#p58d676b12a)" style="fill: none; stroke: #bebebe; stroke-width: 0.5; stroke-linecap: round"/>
   </g>
   <g id="line2d_6">
    <path d="M 8.64 93.40752 
L 17.709982 92.9844 
L 27.033474 93.93384 
L 36.622511 94.4292 
L 45.616266 94.19184 
L 55.179606 93.87192 
L 64.822209 93.81 
L 73.630548 94.03704 
L 83.032435 94.83168 
L 92.398323 95.48184 
L 101.81474 96.63768 
L 111.068294 96.14232 
L 120.615261 96.30744 
L 130.051412 96.29712 
L 139.238173 96.04944 
L 148.743611 95.9256 
L 157.947938 95.39928 
L 167.214395 94.31568 
L 176.542441 93.57264 
L 186.047988 93.32496 
L 195.507126 93.22176 
L 204.734982 93.35592 
L 213.84877 93.61392 
L 223.501131 93.77904 
L 232.848369 93.26304 
L 241.940145 92.92248 
L 251.448619 92.71608 
L 260.837494 93.15984 
L 269.989233 93.17016 
L 279.36 91.80792 
" clip-path="url(#p58d676b12a)" style="fill: none; stroke: #4a8dff; stroke-width: 0.6"/>
   </g>
   <g id="line2d_7">
    <path d="M 8.64 101.40552 
L 17.709982 101.4984 
L 27.033474 101.97312 
L 36.622511 102.26208 
L 45.616266 102.066 
L 55.179606 101.90088 
L 64.822209 101.90088 
L 73.630548 102.0144 
L 83.032435 102.25176 
L 92.398323 102.6336 
L 101.81474 102.88128 
L 111.068294 102.77808 
L 120.615261 102.85032 
L 130.051412 102.93288 
L 139.238173 102.95352 
L 148.743611 103.00512 
L 157.947938 102.69552 
L 167.214395 102.55104 
L 176.542441 102.2724 
L 186.047988 102.21048 
L 195.507126 102.12792 
L 204.734982 102.13824 
L 213.84877 102.25176 
L 223.501131 102.36528 
L 232.848369 101.94216 
L 241.940145 101.92152 
L 251.448619 101.9112 
L 260.837494 102.2208 
L 269.989233 102.31368 
L 279.36 101.79768 
" clip-path="url(#p58d676b12a)" style="fill: none; stroke: #f5841e; stroke-width: 0.6"/>
   </g>
  </g>
 </g>
 <defs>
  <clipPath id="p58d676b12a">
   <rect x="8.64" y="4.8" width="270.72" height="103.2"/>
  </clipPath>
 </defs>
</svg>
