<?xml version="1.0" encoding="utf-8" standalone="no"?>
<!DOCTYPE svg PUBLIC "-//W3C//DTD SVG 1.1//EN"
  "http://www.w3.org/Graphics/SVG/1.1/DTD/svg11.dtd">
<svg xmlns:xlink="http://www.w3.org/1999/xlink" width="288pt" height="120pt" viewBox="0 0 288 120" xmlns="http://www.w3.org/2000/svg" version="1.1">
<desc id="nav-meta">{"window":"6m","count":4,"labels":["06.12","04.02","05.04","03.06"],"tick_utc":["2025-12-06T12:00:00Z","2026-02-04T08:15:41Z","2026-04-05T03:46:34Z","2026-06-03T05:31:47Z"],"w":720,"h":300}</desc>

 <metadata>
  <rdf:RDF xmlns:dc="http://purl.org/dc/elements/1.1/" xmlns:cc="http://creativecommons.org/ns#" xmlns:rdf="http://www.w3.org/1999/02/22-rdf-syntax-ns#">
   <cc:Work>
    <dc:type rdf:resource="http://purl.org/dc/dcmitype/StillImage"/>
    <dc:date>2026-06-03T21:38:10.932760</dc:date>
    <dc:format>image/svg+xml</dc:format>
    <dc:creator>
     <cc:Agent>
      <dc:title>Matplotlib v3.10.9, https://matplotlib.org/</dc:title>
     </cc:Agent>
    </dc:creator>
   </cc:Work>
  </rdf:RDF>
 </metadata>
 <defs>
  <style type="text/css">*{stroke-linejoin: round; stroke-linecap: butt}</style>
 </defs>
 <g id="figure_1">
  <g id="patch_1">
   <path d="M 0 120 
L 288 120 
L 288 0 
L 0 0 
L 0 120 
z
" style="fill: none; opacity: 0"/>
  </g>
  <g id="axes_1">
   <g id="patch_2">
    <path d="M 8.64 108 
L 279.36 108 
L 279.36 4.8 
L 8.64 4.8 
L 8.64 108 
z
" style="fill: none"/>
   </g>
   <g id="matplotlib.axis_1"/>
   <g id="matplotlib.axis_2"/>
   <g id="line2d_1">
    <path d="M 8.64 87.36 
L 279.36 87.36 
" clip-path="url(#p329dfbfa71)" style="fill: none; stroke: #b2b2b2; stroke-opacity: 0.35; stroke-width: 0.5; stroke-linecap: square"/>
   </g>
   <g id="line2d_2">
    <path d="M 8.64 66.72 
L 279.36 66.72 
" clip-path="url(#p329dfbfa71)" style="fill: none; stroke: #b2b2b2; stroke-opacity: 0.35; stroke-width: 0.5; stroke-linecap: square"/>
   </g>
   <g id="line2d_3">
    <path d="M 8.64 46.08 
L 279.36 46.08 
" clip-path="url(#p329dfbfa71)" style="fill: none; stroke: #b2b2b2; stroke-opacity: 0.35; stroke-width: 0.5; stroke-linecap: square"/>
   </g>
   <g id="line2d_4">
    <path d="M 8.64 25.44 
L 279.36 25.44 
" clip-path="url(#p329dfbfa71)" style="fill: none; stroke: #b2b2b2; stroke-opacity: 0.35; stroke-width: 0.5; stroke-linecap: square"/>
   </g>
   <g id="line2d_5">
    <path d="M 8.64 90.11544 
L 10.154684 90.38376 
L 11.669367 90.53856 
L 13.184051 90.08448 
L 14.698734 88.79448 
L 16.213418 89.20728 
L 17.728101 89.22792 
L 19.242785 90.31152 
L 20.757468 90.10512 
L 22.272152 91.09584 
L 23.786835 91.61184 
L 25.301519 91.31256 
L 26.816202 92.87088 
L 28.330886 93.8616 
L 29.845569 92.02464 
L 31.360253 92.13816 
L 32.874936 92.07624 
L 34.38962 92.14848 
L 35.904303 92.64384 
L 37.418987 93.01536 
L 38.93367 93.69648 
L 41.963038 92.44776 
L 43.477721 92.30328 
L 44.992405 92.87088 
L 46.507088 92.38584 
L 48.021772 92.47872 
L 49.536455 91.88016 
L 51.051139 90.42504 
L 52.565822 90.08448 
L 54.080506 89.92968 
L 55.595189 88.76352 
L 57.109873 87.94824 
L 58.624556 89.2692 
L 60.13924 88.72224 
L 61.653923 89.39304 
L 63.168607 89.40336 
L 64.68329 88.41264 
L 66.197974 88.4952 
L 67.712657 86.86464 
L 69.227341 86.42088 
L 70.742025 87.62832 
L 72.256708 86.93688 
L 73.771392 87.23616 
L 76.800759 90.0432 
L 78.315442 92.12784 
L 79.830126 91.16808 
L 82.859493 91.73568 
L 84.374176 91.78728 
L 85.88886 94.0164 
L 87.403543 92.5716 
L 88.918227 91.76664 
L 90.43291 92.33424 
L 91.947594 94.36728 
L 93.462277 94.46016 
L 94.976961 97.71096 
L 96.491644 98.48496 
L 98.006328 97.85544 
L 100.488761 100.16712 
L 102.002673 102.23112 
L 103.51087 100.54896 
L 105.060178 100.70376 
L 106.562361 100.68312 
L 109.597233 101.28168 
L 111.106465 101.71512 
L 112.620692 101.84928 
L 114.117161 101.034 
L 115.551921 100.54896 
L 117.163761 101.04432 
L 118.48818 100.81728 
L 120.190726 101.034 
L 121.703569 101.4984 
L 126.246813 101.06496 
L 127.766055 102.09696 
L 129.152779 102.05568 
L 130.78997 101.4984 
L 132.297904 100.60056 
L 133.809712 100.80696 
L 135.306549 101.45712 
L 136.855646 100.55928 
L 138.354692 101.10624 
L 141.379098 100.74504 
L 142.897042 100.21872 
L 144.411007 100.53864 
L 145.914067 101.07528 
L 147.443459 101.38488 
L 148.962684 101.26104 
L 150.467637 100.78632 
L 153.502369 100.99272 
L 155.014125 100.38384 
L 158.070455 100.60056 
L 159.589416 99.76464 
L 161.077592 99.49632 
L 162.603829 99.40344 
L 164.118933 100.09488 
L 165.618873 100.3632 
L 167.124686 100.19808 
L 170.180262 100.79664 
L 171.68092 100.26 
L 173.308416 99.83688 
L 174.728713 100.13616 
L 177.74551 101.38488 
L 183.832644 101.28168 
L 185.327377 101.8596 
L 186.843796 101.88024 
L 188.345507 101.72544 
L 189.882998 101.68416 
L 191.401591 101.47776 
L 192.90644 101.78736 
L 194.423578 101.09592 
L 195.932985 101.46744 
L 197.461605 101.3436 
L 198.95313 101.05464 
L 200.494987 101.3952 
L 202.017437 101.47776 
L 203.522478 100.86888 
L 205.036005 101.26104 
L 206.557245 100.99272 
L 208.068843 100.61088 
L 209.566819 100.44576 
L 211.101506 100.94112 
L 212.619941 101.09592 
L 214.12798 101.00304 
L 215.637965 100.69344 
L 217.158785 100.9308 
L 221.712337 100.8792 
L 223.243342 100.64184 
L 224.761199 101.1888 
L 226.271745 101.09592 
L 227.78897 101.37456 
L 229.320203 101.21976 
L 232.341664 101.23008 
L 233.855821 100.92048 
L 235.337143 101.06496 
L 236.878509 100.70376 
L 238.393596 100.55928 
L 239.88307 100.53864 
L 241.403293 99.60984 
L 242.948498 99.72336 
L 245.968784 99.25896 
L 247.490673 99.32088 
L 249.003673 100.22904 
L 250.525825 100.01232 
L 253.558471 100.75536 
L 255.087863 101.02368 
L 256.591694 101.02368 
L 258.111795 101.17848 
L 259.635104 100.7244 
L 261.138182 100.75536 
L 262.632056 101.11656 
L 264.170722 100.91016 
L 265.705338 100.89984 
L 267.197074 101.1372 
L 268.727307 101.2404 
L 270.237152 101.6532 
L 271.752958 101.4984 
L 273.245798 101.48808 
L 274.791406 101.32296 
L 277.828276 101.7048 
L 279.36 102.54072 
L 279.36 102.54072 
" clip-path="url(#p329dfbfa71)" style="fill: none; stroke: #bebebe; stroke-width: 0.5; stroke-linecap: round"/>
   </g>
   <g id="line2d_6">
    <path d="M 8.64 74.72832 
L 11.669367 74.28456 
L 13.184051 73.21128 
L 14.698734 70.2804 
L 16.213418 70.2288 
L 17.728101 71.56008 
L 19.242785 73.79952 
L 20.757468 73.35576 
L 22.272152 74.0988 
L 23.786835 75.5952 
L 25.301519 75.5952 
L 26.816202 77.61792 
L 28.330886 77.63856 
L 29.845569 75.40944 
L 31.360253 75.40944 
L 32.874936 75.04824 
L 34.38962 74.98632 
L 35.904303 75.58488 
L 37.418987 75.87384 
L 38.93367 76.49304 
L 41.963038 75.82224 
L 43.477721 75.84288 
L 44.992405 76.03896 
L 46.507088 75.51264 
L 48.021772 75.56424 
L 49.536455 75.05856 
L 51.051139 73.26288 
L 52.565822 73.20096 
L 54.080506 73.00488 
L 55.595189 71.68392 
L 57.109873 70.6932 
L 58.624556 72.62304 
L 60.13924 73.52088 
L 61.653923 73.83048 
L 63.168607 73.8408 
L 64.68329 73.29384 
L 66.197974 73.72728 
L 67.712657 70.32168 
L 69.227341 69.77472 
L 70.742025 70.34232 
L 72.256708 70.67256 
L 73.771392 70.51776 
L 75.286075 70.848 
L 76.800759 72.31344 
L 78.315442 76.01832 
L 79.830126 75.41976 
L 81.344809 75.83256 
L 84.374176 75.82224 
L 85.88886 77.82432 
L 87.403543 76.14216 
L 88.918227 74.75928 
L 90.43291 74.96568 
L 91.947594 77.75208 
L 93.462277 79.48584 
L 94.976961 83.31456 
L 96.491644 85.90488 
L 98.006328 84.79032 
L 99.285061 85.84296 
L 102.002673 91.41576 
L 103.51087 88.7532 
L 106.562361 88.55712 
L 108.085688 88.96992 
L 111.106465 90.456 
L 112.620692 90.56952 
L 114.117161 89.15568 
L 115.551921 88.9596 
L 117.163761 90.6624 
L 118.48818 89.94 
L 120.190726 90.00192 
L 123.2094 90.62112 
L 126.246813 90.3528 
L 127.766055 92.004 
L 129.152779 92.13816 
L 130.78997 91.25064 
L 132.297904 89.166 
L 133.809712 89.56848 
L 135.306549 90.93072 
L 136.855646 89.41368 
L 138.354692 90.37344 
L 139.872899 89.79552 
L 141.379098 90.23928 
L 142.897042 88.0824 
L 144.411007 88.7532 
L 145.914067 90.16704 
L 147.443459 90.67272 
L 148.962684 90.18768 
L 150.467637 89.2692 
L 151.981725 89.54784 
L 153.502369 89.49624 
L 155.014125 88.31976 
L 156.526792 88.45392 
L 158.070455 88.46424 
L 159.589416 86.38992 
L 161.077592 84.80064 
L 162.603829 84.8316 
L 164.118933 86.586 
L 165.618873 87.74184 
L 167.124686 87.618 
L 168.662019 88.19592 
L 170.180262 89.08344 
L 171.68092 87.89664 
L 173.308416 87.3084 
L 174.728713 87.65928 
L 176.245307 88.96992 
L 177.74551 90.07416 
L 180.799841 89.3724 
L 182.30497 89.00088 
L 183.832644 88.42296 
L 186.843796 89.10408 
L 188.345507 89.14536 
L 189.882998 89.07312 
L 191.401591 87.9792 
L 192.90644 88.29912 
L 194.423578 86.38992 
L 195.932985 87.24648 
L 197.461605 87.1536 
L 198.95313 86.21448 
L 202.017437 87.01944 
L 203.522478 84.44976 
L 205.036005 85.05864 
L 206.557245 84.58392 
L 208.068843 85.04832 
L 209.566819 83.71704 
L 211.101506 84.86256 
L 212.619941 85.6572 
L 214.12798 85.27536 
L 215.637965 84.49104 
L 218.677483 85.32696 
L 220.174092 85.17216 
L 221.712337 85.31664 
L 223.243342 84.11952 
L 224.761199 85.66752 
L 226.271745 85.26504 
L 227.78897 86.26608 
L 230.796231 85.38888 
L 232.341664 85.3992 
L 233.855821 84.09888 
L 236.878509 84.34656 
L 239.88307 85.7604 
L 241.403293 85.0896 
L 244.475138 84.9348 
L 245.968784 85.296 
L 247.490673 85.35792 
L 249.003673 86.1732 
L 250.525825 85.92552 
L 253.558471 87.13296 
L 255.087863 88.10304 
L 256.591694 87.9276 
L 258.111795 88.26816 
L 259.635104 87.78312 
L 261.138182 87.95856 
L 262.632056 88.94928 
L 264.170722 88.14432 
L 267.197074 88.52616 
L 268.727307 88.86672 
L 270.237152 90.22896 
L 271.752958 89.82648 
L 273.245798 89.87808 
L 274.791406 89.46528 
L 276.328494 90.0432 
L 277.828276 89.96064 
L 279.36 91.99368 
L 279.36 91.99368 
" clip-path="url(#p329dfbfa71)" style="fill: none; stroke: #4a8dff; stroke-width: 0.6"/>
   </g>
   <g id="line2d_7">
    <path d="M 8.64 84.17112 
L 10.154684 84.24336 
L 11.669367 83.29392 
L 13.184051 82.8192 
L 14.698734 80.64168 
L 16.213418 81.38472 
L 17.728101 80.87904 
L 19.242785 83.13912 
L 20.757468 83.19072 
L 22.272152 85.296 
L 23.786835 87.17424 
L 25.301519 85.71912 
L 26.816202 87.53544 
L 28.330886 88.17528 
L 29.845569 85.41984 
L 32.874936 84.9348 
L 34.38962 85.01736 
L 35.904303 86.14224 
L 37.418987 85.90488 
L 38.93367 86.328 
L 40.448354 86.24544 
L 41.963038 85.72944 
L 43.477721 85.7088 
L 44.992405 86.40024 
L 46.507088 85.09992 
L 48.021772 86.02872 
L 51.051139 83.53128 
L 54.080506 82.03488 
L 55.595189 79.39296 
L 57.109873 79.66128 
L 58.624556 82.15872 
L 60.13924 82.43736 
L 61.653923 82.93272 
L 63.168607 83.00496 
L 66.197974 82.28256 
L 67.712657 78.01008 
L 69.227341 76.19376 
L 70.742025 77.66952 
L 72.256708 77.74176 
L 73.771392 78.1752 
L 75.286075 79.5684 
L 76.800759 80.8068 
L 78.315442 85.20312 
L 79.830126 84.12984 
L 81.344809 84.03696 
L 82.859493 84.06792 
L 84.374176 84.3156 
L 85.88886 87.02976 
L 87.403543 85.21344 
L 88.918227 84.28464 
L 90.43291 84.32592 
L 91.947594 89.08344 
L 93.462277 89.5272 
L 94.976961 95.14128 
L 96.491644 96.98856 
L 98.006328 95.08968 
L 99.285061 97.71096 
L 100.488761 99.80592 
L 102.002673 101.79768 
L 103.51087 100.03296 
L 105.060178 100.518 
L 106.562361 99.98136 
L 108.085688 100.49736 
L 112.620692 101.26104 
L 114.117161 100.63152 
L 115.551921 100.38384 
L 117.163761 100.84824 
L 118.48818 100.65216 
L 120.190726 101.034 
L 121.703569 101.19912 
L 126.246813 100.91016 
L 127.766055 101.7564 
L 129.152779 101.84928 
L 130.78997 101.56032 
L 132.297904 100.85856 
L 135.306549 101.4468 
L 136.855646 101.02368 
L 138.354692 101.30232 
L 139.872899 100.81728 
L 141.379098 100.79664 
L 142.897042 99.3312 
L 144.411007 99.92976 
L 145.914067 100.78632 
L 147.443459 101.17848 
L 148.962684 101.1372 
L 150.467637 100.21872 
L 153.502369 100.4664 
L 155.014125 99.88848 
L 156.526792 99.94008 
L 158.070455 99.81624 
L 159.589416 98.93904 
L 161.077592 98.3508 
L 162.603829 98.52624 
L 164.118933 99.78528 
L 165.618873 100.12584 
L 167.124686 100.03296 
L 170.180262 100.83792 
L 171.68092 100.11552 
L 173.308416 99.87816 
L 174.728713 100.002 
L 176.245307 100.64184 
L 177.74551 101.41584 
L 179.280827 101.21976 
L 182.30497 101.00304 
L 183.832644 100.86888 
L 185.327377 101.21976 
L 186.843796 101.28168 
L 189.882998 101.14752 
L 191.401591 100.55928 
L 192.90644 100.65216 
L 194.423578 99.80592 
L 195.932985 99.96072 
L 197.461605 99.6408 
L 198.95313 99.1764 
L 200.494987 99.70272 
L 202.017437 99.94008 
L 203.522478 98.57784 
L 205.036005 98.65008 
L 206.557245 98.38176 
L 208.068843 98.48496 
L 209.566819 96.70992 
L 211.101506 98.05152 
L 212.619941 98.48496 
L 214.12798 97.96896 
L 215.637965 96.32808 
L 218.677483 96.16296 
L 220.174092 96.1836 
L 221.712337 96.50352 
L 223.243342 94.76976 
L 224.761199 97.19496 
L 226.271745 96.9576 
L 227.78897 97.9896 
L 229.320203 96.89568 
L 230.796231 95.45088 
L 232.341664 95.67792 
L 233.855821 93.43848 
L 236.878509 92.25168 
L 238.393596 92.87088 
L 239.88307 94.2744 
L 241.403293 93.1392 
L 242.948498 92.97408 
L 244.475138 92.9844 
L 245.968784 92.60256 
L 247.490673 92.53032 
L 249.003673 94.54272 
L 250.525825 92.85024 
L 252.021172 94.82136 
L 253.558471 95.75016 
L 255.087863 96.97824 
L 258.111795 97.23624 
L 259.635104 95.94624 
L 261.138182 96.30744 
L 262.632056 98.08248 
L 264.170722 97.2672 
L 265.705338 96.61704 
L 267.197074 97.23624 
L 268.727307 98.08248 
L 270.237152 99.18672 
L 271.752958 99.03192 
L 273.245798 99.1248 
L 274.791406 98.74296 
L 276.328494 99.09384 
L 277.828276 100.0536 
L 279.36 101.23008 
L 279.36 101.23008 
" clip-path="url(#p329dfbfa71)" style="fill: none; stroke: #f5841e; stroke-width: 0.6"/>
   </g>
  </g>
 </g>
 <defs>
  <clipPath id="p329dfbfa71">
   <rect x="8.64" y="4.8" width="270.72" height="103.2"/>
  </clipPath>
 </defs>
</svg>
