<?xml version="1.0" encoding="utf-8" standalone="no"?>
<!DOCTYPE svg PUBLIC "-//W3C//DTD SVG 1.1//EN"
  "http://www.w3.org/Graphics/SVG/1.1/DTD/svg11.dtd">
<svg xmlns:xlink="http://www.w3.org/1999/xlink" width="288pt" height="120pt" viewBox="0 0 288 120" xmlns="http://www.w3.org/2000/svg" version="1.1">
<desc id="nav-meta">{"window":"1m","count":4,"labels":["21.06","01.07","10.07","20.07"],"tick_utc":["2026-06-21T05:29:24Z","2026-07-01T05:10:59Z","2026-07-10T04:38:36Z","2026-07-20T04:25:44Z"],"w":720,"h":300}</desc>

 <metadata>
  <rdf:RDF xmlns:dc="http://purl.org/dc/elements/1.1/" xmlns:cc="http://creativecommons.org/ns#" xmlns:rdf="http://www.w3.org/1999/02/22-rdf-syntax-ns#">
   <cc:Work>
    <dc:type rdf:resource="http://purl.org/dc/dcmitype/StillImage"/>
    <dc:date>2026-07-20T14:56:14.606654</dc:date>
    <dc:format>image/svg+xml</dc:format>
    <dc:creator>
     <cc:Agent>
      <dc:title>Matplotlib v3.11.1, https://matplotlib.org/</dc:title>
     </cc:Agent>
    </dc:creator>
   </cc:Work>
  </rdf:RDF>
 </metadata>
 <defs>
  <style type="text/css">*{stroke-linejoin: round; stroke-linecap: butt}</style>
 </defs>
 <g id="figure_1">
  <g id="patch_1">
   <path d="M 0 120 
L 288 120 
L 288 0 
L 0 0 
L 0 120 
z
" style="fill: none; opacity: 0"/>
  </g>
  <g id="axes_1">
   <g id="patch_2">
    <path d="M 8.64 108 
L 279.36 108 
L 279.36 4.8 
L 8.64 4.8 
L 8.64 108 
z
" style="fill: none"/>
   </g>
   <g id="matplotlib.axis_1"/>
   <g id="matplotlib.axis_2"/>
   <g id="line2d_1">
    <path d="M 8.64 87.36 
L 279.36 87.36 
" clip-path="url(#pc0b3da8c77)" style="fill: none; stroke: #b2b2b2; stroke-opacity: 0.35; stroke-width: 0.5; stroke-linecap: square"/>
   </g>
   <g id="line2d_2">
    <path d="M 8.64 66.72 
L 279.36 66.72 
" clip-path="url(#pc0b3da8c77)" style="fill: none; stroke: #b2b2b2; stroke-opacity: 0.35; stroke-width: 0.5; stroke-linecap: square"/>
   </g>
   <g id="line2d_3">
    <path d="M 8.64 46.08 
L 279.36 46.08 
" clip-path="url(#pc0b3da8c77)" style="fill: none; stroke: #b2b2b2; stroke-opacity: 0.35; stroke-width: 0.5; stroke-linecap: square"/>
   </g>
   <g id="line2d_4">
    <path d="M 8.64 25.44 
L 279.36 25.44 
" clip-path="url(#pc0b3da8c77)" style="fill: none; stroke: #b2b2b2; stroke-opacity: 0.35; stroke-width: 0.5; stroke-linecap: square"/>
   </g>
   <g id="line2d_5">
    <path d="M 8.64 102.69552 
L 18.263092 102.582 
L 27.053609 102.88128 
L 36.436472 103.15992 
L 45.78341 103.36632 
L 55.180774 103.36632 
L 64.415605 102.81936 
L 73.943255 103.0464 
L 83.360313 102.9432 
L 92.528486 102.59232 
L 102.014691 102.40656 
L 111.200394 102.02472 
L 120.448102 101.68416 
L 129.757274 101.3436 
L 139.243588 101.6532 
L 148.683587 101.6532 
L 157.892772 101.63256 
L 166.988119 101.95248 
L 176.620949 102.08664 
L 185.949275 101.9112 
L 195.022655 102.066 
L 204.51189 102.18984 
L 213.881768 102.31368 
L 223.014989 102.45816 
L 232.366796 102.08664 
L 241.739596 102.21048 
L 251.090538 102.4272 
L 260.393758 102.4272 
L 269.88375 102.34464 
L 279.36 102.25176 
" clip-path="url(#pc0b3da8c77)" style="fill: none; stroke: #bebebe; stroke-width: 0.5; stroke-linecap: round"/>
   </g>
   <g id="line2d_6">
    <path d="M 8.64 93.87192 
L 18.263092 93.81 
L 27.053609 94.03704 
L 36.436472 94.83168 
L 45.78341 95.48184 
L 55.180774 96.63768 
L 64.415605 96.14232 
L 73.943255 96.30744 
L 83.360313 96.29712 
L 92.528486 96.04944 
L 102.014691 95.9256 
L 111.200394 95.39928 
L 120.448102 94.31568 
L 129.757274 93.57264 
L 139.243588 93.32496 
L 148.683587 93.22176 
L 157.892772 93.35592 
L 166.988119 93.61392 
L 176.620949 93.77904 
L 185.949275 93.26304 
L 195.022655 92.92248 
L 204.51189 92.71608 
L 213.881768 93.15984 
L 223.014989 93.17016 
L 232.366796 91.80792 
L 241.739596 91.14744 
L 251.090538 92.13816 
L 260.393758 92.25168 
L 269.88375 91.9008 
L 279.36 91.81824 
" clip-path="url(#pc0b3da8c77)" style="fill: none; stroke: #4a8dff; stroke-width: 0.6"/>
   </g>
   <g id="line2d_7">
    <path d="M 8.64 101.90088 
L 18.263092 101.90088 
L 27.053609 102.0144 
L 36.436472 102.25176 
L 45.78341 102.6336 
L 55.180774 102.88128 
L 64.415605 102.77808 
L 73.943255 102.85032 
L 83.360313 102.93288 
L 92.528486 102.95352 
L 102.014691 103.00512 
L 111.200394 102.69552 
L 120.448102 102.55104 
L 129.757274 102.2724 
L 139.243588 102.21048 
L 148.683587 102.12792 
L 157.892772 102.13824 
L 166.988119 102.25176 
L 176.620949 102.36528 
L 185.949275 101.94216 
L 195.022655 101.92152 
L 204.51189 101.9112 
L 213.881768 102.2208 
L 223.014989 102.31368 
L 232.366796 101.79768 
L 241.739596 101.81832 
L 251.090538 102.07632 
L 260.393758 101.97312 
L 269.88375 101.79768 
L 279.36 101.78736 
" clip-path="url(#pc0b3da8c77)" style="fill: none; stroke: #f5841e; stroke-width: 0.6"/>
   </g>
  </g>
 </g>
 <defs>
  <clipPath id="pc0b3da8c77">
   <rect x="8.64" y="4.8" width="270.72" height="103.2"/>
  </clipPath>
 </defs>
</svg>
