<?xml version="1.0" encoding="utf-8" standalone="no"?>
<!DOCTYPE svg PUBLIC "-//W3C//DTD SVG 1.1//EN"
  "http://www.w3.org/Graphics/SVG/1.1/DTD/svg11.dtd">
<svg xmlns:xlink="http://www.w3.org/1999/xlink" width="288pt" height="120pt" viewBox="0 0 288 120" xmlns="http://www.w3.org/2000/svg" version="1.1">
<desc id="nav-meta">{"window":"1m","count":4,"labels":["04.05","14.05","23.05","02.06"],"tick_utc":["2026-05-04T04:31:15Z","2026-05-14T04:32:13Z","2026-05-23T04:28:38Z","2026-06-02T05:15:35Z"],"w":720,"h":300}</desc>

 <metadata>
  <rdf:RDF xmlns:dc="http://purl.org/dc/elements/1.1/" xmlns:cc="http://creativecommons.org/ns#" xmlns:rdf="http://www.w3.org/1999/02/22-rdf-syntax-ns#">
   <cc:Work>
    <dc:type rdf:resource="http://purl.org/dc/dcmitype/StillImage"/>
    <dc:date>2026-06-02T17:09:23.670838</dc:date>
    <dc:format>image/svg+xml</dc:format>
    <dc:creator>
     <cc:Agent>
      <dc:title>Matplotlib v3.10.9, https://matplotlib.org/</dc:title>
     </cc:Agent>
    </dc:creator>
   </cc:Work>
  </rdf:RDF>
 </metadata>
 <defs>
  <style type="text/css">*{stroke-linejoin: round; stroke-linecap: butt}</style>
 </defs>
 <g id="figure_1">
  <g id="patch_1">
   <path d="M 0 120 
L 288 120 
L 288 0 
L 0 0 
L 0 120 
z
" style="fill: none; opacity: 0"/>
  </g>
  <g id="axes_1">
   <g id="patch_2">
    <path d="M 8.64 108 
L 279.36 108 
L 279.36 4.8 
L 8.64 4.8 
L 8.64 108 
z
" style="fill: none"/>
   </g>
   <g id="matplotlib.axis_1"/>
   <g id="matplotlib.axis_2"/>
   <g id="line2d_1">
    <path d="M 8.64 87.36 
L 279.36 87.36 
" clip-path="url(#pd138586fca)" style="fill: none; stroke: #b2b2b2; stroke-opacity: 0.35; stroke-width: 0.5; stroke-linecap: square"/>
   </g>
   <g id="line2d_2">
    <path d="M 8.64 66.72 
L 279.36 66.72 
" clip-path="url(#pd138586fca)" style="fill: none; stroke: #b2b2b2; stroke-opacity: 0.35; stroke-width: 0.5; stroke-linecap: square"/>
   </g>
   <g id="line2d_3">
    <path d="M 8.64 46.08 
L 279.36 46.08 
" clip-path="url(#pd138586fca)" style="fill: none; stroke: #b2b2b2; stroke-opacity: 0.35; stroke-width: 0.5; stroke-linecap: square"/>
   </g>
   <g id="line2d_4">
    <path d="M 8.64 25.44 
L 279.36 25.44 
" clip-path="url(#pd138586fca)" style="fill: none; stroke: #b2b2b2; stroke-opacity: 0.35; stroke-width: 0.5; stroke-linecap: square"/>
   </g>
   <g id="line2d_5">
    <path d="M 8.64 100.92048 
L 17.759879 101.06496 
L 27.249423 100.70376 
L 36.577178 100.55928 
L 45.747245 100.53864 
L 55.106624 99.60984 
L 64.619805 99.72336 
L 74.018687 99.44472 
L 83.214442 99.25896 
L 92.584074 99.32088 
L 101.898985 100.22904 
L 111.270236 100.01232 
L 120.47646 100.43544 
L 129.940964 100.75536 
L 139.356791 101.02368 
L 148.615254 101.02368 
L 157.973878 101.17848 
L 167.352252 100.7244 
L 176.606074 100.75536 
L 185.803232 101.11656 
L 195.276155 100.91016 
L 204.724145 100.89984 
L 213.908136 101.1372 
L 223.329143 101.2404 
L 232.624627 101.6532 
L 241.956807 101.4984 
L 251.147597 101.48808 
L 260.66326 101.32296 
L 270.126469 101.51904 
L 279.36 101.7048 
" clip-path="url(#pd138586fca)" style="fill: none; stroke: #bebebe; stroke-width: 0.5; stroke-linecap: round"/>
   </g>
   <g id="line2d_6">
    <path d="M 8.64 84.09888 
L 17.759879 84.22272 
L 27.249423 84.34656 
L 36.577178 85.06896 
L 45.747245 85.7604 
L 55.106624 85.0896 
L 64.619805 85.01736 
L 74.018687 84.9348 
L 83.214442 85.296 
L 92.584074 85.35792 
L 101.898985 86.1732 
L 111.270236 85.92552 
L 120.47646 86.55504 
L 129.940964 87.13296 
L 139.356791 88.10304 
L 148.615254 87.9276 
L 157.973878 88.26816 
L 167.352252 87.78312 
L 176.606074 87.95856 
L 185.803232 88.94928 
L 195.276155 88.14432 
L 204.724145 88.33008 
L 213.908136 88.52616 
L 223.329143 88.86672 
L 232.624627 90.22896 
L 241.956807 89.82648 
L 251.147597 89.87808 
L 260.66326 89.46528 
L 270.126469 90.0432 
L 279.36 89.96064 
" clip-path="url(#pd138586fca)" style="fill: none; stroke: #4a8dff; stroke-width: 0.6"/>
   </g>
   <g id="line2d_7">
    <path d="M 8.64 93.43848 
L 17.759879 92.90184 
L 27.249423 92.25168 
L 36.577178 92.87088 
L 45.747245 94.2744 
L 55.106624 93.1392 
L 64.619805 92.97408 
L 74.018687 92.9844 
L 83.214442 92.60256 
L 92.584074 92.53032 
L 101.898985 94.54272 
L 111.270236 92.85024 
L 120.47646 94.82136 
L 129.940964 95.75016 
L 139.356791 96.97824 
L 148.615254 97.08144 
L 157.973878 97.23624 
L 167.352252 95.94624 
L 176.606074 96.30744 
L 185.803232 98.08248 
L 195.276155 97.2672 
L 204.724145 96.61704 
L 213.908136 97.23624 
L 223.329143 98.08248 
L 232.624627 99.18672 
L 241.956807 99.03192 
L 251.147597 99.1248 
L 260.66326 98.74296 
L 270.126469 99.09384 
L 279.36 100.0536 
" clip-path="url(#pd138586fca)" style="fill: none; stroke: #f5841e; stroke-width: 0.6"/>
   </g>
  </g>
 </g>
 <defs>
  <clipPath id="pd138586fca">
   <rect x="8.64" y="4.8" width="270.72" height="103.2"/>
  </clipPath>
 </defs>
</svg>
