<?xml version="1.0" encoding="utf-8" standalone="no"?>
<!DOCTYPE svg PUBLIC "-//W3C//DTD SVG 1.1//EN"
  "http://www.w3.org/Graphics/SVG/1.1/DTD/svg11.dtd">
<svg xmlns:xlink="http://www.w3.org/1999/xlink" width="288pt" height="120pt" viewBox="0 0 288 120" xmlns="http://www.w3.org/2000/svg" version="1.1">
<desc id="nav-meta">{"window":"1y","count":4,"labels":["09.05","08.09","07.01","09.05"],"tick_utc":["2025-05-09T12:00:00Z","2025-09-08T12:00:00Z","2026-01-07T12:00:00Z","2026-05-09T04:06:35Z"],"w":720,"h":300}</desc>

 <metadata>
  <rdf:RDF xmlns:dc="http://purl.org/dc/elements/1.1/" xmlns:cc="http://creativecommons.org/ns#" xmlns:rdf="http://www.w3.org/1999/02/22-rdf-syntax-ns#">
   <cc:Work>
    <dc:type rdf:resource="http://purl.org/dc/dcmitype/StillImage"/>
    <dc:date>2026-05-09T04:06:37.132516</dc:date>
    <dc:format>image/svg+xml</dc:format>
    <dc:creator>
     <cc:Agent>
      <dc:title>Matplotlib v3.10.9, https://matplotlib.org/</dc:title>
     </cc:Agent>
    </dc:creator>
   </cc:Work>
  </rdf:RDF>
 </metadata>
 <defs>
  <style type="text/css">*{stroke-linejoin: round; stroke-linecap: butt}</style>
 </defs>
 <g id="figure_1">
  <g id="patch_1">
   <path d="M 0 120 
L 288 120 
L 288 0 
L 0 0 
L 0 120 
z
" style="fill: none; opacity: 0"/>
  </g>
  <g id="axes_1">
   <g id="patch_2">
    <path d="M 8.64 108 
L 279.36 108 
L 279.36 4.8 
L 8.64 4.8 
L 8.64 108 
z
" style="fill: none"/>
   </g>
   <g id="matplotlib.axis_1"/>
   <g id="matplotlib.axis_2"/>
   <g id="line2d_1">
    <path d="M 8.64 87.36 
L 279.36 87.36 
" clip-path="url(#p69aa8121f2)" style="fill: none; stroke: #b2b2b2; stroke-opacity: 0.35; stroke-width: 0.5; stroke-linecap: square"/>
   </g>
   <g id="line2d_2">
    <path d="M 8.64 66.72 
L 279.36 66.72 
" clip-path="url(#p69aa8121f2)" style="fill: none; stroke: #b2b2b2; stroke-opacity: 0.35; stroke-width: 0.5; stroke-linecap: square"/>
   </g>
   <g id="line2d_3">
    <path d="M 8.64 46.08 
L 279.36 46.08 
" clip-path="url(#p69aa8121f2)" style="fill: none; stroke: #b2b2b2; stroke-opacity: 0.35; stroke-width: 0.5; stroke-linecap: square"/>
   </g>
   <g id="line2d_4">
    <path d="M 8.64 25.44 
L 279.36 25.44 
" clip-path="url(#p69aa8121f2)" style="fill: none; stroke: #b2b2b2; stroke-opacity: 0.35; stroke-width: 0.5; stroke-linecap: square"/>
   </g>
   <g id="line2d_5">
    <path d="M 8.64 81.84912 
L 9.382367 79.32072 
L 10.124735 78.05136 
L 10.867102 79.26912 
L 11.609469 78.846 
L 12.351836 76.2144 
L 13.836571 80.394 
L 14.578938 80.66232 
L 15.321306 81.168 
L 16.063673 79.63032 
L 16.80604 80.95128 
L 17.548408 80.4972 
L 19.033142 77.43216 
L 19.775509 78.846 
L 20.517877 78.41256 
L 21.260244 78.64992 
L 22.002611 78.76344 
L 22.744979 78.25776 
L 23.487346 79.47552 
L 24.229713 80.92032 
L 24.97208 83.73768 
L 25.714448 83.6448 
L 26.456815 83.4384 
L 27.199182 83.61384 
L 27.94155 83.99568 
L 28.683917 84.55296 
L 29.426284 87.00912 
L 30.168651 85.98744 
L 30.911019 85.5024 
L 31.653386 84.8316 
L 32.395753 82.46832 
L 33.138121 81.426 
L 33.880488 82.5096 
L 34.622855 84.79032 
L 36.10759 86.95752 
L 36.849957 84.79032 
L 37.592324 85.13088 
L 38.334692 86.07 
L 39.077059 86.5344 
L 39.819426 86.31768 
L 41.304161 89.97096 
L 42.046528 90.48696 
L 42.788895 86.9472 
L 43.531263 86.66856 
L 44.27363 87.32904 
L 45.015997 88.53648 
L 45.758365 87.6696 
L 46.500732 85.30632 
L 47.243099 84.61488 
L 47.985467 84.17112 
L 48.727834 86.3796 
L 49.470201 84.92448 
L 50.212568 84.89352 
L 50.954936 86.13192 
L 51.697303 86.1732 
L 52.43967 84.99672 
L 53.182038 85.85328 
L 53.924405 85.01736 
L 54.666772 83.55192 
L 55.409139 81.7356 
L 56.151507 82.03488 
L 56.893874 82.65408 
L 58.378609 82.15872 
L 59.120976 81.70464 
L 59.863343 79.01112 
L 60.60571 78.39192 
L 61.348078 78.04104 
L 62.090445 78.16488 
L 62.832812 77.05032 
L 63.57518 72.82944 
L 64.317547 70.41456 
L 65.059914 74.69736 
L 65.802282 76.6272 
L 66.544649 75.63648 
L 67.287016 75.97704 
L 68.029383 74.976 
L 68.771751 76.49304 
L 69.514118 76.99872 
L 70.256485 77.90688 
L 70.998853 79.4652 
L 71.74122 82.02456 
L 72.483587 83.19072 
L 73.225954 82.27224 
L 73.968322 80.21856 
L 74.710689 81.67368 
L 75.453056 80.5488 
L 76.195424 78.588 
L 76.937791 78.19584 
L 77.680158 77.21544 
L 78.422526 76.524 
L 79.164893 78.68088 
L 79.90726 73.88208 
L 80.649627 71.364 
L 81.391995 73.8408 
L 82.134362 75.79128 
L 82.876729 74.65608 
L 83.619097 74.14008 
L 84.361464 76.50336 
L 85.103831 78.30936 
L 85.846198 75.3372 
L 86.588566 77.25672 
L 87.330933 71.78712 
L 88.0733 70.75512 
L 88.815668 70.24944 
L 89.558035 75.35784 
L 90.300402 72.95328 
L 91.042769 70.96152 
L 91.785137 67.87584 
L 92.527504 70.46616 
L 93.269871 71.11632 
L 94.012239 71.61168 
L 94.754606 72.7056 
L 95.496973 69.33096 
L 96.239341 68.9388 
L 96.981708 71.12664 
L 97.724075 70.90992 
L 98.466442 71.80776 
L 99.20881 70.074 
L 99.951177 68.01 
L 100.693544 67.10184 
L 101.435912 65.29584 
L 102.178279 64.01616 
L 102.920646 60.31128 
L 103.663013 60.19776 
L 104.405381 60.786 
L 105.147748 62.61264 
L 105.890115 61.74576 
L 106.632483 59.57856 
L 107.37485 58.86648 
L 108.117217 61.38456 
L 108.859585 61.07496 
L 109.601952 61.83864 
L 110.344319 66.29688 
L 111.086686 67.97904 
L 111.829054 68.69112 
L 112.571421 73.9956 
L 113.313788 70.45584 
L 114.056156 70.87896 
L 114.798523 68.91816 
L 115.54089 68.3196 
L 116.283257 69.47544 
L 117.767992 62.39592 
L 118.510359 62.81904 
L 119.252727 64.22256 
L 119.995094 64.05744 
L 120.737461 62.9532 
L 121.479828 66.14208 
L 122.222196 63.91296 
L 122.964563 66.17304 
L 123.70693 74.6148 
L 124.449298 77.78304 
L 125.191665 72.66432 
L 125.934032 69.69216 
L 126.6764 71.09568 
L 128.161134 76.06992 
L 128.903501 76.76136 
L 129.645869 75.25464 
L 130.388236 75.24432 
L 131.130603 74.63544 
L 131.872971 75.73968 
L 132.615338 77.31864 
L 133.357705 74.202 
L 134.100072 73.64472 
L 134.84244 73.48992 
L 135.584807 71.83872 
L 136.327174 72.17928 
L 137.069542 73.38672 
L 137.811909 73.43832 
L 138.554276 76.15248 
L 139.296644 75.3372 
L 140.039011 75.58488 
L 140.781378 75.35784 
L 141.523745 81.168 
L 142.266113 84.01632 
L 143.00848 82.06584 
L 143.750847 84.19176 
L 144.493215 82.27224 
L 145.235582 83.29392 
L 145.977949 81.62208 
L 146.720316 80.72424 
L 147.462684 84.33624 
L 148.205051 84.64584 
L 148.947418 86.844 
L 149.689786 88.52616 
L 150.432153 88.36104 
L 151.17452 88.93896 
L 151.916887 90.79656 
L 152.659255 88.09272 
L 153.401622 89.22792 
L 154.143989 90.00192 
L 154.886357 91.39512 
L 155.628724 91.63248 
L 156.371091 90.75528 
L 157.113459 88.7016 
L 157.855826 88.52616 
L 158.598193 87.45288 
L 159.34056 88.0308 
L 160.082928 88.94928 
L 161.567662 89.7336 
L 162.31003 91.86984 
L 163.052397 88.60872 
L 163.794764 86.87496 
L 165.279499 90.11544 
L 166.764233 90.53856 
L 167.506601 90.08448 
L 168.248968 88.79448 
L 168.991335 89.20728 
L 169.733703 89.22792 
L 170.47607 90.31152 
L 171.218437 90.10512 
L 171.960804 91.09584 
L 172.703172 91.61184 
L 173.445539 91.31256 
L 174.187906 92.87088 
L 174.930274 93.8616 
L 175.672641 92.02464 
L 176.415008 92.13816 
L 177.157375 92.07624 
L 177.899743 92.14848 
L 180.126845 93.69648 
L 181.611579 92.44776 
L 182.353946 92.30328 
L 183.096314 92.87088 
L 183.838681 92.38584 
L 184.581048 92.47872 
L 185.323416 91.88016 
L 186.065783 90.42504 
L 186.80815 90.08448 
L 187.550518 89.92968 
L 188.292885 88.76352 
L 189.035252 87.94824 
L 189.777619 89.2692 
L 190.519987 88.72224 
L 191.262354 89.39304 
L 192.004721 89.40336 
L 192.747089 88.41264 
L 193.489456 88.4952 
L 194.231823 86.86464 
L 194.97419 86.42088 
L 195.716558 87.62832 
L 196.458925 86.93688 
L 197.201292 87.23616 
L 198.686027 90.0432 
L 199.428394 92.12784 
L 200.170762 91.16808 
L 201.655496 91.73568 
L 202.397863 91.78728 
L 203.140231 94.0164 
L 203.882598 92.5716 
L 204.624965 91.76664 
L 205.367333 92.33424 
L 206.1097 94.36728 
L 206.852067 94.46016 
L 207.594434 97.71096 
L 208.336802 98.48496 
L 209.079169 97.85544 
L 210.295844 100.16712 
L 211.037833 102.23112 
L 211.777021 100.54896 
L 212.536358 100.70376 
L 213.272599 100.68312 
L 214.760032 101.28168 
L 215.499727 101.71512 
L 216.241871 101.84928 
L 216.975311 101.034 
L 217.678506 100.54896 
L 218.468491 101.04432 
L 219.117607 100.81728 
L 219.952049 101.034 
L 220.693514 101.4984 
L 222.920221 101.06496 
L 223.664822 102.09696 
L 224.344475 102.05568 
L 225.146884 101.4984 
L 225.885944 100.60056 
L 226.626902 100.80696 
L 227.360522 101.45712 
L 228.119756 100.55928 
L 228.854459 101.10624 
L 230.336762 100.74504 
L 231.080727 100.21872 
L 231.822742 100.53864 
L 232.559413 101.07528 
L 233.308989 101.38488 
L 234.053582 101.26104 
L 234.791181 100.78632 
L 236.278544 100.99272 
L 237.019477 100.38384 
L 238.517426 100.60056 
L 239.26189 99.76464 
L 239.991266 99.49632 
L 240.739295 99.40344 
L 241.481869 100.09488 
L 242.21701 100.3632 
L 242.95503 100.19808 
L 244.45261 100.79664 
L 245.188103 100.26 
L 245.985761 99.83688 
L 246.681868 100.13616 
L 248.160442 101.38488 
L 251.143831 101.28168 
L 251.87642 101.8596 
L 252.619638 101.88024 
L 253.355647 101.72544 
L 254.109193 101.68416 
L 254.853476 101.47776 
L 255.591023 101.78736 
L 256.334593 101.09592 
L 257.074374 101.46744 
L 257.823573 101.3436 
L 258.55459 101.05464 
L 259.310275 101.3952 
L 260.056448 101.47776 
L 260.79409 100.86888 
L 261.53589 101.26104 
L 263.756505 100.44576 
L 264.508676 100.94112 
L 265.252882 101.09592 
L 265.991993 101.00304 
L 266.732057 100.69344 
L 267.477432 100.9308 
L 269.709191 100.8792 
L 270.459557 100.64184 
L 271.20348 101.1888 
L 271.943819 101.09592 
L 272.687433 101.37456 
L 273.437911 101.21976 
L 274.91877 101.23008 
L 275.66088 100.92048 
L 276.386896 101.06496 
L 277.142341 100.70376 
L 277.884906 100.55928 
L 278.614918 100.53864 
L 279.36 99.60984 
L 279.36 99.60984 
" clip-path="url(#p69aa8121f2)" style="fill: none; stroke: #bebebe; stroke-width: 0.5; stroke-linecap: round"/>
   </g>
   <g id="line2d_6">
    <path d="M 8.64 86.97816 
L 9.382367 84.84192 
L 10.124735 81.24024 
L 10.867102 82.37544 
L 11.609469 82.60248 
L 12.351836 79.86768 
L 13.836571 81.85944 
L 14.578938 81.82848 
L 15.321306 82.86048 
L 16.063673 83.00496 
L 16.80604 82.08648 
L 17.548408 82.12776 
L 18.290775 81.61176 
L 19.033142 80.15664 
L 19.775509 82.18968 
L 21.260244 81.79752 
L 22.002611 81.56016 
L 22.744979 80.0844 
L 23.487346 79.86768 
L 24.229713 80.50752 
L 24.97208 82.12776 
L 26.456815 81.92136 
L 27.199182 80.8584 
L 27.94155 81.07512 
L 28.683917 80.84808 
L 29.426284 83.6448 
L 30.168651 82.7676 
L 30.911019 82.0968 
L 31.653386 82.3548 
L 32.395753 79.74384 
L 33.138121 77.90688 
L 33.880488 78.39192 
L 34.622855 80.21856 
L 35.365223 81.34344 
L 36.10759 81.98328 
L 37.592324 81.5808 
L 38.334692 82.26192 
L 39.819426 82.15872 
L 40.561794 83.88216 
L 41.304161 85.89456 
L 42.046528 86.5344 
L 42.788895 83.61384 
L 43.531263 83.2836 
L 44.27363 83.71704 
L 45.015997 83.748 
L 46.500732 83.41776 
L 47.243099 82.44768 
L 47.985467 82.6644 
L 48.727834 83.89248 
L 49.470201 81.38472 
L 50.212568 81.14736 
L 50.954936 82.34448 
L 51.697303 82.23096 
L 52.43967 81.426 
L 53.182038 81.8388 
L 53.924405 80.76552 
L 55.409139 75.83256 
L 56.151507 75.67776 
L 56.893874 75.91512 
L 58.378609 74.88312 
L 59.120976 73.09776 
L 59.863343 69.6096 
L 60.60571 67.91712 
L 61.348078 66.94704 
L 62.090445 66.24528 
L 62.832812 63.80976 
L 63.57518 63.70656 
L 64.317547 63.9852 
L 65.059914 65.71896 
L 65.802282 64.5528 
L 67.287016 64.05744 
L 68.029383 62.25144 
L 68.771751 63.39696 
L 69.514118 63.366 
L 70.256485 63.08736 
L 70.998853 64.72824 
L 71.74122 67.89648 
L 72.483587 69.16584 
L 73.225954 67.69008 
L 73.968322 64.4496 
L 74.710689 65.97696 
L 75.453056 64.914 
L 76.195424 61.54968 
L 76.937791 60.04296 
L 77.680158 56.28648 
L 78.422526 56.47224 
L 79.164893 56.83344 
L 79.90726 51.22968 
L 80.649627 48.89736 
L 81.391995 52.00368 
L 82.134362 53.84064 
L 82.876729 53.90256 
L 83.619097 53.00472 
L 84.361464 55.5228 
L 85.103831 59.12448 
L 85.846198 55.32672 
L 86.588566 56.90568 
L 87.330933 47.92728 
L 88.0733 48.75288 
L 88.815668 48.68064 
L 89.558035 54.57336 
L 90.300402 51.2916 
L 91.042769 52.80864 
L 91.785137 52.69512 
L 92.527504 54.82104 
L 94.012239 54.45984 
L 94.754606 55.7292 
L 95.496973 55.39896 
L 96.239341 53.55168 
L 96.981708 55.81176 
L 97.724075 55.6776 
L 98.466442 56.18328 
L 99.20881 55.71888 
L 100.693544 55.63632 
L 101.435912 55.07904 
L 102.178279 53.41752 
L 102.920646 49.71264 
L 103.663013 50.32152 
L 104.405381 51.17808 
L 105.147748 52.44744 
L 105.890115 52.74672 
L 106.632483 51.4464 
L 107.37485 51.46704 
L 108.117217 53.2524 
L 108.859585 53.08728 
L 109.601952 53.5104 
L 110.344319 57.26688 
L 111.086686 57.76224 
L 111.829054 58.02024 
L 112.571421 62.26176 
L 113.313788 59.68176 
L 114.056156 59.9604 
L 114.798523 58.12344 
L 115.54089 57.02952 
L 116.283257 58.09248 
L 117.025625 55.13064 
L 117.767992 53.046 
L 118.510359 52.5816 
L 119.252727 52.9944 
L 119.995094 52.5816 
L 120.737461 50.0016 
L 121.479828 53.48976 
L 122.222196 52.40616 
L 122.964563 54.75912 
L 123.70693 62.67456 
L 124.449298 63.95424 
L 125.191665 57.86544 
L 125.934032 56.57544 
L 126.6764 58.31952 
L 127.418767 60.4764 
L 128.161134 61.85928 
L 128.903501 62.73648 
L 129.645869 61.8696 
L 130.388236 60.45576 
L 131.130603 60.54864 
L 131.872971 62.04504 
L 132.615338 63.16992 
L 133.357705 62.36496 
L 134.100072 61.21944 
L 134.84244 60.9408 
L 135.584807 57.83448 
L 136.327174 58.40208 
L 137.069542 60.49704 
L 138.554276 63.1596 
L 139.296644 62.49912 
L 140.039011 62.1276 
L 140.781378 61.56 
L 142.266113 70.66224 
L 143.00848 68.72208 
L 143.750847 70.4868 
L 144.493215 68.61888 
L 145.235582 69.11424 
L 145.977949 66.5136 
L 146.720316 66.68904 
L 147.462684 68.8872 
L 148.205051 68.9904 
L 148.947418 71.5704 
L 149.689786 73.48992 
L 150.432153 72.54048 
L 151.916887 74.74896 
L 152.659255 73.3248 
L 153.401622 74.80056 
L 154.143989 77.556 
L 154.886357 78.55704 
L 155.628724 78.50544 
L 156.371091 78.04104 
L 157.113459 75.76032 
L 157.855826 75.73968 
L 158.598193 74.65608 
L 159.34056 74.83152 
L 160.082928 74.57352 
L 160.825295 75.20304 
L 161.567662 75.17208 
L 162.31003 78.05136 
L 163.794764 72.16896 
L 164.537131 73.08744 
L 165.279499 74.72832 
L 166.764233 74.28456 
L 167.506601 73.21128 
L 168.248968 70.2804 
L 168.991335 70.2288 
L 169.733703 71.56008 
L 170.47607 73.79952 
L 171.218437 73.35576 
L 171.960804 74.0988 
L 172.703172 75.5952 
L 173.445539 75.5952 
L 174.187906 77.61792 
L 174.930274 77.63856 
L 175.672641 75.40944 
L 176.415008 75.40944 
L 177.157375 75.04824 
L 177.899743 74.98632 
L 178.64211 75.58488 
L 179.384477 75.87384 
L 180.126845 76.49304 
L 181.611579 75.82224 
L 182.353946 75.84288 
L 183.096314 76.03896 
L 183.838681 75.51264 
L 184.581048 75.56424 
L 185.323416 75.05856 
L 186.065783 73.26288 
L 186.80815 73.20096 
L 187.550518 73.00488 
L 188.292885 71.68392 
L 189.035252 70.6932 
L 189.777619 72.62304 
L 190.519987 73.52088 
L 191.262354 73.83048 
L 192.004721 73.8408 
L 192.747089 73.29384 
L 193.489456 73.72728 
L 194.231823 70.32168 
L 194.97419 69.77472 
L 195.716558 70.34232 
L 196.458925 70.67256 
L 197.201292 70.51776 
L 197.94366 70.848 
L 198.686027 72.31344 
L 199.428394 76.01832 
L 200.170762 75.41976 
L 200.913129 75.83256 
L 202.397863 75.82224 
L 203.140231 77.82432 
L 203.882598 76.14216 
L 204.624965 74.75928 
L 205.367333 74.96568 
L 206.1097 77.75208 
L 206.852067 79.48584 
L 207.594434 83.31456 
L 208.336802 85.90488 
L 209.079169 84.79032 
L 209.705894 85.84296 
L 211.037833 91.41576 
L 211.777021 88.7532 
L 213.272599 88.55712 
L 214.019202 88.96992 
L 215.499727 90.456 
L 216.241871 90.56952 
L 216.975311 89.15568 
L 217.678506 88.9596 
L 218.468491 90.6624 
L 219.117607 89.94 
L 219.952049 90.00192 
L 221.431542 90.62112 
L 222.920221 90.3528 
L 223.664822 92.004 
L 224.344475 92.13816 
L 225.146884 91.25064 
L 225.885944 89.166 
L 226.626902 89.56848 
L 227.360522 90.93072 
L 228.119756 89.41368 
L 228.854459 90.37344 
L 229.598553 89.79552 
L 230.336762 90.23928 
L 231.080727 88.0824 
L 231.822742 88.7532 
L 232.559413 90.16704 
L 233.308989 90.67272 
L 234.053582 90.18768 
L 234.791181 89.2692 
L 235.533256 89.54784 
L 236.278544 89.49624 
L 237.019477 88.31976 
L 237.760856 88.45392 
L 238.517426 88.46424 
L 239.26189 86.38992 
L 239.991266 84.80064 
L 240.739295 84.8316 
L 241.481869 86.586 
L 242.21701 87.74184 
L 242.95503 87.618 
L 243.708498 88.19592 
L 244.45261 89.08344 
L 245.188103 87.89664 
L 245.985761 87.3084 
L 246.681868 87.65928 
L 248.160442 90.07416 
L 249.657412 89.3724 
L 250.395097 89.00088 
L 251.143831 88.42296 
L 252.619638 89.10408 
L 253.355647 89.14536 
L 254.109193 89.07312 
L 254.853476 87.9792 
L 255.591023 88.29912 
L 256.334593 86.38992 
L 257.074374 87.24648 
L 257.823573 87.1536 
L 258.55459 86.21448 
L 260.056448 87.01944 
L 260.79409 84.44976 
L 261.53589 85.05864 
L 262.281471 84.58392 
L 263.022326 85.04832 
L 263.756505 83.71704 
L 264.508676 84.86256 
L 265.252882 85.6572 
L 265.991993 85.27536 
L 266.732057 84.49104 
L 268.221767 85.32696 
L 268.955276 85.17216 
L 269.709191 85.31664 
L 270.459557 84.11952 
L 271.20348 85.66752 
L 271.943819 85.26504 
L 272.687433 86.26608 
L 274.161332 85.38888 
L 274.91877 85.3992 
L 275.66088 84.09888 
L 277.142341 84.34656 
L 278.614918 85.7604 
L 279.36 85.0896 
L 279.36 85.0896 
" clip-path="url(#p69aa8121f2)" style="fill: none; stroke: #4a8dff; stroke-width: 0.6"/>
   </g>
   <g id="line2d_7">
    <path d="M 8.64 69.90888 
L 9.382367 70.03272 
L 10.124735 68.29896 
L 10.867102 68.95944 
L 11.609469 70.11528 
L 12.351836 68.76336 
L 13.094204 69.37224 
L 13.836571 69.25872 
L 14.578938 69.41352 
L 15.321306 69.77472 
L 16.063673 66.85416 
L 16.80604 67.26696 
L 17.548408 66.06984 
L 18.290775 63.08736 
L 19.033142 61.12656 
L 19.775509 65.62608 
L 20.517877 64.98624 
L 21.260244 63.91296 
L 22.002611 63.38664 
L 22.744979 63.70656 
L 23.487346 64.97592 
L 24.229713 67.14312 
L 24.97208 68.9388 
L 25.714448 68.23704 
L 26.456815 67.1844 
L 27.199182 66.99864 
L 27.94155 67.47336 
L 28.683917 68.1132 
L 29.426284 71.38464 
L 30.168651 68.526 
L 30.911019 67.21536 
L 31.653386 67.20504 
L 32.395753 62.46816 
L 33.138121 62.51976 
L 33.880488 64.10904 
L 34.622855 66.90576 
L 35.365223 66.83352 
L 36.10759 67.42176 
L 36.849957 67.3392 
L 37.592324 65.8944 
L 38.334692 68.24736 
L 39.819426 68.23704 
L 40.561794 69.69216 
L 41.304161 71.50848 
L 42.046528 72.21024 
L 42.788895 67.3908 
L 43.531263 66.90576 
L 44.27363 65.59512 
L 45.015997 65.86344 
L 45.758365 65.76024 
L 46.500732 65.50224 
L 47.243099 64.398 
L 47.985467 65.70864 
L 48.727834 67.2876 
L 49.470201 63.95424 
L 50.212568 63.14928 
L 50.954936 64.76952 
L 51.697303 64.58376 
L 52.43967 63.55176 
L 53.182038 64.5012 
L 53.924405 63.82008 
L 54.666772 61.36392 
L 55.409139 56.64768 
L 56.151507 54.89328 
L 56.893874 55.04808 
L 57.636241 53.29368 
L 58.378609 52.55064 
L 59.120976 54.77976 
L 59.863343 53.67552 
L 60.60571 52.95312 
L 61.348078 54.45984 
L 62.090445 54.55272 
L 62.832812 55.22352 
L 63.57518 54.98616 
L 64.317547 52.4268 
L 65.059914 53.79936 
L 65.802282 54.08832 
L 66.544649 54.92424 
L 67.287016 54.4908 
L 68.029383 52.98408 
L 68.771751 54.44952 
L 69.514118 54.60432 
L 70.256485 54.62496 
L 71.74122 59.38248 
L 72.483587 60.09456 
L 73.225954 58.39176 
L 73.968322 57.41136 
L 74.710689 58.464 
L 75.453056 57.5352 
L 76.195424 55.0068 
L 76.937791 55.81176 
L 77.680158 55.99752 
L 78.422526 53.13888 
L 79.164893 53.64456 
L 79.90726 52.1688 
L 80.649627 48.69096 
L 81.391995 54.0264 
L 82.134362 55.13064 
L 82.876729 54.96552 
L 83.619097 54.92424 
L 84.361464 56.25552 
L 85.103831 59.8572 
L 85.846198 58.32984 
L 86.588566 60.23904 
L 87.330933 55.65696 
L 88.0733 57.18432 
L 88.815668 59.21736 
L 89.558035 62.55072 
L 90.300402 60.82728 
L 91.042769 61.47744 
L 91.785137 60.12552 
L 92.527504 64.31544 
L 93.269871 63.99552 
L 94.012239 64.5528 
L 94.754606 63.60336 
L 95.496973 61.5084 
L 96.239341 60.96144 
L 96.981708 61.98312 
L 97.724075 62.05536 
L 98.466442 62.51976 
L 99.951177 60.64152 
L 100.693544 61.13688 
L 101.435912 58.6188 
L 102.178279 57.03984 
L 102.920646 56.35872 
L 103.663013 56.5548 
L 104.405381 57.174 
L 105.147748 57.14304 
L 105.890115 55.7292 
L 106.632483 56.04912 
L 107.37485 55.33704 
L 108.117217 56.87472 
L 108.859585 56.8128 
L 109.601952 57.24624 
L 110.344319 59.93976 
L 111.086686 60.64152 
L 111.829054 59.29992 
L 112.571421 63.80976 
L 113.313788 63.03576 
L 114.056156 63.09768 
L 115.54089 58.27824 
L 116.283257 58.5672 
L 117.025625 53.93352 
L 117.767992 51.74568 
L 118.510359 50.04288 
L 119.252727 49.90872 
L 120.737461 47.43192 
L 121.479828 50.80656 
L 122.222196 48.90768 
L 122.964563 50.6208 
L 123.70693 59.42376 
L 124.449298 61.85928 
L 125.191665 57.35976 
L 125.934032 57.3288 
L 126.6764 59.46504 
L 128.161134 64.72824 
L 128.903501 66.42072 
L 129.645869 65.688 
L 130.388236 64.17096 
L 131.130603 62.10696 
L 131.872971 64.30512 
L 132.615338 65.20296 
L 133.357705 62.68488 
L 134.100072 61.70448 
L 134.84244 61.06464 
L 135.584807 58.1028 
L 136.327174 58.40208 
L 137.069542 59.68176 
L 137.811909 62.6952 
L 138.554276 64.56312 
L 139.296644 63.18024 
L 140.039011 62.72616 
L 140.781378 62.06568 
L 141.523745 66.33816 
L 142.266113 71.40528 
L 143.00848 69.08328 
L 143.750847 71.7252 
L 144.493215 69.57864 
L 145.235582 70.72416 
L 145.977949 68.2164 
L 146.720316 66.978 
L 147.462684 70.03272 
L 148.205051 71.5188 
L 148.947418 73.3764 
L 149.689786 78.846 
L 150.432153 77.75208 
L 151.17452 78.88728 
L 151.916887 81.34344 
L 152.659255 80.53848 
L 153.401622 82.0452 
L 154.143989 86.92656 
L 154.886357 88.58808 
L 155.628724 88.96992 
L 156.371091 86.7924 
L 157.113459 85.296 
L 157.855826 86.24544 
L 158.598193 82.96368 
L 159.34056 82.13808 
L 160.082928 82.47864 
L 160.825295 82.58184 
L 161.567662 83.03592 
L 162.31003 87.3084 
L 163.052397 82.06584 
L 163.794764 79.71288 
L 164.537131 81.24024 
L 165.279499 84.17112 
L 166.021866 84.24336 
L 166.764233 83.29392 
L 167.506601 82.8192 
L 168.248968 80.64168 
L 168.991335 81.38472 
L 169.733703 80.87904 
L 170.47607 83.13912 
L 171.218437 83.19072 
L 172.703172 87.17424 
L 173.445539 85.71912 
L 174.187906 87.53544 
L 174.930274 88.17528 
L 175.672641 85.41984 
L 177.157375 84.9348 
L 177.899743 85.01736 
L 178.64211 86.14224 
L 179.384477 85.90488 
L 180.126845 86.328 
L 180.869212 86.24544 
L 181.611579 85.72944 
L 182.353946 85.7088 
L 183.096314 86.40024 
L 183.838681 85.09992 
L 184.581048 86.02872 
L 186.065783 83.53128 
L 187.550518 82.03488 
L 188.292885 79.39296 
L 189.035252 79.66128 
L 189.777619 82.15872 
L 190.519987 82.43736 
L 191.262354 82.93272 
L 192.004721 83.00496 
L 193.489456 82.28256 
L 194.231823 78.01008 
L 194.97419 76.19376 
L 195.716558 77.66952 
L 196.458925 77.74176 
L 197.201292 78.1752 
L 198.686027 80.8068 
L 199.428394 85.20312 
L 200.170762 84.12984 
L 200.913129 84.03696 
L 201.655496 84.06792 
L 202.397863 84.3156 
L 203.140231 87.02976 
L 203.882598 85.21344 
L 204.624965 84.28464 
L 205.367333 84.32592 
L 206.1097 89.08344 
L 206.852067 89.5272 
L 207.594434 95.14128 
L 208.336802 96.98856 
L 209.079169 95.08968 
L 210.295844 99.80592 
L 211.037833 101.79768 
L 211.777021 100.03296 
L 212.536358 100.518 
L 213.272599 99.98136 
L 214.019202 100.49736 
L 216.241871 101.26104 
L 216.975311 100.63152 
L 217.678506 100.38384 
L 218.468491 100.84824 
L 219.117607 100.65216 
L 219.952049 101.034 
L 220.693514 101.19912 
L 222.920221 100.91016 
L 223.664822 101.7564 
L 224.344475 101.84928 
L 225.146884 101.56032 
L 225.885944 100.85856 
L 227.360522 101.4468 
L 228.119756 101.02368 
L 228.854459 101.30232 
L 229.598553 100.81728 
L 230.336762 100.79664 
L 231.080727 99.3312 
L 231.822742 99.92976 
L 232.559413 100.78632 
L 233.308989 101.17848 
L 234.053582 101.1372 
L 234.791181 100.21872 
L 236.278544 100.4664 
L 237.019477 99.88848 
L 237.760856 99.94008 
L 238.517426 99.81624 
L 239.26189 98.93904 
L 239.991266 98.3508 
L 240.739295 98.52624 
L 241.481869 99.78528 
L 242.21701 100.12584 
L 242.95503 100.03296 
L 244.45261 100.83792 
L 245.188103 100.11552 
L 245.985761 99.87816 
L 246.681868 100.002 
L 248.160442 101.41584 
L 248.912922 101.21976 
L 250.395097 101.00304 
L 251.143831 100.86888 
L 251.87642 101.21976 
L 252.619638 101.28168 
L 254.109193 101.14752 
L 254.853476 100.55928 
L 255.591023 100.65216 
L 256.334593 99.80592 
L 257.074374 99.96072 
L 257.823573 99.6408 
L 258.55459 99.1764 
L 259.310275 99.70272 
L 260.056448 99.94008 
L 260.79409 98.57784 
L 261.53589 98.65008 
L 262.281471 98.38176 
L 263.022326 98.48496 
L 263.756505 96.70992 
L 264.508676 98.05152 
L 265.252882 98.48496 
L 265.991993 97.96896 
L 266.732057 96.32808 
L 268.221767 96.16296 
L 268.955276 96.1836 
L 269.709191 96.50352 
L 270.459557 94.76976 
L 271.20348 97.19496 
L 271.943819 96.9576 
L 272.687433 97.9896 
L 273.437911 96.89568 
L 274.161332 95.45088 
L 274.91877 95.67792 
L 275.66088 93.43848 
L 277.142341 92.25168 
L 277.884906 92.87088 
L 278.614918 94.2744 
L 279.36 93.1392 
L 279.36 93.1392 
" clip-path="url(#p69aa8121f2)" style="fill: none; stroke: #f5841e; stroke-width: 0.6"/>
   </g>
  </g>
 </g>
 <defs>
  <clipPath id="p69aa8121f2">
   <rect x="8.64" y="4.8" width="270.72" height="103.2"/>
  </clipPath>
 </defs>
</svg>
