<?xml version="1.0" encoding="utf-8" standalone="no"?>
<!DOCTYPE svg PUBLIC "-//W3C//DTD SVG 1.1//EN"
  "http://www.w3.org/Graphics/SVG/1.1/DTD/svg11.dtd">
<svg xmlns:xlink="http://www.w3.org/1999/xlink" width="288pt" height="120pt" viewBox="0 0 288 120" xmlns="http://www.w3.org/2000/svg" version="1.1">
<desc id="nav-meta">{"window":"3m","count":4,"labels":["30.11","30.12","29.01","28.02"],"tick_utc":["2025-11-30T12:00:00Z","2025-12-30T12:00:00Z","2026-01-29T12:00:00Z","2026-02-28T03:01:05Z"],"w":720,"h":300}</desc>

 <metadata>
  <rdf:RDF xmlns:dc="http://purl.org/dc/elements/1.1/" xmlns:cc="http://creativecommons.org/ns#" xmlns:rdf="http://www.w3.org/1999/02/22-rdf-syntax-ns#">
   <cc:Work>
    <dc:type rdf:resource="http://purl.org/dc/dcmitype/StillImage"/>
    <dc:date>2026-02-28T03:01:06.689569</dc:date>
    <dc:format>image/svg+xml</dc:format>
    <dc:creator>
     <cc:Agent>
      <dc:title>Matplotlib v3.10.8, https://matplotlib.org/</dc:title>
     </cc:Agent>
    </dc:creator>
   </cc:Work>
  </rdf:RDF>
 </metadata>
 <defs>
  <style type="text/css">*{stroke-linejoin: round; stroke-linecap: butt}</style>
 </defs>
 <g id="figure_1">
  <g id="patch_1">
   <path d="M 0 120 
L 288 120 
L 288 0 
L 0 0 
L 0 120 
z
" style="fill: none; opacity: 0"/>
  </g>
  <g id="axes_1">
   <g id="patch_2">
    <path d="M 8.64 108 
L 279.36 108 
L 279.36 4.8 
L 8.64 4.8 
L 8.64 108 
z
" style="fill: none"/>
   </g>
   <g id="matplotlib.axis_1"/>
   <g id="matplotlib.axis_2"/>
   <g id="line2d_1">
    <path d="M 8.64 87.36 
L 279.36 87.36 
" clip-path="url(#pa6486d3b00)" style="fill: none; stroke: #b2b2b2; stroke-opacity: 0.35; stroke-width: 0.5; stroke-linecap: square"/>
   </g>
   <g id="line2d_2">
    <path d="M 8.64 66.72 
L 279.36 66.72 
" clip-path="url(#pa6486d3b00)" style="fill: none; stroke: #b2b2b2; stroke-opacity: 0.35; stroke-width: 0.5; stroke-linecap: square"/>
   </g>
   <g id="line2d_3">
    <path d="M 8.64 46.08 
L 279.36 46.08 
" clip-path="url(#pa6486d3b00)" style="fill: none; stroke: #b2b2b2; stroke-opacity: 0.35; stroke-width: 0.5; stroke-linecap: square"/>
   </g>
   <g id="line2d_4">
    <path d="M 8.64 25.44 
L 279.36 25.44 
" clip-path="url(#pa6486d3b00)" style="fill: none; stroke: #b2b2b2; stroke-opacity: 0.35; stroke-width: 0.5; stroke-linecap: square"/>
   </g>
   <g id="line2d_5">
    <path d="M 8.64 89.3208 
L 11.66056 89.7336 
L 14.681121 91.86984 
L 17.701681 88.60872 
L 20.722242 86.87496 
L 23.742802 88.52616 
L 26.763363 90.11544 
L 29.783923 90.38376 
L 32.804483 90.53856 
L 35.825044 90.08448 
L 38.845604 88.79448 
L 41.866165 89.20728 
L 44.886725 89.22792 
L 47.907285 90.31152 
L 50.927846 90.10512 
L 53.948406 91.09584 
L 56.968967 91.61184 
L 59.989527 91.31256 
L 63.010088 92.87088 
L 66.030648 93.8616 
L 69.051208 92.02464 
L 72.071769 92.13816 
L 75.092329 92.07624 
L 78.11289 92.14848 
L 81.13345 92.64384 
L 84.15401 93.01536 
L 87.174571 93.69648 
L 90.195131 93.11856 
L 93.215692 92.44776 
L 96.236252 92.30328 
L 99.256813 92.87088 
L 102.277373 92.38584 
L 105.297933 92.47872 
L 108.318494 91.88016 
L 111.339054 90.42504 
L 114.359615 90.08448 
L 117.380175 89.92968 
L 120.400736 88.76352 
L 123.421296 87.94824 
L 126.441856 89.2692 
L 129.462417 88.72224 
L 132.482977 89.39304 
L 135.503538 89.40336 
L 138.524098 88.41264 
L 141.544658 88.4952 
L 144.565219 86.86464 
L 147.585779 86.42088 
L 150.60634 87.62832 
L 153.6269 86.93688 
L 156.647461 87.23616 
L 159.668021 88.63968 
L 162.688581 90.0432 
L 165.709142 92.12784 
L 168.729702 91.16808 
L 171.750263 91.46736 
L 174.770823 91.73568 
L 177.791383 91.78728 
L 180.811944 94.0164 
L 183.832504 92.5716 
L 186.853065 91.76664 
L 189.873625 92.33424 
L 192.894186 94.36728 
L 195.914746 94.46016 
L 198.935306 97.71096 
L 201.955867 98.48496 
L 204.976427 97.85544 
L 207.526458 99.10416 
L 209.92686 100.16712 
L 212.945882 102.23112 
L 215.953507 100.54896 
L 219.043114 100.70376 
L 222.038748 100.68312 
L 225.076544 100.95144 
L 228.090846 101.28168 
L 231.100534 101.71512 
L 234.120186 101.84928 
L 237.104422 101.034 
L 239.965599 100.54896 
L 243.179909 101.04432 
L 245.821047 100.81728 
L 249.21624 101.034 
L 252.23313 101.4984 
L 255.236036 101.33328 
L 258.238137 101.1372 
L 261.293203 101.06496 
L 264.322853 102.09696 
L 267.088239 102.05568 
L 270.353101 101.4984 
L 273.360202 100.60056 
L 276.375029 100.80696 
L 279.36 101.45712 
" clip-path="url(#pa6486d3b00)" style="fill: none; stroke: #bebebe; stroke-width: 0.5; stroke-linecap: round"/>
   </g>
   <g id="line2d_6">
    <path d="M 8.64 75.20304 
L 11.66056 75.17208 
L 14.681121 78.05136 
L 17.701681 75.1308 
L 20.722242 72.16896 
L 23.742802 73.08744 
L 26.763363 74.72832 
L 29.783923 74.48064 
L 32.804483 74.28456 
L 35.825044 73.21128 
L 38.845604 70.2804 
L 41.866165 70.2288 
L 44.886725 71.56008 
L 47.907285 73.79952 
L 50.927846 73.35576 
L 53.948406 74.0988 
L 56.968967 75.5952 
L 59.989527 75.5952 
L 63.010088 77.61792 
L 66.030648 77.63856 
L 69.051208 75.40944 
L 72.071769 75.40944 
L 75.092329 75.04824 
L 78.11289 74.98632 
L 81.13345 75.58488 
L 84.15401 75.87384 
L 87.174571 76.49304 
L 90.195131 76.15248 
L 93.215692 75.82224 
L 96.236252 75.84288 
L 99.256813 76.03896 
L 102.277373 75.51264 
L 105.297933 75.56424 
L 108.318494 75.05856 
L 111.339054 73.26288 
L 114.359615 73.20096 
L 117.380175 73.00488 
L 120.400736 71.68392 
L 123.421296 70.6932 
L 126.441856 72.62304 
L 129.462417 73.52088 
L 132.482977 73.83048 
L 135.503538 73.8408 
L 138.524098 73.29384 
L 141.544658 73.72728 
L 144.565219 70.32168 
L 147.585779 69.77472 
L 150.60634 70.34232 
L 153.6269 70.67256 
L 156.647461 70.51776 
L 159.668021 70.848 
L 162.688581 72.31344 
L 165.709142 76.01832 
L 168.729702 75.41976 
L 171.750263 75.83256 
L 174.770823 75.79128 
L 177.791383 75.82224 
L 180.811944 77.82432 
L 183.832504 76.14216 
L 186.853065 74.75928 
L 189.873625 74.96568 
L 192.894186 77.75208 
L 195.914746 79.48584 
L 198.935306 83.31456 
L 201.955867 85.90488 
L 204.976427 84.79032 
L 207.526458 85.84296 
L 209.92686 88.25784 
L 212.945882 91.41576 
L 215.953507 88.7532 
L 219.043114 88.65 
L 222.038748 88.55712 
L 225.076544 88.96992 
L 228.090846 89.7336 
L 231.100534 90.456 
L 234.120186 90.56952 
L 237.104422 89.15568 
L 239.965599 88.9596 
L 243.179909 90.6624 
L 245.821047 89.94 
L 249.21624 90.00192 
L 252.23313 90.3528 
L 255.236036 90.62112 
L 258.238137 90.5076 
L 261.293203 90.3528 
L 264.322853 92.004 
L 267.088239 92.13816 
L 270.353101 91.25064 
L 273.360202 89.166 
L 276.375029 89.56848 
L 279.36 90.93072 
" clip-path="url(#pa6486d3b00)" style="fill: none; stroke: #4a8dff; stroke-width: 0.6"/>
   </g>
   <g id="line2d_7">
    <path d="M 8.64 82.58184 
L 11.66056 83.03592 
L 14.681121 87.3084 
L 17.701681 82.06584 
L 20.722242 79.71288 
L 23.742802 81.24024 
L 26.763363 84.17112 
L 29.783923 84.24336 
L 32.804483 83.29392 
L 35.825044 82.8192 
L 38.845604 80.64168 
L 41.866165 81.38472 
L 44.886725 80.87904 
L 47.907285 83.13912 
L 50.927846 83.19072 
L 53.948406 85.296 
L 56.968967 87.17424 
L 59.989527 85.71912 
L 63.010088 87.53544 
L 66.030648 88.17528 
L 69.051208 85.41984 
L 72.071769 85.17216 
L 75.092329 84.9348 
L 78.11289 85.01736 
L 81.13345 86.14224 
L 84.15401 85.90488 
L 87.174571 86.328 
L 90.195131 86.24544 
L 93.215692 85.72944 
L 96.236252 85.7088 
L 99.256813 86.40024 
L 102.277373 85.09992 
L 105.297933 86.02872 
L 108.318494 84.78 
L 111.339054 83.53128 
L 114.359615 82.83984 
L 117.380175 82.03488 
L 120.400736 79.39296 
L 123.421296 79.66128 
L 126.441856 82.15872 
L 129.462417 82.43736 
L 132.482977 82.93272 
L 135.503538 83.00496 
L 138.524098 82.6128 
L 141.544658 82.28256 
L 144.565219 78.01008 
L 147.585779 76.19376 
L 150.60634 77.66952 
L 153.6269 77.74176 
L 156.647461 78.1752 
L 159.668021 79.5684 
L 162.688581 80.8068 
L 165.709142 85.20312 
L 168.729702 84.12984 
L 171.750263 84.03696 
L 174.770823 84.06792 
L 177.791383 84.3156 
L 180.811944 87.02976 
L 183.832504 85.21344 
L 186.853065 84.28464 
L 189.873625 84.32592 
L 192.894186 89.08344 
L 195.914746 89.5272 
L 198.935306 95.14128 
L 201.955867 96.98856 
L 204.976427 95.08968 
L 207.526458 97.71096 
L 209.92686 99.80592 
L 212.945882 101.79768 
L 215.953507 100.03296 
L 219.043114 100.518 
L 222.038748 99.98136 
L 225.076544 100.49736 
L 228.090846 100.78632 
L 231.100534 101.07528 
L 234.120186 101.26104 
L 237.104422 100.63152 
L 239.965599 100.38384 
L 243.179909 100.84824 
L 245.821047 100.65216 
L 249.21624 101.034 
L 252.23313 101.19912 
L 255.236036 101.10624 
L 258.238137 100.97208 
L 261.293203 100.91016 
L 264.322853 101.7564 
L 267.088239 101.84928 
L 270.353101 101.56032 
L 273.360202 100.85856 
L 276.375029 101.12688 
L 279.36 101.4468 
" clip-path="url(#pa6486d3b00)" style="fill: none; stroke: #f5841e; stroke-width: 0.6"/>
   </g>
  </g>
 </g>
 <defs>
  <clipPath id="pa6486d3b00">
   <rect x="8.64" y="4.8" width="270.72" height="103.2"/>
  </clipPath>
 </defs>
</svg>
