<?xml version="1.0" encoding="utf-8" standalone="no"?>
<!DOCTYPE svg PUBLIC "-//W3C//DTD SVG 1.1//EN"
  "http://www.w3.org/Graphics/SVG/1.1/DTD/svg11.dtd">
<svg xmlns:xlink="http://www.w3.org/1999/xlink" width="288pt" height="120pt" viewBox="0 0 288 120" xmlns="http://www.w3.org/2000/svg" version="1.1">
<desc id="nav-meta">{"window":"3m","count":4,"labels":["25.12","24.01","23.02","25.03"],"tick_utc":["2025-12-25T12:00:00Z","2026-01-24T12:00:00Z","2026-02-23T03:32:23Z","2026-03-25T05:09:13Z"],"w":720,"h":300}</desc>

 <metadata>
  <rdf:RDF xmlns:dc="http://purl.org/dc/elements/1.1/" xmlns:cc="http://creativecommons.org/ns#" xmlns:rdf="http://www.w3.org/1999/02/22-rdf-syntax-ns#">
   <cc:Work>
    <dc:type rdf:resource="http://purl.org/dc/dcmitype/StillImage"/>
    <dc:date>2026-03-25T05:14:26.282492</dc:date>
    <dc:format>image/svg+xml</dc:format>
    <dc:creator>
     <cc:Agent>
      <dc:title>Matplotlib v3.10.8, https://matplotlib.org/</dc:title>
     </cc:Agent>
    </dc:creator>
   </cc:Work>
  </rdf:RDF>
 </metadata>
 <defs>
  <style type="text/css">*{stroke-linejoin: round; stroke-linecap: butt}</style>
 </defs>
 <g id="figure_1">
  <g id="patch_1">
   <path d="M 0 120 
L 288 120 
L 288 0 
L 0 0 
L 0 120 
z
" style="fill: none; opacity: 0"/>
  </g>
  <g id="axes_1">
   <g id="patch_2">
    <path d="M 8.64 108 
L 279.36 108 
L 279.36 4.8 
L 8.64 4.8 
L 8.64 108 
z
" style="fill: none"/>
   </g>
   <g id="matplotlib.axis_1"/>
   <g id="matplotlib.axis_2"/>
   <g id="line2d_1">
    <path d="M 8.64 87.36 
L 279.36 87.36 
" clip-path="url(#p6b1a11968d)" style="fill: none; stroke: #b2b2b2; stroke-opacity: 0.35; stroke-width: 0.5; stroke-linecap: square"/>
   </g>
   <g id="line2d_2">
    <path d="M 8.64 66.72 
L 279.36 66.72 
" clip-path="url(#p6b1a11968d)" style="fill: none; stroke: #b2b2b2; stroke-opacity: 0.35; stroke-width: 0.5; stroke-linecap: square"/>
   </g>
   <g id="line2d_3">
    <path d="M 8.64 46.08 
L 279.36 46.08 
" clip-path="url(#p6b1a11968d)" style="fill: none; stroke: #b2b2b2; stroke-opacity: 0.35; stroke-width: 0.5; stroke-linecap: square"/>
   </g>
   <g id="line2d_4">
    <path d="M 8.64 25.44 
L 279.36 25.44 
" clip-path="url(#p6b1a11968d)" style="fill: none; stroke: #b2b2b2; stroke-opacity: 0.35; stroke-width: 0.5; stroke-linecap: square"/>
   </g>
   <g id="line2d_5">
    <path d="M 8.64 93.01536 
L 11.657565 93.69648 
L 14.675129 93.11856 
L 17.692694 92.44776 
L 20.710258 92.30328 
L 23.727823 92.87088 
L 26.745387 92.38584 
L 29.762952 92.47872 
L 32.780516 91.88016 
L 35.798081 90.42504 
L 38.815645 90.08448 
L 41.83321 89.92968 
L 44.850775 88.76352 
L 47.868339 87.94824 
L 50.885904 89.2692 
L 53.903468 88.72224 
L 56.921033 89.39304 
L 59.938597 89.40336 
L 62.956162 88.41264 
L 65.973726 88.4952 
L 68.991291 86.86464 
L 72.008855 86.42088 
L 75.02642 87.62832 
L 78.043985 86.93688 
L 81.061549 87.23616 
L 84.079114 88.63968 
L 87.096678 90.0432 
L 90.114243 92.12784 
L 93.131807 91.16808 
L 96.149372 91.46736 
L 99.166936 91.73568 
L 102.184501 91.78728 
L 105.202065 94.0164 
L 108.21963 92.5716 
L 111.237195 91.76664 
L 114.254759 92.33424 
L 117.272324 94.36728 
L 120.289888 94.46016 
L 123.307453 97.71096 
L 126.325017 98.48496 
L 129.342582 97.85544 
L 131.890084 99.10416 
L 134.288105 100.16712 
L 137.304133 102.23112 
L 140.308775 100.54896 
L 143.395317 100.70376 
L 146.38798 100.68312 
L 149.422763 100.95144 
L 152.434075 101.28168 
L 155.440778 101.71512 
L 158.457435 101.84928 
L 161.438712 101.034 
L 164.297051 100.54896 
L 167.508172 101.04432 
L 170.14669 100.81728 
L 173.538517 101.034 
L 176.552414 101.4984 
L 179.552341 101.33328 
L 182.551465 101.1372 
L 185.603501 101.06496 
L 188.630146 102.09696 
L 191.39279 102.05568 
L 194.654414 101.4984 
L 197.658532 100.60056 
L 200.670369 100.80696 
L 203.652379 101.45712 
L 206.738502 100.55928 
L 209.724913 101.10624 
L 212.749498 100.8792 
L 215.750158 100.74504 
L 218.774219 100.21872 
L 221.790352 100.53864 
L 224.784761 101.07528 
L 227.831628 101.38488 
L 230.858238 101.26104 
L 233.856419 100.78632 
L 236.872796 100.91016 
L 239.902235 100.99272 
L 242.913967 100.38384 
L 245.927515 100.50768 
L 249.002812 100.60056 
L 252.028898 99.76464 
L 254.993655 99.49632 
L 258.034236 99.40344 
L 261.052638 100.09488 
L 264.040831 100.3632 
L 267.040723 100.19808 
L 270.103411 100.47672 
L 273.128066 100.79664 
L 276.11769 100.26 
L 279.36 99.83688 
" clip-path="url(#p6b1a11968d)" style="fill: none; stroke: #bebebe; stroke-width: 0.5; stroke-linecap: round"/>
   </g>
   <g id="line2d_6">
    <path d="M 8.64 75.87384 
L 11.657565 76.49304 
L 14.675129 76.15248 
L 17.692694 75.82224 
L 20.710258 75.84288 
L 23.727823 76.03896 
L 26.745387 75.51264 
L 29.762952 75.56424 
L 32.780516 75.05856 
L 35.798081 73.26288 
L 38.815645 73.20096 
L 41.83321 73.00488 
L 44.850775 71.68392 
L 47.868339 70.6932 
L 50.885904 72.62304 
L 53.903468 73.52088 
L 56.921033 73.83048 
L 59.938597 73.8408 
L 62.956162 73.29384 
L 65.973726 73.72728 
L 68.991291 70.32168 
L 72.008855 69.77472 
L 75.02642 70.34232 
L 78.043985 70.67256 
L 81.061549 70.51776 
L 84.079114 70.848 
L 87.096678 72.31344 
L 90.114243 76.01832 
L 93.131807 75.41976 
L 96.149372 75.83256 
L 99.166936 75.79128 
L 102.184501 75.82224 
L 105.202065 77.82432 
L 108.21963 76.14216 
L 111.237195 74.75928 
L 114.254759 74.96568 
L 117.272324 77.75208 
L 120.289888 79.48584 
L 123.307453 83.31456 
L 126.325017 85.90488 
L 129.342582 84.79032 
L 131.890084 85.84296 
L 134.288105 88.25784 
L 137.304133 91.41576 
L 140.308775 88.7532 
L 143.395317 88.65 
L 146.38798 88.55712 
L 149.422763 88.96992 
L 152.434075 89.7336 
L 155.440778 90.456 
L 158.457435 90.56952 
L 161.438712 89.15568 
L 164.297051 88.9596 
L 167.508172 90.6624 
L 170.14669 89.94 
L 173.538517 90.00192 
L 176.552414 90.3528 
L 179.552341 90.62112 
L 182.551465 90.5076 
L 185.603501 90.3528 
L 188.630146 92.004 
L 191.39279 92.13816 
L 194.654414 91.25064 
L 197.658532 89.166 
L 200.670369 89.56848 
L 203.652379 90.93072 
L 206.738502 89.41368 
L 209.724913 90.37344 
L 212.749498 89.79552 
L 215.750158 90.23928 
L 218.774219 88.0824 
L 221.790352 88.7532 
L 224.784761 90.16704 
L 227.831628 90.67272 
L 230.858238 90.18768 
L 233.856419 89.2692 
L 236.872796 89.54784 
L 239.902235 89.49624 
L 242.913967 88.31976 
L 245.927515 88.45392 
L 249.002812 88.46424 
L 252.028898 86.38992 
L 254.993655 84.80064 
L 258.034236 84.8316 
L 261.052638 86.586 
L 264.040831 87.74184 
L 267.040723 87.618 
L 270.103411 88.19592 
L 273.128066 89.08344 
L 276.11769 87.89664 
L 279.36 87.3084 
" clip-path="url(#p6b1a11968d)" style="fill: none; stroke: #4a8dff; stroke-width: 0.6"/>
   </g>
   <g id="line2d_7">
    <path d="M 8.64 85.90488 
L 11.657565 86.328 
L 14.675129 86.24544 
L 17.692694 85.72944 
L 20.710258 85.7088 
L 23.727823 86.40024 
L 26.745387 85.09992 
L 29.762952 86.02872 
L 32.780516 84.78 
L 35.798081 83.53128 
L 38.815645 82.83984 
L 41.83321 82.03488 
L 44.850775 79.39296 
L 47.868339 79.66128 
L 50.885904 82.15872 
L 53.903468 82.43736 
L 56.921033 82.93272 
L 59.938597 83.00496 
L 62.956162 82.6128 
L 65.973726 82.28256 
L 68.991291 78.01008 
L 72.008855 76.19376 
L 75.02642 77.66952 
L 78.043985 77.74176 
L 81.061549 78.1752 
L 84.079114 79.5684 
L 87.096678 80.8068 
L 90.114243 85.20312 
L 93.131807 84.12984 
L 96.149372 84.03696 
L 99.166936 84.06792 
L 102.184501 84.3156 
L 105.202065 87.02976 
L 108.21963 85.21344 
L 111.237195 84.28464 
L 114.254759 84.32592 
L 117.272324 89.08344 
L 120.289888 89.5272 
L 123.307453 95.14128 
L 126.325017 96.98856 
L 129.342582 95.08968 
L 131.890084 97.71096 
L 134.288105 99.80592 
L 137.304133 101.79768 
L 140.308775 100.03296 
L 143.395317 100.518 
L 146.38798 99.98136 
L 149.422763 100.49736 
L 152.434075 100.78632 
L 155.440778 101.07528 
L 158.457435 101.26104 
L 161.438712 100.63152 
L 164.297051 100.38384 
L 167.508172 100.84824 
L 170.14669 100.65216 
L 173.538517 101.034 
L 176.552414 101.19912 
L 179.552341 101.10624 
L 182.551465 100.97208 
L 185.603501 100.91016 
L 188.630146 101.7564 
L 191.39279 101.84928 
L 194.654414 101.56032 
L 197.658532 100.85856 
L 200.670369 101.12688 
L 203.652379 101.4468 
L 206.738502 101.02368 
L 209.724913 101.30232 
L 212.749498 100.81728 
L 215.750158 100.79664 
L 218.774219 99.3312 
L 221.790352 99.92976 
L 224.784761 100.78632 
L 227.831628 101.17848 
L 230.858238 101.1372 
L 233.856419 100.21872 
L 236.872796 100.37352 
L 239.902235 100.4664 
L 242.913967 99.88848 
L 245.927515 99.94008 
L 249.002812 99.81624 
L 252.028898 98.93904 
L 254.993655 98.3508 
L 258.034236 98.52624 
L 261.052638 99.78528 
L 264.040831 100.12584 
L 267.040723 100.03296 
L 270.103411 100.45608 
L 273.128066 100.83792 
L 276.11769 100.11552 
L 279.36 99.87816 
" clip-path="url(#p6b1a11968d)" style="fill: none; stroke: #f5841e; stroke-width: 0.6"/>
   </g>
  </g>
 </g>
 <defs>
  <clipPath id="p6b1a11968d">
   <rect x="8.64" y="4.8" width="270.72" height="103.2"/>
  </clipPath>
 </defs>
</svg>
