<?xml version="1.0" encoding="utf-8" standalone="no"?>
<!DOCTYPE svg PUBLIC "-//W3C//DTD SVG 1.1//EN"
  "http://www.w3.org/Graphics/SVG/1.1/DTD/svg11.dtd">
<svg xmlns:xlink="http://www.w3.org/1999/xlink" width="288pt" height="120pt" viewBox="0 0 288 120" xmlns="http://www.w3.org/2000/svg" version="1.1">
<desc id="nav-meta">{"window":"1m","count":4,"labels":["20.04","30.04","09.05","19.05"],"tick_utc":["2026-04-20T04:02:26Z","2026-04-30T04:23:32Z","2026-05-09T04:06:35Z","2026-05-19T04:46:06Z"],"w":720,"h":300}</desc>

 <metadata>
  <rdf:RDF xmlns:dc="http://purl.org/dc/elements/1.1/" xmlns:cc="http://creativecommons.org/ns#" xmlns:rdf="http://www.w3.org/1999/02/22-rdf-syntax-ns#">
   <cc:Work>
    <dc:type rdf:resource="http://purl.org/dc/dcmitype/StillImage"/>
    <dc:date>2026-05-19T20:19:16.520027</dc:date>
    <dc:format>image/svg+xml</dc:format>
    <dc:creator>
     <cc:Agent>
      <dc:title>Matplotlib v3.10.9, https://matplotlib.org/</dc:title>
     </cc:Agent>
    </dc:creator>
   </cc:Work>
  </rdf:RDF>
 </metadata>
 <defs>
  <style type="text/css">*{stroke-linejoin: round; stroke-linecap: butt}</style>
 </defs>
 <g id="figure_1">
  <g id="patch_1">
   <path d="M 0 120 
L 288 120 
L 288 0 
L 0 0 
L 0 120 
z
" style="fill: none; opacity: 0"/>
  </g>
  <g id="axes_1">
   <g id="patch_2">
    <path d="M 8.64 108 
L 279.36 108 
L 279.36 4.8 
L 8.64 4.8 
L 8.64 108 
z
" style="fill: none"/>
   </g>
   <g id="matplotlib.axis_1"/>
   <g id="matplotlib.axis_2"/>
   <g id="line2d_1">
    <path d="M 8.64 87.36 
L 279.36 87.36 
" clip-path="url(#pa58aa02600)" style="fill: none; stroke: #b2b2b2; stroke-opacity: 0.35; stroke-width: 0.5; stroke-linecap: square"/>
   </g>
   <g id="line2d_2">
    <path d="M 8.64 66.72 
L 279.36 66.72 
" clip-path="url(#pa58aa02600)" style="fill: none; stroke: #b2b2b2; stroke-opacity: 0.35; stroke-width: 0.5; stroke-linecap: square"/>
   </g>
   <g id="line2d_3">
    <path d="M 8.64 46.08 
L 279.36 46.08 
" clip-path="url(#pa58aa02600)" style="fill: none; stroke: #b2b2b2; stroke-opacity: 0.35; stroke-width: 0.5; stroke-linecap: square"/>
   </g>
   <g id="line2d_4">
    <path d="M 8.64 25.44 
L 279.36 25.44 
" clip-path="url(#pa58aa02600)" style="fill: none; stroke: #b2b2b2; stroke-opacity: 0.35; stroke-width: 0.5; stroke-linecap: square"/>
   </g>
   <g id="line2d_5">
    <path d="M 8.64 101.09592 
L 17.924515 101.00304 
L 27.22101 100.69344 
L 36.584208 100.9308 
L 45.934345 100.92048 
L 55.148488 100.81728 
L 64.618971 100.8792 
L 74.044878 100.64184 
L 83.389835 101.1888 
L 92.689784 101.09592 
L 102.030855 101.37456 
L 111.458166 101.21976 
L 120.545594 101.20944 
L 130.06033 101.23008 
L 139.382513 100.92048 
L 148.502538 101.06496 
L 157.992233 100.70376 
L 167.320137 100.55928 
L 176.49035 100.53864 
L 185.849878 99.60984 
L 195.363211 99.72336 
L 204.762243 99.44472 
L 213.958144 99.25896 
L 223.327926 99.32088 
L 232.642986 100.22904 
L 242.014386 100.01232 
L 251.220757 100.43544 
L 260.685412 100.75536 
L 270.101389 101.02368 
L 279.36 101.02368 
" clip-path="url(#pa58aa02600)" style="fill: none; stroke: #bebebe; stroke-width: 0.5; stroke-linecap: round"/>
   </g>
   <g id="line2d_6">
    <path d="M 8.64 85.6572 
L 17.924515 85.27536 
L 27.22101 84.49104 
L 36.584208 84.86256 
L 45.934345 85.32696 
L 55.148488 85.17216 
L 64.618971 85.31664 
L 74.044878 84.11952 
L 83.389835 85.66752 
L 92.689784 85.26504 
L 102.030855 86.26608 
L 111.458166 85.77072 
L 120.545594 85.38888 
L 130.06033 85.3992 
L 139.382513 84.09888 
L 148.502538 84.22272 
L 157.992233 84.34656 
L 167.320137 85.06896 
L 176.49035 85.7604 
L 185.849878 85.0896 
L 195.363211 85.01736 
L 204.762243 84.9348 
L 213.958144 85.296 
L 223.327926 85.35792 
L 232.642986 86.1732 
L 242.014386 85.92552 
L 251.220757 86.55504 
L 260.685412 87.13296 
L 270.101389 88.10304 
L 279.36 87.9276 
" clip-path="url(#pa58aa02600)" style="fill: none; stroke: #4a8dff; stroke-width: 0.6"/>
   </g>
   <g id="line2d_7">
    <path d="M 8.64 98.48496 
L 17.924515 97.96896 
L 27.22101 96.32808 
L 36.584208 96.20424 
L 45.934345 96.16296 
L 55.148488 96.1836 
L 64.618971 96.50352 
L 74.044878 94.76976 
L 83.389835 97.19496 
L 92.689784 96.9576 
L 102.030855 97.9896 
L 111.458166 96.89568 
L 120.545594 95.45088 
L 130.06033 95.67792 
L 139.382513 93.43848 
L 148.502538 92.90184 
L 157.992233 92.25168 
L 167.320137 92.87088 
L 176.49035 94.2744 
L 185.849878 93.1392 
L 195.363211 92.97408 
L 204.762243 92.9844 
L 213.958144 92.60256 
L 223.327926 92.53032 
L 232.642986 94.54272 
L 242.014386 92.85024 
L 251.220757 94.82136 
L 260.685412 95.75016 
L 270.101389 96.97824 
L 279.36 97.08144 
" clip-path="url(#pa58aa02600)" style="fill: none; stroke: #f5841e; stroke-width: 0.6"/>
   </g>
  </g>
 </g>
 <defs>
  <clipPath id="pa58aa02600">
   <rect x="8.64" y="4.8" width="270.72" height="103.2"/>
  </clipPath>
 </defs>
</svg>
