<?xml version="1.0" encoding="utf-8" standalone="no"?>
<!DOCTYPE svg PUBLIC "-//W3C//DTD SVG 1.1//EN"
  "http://www.w3.org/Graphics/SVG/1.1/DTD/svg11.dtd">
<svg xmlns:xlink="http://www.w3.org/1999/xlink" width="288pt" height="120pt" viewBox="0 0 288 120" xmlns="http://www.w3.org/2000/svg" version="1.1">
<desc id="nav-meta">{"window":"1m","count":4,"labels":["16.05","26.05","04.06","14.06"],"tick_utc":["2026-05-16T04:20:56Z","2026-05-26T04:48:34Z","2026-06-04T05:26:51Z","2026-06-14T05:19:47Z"],"w":720,"h":300}</desc>

 <metadata>
  <rdf:RDF xmlns:dc="http://purl.org/dc/elements/1.1/" xmlns:cc="http://creativecommons.org/ns#" xmlns:rdf="http://www.w3.org/1999/02/22-rdf-syntax-ns#">
   <cc:Work>
    <dc:type rdf:resource="http://purl.org/dc/dcmitype/StillImage"/>
    <dc:date>2026-06-14T05:19:49.362420</dc:date>
    <dc:format>image/svg+xml</dc:format>
    <dc:creator>
     <cc:Agent>
      <dc:title>Matplotlib v3.11.0, https://matplotlib.org/</dc:title>
     </cc:Agent>
    </dc:creator>
   </cc:Work>
  </rdf:RDF>
 </metadata>
 <defs>
  <style type="text/css">*{stroke-linejoin: round; stroke-linecap: butt}</style>
 </defs>
 <g id="figure_1">
  <g id="patch_1">
   <path d="M 0 120 
L 288 120 
L 288 0 
L 0 0 
L 0 120 
z
" style="fill: none; opacity: 0"/>
  </g>
  <g id="axes_1">
   <g id="patch_2">
    <path d="M 8.64 108 
L 279.36 108 
L 279.36 4.8 
L 8.64 4.8 
L 8.64 108 
z
" style="fill: none"/>
   </g>
   <g id="matplotlib.axis_1"/>
   <g id="matplotlib.axis_2"/>
   <g id="line2d_1">
    <path d="M 8.64 87.36 
L 279.36 87.36 
" clip-path="url(#p795dbb0bcc)" style="fill: none; stroke: #b2b2b2; stroke-opacity: 0.35; stroke-width: 0.5; stroke-linecap: square"/>
   </g>
   <g id="line2d_2">
    <path d="M 8.64 66.72 
L 279.36 66.72 
" clip-path="url(#p795dbb0bcc)" style="fill: none; stroke: #b2b2b2; stroke-opacity: 0.35; stroke-width: 0.5; stroke-linecap: square"/>
   </g>
   <g id="line2d_3">
    <path d="M 8.64 46.08 
L 279.36 46.08 
" clip-path="url(#p795dbb0bcc)" style="fill: none; stroke: #b2b2b2; stroke-opacity: 0.35; stroke-width: 0.5; stroke-linecap: square"/>
   </g>
   <g id="line2d_4">
    <path d="M 8.64 25.44 
L 279.36 25.44 
" clip-path="url(#p795dbb0bcc)" style="fill: none; stroke: #b2b2b2; stroke-opacity: 0.35; stroke-width: 0.5; stroke-linecap: square"/>
   </g>
   <g id="line2d_5">
    <path d="M 8.64 100.43544 
L 18.101219 100.75536 
L 27.513777 101.02368 
L 36.769026 101.02368 
L 46.124401 101.17848 
L 55.49952 100.7244 
L 64.750129 100.75536 
L 73.944095 101.11656 
L 83.413729 100.91016 
L 92.85844 100.89984 
L 102.039242 101.1372 
L 111.456979 101.2404 
L 120.749236 101.6532 
L 130.078177 101.4984 
L 139.265776 101.48808 
L 148.778137 101.32296 
L 158.23806 101.51904 
L 167.468386 101.7048 
L 176.895294 102.54072 
L 186.185393 103.08768 
L 195.353895 103.36632 
L 204.532648 104.22288 
L 214.055042 103.85136 
L 223.418293 103.68624 
L 232.562411 103.43856 
L 241.98112 103.81008 
L 251.357857 103.72752 
L 260.716469 103.50048 
L 269.970315 103.5108 
L 279.36 103.31472 
" clip-path="url(#p795dbb0bcc)" style="fill: none; stroke: #bebebe; stroke-width: 0.5; stroke-linecap: round"/>
   </g>
   <g id="line2d_6">
    <path d="M 8.64 86.55504 
L 18.101219 87.13296 
L 27.513777 88.10304 
L 36.769026 87.9276 
L 46.124401 88.26816 
L 55.49952 87.78312 
L 64.750129 87.95856 
L 73.944095 88.94928 
L 83.413729 88.14432 
L 92.85844 88.33008 
L 102.039242 88.52616 
L 111.456979 88.86672 
L 120.749236 90.22896 
L 130.078177 89.82648 
L 139.265776 89.87808 
L 148.778137 89.46528 
L 158.23806 90.0432 
L 167.468386 89.96064 
L 176.895294 91.99368 
L 186.185393 93.05664 
L 195.353895 93.74808 
L 204.532648 97.02984 
L 214.055042 95.93592 
L 223.418293 95.07936 
L 232.562411 94.46016 
L 241.98112 95.47152 
L 251.357857 95.11032 
L 260.716469 94.82136 
L 269.970315 94.8936 
L 279.36 94.70784 
" clip-path="url(#p795dbb0bcc)" style="fill: none; stroke: #4a8dff; stroke-width: 0.6"/>
   </g>
   <g id="line2d_7">
    <path d="M 8.64 94.82136 
L 18.101219 95.75016 
L 27.513777 96.97824 
L 36.769026 97.08144 
L 46.124401 97.23624 
L 55.49952 95.94624 
L 64.750129 96.30744 
L 73.944095 98.08248 
L 83.413729 97.2672 
L 92.85844 96.61704 
L 102.039242 97.23624 
L 111.456979 98.08248 
L 120.749236 99.18672 
L 130.078177 99.03192 
L 139.265776 99.1248 
L 148.778137 98.74296 
L 158.23806 99.09384 
L 167.468386 100.0536 
L 176.895294 101.23008 
L 186.185393 101.99376 
L 195.353895 102.08664 
L 204.532648 102.8916 
L 214.055042 102.45816 
L 223.418293 102.28272 
L 232.562411 102.10728 
L 241.98112 102.582 
L 251.357857 102.29304 
L 260.716469 102.08664 
L 269.970315 102.066 
L 279.36 101.86992 
" clip-path="url(#p795dbb0bcc)" style="fill: none; stroke: #f5841e; stroke-width: 0.6"/>
   </g>
  </g>
 </g>
 <defs>
  <clipPath id="p795dbb0bcc">
   <rect x="8.64" y="4.8" width="270.72" height="103.2"/>
  </clipPath>
 </defs>
</svg>
