<?xml version="1.0" encoding="utf-8" standalone="no"?>
<!DOCTYPE svg PUBLIC "-//W3C//DTD SVG 1.1//EN"
  "http://www.w3.org/Graphics/SVG/1.1/DTD/svg11.dtd">
<svg xmlns:xlink="http://www.w3.org/1999/xlink" width="288pt" height="120pt" viewBox="0 0 288 120" xmlns="http://www.w3.org/2000/svg" version="1.1">
<desc id="nav-meta">{"window":"1m","count":4,"labels":["19.04","29.04","08.05","18.05"],"tick_utc":["2026-04-19T03:58:52Z","2026-04-29T04:21:07Z","2026-05-08T04:01:19Z","2026-05-18T04:56:25Z"],"w":720,"h":300}</desc>

 <metadata>
  <rdf:RDF xmlns:dc="http://purl.org/dc/elements/1.1/" xmlns:cc="http://creativecommons.org/ns#" xmlns:rdf="http://www.w3.org/1999/02/22-rdf-syntax-ns#">
   <cc:Work>
    <dc:type rdf:resource="http://purl.org/dc/dcmitype/StillImage"/>
    <dc:date>2026-05-18T10:48:49.325672</dc:date>
    <dc:format>image/svg+xml</dc:format>
    <dc:creator>
     <cc:Agent>
      <dc:title>Matplotlib v3.10.9, https://matplotlib.org/</dc:title>
     </cc:Agent>
    </dc:creator>
   </cc:Work>
  </rdf:RDF>
 </metadata>
 <defs>
  <style type="text/css">*{stroke-linejoin: round; stroke-linecap: butt}</style>
 </defs>
 <g id="figure_1">
  <g id="patch_1">
   <path d="M 0 120 
L 288 120 
L 288 0 
L 0 0 
L 0 120 
z
" style="fill: none; opacity: 0"/>
  </g>
  <g id="axes_1">
   <g id="patch_2">
    <path d="M 8.64 108 
L 279.36 108 
L 279.36 4.8 
L 8.64 4.8 
L 8.64 108 
z
" style="fill: none"/>
   </g>
   <g id="matplotlib.axis_1"/>
   <g id="matplotlib.axis_2"/>
   <g id="line2d_1">
    <path d="M 8.64 87.36 
L 279.36 87.36 
" clip-path="url(#p9b834e135c)" style="fill: none; stroke: #b2b2b2; stroke-opacity: 0.35; stroke-width: 0.5; stroke-linecap: square"/>
   </g>
   <g id="line2d_2">
    <path d="M 8.64 66.72 
L 279.36 66.72 
" clip-path="url(#p9b834e135c)" style="fill: none; stroke: #b2b2b2; stroke-opacity: 0.35; stroke-width: 0.5; stroke-linecap: square"/>
   </g>
   <g id="line2d_3">
    <path d="M 8.64 46.08 
L 279.36 46.08 
" clip-path="url(#p9b834e135c)" style="fill: none; stroke: #b2b2b2; stroke-opacity: 0.35; stroke-width: 0.5; stroke-linecap: square"/>
   </g>
   <g id="line2d_4">
    <path d="M 8.64 25.44 
L 279.36 25.44 
" clip-path="url(#p9b834e135c)" style="fill: none; stroke: #b2b2b2; stroke-opacity: 0.35; stroke-width: 0.5; stroke-linecap: square"/>
   </g>
   <g id="line2d_5">
    <path d="M 8.64 100.94112 
L 17.985415 101.09592 
L 27.266847 101.00304 
L 36.560256 100.69344 
L 45.920345 100.9308 
L 55.267379 100.92048 
L 64.478462 100.81728 
L 73.945801 100.8792 
L 83.368579 100.64184 
L 92.710433 101.1888 
L 102.007295 101.09592 
L 111.345265 101.37456 
L 120.769445 101.21976 
L 129.853857 101.20944 
L 139.365434 101.23008 
L 148.684522 100.92048 
L 157.801519 101.06496 
L 167.288064 100.70376 
L 176.612871 100.55928 
L 185.78004 100.53864 
L 195.13646 99.60984 
L 204.646635 99.72336 
L 214.042546 99.44472 
L 223.235394 99.25896 
L 232.602065 99.32088 
L 241.914032 100.22904 
L 251.282322 100.01232 
L 260.485636 100.43544 
L 269.947149 100.75536 
L 279.36 101.02368 
" clip-path="url(#p9b834e135c)" style="fill: none; stroke: #bebebe; stroke-width: 0.5; stroke-linecap: round"/>
   </g>
   <g id="line2d_6">
    <path d="M 8.64 84.86256 
L 17.985415 85.6572 
L 27.266847 85.27536 
L 36.560256 84.49104 
L 45.920345 84.86256 
L 55.267379 85.32696 
L 64.478462 85.17216 
L 73.945801 85.31664 
L 83.368579 84.11952 
L 92.710433 85.66752 
L 102.007295 85.26504 
L 111.345265 86.26608 
L 120.769445 85.77072 
L 129.853857 85.38888 
L 139.365434 85.3992 
L 148.684522 84.09888 
L 157.801519 84.22272 
L 167.288064 84.34656 
L 176.612871 85.06896 
L 185.78004 85.7604 
L 195.13646 85.0896 
L 204.646635 85.01736 
L 214.042546 84.9348 
L 223.235394 85.296 
L 232.602065 85.35792 
L 241.914032 86.1732 
L 251.282322 85.92552 
L 260.485636 86.55504 
L 269.947149 87.13296 
L 279.36 88.10304 
" clip-path="url(#p9b834e135c)" style="fill: none; stroke: #4a8dff; stroke-width: 0.6"/>
   </g>
   <g id="line2d_7">
    <path d="M 8.64 98.05152 
L 17.985415 98.48496 
L 27.266847 97.96896 
L 36.560256 96.32808 
L 45.920345 96.20424 
L 55.267379 96.16296 
L 64.478462 96.1836 
L 73.945801 96.50352 
L 83.368579 94.76976 
L 92.710433 97.19496 
L 102.007295 96.9576 
L 111.345265 97.9896 
L 120.769445 96.89568 
L 129.853857 95.45088 
L 139.365434 95.67792 
L 148.684522 93.43848 
L 157.801519 92.90184 
L 167.288064 92.25168 
L 176.612871 92.87088 
L 185.78004 94.2744 
L 195.13646 93.1392 
L 204.646635 92.97408 
L 214.042546 92.9844 
L 223.235394 92.60256 
L 232.602065 92.53032 
L 241.914032 94.54272 
L 251.282322 92.85024 
L 260.485636 94.82136 
L 269.947149 95.75016 
L 279.36 96.97824 
" clip-path="url(#p9b834e135c)" style="fill: none; stroke: #f5841e; stroke-width: 0.6"/>
   </g>
  </g>
 </g>
 <defs>
  <clipPath id="p9b834e135c">
   <rect x="8.64" y="4.8" width="270.72" height="103.2"/>
  </clipPath>
 </defs>
</svg>
