<?xml version="1.0" encoding="utf-8" standalone="no"?>
<!DOCTYPE svg PUBLIC "-//W3C//DTD SVG 1.1//EN"
  "http://www.w3.org/Graphics/SVG/1.1/DTD/svg11.dtd">
<svg xmlns:xlink="http://www.w3.org/1999/xlink" width="288pt" height="120pt" viewBox="0 0 288 120" xmlns="http://www.w3.org/2000/svg" version="1.1">
<desc id="nav-meta">{"window":"1m","count":4,"labels":["20.01","30.01","08.02","18.02"],"tick_utc":["2026-01-20T12:00:00Z","2026-01-30T12:00:00Z","2026-02-08T03:46:03Z","2026-02-18T03:30:34Z"],"w":720,"h":300}</desc>

 <metadata>
  <rdf:RDF xmlns:dc="http://purl.org/dc/elements/1.1/" xmlns:cc="http://creativecommons.org/ns#" xmlns:rdf="http://www.w3.org/1999/02/22-rdf-syntax-ns#">
   <cc:Work>
    <dc:type rdf:resource="http://purl.org/dc/dcmitype/StillImage"/>
    <dc:date>2026-02-18T19:34:31.617191</dc:date>
    <dc:format>image/svg+xml</dc:format>
    <dc:creator>
     <cc:Agent>
      <dc:title>Matplotlib v3.10.8, https://matplotlib.org/</dc:title>
     </cc:Agent>
    </dc:creator>
   </cc:Work>
  </rdf:RDF>
 </metadata>
 <defs>
  <style type="text/css">*{stroke-linejoin: round; stroke-linecap: butt}</style>
 </defs>
 <g id="figure_1">
  <g id="patch_1">
   <path d="M 0 120 
L 288 120 
L 288 0 
L 0 0 
L 0 120 
z
" style="fill: none; opacity: 0"/>
  </g>
  <g id="axes_1">
   <g id="patch_2">
    <path d="M 8.64 108 
L 279.36 108 
L 279.36 4.8 
L 8.64 4.8 
L 8.64 108 
z
" style="fill: none"/>
   </g>
   <g id="matplotlib.axis_1"/>
   <g id="matplotlib.axis_2"/>
   <g id="line2d_1">
    <path d="M 8.64 87.36 
L 279.36 87.36 
" clip-path="url(#p0f087aa62b)" style="fill: none; stroke: #b2b2b2; stroke-opacity: 0.35; stroke-width: 0.5; stroke-linecap: square"/>
   </g>
   <g id="line2d_2">
    <path d="M 8.64 66.72 
L 279.36 66.72 
" clip-path="url(#p0f087aa62b)" style="fill: none; stroke: #b2b2b2; stroke-opacity: 0.35; stroke-width: 0.5; stroke-linecap: square"/>
   </g>
   <g id="line2d_3">
    <path d="M 8.64 46.08 
L 279.36 46.08 
" clip-path="url(#p0f087aa62b)" style="fill: none; stroke: #b2b2b2; stroke-opacity: 0.35; stroke-width: 0.5; stroke-linecap: square"/>
   </g>
   <g id="line2d_4">
    <path d="M 8.64 25.44 
L 279.36 25.44 
" clip-path="url(#p0f087aa62b)" style="fill: none; stroke: #b2b2b2; stroke-opacity: 0.35; stroke-width: 0.5; stroke-linecap: square"/>
   </g>
   <g id="line2d_5">
    <path d="M 8.64 90.0432 
L 18.090459 92.12784 
L 27.540919 91.16808 
L 36.991378 91.46736 
L 46.441837 91.73568 
L 55.892296 91.78728 
L 65.342756 94.0164 
L 74.793215 92.5716 
L 84.243674 91.76664 
L 93.694133 92.33424 
L 103.144593 94.36728 
L 112.595052 94.46016 
L 122.045511 97.71096 
L 131.49597 98.48496 
L 140.94643 97.85544 
L 148.924739 99.10416 
L 156.434901 100.16712 
L 165.880548 102.23112 
L 175.290536 100.54896 
L 184.957022 100.70376 
L 194.329493 100.68312 
L 203.833877 100.95144 
L 213.264757 101.28168 
L 222.681199 101.71512 
L 232.128814 101.84928 
L 241.465627 101.034 
L 250.417422 100.54896 
L 260.474067 101.04432 
L 268.737421 100.81728 
L 279.36 101.034 
" clip-path="url(#p0f087aa62b)" style="fill: none; stroke: #bebebe; stroke-width: 0.5; stroke-linecap: round"/>
   </g>
   <g id="line2d_6">
    <path d="M 8.64 72.31344 
L 18.090459 76.01832 
L 27.540919 75.41976 
L 36.991378 75.83256 
L 46.441837 75.79128 
L 55.892296 75.82224 
L 65.342756 77.82432 
L 74.793215 76.14216 
L 84.243674 74.75928 
L 93.694133 74.96568 
L 103.144593 77.75208 
L 112.595052 79.48584 
L 122.045511 83.31456 
L 131.49597 85.90488 
L 140.94643 84.79032 
L 148.924739 85.84296 
L 156.434901 88.25784 
L 165.880548 91.41576 
L 175.290536 88.7532 
L 184.957022 88.65 
L 194.329493 88.55712 
L 203.833877 88.96992 
L 213.264757 89.7336 
L 222.681199 90.456 
L 232.128814 90.56952 
L 241.465627 89.15568 
L 250.417422 88.9596 
L 260.474067 90.6624 
L 268.737421 89.94 
L 279.36 90.00192 
" clip-path="url(#p0f087aa62b)" style="fill: none; stroke: #4a8dff; stroke-width: 0.6"/>
   </g>
   <g id="line2d_7">
    <path d="M 8.64 80.8068 
L 18.090459 85.20312 
L 27.540919 84.12984 
L 36.991378 84.03696 
L 46.441837 84.06792 
L 55.892296 84.3156 
L 65.342756 87.02976 
L 74.793215 85.21344 
L 84.243674 84.28464 
L 93.694133 84.32592 
L 103.144593 89.08344 
L 112.595052 89.5272 
L 122.045511 95.14128 
L 131.49597 96.98856 
L 140.94643 95.08968 
L 148.924739 97.71096 
L 156.434901 99.80592 
L 165.880548 101.79768 
L 175.290536 100.03296 
L 184.957022 100.518 
L 194.329493 99.98136 
L 203.833877 100.49736 
L 213.264757 100.78632 
L 222.681199 101.07528 
L 232.128814 101.26104 
L 241.465627 100.63152 
L 250.417422 100.38384 
L 260.474067 100.84824 
L 268.737421 100.65216 
L 279.36 101.034 
" clip-path="url(#p0f087aa62b)" style="fill: none; stroke: #f5841e; stroke-width: 0.6"/>
   </g>
  </g>
 </g>
 <defs>
  <clipPath id="p0f087aa62b">
   <rect x="8.64" y="4.8" width="270.72" height="103.2"/>
  </clipPath>
 </defs>
</svg>
