<?xml version="1.0" encoding="utf-8" standalone="no"?>
<!DOCTYPE svg PUBLIC "-//W3C//DTD SVG 1.1//EN"
  "http://www.w3.org/Graphics/SVG/1.1/DTD/svg11.dtd">
<svg xmlns:xlink="http://www.w3.org/1999/xlink" width="288pt" height="120pt" viewBox="0 0 288 120" xmlns="http://www.w3.org/2000/svg" version="1.1">
<desc id="nav-meta">{"window":"3m","count":4,"labels":["13.01","12.02","14.03","13.04"],"tick_utc":["2026-01-13T12:00:00Z","2026-02-12T03:34:13Z","2026-03-14T03:15:02Z","2026-04-13T04:02:42Z"],"w":720,"h":300}</desc>

 <metadata>
  <rdf:RDF xmlns:dc="http://purl.org/dc/elements/1.1/" xmlns:cc="http://creativecommons.org/ns#" xmlns:rdf="http://www.w3.org/1999/02/22-rdf-syntax-ns#">
   <cc:Work>
    <dc:type rdf:resource="http://purl.org/dc/dcmitype/StillImage"/>
    <dc:date>2026-04-13T04:02:45.015524</dc:date>
    <dc:format>image/svg+xml</dc:format>
    <dc:creator>
     <cc:Agent>
      <dc:title>Matplotlib v3.10.8, https://matplotlib.org/</dc:title>
     </cc:Agent>
    </dc:creator>
   </cc:Work>
  </rdf:RDF>
 </metadata>
 <defs>
  <style type="text/css">*{stroke-linejoin: round; stroke-linecap: butt}</style>
 </defs>
 <g id="figure_1">
  <g id="patch_1">
   <path d="M 0 120 
L 288 120 
L 288 0 
L 0 0 
L 0 120 
z
" style="fill: none; opacity: 0"/>
  </g>
  <g id="axes_1">
   <g id="patch_2">
    <path d="M 8.64 108 
L 279.36 108 
L 279.36 4.8 
L 8.64 4.8 
L 8.64 108 
z
" style="fill: none"/>
   </g>
   <g id="matplotlib.axis_1"/>
   <g id="matplotlib.axis_2"/>
   <g id="line2d_1">
    <path d="M 8.64 87.36 
L 279.36 87.36 
" clip-path="url(#p278d062a5d)" style="fill: none; stroke: #b2b2b2; stroke-opacity: 0.35; stroke-width: 0.5; stroke-linecap: square"/>
   </g>
   <g id="line2d_2">
    <path d="M 8.64 66.72 
L 279.36 66.72 
" clip-path="url(#p278d062a5d)" style="fill: none; stroke: #b2b2b2; stroke-opacity: 0.35; stroke-width: 0.5; stroke-linecap: square"/>
   </g>
   <g id="line2d_3">
    <path d="M 8.64 46.08 
L 279.36 46.08 
" clip-path="url(#p278d062a5d)" style="fill: none; stroke: #b2b2b2; stroke-opacity: 0.35; stroke-width: 0.5; stroke-linecap: square"/>
   </g>
   <g id="line2d_4">
    <path d="M 8.64 25.44 
L 279.36 25.44 
" clip-path="url(#p278d062a5d)" style="fill: none; stroke: #b2b2b2; stroke-opacity: 0.35; stroke-width: 0.5; stroke-linecap: square"/>
   </g>
   <g id="line2d_5">
    <path d="M 8.64 88.4952 
L 11.659119 86.86464 
L 14.678238 86.42088 
L 17.697357 87.62832 
L 20.716476 86.93688 
L 23.735595 87.23616 
L 26.754714 88.63968 
L 29.773833 90.0432 
L 32.792952 92.12784 
L 35.812071 91.16808 
L 38.83119 91.46736 
L 41.850309 91.73568 
L 44.869428 91.78728 
L 47.888547 94.0164 
L 50.907666 92.5716 
L 53.926785 91.76664 
L 56.945904 92.33424 
L 59.965023 94.36728 
L 62.984142 94.46016 
L 66.003261 97.71096 
L 69.02238 98.48496 
L 72.0415 97.85544 
L 74.590314 99.10416 
L 76.98957 100.16712 
L 80.007152 102.23112 
L 83.013341 100.54896 
L 86.101474 100.70376 
L 89.095678 100.68312 
L 92.132024 100.95144 
L 95.144889 101.28168 
L 98.15314 101.71512 
L 101.171351 101.84928 
L 104.154163 101.034 
L 107.013975 100.54896 
L 110.226751 101.04432 
L 112.866628 100.81728 
L 116.260202 101.034 
L 119.275652 101.4984 
L 122.277124 101.33328 
L 125.277793 101.1372 
L 128.331401 101.06496 
L 131.359606 102.09696 
L 134.123672 102.05568 
L 137.386976 101.4984 
L 140.392642 100.60056 
L 143.40603 100.80696 
L 146.389577 101.45712 
L 149.47729 100.55928 
L 152.465239 101.10624 
L 155.491382 100.8792 
L 158.493588 100.74504 
L 161.519207 100.21872 
L 164.536893 100.53864 
L 167.532845 101.07528 
L 170.581281 101.38488 
L 173.609451 101.26104 
L 176.609176 100.78632 
L 179.627107 100.91016 
L 182.658107 100.99272 
L 185.67139 100.38384 
L 188.686491 100.50768 
L 191.763371 100.60056 
L 194.791017 99.76464 
L 197.757301 99.49632 
L 200.799448 99.40344 
L 203.819406 100.09488 
L 206.809137 100.3632 
L 209.810575 100.19808 
L 212.874841 100.47672 
L 215.901053 100.79664 
L 218.892218 100.26 
L 222.136198 99.83688 
L 224.967181 100.13616 
L 227.990109 100.80696 
L 230.980365 101.38488 
L 234.040612 101.3436 
L 237.068362 101.292 
L 240.068437 101.28168 
L 243.113449 101.28168 
L 246.092803 101.8596 
L 249.115381 101.88024 
L 252.108642 101.72544 
L 255.173222 101.68416 
L 258.200134 101.47776 
L 261.19965 101.78736 
L 264.223661 101.09592 
L 267.232262 101.46744 
L 270.279161 101.3436 
L 273.25212 101.05464 
L 276.325401 101.3952 
L 279.36 101.47776 
" clip-path="url(#p278d062a5d)" style="fill: none; stroke: #bebebe; stroke-width: 0.5; stroke-linecap: round"/>
   </g>
   <g id="line2d_6">
    <path d="M 8.64 73.72728 
L 11.659119 70.32168 
L 14.678238 69.77472 
L 17.697357 70.34232 
L 20.716476 70.67256 
L 23.735595 70.51776 
L 26.754714 70.848 
L 29.773833 72.31344 
L 32.792952 76.01832 
L 35.812071 75.41976 
L 38.83119 75.83256 
L 41.850309 75.79128 
L 44.869428 75.82224 
L 47.888547 77.82432 
L 50.907666 76.14216 
L 53.926785 74.75928 
L 56.945904 74.96568 
L 59.965023 77.75208 
L 62.984142 79.48584 
L 66.003261 83.31456 
L 69.02238 85.90488 
L 72.0415 84.79032 
L 74.590314 85.84296 
L 76.98957 88.25784 
L 80.007152 91.41576 
L 83.013341 88.7532 
L 86.101474 88.65 
L 89.095678 88.55712 
L 92.132024 88.96992 
L 95.144889 89.7336 
L 98.15314 90.456 
L 101.171351 90.56952 
L 104.154163 89.15568 
L 107.013975 88.9596 
L 110.226751 90.6624 
L 112.866628 89.94 
L 116.260202 90.00192 
L 119.275652 90.3528 
L 122.277124 90.62112 
L 125.277793 90.5076 
L 128.331401 90.3528 
L 131.359606 92.004 
L 134.123672 92.13816 
L 137.386976 91.25064 
L 140.392642 89.166 
L 143.40603 89.56848 
L 146.389577 90.93072 
L 149.47729 89.41368 
L 152.465239 90.37344 
L 155.491382 89.79552 
L 158.493588 90.23928 
L 161.519207 88.0824 
L 164.536893 88.7532 
L 167.532845 90.16704 
L 170.581281 90.67272 
L 173.609451 90.18768 
L 176.609176 89.2692 
L 179.627107 89.54784 
L 182.658107 89.49624 
L 185.67139 88.31976 
L 188.686491 88.45392 
L 191.763371 88.46424 
L 194.791017 86.38992 
L 197.757301 84.80064 
L 200.799448 84.8316 
L 203.819406 86.586 
L 206.809137 87.74184 
L 209.810575 87.618 
L 212.874841 88.19592 
L 215.901053 89.08344 
L 218.892218 87.89664 
L 222.136198 87.3084 
L 224.967181 87.65928 
L 227.990109 88.96992 
L 230.980365 90.07416 
L 234.040612 89.76456 
L 237.068362 89.3724 
L 240.068437 89.00088 
L 243.113449 88.42296 
L 246.092803 88.81512 
L 249.115381 89.10408 
L 252.108642 89.14536 
L 255.173222 89.07312 
L 258.200134 87.9792 
L 261.19965 88.29912 
L 264.223661 86.38992 
L 267.232262 87.24648 
L 270.279161 87.1536 
L 273.25212 86.21448 
L 276.325401 86.66856 
L 279.36 87.01944 
" clip-path="url(#p278d062a5d)" style="fill: none; stroke: #4a8dff; stroke-width: 0.6"/>
   </g>
   <g id="line2d_7">
    <path d="M 8.64 82.28256 
L 11.659119 78.01008 
L 14.678238 76.19376 
L 17.697357 77.66952 
L 20.716476 77.74176 
L 23.735595 78.1752 
L 26.754714 79.5684 
L 29.773833 80.8068 
L 32.792952 85.20312 
L 35.812071 84.12984 
L 38.83119 84.03696 
L 41.850309 84.06792 
L 44.869428 84.3156 
L 47.888547 87.02976 
L 50.907666 85.21344 
L 53.926785 84.28464 
L 56.945904 84.32592 
L 59.965023 89.08344 
L 62.984142 89.5272 
L 66.003261 95.14128 
L 69.02238 96.98856 
L 72.0415 95.08968 
L 74.590314 97.71096 
L 76.98957 99.80592 
L 80.007152 101.79768 
L 83.013341 100.03296 
L 86.101474 100.518 
L 89.095678 99.98136 
L 92.132024 100.49736 
L 95.144889 100.78632 
L 98.15314 101.07528 
L 101.171351 101.26104 
L 104.154163 100.63152 
L 107.013975 100.38384 
L 110.226751 100.84824 
L 112.866628 100.65216 
L 116.260202 101.034 
L 119.275652 101.19912 
L 122.277124 101.10624 
L 125.277793 100.97208 
L 128.331401 100.91016 
L 131.359606 101.7564 
L 134.123672 101.84928 
L 137.386976 101.56032 
L 140.392642 100.85856 
L 143.40603 101.12688 
L 146.389577 101.4468 
L 149.47729 101.02368 
L 152.465239 101.30232 
L 155.491382 100.81728 
L 158.493588 100.79664 
L 161.519207 99.3312 
L 164.536893 99.92976 
L 167.532845 100.78632 
L 170.581281 101.17848 
L 173.609451 101.1372 
L 176.609176 100.21872 
L 179.627107 100.37352 
L 182.658107 100.4664 
L 185.67139 99.88848 
L 188.686491 99.94008 
L 191.763371 99.81624 
L 194.791017 98.93904 
L 197.757301 98.3508 
L 200.799448 98.52624 
L 203.819406 99.78528 
L 206.809137 100.12584 
L 209.810575 100.03296 
L 212.874841 100.45608 
L 215.901053 100.83792 
L 218.892218 100.11552 
L 222.136198 99.87816 
L 224.967181 100.002 
L 227.990109 100.64184 
L 230.980365 101.41584 
L 234.040612 101.21976 
L 237.068362 101.14752 
L 240.068437 101.00304 
L 243.113449 100.86888 
L 246.092803 101.21976 
L 249.115381 101.28168 
L 252.108642 101.20944 
L 255.173222 101.14752 
L 258.200134 100.55928 
L 261.19965 100.65216 
L 264.223661 99.80592 
L 267.232262 99.96072 
L 270.279161 99.6408 
L 273.25212 99.1764 
L 276.325401 99.70272 
L 279.36 99.94008 
" clip-path="url(#p278d062a5d)" style="fill: none; stroke: #f5841e; stroke-width: 0.6"/>
   </g>
  </g>
 </g>
 <defs>
  <clipPath id="p278d062a5d">
   <rect x="8.64" y="4.8" width="270.72" height="103.2"/>
  </clipPath>
 </defs>
</svg>
