<?xml version="1.0" encoding="utf-8" standalone="no"?>
<!DOCTYPE svg PUBLIC "-//W3C//DTD SVG 1.1//EN"
  "http://www.w3.org/Graphics/SVG/1.1/DTD/svg11.dtd">
<svg xmlns:xlink="http://www.w3.org/1999/xlink" width="288pt" height="120pt" viewBox="0 0 288 120" xmlns="http://www.w3.org/2000/svg" version="1.1">
<desc id="nav-meta">{"window":"3m","count":4,"labels":["18.11","18.12","17.01","16.02"],"tick_utc":["2025-11-18T12:00:00Z","2025-12-18T12:00:00Z","2026-01-17T12:00:00Z","2026-02-16T03:32:51Z"],"w":720,"h":300}</desc>

 <metadata>
  <rdf:RDF xmlns:dc="http://purl.org/dc/elements/1.1/" xmlns:cc="http://creativecommons.org/ns#" xmlns:rdf="http://www.w3.org/1999/02/22-rdf-syntax-ns#">
   <cc:Work>
    <dc:type rdf:resource="http://purl.org/dc/dcmitype/StillImage"/>
    <dc:date>2026-02-16T03:32:53.514069</dc:date>
    <dc:format>image/svg+xml</dc:format>
    <dc:creator>
     <cc:Agent>
      <dc:title>Matplotlib v3.10.8, https://matplotlib.org/</dc:title>
     </cc:Agent>
    </dc:creator>
   </cc:Work>
  </rdf:RDF>
 </metadata>
 <defs>
  <style type="text/css">*{stroke-linejoin: round; stroke-linecap: butt}</style>
 </defs>
 <g id="figure_1">
  <g id="patch_1">
   <path d="M 0 120 
L 288 120 
L 288 0 
L 0 0 
L 0 120 
z
" style="fill: none; opacity: 0"/>
  </g>
  <g id="axes_1">
   <g id="patch_2">
    <path d="M 8.64 108 
L 279.36 108 
L 279.36 4.8 
L 8.64 4.8 
L 8.64 108 
z
" style="fill: none"/>
   </g>
   <g id="matplotlib.axis_1"/>
   <g id="matplotlib.axis_2"/>
   <g id="line2d_1">
    <path d="M 8.64 87.36 
L 279.36 87.36 
" clip-path="url(#pad884139ec)" style="fill: none; stroke: #b2b2b2; stroke-opacity: 0.35; stroke-width: 0.5; stroke-linecap: square"/>
   </g>
   <g id="line2d_2">
    <path d="M 8.64 66.72 
L 279.36 66.72 
" clip-path="url(#pad884139ec)" style="fill: none; stroke: #b2b2b2; stroke-opacity: 0.35; stroke-width: 0.5; stroke-linecap: square"/>
   </g>
   <g id="line2d_3">
    <path d="M 8.64 46.08 
L 279.36 46.08 
" clip-path="url(#pad884139ec)" style="fill: none; stroke: #b2b2b2; stroke-opacity: 0.35; stroke-width: 0.5; stroke-linecap: square"/>
   </g>
   <g id="line2d_4">
    <path d="M 8.64 25.44 
L 279.36 25.44 
" clip-path="url(#pad884139ec)" style="fill: none; stroke: #b2b2b2; stroke-opacity: 0.35; stroke-width: 0.5; stroke-linecap: square"/>
   </g>
   <g id="line2d_5">
    <path d="M 8.64 90.79656 
L 11.659817 88.09272 
L 14.679634 89.22792 
L 17.699451 90.00192 
L 20.719269 91.39512 
L 23.739086 91.63248 
L 26.758903 90.75528 
L 29.77872 88.7016 
L 32.798537 88.52616 
L 35.818354 87.45288 
L 38.838171 88.0308 
L 41.857988 88.94928 
L 44.877806 89.3208 
L 47.897623 89.7336 
L 50.91744 91.86984 
L 53.937257 88.60872 
L 56.957074 86.87496 
L 59.976891 88.52616 
L 62.996708 90.11544 
L 66.016526 90.38376 
L 69.036343 90.53856 
L 72.05616 90.08448 
L 75.075977 88.79448 
L 78.095794 89.20728 
L 81.115611 89.22792 
L 84.135428 90.31152 
L 87.155245 90.10512 
L 90.175063 91.09584 
L 93.19488 91.61184 
L 96.214697 91.31256 
L 99.234514 92.87088 
L 102.254331 93.8616 
L 105.274148 92.02464 
L 108.293965 92.13816 
L 111.313782 92.07624 
L 114.3336 92.14848 
L 117.353417 92.64384 
L 120.373234 93.01536 
L 123.393051 93.69648 
L 126.412868 93.11856 
L 129.432685 92.44776 
L 132.452502 92.30328 
L 135.47232 92.87088 
L 138.492137 92.38584 
L 141.511954 92.47872 
L 144.531771 91.88016 
L 147.551588 90.42504 
L 150.571405 90.08448 
L 153.591222 89.92968 
L 156.611039 88.76352 
L 159.630857 87.94824 
L 162.650674 89.2692 
L 165.670491 88.72224 
L 168.690308 89.39304 
L 171.710125 89.40336 
L 174.729942 88.41264 
L 177.749759 88.4952 
L 180.769577 86.86464 
L 183.789394 86.42088 
L 186.809211 87.62832 
L 189.829028 86.93688 
L 192.848845 87.23616 
L 195.868662 88.63968 
L 198.888479 90.0432 
L 201.908296 92.12784 
L 204.928114 91.16808 
L 207.947931 91.46736 
L 210.967748 91.73568 
L 213.987565 91.78728 
L 217.007382 94.0164 
L 220.027199 92.5716 
L 223.047016 91.76664 
L 226.066833 92.33424 
L 229.086651 94.36728 
L 232.106468 94.46016 
L 235.126285 97.71096 
L 238.146102 98.48496 
L 241.165919 97.85544 
L 243.715323 99.10416 
L 246.115134 100.16712 
L 249.133413 102.23112 
L 252.140298 100.54896 
L 255.229145 100.70376 
L 258.224041 100.68312 
L 261.26109 100.95144 
L 264.27465 101.28168 
L 267.283598 101.71512 
L 270.302506 101.84928 
L 273.286008 101.034 
L 276.146481 100.54896 
L 279.36 101.04432 
" clip-path="url(#pad884139ec)" style="fill: none; stroke: #bebebe; stroke-width: 0.5; stroke-linecap: round"/>
   </g>
   <g id="line2d_6">
    <path d="M 8.64 74.74896 
L 11.659817 73.3248 
L 14.679634 74.80056 
L 17.699451 77.556 
L 20.719269 78.55704 
L 23.739086 78.50544 
L 26.758903 78.04104 
L 29.77872 75.76032 
L 32.798537 75.73968 
L 35.818354 74.65608 
L 38.838171 74.83152 
L 41.857988 74.57352 
L 44.877806 75.20304 
L 47.897623 75.17208 
L 50.91744 78.05136 
L 53.937257 75.1308 
L 56.957074 72.16896 
L 59.976891 73.08744 
L 62.996708 74.72832 
L 66.016526 74.48064 
L 69.036343 74.28456 
L 72.05616 73.21128 
L 75.075977 70.2804 
L 78.095794 70.2288 
L 81.115611 71.56008 
L 84.135428 73.79952 
L 87.155245 73.35576 
L 90.175063 74.0988 
L 93.19488 75.5952 
L 96.214697 75.5952 
L 99.234514 77.61792 
L 102.254331 77.63856 
L 105.274148 75.40944 
L 108.293965 75.40944 
L 111.313782 75.04824 
L 114.3336 74.98632 
L 117.353417 75.58488 
L 120.373234 75.87384 
L 123.393051 76.49304 
L 126.412868 76.15248 
L 129.432685 75.82224 
L 132.452502 75.84288 
L 135.47232 76.03896 
L 138.492137 75.51264 
L 141.511954 75.56424 
L 144.531771 75.05856 
L 147.551588 73.26288 
L 150.571405 73.20096 
L 153.591222 73.00488 
L 156.611039 71.68392 
L 159.630857 70.6932 
L 162.650674 72.62304 
L 165.670491 73.52088 
L 168.690308 73.83048 
L 171.710125 73.8408 
L 174.729942 73.29384 
L 177.749759 73.72728 
L 180.769577 70.32168 
L 183.789394 69.77472 
L 186.809211 70.34232 
L 189.829028 70.67256 
L 192.848845 70.51776 
L 195.868662 70.848 
L 198.888479 72.31344 
L 201.908296 76.01832 
L 204.928114 75.41976 
L 207.947931 75.83256 
L 210.967748 75.79128 
L 213.987565 75.82224 
L 217.007382 77.82432 
L 220.027199 76.14216 
L 223.047016 74.75928 
L 226.066833 74.96568 
L 229.086651 77.75208 
L 232.106468 79.48584 
L 235.126285 83.31456 
L 238.146102 85.90488 
L 241.165919 84.79032 
L 243.715323 85.84296 
L 246.115134 88.25784 
L 249.133413 91.41576 
L 252.140298 88.7532 
L 255.229145 88.65 
L 258.224041 88.55712 
L 261.26109 88.96992 
L 264.27465 89.7336 
L 267.283598 90.456 
L 270.302506 90.56952 
L 273.286008 89.15568 
L 276.146481 88.9596 
L 279.36 90.6624 
" clip-path="url(#pad884139ec)" style="fill: none; stroke: #4a8dff; stroke-width: 0.6"/>
   </g>
   <g id="line2d_7">
    <path d="M 8.64 81.34344 
L 11.659817 80.53848 
L 14.679634 82.0452 
L 17.699451 86.92656 
L 20.719269 88.58808 
L 23.739086 88.96992 
L 26.758903 86.7924 
L 29.77872 85.296 
L 32.798537 86.24544 
L 35.818354 82.96368 
L 38.838171 82.13808 
L 41.857988 82.47864 
L 44.877806 82.58184 
L 47.897623 83.03592 
L 50.91744 87.3084 
L 53.937257 82.06584 
L 56.957074 79.71288 
L 59.976891 81.24024 
L 62.996708 84.17112 
L 66.016526 84.24336 
L 69.036343 83.29392 
L 72.05616 82.8192 
L 75.075977 80.64168 
L 78.095794 81.38472 
L 81.115611 80.87904 
L 84.135428 83.13912 
L 87.155245 83.19072 
L 90.175063 85.296 
L 93.19488 87.17424 
L 96.214697 85.71912 
L 99.234514 87.53544 
L 102.254331 88.17528 
L 105.274148 85.41984 
L 108.293965 85.17216 
L 111.313782 84.9348 
L 114.3336 85.01736 
L 117.353417 86.14224 
L 120.373234 85.90488 
L 123.393051 86.328 
L 126.412868 86.24544 
L 129.432685 85.72944 
L 132.452502 85.7088 
L 135.47232 86.40024 
L 138.492137 85.09992 
L 141.511954 86.02872 
L 144.531771 84.78 
L 147.551588 83.53128 
L 150.571405 82.83984 
L 153.591222 82.03488 
L 156.611039 79.39296 
L 159.630857 79.66128 
L 162.650674 82.15872 
L 165.670491 82.43736 
L 168.690308 82.93272 
L 171.710125 83.00496 
L 174.729942 82.6128 
L 177.749759 82.28256 
L 180.769577 78.01008 
L 183.789394 76.19376 
L 186.809211 77.66952 
L 189.829028 77.74176 
L 192.848845 78.1752 
L 195.868662 79.5684 
L 198.888479 80.8068 
L 201.908296 85.20312 
L 204.928114 84.12984 
L 207.947931 84.03696 
L 210.967748 84.06792 
L 213.987565 84.3156 
L 217.007382 87.02976 
L 220.027199 85.21344 
L 223.047016 84.28464 
L 226.066833 84.32592 
L 229.086651 89.08344 
L 232.106468 89.5272 
L 235.126285 95.14128 
L 238.146102 96.98856 
L 241.165919 95.08968 
L 243.715323 97.71096 
L 246.115134 99.80592 
L 249.133413 101.79768 
L 252.140298 100.03296 
L 255.229145 100.518 
L 258.224041 99.98136 
L 261.26109 100.49736 
L 264.27465 100.78632 
L 267.283598 101.07528 
L 270.302506 101.26104 
L 273.286008 100.63152 
L 276.146481 100.38384 
L 279.36 100.84824 
" clip-path="url(#pad884139ec)" style="fill: none; stroke: #f5841e; stroke-width: 0.6"/>
   </g>
  </g>
 </g>
 <defs>
  <clipPath id="pad884139ec">
   <rect x="8.64" y="4.8" width="270.72" height="103.2"/>
  </clipPath>
 </defs>
</svg>
