<?xml version="1.0" encoding="utf-8" standalone="no"?>
<!DOCTYPE svg PUBLIC "-//W3C//DTD SVG 1.1//EN"
  "http://www.w3.org/Graphics/SVG/1.1/DTD/svg11.dtd">
<svg xmlns:xlink="http://www.w3.org/1999/xlink" width="288pt" height="120pt" viewBox="0 0 288 120" xmlns="http://www.w3.org/2000/svg" version="1.1">
<desc id="nav-meta">{"window":"3m","count":4,"labels":["11.04","11.05","09.06","09.07"],"tick_utc":["2026-04-11T03:29:29Z","2026-05-11T04:46:58Z","2026-06-09T04:50:50Z","2026-07-09T04:41:51Z"],"w":720,"h":300}</desc>

 <metadata>
  <rdf:RDF xmlns:dc="http://purl.org/dc/elements/1.1/" xmlns:cc="http://creativecommons.org/ns#" xmlns:rdf="http://www.w3.org/1999/02/22-rdf-syntax-ns#">
   <cc:Work>
    <dc:type rdf:resource="http://purl.org/dc/dcmitype/StillImage"/>
    <dc:date>2026-07-09T10:06:54.422553</dc:date>
    <dc:format>image/svg+xml</dc:format>
    <dc:creator>
     <cc:Agent>
      <dc:title>Matplotlib v3.11.0, https://matplotlib.org/</dc:title>
     </cc:Agent>
    </dc:creator>
   </cc:Work>
  </rdf:RDF>
 </metadata>
 <defs>
  <style type="text/css">*{stroke-linejoin: round; stroke-linecap: butt}</style>
 </defs>
 <g id="figure_1">
  <g id="patch_1">
   <path d="M 0 120 
L 288 120 
L 288 0 
L 0 0 
L 0 120 
z
" style="fill: none; opacity: 0"/>
  </g>
  <g id="axes_1">
   <g id="patch_2">
    <path d="M 8.64 108 
L 279.36 108 
L 279.36 4.8 
L 8.64 4.8 
L 8.64 108 
z
" style="fill: none"/>
   </g>
   <g id="matplotlib.axis_1"/>
   <g id="matplotlib.axis_2"/>
   <g id="line2d_1">
    <path d="M 8.64 87.36 
L 279.36 87.36 
" clip-path="url(#p4cff6b7775)" style="fill: none; stroke: #b2b2b2; stroke-opacity: 0.35; stroke-width: 0.5; stroke-linecap: square"/>
   </g>
   <g id="line2d_2">
    <path d="M 8.64 66.72 
L 279.36 66.72 
" clip-path="url(#p4cff6b7775)" style="fill: none; stroke: #b2b2b2; stroke-opacity: 0.35; stroke-width: 0.5; stroke-linecap: square"/>
   </g>
   <g id="line2d_3">
    <path d="M 8.64 46.08 
L 279.36 46.08 
" clip-path="url(#p4cff6b7775)" style="fill: none; stroke: #b2b2b2; stroke-opacity: 0.35; stroke-width: 0.5; stroke-linecap: square"/>
   </g>
   <g id="line2d_4">
    <path d="M 8.64 25.44 
L 279.36 25.44 
" clip-path="url(#p4cff6b7775)" style="fill: none; stroke: #b2b2b2; stroke-opacity: 0.35; stroke-width: 0.5; stroke-linecap: square"/>
   </g>
   <g id="line2d_5">
    <path d="M 8.64 101.05464 
L 11.73462 101.3952 
L 14.790288 101.47776 
L 17.811017 100.86888 
L 20.848776 101.26104 
L 23.902017 100.99272 
L 26.935905 100.61088 
L 29.942454 100.44576 
L 33.022682 100.94112 
L 36.070293 101.09592 
L 39.097039 101.00304 
L 42.12769 100.69344 
L 45.180086 100.9308 
L 48.228225 100.92048 
L 51.232029 100.81728 
L 54.319401 100.8792 
L 57.39224 100.64184 
L 60.43869 101.1888 
L 63.470467 101.09592 
L 66.51565 101.37456 
L 69.588947 101.21976 
L 72.551443 101.20944 
L 75.653241 101.23008 
L 78.692266 100.92048 
L 81.665388 101.06496 
L 84.759022 100.70376 
L 87.799913 100.55928 
L 90.789396 100.53864 
L 93.840596 99.60984 
L 96.941937 99.72336 
L 100.006015 99.44472 
L 103.003872 99.25896 
L 106.058415 99.32088 
L 109.095118 100.22904 
L 112.150189 100.01232 
L 115.15146 100.43544 
L 118.236931 100.75536 
L 121.306533 101.02368 
L 124.324834 101.02368 
L 127.375788 101.17848 
L 130.43318 100.7244 
L 133.449968 100.75536 
L 136.448284 101.11656 
L 139.536499 100.91016 
L 142.616587 100.89984 
L 145.61061 101.1372 
L 148.681901 101.2404 
L 151.712271 101.6532 
L 154.754604 101.4984 
L 157.750843 101.48808 
L 160.852992 101.32296 
L 163.938041 101.51904 
L 166.948214 101.7048 
L 170.022496 102.54072 
L 173.052162 103.08768 
L 176.042174 103.36632 
L 179.035528 104.22288 
L 182.14095 103.85136 
L 185.194472 103.68624 
L 188.176531 103.43856 
L 191.248139 103.81008 
L 194.306059 103.72752 
L 197.358069 103.50048 
L 200.375912 103.5108 
L 203.438055 103.31472 
L 206.579191 102.95352 
L 209.636619 102.61296 
L 212.579868 102.6336 
L 215.605382 102.9948 
L 218.717067 103.28376 
L 221.63558 103.01544 
L 224.738925 102.69552 
L 227.867992 102.582 
L 230.726337 102.88128 
L 233.777291 103.15992 
L 236.816563 103.36632 
L 239.872231 103.36632 
L 242.87505 102.81936 
L 245.973083 103.0464 
L 249.035155 102.9432 
L 252.0163 102.59232 
L 255.100856 102.40656 
L 258.087701 102.02472 
L 261.094707 101.68416 
L 264.121699 101.3436 
L 267.20629 101.6532 
L 270.275822 101.6532 
L 273.270302 101.63256 
L 276.227766 101.95248 
L 279.36 102.08664 
" clip-path="url(#p4cff6b7775)" style="fill: none; stroke: #bebebe; stroke-width: 0.5; stroke-linecap: round"/>
   </g>
   <g id="line2d_6">
    <path d="M 8.64 86.21448 
L 11.73462 86.66856 
L 14.790288 87.01944 
L 17.811017 84.44976 
L 20.848776 85.05864 
L 23.902017 84.58392 
L 26.935905 85.04832 
L 29.942454 83.71704 
L 33.022682 84.86256 
L 36.070293 85.6572 
L 39.097039 85.27536 
L 42.12769 84.49104 
L 45.180086 84.86256 
L 48.228225 85.32696 
L 51.232029 85.17216 
L 54.319401 85.31664 
L 57.39224 84.11952 
L 60.43869 85.66752 
L 63.470467 85.26504 
L 66.51565 86.26608 
L 69.588947 85.77072 
L 72.551443 85.38888 
L 75.653241 85.3992 
L 78.692266 84.09888 
L 81.665388 84.22272 
L 84.759022 84.34656 
L 87.799913 85.06896 
L 90.789396 85.7604 
L 93.840596 85.0896 
L 96.941937 85.01736 
L 100.006015 84.9348 
L 103.003872 85.296 
L 106.058415 85.35792 
L 109.095118 86.1732 
L 112.150189 85.92552 
L 115.15146 86.55504 
L 118.236931 87.13296 
L 121.306533 88.10304 
L 124.324834 87.9276 
L 127.375788 88.26816 
L 130.43318 87.78312 
L 133.449968 87.95856 
L 136.448284 88.94928 
L 139.536499 88.14432 
L 142.616587 88.33008 
L 145.61061 88.52616 
L 148.681901 88.86672 
L 151.712271 90.22896 
L 154.754604 89.82648 
L 157.750843 89.87808 
L 160.852992 89.46528 
L 163.938041 90.0432 
L 166.948214 89.96064 
L 170.022496 91.99368 
L 173.052162 93.05664 
L 176.042174 93.74808 
L 179.035528 97.02984 
L 182.14095 95.93592 
L 185.194472 95.07936 
L 188.176531 94.46016 
L 191.248139 95.47152 
L 194.306059 95.11032 
L 197.358069 94.82136 
L 200.375912 94.8936 
L 203.438055 94.70784 
L 206.579191 94.04736 
L 209.636619 93.40752 
L 212.579868 92.9844 
L 215.605382 93.93384 
L 218.717067 94.4292 
L 221.63558 94.19184 
L 224.738925 93.87192 
L 227.867992 93.81 
L 230.726337 94.03704 
L 233.777291 94.83168 
L 236.816563 95.48184 
L 239.872231 96.63768 
L 242.87505 96.14232 
L 245.973083 96.30744 
L 249.035155 96.29712 
L 252.0163 96.04944 
L 255.100856 95.9256 
L 258.087701 95.39928 
L 261.094707 94.31568 
L 264.121699 93.57264 
L 267.20629 93.32496 
L 270.275822 93.22176 
L 273.270302 93.35592 
L 276.227766 93.61392 
L 279.36 93.77904 
" clip-path="url(#p4cff6b7775)" style="fill: none; stroke: #4a8dff; stroke-width: 0.6"/>
   </g>
   <g id="line2d_7">
    <path d="M 8.64 99.1764 
L 11.73462 99.70272 
L 14.790288 99.94008 
L 17.811017 98.57784 
L 20.848776 98.65008 
L 23.902017 98.38176 
L 26.935905 98.48496 
L 29.942454 96.70992 
L 33.022682 98.05152 
L 36.070293 98.48496 
L 39.097039 97.96896 
L 42.12769 96.32808 
L 45.180086 96.20424 
L 48.228225 96.16296 
L 51.232029 96.1836 
L 54.319401 96.50352 
L 57.39224 94.76976 
L 60.43869 97.19496 
L 63.470467 96.9576 
L 66.51565 97.9896 
L 69.588947 96.89568 
L 72.551443 95.45088 
L 75.653241 95.67792 
L 78.692266 93.43848 
L 81.665388 92.90184 
L 84.759022 92.25168 
L 87.799913 92.87088 
L 90.789396 94.2744 
L 93.840596 93.1392 
L 96.941937 92.97408 
L 100.006015 92.9844 
L 103.003872 92.60256 
L 106.058415 92.53032 
L 109.095118 94.54272 
L 112.150189 92.85024 
L 115.15146 94.82136 
L 118.236931 95.75016 
L 121.306533 96.97824 
L 124.324834 97.08144 
L 127.375788 97.23624 
L 130.43318 95.94624 
L 133.449968 96.30744 
L 136.448284 98.08248 
L 139.536499 97.2672 
L 142.616587 96.61704 
L 145.61061 97.23624 
L 148.681901 98.08248 
L 151.712271 99.18672 
L 154.754604 99.03192 
L 157.750843 99.1248 
L 160.852992 98.74296 
L 163.938041 99.09384 
L 166.948214 100.0536 
L 170.022496 101.23008 
L 173.052162 101.99376 
L 176.042174 102.08664 
L 179.035528 102.8916 
L 182.14095 102.45816 
L 185.194472 102.28272 
L 188.176531 102.10728 
L 191.248139 102.582 
L 194.306059 102.29304 
L 197.358069 102.08664 
L 200.375912 102.066 
L 203.438055 101.86992 
L 206.579191 101.48808 
L 209.636619 101.40552 
L 212.579868 101.4984 
L 215.605382 101.97312 
L 218.717067 102.26208 
L 221.63558 102.066 
L 224.738925 101.90088 
L 227.867992 101.90088 
L 230.726337 102.0144 
L 233.777291 102.25176 
L 236.816563 102.6336 
L 239.872231 102.88128 
L 242.87505 102.77808 
L 245.973083 102.85032 
L 249.035155 102.93288 
L 252.0163 102.95352 
L 255.100856 103.00512 
L 258.087701 102.69552 
L 261.094707 102.55104 
L 264.121699 102.2724 
L 267.20629 102.21048 
L 270.275822 102.12792 
L 273.270302 102.13824 
L 276.227766 102.25176 
L 279.36 102.36528 
" clip-path="url(#p4cff6b7775)" style="fill: none; stroke: #f5841e; stroke-width: 0.6"/>
   </g>
  </g>
 </g>
 <defs>
  <clipPath id="p4cff6b7775">
   <rect x="8.64" y="4.8" width="270.72" height="103.2"/>
  </clipPath>
 </defs>
</svg>
