<?xml version="1.0" encoding="utf-8" standalone="no"?>
<!DOCTYPE svg PUBLIC "-//W3C//DTD SVG 1.1//EN"
  "http://www.w3.org/Graphics/SVG/1.1/DTD/svg11.dtd">
<svg xmlns:xlink="http://www.w3.org/1999/xlink" width="288pt" height="120pt" viewBox="0 0 288 120" xmlns="http://www.w3.org/2000/svg" version="1.1">
<desc id="nav-meta">{"window":"3m","count":4,"labels":["19.04","19.05","17.06","17.07"],"tick_utc":["2026-04-19T03:58:52Z","2026-05-19T04:46:06Z","2026-06-17T05:30:00Z","2026-07-17T03:51:40Z"],"w":720,"h":300}</desc>

 <metadata>
  <rdf:RDF xmlns:dc="http://purl.org/dc/elements/1.1/" xmlns:cc="http://creativecommons.org/ns#" xmlns:rdf="http://www.w3.org/1999/02/22-rdf-syntax-ns#">
   <cc:Work>
    <dc:type rdf:resource="http://purl.org/dc/dcmitype/StillImage"/>
    <dc:date>2026-07-17T08:55:32.443462</dc:date>
    <dc:format>image/svg+xml</dc:format>
    <dc:creator>
     <cc:Agent>
      <dc:title>Matplotlib v3.11.0, https://matplotlib.org/</dc:title>
     </cc:Agent>
    </dc:creator>
   </cc:Work>
  </rdf:RDF>
 </metadata>
 <defs>
  <style type="text/css">*{stroke-linejoin: round; stroke-linecap: butt}</style>
 </defs>
 <g id="figure_1">
  <g id="patch_1">
   <path d="M 0 120 
L 288 120 
L 288 0 
L 0 0 
L 0 120 
z
" style="fill: none; opacity: 0"/>
  </g>
  <g id="axes_1">
   <g id="patch_2">
    <path d="M 8.64 108 
L 279.36 108 
L 279.36 4.8 
L 8.64 4.8 
L 8.64 108 
z
" style="fill: none"/>
   </g>
   <g id="matplotlib.axis_1"/>
   <g id="matplotlib.axis_2"/>
   <g id="line2d_1">
    <path d="M 8.64 87.36 
L 279.36 87.36 
" clip-path="url(#p2068e99185)" style="fill: none; stroke: #b2b2b2; stroke-opacity: 0.35; stroke-width: 0.5; stroke-linecap: square"/>
   </g>
   <g id="line2d_2">
    <path d="M 8.64 66.72 
L 279.36 66.72 
" clip-path="url(#p2068e99185)" style="fill: none; stroke: #b2b2b2; stroke-opacity: 0.35; stroke-width: 0.5; stroke-linecap: square"/>
   </g>
   <g id="line2d_3">
    <path d="M 8.64 46.08 
L 279.36 46.08 
" clip-path="url(#p2068e99185)" style="fill: none; stroke: #b2b2b2; stroke-opacity: 0.35; stroke-width: 0.5; stroke-linecap: square"/>
   </g>
   <g id="line2d_4">
    <path d="M 8.64 25.44 
L 279.36 25.44 
" clip-path="url(#p2068e99185)" style="fill: none; stroke: #b2b2b2; stroke-opacity: 0.35; stroke-width: 0.5; stroke-linecap: square"/>
   </g>
   <g id="line2d_5">
    <path d="M 8.64 100.94112 
L 11.689503 101.09592 
L 14.718128 101.00304 
L 17.750661 100.69344 
L 20.804952 100.9308 
L 23.854984 100.92048 
L 26.860653 100.81728 
L 29.949941 100.8792 
L 33.024688 100.64184 
L 36.07303 101.1888 
L 39.106689 101.09592 
L 42.153763 101.37456 
L 45.228968 101.21976 
L 48.193303 101.20944 
L 51.297026 101.23008 
L 54.337939 100.92048 
L 57.312907 101.06496 
L 60.408462 100.70376 
L 63.45124 100.55928 
L 66.44258 100.53864 
L 69.495674 99.60984 
L 72.59894 99.72336 
L 75.664921 99.44472 
L 78.66464 99.25896 
L 81.721079 99.32088 
L 84.759667 100.22904 
L 87.816635 100.01232 
L 90.819769 100.43544 
L 93.907156 100.75536 
L 96.978664 101.02368 
L 99.998839 101.02368 
L 103.051687 101.17848 
L 106.110978 100.7244 
L 109.129639 100.75536 
L 112.129816 101.11656 
L 115.219949 100.91016 
L 118.301949 100.89984 
L 121.29783 101.1372 
L 124.371028 101.2404 
L 127.40328 101.6532 
L 130.447502 101.4984 
L 133.445601 101.48808 
L 136.549677 101.32296 
L 139.636641 101.51904 
L 142.648683 101.7048 
L 145.724874 102.54072 
L 148.756421 103.08768 
L 151.748288 103.36632 
L 154.743501 104.22288 
L 157.850851 103.85136 
L 160.906269 103.68624 
L 163.89018 103.43856 
L 166.963695 103.81008 
L 170.023514 103.72752 
L 173.077418 103.50048 
L 176.097135 103.5108 
L 179.161179 103.31472 
L 182.304265 102.95352 
L 185.363591 102.61296 
L 188.308668 102.6336 
L 191.33606 102.9948 
L 194.449677 103.28376 
L 197.370002 103.01544 
L 200.475275 102.69552 
L 203.606284 102.582 
L 206.466404 102.88128 
L 209.519252 103.15992 
L 212.560411 103.36632 
L 215.617976 103.36632 
L 218.62266 102.81936 
L 221.722616 103.0464 
L 224.78659 102.9432 
L 227.769585 102.59232 
L 230.856056 102.40656 
L 233.844755 102.02472 
L 236.853628 101.68416 
L 239.8825 101.3436 
L 242.969006 101.6532 
L 246.040444 101.6532 
L 249.036783 101.63256 
L 251.996084 101.95248 
L 255.130262 102.08664 
L 258.165365 101.9112 
L 261.117518 102.066 
L 264.204976 102.18984 
L 267.253599 102.31368 
L 270.225222 102.45816 
L 273.267965 102.08664 
L 276.317538 102.21048 
L 279.36 102.4272 
" clip-path="url(#p2068e99185)" style="fill: none; stroke: #bebebe; stroke-width: 0.5; stroke-linecap: round"/>
   </g>
   <g id="line2d_6">
    <path d="M 8.64 84.86256 
L 11.689503 85.6572 
L 14.718128 85.27536 
L 17.750661 84.49104 
L 20.804952 84.86256 
L 23.854984 85.32696 
L 26.860653 85.17216 
L 29.949941 85.31664 
L 33.024688 84.11952 
L 36.07303 85.66752 
L 39.106689 85.26504 
L 42.153763 86.26608 
L 45.228968 85.77072 
L 48.193303 85.38888 
L 51.297026 85.3992 
L 54.337939 84.09888 
L 57.312907 84.22272 
L 60.408462 84.34656 
L 63.45124 85.06896 
L 66.44258 85.7604 
L 69.495674 85.0896 
L 72.59894 85.01736 
L 75.664921 84.9348 
L 78.66464 85.296 
L 81.721079 85.35792 
L 84.759667 86.1732 
L 87.816635 85.92552 
L 90.819769 86.55504 
L 93.907156 87.13296 
L 96.978664 88.10304 
L 99.998839 87.9276 
L 103.051687 88.26816 
L 106.110978 87.78312 
L 109.129639 87.95856 
L 112.129816 88.94928 
L 115.219949 88.14432 
L 118.301949 88.33008 
L 121.29783 88.52616 
L 124.371028 88.86672 
L 127.40328 90.22896 
L 130.447502 89.82648 
L 133.445601 89.87808 
L 136.549677 89.46528 
L 139.636641 90.0432 
L 142.648683 89.96064 
L 145.724874 91.99368 
L 148.756421 93.05664 
L 151.748288 93.74808 
L 154.743501 97.02984 
L 157.850851 95.93592 
L 160.906269 95.07936 
L 163.89018 94.46016 
L 166.963695 95.47152 
L 170.023514 95.11032 
L 173.077418 94.82136 
L 176.097135 94.8936 
L 179.161179 94.70784 
L 182.304265 94.04736 
L 185.363591 93.40752 
L 188.308668 92.9844 
L 191.33606 93.93384 
L 194.449677 94.4292 
L 197.370002 94.19184 
L 200.475275 93.87192 
L 203.606284 93.81 
L 206.466404 94.03704 
L 209.519252 94.83168 
L 212.560411 95.48184 
L 215.617976 96.63768 
L 218.62266 96.14232 
L 221.722616 96.30744 
L 224.78659 96.29712 
L 227.769585 96.04944 
L 230.856056 95.9256 
L 233.844755 95.39928 
L 236.853628 94.31568 
L 239.8825 93.57264 
L 242.969006 93.32496 
L 246.040444 93.22176 
L 249.036783 93.35592 
L 251.996084 93.61392 
L 255.130262 93.77904 
L 258.165365 93.26304 
L 261.117518 92.92248 
L 264.204976 92.71608 
L 267.253599 93.15984 
L 270.225222 93.17016 
L 273.267965 91.80792 
L 276.317538 91.14744 
L 279.36 92.13816 
" clip-path="url(#p2068e99185)" style="fill: none; stroke: #4a8dff; stroke-width: 0.6"/>
   </g>
   <g id="line2d_7">
    <path d="M 8.64 98.05152 
L 11.689503 98.48496 
L 14.718128 97.96896 
L 17.750661 96.32808 
L 20.804952 96.20424 
L 23.854984 96.16296 
L 26.860653 96.1836 
L 29.949941 96.50352 
L 33.024688 94.76976 
L 36.07303 97.19496 
L 39.106689 96.9576 
L 42.153763 97.9896 
L 45.228968 96.89568 
L 48.193303 95.45088 
L 51.297026 95.67792 
L 54.337939 93.43848 
L 57.312907 92.90184 
L 60.408462 92.25168 
L 63.45124 92.87088 
L 66.44258 94.2744 
L 69.495674 93.1392 
L 72.59894 92.97408 
L 75.664921 92.9844 
L 78.66464 92.60256 
L 81.721079 92.53032 
L 84.759667 94.54272 
L 87.816635 92.85024 
L 90.819769 94.82136 
L 93.907156 95.75016 
L 96.978664 96.97824 
L 99.998839 97.08144 
L 103.051687 97.23624 
L 106.110978 95.94624 
L 109.129639 96.30744 
L 112.129816 98.08248 
L 115.219949 97.2672 
L 118.301949 96.61704 
L 121.29783 97.23624 
L 124.371028 98.08248 
L 127.40328 99.18672 
L 130.447502 99.03192 
L 133.445601 99.1248 
L 136.549677 98.74296 
L 139.636641 99.09384 
L 142.648683 100.0536 
L 145.724874 101.23008 
L 148.756421 101.99376 
L 151.748288 102.08664 
L 154.743501 102.8916 
L 157.850851 102.45816 
L 160.906269 102.28272 
L 163.89018 102.10728 
L 166.963695 102.582 
L 170.023514 102.29304 
L 173.077418 102.08664 
L 176.097135 102.066 
L 179.161179 101.86992 
L 182.304265 101.48808 
L 185.363591 101.40552 
L 188.308668 101.4984 
L 191.33606 101.97312 
L 194.449677 102.26208 
L 197.370002 102.066 
L 200.475275 101.90088 
L 203.606284 101.90088 
L 206.466404 102.0144 
L 209.519252 102.25176 
L 212.560411 102.6336 
L 215.617976 102.88128 
L 218.62266 102.77808 
L 221.722616 102.85032 
L 224.78659 102.93288 
L 227.769585 102.95352 
L 230.856056 103.00512 
L 233.844755 102.69552 
L 236.853628 102.55104 
L 239.8825 102.2724 
L 242.969006 102.21048 
L 246.040444 102.12792 
L 249.036783 102.13824 
L 251.996084 102.25176 
L 255.130262 102.36528 
L 258.165365 101.94216 
L 261.117518 101.92152 
L 264.204976 101.9112 
L 267.253599 102.2208 
L 270.225222 102.31368 
L 273.267965 101.79768 
L 276.317538 101.81832 
L 279.36 102.07632 
" clip-path="url(#p2068e99185)" style="fill: none; stroke: #f5841e; stroke-width: 0.6"/>
   </g>
  </g>
 </g>
 <defs>
  <clipPath id="p2068e99185">
   <rect x="8.64" y="4.8" width="270.72" height="103.2"/>
  </clipPath>
 </defs>
</svg>
