<?xml version="1.0" encoding="utf-8" standalone="no"?>
<!DOCTYPE svg PUBLIC "-//W3C//DTD SVG 1.1//EN"
  "http://www.w3.org/Graphics/SVG/1.1/DTD/svg11.dtd">
<svg xmlns:xlink="http://www.w3.org/1999/xlink" width="288pt" height="120pt" viewBox="0 0 288 120" xmlns="http://www.w3.org/2000/svg" version="1.1">
<desc id="nav-meta">{"window":"3m","count":4,"labels":["17.02","19.03","17.04","17.05"],"tick_utc":["2026-02-17T00:31:58Z","2026-03-19T03:32:50Z","2026-04-17T03:55:44Z","2026-05-17T04:42:26Z"],"w":720,"h":300}</desc>

 <metadata>
  <rdf:RDF xmlns:dc="http://purl.org/dc/elements/1.1/" xmlns:cc="http://creativecommons.org/ns#" xmlns:rdf="http://www.w3.org/1999/02/22-rdf-syntax-ns#">
   <cc:Work>
    <dc:type rdf:resource="http://purl.org/dc/dcmitype/StillImage"/>
    <dc:date>2026-05-17T04:42:27.830453</dc:date>
    <dc:format>image/svg+xml</dc:format>
    <dc:creator>
     <cc:Agent>
      <dc:title>Matplotlib v3.10.9, https://matplotlib.org/</dc:title>
     </cc:Agent>
    </dc:creator>
   </cc:Work>
  </rdf:RDF>
 </metadata>
 <defs>
  <style type="text/css">*{stroke-linejoin: round; stroke-linecap: butt}</style>
 </defs>
 <g id="figure_1">
  <g id="patch_1">
   <path d="M 0 120 
L 288 120 
L 288 0 
L 0 0 
L 0 120 
z
" style="fill: none; opacity: 0"/>
  </g>
  <g id="axes_1">
   <g id="patch_2">
    <path d="M 8.64 108 
L 279.36 108 
L 279.36 4.8 
L 8.64 4.8 
L 8.64 108 
z
" style="fill: none"/>
   </g>
   <g id="matplotlib.axis_1"/>
   <g id="matplotlib.axis_2"/>
   <g id="line2d_1">
    <path d="M 8.64 87.36 
L 279.36 87.36 
" clip-path="url(#p9159211785)" style="fill: none; stroke: #b2b2b2; stroke-opacity: 0.35; stroke-width: 0.5; stroke-linecap: square"/>
   </g>
   <g id="line2d_2">
    <path d="M 8.64 66.72 
L 279.36 66.72 
" clip-path="url(#p9159211785)" style="fill: none; stroke: #b2b2b2; stroke-opacity: 0.35; stroke-width: 0.5; stroke-linecap: square"/>
   </g>
   <g id="line2d_3">
    <path d="M 8.64 46.08 
L 279.36 46.08 
" clip-path="url(#p9159211785)" style="fill: none; stroke: #b2b2b2; stroke-opacity: 0.35; stroke-width: 0.5; stroke-linecap: square"/>
   </g>
   <g id="line2d_4">
    <path d="M 8.64 25.44 
L 279.36 25.44 
" clip-path="url(#p9159211785)" style="fill: none; stroke: #b2b2b2; stroke-opacity: 0.35; stroke-width: 0.5; stroke-linecap: square"/>
   </g>
   <g id="line2d_5">
    <path d="M 8.64 100.81728 
L 12.052396 101.034 
L 15.084571 101.4984 
L 18.102692 101.33328 
L 21.120004 101.1372 
L 24.190549 101.06496 
L 27.23555 102.09696 
L 30.014947 102.05568 
L 33.296351 101.4984 
L 36.318688 100.60056 
L 39.34879 100.80696 
L 42.348885 101.45712 
L 45.453724 100.55928 
L 48.458247 101.10624 
L 51.501174 100.8792 
L 54.520032 100.74504 
L 57.562432 100.21872 
L 60.596856 100.53864 
L 63.609425 101.07528 
L 66.67477 101.38488 
L 69.719735 101.26104 
L 72.736099 100.78632 
L 75.770769 100.91016 
L 78.81858 100.99272 
L 81.848577 100.38384 
L 84.880401 100.50768 
L 87.974347 100.60056 
L 91.018785 99.76464 
L 94.001522 99.49632 
L 97.060543 99.40344 
L 100.097251 100.09488 
L 103.103565 100.3632 
L 106.12165 100.19808 
L 109.202912 100.47672 
L 112.24591 100.79664 
L 115.253664 100.26 
L 118.515638 99.83688 
L 121.362323 100.13616 
L 124.402018 100.80696 
L 127.408859 101.38488 
L 130.48608 101.3436 
L 133.530624 101.292 
L 136.547339 101.28168 
L 139.60924 101.28168 
L 142.605119 101.8596 
L 145.644462 101.88024 
L 148.654325 101.72544 
L 151.735903 101.68416 
L 154.779604 101.47776 
L 157.795756 101.78736 
L 160.83654 101.09592 
L 163.861828 101.46744 
L 166.925627 101.3436 
L 169.915076 101.05464 
L 173.005403 101.3952 
L 176.056834 101.47776 
L 179.073373 100.86888 
L 182.106918 101.26104 
L 185.155924 100.99272 
L 188.185605 100.61088 
L 191.187984 100.44576 
L 194.26394 100.94112 
L 197.307324 101.09592 
L 200.329872 101.00304 
L 203.35632 100.69344 
L 206.404482 100.9308 
L 209.448394 100.92048 
L 212.448032 100.81728 
L 215.531121 100.8792 
L 218.599698 100.64184 
L 221.641923 101.1888 
L 224.669495 101.09592 
L 227.710455 101.37456 
L 230.779489 101.21976 
L 233.737876 101.20944 
L 236.835371 101.23008 
L 239.870182 100.92048 
L 242.83918 101.06496 
L 245.928524 100.70376 
L 248.965197 100.55928 
L 251.950534 100.53864 
L 254.997502 99.60984 
L 258.094541 99.72336 
L 261.154369 99.44472 
L 264.148069 99.25896 
L 267.198375 99.32088 
L 270.230867 100.22904 
L 273.2817 100.01232 
L 276.278808 100.43544 
L 279.36 100.75536 
" clip-path="url(#p9159211785)" style="fill: none; stroke: #bebebe; stroke-width: 0.5; stroke-linecap: round"/>
   </g>
   <g id="line2d_6">
    <path d="M 8.64 89.94 
L 12.052396 90.00192 
L 15.084571 90.3528 
L 18.102692 90.62112 
L 21.120004 90.5076 
L 24.190549 90.3528 
L 27.23555 92.004 
L 30.014947 92.13816 
L 33.296351 91.25064 
L 36.318688 89.166 
L 39.34879 89.56848 
L 42.348885 90.93072 
L 45.453724 89.41368 
L 48.458247 90.37344 
L 51.501174 89.79552 
L 54.520032 90.23928 
L 57.562432 88.0824 
L 60.596856 88.7532 
L 63.609425 90.16704 
L 66.67477 90.67272 
L 69.719735 90.18768 
L 72.736099 89.2692 
L 75.770769 89.54784 
L 78.81858 89.49624 
L 81.848577 88.31976 
L 84.880401 88.45392 
L 87.974347 88.46424 
L 91.018785 86.38992 
L 94.001522 84.80064 
L 97.060543 84.8316 
L 100.097251 86.586 
L 103.103565 87.74184 
L 106.12165 87.618 
L 109.202912 88.19592 
L 112.24591 89.08344 
L 115.253664 87.89664 
L 118.515638 87.3084 
L 121.362323 87.65928 
L 124.402018 88.96992 
L 127.408859 90.07416 
L 130.48608 89.76456 
L 133.530624 89.3724 
L 136.547339 89.00088 
L 139.60924 88.42296 
L 142.605119 88.81512 
L 145.644462 89.10408 
L 148.654325 89.14536 
L 151.735903 89.07312 
L 154.779604 87.9792 
L 157.795756 88.29912 
L 160.83654 86.38992 
L 163.861828 87.24648 
L 166.925627 87.1536 
L 169.915076 86.21448 
L 173.005403 86.66856 
L 176.056834 87.01944 
L 179.073373 84.44976 
L 182.106918 85.05864 
L 185.155924 84.58392 
L 188.185605 85.04832 
L 191.187984 83.71704 
L 194.26394 84.86256 
L 197.307324 85.6572 
L 200.329872 85.27536 
L 203.35632 84.49104 
L 206.404482 84.86256 
L 209.448394 85.32696 
L 212.448032 85.17216 
L 215.531121 85.31664 
L 218.599698 84.11952 
L 221.641923 85.66752 
L 224.669495 85.26504 
L 227.710455 86.26608 
L 230.779489 85.77072 
L 233.737876 85.38888 
L 236.835371 85.3992 
L 239.870182 84.09888 
L 242.83918 84.22272 
L 245.928524 84.34656 
L 248.965197 85.06896 
L 251.950534 85.7604 
L 254.997502 85.0896 
L 258.094541 85.01736 
L 261.154369 84.9348 
L 264.148069 85.296 
L 267.198375 85.35792 
L 270.230867 86.1732 
L 273.2817 85.92552 
L 276.278808 86.55504 
L 279.36 87.13296 
" clip-path="url(#p9159211785)" style="fill: none; stroke: #4a8dff; stroke-width: 0.6"/>
   </g>
   <g id="line2d_7">
    <path d="M 8.64 100.65216 
L 12.052396 101.034 
L 15.084571 101.19912 
L 18.102692 101.10624 
L 21.120004 100.97208 
L 24.190549 100.91016 
L 27.23555 101.7564 
L 30.014947 101.84928 
L 33.296351 101.56032 
L 36.318688 100.85856 
L 39.34879 101.12688 
L 42.348885 101.4468 
L 45.453724 101.02368 
L 48.458247 101.30232 
L 51.501174 100.81728 
L 54.520032 100.79664 
L 57.562432 99.3312 
L 60.596856 99.92976 
L 63.609425 100.78632 
L 66.67477 101.17848 
L 69.719735 101.1372 
L 72.736099 100.21872 
L 75.770769 100.37352 
L 78.81858 100.4664 
L 81.848577 99.88848 
L 84.880401 99.94008 
L 87.974347 99.81624 
L 91.018785 98.93904 
L 94.001522 98.3508 
L 97.060543 98.52624 
L 100.097251 99.78528 
L 103.103565 100.12584 
L 106.12165 100.03296 
L 109.202912 100.45608 
L 112.24591 100.83792 
L 115.253664 100.11552 
L 118.515638 99.87816 
L 121.362323 100.002 
L 124.402018 100.64184 
L 127.408859 101.41584 
L 130.48608 101.21976 
L 133.530624 101.14752 
L 136.547339 101.00304 
L 139.60924 100.86888 
L 142.605119 101.21976 
L 145.644462 101.28168 
L 148.654325 101.20944 
L 151.735903 101.14752 
L 154.779604 100.55928 
L 157.795756 100.65216 
L 160.83654 99.80592 
L 163.861828 99.96072 
L 166.925627 99.6408 
L 169.915076 99.1764 
L 173.005403 99.70272 
L 176.056834 99.94008 
L 179.073373 98.57784 
L 182.106918 98.65008 
L 185.155924 98.38176 
L 188.185605 98.48496 
L 191.187984 96.70992 
L 194.26394 98.05152 
L 197.307324 98.48496 
L 200.329872 97.96896 
L 203.35632 96.32808 
L 206.404482 96.20424 
L 209.448394 96.16296 
L 212.448032 96.1836 
L 215.531121 96.50352 
L 218.599698 94.76976 
L 221.641923 97.19496 
L 224.669495 96.9576 
L 227.710455 97.9896 
L 230.779489 96.89568 
L 233.737876 95.45088 
L 236.835371 95.67792 
L 239.870182 93.43848 
L 242.83918 92.90184 
L 245.928524 92.25168 
L 248.965197 92.87088 
L 251.950534 94.2744 
L 254.997502 93.1392 
L 258.094541 92.97408 
L 261.154369 92.9844 
L 264.148069 92.60256 
L 267.198375 92.53032 
L 270.230867 94.54272 
L 273.2817 92.85024 
L 276.278808 94.82136 
L 279.36 95.75016 
" clip-path="url(#p9159211785)" style="fill: none; stroke: #f5841e; stroke-width: 0.6"/>
   </g>
  </g>
 </g>
 <defs>
  <clipPath id="p9159211785">
   <rect x="8.64" y="4.8" width="270.72" height="103.2"/>
  </clipPath>
 </defs>
</svg>
