<?xml version="1.0" encoding="utf-8" standalone="no"?>
<!DOCTYPE svg PUBLIC "-//W3C//DTD SVG 1.1//EN"
  "http://www.w3.org/Graphics/SVG/1.1/DTD/svg11.dtd">
<svg xmlns:xlink="http://www.w3.org/1999/xlink" width="288pt" height="120pt" viewBox="0 0 288 120" xmlns="http://www.w3.org/2000/svg" version="1.1">
<desc id="nav-meta">{"window":"3m","count":4,"labels":["02.01","01.02","03.03","02.04"],"tick_utc":["2026-01-02T12:00:00Z","2026-02-01T12:00:00Z","2026-03-03T03:22:17Z","2026-04-02T03:35:34Z"],"w":720,"h":300}</desc>

 <metadata>
  <rdf:RDF xmlns:dc="http://purl.org/dc/elements/1.1/" xmlns:cc="http://creativecommons.org/ns#" xmlns:rdf="http://www.w3.org/1999/02/22-rdf-syntax-ns#">
   <cc:Work>
    <dc:type rdf:resource="http://purl.org/dc/dcmitype/StillImage"/>
    <dc:date>2026-04-02T03:35:37.169093</dc:date>
    <dc:format>image/svg+xml</dc:format>
    <dc:creator>
     <cc:Agent>
      <dc:title>Matplotlib v3.10.8, https://matplotlib.org/</dc:title>
     </cc:Agent>
    </dc:creator>
   </cc:Work>
  </rdf:RDF>
 </metadata>
 <defs>
  <style type="text/css">*{stroke-linejoin: round; stroke-linecap: butt}</style>
 </defs>
 <g id="figure_1">
  <g id="patch_1">
   <path d="M 0 120 
L 288 120 
L 288 0 
L 0 0 
L 0 120 
z
" style="fill: none; opacity: 0"/>
  </g>
  <g id="axes_1">
   <g id="patch_2">
    <path d="M 8.64 108 
L 279.36 108 
L 279.36 4.8 
L 8.64 4.8 
L 8.64 108 
z
" style="fill: none"/>
   </g>
   <g id="matplotlib.axis_1"/>
   <g id="matplotlib.axis_2"/>
   <g id="line2d_1">
    <path d="M 8.64 87.36 
L 279.36 87.36 
" clip-path="url(#p725cc9ce9a)" style="fill: none; stroke: #b2b2b2; stroke-opacity: 0.35; stroke-width: 0.5; stroke-linecap: square"/>
   </g>
   <g id="line2d_2">
    <path d="M 8.64 66.72 
L 279.36 66.72 
" clip-path="url(#p725cc9ce9a)" style="fill: none; stroke: #b2b2b2; stroke-opacity: 0.35; stroke-width: 0.5; stroke-linecap: square"/>
   </g>
   <g id="line2d_3">
    <path d="M 8.64 46.08 
L 279.36 46.08 
" clip-path="url(#p725cc9ce9a)" style="fill: none; stroke: #b2b2b2; stroke-opacity: 0.35; stroke-width: 0.5; stroke-linecap: square"/>
   </g>
   <g id="line2d_4">
    <path d="M 8.64 25.44 
L 279.36 25.44 
" clip-path="url(#p725cc9ce9a)" style="fill: none; stroke: #b2b2b2; stroke-opacity: 0.35; stroke-width: 0.5; stroke-linecap: square"/>
   </g>
   <g id="line2d_5">
    <path d="M 8.64 91.88016 
L 11.659754 90.42504 
L 14.679507 90.08448 
L 17.699261 89.92968 
L 20.719014 88.76352 
L 23.738768 87.94824 
L 26.758521 89.2692 
L 29.778275 88.72224 
L 32.798029 89.39304 
L 35.817782 89.40336 
L 38.837536 88.41264 
L 41.857289 88.4952 
L 44.877043 86.86464 
L 47.896797 86.42088 
L 50.91655 87.62832 
L 53.936304 86.93688 
L 56.956057 87.23616 
L 59.975811 88.63968 
L 62.995564 90.0432 
L 66.015318 92.12784 
L 69.035072 91.16808 
L 72.054825 91.46736 
L 75.074579 91.73568 
L 78.094332 91.78728 
L 81.114086 94.0164 
L 84.13384 92.5716 
L 87.153593 91.76664 
L 90.173347 92.33424 
L 93.1931 94.36728 
L 96.212854 94.46016 
L 99.232607 97.71096 
L 102.252361 98.48496 
L 105.272115 97.85544 
L 107.821465 99.10416 
L 110.221225 100.16712 
L 113.239441 102.23112 
L 116.246263 100.54896 
L 119.335044 100.70376 
L 122.329878 100.68312 
L 125.366862 100.95144 
L 128.38036 101.28168 
L 131.389243 101.71512 
L 134.408088 101.84928 
L 137.391528 101.034 
L 140.251941 100.54896 
L 143.465392 101.04432 
L 146.105824 100.81728 
L 149.500111 101.034 
L 152.516194 101.4984 
L 155.518298 101.33328 
L 158.519597 101.1372 
L 161.573847 101.06496 
L 164.602688 102.09696 
L 167.367336 102.05568 
L 170.631326 101.4984 
L 173.637623 100.60056 
L 176.651645 100.80696 
L 179.635818 101.45712 
L 182.724181 100.55928 
L 185.712758 101.10624 
L 188.739537 100.8792 
L 191.742374 100.74504 
L 194.768628 100.21872 
L 197.786949 100.53864 
L 200.78353 101.07528 
L 203.832608 101.38488 
L 206.861413 101.26104 
L 209.861769 100.78632 
L 212.880335 100.91016 
L 215.911971 100.99272 
L 218.925888 100.38384 
L 221.941622 100.50768 
L 225.01915 100.60056 
L 228.047431 99.76464 
L 231.014339 99.49632 
L 234.057125 99.40344 
L 237.077718 100.09488 
L 240.068078 100.3632 
L 243.070146 100.19808 
L 246.135056 100.47672 
L 249.161905 100.79664 
L 252.153698 100.26 
L 255.39836 99.83688 
L 258.229938 100.13616 
L 261.253502 100.80696 
L 264.244386 101.38488 
L 267.305277 101.3436 
L 270.333663 101.292 
L 273.334368 101.28168 
L 276.38002 101.28168 
L 279.36 101.8596 
" clip-path="url(#p725cc9ce9a)" style="fill: none; stroke: #bebebe; stroke-width: 0.5; stroke-linecap: round"/>
   </g>
   <g id="line2d_6">
    <path d="M 8.64 75.05856 
L 11.659754 73.26288 
L 14.679507 73.20096 
L 17.699261 73.00488 
L 20.719014 71.68392 
L 23.738768 70.6932 
L 26.758521 72.62304 
L 29.778275 73.52088 
L 32.798029 73.83048 
L 35.817782 73.8408 
L 38.837536 73.29384 
L 41.857289 73.72728 
L 44.877043 70.32168 
L 47.896797 69.77472 
L 50.91655 70.34232 
L 53.936304 70.67256 
L 56.956057 70.51776 
L 59.975811 70.848 
L 62.995564 72.31344 
L 66.015318 76.01832 
L 69.035072 75.41976 
L 72.054825 75.83256 
L 75.074579 75.79128 
L 78.094332 75.82224 
L 81.114086 77.82432 
L 84.13384 76.14216 
L 87.153593 74.75928 
L 90.173347 74.96568 
L 93.1931 77.75208 
L 96.212854 79.48584 
L 99.232607 83.31456 
L 102.252361 85.90488 
L 105.272115 84.79032 
L 107.821465 85.84296 
L 110.221225 88.25784 
L 113.239441 91.41576 
L 116.246263 88.7532 
L 119.335044 88.65 
L 122.329878 88.55712 
L 125.366862 88.96992 
L 128.38036 89.7336 
L 131.389243 90.456 
L 134.408088 90.56952 
L 137.391528 89.15568 
L 140.251941 88.9596 
L 143.465392 90.6624 
L 146.105824 89.94 
L 149.500111 90.00192 
L 152.516194 90.3528 
L 155.518298 90.62112 
L 158.519597 90.5076 
L 161.573847 90.3528 
L 164.602688 92.004 
L 167.367336 92.13816 
L 170.631326 91.25064 
L 173.637623 89.166 
L 176.651645 89.56848 
L 179.635818 90.93072 
L 182.724181 89.41368 
L 185.712758 90.37344 
L 188.739537 89.79552 
L 191.742374 90.23928 
L 194.768628 88.0824 
L 197.786949 88.7532 
L 200.78353 90.16704 
L 203.832608 90.67272 
L 206.861413 90.18768 
L 209.861769 89.2692 
L 212.880335 89.54784 
L 215.911971 89.49624 
L 218.925888 88.31976 
L 221.941622 88.45392 
L 225.01915 88.46424 
L 228.047431 86.38992 
L 231.014339 84.80064 
L 234.057125 84.8316 
L 237.077718 86.586 
L 240.068078 87.74184 
L 243.070146 87.618 
L 246.135056 88.19592 
L 249.161905 89.08344 
L 252.153698 87.89664 
L 255.39836 87.3084 
L 258.229938 87.65928 
L 261.253502 88.96992 
L 264.244386 90.07416 
L 267.305277 89.76456 
L 270.333663 89.3724 
L 273.334368 89.00088 
L 276.38002 88.42296 
L 279.36 88.81512 
" clip-path="url(#p725cc9ce9a)" style="fill: none; stroke: #4a8dff; stroke-width: 0.6"/>
   </g>
   <g id="line2d_7">
    <path d="M 8.64 84.78 
L 11.659754 83.53128 
L 14.679507 82.83984 
L 17.699261 82.03488 
L 20.719014 79.39296 
L 23.738768 79.66128 
L 26.758521 82.15872 
L 29.778275 82.43736 
L 32.798029 82.93272 
L 35.817782 83.00496 
L 38.837536 82.6128 
L 41.857289 82.28256 
L 44.877043 78.01008 
L 47.896797 76.19376 
L 50.91655 77.66952 
L 53.936304 77.74176 
L 56.956057 78.1752 
L 59.975811 79.5684 
L 62.995564 80.8068 
L 66.015318 85.20312 
L 69.035072 84.12984 
L 72.054825 84.03696 
L 75.074579 84.06792 
L 78.094332 84.3156 
L 81.114086 87.02976 
L 84.13384 85.21344 
L 87.153593 84.28464 
L 90.173347 84.32592 
L 93.1931 89.08344 
L 96.212854 89.5272 
L 99.232607 95.14128 
L 102.252361 96.98856 
L 105.272115 95.08968 
L 107.821465 97.71096 
L 110.221225 99.80592 
L 113.239441 101.79768 
L 116.246263 100.03296 
L 119.335044 100.518 
L 122.329878 99.98136 
L 125.366862 100.49736 
L 128.38036 100.78632 
L 131.389243 101.07528 
L 134.408088 101.26104 
L 137.391528 100.63152 
L 140.251941 100.38384 
L 143.465392 100.84824 
L 146.105824 100.65216 
L 149.500111 101.034 
L 152.516194 101.19912 
L 155.518298 101.10624 
L 158.519597 100.97208 
L 161.573847 100.91016 
L 164.602688 101.7564 
L 167.367336 101.84928 
L 170.631326 101.56032 
L 173.637623 100.85856 
L 176.651645 101.12688 
L 179.635818 101.4468 
L 182.724181 101.02368 
L 185.712758 101.30232 
L 188.739537 100.81728 
L 191.742374 100.79664 
L 194.768628 99.3312 
L 197.786949 99.92976 
L 200.78353 100.78632 
L 203.832608 101.17848 
L 206.861413 101.1372 
L 209.861769 100.21872 
L 212.880335 100.37352 
L 215.911971 100.4664 
L 218.925888 99.88848 
L 221.941622 99.94008 
L 225.01915 99.81624 
L 228.047431 98.93904 
L 231.014339 98.3508 
L 234.057125 98.52624 
L 237.077718 99.78528 
L 240.068078 100.12584 
L 243.070146 100.03296 
L 246.135056 100.45608 
L 249.161905 100.83792 
L 252.153698 100.11552 
L 255.39836 99.87816 
L 258.229938 100.002 
L 261.253502 100.64184 
L 264.244386 101.41584 
L 267.305277 101.21976 
L 270.333663 101.14752 
L 273.334368 101.00304 
L 276.38002 100.86888 
L 279.36 101.21976 
" clip-path="url(#p725cc9ce9a)" style="fill: none; stroke: #f5841e; stroke-width: 0.6"/>
   </g>
  </g>
 </g>
 <defs>
  <clipPath id="p725cc9ce9a">
   <rect x="8.64" y="4.8" width="270.72" height="103.2"/>
  </clipPath>
 </defs>
</svg>
