<?xml version="1.0" encoding="utf-8" standalone="no"?>
<!DOCTYPE svg PUBLIC "-//W3C//DTD SVG 1.1//EN"
  "http://www.w3.org/Graphics/SVG/1.1/DTD/svg11.dtd">
<svg xmlns:xlink="http://www.w3.org/1999/xlink" width="288pt" height="120pt" viewBox="0 0 288 120" xmlns="http://www.w3.org/2000/svg" version="1.1">
<desc id="nav-meta">{"window":"1y","count":4,"labels":["17.06","17.10","16.02","17.06"],"tick_utc":["2025-06-17T12:00:00Z","2025-10-17T12:00:00Z","2026-02-16T03:32:51Z","2026-06-17T05:30:00Z"],"w":720,"h":300}</desc>

 <metadata>
  <rdf:RDF xmlns:dc="http://purl.org/dc/elements/1.1/" xmlns:cc="http://creativecommons.org/ns#" xmlns:rdf="http://www.w3.org/1999/02/22-rdf-syntax-ns#">
   <cc:Work>
    <dc:type rdf:resource="http://purl.org/dc/dcmitype/StillImage"/>
    <dc:date>2026-06-17T11:22:56.580409</dc:date>
    <dc:format>image/svg+xml</dc:format>
    <dc:creator>
     <cc:Agent>
      <dc:title>Matplotlib v3.11.0, https://matplotlib.org/</dc:title>
     </cc:Agent>
    </dc:creator>
   </cc:Work>
  </rdf:RDF>
 </metadata>
 <defs>
  <style type="text/css">*{stroke-linejoin: round; stroke-linecap: butt}</style>
 </defs>
 <g id="figure_1">
  <g id="patch_1">
   <path d="M 0 120 
L 288 120 
L 288 0 
L 0 0 
L 0 120 
z
" style="fill: none; opacity: 0"/>
  </g>
  <g id="axes_1">
   <g id="patch_2">
    <path d="M 8.64 108 
L 279.36 108 
L 279.36 4.8 
L 8.64 4.8 
L 8.64 108 
z
" style="fill: none"/>
   </g>
   <g id="matplotlib.axis_1"/>
   <g id="matplotlib.axis_2"/>
   <g id="line2d_1">
    <path d="M 8.64 87.36 
L 279.36 87.36 
" clip-path="url(#p3dfd6d737d)" style="fill: none; stroke: #b2b2b2; stroke-opacity: 0.35; stroke-width: 0.5; stroke-linecap: square"/>
   </g>
   <g id="line2d_2">
    <path d="M 8.64 66.72 
L 279.36 66.72 
" clip-path="url(#p3dfd6d737d)" style="fill: none; stroke: #b2b2b2; stroke-opacity: 0.35; stroke-width: 0.5; stroke-linecap: square"/>
   </g>
   <g id="line2d_3">
    <path d="M 8.64 46.08 
L 279.36 46.08 
" clip-path="url(#p3dfd6d737d)" style="fill: none; stroke: #b2b2b2; stroke-opacity: 0.35; stroke-width: 0.5; stroke-linecap: square"/>
   </g>
   <g id="line2d_4">
    <path d="M 8.64 25.44 
L 279.36 25.44 
" clip-path="url(#p3dfd6d737d)" style="fill: none; stroke: #b2b2b2; stroke-opacity: 0.35; stroke-width: 0.5; stroke-linecap: square"/>
   </g>
   <g id="line2d_5">
    <path d="M 8.64 85.13088 
L 9.382249 86.07 
L 10.124499 86.5344 
L 10.866748 86.31768 
L 12.351247 89.97096 
L 13.093496 90.48696 
L 13.835746 86.9472 
L 14.577995 86.66856 
L 15.320244 87.32904 
L 16.062494 88.53648 
L 16.804743 87.6696 
L 17.546993 85.30632 
L 18.289242 84.61488 
L 19.031491 84.17112 
L 19.773741 86.3796 
L 20.51599 84.92448 
L 21.25824 84.89352 
L 22.000489 86.13192 
L 22.742738 86.1732 
L 23.484988 84.99672 
L 24.227237 85.85328 
L 24.969486 85.01736 
L 25.711736 83.55192 
L 26.453985 81.7356 
L 27.196235 82.03488 
L 27.938484 82.65408 
L 29.422983 82.15872 
L 30.165232 81.70464 
L 30.907482 79.01112 
L 31.649731 78.39192 
L 32.39198 78.04104 
L 33.13423 78.16488 
L 33.876479 77.05032 
L 34.618729 72.82944 
L 35.360978 70.41456 
L 36.103227 74.69736 
L 36.845477 76.6272 
L 37.587726 75.63648 
L 38.329975 75.97704 
L 39.072225 74.976 
L 39.814474 76.49304 
L 40.556724 76.99872 
L 41.298973 77.90688 
L 42.041222 79.4652 
L 42.783472 82.02456 
L 43.525721 83.19072 
L 44.267971 82.27224 
L 45.01022 80.21856 
L 45.752469 81.67368 
L 46.494719 80.5488 
L 47.236968 78.588 
L 47.979217 78.19584 
L 48.721467 77.21544 
L 49.463716 76.524 
L 50.205966 78.68088 
L 50.948215 73.88208 
L 51.690464 71.364 
L 52.432714 73.8408 
L 53.174963 75.79128 
L 53.917213 74.65608 
L 54.659462 74.14008 
L 55.401711 76.50336 
L 56.143961 78.30936 
L 56.88621 75.3372 
L 57.628459 77.25672 
L 58.370709 71.78712 
L 59.112958 70.75512 
L 59.855208 70.24944 
L 60.597457 75.35784 
L 61.339706 72.95328 
L 62.081956 70.96152 
L 62.824205 67.87584 
L 63.566455 70.46616 
L 64.308704 71.11632 
L 65.050953 71.61168 
L 65.793203 72.7056 
L 66.535452 69.33096 
L 67.277701 68.9388 
L 68.019951 71.12664 
L 68.7622 70.90992 
L 69.50445 71.80776 
L 70.246699 70.074 
L 70.988948 68.01 
L 71.731198 67.10184 
L 72.473447 65.29584 
L 73.215697 64.01616 
L 73.957946 60.31128 
L 74.700195 60.19776 
L 75.442445 60.786 
L 76.184694 62.61264 
L 76.926944 61.74576 
L 77.669193 59.57856 
L 78.411442 58.86648 
L 79.153692 61.38456 
L 79.895941 61.07496 
L 80.63819 61.83864 
L 81.38044 66.29688 
L 82.122689 67.97904 
L 82.864939 68.69112 
L 83.607188 73.9956 
L 84.349437 70.45584 
L 85.091687 70.87896 
L 85.833936 68.91816 
L 86.576186 68.3196 
L 87.318435 69.47544 
L 88.802934 62.39592 
L 89.545183 62.81904 
L 90.287432 64.22256 
L 91.029682 64.05744 
L 91.771931 62.9532 
L 92.514181 66.14208 
L 93.25643 63.91296 
L 93.998679 66.17304 
L 94.740929 74.6148 
L 95.483178 77.78304 
L 96.225428 72.66432 
L 96.967677 69.69216 
L 97.709926 71.09568 
L 99.194425 76.06992 
L 99.936674 76.76136 
L 100.678924 75.25464 
L 101.421173 75.24432 
L 102.163423 74.63544 
L 102.905672 75.73968 
L 103.647921 77.31864 
L 104.390171 74.202 
L 105.13242 73.64472 
L 105.87467 73.48992 
L 106.616919 71.83872 
L 107.359168 72.17928 
L 108.101418 73.38672 
L 108.843667 73.43832 
L 109.585916 76.15248 
L 110.328166 75.3372 
L 111.070415 75.58488 
L 111.812665 75.35784 
L 112.554914 81.168 
L 113.297163 84.01632 
L 114.039413 82.06584 
L 114.781662 84.19176 
L 115.523912 82.27224 
L 116.266161 83.29392 
L 117.00841 81.62208 
L 117.75066 80.72424 
L 118.492909 84.33624 
L 119.235159 84.64584 
L 119.977408 86.844 
L 120.719657 88.52616 
L 121.461907 88.36104 
L 122.204156 88.93896 
L 122.946405 90.79656 
L 123.688655 88.09272 
L 124.430904 89.22792 
L 125.173154 90.00192 
L 125.915403 91.39512 
L 126.657652 91.63248 
L 127.399902 90.75528 
L 128.142151 88.7016 
L 128.884401 88.52616 
L 129.62665 87.45288 
L 130.368899 88.0308 
L 131.111149 88.94928 
L 132.595647 89.7336 
L 133.337897 91.86984 
L 134.080146 88.60872 
L 134.822396 86.87496 
L 136.306894 90.11544 
L 137.791393 90.53856 
L 138.533643 90.08448 
L 139.275892 88.79448 
L 140.018141 89.20728 
L 140.760391 89.22792 
L 141.50264 90.31152 
L 142.244889 90.10512 
L 142.987139 91.09584 
L 143.729388 91.61184 
L 144.471638 91.31256 
L 145.213887 92.87088 
L 145.956136 93.8616 
L 146.698386 92.02464 
L 147.440635 92.13816 
L 148.182885 92.07624 
L 148.925134 92.14848 
L 151.151882 93.69648 
L 152.636381 92.44776 
L 153.37863 92.30328 
L 154.12088 92.87088 
L 154.863129 92.38584 
L 155.605378 92.47872 
L 156.347628 91.88016 
L 157.089877 90.42504 
L 157.832127 90.08448 
L 158.574376 89.92968 
L 159.316625 88.76352 
L 160.058875 87.94824 
L 160.801124 89.2692 
L 161.543374 88.72224 
L 162.285623 89.39304 
L 163.027872 89.40336 
L 163.770122 88.41264 
L 164.512371 88.4952 
L 165.25462 86.86464 
L 165.99687 86.42088 
L 166.739119 87.62832 
L 167.481369 86.93688 
L 168.223618 87.23616 
L 169.708117 90.0432 
L 170.450366 92.12784 
L 171.192616 91.16808 
L 172.677114 91.73568 
L 173.419364 91.78728 
L 174.161613 94.0164 
L 174.903862 92.5716 
L 175.646112 91.76664 
L 176.388361 92.33424 
L 177.130611 94.36728 
L 177.87286 94.46016 
L 178.615109 97.71096 
L 179.357359 98.48496 
L 180.099608 97.85544 
L 181.31609 100.16712 
L 182.057961 102.23112 
L 182.797032 100.54896 
L 183.556248 100.70376 
L 184.292372 100.68312 
L 185.779568 101.28168 
L 186.519146 101.71512 
L 187.261172 101.84928 
L 187.994496 101.034 
L 188.697579 100.54896 
L 189.487439 101.04432 
L 190.136452 100.81728 
L 190.970761 101.034 
L 191.712108 101.4984 
L 193.938461 101.06496 
L 194.682944 102.09696 
L 195.362489 102.05568 
L 196.164771 101.4984 
L 196.903713 100.60056 
L 197.644554 100.80696 
L 198.378058 101.45712 
L 199.137171 100.55928 
L 199.871757 101.10624 
L 201.353825 100.74504 
L 202.097672 100.21872 
L 202.839569 100.53864 
L 203.576123 101.07528 
L 204.32558 101.38488 
L 205.070054 101.26104 
L 205.807536 100.78632 
L 207.294663 100.99272 
L 208.035478 100.38384 
L 209.53319 100.60056 
L 210.277535 99.76464 
L 211.006795 99.49632 
L 211.754706 99.40344 
L 212.497162 100.09488 
L 213.232186 100.3632 
L 213.970088 100.19808 
L 215.467431 100.79664 
L 216.202807 100.26 
L 217.000339 99.83688 
L 217.696335 100.13616 
L 219.174674 101.38488 
L 222.157589 101.28168 
L 222.890062 101.8596 
L 223.633162 101.88024 
L 224.369054 101.72544 
L 225.12248 101.68416 
L 225.866645 101.47776 
L 226.604075 101.78736 
L 227.347527 101.09592 
L 228.087191 101.46744 
L 228.83627 101.3436 
L 229.567171 101.05464 
L 230.322736 101.3952 
L 231.068791 101.47776 
L 231.806315 100.86888 
L 232.547998 101.26104 
L 234.76826 100.44576 
L 235.520311 100.94112 
L 236.264399 101.09592 
L 237.003393 101.00304 
L 237.74334 100.69344 
L 238.488596 100.9308 
L 240.72 100.8792 
L 241.470248 100.64184 
L 242.214052 101.1888 
L 242.954274 101.09592 
L 243.697769 101.37456 
L 244.448128 101.21976 
L 245.928753 101.23008 
L 246.670744 100.92048 
L 247.396645 101.06496 
L 248.15197 100.70376 
L 248.894417 100.55928 
L 249.624313 100.53864 
L 250.369277 99.60984 
L 251.126483 99.72336 
L 252.606532 99.25896 
L 253.352312 99.32088 
L 254.093736 100.22904 
L 254.839645 100.01232 
L 256.325751 100.75536 
L 257.075208 101.02368 
L 257.81214 101.02368 
L 258.557043 101.17848 
L 259.30352 100.7244 
L 260.040082 100.75536 
L 260.772134 101.11656 
L 261.526136 100.91016 
L 262.278153 100.89984 
L 263.009157 101.1372 
L 263.759026 101.2404 
L 264.498904 101.6532 
L 265.241704 101.4984 
L 265.973249 101.48808 
L 266.730652 101.32296 
L 268.218828 101.7048 
L 268.969428 102.54072 
L 269.709134 103.08768 
L 270.439159 103.36632 
L 271.17 104.22288 
L 271.928202 103.85136 
L 273.401816 103.43856 
L 274.151763 103.81008 
L 274.898368 103.72752 
L 275.64353 103.50048 
L 276.38035 103.5108 
L 277.127986 103.31472 
L 278.641393 102.61296 
L 279.36 102.6336 
L 279.36 102.6336 
" clip-path="url(#p3dfd6d737d)" style="fill: none; stroke: #bebebe; stroke-width: 0.5; stroke-linecap: round"/>
   </g>
   <g id="line2d_6">
    <path d="M 8.64 81.5808 
L 9.382249 82.26192 
L 10.866748 82.15872 
L 11.608998 83.88216 
L 12.351247 85.89456 
L 13.093496 86.5344 
L 13.835746 83.61384 
L 14.577995 83.2836 
L 15.320244 83.71704 
L 16.062494 83.748 
L 17.546993 83.41776 
L 18.289242 82.44768 
L 19.031491 82.6644 
L 19.773741 83.89248 
L 20.51599 81.38472 
L 21.25824 81.14736 
L 22.000489 82.34448 
L 22.742738 82.23096 
L 23.484988 81.426 
L 24.227237 81.8388 
L 24.969486 80.76552 
L 26.453985 75.83256 
L 27.196235 75.67776 
L 27.938484 75.91512 
L 29.422983 74.88312 
L 30.165232 73.09776 
L 30.907482 69.6096 
L 31.649731 67.91712 
L 32.39198 66.94704 
L 33.13423 66.24528 
L 33.876479 63.80976 
L 34.618729 63.70656 
L 35.360978 63.9852 
L 36.103227 65.71896 
L 36.845477 64.5528 
L 38.329975 64.05744 
L 39.072225 62.25144 
L 39.814474 63.39696 
L 40.556724 63.366 
L 41.298973 63.08736 
L 42.041222 64.72824 
L 42.783472 67.89648 
L 43.525721 69.16584 
L 44.267971 67.69008 
L 45.01022 64.4496 
L 45.752469 65.97696 
L 46.494719 64.914 
L 47.236968 61.54968 
L 47.979217 60.04296 
L 48.721467 56.28648 
L 49.463716 56.47224 
L 50.205966 56.83344 
L 50.948215 51.22968 
L 51.690464 48.89736 
L 52.432714 52.00368 
L 53.174963 53.84064 
L 53.917213 53.90256 
L 54.659462 53.00472 
L 55.401711 55.5228 
L 56.143961 59.12448 
L 56.88621 55.32672 
L 57.628459 56.90568 
L 58.370709 47.92728 
L 59.112958 48.75288 
L 59.855208 48.68064 
L 60.597457 54.57336 
L 61.339706 51.2916 
L 62.081956 52.80864 
L 62.824205 52.69512 
L 63.566455 54.82104 
L 65.050953 54.45984 
L 65.793203 55.7292 
L 66.535452 55.39896 
L 67.277701 53.55168 
L 68.019951 55.81176 
L 68.7622 55.6776 
L 69.50445 56.18328 
L 70.246699 55.71888 
L 71.731198 55.63632 
L 72.473447 55.07904 
L 73.215697 53.41752 
L 73.957946 49.71264 
L 74.700195 50.32152 
L 75.442445 51.17808 
L 76.184694 52.44744 
L 76.926944 52.74672 
L 77.669193 51.4464 
L 78.411442 51.46704 
L 79.153692 53.2524 
L 79.895941 53.08728 
L 80.63819 53.5104 
L 81.38044 57.26688 
L 82.122689 57.76224 
L 82.864939 58.02024 
L 83.607188 62.26176 
L 84.349437 59.68176 
L 85.091687 59.9604 
L 85.833936 58.12344 
L 86.576186 57.02952 
L 87.318435 58.09248 
L 88.060684 55.13064 
L 88.802934 53.046 
L 89.545183 52.5816 
L 90.287432 52.9944 
L 91.029682 52.5816 
L 91.771931 50.0016 
L 92.514181 53.48976 
L 93.25643 52.40616 
L 93.998679 54.75912 
L 94.740929 62.67456 
L 95.483178 63.95424 
L 96.225428 57.86544 
L 96.967677 56.57544 
L 97.709926 58.31952 
L 98.452176 60.4764 
L 99.194425 61.85928 
L 99.936674 62.73648 
L 100.678924 61.8696 
L 101.421173 60.45576 
L 102.163423 60.54864 
L 102.905672 62.04504 
L 103.647921 63.16992 
L 104.390171 62.36496 
L 105.13242 61.21944 
L 105.87467 60.9408 
L 106.616919 57.83448 
L 107.359168 58.40208 
L 108.101418 60.49704 
L 109.585916 63.1596 
L 110.328166 62.49912 
L 111.070415 62.1276 
L 111.812665 61.56 
L 113.297163 70.66224 
L 114.039413 68.72208 
L 114.781662 70.4868 
L 115.523912 68.61888 
L 116.266161 69.11424 
L 117.00841 66.5136 
L 117.75066 66.68904 
L 118.492909 68.8872 
L 119.235159 68.9904 
L 119.977408 71.5704 
L 120.719657 73.48992 
L 121.461907 72.54048 
L 122.946405 74.74896 
L 123.688655 73.3248 
L 124.430904 74.80056 
L 125.173154 77.556 
L 125.915403 78.55704 
L 126.657652 78.50544 
L 127.399902 78.04104 
L 128.142151 75.76032 
L 128.884401 75.73968 
L 129.62665 74.65608 
L 130.368899 74.83152 
L 131.111149 74.57352 
L 131.853398 75.20304 
L 132.595647 75.17208 
L 133.337897 78.05136 
L 134.822396 72.16896 
L 135.564645 73.08744 
L 136.306894 74.72832 
L 137.791393 74.28456 
L 138.533643 73.21128 
L 139.275892 70.2804 
L 140.018141 70.2288 
L 140.760391 71.56008 
L 141.50264 73.79952 
L 142.244889 73.35576 
L 142.987139 74.0988 
L 143.729388 75.5952 
L 144.471638 75.5952 
L 145.213887 77.61792 
L 145.956136 77.63856 
L 146.698386 75.40944 
L 147.440635 75.40944 
L 148.182885 75.04824 
L 148.925134 74.98632 
L 149.667383 75.58488 
L 150.409633 75.87384 
L 151.151882 76.49304 
L 152.636381 75.82224 
L 153.37863 75.84288 
L 154.12088 76.03896 
L 154.863129 75.51264 
L 155.605378 75.56424 
L 156.347628 75.05856 
L 157.089877 73.26288 
L 157.832127 73.20096 
L 158.574376 73.00488 
L 159.316625 71.68392 
L 160.058875 70.6932 
L 160.801124 72.62304 
L 161.543374 73.52088 
L 162.285623 73.83048 
L 163.027872 73.8408 
L 163.770122 73.29384 
L 164.512371 73.72728 
L 165.25462 70.32168 
L 165.99687 69.77472 
L 166.739119 70.34232 
L 167.481369 70.67256 
L 168.223618 70.51776 
L 168.965867 70.848 
L 169.708117 72.31344 
L 170.450366 76.01832 
L 171.192616 75.41976 
L 171.934865 75.83256 
L 173.419364 75.82224 
L 174.161613 77.82432 
L 174.903862 76.14216 
L 175.646112 74.75928 
L 176.388361 74.96568 
L 177.130611 77.75208 
L 177.87286 79.48584 
L 178.615109 83.31456 
L 179.357359 85.90488 
L 180.099608 84.79032 
L 180.726233 85.84296 
L 182.057961 91.41576 
L 182.797032 88.7532 
L 184.292372 88.55712 
L 185.038857 88.96992 
L 186.519146 90.456 
L 187.261172 90.56952 
L 187.994496 89.15568 
L 188.697579 88.9596 
L 189.487439 90.6624 
L 190.136452 89.94 
L 190.970761 90.00192 
L 192.450019 90.62112 
L 193.938461 90.3528 
L 194.682944 92.004 
L 195.362489 92.13816 
L 196.164771 91.25064 
L 196.903713 89.166 
L 197.644554 89.56848 
L 198.378058 90.93072 
L 199.137171 89.41368 
L 199.871757 90.37344 
L 200.615733 89.79552 
L 201.353825 90.23928 
L 202.097672 88.0824 
L 202.839569 88.7532 
L 203.576123 90.16704 
L 204.32558 90.67272 
L 205.070054 90.18768 
L 205.807536 89.2692 
L 206.549493 89.54784 
L 207.294663 89.49624 
L 208.035478 88.31976 
L 208.77674 88.45392 
L 209.53319 88.46424 
L 210.277535 86.38992 
L 211.006795 84.80064 
L 211.754706 84.8316 
L 212.497162 86.586 
L 213.232186 87.74184 
L 213.970088 87.618 
L 214.723437 88.19592 
L 215.467431 89.08344 
L 216.202807 87.89664 
L 217.000339 87.3084 
L 217.696335 87.65928 
L 219.174674 90.07416 
L 220.671406 89.3724 
L 221.408974 89.00088 
L 222.157589 88.42296 
L 223.633162 89.10408 
L 224.369054 89.14536 
L 225.12248 89.07312 
L 225.866645 87.9792 
L 226.604075 88.29912 
L 227.347527 86.38992 
L 228.087191 87.24648 
L 228.83627 87.1536 
L 229.567171 86.21448 
L 231.068791 87.01944 
L 231.806315 84.44976 
L 232.547998 85.05864 
L 233.29346 84.58392 
L 234.034198 85.04832 
L 234.76826 83.71704 
L 235.520311 84.86256 
L 236.264399 85.6572 
L 237.003393 85.27536 
L 237.74334 84.49104 
L 239.232813 85.32696 
L 239.966205 85.17216 
L 240.72 85.31664 
L 241.470248 84.11952 
L 242.214052 85.66752 
L 242.954274 85.26504 
L 243.697769 86.26608 
L 245.171435 85.38888 
L 245.928753 85.3992 
L 246.670744 84.09888 
L 248.15197 84.34656 
L 249.624313 85.7604 
L 250.369277 85.0896 
L 251.874591 84.9348 
L 252.606532 85.296 
L 253.352312 85.35792 
L 254.093736 86.1732 
L 254.839645 85.92552 
L 256.325751 87.13296 
L 257.075208 88.10304 
L 257.81214 87.9276 
L 258.557043 88.26816 
L 259.30352 87.78312 
L 260.040082 87.95856 
L 260.772134 88.94928 
L 261.526136 88.14432 
L 263.009157 88.52616 
L 263.759026 88.86672 
L 264.498904 90.22896 
L 265.241704 89.82648 
L 265.973249 89.87808 
L 266.730652 89.46528 
L 267.483881 90.0432 
L 268.218828 89.96064 
L 268.969428 91.99368 
L 269.709134 93.05664 
L 270.439159 93.74808 
L 271.17 97.02984 
L 271.928202 95.93592 
L 272.673733 95.07936 
L 273.401816 94.46016 
L 274.151763 95.47152 
L 275.64353 94.82136 
L 276.38035 94.8936 
L 277.127986 94.70784 
L 278.641393 93.40752 
L 279.36 92.9844 
L 279.36 92.9844 
" clip-path="url(#p3dfd6d737d)" style="fill: none; stroke: #4a8dff; stroke-width: 0.6"/>
   </g>
   <g id="line2d_7">
    <path d="M 8.64 65.8944 
L 9.382249 68.24736 
L 10.866748 68.23704 
L 11.608998 69.69216 
L 12.351247 71.50848 
L 13.093496 72.21024 
L 13.835746 67.3908 
L 14.577995 66.90576 
L 15.320244 65.59512 
L 16.062494 65.86344 
L 16.804743 65.76024 
L 17.546993 65.50224 
L 18.289242 64.398 
L 19.031491 65.70864 
L 19.773741 67.2876 
L 20.51599 63.95424 
L 21.25824 63.14928 
L 22.000489 64.76952 
L 22.742738 64.58376 
L 23.484988 63.55176 
L 24.227237 64.5012 
L 24.969486 63.82008 
L 25.711736 61.36392 
L 26.453985 56.64768 
L 27.196235 54.89328 
L 27.938484 55.04808 
L 28.680733 53.29368 
L 29.422983 52.55064 
L 30.165232 54.77976 
L 30.907482 53.67552 
L 31.649731 52.95312 
L 32.39198 54.45984 
L 33.13423 54.55272 
L 33.876479 55.22352 
L 34.618729 54.98616 
L 35.360978 52.4268 
L 36.103227 53.79936 
L 36.845477 54.08832 
L 37.587726 54.92424 
L 38.329975 54.4908 
L 39.072225 52.98408 
L 39.814474 54.44952 
L 40.556724 54.60432 
L 41.298973 54.62496 
L 42.783472 59.38248 
L 43.525721 60.09456 
L 44.267971 58.39176 
L 45.01022 57.41136 
L 45.752469 58.464 
L 46.494719 57.5352 
L 47.236968 55.0068 
L 47.979217 55.81176 
L 48.721467 55.99752 
L 49.463716 53.13888 
L 50.205966 53.64456 
L 50.948215 52.1688 
L 51.690464 48.69096 
L 52.432714 54.0264 
L 53.174963 55.13064 
L 53.917213 54.96552 
L 54.659462 54.92424 
L 55.401711 56.25552 
L 56.143961 59.8572 
L 56.88621 58.32984 
L 57.628459 60.23904 
L 58.370709 55.65696 
L 59.112958 57.18432 
L 59.855208 59.21736 
L 60.597457 62.55072 
L 61.339706 60.82728 
L 62.081956 61.47744 
L 62.824205 60.12552 
L 63.566455 64.31544 
L 64.308704 63.99552 
L 65.050953 64.5528 
L 65.793203 63.60336 
L 66.535452 61.5084 
L 67.277701 60.96144 
L 68.019951 61.98312 
L 68.7622 62.05536 
L 69.50445 62.51976 
L 70.988948 60.64152 
L 71.731198 61.13688 
L 72.473447 58.6188 
L 73.215697 57.03984 
L 73.957946 56.35872 
L 74.700195 56.5548 
L 75.442445 57.174 
L 76.184694 57.14304 
L 76.926944 55.7292 
L 77.669193 56.04912 
L 78.411442 55.33704 
L 79.153692 56.87472 
L 79.895941 56.8128 
L 80.63819 57.24624 
L 81.38044 59.93976 
L 82.122689 60.64152 
L 82.864939 59.29992 
L 83.607188 63.80976 
L 84.349437 63.03576 
L 85.091687 63.09768 
L 86.576186 58.27824 
L 87.318435 58.5672 
L 88.060684 53.93352 
L 88.802934 51.74568 
L 89.545183 50.04288 
L 90.287432 49.90872 
L 91.771931 47.43192 
L 92.514181 50.80656 
L 93.25643 48.90768 
L 93.998679 50.6208 
L 94.740929 59.42376 
L 95.483178 61.85928 
L 96.225428 57.35976 
L 96.967677 57.3288 
L 97.709926 59.46504 
L 99.194425 64.72824 
L 99.936674 66.42072 
L 100.678924 65.688 
L 101.421173 64.17096 
L 102.163423 62.10696 
L 102.905672 64.30512 
L 103.647921 65.20296 
L 104.390171 62.68488 
L 105.13242 61.70448 
L 105.87467 61.06464 
L 106.616919 58.1028 
L 107.359168 58.40208 
L 108.101418 59.68176 
L 108.843667 62.6952 
L 109.585916 64.56312 
L 110.328166 63.18024 
L 111.070415 62.72616 
L 111.812665 62.06568 
L 112.554914 66.33816 
L 113.297163 71.40528 
L 114.039413 69.08328 
L 114.781662 71.7252 
L 115.523912 69.57864 
L 116.266161 70.72416 
L 117.00841 68.2164 
L 117.75066 66.978 
L 118.492909 70.03272 
L 119.235159 71.5188 
L 119.977408 73.3764 
L 120.719657 78.846 
L 121.461907 77.75208 
L 122.204156 78.88728 
L 122.946405 81.34344 
L 123.688655 80.53848 
L 124.430904 82.0452 
L 125.173154 86.92656 
L 125.915403 88.58808 
L 126.657652 88.96992 
L 127.399902 86.7924 
L 128.142151 85.296 
L 128.884401 86.24544 
L 129.62665 82.96368 
L 130.368899 82.13808 
L 131.111149 82.47864 
L 131.853398 82.58184 
L 132.595647 83.03592 
L 133.337897 87.3084 
L 134.080146 82.06584 
L 134.822396 79.71288 
L 135.564645 81.24024 
L 136.306894 84.17112 
L 137.049144 84.24336 
L 137.791393 83.29392 
L 138.533643 82.8192 
L 139.275892 80.64168 
L 140.018141 81.38472 
L 140.760391 80.87904 
L 141.50264 83.13912 
L 142.244889 83.19072 
L 143.729388 87.17424 
L 144.471638 85.71912 
L 145.213887 87.53544 
L 145.956136 88.17528 
L 146.698386 85.41984 
L 148.182885 84.9348 
L 148.925134 85.01736 
L 149.667383 86.14224 
L 150.409633 85.90488 
L 151.151882 86.328 
L 151.894131 86.24544 
L 152.636381 85.72944 
L 153.37863 85.7088 
L 154.12088 86.40024 
L 154.863129 85.09992 
L 155.605378 86.02872 
L 157.089877 83.53128 
L 158.574376 82.03488 
L 159.316625 79.39296 
L 160.058875 79.66128 
L 160.801124 82.15872 
L 161.543374 82.43736 
L 162.285623 82.93272 
L 163.027872 83.00496 
L 164.512371 82.28256 
L 165.25462 78.01008 
L 165.99687 76.19376 
L 166.739119 77.66952 
L 167.481369 77.74176 
L 168.223618 78.1752 
L 169.708117 80.8068 
L 170.450366 85.20312 
L 171.192616 84.12984 
L 171.934865 84.03696 
L 172.677114 84.06792 
L 173.419364 84.3156 
L 174.161613 87.02976 
L 174.903862 85.21344 
L 175.646112 84.28464 
L 176.388361 84.32592 
L 177.130611 89.08344 
L 177.87286 89.5272 
L 178.615109 95.14128 
L 179.357359 96.98856 
L 180.099608 95.08968 
L 181.31609 99.80592 
L 182.057961 101.79768 
L 182.797032 100.03296 
L 183.556248 100.518 
L 184.292372 99.98136 
L 185.038857 100.49736 
L 187.261172 101.26104 
L 187.994496 100.63152 
L 188.697579 100.38384 
L 189.487439 100.84824 
L 190.136452 100.65216 
L 190.970761 101.034 
L 191.712108 101.19912 
L 193.938461 100.91016 
L 194.682944 101.7564 
L 195.362489 101.84928 
L 196.164771 101.56032 
L 196.903713 100.85856 
L 198.378058 101.4468 
L 199.137171 101.02368 
L 199.871757 101.30232 
L 200.615733 100.81728 
L 201.353825 100.79664 
L 202.097672 99.3312 
L 202.839569 99.92976 
L 203.576123 100.78632 
L 204.32558 101.17848 
L 205.070054 101.1372 
L 205.807536 100.21872 
L 207.294663 100.4664 
L 208.035478 99.88848 
L 208.77674 99.94008 
L 209.53319 99.81624 
L 210.277535 98.93904 
L 211.006795 98.3508 
L 211.754706 98.52624 
L 212.497162 99.78528 
L 213.232186 100.12584 
L 213.970088 100.03296 
L 215.467431 100.83792 
L 216.202807 100.11552 
L 217.000339 99.87816 
L 217.696335 100.002 
L 219.174674 101.41584 
L 219.927035 101.21976 
L 221.408974 101.00304 
L 222.157589 100.86888 
L 222.890062 101.21976 
L 223.633162 101.28168 
L 225.12248 101.14752 
L 225.866645 100.55928 
L 226.604075 100.65216 
L 227.347527 99.80592 
L 228.087191 99.96072 
L 228.83627 99.6408 
L 229.567171 99.1764 
L 230.322736 99.70272 
L 231.068791 99.94008 
L 231.806315 98.57784 
L 232.547998 98.65008 
L 233.29346 98.38176 
L 234.034198 98.48496 
L 234.76826 96.70992 
L 235.520311 98.05152 
L 236.264399 98.48496 
L 237.003393 97.96896 
L 237.74334 96.32808 
L 239.232813 96.16296 
L 239.966205 96.1836 
L 240.72 96.50352 
L 241.470248 94.76976 
L 242.214052 97.19496 
L 242.954274 96.9576 
L 243.697769 97.9896 
L 244.448128 96.89568 
L 245.171435 95.45088 
L 245.928753 95.67792 
L 246.670744 93.43848 
L 248.15197 92.25168 
L 248.894417 92.87088 
L 249.624313 94.2744 
L 250.369277 93.1392 
L 251.126483 92.97408 
L 251.874591 92.9844 
L 252.606532 92.60256 
L 253.352312 92.53032 
L 254.093736 94.54272 
L 254.839645 92.85024 
L 255.572419 94.82136 
L 256.325751 95.75016 
L 257.075208 96.97824 
L 258.557043 97.23624 
L 259.30352 95.94624 
L 260.040082 96.30744 
L 260.772134 98.08248 
L 262.278153 96.61704 
L 263.009157 97.23624 
L 263.759026 98.08248 
L 264.498904 99.18672 
L 265.241704 99.03192 
L 265.973249 99.1248 
L 266.730652 98.74296 
L 267.483881 99.09384 
L 268.218828 100.0536 
L 268.969428 101.23008 
L 269.709134 101.99376 
L 270.439159 102.08664 
L 271.17 102.8916 
L 271.928202 102.45816 
L 273.401816 102.10728 
L 274.151763 102.582 
L 275.64353 102.08664 
L 276.38035 102.066 
L 277.127986 101.86992 
L 277.894908 101.48808 
L 278.641393 101.40552 
L 279.36 101.4984 
L 279.36 101.4984 
" clip-path="url(#p3dfd6d737d)" style="fill: none; stroke: #f5841e; stroke-width: 0.6"/>
   </g>
  </g>
 </g>
 <defs>
  <clipPath id="p3dfd6d737d">
   <rect x="8.64" y="4.8" width="270.72" height="103.2"/>
  </clipPath>
 </defs>
</svg>
