<?xml version="1.0" encoding="utf-8" standalone="no"?>
<!DOCTYPE svg PUBLIC "-//W3C//DTD SVG 1.1//EN"
  "http://www.w3.org/Graphics/SVG/1.1/DTD/svg11.dtd">
<svg xmlns:xlink="http://www.w3.org/1999/xlink" width="288pt" height="120pt" viewBox="0 0 288 120" xmlns="http://www.w3.org/2000/svg" version="1.1">
<desc id="nav-meta">{"window":"1y","count":4,"labels":["26.02","28.06","27.10","26.02"],"tick_utc":["2025-02-26T12:00:00Z","2025-06-28T12:00:00Z","2025-10-27T12:00:00Z","2026-02-26T03:20:47Z"],"w":720,"h":300}</desc>

 <metadata>
  <rdf:RDF xmlns:dc="http://purl.org/dc/elements/1.1/" xmlns:cc="http://creativecommons.org/ns#" xmlns:rdf="http://www.w3.org/1999/02/22-rdf-syntax-ns#">
   <cc:Work>
    <dc:type rdf:resource="http://purl.org/dc/dcmitype/StillImage"/>
    <dc:date>2026-02-26T07:38:05.517467</dc:date>
    <dc:format>image/svg+xml</dc:format>
    <dc:creator>
     <cc:Agent>
      <dc:title>Matplotlib v3.10.8, https://matplotlib.org/</dc:title>
     </cc:Agent>
    </dc:creator>
   </cc:Work>
  </rdf:RDF>
 </metadata>
 <defs>
  <style type="text/css">*{stroke-linejoin: round; stroke-linecap: butt}</style>
 </defs>
 <g id="figure_1">
  <g id="patch_1">
   <path d="M 0 120 
L 288 120 
L 288 0 
L 0 0 
L 0 120 
z
" style="fill: none; opacity: 0"/>
  </g>
  <g id="axes_1">
   <g id="patch_2">
    <path d="M 8.64 108 
L 279.36 108 
L 279.36 4.8 
L 8.64 4.8 
L 8.64 108 
z
" style="fill: none"/>
   </g>
   <g id="matplotlib.axis_1"/>
   <g id="matplotlib.axis_2"/>
   <g id="line2d_1">
    <path d="M 8.64 87.36 
L 279.36 87.36 
" clip-path="url(#pa7208de19c)" style="fill: none; stroke: #b2b2b2; stroke-opacity: 0.35; stroke-width: 0.5; stroke-linecap: square"/>
   </g>
   <g id="line2d_2">
    <path d="M 8.64 66.72 
L 279.36 66.72 
" clip-path="url(#pa7208de19c)" style="fill: none; stroke: #b2b2b2; stroke-opacity: 0.35; stroke-width: 0.5; stroke-linecap: square"/>
   </g>
   <g id="line2d_3">
    <path d="M 8.64 46.08 
L 279.36 46.08 
" clip-path="url(#pa7208de19c)" style="fill: none; stroke: #b2b2b2; stroke-opacity: 0.35; stroke-width: 0.5; stroke-linecap: square"/>
   </g>
   <g id="line2d_4">
    <path d="M 8.64 25.44 
L 279.36 25.44 
" clip-path="url(#pa7208de19c)" style="fill: none; stroke: #b2b2b2; stroke-opacity: 0.35; stroke-width: 0.5; stroke-linecap: square"/>
   </g>
   <g id="line2d_5">
    <path d="M 8.64 87.06072 
L 9.382432 89.71296 
L 10.124864 88.908 
L 10.867296 86.0184 
L 11.609728 87.31872 
L 12.35216 77.82432 
L 13.094592 87.5664 
L 13.837024 86.86464 
L 14.579456 86.56536 
L 15.321888 87.3084 
L 16.06432 88.47456 
L 16.806753 89.10408 
L 17.549185 91.9008 
L 18.291617 94.04736 
L 19.034049 92.23104 
L 19.776481 91.92144 
L 20.518913 92.8296 
L 21.261345 90.01224 
L 22.003777 89.39304 
L 22.746209 92.03496 
L 23.488641 91.45704 
L 24.231073 92.262 
L 24.973505 89.44464 
L 25.715937 91.62216 
L 26.458369 91.46736 
L 27.200801 91.42608 
L 27.943233 90.41472 
L 28.685665 88.09272 
L 29.428097 87.17424 
L 30.170529 89.04216 
L 30.912961 88.69128 
L 31.655393 91.13712 
L 32.397825 92.48904 
L 33.88269 92.38584 
L 34.625122 91.85952 
L 35.367554 94.24344 
L 36.109986 94.4808 
L 36.852418 92.97408 
L 37.59485 93.67584 
L 38.337282 97.60776 
L 39.079714 97.32912 
L 39.822146 97.68 
L 40.564578 94.00608 
L 41.30701 95.65728 
L 42.049442 93.33528 
L 42.791874 90.39408 
L 43.534306 91.46736 
L 44.276738 91.14744 
L 45.01917 91.99368 
L 45.761602 90.57984 
L 46.504034 89.72328 
L 47.246466 89.89872 
L 47.988898 88.35072 
L 48.73133 88.89768 
L 49.473763 89.25888 
L 50.216195 85.84296 
L 50.958627 85.2444 
L 51.701059 84.8832 
L 53.928355 85.99776 
L 54.670787 86.07 
L 55.413219 86.4828 
L 56.155651 86.14224 
L 56.898083 85.31664 
L 57.640515 86.07 
L 58.382947 86.38992 
L 59.125379 87.16392 
L 59.867811 86.38992 
L 61.352675 86.28672 
L 62.095107 81.84912 
L 62.837539 79.32072 
L 63.579971 78.05136 
L 64.322403 79.26912 
L 65.064835 78.846 
L 65.807268 76.2144 
L 67.292132 80.394 
L 68.034564 80.66232 
L 68.776996 81.168 
L 69.519428 79.63032 
L 70.26186 80.95128 
L 71.004292 80.4972 
L 72.489156 77.43216 
L 73.231588 78.846 
L 73.97402 78.41256 
L 74.716452 78.64992 
L 75.458884 78.76344 
L 76.201316 78.25776 
L 76.943748 79.47552 
L 77.68618 80.92032 
L 78.428612 83.73768 
L 79.171044 83.6448 
L 79.913476 83.4384 
L 80.655908 83.61384 
L 81.39834 83.99568 
L 82.140773 84.55296 
L 82.883205 87.00912 
L 83.625637 85.98744 
L 84.368069 85.5024 
L 85.110501 84.8316 
L 85.852933 82.46832 
L 86.595365 81.426 
L 87.337797 82.5096 
L 88.080229 84.79032 
L 89.565093 86.95752 
L 90.307525 84.79032 
L 91.049957 85.13088 
L 91.792389 86.07 
L 92.534821 86.5344 
L 93.277253 86.31768 
L 94.762117 89.97096 
L 95.504549 90.48696 
L 96.246981 86.9472 
L 96.989413 86.66856 
L 97.731845 87.32904 
L 98.474278 88.53648 
L 99.21671 87.6696 
L 99.959142 85.30632 
L 100.701574 84.61488 
L 101.444006 84.17112 
L 102.186438 86.3796 
L 102.92887 84.92448 
L 103.671302 84.89352 
L 104.413734 86.13192 
L 105.156166 86.1732 
L 105.898598 84.99672 
L 106.64103 85.85328 
L 107.383462 85.01736 
L 108.125894 83.55192 
L 108.868326 81.7356 
L 109.610758 82.03488 
L 110.35319 82.65408 
L 111.838054 82.15872 
L 112.580486 81.70464 
L 113.322918 79.01112 
L 114.06535 78.39192 
L 114.807783 78.04104 
L 115.550215 78.16488 
L 116.292647 77.05032 
L 117.035079 72.82944 
L 117.777511 70.41456 
L 118.519943 74.69736 
L 119.262375 76.6272 
L 120.004807 75.63648 
L 120.747239 75.97704 
L 121.489671 74.976 
L 122.232103 76.49304 
L 122.974535 76.99872 
L 123.716967 77.90688 
L 124.459399 79.4652 
L 125.201831 82.02456 
L 125.944263 83.19072 
L 126.686695 82.27224 
L 127.429127 80.21856 
L 128.171559 81.67368 
L 128.913991 80.5488 
L 129.656423 78.588 
L 130.398855 78.19584 
L 131.141288 77.21544 
L 131.88372 76.524 
L 132.626152 78.68088 
L 133.368584 73.88208 
L 134.111016 71.364 
L 134.853448 73.8408 
L 135.59588 75.79128 
L 136.338312 74.65608 
L 137.080744 74.14008 
L 137.823176 76.50336 
L 138.565608 78.30936 
L 139.30804 75.3372 
L 140.050472 77.25672 
L 140.792904 71.78712 
L 141.535336 70.75512 
L 142.277768 70.24944 
L 143.0202 75.35784 
L 143.762632 72.95328 
L 144.505064 70.96152 
L 145.247496 67.87584 
L 145.989928 70.46616 
L 146.73236 71.11632 
L 147.474793 71.61168 
L 148.217225 72.7056 
L 148.959657 69.33096 
L 149.702089 68.9388 
L 150.444521 71.12664 
L 151.186953 70.90992 
L 151.929385 71.80776 
L 152.671817 70.074 
L 153.414249 68.01 
L 154.156681 67.10184 
L 154.899113 65.29584 
L 155.641545 64.01616 
L 156.383977 60.31128 
L 157.126409 60.19776 
L 157.868841 60.786 
L 158.611273 62.61264 
L 159.353705 61.74576 
L 160.096137 59.57856 
L 160.838569 58.86648 
L 161.581001 61.38456 
L 162.323433 61.07496 
L 163.065865 61.83864 
L 163.808298 66.29688 
L 164.55073 67.97904 
L 165.293162 68.69112 
L 166.035594 73.9956 
L 166.778026 70.45584 
L 167.520458 70.87896 
L 168.26289 68.91816 
L 169.005322 68.3196 
L 169.747754 69.47544 
L 171.232618 62.39592 
L 171.97505 62.81904 
L 172.717482 64.22256 
L 173.459914 64.05744 
L 174.202346 62.9532 
L 174.944778 66.14208 
L 175.68721 63.91296 
L 176.429642 66.17304 
L 177.172074 74.6148 
L 177.914506 77.78304 
L 178.656938 72.66432 
L 179.39937 69.69216 
L 180.141803 71.09568 
L 181.626667 76.06992 
L 182.369099 76.76136 
L 183.111531 75.25464 
L 183.853963 75.24432 
L 184.596395 74.63544 
L 185.338827 75.73968 
L 186.081259 77.31864 
L 186.823691 74.202 
L 187.566123 73.64472 
L 188.308555 73.48992 
L 189.050987 71.83872 
L 189.793419 72.17928 
L 190.535851 73.38672 
L 191.278283 73.43832 
L 192.020715 76.15248 
L 192.763147 75.3372 
L 193.505579 75.58488 
L 194.248011 75.35784 
L 194.990443 81.168 
L 195.732875 84.01632 
L 196.475308 82.06584 
L 197.21774 84.19176 
L 197.960172 82.27224 
L 198.702604 83.29392 
L 199.445036 81.62208 
L 200.187468 80.72424 
L 200.9299 84.33624 
L 201.672332 84.64584 
L 202.414764 86.844 
L 203.157196 88.52616 
L 203.899628 88.36104 
L 204.64206 88.93896 
L 205.384492 90.79656 
L 206.126924 88.09272 
L 206.869356 89.22792 
L 207.611788 90.00192 
L 208.35422 91.39512 
L 209.096652 91.63248 
L 209.839084 90.75528 
L 210.581516 88.7016 
L 211.323948 88.52616 
L 212.06638 87.45288 
L 212.808813 88.0308 
L 213.551245 88.94928 
L 215.036109 89.7336 
L 215.778541 91.86984 
L 216.520973 88.60872 
L 217.263405 86.87496 
L 218.748269 90.11544 
L 220.233133 90.53856 
L 220.975565 90.08448 
L 221.717997 88.79448 
L 222.460429 89.20728 
L 223.202861 89.22792 
L 223.945293 90.31152 
L 224.687725 90.10512 
L 225.430157 91.09584 
L 226.172589 91.61184 
L 226.915021 91.31256 
L 227.657453 92.87088 
L 228.399885 93.8616 
L 229.142318 92.02464 
L 229.88475 92.13816 
L 230.627182 92.07624 
L 231.369614 92.14848 
L 233.59691 93.69648 
L 235.081774 92.44776 
L 235.824206 92.30328 
L 236.566638 92.87088 
L 237.30907 92.38584 
L 238.051502 92.47872 
L 238.793934 91.88016 
L 239.536366 90.42504 
L 240.278798 90.08448 
L 241.02123 89.92968 
L 241.763662 88.76352 
L 242.506094 87.94824 
L 243.248526 89.2692 
L 243.990958 88.72224 
L 244.73339 89.39304 
L 245.475823 89.40336 
L 246.218255 88.41264 
L 246.960687 88.4952 
L 247.703119 86.86464 
L 248.445551 86.42088 
L 249.187983 87.62832 
L 249.930415 86.93688 
L 250.672847 87.23616 
L 252.157711 90.0432 
L 252.900143 92.12784 
L 253.642575 91.16808 
L 255.127439 91.73568 
L 255.869871 91.78728 
L 256.612303 94.0164 
L 257.354735 92.5716 
L 258.097167 91.76664 
L 258.839599 92.33424 
L 259.582031 94.36728 
L 260.324463 94.46016 
L 261.066895 97.71096 
L 261.809328 98.48496 
L 262.55176 97.85544 
L 263.76854 100.16712 
L 264.510594 102.23112 
L 265.249847 100.54896 
L 266.00925 100.70376 
L 266.745555 100.68312 
L 268.233118 101.28168 
L 268.972877 101.71512 
L 269.715086 101.84928 
L 270.44859 101.034 
L 271.151847 100.54896 
L 271.941901 101.04432 
L 272.591073 100.81728 
L 273.425588 101.034 
L 274.167117 101.4984 
L 276.394018 101.06496 
L 277.138685 102.09696 
L 277.818397 102.05568 
L 278.620876 101.4984 
L 279.36 100.60056 
L 279.36 100.60056 
" clip-path="url(#pa7208de19c)" style="fill: none; stroke: #bebebe; stroke-width: 0.5; stroke-linecap: round"/>
   </g>
   <g id="line2d_6">
    <path d="M 8.64 82.5612 
L 9.382432 85.06896 
L 10.124864 85.37856 
L 10.867296 86.41056 
L 11.609728 86.75112 
L 12.35216 82.23096 
L 13.094592 87.71088 
L 13.837024 87.36 
L 14.579456 86.328 
L 15.321888 86.90592 
L 16.06432 87.81408 
L 16.806753 86.93688 
L 17.549185 89.65104 
L 18.291617 91.6944 
L 19.034049 91.0752 
L 19.776481 91.23 
L 20.518913 91.94208 
L 21.261345 91.23 
L 22.003777 90.79656 
L 22.746209 91.57056 
L 23.488641 90.95136 
L 24.231073 90.89976 
L 24.973505 89.00088 
L 25.715937 90.18768 
L 26.458369 90.43536 
L 27.943233 89.8884 
L 28.685665 88.7532 
L 29.428097 88.88736 
L 30.170529 89.75424 
L 30.912961 89.85744 
L 31.655393 91.4364 
L 32.397825 92.43744 
L 33.140258 92.79864 
L 33.88269 92.50968 
L 34.625122 91.2816 
L 35.367554 92.9328 
L 36.109986 92.60256 
L 37.59485 92.7264 
L 38.337282 96.21456 
L 39.079714 96.4932 
L 39.822146 97.74192 
L 40.564578 94.91424 
L 41.30701 96.96792 
L 42.049442 96.31776 
L 42.791874 95.16192 
L 43.534306 95.90496 
L 44.276738 95.52312 
L 45.01917 96.01848 
L 45.761602 96.17328 
L 47.246466 95.99784 
L 47.988898 95.616 
L 48.73133 96.05976 
L 49.473763 96.17328 
L 50.216195 93.46944 
L 50.958627 92.96376 
L 51.701059 93.32496 
L 52.443491 93.036 
L 53.185923 92.56128 
L 53.928355 92.96376 
L 54.670787 92.8812 
L 56.155651 92.96376 
L 56.898083 92.29296 
L 57.640515 92.262 
L 58.382947 92.3652 
L 59.125379 92.74704 
L 59.867811 92.5716 
L 61.352675 92.71608 
L 62.095107 86.97816 
L 62.837539 84.84192 
L 63.579971 81.24024 
L 64.322403 82.37544 
L 65.064835 82.60248 
L 65.807268 79.86768 
L 67.292132 81.85944 
L 68.034564 81.82848 
L 68.776996 82.86048 
L 69.519428 83.00496 
L 70.26186 82.08648 
L 71.004292 82.12776 
L 71.746724 81.61176 
L 72.489156 80.15664 
L 73.231588 82.18968 
L 74.716452 81.79752 
L 75.458884 81.56016 
L 76.201316 80.0844 
L 76.943748 79.86768 
L 77.68618 80.50752 
L 78.428612 82.12776 
L 79.913476 81.92136 
L 80.655908 80.8584 
L 81.39834 81.07512 
L 82.140773 80.84808 
L 82.883205 83.6448 
L 83.625637 82.7676 
L 84.368069 82.0968 
L 85.110501 82.3548 
L 85.852933 79.74384 
L 86.595365 77.90688 
L 87.337797 78.39192 
L 88.080229 80.21856 
L 88.822661 81.34344 
L 89.565093 81.98328 
L 91.049957 81.5808 
L 91.792389 82.26192 
L 93.277253 82.15872 
L 94.019685 83.88216 
L 94.762117 85.89456 
L 95.504549 86.5344 
L 96.246981 83.61384 
L 96.989413 83.2836 
L 97.731845 83.71704 
L 98.474278 83.748 
L 99.959142 83.41776 
L 100.701574 82.44768 
L 101.444006 82.6644 
L 102.186438 83.89248 
L 102.92887 81.38472 
L 103.671302 81.14736 
L 104.413734 82.34448 
L 105.156166 82.23096 
L 105.898598 81.426 
L 106.64103 81.8388 
L 107.383462 80.76552 
L 108.868326 75.83256 
L 109.610758 75.67776 
L 110.35319 75.91512 
L 111.838054 74.88312 
L 112.580486 73.09776 
L 113.322918 69.6096 
L 114.06535 67.91712 
L 114.807783 66.94704 
L 115.550215 66.24528 
L 116.292647 63.80976 
L 117.035079 63.70656 
L 117.777511 63.9852 
L 118.519943 65.71896 
L 119.262375 64.5528 
L 120.747239 64.05744 
L 121.489671 62.25144 
L 122.232103 63.39696 
L 122.974535 63.366 
L 123.716967 63.08736 
L 124.459399 64.72824 
L 125.201831 67.89648 
L 125.944263 69.16584 
L 126.686695 67.69008 
L 127.429127 64.4496 
L 128.171559 65.97696 
L 128.913991 64.914 
L 129.656423 61.54968 
L 130.398855 60.04296 
L 131.141288 56.28648 
L 131.88372 56.47224 
L 132.626152 56.83344 
L 133.368584 51.22968 
L 134.111016 48.89736 
L 134.853448 52.00368 
L 135.59588 53.84064 
L 136.338312 53.90256 
L 137.080744 53.00472 
L 137.823176 55.5228 
L 138.565608 59.12448 
L 139.30804 55.32672 
L 140.050472 56.90568 
L 140.792904 47.92728 
L 141.535336 48.75288 
L 142.277768 48.68064 
L 143.0202 54.57336 
L 143.762632 51.2916 
L 144.505064 52.80864 
L 145.247496 52.69512 
L 145.989928 54.82104 
L 147.474793 54.45984 
L 148.217225 55.7292 
L 148.959657 55.39896 
L 149.702089 53.55168 
L 150.444521 55.81176 
L 151.186953 55.6776 
L 151.929385 56.18328 
L 152.671817 55.71888 
L 154.156681 55.63632 
L 154.899113 55.07904 
L 155.641545 53.41752 
L 156.383977 49.71264 
L 157.126409 50.32152 
L 157.868841 51.17808 
L 158.611273 52.44744 
L 159.353705 52.74672 
L 160.096137 51.4464 
L 160.838569 51.46704 
L 161.581001 53.2524 
L 162.323433 53.08728 
L 163.065865 53.5104 
L 163.808298 57.26688 
L 164.55073 57.76224 
L 165.293162 58.02024 
L 166.035594 62.26176 
L 166.778026 59.68176 
L 167.520458 59.9604 
L 168.26289 58.12344 
L 169.005322 57.02952 
L 169.747754 58.09248 
L 170.490186 55.13064 
L 171.232618 53.046 
L 171.97505 52.5816 
L 172.717482 52.9944 
L 173.459914 52.5816 
L 174.202346 50.0016 
L 174.944778 53.48976 
L 175.68721 52.40616 
L 176.429642 54.75912 
L 177.172074 62.67456 
L 177.914506 63.95424 
L 178.656938 57.86544 
L 179.39937 56.57544 
L 180.141803 58.31952 
L 180.884235 60.4764 
L 181.626667 61.85928 
L 182.369099 62.73648 
L 183.111531 61.8696 
L 183.853963 60.45576 
L 184.596395 60.54864 
L 185.338827 62.04504 
L 186.081259 63.16992 
L 186.823691 62.36496 
L 187.566123 61.21944 
L 188.308555 60.9408 
L 189.050987 57.83448 
L 189.793419 58.40208 
L 190.535851 60.49704 
L 192.020715 63.1596 
L 192.763147 62.49912 
L 193.505579 62.1276 
L 194.248011 61.56 
L 195.732875 70.66224 
L 196.475308 68.72208 
L 197.21774 70.4868 
L 197.960172 68.61888 
L 198.702604 69.11424 
L 199.445036 66.5136 
L 200.187468 66.68904 
L 200.9299 68.8872 
L 201.672332 68.9904 
L 202.414764 71.5704 
L 203.157196 73.48992 
L 203.899628 72.54048 
L 205.384492 74.74896 
L 206.126924 73.3248 
L 206.869356 74.80056 
L 207.611788 77.556 
L 208.35422 78.55704 
L 209.096652 78.50544 
L 209.839084 78.04104 
L 210.581516 75.76032 
L 211.323948 75.73968 
L 212.06638 74.65608 
L 212.808813 74.83152 
L 213.551245 74.57352 
L 214.293677 75.20304 
L 215.036109 75.17208 
L 215.778541 78.05136 
L 217.263405 72.16896 
L 218.005837 73.08744 
L 218.748269 74.72832 
L 220.233133 74.28456 
L 220.975565 73.21128 
L 221.717997 70.2804 
L 222.460429 70.2288 
L 223.202861 71.56008 
L 223.945293 73.79952 
L 224.687725 73.35576 
L 225.430157 74.0988 
L 226.172589 75.5952 
L 226.915021 75.5952 
L 227.657453 77.61792 
L 228.399885 77.63856 
L 229.142318 75.40944 
L 229.88475 75.40944 
L 230.627182 75.04824 
L 231.369614 74.98632 
L 232.112046 75.58488 
L 232.854478 75.87384 
L 233.59691 76.49304 
L 235.081774 75.82224 
L 235.824206 75.84288 
L 236.566638 76.03896 
L 237.30907 75.51264 
L 238.051502 75.56424 
L 238.793934 75.05856 
L 239.536366 73.26288 
L 240.278798 73.20096 
L 241.02123 73.00488 
L 241.763662 71.68392 
L 242.506094 70.6932 
L 243.248526 72.62304 
L 243.990958 73.52088 
L 244.73339 73.83048 
L 245.475823 73.8408 
L 246.218255 73.29384 
L 246.960687 73.72728 
L 247.703119 70.32168 
L 248.445551 69.77472 
L 249.187983 70.34232 
L 249.930415 70.67256 
L 250.672847 70.51776 
L 251.415279 70.848 
L 252.157711 72.31344 
L 252.900143 76.01832 
L 253.642575 75.41976 
L 254.385007 75.83256 
L 255.869871 75.82224 
L 256.612303 77.82432 
L 257.354735 76.14216 
L 258.097167 74.75928 
L 258.839599 74.96568 
L 259.582031 77.75208 
L 260.324463 79.48584 
L 261.066895 83.31456 
L 261.809328 85.90488 
L 262.55176 84.79032 
L 263.178539 85.84296 
L 264.510594 91.41576 
L 265.249847 88.7532 
L 266.745555 88.55712 
L 267.492224 88.96992 
L 268.972877 90.456 
L 269.715086 90.56952 
L 270.44859 89.15568 
L 271.151847 88.9596 
L 271.941901 90.6624 
L 272.591073 89.94 
L 273.425588 90.00192 
L 274.90521 90.62112 
L 276.394018 90.3528 
L 277.138685 92.004 
L 277.818397 92.13816 
L 278.620876 91.25064 
L 279.36 89.166 
L 279.36 89.166 
" clip-path="url(#pa7208de19c)" style="fill: none; stroke: #4a8dff; stroke-width: 0.6"/>
   </g>
   <g id="line2d_7">
    <path d="M 8.64 84.74904 
L 9.382432 89.77488 
L 10.124864 88.93896 
L 10.867296 89.2176 
L 11.609728 87.59736 
L 12.35216 79.04208 
L 13.094592 87.47352 
L 13.837024 86.24544 
L 14.579456 82.82952 
L 15.321888 83.45904 
L 16.06432 86.80272 
L 16.806753 87.45288 
L 17.549185 93.036 
L 18.291617 95.07936 
L 19.034049 90.9204 
L 19.776481 89.79552 
L 20.518913 92.6748 
L 21.261345 89.70264 
L 22.003777 89.2692 
L 22.746209 91.11648 
L 23.488641 89.59944 
L 24.231073 90.94104 
L 24.973505 86.76144 
L 25.715937 89.39304 
L 27.200801 89.8884 
L 27.943233 87.8244 
L 28.685665 86.2248 
L 29.428097 86.02872 
L 30.170529 86.60664 
L 30.912961 86.328 
L 31.655393 89.30016 
L 32.397825 91.04424 
L 33.140258 91.37448 
L 33.88269 91.20936 
L 34.625122 88.392 
L 35.367554 91.19904 
L 36.852418 89.82648 
L 37.59485 90.0948 
L 38.337282 95.6676 
L 39.079714 94.66656 
L 39.822146 97.61808 
L 40.564578 91.10616 
L 41.30701 94.23312 
L 42.049442 90.25992 
L 42.791874 88.31976 
L 43.534306 90.08448 
L 44.276738 89.13504 
L 45.01917 90.03288 
L 45.761602 89.56848 
L 46.504034 88.71192 
L 47.246466 89.22792 
L 47.988898 88.50552 
L 48.73133 88.55712 
L 49.473763 86.10096 
L 50.216195 79.75416 
L 50.958627 79.7232 
L 51.701059 79.44456 
L 52.443491 78.51576 
L 53.185923 78.64992 
L 53.928355 79.5168 
L 54.670787 78.24744 
L 55.413219 79.0524 
L 56.155651 79.07304 
L 56.898083 76.80264 
L 57.640515 76.35888 
L 58.382947 77.31864 
L 59.125379 78.98016 
L 59.867811 78.52608 
L 60.610243 76.35888 
L 61.352675 76.18344 
L 62.095107 69.90888 
L 62.837539 70.03272 
L 63.579971 68.29896 
L 64.322403 68.95944 
L 65.064835 70.11528 
L 65.807268 68.76336 
L 66.5497 69.37224 
L 67.292132 69.25872 
L 68.034564 69.41352 
L 68.776996 69.77472 
L 69.519428 66.85416 
L 70.26186 67.26696 
L 71.004292 66.06984 
L 71.746724 63.08736 
L 72.489156 61.12656 
L 73.231588 65.62608 
L 73.97402 64.98624 
L 74.716452 63.91296 
L 75.458884 63.38664 
L 76.201316 63.70656 
L 76.943748 64.97592 
L 77.68618 67.14312 
L 78.428612 68.9388 
L 79.171044 68.23704 
L 79.913476 67.1844 
L 80.655908 66.99864 
L 81.39834 67.47336 
L 82.140773 68.1132 
L 82.883205 71.38464 
L 83.625637 68.526 
L 84.368069 67.21536 
L 85.110501 67.20504 
L 85.852933 62.46816 
L 86.595365 62.51976 
L 87.337797 64.10904 
L 88.080229 66.90576 
L 88.822661 66.83352 
L 89.565093 67.42176 
L 90.307525 67.3392 
L 91.049957 65.8944 
L 91.792389 68.24736 
L 93.277253 68.23704 
L 94.019685 69.69216 
L 94.762117 71.50848 
L 95.504549 72.21024 
L 96.246981 67.3908 
L 96.989413 66.90576 
L 97.731845 65.59512 
L 98.474278 65.86344 
L 99.21671 65.76024 
L 99.959142 65.50224 
L 100.701574 64.398 
L 101.444006 65.70864 
L 102.186438 67.2876 
L 102.92887 63.95424 
L 103.671302 63.14928 
L 104.413734 64.76952 
L 105.156166 64.58376 
L 105.898598 63.55176 
L 106.64103 64.5012 
L 107.383462 63.82008 
L 108.125894 61.36392 
L 108.868326 56.64768 
L 109.610758 54.89328 
L 110.35319 55.04808 
L 111.095622 53.29368 
L 111.838054 52.55064 
L 112.580486 54.77976 
L 113.322918 53.67552 
L 114.06535 52.95312 
L 114.807783 54.45984 
L 115.550215 54.55272 
L 116.292647 55.22352 
L 117.035079 54.98616 
L 117.777511 52.4268 
L 118.519943 53.79936 
L 119.262375 54.08832 
L 120.004807 54.92424 
L 120.747239 54.4908 
L 121.489671 52.98408 
L 122.232103 54.44952 
L 122.974535 54.60432 
L 123.716967 54.62496 
L 125.201831 59.38248 
L 125.944263 60.09456 
L 126.686695 58.39176 
L 127.429127 57.41136 
L 128.171559 58.464 
L 128.913991 57.5352 
L 129.656423 55.0068 
L 130.398855 55.81176 
L 131.141288 55.99752 
L 131.88372 53.13888 
L 132.626152 53.64456 
L 133.368584 52.1688 
L 134.111016 48.69096 
L 134.853448 54.0264 
L 135.59588 55.13064 
L 136.338312 54.96552 
L 137.080744 54.92424 
L 137.823176 56.25552 
L 138.565608 59.8572 
L 139.30804 58.32984 
L 140.050472 60.23904 
L 140.792904 55.65696 
L 141.535336 57.18432 
L 142.277768 59.21736 
L 143.0202 62.55072 
L 143.762632 60.82728 
L 144.505064 61.47744 
L 145.247496 60.12552 
L 145.989928 64.31544 
L 146.73236 63.99552 
L 147.474793 64.5528 
L 148.217225 63.60336 
L 148.959657 61.5084 
L 149.702089 60.96144 
L 150.444521 61.98312 
L 151.186953 62.05536 
L 151.929385 62.51976 
L 153.414249 60.64152 
L 154.156681 61.13688 
L 154.899113 58.6188 
L 155.641545 57.03984 
L 156.383977 56.35872 
L 157.126409 56.5548 
L 157.868841 57.174 
L 158.611273 57.14304 
L 159.353705 55.7292 
L 160.096137 56.04912 
L 160.838569 55.33704 
L 161.581001 56.87472 
L 162.323433 56.8128 
L 163.065865 57.24624 
L 163.808298 59.93976 
L 164.55073 60.64152 
L 165.293162 59.29992 
L 166.035594 63.80976 
L 166.778026 63.03576 
L 167.520458 63.09768 
L 169.005322 58.27824 
L 169.747754 58.5672 
L 170.490186 53.93352 
L 171.232618 51.74568 
L 171.97505 50.04288 
L 172.717482 49.90872 
L 174.202346 47.43192 
L 174.944778 50.80656 
L 175.68721 48.90768 
L 176.429642 50.6208 
L 177.172074 59.42376 
L 177.914506 61.85928 
L 178.656938 57.35976 
L 179.39937 57.3288 
L 180.141803 59.46504 
L 181.626667 64.72824 
L 182.369099 66.42072 
L 183.111531 65.688 
L 183.853963 64.17096 
L 184.596395 62.10696 
L 185.338827 64.30512 
L 186.081259 65.20296 
L 186.823691 62.68488 
L 187.566123 61.70448 
L 188.308555 61.06464 
L 189.050987 58.1028 
L 189.793419 58.40208 
L 190.535851 59.68176 
L 191.278283 62.6952 
L 192.020715 64.56312 
L 192.763147 63.18024 
L 193.505579 62.72616 
L 194.248011 62.06568 
L 194.990443 66.33816 
L 195.732875 71.40528 
L 196.475308 69.08328 
L 197.21774 71.7252 
L 197.960172 69.57864 
L 198.702604 70.72416 
L 199.445036 68.2164 
L 200.187468 66.978 
L 200.9299 70.03272 
L 201.672332 71.5188 
L 202.414764 73.3764 
L 203.157196 78.846 
L 203.899628 77.75208 
L 204.64206 78.88728 
L 205.384492 81.34344 
L 206.126924 80.53848 
L 206.869356 82.0452 
L 207.611788 86.92656 
L 208.35422 88.58808 
L 209.096652 88.96992 
L 209.839084 86.7924 
L 210.581516 85.296 
L 211.323948 86.24544 
L 212.06638 82.96368 
L 212.808813 82.13808 
L 213.551245 82.47864 
L 214.293677 82.58184 
L 215.036109 83.03592 
L 215.778541 87.3084 
L 216.520973 82.06584 
L 217.263405 79.71288 
L 218.005837 81.24024 
L 218.748269 84.17112 
L 219.490701 84.24336 
L 220.233133 83.29392 
L 220.975565 82.8192 
L 221.717997 80.64168 
L 222.460429 81.38472 
L 223.202861 80.87904 
L 223.945293 83.13912 
L 224.687725 83.19072 
L 226.172589 87.17424 
L 226.915021 85.71912 
L 227.657453 87.53544 
L 228.399885 88.17528 
L 229.142318 85.41984 
L 230.627182 84.9348 
L 231.369614 85.01736 
L 232.112046 86.14224 
L 232.854478 85.90488 
L 233.59691 86.328 
L 234.339342 86.24544 
L 235.081774 85.72944 
L 235.824206 85.7088 
L 236.566638 86.40024 
L 237.30907 85.09992 
L 238.051502 86.02872 
L 239.536366 83.53128 
L 241.02123 82.03488 
L 241.763662 79.39296 
L 242.506094 79.66128 
L 243.248526 82.15872 
L 243.990958 82.43736 
L 244.73339 82.93272 
L 245.475823 83.00496 
L 246.960687 82.28256 
L 247.703119 78.01008 
L 248.445551 76.19376 
L 249.187983 77.66952 
L 249.930415 77.74176 
L 250.672847 78.1752 
L 252.157711 80.8068 
L 252.900143 85.20312 
L 253.642575 84.12984 
L 254.385007 84.03696 
L 255.127439 84.06792 
L 255.869871 84.3156 
L 256.612303 87.02976 
L 257.354735 85.21344 
L 258.097167 84.28464 
L 258.839599 84.32592 
L 259.582031 89.08344 
L 260.324463 89.5272 
L 261.066895 95.14128 
L 261.809328 96.98856 
L 262.55176 95.08968 
L 263.76854 99.80592 
L 264.510594 101.79768 
L 265.249847 100.03296 
L 266.00925 100.518 
L 266.745555 99.98136 
L 267.492224 100.49736 
L 269.715086 101.26104 
L 270.44859 100.63152 
L 271.151847 100.38384 
L 271.941901 100.84824 
L 272.591073 100.65216 
L 273.425588 101.034 
L 274.167117 101.19912 
L 276.394018 100.91016 
L 277.138685 101.7564 
L 277.818397 101.84928 
L 278.620876 101.56032 
L 279.36 100.85856 
L 279.36 100.85856 
" clip-path="url(#pa7208de19c)" style="fill: none; stroke: #f5841e; stroke-width: 0.6"/>
   </g>
  </g>
 </g>
 <defs>
  <clipPath id="pa7208de19c">
   <rect x="8.64" y="4.8" width="270.72" height="103.2"/>
  </clipPath>
 </defs>
</svg>
