<?xml version="1.0" encoding="utf-8" standalone="no"?>
<!DOCTYPE svg PUBLIC "-//W3C//DTD SVG 1.1//EN"
  "http://www.w3.org/Graphics/SVG/1.1/DTD/svg11.dtd">
<svg xmlns:xlink="http://www.w3.org/1999/xlink" width="288pt" height="120pt" viewBox="0 0 288 120" xmlns="http://www.w3.org/2000/svg" version="1.1">
<desc id="nav-meta">{"window":"3m","count":4,"labels":["05.01","04.02","06.03","05.04"],"tick_utc":["2026-01-05T12:00:00Z","2026-02-04T08:15:41Z","2026-03-06T03:16:38Z","2026-04-05T03:46:34Z"],"w":720,"h":300}</desc>

 <metadata>
  <rdf:RDF xmlns:dc="http://purl.org/dc/elements/1.1/" xmlns:cc="http://creativecommons.org/ns#" xmlns:rdf="http://www.w3.org/1999/02/22-rdf-syntax-ns#">
   <cc:Work>
    <dc:type rdf:resource="http://purl.org/dc/dcmitype/StillImage"/>
    <dc:date>2026-04-05T03:46:35.977691</dc:date>
    <dc:format>image/svg+xml</dc:format>
    <dc:creator>
     <cc:Agent>
      <dc:title>Matplotlib v3.10.8, https://matplotlib.org/</dc:title>
     </cc:Agent>
    </dc:creator>
   </cc:Work>
  </rdf:RDF>
 </metadata>
 <defs>
  <style type="text/css">*{stroke-linejoin: round; stroke-linecap: butt}</style>
 </defs>
 <g id="figure_1">
  <g id="patch_1">
   <path d="M 0 120 
L 288 120 
L 288 0 
L 0 0 
L 0 120 
z
" style="fill: none; opacity: 0"/>
  </g>
  <g id="axes_1">
   <g id="patch_2">
    <path d="M 8.64 108 
L 279.36 108 
L 279.36 4.8 
L 8.64 4.8 
L 8.64 108 
z
" style="fill: none"/>
   </g>
   <g id="matplotlib.axis_1"/>
   <g id="matplotlib.axis_2"/>
   <g id="line2d_1">
    <path d="M 8.64 87.36 
L 279.36 87.36 
" clip-path="url(#pedeb9fae15)" style="fill: none; stroke: #b2b2b2; stroke-opacity: 0.35; stroke-width: 0.5; stroke-linecap: square"/>
   </g>
   <g id="line2d_2">
    <path d="M 8.64 66.72 
L 279.36 66.72 
" clip-path="url(#pedeb9fae15)" style="fill: none; stroke: #b2b2b2; stroke-opacity: 0.35; stroke-width: 0.5; stroke-linecap: square"/>
   </g>
   <g id="line2d_3">
    <path d="M 8.64 46.08 
L 279.36 46.08 
" clip-path="url(#pedeb9fae15)" style="fill: none; stroke: #b2b2b2; stroke-opacity: 0.35; stroke-width: 0.5; stroke-linecap: square"/>
   </g>
   <g id="line2d_4">
    <path d="M 8.64 25.44 
L 279.36 25.44 
" clip-path="url(#pedeb9fae15)" style="fill: none; stroke: #b2b2b2; stroke-opacity: 0.35; stroke-width: 0.5; stroke-linecap: square"/>
   </g>
   <g id="line2d_5">
    <path d="M 8.64 89.92968 
L 11.659496 88.76352 
L 14.678993 87.94824 
L 17.698489 89.2692 
L 20.717985 88.72224 
L 23.737481 89.39304 
L 26.756978 89.40336 
L 29.776474 88.41264 
L 32.79597 88.4952 
L 35.815467 86.86464 
L 38.834963 86.42088 
L 41.854459 87.62832 
L 44.873956 86.93688 
L 47.893452 87.23616 
L 50.912948 88.63968 
L 53.932444 90.0432 
L 56.951941 92.12784 
L 59.971437 91.16808 
L 62.990933 91.46736 
L 66.01043 91.73568 
L 69.029926 91.78728 
L 72.049422 94.0164 
L 75.068919 92.5716 
L 78.088415 91.76664 
L 81.107911 92.33424 
L 84.127407 94.36728 
L 87.146904 94.46016 
L 90.1664 97.71096 
L 93.185896 98.48496 
L 96.205393 97.85544 
L 98.754525 99.10416 
L 101.154081 100.16712 
L 104.17204 102.23112 
L 107.178606 100.54896 
L 110.267124 100.70376 
L 113.261702 100.68312 
L 116.298428 100.95144 
L 119.311669 101.28168 
L 122.320296 101.71512 
L 125.338884 101.84928 
L 128.322069 101.034 
L 131.182238 100.54896 
L 134.395416 101.04432 
L 137.035623 100.81728 
L 140.42962 101.034 
L 143.445447 101.4984 
L 146.447295 101.33328 
L 149.448339 101.1372 
L 152.502328 101.06496 
L 155.530911 102.09696 
L 158.295323 102.05568 
L 161.559035 101.4984 
L 164.565076 100.60056 
L 167.578841 100.80696 
L 170.562761 101.45712 
L 173.65086 100.55928 
L 176.639182 101.10624 
L 179.665703 100.8792 
L 182.668285 100.74504 
L 185.694281 100.21872 
L 188.712345 100.53864 
L 191.708671 101.07528 
L 194.757488 101.38488 
L 197.786036 101.26104 
L 200.786136 100.78632 
L 203.804444 100.91016 
L 206.835823 100.99272 
L 209.849483 100.38384 
L 212.86496 100.50768 
L 215.942225 100.60056 
L 218.970249 99.76464 
L 221.936904 99.49632 
L 224.979431 99.40344 
L 227.999766 100.09488 
L 230.989871 100.3632 
L 233.991684 100.19808 
L 237.056333 100.47672 
L 240.082923 100.79664 
L 243.074461 100.26 
L 246.318847 99.83688 
L 249.150184 100.13616 
L 252.17349 100.80696 
L 255.164119 101.38488 
L 258.224749 101.3436 
L 261.252878 101.292 
L 264.253327 101.28168 
L 267.29872 101.28168 
L 270.278446 101.8596 
L 273.301402 101.88024 
L 276.295037 101.72544 
L 279.36 101.68416 
" clip-path="url(#pedeb9fae15)" style="fill: none; stroke: #bebebe; stroke-width: 0.5; stroke-linecap: round"/>
   </g>
   <g id="line2d_6">
    <path d="M 8.64 73.00488 
L 11.659496 71.68392 
L 14.678993 70.6932 
L 17.698489 72.62304 
L 20.717985 73.52088 
L 23.737481 73.83048 
L 26.756978 73.8408 
L 29.776474 73.29384 
L 32.79597 73.72728 
L 35.815467 70.32168 
L 38.834963 69.77472 
L 41.854459 70.34232 
L 44.873956 70.67256 
L 47.893452 70.51776 
L 50.912948 70.848 
L 53.932444 72.31344 
L 56.951941 76.01832 
L 59.971437 75.41976 
L 62.990933 75.83256 
L 66.01043 75.79128 
L 69.029926 75.82224 
L 72.049422 77.82432 
L 75.068919 76.14216 
L 78.088415 74.75928 
L 81.107911 74.96568 
L 84.127407 77.75208 
L 87.146904 79.48584 
L 90.1664 83.31456 
L 93.185896 85.90488 
L 96.205393 84.79032 
L 98.754525 85.84296 
L 101.154081 88.25784 
L 104.17204 91.41576 
L 107.178606 88.7532 
L 110.267124 88.65 
L 113.261702 88.55712 
L 116.298428 88.96992 
L 119.311669 89.7336 
L 122.320296 90.456 
L 125.338884 90.56952 
L 128.322069 89.15568 
L 131.182238 88.9596 
L 134.395416 90.6624 
L 137.035623 89.94 
L 140.42962 90.00192 
L 143.445447 90.3528 
L 146.447295 90.62112 
L 149.448339 90.5076 
L 152.502328 90.3528 
L 155.530911 92.004 
L 158.295323 92.13816 
L 161.559035 91.25064 
L 164.565076 89.166 
L 167.578841 89.56848 
L 170.562761 90.93072 
L 173.65086 89.41368 
L 176.639182 90.37344 
L 179.665703 89.79552 
L 182.668285 90.23928 
L 185.694281 88.0824 
L 188.712345 88.7532 
L 191.708671 90.16704 
L 194.757488 90.67272 
L 197.786036 90.18768 
L 200.786136 89.2692 
L 203.804444 89.54784 
L 206.835823 89.49624 
L 209.849483 88.31976 
L 212.86496 88.45392 
L 215.942225 88.46424 
L 218.970249 86.38992 
L 221.936904 84.80064 
L 224.979431 84.8316 
L 227.999766 86.586 
L 230.989871 87.74184 
L 233.991684 87.618 
L 237.056333 88.19592 
L 240.082923 89.08344 
L 243.074461 87.89664 
L 246.318847 87.3084 
L 249.150184 87.65928 
L 252.17349 88.96992 
L 255.164119 90.07416 
L 258.224749 89.76456 
L 261.252878 89.3724 
L 264.253327 89.00088 
L 267.29872 88.42296 
L 270.278446 88.81512 
L 273.301402 89.10408 
L 276.295037 89.14536 
L 279.36 89.07312 
" clip-path="url(#pedeb9fae15)" style="fill: none; stroke: #4a8dff; stroke-width: 0.6"/>
   </g>
   <g id="line2d_7">
    <path d="M 8.64 82.03488 
L 11.659496 79.39296 
L 14.678993 79.66128 
L 17.698489 82.15872 
L 20.717985 82.43736 
L 23.737481 82.93272 
L 26.756978 83.00496 
L 29.776474 82.6128 
L 32.79597 82.28256 
L 35.815467 78.01008 
L 38.834963 76.19376 
L 41.854459 77.66952 
L 44.873956 77.74176 
L 47.893452 78.1752 
L 50.912948 79.5684 
L 53.932444 80.8068 
L 56.951941 85.20312 
L 59.971437 84.12984 
L 62.990933 84.03696 
L 66.01043 84.06792 
L 69.029926 84.3156 
L 72.049422 87.02976 
L 75.068919 85.21344 
L 78.088415 84.28464 
L 81.107911 84.32592 
L 84.127407 89.08344 
L 87.146904 89.5272 
L 90.1664 95.14128 
L 93.185896 96.98856 
L 96.205393 95.08968 
L 98.754525 97.71096 
L 101.154081 99.80592 
L 104.17204 101.79768 
L 107.178606 100.03296 
L 110.267124 100.518 
L 113.261702 99.98136 
L 116.298428 100.49736 
L 119.311669 100.78632 
L 122.320296 101.07528 
L 125.338884 101.26104 
L 128.322069 100.63152 
L 131.182238 100.38384 
L 134.395416 100.84824 
L 137.035623 100.65216 
L 140.42962 101.034 
L 143.445447 101.19912 
L 146.447295 101.10624 
L 149.448339 100.97208 
L 152.502328 100.91016 
L 155.530911 101.7564 
L 158.295323 101.84928 
L 161.559035 101.56032 
L 164.565076 100.85856 
L 167.578841 101.12688 
L 170.562761 101.4468 
L 173.65086 101.02368 
L 176.639182 101.30232 
L 179.665703 100.81728 
L 182.668285 100.79664 
L 185.694281 99.3312 
L 188.712345 99.92976 
L 191.708671 100.78632 
L 194.757488 101.17848 
L 197.786036 101.1372 
L 200.786136 100.21872 
L 203.804444 100.37352 
L 206.835823 100.4664 
L 209.849483 99.88848 
L 212.86496 99.94008 
L 215.942225 99.81624 
L 218.970249 98.93904 
L 221.936904 98.3508 
L 224.979431 98.52624 
L 227.999766 99.78528 
L 230.989871 100.12584 
L 233.991684 100.03296 
L 237.056333 100.45608 
L 240.082923 100.83792 
L 243.074461 100.11552 
L 246.318847 99.87816 
L 249.150184 100.002 
L 252.17349 100.64184 
L 255.164119 101.41584 
L 258.224749 101.21976 
L 261.252878 101.14752 
L 264.253327 101.00304 
L 267.29872 100.86888 
L 270.278446 101.21976 
L 273.301402 101.28168 
L 276.295037 101.20944 
L 279.36 101.14752 
" clip-path="url(#pedeb9fae15)" style="fill: none; stroke: #f5841e; stroke-width: 0.6"/>
   </g>
  </g>
 </g>
 <defs>
  <clipPath id="pedeb9fae15">
   <rect x="8.64" y="4.8" width="270.72" height="103.2"/>
  </clipPath>
 </defs>
</svg>
