<?xml version="1.0" encoding="utf-8" standalone="no"?>
<!DOCTYPE svg PUBLIC "-//W3C//DTD SVG 1.1//EN"
  "http://www.w3.org/Graphics/SVG/1.1/DTD/svg11.dtd">
<svg xmlns:xlink="http://www.w3.org/1999/xlink" width="288pt" height="120pt" viewBox="0 0 288 120" xmlns="http://www.w3.org/2000/svg" version="1.1">
<desc id="nav-meta">{"window":"3m","count":4,"labels":["20.01","19.02","21.03","20.04"],"tick_utc":["2026-01-20T12:00:00Z","2026-02-19T03:28:49Z","2026-03-21T03:10:23Z","2026-04-20T04:02:26Z"],"w":720,"h":300}</desc>

 <metadata>
  <rdf:RDF xmlns:dc="http://purl.org/dc/elements/1.1/" xmlns:cc="http://creativecommons.org/ns#" xmlns:rdf="http://www.w3.org/1999/02/22-rdf-syntax-ns#">
   <cc:Work>
    <dc:type rdf:resource="http://purl.org/dc/dcmitype/StillImage"/>
    <dc:date>2026-04-20T04:02:28.922480</dc:date>
    <dc:format>image/svg+xml</dc:format>
    <dc:creator>
     <cc:Agent>
      <dc:title>Matplotlib v3.10.8, https://matplotlib.org/</dc:title>
     </cc:Agent>
    </dc:creator>
   </cc:Work>
  </rdf:RDF>
 </metadata>
 <defs>
  <style type="text/css">*{stroke-linejoin: round; stroke-linecap: butt}</style>
 </defs>
 <g id="figure_1">
  <g id="patch_1">
   <path d="M 0 120 
L 288 120 
L 288 0 
L 0 0 
L 0 120 
z
" style="fill: none; opacity: 0"/>
  </g>
  <g id="axes_1">
   <g id="patch_2">
    <path d="M 8.64 108 
L 279.36 108 
L 279.36 4.8 
L 8.64 4.8 
L 8.64 108 
z
" style="fill: none"/>
   </g>
   <g id="matplotlib.axis_1"/>
   <g id="matplotlib.axis_2"/>
   <g id="line2d_1">
    <path d="M 8.64 87.36 
L 279.36 87.36 
" clip-path="url(#pf3087263db)" style="fill: none; stroke: #b2b2b2; stroke-opacity: 0.35; stroke-width: 0.5; stroke-linecap: square"/>
   </g>
   <g id="line2d_2">
    <path d="M 8.64 66.72 
L 279.36 66.72 
" clip-path="url(#pf3087263db)" style="fill: none; stroke: #b2b2b2; stroke-opacity: 0.35; stroke-width: 0.5; stroke-linecap: square"/>
   </g>
   <g id="line2d_3">
    <path d="M 8.64 46.08 
L 279.36 46.08 
" clip-path="url(#pf3087263db)" style="fill: none; stroke: #b2b2b2; stroke-opacity: 0.35; stroke-width: 0.5; stroke-linecap: square"/>
   </g>
   <g id="line2d_4">
    <path d="M 8.64 25.44 
L 279.36 25.44 
" clip-path="url(#pf3087263db)" style="fill: none; stroke: #b2b2b2; stroke-opacity: 0.35; stroke-width: 0.5; stroke-linecap: square"/>
   </g>
   <g id="line2d_5">
    <path d="M 8.64 90.0432 
L 11.659125 92.12784 
L 14.678251 91.16808 
L 17.697376 91.46736 
L 20.716501 91.73568 
L 23.735626 91.78728 
L 26.754752 94.0164 
L 29.773877 92.5716 
L 32.793002 91.76664 
L 35.812127 92.33424 
L 38.831253 94.36728 
L 41.850378 94.46016 
L 44.869503 97.71096 
L 47.888628 98.48496 
L 50.907754 97.85544 
L 53.456573 99.10416 
L 55.855834 100.16712 
L 58.873422 102.23112 
L 61.879618 100.54896 
L 64.967757 100.70376 
L 67.961968 100.68312 
L 70.99832 100.95144 
L 74.01119 101.28168 
L 77.019448 101.71512 
L 80.037665 101.84928 
L 83.020484 101.034 
L 85.880301 100.54896 
L 89.093084 101.04432 
L 91.732966 100.81728 
L 95.126547 101.034 
L 98.142003 101.4984 
L 101.143482 101.33328 
L 104.144157 101.1372 
L 107.197772 101.06496 
L 110.225982 102.09696 
L 112.990054 102.05568 
L 116.253365 101.4984 
L 119.259037 100.60056 
L 122.272432 100.80696 
L 125.255984 101.45712 
L 128.343704 100.55928 
L 131.33166 101.10624 
L 134.357808 100.8792 
L 137.360021 100.74504 
L 140.385646 100.21872 
L 143.403338 100.53864 
L 146.399296 101.07528 
L 149.447739 101.38488 
L 152.475915 101.26104 
L 155.475646 100.78632 
L 158.493583 100.91016 
L 161.524589 100.99272 
L 164.537879 100.38384 
L 167.552986 100.50768 
L 170.629873 100.60056 
L 173.657524 99.76464 
L 176.623815 99.49632 
L 179.665968 99.40344 
L 182.685932 100.09488 
L 185.67567 100.3632 
L 188.677113 100.19808 
L 191.741386 100.47672 
L 194.767605 100.79664 
L 197.758775 100.26 
L 201.002762 99.83688 
L 203.833751 100.13616 
L 206.856685 100.80696 
L 209.846947 101.38488 
L 212.907201 101.3436 
L 215.934957 101.292 
L 218.935038 101.28168 
L 221.980057 101.28168 
L 224.959416 101.8596 
L 227.982001 101.88024 
L 230.975268 101.72544 
L 234.039855 101.68416 
L 237.066773 101.47776 
L 240.066294 101.78736 
L 243.090312 101.09592 
L 246.098919 101.46744 
L 249.145824 101.3436 
L 252.118789 101.05464 
L 255.192077 101.3952 
L 258.226682 101.47776 
L 261.226589 100.86888 
L 264.243408 101.26104 
L 267.275602 100.99272 
L 270.288577 100.61088 
L 273.274401 100.44576 
L 276.333397 100.94112 
L 279.36 101.09592 
" clip-path="url(#pf3087263db)" style="fill: none; stroke: #bebebe; stroke-width: 0.5; stroke-linecap: round"/>
   </g>
   <g id="line2d_6">
    <path d="M 8.64 72.31344 
L 11.659125 76.01832 
L 14.678251 75.41976 
L 17.697376 75.83256 
L 20.716501 75.79128 
L 23.735626 75.82224 
L 26.754752 77.82432 
L 29.773877 76.14216 
L 32.793002 74.75928 
L 35.812127 74.96568 
L 38.831253 77.75208 
L 41.850378 79.48584 
L 44.869503 83.31456 
L 47.888628 85.90488 
L 50.907754 84.79032 
L 53.456573 85.84296 
L 55.855834 88.25784 
L 58.873422 91.41576 
L 61.879618 88.7532 
L 64.967757 88.65 
L 67.961968 88.55712 
L 70.99832 88.96992 
L 74.01119 89.7336 
L 77.019448 90.456 
L 80.037665 90.56952 
L 83.020484 89.15568 
L 85.880301 88.9596 
L 89.093084 90.6624 
L 91.732966 89.94 
L 95.126547 90.00192 
L 98.142003 90.3528 
L 101.143482 90.62112 
L 104.144157 90.5076 
L 107.197772 90.3528 
L 110.225982 92.004 
L 112.990054 92.13816 
L 116.253365 91.25064 
L 119.259037 89.166 
L 122.272432 89.56848 
L 125.255984 90.93072 
L 128.343704 89.41368 
L 131.33166 90.37344 
L 134.357808 89.79552 
L 137.360021 90.23928 
L 140.385646 88.0824 
L 143.403338 88.7532 
L 146.399296 90.16704 
L 149.447739 90.67272 
L 152.475915 90.18768 
L 155.475646 89.2692 
L 158.493583 89.54784 
L 161.524589 89.49624 
L 164.537879 88.31976 
L 167.552986 88.45392 
L 170.629873 88.46424 
L 173.657524 86.38992 
L 176.623815 84.80064 
L 179.665968 84.8316 
L 182.685932 86.586 
L 185.67567 87.74184 
L 188.677113 87.618 
L 191.741386 88.19592 
L 194.767605 89.08344 
L 197.758775 87.89664 
L 201.002762 87.3084 
L 203.833751 87.65928 
L 206.856685 88.96992 
L 209.846947 90.07416 
L 212.907201 89.76456 
L 215.934957 89.3724 
L 218.935038 89.00088 
L 221.980057 88.42296 
L 224.959416 88.81512 
L 227.982001 89.10408 
L 230.975268 89.14536 
L 234.039855 89.07312 
L 237.066773 87.9792 
L 240.066294 88.29912 
L 243.090312 86.38992 
L 246.098919 87.24648 
L 249.145824 87.1536 
L 252.118789 86.21448 
L 255.192077 86.66856 
L 258.226682 87.01944 
L 261.226589 84.44976 
L 264.243408 85.05864 
L 267.275602 84.58392 
L 270.288577 85.04832 
L 273.274401 83.71704 
L 276.333397 84.86256 
L 279.36 85.6572 
" clip-path="url(#pf3087263db)" style="fill: none; stroke: #4a8dff; stroke-width: 0.6"/>
   </g>
   <g id="line2d_7">
    <path d="M 8.64 80.8068 
L 11.659125 85.20312 
L 14.678251 84.12984 
L 17.697376 84.03696 
L 20.716501 84.06792 
L 23.735626 84.3156 
L 26.754752 87.02976 
L 29.773877 85.21344 
L 32.793002 84.28464 
L 35.812127 84.32592 
L 38.831253 89.08344 
L 41.850378 89.5272 
L 44.869503 95.14128 
L 47.888628 96.98856 
L 50.907754 95.08968 
L 53.456573 97.71096 
L 55.855834 99.80592 
L 58.873422 101.79768 
L 61.879618 100.03296 
L 64.967757 100.518 
L 67.961968 99.98136 
L 70.99832 100.49736 
L 74.01119 100.78632 
L 77.019448 101.07528 
L 80.037665 101.26104 
L 83.020484 100.63152 
L 85.880301 100.38384 
L 89.093084 100.84824 
L 91.732966 100.65216 
L 95.126547 101.034 
L 98.142003 101.19912 
L 101.143482 101.10624 
L 104.144157 100.97208 
L 107.197772 100.91016 
L 110.225982 101.7564 
L 112.990054 101.84928 
L 116.253365 101.56032 
L 119.259037 100.85856 
L 122.272432 101.12688 
L 125.255984 101.4468 
L 128.343704 101.02368 
L 131.33166 101.30232 
L 134.357808 100.81728 
L 137.360021 100.79664 
L 140.385646 99.3312 
L 143.403338 99.92976 
L 146.399296 100.78632 
L 149.447739 101.17848 
L 152.475915 101.1372 
L 155.475646 100.21872 
L 158.493583 100.37352 
L 161.524589 100.4664 
L 164.537879 99.88848 
L 167.552986 99.94008 
L 170.629873 99.81624 
L 173.657524 98.93904 
L 176.623815 98.3508 
L 179.665968 98.52624 
L 182.685932 99.78528 
L 185.67567 100.12584 
L 188.677113 100.03296 
L 191.741386 100.45608 
L 194.767605 100.83792 
L 197.758775 100.11552 
L 201.002762 99.87816 
L 203.833751 100.002 
L 206.856685 100.64184 
L 209.846947 101.41584 
L 212.907201 101.21976 
L 215.934957 101.14752 
L 218.935038 101.00304 
L 221.980057 100.86888 
L 224.959416 101.21976 
L 227.982001 101.28168 
L 230.975268 101.20944 
L 234.039855 101.14752 
L 237.066773 100.55928 
L 240.066294 100.65216 
L 243.090312 99.80592 
L 246.098919 99.96072 
L 249.145824 99.6408 
L 252.118789 99.1764 
L 255.192077 99.70272 
L 258.226682 99.94008 
L 261.226589 98.57784 
L 264.243408 98.65008 
L 267.275602 98.38176 
L 270.288577 98.48496 
L 273.274401 96.70992 
L 276.333397 98.05152 
L 279.36 98.48496 
" clip-path="url(#pf3087263db)" style="fill: none; stroke: #f5841e; stroke-width: 0.6"/>
   </g>
  </g>
 </g>
 <defs>
  <clipPath id="pf3087263db">
   <rect x="8.64" y="4.8" width="270.72" height="103.2"/>
  </clipPath>
 </defs>
</svg>
