<?xml version="1.0" encoding="utf-8" standalone="no"?>
<!DOCTYPE svg PUBLIC "-//W3C//DTD SVG 1.1//EN"
  "http://www.w3.org/Graphics/SVG/1.1/DTD/svg11.dtd">
<svg xmlns:xlink="http://www.w3.org/1999/xlink" width="288pt" height="120pt" viewBox="0 0 288 120" xmlns="http://www.w3.org/2000/svg" version="1.1">
<desc id="nav-meta">{"window":"3m","count":4,"labels":["29.03","28.04","27.05","26.06"],"tick_utc":["2026-03-29T03:47:09Z","2026-04-28T04:25:03Z","2026-05-27T05:03:21Z","2026-06-26T04:57:37Z"],"w":720,"h":300}</desc>

 <metadata>
  <rdf:RDF xmlns:dc="http://purl.org/dc/elements/1.1/" xmlns:cc="http://creativecommons.org/ns#" xmlns:rdf="http://www.w3.org/1999/02/22-rdf-syntax-ns#">
   <cc:Work>
    <dc:type rdf:resource="http://purl.org/dc/dcmitype/StillImage"/>
    <dc:date>2026-06-26T15:16:06.784353</dc:date>
    <dc:format>image/svg+xml</dc:format>
    <dc:creator>
     <cc:Agent>
      <dc:title>Matplotlib v3.11.0, https://matplotlib.org/</dc:title>
     </cc:Agent>
    </dc:creator>
   </cc:Work>
  </rdf:RDF>
 </metadata>
 <defs>
  <style type="text/css">*{stroke-linejoin: round; stroke-linecap: butt}</style>
 </defs>
 <g id="figure_1">
  <g id="patch_1">
   <path d="M 0 120 
L 288 120 
L 288 0 
L 0 0 
L 0 120 
z
" style="fill: none; opacity: 0"/>
  </g>
  <g id="axes_1">
   <g id="patch_2">
    <path d="M 8.64 108 
L 279.36 108 
L 279.36 4.8 
L 8.64 4.8 
L 8.64 108 
z
" style="fill: none"/>
   </g>
   <g id="matplotlib.axis_1"/>
   <g id="matplotlib.axis_2"/>
   <g id="line2d_1">
    <path d="M 8.64 87.36 
L 279.36 87.36 
" clip-path="url(#pc07a2f71e3)" style="fill: none; stroke: #b2b2b2; stroke-opacity: 0.35; stroke-width: 0.5; stroke-linecap: square"/>
   </g>
   <g id="line2d_2">
    <path d="M 8.64 66.72 
L 279.36 66.72 
" clip-path="url(#pc07a2f71e3)" style="fill: none; stroke: #b2b2b2; stroke-opacity: 0.35; stroke-width: 0.5; stroke-linecap: square"/>
   </g>
   <g id="line2d_3">
    <path d="M 8.64 46.08 
L 279.36 46.08 
" clip-path="url(#pc07a2f71e3)" style="fill: none; stroke: #b2b2b2; stroke-opacity: 0.35; stroke-width: 0.5; stroke-linecap: square"/>
   </g>
   <g id="line2d_4">
    <path d="M 8.64 25.44 
L 279.36 25.44 
" clip-path="url(#pc07a2f71e3)" style="fill: none; stroke: #b2b2b2; stroke-opacity: 0.35; stroke-width: 0.5; stroke-linecap: square"/>
   </g>
   <g id="line2d_5">
    <path d="M 8.64 101.3436 
L 11.688817 101.292 
L 14.709767 101.28168 
L 17.775966 101.28168 
L 20.77605 101.8596 
L 23.81966 101.88024 
L 26.833748 101.72544 
L 29.919652 101.68416 
L 32.967625 101.47776 
L 35.988011 101.78736 
L 39.033063 101.09592 
L 42.062598 101.46744 
L 45.130698 101.3436 
L 48.124343 101.05464 
L 51.219008 101.3952 
L 54.274722 101.47776 
L 57.295496 100.86888 
L 60.333299 101.26104 
L 63.386585 100.99272 
L 66.420519 100.61088 
L 69.427112 100.44576 
L 72.507386 100.94112 
L 75.555042 101.09592 
L 78.581833 101.00304 
L 81.612529 100.69344 
L 84.66497 100.9308 
L 87.713154 100.92048 
L 90.717003 100.81728 
L 93.80442 100.8792 
L 96.877305 100.64184 
L 99.9238 101.1888 
L 102.955622 101.09592 
L 106.000851 101.37456 
L 109.074193 101.21976 
L 112.036733 101.20944 
L 115.138576 101.23008 
L 118.177647 100.92048 
L 121.150813 101.06496 
L 124.244493 100.70376 
L 127.285428 100.55928 
L 130.274956 100.53864 
L 133.326201 99.60984 
L 136.427588 99.72336 
L 139.491711 99.44472 
L 142.489613 99.25896 
L 145.544201 99.32088 
L 148.580949 100.22904 
L 151.636065 100.01232 
L 154.63738 100.43544 
L 157.722897 100.75536 
L 160.792545 101.02368 
L 163.810891 101.02368 
L 166.86189 101.17848 
L 169.919328 100.7244 
L 172.93616 100.75536 
L 175.93452 101.11656 
L 179.022782 100.91016 
L 182.102915 100.89984 
L 185.096982 101.1372 
L 188.168319 101.2404 
L 191.198733 101.6532 
L 194.241111 101.4984 
L 197.237395 101.48808 
L 200.33959 101.32296 
L 203.424685 101.51904 
L 206.434903 101.7048 
L 209.50923 102.54072 
L 212.538941 103.08768 
L 215.528997 103.36632 
L 218.522395 104.22288 
L 221.627863 103.85136 
L 224.68143 103.68624 
L 227.663534 103.43856 
L 230.735187 103.81008 
L 233.793153 103.72752 
L 236.845208 103.50048 
L 239.863096 103.5108 
L 242.925284 103.31472 
L 246.066466 102.95352 
L 249.123939 102.61296 
L 252.067232 102.6336 
L 255.092791 102.9948 
L 258.204522 103.28376 
L 261.123078 103.01544 
L 264.22647 102.69552 
L 267.355583 102.582 
L 270.21397 102.88128 
L 273.264969 103.15992 
L 276.304286 103.36632 
L 279.36 103.36632 
" clip-path="url(#pc07a2f71e3)" style="fill: none; stroke: #bebebe; stroke-width: 0.5; stroke-linecap: round"/>
   </g>
   <g id="line2d_6">
    <path d="M 8.64 89.76456 
L 11.688817 89.3724 
L 14.709767 89.00088 
L 17.775966 88.42296 
L 20.77605 88.81512 
L 23.81966 89.10408 
L 26.833748 89.14536 
L 29.919652 89.07312 
L 32.967625 87.9792 
L 35.988011 88.29912 
L 39.033063 86.38992 
L 42.062598 87.24648 
L 45.130698 87.1536 
L 48.124343 86.21448 
L 51.219008 86.66856 
L 54.274722 87.01944 
L 57.295496 84.44976 
L 60.333299 85.05864 
L 63.386585 84.58392 
L 66.420519 85.04832 
L 69.427112 83.71704 
L 72.507386 84.86256 
L 75.555042 85.6572 
L 78.581833 85.27536 
L 81.612529 84.49104 
L 84.66497 84.86256 
L 87.713154 85.32696 
L 90.717003 85.17216 
L 93.80442 85.31664 
L 96.877305 84.11952 
L 99.9238 85.66752 
L 102.955622 85.26504 
L 106.000851 86.26608 
L 109.074193 85.77072 
L 112.036733 85.38888 
L 115.138576 85.3992 
L 118.177647 84.09888 
L 121.150813 84.22272 
L 124.244493 84.34656 
L 127.285428 85.06896 
L 130.274956 85.7604 
L 133.326201 85.0896 
L 136.427588 85.01736 
L 139.491711 84.9348 
L 142.489613 85.296 
L 145.544201 85.35792 
L 148.580949 86.1732 
L 151.636065 85.92552 
L 154.63738 86.55504 
L 157.722897 87.13296 
L 160.792545 88.10304 
L 163.810891 87.9276 
L 166.86189 88.26816 
L 169.919328 87.78312 
L 172.93616 87.95856 
L 175.93452 88.94928 
L 179.022782 88.14432 
L 182.102915 88.33008 
L 185.096982 88.52616 
L 188.168319 88.86672 
L 191.198733 90.22896 
L 194.241111 89.82648 
L 197.237395 89.87808 
L 200.33959 89.46528 
L 203.424685 90.0432 
L 206.434903 89.96064 
L 209.50923 91.99368 
L 212.538941 93.05664 
L 215.528997 93.74808 
L 218.522395 97.02984 
L 221.627863 95.93592 
L 224.68143 95.07936 
L 227.663534 94.46016 
L 230.735187 95.47152 
L 233.793153 95.11032 
L 236.845208 94.82136 
L 239.863096 94.8936 
L 242.925284 94.70784 
L 246.066466 94.04736 
L 249.123939 93.40752 
L 252.067232 92.9844 
L 255.092791 93.93384 
L 258.204522 94.4292 
L 261.123078 94.19184 
L 264.22647 93.87192 
L 267.355583 93.81 
L 270.21397 94.03704 
L 273.264969 94.83168 
L 276.304286 95.48184 
L 279.36 96.63768 
" clip-path="url(#pc07a2f71e3)" style="fill: none; stroke: #4a8dff; stroke-width: 0.6"/>
   </g>
   <g id="line2d_7">
    <path d="M 8.64 101.21976 
L 11.688817 101.14752 
L 14.709767 101.00304 
L 17.775966 100.86888 
L 20.77605 101.21976 
L 23.81966 101.28168 
L 26.833748 101.20944 
L 29.919652 101.14752 
L 32.967625 100.55928 
L 35.988011 100.65216 
L 39.033063 99.80592 
L 42.062598 99.96072 
L 45.130698 99.6408 
L 48.124343 99.1764 
L 51.219008 99.70272 
L 54.274722 99.94008 
L 57.295496 98.57784 
L 60.333299 98.65008 
L 63.386585 98.38176 
L 66.420519 98.48496 
L 69.427112 96.70992 
L 72.507386 98.05152 
L 75.555042 98.48496 
L 78.581833 97.96896 
L 81.612529 96.32808 
L 84.66497 96.20424 
L 87.713154 96.16296 
L 90.717003 96.1836 
L 93.80442 96.50352 
L 96.877305 94.76976 
L 99.9238 97.19496 
L 102.955622 96.9576 
L 106.000851 97.9896 
L 109.074193 96.89568 
L 112.036733 95.45088 
L 115.138576 95.67792 
L 118.177647 93.43848 
L 121.150813 92.90184 
L 124.244493 92.25168 
L 127.285428 92.87088 
L 130.274956 94.2744 
L 133.326201 93.1392 
L 136.427588 92.97408 
L 139.491711 92.9844 
L 142.489613 92.60256 
L 145.544201 92.53032 
L 148.580949 94.54272 
L 151.636065 92.85024 
L 154.63738 94.82136 
L 157.722897 95.75016 
L 160.792545 96.97824 
L 163.810891 97.08144 
L 166.86189 97.23624 
L 169.919328 95.94624 
L 172.93616 96.30744 
L 175.93452 98.08248 
L 179.022782 97.2672 
L 182.102915 96.61704 
L 185.096982 97.23624 
L 188.168319 98.08248 
L 191.198733 99.18672 
L 194.241111 99.03192 
L 197.237395 99.1248 
L 200.33959 98.74296 
L 203.424685 99.09384 
L 206.434903 100.0536 
L 209.50923 101.23008 
L 212.538941 101.99376 
L 215.528997 102.08664 
L 218.522395 102.8916 
L 221.627863 102.45816 
L 224.68143 102.28272 
L 227.663534 102.10728 
L 230.735187 102.582 
L 233.793153 102.29304 
L 236.845208 102.08664 
L 239.863096 102.066 
L 242.925284 101.86992 
L 246.066466 101.48808 
L 249.123939 101.40552 
L 252.067232 101.4984 
L 255.092791 101.97312 
L 258.204522 102.26208 
L 261.123078 102.066 
L 264.22647 101.90088 
L 267.355583 101.90088 
L 270.21397 102.0144 
L 273.264969 102.25176 
L 276.304286 102.6336 
L 279.36 102.88128 
" clip-path="url(#pc07a2f71e3)" style="fill: none; stroke: #f5841e; stroke-width: 0.6"/>
   </g>
  </g>
 </g>
 <defs>
  <clipPath id="pc07a2f71e3">
   <rect x="8.64" y="4.8" width="270.72" height="103.2"/>
  </clipPath>
 </defs>
</svg>
