<?xml version="1.0" encoding="utf-8" standalone="no"?>
<!DOCTYPE svg PUBLIC "-//W3C//DTD SVG 1.1//EN"
  "http://www.w3.org/Graphics/SVG/1.1/DTD/svg11.dtd">
<svg xmlns:xlink="http://www.w3.org/1999/xlink" width="288pt" height="120pt" viewBox="0 0 288 120" xmlns="http://www.w3.org/2000/svg" version="1.1">
<desc id="nav-meta">{"window":"3m","count":4,"labels":["29.11","29.12","28.01","27.02"],"tick_utc":["2025-11-29T12:00:00Z","2025-12-29T12:00:00Z","2026-01-28T12:00:00Z","2026-02-27T03:18:03Z"],"w":720,"h":300}</desc>

 <metadata>
  <rdf:RDF xmlns:dc="http://purl.org/dc/elements/1.1/" xmlns:cc="http://creativecommons.org/ns#" xmlns:rdf="http://www.w3.org/1999/02/22-rdf-syntax-ns#">
   <cc:Work>
    <dc:type rdf:resource="http://purl.org/dc/dcmitype/StillImage"/>
    <dc:date>2026-02-27T07:33:41.113439</dc:date>
    <dc:format>image/svg+xml</dc:format>
    <dc:creator>
     <cc:Agent>
      <dc:title>Matplotlib v3.10.8, https://matplotlib.org/</dc:title>
     </cc:Agent>
    </dc:creator>
   </cc:Work>
  </rdf:RDF>
 </metadata>
 <defs>
  <style type="text/css">*{stroke-linejoin: round; stroke-linecap: butt}</style>
 </defs>
 <g id="figure_1">
  <g id="patch_1">
   <path d="M 0 120 
L 288 120 
L 288 0 
L 0 0 
L 0 120 
z
" style="fill: none; opacity: 0"/>
  </g>
  <g id="axes_1">
   <g id="patch_2">
    <path d="M 8.64 108 
L 279.36 108 
L 279.36 4.8 
L 8.64 4.8 
L 8.64 108 
z
" style="fill: none"/>
   </g>
   <g id="matplotlib.axis_1"/>
   <g id="matplotlib.axis_2"/>
   <g id="line2d_1">
    <path d="M 8.64 87.36 
L 279.36 87.36 
" clip-path="url(#p2cf107e70c)" style="fill: none; stroke: #b2b2b2; stroke-opacity: 0.35; stroke-width: 0.5; stroke-linecap: square"/>
   </g>
   <g id="line2d_2">
    <path d="M 8.64 66.72 
L 279.36 66.72 
" clip-path="url(#p2cf107e70c)" style="fill: none; stroke: #b2b2b2; stroke-opacity: 0.35; stroke-width: 0.5; stroke-linecap: square"/>
   </g>
   <g id="line2d_3">
    <path d="M 8.64 46.08 
L 279.36 46.08 
" clip-path="url(#p2cf107e70c)" style="fill: none; stroke: #b2b2b2; stroke-opacity: 0.35; stroke-width: 0.5; stroke-linecap: square"/>
   </g>
   <g id="line2d_4">
    <path d="M 8.64 25.44 
L 279.36 25.44 
" clip-path="url(#p2cf107e70c)" style="fill: none; stroke: #b2b2b2; stroke-opacity: 0.35; stroke-width: 0.5; stroke-linecap: square"/>
   </g>
   <g id="line2d_5">
    <path d="M 8.64 88.94928 
L 11.660163 89.3208 
L 14.680327 89.7336 
L 17.70049 91.86984 
L 20.720654 88.60872 
L 23.740817 86.87496 
L 26.76098 88.52616 
L 29.781144 90.11544 
L 32.801307 90.38376 
L 35.82147 90.53856 
L 38.841634 90.08448 
L 41.861797 88.79448 
L 44.881961 89.20728 
L 47.902124 89.22792 
L 50.922287 90.31152 
L 53.942451 90.10512 
L 56.962614 91.09584 
L 59.982777 91.61184 
L 63.002941 91.31256 
L 66.023104 92.87088 
L 69.043268 93.8616 
L 72.063431 92.02464 
L 75.083594 92.13816 
L 78.103758 92.07624 
L 81.123921 92.14848 
L 84.144085 92.64384 
L 87.164248 93.01536 
L 90.184411 93.69648 
L 93.204575 93.11856 
L 96.224738 92.44776 
L 99.244901 92.30328 
L 102.265065 92.87088 
L 105.285228 92.38584 
L 108.305392 92.47872 
L 111.325555 91.88016 
L 114.345718 90.42504 
L 117.365882 90.08448 
L 120.386045 89.92968 
L 123.406209 88.76352 
L 126.426372 87.94824 
L 129.446535 89.2692 
L 132.466699 88.72224 
L 135.486862 89.39304 
L 138.507025 89.40336 
L 141.527189 88.41264 
L 144.547352 88.4952 
L 147.567516 86.86464 
L 150.587679 86.42088 
L 153.607842 87.62832 
L 156.628006 86.93688 
L 159.648169 87.23616 
L 162.668332 88.63968 
L 165.688496 90.0432 
L 168.708659 92.12784 
L 171.728823 91.16808 
L 174.748986 91.46736 
L 177.769149 91.73568 
L 180.789313 91.78728 
L 183.809476 94.0164 
L 186.82964 92.5716 
L 189.849803 91.76664 
L 192.869966 92.33424 
L 195.89013 94.36728 
L 198.910293 94.46016 
L 201.930456 97.71096 
L 204.95062 98.48496 
L 207.970783 97.85544 
L 210.520479 99.10416 
L 212.920565 100.16712 
L 215.939191 102.23112 
L 218.94642 100.54896 
L 222.035621 100.70376 
L 225.030861 100.68312 
L 228.068258 100.95144 
L 231.082164 101.28168 
L 234.091456 101.71512 
L 237.110711 101.84928 
L 240.094555 101.034 
L 242.955356 100.54896 
L 246.169243 101.04432 
L 248.810034 100.81728 
L 252.204781 101.034 
L 255.221274 101.4984 
L 258.223785 101.33328 
L 261.225492 101.1372 
L 264.280156 101.06496 
L 267.309408 102.09696 
L 270.074431 102.05568 
L 273.338864 101.4984 
L 276.345569 100.60056 
L 279.36 100.80696 
" clip-path="url(#p2cf107e70c)" style="fill: none; stroke: #bebebe; stroke-width: 0.5; stroke-linecap: round"/>
   </g>
   <g id="line2d_6">
    <path d="M 8.64 74.57352 
L 11.660163 75.20304 
L 14.680327 75.17208 
L 17.70049 78.05136 
L 20.720654 75.1308 
L 23.740817 72.16896 
L 26.76098 73.08744 
L 29.781144 74.72832 
L 32.801307 74.48064 
L 35.82147 74.28456 
L 38.841634 73.21128 
L 41.861797 70.2804 
L 44.881961 70.2288 
L 47.902124 71.56008 
L 50.922287 73.79952 
L 53.942451 73.35576 
L 56.962614 74.0988 
L 59.982777 75.5952 
L 63.002941 75.5952 
L 66.023104 77.61792 
L 69.043268 77.63856 
L 72.063431 75.40944 
L 75.083594 75.40944 
L 78.103758 75.04824 
L 81.123921 74.98632 
L 84.144085 75.58488 
L 87.164248 75.87384 
L 90.184411 76.49304 
L 93.204575 76.15248 
L 96.224738 75.82224 
L 99.244901 75.84288 
L 102.265065 76.03896 
L 105.285228 75.51264 
L 108.305392 75.56424 
L 111.325555 75.05856 
L 114.345718 73.26288 
L 117.365882 73.20096 
L 120.386045 73.00488 
L 123.406209 71.68392 
L 126.426372 70.6932 
L 129.446535 72.62304 
L 132.466699 73.52088 
L 135.486862 73.83048 
L 138.507025 73.8408 
L 141.527189 73.29384 
L 144.547352 73.72728 
L 147.567516 70.32168 
L 150.587679 69.77472 
L 153.607842 70.34232 
L 156.628006 70.67256 
L 159.648169 70.51776 
L 162.668332 70.848 
L 165.688496 72.31344 
L 168.708659 76.01832 
L 171.728823 75.41976 
L 174.748986 75.83256 
L 177.769149 75.79128 
L 180.789313 75.82224 
L 183.809476 77.82432 
L 186.82964 76.14216 
L 189.849803 74.75928 
L 192.869966 74.96568 
L 195.89013 77.75208 
L 198.910293 79.48584 
L 201.930456 83.31456 
L 204.95062 85.90488 
L 207.970783 84.79032 
L 210.520479 85.84296 
L 212.920565 88.25784 
L 215.939191 91.41576 
L 218.94642 88.7532 
L 222.035621 88.65 
L 225.030861 88.55712 
L 228.068258 88.96992 
L 231.082164 89.7336 
L 234.091456 90.456 
L 237.110711 90.56952 
L 240.094555 89.15568 
L 242.955356 88.9596 
L 246.169243 90.6624 
L 248.810034 89.94 
L 252.204781 90.00192 
L 255.221274 90.3528 
L 258.223785 90.62112 
L 261.225492 90.5076 
L 264.280156 90.3528 
L 267.309408 92.004 
L 270.074431 92.13816 
L 273.338864 91.25064 
L 276.345569 89.166 
L 279.36 89.56848 
" clip-path="url(#p2cf107e70c)" style="fill: none; stroke: #4a8dff; stroke-width: 0.6"/>
   </g>
   <g id="line2d_7">
    <path d="M 8.64 82.47864 
L 11.660163 82.58184 
L 14.680327 83.03592 
L 17.70049 87.3084 
L 20.720654 82.06584 
L 23.740817 79.71288 
L 26.76098 81.24024 
L 29.781144 84.17112 
L 32.801307 84.24336 
L 35.82147 83.29392 
L 38.841634 82.8192 
L 41.861797 80.64168 
L 44.881961 81.38472 
L 47.902124 80.87904 
L 50.922287 83.13912 
L 53.942451 83.19072 
L 56.962614 85.296 
L 59.982777 87.17424 
L 63.002941 85.71912 
L 66.023104 87.53544 
L 69.043268 88.17528 
L 72.063431 85.41984 
L 75.083594 85.17216 
L 78.103758 84.9348 
L 81.123921 85.01736 
L 84.144085 86.14224 
L 87.164248 85.90488 
L 90.184411 86.328 
L 93.204575 86.24544 
L 96.224738 85.72944 
L 99.244901 85.7088 
L 102.265065 86.40024 
L 105.285228 85.09992 
L 108.305392 86.02872 
L 111.325555 84.78 
L 114.345718 83.53128 
L 117.365882 82.83984 
L 120.386045 82.03488 
L 123.406209 79.39296 
L 126.426372 79.66128 
L 129.446535 82.15872 
L 132.466699 82.43736 
L 135.486862 82.93272 
L 138.507025 83.00496 
L 141.527189 82.6128 
L 144.547352 82.28256 
L 147.567516 78.01008 
L 150.587679 76.19376 
L 153.607842 77.66952 
L 156.628006 77.74176 
L 159.648169 78.1752 
L 162.668332 79.5684 
L 165.688496 80.8068 
L 168.708659 85.20312 
L 171.728823 84.12984 
L 174.748986 84.03696 
L 177.769149 84.06792 
L 180.789313 84.3156 
L 183.809476 87.02976 
L 186.82964 85.21344 
L 189.849803 84.28464 
L 192.869966 84.32592 
L 195.89013 89.08344 
L 198.910293 89.5272 
L 201.930456 95.14128 
L 204.95062 96.98856 
L 207.970783 95.08968 
L 210.520479 97.71096 
L 212.920565 99.80592 
L 215.939191 101.79768 
L 218.94642 100.03296 
L 222.035621 100.518 
L 225.030861 99.98136 
L 228.068258 100.49736 
L 231.082164 100.78632 
L 234.091456 101.07528 
L 237.110711 101.26104 
L 240.094555 100.63152 
L 242.955356 100.38384 
L 246.169243 100.84824 
L 248.810034 100.65216 
L 252.204781 101.034 
L 255.221274 101.19912 
L 258.223785 101.10624 
L 261.225492 100.97208 
L 264.280156 100.91016 
L 267.309408 101.7564 
L 270.074431 101.84928 
L 273.338864 101.56032 
L 276.345569 100.85856 
L 279.36 101.12688 
" clip-path="url(#p2cf107e70c)" style="fill: none; stroke: #f5841e; stroke-width: 0.6"/>
   </g>
  </g>
 </g>
 <defs>
  <clipPath id="p2cf107e70c">
   <rect x="8.64" y="4.8" width="270.72" height="103.2"/>
  </clipPath>
 </defs>
</svg>
