<?xml version="1.0" encoding="utf-8" standalone="no"?>
<!DOCTYPE svg PUBLIC "-//W3C//DTD SVG 1.1//EN"
  "http://www.w3.org/Graphics/SVG/1.1/DTD/svg11.dtd">
<svg xmlns:xlink="http://www.w3.org/1999/xlink" width="288pt" height="120pt" viewBox="0 0 288 120" xmlns="http://www.w3.org/2000/svg" version="1.1">
<desc id="nav-meta">{"window":"1m","count":4,"labels":["13.01","23.01","01.02","11.02"],"tick_utc":["2026-01-13T12:00:00Z","2026-01-23T12:00:00Z","2026-02-01T12:00:00Z","2026-02-11T03:39:24Z"],"w":720,"h":300}</desc>

 <metadata>
  <rdf:RDF xmlns:dc="http://purl.org/dc/elements/1.1/" xmlns:cc="http://creativecommons.org/ns#" xmlns:rdf="http://www.w3.org/1999/02/22-rdf-syntax-ns#">
   <cc:Work>
    <dc:type rdf:resource="http://purl.org/dc/dcmitype/StillImage"/>
    <dc:date>2026-02-11T14:02:18.951098</dc:date>
    <dc:format>image/svg+xml</dc:format>
    <dc:creator>
     <cc:Agent>
      <dc:title>Matplotlib v3.10.8, https://matplotlib.org/</dc:title>
     </cc:Agent>
    </dc:creator>
   </cc:Work>
  </rdf:RDF>
 </metadata>
 <defs>
  <style type="text/css">*{stroke-linejoin: round; stroke-linecap: butt}</style>
 </defs>
 <g id="figure_1">
  <g id="patch_1">
   <path d="M 0 120 
L 288 120 
L 288 0 
L 0 0 
L 0 120 
z
" style="fill: none; opacity: 0"/>
  </g>
  <g id="axes_1">
   <g id="patch_2">
    <path d="M 8.64 108 
L 279.36 108 
L 279.36 4.8 
L 8.64 4.8 
L 8.64 108 
z
" style="fill: none"/>
   </g>
   <g id="matplotlib.axis_1"/>
   <g id="matplotlib.axis_2"/>
   <g id="line2d_1">
    <path d="M 8.64 87.36 
L 279.36 87.36 
" clip-path="url(#p7eafe9a0de)" style="fill: none; stroke: #b2b2b2; stroke-opacity: 0.35; stroke-width: 0.5; stroke-linecap: square"/>
   </g>
   <g id="line2d_2">
    <path d="M 8.64 66.72 
L 279.36 66.72 
" clip-path="url(#p7eafe9a0de)" style="fill: none; stroke: #b2b2b2; stroke-opacity: 0.35; stroke-width: 0.5; stroke-linecap: square"/>
   </g>
   <g id="line2d_3">
    <path d="M 8.64 46.08 
L 279.36 46.08 
" clip-path="url(#p7eafe9a0de)" style="fill: none; stroke: #b2b2b2; stroke-opacity: 0.35; stroke-width: 0.5; stroke-linecap: square"/>
   </g>
   <g id="line2d_4">
    <path d="M 8.64 25.44 
L 279.36 25.44 
" clip-path="url(#p7eafe9a0de)" style="fill: none; stroke: #b2b2b2; stroke-opacity: 0.35; stroke-width: 0.5; stroke-linecap: square"/>
   </g>
   <g id="line2d_5">
    <path d="M 8.64 88.4952 
L 18.088436 86.86464 
L 27.536872 86.42088 
L 36.985308 87.62832 
L 46.433744 86.93688 
L 55.88218 87.23616 
L 65.330616 88.63968 
L 74.779052 90.0432 
L 84.227488 92.12784 
L 93.675924 91.16808 
L 103.12436 91.46736 
L 112.572796 91.73568 
L 122.021232 91.78728 
L 131.469668 94.0164 
L 140.918104 92.5716 
L 150.36654 91.76664 
L 159.814976 92.33424 
L 169.263412 94.36728 
L 178.711848 94.46016 
L 188.160284 97.71096 
L 197.60872 98.48496 
L 207.057156 97.85544 
L 215.033757 99.10416 
L 222.542311 100.16712 
L 231.985936 102.23112 
L 241.39391 100.54896 
L 251.058325 100.70376 
L 260.42879 100.68312 
L 269.931139 100.95144 
L 279.36 101.28168 
" clip-path="url(#p7eafe9a0de)" style="fill: none; stroke: #bebebe; stroke-width: 0.5; stroke-linecap: round"/>
   </g>
   <g id="line2d_6">
    <path d="M 8.64 73.72728 
L 18.088436 70.32168 
L 27.536872 69.77472 
L 36.985308 70.34232 
L 46.433744 70.67256 
L 55.88218 70.51776 
L 65.330616 70.848 
L 74.779052 72.31344 
L 84.227488 76.01832 
L 93.675924 75.41976 
L 103.12436 75.83256 
L 112.572796 75.79128 
L 122.021232 75.82224 
L 131.469668 77.82432 
L 140.918104 76.14216 
L 150.36654 74.75928 
L 159.814976 74.96568 
L 169.263412 77.75208 
L 178.711848 79.48584 
L 188.160284 83.31456 
L 197.60872 85.90488 
L 207.057156 84.79032 
L 215.033757 85.84296 
L 222.542311 88.25784 
L 231.985936 91.41576 
L 241.39391 88.7532 
L 251.058325 88.65 
L 260.42879 88.55712 
L 269.931139 88.96992 
L 279.36 89.7336 
" clip-path="url(#p7eafe9a0de)" style="fill: none; stroke: #4a8dff; stroke-width: 0.6"/>
   </g>
   <g id="line2d_7">
    <path d="M 8.64 82.28256 
L 18.088436 78.01008 
L 27.536872 76.19376 
L 36.985308 77.66952 
L 46.433744 77.74176 
L 55.88218 78.1752 
L 65.330616 79.5684 
L 74.779052 80.8068 
L 84.227488 85.20312 
L 93.675924 84.12984 
L 103.12436 84.03696 
L 112.572796 84.06792 
L 122.021232 84.3156 
L 131.469668 87.02976 
L 140.918104 85.21344 
L 150.36654 84.28464 
L 159.814976 84.32592 
L 169.263412 89.08344 
L 178.711848 89.5272 
L 188.160284 95.14128 
L 197.60872 96.98856 
L 207.057156 95.08968 
L 215.033757 97.71096 
L 222.542311 99.80592 
L 231.985936 101.79768 
L 241.39391 100.03296 
L 251.058325 100.518 
L 260.42879 99.98136 
L 269.931139 100.49736 
L 279.36 100.78632 
" clip-path="url(#p7eafe9a0de)" style="fill: none; stroke: #f5841e; stroke-width: 0.6"/>
   </g>
  </g>
 </g>
 <defs>
  <clipPath id="p7eafe9a0de">
   <rect x="8.64" y="4.8" width="270.72" height="103.2"/>
  </clipPath>
 </defs>
</svg>
