<?xml version="1.0" encoding="utf-8" standalone="no"?>
<!DOCTYPE svg PUBLIC "-//W3C//DTD SVG 1.1//EN"
  "http://www.w3.org/Graphics/SVG/1.1/DTD/svg11.dtd">
<svg xmlns:xlink="http://www.w3.org/1999/xlink" width="288pt" height="120pt" viewBox="0 0 288 120" xmlns="http://www.w3.org/2000/svg" version="1.1">
<desc id="nav-meta">{"window":"1m","count":4,"labels":["17.04","27.04","06.05","16.05"],"tick_utc":["2026-04-17T03:55:44Z","2026-04-27T04:22:02Z","2026-05-06T04:24:54Z","2026-05-16T04:20:56Z"],"w":720,"h":300}</desc>

 <metadata>
  <rdf:RDF xmlns:dc="http://purl.org/dc/elements/1.1/" xmlns:cc="http://creativecommons.org/ns#" xmlns:rdf="http://www.w3.org/1999/02/22-rdf-syntax-ns#">
   <cc:Work>
    <dc:type rdf:resource="http://purl.org/dc/dcmitype/StillImage"/>
    <dc:date>2026-05-16T14:08:32.154220</dc:date>
    <dc:format>image/svg+xml</dc:format>
    <dc:creator>
     <cc:Agent>
      <dc:title>Matplotlib v3.10.9, https://matplotlib.org/</dc:title>
     </cc:Agent>
    </dc:creator>
   </cc:Work>
  </rdf:RDF>
 </metadata>
 <defs>
  <style type="text/css">*{stroke-linejoin: round; stroke-linecap: butt}</style>
 </defs>
 <g id="figure_1">
  <g id="patch_1">
   <path d="M 0 120 
L 288 120 
L 288 0 
L 0 0 
L 0 120 
z
" style="fill: none; opacity: 0"/>
  </g>
  <g id="axes_1">
   <g id="patch_2">
    <path d="M 8.64 108 
L 279.36 108 
L 279.36 4.8 
L 8.64 4.8 
L 8.64 108 
z
" style="fill: none"/>
   </g>
   <g id="matplotlib.axis_1"/>
   <g id="matplotlib.axis_2"/>
   <g id="line2d_1">
    <path d="M 8.64 87.36 
L 279.36 87.36 
" clip-path="url(#pd9c4d2ccd6)" style="fill: none; stroke: #b2b2b2; stroke-opacity: 0.35; stroke-width: 0.5; stroke-linecap: square"/>
   </g>
   <g id="line2d_2">
    <path d="M 8.64 66.72 
L 279.36 66.72 
" clip-path="url(#pd9c4d2ccd6)" style="fill: none; stroke: #b2b2b2; stroke-opacity: 0.35; stroke-width: 0.5; stroke-linecap: square"/>
   </g>
   <g id="line2d_3">
    <path d="M 8.64 46.08 
L 279.36 46.08 
" clip-path="url(#pd9c4d2ccd6)" style="fill: none; stroke: #b2b2b2; stroke-opacity: 0.35; stroke-width: 0.5; stroke-linecap: square"/>
   </g>
   <g id="line2d_4">
    <path d="M 8.64 25.44 
L 279.36 25.44 
" clip-path="url(#pd9c4d2ccd6)" style="fill: none; stroke: #b2b2b2; stroke-opacity: 0.35; stroke-width: 0.5; stroke-linecap: square"/>
   </g>
   <g id="line2d_5">
    <path d="M 8.64 100.61088 
L 17.866637 100.44576 
L 27.319385 100.94112 
L 36.672036 101.09592 
L 45.960654 101.00304 
L 55.261257 100.69344 
L 64.628593 100.9308 
L 73.982863 100.92048 
L 83.201078 100.81728 
L 92.675746 100.8792 
L 102.105819 100.64184 
L 111.454906 101.1888 
L 120.758965 101.09592 
L 130.104165 101.37456 
L 139.535641 101.21976 
L 148.627086 101.20944 
L 158.146027 101.23008 
L 167.47233 100.92048 
L 176.596385 101.06496 
L 186.090274 100.70376 
L 195.4223 100.55928 
L 204.596566 100.53864 
L 213.960231 99.60984 
L 223.477768 99.72336 
L 232.880953 99.44472 
L 242.080919 99.25896 
L 251.454842 99.32088 
L 260.774018 100.22904 
L 270.14956 100.01232 
L 279.36 100.43544 
" clip-path="url(#pd9c4d2ccd6)" style="fill: none; stroke: #bebebe; stroke-width: 0.5; stroke-linecap: round"/>
   </g>
   <g id="line2d_6">
    <path d="M 8.64 85.04832 
L 17.866637 83.71704 
L 27.319385 84.86256 
L 36.672036 85.6572 
L 45.960654 85.27536 
L 55.261257 84.49104 
L 64.628593 84.86256 
L 73.982863 85.32696 
L 83.201078 85.17216 
L 92.675746 85.31664 
L 102.105819 84.11952 
L 111.454906 85.66752 
L 120.758965 85.26504 
L 130.104165 86.26608 
L 139.535641 85.77072 
L 148.627086 85.38888 
L 158.146027 85.3992 
L 167.47233 84.09888 
L 176.596385 84.22272 
L 186.090274 84.34656 
L 195.4223 85.06896 
L 204.596566 85.7604 
L 213.960231 85.0896 
L 223.477768 85.01736 
L 232.880953 84.9348 
L 242.080919 85.296 
L 251.454842 85.35792 
L 260.774018 86.1732 
L 270.14956 85.92552 
L 279.36 86.55504 
" clip-path="url(#pd9c4d2ccd6)" style="fill: none; stroke: #4a8dff; stroke-width: 0.6"/>
   </g>
   <g id="line2d_7">
    <path d="M 8.64 98.48496 
L 17.866637 96.70992 
L 27.319385 98.05152 
L 36.672036 98.48496 
L 45.960654 97.96896 
L 55.261257 96.32808 
L 64.628593 96.20424 
L 73.982863 96.16296 
L 83.201078 96.1836 
L 92.675746 96.50352 
L 102.105819 94.76976 
L 111.454906 97.19496 
L 120.758965 96.9576 
L 130.104165 97.9896 
L 139.535641 96.89568 
L 148.627086 95.45088 
L 158.146027 95.67792 
L 167.47233 93.43848 
L 176.596385 92.90184 
L 186.090274 92.25168 
L 195.4223 92.87088 
L 204.596566 94.2744 
L 213.960231 93.1392 
L 223.477768 92.97408 
L 232.880953 92.9844 
L 242.080919 92.60256 
L 251.454842 92.53032 
L 260.774018 94.54272 
L 270.14956 92.85024 
L 279.36 94.82136 
" clip-path="url(#pd9c4d2ccd6)" style="fill: none; stroke: #f5841e; stroke-width: 0.6"/>
   </g>
  </g>
 </g>
 <defs>
  <clipPath id="pd9c4d2ccd6">
   <rect x="8.64" y="4.8" width="270.72" height="103.2"/>
  </clipPath>
 </defs>
</svg>
