<?xml version="1.0" encoding="utf-8" standalone="no"?>
<!DOCTYPE svg PUBLIC "-//W3C//DTD SVG 1.1//EN"
  "http://www.w3.org/Graphics/SVG/1.1/DTD/svg11.dtd">
<svg xmlns:xlink="http://www.w3.org/1999/xlink" width="288pt" height="120pt" viewBox="0 0 288 120" xmlns="http://www.w3.org/2000/svg" version="1.1">
<desc id="nav-meta">{"window":"3m","count":4,"labels":["12.01","11.02","13.03","12.04"],"tick_utc":["2026-01-12T12:00:00Z","2026-02-11T03:39:24Z","2026-03-13T03:16:57Z","2026-04-12T03:55:19Z"],"w":720,"h":300}</desc>

 <metadata>
  <rdf:RDF xmlns:dc="http://purl.org/dc/elements/1.1/" xmlns:cc="http://creativecommons.org/ns#" xmlns:rdf="http://www.w3.org/1999/02/22-rdf-syntax-ns#">
   <cc:Work>
    <dc:type rdf:resource="http://purl.org/dc/dcmitype/StillImage"/>
    <dc:date>2026-04-12T07:51:54.539550</dc:date>
    <dc:format>image/svg+xml</dc:format>
    <dc:creator>
     <cc:Agent>
      <dc:title>Matplotlib v3.10.8, https://matplotlib.org/</dc:title>
     </cc:Agent>
    </dc:creator>
   </cc:Work>
  </rdf:RDF>
 </metadata>
 <defs>
  <style type="text/css">*{stroke-linejoin: round; stroke-linecap: butt}</style>
 </defs>
 <g id="figure_1">
  <g id="patch_1">
   <path d="M 0 120 
L 288 120 
L 288 0 
L 0 0 
L 0 120 
z
" style="fill: none; opacity: 0"/>
  </g>
  <g id="axes_1">
   <g id="patch_2">
    <path d="M 8.64 108 
L 279.36 108 
L 279.36 4.8 
L 8.64 4.8 
L 8.64 108 
z
" style="fill: none"/>
   </g>
   <g id="matplotlib.axis_1"/>
   <g id="matplotlib.axis_2"/>
   <g id="line2d_1">
    <path d="M 8.64 87.36 
L 279.36 87.36 
" clip-path="url(#pedcd4637e5)" style="fill: none; stroke: #b2b2b2; stroke-opacity: 0.35; stroke-width: 0.5; stroke-linecap: square"/>
   </g>
   <g id="line2d_2">
    <path d="M 8.64 66.72 
L 279.36 66.72 
" clip-path="url(#pedcd4637e5)" style="fill: none; stroke: #b2b2b2; stroke-opacity: 0.35; stroke-width: 0.5; stroke-linecap: square"/>
   </g>
   <g id="line2d_3">
    <path d="M 8.64 46.08 
L 279.36 46.08 
" clip-path="url(#pedcd4637e5)" style="fill: none; stroke: #b2b2b2; stroke-opacity: 0.35; stroke-width: 0.5; stroke-linecap: square"/>
   </g>
   <g id="line2d_4">
    <path d="M 8.64 25.44 
L 279.36 25.44 
" clip-path="url(#pedcd4637e5)" style="fill: none; stroke: #b2b2b2; stroke-opacity: 0.35; stroke-width: 0.5; stroke-linecap: square"/>
   </g>
   <g id="line2d_5">
    <path d="M 8.64 88.41264 
L 11.659292 88.4952 
L 14.678583 86.86464 
L 17.697875 86.42088 
L 20.717167 87.62832 
L 23.736458 86.93688 
L 26.75575 87.23616 
L 29.775042 88.63968 
L 32.794333 90.0432 
L 35.813625 92.12784 
L 38.832917 91.16808 
L 41.852208 91.46736 
L 44.8715 91.73568 
L 47.890792 91.78728 
L 50.910083 94.0164 
L 53.929375 92.5716 
L 56.948667 91.76664 
L 59.967958 92.33424 
L 62.98725 94.36728 
L 66.006542 94.46016 
L 69.025833 97.71096 
L 72.045125 98.48496 
L 75.064417 97.85544 
L 77.613377 99.10416 
L 80.01277 100.16712 
L 83.030524 102.23112 
L 86.036886 100.54896 
L 89.125195 100.70376 
L 92.119571 100.68312 
L 95.15609 100.95144 
L 98.169127 101.28168 
L 101.17755 101.71512 
L 104.195934 101.84928 
L 107.178917 101.034 
L 110.038892 100.54896 
L 113.251852 101.04432 
L 115.89188 100.81728 
L 119.285647 101.034 
L 122.30127 101.4984 
L 125.302914 101.33328 
L 128.303754 101.1372 
L 131.357537 101.06496 
L 134.385915 102.09696 
L 137.150139 102.05568 
L 140.41363 101.4984 
L 143.419468 100.60056 
L 146.433028 100.80696 
L 149.416746 101.45712 
L 152.504635 100.55928 
L 155.492756 101.10624 
L 158.519071 100.8792 
L 161.521449 100.74504 
L 164.547241 100.21872 
L 167.5651 100.53864 
L 170.561223 101.07528 
L 173.609833 101.38488 
L 176.638176 101.26104 
L 179.638073 100.78632 
L 182.656176 100.91016 
L 185.68735 100.99272 
L 188.700805 100.38384 
L 191.716078 100.50768 
L 194.793135 100.60056 
L 197.820953 99.76464 
L 200.787407 99.49632 
L 203.829728 99.40344 
L 206.849858 100.09488 
L 209.839761 100.3632 
L 212.84137 100.19808 
L 215.905811 100.47672 
L 218.932197 100.79664 
L 221.923532 100.26 
L 225.167698 99.83688 
L 227.998843 100.13616 
L 231.021944 100.80696 
L 234.012371 101.38488 
L 237.072793 101.3436 
L 240.100717 101.292 
L 243.100963 101.28168 
L 246.146149 101.28168 
L 249.125673 101.8596 
L 252.148424 101.88024 
L 255.141856 101.72544 
L 258.206612 101.68416 
L 261.233696 101.47776 
L 264.233384 101.78736 
L 267.257568 101.09592 
L 270.266341 101.46744 
L 273.313414 101.3436 
L 276.286543 101.05464 
L 279.36 101.3952 
" clip-path="url(#pedcd4637e5)" style="fill: none; stroke: #bebebe; stroke-width: 0.5; stroke-linecap: round"/>
   </g>
   <g id="line2d_6">
    <path d="M 8.64 73.29384 
L 11.659292 73.72728 
L 14.678583 70.32168 
L 17.697875 69.77472 
L 20.717167 70.34232 
L 23.736458 70.67256 
L 26.75575 70.51776 
L 29.775042 70.848 
L 32.794333 72.31344 
L 35.813625 76.01832 
L 38.832917 75.41976 
L 41.852208 75.83256 
L 44.8715 75.79128 
L 47.890792 75.82224 
L 50.910083 77.82432 
L 53.929375 76.14216 
L 56.948667 74.75928 
L 59.967958 74.96568 
L 62.98725 77.75208 
L 66.006542 79.48584 
L 69.025833 83.31456 
L 72.045125 85.90488 
L 75.064417 84.79032 
L 77.613377 85.84296 
L 80.01277 88.25784 
L 83.030524 91.41576 
L 86.036886 88.7532 
L 89.125195 88.65 
L 92.119571 88.55712 
L 95.15609 88.96992 
L 98.169127 89.7336 
L 101.17755 90.456 
L 104.195934 90.56952 
L 107.178917 89.15568 
L 110.038892 88.9596 
L 113.251852 90.6624 
L 115.89188 89.94 
L 119.285647 90.00192 
L 122.30127 90.3528 
L 125.302914 90.62112 
L 128.303754 90.5076 
L 131.357537 90.3528 
L 134.385915 92.004 
L 137.150139 92.13816 
L 140.41363 91.25064 
L 143.419468 89.166 
L 146.433028 89.56848 
L 149.416746 90.93072 
L 152.504635 89.41368 
L 155.492756 90.37344 
L 158.519071 89.79552 
L 161.521449 90.23928 
L 164.547241 88.0824 
L 167.5651 88.7532 
L 170.561223 90.16704 
L 173.609833 90.67272 
L 176.638176 90.18768 
L 179.638073 89.2692 
L 182.656176 89.54784 
L 185.68735 89.49624 
L 188.700805 88.31976 
L 191.716078 88.45392 
L 194.793135 88.46424 
L 197.820953 86.38992 
L 200.787407 84.80064 
L 203.829728 84.8316 
L 206.849858 86.586 
L 209.839761 87.74184 
L 212.84137 87.618 
L 215.905811 88.19592 
L 218.932197 89.08344 
L 221.923532 87.89664 
L 225.167698 87.3084 
L 227.998843 87.65928 
L 231.021944 88.96992 
L 234.012371 90.07416 
L 237.072793 89.76456 
L 240.100717 89.3724 
L 243.100963 89.00088 
L 246.146149 88.42296 
L 249.125673 88.81512 
L 252.148424 89.10408 
L 255.141856 89.14536 
L 258.206612 89.07312 
L 261.233696 87.9792 
L 264.233384 88.29912 
L 267.257568 86.38992 
L 270.266341 87.24648 
L 273.313414 87.1536 
L 276.286543 86.21448 
L 279.36 86.66856 
" clip-path="url(#pedcd4637e5)" style="fill: none; stroke: #4a8dff; stroke-width: 0.6"/>
   </g>
   <g id="line2d_7">
    <path d="M 8.64 82.6128 
L 11.659292 82.28256 
L 14.678583 78.01008 
L 17.697875 76.19376 
L 20.717167 77.66952 
L 23.736458 77.74176 
L 26.75575 78.1752 
L 29.775042 79.5684 
L 32.794333 80.8068 
L 35.813625 85.20312 
L 38.832917 84.12984 
L 41.852208 84.03696 
L 44.8715 84.06792 
L 47.890792 84.3156 
L 50.910083 87.02976 
L 53.929375 85.21344 
L 56.948667 84.28464 
L 59.967958 84.32592 
L 62.98725 89.08344 
L 66.006542 89.5272 
L 69.025833 95.14128 
L 72.045125 96.98856 
L 75.064417 95.08968 
L 77.613377 97.71096 
L 80.01277 99.80592 
L 83.030524 101.79768 
L 86.036886 100.03296 
L 89.125195 100.518 
L 92.119571 99.98136 
L 95.15609 100.49736 
L 98.169127 100.78632 
L 101.17755 101.07528 
L 104.195934 101.26104 
L 107.178917 100.63152 
L 110.038892 100.38384 
L 113.251852 100.84824 
L 115.89188 100.65216 
L 119.285647 101.034 
L 122.30127 101.19912 
L 125.302914 101.10624 
L 128.303754 100.97208 
L 131.357537 100.91016 
L 134.385915 101.7564 
L 137.150139 101.84928 
L 140.41363 101.56032 
L 143.419468 100.85856 
L 146.433028 101.12688 
L 149.416746 101.4468 
L 152.504635 101.02368 
L 155.492756 101.30232 
L 158.519071 100.81728 
L 161.521449 100.79664 
L 164.547241 99.3312 
L 167.5651 99.92976 
L 170.561223 100.78632 
L 173.609833 101.17848 
L 176.638176 101.1372 
L 179.638073 100.21872 
L 182.656176 100.37352 
L 185.68735 100.4664 
L 188.700805 99.88848 
L 191.716078 99.94008 
L 194.793135 99.81624 
L 197.820953 98.93904 
L 200.787407 98.3508 
L 203.829728 98.52624 
L 206.849858 99.78528 
L 209.839761 100.12584 
L 212.84137 100.03296 
L 215.905811 100.45608 
L 218.932197 100.83792 
L 221.923532 100.11552 
L 225.167698 99.87816 
L 227.998843 100.002 
L 231.021944 100.64184 
L 234.012371 101.41584 
L 237.072793 101.21976 
L 240.100717 101.14752 
L 243.100963 101.00304 
L 246.146149 100.86888 
L 249.125673 101.21976 
L 252.148424 101.28168 
L 255.141856 101.20944 
L 258.206612 101.14752 
L 261.233696 100.55928 
L 264.233384 100.65216 
L 267.257568 99.80592 
L 270.266341 99.96072 
L 273.313414 99.6408 
L 276.286543 99.1764 
L 279.36 99.70272 
" clip-path="url(#pedcd4637e5)" style="fill: none; stroke: #f5841e; stroke-width: 0.6"/>
   </g>
  </g>
 </g>
 <defs>
  <clipPath id="pedcd4637e5">
   <rect x="8.64" y="4.8" width="270.72" height="103.2"/>
  </clipPath>
 </defs>
</svg>
