<?xml version="1.0" encoding="utf-8" standalone="no"?>
<!DOCTYPE svg PUBLIC "-//W3C//DTD SVG 1.1//EN"
  "http://www.w3.org/Graphics/SVG/1.1/DTD/svg11.dtd">
<svg xmlns:xlink="http://www.w3.org/1999/xlink" width="288pt" height="120pt" viewBox="0 0 288 120" xmlns="http://www.w3.org/2000/svg" version="1.1">
<desc id="nav-meta">{"window":"3m","count":4,"labels":["09.12","08.01","07.02","09.03"],"tick_utc":["2025-12-09T12:00:00Z","2026-01-08T12:00:00Z","2026-02-07T03:13:08Z","2026-03-09T03:23:53Z"],"w":720,"h":300}</desc>

 <metadata>
  <rdf:RDF xmlns:dc="http://purl.org/dc/elements/1.1/" xmlns:cc="http://creativecommons.org/ns#" xmlns:rdf="http://www.w3.org/1999/02/22-rdf-syntax-ns#">
   <cc:Work>
    <dc:type rdf:resource="http://purl.org/dc/dcmitype/StillImage"/>
    <dc:date>2026-03-09T03:23:55.590781</dc:date>
    <dc:format>image/svg+xml</dc:format>
    <dc:creator>
     <cc:Agent>
      <dc:title>Matplotlib v3.10.8, https://matplotlib.org/</dc:title>
     </cc:Agent>
    </dc:creator>
   </cc:Work>
  </rdf:RDF>
 </metadata>
 <defs>
  <style type="text/css">*{stroke-linejoin: round; stroke-linecap: butt}</style>
 </defs>
 <g id="figure_1">
  <g id="patch_1">
   <path d="M 0 120 
L 288 120 
L 288 0 
L 0 0 
L 0 120 
z
" style="fill: none; opacity: 0"/>
  </g>
  <g id="axes_1">
   <g id="patch_2">
    <path d="M 8.64 108 
L 279.36 108 
L 279.36 4.8 
L 8.64 4.8 
L 8.64 108 
z
" style="fill: none"/>
   </g>
   <g id="matplotlib.axis_1"/>
   <g id="matplotlib.axis_2"/>
   <g id="line2d_1">
    <path d="M 8.64 87.36 
L 279.36 87.36 
" clip-path="url(#p56d660d159)" style="fill: none; stroke: #b2b2b2; stroke-opacity: 0.35; stroke-width: 0.5; stroke-linecap: square"/>
   </g>
   <g id="line2d_2">
    <path d="M 8.64 66.72 
L 279.36 66.72 
" clip-path="url(#p56d660d159)" style="fill: none; stroke: #b2b2b2; stroke-opacity: 0.35; stroke-width: 0.5; stroke-linecap: square"/>
   </g>
   <g id="line2d_3">
    <path d="M 8.64 46.08 
L 279.36 46.08 
" clip-path="url(#p56d660d159)" style="fill: none; stroke: #b2b2b2; stroke-opacity: 0.35; stroke-width: 0.5; stroke-linecap: square"/>
   </g>
   <g id="line2d_4">
    <path d="M 8.64 25.44 
L 279.36 25.44 
" clip-path="url(#p56d660d159)" style="fill: none; stroke: #b2b2b2; stroke-opacity: 0.35; stroke-width: 0.5; stroke-linecap: square"/>
   </g>
   <g id="line2d_5">
    <path d="M 8.64 90.08448 
L 11.660027 88.79448 
L 14.680054 89.20728 
L 17.700081 89.22792 
L 20.720108 90.31152 
L 23.740134 90.10512 
L 26.760161 91.09584 
L 29.780188 91.61184 
L 32.800215 91.31256 
L 35.820242 92.87088 
L 38.840269 93.8616 
L 41.860296 92.02464 
L 44.880323 92.13816 
L 47.90035 92.07624 
L 50.920377 92.14848 
L 53.940403 92.64384 
L 56.96043 93.01536 
L 59.980457 93.69648 
L 63.000484 93.11856 
L 66.020511 92.44776 
L 69.040538 92.30328 
L 72.060565 92.87088 
L 75.080592 92.38584 
L 78.100619 92.47872 
L 81.120646 91.88016 
L 84.140672 90.42504 
L 87.160699 90.08448 
L 90.180726 89.92968 
L 93.200753 88.76352 
L 96.22078 87.94824 
L 99.240807 89.2692 
L 102.260834 88.72224 
L 105.280861 89.39304 
L 108.300888 89.40336 
L 111.320915 88.41264 
L 114.340941 88.4952 
L 117.360968 86.86464 
L 120.380995 86.42088 
L 123.401022 87.62832 
L 126.421049 86.93688 
L 129.441076 87.23616 
L 132.461103 88.63968 
L 135.48113 90.0432 
L 138.501157 92.12784 
L 141.521184 91.16808 
L 144.54121 91.46736 
L 147.561237 91.73568 
L 150.581264 91.78728 
L 153.601291 94.0164 
L 156.621318 92.5716 
L 159.641345 91.76664 
L 162.661372 92.33424 
L 165.681399 94.36728 
L 168.701426 94.46016 
L 171.721453 97.71096 
L 174.741479 98.48496 
L 177.761506 97.85544 
L 180.311087 99.10416 
L 182.711065 100.16712 
L 185.729554 102.23112 
L 188.736648 100.54896 
L 191.825709 100.70376 
L 194.820813 100.68312 
L 197.858073 100.95144 
L 200.871843 101.28168 
L 203.880999 101.71512 
L 206.900117 101.84928 
L 209.883827 101.034 
L 212.744498 100.54896 
L 215.95824 101.04432 
L 218.598911 100.81728 
L 221.993505 101.034 
L 225.009862 101.4984 
L 228.012237 101.33328 
L 231.013808 101.1372 
L 234.068335 101.06496 
L 237.09745 102.09696 
L 239.862347 102.05568 
L 243.126633 101.4984 
L 246.133203 100.60056 
L 249.147497 100.80696 
L 252.131941 101.45712 
L 255.220582 100.55928 
L 258.20943 101.10624 
L 261.236483 100.8792 
L 264.239592 100.74504 
L 267.266121 100.21872 
L 270.284714 100.53864 
L 273.281567 101.07528 
L 276.33092 101.38488 
L 279.36 101.26104 
" clip-path="url(#p56d660d159)" style="fill: none; stroke: #bebebe; stroke-width: 0.5; stroke-linecap: round"/>
   </g>
   <g id="line2d_6">
    <path d="M 8.64 73.21128 
L 11.660027 70.2804 
L 14.680054 70.2288 
L 17.700081 71.56008 
L 20.720108 73.79952 
L 23.740134 73.35576 
L 26.760161 74.0988 
L 29.780188 75.5952 
L 32.800215 75.5952 
L 35.820242 77.61792 
L 38.840269 77.63856 
L 41.860296 75.40944 
L 44.880323 75.40944 
L 47.90035 75.04824 
L 50.920377 74.98632 
L 53.940403 75.58488 
L 56.96043 75.87384 
L 59.980457 76.49304 
L 63.000484 76.15248 
L 66.020511 75.82224 
L 69.040538 75.84288 
L 72.060565 76.03896 
L 75.080592 75.51264 
L 78.100619 75.56424 
L 81.120646 75.05856 
L 84.140672 73.26288 
L 87.160699 73.20096 
L 90.180726 73.00488 
L 93.200753 71.68392 
L 96.22078 70.6932 
L 99.240807 72.62304 
L 102.260834 73.52088 
L 105.280861 73.83048 
L 108.300888 73.8408 
L 111.320915 73.29384 
L 114.340941 73.72728 
L 117.360968 70.32168 
L 120.380995 69.77472 
L 123.401022 70.34232 
L 126.421049 70.67256 
L 129.441076 70.51776 
L 132.461103 70.848 
L 135.48113 72.31344 
L 138.501157 76.01832 
L 141.521184 75.41976 
L 144.54121 75.83256 
L 147.561237 75.79128 
L 150.581264 75.82224 
L 153.601291 77.82432 
L 156.621318 76.14216 
L 159.641345 74.75928 
L 162.661372 74.96568 
L 165.681399 77.75208 
L 168.701426 79.48584 
L 171.721453 83.31456 
L 174.741479 85.90488 
L 177.761506 84.79032 
L 180.311087 85.84296 
L 182.711065 88.25784 
L 185.729554 91.41576 
L 188.736648 88.7532 
L 191.825709 88.65 
L 194.820813 88.55712 
L 197.858073 88.96992 
L 200.871843 89.7336 
L 203.880999 90.456 
L 206.900117 90.56952 
L 209.883827 89.15568 
L 212.744498 88.9596 
L 215.95824 90.6624 
L 218.598911 89.94 
L 221.993505 90.00192 
L 225.009862 90.3528 
L 228.012237 90.62112 
L 231.013808 90.5076 
L 234.068335 90.3528 
L 237.09745 92.004 
L 239.862347 92.13816 
L 243.126633 91.25064 
L 246.133203 89.166 
L 249.147497 89.56848 
L 252.131941 90.93072 
L 255.220582 89.41368 
L 258.20943 90.37344 
L 261.236483 89.79552 
L 264.239592 90.23928 
L 267.266121 88.0824 
L 270.284714 88.7532 
L 273.281567 90.16704 
L 276.33092 90.67272 
L 279.36 90.18768 
" clip-path="url(#p56d660d159)" style="fill: none; stroke: #4a8dff; stroke-width: 0.6"/>
   </g>
   <g id="line2d_7">
    <path d="M 8.64 82.8192 
L 11.660027 80.64168 
L 14.680054 81.38472 
L 17.700081 80.87904 
L 20.720108 83.13912 
L 23.740134 83.19072 
L 26.760161 85.296 
L 29.780188 87.17424 
L 32.800215 85.71912 
L 35.820242 87.53544 
L 38.840269 88.17528 
L 41.860296 85.41984 
L 44.880323 85.17216 
L 47.90035 84.9348 
L 50.920377 85.01736 
L 53.940403 86.14224 
L 56.96043 85.90488 
L 59.980457 86.328 
L 63.000484 86.24544 
L 66.020511 85.72944 
L 69.040538 85.7088 
L 72.060565 86.40024 
L 75.080592 85.09992 
L 78.100619 86.02872 
L 81.120646 84.78 
L 84.140672 83.53128 
L 87.160699 82.83984 
L 90.180726 82.03488 
L 93.200753 79.39296 
L 96.22078 79.66128 
L 99.240807 82.15872 
L 102.260834 82.43736 
L 105.280861 82.93272 
L 108.300888 83.00496 
L 111.320915 82.6128 
L 114.340941 82.28256 
L 117.360968 78.01008 
L 120.380995 76.19376 
L 123.401022 77.66952 
L 126.421049 77.74176 
L 129.441076 78.1752 
L 132.461103 79.5684 
L 135.48113 80.8068 
L 138.501157 85.20312 
L 141.521184 84.12984 
L 144.54121 84.03696 
L 147.561237 84.06792 
L 150.581264 84.3156 
L 153.601291 87.02976 
L 156.621318 85.21344 
L 159.641345 84.28464 
L 162.661372 84.32592 
L 165.681399 89.08344 
L 168.701426 89.5272 
L 171.721453 95.14128 
L 174.741479 96.98856 
L 177.761506 95.08968 
L 180.311087 97.71096 
L 182.711065 99.80592 
L 185.729554 101.79768 
L 188.736648 100.03296 
L 191.825709 100.518 
L 194.820813 99.98136 
L 197.858073 100.49736 
L 200.871843 100.78632 
L 203.880999 101.07528 
L 206.900117 101.26104 
L 209.883827 100.63152 
L 212.744498 100.38384 
L 215.95824 100.84824 
L 218.598911 100.65216 
L 221.993505 101.034 
L 225.009862 101.19912 
L 228.012237 101.10624 
L 231.013808 100.97208 
L 234.068335 100.91016 
L 237.09745 101.7564 
L 239.862347 101.84928 
L 243.126633 101.56032 
L 246.133203 100.85856 
L 249.147497 101.12688 
L 252.131941 101.4468 
L 255.220582 101.02368 
L 258.20943 101.30232 
L 261.236483 100.81728 
L 264.239592 100.79664 
L 267.266121 99.3312 
L 270.284714 99.92976 
L 273.281567 100.78632 
L 276.33092 101.17848 
L 279.36 101.1372 
" clip-path="url(#p56d660d159)" style="fill: none; stroke: #f5841e; stroke-width: 0.6"/>
   </g>
  </g>
 </g>
 <defs>
  <clipPath id="p56d660d159">
   <rect x="8.64" y="4.8" width="270.72" height="103.2"/>
  </clipPath>
 </defs>
</svg>
