<?xml version="1.0" encoding="utf-8" standalone="no"?>
<!DOCTYPE svg PUBLIC "-//W3C//DTD SVG 1.1//EN"
  "http://www.w3.org/Graphics/SVG/1.1/DTD/svg11.dtd">
<svg xmlns:xlink="http://www.w3.org/1999/xlink" width="288pt" height="120pt" viewBox="0 0 288 120" xmlns="http://www.w3.org/2000/svg" version="1.1">
<desc id="nav-meta">{"window":"3m","count":4,"labels":["22.03","21.04","20.05","19.06"],"tick_utc":["2026-03-22T03:31:55Z","2026-04-21T03:56:07Z","2026-05-20T04:51:15Z","2026-06-19T05:57:01Z"],"w":720,"h":300}</desc>

 <metadata>
  <rdf:RDF xmlns:dc="http://purl.org/dc/elements/1.1/" xmlns:cc="http://creativecommons.org/ns#" xmlns:rdf="http://www.w3.org/1999/02/22-rdf-syntax-ns#">
   <cc:Work>
    <dc:type rdf:resource="http://purl.org/dc/dcmitype/StillImage"/>
    <dc:date>2026-06-19T15:53:00.599701</dc:date>
    <dc:format>image/svg+xml</dc:format>
    <dc:creator>
     <cc:Agent>
      <dc:title>Matplotlib v3.11.0, https://matplotlib.org/</dc:title>
     </cc:Agent>
    </dc:creator>
   </cc:Work>
  </rdf:RDF>
 </metadata>
 <defs>
  <style type="text/css">*{stroke-linejoin: round; stroke-linecap: butt}</style>
 </defs>
 <g id="figure_1">
  <g id="patch_1">
   <path d="M 0 120 
L 288 120 
L 288 0 
L 0 0 
L 0 120 
z
" style="fill: none; opacity: 0"/>
  </g>
  <g id="axes_1">
   <g id="patch_2">
    <path d="M 8.64 108 
L 279.36 108 
L 279.36 4.8 
L 8.64 4.8 
L 8.64 108 
z
" style="fill: none"/>
   </g>
   <g id="matplotlib.axis_1"/>
   <g id="matplotlib.axis_2"/>
   <g id="line2d_1">
    <path d="M 8.64 87.36 
L 279.36 87.36 
" clip-path="url(#p4035a4a4e1)" style="fill: none; stroke: #b2b2b2; stroke-opacity: 0.35; stroke-width: 0.5; stroke-linecap: square"/>
   </g>
   <g id="line2d_2">
    <path d="M 8.64 66.72 
L 279.36 66.72 
" clip-path="url(#p4035a4a4e1)" style="fill: none; stroke: #b2b2b2; stroke-opacity: 0.35; stroke-width: 0.5; stroke-linecap: square"/>
   </g>
   <g id="line2d_3">
    <path d="M 8.64 46.08 
L 279.36 46.08 
" clip-path="url(#p4035a4a4e1)" style="fill: none; stroke: #b2b2b2; stroke-opacity: 0.35; stroke-width: 0.5; stroke-linecap: square"/>
   </g>
   <g id="line2d_4">
    <path d="M 8.64 25.44 
L 279.36 25.44 
" clip-path="url(#p4035a4a4e1)" style="fill: none; stroke: #b2b2b2; stroke-opacity: 0.35; stroke-width: 0.5; stroke-linecap: square"/>
   </g>
   <g id="line2d_5">
    <path d="M 8.64 100.47672 
L 11.685497 100.79664 
L 14.695721 100.26 
L 17.960374 99.83688 
L 20.809397 100.13616 
L 23.851588 100.80696 
L 26.860898 101.38488 
L 29.940646 101.3436 
L 32.98769 101.292 
L 36.006882 101.28168 
L 39.071298 101.28168 
L 42.069637 101.8596 
L 45.111476 101.88024 
L 48.123811 101.72544 
L 51.20792 101.68416 
L 54.25412 101.47776 
L 57.27275 101.78736 
L 60.316031 101.09592 
L 63.343803 101.46744 
L 66.410118 101.3436 
L 69.402022 101.05464 
L 72.494887 101.3952 
L 75.548823 101.47776 
L 78.56784 100.86888 
L 81.603877 101.26104 
L 84.655386 100.99272 
L 87.687555 100.61088 
L 90.692399 100.44576 
L 93.770882 100.94112 
L 96.816765 101.09592 
L 99.841795 101.00304 
L 102.870728 100.69344 
L 105.921394 100.9308 
L 108.967805 100.92048 
L 111.969906 100.81728 
L 115.055528 100.8792 
L 118.126625 100.64184 
L 121.171348 101.1888 
L 124.201407 101.09592 
L 127.244863 101.37456 
L 130.316418 101.21976 
L 133.277234 101.20944 
L 136.377274 101.23008 
L 139.414577 100.92048 
L 142.386013 101.06496 
L 145.477894 100.70376 
L 148.51706 100.55928 
L 151.504849 100.53864 
L 154.55432 99.60984 
L 157.653902 99.72336 
L 160.716243 99.44472 
L 163.712401 99.25896 
L 166.765212 99.32088 
L 169.800194 100.22904 
L 172.853533 100.01232 
L 175.853102 100.43544 
L 178.936824 100.75536 
L 182.004687 101.02368 
L 185.021276 101.02368 
L 188.070501 101.17848 
L 191.12616 100.7244 
L 194.141238 100.75536 
L 197.137853 101.11656 
L 200.224319 100.91016 
L 203.30266 100.89984 
L 206.294986 101.1372 
L 209.364536 101.2404 
L 212.393188 101.6532 
L 215.433796 101.4984 
L 218.428337 101.48808 
L 221.528728 101.32296 
L 224.612028 101.51904 
L 227.620494 101.7048 
L 230.693034 102.54072 
L 233.720982 103.08768 
L 236.709299 103.36632 
L 239.700956 104.22288 
L 242.804617 103.85136 
L 245.856408 103.68624 
L 248.836777 103.43856 
L 251.906644 103.81008 
L 254.962831 103.72752 
L 258.01311 103.50048 
L 261.029243 103.5108 
L 264.08965 103.31472 
L 267.229005 102.95352 
L 270.2847 102.61296 
L 273.22628 102.6336 
L 276.250079 102.9948 
L 279.36 103.28376 
" clip-path="url(#p4035a4a4e1)" style="fill: none; stroke: #bebebe; stroke-width: 0.5; stroke-linecap: round"/>
   </g>
   <g id="line2d_6">
    <path d="M 8.64 88.19592 
L 11.685497 89.08344 
L 14.695721 87.89664 
L 17.960374 87.3084 
L 20.809397 87.65928 
L 23.851588 88.96992 
L 26.860898 90.07416 
L 29.940646 89.76456 
L 32.98769 89.3724 
L 36.006882 89.00088 
L 39.071298 88.42296 
L 42.069637 88.81512 
L 45.111476 89.10408 
L 48.123811 89.14536 
L 51.20792 89.07312 
L 54.25412 87.9792 
L 57.27275 88.29912 
L 60.316031 86.38992 
L 63.343803 87.24648 
L 66.410118 87.1536 
L 69.402022 86.21448 
L 72.494887 86.66856 
L 75.548823 87.01944 
L 78.56784 84.44976 
L 81.603877 85.05864 
L 84.655386 84.58392 
L 87.687555 85.04832 
L 90.692399 83.71704 
L 93.770882 84.86256 
L 96.816765 85.6572 
L 99.841795 85.27536 
L 102.870728 84.49104 
L 105.921394 84.86256 
L 108.967805 85.32696 
L 111.969906 85.17216 
L 115.055528 85.31664 
L 118.126625 84.11952 
L 121.171348 85.66752 
L 124.201407 85.26504 
L 127.244863 86.26608 
L 130.316418 85.77072 
L 133.277234 85.38888 
L 136.377274 85.3992 
L 139.414577 84.09888 
L 142.386013 84.22272 
L 145.477894 84.34656 
L 148.51706 85.06896 
L 151.504849 85.7604 
L 154.55432 85.0896 
L 157.653902 85.01736 
L 160.716243 84.9348 
L 163.712401 85.296 
L 166.765212 85.35792 
L 169.800194 86.1732 
L 172.853533 85.92552 
L 175.853102 86.55504 
L 178.936824 87.13296 
L 182.004687 88.10304 
L 185.021276 87.9276 
L 188.070501 88.26816 
L 191.12616 87.78312 
L 194.141238 87.95856 
L 197.137853 88.94928 
L 200.224319 88.14432 
L 203.30266 88.33008 
L 206.294986 88.52616 
L 209.364536 88.86672 
L 212.393188 90.22896 
L 215.433796 89.82648 
L 218.428337 89.87808 
L 221.528728 89.46528 
L 224.612028 90.0432 
L 227.620494 89.96064 
L 230.693034 91.99368 
L 233.720982 93.05664 
L 236.709299 93.74808 
L 239.700956 97.02984 
L 242.804617 95.93592 
L 245.856408 95.07936 
L 248.836777 94.46016 
L 251.906644 95.47152 
L 254.962831 95.11032 
L 258.01311 94.82136 
L 261.029243 94.8936 
L 264.08965 94.70784 
L 267.229005 94.04736 
L 270.2847 93.40752 
L 273.22628 92.9844 
L 276.250079 93.93384 
L 279.36 94.4292 
" clip-path="url(#p4035a4a4e1)" style="fill: none; stroke: #4a8dff; stroke-width: 0.6"/>
   </g>
   <g id="line2d_7">
    <path d="M 8.64 100.45608 
L 11.685497 100.83792 
L 14.695721 100.11552 
L 17.960374 99.87816 
L 20.809397 100.002 
L 23.851588 100.64184 
L 26.860898 101.41584 
L 29.940646 101.21976 
L 32.98769 101.14752 
L 36.006882 101.00304 
L 39.071298 100.86888 
L 42.069637 101.21976 
L 45.111476 101.28168 
L 48.123811 101.20944 
L 51.20792 101.14752 
L 54.25412 100.55928 
L 57.27275 100.65216 
L 60.316031 99.80592 
L 63.343803 99.96072 
L 66.410118 99.6408 
L 69.402022 99.1764 
L 72.494887 99.70272 
L 75.548823 99.94008 
L 78.56784 98.57784 
L 81.603877 98.65008 
L 84.655386 98.38176 
L 87.687555 98.48496 
L 90.692399 96.70992 
L 93.770882 98.05152 
L 96.816765 98.48496 
L 99.841795 97.96896 
L 102.870728 96.32808 
L 105.921394 96.20424 
L 108.967805 96.16296 
L 111.969906 96.1836 
L 115.055528 96.50352 
L 118.126625 94.76976 
L 121.171348 97.19496 
L 124.201407 96.9576 
L 127.244863 97.9896 
L 130.316418 96.89568 
L 133.277234 95.45088 
L 136.377274 95.67792 
L 139.414577 93.43848 
L 142.386013 92.90184 
L 145.477894 92.25168 
L 148.51706 92.87088 
L 151.504849 94.2744 
L 154.55432 93.1392 
L 157.653902 92.97408 
L 160.716243 92.9844 
L 163.712401 92.60256 
L 166.765212 92.53032 
L 169.800194 94.54272 
L 172.853533 92.85024 
L 175.853102 94.82136 
L 178.936824 95.75016 
L 182.004687 96.97824 
L 185.021276 97.08144 
L 188.070501 97.23624 
L 191.12616 95.94624 
L 194.141238 96.30744 
L 197.137853 98.08248 
L 200.224319 97.2672 
L 203.30266 96.61704 
L 206.294986 97.23624 
L 209.364536 98.08248 
L 212.393188 99.18672 
L 215.433796 99.03192 
L 218.428337 99.1248 
L 221.528728 98.74296 
L 224.612028 99.09384 
L 227.620494 100.0536 
L 230.693034 101.23008 
L 233.720982 101.99376 
L 236.709299 102.08664 
L 239.700956 102.8916 
L 242.804617 102.45816 
L 245.856408 102.28272 
L 248.836777 102.10728 
L 251.906644 102.582 
L 254.962831 102.29304 
L 258.01311 102.08664 
L 261.029243 102.066 
L 264.08965 101.86992 
L 267.229005 101.48808 
L 270.2847 101.40552 
L 273.22628 101.4984 
L 276.250079 101.97312 
L 279.36 102.26208 
" clip-path="url(#p4035a4a4e1)" style="fill: none; stroke: #f5841e; stroke-width: 0.6"/>
   </g>
  </g>
 </g>
 <defs>
  <clipPath id="p4035a4a4e1">
   <rect x="8.64" y="4.8" width="270.72" height="103.2"/>
  </clipPath>
 </defs>
</svg>
