<?xml version="1.0" encoding="utf-8" standalone="no"?>
<!DOCTYPE svg PUBLIC "-//W3C//DTD SVG 1.1//EN"
  "http://www.w3.org/Graphics/SVG/1.1/DTD/svg11.dtd">
<svg xmlns:xlink="http://www.w3.org/1999/xlink" width="288pt" height="120pt" viewBox="0 0 288 120" xmlns="http://www.w3.org/2000/svg" version="1.1">
<desc id="nav-meta">{"window":"3m","count":4,"labels":["20.11","20.12","19.01","18.02"],"tick_utc":["2025-11-20T12:00:00Z","2025-12-20T12:00:00Z","2026-01-19T12:00:00Z","2026-02-18T03:30:34Z"],"w":720,"h":300}</desc>

 <metadata>
  <rdf:RDF xmlns:dc="http://purl.org/dc/elements/1.1/" xmlns:cc="http://creativecommons.org/ns#" xmlns:rdf="http://www.w3.org/1999/02/22-rdf-syntax-ns#">
   <cc:Work>
    <dc:type rdf:resource="http://purl.org/dc/dcmitype/StillImage"/>
    <dc:date>2026-02-18T03:30:36.606265</dc:date>
    <dc:format>image/svg+xml</dc:format>
    <dc:creator>
     <cc:Agent>
      <dc:title>Matplotlib v3.10.8, https://matplotlib.org/</dc:title>
     </cc:Agent>
    </dc:creator>
   </cc:Work>
  </rdf:RDF>
 </metadata>
 <defs>
  <style type="text/css">*{stroke-linejoin: round; stroke-linecap: butt}</style>
 </defs>
 <g id="figure_1">
  <g id="patch_1">
   <path d="M 0 120 
L 288 120 
L 288 0 
L 0 0 
L 0 120 
z
" style="fill: none; opacity: 0"/>
  </g>
  <g id="axes_1">
   <g id="patch_2">
    <path d="M 8.64 108 
L 279.36 108 
L 279.36 4.8 
L 8.64 4.8 
L 8.64 108 
z
" style="fill: none"/>
   </g>
   <g id="matplotlib.axis_1"/>
   <g id="matplotlib.axis_2"/>
   <g id="line2d_1">
    <path d="M 8.64 87.36 
L 279.36 87.36 
" clip-path="url(#pbf86e4f9e0)" style="fill: none; stroke: #b2b2b2; stroke-opacity: 0.35; stroke-width: 0.5; stroke-linecap: square"/>
   </g>
   <g id="line2d_2">
    <path d="M 8.64 66.72 
L 279.36 66.72 
" clip-path="url(#pbf86e4f9e0)" style="fill: none; stroke: #b2b2b2; stroke-opacity: 0.35; stroke-width: 0.5; stroke-linecap: square"/>
   </g>
   <g id="line2d_3">
    <path d="M 8.64 46.08 
L 279.36 46.08 
" clip-path="url(#pbf86e4f9e0)" style="fill: none; stroke: #b2b2b2; stroke-opacity: 0.35; stroke-width: 0.5; stroke-linecap: square"/>
   </g>
   <g id="line2d_4">
    <path d="M 8.64 25.44 
L 279.36 25.44 
" clip-path="url(#pbf86e4f9e0)" style="fill: none; stroke: #b2b2b2; stroke-opacity: 0.35; stroke-width: 0.5; stroke-linecap: square"/>
   </g>
   <g id="line2d_5">
    <path d="M 8.64 89.22792 
L 11.659871 90.00192 
L 14.679741 91.39512 
L 17.699612 91.63248 
L 20.719482 90.75528 
L 23.739353 88.7016 
L 26.759223 88.52616 
L 29.779094 87.45288 
L 32.798964 88.0308 
L 35.818835 88.94928 
L 38.838705 89.3208 
L 41.858576 89.7336 
L 44.878447 91.86984 
L 47.898317 88.60872 
L 50.918188 86.87496 
L 53.938058 88.52616 
L 56.957929 90.11544 
L 59.977799 90.38376 
L 62.99767 90.53856 
L 66.01754 90.08448 
L 69.037411 88.79448 
L 72.057281 89.20728 
L 75.077152 89.22792 
L 78.097023 90.31152 
L 81.116893 90.10512 
L 84.136764 91.09584 
L 87.156634 91.61184 
L 90.176505 91.31256 
L 93.196375 92.87088 
L 96.216246 93.8616 
L 99.236116 92.02464 
L 102.255987 92.13816 
L 105.275857 92.07624 
L 108.295728 92.14848 
L 111.315599 92.64384 
L 114.335469 93.01536 
L 117.35534 93.69648 
L 120.37521 93.11856 
L 123.395081 92.44776 
L 126.414951 92.30328 
L 129.434822 92.87088 
L 132.454692 92.38584 
L 135.474563 92.47872 
L 138.494433 91.88016 
L 141.514304 90.42504 
L 144.534175 90.08448 
L 147.554045 89.92968 
L 150.573916 88.76352 
L 153.593786 87.94824 
L 156.613657 89.2692 
L 159.633527 88.72224 
L 162.653398 89.39304 
L 165.673268 89.40336 
L 168.693139 88.41264 
L 171.713009 88.4952 
L 174.73288 86.86464 
L 177.752751 86.42088 
L 180.772621 87.62832 
L 183.792492 86.93688 
L 186.812362 87.23616 
L 189.832233 88.63968 
L 192.852103 90.0432 
L 195.871974 92.12784 
L 198.891844 91.16808 
L 201.911715 91.46736 
L 204.931585 91.73568 
L 207.951456 91.78728 
L 210.971327 94.0164 
L 213.991197 92.5716 
L 217.011068 91.76664 
L 220.030938 92.33424 
L 223.050809 94.36728 
L 226.070679 94.46016 
L 229.09055 97.71096 
L 232.11042 98.48496 
L 235.130291 97.85544 
L 237.67974 99.10416 
L 240.079593 100.16712 
L 243.097926 102.23112 
L 246.104864 100.54896 
L 249.193765 100.70376 
L 252.188715 100.68312 
L 255.225817 100.95144 
L 258.239431 101.28168 
L 261.248431 101.71512 
L 264.267393 101.84928 
L 267.250948 101.034 
L 270.111472 100.54896 
L 273.325047 101.04432 
L 275.965582 100.81728 
L 279.36 101.034 
" clip-path="url(#pbf86e4f9e0)" style="fill: none; stroke: #bebebe; stroke-width: 0.5; stroke-linecap: round"/>
   </g>
   <g id="line2d_6">
    <path d="M 8.64 74.80056 
L 11.659871 77.556 
L 14.679741 78.55704 
L 17.699612 78.50544 
L 20.719482 78.04104 
L 23.739353 75.76032 
L 26.759223 75.73968 
L 29.779094 74.65608 
L 32.798964 74.83152 
L 35.818835 74.57352 
L 38.838705 75.20304 
L 41.858576 75.17208 
L 44.878447 78.05136 
L 47.898317 75.1308 
L 50.918188 72.16896 
L 53.938058 73.08744 
L 56.957929 74.72832 
L 59.977799 74.48064 
L 62.99767 74.28456 
L 66.01754 73.21128 
L 69.037411 70.2804 
L 72.057281 70.2288 
L 75.077152 71.56008 
L 78.097023 73.79952 
L 81.116893 73.35576 
L 84.136764 74.0988 
L 87.156634 75.5952 
L 90.176505 75.5952 
L 93.196375 77.61792 
L 96.216246 77.63856 
L 99.236116 75.40944 
L 102.255987 75.40944 
L 105.275857 75.04824 
L 108.295728 74.98632 
L 111.315599 75.58488 
L 114.335469 75.87384 
L 117.35534 76.49304 
L 120.37521 76.15248 
L 123.395081 75.82224 
L 126.414951 75.84288 
L 129.434822 76.03896 
L 132.454692 75.51264 
L 135.474563 75.56424 
L 138.494433 75.05856 
L 141.514304 73.26288 
L 144.534175 73.20096 
L 147.554045 73.00488 
L 150.573916 71.68392 
L 153.593786 70.6932 
L 156.613657 72.62304 
L 159.633527 73.52088 
L 162.653398 73.83048 
L 165.673268 73.8408 
L 168.693139 73.29384 
L 171.713009 73.72728 
L 174.73288 70.32168 
L 177.752751 69.77472 
L 180.772621 70.34232 
L 183.792492 70.67256 
L 186.812362 70.51776 
L 189.832233 70.848 
L 192.852103 72.31344 
L 195.871974 76.01832 
L 198.891844 75.41976 
L 201.911715 75.83256 
L 204.931585 75.79128 
L 207.951456 75.82224 
L 210.971327 77.82432 
L 213.991197 76.14216 
L 217.011068 74.75928 
L 220.030938 74.96568 
L 223.050809 77.75208 
L 226.070679 79.48584 
L 229.09055 83.31456 
L 232.11042 85.90488 
L 235.130291 84.79032 
L 237.67974 85.84296 
L 240.079593 88.25784 
L 243.097926 91.41576 
L 246.104864 88.7532 
L 249.193765 88.65 
L 252.188715 88.55712 
L 255.225817 88.96992 
L 258.239431 89.7336 
L 261.248431 90.456 
L 264.267393 90.56952 
L 267.250948 89.15568 
L 270.111472 88.9596 
L 273.325047 90.6624 
L 275.965582 89.94 
L 279.36 90.00192 
" clip-path="url(#pbf86e4f9e0)" style="fill: none; stroke: #4a8dff; stroke-width: 0.6"/>
   </g>
   <g id="line2d_7">
    <path d="M 8.64 82.0452 
L 11.659871 86.92656 
L 14.679741 88.58808 
L 17.699612 88.96992 
L 20.719482 86.7924 
L 23.739353 85.296 
L 26.759223 86.24544 
L 29.779094 82.96368 
L 32.798964 82.13808 
L 35.818835 82.47864 
L 38.838705 82.58184 
L 41.858576 83.03592 
L 44.878447 87.3084 
L 47.898317 82.06584 
L 50.918188 79.71288 
L 53.938058 81.24024 
L 56.957929 84.17112 
L 59.977799 84.24336 
L 62.99767 83.29392 
L 66.01754 82.8192 
L 69.037411 80.64168 
L 72.057281 81.38472 
L 75.077152 80.87904 
L 78.097023 83.13912 
L 81.116893 83.19072 
L 84.136764 85.296 
L 87.156634 87.17424 
L 90.176505 85.71912 
L 93.196375 87.53544 
L 96.216246 88.17528 
L 99.236116 85.41984 
L 102.255987 85.17216 
L 105.275857 84.9348 
L 108.295728 85.01736 
L 111.315599 86.14224 
L 114.335469 85.90488 
L 117.35534 86.328 
L 120.37521 86.24544 
L 123.395081 85.72944 
L 126.414951 85.7088 
L 129.434822 86.40024 
L 132.454692 85.09992 
L 135.474563 86.02872 
L 138.494433 84.78 
L 141.514304 83.53128 
L 144.534175 82.83984 
L 147.554045 82.03488 
L 150.573916 79.39296 
L 153.593786 79.66128 
L 156.613657 82.15872 
L 159.633527 82.43736 
L 162.653398 82.93272 
L 165.673268 83.00496 
L 168.693139 82.6128 
L 171.713009 82.28256 
L 174.73288 78.01008 
L 177.752751 76.19376 
L 180.772621 77.66952 
L 183.792492 77.74176 
L 186.812362 78.1752 
L 189.832233 79.5684 
L 192.852103 80.8068 
L 195.871974 85.20312 
L 198.891844 84.12984 
L 201.911715 84.03696 
L 204.931585 84.06792 
L 207.951456 84.3156 
L 210.971327 87.02976 
L 213.991197 85.21344 
L 217.011068 84.28464 
L 220.030938 84.32592 
L 223.050809 89.08344 
L 226.070679 89.5272 
L 229.09055 95.14128 
L 232.11042 96.98856 
L 235.130291 95.08968 
L 237.67974 97.71096 
L 240.079593 99.80592 
L 243.097926 101.79768 
L 246.104864 100.03296 
L 249.193765 100.518 
L 252.188715 99.98136 
L 255.225817 100.49736 
L 258.239431 100.78632 
L 261.248431 101.07528 
L 264.267393 101.26104 
L 267.250948 100.63152 
L 270.111472 100.38384 
L 273.325047 100.84824 
L 275.965582 100.65216 
L 279.36 101.034 
" clip-path="url(#pbf86e4f9e0)" style="fill: none; stroke: #f5841e; stroke-width: 0.6"/>
   </g>
  </g>
 </g>
 <defs>
  <clipPath id="pbf86e4f9e0">
   <rect x="8.64" y="4.8" width="270.72" height="103.2"/>
  </clipPath>
 </defs>
</svg>
