<?xml version="1.0" encoding="utf-8" standalone="no"?>
<!DOCTYPE svg PUBLIC "-//W3C//DTD SVG 1.1//EN"
  "http://www.w3.org/Graphics/SVG/1.1/DTD/svg11.dtd">
<svg xmlns:xlink="http://www.w3.org/1999/xlink" width="288pt" height="120pt" viewBox="0 0 288 120" xmlns="http://www.w3.org/2000/svg" version="1.1">
<desc id="nav-meta">{"window":"3m","count":4,"labels":["07.11","07.12","05.01","04.02"],"tick_utc":["2025-11-07T12:00:00Z","2025-12-07T12:00:00Z","2026-01-05T12:00:00Z","2026-02-04T08:15:41Z"],"w":720,"h":300}</desc>

 <metadata>
  <rdf:RDF xmlns:dc="http://purl.org/dc/elements/1.1/" xmlns:cc="http://creativecommons.org/ns#" xmlns:rdf="http://www.w3.org/1999/02/22-rdf-syntax-ns#">
   <cc:Work>
    <dc:type rdf:resource="http://purl.org/dc/dcmitype/StillImage"/>
    <dc:date>2026-02-04T19:20:26.388052</dc:date>
    <dc:format>image/svg+xml</dc:format>
    <dc:creator>
     <cc:Agent>
      <dc:title>Matplotlib v3.10.8, https://matplotlib.org/</dc:title>
     </cc:Agent>
    </dc:creator>
   </cc:Work>
  </rdf:RDF>
 </metadata>
 <defs>
  <style type="text/css">*{stroke-linejoin: round; stroke-linecap: butt}</style>
 </defs>
 <g id="figure_1">
  <g id="patch_1">
   <path d="M 0 120 
L 288 120 
L 288 0 
L 0 0 
L 0 120 
z
" style="fill: none; opacity: 0"/>
  </g>
  <g id="axes_1">
   <g id="patch_2">
    <path d="M 8.64 108 
L 279.36 108 
L 279.36 4.8 
L 8.64 4.8 
L 8.64 108 
z
" style="fill: none"/>
   </g>
   <g id="matplotlib.axis_1"/>
   <g id="matplotlib.axis_2"/>
   <g id="line2d_1">
    <path d="M 8.64 87.36 
L 279.36 87.36 
" clip-path="url(#p3023c6b9a5)" style="fill: none; stroke: #b2b2b2; stroke-opacity: 0.35; stroke-width: 0.8; stroke-linecap: square"/>
   </g>
   <g id="line2d_2">
    <path d="M 8.64 66.72 
L 279.36 66.72 
" clip-path="url(#p3023c6b9a5)" style="fill: none; stroke: #b2b2b2; stroke-opacity: 0.35; stroke-width: 0.8; stroke-linecap: square"/>
   </g>
   <g id="line2d_3">
    <path d="M 8.64 46.08 
L 279.36 46.08 
" clip-path="url(#p3023c6b9a5)" style="fill: none; stroke: #b2b2b2; stroke-opacity: 0.35; stroke-width: 0.8; stroke-linecap: square"/>
   </g>
   <g id="line2d_4">
    <path d="M 8.64 25.44 
L 279.36 25.44 
" clip-path="url(#p3023c6b9a5)" style="fill: none; stroke: #b2b2b2; stroke-opacity: 0.35; stroke-width: 0.8; stroke-linecap: square"/>
   </g>
   <g id="line2d_5">
    <path d="M 8.64 84.19176 
L 11.687131 82.27224 
L 14.734262 83.29392 
L 17.781393 81.62208 
L 20.828524 80.72424 
L 23.875656 84.33624 
L 26.922787 84.64584 
L 29.969918 86.844 
L 33.017049 88.52616 
L 36.06418 88.36104 
L 39.111311 88.93896 
L 42.158442 90.79656 
L 45.205573 88.09272 
L 48.252704 89.22792 
L 51.299835 90.00192 
L 54.346967 91.39512 
L 57.394098 91.63248 
L 60.441229 90.75528 
L 63.48836 88.7016 
L 66.535491 88.52616 
L 69.582622 87.45288 
L 72.629753 88.0308 
L 75.676884 88.94928 
L 78.724015 89.3208 
L 81.771146 89.7336 
L 84.818278 91.86984 
L 87.865409 88.60872 
L 90.91254 86.87496 
L 93.959671 88.52616 
L 97.006802 90.11544 
L 100.053933 90.38376 
L 103.101064 90.53856 
L 106.148195 90.08448 
L 109.195326 88.79448 
L 112.242458 89.20728 
L 115.289589 89.22792 
L 118.33672 90.31152 
L 121.383851 90.10512 
L 124.430982 91.09584 
L 127.478113 91.61184 
L 130.525244 91.31256 
L 133.572375 92.87088 
L 136.619506 93.8616 
L 139.666637 92.02464 
L 142.713769 92.13816 
L 145.7609 92.07624 
L 148.808031 92.14848 
L 151.855162 92.64384 
L 154.902293 93.01536 
L 157.949424 93.69648 
L 160.996555 93.11856 
L 164.043686 92.44776 
L 167.090817 92.30328 
L 170.137949 92.87088 
L 173.18508 92.38584 
L 176.232211 92.47872 
L 179.279342 91.88016 
L 182.326473 90.42504 
L 185.373604 90.08448 
L 188.420735 89.92968 
L 191.467866 88.76352 
L 194.514997 87.94824 
L 197.562128 89.2692 
L 200.60926 88.72224 
L 203.656391 89.39304 
L 206.703522 89.40336 
L 209.750653 88.41264 
L 212.797784 88.4952 
L 215.844915 86.86464 
L 218.892046 86.42088 
L 221.939177 87.62832 
L 224.986308 86.93688 
L 228.033439 87.23616 
L 231.080571 88.63968 
L 234.127702 90.0432 
L 237.174833 92.12784 
L 240.221964 91.16808 
L 243.269095 91.46736 
L 246.316226 91.73568 
L 249.363357 91.78728 
L 252.410488 94.0164 
L 255.457619 92.5716 
L 258.504751 91.76664 
L 261.551882 92.33424 
L 264.599013 94.36728 
L 267.646144 94.46016 
L 270.693275 97.71096 
L 273.740406 98.48496 
L 276.787537 97.85544 
L 279.36 99.10416 
" clip-path="url(#p3023c6b9a5)" style="fill: none; stroke: #bebebe; stroke-width: 0.5; stroke-linecap: round"/>
   </g>
   <g id="line2d_6">
    <path d="M 8.64 70.4868 
L 11.687131 68.61888 
L 14.734262 69.11424 
L 17.781393 66.5136 
L 20.828524 66.68904 
L 23.875656 68.8872 
L 26.922787 68.9904 
L 29.969918 71.5704 
L 33.017049 73.48992 
L 36.06418 72.54048 
L 39.111311 73.56216 
L 42.158442 74.74896 
L 45.205573 73.3248 
L 48.252704 74.80056 
L 51.299835 77.556 
L 54.346967 78.55704 
L 57.394098 78.50544 
L 60.441229 78.04104 
L 63.48836 75.76032 
L 66.535491 75.73968 
L 69.582622 74.65608 
L 72.629753 74.83152 
L 75.676884 74.57352 
L 78.724015 75.20304 
L 81.771146 75.17208 
L 84.818278 78.05136 
L 87.865409 75.1308 
L 90.91254 72.16896 
L 93.959671 73.08744 
L 97.006802 74.72832 
L 100.053933 74.48064 
L 103.101064 74.28456 
L 106.148195 73.21128 
L 109.195326 70.2804 
L 112.242458 70.2288 
L 115.289589 71.56008 
L 118.33672 73.79952 
L 121.383851 73.35576 
L 124.430982 74.0988 
L 127.478113 75.5952 
L 130.525244 75.5952 
L 133.572375 77.61792 
L 136.619506 77.63856 
L 139.666637 75.40944 
L 142.713769 75.40944 
L 145.7609 75.04824 
L 148.808031 74.98632 
L 151.855162 75.58488 
L 154.902293 75.87384 
L 157.949424 76.49304 
L 160.996555 76.15248 
L 164.043686 75.82224 
L 167.090817 75.84288 
L 170.137949 76.03896 
L 173.18508 75.51264 
L 176.232211 75.56424 
L 179.279342 75.05856 
L 182.326473 73.26288 
L 185.373604 73.20096 
L 188.420735 73.00488 
L 191.467866 71.68392 
L 194.514997 70.6932 
L 197.562128 72.62304 
L 200.60926 73.52088 
L 203.656391 73.83048 
L 206.703522 73.8408 
L 209.750653 73.29384 
L 212.797784 73.72728 
L 215.844915 70.32168 
L 218.892046 69.77472 
L 221.939177 70.34232 
L 224.986308 70.67256 
L 228.033439 70.51776 
L 231.080571 70.848 
L 234.127702 72.31344 
L 237.174833 76.01832 
L 240.221964 75.41976 
L 243.269095 75.83256 
L 246.316226 75.79128 
L 249.363357 75.82224 
L 252.410488 77.82432 
L 255.457619 76.14216 
L 258.504751 74.75928 
L 261.551882 74.96568 
L 264.599013 77.75208 
L 267.646144 79.48584 
L 270.693275 83.31456 
L 273.740406 85.90488 
L 276.787537 84.79032 
L 279.36 85.84296 
" clip-path="url(#p3023c6b9a5)" style="fill: none; stroke: #4a8dff; stroke-width: 0.5"/>
   </g>
   <g id="line2d_7">
    <path d="M 8.64 71.7252 
L 11.687131 69.57864 
L 14.734262 70.72416 
L 17.781393 68.2164 
L 20.828524 66.978 
L 23.875656 70.03272 
L 26.922787 71.5188 
L 29.969918 73.3764 
L 33.017049 78.846 
L 36.06418 77.75208 
L 39.111311 78.88728 
L 42.158442 81.34344 
L 45.205573 80.53848 
L 48.252704 82.0452 
L 51.299835 86.92656 
L 54.346967 88.58808 
L 57.394098 88.96992 
L 60.441229 86.7924 
L 63.48836 85.296 
L 66.535491 86.24544 
L 69.582622 82.96368 
L 72.629753 82.13808 
L 75.676884 82.47864 
L 78.724015 82.58184 
L 81.771146 83.03592 
L 84.818278 87.3084 
L 87.865409 82.06584 
L 90.91254 79.71288 
L 93.959671 81.24024 
L 97.006802 84.17112 
L 100.053933 84.24336 
L 103.101064 83.29392 
L 106.148195 82.8192 
L 109.195326 80.64168 
L 112.242458 81.38472 
L 115.289589 80.87904 
L 118.33672 83.13912 
L 121.383851 83.19072 
L 124.430982 85.296 
L 127.478113 87.17424 
L 130.525244 85.71912 
L 133.572375 87.53544 
L 136.619506 88.17528 
L 139.666637 85.41984 
L 142.713769 85.17216 
L 145.7609 84.9348 
L 148.808031 85.01736 
L 151.855162 86.14224 
L 154.902293 85.90488 
L 157.949424 86.328 
L 160.996555 86.24544 
L 164.043686 85.72944 
L 167.090817 85.7088 
L 170.137949 86.40024 
L 173.18508 85.09992 
L 176.232211 86.02872 
L 179.279342 84.78 
L 182.326473 83.53128 
L 185.373604 82.83984 
L 188.420735 82.03488 
L 191.467866 79.39296 
L 194.514997 79.66128 
L 197.562128 82.15872 
L 200.60926 82.43736 
L 203.656391 82.93272 
L 206.703522 83.00496 
L 209.750653 82.6128 
L 212.797784 82.28256 
L 215.844915 78.01008 
L 218.892046 76.19376 
L 221.939177 77.66952 
L 224.986308 77.74176 
L 228.033439 78.1752 
L 231.080571 79.5684 
L 234.127702 80.8068 
L 237.174833 85.20312 
L 240.221964 84.12984 
L 243.269095 84.03696 
L 246.316226 84.06792 
L 249.363357 84.3156 
L 252.410488 87.02976 
L 255.457619 85.21344 
L 258.504751 84.28464 
L 261.551882 84.32592 
L 264.599013 89.08344 
L 267.646144 89.5272 
L 270.693275 95.14128 
L 273.740406 96.98856 
L 276.787537 95.08968 
L 279.36 97.71096 
" clip-path="url(#p3023c6b9a5)" style="fill: none; stroke: #f5841e; stroke-width: 0.5"/>
   </g>
  </g>
 </g>
 <defs>
  <clipPath id="p3023c6b9a5">
   <rect x="8.64" y="4.8" width="270.72" height="103.2"/>
  </clipPath>
 </defs>
</svg>
