<?xml version="1.0" encoding="utf-8" standalone="no"?>
<!DOCTYPE svg PUBLIC "-//W3C//DTD SVG 1.1//EN"
  "http://www.w3.org/Graphics/SVG/1.1/DTD/svg11.dtd">
<svg xmlns:xlink="http://www.w3.org/1999/xlink" width="288pt" height="120pt" viewBox="0 0 288 120" xmlns="http://www.w3.org/2000/svg" version="1.1">
<desc id="nav-meta">{"window":"6m","count":4,"labels":["03.10","02.12","30.01","31.03"],"tick_utc":["2025-10-03T12:00:00Z","2025-12-02T12:00:00Z","2026-01-30T12:00:00Z","2026-03-31T03:42:11Z"],"w":720,"h":300}</desc>

 <metadata>
  <rdf:RDF xmlns:dc="http://purl.org/dc/elements/1.1/" xmlns:cc="http://creativecommons.org/ns#" xmlns:rdf="http://www.w3.org/1999/02/22-rdf-syntax-ns#">
   <cc:Work>
    <dc:type rdf:resource="http://purl.org/dc/dcmitype/StillImage"/>
    <dc:date>2026-03-31T19:40:26.541495</dc:date>
    <dc:format>image/svg+xml</dc:format>
    <dc:creator>
     <cc:Agent>
      <dc:title>Matplotlib v3.10.8, https://matplotlib.org/</dc:title>
     </cc:Agent>
    </dc:creator>
   </cc:Work>
  </rdf:RDF>
 </metadata>
 <defs>
  <style type="text/css">*{stroke-linejoin: round; stroke-linecap: butt}</style>
 </defs>
 <g id="figure_1">
  <g id="patch_1">
   <path d="M 0 120 
L 288 120 
L 288 0 
L 0 0 
L 0 120 
z
" style="fill: none; opacity: 0"/>
  </g>
  <g id="axes_1">
   <g id="patch_2">
    <path d="M 8.64 108 
L 279.36 108 
L 279.36 4.8 
L 8.64 4.8 
L 8.64 108 
z
" style="fill: none"/>
   </g>
   <g id="matplotlib.axis_1"/>
   <g id="matplotlib.axis_2"/>
   <g id="line2d_1">
    <path d="M 8.64 87.36 
L 279.36 87.36 
" clip-path="url(#p51ac0040eb)" style="fill: none; stroke: #b2b2b2; stroke-opacity: 0.35; stroke-width: 0.5; stroke-linecap: square"/>
   </g>
   <g id="line2d_2">
    <path d="M 8.64 66.72 
L 279.36 66.72 
" clip-path="url(#p51ac0040eb)" style="fill: none; stroke: #b2b2b2; stroke-opacity: 0.35; stroke-width: 0.5; stroke-linecap: square"/>
   </g>
   <g id="line2d_3">
    <path d="M 8.64 46.08 
L 279.36 46.08 
" clip-path="url(#p51ac0040eb)" style="fill: none; stroke: #b2b2b2; stroke-opacity: 0.35; stroke-width: 0.5; stroke-linecap: square"/>
   </g>
   <g id="line2d_4">
    <path d="M 8.64 25.44 
L 279.36 25.44 
" clip-path="url(#p51ac0040eb)" style="fill: none; stroke: #b2b2b2; stroke-opacity: 0.35; stroke-width: 0.5; stroke-linecap: square"/>
   </g>
   <g id="line2d_5">
    <path d="M 8.64 62.39592 
L 10.155329 62.81904 
L 11.670658 64.22256 
L 13.185986 64.05744 
L 14.701315 62.9532 
L 16.216644 66.14208 
L 17.731973 63.91296 
L 19.247302 66.17304 
L 20.762631 74.6148 
L 22.277959 77.78304 
L 23.793288 72.66432 
L 25.308617 69.69216 
L 26.823946 71.09568 
L 29.854603 76.06992 
L 31.369932 76.76136 
L 32.885261 75.25464 
L 34.40059 75.24432 
L 35.915919 74.63544 
L 37.431248 75.73968 
L 38.946576 77.31864 
L 40.461905 74.202 
L 41.977234 73.64472 
L 43.492563 73.48992 
L 45.007892 71.83872 
L 46.52322 72.17928 
L 48.038549 73.38672 
L 49.553878 73.43832 
L 51.069207 76.15248 
L 52.584536 75.3372 
L 54.099865 75.58488 
L 55.615193 75.35784 
L 57.130522 81.168 
L 58.645851 84.01632 
L 60.16118 82.06584 
L 61.676509 84.19176 
L 63.191837 82.27224 
L 64.707166 83.29392 
L 66.222495 81.62208 
L 67.737824 80.72424 
L 69.253153 84.33624 
L 70.768482 84.64584 
L 72.28381 86.844 
L 73.799139 88.52616 
L 75.314468 88.36104 
L 76.829797 88.93896 
L 78.345126 90.79656 
L 79.860454 88.09272 
L 81.375783 89.22792 
L 82.891112 90.00192 
L 84.406441 91.39512 
L 85.92177 91.63248 
L 87.437098 90.75528 
L 88.952427 88.7016 
L 90.467756 88.52616 
L 91.983085 87.45288 
L 93.498414 88.0308 
L 95.013743 88.94928 
L 98.0444 89.7336 
L 99.559729 91.86984 
L 101.075058 88.60872 
L 102.590387 86.87496 
L 105.621044 90.11544 
L 107.136373 90.38376 
L 108.651702 90.53856 
L 110.167031 90.08448 
L 111.68236 88.79448 
L 113.197688 89.20728 
L 114.713017 89.22792 
L 116.228346 90.31152 
L 117.743675 90.10512 
L 119.259004 91.09584 
L 120.774332 91.61184 
L 122.289661 91.31256 
L 123.80499 92.87088 
L 125.320319 93.8616 
L 126.835648 92.02464 
L 128.350977 92.13816 
L 129.866305 92.07624 
L 131.381634 92.14848 
L 132.896963 92.64384 
L 134.412292 93.01536 
L 135.927621 93.69648 
L 138.958278 92.44776 
L 140.473607 92.30328 
L 141.988936 92.87088 
L 143.504265 92.38584 
L 145.019594 92.47872 
L 146.534922 91.88016 
L 148.050251 90.42504 
L 149.56558 90.08448 
L 151.080909 89.92968 
L 152.596238 88.76352 
L 154.111566 87.94824 
L 155.626895 89.2692 
L 157.142224 88.72224 
L 158.657553 89.39304 
L 160.172882 89.40336 
L 161.688211 88.41264 
L 163.203539 88.4952 
L 164.718868 86.86464 
L 166.234197 86.42088 
L 167.749526 87.62832 
L 169.264855 86.93688 
L 170.780183 87.23616 
L 173.810841 90.0432 
L 175.32617 92.12784 
L 176.841499 91.16808 
L 179.872156 91.73568 
L 181.387485 91.78728 
L 182.902814 94.0164 
L 184.418143 92.5716 
L 185.933472 91.76664 
L 187.4488 92.33424 
L 188.964129 94.36728 
L 190.479458 94.46016 
L 191.994787 97.71096 
L 193.510116 98.48496 
L 195.025445 97.85544 
L 197.508935 100.16712 
L 199.023492 102.23112 
L 200.532332 100.54896 
L 202.082299 100.70376 
L 203.585123 100.68312 
L 206.621288 101.28168 
L 208.131162 101.71512 
L 209.646035 101.84928 
L 211.143141 101.034 
L 212.578512 100.54896 
L 214.191039 101.04432 
L 215.516022 100.81728 
L 217.219294 101.034 
L 218.732781 101.4984 
L 223.277961 101.06496 
L 224.79785 102.09696 
L 226.185165 102.05568 
L 227.823053 101.4984 
L 229.33163 100.60056 
L 230.844082 100.80696 
L 232.341557 101.45712 
L 233.891314 100.55928 
L 235.390998 101.10624 
L 238.416692 100.74504 
L 239.935283 100.21872 
L 241.449893 100.53864 
L 242.953594 101.07528 
L 244.483637 101.38488 
L 246.003509 101.26104 
L 247.509104 100.78632 
L 250.545128 100.99272 
L 252.057528 100.38384 
L 255.11516 100.60056 
L 256.634768 99.76464 
L 258.123579 99.49632 
L 259.650465 99.40344 
L 261.166215 100.09488 
L 262.666794 100.3632 
L 264.173248 100.19808 
L 267.230126 100.79664 
L 268.731424 100.26 
L 270.359613 99.83688 
L 271.780515 100.13616 
L 274.798597 101.38488 
L 279.36 101.28168 
L 279.36 101.28168 
" clip-path="url(#p51ac0040eb)" style="fill: none; stroke: #bebebe; stroke-width: 0.5; stroke-linecap: round"/>
   </g>
   <g id="line2d_6">
    <path d="M 8.64 53.046 
L 10.155329 52.5816 
L 11.670658 52.9944 
L 13.185986 52.5816 
L 14.701315 50.0016 
L 16.216644 53.48976 
L 17.731973 52.40616 
L 19.247302 54.75912 
L 20.762631 62.67456 
L 22.277959 63.95424 
L 23.793288 57.86544 
L 25.308617 56.57544 
L 26.823946 58.31952 
L 28.339275 60.4764 
L 29.854603 61.85928 
L 31.369932 62.73648 
L 32.885261 61.8696 
L 34.40059 60.45576 
L 35.915919 60.54864 
L 37.431248 62.04504 
L 38.946576 63.16992 
L 40.461905 62.36496 
L 41.977234 61.21944 
L 43.492563 60.9408 
L 45.007892 57.83448 
L 46.52322 58.40208 
L 48.038549 60.49704 
L 49.553878 61.75608 
L 51.069207 63.1596 
L 52.584536 62.49912 
L 54.099865 62.1276 
L 55.615193 61.56 
L 58.645851 70.66224 
L 60.16118 68.72208 
L 61.676509 70.4868 
L 63.191837 68.61888 
L 64.707166 69.11424 
L 66.222495 66.5136 
L 67.737824 66.68904 
L 69.253153 68.8872 
L 70.768482 68.9904 
L 72.28381 71.5704 
L 73.799139 73.48992 
L 75.314468 72.54048 
L 76.829797 73.56216 
L 78.345126 74.74896 
L 79.860454 73.3248 
L 81.375783 74.80056 
L 82.891112 77.556 
L 84.406441 78.55704 
L 85.92177 78.50544 
L 87.437098 78.04104 
L 88.952427 75.76032 
L 90.467756 75.73968 
L 91.983085 74.65608 
L 93.498414 74.83152 
L 95.013743 74.57352 
L 96.529071 75.20304 
L 98.0444 75.17208 
L 99.559729 78.05136 
L 102.590387 72.16896 
L 104.105715 73.08744 
L 105.621044 74.72832 
L 108.651702 74.28456 
L 110.167031 73.21128 
L 111.68236 70.2804 
L 113.197688 70.2288 
L 114.713017 71.56008 
L 116.228346 73.79952 
L 117.743675 73.35576 
L 119.259004 74.0988 
L 120.774332 75.5952 
L 122.289661 75.5952 
L 123.80499 77.61792 
L 125.320319 77.63856 
L 126.835648 75.40944 
L 128.350977 75.40944 
L 129.866305 75.04824 
L 131.381634 74.98632 
L 132.896963 75.58488 
L 134.412292 75.87384 
L 135.927621 76.49304 
L 138.958278 75.82224 
L 140.473607 75.84288 
L 141.988936 76.03896 
L 143.504265 75.51264 
L 145.019594 75.56424 
L 146.534922 75.05856 
L 148.050251 73.26288 
L 149.56558 73.20096 
L 151.080909 73.00488 
L 152.596238 71.68392 
L 154.111566 70.6932 
L 155.626895 72.62304 
L 157.142224 73.52088 
L 158.657553 73.83048 
L 160.172882 73.8408 
L 161.688211 73.29384 
L 163.203539 73.72728 
L 164.718868 70.32168 
L 166.234197 69.77472 
L 167.749526 70.34232 
L 169.264855 70.67256 
L 170.780183 70.51776 
L 172.295512 70.848 
L 173.810841 72.31344 
L 175.32617 76.01832 
L 176.841499 75.41976 
L 178.356828 75.83256 
L 181.387485 75.82224 
L 182.902814 77.82432 
L 184.418143 76.14216 
L 185.933472 74.75928 
L 187.4488 74.96568 
L 188.964129 77.75208 
L 190.479458 79.48584 
L 191.994787 83.31456 
L 193.510116 85.90488 
L 195.025445 84.79032 
L 196.304722 85.84296 
L 199.023492 91.41576 
L 200.532332 88.7532 
L 203.585123 88.55712 
L 205.109098 88.96992 
L 208.131162 90.456 
L 209.646035 90.56952 
L 211.143141 89.15568 
L 212.578512 88.9596 
L 214.191039 90.6624 
L 215.516022 89.94 
L 217.219294 90.00192 
L 220.239253 90.62112 
L 223.277961 90.3528 
L 224.79785 92.004 
L 226.185165 92.13816 
L 227.823053 91.25064 
L 229.33163 89.166 
L 230.844082 89.56848 
L 232.341557 90.93072 
L 233.891314 89.41368 
L 235.390998 90.37344 
L 236.909852 89.79552 
L 238.416692 90.23928 
L 239.935283 88.0824 
L 241.449893 88.7532 
L 242.953594 90.16704 
L 244.483637 90.67272 
L 246.003509 90.18768 
L 247.509104 89.2692 
L 249.023836 89.54784 
L 250.545128 89.49624 
L 252.057528 88.31976 
L 253.57084 88.45392 
L 255.11516 88.46424 
L 256.634768 86.38992 
L 258.123579 84.80064 
L 259.650465 84.8316 
L 261.166215 86.586 
L 262.666794 87.74184 
L 264.173248 87.618 
L 265.711237 88.19592 
L 267.230126 89.08344 
L 268.731424 87.89664 
L 270.359613 87.3084 
L 271.780515 87.65928 
L 273.297755 88.96992 
L 274.798597 90.07416 
L 277.85423 89.3724 
L 279.36 89.00088 
L 279.36 89.00088 
" clip-path="url(#p51ac0040eb)" style="fill: none; stroke: #4a8dff; stroke-width: 0.6"/>
   </g>
   <g id="line2d_7">
    <path d="M 8.64 51.74568 
L 10.155329 50.04288 
L 11.670658 49.90872 
L 13.185986 48.74256 
L 14.701315 47.43192 
L 16.216644 50.80656 
L 17.731973 48.90768 
L 19.247302 50.6208 
L 20.762631 59.42376 
L 22.277959 61.85928 
L 23.793288 57.35976 
L 25.308617 57.3288 
L 26.823946 59.46504 
L 29.854603 64.72824 
L 31.369932 66.42072 
L 32.885261 65.688 
L 34.40059 64.17096 
L 35.915919 62.10696 
L 37.431248 64.30512 
L 38.946576 65.20296 
L 40.461905 62.68488 
L 41.977234 61.70448 
L 43.492563 61.06464 
L 45.007892 58.1028 
L 46.52322 58.40208 
L 48.038549 59.68176 
L 49.553878 62.6952 
L 51.069207 64.56312 
L 52.584536 63.18024 
L 54.099865 62.72616 
L 55.615193 62.06568 
L 57.130522 66.33816 
L 58.645851 71.40528 
L 60.16118 69.08328 
L 61.676509 71.7252 
L 63.191837 69.57864 
L 64.707166 70.72416 
L 66.222495 68.2164 
L 67.737824 66.978 
L 69.253153 70.03272 
L 70.768482 71.5188 
L 72.28381 73.3764 
L 73.799139 78.846 
L 75.314468 77.75208 
L 76.829797 78.88728 
L 78.345126 81.34344 
L 79.860454 80.53848 
L 81.375783 82.0452 
L 82.891112 86.92656 
L 84.406441 88.58808 
L 85.92177 88.96992 
L 87.437098 86.7924 
L 88.952427 85.296 
L 90.467756 86.24544 
L 91.983085 82.96368 
L 93.498414 82.13808 
L 95.013743 82.47864 
L 96.529071 82.58184 
L 98.0444 83.03592 
L 99.559729 87.3084 
L 101.075058 82.06584 
L 102.590387 79.71288 
L 104.105715 81.24024 
L 105.621044 84.17112 
L 107.136373 84.24336 
L 108.651702 83.29392 
L 110.167031 82.8192 
L 111.68236 80.64168 
L 113.197688 81.38472 
L 114.713017 80.87904 
L 116.228346 83.13912 
L 117.743675 83.19072 
L 119.259004 85.296 
L 120.774332 87.17424 
L 122.289661 85.71912 
L 123.80499 87.53544 
L 125.320319 88.17528 
L 126.835648 85.41984 
L 129.866305 84.9348 
L 131.381634 85.01736 
L 132.896963 86.14224 
L 134.412292 85.90488 
L 135.927621 86.328 
L 137.442949 86.24544 
L 138.958278 85.72944 
L 140.473607 85.7088 
L 141.988936 86.40024 
L 143.504265 85.09992 
L 145.019594 86.02872 
L 148.050251 83.53128 
L 151.080909 82.03488 
L 152.596238 79.39296 
L 154.111566 79.66128 
L 155.626895 82.15872 
L 157.142224 82.43736 
L 158.657553 82.93272 
L 160.172882 83.00496 
L 163.203539 82.28256 
L 164.718868 78.01008 
L 166.234197 76.19376 
L 167.749526 77.66952 
L 169.264855 77.74176 
L 170.780183 78.1752 
L 172.295512 79.5684 
L 173.810841 80.8068 
L 175.32617 85.20312 
L 176.841499 84.12984 
L 178.356828 84.03696 
L 179.872156 84.06792 
L 181.387485 84.3156 
L 182.902814 87.02976 
L 184.418143 85.21344 
L 185.933472 84.28464 
L 187.4488 84.32592 
L 188.964129 89.08344 
L 190.479458 89.5272 
L 191.994787 95.14128 
L 193.510116 96.98856 
L 195.025445 95.08968 
L 196.304722 97.71096 
L 197.508935 99.80592 
L 199.023492 101.79768 
L 200.532332 100.03296 
L 202.082299 100.518 
L 203.585123 99.98136 
L 205.109098 100.49736 
L 209.646035 101.26104 
L 211.143141 100.63152 
L 212.578512 100.38384 
L 214.191039 100.84824 
L 215.516022 100.65216 
L 217.219294 101.034 
L 218.732781 101.19912 
L 223.277961 100.91016 
L 224.79785 101.7564 
L 226.185165 101.84928 
L 227.823053 101.56032 
L 229.33163 100.85856 
L 232.341557 101.4468 
L 233.891314 101.02368 
L 235.390998 101.30232 
L 236.909852 100.81728 
L 238.416692 100.79664 
L 239.935283 99.3312 
L 241.449893 99.92976 
L 242.953594 100.78632 
L 244.483637 101.17848 
L 246.003509 101.1372 
L 247.509104 100.21872 
L 250.545128 100.4664 
L 252.057528 99.88848 
L 253.57084 99.94008 
L 255.11516 99.81624 
L 256.634768 98.93904 
L 258.123579 98.3508 
L 259.650465 98.52624 
L 261.166215 99.78528 
L 262.666794 100.12584 
L 264.173248 100.03296 
L 267.230126 100.83792 
L 268.731424 100.11552 
L 270.359613 99.87816 
L 271.780515 100.002 
L 273.297755 100.64184 
L 274.798597 101.41584 
L 276.334569 101.21976 
L 279.36 101.00304 
L 279.36 101.00304 
" clip-path="url(#p51ac0040eb)" style="fill: none; stroke: #f5841e; stroke-width: 0.6"/>
   </g>
  </g>
 </g>
 <defs>
  <clipPath id="p51ac0040eb">
   <rect x="8.64" y="4.8" width="270.72" height="103.2"/>
  </clipPath>
 </defs>
</svg>
