<?xml version="1.0" encoding="utf-8" standalone="no"?>
<!DOCTYPE svg PUBLIC "-//W3C//DTD SVG 1.1//EN"
  "http://www.w3.org/Graphics/SVG/1.1/DTD/svg11.dtd">
<svg xmlns:xlink="http://www.w3.org/1999/xlink" width="288pt" height="120pt" viewBox="0 0 288 120" xmlns="http://www.w3.org/2000/svg" version="1.1">
<desc id="nav-meta">{"window":"1m","count":4,"labels":["29.04","09.05","18.05","28.05"],"tick_utc":["2026-04-29T04:21:07Z","2026-05-09T04:06:35Z","2026-05-18T04:56:25Z","2026-05-28T04:58:45Z"],"w":720,"h":300}</desc>

 <metadata>
  <rdf:RDF xmlns:dc="http://purl.org/dc/elements/1.1/" xmlns:cc="http://creativecommons.org/ns#" xmlns:rdf="http://www.w3.org/1999/02/22-rdf-syntax-ns#">
   <cc:Work>
    <dc:type rdf:resource="http://purl.org/dc/dcmitype/StillImage"/>
    <dc:date>2026-05-28T04:58:46.993776</dc:date>
    <dc:format>image/svg+xml</dc:format>
    <dc:creator>
     <cc:Agent>
      <dc:title>Matplotlib v3.10.9, https://matplotlib.org/</dc:title>
     </cc:Agent>
    </dc:creator>
   </cc:Work>
  </rdf:RDF>
 </metadata>
 <defs>
  <style type="text/css">*{stroke-linejoin: round; stroke-linecap: butt}</style>
 </defs>
 <g id="figure_1">
  <g id="patch_1">
   <path d="M 0 120 
L 288 120 
L 288 0 
L 0 0 
L 0 120 
z
" style="fill: none; opacity: 0"/>
  </g>
  <g id="axes_1">
   <g id="patch_2">
    <path d="M 8.64 108 
L 279.36 108 
L 279.36 4.8 
L 8.64 4.8 
L 8.64 108 
z
" style="fill: none"/>
   </g>
   <g id="matplotlib.axis_1"/>
   <g id="matplotlib.axis_2"/>
   <g id="line2d_1">
    <path d="M 8.64 87.36 
L 279.36 87.36 
" clip-path="url(#p07260b8526)" style="fill: none; stroke: #b2b2b2; stroke-opacity: 0.35; stroke-width: 0.5; stroke-linecap: square"/>
   </g>
   <g id="line2d_2">
    <path d="M 8.64 66.72 
L 279.36 66.72 
" clip-path="url(#p07260b8526)" style="fill: none; stroke: #b2b2b2; stroke-opacity: 0.35; stroke-width: 0.5; stroke-linecap: square"/>
   </g>
   <g id="line2d_3">
    <path d="M 8.64 46.08 
L 279.36 46.08 
" clip-path="url(#p07260b8526)" style="fill: none; stroke: #b2b2b2; stroke-opacity: 0.35; stroke-width: 0.5; stroke-linecap: square"/>
   </g>
   <g id="line2d_4">
    <path d="M 8.64 25.44 
L 279.36 25.44 
" clip-path="url(#p07260b8526)" style="fill: none; stroke: #b2b2b2; stroke-opacity: 0.35; stroke-width: 0.5; stroke-linecap: square"/>
   </g>
   <g id="line2d_5">
    <path d="M 8.64 101.09592 
L 17.98242 101.37456 
L 27.411091 101.21976 
L 36.499831 101.20944 
L 46.01594 101.23008 
L 55.339469 100.92048 
L 64.46081 101.06496 
L 73.951875 100.70376 
L 83.281126 100.55928 
L 92.452663 100.53864 
L 101.813542 99.60984 
L 111.328248 99.72336 
L 120.728636 99.44472 
L 129.925865 99.25896 
L 139.296999 99.32088 
L 148.613403 100.22904 
L 157.986157 100.01232 
L 167.193857 100.43544 
L 176.659878 100.75536 
L 186.077214 101.02368 
L 195.337161 101.02368 
L 204.697285 101.17848 
L 214.077163 100.7244 
L 223.332468 100.75536 
L 232.5311 101.11656 
L 242.005541 100.91016 
L 251.455046 100.89984 
L 260.640509 101.1372 
L 270.063027 101.2404 
L 279.36 101.6532 
" clip-path="url(#p07260b8526)" style="fill: none; stroke: #bebebe; stroke-width: 0.5; stroke-linecap: round"/>
   </g>
   <g id="line2d_6">
    <path d="M 8.64 85.26504 
L 17.98242 86.26608 
L 27.411091 85.77072 
L 36.499831 85.38888 
L 46.01594 85.3992 
L 55.339469 84.09888 
L 64.46081 84.22272 
L 73.951875 84.34656 
L 83.281126 85.06896 
L 92.452663 85.7604 
L 101.813542 85.0896 
L 111.328248 85.01736 
L 120.728636 84.9348 
L 129.925865 85.296 
L 139.296999 85.35792 
L 148.613403 86.1732 
L 157.986157 85.92552 
L 167.193857 86.55504 
L 176.659878 87.13296 
L 186.077214 88.10304 
L 195.337161 87.9276 
L 204.697285 88.26816 
L 214.077163 87.78312 
L 223.332468 87.95856 
L 232.5311 88.94928 
L 242.005541 88.14432 
L 251.455046 88.33008 
L 260.640509 88.52616 
L 270.063027 88.86672 
L 279.36 90.22896 
" clip-path="url(#p07260b8526)" style="fill: none; stroke: #4a8dff; stroke-width: 0.6"/>
   </g>
   <g id="line2d_7">
    <path d="M 8.64 96.9576 
L 17.98242 97.9896 
L 27.411091 96.89568 
L 36.499831 95.45088 
L 46.01594 95.67792 
L 55.339469 93.43848 
L 64.46081 92.90184 
L 73.951875 92.25168 
L 83.281126 92.87088 
L 92.452663 94.2744 
L 101.813542 93.1392 
L 111.328248 92.97408 
L 120.728636 92.9844 
L 129.925865 92.60256 
L 139.296999 92.53032 
L 148.613403 94.54272 
L 157.986157 92.85024 
L 167.193857 94.82136 
L 176.659878 95.75016 
L 186.077214 96.97824 
L 195.337161 97.08144 
L 204.697285 97.23624 
L 214.077163 95.94624 
L 223.332468 96.30744 
L 232.5311 98.08248 
L 242.005541 97.2672 
L 251.455046 96.61704 
L 260.640509 97.23624 
L 270.063027 98.08248 
L 279.36 99.18672 
" clip-path="url(#p07260b8526)" style="fill: none; stroke: #f5841e; stroke-width: 0.6"/>
   </g>
  </g>
 </g>
 <defs>
  <clipPath id="p07260b8526">
   <rect x="8.64" y="4.8" width="270.72" height="103.2"/>
  </clipPath>
 </defs>
</svg>
