<?xml version="1.0" encoding="utf-8" standalone="no"?>
<!DOCTYPE svg PUBLIC "-//W3C//DTD SVG 1.1//EN"
  "http://www.w3.org/Graphics/SVG/1.1/DTD/svg11.dtd">
<svg xmlns:xlink="http://www.w3.org/1999/xlink" width="288pt" height="120pt" viewBox="0 0 288 120" xmlns="http://www.w3.org/2000/svg" version="1.1">
<desc id="nav-meta">{"window":"1m","count":4,"labels":["02.02","12.02","21.02","03.03"],"tick_utc":["2026-02-02T12:00:00Z","2026-02-12T03:34:13Z","2026-02-21T03:11:36Z","2026-03-03T03:22:17Z"],"w":720,"h":300}</desc>

 <metadata>
  <rdf:RDF xmlns:dc="http://purl.org/dc/elements/1.1/" xmlns:cc="http://creativecommons.org/ns#" xmlns:rdf="http://www.w3.org/1999/02/22-rdf-syntax-ns#">
   <cc:Work>
    <dc:type rdf:resource="http://purl.org/dc/dcmitype/StillImage"/>
    <dc:date>2026-03-03T13:44:54.992695</dc:date>
    <dc:format>image/svg+xml</dc:format>
    <dc:creator>
     <cc:Agent>
      <dc:title>Matplotlib v3.10.8, https://matplotlib.org/</dc:title>
     </cc:Agent>
    </dc:creator>
   </cc:Work>
  </rdf:RDF>
 </metadata>
 <defs>
  <style type="text/css">*{stroke-linejoin: round; stroke-linecap: butt}</style>
 </defs>
 <g id="figure_1">
  <g id="patch_1">
   <path d="M 0 120 
L 288 120 
L 288 0 
L 0 0 
L 0 120 
z
" style="fill: none; opacity: 0"/>
  </g>
  <g id="axes_1">
   <g id="patch_2">
    <path d="M 8.64 108 
L 279.36 108 
L 279.36 4.8 
L 8.64 4.8 
L 8.64 108 
z
" style="fill: none"/>
   </g>
   <g id="matplotlib.axis_1"/>
   <g id="matplotlib.axis_2"/>
   <g id="line2d_1">
    <path d="M 8.64 87.36 
L 279.36 87.36 
" clip-path="url(#pb8cf126d89)" style="fill: none; stroke: #b2b2b2; stroke-opacity: 0.35; stroke-width: 0.5; stroke-linecap: square"/>
   </g>
   <g id="line2d_2">
    <path d="M 8.64 66.72 
L 279.36 66.72 
" clip-path="url(#pb8cf126d89)" style="fill: none; stroke: #b2b2b2; stroke-opacity: 0.35; stroke-width: 0.5; stroke-linecap: square"/>
   </g>
   <g id="line2d_3">
    <path d="M 8.64 46.08 
L 279.36 46.08 
" clip-path="url(#pb8cf126d89)" style="fill: none; stroke: #b2b2b2; stroke-opacity: 0.35; stroke-width: 0.5; stroke-linecap: square"/>
   </g>
   <g id="line2d_4">
    <path d="M 8.64 25.44 
L 279.36 25.44 
" clip-path="url(#pb8cf126d89)" style="fill: none; stroke: #b2b2b2; stroke-opacity: 0.35; stroke-width: 0.5; stroke-linecap: square"/>
   </g>
   <g id="line2d_5">
    <path d="M 8.64 98.48496 
L 18.092357 97.85544 
L 26.072269 99.10416 
L 33.58394 100.16712 
L 43.031483 102.23112 
L 52.443362 100.54896 
L 62.111789 100.70376 
L 71.486142 100.68312 
L 80.992435 100.95144 
L 90.425209 101.28168 
L 99.843542 101.71512 
L 109.293055 101.84928 
L 118.631744 101.034 
L 127.585336 100.54896 
L 137.644001 101.04432 
L 145.909015 100.81728 
L 156.533727 101.034 
L 165.974597 101.4984 
L 175.371707 101.33328 
L 184.7663 101.1372 
L 194.326637 101.06496 
L 203.807439 102.09696 
L 212.461269 102.05568 
L 222.67813 101.4984 
L 232.088367 100.60056 
L 241.522782 100.80696 
L 250.863768 101.45712 
L 260.530882 100.55928 
L 269.885653 101.10624 
L 279.36 100.8792 
" clip-path="url(#pb8cf126d89)" style="fill: none; stroke: #bebebe; stroke-width: 0.5; stroke-linecap: round"/>
   </g>
   <g id="line2d_6">
    <path d="M 8.64 85.90488 
L 18.092357 84.79032 
L 26.072269 85.84296 
L 33.58394 88.25784 
L 43.031483 91.41576 
L 52.443362 88.7532 
L 62.111789 88.65 
L 71.486142 88.55712 
L 80.992435 88.96992 
L 90.425209 89.7336 
L 99.843542 90.456 
L 109.293055 90.56952 
L 118.631744 89.15568 
L 127.585336 88.9596 
L 137.644001 90.6624 
L 145.909015 89.94 
L 156.533727 90.00192 
L 165.974597 90.3528 
L 175.371707 90.62112 
L 184.7663 90.5076 
L 194.326637 90.3528 
L 203.807439 92.004 
L 212.461269 92.13816 
L 222.67813 91.25064 
L 232.088367 89.166 
L 241.522782 89.56848 
L 250.863768 90.93072 
L 260.530882 89.41368 
L 269.885653 90.37344 
L 279.36 89.79552 
" clip-path="url(#pb8cf126d89)" style="fill: none; stroke: #4a8dff; stroke-width: 0.6"/>
   </g>
   <g id="line2d_7">
    <path d="M 8.64 96.98856 
L 18.092357 95.08968 
L 26.072269 97.71096 
L 33.58394 99.80592 
L 43.031483 101.79768 
L 52.443362 100.03296 
L 62.111789 100.518 
L 71.486142 99.98136 
L 80.992435 100.49736 
L 90.425209 100.78632 
L 99.843542 101.07528 
L 109.293055 101.26104 
L 118.631744 100.63152 
L 127.585336 100.38384 
L 137.644001 100.84824 
L 145.909015 100.65216 
L 156.533727 101.034 
L 165.974597 101.19912 
L 175.371707 101.10624 
L 184.7663 100.97208 
L 194.326637 100.91016 
L 203.807439 101.7564 
L 212.461269 101.84928 
L 222.67813 101.56032 
L 232.088367 100.85856 
L 241.522782 101.12688 
L 250.863768 101.4468 
L 260.530882 101.02368 
L 269.885653 101.30232 
L 279.36 100.81728 
" clip-path="url(#pb8cf126d89)" style="fill: none; stroke: #f5841e; stroke-width: 0.6"/>
   </g>
  </g>
 </g>
 <defs>
  <clipPath id="pb8cf126d89">
   <rect x="8.64" y="4.8" width="270.72" height="103.2"/>
  </clipPath>
 </defs>
</svg>
