<?xml version="1.0" encoding="utf-8" standalone="no"?>
<!DOCTYPE svg PUBLIC "-//W3C//DTD SVG 1.1//EN"
  "http://www.w3.org/Graphics/SVG/1.1/DTD/svg11.dtd">
<svg xmlns:xlink="http://www.w3.org/1999/xlink" width="288pt" height="120pt" viewBox="0 0 288 120" xmlns="http://www.w3.org/2000/svg" version="1.1">
<desc id="nav-meta">{"window":"3m","count":4,"labels":["06.01","05.02","07.03","06.04"],"tick_utc":["2026-01-06T12:00:00Z","2026-02-05T03:20:02Z","2026-03-07T03:05:35Z","2026-04-06T03:50:17Z"],"w":720,"h":300}</desc>

 <metadata>
  <rdf:RDF xmlns:dc="http://purl.org/dc/elements/1.1/" xmlns:cc="http://creativecommons.org/ns#" xmlns:rdf="http://www.w3.org/1999/02/22-rdf-syntax-ns#">
   <cc:Work>
    <dc:type rdf:resource="http://purl.org/dc/dcmitype/StillImage"/>
    <dc:date>2026-04-06T08:12:37.895232</dc:date>
    <dc:format>image/svg+xml</dc:format>
    <dc:creator>
     <cc:Agent>
      <dc:title>Matplotlib v3.10.8, https://matplotlib.org/</dc:title>
     </cc:Agent>
    </dc:creator>
   </cc:Work>
  </rdf:RDF>
 </metadata>
 <defs>
  <style type="text/css">*{stroke-linejoin: round; stroke-linecap: butt}</style>
 </defs>
 <g id="figure_1">
  <g id="patch_1">
   <path d="M 0 120 
L 288 120 
L 288 0 
L 0 0 
L 0 120 
z
" style="fill: none; opacity: 0"/>
  </g>
  <g id="axes_1">
   <g id="patch_2">
    <path d="M 8.64 108 
L 279.36 108 
L 279.36 4.8 
L 8.64 4.8 
L 8.64 108 
z
" style="fill: none"/>
   </g>
   <g id="matplotlib.axis_1"/>
   <g id="matplotlib.axis_2"/>
   <g id="line2d_1">
    <path d="M 8.64 87.36 
L 279.36 87.36 
" clip-path="url(#pd069262f5a)" style="fill: none; stroke: #b2b2b2; stroke-opacity: 0.35; stroke-width: 0.5; stroke-linecap: square"/>
   </g>
   <g id="line2d_2">
    <path d="M 8.64 66.72 
L 279.36 66.72 
" clip-path="url(#pd069262f5a)" style="fill: none; stroke: #b2b2b2; stroke-opacity: 0.35; stroke-width: 0.5; stroke-linecap: square"/>
   </g>
   <g id="line2d_3">
    <path d="M 8.64 46.08 
L 279.36 46.08 
" clip-path="url(#pd069262f5a)" style="fill: none; stroke: #b2b2b2; stroke-opacity: 0.35; stroke-width: 0.5; stroke-linecap: square"/>
   </g>
   <g id="line2d_4">
    <path d="M 8.64 25.44 
L 279.36 25.44 
" clip-path="url(#pd069262f5a)" style="fill: none; stroke: #b2b2b2; stroke-opacity: 0.35; stroke-width: 0.5; stroke-linecap: square"/>
   </g>
   <g id="line2d_5">
    <path d="M 8.64 88.76352 
L 11.659409 87.94824 
L 14.678819 89.2692 
L 17.698228 88.72224 
L 20.717638 89.39304 
L 23.737047 89.40336 
L 26.756456 88.41264 
L 29.775866 88.4952 
L 32.795275 86.86464 
L 35.814684 86.42088 
L 38.834094 87.62832 
L 41.853503 86.93688 
L 44.872913 87.23616 
L 47.892322 88.63968 
L 50.911731 90.0432 
L 53.931141 92.12784 
L 56.95055 91.16808 
L 59.969959 91.46736 
L 62.989369 91.73568 
L 66.008778 91.78728 
L 69.028188 94.0164 
L 72.047597 92.5716 
L 75.067006 91.76664 
L 78.086416 92.33424 
L 81.105825 94.36728 
L 84.125234 94.46016 
L 87.144644 97.71096 
L 90.164053 98.48496 
L 93.183463 97.85544 
L 95.732522 99.10416 
L 98.132009 100.16712 
L 101.149881 102.23112 
L 104.15636 100.54896 
L 107.244789 100.70376 
L 110.239281 100.68312 
L 113.27592 100.95144 
L 116.289073 101.28168 
L 119.297614 101.71512 
L 122.316115 101.84928 
L 125.299215 101.034 
L 128.159301 100.54896 
L 131.372386 101.04432 
L 134.012517 100.81728 
L 137.406417 101.034 
L 140.422157 101.4984 
L 143.423918 101.33328 
L 146.424876 101.1372 
L 149.478778 101.06496 
L 152.507273 102.09696 
L 155.271605 102.05568 
L 158.535224 101.4984 
L 161.541178 100.60056 
L 164.554856 100.80696 
L 167.53869 101.45712 
L 170.6267 100.55928 
L 173.614937 101.10624 
L 176.64137 100.8792 
L 179.643866 100.74504 
L 182.669775 100.21872 
L 185.687752 100.53864 
L 188.683991 101.07528 
L 191.732721 101.38488 
L 194.761182 101.26104 
L 197.761196 100.78632 
L 200.779417 100.91016 
L 203.810708 100.99272 
L 206.824281 100.38384 
L 209.839672 100.50768 
L 212.916848 100.60056 
L 215.944785 99.76464 
L 218.911354 99.49632 
L 221.953794 99.40344 
L 224.974042 100.09488 
L 227.964061 100.3632 
L 230.965787 100.19808 
L 234.030348 100.47672 
L 237.056852 100.79664 
L 240.048303 100.26 
L 243.292596 99.83688 
L 246.123851 100.13616 
L 249.14707 100.80696 
L 252.137613 101.38488 
L 255.198155 101.3436 
L 258.226196 101.292 
L 261.22656 101.28168 
L 264.271865 101.28168 
L 267.251504 101.8596 
L 270.274374 101.88024 
L 273.267922 101.72544 
L 276.332797 101.68416 
L 279.36 101.47776 
" clip-path="url(#pd069262f5a)" style="fill: none; stroke: #bebebe; stroke-width: 0.5; stroke-linecap: round"/>
   </g>
   <g id="line2d_6">
    <path d="M 8.64 71.68392 
L 11.659409 70.6932 
L 14.678819 72.62304 
L 17.698228 73.52088 
L 20.717638 73.83048 
L 23.737047 73.8408 
L 26.756456 73.29384 
L 29.775866 73.72728 
L 32.795275 70.32168 
L 35.814684 69.77472 
L 38.834094 70.34232 
L 41.853503 70.67256 
L 44.872913 70.51776 
L 47.892322 70.848 
L 50.911731 72.31344 
L 53.931141 76.01832 
L 56.95055 75.41976 
L 59.969959 75.83256 
L 62.989369 75.79128 
L 66.008778 75.82224 
L 69.028188 77.82432 
L 72.047597 76.14216 
L 75.067006 74.75928 
L 78.086416 74.96568 
L 81.105825 77.75208 
L 84.125234 79.48584 
L 87.144644 83.31456 
L 90.164053 85.90488 
L 93.183463 84.79032 
L 95.732522 85.84296 
L 98.132009 88.25784 
L 101.149881 91.41576 
L 104.15636 88.7532 
L 107.244789 88.65 
L 110.239281 88.55712 
L 113.27592 88.96992 
L 116.289073 89.7336 
L 119.297614 90.456 
L 122.316115 90.56952 
L 125.299215 89.15568 
L 128.159301 88.9596 
L 131.372386 90.6624 
L 134.012517 89.94 
L 137.406417 90.00192 
L 140.422157 90.3528 
L 143.423918 90.62112 
L 146.424876 90.5076 
L 149.478778 90.3528 
L 152.507273 92.004 
L 155.271605 92.13816 
L 158.535224 91.25064 
L 161.541178 89.166 
L 164.554856 89.56848 
L 167.53869 90.93072 
L 170.6267 89.41368 
L 173.614937 90.37344 
L 176.64137 89.79552 
L 179.643866 90.23928 
L 182.669775 88.0824 
L 185.687752 88.7532 
L 188.683991 90.16704 
L 191.732721 90.67272 
L 194.761182 90.18768 
L 197.761196 89.2692 
L 200.779417 89.54784 
L 203.810708 89.49624 
L 206.824281 88.31976 
L 209.839672 88.45392 
L 212.916848 88.46424 
L 215.944785 86.38992 
L 218.911354 84.80064 
L 221.953794 84.8316 
L 224.974042 86.586 
L 227.964061 87.74184 
L 230.965787 87.618 
L 234.030348 88.19592 
L 237.056852 89.08344 
L 240.048303 87.89664 
L 243.292596 87.3084 
L 246.123851 87.65928 
L 249.14707 88.96992 
L 252.137613 90.07416 
L 255.198155 89.76456 
L 258.226196 89.3724 
L 261.22656 89.00088 
L 264.271865 88.42296 
L 267.251504 88.81512 
L 270.274374 89.10408 
L 273.267922 89.14536 
L 276.332797 89.07312 
L 279.36 87.9792 
" clip-path="url(#pd069262f5a)" style="fill: none; stroke: #4a8dff; stroke-width: 0.6"/>
   </g>
   <g id="line2d_7">
    <path d="M 8.64 79.39296 
L 11.659409 79.66128 
L 14.678819 82.15872 
L 17.698228 82.43736 
L 20.717638 82.93272 
L 23.737047 83.00496 
L 26.756456 82.6128 
L 29.775866 82.28256 
L 32.795275 78.01008 
L 35.814684 76.19376 
L 38.834094 77.66952 
L 41.853503 77.74176 
L 44.872913 78.1752 
L 47.892322 79.5684 
L 50.911731 80.8068 
L 53.931141 85.20312 
L 56.95055 84.12984 
L 59.969959 84.03696 
L 62.989369 84.06792 
L 66.008778 84.3156 
L 69.028188 87.02976 
L 72.047597 85.21344 
L 75.067006 84.28464 
L 78.086416 84.32592 
L 81.105825 89.08344 
L 84.125234 89.5272 
L 87.144644 95.14128 
L 90.164053 96.98856 
L 93.183463 95.08968 
L 95.732522 97.71096 
L 98.132009 99.80592 
L 101.149881 101.79768 
L 104.15636 100.03296 
L 107.244789 100.518 
L 110.239281 99.98136 
L 113.27592 100.49736 
L 116.289073 100.78632 
L 119.297614 101.07528 
L 122.316115 101.26104 
L 125.299215 100.63152 
L 128.159301 100.38384 
L 131.372386 100.84824 
L 134.012517 100.65216 
L 137.406417 101.034 
L 140.422157 101.19912 
L 143.423918 101.10624 
L 146.424876 100.97208 
L 149.478778 100.91016 
L 152.507273 101.7564 
L 155.271605 101.84928 
L 158.535224 101.56032 
L 161.541178 100.85856 
L 164.554856 101.12688 
L 167.53869 101.4468 
L 170.6267 101.02368 
L 173.614937 101.30232 
L 176.64137 100.81728 
L 179.643866 100.79664 
L 182.669775 99.3312 
L 185.687752 99.92976 
L 188.683991 100.78632 
L 191.732721 101.17848 
L 194.761182 101.1372 
L 197.761196 100.21872 
L 200.779417 100.37352 
L 203.810708 100.4664 
L 206.824281 99.88848 
L 209.839672 99.94008 
L 212.916848 99.81624 
L 215.944785 98.93904 
L 218.911354 98.3508 
L 221.953794 98.52624 
L 224.974042 99.78528 
L 227.964061 100.12584 
L 230.965787 100.03296 
L 234.030348 100.45608 
L 237.056852 100.83792 
L 240.048303 100.11552 
L 243.292596 99.87816 
L 246.123851 100.002 
L 249.14707 100.64184 
L 252.137613 101.41584 
L 255.198155 101.21976 
L 258.226196 101.14752 
L 261.22656 101.00304 
L 264.271865 100.86888 
L 267.251504 101.21976 
L 270.274374 101.28168 
L 273.267922 101.20944 
L 276.332797 101.14752 
L 279.36 100.55928 
" clip-path="url(#pd069262f5a)" style="fill: none; stroke: #f5841e; stroke-width: 0.6"/>
   </g>
  </g>
 </g>
 <defs>
  <clipPath id="pd069262f5a">
   <rect x="8.64" y="4.8" width="270.72" height="103.2"/>
  </clipPath>
 </defs>
</svg>
