<?xml version="1.0" encoding="utf-8" standalone="no"?>
<!DOCTYPE svg PUBLIC "-//W3C//DTD SVG 1.1//EN"
  "http://www.w3.org/Graphics/SVG/1.1/DTD/svg11.dtd">
<svg xmlns:xlink="http://www.w3.org/1999/xlink" width="288pt" height="120pt" viewBox="0 0 288 120" xmlns="http://www.w3.org/2000/svg" version="1.1">
<desc id="nav-meta">{"window":"1m","count":4,"labels":["22.03","01.04","10.04","20.04"],"tick_utc":["2026-03-22T03:31:55Z","2026-04-01T03:54:32Z","2026-04-10T03:51:30Z","2026-04-20T04:02:26Z"],"w":720,"h":300}</desc>

 <metadata>
  <rdf:RDF xmlns:dc="http://purl.org/dc/elements/1.1/" xmlns:cc="http://creativecommons.org/ns#" xmlns:rdf="http://www.w3.org/1999/02/22-rdf-syntax-ns#">
   <cc:Work>
    <dc:type rdf:resource="http://purl.org/dc/dcmitype/StillImage"/>
    <dc:date>2026-04-20T04:02:28.909327</dc:date>
    <dc:format>image/svg+xml</dc:format>
    <dc:creator>
     <cc:Agent>
      <dc:title>Matplotlib v3.10.8, https://matplotlib.org/</dc:title>
     </cc:Agent>
    </dc:creator>
   </cc:Work>
  </rdf:RDF>
 </metadata>
 <defs>
  <style type="text/css">*{stroke-linejoin: round; stroke-linecap: butt}</style>
 </defs>
 <g id="figure_1">
  <g id="patch_1">
   <path d="M 0 120 
L 288 120 
L 288 0 
L 0 0 
L 0 120 
z
" style="fill: none; opacity: 0"/>
  </g>
  <g id="axes_1">
   <g id="patch_2">
    <path d="M 8.64 108 
L 279.36 108 
L 279.36 4.8 
L 8.64 4.8 
L 8.64 108 
z
" style="fill: none"/>
   </g>
   <g id="matplotlib.axis_1"/>
   <g id="matplotlib.axis_2"/>
   <g id="line2d_1">
    <path d="M 8.64 87.36 
L 279.36 87.36 
" clip-path="url(#pbb9a1ba5bc)" style="fill: none; stroke: #b2b2b2; stroke-opacity: 0.35; stroke-width: 0.5; stroke-linecap: square"/>
   </g>
   <g id="line2d_2">
    <path d="M 8.64 66.72 
L 279.36 66.72 
" clip-path="url(#pbb9a1ba5bc)" style="fill: none; stroke: #b2b2b2; stroke-opacity: 0.35; stroke-width: 0.5; stroke-linecap: square"/>
   </g>
   <g id="line2d_3">
    <path d="M 8.64 46.08 
L 279.36 46.08 
" clip-path="url(#pbb9a1ba5bc)" style="fill: none; stroke: #b2b2b2; stroke-opacity: 0.35; stroke-width: 0.5; stroke-linecap: square"/>
   </g>
   <g id="line2d_4">
    <path d="M 8.64 25.44 
L 279.36 25.44 
" clip-path="url(#pbb9a1ba5bc)" style="fill: none; stroke: #b2b2b2; stroke-opacity: 0.35; stroke-width: 0.5; stroke-linecap: square"/>
   </g>
   <g id="line2d_5">
    <path d="M 8.64 100.47672 
L 17.990273 100.79664 
L 27.232255 100.26 
L 37.255379 99.83688 
L 46.002439 100.13616 
L 55.342563 100.80696 
L 64.581738 101.38488 
L 74.037171 101.3436 
L 83.392195 101.292 
L 92.661708 101.28168 
L 102.070067 101.28168 
L 111.275556 101.8596 
L 120.614601 101.88024 
L 129.863061 101.72544 
L 139.331881 101.68416 
L 148.684314 101.47776 
L 157.9521 101.78736 
L 167.295571 101.09592 
L 176.591428 101.46744 
L 186.005618 101.3436 
L 195.191349 101.05464 
L 204.687053 101.3952 
L 214.063238 101.47776 
L 223.332212 100.86888 
L 232.653442 101.26104 
L 242.022177 100.99272 
L 251.33153 100.61088 
L 260.556993 100.44576 
L 270.008539 100.94112 
L 279.36 101.09592 
" clip-path="url(#pbb9a1ba5bc)" style="fill: none; stroke: #bebebe; stroke-width: 0.5; stroke-linecap: round"/>
   </g>
   <g id="line2d_6">
    <path d="M 8.64 88.19592 
L 17.990273 89.08344 
L 27.232255 87.89664 
L 37.255379 87.3084 
L 46.002439 87.65928 
L 55.342563 88.96992 
L 64.581738 90.07416 
L 74.037171 89.76456 
L 83.392195 89.3724 
L 92.661708 89.00088 
L 102.070067 88.42296 
L 111.275556 88.81512 
L 120.614601 89.10408 
L 129.863061 89.14536 
L 139.331881 89.07312 
L 148.684314 87.9792 
L 157.9521 88.29912 
L 167.295571 86.38992 
L 176.591428 87.24648 
L 186.005618 87.1536 
L 195.191349 86.21448 
L 204.687053 86.66856 
L 214.063238 87.01944 
L 223.332212 84.44976 
L 232.653442 85.05864 
L 242.022177 84.58392 
L 251.33153 85.04832 
L 260.556993 83.71704 
L 270.008539 84.86256 
L 279.36 85.6572 
" clip-path="url(#pbb9a1ba5bc)" style="fill: none; stroke: #4a8dff; stroke-width: 0.6"/>
   </g>
   <g id="line2d_7">
    <path d="M 8.64 100.45608 
L 17.990273 100.83792 
L 27.232255 100.11552 
L 37.255379 99.87816 
L 46.002439 100.002 
L 55.342563 100.64184 
L 64.581738 101.41584 
L 74.037171 101.21976 
L 83.392195 101.14752 
L 92.661708 101.00304 
L 102.070067 100.86888 
L 111.275556 101.21976 
L 120.614601 101.28168 
L 129.863061 101.20944 
L 139.331881 101.14752 
L 148.684314 100.55928 
L 157.9521 100.65216 
L 167.295571 99.80592 
L 176.591428 99.96072 
L 186.005618 99.6408 
L 195.191349 99.1764 
L 204.687053 99.70272 
L 214.063238 99.94008 
L 223.332212 98.57784 
L 232.653442 98.65008 
L 242.022177 98.38176 
L 251.33153 98.48496 
L 260.556993 96.70992 
L 270.008539 98.05152 
L 279.36 98.48496 
" clip-path="url(#pbb9a1ba5bc)" style="fill: none; stroke: #f5841e; stroke-width: 0.6"/>
   </g>
  </g>
 </g>
 <defs>
  <clipPath id="pbb9a1ba5bc">
   <rect x="8.64" y="4.8" width="270.72" height="103.2"/>
  </clipPath>
 </defs>
</svg>
