<?xml version="1.0" encoding="utf-8" standalone="no"?>
<!DOCTYPE svg PUBLIC "-//W3C//DTD SVG 1.1//EN"
  "http://www.w3.org/Graphics/SVG/1.1/DTD/svg11.dtd">
<svg xmlns:xlink="http://www.w3.org/1999/xlink" width="288pt" height="120pt" viewBox="0 0 288 120" xmlns="http://www.w3.org/2000/svg" version="1.1">
<desc id="nav-meta">{"window":"6m","count":4,"labels":["07.10","06.12","03.02","04.04"],"tick_utc":["2025-10-07T12:00:00Z","2025-12-06T12:00:00Z","2026-02-03T12:00:00Z","2026-04-04T03:24:53Z"],"w":720,"h":300}</desc>

 <metadata>
  <rdf:RDF xmlns:dc="http://purl.org/dc/elements/1.1/" xmlns:cc="http://creativecommons.org/ns#" xmlns:rdf="http://www.w3.org/1999/02/22-rdf-syntax-ns#">
   <cc:Work>
    <dc:type rdf:resource="http://purl.org/dc/dcmitype/StillImage"/>
    <dc:date>2026-04-04T13:39:24.395275</dc:date>
    <dc:format>image/svg+xml</dc:format>
    <dc:creator>
     <cc:Agent>
      <dc:title>Matplotlib v3.10.8, https://matplotlib.org/</dc:title>
     </cc:Agent>
    </dc:creator>
   </cc:Work>
  </rdf:RDF>
 </metadata>
 <defs>
  <style type="text/css">*{stroke-linejoin: round; stroke-linecap: butt}</style>
 </defs>
 <g id="figure_1">
  <g id="patch_1">
   <path d="M 0 120 
L 288 120 
L 288 0 
L 0 0 
L 0 120 
z
" style="fill: none; opacity: 0"/>
  </g>
  <g id="axes_1">
   <g id="patch_2">
    <path d="M 8.64 108 
L 279.36 108 
L 279.36 4.8 
L 8.64 4.8 
L 8.64 108 
z
" style="fill: none"/>
   </g>
   <g id="matplotlib.axis_1"/>
   <g id="matplotlib.axis_2"/>
   <g id="line2d_1">
    <path d="M 8.64 87.36 
L 279.36 87.36 
" clip-path="url(#pf7e175af98)" style="fill: none; stroke: #b2b2b2; stroke-opacity: 0.35; stroke-width: 0.5; stroke-linecap: square"/>
   </g>
   <g id="line2d_2">
    <path d="M 8.64 66.72 
L 279.36 66.72 
" clip-path="url(#pf7e175af98)" style="fill: none; stroke: #b2b2b2; stroke-opacity: 0.35; stroke-width: 0.5; stroke-linecap: square"/>
   </g>
   <g id="line2d_3">
    <path d="M 8.64 46.08 
L 279.36 46.08 
" clip-path="url(#pf7e175af98)" style="fill: none; stroke: #b2b2b2; stroke-opacity: 0.35; stroke-width: 0.5; stroke-linecap: square"/>
   </g>
   <g id="line2d_4">
    <path d="M 8.64 25.44 
L 279.36 25.44 
" clip-path="url(#pf7e175af98)" style="fill: none; stroke: #b2b2b2; stroke-opacity: 0.35; stroke-width: 0.5; stroke-linecap: square"/>
   </g>
   <g id="line2d_5">
    <path d="M 8.64 62.9532 
L 10.155431 66.14208 
L 11.670861 63.91296 
L 13.186292 66.17304 
L 14.701723 74.6148 
L 16.217154 77.78304 
L 17.732584 72.66432 
L 19.248015 69.69216 
L 20.763446 71.09568 
L 23.794307 76.06992 
L 25.309738 76.76136 
L 26.825169 75.25464 
L 28.340599 75.24432 
L 29.85603 74.63544 
L 31.371461 75.73968 
L 32.886892 77.31864 
L 34.402322 74.202 
L 35.917753 73.64472 
L 37.433184 73.48992 
L 38.948614 71.83872 
L 40.464045 72.17928 
L 41.979476 73.38672 
L 43.494907 73.43832 
L 45.010337 76.15248 
L 46.525768 75.3372 
L 48.041199 75.58488 
L 49.55663 75.35784 
L 51.07206 81.168 
L 52.587491 84.01632 
L 54.102922 82.06584 
L 55.618352 84.19176 
L 57.133783 82.27224 
L 58.649214 83.29392 
L 60.164645 81.62208 
L 61.680075 80.72424 
L 63.195506 84.33624 
L 64.710937 84.64584 
L 66.226368 86.844 
L 67.741798 88.52616 
L 69.257229 88.36104 
L 70.77266 88.93896 
L 72.28809 90.79656 
L 73.803521 88.09272 
L 75.318952 89.22792 
L 76.834383 90.00192 
L 78.349813 91.39512 
L 79.865244 91.63248 
L 81.380675 90.75528 
L 82.896106 88.7016 
L 84.411536 88.52616 
L 85.926967 87.45288 
L 87.442398 88.0308 
L 88.957828 88.94928 
L 91.98869 89.7336 
L 93.504121 91.86984 
L 95.019551 88.60872 
L 96.534982 86.87496 
L 99.565843 90.11544 
L 101.081274 90.38376 
L 102.596705 90.53856 
L 104.112136 90.08448 
L 105.627566 88.79448 
L 107.142997 89.20728 
L 108.658428 89.22792 
L 110.173859 90.31152 
L 111.689289 90.10512 
L 113.20472 91.09584 
L 114.720151 91.61184 
L 116.235581 91.31256 
L 117.751012 92.87088 
L 119.266443 93.8616 
L 120.781874 92.02464 
L 122.297304 92.13816 
L 123.812735 92.07624 
L 125.328166 92.14848 
L 126.843597 92.64384 
L 128.359027 93.01536 
L 129.874458 93.69648 
L 132.905319 92.44776 
L 134.42075 92.30328 
L 135.936181 92.87088 
L 137.451612 92.38584 
L 138.967042 92.47872 
L 140.482473 91.88016 
L 141.997904 90.42504 
L 143.513335 90.08448 
L 145.028765 89.92968 
L 146.544196 88.76352 
L 148.059627 87.94824 
L 149.575057 89.2692 
L 151.090488 88.72224 
L 152.605919 89.39304 
L 154.12135 89.40336 
L 155.63678 88.41264 
L 157.152211 88.4952 
L 158.667642 86.86464 
L 160.183072 86.42088 
L 161.698503 87.62832 
L 163.213934 86.93688 
L 164.729365 87.23616 
L 167.760226 90.0432 
L 169.275657 92.12784 
L 170.791088 91.16808 
L 173.821949 91.73568 
L 175.33738 91.78728 
L 176.85281 94.0164 
L 178.368241 92.5716 
L 179.883672 91.76664 
L 181.399103 92.33424 
L 182.914533 94.36728 
L 184.429964 94.46016 
L 185.945395 97.71096 
L 187.460826 98.48496 
L 188.976256 97.85544 
L 191.459914 100.16712 
L 192.974573 102.23112 
L 194.483514 100.54896 
L 196.033586 100.70376 
L 197.53651 100.68312 
L 200.572879 101.28168 
L 202.082855 101.71512 
L 203.59783 101.84928 
L 205.095037 101.034 
L 206.530504 100.54896 
L 208.14314 101.04432 
L 209.468212 100.81728 
L 211.171598 101.034 
L 212.685187 101.4984 
L 217.230673 101.06496 
L 218.750664 102.09696 
L 220.138072 102.05568 
L 221.77607 101.4984 
L 223.284748 100.60056 
L 224.797303 100.80696 
L 226.294878 101.45712 
L 227.844739 100.55928 
L 229.344524 101.10624 
L 232.370422 100.74504 
L 233.889115 100.21872 
L 235.403827 100.53864 
L 236.907629 101.07528 
L 238.437775 101.38488 
L 239.957749 101.26104 
L 241.463445 100.78632 
L 244.499674 100.99272 
L 246.012175 100.38384 
L 249.070013 100.60056 
L 250.589723 99.76464 
L 252.078634 99.49632 
L 253.605623 99.40344 
L 255.121475 100.09488 
L 256.622155 100.3632 
L 258.12871 100.19808 
L 261.185794 100.79664 
L 262.687193 100.26 
L 264.315491 99.83688 
L 265.736488 100.13616 
L 268.754774 101.38488 
L 274.844911 101.28168 
L 276.340382 101.8596 
L 277.857549 101.88024 
L 279.36 101.72544 
L 279.36 101.72544 
" clip-path="url(#pf7e175af98)" style="fill: none; stroke: #bebebe; stroke-width: 0.5; stroke-linecap: round"/>
   </g>
   <g id="line2d_6">
    <path d="M 8.64 50.0016 
L 10.155431 53.48976 
L 11.670861 52.40616 
L 13.186292 54.75912 
L 14.701723 62.67456 
L 16.217154 63.95424 
L 17.732584 57.86544 
L 19.248015 56.57544 
L 20.763446 58.31952 
L 22.278877 60.4764 
L 23.794307 61.85928 
L 25.309738 62.73648 
L 26.825169 61.8696 
L 28.340599 60.45576 
L 29.85603 60.54864 
L 31.371461 62.04504 
L 32.886892 63.16992 
L 34.402322 62.36496 
L 35.917753 61.21944 
L 37.433184 60.9408 
L 38.948614 57.83448 
L 40.464045 58.40208 
L 41.979476 60.49704 
L 43.494907 61.75608 
L 45.010337 63.1596 
L 46.525768 62.49912 
L 48.041199 62.1276 
L 49.55663 61.56 
L 52.587491 70.66224 
L 54.102922 68.72208 
L 55.618352 70.4868 
L 57.133783 68.61888 
L 58.649214 69.11424 
L 60.164645 66.5136 
L 61.680075 66.68904 
L 63.195506 68.8872 
L 64.710937 68.9904 
L 66.226368 71.5704 
L 67.741798 73.48992 
L 69.257229 72.54048 
L 70.77266 73.56216 
L 72.28809 74.74896 
L 73.803521 73.3248 
L 75.318952 74.80056 
L 76.834383 77.556 
L 78.349813 78.55704 
L 79.865244 78.50544 
L 81.380675 78.04104 
L 82.896106 75.76032 
L 84.411536 75.73968 
L 85.926967 74.65608 
L 87.442398 74.83152 
L 88.957828 74.57352 
L 90.473259 75.20304 
L 91.98869 75.17208 
L 93.504121 78.05136 
L 96.534982 72.16896 
L 98.050413 73.08744 
L 99.565843 74.72832 
L 102.596705 74.28456 
L 104.112136 73.21128 
L 105.627566 70.2804 
L 107.142997 70.2288 
L 108.658428 71.56008 
L 110.173859 73.79952 
L 111.689289 73.35576 
L 113.20472 74.0988 
L 114.720151 75.5952 
L 116.235581 75.5952 
L 117.751012 77.61792 
L 119.266443 77.63856 
L 120.781874 75.40944 
L 122.297304 75.40944 
L 123.812735 75.04824 
L 125.328166 74.98632 
L 126.843597 75.58488 
L 128.359027 75.87384 
L 129.874458 76.49304 
L 132.905319 75.82224 
L 134.42075 75.84288 
L 135.936181 76.03896 
L 137.451612 75.51264 
L 138.967042 75.56424 
L 140.482473 75.05856 
L 141.997904 73.26288 
L 143.513335 73.20096 
L 145.028765 73.00488 
L 146.544196 71.68392 
L 148.059627 70.6932 
L 149.575057 72.62304 
L 151.090488 73.52088 
L 152.605919 73.83048 
L 154.12135 73.8408 
L 155.63678 73.29384 
L 157.152211 73.72728 
L 158.667642 70.32168 
L 160.183072 69.77472 
L 161.698503 70.34232 
L 163.213934 70.67256 
L 164.729365 70.51776 
L 166.244795 70.848 
L 167.760226 72.31344 
L 169.275657 76.01832 
L 170.791088 75.41976 
L 172.306518 75.83256 
L 175.33738 75.82224 
L 176.85281 77.82432 
L 178.368241 76.14216 
L 179.883672 74.75928 
L 181.399103 74.96568 
L 182.914533 77.75208 
L 184.429964 79.48584 
L 185.945395 83.31456 
L 187.460826 85.90488 
L 188.976256 84.79032 
L 190.25562 85.84296 
L 192.974573 91.41576 
L 194.483514 88.7532 
L 197.53651 88.55712 
L 199.060588 88.96992 
L 202.082855 90.456 
L 203.59783 90.56952 
L 205.095037 89.15568 
L 206.530504 88.9596 
L 208.14314 90.6624 
L 209.468212 89.94 
L 211.171598 90.00192 
L 214.191761 90.62112 
L 217.230673 90.3528 
L 218.750664 92.004 
L 220.138072 92.13816 
L 221.77607 91.25064 
L 223.284748 89.166 
L 224.797303 89.56848 
L 226.294878 90.93072 
L 227.844739 89.41368 
L 229.344524 90.37344 
L 230.863481 89.79552 
L 232.370422 90.23928 
L 233.889115 88.0824 
L 235.403827 88.7532 
L 236.907629 90.16704 
L 238.437775 90.67272 
L 239.957749 90.18768 
L 241.463445 89.2692 
L 242.978279 89.54784 
L 244.499674 89.49624 
L 246.012175 88.31976 
L 247.525589 88.45392 
L 249.070013 88.46424 
L 250.589723 86.38992 
L 252.078634 84.80064 
L 253.605623 84.8316 
L 255.121475 86.586 
L 256.622155 87.74184 
L 258.12871 87.618 
L 259.666802 88.19592 
L 261.185794 89.08344 
L 262.687193 87.89664 
L 264.315491 87.3084 
L 265.736488 87.65928 
L 267.253831 88.96992 
L 268.754774 90.07416 
L 271.810612 89.3724 
L 273.316483 89.00088 
L 274.844911 88.42296 
L 277.857549 89.10408 
L 279.36 89.14536 
L 279.36 89.14536 
" clip-path="url(#pf7e175af98)" style="fill: none; stroke: #4a8dff; stroke-width: 0.6"/>
   </g>
   <g id="line2d_7">
    <path d="M 8.64 47.43192 
L 10.155431 50.80656 
L 11.670861 48.90768 
L 13.186292 50.6208 
L 14.701723 59.42376 
L 16.217154 61.85928 
L 17.732584 57.35976 
L 19.248015 57.3288 
L 20.763446 59.46504 
L 23.794307 64.72824 
L 25.309738 66.42072 
L 26.825169 65.688 
L 28.340599 64.17096 
L 29.85603 62.10696 
L 31.371461 64.30512 
L 32.886892 65.20296 
L 34.402322 62.68488 
L 35.917753 61.70448 
L 37.433184 61.06464 
L 38.948614 58.1028 
L 40.464045 58.40208 
L 41.979476 59.68176 
L 43.494907 62.6952 
L 45.010337 64.56312 
L 46.525768 63.18024 
L 48.041199 62.72616 
L 49.55663 62.06568 
L 51.07206 66.33816 
L 52.587491 71.40528 
L 54.102922 69.08328 
L 55.618352 71.7252 
L 57.133783 69.57864 
L 58.649214 70.72416 
L 60.164645 68.2164 
L 61.680075 66.978 
L 63.195506 70.03272 
L 64.710937 71.5188 
L 66.226368 73.3764 
L 67.741798 78.846 
L 69.257229 77.75208 
L 70.77266 78.88728 
L 72.28809 81.34344 
L 73.803521 80.53848 
L 75.318952 82.0452 
L 76.834383 86.92656 
L 78.349813 88.58808 
L 79.865244 88.96992 
L 81.380675 86.7924 
L 82.896106 85.296 
L 84.411536 86.24544 
L 85.926967 82.96368 
L 87.442398 82.13808 
L 88.957828 82.47864 
L 90.473259 82.58184 
L 91.98869 83.03592 
L 93.504121 87.3084 
L 95.019551 82.06584 
L 96.534982 79.71288 
L 98.050413 81.24024 
L 99.565843 84.17112 
L 101.081274 84.24336 
L 102.596705 83.29392 
L 104.112136 82.8192 
L 105.627566 80.64168 
L 107.142997 81.38472 
L 108.658428 80.87904 
L 110.173859 83.13912 
L 111.689289 83.19072 
L 113.20472 85.296 
L 114.720151 87.17424 
L 116.235581 85.71912 
L 117.751012 87.53544 
L 119.266443 88.17528 
L 120.781874 85.41984 
L 123.812735 84.9348 
L 125.328166 85.01736 
L 126.843597 86.14224 
L 128.359027 85.90488 
L 129.874458 86.328 
L 131.389889 86.24544 
L 132.905319 85.72944 
L 134.42075 85.7088 
L 135.936181 86.40024 
L 137.451612 85.09992 
L 138.967042 86.02872 
L 141.997904 83.53128 
L 145.028765 82.03488 
L 146.544196 79.39296 
L 148.059627 79.66128 
L 149.575057 82.15872 
L 151.090488 82.43736 
L 152.605919 82.93272 
L 154.12135 83.00496 
L 157.152211 82.28256 
L 158.667642 78.01008 
L 160.183072 76.19376 
L 161.698503 77.66952 
L 163.213934 77.74176 
L 164.729365 78.1752 
L 166.244795 79.5684 
L 167.760226 80.8068 
L 169.275657 85.20312 
L 170.791088 84.12984 
L 172.306518 84.03696 
L 173.821949 84.06792 
L 175.33738 84.3156 
L 176.85281 87.02976 
L 178.368241 85.21344 
L 179.883672 84.28464 
L 181.399103 84.32592 
L 182.914533 89.08344 
L 184.429964 89.5272 
L 185.945395 95.14128 
L 187.460826 96.98856 
L 188.976256 95.08968 
L 190.25562 97.71096 
L 191.459914 99.80592 
L 192.974573 101.79768 
L 194.483514 100.03296 
L 196.033586 100.518 
L 197.53651 99.98136 
L 199.060588 100.49736 
L 203.59783 101.26104 
L 205.095037 100.63152 
L 206.530504 100.38384 
L 208.14314 100.84824 
L 209.468212 100.65216 
L 211.171598 101.034 
L 212.685187 101.19912 
L 217.230673 100.91016 
L 218.750664 101.7564 
L 220.138072 101.84928 
L 221.77607 101.56032 
L 223.284748 100.85856 
L 226.294878 101.4468 
L 227.844739 101.02368 
L 229.344524 101.30232 
L 230.863481 100.81728 
L 232.370422 100.79664 
L 233.889115 99.3312 
L 235.403827 99.92976 
L 236.907629 100.78632 
L 238.437775 101.17848 
L 239.957749 101.1372 
L 241.463445 100.21872 
L 244.499674 100.4664 
L 246.012175 99.88848 
L 247.525589 99.94008 
L 249.070013 99.81624 
L 250.589723 98.93904 
L 252.078634 98.3508 
L 253.605623 98.52624 
L 255.121475 99.78528 
L 256.622155 100.12584 
L 258.12871 100.03296 
L 261.185794 100.83792 
L 262.687193 100.11552 
L 264.315491 99.87816 
L 265.736488 100.002 
L 267.253831 100.64184 
L 268.754774 101.41584 
L 270.290849 101.21976 
L 273.316483 101.00304 
L 274.844911 100.86888 
L 276.340382 101.21976 
L 277.857549 101.28168 
L 279.36 101.20944 
L 279.36 101.20944 
" clip-path="url(#pf7e175af98)" style="fill: none; stroke: #f5841e; stroke-width: 0.6"/>
   </g>
  </g>
 </g>
 <defs>
  <clipPath id="pf7e175af98">
   <rect x="8.64" y="4.8" width="270.72" height="103.2"/>
  </clipPath>
 </defs>
</svg>
