<?xml version="1.0" encoding="utf-8" standalone="no"?>
<!DOCTYPE svg PUBLIC "-//W3C//DTD SVG 1.1//EN"
  "http://www.w3.org/Graphics/SVG/1.1/DTD/svg11.dtd">
<svg xmlns:xlink="http://www.w3.org/1999/xlink" width="288pt" height="120pt" viewBox="0 0 288 120" xmlns="http://www.w3.org/2000/svg" version="1.1">
<desc id="nav-meta">{"window":"3m","count":4,"labels":["30.01","01.03","30.03","29.04"],"tick_utc":["2026-01-30T12:00:00Z","2026-03-01T03:33:48Z","2026-03-30T03:51:16Z","2026-04-29T04:21:07Z"],"w":720,"h":300}</desc>

 <metadata>
  <rdf:RDF xmlns:dc="http://purl.org/dc/elements/1.1/" xmlns:cc="http://creativecommons.org/ns#" xmlns:rdf="http://www.w3.org/1999/02/22-rdf-syntax-ns#">
   <cc:Work>
    <dc:type rdf:resource="http://purl.org/dc/dcmitype/StillImage"/>
    <dc:date>2026-04-29T20:02:51.084199</dc:date>
    <dc:format>image/svg+xml</dc:format>
    <dc:creator>
     <cc:Agent>
      <dc:title>Matplotlib v3.10.9, https://matplotlib.org/</dc:title>
     </cc:Agent>
    </dc:creator>
   </cc:Work>
  </rdf:RDF>
 </metadata>
 <defs>
  <style type="text/css">*{stroke-linejoin: round; stroke-linecap: butt}</style>
 </defs>
 <g id="figure_1">
  <g id="patch_1">
   <path d="M 0 120 
L 288 120 
L 288 0 
L 0 0 
L 0 120 
z
" style="fill: none; opacity: 0"/>
  </g>
  <g id="axes_1">
   <g id="patch_2">
    <path d="M 8.64 108 
L 279.36 108 
L 279.36 4.8 
L 8.64 4.8 
L 8.64 108 
z
" style="fill: none"/>
   </g>
   <g id="matplotlib.axis_1"/>
   <g id="matplotlib.axis_2"/>
   <g id="line2d_1">
    <path d="M 8.64 87.36 
L 279.36 87.36 
" clip-path="url(#p8a4fbb5e8d)" style="fill: none; stroke: #b2b2b2; stroke-opacity: 0.35; stroke-width: 0.5; stroke-linecap: square"/>
   </g>
   <g id="line2d_2">
    <path d="M 8.64 66.72 
L 279.36 66.72 
" clip-path="url(#p8a4fbb5e8d)" style="fill: none; stroke: #b2b2b2; stroke-opacity: 0.35; stroke-width: 0.5; stroke-linecap: square"/>
   </g>
   <g id="line2d_3">
    <path d="M 8.64 46.08 
L 279.36 46.08 
" clip-path="url(#p8a4fbb5e8d)" style="fill: none; stroke: #b2b2b2; stroke-opacity: 0.35; stroke-width: 0.5; stroke-linecap: square"/>
   </g>
   <g id="line2d_4">
    <path d="M 8.64 25.44 
L 279.36 25.44 
" clip-path="url(#p8a4fbb5e8d)" style="fill: none; stroke: #b2b2b2; stroke-opacity: 0.35; stroke-width: 0.5; stroke-linecap: square"/>
   </g>
   <g id="line2d_5">
    <path d="M 8.64 94.36728 
L 11.692728 94.46016 
L 14.745456 97.71096 
L 17.798185 98.48496 
L 20.850913 97.85544 
L 23.428101 99.10416 
L 25.854066 100.16712 
L 28.905239 102.23112 
L 31.944895 100.54896 
L 35.067404 100.70376 
L 38.094941 100.68312 
L 41.165088 100.95144 
L 44.211491 101.28168 
L 47.253231 101.71512 
L 50.305041 101.84928 
L 53.321058 101.034 
L 56.212706 100.54896 
L 59.461247 101.04432 
L 62.130511 100.81728 
L 65.561863 101.034 
L 68.610881 101.4984 
L 71.645766 101.33328 
L 74.679839 101.1372 
L 77.76744 101.06496 
L 80.829355 102.09696 
L 83.624191 102.05568 
L 86.923823 101.4984 
L 89.962948 100.60056 
L 93.009882 100.80696 
L 96.026641 101.45712 
L 99.148727 100.55928 
L 102.169939 101.10624 
L 105.229769 100.8792 
L 108.265396 100.74504 
L 111.324696 100.21872 
L 114.375976 100.53864 
L 117.405279 101.07528 
L 120.487651 101.38488 
L 123.54953 101.26104 
L 126.582649 100.78632 
L 129.634176 100.91016 
L 132.698917 100.99272 
L 135.745744 100.38384 
L 138.794409 100.50768 
L 141.905542 100.60056 
L 144.966892 99.76464 
L 147.966197 99.49632 
L 151.042209 99.40344 
L 154.095786 100.09488 
L 157.118799 100.3632 
L 160.153649 100.19808 
L 163.252027 100.47672 
L 166.311928 100.79664 
L 169.33639 100.26 
L 172.616483 99.83688 
L 175.478981 100.13616 
L 178.53556 100.80696 
L 181.559104 101.38488 
L 184.653418 101.3436 
L 187.714873 101.292 
L 190.748345 101.28168 
L 193.827255 101.28168 
L 196.839775 101.8596 
L 199.896001 101.88024 
L 202.922583 101.72544 
L 206.021279 101.68416 
L 209.081886 101.47776 
L 212.114793 101.78736 
L 215.172468 101.09592 
L 218.214561 101.46744 
L 221.295378 101.3436 
L 224.301432 101.05464 
L 227.408926 101.3952 
L 230.477306 101.47776 
L 233.510602 100.86888 
L 236.560998 101.26104 
L 239.626941 100.99272 
L 242.67345 100.61088 
L 245.692507 100.44576 
L 248.785549 100.94112 
L 251.845838 101.09592 
L 254.885176 101.00304 
L 257.928435 100.69344 
L 260.993529 100.9308 
L 264.054349 100.92048 
L 267.070649 100.81728 
L 270.170864 100.8792 
L 273.256487 100.64184 
L 276.31561 101.1888 
L 279.36 101.09592 
" clip-path="url(#p8a4fbb5e8d)" style="fill: none; stroke: #bebebe; stroke-width: 0.5; stroke-linecap: round"/>
   </g>
   <g id="line2d_6">
    <path d="M 8.64 77.75208 
L 11.692728 79.48584 
L 14.745456 83.31456 
L 17.798185 85.90488 
L 20.850913 84.79032 
L 23.428101 85.84296 
L 25.854066 88.25784 
L 28.905239 91.41576 
L 31.944895 88.7532 
L 35.067404 88.65 
L 38.094941 88.55712 
L 41.165088 88.96992 
L 44.211491 89.7336 
L 47.253231 90.456 
L 50.305041 90.56952 
L 53.321058 89.15568 
L 56.212706 88.9596 
L 59.461247 90.6624 
L 62.130511 89.94 
L 65.561863 90.00192 
L 68.610881 90.3528 
L 71.645766 90.62112 
L 74.679839 90.5076 
L 77.76744 90.3528 
L 80.829355 92.004 
L 83.624191 92.13816 
L 86.923823 91.25064 
L 89.962948 89.166 
L 93.009882 89.56848 
L 96.026641 90.93072 
L 99.148727 89.41368 
L 102.169939 90.37344 
L 105.229769 89.79552 
L 108.265396 90.23928 
L 111.324696 88.0824 
L 114.375976 88.7532 
L 117.405279 90.16704 
L 120.487651 90.67272 
L 123.54953 90.18768 
L 126.582649 89.2692 
L 129.634176 89.54784 
L 132.698917 89.49624 
L 135.745744 88.31976 
L 138.794409 88.45392 
L 141.905542 88.46424 
L 144.966892 86.38992 
L 147.966197 84.80064 
L 151.042209 84.8316 
L 154.095786 86.586 
L 157.118799 87.74184 
L 160.153649 87.618 
L 163.252027 88.19592 
L 166.311928 89.08344 
L 169.33639 87.89664 
L 172.616483 87.3084 
L 175.478981 87.65928 
L 178.53556 88.96992 
L 181.559104 90.07416 
L 184.653418 89.76456 
L 187.714873 89.3724 
L 190.748345 89.00088 
L 193.827255 88.42296 
L 196.839775 88.81512 
L 199.896001 89.10408 
L 202.922583 89.14536 
L 206.021279 89.07312 
L 209.081886 87.9792 
L 212.114793 88.29912 
L 215.172468 86.38992 
L 218.214561 87.24648 
L 221.295378 87.1536 
L 224.301432 86.21448 
L 227.408926 86.66856 
L 230.477306 87.01944 
L 233.510602 84.44976 
L 236.560998 85.05864 
L 239.626941 84.58392 
L 242.67345 85.04832 
L 245.692507 83.71704 
L 248.785549 84.86256 
L 251.845838 85.6572 
L 254.885176 85.27536 
L 257.928435 84.49104 
L 260.993529 84.86256 
L 264.054349 85.32696 
L 267.070649 85.17216 
L 270.170864 85.31664 
L 273.256487 84.11952 
L 276.31561 85.66752 
L 279.36 85.26504 
" clip-path="url(#p8a4fbb5e8d)" style="fill: none; stroke: #4a8dff; stroke-width: 0.6"/>
   </g>
   <g id="line2d_7">
    <path d="M 8.64 89.08344 
L 11.692728 89.5272 
L 14.745456 95.14128 
L 17.798185 96.98856 
L 20.850913 95.08968 
L 23.428101 97.71096 
L 25.854066 99.80592 
L 28.905239 101.79768 
L 31.944895 100.03296 
L 35.067404 100.518 
L 38.094941 99.98136 
L 41.165088 100.49736 
L 44.211491 100.78632 
L 47.253231 101.07528 
L 50.305041 101.26104 
L 53.321058 100.63152 
L 56.212706 100.38384 
L 59.461247 100.84824 
L 62.130511 100.65216 
L 65.561863 101.034 
L 68.610881 101.19912 
L 71.645766 101.10624 
L 74.679839 100.97208 
L 77.76744 100.91016 
L 80.829355 101.7564 
L 83.624191 101.84928 
L 86.923823 101.56032 
L 89.962948 100.85856 
L 93.009882 101.12688 
L 96.026641 101.4468 
L 99.148727 101.02368 
L 102.169939 101.30232 
L 105.229769 100.81728 
L 108.265396 100.79664 
L 111.324696 99.3312 
L 114.375976 99.92976 
L 117.405279 100.78632 
L 120.487651 101.17848 
L 123.54953 101.1372 
L 126.582649 100.21872 
L 129.634176 100.37352 
L 132.698917 100.4664 
L 135.745744 99.88848 
L 138.794409 99.94008 
L 141.905542 99.81624 
L 144.966892 98.93904 
L 147.966197 98.3508 
L 151.042209 98.52624 
L 154.095786 99.78528 
L 157.118799 100.12584 
L 160.153649 100.03296 
L 163.252027 100.45608 
L 166.311928 100.83792 
L 169.33639 100.11552 
L 172.616483 99.87816 
L 175.478981 100.002 
L 178.53556 100.64184 
L 181.559104 101.41584 
L 184.653418 101.21976 
L 187.714873 101.14752 
L 190.748345 101.00304 
L 193.827255 100.86888 
L 196.839775 101.21976 
L 199.896001 101.28168 
L 202.922583 101.20944 
L 206.021279 101.14752 
L 209.081886 100.55928 
L 212.114793 100.65216 
L 215.172468 99.80592 
L 218.214561 99.96072 
L 221.295378 99.6408 
L 224.301432 99.1764 
L 227.408926 99.70272 
L 230.477306 99.94008 
L 233.510602 98.57784 
L 236.560998 98.65008 
L 239.626941 98.38176 
L 242.67345 98.48496 
L 245.692507 96.70992 
L 248.785549 98.05152 
L 251.845838 98.48496 
L 254.885176 97.96896 
L 257.928435 96.32808 
L 260.993529 96.20424 
L 264.054349 96.16296 
L 267.070649 96.1836 
L 270.170864 96.50352 
L 273.256487 94.76976 
L 276.31561 97.19496 
L 279.36 96.9576 
" clip-path="url(#p8a4fbb5e8d)" style="fill: none; stroke: #f5841e; stroke-width: 0.6"/>
   </g>
  </g>
 </g>
 <defs>
  <clipPath id="p8a4fbb5e8d">
   <rect x="8.64" y="4.8" width="270.72" height="103.2"/>
  </clipPath>
 </defs>
</svg>
