<?xml version="1.0" encoding="utf-8" standalone="no"?>
<!DOCTYPE svg PUBLIC "-//W3C//DTD SVG 1.1//EN"
  "http://www.w3.org/Graphics/SVG/1.1/DTD/svg11.dtd">
<svg xmlns:xlink="http://www.w3.org/1999/xlink" width="288pt" height="120pt" viewBox="0 0 288 120" xmlns="http://www.w3.org/2000/svg" version="1.1">
<desc id="nav-meta">{"window":"6m","count":4,"labels":["17.11","16.01","16.03","15.05"],"tick_utc":["2025-11-17T12:00:00Z","2026-01-16T12:00:00Z","2026-03-16T03:46:39Z","2026-05-15T04:39:19Z"],"w":720,"h":300}</desc>

 <metadata>
  <rdf:RDF xmlns:dc="http://purl.org/dc/elements/1.1/" xmlns:cc="http://creativecommons.org/ns#" xmlns:rdf="http://www.w3.org/1999/02/22-rdf-syntax-ns#">
   <cc:Work>
    <dc:type rdf:resource="http://purl.org/dc/dcmitype/StillImage"/>
    <dc:date>2026-05-15T15:05:10.422803</dc:date>
    <dc:format>image/svg+xml</dc:format>
    <dc:creator>
     <cc:Agent>
      <dc:title>Matplotlib v3.10.9, https://matplotlib.org/</dc:title>
     </cc:Agent>
    </dc:creator>
   </cc:Work>
  </rdf:RDF>
 </metadata>
 <defs>
  <style type="text/css">*{stroke-linejoin: round; stroke-linecap: butt}</style>
 </defs>
 <g id="figure_1">
  <g id="patch_1">
   <path d="M 0 120 
L 288 120 
L 288 0 
L 0 0 
L 0 120 
z
" style="fill: none; opacity: 0"/>
  </g>
  <g id="axes_1">
   <g id="patch_2">
    <path d="M 8.64 108 
L 279.36 108 
L 279.36 4.8 
L 8.64 4.8 
L 8.64 108 
z
" style="fill: none"/>
   </g>
   <g id="matplotlib.axis_1"/>
   <g id="matplotlib.axis_2"/>
   <g id="line2d_1">
    <path d="M 8.64 87.36 
L 279.36 87.36 
" clip-path="url(#pbe7854b6a7)" style="fill: none; stroke: #b2b2b2; stroke-opacity: 0.35; stroke-width: 0.5; stroke-linecap: square"/>
   </g>
   <g id="line2d_2">
    <path d="M 8.64 66.72 
L 279.36 66.72 
" clip-path="url(#pbe7854b6a7)" style="fill: none; stroke: #b2b2b2; stroke-opacity: 0.35; stroke-width: 0.5; stroke-linecap: square"/>
   </g>
   <g id="line2d_3">
    <path d="M 8.64 46.08 
L 279.36 46.08 
" clip-path="url(#pbe7854b6a7)" style="fill: none; stroke: #b2b2b2; stroke-opacity: 0.35; stroke-width: 0.5; stroke-linecap: square"/>
   </g>
   <g id="line2d_4">
    <path d="M 8.64 25.44 
L 279.36 25.44 
" clip-path="url(#pbe7854b6a7)" style="fill: none; stroke: #b2b2b2; stroke-opacity: 0.35; stroke-width: 0.5; stroke-linecap: square"/>
   </g>
   <g id="line2d_5">
    <path d="M 8.64 88.93896 
L 10.154992 90.79656 
L 11.669985 88.09272 
L 13.184977 89.22792 
L 14.699969 90.00192 
L 16.214962 91.39512 
L 17.729954 91.63248 
L 19.244947 90.75528 
L 20.759939 88.7016 
L 22.274931 88.52616 
L 23.789924 87.45288 
L 25.304916 88.0308 
L 26.819908 88.94928 
L 29.849893 89.7336 
L 31.364885 91.86984 
L 32.879878 88.60872 
L 34.39487 86.87496 
L 37.424855 90.11544 
L 38.939847 90.38376 
L 40.45484 90.53856 
L 41.969832 90.08448 
L 43.484824 88.79448 
L 44.999817 89.20728 
L 46.514809 89.22792 
L 48.029801 90.31152 
L 49.544794 90.10512 
L 51.059786 91.09584 
L 52.574779 91.61184 
L 54.089771 91.31256 
L 55.604763 92.87088 
L 57.119756 93.8616 
L 58.634748 92.02464 
L 60.14974 92.13816 
L 61.664733 92.07624 
L 63.179725 92.14848 
L 64.694717 92.64384 
L 66.20971 93.01536 
L 67.724702 93.69648 
L 70.754687 92.44776 
L 72.269679 92.30328 
L 73.784672 92.87088 
L 75.299664 92.38584 
L 76.814656 92.47872 
L 78.329649 91.88016 
L 79.844641 90.42504 
L 81.359633 90.08448 
L 82.874626 89.92968 
L 84.389618 88.76352 
L 85.904611 87.94824 
L 87.419603 89.2692 
L 88.934595 88.72224 
L 90.449588 89.39304 
L 91.96458 89.40336 
L 93.479572 88.41264 
L 94.994565 88.4952 
L 96.509557 86.86464 
L 98.02455 86.42088 
L 99.539542 87.62832 
L 101.054534 86.93688 
L 102.569527 87.23616 
L 105.599511 90.0432 
L 107.114504 92.12784 
L 108.629496 91.16808 
L 111.659481 91.73568 
L 113.174473 91.78728 
L 114.689466 94.0164 
L 116.204458 92.5716 
L 117.71945 91.76664 
L 119.234443 92.33424 
L 120.749435 94.36728 
L 122.264427 94.46016 
L 123.77942 97.71096 
L 125.294412 98.48496 
L 126.809404 97.85544 
L 129.292344 100.16712 
L 130.806564 102.23112 
L 132.315069 100.54896 
L 133.864692 100.70376 
L 135.367182 100.68312 
L 138.402673 101.28168 
L 139.912212 101.71512 
L 141.426749 101.84928 
L 142.923523 101.034 
L 144.358574 100.54896 
L 145.970744 101.04432 
L 147.295433 100.81728 
L 148.998326 101.034 
L 150.511478 101.4984 
L 155.055648 101.06496 
L 156.575199 102.09696 
L 157.962206 102.05568 
L 159.599731 101.4984 
L 161.107972 100.60056 
L 162.620089 100.80696 
L 164.117231 101.45712 
L 165.666644 100.55928 
L 167.165995 101.10624 
L 170.191018 100.74504 
L 171.709272 100.21872 
L 173.223545 100.53864 
L 174.726912 101.07528 
L 176.256616 101.38488 
L 177.77615 101.26104 
L 179.28141 100.78632 
L 182.316761 100.99272 
L 183.828825 100.38384 
L 186.885778 100.60056 
L 188.405049 99.76464 
L 189.893529 99.49632 
L 191.420076 99.40344 
L 192.93549 100.09488 
L 194.435735 100.3632 
L 195.941855 100.19808 
L 198.998054 100.79664 
L 200.499019 100.26 
L 202.126847 99.83688 
L 203.547432 100.13616 
L 206.564845 101.38488 
L 212.65322 101.28168 
L 214.148258 101.8596 
L 215.664987 101.88024 
L 217.167003 101.72544 
L 218.704808 101.68416 
L 220.223711 101.47776 
L 221.728866 101.78736 
L 223.246314 101.09592 
L 224.756028 101.46744 
L 226.28496 101.3436 
L 227.776789 101.05464 
L 229.318961 101.3952 
L 230.841721 101.47776 
L 232.347069 100.86888 
L 233.860904 101.26104 
L 235.382454 100.99272 
L 236.894361 100.61088 
L 238.392643 100.44576 
L 239.927642 100.94112 
L 241.446387 101.09592 
L 242.954733 101.00304 
L 244.465027 100.69344 
L 245.986156 100.9308 
L 250.540637 100.8792 
L 252.071954 100.64184 
L 253.59012 101.1888 
L 255.100974 101.09592 
L 256.618509 101.37456 
L 258.150054 101.21976 
L 261.172131 101.23008 
L 262.686597 100.92048 
L 264.168221 101.06496 
L 265.709901 100.70376 
L 267.225297 100.55928 
L 268.715074 100.53864 
L 270.235608 99.60984 
L 271.781128 99.72336 
L 274.80203 99.25896 
L 276.324229 99.32088 
L 277.837538 100.22904 
L 279.36 100.01232 
L 279.36 100.01232 
" clip-path="url(#pbe7854b6a7)" style="fill: none; stroke: #bebebe; stroke-width: 0.5; stroke-linecap: round"/>
   </g>
   <g id="line2d_6">
    <path d="M 8.64 73.56216 
L 10.154992 74.74896 
L 11.669985 73.3248 
L 13.184977 74.80056 
L 14.699969 77.556 
L 16.214962 78.55704 
L 17.729954 78.50544 
L 19.244947 78.04104 
L 20.759939 75.76032 
L 22.274931 75.73968 
L 23.789924 74.65608 
L 25.304916 74.83152 
L 26.819908 74.57352 
L 28.334901 75.20304 
L 29.849893 75.17208 
L 31.364885 78.05136 
L 34.39487 72.16896 
L 35.909863 73.08744 
L 37.424855 74.72832 
L 40.45484 74.28456 
L 41.969832 73.21128 
L 43.484824 70.2804 
L 44.999817 70.2288 
L 46.514809 71.56008 
L 48.029801 73.79952 
L 49.544794 73.35576 
L 51.059786 74.0988 
L 52.574779 75.5952 
L 54.089771 75.5952 
L 55.604763 77.61792 
L 57.119756 77.63856 
L 58.634748 75.40944 
L 60.14974 75.40944 
L 61.664733 75.04824 
L 63.179725 74.98632 
L 64.694717 75.58488 
L 66.20971 75.87384 
L 67.724702 76.49304 
L 70.754687 75.82224 
L 72.269679 75.84288 
L 73.784672 76.03896 
L 75.299664 75.51264 
L 76.814656 75.56424 
L 78.329649 75.05856 
L 79.844641 73.26288 
L 81.359633 73.20096 
L 82.874626 73.00488 
L 84.389618 71.68392 
L 85.904611 70.6932 
L 87.419603 72.62304 
L 88.934595 73.52088 
L 90.449588 73.83048 
L 91.96458 73.8408 
L 93.479572 73.29384 
L 94.994565 73.72728 
L 96.509557 70.32168 
L 98.02455 69.77472 
L 99.539542 70.34232 
L 101.054534 70.67256 
L 102.569527 70.51776 
L 104.084519 70.848 
L 105.599511 72.31344 
L 107.114504 76.01832 
L 108.629496 75.41976 
L 110.144488 75.83256 
L 113.174473 75.82224 
L 114.689466 77.82432 
L 116.204458 76.14216 
L 117.71945 74.75928 
L 119.234443 74.96568 
L 120.749435 77.75208 
L 122.264427 79.48584 
L 123.77942 83.31456 
L 125.294412 85.90488 
L 126.809404 84.79032 
L 128.088398 85.84296 
L 130.806564 91.41576 
L 132.315069 88.7532 
L 135.367182 88.55712 
L 136.890819 88.96992 
L 139.912212 90.456 
L 141.426749 90.56952 
L 142.923523 89.15568 
L 144.358574 88.9596 
L 145.970744 90.6624 
L 147.295433 89.94 
L 148.998326 90.00192 
L 152.017615 90.62112 
L 155.055648 90.3528 
L 156.575199 92.004 
L 157.962206 92.13816 
L 159.599731 91.25064 
L 161.107972 89.166 
L 162.620089 89.56848 
L 164.117231 90.93072 
L 165.666644 89.41368 
L 167.165995 90.37344 
L 168.684512 89.79552 
L 170.191018 90.23928 
L 171.709272 88.0824 
L 173.223545 88.7532 
L 174.726912 90.16704 
L 176.256616 90.67272 
L 177.77615 90.18768 
L 179.28141 89.2692 
L 180.795807 89.54784 
L 182.316761 89.49624 
L 183.828825 88.31976 
L 185.341801 88.45392 
L 186.885778 88.46424 
L 188.405049 86.38992 
L 189.893529 84.80064 
L 191.420076 84.8316 
L 192.93549 86.586 
L 194.435735 87.74184 
L 195.941855 87.618 
L 197.479502 88.19592 
L 198.998054 89.08344 
L 200.499019 87.89664 
L 202.126847 87.3084 
L 203.547432 87.65928 
L 205.064336 88.96992 
L 206.564845 90.07416 
L 209.619799 89.3724 
L 211.125235 89.00088 
L 212.65322 88.42296 
L 215.664987 89.10408 
L 217.167003 89.14536 
L 218.704808 89.07312 
L 220.223711 87.9792 
L 221.728866 88.29912 
L 223.246314 86.38992 
L 224.756028 87.24648 
L 226.28496 87.1536 
L 227.776789 86.21448 
L 230.841721 87.01944 
L 232.347069 84.44976 
L 233.860904 85.05864 
L 235.382454 84.58392 
L 236.894361 85.04832 
L 238.392643 83.71704 
L 239.927642 84.86256 
L 241.446387 85.6572 
L 242.954733 85.27536 
L 244.465027 84.49104 
L 247.505164 85.32696 
L 249.002078 85.17216 
L 250.540637 85.31664 
L 252.071954 84.11952 
L 253.59012 85.66752 
L 255.100974 85.26504 
L 256.618509 86.26608 
L 259.626383 85.38888 
L 261.172131 85.3992 
L 262.686597 84.09888 
L 265.709901 84.34656 
L 268.715074 85.7604 
L 270.235608 85.0896 
L 273.308079 84.9348 
L 274.80203 85.296 
L 276.324229 85.35792 
L 277.837538 86.1732 
L 279.36 85.92552 
L 279.36 85.92552 
" clip-path="url(#pbe7854b6a7)" style="fill: none; stroke: #4a8dff; stroke-width: 0.6"/>
   </g>
   <g id="line2d_7">
    <path d="M 8.64 78.88728 
L 10.154992 81.34344 
L 11.669985 80.53848 
L 13.184977 82.0452 
L 14.699969 86.92656 
L 16.214962 88.58808 
L 17.729954 88.96992 
L 19.244947 86.7924 
L 20.759939 85.296 
L 22.274931 86.24544 
L 23.789924 82.96368 
L 25.304916 82.13808 
L 26.819908 82.47864 
L 28.334901 82.58184 
L 29.849893 83.03592 
L 31.364885 87.3084 
L 32.879878 82.06584 
L 34.39487 79.71288 
L 35.909863 81.24024 
L 37.424855 84.17112 
L 38.939847 84.24336 
L 40.45484 83.29392 
L 41.969832 82.8192 
L 43.484824 80.64168 
L 44.999817 81.38472 
L 46.514809 80.87904 
L 48.029801 83.13912 
L 49.544794 83.19072 
L 51.059786 85.296 
L 52.574779 87.17424 
L 54.089771 85.71912 
L 55.604763 87.53544 
L 57.119756 88.17528 
L 58.634748 85.41984 
L 61.664733 84.9348 
L 63.179725 85.01736 
L 64.694717 86.14224 
L 66.20971 85.90488 
L 67.724702 86.328 
L 69.239695 86.24544 
L 70.754687 85.72944 
L 72.269679 85.7088 
L 73.784672 86.40024 
L 75.299664 85.09992 
L 76.814656 86.02872 
L 79.844641 83.53128 
L 82.874626 82.03488 
L 84.389618 79.39296 
L 85.904611 79.66128 
L 87.419603 82.15872 
L 88.934595 82.43736 
L 90.449588 82.93272 
L 91.96458 83.00496 
L 94.994565 82.28256 
L 96.509557 78.01008 
L 98.02455 76.19376 
L 99.539542 77.66952 
L 101.054534 77.74176 
L 102.569527 78.1752 
L 104.084519 79.5684 
L 105.599511 80.8068 
L 107.114504 85.20312 
L 108.629496 84.12984 
L 110.144488 84.03696 
L 111.659481 84.06792 
L 113.174473 84.3156 
L 114.689466 87.02976 
L 116.204458 85.21344 
L 117.71945 84.28464 
L 119.234443 84.32592 
L 120.749435 89.08344 
L 122.264427 89.5272 
L 123.77942 95.14128 
L 125.294412 96.98856 
L 126.809404 95.08968 
L 128.088398 97.71096 
L 129.292344 99.80592 
L 130.806564 101.79768 
L 132.315069 100.03296 
L 133.864692 100.518 
L 135.367182 99.98136 
L 136.890819 100.49736 
L 141.426749 101.26104 
L 142.923523 100.63152 
L 144.358574 100.38384 
L 145.970744 100.84824 
L 147.295433 100.65216 
L 148.998326 101.034 
L 150.511478 101.19912 
L 155.055648 100.91016 
L 156.575199 101.7564 
L 157.962206 101.84928 
L 159.599731 101.56032 
L 161.107972 100.85856 
L 164.117231 101.4468 
L 165.666644 101.02368 
L 167.165995 101.30232 
L 168.684512 100.81728 
L 170.191018 100.79664 
L 171.709272 99.3312 
L 173.223545 99.92976 
L 174.726912 100.78632 
L 176.256616 101.17848 
L 177.77615 101.1372 
L 179.28141 100.21872 
L 182.316761 100.4664 
L 183.828825 99.88848 
L 185.341801 99.94008 
L 186.885778 99.81624 
L 188.405049 98.93904 
L 189.893529 98.3508 
L 191.420076 98.52624 
L 192.93549 99.78528 
L 194.435735 100.12584 
L 195.941855 100.03296 
L 198.998054 100.83792 
L 200.499019 100.11552 
L 202.126847 99.87816 
L 203.547432 100.002 
L 205.064336 100.64184 
L 206.564845 101.41584 
L 208.100475 101.21976 
L 211.125235 101.00304 
L 212.65322 100.86888 
L 214.148258 101.21976 
L 215.664987 101.28168 
L 218.704808 101.14752 
L 220.223711 100.55928 
L 221.728866 100.65216 
L 223.246314 99.80592 
L 224.756028 99.96072 
L 226.28496 99.6408 
L 227.776789 99.1764 
L 229.318961 99.70272 
L 230.841721 99.94008 
L 232.347069 98.57784 
L 233.860904 98.65008 
L 235.382454 98.38176 
L 236.894361 98.48496 
L 238.392643 96.70992 
L 239.927642 98.05152 
L 241.446387 98.48496 
L 242.954733 97.96896 
L 244.465027 96.32808 
L 247.505164 96.16296 
L 249.002078 96.1836 
L 250.540637 96.50352 
L 252.071954 94.76976 
L 253.59012 97.19496 
L 255.100974 96.9576 
L 256.618509 97.9896 
L 258.150054 96.89568 
L 259.626383 95.45088 
L 261.172131 95.67792 
L 262.686597 93.43848 
L 265.709901 92.25168 
L 267.225297 92.87088 
L 268.715074 94.2744 
L 270.235608 93.1392 
L 271.781128 92.97408 
L 273.308079 92.9844 
L 274.80203 92.60256 
L 276.324229 92.53032 
L 277.837538 94.54272 
L 279.36 92.85024 
L 279.36 92.85024 
" clip-path="url(#pbe7854b6a7)" style="fill: none; stroke: #f5841e; stroke-width: 0.6"/>
   </g>
  </g>
 </g>
 <defs>
  <clipPath id="pbe7854b6a7">
   <rect x="8.64" y="4.8" width="270.72" height="103.2"/>
  </clipPath>
 </defs>
</svg>
