<?xml version="1.0" encoding="utf-8" standalone="no"?>
<!DOCTYPE svg PUBLIC "-//W3C//DTD SVG 1.1//EN"
  "http://www.w3.org/Graphics/SVG/1.1/DTD/svg11.dtd">
<svg xmlns:xlink="http://www.w3.org/1999/xlink" width="288pt" height="120pt" viewBox="0 0 288 120" xmlns="http://www.w3.org/2000/svg" version="1.1">
<desc id="nav-meta">{"window":"1m","count":4,"labels":["10.04","20.04","29.04","09.05"],"tick_utc":["2026-04-10T03:51:30Z","2026-04-20T04:02:26Z","2026-04-29T04:21:07Z","2026-05-09T04:06:35Z"],"w":720,"h":300}</desc>

 <metadata>
  <rdf:RDF xmlns:dc="http://purl.org/dc/elements/1.1/" xmlns:cc="http://creativecommons.org/ns#" xmlns:rdf="http://www.w3.org/1999/02/22-rdf-syntax-ns#">
   <cc:Work>
    <dc:type rdf:resource="http://purl.org/dc/dcmitype/StillImage"/>
    <dc:date>2026-05-09T04:06:37.086919</dc:date>
    <dc:format>image/svg+xml</dc:format>
    <dc:creator>
     <cc:Agent>
      <dc:title>Matplotlib v3.10.9, https://matplotlib.org/</dc:title>
     </cc:Agent>
    </dc:creator>
   </cc:Work>
  </rdf:RDF>
 </metadata>
 <defs>
  <style type="text/css">*{stroke-linejoin: round; stroke-linecap: butt}</style>
 </defs>
 <g id="figure_1">
  <g id="patch_1">
   <path d="M 0 120 
L 288 120 
L 288 0 
L 0 0 
L 0 120 
z
" style="fill: none; opacity: 0"/>
  </g>
  <g id="axes_1">
   <g id="patch_2">
    <path d="M 8.64 108 
L 279.36 108 
L 279.36 4.8 
L 8.64 4.8 
L 8.64 108 
z
" style="fill: none"/>
   </g>
   <g id="matplotlib.axis_1"/>
   <g id="matplotlib.axis_2"/>
   <g id="line2d_1">
    <path d="M 8.64 87.36 
L 279.36 87.36 
" clip-path="url(#pfdf44d58ce)" style="fill: none; stroke: #b2b2b2; stroke-opacity: 0.35; stroke-width: 0.5; stroke-linecap: square"/>
   </g>
   <g id="line2d_2">
    <path d="M 8.64 66.72 
L 279.36 66.72 
" clip-path="url(#pfdf44d58ce)" style="fill: none; stroke: #b2b2b2; stroke-opacity: 0.35; stroke-width: 0.5; stroke-linecap: square"/>
   </g>
   <g id="line2d_3">
    <path d="M 8.64 46.08 
L 279.36 46.08 
" clip-path="url(#pfdf44d58ce)" style="fill: none; stroke: #b2b2b2; stroke-opacity: 0.35; stroke-width: 0.5; stroke-linecap: square"/>
   </g>
   <g id="line2d_4">
    <path d="M 8.64 25.44 
L 279.36 25.44 
" clip-path="url(#pfdf44d58ce)" style="fill: none; stroke: #b2b2b2; stroke-opacity: 0.35; stroke-width: 0.5; stroke-linecap: square"/>
   </g>
   <g id="line2d_5">
    <path d="M 8.64 101.3436 
L 17.829125 101.05464 
L 27.328337 101.3952 
L 36.707986 101.47776 
L 45.980384 100.86888 
L 55.305058 101.26104 
L 64.677254 100.99272 
L 73.990047 100.61088 
L 83.218918 100.44576 
L 92.673956 100.94112 
L 102.028871 101.09592 
L 111.319738 101.00304 
L 120.622594 100.69344 
L 129.992199 100.9308 
L 139.348734 100.92048 
L 148.569181 100.81728 
L 158.046144 100.8792 
L 167.4785 100.64184 
L 176.829851 101.1888 
L 186.136164 101.09592 
L 195.483626 101.37456 
L 204.917387 101.21976 
L 214.011033 101.20944 
L 223.532279 101.23008 
L 232.860841 100.92048 
L 241.987106 101.06496 
L 251.483294 100.70376 
L 260.81758 100.55928 
L 269.994068 100.53864 
L 279.36 99.60984 
" clip-path="url(#pfdf44d58ce)" style="fill: none; stroke: #bebebe; stroke-width: 0.5; stroke-linecap: round"/>
   </g>
   <g id="line2d_6">
    <path d="M 8.64 87.1536 
L 17.829125 86.21448 
L 27.328337 86.66856 
L 36.707986 87.01944 
L 45.980384 84.44976 
L 55.305058 85.05864 
L 64.677254 84.58392 
L 73.990047 85.04832 
L 83.218918 83.71704 
L 92.673956 84.86256 
L 102.028871 85.6572 
L 111.319738 85.27536 
L 120.622594 84.49104 
L 129.992199 84.86256 
L 139.348734 85.32696 
L 148.569181 85.17216 
L 158.046144 85.31664 
L 167.4785 84.11952 
L 176.829851 85.66752 
L 186.136164 85.26504 
L 195.483626 86.26608 
L 204.917387 85.77072 
L 214.011033 85.38888 
L 223.532279 85.3992 
L 232.860841 84.09888 
L 241.987106 84.22272 
L 251.483294 84.34656 
L 260.81758 85.06896 
L 269.994068 85.7604 
L 279.36 85.0896 
" clip-path="url(#pfdf44d58ce)" style="fill: none; stroke: #4a8dff; stroke-width: 0.6"/>
   </g>
   <g id="line2d_7">
    <path d="M 8.64 99.6408 
L 17.829125 99.1764 
L 27.328337 99.70272 
L 36.707986 99.94008 
L 45.980384 98.57784 
L 55.305058 98.65008 
L 64.677254 98.38176 
L 73.990047 98.48496 
L 83.218918 96.70992 
L 92.673956 98.05152 
L 102.028871 98.48496 
L 111.319738 97.96896 
L 120.622594 96.32808 
L 129.992199 96.20424 
L 139.348734 96.16296 
L 148.569181 96.1836 
L 158.046144 96.50352 
L 167.4785 94.76976 
L 176.829851 97.19496 
L 186.136164 96.9576 
L 195.483626 97.9896 
L 204.917387 96.89568 
L 214.011033 95.45088 
L 223.532279 95.67792 
L 232.860841 93.43848 
L 241.987106 92.90184 
L 251.483294 92.25168 
L 260.81758 92.87088 
L 269.994068 94.2744 
L 279.36 93.1392 
" clip-path="url(#pfdf44d58ce)" style="fill: none; stroke: #f5841e; stroke-width: 0.6"/>
   </g>
  </g>
 </g>
 <defs>
  <clipPath id="pfdf44d58ce">
   <rect x="8.64" y="4.8" width="270.72" height="103.2"/>
  </clipPath>
 </defs>
</svg>
