<?xml version="1.0" encoding="utf-8" standalone="no"?>
<!DOCTYPE svg PUBLIC "-//W3C//DTD SVG 1.1//EN"
  "http://www.w3.org/Graphics/SVG/1.1/DTD/svg11.dtd">
<svg xmlns:xlink="http://www.w3.org/1999/xlink" width="288pt" height="120pt" viewBox="0 0 288 120" xmlns="http://www.w3.org/2000/svg" version="1.1">
<desc id="nav-meta">{"window":"3m","count":4,"labels":["15.03","14.04","13.05","12.06"],"tick_utc":["2026-03-15T03:42:35Z","2026-04-14T03:53:32Z","2026-05-13T04:33:49Z","2026-06-12T05:19:52Z"],"w":720,"h":300}</desc>

 <metadata>
  <rdf:RDF xmlns:dc="http://purl.org/dc/elements/1.1/" xmlns:cc="http://creativecommons.org/ns#" xmlns:rdf="http://www.w3.org/1999/02/22-rdf-syntax-ns#">
   <cc:Work>
    <dc:type rdf:resource="http://purl.org/dc/dcmitype/StillImage"/>
    <dc:date>2026-06-12T15:53:20.331971</dc:date>
    <dc:format>image/svg+xml</dc:format>
    <dc:creator>
     <cc:Agent>
      <dc:title>Matplotlib v3.11.0, https://matplotlib.org/</dc:title>
     </cc:Agent>
    </dc:creator>
   </cc:Work>
  </rdf:RDF>
 </metadata>
 <defs>
  <style type="text/css">*{stroke-linejoin: round; stroke-linecap: butt}</style>
 </defs>
 <g id="figure_1">
  <g id="patch_1">
   <path d="M 0 120 
L 288 120 
L 288 0 
L 0 0 
L 0 120 
z
" style="fill: none; opacity: 0"/>
  </g>
  <g id="axes_1">
   <g id="patch_2">
    <path d="M 8.64 108 
L 279.36 108 
L 279.36 4.8 
L 8.64 4.8 
L 8.64 108 
z
" style="fill: none"/>
   </g>
   <g id="matplotlib.axis_1"/>
   <g id="matplotlib.axis_2"/>
   <g id="line2d_1">
    <path d="M 8.64 87.36 
L 279.36 87.36 
" clip-path="url(#p5cfdb20005)" style="fill: none; stroke: #b2b2b2; stroke-opacity: 0.35; stroke-width: 0.5; stroke-linecap: square"/>
   </g>
   <g id="line2d_2">
    <path d="M 8.64 66.72 
L 279.36 66.72 
" clip-path="url(#p5cfdb20005)" style="fill: none; stroke: #b2b2b2; stroke-opacity: 0.35; stroke-width: 0.5; stroke-linecap: square"/>
   </g>
   <g id="line2d_3">
    <path d="M 8.64 46.08 
L 279.36 46.08 
" clip-path="url(#p5cfdb20005)" style="fill: none; stroke: #b2b2b2; stroke-opacity: 0.35; stroke-width: 0.5; stroke-linecap: square"/>
   </g>
   <g id="line2d_4">
    <path d="M 8.64 25.44 
L 279.36 25.44 
" clip-path="url(#p5cfdb20005)" style="fill: none; stroke: #b2b2b2; stroke-opacity: 0.35; stroke-width: 0.5; stroke-linecap: square"/>
   </g>
   <g id="line2d_5">
    <path d="M 8.64 100.60056 
L 11.688074 99.76464 
L 14.674374 99.49632 
L 17.737047 99.40344 
L 20.777382 100.09488 
L 23.787287 100.3632 
L 26.808977 100.19808 
L 29.893919 100.47672 
L 32.940551 100.79664 
L 35.951898 100.26 
L 39.217767 99.83688 
L 42.067853 100.13616 
L 45.111178 100.80696 
L 48.12161 101.38488 
L 51.202507 101.3436 
L 54.250687 101.292 
L 57.271004 101.28168 
L 60.336563 101.28168 
L 63.336019 101.8596 
L 66.378993 101.88024 
L 69.39245 101.72544 
L 72.477709 101.68416 
L 75.525045 101.47776 
L 78.5448 101.78736 
L 81.589215 101.09592 
L 84.618117 101.46744 
L 87.685575 101.3436 
L 90.678594 101.05464 
L 93.772612 101.3952 
L 96.827687 101.47776 
L 99.847829 100.86888 
L 102.884998 101.26104 
L 105.937645 100.99272 
L 108.970944 100.61088 
L 111.976909 100.44576 
L 115.056539 100.94112 
L 118.103558 101.09592 
L 121.129716 101.00304 
L 124.159778 100.69344 
L 127.211582 100.9308 
L 130.259128 100.92048 
L 133.262349 100.81728 
L 136.34912 100.8792 
L 139.421363 100.64184 
L 142.467221 101.1888 
L 145.498409 101.09592 
L 148.543001 101.37456 
L 151.6157 101.21976 
L 154.577621 101.20944 
L 157.678816 101.23008 
L 160.717251 100.92048 
L 163.689795 101.06496 
L 166.782829 100.70376 
L 169.823128 100.55928 
L 172.812031 100.53864 
L 175.862638 99.60984 
L 178.963376 99.72336 
L 182.026859 99.44472 
L 185.024134 99.25896 
L 188.078083 99.32088 
L 191.114197 100.22904 
L 194.168674 100.01232 
L 197.169361 100.43544 
L 200.254233 100.75536 
L 203.323239 101.02368 
L 206.340954 101.02368 
L 209.391315 101.17848 
L 212.448113 100.7244 
L 215.464315 100.75536 
L 218.462048 101.11656 
L 221.549664 100.91016 
L 224.629153 100.89984 
L 227.622594 101.1372 
L 230.693289 101.2404 
L 233.72307 101.6532 
L 236.764812 101.4984 
L 239.760469 101.48808 
L 242.862016 101.32296 
L 245.946465 101.51904 
L 248.956053 101.7048 
L 252.029738 102.54072 
L 255.058816 103.08768 
L 258.048246 103.36632 
L 261.041019 104.22288 
L 264.145837 103.85136 
L 267.198766 103.68624 
L 270.180246 103.43856 
L 273.251257 103.81008 
L 276.308584 103.72752 
L 279.36 103.50048 
" clip-path="url(#p5cfdb20005)" style="fill: none; stroke: #bebebe; stroke-width: 0.5; stroke-linecap: round"/>
   </g>
   <g id="line2d_6">
    <path d="M 8.64 88.46424 
L 11.688074 86.38992 
L 14.674374 84.80064 
L 17.737047 84.8316 
L 20.777382 86.586 
L 23.787287 87.74184 
L 26.808977 87.618 
L 29.893919 88.19592 
L 32.940551 89.08344 
L 35.951898 87.89664 
L 39.217767 87.3084 
L 42.067853 87.65928 
L 45.111178 88.96992 
L 48.12161 90.07416 
L 51.202507 89.76456 
L 54.250687 89.3724 
L 57.271004 89.00088 
L 60.336563 88.42296 
L 63.336019 88.81512 
L 66.378993 89.10408 
L 69.39245 89.14536 
L 72.477709 89.07312 
L 75.525045 87.9792 
L 78.5448 88.29912 
L 81.589215 86.38992 
L 84.618117 87.24648 
L 87.685575 87.1536 
L 90.678594 86.21448 
L 93.772612 86.66856 
L 96.827687 87.01944 
L 99.847829 84.44976 
L 102.884998 85.05864 
L 105.937645 84.58392 
L 108.970944 85.04832 
L 111.976909 83.71704 
L 115.056539 84.86256 
L 118.103558 85.6572 
L 121.129716 85.27536 
L 124.159778 84.49104 
L 127.211582 84.86256 
L 130.259128 85.32696 
L 133.262349 85.17216 
L 136.34912 85.31664 
L 139.421363 84.11952 
L 142.467221 85.66752 
L 145.498409 85.26504 
L 148.543001 86.26608 
L 151.6157 85.77072 
L 154.577621 85.38888 
L 157.678816 85.3992 
L 160.717251 84.09888 
L 163.689795 84.22272 
L 166.782829 84.34656 
L 169.823128 85.06896 
L 172.812031 85.7604 
L 175.862638 85.0896 
L 178.963376 85.01736 
L 182.026859 84.9348 
L 185.024134 85.296 
L 188.078083 85.35792 
L 191.114197 86.1732 
L 194.168674 85.92552 
L 197.169361 86.55504 
L 200.254233 87.13296 
L 203.323239 88.10304 
L 206.340954 87.9276 
L 209.391315 88.26816 
L 212.448113 87.78312 
L 215.464315 87.95856 
L 218.462048 88.94928 
L 221.549664 88.14432 
L 224.629153 88.33008 
L 227.622594 88.52616 
L 230.693289 88.86672 
L 233.72307 90.22896 
L 236.764812 89.82648 
L 239.760469 89.87808 
L 242.862016 89.46528 
L 245.946465 90.0432 
L 248.956053 89.96064 
L 252.029738 91.99368 
L 255.058816 93.05664 
L 258.048246 93.74808 
L 261.041019 97.02984 
L 264.145837 95.93592 
L 267.198766 95.07936 
L 270.180246 94.46016 
L 273.251257 95.47152 
L 276.308584 95.11032 
L 279.36 94.82136 
" clip-path="url(#p5cfdb20005)" style="fill: none; stroke: #4a8dff; stroke-width: 0.6"/>
   </g>
   <g id="line2d_7">
    <path d="M 8.64 99.81624 
L 11.688074 98.93904 
L 14.674374 98.3508 
L 17.737047 98.52624 
L 20.777382 99.78528 
L 23.787287 100.12584 
L 26.808977 100.03296 
L 29.893919 100.45608 
L 32.940551 100.83792 
L 35.951898 100.11552 
L 39.217767 99.87816 
L 42.067853 100.002 
L 45.111178 100.64184 
L 48.12161 101.41584 
L 51.202507 101.21976 
L 54.250687 101.14752 
L 57.271004 101.00304 
L 60.336563 100.86888 
L 63.336019 101.21976 
L 66.378993 101.28168 
L 69.39245 101.20944 
L 72.477709 101.14752 
L 75.525045 100.55928 
L 78.5448 100.65216 
L 81.589215 99.80592 
L 84.618117 99.96072 
L 87.685575 99.6408 
L 90.678594 99.1764 
L 93.772612 99.70272 
L 96.827687 99.94008 
L 99.847829 98.57784 
L 102.884998 98.65008 
L 105.937645 98.38176 
L 108.970944 98.48496 
L 111.976909 96.70992 
L 115.056539 98.05152 
L 118.103558 98.48496 
L 121.129716 97.96896 
L 124.159778 96.32808 
L 127.211582 96.20424 
L 130.259128 96.16296 
L 133.262349 96.1836 
L 136.34912 96.50352 
L 139.421363 94.76976 
L 142.467221 97.19496 
L 145.498409 96.9576 
L 148.543001 97.9896 
L 151.6157 96.89568 
L 154.577621 95.45088 
L 157.678816 95.67792 
L 160.717251 93.43848 
L 163.689795 92.90184 
L 166.782829 92.25168 
L 169.823128 92.87088 
L 172.812031 94.2744 
L 175.862638 93.1392 
L 178.963376 92.97408 
L 182.026859 92.9844 
L 185.024134 92.60256 
L 188.078083 92.53032 
L 191.114197 94.54272 
L 194.168674 92.85024 
L 197.169361 94.82136 
L 200.254233 95.75016 
L 203.323239 96.97824 
L 206.340954 97.08144 
L 209.391315 97.23624 
L 212.448113 95.94624 
L 215.464315 96.30744 
L 218.462048 98.08248 
L 221.549664 97.2672 
L 224.629153 96.61704 
L 227.622594 97.23624 
L 230.693289 98.08248 
L 233.72307 99.18672 
L 236.764812 99.03192 
L 239.760469 99.1248 
L 242.862016 98.74296 
L 245.946465 99.09384 
L 248.956053 100.0536 
L 252.029738 101.23008 
L 255.058816 101.99376 
L 258.048246 102.08664 
L 261.041019 102.8916 
L 264.145837 102.45816 
L 267.198766 102.28272 
L 270.180246 102.10728 
L 273.251257 102.582 
L 276.308584 102.29304 
L 279.36 102.08664 
" clip-path="url(#p5cfdb20005)" style="fill: none; stroke: #f5841e; stroke-width: 0.6"/>
   </g>
  </g>
 </g>
 <defs>
  <clipPath id="p5cfdb20005">
   <rect x="8.64" y="4.8" width="270.72" height="103.2"/>
  </clipPath>
 </defs>
</svg>
