<?xml version="1.0" encoding="utf-8" standalone="no"?>
<!DOCTYPE svg PUBLIC "-//W3C//DTD SVG 1.1//EN"
  "http://www.w3.org/Graphics/SVG/1.1/DTD/svg11.dtd">
<svg xmlns:xlink="http://www.w3.org/1999/xlink" width="288pt" height="120pt" viewBox="0 0 288 120" xmlns="http://www.w3.org/2000/svg" version="1.1">
<desc id="nav-meta">{"window":"1m","count":4,"labels":["31.03","10.04","19.04","29.04"],"tick_utc":["2026-03-31T03:42:11Z","2026-04-10T03:51:30Z","2026-04-19T03:58:52Z","2026-04-29T04:21:07Z"],"w":720,"h":300}</desc>

 <metadata>
  <rdf:RDF xmlns:dc="http://purl.org/dc/elements/1.1/" xmlns:cc="http://creativecommons.org/ns#" xmlns:rdf="http://www.w3.org/1999/02/22-rdf-syntax-ns#">
   <cc:Work>
    <dc:type rdf:resource="http://purl.org/dc/dcmitype/StillImage"/>
    <dc:date>2026-04-29T20:02:51.072417</dc:date>
    <dc:format>image/svg+xml</dc:format>
    <dc:creator>
     <cc:Agent>
      <dc:title>Matplotlib v3.10.9, https://matplotlib.org/</dc:title>
     </cc:Agent>
    </dc:creator>
   </cc:Work>
  </rdf:RDF>
 </metadata>
 <defs>
  <style type="text/css">*{stroke-linejoin: round; stroke-linecap: butt}</style>
 </defs>
 <g id="figure_1">
  <g id="patch_1">
   <path d="M 0 120 
L 288 120 
L 288 0 
L 0 0 
L 0 120 
z
" style="fill: none; opacity: 0"/>
  </g>
  <g id="axes_1">
   <g id="patch_2">
    <path d="M 8.64 108 
L 279.36 108 
L 279.36 4.8 
L 8.64 4.8 
L 8.64 108 
z
" style="fill: none"/>
   </g>
   <g id="matplotlib.axis_1"/>
   <g id="matplotlib.axis_2"/>
   <g id="line2d_1">
    <path d="M 8.64 87.36 
L 279.36 87.36 
" clip-path="url(#pddc758e801)" style="fill: none; stroke: #b2b2b2; stroke-opacity: 0.35; stroke-width: 0.5; stroke-linecap: square"/>
   </g>
   <g id="line2d_2">
    <path d="M 8.64 66.72 
L 279.36 66.72 
" clip-path="url(#pddc758e801)" style="fill: none; stroke: #b2b2b2; stroke-opacity: 0.35; stroke-width: 0.5; stroke-linecap: square"/>
   </g>
   <g id="line2d_3">
    <path d="M 8.64 46.08 
L 279.36 46.08 
" clip-path="url(#pddc758e801)" style="fill: none; stroke: #b2b2b2; stroke-opacity: 0.35; stroke-width: 0.5; stroke-linecap: square"/>
   </g>
   <g id="line2d_4">
    <path d="M 8.64 25.44 
L 279.36 25.44 
" clip-path="url(#pddc758e801)" style="fill: none; stroke: #b2b2b2; stroke-opacity: 0.35; stroke-width: 0.5; stroke-linecap: square"/>
   </g>
   <g id="line2d_5">
    <path d="M 8.64 101.28168 
L 18.046465 101.28168 
L 27.2501 101.8596 
L 36.587264 101.88024 
L 45.833862 101.72544 
L 55.300776 101.68416 
L 64.651325 101.47776 
L 73.917245 101.78736 
L 83.258834 101.09592 
L 92.55282 101.46744 
L 101.965114 101.3436 
L 111.148995 101.05464 
L 120.642788 101.3952 
L 130.017085 101.47776 
L 139.284192 100.86888 
L 148.603545 101.26104 
L 157.970394 100.99272 
L 167.277872 100.61088 
L 176.501478 100.44576 
L 185.951121 100.94112 
L 195.300698 101.09592 
L 204.586264 101.00304 
L 213.883812 100.69344 
L 223.24807 100.9308 
L 232.599267 100.92048 
L 241.814452 100.81728 
L 251.286008 100.8792 
L 260.712983 100.64184 
L 270.058998 101.1888 
L 279.36 101.09592 
" clip-path="url(#pddc758e801)" style="fill: none; stroke: #bebebe; stroke-width: 0.5; stroke-linecap: round"/>
   </g>
   <g id="line2d_6">
    <path d="M 8.64 89.00088 
L 18.046465 88.42296 
L 27.2501 88.81512 
L 36.587264 89.10408 
L 45.833862 89.14536 
L 55.300776 89.07312 
L 64.651325 87.9792 
L 73.917245 88.29912 
L 83.258834 86.38992 
L 92.55282 87.24648 
L 101.965114 87.1536 
L 111.148995 86.21448 
L 120.642788 86.66856 
L 130.017085 87.01944 
L 139.284192 84.44976 
L 148.603545 85.05864 
L 157.970394 84.58392 
L 167.277872 85.04832 
L 176.501478 83.71704 
L 185.951121 84.86256 
L 195.300698 85.6572 
L 204.586264 85.27536 
L 213.883812 84.49104 
L 223.24807 84.86256 
L 232.599267 85.32696 
L 241.814452 85.17216 
L 251.286008 85.31664 
L 260.712983 84.11952 
L 270.058998 85.66752 
L 279.36 85.26504 
" clip-path="url(#pddc758e801)" style="fill: none; stroke: #4a8dff; stroke-width: 0.6"/>
   </g>
   <g id="line2d_7">
    <path d="M 8.64 101.00304 
L 18.046465 100.86888 
L 27.2501 101.21976 
L 36.587264 101.28168 
L 45.833862 101.20944 
L 55.300776 101.14752 
L 64.651325 100.55928 
L 73.917245 100.65216 
L 83.258834 99.80592 
L 92.55282 99.96072 
L 101.965114 99.6408 
L 111.148995 99.1764 
L 120.642788 99.70272 
L 130.017085 99.94008 
L 139.284192 98.57784 
L 148.603545 98.65008 
L 157.970394 98.38176 
L 167.277872 98.48496 
L 176.501478 96.70992 
L 185.951121 98.05152 
L 195.300698 98.48496 
L 204.586264 97.96896 
L 213.883812 96.32808 
L 223.24807 96.20424 
L 232.599267 96.16296 
L 241.814452 96.1836 
L 251.286008 96.50352 
L 260.712983 94.76976 
L 270.058998 97.19496 
L 279.36 96.9576 
" clip-path="url(#pddc758e801)" style="fill: none; stroke: #f5841e; stroke-width: 0.6"/>
   </g>
  </g>
 </g>
 <defs>
  <clipPath id="pddc758e801">
   <rect x="8.64" y="4.8" width="270.72" height="103.2"/>
  </clipPath>
 </defs>
</svg>
