<?xml version="1.0" encoding="utf-8" standalone="no"?>
<!DOCTYPE svg PUBLIC "-//W3C//DTD SVG 1.1//EN"
  "http://www.w3.org/Graphics/SVG/1.1/DTD/svg11.dtd">
<svg xmlns:xlink="http://www.w3.org/1999/xlink" width="288pt" height="120pt" viewBox="0 0 288 120" xmlns="http://www.w3.org/2000/svg" version="1.1">
<desc id="nav-meta">{"window":"1m","count":4,"labels":["07.06","17.06","26.06","06.07"],"tick_utc":["2026-06-07T05:11:57Z","2026-06-17T05:30:00Z","2026-06-26T04:57:37Z","2026-07-06T04:58:56Z"],"w":720,"h":300}</desc>

 <metadata>
  <rdf:RDF xmlns:dc="http://purl.org/dc/elements/1.1/" xmlns:cc="http://creativecommons.org/ns#" xmlns:rdf="http://www.w3.org/1999/02/22-rdf-syntax-ns#">
   <cc:Work>
    <dc:type rdf:resource="http://purl.org/dc/dcmitype/StillImage"/>
    <dc:date>2026-07-06T11:16:03.858576</dc:date>
    <dc:format>image/svg+xml</dc:format>
    <dc:creator>
     <cc:Agent>
      <dc:title>Matplotlib v3.11.0, https://matplotlib.org/</dc:title>
     </cc:Agent>
    </dc:creator>
   </cc:Work>
  </rdf:RDF>
 </metadata>
 <defs>
  <style type="text/css">*{stroke-linejoin: round; stroke-linecap: butt}</style>
 </defs>
 <g id="figure_1">
  <g id="patch_1">
   <path d="M 0 120 
L 288 120 
L 288 0 
L 0 0 
L 0 120 
z
" style="fill: none; opacity: 0"/>
  </g>
  <g id="axes_1">
   <g id="patch_2">
    <path d="M 8.64 108 
L 279.36 108 
L 279.36 4.8 
L 8.64 4.8 
L 8.64 108 
z
" style="fill: none"/>
   </g>
   <g id="matplotlib.axis_1"/>
   <g id="matplotlib.axis_2"/>
   <g id="line2d_1">
    <path d="M 8.64 87.36 
L 279.36 87.36 
" clip-path="url(#p81b8857265)" style="fill: none; stroke: #b2b2b2; stroke-opacity: 0.35; stroke-width: 0.5; stroke-linecap: square"/>
   </g>
   <g id="line2d_2">
    <path d="M 8.64 66.72 
L 279.36 66.72 
" clip-path="url(#p81b8857265)" style="fill: none; stroke: #b2b2b2; stroke-opacity: 0.35; stroke-width: 0.5; stroke-linecap: square"/>
   </g>
   <g id="line2d_3">
    <path d="M 8.64 46.08 
L 279.36 46.08 
" clip-path="url(#p81b8857265)" style="fill: none; stroke: #b2b2b2; stroke-opacity: 0.35; stroke-width: 0.5; stroke-linecap: square"/>
   </g>
   <g id="line2d_4">
    <path d="M 8.64 25.44 
L 279.36 25.44 
" clip-path="url(#p81b8857265)" style="fill: none; stroke: #b2b2b2; stroke-opacity: 0.35; stroke-width: 0.5; stroke-linecap: square"/>
   </g>
   <g id="line2d_5">
    <path d="M 8.64 103.85136 
L 18.01937 103.68624 
L 27.179229 103.43856 
L 36.614152 103.81008 
L 46.007031 103.72752 
L 55.381753 103.50048 
L 64.65153 103.5108 
L 74.057379 103.31472 
L 83.705867 102.95352 
L 93.097234 102.61296 
L 102.137881 102.6336 
L 111.43122 102.9948 
L 120.989245 103.28376 
L 129.953913 103.01544 
L 139.486323 102.69552 
L 149.09774 102.582 
L 157.877591 102.88128 
L 167.249071 103.15992 
L 176.584668 103.36632 
L 185.970631 103.36632 
L 195.194257 102.81936 
L 204.710348 103.0464 
L 214.115981 102.9432 
L 223.27303 102.59232 
L 232.747726 102.40656 
L 241.922285 102.02472 
L 251.158773 101.68416 
L 260.45665 101.3436 
L 269.931454 101.6532 
L 279.36 101.6532 
" clip-path="url(#p81b8857265)" style="fill: none; stroke: #bebebe; stroke-width: 0.5; stroke-linecap: round"/>
   </g>
   <g id="line2d_6">
    <path d="M 8.64 95.93592 
L 18.01937 95.07936 
L 27.179229 94.46016 
L 36.614152 95.47152 
L 46.007031 95.11032 
L 55.381753 94.82136 
L 64.65153 94.8936 
L 74.057379 94.70784 
L 83.705867 94.04736 
L 93.097234 93.40752 
L 102.137881 92.9844 
L 111.43122 93.93384 
L 120.989245 94.4292 
L 129.953913 94.19184 
L 139.486323 93.87192 
L 149.09774 93.81 
L 157.877591 94.03704 
L 167.249071 94.83168 
L 176.584668 95.48184 
L 185.970631 96.63768 
L 195.194257 96.14232 
L 204.710348 96.30744 
L 214.115981 96.29712 
L 223.27303 96.04944 
L 232.747726 95.9256 
L 241.922285 95.39928 
L 251.158773 94.31568 
L 260.45665 93.57264 
L 269.931454 93.32496 
L 279.36 93.22176 
" clip-path="url(#p81b8857265)" style="fill: none; stroke: #4a8dff; stroke-width: 0.6"/>
   </g>
   <g id="line2d_7">
    <path d="M 8.64 102.45816 
L 18.01937 102.28272 
L 27.179229 102.10728 
L 36.614152 102.582 
L 46.007031 102.29304 
L 55.381753 102.08664 
L 64.65153 102.066 
L 74.057379 101.86992 
L 83.705867 101.48808 
L 93.097234 101.40552 
L 102.137881 101.4984 
L 111.43122 101.97312 
L 120.989245 102.26208 
L 129.953913 102.066 
L 139.486323 101.90088 
L 149.09774 101.90088 
L 157.877591 102.0144 
L 167.249071 102.25176 
L 176.584668 102.6336 
L 185.970631 102.88128 
L 195.194257 102.77808 
L 204.710348 102.85032 
L 214.115981 102.93288 
L 223.27303 102.95352 
L 232.747726 103.00512 
L 241.922285 102.69552 
L 251.158773 102.55104 
L 260.45665 102.2724 
L 269.931454 102.21048 
L 279.36 102.12792 
" clip-path="url(#p81b8857265)" style="fill: none; stroke: #f5841e; stroke-width: 0.6"/>
   </g>
  </g>
 </g>
 <defs>
  <clipPath id="p81b8857265">
   <rect x="8.64" y="4.8" width="270.72" height="103.2"/>
  </clipPath>
 </defs>
</svg>
