<?xml version="1.0" encoding="utf-8" standalone="no"?>
<!DOCTYPE svg PUBLIC "-//W3C//DTD SVG 1.1//EN"
  "http://www.w3.org/Graphics/SVG/1.1/DTD/svg11.dtd">
<svg xmlns:xlink="http://www.w3.org/1999/xlink" width="288pt" height="120pt" viewBox="0 0 288 120" xmlns="http://www.w3.org/2000/svg" version="1.1">
<desc id="nav-meta">{"window":"1m","count":4,"labels":["29.03","08.04","17.04","27.04"],"tick_utc":["2026-03-29T03:47:09Z","2026-04-08T03:43:16Z","2026-04-17T03:55:44Z","2026-04-27T04:22:02Z"],"w":720,"h":300}</desc>

 <metadata>
  <rdf:RDF xmlns:dc="http://purl.org/dc/elements/1.1/" xmlns:cc="http://creativecommons.org/ns#" xmlns:rdf="http://www.w3.org/1999/02/22-rdf-syntax-ns#">
   <cc:Work>
    <dc:type rdf:resource="http://purl.org/dc/dcmitype/StillImage"/>
    <dc:date>2026-04-27T14:36:37.104753</dc:date>
    <dc:format>image/svg+xml</dc:format>
    <dc:creator>
     <cc:Agent>
      <dc:title>Matplotlib v3.10.9, https://matplotlib.org/</dc:title>
     </cc:Agent>
    </dc:creator>
   </cc:Work>
  </rdf:RDF>
 </metadata>
 <defs>
  <style type="text/css">*{stroke-linejoin: round; stroke-linecap: butt}</style>
 </defs>
 <g id="figure_1">
  <g id="patch_1">
   <path d="M 0 120 
L 288 120 
L 288 0 
L 0 0 
L 0 120 
z
" style="fill: none; opacity: 0"/>
  </g>
  <g id="axes_1">
   <g id="patch_2">
    <path d="M 8.64 108 
L 279.36 108 
L 279.36 4.8 
L 8.64 4.8 
L 8.64 108 
z
" style="fill: none"/>
   </g>
   <g id="matplotlib.axis_1"/>
   <g id="matplotlib.axis_2"/>
   <g id="line2d_1">
    <path d="M 8.64 87.36 
L 279.36 87.36 
" clip-path="url(#p77f334184d)" style="fill: none; stroke: #b2b2b2; stroke-opacity: 0.35; stroke-width: 0.5; stroke-linecap: square"/>
   </g>
   <g id="line2d_2">
    <path d="M 8.64 66.72 
L 279.36 66.72 
" clip-path="url(#p77f334184d)" style="fill: none; stroke: #b2b2b2; stroke-opacity: 0.35; stroke-width: 0.5; stroke-linecap: square"/>
   </g>
   <g id="line2d_3">
    <path d="M 8.64 46.08 
L 279.36 46.08 
" clip-path="url(#p77f334184d)" style="fill: none; stroke: #b2b2b2; stroke-opacity: 0.35; stroke-width: 0.5; stroke-linecap: square"/>
   </g>
   <g id="line2d_4">
    <path d="M 8.64 25.44 
L 279.36 25.44 
" clip-path="url(#p77f334184d)" style="fill: none; stroke: #b2b2b2; stroke-opacity: 0.35; stroke-width: 0.5; stroke-linecap: square"/>
   </g>
   <g id="line2d_5">
    <path d="M 8.64 101.3436 
L 17.994046 101.292 
L 27.262591 101.28168 
L 36.669967 101.28168 
L 45.874495 101.8596 
L 55.212563 101.88024 
L 64.460057 101.72544 
L 73.927888 101.68416 
L 83.279344 101.47776 
L 92.546161 101.78736 
L 101.888656 101.09592 
L 111.183542 101.46744 
L 120.596748 101.3436 
L 129.78152 101.05464 
L 139.276232 101.3952 
L 148.651438 101.47776 
L 157.919443 100.86888 
L 167.239699 101.26104 
L 176.607455 100.99272 
L 185.915836 100.61088 
L 195.140335 100.44576 
L 204.590894 100.94112 
L 213.941377 101.09592 
L 223.227843 101.00304 
L 232.526292 100.69344 
L 241.891457 100.9308 
L 251.24356 100.92048 
L 260.459639 100.81728 
L 269.932112 100.8792 
L 279.36 100.64184 
" clip-path="url(#p77f334184d)" style="fill: none; stroke: #bebebe; stroke-width: 0.5; stroke-linecap: round"/>
   </g>
   <g id="line2d_6">
    <path d="M 8.64 89.76456 
L 17.994046 89.3724 
L 27.262591 89.00088 
L 36.669967 88.42296 
L 45.874495 88.81512 
L 55.212563 89.10408 
L 64.460057 89.14536 
L 73.927888 89.07312 
L 83.279344 87.9792 
L 92.546161 88.29912 
L 101.888656 86.38992 
L 111.183542 87.24648 
L 120.596748 87.1536 
L 129.78152 86.21448 
L 139.276232 86.66856 
L 148.651438 87.01944 
L 157.919443 84.44976 
L 167.239699 85.05864 
L 176.607455 84.58392 
L 185.915836 85.04832 
L 195.140335 83.71704 
L 204.590894 84.86256 
L 213.941377 85.6572 
L 223.227843 85.27536 
L 232.526292 84.49104 
L 241.891457 84.86256 
L 251.24356 85.32696 
L 260.459639 85.17216 
L 269.932112 85.31664 
L 279.36 84.11952 
" clip-path="url(#p77f334184d)" style="fill: none; stroke: #4a8dff; stroke-width: 0.6"/>
   </g>
   <g id="line2d_7">
    <path d="M 8.64 101.21976 
L 17.994046 101.14752 
L 27.262591 101.00304 
L 36.669967 100.86888 
L 45.874495 101.21976 
L 55.212563 101.28168 
L 64.460057 101.20944 
L 73.927888 101.14752 
L 83.279344 100.55928 
L 92.546161 100.65216 
L 101.888656 99.80592 
L 111.183542 99.96072 
L 120.596748 99.6408 
L 129.78152 99.1764 
L 139.276232 99.70272 
L 148.651438 99.94008 
L 157.919443 98.57784 
L 167.239699 98.65008 
L 176.607455 98.38176 
L 185.915836 98.48496 
L 195.140335 96.70992 
L 204.590894 98.05152 
L 213.941377 98.48496 
L 223.227843 97.96896 
L 232.526292 96.32808 
L 241.891457 96.20424 
L 251.24356 96.16296 
L 260.459639 96.1836 
L 269.932112 96.50352 
L 279.36 94.76976 
" clip-path="url(#p77f334184d)" style="fill: none; stroke: #f5841e; stroke-width: 0.6"/>
   </g>
  </g>
 </g>
 <defs>
  <clipPath id="p77f334184d">
   <rect x="8.64" y="4.8" width="270.72" height="103.2"/>
  </clipPath>
 </defs>
</svg>
