<?xml version="1.0" encoding="utf-8" standalone="no"?>
<!DOCTYPE svg PUBLIC "-//W3C//DTD SVG 1.1//EN"
  "http://www.w3.org/Graphics/SVG/1.1/DTD/svg11.dtd">
<svg xmlns:xlink="http://www.w3.org/1999/xlink" width="288pt" height="120pt" viewBox="0 0 288 120" xmlns="http://www.w3.org/2000/svg" version="1.1">
<desc id="nav-meta">{"window":"3m","count":4,"labels":["01.02","03.03","01.04","01.05"],"tick_utc":["2026-02-01T12:00:00Z","2026-03-03T03:22:17Z","2026-04-01T03:54:32Z","2026-05-01T04:39:16Z"],"w":720,"h":300}</desc>

 <metadata>
  <rdf:RDF xmlns:dc="http://purl.org/dc/elements/1.1/" xmlns:cc="http://creativecommons.org/ns#" xmlns:rdf="http://www.w3.org/1999/02/22-rdf-syntax-ns#">
   <cc:Work>
    <dc:type rdf:resource="http://purl.org/dc/dcmitype/StillImage"/>
    <dc:date>2026-05-01T19:50:05.991633</dc:date>
    <dc:format>image/svg+xml</dc:format>
    <dc:creator>
     <cc:Agent>
      <dc:title>Matplotlib v3.10.9, https://matplotlib.org/</dc:title>
     </cc:Agent>
    </dc:creator>
   </cc:Work>
  </rdf:RDF>
 </metadata>
 <defs>
  <style type="text/css">*{stroke-linejoin: round; stroke-linecap: butt}</style>
 </defs>
 <g id="figure_1">
  <g id="patch_1">
   <path d="M 0 120 
L 288 120 
L 288 0 
L 0 0 
L 0 120 
z
" style="fill: none; opacity: 0"/>
  </g>
  <g id="axes_1">
   <g id="patch_2">
    <path d="M 8.64 108 
L 279.36 108 
L 279.36 4.8 
L 8.64 4.8 
L 8.64 108 
z
" style="fill: none"/>
   </g>
   <g id="matplotlib.axis_1"/>
   <g id="matplotlib.axis_2"/>
   <g id="line2d_1">
    <path d="M 8.64 87.36 
L 279.36 87.36 
" clip-path="url(#pae67026901)" style="fill: none; stroke: #b2b2b2; stroke-opacity: 0.35; stroke-width: 0.5; stroke-linecap: square"/>
   </g>
   <g id="line2d_2">
    <path d="M 8.64 66.72 
L 279.36 66.72 
" clip-path="url(#pae67026901)" style="fill: none; stroke: #b2b2b2; stroke-opacity: 0.35; stroke-width: 0.5; stroke-linecap: square"/>
   </g>
   <g id="line2d_3">
    <path d="M 8.64 46.08 
L 279.36 46.08 
" clip-path="url(#pae67026901)" style="fill: none; stroke: #b2b2b2; stroke-opacity: 0.35; stroke-width: 0.5; stroke-linecap: square"/>
   </g>
   <g id="line2d_4">
    <path d="M 8.64 25.44 
L 279.36 25.44 
" clip-path="url(#pae67026901)" style="fill: none; stroke: #b2b2b2; stroke-opacity: 0.35; stroke-width: 0.5; stroke-linecap: square"/>
   </g>
   <g id="line2d_5">
    <path d="M 8.64 97.71096 
L 11.692294 98.48496 
L 14.744589 97.85544 
L 17.321411 99.10416 
L 19.747031 100.16712 
L 22.797771 102.23112 
L 25.836994 100.54896 
L 28.95906 100.70376 
L 31.986166 100.68312 
L 35.055877 100.95144 
L 38.101848 101.28168 
L 41.143155 101.71512 
L 44.194531 101.84928 
L 47.21012 101.034 
L 50.101357 100.54896 
L 53.349436 101.04432 
L 56.018321 100.81728 
L 59.449185 101.034 
L 62.49777 101.4984 
L 65.532224 101.33328 
L 68.565865 101.1372 
L 71.653028 101.06496 
L 74.714507 102.09696 
L 77.508946 102.05568 
L 80.808109 101.4984 
L 83.846803 100.60056 
L 86.893303 100.80696 
L 89.909634 101.45712 
L 93.031276 100.55928 
L 96.052059 101.10624 
L 99.111454 100.8792 
L 102.14665 100.74504 
L 105.205515 100.21872 
L 108.256361 100.53864 
L 111.285233 101.07528 
L 114.367167 101.38488 
L 117.428612 101.26104 
L 120.461299 100.78632 
L 123.512392 100.91016 
L 126.576698 100.99272 
L 129.623093 100.38384 
L 132.671325 100.50768 
L 135.782015 100.60056 
L 138.84293 99.76464 
L 141.841809 99.49632 
L 144.917384 99.40344 
L 147.970526 100.09488 
L 150.99311 100.3632 
L 154.027529 100.19808 
L 157.125466 100.47672 
L 160.184932 100.79664 
L 163.208965 100.26 
L 166.488591 99.83688 
L 169.350683 100.13616 
L 172.406828 100.80696 
L 175.429942 101.38488 
L 178.523816 101.3436 
L 181.584837 101.292 
L 184.617878 101.28168 
L 187.69635 101.28168 
L 190.708441 101.8596 
L 193.764233 101.88024 
L 196.790385 101.72544 
L 199.888641 101.68416 
L 202.948813 101.47776 
L 205.981289 101.78736 
L 209.038529 101.09592 
L 212.08019 101.46744 
L 215.160569 101.3436 
L 218.166196 101.05464 
L 221.273248 101.3952 
L 224.341193 101.47776 
L 227.374057 100.86888 
L 230.42402 101.26104 
L 233.489527 100.99272 
L 236.535603 100.61088 
L 239.554231 100.44576 
L 242.646834 100.94112 
L 245.706688 101.09592 
L 248.745593 101.00304 
L 251.78842 100.69344 
L 254.853079 100.9308 
L 257.913463 100.92048 
L 260.929335 100.81728 
L 264.02911 100.8792 
L 267.114294 100.64184 
L 270.172983 101.1888 
L 273.21694 101.09592 
L 276.274356 101.37456 
L 279.36 101.21976 
" clip-path="url(#pae67026901)" style="fill: none; stroke: #bebebe; stroke-width: 0.5; stroke-linecap: round"/>
   </g>
   <g id="line2d_6">
    <path d="M 8.64 83.31456 
L 11.692294 85.90488 
L 14.744589 84.79032 
L 17.321411 85.84296 
L 19.747031 88.25784 
L 22.797771 91.41576 
L 25.836994 88.7532 
L 28.95906 88.65 
L 31.986166 88.55712 
L 35.055877 88.96992 
L 38.101848 89.7336 
L 41.143155 90.456 
L 44.194531 90.56952 
L 47.21012 89.15568 
L 50.101357 88.9596 
L 53.349436 90.6624 
L 56.018321 89.94 
L 59.449185 90.00192 
L 62.49777 90.3528 
L 65.532224 90.62112 
L 68.565865 90.5076 
L 71.653028 90.3528 
L 74.714507 92.004 
L 77.508946 92.13816 
L 80.808109 91.25064 
L 83.846803 89.166 
L 86.893303 89.56848 
L 89.909634 90.93072 
L 93.031276 89.41368 
L 96.052059 90.37344 
L 99.111454 89.79552 
L 102.14665 90.23928 
L 105.205515 88.0824 
L 108.256361 88.7532 
L 111.285233 90.16704 
L 114.367167 90.67272 
L 117.428612 90.18768 
L 120.461299 89.2692 
L 123.512392 89.54784 
L 126.576698 89.49624 
L 129.623093 88.31976 
L 132.671325 88.45392 
L 135.782015 88.46424 
L 138.84293 86.38992 
L 141.841809 84.80064 
L 144.917384 84.8316 
L 147.970526 86.586 
L 150.99311 87.74184 
L 154.027529 87.618 
L 157.125466 88.19592 
L 160.184932 89.08344 
L 163.208965 87.89664 
L 166.488591 87.3084 
L 169.350683 87.65928 
L 172.406828 88.96992 
L 175.429942 90.07416 
L 178.523816 89.76456 
L 181.584837 89.3724 
L 184.617878 89.00088 
L 187.69635 88.42296 
L 190.708441 88.81512 
L 193.764233 89.10408 
L 196.790385 89.14536 
L 199.888641 89.07312 
L 202.948813 87.9792 
L 205.981289 88.29912 
L 209.038529 86.38992 
L 212.08019 87.24648 
L 215.160569 87.1536 
L 218.166196 86.21448 
L 221.273248 86.66856 
L 224.341193 87.01944 
L 227.374057 84.44976 
L 230.42402 85.05864 
L 233.489527 84.58392 
L 236.535603 85.04832 
L 239.554231 83.71704 
L 242.646834 84.86256 
L 245.706688 85.6572 
L 248.745593 85.27536 
L 251.78842 84.49104 
L 254.853079 84.86256 
L 257.913463 85.32696 
L 260.929335 85.17216 
L 264.02911 85.31664 
L 267.114294 84.11952 
L 270.172983 85.66752 
L 273.21694 85.26504 
L 276.274356 86.26608 
L 279.36 85.77072 
" clip-path="url(#pae67026901)" style="fill: none; stroke: #4a8dff; stroke-width: 0.6"/>
   </g>
   <g id="line2d_7">
    <path d="M 8.64 95.14128 
L 11.692294 96.98856 
L 14.744589 95.08968 
L 17.321411 97.71096 
L 19.747031 99.80592 
L 22.797771 101.79768 
L 25.836994 100.03296 
L 28.95906 100.518 
L 31.986166 99.98136 
L 35.055877 100.49736 
L 38.101848 100.78632 
L 41.143155 101.07528 
L 44.194531 101.26104 
L 47.21012 100.63152 
L 50.101357 100.38384 
L 53.349436 100.84824 
L 56.018321 100.65216 
L 59.449185 101.034 
L 62.49777 101.19912 
L 65.532224 101.10624 
L 68.565865 100.97208 
L 71.653028 100.91016 
L 74.714507 101.7564 
L 77.508946 101.84928 
L 80.808109 101.56032 
L 83.846803 100.85856 
L 86.893303 101.12688 
L 89.909634 101.4468 
L 93.031276 101.02368 
L 96.052059 101.30232 
L 99.111454 100.81728 
L 102.14665 100.79664 
L 105.205515 99.3312 
L 108.256361 99.92976 
L 111.285233 100.78632 
L 114.367167 101.17848 
L 117.428612 101.1372 
L 120.461299 100.21872 
L 123.512392 100.37352 
L 126.576698 100.4664 
L 129.623093 99.88848 
L 132.671325 99.94008 
L 135.782015 99.81624 
L 138.84293 98.93904 
L 141.841809 98.3508 
L 144.917384 98.52624 
L 147.970526 99.78528 
L 150.99311 100.12584 
L 154.027529 100.03296 
L 157.125466 100.45608 
L 160.184932 100.83792 
L 163.208965 100.11552 
L 166.488591 99.87816 
L 169.350683 100.002 
L 172.406828 100.64184 
L 175.429942 101.41584 
L 178.523816 101.21976 
L 181.584837 101.14752 
L 184.617878 101.00304 
L 187.69635 100.86888 
L 190.708441 101.21976 
L 193.764233 101.28168 
L 196.790385 101.20944 
L 199.888641 101.14752 
L 202.948813 100.55928 
L 205.981289 100.65216 
L 209.038529 99.80592 
L 212.08019 99.96072 
L 215.160569 99.6408 
L 218.166196 99.1764 
L 221.273248 99.70272 
L 224.341193 99.94008 
L 227.374057 98.57784 
L 230.42402 98.65008 
L 233.489527 98.38176 
L 236.535603 98.48496 
L 239.554231 96.70992 
L 242.646834 98.05152 
L 245.706688 98.48496 
L 248.745593 97.96896 
L 251.78842 96.32808 
L 254.853079 96.20424 
L 257.913463 96.16296 
L 260.929335 96.1836 
L 264.02911 96.50352 
L 267.114294 94.76976 
L 270.172983 97.19496 
L 273.21694 96.9576 
L 276.274356 97.9896 
L 279.36 96.89568 
" clip-path="url(#pae67026901)" style="fill: none; stroke: #f5841e; stroke-width: 0.6"/>
   </g>
  </g>
 </g>
 <defs>
  <clipPath id="pae67026901">
   <rect x="8.64" y="4.8" width="270.72" height="103.2"/>
  </clipPath>
 </defs>
</svg>
