<?xml version="1.0" encoding="utf-8" standalone="no"?>
<!DOCTYPE svg PUBLIC "-//W3C//DTD SVG 1.1//EN"
  "http://www.w3.org/Graphics/SVG/1.1/DTD/svg11.dtd">
<svg xmlns:xlink="http://www.w3.org/1999/xlink" width="288pt" height="120pt" viewBox="0 0 288 120" xmlns="http://www.w3.org/2000/svg" version="1.1">
<desc id="nav-meta">{"window":"3m","count":4,"labels":["09.11","09.12","07.01","06.02"],"tick_utc":["2025-11-09T12:00:00Z","2025-12-09T12:00:00Z","2026-01-07T12:00:00Z","2026-02-06T03:19:18Z"],"w":720,"h":300}</desc>

 <metadata>
  <rdf:RDF xmlns:dc="http://purl.org/dc/elements/1.1/" xmlns:cc="http://creativecommons.org/ns#" xmlns:rdf="http://www.w3.org/1999/02/22-rdf-syntax-ns#">
   <cc:Work>
    <dc:type rdf:resource="http://purl.org/dc/dcmitype/StillImage"/>
    <dc:date>2026-02-06T19:26:26.401418</dc:date>
    <dc:format>image/svg+xml</dc:format>
    <dc:creator>
     <cc:Agent>
      <dc:title>Matplotlib v3.10.8, https://matplotlib.org/</dc:title>
     </cc:Agent>
    </dc:creator>
   </cc:Work>
  </rdf:RDF>
 </metadata>
 <defs>
  <style type="text/css">*{stroke-linejoin: round; stroke-linecap: butt}</style>
 </defs>
 <g id="figure_1">
  <g id="patch_1">
   <path d="M 0 120 
L 288 120 
L 288 0 
L 0 0 
L 0 120 
z
" style="fill: none; opacity: 0"/>
  </g>
  <g id="axes_1">
   <g id="patch_2">
    <path d="M 8.64 108 
L 279.36 108 
L 279.36 4.8 
L 8.64 4.8 
L 8.64 108 
z
" style="fill: none"/>
   </g>
   <g id="matplotlib.axis_1"/>
   <g id="matplotlib.axis_2"/>
   <g id="line2d_1">
    <path d="M 8.64 87.36 
L 279.36 87.36 
" clip-path="url(#pc9382c521f)" style="fill: none; stroke: #b2b2b2; stroke-opacity: 0.35; stroke-width: 0.5; stroke-linecap: square"/>
   </g>
   <g id="line2d_2">
    <path d="M 8.64 66.72 
L 279.36 66.72 
" clip-path="url(#pc9382c521f)" style="fill: none; stroke: #b2b2b2; stroke-opacity: 0.35; stroke-width: 0.5; stroke-linecap: square"/>
   </g>
   <g id="line2d_3">
    <path d="M 8.64 46.08 
L 279.36 46.08 
" clip-path="url(#pc9382c521f)" style="fill: none; stroke: #b2b2b2; stroke-opacity: 0.35; stroke-width: 0.5; stroke-linecap: square"/>
   </g>
   <g id="line2d_4">
    <path d="M 8.64 25.44 
L 279.36 25.44 
" clip-path="url(#pc9382c521f)" style="fill: none; stroke: #b2b2b2; stroke-opacity: 0.35; stroke-width: 0.5; stroke-linecap: square"/>
   </g>
   <g id="line2d_5">
    <path d="M 8.64 83.29392 
L 11.694207 81.62208 
L 14.748413 80.72424 
L 17.80262 84.33624 
L 20.856827 84.64584 
L 23.911033 86.844 
L 26.96524 88.52616 
L 30.019447 88.36104 
L 33.073653 88.93896 
L 36.12786 90.79656 
L 39.182067 88.09272 
L 42.236273 89.22792 
L 45.29048 90.00192 
L 48.344687 91.39512 
L 51.398893 91.63248 
L 54.4531 90.75528 
L 57.507307 88.7016 
L 60.561513 88.52616 
L 63.61572 87.45288 
L 66.669927 88.0308 
L 69.724133 88.94928 
L 72.77834 89.3208 
L 75.832546 89.7336 
L 78.886753 91.86984 
L 81.94096 88.60872 
L 84.995166 86.87496 
L 88.049373 88.52616 
L 91.10358 90.11544 
L 94.157786 90.38376 
L 97.211993 90.53856 
L 100.2662 90.08448 
L 103.320406 88.79448 
L 106.374613 89.20728 
L 109.42882 89.22792 
L 112.483026 90.31152 
L 115.537233 90.10512 
L 118.59144 91.09584 
L 121.645646 91.61184 
L 124.699853 91.31256 
L 127.75406 92.87088 
L 130.808266 93.8616 
L 133.862473 92.02464 
L 136.91668 92.13816 
L 139.970886 92.07624 
L 143.025093 92.14848 
L 146.0793 92.64384 
L 149.133506 93.01536 
L 152.187713 93.69648 
L 155.24192 93.11856 
L 158.296126 92.44776 
L 161.350333 92.30328 
L 164.40454 92.87088 
L 167.458746 92.38584 
L 170.512953 92.47872 
L 173.56716 91.88016 
L 176.621366 90.42504 
L 179.675573 90.08448 
L 182.72978 89.92968 
L 185.783986 88.76352 
L 188.838193 87.94824 
L 191.8924 89.2692 
L 194.946606 88.72224 
L 198.000813 89.39304 
L 201.05502 89.40336 
L 204.109226 88.41264 
L 207.163433 88.4952 
L 210.217639 86.86464 
L 213.271846 86.42088 
L 216.326053 87.62832 
L 219.380259 86.93688 
L 222.434466 87.23616 
L 225.488673 88.63968 
L 228.542879 90.0432 
L 231.597086 92.12784 
L 234.651293 91.16808 
L 237.705499 91.46736 
L 240.759706 91.73568 
L 243.813913 91.78728 
L 246.868119 94.0164 
L 249.922326 92.5716 
L 252.976533 91.76664 
L 256.030739 92.33424 
L 259.084946 94.36728 
L 262.139153 94.46016 
L 265.193359 97.71096 
L 268.247566 98.48496 
L 271.301773 97.85544 
L 273.880209 99.10416 
L 276.307349 100.16712 
L 279.36 102.23112 
" clip-path="url(#pc9382c521f)" style="fill: none; stroke: #bebebe; stroke-width: 0.5; stroke-linecap: round"/>
   </g>
   <g id="line2d_6">
    <path d="M 8.64 69.11424 
L 11.694207 66.5136 
L 14.748413 66.68904 
L 17.80262 68.8872 
L 20.856827 68.9904 
L 23.911033 71.5704 
L 26.96524 73.48992 
L 30.019447 72.54048 
L 33.073653 73.56216 
L 36.12786 74.74896 
L 39.182067 73.3248 
L 42.236273 74.80056 
L 45.29048 77.556 
L 48.344687 78.55704 
L 51.398893 78.50544 
L 54.4531 78.04104 
L 57.507307 75.76032 
L 60.561513 75.73968 
L 63.61572 74.65608 
L 66.669927 74.83152 
L 69.724133 74.57352 
L 72.77834 75.20304 
L 75.832546 75.17208 
L 78.886753 78.05136 
L 81.94096 75.1308 
L 84.995166 72.16896 
L 88.049373 73.08744 
L 91.10358 74.72832 
L 94.157786 74.48064 
L 97.211993 74.28456 
L 100.2662 73.21128 
L 103.320406 70.2804 
L 106.374613 70.2288 
L 109.42882 71.56008 
L 112.483026 73.79952 
L 115.537233 73.35576 
L 118.59144 74.0988 
L 121.645646 75.5952 
L 124.699853 75.5952 
L 127.75406 77.61792 
L 130.808266 77.63856 
L 133.862473 75.40944 
L 136.91668 75.40944 
L 139.970886 75.04824 
L 143.025093 74.98632 
L 146.0793 75.58488 
L 149.133506 75.87384 
L 152.187713 76.49304 
L 155.24192 76.15248 
L 158.296126 75.82224 
L 161.350333 75.84288 
L 164.40454 76.03896 
L 167.458746 75.51264 
L 170.512953 75.56424 
L 173.56716 75.05856 
L 176.621366 73.26288 
L 179.675573 73.20096 
L 182.72978 73.00488 
L 185.783986 71.68392 
L 188.838193 70.6932 
L 191.8924 72.62304 
L 194.946606 73.52088 
L 198.000813 73.83048 
L 201.05502 73.8408 
L 204.109226 73.29384 
L 207.163433 73.72728 
L 210.217639 70.32168 
L 213.271846 69.77472 
L 216.326053 70.34232 
L 219.380259 70.67256 
L 222.434466 70.51776 
L 225.488673 70.848 
L 228.542879 72.31344 
L 231.597086 76.01832 
L 234.651293 75.41976 
L 237.705499 75.83256 
L 240.759706 75.79128 
L 243.813913 75.82224 
L 246.868119 77.82432 
L 249.922326 76.14216 
L 252.976533 74.75928 
L 256.030739 74.96568 
L 259.084946 77.75208 
L 262.139153 79.48584 
L 265.193359 83.31456 
L 268.247566 85.90488 
L 271.301773 84.79032 
L 273.880209 85.84296 
L 276.307349 88.25784 
L 279.36 91.41576 
" clip-path="url(#pc9382c521f)" style="fill: none; stroke: #4a8dff; stroke-width: 0.6"/>
   </g>
   <g id="line2d_7">
    <path d="M 8.64 70.72416 
L 11.694207 68.2164 
L 14.748413 66.978 
L 17.80262 70.03272 
L 20.856827 71.5188 
L 23.911033 73.3764 
L 26.96524 78.846 
L 30.019447 77.75208 
L 33.073653 78.88728 
L 36.12786 81.34344 
L 39.182067 80.53848 
L 42.236273 82.0452 
L 45.29048 86.92656 
L 48.344687 88.58808 
L 51.398893 88.96992 
L 54.4531 86.7924 
L 57.507307 85.296 
L 60.561513 86.24544 
L 63.61572 82.96368 
L 66.669927 82.13808 
L 69.724133 82.47864 
L 72.77834 82.58184 
L 75.832546 83.03592 
L 78.886753 87.3084 
L 81.94096 82.06584 
L 84.995166 79.71288 
L 88.049373 81.24024 
L 91.10358 84.17112 
L 94.157786 84.24336 
L 97.211993 83.29392 
L 100.2662 82.8192 
L 103.320406 80.64168 
L 106.374613 81.38472 
L 109.42882 80.87904 
L 112.483026 83.13912 
L 115.537233 83.19072 
L 118.59144 85.296 
L 121.645646 87.17424 
L 124.699853 85.71912 
L 127.75406 87.53544 
L 130.808266 88.17528 
L 133.862473 85.41984 
L 136.91668 85.17216 
L 139.970886 84.9348 
L 143.025093 85.01736 
L 146.0793 86.14224 
L 149.133506 85.90488 
L 152.187713 86.328 
L 155.24192 86.24544 
L 158.296126 85.72944 
L 161.350333 85.7088 
L 164.40454 86.40024 
L 167.458746 85.09992 
L 170.512953 86.02872 
L 173.56716 84.78 
L 176.621366 83.53128 
L 179.675573 82.83984 
L 182.72978 82.03488 
L 185.783986 79.39296 
L 188.838193 79.66128 
L 191.8924 82.15872 
L 194.946606 82.43736 
L 198.000813 82.93272 
L 201.05502 83.00496 
L 204.109226 82.6128 
L 207.163433 82.28256 
L 210.217639 78.01008 
L 213.271846 76.19376 
L 216.326053 77.66952 
L 219.380259 77.74176 
L 222.434466 78.1752 
L 225.488673 79.5684 
L 228.542879 80.8068 
L 231.597086 85.20312 
L 234.651293 84.12984 
L 237.705499 84.03696 
L 240.759706 84.06792 
L 243.813913 84.3156 
L 246.868119 87.02976 
L 249.922326 85.21344 
L 252.976533 84.28464 
L 256.030739 84.32592 
L 259.084946 89.08344 
L 262.139153 89.5272 
L 265.193359 95.14128 
L 268.247566 96.98856 
L 271.301773 95.08968 
L 273.880209 97.71096 
L 276.307349 99.80592 
L 279.36 101.79768 
" clip-path="url(#pc9382c521f)" style="fill: none; stroke: #f5841e; stroke-width: 0.6"/>
   </g>
  </g>
 </g>
 <defs>
  <clipPath id="pc9382c521f">
   <rect x="8.64" y="4.8" width="270.72" height="103.2"/>
  </clipPath>
 </defs>
</svg>
