<?xml version="1.0" encoding="utf-8" standalone="no"?>
<!DOCTYPE svg PUBLIC "-//W3C//DTD SVG 1.1//EN"
  "http://www.w3.org/Graphics/SVG/1.1/DTD/svg11.dtd">
<svg xmlns:xlink="http://www.w3.org/1999/xlink" width="288pt" height="120pt" viewBox="0 0 288 120" xmlns="http://www.w3.org/2000/svg" version="1.1">
<desc id="nav-meta">{"window":"1m","count":4,"labels":["15.06","25.06","04.07","14.07"],"tick_utc":["2026-06-15T06:07:39Z","2026-06-25T04:50:14Z","2026-07-04T04:23:54Z","2026-07-14T03:47:28Z"],"w":720,"h":300}</desc>

 <metadata>
  <rdf:RDF xmlns:dc="http://purl.org/dc/elements/1.1/" xmlns:cc="http://creativecommons.org/ns#" xmlns:rdf="http://www.w3.org/1999/02/22-rdf-syntax-ns#">
   <cc:Work>
    <dc:type rdf:resource="http://purl.org/dc/dcmitype/StillImage"/>
    <dc:date>2026-07-14T19:54:35.413263</dc:date>
    <dc:format>image/svg+xml</dc:format>
    <dc:creator>
     <cc:Agent>
      <dc:title>Matplotlib v3.11.0, https://matplotlib.org/</dc:title>
     </cc:Agent>
    </dc:creator>
   </cc:Work>
  </rdf:RDF>
 </metadata>
 <defs>
  <style type="text/css">*{stroke-linejoin: round; stroke-linecap: butt}</style>
 </defs>
 <g id="figure_1">
  <g id="patch_1">
   <path d="M 0 120 
L 288 120 
L 288 0 
L 0 0 
L 0 120 
z
" style="fill: none; opacity: 0"/>
  </g>
  <g id="axes_1">
   <g id="patch_2">
    <path d="M 8.64 108 
L 279.36 108 
L 279.36 4.8 
L 8.64 4.8 
L 8.64 108 
z
" style="fill: none"/>
   </g>
   <g id="matplotlib.axis_1"/>
   <g id="matplotlib.axis_2"/>
   <g id="line2d_1">
    <path d="M 8.64 87.36 
L 279.36 87.36 
" clip-path="url(#pfbf7b7f698)" style="fill: none; stroke: #b2b2b2; stroke-opacity: 0.35; stroke-width: 0.5; stroke-linecap: square"/>
   </g>
   <g id="line2d_2">
    <path d="M 8.64 66.72 
L 279.36 66.72 
" clip-path="url(#pfbf7b7f698)" style="fill: none; stroke: #b2b2b2; stroke-opacity: 0.35; stroke-width: 0.5; stroke-linecap: square"/>
   </g>
   <g id="line2d_3">
    <path d="M 8.64 46.08 
L 279.36 46.08 
" clip-path="url(#pfbf7b7f698)" style="fill: none; stroke: #b2b2b2; stroke-opacity: 0.35; stroke-width: 0.5; stroke-linecap: square"/>
   </g>
   <g id="line2d_4">
    <path d="M 8.64 25.44 
L 279.36 25.44 
" clip-path="url(#pfbf7b7f698)" style="fill: none; stroke: #b2b2b2; stroke-opacity: 0.35; stroke-width: 0.5; stroke-linecap: square"/>
   </g>
   <g id="line2d_5">
    <path d="M 8.64 102.95352 
L 18.060061 102.61296 
L 27.128332 102.6336 
L 36.450065 102.9948 
L 46.037295 103.28376 
L 55.029353 103.01544 
L 64.590889 102.69552 
L 74.231673 102.582 
L 83.038351 102.88128 
L 92.438465 103.15992 
L 101.802586 103.36632 
L 111.217227 103.36632 
L 120.469036 102.81936 
L 130.014202 103.0464 
L 139.448573 102.9432 
L 148.633602 102.59232 
L 158.137247 102.40656 
L 167.339838 102.02472 
L 176.604547 101.68416 
L 185.930834 101.3436 
L 195.434587 101.6532 
L 204.891941 101.6532 
L 214.118057 101.63256 
L 223.230126 101.95248 
L 232.880666 102.08664 
L 242.226141 101.9112 
L 251.316203 102.066 
L 260.822883 102.18984 
L 270.209988 102.31368 
L 279.36 102.45816 
" clip-path="url(#pfbf7b7f698)" style="fill: none; stroke: #bebebe; stroke-width: 0.5; stroke-linecap: round"/>
   </g>
   <g id="line2d_6">
    <path d="M 8.64 94.04736 
L 18.060061 93.40752 
L 27.128332 92.9844 
L 36.450065 93.93384 
L 46.037295 94.4292 
L 55.029353 94.19184 
L 64.590889 93.87192 
L 74.231673 93.81 
L 83.038351 94.03704 
L 92.438465 94.83168 
L 101.802586 95.48184 
L 111.217227 96.63768 
L 120.469036 96.14232 
L 130.014202 96.30744 
L 139.448573 96.29712 
L 148.633602 96.04944 
L 158.137247 95.9256 
L 167.339838 95.39928 
L 176.604547 94.31568 
L 185.930834 93.57264 
L 195.434587 93.32496 
L 204.891941 93.22176 
L 214.118057 93.35592 
L 223.230126 93.61392 
L 232.880666 93.77904 
L 242.226141 93.26304 
L 251.316203 92.92248 
L 260.822883 92.71608 
L 270.209988 93.15984 
L 279.36 93.17016 
" clip-path="url(#pfbf7b7f698)" style="fill: none; stroke: #4a8dff; stroke-width: 0.6"/>
   </g>
   <g id="line2d_7">
    <path d="M 8.64 101.48808 
L 18.060061 101.40552 
L 27.128332 101.4984 
L 36.450065 101.97312 
L 46.037295 102.26208 
L 55.029353 102.066 
L 64.590889 101.90088 
L 74.231673 101.90088 
L 83.038351 102.0144 
L 92.438465 102.25176 
L 101.802586 102.6336 
L 111.217227 102.88128 
L 120.469036 102.77808 
L 130.014202 102.85032 
L 139.448573 102.93288 
L 148.633602 102.95352 
L 158.137247 103.00512 
L 167.339838 102.69552 
L 176.604547 102.55104 
L 185.930834 102.2724 
L 195.434587 102.21048 
L 204.891941 102.12792 
L 214.118057 102.13824 
L 223.230126 102.25176 
L 232.880666 102.36528 
L 242.226141 101.94216 
L 251.316203 101.92152 
L 260.822883 101.9112 
L 270.209988 102.2208 
L 279.36 102.31368 
" clip-path="url(#pfbf7b7f698)" style="fill: none; stroke: #f5841e; stroke-width: 0.6"/>
   </g>
  </g>
 </g>
 <defs>
  <clipPath id="pfbf7b7f698">
   <rect x="8.64" y="4.8" width="270.72" height="103.2"/>
  </clipPath>
 </defs>
</svg>
