<?xml version="1.0" encoding="utf-8" standalone="no"?>
<!DOCTYPE svg PUBLIC "-//W3C//DTD SVG 1.1//EN"
  "http://www.w3.org/Graphics/SVG/1.1/DTD/svg11.dtd">
<svg xmlns:xlink="http://www.w3.org/1999/xlink" width="288pt" height="120pt" viewBox="0 0 288 120" xmlns="http://www.w3.org/2000/svg" version="1.1">
<desc id="nav-meta">{"window":"1m","count":4,"labels":["15.03","25.03","03.04","13.04"],"tick_utc":["2026-03-15T03:42:35Z","2026-03-25T05:09:13Z","2026-04-03T03:37:13Z","2026-04-13T04:02:42Z"],"w":720,"h":300}</desc>

 <metadata>
  <rdf:RDF xmlns:dc="http://purl.org/dc/elements/1.1/" xmlns:cc="http://creativecommons.org/ns#" xmlns:rdf="http://www.w3.org/1999/02/22-rdf-syntax-ns#">
   <cc:Work>
    <dc:type rdf:resource="http://purl.org/dc/dcmitype/StillImage"/>
    <dc:date>2026-04-13T19:51:33.456318</dc:date>
    <dc:format>image/svg+xml</dc:format>
    <dc:creator>
     <cc:Agent>
      <dc:title>Matplotlib v3.10.8, https://matplotlib.org/</dc:title>
     </cc:Agent>
    </dc:creator>
   </cc:Work>
  </rdf:RDF>
 </metadata>
 <defs>
  <style type="text/css">*{stroke-linejoin: round; stroke-linecap: butt}</style>
 </defs>
 <g id="figure_1">
  <g id="patch_1">
   <path d="M 0 120 
L 288 120 
L 288 0 
L 0 0 
L 0 120 
z
" style="fill: none; opacity: 0"/>
  </g>
  <g id="axes_1">
   <g id="patch_2">
    <path d="M 8.64 108 
L 279.36 108 
L 279.36 4.8 
L 8.64 4.8 
L 8.64 108 
z
" style="fill: none"/>
   </g>
   <g id="matplotlib.axis_1"/>
   <g id="matplotlib.axis_2"/>
   <g id="line2d_1">
    <path d="M 8.64 87.36 
L 279.36 87.36 
" clip-path="url(#p6801df3b55)" style="fill: none; stroke: #b2b2b2; stroke-opacity: 0.35; stroke-width: 0.5; stroke-linecap: square"/>
   </g>
   <g id="line2d_2">
    <path d="M 8.64 66.72 
L 279.36 66.72 
" clip-path="url(#p6801df3b55)" style="fill: none; stroke: #b2b2b2; stroke-opacity: 0.35; stroke-width: 0.5; stroke-linecap: square"/>
   </g>
   <g id="line2d_3">
    <path d="M 8.64 46.08 
L 279.36 46.08 
" clip-path="url(#p6801df3b55)" style="fill: none; stroke: #b2b2b2; stroke-opacity: 0.35; stroke-width: 0.5; stroke-linecap: square"/>
   </g>
   <g id="line2d_4">
    <path d="M 8.64 25.44 
L 279.36 25.44 
" clip-path="url(#p6801df3b55)" style="fill: none; stroke: #b2b2b2; stroke-opacity: 0.35; stroke-width: 0.5; stroke-linecap: square"/>
   </g>
   <g id="line2d_5">
    <path d="M 8.64 100.60056 
L 17.997028 99.76464 
L 27.164419 99.49632 
L 36.566265 99.40344 
L 45.899534 100.09488 
L 55.139389 100.3632 
L 64.415421 100.19808 
L 73.885627 100.47672 
L 83.238228 100.79664 
L 92.48251 100.26 
L 102.508129 99.83688 
L 111.257367 100.13616 
L 120.599816 100.80696 
L 129.841291 101.38488 
L 139.299077 101.3436 
L 148.656429 101.292 
L 157.92825 101.28168 
L 167.338951 101.28168 
L 176.546732 101.8596 
L 185.888101 101.88024 
L 195.138863 101.72544 
L 204.610041 101.68416 
L 213.964801 101.47776 
L 223.234894 101.78736 
L 232.580691 101.09592 
L 241.878862 101.46744 
L 251.295395 101.3436 
L 260.483413 101.05464 
L 269.981481 101.3952 
L 279.36 101.47776 
" clip-path="url(#p6801df3b55)" style="fill: none; stroke: #bebebe; stroke-width: 0.5; stroke-linecap: round"/>
   </g>
   <g id="line2d_6">
    <path d="M 8.64 88.46424 
L 17.997028 86.38992 
L 27.164419 84.80064 
L 36.566265 84.8316 
L 45.899534 86.586 
L 55.139389 87.74184 
L 64.415421 87.618 
L 73.885627 88.19592 
L 83.238228 89.08344 
L 92.48251 87.89664 
L 102.508129 87.3084 
L 111.257367 87.65928 
L 120.599816 88.96992 
L 129.841291 90.07416 
L 139.299077 89.76456 
L 148.656429 89.3724 
L 157.92825 89.00088 
L 167.338951 88.42296 
L 176.546732 88.81512 
L 185.888101 89.10408 
L 195.138863 89.14536 
L 204.610041 89.07312 
L 213.964801 87.9792 
L 223.234894 88.29912 
L 232.580691 86.38992 
L 241.878862 87.24648 
L 251.295395 87.1536 
L 260.483413 86.21448 
L 269.981481 86.66856 
L 279.36 87.01944 
" clip-path="url(#p6801df3b55)" style="fill: none; stroke: #4a8dff; stroke-width: 0.6"/>
   </g>
   <g id="line2d_7">
    <path d="M 8.64 99.81624 
L 17.997028 98.93904 
L 27.164419 98.3508 
L 36.566265 98.52624 
L 45.899534 99.78528 
L 55.139389 100.12584 
L 64.415421 100.03296 
L 73.885627 100.45608 
L 83.238228 100.83792 
L 92.48251 100.11552 
L 102.508129 99.87816 
L 111.257367 100.002 
L 120.599816 100.64184 
L 129.841291 101.41584 
L 139.299077 101.21976 
L 148.656429 101.14752 
L 157.92825 101.00304 
L 167.338951 100.86888 
L 176.546732 101.21976 
L 185.888101 101.28168 
L 195.138863 101.20944 
L 204.610041 101.14752 
L 213.964801 100.55928 
L 223.234894 100.65216 
L 232.580691 99.80592 
L 241.878862 99.96072 
L 251.295395 99.6408 
L 260.483413 99.1764 
L 269.981481 99.70272 
L 279.36 99.94008 
" clip-path="url(#p6801df3b55)" style="fill: none; stroke: #f5841e; stroke-width: 0.6"/>
   </g>
  </g>
 </g>
 <defs>
  <clipPath id="p6801df3b55">
   <rect x="8.64" y="4.8" width="270.72" height="103.2"/>
  </clipPath>
 </defs>
</svg>
