<?xml version="1.0" encoding="utf-8" standalone="no"?>
<!DOCTYPE svg PUBLIC "-//W3C//DTD SVG 1.1//EN"
  "http://www.w3.org/Graphics/SVG/1.1/DTD/svg11.dtd">
<svg xmlns:xlink="http://www.w3.org/1999/xlink" width="288pt" height="120pt" viewBox="0 0 288 120" xmlns="http://www.w3.org/2000/svg" version="1.1">
<desc id="nav-meta">{"window":"6m","count":4,"labels":["20.08","19.10","17.12","15.02"],"tick_utc":["2025-08-20T12:00:00Z","2025-10-19T12:00:00Z","2025-12-17T12:00:00Z","2026-02-15T02:00:29Z"],"w":720,"h":300}</desc>

 <metadata>
  <rdf:RDF xmlns:dc="http://purl.org/dc/elements/1.1/" xmlns:cc="http://creativecommons.org/ns#" xmlns:rdf="http://www.w3.org/1999/02/22-rdf-syntax-ns#">
   <cc:Work>
    <dc:type rdf:resource="http://purl.org/dc/dcmitype/StillImage"/>
    <dc:date>2026-02-15T23:49:44.106636</dc:date>
    <dc:format>image/svg+xml</dc:format>
    <dc:creator>
     <cc:Agent>
      <dc:title>Matplotlib v3.10.8, https://matplotlib.org/</dc:title>
     </cc:Agent>
    </dc:creator>
   </cc:Work>
  </rdf:RDF>
 </metadata>
 <defs>
  <style type="text/css">*{stroke-linejoin: round; stroke-linecap: butt}</style>
 </defs>
 <g id="figure_1">
  <g id="patch_1">
   <path d="M 0 120 
L 288 120 
L 288 0 
L 0 0 
L 0 120 
z
" style="fill: none; opacity: 0"/>
  </g>
  <g id="axes_1">
   <g id="patch_2">
    <path d="M 8.64 108 
L 279.36 108 
L 279.36 4.8 
L 8.64 4.8 
L 8.64 108 
z
" style="fill: none"/>
   </g>
   <g id="matplotlib.axis_1"/>
   <g id="matplotlib.axis_2"/>
   <g id="line2d_1">
    <path d="M 8.64 87.36 
L 279.36 87.36 
" clip-path="url(#p49084cb01e)" style="fill: none; stroke: #b2b2b2; stroke-opacity: 0.35; stroke-width: 0.5; stroke-linecap: square"/>
   </g>
   <g id="line2d_2">
    <path d="M 8.64 66.72 
L 279.36 66.72 
" clip-path="url(#p49084cb01e)" style="fill: none; stroke: #b2b2b2; stroke-opacity: 0.35; stroke-width: 0.5; stroke-linecap: square"/>
   </g>
   <g id="line2d_3">
    <path d="M 8.64 46.08 
L 279.36 46.08 
" clip-path="url(#p49084cb01e)" style="fill: none; stroke: #b2b2b2; stroke-opacity: 0.35; stroke-width: 0.5; stroke-linecap: square"/>
   </g>
   <g id="line2d_4">
    <path d="M 8.64 25.44 
L 279.36 25.44 
" clip-path="url(#p49084cb01e)" style="fill: none; stroke: #b2b2b2; stroke-opacity: 0.35; stroke-width: 0.5; stroke-linecap: square"/>
   </g>
   <g id="line2d_5">
    <path d="M 8.64 78.30936 
L 10.155928 75.3372 
L 11.671856 77.25672 
L 13.187784 71.78712 
L 14.703712 70.75512 
L 16.21964 70.24944 
L 17.735569 75.35784 
L 19.251497 72.95328 
L 20.767425 70.96152 
L 22.283353 67.87584 
L 23.799281 70.46616 
L 25.315209 71.11632 
L 26.831137 71.61168 
L 28.347065 72.7056 
L 29.862993 69.33096 
L 31.378921 68.9388 
L 32.894849 71.12664 
L 34.410778 70.90992 
L 35.926706 71.80776 
L 37.442634 70.074 
L 38.958562 68.01 
L 40.47449 67.10184 
L 41.990418 65.29584 
L 43.506346 64.01616 
L 45.022274 60.31128 
L 46.538202 60.19776 
L 48.05413 60.786 
L 49.570058 62.61264 
L 51.085986 61.74576 
L 52.601915 59.57856 
L 54.117843 58.86648 
L 55.633771 61.38456 
L 57.149699 61.07496 
L 58.665627 61.83864 
L 60.181555 66.29688 
L 61.697483 67.97904 
L 63.213411 68.69112 
L 64.729339 73.9956 
L 66.245267 70.45584 
L 67.761195 70.87896 
L 69.277124 68.91816 
L 70.793052 68.3196 
L 72.30898 69.47544 
L 75.340836 62.39592 
L 76.856764 62.81904 
L 78.372692 64.22256 
L 79.88862 64.05744 
L 81.404548 62.9532 
L 82.920476 66.14208 
L 84.436404 63.91296 
L 85.952333 66.17304 
L 87.468261 74.6148 
L 88.984189 77.78304 
L 90.500117 72.66432 
L 92.016045 69.69216 
L 93.531973 71.09568 
L 96.563829 76.06992 
L 98.079757 76.76136 
L 99.595685 75.25464 
L 101.111613 75.24432 
L 102.627542 74.63544 
L 104.14347 75.73968 
L 105.659398 77.31864 
L 107.175326 74.202 
L 108.691254 73.64472 
L 110.207182 73.48992 
L 111.72311 71.83872 
L 113.239038 72.17928 
L 114.754966 73.38672 
L 116.270894 73.43832 
L 117.786822 76.15248 
L 119.30275 75.3372 
L 120.818679 75.58488 
L 122.334607 75.35784 
L 123.850535 81.168 
L 125.366463 84.01632 
L 126.882391 82.06584 
L 128.398319 84.19176 
L 129.914247 82.27224 
L 131.430175 83.29392 
L 132.946103 81.62208 
L 134.462031 80.72424 
L 135.977959 84.33624 
L 137.493888 84.64584 
L 139.009816 86.844 
L 140.525744 88.52616 
L 142.041672 88.36104 
L 143.5576 88.93896 
L 145.073528 90.79656 
L 146.589456 88.09272 
L 148.105384 89.22792 
L 149.621312 90.00192 
L 151.13724 91.39512 
L 152.653168 91.63248 
L 154.169097 90.75528 
L 155.685025 88.7016 
L 157.200953 88.52616 
L 158.716881 87.45288 
L 160.232809 88.0308 
L 161.748737 88.94928 
L 164.780593 89.7336 
L 166.296521 91.86984 
L 167.812449 88.60872 
L 169.328377 86.87496 
L 172.360234 90.11544 
L 173.876162 90.38376 
L 175.39209 90.53856 
L 176.908018 90.08448 
L 178.423946 88.79448 
L 179.939874 89.20728 
L 181.455802 89.22792 
L 182.97173 90.31152 
L 184.487658 90.10512 
L 186.003586 91.09584 
L 187.519514 91.61184 
L 189.035443 91.31256 
L 190.551371 92.87088 
L 192.067299 93.8616 
L 193.583227 92.02464 
L 195.099155 92.13816 
L 196.615083 92.07624 
L 198.131011 92.14848 
L 199.646939 92.64384 
L 201.162867 93.01536 
L 202.678795 93.69648 
L 205.710652 92.44776 
L 207.22658 92.30328 
L 208.742508 92.87088 
L 210.258436 92.38584 
L 211.774364 92.47872 
L 213.290292 91.88016 
L 214.80622 90.42504 
L 216.322148 90.08448 
L 217.838076 89.92968 
L 219.354004 88.76352 
L 220.869932 87.94824 
L 222.385861 89.2692 
L 223.901789 88.72224 
L 225.417717 89.39304 
L 226.933645 89.40336 
L 228.449573 88.41264 
L 229.965501 88.4952 
L 231.481429 86.86464 
L 232.997357 86.42088 
L 234.513285 87.62832 
L 236.029213 86.93688 
L 237.545141 87.23616 
L 240.576998 90.0432 
L 242.092926 92.12784 
L 243.608854 91.16808 
L 246.64071 91.73568 
L 248.156638 91.78728 
L 249.672566 94.0164 
L 251.188494 92.5716 
L 252.704422 91.76664 
L 254.22035 92.33424 
L 255.736278 94.36728 
L 257.252207 94.46016 
L 258.768135 97.71096 
L 260.284063 98.48496 
L 261.799991 97.85544 
L 264.284464 100.16712 
L 265.79962 102.23112 
L 267.309056 100.54896 
L 268.859636 100.70376 
L 270.363055 100.68312 
L 273.40042 101.28168 
L 274.910891 101.71512 
L 276.426363 101.84928 
L 277.924062 101.034 
L 279.36 100.54896 
L 279.36 100.54896 
" clip-path="url(#p49084cb01e)" style="fill: none; stroke: #bebebe; stroke-width: 0.5; stroke-linecap: round"/>
   </g>
   <g id="line2d_6">
    <path d="M 8.64 59.12448 
L 10.155928 55.32672 
L 11.671856 56.90568 
L 13.187784 47.92728 
L 14.703712 48.75288 
L 16.21964 48.68064 
L 17.735569 54.57336 
L 19.251497 51.2916 
L 20.767425 52.80864 
L 22.283353 52.69512 
L 23.799281 54.82104 
L 26.831137 54.45984 
L 28.347065 55.7292 
L 29.862993 55.39896 
L 31.378921 53.55168 
L 32.894849 55.81176 
L 34.410778 55.6776 
L 35.926706 56.18328 
L 37.442634 55.71888 
L 40.47449 55.63632 
L 41.990418 55.07904 
L 43.506346 53.41752 
L 45.022274 49.71264 
L 46.538202 50.32152 
L 48.05413 51.17808 
L 49.570058 52.44744 
L 51.085986 52.74672 
L 52.601915 51.4464 
L 54.117843 51.46704 
L 55.633771 53.2524 
L 57.149699 53.08728 
L 58.665627 53.5104 
L 60.181555 57.26688 
L 61.697483 57.76224 
L 63.213411 58.02024 
L 64.729339 62.26176 
L 66.245267 59.68176 
L 67.761195 59.9604 
L 69.277124 58.12344 
L 70.793052 57.02952 
L 72.30898 58.09248 
L 73.824908 55.13064 
L 75.340836 53.046 
L 76.856764 52.5816 
L 78.372692 52.9944 
L 79.88862 52.5816 
L 81.404548 50.0016 
L 82.920476 53.48976 
L 84.436404 52.40616 
L 85.952333 54.75912 
L 87.468261 62.67456 
L 88.984189 63.95424 
L 90.500117 57.86544 
L 92.016045 56.57544 
L 93.531973 58.31952 
L 95.047901 60.4764 
L 96.563829 61.85928 
L 98.079757 62.73648 
L 99.595685 61.8696 
L 101.111613 60.45576 
L 102.627542 60.54864 
L 104.14347 62.04504 
L 105.659398 63.16992 
L 107.175326 62.36496 
L 108.691254 61.21944 
L 110.207182 60.9408 
L 111.72311 57.83448 
L 113.239038 58.40208 
L 114.754966 60.49704 
L 116.270894 61.75608 
L 117.786822 63.1596 
L 119.30275 62.49912 
L 120.818679 62.1276 
L 122.334607 61.56 
L 125.366463 70.66224 
L 126.882391 68.72208 
L 128.398319 70.4868 
L 129.914247 68.61888 
L 131.430175 69.11424 
L 132.946103 66.5136 
L 134.462031 66.68904 
L 135.977959 68.8872 
L 137.493888 68.9904 
L 139.009816 71.5704 
L 140.525744 73.48992 
L 142.041672 72.54048 
L 143.5576 73.56216 
L 145.073528 74.74896 
L 146.589456 73.3248 
L 148.105384 74.80056 
L 149.621312 77.556 
L 151.13724 78.55704 
L 152.653168 78.50544 
L 154.169097 78.04104 
L 155.685025 75.76032 
L 157.200953 75.73968 
L 158.716881 74.65608 
L 160.232809 74.83152 
L 161.748737 74.57352 
L 163.264665 75.20304 
L 164.780593 75.17208 
L 166.296521 78.05136 
L 169.328377 72.16896 
L 170.844305 73.08744 
L 172.360234 74.72832 
L 175.39209 74.28456 
L 176.908018 73.21128 
L 178.423946 70.2804 
L 179.939874 70.2288 
L 181.455802 71.56008 
L 182.97173 73.79952 
L 184.487658 73.35576 
L 186.003586 74.0988 
L 187.519514 75.5952 
L 189.035443 75.5952 
L 190.551371 77.61792 
L 192.067299 77.63856 
L 193.583227 75.40944 
L 195.099155 75.40944 
L 196.615083 75.04824 
L 198.131011 74.98632 
L 199.646939 75.58488 
L 201.162867 75.87384 
L 202.678795 76.49304 
L 205.710652 75.82224 
L 207.22658 75.84288 
L 208.742508 76.03896 
L 210.258436 75.51264 
L 211.774364 75.56424 
L 213.290292 75.05856 
L 214.80622 73.26288 
L 216.322148 73.20096 
L 217.838076 73.00488 
L 219.354004 71.68392 
L 220.869932 70.6932 
L 222.385861 72.62304 
L 223.901789 73.52088 
L 225.417717 73.83048 
L 226.933645 73.8408 
L 228.449573 73.29384 
L 229.965501 73.72728 
L 231.481429 70.32168 
L 232.997357 69.77472 
L 234.513285 70.34232 
L 236.029213 70.67256 
L 237.545141 70.51776 
L 239.061069 70.848 
L 240.576998 72.31344 
L 242.092926 76.01832 
L 243.608854 75.41976 
L 245.124782 75.83256 
L 248.156638 75.82224 
L 249.672566 77.82432 
L 251.188494 76.14216 
L 252.704422 74.75928 
L 254.22035 74.96568 
L 255.736278 77.75208 
L 257.252207 79.48584 
L 258.768135 83.31456 
L 260.284063 85.90488 
L 261.799991 84.79032 
L 263.079775 85.84296 
L 265.79962 91.41576 
L 267.309056 88.7532 
L 270.363055 88.55712 
L 271.887633 88.96992 
L 274.910891 90.456 
L 276.426363 90.56952 
L 277.924062 89.15568 
L 279.36 88.9596 
L 279.36 88.9596 
" clip-path="url(#p49084cb01e)" style="fill: none; stroke: #4a8dff; stroke-width: 0.6"/>
   </g>
   <g id="line2d_7">
    <path d="M 8.64 59.8572 
L 10.155928 58.32984 
L 11.671856 60.23904 
L 13.187784 55.65696 
L 14.703712 57.18432 
L 16.21964 59.21736 
L 17.735569 62.55072 
L 19.251497 60.82728 
L 20.767425 61.47744 
L 22.283353 60.12552 
L 23.799281 64.31544 
L 25.315209 63.99552 
L 26.831137 64.5528 
L 28.347065 63.60336 
L 29.862993 61.5084 
L 31.378921 60.96144 
L 32.894849 61.98312 
L 34.410778 62.05536 
L 35.926706 62.51976 
L 38.958562 60.64152 
L 40.47449 61.13688 
L 41.990418 58.6188 
L 43.506346 57.03984 
L 45.022274 56.35872 
L 46.538202 56.5548 
L 48.05413 57.174 
L 49.570058 57.14304 
L 51.085986 55.7292 
L 52.601915 56.04912 
L 54.117843 55.33704 
L 55.633771 56.87472 
L 57.149699 56.8128 
L 58.665627 57.24624 
L 60.181555 59.93976 
L 61.697483 60.64152 
L 63.213411 59.29992 
L 64.729339 63.80976 
L 66.245267 63.03576 
L 67.761195 63.09768 
L 69.277124 60.51768 
L 70.793052 58.27824 
L 72.30898 58.5672 
L 73.824908 53.93352 
L 75.340836 51.74568 
L 76.856764 50.04288 
L 78.372692 49.90872 
L 79.88862 48.74256 
L 81.404548 47.43192 
L 82.920476 50.80656 
L 84.436404 48.90768 
L 85.952333 50.6208 
L 87.468261 59.42376 
L 88.984189 61.85928 
L 90.500117 57.35976 
L 92.016045 57.3288 
L 93.531973 59.46504 
L 96.563829 64.72824 
L 98.079757 66.42072 
L 99.595685 65.688 
L 101.111613 64.17096 
L 102.627542 62.10696 
L 104.14347 64.30512 
L 105.659398 65.20296 
L 107.175326 62.68488 
L 108.691254 61.70448 
L 110.207182 61.06464 
L 111.72311 58.1028 
L 113.239038 58.40208 
L 114.754966 59.68176 
L 116.270894 62.6952 
L 117.786822 64.56312 
L 119.30275 63.18024 
L 120.818679 62.72616 
L 122.334607 62.06568 
L 123.850535 66.33816 
L 125.366463 71.40528 
L 126.882391 69.08328 
L 128.398319 71.7252 
L 129.914247 69.57864 
L 131.430175 70.72416 
L 132.946103 68.2164 
L 134.462031 66.978 
L 135.977959 70.03272 
L 137.493888 71.5188 
L 139.009816 73.3764 
L 140.525744 78.846 
L 142.041672 77.75208 
L 143.5576 78.88728 
L 145.073528 81.34344 
L 146.589456 80.53848 
L 148.105384 82.0452 
L 149.621312 86.92656 
L 151.13724 88.58808 
L 152.653168 88.96992 
L 154.169097 86.7924 
L 155.685025 85.296 
L 157.200953 86.24544 
L 158.716881 82.96368 
L 160.232809 82.13808 
L 161.748737 82.47864 
L 163.264665 82.58184 
L 164.780593 83.03592 
L 166.296521 87.3084 
L 167.812449 82.06584 
L 169.328377 79.71288 
L 170.844305 81.24024 
L 172.360234 84.17112 
L 173.876162 84.24336 
L 175.39209 83.29392 
L 176.908018 82.8192 
L 178.423946 80.64168 
L 179.939874 81.38472 
L 181.455802 80.87904 
L 182.97173 83.13912 
L 184.487658 83.19072 
L 186.003586 85.296 
L 187.519514 87.17424 
L 189.035443 85.71912 
L 190.551371 87.53544 
L 192.067299 88.17528 
L 193.583227 85.41984 
L 196.615083 84.9348 
L 198.131011 85.01736 
L 199.646939 86.14224 
L 201.162867 85.90488 
L 202.678795 86.328 
L 204.194723 86.24544 
L 205.710652 85.72944 
L 207.22658 85.7088 
L 208.742508 86.40024 
L 210.258436 85.09992 
L 211.774364 86.02872 
L 214.80622 83.53128 
L 217.838076 82.03488 
L 219.354004 79.39296 
L 220.869932 79.66128 
L 222.385861 82.15872 
L 223.901789 82.43736 
L 225.417717 82.93272 
L 226.933645 83.00496 
L 229.965501 82.28256 
L 231.481429 78.01008 
L 232.997357 76.19376 
L 234.513285 77.66952 
L 236.029213 77.74176 
L 237.545141 78.1752 
L 239.061069 79.5684 
L 240.576998 80.8068 
L 242.092926 85.20312 
L 243.608854 84.12984 
L 245.124782 84.03696 
L 246.64071 84.06792 
L 248.156638 84.3156 
L 249.672566 87.02976 
L 251.188494 85.21344 
L 252.704422 84.28464 
L 254.22035 84.32592 
L 255.736278 89.08344 
L 257.252207 89.5272 
L 258.768135 95.14128 
L 260.284063 96.98856 
L 261.799991 95.08968 
L 263.079775 97.71096 
L 264.284464 99.80592 
L 265.79962 101.79768 
L 267.309056 100.03296 
L 268.859636 100.518 
L 270.363055 99.98136 
L 271.887633 100.49736 
L 276.426363 101.26104 
L 277.924062 100.63152 
L 279.36 100.38384 
L 279.36 100.38384 
" clip-path="url(#p49084cb01e)" style="fill: none; stroke: #f5841e; stroke-width: 0.6"/>
   </g>
  </g>
 </g>
 <defs>
  <clipPath id="p49084cb01e">
   <rect x="8.64" y="4.8" width="270.72" height="103.2"/>
  </clipPath>
 </defs>
</svg>
