<?xml version="1.0" encoding="utf-8" standalone="no"?>
<!DOCTYPE svg PUBLIC "-//W3C//DTD SVG 1.1//EN"
  "http://www.w3.org/Graphics/SVG/1.1/DTD/svg11.dtd">
<svg xmlns:xlink="http://www.w3.org/1999/xlink" width="288pt" height="120pt" viewBox="0 0 288 120" xmlns="http://www.w3.org/2000/svg" version="1.1">
<desc id="nav-meta">{"window":"1m","count":4,"labels":["03.03","13.03","22.03","01.04"],"tick_utc":["2026-03-03T03:22:17Z","2026-03-13T03:16:57Z","2026-03-22T03:31:55Z","2026-04-01T03:54:32Z"],"w":720,"h":300}</desc>

 <metadata>
  <rdf:RDF xmlns:dc="http://purl.org/dc/elements/1.1/" xmlns:cc="http://creativecommons.org/ns#" xmlns:rdf="http://www.w3.org/1999/02/22-rdf-syntax-ns#">
   <cc:Work>
    <dc:type rdf:resource="http://purl.org/dc/dcmitype/StillImage"/>
    <dc:date>2026-04-01T03:54:34.509857</dc:date>
    <dc:format>image/svg+xml</dc:format>
    <dc:creator>
     <cc:Agent>
      <dc:title>Matplotlib v3.10.8, https://matplotlib.org/</dc:title>
     </cc:Agent>
    </dc:creator>
   </cc:Work>
  </rdf:RDF>
 </metadata>
 <defs>
  <style type="text/css">*{stroke-linejoin: round; stroke-linecap: butt}</style>
 </defs>
 <g id="figure_1">
  <g id="patch_1">
   <path d="M 0 120 
L 288 120 
L 288 0 
L 0 0 
L 0 120 
z
" style="fill: none; opacity: 0"/>
  </g>
  <g id="axes_1">
   <g id="patch_2">
    <path d="M 8.64 108 
L 279.36 108 
L 279.36 4.8 
L 8.64 4.8 
L 8.64 108 
z
" style="fill: none"/>
   </g>
   <g id="matplotlib.axis_1"/>
   <g id="matplotlib.axis_2"/>
   <g id="line2d_1">
    <path d="M 8.64 87.36 
L 279.36 87.36 
" clip-path="url(#p4f89da1e75)" style="fill: none; stroke: #b2b2b2; stroke-opacity: 0.35; stroke-width: 0.5; stroke-linecap: square"/>
   </g>
   <g id="line2d_2">
    <path d="M 8.64 66.72 
L 279.36 66.72 
" clip-path="url(#p4f89da1e75)" style="fill: none; stroke: #b2b2b2; stroke-opacity: 0.35; stroke-width: 0.5; stroke-linecap: square"/>
   </g>
   <g id="line2d_3">
    <path d="M 8.64 46.08 
L 279.36 46.08 
" clip-path="url(#p4f89da1e75)" style="fill: none; stroke: #b2b2b2; stroke-opacity: 0.35; stroke-width: 0.5; stroke-linecap: square"/>
   </g>
   <g id="line2d_4">
    <path d="M 8.64 25.44 
L 279.36 25.44 
" clip-path="url(#p4f89da1e75)" style="fill: none; stroke: #b2b2b2; stroke-opacity: 0.35; stroke-width: 0.5; stroke-linecap: square"/>
   </g>
   <g id="line2d_5">
    <path d="M 8.64 100.8792 
L 17.915715 100.74504 
L 27.263765 100.21872 
L 36.587307 100.53864 
L 45.843696 101.07528 
L 55.262246 101.38488 
L 64.618177 101.26104 
L 73.886226 100.78632 
L 83.210524 100.91016 
L 92.5752 100.99272 
L 101.885139 100.38384 
L 111.200692 100.50768 
L 120.707123 100.60056 
L 130.061434 99.76464 
L 139.226164 99.49632 
L 148.62528 99.40344 
L 157.95584 100.09488 
L 167.193012 100.3632 
L 176.466351 100.19808 
L 185.933808 100.47672 
L 195.283693 100.79664 
L 204.525291 100.26 
L 214.547999 99.83688 
L 223.294698 100.13616 
L 232.634434 100.80696 
L 241.873226 101.38488 
L 251.328266 101.3436 
L 260.682902 101.292 
L 269.952031 101.28168 
L 279.36 101.28168 
" clip-path="url(#p4f89da1e75)" style="fill: none; stroke: #bebebe; stroke-width: 0.5; stroke-linecap: round"/>
   </g>
   <g id="line2d_6">
    <path d="M 8.64 89.79552 
L 17.915715 90.23928 
L 27.263765 88.0824 
L 36.587307 88.7532 
L 45.843696 90.16704 
L 55.262246 90.67272 
L 64.618177 90.18768 
L 73.886226 89.2692 
L 83.210524 89.54784 
L 92.5752 89.49624 
L 101.885139 88.31976 
L 111.200692 88.45392 
L 120.707123 88.46424 
L 130.061434 86.38992 
L 139.226164 84.80064 
L 148.62528 84.8316 
L 157.95584 86.586 
L 167.193012 87.74184 
L 176.466351 87.618 
L 185.933808 88.19592 
L 195.283693 89.08344 
L 204.525291 87.89664 
L 214.547999 87.3084 
L 223.294698 87.65928 
L 232.634434 88.96992 
L 241.873226 90.07416 
L 251.328266 89.76456 
L 260.682902 89.3724 
L 269.952031 89.00088 
L 279.36 88.42296 
" clip-path="url(#p4f89da1e75)" style="fill: none; stroke: #4a8dff; stroke-width: 0.6"/>
   </g>
   <g id="line2d_7">
    <path d="M 8.64 100.81728 
L 17.915715 100.79664 
L 27.263765 99.3312 
L 36.587307 99.92976 
L 45.843696 100.78632 
L 55.262246 101.17848 
L 64.618177 101.1372 
L 73.886226 100.21872 
L 83.210524 100.37352 
L 92.5752 100.4664 
L 101.885139 99.88848 
L 111.200692 99.94008 
L 120.707123 99.81624 
L 130.061434 98.93904 
L 139.226164 98.3508 
L 148.62528 98.52624 
L 157.95584 99.78528 
L 167.193012 100.12584 
L 176.466351 100.03296 
L 185.933808 100.45608 
L 195.283693 100.83792 
L 204.525291 100.11552 
L 214.547999 99.87816 
L 223.294698 100.002 
L 232.634434 100.64184 
L 241.873226 101.41584 
L 251.328266 101.21976 
L 260.682902 101.14752 
L 269.952031 101.00304 
L 279.36 100.86888 
" clip-path="url(#p4f89da1e75)" style="fill: none; stroke: #f5841e; stroke-width: 0.6"/>
   </g>
  </g>
 </g>
 <defs>
  <clipPath id="p4f89da1e75">
   <rect x="8.64" y="4.8" width="270.72" height="103.2"/>
  </clipPath>
 </defs>
</svg>
