<?xml version="1.0" encoding="utf-8" standalone="no"?>
<!DOCTYPE svg PUBLIC "-//W3C//DTD SVG 1.1//EN"
  "http://www.w3.org/Graphics/SVG/1.1/DTD/svg11.dtd">
<svg xmlns:xlink="http://www.w3.org/1999/xlink" width="288pt" height="120pt" viewBox="0 0 288 120" xmlns="http://www.w3.org/2000/svg" version="1.1">
<desc id="nav-meta">{"window":"3m","count":4,"labels":["29.01","28.02","29.03","28.04"],"tick_utc":["2026-01-29T12:00:00Z","2026-02-28T03:01:05Z","2026-03-29T03:47:09Z","2026-04-28T04:25:03Z"],"w":720,"h":300}</desc>

 <metadata>
  <rdf:RDF xmlns:dc="http://purl.org/dc/elements/1.1/" xmlns:cc="http://creativecommons.org/ns#" xmlns:rdf="http://www.w3.org/1999/02/22-rdf-syntax-ns#">
   <cc:Work>
    <dc:type rdf:resource="http://purl.org/dc/dcmitype/StillImage"/>
    <dc:date>2026-04-28T20:05:25.309755</dc:date>
    <dc:format>image/svg+xml</dc:format>
    <dc:creator>
     <cc:Agent>
      <dc:title>Matplotlib v3.10.9, https://matplotlib.org/</dc:title>
     </cc:Agent>
    </dc:creator>
   </cc:Work>
  </rdf:RDF>
 </metadata>
 <defs>
  <style type="text/css">*{stroke-linejoin: round; stroke-linecap: butt}</style>
 </defs>
 <g id="figure_1">
  <g id="patch_1">
   <path d="M 0 120 
L 288 120 
L 288 0 
L 0 0 
L 0 120 
z
" style="fill: none; opacity: 0"/>
  </g>
  <g id="axes_1">
   <g id="patch_2">
    <path d="M 8.64 108 
L 279.36 108 
L 279.36 4.8 
L 8.64 4.8 
L 8.64 108 
z
" style="fill: none"/>
   </g>
   <g id="matplotlib.axis_1"/>
   <g id="matplotlib.axis_2"/>
   <g id="line2d_1">
    <path d="M 8.64 87.36 
L 279.36 87.36 
" clip-path="url(#p7eee8aa604)" style="fill: none; stroke: #b2b2b2; stroke-opacity: 0.35; stroke-width: 0.5; stroke-linecap: square"/>
   </g>
   <g id="line2d_2">
    <path d="M 8.64 66.72 
L 279.36 66.72 
" clip-path="url(#p7eee8aa604)" style="fill: none; stroke: #b2b2b2; stroke-opacity: 0.35; stroke-width: 0.5; stroke-linecap: square"/>
   </g>
   <g id="line2d_3">
    <path d="M 8.64 46.08 
L 279.36 46.08 
" clip-path="url(#p7eee8aa604)" style="fill: none; stroke: #b2b2b2; stroke-opacity: 0.35; stroke-width: 0.5; stroke-linecap: square"/>
   </g>
   <g id="line2d_4">
    <path d="M 8.64 25.44 
L 279.36 25.44 
" clip-path="url(#p7eee8aa604)" style="fill: none; stroke: #b2b2b2; stroke-opacity: 0.35; stroke-width: 0.5; stroke-linecap: square"/>
   </g>
   <g id="line2d_5">
    <path d="M 8.64 92.33424 
L 11.692634 94.36728 
L 14.745268 94.46016 
L 17.797903 97.71096 
L 20.850537 98.48496 
L 23.903171 97.85544 
L 26.48028 99.10416 
L 28.90617 100.16712 
L 31.957249 102.23112 
L 34.996811 100.54896 
L 38.119225 100.70376 
L 41.146668 100.68312 
L 44.21672 100.95144 
L 47.26303 101.28168 
L 50.304676 101.71512 
L 53.356392 101.84928 
L 56.372316 101.034 
L 59.263875 100.54896 
L 62.512316 101.04432 
L 65.181498 100.81728 
L 68.612744 101.034 
L 71.661668 101.4984 
L 74.69646 101.33328 
L 77.730439 101.1372 
L 80.817945 101.06496 
L 83.879766 102.09696 
L 86.674516 102.05568 
L 89.974046 101.4984 
L 93.013077 100.60056 
L 96.059917 100.80696 
L 99.076584 101.45712 
L 102.198574 100.55928 
L 105.219692 101.10624 
L 108.279428 100.8792 
L 111.314962 100.74504 
L 114.374168 100.21872 
L 117.425353 100.53864 
L 120.454563 101.07528 
L 123.53684 101.38488 
L 126.598625 101.26104 
L 129.63165 100.78632 
L 132.683083 100.91016 
L 135.74773 100.99272 
L 138.794464 100.38384 
L 141.843035 100.50768 
L 144.954072 100.60056 
L 148.015327 99.76464 
L 151.01454 99.49632 
L 154.090458 99.40344 
L 157.14394 100.09488 
L 160.16686 100.3632 
L 163.201617 100.19808 
L 166.299899 100.47672 
L 169.359705 100.79664 
L 172.384074 100.26 
L 175.664066 99.83688 
L 178.526476 100.13616 
L 181.582961 100.80696 
L 184.606412 101.38488 
L 187.700631 101.3436 
L 190.761992 101.292 
L 193.795371 101.28168 
L 196.874185 101.28168 
L 199.886612 101.8596 
L 202.942744 101.88024 
L 205.969233 101.72544 
L 209.067834 101.68416 
L 212.128347 101.47776 
L 215.16116 101.78736 
L 218.218741 101.09592 
L 221.26074 101.46744 
L 224.341463 101.3436 
L 227.347424 101.05464 
L 230.454822 101.3952 
L 233.523108 101.47776 
L 236.55631 100.86888 
L 239.606612 101.26104 
L 242.67246 100.99272 
L 245.718876 100.61088 
L 248.737839 100.44576 
L 251.830787 100.94112 
L 254.890982 101.09592 
L 257.930225 101.00304 
L 260.973391 100.69344 
L 264.038391 100.9308 
L 267.099116 100.92048 
L 270.115324 100.81728 
L 273.215443 100.8792 
L 276.300971 100.64184 
L 279.36 101.1888 
" clip-path="url(#p7eee8aa604)" style="fill: none; stroke: #bebebe; stroke-width: 0.5; stroke-linecap: round"/>
   </g>
   <g id="line2d_6">
    <path d="M 8.64 74.96568 
L 11.692634 77.75208 
L 14.745268 79.48584 
L 17.797903 83.31456 
L 20.850537 85.90488 
L 23.903171 84.79032 
L 26.48028 85.84296 
L 28.90617 88.25784 
L 31.957249 91.41576 
L 34.996811 88.7532 
L 38.119225 88.65 
L 41.146668 88.55712 
L 44.21672 88.96992 
L 47.26303 89.7336 
L 50.304676 90.456 
L 53.356392 90.56952 
L 56.372316 89.15568 
L 59.263875 88.9596 
L 62.512316 90.6624 
L 65.181498 89.94 
L 68.612744 90.00192 
L 71.661668 90.3528 
L 74.69646 90.62112 
L 77.730439 90.5076 
L 80.817945 90.3528 
L 83.879766 92.004 
L 86.674516 92.13816 
L 89.974046 91.25064 
L 93.013077 89.166 
L 96.059917 89.56848 
L 99.076584 90.93072 
L 102.198574 89.41368 
L 105.219692 90.37344 
L 108.279428 89.79552 
L 111.314962 90.23928 
L 114.374168 88.0824 
L 117.425353 88.7532 
L 120.454563 90.16704 
L 123.53684 90.67272 
L 126.598625 90.18768 
L 129.63165 89.2692 
L 132.683083 89.54784 
L 135.74773 89.49624 
L 138.794464 88.31976 
L 141.843035 88.45392 
L 144.954072 88.46424 
L 148.015327 86.38992 
L 151.01454 84.80064 
L 154.090458 84.8316 
L 157.14394 86.586 
L 160.16686 87.74184 
L 163.201617 87.618 
L 166.299899 88.19592 
L 169.359705 89.08344 
L 172.384074 87.89664 
L 175.664066 87.3084 
L 178.526476 87.65928 
L 181.582961 88.96992 
L 184.606412 90.07416 
L 187.700631 89.76456 
L 190.761992 89.3724 
L 193.795371 89.00088 
L 196.874185 88.42296 
L 199.886612 88.81512 
L 202.942744 89.10408 
L 205.969233 89.14536 
L 209.067834 89.07312 
L 212.128347 87.9792 
L 215.16116 88.29912 
L 218.218741 86.38992 
L 221.26074 87.24648 
L 224.341463 87.1536 
L 227.347424 86.21448 
L 230.454822 86.66856 
L 233.523108 87.01944 
L 236.55631 84.44976 
L 239.606612 85.05864 
L 242.67246 84.58392 
L 245.718876 85.04832 
L 248.737839 83.71704 
L 251.830787 84.86256 
L 254.890982 85.6572 
L 257.930225 85.27536 
L 260.973391 84.49104 
L 264.038391 84.86256 
L 267.099116 85.32696 
L 270.115324 85.17216 
L 273.215443 85.31664 
L 276.300971 84.11952 
L 279.36 85.66752 
" clip-path="url(#p7eee8aa604)" style="fill: none; stroke: #4a8dff; stroke-width: 0.6"/>
   </g>
   <g id="line2d_7">
    <path d="M 8.64 84.32592 
L 11.692634 89.08344 
L 14.745268 89.5272 
L 17.797903 95.14128 
L 20.850537 96.98856 
L 23.903171 95.08968 
L 26.48028 97.71096 
L 28.90617 99.80592 
L 31.957249 101.79768 
L 34.996811 100.03296 
L 38.119225 100.518 
L 41.146668 99.98136 
L 44.21672 100.49736 
L 47.26303 100.78632 
L 50.304676 101.07528 
L 53.356392 101.26104 
L 56.372316 100.63152 
L 59.263875 100.38384 
L 62.512316 100.84824 
L 65.181498 100.65216 
L 68.612744 101.034 
L 71.661668 101.19912 
L 74.69646 101.10624 
L 77.730439 100.97208 
L 80.817945 100.91016 
L 83.879766 101.7564 
L 86.674516 101.84928 
L 89.974046 101.56032 
L 93.013077 100.85856 
L 96.059917 101.12688 
L 99.076584 101.4468 
L 102.198574 101.02368 
L 105.219692 101.30232 
L 108.279428 100.81728 
L 111.314962 100.79664 
L 114.374168 99.3312 
L 117.425353 99.92976 
L 120.454563 100.78632 
L 123.53684 101.17848 
L 126.598625 101.1372 
L 129.63165 100.21872 
L 132.683083 100.37352 
L 135.74773 100.4664 
L 138.794464 99.88848 
L 141.843035 99.94008 
L 144.954072 99.81624 
L 148.015327 98.93904 
L 151.01454 98.3508 
L 154.090458 98.52624 
L 157.14394 99.78528 
L 160.16686 100.12584 
L 163.201617 100.03296 
L 166.299899 100.45608 
L 169.359705 100.83792 
L 172.384074 100.11552 
L 175.664066 99.87816 
L 178.526476 100.002 
L 181.582961 100.64184 
L 184.606412 101.41584 
L 187.700631 101.21976 
L 190.761992 101.14752 
L 193.795371 101.00304 
L 196.874185 100.86888 
L 199.886612 101.21976 
L 202.942744 101.28168 
L 205.969233 101.20944 
L 209.067834 101.14752 
L 212.128347 100.55928 
L 215.16116 100.65216 
L 218.218741 99.80592 
L 221.26074 99.96072 
L 224.341463 99.6408 
L 227.347424 99.1764 
L 230.454822 99.70272 
L 233.523108 99.94008 
L 236.55631 98.57784 
L 239.606612 98.65008 
L 242.67246 98.38176 
L 245.718876 98.48496 
L 248.737839 96.70992 
L 251.830787 98.05152 
L 254.890982 98.48496 
L 257.930225 97.96896 
L 260.973391 96.32808 
L 264.038391 96.20424 
L 267.099116 96.16296 
L 270.115324 96.1836 
L 273.215443 96.50352 
L 276.300971 94.76976 
L 279.36 97.19496 
" clip-path="url(#p7eee8aa604)" style="fill: none; stroke: #f5841e; stroke-width: 0.6"/>
   </g>
  </g>
 </g>
 <defs>
  <clipPath id="p7eee8aa604">
   <rect x="8.64" y="4.8" width="270.72" height="103.2"/>
  </clipPath>
 </defs>
</svg>
