<?xml version="1.0" encoding="utf-8" standalone="no"?>
<!DOCTYPE svg PUBLIC "-//W3C//DTD SVG 1.1//EN"
  "http://www.w3.org/Graphics/SVG/1.1/DTD/svg11.dtd">
<svg xmlns:xlink="http://www.w3.org/1999/xlink" width="288pt" height="120pt" viewBox="0 0 288 120" xmlns="http://www.w3.org/2000/svg" version="1.1">
<desc id="nav-meta">{"window":"1m","count":4,"labels":["25.05","04.06","14.06","24.06"],"tick_utc":["2026-05-25T05:10:23Z","2026-06-04T05:26:51Z","2026-06-14T05:19:47Z","2026-06-24T04:50:37Z"],"w":720,"h":300}</desc>

 <metadata>
  <rdf:RDF xmlns:dc="http://purl.org/dc/elements/1.1/" xmlns:cc="http://creativecommons.org/ns#" xmlns:rdf="http://www.w3.org/1999/02/22-rdf-syntax-ns#">
   <cc:Work>
    <dc:type rdf:resource="http://purl.org/dc/dcmitype/StillImage"/>
    <dc:date>2026-06-24T04:50:39.678178</dc:date>
    <dc:format>image/svg+xml</dc:format>
    <dc:creator>
     <cc:Agent>
      <dc:title>Matplotlib v3.11.0, https://matplotlib.org/</dc:title>
     </cc:Agent>
    </dc:creator>
   </cc:Work>
  </rdf:RDF>
 </metadata>
 <defs>
  <style type="text/css">*{stroke-linejoin: round; stroke-linecap: butt}</style>
 </defs>
 <g id="figure_1">
  <g id="patch_1">
   <path d="M 0 120 
L 288 120 
L 288 0 
L 0 0 
L 0 120 
z
" style="fill: none; opacity: 0"/>
  </g>
  <g id="axes_1">
   <g id="patch_2">
    <path d="M 8.64 108 
L 279.36 108 
L 279.36 4.8 
L 8.64 4.8 
L 8.64 108 
z
" style="fill: none"/>
   </g>
   <g id="matplotlib.axis_1"/>
   <g id="matplotlib.axis_2"/>
   <g id="line2d_1">
    <path d="M 8.64 87.36 
L 279.36 87.36 
" clip-path="url(#p323bae92d0)" style="fill: none; stroke: #b2b2b2; stroke-opacity: 0.35; stroke-width: 0.5; stroke-linecap: square"/>
   </g>
   <g id="line2d_2">
    <path d="M 8.64 66.72 
L 279.36 66.72 
" clip-path="url(#p323bae92d0)" style="fill: none; stroke: #b2b2b2; stroke-opacity: 0.35; stroke-width: 0.5; stroke-linecap: square"/>
   </g>
   <g id="line2d_3">
    <path d="M 8.64 46.08 
L 279.36 46.08 
" clip-path="url(#p323bae92d0)" style="fill: none; stroke: #b2b2b2; stroke-opacity: 0.35; stroke-width: 0.5; stroke-linecap: square"/>
   </g>
   <g id="line2d_4">
    <path d="M 8.64 25.44 
L 279.36 25.44 
" clip-path="url(#p323bae92d0)" style="fill: none; stroke: #b2b2b2; stroke-opacity: 0.35; stroke-width: 0.5; stroke-linecap: square"/>
   </g>
   <g id="line2d_5">
    <path d="M 8.64 100.89984 
L 17.531351 101.1372 
L 26.652166 101.2404 
L 35.651457 101.6532 
L 44.686276 101.4984 
L 53.584209 101.48808 
L 62.796664 101.32296 
L 71.958336 101.51904 
L 80.897649 101.7048 
L 90.027346 102.54072 
L 99.024548 103.08768 
L 107.903986 103.36632 
L 116.793351 104.22288 
L 126.015524 103.85136 
L 135.083571 103.68624 
L 143.939394 103.43856 
L 153.06115 103.81008 
L 162.142259 103.72752 
L 171.205813 103.50048 
L 180.167905 103.5108 
L 189.261552 103.31472 
L 198.589785 102.95352 
L 207.66943 102.61296 
L 216.409999 102.6336 
L 225.39487 102.9948 
L 234.635643 103.28376 
L 243.302753 103.01544 
L 252.518761 102.69552 
L 261.811153 102.582 
L 270.299581 102.88128 
L 279.36 103.15992 
" clip-path="url(#p323bae92d0)" style="fill: none; stroke: #bebebe; stroke-width: 0.5; stroke-linecap: round"/>
   </g>
   <g id="line2d_6">
    <path d="M 8.64 88.33008 
L 17.531351 88.52616 
L 26.652166 88.86672 
L 35.651457 90.22896 
L 44.686276 89.82648 
L 53.584209 89.87808 
L 62.796664 89.46528 
L 71.958336 90.0432 
L 80.897649 89.96064 
L 90.027346 91.99368 
L 99.024548 93.05664 
L 107.903986 93.74808 
L 116.793351 97.02984 
L 126.015524 95.93592 
L 135.083571 95.07936 
L 143.939394 94.46016 
L 153.06115 95.47152 
L 162.142259 95.11032 
L 171.205813 94.82136 
L 180.167905 94.8936 
L 189.261552 94.70784 
L 198.589785 94.04736 
L 207.66943 93.40752 
L 216.409999 92.9844 
L 225.39487 93.93384 
L 234.635643 94.4292 
L 243.302753 94.19184 
L 252.518761 93.87192 
L 261.811153 93.81 
L 270.299581 94.03704 
L 279.36 94.83168 
" clip-path="url(#p323bae92d0)" style="fill: none; stroke: #4a8dff; stroke-width: 0.6"/>
   </g>
   <g id="line2d_7">
    <path d="M 8.64 96.61704 
L 17.531351 97.23624 
L 26.652166 98.08248 
L 35.651457 99.18672 
L 44.686276 99.03192 
L 53.584209 99.1248 
L 62.796664 98.74296 
L 71.958336 99.09384 
L 80.897649 100.0536 
L 90.027346 101.23008 
L 99.024548 101.99376 
L 107.903986 102.08664 
L 116.793351 102.8916 
L 126.015524 102.45816 
L 135.083571 102.28272 
L 143.939394 102.10728 
L 153.06115 102.582 
L 162.142259 102.29304 
L 171.205813 102.08664 
L 180.167905 102.066 
L 189.261552 101.86992 
L 198.589785 101.48808 
L 207.66943 101.40552 
L 216.409999 101.4984 
L 225.39487 101.97312 
L 234.635643 102.26208 
L 243.302753 102.066 
L 252.518761 101.90088 
L 261.811153 101.90088 
L 270.299581 102.0144 
L 279.36 102.25176 
" clip-path="url(#p323bae92d0)" style="fill: none; stroke: #f5841e; stroke-width: 0.6"/>
   </g>
  </g>
 </g>
 <defs>
  <clipPath id="p323bae92d0">
   <rect x="8.64" y="4.8" width="270.72" height="103.2"/>
  </clipPath>
 </defs>
</svg>
