<?xml version="1.0" encoding="utf-8" standalone="no"?>
<!DOCTYPE svg PUBLIC "-//W3C//DTD SVG 1.1//EN"
  "http://www.w3.org/Graphics/SVG/1.1/DTD/svg11.dtd">
<svg xmlns:xlink="http://www.w3.org/1999/xlink" width="288pt" height="120pt" viewBox="0 0 288 120" xmlns="http://www.w3.org/2000/svg" version="1.1">
<desc id="nav-meta">{"window":"1y","count":4,"labels":["05.06","05.10","03.02","05.06"],"tick_utc":["2025-06-05T12:00:00Z","2025-10-05T12:00:00Z","2026-02-03T12:00:00Z","2026-06-05T05:03:08Z"],"w":720,"h":300}</desc>

 <metadata>
  <rdf:RDF xmlns:dc="http://purl.org/dc/elements/1.1/" xmlns:cc="http://creativecommons.org/ns#" xmlns:rdf="http://www.w3.org/1999/02/22-rdf-syntax-ns#">
   <cc:Work>
    <dc:type rdf:resource="http://purl.org/dc/dcmitype/StillImage"/>
    <dc:date>2026-06-05T10:35:37.243522</dc:date>
    <dc:format>image/svg+xml</dc:format>
    <dc:creator>
     <cc:Agent>
      <dc:title>Matplotlib v3.10.9, https://matplotlib.org/</dc:title>
     </cc:Agent>
    </dc:creator>
   </cc:Work>
  </rdf:RDF>
 </metadata>
 <defs>
  <style type="text/css">*{stroke-linejoin: round; stroke-linecap: butt}</style>
 </defs>
 <g id="figure_1">
  <g id="patch_1">
   <path d="M 0 120 
L 288 120 
L 288 0 
L 0 0 
L 0 120 
z
" style="fill: none; opacity: 0"/>
  </g>
  <g id="axes_1">
   <g id="patch_2">
    <path d="M 8.64 108 
L 279.36 108 
L 279.36 4.8 
L 8.64 4.8 
L 8.64 108 
z
" style="fill: none"/>
   </g>
   <g id="matplotlib.axis_1"/>
   <g id="matplotlib.axis_2"/>
   <g id="line2d_1">
    <path d="M 8.64 87.36 
L 279.36 87.36 
" clip-path="url(#pb764d6cfb1)" style="fill: none; stroke: #b2b2b2; stroke-opacity: 0.35; stroke-width: 0.5; stroke-linecap: square"/>
   </g>
   <g id="line2d_2">
    <path d="M 8.64 66.72 
L 279.36 66.72 
" clip-path="url(#pb764d6cfb1)" style="fill: none; stroke: #b2b2b2; stroke-opacity: 0.35; stroke-width: 0.5; stroke-linecap: square"/>
   </g>
   <g id="line2d_3">
    <path d="M 8.64 46.08 
L 279.36 46.08 
" clip-path="url(#pb764d6cfb1)" style="fill: none; stroke: #b2b2b2; stroke-opacity: 0.35; stroke-width: 0.5; stroke-linecap: square"/>
   </g>
   <g id="line2d_4">
    <path d="M 8.64 25.44 
L 279.36 25.44 
" clip-path="url(#pb764d6cfb1)" style="fill: none; stroke: #b2b2b2; stroke-opacity: 0.35; stroke-width: 0.5; stroke-linecap: square"/>
   </g>
   <g id="line2d_5">
    <path d="M 8.64 84.55296 
L 9.382287 87.00912 
L 10.124575 85.98744 
L 10.866862 85.5024 
L 11.609149 84.8316 
L 12.351437 82.46832 
L 13.093724 81.426 
L 13.836011 82.5096 
L 14.578299 84.79032 
L 16.062874 86.95752 
L 16.805161 84.79032 
L 17.547448 85.13088 
L 18.289736 86.07 
L 19.032023 86.5344 
L 19.77431 86.31768 
L 21.258885 89.97096 
L 22.001172 90.48696 
L 22.74346 86.9472 
L 23.485747 86.66856 
L 24.228034 87.32904 
L 24.970322 88.53648 
L 25.712609 87.6696 
L 26.454897 85.30632 
L 27.197184 84.61488 
L 27.939471 84.17112 
L 28.681759 86.3796 
L 29.424046 84.92448 
L 30.166333 84.89352 
L 30.908621 86.13192 
L 31.650908 86.1732 
L 32.393195 84.99672 
L 33.135483 85.85328 
L 33.87777 85.01736 
L 34.620057 83.55192 
L 35.362345 81.7356 
L 36.104632 82.03488 
L 36.84692 82.65408 
L 38.331494 82.15872 
L 39.073782 81.70464 
L 39.816069 79.01112 
L 40.558356 78.39192 
L 41.300644 78.04104 
L 42.042931 78.16488 
L 42.785218 77.05032 
L 43.527506 72.82944 
L 44.269793 70.41456 
L 45.01208 74.69736 
L 45.754368 76.6272 
L 46.496655 75.63648 
L 47.238943 75.97704 
L 47.98123 74.976 
L 48.723517 76.49304 
L 49.465805 76.99872 
L 50.208092 77.90688 
L 50.950379 79.4652 
L 51.692667 82.02456 
L 52.434954 83.19072 
L 53.177241 82.27224 
L 53.919529 80.21856 
L 54.661816 81.67368 
L 55.404103 80.5488 
L 56.146391 78.588 
L 56.888678 78.19584 
L 57.630966 77.21544 
L 58.373253 76.524 
L 59.11554 78.68088 
L 59.857828 73.88208 
L 60.600115 71.364 
L 61.342402 73.8408 
L 62.08469 75.79128 
L 62.826977 74.65608 
L 63.569264 74.14008 
L 64.311552 76.50336 
L 65.053839 78.30936 
L 65.796126 75.3372 
L 66.538414 77.25672 
L 67.280701 71.78712 
L 68.022989 70.75512 
L 68.765276 70.24944 
L 69.507563 75.35784 
L 70.249851 72.95328 
L 70.992138 70.96152 
L 71.734425 67.87584 
L 72.476713 70.46616 
L 73.219 71.11632 
L 73.961287 71.61168 
L 74.703575 72.7056 
L 75.445862 69.33096 
L 76.188149 68.9388 
L 76.930437 71.12664 
L 77.672724 70.90992 
L 78.415012 71.80776 
L 79.157299 70.074 
L 79.899586 68.01 
L 80.641874 67.10184 
L 81.384161 65.29584 
L 82.126448 64.01616 
L 82.868736 60.31128 
L 83.611023 60.19776 
L 84.35331 60.786 
L 85.095598 62.61264 
L 85.837885 61.74576 
L 86.580172 59.57856 
L 87.32246 58.86648 
L 88.064747 61.38456 
L 88.807035 61.07496 
L 89.549322 61.83864 
L 90.291609 66.29688 
L 91.033897 67.97904 
L 91.776184 68.69112 
L 92.518471 73.9956 
L 93.260759 70.45584 
L 94.003046 70.87896 
L 94.745333 68.91816 
L 95.487621 68.3196 
L 96.229908 69.47544 
L 97.714483 62.39592 
L 98.45677 62.81904 
L 99.199058 64.22256 
L 99.941345 64.05744 
L 100.683632 62.9532 
L 101.42592 66.14208 
L 102.168207 63.91296 
L 102.910494 66.17304 
L 103.652782 74.6148 
L 104.395069 77.78304 
L 105.137356 72.66432 
L 105.879644 69.69216 
L 106.621931 71.09568 
L 108.106506 76.06992 
L 108.848793 76.76136 
L 109.591081 75.25464 
L 110.333368 75.24432 
L 111.075655 74.63544 
L 111.817943 75.73968 
L 112.56023 77.31864 
L 113.302517 74.202 
L 114.044805 73.64472 
L 114.787092 73.48992 
L 115.529379 71.83872 
L 116.271667 72.17928 
L 117.013954 73.38672 
L 117.756241 73.43832 
L 118.498529 76.15248 
L 119.240816 75.3372 
L 119.983104 75.58488 
L 120.725391 75.35784 
L 121.467678 81.168 
L 122.209966 84.01632 
L 122.952253 82.06584 
L 123.69454 84.19176 
L 124.436828 82.27224 
L 125.179115 83.29392 
L 125.921402 81.62208 
L 126.66369 80.72424 
L 127.405977 84.33624 
L 128.148264 84.64584 
L 128.890552 86.844 
L 129.632839 88.52616 
L 130.375127 88.36104 
L 131.117414 88.93896 
L 131.859701 90.79656 
L 132.601989 88.09272 
L 133.344276 89.22792 
L 134.086563 90.00192 
L 134.828851 91.39512 
L 135.571138 91.63248 
L 136.313425 90.75528 
L 137.055713 88.7016 
L 137.798 88.52616 
L 138.540287 87.45288 
L 139.282575 88.0308 
L 140.024862 88.94928 
L 141.509437 89.7336 
L 142.251724 91.86984 
L 142.994012 88.60872 
L 143.736299 86.87496 
L 145.220874 90.11544 
L 146.705448 90.53856 
L 147.447736 90.08448 
L 148.190023 88.79448 
L 148.93231 89.20728 
L 149.674598 89.22792 
L 150.416885 90.31152 
L 151.159173 90.10512 
L 151.90146 91.09584 
L 152.643747 91.61184 
L 153.386035 91.31256 
L 154.128322 92.87088 
L 154.870609 93.8616 
L 155.612897 92.02464 
L 156.355184 92.13816 
L 157.097471 92.07624 
L 157.839759 92.14848 
L 160.066621 93.69648 
L 161.551196 92.44776 
L 162.293483 92.30328 
L 163.03577 92.87088 
L 163.778058 92.38584 
L 164.520345 92.47872 
L 165.262632 91.88016 
L 166.00492 90.42504 
L 166.747207 90.08448 
L 167.489494 89.92968 
L 168.231782 88.76352 
L 168.974069 87.94824 
L 169.716356 89.2692 
L 170.458644 88.72224 
L 171.200931 89.39304 
L 171.943219 89.40336 
L 172.685506 88.41264 
L 173.427793 88.4952 
L 174.170081 86.86464 
L 174.912368 86.42088 
L 175.654655 87.62832 
L 176.396943 86.93688 
L 177.13923 87.23616 
L 178.623805 90.0432 
L 179.366092 92.12784 
L 180.108379 91.16808 
L 181.592954 91.73568 
L 182.335242 91.78728 
L 183.077529 94.0164 
L 183.819816 92.5716 
L 184.562104 91.76664 
L 185.304391 92.33424 
L 186.046678 94.36728 
L 186.788966 94.46016 
L 187.531253 97.71096 
L 188.27354 98.48496 
L 189.015828 97.85544 
L 190.232371 100.16712 
L 190.974281 102.23112 
L 191.713389 100.54896 
L 192.472645 100.70376 
L 193.208806 100.68312 
L 194.696079 101.28168 
L 195.435694 101.71512 
L 196.177758 101.84928 
L 196.911119 101.034 
L 197.614239 100.54896 
L 198.404139 101.04432 
L 199.053185 100.81728 
L 199.887537 101.034 
L 200.628922 101.4984 
L 202.855389 101.06496 
L 203.59991 102.09696 
L 204.27949 102.05568 
L 205.081813 101.4984 
L 205.820793 100.60056 
L 206.561671 100.80696 
L 207.295212 101.45712 
L 208.054364 100.55928 
L 208.788988 101.10624 
L 210.271132 100.74504 
L 211.015017 100.21872 
L 211.756952 100.53864 
L 212.493544 101.07528 
L 213.243039 101.38488 
L 213.987551 101.26104 
L 214.725071 100.78632 
L 216.212274 100.99272 
L 216.953127 100.38384 
L 218.450915 100.60056 
L 219.195299 99.76464 
L 219.924596 99.49632 
L 220.672545 99.40344 
L 221.415039 100.09488 
L 222.150101 100.3632 
L 222.888041 100.19808 
L 224.385459 100.79664 
L 225.120874 100.26 
L 225.918446 99.83688 
L 226.614478 100.13616 
L 228.092893 101.38488 
L 231.07596 101.28168 
L 231.808471 101.8596 
L 232.551608 101.88024 
L 233.287538 101.72544 
L 234.041003 101.68416 
L 234.785206 101.47776 
L 235.522674 101.78736 
L 236.266164 101.09592 
L 237.005865 101.46744 
L 237.754983 101.3436 
L 238.485921 101.05464 
L 239.241525 101.3952 
L 239.987618 101.47776 
L 240.72518 100.86888 
L 241.466901 101.26104 
L 243.687276 100.44576 
L 244.439366 100.94112 
L 245.183492 101.09592 
L 245.922523 101.00304 
L 246.662508 100.69344 
L 247.407803 100.9308 
L 249.639321 100.8792 
L 250.389607 100.64184 
L 251.133449 101.1888 
L 251.873709 101.09592 
L 252.617242 101.37456 
L 253.36764 101.21976 
L 254.84834 101.23008 
L 255.590369 100.92048 
L 256.316308 101.06496 
L 257.071671 100.70376 
L 257.814156 100.55928 
L 258.544089 100.53864 
L 259.289091 99.60984 
L 260.046336 99.72336 
L 261.52646 99.25896 
L 262.272279 99.32088 
L 263.013741 100.22904 
L 263.759689 100.01232 
L 265.24587 100.75536 
L 265.995365 101.02368 
L 266.732335 101.02368 
L 267.477277 101.17848 
L 268.223791 100.7244 
L 268.960391 100.75536 
L 269.69248 101.11656 
L 270.446521 100.91016 
L 271.198576 100.89984 
L 271.929618 101.1372 
L 272.679525 101.2404 
L 273.419442 101.6532 
L 274.162279 101.4984 
L 274.893861 101.48808 
L 275.651304 101.32296 
L 277.139556 101.7048 
L 277.890194 102.54072 
L 278.629938 103.08768 
L 279.36 103.36632 
L 279.36 103.36632 
" clip-path="url(#pb764d6cfb1)" style="fill: none; stroke: #bebebe; stroke-width: 0.5; stroke-linecap: round"/>
   </g>
   <g id="line2d_6">
    <path d="M 8.64 80.84808 
L 9.382287 83.6448 
L 10.124575 82.7676 
L 10.866862 82.0968 
L 11.609149 82.3548 
L 12.351437 79.74384 
L 13.093724 77.90688 
L 13.836011 78.39192 
L 14.578299 80.21856 
L 15.320586 81.34344 
L 16.062874 81.98328 
L 17.547448 81.5808 
L 18.289736 82.26192 
L 19.77431 82.15872 
L 20.516598 83.88216 
L 21.258885 85.89456 
L 22.001172 86.5344 
L 22.74346 83.61384 
L 23.485747 83.2836 
L 24.228034 83.71704 
L 24.970322 83.748 
L 26.454897 83.41776 
L 27.197184 82.44768 
L 27.939471 82.6644 
L 28.681759 83.89248 
L 29.424046 81.38472 
L 30.166333 81.14736 
L 30.908621 82.34448 
L 31.650908 82.23096 
L 32.393195 81.426 
L 33.135483 81.8388 
L 33.87777 80.76552 
L 35.362345 75.83256 
L 36.104632 75.67776 
L 36.84692 75.91512 
L 38.331494 74.88312 
L 39.073782 73.09776 
L 39.816069 69.6096 
L 40.558356 67.91712 
L 41.300644 66.94704 
L 42.042931 66.24528 
L 42.785218 63.80976 
L 43.527506 63.70656 
L 44.269793 63.9852 
L 45.01208 65.71896 
L 45.754368 64.5528 
L 47.238943 64.05744 
L 47.98123 62.25144 
L 48.723517 63.39696 
L 49.465805 63.366 
L 50.208092 63.08736 
L 50.950379 64.72824 
L 51.692667 67.89648 
L 52.434954 69.16584 
L 53.177241 67.69008 
L 53.919529 64.4496 
L 54.661816 65.97696 
L 55.404103 64.914 
L 56.146391 61.54968 
L 56.888678 60.04296 
L 57.630966 56.28648 
L 58.373253 56.47224 
L 59.11554 56.83344 
L 59.857828 51.22968 
L 60.600115 48.89736 
L 61.342402 52.00368 
L 62.08469 53.84064 
L 62.826977 53.90256 
L 63.569264 53.00472 
L 64.311552 55.5228 
L 65.053839 59.12448 
L 65.796126 55.32672 
L 66.538414 56.90568 
L 67.280701 47.92728 
L 68.022989 48.75288 
L 68.765276 48.68064 
L 69.507563 54.57336 
L 70.249851 51.2916 
L 70.992138 52.80864 
L 71.734425 52.69512 
L 72.476713 54.82104 
L 73.961287 54.45984 
L 74.703575 55.7292 
L 75.445862 55.39896 
L 76.188149 53.55168 
L 76.930437 55.81176 
L 77.672724 55.6776 
L 78.415012 56.18328 
L 79.157299 55.71888 
L 80.641874 55.63632 
L 81.384161 55.07904 
L 82.126448 53.41752 
L 82.868736 49.71264 
L 83.611023 50.32152 
L 84.35331 51.17808 
L 85.095598 52.44744 
L 85.837885 52.74672 
L 86.580172 51.4464 
L 87.32246 51.46704 
L 88.064747 53.2524 
L 88.807035 53.08728 
L 89.549322 53.5104 
L 90.291609 57.26688 
L 91.033897 57.76224 
L 91.776184 58.02024 
L 92.518471 62.26176 
L 93.260759 59.68176 
L 94.003046 59.9604 
L 94.745333 58.12344 
L 95.487621 57.02952 
L 96.229908 58.09248 
L 96.972195 55.13064 
L 97.714483 53.046 
L 98.45677 52.5816 
L 99.199058 52.9944 
L 99.941345 52.5816 
L 100.683632 50.0016 
L 101.42592 53.48976 
L 102.168207 52.40616 
L 102.910494 54.75912 
L 103.652782 62.67456 
L 104.395069 63.95424 
L 105.137356 57.86544 
L 105.879644 56.57544 
L 106.621931 58.31952 
L 107.364218 60.4764 
L 108.106506 61.85928 
L 108.848793 62.73648 
L 109.591081 61.8696 
L 110.333368 60.45576 
L 111.075655 60.54864 
L 111.817943 62.04504 
L 112.56023 63.16992 
L 113.302517 62.36496 
L 114.044805 61.21944 
L 114.787092 60.9408 
L 115.529379 57.83448 
L 116.271667 58.40208 
L 117.013954 60.49704 
L 118.498529 63.1596 
L 119.240816 62.49912 
L 119.983104 62.1276 
L 120.725391 61.56 
L 122.209966 70.66224 
L 122.952253 68.72208 
L 123.69454 70.4868 
L 124.436828 68.61888 
L 125.179115 69.11424 
L 125.921402 66.5136 
L 126.66369 66.68904 
L 127.405977 68.8872 
L 128.148264 68.9904 
L 128.890552 71.5704 
L 129.632839 73.48992 
L 130.375127 72.54048 
L 131.859701 74.74896 
L 132.601989 73.3248 
L 133.344276 74.80056 
L 134.086563 77.556 
L 134.828851 78.55704 
L 135.571138 78.50544 
L 136.313425 78.04104 
L 137.055713 75.76032 
L 137.798 75.73968 
L 138.540287 74.65608 
L 139.282575 74.83152 
L 140.024862 74.57352 
L 140.76715 75.20304 
L 141.509437 75.17208 
L 142.251724 78.05136 
L 143.736299 72.16896 
L 144.478586 73.08744 
L 145.220874 74.72832 
L 146.705448 74.28456 
L 147.447736 73.21128 
L 148.190023 70.2804 
L 148.93231 70.2288 
L 149.674598 71.56008 
L 150.416885 73.79952 
L 151.159173 73.35576 
L 151.90146 74.0988 
L 152.643747 75.5952 
L 153.386035 75.5952 
L 154.128322 77.61792 
L 154.870609 77.63856 
L 155.612897 75.40944 
L 156.355184 75.40944 
L 157.097471 75.04824 
L 157.839759 74.98632 
L 158.582046 75.58488 
L 159.324333 75.87384 
L 160.066621 76.49304 
L 161.551196 75.82224 
L 162.293483 75.84288 
L 163.03577 76.03896 
L 163.778058 75.51264 
L 164.520345 75.56424 
L 165.262632 75.05856 
L 166.00492 73.26288 
L 166.747207 73.20096 
L 167.489494 73.00488 
L 168.231782 71.68392 
L 168.974069 70.6932 
L 169.716356 72.62304 
L 170.458644 73.52088 
L 171.200931 73.83048 
L 171.943219 73.8408 
L 172.685506 73.29384 
L 173.427793 73.72728 
L 174.170081 70.32168 
L 174.912368 69.77472 
L 175.654655 70.34232 
L 176.396943 70.67256 
L 177.13923 70.51776 
L 177.881517 70.848 
L 178.623805 72.31344 
L 179.366092 76.01832 
L 180.108379 75.41976 
L 180.850667 75.83256 
L 182.335242 75.82224 
L 183.077529 77.82432 
L 183.819816 76.14216 
L 184.562104 74.75928 
L 185.304391 74.96568 
L 186.046678 77.75208 
L 186.788966 79.48584 
L 187.531253 83.31456 
L 188.27354 85.90488 
L 189.015828 84.79032 
L 189.642485 85.84296 
L 190.974281 91.41576 
L 191.713389 88.7532 
L 193.208806 88.55712 
L 193.955329 88.96992 
L 195.435694 90.456 
L 196.177758 90.56952 
L 196.911119 89.15568 
L 197.614239 88.9596 
L 198.404139 90.6624 
L 199.053185 89.94 
L 199.887537 90.00192 
L 201.366871 90.62112 
L 202.855389 90.3528 
L 203.59991 92.004 
L 204.27949 92.13816 
L 205.081813 91.25064 
L 205.820793 89.166 
L 206.561671 89.56848 
L 207.295212 90.93072 
L 208.054364 89.41368 
L 208.788988 90.37344 
L 209.533003 89.79552 
L 210.271132 90.23928 
L 211.015017 88.0824 
L 211.756952 88.7532 
L 212.493544 90.16704 
L 213.243039 90.67272 
L 213.987551 90.18768 
L 214.725071 89.2692 
L 215.467066 89.54784 
L 216.212274 89.49624 
L 216.953127 88.31976 
L 217.694426 88.45392 
L 218.450915 88.46424 
L 219.195299 86.38992 
L 219.924596 84.80064 
L 220.672545 84.8316 
L 221.415039 86.586 
L 222.150101 87.74184 
L 222.888041 87.618 
L 223.641428 88.19592 
L 224.385459 89.08344 
L 225.120874 87.89664 
L 225.918446 87.3084 
L 226.614478 87.65928 
L 228.092893 90.07416 
L 229.589701 89.3724 
L 230.327307 89.00088 
L 231.07596 88.42296 
L 232.551608 89.10408 
L 233.287538 89.14536 
L 234.041003 89.07312 
L 234.785206 87.9792 
L 235.522674 88.29912 
L 236.266164 86.38992 
L 237.005865 87.24648 
L 237.754983 87.1536 
L 238.485921 86.21448 
L 239.987618 87.01944 
L 240.72518 84.44976 
L 241.466901 85.05864 
L 242.212401 84.58392 
L 242.953176 85.04832 
L 243.687276 83.71704 
L 244.439366 84.86256 
L 245.183492 85.6572 
L 245.922523 85.27536 
L 246.662508 84.49104 
L 248.152057 85.32696 
L 248.885487 85.17216 
L 249.639321 85.31664 
L 250.389607 84.11952 
L 251.133449 85.66752 
L 251.873709 85.26504 
L 252.617242 86.26608 
L 254.090983 85.38888 
L 254.84834 85.3992 
L 255.590369 84.09888 
L 257.071671 84.34656 
L 258.544089 85.7604 
L 259.289091 85.0896 
L 260.794483 84.9348 
L 261.52646 85.296 
L 262.272279 85.35792 
L 263.013741 86.1732 
L 263.759689 85.92552 
L 265.24587 87.13296 
L 265.995365 88.10304 
L 266.732335 87.9276 
L 267.477277 88.26816 
L 268.223791 87.78312 
L 268.960391 87.95856 
L 269.69248 88.94928 
L 270.446521 88.14432 
L 271.929618 88.52616 
L 272.679525 88.86672 
L 273.419442 90.22896 
L 274.162279 89.82648 
L 274.893861 89.87808 
L 275.651304 89.46528 
L 276.404571 90.0432 
L 277.139556 89.96064 
L 277.890194 91.99368 
L 278.629938 93.05664 
L 279.36 93.74808 
L 279.36 93.74808 
" clip-path="url(#pb764d6cfb1)" style="fill: none; stroke: #4a8dff; stroke-width: 0.6"/>
   </g>
   <g id="line2d_7">
    <path d="M 8.64 68.1132 
L 9.382287 71.38464 
L 10.124575 68.526 
L 10.866862 67.21536 
L 11.609149 67.20504 
L 12.351437 62.46816 
L 13.093724 62.51976 
L 13.836011 64.10904 
L 14.578299 66.90576 
L 15.320586 66.83352 
L 16.062874 67.42176 
L 16.805161 67.3392 
L 17.547448 65.8944 
L 18.289736 68.24736 
L 19.77431 68.23704 
L 20.516598 69.69216 
L 21.258885 71.50848 
L 22.001172 72.21024 
L 22.74346 67.3908 
L 23.485747 66.90576 
L 24.228034 65.59512 
L 24.970322 65.86344 
L 25.712609 65.76024 
L 26.454897 65.50224 
L 27.197184 64.398 
L 27.939471 65.70864 
L 28.681759 67.2876 
L 29.424046 63.95424 
L 30.166333 63.14928 
L 30.908621 64.76952 
L 31.650908 64.58376 
L 32.393195 63.55176 
L 33.135483 64.5012 
L 33.87777 63.82008 
L 34.620057 61.36392 
L 35.362345 56.64768 
L 36.104632 54.89328 
L 36.84692 55.04808 
L 37.589207 53.29368 
L 38.331494 52.55064 
L 39.073782 54.77976 
L 39.816069 53.67552 
L 40.558356 52.95312 
L 41.300644 54.45984 
L 42.042931 54.55272 
L 42.785218 55.22352 
L 43.527506 54.98616 
L 44.269793 52.4268 
L 45.01208 53.79936 
L 45.754368 54.08832 
L 46.496655 54.92424 
L 47.238943 54.4908 
L 47.98123 52.98408 
L 48.723517 54.44952 
L 49.465805 54.60432 
L 50.208092 54.62496 
L 51.692667 59.38248 
L 52.434954 60.09456 
L 53.177241 58.39176 
L 53.919529 57.41136 
L 54.661816 58.464 
L 55.404103 57.5352 
L 56.146391 55.0068 
L 56.888678 55.81176 
L 57.630966 55.99752 
L 58.373253 53.13888 
L 59.11554 53.64456 
L 59.857828 52.1688 
L 60.600115 48.69096 
L 61.342402 54.0264 
L 62.08469 55.13064 
L 62.826977 54.96552 
L 63.569264 54.92424 
L 64.311552 56.25552 
L 65.053839 59.8572 
L 65.796126 58.32984 
L 66.538414 60.23904 
L 67.280701 55.65696 
L 68.022989 57.18432 
L 68.765276 59.21736 
L 69.507563 62.55072 
L 70.249851 60.82728 
L 70.992138 61.47744 
L 71.734425 60.12552 
L 72.476713 64.31544 
L 73.219 63.99552 
L 73.961287 64.5528 
L 74.703575 63.60336 
L 75.445862 61.5084 
L 76.188149 60.96144 
L 76.930437 61.98312 
L 77.672724 62.05536 
L 78.415012 62.51976 
L 79.899586 60.64152 
L 80.641874 61.13688 
L 81.384161 58.6188 
L 82.126448 57.03984 
L 82.868736 56.35872 
L 83.611023 56.5548 
L 84.35331 57.174 
L 85.095598 57.14304 
L 85.837885 55.7292 
L 86.580172 56.04912 
L 87.32246 55.33704 
L 88.064747 56.87472 
L 88.807035 56.8128 
L 89.549322 57.24624 
L 90.291609 59.93976 
L 91.033897 60.64152 
L 91.776184 59.29992 
L 92.518471 63.80976 
L 93.260759 63.03576 
L 94.003046 63.09768 
L 95.487621 58.27824 
L 96.229908 58.5672 
L 96.972195 53.93352 
L 97.714483 51.74568 
L 98.45677 50.04288 
L 99.199058 49.90872 
L 100.683632 47.43192 
L 101.42592 50.80656 
L 102.168207 48.90768 
L 102.910494 50.6208 
L 103.652782 59.42376 
L 104.395069 61.85928 
L 105.137356 57.35976 
L 105.879644 57.3288 
L 106.621931 59.46504 
L 108.106506 64.72824 
L 108.848793 66.42072 
L 109.591081 65.688 
L 110.333368 64.17096 
L 111.075655 62.10696 
L 111.817943 64.30512 
L 112.56023 65.20296 
L 113.302517 62.68488 
L 114.044805 61.70448 
L 114.787092 61.06464 
L 115.529379 58.1028 
L 116.271667 58.40208 
L 117.013954 59.68176 
L 117.756241 62.6952 
L 118.498529 64.56312 
L 119.240816 63.18024 
L 119.983104 62.72616 
L 120.725391 62.06568 
L 121.467678 66.33816 
L 122.209966 71.40528 
L 122.952253 69.08328 
L 123.69454 71.7252 
L 124.436828 69.57864 
L 125.179115 70.72416 
L 125.921402 68.2164 
L 126.66369 66.978 
L 127.405977 70.03272 
L 128.148264 71.5188 
L 128.890552 73.3764 
L 129.632839 78.846 
L 130.375127 77.75208 
L 131.117414 78.88728 
L 131.859701 81.34344 
L 132.601989 80.53848 
L 133.344276 82.0452 
L 134.086563 86.92656 
L 134.828851 88.58808 
L 135.571138 88.96992 
L 136.313425 86.7924 
L 137.055713 85.296 
L 137.798 86.24544 
L 138.540287 82.96368 
L 139.282575 82.13808 
L 140.024862 82.47864 
L 140.76715 82.58184 
L 141.509437 83.03592 
L 142.251724 87.3084 
L 142.994012 82.06584 
L 143.736299 79.71288 
L 144.478586 81.24024 
L 145.220874 84.17112 
L 145.963161 84.24336 
L 146.705448 83.29392 
L 147.447736 82.8192 
L 148.190023 80.64168 
L 148.93231 81.38472 
L 149.674598 80.87904 
L 150.416885 83.13912 
L 151.159173 83.19072 
L 152.643747 87.17424 
L 153.386035 85.71912 
L 154.128322 87.53544 
L 154.870609 88.17528 
L 155.612897 85.41984 
L 157.097471 84.9348 
L 157.839759 85.01736 
L 158.582046 86.14224 
L 159.324333 85.90488 
L 160.066621 86.328 
L 160.808908 86.24544 
L 161.551196 85.72944 
L 162.293483 85.7088 
L 163.03577 86.40024 
L 163.778058 85.09992 
L 164.520345 86.02872 
L 166.00492 83.53128 
L 167.489494 82.03488 
L 168.231782 79.39296 
L 168.974069 79.66128 
L 169.716356 82.15872 
L 170.458644 82.43736 
L 171.200931 82.93272 
L 171.943219 83.00496 
L 173.427793 82.28256 
L 174.170081 78.01008 
L 174.912368 76.19376 
L 175.654655 77.66952 
L 176.396943 77.74176 
L 177.13923 78.1752 
L 178.623805 80.8068 
L 179.366092 85.20312 
L 180.108379 84.12984 
L 180.850667 84.03696 
L 181.592954 84.06792 
L 182.335242 84.3156 
L 183.077529 87.02976 
L 183.819816 85.21344 
L 184.562104 84.28464 
L 185.304391 84.32592 
L 186.046678 89.08344 
L 186.788966 89.5272 
L 187.531253 95.14128 
L 188.27354 96.98856 
L 189.015828 95.08968 
L 190.232371 99.80592 
L 190.974281 101.79768 
L 191.713389 100.03296 
L 192.472645 100.518 
L 193.208806 99.98136 
L 193.955329 100.49736 
L 196.177758 101.26104 
L 196.911119 100.63152 
L 197.614239 100.38384 
L 198.404139 100.84824 
L 199.053185 100.65216 
L 199.887537 101.034 
L 200.628922 101.19912 
L 202.855389 100.91016 
L 203.59991 101.7564 
L 204.27949 101.84928 
L 205.081813 101.56032 
L 205.820793 100.85856 
L 207.295212 101.4468 
L 208.054364 101.02368 
L 208.788988 101.30232 
L 209.533003 100.81728 
L 210.271132 100.79664 
L 211.015017 99.3312 
L 211.756952 99.92976 
L 212.493544 100.78632 
L 213.243039 101.17848 
L 213.987551 101.1372 
L 214.725071 100.21872 
L 216.212274 100.4664 
L 216.953127 99.88848 
L 217.694426 99.94008 
L 218.450915 99.81624 
L 219.195299 98.93904 
L 219.924596 98.3508 
L 220.672545 98.52624 
L 221.415039 99.78528 
L 222.150101 100.12584 
L 222.888041 100.03296 
L 224.385459 100.83792 
L 225.120874 100.11552 
L 225.918446 99.87816 
L 226.614478 100.002 
L 228.092893 101.41584 
L 228.845292 101.21976 
L 230.327307 101.00304 
L 231.07596 100.86888 
L 231.808471 101.21976 
L 232.551608 101.28168 
L 234.041003 101.14752 
L 234.785206 100.55928 
L 235.522674 100.65216 
L 236.266164 99.80592 
L 237.005865 99.96072 
L 237.754983 99.6408 
L 238.485921 99.1764 
L 239.241525 99.70272 
L 239.987618 99.94008 
L 240.72518 98.57784 
L 241.466901 98.65008 
L 242.212401 98.38176 
L 242.953176 98.48496 
L 243.687276 96.70992 
L 244.439366 98.05152 
L 245.183492 98.48496 
L 245.922523 97.96896 
L 246.662508 96.32808 
L 248.152057 96.16296 
L 248.885487 96.1836 
L 249.639321 96.50352 
L 250.389607 94.76976 
L 251.133449 97.19496 
L 251.873709 96.9576 
L 252.617242 97.9896 
L 253.36764 96.89568 
L 254.090983 95.45088 
L 254.84834 95.67792 
L 255.590369 93.43848 
L 257.071671 92.25168 
L 257.814156 92.87088 
L 258.544089 94.2744 
L 259.289091 93.1392 
L 260.046336 92.97408 
L 260.794483 92.9844 
L 261.52646 92.60256 
L 262.272279 92.53032 
L 263.013741 94.54272 
L 263.759689 92.85024 
L 264.4925 94.82136 
L 265.24587 95.75016 
L 265.995365 96.97824 
L 267.477277 97.23624 
L 268.223791 95.94624 
L 268.960391 96.30744 
L 269.69248 98.08248 
L 271.198576 96.61704 
L 271.929618 97.23624 
L 272.679525 98.08248 
L 273.419442 99.18672 
L 274.162279 99.03192 
L 274.893861 99.1248 
L 275.651304 98.74296 
L 276.404571 99.09384 
L 277.139556 100.0536 
L 277.890194 101.23008 
L 278.629938 101.99376 
L 279.36 102.08664 
L 279.36 102.08664 
" clip-path="url(#pb764d6cfb1)" style="fill: none; stroke: #f5841e; stroke-width: 0.6"/>
   </g>
  </g>
 </g>
 <defs>
  <clipPath id="pb764d6cfb1">
   <rect x="8.64" y="4.8" width="270.72" height="103.2"/>
  </clipPath>
 </defs>
</svg>
