<?xml version="1.0" encoding="utf-8" standalone="no"?>
<!DOCTYPE svg PUBLIC "-//W3C//DTD SVG 1.1//EN"
  "http://www.w3.org/Graphics/SVG/1.1/DTD/svg11.dtd">
<svg xmlns:xlink="http://www.w3.org/1999/xlink" width="288pt" height="120pt" viewBox="0 0 288 120" xmlns="http://www.w3.org/2000/svg" version="1.1">
<desc id="nav-meta">{"window":"3m","count":4,"labels":["19.01","18.02","20.03","19.04"],"tick_utc":["2026-01-19T12:00:00Z","2026-02-18T03:30:34Z","2026-03-20T03:18:49Z","2026-04-19T03:58:52Z"],"w":720,"h":300}</desc>

 <metadata>
  <rdf:RDF xmlns:dc="http://purl.org/dc/elements/1.1/" xmlns:cc="http://creativecommons.org/ns#" xmlns:rdf="http://www.w3.org/1999/02/22-rdf-syntax-ns#">
   <cc:Work>
    <dc:type rdf:resource="http://purl.org/dc/dcmitype/StillImage"/>
    <dc:date>2026-04-19T03:58:55.588195</dc:date>
    <dc:format>image/svg+xml</dc:format>
    <dc:creator>
     <cc:Agent>
      <dc:title>Matplotlib v3.10.8, https://matplotlib.org/</dc:title>
     </cc:Agent>
    </dc:creator>
   </cc:Work>
  </rdf:RDF>
 </metadata>
 <defs>
  <style type="text/css">*{stroke-linejoin: round; stroke-linecap: butt}</style>
 </defs>
 <g id="figure_1">
  <g id="patch_1">
   <path d="M 0 120 
L 288 120 
L 288 0 
L 0 0 
L 0 120 
z
" style="fill: none; opacity: 0"/>
  </g>
  <g id="axes_1">
   <g id="patch_2">
    <path d="M 8.64 108 
L 279.36 108 
L 279.36 4.8 
L 8.64 4.8 
L 8.64 108 
z
" style="fill: none"/>
   </g>
   <g id="matplotlib.axis_1"/>
   <g id="matplotlib.axis_2"/>
   <g id="line2d_1">
    <path d="M 8.64 87.36 
L 279.36 87.36 
" clip-path="url(#p6fc1a639da)" style="fill: none; stroke: #b2b2b2; stroke-opacity: 0.35; stroke-width: 0.5; stroke-linecap: square"/>
   </g>
   <g id="line2d_2">
    <path d="M 8.64 66.72 
L 279.36 66.72 
" clip-path="url(#p6fc1a639da)" style="fill: none; stroke: #b2b2b2; stroke-opacity: 0.35; stroke-width: 0.5; stroke-linecap: square"/>
   </g>
   <g id="line2d_3">
    <path d="M 8.64 46.08 
L 279.36 46.08 
" clip-path="url(#p6fc1a639da)" style="fill: none; stroke: #b2b2b2; stroke-opacity: 0.35; stroke-width: 0.5; stroke-linecap: square"/>
   </g>
   <g id="line2d_4">
    <path d="M 8.64 25.44 
L 279.36 25.44 
" clip-path="url(#p6fc1a639da)" style="fill: none; stroke: #b2b2b2; stroke-opacity: 0.35; stroke-width: 0.5; stroke-linecap: square"/>
   </g>
   <g id="line2d_5">
    <path d="M 8.64 88.63968 
L 11.659209 90.0432 
L 14.678417 92.12784 
L 17.697626 91.16808 
L 20.716835 91.46736 
L 23.736043 91.73568 
L 26.755252 91.78728 
L 29.774461 94.0164 
L 32.793669 92.5716 
L 35.812878 91.76664 
L 38.832087 92.33424 
L 41.851295 94.36728 
L 44.870504 94.46016 
L 47.889713 97.71096 
L 50.908921 98.48496 
L 53.92813 97.85544 
L 56.47702 99.10416 
L 58.876347 100.16712 
L 61.894018 102.23112 
L 64.900298 100.54896 
L 67.988522 100.70376 
L 70.982815 100.68312 
L 74.019251 100.95144 
L 77.032205 101.28168 
L 80.040546 101.71512 
L 83.058846 101.84928 
L 86.041747 101.034 
L 88.901644 100.54896 
L 92.114515 101.04432 
L 94.75447 100.81728 
L 98.148145 101.034 
L 101.163684 101.4984 
L 104.165246 101.33328 
L 107.166004 101.1372 
L 110.219703 101.06496 
L 113.247997 102.09696 
L 116.012145 102.05568 
L 119.275547 101.4984 
L 122.281302 100.60056 
L 125.294779 100.80696 
L 128.278414 101.45712 
L 131.366219 100.55928 
L 134.354257 101.10624 
L 137.38049 100.8792 
L 140.382785 100.74504 
L 143.408494 100.21872 
L 146.42627 100.53864 
L 149.42231 101.07528 
L 152.470837 101.38488 
L 155.499096 101.26104 
L 158.498911 100.78632 
L 161.516931 100.91016 
L 164.548021 100.99272 
L 167.561394 100.38384 
L 170.576584 100.50768 
L 173.653556 100.60056 
L 176.681291 99.76464 
L 179.647664 99.49632 
L 182.689901 99.40344 
L 185.709948 100.09488 
L 188.699769 100.3632 
L 191.701295 100.19808 
L 194.765652 100.47672 
L 197.791955 100.79664 
L 200.783208 100.26 
L 204.027285 99.83688 
L 206.858352 100.13616 
L 209.881369 100.80696 
L 212.871714 101.38488 
L 215.932052 101.3436 
L 218.959892 101.292 
L 221.960056 101.28168 
L 225.005159 101.28168 
L 227.9846 101.8596 
L 231.007269 101.88024 
L 234.000618 101.72544 
L 237.06529 101.68416 
L 240.092291 101.47776 
L 243.091896 101.78736 
L 246.115997 101.09592 
L 249.124687 101.46744 
L 252.171677 101.3436 
L 255.144724 101.05464 
L 258.218096 101.3952 
L 261.252785 101.47776 
L 264.252774 100.86888 
L 267.269677 101.26104 
L 270.301955 100.99272 
L 273.315013 100.61088 
L 276.30092 100.44576 
L 279.36 100.94112 
" clip-path="url(#p6fc1a639da)" style="fill: none; stroke: #bebebe; stroke-width: 0.5; stroke-linecap: round"/>
   </g>
   <g id="line2d_6">
    <path d="M 8.64 70.848 
L 11.659209 72.31344 
L 14.678417 76.01832 
L 17.697626 75.41976 
L 20.716835 75.83256 
L 23.736043 75.79128 
L 26.755252 75.82224 
L 29.774461 77.82432 
L 32.793669 76.14216 
L 35.812878 74.75928 
L 38.832087 74.96568 
L 41.851295 77.75208 
L 44.870504 79.48584 
L 47.889713 83.31456 
L 50.908921 85.90488 
L 53.92813 84.79032 
L 56.47702 85.84296 
L 58.876347 88.25784 
L 61.894018 91.41576 
L 64.900298 88.7532 
L 67.988522 88.65 
L 70.982815 88.55712 
L 74.019251 88.96992 
L 77.032205 89.7336 
L 80.040546 90.456 
L 83.058846 90.56952 
L 86.041747 89.15568 
L 88.901644 88.9596 
L 92.114515 90.6624 
L 94.75447 89.94 
L 98.148145 90.00192 
L 101.163684 90.3528 
L 104.165246 90.62112 
L 107.166004 90.5076 
L 110.219703 90.3528 
L 113.247997 92.004 
L 116.012145 92.13816 
L 119.275547 91.25064 
L 122.281302 89.166 
L 125.294779 89.56848 
L 128.278414 90.93072 
L 131.366219 89.41368 
L 134.354257 90.37344 
L 137.38049 89.79552 
L 140.382785 90.23928 
L 143.408494 88.0824 
L 146.42627 88.7532 
L 149.42231 90.16704 
L 152.470837 90.67272 
L 155.499096 90.18768 
L 158.498911 89.2692 
L 161.516931 89.54784 
L 164.548021 89.49624 
L 167.561394 88.31976 
L 170.576584 88.45392 
L 173.653556 88.46424 
L 176.681291 86.38992 
L 179.647664 84.80064 
L 182.689901 84.8316 
L 185.709948 86.586 
L 188.699769 87.74184 
L 191.701295 87.618 
L 194.765652 88.19592 
L 197.791955 89.08344 
L 200.783208 87.89664 
L 204.027285 87.3084 
L 206.858352 87.65928 
L 209.881369 88.96992 
L 212.871714 90.07416 
L 215.932052 89.76456 
L 218.959892 89.3724 
L 221.960056 89.00088 
L 225.005159 88.42296 
L 227.9846 88.81512 
L 231.007269 89.10408 
L 234.000618 89.14536 
L 237.06529 89.07312 
L 240.092291 87.9792 
L 243.091896 88.29912 
L 246.115997 86.38992 
L 249.124687 87.24648 
L 252.171677 87.1536 
L 255.144724 86.21448 
L 258.218096 86.66856 
L 261.252785 87.01944 
L 264.252774 84.44976 
L 267.269677 85.05864 
L 270.301955 84.58392 
L 273.315013 85.04832 
L 276.30092 83.71704 
L 279.36 84.86256 
" clip-path="url(#p6fc1a639da)" style="fill: none; stroke: #4a8dff; stroke-width: 0.6"/>
   </g>
   <g id="line2d_7">
    <path d="M 8.64 79.5684 
L 11.659209 80.8068 
L 14.678417 85.20312 
L 17.697626 84.12984 
L 20.716835 84.03696 
L 23.736043 84.06792 
L 26.755252 84.3156 
L 29.774461 87.02976 
L 32.793669 85.21344 
L 35.812878 84.28464 
L 38.832087 84.32592 
L 41.851295 89.08344 
L 44.870504 89.5272 
L 47.889713 95.14128 
L 50.908921 96.98856 
L 53.92813 95.08968 
L 56.47702 97.71096 
L 58.876347 99.80592 
L 61.894018 101.79768 
L 64.900298 100.03296 
L 67.988522 100.518 
L 70.982815 99.98136 
L 74.019251 100.49736 
L 77.032205 100.78632 
L 80.040546 101.07528 
L 83.058846 101.26104 
L 86.041747 100.63152 
L 88.901644 100.38384 
L 92.114515 100.84824 
L 94.75447 100.65216 
L 98.148145 101.034 
L 101.163684 101.19912 
L 104.165246 101.10624 
L 107.166004 100.97208 
L 110.219703 100.91016 
L 113.247997 101.7564 
L 116.012145 101.84928 
L 119.275547 101.56032 
L 122.281302 100.85856 
L 125.294779 101.12688 
L 128.278414 101.4468 
L 131.366219 101.02368 
L 134.354257 101.30232 
L 137.38049 100.81728 
L 140.382785 100.79664 
L 143.408494 99.3312 
L 146.42627 99.92976 
L 149.42231 100.78632 
L 152.470837 101.17848 
L 155.499096 101.1372 
L 158.498911 100.21872 
L 161.516931 100.37352 
L 164.548021 100.4664 
L 167.561394 99.88848 
L 170.576584 99.94008 
L 173.653556 99.81624 
L 176.681291 98.93904 
L 179.647664 98.3508 
L 182.689901 98.52624 
L 185.709948 99.78528 
L 188.699769 100.12584 
L 191.701295 100.03296 
L 194.765652 100.45608 
L 197.791955 100.83792 
L 200.783208 100.11552 
L 204.027285 99.87816 
L 206.858352 100.002 
L 209.881369 100.64184 
L 212.871714 101.41584 
L 215.932052 101.21976 
L 218.959892 101.14752 
L 221.960056 101.00304 
L 225.005159 100.86888 
L 227.9846 101.21976 
L 231.007269 101.28168 
L 234.000618 101.20944 
L 237.06529 101.14752 
L 240.092291 100.55928 
L 243.091896 100.65216 
L 246.115997 99.80592 
L 249.124687 99.96072 
L 252.171677 99.6408 
L 255.144724 99.1764 
L 258.218096 99.70272 
L 261.252785 99.94008 
L 264.252774 98.57784 
L 267.269677 98.65008 
L 270.301955 98.38176 
L 273.315013 98.48496 
L 276.30092 96.70992 
L 279.36 98.05152 
" clip-path="url(#p6fc1a639da)" style="fill: none; stroke: #f5841e; stroke-width: 0.6"/>
   </g>
  </g>
 </g>
 <defs>
  <clipPath id="p6fc1a639da">
   <rect x="8.64" y="4.8" width="270.72" height="103.2"/>
  </clipPath>
 </defs>
</svg>
