<?xml version="1.0" encoding="utf-8" standalone="no"?>
<!DOCTYPE svg PUBLIC "-//W3C//DTD SVG 1.1//EN"
  "http://www.w3.org/Graphics/SVG/1.1/DTD/svg11.dtd">
<svg xmlns:xlink="http://www.w3.org/1999/xlink" width="288pt" height="120pt" viewBox="0 0 288 120" xmlns="http://www.w3.org/2000/svg" version="1.1">
<desc id="nav-meta">{"window":"1m","count":4,"labels":["25.02","07.03","16.03","26.03"],"tick_utc":["2026-02-25T03:27:12Z","2026-03-07T03:05:35Z","2026-03-16T03:46:39Z","2026-03-26T03:39:29Z"],"w":720,"h":300}</desc>

 <metadata>
  <rdf:RDF xmlns:dc="http://purl.org/dc/elements/1.1/" xmlns:cc="http://creativecommons.org/ns#" xmlns:rdf="http://www.w3.org/1999/02/22-rdf-syntax-ns#">
   <cc:Work>
    <dc:type rdf:resource="http://purl.org/dc/dcmitype/StillImage"/>
    <dc:date>2026-03-26T14:10:22.277584</dc:date>
    <dc:format>image/svg+xml</dc:format>
    <dc:creator>
     <cc:Agent>
      <dc:title>Matplotlib v3.10.8, https://matplotlib.org/</dc:title>
     </cc:Agent>
    </dc:creator>
   </cc:Work>
  </rdf:RDF>
 </metadata>
 <defs>
  <style type="text/css">*{stroke-linejoin: round; stroke-linecap: butt}</style>
 </defs>
 <g id="figure_1">
  <g id="patch_1">
   <path d="M 0 120 
L 288 120 
L 288 0 
L 0 0 
L 0 120 
z
" style="fill: none; opacity: 0"/>
  </g>
  <g id="axes_1">
   <g id="patch_2">
    <path d="M 8.64 108 
L 279.36 108 
L 279.36 4.8 
L 8.64 4.8 
L 8.64 108 
z
" style="fill: none"/>
   </g>
   <g id="matplotlib.axis_1"/>
   <g id="matplotlib.axis_2"/>
   <g id="line2d_1">
    <path d="M 8.64 87.36 
L 279.36 87.36 
" clip-path="url(#p2cfdf79d86)" style="fill: none; stroke: #b2b2b2; stroke-opacity: 0.35; stroke-width: 0.5; stroke-linecap: square"/>
   </g>
   <g id="line2d_2">
    <path d="M 8.64 66.72 
L 279.36 66.72 
" clip-path="url(#p2cfdf79d86)" style="fill: none; stroke: #b2b2b2; stroke-opacity: 0.35; stroke-width: 0.5; stroke-linecap: square"/>
   </g>
   <g id="line2d_3">
    <path d="M 8.64 46.08 
L 279.36 46.08 
" clip-path="url(#p2cfdf79d86)" style="fill: none; stroke: #b2b2b2; stroke-opacity: 0.35; stroke-width: 0.5; stroke-linecap: square"/>
   </g>
   <g id="line2d_4">
    <path d="M 8.64 25.44 
L 279.36 25.44 
" clip-path="url(#p2cfdf79d86)" style="fill: none; stroke: #b2b2b2; stroke-opacity: 0.35; stroke-width: 0.5; stroke-linecap: square"/>
   </g>
   <g id="line2d_5">
    <path d="M 8.64 101.4984 
L 17.930842 100.60056 
L 27.245555 100.80696 
L 36.468024 101.45712 
L 46.012483 100.55928 
L 55.248562 101.10624 
L 64.6027 100.8792 
L 73.882848 100.74504 
L 83.235366 100.21872 
L 92.563365 100.53864 
L 101.824179 101.07528 
L 111.24723 101.38488 
L 120.607634 101.26104 
L 129.880113 100.78632 
L 139.208868 100.91016 
L 148.57802 100.99272 
L 157.892409 100.38384 
L 167.212415 100.50768 
L 176.72339 100.60056 
L 186.082172 99.76464 
L 195.251282 99.49632 
L 204.654891 99.40344 
L 213.989911 100.09488 
L 223.231498 100.3632 
L 232.50927 100.19808 
L 241.981252 100.47672 
L 251.335606 100.79664 
L 260.581622 100.26 
L 270.609121 99.83688 
L 279.36 100.13616 
" clip-path="url(#p2cfdf79d86)" style="fill: none; stroke: #bebebe; stroke-width: 0.5; stroke-linecap: round"/>
   </g>
   <g id="line2d_6">
    <path d="M 8.64 91.25064 
L 17.930842 89.166 
L 27.245555 89.56848 
L 36.468024 90.93072 
L 46.012483 89.41368 
L 55.248562 90.37344 
L 64.6027 89.79552 
L 73.882848 90.23928 
L 83.235366 88.0824 
L 92.563365 88.7532 
L 101.824179 90.16704 
L 111.24723 90.67272 
L 120.607634 90.18768 
L 129.880113 89.2692 
L 139.208868 89.54784 
L 148.57802 89.49624 
L 157.892409 88.31976 
L 167.212415 88.45392 
L 176.72339 88.46424 
L 186.082172 86.38992 
L 195.251282 84.80064 
L 204.654891 84.8316 
L 213.989911 86.586 
L 223.231498 87.74184 
L 232.50927 87.618 
L 241.981252 88.19592 
L 251.335606 89.08344 
L 260.581622 87.89664 
L 270.609121 87.3084 
L 279.36 87.65928 
" clip-path="url(#p2cfdf79d86)" style="fill: none; stroke: #4a8dff; stroke-width: 0.6"/>
   </g>
   <g id="line2d_7">
    <path d="M 8.64 101.56032 
L 17.930842 100.85856 
L 27.245555 101.12688 
L 36.468024 101.4468 
L 46.012483 101.02368 
L 55.248562 101.30232 
L 64.6027 100.81728 
L 73.882848 100.79664 
L 83.235366 99.3312 
L 92.563365 99.92976 
L 101.824179 100.78632 
L 111.24723 101.17848 
L 120.607634 101.1372 
L 129.880113 100.21872 
L 139.208868 100.37352 
L 148.57802 100.4664 
L 157.892409 99.88848 
L 167.212415 99.94008 
L 176.72339 99.81624 
L 186.082172 98.93904 
L 195.251282 98.3508 
L 204.654891 98.52624 
L 213.989911 99.78528 
L 223.231498 100.12584 
L 232.50927 100.03296 
L 241.981252 100.45608 
L 251.335606 100.83792 
L 260.581622 100.11552 
L 270.609121 99.87816 
L 279.36 100.002 
" clip-path="url(#p2cfdf79d86)" style="fill: none; stroke: #f5841e; stroke-width: 0.6"/>
   </g>
  </g>
 </g>
 <defs>
  <clipPath id="p2cfdf79d86">
   <rect x="8.64" y="4.8" width="270.72" height="103.2"/>
  </clipPath>
 </defs>
</svg>
