<?xml version="1.0" encoding="utf-8" standalone="no"?>
<!DOCTYPE svg PUBLIC "-//W3C//DTD SVG 1.1//EN"
  "http://www.w3.org/Graphics/SVG/1.1/DTD/svg11.dtd">
<svg xmlns:xlink="http://www.w3.org/1999/xlink" width="288pt" height="120pt" viewBox="0 0 288 120" xmlns="http://www.w3.org/2000/svg" version="1.1">
<desc id="nav-meta">{"window":"1m","count":4,"labels":["20.06","30.06","09.07","19.07"],"tick_utc":["2026-06-20T04:59:26Z","2026-06-30T04:49:55Z","2026-07-09T04:41:51Z","2026-07-19T04:06:12Z"],"w":720,"h":300}</desc>

 <metadata>
  <rdf:RDF xmlns:dc="http://purl.org/dc/elements/1.1/" xmlns:cc="http://creativecommons.org/ns#" xmlns:rdf="http://www.w3.org/1999/02/22-rdf-syntax-ns#">
   <cc:Work>
    <dc:type rdf:resource="http://purl.org/dc/dcmitype/StillImage"/>
    <dc:date>2026-07-19T08:56:46.226800</dc:date>
    <dc:format>image/svg+xml</dc:format>
    <dc:creator>
     <cc:Agent>
      <dc:title>Matplotlib v3.11.1, https://matplotlib.org/</dc:title>
     </cc:Agent>
    </dc:creator>
   </cc:Work>
  </rdf:RDF>
 </metadata>
 <defs>
  <style type="text/css">*{stroke-linejoin: round; stroke-linecap: butt}</style>
 </defs>
 <g id="figure_1">
  <g id="patch_1">
   <path d="M 0 120 
L 288 120 
L 288 0 
L 0 0 
L 0 120 
z
" style="fill: none; opacity: 0"/>
  </g>
  <g id="axes_1">
   <g id="patch_2">
    <path d="M 8.64 108 
L 279.36 108 
L 279.36 4.8 
L 8.64 4.8 
L 8.64 108 
z
" style="fill: none"/>
   </g>
   <g id="matplotlib.axis_1"/>
   <g id="matplotlib.axis_2"/>
   <g id="line2d_1">
    <path d="M 8.64 87.36 
L 279.36 87.36 
" clip-path="url(#p61c5587902)" style="fill: none; stroke: #b2b2b2; stroke-opacity: 0.35; stroke-width: 0.5; stroke-linecap: square"/>
   </g>
   <g id="line2d_2">
    <path d="M 8.64 66.72 
L 279.36 66.72 
" clip-path="url(#p61c5587902)" style="fill: none; stroke: #b2b2b2; stroke-opacity: 0.35; stroke-width: 0.5; stroke-linecap: square"/>
   </g>
   <g id="line2d_3">
    <path d="M 8.64 46.08 
L 279.36 46.08 
" clip-path="url(#p61c5587902)" style="fill: none; stroke: #b2b2b2; stroke-opacity: 0.35; stroke-width: 0.5; stroke-linecap: square"/>
   </g>
   <g id="line2d_4">
    <path d="M 8.64 25.44 
L 279.36 25.44 
" clip-path="url(#p61c5587902)" style="fill: none; stroke: #b2b2b2; stroke-opacity: 0.35; stroke-width: 0.5; stroke-linecap: square"/>
   </g>
   <g id="line2d_5">
    <path d="M 8.64 103.01544 
L 18.181602 102.69552 
L 27.802287 102.582 
L 36.590605 102.88128 
L 45.971121 103.15992 
L 55.31572 103.36632 
L 64.710733 103.36632 
L 73.943254 102.81936 
L 83.468521 103.0464 
L 92.883223 102.9432 
L 102.049103 102.59232 
L 111.532935 102.40656 
L 120.71634 102.02472 
L 129.961735 101.68416 
L 139.268578 101.3436 
L 148.752518 101.6532 
L 158.190155 101.6532 
L 167.397037 101.63256 
L 176.490109 101.95248 
L 186.12053 102.08664 
L 195.446521 101.9112 
L 204.517632 102.066 
L 214.004493 102.18984 
L 223.372027 102.31368 
L 232.502963 102.45816 
L 241.852431 102.08664 
L 251.222886 102.21048 
L 260.571489 102.4272 
L 269.872382 102.4272 
L 279.36 102.34464 
" clip-path="url(#p61c5587902)" style="fill: none; stroke: #bebebe; stroke-width: 0.5; stroke-linecap: round"/>
   </g>
   <g id="line2d_6">
    <path d="M 8.64 94.19184 
L 18.181602 93.87192 
L 27.802287 93.81 
L 36.590605 94.03704 
L 45.971121 94.83168 
L 55.31572 95.48184 
L 64.710733 96.63768 
L 73.943254 96.14232 
L 83.468521 96.30744 
L 92.883223 96.29712 
L 102.049103 96.04944 
L 111.532935 95.9256 
L 120.71634 95.39928 
L 129.961735 94.31568 
L 139.268578 93.57264 
L 148.752518 93.32496 
L 158.190155 93.22176 
L 167.397037 93.35592 
L 176.490109 93.61392 
L 186.12053 93.77904 
L 195.446521 93.26304 
L 204.517632 92.92248 
L 214.004493 92.71608 
L 223.372027 93.15984 
L 232.502963 93.17016 
L 241.852431 91.80792 
L 251.222886 91.14744 
L 260.571489 92.13816 
L 269.872382 92.25168 
L 279.36 91.9008 
" clip-path="url(#p61c5587902)" style="fill: none; stroke: #4a8dff; stroke-width: 0.6"/>
   </g>
   <g id="line2d_7">
    <path d="M 8.64 102.066 
L 18.181602 101.90088 
L 27.802287 101.90088 
L 36.590605 102.0144 
L 45.971121 102.25176 
L 55.31572 102.6336 
L 64.710733 102.88128 
L 73.943254 102.77808 
L 83.468521 102.85032 
L 92.883223 102.93288 
L 102.049103 102.95352 
L 111.532935 103.00512 
L 120.71634 102.69552 
L 129.961735 102.55104 
L 139.268578 102.2724 
L 148.752518 102.21048 
L 158.190155 102.12792 
L 167.397037 102.13824 
L 176.490109 102.25176 
L 186.12053 102.36528 
L 195.446521 101.94216 
L 204.517632 101.92152 
L 214.004493 101.9112 
L 223.372027 102.2208 
L 232.502963 102.31368 
L 241.852431 101.79768 
L 251.222886 101.81832 
L 260.571489 102.07632 
L 269.872382 101.97312 
L 279.36 101.79768 
" clip-path="url(#p61c5587902)" style="fill: none; stroke: #f5841e; stroke-width: 0.6"/>
   </g>
  </g>
 </g>
 <defs>
  <clipPath id="p61c5587902">
   <rect x="8.64" y="4.8" width="270.72" height="103.2"/>
  </clipPath>
 </defs>
</svg>
