<?xml version="1.0" encoding="utf-8" standalone="no"?>
<!DOCTYPE svg PUBLIC "-//W3C//DTD SVG 1.1//EN"
  "http://www.w3.org/Graphics/SVG/1.1/DTD/svg11.dtd">
<svg xmlns:xlink="http://www.w3.org/1999/xlink" width="288pt" height="120pt" viewBox="0 0 288 120" xmlns="http://www.w3.org/2000/svg" version="1.1">
<desc id="nav-meta">{"window":"1m","count":4,"labels":["10.02","20.02","01.03","11.03"],"tick_utc":["2026-02-10T03:42:23Z","2026-02-20T03:20:24Z","2026-03-01T03:33:48Z","2026-03-11T03:14:04Z"],"w":720,"h":300}</desc>

 <metadata>
  <rdf:RDF xmlns:dc="http://purl.org/dc/elements/1.1/" xmlns:cc="http://creativecommons.org/ns#" xmlns:rdf="http://www.w3.org/1999/02/22-rdf-syntax-ns#">
   <cc:Work>
    <dc:type rdf:resource="http://purl.org/dc/dcmitype/StillImage"/>
    <dc:date>2026-03-11T07:30:49.036121</dc:date>
    <dc:format>image/svg+xml</dc:format>
    <dc:creator>
     <cc:Agent>
      <dc:title>Matplotlib v3.10.8, https://matplotlib.org/</dc:title>
     </cc:Agent>
    </dc:creator>
   </cc:Work>
  </rdf:RDF>
 </metadata>
 <defs>
  <style type="text/css">*{stroke-linejoin: round; stroke-linecap: butt}</style>
 </defs>
 <g id="figure_1">
  <g id="patch_1">
   <path d="M 0 120 
L 288 120 
L 288 0 
L 0 0 
L 0 120 
z
" style="fill: none; opacity: 0"/>
  </g>
  <g id="axes_1">
   <g id="patch_2">
    <path d="M 8.64 108 
L 279.36 108 
L 279.36 4.8 
L 8.64 4.8 
L 8.64 108 
z
" style="fill: none"/>
   </g>
   <g id="matplotlib.axis_1"/>
   <g id="matplotlib.axis_2"/>
   <g id="line2d_1">
    <path d="M 8.64 87.36 
L 279.36 87.36 
" clip-path="url(#p09d2819ab5)" style="fill: none; stroke: #b2b2b2; stroke-opacity: 0.35; stroke-width: 0.5; stroke-linecap: square"/>
   </g>
   <g id="line2d_2">
    <path d="M 8.64 66.72 
L 279.36 66.72 
" clip-path="url(#p09d2819ab5)" style="fill: none; stroke: #b2b2b2; stroke-opacity: 0.35; stroke-width: 0.5; stroke-linecap: square"/>
   </g>
   <g id="line2d_3">
    <path d="M 8.64 46.08 
L 279.36 46.08 
" clip-path="url(#p09d2819ab5)" style="fill: none; stroke: #b2b2b2; stroke-opacity: 0.35; stroke-width: 0.5; stroke-linecap: square"/>
   </g>
   <g id="line2d_4">
    <path d="M 8.64 25.44 
L 279.36 25.44 
" clip-path="url(#p09d2819ab5)" style="fill: none; stroke: #b2b2b2; stroke-opacity: 0.35; stroke-width: 0.5; stroke-linecap: square"/>
   </g>
   <g id="line2d_5">
    <path d="M 8.64 100.95144 
L 17.962153 101.28168 
L 27.270035 101.71512 
L 36.608731 101.84928 
L 45.837901 101.034 
L 54.686492 100.54896 
L 64.627196 101.04432 
L 72.795284 100.81728 
L 83.295397 101.034 
L 92.625551 101.4984 
L 101.912458 101.33328 
L 111.196878 101.1372 
L 120.645098 101.06496 
L 130.014716 102.09696 
L 138.56706 102.05568 
L 148.664104 101.4984 
L 157.963985 100.60056 
L 167.28776 100.80696 
L 176.519201 101.45712 
L 186.072946 100.55928 
L 195.31801 101.10624 
L 204.681249 100.8792 
L 213.970426 100.74504 
L 223.332043 100.21872 
L 232.669117 100.53864 
L 241.93894 101.07528 
L 251.371159 101.38488 
L 260.740669 101.26104 
L 270.022169 100.78632 
L 279.36 100.91016 
" clip-path="url(#p09d2819ab5)" style="fill: none; stroke: #bebebe; stroke-width: 0.5; stroke-linecap: round"/>
   </g>
   <g id="line2d_6">
    <path d="M 8.64 88.96992 
L 17.962153 89.7336 
L 27.270035 90.456 
L 36.608731 90.56952 
L 45.837901 89.15568 
L 54.686492 88.9596 
L 64.627196 90.6624 
L 72.795284 89.94 
L 83.295397 90.00192 
L 92.625551 90.3528 
L 101.912458 90.62112 
L 111.196878 90.5076 
L 120.645098 90.3528 
L 130.014716 92.004 
L 138.56706 92.13816 
L 148.664104 91.25064 
L 157.963985 89.166 
L 167.28776 89.56848 
L 176.519201 90.93072 
L 186.072946 89.41368 
L 195.31801 90.37344 
L 204.681249 89.79552 
L 213.970426 90.23928 
L 223.332043 88.0824 
L 232.669117 88.7532 
L 241.93894 90.16704 
L 251.371159 90.67272 
L 260.740669 90.18768 
L 270.022169 89.2692 
L 279.36 89.54784 
" clip-path="url(#p09d2819ab5)" style="fill: none; stroke: #4a8dff; stroke-width: 0.6"/>
   </g>
   <g id="line2d_7">
    <path d="M 8.64 100.49736 
L 17.962153 100.78632 
L 27.270035 101.07528 
L 36.608731 101.26104 
L 45.837901 100.63152 
L 54.686492 100.38384 
L 64.627196 100.84824 
L 72.795284 100.65216 
L 83.295397 101.034 
L 92.625551 101.19912 
L 101.912458 101.10624 
L 111.196878 100.97208 
L 120.645098 100.91016 
L 130.014716 101.7564 
L 138.56706 101.84928 
L 148.664104 101.56032 
L 157.963985 100.85856 
L 167.28776 101.12688 
L 176.519201 101.4468 
L 186.072946 101.02368 
L 195.31801 101.30232 
L 204.681249 100.81728 
L 213.970426 100.79664 
L 223.332043 99.3312 
L 232.669117 99.92976 
L 241.93894 100.78632 
L 251.371159 101.17848 
L 260.740669 101.1372 
L 270.022169 100.21872 
L 279.36 100.37352 
" clip-path="url(#p09d2819ab5)" style="fill: none; stroke: #f5841e; stroke-width: 0.6"/>
   </g>
  </g>
 </g>
 <defs>
  <clipPath id="p09d2819ab5">
   <rect x="8.64" y="4.8" width="270.72" height="103.2"/>
  </clipPath>
 </defs>
</svg>
