<?xml version="1.0" encoding="utf-8" standalone="no"?>
<!DOCTYPE svg PUBLIC "-//W3C//DTD SVG 1.1//EN"
  "http://www.w3.org/Graphics/SVG/1.1/DTD/svg11.dtd">
<svg xmlns:xlink="http://www.w3.org/1999/xlink" width="288pt" height="120pt" viewBox="0 0 288 120" xmlns="http://www.w3.org/2000/svg" version="1.1">
<desc id="nav-meta">{"window":"3m","count":4,"labels":["10.12","09.01","08.02","10.03"],"tick_utc":["2025-12-10T12:00:00Z","2026-01-09T12:00:00Z","2026-02-08T03:46:03Z","2026-03-10T03:14:38Z"],"w":720,"h":300}</desc>

 <metadata>
  <rdf:RDF xmlns:dc="http://purl.org/dc/elements/1.1/" xmlns:cc="http://creativecommons.org/ns#" xmlns:rdf="http://www.w3.org/1999/02/22-rdf-syntax-ns#">
   <cc:Work>
    <dc:type rdf:resource="http://purl.org/dc/dcmitype/StillImage"/>
    <dc:date>2026-03-10T03:14:39.846679</dc:date>
    <dc:format>image/svg+xml</dc:format>
    <dc:creator>
     <cc:Agent>
      <dc:title>Matplotlib v3.10.8, https://matplotlib.org/</dc:title>
     </cc:Agent>
    </dc:creator>
   </cc:Work>
  </rdf:RDF>
 </metadata>
 <defs>
  <style type="text/css">*{stroke-linejoin: round; stroke-linecap: butt}</style>
 </defs>
 <g id="figure_1">
  <g id="patch_1">
   <path d="M 0 120 
L 288 120 
L 288 0 
L 0 0 
L 0 120 
z
" style="fill: none; opacity: 0"/>
  </g>
  <g id="axes_1">
   <g id="patch_2">
    <path d="M 8.64 108 
L 279.36 108 
L 279.36 4.8 
L 8.64 4.8 
L 8.64 108 
z
" style="fill: none"/>
   </g>
   <g id="matplotlib.axis_1"/>
   <g id="matplotlib.axis_2"/>
   <g id="line2d_1">
    <path d="M 8.64 87.36 
L 279.36 87.36 
" clip-path="url(#pe9ceac35ee)" style="fill: none; stroke: #b2b2b2; stroke-opacity: 0.35; stroke-width: 0.5; stroke-linecap: square"/>
   </g>
   <g id="line2d_2">
    <path d="M 8.64 66.72 
L 279.36 66.72 
" clip-path="url(#pe9ceac35ee)" style="fill: none; stroke: #b2b2b2; stroke-opacity: 0.35; stroke-width: 0.5; stroke-linecap: square"/>
   </g>
   <g id="line2d_3">
    <path d="M 8.64 46.08 
L 279.36 46.08 
" clip-path="url(#pe9ceac35ee)" style="fill: none; stroke: #b2b2b2; stroke-opacity: 0.35; stroke-width: 0.5; stroke-linecap: square"/>
   </g>
   <g id="line2d_4">
    <path d="M 8.64 25.44 
L 279.36 25.44 
" clip-path="url(#pe9ceac35ee)" style="fill: none; stroke: #b2b2b2; stroke-opacity: 0.35; stroke-width: 0.5; stroke-linecap: square"/>
   </g>
   <g id="line2d_5">
    <path d="M 8.64 88.79448 
L 11.660243 89.20728 
L 14.680487 89.22792 
L 17.70073 90.31152 
L 20.720973 90.10512 
L 23.741217 91.09584 
L 26.76146 91.61184 
L 29.781703 91.31256 
L 32.801947 92.87088 
L 35.82219 93.8616 
L 38.842433 92.02464 
L 41.862677 92.13816 
L 44.88292 92.07624 
L 47.903163 92.14848 
L 50.923407 92.64384 
L 53.94365 93.01536 
L 56.963893 93.69648 
L 59.984137 93.11856 
L 63.00438 92.44776 
L 66.024623 92.30328 
L 69.044867 92.87088 
L 72.06511 92.38584 
L 75.085353 92.47872 
L 78.105597 91.88016 
L 81.12584 90.42504 
L 84.146083 90.08448 
L 87.166326 89.92968 
L 90.18657 88.76352 
L 93.206813 87.94824 
L 96.227056 89.2692 
L 99.2473 88.72224 
L 102.267543 89.39304 
L 105.287786 89.40336 
L 108.30803 88.41264 
L 111.328273 88.4952 
L 114.348516 86.86464 
L 117.36876 86.42088 
L 120.389003 87.62832 
L 123.409246 86.93688 
L 126.42949 87.23616 
L 129.449733 88.63968 
L 132.469976 90.0432 
L 135.49022 92.12784 
L 138.510463 91.16808 
L 141.530706 91.46736 
L 144.55095 91.73568 
L 147.571193 91.78728 
L 150.591436 94.0164 
L 153.61168 92.5716 
L 156.631923 91.76664 
L 159.652166 92.33424 
L 162.67241 94.36728 
L 165.692653 94.46016 
L 168.712896 97.71096 
L 171.73314 98.48496 
L 174.753383 97.85544 
L 177.303147 99.10416 
L 179.703296 100.16712 
L 182.722001 102.23112 
L 185.729311 100.54896 
L 188.818593 100.70376 
L 191.813913 100.68312 
L 194.851389 100.95144 
L 197.865376 101.28168 
L 200.874747 101.71512 
L 203.894082 101.84928 
L 206.878005 101.034 
L 209.738882 100.54896 
L 212.952854 101.04432 
L 215.593714 100.81728 
L 218.988552 101.034 
L 222.005125 101.4984 
L 225.007715 101.33328 
L 228.009501 101.1372 
L 231.064247 101.06496 
L 234.093579 102.09696 
L 236.858674 102.05568 
L 240.123194 101.4984 
L 243.129979 100.60056 
L 246.144489 100.80696 
L 249.129147 101.45712 
L 252.21801 100.55928 
L 255.207072 101.10624 
L 258.234342 100.8792 
L 261.237666 100.74504 
L 264.264411 100.21872 
L 267.283221 100.53864 
L 270.280289 101.07528 
L 273.32986 101.38488 
L 276.359158 101.26104 
L 279.36 100.78632 
" clip-path="url(#pe9ceac35ee)" style="fill: none; stroke: #bebebe; stroke-width: 0.5; stroke-linecap: round"/>
   </g>
   <g id="line2d_6">
    <path d="M 8.64 70.2804 
L 11.660243 70.2288 
L 14.680487 71.56008 
L 17.70073 73.79952 
L 20.720973 73.35576 
L 23.741217 74.0988 
L 26.76146 75.5952 
L 29.781703 75.5952 
L 32.801947 77.61792 
L 35.82219 77.63856 
L 38.842433 75.40944 
L 41.862677 75.40944 
L 44.88292 75.04824 
L 47.903163 74.98632 
L 50.923407 75.58488 
L 53.94365 75.87384 
L 56.963893 76.49304 
L 59.984137 76.15248 
L 63.00438 75.82224 
L 66.024623 75.84288 
L 69.044867 76.03896 
L 72.06511 75.51264 
L 75.085353 75.56424 
L 78.105597 75.05856 
L 81.12584 73.26288 
L 84.146083 73.20096 
L 87.166326 73.00488 
L 90.18657 71.68392 
L 93.206813 70.6932 
L 96.227056 72.62304 
L 99.2473 73.52088 
L 102.267543 73.83048 
L 105.287786 73.8408 
L 108.30803 73.29384 
L 111.328273 73.72728 
L 114.348516 70.32168 
L 117.36876 69.77472 
L 120.389003 70.34232 
L 123.409246 70.67256 
L 126.42949 70.51776 
L 129.449733 70.848 
L 132.469976 72.31344 
L 135.49022 76.01832 
L 138.510463 75.41976 
L 141.530706 75.83256 
L 144.55095 75.79128 
L 147.571193 75.82224 
L 150.591436 77.82432 
L 153.61168 76.14216 
L 156.631923 74.75928 
L 159.652166 74.96568 
L 162.67241 77.75208 
L 165.692653 79.48584 
L 168.712896 83.31456 
L 171.73314 85.90488 
L 174.753383 84.79032 
L 177.303147 85.84296 
L 179.703296 88.25784 
L 182.722001 91.41576 
L 185.729311 88.7532 
L 188.818593 88.65 
L 191.813913 88.55712 
L 194.851389 88.96992 
L 197.865376 89.7336 
L 200.874747 90.456 
L 203.894082 90.56952 
L 206.878005 89.15568 
L 209.738882 88.9596 
L 212.952854 90.6624 
L 215.593714 89.94 
L 218.988552 90.00192 
L 222.005125 90.3528 
L 225.007715 90.62112 
L 228.009501 90.5076 
L 231.064247 90.3528 
L 234.093579 92.004 
L 236.858674 92.13816 
L 240.123194 91.25064 
L 243.129979 89.166 
L 246.144489 89.56848 
L 249.129147 90.93072 
L 252.21801 89.41368 
L 255.207072 90.37344 
L 258.234342 89.79552 
L 261.237666 90.23928 
L 264.264411 88.0824 
L 267.283221 88.7532 
L 270.280289 90.16704 
L 273.32986 90.67272 
L 276.359158 90.18768 
L 279.36 89.2692 
" clip-path="url(#pe9ceac35ee)" style="fill: none; stroke: #4a8dff; stroke-width: 0.6"/>
   </g>
   <g id="line2d_7">
    <path d="M 8.64 80.64168 
L 11.660243 81.38472 
L 14.680487 80.87904 
L 17.70073 83.13912 
L 20.720973 83.19072 
L 23.741217 85.296 
L 26.76146 87.17424 
L 29.781703 85.71912 
L 32.801947 87.53544 
L 35.82219 88.17528 
L 38.842433 85.41984 
L 41.862677 85.17216 
L 44.88292 84.9348 
L 47.903163 85.01736 
L 50.923407 86.14224 
L 53.94365 85.90488 
L 56.963893 86.328 
L 59.984137 86.24544 
L 63.00438 85.72944 
L 66.024623 85.7088 
L 69.044867 86.40024 
L 72.06511 85.09992 
L 75.085353 86.02872 
L 78.105597 84.78 
L 81.12584 83.53128 
L 84.146083 82.83984 
L 87.166326 82.03488 
L 90.18657 79.39296 
L 93.206813 79.66128 
L 96.227056 82.15872 
L 99.2473 82.43736 
L 102.267543 82.93272 
L 105.287786 83.00496 
L 108.30803 82.6128 
L 111.328273 82.28256 
L 114.348516 78.01008 
L 117.36876 76.19376 
L 120.389003 77.66952 
L 123.409246 77.74176 
L 126.42949 78.1752 
L 129.449733 79.5684 
L 132.469976 80.8068 
L 135.49022 85.20312 
L 138.510463 84.12984 
L 141.530706 84.03696 
L 144.55095 84.06792 
L 147.571193 84.3156 
L 150.591436 87.02976 
L 153.61168 85.21344 
L 156.631923 84.28464 
L 159.652166 84.32592 
L 162.67241 89.08344 
L 165.692653 89.5272 
L 168.712896 95.14128 
L 171.73314 96.98856 
L 174.753383 95.08968 
L 177.303147 97.71096 
L 179.703296 99.80592 
L 182.722001 101.79768 
L 185.729311 100.03296 
L 188.818593 100.518 
L 191.813913 99.98136 
L 194.851389 100.49736 
L 197.865376 100.78632 
L 200.874747 101.07528 
L 203.894082 101.26104 
L 206.878005 100.63152 
L 209.738882 100.38384 
L 212.952854 100.84824 
L 215.593714 100.65216 
L 218.988552 101.034 
L 222.005125 101.19912 
L 225.007715 101.10624 
L 228.009501 100.97208 
L 231.064247 100.91016 
L 234.093579 101.7564 
L 236.858674 101.84928 
L 240.123194 101.56032 
L 243.129979 100.85856 
L 246.144489 101.12688 
L 249.129147 101.4468 
L 252.21801 101.02368 
L 255.207072 101.30232 
L 258.234342 100.81728 
L 261.237666 100.79664 
L 264.264411 99.3312 
L 267.283221 99.92976 
L 270.280289 100.78632 
L 273.32986 101.17848 
L 276.359158 101.1372 
L 279.36 100.21872 
" clip-path="url(#pe9ceac35ee)" style="fill: none; stroke: #f5841e; stroke-width: 0.6"/>
   </g>
  </g>
 </g>
 <defs>
  <clipPath id="pe9ceac35ee">
   <rect x="8.64" y="4.8" width="270.72" height="103.2"/>
  </clipPath>
 </defs>
</svg>
