<?xml version="1.0" encoding="utf-8" standalone="no"?>
<!DOCTYPE svg PUBLIC "-//W3C//DTD SVG 1.1//EN"
  "http://www.w3.org/Graphics/SVG/1.1/DTD/svg11.dtd">
<svg xmlns:xlink="http://www.w3.org/1999/xlink" width="288pt" height="120pt" viewBox="0 0 288 120" xmlns="http://www.w3.org/2000/svg" version="1.1">
<desc id="nav-meta">{"window":"6m","count":4,"labels":["17.08","16.10","14.12","12.02"],"tick_utc":["2025-08-17T12:00:00Z","2025-10-16T12:00:00Z","2025-12-14T12:00:00Z","2026-02-12T03:34:13Z"],"w":720,"h":300}</desc>

 <metadata>
  <rdf:RDF xmlns:dc="http://purl.org/dc/elements/1.1/" xmlns:cc="http://creativecommons.org/ns#" xmlns:rdf="http://www.w3.org/1999/02/22-rdf-syntax-ns#">
   <cc:Work>
    <dc:type rdf:resource="http://purl.org/dc/dcmitype/StillImage"/>
    <dc:date>2026-02-12T19:38:54.622189</dc:date>
    <dc:format>image/svg+xml</dc:format>
    <dc:creator>
     <cc:Agent>
      <dc:title>Matplotlib v3.10.8, https://matplotlib.org/</dc:title>
     </cc:Agent>
    </dc:creator>
   </cc:Work>
  </rdf:RDF>
 </metadata>
 <defs>
  <style type="text/css">*{stroke-linejoin: round; stroke-linecap: butt}</style>
 </defs>
 <g id="figure_1">
  <g id="patch_1">
   <path d="M 0 120 
L 288 120 
L 288 0 
L 0 0 
L 0 120 
z
" style="fill: none; opacity: 0"/>
  </g>
  <g id="axes_1">
   <g id="patch_2">
    <path d="M 8.64 108 
L 279.36 108 
L 279.36 4.8 
L 8.64 4.8 
L 8.64 108 
z
" style="fill: none"/>
   </g>
   <g id="matplotlib.axis_1"/>
   <g id="matplotlib.axis_2"/>
   <g id="line2d_1">
    <path d="M 8.64 87.36 
L 279.36 87.36 
" clip-path="url(#p8f9a430d28)" style="fill: none; stroke: #b2b2b2; stroke-opacity: 0.35; stroke-width: 0.5; stroke-linecap: square"/>
   </g>
   <g id="line2d_2">
    <path d="M 8.64 66.72 
L 279.36 66.72 
" clip-path="url(#p8f9a430d28)" style="fill: none; stroke: #b2b2b2; stroke-opacity: 0.35; stroke-width: 0.5; stroke-linecap: square"/>
   </g>
   <g id="line2d_3">
    <path d="M 8.64 46.08 
L 279.36 46.08 
" clip-path="url(#p8f9a430d28)" style="fill: none; stroke: #b2b2b2; stroke-opacity: 0.35; stroke-width: 0.5; stroke-linecap: square"/>
   </g>
   <g id="line2d_4">
    <path d="M 8.64 25.44 
L 279.36 25.44 
" clip-path="url(#p8f9a430d28)" style="fill: none; stroke: #b2b2b2; stroke-opacity: 0.35; stroke-width: 0.5; stroke-linecap: square"/>
   </g>
   <g id="line2d_5">
    <path d="M 8.64 74.65608 
L 10.155376 74.14008 
L 11.670751 76.50336 
L 13.186127 78.30936 
L 14.701503 75.3372 
L 16.216879 77.25672 
L 17.732254 71.78712 
L 19.24763 70.75512 
L 20.763006 70.24944 
L 22.278382 75.35784 
L 23.793757 72.95328 
L 25.309133 70.96152 
L 26.824509 67.87584 
L 28.339885 70.46616 
L 29.85526 71.11632 
L 31.370636 71.61168 
L 32.886012 72.7056 
L 34.401388 69.33096 
L 35.916763 68.9388 
L 37.432139 71.12664 
L 38.947515 70.90992 
L 40.462891 71.80776 
L 41.978266 70.074 
L 43.493642 68.01 
L 45.009018 67.10184 
L 46.524394 65.29584 
L 48.039769 64.01616 
L 49.555145 60.31128 
L 51.070521 60.19776 
L 52.585897 60.786 
L 54.101272 62.61264 
L 55.616648 61.74576 
L 57.132024 59.57856 
L 58.6474 58.86648 
L 60.162775 61.38456 
L 61.678151 61.07496 
L 63.193527 61.83864 
L 64.708903 66.29688 
L 66.224278 67.97904 
L 67.739654 68.69112 
L 69.25503 73.9956 
L 70.770406 70.45584 
L 72.285781 70.87896 
L 73.801157 68.91816 
L 75.316533 68.3196 
L 76.831908 69.47544 
L 79.86266 62.39592 
L 81.378036 62.81904 
L 82.893411 64.22256 
L 84.408787 64.05744 
L 85.924163 62.9532 
L 87.439539 66.14208 
L 88.954914 63.91296 
L 90.47029 66.17304 
L 91.985666 74.6148 
L 93.501042 77.78304 
L 95.016417 72.66432 
L 96.531793 69.69216 
L 98.047169 71.09568 
L 101.07792 76.06992 
L 102.593296 76.76136 
L 104.108672 75.25464 
L 105.624048 75.24432 
L 107.139423 74.63544 
L 108.654799 75.73968 
L 110.170175 77.31864 
L 111.685551 74.202 
L 113.200926 73.64472 
L 114.716302 73.48992 
L 116.231678 71.83872 
L 117.747054 72.17928 
L 119.262429 73.38672 
L 120.777805 73.43832 
L 122.293181 76.15248 
L 123.808557 75.3372 
L 125.323932 75.58488 
L 126.839308 75.35784 
L 128.354684 81.168 
L 129.87006 84.01632 
L 131.385435 82.06584 
L 132.900811 84.19176 
L 134.416187 82.27224 
L 135.931563 83.29392 
L 137.446938 81.62208 
L 138.962314 80.72424 
L 140.47769 84.33624 
L 141.993065 84.64584 
L 143.508441 86.844 
L 145.023817 88.52616 
L 146.539193 88.36104 
L 148.054568 88.93896 
L 149.569944 90.79656 
L 151.08532 88.09272 
L 152.600696 89.22792 
L 154.116071 90.00192 
L 155.631447 91.39512 
L 157.146823 91.63248 
L 158.662199 90.75528 
L 160.177574 88.7016 
L 161.69295 88.52616 
L 163.208326 87.45288 
L 164.723702 88.0308 
L 166.239077 88.94928 
L 169.269829 89.7336 
L 170.785205 91.86984 
L 172.30058 88.60872 
L 173.815956 86.87496 
L 176.846708 90.11544 
L 178.362083 90.38376 
L 179.877459 90.53856 
L 181.392835 90.08448 
L 182.908211 88.79448 
L 184.423586 89.20728 
L 185.938962 89.22792 
L 187.454338 90.31152 
L 188.969714 90.10512 
L 190.485089 91.09584 
L 192.000465 91.61184 
L 193.515841 91.31256 
L 195.031217 92.87088 
L 196.546592 93.8616 
L 198.061968 92.02464 
L 199.577344 92.13816 
L 201.092719 92.07624 
L 202.608095 92.14848 
L 204.123471 92.64384 
L 205.638847 93.01536 
L 207.154222 93.69648 
L 210.184974 92.44776 
L 211.70035 92.30328 
L 213.215725 92.87088 
L 214.731101 92.38584 
L 216.246477 92.47872 
L 217.761853 91.88016 
L 219.277228 90.42504 
L 220.792604 90.08448 
L 222.30798 89.92968 
L 223.823356 88.76352 
L 225.338731 87.94824 
L 226.854107 89.2692 
L 228.369483 88.72224 
L 229.884859 89.39304 
L 231.400234 89.40336 
L 232.91561 88.41264 
L 234.430986 88.4952 
L 235.946362 86.86464 
L 237.461737 86.42088 
L 238.977113 87.62832 
L 240.492489 86.93688 
L 242.007865 87.23616 
L 245.038616 90.0432 
L 246.553992 92.12784 
L 248.069368 91.16808 
L 251.100119 91.73568 
L 252.615495 91.78728 
L 254.130871 94.0164 
L 255.646246 92.5716 
L 257.161622 91.76664 
L 258.676998 92.33424 
L 260.192374 94.36728 
L 261.707749 94.46016 
L 263.223125 97.71096 
L 264.738501 98.48496 
L 266.253876 97.85544 
L 268.737444 100.16712 
L 270.252048 102.23112 
L 271.760934 100.54896 
L 273.31095 100.70376 
L 274.81382 100.68312 
L 277.850079 101.28168 
L 279.36 101.71512 
L 279.36 101.71512 
" clip-path="url(#p8f9a430d28)" style="fill: none; stroke: #bebebe; stroke-width: 0.5; stroke-linecap: round"/>
   </g>
   <g id="line2d_6">
    <path d="M 8.64 53.90256 
L 10.155376 53.00472 
L 11.670751 55.5228 
L 13.186127 59.12448 
L 14.701503 55.32672 
L 16.216879 56.90568 
L 17.732254 47.92728 
L 19.24763 48.75288 
L 20.763006 48.68064 
L 22.278382 54.57336 
L 23.793757 51.2916 
L 25.309133 52.80864 
L 26.824509 52.69512 
L 28.339885 54.82104 
L 31.370636 54.45984 
L 32.886012 55.7292 
L 34.401388 55.39896 
L 35.916763 53.55168 
L 37.432139 55.81176 
L 38.947515 55.6776 
L 40.462891 56.18328 
L 41.978266 55.71888 
L 45.009018 55.63632 
L 46.524394 55.07904 
L 48.039769 53.41752 
L 49.555145 49.71264 
L 51.070521 50.32152 
L 52.585897 51.17808 
L 54.101272 52.44744 
L 55.616648 52.74672 
L 57.132024 51.4464 
L 58.6474 51.46704 
L 60.162775 53.2524 
L 61.678151 53.08728 
L 63.193527 53.5104 
L 64.708903 57.26688 
L 66.224278 57.76224 
L 67.739654 58.02024 
L 69.25503 62.26176 
L 70.770406 59.68176 
L 72.285781 59.9604 
L 73.801157 58.12344 
L 75.316533 57.02952 
L 76.831908 58.09248 
L 78.347284 55.13064 
L 79.86266 53.046 
L 81.378036 52.5816 
L 82.893411 52.9944 
L 84.408787 52.5816 
L 85.924163 50.0016 
L 87.439539 53.48976 
L 88.954914 52.40616 
L 90.47029 54.75912 
L 91.985666 62.67456 
L 93.501042 63.95424 
L 95.016417 57.86544 
L 96.531793 56.57544 
L 98.047169 58.31952 
L 99.562545 60.4764 
L 101.07792 61.85928 
L 102.593296 62.73648 
L 104.108672 61.8696 
L 105.624048 60.45576 
L 107.139423 60.54864 
L 108.654799 62.04504 
L 110.170175 63.16992 
L 111.685551 62.36496 
L 113.200926 61.21944 
L 114.716302 60.9408 
L 116.231678 57.83448 
L 117.747054 58.40208 
L 119.262429 60.49704 
L 120.777805 61.75608 
L 122.293181 63.1596 
L 123.808557 62.49912 
L 125.323932 62.1276 
L 126.839308 61.56 
L 129.87006 70.66224 
L 131.385435 68.72208 
L 132.900811 70.4868 
L 134.416187 68.61888 
L 135.931563 69.11424 
L 137.446938 66.5136 
L 138.962314 66.68904 
L 140.47769 68.8872 
L 141.993065 68.9904 
L 143.508441 71.5704 
L 145.023817 73.48992 
L 146.539193 72.54048 
L 148.054568 73.56216 
L 149.569944 74.74896 
L 151.08532 73.3248 
L 152.600696 74.80056 
L 154.116071 77.556 
L 155.631447 78.55704 
L 157.146823 78.50544 
L 158.662199 78.04104 
L 160.177574 75.76032 
L 161.69295 75.73968 
L 163.208326 74.65608 
L 164.723702 74.83152 
L 166.239077 74.57352 
L 167.754453 75.20304 
L 169.269829 75.17208 
L 170.785205 78.05136 
L 173.815956 72.16896 
L 175.331332 73.08744 
L 176.846708 74.72832 
L 179.877459 74.28456 
L 181.392835 73.21128 
L 182.908211 70.2804 
L 184.423586 70.2288 
L 185.938962 71.56008 
L 187.454338 73.79952 
L 188.969714 73.35576 
L 190.485089 74.0988 
L 192.000465 75.5952 
L 193.515841 75.5952 
L 195.031217 77.61792 
L 196.546592 77.63856 
L 198.061968 75.40944 
L 199.577344 75.40944 
L 201.092719 75.04824 
L 202.608095 74.98632 
L 204.123471 75.58488 
L 205.638847 75.87384 
L 207.154222 76.49304 
L 210.184974 75.82224 
L 211.70035 75.84288 
L 213.215725 76.03896 
L 214.731101 75.51264 
L 216.246477 75.56424 
L 217.761853 75.05856 
L 219.277228 73.26288 
L 220.792604 73.20096 
L 222.30798 73.00488 
L 223.823356 71.68392 
L 225.338731 70.6932 
L 226.854107 72.62304 
L 228.369483 73.52088 
L 229.884859 73.83048 
L 231.400234 73.8408 
L 232.91561 73.29384 
L 234.430986 73.72728 
L 235.946362 70.32168 
L 237.461737 69.77472 
L 238.977113 70.34232 
L 240.492489 70.67256 
L 242.007865 70.51776 
L 243.52324 70.848 
L 245.038616 72.31344 
L 246.553992 76.01832 
L 248.069368 75.41976 
L 249.584743 75.83256 
L 252.615495 75.82224 
L 254.130871 77.82432 
L 255.646246 76.14216 
L 257.161622 74.75928 
L 258.676998 74.96568 
L 260.192374 77.75208 
L 261.707749 79.48584 
L 263.223125 83.31456 
L 264.738501 85.90488 
L 266.253876 84.79032 
L 267.533194 85.84296 
L 270.252048 91.41576 
L 271.760934 88.7532 
L 274.81382 88.55712 
L 276.337843 88.96992 
L 279.36 90.456 
L 279.36 90.456 
" clip-path="url(#p8f9a430d28)" style="fill: none; stroke: #4a8dff; stroke-width: 0.6"/>
   </g>
   <g id="line2d_7">
    <path d="M 8.64 54.96552 
L 10.155376 54.92424 
L 11.670751 56.25552 
L 13.186127 59.8572 
L 14.701503 58.32984 
L 16.216879 60.23904 
L 17.732254 55.65696 
L 19.24763 57.18432 
L 20.763006 59.21736 
L 22.278382 62.55072 
L 23.793757 60.82728 
L 25.309133 61.47744 
L 26.824509 60.12552 
L 28.339885 64.31544 
L 29.85526 63.99552 
L 31.370636 64.5528 
L 32.886012 63.60336 
L 34.401388 61.5084 
L 35.916763 60.96144 
L 37.432139 61.98312 
L 38.947515 62.05536 
L 40.462891 62.51976 
L 43.493642 60.64152 
L 45.009018 61.13688 
L 46.524394 58.6188 
L 48.039769 57.03984 
L 49.555145 56.35872 
L 51.070521 56.5548 
L 52.585897 57.174 
L 54.101272 57.14304 
L 55.616648 55.7292 
L 57.132024 56.04912 
L 58.6474 55.33704 
L 60.162775 56.87472 
L 61.678151 56.8128 
L 63.193527 57.24624 
L 64.708903 59.93976 
L 66.224278 60.64152 
L 67.739654 59.29992 
L 69.25503 63.80976 
L 70.770406 63.03576 
L 72.285781 63.09768 
L 73.801157 60.51768 
L 75.316533 58.27824 
L 76.831908 58.5672 
L 78.347284 53.93352 
L 79.86266 51.74568 
L 81.378036 50.04288 
L 82.893411 49.90872 
L 84.408787 48.74256 
L 85.924163 47.43192 
L 87.439539 50.80656 
L 88.954914 48.90768 
L 90.47029 50.6208 
L 91.985666 59.42376 
L 93.501042 61.85928 
L 95.016417 57.35976 
L 96.531793 57.3288 
L 98.047169 59.46504 
L 101.07792 64.72824 
L 102.593296 66.42072 
L 104.108672 65.688 
L 105.624048 64.17096 
L 107.139423 62.10696 
L 108.654799 64.30512 
L 110.170175 65.20296 
L 111.685551 62.68488 
L 113.200926 61.70448 
L 114.716302 61.06464 
L 116.231678 58.1028 
L 117.747054 58.40208 
L 119.262429 59.68176 
L 120.777805 62.6952 
L 122.293181 64.56312 
L 123.808557 63.18024 
L 125.323932 62.72616 
L 126.839308 62.06568 
L 128.354684 66.33816 
L 129.87006 71.40528 
L 131.385435 69.08328 
L 132.900811 71.7252 
L 134.416187 69.57864 
L 135.931563 70.72416 
L 137.446938 68.2164 
L 138.962314 66.978 
L 140.47769 70.03272 
L 141.993065 71.5188 
L 143.508441 73.3764 
L 145.023817 78.846 
L 146.539193 77.75208 
L 148.054568 78.88728 
L 149.569944 81.34344 
L 151.08532 80.53848 
L 152.600696 82.0452 
L 154.116071 86.92656 
L 155.631447 88.58808 
L 157.146823 88.96992 
L 158.662199 86.7924 
L 160.177574 85.296 
L 161.69295 86.24544 
L 163.208326 82.96368 
L 164.723702 82.13808 
L 166.239077 82.47864 
L 167.754453 82.58184 
L 169.269829 83.03592 
L 170.785205 87.3084 
L 172.30058 82.06584 
L 173.815956 79.71288 
L 175.331332 81.24024 
L 176.846708 84.17112 
L 178.362083 84.24336 
L 179.877459 83.29392 
L 181.392835 82.8192 
L 182.908211 80.64168 
L 184.423586 81.38472 
L 185.938962 80.87904 
L 187.454338 83.13912 
L 188.969714 83.19072 
L 190.485089 85.296 
L 192.000465 87.17424 
L 193.515841 85.71912 
L 195.031217 87.53544 
L 196.546592 88.17528 
L 198.061968 85.41984 
L 201.092719 84.9348 
L 202.608095 85.01736 
L 204.123471 86.14224 
L 205.638847 85.90488 
L 207.154222 86.328 
L 208.669598 86.24544 
L 210.184974 85.72944 
L 211.70035 85.7088 
L 213.215725 86.40024 
L 214.731101 85.09992 
L 216.246477 86.02872 
L 219.277228 83.53128 
L 222.30798 82.03488 
L 223.823356 79.39296 
L 225.338731 79.66128 
L 226.854107 82.15872 
L 228.369483 82.43736 
L 229.884859 82.93272 
L 231.400234 83.00496 
L 234.430986 82.28256 
L 235.946362 78.01008 
L 237.461737 76.19376 
L 238.977113 77.66952 
L 240.492489 77.74176 
L 242.007865 78.1752 
L 243.52324 79.5684 
L 245.038616 80.8068 
L 246.553992 85.20312 
L 248.069368 84.12984 
L 249.584743 84.03696 
L 251.100119 84.06792 
L 252.615495 84.3156 
L 254.130871 87.02976 
L 255.646246 85.21344 
L 257.161622 84.28464 
L 258.676998 84.32592 
L 260.192374 89.08344 
L 261.707749 89.5272 
L 263.223125 95.14128 
L 264.738501 96.98856 
L 266.253876 95.08968 
L 267.533194 97.71096 
L 268.737444 99.80592 
L 270.252048 101.79768 
L 271.760934 100.03296 
L 273.31095 100.518 
L 274.81382 99.98136 
L 276.337843 100.49736 
L 279.36 101.07528 
L 279.36 101.07528 
" clip-path="url(#p8f9a430d28)" style="fill: none; stroke: #f5841e; stroke-width: 0.6"/>
   </g>
  </g>
 </g>
 <defs>
  <clipPath id="p8f9a430d28">
   <rect x="8.64" y="4.8" width="270.72" height="103.2"/>
  </clipPath>
 </defs>
</svg>
