<?xml version="1.0" encoding="utf-8" standalone="no"?>
<!DOCTYPE svg PUBLIC "-//W3C//DTD SVG 1.1//EN"
  "http://www.w3.org/Graphics/SVG/1.1/DTD/svg11.dtd">
<svg xmlns:xlink="http://www.w3.org/1999/xlink" width="288pt" height="120pt" viewBox="0 0 288 120" xmlns="http://www.w3.org/2000/svg" version="1.1">
<desc id="nav-meta">{"window":"3m","count":4,"labels":["23.11","23.12","21.01","20.02"],"tick_utc":["2025-11-23T12:00:00Z","2025-12-23T12:00:00Z","2026-01-21T12:00:00Z","2026-02-20T03:20:24Z"],"w":720,"h":300}</desc>

 <metadata>
  <rdf:RDF xmlns:dc="http://purl.org/dc/elements/1.1/" xmlns:cc="http://creativecommons.org/ns#" xmlns:rdf="http://www.w3.org/1999/02/22-rdf-syntax-ns#">
   <cc:Work>
    <dc:type rdf:resource="http://purl.org/dc/dcmitype/StillImage"/>
    <dc:date>2026-02-20T19:25:33.055552</dc:date>
    <dc:format>image/svg+xml</dc:format>
    <dc:creator>
     <cc:Agent>
      <dc:title>Matplotlib v3.10.8, https://matplotlib.org/</dc:title>
     </cc:Agent>
    </dc:creator>
   </cc:Work>
  </rdf:RDF>
 </metadata>
 <defs>
  <style type="text/css">*{stroke-linejoin: round; stroke-linecap: butt}</style>
 </defs>
 <g id="figure_1">
  <g id="patch_1">
   <path d="M 0 120 
L 288 120 
L 288 0 
L 0 0 
L 0 120 
z
" style="fill: none; opacity: 0"/>
  </g>
  <g id="axes_1">
   <g id="patch_2">
    <path d="M 8.64 108 
L 279.36 108 
L 279.36 4.8 
L 8.64 4.8 
L 8.64 108 
z
" style="fill: none"/>
   </g>
   <g id="matplotlib.axis_1"/>
   <g id="matplotlib.axis_2"/>
   <g id="line2d_1">
    <path d="M 8.64 87.36 
L 279.36 87.36 
" clip-path="url(#pc21b7b2613)" style="fill: none; stroke: #b2b2b2; stroke-opacity: 0.35; stroke-width: 0.5; stroke-linecap: square"/>
   </g>
   <g id="line2d_2">
    <path d="M 8.64 66.72 
L 279.36 66.72 
" clip-path="url(#pc21b7b2613)" style="fill: none; stroke: #b2b2b2; stroke-opacity: 0.35; stroke-width: 0.5; stroke-linecap: square"/>
   </g>
   <g id="line2d_3">
    <path d="M 8.64 46.08 
L 279.36 46.08 
" clip-path="url(#pc21b7b2613)" style="fill: none; stroke: #b2b2b2; stroke-opacity: 0.35; stroke-width: 0.5; stroke-linecap: square"/>
   </g>
   <g id="line2d_4">
    <path d="M 8.64 25.44 
L 279.36 25.44 
" clip-path="url(#pc21b7b2613)" style="fill: none; stroke: #b2b2b2; stroke-opacity: 0.35; stroke-width: 0.5; stroke-linecap: square"/>
   </g>
   <g id="line2d_5">
    <path d="M 8.64 91.63248 
L 11.69418 90.75528 
L 14.748361 88.7016 
L 17.802541 88.52616 
L 20.856721 87.45288 
L 23.910902 88.0308 
L 26.965082 88.94928 
L 30.019262 89.3208 
L 33.073443 89.7336 
L 36.127623 91.86984 
L 39.181803 88.60872 
L 42.235984 86.87496 
L 45.290164 88.52616 
L 48.344344 90.11544 
L 51.398525 90.38376 
L 54.452705 90.53856 
L 57.506885 90.08448 
L 60.561066 88.79448 
L 63.615246 89.20728 
L 66.669426 89.22792 
L 69.723607 90.31152 
L 72.777787 90.10512 
L 75.831967 91.09584 
L 78.886148 91.61184 
L 81.940328 91.31256 
L 84.994508 92.87088 
L 88.048689 93.8616 
L 91.102869 92.02464 
L 94.157049 92.13816 
L 97.21123 92.07624 
L 100.26541 92.14848 
L 103.31959 92.64384 
L 106.373771 93.01536 
L 109.427951 93.69648 
L 112.482131 93.11856 
L 115.536312 92.44776 
L 118.590492 92.30328 
L 121.644673 92.87088 
L 124.698853 92.38584 
L 127.753033 92.47872 
L 130.807214 91.88016 
L 133.861394 90.42504 
L 136.915574 90.08448 
L 139.969755 89.92968 
L 143.023935 88.76352 
L 146.078115 87.94824 
L 149.132296 89.2692 
L 152.186476 88.72224 
L 155.240656 89.39304 
L 158.294837 89.40336 
L 161.349017 88.41264 
L 164.403197 88.4952 
L 167.457378 86.86464 
L 170.511558 86.42088 
L 173.565738 87.62832 
L 176.619919 86.93688 
L 179.674099 87.23616 
L 182.728279 88.63968 
L 185.78246 90.0432 
L 188.83664 92.12784 
L 191.89082 91.16808 
L 194.945001 91.46736 
L 197.999181 91.73568 
L 201.053361 91.78728 
L 204.107542 94.0164 
L 207.161722 92.5716 
L 210.215902 91.76664 
L 213.270083 92.33424 
L 216.324263 94.36728 
L 219.378443 94.46016 
L 222.432624 97.71096 
L 225.486804 98.48496 
L 228.540984 97.85544 
L 231.119398 99.10416 
L 233.546517 100.16712 
L 236.599142 102.23112 
L 239.640243 100.54896 
L 242.764239 100.70376 
L 245.793215 100.68312 
L 248.864822 100.95144 
L 251.912675 101.28168 
L 254.955862 101.71512 
L 258.009123 101.84928 
L 261.026576 101.034 
L 263.919598 100.54896 
L 267.169685 101.04432 
L 269.840219 100.81728 
L 273.273202 101.034 
L 276.323671 101.4984 
L 279.36 101.33328 
" clip-path="url(#pc21b7b2613)" style="fill: none; stroke: #bebebe; stroke-width: 0.5; stroke-linecap: round"/>
   </g>
   <g id="line2d_6">
    <path d="M 8.64 78.50544 
L 11.69418 78.04104 
L 14.748361 75.76032 
L 17.802541 75.73968 
L 20.856721 74.65608 
L 23.910902 74.83152 
L 26.965082 74.57352 
L 30.019262 75.20304 
L 33.073443 75.17208 
L 36.127623 78.05136 
L 39.181803 75.1308 
L 42.235984 72.16896 
L 45.290164 73.08744 
L 48.344344 74.72832 
L 51.398525 74.48064 
L 54.452705 74.28456 
L 57.506885 73.21128 
L 60.561066 70.2804 
L 63.615246 70.2288 
L 66.669426 71.56008 
L 69.723607 73.79952 
L 72.777787 73.35576 
L 75.831967 74.0988 
L 78.886148 75.5952 
L 81.940328 75.5952 
L 84.994508 77.61792 
L 88.048689 77.63856 
L 91.102869 75.40944 
L 94.157049 75.40944 
L 97.21123 75.04824 
L 100.26541 74.98632 
L 103.31959 75.58488 
L 106.373771 75.87384 
L 109.427951 76.49304 
L 112.482131 76.15248 
L 115.536312 75.82224 
L 118.590492 75.84288 
L 121.644673 76.03896 
L 124.698853 75.51264 
L 127.753033 75.56424 
L 130.807214 75.05856 
L 133.861394 73.26288 
L 136.915574 73.20096 
L 139.969755 73.00488 
L 143.023935 71.68392 
L 146.078115 70.6932 
L 149.132296 72.62304 
L 152.186476 73.52088 
L 155.240656 73.83048 
L 158.294837 73.8408 
L 161.349017 73.29384 
L 164.403197 73.72728 
L 167.457378 70.32168 
L 170.511558 69.77472 
L 173.565738 70.34232 
L 176.619919 70.67256 
L 179.674099 70.51776 
L 182.728279 70.848 
L 185.78246 72.31344 
L 188.83664 76.01832 
L 191.89082 75.41976 
L 194.945001 75.83256 
L 197.999181 75.79128 
L 201.053361 75.82224 
L 204.107542 77.82432 
L 207.161722 76.14216 
L 210.215902 74.75928 
L 213.270083 74.96568 
L 216.324263 77.75208 
L 219.378443 79.48584 
L 222.432624 83.31456 
L 225.486804 85.90488 
L 228.540984 84.79032 
L 231.119398 85.84296 
L 233.546517 88.25784 
L 236.599142 91.41576 
L 239.640243 88.7532 
L 242.764239 88.65 
L 245.793215 88.55712 
L 248.864822 88.96992 
L 251.912675 89.7336 
L 254.955862 90.456 
L 258.009123 90.56952 
L 261.026576 89.15568 
L 263.919598 88.9596 
L 267.169685 90.6624 
L 269.840219 89.94 
L 273.273202 90.00192 
L 276.323671 90.3528 
L 279.36 90.62112 
" clip-path="url(#pc21b7b2613)" style="fill: none; stroke: #4a8dff; stroke-width: 0.6"/>
   </g>
   <g id="line2d_7">
    <path d="M 8.64 88.96992 
L 11.69418 86.7924 
L 14.748361 85.296 
L 17.802541 86.24544 
L 20.856721 82.96368 
L 23.910902 82.13808 
L 26.965082 82.47864 
L 30.019262 82.58184 
L 33.073443 83.03592 
L 36.127623 87.3084 
L 39.181803 82.06584 
L 42.235984 79.71288 
L 45.290164 81.24024 
L 48.344344 84.17112 
L 51.398525 84.24336 
L 54.452705 83.29392 
L 57.506885 82.8192 
L 60.561066 80.64168 
L 63.615246 81.38472 
L 66.669426 80.87904 
L 69.723607 83.13912 
L 72.777787 83.19072 
L 75.831967 85.296 
L 78.886148 87.17424 
L 81.940328 85.71912 
L 84.994508 87.53544 
L 88.048689 88.17528 
L 91.102869 85.41984 
L 94.157049 85.17216 
L 97.21123 84.9348 
L 100.26541 85.01736 
L 103.31959 86.14224 
L 106.373771 85.90488 
L 109.427951 86.328 
L 112.482131 86.24544 
L 115.536312 85.72944 
L 118.590492 85.7088 
L 121.644673 86.40024 
L 124.698853 85.09992 
L 127.753033 86.02872 
L 130.807214 84.78 
L 133.861394 83.53128 
L 136.915574 82.83984 
L 139.969755 82.03488 
L 143.023935 79.39296 
L 146.078115 79.66128 
L 149.132296 82.15872 
L 152.186476 82.43736 
L 155.240656 82.93272 
L 158.294837 83.00496 
L 161.349017 82.6128 
L 164.403197 82.28256 
L 167.457378 78.01008 
L 170.511558 76.19376 
L 173.565738 77.66952 
L 176.619919 77.74176 
L 179.674099 78.1752 
L 182.728279 79.5684 
L 185.78246 80.8068 
L 188.83664 85.20312 
L 191.89082 84.12984 
L 194.945001 84.03696 
L 197.999181 84.06792 
L 201.053361 84.3156 
L 204.107542 87.02976 
L 207.161722 85.21344 
L 210.215902 84.28464 
L 213.270083 84.32592 
L 216.324263 89.08344 
L 219.378443 89.5272 
L 222.432624 95.14128 
L 225.486804 96.98856 
L 228.540984 95.08968 
L 231.119398 97.71096 
L 233.546517 99.80592 
L 236.599142 101.79768 
L 239.640243 100.03296 
L 242.764239 100.518 
L 245.793215 99.98136 
L 248.864822 100.49736 
L 251.912675 100.78632 
L 254.955862 101.07528 
L 258.009123 101.26104 
L 261.026576 100.63152 
L 263.919598 100.38384 
L 267.169685 100.84824 
L 269.840219 100.65216 
L 273.273202 101.034 
L 276.323671 101.19912 
L 279.36 101.10624 
" clip-path="url(#pc21b7b2613)" style="fill: none; stroke: #f5841e; stroke-width: 0.6"/>
   </g>
  </g>
 </g>
 <defs>
  <clipPath id="pc21b7b2613">
   <rect x="8.64" y="4.8" width="270.72" height="103.2"/>
  </clipPath>
 </defs>
</svg>
