<?xml version="1.0" encoding="utf-8" standalone="no"?>
<!DOCTYPE svg PUBLIC "-//W3C//DTD SVG 1.1//EN"
  "http://www.w3.org/Graphics/SVG/1.1/DTD/svg11.dtd">
<svg xmlns:xlink="http://www.w3.org/1999/xlink" width="288pt" height="120pt" viewBox="0 0 288 120" xmlns="http://www.w3.org/2000/svg" version="1.1">
<desc id="nav-meta">{"window":"1m","count":4,"labels":["16.01","26.01","04.02","14.02"],"tick_utc":["2026-01-16T12:00:00Z","2026-01-26T12:00:00Z","2026-02-04T08:15:41Z","2026-02-14T03:16:28Z"],"w":720,"h":300}</desc>

 <metadata>
  <rdf:RDF xmlns:dc="http://purl.org/dc/elements/1.1/" xmlns:cc="http://creativecommons.org/ns#" xmlns:rdf="http://www.w3.org/1999/02/22-rdf-syntax-ns#">
   <cc:Work>
    <dc:type rdf:resource="http://purl.org/dc/dcmitype/StillImage"/>
    <dc:date>2026-02-14T18:38:55.439177</dc:date>
    <dc:format>image/svg+xml</dc:format>
    <dc:creator>
     <cc:Agent>
      <dc:title>Matplotlib v3.10.8, https://matplotlib.org/</dc:title>
     </cc:Agent>
    </dc:creator>
   </cc:Work>
  </rdf:RDF>
 </metadata>
 <defs>
  <style type="text/css">*{stroke-linejoin: round; stroke-linecap: butt}</style>
 </defs>
 <g id="figure_1">
  <g id="patch_1">
   <path d="M 0 120 
L 288 120 
L 288 0 
L 0 0 
L 0 120 
z
" style="fill: none; opacity: 0"/>
  </g>
  <g id="axes_1">
   <g id="patch_2">
    <path d="M 8.64 108 
L 279.36 108 
L 279.36 4.8 
L 8.64 4.8 
L 8.64 108 
z
" style="fill: none"/>
   </g>
   <g id="matplotlib.axis_1"/>
   <g id="matplotlib.axis_2"/>
   <g id="line2d_1">
    <path d="M 8.64 87.36 
L 279.36 87.36 
" clip-path="url(#pf161c356cc)" style="fill: none; stroke: #b2b2b2; stroke-opacity: 0.35; stroke-width: 0.5; stroke-linecap: square"/>
   </g>
   <g id="line2d_2">
    <path d="M 8.64 66.72 
L 279.36 66.72 
" clip-path="url(#pf161c356cc)" style="fill: none; stroke: #b2b2b2; stroke-opacity: 0.35; stroke-width: 0.5; stroke-linecap: square"/>
   </g>
   <g id="line2d_3">
    <path d="M 8.64 46.08 
L 279.36 46.08 
" clip-path="url(#pf161c356cc)" style="fill: none; stroke: #b2b2b2; stroke-opacity: 0.35; stroke-width: 0.5; stroke-linecap: square"/>
   </g>
   <g id="line2d_4">
    <path d="M 8.64 25.44 
L 279.36 25.44 
" clip-path="url(#pf161c356cc)" style="fill: none; stroke: #b2b2b2; stroke-opacity: 0.35; stroke-width: 0.5; stroke-linecap: square"/>
   </g>
   <g id="line2d_5">
    <path d="M 8.64 87.62832 
L 18.093691 86.93688 
L 27.547381 87.23616 
L 37.001072 88.63968 
L 46.454763 90.0432 
L 55.908453 92.12784 
L 65.362144 91.16808 
L 74.815835 91.46736 
L 84.269525 91.73568 
L 93.723216 91.78728 
L 103.176907 94.0164 
L 112.630597 92.5716 
L 122.084288 91.76664 
L 131.537979 92.33424 
L 140.991669 94.36728 
L 150.44536 94.46016 
L 159.899051 97.71096 
L 169.352741 98.48496 
L 178.806432 97.85544 
L 186.78747 99.10416 
L 194.300199 100.16712 
L 203.749076 102.23112 
L 213.162282 100.54896 
L 222.832072 100.70376 
L 232.207748 100.68312 
L 241.715382 100.95144 
L 251.149487 101.28168 
L 260.569149 101.71512 
L 270.019994 101.84928 
L 279.36 101.034 
" clip-path="url(#pf161c356cc)" style="fill: none; stroke: #bebebe; stroke-width: 0.5; stroke-linecap: round"/>
   </g>
   <g id="line2d_6">
    <path d="M 8.64 70.34232 
L 18.093691 70.67256 
L 27.547381 70.51776 
L 37.001072 70.848 
L 46.454763 72.31344 
L 55.908453 76.01832 
L 65.362144 75.41976 
L 74.815835 75.83256 
L 84.269525 75.79128 
L 93.723216 75.82224 
L 103.176907 77.82432 
L 112.630597 76.14216 
L 122.084288 74.75928 
L 131.537979 74.96568 
L 140.991669 77.75208 
L 150.44536 79.48584 
L 159.899051 83.31456 
L 169.352741 85.90488 
L 178.806432 84.79032 
L 186.78747 85.84296 
L 194.300199 88.25784 
L 203.749076 91.41576 
L 213.162282 88.7532 
L 222.832072 88.65 
L 232.207748 88.55712 
L 241.715382 88.96992 
L 251.149487 89.7336 
L 260.569149 90.456 
L 270.019994 90.56952 
L 279.36 89.15568 
" clip-path="url(#pf161c356cc)" style="fill: none; stroke: #4a8dff; stroke-width: 0.6"/>
   </g>
   <g id="line2d_7">
    <path d="M 8.64 77.66952 
L 18.093691 77.74176 
L 27.547381 78.1752 
L 37.001072 79.5684 
L 46.454763 80.8068 
L 55.908453 85.20312 
L 65.362144 84.12984 
L 74.815835 84.03696 
L 84.269525 84.06792 
L 93.723216 84.3156 
L 103.176907 87.02976 
L 112.630597 85.21344 
L 122.084288 84.28464 
L 131.537979 84.32592 
L 140.991669 89.08344 
L 150.44536 89.5272 
L 159.899051 95.14128 
L 169.352741 96.98856 
L 178.806432 95.08968 
L 186.78747 97.71096 
L 194.300199 99.80592 
L 203.749076 101.79768 
L 213.162282 100.03296 
L 222.832072 100.518 
L 232.207748 99.98136 
L 241.715382 100.49736 
L 251.149487 100.78632 
L 260.569149 101.07528 
L 270.019994 101.26104 
L 279.36 100.63152 
" clip-path="url(#pf161c356cc)" style="fill: none; stroke: #f5841e; stroke-width: 0.6"/>
   </g>
  </g>
 </g>
 <defs>
  <clipPath id="pf161c356cc">
   <rect x="8.64" y="4.8" width="270.72" height="103.2"/>
  </clipPath>
 </defs>
</svg>
