<?xml version="1.0" encoding="utf-8" standalone="no"?>
<!DOCTYPE svg PUBLIC "-//W3C//DTD SVG 1.1//EN"
  "http://www.w3.org/Graphics/SVG/1.1/DTD/svg11.dtd">
<svg xmlns:xlink="http://www.w3.org/1999/xlink" width="288pt" height="120pt" viewBox="0 0 288 120" xmlns="http://www.w3.org/2000/svg" version="1.1">
<desc id="nav-meta">{"window":"3m","count":4,"labels":["13.01","12.02","13.03","12.04"],"tick_utc":["2026-01-13T12:00:00Z","2026-02-12T03:34:13Z","2026-03-13T03:16:57Z","2026-04-12T03:55:19Z"],"w":720,"h":300}</desc>

 <metadata>
  <rdf:RDF xmlns:dc="http://purl.org/dc/elements/1.1/" xmlns:cc="http://creativecommons.org/ns#" xmlns:rdf="http://www.w3.org/1999/02/22-rdf-syntax-ns#">
   <cc:Work>
    <dc:type rdf:resource="http://purl.org/dc/dcmitype/StillImage"/>
    <dc:date>2026-04-12T19:27:34.068014</dc:date>
    <dc:format>image/svg+xml</dc:format>
    <dc:creator>
     <cc:Agent>
      <dc:title>Matplotlib v3.10.8, https://matplotlib.org/</dc:title>
     </cc:Agent>
    </dc:creator>
   </cc:Work>
  </rdf:RDF>
 </metadata>
 <defs>
  <style type="text/css">*{stroke-linejoin: round; stroke-linecap: butt}</style>
 </defs>
 <g id="figure_1">
  <g id="patch_1">
   <path d="M 0 120 
L 288 120 
L 288 0 
L 0 0 
L 0 120 
z
" style="fill: none; opacity: 0"/>
  </g>
  <g id="axes_1">
   <g id="patch_2">
    <path d="M 8.64 108 
L 279.36 108 
L 279.36 4.8 
L 8.64 4.8 
L 8.64 108 
z
" style="fill: none"/>
   </g>
   <g id="matplotlib.axis_1"/>
   <g id="matplotlib.axis_2"/>
   <g id="line2d_1">
    <path d="M 8.64 87.36 
L 279.36 87.36 
" clip-path="url(#pdbf305e4e2)" style="fill: none; stroke: #b2b2b2; stroke-opacity: 0.35; stroke-width: 0.5; stroke-linecap: square"/>
   </g>
   <g id="line2d_2">
    <path d="M 8.64 66.72 
L 279.36 66.72 
" clip-path="url(#pdbf305e4e2)" style="fill: none; stroke: #b2b2b2; stroke-opacity: 0.35; stroke-width: 0.5; stroke-linecap: square"/>
   </g>
   <g id="line2d_3">
    <path d="M 8.64 46.08 
L 279.36 46.08 
" clip-path="url(#pdbf305e4e2)" style="fill: none; stroke: #b2b2b2; stroke-opacity: 0.35; stroke-width: 0.5; stroke-linecap: square"/>
   </g>
   <g id="line2d_4">
    <path d="M 8.64 25.44 
L 279.36 25.44 
" clip-path="url(#pdbf305e4e2)" style="fill: none; stroke: #b2b2b2; stroke-opacity: 0.35; stroke-width: 0.5; stroke-linecap: square"/>
   </g>
   <g id="line2d_5">
    <path d="M 8.64 88.4952 
L 11.693345 86.86464 
L 14.74669 86.42088 
L 17.800035 87.62832 
L 20.85338 86.93688 
L 23.906725 87.23616 
L 26.96007 88.63968 
L 30.013416 90.0432 
L 33.066761 92.12784 
L 36.120106 91.16808 
L 39.173451 91.46736 
L 42.226796 91.73568 
L 45.280141 91.78728 
L 48.333486 94.0164 
L 51.386831 92.5716 
L 54.440176 91.76664 
L 57.493521 92.33424 
L 60.546866 94.36728 
L 63.600211 94.46016 
L 66.653557 97.71096 
L 69.706902 98.48496 
L 72.760247 97.85544 
L 75.337956 99.10416 
L 77.764411 100.16712 
L 80.816201 102.23112 
L 83.85647 100.54896 
L 86.979611 100.70376 
L 90.007759 100.68312 
L 93.078527 100.95144 
L 96.125546 101.28168 
L 99.1679 101.71512 
L 102.220327 101.84928 
L 105.236954 101.034 
L 108.129185 100.54896 
L 111.378383 101.04432 
L 114.048187 100.81728 
L 117.480231 101.034 
L 120.529866 101.4984 
L 123.565364 101.33328 
L 126.60005 101.1372 
L 129.688275 101.06496 
L 132.750809 102.09696 
L 135.54621 102.05568 
L 138.846508 101.4984 
L 141.886248 100.60056 
L 144.933797 100.80696 
L 147.951166 101.45712 
L 151.073883 100.55928 
L 154.095705 101.10624 
L 157.156154 100.8792 
L 160.192394 100.74504 
L 163.252313 100.21872 
L 166.304209 100.53864 
L 169.334124 101.07528 
L 172.417119 101.38488 
L 175.479617 101.26104 
L 178.513348 100.78632 
L 181.565492 100.91016 
L 184.630852 100.99272 
L 187.678296 100.38384 
L 190.727577 100.50768 
L 193.839338 100.60056 
L 196.901306 99.76464 
L 199.901218 99.49632 
L 202.977852 99.40344 
L 206.032045 100.09488 
L 209.055669 100.3632 
L 212.091133 100.19808 
L 215.190136 100.47672 
L 218.250655 100.79664 
L 221.275729 100.26 
L 224.556485 99.83688 
L 227.419561 100.13616 
L 230.476758 100.80696 
L 233.500913 101.38488 
L 236.595852 101.3436 
L 239.657926 101.292 
L 242.692011 101.28168 
L 245.771543 101.28168 
L 248.784672 101.8596 
L 251.841515 101.88024 
L 254.868709 101.72544 
L 257.968031 101.68416 
L 261.029257 101.47776 
L 264.062776 101.78736 
L 267.121069 101.09592 
L 270.163777 101.46744 
L 273.245217 101.3436 
L 276.251878 101.05464 
L 279.36 101.3952 
" clip-path="url(#pdbf305e4e2)" style="fill: none; stroke: #bebebe; stroke-width: 0.5; stroke-linecap: round"/>
   </g>
   <g id="line2d_6">
    <path d="M 8.64 73.72728 
L 11.693345 70.32168 
L 14.74669 69.77472 
L 17.800035 70.34232 
L 20.85338 70.67256 
L 23.906725 70.51776 
L 26.96007 70.848 
L 30.013416 72.31344 
L 33.066761 76.01832 
L 36.120106 75.41976 
L 39.173451 75.83256 
L 42.226796 75.79128 
L 45.280141 75.82224 
L 48.333486 77.82432 
L 51.386831 76.14216 
L 54.440176 74.75928 
L 57.493521 74.96568 
L 60.546866 77.75208 
L 63.600211 79.48584 
L 66.653557 83.31456 
L 69.706902 85.90488 
L 72.760247 84.79032 
L 75.337956 85.84296 
L 77.764411 88.25784 
L 80.816201 91.41576 
L 83.85647 88.7532 
L 86.979611 88.65 
L 90.007759 88.55712 
L 93.078527 88.96992 
L 96.125546 89.7336 
L 99.1679 90.456 
L 102.220327 90.56952 
L 105.236954 89.15568 
L 108.129185 88.9596 
L 111.378383 90.6624 
L 114.048187 89.94 
L 117.480231 90.00192 
L 120.529866 90.3528 
L 123.565364 90.62112 
L 126.60005 90.5076 
L 129.688275 90.3528 
L 132.750809 92.004 
L 135.54621 92.13816 
L 138.846508 91.25064 
L 141.886248 89.166 
L 144.933797 89.56848 
L 147.951166 90.93072 
L 151.073883 89.41368 
L 154.095705 90.37344 
L 157.156154 89.79552 
L 160.192394 90.23928 
L 163.252313 88.0824 
L 166.304209 88.7532 
L 169.334124 90.16704 
L 172.417119 90.67272 
L 175.479617 90.18768 
L 178.513348 89.2692 
L 181.565492 89.54784 
L 184.630852 89.49624 
L 187.678296 88.31976 
L 190.727577 88.45392 
L 193.839338 88.46424 
L 196.901306 86.38992 
L 199.901218 84.80064 
L 202.977852 84.8316 
L 206.032045 86.586 
L 209.055669 87.74184 
L 212.091133 87.618 
L 215.190136 88.19592 
L 218.250655 89.08344 
L 221.275729 87.89664 
L 224.556485 87.3084 
L 227.419561 87.65928 
L 230.476758 88.96992 
L 233.500913 90.07416 
L 236.595852 89.76456 
L 239.657926 89.3724 
L 242.692011 89.00088 
L 245.771543 88.42296 
L 248.784672 88.81512 
L 251.841515 89.10408 
L 254.868709 89.14536 
L 257.968031 89.07312 
L 261.029257 87.9792 
L 264.062776 88.29912 
L 267.121069 86.38992 
L 270.163777 87.24648 
L 273.245217 87.1536 
L 276.251878 86.21448 
L 279.36 86.66856 
" clip-path="url(#pdbf305e4e2)" style="fill: none; stroke: #4a8dff; stroke-width: 0.6"/>
   </g>
   <g id="line2d_7">
    <path d="M 8.64 82.28256 
L 11.693345 78.01008 
L 14.74669 76.19376 
L 17.800035 77.66952 
L 20.85338 77.74176 
L 23.906725 78.1752 
L 26.96007 79.5684 
L 30.013416 80.8068 
L 33.066761 85.20312 
L 36.120106 84.12984 
L 39.173451 84.03696 
L 42.226796 84.06792 
L 45.280141 84.3156 
L 48.333486 87.02976 
L 51.386831 85.21344 
L 54.440176 84.28464 
L 57.493521 84.32592 
L 60.546866 89.08344 
L 63.600211 89.5272 
L 66.653557 95.14128 
L 69.706902 96.98856 
L 72.760247 95.08968 
L 75.337956 97.71096 
L 77.764411 99.80592 
L 80.816201 101.79768 
L 83.85647 100.03296 
L 86.979611 100.518 
L 90.007759 99.98136 
L 93.078527 100.49736 
L 96.125546 100.78632 
L 99.1679 101.07528 
L 102.220327 101.26104 
L 105.236954 100.63152 
L 108.129185 100.38384 
L 111.378383 100.84824 
L 114.048187 100.65216 
L 117.480231 101.034 
L 120.529866 101.19912 
L 123.565364 101.10624 
L 126.60005 100.97208 
L 129.688275 100.91016 
L 132.750809 101.7564 
L 135.54621 101.84928 
L 138.846508 101.56032 
L 141.886248 100.85856 
L 144.933797 101.12688 
L 147.951166 101.4468 
L 151.073883 101.02368 
L 154.095705 101.30232 
L 157.156154 100.81728 
L 160.192394 100.79664 
L 163.252313 99.3312 
L 166.304209 99.92976 
L 169.334124 100.78632 
L 172.417119 101.17848 
L 175.479617 101.1372 
L 178.513348 100.21872 
L 181.565492 100.37352 
L 184.630852 100.4664 
L 187.678296 99.88848 
L 190.727577 99.94008 
L 193.839338 99.81624 
L 196.901306 98.93904 
L 199.901218 98.3508 
L 202.977852 98.52624 
L 206.032045 99.78528 
L 209.055669 100.12584 
L 212.091133 100.03296 
L 215.190136 100.45608 
L 218.250655 100.83792 
L 221.275729 100.11552 
L 224.556485 99.87816 
L 227.419561 100.002 
L 230.476758 100.64184 
L 233.500913 101.41584 
L 236.595852 101.21976 
L 239.657926 101.14752 
L 242.692011 101.00304 
L 245.771543 100.86888 
L 248.784672 101.21976 
L 251.841515 101.28168 
L 254.868709 101.20944 
L 257.968031 101.14752 
L 261.029257 100.55928 
L 264.062776 100.65216 
L 267.121069 99.80592 
L 270.163777 99.96072 
L 273.245217 99.6408 
L 276.251878 99.1764 
L 279.36 99.70272 
" clip-path="url(#pdbf305e4e2)" style="fill: none; stroke: #f5841e; stroke-width: 0.6"/>
   </g>
  </g>
 </g>
 <defs>
  <clipPath id="pdbf305e4e2">
   <rect x="8.64" y="4.8" width="270.72" height="103.2"/>
  </clipPath>
 </defs>
</svg>
