<?xml version="1.0" encoding="utf-8" standalone="no"?>
<!DOCTYPE svg PUBLIC "-//W3C//DTD SVG 1.1//EN"
  "http://www.w3.org/Graphics/SVG/1.1/DTD/svg11.dtd">
<svg xmlns:xlink="http://www.w3.org/1999/xlink" width="288pt" height="120pt" viewBox="0 0 288 120" xmlns="http://www.w3.org/2000/svg" version="1.1">
<desc id="nav-meta">{"window":"1m","count":4,"labels":["09.05","19.05","28.05","07.06"],"tick_utc":["2026-05-09T04:06:35Z","2026-05-19T04:46:06Z","2026-05-28T04:58:45Z","2026-06-07T05:11:57Z"],"w":720,"h":300}</desc>

 <metadata>
  <rdf:RDF xmlns:dc="http://purl.org/dc/elements/1.1/" xmlns:cc="http://creativecommons.org/ns#" xmlns:rdf="http://www.w3.org/1999/02/22-rdf-syntax-ns#">
   <cc:Work>
    <dc:type rdf:resource="http://purl.org/dc/dcmitype/StillImage"/>
    <dc:date>2026-06-07T14:32:03.414899</dc:date>
    <dc:format>image/svg+xml</dc:format>
    <dc:creator>
     <cc:Agent>
      <dc:title>Matplotlib v3.10.9, https://matplotlib.org/</dc:title>
     </cc:Agent>
    </dc:creator>
   </cc:Work>
  </rdf:RDF>
 </metadata>
 <defs>
  <style type="text/css">*{stroke-linejoin: round; stroke-linecap: butt}</style>
 </defs>
 <g id="figure_1">
  <g id="patch_1">
   <path d="M 0 120 
L 288 120 
L 288 0 
L 0 0 
L 0 120 
z
" style="fill: none; opacity: 0"/>
  </g>
  <g id="axes_1">
   <g id="patch_2">
    <path d="M 8.64 108 
L 279.36 108 
L 279.36 4.8 
L 8.64 4.8 
L 8.64 108 
z
" style="fill: none"/>
   </g>
   <g id="matplotlib.axis_1"/>
   <g id="matplotlib.axis_2"/>
   <g id="line2d_1">
    <path d="M 8.64 87.36 
L 279.36 87.36 
" clip-path="url(#p9f65ce19fb)" style="fill: none; stroke: #b2b2b2; stroke-opacity: 0.35; stroke-width: 0.5; stroke-linecap: square"/>
   </g>
   <g id="line2d_2">
    <path d="M 8.64 66.72 
L 279.36 66.72 
" clip-path="url(#p9f65ce19fb)" style="fill: none; stroke: #b2b2b2; stroke-opacity: 0.35; stroke-width: 0.5; stroke-linecap: square"/>
   </g>
   <g id="line2d_3">
    <path d="M 8.64 46.08 
L 279.36 46.08 
" clip-path="url(#p9f65ce19fb)" style="fill: none; stroke: #b2b2b2; stroke-opacity: 0.35; stroke-width: 0.5; stroke-linecap: square"/>
   </g>
   <g id="line2d_4">
    <path d="M 8.64 25.44 
L 279.36 25.44 
" clip-path="url(#p9f65ce19fb)" style="fill: none; stroke: #b2b2b2; stroke-opacity: 0.35; stroke-width: 0.5; stroke-linecap: square"/>
   </g>
   <g id="line2d_5">
    <path d="M 8.64 99.60984 
L 18.148397 99.72336 
L 27.542552 99.44472 
L 36.733683 99.25896 
L 46.098603 99.32088 
L 55.40883 100.22904 
L 64.775368 100.01232 
L 73.976963 100.43544 
L 83.436707 100.75536 
L 92.847799 101.02368 
L 102.101606 101.02368 
L 111.455523 101.17848 
L 120.829182 100.7244 
L 130.07835 100.75536 
L 139.270883 101.11656 
L 148.739042 100.91016 
L 158.182281 100.89984 
L 167.361653 101.1372 
L 176.777923 101.2404 
L 186.068732 101.6532 
L 195.396219 101.4984 
L 204.582387 101.48808 
L 214.093265 101.32296 
L 223.551715 101.51904 
L 232.780602 101.7048 
L 242.206042 102.54072 
L 251.494693 103.08768 
L 260.661767 103.36632 
L 269.839089 104.22288 
L 279.36 103.85136 
" clip-path="url(#p9f65ce19fb)" style="fill: none; stroke: #bebebe; stroke-width: 0.5; stroke-linecap: round"/>
   </g>
   <g id="line2d_6">
    <path d="M 8.64 85.0896 
L 18.148397 85.01736 
L 27.542552 84.9348 
L 36.733683 85.296 
L 46.098603 85.35792 
L 55.40883 86.1732 
L 64.775368 85.92552 
L 73.976963 86.55504 
L 83.436707 87.13296 
L 92.847799 88.10304 
L 102.101606 87.9276 
L 111.455523 88.26816 
L 120.829182 87.78312 
L 130.07835 87.95856 
L 139.270883 88.94928 
L 148.739042 88.14432 
L 158.182281 88.33008 
L 167.361653 88.52616 
L 176.777923 88.86672 
L 186.068732 90.22896 
L 195.396219 89.82648 
L 204.582387 89.87808 
L 214.093265 89.46528 
L 223.551715 90.0432 
L 232.780602 89.96064 
L 242.206042 91.99368 
L 251.494693 93.05664 
L 260.661767 93.74808 
L 269.839089 97.02984 
L 279.36 95.93592 
" clip-path="url(#p9f65ce19fb)" style="fill: none; stroke: #4a8dff; stroke-width: 0.6"/>
   </g>
   <g id="line2d_7">
    <path d="M 8.64 93.1392 
L 18.148397 92.97408 
L 27.542552 92.9844 
L 36.733683 92.60256 
L 46.098603 92.53032 
L 55.40883 94.54272 
L 64.775368 92.85024 
L 73.976963 94.82136 
L 83.436707 95.75016 
L 92.847799 96.97824 
L 102.101606 97.08144 
L 111.455523 97.23624 
L 120.829182 95.94624 
L 130.07835 96.30744 
L 139.270883 98.08248 
L 148.739042 97.2672 
L 158.182281 96.61704 
L 167.361653 97.23624 
L 176.777923 98.08248 
L 186.068732 99.18672 
L 195.396219 99.03192 
L 204.582387 99.1248 
L 214.093265 98.74296 
L 223.551715 99.09384 
L 232.780602 100.0536 
L 242.206042 101.23008 
L 251.494693 101.99376 
L 260.661767 102.08664 
L 269.839089 102.8916 
L 279.36 102.45816 
" clip-path="url(#p9f65ce19fb)" style="fill: none; stroke: #f5841e; stroke-width: 0.6"/>
   </g>
  </g>
 </g>
 <defs>
  <clipPath id="p9f65ce19fb">
   <rect x="8.64" y="4.8" width="270.72" height="103.2"/>
  </clipPath>
 </defs>
</svg>
