<?xml version="1.0" encoding="utf-8" standalone="no"?>
<!DOCTYPE svg PUBLIC "-//W3C//DTD SVG 1.1//EN"
  "http://www.w3.org/Graphics/SVG/1.1/DTD/svg11.dtd">
<svg xmlns:xlink="http://www.w3.org/1999/xlink" width="288pt" height="120pt" viewBox="0 0 288 120" xmlns="http://www.w3.org/2000/svg" version="1.1">
<desc id="nav-meta">{"window":"3m","count":4,"labels":["30.12","29.01","28.02","30.03"],"tick_utc":["2025-12-30T12:00:00Z","2026-01-29T12:00:00Z","2026-02-28T03:01:05Z","2026-03-30T03:51:16Z"],"w":720,"h":300}</desc>

 <metadata>
  <rdf:RDF xmlns:dc="http://purl.org/dc/elements/1.1/" xmlns:cc="http://creativecommons.org/ns#" xmlns:rdf="http://www.w3.org/1999/02/22-rdf-syntax-ns#">
   <cc:Work>
    <dc:type rdf:resource="http://purl.org/dc/dcmitype/StillImage"/>
    <dc:date>2026-03-30T08:11:15.832680</dc:date>
    <dc:format>image/svg+xml</dc:format>
    <dc:creator>
     <cc:Agent>
      <dc:title>Matplotlib v3.10.8, https://matplotlib.org/</dc:title>
     </cc:Agent>
    </dc:creator>
   </cc:Work>
  </rdf:RDF>
 </metadata>
 <defs>
  <style type="text/css">*{stroke-linejoin: round; stroke-linecap: butt}</style>
 </defs>
 <g id="figure_1">
  <g id="patch_1">
   <path d="M 0 120 
L 288 120 
L 288 0 
L 0 0 
L 0 120 
z
" style="fill: none; opacity: 0"/>
  </g>
  <g id="axes_1">
   <g id="patch_2">
    <path d="M 8.64 108 
L 279.36 108 
L 279.36 4.8 
L 8.64 4.8 
L 8.64 108 
z
" style="fill: none"/>
   </g>
   <g id="matplotlib.axis_1"/>
   <g id="matplotlib.axis_2"/>
   <g id="line2d_1">
    <path d="M 8.64 87.36 
L 279.36 87.36 
" clip-path="url(#pa767812faa)" style="fill: none; stroke: #b2b2b2; stroke-opacity: 0.35; stroke-width: 0.5; stroke-linecap: square"/>
   </g>
   <g id="line2d_2">
    <path d="M 8.64 66.72 
L 279.36 66.72 
" clip-path="url(#pa767812faa)" style="fill: none; stroke: #b2b2b2; stroke-opacity: 0.35; stroke-width: 0.5; stroke-linecap: square"/>
   </g>
   <g id="line2d_3">
    <path d="M 8.64 46.08 
L 279.36 46.08 
" clip-path="url(#pa767812faa)" style="fill: none; stroke: #b2b2b2; stroke-opacity: 0.35; stroke-width: 0.5; stroke-linecap: square"/>
   </g>
   <g id="line2d_4">
    <path d="M 8.64 25.44 
L 279.36 25.44 
" clip-path="url(#pa767812faa)" style="fill: none; stroke: #b2b2b2; stroke-opacity: 0.35; stroke-width: 0.5; stroke-linecap: square"/>
   </g>
   <g id="line2d_5">
    <path d="M 8.64 92.87088 
L 11.659386 92.38584 
L 14.678773 92.47872 
L 17.698159 91.88016 
L 20.717546 90.42504 
L 23.736932 90.08448 
L 26.756318 89.92968 
L 29.775705 88.76352 
L 32.795091 87.94824 
L 35.814477 89.2692 
L 38.833864 88.72224 
L 41.85325 89.39304 
L 44.872637 89.40336 
L 47.892023 88.41264 
L 50.911409 88.4952 
L 53.930796 86.86464 
L 56.950182 86.42088 
L 59.969568 87.62832 
L 62.988955 86.93688 
L 66.008341 87.23616 
L 69.027728 88.63968 
L 72.047114 90.0432 
L 75.0665 92.12784 
L 78.085887 91.16808 
L 81.105273 91.46736 
L 84.124659 91.73568 
L 87.144046 91.78728 
L 90.163432 94.0164 
L 93.182819 92.5716 
L 96.202205 91.76664 
L 99.221591 92.33424 
L 102.240978 94.36728 
L 105.260364 94.46016 
L 108.279751 97.71096 
L 111.299137 98.48496 
L 114.318523 97.85544 
L 116.867563 99.10416 
L 119.267032 100.16712 
L 122.284881 102.23112 
L 125.291337 100.54896 
L 128.379743 100.70376 
L 131.374212 100.68312 
L 134.410827 100.95144 
L 137.423958 101.28168 
L 140.432476 101.71512 
L 143.450954 101.84928 
L 146.434031 101.034 
L 149.294096 100.54896 
L 152.507156 101.04432 
L 155.147267 100.81728 
L 158.541141 101.034 
L 161.556858 101.4984 
L 164.558596 101.33328 
L 167.559531 101.1372 
L 170.61341 101.06496 
L 173.641882 102.09696 
L 176.406193 102.05568 
L 179.669787 101.4984 
L 182.675719 100.60056 
L 185.689374 100.80696 
L 188.673184 101.45712 
L 191.761171 100.55928 
L 194.749385 101.10624 
L 197.775796 100.8792 
L 200.778268 100.74504 
L 203.804154 100.21872 
L 206.822108 100.53864 
L 209.818325 101.07528 
L 212.867031 101.38488 
L 215.895469 101.26104 
L 218.89546 100.78632 
L 221.913658 100.91016 
L 224.944926 100.99272 
L 227.958476 100.38384 
L 230.973844 100.50768 
L 234.050997 100.60056 
L 237.07891 99.76464 
L 240.045458 99.49632 
L 243.087874 99.40344 
L 246.108099 100.09488 
L 249.098095 100.3632 
L 252.099799 100.19808 
L 255.164336 100.47672 
L 258.190816 100.79664 
L 261.182246 100.26 
L 264.426513 99.83688 
L 267.257747 100.13616 
L 270.280943 100.80696 
L 273.271463 101.38488 
L 276.331982 101.3436 
L 279.36 101.292 
" clip-path="url(#pa767812faa)" style="fill: none; stroke: #bebebe; stroke-width: 0.5; stroke-linecap: round"/>
   </g>
   <g id="line2d_6">
    <path d="M 8.64 76.03896 
L 11.659386 75.51264 
L 14.678773 75.56424 
L 17.698159 75.05856 
L 20.717546 73.26288 
L 23.736932 73.20096 
L 26.756318 73.00488 
L 29.775705 71.68392 
L 32.795091 70.6932 
L 35.814477 72.62304 
L 38.833864 73.52088 
L 41.85325 73.83048 
L 44.872637 73.8408 
L 47.892023 73.29384 
L 50.911409 73.72728 
L 53.930796 70.32168 
L 56.950182 69.77472 
L 59.969568 70.34232 
L 62.988955 70.67256 
L 66.008341 70.51776 
L 69.027728 70.848 
L 72.047114 72.31344 
L 75.0665 76.01832 
L 78.085887 75.41976 
L 81.105273 75.83256 
L 84.124659 75.79128 
L 87.144046 75.82224 
L 90.163432 77.82432 
L 93.182819 76.14216 
L 96.202205 74.75928 
L 99.221591 74.96568 
L 102.240978 77.75208 
L 105.260364 79.48584 
L 108.279751 83.31456 
L 111.299137 85.90488 
L 114.318523 84.79032 
L 116.867563 85.84296 
L 119.267032 88.25784 
L 122.284881 91.41576 
L 125.291337 88.7532 
L 128.379743 88.65 
L 131.374212 88.55712 
L 134.410827 88.96992 
L 137.423958 89.7336 
L 140.432476 90.456 
L 143.450954 90.56952 
L 146.434031 89.15568 
L 149.294096 88.9596 
L 152.507156 90.6624 
L 155.147267 89.94 
L 158.541141 90.00192 
L 161.556858 90.3528 
L 164.558596 90.62112 
L 167.559531 90.5076 
L 170.61341 90.3528 
L 173.641882 92.004 
L 176.406193 92.13816 
L 179.669787 91.25064 
L 182.675719 89.166 
L 185.689374 89.56848 
L 188.673184 90.93072 
L 191.761171 89.41368 
L 194.749385 90.37344 
L 197.775796 89.79552 
L 200.778268 90.23928 
L 203.804154 88.0824 
L 206.822108 88.7532 
L 209.818325 90.16704 
L 212.867031 90.67272 
L 215.895469 90.18768 
L 218.89546 89.2692 
L 221.913658 89.54784 
L 224.944926 89.49624 
L 227.958476 88.31976 
L 230.973844 88.45392 
L 234.050997 88.46424 
L 237.07891 86.38992 
L 240.045458 84.80064 
L 243.087874 84.8316 
L 246.108099 86.586 
L 249.098095 87.74184 
L 252.099799 87.618 
L 255.164336 88.19592 
L 258.190816 89.08344 
L 261.182246 87.89664 
L 264.426513 87.3084 
L 267.257747 87.65928 
L 270.280943 88.96992 
L 273.271463 90.07416 
L 276.331982 89.76456 
L 279.36 89.3724 
" clip-path="url(#pa767812faa)" style="fill: none; stroke: #4a8dff; stroke-width: 0.6"/>
   </g>
   <g id="line2d_7">
    <path d="M 8.64 86.40024 
L 11.659386 85.09992 
L 14.678773 86.02872 
L 17.698159 84.78 
L 20.717546 83.53128 
L 23.736932 82.83984 
L 26.756318 82.03488 
L 29.775705 79.39296 
L 32.795091 79.66128 
L 35.814477 82.15872 
L 38.833864 82.43736 
L 41.85325 82.93272 
L 44.872637 83.00496 
L 47.892023 82.6128 
L 50.911409 82.28256 
L 53.930796 78.01008 
L 56.950182 76.19376 
L 59.969568 77.66952 
L 62.988955 77.74176 
L 66.008341 78.1752 
L 69.027728 79.5684 
L 72.047114 80.8068 
L 75.0665 85.20312 
L 78.085887 84.12984 
L 81.105273 84.03696 
L 84.124659 84.06792 
L 87.144046 84.3156 
L 90.163432 87.02976 
L 93.182819 85.21344 
L 96.202205 84.28464 
L 99.221591 84.32592 
L 102.240978 89.08344 
L 105.260364 89.5272 
L 108.279751 95.14128 
L 111.299137 96.98856 
L 114.318523 95.08968 
L 116.867563 97.71096 
L 119.267032 99.80592 
L 122.284881 101.79768 
L 125.291337 100.03296 
L 128.379743 100.518 
L 131.374212 99.98136 
L 134.410827 100.49736 
L 137.423958 100.78632 
L 140.432476 101.07528 
L 143.450954 101.26104 
L 146.434031 100.63152 
L 149.294096 100.38384 
L 152.507156 100.84824 
L 155.147267 100.65216 
L 158.541141 101.034 
L 161.556858 101.19912 
L 164.558596 101.10624 
L 167.559531 100.97208 
L 170.61341 100.91016 
L 173.641882 101.7564 
L 176.406193 101.84928 
L 179.669787 101.56032 
L 182.675719 100.85856 
L 185.689374 101.12688 
L 188.673184 101.4468 
L 191.761171 101.02368 
L 194.749385 101.30232 
L 197.775796 100.81728 
L 200.778268 100.79664 
L 203.804154 99.3312 
L 206.822108 99.92976 
L 209.818325 100.78632 
L 212.867031 101.17848 
L 215.895469 101.1372 
L 218.89546 100.21872 
L 221.913658 100.37352 
L 224.944926 100.4664 
L 227.958476 99.88848 
L 230.973844 99.94008 
L 234.050997 99.81624 
L 237.07891 98.93904 
L 240.045458 98.3508 
L 243.087874 98.52624 
L 246.108099 99.78528 
L 249.098095 100.12584 
L 252.099799 100.03296 
L 255.164336 100.45608 
L 258.190816 100.83792 
L 261.182246 100.11552 
L 264.426513 99.87816 
L 267.257747 100.002 
L 270.280943 100.64184 
L 273.271463 101.41584 
L 276.331982 101.21976 
L 279.36 101.14752 
" clip-path="url(#pa767812faa)" style="fill: none; stroke: #f5841e; stroke-width: 0.6"/>
   </g>
  </g>
 </g>
 <defs>
  <clipPath id="pa767812faa">
   <rect x="8.64" y="4.8" width="270.72" height="103.2"/>
  </clipPath>
 </defs>
</svg>
