<?xml version="1.0" encoding="utf-8" standalone="no"?>
<!DOCTYPE svg PUBLIC "-//W3C//DTD SVG 1.1//EN"
  "http://www.w3.org/Graphics/SVG/1.1/DTD/svg11.dtd">
<svg xmlns:xlink="http://www.w3.org/1999/xlink" width="288pt" height="120pt" viewBox="0 0 288 120" xmlns="http://www.w3.org/2000/svg" version="1.1">
<desc id="nav-meta">{"window":"1m","count":4,"labels":["20.05","30.05","08.06","18.06"],"tick_utc":["2026-05-20T04:51:15Z","2026-05-30T04:39:03Z","2026-06-08T05:18:19Z","2026-06-18T05:23:06Z"],"w":720,"h":300}</desc>

 <metadata>
  <rdf:RDF xmlns:dc="http://purl.org/dc/elements/1.1/" xmlns:cc="http://creativecommons.org/ns#" xmlns:rdf="http://www.w3.org/1999/02/22-rdf-syntax-ns#">
   <cc:Work>
    <dc:type rdf:resource="http://purl.org/dc/dcmitype/StillImage"/>
    <dc:date>2026-06-18T11:00:26.113949</dc:date>
    <dc:format>image/svg+xml</dc:format>
    <dc:creator>
     <cc:Agent>
      <dc:title>Matplotlib v3.11.0, https://matplotlib.org/</dc:title>
     </cc:Agent>
    </dc:creator>
   </cc:Work>
  </rdf:RDF>
 </metadata>
 <defs>
  <style type="text/css">*{stroke-linejoin: round; stroke-linecap: butt}</style>
 </defs>
 <g id="figure_1">
  <g id="patch_1">
   <path d="M 0 120 
L 288 120 
L 288 0 
L 0 0 
L 0 120 
z
" style="fill: none; opacity: 0"/>
  </g>
  <g id="axes_1">
   <g id="patch_2">
    <path d="M 8.64 108 
L 279.36 108 
L 279.36 4.8 
L 8.64 4.8 
L 8.64 108 
z
" style="fill: none"/>
   </g>
   <g id="matplotlib.axis_1"/>
   <g id="matplotlib.axis_2"/>
   <g id="line2d_1">
    <path d="M 8.64 87.36 
L 279.36 87.36 
" clip-path="url(#p1374f7561e)" style="fill: none; stroke: #b2b2b2; stroke-opacity: 0.35; stroke-width: 0.5; stroke-linecap: square"/>
   </g>
   <g id="line2d_2">
    <path d="M 8.64 66.72 
L 279.36 66.72 
" clip-path="url(#p1374f7561e)" style="fill: none; stroke: #b2b2b2; stroke-opacity: 0.35; stroke-width: 0.5; stroke-linecap: square"/>
   </g>
   <g id="line2d_3">
    <path d="M 8.64 46.08 
L 279.36 46.08 
" clip-path="url(#p1374f7561e)" style="fill: none; stroke: #b2b2b2; stroke-opacity: 0.35; stroke-width: 0.5; stroke-linecap: square"/>
   </g>
   <g id="line2d_4">
    <path d="M 8.64 25.44 
L 279.36 25.44 
" clip-path="url(#p1374f7561e)" style="fill: none; stroke: #b2b2b2; stroke-opacity: 0.35; stroke-width: 0.5; stroke-linecap: square"/>
   </g>
   <g id="line2d_5">
    <path d="M 8.64 101.17848 
L 18.021176 100.7244 
L 27.277762 100.75536 
L 36.477667 101.11656 
L 45.95342 100.91016 
L 55.404232 100.89984 
L 64.590966 101.1372 
L 74.014787 101.2404 
L 83.313047 101.6532 
L 92.648015 101.4984 
L 101.84155 101.48808 
L 111.360056 101.32296 
L 120.826092 101.51904 
L 130.062381 101.7048 
L 139.495379 102.54072 
L 148.79148 103.08768 
L 157.965906 103.36632 
L 167.150588 104.22288 
L 176.679135 103.85136 
L 186.048435 103.68624 
L 195.198461 103.43856 
L 204.623254 103.81008 
L 214.00605 103.72752 
L 223.370707 103.50048 
L 232.630532 103.5108 
L 242.026283 103.31472 
L 251.664413 102.95352 
L 261.045697 102.61296 
L 270.076639 102.6336 
L 279.36 102.9948 
" clip-path="url(#p1374f7561e)" style="fill: none; stroke: #bebebe; stroke-width: 0.5; stroke-linecap: round"/>
   </g>
   <g id="line2d_6">
    <path d="M 8.64 88.26816 
L 18.021176 87.78312 
L 27.277762 87.95856 
L 36.477667 88.94928 
L 45.95342 88.14432 
L 55.404232 88.33008 
L 64.590966 88.52616 
L 74.014787 88.86672 
L 83.313047 90.22896 
L 92.648015 89.82648 
L 101.84155 89.87808 
L 111.360056 89.46528 
L 120.826092 90.0432 
L 130.062381 89.96064 
L 139.495379 91.99368 
L 148.79148 93.05664 
L 157.965906 93.74808 
L 167.150588 97.02984 
L 176.679135 95.93592 
L 186.048435 95.07936 
L 195.198461 94.46016 
L 204.623254 95.47152 
L 214.00605 95.11032 
L 223.370707 94.82136 
L 232.630532 94.8936 
L 242.026283 94.70784 
L 251.664413 94.04736 
L 261.045697 93.40752 
L 270.076639 92.9844 
L 279.36 93.93384 
" clip-path="url(#p1374f7561e)" style="fill: none; stroke: #4a8dff; stroke-width: 0.6"/>
   </g>
   <g id="line2d_7">
    <path d="M 8.64 97.23624 
L 18.021176 95.94624 
L 27.277762 96.30744 
L 36.477667 98.08248 
L 45.95342 97.2672 
L 55.404232 96.61704 
L 64.590966 97.23624 
L 74.014787 98.08248 
L 83.313047 99.18672 
L 92.648015 99.03192 
L 101.84155 99.1248 
L 111.360056 98.74296 
L 120.826092 99.09384 
L 130.062381 100.0536 
L 139.495379 101.23008 
L 148.79148 101.99376 
L 157.965906 102.08664 
L 167.150588 102.8916 
L 176.679135 102.45816 
L 186.048435 102.28272 
L 195.198461 102.10728 
L 204.623254 102.582 
L 214.00605 102.29304 
L 223.370707 102.08664 
L 232.630532 102.066 
L 242.026283 101.86992 
L 251.664413 101.48808 
L 261.045697 101.40552 
L 270.076639 101.4984 
L 279.36 101.97312 
" clip-path="url(#p1374f7561e)" style="fill: none; stroke: #f5841e; stroke-width: 0.6"/>
   </g>
  </g>
 </g>
 <defs>
  <clipPath id="p1374f7561e">
   <rect x="8.64" y="4.8" width="270.72" height="103.2"/>
  </clipPath>
 </defs>
</svg>
