<?xml version="1.0" encoding="utf-8" standalone="no"?>
<!DOCTYPE svg PUBLIC "-//W3C//DTD SVG 1.1//EN"
  "http://www.w3.org/Graphics/SVG/1.1/DTD/svg11.dtd">
<svg xmlns:xlink="http://www.w3.org/1999/xlink" width="288pt" height="120pt" viewBox="0 0 288 120" xmlns="http://www.w3.org/2000/svg" version="1.1">
<desc id="nav-meta">{"window":"1m","count":4,"labels":["02.03","12.03","21.03","31.03"],"tick_utc":["2026-03-02T03:18:56Z","2026-03-12T03:19:44Z","2026-03-21T03:10:23Z","2026-03-31T03:42:11Z"],"w":720,"h":300}</desc>

 <metadata>
  <rdf:RDF xmlns:dc="http://purl.org/dc/elements/1.1/" xmlns:cc="http://creativecommons.org/ns#" xmlns:rdf="http://www.w3.org/1999/02/22-rdf-syntax-ns#">
   <cc:Work>
    <dc:type rdf:resource="http://purl.org/dc/dcmitype/StillImage"/>
    <dc:date>2026-03-31T14:13:56.397562</dc:date>
    <dc:format>image/svg+xml</dc:format>
    <dc:creator>
     <cc:Agent>
      <dc:title>Matplotlib v3.10.8, https://matplotlib.org/</dc:title>
     </cc:Agent>
    </dc:creator>
   </cc:Work>
  </rdf:RDF>
 </metadata>
 <defs>
  <style type="text/css">*{stroke-linejoin: round; stroke-linecap: butt}</style>
 </defs>
 <g id="figure_1">
  <g id="patch_1">
   <path d="M 0 120 
L 288 120 
L 288 0 
L 0 0 
L 0 120 
z
" style="fill: none; opacity: 0"/>
  </g>
  <g id="axes_1">
   <g id="patch_2">
    <path d="M 8.64 108 
L 279.36 108 
L 279.36 4.8 
L 8.64 4.8 
L 8.64 108 
z
" style="fill: none"/>
   </g>
   <g id="matplotlib.axis_1"/>
   <g id="matplotlib.axis_2"/>
   <g id="line2d_1">
    <path d="M 8.64 87.36 
L 279.36 87.36 
" clip-path="url(#pf73accd431)" style="fill: none; stroke: #b2b2b2; stroke-opacity: 0.35; stroke-width: 0.5; stroke-linecap: square"/>
   </g>
   <g id="line2d_2">
    <path d="M 8.64 66.72 
L 279.36 66.72 
" clip-path="url(#pf73accd431)" style="fill: none; stroke: #b2b2b2; stroke-opacity: 0.35; stroke-width: 0.5; stroke-linecap: square"/>
   </g>
   <g id="line2d_3">
    <path d="M 8.64 46.08 
L 279.36 46.08 
" clip-path="url(#pf73accd431)" style="fill: none; stroke: #b2b2b2; stroke-opacity: 0.35; stroke-width: 0.5; stroke-linecap: square"/>
   </g>
   <g id="line2d_4">
    <path d="M 8.64 25.44 
L 279.36 25.44 
" clip-path="url(#pf73accd431)" style="fill: none; stroke: #b2b2b2; stroke-opacity: 0.35; stroke-width: 0.5; stroke-linecap: square"/>
   </g>
   <g id="line2d_5">
    <path d="M 8.64 101.10624 
L 17.991683 100.8792 
L 27.269396 100.74504 
L 36.619459 100.21872 
L 45.94501 100.53864 
L 55.203393 101.07528 
L 64.623971 101.38488 
L 73.981917 101.26104 
L 83.251963 100.78632 
L 92.578269 100.91016 
L 101.944963 100.99272 
L 111.256907 100.38384 
L 120.574466 100.50768 
L 130.082945 100.60056 
L 139.439271 99.76464 
L 148.605975 99.49632 
L 158.007115 99.40344 
L 167.339685 100.09488 
L 176.578847 100.3632 
L 185.854184 100.19808 
L 195.323679 100.47672 
L 204.675578 100.79664 
L 213.919168 100.26 
L 223.944035 99.83688 
L 232.692617 100.13616 
L 242.034365 100.80696 
L 251.275147 101.38488 
L 260.732224 101.3436 
L 270.088874 101.292 
L 279.36 101.28168 
" clip-path="url(#pf73accd431)" style="fill: none; stroke: #bebebe; stroke-width: 0.5; stroke-linecap: round"/>
   </g>
   <g id="line2d_6">
    <path d="M 8.64 90.37344 
L 17.991683 89.79552 
L 27.269396 90.23928 
L 36.619459 88.0824 
L 45.94501 88.7532 
L 55.203393 90.16704 
L 64.623971 90.67272 
L 73.981917 90.18768 
L 83.251963 89.2692 
L 92.578269 89.54784 
L 101.944963 89.49624 
L 111.256907 88.31976 
L 120.574466 88.45392 
L 130.082945 88.46424 
L 139.439271 86.38992 
L 148.605975 84.80064 
L 158.007115 84.8316 
L 167.339685 86.586 
L 176.578847 87.74184 
L 185.854184 87.618 
L 195.323679 88.19592 
L 204.675578 89.08344 
L 213.919168 87.89664 
L 223.944035 87.3084 
L 232.692617 87.65928 
L 242.034365 88.96992 
L 251.275147 90.07416 
L 260.732224 89.76456 
L 270.088874 89.3724 
L 279.36 89.00088 
" clip-path="url(#pf73accd431)" style="fill: none; stroke: #4a8dff; stroke-width: 0.6"/>
   </g>
   <g id="line2d_7">
    <path d="M 8.64 101.30232 
L 17.991683 100.81728 
L 27.269396 100.79664 
L 36.619459 99.3312 
L 45.94501 99.92976 
L 55.203393 100.78632 
L 64.623971 101.17848 
L 73.981917 101.1372 
L 83.251963 100.21872 
L 92.578269 100.37352 
L 101.944963 100.4664 
L 111.256907 99.88848 
L 120.574466 99.94008 
L 130.082945 99.81624 
L 139.439271 98.93904 
L 148.605975 98.3508 
L 158.007115 98.52624 
L 167.339685 99.78528 
L 176.578847 100.12584 
L 185.854184 100.03296 
L 195.323679 100.45608 
L 204.675578 100.83792 
L 213.919168 100.11552 
L 223.944035 99.87816 
L 232.692617 100.002 
L 242.034365 100.64184 
L 251.275147 101.41584 
L 260.732224 101.21976 
L 270.088874 101.14752 
L 279.36 101.00304 
" clip-path="url(#pf73accd431)" style="fill: none; stroke: #f5841e; stroke-width: 0.6"/>
   </g>
  </g>
 </g>
 <defs>
  <clipPath id="pf73accd431">
   <rect x="8.64" y="4.8" width="270.72" height="103.2"/>
  </clipPath>
 </defs>
</svg>
