<?xml version="1.0" encoding="utf-8" standalone="no"?>
<!DOCTYPE svg PUBLIC "-//W3C//DTD SVG 1.1//EN"
  "http://www.w3.org/Graphics/SVG/1.1/DTD/svg11.dtd">
<svg xmlns:xlink="http://www.w3.org/1999/xlink" width="288pt" height="120pt" viewBox="0 0 288 120" xmlns="http://www.w3.org/2000/svg" version="1.1">
<desc id="nav-meta">{"window":"6m","count":4,"labels":["27.08","26.10","25.12","23.02"],"tick_utc":["2025-08-27T12:00:00Z","2025-10-26T12:00:00Z","2025-12-25T12:00:00Z","2026-02-23T03:32:23Z"],"w":720,"h":300}</desc>

 <metadata>
  <rdf:RDF xmlns:dc="http://purl.org/dc/elements/1.1/" xmlns:cc="http://creativecommons.org/ns#" xmlns:rdf="http://www.w3.org/1999/02/22-rdf-syntax-ns#">
   <cc:Work>
    <dc:type rdf:resource="http://purl.org/dc/dcmitype/StillImage"/>
    <dc:date>2026-02-23T07:41:21.973092</dc:date>
    <dc:format>image/svg+xml</dc:format>
    <dc:creator>
     <cc:Agent>
      <dc:title>Matplotlib v3.10.8, https://matplotlib.org/</dc:title>
     </cc:Agent>
    </dc:creator>
   </cc:Work>
  </rdf:RDF>
 </metadata>
 <defs>
  <style type="text/css">*{stroke-linejoin: round; stroke-linecap: butt}</style>
 </defs>
 <g id="figure_1">
  <g id="patch_1">
   <path d="M 0 120 
L 288 120 
L 288 0 
L 0 0 
L 0 120 
z
" style="fill: none; opacity: 0"/>
  </g>
  <g id="axes_1">
   <g id="patch_2">
    <path d="M 8.64 108 
L 279.36 108 
L 279.36 4.8 
L 8.64 4.8 
L 8.64 108 
z
" style="fill: none"/>
   </g>
   <g id="matplotlib.axis_1"/>
   <g id="matplotlib.axis_2"/>
   <g id="line2d_1">
    <path d="M 8.64 87.36 
L 279.36 87.36 
" clip-path="url(#p48c87b33ba)" style="fill: none; stroke: #b2b2b2; stroke-opacity: 0.35; stroke-width: 0.5; stroke-linecap: square"/>
   </g>
   <g id="line2d_2">
    <path d="M 8.64 66.72 
L 279.36 66.72 
" clip-path="url(#p48c87b33ba)" style="fill: none; stroke: #b2b2b2; stroke-opacity: 0.35; stroke-width: 0.5; stroke-linecap: square"/>
   </g>
   <g id="line2d_3">
    <path d="M 8.64 46.08 
L 279.36 46.08 
" clip-path="url(#p48c87b33ba)" style="fill: none; stroke: #b2b2b2; stroke-opacity: 0.35; stroke-width: 0.5; stroke-linecap: square"/>
   </g>
   <g id="line2d_4">
    <path d="M 8.64 25.44 
L 279.36 25.44 
" clip-path="url(#p48c87b33ba)" style="fill: none; stroke: #b2b2b2; stroke-opacity: 0.35; stroke-width: 0.5; stroke-linecap: square"/>
   </g>
   <g id="line2d_5">
    <path d="M 8.64 72.95328 
L 10.146951 70.96152 
L 11.653902 67.87584 
L 13.160854 70.46616 
L 14.667805 71.11632 
L 16.174756 71.61168 
L 17.681707 72.7056 
L 19.188658 69.33096 
L 20.69561 68.9388 
L 22.202561 71.12664 
L 23.709512 70.90992 
L 25.216463 71.80776 
L 26.723415 70.074 
L 28.230366 68.01 
L 29.737317 67.10184 
L 31.244268 65.29584 
L 32.751219 64.01616 
L 34.258171 60.31128 
L 35.765122 60.19776 
L 37.272073 60.786 
L 38.779024 62.61264 
L 40.285975 61.74576 
L 41.792927 59.57856 
L 43.299878 58.86648 
L 44.806829 61.38456 
L 46.31378 61.07496 
L 47.820731 61.83864 
L 49.327683 66.29688 
L 50.834634 67.97904 
L 52.341585 68.69112 
L 53.848536 73.9956 
L 55.355488 70.45584 
L 56.862439 70.87896 
L 58.36939 68.91816 
L 59.876341 68.3196 
L 61.383292 69.47544 
L 64.397195 62.39592 
L 65.904146 62.81904 
L 67.411097 64.22256 
L 68.918048 64.05744 
L 70.425 62.9532 
L 71.931951 66.14208 
L 73.438902 63.91296 
L 74.945853 66.17304 
L 76.452804 74.6148 
L 77.959756 77.78304 
L 79.466707 72.66432 
L 80.973658 69.69216 
L 82.480609 71.09568 
L 85.494512 76.06992 
L 87.001463 76.76136 
L 88.508414 75.25464 
L 90.015365 75.24432 
L 91.522317 74.63544 
L 93.029268 75.73968 
L 94.536219 77.31864 
L 96.04317 74.202 
L 97.550121 73.64472 
L 99.057073 73.48992 
L 100.564024 71.83872 
L 102.070975 72.17928 
L 103.577926 73.38672 
L 105.084877 73.43832 
L 106.591829 76.15248 
L 108.09878 75.3372 
L 109.605731 75.58488 
L 111.112682 75.35784 
L 112.619633 81.168 
L 114.126585 84.01632 
L 115.633536 82.06584 
L 117.140487 84.19176 
L 118.647438 82.27224 
L 120.15439 83.29392 
L 121.661341 81.62208 
L 123.168292 80.72424 
L 124.675243 84.33624 
L 126.182194 84.64584 
L 127.689146 86.844 
L 129.196097 88.52616 
L 130.703048 88.36104 
L 132.209999 88.93896 
L 133.71695 90.79656 
L 135.223902 88.09272 
L 136.730853 89.22792 
L 138.237804 90.00192 
L 139.744755 91.39512 
L 141.251706 91.63248 
L 142.758658 90.75528 
L 144.265609 88.7016 
L 145.77256 88.52616 
L 147.279511 87.45288 
L 148.786463 88.0308 
L 150.293414 88.94928 
L 153.307316 89.7336 
L 154.814267 91.86984 
L 156.321219 88.60872 
L 157.82817 86.87496 
L 160.842072 90.11544 
L 162.349023 90.38376 
L 163.855975 90.53856 
L 165.362926 90.08448 
L 166.869877 88.79448 
L 168.376828 89.20728 
L 169.883779 89.22792 
L 171.390731 90.31152 
L 172.897682 90.10512 
L 174.404633 91.09584 
L 175.911584 91.61184 
L 177.418535 91.31256 
L 178.925487 92.87088 
L 180.432438 93.8616 
L 181.939389 92.02464 
L 183.44634 92.13816 
L 184.953292 92.07624 
L 186.460243 92.14848 
L 187.967194 92.64384 
L 189.474145 93.01536 
L 190.981096 93.69648 
L 193.994999 92.44776 
L 195.50195 92.30328 
L 197.008901 92.87088 
L 198.515852 92.38584 
L 200.022804 92.47872 
L 201.529755 91.88016 
L 203.036706 90.42504 
L 204.543657 90.08448 
L 206.050608 89.92968 
L 207.55756 88.76352 
L 209.064511 87.94824 
L 210.571462 89.2692 
L 212.078413 88.72224 
L 213.585365 89.39304 
L 215.092316 89.40336 
L 216.599267 88.41264 
L 218.106218 88.4952 
L 219.613169 86.86464 
L 221.120121 86.42088 
L 222.627072 87.62832 
L 224.134023 86.93688 
L 225.640974 87.23616 
L 228.654877 90.0432 
L 230.161828 92.12784 
L 231.668779 91.16808 
L 234.682681 91.73568 
L 236.189633 91.78728 
L 237.696584 94.0164 
L 239.203535 92.5716 
L 240.710486 91.76664 
L 242.217438 92.33424 
L 243.724389 94.36728 
L 245.23134 94.46016 
L 246.738291 97.71096 
L 248.245242 98.48496 
L 249.752194 97.85544 
L 252.221954 100.16712 
L 253.728138 102.23112 
L 255.228636 100.54896 
L 256.770034 100.70376 
L 258.264549 100.68312 
L 261.283928 101.28168 
L 262.785455 101.71512 
L 264.291953 101.84928 
L 265.780782 101.034 
L 267.208218 100.54896 
L 268.81183 101.04432 
L 270.129488 100.81728 
L 271.823343 101.034 
L 273.328463 101.4984 
L 277.848514 101.06496 
L 279.36 102.09696 
L 279.36 102.09696 
" clip-path="url(#p48c87b33ba)" style="fill: none; stroke: #bebebe; stroke-width: 0.5; stroke-linecap: round"/>
   </g>
   <g id="line2d_6">
    <path d="M 8.64 51.2916 
L 10.146951 52.80864 
L 11.653902 52.69512 
L 13.160854 54.82104 
L 16.174756 54.45984 
L 17.681707 55.7292 
L 19.188658 55.39896 
L 20.69561 53.55168 
L 22.202561 55.81176 
L 23.709512 55.6776 
L 25.216463 56.18328 
L 26.723415 55.71888 
L 29.737317 55.63632 
L 31.244268 55.07904 
L 32.751219 53.41752 
L 34.258171 49.71264 
L 35.765122 50.32152 
L 37.272073 51.17808 
L 38.779024 52.44744 
L 40.285975 52.74672 
L 41.792927 51.4464 
L 43.299878 51.46704 
L 44.806829 53.2524 
L 46.31378 53.08728 
L 47.820731 53.5104 
L 49.327683 57.26688 
L 50.834634 57.76224 
L 52.341585 58.02024 
L 53.848536 62.26176 
L 55.355488 59.68176 
L 56.862439 59.9604 
L 58.36939 58.12344 
L 59.876341 57.02952 
L 61.383292 58.09248 
L 62.890244 55.13064 
L 64.397195 53.046 
L 65.904146 52.5816 
L 67.411097 52.9944 
L 68.918048 52.5816 
L 70.425 50.0016 
L 71.931951 53.48976 
L 73.438902 52.40616 
L 74.945853 54.75912 
L 76.452804 62.67456 
L 77.959756 63.95424 
L 79.466707 57.86544 
L 80.973658 56.57544 
L 82.480609 58.31952 
L 83.98756 60.4764 
L 85.494512 61.85928 
L 87.001463 62.73648 
L 88.508414 61.8696 
L 90.015365 60.45576 
L 91.522317 60.54864 
L 93.029268 62.04504 
L 94.536219 63.16992 
L 96.04317 62.36496 
L 97.550121 61.21944 
L 99.057073 60.9408 
L 100.564024 57.83448 
L 102.070975 58.40208 
L 103.577926 60.49704 
L 106.591829 63.1596 
L 108.09878 62.49912 
L 109.605731 62.1276 
L 111.112682 61.56 
L 114.126585 70.66224 
L 115.633536 68.72208 
L 117.140487 70.4868 
L 118.647438 68.61888 
L 120.15439 69.11424 
L 121.661341 66.5136 
L 123.168292 66.68904 
L 124.675243 68.8872 
L 126.182194 68.9904 
L 127.689146 71.5704 
L 129.196097 73.48992 
L 130.703048 72.54048 
L 132.209999 73.56216 
L 133.71695 74.74896 
L 135.223902 73.3248 
L 136.730853 74.80056 
L 138.237804 77.556 
L 139.744755 78.55704 
L 141.251706 78.50544 
L 142.758658 78.04104 
L 144.265609 75.76032 
L 145.77256 75.73968 
L 147.279511 74.65608 
L 148.786463 74.83152 
L 150.293414 74.57352 
L 151.800365 75.20304 
L 153.307316 75.17208 
L 154.814267 78.05136 
L 157.82817 72.16896 
L 159.335121 73.08744 
L 160.842072 74.72832 
L 163.855975 74.28456 
L 165.362926 73.21128 
L 166.869877 70.2804 
L 168.376828 70.2288 
L 169.883779 71.56008 
L 171.390731 73.79952 
L 172.897682 73.35576 
L 174.404633 74.0988 
L 175.911584 75.5952 
L 177.418535 75.5952 
L 178.925487 77.61792 
L 180.432438 77.63856 
L 181.939389 75.40944 
L 183.44634 75.40944 
L 184.953292 75.04824 
L 186.460243 74.98632 
L 187.967194 75.58488 
L 189.474145 75.87384 
L 190.981096 76.49304 
L 193.994999 75.82224 
L 195.50195 75.84288 
L 197.008901 76.03896 
L 198.515852 75.51264 
L 200.022804 75.56424 
L 201.529755 75.05856 
L 203.036706 73.26288 
L 204.543657 73.20096 
L 206.050608 73.00488 
L 207.55756 71.68392 
L 209.064511 70.6932 
L 210.571462 72.62304 
L 212.078413 73.52088 
L 213.585365 73.83048 
L 215.092316 73.8408 
L 216.599267 73.29384 
L 218.106218 73.72728 
L 219.613169 70.32168 
L 221.120121 69.77472 
L 222.627072 70.34232 
L 224.134023 70.67256 
L 225.640974 70.51776 
L 227.147925 70.848 
L 228.654877 72.31344 
L 230.161828 76.01832 
L 231.668779 75.41976 
L 233.17573 75.83256 
L 236.189633 75.82224 
L 237.696584 77.82432 
L 239.203535 76.14216 
L 240.710486 74.75928 
L 242.217438 74.96568 
L 243.724389 77.75208 
L 245.23134 79.48584 
L 246.738291 83.31456 
L 248.245242 85.90488 
L 249.752194 84.79032 
L 251.024399 85.84296 
L 253.728138 91.41576 
L 255.228636 88.7532 
L 258.264549 88.55712 
L 259.780099 88.96992 
L 262.785455 90.456 
L 264.291953 90.56952 
L 265.780782 89.15568 
L 267.208218 88.9596 
L 268.81183 90.6624 
L 270.129488 89.94 
L 271.823343 90.00192 
L 274.826606 90.62112 
L 277.848514 90.3528 
L 279.36 92.004 
L 279.36 92.004 
" clip-path="url(#p48c87b33ba)" style="fill: none; stroke: #4a8dff; stroke-width: 0.6"/>
   </g>
   <g id="line2d_7">
    <path d="M 8.64 60.82728 
L 10.146951 61.47744 
L 11.653902 60.12552 
L 13.160854 64.31544 
L 14.667805 63.99552 
L 16.174756 64.5528 
L 17.681707 63.60336 
L 19.188658 61.5084 
L 20.69561 60.96144 
L 22.202561 61.98312 
L 23.709512 62.05536 
L 25.216463 62.51976 
L 28.230366 60.64152 
L 29.737317 61.13688 
L 31.244268 58.6188 
L 32.751219 57.03984 
L 34.258171 56.35872 
L 35.765122 56.5548 
L 37.272073 57.174 
L 38.779024 57.14304 
L 40.285975 55.7292 
L 41.792927 56.04912 
L 43.299878 55.33704 
L 44.806829 56.87472 
L 46.31378 56.8128 
L 47.820731 57.24624 
L 49.327683 59.93976 
L 50.834634 60.64152 
L 52.341585 59.29992 
L 53.848536 63.80976 
L 55.355488 63.03576 
L 56.862439 63.09768 
L 58.36939 60.51768 
L 59.876341 58.27824 
L 61.383292 58.5672 
L 62.890244 53.93352 
L 64.397195 51.74568 
L 65.904146 50.04288 
L 67.411097 49.90872 
L 68.918048 48.74256 
L 70.425 47.43192 
L 71.931951 50.80656 
L 73.438902 48.90768 
L 74.945853 50.6208 
L 76.452804 59.42376 
L 77.959756 61.85928 
L 79.466707 57.35976 
L 80.973658 57.3288 
L 82.480609 59.46504 
L 85.494512 64.72824 
L 87.001463 66.42072 
L 88.508414 65.688 
L 90.015365 64.17096 
L 91.522317 62.10696 
L 93.029268 64.30512 
L 94.536219 65.20296 
L 96.04317 62.68488 
L 97.550121 61.70448 
L 99.057073 61.06464 
L 100.564024 58.1028 
L 102.070975 58.40208 
L 103.577926 59.68176 
L 105.084877 62.6952 
L 106.591829 64.56312 
L 108.09878 63.18024 
L 109.605731 62.72616 
L 111.112682 62.06568 
L 112.619633 66.33816 
L 114.126585 71.40528 
L 115.633536 69.08328 
L 117.140487 71.7252 
L 118.647438 69.57864 
L 120.15439 70.72416 
L 121.661341 68.2164 
L 123.168292 66.978 
L 124.675243 70.03272 
L 126.182194 71.5188 
L 127.689146 73.3764 
L 129.196097 78.846 
L 130.703048 77.75208 
L 132.209999 78.88728 
L 133.71695 81.34344 
L 135.223902 80.53848 
L 136.730853 82.0452 
L 138.237804 86.92656 
L 139.744755 88.58808 
L 141.251706 88.96992 
L 142.758658 86.7924 
L 144.265609 85.296 
L 145.77256 86.24544 
L 147.279511 82.96368 
L 148.786463 82.13808 
L 150.293414 82.47864 
L 151.800365 82.58184 
L 153.307316 83.03592 
L 154.814267 87.3084 
L 156.321219 82.06584 
L 157.82817 79.71288 
L 159.335121 81.24024 
L 160.842072 84.17112 
L 162.349023 84.24336 
L 163.855975 83.29392 
L 165.362926 82.8192 
L 166.869877 80.64168 
L 168.376828 81.38472 
L 169.883779 80.87904 
L 171.390731 83.13912 
L 172.897682 83.19072 
L 174.404633 85.296 
L 175.911584 87.17424 
L 177.418535 85.71912 
L 178.925487 87.53544 
L 180.432438 88.17528 
L 181.939389 85.41984 
L 184.953292 84.9348 
L 186.460243 85.01736 
L 187.967194 86.14224 
L 189.474145 85.90488 
L 190.981096 86.328 
L 192.488048 86.24544 
L 193.994999 85.72944 
L 195.50195 85.7088 
L 197.008901 86.40024 
L 198.515852 85.09992 
L 200.022804 86.02872 
L 203.036706 83.53128 
L 206.050608 82.03488 
L 207.55756 79.39296 
L 209.064511 79.66128 
L 210.571462 82.15872 
L 212.078413 82.43736 
L 213.585365 82.93272 
L 215.092316 83.00496 
L 218.106218 82.28256 
L 219.613169 78.01008 
L 221.120121 76.19376 
L 222.627072 77.66952 
L 224.134023 77.74176 
L 225.640974 78.1752 
L 227.147925 79.5684 
L 228.654877 80.8068 
L 230.161828 85.20312 
L 231.668779 84.12984 
L 233.17573 84.03696 
L 234.682681 84.06792 
L 236.189633 84.3156 
L 237.696584 87.02976 
L 239.203535 85.21344 
L 240.710486 84.28464 
L 242.217438 84.32592 
L 243.724389 89.08344 
L 245.23134 89.5272 
L 246.738291 95.14128 
L 248.245242 96.98856 
L 249.752194 95.08968 
L 251.024399 97.71096 
L 252.221954 99.80592 
L 253.728138 101.79768 
L 255.228636 100.03296 
L 256.770034 100.518 
L 258.264549 99.98136 
L 259.780099 100.49736 
L 264.291953 101.26104 
L 265.780782 100.63152 
L 267.208218 100.38384 
L 268.81183 100.84824 
L 270.129488 100.65216 
L 271.823343 101.034 
L 273.328463 101.19912 
L 277.848514 100.91016 
L 279.36 101.7564 
L 279.36 101.7564 
" clip-path="url(#p48c87b33ba)" style="fill: none; stroke: #f5841e; stroke-width: 0.6"/>
   </g>
  </g>
 </g>
 <defs>
  <clipPath id="p48c87b33ba">
   <rect x="8.64" y="4.8" width="270.72" height="103.2"/>
  </clipPath>
 </defs>
</svg>
