<?xml version="1.0" encoding="utf-8" standalone="no"?>
<!DOCTYPE svg PUBLIC "-//W3C//DTD SVG 1.1//EN"
  "http://www.w3.org/Graphics/SVG/1.1/DTD/svg11.dtd">
<svg xmlns:xlink="http://www.w3.org/1999/xlink" width="288pt" height="120pt" viewBox="0 0 288 120" xmlns="http://www.w3.org/2000/svg" version="1.1">
<desc id="nav-meta">{"window":"3m","count":4,"labels":["05.12","04.01","03.02","05.03"],"tick_utc":["2025-12-05T12:00:00Z","2026-01-04T12:00:00Z","2026-02-03T12:00:00Z","2026-03-05T03:17:19Z"],"w":720,"h":300}</desc>

 <metadata>
  <rdf:RDF xmlns:dc="http://purl.org/dc/elements/1.1/" xmlns:cc="http://creativecommons.org/ns#" xmlns:rdf="http://www.w3.org/1999/02/22-rdf-syntax-ns#">
   <cc:Work>
    <dc:type rdf:resource="http://purl.org/dc/dcmitype/StillImage"/>
    <dc:date>2026-03-05T07:29:35.611435</dc:date>
    <dc:format>image/svg+xml</dc:format>
    <dc:creator>
     <cc:Agent>
      <dc:title>Matplotlib v3.10.8, https://matplotlib.org/</dc:title>
     </cc:Agent>
    </dc:creator>
   </cc:Work>
  </rdf:RDF>
 </metadata>
 <defs>
  <style type="text/css">*{stroke-linejoin: round; stroke-linecap: butt}</style>
 </defs>
 <g id="figure_1">
  <g id="patch_1">
   <path d="M 0 120 
L 288 120 
L 288 0 
L 0 0 
L 0 120 
z
" style="fill: none; opacity: 0"/>
  </g>
  <g id="axes_1">
   <g id="patch_2">
    <path d="M 8.64 108 
L 279.36 108 
L 279.36 4.8 
L 8.64 4.8 
L 8.64 108 
z
" style="fill: none"/>
   </g>
   <g id="matplotlib.axis_1"/>
   <g id="matplotlib.axis_2"/>
   <g id="line2d_1">
    <path d="M 8.64 87.36 
L 279.36 87.36 
" clip-path="url(#pe5048d5f45)" style="fill: none; stroke: #b2b2b2; stroke-opacity: 0.35; stroke-width: 0.5; stroke-linecap: square"/>
   </g>
   <g id="line2d_2">
    <path d="M 8.64 66.72 
L 279.36 66.72 
" clip-path="url(#pe5048d5f45)" style="fill: none; stroke: #b2b2b2; stroke-opacity: 0.35; stroke-width: 0.5; stroke-linecap: square"/>
   </g>
   <g id="line2d_3">
    <path d="M 8.64 46.08 
L 279.36 46.08 
" clip-path="url(#pe5048d5f45)" style="fill: none; stroke: #b2b2b2; stroke-opacity: 0.35; stroke-width: 0.5; stroke-linecap: square"/>
   </g>
   <g id="line2d_4">
    <path d="M 8.64 25.44 
L 279.36 25.44 
" clip-path="url(#pe5048d5f45)" style="fill: none; stroke: #b2b2b2; stroke-opacity: 0.35; stroke-width: 0.5; stroke-linecap: square"/>
   </g>
   <g id="line2d_5">
    <path d="M 8.64 88.52616 
L 11.660181 90.11544 
L 14.680361 90.38376 
L 17.700542 90.53856 
L 20.720722 90.08448 
L 23.740903 88.79448 
L 26.761083 89.20728 
L 29.781264 89.22792 
L 32.801444 90.31152 
L 35.821625 90.10512 
L 38.841805 91.09584 
L 41.861986 91.61184 
L 44.882166 91.31256 
L 47.902347 92.87088 
L 50.922528 93.8616 
L 53.942708 92.02464 
L 56.962889 92.13816 
L 59.983069 92.07624 
L 63.00325 92.14848 
L 66.02343 92.64384 
L 69.043611 93.01536 
L 72.063791 93.69648 
L 75.083972 93.11856 
L 78.104152 92.44776 
L 81.124333 92.30328 
L 84.144514 92.87088 
L 87.164694 92.38584 
L 90.184875 92.47872 
L 93.205055 91.88016 
L 96.225236 90.42504 
L 99.245416 90.08448 
L 102.265597 89.92968 
L 105.285777 88.76352 
L 108.305958 87.94824 
L 111.326138 89.2692 
L 114.346319 88.72224 
L 117.366499 89.39304 
L 120.38668 89.40336 
L 123.406861 88.41264 
L 126.427041 88.4952 
L 129.447222 86.86464 
L 132.467402 86.42088 
L 135.487583 87.62832 
L 138.507763 86.93688 
L 141.527944 87.23616 
L 144.548124 88.63968 
L 147.568305 90.0432 
L 150.588485 92.12784 
L 153.608666 91.16808 
L 156.628846 91.46736 
L 159.649027 91.73568 
L 162.669208 91.78728 
L 165.689388 94.0164 
L 168.709569 92.5716 
L 171.729749 91.76664 
L 174.74993 92.33424 
L 177.77011 94.36728 
L 180.790291 94.46016 
L 183.810471 97.71096 
L 186.830652 98.48496 
L 189.850832 97.85544 
L 192.400543 99.10416 
L 194.800643 100.16712 
L 197.819285 102.23112 
L 200.826532 100.54896 
L 203.91575 100.70376 
L 206.911007 100.68312 
L 209.948421 100.95144 
L 212.962345 101.28168 
L 215.971654 101.71512 
L 218.990926 101.84928 
L 221.974787 101.034 
L 224.835604 100.54896 
L 228.04951 101.04432 
L 230.690315 100.81728 
L 234.085082 101.034 
L 237.101592 101.4984 
L 240.10412 101.33328 
L 243.105844 101.1372 
L 246.160526 101.06496 
L 249.189795 102.09696 
L 251.954833 102.05568 
L 255.219284 101.4984 
L 258.226007 100.60056 
L 261.240455 100.80696 
L 264.22505 101.45712 
L 267.313849 100.55928 
L 270.302849 101.10624 
L 273.330056 100.8792 
L 276.333318 100.74504 
L 279.36 100.21872 
" clip-path="url(#pe5048d5f45)" style="fill: none; stroke: #bebebe; stroke-width: 0.5; stroke-linecap: round"/>
   </g>
   <g id="line2d_6">
    <path d="M 8.64 73.08744 
L 11.660181 74.72832 
L 14.680361 74.48064 
L 17.700542 74.28456 
L 20.720722 73.21128 
L 23.740903 70.2804 
L 26.761083 70.2288 
L 29.781264 71.56008 
L 32.801444 73.79952 
L 35.821625 73.35576 
L 38.841805 74.0988 
L 41.861986 75.5952 
L 44.882166 75.5952 
L 47.902347 77.61792 
L 50.922528 77.63856 
L 53.942708 75.40944 
L 56.962889 75.40944 
L 59.983069 75.04824 
L 63.00325 74.98632 
L 66.02343 75.58488 
L 69.043611 75.87384 
L 72.063791 76.49304 
L 75.083972 76.15248 
L 78.104152 75.82224 
L 81.124333 75.84288 
L 84.144514 76.03896 
L 87.164694 75.51264 
L 90.184875 75.56424 
L 93.205055 75.05856 
L 96.225236 73.26288 
L 99.245416 73.20096 
L 102.265597 73.00488 
L 105.285777 71.68392 
L 108.305958 70.6932 
L 111.326138 72.62304 
L 114.346319 73.52088 
L 117.366499 73.83048 
L 120.38668 73.8408 
L 123.406861 73.29384 
L 126.427041 73.72728 
L 129.447222 70.32168 
L 132.467402 69.77472 
L 135.487583 70.34232 
L 138.507763 70.67256 
L 141.527944 70.51776 
L 144.548124 70.848 
L 147.568305 72.31344 
L 150.588485 76.01832 
L 153.608666 75.41976 
L 156.628846 75.83256 
L 159.649027 75.79128 
L 162.669208 75.82224 
L 165.689388 77.82432 
L 168.709569 76.14216 
L 171.729749 74.75928 
L 174.74993 74.96568 
L 177.77011 77.75208 
L 180.790291 79.48584 
L 183.810471 83.31456 
L 186.830652 85.90488 
L 189.850832 84.79032 
L 192.400543 85.84296 
L 194.800643 88.25784 
L 197.819285 91.41576 
L 200.826532 88.7532 
L 203.91575 88.65 
L 206.911007 88.55712 
L 209.948421 88.96992 
L 212.962345 89.7336 
L 215.971654 90.456 
L 218.990926 90.56952 
L 221.974787 89.15568 
L 224.835604 88.9596 
L 228.04951 90.6624 
L 230.690315 89.94 
L 234.085082 90.00192 
L 237.101592 90.3528 
L 240.10412 90.62112 
L 243.105844 90.5076 
L 246.160526 90.3528 
L 249.189795 92.004 
L 251.954833 92.13816 
L 255.219284 91.25064 
L 258.226007 89.166 
L 261.240455 89.56848 
L 264.22505 90.93072 
L 267.313849 89.41368 
L 270.302849 90.37344 
L 273.330056 89.79552 
L 276.333318 90.23928 
L 279.36 88.0824 
" clip-path="url(#pe5048d5f45)" style="fill: none; stroke: #4a8dff; stroke-width: 0.6"/>
   </g>
   <g id="line2d_7">
    <path d="M 8.64 81.24024 
L 11.660181 84.17112 
L 14.680361 84.24336 
L 17.700542 83.29392 
L 20.720722 82.8192 
L 23.740903 80.64168 
L 26.761083 81.38472 
L 29.781264 80.87904 
L 32.801444 83.13912 
L 35.821625 83.19072 
L 38.841805 85.296 
L 41.861986 87.17424 
L 44.882166 85.71912 
L 47.902347 87.53544 
L 50.922528 88.17528 
L 53.942708 85.41984 
L 56.962889 85.17216 
L 59.983069 84.9348 
L 63.00325 85.01736 
L 66.02343 86.14224 
L 69.043611 85.90488 
L 72.063791 86.328 
L 75.083972 86.24544 
L 78.104152 85.72944 
L 81.124333 85.7088 
L 84.144514 86.40024 
L 87.164694 85.09992 
L 90.184875 86.02872 
L 93.205055 84.78 
L 96.225236 83.53128 
L 99.245416 82.83984 
L 102.265597 82.03488 
L 105.285777 79.39296 
L 108.305958 79.66128 
L 111.326138 82.15872 
L 114.346319 82.43736 
L 117.366499 82.93272 
L 120.38668 83.00496 
L 123.406861 82.6128 
L 126.427041 82.28256 
L 129.447222 78.01008 
L 132.467402 76.19376 
L 135.487583 77.66952 
L 138.507763 77.74176 
L 141.527944 78.1752 
L 144.548124 79.5684 
L 147.568305 80.8068 
L 150.588485 85.20312 
L 153.608666 84.12984 
L 156.628846 84.03696 
L 159.649027 84.06792 
L 162.669208 84.3156 
L 165.689388 87.02976 
L 168.709569 85.21344 
L 171.729749 84.28464 
L 174.74993 84.32592 
L 177.77011 89.08344 
L 180.790291 89.5272 
L 183.810471 95.14128 
L 186.830652 96.98856 
L 189.850832 95.08968 
L 192.400543 97.71096 
L 194.800643 99.80592 
L 197.819285 101.79768 
L 200.826532 100.03296 
L 203.91575 100.518 
L 206.911007 99.98136 
L 209.948421 100.49736 
L 212.962345 100.78632 
L 215.971654 101.07528 
L 218.990926 101.26104 
L 221.974787 100.63152 
L 224.835604 100.38384 
L 228.04951 100.84824 
L 230.690315 100.65216 
L 234.085082 101.034 
L 237.101592 101.19912 
L 240.10412 101.10624 
L 243.105844 100.97208 
L 246.160526 100.91016 
L 249.189795 101.7564 
L 251.954833 101.84928 
L 255.219284 101.56032 
L 258.226007 100.85856 
L 261.240455 101.12688 
L 264.22505 101.4468 
L 267.313849 101.02368 
L 270.302849 101.30232 
L 273.330056 100.81728 
L 276.333318 100.79664 
L 279.36 99.3312 
" clip-path="url(#pe5048d5f45)" style="fill: none; stroke: #f5841e; stroke-width: 0.6"/>
   </g>
  </g>
 </g>
 <defs>
  <clipPath id="pe5048d5f45">
   <rect x="8.64" y="4.8" width="270.72" height="103.2"/>
  </clipPath>
 </defs>
</svg>
