<?xml version="1.0" encoding="utf-8" standalone="no"?>
<!DOCTYPE svg PUBLIC "-//W3C//DTD SVG 1.1//EN"
  "http://www.w3.org/Graphics/SVG/1.1/DTD/svg11.dtd">
<svg xmlns:xlink="http://www.w3.org/1999/xlink" width="288pt" height="120pt" viewBox="0 0 288 120" xmlns="http://www.w3.org/2000/svg" version="1.1">
<desc id="nav-meta">{"window":"2w","count":4,"labels":["25.02","02.03","06.03","11.03"],"tick_utc":["2026-02-25T03:27:12Z","2026-03-02T03:18:56Z","2026-03-06T03:16:38Z","2026-03-11T03:14:04Z"],"w":720,"h":300}</desc>

 <metadata>
  <rdf:RDF xmlns:dc="http://purl.org/dc/elements/1.1/" xmlns:cc="http://creativecommons.org/ns#" xmlns:rdf="http://www.w3.org/1999/02/22-rdf-syntax-ns#">
   <cc:Work>
    <dc:type rdf:resource="http://purl.org/dc/dcmitype/StillImage"/>
    <dc:date>2026-03-11T03:14:06.574410</dc:date>
    <dc:format>image/svg+xml</dc:format>
    <dc:creator>
     <cc:Agent>
      <dc:title>Matplotlib v3.10.8, https://matplotlib.org/</dc:title>
     </cc:Agent>
    </dc:creator>
   </cc:Work>
  </rdf:RDF>
 </metadata>
 <defs>
  <style type="text/css">*{stroke-linejoin: round; stroke-linecap: butt}</style>
 </defs>
 <g id="figure_1">
  <g id="patch_1">
   <path d="M 0 120 
L 288 120 
L 288 0 
L 0 0 
L 0 120 
z
" style="fill: none; opacity: 0"/>
  </g>
  <g id="axes_1">
   <g id="patch_2">
    <path d="M 8.64 108 
L 279.36 108 
L 279.36 4.8 
L 8.64 4.8 
L 8.64 108 
z
" style="fill: none"/>
   </g>
   <g id="matplotlib.axis_1"/>
   <g id="matplotlib.axis_2"/>
   <g id="line2d_1">
    <path d="M 8.64 87.36 
L 279.36 87.36 
" clip-path="url(#p35c7acbfab)" style="fill: none; stroke: #b2b2b2; stroke-opacity: 0.35; stroke-width: 0.5; stroke-linecap: square"/>
   </g>
   <g id="line2d_2">
    <path d="M 8.64 66.72 
L 279.36 66.72 
" clip-path="url(#p35c7acbfab)" style="fill: none; stroke: #b2b2b2; stroke-opacity: 0.35; stroke-width: 0.5; stroke-linecap: square"/>
   </g>
   <g id="line2d_3">
    <path d="M 8.64 46.08 
L 279.36 46.08 
" clip-path="url(#p35c7acbfab)" style="fill: none; stroke: #b2b2b2; stroke-opacity: 0.35; stroke-width: 0.5; stroke-linecap: square"/>
   </g>
   <g id="line2d_4">
    <path d="M 8.64 25.44 
L 279.36 25.44 
" clip-path="url(#p35c7acbfab)" style="fill: none; stroke: #b2b2b2; stroke-opacity: 0.35; stroke-width: 0.5; stroke-linecap: square"/>
   </g>
   <g id="line2d_5">
    <path d="M 8.64 101.4984 
L 27.903526 100.60056 
L 47.216545 100.80696 
L 66.338307 101.45712 
L 86.12768 100.55928 
L 105.27766 101.10624 
L 124.672423 100.8792 
L 143.913777 100.74504 
L 163.305181 100.21872 
L 182.645747 100.53864 
L 201.847013 101.07528 
L 221.38466 101.38488 
L 240.792413 101.26104 
L 260.017866 100.78632 
L 279.36 100.91016 
" clip-path="url(#p35c7acbfab)" style="fill: none; stroke: #bebebe; stroke-width: 0.5; stroke-linecap: round"/>
   </g>
   <g id="line2d_6">
    <path d="M 8.64 91.25064 
L 27.903526 89.166 
L 47.216545 89.56848 
L 66.338307 90.93072 
L 86.12768 89.41368 
L 105.27766 90.37344 
L 124.672423 89.79552 
L 143.913777 90.23928 
L 163.305181 88.0824 
L 182.645747 88.7532 
L 201.847013 90.16704 
L 221.38466 90.67272 
L 240.792413 90.18768 
L 260.017866 89.2692 
L 279.36 89.54784 
" clip-path="url(#p35c7acbfab)" style="fill: none; stroke: #4a8dff; stroke-width: 0.6"/>
   </g>
   <g id="line2d_7">
    <path d="M 8.64 101.56032 
L 27.903526 100.85856 
L 47.216545 101.12688 
L 66.338307 101.4468 
L 86.12768 101.02368 
L 105.27766 101.30232 
L 124.672423 100.81728 
L 143.913777 100.79664 
L 163.305181 99.3312 
L 182.645747 99.92976 
L 201.847013 100.78632 
L 221.38466 101.17848 
L 240.792413 101.1372 
L 260.017866 100.21872 
L 279.36 100.37352 
" clip-path="url(#p35c7acbfab)" style="fill: none; stroke: #f5841e; stroke-width: 0.6"/>
   </g>
  </g>
 </g>
 <defs>
  <clipPath id="p35c7acbfab">
   <rect x="8.64" y="4.8" width="270.72" height="103.2"/>
  </clipPath>
 </defs>
</svg>
