<?xml version="1.0" encoding="utf-8" standalone="no"?>
<!DOCTYPE svg PUBLIC "-//W3C//DTD SVG 1.1//EN"
  "http://www.w3.org/Graphics/SVG/1.1/DTD/svg11.dtd">
<svg xmlns:xlink="http://www.w3.org/1999/xlink" width="288pt" height="120pt" viewBox="0 0 288 120" xmlns="http://www.w3.org/2000/svg" version="1.1">
<desc id="nav-meta">{"window":"6m","count":4,"labels":["09.09","08.11","07.01","08.03"],"tick_utc":["2025-09-09T12:00:00Z","2025-11-08T12:00:00Z","2026-01-07T12:00:00Z","2026-03-08T03:19:34Z"],"w":720,"h":300}</desc>

 <metadata>
  <rdf:RDF xmlns:dc="http://purl.org/dc/elements/1.1/" xmlns:cc="http://creativecommons.org/ns#" xmlns:rdf="http://www.w3.org/1999/02/22-rdf-syntax-ns#">
   <cc:Work>
    <dc:type rdf:resource="http://purl.org/dc/dcmitype/StillImage"/>
    <dc:date>2026-03-08T07:20:16.480677</dc:date>
    <dc:format>image/svg+xml</dc:format>
    <dc:creator>
     <cc:Agent>
      <dc:title>Matplotlib v3.10.8, https://matplotlib.org/</dc:title>
     </cc:Agent>
    </dc:creator>
   </cc:Work>
  </rdf:RDF>
 </metadata>
 <defs>
  <style type="text/css">*{stroke-linejoin: round; stroke-linecap: butt}</style>
 </defs>
 <g id="figure_1">
  <g id="patch_1">
   <path d="M 0 120 
L 288 120 
L 288 0 
L 0 0 
L 0 120 
z
" style="fill: none; opacity: 0"/>
  </g>
  <g id="axes_1">
   <g id="patch_2">
    <path d="M 8.64 108 
L 279.36 108 
L 279.36 4.8 
L 8.64 4.8 
L 8.64 108 
z
" style="fill: none"/>
   </g>
   <g id="matplotlib.axis_1"/>
   <g id="matplotlib.axis_2"/>
   <g id="line2d_1">
    <path d="M 8.64 87.36 
L 279.36 87.36 
" clip-path="url(#pdddf06792f)" style="fill: none; stroke: #b2b2b2; stroke-opacity: 0.35; stroke-width: 0.5; stroke-linecap: square"/>
   </g>
   <g id="line2d_2">
    <path d="M 8.64 66.72 
L 279.36 66.72 
" clip-path="url(#pdddf06792f)" style="fill: none; stroke: #b2b2b2; stroke-opacity: 0.35; stroke-width: 0.5; stroke-linecap: square"/>
   </g>
   <g id="line2d_3">
    <path d="M 8.64 46.08 
L 279.36 46.08 
" clip-path="url(#pdddf06792f)" style="fill: none; stroke: #b2b2b2; stroke-opacity: 0.35; stroke-width: 0.5; stroke-linecap: square"/>
   </g>
   <g id="line2d_4">
    <path d="M 8.64 25.44 
L 279.36 25.44 
" clip-path="url(#pdddf06792f)" style="fill: none; stroke: #b2b2b2; stroke-opacity: 0.35; stroke-width: 0.5; stroke-linecap: square"/>
   </g>
   <g id="line2d_5">
    <path d="M 8.64 68.01 
L 10.147026 67.10184 
L 11.654052 65.29584 
L 13.161078 64.01616 
L 14.668103 60.31128 
L 16.175129 60.19776 
L 17.682155 60.786 
L 19.189181 62.61264 
L 20.696207 61.74576 
L 22.203233 59.57856 
L 23.710259 58.86648 
L 25.217285 61.38456 
L 26.72431 61.07496 
L 28.231336 61.83864 
L 29.738362 66.29688 
L 31.245388 67.97904 
L 32.752414 68.69112 
L 34.25944 73.9956 
L 35.766466 70.45584 
L 37.273492 70.87896 
L 38.780517 68.91816 
L 40.287543 68.3196 
L 41.794569 69.47544 
L 44.808621 62.39592 
L 46.315647 62.81904 
L 47.822673 64.22256 
L 49.329699 64.05744 
L 50.836724 62.9532 
L 52.34375 66.14208 
L 53.850776 63.91296 
L 55.357802 66.17304 
L 56.864828 74.6148 
L 58.371854 77.78304 
L 59.87888 72.66432 
L 61.385906 69.69216 
L 62.892931 71.09568 
L 65.906983 76.06992 
L 67.414009 76.76136 
L 68.921035 75.25464 
L 70.428061 75.24432 
L 71.935087 74.63544 
L 73.442113 75.73968 
L 74.949138 77.31864 
L 76.456164 74.202 
L 77.96319 73.64472 
L 79.470216 73.48992 
L 80.977242 71.83872 
L 82.484268 72.17928 
L 83.991294 73.38672 
L 85.49832 73.43832 
L 87.005345 76.15248 
L 88.512371 75.3372 
L 90.019397 75.58488 
L 91.526423 75.35784 
L 93.033449 81.168 
L 94.540475 84.01632 
L 96.047501 82.06584 
L 97.554527 84.19176 
L 99.061552 82.27224 
L 100.568578 83.29392 
L 102.075604 81.62208 
L 103.58263 80.72424 
L 105.089656 84.33624 
L 106.596682 84.64584 
L 108.103708 86.844 
L 109.610734 88.52616 
L 111.117759 88.36104 
L 112.624785 88.93896 
L 114.131811 90.79656 
L 115.638837 88.09272 
L 117.145863 89.22792 
L 118.652889 90.00192 
L 120.159915 91.39512 
L 121.666941 91.63248 
L 123.173966 90.75528 
L 124.680992 88.7016 
L 126.188018 88.52616 
L 127.695044 87.45288 
L 129.20207 88.0308 
L 130.709096 88.94928 
L 133.723148 89.7336 
L 135.230173 91.86984 
L 136.737199 88.60872 
L 138.244225 86.87496 
L 141.258277 90.11544 
L 142.765303 90.38376 
L 144.272329 90.53856 
L 145.779355 90.08448 
L 147.28638 88.79448 
L 148.793406 89.20728 
L 150.300432 89.22792 
L 151.807458 90.31152 
L 153.314484 90.10512 
L 154.82151 91.09584 
L 156.328536 91.61184 
L 157.835562 91.31256 
L 159.342587 92.87088 
L 160.849613 93.8616 
L 162.356639 92.02464 
L 163.863665 92.13816 
L 165.370691 92.07624 
L 166.877717 92.14848 
L 168.384743 92.64384 
L 169.891769 93.01536 
L 171.398794 93.69648 
L 174.412846 92.44776 
L 175.919872 92.30328 
L 177.426898 92.87088 
L 178.933924 92.38584 
L 180.44095 92.47872 
L 181.947975 91.88016 
L 183.455001 90.42504 
L 184.962027 90.08448 
L 186.469053 89.92968 
L 187.976079 88.76352 
L 189.483105 87.94824 
L 190.990131 89.2692 
L 192.497157 88.72224 
L 194.004182 89.39304 
L 195.511208 89.40336 
L 197.018234 88.41264 
L 198.52526 88.4952 
L 200.032286 86.86464 
L 201.539312 86.42088 
L 203.046338 87.62832 
L 204.553364 86.93688 
L 206.060389 87.23616 
L 209.074441 90.0432 
L 210.581467 92.12784 
L 212.088493 91.16808 
L 215.102545 91.73568 
L 216.609571 91.78728 
L 218.116596 94.0164 
L 219.623622 92.5716 
L 221.130648 91.76664 
L 222.637674 92.33424 
L 224.1447 94.36728 
L 225.651726 94.46016 
L 227.158752 97.71096 
L 228.665778 98.48496 
L 230.172803 97.85544 
L 232.642686 100.16712 
L 234.148945 102.23112 
L 235.649517 100.54896 
L 237.190992 100.70376 
L 238.685581 100.68312 
L 241.70511 101.28168 
L 243.206711 101.71512 
L 244.713283 101.84928 
L 246.202186 101.034 
L 247.629692 100.54896 
L 249.233384 101.04432 
L 250.551107 100.81728 
L 252.245046 101.034 
L 253.750241 101.4984 
L 258.270516 101.06496 
L 259.782077 102.09696 
L 261.16179 102.05568 
L 262.790704 101.4984 
L 264.291015 100.60056 
L 265.79518 100.80696 
L 267.284449 101.45712 
L 268.825715 100.55928 
L 270.317182 101.10624 
L 273.326297 100.74504 
L 274.836568 100.21872 
L 276.342878 100.53864 
L 277.83834 101.07528 
L 279.36 101.38488 
L 279.36 101.38488 
" clip-path="url(#pdddf06792f)" style="fill: none; stroke: #bebebe; stroke-width: 0.5; stroke-linecap: round"/>
   </g>
   <g id="line2d_6">
    <path d="M 8.64 55.63632 
L 10.147026 55.63632 
L 11.654052 55.07904 
L 13.161078 53.41752 
L 14.668103 49.71264 
L 16.175129 50.32152 
L 17.682155 51.17808 
L 19.189181 52.44744 
L 20.696207 52.74672 
L 22.203233 51.4464 
L 23.710259 51.46704 
L 25.217285 53.2524 
L 26.72431 53.08728 
L 28.231336 53.5104 
L 29.738362 57.26688 
L 31.245388 57.76224 
L 32.752414 58.02024 
L 34.25944 62.26176 
L 35.766466 59.68176 
L 37.273492 59.9604 
L 38.780517 58.12344 
L 40.287543 57.02952 
L 41.794569 58.09248 
L 43.301595 55.13064 
L 44.808621 53.046 
L 46.315647 52.5816 
L 47.822673 52.9944 
L 49.329699 52.5816 
L 50.836724 50.0016 
L 52.34375 53.48976 
L 53.850776 52.40616 
L 55.357802 54.75912 
L 56.864828 62.67456 
L 58.371854 63.95424 
L 59.87888 57.86544 
L 61.385906 56.57544 
L 62.892931 58.31952 
L 64.399957 60.4764 
L 65.906983 61.85928 
L 67.414009 62.73648 
L 68.921035 61.8696 
L 70.428061 60.45576 
L 71.935087 60.54864 
L 73.442113 62.04504 
L 74.949138 63.16992 
L 76.456164 62.36496 
L 77.96319 61.21944 
L 79.470216 60.9408 
L 80.977242 57.83448 
L 82.484268 58.40208 
L 83.991294 60.49704 
L 87.005345 63.1596 
L 88.512371 62.49912 
L 90.019397 62.1276 
L 91.526423 61.56 
L 94.540475 70.66224 
L 96.047501 68.72208 
L 97.554527 70.4868 
L 99.061552 68.61888 
L 100.568578 69.11424 
L 102.075604 66.5136 
L 103.58263 66.68904 
L 105.089656 68.8872 
L 106.596682 68.9904 
L 108.103708 71.5704 
L 109.610734 73.48992 
L 111.117759 72.54048 
L 112.624785 73.56216 
L 114.131811 74.74896 
L 115.638837 73.3248 
L 117.145863 74.80056 
L 118.652889 77.556 
L 120.159915 78.55704 
L 121.666941 78.50544 
L 123.173966 78.04104 
L 124.680992 75.76032 
L 126.188018 75.73968 
L 127.695044 74.65608 
L 129.20207 74.83152 
L 130.709096 74.57352 
L 132.216122 75.20304 
L 133.723148 75.17208 
L 135.230173 78.05136 
L 138.244225 72.16896 
L 139.751251 73.08744 
L 141.258277 74.72832 
L 144.272329 74.28456 
L 145.779355 73.21128 
L 147.28638 70.2804 
L 148.793406 70.2288 
L 150.300432 71.56008 
L 151.807458 73.79952 
L 153.314484 73.35576 
L 154.82151 74.0988 
L 156.328536 75.5952 
L 157.835562 75.5952 
L 159.342587 77.61792 
L 160.849613 77.63856 
L 162.356639 75.40944 
L 163.863665 75.40944 
L 165.370691 75.04824 
L 166.877717 74.98632 
L 168.384743 75.58488 
L 169.891769 75.87384 
L 171.398794 76.49304 
L 174.412846 75.82224 
L 175.919872 75.84288 
L 177.426898 76.03896 
L 178.933924 75.51264 
L 180.44095 75.56424 
L 181.947975 75.05856 
L 183.455001 73.26288 
L 184.962027 73.20096 
L 186.469053 73.00488 
L 187.976079 71.68392 
L 189.483105 70.6932 
L 190.990131 72.62304 
L 192.497157 73.52088 
L 194.004182 73.83048 
L 195.511208 73.8408 
L 197.018234 73.29384 
L 198.52526 73.72728 
L 200.032286 70.32168 
L 201.539312 69.77472 
L 203.046338 70.34232 
L 204.553364 70.67256 
L 206.060389 70.51776 
L 207.567415 70.848 
L 209.074441 72.31344 
L 210.581467 76.01832 
L 212.088493 75.41976 
L 213.595519 75.83256 
L 216.609571 75.82224 
L 218.116596 77.82432 
L 219.623622 76.14216 
L 221.130648 74.75928 
L 222.637674 74.96568 
L 224.1447 77.75208 
L 225.651726 79.48584 
L 227.158752 83.31456 
L 228.665778 85.90488 
L 230.172803 84.79032 
L 231.445072 85.84296 
L 234.148945 91.41576 
L 235.649517 88.7532 
L 238.685581 88.55712 
L 240.201206 88.96992 
L 243.206711 90.456 
L 244.713283 90.56952 
L 246.202186 89.15568 
L 247.629692 88.9596 
L 249.233384 90.6624 
L 250.551107 89.94 
L 252.245046 90.00192 
L 255.248458 90.62112 
L 258.270516 90.3528 
L 259.782077 92.004 
L 261.16179 92.13816 
L 262.790704 91.25064 
L 264.291015 89.166 
L 265.79518 89.56848 
L 267.284449 90.93072 
L 268.825715 89.41368 
L 270.317182 90.37344 
L 271.827714 89.79552 
L 273.326297 90.23928 
L 274.836568 88.0824 
L 276.342878 88.7532 
L 277.83834 90.16704 
L 279.36 90.67272 
L 279.36 90.67272 
" clip-path="url(#pdddf06792f)" style="fill: none; stroke: #4a8dff; stroke-width: 0.6"/>
   </g>
   <g id="line2d_7">
    <path d="M 8.64 60.64152 
L 10.147026 61.13688 
L 11.654052 58.6188 
L 13.161078 57.03984 
L 14.668103 56.35872 
L 16.175129 56.5548 
L 17.682155 57.174 
L 19.189181 57.14304 
L 20.696207 55.7292 
L 22.203233 56.04912 
L 23.710259 55.33704 
L 25.217285 56.87472 
L 26.72431 56.8128 
L 28.231336 57.24624 
L 29.738362 59.93976 
L 31.245388 60.64152 
L 32.752414 59.29992 
L 34.25944 63.80976 
L 35.766466 63.03576 
L 37.273492 63.09768 
L 38.780517 60.51768 
L 40.287543 58.27824 
L 41.794569 58.5672 
L 43.301595 53.93352 
L 44.808621 51.74568 
L 46.315647 50.04288 
L 47.822673 49.90872 
L 49.329699 48.74256 
L 50.836724 47.43192 
L 52.34375 50.80656 
L 53.850776 48.90768 
L 55.357802 50.6208 
L 56.864828 59.42376 
L 58.371854 61.85928 
L 59.87888 57.35976 
L 61.385906 57.3288 
L 62.892931 59.46504 
L 65.906983 64.72824 
L 67.414009 66.42072 
L 68.921035 65.688 
L 70.428061 64.17096 
L 71.935087 62.10696 
L 73.442113 64.30512 
L 74.949138 65.20296 
L 76.456164 62.68488 
L 77.96319 61.70448 
L 79.470216 61.06464 
L 80.977242 58.1028 
L 82.484268 58.40208 
L 83.991294 59.68176 
L 85.49832 62.6952 
L 87.005345 64.56312 
L 88.512371 63.18024 
L 90.019397 62.72616 
L 91.526423 62.06568 
L 93.033449 66.33816 
L 94.540475 71.40528 
L 96.047501 69.08328 
L 97.554527 71.7252 
L 99.061552 69.57864 
L 100.568578 70.72416 
L 102.075604 68.2164 
L 103.58263 66.978 
L 105.089656 70.03272 
L 106.596682 71.5188 
L 108.103708 73.3764 
L 109.610734 78.846 
L 111.117759 77.75208 
L 112.624785 78.88728 
L 114.131811 81.34344 
L 115.638837 80.53848 
L 117.145863 82.0452 
L 118.652889 86.92656 
L 120.159915 88.58808 
L 121.666941 88.96992 
L 123.173966 86.7924 
L 124.680992 85.296 
L 126.188018 86.24544 
L 127.695044 82.96368 
L 129.20207 82.13808 
L 130.709096 82.47864 
L 132.216122 82.58184 
L 133.723148 83.03592 
L 135.230173 87.3084 
L 136.737199 82.06584 
L 138.244225 79.71288 
L 139.751251 81.24024 
L 141.258277 84.17112 
L 142.765303 84.24336 
L 144.272329 83.29392 
L 145.779355 82.8192 
L 147.28638 80.64168 
L 148.793406 81.38472 
L 150.300432 80.87904 
L 151.807458 83.13912 
L 153.314484 83.19072 
L 154.82151 85.296 
L 156.328536 87.17424 
L 157.835562 85.71912 
L 159.342587 87.53544 
L 160.849613 88.17528 
L 162.356639 85.41984 
L 165.370691 84.9348 
L 166.877717 85.01736 
L 168.384743 86.14224 
L 169.891769 85.90488 
L 171.398794 86.328 
L 172.90582 86.24544 
L 174.412846 85.72944 
L 175.919872 85.7088 
L 177.426898 86.40024 
L 178.933924 85.09992 
L 180.44095 86.02872 
L 183.455001 83.53128 
L 186.469053 82.03488 
L 187.976079 79.39296 
L 189.483105 79.66128 
L 190.990131 82.15872 
L 192.497157 82.43736 
L 194.004182 82.93272 
L 195.511208 83.00496 
L 198.52526 82.28256 
L 200.032286 78.01008 
L 201.539312 76.19376 
L 203.046338 77.66952 
L 204.553364 77.74176 
L 206.060389 78.1752 
L 207.567415 79.5684 
L 209.074441 80.8068 
L 210.581467 85.20312 
L 212.088493 84.12984 
L 213.595519 84.03696 
L 215.102545 84.06792 
L 216.609571 84.3156 
L 218.116596 87.02976 
L 219.623622 85.21344 
L 221.130648 84.28464 
L 222.637674 84.32592 
L 224.1447 89.08344 
L 225.651726 89.5272 
L 227.158752 95.14128 
L 228.665778 96.98856 
L 230.172803 95.08968 
L 231.445072 97.71096 
L 232.642686 99.80592 
L 234.148945 101.79768 
L 235.649517 100.03296 
L 237.190992 100.518 
L 238.685581 99.98136 
L 240.201206 100.49736 
L 244.713283 101.26104 
L 246.202186 100.63152 
L 247.629692 100.38384 
L 249.233384 100.84824 
L 250.551107 100.65216 
L 252.245046 101.034 
L 253.750241 101.19912 
L 258.270516 100.91016 
L 259.782077 101.7564 
L 261.16179 101.84928 
L 262.790704 101.56032 
L 264.291015 100.85856 
L 267.284449 101.4468 
L 268.825715 101.02368 
L 270.317182 101.30232 
L 271.827714 100.81728 
L 273.326297 100.79664 
L 274.836568 99.3312 
L 276.342878 99.92976 
L 277.83834 100.78632 
L 279.36 101.17848 
L 279.36 101.17848 
" clip-path="url(#pdddf06792f)" style="fill: none; stroke: #f5841e; stroke-width: 0.6"/>
   </g>
  </g>
 </g>
 <defs>
  <clipPath id="pdddf06792f">
   <rect x="8.64" y="4.8" width="270.72" height="103.2"/>
  </clipPath>
 </defs>
</svg>
