<?xml version="1.0" encoding="utf-8" standalone="no"?>
<!DOCTYPE svg PUBLIC "-//W3C//DTD SVG 1.1//EN"
  "http://www.w3.org/Graphics/SVG/1.1/DTD/svg11.dtd">
<svg xmlns:xlink="http://www.w3.org/1999/xlink" width="288pt" height="120pt" viewBox="0 0 288 120" xmlns="http://www.w3.org/2000/svg" version="1.1">
<desc id="nav-meta">{"window":"6m","count":4,"labels":["21.08","20.10","18.12","16.02"],"tick_utc":["2025-08-21T12:00:00Z","2025-10-20T12:00:00Z","2025-12-18T12:00:00Z","2026-02-16T03:32:51Z"],"w":720,"h":300}</desc>

 <metadata>
  <rdf:RDF xmlns:dc="http://purl.org/dc/elements/1.1/" xmlns:cc="http://creativecommons.org/ns#" xmlns:rdf="http://www.w3.org/1999/02/22-rdf-syntax-ns#">
   <cc:Work>
    <dc:type rdf:resource="http://purl.org/dc/dcmitype/StillImage"/>
    <dc:date>2026-02-16T13:51:47.000200</dc:date>
    <dc:format>image/svg+xml</dc:format>
    <dc:creator>
     <cc:Agent>
      <dc:title>Matplotlib v3.10.8, https://matplotlib.org/</dc:title>
     </cc:Agent>
    </dc:creator>
   </cc:Work>
  </rdf:RDF>
 </metadata>
 <defs>
  <style type="text/css">*{stroke-linejoin: round; stroke-linecap: butt}</style>
 </defs>
 <g id="figure_1">
  <g id="patch_1">
   <path d="M 0 120 
L 288 120 
L 288 0 
L 0 0 
L 0 120 
z
" style="fill: none; opacity: 0"/>
  </g>
  <g id="axes_1">
   <g id="patch_2">
    <path d="M 8.64 108 
L 279.36 108 
L 279.36 4.8 
L 8.64 4.8 
L 8.64 108 
z
" style="fill: none"/>
   </g>
   <g id="matplotlib.axis_1"/>
   <g id="matplotlib.axis_2"/>
   <g id="line2d_1">
    <path d="M 8.64 87.36 
L 279.36 87.36 
" clip-path="url(#pf72f752e48)" style="fill: none; stroke: #b2b2b2; stroke-opacity: 0.35; stroke-width: 0.5; stroke-linecap: square"/>
   </g>
   <g id="line2d_2">
    <path d="M 8.64 66.72 
L 279.36 66.72 
" clip-path="url(#pf72f752e48)" style="fill: none; stroke: #b2b2b2; stroke-opacity: 0.35; stroke-width: 0.5; stroke-linecap: square"/>
   </g>
   <g id="line2d_3">
    <path d="M 8.64 46.08 
L 279.36 46.08 
" clip-path="url(#pf72f752e48)" style="fill: none; stroke: #b2b2b2; stroke-opacity: 0.35; stroke-width: 0.5; stroke-linecap: square"/>
   </g>
   <g id="line2d_4">
    <path d="M 8.64 25.44 
L 279.36 25.44 
" clip-path="url(#pf72f752e48)" style="fill: none; stroke: #b2b2b2; stroke-opacity: 0.35; stroke-width: 0.5; stroke-linecap: square"/>
   </g>
   <g id="line2d_5">
    <path d="M 8.64 75.3372 
L 10.155384 77.25672 
L 11.670768 71.78712 
L 13.186151 70.75512 
L 14.701535 70.24944 
L 16.216919 75.35784 
L 17.732303 72.95328 
L 19.247687 70.96152 
L 20.76307 67.87584 
L 22.278454 70.46616 
L 23.793838 71.11632 
L 25.309222 71.61168 
L 26.824606 72.7056 
L 28.339989 69.33096 
L 29.855373 68.9388 
L 31.370757 71.12664 
L 32.886141 70.90992 
L 34.401525 71.80776 
L 35.916908 70.074 
L 37.432292 68.01 
L 38.947676 67.10184 
L 40.46306 65.29584 
L 41.978443 64.01616 
L 43.493827 60.31128 
L 45.009211 60.19776 
L 46.524595 60.786 
L 48.039979 62.61264 
L 49.555362 61.74576 
L 51.070746 59.57856 
L 52.58613 58.86648 
L 54.101514 61.38456 
L 55.616898 61.07496 
L 57.132281 61.83864 
L 58.647665 66.29688 
L 60.163049 67.97904 
L 61.678433 68.69112 
L 63.193817 73.9956 
L 64.7092 70.45584 
L 66.224584 70.87896 
L 67.739968 68.91816 
L 69.255352 68.3196 
L 70.770736 69.47544 
L 73.801503 62.39592 
L 75.316887 62.81904 
L 76.832271 64.22256 
L 78.347655 64.05744 
L 79.863038 62.9532 
L 81.378422 66.14208 
L 82.893806 63.91296 
L 84.40919 66.17304 
L 85.924574 74.6148 
L 87.439957 77.78304 
L 88.955341 72.66432 
L 90.470725 69.69216 
L 91.986109 71.09568 
L 95.016876 76.06992 
L 96.53226 76.76136 
L 98.047644 75.25464 
L 99.563028 75.24432 
L 101.078411 74.63544 
L 102.593795 75.73968 
L 104.109179 77.31864 
L 105.624563 74.202 
L 107.139947 73.64472 
L 108.65533 73.48992 
L 110.170714 71.83872 
L 111.686098 72.17928 
L 113.201482 73.38672 
L 114.716866 73.43832 
L 116.232249 76.15248 
L 117.747633 75.3372 
L 119.263017 75.58488 
L 120.778401 75.35784 
L 122.293785 81.168 
L 123.809168 84.01632 
L 125.324552 82.06584 
L 126.839936 84.19176 
L 128.35532 82.27224 
L 129.870704 83.29392 
L 131.386087 81.62208 
L 132.901471 80.72424 
L 134.416855 84.33624 
L 135.932239 84.64584 
L 137.447623 86.844 
L 138.963006 88.52616 
L 140.47839 88.36104 
L 141.993774 88.93896 
L 143.509158 90.79656 
L 145.024542 88.09272 
L 146.539925 89.22792 
L 148.055309 90.00192 
L 149.570693 91.39512 
L 151.086077 91.63248 
L 152.60146 90.75528 
L 154.116844 88.7016 
L 155.632228 88.52616 
L 157.147612 87.45288 
L 158.662996 88.0308 
L 160.178379 88.94928 
L 163.209147 89.7336 
L 164.724531 91.86984 
L 166.239915 88.60872 
L 167.755298 86.87496 
L 170.786066 90.11544 
L 172.30145 90.38376 
L 173.816834 90.53856 
L 175.332217 90.08448 
L 176.847601 88.79448 
L 178.362985 89.20728 
L 179.878369 89.22792 
L 181.393753 90.31152 
L 182.909136 90.10512 
L 184.42452 91.09584 
L 185.939904 91.61184 
L 187.455288 91.31256 
L 188.970672 92.87088 
L 190.486055 93.8616 
L 192.001439 92.02464 
L 193.516823 92.13816 
L 195.032207 92.07624 
L 196.547591 92.14848 
L 198.062974 92.64384 
L 199.578358 93.01536 
L 201.093742 93.69648 
L 204.12451 92.44776 
L 205.639893 92.30328 
L 207.155277 92.87088 
L 208.670661 92.38584 
L 210.186045 92.47872 
L 211.701428 91.88016 
L 213.216812 90.42504 
L 214.732196 90.08448 
L 216.24758 89.92968 
L 217.762964 88.76352 
L 219.278347 87.94824 
L 220.793731 89.2692 
L 222.309115 88.72224 
L 223.824499 89.39304 
L 225.339883 89.40336 
L 226.855266 88.41264 
L 228.37065 88.4952 
L 229.886034 86.86464 
L 231.401418 86.42088 
L 232.916802 87.62832 
L 234.432185 86.93688 
L 235.947569 87.23616 
L 238.978337 90.0432 
L 240.493721 92.12784 
L 242.009104 91.16808 
L 245.039872 91.73568 
L 246.555256 91.78728 
L 248.07064 94.0164 
L 249.586023 92.5716 
L 251.101407 91.76664 
L 252.616791 92.33424 
L 254.132175 94.36728 
L 255.647559 94.46016 
L 257.162942 97.71096 
L 258.678326 98.48496 
L 260.19371 97.85544 
L 262.677291 100.16712 
L 264.191903 102.23112 
L 265.700797 100.54896 
L 267.250821 100.70376 
L 268.753699 100.68312 
L 271.789974 101.28168 
L 273.299903 101.71512 
L 274.814831 101.84928 
L 276.311991 101.034 
L 277.747414 100.54896 
L 279.36 101.04432 
L 279.36 101.04432 
" clip-path="url(#pf72f752e48)" style="fill: none; stroke: #bebebe; stroke-width: 0.5; stroke-linecap: round"/>
   </g>
   <g id="line2d_6">
    <path d="M 8.64 55.32672 
L 10.155384 56.90568 
L 11.670768 47.92728 
L 13.186151 48.75288 
L 14.701535 48.68064 
L 16.216919 54.57336 
L 17.732303 51.2916 
L 19.247687 52.80864 
L 20.76307 52.69512 
L 22.278454 54.82104 
L 25.309222 54.45984 
L 26.824606 55.7292 
L 28.339989 55.39896 
L 29.855373 53.55168 
L 31.370757 55.81176 
L 32.886141 55.6776 
L 34.401525 56.18328 
L 35.916908 55.71888 
L 38.947676 55.63632 
L 40.46306 55.07904 
L 41.978443 53.41752 
L 43.493827 49.71264 
L 45.009211 50.32152 
L 46.524595 51.17808 
L 48.039979 52.44744 
L 49.555362 52.74672 
L 51.070746 51.4464 
L 52.58613 51.46704 
L 54.101514 53.2524 
L 55.616898 53.08728 
L 57.132281 53.5104 
L 58.647665 57.26688 
L 60.163049 57.76224 
L 61.678433 58.02024 
L 63.193817 62.26176 
L 64.7092 59.68176 
L 66.224584 59.9604 
L 67.739968 58.12344 
L 69.255352 57.02952 
L 70.770736 58.09248 
L 72.286119 55.13064 
L 73.801503 53.046 
L 75.316887 52.5816 
L 76.832271 52.9944 
L 78.347655 52.5816 
L 79.863038 50.0016 
L 81.378422 53.48976 
L 82.893806 52.40616 
L 84.40919 54.75912 
L 85.924574 62.67456 
L 87.439957 63.95424 
L 88.955341 57.86544 
L 90.470725 56.57544 
L 91.986109 58.31952 
L 93.501492 60.4764 
L 95.016876 61.85928 
L 96.53226 62.73648 
L 98.047644 61.8696 
L 99.563028 60.45576 
L 101.078411 60.54864 
L 102.593795 62.04504 
L 104.109179 63.16992 
L 105.624563 62.36496 
L 107.139947 61.21944 
L 108.65533 60.9408 
L 110.170714 57.83448 
L 111.686098 58.40208 
L 113.201482 60.49704 
L 114.716866 61.75608 
L 116.232249 63.1596 
L 117.747633 62.49912 
L 119.263017 62.1276 
L 120.778401 61.56 
L 123.809168 70.66224 
L 125.324552 68.72208 
L 126.839936 70.4868 
L 128.35532 68.61888 
L 129.870704 69.11424 
L 131.386087 66.5136 
L 132.901471 66.68904 
L 134.416855 68.8872 
L 135.932239 68.9904 
L 137.447623 71.5704 
L 138.963006 73.48992 
L 140.47839 72.54048 
L 141.993774 73.56216 
L 143.509158 74.74896 
L 145.024542 73.3248 
L 146.539925 74.80056 
L 148.055309 77.556 
L 149.570693 78.55704 
L 151.086077 78.50544 
L 152.60146 78.04104 
L 154.116844 75.76032 
L 155.632228 75.73968 
L 157.147612 74.65608 
L 158.662996 74.83152 
L 160.178379 74.57352 
L 161.693763 75.20304 
L 163.209147 75.17208 
L 164.724531 78.05136 
L 167.755298 72.16896 
L 169.270682 73.08744 
L 170.786066 74.72832 
L 173.816834 74.28456 
L 175.332217 73.21128 
L 176.847601 70.2804 
L 178.362985 70.2288 
L 179.878369 71.56008 
L 181.393753 73.79952 
L 182.909136 73.35576 
L 184.42452 74.0988 
L 185.939904 75.5952 
L 187.455288 75.5952 
L 188.970672 77.61792 
L 190.486055 77.63856 
L 192.001439 75.40944 
L 193.516823 75.40944 
L 195.032207 75.04824 
L 196.547591 74.98632 
L 198.062974 75.58488 
L 199.578358 75.87384 
L 201.093742 76.49304 
L 204.12451 75.82224 
L 205.639893 75.84288 
L 207.155277 76.03896 
L 208.670661 75.51264 
L 210.186045 75.56424 
L 211.701428 75.05856 
L 213.216812 73.26288 
L 214.732196 73.20096 
L 216.24758 73.00488 
L 217.762964 71.68392 
L 219.278347 70.6932 
L 220.793731 72.62304 
L 222.309115 73.52088 
L 223.824499 73.83048 
L 225.339883 73.8408 
L 226.855266 73.29384 
L 228.37065 73.72728 
L 229.886034 70.32168 
L 231.401418 69.77472 
L 232.916802 70.34232 
L 234.432185 70.67256 
L 235.947569 70.51776 
L 237.462953 70.848 
L 238.978337 72.31344 
L 240.493721 76.01832 
L 242.009104 75.41976 
L 243.524488 75.83256 
L 246.555256 75.82224 
L 248.07064 77.82432 
L 249.586023 76.14216 
L 251.101407 74.75928 
L 252.616791 74.96568 
L 254.132175 77.75208 
L 255.647559 79.48584 
L 257.162942 83.31456 
L 258.678326 85.90488 
L 260.19371 84.79032 
L 261.473034 85.84296 
L 264.191903 91.41576 
L 265.700797 88.7532 
L 268.753699 88.55712 
L 270.27773 88.96992 
L 273.299903 90.456 
L 274.814831 90.56952 
L 276.311991 89.15568 
L 277.747414 88.9596 
L 279.36 90.6624 
L 279.36 90.6624 
" clip-path="url(#pf72f752e48)" style="fill: none; stroke: #4a8dff; stroke-width: 0.6"/>
   </g>
   <g id="line2d_7">
    <path d="M 8.64 58.32984 
L 10.155384 60.23904 
L 11.670768 55.65696 
L 13.186151 57.18432 
L 14.701535 59.21736 
L 16.216919 62.55072 
L 17.732303 60.82728 
L 19.247687 61.47744 
L 20.76307 60.12552 
L 22.278454 64.31544 
L 23.793838 63.99552 
L 25.309222 64.5528 
L 26.824606 63.60336 
L 28.339989 61.5084 
L 29.855373 60.96144 
L 31.370757 61.98312 
L 32.886141 62.05536 
L 34.401525 62.51976 
L 37.432292 60.64152 
L 38.947676 61.13688 
L 40.46306 58.6188 
L 41.978443 57.03984 
L 43.493827 56.35872 
L 45.009211 56.5548 
L 46.524595 57.174 
L 48.039979 57.14304 
L 49.555362 55.7292 
L 51.070746 56.04912 
L 52.58613 55.33704 
L 54.101514 56.87472 
L 55.616898 56.8128 
L 57.132281 57.24624 
L 58.647665 59.93976 
L 60.163049 60.64152 
L 61.678433 59.29992 
L 63.193817 63.80976 
L 64.7092 63.03576 
L 66.224584 63.09768 
L 67.739968 60.51768 
L 69.255352 58.27824 
L 70.770736 58.5672 
L 72.286119 53.93352 
L 73.801503 51.74568 
L 75.316887 50.04288 
L 76.832271 49.90872 
L 78.347655 48.74256 
L 79.863038 47.43192 
L 81.378422 50.80656 
L 82.893806 48.90768 
L 84.40919 50.6208 
L 85.924574 59.42376 
L 87.439957 61.85928 
L 88.955341 57.35976 
L 90.470725 57.3288 
L 91.986109 59.46504 
L 95.016876 64.72824 
L 96.53226 66.42072 
L 98.047644 65.688 
L 99.563028 64.17096 
L 101.078411 62.10696 
L 102.593795 64.30512 
L 104.109179 65.20296 
L 105.624563 62.68488 
L 107.139947 61.70448 
L 108.65533 61.06464 
L 110.170714 58.1028 
L 111.686098 58.40208 
L 113.201482 59.68176 
L 114.716866 62.6952 
L 116.232249 64.56312 
L 117.747633 63.18024 
L 119.263017 62.72616 
L 120.778401 62.06568 
L 122.293785 66.33816 
L 123.809168 71.40528 
L 125.324552 69.08328 
L 126.839936 71.7252 
L 128.35532 69.57864 
L 129.870704 70.72416 
L 131.386087 68.2164 
L 132.901471 66.978 
L 134.416855 70.03272 
L 135.932239 71.5188 
L 137.447623 73.3764 
L 138.963006 78.846 
L 140.47839 77.75208 
L 141.993774 78.88728 
L 143.509158 81.34344 
L 145.024542 80.53848 
L 146.539925 82.0452 
L 148.055309 86.92656 
L 149.570693 88.58808 
L 151.086077 88.96992 
L 152.60146 86.7924 
L 154.116844 85.296 
L 155.632228 86.24544 
L 157.147612 82.96368 
L 158.662996 82.13808 
L 160.178379 82.47864 
L 161.693763 82.58184 
L 163.209147 83.03592 
L 164.724531 87.3084 
L 166.239915 82.06584 
L 167.755298 79.71288 
L 169.270682 81.24024 
L 170.786066 84.17112 
L 172.30145 84.24336 
L 173.816834 83.29392 
L 175.332217 82.8192 
L 176.847601 80.64168 
L 178.362985 81.38472 
L 179.878369 80.87904 
L 181.393753 83.13912 
L 182.909136 83.19072 
L 184.42452 85.296 
L 185.939904 87.17424 
L 187.455288 85.71912 
L 188.970672 87.53544 
L 190.486055 88.17528 
L 192.001439 85.41984 
L 195.032207 84.9348 
L 196.547591 85.01736 
L 198.062974 86.14224 
L 199.578358 85.90488 
L 201.093742 86.328 
L 202.609126 86.24544 
L 204.12451 85.72944 
L 205.639893 85.7088 
L 207.155277 86.40024 
L 208.670661 85.09992 
L 210.186045 86.02872 
L 213.216812 83.53128 
L 216.24758 82.03488 
L 217.762964 79.39296 
L 219.278347 79.66128 
L 220.793731 82.15872 
L 222.309115 82.43736 
L 223.824499 82.93272 
L 225.339883 83.00496 
L 228.37065 82.28256 
L 229.886034 78.01008 
L 231.401418 76.19376 
L 232.916802 77.66952 
L 234.432185 77.74176 
L 235.947569 78.1752 
L 237.462953 79.5684 
L 238.978337 80.8068 
L 240.493721 85.20312 
L 242.009104 84.12984 
L 243.524488 84.03696 
L 245.039872 84.06792 
L 246.555256 84.3156 
L 248.07064 87.02976 
L 249.586023 85.21344 
L 251.101407 84.28464 
L 252.616791 84.32592 
L 254.132175 89.08344 
L 255.647559 89.5272 
L 257.162942 95.14128 
L 258.678326 96.98856 
L 260.19371 95.08968 
L 261.473034 97.71096 
L 262.677291 99.80592 
L 264.191903 101.79768 
L 265.700797 100.03296 
L 267.250821 100.518 
L 268.753699 99.98136 
L 270.27773 100.49736 
L 274.814831 101.26104 
L 276.311991 100.63152 
L 277.747414 100.38384 
L 279.36 100.84824 
L 279.36 100.84824 
" clip-path="url(#pf72f752e48)" style="fill: none; stroke: #f5841e; stroke-width: 0.6"/>
   </g>
  </g>
 </g>
 <defs>
  <clipPath id="pf72f752e48">
   <rect x="8.64" y="4.8" width="270.72" height="103.2"/>
  </clipPath>
 </defs>
</svg>
