<?xml version="1.0" encoding="utf-8" standalone="no"?>
<!DOCTYPE svg PUBLIC "-//W3C//DTD SVG 1.1//EN"
  "http://www.w3.org/Graphics/SVG/1.1/DTD/svg11.dtd">
<svg xmlns:xlink="http://www.w3.org/1999/xlink" width="288pt" height="120pt" viewBox="0 0 288 120" xmlns="http://www.w3.org/2000/svg" version="1.1">
<desc id="nav-meta">{"window":"1m","count":4,"labels":["25.06","05.07","14.07","24.07"],"tick_utc":["2026-06-25T04:50:14Z","2026-07-05T04:44:59Z","2026-07-14T03:47:28Z","2026-07-24T03:57:40Z"],"w":720,"h":300}</desc>

 <metadata>
  <rdf:RDF xmlns:dc="http://purl.org/dc/elements/1.1/" xmlns:cc="http://creativecommons.org/ns#" xmlns:rdf="http://www.w3.org/1999/02/22-rdf-syntax-ns#">
   <cc:Work>
    <dc:type rdf:resource="http://purl.org/dc/dcmitype/StillImage"/>
    <dc:date>2026-07-24T14:24:10.268942</dc:date>
    <dc:format>image/svg+xml</dc:format>
    <dc:creator>
     <cc:Agent>
      <dc:title>Matplotlib v3.11.1, https://matplotlib.org/</dc:title>
     </cc:Agent>
    </dc:creator>
   </cc:Work>
  </rdf:RDF>
 </metadata>
 <defs>
  <style type="text/css">*{stroke-linejoin: round; stroke-linecap: butt}</style>
 </defs>
 <g id="figure_1">
  <g id="patch_1">
   <path d="M 0 120 
L 288 120 
L 288 0 
L 0 0 
L 0 120 
z
" style="fill: none; opacity: 0"/>
  </g>
  <g id="axes_1">
   <g id="patch_2">
    <path d="M 8.64 108 
L 279.36 108 
L 279.36 4.8 
L 8.64 4.8 
L 8.64 108 
z
" style="fill: none"/>
   </g>
   <g id="matplotlib.axis_1"/>
   <g id="matplotlib.axis_2"/>
   <g id="line2d_1">
    <path d="M 8.64 87.36 
L 279.36 87.36 
" clip-path="url(#p942fc24ce0)" style="fill: none; stroke: #b2b2b2; stroke-opacity: 0.35; stroke-width: 0.5; stroke-linecap: square"/>
   </g>
   <g id="line2d_2">
    <path d="M 8.64 66.72 
L 279.36 66.72 
" clip-path="url(#p942fc24ce0)" style="fill: none; stroke: #b2b2b2; stroke-opacity: 0.35; stroke-width: 0.5; stroke-linecap: square"/>
   </g>
   <g id="line2d_3">
    <path d="M 8.64 46.08 
L 279.36 46.08 
" clip-path="url(#p942fc24ce0)" style="fill: none; stroke: #b2b2b2; stroke-opacity: 0.35; stroke-width: 0.5; stroke-linecap: square"/>
   </g>
   <g id="line2d_4">
    <path d="M 8.64 25.44 
L 279.36 25.44 
" clip-path="url(#p942fc24ce0)" style="fill: none; stroke: #b2b2b2; stroke-opacity: 0.35; stroke-width: 0.5; stroke-linecap: square"/>
   </g>
   <g id="line2d_5">
    <path d="M 8.64 103.36632 
L 18.034863 103.36632 
L 27.267236 102.81936 
L 36.79235 103.0464 
L 46.206902 102.9432 
L 55.372635 102.59232 
L 64.856316 102.40656 
L 74.039574 102.02472 
L 83.284821 101.68416 
L 92.591516 101.3436 
L 102.075304 101.6532 
L 111.512791 101.6532 
L 120.719525 101.63256 
L 129.812451 101.95248 
L 139.442719 102.08664 
L 148.768561 101.9112 
L 157.839527 102.066 
L 167.326236 102.18984 
L 176.693621 102.31368 
L 185.824411 102.45816 
L 195.173729 102.08664 
L 204.544035 102.21048 
L 213.892487 102.4272 
L 223.193232 102.4272 
L 232.680698 102.34464 
L 242.154426 102.25176 
L 251.330977 102.02472 
L 260.684731 102.066 
L 270.017389 102.10728 
L 279.36 102.34464 
" clip-path="url(#p942fc24ce0)" style="fill: none; stroke: #bebebe; stroke-width: 0.5; stroke-linecap: round"/>
   </g>
   <g id="line2d_6">
    <path d="M 8.64 95.48184 
L 18.034863 96.63768 
L 27.267236 96.14232 
L 36.79235 96.30744 
L 46.206902 96.29712 
L 55.372635 96.04944 
L 64.856316 95.9256 
L 74.039574 95.39928 
L 83.284821 94.31568 
L 92.591516 93.57264 
L 102.075304 93.32496 
L 111.512791 93.22176 
L 120.719525 93.35592 
L 129.812451 93.61392 
L 139.442719 93.77904 
L 148.768561 93.26304 
L 157.839527 92.92248 
L 167.326236 92.71608 
L 176.693621 93.15984 
L 185.824411 93.17016 
L 195.173729 91.80792 
L 204.544035 91.14744 
L 213.892487 92.13816 
L 223.193232 92.25168 
L 232.680698 91.9008 
L 242.154426 91.81824 
L 251.330977 91.00296 
L 260.684731 90.98232 
L 270.017389 91.10616 
L 279.36 91.6944 
" clip-path="url(#p942fc24ce0)" style="fill: none; stroke: #4a8dff; stroke-width: 0.6"/>
   </g>
   <g id="line2d_7">
    <path d="M 8.64 102.6336 
L 18.034863 102.88128 
L 27.267236 102.77808 
L 36.79235 102.85032 
L 46.206902 102.93288 
L 55.372635 102.95352 
L 64.856316 103.00512 
L 74.039574 102.69552 
L 83.284821 102.55104 
L 92.591516 102.2724 
L 102.075304 102.21048 
L 111.512791 102.12792 
L 120.719525 102.13824 
L 129.812451 102.25176 
L 139.442719 102.36528 
L 148.768561 101.94216 
L 157.839527 101.92152 
L 167.326236 101.9112 
L 176.693621 102.2208 
L 185.824411 102.31368 
L 195.173729 101.79768 
L 204.544035 101.81832 
L 213.892487 102.07632 
L 223.193232 101.97312 
L 232.680698 101.79768 
L 242.154426 101.78736 
L 251.330977 101.57064 
L 260.684731 101.40552 
L 270.017389 101.55 
L 279.36 101.6016 
" clip-path="url(#p942fc24ce0)" style="fill: none; stroke: #f5841e; stroke-width: 0.6"/>
   </g>
  </g>
 </g>
 <defs>
  <clipPath id="p942fc24ce0">
   <rect x="8.64" y="4.8" width="270.72" height="103.2"/>
  </clipPath>
 </defs>
</svg>
