<?xml version="1.0" encoding="utf-8" standalone="no"?>
<!DOCTYPE svg PUBLIC "-//W3C//DTD SVG 1.1//EN"
  "http://www.w3.org/Graphics/SVG/1.1/DTD/svg11.dtd">
<svg xmlns:xlink="http://www.w3.org/1999/xlink" width="288pt" height="120pt" viewBox="0 0 288 120" xmlns="http://www.w3.org/2000/svg" version="1.1">
<desc id="nav-meta">{"window":"3m","count":4,"labels":["01.02","03.03","02.04","02.05"],"tick_utc":["2026-02-01T12:00:00Z","2026-03-03T03:22:17Z","2026-04-02T03:35:34Z","2026-05-02T04:02:31Z"],"w":720,"h":300}</desc>

 <metadata>
  <rdf:RDF xmlns:dc="http://purl.org/dc/elements/1.1/" xmlns:cc="http://creativecommons.org/ns#" xmlns:rdf="http://www.w3.org/1999/02/22-rdf-syntax-ns#">
   <cc:Work>
    <dc:type rdf:resource="http://purl.org/dc/dcmitype/StillImage"/>
    <dc:date>2026-05-02T04:02:34.570900</dc:date>
    <dc:format>image/svg+xml</dc:format>
    <dc:creator>
     <cc:Agent>
      <dc:title>Matplotlib v3.10.9, https://matplotlib.org/</dc:title>
     </cc:Agent>
    </dc:creator>
   </cc:Work>
  </rdf:RDF>
 </metadata>
 <defs>
  <style type="text/css">*{stroke-linejoin: round; stroke-linecap: butt}</style>
 </defs>
 <g id="figure_1">
  <g id="patch_1">
   <path d="M 0 120 
L 288 120 
L 288 0 
L 0 0 
L 0 120 
z
" style="fill: none; opacity: 0"/>
  </g>
  <g id="axes_1">
   <g id="patch_2">
    <path d="M 8.64 108 
L 279.36 108 
L 279.36 4.8 
L 8.64 4.8 
L 8.64 108 
z
" style="fill: none"/>
   </g>
   <g id="matplotlib.axis_1"/>
   <g id="matplotlib.axis_2"/>
   <g id="line2d_1">
    <path d="M 8.64 87.36 
L 279.36 87.36 
" clip-path="url(#p36e1575a17)" style="fill: none; stroke: #b2b2b2; stroke-opacity: 0.35; stroke-width: 0.5; stroke-linecap: square"/>
   </g>
   <g id="line2d_2">
    <path d="M 8.64 66.72 
L 279.36 66.72 
" clip-path="url(#p36e1575a17)" style="fill: none; stroke: #b2b2b2; stroke-opacity: 0.35; stroke-width: 0.5; stroke-linecap: square"/>
   </g>
   <g id="line2d_3">
    <path d="M 8.64 46.08 
L 279.36 46.08 
" clip-path="url(#p36e1575a17)" style="fill: none; stroke: #b2b2b2; stroke-opacity: 0.35; stroke-width: 0.5; stroke-linecap: square"/>
   </g>
   <g id="line2d_4">
    <path d="M 8.64 25.44 
L 279.36 25.44 
" clip-path="url(#p36e1575a17)" style="fill: none; stroke: #b2b2b2; stroke-opacity: 0.35; stroke-width: 0.5; stroke-linecap: square"/>
   </g>
   <g id="line2d_5">
    <path d="M 8.64 97.71096 
L 11.659123 98.48496 
L 14.678247 97.85544 
L 17.227065 99.10416 
L 19.626324 100.16712 
L 22.64391 102.23112 
L 25.650104 100.54896 
L 28.738241 100.70376 
L 31.73245 100.68312 
L 34.7688 100.95144 
L 37.781668 101.28168 
L 40.789924 101.71512 
L 43.808139 101.84928 
L 46.790956 101.034 
L 49.650772 100.54896 
L 52.863552 101.04432 
L 55.503433 100.81728 
L 58.897012 101.034 
L 61.912466 101.4984 
L 64.913943 101.33328 
L 67.914616 101.1372 
L 70.968228 101.06496 
L 73.996437 102.09696 
L 76.760507 102.05568 
L 80.023816 101.4984 
L 83.029486 100.60056 
L 86.042879 100.80696 
L 89.026429 101.45712 
L 92.114147 100.55928 
L 95.102101 101.10624 
L 98.128248 100.8792 
L 101.130458 100.74504 
L 104.156081 100.21872 
L 107.173772 100.53864 
L 110.169727 101.07528 
L 113.218168 101.38488 
L 116.246342 101.26104 
L 119.246072 100.78632 
L 122.264007 100.91016 
L 125.295011 100.99272 
L 128.308299 100.38384 
L 131.323404 100.50768 
L 134.400289 100.60056 
L 137.427938 99.76464 
L 140.394227 99.49632 
L 143.436378 99.40344 
L 146.45634 100.09488 
L 149.446076 100.3632 
L 152.447518 100.19808 
L 155.511788 100.47672 
L 158.538005 100.79664 
L 161.529173 100.26 
L 164.773158 99.83688 
L 167.604146 100.13616 
L 170.627078 100.80696 
L 173.617338 101.38488 
L 176.677589 101.3436 
L 179.705344 101.292 
L 182.705423 101.28168 
L 185.750439 101.28168 
L 188.729797 101.8596 
L 191.75238 101.88024 
L 194.745645 101.72544 
L 197.81023 101.68416 
L 200.837145 101.47776 
L 203.836665 101.78736 
L 206.860681 101.09592 
L 209.869286 101.46744 
L 212.916189 101.3436 
L 215.889152 101.05464 
L 218.962438 101.3952 
L 221.997041 101.47776 
L 224.996946 100.86888 
L 228.013763 101.26104 
L 231.045955 100.99272 
L 234.058928 100.61088 
L 237.04475 100.44576 
L 240.103744 100.94112 
L 243.130346 101.09592 
L 246.136225 101.00304 
L 249.145984 100.69344 
L 252.177337 100.9308 
L 255.204463 100.92048 
L 258.187559 100.81728 
L 261.253647 100.8792 
L 264.305302 100.64184 
L 267.33075 101.1888 
L 270.341627 101.09592 
L 273.365817 101.37456 
L 276.417927 101.21976 
L 279.36 101.20944 
" clip-path="url(#p36e1575a17)" style="fill: none; stroke: #bebebe; stroke-width: 0.5; stroke-linecap: round"/>
   </g>
   <g id="line2d_6">
    <path d="M 8.64 83.31456 
L 11.659123 85.90488 
L 14.678247 84.79032 
L 17.227065 85.84296 
L 19.626324 88.25784 
L 22.64391 91.41576 
L 25.650104 88.7532 
L 28.738241 88.65 
L 31.73245 88.55712 
L 34.7688 88.96992 
L 37.781668 89.7336 
L 40.789924 90.456 
L 43.808139 90.56952 
L 46.790956 89.15568 
L 49.650772 88.9596 
L 52.863552 90.6624 
L 55.503433 89.94 
L 58.897012 90.00192 
L 61.912466 90.3528 
L 64.913943 90.62112 
L 67.914616 90.5076 
L 70.968228 90.3528 
L 73.996437 92.004 
L 76.760507 92.13816 
L 80.023816 91.25064 
L 83.029486 89.166 
L 86.042879 89.56848 
L 89.026429 90.93072 
L 92.114147 89.41368 
L 95.102101 90.37344 
L 98.128248 89.79552 
L 101.130458 90.23928 
L 104.156081 88.0824 
L 107.173772 88.7532 
L 110.169727 90.16704 
L 113.218168 90.67272 
L 116.246342 90.18768 
L 119.246072 89.2692 
L 122.264007 89.54784 
L 125.295011 89.49624 
L 128.308299 88.31976 
L 131.323404 88.45392 
L 134.400289 88.46424 
L 137.427938 86.38992 
L 140.394227 84.80064 
L 143.436378 84.8316 
L 146.45634 86.586 
L 149.446076 87.74184 
L 152.447518 87.618 
L 155.511788 88.19592 
L 158.538005 89.08344 
L 161.529173 87.89664 
L 164.773158 87.3084 
L 167.604146 87.65928 
L 170.627078 88.96992 
L 173.617338 90.07416 
L 176.677589 89.76456 
L 179.705344 89.3724 
L 182.705423 89.00088 
L 185.750439 88.42296 
L 188.729797 88.81512 
L 191.75238 89.10408 
L 194.745645 89.14536 
L 197.81023 89.07312 
L 200.837145 87.9792 
L 203.836665 88.29912 
L 206.860681 86.38992 
L 209.869286 87.24648 
L 212.916189 87.1536 
L 215.889152 86.21448 
L 218.962438 86.66856 
L 221.997041 87.01944 
L 224.996946 84.44976 
L 228.013763 85.05864 
L 231.045955 84.58392 
L 234.058928 85.04832 
L 237.04475 83.71704 
L 240.103744 84.86256 
L 243.130346 85.6572 
L 246.136225 85.27536 
L 249.145984 84.49104 
L 252.177337 84.86256 
L 255.204463 85.32696 
L 258.187559 85.17216 
L 261.253647 85.31664 
L 264.305302 84.11952 
L 267.33075 85.66752 
L 270.341627 85.26504 
L 273.365817 86.26608 
L 276.417927 85.77072 
L 279.36 85.38888 
" clip-path="url(#p36e1575a17)" style="fill: none; stroke: #4a8dff; stroke-width: 0.6"/>
   </g>
   <g id="line2d_7">
    <path d="M 8.64 95.14128 
L 11.659123 96.98856 
L 14.678247 95.08968 
L 17.227065 97.71096 
L 19.626324 99.80592 
L 22.64391 101.79768 
L 25.650104 100.03296 
L 28.738241 100.518 
L 31.73245 99.98136 
L 34.7688 100.49736 
L 37.781668 100.78632 
L 40.789924 101.07528 
L 43.808139 101.26104 
L 46.790956 100.63152 
L 49.650772 100.38384 
L 52.863552 100.84824 
L 55.503433 100.65216 
L 58.897012 101.034 
L 61.912466 101.19912 
L 64.913943 101.10624 
L 67.914616 100.97208 
L 70.968228 100.91016 
L 73.996437 101.7564 
L 76.760507 101.84928 
L 80.023816 101.56032 
L 83.029486 100.85856 
L 86.042879 101.12688 
L 89.026429 101.4468 
L 92.114147 101.02368 
L 95.102101 101.30232 
L 98.128248 100.81728 
L 101.130458 100.79664 
L 104.156081 99.3312 
L 107.173772 99.92976 
L 110.169727 100.78632 
L 113.218168 101.17848 
L 116.246342 101.1372 
L 119.246072 100.21872 
L 122.264007 100.37352 
L 125.295011 100.4664 
L 128.308299 99.88848 
L 131.323404 99.94008 
L 134.400289 99.81624 
L 137.427938 98.93904 
L 140.394227 98.3508 
L 143.436378 98.52624 
L 146.45634 99.78528 
L 149.446076 100.12584 
L 152.447518 100.03296 
L 155.511788 100.45608 
L 158.538005 100.83792 
L 161.529173 100.11552 
L 164.773158 99.87816 
L 167.604146 100.002 
L 170.627078 100.64184 
L 173.617338 101.41584 
L 176.677589 101.21976 
L 179.705344 101.14752 
L 182.705423 101.00304 
L 185.750439 100.86888 
L 188.729797 101.21976 
L 191.75238 101.28168 
L 194.745645 101.20944 
L 197.81023 101.14752 
L 200.837145 100.55928 
L 203.836665 100.65216 
L 206.860681 99.80592 
L 209.869286 99.96072 
L 212.916189 99.6408 
L 215.889152 99.1764 
L 218.962438 99.70272 
L 221.997041 99.94008 
L 224.996946 98.57784 
L 228.013763 98.65008 
L 231.045955 98.38176 
L 234.058928 98.48496 
L 237.04475 96.70992 
L 240.103744 98.05152 
L 243.130346 98.48496 
L 246.136225 97.96896 
L 249.145984 96.32808 
L 252.177337 96.20424 
L 255.204463 96.16296 
L 258.187559 96.1836 
L 261.253647 96.50352 
L 264.305302 94.76976 
L 267.33075 97.19496 
L 270.341627 96.9576 
L 273.365817 97.9896 
L 276.417927 96.89568 
L 279.36 95.45088 
" clip-path="url(#p36e1575a17)" style="fill: none; stroke: #f5841e; stroke-width: 0.6"/>
   </g>
  </g>
 </g>
 <defs>
  <clipPath id="p36e1575a17">
   <rect x="8.64" y="4.8" width="270.72" height="103.2"/>
  </clipPath>
 </defs>
</svg>
