<?xml version="1.0" encoding="utf-8" standalone="no"?>
<!DOCTYPE svg PUBLIC "-//W3C//DTD SVG 1.1//EN"
  "http://www.w3.org/Graphics/SVG/1.1/DTD/svg11.dtd">
<svg xmlns:xlink="http://www.w3.org/1999/xlink" width="288pt" height="120pt" viewBox="0 0 288 120" xmlns="http://www.w3.org/2000/svg" version="1.1">
<desc id="nav-meta">{"window":"3m","count":4,"labels":["12.03","11.04","10.05","09.06"],"tick_utc":["2026-03-12T03:19:44Z","2026-04-11T03:29:29Z","2026-05-10T04:35:36Z","2026-06-09T04:50:50Z"],"w":720,"h":300}</desc>

 <metadata>
  <rdf:RDF xmlns:dc="http://purl.org/dc/elements/1.1/" xmlns:cc="http://creativecommons.org/ns#" xmlns:rdf="http://www.w3.org/1999/02/22-rdf-syntax-ns#">
   <cc:Work>
    <dc:type rdf:resource="http://purl.org/dc/dcmitype/StillImage"/>
    <dc:date>2026-06-09T20:35:09.034007</dc:date>
    <dc:format>image/svg+xml</dc:format>
    <dc:creator>
     <cc:Agent>
      <dc:title>Matplotlib v3.10.9, https://matplotlib.org/</dc:title>
     </cc:Agent>
    </dc:creator>
   </cc:Work>
  </rdf:RDF>
 </metadata>
 <defs>
  <style type="text/css">*{stroke-linejoin: round; stroke-linecap: butt}</style>
 </defs>
 <g id="figure_1">
  <g id="patch_1">
   <path d="M 0 120 
L 288 120 
L 288 0 
L 0 0 
L 0 120 
z
" style="fill: none; opacity: 0"/>
  </g>
  <g id="axes_1">
   <g id="patch_2">
    <path d="M 8.64 108 
L 279.36 108 
L 279.36 4.8 
L 8.64 4.8 
L 8.64 108 
z
" style="fill: none"/>
   </g>
   <g id="matplotlib.axis_1"/>
   <g id="matplotlib.axis_2"/>
   <g id="line2d_1">
    <path d="M 8.64 87.36 
L 279.36 87.36 
" clip-path="url(#pa37494fba0)" style="fill: none; stroke: #b2b2b2; stroke-opacity: 0.35; stroke-width: 0.5; stroke-linecap: square"/>
   </g>
   <g id="line2d_2">
    <path d="M 8.64 66.72 
L 279.36 66.72 
" clip-path="url(#pa37494fba0)" style="fill: none; stroke: #b2b2b2; stroke-opacity: 0.35; stroke-width: 0.5; stroke-linecap: square"/>
   </g>
   <g id="line2d_3">
    <path d="M 8.64 46.08 
L 279.36 46.08 
" clip-path="url(#pa37494fba0)" style="fill: none; stroke: #b2b2b2; stroke-opacity: 0.35; stroke-width: 0.5; stroke-linecap: square"/>
   </g>
   <g id="line2d_4">
    <path d="M 8.64 25.44 
L 279.36 25.44 
" clip-path="url(#pa37494fba0)" style="fill: none; stroke: #b2b2b2; stroke-opacity: 0.35; stroke-width: 0.5; stroke-linecap: square"/>
   </g>
   <g id="line2d_5">
    <path d="M 8.64 100.99272 
L 11.673762 100.38384 
L 14.709353 100.50768 
L 17.807144 100.60056 
L 20.855366 99.76464 
L 23.841809 99.49632 
L 26.90463 99.40344 
L 29.945112 100.09488 
L 32.955162 100.3632 
L 35.976997 100.19808 
L 39.062088 100.47672 
L 42.108867 100.79664 
L 45.120359 100.26 
L 48.386386 99.83688 
L 51.236609 100.13616 
L 54.28008 100.80696 
L 57.290658 101.38488 
L 60.371703 101.3436 
L 63.42003 101.292 
L 66.440493 101.28168 
L 69.5062 101.28168 
L 72.505801 101.8596 
L 75.548921 101.88024 
L 78.562524 101.72544 
L 81.647931 101.68416 
L 84.695414 101.47776 
L 87.715314 101.78736 
L 90.759877 101.09592 
L 93.788925 101.46744 
L 96.85653 101.3436 
L 99.849693 101.05464 
L 102.943861 101.3952 
L 105.999083 101.47776 
L 109.019371 100.86888 
L 112.056686 101.26104 
L 115.109481 100.99272 
L 118.142926 100.61088 
L 121.149036 100.44576 
L 124.228814 100.94112 
L 127.27598 101.09592 
L 130.302284 101.00304 
L 133.332492 100.69344 
L 136.384443 100.9308 
L 139.432136 100.92048 
L 142.435502 100.81728 
L 145.522422 100.8792 
L 148.594813 100.64184 
L 151.640817 101.1888 
L 154.672152 101.09592 
L 157.71689 101.37456 
L 160.789738 101.21976 
L 163.751801 101.20944 
L 166.853146 101.23008 
L 169.891727 100.92048 
L 172.864415 101.06496 
L 175.957597 100.70376 
L 178.998044 100.55928 
L 181.987091 100.53864 
L 185.037845 99.60984 
L 188.138732 99.72336 
L 191.202362 99.44472 
L 194.199782 99.25896 
L 197.253879 99.32088 
L 200.290139 100.22904 
L 203.344763 100.01232 
L 206.345595 100.43544 
L 209.430616 100.75536 
L 212.49977 101.02368 
L 215.51763 101.02368 
L 218.568138 101.17848 
L 221.625084 100.7244 
L 224.641431 100.75536 
L 227.639308 101.11656 
L 230.727073 100.91016 
L 233.806711 100.89984 
L 236.800296 101.1372 
L 239.871139 101.2404 
L 242.901066 101.6532 
L 245.942955 101.4984 
L 248.938756 101.48808 
L 252.040453 101.32296 
L 255.125051 101.51904 
L 258.134784 101.7048 
L 261.208617 102.54072 
L 264.237841 103.08768 
L 267.227415 103.36632 
L 270.220332 104.22288 
L 273.3253 103.85136 
L 276.378376 103.68624 
L 279.36 103.43856 
" clip-path="url(#pa37494fba0)" style="fill: none; stroke: #bebebe; stroke-width: 0.5; stroke-linecap: round"/>
   </g>
   <g id="line2d_6">
    <path d="M 8.64 89.49624 
L 11.673762 88.31976 
L 14.709353 88.45392 
L 17.807144 88.46424 
L 20.855366 86.38992 
L 23.841809 84.80064 
L 26.90463 84.8316 
L 29.945112 86.586 
L 32.955162 87.74184 
L 35.976997 87.618 
L 39.062088 88.19592 
L 42.108867 89.08344 
L 45.120359 87.89664 
L 48.386386 87.3084 
L 51.236609 87.65928 
L 54.28008 88.96992 
L 57.290658 90.07416 
L 60.371703 89.76456 
L 63.42003 89.3724 
L 66.440493 89.00088 
L 69.5062 88.42296 
L 72.505801 88.81512 
L 75.548921 89.10408 
L 78.562524 89.14536 
L 81.647931 89.07312 
L 84.695414 87.9792 
L 87.715314 88.29912 
L 90.759877 86.38992 
L 93.788925 87.24648 
L 96.85653 87.1536 
L 99.849693 86.21448 
L 102.943861 86.66856 
L 105.999083 87.01944 
L 109.019371 84.44976 
L 112.056686 85.05864 
L 115.109481 84.58392 
L 118.142926 85.04832 
L 121.149036 83.71704 
L 124.228814 84.86256 
L 127.27598 85.6572 
L 130.302284 85.27536 
L 133.332492 84.49104 
L 136.384443 84.86256 
L 139.432136 85.32696 
L 142.435502 85.17216 
L 145.522422 85.31664 
L 148.594813 84.11952 
L 151.640817 85.66752 
L 154.672152 85.26504 
L 157.71689 86.26608 
L 160.789738 85.77072 
L 163.751801 85.38888 
L 166.853146 85.3992 
L 169.891727 84.09888 
L 172.864415 84.22272 
L 175.957597 84.34656 
L 178.998044 85.06896 
L 181.987091 85.7604 
L 185.037845 85.0896 
L 188.138732 85.01736 
L 191.202362 84.9348 
L 194.199782 85.296 
L 197.253879 85.35792 
L 200.290139 86.1732 
L 203.344763 85.92552 
L 206.345595 86.55504 
L 209.430616 87.13296 
L 212.49977 88.10304 
L 215.51763 87.9276 
L 218.568138 88.26816 
L 221.625084 87.78312 
L 224.641431 87.95856 
L 227.639308 88.94928 
L 230.727073 88.14432 
L 233.806711 88.33008 
L 236.800296 88.52616 
L 239.871139 88.86672 
L 242.901066 90.22896 
L 245.942955 89.82648 
L 248.938756 89.87808 
L 252.040453 89.46528 
L 255.125051 90.0432 
L 258.134784 89.96064 
L 261.208617 91.99368 
L 264.237841 93.05664 
L 267.227415 93.74808 
L 270.220332 97.02984 
L 273.3253 95.93592 
L 276.378376 95.07936 
L 279.36 94.46016 
" clip-path="url(#pa37494fba0)" style="fill: none; stroke: #4a8dff; stroke-width: 0.6"/>
   </g>
   <g id="line2d_7">
    <path d="M 8.64 100.4664 
L 11.673762 99.88848 
L 14.709353 99.94008 
L 17.807144 99.81624 
L 20.855366 98.93904 
L 23.841809 98.3508 
L 26.90463 98.52624 
L 29.945112 99.78528 
L 32.955162 100.12584 
L 35.976997 100.03296 
L 39.062088 100.45608 
L 42.108867 100.83792 
L 45.120359 100.11552 
L 48.386386 99.87816 
L 51.236609 100.002 
L 54.28008 100.64184 
L 57.290658 101.41584 
L 60.371703 101.21976 
L 63.42003 101.14752 
L 66.440493 101.00304 
L 69.5062 100.86888 
L 72.505801 101.21976 
L 75.548921 101.28168 
L 78.562524 101.20944 
L 81.647931 101.14752 
L 84.695414 100.55928 
L 87.715314 100.65216 
L 90.759877 99.80592 
L 93.788925 99.96072 
L 96.85653 99.6408 
L 99.849693 99.1764 
L 102.943861 99.70272 
L 105.999083 99.94008 
L 109.019371 98.57784 
L 112.056686 98.65008 
L 115.109481 98.38176 
L 118.142926 98.48496 
L 121.149036 96.70992 
L 124.228814 98.05152 
L 127.27598 98.48496 
L 130.302284 97.96896 
L 133.332492 96.32808 
L 136.384443 96.20424 
L 139.432136 96.16296 
L 142.435502 96.1836 
L 145.522422 96.50352 
L 148.594813 94.76976 
L 151.640817 97.19496 
L 154.672152 96.9576 
L 157.71689 97.9896 
L 160.789738 96.89568 
L 163.751801 95.45088 
L 166.853146 95.67792 
L 169.891727 93.43848 
L 172.864415 92.90184 
L 175.957597 92.25168 
L 178.998044 92.87088 
L 181.987091 94.2744 
L 185.037845 93.1392 
L 188.138732 92.97408 
L 191.202362 92.9844 
L 194.199782 92.60256 
L 197.253879 92.53032 
L 200.290139 94.54272 
L 203.344763 92.85024 
L 206.345595 94.82136 
L 209.430616 95.75016 
L 212.49977 96.97824 
L 215.51763 97.08144 
L 218.568138 97.23624 
L 221.625084 95.94624 
L 224.641431 96.30744 
L 227.639308 98.08248 
L 230.727073 97.2672 
L 233.806711 96.61704 
L 236.800296 97.23624 
L 239.871139 98.08248 
L 242.901066 99.18672 
L 245.942955 99.03192 
L 248.938756 99.1248 
L 252.040453 98.74296 
L 255.125051 99.09384 
L 258.134784 100.0536 
L 261.208617 101.23008 
L 264.237841 101.99376 
L 267.227415 102.08664 
L 270.220332 102.8916 
L 273.3253 102.45816 
L 276.378376 102.28272 
L 279.36 102.10728 
" clip-path="url(#pa37494fba0)" style="fill: none; stroke: #f5841e; stroke-width: 0.6"/>
   </g>
  </g>
 </g>
 <defs>
  <clipPath id="pa37494fba0">
   <rect x="8.64" y="4.8" width="270.72" height="103.2"/>
  </clipPath>
 </defs>
</svg>
