<?xml version="1.0" encoding="utf-8" standalone="no"?>
<!DOCTYPE svg PUBLIC "-//W3C//DTD SVG 1.1//EN"
  "http://www.w3.org/Graphics/SVG/1.1/DTD/svg11.dtd">
<svg xmlns:xlink="http://www.w3.org/1999/xlink" width="288pt" height="120pt" viewBox="0 0 288 120" xmlns="http://www.w3.org/2000/svg" version="1.1">
<desc id="nav-meta">{"window":"3m","count":4,"labels":["07.12","06.01","04.02","06.03"],"tick_utc":["2025-12-07T12:00:00Z","2026-01-06T12:00:00Z","2026-02-04T08:15:41Z","2026-03-06T03:16:38Z"],"w":720,"h":300}</desc>

 <metadata>
  <rdf:RDF xmlns:dc="http://purl.org/dc/elements/1.1/" xmlns:cc="http://creativecommons.org/ns#" xmlns:rdf="http://www.w3.org/1999/02/22-rdf-syntax-ns#">
   <cc:Work>
    <dc:type rdf:resource="http://purl.org/dc/dcmitype/StillImage"/>
    <dc:date>2026-03-06T19:22:28.825723</dc:date>
    <dc:format>image/svg+xml</dc:format>
    <dc:creator>
     <cc:Agent>
      <dc:title>Matplotlib v3.10.8, https://matplotlib.org/</dc:title>
     </cc:Agent>
    </dc:creator>
   </cc:Work>
  </rdf:RDF>
 </metadata>
 <defs>
  <style type="text/css">*{stroke-linejoin: round; stroke-linecap: butt}</style>
 </defs>
 <g id="figure_1">
  <g id="patch_1">
   <path d="M 0 120 
L 288 120 
L 288 0 
L 0 0 
L 0 120 
z
" style="fill: none; opacity: 0"/>
  </g>
  <g id="axes_1">
   <g id="patch_2">
    <path d="M 8.64 108 
L 279.36 108 
L 279.36 4.8 
L 8.64 4.8 
L 8.64 108 
z
" style="fill: none"/>
   </g>
   <g id="matplotlib.axis_1"/>
   <g id="matplotlib.axis_2"/>
   <g id="line2d_1">
    <path d="M 8.64 87.36 
L 279.36 87.36 
" clip-path="url(#p63876bd769)" style="fill: none; stroke: #b2b2b2; stroke-opacity: 0.35; stroke-width: 0.5; stroke-linecap: square"/>
   </g>
   <g id="line2d_2">
    <path d="M 8.64 66.72 
L 279.36 66.72 
" clip-path="url(#p63876bd769)" style="fill: none; stroke: #b2b2b2; stroke-opacity: 0.35; stroke-width: 0.5; stroke-linecap: square"/>
   </g>
   <g id="line2d_3">
    <path d="M 8.64 46.08 
L 279.36 46.08 
" clip-path="url(#p63876bd769)" style="fill: none; stroke: #b2b2b2; stroke-opacity: 0.35; stroke-width: 0.5; stroke-linecap: square"/>
   </g>
   <g id="line2d_4">
    <path d="M 8.64 25.44 
L 279.36 25.44 
" clip-path="url(#p63876bd769)" style="fill: none; stroke: #b2b2b2; stroke-opacity: 0.35; stroke-width: 0.5; stroke-linecap: square"/>
   </g>
   <g id="line2d_5">
    <path d="M 8.64 90.38376 
L 11.69427 90.53856 
L 14.748541 90.08448 
L 17.802811 88.79448 
L 20.857082 89.20728 
L 23.911352 89.22792 
L 26.965623 90.31152 
L 30.019893 90.10512 
L 33.074164 91.09584 
L 36.128434 91.61184 
L 39.182705 91.31256 
L 42.236975 92.87088 
L 45.291246 93.8616 
L 48.345516 92.02464 
L 51.399787 92.13816 
L 54.454057 92.07624 
L 57.508328 92.14848 
L 60.562598 92.64384 
L 63.616868 93.01536 
L 66.671139 93.69648 
L 69.725409 93.11856 
L 72.77968 92.44776 
L 75.83395 92.30328 
L 78.888221 92.87088 
L 81.942491 92.38584 
L 84.996762 92.47872 
L 88.051032 91.88016 
L 91.105303 90.42504 
L 94.159573 90.08448 
L 97.213844 89.92968 
L 100.268114 88.76352 
L 103.322385 87.94824 
L 106.376655 89.2692 
L 109.430925 88.72224 
L 112.485196 89.39304 
L 115.539466 89.40336 
L 118.593737 88.41264 
L 121.648007 88.4952 
L 124.702278 86.86464 
L 127.756548 86.42088 
L 130.810819 87.62832 
L 133.865089 86.93688 
L 136.91936 87.23616 
L 139.97363 88.63968 
L 143.027901 90.0432 
L 146.082171 92.12784 
L 149.136442 91.16808 
L 152.190712 91.46736 
L 155.244983 91.73568 
L 158.299253 91.78728 
L 161.353523 94.0164 
L 164.407794 92.5716 
L 167.462064 91.76664 
L 170.516335 92.33424 
L 173.570605 94.36728 
L 176.624876 94.46016 
L 179.679146 97.71096 
L 182.733417 98.48496 
L 185.787687 97.85544 
L 188.366177 99.10416 
L 190.793368 100.16712 
L 193.846083 102.23112 
L 196.887274 100.54896 
L 200.011361 100.70376 
L 203.040427 100.68312 
L 206.112125 100.95144 
L 209.160068 101.28168 
L 212.203344 101.71512 
L 215.256696 101.84928 
L 218.274237 101.034 
L 221.167345 100.54896 
L 224.417527 101.04432 
L 227.088141 100.81728 
L 230.521225 101.034 
L 233.571784 101.4984 
L 236.608203 101.33328 
L 239.643808 101.1372 
L 242.732969 101.06496 
L 245.796431 102.09696 
L 248.592679 102.05568 
L 251.893978 101.4984 
L 254.934638 100.60056 
L 257.983111 100.80696 
L 261.001395 101.45712 
L 264.125059 100.55928 
L 267.147796 101.10624 
L 270.209172 100.8792 
L 273.246333 100.74504 
L 276.307179 100.21872 
L 279.36 100.53864 
" clip-path="url(#p63876bd769)" style="fill: none; stroke: #bebebe; stroke-width: 0.5; stroke-linecap: round"/>
   </g>
   <g id="line2d_6">
    <path d="M 8.64 74.48064 
L 11.69427 74.28456 
L 14.748541 73.21128 
L 17.802811 70.2804 
L 20.857082 70.2288 
L 23.911352 71.56008 
L 26.965623 73.79952 
L 30.019893 73.35576 
L 33.074164 74.0988 
L 36.128434 75.5952 
L 39.182705 75.5952 
L 42.236975 77.61792 
L 45.291246 77.63856 
L 48.345516 75.40944 
L 51.399787 75.40944 
L 54.454057 75.04824 
L 57.508328 74.98632 
L 60.562598 75.58488 
L 63.616868 75.87384 
L 66.671139 76.49304 
L 69.725409 76.15248 
L 72.77968 75.82224 
L 75.83395 75.84288 
L 78.888221 76.03896 
L 81.942491 75.51264 
L 84.996762 75.56424 
L 88.051032 75.05856 
L 91.105303 73.26288 
L 94.159573 73.20096 
L 97.213844 73.00488 
L 100.268114 71.68392 
L 103.322385 70.6932 
L 106.376655 72.62304 
L 109.430925 73.52088 
L 112.485196 73.83048 
L 115.539466 73.8408 
L 118.593737 73.29384 
L 121.648007 73.72728 
L 124.702278 70.32168 
L 127.756548 69.77472 
L 130.810819 70.34232 
L 133.865089 70.67256 
L 136.91936 70.51776 
L 139.97363 70.848 
L 143.027901 72.31344 
L 146.082171 76.01832 
L 149.136442 75.41976 
L 152.190712 75.83256 
L 155.244983 75.79128 
L 158.299253 75.82224 
L 161.353523 77.82432 
L 164.407794 76.14216 
L 167.462064 74.75928 
L 170.516335 74.96568 
L 173.570605 77.75208 
L 176.624876 79.48584 
L 179.679146 83.31456 
L 182.733417 85.90488 
L 185.787687 84.79032 
L 188.366177 85.84296 
L 190.793368 88.25784 
L 193.846083 91.41576 
L 196.887274 88.7532 
L 200.011361 88.65 
L 203.040427 88.55712 
L 206.112125 88.96992 
L 209.160068 89.7336 
L 212.203344 90.456 
L 215.256696 90.56952 
L 218.274237 89.15568 
L 221.167345 88.9596 
L 224.417527 90.6624 
L 227.088141 89.94 
L 230.521225 90.00192 
L 233.571784 90.3528 
L 236.608203 90.62112 
L 239.643808 90.5076 
L 242.732969 90.3528 
L 245.796431 92.004 
L 248.592679 92.13816 
L 251.893978 91.25064 
L 254.934638 89.166 
L 257.983111 89.56848 
L 261.001395 90.93072 
L 264.125059 89.41368 
L 267.147796 90.37344 
L 270.209172 89.79552 
L 273.246333 90.23928 
L 276.307179 88.0824 
L 279.36 88.7532 
" clip-path="url(#p63876bd769)" style="fill: none; stroke: #4a8dff; stroke-width: 0.6"/>
   </g>
   <g id="line2d_7">
    <path d="M 8.64 84.24336 
L 11.69427 83.29392 
L 14.748541 82.8192 
L 17.802811 80.64168 
L 20.857082 81.38472 
L 23.911352 80.87904 
L 26.965623 83.13912 
L 30.019893 83.19072 
L 33.074164 85.296 
L 36.128434 87.17424 
L 39.182705 85.71912 
L 42.236975 87.53544 
L 45.291246 88.17528 
L 48.345516 85.41984 
L 51.399787 85.17216 
L 54.454057 84.9348 
L 57.508328 85.01736 
L 60.562598 86.14224 
L 63.616868 85.90488 
L 66.671139 86.328 
L 69.725409 86.24544 
L 72.77968 85.72944 
L 75.83395 85.7088 
L 78.888221 86.40024 
L 81.942491 85.09992 
L 84.996762 86.02872 
L 88.051032 84.78 
L 91.105303 83.53128 
L 94.159573 82.83984 
L 97.213844 82.03488 
L 100.268114 79.39296 
L 103.322385 79.66128 
L 106.376655 82.15872 
L 109.430925 82.43736 
L 112.485196 82.93272 
L 115.539466 83.00496 
L 118.593737 82.6128 
L 121.648007 82.28256 
L 124.702278 78.01008 
L 127.756548 76.19376 
L 130.810819 77.66952 
L 133.865089 77.74176 
L 136.91936 78.1752 
L 139.97363 79.5684 
L 143.027901 80.8068 
L 146.082171 85.20312 
L 149.136442 84.12984 
L 152.190712 84.03696 
L 155.244983 84.06792 
L 158.299253 84.3156 
L 161.353523 87.02976 
L 164.407794 85.21344 
L 167.462064 84.28464 
L 170.516335 84.32592 
L 173.570605 89.08344 
L 176.624876 89.5272 
L 179.679146 95.14128 
L 182.733417 96.98856 
L 185.787687 95.08968 
L 188.366177 97.71096 
L 190.793368 99.80592 
L 193.846083 101.79768 
L 196.887274 100.03296 
L 200.011361 100.518 
L 203.040427 99.98136 
L 206.112125 100.49736 
L 209.160068 100.78632 
L 212.203344 101.07528 
L 215.256696 101.26104 
L 218.274237 100.63152 
L 221.167345 100.38384 
L 224.417527 100.84824 
L 227.088141 100.65216 
L 230.521225 101.034 
L 233.571784 101.19912 
L 236.608203 101.10624 
L 239.643808 100.97208 
L 242.732969 100.91016 
L 245.796431 101.7564 
L 248.592679 101.84928 
L 251.893978 101.56032 
L 254.934638 100.85856 
L 257.983111 101.12688 
L 261.001395 101.4468 
L 264.125059 101.02368 
L 267.147796 101.30232 
L 270.209172 100.81728 
L 273.246333 100.79664 
L 276.307179 99.3312 
L 279.36 99.92976 
" clip-path="url(#p63876bd769)" style="fill: none; stroke: #f5841e; stroke-width: 0.6"/>
   </g>
  </g>
 </g>
 <defs>
  <clipPath id="p63876bd769">
   <rect x="8.64" y="4.8" width="270.72" height="103.2"/>
  </clipPath>
 </defs>
</svg>
