<?xml version="1.0" encoding="utf-8" standalone="no"?>
<!DOCTYPE svg PUBLIC "-//W3C//DTD SVG 1.1//EN"
  "http://www.w3.org/Graphics/SVG/1.1/DTD/svg11.dtd">
<svg xmlns:xlink="http://www.w3.org/1999/xlink" width="288pt" height="120pt" viewBox="0 0 288 120" xmlns="http://www.w3.org/2000/svg" version="1.1">
<desc id="nav-meta">{"window":"3m","count":4,"labels":["07.12","06.01","05.02","07.03"],"tick_utc":["2025-12-07T12:00:00Z","2026-01-06T12:00:00Z","2026-02-05T03:20:02Z","2026-03-07T03:05:35Z"],"w":720,"h":300}</desc>

 <metadata>
  <rdf:RDF xmlns:dc="http://purl.org/dc/elements/1.1/" xmlns:cc="http://creativecommons.org/ns#" xmlns:rdf="http://www.w3.org/1999/02/22-rdf-syntax-ns#">
   <cc:Work>
    <dc:type rdf:resource="http://purl.org/dc/dcmitype/StillImage"/>
    <dc:date>2026-03-07T07:07:13.019290</dc:date>
    <dc:format>image/svg+xml</dc:format>
    <dc:creator>
     <cc:Agent>
      <dc:title>Matplotlib v3.10.8, https://matplotlib.org/</dc:title>
     </cc:Agent>
    </dc:creator>
   </cc:Work>
  </rdf:RDF>
 </metadata>
 <defs>
  <style type="text/css">*{stroke-linejoin: round; stroke-linecap: butt}</style>
 </defs>
 <g id="figure_1">
  <g id="patch_1">
   <path d="M 0 120 
L 288 120 
L 288 0 
L 0 0 
L 0 120 
z
" style="fill: none; opacity: 0"/>
  </g>
  <g id="axes_1">
   <g id="patch_2">
    <path d="M 8.64 108 
L 279.36 108 
L 279.36 4.8 
L 8.64 4.8 
L 8.64 108 
z
" style="fill: none"/>
   </g>
   <g id="matplotlib.axis_1"/>
   <g id="matplotlib.axis_2"/>
   <g id="line2d_1">
    <path d="M 8.64 87.36 
L 279.36 87.36 
" clip-path="url(#pd62b30a944)" style="fill: none; stroke: #b2b2b2; stroke-opacity: 0.35; stroke-width: 0.5; stroke-linecap: square"/>
   </g>
   <g id="line2d_2">
    <path d="M 8.64 66.72 
L 279.36 66.72 
" clip-path="url(#pd62b30a944)" style="fill: none; stroke: #b2b2b2; stroke-opacity: 0.35; stroke-width: 0.5; stroke-linecap: square"/>
   </g>
   <g id="line2d_3">
    <path d="M 8.64 46.08 
L 279.36 46.08 
" clip-path="url(#pd62b30a944)" style="fill: none; stroke: #b2b2b2; stroke-opacity: 0.35; stroke-width: 0.5; stroke-linecap: square"/>
   </g>
   <g id="line2d_4">
    <path d="M 8.64 25.44 
L 279.36 25.44 
" clip-path="url(#pd62b30a944)" style="fill: none; stroke: #b2b2b2; stroke-opacity: 0.35; stroke-width: 0.5; stroke-linecap: square"/>
   </g>
   <g id="line2d_5">
    <path d="M 8.64 90.38376 
L 11.660455 90.53856 
L 14.68091 90.08448 
L 17.701365 88.79448 
L 20.72182 89.20728 
L 23.742276 89.22792 
L 26.762731 90.31152 
L 29.783186 90.10512 
L 32.803641 91.09584 
L 35.824096 91.61184 
L 38.844551 91.31256 
L 41.865006 92.87088 
L 44.885461 93.8616 
L 47.905916 92.02464 
L 50.926371 92.13816 
L 53.946827 92.07624 
L 56.967282 92.14848 
L 59.987737 92.64384 
L 63.008192 93.01536 
L 66.028647 93.69648 
L 69.049102 93.11856 
L 72.069557 92.44776 
L 75.090012 92.30328 
L 78.110467 92.87088 
L 81.130923 92.38584 
L 84.151378 92.47872 
L 87.171833 91.88016 
L 90.192288 90.42504 
L 93.212743 90.08448 
L 96.233198 89.92968 
L 99.253653 88.76352 
L 102.274108 87.94824 
L 105.294563 89.2692 
L 108.315018 88.72224 
L 111.335474 89.39304 
L 114.355929 89.40336 
L 117.376384 88.41264 
L 120.396839 88.4952 
L 123.417294 86.86464 
L 126.437749 86.42088 
L 129.458204 87.62832 
L 132.478659 86.93688 
L 135.499114 87.23616 
L 138.519569 88.63968 
L 141.540025 90.0432 
L 144.56048 92.12784 
L 147.580935 91.16808 
L 150.60139 91.46736 
L 153.621845 91.73568 
L 156.6423 91.78728 
L 159.662755 94.0164 
L 162.68321 92.5716 
L 165.703665 91.76664 
L 168.724121 92.33424 
L 171.744576 94.36728 
L 174.765031 94.46016 
L 177.785486 97.71096 
L 180.805941 98.48496 
L 183.826396 97.85544 
L 186.376338 99.10416 
L 188.776656 100.16712 
L 191.795573 102.23112 
L 194.803093 100.54896 
L 197.892593 100.70376 
L 200.888122 100.68312 
L 203.925812 100.95144 
L 206.940009 101.28168 
L 209.949592 101.71512 
L 212.969138 101.84928 
L 215.953271 101.034 
L 218.814348 100.54896 
L 222.028546 101.04432 
L 224.669591 100.81728 
L 228.064667 101.034 
L 231.081451 101.4984 
L 234.084252 101.33328 
L 237.086249 101.1372 
L 240.141208 101.06496 
L 243.170753 102.09696 
L 245.936042 102.05568 
L 249.200791 101.4984 
L 252.207787 100.60056 
L 255.222508 100.80696 
L 258.207375 101.45712 
L 261.296455 100.55928 
L 264.285727 101.10624 
L 267.313208 100.8792 
L 270.316743 100.74504 
L 273.343701 100.21872 
L 276.362723 100.53864 
L 279.36 101.07528 
" clip-path="url(#pd62b30a944)" style="fill: none; stroke: #bebebe; stroke-width: 0.5; stroke-linecap: round"/>
   </g>
   <g id="line2d_6">
    <path d="M 8.64 74.48064 
L 11.660455 74.28456 
L 14.68091 73.21128 
L 17.701365 70.2804 
L 20.72182 70.2288 
L 23.742276 71.56008 
L 26.762731 73.79952 
L 29.783186 73.35576 
L 32.803641 74.0988 
L 35.824096 75.5952 
L 38.844551 75.5952 
L 41.865006 77.61792 
L 44.885461 77.63856 
L 47.905916 75.40944 
L 50.926371 75.40944 
L 53.946827 75.04824 
L 56.967282 74.98632 
L 59.987737 75.58488 
L 63.008192 75.87384 
L 66.028647 76.49304 
L 69.049102 76.15248 
L 72.069557 75.82224 
L 75.090012 75.84288 
L 78.110467 76.03896 
L 81.130923 75.51264 
L 84.151378 75.56424 
L 87.171833 75.05856 
L 90.192288 73.26288 
L 93.212743 73.20096 
L 96.233198 73.00488 
L 99.253653 71.68392 
L 102.274108 70.6932 
L 105.294563 72.62304 
L 108.315018 73.52088 
L 111.335474 73.83048 
L 114.355929 73.8408 
L 117.376384 73.29384 
L 120.396839 73.72728 
L 123.417294 70.32168 
L 126.437749 69.77472 
L 129.458204 70.34232 
L 132.478659 70.67256 
L 135.499114 70.51776 
L 138.519569 70.848 
L 141.540025 72.31344 
L 144.56048 76.01832 
L 147.580935 75.41976 
L 150.60139 75.83256 
L 153.621845 75.79128 
L 156.6423 75.82224 
L 159.662755 77.82432 
L 162.68321 76.14216 
L 165.703665 74.75928 
L 168.724121 74.96568 
L 171.744576 77.75208 
L 174.765031 79.48584 
L 177.785486 83.31456 
L 180.805941 85.90488 
L 183.826396 84.79032 
L 186.376338 85.84296 
L 188.776656 88.25784 
L 191.795573 91.41576 
L 194.803093 88.7532 
L 197.892593 88.65 
L 200.888122 88.55712 
L 203.925812 88.96992 
L 206.940009 89.7336 
L 209.949592 90.456 
L 212.969138 90.56952 
L 215.953271 89.15568 
L 218.814348 88.9596 
L 222.028546 90.6624 
L 224.669591 89.94 
L 228.064667 90.00192 
L 231.081451 90.3528 
L 234.084252 90.62112 
L 237.086249 90.5076 
L 240.141208 90.3528 
L 243.170753 92.004 
L 245.936042 92.13816 
L 249.200791 91.25064 
L 252.207787 89.166 
L 255.222508 89.56848 
L 258.207375 90.93072 
L 261.296455 89.41368 
L 264.285727 90.37344 
L 267.313208 89.79552 
L 270.316743 90.23928 
L 273.343701 88.0824 
L 276.362723 88.7532 
L 279.36 90.16704 
" clip-path="url(#pd62b30a944)" style="fill: none; stroke: #4a8dff; stroke-width: 0.6"/>
   </g>
   <g id="line2d_7">
    <path d="M 8.64 84.24336 
L 11.660455 83.29392 
L 14.68091 82.8192 
L 17.701365 80.64168 
L 20.72182 81.38472 
L 23.742276 80.87904 
L 26.762731 83.13912 
L 29.783186 83.19072 
L 32.803641 85.296 
L 35.824096 87.17424 
L 38.844551 85.71912 
L 41.865006 87.53544 
L 44.885461 88.17528 
L 47.905916 85.41984 
L 50.926371 85.17216 
L 53.946827 84.9348 
L 56.967282 85.01736 
L 59.987737 86.14224 
L 63.008192 85.90488 
L 66.028647 86.328 
L 69.049102 86.24544 
L 72.069557 85.72944 
L 75.090012 85.7088 
L 78.110467 86.40024 
L 81.130923 85.09992 
L 84.151378 86.02872 
L 87.171833 84.78 
L 90.192288 83.53128 
L 93.212743 82.83984 
L 96.233198 82.03488 
L 99.253653 79.39296 
L 102.274108 79.66128 
L 105.294563 82.15872 
L 108.315018 82.43736 
L 111.335474 82.93272 
L 114.355929 83.00496 
L 117.376384 82.6128 
L 120.396839 82.28256 
L 123.417294 78.01008 
L 126.437749 76.19376 
L 129.458204 77.66952 
L 132.478659 77.74176 
L 135.499114 78.1752 
L 138.519569 79.5684 
L 141.540025 80.8068 
L 144.56048 85.20312 
L 147.580935 84.12984 
L 150.60139 84.03696 
L 153.621845 84.06792 
L 156.6423 84.3156 
L 159.662755 87.02976 
L 162.68321 85.21344 
L 165.703665 84.28464 
L 168.724121 84.32592 
L 171.744576 89.08344 
L 174.765031 89.5272 
L 177.785486 95.14128 
L 180.805941 96.98856 
L 183.826396 95.08968 
L 186.376338 97.71096 
L 188.776656 99.80592 
L 191.795573 101.79768 
L 194.803093 100.03296 
L 197.892593 100.518 
L 200.888122 99.98136 
L 203.925812 100.49736 
L 206.940009 100.78632 
L 209.949592 101.07528 
L 212.969138 101.26104 
L 215.953271 100.63152 
L 218.814348 100.38384 
L 222.028546 100.84824 
L 224.669591 100.65216 
L 228.064667 101.034 
L 231.081451 101.19912 
L 234.084252 101.10624 
L 237.086249 100.97208 
L 240.141208 100.91016 
L 243.170753 101.7564 
L 245.936042 101.84928 
L 249.200791 101.56032 
L 252.207787 100.85856 
L 255.222508 101.12688 
L 258.207375 101.4468 
L 261.296455 101.02368 
L 264.285727 101.30232 
L 267.313208 100.81728 
L 270.316743 100.79664 
L 273.343701 99.3312 
L 276.362723 99.92976 
L 279.36 100.78632 
" clip-path="url(#pd62b30a944)" style="fill: none; stroke: #f5841e; stroke-width: 0.6"/>
   </g>
  </g>
 </g>
 <defs>
  <clipPath id="pd62b30a944">
   <rect x="8.64" y="4.8" width="270.72" height="103.2"/>
  </clipPath>
 </defs>
</svg>
