<?xml version="1.0" encoding="utf-8" standalone="no"?>
<!DOCTYPE svg PUBLIC "-//W3C//DTD SVG 1.1//EN"
  "http://www.w3.org/Graphics/SVG/1.1/DTD/svg11.dtd">
<svg xmlns:xlink="http://www.w3.org/1999/xlink" width="288pt" height="120pt" viewBox="0 0 288 120" xmlns="http://www.w3.org/2000/svg" version="1.1">
<desc id="nav-meta">{"window":"1m","count":4,"labels":["06.01","16.01","26.01","05.02"],"tick_utc":["2026-01-06T12:00:00Z","2026-01-16T12:00:00Z","2026-01-26T12:00:00Z","2026-02-05T03:20:02Z"],"w":720,"h":300}</desc>

 <metadata>
  <rdf:RDF xmlns:dc="http://purl.org/dc/elements/1.1/" xmlns:cc="http://creativecommons.org/ns#" xmlns:rdf="http://www.w3.org/1999/02/22-rdf-syntax-ns#">
   <cc:Work>
    <dc:type rdf:resource="http://purl.org/dc/dcmitype/StillImage"/>
    <dc:date>2026-02-05T07:37:45.884342</dc:date>
    <dc:format>image/svg+xml</dc:format>
    <dc:creator>
     <cc:Agent>
      <dc:title>Matplotlib v3.10.8, https://matplotlib.org/</dc:title>
     </cc:Agent>
    </dc:creator>
   </cc:Work>
  </rdf:RDF>
 </metadata>
 <defs>
  <style type="text/css">*{stroke-linejoin: round; stroke-linecap: butt}</style>
 </defs>
 <g id="figure_1">
  <g id="patch_1">
   <path d="M 0 120 
L 288 120 
L 288 0 
L 0 0 
L 0 120 
z
" style="fill: none; opacity: 0"/>
  </g>
  <g id="axes_1">
   <g id="patch_2">
    <path d="M 8.64 108 
L 279.36 108 
L 279.36 4.8 
L 8.64 4.8 
L 8.64 108 
z
" style="fill: none"/>
   </g>
   <g id="matplotlib.axis_1"/>
   <g id="matplotlib.axis_2"/>
   <g id="line2d_1">
    <path d="M 8.64 87.36 
L 279.36 87.36 
" clip-path="url(#pfa8227afa5)" style="fill: none; stroke: #b2b2b2; stroke-opacity: 0.35; stroke-width: 0.8; stroke-linecap: square"/>
   </g>
   <g id="line2d_2">
    <path d="M 8.64 66.72 
L 279.36 66.72 
" clip-path="url(#pfa8227afa5)" style="fill: none; stroke: #b2b2b2; stroke-opacity: 0.35; stroke-width: 0.8; stroke-linecap: square"/>
   </g>
   <g id="line2d_3">
    <path d="M 8.64 46.08 
L 279.36 46.08 
" clip-path="url(#pfa8227afa5)" style="fill: none; stroke: #b2b2b2; stroke-opacity: 0.35; stroke-width: 0.8; stroke-linecap: square"/>
   </g>
   <g id="line2d_4">
    <path d="M 8.64 25.44 
L 279.36 25.44 
" clip-path="url(#pfa8227afa5)" style="fill: none; stroke: #b2b2b2; stroke-opacity: 0.35; stroke-width: 0.8; stroke-linecap: square"/>
   </g>
   <g id="line2d_5">
    <path d="M 8.64 88.76352 
L 17.773939 87.94824 
L 26.907877 89.2692 
L 36.041816 88.72224 
L 45.175754 89.39304 
L 54.309693 89.40336 
L 63.443631 88.41264 
L 72.57757 88.4952 
L 81.711508 86.86464 
L 90.845447 86.42088 
L 99.979385 87.62832 
L 109.113324 86.93688 
L 118.247262 87.23616 
L 127.381201 88.63968 
L 136.515139 90.0432 
L 145.649078 92.12784 
L 154.783016 91.16808 
L 163.916955 91.46736 
L 173.050893 91.73568 
L 182.184832 91.78728 
L 191.31877 94.0164 
L 200.452709 92.5716 
L 209.586647 91.76664 
L 218.720586 92.33424 
L 227.854524 94.36728 
L 236.988463 94.46016 
L 246.122401 97.71096 
L 255.25634 98.48496 
L 264.390278 97.85544 
L 272.101373 99.10416 
L 279.36 100.16712 
" clip-path="url(#pfa8227afa5)" style="fill: none; stroke: #bebebe; stroke-width: 0.5; stroke-linecap: round"/>
   </g>
   <g id="line2d_6">
    <path d="M 8.64 71.68392 
L 17.773939 70.6932 
L 26.907877 72.62304 
L 36.041816 73.52088 
L 45.175754 73.83048 
L 54.309693 73.8408 
L 63.443631 73.29384 
L 72.57757 73.72728 
L 81.711508 70.32168 
L 90.845447 69.77472 
L 99.979385 70.34232 
L 109.113324 70.67256 
L 118.247262 70.51776 
L 127.381201 70.848 
L 136.515139 72.31344 
L 145.649078 76.01832 
L 154.783016 75.41976 
L 163.916955 75.83256 
L 173.050893 75.79128 
L 182.184832 75.82224 
L 191.31877 77.82432 
L 200.452709 76.14216 
L 209.586647 74.75928 
L 218.720586 74.96568 
L 227.854524 77.75208 
L 236.988463 79.48584 
L 246.122401 83.31456 
L 255.25634 85.90488 
L 264.390278 84.79032 
L 272.101373 85.84296 
L 279.36 88.25784 
" clip-path="url(#pfa8227afa5)" style="fill: none; stroke: #4a8dff; stroke-width: 0.5"/>
   </g>
   <g id="line2d_7">
    <path d="M 8.64 79.39296 
L 17.773939 79.66128 
L 26.907877 82.15872 
L 36.041816 82.43736 
L 45.175754 82.93272 
L 54.309693 83.00496 
L 63.443631 82.6128 
L 72.57757 82.28256 
L 81.711508 78.01008 
L 90.845447 76.19376 
L 99.979385 77.66952 
L 109.113324 77.74176 
L 118.247262 78.1752 
L 127.381201 79.5684 
L 136.515139 80.8068 
L 145.649078 85.20312 
L 154.783016 84.12984 
L 163.916955 84.03696 
L 173.050893 84.06792 
L 182.184832 84.3156 
L 191.31877 87.02976 
L 200.452709 85.21344 
L 209.586647 84.28464 
L 218.720586 84.32592 
L 227.854524 89.08344 
L 236.988463 89.5272 
L 246.122401 95.14128 
L 255.25634 96.98856 
L 264.390278 95.08968 
L 272.101373 97.71096 
L 279.36 99.80592 
" clip-path="url(#pfa8227afa5)" style="fill: none; stroke: #f5841e; stroke-width: 0.5"/>
   </g>
  </g>
 </g>
 <defs>
  <clipPath id="pfa8227afa5">
   <rect x="8.64" y="4.8" width="270.72" height="103.2"/>
  </clipPath>
 </defs>
</svg>
