<?xml version="1.0" encoding="utf-8" standalone="no"?>
<!DOCTYPE svg PUBLIC "-//W3C//DTD SVG 1.1//EN"
  "http://www.w3.org/Graphics/SVG/1.1/DTD/svg11.dtd">
<svg xmlns:xlink="http://www.w3.org/1999/xlink" width="288pt" height="120pt" viewBox="0 0 288 120" xmlns="http://www.w3.org/2000/svg" version="1.1">
<desc id="nav-meta">{"window":"1m","count":4,"labels":["30.03","09.04","18.04","28.04"],"tick_utc":["2026-03-30T03:51:16Z","2026-04-09T03:38:15Z","2026-04-18T03:39:51Z","2026-04-28T04:25:03Z"],"w":720,"h":300}</desc>

 <metadata>
  <rdf:RDF xmlns:dc="http://purl.org/dc/elements/1.1/" xmlns:cc="http://creativecommons.org/ns#" xmlns:rdf="http://www.w3.org/1999/02/22-rdf-syntax-ns#">
   <cc:Work>
    <dc:type rdf:resource="http://purl.org/dc/dcmitype/StillImage"/>
    <dc:date>2026-04-28T04:25:05.709570</dc:date>
    <dc:format>image/svg+xml</dc:format>
    <dc:creator>
     <cc:Agent>
      <dc:title>Matplotlib v3.10.9, https://matplotlib.org/</dc:title>
     </cc:Agent>
    </dc:creator>
   </cc:Work>
  </rdf:RDF>
 </metadata>
 <defs>
  <style type="text/css">*{stroke-linejoin: round; stroke-linecap: butt}</style>
 </defs>
 <g id="figure_1">
  <g id="patch_1">
   <path d="M 0 120 
L 288 120 
L 288 0 
L 0 0 
L 0 120 
z
" style="fill: none; opacity: 0"/>
  </g>
  <g id="axes_1">
   <g id="patch_2">
    <path d="M 8.64 108 
L 279.36 108 
L 279.36 4.8 
L 8.64 4.8 
L 8.64 108 
z
" style="fill: none"/>
   </g>
   <g id="matplotlib.axis_1"/>
   <g id="matplotlib.axis_2"/>
   <g id="line2d_1">
    <path d="M 8.64 87.36 
L 279.36 87.36 
" clip-path="url(#p2ccda3b3d4)" style="fill: none; stroke: #b2b2b2; stroke-opacity: 0.35; stroke-width: 0.5; stroke-linecap: square"/>
   </g>
   <g id="line2d_2">
    <path d="M 8.64 66.72 
L 279.36 66.72 
" clip-path="url(#p2ccda3b3d4)" style="fill: none; stroke: #b2b2b2; stroke-opacity: 0.35; stroke-width: 0.5; stroke-linecap: square"/>
   </g>
   <g id="line2d_3">
    <path d="M 8.64 46.08 
L 279.36 46.08 
" clip-path="url(#p2ccda3b3d4)" style="fill: none; stroke: #b2b2b2; stroke-opacity: 0.35; stroke-width: 0.5; stroke-linecap: square"/>
   </g>
   <g id="line2d_4">
    <path d="M 8.64 25.44 
L 279.36 25.44 
" clip-path="url(#p2ccda3b3d4)" style="fill: none; stroke: #b2b2b2; stroke-opacity: 0.35; stroke-width: 0.5; stroke-linecap: square"/>
   </g>
   <g id="line2d_5">
    <path d="M 8.64 101.292 
L 17.908789 101.28168 
L 27.316413 101.28168 
L 36.521182 101.8596 
L 45.859497 101.88024 
L 55.107234 101.72544 
L 64.575315 101.68416 
L 73.927016 101.47776 
L 83.194077 101.78736 
L 92.536818 101.09592 
L 101.831949 101.46744 
L 111.245403 101.3436 
L 120.430416 101.05464 
L 129.925378 101.3952 
L 139.30083 101.47776 
L 148.56908 100.86888 
L 157.889581 101.26104 
L 167.257584 100.99272 
L 176.56621 100.61088 
L 185.790951 100.44576 
L 195.241759 100.94112 
L 204.592488 101.09592 
L 213.879198 101.00304 
L 223.177892 100.69344 
L 232.543304 100.9308 
L 241.895653 100.92048 
L 251.111974 100.81728 
L 260.584697 100.8792 
L 270.012833 100.64184 
L 279.36 101.1888 
" clip-path="url(#p2ccda3b3d4)" style="fill: none; stroke: #bebebe; stroke-width: 0.5; stroke-linecap: round"/>
   </g>
   <g id="line2d_6">
    <path d="M 8.64 89.3724 
L 17.908789 89.00088 
L 27.316413 88.42296 
L 36.521182 88.81512 
L 45.859497 89.10408 
L 55.107234 89.14536 
L 64.575315 89.07312 
L 73.927016 87.9792 
L 83.194077 88.29912 
L 92.536818 86.38992 
L 101.831949 87.24648 
L 111.245403 87.1536 
L 120.430416 86.21448 
L 129.925378 86.66856 
L 139.30083 87.01944 
L 148.56908 84.44976 
L 157.889581 85.05864 
L 167.257584 84.58392 
L 176.56621 85.04832 
L 185.790951 83.71704 
L 195.241759 84.86256 
L 204.592488 85.6572 
L 213.879198 85.27536 
L 223.177892 84.49104 
L 232.543304 84.86256 
L 241.895653 85.32696 
L 251.111974 85.17216 
L 260.584697 85.31664 
L 270.012833 84.11952 
L 279.36 85.66752 
" clip-path="url(#p2ccda3b3d4)" style="fill: none; stroke: #4a8dff; stroke-width: 0.6"/>
   </g>
   <g id="line2d_7">
    <path d="M 8.64 101.14752 
L 17.908789 101.00304 
L 27.316413 100.86888 
L 36.521182 101.21976 
L 45.859497 101.28168 
L 55.107234 101.20944 
L 64.575315 101.14752 
L 73.927016 100.55928 
L 83.194077 100.65216 
L 92.536818 99.80592 
L 101.831949 99.96072 
L 111.245403 99.6408 
L 120.430416 99.1764 
L 129.925378 99.70272 
L 139.30083 99.94008 
L 148.56908 98.57784 
L 157.889581 98.65008 
L 167.257584 98.38176 
L 176.56621 98.48496 
L 185.790951 96.70992 
L 195.241759 98.05152 
L 204.592488 98.48496 
L 213.879198 97.96896 
L 223.177892 96.32808 
L 232.543304 96.20424 
L 241.895653 96.16296 
L 251.111974 96.1836 
L 260.584697 96.50352 
L 270.012833 94.76976 
L 279.36 97.19496 
" clip-path="url(#p2ccda3b3d4)" style="fill: none; stroke: #f5841e; stroke-width: 0.6"/>
   </g>
  </g>
 </g>
 <defs>
  <clipPath id="p2ccda3b3d4">
   <rect x="8.64" y="4.8" width="270.72" height="103.2"/>
  </clipPath>
 </defs>
</svg>
