<?xml version="1.0" encoding="utf-8" standalone="no"?>
<!DOCTYPE svg PUBLIC "-//W3C//DTD SVG 1.1//EN"
  "http://www.w3.org/Graphics/SVG/1.1/DTD/svg11.dtd">
<svg xmlns:xlink="http://www.w3.org/1999/xlink" width="288pt" height="120pt" viewBox="0 0 288 120" xmlns="http://www.w3.org/2000/svg" version="1.1">
<desc id="nav-meta">{"window":"3m","count":4,"labels":["16.04","16.05","14.06","14.07"],"tick_utc":["2026-04-16T03:58:40Z","2026-05-16T04:20:56Z","2026-06-14T05:19:47Z","2026-07-14T03:47:28Z"],"w":720,"h":300}</desc>

 <metadata>
  <rdf:RDF xmlns:dc="http://purl.org/dc/elements/1.1/" xmlns:cc="http://creativecommons.org/ns#" xmlns:rdf="http://www.w3.org/1999/02/22-rdf-syntax-ns#">
   <cc:Work>
    <dc:type rdf:resource="http://purl.org/dc/dcmitype/StillImage"/>
    <dc:date>2026-07-14T19:54:35.424728</dc:date>
    <dc:format>image/svg+xml</dc:format>
    <dc:creator>
     <cc:Agent>
      <dc:title>Matplotlib v3.11.0, https://matplotlib.org/</dc:title>
     </cc:Agent>
    </dc:creator>
   </cc:Work>
  </rdf:RDF>
 </metadata>
 <defs>
  <style type="text/css">*{stroke-linejoin: round; stroke-linecap: butt}</style>
 </defs>
 <g id="figure_1">
  <g id="patch_1">
   <path d="M 0 120 
L 288 120 
L 288 0 
L 0 0 
L 0 120 
z
" style="fill: none; opacity: 0"/>
  </g>
  <g id="axes_1">
   <g id="patch_2">
    <path d="M 8.64 108 
L 279.36 108 
L 279.36 4.8 
L 8.64 4.8 
L 8.64 108 
z
" style="fill: none"/>
   </g>
   <g id="matplotlib.axis_1"/>
   <g id="matplotlib.axis_2"/>
   <g id="line2d_1">
    <path d="M 8.64 87.36 
L 279.36 87.36 
" clip-path="url(#pc9b69aa8ec)" style="fill: none; stroke: #b2b2b2; stroke-opacity: 0.35; stroke-width: 0.5; stroke-linecap: square"/>
   </g>
   <g id="line2d_2">
    <path d="M 8.64 66.72 
L 279.36 66.72 
" clip-path="url(#pc9b69aa8ec)" style="fill: none; stroke: #b2b2b2; stroke-opacity: 0.35; stroke-width: 0.5; stroke-linecap: square"/>
   </g>
   <g id="line2d_3">
    <path d="M 8.64 46.08 
L 279.36 46.08 
" clip-path="url(#pc9b69aa8ec)" style="fill: none; stroke: #b2b2b2; stroke-opacity: 0.35; stroke-width: 0.5; stroke-linecap: square"/>
   </g>
   <g id="line2d_4">
    <path d="M 8.64 25.44 
L 279.36 25.44 
" clip-path="url(#pc9b69aa8ec)" style="fill: none; stroke: #b2b2b2; stroke-opacity: 0.35; stroke-width: 0.5; stroke-linecap: square"/>
   </g>
   <g id="line2d_5">
    <path d="M 8.64 100.99272 
L 11.675867 100.61088 
L 14.684376 100.44576 
L 17.766613 100.94112 
L 20.816212 101.09592 
L 23.844931 101.00304 
L 26.877559 100.69344 
L 29.931945 100.9308 
L 32.982072 100.92048 
L 35.987835 100.81728 
L 39.077219 100.8792 
L 42.152063 100.64184 
L 45.200499 101.1888 
L 48.234253 101.09592 
L 51.281422 101.37456 
L 54.356723 101.21976 
L 57.321151 101.20944 
L 60.424971 101.23008 
L 63.465979 100.92048 
L 66.441039 101.06496 
L 69.536691 100.70376 
L 72.579565 100.55928 
L 75.570997 100.53864 
L 78.624187 99.60984 
L 81.72755 99.72336 
L 84.793626 99.44472 
L 87.793439 99.25896 
L 90.849973 99.32088 
L 93.888657 100.22904 
L 96.945719 100.01232 
L 99.948947 100.43544 
L 103.036431 100.75536 
L 106.108035 101.02368 
L 109.128304 101.02368 
L 112.181247 101.17848 
L 115.240634 100.7244 
L 118.259389 100.75536 
L 121.259659 101.11656 
L 124.349889 100.91016 
L 127.431985 100.89984 
L 130.42796 101.1372 
L 133.501254 101.2404 
L 136.5336 101.6532 
L 139.577917 101.4984 
L 142.57611 101.48808 
L 145.680282 101.32296 
L 148.767343 101.51904 
L 151.779479 101.7048 
L 154.855766 102.54072 
L 157.887408 103.08768 
L 160.879369 103.36632 
L 163.874675 104.22288 
L 166.982122 103.85136 
L 170.037635 103.68624 
L 173.021639 103.43856 
L 176.09525 103.81008 
L 179.155164 103.72752 
L 182.209164 103.50048 
L 185.228975 103.5108 
L 188.293115 103.31472 
L 191.436299 102.95352 
L 194.495721 102.61296 
L 197.440889 102.6336 
L 200.468376 102.9948 
L 203.58209 103.28376 
L 206.502506 103.01544 
L 209.607876 102.69552 
L 212.738983 102.582 
L 215.599192 102.88128 
L 218.652135 103.15992 
L 221.693389 103.36632 
L 224.75105 103.36632 
L 227.755827 102.81936 
L 230.85588 103.0464 
L 233.91995 102.9432 
L 236.903038 102.59232 
L 239.989606 102.40656 
L 242.978398 102.02472 
L 245.987365 101.68416 
L 249.016331 101.3436 
L 252.102934 101.6532 
L 255.174468 101.6532 
L 258.1709 101.63256 
L 261.130293 101.95248 
L 264.264569 102.08664 
L 267.299767 101.9112 
L 270.252012 102.066 
L 273.339566 102.18984 
L 276.388284 102.31368 
L 279.36 102.45816 
" clip-path="url(#pc9b69aa8ec)" style="fill: none; stroke: #bebebe; stroke-width: 0.5; stroke-linecap: round"/>
   </g>
   <g id="line2d_6">
    <path d="M 8.64 84.58392 
L 11.675867 85.04832 
L 14.684376 83.71704 
L 17.766613 84.86256 
L 20.816212 85.6572 
L 23.844931 85.27536 
L 26.877559 84.49104 
L 29.931945 84.86256 
L 32.982072 85.32696 
L 35.987835 85.17216 
L 39.077219 85.31664 
L 42.152063 84.11952 
L 45.200499 85.66752 
L 48.234253 85.26504 
L 51.281422 86.26608 
L 54.356723 85.77072 
L 57.321151 85.38888 
L 60.424971 85.3992 
L 63.465979 84.09888 
L 66.441039 84.22272 
L 69.536691 84.34656 
L 72.579565 85.06896 
L 75.570997 85.7604 
L 78.624187 85.0896 
L 81.72755 85.01736 
L 84.793626 84.9348 
L 87.793439 85.296 
L 90.849973 85.35792 
L 93.888657 86.1732 
L 96.945719 85.92552 
L 99.948947 86.55504 
L 103.036431 87.13296 
L 106.108035 88.10304 
L 109.128304 87.9276 
L 112.181247 88.26816 
L 115.240634 87.78312 
L 118.259389 87.95856 
L 121.259659 88.94928 
L 124.349889 88.14432 
L 127.431985 88.33008 
L 130.42796 88.52616 
L 133.501254 88.86672 
L 136.5336 90.22896 
L 139.577917 89.82648 
L 142.57611 89.87808 
L 145.680282 89.46528 
L 148.767343 90.0432 
L 151.779479 89.96064 
L 154.855766 91.99368 
L 157.887408 93.05664 
L 160.879369 93.74808 
L 163.874675 97.02984 
L 166.982122 95.93592 
L 170.037635 95.07936 
L 173.021639 94.46016 
L 176.09525 95.47152 
L 179.155164 95.11032 
L 182.209164 94.82136 
L 185.228975 94.8936 
L 188.293115 94.70784 
L 191.436299 94.04736 
L 194.495721 93.40752 
L 197.440889 92.9844 
L 200.468376 93.93384 
L 203.58209 94.4292 
L 206.502506 94.19184 
L 209.607876 93.87192 
L 212.738983 93.81 
L 215.599192 94.03704 
L 218.652135 94.83168 
L 221.693389 95.48184 
L 224.75105 96.63768 
L 227.755827 96.14232 
L 230.85588 96.30744 
L 233.91995 96.29712 
L 236.903038 96.04944 
L 239.989606 95.9256 
L 242.978398 95.39928 
L 245.987365 94.31568 
L 249.016331 93.57264 
L 252.102934 93.32496 
L 255.174468 93.22176 
L 258.1709 93.35592 
L 261.130293 93.61392 
L 264.264569 93.77904 
L 267.299767 93.26304 
L 270.252012 92.92248 
L 273.339566 92.71608 
L 276.388284 93.15984 
L 279.36 93.17016 
" clip-path="url(#pc9b69aa8ec)" style="fill: none; stroke: #4a8dff; stroke-width: 0.6"/>
   </g>
   <g id="line2d_7">
    <path d="M 8.64 98.38176 
L 11.675867 98.48496 
L 14.684376 96.70992 
L 17.766613 98.05152 
L 20.816212 98.48496 
L 23.844931 97.96896 
L 26.877559 96.32808 
L 29.931945 96.20424 
L 32.982072 96.16296 
L 35.987835 96.1836 
L 39.077219 96.50352 
L 42.152063 94.76976 
L 45.200499 97.19496 
L 48.234253 96.9576 
L 51.281422 97.9896 
L 54.356723 96.89568 
L 57.321151 95.45088 
L 60.424971 95.67792 
L 63.465979 93.43848 
L 66.441039 92.90184 
L 69.536691 92.25168 
L 72.579565 92.87088 
L 75.570997 94.2744 
L 78.624187 93.1392 
L 81.72755 92.97408 
L 84.793626 92.9844 
L 87.793439 92.60256 
L 90.849973 92.53032 
L 93.888657 94.54272 
L 96.945719 92.85024 
L 99.948947 94.82136 
L 103.036431 95.75016 
L 106.108035 96.97824 
L 109.128304 97.08144 
L 112.181247 97.23624 
L 115.240634 95.94624 
L 118.259389 96.30744 
L 121.259659 98.08248 
L 124.349889 97.2672 
L 127.431985 96.61704 
L 130.42796 97.23624 
L 133.501254 98.08248 
L 136.5336 99.18672 
L 139.577917 99.03192 
L 142.57611 99.1248 
L 145.680282 98.74296 
L 148.767343 99.09384 
L 151.779479 100.0536 
L 154.855766 101.23008 
L 157.887408 101.99376 
L 160.879369 102.08664 
L 163.874675 102.8916 
L 166.982122 102.45816 
L 170.037635 102.28272 
L 173.021639 102.10728 
L 176.09525 102.582 
L 179.155164 102.29304 
L 182.209164 102.08664 
L 185.228975 102.066 
L 188.293115 101.86992 
L 191.436299 101.48808 
L 194.495721 101.40552 
L 197.440889 101.4984 
L 200.468376 101.97312 
L 203.58209 102.26208 
L 206.502506 102.066 
L 209.607876 101.90088 
L 212.738983 101.90088 
L 215.599192 102.0144 
L 218.652135 102.25176 
L 221.693389 102.6336 
L 224.75105 102.88128 
L 227.755827 102.77808 
L 230.85588 102.85032 
L 233.91995 102.93288 
L 236.903038 102.95352 
L 239.989606 103.00512 
L 242.978398 102.69552 
L 245.987365 102.55104 
L 249.016331 102.2724 
L 252.102934 102.21048 
L 255.174468 102.12792 
L 258.1709 102.13824 
L 261.130293 102.25176 
L 264.264569 102.36528 
L 267.299767 101.94216 
L 270.252012 101.92152 
L 273.339566 101.9112 
L 276.388284 102.2208 
L 279.36 102.31368 
" clip-path="url(#pc9b69aa8ec)" style="fill: none; stroke: #f5841e; stroke-width: 0.6"/>
   </g>
  </g>
 </g>
 <defs>
  <clipPath id="pc9b69aa8ec">
   <rect x="8.64" y="4.8" width="270.72" height="103.2"/>
  </clipPath>
 </defs>
</svg>
