<?xml version="1.0" encoding="utf-8" standalone="no"?>
<!DOCTYPE svg PUBLIC "-//W3C//DTD SVG 1.1//EN"
  "http://www.w3.org/Graphics/SVG/1.1/DTD/svg11.dtd">
<svg xmlns:xlink="http://www.w3.org/1999/xlink" width="288pt" height="120pt" viewBox="0 0 288 120" xmlns="http://www.w3.org/2000/svg" version="1.1">
<desc id="nav-meta">{"window":"1m","count":4,"labels":["04.06","14.06","24.06","04.07"],"tick_utc":["2026-06-04T05:26:51Z","2026-06-14T05:19:47Z","2026-06-24T04:50:37Z","2026-07-04T04:23:54Z"],"w":720,"h":300}</desc>

 <metadata>
  <rdf:RDF xmlns:dc="http://purl.org/dc/elements/1.1/" xmlns:cc="http://creativecommons.org/ns#" xmlns:rdf="http://www.w3.org/1999/02/22-rdf-syntax-ns#">
   <cc:Work>
    <dc:type rdf:resource="http://purl.org/dc/dcmitype/StillImage"/>
    <dc:date>2026-07-04T04:23:57.664322</dc:date>
    <dc:format>image/svg+xml</dc:format>
    <dc:creator>
     <cc:Agent>
      <dc:title>Matplotlib v3.11.0, https://matplotlib.org/</dc:title>
     </cc:Agent>
    </dc:creator>
   </cc:Work>
  </rdf:RDF>
 </metadata>
 <defs>
  <style type="text/css">*{stroke-linejoin: round; stroke-linecap: butt}</style>
 </defs>
 <g id="figure_1">
  <g id="patch_1">
   <path d="M 0 120 
L 288 120 
L 288 0 
L 0 0 
L 0 120 
z
" style="fill: none; opacity: 0"/>
  </g>
  <g id="axes_1">
   <g id="patch_2">
    <path d="M 8.64 108 
L 279.36 108 
L 279.36 4.8 
L 8.64 4.8 
L 8.64 108 
z
" style="fill: none"/>
   </g>
   <g id="matplotlib.axis_1"/>
   <g id="matplotlib.axis_2"/>
   <g id="line2d_1">
    <path d="M 8.64 87.36 
L 279.36 87.36 
" clip-path="url(#p2b975860a6)" style="fill: none; stroke: #b2b2b2; stroke-opacity: 0.35; stroke-width: 0.5; stroke-linecap: square"/>
   </g>
   <g id="line2d_2">
    <path d="M 8.64 66.72 
L 279.36 66.72 
" clip-path="url(#p2b975860a6)" style="fill: none; stroke: #b2b2b2; stroke-opacity: 0.35; stroke-width: 0.5; stroke-linecap: square"/>
   </g>
   <g id="line2d_3">
    <path d="M 8.64 46.08 
L 279.36 46.08 
" clip-path="url(#p2b975860a6)" style="fill: none; stroke: #b2b2b2; stroke-opacity: 0.35; stroke-width: 0.5; stroke-linecap: square"/>
   </g>
   <g id="line2d_4">
    <path d="M 8.64 25.44 
L 279.36 25.44 
" clip-path="url(#p2b975860a6)" style="fill: none; stroke: #b2b2b2; stroke-opacity: 0.35; stroke-width: 0.5; stroke-linecap: square"/>
   </g>
   <g id="line2d_5">
    <path d="M 8.64 103.08768 
L 17.528327 103.36632 
L 26.426592 104.22288 
L 35.657997 103.85136 
L 44.735121 103.68624 
L 53.59981 103.43856 
L 62.730697 103.81008 
L 71.820897 103.72752 
L 80.893524 103.50048 
L 89.864587 103.5108 
L 98.967338 103.31472 
L 108.304909 102.95352 
L 117.393644 102.61296 
L 126.142962 102.6336 
L 135.136828 102.9948 
L 144.386851 103.28376 
L 153.062638 103.01544 
L 162.287872 102.69552 
L 171.589566 102.582 
L 180.086492 102.88128 
L 189.155981 103.15992 
L 198.190744 103.36632 
L 207.274249 103.36632 
L 216.20065 102.81936 
L 225.41009 103.0464 
L 234.512632 102.9432 
L 243.374601 102.59232 
L 252.54398 102.40656 
L 261.422894 102.02472 
L 270.361741 101.68416 
L 279.36 101.3436 
" clip-path="url(#p2b975860a6)" style="fill: none; stroke: #bebebe; stroke-width: 0.5; stroke-linecap: round"/>
   </g>
   <g id="line2d_6">
    <path d="M 8.64 93.05664 
L 17.528327 93.74808 
L 26.426592 97.02984 
L 35.657997 95.93592 
L 44.735121 95.07936 
L 53.59981 94.46016 
L 62.730697 95.47152 
L 71.820897 95.11032 
L 80.893524 94.82136 
L 89.864587 94.8936 
L 98.967338 94.70784 
L 108.304909 94.04736 
L 117.393644 93.40752 
L 126.142962 92.9844 
L 135.136828 93.93384 
L 144.386851 94.4292 
L 153.062638 94.19184 
L 162.287872 93.87192 
L 171.589566 93.81 
L 180.086492 94.03704 
L 189.155981 94.83168 
L 198.190744 95.48184 
L 207.274249 96.63768 
L 216.20065 96.14232 
L 225.41009 96.30744 
L 234.512632 96.29712 
L 243.374601 96.04944 
L 252.54398 95.9256 
L 261.422894 95.39928 
L 270.361741 94.31568 
L 279.36 93.57264 
" clip-path="url(#p2b975860a6)" style="fill: none; stroke: #4a8dff; stroke-width: 0.6"/>
   </g>
   <g id="line2d_7">
    <path d="M 8.64 101.99376 
L 17.528327 102.08664 
L 26.426592 102.8916 
L 35.657997 102.45816 
L 44.735121 102.28272 
L 53.59981 102.10728 
L 62.730697 102.582 
L 71.820897 102.29304 
L 80.893524 102.08664 
L 89.864587 102.066 
L 98.967338 101.86992 
L 108.304909 101.48808 
L 117.393644 101.40552 
L 126.142962 101.4984 
L 135.136828 101.97312 
L 144.386851 102.26208 
L 153.062638 102.066 
L 162.287872 101.90088 
L 171.589566 101.90088 
L 180.086492 102.0144 
L 189.155981 102.25176 
L 198.190744 102.6336 
L 207.274249 102.88128 
L 216.20065 102.77808 
L 225.41009 102.85032 
L 234.512632 102.93288 
L 243.374601 102.95352 
L 252.54398 103.00512 
L 261.422894 102.69552 
L 270.361741 102.55104 
L 279.36 102.2724 
" clip-path="url(#p2b975860a6)" style="fill: none; stroke: #f5841e; stroke-width: 0.6"/>
   </g>
  </g>
 </g>
 <defs>
  <clipPath id="p2b975860a6">
   <rect x="8.64" y="4.8" width="270.72" height="103.2"/>
  </clipPath>
 </defs>
</svg>
