<?xml version="1.0" encoding="utf-8" standalone="no"?>
<!DOCTYPE svg PUBLIC "-//W3C//DTD SVG 1.1//EN"
  "http://www.w3.org/Graphics/SVG/1.1/DTD/svg11.dtd">
<svg xmlns:xlink="http://www.w3.org/1999/xlink" width="288pt" height="120pt" viewBox="0 0 288 120" xmlns="http://www.w3.org/2000/svg" version="1.1">
<desc id="nav-meta">{"window":"1m","count":4,"labels":["08.01","18.01","27.01","06.02"],"tick_utc":["2026-01-08T12:00:00Z","2026-01-18T12:00:00Z","2026-01-27T12:00:00Z","2026-02-06T03:19:18Z"],"w":720,"h":300}</desc>

 <metadata>
  <rdf:RDF xmlns:dc="http://purl.org/dc/elements/1.1/" xmlns:cc="http://creativecommons.org/ns#" xmlns:rdf="http://www.w3.org/1999/02/22-rdf-syntax-ns#">
   <cc:Work>
    <dc:type rdf:resource="http://purl.org/dc/dcmitype/StillImage"/>
    <dc:date>2026-02-06T19:26:26.388251</dc:date>
    <dc:format>image/svg+xml</dc:format>
    <dc:creator>
     <cc:Agent>
      <dc:title>Matplotlib v3.10.8, https://matplotlib.org/</dc:title>
     </cc:Agent>
    </dc:creator>
   </cc:Work>
  </rdf:RDF>
 </metadata>
 <defs>
  <style type="text/css">*{stroke-linejoin: round; stroke-linecap: butt}</style>
 </defs>
 <g id="figure_1">
  <g id="patch_1">
   <path d="M 0 120 
L 288 120 
L 288 0 
L 0 0 
L 0 120 
z
" style="fill: none; opacity: 0"/>
  </g>
  <g id="axes_1">
   <g id="patch_2">
    <path d="M 8.64 108 
L 279.36 108 
L 279.36 4.8 
L 8.64 4.8 
L 8.64 108 
z
" style="fill: none"/>
   </g>
   <g id="matplotlib.axis_1"/>
   <g id="matplotlib.axis_2"/>
   <g id="line2d_1">
    <path d="M 8.64 87.36 
L 279.36 87.36 
" clip-path="url(#p265cf89dd1)" style="fill: none; stroke: #b2b2b2; stroke-opacity: 0.35; stroke-width: 0.5; stroke-linecap: square"/>
   </g>
   <g id="line2d_2">
    <path d="M 8.64 66.72 
L 279.36 66.72 
" clip-path="url(#p265cf89dd1)" style="fill: none; stroke: #b2b2b2; stroke-opacity: 0.35; stroke-width: 0.5; stroke-linecap: square"/>
   </g>
   <g id="line2d_3">
    <path d="M 8.64 46.08 
L 279.36 46.08 
" clip-path="url(#p265cf89dd1)" style="fill: none; stroke: #b2b2b2; stroke-opacity: 0.35; stroke-width: 0.5; stroke-linecap: square"/>
   </g>
   <g id="line2d_4">
    <path d="M 8.64 25.44 
L 279.36 25.44 
" clip-path="url(#p265cf89dd1)" style="fill: none; stroke: #b2b2b2; stroke-opacity: 0.35; stroke-width: 0.5; stroke-linecap: square"/>
   </g>
   <g id="line2d_5">
    <path d="M 8.64 89.2692 
L 18.093041 88.72224 
L 27.546082 89.39304 
L 36.999123 89.40336 
L 46.452165 88.41264 
L 55.905206 88.4952 
L 65.358247 86.86464 
L 74.811288 86.42088 
L 84.264329 87.62832 
L 93.71737 86.93688 
L 103.170412 87.23616 
L 112.623453 88.63968 
L 122.076494 90.0432 
L 131.529535 92.12784 
L 140.982576 91.16808 
L 150.435617 91.46736 
L 159.888658 91.73568 
L 169.3417 91.78728 
L 178.794741 94.0164 
L 188.247782 92.5716 
L 197.700823 91.76664 
L 207.153864 92.33424 
L 216.606905 94.36728 
L 226.059947 94.46016 
L 235.512988 97.71096 
L 244.966029 98.48496 
L 254.41907 97.85544 
L 262.399559 99.10416 
L 269.911773 100.16712 
L 279.36 102.23112 
" clip-path="url(#p265cf89dd1)" style="fill: none; stroke: #bebebe; stroke-width: 0.5; stroke-linecap: round"/>
   </g>
   <g id="line2d_6">
    <path d="M 8.64 72.62304 
L 18.093041 73.52088 
L 27.546082 73.83048 
L 36.999123 73.8408 
L 46.452165 73.29384 
L 55.905206 73.72728 
L 65.358247 70.32168 
L 74.811288 69.77472 
L 84.264329 70.34232 
L 93.71737 70.67256 
L 103.170412 70.51776 
L 112.623453 70.848 
L 122.076494 72.31344 
L 131.529535 76.01832 
L 140.982576 75.41976 
L 150.435617 75.83256 
L 159.888658 75.79128 
L 169.3417 75.82224 
L 178.794741 77.82432 
L 188.247782 76.14216 
L 197.700823 74.75928 
L 207.153864 74.96568 
L 216.606905 77.75208 
L 226.059947 79.48584 
L 235.512988 83.31456 
L 244.966029 85.90488 
L 254.41907 84.79032 
L 262.399559 85.84296 
L 269.911773 88.25784 
L 279.36 91.41576 
" clip-path="url(#p265cf89dd1)" style="fill: none; stroke: #4a8dff; stroke-width: 0.6"/>
   </g>
   <g id="line2d_7">
    <path d="M 8.64 82.15872 
L 18.093041 82.43736 
L 27.546082 82.93272 
L 36.999123 83.00496 
L 46.452165 82.6128 
L 55.905206 82.28256 
L 65.358247 78.01008 
L 74.811288 76.19376 
L 84.264329 77.66952 
L 93.71737 77.74176 
L 103.170412 78.1752 
L 112.623453 79.5684 
L 122.076494 80.8068 
L 131.529535 85.20312 
L 140.982576 84.12984 
L 150.435617 84.03696 
L 159.888658 84.06792 
L 169.3417 84.3156 
L 178.794741 87.02976 
L 188.247782 85.21344 
L 197.700823 84.28464 
L 207.153864 84.32592 
L 216.606905 89.08344 
L 226.059947 89.5272 
L 235.512988 95.14128 
L 244.966029 96.98856 
L 254.41907 95.08968 
L 262.399559 97.71096 
L 269.911773 99.80592 
L 279.36 101.79768 
" clip-path="url(#p265cf89dd1)" style="fill: none; stroke: #f5841e; stroke-width: 0.6"/>
   </g>
  </g>
 </g>
 <defs>
  <clipPath id="p265cf89dd1">
   <rect x="8.64" y="4.8" width="270.72" height="103.2"/>
  </clipPath>
 </defs>
</svg>
