<?xml version="1.0" encoding="utf-8" standalone="no"?>
<!DOCTYPE svg PUBLIC "-//W3C//DTD SVG 1.1//EN"
  "http://www.w3.org/Graphics/SVG/1.1/DTD/svg11.dtd">
<svg xmlns:xlink="http://www.w3.org/1999/xlink" width="288pt" height="120pt" viewBox="0 0 288 120" xmlns="http://www.w3.org/2000/svg" version="1.1">
<desc id="nav-meta">{"window":"1m","count":4,"labels":["24.01","03.02","13.02","23.02"],"tick_utc":["2026-01-24T12:00:00Z","2026-02-03T12:00:00Z","2026-02-13T03:33:47Z","2026-02-23T03:32:23Z"],"w":720,"h":300}</desc>

 <metadata>
  <rdf:RDF xmlns:dc="http://purl.org/dc/elements/1.1/" xmlns:cc="http://creativecommons.org/ns#" xmlns:rdf="http://www.w3.org/1999/02/22-rdf-syntax-ns#">
   <cc:Work>
    <dc:type rdf:resource="http://purl.org/dc/dcmitype/StillImage"/>
    <dc:date>2026-02-23T07:41:21.944186</dc:date>
    <dc:format>image/svg+xml</dc:format>
    <dc:creator>
     <cc:Agent>
      <dc:title>Matplotlib v3.10.8, https://matplotlib.org/</dc:title>
     </cc:Agent>
    </dc:creator>
   </cc:Work>
  </rdf:RDF>
 </metadata>
 <defs>
  <style type="text/css">*{stroke-linejoin: round; stroke-linecap: butt}</style>
 </defs>
 <g id="figure_1">
  <g id="patch_1">
   <path d="M 0 120 
L 288 120 
L 288 0 
L 0 0 
L 0 120 
z
" style="fill: none; opacity: 0"/>
  </g>
  <g id="axes_1">
   <g id="patch_2">
    <path d="M 8.64 108 
L 279.36 108 
L 279.36 4.8 
L 8.64 4.8 
L 8.64 108 
z
" style="fill: none"/>
   </g>
   <g id="matplotlib.axis_1"/>
   <g id="matplotlib.axis_2"/>
   <g id="line2d_1">
    <path d="M 8.64 87.36 
L 279.36 87.36 
" clip-path="url(#pf4f5109a48)" style="fill: none; stroke: #b2b2b2; stroke-opacity: 0.35; stroke-width: 0.5; stroke-linecap: square"/>
   </g>
   <g id="line2d_2">
    <path d="M 8.64 66.72 
L 279.36 66.72 
" clip-path="url(#pf4f5109a48)" style="fill: none; stroke: #b2b2b2; stroke-opacity: 0.35; stroke-width: 0.5; stroke-linecap: square"/>
   </g>
   <g id="line2d_3">
    <path d="M 8.64 46.08 
L 279.36 46.08 
" clip-path="url(#pf4f5109a48)" style="fill: none; stroke: #b2b2b2; stroke-opacity: 0.35; stroke-width: 0.5; stroke-linecap: square"/>
   </g>
   <g id="line2d_4">
    <path d="M 8.64 25.44 
L 279.36 25.44 
" clip-path="url(#pf4f5109a48)" style="fill: none; stroke: #b2b2b2; stroke-opacity: 0.35; stroke-width: 0.5; stroke-linecap: square"/>
   </g>
   <g id="line2d_5">
    <path d="M 8.64 91.73568 
L 17.771296 91.78728 
L 26.902593 94.0164 
L 36.033889 92.5716 
L 45.165185 91.76664 
L 54.296481 92.33424 
L 63.427778 94.36728 
L 72.559074 94.46016 
L 81.69037 97.71096 
L 90.821666 98.48496 
L 99.952963 97.85544 
L 107.661827 99.10416 
L 114.918354 100.16712 
L 124.045 102.23112 
L 133.137192 100.54896 
L 142.477219 100.70376 
L 151.533161 100.68312 
L 160.71656 100.95144 
L 169.828939 101.28168 
L 178.927367 101.71512 
L 188.055915 101.84928 
L 197.077403 101.034 
L 205.726876 100.54896 
L 215.443885 101.04432 
L 223.428168 100.81728 
L 233.691999 101.034 
L 242.812198 101.4984 
L 251.890123 101.33328 
L 260.965617 101.1372 
L 270.201225 101.06496 
L 279.36 102.09696 
" clip-path="url(#pf4f5109a48)" style="fill: none; stroke: #bebebe; stroke-width: 0.5; stroke-linecap: round"/>
   </g>
   <g id="line2d_6">
    <path d="M 8.64 75.79128 
L 17.771296 75.82224 
L 26.902593 77.82432 
L 36.033889 76.14216 
L 45.165185 74.75928 
L 54.296481 74.96568 
L 63.427778 77.75208 
L 72.559074 79.48584 
L 81.69037 83.31456 
L 90.821666 85.90488 
L 99.952963 84.79032 
L 107.661827 85.84296 
L 114.918354 88.25784 
L 124.045 91.41576 
L 133.137192 88.7532 
L 142.477219 88.65 
L 151.533161 88.55712 
L 160.71656 88.96992 
L 169.828939 89.7336 
L 178.927367 90.456 
L 188.055915 90.56952 
L 197.077403 89.15568 
L 205.726876 88.9596 
L 215.443885 90.6624 
L 223.428168 89.94 
L 233.691999 90.00192 
L 242.812198 90.3528 
L 251.890123 90.62112 
L 260.965617 90.5076 
L 270.201225 90.3528 
L 279.36 92.004 
" clip-path="url(#pf4f5109a48)" style="fill: none; stroke: #4a8dff; stroke-width: 0.6"/>
   </g>
   <g id="line2d_7">
    <path d="M 8.64 84.06792 
L 17.771296 84.3156 
L 26.902593 87.02976 
L 36.033889 85.21344 
L 45.165185 84.28464 
L 54.296481 84.32592 
L 63.427778 89.08344 
L 72.559074 89.5272 
L 81.69037 95.14128 
L 90.821666 96.98856 
L 99.952963 95.08968 
L 107.661827 97.71096 
L 114.918354 99.80592 
L 124.045 101.79768 
L 133.137192 100.03296 
L 142.477219 100.518 
L 151.533161 99.98136 
L 160.71656 100.49736 
L 169.828939 100.78632 
L 178.927367 101.07528 
L 188.055915 101.26104 
L 197.077403 100.63152 
L 205.726876 100.38384 
L 215.443885 100.84824 
L 223.428168 100.65216 
L 233.691999 101.034 
L 242.812198 101.19912 
L 251.890123 101.10624 
L 260.965617 100.97208 
L 270.201225 100.91016 
L 279.36 101.7564 
" clip-path="url(#pf4f5109a48)" style="fill: none; stroke: #f5841e; stroke-width: 0.6"/>
   </g>
  </g>
 </g>
 <defs>
  <clipPath id="pf4f5109a48">
   <rect x="8.64" y="4.8" width="270.72" height="103.2"/>
  </clipPath>
 </defs>
</svg>
