<?xml version="1.0" encoding="utf-8" standalone="no"?>
<!DOCTYPE svg PUBLIC "-//W3C//DTD SVG 1.1//EN"
  "http://www.w3.org/Graphics/SVG/1.1/DTD/svg11.dtd">
<svg xmlns:xlink="http://www.w3.org/1999/xlink" width="288pt" height="120pt" viewBox="0 0 288 120" xmlns="http://www.w3.org/2000/svg" version="1.1">
<desc id="nav-meta">{"window":"3m","count":4,"labels":["20.11","20.12","18.01","17.02"],"tick_utc":["2025-11-20T12:00:00Z","2025-12-20T12:00:00Z","2026-01-18T12:00:00Z","2026-02-17T00:31:58Z"],"w":720,"h":300}</desc>

 <metadata>
  <rdf:RDF xmlns:dc="http://purl.org/dc/elements/1.1/" xmlns:cc="http://creativecommons.org/ns#" xmlns:rdf="http://www.w3.org/1999/02/22-rdf-syntax-ns#">
   <cc:Work>
    <dc:type rdf:resource="http://purl.org/dc/dcmitype/StillImage"/>
    <dc:date>2026-02-17T19:35:26.534609</dc:date>
    <dc:format>image/svg+xml</dc:format>
    <dc:creator>
     <cc:Agent>
      <dc:title>Matplotlib v3.10.8, https://matplotlib.org/</dc:title>
     </cc:Agent>
    </dc:creator>
   </cc:Work>
  </rdf:RDF>
 </metadata>
 <defs>
  <style type="text/css">*{stroke-linejoin: round; stroke-linecap: butt}</style>
 </defs>
 <g id="figure_1">
  <g id="patch_1">
   <path d="M 0 120 
L 288 120 
L 288 0 
L 0 0 
L 0 120 
z
" style="fill: none; opacity: 0"/>
  </g>
  <g id="axes_1">
   <g id="patch_2">
    <path d="M 8.64 108 
L 279.36 108 
L 279.36 4.8 
L 8.64 4.8 
L 8.64 108 
z
" style="fill: none"/>
   </g>
   <g id="matplotlib.axis_1"/>
   <g id="matplotlib.axis_2"/>
   <g id="line2d_1">
    <path d="M 8.64 87.36 
L 279.36 87.36 
" clip-path="url(#pc6fcdac3a1)" style="fill: none; stroke: #b2b2b2; stroke-opacity: 0.35; stroke-width: 0.5; stroke-linecap: square"/>
   </g>
   <g id="line2d_2">
    <path d="M 8.64 66.72 
L 279.36 66.72 
" clip-path="url(#pc6fcdac3a1)" style="fill: none; stroke: #b2b2b2; stroke-opacity: 0.35; stroke-width: 0.5; stroke-linecap: square"/>
   </g>
   <g id="line2d_3">
    <path d="M 8.64 46.08 
L 279.36 46.08 
" clip-path="url(#pc6fcdac3a1)" style="fill: none; stroke: #b2b2b2; stroke-opacity: 0.35; stroke-width: 0.5; stroke-linecap: square"/>
   </g>
   <g id="line2d_4">
    <path d="M 8.64 25.44 
L 279.36 25.44 
" clip-path="url(#pc6fcdac3a1)" style="fill: none; stroke: #b2b2b2; stroke-opacity: 0.35; stroke-width: 0.5; stroke-linecap: square"/>
   </g>
   <g id="line2d_5">
    <path d="M 8.64 89.22792 
L 11.698216 90.00192 
L 14.756432 91.39512 
L 17.814648 91.63248 
L 20.872864 90.75528 
L 23.93108 88.7016 
L 26.989296 88.52616 
L 30.047512 87.45288 
L 33.105727 88.0308 
L 36.163943 88.94928 
L 39.222159 89.3208 
L 42.280375 89.7336 
L 45.338591 91.86984 
L 48.396807 88.60872 
L 51.455023 86.87496 
L 54.513239 88.52616 
L 57.571455 90.11544 
L 60.629671 90.38376 
L 63.687887 90.53856 
L 66.746103 90.08448 
L 69.804319 88.79448 
L 72.862535 89.20728 
L 75.920751 89.22792 
L 78.978967 90.31152 
L 82.037182 90.10512 
L 85.095398 91.09584 
L 88.153614 91.61184 
L 91.21183 91.31256 
L 94.270046 92.87088 
L 97.328262 93.8616 
L 100.386478 92.02464 
L 103.444694 92.13816 
L 106.50291 92.07624 
L 109.561126 92.14848 
L 112.619342 92.64384 
L 115.677558 93.01536 
L 118.735774 93.69648 
L 121.79399 93.11856 
L 124.852206 92.44776 
L 127.910422 92.30328 
L 130.968637 92.87088 
L 134.026853 92.38584 
L 137.085069 92.47872 
L 140.143285 91.88016 
L 143.201501 90.42504 
L 146.259717 90.08448 
L 149.317933 89.92968 
L 152.376149 88.76352 
L 155.434365 87.94824 
L 158.492581 89.2692 
L 161.550797 88.72224 
L 164.609013 89.39304 
L 167.667229 89.40336 
L 170.725445 88.41264 
L 173.783661 88.4952 
L 176.841877 86.86464 
L 179.900092 86.42088 
L 182.958308 87.62832 
L 186.016524 86.93688 
L 189.07474 87.23616 
L 192.132956 88.63968 
L 195.191172 90.0432 
L 198.249388 92.12784 
L 201.307604 91.16808 
L 204.36582 91.46736 
L 207.424036 91.73568 
L 210.482252 91.78728 
L 213.540468 94.0164 
L 216.598684 92.5716 
L 219.6569 91.76664 
L 222.715116 92.33424 
L 225.773332 94.36728 
L 228.831547 94.46016 
L 231.889763 97.71096 
L 234.947979 98.48496 
L 238.006195 97.85544 
L 240.588016 99.10416 
L 243.018342 100.16712 
L 246.075001 102.23112 
L 249.12012 100.54896 
L 252.248243 100.70376 
L 255.281222 100.68312 
L 258.356888 100.95144 
L 261.408768 101.28168 
L 264.455976 101.71512 
L 267.513271 101.84928 
L 270.534711 101.034 
L 273.431556 100.54896 
L 276.685937 101.04432 
L 279.36 100.81728 
" clip-path="url(#pc6fcdac3a1)" style="fill: none; stroke: #bebebe; stroke-width: 0.5; stroke-linecap: round"/>
   </g>
   <g id="line2d_6">
    <path d="M 8.64 74.80056 
L 11.698216 77.556 
L 14.756432 78.55704 
L 17.814648 78.50544 
L 20.872864 78.04104 
L 23.93108 75.76032 
L 26.989296 75.73968 
L 30.047512 74.65608 
L 33.105727 74.83152 
L 36.163943 74.57352 
L 39.222159 75.20304 
L 42.280375 75.17208 
L 45.338591 78.05136 
L 48.396807 75.1308 
L 51.455023 72.16896 
L 54.513239 73.08744 
L 57.571455 74.72832 
L 60.629671 74.48064 
L 63.687887 74.28456 
L 66.746103 73.21128 
L 69.804319 70.2804 
L 72.862535 70.2288 
L 75.920751 71.56008 
L 78.978967 73.79952 
L 82.037182 73.35576 
L 85.095398 74.0988 
L 88.153614 75.5952 
L 91.21183 75.5952 
L 94.270046 77.61792 
L 97.328262 77.63856 
L 100.386478 75.40944 
L 103.444694 75.40944 
L 106.50291 75.04824 
L 109.561126 74.98632 
L 112.619342 75.58488 
L 115.677558 75.87384 
L 118.735774 76.49304 
L 121.79399 76.15248 
L 124.852206 75.82224 
L 127.910422 75.84288 
L 130.968637 76.03896 
L 134.026853 75.51264 
L 137.085069 75.56424 
L 140.143285 75.05856 
L 143.201501 73.26288 
L 146.259717 73.20096 
L 149.317933 73.00488 
L 152.376149 71.68392 
L 155.434365 70.6932 
L 158.492581 72.62304 
L 161.550797 73.52088 
L 164.609013 73.83048 
L 167.667229 73.8408 
L 170.725445 73.29384 
L 173.783661 73.72728 
L 176.841877 70.32168 
L 179.900092 69.77472 
L 182.958308 70.34232 
L 186.016524 70.67256 
L 189.07474 70.51776 
L 192.132956 70.848 
L 195.191172 72.31344 
L 198.249388 76.01832 
L 201.307604 75.41976 
L 204.36582 75.83256 
L 207.424036 75.79128 
L 210.482252 75.82224 
L 213.540468 77.82432 
L 216.598684 76.14216 
L 219.6569 74.75928 
L 222.715116 74.96568 
L 225.773332 77.75208 
L 228.831547 79.48584 
L 231.889763 83.31456 
L 234.947979 85.90488 
L 238.006195 84.79032 
L 240.588016 85.84296 
L 243.018342 88.25784 
L 246.075001 91.41576 
L 249.12012 88.7532 
L 252.248243 88.65 
L 255.281222 88.55712 
L 258.356888 88.96992 
L 261.408768 89.7336 
L 264.455976 90.456 
L 267.513271 90.56952 
L 270.534711 89.15568 
L 273.431556 88.9596 
L 276.685937 90.6624 
L 279.36 89.94 
" clip-path="url(#pc6fcdac3a1)" style="fill: none; stroke: #4a8dff; stroke-width: 0.6"/>
   </g>
   <g id="line2d_7">
    <path d="M 8.64 82.0452 
L 11.698216 86.92656 
L 14.756432 88.58808 
L 17.814648 88.96992 
L 20.872864 86.7924 
L 23.93108 85.296 
L 26.989296 86.24544 
L 30.047512 82.96368 
L 33.105727 82.13808 
L 36.163943 82.47864 
L 39.222159 82.58184 
L 42.280375 83.03592 
L 45.338591 87.3084 
L 48.396807 82.06584 
L 51.455023 79.71288 
L 54.513239 81.24024 
L 57.571455 84.17112 
L 60.629671 84.24336 
L 63.687887 83.29392 
L 66.746103 82.8192 
L 69.804319 80.64168 
L 72.862535 81.38472 
L 75.920751 80.87904 
L 78.978967 83.13912 
L 82.037182 83.19072 
L 85.095398 85.296 
L 88.153614 87.17424 
L 91.21183 85.71912 
L 94.270046 87.53544 
L 97.328262 88.17528 
L 100.386478 85.41984 
L 103.444694 85.17216 
L 106.50291 84.9348 
L 109.561126 85.01736 
L 112.619342 86.14224 
L 115.677558 85.90488 
L 118.735774 86.328 
L 121.79399 86.24544 
L 124.852206 85.72944 
L 127.910422 85.7088 
L 130.968637 86.40024 
L 134.026853 85.09992 
L 137.085069 86.02872 
L 140.143285 84.78 
L 143.201501 83.53128 
L 146.259717 82.83984 
L 149.317933 82.03488 
L 152.376149 79.39296 
L 155.434365 79.66128 
L 158.492581 82.15872 
L 161.550797 82.43736 
L 164.609013 82.93272 
L 167.667229 83.00496 
L 170.725445 82.6128 
L 173.783661 82.28256 
L 176.841877 78.01008 
L 179.900092 76.19376 
L 182.958308 77.66952 
L 186.016524 77.74176 
L 189.07474 78.1752 
L 192.132956 79.5684 
L 195.191172 80.8068 
L 198.249388 85.20312 
L 201.307604 84.12984 
L 204.36582 84.03696 
L 207.424036 84.06792 
L 210.482252 84.3156 
L 213.540468 87.02976 
L 216.598684 85.21344 
L 219.6569 84.28464 
L 222.715116 84.32592 
L 225.773332 89.08344 
L 228.831547 89.5272 
L 231.889763 95.14128 
L 234.947979 96.98856 
L 238.006195 95.08968 
L 240.588016 97.71096 
L 243.018342 99.80592 
L 246.075001 101.79768 
L 249.12012 100.03296 
L 252.248243 100.518 
L 255.281222 99.98136 
L 258.356888 100.49736 
L 261.408768 100.78632 
L 264.455976 101.07528 
L 267.513271 101.26104 
L 270.534711 100.63152 
L 273.431556 100.38384 
L 276.685937 100.84824 
L 279.36 100.65216 
" clip-path="url(#pc6fcdac3a1)" style="fill: none; stroke: #f5841e; stroke-width: 0.6"/>
   </g>
  </g>
 </g>
 <defs>
  <clipPath id="pc6fcdac3a1">
   <rect x="8.64" y="4.8" width="270.72" height="103.2"/>
  </clipPath>
 </defs>
</svg>
