<?xml version="1.0" encoding="utf-8" standalone="no"?>
<!DOCTYPE svg PUBLIC "-//W3C//DTD SVG 1.1//EN"
  "http://www.w3.org/Graphics/SVG/1.1/DTD/svg11.dtd">
<svg xmlns:xlink="http://www.w3.org/1999/xlink" width="288pt" height="120pt" viewBox="0 0 288 120" xmlns="http://www.w3.org/2000/svg" version="1.1">
<desc id="nav-meta">{"window":"3m","count":4,"labels":["07.03","06.04","05.05","04.06"],"tick_utc":["2026-03-07T03:05:35Z","2026-04-06T03:50:17Z","2026-05-05T03:59:32Z","2026-06-04T05:26:51Z"],"w":720,"h":300}</desc>

 <metadata>
  <rdf:RDF xmlns:dc="http://purl.org/dc/elements/1.1/" xmlns:cc="http://creativecommons.org/ns#" xmlns:rdf="http://www.w3.org/1999/02/22-rdf-syntax-ns#">
   <cc:Work>
    <dc:type rdf:resource="http://purl.org/dc/dcmitype/StillImage"/>
    <dc:date>2026-06-04T05:26:52.809038</dc:date>
    <dc:format>image/svg+xml</dc:format>
    <dc:creator>
     <cc:Agent>
      <dc:title>Matplotlib v3.10.9, https://matplotlib.org/</dc:title>
     </cc:Agent>
    </dc:creator>
   </cc:Work>
  </rdf:RDF>
 </metadata>
 <defs>
  <style type="text/css">*{stroke-linejoin: round; stroke-linecap: butt}</style>
 </defs>
 <g id="figure_1">
  <g id="patch_1">
   <path d="M 0 120 
L 288 120 
L 288 0 
L 0 0 
L 0 120 
z
" style="fill: none; opacity: 0"/>
  </g>
  <g id="axes_1">
   <g id="patch_2">
    <path d="M 8.64 108 
L 279.36 108 
L 279.36 4.8 
L 8.64 4.8 
L 8.64 108 
z
" style="fill: none"/>
   </g>
   <g id="matplotlib.axis_1"/>
   <g id="matplotlib.axis_2"/>
   <g id="line2d_1">
    <path d="M 8.64 87.36 
L 279.36 87.36 
" clip-path="url(#paac6f5e57c)" style="fill: none; stroke: #b2b2b2; stroke-opacity: 0.35; stroke-width: 0.5; stroke-linecap: square"/>
   </g>
   <g id="line2d_2">
    <path d="M 8.64 66.72 
L 279.36 66.72 
" clip-path="url(#paac6f5e57c)" style="fill: none; stroke: #b2b2b2; stroke-opacity: 0.35; stroke-width: 0.5; stroke-linecap: square"/>
   </g>
   <g id="line2d_3">
    <path d="M 8.64 46.08 
L 279.36 46.08 
" clip-path="url(#paac6f5e57c)" style="fill: none; stroke: #b2b2b2; stroke-opacity: 0.35; stroke-width: 0.5; stroke-linecap: square"/>
   </g>
   <g id="line2d_4">
    <path d="M 8.64 25.44 
L 279.36 25.44 
" clip-path="url(#paac6f5e57c)" style="fill: none; stroke: #b2b2b2; stroke-opacity: 0.35; stroke-width: 0.5; stroke-linecap: square"/>
   </g>
   <g id="line2d_5">
    <path d="M 8.64 101.07528 
L 11.707954 101.38488 
L 14.755511 101.26104 
L 17.774442 100.78632 
L 20.811694 100.91016 
L 23.8621 100.99272 
L 26.894675 100.38384 
L 29.92908 100.50768 
L 33.02566 100.60056 
L 36.072689 99.76464 
L 39.057965 99.49632 
L 42.119589 99.40344 
L 45.158881 100.09488 
L 48.167754 100.3632 
L 51.188408 100.19808 
L 54.272293 100.47672 
L 57.31788 100.79664 
L 60.328195 100.26 
L 63.592945 99.83688 
L 66.442053 100.13616 
L 69.484335 100.80696 
L 72.493735 101.38488 
L 75.573576 101.3436 
L 78.62071 101.292 
L 81.639993 101.28168 
L 84.7045 101.28168 
L 87.702929 101.8596 
L 90.744859 101.88024 
L 93.757284 101.72544 
L 96.841485 101.68416 
L 99.887776 101.47776 
L 102.906495 101.78736 
L 105.949867 101.09592 
L 108.977731 101.46744 
L 112.044137 101.3436 
L 115.03613 101.05464 
L 118.129087 101.3952 
L 121.183115 101.47776 
L 124.202222 100.86888 
L 127.238349 101.26104 
L 130.28995 100.99272 
L 133.322209 100.61088 
L 136.327144 100.44576 
L 139.405718 100.94112 
L 142.451692 101.09592 
L 145.476813 101.00304 
L 148.505836 100.69344 
L 151.556593 100.9308 
L 154.603095 100.92048 
L 157.605286 100.81728 
L 160.691 100.8792 
L 163.762189 100.64184 
L 166.807003 101.1888 
L 169.837152 101.09592 
L 172.8807 101.37456 
L 175.952346 101.21976 
L 178.913251 101.20944 
L 182.013383 101.23008 
L 185.050777 100.92048 
L 188.022302 101.06496 
L 191.114275 100.70376 
L 194.153532 100.55928 
L 197.14141 100.53864 
L 200.190972 99.60984 
L 203.290647 99.72336 
L 206.353079 99.44472 
L 209.349327 99.25896 
L 212.402229 99.32088 
L 215.437302 100.22904 
L 218.490732 100.01232 
L 221.490391 100.43544 
L 224.574205 100.75536 
L 227.642159 101.02368 
L 230.658839 101.02368 
L 233.708154 101.17848 
L 236.763905 100.7244 
L 239.779073 100.75536 
L 242.775778 101.11656 
L 245.862335 100.91016 
L 248.940769 100.89984 
L 251.933184 101.1372 
L 255.002826 101.2404 
L 258.031568 101.6532 
L 261.072267 101.4984 
L 264.066898 101.48808 
L 267.167381 101.32296 
L 270.250773 101.51904 
L 273.25933 101.7048 
L 276.331961 102.54072 
L 279.36 103.08768 
" clip-path="url(#paac6f5e57c)" style="fill: none; stroke: #bebebe; stroke-width: 0.5; stroke-linecap: round"/>
   </g>
   <g id="line2d_6">
    <path d="M 8.64 90.16704 
L 11.707954 90.67272 
L 14.755511 90.18768 
L 17.774442 89.2692 
L 20.811694 89.54784 
L 23.8621 89.49624 
L 26.894675 88.31976 
L 29.92908 88.45392 
L 33.02566 88.46424 
L 36.072689 86.38992 
L 39.057965 84.80064 
L 42.119589 84.8316 
L 45.158881 86.586 
L 48.167754 87.74184 
L 51.188408 87.618 
L 54.272293 88.19592 
L 57.31788 89.08344 
L 60.328195 87.89664 
L 63.592945 87.3084 
L 66.442053 87.65928 
L 69.484335 88.96992 
L 72.493735 90.07416 
L 75.573576 89.76456 
L 78.62071 89.3724 
L 81.639993 89.00088 
L 84.7045 88.42296 
L 87.702929 88.81512 
L 90.744859 89.10408 
L 93.757284 89.14536 
L 96.841485 89.07312 
L 99.887776 87.9792 
L 102.906495 88.29912 
L 105.949867 86.38992 
L 108.977731 87.24648 
L 112.044137 87.1536 
L 115.03613 86.21448 
L 118.129087 86.66856 
L 121.183115 87.01944 
L 124.202222 84.44976 
L 127.238349 85.05864 
L 130.28995 84.58392 
L 133.322209 85.04832 
L 136.327144 83.71704 
L 139.405718 84.86256 
L 142.451692 85.6572 
L 145.476813 85.27536 
L 148.505836 84.49104 
L 151.556593 84.86256 
L 154.603095 85.32696 
L 157.605286 85.17216 
L 160.691 85.31664 
L 163.762189 84.11952 
L 166.807003 85.66752 
L 169.837152 85.26504 
L 172.8807 86.26608 
L 175.952346 85.77072 
L 178.913251 85.38888 
L 182.013383 85.3992 
L 185.050777 84.09888 
L 188.022302 84.22272 
L 191.114275 84.34656 
L 194.153532 85.06896 
L 197.14141 85.7604 
L 200.190972 85.0896 
L 203.290647 85.01736 
L 206.353079 84.9348 
L 209.349327 85.296 
L 212.402229 85.35792 
L 215.437302 86.1732 
L 218.490732 85.92552 
L 221.490391 86.55504 
L 224.574205 87.13296 
L 227.642159 88.10304 
L 230.658839 87.9276 
L 233.708154 88.26816 
L 236.763905 87.78312 
L 239.779073 87.95856 
L 242.775778 88.94928 
L 245.862335 88.14432 
L 248.940769 88.33008 
L 251.933184 88.52616 
L 255.002826 88.86672 
L 258.031568 90.22896 
L 261.072267 89.82648 
L 264.066898 89.87808 
L 267.167381 89.46528 
L 270.250773 90.0432 
L 273.25933 89.96064 
L 276.331961 91.99368 
L 279.36 93.05664 
" clip-path="url(#paac6f5e57c)" style="fill: none; stroke: #4a8dff; stroke-width: 0.6"/>
   </g>
   <g id="line2d_7">
    <path d="M 8.64 100.78632 
L 11.707954 101.17848 
L 14.755511 101.1372 
L 17.774442 100.21872 
L 20.811694 100.37352 
L 23.8621 100.4664 
L 26.894675 99.88848 
L 29.92908 99.94008 
L 33.02566 99.81624 
L 36.072689 98.93904 
L 39.057965 98.3508 
L 42.119589 98.52624 
L 45.158881 99.78528 
L 48.167754 100.12584 
L 51.188408 100.03296 
L 54.272293 100.45608 
L 57.31788 100.83792 
L 60.328195 100.11552 
L 63.592945 99.87816 
L 66.442053 100.002 
L 69.484335 100.64184 
L 72.493735 101.41584 
L 75.573576 101.21976 
L 78.62071 101.14752 
L 81.639993 101.00304 
L 84.7045 100.86888 
L 87.702929 101.21976 
L 90.744859 101.28168 
L 93.757284 101.20944 
L 96.841485 101.14752 
L 99.887776 100.55928 
L 102.906495 100.65216 
L 105.949867 99.80592 
L 108.977731 99.96072 
L 112.044137 99.6408 
L 115.03613 99.1764 
L 118.129087 99.70272 
L 121.183115 99.94008 
L 124.202222 98.57784 
L 127.238349 98.65008 
L 130.28995 98.38176 
L 133.322209 98.48496 
L 136.327144 96.70992 
L 139.405718 98.05152 
L 142.451692 98.48496 
L 145.476813 97.96896 
L 148.505836 96.32808 
L 151.556593 96.20424 
L 154.603095 96.16296 
L 157.605286 96.1836 
L 160.691 96.50352 
L 163.762189 94.76976 
L 166.807003 97.19496 
L 169.837152 96.9576 
L 172.8807 97.9896 
L 175.952346 96.89568 
L 178.913251 95.45088 
L 182.013383 95.67792 
L 185.050777 93.43848 
L 188.022302 92.90184 
L 191.114275 92.25168 
L 194.153532 92.87088 
L 197.14141 94.2744 
L 200.190972 93.1392 
L 203.290647 92.97408 
L 206.353079 92.9844 
L 209.349327 92.60256 
L 212.402229 92.53032 
L 215.437302 94.54272 
L 218.490732 92.85024 
L 221.490391 94.82136 
L 224.574205 95.75016 
L 227.642159 96.97824 
L 230.658839 97.08144 
L 233.708154 97.23624 
L 236.763905 95.94624 
L 239.779073 96.30744 
L 242.775778 98.08248 
L 245.862335 97.2672 
L 248.940769 96.61704 
L 251.933184 97.23624 
L 255.002826 98.08248 
L 258.031568 99.18672 
L 261.072267 99.03192 
L 264.066898 99.1248 
L 267.167381 98.74296 
L 270.250773 99.09384 
L 273.25933 100.0536 
L 276.331961 101.23008 
L 279.36 101.99376 
" clip-path="url(#paac6f5e57c)" style="fill: none; stroke: #f5841e; stroke-width: 0.6"/>
   </g>
  </g>
 </g>
 <defs>
  <clipPath id="paac6f5e57c">
   <rect x="8.64" y="4.8" width="270.72" height="103.2"/>
  </clipPath>
 </defs>
</svg>
