<?xml version="1.0" encoding="utf-8" standalone="no"?>
<!DOCTYPE svg PUBLIC "-//W3C//DTD SVG 1.1//EN"
  "http://www.w3.org/Graphics/SVG/1.1/DTD/svg11.dtd">
<svg xmlns:xlink="http://www.w3.org/1999/xlink" width="288pt" height="120pt" viewBox="0 0 288 120" xmlns="http://www.w3.org/2000/svg" version="1.1">
<desc id="nav-meta">{"window":"3m","count":4,"labels":["17.01","16.02","17.03","16.04"],"tick_utc":["2026-01-17T12:00:00Z","2026-02-16T03:32:51Z","2026-03-17T03:21:27Z","2026-04-16T03:58:40Z"],"w":720,"h":300}</desc>

 <metadata>
  <rdf:RDF xmlns:dc="http://purl.org/dc/elements/1.1/" xmlns:cc="http://creativecommons.org/ns#" xmlns:rdf="http://www.w3.org/1999/02/22-rdf-syntax-ns#">
   <cc:Work>
    <dc:type rdf:resource="http://purl.org/dc/dcmitype/StillImage"/>
    <dc:date>2026-04-16T19:48:53.514038</dc:date>
    <dc:format>image/svg+xml</dc:format>
    <dc:creator>
     <cc:Agent>
      <dc:title>Matplotlib v3.10.8, https://matplotlib.org/</dc:title>
     </cc:Agent>
    </dc:creator>
   </cc:Work>
  </rdf:RDF>
 </metadata>
 <defs>
  <style type="text/css">*{stroke-linejoin: round; stroke-linecap: butt}</style>
 </defs>
 <g id="figure_1">
  <g id="patch_1">
   <path d="M 0 120 
L 288 120 
L 288 0 
L 0 0 
L 0 120 
z
" style="fill: none; opacity: 0"/>
  </g>
  <g id="axes_1">
   <g id="patch_2">
    <path d="M 8.64 108 
L 279.36 108 
L 279.36 4.8 
L 8.64 4.8 
L 8.64 108 
z
" style="fill: none"/>
   </g>
   <g id="matplotlib.axis_1"/>
   <g id="matplotlib.axis_2"/>
   <g id="line2d_1">
    <path d="M 8.64 87.36 
L 279.36 87.36 
" clip-path="url(#p57c0471ae8)" style="fill: none; stroke: #b2b2b2; stroke-opacity: 0.35; stroke-width: 0.5; stroke-linecap: square"/>
   </g>
   <g id="line2d_2">
    <path d="M 8.64 66.72 
L 279.36 66.72 
" clip-path="url(#p57c0471ae8)" style="fill: none; stroke: #b2b2b2; stroke-opacity: 0.35; stroke-width: 0.5; stroke-linecap: square"/>
   </g>
   <g id="line2d_3">
    <path d="M 8.64 46.08 
L 279.36 46.08 
" clip-path="url(#p57c0471ae8)" style="fill: none; stroke: #b2b2b2; stroke-opacity: 0.35; stroke-width: 0.5; stroke-linecap: square"/>
   </g>
   <g id="line2d_4">
    <path d="M 8.64 25.44 
L 279.36 25.44 
" clip-path="url(#p57c0471ae8)" style="fill: none; stroke: #b2b2b2; stroke-opacity: 0.35; stroke-width: 0.5; stroke-linecap: square"/>
   </g>
   <g id="line2d_5">
    <path d="M 8.64 86.93688 
L 11.693265 87.23616 
L 14.74653 88.63968 
L 17.799795 90.0432 
L 20.85306 92.12784 
L 23.906325 91.16808 
L 26.95959 91.46736 
L 30.012855 91.73568 
L 33.06612 91.78728 
L 36.119385 94.0164 
L 39.17265 92.5716 
L 42.225915 91.76664 
L 45.27918 92.33424 
L 48.332445 94.36728 
L 51.38571 94.46016 
L 54.438975 97.71096 
L 57.492239 98.48496 
L 60.545504 97.85544 
L 63.123146 99.10416 
L 65.549537 100.16712 
L 68.601247 102.23112 
L 71.641437 100.54896 
L 74.764496 100.70376 
L 77.792564 100.68312 
L 80.863251 100.95144 
L 83.910191 101.28168 
L 86.952465 101.71512 
L 90.004811 101.84928 
L 93.021359 101.034 
L 95.913515 100.54896 
L 99.162627 101.04432 
L 101.832361 100.81728 
L 105.264316 101.034 
L 108.31387 101.4984 
L 111.349289 101.33328 
L 114.383895 101.1372 
L 117.47204 101.06496 
L 120.534493 102.09696 
L 123.32982 102.05568 
L 126.630032 101.4984 
L 129.669692 100.60056 
L 132.717161 100.80696 
L 135.734451 101.45712 
L 138.857086 100.55928 
L 141.878829 101.10624 
L 144.939197 100.8792 
L 147.975358 100.74504 
L 151.035196 100.21872 
L 154.087012 100.53864 
L 157.116848 101.07528 
L 160.199762 101.38488 
L 163.262179 101.26104 
L 166.295831 100.78632 
L 169.347895 100.91016 
L 172.413175 100.99272 
L 175.460538 100.38384 
L 178.509739 100.50768 
L 181.621419 100.60056 
L 184.683307 99.76464 
L 187.68314 99.49632 
L 190.759693 99.40344 
L 193.813806 100.09488 
L 196.837351 100.3632 
L 199.872735 100.19808 
L 202.971657 100.47672 
L 206.032096 100.79664 
L 209.05709 100.26 
L 212.33776 99.83688 
L 215.200761 100.13616 
L 218.257878 100.80696 
L 221.281953 101.38488 
L 224.376812 101.3436 
L 227.438805 101.292 
L 230.472811 101.28168 
L 233.552261 101.28168 
L 236.565311 101.8596 
L 239.622074 101.88024 
L 242.649189 101.72544 
L 245.748429 101.68416 
L 248.809575 101.47776 
L 251.843015 101.78736 
L 254.901227 101.09592 
L 257.943855 101.46744 
L 261.025215 101.3436 
L 264.031797 101.05464 
L 267.139837 101.3952 
L 270.208757 101.47776 
L 273.242586 100.86888 
L 276.293518 101.26104 
L 279.36 100.99272 
" clip-path="url(#p57c0471ae8)" style="fill: none; stroke: #bebebe; stroke-width: 0.5; stroke-linecap: round"/>
   </g>
   <g id="line2d_6">
    <path d="M 8.64 70.67256 
L 11.693265 70.51776 
L 14.74653 70.848 
L 17.799795 72.31344 
L 20.85306 76.01832 
L 23.906325 75.41976 
L 26.95959 75.83256 
L 30.012855 75.79128 
L 33.06612 75.82224 
L 36.119385 77.82432 
L 39.17265 76.14216 
L 42.225915 74.75928 
L 45.27918 74.96568 
L 48.332445 77.75208 
L 51.38571 79.48584 
L 54.438975 83.31456 
L 57.492239 85.90488 
L 60.545504 84.79032 
L 63.123146 85.84296 
L 65.549537 88.25784 
L 68.601247 91.41576 
L 71.641437 88.7532 
L 74.764496 88.65 
L 77.792564 88.55712 
L 80.863251 88.96992 
L 83.910191 89.7336 
L 86.952465 90.456 
L 90.004811 90.56952 
L 93.021359 89.15568 
L 95.913515 88.9596 
L 99.162627 90.6624 
L 101.832361 89.94 
L 105.264316 90.00192 
L 108.31387 90.3528 
L 111.349289 90.62112 
L 114.383895 90.5076 
L 117.47204 90.3528 
L 120.534493 92.004 
L 123.32982 92.13816 
L 126.630032 91.25064 
L 129.669692 89.166 
L 132.717161 89.56848 
L 135.734451 90.93072 
L 138.857086 89.41368 
L 141.878829 90.37344 
L 144.939197 89.79552 
L 147.975358 90.23928 
L 151.035196 88.0824 
L 154.087012 88.7532 
L 157.116848 90.16704 
L 160.199762 90.67272 
L 163.262179 90.18768 
L 166.295831 89.2692 
L 169.347895 89.54784 
L 172.413175 89.49624 
L 175.460538 88.31976 
L 178.509739 88.45392 
L 181.621419 88.46424 
L 184.683307 86.38992 
L 187.68314 84.80064 
L 190.759693 84.8316 
L 193.813806 86.586 
L 196.837351 87.74184 
L 199.872735 87.618 
L 202.971657 88.19592 
L 206.032096 89.08344 
L 209.05709 87.89664 
L 212.33776 87.3084 
L 215.200761 87.65928 
L 218.257878 88.96992 
L 221.281953 90.07416 
L 224.376812 89.76456 
L 227.438805 89.3724 
L 230.472811 89.00088 
L 233.552261 88.42296 
L 236.565311 88.81512 
L 239.622074 89.10408 
L 242.649189 89.14536 
L 245.748429 89.07312 
L 248.809575 87.9792 
L 251.843015 88.29912 
L 254.901227 86.38992 
L 257.943855 87.24648 
L 261.025215 87.1536 
L 264.031797 86.21448 
L 267.139837 86.66856 
L 270.208757 87.01944 
L 273.242586 84.44976 
L 276.293518 85.05864 
L 279.36 84.58392 
" clip-path="url(#p57c0471ae8)" style="fill: none; stroke: #4a8dff; stroke-width: 0.6"/>
   </g>
   <g id="line2d_7">
    <path d="M 8.64 77.74176 
L 11.693265 78.1752 
L 14.74653 79.5684 
L 17.799795 80.8068 
L 20.85306 85.20312 
L 23.906325 84.12984 
L 26.95959 84.03696 
L 30.012855 84.06792 
L 33.06612 84.3156 
L 36.119385 87.02976 
L 39.17265 85.21344 
L 42.225915 84.28464 
L 45.27918 84.32592 
L 48.332445 89.08344 
L 51.38571 89.5272 
L 54.438975 95.14128 
L 57.492239 96.98856 
L 60.545504 95.08968 
L 63.123146 97.71096 
L 65.549537 99.80592 
L 68.601247 101.79768 
L 71.641437 100.03296 
L 74.764496 100.518 
L 77.792564 99.98136 
L 80.863251 100.49736 
L 83.910191 100.78632 
L 86.952465 101.07528 
L 90.004811 101.26104 
L 93.021359 100.63152 
L 95.913515 100.38384 
L 99.162627 100.84824 
L 101.832361 100.65216 
L 105.264316 101.034 
L 108.31387 101.19912 
L 111.349289 101.10624 
L 114.383895 100.97208 
L 117.47204 100.91016 
L 120.534493 101.7564 
L 123.32982 101.84928 
L 126.630032 101.56032 
L 129.669692 100.85856 
L 132.717161 101.12688 
L 135.734451 101.4468 
L 138.857086 101.02368 
L 141.878829 101.30232 
L 144.939197 100.81728 
L 147.975358 100.79664 
L 151.035196 99.3312 
L 154.087012 99.92976 
L 157.116848 100.78632 
L 160.199762 101.17848 
L 163.262179 101.1372 
L 166.295831 100.21872 
L 169.347895 100.37352 
L 172.413175 100.4664 
L 175.460538 99.88848 
L 178.509739 99.94008 
L 181.621419 99.81624 
L 184.683307 98.93904 
L 187.68314 98.3508 
L 190.759693 98.52624 
L 193.813806 99.78528 
L 196.837351 100.12584 
L 199.872735 100.03296 
L 202.971657 100.45608 
L 206.032096 100.83792 
L 209.05709 100.11552 
L 212.33776 99.87816 
L 215.200761 100.002 
L 218.257878 100.64184 
L 221.281953 101.41584 
L 224.376812 101.21976 
L 227.438805 101.14752 
L 230.472811 101.00304 
L 233.552261 100.86888 
L 236.565311 101.21976 
L 239.622074 101.28168 
L 242.649189 101.20944 
L 245.748429 101.14752 
L 248.809575 100.55928 
L 251.843015 100.65216 
L 254.901227 99.80592 
L 257.943855 99.96072 
L 261.025215 99.6408 
L 264.031797 99.1764 
L 267.139837 99.70272 
L 270.208757 99.94008 
L 273.242586 98.57784 
L 276.293518 98.65008 
L 279.36 98.38176 
" clip-path="url(#p57c0471ae8)" style="fill: none; stroke: #f5841e; stroke-width: 0.6"/>
   </g>
  </g>
 </g>
 <defs>
  <clipPath id="p57c0471ae8">
   <rect x="8.64" y="4.8" width="270.72" height="103.2"/>
  </clipPath>
 </defs>
</svg>
