<?xml version="1.0" encoding="utf-8" standalone="no"?>
<!DOCTYPE svg PUBLIC "-//W3C//DTD SVG 1.1//EN"
  "http://www.w3.org/Graphics/SVG/1.1/DTD/svg11.dtd">
<svg xmlns:xlink="http://www.w3.org/1999/xlink" width="288pt" height="120pt" viewBox="0 0 288 120" xmlns="http://www.w3.org/2000/svg" version="1.1">
<desc id="nav-meta">{"window":"6m","count":4,"labels":["09.01","10.03","09.05","08.07"],"tick_utc":["2026-01-09T12:00:00Z","2026-03-10T03:14:38Z","2026-05-09T04:06:35Z","2026-07-08T03:58:12Z"],"w":720,"h":300}</desc>

 <metadata>
  <rdf:RDF xmlns:dc="http://purl.org/dc/elements/1.1/" xmlns:cc="http://creativecommons.org/ns#" xmlns:rdf="http://www.w3.org/1999/02/22-rdf-syntax-ns#">
   <cc:Work>
    <dc:type rdf:resource="http://purl.org/dc/dcmitype/StillImage"/>
    <dc:date>2026-07-08T03:58:13.744167</dc:date>
    <dc:format>image/svg+xml</dc:format>
    <dc:creator>
     <cc:Agent>
      <dc:title>Matplotlib v3.11.0, https://matplotlib.org/</dc:title>
     </cc:Agent>
    </dc:creator>
   </cc:Work>
  </rdf:RDF>
 </metadata>
 <defs>
  <style type="text/css">*{stroke-linejoin: round; stroke-linecap: butt}</style>
 </defs>
 <g id="figure_1">
  <g id="patch_1">
   <path d="M 0 120 
L 288 120 
L 288 0 
L 0 0 
L 0 120 
z
" style="fill: none; opacity: 0"/>
  </g>
  <g id="axes_1">
   <g id="patch_2">
    <path d="M 8.64 108 
L 279.36 108 
L 279.36 4.8 
L 8.64 4.8 
L 8.64 108 
z
" style="fill: none"/>
   </g>
   <g id="matplotlib.axis_1"/>
   <g id="matplotlib.axis_2"/>
   <g id="line2d_1">
    <path d="M 8.64 87.36 
L 279.36 87.36 
" clip-path="url(#p58bcb28b13)" style="fill: none; stroke: #b2b2b2; stroke-opacity: 0.35; stroke-width: 0.5; stroke-linecap: square"/>
   </g>
   <g id="line2d_2">
    <path d="M 8.64 66.72 
L 279.36 66.72 
" clip-path="url(#p58bcb28b13)" style="fill: none; stroke: #b2b2b2; stroke-opacity: 0.35; stroke-width: 0.5; stroke-linecap: square"/>
   </g>
   <g id="line2d_3">
    <path d="M 8.64 46.08 
L 279.36 46.08 
" clip-path="url(#p58bcb28b13)" style="fill: none; stroke: #b2b2b2; stroke-opacity: 0.35; stroke-width: 0.5; stroke-linecap: square"/>
   </g>
   <g id="line2d_4">
    <path d="M 8.64 25.44 
L 279.36 25.44 
" clip-path="url(#p58bcb28b13)" style="fill: none; stroke: #b2b2b2; stroke-opacity: 0.35; stroke-width: 0.5; stroke-linecap: square"/>
   </g>
   <g id="line2d_5">
    <path d="M 8.64 88.72224 
L 10.146801 89.39304 
L 11.653602 89.40336 
L 13.160403 88.41264 
L 14.667203 88.4952 
L 16.174004 86.86464 
L 17.680805 86.42088 
L 19.187606 87.62832 
L 20.694407 86.93688 
L 22.201208 87.23616 
L 25.214809 90.0432 
L 26.72161 92.12784 
L 28.228411 91.16808 
L 31.242013 91.73568 
L 32.748813 91.78728 
L 34.255614 94.0164 
L 35.762415 92.5716 
L 37.269216 91.76664 
L 38.776017 92.33424 
L 40.282818 94.36728 
L 41.789618 94.46016 
L 43.296419 97.71096 
L 44.80322 98.48496 
L 46.310021 97.85544 
L 48.779535 100.16712 
L 50.285568 102.23112 
L 51.785917 100.54896 
L 53.327161 100.70376 
L 54.821527 100.68312 
L 57.840605 101.28168 
L 59.341982 101.71512 
L 60.848329 101.84928 
L 62.33701 101.034 
L 63.764303 100.54896 
L 65.367755 101.04432 
L 66.685282 100.81728 
L 68.378968 101.034 
L 69.883937 101.4984 
L 74.403538 101.06496 
L 75.914873 102.09696 
L 77.29438 102.05568 
L 78.923051 101.4984 
L 80.423137 100.60056 
L 81.927078 100.80696 
L 83.416125 101.45712 
L 84.95716 100.55928 
L 86.448405 101.10624 
L 89.457071 100.74504 
L 90.967116 100.21872 
L 92.473201 100.53864 
L 93.96844 101.07528 
L 95.489873 101.38488 
L 97.00119 101.26104 
L 98.498312 100.78632 
L 101.51725 100.99272 
L 103.021139 100.38384 
L 106.061563 100.60056 
L 107.572619 99.76464 
L 109.053051 99.49632 
L 110.571344 99.40344 
L 112.078564 100.09488 
L 113.570698 100.3632 
L 115.068674 100.19808 
L 118.108348 100.79664 
L 119.601197 100.26 
L 121.220223 99.83688 
L 122.633128 100.13616 
L 125.634225 101.38488 
L 131.689681 101.28168 
L 133.176636 101.8596 
L 134.685163 101.88024 
L 136.179058 101.72544 
L 137.708548 101.68416 
L 139.219238 101.47776 
L 140.716255 101.78736 
L 142.225498 101.09592 
L 143.727049 101.46744 
L 145.247715 101.3436 
L 146.731478 101.05464 
L 148.26531 101.3952 
L 149.779837 101.47776 
L 151.277046 100.86888 
L 152.782696 101.26104 
L 154.296019 100.99272 
L 155.79975 100.61088 
L 157.289931 100.44576 
L 158.816631 100.94112 
L 160.327164 101.09592 
L 161.827355 101.00304 
L 163.329482 100.69344 
L 164.842387 100.9308 
L 169.372241 100.8792 
L 170.895279 100.64184 
L 172.405236 101.1888 
L 173.907921 101.09592 
L 175.417251 101.37456 
L 176.940515 101.21976 
L 179.946251 101.23008 
L 181.452529 100.92048 
L 182.926142 101.06496 
L 184.459486 100.70376 
L 185.966688 100.55928 
L 187.44841 100.53864 
L 188.960722 99.60984 
L 190.497886 99.72336 
L 193.502453 99.25896 
L 195.016422 99.32088 
L 196.521549 100.22904 
L 198.035779 100.01232 
L 201.052642 100.75536 
L 202.574075 101.02368 
L 204.07008 101.02368 
L 205.58227 101.17848 
L 207.097651 100.7244 
L 208.592907 100.75536 
L 210.079007 101.11656 
L 211.609665 100.91016 
L 213.136295 100.89984 
L 214.620267 101.1372 
L 216.142537 101.2404 
L 217.644525 101.6532 
L 219.152442 101.4984 
L 220.637512 101.48808 
L 222.175077 101.32296 
L 225.196143 101.7048 
L 226.719895 102.54072 
L 228.221534 103.08768 
L 229.703518 103.36632 
L 231.187159 104.22288 
L 232.726345 103.85136 
L 235.717851 103.43856 
L 237.240278 103.81008 
L 238.75592 103.72752 
L 240.268633 103.50048 
L 241.764412 103.5108 
L 243.282148 103.31472 
L 246.354435 102.61296 
L 247.813241 102.6336 
L 250.855113 103.28376 
L 253.839817 102.69552 
L 255.390723 102.582 
L 258.319637 103.15992 
L 259.826036 103.36632 
L 261.340563 103.36632 
L 262.828895 102.81936 
L 264.364419 103.0464 
L 265.88212 102.9432 
L 267.359709 102.59232 
L 268.888554 102.40656 
L 273.359689 101.3436 
L 274.888551 101.6532 
L 277.894148 101.63256 
L 279.36 101.95248 
L 279.36 101.95248 
" clip-path="url(#p58bcb28b13)" style="fill: none; stroke: #bebebe; stroke-width: 0.5; stroke-linecap: round"/>
   </g>
   <g id="line2d_6">
    <path d="M 8.64 73.52088 
L 10.146801 73.83048 
L 11.653602 73.8408 
L 13.160403 73.29384 
L 14.667203 73.72728 
L 16.174004 70.32168 
L 17.680805 69.77472 
L 19.187606 70.34232 
L 20.694407 70.67256 
L 22.201208 70.51776 
L 23.708008 70.848 
L 25.214809 72.31344 
L 26.72161 76.01832 
L 28.228411 75.41976 
L 29.735212 75.83256 
L 32.748813 75.82224 
L 34.255614 77.82432 
L 35.762415 76.14216 
L 37.269216 74.75928 
L 38.776017 74.96568 
L 40.282818 77.75208 
L 41.789618 79.48584 
L 43.296419 83.31456 
L 44.80322 85.90488 
L 46.310021 84.79032 
L 47.582099 85.84296 
L 50.285568 91.41576 
L 51.785917 88.7532 
L 54.821527 88.55712 
L 56.336926 88.96992 
L 59.341982 90.456 
L 60.848329 90.56952 
L 62.33701 89.15568 
L 63.764303 88.9596 
L 65.367755 90.6624 
L 66.685282 89.94 
L 68.378968 90.00192 
L 71.381931 90.62112 
L 74.403538 90.3528 
L 75.914873 92.004 
L 77.29438 92.13816 
L 78.923051 91.25064 
L 80.423137 89.166 
L 81.927078 89.56848 
L 83.416125 90.93072 
L 84.95716 89.41368 
L 86.448405 90.37344 
L 87.958711 89.79552 
L 89.457071 90.23928 
L 90.967116 88.0824 
L 92.473201 88.7532 
L 93.96844 90.16704 
L 95.489873 90.67272 
L 97.00119 90.18768 
L 98.498312 89.2692 
L 100.00452 89.54784 
L 101.51725 89.49624 
L 103.021139 88.31976 
L 104.525934 88.45392 
L 106.061563 88.46424 
L 107.572619 86.38992 
L 109.053051 84.80064 
L 110.571344 84.8316 
L 112.078564 86.586 
L 113.570698 87.74184 
L 115.068674 87.618 
L 116.598007 88.19592 
L 118.108348 89.08344 
L 119.601197 87.89664 
L 121.220223 87.3084 
L 122.633128 87.65928 
L 124.14183 88.96992 
L 125.634225 90.07416 
L 128.672661 89.3724 
L 130.169958 89.00088 
L 131.689681 88.42296 
L 134.685163 89.10408 
L 136.179058 89.14536 
L 137.708548 89.07312 
L 139.219238 87.9792 
L 140.716255 88.29912 
L 142.225498 86.38992 
L 143.727049 87.24648 
L 145.247715 87.1536 
L 146.731478 86.21448 
L 149.779837 87.01944 
L 151.277046 84.44976 
L 152.782696 85.05864 
L 154.296019 84.58392 
L 155.79975 85.04832 
L 157.289931 83.71704 
L 158.816631 84.86256 
L 160.327164 85.6572 
L 161.827355 85.27536 
L 163.329482 84.49104 
L 166.353181 85.32696 
L 167.842001 85.17216 
L 169.372241 85.31664 
L 170.895279 84.11952 
L 172.405236 85.66752 
L 173.907921 85.26504 
L 175.417251 86.26608 
L 178.408861 85.38888 
L 179.946251 85.3992 
L 181.452529 84.09888 
L 184.459486 84.34656 
L 187.44841 85.7604 
L 188.960722 85.0896 
L 192.01658 84.9348 
L 193.502453 85.296 
L 195.016422 85.35792 
L 196.521549 86.1732 
L 198.035779 85.92552 
L 201.052642 87.13296 
L 202.574075 88.10304 
L 204.07008 87.9276 
L 205.58227 88.26816 
L 207.097651 87.78312 
L 208.592907 87.95856 
L 210.079007 88.94928 
L 211.609665 88.14432 
L 214.620267 88.52616 
L 216.142537 88.86672 
L 217.644525 90.22896 
L 219.152442 89.82648 
L 220.637512 89.87808 
L 222.175077 89.46528 
L 223.704166 90.0432 
L 225.196143 89.96064 
L 226.719895 91.99368 
L 228.221534 93.05664 
L 229.703518 93.74808 
L 231.187159 97.02984 
L 232.726345 95.93592 
L 234.239808 95.07936 
L 235.717851 94.46016 
L 237.240278 95.47152 
L 240.268633 94.82136 
L 241.764412 94.8936 
L 243.282148 94.70784 
L 246.354435 93.40752 
L 247.813241 92.9844 
L 249.312822 93.93384 
L 250.855113 94.4292 
L 253.839817 93.87192 
L 255.390723 93.81 
L 256.807447 94.03704 
L 258.319637 94.83168 
L 259.826036 95.48184 
L 261.340563 96.63768 
L 262.828895 96.14232 
L 264.364419 96.30744 
L 265.88212 96.29712 
L 267.359709 96.04944 
L 268.888554 95.9256 
L 270.368968 95.39928 
L 271.859376 94.31568 
L 273.359689 93.57264 
L 274.888551 93.32496 
L 276.409949 93.22176 
L 277.894148 93.35592 
L 279.36 93.61392 
L 279.36 93.61392 
" clip-path="url(#p58bcb28b13)" style="fill: none; stroke: #4a8dff; stroke-width: 0.6"/>
   </g>
   <g id="line2d_7">
    <path d="M 8.64 82.43736 
L 10.146801 82.93272 
L 11.653602 83.00496 
L 14.667203 82.28256 
L 16.174004 78.01008 
L 17.680805 76.19376 
L 19.187606 77.66952 
L 20.694407 77.74176 
L 22.201208 78.1752 
L 23.708008 79.5684 
L 25.214809 80.8068 
L 26.72161 85.20312 
L 28.228411 84.12984 
L 29.735212 84.03696 
L 31.242013 84.06792 
L 32.748813 84.3156 
L 34.255614 87.02976 
L 35.762415 85.21344 
L 37.269216 84.28464 
L 38.776017 84.32592 
L 40.282818 89.08344 
L 41.789618 89.5272 
L 43.296419 95.14128 
L 44.80322 96.98856 
L 46.310021 95.08968 
L 47.582099 97.71096 
L 48.779535 99.80592 
L 50.285568 101.79768 
L 51.785917 100.03296 
L 53.327161 100.518 
L 54.821527 99.98136 
L 56.336926 100.49736 
L 60.848329 101.26104 
L 62.33701 100.63152 
L 63.764303 100.38384 
L 65.367755 100.84824 
L 66.685282 100.65216 
L 68.378968 101.034 
L 69.883937 101.19912 
L 74.403538 100.91016 
L 75.914873 101.7564 
L 77.29438 101.84928 
L 78.923051 101.56032 
L 80.423137 100.85856 
L 83.416125 101.4468 
L 84.95716 101.02368 
L 86.448405 101.30232 
L 87.958711 100.81728 
L 89.457071 100.79664 
L 90.967116 99.3312 
L 92.473201 99.92976 
L 93.96844 100.78632 
L 95.489873 101.17848 
L 97.00119 101.1372 
L 98.498312 100.21872 
L 101.51725 100.4664 
L 103.021139 99.88848 
L 104.525934 99.94008 
L 106.061563 99.81624 
L 107.572619 98.93904 
L 109.053051 98.3508 
L 110.571344 98.52624 
L 112.078564 99.78528 
L 113.570698 100.12584 
L 115.068674 100.03296 
L 118.108348 100.83792 
L 119.601197 100.11552 
L 121.220223 99.87816 
L 122.633128 100.002 
L 124.14183 100.64184 
L 125.634225 101.41584 
L 127.161553 101.21976 
L 130.169958 101.00304 
L 131.689681 100.86888 
L 133.176636 101.21976 
L 134.685163 101.28168 
L 137.708548 101.14752 
L 139.219238 100.55928 
L 140.716255 100.65216 
L 142.225498 99.80592 
L 143.727049 99.96072 
L 145.247715 99.6408 
L 146.731478 99.1764 
L 148.26531 99.70272 
L 149.779837 99.94008 
L 151.277046 98.57784 
L 152.782696 98.65008 
L 154.296019 98.38176 
L 155.79975 98.48496 
L 157.289931 96.70992 
L 158.816631 98.05152 
L 160.327164 98.48496 
L 161.827355 97.96896 
L 163.329482 96.32808 
L 166.353181 96.16296 
L 167.842001 96.1836 
L 169.372241 96.50352 
L 170.895279 94.76976 
L 172.405236 97.19496 
L 173.907921 96.9576 
L 175.417251 97.9896 
L 176.940515 96.89568 
L 178.408861 95.45088 
L 179.946251 95.67792 
L 181.452529 93.43848 
L 184.459486 92.25168 
L 185.966688 92.87088 
L 187.44841 94.2744 
L 188.960722 93.1392 
L 190.497886 92.97408 
L 192.01658 92.9844 
L 193.502453 92.60256 
L 195.016422 92.53032 
L 196.521549 94.54272 
L 198.035779 92.85024 
L 199.523344 94.82136 
L 201.052642 95.75016 
L 202.574075 96.97824 
L 205.58227 97.23624 
L 207.097651 95.94624 
L 208.592907 96.30744 
L 210.079007 98.08248 
L 211.609665 97.2672 
L 213.136295 96.61704 
L 214.620267 97.23624 
L 216.142537 98.08248 
L 217.644525 99.18672 
L 219.152442 99.03192 
L 220.637512 99.1248 
L 222.175077 98.74296 
L 223.704166 99.09384 
L 225.196143 100.0536 
L 226.719895 101.23008 
L 228.221534 101.99376 
L 229.703518 102.08664 
L 231.187159 102.8916 
L 232.726345 102.45816 
L 235.717851 102.10728 
L 237.240278 102.582 
L 240.268633 102.08664 
L 241.764412 102.066 
L 243.282148 101.86992 
L 244.839036 101.48808 
L 246.354435 101.40552 
L 247.813241 101.4984 
L 249.312822 101.97312 
L 250.855113 102.26208 
L 253.839817 101.90088 
L 255.390723 101.90088 
L 256.807447 102.0144 
L 258.319637 102.25176 
L 259.826036 102.6336 
L 261.340563 102.88128 
L 262.828895 102.77808 
L 268.888554 103.00512 
L 270.368968 102.69552 
L 271.859376 102.55104 
L 273.359689 102.2724 
L 277.894148 102.13824 
L 279.36 102.25176 
L 279.36 102.25176 
" clip-path="url(#p58bcb28b13)" style="fill: none; stroke: #f5841e; stroke-width: 0.6"/>
   </g>
  </g>
 </g>
 <defs>
  <clipPath id="p58bcb28b13">
   <rect x="8.64" y="4.8" width="270.72" height="103.2"/>
  </clipPath>
 </defs>
</svg>
