<?xml version="1.0" encoding="utf-8" standalone="no"?>
<!DOCTYPE svg PUBLIC "-//W3C//DTD SVG 1.1//EN"
  "http://www.w3.org/Graphics/SVG/1.1/DTD/svg11.dtd">
<svg xmlns:xlink="http://www.w3.org/1999/xlink" width="288pt" height="120pt" viewBox="0 0 288 120" xmlns="http://www.w3.org/2000/svg" version="1.1">
<desc id="nav-meta">{"window":"1m","count":4,"labels":["30.04","10.05","19.05","29.05"],"tick_utc":["2026-04-30T04:23:32Z","2026-05-10T04:35:36Z","2026-05-19T04:46:06Z","2026-05-29T04:59:49Z"],"w":720,"h":300}</desc>

 <metadata>
  <rdf:RDF xmlns:dc="http://purl.org/dc/elements/1.1/" xmlns:cc="http://creativecommons.org/ns#" xmlns:rdf="http://www.w3.org/1999/02/22-rdf-syntax-ns#">
   <cc:Work>
    <dc:type rdf:resource="http://purl.org/dc/dcmitype/StillImage"/>
    <dc:date>2026-05-29T10:33:58.971197</dc:date>
    <dc:format>image/svg+xml</dc:format>
    <dc:creator>
     <cc:Agent>
      <dc:title>Matplotlib v3.10.9, https://matplotlib.org/</dc:title>
     </cc:Agent>
    </dc:creator>
   </cc:Work>
  </rdf:RDF>
 </metadata>
 <defs>
  <style type="text/css">*{stroke-linejoin: round; stroke-linecap: butt}</style>
 </defs>
 <g id="figure_1">
  <g id="patch_1">
   <path d="M 0 120 
L 288 120 
L 288 0 
L 0 0 
L 0 120 
z
" style="fill: none; opacity: 0"/>
  </g>
  <g id="axes_1">
   <g id="patch_2">
    <path d="M 8.64 108 
L 279.36 108 
L 279.36 4.8 
L 8.64 4.8 
L 8.64 108 
z
" style="fill: none"/>
   </g>
   <g id="matplotlib.axis_1"/>
   <g id="matplotlib.axis_2"/>
   <g id="line2d_1">
    <path d="M 8.64 87.36 
L 279.36 87.36 
" clip-path="url(#p959587db4d)" style="fill: none; stroke: #b2b2b2; stroke-opacity: 0.35; stroke-width: 0.5; stroke-linecap: square"/>
   </g>
   <g id="line2d_2">
    <path d="M 8.64 66.72 
L 279.36 66.72 
" clip-path="url(#p959587db4d)" style="fill: none; stroke: #b2b2b2; stroke-opacity: 0.35; stroke-width: 0.5; stroke-linecap: square"/>
   </g>
   <g id="line2d_3">
    <path d="M 8.64 46.08 
L 279.36 46.08 
" clip-path="url(#p959587db4d)" style="fill: none; stroke: #b2b2b2; stroke-opacity: 0.35; stroke-width: 0.5; stroke-linecap: square"/>
   </g>
   <g id="line2d_4">
    <path d="M 8.64 25.44 
L 279.36 25.44 
" clip-path="url(#p959587db4d)" style="fill: none; stroke: #b2b2b2; stroke-opacity: 0.35; stroke-width: 0.5; stroke-linecap: square"/>
   </g>
   <g id="line2d_5">
    <path d="M 8.64 101.37456 
L 18.068975 101.21976 
L 27.158009 101.20944 
L 36.674426 101.23008 
L 45.998256 100.92048 
L 55.119892 101.06496 
L 64.611263 100.70376 
L 73.940815 100.55928 
L 83.112648 100.53864 
L 92.47383 99.60984 
L 101.988843 99.72336 
L 111.389535 99.44472 
L 120.587061 99.25896 
L 129.958498 99.32088 
L 139.275203 100.22904 
L 148.648259 100.01232 
L 157.856256 100.43544 
L 167.322583 100.75536 
L 176.740224 101.02368 
L 186.00047 101.02368 
L 195.360896 101.17848 
L 204.741077 100.7244 
L 213.996681 100.75536 
L 223.19561 101.11656 
L 232.670357 100.91016 
L 242.120167 100.89984 
L 251.305927 101.1372 
L 260.728749 101.2404 
L 270.026023 101.6532 
L 279.36 101.4984 
" clip-path="url(#p959587db4d)" style="fill: none; stroke: #bebebe; stroke-width: 0.5; stroke-linecap: round"/>
   </g>
   <g id="line2d_6">
    <path d="M 8.64 86.26608 
L 18.068975 85.77072 
L 27.158009 85.38888 
L 36.674426 85.3992 
L 45.998256 84.09888 
L 55.119892 84.22272 
L 64.611263 84.34656 
L 73.940815 85.06896 
L 83.112648 85.7604 
L 92.47383 85.0896 
L 101.988843 85.01736 
L 111.389535 84.9348 
L 120.587061 85.296 
L 129.958498 85.35792 
L 139.275203 86.1732 
L 148.648259 85.92552 
L 157.856256 86.55504 
L 167.322583 87.13296 
L 176.740224 88.10304 
L 186.00047 87.9276 
L 195.360896 88.26816 
L 204.741077 87.78312 
L 213.996681 87.95856 
L 223.19561 88.94928 
L 232.670357 88.14432 
L 242.120167 88.33008 
L 251.305927 88.52616 
L 260.728749 88.86672 
L 270.026023 90.22896 
L 279.36 89.82648 
" clip-path="url(#p959587db4d)" style="fill: none; stroke: #4a8dff; stroke-width: 0.6"/>
   </g>
   <g id="line2d_7">
    <path d="M 8.64 97.9896 
L 18.068975 96.89568 
L 27.158009 95.45088 
L 36.674426 95.67792 
L 45.998256 93.43848 
L 55.119892 92.90184 
L 64.611263 92.25168 
L 73.940815 92.87088 
L 83.112648 94.2744 
L 92.47383 93.1392 
L 101.988843 92.97408 
L 111.389535 92.9844 
L 120.587061 92.60256 
L 129.958498 92.53032 
L 139.275203 94.54272 
L 148.648259 92.85024 
L 157.856256 94.82136 
L 167.322583 95.75016 
L 176.740224 96.97824 
L 186.00047 97.08144 
L 195.360896 97.23624 
L 204.741077 95.94624 
L 213.996681 96.30744 
L 223.19561 98.08248 
L 232.670357 97.2672 
L 242.120167 96.61704 
L 251.305927 97.23624 
L 260.728749 98.08248 
L 270.026023 99.18672 
L 279.36 99.03192 
" clip-path="url(#p959587db4d)" style="fill: none; stroke: #f5841e; stroke-width: 0.6"/>
   </g>
  </g>
 </g>
 <defs>
  <clipPath id="p959587db4d">
   <rect x="8.64" y="4.8" width="270.72" height="103.2"/>
  </clipPath>
 </defs>
</svg>
