<?xml version="1.0" encoding="utf-8" standalone="no"?>
<!DOCTYPE svg PUBLIC "-//W3C//DTD SVG 1.1//EN"
  "http://www.w3.org/Graphics/SVG/1.1/DTD/svg11.dtd">
<svg xmlns:xlink="http://www.w3.org/1999/xlink" width="288pt" height="120pt" viewBox="0 0 288 120" xmlns="http://www.w3.org/2000/svg" version="1.1">
<desc id="nav-meta">{"window":"3m","count":4,"labels":["05.04","05.05","03.06","03.07"],"tick_utc":["2026-04-05T03:46:34Z","2026-05-05T03:59:32Z","2026-06-03T05:31:47Z","2026-07-03T04:30:06Z"],"w":720,"h":300}</desc>

 <metadata>
  <rdf:RDF xmlns:dc="http://purl.org/dc/elements/1.1/" xmlns:cc="http://creativecommons.org/ns#" xmlns:rdf="http://www.w3.org/1999/02/22-rdf-syntax-ns#">
   <cc:Work>
    <dc:type rdf:resource="http://purl.org/dc/dcmitype/StillImage"/>
    <dc:date>2026-07-03T09:44:33.512493</dc:date>
    <dc:format>image/svg+xml</dc:format>
    <dc:creator>
     <cc:Agent>
      <dc:title>Matplotlib v3.11.0, https://matplotlib.org/</dc:title>
     </cc:Agent>
    </dc:creator>
   </cc:Work>
  </rdf:RDF>
 </metadata>
 <defs>
  <style type="text/css">*{stroke-linejoin: round; stroke-linecap: butt}</style>
 </defs>
 <g id="figure_1">
  <g id="patch_1">
   <path d="M 0 120 
L 288 120 
L 288 0 
L 0 0 
L 0 120 
z
" style="fill: none; opacity: 0"/>
  </g>
  <g id="axes_1">
   <g id="patch_2">
    <path d="M 8.64 108 
L 279.36 108 
L 279.36 4.8 
L 8.64 4.8 
L 8.64 108 
z
" style="fill: none"/>
   </g>
   <g id="matplotlib.axis_1"/>
   <g id="matplotlib.axis_2"/>
   <g id="line2d_1">
    <path d="M 8.64 87.36 
L 279.36 87.36 
" clip-path="url(#pa97499fe85)" style="fill: none; stroke: #b2b2b2; stroke-opacity: 0.35; stroke-width: 0.5; stroke-linecap: square"/>
   </g>
   <g id="line2d_2">
    <path d="M 8.64 66.72 
L 279.36 66.72 
" clip-path="url(#pa97499fe85)" style="fill: none; stroke: #b2b2b2; stroke-opacity: 0.35; stroke-width: 0.5; stroke-linecap: square"/>
   </g>
   <g id="line2d_3">
    <path d="M 8.64 46.08 
L 279.36 46.08 
" clip-path="url(#pa97499fe85)" style="fill: none; stroke: #b2b2b2; stroke-opacity: 0.35; stroke-width: 0.5; stroke-linecap: square"/>
   </g>
   <g id="line2d_4">
    <path d="M 8.64 25.44 
L 279.36 25.44 
" clip-path="url(#pa97499fe85)" style="fill: none; stroke: #b2b2b2; stroke-opacity: 0.35; stroke-width: 0.5; stroke-linecap: square"/>
   </g>
   <g id="line2d_5">
    <path d="M 8.64 101.68416 
L 11.688613 101.47776 
L 14.709634 101.78736 
L 17.755326 101.09592 
L 20.785498 101.46744 
L 23.854242 101.3436 
L 26.848515 101.05464 
L 29.943831 101.3952 
L 33.000187 101.47776 
L 36.021595 100.86888 
L 39.060037 101.26104 
L 42.113964 100.99272 
L 45.148535 100.61088 
L 48.15576 100.44576 
L 51.236681 100.94112 
L 54.284978 101.09592 
L 57.312404 101.00304 
L 60.343737 100.69344 
L 63.39682 100.9308 
L 66.445644 100.92048 
L 69.450124 100.81728 
L 72.538189 100.8792 
L 75.61172 100.64184 
L 78.658855 101.1888 
L 81.691314 101.09592 
L 84.737182 101.37456 
L 87.81117 101.21976 
L 90.774332 101.20944 
L 93.876827 101.23008 
L 96.916536 100.92048 
L 99.890327 101.06496 
L 102.984657 100.70376 
L 106.026231 100.55928 
L 109.016387 100.53864 
L 112.068274 99.60984 
L 115.170311 99.72336 
L 118.235078 99.44472 
L 121.23361 99.25896 
L 124.28884 99.32088 
L 127.326226 100.22904 
L 130.381984 100.01232 
L 133.38393 100.43544 
L 136.470095 100.75536 
L 139.540387 101.02368 
L 142.559367 101.02368 
L 145.611007 101.17848 
L 148.669087 100.7244 
L 151.686554 100.75536 
L 154.685543 101.11656 
L 157.774454 100.91016 
L 160.855234 100.89984 
L 163.84993 101.1372 
L 166.921912 101.2404 
L 169.952963 101.6532 
L 172.995981 101.4984 
L 175.992894 101.48808 
L 179.095741 101.32296 
L 182.181484 101.51904 
L 185.192334 101.7048 
L 188.267307 102.54072 
L 191.297655 103.08768 
L 194.288338 103.36632 
L 197.282365 104.22288 
L 200.388486 103.85136 
L 203.442695 103.68624 
L 206.425425 103.43856 
L 209.497723 103.81008 
L 212.556332 103.72752 
L 215.609027 103.50048 
L 218.627549 103.5108 
L 221.690381 103.31472 
L 224.832223 102.95352 
L 227.890339 102.61296 
L 230.834249 102.6336 
L 233.860444 102.9948 
L 236.972829 103.28376 
L 239.891998 103.01544 
L 242.996042 102.69552 
L 246.125813 102.582 
L 248.9848 102.88128 
L 252.03644 103.15992 
L 255.076395 103.36632 
L 258.132751 103.36632 
L 261.136246 102.81936 
L 264.234975 103.0464 
L 267.297736 102.9432 
L 270.279551 102.59232 
L 273.364801 102.40656 
L 276.352318 102.02472 
L 279.36 101.68416 
" clip-path="url(#pa97499fe85)" style="fill: none; stroke: #bebebe; stroke-width: 0.5; stroke-linecap: round"/>
   </g>
   <g id="line2d_6">
    <path d="M 8.64 89.07312 
L 11.688613 87.9792 
L 14.709634 88.29912 
L 17.755326 86.38992 
L 20.785498 87.24648 
L 23.854242 87.1536 
L 26.848515 86.21448 
L 29.943831 86.66856 
L 33.000187 87.01944 
L 36.021595 84.44976 
L 39.060037 85.05864 
L 42.113964 84.58392 
L 45.148535 85.04832 
L 48.15576 83.71704 
L 51.236681 84.86256 
L 54.284978 85.6572 
L 57.312404 85.27536 
L 60.343737 84.49104 
L 63.39682 84.86256 
L 66.445644 85.32696 
L 69.450124 85.17216 
L 72.538189 85.31664 
L 75.61172 84.11952 
L 78.658855 85.66752 
L 81.691314 85.26504 
L 84.737182 86.26608 
L 87.81117 85.77072 
L 90.774332 85.38888 
L 93.876827 85.3992 
L 96.916536 84.09888 
L 99.890327 84.22272 
L 102.984657 84.34656 
L 106.026231 85.06896 
L 109.016387 85.7604 
L 112.068274 85.0896 
L 115.170311 85.01736 
L 118.235078 84.9348 
L 121.23361 85.296 
L 124.28884 85.35792 
L 127.326226 86.1732 
L 130.381984 85.92552 
L 133.38393 86.55504 
L 136.470095 87.13296 
L 139.540387 88.10304 
L 142.559367 87.9276 
L 145.611007 88.26816 
L 148.669087 87.78312 
L 151.686554 87.95856 
L 154.685543 88.94928 
L 157.774454 88.14432 
L 160.855234 88.33008 
L 163.84993 88.52616 
L 166.921912 88.86672 
L 169.952963 90.22896 
L 172.995981 89.82648 
L 175.992894 89.87808 
L 179.095741 89.46528 
L 182.181484 90.0432 
L 185.192334 89.96064 
L 188.267307 91.99368 
L 191.297655 93.05664 
L 194.288338 93.74808 
L 197.282365 97.02984 
L 200.388486 95.93592 
L 203.442695 95.07936 
L 206.425425 94.46016 
L 209.497723 95.47152 
L 212.556332 95.11032 
L 215.609027 94.82136 
L 218.627549 94.8936 
L 221.690381 94.70784 
L 224.832223 94.04736 
L 227.890339 93.40752 
L 230.834249 92.9844 
L 233.860444 93.93384 
L 236.972829 94.4292 
L 239.891998 94.19184 
L 242.996042 93.87192 
L 246.125813 93.81 
L 248.9848 94.03704 
L 252.03644 94.83168 
L 255.076395 95.48184 
L 258.132751 96.63768 
L 261.136246 96.14232 
L 264.234975 96.30744 
L 267.297736 96.29712 
L 270.279551 96.04944 
L 273.364801 95.9256 
L 276.352318 95.39928 
L 279.36 94.31568 
" clip-path="url(#pa97499fe85)" style="fill: none; stroke: #4a8dff; stroke-width: 0.6"/>
   </g>
   <g id="line2d_7">
    <path d="M 8.64 101.14752 
L 11.688613 100.55928 
L 14.709634 100.65216 
L 17.755326 99.80592 
L 20.785498 99.96072 
L 23.854242 99.6408 
L 26.848515 99.1764 
L 29.943831 99.70272 
L 33.000187 99.94008 
L 36.021595 98.57784 
L 39.060037 98.65008 
L 42.113964 98.38176 
L 45.148535 98.48496 
L 48.15576 96.70992 
L 51.236681 98.05152 
L 54.284978 98.48496 
L 57.312404 97.96896 
L 60.343737 96.32808 
L 63.39682 96.20424 
L 66.445644 96.16296 
L 69.450124 96.1836 
L 72.538189 96.50352 
L 75.61172 94.76976 
L 78.658855 97.19496 
L 81.691314 96.9576 
L 84.737182 97.9896 
L 87.81117 96.89568 
L 90.774332 95.45088 
L 93.876827 95.67792 
L 96.916536 93.43848 
L 99.890327 92.90184 
L 102.984657 92.25168 
L 106.026231 92.87088 
L 109.016387 94.2744 
L 112.068274 93.1392 
L 115.170311 92.97408 
L 118.235078 92.9844 
L 121.23361 92.60256 
L 124.28884 92.53032 
L 127.326226 94.54272 
L 130.381984 92.85024 
L 133.38393 94.82136 
L 136.470095 95.75016 
L 139.540387 96.97824 
L 142.559367 97.08144 
L 145.611007 97.23624 
L 148.669087 95.94624 
L 151.686554 96.30744 
L 154.685543 98.08248 
L 157.774454 97.2672 
L 160.855234 96.61704 
L 163.84993 97.23624 
L 166.921912 98.08248 
L 169.952963 99.18672 
L 172.995981 99.03192 
L 175.992894 99.1248 
L 179.095741 98.74296 
L 182.181484 99.09384 
L 185.192334 100.0536 
L 188.267307 101.23008 
L 191.297655 101.99376 
L 194.288338 102.08664 
L 197.282365 102.8916 
L 200.388486 102.45816 
L 203.442695 102.28272 
L 206.425425 102.10728 
L 209.497723 102.582 
L 212.556332 102.29304 
L 215.609027 102.08664 
L 218.627549 102.066 
L 221.690381 101.86992 
L 224.832223 101.48808 
L 227.890339 101.40552 
L 230.834249 101.4984 
L 233.860444 101.97312 
L 236.972829 102.26208 
L 239.891998 102.066 
L 242.996042 101.90088 
L 246.125813 101.90088 
L 248.9848 102.0144 
L 252.03644 102.25176 
L 255.076395 102.6336 
L 258.132751 102.88128 
L 261.136246 102.77808 
L 264.234975 102.85032 
L 267.297736 102.93288 
L 270.279551 102.95352 
L 273.364801 103.00512 
L 276.352318 102.69552 
L 279.36 102.55104 
" clip-path="url(#pa97499fe85)" style="fill: none; stroke: #f5841e; stroke-width: 0.6"/>
   </g>
  </g>
 </g>
 <defs>
  <clipPath id="pa97499fe85">
   <rect x="8.64" y="4.8" width="270.72" height="103.2"/>
  </clipPath>
 </defs>
</svg>
