<?xml version="1.0" encoding="utf-8" standalone="no"?>
<!DOCTYPE svg PUBLIC "-//W3C//DTD SVG 1.1//EN"
  "http://www.w3.org/Graphics/SVG/1.1/DTD/svg11.dtd">
<svg xmlns:xlink="http://www.w3.org/1999/xlink" width="288pt" height="120pt" viewBox="0 0 288 120" xmlns="http://www.w3.org/2000/svg" version="1.1">
<desc id="nav-meta">{"window":"1m","count":4,"labels":["08.02","18.02","27.02","09.03"],"tick_utc":["2026-02-08T03:46:03Z","2026-02-18T03:30:34Z","2026-02-27T03:18:03Z","2026-03-09T03:23:53Z"],"w":720,"h":300}</desc>

 <metadata>
  <rdf:RDF xmlns:dc="http://purl.org/dc/elements/1.1/" xmlns:cc="http://creativecommons.org/ns#" xmlns:rdf="http://www.w3.org/1999/02/22-rdf-syntax-ns#">
   <cc:Work>
    <dc:type rdf:resource="http://purl.org/dc/dcmitype/StillImage"/>
    <dc:date>2026-03-09T07:37:34.977067</dc:date>
    <dc:format>image/svg+xml</dc:format>
    <dc:creator>
     <cc:Agent>
      <dc:title>Matplotlib v3.10.8, https://matplotlib.org/</dc:title>
     </cc:Agent>
    </dc:creator>
   </cc:Work>
  </rdf:RDF>
 </metadata>
 <defs>
  <style type="text/css">*{stroke-linejoin: round; stroke-linecap: butt}</style>
 </defs>
 <g id="figure_1">
  <g id="patch_1">
   <path d="M 0 120 
L 288 120 
L 288 0 
L 0 0 
L 0 120 
z
" style="fill: none; opacity: 0"/>
  </g>
  <g id="axes_1">
   <g id="patch_2">
    <path d="M 8.64 108 
L 279.36 108 
L 279.36 4.8 
L 8.64 4.8 
L 8.64 108 
z
" style="fill: none"/>
   </g>
   <g id="matplotlib.axis_1"/>
   <g id="matplotlib.axis_2"/>
   <g id="line2d_1">
    <path d="M 8.64 87.36 
L 279.36 87.36 
" clip-path="url(#pbe8d9f272c)" style="fill: none; stroke: #b2b2b2; stroke-opacity: 0.35; stroke-width: 0.5; stroke-linecap: square"/>
   </g>
   <g id="line2d_2">
    <path d="M 8.64 66.72 
L 279.36 66.72 
" clip-path="url(#pbe8d9f272c)" style="fill: none; stroke: #b2b2b2; stroke-opacity: 0.35; stroke-width: 0.5; stroke-linecap: square"/>
   </g>
   <g id="line2d_3">
    <path d="M 8.64 46.08 
L 279.36 46.08 
" clip-path="url(#pbe8d9f272c)" style="fill: none; stroke: #b2b2b2; stroke-opacity: 0.35; stroke-width: 0.5; stroke-linecap: square"/>
   </g>
   <g id="line2d_4">
    <path d="M 8.64 25.44 
L 279.36 25.44 
" clip-path="url(#pbe8d9f272c)" style="fill: none; stroke: #b2b2b2; stroke-opacity: 0.35; stroke-width: 0.5; stroke-linecap: square"/>
   </g>
   <g id="line2d_5">
    <path d="M 8.64 100.70376 
L 17.903053 100.68312 
L 27.296478 100.95144 
L 36.617258 101.28168 
L 45.923768 101.71512 
L 55.261087 101.84928 
L 64.488898 101.034 
L 73.336185 100.54896 
L 83.275424 101.04432 
L 91.442309 100.81728 
L 101.940875 101.034 
L 111.269654 101.4984 
L 120.555192 101.33328 
L 129.838244 101.1372 
L 139.285072 101.06496 
L 148.653309 102.09696 
L 157.204393 102.05568 
L 167.299949 101.4984 
L 176.59846 100.60056 
L 185.920861 100.80696 
L 195.150942 101.45712 
L 204.703279 100.55928 
L 213.946981 101.10624 
L 223.308841 100.8792 
L 232.596649 100.74504 
L 241.956886 100.21872 
L 251.292584 100.53864 
L 260.561042 101.07528 
L 269.991871 101.38488 
L 279.36 101.26104 
" clip-path="url(#pbe8d9f272c)" style="fill: none; stroke: #bebebe; stroke-width: 0.5; stroke-linecap: round"/>
   </g>
   <g id="line2d_6">
    <path d="M 8.64 88.65 
L 17.903053 88.55712 
L 27.296478 88.96992 
L 36.617258 89.7336 
L 45.923768 90.456 
L 55.261087 90.56952 
L 64.488898 89.15568 
L 73.336185 88.9596 
L 83.275424 90.6624 
L 91.442309 89.94 
L 101.940875 90.00192 
L 111.269654 90.3528 
L 120.555192 90.62112 
L 129.838244 90.5076 
L 139.285072 90.3528 
L 148.653309 92.004 
L 157.204393 92.13816 
L 167.299949 91.25064 
L 176.59846 89.166 
L 185.920861 89.56848 
L 195.150942 90.93072 
L 204.703279 89.41368 
L 213.946981 90.37344 
L 223.308841 89.79552 
L 232.596649 90.23928 
L 241.956886 88.0824 
L 251.292584 88.7532 
L 260.561042 90.16704 
L 269.991871 90.67272 
L 279.36 90.18768 
" clip-path="url(#pbe8d9f272c)" style="fill: none; stroke: #4a8dff; stroke-width: 0.6"/>
   </g>
   <g id="line2d_7">
    <path d="M 8.64 100.518 
L 17.903053 99.98136 
L 27.296478 100.49736 
L 36.617258 100.78632 
L 45.923768 101.07528 
L 55.261087 101.26104 
L 64.488898 100.63152 
L 73.336185 100.38384 
L 83.275424 100.84824 
L 91.442309 100.65216 
L 101.940875 101.034 
L 111.269654 101.19912 
L 120.555192 101.10624 
L 129.838244 100.97208 
L 139.285072 100.91016 
L 148.653309 101.7564 
L 157.204393 101.84928 
L 167.299949 101.56032 
L 176.59846 100.85856 
L 185.920861 101.12688 
L 195.150942 101.4468 
L 204.703279 101.02368 
L 213.946981 101.30232 
L 223.308841 100.81728 
L 232.596649 100.79664 
L 241.956886 99.3312 
L 251.292584 99.92976 
L 260.561042 100.78632 
L 269.991871 101.17848 
L 279.36 101.1372 
" clip-path="url(#pbe8d9f272c)" style="fill: none; stroke: #f5841e; stroke-width: 0.6"/>
   </g>
  </g>
 </g>
 <defs>
  <clipPath id="pbe8d9f272c">
   <rect x="8.64" y="4.8" width="270.72" height="103.2"/>
  </clipPath>
 </defs>
</svg>
