<?xml version="1.0" encoding="utf-8" standalone="no"?>
<!DOCTYPE svg PUBLIC "-//W3C//DTD SVG 1.1//EN"
  "http://www.w3.org/Graphics/SVG/1.1/DTD/svg11.dtd">
<svg xmlns:xlink="http://www.w3.org/1999/xlink" width="288pt" height="120pt" viewBox="0 0 288 120" xmlns="http://www.w3.org/2000/svg" version="1.1">
<desc id="nav-meta">{"window":"1m","count":4,"labels":["08.06","18.06","28.06","08.07"],"tick_utc":["2026-06-08T05:18:19Z","2026-06-18T05:23:06Z","2026-06-28T05:07:25Z","2026-07-08T03:58:12Z"],"w":720,"h":300}</desc>

 <metadata>
  <rdf:RDF xmlns:dc="http://purl.org/dc/elements/1.1/" xmlns:cc="http://creativecommons.org/ns#" xmlns:rdf="http://www.w3.org/1999/02/22-rdf-syntax-ns#">
   <cc:Work>
    <dc:type rdf:resource="http://purl.org/dc/dcmitype/StillImage"/>
    <dc:date>2026-07-08T03:58:13.722677</dc:date>
    <dc:format>image/svg+xml</dc:format>
    <dc:creator>
     <cc:Agent>
      <dc:title>Matplotlib v3.11.0, https://matplotlib.org/</dc:title>
     </cc:Agent>
    </dc:creator>
   </cc:Work>
  </rdf:RDF>
 </metadata>
 <defs>
  <style type="text/css">*{stroke-linejoin: round; stroke-linecap: butt}</style>
 </defs>
 <g id="figure_1">
  <g id="patch_1">
   <path d="M 0 120 
L 288 120 
L 288 0 
L 0 0 
L 0 120 
z
" style="fill: none; opacity: 0"/>
  </g>
  <g id="axes_1">
   <g id="patch_2">
    <path d="M 8.64 108 
L 279.36 108 
L 279.36 4.8 
L 8.64 4.8 
L 8.64 108 
z
" style="fill: none"/>
   </g>
   <g id="matplotlib.axis_1"/>
   <g id="matplotlib.axis_2"/>
   <g id="line2d_1">
    <path d="M 8.64 87.36 
L 279.36 87.36 
" clip-path="url(#pe9d4a38de6)" style="fill: none; stroke: #b2b2b2; stroke-opacity: 0.35; stroke-width: 0.5; stroke-linecap: square"/>
   </g>
   <g id="line2d_2">
    <path d="M 8.64 66.72 
L 279.36 66.72 
" clip-path="url(#pe9d4a38de6)" style="fill: none; stroke: #b2b2b2; stroke-opacity: 0.35; stroke-width: 0.5; stroke-linecap: square"/>
   </g>
   <g id="line2d_3">
    <path d="M 8.64 46.08 
L 279.36 46.08 
" clip-path="url(#pe9d4a38de6)" style="fill: none; stroke: #b2b2b2; stroke-opacity: 0.35; stroke-width: 0.5; stroke-linecap: square"/>
   </g>
   <g id="line2d_4">
    <path d="M 8.64 25.44 
L 279.36 25.44 
" clip-path="url(#pe9d4a38de6)" style="fill: none; stroke: #b2b2b2; stroke-opacity: 0.35; stroke-width: 0.5; stroke-linecap: square"/>
   </g>
   <g id="line2d_5">
    <path d="M 8.64 103.68624 
L 17.508218 103.43856 
L 26.64274 103.81008 
L 35.736559 103.72752 
L 44.812798 103.50048 
L 53.787433 103.5108 
L 62.893808 103.31472 
L 72.235096 102.95352 
L 81.327449 102.61296 
L 90.080251 102.6336 
L 99.077697 102.9948 
L 108.331403 103.28376 
L 117.010643 103.01544 
L 126.23955 102.69552 
L 135.544947 102.582 
L 144.045256 102.88128 
L 153.118356 103.15992 
L 162.156716 103.36632 
L 171.243837 103.36632 
L 180.173792 102.81936 
L 189.386898 103.0464 
L 198.493064 102.9432 
L 207.358561 102.59232 
L 216.53159 102.40656 
L 225.414039 102.02472 
L 234.356445 101.68416 
L 243.358286 101.3436 
L 252.531421 101.6532 
L 261.65977 101.6532 
L 270.564925 101.63256 
L 279.36 101.95248 
" clip-path="url(#pe9d4a38de6)" style="fill: none; stroke: #bebebe; stroke-width: 0.5; stroke-linecap: round"/>
   </g>
   <g id="line2d_6">
    <path d="M 8.64 95.07936 
L 17.508218 94.46016 
L 26.64274 95.47152 
L 35.736559 95.11032 
L 44.812798 94.82136 
L 53.787433 94.8936 
L 62.893808 94.70784 
L 72.235096 94.04736 
L 81.327449 93.40752 
L 90.080251 92.9844 
L 99.077697 93.93384 
L 108.331403 94.4292 
L 117.010643 94.19184 
L 126.23955 93.87192 
L 135.544947 93.81 
L 144.045256 94.03704 
L 153.118356 94.83168 
L 162.156716 95.48184 
L 171.243837 96.63768 
L 180.173792 96.14232 
L 189.386898 96.30744 
L 198.493064 96.29712 
L 207.358561 96.04944 
L 216.53159 95.9256 
L 225.414039 95.39928 
L 234.356445 94.31568 
L 243.358286 93.57264 
L 252.531421 93.32496 
L 261.65977 93.22176 
L 270.564925 93.35592 
L 279.36 93.61392 
" clip-path="url(#pe9d4a38de6)" style="fill: none; stroke: #4a8dff; stroke-width: 0.6"/>
   </g>
   <g id="line2d_7">
    <path d="M 8.64 102.28272 
L 17.508218 102.10728 
L 26.64274 102.582 
L 35.736559 102.29304 
L 44.812798 102.08664 
L 53.787433 102.066 
L 62.893808 101.86992 
L 72.235096 101.48808 
L 81.327449 101.40552 
L 90.080251 101.4984 
L 99.077697 101.97312 
L 108.331403 102.26208 
L 117.010643 102.066 
L 126.23955 101.90088 
L 135.544947 101.90088 
L 144.045256 102.0144 
L 153.118356 102.25176 
L 162.156716 102.6336 
L 171.243837 102.88128 
L 180.173792 102.77808 
L 189.386898 102.85032 
L 198.493064 102.93288 
L 207.358561 102.95352 
L 216.53159 103.00512 
L 225.414039 102.69552 
L 234.356445 102.55104 
L 243.358286 102.2724 
L 252.531421 102.21048 
L 261.65977 102.12792 
L 270.564925 102.13824 
L 279.36 102.25176 
" clip-path="url(#pe9d4a38de6)" style="fill: none; stroke: #f5841e; stroke-width: 0.6"/>
   </g>
  </g>
 </g>
 <defs>
  <clipPath id="pe9d4a38de6">
   <rect x="8.64" y="4.8" width="270.72" height="103.2"/>
  </clipPath>
 </defs>
</svg>
