<?xml version="1.0" encoding="utf-8" standalone="no"?>
<!DOCTYPE svg PUBLIC "-//W3C//DTD SVG 1.1//EN"
  "http://www.w3.org/Graphics/SVG/1.1/DTD/svg11.dtd">
<svg xmlns:xlink="http://www.w3.org/1999/xlink" width="288pt" height="120pt" viewBox="0 0 288 120" xmlns="http://www.w3.org/2000/svg" version="1.1">
<desc id="nav-meta">{"window":"1m","count":4,"labels":["17.01","27.01","06.02","16.02"],"tick_utc":["2026-01-17T12:00:00Z","2026-01-27T12:00:00Z","2026-02-06T03:19:18Z","2026-02-16T03:32:51Z"],"w":720,"h":300}</desc>

 <metadata>
  <rdf:RDF xmlns:dc="http://purl.org/dc/elements/1.1/" xmlns:cc="http://creativecommons.org/ns#" xmlns:rdf="http://www.w3.org/1999/02/22-rdf-syntax-ns#">
   <cc:Work>
    <dc:type rdf:resource="http://purl.org/dc/dcmitype/StillImage"/>
    <dc:date>2026-02-16T03:32:53.500920</dc:date>
    <dc:format>image/svg+xml</dc:format>
    <dc:creator>
     <cc:Agent>
      <dc:title>Matplotlib v3.10.8, https://matplotlib.org/</dc:title>
     </cc:Agent>
    </dc:creator>
   </cc:Work>
  </rdf:RDF>
 </metadata>
 <defs>
  <style type="text/css">*{stroke-linejoin: round; stroke-linecap: butt}</style>
 </defs>
 <g id="figure_1">
  <g id="patch_1">
   <path d="M 0 120 
L 288 120 
L 288 0 
L 0 0 
L 0 120 
z
" style="fill: none; opacity: 0"/>
  </g>
  <g id="axes_1">
   <g id="patch_2">
    <path d="M 8.64 108 
L 279.36 108 
L 279.36 4.8 
L 8.64 4.8 
L 8.64 108 
z
" style="fill: none"/>
   </g>
   <g id="matplotlib.axis_1"/>
   <g id="matplotlib.axis_2"/>
   <g id="line2d_1">
    <path d="M 8.64 87.36 
L 279.36 87.36 
" clip-path="url(#p20f060837c)" style="fill: none; stroke: #b2b2b2; stroke-opacity: 0.35; stroke-width: 0.5; stroke-linecap: square"/>
   </g>
   <g id="line2d_2">
    <path d="M 8.64 66.72 
L 279.36 66.72 
" clip-path="url(#p20f060837c)" style="fill: none; stroke: #b2b2b2; stroke-opacity: 0.35; stroke-width: 0.5; stroke-linecap: square"/>
   </g>
   <g id="line2d_3">
    <path d="M 8.64 46.08 
L 279.36 46.08 
" clip-path="url(#p20f060837c)" style="fill: none; stroke: #b2b2b2; stroke-opacity: 0.35; stroke-width: 0.5; stroke-linecap: square"/>
   </g>
   <g id="line2d_4">
    <path d="M 8.64 25.44 
L 279.36 25.44 
" clip-path="url(#p20f060837c)" style="fill: none; stroke: #b2b2b2; stroke-opacity: 0.35; stroke-width: 0.5; stroke-linecap: square"/>
   </g>
   <g id="line2d_5">
    <path d="M 8.64 86.93688 
L 17.771196 87.23616 
L 26.902393 88.63968 
L 36.033589 90.0432 
L 45.164786 92.12784 
L 54.295982 91.16808 
L 63.427179 91.46736 
L 72.558375 91.73568 
L 81.689572 91.78728 
L 90.820768 94.0164 
L 99.951964 92.5716 
L 109.083161 91.76664 
L 118.214357 92.33424 
L 127.345554 94.36728 
L 136.47675 94.46016 
L 145.607947 97.71096 
L 154.739143 98.48496 
L 163.87034 97.85544 
L 171.57912 99.10416 
L 178.835567 100.16712 
L 187.962114 102.23112 
L 197.054207 100.54896 
L 206.394131 100.70376 
L 215.449974 100.68312 
L 224.633273 100.95144 
L 233.745552 101.28168 
L 242.84388 101.71512 
L 251.972329 101.84928 
L 260.993719 101.034 
L 269.643096 100.54896 
L 279.36 101.04432 
" clip-path="url(#p20f060837c)" style="fill: none; stroke: #bebebe; stroke-width: 0.5; stroke-linecap: round"/>
   </g>
   <g id="line2d_6">
    <path d="M 8.64 70.67256 
L 17.771196 70.51776 
L 26.902393 70.848 
L 36.033589 72.31344 
L 45.164786 76.01832 
L 54.295982 75.41976 
L 63.427179 75.83256 
L 72.558375 75.79128 
L 81.689572 75.82224 
L 90.820768 77.82432 
L 99.951964 76.14216 
L 109.083161 74.75928 
L 118.214357 74.96568 
L 127.345554 77.75208 
L 136.47675 79.48584 
L 145.607947 83.31456 
L 154.739143 85.90488 
L 163.87034 84.79032 
L 171.57912 85.84296 
L 178.835567 88.25784 
L 187.962114 91.41576 
L 197.054207 88.7532 
L 206.394131 88.65 
L 215.449974 88.55712 
L 224.633273 88.96992 
L 233.745552 89.7336 
L 242.84388 90.456 
L 251.972329 90.56952 
L 260.993719 89.15568 
L 269.643096 88.9596 
L 279.36 90.6624 
" clip-path="url(#p20f060837c)" style="fill: none; stroke: #4a8dff; stroke-width: 0.6"/>
   </g>
   <g id="line2d_7">
    <path d="M 8.64 77.74176 
L 17.771196 78.1752 
L 26.902393 79.5684 
L 36.033589 80.8068 
L 45.164786 85.20312 
L 54.295982 84.12984 
L 63.427179 84.03696 
L 72.558375 84.06792 
L 81.689572 84.3156 
L 90.820768 87.02976 
L 99.951964 85.21344 
L 109.083161 84.28464 
L 118.214357 84.32592 
L 127.345554 89.08344 
L 136.47675 89.5272 
L 145.607947 95.14128 
L 154.739143 96.98856 
L 163.87034 95.08968 
L 171.57912 97.71096 
L 178.835567 99.80592 
L 187.962114 101.79768 
L 197.054207 100.03296 
L 206.394131 100.518 
L 215.449974 99.98136 
L 224.633273 100.49736 
L 233.745552 100.78632 
L 242.84388 101.07528 
L 251.972329 101.26104 
L 260.993719 100.63152 
L 269.643096 100.38384 
L 279.36 100.84824 
" clip-path="url(#p20f060837c)" style="fill: none; stroke: #f5841e; stroke-width: 0.6"/>
   </g>
  </g>
 </g>
 <defs>
  <clipPath id="p20f060837c">
   <rect x="8.64" y="4.8" width="270.72" height="103.2"/>
  </clipPath>
 </defs>
</svg>
