<?xml version="1.0" encoding="utf-8" standalone="no"?>
<!DOCTYPE svg PUBLIC "-//W3C//DTD SVG 1.1//EN"
  "http://www.w3.org/Graphics/SVG/1.1/DTD/svg11.dtd">
<svg xmlns:xlink="http://www.w3.org/1999/xlink" width="288pt" height="120pt" viewBox="0 0 288 120" xmlns="http://www.w3.org/2000/svg" version="1.1">
<desc id="nav-meta">{"window":"3m","count":4,"labels":["02.04","02.05","31.05","30.06"],"tick_utc":["2026-04-02T03:35:34Z","2026-05-02T04:02:31Z","2026-05-31T05:08:27Z","2026-06-30T04:49:55Z"],"w":720,"h":300}</desc>

 <metadata>
  <rdf:RDF xmlns:dc="http://purl.org/dc/elements/1.1/" xmlns:cc="http://creativecommons.org/ns#" xmlns:rdf="http://www.w3.org/1999/02/22-rdf-syntax-ns#">
   <cc:Work>
    <dc:type rdf:resource="http://purl.org/dc/dcmitype/StillImage"/>
    <dc:date>2026-06-30T10:18:41.039201</dc:date>
    <dc:format>image/svg+xml</dc:format>
    <dc:creator>
     <cc:Agent>
      <dc:title>Matplotlib v3.11.0, https://matplotlib.org/</dc:title>
     </cc:Agent>
    </dc:creator>
   </cc:Work>
  </rdf:RDF>
 </metadata>
 <defs>
  <style type="text/css">*{stroke-linejoin: round; stroke-linecap: butt}</style>
 </defs>
 <g id="figure_1">
  <g id="patch_1">
   <path d="M 0 120 
L 288 120 
L 288 0 
L 0 0 
L 0 120 
z
" style="fill: none; opacity: 0"/>
  </g>
  <g id="axes_1">
   <g id="patch_2">
    <path d="M 8.64 108 
L 279.36 108 
L 279.36 4.8 
L 8.64 4.8 
L 8.64 108 
z
" style="fill: none"/>
   </g>
   <g id="matplotlib.axis_1"/>
   <g id="matplotlib.axis_2"/>
   <g id="line2d_1">
    <path d="M 8.64 87.36 
L 279.36 87.36 
" clip-path="url(#pb874d92682)" style="fill: none; stroke: #b2b2b2; stroke-opacity: 0.35; stroke-width: 0.5; stroke-linecap: square"/>
   </g>
   <g id="line2d_2">
    <path d="M 8.64 66.72 
L 279.36 66.72 
" clip-path="url(#pb874d92682)" style="fill: none; stroke: #b2b2b2; stroke-opacity: 0.35; stroke-width: 0.5; stroke-linecap: square"/>
   </g>
   <g id="line2d_3">
    <path d="M 8.64 46.08 
L 279.36 46.08 
" clip-path="url(#pb874d92682)" style="fill: none; stroke: #b2b2b2; stroke-opacity: 0.35; stroke-width: 0.5; stroke-linecap: square"/>
   </g>
   <g id="line2d_4">
    <path d="M 8.64 25.44 
L 279.36 25.44 
" clip-path="url(#pb874d92682)" style="fill: none; stroke: #b2b2b2; stroke-opacity: 0.35; stroke-width: 0.5; stroke-linecap: square"/>
   </g>
   <g id="line2d_5">
    <path d="M 8.64 101.8596 
L 11.683517 101.88024 
L 14.697514 101.72544 
L 17.783325 101.68416 
L 20.831205 101.47776 
L 23.8515 101.78736 
L 26.89646 101.09592 
L 29.925904 101.46744 
L 32.99391 101.3436 
L 35.987464 101.05464 
L 39.082036 101.3952 
L 42.137657 101.47776 
L 45.15834 100.86888 
L 48.196051 101.26104 
L 51.249245 100.99272 
L 54.283086 100.61088 
L 57.289589 100.44576 
L 60.36977 100.94112 
L 63.417333 101.09592 
L 66.444032 101.00304 
L 69.474637 100.69344 
L 72.526986 100.9308 
L 75.575077 100.92048 
L 78.578835 100.81728 
L 81.666159 100.8792 
L 84.738951 100.64184 
L 87.785353 101.1888 
L 90.817084 101.09592 
L 93.86222 101.37456 
L 96.935469 101.21976 
L 99.897919 101.20944 
L 102.999668 101.23008 
L 106.038647 100.92048 
L 109.011723 101.06496 
L 112.10531 100.70376 
L 115.146153 100.55928 
L 118.13559 100.53864 
L 121.186743 99.60984 
L 124.288035 99.72336 
L 127.352066 99.44472 
L 130.349877 99.25896 
L 133.404373 99.32088 
L 136.441029 100.22904 
L 139.496052 100.01232 
L 142.497277 100.43544 
L 145.5827 100.75536 
L 148.652255 101.02368 
L 151.670509 101.02368 
L 154.721416 101.17848 
L 157.778761 100.7244 
L 160.795502 100.75536 
L 163.793771 101.11656 
L 166.881939 100.91016 
L 169.961979 100.89984 
L 172.955956 101.1372 
L 176.027199 101.2404 
L 179.057522 101.6532 
L 182.099808 101.4984 
L 185.096001 101.48808 
L 188.198103 101.32296 
L 191.283104 101.51904 
L 194.29323 101.7048 
L 197.367465 102.54072 
L 200.397084 103.08768 
L 203.387049 103.36632 
L 206.380357 104.22288 
L 209.48573 103.85136 
L 212.539205 103.68624 
L 215.521219 103.43856 
L 218.592779 103.81008 
L 221.650652 103.72752 
L 224.702614 103.50048 
L 227.720411 103.5108 
L 230.782507 103.31472 
L 233.923594 102.95352 
L 236.980974 102.61296 
L 239.924178 102.6336 
L 242.949645 102.9948 
L 246.061282 103.28376 
L 248.97975 103.01544 
L 252.083048 102.69552 
L 255.212066 102.582 
L 258.070367 102.88128 
L 261.121273 103.15992 
L 264.160498 103.36632 
L 267.216119 103.36632 
L 270.218892 102.81936 
L 273.316877 103.0464 
L 276.378902 102.9432 
L 279.36 102.59232 
" clip-path="url(#pb874d92682)" style="fill: none; stroke: #bebebe; stroke-width: 0.5; stroke-linecap: round"/>
   </g>
   <g id="line2d_6">
    <path d="M 8.64 88.81512 
L 11.683517 89.10408 
L 14.697514 89.14536 
L 17.783325 89.07312 
L 20.831205 87.9792 
L 23.8515 88.29912 
L 26.89646 86.38992 
L 29.925904 87.24648 
L 32.99391 87.1536 
L 35.987464 86.21448 
L 39.082036 86.66856 
L 42.137657 87.01944 
L 45.15834 84.44976 
L 48.196051 85.05864 
L 51.249245 84.58392 
L 54.283086 85.04832 
L 57.289589 83.71704 
L 60.36977 84.86256 
L 63.417333 85.6572 
L 66.444032 85.27536 
L 69.474637 84.49104 
L 72.526986 84.86256 
L 75.575077 85.32696 
L 78.578835 85.17216 
L 81.666159 85.31664 
L 84.738951 84.11952 
L 87.785353 85.66752 
L 90.817084 85.26504 
L 93.86222 86.26608 
L 96.935469 85.77072 
L 99.897919 85.38888 
L 102.999668 85.3992 
L 106.038647 84.09888 
L 109.011723 84.22272 
L 112.10531 84.34656 
L 115.146153 85.06896 
L 118.13559 85.7604 
L 121.186743 85.0896 
L 124.288035 85.01736 
L 127.352066 84.9348 
L 130.349877 85.296 
L 133.404373 85.35792 
L 136.441029 86.1732 
L 139.496052 85.92552 
L 142.497277 86.55504 
L 145.5827 87.13296 
L 148.652255 88.10304 
L 151.670509 87.9276 
L 154.721416 88.26816 
L 157.778761 87.78312 
L 160.795502 87.95856 
L 163.793771 88.94928 
L 166.881939 88.14432 
L 169.961979 88.33008 
L 172.955956 88.52616 
L 176.027199 88.86672 
L 179.057522 90.22896 
L 182.099808 89.82648 
L 185.096001 89.87808 
L 188.198103 89.46528 
L 191.283104 90.0432 
L 194.29323 89.96064 
L 197.367465 91.99368 
L 200.397084 93.05664 
L 203.387049 93.74808 
L 206.380357 97.02984 
L 209.48573 95.93592 
L 212.539205 95.07936 
L 215.521219 94.46016 
L 218.592779 95.47152 
L 221.650652 95.11032 
L 224.702614 94.82136 
L 227.720411 94.8936 
L 230.782507 94.70784 
L 233.923594 94.04736 
L 236.980974 93.40752 
L 239.924178 92.9844 
L 242.949645 93.93384 
L 246.061282 94.4292 
L 248.97975 94.19184 
L 252.083048 93.87192 
L 255.212066 93.81 
L 258.070367 94.03704 
L 261.121273 94.83168 
L 264.160498 95.48184 
L 267.216119 96.63768 
L 270.218892 96.14232 
L 273.316877 96.30744 
L 276.378902 96.29712 
L 279.36 96.04944 
" clip-path="url(#pb874d92682)" style="fill: none; stroke: #4a8dff; stroke-width: 0.6"/>
   </g>
   <g id="line2d_7">
    <path d="M 8.64 101.21976 
L 11.683517 101.28168 
L 14.697514 101.20944 
L 17.783325 101.14752 
L 20.831205 100.55928 
L 23.8515 100.65216 
L 26.89646 99.80592 
L 29.925904 99.96072 
L 32.99391 99.6408 
L 35.987464 99.1764 
L 39.082036 99.70272 
L 42.137657 99.94008 
L 45.15834 98.57784 
L 48.196051 98.65008 
L 51.249245 98.38176 
L 54.283086 98.48496 
L 57.289589 96.70992 
L 60.36977 98.05152 
L 63.417333 98.48496 
L 66.444032 97.96896 
L 69.474637 96.32808 
L 72.526986 96.20424 
L 75.575077 96.16296 
L 78.578835 96.1836 
L 81.666159 96.50352 
L 84.738951 94.76976 
L 87.785353 97.19496 
L 90.817084 96.9576 
L 93.86222 97.9896 
L 96.935469 96.89568 
L 99.897919 95.45088 
L 102.999668 95.67792 
L 106.038647 93.43848 
L 109.011723 92.90184 
L 112.10531 92.25168 
L 115.146153 92.87088 
L 118.13559 94.2744 
L 121.186743 93.1392 
L 124.288035 92.97408 
L 127.352066 92.9844 
L 130.349877 92.60256 
L 133.404373 92.53032 
L 136.441029 94.54272 
L 139.496052 92.85024 
L 142.497277 94.82136 
L 145.5827 95.75016 
L 148.652255 96.97824 
L 151.670509 97.08144 
L 154.721416 97.23624 
L 157.778761 95.94624 
L 160.795502 96.30744 
L 163.793771 98.08248 
L 166.881939 97.2672 
L 169.961979 96.61704 
L 172.955956 97.23624 
L 176.027199 98.08248 
L 179.057522 99.18672 
L 182.099808 99.03192 
L 185.096001 99.1248 
L 188.198103 98.74296 
L 191.283104 99.09384 
L 194.29323 100.0536 
L 197.367465 101.23008 
L 200.397084 101.99376 
L 203.387049 102.08664 
L 206.380357 102.8916 
L 209.48573 102.45816 
L 212.539205 102.28272 
L 215.521219 102.10728 
L 218.592779 102.582 
L 221.650652 102.29304 
L 224.702614 102.08664 
L 227.720411 102.066 
L 230.782507 101.86992 
L 233.923594 101.48808 
L 236.980974 101.40552 
L 239.924178 101.4984 
L 242.949645 101.97312 
L 246.061282 102.26208 
L 248.97975 102.066 
L 252.083048 101.90088 
L 255.212066 101.90088 
L 258.070367 102.0144 
L 261.121273 102.25176 
L 264.160498 102.6336 
L 267.216119 102.88128 
L 270.218892 102.77808 
L 273.316877 102.85032 
L 276.378902 102.93288 
L 279.36 102.95352 
" clip-path="url(#pb874d92682)" style="fill: none; stroke: #f5841e; stroke-width: 0.6"/>
   </g>
  </g>
 </g>
 <defs>
  <clipPath id="pb874d92682">
   <rect x="8.64" y="4.8" width="270.72" height="103.2"/>
  </clipPath>
 </defs>
</svg>
