<?xml version="1.0" encoding="utf-8" standalone="no"?>
<!DOCTYPE svg PUBLIC "-//W3C//DTD SVG 1.1//EN"
  "http://www.w3.org/Graphics/SVG/1.1/DTD/svg11.dtd">
<svg xmlns:xlink="http://www.w3.org/1999/xlink" width="288pt" height="120pt" viewBox="0 0 288 120" xmlns="http://www.w3.org/2000/svg" version="1.1">
<desc id="nav-meta">{"window":"1m","count":4,"labels":["21.01","31.01","10.02","20.02"],"tick_utc":["2026-01-21T12:00:00Z","2026-01-31T12:00:00Z","2026-02-10T03:42:23Z","2026-02-20T03:20:24Z"],"w":720,"h":300}</desc>

 <metadata>
  <rdf:RDF xmlns:dc="http://purl.org/dc/elements/1.1/" xmlns:cc="http://creativecommons.org/ns#" xmlns:rdf="http://www.w3.org/1999/02/22-rdf-syntax-ns#">
   <cc:Work>
    <dc:type rdf:resource="http://purl.org/dc/dcmitype/StillImage"/>
    <dc:date>2026-02-20T07:35:44.633634</dc:date>
    <dc:format>image/svg+xml</dc:format>
    <dc:creator>
     <cc:Agent>
      <dc:title>Matplotlib v3.10.8, https://matplotlib.org/</dc:title>
     </cc:Agent>
    </dc:creator>
   </cc:Work>
  </rdf:RDF>
 </metadata>
 <defs>
  <style type="text/css">*{stroke-linejoin: round; stroke-linecap: butt}</style>
 </defs>
 <g id="figure_1">
  <g id="patch_1">
   <path d="M 0 120 
L 288 120 
L 288 0 
L 0 0 
L 0 120 
z
" style="fill: none; opacity: 0"/>
  </g>
  <g id="axes_1">
   <g id="patch_2">
    <path d="M 8.64 108 
L 279.36 108 
L 279.36 4.8 
L 8.64 4.8 
L 8.64 108 
z
" style="fill: none"/>
   </g>
   <g id="matplotlib.axis_1"/>
   <g id="matplotlib.axis_2"/>
   <g id="line2d_1">
    <path d="M 8.64 87.36 
L 279.36 87.36 
" clip-path="url(#pbd8309be66)" style="fill: none; stroke: #b2b2b2; stroke-opacity: 0.35; stroke-width: 0.5; stroke-linecap: square"/>
   </g>
   <g id="line2d_2">
    <path d="M 8.64 66.72 
L 279.36 66.72 
" clip-path="url(#pbd8309be66)" style="fill: none; stroke: #b2b2b2; stroke-opacity: 0.35; stroke-width: 0.5; stroke-linecap: square"/>
   </g>
   <g id="line2d_3">
    <path d="M 8.64 46.08 
L 279.36 46.08 
" clip-path="url(#pbd8309be66)" style="fill: none; stroke: #b2b2b2; stroke-opacity: 0.35; stroke-width: 0.5; stroke-linecap: square"/>
   </g>
   <g id="line2d_4">
    <path d="M 8.64 25.44 
L 279.36 25.44 
" clip-path="url(#pbd8309be66)" style="fill: none; stroke: #b2b2b2; stroke-opacity: 0.35; stroke-width: 0.5; stroke-linecap: square"/>
   </g>
   <g id="line2d_5">
    <path d="M 8.64 92.12784 
L 17.77386 91.16808 
L 26.90772 91.46736 
L 36.04158 91.73568 
L 45.17544 91.78728 
L 54.3093 94.0164 
L 63.44316 92.5716 
L 72.57702 91.76664 
L 81.71088 92.33424 
L 90.84474 94.36728 
L 99.9786 94.46016 
L 109.11246 97.71096 
L 118.24632 98.48496 
L 127.380181 97.85544 
L 135.091209 99.10416 
L 142.349774 100.16712 
L 151.478982 102.23112 
L 160.573727 100.54896 
L 169.916376 100.70376 
L 178.974861 100.68312 
L 188.160839 100.95144 
L 197.275776 101.28168 
L 206.376758 101.71512 
L 215.50787 101.84928 
L 224.531891 101.034 
L 233.183792 100.54896 
L 242.90353 101.04432 
L 250.890054 100.81728 
L 261.156767 101.034 
L 270.279527 101.4984 
L 279.36 101.33328 
" clip-path="url(#pbd8309be66)" style="fill: none; stroke: #bebebe; stroke-width: 0.5; stroke-linecap: round"/>
   </g>
   <g id="line2d_6">
    <path d="M 8.64 76.01832 
L 17.77386 75.41976 
L 26.90772 75.83256 
L 36.04158 75.79128 
L 45.17544 75.82224 
L 54.3093 77.82432 
L 63.44316 76.14216 
L 72.57702 74.75928 
L 81.71088 74.96568 
L 90.84474 77.75208 
L 99.9786 79.48584 
L 109.11246 83.31456 
L 118.24632 85.90488 
L 127.380181 84.79032 
L 135.091209 85.84296 
L 142.349774 88.25784 
L 151.478982 91.41576 
L 160.573727 88.7532 
L 169.916376 88.65 
L 178.974861 88.55712 
L 188.160839 88.96992 
L 197.275776 89.7336 
L 206.376758 90.456 
L 215.50787 90.56952 
L 224.531891 89.15568 
L 233.183792 88.9596 
L 242.90353 90.6624 
L 250.890054 89.94 
L 261.156767 90.00192 
L 270.279527 90.3528 
L 279.36 90.62112 
" clip-path="url(#pbd8309be66)" style="fill: none; stroke: #4a8dff; stroke-width: 0.6"/>
   </g>
   <g id="line2d_7">
    <path d="M 8.64 85.20312 
L 17.77386 84.12984 
L 26.90772 84.03696 
L 36.04158 84.06792 
L 45.17544 84.3156 
L 54.3093 87.02976 
L 63.44316 85.21344 
L 72.57702 84.28464 
L 81.71088 84.32592 
L 90.84474 89.08344 
L 99.9786 89.5272 
L 109.11246 95.14128 
L 118.24632 96.98856 
L 127.380181 95.08968 
L 135.091209 97.71096 
L 142.349774 99.80592 
L 151.478982 101.79768 
L 160.573727 100.03296 
L 169.916376 100.518 
L 178.974861 99.98136 
L 188.160839 100.49736 
L 197.275776 100.78632 
L 206.376758 101.07528 
L 215.50787 101.26104 
L 224.531891 100.63152 
L 233.183792 100.38384 
L 242.90353 100.84824 
L 250.890054 100.65216 
L 261.156767 101.034 
L 270.279527 101.19912 
L 279.36 101.10624 
" clip-path="url(#pbd8309be66)" style="fill: none; stroke: #f5841e; stroke-width: 0.6"/>
   </g>
  </g>
 </g>
 <defs>
  <clipPath id="pbd8309be66">
   <rect x="8.64" y="4.8" width="270.72" height="103.2"/>
  </clipPath>
 </defs>
</svg>
