<?xml version="1.0" encoding="utf-8" standalone="no"?>
<!DOCTYPE svg PUBLIC "-//W3C//DTD SVG 1.1//EN"
  "http://www.w3.org/Graphics/SVG/1.1/DTD/svg11.dtd">
<svg xmlns:xlink="http://www.w3.org/1999/xlink" width="288pt" height="120pt" viewBox="0 0 288 120" xmlns="http://www.w3.org/2000/svg" version="1.1">
<desc id="nav-meta">{"window":"6m","count":4,"labels":["28.10","27.12","25.02","26.04"],"tick_utc":["2025-10-28T12:00:00Z","2025-12-27T12:00:00Z","2026-02-25T03:27:12Z","2026-04-26T04:06:31Z"],"w":720,"h":300}</desc>

 <metadata>
  <rdf:RDF xmlns:dc="http://purl.org/dc/elements/1.1/" xmlns:cc="http://creativecommons.org/ns#" xmlns:rdf="http://www.w3.org/1999/02/22-rdf-syntax-ns#">
   <cc:Work>
    <dc:type rdf:resource="http://purl.org/dc/dcmitype/StillImage"/>
    <dc:date>2026-04-26T08:07:07.284780</dc:date>
    <dc:format>image/svg+xml</dc:format>
    <dc:creator>
     <cc:Agent>
      <dc:title>Matplotlib v3.10.9, https://matplotlib.org/</dc:title>
     </cc:Agent>
    </dc:creator>
   </cc:Work>
  </rdf:RDF>
 </metadata>
 <defs>
  <style type="text/css">*{stroke-linejoin: round; stroke-linecap: butt}</style>
 </defs>
 <g id="figure_1">
  <g id="patch_1">
   <path d="M 0 120 
L 288 120 
L 288 0 
L 0 0 
L 0 120 
z
" style="fill: none; opacity: 0"/>
  </g>
  <g id="axes_1">
   <g id="patch_2">
    <path d="M 8.64 108 
L 279.36 108 
L 279.36 4.8 
L 8.64 4.8 
L 8.64 108 
z
" style="fill: none"/>
   </g>
   <g id="matplotlib.axis_1"/>
   <g id="matplotlib.axis_2"/>
   <g id="line2d_1">
    <path d="M 8.64 87.36 
L 279.36 87.36 
" clip-path="url(#p150f195ae9)" style="fill: none; stroke: #b2b2b2; stroke-opacity: 0.35; stroke-width: 0.5; stroke-linecap: square"/>
   </g>
   <g id="line2d_2">
    <path d="M 8.64 66.72 
L 279.36 66.72 
" clip-path="url(#p150f195ae9)" style="fill: none; stroke: #b2b2b2; stroke-opacity: 0.35; stroke-width: 0.5; stroke-linecap: square"/>
   </g>
   <g id="line2d_3">
    <path d="M 8.64 46.08 
L 279.36 46.08 
" clip-path="url(#p150f195ae9)" style="fill: none; stroke: #b2b2b2; stroke-opacity: 0.35; stroke-width: 0.5; stroke-linecap: square"/>
   </g>
   <g id="line2d_4">
    <path d="M 8.64 25.44 
L 279.36 25.44 
" clip-path="url(#p150f195ae9)" style="fill: none; stroke: #b2b2b2; stroke-opacity: 0.35; stroke-width: 0.5; stroke-linecap: square"/>
   </g>
   <g id="line2d_5">
    <path d="M 8.64 72.17928 
L 10.146752 73.38672 
L 11.653505 73.43832 
L 13.160257 76.15248 
L 14.66701 75.3372 
L 16.173762 75.58488 
L 17.680514 75.35784 
L 19.187267 81.168 
L 20.694019 84.01632 
L 22.200772 82.06584 
L 23.707524 84.19176 
L 25.214276 82.27224 
L 26.721029 83.29392 
L 28.227781 81.62208 
L 29.734534 80.72424 
L 31.241286 84.33624 
L 32.748038 84.64584 
L 34.254791 86.844 
L 35.761543 88.52616 
L 37.268296 88.36104 
L 38.775048 88.93896 
L 40.2818 90.79656 
L 41.788553 88.09272 
L 43.295305 89.22792 
L 44.802058 90.00192 
L 46.30881 91.39512 
L 47.815562 91.63248 
L 49.322315 90.75528 
L 50.829067 88.7016 
L 52.33582 88.52616 
L 53.842572 87.45288 
L 55.349324 88.0308 
L 56.856077 88.94928 
L 59.869582 89.7336 
L 61.376334 91.86984 
L 62.883086 88.60872 
L 64.389839 86.87496 
L 67.403344 90.11544 
L 68.910096 90.38376 
L 70.416848 90.53856 
L 71.923601 90.08448 
L 73.430353 88.79448 
L 74.937106 89.20728 
L 76.443858 89.22792 
L 77.95061 90.31152 
L 79.457363 90.10512 
L 80.964115 91.09584 
L 82.470868 91.61184 
L 83.97762 91.31256 
L 85.484372 92.87088 
L 86.991125 93.8616 
L 88.497877 92.02464 
L 90.00463 92.13816 
L 91.511382 92.07624 
L 93.018134 92.14848 
L 94.524887 92.64384 
L 96.031639 93.01536 
L 97.538392 93.69648 
L 100.551896 92.44776 
L 102.058649 92.30328 
L 103.565401 92.87088 
L 105.072154 92.38584 
L 106.578906 92.47872 
L 108.085658 91.88016 
L 109.592411 90.42504 
L 111.099163 90.08448 
L 112.605916 89.92968 
L 114.112668 88.76352 
L 115.61942 87.94824 
L 117.126173 89.2692 
L 118.632925 88.72224 
L 120.139678 89.39304 
L 121.64643 89.40336 
L 123.153182 88.41264 
L 124.659935 88.4952 
L 126.166687 86.86464 
L 127.67344 86.42088 
L 129.180192 87.62832 
L 130.686944 86.93688 
L 132.193697 87.23616 
L 135.207202 90.0432 
L 136.713954 92.12784 
L 138.220706 91.16808 
L 141.234211 91.73568 
L 142.740964 91.78728 
L 144.247716 94.0164 
L 145.754468 92.5716 
L 147.261221 91.76664 
L 148.767973 92.33424 
L 150.274726 94.36728 
L 151.781478 94.46016 
L 153.28823 97.71096 
L 154.794983 98.48496 
L 156.301735 97.85544 
L 158.77117 100.16712 
L 160.277155 102.23112 
L 161.777455 100.54896 
L 163.31865 100.70376 
L 164.812968 100.68312 
L 167.831949 101.28168 
L 169.333277 101.71512 
L 170.839576 101.84928 
L 172.328209 101.034 
L 173.755456 100.54896 
L 175.358857 101.04432 
L 176.676341 100.81728 
L 178.369973 101.034 
L 179.874894 101.4984 
L 184.394349 101.06496 
L 185.905636 102.09696 
L 187.285099 102.05568 
L 188.913717 101.4984 
L 190.413755 100.60056 
L 191.917647 100.80696 
L 193.406647 101.45712 
L 194.947632 100.55928 
L 196.438829 101.10624 
L 199.447398 100.74504 
L 200.957394 100.21872 
L 202.463432 100.53864 
L 203.958622 101.07528 
L 205.480006 101.38488 
L 206.991275 101.26104 
L 208.488349 100.78632 
L 211.50719 100.99272 
L 213.01103 100.38384 
L 216.051356 100.60056 
L 217.562364 99.76464 
L 219.042748 99.49632 
L 220.560993 99.40344 
L 222.068164 100.09488 
L 223.56025 100.3632 
L 225.058178 100.19808 
L 228.097755 100.79664 
L 229.590556 100.26 
L 231.20953 99.83688 
L 232.622389 100.13616 
L 235.62339 101.38488 
L 241.678651 101.28168 
L 243.165558 101.8596 
L 244.674037 101.88024 
L 246.167884 101.72544 
L 247.697325 101.68416 
L 249.207966 101.47776 
L 250.704935 101.78736 
L 252.214129 101.09592 
L 253.715632 101.46744 
L 255.236249 101.3436 
L 256.719964 101.05464 
L 258.253747 101.3952 
L 259.768225 101.47776 
L 261.265386 100.86888 
L 262.770987 101.26104 
L 264.284262 100.99272 
L 265.787945 100.61088 
L 267.278078 100.44576 
L 268.804729 100.94112 
L 270.315213 101.09592 
L 271.815356 101.00304 
L 273.317435 100.69344 
L 274.830291 100.9308 
L 279.36 100.8792 
L 279.36 100.8792 
" clip-path="url(#p150f195ae9)" style="fill: none; stroke: #bebebe; stroke-width: 0.5; stroke-linecap: round"/>
   </g>
   <g id="line2d_6">
    <path d="M 8.64 58.40208 
L 10.146752 60.49704 
L 13.160257 63.1596 
L 14.66701 62.49912 
L 16.173762 62.1276 
L 17.680514 61.56 
L 20.694019 70.66224 
L 22.200772 68.72208 
L 23.707524 70.4868 
L 25.214276 68.61888 
L 26.721029 69.11424 
L 28.227781 66.5136 
L 29.734534 66.68904 
L 31.241286 68.8872 
L 32.748038 68.9904 
L 34.254791 71.5704 
L 35.761543 73.48992 
L 37.268296 72.54048 
L 38.775048 73.56216 
L 40.2818 74.74896 
L 41.788553 73.3248 
L 43.295305 74.80056 
L 44.802058 77.556 
L 46.30881 78.55704 
L 47.815562 78.50544 
L 49.322315 78.04104 
L 50.829067 75.76032 
L 52.33582 75.73968 
L 53.842572 74.65608 
L 55.349324 74.83152 
L 56.856077 74.57352 
L 58.362829 75.20304 
L 59.869582 75.17208 
L 61.376334 78.05136 
L 64.389839 72.16896 
L 65.896591 73.08744 
L 67.403344 74.72832 
L 70.416848 74.28456 
L 71.923601 73.21128 
L 73.430353 70.2804 
L 74.937106 70.2288 
L 76.443858 71.56008 
L 77.95061 73.79952 
L 79.457363 73.35576 
L 80.964115 74.0988 
L 82.470868 75.5952 
L 83.97762 75.5952 
L 85.484372 77.61792 
L 86.991125 77.63856 
L 88.497877 75.40944 
L 90.00463 75.40944 
L 91.511382 75.04824 
L 93.018134 74.98632 
L 94.524887 75.58488 
L 96.031639 75.87384 
L 97.538392 76.49304 
L 100.551896 75.82224 
L 102.058649 75.84288 
L 103.565401 76.03896 
L 105.072154 75.51264 
L 106.578906 75.56424 
L 108.085658 75.05856 
L 109.592411 73.26288 
L 111.099163 73.20096 
L 112.605916 73.00488 
L 114.112668 71.68392 
L 115.61942 70.6932 
L 117.126173 72.62304 
L 118.632925 73.52088 
L 120.139678 73.83048 
L 121.64643 73.8408 
L 123.153182 73.29384 
L 124.659935 73.72728 
L 126.166687 70.32168 
L 127.67344 69.77472 
L 129.180192 70.34232 
L 130.686944 70.67256 
L 132.193697 70.51776 
L 133.700449 70.848 
L 135.207202 72.31344 
L 136.713954 76.01832 
L 138.220706 75.41976 
L 139.727459 75.83256 
L 142.740964 75.82224 
L 144.247716 77.82432 
L 145.754468 76.14216 
L 147.261221 74.75928 
L 148.767973 74.96568 
L 150.274726 77.75208 
L 151.781478 79.48584 
L 153.28823 83.31456 
L 154.794983 85.90488 
L 156.301735 84.79032 
L 157.573773 85.84296 
L 160.277155 91.41576 
L 161.777455 88.7532 
L 164.812968 88.55712 
L 166.328318 88.96992 
L 169.333277 90.456 
L 170.839576 90.56952 
L 172.328209 89.15568 
L 173.755456 88.9596 
L 175.358857 90.6624 
L 176.676341 89.94 
L 178.369973 90.00192 
L 181.37284 90.62112 
L 184.394349 90.3528 
L 185.905636 92.004 
L 187.285099 92.13816 
L 188.913717 91.25064 
L 190.413755 89.166 
L 191.917647 89.56848 
L 193.406647 90.93072 
L 194.947632 89.41368 
L 196.438829 90.37344 
L 197.949087 89.79552 
L 199.447398 90.23928 
L 200.957394 88.0824 
L 202.463432 88.7532 
L 203.958622 90.16704 
L 205.480006 90.67272 
L 206.991275 90.18768 
L 208.488349 89.2692 
L 209.994508 89.54784 
L 211.50719 89.49624 
L 213.01103 88.31976 
L 214.515777 88.45392 
L 216.051356 88.46424 
L 217.562364 86.38992 
L 219.042748 84.80064 
L 220.560993 84.8316 
L 222.068164 86.586 
L 223.56025 87.74184 
L 225.058178 87.618 
L 226.587462 88.19592 
L 228.097755 89.08344 
L 229.590556 87.89664 
L 231.20953 87.3084 
L 232.622389 87.65928 
L 234.131042 88.96992 
L 235.62339 90.07416 
L 238.661728 89.3724 
L 240.158976 89.00088 
L 241.678651 88.42296 
L 244.674037 89.10408 
L 246.167884 89.14536 
L 247.697325 89.07312 
L 249.207966 87.9792 
L 250.704935 88.29912 
L 252.214129 86.38992 
L 253.715632 87.24648 
L 255.236249 87.1536 
L 256.719964 86.21448 
L 259.768225 87.01944 
L 261.265386 84.44976 
L 262.770987 85.05864 
L 264.284262 84.58392 
L 265.787945 85.04832 
L 267.278078 83.71704 
L 268.804729 84.86256 
L 270.315213 85.6572 
L 271.815356 85.27536 
L 273.317435 84.49104 
L 276.341037 85.32696 
L 277.829809 85.17216 
L 279.36 85.31664 
L 279.36 85.31664 
" clip-path="url(#p150f195ae9)" style="fill: none; stroke: #4a8dff; stroke-width: 0.6"/>
   </g>
   <g id="line2d_7">
    <path d="M 8.64 58.40208 
L 10.146752 59.68176 
L 11.653505 62.6952 
L 13.160257 64.56312 
L 14.66701 63.18024 
L 16.173762 62.72616 
L 17.680514 62.06568 
L 19.187267 66.33816 
L 20.694019 71.40528 
L 22.200772 69.08328 
L 23.707524 71.7252 
L 25.214276 69.57864 
L 26.721029 70.72416 
L 28.227781 68.2164 
L 29.734534 66.978 
L 31.241286 70.03272 
L 32.748038 71.5188 
L 34.254791 73.3764 
L 35.761543 78.846 
L 37.268296 77.75208 
L 38.775048 78.88728 
L 40.2818 81.34344 
L 41.788553 80.53848 
L 43.295305 82.0452 
L 44.802058 86.92656 
L 46.30881 88.58808 
L 47.815562 88.96992 
L 49.322315 86.7924 
L 50.829067 85.296 
L 52.33582 86.24544 
L 53.842572 82.96368 
L 55.349324 82.13808 
L 56.856077 82.47864 
L 58.362829 82.58184 
L 59.869582 83.03592 
L 61.376334 87.3084 
L 62.883086 82.06584 
L 64.389839 79.71288 
L 65.896591 81.24024 
L 67.403344 84.17112 
L 68.910096 84.24336 
L 70.416848 83.29392 
L 71.923601 82.8192 
L 73.430353 80.64168 
L 74.937106 81.38472 
L 76.443858 80.87904 
L 77.95061 83.13912 
L 79.457363 83.19072 
L 80.964115 85.296 
L 82.470868 87.17424 
L 83.97762 85.71912 
L 85.484372 87.53544 
L 86.991125 88.17528 
L 88.497877 85.41984 
L 91.511382 84.9348 
L 93.018134 85.01736 
L 94.524887 86.14224 
L 96.031639 85.90488 
L 97.538392 86.328 
L 99.045144 86.24544 
L 100.551896 85.72944 
L 102.058649 85.7088 
L 103.565401 86.40024 
L 105.072154 85.09992 
L 106.578906 86.02872 
L 109.592411 83.53128 
L 112.605916 82.03488 
L 114.112668 79.39296 
L 115.61942 79.66128 
L 117.126173 82.15872 
L 118.632925 82.43736 
L 120.139678 82.93272 
L 121.64643 83.00496 
L 124.659935 82.28256 
L 126.166687 78.01008 
L 127.67344 76.19376 
L 129.180192 77.66952 
L 130.686944 77.74176 
L 132.193697 78.1752 
L 133.700449 79.5684 
L 135.207202 80.8068 
L 136.713954 85.20312 
L 138.220706 84.12984 
L 139.727459 84.03696 
L 141.234211 84.06792 
L 142.740964 84.3156 
L 144.247716 87.02976 
L 145.754468 85.21344 
L 147.261221 84.28464 
L 148.767973 84.32592 
L 150.274726 89.08344 
L 151.781478 89.5272 
L 153.28823 95.14128 
L 154.794983 96.98856 
L 156.301735 95.08968 
L 157.573773 97.71096 
L 158.77117 99.80592 
L 160.277155 101.79768 
L 161.777455 100.03296 
L 163.31865 100.518 
L 164.812968 99.98136 
L 166.328318 100.49736 
L 170.839576 101.26104 
L 172.328209 100.63152 
L 173.755456 100.38384 
L 175.358857 100.84824 
L 176.676341 100.65216 
L 178.369973 101.034 
L 179.874894 101.19912 
L 184.394349 100.91016 
L 185.905636 101.7564 
L 187.285099 101.84928 
L 188.913717 101.56032 
L 190.413755 100.85856 
L 193.406647 101.4468 
L 194.947632 101.02368 
L 196.438829 101.30232 
L 197.949087 100.81728 
L 199.447398 100.79664 
L 200.957394 99.3312 
L 202.463432 99.92976 
L 203.958622 100.78632 
L 205.480006 101.17848 
L 206.991275 101.1372 
L 208.488349 100.21872 
L 211.50719 100.4664 
L 213.01103 99.88848 
L 214.515777 99.94008 
L 216.051356 99.81624 
L 217.562364 98.93904 
L 219.042748 98.3508 
L 220.560993 98.52624 
L 222.068164 99.78528 
L 223.56025 100.12584 
L 225.058178 100.03296 
L 228.097755 100.83792 
L 229.590556 100.11552 
L 231.20953 99.87816 
L 232.622389 100.002 
L 234.131042 100.64184 
L 235.62339 101.41584 
L 237.150668 101.21976 
L 240.158976 101.00304 
L 241.678651 100.86888 
L 243.165558 101.21976 
L 244.674037 101.28168 
L 247.697325 101.14752 
L 249.207966 100.55928 
L 250.704935 100.65216 
L 252.214129 99.80592 
L 253.715632 99.96072 
L 255.236249 99.6408 
L 256.719964 99.1764 
L 258.253747 99.70272 
L 259.768225 99.94008 
L 261.265386 98.57784 
L 262.770987 98.65008 
L 264.284262 98.38176 
L 265.787945 98.48496 
L 267.278078 96.70992 
L 268.804729 98.05152 
L 270.315213 98.48496 
L 271.815356 97.96896 
L 273.317435 96.32808 
L 276.341037 96.16296 
L 277.829809 96.1836 
L 279.36 96.50352 
L 279.36 96.50352 
" clip-path="url(#p150f195ae9)" style="fill: none; stroke: #f5841e; stroke-width: 0.6"/>
   </g>
  </g>
 </g>
 <defs>
  <clipPath id="p150f195ae9">
   <rect x="8.64" y="4.8" width="270.72" height="103.2"/>
  </clipPath>
 </defs>
</svg>
