<?xml version="1.0" encoding="utf-8" standalone="no"?>
<!DOCTYPE svg PUBLIC "-//W3C//DTD SVG 1.1//EN"
  "http://www.w3.org/Graphics/SVG/1.1/DTD/svg11.dtd">
<svg xmlns:xlink="http://www.w3.org/1999/xlink" width="288pt" height="120pt" viewBox="0 0 288 120" xmlns="http://www.w3.org/2000/svg" version="1.1">
<desc id="nav-meta">{"window":"1m","count":4,"labels":["29.05","08.06","17.06","27.06"],"tick_utc":["2026-05-29T04:59:49Z","2026-06-08T05:18:19Z","2026-06-17T05:30:00Z","2026-06-27T04:39:58Z"],"w":720,"h":300}</desc>

 <metadata>
  <rdf:RDF xmlns:dc="http://purl.org/dc/elements/1.1/" xmlns:cc="http://creativecommons.org/ns#" xmlns:rdf="http://www.w3.org/1999/02/22-rdf-syntax-ns#">
   <cc:Work>
    <dc:type rdf:resource="http://purl.org/dc/dcmitype/StillImage"/>
    <dc:date>2026-06-27T14:16:40.488320</dc:date>
    <dc:format>image/svg+xml</dc:format>
    <dc:creator>
     <cc:Agent>
      <dc:title>Matplotlib v3.11.0, https://matplotlib.org/</dc:title>
     </cc:Agent>
    </dc:creator>
   </cc:Work>
  </rdf:RDF>
 </metadata>
 <defs>
  <style type="text/css">*{stroke-linejoin: round; stroke-linecap: butt}</style>
 </defs>
 <g id="figure_1">
  <g id="patch_1">
   <path d="M 0 120 
L 288 120 
L 288 0 
L 0 0 
L 0 120 
z
" style="fill: none; opacity: 0"/>
  </g>
  <g id="axes_1">
   <g id="patch_2">
    <path d="M 8.64 108 
L 279.36 108 
L 279.36 4.8 
L 8.64 4.8 
L 8.64 108 
z
" style="fill: none"/>
   </g>
   <g id="matplotlib.axis_1"/>
   <g id="matplotlib.axis_2"/>
   <g id="line2d_1">
    <path d="M 8.64 87.36 
L 279.36 87.36 
" clip-path="url(#p7cb583ec86)" style="fill: none; stroke: #b2b2b2; stroke-opacity: 0.35; stroke-width: 0.5; stroke-linecap: square"/>
   </g>
   <g id="line2d_2">
    <path d="M 8.64 66.72 
L 279.36 66.72 
" clip-path="url(#p7cb583ec86)" style="fill: none; stroke: #b2b2b2; stroke-opacity: 0.35; stroke-width: 0.5; stroke-linecap: square"/>
   </g>
   <g id="line2d_3">
    <path d="M 8.64 46.08 
L 279.36 46.08 
" clip-path="url(#p7cb583ec86)" style="fill: none; stroke: #b2b2b2; stroke-opacity: 0.35; stroke-width: 0.5; stroke-linecap: square"/>
   </g>
   <g id="line2d_4">
    <path d="M 8.64 25.44 
L 279.36 25.44 
" clip-path="url(#p7cb583ec86)" style="fill: none; stroke: #b2b2b2; stroke-opacity: 0.35; stroke-width: 0.5; stroke-linecap: square"/>
   </g>
   <g id="line2d_5">
    <path d="M 8.64 101.4984 
L 17.844923 101.48808 
L 27.375218 101.32296 
L 36.852978 101.51904 
L 46.100708 101.7048 
L 55.54539 102.54072 
L 64.853005 103.08768 
L 74.038794 103.36632 
L 83.234853 104.22288 
L 92.775202 103.85136 
L 102.156107 103.68624 
L 111.317466 103.43856 
L 120.753933 103.81008 
L 130.14835 103.72752 
L 139.524607 103.50048 
L 148.795902 103.5108 
L 158.20329 103.31472 
L 167.853358 102.95352 
L 177.246262 102.61296 
L 186.28839 102.6336 
L 195.583249 102.9948 
L 205.142839 103.28376 
L 214.108975 103.01544 
L 223.642946 102.69552 
L 233.255936 102.582 
L 242.037225 102.88128 
L 251.410239 103.15992 
L 260.747364 103.36632 
L 270.134863 103.36632 
L 279.36 102.81936 
" clip-path="url(#p7cb583ec86)" style="fill: none; stroke: #bebebe; stroke-width: 0.5; stroke-linecap: round"/>
   </g>
   <g id="line2d_6">
    <path d="M 8.64 89.82648 
L 17.844923 89.87808 
L 27.375218 89.46528 
L 36.852978 90.0432 
L 46.100708 89.96064 
L 55.54539 91.99368 
L 64.853005 93.05664 
L 74.038794 93.74808 
L 83.234853 97.02984 
L 92.775202 95.93592 
L 102.156107 95.07936 
L 111.317466 94.46016 
L 120.753933 95.47152 
L 130.14835 95.11032 
L 139.524607 94.82136 
L 148.795902 94.8936 
L 158.20329 94.70784 
L 167.853358 94.04736 
L 177.246262 93.40752 
L 186.28839 92.9844 
L 195.583249 93.93384 
L 205.142839 94.4292 
L 214.108975 94.19184 
L 223.642946 93.87192 
L 233.255936 93.81 
L 242.037225 94.03704 
L 251.410239 94.83168 
L 260.747364 95.48184 
L 270.134863 96.63768 
L 279.36 96.14232 
" clip-path="url(#p7cb583ec86)" style="fill: none; stroke: #4a8dff; stroke-width: 0.6"/>
   </g>
   <g id="line2d_7">
    <path d="M 8.64 99.03192 
L 17.844923 99.1248 
L 27.375218 98.74296 
L 36.852978 99.09384 
L 46.100708 100.0536 
L 55.54539 101.23008 
L 64.853005 101.99376 
L 74.038794 102.08664 
L 83.234853 102.8916 
L 92.775202 102.45816 
L 102.156107 102.28272 
L 111.317466 102.10728 
L 120.753933 102.582 
L 130.14835 102.29304 
L 139.524607 102.08664 
L 148.795902 102.066 
L 158.20329 101.86992 
L 167.853358 101.48808 
L 177.246262 101.40552 
L 186.28839 101.4984 
L 195.583249 101.97312 
L 205.142839 102.26208 
L 214.108975 102.066 
L 223.642946 101.90088 
L 233.255936 101.90088 
L 242.037225 102.0144 
L 251.410239 102.25176 
L 260.747364 102.6336 
L 270.134863 102.88128 
L 279.36 102.77808 
" clip-path="url(#p7cb583ec86)" style="fill: none; stroke: #f5841e; stroke-width: 0.6"/>
   </g>
  </g>
 </g>
 <defs>
  <clipPath id="p7cb583ec86">
   <rect x="8.64" y="4.8" width="270.72" height="103.2"/>
  </clipPath>
 </defs>
</svg>
