<?xml version="1.0" encoding="utf-8" standalone="no"?>
<!DOCTYPE svg PUBLIC "-//W3C//DTD SVG 1.1//EN"
  "http://www.w3.org/Graphics/SVG/1.1/DTD/svg11.dtd">
<svg xmlns:xlink="http://www.w3.org/1999/xlink" width="288pt" height="120pt" viewBox="0 0 288 120" xmlns="http://www.w3.org/2000/svg" version="1.1">
<desc id="nav-meta">{"window":"1m","count":4,"labels":["18.01","28.01","06.02","16.02"],"tick_utc":["2026-01-18T12:00:00Z","2026-01-28T12:00:00Z","2026-02-06T03:19:18Z","2026-02-16T03:32:51Z"],"w":720,"h":300}</desc>

 <metadata>
  <rdf:RDF xmlns:dc="http://purl.org/dc/elements/1.1/" xmlns:cc="http://creativecommons.org/ns#" xmlns:rdf="http://www.w3.org/1999/02/22-rdf-syntax-ns#">
   <cc:Work>
    <dc:type rdf:resource="http://purl.org/dc/dcmitype/StillImage"/>
    <dc:date>2026-02-16T13:51:46.972330</dc:date>
    <dc:format>image/svg+xml</dc:format>
    <dc:creator>
     <cc:Agent>
      <dc:title>Matplotlib v3.10.8, https://matplotlib.org/</dc:title>
     </cc:Agent>
    </dc:creator>
   </cc:Work>
  </rdf:RDF>
 </metadata>
 <defs>
  <style type="text/css">*{stroke-linejoin: round; stroke-linecap: butt}</style>
 </defs>
 <g id="figure_1">
  <g id="patch_1">
   <path d="M 0 120 
L 288 120 
L 288 0 
L 0 0 
L 0 120 
z
" style="fill: none; opacity: 0"/>
  </g>
  <g id="axes_1">
   <g id="patch_2">
    <path d="M 8.64 108 
L 279.36 108 
L 279.36 4.8 
L 8.64 4.8 
L 8.64 108 
z
" style="fill: none"/>
   </g>
   <g id="matplotlib.axis_1"/>
   <g id="matplotlib.axis_2"/>
   <g id="line2d_1">
    <path d="M 8.64 87.36 
L 279.36 87.36 
" clip-path="url(#pe577f678b8)" style="fill: none; stroke: #b2b2b2; stroke-opacity: 0.35; stroke-width: 0.5; stroke-linecap: square"/>
   </g>
   <g id="line2d_2">
    <path d="M 8.64 66.72 
L 279.36 66.72 
" clip-path="url(#pe577f678b8)" style="fill: none; stroke: #b2b2b2; stroke-opacity: 0.35; stroke-width: 0.5; stroke-linecap: square"/>
   </g>
   <g id="line2d_3">
    <path d="M 8.64 46.08 
L 279.36 46.08 
" clip-path="url(#pe577f678b8)" style="fill: none; stroke: #b2b2b2; stroke-opacity: 0.35; stroke-width: 0.5; stroke-linecap: square"/>
   </g>
   <g id="line2d_4">
    <path d="M 8.64 25.44 
L 279.36 25.44 
" clip-path="url(#pe577f678b8)" style="fill: none; stroke: #b2b2b2; stroke-opacity: 0.35; stroke-width: 0.5; stroke-linecap: square"/>
   </g>
   <g id="line2d_5">
    <path d="M 8.64 87.23616 
L 18.089936 88.63968 
L 27.539872 90.0432 
L 36.989809 92.12784 
L 46.439745 91.16808 
L 55.889681 91.46736 
L 65.339617 91.73568 
L 74.789553 91.78728 
L 84.239489 94.0164 
L 93.689426 92.5716 
L 103.139362 91.76664 
L 112.589298 92.33424 
L 122.039234 94.36728 
L 131.48917 94.46016 
L 140.939107 97.71096 
L 150.389043 98.48496 
L 159.838979 97.85544 
L 167.816847 99.10416 
L 175.326593 100.16712 
L 184.771717 102.23112 
L 194.181185 100.54896 
L 203.847135 100.70376 
L 213.219087 100.68312 
L 222.722945 100.95144 
L 232.153303 101.28168 
L 241.569224 101.71512 
L 251.016316 101.84928 
L 260.352613 101.034 
L 269.303912 100.54896 
L 279.36 101.04432 
" clip-path="url(#pe577f678b8)" style="fill: none; stroke: #bebebe; stroke-width: 0.5; stroke-linecap: round"/>
   </g>
   <g id="line2d_6">
    <path d="M 8.64 70.51776 
L 18.089936 70.848 
L 27.539872 72.31344 
L 36.989809 76.01832 
L 46.439745 75.41976 
L 55.889681 75.83256 
L 65.339617 75.79128 
L 74.789553 75.82224 
L 84.239489 77.82432 
L 93.689426 76.14216 
L 103.139362 74.75928 
L 112.589298 74.96568 
L 122.039234 77.75208 
L 131.48917 79.48584 
L 140.939107 83.31456 
L 150.389043 85.90488 
L 159.838979 84.79032 
L 167.816847 85.84296 
L 175.326593 88.25784 
L 184.771717 91.41576 
L 194.181185 88.7532 
L 203.847135 88.65 
L 213.219087 88.55712 
L 222.722945 88.96992 
L 232.153303 89.7336 
L 241.569224 90.456 
L 251.016316 90.56952 
L 260.352613 89.15568 
L 269.303912 88.9596 
L 279.36 90.6624 
" clip-path="url(#pe577f678b8)" style="fill: none; stroke: #4a8dff; stroke-width: 0.6"/>
   </g>
   <g id="line2d_7">
    <path d="M 8.64 78.1752 
L 18.089936 79.5684 
L 27.539872 80.8068 
L 36.989809 85.20312 
L 46.439745 84.12984 
L 55.889681 84.03696 
L 65.339617 84.06792 
L 74.789553 84.3156 
L 84.239489 87.02976 
L 93.689426 85.21344 
L 103.139362 84.28464 
L 112.589298 84.32592 
L 122.039234 89.08344 
L 131.48917 89.5272 
L 140.939107 95.14128 
L 150.389043 96.98856 
L 159.838979 95.08968 
L 167.816847 97.71096 
L 175.326593 99.80592 
L 184.771717 101.79768 
L 194.181185 100.03296 
L 203.847135 100.518 
L 213.219087 99.98136 
L 222.722945 100.49736 
L 232.153303 100.78632 
L 241.569224 101.07528 
L 251.016316 101.26104 
L 260.352613 100.63152 
L 269.303912 100.38384 
L 279.36 100.84824 
" clip-path="url(#pe577f678b8)" style="fill: none; stroke: #f5841e; stroke-width: 0.6"/>
   </g>
  </g>
 </g>
 <defs>
  <clipPath id="pe577f678b8">
   <rect x="8.64" y="4.8" width="270.72" height="103.2"/>
  </clipPath>
 </defs>
</svg>
