<?xml version="1.0" encoding="utf-8" standalone="no"?>
<!DOCTYPE svg PUBLIC "-//W3C//DTD SVG 1.1//EN"
  "http://www.w3.org/Graphics/SVG/1.1/DTD/svg11.dtd">
<svg xmlns:xlink="http://www.w3.org/1999/xlink" width="288pt" height="120pt" viewBox="0 0 288 120" xmlns="http://www.w3.org/2000/svg" version="1.1">
<desc id="nav-meta">{"window":"3m","count":4,"labels":["10.11","10.12","09.01","08.02"],"tick_utc":["2025-11-10T12:00:00Z","2025-12-10T12:00:00Z","2026-01-09T12:00:00Z","2026-02-08T03:46:03Z"],"w":720,"h":300}</desc>

 <metadata>
  <rdf:RDF xmlns:dc="http://purl.org/dc/elements/1.1/" xmlns:cc="http://creativecommons.org/ns#" xmlns:rdf="http://www.w3.org/1999/02/22-rdf-syntax-ns#">
   <cc:Work>
    <dc:type rdf:resource="http://purl.org/dc/dcmitype/StillImage"/>
    <dc:date>2026-02-08T07:27:13.563109</dc:date>
    <dc:format>image/svg+xml</dc:format>
    <dc:creator>
     <cc:Agent>
      <dc:title>Matplotlib v3.10.8, https://matplotlib.org/</dc:title>
     </cc:Agent>
    </dc:creator>
   </cc:Work>
  </rdf:RDF>
 </metadata>
 <defs>
  <style type="text/css">*{stroke-linejoin: round; stroke-linecap: butt}</style>
 </defs>
 <g id="figure_1">
  <g id="patch_1">
   <path d="M 0 120 
L 288 120 
L 288 0 
L 0 0 
L 0 120 
z
" style="fill: none; opacity: 0"/>
  </g>
  <g id="axes_1">
   <g id="patch_2">
    <path d="M 8.64 108 
L 279.36 108 
L 279.36 4.8 
L 8.64 4.8 
L 8.64 108 
z
" style="fill: none"/>
   </g>
   <g id="matplotlib.axis_1"/>
   <g id="matplotlib.axis_2"/>
   <g id="line2d_1">
    <path d="M 8.64 87.36 
L 279.36 87.36 
" clip-path="url(#p80af91256a)" style="fill: none; stroke: #b2b2b2; stroke-opacity: 0.35; stroke-width: 0.5; stroke-linecap: square"/>
   </g>
   <g id="line2d_2">
    <path d="M 8.64 66.72 
L 279.36 66.72 
" clip-path="url(#p80af91256a)" style="fill: none; stroke: #b2b2b2; stroke-opacity: 0.35; stroke-width: 0.5; stroke-linecap: square"/>
   </g>
   <g id="line2d_3">
    <path d="M 8.64 46.08 
L 279.36 46.08 
" clip-path="url(#p80af91256a)" style="fill: none; stroke: #b2b2b2; stroke-opacity: 0.35; stroke-width: 0.5; stroke-linecap: square"/>
   </g>
   <g id="line2d_4">
    <path d="M 8.64 25.44 
L 279.36 25.44 
" clip-path="url(#p80af91256a)" style="fill: none; stroke: #b2b2b2; stroke-opacity: 0.35; stroke-width: 0.5; stroke-linecap: square"/>
   </g>
   <g id="line2d_5">
    <path d="M 8.64 81.62208 
L 11.659508 80.72424 
L 14.679017 84.33624 
L 17.698525 84.64584 
L 20.718034 86.844 
L 23.737542 88.52616 
L 26.75705 88.36104 
L 29.776559 88.93896 
L 32.796067 90.79656 
L 35.815575 88.09272 
L 38.835084 89.22792 
L 41.854592 90.00192 
L 44.874101 91.39512 
L 47.893609 91.63248 
L 50.913117 90.75528 
L 53.932626 88.7016 
L 56.952134 88.52616 
L 59.971642 87.45288 
L 62.991151 88.0308 
L 66.010659 88.94928 
L 69.030168 89.3208 
L 72.049676 89.7336 
L 75.069184 91.86984 
L 78.088693 88.60872 
L 81.108201 86.87496 
L 84.12771 88.52616 
L 87.147218 90.11544 
L 90.166726 90.38376 
L 93.186235 90.53856 
L 96.205743 90.08448 
L 99.225251 88.79448 
L 102.24476 89.20728 
L 105.264268 89.22792 
L 108.283777 90.31152 
L 111.303285 90.10512 
L 114.322793 91.09584 
L 117.342302 91.61184 
L 120.36181 91.31256 
L 123.381318 92.87088 
L 126.400827 93.8616 
L 129.420335 92.02464 
L 132.439844 92.13816 
L 135.459352 92.07624 
L 138.47886 92.14848 
L 141.498369 92.64384 
L 144.517877 93.01536 
L 147.537386 93.69648 
L 150.556894 93.11856 
L 153.576402 92.44776 
L 156.595911 92.30328 
L 159.615419 92.87088 
L 162.634927 92.38584 
L 165.654436 92.47872 
L 168.673944 91.88016 
L 171.693453 90.42504 
L 174.712961 90.08448 
L 177.732469 89.92968 
L 180.751978 88.76352 
L 183.771486 87.94824 
L 186.790994 89.2692 
L 189.810503 88.72224 
L 192.830011 89.39304 
L 195.84952 89.40336 
L 198.869028 88.41264 
L 201.888536 88.4952 
L 204.908045 86.86464 
L 207.927553 86.42088 
L 210.947062 87.62832 
L 213.96657 86.93688 
L 216.986078 87.23616 
L 220.005587 88.63968 
L 223.025095 90.0432 
L 226.044603 92.12784 
L 229.064112 91.16808 
L 232.08362 91.46736 
L 235.103129 91.73568 
L 238.122637 91.78728 
L 241.142145 94.0164 
L 244.161654 92.5716 
L 247.181162 91.76664 
L 250.20067 92.33424 
L 253.220179 94.36728 
L 256.239687 94.46016 
L 259.259196 97.71096 
L 262.278704 98.48496 
L 265.298212 97.85544 
L 267.847355 99.10416 
L 270.246921 100.16712 
L 273.264892 102.23112 
L 276.271469 100.54896 
L 279.36 100.70376 
" clip-path="url(#p80af91256a)" style="fill: none; stroke: #bebebe; stroke-width: 0.5; stroke-linecap: round"/>
   </g>
   <g id="line2d_6">
    <path d="M 8.64 66.5136 
L 11.659508 66.68904 
L 14.679017 68.8872 
L 17.698525 68.9904 
L 20.718034 71.5704 
L 23.737542 73.48992 
L 26.75705 72.54048 
L 29.776559 73.56216 
L 32.796067 74.74896 
L 35.815575 73.3248 
L 38.835084 74.80056 
L 41.854592 77.556 
L 44.874101 78.55704 
L 47.893609 78.50544 
L 50.913117 78.04104 
L 53.932626 75.76032 
L 56.952134 75.73968 
L 59.971642 74.65608 
L 62.991151 74.83152 
L 66.010659 74.57352 
L 69.030168 75.20304 
L 72.049676 75.17208 
L 75.069184 78.05136 
L 78.088693 75.1308 
L 81.108201 72.16896 
L 84.12771 73.08744 
L 87.147218 74.72832 
L 90.166726 74.48064 
L 93.186235 74.28456 
L 96.205743 73.21128 
L 99.225251 70.2804 
L 102.24476 70.2288 
L 105.264268 71.56008 
L 108.283777 73.79952 
L 111.303285 73.35576 
L 114.322793 74.0988 
L 117.342302 75.5952 
L 120.36181 75.5952 
L 123.381318 77.61792 
L 126.400827 77.63856 
L 129.420335 75.40944 
L 132.439844 75.40944 
L 135.459352 75.04824 
L 138.47886 74.98632 
L 141.498369 75.58488 
L 144.517877 75.87384 
L 147.537386 76.49304 
L 150.556894 76.15248 
L 153.576402 75.82224 
L 156.595911 75.84288 
L 159.615419 76.03896 
L 162.634927 75.51264 
L 165.654436 75.56424 
L 168.673944 75.05856 
L 171.693453 73.26288 
L 174.712961 73.20096 
L 177.732469 73.00488 
L 180.751978 71.68392 
L 183.771486 70.6932 
L 186.790994 72.62304 
L 189.810503 73.52088 
L 192.830011 73.83048 
L 195.84952 73.8408 
L 198.869028 73.29384 
L 201.888536 73.72728 
L 204.908045 70.32168 
L 207.927553 69.77472 
L 210.947062 70.34232 
L 213.96657 70.67256 
L 216.986078 70.51776 
L 220.005587 70.848 
L 223.025095 72.31344 
L 226.044603 76.01832 
L 229.064112 75.41976 
L 232.08362 75.83256 
L 235.103129 75.79128 
L 238.122637 75.82224 
L 241.142145 77.82432 
L 244.161654 76.14216 
L 247.181162 74.75928 
L 250.20067 74.96568 
L 253.220179 77.75208 
L 256.239687 79.48584 
L 259.259196 83.31456 
L 262.278704 85.90488 
L 265.298212 84.79032 
L 267.847355 85.84296 
L 270.246921 88.25784 
L 273.264892 91.41576 
L 276.271469 88.7532 
L 279.36 88.65 
" clip-path="url(#p80af91256a)" style="fill: none; stroke: #4a8dff; stroke-width: 0.6"/>
   </g>
   <g id="line2d_7">
    <path d="M 8.64 68.2164 
L 11.659508 66.978 
L 14.679017 70.03272 
L 17.698525 71.5188 
L 20.718034 73.3764 
L 23.737542 78.846 
L 26.75705 77.75208 
L 29.776559 78.88728 
L 32.796067 81.34344 
L 35.815575 80.53848 
L 38.835084 82.0452 
L 41.854592 86.92656 
L 44.874101 88.58808 
L 47.893609 88.96992 
L 50.913117 86.7924 
L 53.932626 85.296 
L 56.952134 86.24544 
L 59.971642 82.96368 
L 62.991151 82.13808 
L 66.010659 82.47864 
L 69.030168 82.58184 
L 72.049676 83.03592 
L 75.069184 87.3084 
L 78.088693 82.06584 
L 81.108201 79.71288 
L 84.12771 81.24024 
L 87.147218 84.17112 
L 90.166726 84.24336 
L 93.186235 83.29392 
L 96.205743 82.8192 
L 99.225251 80.64168 
L 102.24476 81.38472 
L 105.264268 80.87904 
L 108.283777 83.13912 
L 111.303285 83.19072 
L 114.322793 85.296 
L 117.342302 87.17424 
L 120.36181 85.71912 
L 123.381318 87.53544 
L 126.400827 88.17528 
L 129.420335 85.41984 
L 132.439844 85.17216 
L 135.459352 84.9348 
L 138.47886 85.01736 
L 141.498369 86.14224 
L 144.517877 85.90488 
L 147.537386 86.328 
L 150.556894 86.24544 
L 153.576402 85.72944 
L 156.595911 85.7088 
L 159.615419 86.40024 
L 162.634927 85.09992 
L 165.654436 86.02872 
L 168.673944 84.78 
L 171.693453 83.53128 
L 174.712961 82.83984 
L 177.732469 82.03488 
L 180.751978 79.39296 
L 183.771486 79.66128 
L 186.790994 82.15872 
L 189.810503 82.43736 
L 192.830011 82.93272 
L 195.84952 83.00496 
L 198.869028 82.6128 
L 201.888536 82.28256 
L 204.908045 78.01008 
L 207.927553 76.19376 
L 210.947062 77.66952 
L 213.96657 77.74176 
L 216.986078 78.1752 
L 220.005587 79.5684 
L 223.025095 80.8068 
L 226.044603 85.20312 
L 229.064112 84.12984 
L 232.08362 84.03696 
L 235.103129 84.06792 
L 238.122637 84.3156 
L 241.142145 87.02976 
L 244.161654 85.21344 
L 247.181162 84.28464 
L 250.20067 84.32592 
L 253.220179 89.08344 
L 256.239687 89.5272 
L 259.259196 95.14128 
L 262.278704 96.98856 
L 265.298212 95.08968 
L 267.847355 97.71096 
L 270.246921 99.80592 
L 273.264892 101.79768 
L 276.271469 100.03296 
L 279.36 100.518 
" clip-path="url(#p80af91256a)" style="fill: none; stroke: #f5841e; stroke-width: 0.6"/>
   </g>
  </g>
 </g>
 <defs>
  <clipPath id="p80af91256a">
   <rect x="8.64" y="4.8" width="270.72" height="103.2"/>
  </clipPath>
 </defs>
</svg>
