<?xml version="1.0" encoding="utf-8" standalone="no"?>
<!DOCTYPE svg PUBLIC "-//W3C//DTD SVG 1.1//EN"
  "http://www.w3.org/Graphics/SVG/1.1/DTD/svg11.dtd">
<svg xmlns:xlink="http://www.w3.org/1999/xlink" width="288pt" height="120pt" viewBox="0 0 288 120" xmlns="http://www.w3.org/2000/svg" version="1.1">
<desc id="nav-meta">{"window":"3m","count":4,"labels":["02.02","04.03","02.04","02.05"],"tick_utc":["2026-02-02T12:00:00Z","2026-03-04T03:14:13Z","2026-04-02T03:35:34Z","2026-05-02T04:02:31Z"],"w":720,"h":300}</desc>

 <metadata>
  <rdf:RDF xmlns:dc="http://purl.org/dc/elements/1.1/" xmlns:cc="http://creativecommons.org/ns#" xmlns:rdf="http://www.w3.org/1999/02/22-rdf-syntax-ns#">
   <cc:Work>
    <dc:type rdf:resource="http://purl.org/dc/dcmitype/StillImage"/>
    <dc:date>2026-05-02T13:57:59.841095</dc:date>
    <dc:format>image/svg+xml</dc:format>
    <dc:creator>
     <cc:Agent>
      <dc:title>Matplotlib v3.10.9, https://matplotlib.org/</dc:title>
     </cc:Agent>
    </dc:creator>
   </cc:Work>
  </rdf:RDF>
 </metadata>
 <defs>
  <style type="text/css">*{stroke-linejoin: round; stroke-linecap: butt}</style>
 </defs>
 <g id="figure_1">
  <g id="patch_1">
   <path d="M 0 120 
L 288 120 
L 288 0 
L 0 0 
L 0 120 
z
" style="fill: none; opacity: 0"/>
  </g>
  <g id="axes_1">
   <g id="patch_2">
    <path d="M 8.64 108 
L 279.36 108 
L 279.36 4.8 
L 8.64 4.8 
L 8.64 108 
z
" style="fill: none"/>
   </g>
   <g id="matplotlib.axis_1"/>
   <g id="matplotlib.axis_2"/>
   <g id="line2d_1">
    <path d="M 8.64 87.36 
L 279.36 87.36 
" clip-path="url(#p1df46b3754)" style="fill: none; stroke: #b2b2b2; stroke-opacity: 0.35; stroke-width: 0.5; stroke-linecap: square"/>
   </g>
   <g id="line2d_2">
    <path d="M 8.64 66.72 
L 279.36 66.72 
" clip-path="url(#p1df46b3754)" style="fill: none; stroke: #b2b2b2; stroke-opacity: 0.35; stroke-width: 0.5; stroke-linecap: square"/>
   </g>
   <g id="line2d_3">
    <path d="M 8.64 46.08 
L 279.36 46.08 
" clip-path="url(#p1df46b3754)" style="fill: none; stroke: #b2b2b2; stroke-opacity: 0.35; stroke-width: 0.5; stroke-linecap: square"/>
   </g>
   <g id="line2d_4">
    <path d="M 8.64 25.44 
L 279.36 25.44 
" clip-path="url(#p1df46b3754)" style="fill: none; stroke: #b2b2b2; stroke-opacity: 0.35; stroke-width: 0.5; stroke-linecap: square"/>
   </g>
   <g id="line2d_5">
    <path d="M 8.64 98.48496 
L 11.693173 97.85544 
L 14.270736 99.10416 
L 16.697055 100.16712 
L 19.748673 102.23112 
L 22.788771 100.54896 
L 25.911736 100.70376 
L 28.939713 100.68312 
L 32.010307 100.95144 
L 35.057154 101.28168 
L 38.099337 101.71512 
L 41.151592 101.84928 
L 44.168049 101.034 
L 47.060117 100.54896 
L 50.309131 101.04432 
L 52.978785 100.81728 
L 56.410636 101.034 
L 59.460098 101.4984 
L 62.495426 101.33328 
L 65.52994 101.1372 
L 68.617991 101.06496 
L 71.680352 102.09696 
L 74.475596 102.05568 
L 77.775708 101.4984 
L 80.815276 100.60056 
L 83.862653 100.80696 
L 86.879853 101.45712 
L 90.002393 100.55928 
L 93.024045 101.10624 
L 96.084321 100.8792 
L 99.12039 100.74504 
L 102.180136 100.21872 
L 105.23186 100.53864 
L 108.261604 101.07528 
L 111.344425 101.38488 
L 114.406751 101.26104 
L 117.440311 100.78632 
L 120.492283 100.91016 
L 123.55747 100.99272 
L 126.604742 100.38384 
L 129.653851 100.50768 
L 132.765437 100.60056 
L 135.827232 99.76464 
L 138.826975 99.49632 
L 141.903435 99.40344 
L 144.957456 100.09488 
L 147.98091 100.3632 
L 151.016202 100.19808 
L 154.115031 100.47672 
L 157.175378 100.79664 
L 160.20028 100.26 
L 163.480851 99.83688 
L 166.343766 100.13616 
L 169.400791 100.80696 
L 172.424775 101.38488 
L 175.51954 101.3436 
L 178.581441 101.292 
L 181.615355 101.28168 
L 184.694713 101.28168 
L 187.707672 101.8596 
L 190.764343 101.88024 
L 193.791366 101.72544 
L 196.890514 101.68416 
L 199.951567 101.47776 
L 202.984915 101.78736 
L 206.043035 101.09592 
L 209.085572 101.46744 
L 212.166838 101.3436 
L 215.17333 101.05464 
L 218.281276 101.3952 
L 221.350104 101.47776 
L 224.383841 100.86888 
L 227.434681 101.26104 
L 230.501071 100.99272 
L 233.548024 100.61088 
L 236.56752 100.44576 
L 239.661013 100.94112 
L 242.721748 101.09592 
L 245.761528 101.00304 
L 248.805231 100.69344 
L 251.870772 100.9308 
L 254.932037 100.92048 
L 257.948777 100.81728 
L 261.049444 100.8792 
L 264.135516 100.64184 
L 267.195085 101.1888 
L 270.239918 101.09592 
L 273.298215 101.37456 
L 276.384747 101.21976 
L 279.36 101.20944 
" clip-path="url(#p1df46b3754)" style="fill: none; stroke: #bebebe; stroke-width: 0.5; stroke-linecap: round"/>
   </g>
   <g id="line2d_6">
    <path d="M 8.64 85.90488 
L 11.693173 84.79032 
L 14.270736 85.84296 
L 16.697055 88.25784 
L 19.748673 91.41576 
L 22.788771 88.7532 
L 25.911736 88.65 
L 28.939713 88.55712 
L 32.010307 88.96992 
L 35.057154 89.7336 
L 38.099337 90.456 
L 41.151592 90.56952 
L 44.168049 89.15568 
L 47.060117 88.9596 
L 50.309131 90.6624 
L 52.978785 89.94 
L 56.410636 90.00192 
L 59.460098 90.3528 
L 62.495426 90.62112 
L 65.52994 90.5076 
L 68.617991 90.3528 
L 71.680352 92.004 
L 74.475596 92.13816 
L 77.775708 91.25064 
L 80.815276 89.166 
L 83.862653 89.56848 
L 86.879853 90.93072 
L 90.002393 89.41368 
L 93.024045 90.37344 
L 96.084321 89.79552 
L 99.12039 90.23928 
L 102.180136 88.0824 
L 105.23186 88.7532 
L 108.261604 90.16704 
L 111.344425 90.67272 
L 114.406751 90.18768 
L 117.440311 89.2692 
L 120.492283 89.54784 
L 123.55747 89.49624 
L 126.604742 88.31976 
L 129.653851 88.45392 
L 132.765437 88.46424 
L 135.827232 86.38992 
L 138.826975 84.80064 
L 141.903435 84.8316 
L 144.957456 86.586 
L 147.98091 87.74184 
L 151.016202 87.618 
L 154.115031 88.19592 
L 157.175378 89.08344 
L 160.20028 87.89664 
L 163.480851 87.3084 
L 166.343766 87.65928 
L 169.400791 88.96992 
L 172.424775 90.07416 
L 175.51954 89.76456 
L 178.581441 89.3724 
L 181.615355 89.00088 
L 184.694713 88.42296 
L 187.707672 88.81512 
L 190.764343 89.10408 
L 193.791366 89.14536 
L 196.890514 89.07312 
L 199.951567 87.9792 
L 202.984915 88.29912 
L 206.043035 86.38992 
L 209.085572 87.24648 
L 212.166838 87.1536 
L 215.17333 86.21448 
L 218.281276 86.66856 
L 221.350104 87.01944 
L 224.383841 84.44976 
L 227.434681 85.05864 
L 230.501071 84.58392 
L 233.548024 85.04832 
L 236.56752 83.71704 
L 239.661013 84.86256 
L 242.721748 85.6572 
L 245.761528 85.27536 
L 248.805231 84.49104 
L 251.870772 84.86256 
L 254.932037 85.32696 
L 257.948777 85.17216 
L 261.049444 85.31664 
L 264.135516 84.11952 
L 267.195085 85.66752 
L 270.239918 85.26504 
L 273.298215 86.26608 
L 276.384747 85.77072 
L 279.36 85.38888 
" clip-path="url(#p1df46b3754)" style="fill: none; stroke: #4a8dff; stroke-width: 0.6"/>
   </g>
   <g id="line2d_7">
    <path d="M 8.64 96.98856 
L 11.693173 95.08968 
L 14.270736 97.71096 
L 16.697055 99.80592 
L 19.748673 101.79768 
L 22.788771 100.03296 
L 25.911736 100.518 
L 28.939713 99.98136 
L 32.010307 100.49736 
L 35.057154 100.78632 
L 38.099337 101.07528 
L 41.151592 101.26104 
L 44.168049 100.63152 
L 47.060117 100.38384 
L 50.309131 100.84824 
L 52.978785 100.65216 
L 56.410636 101.034 
L 59.460098 101.19912 
L 62.495426 101.10624 
L 65.52994 100.97208 
L 68.617991 100.91016 
L 71.680352 101.7564 
L 74.475596 101.84928 
L 77.775708 101.56032 
L 80.815276 100.85856 
L 83.862653 101.12688 
L 86.879853 101.4468 
L 90.002393 101.02368 
L 93.024045 101.30232 
L 96.084321 100.81728 
L 99.12039 100.79664 
L 102.180136 99.3312 
L 105.23186 99.92976 
L 108.261604 100.78632 
L 111.344425 101.17848 
L 114.406751 101.1372 
L 117.440311 100.21872 
L 120.492283 100.37352 
L 123.55747 100.4664 
L 126.604742 99.88848 
L 129.653851 99.94008 
L 132.765437 99.81624 
L 135.827232 98.93904 
L 138.826975 98.3508 
L 141.903435 98.52624 
L 144.957456 99.78528 
L 147.98091 100.12584 
L 151.016202 100.03296 
L 154.115031 100.45608 
L 157.175378 100.83792 
L 160.20028 100.11552 
L 163.480851 99.87816 
L 166.343766 100.002 
L 169.400791 100.64184 
L 172.424775 101.41584 
L 175.51954 101.21976 
L 178.581441 101.14752 
L 181.615355 101.00304 
L 184.694713 100.86888 
L 187.707672 101.21976 
L 190.764343 101.28168 
L 193.791366 101.20944 
L 196.890514 101.14752 
L 199.951567 100.55928 
L 202.984915 100.65216 
L 206.043035 99.80592 
L 209.085572 99.96072 
L 212.166838 99.6408 
L 215.17333 99.1764 
L 218.281276 99.70272 
L 221.350104 99.94008 
L 224.383841 98.57784 
L 227.434681 98.65008 
L 230.501071 98.38176 
L 233.548024 98.48496 
L 236.56752 96.70992 
L 239.661013 98.05152 
L 242.721748 98.48496 
L 245.761528 97.96896 
L 248.805231 96.32808 
L 251.870772 96.20424 
L 254.932037 96.16296 
L 257.948777 96.1836 
L 261.049444 96.50352 
L 264.135516 94.76976 
L 267.195085 97.19496 
L 270.239918 96.9576 
L 273.298215 97.9896 
L 276.384747 96.89568 
L 279.36 95.45088 
" clip-path="url(#p1df46b3754)" style="fill: none; stroke: #f5841e; stroke-width: 0.6"/>
   </g>
  </g>
 </g>
 <defs>
  <clipPath id="p1df46b3754">
   <rect x="8.64" y="4.8" width="270.72" height="103.2"/>
  </clipPath>
 </defs>
</svg>
