<?xml version="1.0" encoding="utf-8" standalone="no"?>
<!DOCTYPE svg PUBLIC "-//W3C//DTD SVG 1.1//EN"
  "http://www.w3.org/Graphics/SVG/1.1/DTD/svg11.dtd">
<svg xmlns:xlink="http://www.w3.org/1999/xlink" width="288pt" height="120pt" viewBox="0 0 288 120" xmlns="http://www.w3.org/2000/svg" version="1.1">
<desc id="nav-meta">{"window":"2w","count":4,"labels":["17.06","21.06","26.06","30.06"],"tick_utc":["2026-06-17T05:30:00Z","2026-06-21T05:29:24Z","2026-06-26T04:57:37Z","2026-06-30T04:49:55Z"],"w":720,"h":300}</desc>

 <metadata>
  <rdf:RDF xmlns:dc="http://purl.org/dc/elements/1.1/" xmlns:cc="http://creativecommons.org/ns#" xmlns:rdf="http://www.w3.org/1999/02/22-rdf-syntax-ns#">
   <cc:Work>
    <dc:type rdf:resource="http://purl.org/dc/dcmitype/StillImage"/>
    <dc:date>2026-06-30T20:32:40.680922</dc:date>
    <dc:format>image/svg+xml</dc:format>
    <dc:creator>
     <cc:Agent>
      <dc:title>Matplotlib v3.11.0, https://matplotlib.org/</dc:title>
     </cc:Agent>
    </dc:creator>
   </cc:Work>
  </rdf:RDF>
 </metadata>
 <defs>
  <style type="text/css">*{stroke-linejoin: round; stroke-linecap: butt}</style>
 </defs>
 <g id="figure_1">
  <g id="patch_1">
   <path d="M 0 120 
L 288 120 
L 288 0 
L 0 0 
L 0 120 
z
" style="fill: none; opacity: 0"/>
  </g>
  <g id="axes_1">
   <g id="patch_2">
    <path d="M 8.64 108 
L 279.36 108 
L 279.36 4.8 
L 8.64 4.8 
L 8.64 108 
z
" style="fill: none"/>
   </g>
   <g id="matplotlib.axis_1"/>
   <g id="matplotlib.axis_2"/>
   <g id="line2d_1">
    <path d="M 8.64 87.36 
L 279.36 87.36 
" clip-path="url(#pe35330fc9b)" style="fill: none; stroke: #b2b2b2; stroke-opacity: 0.35; stroke-width: 0.5; stroke-linecap: square"/>
   </g>
   <g id="line2d_2">
    <path d="M 8.64 66.72 
L 279.36 66.72 
" clip-path="url(#pe35330fc9b)" style="fill: none; stroke: #b2b2b2; stroke-opacity: 0.35; stroke-width: 0.5; stroke-linecap: square"/>
   </g>
   <g id="line2d_3">
    <path d="M 8.64 46.08 
L 279.36 46.08 
" clip-path="url(#pe35330fc9b)" style="fill: none; stroke: #b2b2b2; stroke-opacity: 0.35; stroke-width: 0.5; stroke-linecap: square"/>
   </g>
   <g id="line2d_4">
    <path d="M 8.64 25.44 
L 279.36 25.44 
" clip-path="url(#pe35330fc9b)" style="fill: none; stroke: #b2b2b2; stroke-opacity: 0.35; stroke-width: 0.5; stroke-linecap: square"/>
   </g>
   <g id="line2d_5">
    <path d="M 8.64 102.6336 
L 29.409302 102.9948 
L 50.770143 103.28376 
L 70.804913 103.01544 
L 92.108508 102.69552 
L 113.58867 102.582 
L 133.210402 102.88128 
L 154.15434 103.15992 
L 175.018085 103.36632 
L 195.99439 103.36632 
L 216.607897 102.81936 
L 237.875018 103.0464 
L 258.895283 102.9432 
L 279.36 102.59232 
" clip-path="url(#pe35330fc9b)" style="fill: none; stroke: #bebebe; stroke-width: 0.5; stroke-linecap: round"/>
   </g>
   <g id="line2d_6">
    <path d="M 8.64 92.9844 
L 29.409302 93.93384 
L 50.770143 94.4292 
L 70.804913 94.19184 
L 92.108508 93.87192 
L 113.58867 93.81 
L 133.210402 94.03704 
L 154.15434 94.83168 
L 175.018085 95.48184 
L 195.99439 96.63768 
L 216.607897 96.14232 
L 237.875018 96.30744 
L 258.895283 96.29712 
L 279.36 96.04944 
" clip-path="url(#pe35330fc9b)" style="fill: none; stroke: #4a8dff; stroke-width: 0.6"/>
   </g>
   <g id="line2d_7">
    <path d="M 8.64 101.4984 
L 29.409302 101.97312 
L 50.770143 102.26208 
L 70.804913 102.066 
L 92.108508 101.90088 
L 113.58867 101.90088 
L 133.210402 102.0144 
L 154.15434 102.25176 
L 175.018085 102.6336 
L 195.99439 102.88128 
L 216.607897 102.77808 
L 237.875018 102.85032 
L 258.895283 102.93288 
L 279.36 102.95352 
" clip-path="url(#pe35330fc9b)" style="fill: none; stroke: #f5841e; stroke-width: 0.6"/>
   </g>
  </g>
 </g>
 <defs>
  <clipPath id="pe35330fc9b">
   <rect x="8.64" y="4.8" width="270.72" height="103.2"/>
  </clipPath>
 </defs>
</svg>
