<?xml version="1.0" encoding="utf-8" standalone="no"?>
<!DOCTYPE svg PUBLIC "-//W3C//DTD SVG 1.1//EN"
  "http://www.w3.org/Graphics/SVG/1.1/DTD/svg11.dtd">
<svg xmlns:xlink="http://www.w3.org/1999/xlink" width="288pt" height="120pt" viewBox="0 0 288 120" xmlns="http://www.w3.org/2000/svg" version="1.1">
<desc id="nav-meta">{"window":"3m","count":4,"labels":["07.11","07.12","06.01","05.02"],"tick_utc":["2025-11-07T12:00:00Z","2025-12-07T12:00:00Z","2026-01-06T12:00:00Z","2026-02-05T03:20:02Z"],"w":720,"h":300}</desc>

 <metadata>
  <rdf:RDF xmlns:dc="http://purl.org/dc/elements/1.1/" xmlns:cc="http://creativecommons.org/ns#" xmlns:rdf="http://www.w3.org/1999/02/22-rdf-syntax-ns#">
   <cc:Work>
    <dc:type rdf:resource="http://purl.org/dc/dcmitype/StillImage"/>
    <dc:date>2026-02-05T11:53:40.124637</dc:date>
    <dc:format>image/svg+xml</dc:format>
    <dc:creator>
     <cc:Agent>
      <dc:title>Matplotlib v3.10.8, https://matplotlib.org/</dc:title>
     </cc:Agent>
    </dc:creator>
   </cc:Work>
  </rdf:RDF>
 </metadata>
 <defs>
  <style type="text/css">*{stroke-linejoin: round; stroke-linecap: butt}</style>
 </defs>
 <g id="figure_1">
  <g id="patch_1">
   <path d="M 0 120 
L 288 120 
L 288 0 
L 0 0 
L 0 120 
z
" style="fill: none; opacity: 0"/>
  </g>
  <g id="axes_1">
   <g id="patch_2">
    <path d="M 8.64 108 
L 279.36 108 
L 279.36 4.8 
L 8.64 4.8 
L 8.64 108 
z
" style="fill: none"/>
   </g>
   <g id="matplotlib.axis_1"/>
   <g id="matplotlib.axis_2"/>
   <g id="line2d_1">
    <path d="M 8.64 87.36 
L 279.36 87.36 
" clip-path="url(#p0c6a9062e1)" style="fill: none; stroke: #b2b2b2; stroke-opacity: 0.35; stroke-width: 0.8; stroke-linecap: square"/>
   </g>
   <g id="line2d_2">
    <path d="M 8.64 66.72 
L 279.36 66.72 
" clip-path="url(#p0c6a9062e1)" style="fill: none; stroke: #b2b2b2; stroke-opacity: 0.35; stroke-width: 0.8; stroke-linecap: square"/>
   </g>
   <g id="line2d_3">
    <path d="M 8.64 46.08 
L 279.36 46.08 
" clip-path="url(#p0c6a9062e1)" style="fill: none; stroke: #b2b2b2; stroke-opacity: 0.35; stroke-width: 0.8; stroke-linecap: square"/>
   </g>
   <g id="line2d_4">
    <path d="M 8.64 25.44 
L 279.36 25.44 
" clip-path="url(#p0c6a9062e1)" style="fill: none; stroke: #b2b2b2; stroke-opacity: 0.35; stroke-width: 0.8; stroke-linecap: square"/>
   </g>
   <g id="line2d_5">
    <path d="M 8.64 84.19176 
L 11.660117 82.27224 
L 14.680234 83.29392 
L 17.700351 81.62208 
L 20.720468 80.72424 
L 23.740585 84.33624 
L 26.760702 84.64584 
L 29.780819 86.844 
L 32.800936 88.52616 
L 35.821053 88.36104 
L 38.84117 88.93896 
L 41.861287 90.79656 
L 44.881404 88.09272 
L 47.901521 89.22792 
L 50.921638 90.00192 
L 53.941755 91.39512 
L 56.961872 91.63248 
L 59.981989 90.75528 
L 63.002106 88.7016 
L 66.022223 88.52616 
L 69.04234 87.45288 
L 72.062457 88.0308 
L 75.082573 88.94928 
L 78.10269 89.3208 
L 81.122807 89.7336 
L 84.142924 91.86984 
L 87.163041 88.60872 
L 90.183158 86.87496 
L 93.203275 88.52616 
L 96.223392 90.11544 
L 99.243509 90.38376 
L 102.263626 90.53856 
L 105.283743 90.08448 
L 108.30386 88.79448 
L 111.323977 89.20728 
L 114.344094 89.22792 
L 117.364211 90.31152 
L 120.384328 90.10512 
L 123.404445 91.09584 
L 126.424562 91.61184 
L 129.444679 91.31256 
L 132.464796 92.87088 
L 135.484913 93.8616 
L 138.50503 92.02464 
L 141.525147 92.13816 
L 144.545264 92.07624 
L 147.565381 92.14848 
L 150.585498 92.64384 
L 153.605615 93.01536 
L 156.625732 93.69648 
L 159.645849 93.11856 
L 162.665966 92.44776 
L 165.686083 92.30328 
L 168.7062 92.87088 
L 171.726317 92.38584 
L 174.746434 92.47872 
L 177.766551 91.88016 
L 180.786668 90.42504 
L 183.806785 90.08448 
L 186.826902 89.92968 
L 189.847019 88.76352 
L 192.867136 87.94824 
L 195.887253 89.2692 
L 198.90737 88.72224 
L 201.927486 89.39304 
L 204.947603 89.40336 
L 207.96772 88.41264 
L 210.987837 88.4952 
L 214.007954 86.86464 
L 217.028071 86.42088 
L 220.048188 87.62832 
L 223.068305 86.93688 
L 226.088422 87.23616 
L 229.108539 88.63968 
L 232.128656 90.0432 
L 235.148773 92.12784 
L 238.16889 91.16808 
L 241.189007 91.46736 
L 244.209124 91.73568 
L 247.229241 91.78728 
L 250.249358 94.0164 
L 253.269475 92.5716 
L 256.289592 91.76664 
L 259.309709 92.33424 
L 262.329826 94.36728 
L 265.349943 94.46016 
L 268.37006 97.71096 
L 271.390177 98.48496 
L 274.410294 97.85544 
L 276.959951 99.10416 
L 279.36 100.16712 
" clip-path="url(#p0c6a9062e1)" style="fill: none; stroke: #bebebe; stroke-width: 0.5; stroke-linecap: round"/>
   </g>
   <g id="line2d_6">
    <path d="M 8.64 70.4868 
L 11.660117 68.61888 
L 14.680234 69.11424 
L 17.700351 66.5136 
L 20.720468 66.68904 
L 23.740585 68.8872 
L 26.760702 68.9904 
L 29.780819 71.5704 
L 32.800936 73.48992 
L 35.821053 72.54048 
L 38.84117 73.56216 
L 41.861287 74.74896 
L 44.881404 73.3248 
L 47.901521 74.80056 
L 50.921638 77.556 
L 53.941755 78.55704 
L 56.961872 78.50544 
L 59.981989 78.04104 
L 63.002106 75.76032 
L 66.022223 75.73968 
L 69.04234 74.65608 
L 72.062457 74.83152 
L 75.082573 74.57352 
L 78.10269 75.20304 
L 81.122807 75.17208 
L 84.142924 78.05136 
L 87.163041 75.1308 
L 90.183158 72.16896 
L 93.203275 73.08744 
L 96.223392 74.72832 
L 99.243509 74.48064 
L 102.263626 74.28456 
L 105.283743 73.21128 
L 108.30386 70.2804 
L 111.323977 70.2288 
L 114.344094 71.56008 
L 117.364211 73.79952 
L 120.384328 73.35576 
L 123.404445 74.0988 
L 126.424562 75.5952 
L 129.444679 75.5952 
L 132.464796 77.61792 
L 135.484913 77.63856 
L 138.50503 75.40944 
L 141.525147 75.40944 
L 144.545264 75.04824 
L 147.565381 74.98632 
L 150.585498 75.58488 
L 153.605615 75.87384 
L 156.625732 76.49304 
L 159.645849 76.15248 
L 162.665966 75.82224 
L 165.686083 75.84288 
L 168.7062 76.03896 
L 171.726317 75.51264 
L 174.746434 75.56424 
L 177.766551 75.05856 
L 180.786668 73.26288 
L 183.806785 73.20096 
L 186.826902 73.00488 
L 189.847019 71.68392 
L 192.867136 70.6932 
L 195.887253 72.62304 
L 198.90737 73.52088 
L 201.927486 73.83048 
L 204.947603 73.8408 
L 207.96772 73.29384 
L 210.987837 73.72728 
L 214.007954 70.32168 
L 217.028071 69.77472 
L 220.048188 70.34232 
L 223.068305 70.67256 
L 226.088422 70.51776 
L 229.108539 70.848 
L 232.128656 72.31344 
L 235.148773 76.01832 
L 238.16889 75.41976 
L 241.189007 75.83256 
L 244.209124 75.79128 
L 247.229241 75.82224 
L 250.249358 77.82432 
L 253.269475 76.14216 
L 256.289592 74.75928 
L 259.309709 74.96568 
L 262.329826 77.75208 
L 265.349943 79.48584 
L 268.37006 83.31456 
L 271.390177 85.90488 
L 274.410294 84.79032 
L 276.959951 85.84296 
L 279.36 88.25784 
" clip-path="url(#p0c6a9062e1)" style="fill: none; stroke: #4a8dff; stroke-width: 0.6"/>
   </g>
   <g id="line2d_7">
    <path d="M 8.64 71.7252 
L 11.660117 69.57864 
L 14.680234 70.72416 
L 17.700351 68.2164 
L 20.720468 66.978 
L 23.740585 70.03272 
L 26.760702 71.5188 
L 29.780819 73.3764 
L 32.800936 78.846 
L 35.821053 77.75208 
L 38.84117 78.88728 
L 41.861287 81.34344 
L 44.881404 80.53848 
L 47.901521 82.0452 
L 50.921638 86.92656 
L 53.941755 88.58808 
L 56.961872 88.96992 
L 59.981989 86.7924 
L 63.002106 85.296 
L 66.022223 86.24544 
L 69.04234 82.96368 
L 72.062457 82.13808 
L 75.082573 82.47864 
L 78.10269 82.58184 
L 81.122807 83.03592 
L 84.142924 87.3084 
L 87.163041 82.06584 
L 90.183158 79.71288 
L 93.203275 81.24024 
L 96.223392 84.17112 
L 99.243509 84.24336 
L 102.263626 83.29392 
L 105.283743 82.8192 
L 108.30386 80.64168 
L 111.323977 81.38472 
L 114.344094 80.87904 
L 117.364211 83.13912 
L 120.384328 83.19072 
L 123.404445 85.296 
L 126.424562 87.17424 
L 129.444679 85.71912 
L 132.464796 87.53544 
L 135.484913 88.17528 
L 138.50503 85.41984 
L 141.525147 85.17216 
L 144.545264 84.9348 
L 147.565381 85.01736 
L 150.585498 86.14224 
L 153.605615 85.90488 
L 156.625732 86.328 
L 159.645849 86.24544 
L 162.665966 85.72944 
L 165.686083 85.7088 
L 168.7062 86.40024 
L 171.726317 85.09992 
L 174.746434 86.02872 
L 177.766551 84.78 
L 180.786668 83.53128 
L 183.806785 82.83984 
L 186.826902 82.03488 
L 189.847019 79.39296 
L 192.867136 79.66128 
L 195.887253 82.15872 
L 198.90737 82.43736 
L 201.927486 82.93272 
L 204.947603 83.00496 
L 207.96772 82.6128 
L 210.987837 82.28256 
L 214.007954 78.01008 
L 217.028071 76.19376 
L 220.048188 77.66952 
L 223.068305 77.74176 
L 226.088422 78.1752 
L 229.108539 79.5684 
L 232.128656 80.8068 
L 235.148773 85.20312 
L 238.16889 84.12984 
L 241.189007 84.03696 
L 244.209124 84.06792 
L 247.229241 84.3156 
L 250.249358 87.02976 
L 253.269475 85.21344 
L 256.289592 84.28464 
L 259.309709 84.32592 
L 262.329826 89.08344 
L 265.349943 89.5272 
L 268.37006 95.14128 
L 271.390177 96.98856 
L 274.410294 95.08968 
L 276.959951 97.71096 
L 279.36 99.80592 
" clip-path="url(#p0c6a9062e1)" style="fill: none; stroke: #f5841e; stroke-width: 0.7"/>
   </g>
  </g>
 </g>
 <defs>
  <clipPath id="p0c6a9062e1">
   <rect x="8.64" y="4.8" width="270.72" height="103.2"/>
  </clipPath>
 </defs>
</svg>
