<?xml version="1.0" encoding="utf-8" standalone="no"?>
<!DOCTYPE svg PUBLIC "-//W3C//DTD SVG 1.1//EN"
  "http://www.w3.org/Graphics/SVG/1.1/DTD/svg11.dtd">
<svg xmlns:xlink="http://www.w3.org/1999/xlink" width="288pt" height="120pt" viewBox="0 0 288 120" xmlns="http://www.w3.org/2000/svg" version="1.1">
<desc id="nav-meta">{"window":"1y","count":4,"labels":["10.07","08.11","10.03","09.07"],"tick_utc":["2025-07-10T12:00:00Z","2025-11-08T12:00:00Z","2026-03-10T03:14:38Z","2026-07-09T04:41:51Z"],"w":720,"h":300}</desc>

 <metadata>
  <rdf:RDF xmlns:dc="http://purl.org/dc/elements/1.1/" xmlns:cc="http://creativecommons.org/ns#" xmlns:rdf="http://www.w3.org/1999/02/22-rdf-syntax-ns#">
   <cc:Work>
    <dc:type rdf:resource="http://purl.org/dc/dcmitype/StillImage"/>
    <dc:date>2026-07-09T20:28:22.794262</dc:date>
    <dc:format>image/svg+xml</dc:format>
    <dc:creator>
     <cc:Agent>
      <dc:title>Matplotlib v3.11.0, https://matplotlib.org/</dc:title>
     </cc:Agent>
    </dc:creator>
   </cc:Work>
  </rdf:RDF>
 </metadata>
 <defs>
  <style type="text/css">*{stroke-linejoin: round; stroke-linecap: butt}</style>
 </defs>
 <g id="figure_1">
  <g id="patch_1">
   <path d="M 0 120 
L 288 120 
L 288 0 
L 0 0 
L 0 120 
z
" style="fill: none; opacity: 0"/>
  </g>
  <g id="axes_1">
   <g id="patch_2">
    <path d="M 8.64 108 
L 279.36 108 
L 279.36 4.8 
L 8.64 4.8 
L 8.64 108 
z
" style="fill: none"/>
   </g>
   <g id="matplotlib.axis_1"/>
   <g id="matplotlib.axis_2"/>
   <g id="line2d_1">
    <path d="M 8.64 87.36 
L 279.36 87.36 
" clip-path="url(#p77439f02c0)" style="fill: none; stroke: #b2b2b2; stroke-opacity: 0.35; stroke-width: 0.5; stroke-linecap: square"/>
   </g>
   <g id="line2d_2">
    <path d="M 8.64 66.72 
L 279.36 66.72 
" clip-path="url(#p77439f02c0)" style="fill: none; stroke: #b2b2b2; stroke-opacity: 0.35; stroke-width: 0.5; stroke-linecap: square"/>
   </g>
   <g id="line2d_3">
    <path d="M 8.64 46.08 
L 279.36 46.08 
" clip-path="url(#p77439f02c0)" style="fill: none; stroke: #b2b2b2; stroke-opacity: 0.35; stroke-width: 0.5; stroke-linecap: square"/>
   </g>
   <g id="line2d_4">
    <path d="M 8.64 25.44 
L 279.36 25.44 
" clip-path="url(#p77439f02c0)" style="fill: none; stroke: #b2b2b2; stroke-opacity: 0.35; stroke-width: 0.5; stroke-linecap: square"/>
   </g>
   <g id="line2d_5">
    <path d="M 8.64 83.55192 
L 9.384358 81.7356 
L 10.128717 82.03488 
L 10.873075 82.65408 
L 12.361792 82.15872 
L 13.106151 81.70464 
L 13.850509 79.01112 
L 14.594868 78.39192 
L 15.339226 78.04104 
L 16.083585 78.16488 
L 16.827943 77.05032 
L 17.572302 72.82944 
L 18.31666 70.41456 
L 19.061019 74.69736 
L 19.805377 76.6272 
L 20.549736 75.63648 
L 21.294094 75.97704 
L 22.038453 74.976 
L 22.782811 76.49304 
L 23.52717 76.99872 
L 24.271528 77.90688 
L 25.015887 79.4652 
L 25.760245 82.02456 
L 26.504604 83.19072 
L 27.248962 82.27224 
L 27.99332 80.21856 
L 28.737679 81.67368 
L 29.482037 80.5488 
L 30.226396 78.588 
L 30.970754 78.19584 
L 31.715113 77.21544 
L 32.459471 76.524 
L 33.20383 78.68088 
L 33.948188 73.88208 
L 34.692547 71.364 
L 35.436905 73.8408 
L 36.181264 75.79128 
L 36.925622 74.65608 
L 37.669981 74.14008 
L 38.414339 76.50336 
L 39.158698 78.30936 
L 39.903056 75.3372 
L 40.647415 77.25672 
L 41.391773 71.78712 
L 42.136132 70.75512 
L 42.88049 70.24944 
L 43.624849 75.35784 
L 44.369207 72.95328 
L 45.113566 70.96152 
L 45.857924 67.87584 
L 46.602282 70.46616 
L 47.346641 71.11632 
L 48.090999 71.61168 
L 48.835358 72.7056 
L 49.579716 69.33096 
L 50.324075 68.9388 
L 51.068433 71.12664 
L 51.812792 70.90992 
L 52.55715 71.80776 
L 53.301509 70.074 
L 54.045867 68.01 
L 54.790226 67.10184 
L 55.534584 65.29584 
L 56.278943 64.01616 
L 57.023301 60.31128 
L 57.76766 60.19776 
L 58.512018 60.786 
L 59.256377 62.61264 
L 60.000735 61.74576 
L 60.745094 59.57856 
L 61.489452 58.86648 
L 62.233811 61.38456 
L 62.978169 61.07496 
L 63.722527 61.83864 
L 64.466886 66.29688 
L 65.211244 67.97904 
L 65.955603 68.69112 
L 66.699961 73.9956 
L 67.44432 70.45584 
L 68.188678 70.87896 
L 68.933037 68.91816 
L 69.677395 68.3196 
L 70.421754 69.47544 
L 71.910471 62.39592 
L 72.654829 62.81904 
L 73.399188 64.22256 
L 74.143546 64.05744 
L 74.887905 62.9532 
L 75.632263 66.14208 
L 76.376622 63.91296 
L 77.12098 66.17304 
L 77.865339 74.6148 
L 78.609697 77.78304 
L 79.354056 72.66432 
L 80.098414 69.69216 
L 80.842773 71.09568 
L 82.331489 76.06992 
L 83.075848 76.76136 
L 83.820206 75.25464 
L 84.564565 75.24432 
L 85.308923 74.63544 
L 86.053282 75.73968 
L 86.79764 77.31864 
L 87.541999 74.202 
L 88.286357 73.64472 
L 89.030716 73.48992 
L 89.775074 71.83872 
L 90.519433 72.17928 
L 91.263791 73.38672 
L 92.00815 73.43832 
L 92.752508 76.15248 
L 93.496867 75.3372 
L 94.241225 75.58488 
L 94.985584 75.35784 
L 95.729942 81.168 
L 96.474301 84.01632 
L 97.218659 82.06584 
L 97.963018 84.19176 
L 98.707376 82.27224 
L 99.451735 83.29392 
L 100.196093 81.62208 
L 100.940451 80.72424 
L 101.68481 84.33624 
L 102.429168 84.64584 
L 103.173527 86.844 
L 103.917885 88.52616 
L 104.662244 88.36104 
L 105.406602 88.93896 
L 106.150961 90.79656 
L 106.895319 88.09272 
L 107.639678 89.22792 
L 108.384036 90.00192 
L 109.128395 91.39512 
L 109.872753 91.63248 
L 110.617112 90.75528 
L 111.36147 88.7016 
L 112.105829 88.52616 
L 112.850187 87.45288 
L 113.594546 88.0308 
L 114.338904 88.94928 
L 115.827621 89.7336 
L 116.57198 91.86984 
L 117.316338 88.60872 
L 118.060697 86.87496 
L 119.549413 90.11544 
L 121.03813 90.53856 
L 121.782489 90.08448 
L 122.526847 88.79448 
L 123.271206 89.20728 
L 124.015564 89.22792 
L 124.759923 90.31152 
L 125.504281 90.10512 
L 126.24864 91.09584 
L 126.992998 91.61184 
L 127.737357 91.31256 
L 128.481715 92.87088 
L 129.226074 93.8616 
L 129.970432 92.02464 
L 130.714791 92.13816 
L 131.459149 92.07624 
L 132.203508 92.14848 
L 134.436583 93.69648 
L 135.9253 92.44776 
L 136.669658 92.30328 
L 137.414017 92.87088 
L 138.158375 92.38584 
L 138.902734 92.47872 
L 139.647092 91.88016 
L 140.391451 90.42504 
L 141.135809 90.08448 
L 141.880168 89.92968 
L 142.624526 88.76352 
L 143.368885 87.94824 
L 144.113243 89.2692 
L 144.857602 88.72224 
L 145.60196 89.39304 
L 146.346319 89.40336 
L 147.090677 88.41264 
L 147.835036 88.4952 
L 148.579394 86.86464 
L 149.323753 86.42088 
L 150.068111 87.62832 
L 150.81247 86.93688 
L 151.556828 87.23616 
L 153.045545 90.0432 
L 153.789904 92.12784 
L 154.534262 91.16808 
L 156.022979 91.73568 
L 156.767337 91.78728 
L 157.511696 94.0164 
L 158.256054 92.5716 
L 159.000413 91.76664 
L 159.744771 92.33424 
L 160.48913 94.36728 
L 161.233488 94.46016 
L 161.977847 97.71096 
L 162.722205 98.48496 
L 163.466564 97.85544 
L 164.686502 100.16712 
L 165.430481 102.23112 
L 166.171652 100.54896 
L 166.933026 100.70376 
L 167.671241 100.68312 
L 169.162664 101.28168 
L 169.904343 101.71512 
L 170.648477 101.84928 
L 171.383884 101.034 
L 172.088966 100.54896 
L 172.88107 101.04432 
L 173.531927 100.81728 
L 174.368607 101.034 
L 175.112061 101.4984 
L 177.34474 101.06496 
L 178.091338 102.09696 
L 178.772814 102.05568 
L 179.577376 101.4984 
L 180.318418 100.60056 
L 181.061363 100.80696 
L 181.796951 101.45712 
L 182.558222 100.55928 
L 183.294895 101.10624 
L 184.781174 100.74504 
L 185.527135 100.21872 
L 186.27114 100.53864 
L 187.009787 101.07528 
L 187.761373 101.38488 
L 188.507963 101.26104 
L 189.24754 100.78632 
L 190.738894 100.99272 
L 191.481813 100.38384 
L 192.983781 100.60056 
L 193.730241 99.76464 
L 194.461573 99.49632 
L 195.211609 99.40344 
L 195.956174 100.09488 
L 196.693288 100.3632 
L 197.433287 100.19808 
L 198.934883 100.79664 
L 199.67235 100.26 
L 200.472147 99.83688 
L 201.170121 100.13616 
L 202.652661 101.38488 
L 205.644052 101.28168 
L 206.378606 101.8596 
L 207.123817 101.88024 
L 207.861801 101.72544 
L 208.617368 101.68416 
L 209.363647 101.47776 
L 210.103173 101.78736 
L 210.848737 101.09592 
L 211.590503 101.46744 
L 212.34171 101.3436 
L 213.074688 101.05464 
L 213.8324 101.3952 
L 214.580575 101.47776 
L 215.320195 100.86888 
L 216.063985 101.26104 
L 218.290556 100.44576 
L 219.044744 100.94112 
L 219.790947 101.09592 
L 220.53204 101.00304 
L 221.274089 100.69344 
L 222.021463 100.9308 
L 224.259208 100.8792 
L 225.011587 100.64184 
L 225.757505 101.1888 
L 226.499831 101.09592 
L 227.245438 101.37456 
L 227.99793 101.21976 
L 229.482761 101.23008 
L 230.226861 100.92048 
L 230.954825 101.06496 
L 231.712296 100.70376 
L 232.456852 100.55928 
L 233.188822 100.53864 
L 233.935903 99.60984 
L 234.695261 99.72336 
L 236.179515 99.25896 
L 236.927414 99.32088 
L 237.670946 100.22904 
L 238.418974 100.01232 
L 239.909302 100.75536 
L 240.660889 101.02368 
L 241.399914 101.02368 
L 242.146935 101.17848 
L 242.895532 100.7244 
L 243.634187 100.75536 
L 244.36832 101.11656 
L 245.124464 100.91016 
L 245.878618 100.89984 
L 246.611699 101.1372 
L 247.363699 101.2404 
L 248.10568 101.6532 
L 248.85059 101.4984 
L 249.584213 101.48808 
L 250.343769 101.32296 
L 251.836174 101.7048 
L 252.588906 102.54072 
L 253.330714 103.08768 
L 254.062813 103.36632 
L 254.795731 104.22288 
L 255.556088 103.85136 
L 257.033889 103.43856 
L 257.785967 103.81008 
L 258.534693 103.72752 
L 259.281972 103.50048 
L 260.020886 103.5108 
L 260.770646 103.31472 
L 262.288354 102.61296 
L 263.009003 102.6336 
L 264.511685 103.28376 
L 265.986127 102.69552 
L 266.752273 102.582 
L 268.199154 103.15992 
L 268.943315 103.36632 
L 269.69149 103.36632 
L 270.426725 102.81936 
L 271.185273 103.0464 
L 271.935016 102.9432 
L 272.664943 102.59232 
L 273.420192 102.40656 
L 275.628929 101.3436 
L 276.384186 101.6532 
L 277.868948 101.63256 
L 278.593078 101.95248 
L 279.36 102.08664 
L 279.36 102.08664 
" clip-path="url(#p77439f02c0)" style="fill: none; stroke: #bebebe; stroke-width: 0.5; stroke-linecap: round"/>
   </g>
   <g id="line2d_6">
    <path d="M 8.64 78.44352 
L 9.384358 75.83256 
L 10.128717 75.67776 
L 10.873075 75.91512 
L 12.361792 74.88312 
L 13.106151 73.09776 
L 13.850509 69.6096 
L 14.594868 67.91712 
L 15.339226 66.94704 
L 16.083585 66.24528 
L 16.827943 63.80976 
L 17.572302 63.70656 
L 18.31666 63.9852 
L 19.061019 65.71896 
L 19.805377 64.5528 
L 21.294094 64.05744 
L 22.038453 62.25144 
L 22.782811 63.39696 
L 23.52717 63.366 
L 24.271528 63.08736 
L 25.015887 64.72824 
L 25.760245 67.89648 
L 26.504604 69.16584 
L 27.248962 67.69008 
L 27.99332 64.4496 
L 28.737679 65.97696 
L 29.482037 64.914 
L 30.226396 61.54968 
L 30.970754 60.04296 
L 31.715113 56.28648 
L 32.459471 56.47224 
L 33.20383 56.83344 
L 33.948188 51.22968 
L 34.692547 48.89736 
L 35.436905 52.00368 
L 36.181264 53.84064 
L 36.925622 53.90256 
L 37.669981 53.00472 
L 38.414339 55.5228 
L 39.158698 59.12448 
L 39.903056 55.32672 
L 40.647415 56.90568 
L 41.391773 47.92728 
L 42.136132 48.75288 
L 42.88049 48.68064 
L 43.624849 54.57336 
L 44.369207 51.2916 
L 45.113566 52.80864 
L 45.857924 52.69512 
L 46.602282 54.82104 
L 48.090999 54.45984 
L 48.835358 55.7292 
L 49.579716 55.39896 
L 50.324075 53.55168 
L 51.068433 55.81176 
L 51.812792 55.6776 
L 52.55715 56.18328 
L 53.301509 55.71888 
L 54.790226 55.63632 
L 55.534584 55.07904 
L 56.278943 53.41752 
L 57.023301 49.71264 
L 57.76766 50.32152 
L 58.512018 51.17808 
L 59.256377 52.44744 
L 60.000735 52.74672 
L 60.745094 51.4464 
L 61.489452 51.46704 
L 62.233811 53.2524 
L 62.978169 53.08728 
L 63.722527 53.5104 
L 64.466886 57.26688 
L 65.211244 57.76224 
L 65.955603 58.02024 
L 66.699961 62.26176 
L 67.44432 59.68176 
L 68.188678 59.9604 
L 68.933037 58.12344 
L 69.677395 57.02952 
L 70.421754 58.09248 
L 71.166112 55.13064 
L 71.910471 53.046 
L 72.654829 52.5816 
L 73.399188 52.9944 
L 74.143546 52.5816 
L 74.887905 50.0016 
L 75.632263 53.48976 
L 76.376622 52.40616 
L 77.12098 54.75912 
L 77.865339 62.67456 
L 78.609697 63.95424 
L 79.354056 57.86544 
L 80.098414 56.57544 
L 80.842773 58.31952 
L 81.587131 60.4764 
L 82.331489 61.85928 
L 83.075848 62.73648 
L 83.820206 61.8696 
L 84.564565 60.45576 
L 85.308923 60.54864 
L 86.053282 62.04504 
L 86.79764 63.16992 
L 87.541999 62.36496 
L 88.286357 61.21944 
L 89.030716 60.9408 
L 89.775074 57.83448 
L 90.519433 58.40208 
L 91.263791 60.49704 
L 92.752508 63.1596 
L 93.496867 62.49912 
L 94.241225 62.1276 
L 94.985584 61.56 
L 96.474301 70.66224 
L 97.218659 68.72208 
L 97.963018 70.4868 
L 98.707376 68.61888 
L 99.451735 69.11424 
L 100.196093 66.5136 
L 100.940451 66.68904 
L 101.68481 68.8872 
L 102.429168 68.9904 
L 103.173527 71.5704 
L 103.917885 73.48992 
L 104.662244 72.54048 
L 106.150961 74.74896 
L 106.895319 73.3248 
L 107.639678 74.80056 
L 108.384036 77.556 
L 109.128395 78.55704 
L 109.872753 78.50544 
L 110.617112 78.04104 
L 111.36147 75.76032 
L 112.105829 75.73968 
L 112.850187 74.65608 
L 113.594546 74.83152 
L 114.338904 74.57352 
L 115.083263 75.20304 
L 115.827621 75.17208 
L 116.57198 78.05136 
L 118.060697 72.16896 
L 118.805055 73.08744 
L 119.549413 74.72832 
L 121.03813 74.28456 
L 121.782489 73.21128 
L 122.526847 70.2804 
L 123.271206 70.2288 
L 124.015564 71.56008 
L 124.759923 73.79952 
L 125.504281 73.35576 
L 126.24864 74.0988 
L 126.992998 75.5952 
L 127.737357 75.5952 
L 128.481715 77.61792 
L 129.226074 77.63856 
L 129.970432 75.40944 
L 130.714791 75.40944 
L 131.459149 75.04824 
L 132.203508 74.98632 
L 132.947866 75.58488 
L 133.692225 75.87384 
L 134.436583 76.49304 
L 135.9253 75.82224 
L 136.669658 75.84288 
L 137.414017 76.03896 
L 138.158375 75.51264 
L 138.902734 75.56424 
L 139.647092 75.05856 
L 140.391451 73.26288 
L 141.135809 73.20096 
L 141.880168 73.00488 
L 142.624526 71.68392 
L 143.368885 70.6932 
L 144.113243 72.62304 
L 144.857602 73.52088 
L 145.60196 73.83048 
L 146.346319 73.8408 
L 147.090677 73.29384 
L 147.835036 73.72728 
L 148.579394 70.32168 
L 149.323753 69.77472 
L 150.068111 70.34232 
L 150.81247 70.67256 
L 151.556828 70.51776 
L 152.301187 70.848 
L 153.045545 72.31344 
L 153.789904 76.01832 
L 154.534262 75.41976 
L 155.27862 75.83256 
L 156.767337 75.82224 
L 157.511696 77.82432 
L 158.256054 76.14216 
L 159.000413 74.75928 
L 159.744771 74.96568 
L 160.48913 77.75208 
L 161.233488 79.48584 
L 161.977847 83.31456 
L 162.722205 85.90488 
L 163.466564 84.79032 
L 164.094969 85.84296 
L 165.430481 91.41576 
L 166.171652 88.7532 
L 167.671241 88.55712 
L 168.419847 88.96992 
L 169.904343 90.456 
L 170.648477 90.56952 
L 171.383884 89.15568 
L 172.088966 88.9596 
L 172.88107 90.6624 
L 173.531927 89.94 
L 174.368607 90.00192 
L 175.852069 90.62112 
L 177.34474 90.3528 
L 178.091338 92.004 
L 178.772814 92.13816 
L 179.577376 91.25064 
L 180.318418 89.166 
L 181.061363 89.56848 
L 181.796951 90.93072 
L 182.558222 89.41368 
L 183.294895 90.37344 
L 184.040985 89.79552 
L 184.781174 90.23928 
L 185.527135 88.0824 
L 186.27114 88.7532 
L 187.009787 90.16704 
L 187.761373 90.67272 
L 188.507963 90.18768 
L 189.24754 89.2692 
L 189.991606 89.54784 
L 190.738894 89.49624 
L 191.481813 88.31976 
L 192.225181 88.45392 
L 192.983781 88.46424 
L 193.730241 86.38992 
L 194.461573 84.80064 
L 195.211609 84.8316 
L 195.956174 86.586 
L 196.693288 87.74184 
L 197.433287 87.618 
L 198.188776 88.19592 
L 198.934883 89.08344 
L 199.67235 87.89664 
L 200.472147 87.3084 
L 201.170121 87.65928 
L 202.652661 90.07416 
L 204.153646 89.3724 
L 204.893309 89.00088 
L 205.644052 88.42296 
L 207.123817 89.10408 
L 207.861801 89.14536 
L 208.617368 89.07312 
L 209.363647 87.9792 
L 210.103173 88.29912 
L 210.848737 86.38992 
L 211.590503 87.24648 
L 212.34171 87.1536 
L 213.074688 86.21448 
L 214.580575 87.01944 
L 215.320195 84.44976 
L 216.063985 85.05864 
L 216.811566 84.58392 
L 217.554408 85.04832 
L 218.290556 83.71704 
L 219.044744 84.86256 
L 219.790947 85.6572 
L 220.53204 85.27536 
L 221.274089 84.49104 
L 222.767795 85.32696 
L 223.503271 85.17216 
L 224.259208 85.31664 
L 225.011587 84.11952 
L 225.757505 85.66752 
L 226.499831 85.26504 
L 227.245438 86.26608 
L 228.723291 85.38888 
L 229.482761 85.3992 
L 230.226861 84.09888 
L 231.712296 84.34656 
L 233.188822 85.7604 
L 233.935903 85.0896 
L 235.445495 84.9348 
L 236.179515 85.296 
L 236.927414 85.35792 
L 237.670946 86.1732 
L 238.418974 85.92552 
L 239.909302 87.13296 
L 240.660889 88.10304 
L 241.399914 87.9276 
L 242.146935 88.26816 
L 242.895532 87.78312 
L 243.634187 87.95856 
L 244.36832 88.94928 
L 245.124464 88.14432 
L 246.611699 88.52616 
L 247.363699 88.86672 
L 248.10568 90.22896 
L 248.85059 89.82648 
L 249.584213 89.87808 
L 250.343769 89.46528 
L 251.099138 90.0432 
L 251.836174 89.96064 
L 252.588906 91.99368 
L 253.330714 93.05664 
L 254.062813 93.74808 
L 254.795731 97.02984 
L 255.556088 95.93592 
L 256.303737 95.07936 
L 257.033889 94.46016 
L 257.785967 95.47152 
L 259.281972 94.82136 
L 260.020886 94.8936 
L 260.770646 94.70784 
L 262.288354 93.40752 
L 263.009003 92.9844 
L 263.749795 93.93384 
L 264.511685 94.4292 
L 265.986127 93.87192 
L 266.752273 93.81 
L 267.452134 94.03704 
L 268.943315 95.48184 
L 269.69149 96.63768 
L 270.426725 96.14232 
L 271.185273 96.30744 
L 271.935016 96.29712 
L 272.664943 96.04944 
L 273.420192 95.9256 
L 274.151515 95.39928 
L 274.887775 94.31568 
L 275.628929 93.57264 
L 276.384186 93.32496 
L 277.135755 93.22176 
L 277.868948 93.35592 
L 279.36 93.77904 
L 279.36 93.77904 
" clip-path="url(#p77439f02c0)" style="fill: none; stroke: #4a8dff; stroke-width: 0.6"/>
   </g>
   <g id="line2d_7">
    <path d="M 8.64 61.36392 
L 9.384358 56.64768 
L 10.128717 54.89328 
L 10.873075 55.04808 
L 11.617434 53.29368 
L 12.361792 52.55064 
L 13.106151 54.77976 
L 13.850509 53.67552 
L 14.594868 52.95312 
L 15.339226 54.45984 
L 16.083585 54.55272 
L 16.827943 55.22352 
L 17.572302 54.98616 
L 18.31666 52.4268 
L 19.061019 53.79936 
L 19.805377 54.08832 
L 20.549736 54.92424 
L 21.294094 54.4908 
L 22.038453 52.98408 
L 22.782811 54.44952 
L 23.52717 54.60432 
L 24.271528 54.62496 
L 25.760245 59.38248 
L 26.504604 60.09456 
L 27.248962 58.39176 
L 27.99332 57.41136 
L 28.737679 58.464 
L 29.482037 57.5352 
L 30.226396 55.0068 
L 30.970754 55.81176 
L 31.715113 55.99752 
L 32.459471 53.13888 
L 33.20383 53.64456 
L 33.948188 52.1688 
L 34.692547 48.69096 
L 35.436905 54.0264 
L 36.181264 55.13064 
L 36.925622 54.96552 
L 37.669981 54.92424 
L 38.414339 56.25552 
L 39.158698 59.8572 
L 39.903056 58.32984 
L 40.647415 60.23904 
L 41.391773 55.65696 
L 42.136132 57.18432 
L 42.88049 59.21736 
L 43.624849 62.55072 
L 44.369207 60.82728 
L 45.113566 61.47744 
L 45.857924 60.12552 
L 46.602282 64.31544 
L 47.346641 63.99552 
L 48.090999 64.5528 
L 48.835358 63.60336 
L 49.579716 61.5084 
L 50.324075 60.96144 
L 51.068433 61.98312 
L 51.812792 62.05536 
L 52.55715 62.51976 
L 54.045867 60.64152 
L 54.790226 61.13688 
L 55.534584 58.6188 
L 56.278943 57.03984 
L 57.023301 56.35872 
L 57.76766 56.5548 
L 58.512018 57.174 
L 59.256377 57.14304 
L 60.000735 55.7292 
L 60.745094 56.04912 
L 61.489452 55.33704 
L 62.233811 56.87472 
L 62.978169 56.8128 
L 63.722527 57.24624 
L 64.466886 59.93976 
L 65.211244 60.64152 
L 65.955603 59.29992 
L 66.699961 63.80976 
L 67.44432 63.03576 
L 68.188678 63.09768 
L 69.677395 58.27824 
L 70.421754 58.5672 
L 71.166112 53.93352 
L 71.910471 51.74568 
L 72.654829 50.04288 
L 73.399188 49.90872 
L 74.887905 47.43192 
L 75.632263 50.80656 
L 76.376622 48.90768 
L 77.12098 50.6208 
L 77.865339 59.42376 
L 78.609697 61.85928 
L 79.354056 57.35976 
L 80.098414 57.3288 
L 80.842773 59.46504 
L 82.331489 64.72824 
L 83.075848 66.42072 
L 83.820206 65.688 
L 84.564565 64.17096 
L 85.308923 62.10696 
L 86.053282 64.30512 
L 86.79764 65.20296 
L 87.541999 62.68488 
L 88.286357 61.70448 
L 89.030716 61.06464 
L 89.775074 58.1028 
L 90.519433 58.40208 
L 91.263791 59.68176 
L 92.00815 62.6952 
L 92.752508 64.56312 
L 93.496867 63.18024 
L 94.241225 62.72616 
L 94.985584 62.06568 
L 95.729942 66.33816 
L 96.474301 71.40528 
L 97.218659 69.08328 
L 97.963018 71.7252 
L 98.707376 69.57864 
L 99.451735 70.72416 
L 100.196093 68.2164 
L 100.940451 66.978 
L 101.68481 70.03272 
L 102.429168 71.5188 
L 103.173527 73.3764 
L 103.917885 78.846 
L 104.662244 77.75208 
L 105.406602 78.88728 
L 106.150961 81.34344 
L 106.895319 80.53848 
L 107.639678 82.0452 
L 108.384036 86.92656 
L 109.128395 88.58808 
L 109.872753 88.96992 
L 110.617112 86.7924 
L 111.36147 85.296 
L 112.105829 86.24544 
L 112.850187 82.96368 
L 113.594546 82.13808 
L 114.338904 82.47864 
L 115.083263 82.58184 
L 115.827621 83.03592 
L 116.57198 87.3084 
L 117.316338 82.06584 
L 118.060697 79.71288 
L 118.805055 81.24024 
L 119.549413 84.17112 
L 120.293772 84.24336 
L 121.03813 83.29392 
L 121.782489 82.8192 
L 122.526847 80.64168 
L 123.271206 81.38472 
L 124.015564 80.87904 
L 124.759923 83.13912 
L 125.504281 83.19072 
L 126.992998 87.17424 
L 127.737357 85.71912 
L 128.481715 87.53544 
L 129.226074 88.17528 
L 129.970432 85.41984 
L 131.459149 84.9348 
L 132.203508 85.01736 
L 132.947866 86.14224 
L 133.692225 85.90488 
L 134.436583 86.328 
L 135.180942 86.24544 
L 135.9253 85.72944 
L 136.669658 85.7088 
L 137.414017 86.40024 
L 138.158375 85.09992 
L 138.902734 86.02872 
L 140.391451 83.53128 
L 141.880168 82.03488 
L 142.624526 79.39296 
L 143.368885 79.66128 
L 144.113243 82.15872 
L 144.857602 82.43736 
L 145.60196 82.93272 
L 146.346319 83.00496 
L 147.835036 82.28256 
L 148.579394 78.01008 
L 149.323753 76.19376 
L 150.068111 77.66952 
L 150.81247 77.74176 
L 151.556828 78.1752 
L 153.045545 80.8068 
L 153.789904 85.20312 
L 154.534262 84.12984 
L 155.27862 84.03696 
L 156.022979 84.06792 
L 156.767337 84.3156 
L 157.511696 87.02976 
L 158.256054 85.21344 
L 159.000413 84.28464 
L 159.744771 84.32592 
L 160.48913 89.08344 
L 161.233488 89.5272 
L 161.977847 95.14128 
L 162.722205 96.98856 
L 163.466564 95.08968 
L 164.686502 99.80592 
L 165.430481 101.79768 
L 166.171652 100.03296 
L 166.933026 100.518 
L 167.671241 99.98136 
L 168.419847 100.49736 
L 170.648477 101.26104 
L 171.383884 100.63152 
L 172.088966 100.38384 
L 172.88107 100.84824 
L 173.531927 100.65216 
L 174.368607 101.034 
L 175.112061 101.19912 
L 177.34474 100.91016 
L 178.091338 101.7564 
L 178.772814 101.84928 
L 179.577376 101.56032 
L 180.318418 100.85856 
L 181.796951 101.4468 
L 182.558222 101.02368 
L 183.294895 101.30232 
L 184.040985 100.81728 
L 184.781174 100.79664 
L 185.527135 99.3312 
L 186.27114 99.92976 
L 187.009787 100.78632 
L 187.761373 101.17848 
L 188.507963 101.1372 
L 189.24754 100.21872 
L 190.738894 100.4664 
L 191.481813 99.88848 
L 192.225181 99.94008 
L 192.983781 99.81624 
L 193.730241 98.93904 
L 194.461573 98.3508 
L 195.211609 98.52624 
L 195.956174 99.78528 
L 196.693288 100.12584 
L 197.433287 100.03296 
L 198.934883 100.83792 
L 199.67235 100.11552 
L 200.472147 99.87816 
L 201.170121 100.002 
L 202.652661 101.41584 
L 203.40716 101.21976 
L 204.893309 101.00304 
L 205.644052 100.86888 
L 206.378606 101.21976 
L 207.123817 101.28168 
L 208.617368 101.14752 
L 209.363647 100.55928 
L 210.103173 100.65216 
L 210.848737 99.80592 
L 211.590503 99.96072 
L 212.34171 99.6408 
L 213.074688 99.1764 
L 213.8324 99.70272 
L 214.580575 99.94008 
L 215.320195 98.57784 
L 216.063985 98.65008 
L 216.811566 98.38176 
L 217.554408 98.48496 
L 218.290556 96.70992 
L 219.044744 98.05152 
L 219.790947 98.48496 
L 220.53204 97.96896 
L 221.274089 96.32808 
L 222.767795 96.16296 
L 223.503271 96.1836 
L 224.259208 96.50352 
L 225.011587 94.76976 
L 225.757505 97.19496 
L 226.499831 96.9576 
L 227.245438 97.9896 
L 227.99793 96.89568 
L 228.723291 95.45088 
L 229.482761 95.67792 
L 230.226861 93.43848 
L 231.712296 92.25168 
L 232.456852 92.87088 
L 233.188822 94.2744 
L 233.935903 93.1392 
L 234.695261 92.97408 
L 235.445495 92.9844 
L 236.179515 92.60256 
L 236.927414 92.53032 
L 237.670946 94.54272 
L 238.418974 92.85024 
L 239.15383 94.82136 
L 239.909302 95.75016 
L 240.660889 96.97824 
L 242.146935 97.23624 
L 242.895532 95.94624 
L 243.634187 96.30744 
L 244.36832 98.08248 
L 245.878618 96.61704 
L 246.611699 97.23624 
L 247.363699 98.08248 
L 248.10568 99.18672 
L 248.85059 99.03192 
L 249.584213 99.1248 
L 250.343769 98.74296 
L 251.099138 99.09384 
L 251.836174 100.0536 
L 252.588906 101.23008 
L 253.330714 101.99376 
L 254.062813 102.08664 
L 254.795731 102.8916 
L 255.556088 102.45816 
L 257.033889 102.10728 
L 257.785967 102.582 
L 259.281972 102.08664 
L 260.020886 102.066 
L 260.770646 101.86992 
L 261.539748 101.48808 
L 262.288354 101.40552 
L 263.009003 101.4984 
L 263.749795 101.97312 
L 264.511685 102.26208 
L 265.986127 101.90088 
L 266.752273 101.90088 
L 267.452134 102.0144 
L 268.199154 102.25176 
L 268.943315 102.6336 
L 269.69149 102.88128 
L 270.426725 102.77808 
L 273.420192 103.00512 
L 274.151515 102.69552 
L 274.887775 102.55104 
L 275.628929 102.2724 
L 277.868948 102.13824 
L 279.36 102.36528 
L 279.36 102.36528 
" clip-path="url(#p77439f02c0)" style="fill: none; stroke: #f5841e; stroke-width: 0.6"/>
   </g>
  </g>
 </g>
 <defs>
  <clipPath id="p77439f02c0">
   <rect x="8.64" y="4.8" width="270.72" height="103.2"/>
  </clipPath>
 </defs>
</svg>
