<?xml version="1.0" encoding="utf-8" standalone="no"?>
<!DOCTYPE svg PUBLIC "-//W3C//DTD SVG 1.1//EN"
  "http://www.w3.org/Graphics/SVG/1.1/DTD/svg11.dtd">
<svg xmlns:xlink="http://www.w3.org/1999/xlink" width="288pt" height="120pt" viewBox="0 0 288 120" xmlns="http://www.w3.org/2000/svg" version="1.1">
<desc id="nav-meta">{"window":"1m","count":4,"labels":["14.01","24.01","02.02","12.02"],"tick_utc":["2026-01-14T12:00:00Z","2026-01-24T12:00:00Z","2026-02-02T12:00:00Z","2026-02-12T03:34:13Z"],"w":720,"h":300}</desc>

 <metadata>
  <rdf:RDF xmlns:dc="http://purl.org/dc/elements/1.1/" xmlns:cc="http://creativecommons.org/ns#" xmlns:rdf="http://www.w3.org/1999/02/22-rdf-syntax-ns#">
   <cc:Work>
    <dc:type rdf:resource="http://purl.org/dc/dcmitype/StillImage"/>
    <dc:date>2026-02-12T13:57:10.406510</dc:date>
    <dc:format>image/svg+xml</dc:format>
    <dc:creator>
     <cc:Agent>
      <dc:title>Matplotlib v3.10.8, https://matplotlib.org/</dc:title>
     </cc:Agent>
    </dc:creator>
   </cc:Work>
  </rdf:RDF>
 </metadata>
 <defs>
  <style type="text/css">*{stroke-linejoin: round; stroke-linecap: butt}</style>
 </defs>
 <g id="figure_1">
  <g id="patch_1">
   <path d="M 0 120 
L 288 120 
L 288 0 
L 0 0 
L 0 120 
z
" style="fill: none; opacity: 0"/>
  </g>
  <g id="axes_1">
   <g id="patch_2">
    <path d="M 8.64 108 
L 279.36 108 
L 279.36 4.8 
L 8.64 4.8 
L 8.64 108 
z
" style="fill: none"/>
   </g>
   <g id="matplotlib.axis_1"/>
   <g id="matplotlib.axis_2"/>
   <g id="line2d_1">
    <path d="M 8.64 87.36 
L 279.36 87.36 
" clip-path="url(#p3d28e12380)" style="fill: none; stroke: #b2b2b2; stroke-opacity: 0.35; stroke-width: 0.5; stroke-linecap: square"/>
   </g>
   <g id="line2d_2">
    <path d="M 8.64 66.72 
L 279.36 66.72 
" clip-path="url(#p3d28e12380)" style="fill: none; stroke: #b2b2b2; stroke-opacity: 0.35; stroke-width: 0.5; stroke-linecap: square"/>
   </g>
   <g id="line2d_3">
    <path d="M 8.64 46.08 
L 279.36 46.08 
" clip-path="url(#p3d28e12380)" style="fill: none; stroke: #b2b2b2; stroke-opacity: 0.35; stroke-width: 0.5; stroke-linecap: square"/>
   </g>
   <g id="line2d_4">
    <path d="M 8.64 25.44 
L 279.36 25.44 
" clip-path="url(#p3d28e12380)" style="fill: none; stroke: #b2b2b2; stroke-opacity: 0.35; stroke-width: 0.5; stroke-linecap: square"/>
   </g>
   <g id="line2d_5">
    <path d="M 8.64 86.86464 
L 18.089623 86.42088 
L 27.539246 87.62832 
L 36.988869 86.93688 
L 46.438493 87.23616 
L 55.888116 88.63968 
L 65.337739 90.0432 
L 74.787362 92.12784 
L 84.236985 91.16808 
L 93.686608 91.46736 
L 103.136231 91.73568 
L 112.585854 91.78728 
L 122.035478 94.0164 
L 131.485101 92.5716 
L 140.934724 91.76664 
L 150.384347 92.33424 
L 159.83397 94.36728 
L 169.283593 94.46016 
L 178.733216 97.71096 
L 188.182839 98.48496 
L 197.632463 97.85544 
L 205.610066 99.10416 
L 213.119564 100.16712 
L 222.564375 102.23112 
L 231.97353 100.54896 
L 241.639161 100.70376 
L 251.010802 100.68312 
L 260.514345 100.95144 
L 269.944391 101.28168 
L 279.36 101.71512 
" clip-path="url(#p3d28e12380)" style="fill: none; stroke: #bebebe; stroke-width: 0.5; stroke-linecap: round"/>
   </g>
   <g id="line2d_6">
    <path d="M 8.64 70.32168 
L 18.089623 69.77472 
L 27.539246 70.34232 
L 36.988869 70.67256 
L 46.438493 70.51776 
L 55.888116 70.848 
L 65.337739 72.31344 
L 74.787362 76.01832 
L 84.236985 75.41976 
L 93.686608 75.83256 
L 103.136231 75.79128 
L 112.585854 75.82224 
L 122.035478 77.82432 
L 131.485101 76.14216 
L 140.934724 74.75928 
L 150.384347 74.96568 
L 159.83397 77.75208 
L 169.283593 79.48584 
L 178.733216 83.31456 
L 188.182839 85.90488 
L 197.632463 84.79032 
L 205.610066 85.84296 
L 213.119564 88.25784 
L 222.564375 91.41576 
L 231.97353 88.7532 
L 241.639161 88.65 
L 251.010802 88.55712 
L 260.514345 88.96992 
L 269.944391 89.7336 
L 279.36 90.456 
" clip-path="url(#p3d28e12380)" style="fill: none; stroke: #4a8dff; stroke-width: 0.6"/>
   </g>
   <g id="line2d_7">
    <path d="M 8.64 78.01008 
L 18.089623 76.19376 
L 27.539246 77.66952 
L 36.988869 77.74176 
L 46.438493 78.1752 
L 55.888116 79.5684 
L 65.337739 80.8068 
L 74.787362 85.20312 
L 84.236985 84.12984 
L 93.686608 84.03696 
L 103.136231 84.06792 
L 112.585854 84.3156 
L 122.035478 87.02976 
L 131.485101 85.21344 
L 140.934724 84.28464 
L 150.384347 84.32592 
L 159.83397 89.08344 
L 169.283593 89.5272 
L 178.733216 95.14128 
L 188.182839 96.98856 
L 197.632463 95.08968 
L 205.610066 97.71096 
L 213.119564 99.80592 
L 222.564375 101.79768 
L 231.97353 100.03296 
L 241.639161 100.518 
L 251.010802 99.98136 
L 260.514345 100.49736 
L 269.944391 100.78632 
L 279.36 101.07528 
" clip-path="url(#p3d28e12380)" style="fill: none; stroke: #f5841e; stroke-width: 0.6"/>
   </g>
  </g>
 </g>
 <defs>
  <clipPath id="p3d28e12380">
   <rect x="8.64" y="4.8" width="270.72" height="103.2"/>
  </clipPath>
 </defs>
</svg>
