<?xml version="1.0" encoding="utf-8" standalone="no"?>
<!DOCTYPE svg PUBLIC "-//W3C//DTD SVG 1.1//EN"
  "http://www.w3.org/Graphics/SVG/1.1/DTD/svg11.dtd">
<svg xmlns:xlink="http://www.w3.org/1999/xlink" width="288pt" height="120pt" viewBox="0 0 288 120" xmlns="http://www.w3.org/2000/svg" version="1.1">
<desc id="nav-meta">{"window":"3m","count":4,"labels":["29.11","29.12","27.01","26.02"],"tick_utc":["2025-11-29T12:00:00Z","2025-12-29T12:00:00Z","2026-01-27T12:00:00Z","2026-02-26T03:20:47Z"],"w":720,"h":300}</desc>

 <metadata>
  <rdf:RDF xmlns:dc="http://purl.org/dc/elements/1.1/" xmlns:cc="http://creativecommons.org/ns#" xmlns:rdf="http://www.w3.org/1999/02/22-rdf-syntax-ns#">
   <cc:Work>
    <dc:type rdf:resource="http://purl.org/dc/dcmitype/StillImage"/>
    <dc:date>2026-02-26T13:56:22.694037</dc:date>
    <dc:format>image/svg+xml</dc:format>
    <dc:creator>
     <cc:Agent>
      <dc:title>Matplotlib v3.10.8, https://matplotlib.org/</dc:title>
     </cc:Agent>
    </dc:creator>
   </cc:Work>
  </rdf:RDF>
 </metadata>
 <defs>
  <style type="text/css">*{stroke-linejoin: round; stroke-linecap: butt}</style>
 </defs>
 <g id="figure_1">
  <g id="patch_1">
   <path d="M 0 120 
L 288 120 
L 288 0 
L 0 0 
L 0 120 
z
" style="fill: none; opacity: 0"/>
  </g>
  <g id="axes_1">
   <g id="patch_2">
    <path d="M 8.64 108 
L 279.36 108 
L 279.36 4.8 
L 8.64 4.8 
L 8.64 108 
z
" style="fill: none"/>
   </g>
   <g id="matplotlib.axis_1"/>
   <g id="matplotlib.axis_2"/>
   <g id="line2d_1">
    <path d="M 8.64 87.36 
L 279.36 87.36 
" clip-path="url(#pe6f841d489)" style="fill: none; stroke: #b2b2b2; stroke-opacity: 0.35; stroke-width: 0.5; stroke-linecap: square"/>
   </g>
   <g id="line2d_2">
    <path d="M 8.64 66.72 
L 279.36 66.72 
" clip-path="url(#pe6f841d489)" style="fill: none; stroke: #b2b2b2; stroke-opacity: 0.35; stroke-width: 0.5; stroke-linecap: square"/>
   </g>
   <g id="line2d_3">
    <path d="M 8.64 46.08 
L 279.36 46.08 
" clip-path="url(#pe6f841d489)" style="fill: none; stroke: #b2b2b2; stroke-opacity: 0.35; stroke-width: 0.5; stroke-linecap: square"/>
   </g>
   <g id="line2d_4">
    <path d="M 8.64 25.44 
L 279.36 25.44 
" clip-path="url(#pe6f841d489)" style="fill: none; stroke: #b2b2b2; stroke-opacity: 0.35; stroke-width: 0.5; stroke-linecap: square"/>
   </g>
   <g id="line2d_5">
    <path d="M 8.64 88.94928 
L 11.694171 89.3208 
L 14.748342 89.7336 
L 17.802513 91.86984 
L 20.856685 88.60872 
L 23.910856 86.87496 
L 26.965027 88.52616 
L 30.019198 90.11544 
L 33.073369 90.38376 
L 36.12754 90.53856 
L 39.181712 90.08448 
L 42.235883 88.79448 
L 45.290054 89.20728 
L 48.344225 89.22792 
L 51.398396 90.31152 
L 54.452567 90.10512 
L 57.506739 91.09584 
L 60.56091 91.61184 
L 63.615081 91.31256 
L 66.669252 92.87088 
L 69.723423 93.8616 
L 72.777594 92.02464 
L 75.831766 92.13816 
L 78.885937 92.07624 
L 81.940108 92.14848 
L 84.994279 92.64384 
L 88.04845 93.01536 
L 91.102621 93.69648 
L 94.156793 93.11856 
L 97.210964 92.44776 
L 100.265135 92.30328 
L 103.319306 92.87088 
L 106.373477 92.38584 
L 109.427648 92.47872 
L 112.48182 91.88016 
L 115.535991 90.42504 
L 118.590162 90.08448 
L 121.644333 89.92968 
L 124.698504 88.76352 
L 127.752675 87.94824 
L 130.806847 89.2692 
L 133.861018 88.72224 
L 136.915189 89.39304 
L 139.96936 89.40336 
L 143.023531 88.41264 
L 146.077702 88.4952 
L 149.131874 86.86464 
L 152.186045 86.42088 
L 155.240216 87.62832 
L 158.294387 86.93688 
L 161.348558 87.23616 
L 164.402729 88.63968 
L 167.456901 90.0432 
L 170.511072 92.12784 
L 173.565243 91.16808 
L 176.619414 91.46736 
L 179.673585 91.73568 
L 182.727756 91.78728 
L 185.781928 94.0164 
L 188.836099 92.5716 
L 191.89027 91.76664 
L 194.944441 92.33424 
L 197.998612 94.36728 
L 201.052783 94.46016 
L 204.106955 97.71096 
L 207.161126 98.48496 
L 210.215297 97.85544 
L 212.793703 99.10416 
L 215.220815 100.16712 
L 218.273431 102.23112 
L 221.314523 100.54896 
L 224.438508 100.70376 
L 227.467476 100.68312 
L 230.539074 100.95144 
L 233.586918 101.28168 
L 236.630095 101.71512 
L 239.683347 101.84928 
L 242.700791 101.034 
L 245.593805 100.54896 
L 248.843881 101.04432 
L 251.514407 100.81728 
L 254.947381 101.034 
L 257.99784 101.4984 
L 261.03416 101.33328 
L 264.069667 101.1372 
L 267.158728 101.06496 
L 270.22209 102.09696 
L 273.018247 102.05568 
L 276.319438 101.4984 
L 279.36 100.60056 
" clip-path="url(#pe6f841d489)" style="fill: none; stroke: #bebebe; stroke-width: 0.5; stroke-linecap: round"/>
   </g>
   <g id="line2d_6">
    <path d="M 8.64 74.57352 
L 11.694171 75.20304 
L 14.748342 75.17208 
L 17.802513 78.05136 
L 20.856685 75.1308 
L 23.910856 72.16896 
L 26.965027 73.08744 
L 30.019198 74.72832 
L 33.073369 74.48064 
L 36.12754 74.28456 
L 39.181712 73.21128 
L 42.235883 70.2804 
L 45.290054 70.2288 
L 48.344225 71.56008 
L 51.398396 73.79952 
L 54.452567 73.35576 
L 57.506739 74.0988 
L 60.56091 75.5952 
L 63.615081 75.5952 
L 66.669252 77.61792 
L 69.723423 77.63856 
L 72.777594 75.40944 
L 75.831766 75.40944 
L 78.885937 75.04824 
L 81.940108 74.98632 
L 84.994279 75.58488 
L 88.04845 75.87384 
L 91.102621 76.49304 
L 94.156793 76.15248 
L 97.210964 75.82224 
L 100.265135 75.84288 
L 103.319306 76.03896 
L 106.373477 75.51264 
L 109.427648 75.56424 
L 112.48182 75.05856 
L 115.535991 73.26288 
L 118.590162 73.20096 
L 121.644333 73.00488 
L 124.698504 71.68392 
L 127.752675 70.6932 
L 130.806847 72.62304 
L 133.861018 73.52088 
L 136.915189 73.83048 
L 139.96936 73.8408 
L 143.023531 73.29384 
L 146.077702 73.72728 
L 149.131874 70.32168 
L 152.186045 69.77472 
L 155.240216 70.34232 
L 158.294387 70.67256 
L 161.348558 70.51776 
L 164.402729 70.848 
L 167.456901 72.31344 
L 170.511072 76.01832 
L 173.565243 75.41976 
L 176.619414 75.83256 
L 179.673585 75.79128 
L 182.727756 75.82224 
L 185.781928 77.82432 
L 188.836099 76.14216 
L 191.89027 74.75928 
L 194.944441 74.96568 
L 197.998612 77.75208 
L 201.052783 79.48584 
L 204.106955 83.31456 
L 207.161126 85.90488 
L 210.215297 84.79032 
L 212.793703 85.84296 
L 215.220815 88.25784 
L 218.273431 91.41576 
L 221.314523 88.7532 
L 224.438508 88.65 
L 227.467476 88.55712 
L 230.539074 88.96992 
L 233.586918 89.7336 
L 236.630095 90.456 
L 239.683347 90.56952 
L 242.700791 89.15568 
L 245.593805 88.9596 
L 248.843881 90.6624 
L 251.514407 89.94 
L 254.947381 90.00192 
L 257.99784 90.3528 
L 261.03416 90.62112 
L 264.069667 90.5076 
L 267.158728 90.3528 
L 270.22209 92.004 
L 273.018247 92.13816 
L 276.319438 91.25064 
L 279.36 89.166 
" clip-path="url(#pe6f841d489)" style="fill: none; stroke: #4a8dff; stroke-width: 0.6"/>
   </g>
   <g id="line2d_7">
    <path d="M 8.64 82.47864 
L 11.694171 82.58184 
L 14.748342 83.03592 
L 17.802513 87.3084 
L 20.856685 82.06584 
L 23.910856 79.71288 
L 26.965027 81.24024 
L 30.019198 84.17112 
L 33.073369 84.24336 
L 36.12754 83.29392 
L 39.181712 82.8192 
L 42.235883 80.64168 
L 45.290054 81.38472 
L 48.344225 80.87904 
L 51.398396 83.13912 
L 54.452567 83.19072 
L 57.506739 85.296 
L 60.56091 87.17424 
L 63.615081 85.71912 
L 66.669252 87.53544 
L 69.723423 88.17528 
L 72.777594 85.41984 
L 75.831766 85.17216 
L 78.885937 84.9348 
L 81.940108 85.01736 
L 84.994279 86.14224 
L 88.04845 85.90488 
L 91.102621 86.328 
L 94.156793 86.24544 
L 97.210964 85.72944 
L 100.265135 85.7088 
L 103.319306 86.40024 
L 106.373477 85.09992 
L 109.427648 86.02872 
L 112.48182 84.78 
L 115.535991 83.53128 
L 118.590162 82.83984 
L 121.644333 82.03488 
L 124.698504 79.39296 
L 127.752675 79.66128 
L 130.806847 82.15872 
L 133.861018 82.43736 
L 136.915189 82.93272 
L 139.96936 83.00496 
L 143.023531 82.6128 
L 146.077702 82.28256 
L 149.131874 78.01008 
L 152.186045 76.19376 
L 155.240216 77.66952 
L 158.294387 77.74176 
L 161.348558 78.1752 
L 164.402729 79.5684 
L 167.456901 80.8068 
L 170.511072 85.20312 
L 173.565243 84.12984 
L 176.619414 84.03696 
L 179.673585 84.06792 
L 182.727756 84.3156 
L 185.781928 87.02976 
L 188.836099 85.21344 
L 191.89027 84.28464 
L 194.944441 84.32592 
L 197.998612 89.08344 
L 201.052783 89.5272 
L 204.106955 95.14128 
L 207.161126 96.98856 
L 210.215297 95.08968 
L 212.793703 97.71096 
L 215.220815 99.80592 
L 218.273431 101.79768 
L 221.314523 100.03296 
L 224.438508 100.518 
L 227.467476 99.98136 
L 230.539074 100.49736 
L 233.586918 100.78632 
L 236.630095 101.07528 
L 239.683347 101.26104 
L 242.700791 100.63152 
L 245.593805 100.38384 
L 248.843881 100.84824 
L 251.514407 100.65216 
L 254.947381 101.034 
L 257.99784 101.19912 
L 261.03416 101.10624 
L 264.069667 100.97208 
L 267.158728 100.91016 
L 270.22209 101.7564 
L 273.018247 101.84928 
L 276.319438 101.56032 
L 279.36 100.85856 
" clip-path="url(#pe6f841d489)" style="fill: none; stroke: #f5841e; stroke-width: 0.6"/>
   </g>
  </g>
 </g>
 <defs>
  <clipPath id="pe6f841d489">
   <rect x="8.64" y="4.8" width="270.72" height="103.2"/>
  </clipPath>
 </defs>
</svg>
