<?xml version="1.0" encoding="utf-8" standalone="no"?>
<!DOCTYPE svg PUBLIC "-//W3C//DTD SVG 1.1//EN"
  "http://www.w3.org/Graphics/SVG/1.1/DTD/svg11.dtd">
<svg xmlns:xlink="http://www.w3.org/1999/xlink" width="288pt" height="120pt" viewBox="0 0 288 120" xmlns="http://www.w3.org/2000/svg" version="1.1">
<desc id="nav-meta">{"window":"3m","count":4,"labels":["06.12","05.01","04.02","06.03"],"tick_utc":["2025-12-06T12:00:00Z","2026-01-05T12:00:00Z","2026-02-04T08:15:41Z","2026-03-06T03:16:38Z"],"w":720,"h":300}</desc>

 <metadata>
  <rdf:RDF xmlns:dc="http://purl.org/dc/elements/1.1/" xmlns:cc="http://creativecommons.org/ns#" xmlns:rdf="http://www.w3.org/1999/02/22-rdf-syntax-ns#">
   <cc:Work>
    <dc:type rdf:resource="http://purl.org/dc/dcmitype/StillImage"/>
    <dc:date>2026-03-06T03:16:40.724034</dc:date>
    <dc:format>image/svg+xml</dc:format>
    <dc:creator>
     <cc:Agent>
      <dc:title>Matplotlib v3.10.8, https://matplotlib.org/</dc:title>
     </cc:Agent>
    </dc:creator>
   </cc:Work>
  </rdf:RDF>
 </metadata>
 <defs>
  <style type="text/css">*{stroke-linejoin: round; stroke-linecap: butt}</style>
 </defs>
 <g id="figure_1">
  <g id="patch_1">
   <path d="M 0 120 
L 288 120 
L 288 0 
L 0 0 
L 0 120 
z
" style="fill: none; opacity: 0"/>
  </g>
  <g id="axes_1">
   <g id="patch_2">
    <path d="M 8.64 108 
L 279.36 108 
L 279.36 4.8 
L 8.64 4.8 
L 8.64 108 
z
" style="fill: none"/>
   </g>
   <g id="matplotlib.axis_1"/>
   <g id="matplotlib.axis_2"/>
   <g id="line2d_1">
    <path d="M 8.64 87.36 
L 279.36 87.36 
" clip-path="url(#p55b11e7b63)" style="fill: none; stroke: #b2b2b2; stroke-opacity: 0.35; stroke-width: 0.5; stroke-linecap: square"/>
   </g>
   <g id="line2d_2">
    <path d="M 8.64 66.72 
L 279.36 66.72 
" clip-path="url(#p55b11e7b63)" style="fill: none; stroke: #b2b2b2; stroke-opacity: 0.35; stroke-width: 0.5; stroke-linecap: square"/>
   </g>
   <g id="line2d_3">
    <path d="M 8.64 46.08 
L 279.36 46.08 
" clip-path="url(#p55b11e7b63)" style="fill: none; stroke: #b2b2b2; stroke-opacity: 0.35; stroke-width: 0.5; stroke-linecap: square"/>
   </g>
   <g id="line2d_4">
    <path d="M 8.64 25.44 
L 279.36 25.44 
" clip-path="url(#p55b11e7b63)" style="fill: none; stroke: #b2b2b2; stroke-opacity: 0.35; stroke-width: 0.5; stroke-linecap: square"/>
   </g>
   <g id="line2d_5">
    <path d="M 8.64 90.11544 
L 11.660197 90.38376 
L 14.680393 90.53856 
L 17.70059 90.08448 
L 20.720786 88.79448 
L 23.740983 89.20728 
L 26.761179 89.22792 
L 29.781376 90.31152 
L 32.801572 90.10512 
L 35.821769 91.09584 
L 38.841965 91.61184 
L 41.862162 91.31256 
L 44.882358 92.87088 
L 47.902555 93.8616 
L 50.922751 92.02464 
L 53.942948 92.13816 
L 56.963144 92.07624 
L 59.983341 92.14848 
L 63.003538 92.64384 
L 66.023734 93.01536 
L 69.043931 93.69648 
L 72.064127 93.11856 
L 75.084324 92.44776 
L 78.10452 92.30328 
L 81.124717 92.87088 
L 84.144913 92.38584 
L 87.16511 92.47872 
L 90.185306 91.88016 
L 93.205503 90.42504 
L 96.225699 90.08448 
L 99.245896 89.92968 
L 102.266092 88.76352 
L 105.286289 87.94824 
L 108.306485 89.2692 
L 111.326682 88.72224 
L 114.346879 89.39304 
L 117.367075 89.40336 
L 120.387272 88.41264 
L 123.407468 88.4952 
L 126.427665 86.86464 
L 129.447861 86.42088 
L 132.468058 87.62832 
L 135.488254 86.93688 
L 138.508451 87.23616 
L 141.528647 88.63968 
L 144.548844 90.0432 
L 147.56904 92.12784 
L 150.589237 91.16808 
L 153.609433 91.46736 
L 156.62963 91.73568 
L 159.649826 91.78728 
L 162.670023 94.0164 
L 165.69022 92.5716 
L 168.710416 91.76664 
L 171.730613 92.33424 
L 174.750809 94.36728 
L 177.771006 94.46016 
L 180.791202 97.71096 
L 183.811399 98.48496 
L 186.831595 97.85544 
L 189.381319 99.10416 
L 191.781432 100.16712 
L 194.80009 102.23112 
L 197.807353 100.54896 
L 200.896588 100.70376 
L 203.89186 100.68312 
L 206.92929 100.95144 
L 209.94323 101.28168 
L 212.952555 101.71512 
L 215.971843 101.84928 
L 218.95572 101.034 
L 221.816552 100.54896 
L 225.030475 101.04432 
L 227.671294 100.81728 
L 231.066079 101.034 
L 234.082605 101.4984 
L 237.085149 101.33328 
L 240.086888 101.1372 
L 243.141586 101.06496 
L 246.170872 102.09696 
L 248.935924 102.05568 
L 252.200393 101.4984 
L 255.207132 100.60056 
L 258.221596 100.80696 
L 261.206207 101.45712 
L 264.295022 100.55928 
L 267.284038 101.10624 
L 270.31126 100.8792 
L 273.314538 100.74504 
L 276.341237 100.21872 
L 279.36 100.53864 
" clip-path="url(#p55b11e7b63)" style="fill: none; stroke: #bebebe; stroke-width: 0.5; stroke-linecap: round"/>
   </g>
   <g id="line2d_6">
    <path d="M 8.64 74.72832 
L 11.660197 74.48064 
L 14.680393 74.28456 
L 17.70059 73.21128 
L 20.720786 70.2804 
L 23.740983 70.2288 
L 26.761179 71.56008 
L 29.781376 73.79952 
L 32.801572 73.35576 
L 35.821769 74.0988 
L 38.841965 75.5952 
L 41.862162 75.5952 
L 44.882358 77.61792 
L 47.902555 77.63856 
L 50.922751 75.40944 
L 53.942948 75.40944 
L 56.963144 75.04824 
L 59.983341 74.98632 
L 63.003538 75.58488 
L 66.023734 75.87384 
L 69.043931 76.49304 
L 72.064127 76.15248 
L 75.084324 75.82224 
L 78.10452 75.84288 
L 81.124717 76.03896 
L 84.144913 75.51264 
L 87.16511 75.56424 
L 90.185306 75.05856 
L 93.205503 73.26288 
L 96.225699 73.20096 
L 99.245896 73.00488 
L 102.266092 71.68392 
L 105.286289 70.6932 
L 108.306485 72.62304 
L 111.326682 73.52088 
L 114.346879 73.83048 
L 117.367075 73.8408 
L 120.387272 73.29384 
L 123.407468 73.72728 
L 126.427665 70.32168 
L 129.447861 69.77472 
L 132.468058 70.34232 
L 135.488254 70.67256 
L 138.508451 70.51776 
L 141.528647 70.848 
L 144.548844 72.31344 
L 147.56904 76.01832 
L 150.589237 75.41976 
L 153.609433 75.83256 
L 156.62963 75.79128 
L 159.649826 75.82224 
L 162.670023 77.82432 
L 165.69022 76.14216 
L 168.710416 74.75928 
L 171.730613 74.96568 
L 174.750809 77.75208 
L 177.771006 79.48584 
L 180.791202 83.31456 
L 183.811399 85.90488 
L 186.831595 84.79032 
L 189.381319 85.84296 
L 191.781432 88.25784 
L 194.80009 91.41576 
L 197.807353 88.7532 
L 200.896588 88.65 
L 203.89186 88.55712 
L 206.92929 88.96992 
L 209.94323 89.7336 
L 212.952555 90.456 
L 215.971843 90.56952 
L 218.95572 89.15568 
L 221.816552 88.9596 
L 225.030475 90.6624 
L 227.671294 89.94 
L 231.066079 90.00192 
L 234.082605 90.3528 
L 237.085149 90.62112 
L 240.086888 90.5076 
L 243.141586 90.3528 
L 246.170872 92.004 
L 248.935924 92.13816 
L 252.200393 91.25064 
L 255.207132 89.166 
L 258.221596 89.56848 
L 261.206207 90.93072 
L 264.295022 89.41368 
L 267.284038 90.37344 
L 270.31126 89.79552 
L 273.314538 90.23928 
L 276.341237 88.0824 
L 279.36 88.7532 
" clip-path="url(#p55b11e7b63)" style="fill: none; stroke: #4a8dff; stroke-width: 0.6"/>
   </g>
   <g id="line2d_7">
    <path d="M 8.64 84.17112 
L 11.660197 84.24336 
L 14.680393 83.29392 
L 17.70059 82.8192 
L 20.720786 80.64168 
L 23.740983 81.38472 
L 26.761179 80.87904 
L 29.781376 83.13912 
L 32.801572 83.19072 
L 35.821769 85.296 
L 38.841965 87.17424 
L 41.862162 85.71912 
L 44.882358 87.53544 
L 47.902555 88.17528 
L 50.922751 85.41984 
L 53.942948 85.17216 
L 56.963144 84.9348 
L 59.983341 85.01736 
L 63.003538 86.14224 
L 66.023734 85.90488 
L 69.043931 86.328 
L 72.064127 86.24544 
L 75.084324 85.72944 
L 78.10452 85.7088 
L 81.124717 86.40024 
L 84.144913 85.09992 
L 87.16511 86.02872 
L 90.185306 84.78 
L 93.205503 83.53128 
L 96.225699 82.83984 
L 99.245896 82.03488 
L 102.266092 79.39296 
L 105.286289 79.66128 
L 108.306485 82.15872 
L 111.326682 82.43736 
L 114.346879 82.93272 
L 117.367075 83.00496 
L 120.387272 82.6128 
L 123.407468 82.28256 
L 126.427665 78.01008 
L 129.447861 76.19376 
L 132.468058 77.66952 
L 135.488254 77.74176 
L 138.508451 78.1752 
L 141.528647 79.5684 
L 144.548844 80.8068 
L 147.56904 85.20312 
L 150.589237 84.12984 
L 153.609433 84.03696 
L 156.62963 84.06792 
L 159.649826 84.3156 
L 162.670023 87.02976 
L 165.69022 85.21344 
L 168.710416 84.28464 
L 171.730613 84.32592 
L 174.750809 89.08344 
L 177.771006 89.5272 
L 180.791202 95.14128 
L 183.811399 96.98856 
L 186.831595 95.08968 
L 189.381319 97.71096 
L 191.781432 99.80592 
L 194.80009 101.79768 
L 197.807353 100.03296 
L 200.896588 100.518 
L 203.89186 99.98136 
L 206.92929 100.49736 
L 209.94323 100.78632 
L 212.952555 101.07528 
L 215.971843 101.26104 
L 218.95572 100.63152 
L 221.816552 100.38384 
L 225.030475 100.84824 
L 227.671294 100.65216 
L 231.066079 101.034 
L 234.082605 101.19912 
L 237.085149 101.10624 
L 240.086888 100.97208 
L 243.141586 100.91016 
L 246.170872 101.7564 
L 248.935924 101.84928 
L 252.200393 101.56032 
L 255.207132 100.85856 
L 258.221596 101.12688 
L 261.206207 101.4468 
L 264.295022 101.02368 
L 267.284038 101.30232 
L 270.31126 100.81728 
L 273.314538 100.79664 
L 276.341237 99.3312 
L 279.36 99.92976 
" clip-path="url(#p55b11e7b63)" style="fill: none; stroke: #f5841e; stroke-width: 0.6"/>
   </g>
  </g>
 </g>
 <defs>
  <clipPath id="p55b11e7b63">
   <rect x="8.64" y="4.8" width="270.72" height="103.2"/>
  </clipPath>
 </defs>
</svg>
