<?xml version="1.0" encoding="utf-8" standalone="no"?>
<!DOCTYPE svg PUBLIC "-//W3C//DTD SVG 1.1//EN"
  "http://www.w3.org/Graphics/SVG/1.1/DTD/svg11.dtd">
<svg xmlns:xlink="http://www.w3.org/1999/xlink" width="288pt" height="120pt" viewBox="0 0 288 120" xmlns="http://www.w3.org/2000/svg" version="1.1">
<desc id="nav-meta">{"window":"3m","count":4,"labels":["16.03","15.04","14.05","13.06"],"tick_utc":["2026-03-16T03:46:39Z","2026-04-15T03:52:26Z","2026-05-14T04:32:13Z","2026-06-13T05:09:20Z"],"w":720,"h":300}</desc>

 <metadata>
  <rdf:RDF xmlns:dc="http://purl.org/dc/elements/1.1/" xmlns:cc="http://creativecommons.org/ns#" xmlns:rdf="http://www.w3.org/1999/02/22-rdf-syntax-ns#">
   <cc:Work>
    <dc:type rdf:resource="http://purl.org/dc/dcmitype/StillImage"/>
    <dc:date>2026-06-13T14:52:55.526382</dc:date>
    <dc:format>image/svg+xml</dc:format>
    <dc:creator>
     <cc:Agent>
      <dc:title>Matplotlib v3.11.0, https://matplotlib.org/</dc:title>
     </cc:Agent>
    </dc:creator>
   </cc:Work>
  </rdf:RDF>
 </metadata>
 <defs>
  <style type="text/css">*{stroke-linejoin: round; stroke-linecap: butt}</style>
 </defs>
 <g id="figure_1">
  <g id="patch_1">
   <path d="M 0 120 
L 288 120 
L 288 0 
L 0 0 
L 0 120 
z
" style="fill: none; opacity: 0"/>
  </g>
  <g id="axes_1">
   <g id="patch_2">
    <path d="M 8.64 108 
L 279.36 108 
L 279.36 4.8 
L 8.64 4.8 
L 8.64 108 
z
" style="fill: none"/>
   </g>
   <g id="matplotlib.axis_1"/>
   <g id="matplotlib.axis_2"/>
   <g id="line2d_1">
    <path d="M 8.64 87.36 
L 279.36 87.36 
" clip-path="url(#p0568b14cf8)" style="fill: none; stroke: #b2b2b2; stroke-opacity: 0.35; stroke-width: 0.5; stroke-linecap: square"/>
   </g>
   <g id="line2d_2">
    <path d="M 8.64 66.72 
L 279.36 66.72 
" clip-path="url(#p0568b14cf8)" style="fill: none; stroke: #b2b2b2; stroke-opacity: 0.35; stroke-width: 0.5; stroke-linecap: square"/>
   </g>
   <g id="line2d_3">
    <path d="M 8.64 46.08 
L 279.36 46.08 
" clip-path="url(#p0568b14cf8)" style="fill: none; stroke: #b2b2b2; stroke-opacity: 0.35; stroke-width: 0.5; stroke-linecap: square"/>
   </g>
   <g id="line2d_4">
    <path d="M 8.64 25.44 
L 279.36 25.44 
" clip-path="url(#p0568b14cf8)" style="fill: none; stroke: #b2b2b2; stroke-opacity: 0.35; stroke-width: 0.5; stroke-linecap: square"/>
   </g>
   <g id="line2d_5">
    <path d="M 8.64 99.76464 
L 11.626639 99.49632 
L 14.689662 99.40344 
L 17.730343 100.09488 
L 20.74059 100.3632 
L 23.762624 100.19808 
L 26.847917 100.47672 
L 29.894896 100.79664 
L 32.906586 100.26 
L 36.172827 99.83688 
L 39.023237 100.13616 
L 42.066909 100.80696 
L 45.077684 101.38488 
L 48.158931 101.3436 
L 51.207458 101.292 
L 54.22812 101.28168 
L 57.294027 101.28168 
L 60.293825 101.8596 
L 63.337145 101.88024 
L 66.350946 101.72544 
L 69.436556 101.68416 
L 72.484238 101.47776 
L 75.504337 101.78736 
L 78.549099 101.09592 
L 81.578346 101.46744 
L 84.646153 101.3436 
L 87.639512 101.05464 
L 90.733883 101.3952 
L 93.789306 101.47776 
L 96.809792 100.86888 
L 99.847306 101.26104 
L 102.900301 100.99272 
L 105.933945 100.61088 
L 108.940252 100.44576 
L 112.020233 100.94112 
L 115.067599 101.09592 
L 118.094101 101.00304 
L 121.124508 100.69344 
L 124.176659 100.9308 
L 127.224553 100.92048 
L 130.228115 100.81728 
L 133.315238 100.8792 
L 136.387831 100.64184 
L 139.434035 101.1888 
L 142.465569 101.09592 
L 145.510507 101.37456 
L 148.583556 101.21976 
L 151.545814 101.20944 
L 154.647362 101.23008 
L 157.686143 100.92048 
L 160.659026 101.06496 
L 163.752411 100.70376 
L 166.793057 100.55928 
L 169.7823 100.53864 
L 172.833255 99.60984 
L 175.934345 99.72336 
L 178.998177 99.44472 
L 181.995793 99.25896 
L 185.05009 99.32088 
L 188.086549 100.22904 
L 191.141374 100.01232 
L 194.142403 100.43544 
L 197.227626 100.75536 
L 200.296982 101.02368 
L 203.31504 101.02368 
L 206.365748 101.17848 
L 209.422895 100.7244 
L 212.43944 100.75536 
L 215.437514 101.11656 
L 218.525482 100.91016 
L 221.605322 100.89984 
L 224.599103 101.1372 
L 227.670147 101.2404 
L 230.700273 101.6532 
L 233.742362 101.4984 
L 236.73836 101.48808 
L 239.84026 101.32296 
L 242.925061 101.51904 
L 245.934991 101.7048 
L 249.009026 102.54072 
L 252.038448 103.08768 
L 255.028219 103.36632 
L 258.021332 104.22288 
L 261.126504 103.85136 
L 264.179781 103.68624 
L 267.1616 103.43856 
L 270.232961 103.81008 
L 273.290636 103.72752 
L 276.342399 103.50048 
L 279.36 103.5108 
" clip-path="url(#p0568b14cf8)" style="fill: none; stroke: #bebebe; stroke-width: 0.5; stroke-linecap: round"/>
   </g>
   <g id="line2d_6">
    <path d="M 8.64 86.38992 
L 11.626639 84.80064 
L 14.689662 84.8316 
L 17.730343 86.586 
L 20.74059 87.74184 
L 23.762624 87.618 
L 26.847917 88.19592 
L 29.894896 89.08344 
L 32.906586 87.89664 
L 36.172827 87.3084 
L 39.023237 87.65928 
L 42.066909 88.96992 
L 45.077684 90.07416 
L 48.158931 89.76456 
L 51.207458 89.3724 
L 54.22812 89.00088 
L 57.294027 88.42296 
L 60.293825 88.81512 
L 63.337145 89.10408 
L 66.350946 89.14536 
L 69.436556 89.07312 
L 72.484238 87.9792 
L 75.504337 88.29912 
L 78.549099 86.38992 
L 81.578346 87.24648 
L 84.646153 87.1536 
L 87.639512 86.21448 
L 90.733883 86.66856 
L 93.789306 87.01944 
L 96.809792 84.44976 
L 99.847306 85.05864 
L 102.900301 84.58392 
L 105.933945 85.04832 
L 108.940252 83.71704 
L 112.020233 84.86256 
L 115.067599 85.6572 
L 118.094101 85.27536 
L 121.124508 84.49104 
L 124.176659 84.86256 
L 127.224553 85.32696 
L 130.228115 85.17216 
L 133.315238 85.31664 
L 136.387831 84.11952 
L 139.434035 85.66752 
L 142.465569 85.26504 
L 145.510507 86.26608 
L 148.583556 85.77072 
L 151.545814 85.38888 
L 154.647362 85.3992 
L 157.686143 84.09888 
L 160.659026 84.22272 
L 163.752411 84.34656 
L 166.793057 85.06896 
L 169.7823 85.7604 
L 172.833255 85.0896 
L 175.934345 85.01736 
L 178.998177 84.9348 
L 181.995793 85.296 
L 185.05009 85.35792 
L 188.086549 86.1732 
L 191.141374 85.92552 
L 194.142403 86.55504 
L 197.227626 87.13296 
L 200.296982 88.10304 
L 203.31504 87.9276 
L 206.365748 88.26816 
L 209.422895 87.78312 
L 212.43944 87.95856 
L 215.437514 88.94928 
L 218.525482 88.14432 
L 221.605322 88.33008 
L 224.599103 88.52616 
L 227.670147 88.86672 
L 230.700273 90.22896 
L 233.742362 89.82648 
L 236.73836 89.87808 
L 239.84026 89.46528 
L 242.925061 90.0432 
L 245.934991 89.96064 
L 249.009026 91.99368 
L 252.038448 93.05664 
L 255.028219 93.74808 
L 258.021332 97.02984 
L 261.126504 95.93592 
L 264.179781 95.07936 
L 267.1616 94.46016 
L 270.232961 95.47152 
L 273.290636 95.11032 
L 276.342399 94.82136 
L 279.36 94.8936 
" clip-path="url(#p0568b14cf8)" style="fill: none; stroke: #4a8dff; stroke-width: 0.6"/>
   </g>
   <g id="line2d_7">
    <path d="M 8.64 98.93904 
L 11.626639 98.3508 
L 14.689662 98.52624 
L 17.730343 99.78528 
L 20.74059 100.12584 
L 23.762624 100.03296 
L 26.847917 100.45608 
L 29.894896 100.83792 
L 32.906586 100.11552 
L 36.172827 99.87816 
L 39.023237 100.002 
L 42.066909 100.64184 
L 45.077684 101.41584 
L 48.158931 101.21976 
L 51.207458 101.14752 
L 54.22812 101.00304 
L 57.294027 100.86888 
L 60.293825 101.21976 
L 63.337145 101.28168 
L 66.350946 101.20944 
L 69.436556 101.14752 
L 72.484238 100.55928 
L 75.504337 100.65216 
L 78.549099 99.80592 
L 81.578346 99.96072 
L 84.646153 99.6408 
L 87.639512 99.1764 
L 90.733883 99.70272 
L 93.789306 99.94008 
L 96.809792 98.57784 
L 99.847306 98.65008 
L 102.900301 98.38176 
L 105.933945 98.48496 
L 108.940252 96.70992 
L 112.020233 98.05152 
L 115.067599 98.48496 
L 118.094101 97.96896 
L 121.124508 96.32808 
L 124.176659 96.20424 
L 127.224553 96.16296 
L 130.228115 96.1836 
L 133.315238 96.50352 
L 136.387831 94.76976 
L 139.434035 97.19496 
L 142.465569 96.9576 
L 145.510507 97.9896 
L 148.583556 96.89568 
L 151.545814 95.45088 
L 154.647362 95.67792 
L 157.686143 93.43848 
L 160.659026 92.90184 
L 163.752411 92.25168 
L 166.793057 92.87088 
L 169.7823 94.2744 
L 172.833255 93.1392 
L 175.934345 92.97408 
L 178.998177 92.9844 
L 181.995793 92.60256 
L 185.05009 92.53032 
L 188.086549 94.54272 
L 191.141374 92.85024 
L 194.142403 94.82136 
L 197.227626 95.75016 
L 200.296982 96.97824 
L 203.31504 97.08144 
L 206.365748 97.23624 
L 209.422895 95.94624 
L 212.43944 96.30744 
L 215.437514 98.08248 
L 218.525482 97.2672 
L 221.605322 96.61704 
L 224.599103 97.23624 
L 227.670147 98.08248 
L 230.700273 99.18672 
L 233.742362 99.03192 
L 236.73836 99.1248 
L 239.84026 98.74296 
L 242.925061 99.09384 
L 245.934991 100.0536 
L 249.009026 101.23008 
L 252.038448 101.99376 
L 255.028219 102.08664 
L 258.021332 102.8916 
L 261.126504 102.45816 
L 264.179781 102.28272 
L 267.1616 102.10728 
L 270.232961 102.582 
L 273.290636 102.29304 
L 276.342399 102.08664 
L 279.36 102.066 
" clip-path="url(#p0568b14cf8)" style="fill: none; stroke: #f5841e; stroke-width: 0.6"/>
   </g>
  </g>
 </g>
 <defs>
  <clipPath id="p0568b14cf8">
   <rect x="8.64" y="4.8" width="270.72" height="103.2"/>
  </clipPath>
 </defs>
</svg>
