<?xml version="1.0" encoding="utf-8" standalone="no"?>
<!DOCTYPE svg PUBLIC "-//W3C//DTD SVG 1.1//EN"
  "http://www.w3.org/Graphics/SVG/1.1/DTD/svg11.dtd">
<svg xmlns:xlink="http://www.w3.org/1999/xlink" width="288pt" height="120pt" viewBox="0 0 288 120" xmlns="http://www.w3.org/2000/svg" version="1.1">
<desc id="nav-meta">{"window":"1m","count":4,"labels":["14.03","24.03","02.04","12.04"],"tick_utc":["2026-03-14T03:15:02Z","2026-03-24T03:21:58Z","2026-04-02T03:35:34Z","2026-04-12T03:55:19Z"],"w":720,"h":300}</desc>

 <metadata>
  <rdf:RDF xmlns:dc="http://purl.org/dc/elements/1.1/" xmlns:cc="http://creativecommons.org/ns#" xmlns:rdf="http://www.w3.org/1999/02/22-rdf-syntax-ns#">
   <cc:Work>
    <dc:type rdf:resource="http://purl.org/dc/dcmitype/StillImage"/>
    <dc:date>2026-04-12T19:27:34.054345</dc:date>
    <dc:format>image/svg+xml</dc:format>
    <dc:creator>
     <cc:Agent>
      <dc:title>Matplotlib v3.10.8, https://matplotlib.org/</dc:title>
     </cc:Agent>
    </dc:creator>
   </cc:Work>
  </rdf:RDF>
 </metadata>
 <defs>
  <style type="text/css">*{stroke-linejoin: round; stroke-linecap: butt}</style>
 </defs>
 <g id="figure_1">
  <g id="patch_1">
   <path d="M 0 120 
L 288 120 
L 288 0 
L 0 0 
L 0 120 
z
" style="fill: none; opacity: 0"/>
  </g>
  <g id="axes_1">
   <g id="patch_2">
    <path d="M 8.64 108 
L 279.36 108 
L 279.36 4.8 
L 8.64 4.8 
L 8.64 108 
z
" style="fill: none"/>
   </g>
   <g id="matplotlib.axis_1"/>
   <g id="matplotlib.axis_2"/>
   <g id="line2d_1">
    <path d="M 8.64 87.36 
L 279.36 87.36 
" clip-path="url(#p82a13ea24f)" style="fill: none; stroke: #b2b2b2; stroke-opacity: 0.35; stroke-width: 0.5; stroke-linecap: square"/>
   </g>
   <g id="line2d_2">
    <path d="M 8.64 66.72 
L 279.36 66.72 
" clip-path="url(#p82a13ea24f)" style="fill: none; stroke: #b2b2b2; stroke-opacity: 0.35; stroke-width: 0.5; stroke-linecap: square"/>
   </g>
   <g id="line2d_3">
    <path d="M 8.64 46.08 
L 279.36 46.08 
" clip-path="url(#p82a13ea24f)" style="fill: none; stroke: #b2b2b2; stroke-opacity: 0.35; stroke-width: 0.5; stroke-linecap: square"/>
   </g>
   <g id="line2d_4">
    <path d="M 8.64 25.44 
L 279.36 25.44 
" clip-path="url(#p82a13ea24f)" style="fill: none; stroke: #b2b2b2; stroke-opacity: 0.35; stroke-width: 0.5; stroke-linecap: square"/>
   </g>
   <g id="line2d_5">
    <path d="M 8.64 100.50768 
L 18.144604 100.60056 
L 27.497118 99.76464 
L 36.660086 99.49632 
L 46.057395 99.40344 
L 55.386162 100.09488 
L 64.621559 100.3632 
L 73.893116 100.19808 
L 83.358753 100.47672 
L 92.706841 100.79664 
L 101.946664 100.26 
L 111.967446 99.83688 
L 120.712463 100.13616 
L 130.050405 100.80696 
L 139.287421 101.38488 
L 148.740644 101.3436 
L 158.093482 101.292 
L 167.36083 101.28168 
L 176.766991 101.28168 
L 185.970329 101.8596 
L 195.307191 101.88024 
L 204.55349 101.72544 
L 214.020098 101.68416 
L 223.370345 101.47776 
L 232.635966 101.78736 
L 241.977254 101.09592 
L 251.270939 101.46744 
L 260.682929 101.3436 
L 269.866514 101.05464 
L 279.36 101.3952 
" clip-path="url(#p82a13ea24f)" style="fill: none; stroke: #bebebe; stroke-width: 0.5; stroke-linecap: round"/>
   </g>
   <g id="line2d_6">
    <path d="M 8.64 88.45392 
L 18.144604 88.46424 
L 27.497118 86.38992 
L 36.660086 84.80064 
L 46.057395 84.8316 
L 55.386162 86.586 
L 64.621559 87.74184 
L 73.893116 87.618 
L 83.358753 88.19592 
L 92.706841 89.08344 
L 101.946664 87.89664 
L 111.967446 87.3084 
L 120.712463 87.65928 
L 130.050405 88.96992 
L 139.287421 90.07416 
L 148.740644 89.76456 
L 158.093482 89.3724 
L 167.36083 89.00088 
L 176.766991 88.42296 
L 185.970329 88.81512 
L 195.307191 89.10408 
L 204.55349 89.14536 
L 214.020098 89.07312 
L 223.370345 87.9792 
L 232.635966 88.29912 
L 241.977254 86.38992 
L 251.270939 87.24648 
L 260.682929 87.1536 
L 269.866514 86.21448 
L 279.36 86.66856 
" clip-path="url(#p82a13ea24f)" style="fill: none; stroke: #4a8dff; stroke-width: 0.6"/>
   </g>
   <g id="line2d_7">
    <path d="M 8.64 99.94008 
L 18.144604 99.81624 
L 27.497118 98.93904 
L 36.660086 98.3508 
L 46.057395 98.52624 
L 55.386162 99.78528 
L 64.621559 100.12584 
L 73.893116 100.03296 
L 83.358753 100.45608 
L 92.706841 100.83792 
L 101.946664 100.11552 
L 111.967446 99.87816 
L 120.712463 100.002 
L 130.050405 100.64184 
L 139.287421 101.41584 
L 148.740644 101.21976 
L 158.093482 101.14752 
L 167.36083 101.00304 
L 176.766991 100.86888 
L 185.970329 101.21976 
L 195.307191 101.28168 
L 204.55349 101.20944 
L 214.020098 101.14752 
L 223.370345 100.55928 
L 232.635966 100.65216 
L 241.977254 99.80592 
L 251.270939 99.96072 
L 260.682929 99.6408 
L 269.866514 99.1764 
L 279.36 99.70272 
" clip-path="url(#p82a13ea24f)" style="fill: none; stroke: #f5841e; stroke-width: 0.6"/>
   </g>
  </g>
 </g>
 <defs>
  <clipPath id="p82a13ea24f">
   <rect x="8.64" y="4.8" width="270.72" height="103.2"/>
  </clipPath>
 </defs>
</svg>
