<?xml version="1.0" encoding="utf-8" standalone="no"?>
<!DOCTYPE svg PUBLIC "-//W3C//DTD SVG 1.1//EN"
  "http://www.w3.org/Graphics/SVG/1.1/DTD/svg11.dtd">
<svg xmlns:xlink="http://www.w3.org/1999/xlink" width="288pt" height="120pt" viewBox="0 0 288 120" xmlns="http://www.w3.org/2000/svg" version="1.1">
<desc id="nav-meta">{"window":"1m","count":4,"labels":["11.02","21.02","02.03","12.03"],"tick_utc":["2026-02-11T03:39:24Z","2026-02-21T03:11:36Z","2026-03-02T03:18:56Z","2026-03-12T03:19:44Z"],"w":720,"h":300}</desc>

 <metadata>
  <rdf:RDF xmlns:dc="http://purl.org/dc/elements/1.1/" xmlns:cc="http://creativecommons.org/ns#" xmlns:rdf="http://www.w3.org/1999/02/22-rdf-syntax-ns#">
   <cc:Work>
    <dc:type rdf:resource="http://purl.org/dc/dcmitype/StillImage"/>
    <dc:date>2026-03-12T13:48:09.529387</dc:date>
    <dc:format>image/svg+xml</dc:format>
    <dc:creator>
     <cc:Agent>
      <dc:title>Matplotlib v3.10.8, https://matplotlib.org/</dc:title>
     </cc:Agent>
    </dc:creator>
   </cc:Work>
  </rdf:RDF>
 </metadata>
 <defs>
  <style type="text/css">*{stroke-linejoin: round; stroke-linecap: butt}</style>
 </defs>
 <g id="figure_1">
  <g id="patch_1">
   <path d="M 0 120 
L 288 120 
L 288 0 
L 0 0 
L 0 120 
z
" style="fill: none; opacity: 0"/>
  </g>
  <g id="axes_1">
   <g id="patch_2">
    <path d="M 8.64 108 
L 279.36 108 
L 279.36 4.8 
L 8.64 4.8 
L 8.64 108 
z
" style="fill: none"/>
   </g>
   <g id="matplotlib.axis_1"/>
   <g id="matplotlib.axis_2"/>
   <g id="line2d_1">
    <path d="M 8.64 87.36 
L 279.36 87.36 
" clip-path="url(#p4b8c80065c)" style="fill: none; stroke: #b2b2b2; stroke-opacity: 0.35; stroke-width: 0.5; stroke-linecap: square"/>
   </g>
   <g id="line2d_2">
    <path d="M 8.64 66.72 
L 279.36 66.72 
" clip-path="url(#p4b8c80065c)" style="fill: none; stroke: #b2b2b2; stroke-opacity: 0.35; stroke-width: 0.5; stroke-linecap: square"/>
   </g>
   <g id="line2d_3">
    <path d="M 8.64 46.08 
L 279.36 46.08 
" clip-path="url(#p4b8c80065c)" style="fill: none; stroke: #b2b2b2; stroke-opacity: 0.35; stroke-width: 0.5; stroke-linecap: square"/>
   </g>
   <g id="line2d_4">
    <path d="M 8.64 25.44 
L 279.36 25.44 
" clip-path="url(#p4b8c80065c)" style="fill: none; stroke: #b2b2b2; stroke-opacity: 0.35; stroke-width: 0.5; stroke-linecap: square"/>
   </g>
   <g id="line2d_5">
    <path d="M 8.64 101.28168 
L 17.945953 101.71512 
L 27.282713 101.84928 
L 36.509971 101.034 
L 45.356728 100.54896 
L 55.295372 101.04432 
L 63.461767 100.81728 
L 73.959705 101.034 
L 83.287925 101.4984 
L 92.572907 101.33328 
L 101.855403 101.1372 
L 111.301665 101.06496 
L 120.669341 102.09696 
L 129.219913 102.05568 
L 139.314865 101.4984 
L 148.612818 100.60056 
L 157.934661 100.80696 
L 167.16419 101.45712 
L 176.715955 100.55928 
L 185.959103 101.10624 
L 195.320401 100.8792 
L 204.607653 100.74504 
L 213.96733 100.21872 
L 223.302469 100.53864 
L 232.570372 101.07528 
L 242.000636 101.38488 
L 251.368204 101.26104 
L 260.647781 100.78632 
L 269.983676 100.91016 
L 279.36 100.99272 
" clip-path="url(#p4b8c80065c)" style="fill: none; stroke: #bebebe; stroke-width: 0.5; stroke-linecap: round"/>
   </g>
   <g id="line2d_6">
    <path d="M 8.64 89.7336 
L 17.945953 90.456 
L 27.282713 90.56952 
L 36.509971 89.15568 
L 45.356728 88.9596 
L 55.295372 90.6624 
L 63.461767 89.94 
L 73.959705 90.00192 
L 83.287925 90.3528 
L 92.572907 90.62112 
L 101.855403 90.5076 
L 111.301665 90.3528 
L 120.669341 92.004 
L 129.219913 92.13816 
L 139.314865 91.25064 
L 148.612818 89.166 
L 157.934661 89.56848 
L 167.16419 90.93072 
L 176.715955 89.41368 
L 185.959103 90.37344 
L 195.320401 89.79552 
L 204.607653 90.23928 
L 213.96733 88.0824 
L 223.302469 88.7532 
L 232.570372 90.16704 
L 242.000636 90.67272 
L 251.368204 90.18768 
L 260.647781 89.2692 
L 269.983676 89.54784 
L 279.36 89.49624 
" clip-path="url(#p4b8c80065c)" style="fill: none; stroke: #4a8dff; stroke-width: 0.6"/>
   </g>
   <g id="line2d_7">
    <path d="M 8.64 100.78632 
L 17.945953 101.07528 
L 27.282713 101.26104 
L 36.509971 100.63152 
L 45.356728 100.38384 
L 55.295372 100.84824 
L 63.461767 100.65216 
L 73.959705 101.034 
L 83.287925 101.19912 
L 92.572907 101.10624 
L 101.855403 100.97208 
L 111.301665 100.91016 
L 120.669341 101.7564 
L 129.219913 101.84928 
L 139.314865 101.56032 
L 148.612818 100.85856 
L 157.934661 101.12688 
L 167.16419 101.4468 
L 176.715955 101.02368 
L 185.959103 101.30232 
L 195.320401 100.81728 
L 204.607653 100.79664 
L 213.96733 99.3312 
L 223.302469 99.92976 
L 232.570372 100.78632 
L 242.000636 101.17848 
L 251.368204 101.1372 
L 260.647781 100.21872 
L 269.983676 100.37352 
L 279.36 100.4664 
" clip-path="url(#p4b8c80065c)" style="fill: none; stroke: #f5841e; stroke-width: 0.6"/>
   </g>
  </g>
 </g>
 <defs>
  <clipPath id="p4b8c80065c">
   <rect x="8.64" y="4.8" width="270.72" height="103.2"/>
  </clipPath>
 </defs>
</svg>
