<?xml version="1.0" encoding="utf-8" standalone="no"?>
<!DOCTYPE svg PUBLIC "-//W3C//DTD SVG 1.1//EN"
  "http://www.w3.org/Graphics/SVG/1.1/DTD/svg11.dtd">
<svg xmlns:xlink="http://www.w3.org/1999/xlink" width="288pt" height="120pt" viewBox="0 0 288 120" xmlns="http://www.w3.org/2000/svg" version="1.1">
<desc id="nav-meta">{"window":"3m","count":4,"labels":["04.01","03.02","05.03","04.04"],"tick_utc":["2026-01-04T12:00:00Z","2026-02-03T12:00:00Z","2026-03-05T03:17:19Z","2026-04-04T03:24:53Z"],"w":720,"h":300}</desc>

 <metadata>
  <rdf:RDF xmlns:dc="http://purl.org/dc/elements/1.1/" xmlns:cc="http://creativecommons.org/ns#" xmlns:rdf="http://www.w3.org/1999/02/22-rdf-syntax-ns#">
   <cc:Work>
    <dc:type rdf:resource="http://purl.org/dc/dcmitype/StillImage"/>
    <dc:date>2026-04-04T07:36:13.336848</dc:date>
    <dc:format>image/svg+xml</dc:format>
    <dc:creator>
     <cc:Agent>
      <dc:title>Matplotlib v3.10.8, https://matplotlib.org/</dc:title>
     </cc:Agent>
    </dc:creator>
   </cc:Work>
  </rdf:RDF>
 </metadata>
 <defs>
  <style type="text/css">*{stroke-linejoin: round; stroke-linecap: butt}</style>
 </defs>
 <g id="figure_1">
  <g id="patch_1">
   <path d="M 0 120 
L 288 120 
L 288 0 
L 0 0 
L 0 120 
z
" style="fill: none; opacity: 0"/>
  </g>
  <g id="axes_1">
   <g id="patch_2">
    <path d="M 8.64 108 
L 279.36 108 
L 279.36 4.8 
L 8.64 4.8 
L 8.64 108 
z
" style="fill: none"/>
   </g>
   <g id="matplotlib.axis_1"/>
   <g id="matplotlib.axis_2"/>
   <g id="line2d_1">
    <path d="M 8.64 87.36 
L 279.36 87.36 
" clip-path="url(#p06f68d95a5)" style="fill: none; stroke: #b2b2b2; stroke-opacity: 0.35; stroke-width: 0.5; stroke-linecap: square"/>
   </g>
   <g id="line2d_2">
    <path d="M 8.64 66.72 
L 279.36 66.72 
" clip-path="url(#p06f68d95a5)" style="fill: none; stroke: #b2b2b2; stroke-opacity: 0.35; stroke-width: 0.5; stroke-linecap: square"/>
   </g>
   <g id="line2d_3">
    <path d="M 8.64 46.08 
L 279.36 46.08 
" clip-path="url(#p06f68d95a5)" style="fill: none; stroke: #b2b2b2; stroke-opacity: 0.35; stroke-width: 0.5; stroke-linecap: square"/>
   </g>
   <g id="line2d_4">
    <path d="M 8.64 25.44 
L 279.36 25.44 
" clip-path="url(#p06f68d95a5)" style="fill: none; stroke: #b2b2b2; stroke-opacity: 0.35; stroke-width: 0.5; stroke-linecap: square"/>
   </g>
   <g id="line2d_5">
    <path d="M 8.64 90.08448 
L 11.660004 89.92968 
L 14.680007 88.76352 
L 17.700011 87.94824 
L 20.720014 89.2692 
L 23.740018 88.72224 
L 26.760021 89.39304 
L 29.780025 89.40336 
L 32.800028 88.41264 
L 35.820032 88.4952 
L 38.840035 86.86464 
L 41.860039 86.42088 
L 44.880042 87.62832 
L 47.900046 86.93688 
L 50.920049 87.23616 
L 53.940053 88.63968 
L 56.960056 90.0432 
L 59.98006 92.12784 
L 63.000063 91.16808 
L 66.020067 91.46736 
L 69.04007 91.73568 
L 72.060074 91.78728 
L 75.080077 94.0164 
L 78.100081 92.5716 
L 81.120084 91.76664 
L 84.140088 92.33424 
L 87.160091 94.36728 
L 90.180095 94.46016 
L 93.200098 97.71096 
L 96.220102 98.48496 
L 99.240105 97.85544 
L 101.789666 99.10416 
L 104.189625 100.16712 
L 107.208091 102.23112 
L 110.215161 100.54896 
L 113.304199 100.70376 
L 116.29928 100.68312 
L 119.336516 100.95144 
L 122.350262 101.28168 
L 125.359395 101.71512 
L 128.37849 101.84928 
L 131.362177 101.034 
L 134.222826 100.54896 
L 137.436543 101.04432 
L 140.077194 100.81728 
L 143.471762 101.034 
L 146.488095 101.4984 
L 149.490447 101.33328 
L 152.491995 101.1372 
L 155.546498 101.06496 
L 158.575589 102.09696 
L 161.340465 102.05568 
L 164.604725 101.4984 
L 167.611272 100.60056 
L 170.625543 100.80696 
L 173.609963 101.45712 
L 176.698581 100.55928 
L 179.687406 101.10624 
L 182.714435 100.8792 
L 185.717521 100.74504 
L 188.744026 100.21872 
L 191.762596 100.53864 
L 194.759425 101.07528 
L 197.808755 101.38488 
L 200.837812 101.26104 
L 203.838416 100.78632 
L 206.857231 100.91016 
L 209.889119 100.99272 
L 212.903285 100.38384 
L 215.919269 100.50768 
L 218.997051 100.60056 
L 222.025583 99.76464 
L 224.992736 99.49632 
L 228.035774 99.40344 
L 231.056617 100.09488 
L 234.047224 100.3632 
L 237.049541 100.19808 
L 240.114705 100.47672 
L 243.141804 100.79664 
L 246.133845 100.26 
L 249.378775 99.83688 
L 252.210588 100.13616 
L 255.234401 100.80696 
L 258.225533 101.38488 
L 261.286677 101.3436 
L 264.315314 101.292 
L 267.316268 101.28168 
L 270.362172 101.28168 
L 273.342398 101.8596 
L 276.365862 101.88024 
L 279.36 101.72544 
" clip-path="url(#p06f68d95a5)" style="fill: none; stroke: #bebebe; stroke-width: 0.5; stroke-linecap: round"/>
   </g>
   <g id="line2d_6">
    <path d="M 8.64 73.20096 
L 11.660004 73.00488 
L 14.680007 71.68392 
L 17.700011 70.6932 
L 20.720014 72.62304 
L 23.740018 73.52088 
L 26.760021 73.83048 
L 29.780025 73.8408 
L 32.800028 73.29384 
L 35.820032 73.72728 
L 38.840035 70.32168 
L 41.860039 69.77472 
L 44.880042 70.34232 
L 47.900046 70.67256 
L 50.920049 70.51776 
L 53.940053 70.848 
L 56.960056 72.31344 
L 59.98006 76.01832 
L 63.000063 75.41976 
L 66.020067 75.83256 
L 69.04007 75.79128 
L 72.060074 75.82224 
L 75.080077 77.82432 
L 78.100081 76.14216 
L 81.120084 74.75928 
L 84.140088 74.96568 
L 87.160091 77.75208 
L 90.180095 79.48584 
L 93.200098 83.31456 
L 96.220102 85.90488 
L 99.240105 84.79032 
L 101.789666 85.84296 
L 104.189625 88.25784 
L 107.208091 91.41576 
L 110.215161 88.7532 
L 113.304199 88.65 
L 116.29928 88.55712 
L 119.336516 88.96992 
L 122.350262 89.7336 
L 125.359395 90.456 
L 128.37849 90.56952 
L 131.362177 89.15568 
L 134.222826 88.9596 
L 137.436543 90.6624 
L 140.077194 89.94 
L 143.471762 90.00192 
L 146.488095 90.3528 
L 149.490447 90.62112 
L 152.491995 90.5076 
L 155.546498 90.3528 
L 158.575589 92.004 
L 161.340465 92.13816 
L 164.604725 91.25064 
L 167.611272 89.166 
L 170.625543 89.56848 
L 173.609963 90.93072 
L 176.698581 89.41368 
L 179.687406 90.37344 
L 182.714435 89.79552 
L 185.717521 90.23928 
L 188.744026 88.0824 
L 191.762596 88.7532 
L 194.759425 90.16704 
L 197.808755 90.67272 
L 200.837812 90.18768 
L 203.838416 89.2692 
L 206.857231 89.54784 
L 209.889119 89.49624 
L 212.903285 88.31976 
L 215.919269 88.45392 
L 218.997051 88.46424 
L 222.025583 86.38992 
L 224.992736 84.80064 
L 228.035774 84.8316 
L 231.056617 86.586 
L 234.047224 87.74184 
L 237.049541 87.618 
L 240.114705 88.19592 
L 243.141804 89.08344 
L 246.133845 87.89664 
L 249.378775 87.3084 
L 252.210588 87.65928 
L 255.234401 88.96992 
L 258.225533 90.07416 
L 261.286677 89.76456 
L 264.315314 89.3724 
L 267.316268 89.00088 
L 270.362172 88.42296 
L 273.342398 88.81512 
L 276.365862 89.10408 
L 279.36 89.14536 
" clip-path="url(#p06f68d95a5)" style="fill: none; stroke: #4a8dff; stroke-width: 0.6"/>
   </g>
   <g id="line2d_7">
    <path d="M 8.64 82.83984 
L 11.660004 82.03488 
L 14.680007 79.39296 
L 17.700011 79.66128 
L 20.720014 82.15872 
L 23.740018 82.43736 
L 26.760021 82.93272 
L 29.780025 83.00496 
L 32.800028 82.6128 
L 35.820032 82.28256 
L 38.840035 78.01008 
L 41.860039 76.19376 
L 44.880042 77.66952 
L 47.900046 77.74176 
L 50.920049 78.1752 
L 53.940053 79.5684 
L 56.960056 80.8068 
L 59.98006 85.20312 
L 63.000063 84.12984 
L 66.020067 84.03696 
L 69.04007 84.06792 
L 72.060074 84.3156 
L 75.080077 87.02976 
L 78.100081 85.21344 
L 81.120084 84.28464 
L 84.140088 84.32592 
L 87.160091 89.08344 
L 90.180095 89.5272 
L 93.200098 95.14128 
L 96.220102 96.98856 
L 99.240105 95.08968 
L 101.789666 97.71096 
L 104.189625 99.80592 
L 107.208091 101.79768 
L 110.215161 100.03296 
L 113.304199 100.518 
L 116.29928 99.98136 
L 119.336516 100.49736 
L 122.350262 100.78632 
L 125.359395 101.07528 
L 128.37849 101.26104 
L 131.362177 100.63152 
L 134.222826 100.38384 
L 137.436543 100.84824 
L 140.077194 100.65216 
L 143.471762 101.034 
L 146.488095 101.19912 
L 149.490447 101.10624 
L 152.491995 100.97208 
L 155.546498 100.91016 
L 158.575589 101.7564 
L 161.340465 101.84928 
L 164.604725 101.56032 
L 167.611272 100.85856 
L 170.625543 101.12688 
L 173.609963 101.4468 
L 176.698581 101.02368 
L 179.687406 101.30232 
L 182.714435 100.81728 
L 185.717521 100.79664 
L 188.744026 99.3312 
L 191.762596 99.92976 
L 194.759425 100.78632 
L 197.808755 101.17848 
L 200.837812 101.1372 
L 203.838416 100.21872 
L 206.857231 100.37352 
L 209.889119 100.4664 
L 212.903285 99.88848 
L 215.919269 99.94008 
L 218.997051 99.81624 
L 222.025583 98.93904 
L 224.992736 98.3508 
L 228.035774 98.52624 
L 231.056617 99.78528 
L 234.047224 100.12584 
L 237.049541 100.03296 
L 240.114705 100.45608 
L 243.141804 100.83792 
L 246.133845 100.11552 
L 249.378775 99.87816 
L 252.210588 100.002 
L 255.234401 100.64184 
L 258.225533 101.41584 
L 261.286677 101.21976 
L 264.315314 101.14752 
L 267.316268 101.00304 
L 270.362172 100.86888 
L 273.342398 101.21976 
L 276.365862 101.28168 
L 279.36 101.20944 
" clip-path="url(#p06f68d95a5)" style="fill: none; stroke: #f5841e; stroke-width: 0.6"/>
   </g>
  </g>
 </g>
 <defs>
  <clipPath id="p06f68d95a5">
   <rect x="8.64" y="4.8" width="270.72" height="103.2"/>
  </clipPath>
 </defs>
</svg>
