<?xml version="1.0" encoding="utf-8" standalone="no"?>
<!DOCTYPE svg PUBLIC "-//W3C//DTD SVG 1.1//EN"
  "http://www.w3.org/Graphics/SVG/1.1/DTD/svg11.dtd">
<svg xmlns:xlink="http://www.w3.org/1999/xlink" width="288pt" height="120pt" viewBox="0 0 288 120" xmlns="http://www.w3.org/2000/svg" version="1.1">
<desc id="nav-meta">{"window":"1m","count":4,"labels":["27.01","06.02","16.02","26.02"],"tick_utc":["2026-01-27T12:00:00Z","2026-02-06T03:19:18Z","2026-02-16T03:32:51Z","2026-02-26T03:20:47Z"],"w":720,"h":300}</desc>

 <metadata>
  <rdf:RDF xmlns:dc="http://purl.org/dc/elements/1.1/" xmlns:cc="http://creativecommons.org/ns#" xmlns:rdf="http://www.w3.org/1999/02/22-rdf-syntax-ns#">
   <cc:Work>
    <dc:type rdf:resource="http://purl.org/dc/dcmitype/StillImage"/>
    <dc:date>2026-02-26T03:20:49.683643</dc:date>
    <dc:format>image/svg+xml</dc:format>
    <dc:creator>
     <cc:Agent>
      <dc:title>Matplotlib v3.10.8, https://matplotlib.org/</dc:title>
     </cc:Agent>
    </dc:creator>
   </cc:Work>
  </rdf:RDF>
 </metadata>
 <defs>
  <style type="text/css">*{stroke-linejoin: round; stroke-linecap: butt}</style>
 </defs>
 <g id="figure_1">
  <g id="patch_1">
   <path d="M 0 120 
L 288 120 
L 288 0 
L 0 0 
L 0 120 
z
" style="fill: none; opacity: 0"/>
  </g>
  <g id="axes_1">
   <g id="patch_2">
    <path d="M 8.64 108 
L 279.36 108 
L 279.36 4.8 
L 8.64 4.8 
L 8.64 108 
z
" style="fill: none"/>
   </g>
   <g id="matplotlib.axis_1"/>
   <g id="matplotlib.axis_2"/>
   <g id="line2d_1">
    <path d="M 8.64 87.36 
L 279.36 87.36 
" clip-path="url(#p2af7be45f2)" style="fill: none; stroke: #b2b2b2; stroke-opacity: 0.35; stroke-width: 0.5; stroke-linecap: square"/>
   </g>
   <g id="line2d_2">
    <path d="M 8.64 66.72 
L 279.36 66.72 
" clip-path="url(#p2af7be45f2)" style="fill: none; stroke: #b2b2b2; stroke-opacity: 0.35; stroke-width: 0.5; stroke-linecap: square"/>
   </g>
   <g id="line2d_3">
    <path d="M 8.64 46.08 
L 279.36 46.08 
" clip-path="url(#p2af7be45f2)" style="fill: none; stroke: #b2b2b2; stroke-opacity: 0.35; stroke-width: 0.5; stroke-linecap: square"/>
   </g>
   <g id="line2d_4">
    <path d="M 8.64 25.44 
L 279.36 25.44 
" clip-path="url(#p2af7be45f2)" style="fill: none; stroke: #b2b2b2; stroke-opacity: 0.35; stroke-width: 0.5; stroke-linecap: square"/>
   </g>
   <g id="line2d_5">
    <path d="M 8.64 92.5716 
L 17.773778 91.76664 
L 26.907556 92.33424 
L 36.041334 94.36728 
L 45.175112 94.46016 
L 54.30889 97.71096 
L 63.442668 98.48496 
L 72.576446 97.85544 
L 80.287406 99.10416 
L 87.545905 100.16712 
L 96.675031 102.23112 
L 105.769695 100.54896 
L 115.11226 100.70376 
L 124.170663 100.68312 
L 133.356559 100.95144 
L 142.471414 101.28168 
L 151.572314 101.71512 
L 160.703344 101.84928 
L 169.727284 101.034 
L 178.379107 100.54896 
L 188.098758 101.04432 
L 196.08521 100.81728 
L 206.351831 101.034 
L 215.474509 101.4984 
L 224.554901 101.33328 
L 233.632861 101.1372 
L 242.87098 101.06496 
L 252.032244 102.09696 
L 260.394408 102.05568 
L 270.266922 101.4984 
L 279.36 100.60056 
" clip-path="url(#p2af7be45f2)" style="fill: none; stroke: #bebebe; stroke-width: 0.5; stroke-linecap: round"/>
   </g>
   <g id="line2d_6">
    <path d="M 8.64 76.14216 
L 17.773778 74.75928 
L 26.907556 74.96568 
L 36.041334 77.75208 
L 45.175112 79.48584 
L 54.30889 83.31456 
L 63.442668 85.90488 
L 72.576446 84.79032 
L 80.287406 85.84296 
L 87.545905 88.25784 
L 96.675031 91.41576 
L 105.769695 88.7532 
L 115.11226 88.65 
L 124.170663 88.55712 
L 133.356559 88.96992 
L 142.471414 89.7336 
L 151.572314 90.456 
L 160.703344 90.56952 
L 169.727284 89.15568 
L 178.379107 88.9596 
L 188.098758 90.6624 
L 196.08521 89.94 
L 206.351831 90.00192 
L 215.474509 90.3528 
L 224.554901 90.62112 
L 233.632861 90.5076 
L 242.87098 90.3528 
L 252.032244 92.004 
L 260.394408 92.13816 
L 270.266922 91.25064 
L 279.36 89.166 
" clip-path="url(#p2af7be45f2)" style="fill: none; stroke: #4a8dff; stroke-width: 0.6"/>
   </g>
   <g id="line2d_7">
    <path d="M 8.64 85.21344 
L 17.773778 84.28464 
L 26.907556 84.32592 
L 36.041334 89.08344 
L 45.175112 89.5272 
L 54.30889 95.14128 
L 63.442668 96.98856 
L 72.576446 95.08968 
L 80.287406 97.71096 
L 87.545905 99.80592 
L 96.675031 101.79768 
L 105.769695 100.03296 
L 115.11226 100.518 
L 124.170663 99.98136 
L 133.356559 100.49736 
L 142.471414 100.78632 
L 151.572314 101.07528 
L 160.703344 101.26104 
L 169.727284 100.63152 
L 178.379107 100.38384 
L 188.098758 100.84824 
L 196.08521 100.65216 
L 206.351831 101.034 
L 215.474509 101.19912 
L 224.554901 101.10624 
L 233.632861 100.97208 
L 242.87098 100.91016 
L 252.032244 101.7564 
L 260.394408 101.84928 
L 270.266922 101.56032 
L 279.36 100.85856 
" clip-path="url(#p2af7be45f2)" style="fill: none; stroke: #f5841e; stroke-width: 0.6"/>
   </g>
  </g>
 </g>
 <defs>
  <clipPath id="p2af7be45f2">
   <rect x="8.64" y="4.8" width="270.72" height="103.2"/>
  </clipPath>
 </defs>
</svg>
