<?xml version="1.0" encoding="utf-8" standalone="no"?>
<!DOCTYPE svg PUBLIC "-//W3C//DTD SVG 1.1//EN"
  "http://www.w3.org/Graphics/SVG/1.1/DTD/svg11.dtd">
<svg xmlns:xlink="http://www.w3.org/1999/xlink" width="288pt" height="120pt" viewBox="0 0 288 120" xmlns="http://www.w3.org/2000/svg" version="1.1">
<desc id="nav-meta">{"window":"3m","count":4,"labels":["15.02","17.03","15.04","15.05"],"tick_utc":["2026-02-15T02:00:29Z","2026-03-17T03:21:27Z","2026-04-15T03:52:26Z","2026-05-15T04:39:19Z"],"w":720,"h":300}</desc>

 <metadata>
  <rdf:RDF xmlns:dc="http://purl.org/dc/elements/1.1/" xmlns:cc="http://creativecommons.org/ns#" xmlns:rdf="http://www.w3.org/1999/02/22-rdf-syntax-ns#">
   <cc:Work>
    <dc:type rdf:resource="http://purl.org/dc/dcmitype/StillImage"/>
    <dc:date>2026-05-15T15:05:10.409240</dc:date>
    <dc:format>image/svg+xml</dc:format>
    <dc:creator>
     <cc:Agent>
      <dc:title>Matplotlib v3.10.9, https://matplotlib.org/</dc:title>
     </cc:Agent>
    </dc:creator>
   </cc:Work>
  </rdf:RDF>
 </metadata>
 <defs>
  <style type="text/css">*{stroke-linejoin: round; stroke-linecap: butt}</style>
 </defs>
 <g id="figure_1">
  <g id="patch_1">
   <path d="M 0 120 
L 288 120 
L 288 0 
L 0 0 
L 0 120 
z
" style="fill: none; opacity: 0"/>
  </g>
  <g id="axes_1">
   <g id="patch_2">
    <path d="M 8.64 108 
L 279.36 108 
L 279.36 4.8 
L 8.64 4.8 
L 8.64 108 
z
" style="fill: none"/>
   </g>
   <g id="matplotlib.axis_1"/>
   <g id="matplotlib.axis_2"/>
   <g id="line2d_1">
    <path d="M 8.64 87.36 
L 279.36 87.36 
" clip-path="url(#p4e2f14118a)" style="fill: none; stroke: #b2b2b2; stroke-opacity: 0.35; stroke-width: 0.5; stroke-linecap: square"/>
   </g>
   <g id="line2d_2">
    <path d="M 8.64 66.72 
L 279.36 66.72 
" clip-path="url(#p4e2f14118a)" style="fill: none; stroke: #b2b2b2; stroke-opacity: 0.35; stroke-width: 0.5; stroke-linecap: square"/>
   </g>
   <g id="line2d_3">
    <path d="M 8.64 46.08 
L 279.36 46.08 
" clip-path="url(#p4e2f14118a)" style="fill: none; stroke: #b2b2b2; stroke-opacity: 0.35; stroke-width: 0.5; stroke-linecap: square"/>
   </g>
   <g id="line2d_4">
    <path d="M 8.64 25.44 
L 279.36 25.44 
" clip-path="url(#p4e2f14118a)" style="fill: none; stroke: #b2b2b2; stroke-opacity: 0.35; stroke-width: 0.5; stroke-linecap: square"/>
   </g>
   <g id="line2d_5">
    <path d="M 8.64 100.54896 
L 11.872903 101.04432 
L 14.529318 100.81728 
L 17.944151 101.034 
L 20.978491 101.4984 
L 23.998767 101.33328 
L 27.018234 101.1372 
L 30.090972 101.06496 
L 33.138146 102.09696 
L 35.919529 102.05568 
L 39.203276 101.4984 
L 42.227771 100.60056 
L 45.260037 100.80696 
L 48.262274 101.45712 
L 51.369331 100.55928 
L 54.375999 101.10624 
L 57.421099 100.8792 
L 60.442113 100.74504 
L 63.486686 100.21872 
L 66.523277 100.53864 
L 69.537997 101.07528 
L 72.60553 101.38488 
L 75.65267 101.26104 
L 78.671188 100.78632 
L 81.708025 100.91016 
L 84.758013 100.99272 
L 87.790173 100.38384 
L 90.824162 100.50768 
L 93.920318 100.60056 
L 96.96693 99.76464 
L 99.951797 99.49632 
L 103.013002 99.40344 
L 106.051878 100.09488 
L 109.060339 100.3632 
L 112.08058 100.19808 
L 115.164042 100.47672 
L 118.209213 100.79664 
L 121.219116 100.26 
L 124.483418 99.83688 
L 127.332136 100.13616 
L 130.374002 100.80696 
L 133.38299 101.38488 
L 136.462409 101.3436 
L 139.509127 101.292 
L 142.527996 101.28168 
L 145.592084 101.28168 
L 148.590102 101.8596 
L 151.631615 101.88024 
L 154.643628 101.72544 
L 157.727407 101.68416 
L 160.77328 101.47776 
L 163.791587 101.78736 
L 166.834542 101.09592 
L 169.861991 101.46744 
L 172.927978 101.3436 
L 175.919561 101.05464 
L 179.012095 101.3952 
L 182.065705 101.47776 
L 185.084398 100.86888 
L 188.12011 101.26104 
L 191.171293 100.99272 
L 194.203137 100.61088 
L 197.20766 100.44576 
L 200.285813 100.94112 
L 203.33137 101.09592 
L 206.356076 101.00304 
L 209.384685 100.69344 
L 212.435025 100.9308 
L 215.48111 100.92048 
L 218.48289 100.81728 
L 221.568181 100.8792 
L 224.63895 100.64184 
L 227.683347 101.1888 
L 230.713081 101.09592 
L 233.756212 101.37456 
L 236.827438 101.21976 
L 239.787937 101.20944 
L 242.887645 101.23008 
L 245.924623 100.92048 
L 248.895741 101.06496 
L 251.987291 100.70376 
L 255.026132 100.55928 
L 258.013601 100.53864 
L 261.062745 99.60984 
L 264.161996 99.72336 
L 267.224009 99.44472 
L 270.219847 99.25896 
L 273.272331 99.32088 
L 276.306988 100.22904 
L 279.36 100.01232 
" clip-path="url(#p4e2f14118a)" style="fill: none; stroke: #bebebe; stroke-width: 0.5; stroke-linecap: round"/>
   </g>
   <g id="line2d_6">
    <path d="M 8.64 88.9596 
L 11.872903 90.6624 
L 14.529318 89.94 
L 17.944151 90.00192 
L 20.978491 90.3528 
L 23.998767 90.62112 
L 27.018234 90.5076 
L 30.090972 90.3528 
L 33.138146 92.004 
L 35.919529 92.13816 
L 39.203276 91.25064 
L 42.227771 89.166 
L 45.260037 89.56848 
L 48.262274 90.93072 
L 51.369331 89.41368 
L 54.375999 90.37344 
L 57.421099 89.79552 
L 60.442113 90.23928 
L 63.486686 88.0824 
L 66.523277 88.7532 
L 69.537997 90.16704 
L 72.60553 90.67272 
L 75.65267 90.18768 
L 78.671188 89.2692 
L 81.708025 89.54784 
L 84.758013 89.49624 
L 87.790173 88.31976 
L 90.824162 88.45392 
L 93.920318 88.46424 
L 96.96693 86.38992 
L 99.951797 84.80064 
L 103.013002 84.8316 
L 106.051878 86.586 
L 109.060339 87.74184 
L 112.08058 87.618 
L 115.164042 88.19592 
L 118.209213 89.08344 
L 121.219116 87.89664 
L 124.483418 87.3084 
L 127.332136 87.65928 
L 130.374002 88.96992 
L 133.38299 90.07416 
L 136.462409 89.76456 
L 139.509127 89.3724 
L 142.527996 89.00088 
L 145.592084 88.42296 
L 148.590102 88.81512 
L 151.631615 89.10408 
L 154.643628 89.14536 
L 157.727407 89.07312 
L 160.77328 87.9792 
L 163.791587 88.29912 
L 166.834542 86.38992 
L 169.861991 87.24648 
L 172.927978 87.1536 
L 175.919561 86.21448 
L 179.012095 86.66856 
L 182.065705 87.01944 
L 185.084398 84.44976 
L 188.12011 85.05864 
L 191.171293 84.58392 
L 194.203137 85.04832 
L 197.20766 83.71704 
L 200.285813 84.86256 
L 203.33137 85.6572 
L 206.356076 85.27536 
L 209.384685 84.49104 
L 212.435025 84.86256 
L 215.48111 85.32696 
L 218.48289 85.17216 
L 221.568181 85.31664 
L 224.63895 84.11952 
L 227.683347 85.66752 
L 230.713081 85.26504 
L 233.756212 86.26608 
L 236.827438 85.77072 
L 239.787937 85.38888 
L 242.887645 85.3992 
L 245.924623 84.09888 
L 248.895741 84.22272 
L 251.987291 84.34656 
L 255.026132 85.06896 
L 258.013601 85.7604 
L 261.062745 85.0896 
L 264.161996 85.01736 
L 267.224009 84.9348 
L 270.219847 85.296 
L 273.272331 85.35792 
L 276.306988 86.1732 
L 279.36 85.92552 
" clip-path="url(#p4e2f14118a)" style="fill: none; stroke: #4a8dff; stroke-width: 0.6"/>
   </g>
   <g id="line2d_7">
    <path d="M 8.64 100.38384 
L 11.872903 100.84824 
L 14.529318 100.65216 
L 17.944151 101.034 
L 20.978491 101.19912 
L 23.998767 101.10624 
L 27.018234 100.97208 
L 30.090972 100.91016 
L 33.138146 101.7564 
L 35.919529 101.84928 
L 39.203276 101.56032 
L 42.227771 100.85856 
L 45.260037 101.12688 
L 48.262274 101.4468 
L 51.369331 101.02368 
L 54.375999 101.30232 
L 57.421099 100.81728 
L 60.442113 100.79664 
L 63.486686 99.3312 
L 66.523277 99.92976 
L 69.537997 100.78632 
L 72.60553 101.17848 
L 75.65267 101.1372 
L 78.671188 100.21872 
L 81.708025 100.37352 
L 84.758013 100.4664 
L 87.790173 99.88848 
L 90.824162 99.94008 
L 93.920318 99.81624 
L 96.96693 98.93904 
L 99.951797 98.3508 
L 103.013002 98.52624 
L 106.051878 99.78528 
L 109.060339 100.12584 
L 112.08058 100.03296 
L 115.164042 100.45608 
L 118.209213 100.83792 
L 121.219116 100.11552 
L 124.483418 99.87816 
L 127.332136 100.002 
L 130.374002 100.64184 
L 133.38299 101.41584 
L 136.462409 101.21976 
L 139.509127 101.14752 
L 142.527996 101.00304 
L 145.592084 100.86888 
L 148.590102 101.21976 
L 151.631615 101.28168 
L 154.643628 101.20944 
L 157.727407 101.14752 
L 160.77328 100.55928 
L 163.791587 100.65216 
L 166.834542 99.80592 
L 169.861991 99.96072 
L 172.927978 99.6408 
L 175.919561 99.1764 
L 179.012095 99.70272 
L 182.065705 99.94008 
L 185.084398 98.57784 
L 188.12011 98.65008 
L 191.171293 98.38176 
L 194.203137 98.48496 
L 197.20766 96.70992 
L 200.285813 98.05152 
L 203.33137 98.48496 
L 206.356076 97.96896 
L 209.384685 96.32808 
L 212.435025 96.20424 
L 215.48111 96.16296 
L 218.48289 96.1836 
L 221.568181 96.50352 
L 224.63895 94.76976 
L 227.683347 97.19496 
L 230.713081 96.9576 
L 233.756212 97.9896 
L 236.827438 96.89568 
L 239.787937 95.45088 
L 242.887645 95.67792 
L 245.924623 93.43848 
L 248.895741 92.90184 
L 251.987291 92.25168 
L 255.026132 92.87088 
L 258.013601 94.2744 
L 261.062745 93.1392 
L 264.161996 92.97408 
L 267.224009 92.9844 
L 270.219847 92.60256 
L 273.272331 92.53032 
L 276.306988 94.54272 
L 279.36 92.85024 
" clip-path="url(#p4e2f14118a)" style="fill: none; stroke: #f5841e; stroke-width: 0.6"/>
   </g>
  </g>
 </g>
 <defs>
  <clipPath id="p4e2f14118a">
   <rect x="8.64" y="4.8" width="270.72" height="103.2"/>
  </clipPath>
 </defs>
</svg>
