<?xml version="1.0" encoding="utf-8" standalone="no"?>
<!DOCTYPE svg PUBLIC "-//W3C//DTD SVG 1.1//EN"
  "http://www.w3.org/Graphics/SVG/1.1/DTD/svg11.dtd">
<svg xmlns:xlink="http://www.w3.org/1999/xlink" width="288pt" height="120pt" viewBox="0 0 288 120" xmlns="http://www.w3.org/2000/svg" version="1.1">
<desc id="nav-meta">{"window":"1y","count":4,"labels":["08.04","07.08","06.12","07.04"],"tick_utc":["2025-04-08T12:00:00Z","2025-08-07T12:00:00Z","2025-12-06T12:00:00Z","2026-04-07T03:40:56Z"],"w":720,"h":300}</desc>

 <metadata>
  <rdf:RDF xmlns:dc="http://purl.org/dc/elements/1.1/" xmlns:cc="http://creativecommons.org/ns#" xmlns:rdf="http://www.w3.org/1999/02/22-rdf-syntax-ns#">
   <cc:Work>
    <dc:type rdf:resource="http://purl.org/dc/dcmitype/StillImage"/>
    <dc:date>2026-04-07T19:42:33.948308</dc:date>
    <dc:format>image/svg+xml</dc:format>
    <dc:creator>
     <cc:Agent>
      <dc:title>Matplotlib v3.10.8, https://matplotlib.org/</dc:title>
     </cc:Agent>
    </dc:creator>
   </cc:Work>
  </rdf:RDF>
 </metadata>
 <defs>
  <style type="text/css">*{stroke-linejoin: round; stroke-linecap: butt}</style>
 </defs>
 <g id="figure_1">
  <g id="patch_1">
   <path d="M 0 120 
L 288 120 
L 288 0 
L 0 0 
L 0 120 
z
" style="fill: none; opacity: 0"/>
  </g>
  <g id="axes_1">
   <g id="patch_2">
    <path d="M 8.64 108 
L 279.36 108 
L 279.36 4.8 
L 8.64 4.8 
L 8.64 108 
z
" style="fill: none"/>
   </g>
   <g id="matplotlib.axis_1"/>
   <g id="matplotlib.axis_2"/>
   <g id="line2d_1">
    <path d="M 8.64 87.36 
L 279.36 87.36 
" clip-path="url(#pb744cb91e3)" style="fill: none; stroke: #b2b2b2; stroke-opacity: 0.35; stroke-width: 0.5; stroke-linecap: square"/>
   </g>
   <g id="line2d_2">
    <path d="M 8.64 66.72 
L 279.36 66.72 
" clip-path="url(#pb744cb91e3)" style="fill: none; stroke: #b2b2b2; stroke-opacity: 0.35; stroke-width: 0.5; stroke-linecap: square"/>
   </g>
   <g id="line2d_3">
    <path d="M 8.64 46.08 
L 279.36 46.08 
" clip-path="url(#pb744cb91e3)" style="fill: none; stroke: #b2b2b2; stroke-opacity: 0.35; stroke-width: 0.5; stroke-linecap: square"/>
   </g>
   <g id="line2d_4">
    <path d="M 8.64 25.44 
L 279.36 25.44 
" clip-path="url(#pb744cb91e3)" style="fill: none; stroke: #b2b2b2; stroke-opacity: 0.35; stroke-width: 0.5; stroke-linecap: square"/>
   </g>
   <g id="line2d_5">
    <path d="M 8.64 97.32912 
L 9.384445 97.68 
L 10.12889 94.00608 
L 10.873335 95.65728 
L 11.61778 93.33528 
L 12.362225 90.39408 
L 13.10667 91.46736 
L 13.851115 91.14744 
L 14.595561 91.99368 
L 15.340006 90.57984 
L 16.084451 89.72328 
L 16.828896 89.89872 
L 17.573341 88.35072 
L 18.317786 88.89768 
L 19.062231 89.25888 
L 19.806676 85.84296 
L 20.551121 85.2444 
L 21.295566 84.8832 
L 23.528901 85.99776 
L 24.273346 86.07 
L 25.017792 86.4828 
L 25.762237 86.14224 
L 26.506682 85.31664 
L 27.251127 86.07 
L 27.995572 86.38992 
L 28.740017 87.16392 
L 29.484462 86.38992 
L 30.973352 86.28672 
L 31.717797 81.84912 
L 32.462242 79.32072 
L 33.206687 78.05136 
L 33.951132 79.26912 
L 34.695577 78.846 
L 35.440023 76.2144 
L 36.928913 80.394 
L 37.673358 80.66232 
L 38.417803 81.168 
L 39.162248 79.63032 
L 39.906693 80.95128 
L 40.651138 80.4972 
L 42.140028 77.43216 
L 42.884473 78.846 
L 43.628918 78.41256 
L 44.373363 78.64992 
L 45.117808 78.76344 
L 45.862253 78.25776 
L 46.606699 79.47552 
L 47.351144 80.92032 
L 48.095589 83.73768 
L 48.840034 83.6448 
L 49.584479 83.4384 
L 50.328924 83.61384 
L 51.073369 83.99568 
L 51.817814 84.55296 
L 52.562259 87.00912 
L 53.306704 85.98744 
L 54.051149 85.5024 
L 54.795594 84.8316 
L 55.540039 82.46832 
L 56.284484 81.426 
L 57.02893 82.5096 
L 57.773375 84.79032 
L 59.262265 86.95752 
L 60.00671 84.79032 
L 60.751155 85.13088 
L 61.4956 86.07 
L 62.240045 86.5344 
L 62.98449 86.31768 
L 64.47338 89.97096 
L 65.217825 90.48696 
L 65.96227 86.9472 
L 66.706715 86.66856 
L 67.451161 87.32904 
L 68.195606 88.53648 
L 68.940051 87.6696 
L 69.684496 85.30632 
L 70.428941 84.61488 
L 71.173386 84.17112 
L 71.917831 86.3796 
L 72.662276 84.92448 
L 73.406721 84.89352 
L 74.151166 86.13192 
L 74.895611 86.1732 
L 75.640056 84.99672 
L 76.384501 85.85328 
L 77.128946 85.01736 
L 77.873391 83.55192 
L 78.617837 81.7356 
L 79.362282 82.03488 
L 80.106727 82.65408 
L 81.595617 82.15872 
L 82.340062 81.70464 
L 83.084507 79.01112 
L 83.828952 78.39192 
L 84.573397 78.04104 
L 85.317842 78.16488 
L 86.062287 77.05032 
L 86.806732 72.82944 
L 87.551177 70.41456 
L 88.295622 74.69736 
L 89.040068 76.6272 
L 89.784513 75.63648 
L 90.528958 75.97704 
L 91.273403 74.976 
L 92.017848 76.49304 
L 92.762293 76.99872 
L 93.506738 77.90688 
L 94.251183 79.4652 
L 94.995628 82.02456 
L 95.740073 83.19072 
L 96.484518 82.27224 
L 97.228963 80.21856 
L 97.973408 81.67368 
L 98.717853 80.5488 
L 99.462299 78.588 
L 100.206744 78.19584 
L 100.951189 77.21544 
L 101.695634 76.524 
L 102.440079 78.68088 
L 103.184524 73.88208 
L 103.928969 71.364 
L 104.673414 73.8408 
L 105.417859 75.79128 
L 106.162304 74.65608 
L 106.906749 74.14008 
L 107.651194 76.50336 
L 108.395639 78.30936 
L 109.140084 75.3372 
L 109.884529 77.25672 
L 110.628975 71.78712 
L 111.37342 70.75512 
L 112.117865 70.24944 
L 112.86231 75.35784 
L 113.606755 72.95328 
L 114.3512 70.96152 
L 115.095645 67.87584 
L 115.84009 70.46616 
L 116.584535 71.11632 
L 117.32898 71.61168 
L 118.073425 72.7056 
L 118.81787 69.33096 
L 119.562315 68.9388 
L 120.30676 71.12664 
L 121.051206 70.90992 
L 121.795651 71.80776 
L 122.540096 70.074 
L 123.284541 68.01 
L 124.028986 67.10184 
L 124.773431 65.29584 
L 125.517876 64.01616 
L 126.262321 60.31128 
L 127.006766 60.19776 
L 127.751211 60.786 
L 128.495656 62.61264 
L 129.240101 61.74576 
L 129.984546 59.57856 
L 130.728991 58.86648 
L 131.473436 61.38456 
L 132.217882 61.07496 
L 132.962327 61.83864 
L 133.706772 66.29688 
L 134.451217 67.97904 
L 135.195662 68.69112 
L 135.940107 73.9956 
L 136.684552 70.45584 
L 137.428997 70.87896 
L 138.173442 68.91816 
L 138.917887 68.3196 
L 139.662332 69.47544 
L 141.151222 62.39592 
L 141.895667 62.81904 
L 142.640113 64.22256 
L 143.384558 64.05744 
L 144.129003 62.9532 
L 144.873448 66.14208 
L 145.617893 63.91296 
L 146.362338 66.17304 
L 147.106783 74.6148 
L 147.851228 77.78304 
L 148.595673 72.66432 
L 149.340118 69.69216 
L 150.084563 71.09568 
L 151.573453 76.06992 
L 152.317898 76.76136 
L 153.062344 75.25464 
L 153.806789 75.24432 
L 154.551234 74.63544 
L 155.295679 75.73968 
L 156.040124 77.31864 
L 156.784569 74.202 
L 157.529014 73.64472 
L 158.273459 73.48992 
L 159.017904 71.83872 
L 159.762349 72.17928 
L 160.506794 73.38672 
L 161.251239 73.43832 
L 161.995684 76.15248 
L 162.740129 75.3372 
L 163.484574 75.58488 
L 164.22902 75.35784 
L 164.973465 81.168 
L 165.71791 84.01632 
L 166.462355 82.06584 
L 167.2068 84.19176 
L 167.951245 82.27224 
L 168.69569 83.29392 
L 169.440135 81.62208 
L 170.18458 80.72424 
L 170.929025 84.33624 
L 171.67347 84.64584 
L 172.417915 86.844 
L 173.16236 88.52616 
L 173.906805 88.36104 
L 174.651251 88.93896 
L 175.395696 90.79656 
L 176.140141 88.09272 
L 176.884586 89.22792 
L 177.629031 90.00192 
L 178.373476 91.39512 
L 179.117921 91.63248 
L 179.862366 90.75528 
L 180.606811 88.7016 
L 181.351256 88.52616 
L 182.095701 87.45288 
L 182.840146 88.0308 
L 183.584591 88.94928 
L 185.073482 89.7336 
L 185.817927 91.86984 
L 186.562372 88.60872 
L 187.306817 86.87496 
L 188.795707 90.11544 
L 190.284597 90.53856 
L 191.029042 90.08448 
L 191.773487 88.79448 
L 192.517932 89.20728 
L 193.262377 89.22792 
L 194.006822 90.31152 
L 194.751267 90.10512 
L 195.495712 91.09584 
L 196.240158 91.61184 
L 196.984603 91.31256 
L 197.729048 92.87088 
L 198.473493 93.8616 
L 199.217938 92.02464 
L 199.962383 92.13816 
L 200.706828 92.07624 
L 201.451273 92.14848 
L 203.684608 93.69648 
L 205.173498 92.44776 
L 205.917943 92.30328 
L 206.662389 92.87088 
L 207.406834 92.38584 
L 208.151279 92.47872 
L 208.895724 91.88016 
L 209.640169 90.42504 
L 210.384614 90.08448 
L 211.129059 89.92968 
L 211.873504 88.76352 
L 212.617949 87.94824 
L 213.362394 89.2692 
L 214.106839 88.72224 
L 214.851284 89.39304 
L 215.595729 89.40336 
L 216.340174 88.41264 
L 217.08462 88.4952 
L 217.829065 86.86464 
L 218.57351 86.42088 
L 219.317955 87.62832 
L 220.0624 86.93688 
L 220.806845 87.23616 
L 222.295735 90.0432 
L 223.04018 92.12784 
L 223.784625 91.16808 
L 225.273515 91.73568 
L 226.01796 91.78728 
L 226.762405 94.0164 
L 227.50685 92.5716 
L 228.251296 91.76664 
L 228.995741 92.33424 
L 229.740186 94.36728 
L 230.484631 94.46016 
L 231.229076 97.71096 
L 231.973521 98.48496 
L 232.717966 97.85544 
L 233.938046 100.16712 
L 234.682112 102.23112 
L 235.423369 100.54896 
L 236.184831 100.70376 
L 236.923133 100.68312 
L 238.414728 101.28168 
L 239.156494 101.71512 
L 239.900715 101.84928 
L 240.636208 101.034 
L 241.341371 100.54896 
L 242.133568 101.04432 
L 242.7845 100.81728 
L 243.621277 101.034 
L 244.364818 101.4984 
L 246.597757 101.06496 
L 247.344442 102.09696 
L 248.025997 102.05568 
L 248.830652 101.4984 
L 249.57178 100.60056 
L 250.314812 100.80696 
L 251.050486 101.45712 
L 251.811845 100.55928 
L 252.548604 101.10624 
L 254.035056 100.74504 
L 254.781103 100.21872 
L 255.525195 100.53864 
L 256.263928 101.07528 
L 257.015602 101.38488 
L 257.762279 101.26104 
L 258.501942 100.78632 
L 259.993468 100.99272 
L 260.736474 100.38384 
L 262.238616 100.60056 
L 262.985164 99.76464 
L 263.716581 99.49632 
L 264.466704 99.40344 
L 265.211356 100.09488 
L 265.948555 100.3632 
L 266.68864 100.19808 
L 268.190412 100.79664 
L 268.927964 100.26 
L 269.727854 99.83688 
L 270.42591 100.13616 
L 271.908622 101.38488 
L 274.90036 101.28168 
L 275.635 101.8596 
L 276.380298 101.88024 
L 277.118367 101.72544 
L 277.874022 101.68416 
L 278.620389 101.47776 
L 279.36 101.78736 
L 279.36 101.78736 
" clip-path="url(#pb744cb91e3)" style="fill: none; stroke: #bebebe; stroke-width: 0.5; stroke-linecap: round"/>
   </g>
   <g id="line2d_6">
    <path d="M 8.64 96.4932 
L 9.384445 97.74192 
L 10.12889 94.91424 
L 10.873335 96.96792 
L 11.61778 96.31776 
L 12.362225 95.16192 
L 13.10667 95.90496 
L 13.851115 95.52312 
L 14.595561 96.01848 
L 15.340006 96.17328 
L 16.828896 95.99784 
L 17.573341 95.616 
L 18.317786 96.05976 
L 19.062231 96.17328 
L 19.806676 93.46944 
L 20.551121 92.96376 
L 21.295566 93.32496 
L 22.040011 93.036 
L 22.784456 92.56128 
L 23.528901 92.96376 
L 24.273346 92.8812 
L 25.762237 92.96376 
L 26.506682 92.29296 
L 27.251127 92.262 
L 27.995572 92.3652 
L 28.740017 92.74704 
L 29.484462 92.5716 
L 30.973352 92.71608 
L 31.717797 86.97816 
L 32.462242 84.84192 
L 33.206687 81.24024 
L 33.951132 82.37544 
L 34.695577 82.60248 
L 35.440023 79.86768 
L 36.928913 81.85944 
L 37.673358 81.82848 
L 38.417803 82.86048 
L 39.162248 83.00496 
L 39.906693 82.08648 
L 40.651138 82.12776 
L 41.395583 81.61176 
L 42.140028 80.15664 
L 42.884473 82.18968 
L 44.373363 81.79752 
L 45.117808 81.56016 
L 45.862253 80.0844 
L 46.606699 79.86768 
L 47.351144 80.50752 
L 48.095589 82.12776 
L 49.584479 81.92136 
L 50.328924 80.8584 
L 51.073369 81.07512 
L 51.817814 80.84808 
L 52.562259 83.6448 
L 53.306704 82.7676 
L 54.051149 82.0968 
L 54.795594 82.3548 
L 55.540039 79.74384 
L 56.284484 77.90688 
L 57.02893 78.39192 
L 57.773375 80.21856 
L 58.51782 81.34344 
L 59.262265 81.98328 
L 60.751155 81.5808 
L 61.4956 82.26192 
L 62.98449 82.15872 
L 63.728935 83.88216 
L 64.47338 85.89456 
L 65.217825 86.5344 
L 65.96227 83.61384 
L 66.706715 83.2836 
L 67.451161 83.71704 
L 68.195606 83.748 
L 69.684496 83.41776 
L 70.428941 82.44768 
L 71.173386 82.6644 
L 71.917831 83.89248 
L 72.662276 81.38472 
L 73.406721 81.14736 
L 74.151166 82.34448 
L 74.895611 82.23096 
L 75.640056 81.426 
L 76.384501 81.8388 
L 77.128946 80.76552 
L 78.617837 75.83256 
L 79.362282 75.67776 
L 80.106727 75.91512 
L 81.595617 74.88312 
L 82.340062 73.09776 
L 83.084507 69.6096 
L 83.828952 67.91712 
L 84.573397 66.94704 
L 85.317842 66.24528 
L 86.062287 63.80976 
L 86.806732 63.70656 
L 87.551177 63.9852 
L 88.295622 65.71896 
L 89.040068 64.5528 
L 90.528958 64.05744 
L 91.273403 62.25144 
L 92.017848 63.39696 
L 92.762293 63.366 
L 93.506738 63.08736 
L 94.251183 64.72824 
L 94.995628 67.89648 
L 95.740073 69.16584 
L 96.484518 67.69008 
L 97.228963 64.4496 
L 97.973408 65.97696 
L 98.717853 64.914 
L 99.462299 61.54968 
L 100.206744 60.04296 
L 100.951189 56.28648 
L 101.695634 56.47224 
L 102.440079 56.83344 
L 103.184524 51.22968 
L 103.928969 48.89736 
L 104.673414 52.00368 
L 105.417859 53.84064 
L 106.162304 53.90256 
L 106.906749 53.00472 
L 107.651194 55.5228 
L 108.395639 59.12448 
L 109.140084 55.32672 
L 109.884529 56.90568 
L 110.628975 47.92728 
L 111.37342 48.75288 
L 112.117865 48.68064 
L 112.86231 54.57336 
L 113.606755 51.2916 
L 114.3512 52.80864 
L 115.095645 52.69512 
L 115.84009 54.82104 
L 117.32898 54.45984 
L 118.073425 55.7292 
L 118.81787 55.39896 
L 119.562315 53.55168 
L 120.30676 55.81176 
L 121.051206 55.6776 
L 121.795651 56.18328 
L 122.540096 55.71888 
L 124.028986 55.63632 
L 124.773431 55.07904 
L 125.517876 53.41752 
L 126.262321 49.71264 
L 127.006766 50.32152 
L 127.751211 51.17808 
L 128.495656 52.44744 
L 129.240101 52.74672 
L 129.984546 51.4464 
L 130.728991 51.46704 
L 131.473436 53.2524 
L 132.217882 53.08728 
L 132.962327 53.5104 
L 133.706772 57.26688 
L 134.451217 57.76224 
L 135.195662 58.02024 
L 135.940107 62.26176 
L 136.684552 59.68176 
L 137.428997 59.9604 
L 138.173442 58.12344 
L 138.917887 57.02952 
L 139.662332 58.09248 
L 140.406777 55.13064 
L 141.151222 53.046 
L 141.895667 52.5816 
L 142.640113 52.9944 
L 143.384558 52.5816 
L 144.129003 50.0016 
L 144.873448 53.48976 
L 145.617893 52.40616 
L 146.362338 54.75912 
L 147.106783 62.67456 
L 147.851228 63.95424 
L 148.595673 57.86544 
L 149.340118 56.57544 
L 150.084563 58.31952 
L 150.829008 60.4764 
L 151.573453 61.85928 
L 152.317898 62.73648 
L 153.062344 61.8696 
L 153.806789 60.45576 
L 154.551234 60.54864 
L 155.295679 62.04504 
L 156.040124 63.16992 
L 156.784569 62.36496 
L 157.529014 61.21944 
L 158.273459 60.9408 
L 159.017904 57.83448 
L 159.762349 58.40208 
L 160.506794 60.49704 
L 161.995684 63.1596 
L 162.740129 62.49912 
L 163.484574 62.1276 
L 164.22902 61.56 
L 165.71791 70.66224 
L 166.462355 68.72208 
L 167.2068 70.4868 
L 167.951245 68.61888 
L 168.69569 69.11424 
L 169.440135 66.5136 
L 170.18458 66.68904 
L 170.929025 68.8872 
L 171.67347 68.9904 
L 172.417915 71.5704 
L 173.16236 73.48992 
L 173.906805 72.54048 
L 175.395696 74.74896 
L 176.140141 73.3248 
L 176.884586 74.80056 
L 177.629031 77.556 
L 178.373476 78.55704 
L 179.117921 78.50544 
L 179.862366 78.04104 
L 180.606811 75.76032 
L 181.351256 75.73968 
L 182.095701 74.65608 
L 182.840146 74.83152 
L 183.584591 74.57352 
L 184.329036 75.20304 
L 185.073482 75.17208 
L 185.817927 78.05136 
L 187.306817 72.16896 
L 188.051262 73.08744 
L 188.795707 74.72832 
L 190.284597 74.28456 
L 191.029042 73.21128 
L 191.773487 70.2804 
L 192.517932 70.2288 
L 193.262377 71.56008 
L 194.006822 73.79952 
L 194.751267 73.35576 
L 195.495712 74.0988 
L 196.240158 75.5952 
L 196.984603 75.5952 
L 197.729048 77.61792 
L 198.473493 77.63856 
L 199.217938 75.40944 
L 199.962383 75.40944 
L 200.706828 75.04824 
L 201.451273 74.98632 
L 202.195718 75.58488 
L 202.940163 75.87384 
L 203.684608 76.49304 
L 205.173498 75.82224 
L 205.917943 75.84288 
L 206.662389 76.03896 
L 207.406834 75.51264 
L 208.151279 75.56424 
L 208.895724 75.05856 
L 209.640169 73.26288 
L 210.384614 73.20096 
L 211.129059 73.00488 
L 211.873504 71.68392 
L 212.617949 70.6932 
L 213.362394 72.62304 
L 214.106839 73.52088 
L 214.851284 73.83048 
L 215.595729 73.8408 
L 216.340174 73.29384 
L 217.08462 73.72728 
L 217.829065 70.32168 
L 218.57351 69.77472 
L 219.317955 70.34232 
L 220.0624 70.67256 
L 220.806845 70.51776 
L 221.55129 70.848 
L 222.295735 72.31344 
L 223.04018 76.01832 
L 223.784625 75.41976 
L 224.52907 75.83256 
L 226.01796 75.82224 
L 226.762405 77.82432 
L 227.50685 76.14216 
L 228.251296 74.75928 
L 228.995741 74.96568 
L 229.740186 77.75208 
L 230.484631 79.48584 
L 231.229076 83.31456 
L 231.973521 85.90488 
L 232.717966 84.79032 
L 233.346445 85.84296 
L 234.682112 91.41576 
L 235.423369 88.7532 
L 236.923133 88.55712 
L 237.671826 88.96992 
L 239.156494 90.456 
L 239.900715 90.56952 
L 240.636208 89.15568 
L 241.341371 88.9596 
L 242.133568 90.6624 
L 242.7845 89.94 
L 243.621277 90.00192 
L 245.104912 90.62112 
L 246.597757 90.3528 
L 247.344442 92.004 
L 248.025997 92.13816 
L 248.830652 91.25064 
L 249.57178 89.166 
L 250.314812 89.56848 
L 251.050486 90.93072 
L 251.811845 89.41368 
L 252.548604 90.37344 
L 253.294781 89.79552 
L 254.035056 90.23928 
L 254.781103 88.0824 
L 255.525195 88.7532 
L 256.263928 90.16704 
L 257.015602 90.67272 
L 257.762279 90.18768 
L 258.501942 89.2692 
L 259.246094 89.54784 
L 259.993468 89.49624 
L 260.736474 88.31976 
L 261.479929 88.45392 
L 262.238616 88.46424 
L 262.985164 86.38992 
L 263.716581 84.80064 
L 264.466704 84.8316 
L 265.211356 86.586 
L 265.948555 87.74184 
L 266.68864 87.618 
L 267.444217 88.19592 
L 268.190412 89.08344 
L 268.927964 87.89664 
L 269.727854 87.3084 
L 270.42591 87.65928 
L 271.908622 90.07416 
L 273.409782 89.3724 
L 274.149531 89.00088 
L 274.90036 88.42296 
L 276.380298 89.10408 
L 277.118367 89.14536 
L 277.874022 89.07312 
L 278.620389 87.9792 
L 279.36 88.29912 
L 279.36 88.29912 
" clip-path="url(#pb744cb91e3)" style="fill: none; stroke: #4a8dff; stroke-width: 0.6"/>
   </g>
   <g id="line2d_7">
    <path d="M 8.64 94.66656 
L 9.384445 97.61808 
L 10.12889 91.10616 
L 10.873335 94.23312 
L 11.61778 90.25992 
L 12.362225 88.31976 
L 13.10667 90.08448 
L 13.851115 89.13504 
L 14.595561 90.03288 
L 15.340006 89.56848 
L 16.084451 88.71192 
L 16.828896 89.22792 
L 17.573341 88.50552 
L 18.317786 88.55712 
L 19.062231 86.10096 
L 19.806676 79.75416 
L 20.551121 79.7232 
L 21.295566 79.44456 
L 22.040011 78.51576 
L 22.784456 78.64992 
L 23.528901 79.5168 
L 24.273346 78.24744 
L 25.017792 79.0524 
L 25.762237 79.07304 
L 26.506682 76.80264 
L 27.251127 76.35888 
L 27.995572 77.31864 
L 28.740017 78.98016 
L 29.484462 78.52608 
L 30.228907 76.35888 
L 30.973352 76.18344 
L 31.717797 69.90888 
L 32.462242 70.03272 
L 33.206687 68.29896 
L 33.951132 68.95944 
L 34.695577 70.11528 
L 35.440023 68.76336 
L 36.184468 69.37224 
L 36.928913 69.25872 
L 37.673358 69.41352 
L 38.417803 69.77472 
L 39.162248 66.85416 
L 39.906693 67.26696 
L 40.651138 66.06984 
L 41.395583 63.08736 
L 42.140028 61.12656 
L 42.884473 65.62608 
L 43.628918 64.98624 
L 44.373363 63.91296 
L 45.117808 63.38664 
L 45.862253 63.70656 
L 46.606699 64.97592 
L 47.351144 67.14312 
L 48.095589 68.9388 
L 48.840034 68.23704 
L 49.584479 67.1844 
L 50.328924 66.99864 
L 51.073369 67.47336 
L 51.817814 68.1132 
L 52.562259 71.38464 
L 53.306704 68.526 
L 54.051149 67.21536 
L 54.795594 67.20504 
L 55.540039 62.46816 
L 56.284484 62.51976 
L 57.02893 64.10904 
L 57.773375 66.90576 
L 58.51782 66.83352 
L 59.262265 67.42176 
L 60.00671 67.3392 
L 60.751155 65.8944 
L 61.4956 68.24736 
L 62.98449 68.23704 
L 63.728935 69.69216 
L 64.47338 71.50848 
L 65.217825 72.21024 
L 65.96227 67.3908 
L 66.706715 66.90576 
L 67.451161 65.59512 
L 68.195606 65.86344 
L 68.940051 65.76024 
L 69.684496 65.50224 
L 70.428941 64.398 
L 71.173386 65.70864 
L 71.917831 67.2876 
L 72.662276 63.95424 
L 73.406721 63.14928 
L 74.151166 64.76952 
L 74.895611 64.58376 
L 75.640056 63.55176 
L 76.384501 64.5012 
L 77.128946 63.82008 
L 77.873391 61.36392 
L 78.617837 56.64768 
L 79.362282 54.89328 
L 80.106727 55.04808 
L 80.851172 53.29368 
L 81.595617 52.55064 
L 82.340062 54.77976 
L 83.084507 53.67552 
L 83.828952 52.95312 
L 84.573397 54.45984 
L 85.317842 54.55272 
L 86.062287 55.22352 
L 86.806732 54.98616 
L 87.551177 52.4268 
L 88.295622 53.79936 
L 89.040068 54.08832 
L 89.784513 54.92424 
L 90.528958 54.4908 
L 91.273403 52.98408 
L 92.017848 54.44952 
L 92.762293 54.60432 
L 93.506738 54.62496 
L 94.995628 59.38248 
L 95.740073 60.09456 
L 96.484518 58.39176 
L 97.228963 57.41136 
L 97.973408 58.464 
L 98.717853 57.5352 
L 99.462299 55.0068 
L 100.206744 55.81176 
L 100.951189 55.99752 
L 101.695634 53.13888 
L 102.440079 53.64456 
L 103.184524 52.1688 
L 103.928969 48.69096 
L 104.673414 54.0264 
L 105.417859 55.13064 
L 106.162304 54.96552 
L 106.906749 54.92424 
L 107.651194 56.25552 
L 108.395639 59.8572 
L 109.140084 58.32984 
L 109.884529 60.23904 
L 110.628975 55.65696 
L 111.37342 57.18432 
L 112.117865 59.21736 
L 112.86231 62.55072 
L 113.606755 60.82728 
L 114.3512 61.47744 
L 115.095645 60.12552 
L 115.84009 64.31544 
L 116.584535 63.99552 
L 117.32898 64.5528 
L 118.073425 63.60336 
L 118.81787 61.5084 
L 119.562315 60.96144 
L 120.30676 61.98312 
L 121.051206 62.05536 
L 121.795651 62.51976 
L 123.284541 60.64152 
L 124.028986 61.13688 
L 124.773431 58.6188 
L 125.517876 57.03984 
L 126.262321 56.35872 
L 127.006766 56.5548 
L 127.751211 57.174 
L 128.495656 57.14304 
L 129.240101 55.7292 
L 129.984546 56.04912 
L 130.728991 55.33704 
L 131.473436 56.87472 
L 132.217882 56.8128 
L 132.962327 57.24624 
L 133.706772 59.93976 
L 134.451217 60.64152 
L 135.195662 59.29992 
L 135.940107 63.80976 
L 136.684552 63.03576 
L 137.428997 63.09768 
L 138.917887 58.27824 
L 139.662332 58.5672 
L 140.406777 53.93352 
L 141.151222 51.74568 
L 141.895667 50.04288 
L 142.640113 49.90872 
L 144.129003 47.43192 
L 144.873448 50.80656 
L 145.617893 48.90768 
L 146.362338 50.6208 
L 147.106783 59.42376 
L 147.851228 61.85928 
L 148.595673 57.35976 
L 149.340118 57.3288 
L 150.084563 59.46504 
L 151.573453 64.72824 
L 152.317898 66.42072 
L 153.062344 65.688 
L 153.806789 64.17096 
L 154.551234 62.10696 
L 155.295679 64.30512 
L 156.040124 65.20296 
L 156.784569 62.68488 
L 157.529014 61.70448 
L 158.273459 61.06464 
L 159.017904 58.1028 
L 159.762349 58.40208 
L 160.506794 59.68176 
L 161.251239 62.6952 
L 161.995684 64.56312 
L 162.740129 63.18024 
L 163.484574 62.72616 
L 164.22902 62.06568 
L 164.973465 66.33816 
L 165.71791 71.40528 
L 166.462355 69.08328 
L 167.2068 71.7252 
L 167.951245 69.57864 
L 168.69569 70.72416 
L 169.440135 68.2164 
L 170.18458 66.978 
L 170.929025 70.03272 
L 171.67347 71.5188 
L 172.417915 73.3764 
L 173.16236 78.846 
L 173.906805 77.75208 
L 174.651251 78.88728 
L 175.395696 81.34344 
L 176.140141 80.53848 
L 176.884586 82.0452 
L 177.629031 86.92656 
L 178.373476 88.58808 
L 179.117921 88.96992 
L 179.862366 86.7924 
L 180.606811 85.296 
L 181.351256 86.24544 
L 182.095701 82.96368 
L 182.840146 82.13808 
L 183.584591 82.47864 
L 184.329036 82.58184 
L 185.073482 83.03592 
L 185.817927 87.3084 
L 186.562372 82.06584 
L 187.306817 79.71288 
L 188.051262 81.24024 
L 188.795707 84.17112 
L 189.540152 84.24336 
L 190.284597 83.29392 
L 191.029042 82.8192 
L 191.773487 80.64168 
L 192.517932 81.38472 
L 193.262377 80.87904 
L 194.006822 83.13912 
L 194.751267 83.19072 
L 196.240158 87.17424 
L 196.984603 85.71912 
L 197.729048 87.53544 
L 198.473493 88.17528 
L 199.217938 85.41984 
L 200.706828 84.9348 
L 201.451273 85.01736 
L 202.195718 86.14224 
L 202.940163 85.90488 
L 203.684608 86.328 
L 204.429053 86.24544 
L 205.173498 85.72944 
L 205.917943 85.7088 
L 206.662389 86.40024 
L 207.406834 85.09992 
L 208.151279 86.02872 
L 209.640169 83.53128 
L 211.129059 82.03488 
L 211.873504 79.39296 
L 212.617949 79.66128 
L 213.362394 82.15872 
L 214.106839 82.43736 
L 214.851284 82.93272 
L 215.595729 83.00496 
L 217.08462 82.28256 
L 217.829065 78.01008 
L 218.57351 76.19376 
L 219.317955 77.66952 
L 220.0624 77.74176 
L 220.806845 78.1752 
L 222.295735 80.8068 
L 223.04018 85.20312 
L 223.784625 84.12984 
L 224.52907 84.03696 
L 225.273515 84.06792 
L 226.01796 84.3156 
L 226.762405 87.02976 
L 227.50685 85.21344 
L 228.251296 84.28464 
L 228.995741 84.32592 
L 229.740186 89.08344 
L 230.484631 89.5272 
L 231.229076 95.14128 
L 231.973521 96.98856 
L 232.717966 95.08968 
L 233.938046 99.80592 
L 234.682112 101.79768 
L 235.423369 100.03296 
L 236.184831 100.518 
L 236.923133 99.98136 
L 237.671826 100.49736 
L 239.900715 101.26104 
L 240.636208 100.63152 
L 241.341371 100.38384 
L 242.133568 100.84824 
L 242.7845 100.65216 
L 243.621277 101.034 
L 244.364818 101.19912 
L 246.597757 100.91016 
L 247.344442 101.7564 
L 248.025997 101.84928 
L 248.830652 101.56032 
L 249.57178 100.85856 
L 251.050486 101.4468 
L 251.811845 101.02368 
L 252.548604 101.30232 
L 253.294781 100.81728 
L 254.035056 100.79664 
L 254.781103 99.3312 
L 255.525195 99.92976 
L 256.263928 100.78632 
L 257.015602 101.17848 
L 257.762279 101.1372 
L 258.501942 100.21872 
L 259.993468 100.4664 
L 260.736474 99.88848 
L 261.479929 99.94008 
L 262.238616 99.81624 
L 262.985164 98.93904 
L 263.716581 98.3508 
L 264.466704 98.52624 
L 265.211356 99.78528 
L 265.948555 100.12584 
L 266.68864 100.03296 
L 268.190412 100.83792 
L 268.927964 100.11552 
L 269.727854 99.87816 
L 270.42591 100.002 
L 271.908622 101.41584 
L 272.663208 101.21976 
L 274.149531 101.00304 
L 274.90036 100.86888 
L 275.635 101.21976 
L 276.380298 101.28168 
L 277.874022 101.14752 
L 278.620389 100.55928 
L 279.36 100.65216 
L 279.36 100.65216 
" clip-path="url(#pb744cb91e3)" style="fill: none; stroke: #f5841e; stroke-width: 0.6"/>
   </g>
  </g>
 </g>
 <defs>
  <clipPath id="pb744cb91e3">
   <rect x="8.64" y="4.8" width="270.72" height="103.2"/>
  </clipPath>
 </defs>
</svg>
