<?xml version="1.0" encoding="utf-8" standalone="no"?>
<!DOCTYPE svg PUBLIC "-//W3C//DTD SVG 1.1//EN"
  "http://www.w3.org/Graphics/SVG/1.1/DTD/svg11.dtd">
<svg xmlns:xlink="http://www.w3.org/1999/xlink" width="288pt" height="120pt" viewBox="0 0 288 120" xmlns="http://www.w3.org/2000/svg" version="1.1">
<desc id="nav-meta">{"window":"3m","count":4,"labels":["26.12","25.01","24.02","25.03"],"tick_utc":["2025-12-26T12:00:00Z","2026-01-25T12:00:00Z","2026-02-24T01:30:44Z","2026-03-25T05:09:13Z"],"w":720,"h":300}</desc>

 <metadata>
  <rdf:RDF xmlns:dc="http://purl.org/dc/elements/1.1/" xmlns:cc="http://creativecommons.org/ns#" xmlns:rdf="http://www.w3.org/1999/02/22-rdf-syntax-ns#">
   <cc:Work>
    <dc:type rdf:resource="http://purl.org/dc/dcmitype/StillImage"/>
    <dc:date>2026-03-25T14:03:24.521897</dc:date>
    <dc:format>image/svg+xml</dc:format>
    <dc:creator>
     <cc:Agent>
      <dc:title>Matplotlib v3.10.8, https://matplotlib.org/</dc:title>
     </cc:Agent>
    </dc:creator>
   </cc:Work>
  </rdf:RDF>
 </metadata>
 <defs>
  <style type="text/css">*{stroke-linejoin: round; stroke-linecap: butt}</style>
 </defs>
 <g id="figure_1">
  <g id="patch_1">
   <path d="M 0 120 
L 288 120 
L 288 0 
L 0 0 
L 0 120 
z
" style="fill: none; opacity: 0"/>
  </g>
  <g id="axes_1">
   <g id="patch_2">
    <path d="M 8.64 108 
L 279.36 108 
L 279.36 4.8 
L 8.64 4.8 
L 8.64 108 
z
" style="fill: none"/>
   </g>
   <g id="matplotlib.axis_1"/>
   <g id="matplotlib.axis_2"/>
   <g id="line2d_1">
    <path d="M 8.64 87.36 
L 279.36 87.36 
" clip-path="url(#p484e68cc1e)" style="fill: none; stroke: #b2b2b2; stroke-opacity: 0.35; stroke-width: 0.5; stroke-linecap: square"/>
   </g>
   <g id="line2d_2">
    <path d="M 8.64 66.72 
L 279.36 66.72 
" clip-path="url(#p484e68cc1e)" style="fill: none; stroke: #b2b2b2; stroke-opacity: 0.35; stroke-width: 0.5; stroke-linecap: square"/>
   </g>
   <g id="line2d_3">
    <path d="M 8.64 46.08 
L 279.36 46.08 
" clip-path="url(#p484e68cc1e)" style="fill: none; stroke: #b2b2b2; stroke-opacity: 0.35; stroke-width: 0.5; stroke-linecap: square"/>
   </g>
   <g id="line2d_4">
    <path d="M 8.64 25.44 
L 279.36 25.44 
" clip-path="url(#p484e68cc1e)" style="fill: none; stroke: #b2b2b2; stroke-opacity: 0.35; stroke-width: 0.5; stroke-linecap: square"/>
   </g>
   <g id="line2d_5">
    <path d="M 8.64 93.69648 
L 11.691579 93.11856 
L 14.743158 92.44776 
L 17.794736 92.30328 
L 20.846315 92.87088 
L 23.897894 92.38584 
L 26.949473 92.47872 
L 30.001052 91.88016 
L 33.05263 90.42504 
L 36.104209 90.08448 
L 39.155788 89.92968 
L 42.207367 88.76352 
L 45.258945 87.94824 
L 48.310524 89.2692 
L 51.362103 88.72224 
L 54.413682 89.39304 
L 57.465261 89.40336 
L 60.516839 88.41264 
L 63.568418 88.4952 
L 66.619997 86.86464 
L 69.671576 86.42088 
L 72.723155 87.62832 
L 75.774733 86.93688 
L 78.826312 87.23616 
L 81.877891 88.63968 
L 84.92947 90.0432 
L 87.981049 92.12784 
L 91.032627 91.16808 
L 94.084206 91.46736 
L 97.135785 91.73568 
L 100.187364 91.78728 
L 103.238942 94.0164 
L 106.290521 92.5716 
L 109.3421 91.76664 
L 112.393679 92.33424 
L 115.445258 94.36728 
L 118.496836 94.46016 
L 121.548415 97.71096 
L 124.599994 98.48496 
L 127.651573 97.85544 
L 130.22779 99.10416 
L 132.652842 100.16712 
L 135.702867 102.23112 
L 138.741377 100.54896 
L 141.862712 100.70376 
L 144.889108 100.68312 
L 147.958099 100.95144 
L 151.003356 101.28168 
L 154.04395 101.71512 
L 157.094611 101.84928 
L 160.109493 101.034 
L 163.000051 100.54896 
L 166.247369 101.04432 
L 168.915629 100.81728 
L 172.345688 101.034 
L 175.393558 101.4984 
L 178.427301 101.33328 
L 181.460231 101.1372 
L 184.54667 101.06496 
L 187.607432 102.09696 
L 190.401216 102.05568 
L 193.699605 101.4984 
L 196.737586 100.60056 
L 199.783372 100.80696 
L 202.798996 101.45712 
L 205.919907 100.55928 
L 208.939981 101.10624 
L 211.998659 100.8792 
L 215.033143 100.74504 
L 218.091291 100.21872 
L 221.141422 100.53864 
L 224.169584 101.07528 
L 227.250796 101.38488 
L 230.311522 101.26104 
L 233.343499 100.78632 
L 236.393877 100.91016 
L 239.457464 100.99272 
L 242.503144 100.38384 
L 245.550661 100.50768 
L 248.660623 100.60056 
L 251.72082 99.76464 
L 254.718996 99.49632 
L 257.79385 99.40344 
L 260.846276 100.09488 
L 263.868152 100.3632 
L 266.901859 100.19808 
L 269.99907 100.47672 
L 273.057819 100.79664 
L 276.081142 100.26 
L 279.36 99.83688 
" clip-path="url(#p484e68cc1e)" style="fill: none; stroke: #bebebe; stroke-width: 0.5; stroke-linecap: round"/>
   </g>
   <g id="line2d_6">
    <path d="M 8.64 76.49304 
L 11.691579 76.15248 
L 14.743158 75.82224 
L 17.794736 75.84288 
L 20.846315 76.03896 
L 23.897894 75.51264 
L 26.949473 75.56424 
L 30.001052 75.05856 
L 33.05263 73.26288 
L 36.104209 73.20096 
L 39.155788 73.00488 
L 42.207367 71.68392 
L 45.258945 70.6932 
L 48.310524 72.62304 
L 51.362103 73.52088 
L 54.413682 73.83048 
L 57.465261 73.8408 
L 60.516839 73.29384 
L 63.568418 73.72728 
L 66.619997 70.32168 
L 69.671576 69.77472 
L 72.723155 70.34232 
L 75.774733 70.67256 
L 78.826312 70.51776 
L 81.877891 70.848 
L 84.92947 72.31344 
L 87.981049 76.01832 
L 91.032627 75.41976 
L 94.084206 75.83256 
L 97.135785 75.79128 
L 100.187364 75.82224 
L 103.238942 77.82432 
L 106.290521 76.14216 
L 109.3421 74.75928 
L 112.393679 74.96568 
L 115.445258 77.75208 
L 118.496836 79.48584 
L 121.548415 83.31456 
L 124.599994 85.90488 
L 127.651573 84.79032 
L 130.22779 85.84296 
L 132.652842 88.25784 
L 135.702867 91.41576 
L 138.741377 88.7532 
L 141.862712 88.65 
L 144.889108 88.55712 
L 147.958099 88.96992 
L 151.003356 89.7336 
L 154.04395 90.456 
L 157.094611 90.56952 
L 160.109493 89.15568 
L 163.000051 88.9596 
L 166.247369 90.6624 
L 168.915629 89.94 
L 172.345688 90.00192 
L 175.393558 90.3528 
L 178.427301 90.62112 
L 181.460231 90.5076 
L 184.54667 90.3528 
L 187.607432 92.004 
L 190.401216 92.13816 
L 193.699605 91.25064 
L 196.737586 89.166 
L 199.783372 89.56848 
L 202.798996 90.93072 
L 205.919907 89.41368 
L 208.939981 90.37344 
L 211.998659 89.79552 
L 215.033143 90.23928 
L 218.091291 88.0824 
L 221.141422 88.7532 
L 224.169584 90.16704 
L 227.250796 90.67272 
L 230.311522 90.18768 
L 233.343499 89.2692 
L 236.393877 89.54784 
L 239.457464 89.49624 
L 242.503144 88.31976 
L 245.550661 88.45392 
L 248.660623 88.46424 
L 251.72082 86.38992 
L 254.718996 84.80064 
L 257.79385 84.8316 
L 260.846276 86.586 
L 263.868152 87.74184 
L 266.901859 87.618 
L 269.99907 88.19592 
L 273.057819 89.08344 
L 276.081142 87.89664 
L 279.36 87.3084 
" clip-path="url(#p484e68cc1e)" style="fill: none; stroke: #4a8dff; stroke-width: 0.6"/>
   </g>
   <g id="line2d_7">
    <path d="M 8.64 86.328 
L 11.691579 86.24544 
L 14.743158 85.72944 
L 17.794736 85.7088 
L 20.846315 86.40024 
L 23.897894 85.09992 
L 26.949473 86.02872 
L 30.001052 84.78 
L 33.05263 83.53128 
L 36.104209 82.83984 
L 39.155788 82.03488 
L 42.207367 79.39296 
L 45.258945 79.66128 
L 48.310524 82.15872 
L 51.362103 82.43736 
L 54.413682 82.93272 
L 57.465261 83.00496 
L 60.516839 82.6128 
L 63.568418 82.28256 
L 66.619997 78.01008 
L 69.671576 76.19376 
L 72.723155 77.66952 
L 75.774733 77.74176 
L 78.826312 78.1752 
L 81.877891 79.5684 
L 84.92947 80.8068 
L 87.981049 85.20312 
L 91.032627 84.12984 
L 94.084206 84.03696 
L 97.135785 84.06792 
L 100.187364 84.3156 
L 103.238942 87.02976 
L 106.290521 85.21344 
L 109.3421 84.28464 
L 112.393679 84.32592 
L 115.445258 89.08344 
L 118.496836 89.5272 
L 121.548415 95.14128 
L 124.599994 96.98856 
L 127.651573 95.08968 
L 130.22779 97.71096 
L 132.652842 99.80592 
L 135.702867 101.79768 
L 138.741377 100.03296 
L 141.862712 100.518 
L 144.889108 99.98136 
L 147.958099 100.49736 
L 151.003356 100.78632 
L 154.04395 101.07528 
L 157.094611 101.26104 
L 160.109493 100.63152 
L 163.000051 100.38384 
L 166.247369 100.84824 
L 168.915629 100.65216 
L 172.345688 101.034 
L 175.393558 101.19912 
L 178.427301 101.10624 
L 181.460231 100.97208 
L 184.54667 100.91016 
L 187.607432 101.7564 
L 190.401216 101.84928 
L 193.699605 101.56032 
L 196.737586 100.85856 
L 199.783372 101.12688 
L 202.798996 101.4468 
L 205.919907 101.02368 
L 208.939981 101.30232 
L 211.998659 100.81728 
L 215.033143 100.79664 
L 218.091291 99.3312 
L 221.141422 99.92976 
L 224.169584 100.78632 
L 227.250796 101.17848 
L 230.311522 101.1372 
L 233.343499 100.21872 
L 236.393877 100.37352 
L 239.457464 100.4664 
L 242.503144 99.88848 
L 245.550661 99.94008 
L 248.660623 99.81624 
L 251.72082 98.93904 
L 254.718996 98.3508 
L 257.79385 98.52624 
L 260.846276 99.78528 
L 263.868152 100.12584 
L 266.901859 100.03296 
L 269.99907 100.45608 
L 273.057819 100.83792 
L 276.081142 100.11552 
L 279.36 99.87816 
" clip-path="url(#p484e68cc1e)" style="fill: none; stroke: #f5841e; stroke-width: 0.6"/>
   </g>
  </g>
 </g>
 <defs>
  <clipPath id="p484e68cc1e">
   <rect x="8.64" y="4.8" width="270.72" height="103.2"/>
  </clipPath>
 </defs>
</svg>
