<?xml version="1.0" encoding="utf-8" standalone="no"?>
<!DOCTYPE svg PUBLIC "-//W3C//DTD SVG 1.1//EN"
  "http://www.w3.org/Graphics/SVG/1.1/DTD/svg11.dtd">
<svg xmlns:xlink="http://www.w3.org/1999/xlink" width="288pt" height="120pt" viewBox="0 0 288 120" xmlns="http://www.w3.org/2000/svg" version="1.1">
<desc id="nav-meta">{"window":"3m","count":4,"labels":["12.12","11.01","10.02","12.03"],"tick_utc":["2025-12-12T12:00:00Z","2026-01-11T12:00:00Z","2026-02-10T03:42:23Z","2026-03-12T03:19:44Z"],"w":720,"h":300}</desc>

 <metadata>
  <rdf:RDF xmlns:dc="http://purl.org/dc/elements/1.1/" xmlns:cc="http://creativecommons.org/ns#" xmlns:rdf="http://www.w3.org/1999/02/22-rdf-syntax-ns#">
   <cc:Work>
    <dc:type rdf:resource="http://purl.org/dc/dcmitype/StillImage"/>
    <dc:date>2026-03-12T03:19:45.934033</dc:date>
    <dc:format>image/svg+xml</dc:format>
    <dc:creator>
     <cc:Agent>
      <dc:title>Matplotlib v3.10.8, https://matplotlib.org/</dc:title>
     </cc:Agent>
    </dc:creator>
   </cc:Work>
  </rdf:RDF>
 </metadata>
 <defs>
  <style type="text/css">*{stroke-linejoin: round; stroke-linecap: butt}</style>
 </defs>
 <g id="figure_1">
  <g id="patch_1">
   <path d="M 0 120 
L 288 120 
L 288 0 
L 0 0 
L 0 120 
z
" style="fill: none; opacity: 0"/>
  </g>
  <g id="axes_1">
   <g id="patch_2">
    <path d="M 8.64 108 
L 279.36 108 
L 279.36 4.8 
L 8.64 4.8 
L 8.64 108 
z
" style="fill: none"/>
   </g>
   <g id="matplotlib.axis_1"/>
   <g id="matplotlib.axis_2"/>
   <g id="line2d_1">
    <path d="M 8.64 87.36 
L 279.36 87.36 
" clip-path="url(#pe14d000b38)" style="fill: none; stroke: #b2b2b2; stroke-opacity: 0.35; stroke-width: 0.5; stroke-linecap: square"/>
   </g>
   <g id="line2d_2">
    <path d="M 8.64 66.72 
L 279.36 66.72 
" clip-path="url(#pe14d000b38)" style="fill: none; stroke: #b2b2b2; stroke-opacity: 0.35; stroke-width: 0.5; stroke-linecap: square"/>
   </g>
   <g id="line2d_3">
    <path d="M 8.64 46.08 
L 279.36 46.08 
" clip-path="url(#pe14d000b38)" style="fill: none; stroke: #b2b2b2; stroke-opacity: 0.35; stroke-width: 0.5; stroke-linecap: square"/>
   </g>
   <g id="line2d_4">
    <path d="M 8.64 25.44 
L 279.36 25.44 
" clip-path="url(#pe14d000b38)" style="fill: none; stroke: #b2b2b2; stroke-opacity: 0.35; stroke-width: 0.5; stroke-linecap: square"/>
   </g>
   <g id="line2d_5">
    <path d="M 8.64 89.22792 
L 11.660124 90.31152 
L 14.680248 90.10512 
L 17.700372 91.09584 
L 20.720496 91.61184 
L 23.74062 91.31256 
L 26.760744 92.87088 
L 29.780868 93.8616 
L 32.800992 92.02464 
L 35.821116 92.13816 
L 38.84124 92.07624 
L 41.861364 92.14848 
L 44.881488 92.64384 
L 47.901612 93.01536 
L 50.921736 93.69648 
L 53.94186 93.11856 
L 56.961984 92.44776 
L 59.982108 92.30328 
L 63.002232 92.87088 
L 66.022356 92.38584 
L 69.04248 92.47872 
L 72.062604 91.88016 
L 75.082728 90.42504 
L 78.102852 90.08448 
L 81.122976 89.92968 
L 84.1431 88.76352 
L 87.163224 87.94824 
L 90.183348 89.2692 
L 93.203472 88.72224 
L 96.223596 89.39304 
L 99.24372 89.40336 
L 102.263844 88.41264 
L 105.283968 88.4952 
L 108.304092 86.86464 
L 111.324216 86.42088 
L 114.34434 87.62832 
L 117.364464 86.93688 
L 120.384588 87.23616 
L 123.404712 88.63968 
L 126.424836 90.0432 
L 129.44496 92.12784 
L 132.465084 91.16808 
L 135.485208 91.46736 
L 138.505332 91.73568 
L 141.525456 91.78728 
L 144.54558 94.0164 
L 147.565704 92.5716 
L 150.585828 91.76664 
L 153.605952 92.33424 
L 156.626076 94.36728 
L 159.6462 94.46016 
L 162.666324 97.71096 
L 165.686448 98.48496 
L 168.706572 97.85544 
L 171.256235 99.10416 
L 173.656289 100.16712 
L 176.674875 102.23112 
L 179.682066 100.54896 
L 182.771226 100.70376 
L 185.766427 100.68312 
L 188.803784 100.95144 
L 191.817651 101.28168 
L 194.826904 101.71512 
L 197.846119 101.84928 
L 200.829925 101.034 
L 203.690688 100.54896 
L 206.904534 101.04432 
L 209.54529 100.81728 
L 212.939993 101.034 
L 215.956447 101.4984 
L 218.958918 101.33328 
L 221.960586 101.1372 
L 225.015211 101.06496 
L 228.044423 102.09696 
L 230.809409 102.05568 
L 234.0738 101.4984 
L 237.080466 100.60056 
L 240.094858 100.80696 
L 243.079397 101.45712 
L 246.168138 100.55928 
L 249.157082 101.10624 
L 252.184232 100.8792 
L 255.187438 100.74504 
L 258.214064 100.21872 
L 261.232754 100.53864 
L 264.229703 101.07528 
L 267.279154 101.38488 
L 270.308332 101.26104 
L 273.309056 100.78632 
L 276.327991 100.91016 
L 279.36 100.99272 
" clip-path="url(#pe14d000b38)" style="fill: none; stroke: #bebebe; stroke-width: 0.5; stroke-linecap: round"/>
   </g>
   <g id="line2d_6">
    <path d="M 8.64 71.56008 
L 11.660124 73.79952 
L 14.680248 73.35576 
L 17.700372 74.0988 
L 20.720496 75.5952 
L 23.74062 75.5952 
L 26.760744 77.61792 
L 29.780868 77.63856 
L 32.800992 75.40944 
L 35.821116 75.40944 
L 38.84124 75.04824 
L 41.861364 74.98632 
L 44.881488 75.58488 
L 47.901612 75.87384 
L 50.921736 76.49304 
L 53.94186 76.15248 
L 56.961984 75.82224 
L 59.982108 75.84288 
L 63.002232 76.03896 
L 66.022356 75.51264 
L 69.04248 75.56424 
L 72.062604 75.05856 
L 75.082728 73.26288 
L 78.102852 73.20096 
L 81.122976 73.00488 
L 84.1431 71.68392 
L 87.163224 70.6932 
L 90.183348 72.62304 
L 93.203472 73.52088 
L 96.223596 73.83048 
L 99.24372 73.8408 
L 102.263844 73.29384 
L 105.283968 73.72728 
L 108.304092 70.32168 
L 111.324216 69.77472 
L 114.34434 70.34232 
L 117.364464 70.67256 
L 120.384588 70.51776 
L 123.404712 70.848 
L 126.424836 72.31344 
L 129.44496 76.01832 
L 132.465084 75.41976 
L 135.485208 75.83256 
L 138.505332 75.79128 
L 141.525456 75.82224 
L 144.54558 77.82432 
L 147.565704 76.14216 
L 150.585828 74.75928 
L 153.605952 74.96568 
L 156.626076 77.75208 
L 159.6462 79.48584 
L 162.666324 83.31456 
L 165.686448 85.90488 
L 168.706572 84.79032 
L 171.256235 85.84296 
L 173.656289 88.25784 
L 176.674875 91.41576 
L 179.682066 88.7532 
L 182.771226 88.65 
L 185.766427 88.55712 
L 188.803784 88.96992 
L 191.817651 89.7336 
L 194.826904 90.456 
L 197.846119 90.56952 
L 200.829925 89.15568 
L 203.690688 88.9596 
L 206.904534 90.6624 
L 209.54529 89.94 
L 212.939993 90.00192 
L 215.956447 90.3528 
L 218.958918 90.62112 
L 221.960586 90.5076 
L 225.015211 90.3528 
L 228.044423 92.004 
L 230.809409 92.13816 
L 234.0738 91.25064 
L 237.080466 89.166 
L 240.094858 89.56848 
L 243.079397 90.93072 
L 246.168138 89.41368 
L 249.157082 90.37344 
L 252.184232 89.79552 
L 255.187438 90.23928 
L 258.214064 88.0824 
L 261.232754 88.7532 
L 264.229703 90.16704 
L 267.279154 90.67272 
L 270.308332 90.18768 
L 273.309056 89.2692 
L 276.327991 89.54784 
L 279.36 89.49624 
" clip-path="url(#pe14d000b38)" style="fill: none; stroke: #4a8dff; stroke-width: 0.6"/>
   </g>
   <g id="line2d_7">
    <path d="M 8.64 80.87904 
L 11.660124 83.13912 
L 14.680248 83.19072 
L 17.700372 85.296 
L 20.720496 87.17424 
L 23.74062 85.71912 
L 26.760744 87.53544 
L 29.780868 88.17528 
L 32.800992 85.41984 
L 35.821116 85.17216 
L 38.84124 84.9348 
L 41.861364 85.01736 
L 44.881488 86.14224 
L 47.901612 85.90488 
L 50.921736 86.328 
L 53.94186 86.24544 
L 56.961984 85.72944 
L 59.982108 85.7088 
L 63.002232 86.40024 
L 66.022356 85.09992 
L 69.04248 86.02872 
L 72.062604 84.78 
L 75.082728 83.53128 
L 78.102852 82.83984 
L 81.122976 82.03488 
L 84.1431 79.39296 
L 87.163224 79.66128 
L 90.183348 82.15872 
L 93.203472 82.43736 
L 96.223596 82.93272 
L 99.24372 83.00496 
L 102.263844 82.6128 
L 105.283968 82.28256 
L 108.304092 78.01008 
L 111.324216 76.19376 
L 114.34434 77.66952 
L 117.364464 77.74176 
L 120.384588 78.1752 
L 123.404712 79.5684 
L 126.424836 80.8068 
L 129.44496 85.20312 
L 132.465084 84.12984 
L 135.485208 84.03696 
L 138.505332 84.06792 
L 141.525456 84.3156 
L 144.54558 87.02976 
L 147.565704 85.21344 
L 150.585828 84.28464 
L 153.605952 84.32592 
L 156.626076 89.08344 
L 159.6462 89.5272 
L 162.666324 95.14128 
L 165.686448 96.98856 
L 168.706572 95.08968 
L 171.256235 97.71096 
L 173.656289 99.80592 
L 176.674875 101.79768 
L 179.682066 100.03296 
L 182.771226 100.518 
L 185.766427 99.98136 
L 188.803784 100.49736 
L 191.817651 100.78632 
L 194.826904 101.07528 
L 197.846119 101.26104 
L 200.829925 100.63152 
L 203.690688 100.38384 
L 206.904534 100.84824 
L 209.54529 100.65216 
L 212.939993 101.034 
L 215.956447 101.19912 
L 218.958918 101.10624 
L 221.960586 100.97208 
L 225.015211 100.91016 
L 228.044423 101.7564 
L 230.809409 101.84928 
L 234.0738 101.56032 
L 237.080466 100.85856 
L 240.094858 101.12688 
L 243.079397 101.4468 
L 246.168138 101.02368 
L 249.157082 101.30232 
L 252.184232 100.81728 
L 255.187438 100.79664 
L 258.214064 99.3312 
L 261.232754 99.92976 
L 264.229703 100.78632 
L 267.279154 101.17848 
L 270.308332 101.1372 
L 273.309056 100.21872 
L 276.327991 100.37352 
L 279.36 100.4664 
" clip-path="url(#pe14d000b38)" style="fill: none; stroke: #f5841e; stroke-width: 0.6"/>
   </g>
  </g>
 </g>
 <defs>
  <clipPath id="pe14d000b38">
   <rect x="8.64" y="4.8" width="270.72" height="103.2"/>
  </clipPath>
 </defs>
</svg>
