<?xml version="1.0" encoding="utf-8" standalone="no"?>
<!DOCTYPE svg PUBLIC "-//W3C//DTD SVG 1.1//EN"
  "http://www.w3.org/Graphics/SVG/1.1/DTD/svg11.dtd">
<svg xmlns:xlink="http://www.w3.org/1999/xlink" width="288pt" height="120pt" viewBox="0 0 288 120" xmlns="http://www.w3.org/2000/svg" version="1.1">
<desc id="nav-meta">{"window":"1m","count":4,"labels":["20.01","30.01","09.02","19.02"],"tick_utc":["2026-01-20T12:00:00Z","2026-01-30T12:00:00Z","2026-02-09T03:34:10Z","2026-02-19T03:28:49Z"],"w":720,"h":300}</desc>

 <metadata>
  <rdf:RDF xmlns:dc="http://purl.org/dc/elements/1.1/" xmlns:cc="http://creativecommons.org/ns#" xmlns:rdf="http://www.w3.org/1999/02/22-rdf-syntax-ns#">
   <cc:Work>
    <dc:type rdf:resource="http://purl.org/dc/dcmitype/StillImage"/>
    <dc:date>2026-02-19T03:28:51.904781</dc:date>
    <dc:format>image/svg+xml</dc:format>
    <dc:creator>
     <cc:Agent>
      <dc:title>Matplotlib v3.10.8, https://matplotlib.org/</dc:title>
     </cc:Agent>
    </dc:creator>
   </cc:Work>
  </rdf:RDF>
 </metadata>
 <defs>
  <style type="text/css">*{stroke-linejoin: round; stroke-linecap: butt}</style>
 </defs>
 <g id="figure_1">
  <g id="patch_1">
   <path d="M 0 120 
L 288 120 
L 288 0 
L 0 0 
L 0 120 
z
" style="fill: none; opacity: 0"/>
  </g>
  <g id="axes_1">
   <g id="patch_2">
    <path d="M 8.64 108 
L 279.36 108 
L 279.36 4.8 
L 8.64 4.8 
L 8.64 108 
z
" style="fill: none"/>
   </g>
   <g id="matplotlib.axis_1"/>
   <g id="matplotlib.axis_2"/>
   <g id="line2d_1">
    <path d="M 8.64 87.36 
L 279.36 87.36 
" clip-path="url(#pec3414aa35)" style="fill: none; stroke: #b2b2b2; stroke-opacity: 0.35; stroke-width: 0.5; stroke-linecap: square"/>
   </g>
   <g id="line2d_2">
    <path d="M 8.64 66.72 
L 279.36 66.72 
" clip-path="url(#pec3414aa35)" style="fill: none; stroke: #b2b2b2; stroke-opacity: 0.35; stroke-width: 0.5; stroke-linecap: square"/>
   </g>
   <g id="line2d_3">
    <path d="M 8.64 46.08 
L 279.36 46.08 
" clip-path="url(#pec3414aa35)" style="fill: none; stroke: #b2b2b2; stroke-opacity: 0.35; stroke-width: 0.5; stroke-linecap: square"/>
   </g>
   <g id="line2d_4">
    <path d="M 8.64 25.44 
L 279.36 25.44 
" clip-path="url(#pec3414aa35)" style="fill: none; stroke: #b2b2b2; stroke-opacity: 0.35; stroke-width: 0.5; stroke-linecap: square"/>
   </g>
   <g id="line2d_5">
    <path d="M 8.64 90.0432 
L 17.772059 92.12784 
L 26.904118 91.16808 
L 36.036178 91.46736 
L 45.168237 91.73568 
L 54.300296 91.78728 
L 63.432355 94.0164 
L 72.564414 92.5716 
L 81.696473 91.76664 
L 90.828533 92.33424 
L 99.960592 94.36728 
L 109.092651 94.46016 
L 118.22471 97.71096 
L 127.356769 98.48496 
L 136.488828 97.85544 
L 144.198337 99.10416 
L 151.45547 100.16712 
L 160.582879 102.23112 
L 169.675831 100.54896 
L 179.016638 100.70376 
L 188.073336 100.68312 
L 197.257503 100.95144 
L 206.370643 101.28168 
L 215.469831 101.71512 
L 224.599142 101.84928 
L 233.621384 101.034 
L 242.271579 100.54896 
L 251.989401 101.04432 
L 259.974351 100.81728 
L 270.239039 101.034 
L 279.36 101.4984 
" clip-path="url(#pec3414aa35)" style="fill: none; stroke: #bebebe; stroke-width: 0.5; stroke-linecap: round"/>
   </g>
   <g id="line2d_6">
    <path d="M 8.64 72.31344 
L 17.772059 76.01832 
L 26.904118 75.41976 
L 36.036178 75.83256 
L 45.168237 75.79128 
L 54.300296 75.82224 
L 63.432355 77.82432 
L 72.564414 76.14216 
L 81.696473 74.75928 
L 90.828533 74.96568 
L 99.960592 77.75208 
L 109.092651 79.48584 
L 118.22471 83.31456 
L 127.356769 85.90488 
L 136.488828 84.79032 
L 144.198337 85.84296 
L 151.45547 88.25784 
L 160.582879 91.41576 
L 169.675831 88.7532 
L 179.016638 88.65 
L 188.073336 88.55712 
L 197.257503 88.96992 
L 206.370643 89.7336 
L 215.469831 90.456 
L 224.599142 90.56952 
L 233.621384 89.15568 
L 242.271579 88.9596 
L 251.989401 90.6624 
L 259.974351 89.94 
L 270.239039 90.00192 
L 279.36 90.3528 
" clip-path="url(#pec3414aa35)" style="fill: none; stroke: #4a8dff; stroke-width: 0.6"/>
   </g>
   <g id="line2d_7">
    <path d="M 8.64 80.8068 
L 17.772059 85.20312 
L 26.904118 84.12984 
L 36.036178 84.03696 
L 45.168237 84.06792 
L 54.300296 84.3156 
L 63.432355 87.02976 
L 72.564414 85.21344 
L 81.696473 84.28464 
L 90.828533 84.32592 
L 99.960592 89.08344 
L 109.092651 89.5272 
L 118.22471 95.14128 
L 127.356769 96.98856 
L 136.488828 95.08968 
L 144.198337 97.71096 
L 151.45547 99.80592 
L 160.582879 101.79768 
L 169.675831 100.03296 
L 179.016638 100.518 
L 188.073336 99.98136 
L 197.257503 100.49736 
L 206.370643 100.78632 
L 215.469831 101.07528 
L 224.599142 101.26104 
L 233.621384 100.63152 
L 242.271579 100.38384 
L 251.989401 100.84824 
L 259.974351 100.65216 
L 270.239039 101.034 
L 279.36 101.19912 
" clip-path="url(#pec3414aa35)" style="fill: none; stroke: #f5841e; stroke-width: 0.6"/>
   </g>
  </g>
 </g>
 <defs>
  <clipPath id="pec3414aa35">
   <rect x="8.64" y="4.8" width="270.72" height="103.2"/>
  </clipPath>
 </defs>
</svg>
