<?xml version="1.0" encoding="utf-8" standalone="no"?>
<!DOCTYPE svg PUBLIC "-//W3C//DTD SVG 1.1//EN"
  "http://www.w3.org/Graphics/SVG/1.1/DTD/svg11.dtd">
<svg xmlns:xlink="http://www.w3.org/1999/xlink" width="288pt" height="120pt" viewBox="0 0 288 120" xmlns="http://www.w3.org/2000/svg" version="1.1">
<desc id="nav-meta">{"window":"1m","count":4,"labels":["28.03","07.04","16.04","26.04"],"tick_utc":["2026-03-28T03:27:32Z","2026-04-07T03:40:56Z","2026-04-16T03:58:40Z","2026-04-26T04:06:31Z"],"w":720,"h":300}</desc>

 <metadata>
  <rdf:RDF xmlns:dc="http://purl.org/dc/elements/1.1/" xmlns:cc="http://creativecommons.org/ns#" xmlns:rdf="http://www.w3.org/1999/02/22-rdf-syntax-ns#">
   <cc:Work>
    <dc:type rdf:resource="http://purl.org/dc/dcmitype/StillImage"/>
    <dc:date>2026-04-26T19:33:51.363286</dc:date>
    <dc:format>image/svg+xml</dc:format>
    <dc:creator>
     <cc:Agent>
      <dc:title>Matplotlib v3.10.9, https://matplotlib.org/</dc:title>
     </cc:Agent>
    </dc:creator>
   </cc:Work>
  </rdf:RDF>
 </metadata>
 <defs>
  <style type="text/css">*{stroke-linejoin: round; stroke-linecap: butt}</style>
 </defs>
 <g id="figure_1">
  <g id="patch_1">
   <path d="M 0 120 
L 288 120 
L 288 0 
L 0 0 
L 0 120 
z
" style="fill: none; opacity: 0"/>
  </g>
  <g id="axes_1">
   <g id="patch_2">
    <path d="M 8.64 108 
L 279.36 108 
L 279.36 4.8 
L 8.64 4.8 
L 8.64 108 
z
" style="fill: none"/>
   </g>
   <g id="matplotlib.axis_1"/>
   <g id="matplotlib.axis_2"/>
   <g id="line2d_1">
    <path d="M 8.64 87.36 
L 279.36 87.36 
" clip-path="url(#p5586dfafef)" style="fill: none; stroke: #b2b2b2; stroke-opacity: 0.35; stroke-width: 0.5; stroke-linecap: square"/>
   </g>
   <g id="line2d_2">
    <path d="M 8.64 66.72 
L 279.36 66.72 
" clip-path="url(#p5586dfafef)" style="fill: none; stroke: #b2b2b2; stroke-opacity: 0.35; stroke-width: 0.5; stroke-linecap: square"/>
   </g>
   <g id="line2d_3">
    <path d="M 8.64 46.08 
L 279.36 46.08 
" clip-path="url(#p5586dfafef)" style="fill: none; stroke: #b2b2b2; stroke-opacity: 0.35; stroke-width: 0.5; stroke-linecap: square"/>
   </g>
   <g id="line2d_4">
    <path d="M 8.64 25.44 
L 279.36 25.44 
" clip-path="url(#p5586dfafef)" style="fill: none; stroke: #b2b2b2; stroke-opacity: 0.35; stroke-width: 0.5; stroke-linecap: square"/>
   </g>
   <g id="line2d_5">
    <path d="M 8.64 101.38488 
L 18.093518 101.3436 
L 27.446646 101.292 
L 36.714282 101.28168 
L 46.120736 101.28168 
L 55.32436 101.8596 
L 64.661513 101.88024 
L 73.908099 101.72544 
L 83.375002 101.68416 
L 92.72554 101.47776 
L 101.991449 101.78736 
L 111.333027 101.09592 
L 120.627002 101.46744 
L 130.039284 101.3436 
L 139.223155 101.05464 
L 148.716936 101.3952 
L 158.091222 101.47776 
L 167.358318 100.86888 
L 176.677659 101.26104 
L 186.044497 100.99272 
L 195.351965 100.61088 
L 204.575559 100.44576 
L 214.025191 100.94112 
L 223.374757 101.09592 
L 232.660312 101.00304 
L 241.957849 100.69344 
L 251.322095 100.9308 
L 260.673281 100.92048 
L 269.888456 100.81728 
L 279.36 100.8792 
" clip-path="url(#p5586dfafef)" style="fill: none; stroke: #bebebe; stroke-width: 0.5; stroke-linecap: round"/>
   </g>
   <g id="line2d_6">
    <path d="M 8.64 90.07416 
L 18.093518 89.76456 
L 27.446646 89.3724 
L 36.714282 89.00088 
L 46.120736 88.42296 
L 55.32436 88.81512 
L 64.661513 89.10408 
L 73.908099 89.14536 
L 83.375002 89.07312 
L 92.72554 87.9792 
L 101.991449 88.29912 
L 111.333027 86.38992 
L 120.627002 87.24648 
L 130.039284 87.1536 
L 139.223155 86.21448 
L 148.716936 86.66856 
L 158.091222 87.01944 
L 167.358318 84.44976 
L 176.677659 85.05864 
L 186.044497 84.58392 
L 195.351965 85.04832 
L 204.575559 83.71704 
L 214.025191 84.86256 
L 223.374757 85.6572 
L 232.660312 85.27536 
L 241.957849 84.49104 
L 251.322095 84.86256 
L 260.673281 85.32696 
L 269.888456 85.17216 
L 279.36 85.31664 
" clip-path="url(#p5586dfafef)" style="fill: none; stroke: #4a8dff; stroke-width: 0.6"/>
   </g>
   <g id="line2d_7">
    <path d="M 8.64 101.41584 
L 18.093518 101.21976 
L 27.446646 101.14752 
L 36.714282 101.00304 
L 46.120736 100.86888 
L 55.32436 101.21976 
L 64.661513 101.28168 
L 73.908099 101.20944 
L 83.375002 101.14752 
L 92.72554 100.55928 
L 101.991449 100.65216 
L 111.333027 99.80592 
L 120.627002 99.96072 
L 130.039284 99.6408 
L 139.223155 99.1764 
L 148.716936 99.70272 
L 158.091222 99.94008 
L 167.358318 98.57784 
L 176.677659 98.65008 
L 186.044497 98.38176 
L 195.351965 98.48496 
L 204.575559 96.70992 
L 214.025191 98.05152 
L 223.374757 98.48496 
L 232.660312 97.96896 
L 241.957849 96.32808 
L 251.322095 96.20424 
L 260.673281 96.16296 
L 269.888456 96.1836 
L 279.36 96.50352 
" clip-path="url(#p5586dfafef)" style="fill: none; stroke: #f5841e; stroke-width: 0.6"/>
   </g>
  </g>
 </g>
 <defs>
  <clipPath id="p5586dfafef">
   <rect x="8.64" y="4.8" width="270.72" height="103.2"/>
  </clipPath>
 </defs>
</svg>
