<?xml version="1.0" encoding="utf-8" standalone="no"?>
<!DOCTYPE svg PUBLIC "-//W3C//DTD SVG 1.1//EN"
  "http://www.w3.org/Graphics/SVG/1.1/DTD/svg11.dtd">
<svg xmlns:xlink="http://www.w3.org/1999/xlink" width="288pt" height="120pt" viewBox="0 0 288 120" xmlns="http://www.w3.org/2000/svg" version="1.1">
<desc id="nav-meta">{"window":"3m","count":4,"labels":["30.11","30.12","28.01","27.02"],"tick_utc":["2025-11-30T12:00:00Z","2025-12-30T12:00:00Z","2026-01-28T12:00:00Z","2026-02-27T03:18:03Z"],"w":720,"h":300}</desc>

 <metadata>
  <rdf:RDF xmlns:dc="http://purl.org/dc/elements/1.1/" xmlns:cc="http://creativecommons.org/ns#" xmlns:rdf="http://www.w3.org/1999/02/22-rdf-syntax-ns#">
   <cc:Work>
    <dc:type rdf:resource="http://purl.org/dc/dcmitype/StillImage"/>
    <dc:date>2026-02-27T19:21:40.278361</dc:date>
    <dc:format>image/svg+xml</dc:format>
    <dc:creator>
     <cc:Agent>
      <dc:title>Matplotlib v3.10.8, https://matplotlib.org/</dc:title>
     </cc:Agent>
    </dc:creator>
   </cc:Work>
  </rdf:RDF>
 </metadata>
 <defs>
  <style type="text/css">*{stroke-linejoin: round; stroke-linecap: butt}</style>
 </defs>
 <g id="figure_1">
  <g id="patch_1">
   <path d="M 0 120 
L 288 120 
L 288 0 
L 0 0 
L 0 120 
z
" style="fill: none; opacity: 0"/>
  </g>
  <g id="axes_1">
   <g id="patch_2">
    <path d="M 8.64 108 
L 279.36 108 
L 279.36 4.8 
L 8.64 4.8 
L 8.64 108 
z
" style="fill: none"/>
   </g>
   <g id="matplotlib.axis_1"/>
   <g id="matplotlib.axis_2"/>
   <g id="line2d_1">
    <path d="M 8.64 87.36 
L 279.36 87.36 
" clip-path="url(#p6ae4c3d803)" style="fill: none; stroke: #b2b2b2; stroke-opacity: 0.35; stroke-width: 0.5; stroke-linecap: square"/>
   </g>
   <g id="line2d_2">
    <path d="M 8.64 66.72 
L 279.36 66.72 
" clip-path="url(#p6ae4c3d803)" style="fill: none; stroke: #b2b2b2; stroke-opacity: 0.35; stroke-width: 0.5; stroke-linecap: square"/>
   </g>
   <g id="line2d_3">
    <path d="M 8.64 46.08 
L 279.36 46.08 
" clip-path="url(#p6ae4c3d803)" style="fill: none; stroke: #b2b2b2; stroke-opacity: 0.35; stroke-width: 0.5; stroke-linecap: square"/>
   </g>
   <g id="line2d_4">
    <path d="M 8.64 25.44 
L 279.36 25.44 
" clip-path="url(#p6ae4c3d803)" style="fill: none; stroke: #b2b2b2; stroke-opacity: 0.35; stroke-width: 0.5; stroke-linecap: square"/>
   </g>
   <g id="line2d_5">
    <path d="M 8.64 89.3208 
L 11.694237 89.7336 
L 14.748473 91.86984 
L 17.80271 88.60872 
L 20.856946 86.87496 
L 23.911183 88.52616 
L 26.965419 90.11544 
L 30.019656 90.38376 
L 33.073893 90.53856 
L 36.128129 90.08448 
L 39.182366 88.79448 
L 42.236602 89.20728 
L 45.290839 89.22792 
L 48.345075 90.31152 
L 51.399312 90.10512 
L 54.453549 91.09584 
L 57.507785 91.61184 
L 60.562022 91.31256 
L 63.616258 92.87088 
L 66.670495 93.8616 
L 69.724731 92.02464 
L 72.778968 92.13816 
L 75.833205 92.07624 
L 78.887441 92.14848 
L 81.941678 92.64384 
L 84.995914 93.01536 
L 88.050151 93.69648 
L 91.104387 93.11856 
L 94.158624 92.44776 
L 97.212861 92.30328 
L 100.267097 92.87088 
L 103.321334 92.38584 
L 106.37557 92.47872 
L 109.429807 91.88016 
L 112.484043 90.42504 
L 115.53828 90.08448 
L 118.592517 89.92968 
L 121.646753 88.76352 
L 124.70099 87.94824 
L 127.755226 89.2692 
L 130.809463 88.72224 
L 133.863699 89.39304 
L 136.917936 89.40336 
L 139.972172 88.41264 
L 143.026409 88.4952 
L 146.080646 86.86464 
L 149.134882 86.42088 
L 152.189119 87.62832 
L 155.243355 86.93688 
L 158.297592 87.23616 
L 161.351828 88.63968 
L 164.406065 90.0432 
L 167.460302 92.12784 
L 170.514538 91.16808 
L 173.568775 91.46736 
L 176.623011 91.73568 
L 179.677248 91.78728 
L 182.731484 94.0164 
L 185.785721 92.5716 
L 188.839958 91.76664 
L 191.894194 92.33424 
L 194.948431 94.36728 
L 198.002667 94.46016 
L 201.056904 97.71096 
L 204.11114 98.48496 
L 207.165377 97.85544 
L 209.743838 99.10416 
L 212.171002 100.16712 
L 215.223683 102.23112 
L 218.26484 100.54896 
L 221.388893 100.70376 
L 224.417925 100.68312 
L 227.489589 100.95144 
L 230.537498 101.28168 
L 233.580741 101.71512 
L 236.634058 101.84928 
L 239.651566 101.034 
L 242.544642 100.54896 
L 245.794788 101.04432 
L 248.465372 100.81728 
L 251.898419 101.034 
L 254.948944 101.4984 
L 257.985328 101.33328 
L 261.0209 101.1372 
L 264.110027 101.06496 
L 267.173455 102.09696 
L 269.969672 102.05568 
L 273.270934 101.4984 
L 276.311561 100.60056 
L 279.36 100.80696 
" clip-path="url(#p6ae4c3d803)" style="fill: none; stroke: #bebebe; stroke-width: 0.5; stroke-linecap: round"/>
   </g>
   <g id="line2d_6">
    <path d="M 8.64 75.20304 
L 11.694237 75.17208 
L 14.748473 78.05136 
L 17.80271 75.1308 
L 20.856946 72.16896 
L 23.911183 73.08744 
L 26.965419 74.72832 
L 30.019656 74.48064 
L 33.073893 74.28456 
L 36.128129 73.21128 
L 39.182366 70.2804 
L 42.236602 70.2288 
L 45.290839 71.56008 
L 48.345075 73.79952 
L 51.399312 73.35576 
L 54.453549 74.0988 
L 57.507785 75.5952 
L 60.562022 75.5952 
L 63.616258 77.61792 
L 66.670495 77.63856 
L 69.724731 75.40944 
L 72.778968 75.40944 
L 75.833205 75.04824 
L 78.887441 74.98632 
L 81.941678 75.58488 
L 84.995914 75.87384 
L 88.050151 76.49304 
L 91.104387 76.15248 
L 94.158624 75.82224 
L 97.212861 75.84288 
L 100.267097 76.03896 
L 103.321334 75.51264 
L 106.37557 75.56424 
L 109.429807 75.05856 
L 112.484043 73.26288 
L 115.53828 73.20096 
L 118.592517 73.00488 
L 121.646753 71.68392 
L 124.70099 70.6932 
L 127.755226 72.62304 
L 130.809463 73.52088 
L 133.863699 73.83048 
L 136.917936 73.8408 
L 139.972172 73.29384 
L 143.026409 73.72728 
L 146.080646 70.32168 
L 149.134882 69.77472 
L 152.189119 70.34232 
L 155.243355 70.67256 
L 158.297592 70.51776 
L 161.351828 70.848 
L 164.406065 72.31344 
L 167.460302 76.01832 
L 170.514538 75.41976 
L 173.568775 75.83256 
L 176.623011 75.79128 
L 179.677248 75.82224 
L 182.731484 77.82432 
L 185.785721 76.14216 
L 188.839958 74.75928 
L 191.894194 74.96568 
L 194.948431 77.75208 
L 198.002667 79.48584 
L 201.056904 83.31456 
L 204.11114 85.90488 
L 207.165377 84.79032 
L 209.743838 85.84296 
L 212.171002 88.25784 
L 215.223683 91.41576 
L 218.26484 88.7532 
L 221.388893 88.65 
L 224.417925 88.55712 
L 227.489589 88.96992 
L 230.537498 89.7336 
L 233.580741 90.456 
L 236.634058 90.56952 
L 239.651566 89.15568 
L 242.544642 88.9596 
L 245.794788 90.6624 
L 248.465372 89.94 
L 251.898419 90.00192 
L 254.948944 90.3528 
L 257.985328 90.62112 
L 261.0209 90.5076 
L 264.110027 90.3528 
L 267.173455 92.004 
L 269.969672 92.13816 
L 273.270934 91.25064 
L 276.311561 89.166 
L 279.36 89.56848 
" clip-path="url(#p6ae4c3d803)" style="fill: none; stroke: #4a8dff; stroke-width: 0.6"/>
   </g>
   <g id="line2d_7">
    <path d="M 8.64 82.58184 
L 11.694237 83.03592 
L 14.748473 87.3084 
L 17.80271 82.06584 
L 20.856946 79.71288 
L 23.911183 81.24024 
L 26.965419 84.17112 
L 30.019656 84.24336 
L 33.073893 83.29392 
L 36.128129 82.8192 
L 39.182366 80.64168 
L 42.236602 81.38472 
L 45.290839 80.87904 
L 48.345075 83.13912 
L 51.399312 83.19072 
L 54.453549 85.296 
L 57.507785 87.17424 
L 60.562022 85.71912 
L 63.616258 87.53544 
L 66.670495 88.17528 
L 69.724731 85.41984 
L 72.778968 85.17216 
L 75.833205 84.9348 
L 78.887441 85.01736 
L 81.941678 86.14224 
L 84.995914 85.90488 
L 88.050151 86.328 
L 91.104387 86.24544 
L 94.158624 85.72944 
L 97.212861 85.7088 
L 100.267097 86.40024 
L 103.321334 85.09992 
L 106.37557 86.02872 
L 109.429807 84.78 
L 112.484043 83.53128 
L 115.53828 82.83984 
L 118.592517 82.03488 
L 121.646753 79.39296 
L 124.70099 79.66128 
L 127.755226 82.15872 
L 130.809463 82.43736 
L 133.863699 82.93272 
L 136.917936 83.00496 
L 139.972172 82.6128 
L 143.026409 82.28256 
L 146.080646 78.01008 
L 149.134882 76.19376 
L 152.189119 77.66952 
L 155.243355 77.74176 
L 158.297592 78.1752 
L 161.351828 79.5684 
L 164.406065 80.8068 
L 167.460302 85.20312 
L 170.514538 84.12984 
L 173.568775 84.03696 
L 176.623011 84.06792 
L 179.677248 84.3156 
L 182.731484 87.02976 
L 185.785721 85.21344 
L 188.839958 84.28464 
L 191.894194 84.32592 
L 194.948431 89.08344 
L 198.002667 89.5272 
L 201.056904 95.14128 
L 204.11114 96.98856 
L 207.165377 95.08968 
L 209.743838 97.71096 
L 212.171002 99.80592 
L 215.223683 101.79768 
L 218.26484 100.03296 
L 221.388893 100.518 
L 224.417925 99.98136 
L 227.489589 100.49736 
L 230.537498 100.78632 
L 233.580741 101.07528 
L 236.634058 101.26104 
L 239.651566 100.63152 
L 242.544642 100.38384 
L 245.794788 100.84824 
L 248.465372 100.65216 
L 251.898419 101.034 
L 254.948944 101.19912 
L 257.985328 101.10624 
L 261.0209 100.97208 
L 264.110027 100.91016 
L 267.173455 101.7564 
L 269.969672 101.84928 
L 273.270934 101.56032 
L 276.311561 100.85856 
L 279.36 101.12688 
" clip-path="url(#p6ae4c3d803)" style="fill: none; stroke: #f5841e; stroke-width: 0.6"/>
   </g>
  </g>
 </g>
 <defs>
  <clipPath id="p6ae4c3d803">
   <rect x="8.64" y="4.8" width="270.72" height="103.2"/>
  </clipPath>
 </defs>
</svg>
