<?xml version="1.0" encoding="utf-8" standalone="no"?>
<!DOCTYPE svg PUBLIC "-//W3C//DTD SVG 1.1//EN"
  "http://www.w3.org/Graphics/SVG/1.1/DTD/svg11.dtd">
<svg xmlns:xlink="http://www.w3.org/1999/xlink" width="288pt" height="120pt" viewBox="0 0 288 120" xmlns="http://www.w3.org/2000/svg" version="1.1">
<desc id="nav-meta">{"window":"3m","count":4,"labels":["22.11","22.12","21.01","20.02"],"tick_utc":["2025-11-22T12:00:00Z","2025-12-22T12:00:00Z","2026-01-21T12:00:00Z","2026-02-20T03:20:24Z"],"w":720,"h":300}</desc>

 <metadata>
  <rdf:RDF xmlns:dc="http://purl.org/dc/elements/1.1/" xmlns:cc="http://creativecommons.org/ns#" xmlns:rdf="http://www.w3.org/1999/02/22-rdf-syntax-ns#">
   <cc:Work>
    <dc:type rdf:resource="http://purl.org/dc/dcmitype/StillImage"/>
    <dc:date>2026-02-20T03:20:26.095763</dc:date>
    <dc:format>image/svg+xml</dc:format>
    <dc:creator>
     <cc:Agent>
      <dc:title>Matplotlib v3.10.8, https://matplotlib.org/</dc:title>
     </cc:Agent>
    </dc:creator>
   </cc:Work>
  </rdf:RDF>
 </metadata>
 <defs>
  <style type="text/css">*{stroke-linejoin: round; stroke-linecap: butt}</style>
 </defs>
 <g id="figure_1">
  <g id="patch_1">
   <path d="M 0 120 
L 288 120 
L 288 0 
L 0 0 
L 0 120 
z
" style="fill: none; opacity: 0"/>
  </g>
  <g id="axes_1">
   <g id="patch_2">
    <path d="M 8.64 108 
L 279.36 108 
L 279.36 4.8 
L 8.64 4.8 
L 8.64 108 
z
" style="fill: none"/>
   </g>
   <g id="matplotlib.axis_1"/>
   <g id="matplotlib.axis_2"/>
   <g id="line2d_1">
    <path d="M 8.64 87.36 
L 279.36 87.36 
" clip-path="url(#pba117358b2)" style="fill: none; stroke: #b2b2b2; stroke-opacity: 0.35; stroke-width: 0.5; stroke-linecap: square"/>
   </g>
   <g id="line2d_2">
    <path d="M 8.64 66.72 
L 279.36 66.72 
" clip-path="url(#pba117358b2)" style="fill: none; stroke: #b2b2b2; stroke-opacity: 0.35; stroke-width: 0.5; stroke-linecap: square"/>
   </g>
   <g id="line2d_3">
    <path d="M 8.64 46.08 
L 279.36 46.08 
" clip-path="url(#pba117358b2)" style="fill: none; stroke: #b2b2b2; stroke-opacity: 0.35; stroke-width: 0.5; stroke-linecap: square"/>
   </g>
   <g id="line2d_4">
    <path d="M 8.64 25.44 
L 279.36 25.44 
" clip-path="url(#pba117358b2)" style="fill: none; stroke: #b2b2b2; stroke-opacity: 0.35; stroke-width: 0.5; stroke-linecap: square"/>
   </g>
   <g id="line2d_5">
    <path d="M 8.64 91.39512 
L 11.660108 91.63248 
L 14.680217 90.75528 
L 17.700325 88.7016 
L 20.720434 88.52616 
L 23.740542 87.45288 
L 26.76065 88.0308 
L 29.780759 88.94928 
L 32.800867 89.3208 
L 35.820976 89.7336 
L 38.841084 91.86984 
L 41.861192 88.60872 
L 44.881301 86.87496 
L 47.901409 88.52616 
L 50.921518 90.11544 
L 53.941626 90.38376 
L 56.961734 90.53856 
L 59.981843 90.08448 
L 63.001951 88.79448 
L 66.02206 89.20728 
L 69.042168 89.22792 
L 72.062276 90.31152 
L 75.082385 90.10512 
L 78.102493 91.09584 
L 81.122602 91.61184 
L 84.14271 91.31256 
L 87.162818 92.87088 
L 90.182927 93.8616 
L 93.203035 92.02464 
L 96.223144 92.13816 
L 99.243252 92.07624 
L 102.26336 92.14848 
L 105.283469 92.64384 
L 108.303577 93.01536 
L 111.323686 93.69648 
L 114.343794 93.11856 
L 117.363902 92.44776 
L 120.384011 92.30328 
L 123.404119 92.87088 
L 126.424228 92.38584 
L 129.444336 92.47872 
L 132.464444 91.88016 
L 135.484553 90.42504 
L 138.504661 90.08448 
L 141.524769 89.92968 
L 144.544878 88.76352 
L 147.564986 87.94824 
L 150.585095 89.2692 
L 153.605203 88.72224 
L 156.625311 89.39304 
L 159.64542 89.40336 
L 162.665528 88.41264 
L 165.685637 88.4952 
L 168.705745 86.86464 
L 171.725853 86.42088 
L 174.745962 87.62832 
L 177.76607 86.93688 
L 180.786179 87.23616 
L 183.806287 88.63968 
L 186.826395 90.0432 
L 189.846504 92.12784 
L 192.866612 91.16808 
L 195.886721 91.46736 
L 198.906829 91.73568 
L 201.926937 91.78728 
L 204.947046 94.0164 
L 207.967154 92.5716 
L 210.987263 91.76664 
L 214.007371 92.33424 
L 217.027479 94.36728 
L 220.047588 94.46016 
L 223.067696 97.71096 
L 226.087805 98.48496 
L 229.107913 97.85544 
L 231.657563 99.10416 
L 234.057605 100.16712 
L 237.076175 102.23112 
L 240.08335 100.54896 
L 243.172495 100.70376 
L 246.16768 100.68312 
L 249.205022 100.95144 
L 252.218873 101.28168 
L 255.22811 101.71512 
L 258.24731 101.84928 
L 261.2311 101.034 
L 264.091849 100.54896 
L 267.305678 101.04432 
L 269.94642 100.81728 
L 273.341106 101.034 
L 276.357544 101.4984 
L 279.36 101.33328 
" clip-path="url(#pba117358b2)" style="fill: none; stroke: #bebebe; stroke-width: 0.5; stroke-linecap: round"/>
   </g>
   <g id="line2d_6">
    <path d="M 8.64 78.55704 
L 11.660108 78.50544 
L 14.680217 78.04104 
L 17.700325 75.76032 
L 20.720434 75.73968 
L 23.740542 74.65608 
L 26.76065 74.83152 
L 29.780759 74.57352 
L 32.800867 75.20304 
L 35.820976 75.17208 
L 38.841084 78.05136 
L 41.861192 75.1308 
L 44.881301 72.16896 
L 47.901409 73.08744 
L 50.921518 74.72832 
L 53.941626 74.48064 
L 56.961734 74.28456 
L 59.981843 73.21128 
L 63.001951 70.2804 
L 66.02206 70.2288 
L 69.042168 71.56008 
L 72.062276 73.79952 
L 75.082385 73.35576 
L 78.102493 74.0988 
L 81.122602 75.5952 
L 84.14271 75.5952 
L 87.162818 77.61792 
L 90.182927 77.63856 
L 93.203035 75.40944 
L 96.223144 75.40944 
L 99.243252 75.04824 
L 102.26336 74.98632 
L 105.283469 75.58488 
L 108.303577 75.87384 
L 111.323686 76.49304 
L 114.343794 76.15248 
L 117.363902 75.82224 
L 120.384011 75.84288 
L 123.404119 76.03896 
L 126.424228 75.51264 
L 129.444336 75.56424 
L 132.464444 75.05856 
L 135.484553 73.26288 
L 138.504661 73.20096 
L 141.524769 73.00488 
L 144.544878 71.68392 
L 147.564986 70.6932 
L 150.585095 72.62304 
L 153.605203 73.52088 
L 156.625311 73.83048 
L 159.64542 73.8408 
L 162.665528 73.29384 
L 165.685637 73.72728 
L 168.705745 70.32168 
L 171.725853 69.77472 
L 174.745962 70.34232 
L 177.76607 70.67256 
L 180.786179 70.51776 
L 183.806287 70.848 
L 186.826395 72.31344 
L 189.846504 76.01832 
L 192.866612 75.41976 
L 195.886721 75.83256 
L 198.906829 75.79128 
L 201.926937 75.82224 
L 204.947046 77.82432 
L 207.967154 76.14216 
L 210.987263 74.75928 
L 214.007371 74.96568 
L 217.027479 77.75208 
L 220.047588 79.48584 
L 223.067696 83.31456 
L 226.087805 85.90488 
L 229.107913 84.79032 
L 231.657563 85.84296 
L 234.057605 88.25784 
L 237.076175 91.41576 
L 240.08335 88.7532 
L 243.172495 88.65 
L 246.16768 88.55712 
L 249.205022 88.96992 
L 252.218873 89.7336 
L 255.22811 90.456 
L 258.24731 90.56952 
L 261.2311 89.15568 
L 264.091849 88.9596 
L 267.305678 90.6624 
L 269.94642 89.94 
L 273.341106 90.00192 
L 276.357544 90.3528 
L 279.36 90.62112 
" clip-path="url(#pba117358b2)" style="fill: none; stroke: #4a8dff; stroke-width: 0.6"/>
   </g>
   <g id="line2d_7">
    <path d="M 8.64 88.58808 
L 11.660108 88.96992 
L 14.680217 86.7924 
L 17.700325 85.296 
L 20.720434 86.24544 
L 23.740542 82.96368 
L 26.76065 82.13808 
L 29.780759 82.47864 
L 32.800867 82.58184 
L 35.820976 83.03592 
L 38.841084 87.3084 
L 41.861192 82.06584 
L 44.881301 79.71288 
L 47.901409 81.24024 
L 50.921518 84.17112 
L 53.941626 84.24336 
L 56.961734 83.29392 
L 59.981843 82.8192 
L 63.001951 80.64168 
L 66.02206 81.38472 
L 69.042168 80.87904 
L 72.062276 83.13912 
L 75.082385 83.19072 
L 78.102493 85.296 
L 81.122602 87.17424 
L 84.14271 85.71912 
L 87.162818 87.53544 
L 90.182927 88.17528 
L 93.203035 85.41984 
L 96.223144 85.17216 
L 99.243252 84.9348 
L 102.26336 85.01736 
L 105.283469 86.14224 
L 108.303577 85.90488 
L 111.323686 86.328 
L 114.343794 86.24544 
L 117.363902 85.72944 
L 120.384011 85.7088 
L 123.404119 86.40024 
L 126.424228 85.09992 
L 129.444336 86.02872 
L 132.464444 84.78 
L 135.484553 83.53128 
L 138.504661 82.83984 
L 141.524769 82.03488 
L 144.544878 79.39296 
L 147.564986 79.66128 
L 150.585095 82.15872 
L 153.605203 82.43736 
L 156.625311 82.93272 
L 159.64542 83.00496 
L 162.665528 82.6128 
L 165.685637 82.28256 
L 168.705745 78.01008 
L 171.725853 76.19376 
L 174.745962 77.66952 
L 177.76607 77.74176 
L 180.786179 78.1752 
L 183.806287 79.5684 
L 186.826395 80.8068 
L 189.846504 85.20312 
L 192.866612 84.12984 
L 195.886721 84.03696 
L 198.906829 84.06792 
L 201.926937 84.3156 
L 204.947046 87.02976 
L 207.967154 85.21344 
L 210.987263 84.28464 
L 214.007371 84.32592 
L 217.027479 89.08344 
L 220.047588 89.5272 
L 223.067696 95.14128 
L 226.087805 96.98856 
L 229.107913 95.08968 
L 231.657563 97.71096 
L 234.057605 99.80592 
L 237.076175 101.79768 
L 240.08335 100.03296 
L 243.172495 100.518 
L 246.16768 99.98136 
L 249.205022 100.49736 
L 252.218873 100.78632 
L 255.22811 101.07528 
L 258.24731 101.26104 
L 261.2311 100.63152 
L 264.091849 100.38384 
L 267.305678 100.84824 
L 269.94642 100.65216 
L 273.341106 101.034 
L 276.357544 101.19912 
L 279.36 101.10624 
" clip-path="url(#pba117358b2)" style="fill: none; stroke: #f5841e; stroke-width: 0.6"/>
   </g>
  </g>
 </g>
 <defs>
  <clipPath id="pba117358b2">
   <rect x="8.64" y="4.8" width="270.72" height="103.2"/>
  </clipPath>
 </defs>
</svg>
