<?xml version="1.0" encoding="utf-8" standalone="no"?>
<!DOCTYPE svg PUBLIC "-//W3C//DTD SVG 1.1//EN"
  "http://www.w3.org/Graphics/SVG/1.1/DTD/svg11.dtd">
<svg xmlns:xlink="http://www.w3.org/1999/xlink" width="288pt" height="120pt" viewBox="0 0 288 120" xmlns="http://www.w3.org/2000/svg" version="1.1">
<desc id="nav-meta">{"window":"1y","count":4,"labels":["07.05","06.09","05.01","07.05"],"tick_utc":["2025-05-07T12:00:00Z","2025-09-06T12:00:00Z","2026-01-05T12:00:00Z","2026-05-07T04:25:17Z"],"w":720,"h":300}</desc>

 <metadata>
  <rdf:RDF xmlns:dc="http://purl.org/dc/elements/1.1/" xmlns:cc="http://creativecommons.org/ns#" xmlns:rdf="http://www.w3.org/1999/02/22-rdf-syntax-ns#">
   <cc:Work>
    <dc:type rdf:resource="http://purl.org/dc/dcmitype/StillImage"/>
    <dc:date>2026-05-07T04:25:19.374616</dc:date>
    <dc:format>image/svg+xml</dc:format>
    <dc:creator>
     <cc:Agent>
      <dc:title>Matplotlib v3.10.9, https://matplotlib.org/</dc:title>
     </cc:Agent>
    </dc:creator>
   </cc:Work>
  </rdf:RDF>
 </metadata>
 <defs>
  <style type="text/css">*{stroke-linejoin: round; stroke-linecap: butt}</style>
 </defs>
 <g id="figure_1">
  <g id="patch_1">
   <path d="M 0 120 
L 288 120 
L 288 0 
L 0 0 
L 0 120 
z
" style="fill: none; opacity: 0"/>
  </g>
  <g id="axes_1">
   <g id="patch_2">
    <path d="M 8.64 108 
L 279.36 108 
L 279.36 4.8 
L 8.64 4.8 
L 8.64 108 
z
" style="fill: none"/>
   </g>
   <g id="matplotlib.axis_1"/>
   <g id="matplotlib.axis_2"/>
   <g id="line2d_1">
    <path d="M 8.64 87.36 
L 279.36 87.36 
" clip-path="url(#p0315fdbefa)" style="fill: none; stroke: #b2b2b2; stroke-opacity: 0.35; stroke-width: 0.5; stroke-linecap: square"/>
   </g>
   <g id="line2d_2">
    <path d="M 8.64 66.72 
L 279.36 66.72 
" clip-path="url(#p0315fdbefa)" style="fill: none; stroke: #b2b2b2; stroke-opacity: 0.35; stroke-width: 0.5; stroke-linecap: square"/>
   </g>
   <g id="line2d_3">
    <path d="M 8.64 46.08 
L 279.36 46.08 
" clip-path="url(#p0315fdbefa)" style="fill: none; stroke: #b2b2b2; stroke-opacity: 0.35; stroke-width: 0.5; stroke-linecap: square"/>
   </g>
   <g id="line2d_4">
    <path d="M 8.64 25.44 
L 279.36 25.44 
" clip-path="url(#p0315fdbefa)" style="fill: none; stroke: #b2b2b2; stroke-opacity: 0.35; stroke-width: 0.5; stroke-linecap: square"/>
   </g>
   <g id="line2d_5">
    <path d="M 8.64 86.36928 
L 9.382341 86.28672 
L 10.124682 81.84912 
L 10.867023 79.32072 
L 11.609363 78.05136 
L 12.351704 79.26912 
L 13.094045 78.846 
L 13.836386 76.2144 
L 15.321068 80.394 
L 16.063409 80.66232 
L 16.805749 81.168 
L 17.54809 79.63032 
L 18.290431 80.95128 
L 19.032772 80.4972 
L 20.517454 77.43216 
L 21.259795 78.846 
L 22.002135 78.41256 
L 22.744476 78.64992 
L 23.486817 78.76344 
L 24.229158 78.25776 
L 24.971499 79.47552 
L 25.71384 80.92032 
L 26.456181 83.73768 
L 27.198521 83.6448 
L 27.940862 83.4384 
L 28.683203 83.61384 
L 29.425544 83.99568 
L 30.167885 84.55296 
L 30.910226 87.00912 
L 31.652567 85.98744 
L 32.394907 85.5024 
L 33.137248 84.8316 
L 33.879589 82.46832 
L 34.62193 81.426 
L 35.364271 82.5096 
L 36.106612 84.79032 
L 37.591293 86.95752 
L 38.333634 84.79032 
L 39.075975 85.13088 
L 39.818316 86.07 
L 40.560657 86.5344 
L 41.302998 86.31768 
L 42.787679 89.97096 
L 43.53002 90.48696 
L 44.272361 86.9472 
L 45.014702 86.66856 
L 45.757043 87.32904 
L 46.499384 88.53648 
L 47.241725 87.6696 
L 47.984065 85.30632 
L 48.726406 84.61488 
L 49.468747 84.17112 
L 50.211088 86.3796 
L 50.953429 84.92448 
L 51.69577 84.89352 
L 52.438111 86.13192 
L 53.180451 86.1732 
L 53.922792 84.99672 
L 54.665133 85.85328 
L 55.407474 85.01736 
L 56.149815 83.55192 
L 56.892156 81.7356 
L 57.634497 82.03488 
L 58.376837 82.65408 
L 59.861519 82.15872 
L 60.60386 81.70464 
L 61.346201 79.01112 
L 62.088542 78.39192 
L 62.830883 78.04104 
L 63.573223 78.16488 
L 64.315564 77.05032 
L 65.057905 72.82944 
L 65.800246 70.41456 
L 66.542587 74.69736 
L 67.284928 76.6272 
L 68.027269 75.63648 
L 68.769609 75.97704 
L 69.51195 74.976 
L 70.254291 76.49304 
L 70.996632 76.99872 
L 71.738973 77.90688 
L 72.481314 79.4652 
L 73.223655 82.02456 
L 73.965995 83.19072 
L 74.708336 82.27224 
L 75.450677 80.21856 
L 76.193018 81.67368 
L 76.935359 80.5488 
L 77.6777 78.588 
L 78.420041 78.19584 
L 79.162381 77.21544 
L 79.904722 76.524 
L 80.647063 78.68088 
L 81.389404 73.88208 
L 82.131745 71.364 
L 82.874086 73.8408 
L 83.616427 75.79128 
L 84.358767 74.65608 
L 85.101108 74.14008 
L 85.843449 76.50336 
L 86.58579 78.30936 
L 87.328131 75.3372 
L 88.070472 77.25672 
L 88.812813 71.78712 
L 89.555153 70.75512 
L 90.297494 70.24944 
L 91.039835 75.35784 
L 91.782176 72.95328 
L 92.524517 70.96152 
L 93.266858 67.87584 
L 94.009199 70.46616 
L 94.751539 71.11632 
L 95.49388 71.61168 
L 96.236221 72.7056 
L 96.978562 69.33096 
L 97.720903 68.9388 
L 98.463244 71.12664 
L 99.205585 70.90992 
L 99.947925 71.80776 
L 100.690266 70.074 
L 101.432607 68.01 
L 102.174948 67.10184 
L 102.917289 65.29584 
L 103.65963 64.01616 
L 104.401971 60.31128 
L 105.144311 60.19776 
L 105.886652 60.786 
L 106.628993 62.61264 
L 107.371334 61.74576 
L 108.113675 59.57856 
L 108.856016 58.86648 
L 109.598357 61.38456 
L 110.340697 61.07496 
L 111.083038 61.83864 
L 111.825379 66.29688 
L 112.56772 67.97904 
L 113.310061 68.69112 
L 114.052402 73.9956 
L 114.794743 70.45584 
L 115.537083 70.87896 
L 116.279424 68.91816 
L 117.021765 68.3196 
L 117.764106 69.47544 
L 119.248788 62.39592 
L 119.991129 62.81904 
L 120.733469 64.22256 
L 121.47581 64.05744 
L 122.218151 62.9532 
L 122.960492 66.14208 
L 123.702833 63.91296 
L 124.445174 66.17304 
L 125.187515 74.6148 
L 125.929856 77.78304 
L 126.672196 72.66432 
L 127.414537 69.69216 
L 128.156878 71.09568 
L 129.64156 76.06992 
L 130.383901 76.76136 
L 131.126242 75.25464 
L 131.868582 75.24432 
L 132.610923 74.63544 
L 133.353264 75.73968 
L 134.095605 77.31864 
L 134.837946 74.202 
L 135.580287 73.64472 
L 136.322628 73.48992 
L 137.064968 71.83872 
L 137.807309 72.17928 
L 138.54965 73.38672 
L 139.291991 73.43832 
L 140.034332 76.15248 
L 140.776673 75.3372 
L 141.519014 75.58488 
L 142.261354 75.35784 
L 143.003695 81.168 
L 143.746036 84.01632 
L 144.488377 82.06584 
L 145.230718 84.19176 
L 145.973059 82.27224 
L 146.7154 83.29392 
L 147.45774 81.62208 
L 148.200081 80.72424 
L 148.942422 84.33624 
L 149.684763 84.64584 
L 150.427104 86.844 
L 151.169445 88.52616 
L 151.911786 88.36104 
L 152.654126 88.93896 
L 153.396467 90.79656 
L 154.138808 88.09272 
L 154.881149 89.22792 
L 155.62349 90.00192 
L 156.365831 91.39512 
L 157.108172 91.63248 
L 157.850512 90.75528 
L 158.592853 88.7016 
L 159.335194 88.52616 
L 160.077535 87.45288 
L 160.819876 88.0308 
L 161.562217 88.94928 
L 163.046898 89.7336 
L 163.789239 91.86984 
L 164.53158 88.60872 
L 165.273921 86.87496 
L 166.758603 90.11544 
L 168.243284 90.53856 
L 168.985625 90.08448 
L 169.727966 88.79448 
L 170.470307 89.20728 
L 171.212648 89.22792 
L 171.954989 90.31152 
L 172.69733 90.10512 
L 173.43967 91.09584 
L 174.182011 91.61184 
L 174.924352 91.31256 
L 175.666693 92.87088 
L 176.409034 93.8616 
L 177.151375 92.02464 
L 177.893716 92.13816 
L 178.636056 92.07624 
L 179.378397 92.14848 
L 181.60542 93.69648 
L 183.090102 92.44776 
L 183.832442 92.30328 
L 184.574783 92.87088 
L 185.317124 92.38584 
L 186.059465 92.47872 
L 186.801806 91.88016 
L 187.544147 90.42504 
L 188.286488 90.08448 
L 189.028828 89.92968 
L 189.771169 88.76352 
L 190.51351 87.94824 
L 191.255851 89.2692 
L 191.998192 88.72224 
L 192.740533 89.39304 
L 193.482874 89.40336 
L 194.225214 88.41264 
L 194.967555 88.4952 
L 195.709896 86.86464 
L 196.452237 86.42088 
L 197.194578 87.62832 
L 197.936919 86.93688 
L 198.67926 87.23616 
L 200.163941 90.0432 
L 200.906282 92.12784 
L 201.648623 91.16808 
L 203.133305 91.73568 
L 203.875646 91.78728 
L 204.617986 94.0164 
L 205.360327 92.5716 
L 206.102668 91.76664 
L 206.845009 92.33424 
L 207.58735 94.36728 
L 208.329691 94.46016 
L 209.072032 97.71096 
L 209.814372 98.48496 
L 210.556713 97.85544 
L 211.773345 100.16712 
L 212.515307 102.23112 
L 213.254469 100.54896 
L 214.013779 100.70376 
L 214.749994 100.68312 
L 216.237374 101.28168 
L 216.977042 101.71512 
L 217.71916 101.84928 
L 218.452574 101.034 
L 219.155744 100.54896 
L 219.945701 101.04432 
L 220.594794 100.81728 
L 221.429206 101.034 
L 222.170645 101.4984 
L 224.397272 101.06496 
L 225.141847 102.09696 
L 225.821475 102.05568 
L 226.623856 101.4984 
L 227.362889 100.60056 
L 228.103821 100.80696 
L 228.837415 101.45712 
L 229.596622 100.55928 
L 230.331299 101.10624 
L 231.813549 100.74504 
L 232.557488 100.21872 
L 233.299477 100.53864 
L 234.036121 101.07528 
L 234.785671 101.38488 
L 235.530237 101.26104 
L 236.267809 100.78632 
L 237.75512 100.99272 
L 238.496026 100.38384 
L 239.993922 100.60056 
L 240.738359 99.76464 
L 241.467709 99.49632 
L 242.215712 99.40344 
L 242.958259 100.09488 
L 243.693374 100.3632 
L 244.431368 100.19808 
L 245.928894 100.79664 
L 246.664362 100.26 
L 247.461991 99.83688 
L 248.158073 100.13616 
L 249.636595 101.38488 
L 252.619877 101.28168 
L 253.35244 101.8596 
L 254.095632 101.88024 
L 254.831615 101.72544 
L 255.585134 101.68416 
L 256.32939 101.47776 
L 257.066911 101.78736 
L 257.810455 101.09592 
L 258.55021 101.46744 
L 259.299381 101.3436 
L 260.030372 101.05464 
L 260.78603 101.3952 
L 261.532177 101.47776 
L 262.269793 100.86888 
L 263.011566 101.26104 
L 265.232102 100.44576 
L 265.984246 100.94112 
L 266.728426 101.09592 
L 267.46751 101.00304 
L 268.207549 100.69344 
L 268.952897 100.9308 
L 271.184576 100.8792 
L 271.934916 100.64184 
L 272.678812 101.1888 
L 273.419125 101.09592 
L 274.162712 101.37456 
L 274.913163 101.21976 
L 276.39397 101.23008 
L 277.136053 100.92048 
L 277.862044 101.06496 
L 278.617462 100.70376 
L 279.36 100.55928 
L 279.36 100.55928 
" clip-path="url(#p0315fdbefa)" style="fill: none; stroke: #bebebe; stroke-width: 0.5; stroke-linecap: round"/>
   </g>
   <g id="line2d_6">
    <path d="M 8.64 92.63352 
L 9.382341 92.71608 
L 10.124682 86.97816 
L 10.867023 84.84192 
L 11.609363 81.24024 
L 12.351704 82.37544 
L 13.094045 82.60248 
L 13.836386 79.86768 
L 15.321068 81.85944 
L 16.063409 81.82848 
L 16.805749 82.86048 
L 17.54809 83.00496 
L 18.290431 82.08648 
L 19.032772 82.12776 
L 19.775113 81.61176 
L 20.517454 80.15664 
L 21.259795 82.18968 
L 22.744476 81.79752 
L 23.486817 81.56016 
L 24.229158 80.0844 
L 24.971499 79.86768 
L 25.71384 80.50752 
L 26.456181 82.12776 
L 27.940862 81.92136 
L 28.683203 80.8584 
L 29.425544 81.07512 
L 30.167885 80.84808 
L 30.910226 83.6448 
L 31.652567 82.7676 
L 32.394907 82.0968 
L 33.137248 82.3548 
L 33.879589 79.74384 
L 34.62193 77.90688 
L 35.364271 78.39192 
L 36.106612 80.21856 
L 36.848953 81.34344 
L 37.591293 81.98328 
L 39.075975 81.5808 
L 39.818316 82.26192 
L 41.302998 82.15872 
L 42.045339 83.88216 
L 42.787679 85.89456 
L 43.53002 86.5344 
L 44.272361 83.61384 
L 45.014702 83.2836 
L 45.757043 83.71704 
L 46.499384 83.748 
L 47.984065 83.41776 
L 48.726406 82.44768 
L 49.468747 82.6644 
L 50.211088 83.89248 
L 50.953429 81.38472 
L 51.69577 81.14736 
L 52.438111 82.34448 
L 53.180451 82.23096 
L 53.922792 81.426 
L 54.665133 81.8388 
L 55.407474 80.76552 
L 56.892156 75.83256 
L 57.634497 75.67776 
L 58.376837 75.91512 
L 59.861519 74.88312 
L 60.60386 73.09776 
L 61.346201 69.6096 
L 62.088542 67.91712 
L 62.830883 66.94704 
L 63.573223 66.24528 
L 64.315564 63.80976 
L 65.057905 63.70656 
L 65.800246 63.9852 
L 66.542587 65.71896 
L 67.284928 64.5528 
L 68.769609 64.05744 
L 69.51195 62.25144 
L 70.254291 63.39696 
L 70.996632 63.366 
L 71.738973 63.08736 
L 72.481314 64.72824 
L 73.223655 67.89648 
L 73.965995 69.16584 
L 74.708336 67.69008 
L 75.450677 64.4496 
L 76.193018 65.97696 
L 76.935359 64.914 
L 77.6777 61.54968 
L 78.420041 60.04296 
L 79.162381 56.28648 
L 79.904722 56.47224 
L 80.647063 56.83344 
L 81.389404 51.22968 
L 82.131745 48.89736 
L 82.874086 52.00368 
L 83.616427 53.84064 
L 84.358767 53.90256 
L 85.101108 53.00472 
L 85.843449 55.5228 
L 86.58579 59.12448 
L 87.328131 55.32672 
L 88.070472 56.90568 
L 88.812813 47.92728 
L 89.555153 48.75288 
L 90.297494 48.68064 
L 91.039835 54.57336 
L 91.782176 51.2916 
L 92.524517 52.80864 
L 93.266858 52.69512 
L 94.009199 54.82104 
L 95.49388 54.45984 
L 96.236221 55.7292 
L 96.978562 55.39896 
L 97.720903 53.55168 
L 98.463244 55.81176 
L 99.205585 55.6776 
L 99.947925 56.18328 
L 100.690266 55.71888 
L 102.174948 55.63632 
L 102.917289 55.07904 
L 103.65963 53.41752 
L 104.401971 49.71264 
L 105.144311 50.32152 
L 105.886652 51.17808 
L 106.628993 52.44744 
L 107.371334 52.74672 
L 108.113675 51.4464 
L 108.856016 51.46704 
L 109.598357 53.2524 
L 110.340697 53.08728 
L 111.083038 53.5104 
L 111.825379 57.26688 
L 112.56772 57.76224 
L 113.310061 58.02024 
L 114.052402 62.26176 
L 114.794743 59.68176 
L 115.537083 59.9604 
L 116.279424 58.12344 
L 117.021765 57.02952 
L 117.764106 58.09248 
L 118.506447 55.13064 
L 119.248788 53.046 
L 119.991129 52.5816 
L 120.733469 52.9944 
L 121.47581 52.5816 
L 122.218151 50.0016 
L 122.960492 53.48976 
L 123.702833 52.40616 
L 124.445174 54.75912 
L 125.187515 62.67456 
L 125.929856 63.95424 
L 126.672196 57.86544 
L 127.414537 56.57544 
L 128.156878 58.31952 
L 128.899219 60.4764 
L 129.64156 61.85928 
L 130.383901 62.73648 
L 131.126242 61.8696 
L 131.868582 60.45576 
L 132.610923 60.54864 
L 133.353264 62.04504 
L 134.095605 63.16992 
L 134.837946 62.36496 
L 135.580287 61.21944 
L 136.322628 60.9408 
L 137.064968 57.83448 
L 137.807309 58.40208 
L 138.54965 60.49704 
L 140.034332 63.1596 
L 140.776673 62.49912 
L 141.519014 62.1276 
L 142.261354 61.56 
L 143.746036 70.66224 
L 144.488377 68.72208 
L 145.230718 70.4868 
L 145.973059 68.61888 
L 146.7154 69.11424 
L 147.45774 66.5136 
L 148.200081 66.68904 
L 148.942422 68.8872 
L 149.684763 68.9904 
L 150.427104 71.5704 
L 151.169445 73.48992 
L 151.911786 72.54048 
L 153.396467 74.74896 
L 154.138808 73.3248 
L 154.881149 74.80056 
L 155.62349 77.556 
L 156.365831 78.55704 
L 157.108172 78.50544 
L 157.850512 78.04104 
L 158.592853 75.76032 
L 159.335194 75.73968 
L 160.077535 74.65608 
L 160.819876 74.83152 
L 161.562217 74.57352 
L 162.304558 75.20304 
L 163.046898 75.17208 
L 163.789239 78.05136 
L 165.273921 72.16896 
L 166.016262 73.08744 
L 166.758603 74.72832 
L 168.243284 74.28456 
L 168.985625 73.21128 
L 169.727966 70.2804 
L 170.470307 70.2288 
L 171.212648 71.56008 
L 171.954989 73.79952 
L 172.69733 73.35576 
L 173.43967 74.0988 
L 174.182011 75.5952 
L 174.924352 75.5952 
L 175.666693 77.61792 
L 176.409034 77.63856 
L 177.151375 75.40944 
L 177.893716 75.40944 
L 178.636056 75.04824 
L 179.378397 74.98632 
L 180.120738 75.58488 
L 180.863079 75.87384 
L 181.60542 76.49304 
L 183.090102 75.82224 
L 183.832442 75.84288 
L 184.574783 76.03896 
L 185.317124 75.51264 
L 186.059465 75.56424 
L 186.801806 75.05856 
L 187.544147 73.26288 
L 188.286488 73.20096 
L 189.028828 73.00488 
L 189.771169 71.68392 
L 190.51351 70.6932 
L 191.255851 72.62304 
L 191.998192 73.52088 
L 192.740533 73.83048 
L 193.482874 73.8408 
L 194.225214 73.29384 
L 194.967555 73.72728 
L 195.709896 70.32168 
L 196.452237 69.77472 
L 197.194578 70.34232 
L 197.936919 70.67256 
L 198.67926 70.51776 
L 199.4216 70.848 
L 200.163941 72.31344 
L 200.906282 76.01832 
L 201.648623 75.41976 
L 202.390964 75.83256 
L 203.875646 75.82224 
L 204.617986 77.82432 
L 205.360327 76.14216 
L 206.102668 74.75928 
L 206.845009 74.96568 
L 207.58735 77.75208 
L 208.329691 79.48584 
L 209.072032 83.31456 
L 209.814372 85.90488 
L 210.556713 84.79032 
L 211.183416 85.84296 
L 212.515307 91.41576 
L 213.254469 88.7532 
L 214.749994 88.55712 
L 215.496571 88.96992 
L 216.977042 90.456 
L 217.71916 90.56952 
L 218.452574 89.15568 
L 219.155744 88.9596 
L 219.945701 90.6624 
L 220.594794 89.94 
L 221.429206 90.00192 
L 222.908647 90.62112 
L 224.397272 90.3528 
L 225.141847 92.004 
L 225.821475 92.13816 
L 226.623856 91.25064 
L 227.362889 89.166 
L 228.103821 89.56848 
L 228.837415 90.93072 
L 229.596622 89.41368 
L 230.331299 90.37344 
L 231.075367 89.79552 
L 231.813549 90.23928 
L 232.557488 88.0824 
L 233.299477 88.7532 
L 234.036121 90.16704 
L 234.785671 90.67272 
L 235.530237 90.18768 
L 236.267809 89.2692 
L 237.009858 89.54784 
L 237.75512 89.49624 
L 238.496026 88.31976 
L 239.237379 88.45392 
L 239.993922 88.46424 
L 240.738359 86.38992 
L 241.467709 84.80064 
L 242.215712 84.8316 
L 242.958259 86.586 
L 243.693374 87.74184 
L 244.431368 87.618 
L 245.184809 88.19592 
L 245.928894 89.08344 
L 246.664362 87.89664 
L 247.461991 87.3084 
L 248.158073 87.65928 
L 249.636595 90.07416 
L 251.133511 89.3724 
L 251.87117 89.00088 
L 252.619877 88.42296 
L 254.095632 89.10408 
L 254.831615 89.14536 
L 255.585134 89.07312 
L 256.32939 87.9792 
L 257.066911 88.29912 
L 257.810455 86.38992 
L 258.55021 87.24648 
L 259.299381 87.1536 
L 260.030372 86.21448 
L 261.532177 87.01944 
L 262.269793 84.44976 
L 263.011566 85.05864 
L 263.757121 84.58392 
L 264.497949 85.04832 
L 265.232102 83.71704 
L 265.984246 84.86256 
L 266.728426 85.6572 
L 267.46751 85.27536 
L 268.207549 84.49104 
L 269.697205 85.32696 
L 270.430688 85.17216 
L 271.184576 85.31664 
L 271.934916 84.11952 
L 272.678812 85.66752 
L 273.419125 85.26504 
L 274.162712 86.26608 
L 275.636559 85.38888 
L 276.39397 85.3992 
L 277.136053 84.09888 
L 278.617462 84.34656 
L 279.36 85.06896 
L 279.36 85.06896 
" clip-path="url(#p0315fdbefa)" style="fill: none; stroke: #4a8dff; stroke-width: 0.6"/>
   </g>
   <g id="line2d_7">
    <path d="M 8.64 76.35888 
L 9.382341 76.18344 
L 10.124682 69.90888 
L 10.867023 70.03272 
L 11.609363 68.29896 
L 12.351704 68.95944 
L 13.094045 70.11528 
L 13.836386 68.76336 
L 14.578727 69.37224 
L 15.321068 69.25872 
L 16.063409 69.41352 
L 16.805749 69.77472 
L 17.54809 66.85416 
L 18.290431 67.26696 
L 19.032772 66.06984 
L 19.775113 63.08736 
L 20.517454 61.12656 
L 21.259795 65.62608 
L 22.002135 64.98624 
L 22.744476 63.91296 
L 23.486817 63.38664 
L 24.229158 63.70656 
L 24.971499 64.97592 
L 25.71384 67.14312 
L 26.456181 68.9388 
L 27.198521 68.23704 
L 27.940862 67.1844 
L 28.683203 66.99864 
L 29.425544 67.47336 
L 30.167885 68.1132 
L 30.910226 71.38464 
L 31.652567 68.526 
L 32.394907 67.21536 
L 33.137248 67.20504 
L 33.879589 62.46816 
L 34.62193 62.51976 
L 35.364271 64.10904 
L 36.106612 66.90576 
L 36.848953 66.83352 
L 37.591293 67.42176 
L 38.333634 67.3392 
L 39.075975 65.8944 
L 39.818316 68.24736 
L 41.302998 68.23704 
L 42.045339 69.69216 
L 42.787679 71.50848 
L 43.53002 72.21024 
L 44.272361 67.3908 
L 45.014702 66.90576 
L 45.757043 65.59512 
L 46.499384 65.86344 
L 47.241725 65.76024 
L 47.984065 65.50224 
L 48.726406 64.398 
L 49.468747 65.70864 
L 50.211088 67.2876 
L 50.953429 63.95424 
L 51.69577 63.14928 
L 52.438111 64.76952 
L 53.180451 64.58376 
L 53.922792 63.55176 
L 54.665133 64.5012 
L 55.407474 63.82008 
L 56.149815 61.36392 
L 56.892156 56.64768 
L 57.634497 54.89328 
L 58.376837 55.04808 
L 59.119178 53.29368 
L 59.861519 52.55064 
L 60.60386 54.77976 
L 61.346201 53.67552 
L 62.088542 52.95312 
L 62.830883 54.45984 
L 63.573223 54.55272 
L 64.315564 55.22352 
L 65.057905 54.98616 
L 65.800246 52.4268 
L 66.542587 53.79936 
L 67.284928 54.08832 
L 68.027269 54.92424 
L 68.769609 54.4908 
L 69.51195 52.98408 
L 70.254291 54.44952 
L 70.996632 54.60432 
L 71.738973 54.62496 
L 73.223655 59.38248 
L 73.965995 60.09456 
L 74.708336 58.39176 
L 75.450677 57.41136 
L 76.193018 58.464 
L 76.935359 57.5352 
L 77.6777 55.0068 
L 78.420041 55.81176 
L 79.162381 55.99752 
L 79.904722 53.13888 
L 80.647063 53.64456 
L 81.389404 52.1688 
L 82.131745 48.69096 
L 82.874086 54.0264 
L 83.616427 55.13064 
L 84.358767 54.96552 
L 85.101108 54.92424 
L 85.843449 56.25552 
L 86.58579 59.8572 
L 87.328131 58.32984 
L 88.070472 60.23904 
L 88.812813 55.65696 
L 89.555153 57.18432 
L 90.297494 59.21736 
L 91.039835 62.55072 
L 91.782176 60.82728 
L 92.524517 61.47744 
L 93.266858 60.12552 
L 94.009199 64.31544 
L 94.751539 63.99552 
L 95.49388 64.5528 
L 96.236221 63.60336 
L 96.978562 61.5084 
L 97.720903 60.96144 
L 98.463244 61.98312 
L 99.205585 62.05536 
L 99.947925 62.51976 
L 101.432607 60.64152 
L 102.174948 61.13688 
L 102.917289 58.6188 
L 103.65963 57.03984 
L 104.401971 56.35872 
L 105.144311 56.5548 
L 105.886652 57.174 
L 106.628993 57.14304 
L 107.371334 55.7292 
L 108.113675 56.04912 
L 108.856016 55.33704 
L 109.598357 56.87472 
L 110.340697 56.8128 
L 111.083038 57.24624 
L 111.825379 59.93976 
L 112.56772 60.64152 
L 113.310061 59.29992 
L 114.052402 63.80976 
L 114.794743 63.03576 
L 115.537083 63.09768 
L 117.021765 58.27824 
L 117.764106 58.5672 
L 118.506447 53.93352 
L 119.248788 51.74568 
L 119.991129 50.04288 
L 120.733469 49.90872 
L 122.218151 47.43192 
L 122.960492 50.80656 
L 123.702833 48.90768 
L 124.445174 50.6208 
L 125.187515 59.42376 
L 125.929856 61.85928 
L 126.672196 57.35976 
L 127.414537 57.3288 
L 128.156878 59.46504 
L 129.64156 64.72824 
L 130.383901 66.42072 
L 131.126242 65.688 
L 131.868582 64.17096 
L 132.610923 62.10696 
L 133.353264 64.30512 
L 134.095605 65.20296 
L 134.837946 62.68488 
L 135.580287 61.70448 
L 136.322628 61.06464 
L 137.064968 58.1028 
L 137.807309 58.40208 
L 138.54965 59.68176 
L 139.291991 62.6952 
L 140.034332 64.56312 
L 140.776673 63.18024 
L 141.519014 62.72616 
L 142.261354 62.06568 
L 143.003695 66.33816 
L 143.746036 71.40528 
L 144.488377 69.08328 
L 145.230718 71.7252 
L 145.973059 69.57864 
L 146.7154 70.72416 
L 147.45774 68.2164 
L 148.200081 66.978 
L 148.942422 70.03272 
L 149.684763 71.5188 
L 150.427104 73.3764 
L 151.169445 78.846 
L 151.911786 77.75208 
L 152.654126 78.88728 
L 153.396467 81.34344 
L 154.138808 80.53848 
L 154.881149 82.0452 
L 155.62349 86.92656 
L 156.365831 88.58808 
L 157.108172 88.96992 
L 157.850512 86.7924 
L 158.592853 85.296 
L 159.335194 86.24544 
L 160.077535 82.96368 
L 160.819876 82.13808 
L 161.562217 82.47864 
L 162.304558 82.58184 
L 163.046898 83.03592 
L 163.789239 87.3084 
L 164.53158 82.06584 
L 165.273921 79.71288 
L 166.016262 81.24024 
L 166.758603 84.17112 
L 167.500944 84.24336 
L 168.243284 83.29392 
L 168.985625 82.8192 
L 169.727966 80.64168 
L 170.470307 81.38472 
L 171.212648 80.87904 
L 171.954989 83.13912 
L 172.69733 83.19072 
L 174.182011 87.17424 
L 174.924352 85.71912 
L 175.666693 87.53544 
L 176.409034 88.17528 
L 177.151375 85.41984 
L 178.636056 84.9348 
L 179.378397 85.01736 
L 180.120738 86.14224 
L 180.863079 85.90488 
L 181.60542 86.328 
L 182.347761 86.24544 
L 183.090102 85.72944 
L 183.832442 85.7088 
L 184.574783 86.40024 
L 185.317124 85.09992 
L 186.059465 86.02872 
L 187.544147 83.53128 
L 189.028828 82.03488 
L 189.771169 79.39296 
L 190.51351 79.66128 
L 191.255851 82.15872 
L 191.998192 82.43736 
L 192.740533 82.93272 
L 193.482874 83.00496 
L 194.967555 82.28256 
L 195.709896 78.01008 
L 196.452237 76.19376 
L 197.194578 77.66952 
L 197.936919 77.74176 
L 198.67926 78.1752 
L 200.163941 80.8068 
L 200.906282 85.20312 
L 201.648623 84.12984 
L 202.390964 84.03696 
L 203.133305 84.06792 
L 203.875646 84.3156 
L 204.617986 87.02976 
L 205.360327 85.21344 
L 206.102668 84.28464 
L 206.845009 84.32592 
L 207.58735 89.08344 
L 208.329691 89.5272 
L 209.072032 95.14128 
L 209.814372 96.98856 
L 210.556713 95.08968 
L 211.773345 99.80592 
L 212.515307 101.79768 
L 213.254469 100.03296 
L 214.013779 100.518 
L 214.749994 99.98136 
L 215.496571 100.49736 
L 217.71916 101.26104 
L 218.452574 100.63152 
L 219.155744 100.38384 
L 219.945701 100.84824 
L 220.594794 100.65216 
L 221.429206 101.034 
L 222.170645 101.19912 
L 224.397272 100.91016 
L 225.141847 101.7564 
L 225.821475 101.84928 
L 226.623856 101.56032 
L 227.362889 100.85856 
L 228.837415 101.4468 
L 229.596622 101.02368 
L 230.331299 101.30232 
L 231.075367 100.81728 
L 231.813549 100.79664 
L 232.557488 99.3312 
L 233.299477 99.92976 
L 234.036121 100.78632 
L 234.785671 101.17848 
L 235.530237 101.1372 
L 236.267809 100.21872 
L 237.75512 100.4664 
L 238.496026 99.88848 
L 239.237379 99.94008 
L 239.993922 99.81624 
L 240.738359 98.93904 
L 241.467709 98.3508 
L 242.215712 98.52624 
L 242.958259 99.78528 
L 243.693374 100.12584 
L 244.431368 100.03296 
L 245.928894 100.83792 
L 246.664362 100.11552 
L 247.461991 99.87816 
L 248.158073 100.002 
L 249.636595 101.41584 
L 250.389048 101.21976 
L 251.87117 101.00304 
L 252.619877 100.86888 
L 253.35244 101.21976 
L 254.095632 101.28168 
L 255.585134 101.14752 
L 256.32939 100.55928 
L 257.066911 100.65216 
L 257.810455 99.80592 
L 258.55021 99.96072 
L 259.299381 99.6408 
L 260.030372 99.1764 
L 260.78603 99.70272 
L 261.532177 99.94008 
L 262.269793 98.57784 
L 263.011566 98.65008 
L 263.757121 98.38176 
L 264.497949 98.48496 
L 265.232102 96.70992 
L 265.984246 98.05152 
L 266.728426 98.48496 
L 267.46751 97.96896 
L 268.207549 96.32808 
L 269.697205 96.16296 
L 270.430688 96.1836 
L 271.184576 96.50352 
L 271.934916 94.76976 
L 272.678812 97.19496 
L 273.419125 96.9576 
L 274.162712 97.9896 
L 274.913163 96.89568 
L 275.636559 95.45088 
L 276.39397 95.67792 
L 277.136053 93.43848 
L 278.617462 92.25168 
L 279.36 92.87088 
L 279.36 92.87088 
" clip-path="url(#p0315fdbefa)" style="fill: none; stroke: #f5841e; stroke-width: 0.6"/>
   </g>
  </g>
 </g>
 <defs>
  <clipPath id="p0315fdbefa">
   <rect x="8.64" y="4.8" width="270.72" height="103.2"/>
  </clipPath>
 </defs>
</svg>
