<?xml version="1.0" encoding="utf-8" standalone="no"?>
<!DOCTYPE svg PUBLIC "-//W3C//DTD SVG 1.1//EN"
  "http://www.w3.org/Graphics/SVG/1.1/DTD/svg11.dtd">
<svg xmlns:xlink="http://www.w3.org/1999/xlink" width="288pt" height="120pt" viewBox="0 0 288 120" xmlns="http://www.w3.org/2000/svg" version="1.1">
<desc id="nav-meta">{"window":"1m","count":4,"labels":["06.06","16.06","25.06","05.07"],"tick_utc":["2026-06-06T04:41:00Z","2026-06-16T06:15:52Z","2026-06-25T04:50:14Z","2026-07-05T04:44:59Z"],"w":720,"h":300}</desc>

 <metadata>
  <rdf:RDF xmlns:dc="http://purl.org/dc/elements/1.1/" xmlns:cc="http://creativecommons.org/ns#" xmlns:rdf="http://www.w3.org/1999/02/22-rdf-syntax-ns#">
   <cc:Work>
    <dc:type rdf:resource="http://purl.org/dc/dcmitype/StillImage"/>
    <dc:date>2026-07-05T14:20:12.654221</dc:date>
    <dc:format>image/svg+xml</dc:format>
    <dc:creator>
     <cc:Agent>
      <dc:title>Matplotlib v3.11.0, https://matplotlib.org/</dc:title>
     </cc:Agent>
    </dc:creator>
   </cc:Work>
  </rdf:RDF>
 </metadata>
 <defs>
  <style type="text/css">*{stroke-linejoin: round; stroke-linecap: butt}</style>
 </defs>
 <g id="figure_1">
  <g id="patch_1">
   <path d="M 0 120 
L 288 120 
L 288 0 
L 0 0 
L 0 120 
z
" style="fill: none; opacity: 0"/>
  </g>
  <g id="axes_1">
   <g id="patch_2">
    <path d="M 8.64 108 
L 279.36 108 
L 279.36 4.8 
L 8.64 4.8 
L 8.64 108 
z
" style="fill: none"/>
   </g>
   <g id="matplotlib.axis_1"/>
   <g id="matplotlib.axis_2"/>
   <g id="line2d_1">
    <path d="M 8.64 87.36 
L 279.36 87.36 
" clip-path="url(#pfa6f7bd1be)" style="fill: none; stroke: #b2b2b2; stroke-opacity: 0.35; stroke-width: 0.5; stroke-linecap: square"/>
   </g>
   <g id="line2d_2">
    <path d="M 8.64 66.72 
L 279.36 66.72 
" clip-path="url(#pfa6f7bd1be)" style="fill: none; stroke: #b2b2b2; stroke-opacity: 0.35; stroke-width: 0.5; stroke-linecap: square"/>
   </g>
   <g id="line2d_3">
    <path d="M 8.64 46.08 
L 279.36 46.08 
" clip-path="url(#pfa6f7bd1be)" style="fill: none; stroke: #b2b2b2; stroke-opacity: 0.35; stroke-width: 0.5; stroke-linecap: square"/>
   </g>
   <g id="line2d_4">
    <path d="M 8.64 25.44 
L 279.36 25.44 
" clip-path="url(#pfa6f7bd1be)" style="fill: none; stroke: #b2b2b2; stroke-opacity: 0.35; stroke-width: 0.5; stroke-linecap: square"/>
   </g>
   <g id="line2d_5">
    <path d="M 8.64 104.22288 
L 18.174904 103.85136 
L 27.550456 103.68624 
L 36.706587 103.43856 
L 46.137669 103.81008 
L 55.526725 103.72752 
L 64.897631 103.50048 
L 74.163635 103.5108 
L 83.565655 103.31472 
L 93.210216 102.95352 
L 102.59776 102.61296 
L 111.634727 102.6336 
L 120.924283 102.9948 
L 130.478417 103.28376 
L 139.439436 103.01544 
L 148.967966 102.69552 
L 158.575471 102.582 
L 167.351748 102.88128 
L 176.719413 103.15992 
L 186.051211 103.36632 
L 195.433353 103.36632 
L 204.653225 102.81936 
L 214.165442 103.0464 
L 223.567246 102.9432 
L 232.720568 102.59232 
L 242.191407 102.40656 
L 251.362232 102.02472 
L 260.59496 101.68416 
L 269.889053 101.3436 
L 279.36 101.6532 
" clip-path="url(#pfa6f7bd1be)" style="fill: none; stroke: #bebebe; stroke-width: 0.5; stroke-linecap: round"/>
   </g>
   <g id="line2d_6">
    <path d="M 8.64 97.02984 
L 18.174904 95.93592 
L 27.550456 95.07936 
L 36.706587 94.46016 
L 46.137669 95.47152 
L 55.526725 95.11032 
L 64.897631 94.82136 
L 74.163635 94.8936 
L 83.565655 94.70784 
L 93.210216 94.04736 
L 102.59776 93.40752 
L 111.634727 92.9844 
L 120.924283 93.93384 
L 130.478417 94.4292 
L 139.439436 94.19184 
L 148.967966 93.87192 
L 158.575471 93.81 
L 167.351748 94.03704 
L 176.719413 94.83168 
L 186.051211 95.48184 
L 195.433353 96.63768 
L 204.653225 96.14232 
L 214.165442 96.30744 
L 223.567246 96.29712 
L 232.720568 96.04944 
L 242.191407 95.9256 
L 251.362232 95.39928 
L 260.59496 94.31568 
L 269.889053 93.57264 
L 279.36 93.32496 
" clip-path="url(#pfa6f7bd1be)" style="fill: none; stroke: #4a8dff; stroke-width: 0.6"/>
   </g>
   <g id="line2d_7">
    <path d="M 8.64 102.8916 
L 18.174904 102.45816 
L 27.550456 102.28272 
L 36.706587 102.10728 
L 46.137669 102.582 
L 55.526725 102.29304 
L 64.897631 102.08664 
L 74.163635 102.066 
L 83.565655 101.86992 
L 93.210216 101.48808 
L 102.59776 101.40552 
L 111.634727 101.4984 
L 120.924283 101.97312 
L 130.478417 102.26208 
L 139.439436 102.066 
L 148.967966 101.90088 
L 158.575471 101.90088 
L 167.351748 102.0144 
L 176.719413 102.25176 
L 186.051211 102.6336 
L 195.433353 102.88128 
L 204.653225 102.77808 
L 214.165442 102.85032 
L 223.567246 102.93288 
L 232.720568 102.95352 
L 242.191407 103.00512 
L 251.362232 102.69552 
L 260.59496 102.55104 
L 269.889053 102.2724 
L 279.36 102.21048 
" clip-path="url(#pfa6f7bd1be)" style="fill: none; stroke: #f5841e; stroke-width: 0.6"/>
   </g>
  </g>
 </g>
 <defs>
  <clipPath id="pfa6f7bd1be">
   <rect x="8.64" y="4.8" width="270.72" height="103.2"/>
  </clipPath>
 </defs>
</svg>
