<?xml version="1.0" encoding="utf-8" standalone="no"?>
<!DOCTYPE svg PUBLIC "-//W3C//DTD SVG 1.1//EN"
  "http://www.w3.org/Graphics/SVG/1.1/DTD/svg11.dtd">
<svg xmlns:xlink="http://www.w3.org/1999/xlink" width="288pt" height="120pt" viewBox="0 0 288 120" xmlns="http://www.w3.org/2000/svg" version="1.1">
<desc id="nav-meta">{"window":"1m","count":4,"labels":["15.01","25.01","03.02","13.02"],"tick_utc":["2026-01-15T12:00:00Z","2026-01-25T12:00:00Z","2026-02-03T12:00:00Z","2026-02-13T03:33:47Z"],"w":720,"h":300}</desc>

 <metadata>
  <rdf:RDF xmlns:dc="http://purl.org/dc/elements/1.1/" xmlns:cc="http://creativecommons.org/ns#" xmlns:rdf="http://www.w3.org/1999/02/22-rdf-syntax-ns#">
   <cc:Work>
    <dc:type rdf:resource="http://purl.org/dc/dcmitype/StillImage"/>
    <dc:date>2026-02-13T13:48:03.192766</dc:date>
    <dc:format>image/svg+xml</dc:format>
    <dc:creator>
     <cc:Agent>
      <dc:title>Matplotlib v3.10.8, https://matplotlib.org/</dc:title>
     </cc:Agent>
    </dc:creator>
   </cc:Work>
  </rdf:RDF>
 </metadata>
 <defs>
  <style type="text/css">*{stroke-linejoin: round; stroke-linecap: butt}</style>
 </defs>
 <g id="figure_1">
  <g id="patch_1">
   <path d="M 0 120 
L 288 120 
L 288 0 
L 0 0 
L 0 120 
z
" style="fill: none; opacity: 0"/>
  </g>
  <g id="axes_1">
   <g id="patch_2">
    <path d="M 8.64 108 
L 279.36 108 
L 279.36 4.8 
L 8.64 4.8 
L 8.64 108 
z
" style="fill: none"/>
   </g>
   <g id="matplotlib.axis_1"/>
   <g id="matplotlib.axis_2"/>
   <g id="line2d_1">
    <path d="M 8.64 87.36 
L 279.36 87.36 
" clip-path="url(#pd2249a6b52)" style="fill: none; stroke: #b2b2b2; stroke-opacity: 0.35; stroke-width: 0.5; stroke-linecap: square"/>
   </g>
   <g id="line2d_2">
    <path d="M 8.64 66.72 
L 279.36 66.72 
" clip-path="url(#pd2249a6b52)" style="fill: none; stroke: #b2b2b2; stroke-opacity: 0.35; stroke-width: 0.5; stroke-linecap: square"/>
   </g>
   <g id="line2d_3">
    <path d="M 8.64 46.08 
L 279.36 46.08 
" clip-path="url(#pd2249a6b52)" style="fill: none; stroke: #b2b2b2; stroke-opacity: 0.35; stroke-width: 0.5; stroke-linecap: square"/>
   </g>
   <g id="line2d_4">
    <path d="M 8.64 25.44 
L 279.36 25.44 
" clip-path="url(#pd2249a6b52)" style="fill: none; stroke: #b2b2b2; stroke-opacity: 0.35; stroke-width: 0.5; stroke-linecap: square"/>
   </g>
   <g id="line2d_5">
    <path d="M 8.64 86.42088 
L 18.089722 87.62832 
L 27.539445 86.93688 
L 36.989167 87.23616 
L 46.43889 88.63968 
L 55.888612 90.0432 
L 65.338334 92.12784 
L 74.788057 91.16808 
L 84.237779 91.46736 
L 93.687502 91.73568 
L 103.137224 91.78728 
L 112.586946 94.0164 
L 122.036669 92.5716 
L 131.486391 91.76664 
L 140.936113 92.33424 
L 150.385836 94.36728 
L 159.835558 94.46016 
L 169.285281 97.71096 
L 178.735003 98.48496 
L 188.184725 97.85544 
L 196.162413 99.10416 
L 203.671989 100.16712 
L 213.116899 102.23112 
L 222.526154 100.54896 
L 232.191886 100.70376 
L 241.563626 100.68312 
L 251.067269 100.95144 
L 260.497414 101.28168 
L 269.913121 101.71512 
L 279.36 101.84928 
" clip-path="url(#pd2249a6b52)" style="fill: none; stroke: #bebebe; stroke-width: 0.5; stroke-linecap: round"/>
   </g>
   <g id="line2d_6">
    <path d="M 8.64 69.77472 
L 18.089722 70.34232 
L 27.539445 70.67256 
L 36.989167 70.51776 
L 46.43889 70.848 
L 55.888612 72.31344 
L 65.338334 76.01832 
L 74.788057 75.41976 
L 84.237779 75.83256 
L 93.687502 75.79128 
L 103.137224 75.82224 
L 112.586946 77.82432 
L 122.036669 76.14216 
L 131.486391 74.75928 
L 140.936113 74.96568 
L 150.385836 77.75208 
L 159.835558 79.48584 
L 169.285281 83.31456 
L 178.735003 85.90488 
L 188.184725 84.79032 
L 196.162413 85.84296 
L 203.671989 88.25784 
L 213.116899 91.41576 
L 222.526154 88.7532 
L 232.191886 88.65 
L 241.563626 88.55712 
L 251.067269 88.96992 
L 260.497414 89.7336 
L 269.913121 90.456 
L 279.36 90.56952 
" clip-path="url(#pd2249a6b52)" style="fill: none; stroke: #4a8dff; stroke-width: 0.6"/>
   </g>
   <g id="line2d_7">
    <path d="M 8.64 76.19376 
L 18.089722 77.66952 
L 27.539445 77.74176 
L 36.989167 78.1752 
L 46.43889 79.5684 
L 55.888612 80.8068 
L 65.338334 85.20312 
L 74.788057 84.12984 
L 84.237779 84.03696 
L 93.687502 84.06792 
L 103.137224 84.3156 
L 112.586946 87.02976 
L 122.036669 85.21344 
L 131.486391 84.28464 
L 140.936113 84.32592 
L 150.385836 89.08344 
L 159.835558 89.5272 
L 169.285281 95.14128 
L 178.735003 96.98856 
L 188.184725 95.08968 
L 196.162413 97.71096 
L 203.671989 99.80592 
L 213.116899 101.79768 
L 222.526154 100.03296 
L 232.191886 100.518 
L 241.563626 99.98136 
L 251.067269 100.49736 
L 260.497414 100.78632 
L 269.913121 101.07528 
L 279.36 101.26104 
" clip-path="url(#pd2249a6b52)" style="fill: none; stroke: #f5841e; stroke-width: 0.6"/>
   </g>
  </g>
 </g>
 <defs>
  <clipPath id="pd2249a6b52">
   <rect x="8.64" y="4.8" width="270.72" height="103.2"/>
  </clipPath>
 </defs>
</svg>
