<?xml version="1.0" encoding="utf-8" standalone="no"?>
<!DOCTYPE svg PUBLIC "-//W3C//DTD SVG 1.1//EN"
  "http://www.w3.org/Graphics/SVG/1.1/DTD/svg11.dtd">
<svg xmlns:xlink="http://www.w3.org/1999/xlink" width="288pt" height="120pt" viewBox="0 0 288 120" xmlns="http://www.w3.org/2000/svg" version="1.1">
<desc id="nav-meta">{"window":"1m","count":4,"labels":["23.06","03.07","12.07","22.07"],"tick_utc":["2026-06-23T04:45:28Z","2026-07-03T04:30:06Z","2026-07-12T04:17:37Z","2026-07-22T04:00:32Z"],"w":720,"h":300}</desc>

 <metadata>
  <rdf:RDF xmlns:dc="http://purl.org/dc/elements/1.1/" xmlns:cc="http://creativecommons.org/ns#" xmlns:rdf="http://www.w3.org/1999/02/22-rdf-syntax-ns#">
   <cc:Work>
    <dc:type rdf:resource="http://purl.org/dc/dcmitype/StillImage"/>
    <dc:date>2026-07-22T14:38:23.662465</dc:date>
    <dc:format>image/svg+xml</dc:format>
    <dc:creator>
     <cc:Agent>
      <dc:title>Matplotlib v3.11.1, https://matplotlib.org/</dc:title>
     </cc:Agent>
    </dc:creator>
   </cc:Work>
  </rdf:RDF>
 </metadata>
 <defs>
  <style type="text/css">*{stroke-linejoin: round; stroke-linecap: butt}</style>
 </defs>
 <g id="figure_1">
  <g id="patch_1">
   <path d="M 0 120 
L 288 120 
L 288 0 
L 0 0 
L 0 120 
z
" style="fill: none; opacity: 0"/>
  </g>
  <g id="axes_1">
   <g id="patch_2">
    <path d="M 8.64 108 
L 279.36 108 
L 279.36 4.8 
L 8.64 4.8 
L 8.64 108 
z
" style="fill: none"/>
   </g>
   <g id="matplotlib.axis_1"/>
   <g id="matplotlib.axis_2"/>
   <g id="line2d_1">
    <path d="M 8.64 87.36 
L 279.36 87.36 
" clip-path="url(#p57cc10f183)" style="fill: none; stroke: #b2b2b2; stroke-opacity: 0.35; stroke-width: 0.5; stroke-linecap: square"/>
   </g>
   <g id="line2d_2">
    <path d="M 8.64 66.72 
L 279.36 66.72 
" clip-path="url(#p57cc10f183)" style="fill: none; stroke: #b2b2b2; stroke-opacity: 0.35; stroke-width: 0.5; stroke-linecap: square"/>
   </g>
   <g id="line2d_3">
    <path d="M 8.64 46.08 
L 279.36 46.08 
" clip-path="url(#p57cc10f183)" style="fill: none; stroke: #b2b2b2; stroke-opacity: 0.35; stroke-width: 0.5; stroke-linecap: square"/>
   </g>
   <g id="line2d_4">
    <path d="M 8.64 25.44 
L 279.36 25.44 
" clip-path="url(#p57cc10f183)" style="fill: none; stroke: #b2b2b2; stroke-opacity: 0.35; stroke-width: 0.5; stroke-linecap: square"/>
   </g>
   <g id="line2d_5">
    <path d="M 8.64 102.88128 
L 18.01865 103.15992 
L 27.36139 103.36632 
L 36.754534 103.36632 
L 45.985218 102.81936 
L 55.508589 103.0464 
L 64.921418 102.9432 
L 74.085474 102.59232 
L 83.567419 102.40656 
L 92.748997 102.02472 
L 101.992552 101.68416 
L 111.297544 101.3436 
L 120.779597 101.6532 
L 130.215356 101.6532 
L 139.420406 101.63256 
L 148.511668 101.95248 
L 158.140173 102.08664 
L 167.464309 101.9112 
L 176.533615 102.066 
L 186.018589 102.18984 
L 195.384259 102.31368 
L 204.513378 102.45816 
L 213.860986 102.08664 
L 223.229577 102.21048 
L 232.576319 102.4272 
L 241.875361 102.4272 
L 251.361092 102.34464 
L 260.833086 102.25176 
L 270.007958 102.02472 
L 279.36 102.066 
" clip-path="url(#p57cc10f183)" style="fill: none; stroke: #bebebe; stroke-width: 0.5; stroke-linecap: round"/>
   </g>
   <g id="line2d_6">
    <path d="M 8.64 94.03704 
L 18.01865 94.83168 
L 27.36139 95.48184 
L 36.754534 96.63768 
L 45.985218 96.14232 
L 55.508589 96.30744 
L 64.921418 96.29712 
L 74.085474 96.04944 
L 83.567419 95.9256 
L 92.748997 95.39928 
L 101.992552 94.31568 
L 111.297544 93.57264 
L 120.779597 93.32496 
L 130.215356 93.22176 
L 139.420406 93.35592 
L 148.511668 93.61392 
L 158.140173 93.77904 
L 167.464309 93.26304 
L 176.533615 92.92248 
L 186.018589 92.71608 
L 195.384259 93.15984 
L 204.513378 93.17016 
L 213.860986 91.80792 
L 223.229577 91.14744 
L 232.576319 92.13816 
L 241.875361 92.25168 
L 251.361092 91.9008 
L 260.833086 91.81824 
L 270.007958 91.00296 
L 279.36 90.98232 
" clip-path="url(#p57cc10f183)" style="fill: none; stroke: #4a8dff; stroke-width: 0.6"/>
   </g>
   <g id="line2d_7">
    <path d="M 8.64 102.0144 
L 18.01865 102.25176 
L 27.36139 102.6336 
L 36.754534 102.88128 
L 45.985218 102.77808 
L 55.508589 102.85032 
L 64.921418 102.93288 
L 74.085474 102.95352 
L 83.567419 103.00512 
L 92.748997 102.69552 
L 101.992552 102.55104 
L 111.297544 102.2724 
L 120.779597 102.21048 
L 130.215356 102.12792 
L 139.420406 102.13824 
L 148.511668 102.25176 
L 158.140173 102.36528 
L 167.464309 101.94216 
L 176.533615 101.92152 
L 186.018589 101.9112 
L 195.384259 102.2208 
L 204.513378 102.31368 
L 213.860986 101.79768 
L 223.229577 101.81832 
L 232.576319 102.07632 
L 241.875361 101.97312 
L 251.361092 101.79768 
L 260.833086 101.78736 
L 270.007958 101.57064 
L 279.36 101.40552 
" clip-path="url(#p57cc10f183)" style="fill: none; stroke: #f5841e; stroke-width: 0.6"/>
   </g>
  </g>
 </g>
 <defs>
  <clipPath id="p57cc10f183">
   <rect x="8.64" y="4.8" width="270.72" height="103.2"/>
  </clipPath>
 </defs>
</svg>
