<?xml version="1.0" encoding="utf-8" standalone="no"?>
<!DOCTYPE svg PUBLIC "-//W3C//DTD SVG 1.1//EN"
  "http://www.w3.org/Graphics/SVG/1.1/DTD/svg11.dtd">
<svg xmlns:xlink="http://www.w3.org/1999/xlink" width="288pt" height="120pt" viewBox="0 0 288 120" xmlns="http://www.w3.org/2000/svg" version="1.1">
<desc id="nav-meta">{"window":"1m","count":4,"labels":["25.03","04.04","14.04","24.04"],"tick_utc":["2026-03-25T05:09:13Z","2026-04-04T03:24:53Z","2026-04-14T03:53:32Z","2026-04-24T04:01:18Z"],"w":720,"h":300}</desc>

 <metadata>
  <rdf:RDF xmlns:dc="http://purl.org/dc/elements/1.1/" xmlns:cc="http://creativecommons.org/ns#" xmlns:rdf="http://www.w3.org/1999/02/22-rdf-syntax-ns#">
   <cc:Work>
    <dc:type rdf:resource="http://purl.org/dc/dcmitype/StillImage"/>
    <dc:date>2026-04-24T04:01:21.378179</dc:date>
    <dc:format>image/svg+xml</dc:format>
    <dc:creator>
     <cc:Agent>
      <dc:title>Matplotlib v3.10.9, https://matplotlib.org/</dc:title>
     </cc:Agent>
    </dc:creator>
   </cc:Work>
  </rdf:RDF>
 </metadata>
 <defs>
  <style type="text/css">*{stroke-linejoin: round; stroke-linecap: butt}</style>
 </defs>
 <g id="figure_1">
  <g id="patch_1">
   <path d="M 0 120 
L 288 120 
L 288 0 
L 0 0 
L 0 120 
z
" style="fill: none; opacity: 0"/>
  </g>
  <g id="axes_1">
   <g id="patch_2">
    <path d="M 8.64 108 
L 279.36 108 
L 279.36 4.8 
L 8.64 4.8 
L 8.64 108 
z
" style="fill: none"/>
   </g>
   <g id="matplotlib.axis_1"/>
   <g id="matplotlib.axis_2"/>
   <g id="line2d_1">
    <path d="M 8.64 87.36 
L 279.36 87.36 
" clip-path="url(#pe3d83e9cec)" style="fill: none; stroke: #b2b2b2; stroke-opacity: 0.35; stroke-width: 0.5; stroke-linecap: square"/>
   </g>
   <g id="line2d_2">
    <path d="M 8.64 66.72 
L 279.36 66.72 
" clip-path="url(#pe3d83e9cec)" style="fill: none; stroke: #b2b2b2; stroke-opacity: 0.35; stroke-width: 0.5; stroke-linecap: square"/>
   </g>
   <g id="line2d_3">
    <path d="M 8.64 46.08 
L 279.36 46.08 
" clip-path="url(#pe3d83e9cec)" style="fill: none; stroke: #b2b2b2; stroke-opacity: 0.35; stroke-width: 0.5; stroke-linecap: square"/>
   </g>
   <g id="line2d_4">
    <path d="M 8.64 25.44 
L 279.36 25.44 
" clip-path="url(#pe3d83e9cec)" style="fill: none; stroke: #b2b2b2; stroke-opacity: 0.35; stroke-width: 0.5; stroke-linecap: square"/>
   </g>
   <g id="line2d_5">
    <path d="M 8.64 99.83688 
L 17.114995 100.13616 
L 26.164607 100.80696 
L 35.116409 101.38488 
L 44.277743 101.3436 
L 53.341791 101.292 
L 62.322989 101.28168 
L 71.438713 101.28168 
L 80.357878 101.8596 
L 89.406443 101.88024 
L 98.367242 101.72544 
L 107.541548 101.68416 
L 116.603085 101.47776 
L 125.582609 101.78736 
L 134.635463 101.09592 
L 143.642185 101.46744 
L 152.763559 101.3436 
L 161.66358 101.05464 
L 170.863933 101.3952 
L 179.948484 101.47776 
L 188.929158 100.86888 
L 197.960464 101.26104 
L 207.037797 100.99272 
L 216.057595 100.61088 
L 224.996112 100.44576 
L 234.15368 100.94112 
L 243.214276 101.09592 
L 252.212839 101.00304 
L 261.223013 100.69344 
L 270.297835 100.9308 
L 279.36 100.92048 
" clip-path="url(#pe3d83e9cec)" style="fill: none; stroke: #bebebe; stroke-width: 0.5; stroke-linecap: round"/>
   </g>
   <g id="line2d_6">
    <path d="M 8.64 87.3084 
L 17.114995 87.65928 
L 26.164607 88.96992 
L 35.116409 90.07416 
L 44.277743 89.76456 
L 53.341791 89.3724 
L 62.322989 89.00088 
L 71.438713 88.42296 
L 80.357878 88.81512 
L 89.406443 89.10408 
L 98.367242 89.14536 
L 107.541548 89.07312 
L 116.603085 87.9792 
L 125.582609 88.29912 
L 134.635463 86.38992 
L 143.642185 87.24648 
L 152.763559 87.1536 
L 161.66358 86.21448 
L 170.863933 86.66856 
L 179.948484 87.01944 
L 188.929158 84.44976 
L 197.960464 85.05864 
L 207.037797 84.58392 
L 216.057595 85.04832 
L 224.996112 83.71704 
L 234.15368 84.86256 
L 243.214276 85.6572 
L 252.212839 85.27536 
L 261.223013 84.49104 
L 270.297835 84.86256 
L 279.36 85.32696 
" clip-path="url(#pe3d83e9cec)" style="fill: none; stroke: #4a8dff; stroke-width: 0.6"/>
   </g>
   <g id="line2d_7">
    <path d="M 8.64 99.87816 
L 17.114995 100.002 
L 26.164607 100.64184 
L 35.116409 101.41584 
L 44.277743 101.21976 
L 53.341791 101.14752 
L 62.322989 101.00304 
L 71.438713 100.86888 
L 80.357878 101.21976 
L 89.406443 101.28168 
L 98.367242 101.20944 
L 107.541548 101.14752 
L 116.603085 100.55928 
L 125.582609 100.65216 
L 134.635463 99.80592 
L 143.642185 99.96072 
L 152.763559 99.6408 
L 161.66358 99.1764 
L 170.863933 99.70272 
L 179.948484 99.94008 
L 188.929158 98.57784 
L 197.960464 98.65008 
L 207.037797 98.38176 
L 216.057595 98.48496 
L 224.996112 96.70992 
L 234.15368 98.05152 
L 243.214276 98.48496 
L 252.212839 97.96896 
L 261.223013 96.32808 
L 270.297835 96.20424 
L 279.36 96.16296 
" clip-path="url(#pe3d83e9cec)" style="fill: none; stroke: #f5841e; stroke-width: 0.6"/>
   </g>
  </g>
 </g>
 <defs>
  <clipPath id="pe3d83e9cec">
   <rect x="8.64" y="4.8" width="270.72" height="103.2"/>
  </clipPath>
 </defs>
</svg>
