<?xml version="1.0" encoding="utf-8" standalone="no"?>
<!DOCTYPE svg PUBLIC "-//W3C//DTD SVG 1.1//EN"
  "http://www.w3.org/Graphics/SVG/1.1/DTD/svg11.dtd">
<svg xmlns:xlink="http://www.w3.org/1999/xlink" width="288pt" height="120pt" viewBox="0 0 288 120" xmlns="http://www.w3.org/2000/svg" version="1.1">
<desc id="nav-meta">{"window":"1m","count":4,"labels":["10.06","20.06","30.06","10.07"],"tick_utc":["2026-06-10T05:05:46Z","2026-06-20T04:59:26Z","2026-06-30T04:49:55Z","2026-07-10T04:38:36Z"],"w":720,"h":300}</desc>

 <metadata>
  <rdf:RDF xmlns:dc="http://purl.org/dc/elements/1.1/" xmlns:cc="http://creativecommons.org/ns#" xmlns:rdf="http://www.w3.org/1999/02/22-rdf-syntax-ns#">
   <cc:Work>
    <dc:type rdf:resource="http://purl.org/dc/dcmitype/StillImage"/>
    <dc:date>2026-07-10T04:38:38.510888</dc:date>
    <dc:format>image/svg+xml</dc:format>
    <dc:creator>
     <cc:Agent>
      <dc:title>Matplotlib v3.11.0, https://matplotlib.org/</dc:title>
     </cc:Agent>
    </dc:creator>
   </cc:Work>
  </rdf:RDF>
 </metadata>
 <defs>
  <style type="text/css">*{stroke-linejoin: round; stroke-linecap: butt}</style>
 </defs>
 <g id="figure_1">
  <g id="patch_1">
   <path d="M 0 120 
L 288 120 
L 288 0 
L 0 0 
L 0 120 
z
" style="fill: none; opacity: 0"/>
  </g>
  <g id="axes_1">
   <g id="patch_2">
    <path d="M 8.64 108 
L 279.36 108 
L 279.36 4.8 
L 8.64 4.8 
L 8.64 108 
z
" style="fill: none"/>
   </g>
   <g id="matplotlib.axis_1"/>
   <g id="matplotlib.axis_2"/>
   <g id="line2d_1">
    <path d="M 8.64 87.36 
L 279.36 87.36 
" clip-path="url(#p4208d6af31)" style="fill: none; stroke: #b2b2b2; stroke-opacity: 0.35; stroke-width: 0.5; stroke-linecap: square"/>
   </g>
   <g id="line2d_2">
    <path d="M 8.64 66.72 
L 279.36 66.72 
" clip-path="url(#p4208d6af31)" style="fill: none; stroke: #b2b2b2; stroke-opacity: 0.35; stroke-width: 0.5; stroke-linecap: square"/>
   </g>
   <g id="line2d_3">
    <path d="M 8.64 46.08 
L 279.36 46.08 
" clip-path="url(#p4208d6af31)" style="fill: none; stroke: #b2b2b2; stroke-opacity: 0.35; stroke-width: 0.5; stroke-linecap: square"/>
   </g>
   <g id="line2d_4">
    <path d="M 8.64 25.44 
L 279.36 25.44 
" clip-path="url(#p4208d6af31)" style="fill: none; stroke: #b2b2b2; stroke-opacity: 0.35; stroke-width: 0.5; stroke-linecap: square"/>
   </g>
   <g id="line2d_5">
    <path d="M 8.64 103.81008 
L 17.722665 103.72752 
L 26.787772 103.50048 
L 35.7514 103.5108 
L 44.846607 103.31472 
L 54.176438 102.95352 
L 63.25764 102.61296 
L 71.999706 102.6336 
L 80.986118 102.9948 
L 90.228474 103.28376 
L 98.89707 103.01544 
L 108.114658 102.69552 
L 117.408642 102.582 
L 125.898526 102.88128 
L 134.960498 103.15992 
L 143.987772 103.36632 
L 153.063749 103.36632 
L 161.982751 102.81936 
L 171.184557 103.0464 
L 180.279555 102.9432 
L 189.134179 102.59232 
L 198.295958 102.40656 
L 207.167512 102.02472 
L 216.098951 101.68416 
L 225.089752 101.3436 
L 234.251635 101.6532 
L 243.368789 101.6532 
L 252.263022 101.63256 
L 261.047311 101.95248 
L 270.350701 102.08664 
L 279.36 101.9112 
" clip-path="url(#p4208d6af31)" style="fill: none; stroke: #bebebe; stroke-width: 0.5; stroke-linecap: round"/>
   </g>
   <g id="line2d_6">
    <path d="M 8.64 95.47152 
L 17.722665 95.11032 
L 26.787772 94.82136 
L 35.7514 94.8936 
L 44.846607 94.70784 
L 54.176438 94.04736 
L 63.25764 93.40752 
L 71.999706 92.9844 
L 80.986118 93.93384 
L 90.228474 94.4292 
L 98.89707 94.19184 
L 108.114658 93.87192 
L 117.408642 93.81 
L 125.898526 94.03704 
L 134.960498 94.83168 
L 143.987772 95.48184 
L 153.063749 96.63768 
L 161.982751 96.14232 
L 171.184557 96.30744 
L 180.279555 96.29712 
L 189.134179 96.04944 
L 198.295958 95.9256 
L 207.167512 95.39928 
L 216.098951 94.31568 
L 225.089752 93.57264 
L 234.251635 93.32496 
L 243.368789 93.22176 
L 252.263022 93.35592 
L 261.047311 93.61392 
L 270.350701 93.77904 
L 279.36 93.26304 
" clip-path="url(#p4208d6af31)" style="fill: none; stroke: #4a8dff; stroke-width: 0.6"/>
   </g>
   <g id="line2d_7">
    <path d="M 8.64 102.582 
L 17.722665 102.29304 
L 26.787772 102.08664 
L 35.7514 102.066 
L 44.846607 101.86992 
L 54.176438 101.48808 
L 63.25764 101.40552 
L 71.999706 101.4984 
L 80.986118 101.97312 
L 90.228474 102.26208 
L 98.89707 102.066 
L 108.114658 101.90088 
L 117.408642 101.90088 
L 125.898526 102.0144 
L 134.960498 102.25176 
L 143.987772 102.6336 
L 153.063749 102.88128 
L 161.982751 102.77808 
L 171.184557 102.85032 
L 180.279555 102.93288 
L 189.134179 102.95352 
L 198.295958 103.00512 
L 207.167512 102.69552 
L 216.098951 102.55104 
L 225.089752 102.2724 
L 234.251635 102.21048 
L 243.368789 102.12792 
L 252.263022 102.13824 
L 261.047311 102.25176 
L 270.350701 102.36528 
L 279.36 101.94216 
" clip-path="url(#p4208d6af31)" style="fill: none; stroke: #f5841e; stroke-width: 0.6"/>
   </g>
  </g>
 </g>
 <defs>
  <clipPath id="p4208d6af31">
   <rect x="8.64" y="4.8" width="270.72" height="103.2"/>
  </clipPath>
 </defs>
</svg>
