<?xml version="1.0" encoding="utf-8" standalone="no"?>
<!DOCTYPE svg PUBLIC "-//W3C//DTD SVG 1.1//EN"
  "http://www.w3.org/Graphics/SVG/1.1/DTD/svg11.dtd">
<svg xmlns:xlink="http://www.w3.org/1999/xlink" width="288pt" height="120pt" viewBox="0 0 288 120" xmlns="http://www.w3.org/2000/svg" version="1.1">
<desc id="nav-meta">{"window":"3m","count":4,"labels":["29.01","28.02","30.03","29.04"],"tick_utc":["2026-01-29T12:00:00Z","2026-02-28T03:01:05Z","2026-03-30T03:51:16Z","2026-04-29T04:21:07Z"],"w":720,"h":300}</desc>

 <metadata>
  <rdf:RDF xmlns:dc="http://purl.org/dc/elements/1.1/" xmlns:cc="http://creativecommons.org/ns#" xmlns:rdf="http://www.w3.org/1999/02/22-rdf-syntax-ns#">
   <cc:Work>
    <dc:type rdf:resource="http://purl.org/dc/dcmitype/StillImage"/>
    <dc:date>2026-04-29T08:59:51.976454</dc:date>
    <dc:format>image/svg+xml</dc:format>
    <dc:creator>
     <cc:Agent>
      <dc:title>Matplotlib v3.10.9, https://matplotlib.org/</dc:title>
     </cc:Agent>
    </dc:creator>
   </cc:Work>
  </rdf:RDF>
 </metadata>
 <defs>
  <style type="text/css">*{stroke-linejoin: round; stroke-linecap: butt}</style>
 </defs>
 <g id="figure_1">
  <g id="patch_1">
   <path d="M 0 120 
L 288 120 
L 288 0 
L 0 0 
L 0 120 
z
" style="fill: none; opacity: 0"/>
  </g>
  <g id="axes_1">
   <g id="patch_2">
    <path d="M 8.64 108 
L 279.36 108 
L 279.36 4.8 
L 8.64 4.8 
L 8.64 108 
z
" style="fill: none"/>
   </g>
   <g id="matplotlib.axis_1"/>
   <g id="matplotlib.axis_2"/>
   <g id="line2d_1">
    <path d="M 8.64 87.36 
L 279.36 87.36 
" clip-path="url(#p989ba86e70)" style="fill: none; stroke: #b2b2b2; stroke-opacity: 0.35; stroke-width: 0.5; stroke-linecap: square"/>
   </g>
   <g id="line2d_2">
    <path d="M 8.64 66.72 
L 279.36 66.72 
" clip-path="url(#p989ba86e70)" style="fill: none; stroke: #b2b2b2; stroke-opacity: 0.35; stroke-width: 0.5; stroke-linecap: square"/>
   </g>
   <g id="line2d_3">
    <path d="M 8.64 46.08 
L 279.36 46.08 
" clip-path="url(#p989ba86e70)" style="fill: none; stroke: #b2b2b2; stroke-opacity: 0.35; stroke-width: 0.5; stroke-linecap: square"/>
   </g>
   <g id="line2d_4">
    <path d="M 8.64 25.44 
L 279.36 25.44 
" clip-path="url(#p989ba86e70)" style="fill: none; stroke: #b2b2b2; stroke-opacity: 0.35; stroke-width: 0.5; stroke-linecap: square"/>
   </g>
   <g id="line2d_5">
    <path d="M 8.64 92.33424 
L 11.658688 94.36728 
L 14.677377 94.46016 
L 17.696065 97.71096 
L 20.714754 98.48496 
L 23.733442 97.85544 
L 26.281893 99.10416 
L 28.680807 100.16712 
L 31.697958 102.23112 
L 34.70372 100.54896 
L 37.791412 100.70376 
L 40.785189 100.68312 
L 43.821102 100.95144 
L 46.833537 101.28168 
L 49.841359 101.71512 
L 52.859139 101.84928 
L 55.841527 101.034 
L 58.70093 100.54896 
L 61.913248 101.04432 
L 64.552749 100.81728 
L 67.945838 101.034 
L 70.960858 101.4984 
L 73.961903 101.33328 
L 76.962144 101.1372 
L 80.015317 101.06496 
L 83.043089 102.09696 
L 85.806761 102.05568 
L 89.0696 101.4984 
L 92.074837 100.60056 
L 95.087796 100.80696 
L 98.070917 101.45712 
L 101.15819 100.55928 
L 104.145713 101.10624 
L 107.171424 100.8792 
L 110.173202 100.74504 
L 113.198389 100.21872 
L 116.215645 100.53864 
L 119.21117 101.07528 
L 122.259172 101.38488 
L 125.286909 101.26104 
L 128.286207 100.78632 
L 131.303707 100.91016 
L 134.334275 100.99272 
L 137.347129 100.38384 
L 140.361799 100.50768 
L 143.438241 100.60056 
L 146.465454 99.76464 
L 149.431316 99.49632 
L 152.473029 99.40344 
L 155.492556 100.09488 
L 158.481861 100.3632 
L 161.482871 100.19808 
L 164.5467 100.47672 
L 167.572481 100.79664 
L 170.563218 100.26 
L 173.806736 99.83688 
L 176.637316 100.13616 
L 179.659812 100.80696 
L 182.649642 101.38488 
L 185.709453 101.3436 
L 188.736771 101.292 
L 191.736418 101.28168 
L 194.780996 101.28168 
L 197.759924 101.8596 
L 200.782072 101.88024 
L 203.774906 101.72544 
L 206.839049 101.68416 
L 209.865529 101.47776 
L 212.864617 101.78736 
L 215.888197 101.09592 
L 218.896369 101.46744 
L 221.942833 101.3436 
L 224.915368 101.05464 
L 227.988211 101.3952 
L 231.022377 101.47776 
L 234.02185 100.86888 
L 237.038232 101.26104 
L 240.069988 100.99272 
L 243.082527 100.61088 
L 246.067919 100.44576 
L 249.126472 100.94112 
L 252.152638 101.09592 
L 255.158084 101.00304 
L 258.167409 100.69344 
L 261.198326 100.9308 
L 264.225016 100.92048 
L 267.207683 100.81728 
L 270.273328 100.8792 
L 273.324545 100.64184 
L 276.349557 101.1888 
L 279.36 101.09592 
" clip-path="url(#p989ba86e70)" style="fill: none; stroke: #bebebe; stroke-width: 0.5; stroke-linecap: round"/>
   </g>
   <g id="line2d_6">
    <path d="M 8.64 74.96568 
L 11.658688 77.75208 
L 14.677377 79.48584 
L 17.696065 83.31456 
L 20.714754 85.90488 
L 23.733442 84.79032 
L 26.281893 85.84296 
L 28.680807 88.25784 
L 31.697958 91.41576 
L 34.70372 88.7532 
L 37.791412 88.65 
L 40.785189 88.55712 
L 43.821102 88.96992 
L 46.833537 89.7336 
L 49.841359 90.456 
L 52.859139 90.56952 
L 55.841527 89.15568 
L 58.70093 88.9596 
L 61.913248 90.6624 
L 64.552749 89.94 
L 67.945838 90.00192 
L 70.960858 90.3528 
L 73.961903 90.62112 
L 76.962144 90.5076 
L 80.015317 90.3528 
L 83.043089 92.004 
L 85.806761 92.13816 
L 89.0696 91.25064 
L 92.074837 89.166 
L 95.087796 89.56848 
L 98.070917 90.93072 
L 101.15819 89.41368 
L 104.145713 90.37344 
L 107.171424 89.79552 
L 110.173202 90.23928 
L 113.198389 88.0824 
L 116.215645 88.7532 
L 119.21117 90.16704 
L 122.259172 90.67272 
L 125.286909 90.18768 
L 128.286207 89.2692 
L 131.303707 89.54784 
L 134.334275 89.49624 
L 137.347129 88.31976 
L 140.361799 88.45392 
L 143.438241 88.46424 
L 146.465454 86.38992 
L 149.431316 84.80064 
L 152.473029 84.8316 
L 155.492556 86.586 
L 158.481861 87.74184 
L 161.482871 87.618 
L 164.5467 88.19592 
L 167.572481 89.08344 
L 170.563218 87.89664 
L 173.806736 87.3084 
L 176.637316 87.65928 
L 179.659812 88.96992 
L 182.649642 90.07416 
L 185.709453 89.76456 
L 188.736771 89.3724 
L 191.736418 89.00088 
L 194.780996 88.42296 
L 197.759924 88.81512 
L 200.782072 89.10408 
L 203.774906 89.14536 
L 206.839049 89.07312 
L 209.865529 87.9792 
L 212.864617 88.29912 
L 215.888197 86.38992 
L 218.896369 87.24648 
L 221.942833 87.1536 
L 224.915368 86.21448 
L 227.988211 86.66856 
L 231.022377 87.01944 
L 234.02185 84.44976 
L 237.038232 85.05864 
L 240.069988 84.58392 
L 243.082527 85.04832 
L 246.067919 83.71704 
L 249.126472 84.86256 
L 252.152638 85.6572 
L 255.158084 85.27536 
L 258.167409 84.49104 
L 261.198326 84.86256 
L 264.225016 85.32696 
L 267.207683 85.17216 
L 270.273328 85.31664 
L 273.324545 84.11952 
L 276.349557 85.66752 
L 279.36 85.26504 
" clip-path="url(#p989ba86e70)" style="fill: none; stroke: #4a8dff; stroke-width: 0.6"/>
   </g>
   <g id="line2d_7">
    <path d="M 8.64 84.32592 
L 11.658688 89.08344 
L 14.677377 89.5272 
L 17.696065 95.14128 
L 20.714754 96.98856 
L 23.733442 95.08968 
L 26.281893 97.71096 
L 28.680807 99.80592 
L 31.697958 101.79768 
L 34.70372 100.03296 
L 37.791412 100.518 
L 40.785189 99.98136 
L 43.821102 100.49736 
L 46.833537 100.78632 
L 49.841359 101.07528 
L 52.859139 101.26104 
L 55.841527 100.63152 
L 58.70093 100.38384 
L 61.913248 100.84824 
L 64.552749 100.65216 
L 67.945838 101.034 
L 70.960858 101.19912 
L 73.961903 101.10624 
L 76.962144 100.97208 
L 80.015317 100.91016 
L 83.043089 101.7564 
L 85.806761 101.84928 
L 89.0696 101.56032 
L 92.074837 100.85856 
L 95.087796 101.12688 
L 98.070917 101.4468 
L 101.15819 101.02368 
L 104.145713 101.30232 
L 107.171424 100.81728 
L 110.173202 100.79664 
L 113.198389 99.3312 
L 116.215645 99.92976 
L 119.21117 100.78632 
L 122.259172 101.17848 
L 125.286909 101.1372 
L 128.286207 100.21872 
L 131.303707 100.37352 
L 134.334275 100.4664 
L 137.347129 99.88848 
L 140.361799 99.94008 
L 143.438241 99.81624 
L 146.465454 98.93904 
L 149.431316 98.3508 
L 152.473029 98.52624 
L 155.492556 99.78528 
L 158.481861 100.12584 
L 161.482871 100.03296 
L 164.5467 100.45608 
L 167.572481 100.83792 
L 170.563218 100.11552 
L 173.806736 99.87816 
L 176.637316 100.002 
L 179.659812 100.64184 
L 182.649642 101.41584 
L 185.709453 101.21976 
L 188.736771 101.14752 
L 191.736418 101.00304 
L 194.780996 100.86888 
L 197.759924 101.21976 
L 200.782072 101.28168 
L 203.774906 101.20944 
L 206.839049 101.14752 
L 209.865529 100.55928 
L 212.864617 100.65216 
L 215.888197 99.80592 
L 218.896369 99.96072 
L 221.942833 99.6408 
L 224.915368 99.1764 
L 227.988211 99.70272 
L 231.022377 99.94008 
L 234.02185 98.57784 
L 237.038232 98.65008 
L 240.069988 98.38176 
L 243.082527 98.48496 
L 246.067919 96.70992 
L 249.126472 98.05152 
L 252.152638 98.48496 
L 255.158084 97.96896 
L 258.167409 96.32808 
L 261.198326 96.20424 
L 264.225016 96.16296 
L 267.207683 96.1836 
L 270.273328 96.50352 
L 273.324545 94.76976 
L 276.349557 97.19496 
L 279.36 96.9576 
" clip-path="url(#p989ba86e70)" style="fill: none; stroke: #f5841e; stroke-width: 0.6"/>
   </g>
  </g>
 </g>
 <defs>
  <clipPath id="p989ba86e70">
   <rect x="8.64" y="4.8" width="270.72" height="103.2"/>
  </clipPath>
 </defs>
</svg>
