<?xml version="1.0" encoding="utf-8" standalone="no"?>
<!DOCTYPE svg PUBLIC "-//W3C//DTD SVG 1.1//EN"
  "http://www.w3.org/Graphics/SVG/1.1/DTD/svg11.dtd">
<svg xmlns:xlink="http://www.w3.org/1999/xlink" width="288pt" height="120pt" viewBox="0 0 288 120" xmlns="http://www.w3.org/2000/svg" version="1.1">
<desc id="nav-meta">{"window":"3m","count":4,"labels":["04.03","03.04","02.05","01.06"],"tick_utc":["2026-03-04T03:14:13Z","2026-04-03T03:37:13Z","2026-05-02T04:02:31Z","2026-06-01T05:29:45Z"],"w":720,"h":300}</desc>

 <metadata>
  <rdf:RDF xmlns:dc="http://purl.org/dc/elements/1.1/" xmlns:cc="http://creativecommons.org/ns#" xmlns:rdf="http://www.w3.org/1999/02/22-rdf-syntax-ns#">
   <cc:Work>
    <dc:type rdf:resource="http://purl.org/dc/dcmitype/StillImage"/>
    <dc:date>2026-06-01T12:21:21.096241</dc:date>
    <dc:format>image/svg+xml</dc:format>
    <dc:creator>
     <cc:Agent>
      <dc:title>Matplotlib v3.10.9, https://matplotlib.org/</dc:title>
     </cc:Agent>
    </dc:creator>
   </cc:Work>
  </rdf:RDF>
 </metadata>
 <defs>
  <style type="text/css">*{stroke-linejoin: round; stroke-linecap: butt}</style>
 </defs>
 <g id="figure_1">
  <g id="patch_1">
   <path d="M 0 120 
L 288 120 
L 288 0 
L 0 0 
L 0 120 
z
" style="fill: none; opacity: 0"/>
  </g>
  <g id="axes_1">
   <g id="patch_2">
    <path d="M 8.64 108 
L 279.36 108 
L 279.36 4.8 
L 8.64 4.8 
L 8.64 108 
z
" style="fill: none"/>
   </g>
   <g id="matplotlib.axis_1"/>
   <g id="matplotlib.axis_2"/>
   <g id="line2d_1">
    <path d="M 8.64 87.36 
L 279.36 87.36 
" clip-path="url(#p186c2991dc)" style="fill: none; stroke: #b2b2b2; stroke-opacity: 0.35; stroke-width: 0.5; stroke-linecap: square"/>
   </g>
   <g id="line2d_2">
    <path d="M 8.64 66.72 
L 279.36 66.72 
" clip-path="url(#p186c2991dc)" style="fill: none; stroke: #b2b2b2; stroke-opacity: 0.35; stroke-width: 0.5; stroke-linecap: square"/>
   </g>
   <g id="line2d_3">
    <path d="M 8.64 46.08 
L 279.36 46.08 
" clip-path="url(#p186c2991dc)" style="fill: none; stroke: #b2b2b2; stroke-opacity: 0.35; stroke-width: 0.5; stroke-linecap: square"/>
   </g>
   <g id="line2d_4">
    <path d="M 8.64 25.44 
L 279.36 25.44 
" clip-path="url(#p186c2991dc)" style="fill: none; stroke: #b2b2b2; stroke-opacity: 0.35; stroke-width: 0.5; stroke-linecap: square"/>
   </g>
   <g id="line2d_5">
    <path d="M 8.64 100.74504 
L 11.685126 100.21872 
L 14.722268 100.53864 
L 17.737536 101.07528 
L 20.805627 101.38488 
L 23.85332 101.26104 
L 26.872385 100.78632 
L 29.909774 100.91016 
L 32.960316 100.99272 
L 35.993027 100.38384 
L 39.027567 100.50768 
L 42.124285 100.60056 
L 45.171451 99.76464 
L 48.15686 99.49632 
L 51.21862 99.40344 
L 54.258049 100.09488 
L 57.267056 100.3632 
L 60.287845 100.19808 
L 63.371868 100.47672 
L 66.417591 100.79664 
L 69.428041 100.26 
L 72.692936 99.83688 
L 75.542172 100.13616 
L 78.584589 100.80696 
L 81.594124 101.38488 
L 84.674102 101.3436 
L 87.721373 101.292 
L 90.740791 101.28168 
L 93.805435 101.28168 
L 96.803997 101.8596 
L 99.846064 101.88024 
L 102.858623 101.72544 
L 105.942962 101.68416 
L 108.989389 101.47776 
L 112.008244 101.78736 
L 115.051752 101.09592 
L 118.07975 101.46744 
L 121.146294 101.3436 
L 124.13842 101.05464 
L 127.231516 101.3952 
L 130.28568 101.47776 
L 133.304922 100.86888 
L 136.341185 101.26104 
L 139.392922 100.99272 
L 142.425317 100.61088 
L 145.430385 100.44576 
L 148.509097 100.94112 
L 151.555208 101.09592 
L 154.580463 101.00304 
L 157.609622 100.69344 
L 160.660516 100.9308 
L 163.707154 100.92048 
L 166.709479 100.81728 
L 169.79533 100.8792 
L 172.866657 100.64184 
L 175.911607 101.1888 
L 178.941891 101.09592 
L 181.985575 101.37456 
L 185.057359 101.21976 
L 188.018396 101.20944 
L 191.118666 101.23008 
L 194.156196 100.92048 
L 197.127854 101.06496 
L 200.219965 100.70376 
L 203.259358 100.55928 
L 206.24737 100.53864 
L 209.297068 99.60984 
L 212.396881 99.72336 
L 215.45945 99.44472 
L 218.455832 99.25896 
L 221.508871 99.32088 
L 224.544079 100.22904 
L 227.597645 100.01232 
L 230.597438 100.43544 
L 233.68139 100.75536 
L 236.749481 101.02368 
L 239.766296 101.02368 
L 242.815748 101.17848 
L 245.871635 100.7244 
L 248.886938 100.75536 
L 251.883777 101.11656 
L 254.970472 100.91016 
L 258.049043 100.89984 
L 261.041592 101.1372 
L 264.111371 101.2404 
L 267.140249 101.6532 
L 270.181084 101.4984 
L 273.175848 101.48808 
L 276.27647 101.32296 
L 279.36 101.51904 
" clip-path="url(#p186c2991dc)" style="fill: none; stroke: #bebebe; stroke-width: 0.5; stroke-linecap: round"/>
   </g>
   <g id="line2d_6">
    <path d="M 8.64 90.23928 
L 11.685126 88.0824 
L 14.722268 88.7532 
L 17.737536 90.16704 
L 20.805627 90.67272 
L 23.85332 90.18768 
L 26.872385 89.2692 
L 29.909774 89.54784 
L 32.960316 89.49624 
L 35.993027 88.31976 
L 39.027567 88.45392 
L 42.124285 88.46424 
L 45.171451 86.38992 
L 48.15686 84.80064 
L 51.21862 84.8316 
L 54.258049 86.586 
L 57.267056 87.74184 
L 60.287845 87.618 
L 63.371868 88.19592 
L 66.417591 89.08344 
L 69.428041 87.89664 
L 72.692936 87.3084 
L 75.542172 87.65928 
L 78.584589 88.96992 
L 81.594124 90.07416 
L 84.674102 89.76456 
L 87.721373 89.3724 
L 90.740791 89.00088 
L 93.805435 88.42296 
L 96.803997 88.81512 
L 99.846064 89.10408 
L 102.858623 89.14536 
L 105.942962 89.07312 
L 108.989389 87.9792 
L 112.008244 88.29912 
L 115.051752 86.38992 
L 118.07975 87.24648 
L 121.146294 87.1536 
L 124.13842 86.21448 
L 127.231516 86.66856 
L 130.28568 87.01944 
L 133.304922 84.44976 
L 136.341185 85.05864 
L 139.392922 84.58392 
L 142.425317 85.04832 
L 145.430385 83.71704 
L 148.509097 84.86256 
L 151.555208 85.6572 
L 154.580463 85.27536 
L 157.609622 84.49104 
L 160.660516 84.86256 
L 163.707154 85.32696 
L 166.709479 85.17216 
L 169.79533 85.31664 
L 172.866657 84.11952 
L 175.911607 85.66752 
L 178.941891 85.26504 
L 181.985575 86.26608 
L 185.057359 85.77072 
L 188.018396 85.38888 
L 191.118666 85.3992 
L 194.156196 84.09888 
L 197.127854 84.22272 
L 200.219965 84.34656 
L 203.259358 85.06896 
L 206.24737 85.7604 
L 209.297068 85.0896 
L 212.396881 85.01736 
L 215.45945 84.9348 
L 218.455832 85.296 
L 221.508871 85.35792 
L 224.544079 86.1732 
L 227.597645 85.92552 
L 230.597438 86.55504 
L 233.68139 87.13296 
L 236.749481 88.10304 
L 239.766296 87.9276 
L 242.815748 88.26816 
L 245.871635 87.78312 
L 248.886938 87.95856 
L 251.883777 88.94928 
L 254.970472 88.14432 
L 258.049043 88.33008 
L 261.041592 88.52616 
L 264.111371 88.86672 
L 267.140249 90.22896 
L 270.181084 89.82648 
L 273.175848 89.87808 
L 276.27647 89.46528 
L 279.36 90.0432 
" clip-path="url(#p186c2991dc)" style="fill: none; stroke: #4a8dff; stroke-width: 0.6"/>
   </g>
   <g id="line2d_7">
    <path d="M 8.64 100.79664 
L 11.685126 99.3312 
L 14.722268 99.92976 
L 17.737536 100.78632 
L 20.805627 101.17848 
L 23.85332 101.1372 
L 26.872385 100.21872 
L 29.909774 100.37352 
L 32.960316 100.4664 
L 35.993027 99.88848 
L 39.027567 99.94008 
L 42.124285 99.81624 
L 45.171451 98.93904 
L 48.15686 98.3508 
L 51.21862 98.52624 
L 54.258049 99.78528 
L 57.267056 100.12584 
L 60.287845 100.03296 
L 63.371868 100.45608 
L 66.417591 100.83792 
L 69.428041 100.11552 
L 72.692936 99.87816 
L 75.542172 100.002 
L 78.584589 100.64184 
L 81.594124 101.41584 
L 84.674102 101.21976 
L 87.721373 101.14752 
L 90.740791 101.00304 
L 93.805435 100.86888 
L 96.803997 101.21976 
L 99.846064 101.28168 
L 102.858623 101.20944 
L 105.942962 101.14752 
L 108.989389 100.55928 
L 112.008244 100.65216 
L 115.051752 99.80592 
L 118.07975 99.96072 
L 121.146294 99.6408 
L 124.13842 99.1764 
L 127.231516 99.70272 
L 130.28568 99.94008 
L 133.304922 98.57784 
L 136.341185 98.65008 
L 139.392922 98.38176 
L 142.425317 98.48496 
L 145.430385 96.70992 
L 148.509097 98.05152 
L 151.555208 98.48496 
L 154.580463 97.96896 
L 157.609622 96.32808 
L 160.660516 96.20424 
L 163.707154 96.16296 
L 166.709479 96.1836 
L 169.79533 96.50352 
L 172.866657 94.76976 
L 175.911607 97.19496 
L 178.941891 96.9576 
L 181.985575 97.9896 
L 185.057359 96.89568 
L 188.018396 95.45088 
L 191.118666 95.67792 
L 194.156196 93.43848 
L 197.127854 92.90184 
L 200.219965 92.25168 
L 203.259358 92.87088 
L 206.24737 94.2744 
L 209.297068 93.1392 
L 212.396881 92.97408 
L 215.45945 92.9844 
L 218.455832 92.60256 
L 221.508871 92.53032 
L 224.544079 94.54272 
L 227.597645 92.85024 
L 230.597438 94.82136 
L 233.68139 95.75016 
L 236.749481 96.97824 
L 239.766296 97.08144 
L 242.815748 97.23624 
L 245.871635 95.94624 
L 248.886938 96.30744 
L 251.883777 98.08248 
L 254.970472 97.2672 
L 258.049043 96.61704 
L 261.041592 97.23624 
L 264.111371 98.08248 
L 267.140249 99.18672 
L 270.181084 99.03192 
L 273.175848 99.1248 
L 276.27647 98.74296 
L 279.36 99.09384 
" clip-path="url(#p186c2991dc)" style="fill: none; stroke: #f5841e; stroke-width: 0.6"/>
   </g>
  </g>
 </g>
 <defs>
  <clipPath id="p186c2991dc">
   <rect x="8.64" y="4.8" width="270.72" height="103.2"/>
  </clipPath>
 </defs>
</svg>
