<?xml version="1.0" encoding="utf-8" standalone="no"?>
<!DOCTYPE svg PUBLIC "-//W3C//DTD SVG 1.1//EN"
  "http://www.w3.org/Graphics/SVG/1.1/DTD/svg11.dtd">
<svg xmlns:xlink="http://www.w3.org/1999/xlink" width="288pt" height="120pt" viewBox="0 0 288 120" xmlns="http://www.w3.org/2000/svg" version="1.1">
<desc id="nav-meta">{"window":"3m","count":4,"labels":["19.12","18.01","17.02","19.03"],"tick_utc":["2025-12-19T12:00:00Z","2026-01-18T12:00:00Z","2026-02-17T00:31:58Z","2026-03-19T03:32:50Z"],"w":720,"h":300}</desc>

 <metadata>
  <rdf:RDF xmlns:dc="http://purl.org/dc/elements/1.1/" xmlns:cc="http://creativecommons.org/ns#" xmlns:rdf="http://www.w3.org/1999/02/22-rdf-syntax-ns#">
   <cc:Work>
    <dc:type rdf:resource="http://purl.org/dc/dcmitype/StillImage"/>
    <dc:date>2026-03-19T07:35:44.698384</dc:date>
    <dc:format>image/svg+xml</dc:format>
    <dc:creator>
     <cc:Agent>
      <dc:title>Matplotlib v3.10.8, https://matplotlib.org/</dc:title>
     </cc:Agent>
    </dc:creator>
   </cc:Work>
  </rdf:RDF>
 </metadata>
 <defs>
  <style type="text/css">*{stroke-linejoin: round; stroke-linecap: butt}</style>
 </defs>
 <g id="figure_1">
  <g id="patch_1">
   <path d="M 0 120 
L 288 120 
L 288 0 
L 0 0 
L 0 120 
z
" style="fill: none; opacity: 0"/>
  </g>
  <g id="axes_1">
   <g id="patch_2">
    <path d="M 8.64 108 
L 279.36 108 
L 279.36 4.8 
L 8.64 4.8 
L 8.64 108 
z
" style="fill: none"/>
   </g>
   <g id="matplotlib.axis_1"/>
   <g id="matplotlib.axis_2"/>
   <g id="line2d_1">
    <path d="M 8.64 87.36 
L 279.36 87.36 
" clip-path="url(#pe3b34592de)" style="fill: none; stroke: #b2b2b2; stroke-opacity: 0.35; stroke-width: 0.5; stroke-linecap: square"/>
   </g>
   <g id="line2d_2">
    <path d="M 8.64 66.72 
L 279.36 66.72 
" clip-path="url(#pe3b34592de)" style="fill: none; stroke: #b2b2b2; stroke-opacity: 0.35; stroke-width: 0.5; stroke-linecap: square"/>
   </g>
   <g id="line2d_3">
    <path d="M 8.64 46.08 
L 279.36 46.08 
" clip-path="url(#pe3b34592de)" style="fill: none; stroke: #b2b2b2; stroke-opacity: 0.35; stroke-width: 0.5; stroke-linecap: square"/>
   </g>
   <g id="line2d_4">
    <path d="M 8.64 25.44 
L 279.36 25.44 
" clip-path="url(#pe3b34592de)" style="fill: none; stroke: #b2b2b2; stroke-opacity: 0.35; stroke-width: 0.5; stroke-linecap: square"/>
   </g>
   <g id="line2d_5">
    <path d="M 8.64 93.8616 
L 11.659818 92.02464 
L 14.679635 92.13816 
L 17.699453 92.07624 
L 20.71927 92.14848 
L 23.739088 92.64384 
L 26.758905 93.01536 
L 29.778723 93.69648 
L 32.79854 93.11856 
L 35.818358 92.44776 
L 38.838175 92.30328 
L 41.857993 92.87088 
L 44.87781 92.38584 
L 47.897628 92.47872 
L 50.917445 91.88016 
L 53.937263 90.42504 
L 56.95708 90.08448 
L 59.976898 89.92968 
L 62.996715 88.76352 
L 66.016533 87.94824 
L 69.03635 89.2692 
L 72.056168 88.72224 
L 75.075985 89.39304 
L 78.095803 89.40336 
L 81.115621 88.41264 
L 84.135438 88.4952 
L 87.155256 86.86464 
L 90.175073 86.42088 
L 93.194891 87.62832 
L 96.214708 86.93688 
L 99.234526 87.23616 
L 102.254343 88.63968 
L 105.274161 90.0432 
L 108.293978 92.12784 
L 111.313796 91.16808 
L 114.333613 91.46736 
L 117.353431 91.73568 
L 120.373248 91.78728 
L 123.393066 94.0164 
L 126.412883 92.5716 
L 129.432701 91.76664 
L 132.452518 92.33424 
L 135.472336 94.36728 
L 138.492153 94.46016 
L 141.511971 97.71096 
L 144.531788 98.48496 
L 147.551606 97.85544 
L 150.10101 99.10416 
L 152.500821 100.16712 
L 155.519101 102.23112 
L 158.525986 100.54896 
L 161.614833 100.70376 
L 164.60973 100.68312 
L 167.646779 100.95144 
L 170.66034 101.28168 
L 173.669288 101.71512 
L 176.688197 101.84928 
L 179.671699 101.034 
L 182.532173 100.54896 
L 185.745692 101.04432 
L 188.38618 100.81728 
L 191.780538 101.034 
L 194.796686 101.4984 
L 197.798853 101.33328 
L 200.800216 101.1372 
L 203.854531 101.06496 
L 206.883436 102.09696 
L 209.648142 102.05568 
L 212.912201 101.4984 
L 215.918562 100.60056 
L 218.932648 100.80696 
L 221.916884 101.45712 
L 225.005312 100.55928 
L 227.993953 101.10624 
L 231.020795 100.8792 
L 234.023696 100.74504 
L 237.050015 100.21872 
L 240.068399 100.53864 
L 243.065044 101.07528 
L 246.114186 101.38488 
L 249.143056 101.26104 
L 252.143475 100.78632 
L 255.162104 100.91016 
L 258.193805 100.99272 
L 261.207786 100.38384 
L 264.223584 100.50768 
L 267.301177 100.60056 
L 270.329522 99.76464 
L 273.296493 99.49632 
L 276.339344 99.40344 
L 279.36 100.09488 
" clip-path="url(#pe3b34592de)" style="fill: none; stroke: #bebebe; stroke-width: 0.5; stroke-linecap: round"/>
   </g>
   <g id="line2d_6">
    <path d="M 8.64 77.63856 
L 11.659818 75.40944 
L 14.679635 75.40944 
L 17.699453 75.04824 
L 20.71927 74.98632 
L 23.739088 75.58488 
L 26.758905 75.87384 
L 29.778723 76.49304 
L 32.79854 76.15248 
L 35.818358 75.82224 
L 38.838175 75.84288 
L 41.857993 76.03896 
L 44.87781 75.51264 
L 47.897628 75.56424 
L 50.917445 75.05856 
L 53.937263 73.26288 
L 56.95708 73.20096 
L 59.976898 73.00488 
L 62.996715 71.68392 
L 66.016533 70.6932 
L 69.03635 72.62304 
L 72.056168 73.52088 
L 75.075985 73.83048 
L 78.095803 73.8408 
L 81.115621 73.29384 
L 84.135438 73.72728 
L 87.155256 70.32168 
L 90.175073 69.77472 
L 93.194891 70.34232 
L 96.214708 70.67256 
L 99.234526 70.51776 
L 102.254343 70.848 
L 105.274161 72.31344 
L 108.293978 76.01832 
L 111.313796 75.41976 
L 114.333613 75.83256 
L 117.353431 75.79128 
L 120.373248 75.82224 
L 123.393066 77.82432 
L 126.412883 76.14216 
L 129.432701 74.75928 
L 132.452518 74.96568 
L 135.472336 77.75208 
L 138.492153 79.48584 
L 141.511971 83.31456 
L 144.531788 85.90488 
L 147.551606 84.79032 
L 150.10101 85.84296 
L 152.500821 88.25784 
L 155.519101 91.41576 
L 158.525986 88.7532 
L 161.614833 88.65 
L 164.60973 88.55712 
L 167.646779 88.96992 
L 170.66034 89.7336 
L 173.669288 90.456 
L 176.688197 90.56952 
L 179.671699 89.15568 
L 182.532173 88.9596 
L 185.745692 90.6624 
L 188.38618 89.94 
L 191.780538 90.00192 
L 194.796686 90.3528 
L 197.798853 90.62112 
L 200.800216 90.5076 
L 203.854531 90.3528 
L 206.883436 92.004 
L 209.648142 92.13816 
L 212.912201 91.25064 
L 215.918562 89.166 
L 218.932648 89.56848 
L 221.916884 90.93072 
L 225.005312 89.41368 
L 227.993953 90.37344 
L 231.020795 89.79552 
L 234.023696 90.23928 
L 237.050015 88.0824 
L 240.068399 88.7532 
L 243.065044 90.16704 
L 246.114186 90.67272 
L 249.143056 90.18768 
L 252.143475 89.2692 
L 255.162104 89.54784 
L 258.193805 89.49624 
L 261.207786 88.31976 
L 264.223584 88.45392 
L 267.301177 88.46424 
L 270.329522 86.38992 
L 273.296493 84.80064 
L 276.339344 84.8316 
L 279.36 86.586 
" clip-path="url(#pe3b34592de)" style="fill: none; stroke: #4a8dff; stroke-width: 0.6"/>
   </g>
   <g id="line2d_7">
    <path d="M 8.64 88.17528 
L 11.659818 85.41984 
L 14.679635 85.17216 
L 17.699453 84.9348 
L 20.71927 85.01736 
L 23.739088 86.14224 
L 26.758905 85.90488 
L 29.778723 86.328 
L 32.79854 86.24544 
L 35.818358 85.72944 
L 38.838175 85.7088 
L 41.857993 86.40024 
L 44.87781 85.09992 
L 47.897628 86.02872 
L 50.917445 84.78 
L 53.937263 83.53128 
L 56.95708 82.83984 
L 59.976898 82.03488 
L 62.996715 79.39296 
L 66.016533 79.66128 
L 69.03635 82.15872 
L 72.056168 82.43736 
L 75.075985 82.93272 
L 78.095803 83.00496 
L 81.115621 82.6128 
L 84.135438 82.28256 
L 87.155256 78.01008 
L 90.175073 76.19376 
L 93.194891 77.66952 
L 96.214708 77.74176 
L 99.234526 78.1752 
L 102.254343 79.5684 
L 105.274161 80.8068 
L 108.293978 85.20312 
L 111.313796 84.12984 
L 114.333613 84.03696 
L 117.353431 84.06792 
L 120.373248 84.3156 
L 123.393066 87.02976 
L 126.412883 85.21344 
L 129.432701 84.28464 
L 132.452518 84.32592 
L 135.472336 89.08344 
L 138.492153 89.5272 
L 141.511971 95.14128 
L 144.531788 96.98856 
L 147.551606 95.08968 
L 150.10101 97.71096 
L 152.500821 99.80592 
L 155.519101 101.79768 
L 158.525986 100.03296 
L 161.614833 100.518 
L 164.60973 99.98136 
L 167.646779 100.49736 
L 170.66034 100.78632 
L 173.669288 101.07528 
L 176.688197 101.26104 
L 179.671699 100.63152 
L 182.532173 100.38384 
L 185.745692 100.84824 
L 188.38618 100.65216 
L 191.780538 101.034 
L 194.796686 101.19912 
L 197.798853 101.10624 
L 200.800216 100.97208 
L 203.854531 100.91016 
L 206.883436 101.7564 
L 209.648142 101.84928 
L 212.912201 101.56032 
L 215.918562 100.85856 
L 218.932648 101.12688 
L 221.916884 101.4468 
L 225.005312 101.02368 
L 227.993953 101.30232 
L 231.020795 100.81728 
L 234.023696 100.79664 
L 237.050015 99.3312 
L 240.068399 99.92976 
L 243.065044 100.78632 
L 246.114186 101.17848 
L 249.143056 101.1372 
L 252.143475 100.21872 
L 255.162104 100.37352 
L 258.193805 100.4664 
L 261.207786 99.88848 
L 264.223584 99.94008 
L 267.301177 99.81624 
L 270.329522 98.93904 
L 273.296493 98.3508 
L 276.339344 98.52624 
L 279.36 99.78528 
" clip-path="url(#pe3b34592de)" style="fill: none; stroke: #f5841e; stroke-width: 0.6"/>
   </g>
  </g>
 </g>
 <defs>
  <clipPath id="pe3b34592de">
   <rect x="8.64" y="4.8" width="270.72" height="103.2"/>
  </clipPath>
 </defs>
</svg>
