<?xml version="1.0" encoding="utf-8" standalone="no"?>
<!DOCTYPE svg PUBLIC "-//W3C//DTD SVG 1.1//EN"
  "http://www.w3.org/Graphics/SVG/1.1/DTD/svg11.dtd">
<svg xmlns:xlink="http://www.w3.org/1999/xlink" width="288pt" height="120pt" viewBox="0 0 288 120" xmlns="http://www.w3.org/2000/svg" version="1.1">
<desc id="nav-meta">{"window":"2w","count":4,"labels":["04.02","08.02","13.02","17.02"],"tick_utc":["2026-02-04T08:15:41Z","2026-02-08T03:46:03Z","2026-02-13T03:33:47Z","2026-02-17T00:31:58Z"],"w":720,"h":300}</desc>

 <metadata>
  <rdf:RDF xmlns:dc="http://purl.org/dc/elements/1.1/" xmlns:cc="http://creativecommons.org/ns#" xmlns:rdf="http://www.w3.org/1999/02/22-rdf-syntax-ns#">
   <cc:Work>
    <dc:type rdf:resource="http://purl.org/dc/dcmitype/StillImage"/>
    <dc:date>2026-02-17T13:52:18.245343</dc:date>
    <dc:format>image/svg+xml</dc:format>
    <dc:creator>
     <cc:Agent>
      <dc:title>Matplotlib v3.10.8, https://matplotlib.org/</dc:title>
     </cc:Agent>
    </dc:creator>
   </cc:Work>
  </rdf:RDF>
 </metadata>
 <defs>
  <style type="text/css">*{stroke-linejoin: round; stroke-linecap: butt}</style>
 </defs>
 <g id="figure_1">
  <g id="patch_1">
   <path d="M 0 120 
L 288 120 
L 288 0 
L 0 0 
L 0 120 
z
" style="fill: none; opacity: 0"/>
  </g>
  <g id="axes_1">
   <g id="patch_2">
    <path d="M 8.64 108 
L 279.36 108 
L 279.36 4.8 
L 8.64 4.8 
L 8.64 108 
z
" style="fill: none"/>
   </g>
   <g id="matplotlib.axis_1"/>
   <g id="matplotlib.axis_2"/>
   <g id="line2d_1">
    <path d="M 8.64 87.36 
L 279.36 87.36 
" clip-path="url(#p35f72448ec)" style="fill: none; stroke: #b2b2b2; stroke-opacity: 0.35; stroke-width: 0.5; stroke-linecap: square"/>
   </g>
   <g id="line2d_2">
    <path d="M 8.64 66.72 
L 279.36 66.72 
" clip-path="url(#p35f72448ec)" style="fill: none; stroke: #b2b2b2; stroke-opacity: 0.35; stroke-width: 0.5; stroke-linecap: square"/>
   </g>
   <g id="line2d_3">
    <path d="M 8.64 46.08 
L 279.36 46.08 
" clip-path="url(#p35f72448ec)" style="fill: none; stroke: #b2b2b2; stroke-opacity: 0.35; stroke-width: 0.5; stroke-linecap: square"/>
   </g>
   <g id="line2d_4">
    <path d="M 8.64 25.44 
L 279.36 25.44 
" clip-path="url(#p35f72448ec)" style="fill: none; stroke: #b2b2b2; stroke-opacity: 0.35; stroke-width: 0.5; stroke-linecap: square"/>
   </g>
   <g id="line2d_5">
    <path d="M 8.64 99.10416 
L 25.609414 100.16712 
L 46.952108 102.23112 
L 68.214232 100.54896 
L 90.055918 100.70376 
L 111.23327 100.68312 
L 132.708683 100.95144 
L 154.018012 101.28168 
L 175.294718 101.71512 
L 196.64186 101.84928 
L 217.738643 101.034 
L 237.965465 100.54896 
L 260.688726 101.04432 
L 279.36 100.81728 
" clip-path="url(#p35f72448ec)" style="fill: none; stroke: #bebebe; stroke-width: 0.5; stroke-linecap: round"/>
   </g>
   <g id="line2d_6">
    <path d="M 8.64 85.84296 
L 25.609414 88.25784 
L 46.952108 91.41576 
L 68.214232 88.7532 
L 90.055918 88.65 
L 111.23327 88.55712 
L 132.708683 88.96992 
L 154.018012 89.7336 
L 175.294718 90.456 
L 196.64186 90.56952 
L 217.738643 89.15568 
L 237.965465 88.9596 
L 260.688726 90.6624 
L 279.36 89.94 
" clip-path="url(#p35f72448ec)" style="fill: none; stroke: #4a8dff; stroke-width: 0.6"/>
   </g>
   <g id="line2d_7">
    <path d="M 8.64 97.71096 
L 25.609414 99.80592 
L 46.952108 101.79768 
L 68.214232 100.03296 
L 90.055918 100.518 
L 111.23327 99.98136 
L 132.708683 100.49736 
L 154.018012 100.78632 
L 175.294718 101.07528 
L 196.64186 101.26104 
L 217.738643 100.63152 
L 237.965465 100.38384 
L 260.688726 100.84824 
L 279.36 100.65216 
" clip-path="url(#p35f72448ec)" style="fill: none; stroke: #f5841e; stroke-width: 0.6"/>
   </g>
  </g>
 </g>
 <defs>
  <clipPath id="p35f72448ec">
   <rect x="8.64" y="4.8" width="270.72" height="103.2"/>
  </clipPath>
 </defs>
</svg>
