<?xml version="1.0" encoding="utf-8" standalone="no"?>
<!DOCTYPE svg PUBLIC "-//W3C//DTD SVG 1.1//EN"
  "http://www.w3.org/Graphics/SVG/1.1/DTD/svg11.dtd">
<svg xmlns:xlink="http://www.w3.org/1999/xlink" width="288pt" height="120pt" viewBox="0 0 288 120" xmlns="http://www.w3.org/2000/svg" version="1.1">
<desc id="nav-meta">{"window":"3m","count":4,"labels":["14.01","13.02","15.03","14.04"],"tick_utc":["2026-01-14T12:00:00Z","2026-02-13T03:33:47Z","2026-03-15T03:42:35Z","2026-04-14T03:53:32Z"],"w":720,"h":300}</desc>

 <metadata>
  <rdf:RDF xmlns:dc="http://purl.org/dc/elements/1.1/" xmlns:cc="http://creativecommons.org/ns#" xmlns:rdf="http://www.w3.org/1999/02/22-rdf-syntax-ns#">
   <cc:Work>
    <dc:type rdf:resource="http://purl.org/dc/dcmitype/StillImage"/>
    <dc:date>2026-04-14T08:14:21.750635</dc:date>
    <dc:format>image/svg+xml</dc:format>
    <dc:creator>
     <cc:Agent>
      <dc:title>Matplotlib v3.10.8, https://matplotlib.org/</dc:title>
     </cc:Agent>
    </dc:creator>
   </cc:Work>
  </rdf:RDF>
 </metadata>
 <defs>
  <style type="text/css">*{stroke-linejoin: round; stroke-linecap: butt}</style>
 </defs>
 <g id="figure_1">
  <g id="patch_1">
   <path d="M 0 120 
L 288 120 
L 288 0 
L 0 0 
L 0 120 
z
" style="fill: none; opacity: 0"/>
  </g>
  <g id="axes_1">
   <g id="patch_2">
    <path d="M 8.64 108 
L 279.36 108 
L 279.36 4.8 
L 8.64 4.8 
L 8.64 108 
z
" style="fill: none"/>
   </g>
   <g id="matplotlib.axis_1"/>
   <g id="matplotlib.axis_2"/>
   <g id="line2d_1">
    <path d="M 8.64 87.36 
L 279.36 87.36 
" clip-path="url(#p5606d6a311)" style="fill: none; stroke: #b2b2b2; stroke-opacity: 0.35; stroke-width: 0.5; stroke-linecap: square"/>
   </g>
   <g id="line2d_2">
    <path d="M 8.64 66.72 
L 279.36 66.72 
" clip-path="url(#p5606d6a311)" style="fill: none; stroke: #b2b2b2; stroke-opacity: 0.35; stroke-width: 0.5; stroke-linecap: square"/>
   </g>
   <g id="line2d_3">
    <path d="M 8.64 46.08 
L 279.36 46.08 
" clip-path="url(#p5606d6a311)" style="fill: none; stroke: #b2b2b2; stroke-opacity: 0.35; stroke-width: 0.5; stroke-linecap: square"/>
   </g>
   <g id="line2d_4">
    <path d="M 8.64 25.44 
L 279.36 25.44 
" clip-path="url(#p5606d6a311)" style="fill: none; stroke: #b2b2b2; stroke-opacity: 0.35; stroke-width: 0.5; stroke-linecap: square"/>
   </g>
   <g id="line2d_5">
    <path d="M 8.64 86.86464 
L 11.659333 86.42088 
L 14.678667 87.62832 
L 17.698 86.93688 
L 20.717333 87.23616 
L 23.736667 88.63968 
L 26.756 90.0432 
L 29.775334 92.12784 
L 32.794667 91.16808 
L 35.814 91.46736 
L 38.833334 91.73568 
L 41.852667 91.78728 
L 44.872 94.0164 
L 47.891334 92.5716 
L 50.910667 91.76664 
L 53.930001 92.33424 
L 56.949334 94.36728 
L 59.968667 94.46016 
L 62.988001 97.71096 
L 66.007334 98.48496 
L 69.026667 97.85544 
L 71.575663 99.10416 
L 73.975089 100.16712 
L 76.992885 102.23112 
L 79.999288 100.54896 
L 83.08764 100.70376 
L 86.082057 100.68312 
L 89.118619 100.95144 
L 92.131697 101.28168 
L 95.140162 101.71512 
L 98.158587 101.84928 
L 101.141611 101.034 
L 104.001626 100.54896 
L 107.21463 101.04432 
L 109.854694 100.81728 
L 113.248509 101.034 
L 116.264173 101.4984 
L 119.265859 101.33328 
L 122.266741 101.1372 
L 125.320566 101.06496 
L 128.348985 102.09696 
L 131.113248 102.05568 
L 134.376783 101.4984 
L 137.382663 100.60056 
L 140.396265 100.80696 
L 143.380023 101.45712 
L 146.467956 100.55928 
L 149.456117 101.10624 
L 152.482475 100.8792 
L 155.484894 100.74504 
L 158.510727 100.21872 
L 161.528628 100.53864 
L 164.524792 101.07528 
L 167.573445 101.38488 
L 170.60183 101.26104 
L 173.601768 100.78632 
L 176.619913 100.91016 
L 179.651128 100.99272 
L 182.664626 100.38384 
L 185.67994 100.50768 
L 188.757039 100.60056 
L 191.7849 99.76464 
L 194.751395 99.49632 
L 197.793757 99.40344 
L 200.813929 100.09488 
L 203.803873 100.3632 
L 206.805524 100.19808 
L 209.870007 100.47672 
L 212.896435 100.79664 
L 215.887811 100.26 
L 219.132022 99.83688 
L 221.963206 100.13616 
L 224.986349 100.80696 
L 227.976817 101.38488 
L 231.037282 101.3436 
L 234.065247 101.292 
L 237.065535 101.28168 
L 240.110763 101.28168 
L 243.090328 101.8596 
L 246.113121 101.88024 
L 249.106594 101.72544 
L 252.171392 101.68416 
L 255.198519 101.47776 
L 258.198247 101.78736 
L 261.222473 101.09592 
L 264.231288 101.46744 
L 267.278403 101.3436 
L 270.251573 101.05464 
L 273.325072 101.3952 
L 276.359887 101.47776 
L 279.36 100.86888 
" clip-path="url(#p5606d6a311)" style="fill: none; stroke: #bebebe; stroke-width: 0.5; stroke-linecap: round"/>
   </g>
   <g id="line2d_6">
    <path d="M 8.64 70.32168 
L 11.659333 69.77472 
L 14.678667 70.34232 
L 17.698 70.67256 
L 20.717333 70.51776 
L 23.736667 70.848 
L 26.756 72.31344 
L 29.775334 76.01832 
L 32.794667 75.41976 
L 35.814 75.83256 
L 38.833334 75.79128 
L 41.852667 75.82224 
L 44.872 77.82432 
L 47.891334 76.14216 
L 50.910667 74.75928 
L 53.930001 74.96568 
L 56.949334 77.75208 
L 59.968667 79.48584 
L 62.988001 83.31456 
L 66.007334 85.90488 
L 69.026667 84.79032 
L 71.575663 85.84296 
L 73.975089 88.25784 
L 76.992885 91.41576 
L 79.999288 88.7532 
L 83.08764 88.65 
L 86.082057 88.55712 
L 89.118619 88.96992 
L 92.131697 89.7336 
L 95.140162 90.456 
L 98.158587 90.56952 
L 101.141611 89.15568 
L 104.001626 88.9596 
L 107.21463 90.6624 
L 109.854694 89.94 
L 113.248509 90.00192 
L 116.264173 90.3528 
L 119.265859 90.62112 
L 122.266741 90.5076 
L 125.320566 90.3528 
L 128.348985 92.004 
L 131.113248 92.13816 
L 134.376783 91.25064 
L 137.382663 89.166 
L 140.396265 89.56848 
L 143.380023 90.93072 
L 146.467956 89.41368 
L 149.456117 90.37344 
L 152.482475 89.79552 
L 155.484894 90.23928 
L 158.510727 88.0824 
L 161.528628 88.7532 
L 164.524792 90.16704 
L 167.573445 90.67272 
L 170.60183 90.18768 
L 173.601768 89.2692 
L 176.619913 89.54784 
L 179.651128 89.49624 
L 182.664626 88.31976 
L 185.67994 88.45392 
L 188.757039 88.46424 
L 191.7849 86.38992 
L 194.751395 84.80064 
L 197.793757 84.8316 
L 200.813929 86.586 
L 203.803873 87.74184 
L 206.805524 87.618 
L 209.870007 88.19592 
L 212.896435 89.08344 
L 215.887811 87.89664 
L 219.132022 87.3084 
L 221.963206 87.65928 
L 224.986349 88.96992 
L 227.976817 90.07416 
L 231.037282 89.76456 
L 234.065247 89.3724 
L 237.065535 89.00088 
L 240.110763 88.42296 
L 243.090328 88.81512 
L 246.113121 89.10408 
L 249.106594 89.14536 
L 252.171392 89.07312 
L 255.198519 87.9792 
L 258.198247 88.29912 
L 261.222473 86.38992 
L 264.231288 87.24648 
L 267.278403 87.1536 
L 270.251573 86.21448 
L 273.325072 86.66856 
L 276.359887 87.01944 
L 279.36 84.44976 
" clip-path="url(#p5606d6a311)" style="fill: none; stroke: #4a8dff; stroke-width: 0.6"/>
   </g>
   <g id="line2d_7">
    <path d="M 8.64 78.01008 
L 11.659333 76.19376 
L 14.678667 77.66952 
L 17.698 77.74176 
L 20.717333 78.1752 
L 23.736667 79.5684 
L 26.756 80.8068 
L 29.775334 85.20312 
L 32.794667 84.12984 
L 35.814 84.03696 
L 38.833334 84.06792 
L 41.852667 84.3156 
L 44.872 87.02976 
L 47.891334 85.21344 
L 50.910667 84.28464 
L 53.930001 84.32592 
L 56.949334 89.08344 
L 59.968667 89.5272 
L 62.988001 95.14128 
L 66.007334 96.98856 
L 69.026667 95.08968 
L 71.575663 97.71096 
L 73.975089 99.80592 
L 76.992885 101.79768 
L 79.999288 100.03296 
L 83.08764 100.518 
L 86.082057 99.98136 
L 89.118619 100.49736 
L 92.131697 100.78632 
L 95.140162 101.07528 
L 98.158587 101.26104 
L 101.141611 100.63152 
L 104.001626 100.38384 
L 107.21463 100.84824 
L 109.854694 100.65216 
L 113.248509 101.034 
L 116.264173 101.19912 
L 119.265859 101.10624 
L 122.266741 100.97208 
L 125.320566 100.91016 
L 128.348985 101.7564 
L 131.113248 101.84928 
L 134.376783 101.56032 
L 137.382663 100.85856 
L 140.396265 101.12688 
L 143.380023 101.4468 
L 146.467956 101.02368 
L 149.456117 101.30232 
L 152.482475 100.81728 
L 155.484894 100.79664 
L 158.510727 99.3312 
L 161.528628 99.92976 
L 164.524792 100.78632 
L 167.573445 101.17848 
L 170.60183 101.1372 
L 173.601768 100.21872 
L 176.619913 100.37352 
L 179.651128 100.4664 
L 182.664626 99.88848 
L 185.67994 99.94008 
L 188.757039 99.81624 
L 191.7849 98.93904 
L 194.751395 98.3508 
L 197.793757 98.52624 
L 200.813929 99.78528 
L 203.803873 100.12584 
L 206.805524 100.03296 
L 209.870007 100.45608 
L 212.896435 100.83792 
L 215.887811 100.11552 
L 219.132022 99.87816 
L 221.963206 100.002 
L 224.986349 100.64184 
L 227.976817 101.41584 
L 231.037282 101.21976 
L 234.065247 101.14752 
L 237.065535 101.00304 
L 240.110763 100.86888 
L 243.090328 101.21976 
L 246.113121 101.28168 
L 249.106594 101.20944 
L 252.171392 101.14752 
L 255.198519 100.55928 
L 258.198247 100.65216 
L 261.222473 99.80592 
L 264.231288 99.96072 
L 267.278403 99.6408 
L 270.251573 99.1764 
L 273.325072 99.70272 
L 276.359887 99.94008 
L 279.36 98.57784 
" clip-path="url(#p5606d6a311)" style="fill: none; stroke: #f5841e; stroke-width: 0.6"/>
   </g>
  </g>
 </g>
 <defs>
  <clipPath id="p5606d6a311">
   <rect x="8.64" y="4.8" width="270.72" height="103.2"/>
  </clipPath>
 </defs>
</svg>
