<?xml version="1.0" encoding="utf-8" standalone="no"?>
<!DOCTYPE svg PUBLIC "-//W3C//DTD SVG 1.1//EN"
  "http://www.w3.org/Graphics/SVG/1.1/DTD/svg11.dtd">
<svg xmlns:xlink="http://www.w3.org/1999/xlink" width="288pt" height="120pt" viewBox="0 0 288 120" xmlns="http://www.w3.org/2000/svg" version="1.1">
<desc id="nav-meta">{"window":"1m","count":4,"labels":["30.01","09.02","18.02","28.02"],"tick_utc":["2026-01-30T12:00:00Z","2026-02-09T03:34:10Z","2026-02-18T03:30:34Z","2026-02-28T03:01:05Z"],"w":720,"h":300}</desc>

 <metadata>
  <rdf:RDF xmlns:dc="http://purl.org/dc/elements/1.1/" xmlns:cc="http://creativecommons.org/ns#" xmlns:rdf="http://www.w3.org/1999/02/22-rdf-syntax-ns#">
   <cc:Work>
    <dc:type rdf:resource="http://purl.org/dc/dcmitype/StillImage"/>
    <dc:date>2026-02-28T19:00:15.751085</dc:date>
    <dc:format>image/svg+xml</dc:format>
    <dc:creator>
     <cc:Agent>
      <dc:title>Matplotlib v3.10.8, https://matplotlib.org/</dc:title>
     </cc:Agent>
    </dc:creator>
   </cc:Work>
  </rdf:RDF>
 </metadata>
 <defs>
  <style type="text/css">*{stroke-linejoin: round; stroke-linecap: butt}</style>
 </defs>
 <g id="figure_1">
  <g id="patch_1">
   <path d="M 0 120 
L 288 120 
L 288 0 
L 0 0 
L 0 120 
z
" style="fill: none; opacity: 0"/>
  </g>
  <g id="axes_1">
   <g id="patch_2">
    <path d="M 8.64 108 
L 279.36 108 
L 279.36 4.8 
L 8.64 4.8 
L 8.64 108 
z
" style="fill: none"/>
   </g>
   <g id="matplotlib.axis_1"/>
   <g id="matplotlib.axis_2"/>
   <g id="line2d_1">
    <path d="M 8.64 87.36 
L 279.36 87.36 
" clip-path="url(#p59d30f377e)" style="fill: none; stroke: #b2b2b2; stroke-opacity: 0.35; stroke-width: 0.5; stroke-linecap: square"/>
   </g>
   <g id="line2d_2">
    <path d="M 8.64 66.72 
L 279.36 66.72 
" clip-path="url(#p59d30f377e)" style="fill: none; stroke: #b2b2b2; stroke-opacity: 0.35; stroke-width: 0.5; stroke-linecap: square"/>
   </g>
   <g id="line2d_3">
    <path d="M 8.64 46.08 
L 279.36 46.08 
" clip-path="url(#p59d30f377e)" style="fill: none; stroke: #b2b2b2; stroke-opacity: 0.35; stroke-width: 0.5; stroke-linecap: square"/>
   </g>
   <g id="line2d_4">
    <path d="M 8.64 25.44 
L 279.36 25.44 
" clip-path="url(#p59d30f377e)" style="fill: none; stroke: #b2b2b2; stroke-opacity: 0.35; stroke-width: 0.5; stroke-linecap: square"/>
   </g>
   <g id="line2d_5">
    <path d="M 8.64 94.36728 
L 18.097219 94.46016 
L 27.554437 97.71096 
L 37.011656 98.48496 
L 46.468875 97.85544 
L 54.452891 99.10416 
L 61.968424 100.16712 
L 71.420827 102.23112 
L 80.837546 100.54896 
L 90.510945 100.70376 
L 99.89012 100.68312 
L 109.401302 100.95144 
L 118.838927 101.28168 
L 128.262104 101.71512 
L 137.716477 101.84928 
L 147.059968 101.034 
L 156.018166 100.54896 
L 166.082004 101.04432 
L 174.351269 100.81728 
L 184.981445 101.034 
L 194.427171 101.4984 
L 203.829113 101.33328 
L 213.228537 101.1372 
L 222.793792 101.06496 
L 232.27947 102.09696 
L 240.93775 102.05568 
L 251.159865 101.4984 
L 260.574943 100.60056 
L 270.01421 100.80696 
L 279.36 101.45712 
" clip-path="url(#p59d30f377e)" style="fill: none; stroke: #bebebe; stroke-width: 0.5; stroke-linecap: round"/>
   </g>
   <g id="line2d_6">
    <path d="M 8.64 77.75208 
L 18.097219 79.48584 
L 27.554437 83.31456 
L 37.011656 85.90488 
L 46.468875 84.79032 
L 54.452891 85.84296 
L 61.968424 88.25784 
L 71.420827 91.41576 
L 80.837546 88.7532 
L 90.510945 88.65 
L 99.89012 88.55712 
L 109.401302 88.96992 
L 118.838927 89.7336 
L 128.262104 90.456 
L 137.716477 90.56952 
L 147.059968 89.15568 
L 156.018166 88.9596 
L 166.082004 90.6624 
L 174.351269 89.94 
L 184.981445 90.00192 
L 194.427171 90.3528 
L 203.829113 90.62112 
L 213.228537 90.5076 
L 222.793792 90.3528 
L 232.27947 92.004 
L 240.93775 92.13816 
L 251.159865 91.25064 
L 260.574943 89.166 
L 270.01421 89.56848 
L 279.36 90.93072 
" clip-path="url(#p59d30f377e)" style="fill: none; stroke: #4a8dff; stroke-width: 0.6"/>
   </g>
   <g id="line2d_7">
    <path d="M 8.64 89.08344 
L 18.097219 89.5272 
L 27.554437 95.14128 
L 37.011656 96.98856 
L 46.468875 95.08968 
L 54.452891 97.71096 
L 61.968424 99.80592 
L 71.420827 101.79768 
L 80.837546 100.03296 
L 90.510945 100.518 
L 99.89012 99.98136 
L 109.401302 100.49736 
L 118.838927 100.78632 
L 128.262104 101.07528 
L 137.716477 101.26104 
L 147.059968 100.63152 
L 156.018166 100.38384 
L 166.082004 100.84824 
L 174.351269 100.65216 
L 184.981445 101.034 
L 194.427171 101.19912 
L 203.829113 101.10624 
L 213.228537 100.97208 
L 222.793792 100.91016 
L 232.27947 101.7564 
L 240.93775 101.84928 
L 251.159865 101.56032 
L 260.574943 100.85856 
L 270.01421 101.12688 
L 279.36 101.4468 
" clip-path="url(#p59d30f377e)" style="fill: none; stroke: #f5841e; stroke-width: 0.6"/>
   </g>
  </g>
 </g>
 <defs>
  <clipPath id="p59d30f377e">
   <rect x="8.64" y="4.8" width="270.72" height="103.2"/>
  </clipPath>
 </defs>
</svg>
