<?xml version="1.0" encoding="utf-8" standalone="no"?>
<!DOCTYPE svg PUBLIC "-//W3C//DTD SVG 1.1//EN"
  "http://www.w3.org/Graphics/SVG/1.1/DTD/svg11.dtd">
<svg xmlns:xlink="http://www.w3.org/1999/xlink" width="288pt" height="120pt" viewBox="0 0 288 120" xmlns="http://www.w3.org/2000/svg" version="1.1">
<desc id="nav-meta">{"window":"3m","count":4,"labels":["09.11","09.12","08.01","07.02"],"tick_utc":["2025-11-09T12:00:00Z","2025-12-09T12:00:00Z","2026-01-08T12:00:00Z","2026-02-07T03:13:08Z"],"w":720,"h":300}</desc>

 <metadata>
  <rdf:RDF xmlns:dc="http://purl.org/dc/elements/1.1/" xmlns:cc="http://creativecommons.org/ns#" xmlns:rdf="http://www.w3.org/1999/02/22-rdf-syntax-ns#">
   <cc:Work>
    <dc:type rdf:resource="http://purl.org/dc/dcmitype/StillImage"/>
    <dc:date>2026-02-07T07:20:42.139892</dc:date>
    <dc:format>image/svg+xml</dc:format>
    <dc:creator>
     <cc:Agent>
      <dc:title>Matplotlib v3.10.8, https://matplotlib.org/</dc:title>
     </cc:Agent>
    </dc:creator>
   </cc:Work>
  </rdf:RDF>
 </metadata>
 <defs>
  <style type="text/css">*{stroke-linejoin: round; stroke-linecap: butt}</style>
 </defs>
 <g id="figure_1">
  <g id="patch_1">
   <path d="M 0 120 
L 288 120 
L 288 0 
L 0 0 
L 0 120 
z
" style="fill: none; opacity: 0"/>
  </g>
  <g id="axes_1">
   <g id="patch_2">
    <path d="M 8.64 108 
L 279.36 108 
L 279.36 4.8 
L 8.64 4.8 
L 8.64 108 
z
" style="fill: none"/>
   </g>
   <g id="matplotlib.axis_1"/>
   <g id="matplotlib.axis_2"/>
   <g id="line2d_1">
    <path d="M 8.64 87.36 
L 279.36 87.36 
" clip-path="url(#p9b83a83463)" style="fill: none; stroke: #b2b2b2; stroke-opacity: 0.35; stroke-width: 0.5; stroke-linecap: square"/>
   </g>
   <g id="line2d_2">
    <path d="M 8.64 66.72 
L 279.36 66.72 
" clip-path="url(#p9b83a83463)" style="fill: none; stroke: #b2b2b2; stroke-opacity: 0.35; stroke-width: 0.5; stroke-linecap: square"/>
   </g>
   <g id="line2d_3">
    <path d="M 8.64 46.08 
L 279.36 46.08 
" clip-path="url(#p9b83a83463)" style="fill: none; stroke: #b2b2b2; stroke-opacity: 0.35; stroke-width: 0.5; stroke-linecap: square"/>
   </g>
   <g id="line2d_4">
    <path d="M 8.64 25.44 
L 279.36 25.44 
" clip-path="url(#p9b83a83463)" style="fill: none; stroke: #b2b2b2; stroke-opacity: 0.35; stroke-width: 0.5; stroke-linecap: square"/>
   </g>
   <g id="line2d_5">
    <path d="M 8.64 83.29392 
L 11.660278 81.62208 
L 14.680557 80.72424 
L 17.700835 84.33624 
L 20.721114 84.64584 
L 23.741392 86.844 
L 26.761671 88.52616 
L 29.781949 88.36104 
L 32.802227 88.93896 
L 35.822506 90.79656 
L 38.842784 88.09272 
L 41.863063 89.22792 
L 44.883341 90.00192 
L 47.90362 91.39512 
L 50.923898 91.63248 
L 53.944176 90.75528 
L 56.964455 88.7016 
L 59.984733 88.52616 
L 63.005012 87.45288 
L 66.02529 88.0308 
L 69.045569 88.94928 
L 72.065847 89.3208 
L 75.086125 89.7336 
L 78.106404 91.86984 
L 81.126682 88.60872 
L 84.146961 86.87496 
L 87.167239 88.52616 
L 90.187518 90.11544 
L 93.207796 90.38376 
L 96.228074 90.53856 
L 99.248353 90.08448 
L 102.268631 88.79448 
L 105.28891 89.20728 
L 108.309188 89.22792 
L 111.329466 90.31152 
L 114.349745 90.10512 
L 117.370023 91.09584 
L 120.390302 91.61184 
L 123.41058 91.31256 
L 126.430859 92.87088 
L 129.451137 93.8616 
L 132.471415 92.02464 
L 135.491694 92.13816 
L 138.511972 92.07624 
L 141.532251 92.14848 
L 144.552529 92.64384 
L 147.572808 93.01536 
L 150.593086 93.69648 
L 153.613364 93.11856 
L 156.633643 92.44776 
L 159.653921 92.30328 
L 162.6742 92.87088 
L 165.694478 92.38584 
L 168.714757 92.47872 
L 171.735035 91.88016 
L 174.755313 90.42504 
L 177.775592 90.08448 
L 180.79587 89.92968 
L 183.816149 88.76352 
L 186.836427 87.94824 
L 189.856706 89.2692 
L 192.876984 88.72224 
L 195.897262 89.39304 
L 198.917541 89.40336 
L 201.937819 88.41264 
L 204.958098 88.4952 
L 207.978376 86.86464 
L 210.998655 86.42088 
L 214.018933 87.62832 
L 217.039211 86.93688 
L 220.05949 87.23616 
L 223.079768 88.63968 
L 226.100047 90.0432 
L 229.120325 92.12784 
L 232.140604 91.16808 
L 235.160882 91.46736 
L 238.18116 91.73568 
L 241.201439 91.78728 
L 244.221717 94.0164 
L 247.241996 92.5716 
L 250.262274 91.76664 
L 253.282553 92.33424 
L 256.302831 94.36728 
L 259.323109 94.46016 
L 262.343388 97.71096 
L 265.363666 98.48496 
L 268.383945 97.85544 
L 270.933738 99.10416 
L 273.333915 100.16712 
L 276.352656 102.23112 
L 279.36 100.54896 
" clip-path="url(#p9b83a83463)" style="fill: none; stroke: #bebebe; stroke-width: 0.5; stroke-linecap: round"/>
   </g>
   <g id="line2d_6">
    <path d="M 8.64 69.11424 
L 11.660278 66.5136 
L 14.680557 66.68904 
L 17.700835 68.8872 
L 20.721114 68.9904 
L 23.741392 71.5704 
L 26.761671 73.48992 
L 29.781949 72.54048 
L 32.802227 73.56216 
L 35.822506 74.74896 
L 38.842784 73.3248 
L 41.863063 74.80056 
L 44.883341 77.556 
L 47.90362 78.55704 
L 50.923898 78.50544 
L 53.944176 78.04104 
L 56.964455 75.76032 
L 59.984733 75.73968 
L 63.005012 74.65608 
L 66.02529 74.83152 
L 69.045569 74.57352 
L 72.065847 75.20304 
L 75.086125 75.17208 
L 78.106404 78.05136 
L 81.126682 75.1308 
L 84.146961 72.16896 
L 87.167239 73.08744 
L 90.187518 74.72832 
L 93.207796 74.48064 
L 96.228074 74.28456 
L 99.248353 73.21128 
L 102.268631 70.2804 
L 105.28891 70.2288 
L 108.309188 71.56008 
L 111.329466 73.79952 
L 114.349745 73.35576 
L 117.370023 74.0988 
L 120.390302 75.5952 
L 123.41058 75.5952 
L 126.430859 77.61792 
L 129.451137 77.63856 
L 132.471415 75.40944 
L 135.491694 75.40944 
L 138.511972 75.04824 
L 141.532251 74.98632 
L 144.552529 75.58488 
L 147.572808 75.87384 
L 150.593086 76.49304 
L 153.613364 76.15248 
L 156.633643 75.82224 
L 159.653921 75.84288 
L 162.6742 76.03896 
L 165.694478 75.51264 
L 168.714757 75.56424 
L 171.735035 75.05856 
L 174.755313 73.26288 
L 177.775592 73.20096 
L 180.79587 73.00488 
L 183.816149 71.68392 
L 186.836427 70.6932 
L 189.856706 72.62304 
L 192.876984 73.52088 
L 195.897262 73.83048 
L 198.917541 73.8408 
L 201.937819 73.29384 
L 204.958098 73.72728 
L 207.978376 70.32168 
L 210.998655 69.77472 
L 214.018933 70.34232 
L 217.039211 70.67256 
L 220.05949 70.51776 
L 223.079768 70.848 
L 226.100047 72.31344 
L 229.120325 76.01832 
L 232.140604 75.41976 
L 235.160882 75.83256 
L 238.18116 75.79128 
L 241.201439 75.82224 
L 244.221717 77.82432 
L 247.241996 76.14216 
L 250.262274 74.75928 
L 253.282553 74.96568 
L 256.302831 77.75208 
L 259.323109 79.48584 
L 262.343388 83.31456 
L 265.363666 85.90488 
L 268.383945 84.79032 
L 270.933738 85.84296 
L 273.333915 88.25784 
L 276.352656 91.41576 
L 279.36 88.7532 
" clip-path="url(#p9b83a83463)" style="fill: none; stroke: #4a8dff; stroke-width: 0.6"/>
   </g>
   <g id="line2d_7">
    <path d="M 8.64 70.72416 
L 11.660278 68.2164 
L 14.680557 66.978 
L 17.700835 70.03272 
L 20.721114 71.5188 
L 23.741392 73.3764 
L 26.761671 78.846 
L 29.781949 77.75208 
L 32.802227 78.88728 
L 35.822506 81.34344 
L 38.842784 80.53848 
L 41.863063 82.0452 
L 44.883341 86.92656 
L 47.90362 88.58808 
L 50.923898 88.96992 
L 53.944176 86.7924 
L 56.964455 85.296 
L 59.984733 86.24544 
L 63.005012 82.96368 
L 66.02529 82.13808 
L 69.045569 82.47864 
L 72.065847 82.58184 
L 75.086125 83.03592 
L 78.106404 87.3084 
L 81.126682 82.06584 
L 84.146961 79.71288 
L 87.167239 81.24024 
L 90.187518 84.17112 
L 93.207796 84.24336 
L 96.228074 83.29392 
L 99.248353 82.8192 
L 102.268631 80.64168 
L 105.28891 81.38472 
L 108.309188 80.87904 
L 111.329466 83.13912 
L 114.349745 83.19072 
L 117.370023 85.296 
L 120.390302 87.17424 
L 123.41058 85.71912 
L 126.430859 87.53544 
L 129.451137 88.17528 
L 132.471415 85.41984 
L 135.491694 85.17216 
L 138.511972 84.9348 
L 141.532251 85.01736 
L 144.552529 86.14224 
L 147.572808 85.90488 
L 150.593086 86.328 
L 153.613364 86.24544 
L 156.633643 85.72944 
L 159.653921 85.7088 
L 162.6742 86.40024 
L 165.694478 85.09992 
L 168.714757 86.02872 
L 171.735035 84.78 
L 174.755313 83.53128 
L 177.775592 82.83984 
L 180.79587 82.03488 
L 183.816149 79.39296 
L 186.836427 79.66128 
L 189.856706 82.15872 
L 192.876984 82.43736 
L 195.897262 82.93272 
L 198.917541 83.00496 
L 201.937819 82.6128 
L 204.958098 82.28256 
L 207.978376 78.01008 
L 210.998655 76.19376 
L 214.018933 77.66952 
L 217.039211 77.74176 
L 220.05949 78.1752 
L 223.079768 79.5684 
L 226.100047 80.8068 
L 229.120325 85.20312 
L 232.140604 84.12984 
L 235.160882 84.03696 
L 238.18116 84.06792 
L 241.201439 84.3156 
L 244.221717 87.02976 
L 247.241996 85.21344 
L 250.262274 84.28464 
L 253.282553 84.32592 
L 256.302831 89.08344 
L 259.323109 89.5272 
L 262.343388 95.14128 
L 265.363666 96.98856 
L 268.383945 95.08968 
L 270.933738 97.71096 
L 273.333915 99.80592 
L 276.352656 101.79768 
L 279.36 100.03296 
" clip-path="url(#p9b83a83463)" style="fill: none; stroke: #f5841e; stroke-width: 0.6"/>
   </g>
  </g>
 </g>
 <defs>
  <clipPath id="p9b83a83463">
   <rect x="8.64" y="4.8" width="270.72" height="103.2"/>
  </clipPath>
 </defs>
</svg>
