<?xml version="1.0" encoding="utf-8" standalone="no"?>
<!DOCTYPE svg PUBLIC "-//W3C//DTD SVG 1.1//EN"
  "http://www.w3.org/Graphics/SVG/1.1/DTD/svg11.dtd">
<svg xmlns:xlink="http://www.w3.org/1999/xlink" width="288pt" height="120pt" viewBox="0 0 288 120" xmlns="http://www.w3.org/2000/svg" version="1.1">
<desc id="nav-meta">{"window":"1m","count":4,"labels":["08.02","18.02","28.02","10.03"],"tick_utc":["2026-02-08T03:46:03Z","2026-02-18T03:30:34Z","2026-02-28T03:01:05Z","2026-03-10T03:14:38Z"],"w":720,"h":300}</desc>

 <metadata>
  <rdf:RDF xmlns:dc="http://purl.org/dc/elements/1.1/" xmlns:cc="http://creativecommons.org/ns#" xmlns:rdf="http://www.w3.org/1999/02/22-rdf-syntax-ns#">
   <cc:Work>
    <dc:type rdf:resource="http://purl.org/dc/dcmitype/StillImage"/>
    <dc:date>2026-03-10T03:14:39.833690</dc:date>
    <dc:format>image/svg+xml</dc:format>
    <dc:creator>
     <cc:Agent>
      <dc:title>Matplotlib v3.10.8, https://matplotlib.org/</dc:title>
     </cc:Agent>
    </dc:creator>
   </cc:Work>
  </rdf:RDF>
 </metadata>
 <defs>
  <style type="text/css">*{stroke-linejoin: round; stroke-linecap: butt}</style>
 </defs>
 <g id="figure_1">
  <g id="patch_1">
   <path d="M 0 120 
L 288 120 
L 288 0 
L 0 0 
L 0 120 
z
" style="fill: none; opacity: 0"/>
  </g>
  <g id="axes_1">
   <g id="patch_2">
    <path d="M 8.64 108 
L 279.36 108 
L 279.36 4.8 
L 8.64 4.8 
L 8.64 108 
z
" style="fill: none"/>
   </g>
   <g id="matplotlib.axis_1"/>
   <g id="matplotlib.axis_2"/>
   <g id="line2d_1">
    <path d="M 8.64 87.36 
L 279.36 87.36 
" clip-path="url(#p10feeecb5d)" style="fill: none; stroke: #b2b2b2; stroke-opacity: 0.35; stroke-width: 0.5; stroke-linecap: square"/>
   </g>
   <g id="line2d_2">
    <path d="M 8.64 66.72 
L 279.36 66.72 
" clip-path="url(#p10feeecb5d)" style="fill: none; stroke: #b2b2b2; stroke-opacity: 0.35; stroke-width: 0.5; stroke-linecap: square"/>
   </g>
   <g id="line2d_3">
    <path d="M 8.64 46.08 
L 279.36 46.08 
" clip-path="url(#p10feeecb5d)" style="fill: none; stroke: #b2b2b2; stroke-opacity: 0.35; stroke-width: 0.5; stroke-linecap: square"/>
   </g>
   <g id="line2d_4">
    <path d="M 8.64 25.44 
L 279.36 25.44 
" clip-path="url(#p10feeecb5d)" style="fill: none; stroke: #b2b2b2; stroke-opacity: 0.35; stroke-width: 0.5; stroke-linecap: square"/>
   </g>
   <g id="line2d_5">
    <path d="M 8.64 100.70376 
L 17.596044 100.68312 
L 26.67814 100.95144 
L 35.689998 101.28168 
L 44.68806 101.71512 
L 53.71591 101.84928 
L 62.63788 101.034 
L 71.191939 100.54896 
L 80.801759 101.04432 
L 88.697966 100.81728 
L 98.848574 101.034 
L 107.868167 101.4984 
L 116.845951 101.33328 
L 125.821332 101.1372 
L 134.955061 101.06496 
L 144.012804 102.09696 
L 152.280476 102.05568 
L 162.041433 101.4984 
L 171.03176 100.60056 
L 180.045186 100.80696 
L 188.969351 101.45712 
L 198.205092 100.55928 
L 207.142427 101.10624 
L 216.194003 100.8792 
L 225.173983 100.74504 
L 234.223991 100.21872 
L 243.250273 100.53864 
L 252.211543 101.07528 
L 261.329803 101.38488 
L 270.387441 101.26104 
L 279.36 100.78632 
" clip-path="url(#p10feeecb5d)" style="fill: none; stroke: #bebebe; stroke-width: 0.5; stroke-linecap: round"/>
   </g>
   <g id="line2d_6">
    <path d="M 8.64 88.65 
L 17.596044 88.55712 
L 26.67814 88.96992 
L 35.689998 89.7336 
L 44.68806 90.456 
L 53.71591 90.56952 
L 62.63788 89.15568 
L 71.191939 88.9596 
L 80.801759 90.6624 
L 88.697966 89.94 
L 98.848574 90.00192 
L 107.868167 90.3528 
L 116.845951 90.62112 
L 125.821332 90.5076 
L 134.955061 90.3528 
L 144.012804 92.004 
L 152.280476 92.13816 
L 162.041433 91.25064 
L 171.03176 89.166 
L 180.045186 89.56848 
L 188.969351 90.93072 
L 198.205092 89.41368 
L 207.142427 90.37344 
L 216.194003 89.79552 
L 225.173983 90.23928 
L 234.223991 88.0824 
L 243.250273 88.7532 
L 252.211543 90.16704 
L 261.329803 90.67272 
L 270.387441 90.18768 
L 279.36 89.2692 
" clip-path="url(#p10feeecb5d)" style="fill: none; stroke: #4a8dff; stroke-width: 0.6"/>
   </g>
   <g id="line2d_7">
    <path d="M 8.64 100.518 
L 17.596044 99.98136 
L 26.67814 100.49736 
L 35.689998 100.78632 
L 44.68806 101.07528 
L 53.71591 101.26104 
L 62.63788 100.63152 
L 71.191939 100.38384 
L 80.801759 100.84824 
L 88.697966 100.65216 
L 98.848574 101.034 
L 107.868167 101.19912 
L 116.845951 101.10624 
L 125.821332 100.97208 
L 134.955061 100.91016 
L 144.012804 101.7564 
L 152.280476 101.84928 
L 162.041433 101.56032 
L 171.03176 100.85856 
L 180.045186 101.12688 
L 188.969351 101.4468 
L 198.205092 101.02368 
L 207.142427 101.30232 
L 216.194003 100.81728 
L 225.173983 100.79664 
L 234.223991 99.3312 
L 243.250273 99.92976 
L 252.211543 100.78632 
L 261.329803 101.17848 
L 270.387441 101.1372 
L 279.36 100.21872 
" clip-path="url(#p10feeecb5d)" style="fill: none; stroke: #f5841e; stroke-width: 0.6"/>
   </g>
  </g>
 </g>
 <defs>
  <clipPath id="p10feeecb5d">
   <rect x="8.64" y="4.8" width="270.72" height="103.2"/>
  </clipPath>
 </defs>
</svg>
