<?xml version="1.0" encoding="utf-8" standalone="no"?>
<!DOCTYPE svg PUBLIC "-//W3C//DTD SVG 1.1//EN"
  "http://www.w3.org/Graphics/SVG/1.1/DTD/svg11.dtd">
<svg xmlns:xlink="http://www.w3.org/1999/xlink" width="288pt" height="120pt" viewBox="0 0 288 120" xmlns="http://www.w3.org/2000/svg" version="1.1">
<desc id="nav-meta">{"window":"1m","count":4,"labels":["13.04","23.04","02.05","12.05"],"tick_utc":["2026-04-13T04:02:42Z","2026-04-23T03:57:29Z","2026-05-02T04:02:31Z","2026-05-12T04:26:58Z"],"w":720,"h":300}</desc>

 <metadata>
  <rdf:RDF xmlns:dc="http://purl.org/dc/elements/1.1/" xmlns:cc="http://creativecommons.org/ns#" xmlns:rdf="http://www.w3.org/1999/02/22-rdf-syntax-ns#">
   <cc:Work>
    <dc:type rdf:resource="http://purl.org/dc/dcmitype/StillImage"/>
    <dc:date>2026-05-12T09:21:06.866697</dc:date>
    <dc:format>image/svg+xml</dc:format>
    <dc:creator>
     <cc:Agent>
      <dc:title>Matplotlib v3.10.9, https://matplotlib.org/</dc:title>
     </cc:Agent>
    </dc:creator>
   </cc:Work>
  </rdf:RDF>
 </metadata>
 <defs>
  <style type="text/css">*{stroke-linejoin: round; stroke-linecap: butt}</style>
 </defs>
 <g id="figure_1">
  <g id="patch_1">
   <path d="M 0 120 
L 288 120 
L 288 0 
L 0 0 
L 0 120 
z
" style="fill: none; opacity: 0"/>
  </g>
  <g id="axes_1">
   <g id="patch_2">
    <path d="M 8.64 108 
L 279.36 108 
L 279.36 4.8 
L 8.64 4.8 
L 8.64 108 
z
" style="fill: none"/>
   </g>
   <g id="matplotlib.axis_1"/>
   <g id="matplotlib.axis_2"/>
   <g id="line2d_1">
    <path d="M 8.64 87.36 
L 279.36 87.36 
" clip-path="url(#pfa69a77128)" style="fill: none; stroke: #b2b2b2; stroke-opacity: 0.35; stroke-width: 0.5; stroke-linecap: square"/>
   </g>
   <g id="line2d_2">
    <path d="M 8.64 66.72 
L 279.36 66.72 
" clip-path="url(#pfa69a77128)" style="fill: none; stroke: #b2b2b2; stroke-opacity: 0.35; stroke-width: 0.5; stroke-linecap: square"/>
   </g>
   <g id="line2d_3">
    <path d="M 8.64 46.08 
L 279.36 46.08 
" clip-path="url(#pfa69a77128)" style="fill: none; stroke: #b2b2b2; stroke-opacity: 0.35; stroke-width: 0.5; stroke-linecap: square"/>
   </g>
   <g id="line2d_4">
    <path d="M 8.64 25.44 
L 279.36 25.44 
" clip-path="url(#pfa69a77128)" style="fill: none; stroke: #b2b2b2; stroke-opacity: 0.35; stroke-width: 0.5; stroke-linecap: square"/>
   </g>
   <g id="line2d_5">
    <path d="M 8.64 101.47776 
L 17.91036 100.86888 
L 27.232984 101.26104 
L 36.603121 100.99272 
L 45.913867 100.61088 
L 55.14071 100.44576 
L 64.593669 100.94112 
L 73.946529 101.09592 
L 83.235354 101.00304 
L 92.536165 100.69344 
L 101.90371 100.9308 
L 111.258189 100.92048 
L 120.47661 100.81728 
L 129.95149 100.8792 
L 139.381773 100.64184 
L 148.731069 101.1888 
L 158.035336 101.09592 
L 167.380745 101.37456 
L 176.812432 101.21976 
L 185.904079 101.20944 
L 195.423233 101.23008 
L 204.749744 100.92048 
L 213.874003 101.06496 
L 223.368105 100.70376 
L 232.700339 100.55928 
L 241.87481 100.53864 
L 251.238684 99.60984 
L 260.756433 99.72336 
L 270.159829 99.44472 
L 279.36 99.25896 
" clip-path="url(#pfa69a77128)" style="fill: none; stroke: #bebebe; stroke-width: 0.5; stroke-linecap: round"/>
   </g>
   <g id="line2d_6">
    <path d="M 8.64 87.01944 
L 17.91036 84.44976 
L 27.232984 85.05864 
L 36.603121 84.58392 
L 45.913867 85.04832 
L 55.14071 83.71704 
L 64.593669 84.86256 
L 73.946529 85.6572 
L 83.235354 85.27536 
L 92.536165 84.49104 
L 101.90371 84.86256 
L 111.258189 85.32696 
L 120.47661 85.17216 
L 129.95149 85.31664 
L 139.381773 84.11952 
L 148.731069 85.66752 
L 158.035336 85.26504 
L 167.380745 86.26608 
L 176.812432 85.77072 
L 185.904079 85.38888 
L 195.423233 85.3992 
L 204.749744 84.09888 
L 213.874003 84.22272 
L 223.368105 84.34656 
L 232.700339 85.06896 
L 241.87481 85.7604 
L 251.238684 85.0896 
L 260.756433 85.01736 
L 270.159829 84.9348 
L 279.36 85.296 
" clip-path="url(#pfa69a77128)" style="fill: none; stroke: #4a8dff; stroke-width: 0.6"/>
   </g>
   <g id="line2d_7">
    <path d="M 8.64 99.94008 
L 17.91036 98.57784 
L 27.232984 98.65008 
L 36.603121 98.38176 
L 45.913867 98.48496 
L 55.14071 96.70992 
L 64.593669 98.05152 
L 73.946529 98.48496 
L 83.235354 97.96896 
L 92.536165 96.32808 
L 101.90371 96.20424 
L 111.258189 96.16296 
L 120.47661 96.1836 
L 129.95149 96.50352 
L 139.381773 94.76976 
L 148.731069 97.19496 
L 158.035336 96.9576 
L 167.380745 97.9896 
L 176.812432 96.89568 
L 185.904079 95.45088 
L 195.423233 95.67792 
L 204.749744 93.43848 
L 213.874003 92.90184 
L 223.368105 92.25168 
L 232.700339 92.87088 
L 241.87481 94.2744 
L 251.238684 93.1392 
L 260.756433 92.97408 
L 270.159829 92.9844 
L 279.36 92.60256 
" clip-path="url(#pfa69a77128)" style="fill: none; stroke: #f5841e; stroke-width: 0.6"/>
   </g>
  </g>
 </g>
 <defs>
  <clipPath id="pfa69a77128">
   <rect x="8.64" y="4.8" width="270.72" height="103.2"/>
  </clipPath>
 </defs>
</svg>
