<?xml version="1.0" encoding="utf-8" standalone="no"?>
<!DOCTYPE svg PUBLIC "-//W3C//DTD SVG 1.1//EN"
  "http://www.w3.org/Graphics/SVG/1.1/DTD/svg11.dtd">
<svg xmlns:xlink="http://www.w3.org/1999/xlink" width="288pt" height="120pt" viewBox="0 0 288 120" xmlns="http://www.w3.org/2000/svg" version="1.1">
<desc id="nav-meta">{"window":"1y","count":4,"labels":["05.03","05.07","03.11","05.03"],"tick_utc":["2025-03-05T12:00:00Z","2025-07-05T12:00:00Z","2025-11-03T12:00:00Z","2026-03-05T03:17:19Z"],"w":720,"h":300}</desc>

 <metadata>
  <rdf:RDF xmlns:dc="http://purl.org/dc/elements/1.1/" xmlns:cc="http://creativecommons.org/ns#" xmlns:rdf="http://www.w3.org/1999/02/22-rdf-syntax-ns#">
   <cc:Work>
    <dc:type rdf:resource="http://purl.org/dc/dcmitype/StillImage"/>
    <dc:date>2026-03-05T03:17:21.310230</dc:date>
    <dc:format>image/svg+xml</dc:format>
    <dc:creator>
     <cc:Agent>
      <dc:title>Matplotlib v3.10.8, https://matplotlib.org/</dc:title>
     </cc:Agent>
    </dc:creator>
   </cc:Work>
  </rdf:RDF>
 </metadata>
 <defs>
  <style type="text/css">*{stroke-linejoin: round; stroke-linecap: butt}</style>
 </defs>
 <g id="figure_1">
  <g id="patch_1">
   <path d="M 0 120 
L 288 120 
L 288 0 
L 0 0 
L 0 120 
z
" style="fill: none; opacity: 0"/>
  </g>
  <g id="axes_1">
   <g id="patch_2">
    <path d="M 8.64 108 
L 279.36 108 
L 279.36 4.8 
L 8.64 4.8 
L 8.64 108 
z
" style="fill: none"/>
   </g>
   <g id="matplotlib.axis_1"/>
   <g id="matplotlib.axis_2"/>
   <g id="line2d_1">
    <path d="M 8.64 87.36 
L 279.36 87.36 
" clip-path="url(#pf8cce798bd)" style="fill: none; stroke: #b2b2b2; stroke-opacity: 0.35; stroke-width: 0.5; stroke-linecap: square"/>
   </g>
   <g id="line2d_2">
    <path d="M 8.64 66.72 
L 279.36 66.72 
" clip-path="url(#pf8cce798bd)" style="fill: none; stroke: #b2b2b2; stroke-opacity: 0.35; stroke-width: 0.5; stroke-linecap: square"/>
   </g>
   <g id="line2d_3">
    <path d="M 8.64 46.08 
L 279.36 46.08 
" clip-path="url(#pf8cce798bd)" style="fill: none; stroke: #b2b2b2; stroke-opacity: 0.35; stroke-width: 0.5; stroke-linecap: square"/>
   </g>
   <g id="line2d_4">
    <path d="M 8.64 25.44 
L 279.36 25.44 
" clip-path="url(#pf8cce798bd)" style="fill: none; stroke: #b2b2b2; stroke-opacity: 0.35; stroke-width: 0.5; stroke-linecap: square"/>
   </g>
   <g id="line2d_5">
    <path d="M 8.64 86.86464 
L 9.382437 86.56536 
L 10.124874 87.3084 
L 10.867311 88.47456 
L 11.609748 89.10408 
L 12.352185 91.9008 
L 13.094622 94.04736 
L 13.837059 92.23104 
L 14.579496 91.92144 
L 15.321933 92.8296 
L 16.064369 90.01224 
L 16.806806 89.39304 
L 17.549243 92.03496 
L 18.29168 91.45704 
L 19.034117 92.262 
L 19.776554 89.44464 
L 20.518991 91.62216 
L 21.261428 91.46736 
L 22.003865 91.42608 
L 22.746302 90.41472 
L 23.488739 88.09272 
L 24.231176 87.17424 
L 24.973613 89.04216 
L 25.71605 88.69128 
L 26.458487 91.13712 
L 27.200924 92.48904 
L 28.685798 92.38584 
L 29.428235 91.85952 
L 30.170671 94.24344 
L 30.913108 94.4808 
L 31.655545 92.97408 
L 32.397982 93.67584 
L 33.140419 97.60776 
L 33.882856 97.32912 
L 34.625293 97.68 
L 35.36773 94.00608 
L 36.110167 95.65728 
L 36.852604 93.33528 
L 37.595041 90.39408 
L 38.337478 91.46736 
L 39.079915 91.14744 
L 39.822352 91.99368 
L 40.564789 90.57984 
L 41.307226 89.72328 
L 42.049663 89.89872 
L 42.7921 88.35072 
L 43.534537 88.89768 
L 44.276973 89.25888 
L 45.01941 85.84296 
L 45.761847 85.2444 
L 46.504284 84.8832 
L 48.731595 85.99776 
L 49.474032 86.07 
L 50.216469 86.4828 
L 50.958906 86.14224 
L 51.701343 85.31664 
L 52.44378 86.07 
L 53.186217 86.38992 
L 53.928654 87.16392 
L 54.671091 86.38992 
L 56.155965 86.28672 
L 56.898402 81.84912 
L 57.640839 79.32072 
L 58.383275 78.05136 
L 59.125712 79.26912 
L 59.868149 78.846 
L 60.610586 76.2144 
L 62.09546 80.394 
L 62.837897 80.66232 
L 63.580334 81.168 
L 64.322771 79.63032 
L 65.065208 80.95128 
L 65.807645 80.4972 
L 67.292519 77.43216 
L 68.034956 78.846 
L 68.777393 78.41256 
L 69.51983 78.64992 
L 70.262267 78.76344 
L 71.004704 78.25776 
L 71.747141 79.47552 
L 72.489577 80.92032 
L 73.232014 83.73768 
L 73.974451 83.6448 
L 74.716888 83.4384 
L 75.459325 83.61384 
L 76.201762 83.99568 
L 76.944199 84.55296 
L 77.686636 87.00912 
L 78.429073 85.98744 
L 79.17151 85.5024 
L 79.913947 84.8316 
L 80.656384 82.46832 
L 81.398821 81.426 
L 82.141258 82.5096 
L 82.883695 84.79032 
L 84.368569 86.95752 
L 85.111006 84.79032 
L 85.853443 85.13088 
L 86.595879 86.07 
L 87.338316 86.5344 
L 88.080753 86.31768 
L 89.565627 89.97096 
L 90.308064 90.48696 
L 91.050501 86.9472 
L 91.792938 86.66856 
L 92.535375 87.32904 
L 93.277812 88.53648 
L 94.020249 87.6696 
L 94.762686 85.30632 
L 95.505123 84.61488 
L 96.24756 84.17112 
L 96.989997 86.3796 
L 97.732434 84.92448 
L 98.474871 84.89352 
L 99.217308 86.13192 
L 99.959744 86.1732 
L 100.702181 84.99672 
L 101.444618 85.85328 
L 102.187055 85.01736 
L 102.929492 83.55192 
L 103.671929 81.7356 
L 104.414366 82.03488 
L 105.156803 82.65408 
L 106.641677 82.15872 
L 107.384114 81.70464 
L 108.126551 79.01112 
L 108.868988 78.39192 
L 109.611425 78.04104 
L 110.353862 78.16488 
L 111.096299 77.05032 
L 111.838736 72.82944 
L 112.581173 70.41456 
L 113.32361 74.69736 
L 114.066046 76.6272 
L 114.808483 75.63648 
L 115.55092 75.97704 
L 116.293357 74.976 
L 117.035794 76.49304 
L 117.778231 76.99872 
L 118.520668 77.90688 
L 119.263105 79.4652 
L 120.005542 82.02456 
L 120.747979 83.19072 
L 121.490416 82.27224 
L 122.232853 80.21856 
L 122.97529 81.67368 
L 123.717727 80.5488 
L 124.460164 78.588 
L 125.202601 78.19584 
L 125.945038 77.21544 
L 126.687475 76.524 
L 127.429912 78.68088 
L 128.172348 73.88208 
L 128.914785 71.364 
L 129.657222 73.8408 
L 130.399659 75.79128 
L 131.142096 74.65608 
L 131.884533 74.14008 
L 132.62697 76.50336 
L 133.369407 78.30936 
L 134.111844 75.3372 
L 134.854281 77.25672 
L 135.596718 71.78712 
L 136.339155 70.75512 
L 137.081592 70.24944 
L 137.824029 75.35784 
L 138.566466 72.95328 
L 139.308903 70.96152 
L 140.05134 67.87584 
L 140.793777 70.46616 
L 141.536214 71.11632 
L 142.27865 71.61168 
L 143.021087 72.7056 
L 143.763524 69.33096 
L 144.505961 68.9388 
L 145.248398 71.12664 
L 145.990835 70.90992 
L 146.733272 71.80776 
L 147.475709 70.074 
L 148.218146 68.01 
L 148.960583 67.10184 
L 149.70302 65.29584 
L 150.445457 64.01616 
L 151.187894 60.31128 
L 151.930331 60.19776 
L 152.672768 60.786 
L 153.415205 62.61264 
L 154.157642 61.74576 
L 154.900079 59.57856 
L 155.642516 58.86648 
L 156.384952 61.38456 
L 157.127389 61.07496 
L 157.869826 61.83864 
L 158.612263 66.29688 
L 159.3547 67.97904 
L 160.097137 68.69112 
L 160.839574 73.9956 
L 161.582011 70.45584 
L 162.324448 70.87896 
L 163.066885 68.91816 
L 163.809322 68.3196 
L 164.551759 69.47544 
L 166.036633 62.39592 
L 166.77907 62.81904 
L 167.521507 64.22256 
L 168.263944 64.05744 
L 169.006381 62.9532 
L 169.748818 66.14208 
L 170.491254 63.91296 
L 171.233691 66.17304 
L 171.976128 74.6148 
L 172.718565 77.78304 
L 173.461002 72.66432 
L 174.203439 69.69216 
L 174.945876 71.09568 
L 176.43075 76.06992 
L 177.173187 76.76136 
L 177.915624 75.25464 
L 178.658061 75.24432 
L 179.400498 74.63544 
L 180.142935 75.73968 
L 180.885372 77.31864 
L 181.627809 74.202 
L 182.370246 73.64472 
L 183.112683 73.48992 
L 183.85512 71.83872 
L 184.597556 72.17928 
L 185.339993 73.38672 
L 186.08243 73.43832 
L 186.824867 76.15248 
L 187.567304 75.3372 
L 188.309741 75.58488 
L 189.052178 75.35784 
L 189.794615 81.168 
L 190.537052 84.01632 
L 191.279489 82.06584 
L 192.021926 84.19176 
L 192.764363 82.27224 
L 193.5068 83.29392 
L 194.249237 81.62208 
L 194.991674 80.72424 
L 195.734111 84.33624 
L 196.476548 84.64584 
L 197.218985 86.844 
L 197.961422 88.52616 
L 198.703858 88.36104 
L 199.446295 88.93896 
L 200.188732 90.79656 
L 200.931169 88.09272 
L 201.673606 89.22792 
L 202.416043 90.00192 
L 203.15848 91.39512 
L 203.900917 91.63248 
L 204.643354 90.75528 
L 205.385791 88.7016 
L 206.128228 88.52616 
L 206.870665 87.45288 
L 207.613102 88.0308 
L 208.355539 88.94928 
L 209.840413 89.7336 
L 210.58285 91.86984 
L 211.325287 88.60872 
L 212.067724 86.87496 
L 213.552597 90.11544 
L 215.037471 90.53856 
L 215.779908 90.08448 
L 216.522345 88.79448 
L 217.264782 89.20728 
L 218.007219 89.22792 
L 218.749656 90.31152 
L 219.492093 90.10512 
L 220.23453 91.09584 
L 220.976967 91.61184 
L 221.719404 91.31256 
L 222.461841 92.87088 
L 223.204278 93.8616 
L 223.946715 92.02464 
L 224.689152 92.13816 
L 225.431589 92.07624 
L 226.174026 92.14848 
L 228.401336 93.69648 
L 229.88621 92.44776 
L 230.628647 92.30328 
L 231.371084 92.87088 
L 232.113521 92.38584 
L 232.855958 92.47872 
L 233.598395 91.88016 
L 234.340832 90.42504 
L 235.083269 90.08448 
L 235.825706 89.92968 
L 236.568143 88.76352 
L 237.31058 87.94824 
L 238.053017 89.2692 
L 238.795454 88.72224 
L 239.537891 89.39304 
L 240.280328 89.40336 
L 241.022764 88.41264 
L 241.765201 88.4952 
L 242.507638 86.86464 
L 243.250075 86.42088 
L 243.992512 87.62832 
L 244.734949 86.93688 
L 245.477386 87.23616 
L 246.96226 90.0432 
L 247.704697 92.12784 
L 248.447134 91.16808 
L 249.932008 91.73568 
L 250.674445 91.78728 
L 251.416882 94.0164 
L 252.159319 92.5716 
L 252.901756 91.76664 
L 253.644193 92.33424 
L 254.38663 94.36728 
L 255.129066 94.46016 
L 255.871503 97.71096 
L 256.61394 98.48496 
L 257.356377 97.85544 
L 258.573166 100.16712 
L 259.315225 102.23112 
L 260.054483 100.54896 
L 260.813891 100.70376 
L 261.550201 100.68312 
L 263.037773 101.28168 
L 263.777537 101.71512 
L 264.519751 101.84928 
L 265.25326 101.034 
L 265.956521 100.54896 
L 266.746581 101.04432 
L 267.395757 100.81728 
L 268.230277 101.034 
L 268.971812 101.4984 
L 271.198727 101.06496 
L 271.943399 102.09696 
L 272.623115 102.05568 
L 273.4256 101.4984 
L 274.164729 100.60056 
L 274.905756 100.80696 
L 275.639446 101.45712 
L 276.398751 100.55928 
L 277.133523 101.10624 
L 278.615965 100.74504 
L 279.36 100.21872 
L 279.36 100.21872 
" clip-path="url(#pf8cce798bd)" style="fill: none; stroke: #bebebe; stroke-width: 0.5; stroke-linecap: round"/>
   </g>
   <g id="line2d_6">
    <path d="M 8.64 87.36 
L 9.382437 86.328 
L 10.124874 86.90592 
L 10.867311 87.81408 
L 11.609748 86.93688 
L 12.352185 89.65104 
L 13.094622 91.6944 
L 13.837059 91.0752 
L 14.579496 91.23 
L 15.321933 91.94208 
L 16.064369 91.23 
L 16.806806 90.79656 
L 17.549243 91.57056 
L 18.29168 90.95136 
L 19.034117 90.89976 
L 19.776554 89.00088 
L 20.518991 90.18768 
L 21.261428 90.43536 
L 22.746302 89.8884 
L 23.488739 88.7532 
L 24.231176 88.88736 
L 24.973613 89.75424 
L 25.71605 89.85744 
L 26.458487 91.4364 
L 27.200924 92.43744 
L 27.943361 92.79864 
L 28.685798 92.50968 
L 29.428235 91.2816 
L 30.170671 92.9328 
L 30.913108 92.60256 
L 32.397982 92.7264 
L 33.140419 96.21456 
L 33.882856 96.4932 
L 34.625293 97.74192 
L 35.36773 94.91424 
L 36.110167 96.96792 
L 36.852604 96.31776 
L 37.595041 95.16192 
L 38.337478 95.90496 
L 39.079915 95.52312 
L 39.822352 96.01848 
L 40.564789 96.17328 
L 42.049663 95.99784 
L 42.7921 95.616 
L 43.534537 96.05976 
L 44.276973 96.17328 
L 45.01941 93.46944 
L 45.761847 92.96376 
L 46.504284 93.32496 
L 47.246721 93.036 
L 47.989158 92.56128 
L 48.731595 92.96376 
L 49.474032 92.8812 
L 50.958906 92.96376 
L 51.701343 92.29296 
L 52.44378 92.262 
L 53.186217 92.3652 
L 53.928654 92.74704 
L 54.671091 92.5716 
L 56.155965 92.71608 
L 56.898402 86.97816 
L 57.640839 84.84192 
L 58.383275 81.24024 
L 59.125712 82.37544 
L 59.868149 82.60248 
L 60.610586 79.86768 
L 62.09546 81.85944 
L 62.837897 81.82848 
L 63.580334 82.86048 
L 64.322771 83.00496 
L 65.065208 82.08648 
L 65.807645 82.12776 
L 66.550082 81.61176 
L 67.292519 80.15664 
L 68.034956 82.18968 
L 69.51983 81.79752 
L 70.262267 81.56016 
L 71.004704 80.0844 
L 71.747141 79.86768 
L 72.489577 80.50752 
L 73.232014 82.12776 
L 74.716888 81.92136 
L 75.459325 80.8584 
L 76.201762 81.07512 
L 76.944199 80.84808 
L 77.686636 83.6448 
L 78.429073 82.7676 
L 79.17151 82.0968 
L 79.913947 82.3548 
L 80.656384 79.74384 
L 81.398821 77.90688 
L 82.141258 78.39192 
L 82.883695 80.21856 
L 83.626132 81.34344 
L 84.368569 81.98328 
L 85.853443 81.5808 
L 86.595879 82.26192 
L 88.080753 82.15872 
L 88.82319 83.88216 
L 89.565627 85.89456 
L 90.308064 86.5344 
L 91.050501 83.61384 
L 91.792938 83.2836 
L 92.535375 83.71704 
L 93.277812 83.748 
L 94.762686 83.41776 
L 95.505123 82.44768 
L 96.24756 82.6644 
L 96.989997 83.89248 
L 97.732434 81.38472 
L 98.474871 81.14736 
L 99.217308 82.34448 
L 99.959744 82.23096 
L 100.702181 81.426 
L 101.444618 81.8388 
L 102.187055 80.76552 
L 103.671929 75.83256 
L 104.414366 75.67776 
L 105.156803 75.91512 
L 106.641677 74.88312 
L 107.384114 73.09776 
L 108.126551 69.6096 
L 108.868988 67.91712 
L 109.611425 66.94704 
L 110.353862 66.24528 
L 111.096299 63.80976 
L 111.838736 63.70656 
L 112.581173 63.9852 
L 113.32361 65.71896 
L 114.066046 64.5528 
L 115.55092 64.05744 
L 116.293357 62.25144 
L 117.035794 63.39696 
L 117.778231 63.366 
L 118.520668 63.08736 
L 119.263105 64.72824 
L 120.005542 67.89648 
L 120.747979 69.16584 
L 121.490416 67.69008 
L 122.232853 64.4496 
L 122.97529 65.97696 
L 123.717727 64.914 
L 124.460164 61.54968 
L 125.202601 60.04296 
L 125.945038 56.28648 
L 126.687475 56.47224 
L 127.429912 56.83344 
L 128.172348 51.22968 
L 128.914785 48.89736 
L 129.657222 52.00368 
L 130.399659 53.84064 
L 131.142096 53.90256 
L 131.884533 53.00472 
L 132.62697 55.5228 
L 133.369407 59.12448 
L 134.111844 55.32672 
L 134.854281 56.90568 
L 135.596718 47.92728 
L 136.339155 48.75288 
L 137.081592 48.68064 
L 137.824029 54.57336 
L 138.566466 51.2916 
L 139.308903 52.80864 
L 140.05134 52.69512 
L 140.793777 54.82104 
L 142.27865 54.45984 
L 143.021087 55.7292 
L 143.763524 55.39896 
L 144.505961 53.55168 
L 145.248398 55.81176 
L 145.990835 55.6776 
L 146.733272 56.18328 
L 147.475709 55.71888 
L 148.960583 55.63632 
L 149.70302 55.07904 
L 150.445457 53.41752 
L 151.187894 49.71264 
L 151.930331 50.32152 
L 152.672768 51.17808 
L 153.415205 52.44744 
L 154.157642 52.74672 
L 154.900079 51.4464 
L 155.642516 51.46704 
L 156.384952 53.2524 
L 157.127389 53.08728 
L 157.869826 53.5104 
L 158.612263 57.26688 
L 159.3547 57.76224 
L 160.097137 58.02024 
L 160.839574 62.26176 
L 161.582011 59.68176 
L 162.324448 59.9604 
L 163.066885 58.12344 
L 163.809322 57.02952 
L 164.551759 58.09248 
L 165.294196 55.13064 
L 166.036633 53.046 
L 166.77907 52.5816 
L 167.521507 52.9944 
L 168.263944 52.5816 
L 169.006381 50.0016 
L 169.748818 53.48976 
L 170.491254 52.40616 
L 171.233691 54.75912 
L 171.976128 62.67456 
L 172.718565 63.95424 
L 173.461002 57.86544 
L 174.203439 56.57544 
L 174.945876 58.31952 
L 175.688313 60.4764 
L 176.43075 61.85928 
L 177.173187 62.73648 
L 177.915624 61.8696 
L 178.658061 60.45576 
L 179.400498 60.54864 
L 180.142935 62.04504 
L 180.885372 63.16992 
L 181.627809 62.36496 
L 182.370246 61.21944 
L 183.112683 60.9408 
L 183.85512 57.83448 
L 184.597556 58.40208 
L 185.339993 60.49704 
L 186.824867 63.1596 
L 187.567304 62.49912 
L 188.309741 62.1276 
L 189.052178 61.56 
L 190.537052 70.66224 
L 191.279489 68.72208 
L 192.021926 70.4868 
L 192.764363 68.61888 
L 193.5068 69.11424 
L 194.249237 66.5136 
L 194.991674 66.68904 
L 195.734111 68.8872 
L 196.476548 68.9904 
L 197.218985 71.5704 
L 197.961422 73.48992 
L 198.703858 72.54048 
L 200.188732 74.74896 
L 200.931169 73.3248 
L 201.673606 74.80056 
L 202.416043 77.556 
L 203.15848 78.55704 
L 203.900917 78.50544 
L 204.643354 78.04104 
L 205.385791 75.76032 
L 206.128228 75.73968 
L 206.870665 74.65608 
L 207.613102 74.83152 
L 208.355539 74.57352 
L 209.097976 75.20304 
L 209.840413 75.17208 
L 210.58285 78.05136 
L 212.067724 72.16896 
L 212.81016 73.08744 
L 213.552597 74.72832 
L 215.037471 74.28456 
L 215.779908 73.21128 
L 216.522345 70.2804 
L 217.264782 70.2288 
L 218.007219 71.56008 
L 218.749656 73.79952 
L 219.492093 73.35576 
L 220.23453 74.0988 
L 220.976967 75.5952 
L 221.719404 75.5952 
L 222.461841 77.61792 
L 223.204278 77.63856 
L 223.946715 75.40944 
L 224.689152 75.40944 
L 225.431589 75.04824 
L 226.174026 74.98632 
L 226.916462 75.58488 
L 227.658899 75.87384 
L 228.401336 76.49304 
L 229.88621 75.82224 
L 230.628647 75.84288 
L 231.371084 76.03896 
L 232.113521 75.51264 
L 232.855958 75.56424 
L 233.598395 75.05856 
L 234.340832 73.26288 
L 235.083269 73.20096 
L 235.825706 73.00488 
L 236.568143 71.68392 
L 237.31058 70.6932 
L 238.053017 72.62304 
L 238.795454 73.52088 
L 239.537891 73.83048 
L 240.280328 73.8408 
L 241.022764 73.29384 
L 241.765201 73.72728 
L 242.507638 70.32168 
L 243.250075 69.77472 
L 243.992512 70.34232 
L 244.734949 70.67256 
L 245.477386 70.51776 
L 246.219823 70.848 
L 246.96226 72.31344 
L 247.704697 76.01832 
L 248.447134 75.41976 
L 249.189571 75.83256 
L 250.674445 75.82224 
L 251.416882 77.82432 
L 252.159319 76.14216 
L 252.901756 74.75928 
L 253.644193 74.96568 
L 254.38663 77.75208 
L 255.129066 79.48584 
L 255.871503 83.31456 
L 256.61394 85.90488 
L 257.356377 84.79032 
L 257.983161 85.84296 
L 259.315225 91.41576 
L 260.054483 88.7532 
L 261.550201 88.55712 
L 262.296874 88.96992 
L 263.777537 90.456 
L 264.519751 90.56952 
L 265.25326 89.15568 
L 265.956521 88.9596 
L 266.746581 90.6624 
L 267.395757 89.94 
L 268.230277 90.00192 
L 269.709909 90.62112 
L 271.198727 90.3528 
L 271.943399 92.004 
L 272.623115 92.13816 
L 273.4256 91.25064 
L 274.164729 89.166 
L 274.905756 89.56848 
L 275.639446 90.93072 
L 276.398751 89.41368 
L 277.133523 90.37344 
L 277.877687 89.79552 
L 278.615965 90.23928 
L 279.36 88.0824 
L 279.36 88.0824 
" clip-path="url(#pf8cce798bd)" style="fill: none; stroke: #4a8dff; stroke-width: 0.6"/>
   </g>
   <g id="line2d_7">
    <path d="M 8.64 86.24544 
L 9.382437 82.82952 
L 10.124874 83.45904 
L 10.867311 86.80272 
L 11.609748 87.45288 
L 12.352185 93.036 
L 13.094622 95.07936 
L 13.837059 90.9204 
L 14.579496 89.79552 
L 15.321933 92.6748 
L 16.064369 89.70264 
L 16.806806 89.2692 
L 17.549243 91.11648 
L 18.29168 89.59944 
L 19.034117 90.94104 
L 19.776554 86.76144 
L 20.518991 89.39304 
L 22.003865 89.8884 
L 22.746302 87.8244 
L 23.488739 86.2248 
L 24.231176 86.02872 
L 24.973613 86.60664 
L 25.71605 86.328 
L 26.458487 89.30016 
L 27.200924 91.04424 
L 27.943361 91.37448 
L 28.685798 91.20936 
L 29.428235 88.392 
L 30.170671 91.19904 
L 31.655545 89.82648 
L 32.397982 90.0948 
L 33.140419 95.6676 
L 33.882856 94.66656 
L 34.625293 97.61808 
L 35.36773 91.10616 
L 36.110167 94.23312 
L 36.852604 90.25992 
L 37.595041 88.31976 
L 38.337478 90.08448 
L 39.079915 89.13504 
L 39.822352 90.03288 
L 40.564789 89.56848 
L 41.307226 88.71192 
L 42.049663 89.22792 
L 42.7921 88.50552 
L 43.534537 88.55712 
L 44.276973 86.10096 
L 45.01941 79.75416 
L 45.761847 79.7232 
L 46.504284 79.44456 
L 47.246721 78.51576 
L 47.989158 78.64992 
L 48.731595 79.5168 
L 49.474032 78.24744 
L 50.216469 79.0524 
L 50.958906 79.07304 
L 51.701343 76.80264 
L 52.44378 76.35888 
L 53.186217 77.31864 
L 53.928654 78.98016 
L 54.671091 78.52608 
L 55.413528 76.35888 
L 56.155965 76.18344 
L 56.898402 69.90888 
L 57.640839 70.03272 
L 58.383275 68.29896 
L 59.125712 68.95944 
L 59.868149 70.11528 
L 60.610586 68.76336 
L 61.353023 69.37224 
L 62.09546 69.25872 
L 62.837897 69.41352 
L 63.580334 69.77472 
L 64.322771 66.85416 
L 65.065208 67.26696 
L 65.807645 66.06984 
L 66.550082 63.08736 
L 67.292519 61.12656 
L 68.034956 65.62608 
L 68.777393 64.98624 
L 69.51983 63.91296 
L 70.262267 63.38664 
L 71.004704 63.70656 
L 71.747141 64.97592 
L 72.489577 67.14312 
L 73.232014 68.9388 
L 73.974451 68.23704 
L 74.716888 67.1844 
L 75.459325 66.99864 
L 76.201762 67.47336 
L 76.944199 68.1132 
L 77.686636 71.38464 
L 78.429073 68.526 
L 79.17151 67.21536 
L 79.913947 67.20504 
L 80.656384 62.46816 
L 81.398821 62.51976 
L 82.141258 64.10904 
L 82.883695 66.90576 
L 83.626132 66.83352 
L 84.368569 67.42176 
L 85.111006 67.3392 
L 85.853443 65.8944 
L 86.595879 68.24736 
L 88.080753 68.23704 
L 88.82319 69.69216 
L 89.565627 71.50848 
L 90.308064 72.21024 
L 91.050501 67.3908 
L 91.792938 66.90576 
L 92.535375 65.59512 
L 93.277812 65.86344 
L 94.020249 65.76024 
L 94.762686 65.50224 
L 95.505123 64.398 
L 96.24756 65.70864 
L 96.989997 67.2876 
L 97.732434 63.95424 
L 98.474871 63.14928 
L 99.217308 64.76952 
L 99.959744 64.58376 
L 100.702181 63.55176 
L 101.444618 64.5012 
L 102.187055 63.82008 
L 102.929492 61.36392 
L 103.671929 56.64768 
L 104.414366 54.89328 
L 105.156803 55.04808 
L 105.89924 53.29368 
L 106.641677 52.55064 
L 107.384114 54.77976 
L 108.126551 53.67552 
L 108.868988 52.95312 
L 109.611425 54.45984 
L 110.353862 54.55272 
L 111.096299 55.22352 
L 111.838736 54.98616 
L 112.581173 52.4268 
L 113.32361 53.79936 
L 114.066046 54.08832 
L 114.808483 54.92424 
L 115.55092 54.4908 
L 116.293357 52.98408 
L 117.035794 54.44952 
L 117.778231 54.60432 
L 118.520668 54.62496 
L 120.005542 59.38248 
L 120.747979 60.09456 
L 121.490416 58.39176 
L 122.232853 57.41136 
L 122.97529 58.464 
L 123.717727 57.5352 
L 124.460164 55.0068 
L 125.202601 55.81176 
L 125.945038 55.99752 
L 126.687475 53.13888 
L 127.429912 53.64456 
L 128.172348 52.1688 
L 128.914785 48.69096 
L 129.657222 54.0264 
L 130.399659 55.13064 
L 131.142096 54.96552 
L 131.884533 54.92424 
L 132.62697 56.25552 
L 133.369407 59.8572 
L 134.111844 58.32984 
L 134.854281 60.23904 
L 135.596718 55.65696 
L 136.339155 57.18432 
L 137.081592 59.21736 
L 137.824029 62.55072 
L 138.566466 60.82728 
L 139.308903 61.47744 
L 140.05134 60.12552 
L 140.793777 64.31544 
L 141.536214 63.99552 
L 142.27865 64.5528 
L 143.021087 63.60336 
L 143.763524 61.5084 
L 144.505961 60.96144 
L 145.248398 61.98312 
L 145.990835 62.05536 
L 146.733272 62.51976 
L 148.218146 60.64152 
L 148.960583 61.13688 
L 149.70302 58.6188 
L 150.445457 57.03984 
L 151.187894 56.35872 
L 151.930331 56.5548 
L 152.672768 57.174 
L 153.415205 57.14304 
L 154.157642 55.7292 
L 154.900079 56.04912 
L 155.642516 55.33704 
L 156.384952 56.87472 
L 157.127389 56.8128 
L 157.869826 57.24624 
L 158.612263 59.93976 
L 159.3547 60.64152 
L 160.097137 59.29992 
L 160.839574 63.80976 
L 161.582011 63.03576 
L 162.324448 63.09768 
L 163.809322 58.27824 
L 164.551759 58.5672 
L 165.294196 53.93352 
L 166.036633 51.74568 
L 166.77907 50.04288 
L 167.521507 49.90872 
L 169.006381 47.43192 
L 169.748818 50.80656 
L 170.491254 48.90768 
L 171.233691 50.6208 
L 171.976128 59.42376 
L 172.718565 61.85928 
L 173.461002 57.35976 
L 174.203439 57.3288 
L 174.945876 59.46504 
L 176.43075 64.72824 
L 177.173187 66.42072 
L 177.915624 65.688 
L 178.658061 64.17096 
L 179.400498 62.10696 
L 180.142935 64.30512 
L 180.885372 65.20296 
L 181.627809 62.68488 
L 182.370246 61.70448 
L 183.112683 61.06464 
L 183.85512 58.1028 
L 184.597556 58.40208 
L 185.339993 59.68176 
L 186.08243 62.6952 
L 186.824867 64.56312 
L 187.567304 63.18024 
L 188.309741 62.72616 
L 189.052178 62.06568 
L 189.794615 66.33816 
L 190.537052 71.40528 
L 191.279489 69.08328 
L 192.021926 71.7252 
L 192.764363 69.57864 
L 193.5068 70.72416 
L 194.249237 68.2164 
L 194.991674 66.978 
L 195.734111 70.03272 
L 196.476548 71.5188 
L 197.218985 73.3764 
L 197.961422 78.846 
L 198.703858 77.75208 
L 199.446295 78.88728 
L 200.188732 81.34344 
L 200.931169 80.53848 
L 201.673606 82.0452 
L 202.416043 86.92656 
L 203.15848 88.58808 
L 203.900917 88.96992 
L 204.643354 86.7924 
L 205.385791 85.296 
L 206.128228 86.24544 
L 206.870665 82.96368 
L 207.613102 82.13808 
L 208.355539 82.47864 
L 209.097976 82.58184 
L 209.840413 83.03592 
L 210.58285 87.3084 
L 211.325287 82.06584 
L 212.067724 79.71288 
L 212.81016 81.24024 
L 213.552597 84.17112 
L 214.295034 84.24336 
L 215.037471 83.29392 
L 215.779908 82.8192 
L 216.522345 80.64168 
L 217.264782 81.38472 
L 218.007219 80.87904 
L 218.749656 83.13912 
L 219.492093 83.19072 
L 220.976967 87.17424 
L 221.719404 85.71912 
L 222.461841 87.53544 
L 223.204278 88.17528 
L 223.946715 85.41984 
L 225.431589 84.9348 
L 226.174026 85.01736 
L 226.916462 86.14224 
L 227.658899 85.90488 
L 228.401336 86.328 
L 229.143773 86.24544 
L 229.88621 85.72944 
L 230.628647 85.7088 
L 231.371084 86.40024 
L 232.113521 85.09992 
L 232.855958 86.02872 
L 234.340832 83.53128 
L 235.825706 82.03488 
L 236.568143 79.39296 
L 237.31058 79.66128 
L 238.053017 82.15872 
L 238.795454 82.43736 
L 239.537891 82.93272 
L 240.280328 83.00496 
L 241.765201 82.28256 
L 242.507638 78.01008 
L 243.250075 76.19376 
L 243.992512 77.66952 
L 244.734949 77.74176 
L 245.477386 78.1752 
L 246.96226 80.8068 
L 247.704697 85.20312 
L 248.447134 84.12984 
L 249.189571 84.03696 
L 249.932008 84.06792 
L 250.674445 84.3156 
L 251.416882 87.02976 
L 252.159319 85.21344 
L 252.901756 84.28464 
L 253.644193 84.32592 
L 254.38663 89.08344 
L 255.129066 89.5272 
L 255.871503 95.14128 
L 256.61394 96.98856 
L 257.356377 95.08968 
L 258.573166 99.80592 
L 259.315225 101.79768 
L 260.054483 100.03296 
L 260.813891 100.518 
L 261.550201 99.98136 
L 262.296874 100.49736 
L 264.519751 101.26104 
L 265.25326 100.63152 
L 265.956521 100.38384 
L 266.746581 100.84824 
L 267.395757 100.65216 
L 268.230277 101.034 
L 268.971812 101.19912 
L 271.198727 100.91016 
L 271.943399 101.7564 
L 272.623115 101.84928 
L 273.4256 101.56032 
L 274.164729 100.85856 
L 275.639446 101.4468 
L 276.398751 101.02368 
L 277.133523 101.30232 
L 277.877687 100.81728 
L 278.615965 100.79664 
L 279.36 99.3312 
L 279.36 99.3312 
" clip-path="url(#pf8cce798bd)" style="fill: none; stroke: #f5841e; stroke-width: 0.6"/>
   </g>
  </g>
 </g>
 <defs>
  <clipPath id="pf8cce798bd">
   <rect x="8.64" y="4.8" width="270.72" height="103.2"/>
  </clipPath>
 </defs>
</svg>
