<?xml version="1.0" encoding="utf-8" standalone="no"?>
<!DOCTYPE svg PUBLIC "-//W3C//DTD SVG 1.1//EN"
  "http://www.w3.org/Graphics/SVG/1.1/DTD/svg11.dtd">
<svg xmlns:xlink="http://www.w3.org/1999/xlink" width="288pt" height="120pt" viewBox="0 0 288 120" xmlns="http://www.w3.org/2000/svg" version="1.1">
<desc id="nav-meta">{"window":"1m","count":4,"labels":["21.05","31.05","10.06","20.06"],"tick_utc":["2026-05-21T04:59:27Z","2026-05-31T05:08:27Z","2026-06-10T05:05:46Z","2026-06-20T04:59:26Z"],"w":720,"h":300}</desc>

 <metadata>
  <rdf:RDF xmlns:dc="http://purl.org/dc/elements/1.1/" xmlns:cc="http://creativecommons.org/ns#" xmlns:rdf="http://www.w3.org/1999/02/22-rdf-syntax-ns#">
   <cc:Work>
    <dc:type rdf:resource="http://purl.org/dc/dcmitype/StillImage"/>
    <dc:date>2026-06-20T04:59:28.525812</dc:date>
    <dc:format>image/svg+xml</dc:format>
    <dc:creator>
     <cc:Agent>
      <dc:title>Matplotlib v3.11.0, https://matplotlib.org/</dc:title>
     </cc:Agent>
    </dc:creator>
   </cc:Work>
  </rdf:RDF>
 </metadata>
 <defs>
  <style type="text/css">*{stroke-linejoin: round; stroke-linecap: butt}</style>
 </defs>
 <g id="figure_1">
  <g id="patch_1">
   <path d="M 0 120 
L 288 120 
L 288 0 
L 0 0 
L 0 120 
z
" style="fill: none; opacity: 0"/>
  </g>
  <g id="axes_1">
   <g id="patch_2">
    <path d="M 8.64 108 
L 279.36 108 
L 279.36 4.8 
L 8.64 4.8 
L 8.64 108 
z
" style="fill: none"/>
   </g>
   <g id="matplotlib.axis_1"/>
   <g id="matplotlib.axis_2"/>
   <g id="line2d_1">
    <path d="M 8.64 87.36 
L 279.36 87.36 
" clip-path="url(#pf779a7e216)" style="fill: none; stroke: #b2b2b2; stroke-opacity: 0.35; stroke-width: 0.5; stroke-linecap: square"/>
   </g>
   <g id="line2d_2">
    <path d="M 8.64 66.72 
L 279.36 66.72 
" clip-path="url(#pf779a7e216)" style="fill: none; stroke: #b2b2b2; stroke-opacity: 0.35; stroke-width: 0.5; stroke-linecap: square"/>
   </g>
   <g id="line2d_3">
    <path d="M 8.64 46.08 
L 279.36 46.08 
" clip-path="url(#pf779a7e216)" style="fill: none; stroke: #b2b2b2; stroke-opacity: 0.35; stroke-width: 0.5; stroke-linecap: square"/>
   </g>
   <g id="line2d_4">
    <path d="M 8.64 25.44 
L 279.36 25.44 
" clip-path="url(#pf779a7e216)" style="fill: none; stroke: #b2b2b2; stroke-opacity: 0.35; stroke-width: 0.5; stroke-linecap: square"/>
   </g>
   <g id="line2d_5">
    <path d="M 8.64 100.7244 
L 17.594861 100.75536 
L 26.494889 101.11656 
L 35.661773 100.91016 
L 44.80453 100.89984 
L 53.691815 101.1372 
L 62.808461 101.2404 
L 71.803638 101.6532 
L 80.834326 101.4984 
L 89.728191 101.48808 
L 98.936435 101.32296 
L 108.093918 101.51904 
L 117.029144 101.7048 
L 126.154668 102.54072 
L 135.147755 103.08768 
L 144.023134 103.36632 
L 152.908436 104.22288 
L 162.126393 103.85136 
L 171.190294 103.68624 
L 180.042068 103.43856 
L 189.159654 103.81008 
L 198.236611 103.72752 
L 207.296021 103.50048 
L 216.254016 103.5108 
L 225.343506 103.31472 
L 234.667474 102.95352 
L 243.742968 102.61296 
L 252.479541 102.6336 
L 261.460304 102.9948 
L 270.696852 103.28376 
L 279.36 103.01544 
" clip-path="url(#pf779a7e216)" style="fill: none; stroke: #bebebe; stroke-width: 0.5; stroke-linecap: round"/>
   </g>
   <g id="line2d_6">
    <path d="M 8.64 87.78312 
L 17.594861 87.95856 
L 26.494889 88.94928 
L 35.661773 88.14432 
L 44.80453 88.33008 
L 53.691815 88.52616 
L 62.808461 88.86672 
L 71.803638 90.22896 
L 80.834326 89.82648 
L 89.728191 89.87808 
L 98.936435 89.46528 
L 108.093918 90.0432 
L 117.029144 89.96064 
L 126.154668 91.99368 
L 135.147755 93.05664 
L 144.023134 93.74808 
L 152.908436 97.02984 
L 162.126393 95.93592 
L 171.190294 95.07936 
L 180.042068 94.46016 
L 189.159654 95.47152 
L 198.236611 95.11032 
L 207.296021 94.82136 
L 216.254016 94.8936 
L 225.343506 94.70784 
L 234.667474 94.04736 
L 243.742968 93.40752 
L 252.479541 92.9844 
L 261.460304 93.93384 
L 270.696852 94.4292 
L 279.36 94.19184 
" clip-path="url(#pf779a7e216)" style="fill: none; stroke: #4a8dff; stroke-width: 0.6"/>
   </g>
   <g id="line2d_7">
    <path d="M 8.64 95.94624 
L 17.594861 96.30744 
L 26.494889 98.08248 
L 35.661773 97.2672 
L 44.80453 96.61704 
L 53.691815 97.23624 
L 62.808461 98.08248 
L 71.803638 99.18672 
L 80.834326 99.03192 
L 89.728191 99.1248 
L 98.936435 98.74296 
L 108.093918 99.09384 
L 117.029144 100.0536 
L 126.154668 101.23008 
L 135.147755 101.99376 
L 144.023134 102.08664 
L 152.908436 102.8916 
L 162.126393 102.45816 
L 171.190294 102.28272 
L 180.042068 102.10728 
L 189.159654 102.582 
L 198.236611 102.29304 
L 207.296021 102.08664 
L 216.254016 102.066 
L 225.343506 101.86992 
L 234.667474 101.48808 
L 243.742968 101.40552 
L 252.479541 101.4984 
L 261.460304 101.97312 
L 270.696852 102.26208 
L 279.36 102.066 
" clip-path="url(#pf779a7e216)" style="fill: none; stroke: #f5841e; stroke-width: 0.6"/>
   </g>
  </g>
 </g>
 <defs>
  <clipPath id="pf779a7e216">
   <rect x="8.64" y="4.8" width="270.72" height="103.2"/>
  </clipPath>
 </defs>
</svg>
