<?xml version="1.0" encoding="utf-8" standalone="no"?>
<!DOCTYPE svg PUBLIC "-//W3C//DTD SVG 1.1//EN"
  "http://www.w3.org/Graphics/SVG/1.1/DTD/svg11.dtd">
<svg xmlns:xlink="http://www.w3.org/1999/xlink" width="288pt" height="120pt" viewBox="0 0 288 120" xmlns="http://www.w3.org/2000/svg" version="1.1">
<desc id="nav-meta">{"window":"6m","count":4,"labels":["07.11","06.01","06.03","05.05"],"tick_utc":["2025-11-07T12:00:00Z","2026-01-06T12:00:00Z","2026-03-06T03:16:38Z","2026-05-05T03:59:32Z"],"w":720,"h":300}</desc>

 <metadata>
  <rdf:RDF xmlns:dc="http://purl.org/dc/elements/1.1/" xmlns:cc="http://creativecommons.org/ns#" xmlns:rdf="http://www.w3.org/1999/02/22-rdf-syntax-ns#">
   <cc:Work>
    <dc:type rdf:resource="http://purl.org/dc/dcmitype/StillImage"/>
    <dc:date>2026-05-05T20:00:21.376773</dc:date>
    <dc:format>image/svg+xml</dc:format>
    <dc:creator>
     <cc:Agent>
      <dc:title>Matplotlib v3.10.9, https://matplotlib.org/</dc:title>
     </cc:Agent>
    </dc:creator>
   </cc:Work>
  </rdf:RDF>
 </metadata>
 <defs>
  <style type="text/css">*{stroke-linejoin: round; stroke-linecap: butt}</style>
 </defs>
 <g id="figure_1">
  <g id="patch_1">
   <path d="M 0 120 
L 288 120 
L 288 0 
L 0 0 
L 0 120 
z
" style="fill: none; opacity: 0"/>
  </g>
  <g id="axes_1">
   <g id="patch_2">
    <path d="M 8.64 108 
L 279.36 108 
L 279.36 4.8 
L 8.64 4.8 
L 8.64 108 
z
" style="fill: none"/>
   </g>
   <g id="matplotlib.axis_1"/>
   <g id="matplotlib.axis_2"/>
   <g id="line2d_1">
    <path d="M 8.64 87.36 
L 279.36 87.36 
" clip-path="url(#pd7ca31d541)" style="fill: none; stroke: #b2b2b2; stroke-opacity: 0.35; stroke-width: 0.5; stroke-linecap: square"/>
   </g>
   <g id="line2d_2">
    <path d="M 8.64 66.72 
L 279.36 66.72 
" clip-path="url(#pd7ca31d541)" style="fill: none; stroke: #b2b2b2; stroke-opacity: 0.35; stroke-width: 0.5; stroke-linecap: square"/>
   </g>
   <g id="line2d_3">
    <path d="M 8.64 46.08 
L 279.36 46.08 
" clip-path="url(#pd7ca31d541)" style="fill: none; stroke: #b2b2b2; stroke-opacity: 0.35; stroke-width: 0.5; stroke-linecap: square"/>
   </g>
   <g id="line2d_4">
    <path d="M 8.64 25.44 
L 279.36 25.44 
" clip-path="url(#pd7ca31d541)" style="fill: none; stroke: #b2b2b2; stroke-opacity: 0.35; stroke-width: 0.5; stroke-linecap: square"/>
   </g>
   <g id="line2d_5">
    <path d="M 8.64 84.19176 
L 10.155227 82.27224 
L 11.670453 83.29392 
L 13.18568 81.62208 
L 14.700907 80.72424 
L 16.216133 84.33624 
L 17.73136 84.64584 
L 19.246586 86.844 
L 20.761813 88.52616 
L 22.27704 88.36104 
L 23.792266 88.93896 
L 25.307493 90.79656 
L 26.82272 88.09272 
L 28.337946 89.22792 
L 29.853173 90.00192 
L 31.368399 91.39512 
L 32.883626 91.63248 
L 34.398853 90.75528 
L 35.914079 88.7016 
L 37.429306 88.52616 
L 38.944533 87.45288 
L 40.459759 88.0308 
L 41.974986 88.94928 
L 45.005439 89.7336 
L 46.520666 91.86984 
L 48.035892 88.60872 
L 49.551119 86.87496 
L 52.581572 90.11544 
L 54.096799 90.38376 
L 55.612025 90.53856 
L 57.127252 90.08448 
L 58.642479 88.79448 
L 60.157705 89.20728 
L 61.672932 89.22792 
L 63.188159 90.31152 
L 64.703385 90.10512 
L 66.218612 91.09584 
L 67.733839 91.61184 
L 69.249065 91.31256 
L 70.764292 92.87088 
L 72.279518 93.8616 
L 73.794745 92.02464 
L 75.309972 92.13816 
L 76.825198 92.07624 
L 78.340425 92.14848 
L 79.855652 92.64384 
L 81.370878 93.01536 
L 82.886105 93.69648 
L 85.916558 92.44776 
L 87.431785 92.30328 
L 88.947011 92.87088 
L 90.462238 92.38584 
L 91.977465 92.47872 
L 93.492691 91.88016 
L 95.007918 90.42504 
L 96.523144 90.08448 
L 98.038371 89.92968 
L 99.553598 88.76352 
L 101.068824 87.94824 
L 102.584051 89.2692 
L 104.099278 88.72224 
L 105.614504 89.39304 
L 107.129731 89.40336 
L 108.644958 88.41264 
L 110.160184 88.4952 
L 111.675411 86.86464 
L 113.190637 86.42088 
L 114.705864 87.62832 
L 116.221091 86.93688 
L 117.736317 87.23616 
L 120.766771 90.0432 
L 122.281997 92.12784 
L 123.797224 91.16808 
L 126.827677 91.73568 
L 128.342904 91.78728 
L 129.85813 94.0164 
L 131.373357 92.5716 
L 132.888584 91.76664 
L 134.40381 92.33424 
L 135.919037 94.36728 
L 137.434263 94.46016 
L 138.94949 97.71096 
L 140.464717 98.48496 
L 141.979943 97.85544 
L 144.463267 100.16712 
L 145.977721 102.23112 
L 147.486459 100.54896 
L 149.036322 100.70376 
L 150.539045 100.68312 
L 153.575005 101.28168 
L 155.084777 101.71512 
L 156.599548 101.84928 
L 158.096553 101.034 
L 159.531827 100.54896 
L 161.144246 101.04432 
L 162.469139 100.81728 
L 164.172296 101.034 
L 165.685681 101.4984 
L 170.230555 101.06496 
L 171.750341 102.09696 
L 173.137563 102.05568 
L 174.77534 101.4984 
L 176.283815 100.60056 
L 177.796165 100.80696 
L 179.293539 101.45712 
L 180.843191 100.55928 
L 182.342775 101.10624 
L 185.368265 100.74504 
L 186.886754 100.21872 
L 188.401261 100.53864 
L 189.904861 101.07528 
L 191.434801 101.38488 
L 192.95457 101.26104 
L 194.460063 100.78632 
L 197.495883 100.99272 
L 199.008181 100.38384 
L 202.065606 100.60056 
L 203.585112 99.76464 
L 205.073822 99.49632 
L 206.600606 99.40344 
L 208.116254 100.09488 
L 209.616731 100.3632 
L 211.123084 100.19808 
L 214.179756 100.79664 
L 215.680952 100.26 
L 217.309032 99.83688 
L 218.729837 100.13616 
L 221.747716 101.38488 
L 227.837033 101.28168 
L 229.332303 101.8596 
L 230.849265 101.88024 
L 232.351514 101.72544 
L 233.889557 101.68416 
L 235.408695 101.47776 
L 236.914083 101.78736 
L 238.431765 101.09592 
L 239.941712 101.46744 
L 241.470881 101.3436 
L 242.962941 101.05464 
L 244.505351 101.3952 
L 246.028346 101.47776 
L 247.533927 100.86888 
L 249.047997 101.26104 
L 250.569782 100.99272 
L 252.081922 100.61088 
L 253.580436 100.44576 
L 255.115672 100.94112 
L 256.634652 101.09592 
L 258.143232 101.00304 
L 259.653759 100.69344 
L 261.175123 100.9308 
L 265.730308 100.8792 
L 267.261862 100.64184 
L 268.780263 101.1888 
L 270.291351 101.09592 
L 271.809121 101.37456 
L 273.340903 101.21976 
L 276.363446 101.23008 
L 277.878147 100.92048 
L 279.36 101.06496 
L 279.36 101.06496 
" clip-path="url(#pd7ca31d541)" style="fill: none; stroke: #bebebe; stroke-width: 0.5; stroke-linecap: round"/>
   </g>
   <g id="line2d_6">
    <path d="M 8.64 70.4868 
L 10.155227 68.61888 
L 11.670453 69.11424 
L 13.18568 66.5136 
L 14.700907 66.68904 
L 16.216133 68.8872 
L 17.73136 68.9904 
L 19.246586 71.5704 
L 20.761813 73.48992 
L 22.27704 72.54048 
L 23.792266 73.56216 
L 25.307493 74.74896 
L 26.82272 73.3248 
L 28.337946 74.80056 
L 29.853173 77.556 
L 31.368399 78.55704 
L 32.883626 78.50544 
L 34.398853 78.04104 
L 35.914079 75.76032 
L 37.429306 75.73968 
L 38.944533 74.65608 
L 40.459759 74.83152 
L 41.974986 74.57352 
L 43.490212 75.20304 
L 45.005439 75.17208 
L 46.520666 78.05136 
L 49.551119 72.16896 
L 51.066346 73.08744 
L 52.581572 74.72832 
L 55.612025 74.28456 
L 57.127252 73.21128 
L 58.642479 70.2804 
L 60.157705 70.2288 
L 61.672932 71.56008 
L 63.188159 73.79952 
L 64.703385 73.35576 
L 66.218612 74.0988 
L 67.733839 75.5952 
L 69.249065 75.5952 
L 70.764292 77.61792 
L 72.279518 77.63856 
L 73.794745 75.40944 
L 75.309972 75.40944 
L 76.825198 75.04824 
L 78.340425 74.98632 
L 79.855652 75.58488 
L 81.370878 75.87384 
L 82.886105 76.49304 
L 85.916558 75.82224 
L 87.431785 75.84288 
L 88.947011 76.03896 
L 90.462238 75.51264 
L 91.977465 75.56424 
L 93.492691 75.05856 
L 95.007918 73.26288 
L 96.523144 73.20096 
L 98.038371 73.00488 
L 99.553598 71.68392 
L 101.068824 70.6932 
L 102.584051 72.62304 
L 104.099278 73.52088 
L 105.614504 73.83048 
L 107.129731 73.8408 
L 108.644958 73.29384 
L 110.160184 73.72728 
L 111.675411 70.32168 
L 113.190637 69.77472 
L 114.705864 70.34232 
L 116.221091 70.67256 
L 117.736317 70.51776 
L 119.251544 70.848 
L 120.766771 72.31344 
L 122.281997 76.01832 
L 123.797224 75.41976 
L 125.31245 75.83256 
L 128.342904 75.82224 
L 129.85813 77.82432 
L 131.373357 76.14216 
L 132.888584 74.75928 
L 134.40381 74.96568 
L 135.919037 77.75208 
L 137.434263 79.48584 
L 138.94949 83.31456 
L 140.464717 85.90488 
L 141.979943 84.79032 
L 143.259135 85.84296 
L 145.977721 91.41576 
L 147.486459 88.7532 
L 150.539045 88.55712 
L 152.062917 88.96992 
L 155.084777 90.456 
L 156.599548 90.56952 
L 158.096553 89.15568 
L 159.531827 88.9596 
L 161.144246 90.6624 
L 162.469139 89.94 
L 164.172296 90.00192 
L 167.192052 90.62112 
L 170.230555 90.3528 
L 171.750341 92.004 
L 173.137563 92.13816 
L 174.77534 91.25064 
L 176.283815 89.166 
L 177.796165 89.56848 
L 179.293539 90.93072 
L 180.843191 89.41368 
L 182.342775 90.37344 
L 183.861526 89.79552 
L 185.368265 90.23928 
L 186.886754 88.0824 
L 188.401261 88.7532 
L 189.904861 90.16704 
L 191.434801 90.67272 
L 192.95457 90.18768 
L 194.460063 89.2692 
L 195.974694 89.54784 
L 197.495883 89.49624 
L 199.008181 88.31976 
L 200.521391 88.45392 
L 202.065606 88.46424 
L 203.585112 86.38992 
L 205.073822 84.80064 
L 206.600606 84.8316 
L 208.116254 86.586 
L 209.616731 87.74184 
L 211.123084 87.618 
L 212.660969 88.19592 
L 214.179756 89.08344 
L 215.680952 87.89664 
L 217.309032 87.3084 
L 218.729837 87.65928 
L 220.246976 88.96992 
L 221.747716 90.07416 
L 224.803143 89.3724 
L 226.308812 89.00088 
L 227.837033 88.42296 
L 230.849265 89.10408 
L 232.351514 89.14536 
L 233.889557 89.07312 
L 235.408695 87.9792 
L 236.914083 88.29912 
L 238.431765 86.38992 
L 239.941712 87.24648 
L 241.470881 87.1536 
L 242.962941 86.21448 
L 246.028346 87.01944 
L 247.533927 84.44976 
L 249.047997 85.05864 
L 250.569782 84.58392 
L 252.081922 85.04832 
L 253.580436 83.71704 
L 255.115672 84.86256 
L 256.634652 85.6572 
L 258.143232 85.27536 
L 259.653759 84.49104 
L 262.694366 85.32696 
L 264.191512 85.17216 
L 265.730308 85.31664 
L 267.261862 84.11952 
L 268.780263 85.66752 
L 270.291351 85.26504 
L 271.809121 86.26608 
L 274.817459 85.38888 
L 276.363446 85.3992 
L 277.878147 84.09888 
L 279.36 84.22272 
L 279.36 84.22272 
" clip-path="url(#pd7ca31d541)" style="fill: none; stroke: #4a8dff; stroke-width: 0.6"/>
   </g>
   <g id="line2d_7">
    <path d="M 8.64 71.7252 
L 10.155227 69.57864 
L 11.670453 70.72416 
L 13.18568 68.2164 
L 14.700907 66.978 
L 16.216133 70.03272 
L 17.73136 71.5188 
L 19.246586 73.3764 
L 20.761813 78.846 
L 22.27704 77.75208 
L 23.792266 78.88728 
L 25.307493 81.34344 
L 26.82272 80.53848 
L 28.337946 82.0452 
L 29.853173 86.92656 
L 31.368399 88.58808 
L 32.883626 88.96992 
L 34.398853 86.7924 
L 35.914079 85.296 
L 37.429306 86.24544 
L 38.944533 82.96368 
L 40.459759 82.13808 
L 41.974986 82.47864 
L 43.490212 82.58184 
L 45.005439 83.03592 
L 46.520666 87.3084 
L 48.035892 82.06584 
L 49.551119 79.71288 
L 51.066346 81.24024 
L 52.581572 84.17112 
L 54.096799 84.24336 
L 55.612025 83.29392 
L 57.127252 82.8192 
L 58.642479 80.64168 
L 60.157705 81.38472 
L 61.672932 80.87904 
L 63.188159 83.13912 
L 64.703385 83.19072 
L 66.218612 85.296 
L 67.733839 87.17424 
L 69.249065 85.71912 
L 70.764292 87.53544 
L 72.279518 88.17528 
L 73.794745 85.41984 
L 76.825198 84.9348 
L 78.340425 85.01736 
L 79.855652 86.14224 
L 81.370878 85.90488 
L 82.886105 86.328 
L 84.401331 86.24544 
L 85.916558 85.72944 
L 87.431785 85.7088 
L 88.947011 86.40024 
L 90.462238 85.09992 
L 91.977465 86.02872 
L 95.007918 83.53128 
L 98.038371 82.03488 
L 99.553598 79.39296 
L 101.068824 79.66128 
L 102.584051 82.15872 
L 104.099278 82.43736 
L 105.614504 82.93272 
L 107.129731 83.00496 
L 110.160184 82.28256 
L 111.675411 78.01008 
L 113.190637 76.19376 
L 114.705864 77.66952 
L 116.221091 77.74176 
L 117.736317 78.1752 
L 119.251544 79.5684 
L 120.766771 80.8068 
L 122.281997 85.20312 
L 123.797224 84.12984 
L 125.31245 84.03696 
L 126.827677 84.06792 
L 128.342904 84.3156 
L 129.85813 87.02976 
L 131.373357 85.21344 
L 132.888584 84.28464 
L 134.40381 84.32592 
L 135.919037 89.08344 
L 137.434263 89.5272 
L 138.94949 95.14128 
L 140.464717 96.98856 
L 141.979943 95.08968 
L 143.259135 97.71096 
L 144.463267 99.80592 
L 145.977721 101.79768 
L 147.486459 100.03296 
L 149.036322 100.518 
L 150.539045 99.98136 
L 152.062917 100.49736 
L 156.599548 101.26104 
L 158.096553 100.63152 
L 159.531827 100.38384 
L 161.144246 100.84824 
L 162.469139 100.65216 
L 164.172296 101.034 
L 165.685681 101.19912 
L 170.230555 100.91016 
L 171.750341 101.7564 
L 173.137563 101.84928 
L 174.77534 101.56032 
L 176.283815 100.85856 
L 179.293539 101.4468 
L 180.843191 101.02368 
L 182.342775 101.30232 
L 183.861526 100.81728 
L 185.368265 100.79664 
L 186.886754 99.3312 
L 188.401261 99.92976 
L 189.904861 100.78632 
L 191.434801 101.17848 
L 192.95457 101.1372 
L 194.460063 100.21872 
L 197.495883 100.4664 
L 199.008181 99.88848 
L 200.521391 99.94008 
L 202.065606 99.81624 
L 203.585112 98.93904 
L 205.073822 98.3508 
L 206.600606 98.52624 
L 208.116254 99.78528 
L 209.616731 100.12584 
L 211.123084 100.03296 
L 214.179756 100.83792 
L 215.680952 100.11552 
L 217.309032 99.87816 
L 218.729837 100.002 
L 220.246976 100.64184 
L 221.747716 101.41584 
L 223.283584 101.21976 
L 226.308812 101.00304 
L 227.837033 100.86888 
L 229.332303 101.21976 
L 230.849265 101.28168 
L 233.889557 101.14752 
L 235.408695 100.55928 
L 236.914083 100.65216 
L 238.431765 99.80592 
L 239.941712 99.96072 
L 241.470881 99.6408 
L 242.962941 99.1764 
L 244.505351 99.70272 
L 246.028346 99.94008 
L 247.533927 98.57784 
L 249.047997 98.65008 
L 250.569782 98.38176 
L 252.081922 98.48496 
L 253.580436 96.70992 
L 255.115672 98.05152 
L 256.634652 98.48496 
L 258.143232 97.96896 
L 259.653759 96.32808 
L 262.694366 96.16296 
L 264.191512 96.1836 
L 265.730308 96.50352 
L 267.261862 94.76976 
L 268.780263 97.19496 
L 270.291351 96.9576 
L 271.809121 97.9896 
L 273.340903 96.89568 
L 274.817459 95.45088 
L 276.363446 95.67792 
L 277.878147 93.43848 
L 279.36 92.90184 
L 279.36 92.90184 
" clip-path="url(#pd7ca31d541)" style="fill: none; stroke: #f5841e; stroke-width: 0.6"/>
   </g>
  </g>
 </g>
 <defs>
  <clipPath id="pd7ca31d541">
   <rect x="8.64" y="4.8" width="270.72" height="103.2"/>
  </clipPath>
 </defs>
</svg>
