<?xml version="1.0" encoding="utf-8" standalone="no"?>
<!DOCTYPE svg PUBLIC "-//W3C//DTD SVG 1.1//EN"
  "http://www.w3.org/Graphics/SVG/1.1/DTD/svg11.dtd">
<svg xmlns:xlink="http://www.w3.org/1999/xlink" width="288pt" height="120pt" viewBox="0 0 288 120" xmlns="http://www.w3.org/2000/svg" version="1.1">
<desc id="nav-meta">{"window":"2w","count":4,"labels":["29.05","02.06","07.06","11.06"],"tick_utc":["2026-05-29T04:59:49Z","2026-06-02T05:15:35Z","2026-06-07T05:11:57Z","2026-06-11T05:14:13Z"],"w":720,"h":300}</desc>

 <metadata>
  <rdf:RDF xmlns:dc="http://purl.org/dc/elements/1.1/" xmlns:cc="http://creativecommons.org/ns#" xmlns:rdf="http://www.w3.org/1999/02/22-rdf-syntax-ns#">
   <cc:Work>
    <dc:type rdf:resource="http://purl.org/dc/dcmitype/StillImage"/>
    <dc:date>2026-06-11T05:14:15.917924</dc:date>
    <dc:format>image/svg+xml</dc:format>
    <dc:creator>
     <cc:Agent>
      <dc:title>Matplotlib v3.10.9, https://matplotlib.org/</dc:title>
     </cc:Agent>
    </dc:creator>
   </cc:Work>
  </rdf:RDF>
 </metadata>
 <defs>
  <style type="text/css">*{stroke-linejoin: round; stroke-linecap: butt}</style>
 </defs>
 <g id="figure_1">
  <g id="patch_1">
   <path d="M 0 120 
L 288 120 
L 288 0 
L 0 0 
L 0 120 
z
" style="fill: none; opacity: 0"/>
  </g>
  <g id="axes_1">
   <g id="patch_2">
    <path d="M 8.64 108 
L 279.36 108 
L 279.36 4.8 
L 8.64 4.8 
L 8.64 108 
z
" style="fill: none"/>
   </g>
   <g id="matplotlib.axis_1"/>
   <g id="matplotlib.axis_2"/>
   <g id="line2d_1">
    <path d="M 8.64 87.36 
L 279.36 87.36 
" clip-path="url(#paacc9bbb80)" style="fill: none; stroke: #b2b2b2; stroke-opacity: 0.35; stroke-width: 0.5; stroke-linecap: square"/>
   </g>
   <g id="line2d_2">
    <path d="M 8.64 66.72 
L 279.36 66.72 
" clip-path="url(#paacc9bbb80)" style="fill: none; stroke: #b2b2b2; stroke-opacity: 0.35; stroke-width: 0.5; stroke-linecap: square"/>
   </g>
   <g id="line2d_3">
    <path d="M 8.64 46.08 
L 279.36 46.08 
" clip-path="url(#paacc9bbb80)" style="fill: none; stroke: #b2b2b2; stroke-opacity: 0.35; stroke-width: 0.5; stroke-linecap: square"/>
   </g>
   <g id="line2d_4">
    <path d="M 8.64 25.44 
L 279.36 25.44 
" clip-path="url(#paacc9bbb80)" style="fill: none; stroke: #b2b2b2; stroke-opacity: 0.35; stroke-width: 0.5; stroke-linecap: square"/>
   </g>
   <g id="line2d_5">
    <path d="M 8.64 101.4984 
L 29.148522 101.48808 
L 50.381973 101.32296 
L 71.498376 101.51904 
L 92.10227 101.7048 
L 113.144976 102.54072 
L 133.882296 103.08768 
L 154.348189 103.36632 
L 174.836961 104.22288 
L 196.092811 103.85136 
L 216.99342 103.68624 
L 237.404883 103.43856 
L 258.429285 103.81008 
L 279.36 103.72752 
" clip-path="url(#paacc9bbb80)" style="fill: none; stroke: #bebebe; stroke-width: 0.5; stroke-linecap: round"/>
   </g>
   <g id="line2d_6">
    <path d="M 8.64 89.82648 
L 29.148522 89.87808 
L 50.381973 89.46528 
L 71.498376 90.0432 
L 92.10227 89.96064 
L 113.144976 91.99368 
L 133.882296 93.05664 
L 154.348189 93.74808 
L 174.836961 97.02984 
L 196.092811 95.93592 
L 216.99342 95.07936 
L 237.404883 94.46016 
L 258.429285 95.47152 
L 279.36 95.11032 
" clip-path="url(#paacc9bbb80)" style="fill: none; stroke: #4a8dff; stroke-width: 0.6"/>
   </g>
   <g id="line2d_7">
    <path d="M 8.64 99.03192 
L 29.148522 99.1248 
L 50.381973 98.74296 
L 71.498376 99.09384 
L 92.10227 100.0536 
L 113.144976 101.23008 
L 133.882296 101.99376 
L 154.348189 102.08664 
L 174.836961 102.8916 
L 196.092811 102.45816 
L 216.99342 102.28272 
L 237.404883 102.10728 
L 258.429285 102.582 
L 279.36 102.29304 
" clip-path="url(#paacc9bbb80)" style="fill: none; stroke: #f5841e; stroke-width: 0.6"/>
   </g>
  </g>
 </g>
 <defs>
  <clipPath id="paacc9bbb80">
   <rect x="8.64" y="4.8" width="270.72" height="103.2"/>
  </clipPath>
 </defs>
</svg>
