<?xml version="1.0" encoding="utf-8" standalone="no"?>
<!DOCTYPE svg PUBLIC "-//W3C//DTD SVG 1.1//EN"
  "http://www.w3.org/Graphics/SVG/1.1/DTD/svg11.dtd">
<svg xmlns:xlink="http://www.w3.org/1999/xlink" width="288pt" height="120pt" viewBox="0 0 288 120" xmlns="http://www.w3.org/2000/svg" version="1.1">
<desc id="nav-meta">{"window":"3m","count":4,"labels":["10.01","09.02","10.03","09.04"],"tick_utc":["2026-01-10T12:00:00Z","2026-02-09T03:34:10Z","2026-03-10T03:14:38Z","2026-04-09T03:38:15Z"],"w":720,"h":300}</desc>

 <metadata>
  <rdf:RDF xmlns:dc="http://purl.org/dc/elements/1.1/" xmlns:cc="http://creativecommons.org/ns#" xmlns:rdf="http://www.w3.org/1999/02/22-rdf-syntax-ns#">
   <cc:Work>
    <dc:type rdf:resource="http://purl.org/dc/dcmitype/StillImage"/>
    <dc:date>2026-04-09T14:24:12.196220</dc:date>
    <dc:format>image/svg+xml</dc:format>
    <dc:creator>
     <cc:Agent>
      <dc:title>Matplotlib v3.10.8, https://matplotlib.org/</dc:title>
     </cc:Agent>
    </dc:creator>
   </cc:Work>
  </rdf:RDF>
 </metadata>
 <defs>
  <style type="text/css">*{stroke-linejoin: round; stroke-linecap: butt}</style>
 </defs>
 <g id="figure_1">
  <g id="patch_1">
   <path d="M 0 120 
L 288 120 
L 288 0 
L 0 0 
L 0 120 
z
" style="fill: none; opacity: 0"/>
  </g>
  <g id="axes_1">
   <g id="patch_2">
    <path d="M 8.64 108 
L 279.36 108 
L 279.36 4.8 
L 8.64 4.8 
L 8.64 108 
z
" style="fill: none"/>
   </g>
   <g id="matplotlib.axis_1"/>
   <g id="matplotlib.axis_2"/>
   <g id="line2d_1">
    <path d="M 8.64 87.36 
L 279.36 87.36 
" clip-path="url(#p1886efff09)" style="fill: none; stroke: #b2b2b2; stroke-opacity: 0.35; stroke-width: 0.5; stroke-linecap: square"/>
   </g>
   <g id="line2d_2">
    <path d="M 8.64 66.72 
L 279.36 66.72 
" clip-path="url(#p1886efff09)" style="fill: none; stroke: #b2b2b2; stroke-opacity: 0.35; stroke-width: 0.5; stroke-linecap: square"/>
   </g>
   <g id="line2d_3">
    <path d="M 8.64 46.08 
L 279.36 46.08 
" clip-path="url(#p1886efff09)" style="fill: none; stroke: #b2b2b2; stroke-opacity: 0.35; stroke-width: 0.5; stroke-linecap: square"/>
   </g>
   <g id="line2d_4">
    <path d="M 8.64 25.44 
L 279.36 25.44 
" clip-path="url(#p1886efff09)" style="fill: none; stroke: #b2b2b2; stroke-opacity: 0.35; stroke-width: 0.5; stroke-linecap: square"/>
   </g>
   <g id="line2d_5">
    <path d="M 8.64 89.39304 
L 11.693753 89.40336 
L 14.747507 88.41264 
L 17.80126 88.4952 
L 20.855013 86.86464 
L 23.908766 86.42088 
L 26.96252 87.62832 
L 30.016273 86.93688 
L 33.070026 87.23616 
L 36.12378 88.63968 
L 39.177533 90.0432 
L 42.231286 92.12784 
L 45.285039 91.16808 
L 48.338793 91.46736 
L 51.392546 91.73568 
L 54.446299 91.78728 
L 57.500053 94.0164 
L 60.553806 92.5716 
L 63.607559 91.76664 
L 66.661312 92.33424 
L 69.715066 94.36728 
L 72.768819 94.46016 
L 75.822572 97.71096 
L 78.876326 98.48496 
L 81.930079 97.85544 
L 84.508132 99.10416 
L 86.934912 100.16712 
L 89.98711 102.23112 
L 93.027786 100.54896 
L 96.151344 100.70376 
L 99.179897 100.68312 
L 102.251075 100.95144 
L 105.298502 101.28168 
L 108.341263 101.71512 
L 111.394097 101.84928 
L 114.411128 101.034 
L 117.303746 100.54896 
L 120.553378 101.04432 
L 123.223539 100.81728 
L 126.656042 101.034 
L 129.706084 101.4984 
L 132.741989 101.33328 
L 135.77708 101.1372 
L 138.865718 101.06496 
L 141.928661 102.09696 
L 144.724436 102.05568 
L 148.025176 101.4984 
L 151.065321 100.60056 
L 154.113278 100.80696 
L 157.131051 101.45712 
L 160.254185 100.55928 
L 163.276411 101.10624 
L 166.337269 100.8792 
L 169.373915 100.74504 
L 172.434243 100.21872 
L 175.486547 100.53864 
L 178.516867 101.07528 
L 181.600274 101.38488 
L 184.663181 101.26104 
L 187.697319 100.78632 
L 190.74987 100.91016 
L 193.81564 100.99272 
L 196.863491 100.38384 
L 199.91318 100.50768 
L 203.025357 100.60056 
L 206.087735 99.76464 
L 209.088047 99.49632 
L 212.165093 99.40344 
L 215.219694 100.09488 
L 218.243723 100.3632 
L 221.279592 100.19808 
L 224.37901 100.47672 
L 227.439938 100.79664 
L 230.465416 100.26 
L 233.74661 99.83688 
L 236.61007 100.13616 
L 239.667675 100.80696 
L 242.692234 101.38488 
L 245.787588 101.3436 
L 248.850071 101.292 
L 251.884562 101.28168 
L 254.964505 101.28168 
L 257.978037 101.8596 
L 261.035289 101.88024 
L 264.062887 101.72544 
L 267.162624 101.68416 
L 270.224259 101.47776 
L 273.258184 101.78736 
L 276.316885 101.09592 
L 279.36 101.46744 
" clip-path="url(#p1886efff09)" style="fill: none; stroke: #bebebe; stroke-width: 0.5; stroke-linecap: round"/>
   </g>
   <g id="line2d_6">
    <path d="M 8.64 73.83048 
L 11.693753 73.8408 
L 14.747507 73.29384 
L 17.80126 73.72728 
L 20.855013 70.32168 
L 23.908766 69.77472 
L 26.96252 70.34232 
L 30.016273 70.67256 
L 33.070026 70.51776 
L 36.12378 70.848 
L 39.177533 72.31344 
L 42.231286 76.01832 
L 45.285039 75.41976 
L 48.338793 75.83256 
L 51.392546 75.79128 
L 54.446299 75.82224 
L 57.500053 77.82432 
L 60.553806 76.14216 
L 63.607559 74.75928 
L 66.661312 74.96568 
L 69.715066 77.75208 
L 72.768819 79.48584 
L 75.822572 83.31456 
L 78.876326 85.90488 
L 81.930079 84.79032 
L 84.508132 85.84296 
L 86.934912 88.25784 
L 89.98711 91.41576 
L 93.027786 88.7532 
L 96.151344 88.65 
L 99.179897 88.55712 
L 102.251075 88.96992 
L 105.298502 89.7336 
L 108.341263 90.456 
L 111.394097 90.56952 
L 114.411128 89.15568 
L 117.303746 88.9596 
L 120.553378 90.6624 
L 123.223539 89.94 
L 126.656042 90.00192 
L 129.706084 90.3528 
L 132.741989 90.62112 
L 135.77708 90.5076 
L 138.865718 90.3528 
L 141.928661 92.004 
L 144.724436 92.13816 
L 148.025176 91.25064 
L 151.065321 89.166 
L 154.113278 89.56848 
L 157.131051 90.93072 
L 160.254185 89.41368 
L 163.276411 90.37344 
L 166.337269 89.79552 
L 169.373915 90.23928 
L 172.434243 88.0824 
L 175.486547 88.7532 
L 178.516867 90.16704 
L 181.600274 90.67272 
L 184.663181 90.18768 
L 187.697319 89.2692 
L 190.74987 89.54784 
L 193.81564 89.49624 
L 196.863491 88.31976 
L 199.91318 88.45392 
L 203.025357 88.46424 
L 206.087735 86.38992 
L 209.088047 84.80064 
L 212.165093 84.8316 
L 215.219694 86.586 
L 218.243723 87.74184 
L 221.279592 87.618 
L 224.37901 88.19592 
L 227.439938 89.08344 
L 230.465416 87.89664 
L 233.74661 87.3084 
L 236.61007 87.65928 
L 239.667675 88.96992 
L 242.692234 90.07416 
L 245.787588 89.76456 
L 248.850071 89.3724 
L 251.884562 89.00088 
L 254.964505 88.42296 
L 257.978037 88.81512 
L 261.035289 89.10408 
L 264.062887 89.14536 
L 267.162624 89.07312 
L 270.224259 87.9792 
L 273.258184 88.29912 
L 276.316885 86.38992 
L 279.36 87.24648 
" clip-path="url(#p1886efff09)" style="fill: none; stroke: #4a8dff; stroke-width: 0.6"/>
   </g>
   <g id="line2d_7">
    <path d="M 8.64 82.93272 
L 11.693753 83.00496 
L 14.747507 82.6128 
L 17.80126 82.28256 
L 20.855013 78.01008 
L 23.908766 76.19376 
L 26.96252 77.66952 
L 30.016273 77.74176 
L 33.070026 78.1752 
L 36.12378 79.5684 
L 39.177533 80.8068 
L 42.231286 85.20312 
L 45.285039 84.12984 
L 48.338793 84.03696 
L 51.392546 84.06792 
L 54.446299 84.3156 
L 57.500053 87.02976 
L 60.553806 85.21344 
L 63.607559 84.28464 
L 66.661312 84.32592 
L 69.715066 89.08344 
L 72.768819 89.5272 
L 75.822572 95.14128 
L 78.876326 96.98856 
L 81.930079 95.08968 
L 84.508132 97.71096 
L 86.934912 99.80592 
L 89.98711 101.79768 
L 93.027786 100.03296 
L 96.151344 100.518 
L 99.179897 99.98136 
L 102.251075 100.49736 
L 105.298502 100.78632 
L 108.341263 101.07528 
L 111.394097 101.26104 
L 114.411128 100.63152 
L 117.303746 100.38384 
L 120.553378 100.84824 
L 123.223539 100.65216 
L 126.656042 101.034 
L 129.706084 101.19912 
L 132.741989 101.10624 
L 135.77708 100.97208 
L 138.865718 100.91016 
L 141.928661 101.7564 
L 144.724436 101.84928 
L 148.025176 101.56032 
L 151.065321 100.85856 
L 154.113278 101.12688 
L 157.131051 101.4468 
L 160.254185 101.02368 
L 163.276411 101.30232 
L 166.337269 100.81728 
L 169.373915 100.79664 
L 172.434243 99.3312 
L 175.486547 99.92976 
L 178.516867 100.78632 
L 181.600274 101.17848 
L 184.663181 101.1372 
L 187.697319 100.21872 
L 190.74987 100.37352 
L 193.81564 100.4664 
L 196.863491 99.88848 
L 199.91318 99.94008 
L 203.025357 99.81624 
L 206.087735 98.93904 
L 209.088047 98.3508 
L 212.165093 98.52624 
L 215.219694 99.78528 
L 218.243723 100.12584 
L 221.279592 100.03296 
L 224.37901 100.45608 
L 227.439938 100.83792 
L 230.465416 100.11552 
L 233.74661 99.87816 
L 236.61007 100.002 
L 239.667675 100.64184 
L 242.692234 101.41584 
L 245.787588 101.21976 
L 248.850071 101.14752 
L 251.884562 101.00304 
L 254.964505 100.86888 
L 257.978037 101.21976 
L 261.035289 101.28168 
L 264.062887 101.20944 
L 267.162624 101.14752 
L 270.224259 100.55928 
L 273.258184 100.65216 
L 276.316885 99.80592 
L 279.36 99.96072 
" clip-path="url(#p1886efff09)" style="fill: none; stroke: #f5841e; stroke-width: 0.6"/>
   </g>
  </g>
 </g>
 <defs>
  <clipPath id="p1886efff09">
   <rect x="8.64" y="4.8" width="270.72" height="103.2"/>
  </clipPath>
 </defs>
</svg>
