<?xml version="1.0" encoding="utf-8" standalone="no"?>
<!DOCTYPE svg PUBLIC "-//W3C//DTD SVG 1.1//EN"
  "http://www.w3.org/Graphics/SVG/1.1/DTD/svg11.dtd">
<svg xmlns:xlink="http://www.w3.org/1999/xlink" width="288pt" height="120pt" viewBox="0 0 288 120" xmlns="http://www.w3.org/2000/svg" version="1.1">
<desc id="nav-meta">{"window":"3m","count":4,"labels":["01.04","01.05","30.05","29.06"],"tick_utc":["2026-04-01T03:54:32Z","2026-05-01T04:39:16Z","2026-05-30T04:39:03Z","2026-06-29T05:17:50Z"],"w":720,"h":300}</desc>

 <metadata>
  <rdf:RDF xmlns:dc="http://purl.org/dc/elements/1.1/" xmlns:cc="http://creativecommons.org/ns#" xmlns:rdf="http://www.w3.org/1999/02/22-rdf-syntax-ns#">
   <cc:Work>
    <dc:type rdf:resource="http://purl.org/dc/dcmitype/StillImage"/>
    <dc:date>2026-06-29T11:34:27.961867</dc:date>
    <dc:format>image/svg+xml</dc:format>
    <dc:creator>
     <cc:Agent>
      <dc:title>Matplotlib v3.11.0, https://matplotlib.org/</dc:title>
     </cc:Agent>
    </dc:creator>
   </cc:Work>
  </rdf:RDF>
 </metadata>
 <defs>
  <style type="text/css">*{stroke-linejoin: round; stroke-linecap: butt}</style>
 </defs>
 <g id="figure_1">
  <g id="patch_1">
   <path d="M 0 120 
L 288 120 
L 288 0 
L 0 0 
L 0 120 
z
" style="fill: none; opacity: 0"/>
  </g>
  <g id="axes_1">
   <g id="patch_2">
    <path d="M 8.64 108 
L 279.36 108 
L 279.36 4.8 
L 8.64 4.8 
L 8.64 108 
z
" style="fill: none"/>
   </g>
   <g id="matplotlib.axis_1"/>
   <g id="matplotlib.axis_2"/>
   <g id="line2d_1">
    <path d="M 8.64 87.36 
L 279.36 87.36 
" clip-path="url(#p256b774654)" style="fill: none; stroke: #b2b2b2; stroke-opacity: 0.35; stroke-width: 0.5; stroke-linecap: square"/>
   </g>
   <g id="line2d_2">
    <path d="M 8.64 66.72 
L 279.36 66.72 
" clip-path="url(#p256b774654)" style="fill: none; stroke: #b2b2b2; stroke-opacity: 0.35; stroke-width: 0.5; stroke-linecap: square"/>
   </g>
   <g id="line2d_3">
    <path d="M 8.64 46.08 
L 279.36 46.08 
" clip-path="url(#p256b774654)" style="fill: none; stroke: #b2b2b2; stroke-opacity: 0.35; stroke-width: 0.5; stroke-linecap: square"/>
   </g>
   <g id="line2d_4">
    <path d="M 8.64 25.44 
L 279.36 25.44 
" clip-path="url(#p256b774654)" style="fill: none; stroke: #b2b2b2; stroke-opacity: 0.35; stroke-width: 0.5; stroke-linecap: square"/>
   </g>
   <g id="line2d_5">
    <path d="M 8.64 101.28168 
L 11.639784 101.8596 
L 14.683089 101.88024 
L 17.696875 101.72544 
L 20.78247 101.68416 
L 23.830138 101.47776 
L 26.850222 101.78736 
L 29.89497 101.09592 
L 32.924202 101.46744 
L 35.991994 101.3436 
L 38.985339 101.05464 
L 42.079695 101.3952 
L 45.135103 101.47776 
L 48.155575 100.86888 
L 51.193074 101.26104 
L 54.246055 100.99272 
L 57.279685 100.61088 
L 60.285977 100.44576 
L 63.365943 100.94112 
L 66.413294 101.09592 
L 69.439782 101.00304 
L 72.470175 100.69344 
L 75.522311 100.9308 
L 78.57019 100.92048 
L 81.573738 100.81728 
L 84.660846 100.8792 
L 87.733423 100.64184 
L 90.779613 101.1888 
L 93.811132 101.09592 
L 96.856056 101.37456 
L 99.92909 101.21976 
L 102.891334 101.20944 
L 105.992867 101.23008 
L 109.031633 100.92048 
L 112.004502 101.06496 
L 115.097872 100.70376 
L 118.138504 100.55928 
L 121.127732 100.53864 
L 124.178672 99.60984 
L 127.279748 99.72336 
L 130.343565 99.44472 
L 133.341167 99.25896 
L 136.395449 99.32088 
L 139.431893 100.22904 
L 142.486703 100.01232 
L 145.487718 100.43544 
L 148.572927 100.75536 
L 151.642267 101.02368 
L 154.660311 101.02368 
L 157.711004 101.17848 
L 160.768136 100.7244 
L 163.784667 100.75536 
L 166.782727 101.11656 
L 169.870679 100.91016 
L 172.950504 100.89984 
L 175.944272 101.1372 
L 179.015301 101.2404 
L 182.045412 101.6532 
L 185.087486 101.4984 
L 188.08347 101.48808 
L 191.185355 101.32296 
L 194.270141 101.51904 
L 197.280057 101.7048 
L 200.354077 102.54072 
L 203.383485 103.08768 
L 206.373241 103.36632 
L 209.36634 104.22288 
L 212.471497 103.85136 
L 215.524759 103.68624 
L 218.506564 103.43856 
L 221.57791 103.81008 
L 224.63557 103.72752 
L 227.687319 103.50048 
L 230.704905 103.5108 
L 233.766787 103.31472 
L 236.907655 102.95352 
L 239.964822 102.61296 
L 242.90782 102.6336 
L 245.933076 102.9948 
L 249.044496 103.28376 
L 251.96276 103.01544 
L 255.065841 102.69552 
L 258.194641 102.582 
L 261.052743 102.88128 
L 264.103436 103.15992 
L 267.142449 103.36632 
L 270.197857 103.36632 
L 273.20042 102.81936 
L 276.298189 103.0464 
L 279.36 102.9432 
" clip-path="url(#p256b774654)" style="fill: none; stroke: #bebebe; stroke-width: 0.5; stroke-linecap: round"/>
   </g>
   <g id="line2d_6">
    <path d="M 8.64 88.42296 
L 11.639784 88.81512 
L 14.683089 89.10408 
L 17.696875 89.14536 
L 20.78247 89.07312 
L 23.830138 87.9792 
L 26.850222 88.29912 
L 29.89497 86.38992 
L 32.924202 87.24648 
L 35.991994 87.1536 
L 38.985339 86.21448 
L 42.079695 86.66856 
L 45.135103 87.01944 
L 48.155575 84.44976 
L 51.193074 85.05864 
L 54.246055 84.58392 
L 57.279685 85.04832 
L 60.285977 83.71704 
L 63.365943 84.86256 
L 66.413294 85.6572 
L 69.439782 85.27536 
L 72.470175 84.49104 
L 75.522311 84.86256 
L 78.57019 85.32696 
L 81.573738 85.17216 
L 84.660846 85.31664 
L 87.733423 84.11952 
L 90.779613 85.66752 
L 93.811132 85.26504 
L 96.856056 86.26608 
L 99.92909 85.77072 
L 102.891334 85.38888 
L 105.992867 85.3992 
L 109.031633 84.09888 
L 112.004502 84.22272 
L 115.097872 84.34656 
L 118.138504 85.06896 
L 121.127732 85.7604 
L 124.178672 85.0896 
L 127.279748 85.01736 
L 130.343565 84.9348 
L 133.341167 85.296 
L 136.395449 85.35792 
L 139.431893 86.1732 
L 142.486703 85.92552 
L 145.487718 86.55504 
L 148.572927 87.13296 
L 151.642267 88.10304 
L 154.660311 87.9276 
L 157.711004 88.26816 
L 160.768136 87.78312 
L 163.784667 87.95856 
L 166.782727 88.94928 
L 169.870679 88.14432 
L 172.950504 88.33008 
L 175.944272 88.52616 
L 179.015301 88.86672 
L 182.045412 90.22896 
L 185.087486 89.82648 
L 188.08347 89.87808 
L 191.185355 89.46528 
L 194.270141 90.0432 
L 197.280057 89.96064 
L 200.354077 91.99368 
L 203.383485 93.05664 
L 206.373241 93.74808 
L 209.36634 97.02984 
L 212.471497 95.93592 
L 215.524759 95.07936 
L 218.506564 94.46016 
L 221.57791 95.47152 
L 224.63557 95.11032 
L 227.687319 94.82136 
L 230.704905 94.8936 
L 233.766787 94.70784 
L 236.907655 94.04736 
L 239.964822 93.40752 
L 242.90782 92.9844 
L 245.933076 93.93384 
L 249.044496 94.4292 
L 251.96276 94.19184 
L 255.065841 93.87192 
L 258.194641 93.81 
L 261.052743 94.03704 
L 264.103436 94.83168 
L 267.142449 95.48184 
L 270.197857 96.63768 
L 273.20042 96.14232 
L 276.298189 96.30744 
L 279.36 96.29712 
" clip-path="url(#p256b774654)" style="fill: none; stroke: #4a8dff; stroke-width: 0.6"/>
   </g>
   <g id="line2d_7">
    <path d="M 8.64 100.86888 
L 11.639784 101.21976 
L 14.683089 101.28168 
L 17.696875 101.20944 
L 20.78247 101.14752 
L 23.830138 100.55928 
L 26.850222 100.65216 
L 29.89497 99.80592 
L 32.924202 99.96072 
L 35.991994 99.6408 
L 38.985339 99.1764 
L 42.079695 99.70272 
L 45.135103 99.94008 
L 48.155575 98.57784 
L 51.193074 98.65008 
L 54.246055 98.38176 
L 57.279685 98.48496 
L 60.285977 96.70992 
L 63.365943 98.05152 
L 66.413294 98.48496 
L 69.439782 97.96896 
L 72.470175 96.32808 
L 75.522311 96.20424 
L 78.57019 96.16296 
L 81.573738 96.1836 
L 84.660846 96.50352 
L 87.733423 94.76976 
L 90.779613 97.19496 
L 93.811132 96.9576 
L 96.856056 97.9896 
L 99.92909 96.89568 
L 102.891334 95.45088 
L 105.992867 95.67792 
L 109.031633 93.43848 
L 112.004502 92.90184 
L 115.097872 92.25168 
L 118.138504 92.87088 
L 121.127732 94.2744 
L 124.178672 93.1392 
L 127.279748 92.97408 
L 130.343565 92.9844 
L 133.341167 92.60256 
L 136.395449 92.53032 
L 139.431893 94.54272 
L 142.486703 92.85024 
L 145.487718 94.82136 
L 148.572927 95.75016 
L 151.642267 96.97824 
L 154.660311 97.08144 
L 157.711004 97.23624 
L 160.768136 95.94624 
L 163.784667 96.30744 
L 166.782727 98.08248 
L 169.870679 97.2672 
L 172.950504 96.61704 
L 175.944272 97.23624 
L 179.015301 98.08248 
L 182.045412 99.18672 
L 185.087486 99.03192 
L 188.08347 99.1248 
L 191.185355 98.74296 
L 194.270141 99.09384 
L 197.280057 100.0536 
L 200.354077 101.23008 
L 203.383485 101.99376 
L 206.373241 102.08664 
L 209.36634 102.8916 
L 212.471497 102.45816 
L 215.524759 102.28272 
L 218.506564 102.10728 
L 221.57791 102.582 
L 224.63557 102.29304 
L 227.687319 102.08664 
L 230.704905 102.066 
L 233.766787 101.86992 
L 236.907655 101.48808 
L 239.964822 101.40552 
L 242.90782 101.4984 
L 245.933076 101.97312 
L 249.044496 102.26208 
L 251.96276 102.066 
L 255.065841 101.90088 
L 258.194641 101.90088 
L 261.052743 102.0144 
L 264.103436 102.25176 
L 267.142449 102.6336 
L 270.197857 102.88128 
L 273.20042 102.77808 
L 276.298189 102.85032 
L 279.36 102.93288 
" clip-path="url(#p256b774654)" style="fill: none; stroke: #f5841e; stroke-width: 0.6"/>
   </g>
  </g>
 </g>
 <defs>
  <clipPath id="p256b774654">
   <rect x="8.64" y="4.8" width="270.72" height="103.2"/>
  </clipPath>
 </defs>
</svg>
