<?xml version="1.0" encoding="utf-8" standalone="no"?>
<!DOCTYPE svg PUBLIC "-//W3C//DTD SVG 1.1//EN"
  "http://www.w3.org/Graphics/SVG/1.1/DTD/svg11.dtd">
<svg xmlns:xlink="http://www.w3.org/1999/xlink" width="288pt" height="120pt" viewBox="0 0 288 120" xmlns="http://www.w3.org/2000/svg" version="1.1">
<desc id="nav-meta">{"window":"1m","count":4,"labels":["11.03","21.03","30.03","09.04"],"tick_utc":["2026-03-11T03:14:04Z","2026-03-21T03:10:23Z","2026-03-30T03:51:16Z","2026-04-09T03:38:15Z"],"w":720,"h":300}</desc>

 <metadata>
  <rdf:RDF xmlns:dc="http://purl.org/dc/elements/1.1/" xmlns:cc="http://creativecommons.org/ns#" xmlns:rdf="http://www.w3.org/1999/02/22-rdf-syntax-ns#">
   <cc:Work>
    <dc:type rdf:resource="http://purl.org/dc/dcmitype/StillImage"/>
    <dc:date>2026-04-09T08:06:38.900359</dc:date>
    <dc:format>image/svg+xml</dc:format>
    <dc:creator>
     <cc:Agent>
      <dc:title>Matplotlib v3.10.8, https://matplotlib.org/</dc:title>
     </cc:Agent>
    </dc:creator>
   </cc:Work>
  </rdf:RDF>
 </metadata>
 <defs>
  <style type="text/css">*{stroke-linejoin: round; stroke-linecap: butt}</style>
 </defs>
 <g id="figure_1">
  <g id="patch_1">
   <path d="M 0 120 
L 288 120 
L 288 0 
L 0 0 
L 0 120 
z
" style="fill: none; opacity: 0"/>
  </g>
  <g id="axes_1">
   <g id="patch_2">
    <path d="M 8.64 108 
L 279.36 108 
L 279.36 4.8 
L 8.64 4.8 
L 8.64 108 
z
" style="fill: none"/>
   </g>
   <g id="matplotlib.axis_1"/>
   <g id="matplotlib.axis_2"/>
   <g id="line2d_1">
    <path d="M 8.64 87.36 
L 279.36 87.36 
" clip-path="url(#p874f1991a4)" style="fill: none; stroke: #b2b2b2; stroke-opacity: 0.35; stroke-width: 0.5; stroke-linecap: square"/>
   </g>
   <g id="line2d_2">
    <path d="M 8.64 66.72 
L 279.36 66.72 
" clip-path="url(#p874f1991a4)" style="fill: none; stroke: #b2b2b2; stroke-opacity: 0.35; stroke-width: 0.5; stroke-linecap: square"/>
   </g>
   <g id="line2d_3">
    <path d="M 8.64 46.08 
L 279.36 46.08 
" clip-path="url(#p874f1991a4)" style="fill: none; stroke: #b2b2b2; stroke-opacity: 0.35; stroke-width: 0.5; stroke-linecap: square"/>
   </g>
   <g id="line2d_4">
    <path d="M 8.64 25.44 
L 279.36 25.44 
" clip-path="url(#p874f1991a4)" style="fill: none; stroke: #b2b2b2; stroke-opacity: 0.35; stroke-width: 0.5; stroke-linecap: square"/>
   </g>
   <g id="line2d_5">
    <path d="M 8.64 100.91016 
L 18.006484 100.99272 
L 27.31822 100.38384 
L 36.635572 100.50768 
L 46.143838 100.60056 
L 55.499955 99.76464 
L 64.666454 99.49632 
L 74.067384 99.40344 
L 83.399746 100.09488 
L 92.638701 100.3632 
L 101.913831 100.19808 
L 111.383115 100.47672 
L 120.734805 100.79664 
L 129.978188 100.26 
L 140.002831 99.83688 
L 148.751218 100.13616 
L 158.092757 100.80696 
L 167.333332 101.38488 
L 176.790198 101.3436 
L 186.14664 101.292 
L 195.417558 101.28168 
L 204.827344 101.28168 
L 214.034228 101.8596 
L 223.374688 101.88024 
L 232.62455 101.72544 
L 242.094806 101.68416 
L 251.448655 101.47776 
L 260.717846 101.78736 
L 270.062733 101.09592 
L 279.36 101.46744 
" clip-path="url(#p874f1991a4)" style="fill: none; stroke: #bebebe; stroke-width: 0.5; stroke-linecap: round"/>
   </g>
   <g id="line2d_6">
    <path d="M 8.64 89.54784 
L 18.006484 89.49624 
L 27.31822 88.31976 
L 36.635572 88.45392 
L 46.143838 88.46424 
L 55.499955 86.38992 
L 64.666454 84.80064 
L 74.067384 84.8316 
L 83.399746 86.586 
L 92.638701 87.74184 
L 101.913831 87.618 
L 111.383115 88.19592 
L 120.734805 89.08344 
L 129.978188 87.89664 
L 140.002831 87.3084 
L 148.751218 87.65928 
L 158.092757 88.96992 
L 167.333332 90.07416 
L 176.790198 89.76456 
L 186.14664 89.3724 
L 195.417558 89.00088 
L 204.827344 88.42296 
L 214.034228 88.81512 
L 223.374688 89.10408 
L 232.62455 89.14536 
L 242.094806 89.07312 
L 251.448655 87.9792 
L 260.717846 88.29912 
L 270.062733 86.38992 
L 279.36 87.24648 
" clip-path="url(#p874f1991a4)" style="fill: none; stroke: #4a8dff; stroke-width: 0.6"/>
   </g>
   <g id="line2d_7">
    <path d="M 8.64 100.37352 
L 18.006484 100.4664 
L 27.31822 99.88848 
L 36.635572 99.94008 
L 46.143838 99.81624 
L 55.499955 98.93904 
L 64.666454 98.3508 
L 74.067384 98.52624 
L 83.399746 99.78528 
L 92.638701 100.12584 
L 101.913831 100.03296 
L 111.383115 100.45608 
L 120.734805 100.83792 
L 129.978188 100.11552 
L 140.002831 99.87816 
L 148.751218 100.002 
L 158.092757 100.64184 
L 167.333332 101.41584 
L 176.790198 101.21976 
L 186.14664 101.14752 
L 195.417558 101.00304 
L 204.827344 100.86888 
L 214.034228 101.21976 
L 223.374688 101.28168 
L 232.62455 101.20944 
L 242.094806 101.14752 
L 251.448655 100.55928 
L 260.717846 100.65216 
L 270.062733 99.80592 
L 279.36 99.96072 
" clip-path="url(#p874f1991a4)" style="fill: none; stroke: #f5841e; stroke-width: 0.6"/>
   </g>
  </g>
 </g>
 <defs>
  <clipPath id="p874f1991a4">
   <rect x="8.64" y="4.8" width="270.72" height="103.2"/>
  </clipPath>
 </defs>
</svg>
