<?xml version="1.0" encoding="utf-8" standalone="no"?>
<!DOCTYPE svg PUBLIC "-//W3C//DTD SVG 1.1//EN"
  "http://www.w3.org/Graphics/SVG/1.1/DTD/svg11.dtd">
<svg xmlns:xlink="http://www.w3.org/1999/xlink" width="288pt" height="120pt" viewBox="0 0 288 120" xmlns="http://www.w3.org/2000/svg" version="1.1">
<desc id="nav-meta">{"window":"6m","count":4,"labels":["18.09","17.11","15.01","16.03"],"tick_utc":["2025-09-18T12:00:00Z","2025-11-17T12:00:00Z","2026-01-15T12:00:00Z","2026-03-16T03:46:39Z"],"w":720,"h":300}</desc>

 <metadata>
  <rdf:RDF xmlns:dc="http://purl.org/dc/elements/1.1/" xmlns:cc="http://creativecommons.org/ns#" xmlns:rdf="http://www.w3.org/1999/02/22-rdf-syntax-ns#">
   <cc:Work>
    <dc:type rdf:resource="http://purl.org/dc/dcmitype/StillImage"/>
    <dc:date>2026-03-16T14:05:26.005541</dc:date>
    <dc:format>image/svg+xml</dc:format>
    <dc:creator>
     <cc:Agent>
      <dc:title>Matplotlib v3.10.8, https://matplotlib.org/</dc:title>
     </cc:Agent>
    </dc:creator>
   </cc:Work>
  </rdf:RDF>
 </metadata>
 <defs>
  <style type="text/css">*{stroke-linejoin: round; stroke-linecap: butt}</style>
 </defs>
 <g id="figure_1">
  <g id="patch_1">
   <path d="M 0 120 
L 288 120 
L 288 0 
L 0 0 
L 0 120 
z
" style="fill: none; opacity: 0"/>
  </g>
  <g id="axes_1">
   <g id="patch_2">
    <path d="M 8.64 108 
L 279.36 108 
L 279.36 4.8 
L 8.64 4.8 
L 8.64 108 
z
" style="fill: none"/>
   </g>
   <g id="matplotlib.axis_1"/>
   <g id="matplotlib.axis_2"/>
   <g id="line2d_1">
    <path d="M 8.64 87.36 
L 279.36 87.36 
" clip-path="url(#p0e3b999311)" style="fill: none; stroke: #b2b2b2; stroke-opacity: 0.35; stroke-width: 0.5; stroke-linecap: square"/>
   </g>
   <g id="line2d_2">
    <path d="M 8.64 66.72 
L 279.36 66.72 
" clip-path="url(#p0e3b999311)" style="fill: none; stroke: #b2b2b2; stroke-opacity: 0.35; stroke-width: 0.5; stroke-linecap: square"/>
   </g>
   <g id="line2d_3">
    <path d="M 8.64 46.08 
L 279.36 46.08 
" clip-path="url(#p0e3b999311)" style="fill: none; stroke: #b2b2b2; stroke-opacity: 0.35; stroke-width: 0.5; stroke-linecap: square"/>
   </g>
   <g id="line2d_4">
    <path d="M 8.64 25.44 
L 279.36 25.44 
" clip-path="url(#p0e3b999311)" style="fill: none; stroke: #b2b2b2; stroke-opacity: 0.35; stroke-width: 0.5; stroke-linecap: square"/>
   </g>
   <g id="line2d_5">
    <path d="M 8.64 59.57856 
L 10.155303 58.86648 
L 11.670605 61.38456 
L 13.185908 61.07496 
L 14.70121 61.83864 
L 16.216513 66.29688 
L 17.731815 67.97904 
L 19.247118 68.69112 
L 20.76242 73.9956 
L 22.277723 70.45584 
L 23.793025 70.87896 
L 25.308328 68.91816 
L 26.82363 68.3196 
L 28.338933 69.47544 
L 31.369538 62.39592 
L 32.88484 62.81904 
L 34.400143 64.22256 
L 35.915445 64.05744 
L 37.430748 62.9532 
L 38.94605 66.14208 
L 40.461353 63.91296 
L 41.976655 66.17304 
L 43.491958 74.6148 
L 45.00726 77.78304 
L 46.522563 72.66432 
L 48.037865 69.69216 
L 49.553168 71.09568 
L 52.583773 76.06992 
L 54.099075 76.76136 
L 55.614378 75.25464 
L 57.12968 75.24432 
L 58.644983 74.63544 
L 60.160285 75.73968 
L 61.675588 77.31864 
L 63.19089 74.202 
L 64.706193 73.64472 
L 66.221495 73.48992 
L 67.736798 71.83872 
L 69.2521 72.17928 
L 70.767403 73.38672 
L 72.282705 73.43832 
L 73.798008 76.15248 
L 75.31331 75.3372 
L 76.828613 75.58488 
L 78.343915 75.35784 
L 79.859218 81.168 
L 81.37452 84.01632 
L 82.889823 82.06584 
L 84.405125 84.19176 
L 85.920428 82.27224 
L 87.43573 83.29392 
L 88.951033 81.62208 
L 90.466335 80.72424 
L 91.981638 84.33624 
L 93.49694 84.64584 
L 95.012243 86.844 
L 96.527545 88.52616 
L 98.042848 88.36104 
L 99.55815 88.93896 
L 101.073453 90.79656 
L 102.588756 88.09272 
L 104.104058 89.22792 
L 105.619361 90.00192 
L 107.134663 91.39512 
L 108.649966 91.63248 
L 110.165268 90.75528 
L 111.680571 88.7016 
L 113.195873 88.52616 
L 114.711176 87.45288 
L 116.226478 88.0308 
L 117.741781 88.94928 
L 120.772386 89.7336 
L 122.287688 91.86984 
L 123.802991 88.60872 
L 125.318293 86.87496 
L 128.348898 90.11544 
L 129.864201 90.38376 
L 131.379503 90.53856 
L 132.894806 90.08448 
L 134.410108 88.79448 
L 135.925411 89.20728 
L 137.440713 89.22792 
L 138.956016 90.31152 
L 140.471318 90.10512 
L 141.986621 91.09584 
L 143.501923 91.61184 
L 145.017226 91.31256 
L 146.532528 92.87088 
L 148.047831 93.8616 
L 149.563133 92.02464 
L 151.078436 92.13816 
L 152.593738 92.07624 
L 154.109041 92.14848 
L 155.624343 92.64384 
L 157.139646 93.01536 
L 158.654948 93.69648 
L 161.685553 92.44776 
L 163.200856 92.30328 
L 164.716158 92.87088 
L 166.231461 92.38584 
L 167.746763 92.47872 
L 169.262066 91.88016 
L 170.777368 90.42504 
L 172.292671 90.08448 
L 173.807973 89.92968 
L 175.323276 88.76352 
L 176.838578 87.94824 
L 178.353881 89.2692 
L 179.869183 88.72224 
L 181.384486 89.39304 
L 182.899788 89.40336 
L 184.415091 88.41264 
L 185.930393 88.4952 
L 187.445696 86.86464 
L 188.960998 86.42088 
L 190.476301 87.62832 
L 191.991603 86.93688 
L 193.506906 87.23616 
L 196.537511 90.0432 
L 198.052814 92.12784 
L 199.568116 91.16808 
L 202.598721 91.73568 
L 204.114024 91.78728 
L 205.629326 94.0164 
L 207.144629 92.5716 
L 208.659931 91.76664 
L 210.175234 92.33424 
L 211.690536 94.36728 
L 213.205839 94.46016 
L 214.721141 97.71096 
L 216.236444 98.48496 
L 217.751746 97.85544 
L 220.235194 100.16712 
L 221.749724 102.23112 
L 223.258538 100.54896 
L 224.808478 100.70376 
L 226.311276 100.68312 
L 229.347388 101.28168 
L 230.857236 101.71512 
L 232.372083 101.84928 
L 233.869163 101.034 
L 235.304509 100.54896 
L 236.917008 101.04432 
L 238.241968 100.81728 
L 239.94521 101.034 
L 241.458671 101.4984 
L 246.003772 101.06496 
L 247.523635 102.09696 
L 248.910926 102.05568 
L 250.548785 101.4984 
L 252.057336 100.60056 
L 253.569762 100.80696 
L 255.06721 101.45712 
L 256.61694 100.55928 
L 258.116599 101.10624 
L 261.142241 100.74504 
L 262.660805 100.21872 
L 264.175389 100.53864 
L 265.679063 101.07528 
L 267.20908 101.38488 
L 268.728925 101.26104 
L 270.234494 100.78632 
L 273.270466 100.99272 
L 274.782839 100.38384 
L 277.840418 100.60056 
L 279.36 99.76464 
L 279.36 99.76464 
" clip-path="url(#p0e3b999311)" style="fill: none; stroke: #bebebe; stroke-width: 0.5; stroke-linecap: round"/>
   </g>
   <g id="line2d_6">
    <path d="M 8.64 51.4464 
L 10.155303 51.46704 
L 11.670605 53.2524 
L 13.185908 53.08728 
L 14.70121 53.5104 
L 16.216513 57.26688 
L 17.731815 57.76224 
L 19.247118 58.02024 
L 20.76242 62.26176 
L 22.277723 59.68176 
L 23.793025 59.9604 
L 25.308328 58.12344 
L 26.82363 57.02952 
L 28.338933 58.09248 
L 29.854235 55.13064 
L 31.369538 53.046 
L 32.88484 52.5816 
L 34.400143 52.9944 
L 35.915445 52.5816 
L 37.430748 50.0016 
L 38.94605 53.48976 
L 40.461353 52.40616 
L 41.976655 54.75912 
L 43.491958 62.67456 
L 45.00726 63.95424 
L 46.522563 57.86544 
L 48.037865 56.57544 
L 49.553168 58.31952 
L 51.06847 60.4764 
L 52.583773 61.85928 
L 54.099075 62.73648 
L 55.614378 61.8696 
L 57.12968 60.45576 
L 58.644983 60.54864 
L 60.160285 62.04504 
L 61.675588 63.16992 
L 63.19089 62.36496 
L 64.706193 61.21944 
L 66.221495 60.9408 
L 67.736798 57.83448 
L 69.2521 58.40208 
L 70.767403 60.49704 
L 72.282705 61.75608 
L 73.798008 63.1596 
L 75.31331 62.49912 
L 76.828613 62.1276 
L 78.343915 61.56 
L 81.37452 70.66224 
L 82.889823 68.72208 
L 84.405125 70.4868 
L 85.920428 68.61888 
L 87.43573 69.11424 
L 88.951033 66.5136 
L 90.466335 66.68904 
L 91.981638 68.8872 
L 93.49694 68.9904 
L 95.012243 71.5704 
L 96.527545 73.48992 
L 98.042848 72.54048 
L 99.55815 73.56216 
L 101.073453 74.74896 
L 102.588756 73.3248 
L 104.104058 74.80056 
L 105.619361 77.556 
L 107.134663 78.55704 
L 108.649966 78.50544 
L 110.165268 78.04104 
L 111.680571 75.76032 
L 113.195873 75.73968 
L 114.711176 74.65608 
L 116.226478 74.83152 
L 117.741781 74.57352 
L 119.257083 75.20304 
L 120.772386 75.17208 
L 122.287688 78.05136 
L 125.318293 72.16896 
L 126.833596 73.08744 
L 128.348898 74.72832 
L 131.379503 74.28456 
L 132.894806 73.21128 
L 134.410108 70.2804 
L 135.925411 70.2288 
L 137.440713 71.56008 
L 138.956016 73.79952 
L 140.471318 73.35576 
L 141.986621 74.0988 
L 143.501923 75.5952 
L 145.017226 75.5952 
L 146.532528 77.61792 
L 148.047831 77.63856 
L 149.563133 75.40944 
L 151.078436 75.40944 
L 152.593738 75.04824 
L 154.109041 74.98632 
L 155.624343 75.58488 
L 157.139646 75.87384 
L 158.654948 76.49304 
L 161.685553 75.82224 
L 163.200856 75.84288 
L 164.716158 76.03896 
L 166.231461 75.51264 
L 167.746763 75.56424 
L 169.262066 75.05856 
L 170.777368 73.26288 
L 172.292671 73.20096 
L 173.807973 73.00488 
L 175.323276 71.68392 
L 176.838578 70.6932 
L 178.353881 72.62304 
L 179.869183 73.52088 
L 181.384486 73.83048 
L 182.899788 73.8408 
L 184.415091 73.29384 
L 185.930393 73.72728 
L 187.445696 70.32168 
L 188.960998 69.77472 
L 190.476301 70.34232 
L 191.991603 70.67256 
L 193.506906 70.51776 
L 195.022208 70.848 
L 196.537511 72.31344 
L 198.052814 76.01832 
L 199.568116 75.41976 
L 201.083419 75.83256 
L 204.114024 75.82224 
L 205.629326 77.82432 
L 207.144629 76.14216 
L 208.659931 74.75928 
L 210.175234 74.96568 
L 211.690536 77.75208 
L 213.205839 79.48584 
L 214.721141 83.31456 
L 216.236444 85.90488 
L 217.751746 84.79032 
L 219.031002 85.84296 
L 221.749724 91.41576 
L 223.258538 88.7532 
L 226.311276 88.55712 
L 227.835225 88.96992 
L 230.857236 90.456 
L 232.372083 90.56952 
L 233.869163 89.15568 
L 235.304509 88.9596 
L 236.917008 90.6624 
L 238.241968 89.94 
L 239.94521 90.00192 
L 242.965117 90.62112 
L 246.003772 90.3528 
L 247.523635 92.004 
L 248.910926 92.13816 
L 250.548785 91.25064 
L 252.057336 89.166 
L 253.569762 89.56848 
L 255.06721 90.93072 
L 256.61694 89.41368 
L 258.116599 90.37344 
L 259.635427 89.79552 
L 261.142241 90.23928 
L 262.660805 88.0824 
L 264.175389 88.7532 
L 265.679063 90.16704 
L 267.20908 90.67272 
L 268.728925 90.18768 
L 270.234494 89.2692 
L 271.7492 89.54784 
L 273.270466 89.49624 
L 274.782839 88.31976 
L 276.296125 88.45392 
L 277.840418 88.46424 
L 279.36 86.38992 
L 279.36 86.38992 
" clip-path="url(#p0e3b999311)" style="fill: none; stroke: #4a8dff; stroke-width: 0.6"/>
   </g>
   <g id="line2d_7">
    <path d="M 8.64 56.04912 
L 10.155303 55.33704 
L 11.670605 56.87472 
L 13.185908 56.8128 
L 14.70121 57.24624 
L 16.216513 59.93976 
L 17.731815 60.64152 
L 19.247118 59.29992 
L 20.76242 63.80976 
L 22.277723 63.03576 
L 23.793025 63.09768 
L 25.308328 60.51768 
L 26.82363 58.27824 
L 28.338933 58.5672 
L 29.854235 53.93352 
L 31.369538 51.74568 
L 32.88484 50.04288 
L 34.400143 49.90872 
L 35.915445 48.74256 
L 37.430748 47.43192 
L 38.94605 50.80656 
L 40.461353 48.90768 
L 41.976655 50.6208 
L 43.491958 59.42376 
L 45.00726 61.85928 
L 46.522563 57.35976 
L 48.037865 57.3288 
L 49.553168 59.46504 
L 52.583773 64.72824 
L 54.099075 66.42072 
L 55.614378 65.688 
L 57.12968 64.17096 
L 58.644983 62.10696 
L 60.160285 64.30512 
L 61.675588 65.20296 
L 63.19089 62.68488 
L 64.706193 61.70448 
L 66.221495 61.06464 
L 67.736798 58.1028 
L 69.2521 58.40208 
L 70.767403 59.68176 
L 72.282705 62.6952 
L 73.798008 64.56312 
L 75.31331 63.18024 
L 76.828613 62.72616 
L 78.343915 62.06568 
L 79.859218 66.33816 
L 81.37452 71.40528 
L 82.889823 69.08328 
L 84.405125 71.7252 
L 85.920428 69.57864 
L 87.43573 70.72416 
L 88.951033 68.2164 
L 90.466335 66.978 
L 91.981638 70.03272 
L 93.49694 71.5188 
L 95.012243 73.3764 
L 96.527545 78.846 
L 98.042848 77.75208 
L 99.55815 78.88728 
L 101.073453 81.34344 
L 102.588756 80.53848 
L 104.104058 82.0452 
L 105.619361 86.92656 
L 107.134663 88.58808 
L 108.649966 88.96992 
L 110.165268 86.7924 
L 111.680571 85.296 
L 113.195873 86.24544 
L 114.711176 82.96368 
L 116.226478 82.13808 
L 117.741781 82.47864 
L 119.257083 82.58184 
L 120.772386 83.03592 
L 122.287688 87.3084 
L 123.802991 82.06584 
L 125.318293 79.71288 
L 126.833596 81.24024 
L 128.348898 84.17112 
L 129.864201 84.24336 
L 131.379503 83.29392 
L 132.894806 82.8192 
L 134.410108 80.64168 
L 135.925411 81.38472 
L 137.440713 80.87904 
L 138.956016 83.13912 
L 140.471318 83.19072 
L 141.986621 85.296 
L 143.501923 87.17424 
L 145.017226 85.71912 
L 146.532528 87.53544 
L 148.047831 88.17528 
L 149.563133 85.41984 
L 152.593738 84.9348 
L 154.109041 85.01736 
L 155.624343 86.14224 
L 157.139646 85.90488 
L 158.654948 86.328 
L 160.170251 86.24544 
L 161.685553 85.72944 
L 163.200856 85.7088 
L 164.716158 86.40024 
L 166.231461 85.09992 
L 167.746763 86.02872 
L 170.777368 83.53128 
L 173.807973 82.03488 
L 175.323276 79.39296 
L 176.838578 79.66128 
L 178.353881 82.15872 
L 179.869183 82.43736 
L 181.384486 82.93272 
L 182.899788 83.00496 
L 185.930393 82.28256 
L 187.445696 78.01008 
L 188.960998 76.19376 
L 190.476301 77.66952 
L 191.991603 77.74176 
L 193.506906 78.1752 
L 195.022208 79.5684 
L 196.537511 80.8068 
L 198.052814 85.20312 
L 199.568116 84.12984 
L 201.083419 84.03696 
L 202.598721 84.06792 
L 204.114024 84.3156 
L 205.629326 87.02976 
L 207.144629 85.21344 
L 208.659931 84.28464 
L 210.175234 84.32592 
L 211.690536 89.08344 
L 213.205839 89.5272 
L 214.721141 95.14128 
L 216.236444 96.98856 
L 217.751746 95.08968 
L 219.031002 97.71096 
L 220.235194 99.80592 
L 221.749724 101.79768 
L 223.258538 100.03296 
L 224.808478 100.518 
L 226.311276 99.98136 
L 227.835225 100.49736 
L 232.372083 101.26104 
L 233.869163 100.63152 
L 235.304509 100.38384 
L 236.917008 100.84824 
L 238.241968 100.65216 
L 239.94521 101.034 
L 241.458671 101.19912 
L 246.003772 100.91016 
L 247.523635 101.7564 
L 248.910926 101.84928 
L 250.548785 101.56032 
L 252.057336 100.85856 
L 255.06721 101.4468 
L 256.61694 101.02368 
L 258.116599 101.30232 
L 259.635427 100.81728 
L 261.142241 100.79664 
L 262.660805 99.3312 
L 264.175389 99.92976 
L 265.679063 100.78632 
L 267.20908 101.17848 
L 268.728925 101.1372 
L 270.234494 100.21872 
L 273.270466 100.4664 
L 274.782839 99.88848 
L 276.296125 99.94008 
L 277.840418 99.81624 
L 279.36 98.93904 
L 279.36 98.93904 
" clip-path="url(#p0e3b999311)" style="fill: none; stroke: #f5841e; stroke-width: 0.6"/>
   </g>
  </g>
 </g>
 <defs>
  <clipPath id="p0e3b999311">
   <rect x="8.64" y="4.8" width="270.72" height="103.2"/>
  </clipPath>
 </defs>
</svg>
