<?xml version="1.0" encoding="utf-8" standalone="no"?>
<!DOCTYPE svg PUBLIC "-//W3C//DTD SVG 1.1//EN"
  "http://www.w3.org/Graphics/SVG/1.1/DTD/svg11.dtd">
<svg xmlns:xlink="http://www.w3.org/1999/xlink" width="288pt" height="120pt" viewBox="0 0 288 120" xmlns="http://www.w3.org/2000/svg" version="1.1">
<desc id="nav-meta">{"window":"1m","count":4,"labels":["22.02","04.03","13.03","23.03"],"tick_utc":["2026-02-22T03:28:03Z","2026-03-04T03:14:13Z","2026-03-13T03:16:57Z","2026-03-23T03:35:18Z"],"w":720,"h":300}</desc>

 <metadata>
  <rdf:RDF xmlns:dc="http://purl.org/dc/elements/1.1/" xmlns:cc="http://creativecommons.org/ns#" xmlns:rdf="http://www.w3.org/1999/02/22-rdf-syntax-ns#">
   <cc:Work>
    <dc:type rdf:resource="http://purl.org/dc/dcmitype/StillImage"/>
    <dc:date>2026-03-23T07:47:05.793715</dc:date>
    <dc:format>image/svg+xml</dc:format>
    <dc:creator>
     <cc:Agent>
      <dc:title>Matplotlib v3.10.8, https://matplotlib.org/</dc:title>
     </cc:Agent>
    </dc:creator>
   </cc:Work>
  </rdf:RDF>
 </metadata>
 <defs>
  <style type="text/css">*{stroke-linejoin: round; stroke-linecap: butt}</style>
 </defs>
 <g id="figure_1">
  <g id="patch_1">
   <path d="M 0 120 
L 288 120 
L 288 0 
L 0 0 
L 0 120 
z
" style="fill: none; opacity: 0"/>
  </g>
  <g id="axes_1">
   <g id="patch_2">
    <path d="M 8.64 108 
L 279.36 108 
L 279.36 4.8 
L 8.64 4.8 
L 8.64 108 
z
" style="fill: none"/>
   </g>
   <g id="matplotlib.axis_1"/>
   <g id="matplotlib.axis_2"/>
   <g id="line2d_1">
    <path d="M 8.64 87.36 
L 279.36 87.36 
" clip-path="url(#p732f048955)" style="fill: none; stroke: #b2b2b2; stroke-opacity: 0.35; stroke-width: 0.5; stroke-linecap: square"/>
   </g>
   <g id="line2d_2">
    <path d="M 8.64 66.72 
L 279.36 66.72 
" clip-path="url(#p732f048955)" style="fill: none; stroke: #b2b2b2; stroke-opacity: 0.35; stroke-width: 0.5; stroke-linecap: square"/>
   </g>
   <g id="line2d_3">
    <path d="M 8.64 46.08 
L 279.36 46.08 
" clip-path="url(#p732f048955)" style="fill: none; stroke: #b2b2b2; stroke-opacity: 0.35; stroke-width: 0.5; stroke-linecap: square"/>
   </g>
   <g id="line2d_4">
    <path d="M 8.64 25.44 
L 279.36 25.44 
" clip-path="url(#p732f048955)" style="fill: none; stroke: #b2b2b2; stroke-opacity: 0.35; stroke-width: 0.5; stroke-linecap: square"/>
   </g>
   <g id="line2d_5">
    <path d="M 8.64 101.06496 
L 18.001639 102.09696 
L 26.5467 102.05568 
L 36.635147 101.4984 
L 45.927108 100.60056 
L 55.242944 100.80696 
L 64.466524 101.45712 
L 74.012133 100.55928 
L 83.249325 101.10624 
L 92.604591 100.8792 
L 101.885857 100.74504 
L 111.239503 100.21872 
L 120.568625 100.53864 
L 129.830555 101.07528 
L 139.254742 101.38488 
L 148.616273 101.26104 
L 157.88987 100.78632 
L 167.219749 100.91016 
L 176.590031 100.99272 
L 185.905542 100.38384 
L 195.226671 100.50768 
L 204.738792 100.60056 
L 214.098703 99.76464 
L 223.268917 99.49632 
L 232.673659 99.40344 
L 242.009804 100.09488 
L 251.252505 100.3632 
L 260.531395 100.19808 
L 270.004518 100.47672 
L 279.36 100.79664 
" clip-path="url(#p732f048955)" style="fill: none; stroke: #bebebe; stroke-width: 0.5; stroke-linecap: round"/>
   </g>
   <g id="line2d_6">
    <path d="M 8.64 90.3528 
L 18.001639 92.004 
L 26.5467 92.13816 
L 36.635147 91.25064 
L 45.927108 89.166 
L 55.242944 89.56848 
L 64.466524 90.93072 
L 74.012133 89.41368 
L 83.249325 90.37344 
L 92.604591 89.79552 
L 101.885857 90.23928 
L 111.239503 88.0824 
L 120.568625 88.7532 
L 129.830555 90.16704 
L 139.254742 90.67272 
L 148.616273 90.18768 
L 157.88987 89.2692 
L 167.219749 89.54784 
L 176.590031 89.49624 
L 185.905542 88.31976 
L 195.226671 88.45392 
L 204.738792 88.46424 
L 214.098703 86.38992 
L 223.268917 84.80064 
L 232.673659 84.8316 
L 242.009804 86.586 
L 251.252505 87.74184 
L 260.531395 87.618 
L 270.004518 88.19592 
L 279.36 89.08344 
" clip-path="url(#p732f048955)" style="fill: none; stroke: #4a8dff; stroke-width: 0.6"/>
   </g>
   <g id="line2d_7">
    <path d="M 8.64 100.91016 
L 18.001639 101.7564 
L 26.5467 101.84928 
L 36.635147 101.56032 
L 45.927108 100.85856 
L 55.242944 101.12688 
L 64.466524 101.4468 
L 74.012133 101.02368 
L 83.249325 101.30232 
L 92.604591 100.81728 
L 101.885857 100.79664 
L 111.239503 99.3312 
L 120.568625 99.92976 
L 129.830555 100.78632 
L 139.254742 101.17848 
L 148.616273 101.1372 
L 157.88987 100.21872 
L 167.219749 100.37352 
L 176.590031 100.4664 
L 185.905542 99.88848 
L 195.226671 99.94008 
L 204.738792 99.81624 
L 214.098703 98.93904 
L 223.268917 98.3508 
L 232.673659 98.52624 
L 242.009804 99.78528 
L 251.252505 100.12584 
L 260.531395 100.03296 
L 270.004518 100.45608 
L 279.36 100.83792 
" clip-path="url(#p732f048955)" style="fill: none; stroke: #f5841e; stroke-width: 0.6"/>
   </g>
  </g>
 </g>
 <defs>
  <clipPath id="p732f048955">
   <rect x="8.64" y="4.8" width="270.72" height="103.2"/>
  </clipPath>
 </defs>
</svg>
