<?xml version="1.0" encoding="utf-8" standalone="no"?>
<!DOCTYPE svg PUBLIC "-//W3C//DTD SVG 1.1//EN"
  "http://www.w3.org/Graphics/SVG/1.1/DTD/svg11.dtd">
<svg xmlns:xlink="http://www.w3.org/1999/xlink" width="288pt" height="120pt" viewBox="0 0 288 120" xmlns="http://www.w3.org/2000/svg" version="1.1">
<desc id="nav-meta">{"window":"1m","count":4,"labels":["09.06","19.06","29.06","09.07"],"tick_utc":["2026-06-09T04:50:50Z","2026-06-19T05:57:01Z","2026-06-29T05:17:50Z","2026-07-09T04:41:51Z"],"w":720,"h":300}</desc>

 <metadata>
  <rdf:RDF xmlns:dc="http://purl.org/dc/elements/1.1/" xmlns:cc="http://creativecommons.org/ns#" xmlns:rdf="http://www.w3.org/1999/02/22-rdf-syntax-ns#">
   <cc:Work>
    <dc:type rdf:resource="http://purl.org/dc/dcmitype/StillImage"/>
    <dc:date>2026-07-09T04:41:53.259015</dc:date>
    <dc:format>image/svg+xml</dc:format>
    <dc:creator>
     <cc:Agent>
      <dc:title>Matplotlib v3.11.0, https://matplotlib.org/</dc:title>
     </cc:Agent>
    </dc:creator>
   </cc:Work>
  </rdf:RDF>
 </metadata>
 <defs>
  <style type="text/css">*{stroke-linejoin: round; stroke-linecap: butt}</style>
 </defs>
 <g id="figure_1">
  <g id="patch_1">
   <path d="M 0 120 
L 288 120 
L 288 0 
L 0 0 
L 0 120 
z
" style="fill: none; opacity: 0"/>
  </g>
  <g id="axes_1">
   <g id="patch_2">
    <path d="M 8.64 108 
L 279.36 108 
L 279.36 4.8 
L 8.64 4.8 
L 8.64 108 
z
" style="fill: none"/>
   </g>
   <g id="matplotlib.axis_1"/>
   <g id="matplotlib.axis_2"/>
   <g id="line2d_1">
    <path d="M 8.64 87.36 
L 279.36 87.36 
" clip-path="url(#p94fb95a3c5)" style="fill: none; stroke: #b2b2b2; stroke-opacity: 0.35; stroke-width: 0.5; stroke-linecap: square"/>
   </g>
   <g id="line2d_2">
    <path d="M 8.64 66.72 
L 279.36 66.72 
" clip-path="url(#p94fb95a3c5)" style="fill: none; stroke: #b2b2b2; stroke-opacity: 0.35; stroke-width: 0.5; stroke-linecap: square"/>
   </g>
   <g id="line2d_3">
    <path d="M 8.64 46.08 
L 279.36 46.08 
" clip-path="url(#p94fb95a3c5)" style="fill: none; stroke: #b2b2b2; stroke-opacity: 0.35; stroke-width: 0.5; stroke-linecap: square"/>
   </g>
   <g id="line2d_4">
    <path d="M 8.64 25.44 
L 279.36 25.44 
" clip-path="url(#p94fb95a3c5)" style="fill: none; stroke: #b2b2b2; stroke-opacity: 0.35; stroke-width: 0.5; stroke-linecap: square"/>
   </g>
   <g id="line2d_5">
    <path d="M 8.64 103.43856 
L 17.759479 103.81008 
L 26.83832 103.72752 
L 35.899611 103.50048 
L 44.859465 103.5108 
L 53.950842 103.31472 
L 63.276746 102.95352 
L 72.354125 102.61296 
L 81.092511 102.6336 
L 90.075139 102.9948 
L 99.313604 103.28376 
L 107.978551 103.01544 
L 117.192258 102.69552 
L 126.482329 102.582 
L 134.968639 102.88128 
L 144.026796 103.15992 
L 153.05027 103.36632 
L 162.122425 103.36632 
L 171.037672 102.81936 
L 180.235605 103.0464 
L 189.326773 102.9432 
L 198.177669 102.59232 
L 207.335592 102.40656 
L 216.203411 102.02472 
L 225.13109 101.68416 
L 234.118105 101.3436 
L 243.276132 101.6532 
L 252.389447 101.6532 
L 261.279936 101.63256 
L 270.060526 101.95248 
L 279.36 102.08664 
" clip-path="url(#p94fb95a3c5)" style="fill: none; stroke: #bebebe; stroke-width: 0.5; stroke-linecap: round"/>
   </g>
   <g id="line2d_6">
    <path d="M 8.64 94.46016 
L 17.759479 95.47152 
L 26.83832 95.11032 
L 35.899611 94.82136 
L 44.859465 94.8936 
L 53.950842 94.70784 
L 63.276746 94.04736 
L 72.354125 93.40752 
L 81.092511 92.9844 
L 90.075139 93.93384 
L 99.313604 94.4292 
L 107.978551 94.19184 
L 117.192258 93.87192 
L 126.482329 93.81 
L 134.968639 94.03704 
L 144.026796 94.83168 
L 153.05027 95.48184 
L 162.122425 96.63768 
L 171.037672 96.14232 
L 180.235605 96.30744 
L 189.326773 96.29712 
L 198.177669 96.04944 
L 207.335592 95.9256 
L 216.203411 95.39928 
L 225.13109 94.31568 
L 234.118105 93.57264 
L 243.276132 93.32496 
L 252.389447 93.22176 
L 261.279936 93.35592 
L 270.060526 93.61392 
L 279.36 93.77904 
" clip-path="url(#p94fb95a3c5)" style="fill: none; stroke: #4a8dff; stroke-width: 0.6"/>
   </g>
   <g id="line2d_7">
    <path d="M 8.64 102.10728 
L 17.759479 102.582 
L 26.83832 102.29304 
L 35.899611 102.08664 
L 44.859465 102.066 
L 53.950842 101.86992 
L 63.276746 101.48808 
L 72.354125 101.40552 
L 81.092511 101.4984 
L 90.075139 101.97312 
L 99.313604 102.26208 
L 107.978551 102.066 
L 117.192258 101.90088 
L 126.482329 101.90088 
L 134.968639 102.0144 
L 144.026796 102.25176 
L 153.05027 102.6336 
L 162.122425 102.88128 
L 171.037672 102.77808 
L 180.235605 102.85032 
L 189.326773 102.93288 
L 198.177669 102.95352 
L 207.335592 103.00512 
L 216.203411 102.69552 
L 225.13109 102.55104 
L 234.118105 102.2724 
L 243.276132 102.21048 
L 252.389447 102.12792 
L 261.279936 102.13824 
L 270.060526 102.25176 
L 279.36 102.36528 
" clip-path="url(#p94fb95a3c5)" style="fill: none; stroke: #f5841e; stroke-width: 0.6"/>
   </g>
  </g>
 </g>
 <defs>
  <clipPath id="p94fb95a3c5">
   <rect x="8.64" y="4.8" width="270.72" height="103.2"/>
  </clipPath>
 </defs>
</svg>
