<?xml version="1.0" encoding="utf-8" standalone="no"?>
<!DOCTYPE svg PUBLIC "-//W3C//DTD SVG 1.1//EN"
  "http://www.w3.org/Graphics/SVG/1.1/DTD/svg11.dtd">
<svg xmlns:xlink="http://www.w3.org/1999/xlink" width="288pt" height="120pt" viewBox="0 0 288 120" xmlns="http://www.w3.org/2000/svg" version="1.1">
<desc id="nav-meta">{"window":"3m","count":4,"labels":["25.04","25.05","23.06","23.07"],"tick_utc":["2026-04-25T03:44:07Z","2026-05-25T05:10:23Z","2026-06-23T04:45:28Z","2026-07-23T03:58:20Z"],"w":720,"h":300}</desc>

 <metadata>
  <rdf:RDF xmlns:dc="http://purl.org/dc/elements/1.1/" xmlns:cc="http://creativecommons.org/ns#" xmlns:rdf="http://www.w3.org/1999/02/22-rdf-syntax-ns#">
   <cc:Work>
    <dc:type rdf:resource="http://purl.org/dc/dcmitype/StillImage"/>
    <dc:date>2026-07-23T09:13:15.031740</dc:date>
    <dc:format>image/svg+xml</dc:format>
    <dc:creator>
     <cc:Agent>
      <dc:title>Matplotlib v3.11.1, https://matplotlib.org/</dc:title>
     </cc:Agent>
    </dc:creator>
   </cc:Work>
  </rdf:RDF>
 </metadata>
 <defs>
  <style type="text/css">*{stroke-linejoin: round; stroke-linecap: butt}</style>
 </defs>
 <g id="figure_1">
  <g id="patch_1">
   <path d="M 0 120 
L 288 120 
L 288 0 
L 0 0 
L 0 120 
z
" style="fill: none; opacity: 0"/>
  </g>
  <g id="axes_1">
   <g id="patch_2">
    <path d="M 8.64 108 
L 279.36 108 
L 279.36 4.8 
L 8.64 4.8 
L 8.64 108 
z
" style="fill: none"/>
   </g>
   <g id="matplotlib.axis_1"/>
   <g id="matplotlib.axis_2"/>
   <g id="line2d_1">
    <path d="M 8.64 87.36 
L 279.36 87.36 
" clip-path="url(#pf0c20db657)" style="fill: none; stroke: #b2b2b2; stroke-opacity: 0.35; stroke-width: 0.5; stroke-linecap: square"/>
   </g>
   <g id="line2d_2">
    <path d="M 8.64 66.72 
L 279.36 66.72 
" clip-path="url(#pf0c20db657)" style="fill: none; stroke: #b2b2b2; stroke-opacity: 0.35; stroke-width: 0.5; stroke-linecap: square"/>
   </g>
   <g id="line2d_3">
    <path d="M 8.64 46.08 
L 279.36 46.08 
" clip-path="url(#pf0c20db657)" style="fill: none; stroke: #b2b2b2; stroke-opacity: 0.35; stroke-width: 0.5; stroke-linecap: square"/>
   </g>
   <g id="line2d_4">
    <path d="M 8.64 25.44 
L 279.36 25.44 
" clip-path="url(#pf0c20db657)" style="fill: none; stroke: #b2b2b2; stroke-opacity: 0.35; stroke-width: 0.5; stroke-linecap: square"/>
   </g>
   <g id="line2d_5">
    <path d="M 8.64 100.81728 
L 11.728772 100.8792 
L 14.803005 100.64184 
L 17.850837 101.1888 
L 20.88399 101.09592 
L 23.930555 101.37456 
L 27.005246 101.21976 
L 29.969086 101.20944 
L 33.07229 101.23008 
L 36.112695 100.92048 
L 39.087166 101.06496 
L 42.182204 100.70376 
L 45.224474 100.55928 
L 48.215313 100.53864 
L 51.267898 99.60984 
L 54.370645 99.72336 
L 57.436113 99.44472 
L 60.435331 99.25896 
L 63.491259 99.32088 
L 66.52934 100.22904 
L 69.585797 100.01232 
L 72.588429 100.43544 
L 75.6753 100.75536 
L 78.746295 101.02368 
L 81.765965 101.02368 
L 84.818303 101.17848 
L 87.877083 100.7244 
L 90.89524 100.75536 
L 93.894915 101.11656 
L 96.984532 100.91016 
L 100.066017 100.89984 
L 103.061398 101.1372 
L 106.134082 101.2404 
L 109.165827 101.6532 
L 112.20954 101.4984 
L 115.207139 101.48808 
L 118.310696 101.32296 
L 121.397144 101.51904 
L 124.408683 101.7048 
L 127.48436 102.54072 
L 130.5154 103.08768 
L 133.506768 103.36632 
L 136.50148 104.22288 
L 139.608311 103.85136 
L 142.663218 103.68624 
L 145.64663 103.43856 
L 148.719632 103.81008 
L 151.77894 103.72752 
L 154.832334 103.50048 
L 157.851546 103.5108 
L 160.915078 103.31472 
L 164.057639 102.95352 
L 167.116454 102.61296 
L 170.061038 102.6336 
L 173.087925 102.9948 
L 176.201022 103.28376 
L 179.120859 103.01544 
L 182.225612 102.69552 
L 185.356099 102.582 
L 188.215741 102.88128 
L 191.268078 103.15992 
L 194.308729 103.36632 
L 197.365784 103.36632 
L 200.369965 102.81936 
L 203.469403 103.0464 
L 206.532865 102.9432 
L 209.515362 102.59232 
L 212.601318 102.40656 
L 215.589517 102.02472 
L 218.597888 101.68416 
L 221.626253 101.3436 
L 224.712244 101.6532 
L 227.783169 101.6532 
L 230.779007 101.63256 
L 233.737813 101.95248 
L 236.871468 102.08664 
L 239.906063 101.9112 
L 242.857723 102.066 
L 245.944665 102.18984 
L 248.992778 102.31368 
L 251.963905 102.45816 
L 255.00614 102.08664 
L 258.055204 102.21048 
L 261.097157 102.4272 
L 264.123586 102.4272 
L 267.210774 102.34464 
L 270.293491 102.25176 
L 273.279508 102.02472 
L 276.323186 102.066 
L 279.36 102.10728 
" clip-path="url(#pf0c20db657)" style="fill: none; stroke: #bebebe; stroke-width: 0.5; stroke-linecap: round"/>
   </g>
   <g id="line2d_6">
    <path d="M 8.64 85.17216 
L 11.728772 85.31664 
L 14.803005 84.11952 
L 17.850837 85.66752 
L 20.88399 85.26504 
L 23.930555 86.26608 
L 27.005246 85.77072 
L 29.969086 85.38888 
L 33.07229 85.3992 
L 36.112695 84.09888 
L 39.087166 84.22272 
L 42.182204 84.34656 
L 45.224474 85.06896 
L 48.215313 85.7604 
L 51.267898 85.0896 
L 54.370645 85.01736 
L 57.436113 84.9348 
L 60.435331 85.296 
L 63.491259 85.35792 
L 66.52934 86.1732 
L 69.585797 85.92552 
L 72.588429 86.55504 
L 75.6753 87.13296 
L 78.746295 88.10304 
L 81.765965 87.9276 
L 84.818303 88.26816 
L 87.877083 87.78312 
L 90.89524 87.95856 
L 93.894915 88.94928 
L 96.984532 88.14432 
L 100.066017 88.33008 
L 103.061398 88.52616 
L 106.134082 88.86672 
L 109.165827 90.22896 
L 112.20954 89.82648 
L 115.207139 89.87808 
L 118.310696 89.46528 
L 121.397144 90.0432 
L 124.408683 89.96064 
L 127.48436 91.99368 
L 130.5154 93.05664 
L 133.506768 93.74808 
L 136.50148 97.02984 
L 139.608311 95.93592 
L 142.663218 95.07936 
L 145.64663 94.46016 
L 148.719632 95.47152 
L 151.77894 95.11032 
L 154.832334 94.82136 
L 157.851546 94.8936 
L 160.915078 94.70784 
L 164.057639 94.04736 
L 167.116454 93.40752 
L 170.061038 92.9844 
L 173.087925 93.93384 
L 176.201022 94.4292 
L 179.120859 94.19184 
L 182.225612 93.87192 
L 185.356099 93.81 
L 188.215741 94.03704 
L 191.268078 94.83168 
L 194.308729 95.48184 
L 197.365784 96.63768 
L 200.369965 96.14232 
L 203.469403 96.30744 
L 206.532865 96.29712 
L 209.515362 96.04944 
L 212.601318 95.9256 
L 215.589517 95.39928 
L 218.597888 94.31568 
L 221.626253 93.57264 
L 224.712244 93.32496 
L 227.783169 93.22176 
L 230.779007 93.35592 
L 233.737813 93.61392 
L 236.871468 93.77904 
L 239.906063 93.26304 
L 242.857723 92.92248 
L 245.944665 92.71608 
L 248.992778 93.15984 
L 251.963905 93.17016 
L 255.00614 91.80792 
L 258.055204 91.14744 
L 261.097157 92.13816 
L 264.123586 92.25168 
L 267.210774 91.9008 
L 270.293491 91.81824 
L 273.279508 91.00296 
L 276.323186 90.98232 
L 279.36 91.10616 
" clip-path="url(#pf0c20db657)" style="fill: none; stroke: #4a8dff; stroke-width: 0.6"/>
   </g>
   <g id="line2d_7">
    <path d="M 8.64 96.1836 
L 11.728772 96.50352 
L 14.803005 94.76976 
L 17.850837 97.19496 
L 20.88399 96.9576 
L 23.930555 97.9896 
L 27.005246 96.89568 
L 29.969086 95.45088 
L 33.07229 95.67792 
L 36.112695 93.43848 
L 39.087166 92.90184 
L 42.182204 92.25168 
L 45.224474 92.87088 
L 48.215313 94.2744 
L 51.267898 93.1392 
L 54.370645 92.97408 
L 57.436113 92.9844 
L 60.435331 92.60256 
L 63.491259 92.53032 
L 66.52934 94.54272 
L 69.585797 92.85024 
L 72.588429 94.82136 
L 75.6753 95.75016 
L 78.746295 96.97824 
L 81.765965 97.08144 
L 84.818303 97.23624 
L 87.877083 95.94624 
L 90.89524 96.30744 
L 93.894915 98.08248 
L 96.984532 97.2672 
L 100.066017 96.61704 
L 103.061398 97.23624 
L 106.134082 98.08248 
L 109.165827 99.18672 
L 112.20954 99.03192 
L 115.207139 99.1248 
L 118.310696 98.74296 
L 121.397144 99.09384 
L 124.408683 100.0536 
L 127.48436 101.23008 
L 130.5154 101.99376 
L 133.506768 102.08664 
L 136.50148 102.8916 
L 139.608311 102.45816 
L 142.663218 102.28272 
L 145.64663 102.10728 
L 148.719632 102.582 
L 151.77894 102.29304 
L 154.832334 102.08664 
L 157.851546 102.066 
L 160.915078 101.86992 
L 164.057639 101.48808 
L 167.116454 101.40552 
L 170.061038 101.4984 
L 173.087925 101.97312 
L 176.201022 102.26208 
L 179.120859 102.066 
L 182.225612 101.90088 
L 185.356099 101.90088 
L 188.215741 102.0144 
L 191.268078 102.25176 
L 194.308729 102.6336 
L 197.365784 102.88128 
L 200.369965 102.77808 
L 203.469403 102.85032 
L 206.532865 102.93288 
L 209.515362 102.95352 
L 212.601318 103.00512 
L 215.589517 102.69552 
L 218.597888 102.55104 
L 221.626253 102.2724 
L 224.712244 102.21048 
L 227.783169 102.12792 
L 230.779007 102.13824 
L 233.737813 102.25176 
L 236.871468 102.36528 
L 239.906063 101.94216 
L 242.857723 101.92152 
L 245.944665 101.9112 
L 248.992778 102.2208 
L 251.963905 102.31368 
L 255.00614 101.79768 
L 258.055204 101.81832 
L 261.097157 102.07632 
L 264.123586 101.97312 
L 267.210774 101.79768 
L 270.293491 101.78736 
L 273.279508 101.57064 
L 276.323186 101.40552 
L 279.36 101.55 
" clip-path="url(#pf0c20db657)" style="fill: none; stroke: #f5841e; stroke-width: 0.6"/>
   </g>
  </g>
 </g>
 <defs>
  <clipPath id="pf0c20db657">
   <rect x="8.64" y="4.8" width="270.72" height="103.2"/>
  </clipPath>
 </defs>
</svg>
