<?xml version="1.0" encoding="utf-8" standalone="no"?>
<!DOCTYPE svg PUBLIC "-//W3C//DTD SVG 1.1//EN"
  "http://www.w3.org/Graphics/SVG/1.1/DTD/svg11.dtd">
<svg xmlns:xlink="http://www.w3.org/1999/xlink" width="288pt" height="120pt" viewBox="0 0 288 120" xmlns="http://www.w3.org/2000/svg" version="1.1">
<desc id="nav-meta">{"window":"1m","count":4,"labels":["30.05","09.06","18.06","28.06"],"tick_utc":["2026-05-30T04:39:03Z","2026-06-09T04:50:50Z","2026-06-18T05:23:06Z","2026-06-28T05:07:25Z"],"w":720,"h":300}</desc>

 <metadata>
  <rdf:RDF xmlns:dc="http://purl.org/dc/elements/1.1/" xmlns:cc="http://creativecommons.org/ns#" xmlns:rdf="http://www.w3.org/1999/02/22-rdf-syntax-ns#">
   <cc:Work>
    <dc:type rdf:resource="http://purl.org/dc/dcmitype/StillImage"/>
    <dc:date>2026-06-28T09:46:25.801879</dc:date>
    <dc:format>image/svg+xml</dc:format>
    <dc:creator>
     <cc:Agent>
      <dc:title>Matplotlib v3.11.0, https://matplotlib.org/</dc:title>
     </cc:Agent>
    </dc:creator>
   </cc:Work>
  </rdf:RDF>
 </metadata>
 <defs>
  <style type="text/css">*{stroke-linejoin: round; stroke-linecap: butt}</style>
 </defs>
 <g id="figure_1">
  <g id="patch_1">
   <path d="M 0 120 
L 288 120 
L 288 0 
L 0 0 
L 0 120 
z
" style="fill: none; opacity: 0"/>
  </g>
  <g id="axes_1">
   <g id="patch_2">
    <path d="M 8.64 108 
L 279.36 108 
L 279.36 4.8 
L 8.64 4.8 
L 8.64 108 
z
" style="fill: none"/>
   </g>
   <g id="matplotlib.axis_1"/>
   <g id="matplotlib.axis_2"/>
   <g id="line2d_1">
    <path d="M 8.64 87.36 
L 279.36 87.36 
" clip-path="url(#p1b9f25ea9a)" style="fill: none; stroke: #b2b2b2; stroke-opacity: 0.35; stroke-width: 0.5; stroke-linecap: square"/>
   </g>
   <g id="line2d_2">
    <path d="M 8.64 66.72 
L 279.36 66.72 
" clip-path="url(#p1b9f25ea9a)" style="fill: none; stroke: #b2b2b2; stroke-opacity: 0.35; stroke-width: 0.5; stroke-linecap: square"/>
   </g>
   <g id="line2d_3">
    <path d="M 8.64 46.08 
L 279.36 46.08 
" clip-path="url(#p1b9f25ea9a)" style="fill: none; stroke: #b2b2b2; stroke-opacity: 0.35; stroke-width: 0.5; stroke-linecap: square"/>
   </g>
   <g id="line2d_4">
    <path d="M 8.64 25.44 
L 279.36 25.44 
" clip-path="url(#p1b9f25ea9a)" style="fill: none; stroke: #b2b2b2; stroke-opacity: 0.35; stroke-width: 0.5; stroke-linecap: square"/>
   </g>
   <g id="line2d_5">
    <path d="M 8.64 101.48808 
L 18.159299 101.32296 
L 27.626124 101.51904 
L 36.863183 101.7048 
L 46.296968 102.54072 
L 55.593843 103.08768 
L 64.769034 103.36632 
L 73.954482 104.22288 
L 83.483822 103.85136 
L 92.853903 103.68624 
L 102.004692 103.43856 
L 111.430271 103.81008 
L 120.813849 103.72752 
L 130.179287 103.50048 
L 139.439884 103.5108 
L 148.836418 103.31472 
L 158.475351 102.95352 
L 167.857417 102.61296 
L 176.889112 102.6336 
L 186.173247 102.9948 
L 195.721807 103.28376 
L 204.677597 103.01544 
L 214.200567 102.69552 
L 223.802465 102.582 
L 232.573622 102.88128 
L 241.935821 103.15992 
L 251.262174 103.36632 
L 260.638841 103.36632 
L 269.853334 102.81936 
L 279.36 103.0464 
" clip-path="url(#p1b9f25ea9a)" style="fill: none; stroke: #bebebe; stroke-width: 0.5; stroke-linecap: round"/>
   </g>
   <g id="line2d_6">
    <path d="M 8.64 89.87808 
L 18.159299 89.46528 
L 27.626124 90.0432 
L 36.863183 89.96064 
L 46.296968 91.99368 
L 55.593843 93.05664 
L 64.769034 93.74808 
L 73.954482 97.02984 
L 83.483822 95.93592 
L 92.853903 95.07936 
L 102.004692 94.46016 
L 111.430271 95.47152 
L 120.813849 95.11032 
L 130.179287 94.82136 
L 139.439884 94.8936 
L 148.836418 94.70784 
L 158.475351 94.04736 
L 167.857417 93.40752 
L 176.889112 92.9844 
L 186.173247 93.93384 
L 195.721807 94.4292 
L 204.677597 94.19184 
L 214.200567 93.87192 
L 223.802465 93.81 
L 232.573622 94.03704 
L 241.935821 94.83168 
L 251.262174 95.48184 
L 260.638841 96.63768 
L 269.853334 96.14232 
L 279.36 96.30744 
" clip-path="url(#p1b9f25ea9a)" style="fill: none; stroke: #4a8dff; stroke-width: 0.6"/>
   </g>
   <g id="line2d_7">
    <path d="M 8.64 99.1248 
L 18.159299 98.74296 
L 27.626124 99.09384 
L 36.863183 100.0536 
L 46.296968 101.23008 
L 55.593843 101.99376 
L 64.769034 102.08664 
L 73.954482 102.8916 
L 83.483822 102.45816 
L 92.853903 102.28272 
L 102.004692 102.10728 
L 111.430271 102.582 
L 120.813849 102.29304 
L 130.179287 102.08664 
L 139.439884 102.066 
L 148.836418 101.86992 
L 158.475351 101.48808 
L 167.857417 101.40552 
L 176.889112 101.4984 
L 186.173247 101.97312 
L 195.721807 102.26208 
L 204.677597 102.066 
L 214.200567 101.90088 
L 223.802465 101.90088 
L 232.573622 102.0144 
L 241.935821 102.25176 
L 251.262174 102.6336 
L 260.638841 102.88128 
L 269.853334 102.77808 
L 279.36 102.85032 
" clip-path="url(#p1b9f25ea9a)" style="fill: none; stroke: #f5841e; stroke-width: 0.6"/>
   </g>
  </g>
 </g>
 <defs>
  <clipPath id="p1b9f25ea9a">
   <rect x="8.64" y="4.8" width="270.72" height="103.2"/>
  </clipPath>
 </defs>
</svg>
