<?xml version="1.0" encoding="utf-8" standalone="no"?>
<!DOCTYPE svg PUBLIC "-//W3C//DTD SVG 1.1//EN"
  "http://www.w3.org/Graphics/SVG/1.1/DTD/svg11.dtd">
<svg xmlns:xlink="http://www.w3.org/1999/xlink" width="288pt" height="120pt" viewBox="0 0 288 120" xmlns="http://www.w3.org/2000/svg" version="1.1">
<desc id="nav-meta">{"window":"3m","count":4,"labels":["04.12","03.01","02.02","04.03"],"tick_utc":["2025-12-04T12:00:00Z","2026-01-03T12:00:00Z","2026-02-02T12:00:00Z","2026-03-04T03:14:13Z"],"w":720,"h":300}</desc>

 <metadata>
  <rdf:RDF xmlns:dc="http://purl.org/dc/elements/1.1/" xmlns:cc="http://creativecommons.org/ns#" xmlns:rdf="http://www.w3.org/1999/02/22-rdf-syntax-ns#">
   <cc:Work>
    <dc:type rdf:resource="http://purl.org/dc/dcmitype/StillImage"/>
    <dc:date>2026-03-04T07:26:13.956108</dc:date>
    <dc:format>image/svg+xml</dc:format>
    <dc:creator>
     <cc:Agent>
      <dc:title>Matplotlib v3.10.8, https://matplotlib.org/</dc:title>
     </cc:Agent>
    </dc:creator>
   </cc:Work>
  </rdf:RDF>
 </metadata>
 <defs>
  <style type="text/css">*{stroke-linejoin: round; stroke-linecap: butt}</style>
 </defs>
 <g id="figure_1">
  <g id="patch_1">
   <path d="M 0 120 
L 288 120 
L 288 0 
L 0 0 
L 0 120 
z
" style="fill: none; opacity: 0"/>
  </g>
  <g id="axes_1">
   <g id="patch_2">
    <path d="M 8.64 108 
L 279.36 108 
L 279.36 4.8 
L 8.64 4.8 
L 8.64 108 
z
" style="fill: none"/>
   </g>
   <g id="matplotlib.axis_1"/>
   <g id="matplotlib.axis_2"/>
   <g id="line2d_1">
    <path d="M 8.64 87.36 
L 279.36 87.36 
" clip-path="url(#pa21cc4fead)" style="fill: none; stroke: #b2b2b2; stroke-opacity: 0.35; stroke-width: 0.5; stroke-linecap: square"/>
   </g>
   <g id="line2d_2">
    <path d="M 8.64 66.72 
L 279.36 66.72 
" clip-path="url(#pa21cc4fead)" style="fill: none; stroke: #b2b2b2; stroke-opacity: 0.35; stroke-width: 0.5; stroke-linecap: square"/>
   </g>
   <g id="line2d_3">
    <path d="M 8.64 46.08 
L 279.36 46.08 
" clip-path="url(#pa21cc4fead)" style="fill: none; stroke: #b2b2b2; stroke-opacity: 0.35; stroke-width: 0.5; stroke-linecap: square"/>
   </g>
   <g id="line2d_4">
    <path d="M 8.64 25.44 
L 279.36 25.44 
" clip-path="url(#pa21cc4fead)" style="fill: none; stroke: #b2b2b2; stroke-opacity: 0.35; stroke-width: 0.5; stroke-linecap: square"/>
   </g>
   <g id="line2d_5">
    <path d="M 8.64 86.87496 
L 11.660253 88.52616 
L 14.680506 90.11544 
L 17.700759 90.38376 
L 20.721012 90.53856 
L 23.741265 90.08448 
L 26.761518 88.79448 
L 29.781772 89.20728 
L 32.802025 89.22792 
L 35.822278 90.31152 
L 38.842531 90.10512 
L 41.862784 91.09584 
L 44.883037 91.61184 
L 47.90329 91.31256 
L 50.923543 92.87088 
L 53.943796 93.8616 
L 56.964049 92.02464 
L 59.984302 92.13816 
L 63.004555 92.07624 
L 66.024808 92.14848 
L 69.045062 92.64384 
L 72.065315 93.01536 
L 75.085568 93.69648 
L 78.105821 93.11856 
L 81.126074 92.44776 
L 84.146327 92.30328 
L 87.16658 92.87088 
L 90.186833 92.38584 
L 93.207086 92.47872 
L 96.227339 91.88016 
L 99.247592 90.42504 
L 102.267845 90.08448 
L 105.288098 89.92968 
L 108.308352 88.76352 
L 111.328605 87.94824 
L 114.348858 89.2692 
L 117.369111 88.72224 
L 120.389364 89.39304 
L 123.409617 89.40336 
L 126.42987 88.41264 
L 129.450123 88.4952 
L 132.470376 86.86464 
L 135.490629 86.42088 
L 138.510882 87.62832 
L 141.531135 86.93688 
L 144.551388 87.23616 
L 147.571642 88.63968 
L 150.591895 90.0432 
L 153.612148 92.12784 
L 156.632401 91.16808 
L 159.652654 91.46736 
L 162.672907 91.73568 
L 165.69316 91.78728 
L 168.713413 94.0164 
L 171.733666 92.5716 
L 174.753919 91.76664 
L 177.774172 92.33424 
L 180.794425 94.36728 
L 183.814678 94.46016 
L 186.834932 97.71096 
L 189.855185 98.48496 
L 192.875438 97.85544 
L 195.425209 99.10416 
L 197.825367 100.16712 
L 200.844082 102.23112 
L 203.851401 100.54896 
L 206.940693 100.70376 
L 209.936022 100.68312 
L 212.973509 100.95144 
L 215.987505 101.28168 
L 218.996886 101.71512 
L 222.016231 101.84928 
L 225.000164 101.034 
L 227.86105 100.54896 
L 231.075032 101.04432 
L 233.715901 100.81728 
L 237.110749 101.034 
L 240.127332 101.4984 
L 243.129932 101.33328 
L 246.131728 101.1372 
L 249.186483 101.06496 
L 252.215825 102.09696 
L 254.98093 102.05568 
L 258.24546 101.4984 
L 261.252254 100.60056 
L 264.266775 100.80696 
L 267.251442 101.45712 
L 270.340315 100.55928 
L 273.329387 101.10624 
L 276.356666 100.8792 
L 279.36 100.74504 
" clip-path="url(#pa21cc4fead)" style="fill: none; stroke: #bebebe; stroke-width: 0.5; stroke-linecap: round"/>
   </g>
   <g id="line2d_6">
    <path d="M 8.64 72.16896 
L 11.660253 73.08744 
L 14.680506 74.72832 
L 17.700759 74.48064 
L 20.721012 74.28456 
L 23.741265 73.21128 
L 26.761518 70.2804 
L 29.781772 70.2288 
L 32.802025 71.56008 
L 35.822278 73.79952 
L 38.842531 73.35576 
L 41.862784 74.0988 
L 44.883037 75.5952 
L 47.90329 75.5952 
L 50.923543 77.61792 
L 53.943796 77.63856 
L 56.964049 75.40944 
L 59.984302 75.40944 
L 63.004555 75.04824 
L 66.024808 74.98632 
L 69.045062 75.58488 
L 72.065315 75.87384 
L 75.085568 76.49304 
L 78.105821 76.15248 
L 81.126074 75.82224 
L 84.146327 75.84288 
L 87.16658 76.03896 
L 90.186833 75.51264 
L 93.207086 75.56424 
L 96.227339 75.05856 
L 99.247592 73.26288 
L 102.267845 73.20096 
L 105.288098 73.00488 
L 108.308352 71.68392 
L 111.328605 70.6932 
L 114.348858 72.62304 
L 117.369111 73.52088 
L 120.389364 73.83048 
L 123.409617 73.8408 
L 126.42987 73.29384 
L 129.450123 73.72728 
L 132.470376 70.32168 
L 135.490629 69.77472 
L 138.510882 70.34232 
L 141.531135 70.67256 
L 144.551388 70.51776 
L 147.571642 70.848 
L 150.591895 72.31344 
L 153.612148 76.01832 
L 156.632401 75.41976 
L 159.652654 75.83256 
L 162.672907 75.79128 
L 165.69316 75.82224 
L 168.713413 77.82432 
L 171.733666 76.14216 
L 174.753919 74.75928 
L 177.774172 74.96568 
L 180.794425 77.75208 
L 183.814678 79.48584 
L 186.834932 83.31456 
L 189.855185 85.90488 
L 192.875438 84.79032 
L 195.425209 85.84296 
L 197.825367 88.25784 
L 200.844082 91.41576 
L 203.851401 88.7532 
L 206.940693 88.65 
L 209.936022 88.55712 
L 212.973509 88.96992 
L 215.987505 89.7336 
L 218.996886 90.456 
L 222.016231 90.56952 
L 225.000164 89.15568 
L 227.86105 88.9596 
L 231.075032 90.6624 
L 233.715901 89.94 
L 237.110749 90.00192 
L 240.127332 90.3528 
L 243.129932 90.62112 
L 246.131728 90.5076 
L 249.186483 90.3528 
L 252.215825 92.004 
L 254.98093 92.13816 
L 258.24546 91.25064 
L 261.252254 89.166 
L 264.266775 89.56848 
L 267.251442 90.93072 
L 270.340315 89.41368 
L 273.329387 90.37344 
L 276.356666 89.79552 
L 279.36 90.23928 
" clip-path="url(#pa21cc4fead)" style="fill: none; stroke: #4a8dff; stroke-width: 0.6"/>
   </g>
   <g id="line2d_7">
    <path d="M 8.64 79.71288 
L 11.660253 81.24024 
L 14.680506 84.17112 
L 17.700759 84.24336 
L 20.721012 83.29392 
L 23.741265 82.8192 
L 26.761518 80.64168 
L 29.781772 81.38472 
L 32.802025 80.87904 
L 35.822278 83.13912 
L 38.842531 83.19072 
L 41.862784 85.296 
L 44.883037 87.17424 
L 47.90329 85.71912 
L 50.923543 87.53544 
L 53.943796 88.17528 
L 56.964049 85.41984 
L 59.984302 85.17216 
L 63.004555 84.9348 
L 66.024808 85.01736 
L 69.045062 86.14224 
L 72.065315 85.90488 
L 75.085568 86.328 
L 78.105821 86.24544 
L 81.126074 85.72944 
L 84.146327 85.7088 
L 87.16658 86.40024 
L 90.186833 85.09992 
L 93.207086 86.02872 
L 96.227339 84.78 
L 99.247592 83.53128 
L 102.267845 82.83984 
L 105.288098 82.03488 
L 108.308352 79.39296 
L 111.328605 79.66128 
L 114.348858 82.15872 
L 117.369111 82.43736 
L 120.389364 82.93272 
L 123.409617 83.00496 
L 126.42987 82.6128 
L 129.450123 82.28256 
L 132.470376 78.01008 
L 135.490629 76.19376 
L 138.510882 77.66952 
L 141.531135 77.74176 
L 144.551388 78.1752 
L 147.571642 79.5684 
L 150.591895 80.8068 
L 153.612148 85.20312 
L 156.632401 84.12984 
L 159.652654 84.03696 
L 162.672907 84.06792 
L 165.69316 84.3156 
L 168.713413 87.02976 
L 171.733666 85.21344 
L 174.753919 84.28464 
L 177.774172 84.32592 
L 180.794425 89.08344 
L 183.814678 89.5272 
L 186.834932 95.14128 
L 189.855185 96.98856 
L 192.875438 95.08968 
L 195.425209 97.71096 
L 197.825367 99.80592 
L 200.844082 101.79768 
L 203.851401 100.03296 
L 206.940693 100.518 
L 209.936022 99.98136 
L 212.973509 100.49736 
L 215.987505 100.78632 
L 218.996886 101.07528 
L 222.016231 101.26104 
L 225.000164 100.63152 
L 227.86105 100.38384 
L 231.075032 100.84824 
L 233.715901 100.65216 
L 237.110749 101.034 
L 240.127332 101.19912 
L 243.129932 101.10624 
L 246.131728 100.97208 
L 249.186483 100.91016 
L 252.215825 101.7564 
L 254.98093 101.84928 
L 258.24546 101.56032 
L 261.252254 100.85856 
L 264.266775 101.12688 
L 267.251442 101.4468 
L 270.340315 101.02368 
L 273.329387 101.30232 
L 276.356666 100.81728 
L 279.36 100.79664 
" clip-path="url(#pa21cc4fead)" style="fill: none; stroke: #f5841e; stroke-width: 0.6"/>
   </g>
  </g>
 </g>
 <defs>
  <clipPath id="pa21cc4fead">
   <rect x="8.64" y="4.8" width="270.72" height="103.2"/>
  </clipPath>
 </defs>
</svg>
