<?xml version="1.0" encoding="utf-8" standalone="no"?>
<!DOCTYPE svg PUBLIC "-//W3C//DTD SVG 1.1//EN"
  "http://www.w3.org/Graphics/SVG/1.1/DTD/svg11.dtd">
<svg xmlns:xlink="http://www.w3.org/1999/xlink" width="288pt" height="120pt" viewBox="0 0 288 120" xmlns="http://www.w3.org/2000/svg" version="1.1">
<desc id="nav-meta">{"window":"1m","count":4,"labels":["08.01","18.01","28.01","07.02"],"tick_utc":["2026-01-08T12:00:00Z","2026-01-18T12:00:00Z","2026-01-28T12:00:00Z","2026-02-07T03:13:08Z"],"w":720,"h":300}</desc>

 <metadata>
  <rdf:RDF xmlns:dc="http://purl.org/dc/elements/1.1/" xmlns:cc="http://creativecommons.org/ns#" xmlns:rdf="http://www.w3.org/1999/02/22-rdf-syntax-ns#">
   <cc:Work>
    <dc:type rdf:resource="http://purl.org/dc/dcmitype/StillImage"/>
    <dc:date>2026-02-07T11:35:07.150042</dc:date>
    <dc:format>image/svg+xml</dc:format>
    <dc:creator>
     <cc:Agent>
      <dc:title>Matplotlib v3.10.8, https://matplotlib.org/</dc:title>
     </cc:Agent>
    </dc:creator>
   </cc:Work>
  </rdf:RDF>
 </metadata>
 <defs>
  <style type="text/css">*{stroke-linejoin: round; stroke-linecap: butt}</style>
 </defs>
 <g id="figure_1">
  <g id="patch_1">
   <path d="M 0 120 
L 288 120 
L 288 0 
L 0 0 
L 0 120 
z
" style="fill: none; opacity: 0"/>
  </g>
  <g id="axes_1">
   <g id="patch_2">
    <path d="M 8.64 108 
L 279.36 108 
L 279.36 4.8 
L 8.64 4.8 
L 8.64 108 
z
" style="fill: none"/>
   </g>
   <g id="matplotlib.axis_1"/>
   <g id="matplotlib.axis_2"/>
   <g id="line2d_1">
    <path d="M 8.64 87.36 
L 279.36 87.36 
" clip-path="url(#pad1d95caa6)" style="fill: none; stroke: #b2b2b2; stroke-opacity: 0.35; stroke-width: 0.5; stroke-linecap: square"/>
   </g>
   <g id="line2d_2">
    <path d="M 8.64 66.72 
L 279.36 66.72 
" clip-path="url(#pad1d95caa6)" style="fill: none; stroke: #b2b2b2; stroke-opacity: 0.35; stroke-width: 0.5; stroke-linecap: square"/>
   </g>
   <g id="line2d_3">
    <path d="M 8.64 46.08 
L 279.36 46.08 
" clip-path="url(#pad1d95caa6)" style="fill: none; stroke: #b2b2b2; stroke-opacity: 0.35; stroke-width: 0.5; stroke-linecap: square"/>
   </g>
   <g id="line2d_4">
    <path d="M 8.64 25.44 
L 279.36 25.44 
" clip-path="url(#pad1d95caa6)" style="fill: none; stroke: #b2b2b2; stroke-opacity: 0.35; stroke-width: 0.5; stroke-linecap: square"/>
   </g>
   <g id="line2d_5">
    <path d="M 8.64 89.2692 
L 17.775415 88.72224 
L 26.910831 89.39304 
L 36.046246 89.40336 
L 45.181662 88.41264 
L 54.317077 88.4952 
L 63.452492 86.86464 
L 72.587908 86.42088 
L 81.723323 87.62832 
L 90.858739 86.93688 
L 99.994154 87.23616 
L 109.12957 88.63968 
L 118.264985 90.0432 
L 127.4004 92.12784 
L 136.535816 91.16808 
L 145.671231 91.46736 
L 154.806647 91.73568 
L 163.942062 91.78728 
L 173.077477 94.0164 
L 182.212893 92.5716 
L 191.348308 91.76664 
L 200.483724 92.33424 
L 209.619139 94.36728 
L 218.754555 94.46016 
L 227.88997 97.71096 
L 237.025385 98.48496 
L 246.160801 97.85544 
L 253.873143 99.10416 
L 261.132943 100.16712 
L 270.263706 102.23112 
L 279.36 100.54896 
" clip-path="url(#pad1d95caa6)" style="fill: none; stroke: #bebebe; stroke-width: 0.5; stroke-linecap: round"/>
   </g>
   <g id="line2d_6">
    <path d="M 8.64 72.62304 
L 17.775415 73.52088 
L 26.910831 73.83048 
L 36.046246 73.8408 
L 45.181662 73.29384 
L 54.317077 73.72728 
L 63.452492 70.32168 
L 72.587908 69.77472 
L 81.723323 70.34232 
L 90.858739 70.67256 
L 99.994154 70.51776 
L 109.12957 70.848 
L 118.264985 72.31344 
L 127.4004 76.01832 
L 136.535816 75.41976 
L 145.671231 75.83256 
L 154.806647 75.79128 
L 163.942062 75.82224 
L 173.077477 77.82432 
L 182.212893 76.14216 
L 191.348308 74.75928 
L 200.483724 74.96568 
L 209.619139 77.75208 
L 218.754555 79.48584 
L 227.88997 83.31456 
L 237.025385 85.90488 
L 246.160801 84.79032 
L 253.873143 85.84296 
L 261.132943 88.25784 
L 270.263706 91.41576 
L 279.36 88.7532 
" clip-path="url(#pad1d95caa6)" style="fill: none; stroke: #4a8dff; stroke-width: 0.6"/>
   </g>
   <g id="line2d_7">
    <path d="M 8.64 82.15872 
L 17.775415 82.43736 
L 26.910831 82.93272 
L 36.046246 83.00496 
L 45.181662 82.6128 
L 54.317077 82.28256 
L 63.452492 78.01008 
L 72.587908 76.19376 
L 81.723323 77.66952 
L 90.858739 77.74176 
L 99.994154 78.1752 
L 109.12957 79.5684 
L 118.264985 80.8068 
L 127.4004 85.20312 
L 136.535816 84.12984 
L 145.671231 84.03696 
L 154.806647 84.06792 
L 163.942062 84.3156 
L 173.077477 87.02976 
L 182.212893 85.21344 
L 191.348308 84.28464 
L 200.483724 84.32592 
L 209.619139 89.08344 
L 218.754555 89.5272 
L 227.88997 95.14128 
L 237.025385 96.98856 
L 246.160801 95.08968 
L 253.873143 97.71096 
L 261.132943 99.80592 
L 270.263706 101.79768 
L 279.36 100.03296 
" clip-path="url(#pad1d95caa6)" style="fill: none; stroke: #f5841e; stroke-width: 0.6"/>
   </g>
  </g>
 </g>
 <defs>
  <clipPath id="pad1d95caa6">
   <rect x="8.64" y="4.8" width="270.72" height="103.2"/>
  </clipPath>
 </defs>
</svg>
