<?xml version="1.0" encoding="utf-8" standalone="no"?>
<!DOCTYPE svg PUBLIC "-//W3C//DTD SVG 1.1//EN"
  "http://www.w3.org/Graphics/SVG/1.1/DTD/svg11.dtd">
<svg xmlns:xlink="http://www.w3.org/1999/xlink" width="288pt" height="120pt" viewBox="0 0 288 120" xmlns="http://www.w3.org/2000/svg" version="1.1">
<desc id="nav-meta">{"window":"3m","count":4,"labels":["01.12","31.12","29.01","28.02"],"tick_utc":["2025-12-01T12:00:00Z","2025-12-31T12:00:00Z","2026-01-29T12:00:00Z","2026-02-28T03:01:05Z"],"w":720,"h":300}</desc>

 <metadata>
  <rdf:RDF xmlns:dc="http://purl.org/dc/elements/1.1/" xmlns:cc="http://creativecommons.org/ns#" xmlns:rdf="http://www.w3.org/1999/02/22-rdf-syntax-ns#">
   <cc:Work>
    <dc:type rdf:resource="http://purl.org/dc/dcmitype/StillImage"/>
    <dc:date>2026-02-28T19:00:15.764294</dc:date>
    <dc:format>image/svg+xml</dc:format>
    <dc:creator>
     <cc:Agent>
      <dc:title>Matplotlib v3.10.8, https://matplotlib.org/</dc:title>
     </cc:Agent>
    </dc:creator>
   </cc:Work>
  </rdf:RDF>
 </metadata>
 <defs>
  <style type="text/css">*{stroke-linejoin: round; stroke-linecap: butt}</style>
 </defs>
 <g id="figure_1">
  <g id="patch_1">
   <path d="M 0 120 
L 288 120 
L 288 0 
L 0 0 
L 0 120 
z
" style="fill: none; opacity: 0"/>
  </g>
  <g id="axes_1">
   <g id="patch_2">
    <path d="M 8.64 108 
L 279.36 108 
L 279.36 4.8 
L 8.64 4.8 
L 8.64 108 
z
" style="fill: none"/>
   </g>
   <g id="matplotlib.axis_1"/>
   <g id="matplotlib.axis_2"/>
   <g id="line2d_1">
    <path d="M 8.64 87.36 
L 279.36 87.36 
" clip-path="url(#pa15087a000)" style="fill: none; stroke: #b2b2b2; stroke-opacity: 0.35; stroke-width: 0.5; stroke-linecap: square"/>
   </g>
   <g id="line2d_2">
    <path d="M 8.64 66.72 
L 279.36 66.72 
" clip-path="url(#pa15087a000)" style="fill: none; stroke: #b2b2b2; stroke-opacity: 0.35; stroke-width: 0.5; stroke-linecap: square"/>
   </g>
   <g id="line2d_3">
    <path d="M 8.64 46.08 
L 279.36 46.08 
" clip-path="url(#pa15087a000)" style="fill: none; stroke: #b2b2b2; stroke-opacity: 0.35; stroke-width: 0.5; stroke-linecap: square"/>
   </g>
   <g id="line2d_4">
    <path d="M 8.64 25.44 
L 279.36 25.44 
" clip-path="url(#pa15087a000)" style="fill: none; stroke: #b2b2b2; stroke-opacity: 0.35; stroke-width: 0.5; stroke-linecap: square"/>
   </g>
   <g id="line2d_5">
    <path d="M 8.64 89.7336 
L 11.694643 91.86984 
L 14.749285 88.60872 
L 17.803928 86.87496 
L 20.85857 88.52616 
L 23.913213 90.11544 
L 26.967856 90.38376 
L 30.022498 90.53856 
L 33.077141 90.08448 
L 36.131784 88.79448 
L 39.186426 89.20728 
L 42.241069 89.22792 
L 45.295711 90.31152 
L 48.350354 90.10512 
L 51.404997 91.09584 
L 54.459639 91.61184 
L 57.514282 91.31256 
L 60.568924 92.87088 
L 63.623567 93.8616 
L 66.67821 92.02464 
L 69.732852 92.13816 
L 72.787495 92.07624 
L 75.842138 92.14848 
L 78.89678 92.64384 
L 81.951423 93.01536 
L 85.006065 93.69648 
L 88.060708 93.11856 
L 91.115351 92.44776 
L 94.169993 92.30328 
L 97.224636 92.87088 
L 100.279279 92.38584 
L 103.333921 92.47872 
L 106.388564 91.88016 
L 109.443206 90.42504 
L 112.497849 90.08448 
L 115.552492 89.92968 
L 118.607134 88.76352 
L 121.661777 87.94824 
L 124.716419 89.2692 
L 127.771062 88.72224 
L 130.825705 89.39304 
L 133.880347 89.40336 
L 136.93499 88.41264 
L 139.989633 88.4952 
L 143.044275 86.86464 
L 146.098918 86.42088 
L 149.15356 87.62832 
L 152.208203 86.93688 
L 155.262846 87.23616 
L 158.317488 88.63968 
L 161.372131 90.0432 
L 164.426773 92.12784 
L 167.481416 91.16808 
L 170.536059 91.46736 
L 173.590701 91.73568 
L 176.645344 91.78728 
L 179.699987 94.0164 
L 182.754629 92.5716 
L 185.809272 91.76664 
L 188.863914 92.33424 
L 191.918557 94.36728 
L 194.9732 94.46016 
L 198.027842 97.71096 
L 201.082485 98.48496 
L 204.137127 97.85544 
L 206.715932 99.10416 
L 209.143418 100.16712 
L 212.196505 102.23112 
L 215.238066 100.54896 
L 218.362535 100.70376 
L 221.391969 100.68312 
L 224.464042 100.95144 
L 227.512356 101.28168 
L 230.556003 101.71512 
L 233.609727 101.84928 
L 236.627636 101.034 
L 239.521096 100.54896 
L 242.771675 101.04432 
L 245.442613 100.81728 
L 248.876116 101.034 
L 251.927047 101.4984 
L 254.963835 101.33328 
L 257.99981 101.1372 
L 261.089348 101.06496 
L 264.153183 102.09696 
L 266.949772 102.05568 
L 270.251473 101.4984 
L 273.292504 100.60056 
L 276.341348 100.80696 
L 279.36 101.45712 
" clip-path="url(#pa15087a000)" style="fill: none; stroke: #bebebe; stroke-width: 0.5; stroke-linecap: round"/>
   </g>
   <g id="line2d_6">
    <path d="M 8.64 75.17208 
L 11.694643 78.05136 
L 14.749285 75.1308 
L 17.803928 72.16896 
L 20.85857 73.08744 
L 23.913213 74.72832 
L 26.967856 74.48064 
L 30.022498 74.28456 
L 33.077141 73.21128 
L 36.131784 70.2804 
L 39.186426 70.2288 
L 42.241069 71.56008 
L 45.295711 73.79952 
L 48.350354 73.35576 
L 51.404997 74.0988 
L 54.459639 75.5952 
L 57.514282 75.5952 
L 60.568924 77.61792 
L 63.623567 77.63856 
L 66.67821 75.40944 
L 69.732852 75.40944 
L 72.787495 75.04824 
L 75.842138 74.98632 
L 78.89678 75.58488 
L 81.951423 75.87384 
L 85.006065 76.49304 
L 88.060708 76.15248 
L 91.115351 75.82224 
L 94.169993 75.84288 
L 97.224636 76.03896 
L 100.279279 75.51264 
L 103.333921 75.56424 
L 106.388564 75.05856 
L 109.443206 73.26288 
L 112.497849 73.20096 
L 115.552492 73.00488 
L 118.607134 71.68392 
L 121.661777 70.6932 
L 124.716419 72.62304 
L 127.771062 73.52088 
L 130.825705 73.83048 
L 133.880347 73.8408 
L 136.93499 73.29384 
L 139.989633 73.72728 
L 143.044275 70.32168 
L 146.098918 69.77472 
L 149.15356 70.34232 
L 152.208203 70.67256 
L 155.262846 70.51776 
L 158.317488 70.848 
L 161.372131 72.31344 
L 164.426773 76.01832 
L 167.481416 75.41976 
L 170.536059 75.83256 
L 173.590701 75.79128 
L 176.645344 75.82224 
L 179.699987 77.82432 
L 182.754629 76.14216 
L 185.809272 74.75928 
L 188.863914 74.96568 
L 191.918557 77.75208 
L 194.9732 79.48584 
L 198.027842 83.31456 
L 201.082485 85.90488 
L 204.137127 84.79032 
L 206.715932 85.84296 
L 209.143418 88.25784 
L 212.196505 91.41576 
L 215.238066 88.7532 
L 218.362535 88.65 
L 221.391969 88.55712 
L 224.464042 88.96992 
L 227.512356 89.7336 
L 230.556003 90.456 
L 233.609727 90.56952 
L 236.627636 89.15568 
L 239.521096 88.9596 
L 242.771675 90.6624 
L 245.442613 89.94 
L 248.876116 90.00192 
L 251.927047 90.3528 
L 254.963835 90.62112 
L 257.99981 90.5076 
L 261.089348 90.3528 
L 264.153183 92.004 
L 266.949772 92.13816 
L 270.251473 91.25064 
L 273.292504 89.166 
L 276.341348 89.56848 
L 279.36 90.93072 
" clip-path="url(#pa15087a000)" style="fill: none; stroke: #4a8dff; stroke-width: 0.6"/>
   </g>
   <g id="line2d_7">
    <path d="M 8.64 83.03592 
L 11.694643 87.3084 
L 14.749285 82.06584 
L 17.803928 79.71288 
L 20.85857 81.24024 
L 23.913213 84.17112 
L 26.967856 84.24336 
L 30.022498 83.29392 
L 33.077141 82.8192 
L 36.131784 80.64168 
L 39.186426 81.38472 
L 42.241069 80.87904 
L 45.295711 83.13912 
L 48.350354 83.19072 
L 51.404997 85.296 
L 54.459639 87.17424 
L 57.514282 85.71912 
L 60.568924 87.53544 
L 63.623567 88.17528 
L 66.67821 85.41984 
L 69.732852 85.17216 
L 72.787495 84.9348 
L 75.842138 85.01736 
L 78.89678 86.14224 
L 81.951423 85.90488 
L 85.006065 86.328 
L 88.060708 86.24544 
L 91.115351 85.72944 
L 94.169993 85.7088 
L 97.224636 86.40024 
L 100.279279 85.09992 
L 103.333921 86.02872 
L 106.388564 84.78 
L 109.443206 83.53128 
L 112.497849 82.83984 
L 115.552492 82.03488 
L 118.607134 79.39296 
L 121.661777 79.66128 
L 124.716419 82.15872 
L 127.771062 82.43736 
L 130.825705 82.93272 
L 133.880347 83.00496 
L 136.93499 82.6128 
L 139.989633 82.28256 
L 143.044275 78.01008 
L 146.098918 76.19376 
L 149.15356 77.66952 
L 152.208203 77.74176 
L 155.262846 78.1752 
L 158.317488 79.5684 
L 161.372131 80.8068 
L 164.426773 85.20312 
L 167.481416 84.12984 
L 170.536059 84.03696 
L 173.590701 84.06792 
L 176.645344 84.3156 
L 179.699987 87.02976 
L 182.754629 85.21344 
L 185.809272 84.28464 
L 188.863914 84.32592 
L 191.918557 89.08344 
L 194.9732 89.5272 
L 198.027842 95.14128 
L 201.082485 96.98856 
L 204.137127 95.08968 
L 206.715932 97.71096 
L 209.143418 99.80592 
L 212.196505 101.79768 
L 215.238066 100.03296 
L 218.362535 100.518 
L 221.391969 99.98136 
L 224.464042 100.49736 
L 227.512356 100.78632 
L 230.556003 101.07528 
L 233.609727 101.26104 
L 236.627636 100.63152 
L 239.521096 100.38384 
L 242.771675 100.84824 
L 245.442613 100.65216 
L 248.876116 101.034 
L 251.927047 101.19912 
L 254.963835 101.10624 
L 257.99981 100.97208 
L 261.089348 100.91016 
L 264.153183 101.7564 
L 266.949772 101.84928 
L 270.251473 101.56032 
L 273.292504 100.85856 
L 276.341348 101.12688 
L 279.36 101.4468 
" clip-path="url(#pa15087a000)" style="fill: none; stroke: #f5841e; stroke-width: 0.6"/>
   </g>
  </g>
 </g>
 <defs>
  <clipPath id="pa15087a000">
   <rect x="8.64" y="4.8" width="270.72" height="103.2"/>
  </clipPath>
 </defs>
</svg>
