<?xml version="1.0" encoding="utf-8" standalone="no"?>
<!DOCTYPE svg PUBLIC "-//W3C//DTD SVG 1.1//EN"
  "http://www.w3.org/Graphics/SVG/1.1/DTD/svg11.dtd">
<svg xmlns:xlink="http://www.w3.org/1999/xlink" width="288pt" height="120pt" viewBox="0 0 288 120" xmlns="http://www.w3.org/2000/svg" version="1.1">
<desc id="nav-meta">{"window":"1m","count":4,"labels":["13.06","23.06","02.07","12.07"],"tick_utc":["2026-06-13T05:09:20Z","2026-06-23T04:45:28Z","2026-07-02T04:45:46Z","2026-07-12T04:17:37Z"],"w":720,"h":300}</desc>

 <metadata>
  <rdf:RDF xmlns:dc="http://purl.org/dc/elements/1.1/" xmlns:cc="http://creativecommons.org/ns#" xmlns:rdf="http://www.w3.org/1999/02/22-rdf-syntax-ns#">
   <cc:Work>
    <dc:type rdf:resource="http://purl.org/dc/dcmitype/StillImage"/>
    <dc:date>2026-07-12T19:48:24.410847</dc:date>
    <dc:format>image/svg+xml</dc:format>
    <dc:creator>
     <cc:Agent>
      <dc:title>Matplotlib v3.11.0, https://matplotlib.org/</dc:title>
     </cc:Agent>
    </dc:creator>
   </cc:Work>
  </rdf:RDF>
 </metadata>
 <defs>
  <style type="text/css">*{stroke-linejoin: round; stroke-linecap: butt}</style>
 </defs>
 <g id="figure_1">
  <g id="patch_1">
   <path d="M 0 120 
L 288 120 
L 288 0 
L 0 0 
L 0 120 
z
" style="fill: none; opacity: 0"/>
  </g>
  <g id="axes_1">
   <g id="patch_2">
    <path d="M 8.64 108 
L 279.36 108 
L 279.36 4.8 
L 8.64 4.8 
L 8.64 108 
z
" style="fill: none"/>
   </g>
   <g id="matplotlib.axis_1"/>
   <g id="matplotlib.axis_2"/>
   <g id="line2d_1">
    <path d="M 8.64 87.36 
L 279.36 87.36 
" clip-path="url(#p4fdefdcffa)" style="fill: none; stroke: #b2b2b2; stroke-opacity: 0.35; stroke-width: 0.5; stroke-linecap: square"/>
   </g>
   <g id="line2d_2">
    <path d="M 8.64 66.72 
L 279.36 66.72 
" clip-path="url(#p4fdefdcffa)" style="fill: none; stroke: #b2b2b2; stroke-opacity: 0.35; stroke-width: 0.5; stroke-linecap: square"/>
   </g>
   <g id="line2d_3">
    <path d="M 8.64 46.08 
L 279.36 46.08 
" clip-path="url(#p4fdefdcffa)" style="fill: none; stroke: #b2b2b2; stroke-opacity: 0.35; stroke-width: 0.5; stroke-linecap: square"/>
   </g>
   <g id="line2d_4">
    <path d="M 8.64 25.44 
L 279.36 25.44 
" clip-path="url(#p4fdefdcffa)" style="fill: none; stroke: #b2b2b2; stroke-opacity: 0.35; stroke-width: 0.5; stroke-linecap: square"/>
   </g>
   <g id="line2d_5">
    <path d="M 8.64 103.5108 
L 18.054576 103.31472 
L 27.712017 102.95352 
L 37.112097 102.61296 
L 46.161134 102.6336 
L 55.463095 102.9948 
L 65.029989 103.28376 
L 74.002975 103.01544 
L 83.54423 102.69552 
L 93.164565 102.582 
L 101.952563 102.88128 
L 111.332738 103.15992 
L 120.676998 103.36632 
L 130.071669 103.36632 
L 139.303854 102.81936 
L 148.828774 103.0464 
L 158.243134 102.9432 
L 167.408681 102.59232 
L 176.892168 102.40656 
L 186.075239 102.02472 
L 195.320298 101.68416 
L 204.626802 101.3436 
L 214.110398 101.6532 
L 223.547692 101.6532 
L 232.754239 101.63256 
L 241.84698 101.95248 
L 251.477051 102.08664 
L 260.802703 101.9112 
L 269.873484 102.066 
L 279.36 102.18984 
" clip-path="url(#p4fdefdcffa)" style="fill: none; stroke: #bebebe; stroke-width: 0.5; stroke-linecap: round"/>
   </g>
   <g id="line2d_6">
    <path d="M 8.64 94.8936 
L 18.054576 94.70784 
L 27.712017 94.04736 
L 37.112097 93.40752 
L 46.161134 92.9844 
L 55.463095 93.93384 
L 65.029989 94.4292 
L 74.002975 94.19184 
L 83.54423 93.87192 
L 93.164565 93.81 
L 101.952563 94.03704 
L 111.332738 94.83168 
L 120.676998 95.48184 
L 130.071669 96.63768 
L 139.303854 96.14232 
L 148.828774 96.30744 
L 158.243134 96.29712 
L 167.408681 96.04944 
L 176.892168 95.9256 
L 186.075239 95.39928 
L 195.320298 94.31568 
L 204.626802 93.57264 
L 214.110398 93.32496 
L 223.547692 93.22176 
L 232.754239 93.35592 
L 241.84698 93.61392 
L 251.477051 93.77904 
L 260.802703 93.26304 
L 269.873484 92.92248 
L 279.36 92.71608 
" clip-path="url(#p4fdefdcffa)" style="fill: none; stroke: #4a8dff; stroke-width: 0.6"/>
   </g>
   <g id="line2d_7">
    <path d="M 8.64 102.066 
L 18.054576 101.86992 
L 27.712017 101.48808 
L 37.112097 101.40552 
L 46.161134 101.4984 
L 55.463095 101.97312 
L 65.029989 102.26208 
L 74.002975 102.066 
L 83.54423 101.90088 
L 93.164565 101.90088 
L 101.952563 102.0144 
L 111.332738 102.25176 
L 120.676998 102.6336 
L 130.071669 102.88128 
L 139.303854 102.77808 
L 148.828774 102.85032 
L 158.243134 102.93288 
L 167.408681 102.95352 
L 176.892168 103.00512 
L 186.075239 102.69552 
L 195.320298 102.55104 
L 204.626802 102.2724 
L 214.110398 102.21048 
L 223.547692 102.12792 
L 232.754239 102.13824 
L 241.84698 102.25176 
L 251.477051 102.36528 
L 260.802703 101.94216 
L 269.873484 101.92152 
L 279.36 101.9112 
" clip-path="url(#p4fdefdcffa)" style="fill: none; stroke: #f5841e; stroke-width: 0.6"/>
   </g>
  </g>
 </g>
 <defs>
  <clipPath id="p4fdefdcffa">
   <rect x="8.64" y="4.8" width="270.72" height="103.2"/>
  </clipPath>
 </defs>
</svg>
