<?xml version="1.0" encoding="utf-8" standalone="no"?>
<!DOCTYPE svg PUBLIC "-//W3C//DTD SVG 1.1//EN"
  "http://www.w3.org/Graphics/SVG/1.1/DTD/svg11.dtd">
<svg xmlns:xlink="http://www.w3.org/1999/xlink" width="288pt" height="120pt" viewBox="0 0 288 120" xmlns="http://www.w3.org/2000/svg" version="1.1">
<desc id="nav-meta">{"window":"3m","count":4,"labels":["09.01","08.02","09.03","08.04"],"tick_utc":["2026-01-09T12:00:00Z","2026-02-08T03:46:03Z","2026-03-09T03:23:53Z","2026-04-08T03:43:16Z"],"w":720,"h":300}</desc>

 <metadata>
  <rdf:RDF xmlns:dc="http://purl.org/dc/elements/1.1/" xmlns:cc="http://creativecommons.org/ns#" xmlns:rdf="http://www.w3.org/1999/02/22-rdf-syntax-ns#">
   <cc:Work>
    <dc:type rdf:resource="http://purl.org/dc/dcmitype/StillImage"/>
    <dc:date>2026-04-08T14:14:13.323605</dc:date>
    <dc:format>image/svg+xml</dc:format>
    <dc:creator>
     <cc:Agent>
      <dc:title>Matplotlib v3.10.8, https://matplotlib.org/</dc:title>
     </cc:Agent>
    </dc:creator>
   </cc:Work>
  </rdf:RDF>
 </metadata>
 <defs>
  <style type="text/css">*{stroke-linejoin: round; stroke-linecap: butt}</style>
 </defs>
 <g id="figure_1">
  <g id="patch_1">
   <path d="M 0 120 
L 288 120 
L 288 0 
L 0 0 
L 0 120 
z
" style="fill: none; opacity: 0"/>
  </g>
  <g id="axes_1">
   <g id="patch_2">
    <path d="M 8.64 108 
L 279.36 108 
L 279.36 4.8 
L 8.64 4.8 
L 8.64 108 
z
" style="fill: none"/>
   </g>
   <g id="matplotlib.axis_1"/>
   <g id="matplotlib.axis_2"/>
   <g id="line2d_1">
    <path d="M 8.64 87.36 
L 279.36 87.36 
" clip-path="url(#pbaf0f4e2db)" style="fill: none; stroke: #b2b2b2; stroke-opacity: 0.35; stroke-width: 0.5; stroke-linecap: square"/>
   </g>
   <g id="line2d_2">
    <path d="M 8.64 66.72 
L 279.36 66.72 
" clip-path="url(#pbaf0f4e2db)" style="fill: none; stroke: #b2b2b2; stroke-opacity: 0.35; stroke-width: 0.5; stroke-linecap: square"/>
   </g>
   <g id="line2d_3">
    <path d="M 8.64 46.08 
L 279.36 46.08 
" clip-path="url(#pbaf0f4e2db)" style="fill: none; stroke: #b2b2b2; stroke-opacity: 0.35; stroke-width: 0.5; stroke-linecap: square"/>
   </g>
   <g id="line2d_4">
    <path d="M 8.64 25.44 
L 279.36 25.44 
" clip-path="url(#pbaf0f4e2db)" style="fill: none; stroke: #b2b2b2; stroke-opacity: 0.35; stroke-width: 0.5; stroke-linecap: square"/>
   </g>
   <g id="line2d_5">
    <path d="M 8.64 88.72224 
L 11.693633 89.39304 
L 14.747267 89.40336 
L 17.8009 88.41264 
L 20.854533 88.4952 
L 23.908166 86.86464 
L 26.9618 86.42088 
L 30.015433 87.62832 
L 33.069066 86.93688 
L 36.1227 87.23616 
L 39.176333 88.63968 
L 42.229966 90.0432 
L 45.283599 92.12784 
L 48.337233 91.16808 
L 51.390866 91.46736 
L 54.444499 91.73568 
L 57.498133 91.78728 
L 60.551766 94.0164 
L 63.605399 92.5716 
L 66.659032 91.76664 
L 69.712666 92.33424 
L 72.766299 94.36728 
L 75.819932 94.46016 
L 78.873565 97.71096 
L 81.927199 98.48496 
L 84.980832 97.85544 
L 87.558784 99.10416 
L 89.985468 100.16712 
L 93.037547 102.23112 
L 96.078103 100.54896 
L 99.201539 100.70376 
L 102.229972 100.68312 
L 105.30103 100.95144 
L 108.348337 101.28168 
L 111.390978 101.71512 
L 114.443693 101.84928 
L 117.460605 101.034 
L 120.353109 100.54896 
L 123.602613 101.04432 
L 126.272669 100.81728 
L 129.705038 101.034 
L 132.75496 101.4984 
L 135.790745 101.33328 
L 138.825717 101.1372 
L 141.914234 101.06496 
L 144.977057 102.09696 
L 147.772722 102.05568 
L 151.073332 101.4984 
L 154.113358 100.60056 
L 157.161195 100.80696 
L 160.178849 101.45712 
L 163.30186 100.55928 
L 166.323968 101.10624 
L 169.384705 100.8792 
L 172.421232 100.74504 
L 175.481439 100.21872 
L 178.533624 100.53864 
L 181.563824 101.07528 
L 184.647111 101.38488 
L 187.709898 101.26104 
L 190.743916 100.78632 
L 193.796347 100.91016 
L 196.861997 100.99272 
L 199.909728 100.38384 
L 202.959297 100.50768 
L 206.071352 100.60056 
L 209.133609 99.76464 
L 212.133804 99.49632 
L 215.210728 99.40344 
L 218.26521 100.09488 
L 221.289119 100.3632 
L 224.324869 100.19808 
L 227.424166 100.47672 
L 230.484974 100.79664 
L 233.510332 100.26 
L 236.791398 99.83688 
L 239.654744 100.13616 
L 242.71223 100.80696 
L 245.73667 101.38488 
L 248.831902 101.3436 
L 251.894265 101.292 
L 254.928636 101.28168 
L 258.008459 101.28168 
L 261.021872 101.8596 
L 264.079004 101.88024 
L 267.106484 101.72544 
L 270.206098 101.68416 
L 273.267613 101.47776 
L 276.301419 101.78736 
L 279.36 101.09592 
" clip-path="url(#pbaf0f4e2db)" style="fill: none; stroke: #bebebe; stroke-width: 0.5; stroke-linecap: round"/>
   </g>
   <g id="line2d_6">
    <path d="M 8.64 73.52088 
L 11.693633 73.83048 
L 14.747267 73.8408 
L 17.8009 73.29384 
L 20.854533 73.72728 
L 23.908166 70.32168 
L 26.9618 69.77472 
L 30.015433 70.34232 
L 33.069066 70.67256 
L 36.1227 70.51776 
L 39.176333 70.848 
L 42.229966 72.31344 
L 45.283599 76.01832 
L 48.337233 75.41976 
L 51.390866 75.83256 
L 54.444499 75.79128 
L 57.498133 75.82224 
L 60.551766 77.82432 
L 63.605399 76.14216 
L 66.659032 74.75928 
L 69.712666 74.96568 
L 72.766299 77.75208 
L 75.819932 79.48584 
L 78.873565 83.31456 
L 81.927199 85.90488 
L 84.980832 84.79032 
L 87.558784 85.84296 
L 89.985468 88.25784 
L 93.037547 91.41576 
L 96.078103 88.7532 
L 99.201539 88.65 
L 102.229972 88.55712 
L 105.30103 88.96992 
L 108.348337 89.7336 
L 111.390978 90.456 
L 114.443693 90.56952 
L 117.460605 89.15568 
L 120.353109 88.9596 
L 123.602613 90.6624 
L 126.272669 89.94 
L 129.705038 90.00192 
L 132.75496 90.3528 
L 135.790745 90.62112 
L 138.825717 90.5076 
L 141.914234 90.3528 
L 144.977057 92.004 
L 147.772722 92.13816 
L 151.073332 91.25064 
L 154.113358 89.166 
L 157.161195 89.56848 
L 160.178849 90.93072 
L 163.30186 89.41368 
L 166.323968 90.37344 
L 169.384705 89.79552 
L 172.421232 90.23928 
L 175.481439 88.0824 
L 178.533624 88.7532 
L 181.563824 90.16704 
L 184.647111 90.67272 
L 187.709898 90.18768 
L 190.743916 89.2692 
L 193.796347 89.54784 
L 196.861997 89.49624 
L 199.909728 88.31976 
L 202.959297 88.45392 
L 206.071352 88.46424 
L 209.133609 86.38992 
L 212.133804 84.80064 
L 215.210728 84.8316 
L 218.26521 86.586 
L 221.289119 87.74184 
L 224.324869 87.618 
L 227.424166 88.19592 
L 230.484974 89.08344 
L 233.510332 87.89664 
L 236.791398 87.3084 
L 239.654744 87.65928 
L 242.71223 88.96992 
L 245.73667 90.07416 
L 248.831902 89.76456 
L 251.894265 89.3724 
L 254.928636 89.00088 
L 258.008459 88.42296 
L 261.021872 88.81512 
L 264.079004 89.10408 
L 267.106484 89.14536 
L 270.206098 89.07312 
L 273.267613 87.9792 
L 276.301419 88.29912 
L 279.36 86.38992 
" clip-path="url(#pbaf0f4e2db)" style="fill: none; stroke: #4a8dff; stroke-width: 0.6"/>
   </g>
   <g id="line2d_7">
    <path d="M 8.64 82.43736 
L 11.693633 82.93272 
L 14.747267 83.00496 
L 17.8009 82.6128 
L 20.854533 82.28256 
L 23.908166 78.01008 
L 26.9618 76.19376 
L 30.015433 77.66952 
L 33.069066 77.74176 
L 36.1227 78.1752 
L 39.176333 79.5684 
L 42.229966 80.8068 
L 45.283599 85.20312 
L 48.337233 84.12984 
L 51.390866 84.03696 
L 54.444499 84.06792 
L 57.498133 84.3156 
L 60.551766 87.02976 
L 63.605399 85.21344 
L 66.659032 84.28464 
L 69.712666 84.32592 
L 72.766299 89.08344 
L 75.819932 89.5272 
L 78.873565 95.14128 
L 81.927199 96.98856 
L 84.980832 95.08968 
L 87.558784 97.71096 
L 89.985468 99.80592 
L 93.037547 101.79768 
L 96.078103 100.03296 
L 99.201539 100.518 
L 102.229972 99.98136 
L 105.30103 100.49736 
L 108.348337 100.78632 
L 111.390978 101.07528 
L 114.443693 101.26104 
L 117.460605 100.63152 
L 120.353109 100.38384 
L 123.602613 100.84824 
L 126.272669 100.65216 
L 129.705038 101.034 
L 132.75496 101.19912 
L 135.790745 101.10624 
L 138.825717 100.97208 
L 141.914234 100.91016 
L 144.977057 101.7564 
L 147.772722 101.84928 
L 151.073332 101.56032 
L 154.113358 100.85856 
L 157.161195 101.12688 
L 160.178849 101.4468 
L 163.30186 101.02368 
L 166.323968 101.30232 
L 169.384705 100.81728 
L 172.421232 100.79664 
L 175.481439 99.3312 
L 178.533624 99.92976 
L 181.563824 100.78632 
L 184.647111 101.17848 
L 187.709898 101.1372 
L 190.743916 100.21872 
L 193.796347 100.37352 
L 196.861997 100.4664 
L 199.909728 99.88848 
L 202.959297 99.94008 
L 206.071352 99.81624 
L 209.133609 98.93904 
L 212.133804 98.3508 
L 215.210728 98.52624 
L 218.26521 99.78528 
L 221.289119 100.12584 
L 224.324869 100.03296 
L 227.424166 100.45608 
L 230.484974 100.83792 
L 233.510332 100.11552 
L 236.791398 99.87816 
L 239.654744 100.002 
L 242.71223 100.64184 
L 245.73667 101.41584 
L 248.831902 101.21976 
L 251.894265 101.14752 
L 254.928636 101.00304 
L 258.008459 100.86888 
L 261.021872 101.21976 
L 264.079004 101.28168 
L 267.106484 101.20944 
L 270.206098 101.14752 
L 273.267613 100.55928 
L 276.301419 100.65216 
L 279.36 99.80592 
" clip-path="url(#pbaf0f4e2db)" style="fill: none; stroke: #f5841e; stroke-width: 0.6"/>
   </g>
  </g>
 </g>
 <defs>
  <clipPath id="pbaf0f4e2db">
   <rect x="8.64" y="4.8" width="270.72" height="103.2"/>
  </clipPath>
 </defs>
</svg>
