<?xml version="1.0" encoding="utf-8" standalone="no"?>
<!DOCTYPE svg PUBLIC "-//W3C//DTD SVG 1.1//EN"
  "http://www.w3.org/Graphics/SVG/1.1/DTD/svg11.dtd">
<svg xmlns:xlink="http://www.w3.org/1999/xlink" width="288pt" height="120pt" viewBox="0 0 288 120" xmlns="http://www.w3.org/2000/svg" version="1.1">
<desc id="nav-meta">{"window":"3m","count":4,"labels":["07.01","06.02","08.03","07.04"],"tick_utc":["2026-01-07T12:00:00Z","2026-02-06T03:19:18Z","2026-03-08T03:19:34Z","2026-04-07T03:40:56Z"],"w":720,"h":300}</desc>

 <metadata>
  <rdf:RDF xmlns:dc="http://purl.org/dc/elements/1.1/" xmlns:cc="http://creativecommons.org/ns#" xmlns:rdf="http://www.w3.org/1999/02/22-rdf-syntax-ns#">
   <cc:Work>
    <dc:type rdf:resource="http://purl.org/dc/dcmitype/StillImage"/>
    <dc:date>2026-04-07T03:40:59.085040</dc:date>
    <dc:format>image/svg+xml</dc:format>
    <dc:creator>
     <cc:Agent>
      <dc:title>Matplotlib v3.10.8, https://matplotlib.org/</dc:title>
     </cc:Agent>
    </dc:creator>
   </cc:Work>
  </rdf:RDF>
 </metadata>
 <defs>
  <style type="text/css">*{stroke-linejoin: round; stroke-linecap: butt}</style>
 </defs>
 <g id="figure_1">
  <g id="patch_1">
   <path d="M 0 120 
L 288 120 
L 288 0 
L 0 0 
L 0 120 
z
" style="fill: none; opacity: 0"/>
  </g>
  <g id="axes_1">
   <g id="patch_2">
    <path d="M 8.64 108 
L 279.36 108 
L 279.36 4.8 
L 8.64 4.8 
L 8.64 108 
z
" style="fill: none"/>
   </g>
   <g id="matplotlib.axis_1"/>
   <g id="matplotlib.axis_2"/>
   <g id="line2d_1">
    <path d="M 8.64 87.36 
L 279.36 87.36 
" clip-path="url(#pf79c37e011)" style="fill: none; stroke: #b2b2b2; stroke-opacity: 0.35; stroke-width: 0.5; stroke-linecap: square"/>
   </g>
   <g id="line2d_2">
    <path d="M 8.64 66.72 
L 279.36 66.72 
" clip-path="url(#pf79c37e011)" style="fill: none; stroke: #b2b2b2; stroke-opacity: 0.35; stroke-width: 0.5; stroke-linecap: square"/>
   </g>
   <g id="line2d_3">
    <path d="M 8.64 46.08 
L 279.36 46.08 
" clip-path="url(#pf79c37e011)" style="fill: none; stroke: #b2b2b2; stroke-opacity: 0.35; stroke-width: 0.5; stroke-linecap: square"/>
   </g>
   <g id="line2d_4">
    <path d="M 8.64 25.44 
L 279.36 25.44 
" clip-path="url(#pf79c37e011)" style="fill: none; stroke: #b2b2b2; stroke-opacity: 0.35; stroke-width: 0.5; stroke-linecap: square"/>
   </g>
   <g id="line2d_5">
    <path d="M 8.64 87.94824 
L 11.659628 89.2692 
L 14.679256 88.72224 
L 17.698884 89.39304 
L 20.718512 89.40336 
L 23.73814 88.41264 
L 26.757768 88.4952 
L 29.777396 86.86464 
L 32.797024 86.42088 
L 35.816652 87.62832 
L 38.836281 86.93688 
L 41.855909 87.23616 
L 44.875537 88.63968 
L 47.895165 90.0432 
L 50.914793 92.12784 
L 53.934421 91.16808 
L 56.954049 91.46736 
L 59.973677 91.73568 
L 62.993305 91.78728 
L 66.012933 94.0164 
L 69.032561 92.5716 
L 72.052189 91.76664 
L 75.071817 92.33424 
L 78.091445 94.36728 
L 81.111073 94.46016 
L 84.130701 97.71096 
L 87.150329 98.48496 
L 90.169957 97.85544 
L 92.719202 99.10416 
L 95.118862 100.16712 
L 98.136952 102.23112 
L 101.143649 100.54896 
L 104.232302 100.70376 
L 107.227012 100.68312 
L 110.26387 100.95144 
L 113.277242 101.28168 
L 116.286001 101.71512 
L 119.30472 101.84928 
L 122.288036 101.034 
L 125.148329 100.54896 
L 128.361647 101.04432 
L 131.001969 100.81728 
L 134.396115 101.034 
L 137.412073 101.4984 
L 140.414052 101.33328 
L 143.415227 101.1372 
L 146.46935 101.06496 
L 149.498065 102.09696 
L 152.262597 102.05568 
L 155.526452 101.4984 
L 158.532624 100.60056 
L 161.54652 100.80696 
L 164.53057 101.45712 
L 167.618804 100.55928 
L 170.607257 101.10624 
L 173.63391 100.8792 
L 176.636622 100.74504 
L 179.662751 100.21872 
L 182.680946 100.53864 
L 185.677403 101.07528 
L 188.726353 101.38488 
L 191.755033 101.26104 
L 194.755264 100.78632 
L 197.773704 100.91016 
L 200.805215 100.99272 
L 203.819006 100.38384 
L 206.834615 100.50768 
L 209.912015 100.60056 
L 212.94017 99.76464 
L 215.906955 99.49632 
L 218.949615 99.40344 
L 221.970082 100.09488 
L 224.960317 100.3632 
L 227.962261 100.19808 
L 231.027044 100.47672 
L 234.053766 100.79664 
L 237.045435 100.26 
L 240.289962 99.83688 
L 243.121423 100.13616 
L 246.14486 100.80696 
L 249.13562 101.38488 
L 252.196384 101.3436 
L 255.224644 101.292 
L 258.225225 101.28168 
L 261.27075 101.28168 
L 264.250606 101.8596 
L 267.273694 101.88024 
L 270.26746 101.72544 
L 273.332557 101.68416 
L 276.359979 101.47776 
L 279.36 101.78736 
" clip-path="url(#pf79c37e011)" style="fill: none; stroke: #bebebe; stroke-width: 0.5; stroke-linecap: round"/>
   </g>
   <g id="line2d_6">
    <path d="M 8.64 70.6932 
L 11.659628 72.62304 
L 14.679256 73.52088 
L 17.698884 73.83048 
L 20.718512 73.8408 
L 23.73814 73.29384 
L 26.757768 73.72728 
L 29.777396 70.32168 
L 32.797024 69.77472 
L 35.816652 70.34232 
L 38.836281 70.67256 
L 41.855909 70.51776 
L 44.875537 70.848 
L 47.895165 72.31344 
L 50.914793 76.01832 
L 53.934421 75.41976 
L 56.954049 75.83256 
L 59.973677 75.79128 
L 62.993305 75.82224 
L 66.012933 77.82432 
L 69.032561 76.14216 
L 72.052189 74.75928 
L 75.071817 74.96568 
L 78.091445 77.75208 
L 81.111073 79.48584 
L 84.130701 83.31456 
L 87.150329 85.90488 
L 90.169957 84.79032 
L 92.719202 85.84296 
L 95.118862 88.25784 
L 98.136952 91.41576 
L 101.143649 88.7532 
L 104.232302 88.65 
L 107.227012 88.55712 
L 110.26387 88.96992 
L 113.277242 89.7336 
L 116.286001 90.456 
L 119.30472 90.56952 
L 122.288036 89.15568 
L 125.148329 88.9596 
L 128.361647 90.6624 
L 131.001969 89.94 
L 134.396115 90.00192 
L 137.412073 90.3528 
L 140.414052 90.62112 
L 143.415227 90.5076 
L 146.46935 90.3528 
L 149.498065 92.004 
L 152.262597 92.13816 
L 155.526452 91.25064 
L 158.532624 89.166 
L 161.54652 89.56848 
L 164.53057 90.93072 
L 167.618804 89.41368 
L 170.607257 90.37344 
L 173.63391 89.79552 
L 176.636622 90.23928 
L 179.662751 88.0824 
L 182.680946 88.7532 
L 185.677403 90.16704 
L 188.726353 90.67272 
L 191.755033 90.18768 
L 194.755264 89.2692 
L 197.773704 89.54784 
L 200.805215 89.49624 
L 203.819006 88.31976 
L 206.834615 88.45392 
L 209.912015 88.46424 
L 212.94017 86.38992 
L 215.906955 84.80064 
L 218.949615 84.8316 
L 221.970082 86.586 
L 224.960317 87.74184 
L 227.962261 87.618 
L 231.027044 88.19592 
L 234.053766 89.08344 
L 237.045435 87.89664 
L 240.289962 87.3084 
L 243.121423 87.65928 
L 246.14486 88.96992 
L 249.13562 90.07416 
L 252.196384 89.76456 
L 255.224644 89.3724 
L 258.225225 89.00088 
L 261.27075 88.42296 
L 264.250606 88.81512 
L 267.273694 89.10408 
L 270.26746 89.14536 
L 273.332557 89.07312 
L 276.359979 87.9792 
L 279.36 88.29912 
" clip-path="url(#pf79c37e011)" style="fill: none; stroke: #4a8dff; stroke-width: 0.6"/>
   </g>
   <g id="line2d_7">
    <path d="M 8.64 79.66128 
L 11.659628 82.15872 
L 14.679256 82.43736 
L 17.698884 82.93272 
L 20.718512 83.00496 
L 23.73814 82.6128 
L 26.757768 82.28256 
L 29.777396 78.01008 
L 32.797024 76.19376 
L 35.816652 77.66952 
L 38.836281 77.74176 
L 41.855909 78.1752 
L 44.875537 79.5684 
L 47.895165 80.8068 
L 50.914793 85.20312 
L 53.934421 84.12984 
L 56.954049 84.03696 
L 59.973677 84.06792 
L 62.993305 84.3156 
L 66.012933 87.02976 
L 69.032561 85.21344 
L 72.052189 84.28464 
L 75.071817 84.32592 
L 78.091445 89.08344 
L 81.111073 89.5272 
L 84.130701 95.14128 
L 87.150329 96.98856 
L 90.169957 95.08968 
L 92.719202 97.71096 
L 95.118862 99.80592 
L 98.136952 101.79768 
L 101.143649 100.03296 
L 104.232302 100.518 
L 107.227012 99.98136 
L 110.26387 100.49736 
L 113.277242 100.78632 
L 116.286001 101.07528 
L 119.30472 101.26104 
L 122.288036 100.63152 
L 125.148329 100.38384 
L 128.361647 100.84824 
L 131.001969 100.65216 
L 134.396115 101.034 
L 137.412073 101.19912 
L 140.414052 101.10624 
L 143.415227 100.97208 
L 146.46935 100.91016 
L 149.498065 101.7564 
L 152.262597 101.84928 
L 155.526452 101.56032 
L 158.532624 100.85856 
L 161.54652 101.12688 
L 164.53057 101.4468 
L 167.618804 101.02368 
L 170.607257 101.30232 
L 173.63391 100.81728 
L 176.636622 100.79664 
L 179.662751 99.3312 
L 182.680946 99.92976 
L 185.677403 100.78632 
L 188.726353 101.17848 
L 191.755033 101.1372 
L 194.755264 100.21872 
L 197.773704 100.37352 
L 200.805215 100.4664 
L 203.819006 99.88848 
L 206.834615 99.94008 
L 209.912015 99.81624 
L 212.94017 98.93904 
L 215.906955 98.3508 
L 218.949615 98.52624 
L 221.970082 99.78528 
L 224.960317 100.12584 
L 227.962261 100.03296 
L 231.027044 100.45608 
L 234.053766 100.83792 
L 237.045435 100.11552 
L 240.289962 99.87816 
L 243.121423 100.002 
L 246.14486 100.64184 
L 249.13562 101.41584 
L 252.196384 101.21976 
L 255.224644 101.14752 
L 258.225225 101.00304 
L 261.27075 100.86888 
L 264.250606 101.21976 
L 267.273694 101.28168 
L 270.26746 101.20944 
L 273.332557 101.14752 
L 276.359979 100.55928 
L 279.36 100.65216 
" clip-path="url(#pf79c37e011)" style="fill: none; stroke: #f5841e; stroke-width: 0.6"/>
   </g>
  </g>
 </g>
 <defs>
  <clipPath id="pf79c37e011">
   <rect x="8.64" y="4.8" width="270.72" height="103.2"/>
  </clipPath>
 </defs>
</svg>
