<?xml version="1.0" encoding="utf-8" standalone="no"?>
<!DOCTYPE svg PUBLIC "-//W3C//DTD SVG 1.1//EN"
  "http://www.w3.org/Graphics/SVG/1.1/DTD/svg11.dtd">
<svg xmlns:xlink="http://www.w3.org/1999/xlink" width="288pt" height="120pt" viewBox="0 0 288 120" xmlns="http://www.w3.org/2000/svg" version="1.1">
<desc id="nav-meta">{"window":"1y","count":4,"labels":["29.05","28.09","27.01","29.05"],"tick_utc":["2025-05-29T12:00:00Z","2025-09-28T12:00:00Z","2026-01-27T12:00:00Z","2026-05-29T04:59:49Z"],"w":720,"h":300}</desc>

 <metadata>
  <rdf:RDF xmlns:dc="http://purl.org/dc/elements/1.1/" xmlns:cc="http://creativecommons.org/ns#" xmlns:rdf="http://www.w3.org/1999/02/22-rdf-syntax-ns#">
   <cc:Work>
    <dc:type rdf:resource="http://purl.org/dc/dcmitype/StillImage"/>
    <dc:date>2026-05-29T10:33:59.009998</dc:date>
    <dc:format>image/svg+xml</dc:format>
    <dc:creator>
     <cc:Agent>
      <dc:title>Matplotlib v3.10.9, https://matplotlib.org/</dc:title>
     </cc:Agent>
    </dc:creator>
   </cc:Work>
  </rdf:RDF>
 </metadata>
 <defs>
  <style type="text/css">*{stroke-linejoin: round; stroke-linecap: butt}</style>
 </defs>
 <g id="figure_1">
  <g id="patch_1">
   <path d="M 0 120 
L 288 120 
L 288 0 
L 0 0 
L 0 120 
z
" style="fill: none; opacity: 0"/>
  </g>
  <g id="axes_1">
   <g id="patch_2">
    <path d="M 8.64 108 
L 279.36 108 
L 279.36 4.8 
L 8.64 4.8 
L 8.64 108 
z
" style="fill: none"/>
   </g>
   <g id="matplotlib.axis_1"/>
   <g id="matplotlib.axis_2"/>
   <g id="line2d_1">
    <path d="M 8.64 87.36 
L 279.36 87.36 
" clip-path="url(#pcefb90bdea)" style="fill: none; stroke: #b2b2b2; stroke-opacity: 0.35; stroke-width: 0.5; stroke-linecap: square"/>
   </g>
   <g id="line2d_2">
    <path d="M 8.64 66.72 
L 279.36 66.72 
" clip-path="url(#pcefb90bdea)" style="fill: none; stroke: #b2b2b2; stroke-opacity: 0.35; stroke-width: 0.5; stroke-linecap: square"/>
   </g>
   <g id="line2d_3">
    <path d="M 8.64 46.08 
L 279.36 46.08 
" clip-path="url(#pcefb90bdea)" style="fill: none; stroke: #b2b2b2; stroke-opacity: 0.35; stroke-width: 0.5; stroke-linecap: square"/>
   </g>
   <g id="line2d_4">
    <path d="M 8.64 25.44 
L 279.36 25.44 
" clip-path="url(#pcefb90bdea)" style="fill: none; stroke: #b2b2b2; stroke-opacity: 0.35; stroke-width: 0.5; stroke-linecap: square"/>
   </g>
   <g id="line2d_5">
    <path d="M 8.64 79.47552 
L 9.382292 80.92032 
L 10.124584 83.73768 
L 10.866876 83.6448 
L 11.609168 83.4384 
L 12.35146 83.61384 
L 13.093752 83.99568 
L 13.836044 84.55296 
L 14.578336 87.00912 
L 15.320628 85.98744 
L 16.06292 85.5024 
L 16.805212 84.8316 
L 17.547505 82.46832 
L 18.289797 81.426 
L 19.032089 82.5096 
L 19.774381 84.79032 
L 21.258965 86.95752 
L 22.001257 84.79032 
L 22.743549 85.13088 
L 23.485841 86.07 
L 24.228133 86.5344 
L 24.970425 86.31768 
L 26.455009 89.97096 
L 27.197301 90.48696 
L 27.939593 86.9472 
L 28.681885 86.66856 
L 29.424177 87.32904 
L 30.166469 88.53648 
L 30.908761 87.6696 
L 31.651053 85.30632 
L 32.393345 84.61488 
L 33.135637 84.17112 
L 33.87793 86.3796 
L 34.620222 84.92448 
L 35.362514 84.89352 
L 36.104806 86.13192 
L 36.847098 86.1732 
L 37.58939 84.99672 
L 38.331682 85.85328 
L 39.073974 85.01736 
L 39.816266 83.55192 
L 40.558558 81.7356 
L 41.30085 82.03488 
L 42.043142 82.65408 
L 43.527726 82.15872 
L 44.270018 81.70464 
L 45.01231 79.01112 
L 45.754602 78.39192 
L 46.496894 78.04104 
L 47.239186 78.16488 
L 47.981478 77.05032 
L 48.72377 72.82944 
L 49.466062 70.41456 
L 50.208355 74.69736 
L 50.950647 76.6272 
L 51.692939 75.63648 
L 52.435231 75.97704 
L 53.177523 74.976 
L 53.919815 76.49304 
L 54.662107 76.99872 
L 55.404399 77.90688 
L 56.146691 79.4652 
L 56.888983 82.02456 
L 57.631275 83.19072 
L 58.373567 82.27224 
L 59.115859 80.21856 
L 59.858151 81.67368 
L 60.600443 80.5488 
L 61.342735 78.588 
L 62.085027 78.19584 
L 62.827319 77.21544 
L 63.569611 76.524 
L 64.311903 78.68088 
L 65.054195 73.88208 
L 65.796487 71.364 
L 66.538779 73.8408 
L 67.281072 75.79128 
L 68.023364 74.65608 
L 68.765656 74.14008 
L 69.507948 76.50336 
L 70.25024 78.30936 
L 70.992532 75.3372 
L 71.734824 77.25672 
L 72.477116 71.78712 
L 73.219408 70.75512 
L 73.9617 70.24944 
L 74.703992 75.35784 
L 75.446284 72.95328 
L 76.188576 70.96152 
L 76.930868 67.87584 
L 77.67316 70.46616 
L 78.415452 71.11632 
L 79.157744 71.61168 
L 79.900036 72.7056 
L 80.642328 69.33096 
L 81.38462 68.9388 
L 82.126912 71.12664 
L 82.869204 70.90992 
L 83.611497 71.80776 
L 84.353789 70.074 
L 85.096081 68.01 
L 85.838373 67.10184 
L 86.580665 65.29584 
L 87.322957 64.01616 
L 88.065249 60.31128 
L 88.807541 60.19776 
L 89.549833 60.786 
L 90.292125 62.61264 
L 91.034417 61.74576 
L 91.776709 59.57856 
L 92.519001 58.86648 
L 93.261293 61.38456 
L 94.003585 61.07496 
L 94.745877 61.83864 
L 95.488169 66.29688 
L 96.230461 67.97904 
L 96.972753 68.69112 
L 97.715045 73.9956 
L 98.457337 70.45584 
L 99.199629 70.87896 
L 99.941922 68.91816 
L 100.684214 68.3196 
L 101.426506 69.47544 
L 102.91109 62.39592 
L 103.653382 62.81904 
L 104.395674 64.22256 
L 105.137966 64.05744 
L 105.880258 62.9532 
L 106.62255 66.14208 
L 107.364842 63.91296 
L 108.107134 66.17304 
L 108.849426 74.6148 
L 109.591718 77.78304 
L 110.33401 72.66432 
L 111.076302 69.69216 
L 111.818594 71.09568 
L 113.303178 76.06992 
L 114.04547 76.76136 
L 114.787762 75.25464 
L 115.530054 75.24432 
L 116.272346 74.63544 
L 117.014639 75.73968 
L 117.756931 77.31864 
L 118.499223 74.202 
L 119.241515 73.64472 
L 119.983807 73.48992 
L 120.726099 71.83872 
L 121.468391 72.17928 
L 122.210683 73.38672 
L 122.952975 73.43832 
L 123.695267 76.15248 
L 124.437559 75.3372 
L 125.179851 75.58488 
L 125.922143 75.35784 
L 126.664435 81.168 
L 127.406727 84.01632 
L 128.149019 82.06584 
L 128.891311 84.19176 
L 129.633603 82.27224 
L 130.375895 83.29392 
L 131.118187 81.62208 
L 131.860479 80.72424 
L 132.602771 84.33624 
L 133.345064 84.64584 
L 134.087356 86.844 
L 134.829648 88.52616 
L 135.57194 88.36104 
L 136.314232 88.93896 
L 137.056524 90.79656 
L 137.798816 88.09272 
L 138.541108 89.22792 
L 139.2834 90.00192 
L 140.025692 91.39512 
L 140.767984 91.63248 
L 141.510276 90.75528 
L 142.252568 88.7016 
L 142.99486 88.52616 
L 143.737152 87.45288 
L 144.479444 88.0308 
L 145.221736 88.94928 
L 146.70632 89.7336 
L 147.448612 91.86984 
L 148.190904 88.60872 
L 148.933196 86.87496 
L 150.417781 90.11544 
L 151.902365 90.53856 
L 152.644657 90.08448 
L 153.386949 88.79448 
L 154.129241 89.20728 
L 154.871533 89.22792 
L 155.613825 90.31152 
L 156.356117 90.10512 
L 157.098409 91.09584 
L 157.840701 91.61184 
L 158.582993 91.31256 
L 159.325285 92.87088 
L 160.067577 93.8616 
L 160.809869 92.02464 
L 161.552161 92.13816 
L 162.294453 92.07624 
L 163.036745 92.14848 
L 165.263621 93.69648 
L 166.748206 92.44776 
L 167.490498 92.30328 
L 168.23279 92.87088 
L 168.975082 92.38584 
L 169.717374 92.47872 
L 170.459666 91.88016 
L 171.201958 90.42504 
L 171.94425 90.08448 
L 172.686542 89.92968 
L 173.428834 88.76352 
L 174.171126 87.94824 
L 174.913418 89.2692 
L 175.65571 88.72224 
L 176.398002 89.39304 
L 177.140294 89.40336 
L 177.882586 88.41264 
L 178.624878 88.4952 
L 179.36717 86.86464 
L 180.109462 86.42088 
L 180.851754 87.62832 
L 181.594046 86.93688 
L 182.336338 87.23616 
L 183.820923 90.0432 
L 184.563215 92.12784 
L 185.305507 91.16808 
L 186.790091 91.73568 
L 187.532383 91.78728 
L 188.274675 94.0164 
L 189.016967 92.5716 
L 189.759259 91.76664 
L 190.501551 92.33424 
L 191.243843 94.36728 
L 191.986135 94.46016 
L 192.728427 97.71096 
L 193.470719 98.48496 
L 194.213011 97.85544 
L 195.429563 100.16712 
L 196.171477 102.23112 
L 196.91059 100.54896 
L 197.66985 100.70376 
L 198.406016 100.68312 
L 199.893298 101.28168 
L 200.632918 101.71512 
L 201.374987 101.84928 
L 202.108352 101.034 
L 202.811477 100.54896 
L 203.601382 101.04432 
L 204.250432 100.81728 
L 205.084789 101.034 
L 205.826179 101.4984 
L 208.05266 101.06496 
L 208.797186 102.09696 
L 209.476769 102.05568 
L 210.279098 101.4984 
L 211.018082 100.60056 
L 211.758965 100.80696 
L 212.492511 101.45712 
L 213.251668 100.55928 
L 213.986297 101.10624 
L 215.468449 100.74504 
L 216.212339 100.21872 
L 216.954279 100.53864 
L 217.690875 101.07528 
L 218.440375 101.38488 
L 219.184893 101.26104 
L 219.922416 100.78632 
L 221.409629 100.99272 
L 222.150487 100.38384 
L 223.648284 100.60056 
L 224.392673 99.76464 
L 225.121975 99.49632 
L 225.869928 99.40344 
L 226.612427 100.09488 
L 227.347493 100.3632 
L 228.085438 100.19808 
L 229.582866 100.79664 
L 230.318285 100.26 
L 231.115863 99.83688 
L 231.811899 100.13616 
L 233.290323 101.38488 
L 236.273409 101.28168 
L 237.005924 101.8596 
L 237.749067 101.88024 
L 238.485001 101.72544 
L 239.238471 101.68416 
L 239.982679 101.47776 
L 240.720151 101.78736 
L 241.463646 101.09592 
L 242.203352 101.46744 
L 242.952474 101.3436 
L 243.683417 101.05464 
L 244.439025 101.3952 
L 245.185123 101.47776 
L 245.92269 100.86888 
L 246.664415 101.26104 
L 248.884805 100.44576 
L 249.6369 100.94112 
L 250.38103 101.09592 
L 251.120066 101.00304 
L 251.860056 100.69344 
L 252.605355 100.9308 
L 254.836887 100.8792 
L 255.587178 100.64184 
L 256.331025 101.1888 
L 257.07129 101.09592 
L 257.814827 101.37456 
L 258.56523 101.21976 
L 260.045939 101.23008 
L 260.787973 100.92048 
L 261.513916 101.06496 
L 262.269284 100.70376 
L 263.011774 100.55928 
L 263.741711 100.53864 
L 264.486718 99.60984 
L 265.243968 99.72336 
L 266.724102 99.25896 
L 267.469925 99.32088 
L 268.211392 100.22904 
L 268.957344 100.01232 
L 270.443535 100.75536 
L 271.193035 101.02368 
L 271.930009 101.02368 
L 272.674956 101.17848 
L 273.421475 100.7244 
L 274.158079 100.75536 
L 274.890173 101.11656 
L 275.644218 100.91016 
L 276.396279 100.89984 
L 277.127325 101.1372 
L 277.877237 101.2404 
L 278.617158 101.6532 
L 279.36 101.4984 
L 279.36 101.4984 
" clip-path="url(#pcefb90bdea)" style="fill: none; stroke: #bebebe; stroke-width: 0.5; stroke-linecap: round"/>
   </g>
   <g id="line2d_6">
    <path d="M 8.64 79.86768 
L 9.382292 80.50752 
L 10.124584 82.12776 
L 11.609168 81.92136 
L 12.35146 80.8584 
L 13.093752 81.07512 
L 13.836044 80.84808 
L 14.578336 83.6448 
L 15.320628 82.7676 
L 16.06292 82.0968 
L 16.805212 82.3548 
L 17.547505 79.74384 
L 18.289797 77.90688 
L 19.032089 78.39192 
L 19.774381 80.21856 
L 20.516673 81.34344 
L 21.258965 81.98328 
L 22.743549 81.5808 
L 23.485841 82.26192 
L 24.970425 82.15872 
L 25.712717 83.88216 
L 26.455009 85.89456 
L 27.197301 86.5344 
L 27.939593 83.61384 
L 28.681885 83.2836 
L 29.424177 83.71704 
L 30.166469 83.748 
L 31.651053 83.41776 
L 32.393345 82.44768 
L 33.135637 82.6644 
L 33.87793 83.89248 
L 34.620222 81.38472 
L 35.362514 81.14736 
L 36.104806 82.34448 
L 36.847098 82.23096 
L 37.58939 81.426 
L 38.331682 81.8388 
L 39.073974 80.76552 
L 40.558558 75.83256 
L 41.30085 75.67776 
L 42.043142 75.91512 
L 43.527726 74.88312 
L 44.270018 73.09776 
L 45.01231 69.6096 
L 45.754602 67.91712 
L 46.496894 66.94704 
L 47.239186 66.24528 
L 47.981478 63.80976 
L 48.72377 63.70656 
L 49.466062 63.9852 
L 50.208355 65.71896 
L 50.950647 64.5528 
L 52.435231 64.05744 
L 53.177523 62.25144 
L 53.919815 63.39696 
L 54.662107 63.366 
L 55.404399 63.08736 
L 56.146691 64.72824 
L 56.888983 67.89648 
L 57.631275 69.16584 
L 58.373567 67.69008 
L 59.115859 64.4496 
L 59.858151 65.97696 
L 60.600443 64.914 
L 61.342735 61.54968 
L 62.085027 60.04296 
L 62.827319 56.28648 
L 63.569611 56.47224 
L 64.311903 56.83344 
L 65.054195 51.22968 
L 65.796487 48.89736 
L 66.538779 52.00368 
L 67.281072 53.84064 
L 68.023364 53.90256 
L 68.765656 53.00472 
L 69.507948 55.5228 
L 70.25024 59.12448 
L 70.992532 55.32672 
L 71.734824 56.90568 
L 72.477116 47.92728 
L 73.219408 48.75288 
L 73.9617 48.68064 
L 74.703992 54.57336 
L 75.446284 51.2916 
L 76.188576 52.80864 
L 76.930868 52.69512 
L 77.67316 54.82104 
L 79.157744 54.45984 
L 79.900036 55.7292 
L 80.642328 55.39896 
L 81.38462 53.55168 
L 82.126912 55.81176 
L 82.869204 55.6776 
L 83.611497 56.18328 
L 84.353789 55.71888 
L 85.838373 55.63632 
L 86.580665 55.07904 
L 87.322957 53.41752 
L 88.065249 49.71264 
L 88.807541 50.32152 
L 89.549833 51.17808 
L 90.292125 52.44744 
L 91.034417 52.74672 
L 91.776709 51.4464 
L 92.519001 51.46704 
L 93.261293 53.2524 
L 94.003585 53.08728 
L 94.745877 53.5104 
L 95.488169 57.26688 
L 96.230461 57.76224 
L 96.972753 58.02024 
L 97.715045 62.26176 
L 98.457337 59.68176 
L 99.199629 59.9604 
L 99.941922 58.12344 
L 100.684214 57.02952 
L 101.426506 58.09248 
L 102.168798 55.13064 
L 102.91109 53.046 
L 103.653382 52.5816 
L 104.395674 52.9944 
L 105.137966 52.5816 
L 105.880258 50.0016 
L 106.62255 53.48976 
L 107.364842 52.40616 
L 108.107134 54.75912 
L 108.849426 62.67456 
L 109.591718 63.95424 
L 110.33401 57.86544 
L 111.076302 56.57544 
L 111.818594 58.31952 
L 112.560886 60.4764 
L 113.303178 61.85928 
L 114.04547 62.73648 
L 114.787762 61.8696 
L 115.530054 60.45576 
L 116.272346 60.54864 
L 117.014639 62.04504 
L 117.756931 63.16992 
L 118.499223 62.36496 
L 119.241515 61.21944 
L 119.983807 60.9408 
L 120.726099 57.83448 
L 121.468391 58.40208 
L 122.210683 60.49704 
L 123.695267 63.1596 
L 124.437559 62.49912 
L 125.179851 62.1276 
L 125.922143 61.56 
L 127.406727 70.66224 
L 128.149019 68.72208 
L 128.891311 70.4868 
L 129.633603 68.61888 
L 130.375895 69.11424 
L 131.118187 66.5136 
L 131.860479 66.68904 
L 132.602771 68.8872 
L 133.345064 68.9904 
L 134.087356 71.5704 
L 134.829648 73.48992 
L 135.57194 72.54048 
L 137.056524 74.74896 
L 137.798816 73.3248 
L 138.541108 74.80056 
L 139.2834 77.556 
L 140.025692 78.55704 
L 140.767984 78.50544 
L 141.510276 78.04104 
L 142.252568 75.76032 
L 142.99486 75.73968 
L 143.737152 74.65608 
L 144.479444 74.83152 
L 145.221736 74.57352 
L 145.964028 75.20304 
L 146.70632 75.17208 
L 147.448612 78.05136 
L 148.933196 72.16896 
L 149.675489 73.08744 
L 150.417781 74.72832 
L 151.902365 74.28456 
L 152.644657 73.21128 
L 153.386949 70.2804 
L 154.129241 70.2288 
L 154.871533 71.56008 
L 155.613825 73.79952 
L 156.356117 73.35576 
L 157.098409 74.0988 
L 157.840701 75.5952 
L 158.582993 75.5952 
L 159.325285 77.61792 
L 160.067577 77.63856 
L 160.809869 75.40944 
L 161.552161 75.40944 
L 162.294453 75.04824 
L 163.036745 74.98632 
L 163.779037 75.58488 
L 164.521329 75.87384 
L 165.263621 76.49304 
L 166.748206 75.82224 
L 167.490498 75.84288 
L 168.23279 76.03896 
L 168.975082 75.51264 
L 169.717374 75.56424 
L 170.459666 75.05856 
L 171.201958 73.26288 
L 171.94425 73.20096 
L 172.686542 73.00488 
L 173.428834 71.68392 
L 174.171126 70.6932 
L 174.913418 72.62304 
L 175.65571 73.52088 
L 176.398002 73.83048 
L 177.140294 73.8408 
L 177.882586 73.29384 
L 178.624878 73.72728 
L 179.36717 70.32168 
L 180.109462 69.77472 
L 180.851754 70.34232 
L 181.594046 70.67256 
L 182.336338 70.51776 
L 183.078631 70.848 
L 183.820923 72.31344 
L 184.563215 76.01832 
L 185.305507 75.41976 
L 186.047799 75.83256 
L 187.532383 75.82224 
L 188.274675 77.82432 
L 189.016967 76.14216 
L 189.759259 74.75928 
L 190.501551 74.96568 
L 191.243843 77.75208 
L 191.986135 79.48584 
L 192.728427 83.31456 
L 193.470719 85.90488 
L 194.213011 84.79032 
L 194.839672 85.84296 
L 196.171477 91.41576 
L 196.91059 88.7532 
L 198.406016 88.55712 
L 199.152544 88.96992 
L 200.632918 90.456 
L 201.374987 90.56952 
L 202.108352 89.15568 
L 202.811477 88.9596 
L 203.601382 90.6624 
L 204.250432 89.94 
L 205.084789 90.00192 
L 206.564132 90.62112 
L 208.05266 90.3528 
L 208.797186 92.004 
L 209.476769 92.13816 
L 210.279098 91.25064 
L 211.018082 89.166 
L 211.758965 89.56848 
L 212.492511 90.93072 
L 213.251668 89.41368 
L 213.986297 90.37344 
L 214.730316 89.79552 
L 215.468449 90.23928 
L 216.212339 88.0824 
L 216.954279 88.7532 
L 217.690875 90.16704 
L 218.440375 90.67272 
L 219.184893 90.18768 
L 219.922416 89.2692 
L 220.664416 89.54784 
L 221.409629 89.49624 
L 222.150487 88.31976 
L 222.891791 88.45392 
L 223.648284 88.46424 
L 224.392673 86.38992 
L 225.121975 84.80064 
L 225.869928 84.8316 
L 226.612427 86.586 
L 227.347493 87.74184 
L 228.085438 87.618 
L 228.83883 88.19592 
L 229.582866 89.08344 
L 230.318285 87.89664 
L 231.115863 87.3084 
L 231.811899 87.65928 
L 233.290323 90.07416 
L 234.787141 89.3724 
L 235.524751 89.00088 
L 236.273409 88.42296 
L 237.749067 89.10408 
L 238.485001 89.14536 
L 239.238471 89.07312 
L 239.982679 87.9792 
L 240.720151 88.29912 
L 241.463646 86.38992 
L 242.203352 87.24648 
L 242.952474 87.1536 
L 243.683417 86.21448 
L 245.185123 87.01944 
L 245.92269 84.44976 
L 246.664415 85.05864 
L 247.40992 84.58392 
L 248.1507 85.04832 
L 248.884805 83.71704 
L 249.6369 84.86256 
L 250.38103 85.6572 
L 251.120066 85.27536 
L 251.860056 84.49104 
L 253.349614 85.32696 
L 254.083049 85.17216 
L 254.836887 85.31664 
L 255.587178 84.11952 
L 256.331025 85.66752 
L 257.07129 85.26504 
L 257.814827 86.26608 
L 259.288578 85.38888 
L 260.045939 85.3992 
L 260.787973 84.09888 
L 262.269284 84.34656 
L 263.741711 85.7604 
L 264.486718 85.0896 
L 265.992119 84.9348 
L 266.724102 85.296 
L 267.469925 85.35792 
L 268.211392 86.1732 
L 268.957344 85.92552 
L 270.443535 87.13296 
L 271.193035 88.10304 
L 271.930009 87.9276 
L 272.674956 88.26816 
L 273.421475 87.78312 
L 274.158079 87.95856 
L 274.890173 88.94928 
L 275.644218 88.14432 
L 277.127325 88.52616 
L 277.877237 88.86672 
L 278.617158 90.22896 
L 279.36 89.82648 
L 279.36 89.82648 
" clip-path="url(#pcefb90bdea)" style="fill: none; stroke: #4a8dff; stroke-width: 0.6"/>
   </g>
   <g id="line2d_7">
    <path d="M 8.64 64.97592 
L 9.382292 67.14312 
L 10.124584 68.9388 
L 10.866876 68.23704 
L 11.609168 67.1844 
L 12.35146 66.99864 
L 13.093752 67.47336 
L 13.836044 68.1132 
L 14.578336 71.38464 
L 15.320628 68.526 
L 16.06292 67.21536 
L 16.805212 67.20504 
L 17.547505 62.46816 
L 18.289797 62.51976 
L 19.032089 64.10904 
L 19.774381 66.90576 
L 20.516673 66.83352 
L 21.258965 67.42176 
L 22.001257 67.3392 
L 22.743549 65.8944 
L 23.485841 68.24736 
L 24.970425 68.23704 
L 25.712717 69.69216 
L 26.455009 71.50848 
L 27.197301 72.21024 
L 27.939593 67.3908 
L 28.681885 66.90576 
L 29.424177 65.59512 
L 30.166469 65.86344 
L 30.908761 65.76024 
L 31.651053 65.50224 
L 32.393345 64.398 
L 33.135637 65.70864 
L 33.87793 67.2876 
L 34.620222 63.95424 
L 35.362514 63.14928 
L 36.104806 64.76952 
L 36.847098 64.58376 
L 37.58939 63.55176 
L 38.331682 64.5012 
L 39.073974 63.82008 
L 39.816266 61.36392 
L 40.558558 56.64768 
L 41.30085 54.89328 
L 42.043142 55.04808 
L 42.785434 53.29368 
L 43.527726 52.55064 
L 44.270018 54.77976 
L 45.01231 53.67552 
L 45.754602 52.95312 
L 46.496894 54.45984 
L 47.239186 54.55272 
L 47.981478 55.22352 
L 48.72377 54.98616 
L 49.466062 52.4268 
L 50.208355 53.79936 
L 50.950647 54.08832 
L 51.692939 54.92424 
L 52.435231 54.4908 
L 53.177523 52.98408 
L 53.919815 54.44952 
L 54.662107 54.60432 
L 55.404399 54.62496 
L 56.888983 59.38248 
L 57.631275 60.09456 
L 58.373567 58.39176 
L 59.115859 57.41136 
L 59.858151 58.464 
L 60.600443 57.5352 
L 61.342735 55.0068 
L 62.085027 55.81176 
L 62.827319 55.99752 
L 63.569611 53.13888 
L 64.311903 53.64456 
L 65.054195 52.1688 
L 65.796487 48.69096 
L 66.538779 54.0264 
L 67.281072 55.13064 
L 68.023364 54.96552 
L 68.765656 54.92424 
L 69.507948 56.25552 
L 70.25024 59.8572 
L 70.992532 58.32984 
L 71.734824 60.23904 
L 72.477116 55.65696 
L 73.219408 57.18432 
L 73.9617 59.21736 
L 74.703992 62.55072 
L 75.446284 60.82728 
L 76.188576 61.47744 
L 76.930868 60.12552 
L 77.67316 64.31544 
L 78.415452 63.99552 
L 79.157744 64.5528 
L 79.900036 63.60336 
L 80.642328 61.5084 
L 81.38462 60.96144 
L 82.126912 61.98312 
L 82.869204 62.05536 
L 83.611497 62.51976 
L 85.096081 60.64152 
L 85.838373 61.13688 
L 86.580665 58.6188 
L 87.322957 57.03984 
L 88.065249 56.35872 
L 88.807541 56.5548 
L 89.549833 57.174 
L 90.292125 57.14304 
L 91.034417 55.7292 
L 91.776709 56.04912 
L 92.519001 55.33704 
L 93.261293 56.87472 
L 94.003585 56.8128 
L 94.745877 57.24624 
L 95.488169 59.93976 
L 96.230461 60.64152 
L 96.972753 59.29992 
L 97.715045 63.80976 
L 98.457337 63.03576 
L 99.199629 63.09768 
L 100.684214 58.27824 
L 101.426506 58.5672 
L 102.168798 53.93352 
L 102.91109 51.74568 
L 103.653382 50.04288 
L 104.395674 49.90872 
L 105.880258 47.43192 
L 106.62255 50.80656 
L 107.364842 48.90768 
L 108.107134 50.6208 
L 108.849426 59.42376 
L 109.591718 61.85928 
L 110.33401 57.35976 
L 111.076302 57.3288 
L 111.818594 59.46504 
L 113.303178 64.72824 
L 114.04547 66.42072 
L 114.787762 65.688 
L 115.530054 64.17096 
L 116.272346 62.10696 
L 117.014639 64.30512 
L 117.756931 65.20296 
L 118.499223 62.68488 
L 119.241515 61.70448 
L 119.983807 61.06464 
L 120.726099 58.1028 
L 121.468391 58.40208 
L 122.210683 59.68176 
L 122.952975 62.6952 
L 123.695267 64.56312 
L 124.437559 63.18024 
L 125.179851 62.72616 
L 125.922143 62.06568 
L 126.664435 66.33816 
L 127.406727 71.40528 
L 128.149019 69.08328 
L 128.891311 71.7252 
L 129.633603 69.57864 
L 130.375895 70.72416 
L 131.118187 68.2164 
L 131.860479 66.978 
L 132.602771 70.03272 
L 133.345064 71.5188 
L 134.087356 73.3764 
L 134.829648 78.846 
L 135.57194 77.75208 
L 136.314232 78.88728 
L 137.056524 81.34344 
L 137.798816 80.53848 
L 138.541108 82.0452 
L 139.2834 86.92656 
L 140.025692 88.58808 
L 140.767984 88.96992 
L 141.510276 86.7924 
L 142.252568 85.296 
L 142.99486 86.24544 
L 143.737152 82.96368 
L 144.479444 82.13808 
L 145.221736 82.47864 
L 145.964028 82.58184 
L 146.70632 83.03592 
L 147.448612 87.3084 
L 148.190904 82.06584 
L 148.933196 79.71288 
L 149.675489 81.24024 
L 150.417781 84.17112 
L 151.160073 84.24336 
L 151.902365 83.29392 
L 152.644657 82.8192 
L 153.386949 80.64168 
L 154.129241 81.38472 
L 154.871533 80.87904 
L 155.613825 83.13912 
L 156.356117 83.19072 
L 157.840701 87.17424 
L 158.582993 85.71912 
L 159.325285 87.53544 
L 160.067577 88.17528 
L 160.809869 85.41984 
L 162.294453 84.9348 
L 163.036745 85.01736 
L 163.779037 86.14224 
L 164.521329 85.90488 
L 165.263621 86.328 
L 166.005913 86.24544 
L 166.748206 85.72944 
L 167.490498 85.7088 
L 168.23279 86.40024 
L 168.975082 85.09992 
L 169.717374 86.02872 
L 171.201958 83.53128 
L 172.686542 82.03488 
L 173.428834 79.39296 
L 174.171126 79.66128 
L 174.913418 82.15872 
L 175.65571 82.43736 
L 176.398002 82.93272 
L 177.140294 83.00496 
L 178.624878 82.28256 
L 179.36717 78.01008 
L 180.109462 76.19376 
L 180.851754 77.66952 
L 181.594046 77.74176 
L 182.336338 78.1752 
L 183.820923 80.8068 
L 184.563215 85.20312 
L 185.305507 84.12984 
L 186.047799 84.03696 
L 186.790091 84.06792 
L 187.532383 84.3156 
L 188.274675 87.02976 
L 189.016967 85.21344 
L 189.759259 84.28464 
L 190.501551 84.32592 
L 191.243843 89.08344 
L 191.986135 89.5272 
L 192.728427 95.14128 
L 193.470719 96.98856 
L 194.213011 95.08968 
L 195.429563 99.80592 
L 196.171477 101.79768 
L 196.91059 100.03296 
L 197.66985 100.518 
L 198.406016 99.98136 
L 199.152544 100.49736 
L 201.374987 101.26104 
L 202.108352 100.63152 
L 202.811477 100.38384 
L 203.601382 100.84824 
L 204.250432 100.65216 
L 205.084789 101.034 
L 205.826179 101.19912 
L 208.05266 100.91016 
L 208.797186 101.7564 
L 209.476769 101.84928 
L 210.279098 101.56032 
L 211.018082 100.85856 
L 212.492511 101.4468 
L 213.251668 101.02368 
L 213.986297 101.30232 
L 214.730316 100.81728 
L 215.468449 100.79664 
L 216.212339 99.3312 
L 216.954279 99.92976 
L 217.690875 100.78632 
L 218.440375 101.17848 
L 219.184893 101.1372 
L 219.922416 100.21872 
L 221.409629 100.4664 
L 222.150487 99.88848 
L 222.891791 99.94008 
L 223.648284 99.81624 
L 224.392673 98.93904 
L 225.121975 98.3508 
L 225.869928 98.52624 
L 226.612427 99.78528 
L 227.347493 100.12584 
L 228.085438 100.03296 
L 229.582866 100.83792 
L 230.318285 100.11552 
L 231.115863 99.87816 
L 231.811899 100.002 
L 233.290323 101.41584 
L 234.042727 101.21976 
L 235.524751 101.00304 
L 236.273409 100.86888 
L 237.005924 101.21976 
L 237.749067 101.28168 
L 239.238471 101.14752 
L 239.982679 100.55928 
L 240.720151 100.65216 
L 241.463646 99.80592 
L 242.203352 99.96072 
L 242.952474 99.6408 
L 243.683417 99.1764 
L 244.439025 99.70272 
L 245.185123 99.94008 
L 245.92269 98.57784 
L 246.664415 98.65008 
L 247.40992 98.38176 
L 248.1507 98.48496 
L 248.884805 96.70992 
L 249.6369 98.05152 
L 250.38103 98.48496 
L 251.120066 97.96896 
L 251.860056 96.32808 
L 253.349614 96.16296 
L 254.083049 96.1836 
L 254.836887 96.50352 
L 255.587178 94.76976 
L 256.331025 97.19496 
L 257.07129 96.9576 
L 257.814827 97.9896 
L 258.56523 96.89568 
L 259.288578 95.45088 
L 260.045939 95.67792 
L 260.787973 93.43848 
L 262.269284 92.25168 
L 263.011774 92.87088 
L 263.741711 94.2744 
L 264.486718 93.1392 
L 265.243968 92.97408 
L 265.992119 92.9844 
L 266.724102 92.60256 
L 267.469925 92.53032 
L 268.211392 94.54272 
L 268.957344 92.85024 
L 269.69016 94.82136 
L 270.443535 95.75016 
L 271.193035 96.97824 
L 272.674956 97.23624 
L 273.421475 95.94624 
L 274.158079 96.30744 
L 274.890173 98.08248 
L 276.396279 96.61704 
L 277.127325 97.23624 
L 277.877237 98.08248 
L 278.617158 99.18672 
L 279.36 99.03192 
L 279.36 99.03192 
" clip-path="url(#pcefb90bdea)" style="fill: none; stroke: #f5841e; stroke-width: 0.6"/>
   </g>
  </g>
 </g>
 <defs>
  <clipPath id="pcefb90bdea">
   <rect x="8.64" y="4.8" width="270.72" height="103.2"/>
  </clipPath>
 </defs>
</svg>
