<?xml version="1.0" encoding="utf-8" standalone="no"?>
<!DOCTYPE svg PUBLIC "-//W3C//DTD SVG 1.1//EN"
  "http://www.w3.org/Graphics/SVG/1.1/DTD/svg11.dtd">
<svg xmlns:xlink="http://www.w3.org/1999/xlink" width="288pt" height="120pt" viewBox="0 0 288 120" xmlns="http://www.w3.org/2000/svg" version="1.1">
<desc id="nav-meta">{"window":"1m","count":4,"labels":["22.05","01.06","10.06","20.06"],"tick_utc":["2026-05-22T04:48:25Z","2026-06-01T05:29:45Z","2026-06-10T05:05:46Z","2026-06-20T04:59:26Z"],"w":720,"h":300}</desc>

 <metadata>
  <rdf:RDF xmlns:dc="http://purl.org/dc/elements/1.1/" xmlns:cc="http://creativecommons.org/ns#" xmlns:rdf="http://www.w3.org/1999/02/22-rdf-syntax-ns#">
   <cc:Work>
    <dc:type rdf:resource="http://purl.org/dc/dcmitype/StillImage"/>
    <dc:date>2026-06-20T14:55:26.831490</dc:date>
    <dc:format>image/svg+xml</dc:format>
    <dc:creator>
     <cc:Agent>
      <dc:title>Matplotlib v3.11.0, https://matplotlib.org/</dc:title>
     </cc:Agent>
    </dc:creator>
   </cc:Work>
  </rdf:RDF>
 </metadata>
 <defs>
  <style type="text/css">*{stroke-linejoin: round; stroke-linecap: butt}</style>
 </defs>
 <g id="figure_1">
  <g id="patch_1">
   <path d="M 0 120 
L 288 120 
L 288 0 
L 0 0 
L 0 120 
z
" style="fill: none; opacity: 0"/>
  </g>
  <g id="axes_1">
   <g id="patch_2">
    <path d="M 8.64 108 
L 279.36 108 
L 279.36 4.8 
L 8.64 4.8 
L 8.64 108 
z
" style="fill: none"/>
   </g>
   <g id="matplotlib.axis_1"/>
   <g id="matplotlib.axis_2"/>
   <g id="line2d_1">
    <path d="M 8.64 87.36 
L 279.36 87.36 
" clip-path="url(#pa1f1cbf84a)" style="fill: none; stroke: #b2b2b2; stroke-opacity: 0.35; stroke-width: 0.5; stroke-linecap: square"/>
   </g>
   <g id="line2d_2">
    <path d="M 8.64 66.72 
L 279.36 66.72 
" clip-path="url(#pa1f1cbf84a)" style="fill: none; stroke: #b2b2b2; stroke-opacity: 0.35; stroke-width: 0.5; stroke-linecap: square"/>
   </g>
   <g id="line2d_3">
    <path d="M 8.64 46.08 
L 279.36 46.08 
" clip-path="url(#pa1f1cbf84a)" style="fill: none; stroke: #b2b2b2; stroke-opacity: 0.35; stroke-width: 0.5; stroke-linecap: square"/>
   </g>
   <g id="line2d_4">
    <path d="M 8.64 25.44 
L 279.36 25.44 
" clip-path="url(#pa1f1cbf84a)" style="fill: none; stroke: #b2b2b2; stroke-opacity: 0.35; stroke-width: 0.5; stroke-linecap: square"/>
   </g>
   <g id="line2d_5">
    <path d="M 8.64 100.75536 
L 17.844494 101.11656 
L 27.324972 100.91016 
L 36.780498 100.89984 
L 45.971814 101.1372 
L 55.400335 101.2404 
L 64.703233 101.6532 
L 74.042856 101.4984 
L 83.240977 101.48808 
L 92.76423 101.32296 
L 102.234987 101.51904 
L 111.475882 101.7048 
L 120.913586 102.54072 
L 130.214323 103.08768 
L 139.393324 103.36632 
L 148.582588 104.22288 
L 158.115886 103.85136 
L 167.489859 103.68624 
L 176.644449 103.43856 
L 186.073943 103.81008 
L 195.461418 103.72752 
L 204.830747 103.50048 
L 214.09519 103.5108 
L 223.495627 103.31472 
L 233.138564 102.95352 
L 242.524527 102.61296 
L 251.559973 102.6336 
L 260.847964 102.9948 
L 270.40049 103.28376 
L 279.36 103.01544 
" clip-path="url(#pa1f1cbf84a)" style="fill: none; stroke: #bebebe; stroke-width: 0.5; stroke-linecap: round"/>
   </g>
   <g id="line2d_6">
    <path d="M 8.64 87.95856 
L 17.844494 88.94928 
L 27.324972 88.14432 
L 36.780498 88.33008 
L 45.971814 88.52616 
L 55.400335 88.86672 
L 64.703233 90.22896 
L 74.042856 89.82648 
L 83.240977 89.87808 
L 92.76423 89.46528 
L 102.234987 90.0432 
L 111.475882 89.96064 
L 120.913586 91.99368 
L 130.214323 93.05664 
L 139.393324 93.74808 
L 148.582588 97.02984 
L 158.115886 95.93592 
L 167.489859 95.07936 
L 176.644449 94.46016 
L 186.073943 95.47152 
L 195.461418 95.11032 
L 204.830747 94.82136 
L 214.09519 94.8936 
L 223.495627 94.70784 
L 233.138564 94.04736 
L 242.524527 93.40752 
L 251.559973 92.9844 
L 260.847964 93.93384 
L 270.40049 94.4292 
L 279.36 94.19184 
" clip-path="url(#pa1f1cbf84a)" style="fill: none; stroke: #4a8dff; stroke-width: 0.6"/>
   </g>
   <g id="line2d_7">
    <path d="M 8.64 96.30744 
L 17.844494 98.08248 
L 27.324972 97.2672 
L 36.780498 96.61704 
L 45.971814 97.23624 
L 55.400335 98.08248 
L 64.703233 99.18672 
L 74.042856 99.03192 
L 83.240977 99.1248 
L 92.76423 98.74296 
L 102.234987 99.09384 
L 111.475882 100.0536 
L 120.913586 101.23008 
L 130.214323 101.99376 
L 139.393324 102.08664 
L 148.582588 102.8916 
L 158.115886 102.45816 
L 167.489859 102.28272 
L 176.644449 102.10728 
L 186.073943 102.582 
L 195.461418 102.29304 
L 204.830747 102.08664 
L 214.09519 102.066 
L 223.495627 101.86992 
L 233.138564 101.48808 
L 242.524527 101.40552 
L 251.559973 101.4984 
L 260.847964 101.97312 
L 270.40049 102.26208 
L 279.36 102.066 
" clip-path="url(#pa1f1cbf84a)" style="fill: none; stroke: #f5841e; stroke-width: 0.6"/>
   </g>
  </g>
 </g>
 <defs>
  <clipPath id="pa1f1cbf84a">
   <rect x="8.64" y="4.8" width="270.72" height="103.2"/>
  </clipPath>
 </defs>
</svg>
