<?xml version="1.0" encoding="utf-8" standalone="no"?>
<!DOCTYPE svg PUBLIC "-//W3C//DTD SVG 1.1//EN"
  "http://www.w3.org/Graphics/SVG/1.1/DTD/svg11.dtd">
<svg xmlns:xlink="http://www.w3.org/1999/xlink" width="288pt" height="120pt" viewBox="0 0 288 120" xmlns="http://www.w3.org/2000/svg" version="1.1">
<desc id="nav-meta">{"window":"1m","count":4,"labels":["01.06","11.06","20.06","30.06"],"tick_utc":["2026-06-01T05:29:45Z","2026-06-11T05:14:13Z","2026-06-20T04:59:26Z","2026-06-30T04:49:55Z"],"w":720,"h":300}</desc>

 <metadata>
  <rdf:RDF xmlns:dc="http://purl.org/dc/elements/1.1/" xmlns:cc="http://creativecommons.org/ns#" xmlns:rdf="http://www.w3.org/1999/02/22-rdf-syntax-ns#">
   <cc:Work>
    <dc:type rdf:resource="http://purl.org/dc/dcmitype/StillImage"/>
    <dc:date>2026-06-30T10:18:41.028799</dc:date>
    <dc:format>image/svg+xml</dc:format>
    <dc:creator>
     <cc:Agent>
      <dc:title>Matplotlib v3.11.0, https://matplotlib.org/</dc:title>
     </cc:Agent>
    </dc:creator>
   </cc:Work>
  </rdf:RDF>
 </metadata>
 <defs>
  <style type="text/css">*{stroke-linejoin: round; stroke-linecap: butt}</style>
 </defs>
 <g id="figure_1">
  <g id="patch_1">
   <path d="M 0 120 
L 288 120 
L 288 0 
L 0 0 
L 0 120 
z
" style="fill: none; opacity: 0"/>
  </g>
  <g id="axes_1">
   <g id="patch_2">
    <path d="M 8.64 108 
L 279.36 108 
L 279.36 4.8 
L 8.64 4.8 
L 8.64 108 
z
" style="fill: none"/>
   </g>
   <g id="matplotlib.axis_1"/>
   <g id="matplotlib.axis_2"/>
   <g id="line2d_1">
    <path d="M 8.64 87.36 
L 279.36 87.36 
" clip-path="url(#pad90c0ffb9)" style="fill: none; stroke: #b2b2b2; stroke-opacity: 0.35; stroke-width: 0.5; stroke-linecap: square"/>
   </g>
   <g id="line2d_2">
    <path d="M 8.64 66.72 
L 279.36 66.72 
" clip-path="url(#pad90c0ffb9)" style="fill: none; stroke: #b2b2b2; stroke-opacity: 0.35; stroke-width: 0.5; stroke-linecap: square"/>
   </g>
   <g id="line2d_3">
    <path d="M 8.64 46.08 
L 279.36 46.08 
" clip-path="url(#pad90c0ffb9)" style="fill: none; stroke: #b2b2b2; stroke-opacity: 0.35; stroke-width: 0.5; stroke-linecap: square"/>
   </g>
   <g id="line2d_4">
    <path d="M 8.64 25.44 
L 279.36 25.44 
" clip-path="url(#pad90c0ffb9)" style="fill: none; stroke: #b2b2b2; stroke-opacity: 0.35; stroke-width: 0.5; stroke-linecap: square"/>
   </g>
   <g id="line2d_5">
    <path d="M 8.64 101.51904 
L 17.892159 101.7048 
L 27.341365 102.54072 
L 36.653438 103.08768 
L 45.843627 103.36632 
L 55.044091 104.22288 
L 64.589009 103.85136 
L 73.974407 103.68624 
L 83.140155 103.43856 
L 92.581142 103.81008 
L 101.980059 103.72752 
L 111.360807 103.50048 
L 120.636542 103.5108 
L 130.048437 103.31472 
L 139.703127 102.95352 
L 149.10053 102.61296 
L 158.146989 102.6336 
L 167.4463 102.9948 
L 177.010469 103.28376 
L 185.980899 103.01544 
L 195.519437 102.69552 
L 205.137031 102.582 
L 213.922526 102.88128 
L 223.30003 103.15992 
L 232.641628 103.36632 
L 242.033623 103.36632 
L 251.263179 102.81936 
L 260.785386 103.0464 
L 270.197064 102.9432 
L 279.36 102.59232 
" clip-path="url(#pad90c0ffb9)" style="fill: none; stroke: #bebebe; stroke-width: 0.5; stroke-linecap: round"/>
   </g>
   <g id="line2d_6">
    <path d="M 8.64 90.0432 
L 17.892159 89.96064 
L 27.341365 91.99368 
L 36.653438 93.05664 
L 45.843627 93.74808 
L 55.044091 97.02984 
L 64.589009 95.93592 
L 73.974407 95.07936 
L 83.140155 94.46016 
L 92.581142 95.47152 
L 101.980059 95.11032 
L 111.360807 94.82136 
L 120.636542 94.8936 
L 130.048437 94.70784 
L 139.703127 94.04736 
L 149.10053 93.40752 
L 158.146989 92.9844 
L 167.4463 93.93384 
L 177.010469 94.4292 
L 185.980899 94.19184 
L 195.519437 93.87192 
L 205.137031 93.81 
L 213.922526 94.03704 
L 223.30003 94.83168 
L 232.641628 95.48184 
L 242.033623 96.63768 
L 251.263179 96.14232 
L 260.785386 96.30744 
L 270.197064 96.29712 
L 279.36 96.04944 
" clip-path="url(#pad90c0ffb9)" style="fill: none; stroke: #4a8dff; stroke-width: 0.6"/>
   </g>
   <g id="line2d_7">
    <path d="M 8.64 99.09384 
L 17.892159 100.0536 
L 27.341365 101.23008 
L 36.653438 101.99376 
L 45.843627 102.08664 
L 55.044091 102.8916 
L 64.589009 102.45816 
L 73.974407 102.28272 
L 83.140155 102.10728 
L 92.581142 102.582 
L 101.980059 102.29304 
L 111.360807 102.08664 
L 120.636542 102.066 
L 130.048437 101.86992 
L 139.703127 101.48808 
L 149.10053 101.40552 
L 158.146989 101.4984 
L 167.4463 101.97312 
L 177.010469 102.26208 
L 185.980899 102.066 
L 195.519437 101.90088 
L 205.137031 101.90088 
L 213.922526 102.0144 
L 223.30003 102.25176 
L 232.641628 102.6336 
L 242.033623 102.88128 
L 251.263179 102.77808 
L 260.785386 102.85032 
L 270.197064 102.93288 
L 279.36 102.95352 
" clip-path="url(#pad90c0ffb9)" style="fill: none; stroke: #f5841e; stroke-width: 0.6"/>
   </g>
  </g>
 </g>
 <defs>
  <clipPath id="pad90c0ffb9">
   <rect x="8.64" y="4.8" width="270.72" height="103.2"/>
  </clipPath>
 </defs>
</svg>
