<?xml version="1.0" encoding="utf-8" standalone="no"?>
<!DOCTYPE svg PUBLIC "-//W3C//DTD SVG 1.1//EN"
  "http://www.w3.org/Graphics/SVG/1.1/DTD/svg11.dtd">
<svg xmlns:xlink="http://www.w3.org/1999/xlink" width="288pt" height="120pt" viewBox="0 0 288 120" xmlns="http://www.w3.org/2000/svg" version="1.1">
<desc id="nav-meta">{"window":"1m","count":4,"labels":["02.04","12.04","21.04","01.05"],"tick_utc":["2026-04-02T03:35:34Z","2026-04-12T03:55:19Z","2026-04-21T03:56:07Z","2026-05-01T04:39:16Z"],"w":720,"h":300}</desc>

 <metadata>
  <rdf:RDF xmlns:dc="http://purl.org/dc/elements/1.1/" xmlns:cc="http://creativecommons.org/ns#" xmlns:rdf="http://www.w3.org/1999/02/22-rdf-syntax-ns#">
   <cc:Work>
    <dc:type rdf:resource="http://purl.org/dc/dcmitype/StillImage"/>
    <dc:date>2026-05-01T04:39:18.340996</dc:date>
    <dc:format>image/svg+xml</dc:format>
    <dc:creator>
     <cc:Agent>
      <dc:title>Matplotlib v3.10.9, https://matplotlib.org/</dc:title>
     </cc:Agent>
    </dc:creator>
   </cc:Work>
  </rdf:RDF>
 </metadata>
 <defs>
  <style type="text/css">*{stroke-linejoin: round; stroke-linecap: butt}</style>
 </defs>
 <g id="figure_1">
  <g id="patch_1">
   <path d="M 0 120 
L 288 120 
L 288 0 
L 0 0 
L 0 120 
z
" style="fill: none; opacity: 0"/>
  </g>
  <g id="axes_1">
   <g id="patch_2">
    <path d="M 8.64 108 
L 279.36 108 
L 279.36 4.8 
L 8.64 4.8 
L 8.64 108 
z
" style="fill: none"/>
   </g>
   <g id="matplotlib.axis_1"/>
   <g id="matplotlib.axis_2"/>
   <g id="line2d_1">
    <path d="M 8.64 87.36 
L 279.36 87.36 
" clip-path="url(#pdc2efa2a5d)" style="fill: none; stroke: #b2b2b2; stroke-opacity: 0.35; stroke-width: 0.5; stroke-linecap: square"/>
   </g>
   <g id="line2d_2">
    <path d="M 8.64 66.72 
L 279.36 66.72 
" clip-path="url(#pdc2efa2a5d)" style="fill: none; stroke: #b2b2b2; stroke-opacity: 0.35; stroke-width: 0.5; stroke-linecap: square"/>
   </g>
   <g id="line2d_3">
    <path d="M 8.64 46.08 
L 279.36 46.08 
" clip-path="url(#pdc2efa2a5d)" style="fill: none; stroke: #b2b2b2; stroke-opacity: 0.35; stroke-width: 0.5; stroke-linecap: square"/>
   </g>
   <g id="line2d_4">
    <path d="M 8.64 25.44 
L 279.36 25.44 
" clip-path="url(#pdc2efa2a5d)" style="fill: none; stroke: #b2b2b2; stroke-opacity: 0.35; stroke-width: 0.5; stroke-linecap: square"/>
   </g>
   <g id="line2d_5">
    <path d="M 8.64 101.8596 
L 17.971635 101.88024 
L 27.212757 101.72544 
L 36.674065 101.68416 
L 46.019077 101.47776 
L 55.27951 101.78736 
L 64.615568 101.09592 
L 73.90405 101.46744 
L 83.31077 101.3436 
L 92.489213 101.05464 
L 101.977383 101.3952 
L 111.346129 101.47776 
L 120.607749 100.86888 
L 129.921583 101.26104 
L 139.282885 100.99272 
L 148.584852 100.61088 
L 157.802996 100.44576 
L 167.247043 100.94112 
L 176.591084 101.09592 
L 185.871151 101.00304 
L 195.163193 100.69344 
L 204.521906 100.9308 
L 213.867565 100.92048 
L 223.077294 100.81728 
L 232.543241 100.8792 
L 241.964633 100.64184 
L 251.305114 101.1888 
L 260.600608 101.09592 
L 269.937206 101.37456 
L 279.36 101.21976 
" clip-path="url(#pdc2efa2a5d)" style="fill: none; stroke: #bebebe; stroke-width: 0.5; stroke-linecap: round"/>
   </g>
   <g id="line2d_6">
    <path d="M 8.64 88.81512 
L 17.971635 89.10408 
L 27.212757 89.14536 
L 36.674065 89.07312 
L 46.019077 87.9792 
L 55.27951 88.29912 
L 64.615568 86.38992 
L 73.90405 87.24648 
L 83.31077 87.1536 
L 92.489213 86.21448 
L 101.977383 86.66856 
L 111.346129 87.01944 
L 120.607749 84.44976 
L 129.921583 85.05864 
L 139.282885 84.58392 
L 148.584852 85.04832 
L 157.802996 83.71704 
L 167.247043 84.86256 
L 176.591084 85.6572 
L 185.871151 85.27536 
L 195.163193 84.49104 
L 204.521906 84.86256 
L 213.867565 85.32696 
L 223.077294 85.17216 
L 232.543241 85.31664 
L 241.964633 84.11952 
L 251.305114 85.66752 
L 260.600608 85.26504 
L 269.937206 86.26608 
L 279.36 85.77072 
" clip-path="url(#pdc2efa2a5d)" style="fill: none; stroke: #4a8dff; stroke-width: 0.6"/>
   </g>
   <g id="line2d_7">
    <path d="M 8.64 101.21976 
L 17.971635 101.28168 
L 27.212757 101.20944 
L 36.674065 101.14752 
L 46.019077 100.55928 
L 55.27951 100.65216 
L 64.615568 99.80592 
L 73.90405 99.96072 
L 83.31077 99.6408 
L 92.489213 99.1764 
L 101.977383 99.70272 
L 111.346129 99.94008 
L 120.607749 98.57784 
L 129.921583 98.65008 
L 139.282885 98.38176 
L 148.584852 98.48496 
L 157.802996 96.70992 
L 167.247043 98.05152 
L 176.591084 98.48496 
L 185.871151 97.96896 
L 195.163193 96.32808 
L 204.521906 96.20424 
L 213.867565 96.16296 
L 223.077294 96.1836 
L 232.543241 96.50352 
L 241.964633 94.76976 
L 251.305114 97.19496 
L 260.600608 96.9576 
L 269.937206 97.9896 
L 279.36 96.89568 
" clip-path="url(#pdc2efa2a5d)" style="fill: none; stroke: #f5841e; stroke-width: 0.6"/>
   </g>
  </g>
 </g>
 <defs>
  <clipPath id="pdc2efa2a5d">
   <rect x="8.64" y="4.8" width="270.72" height="103.2"/>
  </clipPath>
 </defs>
</svg>
