<?xml version="1.0" encoding="utf-8" standalone="no"?>
<!DOCTYPE svg PUBLIC "-//W3C//DTD SVG 1.1//EN"
  "http://www.w3.org/Graphics/SVG/1.1/DTD/svg11.dtd">
<svg xmlns:xlink="http://www.w3.org/1999/xlink" width="288pt" height="120pt" viewBox="0 0 288 120" xmlns="http://www.w3.org/2000/svg" version="1.1">
<desc id="nav-meta">{"window":"3m","count":4,"labels":["27.11","27.12","26.01","25.02"],"tick_utc":["2025-11-27T12:00:00Z","2025-12-27T12:00:00Z","2026-01-26T12:00:00Z","2026-02-25T03:27:12Z"],"w":720,"h":300}</desc>

 <metadata>
  <rdf:RDF xmlns:dc="http://purl.org/dc/elements/1.1/" xmlns:cc="http://creativecommons.org/ns#" xmlns:rdf="http://www.w3.org/1999/02/22-rdf-syntax-ns#">
   <cc:Work>
    <dc:type rdf:resource="http://purl.org/dc/dcmitype/StillImage"/>
    <dc:date>2026-02-25T03:27:15.024287</dc:date>
    <dc:format>image/svg+xml</dc:format>
    <dc:creator>
     <cc:Agent>
      <dc:title>Matplotlib v3.10.8, https://matplotlib.org/</dc:title>
     </cc:Agent>
    </dc:creator>
   </cc:Work>
  </rdf:RDF>
 </metadata>
 <defs>
  <style type="text/css">*{stroke-linejoin: round; stroke-linecap: butt}</style>
 </defs>
 <g id="figure_1">
  <g id="patch_1">
   <path d="M 0 120 
L 288 120 
L 288 0 
L 0 0 
L 0 120 
z
" style="fill: none; opacity: 0"/>
  </g>
  <g id="axes_1">
   <g id="patch_2">
    <path d="M 8.64 108 
L 279.36 108 
L 279.36 4.8 
L 8.64 4.8 
L 8.64 108 
z
" style="fill: none"/>
   </g>
   <g id="matplotlib.axis_1"/>
   <g id="matplotlib.axis_2"/>
   <g id="line2d_1">
    <path d="M 8.64 87.36 
L 279.36 87.36 
" clip-path="url(#p7758ac3f10)" style="fill: none; stroke: #b2b2b2; stroke-opacity: 0.35; stroke-width: 0.5; stroke-linecap: square"/>
   </g>
   <g id="line2d_2">
    <path d="M 8.64 66.72 
L 279.36 66.72 
" clip-path="url(#p7758ac3f10)" style="fill: none; stroke: #b2b2b2; stroke-opacity: 0.35; stroke-width: 0.5; stroke-linecap: square"/>
   </g>
   <g id="line2d_3">
    <path d="M 8.64 46.08 
L 279.36 46.08 
" clip-path="url(#p7758ac3f10)" style="fill: none; stroke: #b2b2b2; stroke-opacity: 0.35; stroke-width: 0.5; stroke-linecap: square"/>
   </g>
   <g id="line2d_4">
    <path d="M 8.64 25.44 
L 279.36 25.44 
" clip-path="url(#p7758ac3f10)" style="fill: none; stroke: #b2b2b2; stroke-opacity: 0.35; stroke-width: 0.5; stroke-linecap: square"/>
   </g>
   <g id="line2d_5">
    <path d="M 8.64 87.45288 
L 11.659949 88.0308 
L 14.679899 88.94928 
L 17.699848 89.3208 
L 20.719797 89.7336 
L 23.739747 91.86984 
L 26.759696 88.60872 
L 29.779645 86.87496 
L 32.799594 88.52616 
L 35.819544 90.11544 
L 38.839493 90.38376 
L 41.859442 90.53856 
L 44.879392 90.08448 
L 47.899341 88.79448 
L 50.91929 89.20728 
L 53.93924 89.22792 
L 56.959189 90.31152 
L 59.979138 90.10512 
L 62.999088 91.09584 
L 66.019037 91.61184 
L 69.038986 91.31256 
L 72.058935 92.87088 
L 75.078885 93.8616 
L 78.098834 92.02464 
L 81.118783 92.13816 
L 84.138733 92.07624 
L 87.158682 92.14848 
L 90.178631 92.64384 
L 93.198581 93.01536 
L 96.21853 93.69648 
L 99.238479 93.11856 
L 102.258428 92.44776 
L 105.278378 92.30328 
L 108.298327 92.87088 
L 111.318276 92.38584 
L 114.338226 92.47872 
L 117.358175 91.88016 
L 120.378124 90.42504 
L 123.398074 90.08448 
L 126.418023 89.92968 
L 129.437972 88.76352 
L 132.457922 87.94824 
L 135.477871 89.2692 
L 138.49782 88.72224 
L 141.517769 89.39304 
L 144.537719 89.40336 
L 147.557668 88.41264 
L 150.577617 88.4952 
L 153.597567 86.86464 
L 156.617516 86.42088 
L 159.637465 87.62832 
L 162.657415 86.93688 
L 165.677364 87.23616 
L 168.697313 88.63968 
L 171.717263 90.0432 
L 174.737212 92.12784 
L 177.757161 91.16808 
L 180.77711 91.46736 
L 183.79706 91.73568 
L 186.817009 91.78728 
L 189.836958 94.0164 
L 192.856908 92.5716 
L 195.876857 91.76664 
L 198.896806 92.33424 
L 201.916756 94.36728 
L 204.936705 94.46016 
L 207.956654 97.71096 
L 210.976603 98.48496 
L 213.996553 97.85544 
L 216.546068 99.10416 
L 218.945984 100.16712 
L 221.964395 102.23112 
L 224.971412 100.54896 
L 228.060394 100.70376 
L 231.055422 100.68312 
L 234.092603 100.95144 
L 237.106295 101.28168 
L 240.115374 101.71512 
L 243.134415 101.84928 
L 246.118048 101.034 
L 248.978646 100.54896 
L 252.192305 101.04432 
L 254.832908 100.81728 
L 258.227415 101.034 
L 261.243695 101.4984 
L 264.245993 101.33328 
L 267.247487 101.1372 
L 270.301935 101.06496 
L 273.330972 102.09696 
L 276.095798 102.05568 
L 279.36 101.4984 
" clip-path="url(#p7758ac3f10)" style="fill: none; stroke: #bebebe; stroke-width: 0.5; stroke-linecap: round"/>
   </g>
   <g id="line2d_6">
    <path d="M 8.64 74.65608 
L 11.659949 74.83152 
L 14.679899 74.57352 
L 17.699848 75.20304 
L 20.719797 75.17208 
L 23.739747 78.05136 
L 26.759696 75.1308 
L 29.779645 72.16896 
L 32.799594 73.08744 
L 35.819544 74.72832 
L 38.839493 74.48064 
L 41.859442 74.28456 
L 44.879392 73.21128 
L 47.899341 70.2804 
L 50.91929 70.2288 
L 53.93924 71.56008 
L 56.959189 73.79952 
L 59.979138 73.35576 
L 62.999088 74.0988 
L 66.019037 75.5952 
L 69.038986 75.5952 
L 72.058935 77.61792 
L 75.078885 77.63856 
L 78.098834 75.40944 
L 81.118783 75.40944 
L 84.138733 75.04824 
L 87.158682 74.98632 
L 90.178631 75.58488 
L 93.198581 75.87384 
L 96.21853 76.49304 
L 99.238479 76.15248 
L 102.258428 75.82224 
L 105.278378 75.84288 
L 108.298327 76.03896 
L 111.318276 75.51264 
L 114.338226 75.56424 
L 117.358175 75.05856 
L 120.378124 73.26288 
L 123.398074 73.20096 
L 126.418023 73.00488 
L 129.437972 71.68392 
L 132.457922 70.6932 
L 135.477871 72.62304 
L 138.49782 73.52088 
L 141.517769 73.83048 
L 144.537719 73.8408 
L 147.557668 73.29384 
L 150.577617 73.72728 
L 153.597567 70.32168 
L 156.617516 69.77472 
L 159.637465 70.34232 
L 162.657415 70.67256 
L 165.677364 70.51776 
L 168.697313 70.848 
L 171.717263 72.31344 
L 174.737212 76.01832 
L 177.757161 75.41976 
L 180.77711 75.83256 
L 183.79706 75.79128 
L 186.817009 75.82224 
L 189.836958 77.82432 
L 192.856908 76.14216 
L 195.876857 74.75928 
L 198.896806 74.96568 
L 201.916756 77.75208 
L 204.936705 79.48584 
L 207.956654 83.31456 
L 210.976603 85.90488 
L 213.996553 84.79032 
L 216.546068 85.84296 
L 218.945984 88.25784 
L 221.964395 91.41576 
L 224.971412 88.7532 
L 228.060394 88.65 
L 231.055422 88.55712 
L 234.092603 88.96992 
L 237.106295 89.7336 
L 240.115374 90.456 
L 243.134415 90.56952 
L 246.118048 89.15568 
L 248.978646 88.9596 
L 252.192305 90.6624 
L 254.832908 89.94 
L 258.227415 90.00192 
L 261.243695 90.3528 
L 264.245993 90.62112 
L 267.247487 90.5076 
L 270.301935 90.3528 
L 273.330972 92.004 
L 276.095798 92.13816 
L 279.36 91.25064 
" clip-path="url(#p7758ac3f10)" style="fill: none; stroke: #4a8dff; stroke-width: 0.6"/>
   </g>
   <g id="line2d_7">
    <path d="M 8.64 82.96368 
L 11.659949 82.13808 
L 14.679899 82.47864 
L 17.699848 82.58184 
L 20.719797 83.03592 
L 23.739747 87.3084 
L 26.759696 82.06584 
L 29.779645 79.71288 
L 32.799594 81.24024 
L 35.819544 84.17112 
L 38.839493 84.24336 
L 41.859442 83.29392 
L 44.879392 82.8192 
L 47.899341 80.64168 
L 50.91929 81.38472 
L 53.93924 80.87904 
L 56.959189 83.13912 
L 59.979138 83.19072 
L 62.999088 85.296 
L 66.019037 87.17424 
L 69.038986 85.71912 
L 72.058935 87.53544 
L 75.078885 88.17528 
L 78.098834 85.41984 
L 81.118783 85.17216 
L 84.138733 84.9348 
L 87.158682 85.01736 
L 90.178631 86.14224 
L 93.198581 85.90488 
L 96.21853 86.328 
L 99.238479 86.24544 
L 102.258428 85.72944 
L 105.278378 85.7088 
L 108.298327 86.40024 
L 111.318276 85.09992 
L 114.338226 86.02872 
L 117.358175 84.78 
L 120.378124 83.53128 
L 123.398074 82.83984 
L 126.418023 82.03488 
L 129.437972 79.39296 
L 132.457922 79.66128 
L 135.477871 82.15872 
L 138.49782 82.43736 
L 141.517769 82.93272 
L 144.537719 83.00496 
L 147.557668 82.6128 
L 150.577617 82.28256 
L 153.597567 78.01008 
L 156.617516 76.19376 
L 159.637465 77.66952 
L 162.657415 77.74176 
L 165.677364 78.1752 
L 168.697313 79.5684 
L 171.717263 80.8068 
L 174.737212 85.20312 
L 177.757161 84.12984 
L 180.77711 84.03696 
L 183.79706 84.06792 
L 186.817009 84.3156 
L 189.836958 87.02976 
L 192.856908 85.21344 
L 195.876857 84.28464 
L 198.896806 84.32592 
L 201.916756 89.08344 
L 204.936705 89.5272 
L 207.956654 95.14128 
L 210.976603 96.98856 
L 213.996553 95.08968 
L 216.546068 97.71096 
L 218.945984 99.80592 
L 221.964395 101.79768 
L 224.971412 100.03296 
L 228.060394 100.518 
L 231.055422 99.98136 
L 234.092603 100.49736 
L 237.106295 100.78632 
L 240.115374 101.07528 
L 243.134415 101.26104 
L 246.118048 100.63152 
L 248.978646 100.38384 
L 252.192305 100.84824 
L 254.832908 100.65216 
L 258.227415 101.034 
L 261.243695 101.19912 
L 264.245993 101.10624 
L 267.247487 100.97208 
L 270.301935 100.91016 
L 273.330972 101.7564 
L 276.095798 101.84928 
L 279.36 101.56032 
" clip-path="url(#p7758ac3f10)" style="fill: none; stroke: #f5841e; stroke-width: 0.6"/>
   </g>
  </g>
 </g>
 <defs>
  <clipPath id="p7758ac3f10">
   <rect x="8.64" y="4.8" width="270.72" height="103.2"/>
  </clipPath>
 </defs>
</svg>
