<?xml version="1.0" encoding="utf-8" standalone="no"?>
<!DOCTYPE svg PUBLIC "-//W3C//DTD SVG 1.1//EN"
  "http://www.w3.org/Graphics/SVG/1.1/DTD/svg11.dtd">
<svg xmlns:xlink="http://www.w3.org/1999/xlink" width="288pt" height="120pt" viewBox="0 0 288 120" xmlns="http://www.w3.org/2000/svg" version="1.1">
<desc id="nav-meta">{"window":"6m","count":4,"labels":["24.01","25.03","24.05","23.07"],"tick_utc":["2026-01-24T12:00:00Z","2026-03-25T05:09:13Z","2026-05-24T04:51:26Z","2026-07-23T03:58:20Z"],"w":720,"h":300}</desc>

 <metadata>
  <rdf:RDF xmlns:dc="http://purl.org/dc/elements/1.1/" xmlns:cc="http://creativecommons.org/ns#" xmlns:rdf="http://www.w3.org/1999/02/22-rdf-syntax-ns#">
   <cc:Work>
    <dc:type rdf:resource="http://purl.org/dc/dcmitype/StillImage"/>
    <dc:date>2026-07-23T09:13:15.043064</dc:date>
    <dc:format>image/svg+xml</dc:format>
    <dc:creator>
     <cc:Agent>
      <dc:title>Matplotlib v3.11.1, https://matplotlib.org/</dc:title>
     </cc:Agent>
    </dc:creator>
   </cc:Work>
  </rdf:RDF>
 </metadata>
 <defs>
  <style type="text/css">*{stroke-linejoin: round; stroke-linecap: butt}</style>
 </defs>
 <g id="figure_1">
  <g id="patch_1">
   <path d="M 0 120 
L 288 120 
L 288 0 
L 0 0 
L 0 120 
z
" style="fill: none; opacity: 0"/>
  </g>
  <g id="axes_1">
   <g id="patch_2">
    <path d="M 8.64 108 
L 279.36 108 
L 279.36 4.8 
L 8.64 4.8 
L 8.64 108 
z
" style="fill: none"/>
   </g>
   <g id="matplotlib.axis_1"/>
   <g id="matplotlib.axis_2"/>
   <g id="line2d_1">
    <path d="M 8.64 87.36 
L 279.36 87.36 
" clip-path="url(#pab02f717a0)" style="fill: none; stroke: #b2b2b2; stroke-opacity: 0.35; stroke-width: 0.5; stroke-linecap: square"/>
   </g>
   <g id="line2d_2">
    <path d="M 8.64 66.72 
L 279.36 66.72 
" clip-path="url(#pab02f717a0)" style="fill: none; stroke: #b2b2b2; stroke-opacity: 0.35; stroke-width: 0.5; stroke-linecap: square"/>
   </g>
   <g id="line2d_3">
    <path d="M 8.64 46.08 
L 279.36 46.08 
" clip-path="url(#pab02f717a0)" style="fill: none; stroke: #b2b2b2; stroke-opacity: 0.35; stroke-width: 0.5; stroke-linecap: square"/>
   </g>
   <g id="line2d_4">
    <path d="M 8.64 25.44 
L 279.36 25.44 
" clip-path="url(#pab02f717a0)" style="fill: none; stroke: #b2b2b2; stroke-opacity: 0.35; stroke-width: 0.5; stroke-linecap: square"/>
   </g>
   <g id="line2d_5">
    <path d="M 8.64 91.73568 
L 10.1468 91.78728 
L 11.6536 94.0164 
L 13.1604 92.5716 
L 14.6672 91.76664 
L 16.174 92.33424 
L 17.6808 94.36728 
L 19.1876 94.46016 
L 20.6944 97.71096 
L 22.201201 98.48496 
L 23.708001 97.85544 
L 26.177513 100.16712 
L 27.683546 102.23112 
L 29.183893 100.54896 
L 30.725137 100.70376 
L 32.219503 100.68312 
L 35.238579 101.28168 
L 36.739955 101.71512 
L 38.246302 101.84928 
L 39.734982 101.034 
L 41.162274 100.54896 
L 42.765725 101.04432 
L 44.083251 100.81728 
L 45.776936 101.034 
L 47.281905 101.4984 
L 51.801503 101.06496 
L 53.312837 102.09696 
L 54.692344 102.05568 
L 56.321014 101.4984 
L 57.821099 100.60056 
L 59.325039 100.80696 
L 60.814086 101.45712 
L 62.35512 100.55928 
L 63.846364 101.10624 
L 66.855028 100.74504 
L 68.365072 100.21872 
L 69.871157 100.53864 
L 71.366395 101.07528 
L 72.887827 101.38488 
L 74.399144 101.26104 
L 75.896265 100.78632 
L 78.915202 100.99272 
L 80.419089 100.38384 
L 83.459512 100.60056 
L 84.970567 99.76464 
L 86.450998 99.49632 
L 87.969291 99.40344 
L 89.47651 100.09488 
L 90.968643 100.3632 
L 92.466618 100.19808 
L 95.506291 100.79664 
L 96.999139 100.26 
L 98.618164 99.83688 
L 100.031069 100.13616 
L 103.032164 101.38488 
L 109.087617 101.28168 
L 110.574571 101.8596 
L 112.083097 101.88024 
L 113.576992 101.72544 
L 115.106481 101.68416 
L 116.61717 101.47776 
L 118.114186 101.78736 
L 119.623428 101.09592 
L 121.124979 101.46744 
L 122.645644 101.3436 
L 124.129406 101.05464 
L 125.663237 101.3952 
L 127.177763 101.47776 
L 128.674971 100.86888 
L 130.18062 101.26104 
L 131.693943 100.99272 
L 133.197674 100.61088 
L 134.687854 100.44576 
L 136.214552 100.94112 
L 137.725085 101.09592 
L 139.225275 101.00304 
L 140.727401 100.69344 
L 142.240305 100.9308 
L 146.770158 100.8792 
L 148.293194 100.64184 
L 149.803151 101.1888 
L 151.305835 101.09592 
L 152.815164 101.37456 
L 154.338427 101.21976 
L 157.344162 101.23008 
L 158.850439 100.92048 
L 160.324051 101.06496 
L 161.857394 100.70376 
L 163.364596 100.55928 
L 164.846317 100.53864 
L 166.358628 99.60984 
L 167.895791 99.72336 
L 170.900357 99.25896 
L 172.414325 99.32088 
L 173.919451 100.22904 
L 175.43368 100.01232 
L 178.450542 100.75536 
L 179.971974 101.02368 
L 181.467979 101.02368 
L 182.980168 101.17848 
L 184.495548 100.7244 
L 185.990803 100.75536 
L 187.476902 101.11656 
L 189.00756 100.91016 
L 190.534189 100.89984 
L 192.01816 101.1372 
L 193.540429 101.2404 
L 195.042416 101.6532 
L 196.550332 101.4984 
L 198.035402 101.48808 
L 199.572966 101.32296 
L 202.594031 101.7048 
L 204.117782 102.54072 
L 205.61942 103.08768 
L 207.101403 103.36632 
L 208.585043 104.22288 
L 210.124229 103.85136 
L 213.115733 103.43856 
L 214.638159 103.81008 
L 216.153801 103.72752 
L 217.666513 103.50048 
L 219.162291 103.5108 
L 220.680026 103.31472 
L 223.752311 102.61296 
L 225.211117 102.6336 
L 228.252987 103.28376 
L 231.237689 102.69552 
L 232.788595 102.582 
L 235.717507 103.15992 
L 237.223906 103.36632 
L 238.738432 103.36632 
L 240.226763 102.81936 
L 241.762287 103.0464 
L 243.279986 102.9432 
L 244.757575 102.59232 
L 246.286419 102.40656 
L 250.757552 101.3436 
L 252.286413 101.6532 
L 255.292008 101.63256 
L 256.75786 101.95248 
L 258.310335 102.08664 
L 259.813734 101.9112 
L 265.787429 102.45816 
L 267.294612 102.08664 
L 271.811577 102.4272 
L 274.868271 102.25176 
L 276.347603 102.02472 
L 279.36 102.10728 
L 279.36 102.10728 
" clip-path="url(#pab02f717a0)" style="fill: none; stroke: #bebebe; stroke-width: 0.5; stroke-linecap: round"/>
   </g>
   <g id="line2d_6">
    <path d="M 8.64 75.79128 
L 10.1468 75.82224 
L 11.6536 77.82432 
L 13.1604 76.14216 
L 14.6672 74.75928 
L 16.174 74.96568 
L 17.6808 77.75208 
L 19.1876 79.48584 
L 20.6944 83.31456 
L 22.201201 85.90488 
L 23.708001 84.79032 
L 24.980078 85.84296 
L 27.683546 91.41576 
L 29.183893 88.7532 
L 32.219503 88.55712 
L 33.7349 88.96992 
L 36.739955 90.456 
L 38.246302 90.56952 
L 39.734982 89.15568 
L 41.162274 88.9596 
L 42.765725 90.6624 
L 44.083251 89.94 
L 45.776936 90.00192 
L 48.779898 90.62112 
L 51.801503 90.3528 
L 53.312837 92.004 
L 54.692344 92.13816 
L 56.321014 91.25064 
L 57.821099 89.166 
L 59.325039 89.56848 
L 60.814086 90.93072 
L 62.35512 89.41368 
L 63.846364 90.37344 
L 65.356669 89.79552 
L 66.855028 90.23928 
L 68.365072 88.0824 
L 69.871157 88.7532 
L 71.366395 90.16704 
L 72.887827 90.67272 
L 74.399144 90.18768 
L 75.896265 89.2692 
L 77.402472 89.54784 
L 78.915202 89.49624 
L 80.419089 88.31976 
L 81.923884 88.45392 
L 83.459512 88.46424 
L 84.970567 86.38992 
L 86.450998 84.80064 
L 87.969291 84.8316 
L 89.47651 86.586 
L 90.968643 87.74184 
L 92.466618 87.618 
L 93.995951 88.19592 
L 95.506291 89.08344 
L 96.999139 87.89664 
L 98.618164 87.3084 
L 100.031069 87.65928 
L 101.53977 88.96992 
L 103.032164 90.07416 
L 106.070599 89.3724 
L 107.567894 89.00088 
L 109.087617 88.42296 
L 112.083097 89.10408 
L 113.576992 89.14536 
L 115.106481 89.07312 
L 116.61717 87.9792 
L 118.114186 88.29912 
L 119.623428 86.38992 
L 121.124979 87.24648 
L 122.645644 87.1536 
L 124.129406 86.21448 
L 127.177763 87.01944 
L 128.674971 84.44976 
L 130.18062 85.05864 
L 131.693943 84.58392 
L 133.197674 85.04832 
L 134.687854 83.71704 
L 136.214552 84.86256 
L 137.725085 85.6572 
L 139.225275 85.27536 
L 140.727401 84.49104 
L 143.751099 85.32696 
L 145.239919 85.17216 
L 146.770158 85.31664 
L 148.293194 84.11952 
L 149.803151 85.66752 
L 151.305835 85.26504 
L 152.815164 86.26608 
L 155.806773 85.38888 
L 157.344162 85.3992 
L 158.850439 84.09888 
L 161.857394 84.34656 
L 164.846317 85.7604 
L 166.358628 85.0896 
L 169.414485 84.9348 
L 170.900357 85.296 
L 172.414325 85.35792 
L 173.919451 86.1732 
L 175.43368 85.92552 
L 178.450542 87.13296 
L 179.971974 88.10304 
L 181.467979 87.9276 
L 182.980168 88.26816 
L 184.495548 87.78312 
L 185.990803 87.95856 
L 187.476902 88.94928 
L 189.00756 88.14432 
L 192.01816 88.52616 
L 193.540429 88.86672 
L 195.042416 90.22896 
L 196.550332 89.82648 
L 198.035402 89.87808 
L 199.572966 89.46528 
L 201.102054 90.0432 
L 202.594031 89.96064 
L 204.117782 91.99368 
L 205.61942 93.05664 
L 207.101403 93.74808 
L 208.585043 97.02984 
L 210.124229 95.93592 
L 211.637691 95.07936 
L 213.115733 94.46016 
L 214.638159 95.47152 
L 217.666513 94.82136 
L 219.162291 94.8936 
L 220.680026 94.70784 
L 223.752311 93.40752 
L 225.211117 92.9844 
L 226.710697 93.93384 
L 228.252987 94.4292 
L 231.237689 93.87192 
L 232.788595 93.81 
L 234.205318 94.03704 
L 235.717507 94.83168 
L 237.223906 95.48184 
L 238.738432 96.63768 
L 240.226763 96.14232 
L 241.762287 96.30744 
L 243.279986 96.29712 
L 244.757575 96.04944 
L 246.286419 95.9256 
L 247.766832 95.39928 
L 249.257239 94.31568 
L 250.757552 93.57264 
L 252.286413 93.32496 
L 253.80781 93.22176 
L 255.292008 93.35592 
L 258.310335 93.77904 
L 259.813734 93.26304 
L 261.276045 92.92248 
L 262.805377 92.71608 
L 264.315473 93.15984 
L 265.787429 93.17016 
L 267.294612 91.80792 
L 268.80518 91.14744 
L 270.312224 92.13816 
L 271.811577 92.25168 
L 273.341031 91.9008 
L 274.868271 91.81824 
L 276.347603 91.00296 
L 277.855502 90.98232 
L 279.36 91.10616 
L 279.36 91.10616 
" clip-path="url(#pab02f717a0)" style="fill: none; stroke: #4a8dff; stroke-width: 0.6"/>
   </g>
   <g id="line2d_7">
    <path d="M 8.64 84.06792 
L 10.1468 84.3156 
L 11.6536 87.02976 
L 13.1604 85.21344 
L 14.6672 84.28464 
L 16.174 84.32592 
L 17.6808 89.08344 
L 19.1876 89.5272 
L 20.6944 95.14128 
L 22.201201 96.98856 
L 23.708001 95.08968 
L 24.980078 97.71096 
L 26.177513 99.80592 
L 27.683546 101.79768 
L 29.183893 100.03296 
L 30.725137 100.518 
L 32.219503 99.98136 
L 33.7349 100.49736 
L 38.246302 101.26104 
L 39.734982 100.63152 
L 41.162274 100.38384 
L 42.765725 100.84824 
L 44.083251 100.65216 
L 45.776936 101.034 
L 47.281905 101.19912 
L 51.801503 100.91016 
L 53.312837 101.7564 
L 54.692344 101.84928 
L 56.321014 101.56032 
L 57.821099 100.85856 
L 60.814086 101.4468 
L 62.35512 101.02368 
L 63.846364 101.30232 
L 65.356669 100.81728 
L 66.855028 100.79664 
L 68.365072 99.3312 
L 69.871157 99.92976 
L 71.366395 100.78632 
L 72.887827 101.17848 
L 74.399144 101.1372 
L 75.896265 100.21872 
L 78.915202 100.4664 
L 80.419089 99.88848 
L 81.923884 99.94008 
L 83.459512 99.81624 
L 84.970567 98.93904 
L 86.450998 98.3508 
L 87.969291 98.52624 
L 89.47651 99.78528 
L 90.968643 100.12584 
L 92.466618 100.03296 
L 95.506291 100.83792 
L 96.999139 100.11552 
L 98.618164 99.87816 
L 100.031069 100.002 
L 101.53977 100.64184 
L 103.032164 101.41584 
L 104.559491 101.21976 
L 107.567894 101.00304 
L 109.087617 100.86888 
L 110.574571 101.21976 
L 112.083097 101.28168 
L 115.106481 101.14752 
L 116.61717 100.55928 
L 118.114186 100.65216 
L 119.623428 99.80592 
L 121.124979 99.96072 
L 122.645644 99.6408 
L 124.129406 99.1764 
L 125.663237 99.70272 
L 127.177763 99.94008 
L 128.674971 98.57784 
L 130.18062 98.65008 
L 131.693943 98.38176 
L 133.197674 98.48496 
L 134.687854 96.70992 
L 136.214552 98.05152 
L 137.725085 98.48496 
L 139.225275 97.96896 
L 140.727401 96.32808 
L 143.751099 96.16296 
L 145.239919 96.1836 
L 146.770158 96.50352 
L 148.293194 94.76976 
L 149.803151 97.19496 
L 151.305835 96.9576 
L 152.815164 97.9896 
L 154.338427 96.89568 
L 155.806773 95.45088 
L 157.344162 95.67792 
L 158.850439 93.43848 
L 161.857394 92.25168 
L 163.364596 92.87088 
L 164.846317 94.2744 
L 166.358628 93.1392 
L 167.895791 92.97408 
L 169.414485 92.9844 
L 170.900357 92.60256 
L 172.414325 92.53032 
L 173.919451 94.54272 
L 175.43368 92.85024 
L 176.921244 94.82136 
L 178.450542 95.75016 
L 179.971974 96.97824 
L 182.980168 97.23624 
L 184.495548 95.94624 
L 185.990803 96.30744 
L 187.476902 98.08248 
L 189.00756 97.2672 
L 190.534189 96.61704 
L 192.01816 97.23624 
L 193.540429 98.08248 
L 195.042416 99.18672 
L 196.550332 99.03192 
L 198.035402 99.1248 
L 199.572966 98.74296 
L 201.102054 99.09384 
L 202.594031 100.0536 
L 204.117782 101.23008 
L 205.61942 101.99376 
L 207.101403 102.08664 
L 208.585043 102.8916 
L 210.124229 102.45816 
L 213.115733 102.10728 
L 214.638159 102.582 
L 217.666513 102.08664 
L 219.162291 102.066 
L 220.680026 101.86992 
L 222.236913 101.48808 
L 223.752311 101.40552 
L 225.211117 101.4984 
L 226.710697 101.97312 
L 228.252987 102.26208 
L 231.237689 101.90088 
L 232.788595 101.90088 
L 234.205318 102.0144 
L 235.717507 102.25176 
L 237.223906 102.6336 
L 238.738432 102.88128 
L 240.226763 102.77808 
L 246.286419 103.00512 
L 247.766832 102.69552 
L 249.257239 102.55104 
L 250.757552 102.2724 
L 255.292008 102.13824 
L 258.310335 102.36528 
L 259.813734 101.94216 
L 262.805377 101.9112 
L 264.315473 102.2208 
L 265.787429 102.31368 
L 267.294612 101.79768 
L 268.80518 101.81832 
L 270.312224 102.07632 
L 276.347603 101.57064 
L 277.855502 101.40552 
L 279.36 101.55 
L 279.36 101.55 
" clip-path="url(#pab02f717a0)" style="fill: none; stroke: #f5841e; stroke-width: 0.6"/>
   </g>
  </g>
 </g>
 <defs>
  <clipPath id="pab02f717a0">
   <rect x="8.64" y="4.8" width="270.72" height="103.2"/>
  </clipPath>
 </defs>
</svg>
