<?xml version="1.0" encoding="utf-8" standalone="no"?>
<!DOCTYPE svg PUBLIC "-//W3C//DTD SVG 1.1//EN"
  "http://www.w3.org/Graphics/SVG/1.1/DTD/svg11.dtd">
<svg xmlns:xlink="http://www.w3.org/1999/xlink" width="288pt" height="120pt" viewBox="0 0 288 120" xmlns="http://www.w3.org/2000/svg" version="1.1">
<desc id="nav-meta">{"window":"1m","count":4,"labels":["18.02","28.02","09.03","19.03"],"tick_utc":["2026-02-18T03:30:34Z","2026-02-28T03:01:05Z","2026-03-09T03:23:53Z","2026-03-19T03:32:50Z"],"w":720,"h":300}</desc>

 <metadata>
  <rdf:RDF xmlns:dc="http://purl.org/dc/elements/1.1/" xmlns:cc="http://creativecommons.org/ns#" xmlns:rdf="http://www.w3.org/1999/02/22-rdf-syntax-ns#">
   <cc:Work>
    <dc:type rdf:resource="http://purl.org/dc/dcmitype/StillImage"/>
    <dc:date>2026-03-19T13:55:21.487692</dc:date>
    <dc:format>image/svg+xml</dc:format>
    <dc:creator>
     <cc:Agent>
      <dc:title>Matplotlib v3.10.8, https://matplotlib.org/</dc:title>
     </cc:Agent>
    </dc:creator>
   </cc:Work>
  </rdf:RDF>
 </metadata>
 <defs>
  <style type="text/css">*{stroke-linejoin: round; stroke-linecap: butt}</style>
 </defs>
 <g id="figure_1">
  <g id="patch_1">
   <path d="M 0 120 
L 288 120 
L 288 0 
L 0 0 
L 0 120 
z
" style="fill: none; opacity: 0"/>
  </g>
  <g id="axes_1">
   <g id="patch_2">
    <path d="M 8.64 108 
L 279.36 108 
L 279.36 4.8 
L 8.64 4.8 
L 8.64 108 
z
" style="fill: none"/>
   </g>
   <g id="matplotlib.axis_1"/>
   <g id="matplotlib.axis_2"/>
   <g id="line2d_1">
    <path d="M 8.64 87.36 
L 279.36 87.36 
" clip-path="url(#pfb7eb5831b)" style="fill: none; stroke: #b2b2b2; stroke-opacity: 0.35; stroke-width: 0.5; stroke-linecap: square"/>
   </g>
   <g id="line2d_2">
    <path d="M 8.64 66.72 
L 279.36 66.72 
" clip-path="url(#pfb7eb5831b)" style="fill: none; stroke: #b2b2b2; stroke-opacity: 0.35; stroke-width: 0.5; stroke-linecap: square"/>
   </g>
   <g id="line2d_3">
    <path d="M 8.64 46.08 
L 279.36 46.08 
" clip-path="url(#pfb7eb5831b)" style="fill: none; stroke: #b2b2b2; stroke-opacity: 0.35; stroke-width: 0.5; stroke-linecap: square"/>
   </g>
   <g id="line2d_4">
    <path d="M 8.64 25.44 
L 279.36 25.44 
" clip-path="url(#pfb7eb5831b)" style="fill: none; stroke: #b2b2b2; stroke-opacity: 0.35; stroke-width: 0.5; stroke-linecap: square"/>
   </g>
   <g id="line2d_5">
    <path d="M 8.64 101.034 
L 17.963322 101.4984 
L 27.243427 101.33328 
L 36.521048 101.1372 
L 45.962349 101.06496 
L 55.325105 102.09696 
L 63.871186 102.05568 
L 73.960836 101.4984 
L 83.253906 100.60056 
L 92.570854 100.80696 
L 101.795534 101.45712 
L 111.342283 100.55928 
L 120.580577 101.10624 
L 129.936959 100.8792 
L 139.219333 100.74504 
L 148.574094 100.21872 
L 157.90433 100.53864 
L 167.167366 101.07528 
L 176.592677 101.38488 
L 185.955325 101.26104 
L 195.230029 100.78632 
L 204.561021 100.91016 
L 213.93242 100.99272 
L 223.249043 100.38384 
L 232.571284 100.50768 
L 242.08454 100.60056 
L 251.445568 99.76464 
L 260.616877 99.49632 
L 270.022741 99.40344 
L 279.36 100.09488 
" clip-path="url(#pfb7eb5831b)" style="fill: none; stroke: #bebebe; stroke-width: 0.5; stroke-linecap: round"/>
   </g>
   <g id="line2d_6">
    <path d="M 8.64 90.00192 
L 17.963322 90.3528 
L 27.243427 90.62112 
L 36.521048 90.5076 
L 45.962349 90.3528 
L 55.325105 92.004 
L 63.871186 92.13816 
L 73.960836 91.25064 
L 83.253906 89.166 
L 92.570854 89.56848 
L 101.795534 90.93072 
L 111.342283 89.41368 
L 120.580577 90.37344 
L 129.936959 89.79552 
L 139.219333 90.23928 
L 148.574094 88.0824 
L 157.90433 88.7532 
L 167.167366 90.16704 
L 176.592677 90.67272 
L 185.955325 90.18768 
L 195.230029 89.2692 
L 204.561021 89.54784 
L 213.93242 89.49624 
L 223.249043 88.31976 
L 232.571284 88.45392 
L 242.08454 88.46424 
L 251.445568 86.38992 
L 260.616877 84.80064 
L 270.022741 84.8316 
L 279.36 86.586 
" clip-path="url(#pfb7eb5831b)" style="fill: none; stroke: #4a8dff; stroke-width: 0.6"/>
   </g>
   <g id="line2d_7">
    <path d="M 8.64 101.034 
L 17.963322 101.19912 
L 27.243427 101.10624 
L 36.521048 100.97208 
L 45.962349 100.91016 
L 55.325105 101.7564 
L 63.871186 101.84928 
L 73.960836 101.56032 
L 83.253906 100.85856 
L 92.570854 101.12688 
L 101.795534 101.4468 
L 111.342283 101.02368 
L 120.580577 101.30232 
L 129.936959 100.81728 
L 139.219333 100.79664 
L 148.574094 99.3312 
L 157.90433 99.92976 
L 167.167366 100.78632 
L 176.592677 101.17848 
L 185.955325 101.1372 
L 195.230029 100.21872 
L 204.561021 100.37352 
L 213.93242 100.4664 
L 223.249043 99.88848 
L 232.571284 99.94008 
L 242.08454 99.81624 
L 251.445568 98.93904 
L 260.616877 98.3508 
L 270.022741 98.52624 
L 279.36 99.78528 
" clip-path="url(#pfb7eb5831b)" style="fill: none; stroke: #f5841e; stroke-width: 0.6"/>
   </g>
  </g>
 </g>
 <defs>
  <clipPath id="pfb7eb5831b">
   <rect x="8.64" y="4.8" width="270.72" height="103.2"/>
  </clipPath>
 </defs>
</svg>
