<?xml version="1.0" encoding="utf-8" standalone="no"?>
<!DOCTYPE svg PUBLIC "-//W3C//DTD SVG 1.1//EN"
  "http://www.w3.org/Graphics/SVG/1.1/DTD/svg11.dtd">
<svg xmlns:xlink="http://www.w3.org/1999/xlink" width="288pt" height="120pt" viewBox="0 0 288 120" xmlns="http://www.w3.org/2000/svg" version="1.1">
<desc id="nav-meta">{"window":"6m","count":4,"labels":["10.09","09.11","07.01","08.03"],"tick_utc":["2025-09-10T12:00:00Z","2025-11-09T12:00:00Z","2026-01-07T12:00:00Z","2026-03-08T03:19:34Z"],"w":720,"h":300}</desc>

 <metadata>
  <rdf:RDF xmlns:dc="http://purl.org/dc/elements/1.1/" xmlns:cc="http://creativecommons.org/ns#" xmlns:rdf="http://www.w3.org/1999/02/22-rdf-syntax-ns#">
   <cc:Work>
    <dc:type rdf:resource="http://purl.org/dc/dcmitype/StillImage"/>
    <dc:date>2026-03-08T13:27:28.988219</dc:date>
    <dc:format>image/svg+xml</dc:format>
    <dc:creator>
     <cc:Agent>
      <dc:title>Matplotlib v3.10.8, https://matplotlib.org/</dc:title>
     </cc:Agent>
    </dc:creator>
   </cc:Work>
  </rdf:RDF>
 </metadata>
 <defs>
  <style type="text/css">*{stroke-linejoin: round; stroke-linecap: butt}</style>
 </defs>
 <g id="figure_1">
  <g id="patch_1">
   <path d="M 0 120 
L 288 120 
L 288 0 
L 0 0 
L 0 120 
z
" style="fill: none; opacity: 0"/>
  </g>
  <g id="axes_1">
   <g id="patch_2">
    <path d="M 8.64 108 
L 279.36 108 
L 279.36 4.8 
L 8.64 4.8 
L 8.64 108 
z
" style="fill: none"/>
   </g>
   <g id="matplotlib.axis_1"/>
   <g id="matplotlib.axis_2"/>
   <g id="line2d_1">
    <path d="M 8.64 87.36 
L 279.36 87.36 
" clip-path="url(#p2bb9f052a7)" style="fill: none; stroke: #b2b2b2; stroke-opacity: 0.35; stroke-width: 0.5; stroke-linecap: square"/>
   </g>
   <g id="line2d_2">
    <path d="M 8.64 66.72 
L 279.36 66.72 
" clip-path="url(#p2bb9f052a7)" style="fill: none; stroke: #b2b2b2; stroke-opacity: 0.35; stroke-width: 0.5; stroke-linecap: square"/>
   </g>
   <g id="line2d_3">
    <path d="M 8.64 46.08 
L 279.36 46.08 
" clip-path="url(#p2bb9f052a7)" style="fill: none; stroke: #b2b2b2; stroke-opacity: 0.35; stroke-width: 0.5; stroke-linecap: square"/>
   </g>
   <g id="line2d_4">
    <path d="M 8.64 25.44 
L 279.36 25.44 
" clip-path="url(#p2bb9f052a7)" style="fill: none; stroke: #b2b2b2; stroke-opacity: 0.35; stroke-width: 0.5; stroke-linecap: square"/>
   </g>
   <g id="line2d_5">
    <path d="M 8.64 67.10184 
L 10.155462 65.29584 
L 11.670924 64.01616 
L 13.186386 60.31128 
L 14.701848 60.19776 
L 16.21731 60.786 
L 17.732772 62.61264 
L 19.248234 61.74576 
L 20.763696 59.57856 
L 22.279158 58.86648 
L 23.79462 61.38456 
L 25.310083 61.07496 
L 26.825545 61.83864 
L 28.341007 66.29688 
L 29.856469 67.97904 
L 31.371931 68.69112 
L 32.887393 73.9956 
L 34.402855 70.45584 
L 35.918317 70.87896 
L 37.433779 68.91816 
L 38.949241 68.3196 
L 40.464703 69.47544 
L 43.495627 62.39592 
L 45.011089 62.81904 
L 46.526551 64.22256 
L 48.042013 64.05744 
L 49.557475 62.9532 
L 51.072937 66.14208 
L 52.588399 63.91296 
L 54.103861 66.17304 
L 55.619323 74.6148 
L 57.134785 77.78304 
L 58.650248 72.66432 
L 60.16571 69.69216 
L 61.681172 71.09568 
L 64.712096 76.06992 
L 66.227558 76.76136 
L 67.74302 75.25464 
L 69.258482 75.24432 
L 70.773944 74.63544 
L 72.289406 75.73968 
L 73.804868 77.31864 
L 75.32033 74.202 
L 76.835792 73.64472 
L 78.351254 73.48992 
L 79.866716 71.83872 
L 81.382178 72.17928 
L 82.89764 73.38672 
L 84.413102 73.43832 
L 85.928564 76.15248 
L 87.444026 75.3372 
L 88.959488 75.58488 
L 90.47495 75.35784 
L 91.990413 81.168 
L 93.505875 84.01632 
L 95.021337 82.06584 
L 96.536799 84.19176 
L 98.052261 82.27224 
L 99.567723 83.29392 
L 101.083185 81.62208 
L 102.598647 80.72424 
L 104.114109 84.33624 
L 105.629571 84.64584 
L 107.145033 86.844 
L 108.660495 88.52616 
L 110.175957 88.36104 
L 111.691419 88.93896 
L 113.206881 90.79656 
L 114.722343 88.09272 
L 116.237805 89.22792 
L 117.753267 90.00192 
L 119.268729 91.39512 
L 120.784191 91.63248 
L 122.299653 90.75528 
L 123.815115 88.7016 
L 125.330578 88.52616 
L 126.84604 87.45288 
L 128.361502 88.0308 
L 129.876964 88.94928 
L 132.907888 89.7336 
L 134.42335 91.86984 
L 135.938812 88.60872 
L 137.454274 86.87496 
L 140.485198 90.11544 
L 142.00066 90.38376 
L 143.516122 90.53856 
L 145.031584 90.08448 
L 146.547046 88.79448 
L 148.062508 89.20728 
L 149.57797 89.22792 
L 151.093432 90.31152 
L 152.608894 90.10512 
L 154.124356 91.09584 
L 155.639818 91.61184 
L 157.155281 91.31256 
L 158.670743 92.87088 
L 160.186205 93.8616 
L 161.701667 92.02464 
L 163.217129 92.13816 
L 164.732591 92.07624 
L 166.248053 92.14848 
L 167.763515 92.64384 
L 169.278977 93.01536 
L 170.794439 93.69648 
L 173.825363 92.44776 
L 175.340825 92.30328 
L 176.856287 92.87088 
L 178.371749 92.38584 
L 179.887211 92.47872 
L 181.402673 91.88016 
L 182.918135 90.42504 
L 184.433597 90.08448 
L 185.949059 89.92968 
L 187.464521 88.76352 
L 188.979983 87.94824 
L 190.495446 89.2692 
L 192.010908 88.72224 
L 193.52637 89.39304 
L 195.041832 89.40336 
L 196.557294 88.41264 
L 198.072756 88.4952 
L 199.588218 86.86464 
L 201.10368 86.42088 
L 202.619142 87.62832 
L 204.134604 86.93688 
L 205.650066 87.23616 
L 208.68099 90.0432 
L 210.196452 92.12784 
L 211.711914 91.16808 
L 214.742838 91.73568 
L 216.2583 91.78728 
L 217.773762 94.0164 
L 219.289224 92.5716 
L 220.804686 91.76664 
L 222.320148 92.33424 
L 223.835611 94.36728 
L 225.351073 94.46016 
L 226.866535 97.71096 
L 228.381997 98.48496 
L 229.897459 97.85544 
L 232.381168 100.16712 
L 233.895858 102.23112 
L 235.40483 100.54896 
L 236.954934 100.70376 
L 238.45789 100.68312 
L 241.494322 101.28168 
L 243.004329 101.71512 
L 244.519335 101.84928 
L 246.016573 101.034 
L 247.452069 100.54896 
L 249.064739 101.04432 
L 250.389838 100.81728 
L 252.09326 101.034 
L 253.60688 101.4984 
L 258.152459 101.06496 
L 259.672482 102.09696 
L 261.059919 102.05568 
L 262.697951 101.4984 
L 264.20666 100.60056 
L 265.719245 100.80696 
L 267.216852 101.45712 
L 268.766745 100.55928 
L 270.266561 101.10624 
L 273.292521 100.74504 
L 274.811246 100.21872 
L 276.325989 100.53864 
L 277.829822 101.07528 
L 279.36 101.38488 
L 279.36 101.38488 
" clip-path="url(#p2bb9f052a7)" style="fill: none; stroke: #bebebe; stroke-width: 0.5; stroke-linecap: round"/>
   </g>
   <g id="line2d_6">
    <path d="M 8.64 55.63632 
L 10.155462 55.07904 
L 11.670924 53.41752 
L 13.186386 49.71264 
L 14.701848 50.32152 
L 16.21731 51.17808 
L 17.732772 52.44744 
L 19.248234 52.74672 
L 20.763696 51.4464 
L 22.279158 51.46704 
L 23.79462 53.2524 
L 25.310083 53.08728 
L 26.825545 53.5104 
L 28.341007 57.26688 
L 29.856469 57.76224 
L 31.371931 58.02024 
L 32.887393 62.26176 
L 34.402855 59.68176 
L 35.918317 59.9604 
L 37.433779 58.12344 
L 38.949241 57.02952 
L 40.464703 58.09248 
L 41.980165 55.13064 
L 43.495627 53.046 
L 45.011089 52.5816 
L 46.526551 52.9944 
L 48.042013 52.5816 
L 49.557475 50.0016 
L 51.072937 53.48976 
L 52.588399 52.40616 
L 54.103861 54.75912 
L 55.619323 62.67456 
L 57.134785 63.95424 
L 58.650248 57.86544 
L 60.16571 56.57544 
L 61.681172 58.31952 
L 63.196634 60.4764 
L 64.712096 61.85928 
L 66.227558 62.73648 
L 67.74302 61.8696 
L 69.258482 60.45576 
L 70.773944 60.54864 
L 72.289406 62.04504 
L 73.804868 63.16992 
L 75.32033 62.36496 
L 76.835792 61.21944 
L 78.351254 60.9408 
L 79.866716 57.83448 
L 81.382178 58.40208 
L 82.89764 60.49704 
L 84.413102 61.75608 
L 85.928564 63.1596 
L 87.444026 62.49912 
L 88.959488 62.1276 
L 90.47495 61.56 
L 93.505875 70.66224 
L 95.021337 68.72208 
L 96.536799 70.4868 
L 98.052261 68.61888 
L 99.567723 69.11424 
L 101.083185 66.5136 
L 102.598647 66.68904 
L 104.114109 68.8872 
L 105.629571 68.9904 
L 107.145033 71.5704 
L 108.660495 73.48992 
L 110.175957 72.54048 
L 111.691419 73.56216 
L 113.206881 74.74896 
L 114.722343 73.3248 
L 116.237805 74.80056 
L 117.753267 77.556 
L 119.268729 78.55704 
L 120.784191 78.50544 
L 122.299653 78.04104 
L 123.815115 75.76032 
L 125.330578 75.73968 
L 126.84604 74.65608 
L 128.361502 74.83152 
L 129.876964 74.57352 
L 131.392426 75.20304 
L 132.907888 75.17208 
L 134.42335 78.05136 
L 137.454274 72.16896 
L 138.969736 73.08744 
L 140.485198 74.72832 
L 143.516122 74.28456 
L 145.031584 73.21128 
L 146.547046 70.2804 
L 148.062508 70.2288 
L 149.57797 71.56008 
L 151.093432 73.79952 
L 152.608894 73.35576 
L 154.124356 74.0988 
L 155.639818 75.5952 
L 157.155281 75.5952 
L 158.670743 77.61792 
L 160.186205 77.63856 
L 161.701667 75.40944 
L 163.217129 75.40944 
L 164.732591 75.04824 
L 166.248053 74.98632 
L 167.763515 75.58488 
L 169.278977 75.87384 
L 170.794439 76.49304 
L 173.825363 75.82224 
L 175.340825 75.84288 
L 176.856287 76.03896 
L 178.371749 75.51264 
L 179.887211 75.56424 
L 181.402673 75.05856 
L 182.918135 73.26288 
L 184.433597 73.20096 
L 185.949059 73.00488 
L 187.464521 71.68392 
L 188.979983 70.6932 
L 190.495446 72.62304 
L 192.010908 73.52088 
L 193.52637 73.83048 
L 195.041832 73.8408 
L 196.557294 73.29384 
L 198.072756 73.72728 
L 199.588218 70.32168 
L 201.10368 69.77472 
L 202.619142 70.34232 
L 204.134604 70.67256 
L 205.650066 70.51776 
L 207.165528 70.848 
L 208.68099 72.31344 
L 210.196452 76.01832 
L 211.711914 75.41976 
L 213.227376 75.83256 
L 216.2583 75.82224 
L 217.773762 77.82432 
L 219.289224 76.14216 
L 220.804686 74.75928 
L 222.320148 74.96568 
L 223.835611 77.75208 
L 225.351073 79.48584 
L 226.866535 83.31456 
L 228.381997 85.90488 
L 229.897459 84.79032 
L 231.176849 85.84296 
L 233.895858 91.41576 
L 235.40483 88.7532 
L 238.45789 88.55712 
L 239.981999 88.96992 
L 243.004329 90.456 
L 244.519335 90.56952 
L 246.016573 89.15568 
L 247.452069 88.9596 
L 249.064739 90.6624 
L 250.389838 89.94 
L 252.09326 90.00192 
L 255.113484 90.62112 
L 258.152459 90.3528 
L 259.672482 92.004 
L 261.059919 92.13816 
L 262.697951 91.25064 
L 264.20666 89.166 
L 265.719245 89.56848 
L 267.216852 90.93072 
L 268.766745 89.41368 
L 270.266561 90.37344 
L 271.785549 89.79552 
L 273.292521 90.23928 
L 274.811246 88.0824 
L 276.325989 88.7532 
L 277.829822 90.16704 
L 279.36 90.67272 
L 279.36 90.67272 
" clip-path="url(#p2bb9f052a7)" style="fill: none; stroke: #4a8dff; stroke-width: 0.6"/>
   </g>
   <g id="line2d_7">
    <path d="M 8.64 61.13688 
L 10.155462 58.6188 
L 11.670924 57.03984 
L 13.186386 56.35872 
L 14.701848 56.5548 
L 16.21731 57.174 
L 17.732772 57.14304 
L 19.248234 55.7292 
L 20.763696 56.04912 
L 22.279158 55.33704 
L 23.79462 56.87472 
L 25.310083 56.8128 
L 26.825545 57.24624 
L 28.341007 59.93976 
L 29.856469 60.64152 
L 31.371931 59.29992 
L 32.887393 63.80976 
L 34.402855 63.03576 
L 35.918317 63.09768 
L 37.433779 60.51768 
L 38.949241 58.27824 
L 40.464703 58.5672 
L 41.980165 53.93352 
L 43.495627 51.74568 
L 45.011089 50.04288 
L 46.526551 49.90872 
L 48.042013 48.74256 
L 49.557475 47.43192 
L 51.072937 50.80656 
L 52.588399 48.90768 
L 54.103861 50.6208 
L 55.619323 59.42376 
L 57.134785 61.85928 
L 58.650248 57.35976 
L 60.16571 57.3288 
L 61.681172 59.46504 
L 64.712096 64.72824 
L 66.227558 66.42072 
L 67.74302 65.688 
L 69.258482 64.17096 
L 70.773944 62.10696 
L 72.289406 64.30512 
L 73.804868 65.20296 
L 75.32033 62.68488 
L 76.835792 61.70448 
L 78.351254 61.06464 
L 79.866716 58.1028 
L 81.382178 58.40208 
L 82.89764 59.68176 
L 84.413102 62.6952 
L 85.928564 64.56312 
L 87.444026 63.18024 
L 88.959488 62.72616 
L 90.47495 62.06568 
L 91.990413 66.33816 
L 93.505875 71.40528 
L 95.021337 69.08328 
L 96.536799 71.7252 
L 98.052261 69.57864 
L 99.567723 70.72416 
L 101.083185 68.2164 
L 102.598647 66.978 
L 104.114109 70.03272 
L 105.629571 71.5188 
L 107.145033 73.3764 
L 108.660495 78.846 
L 110.175957 77.75208 
L 111.691419 78.88728 
L 113.206881 81.34344 
L 114.722343 80.53848 
L 116.237805 82.0452 
L 117.753267 86.92656 
L 119.268729 88.58808 
L 120.784191 88.96992 
L 122.299653 86.7924 
L 123.815115 85.296 
L 125.330578 86.24544 
L 126.84604 82.96368 
L 128.361502 82.13808 
L 129.876964 82.47864 
L 131.392426 82.58184 
L 132.907888 83.03592 
L 134.42335 87.3084 
L 135.938812 82.06584 
L 137.454274 79.71288 
L 138.969736 81.24024 
L 140.485198 84.17112 
L 142.00066 84.24336 
L 143.516122 83.29392 
L 145.031584 82.8192 
L 146.547046 80.64168 
L 148.062508 81.38472 
L 149.57797 80.87904 
L 151.093432 83.13912 
L 152.608894 83.19072 
L 154.124356 85.296 
L 155.639818 87.17424 
L 157.155281 85.71912 
L 158.670743 87.53544 
L 160.186205 88.17528 
L 161.701667 85.41984 
L 164.732591 84.9348 
L 166.248053 85.01736 
L 167.763515 86.14224 
L 169.278977 85.90488 
L 170.794439 86.328 
L 172.309901 86.24544 
L 173.825363 85.72944 
L 175.340825 85.7088 
L 176.856287 86.40024 
L 178.371749 85.09992 
L 179.887211 86.02872 
L 182.918135 83.53128 
L 185.949059 82.03488 
L 187.464521 79.39296 
L 188.979983 79.66128 
L 190.495446 82.15872 
L 192.010908 82.43736 
L 193.52637 82.93272 
L 195.041832 83.00496 
L 198.072756 82.28256 
L 199.588218 78.01008 
L 201.10368 76.19376 
L 202.619142 77.66952 
L 204.134604 77.74176 
L 205.650066 78.1752 
L 207.165528 79.5684 
L 208.68099 80.8068 
L 210.196452 85.20312 
L 211.711914 84.12984 
L 213.227376 84.03696 
L 214.742838 84.06792 
L 216.2583 84.3156 
L 217.773762 87.02976 
L 219.289224 85.21344 
L 220.804686 84.28464 
L 222.320148 84.32592 
L 223.835611 89.08344 
L 225.351073 89.5272 
L 226.866535 95.14128 
L 228.381997 96.98856 
L 229.897459 95.08968 
L 231.176849 97.71096 
L 232.381168 99.80592 
L 233.895858 101.79768 
L 235.40483 100.03296 
L 236.954934 100.518 
L 238.45789 99.98136 
L 239.981999 100.49736 
L 244.519335 101.26104 
L 246.016573 100.63152 
L 247.452069 100.38384 
L 249.064739 100.84824 
L 250.389838 100.65216 
L 252.09326 101.034 
L 253.60688 101.19912 
L 258.152459 100.91016 
L 259.672482 101.7564 
L 261.059919 101.84928 
L 262.697951 101.56032 
L 264.20666 100.85856 
L 267.216852 101.4468 
L 268.766745 101.02368 
L 270.266561 101.30232 
L 271.785549 100.81728 
L 273.292521 100.79664 
L 274.811246 99.3312 
L 276.325989 99.92976 
L 277.829822 100.78632 
L 279.36 101.17848 
L 279.36 101.17848 
" clip-path="url(#p2bb9f052a7)" style="fill: none; stroke: #f5841e; stroke-width: 0.6"/>
   </g>
  </g>
 </g>
 <defs>
  <clipPath id="p2bb9f052a7">
   <rect x="8.64" y="4.8" width="270.72" height="103.2"/>
  </clipPath>
 </defs>
</svg>
