<?xml version="1.0" encoding="utf-8" standalone="no"?>
<!DOCTYPE svg PUBLIC "-//W3C//DTD SVG 1.1//EN"
  "http://www.w3.org/Graphics/SVG/1.1/DTD/svg11.dtd">
<svg xmlns:xlink="http://www.w3.org/1999/xlink" width="288pt" height="120pt" viewBox="0 0 288 120" xmlns="http://www.w3.org/2000/svg" version="1.1">
<desc id="nav-meta">{"window":"1m","count":4,"labels":["13.05","23.05","01.06","11.06"],"tick_utc":["2026-05-13T04:33:49Z","2026-05-23T04:28:38Z","2026-06-01T05:29:45Z","2026-06-11T05:14:13Z"],"w":720,"h":300}</desc>

 <metadata>
  <rdf:RDF xmlns:dc="http://purl.org/dc/elements/1.1/" xmlns:cc="http://creativecommons.org/ns#" xmlns:rdf="http://www.w3.org/1999/02/22-rdf-syntax-ns#">
   <cc:Work>
    <dc:type rdf:resource="http://purl.org/dc/dcmitype/StillImage"/>
    <dc:date>2026-06-11T11:14:25.680121</dc:date>
    <dc:format>image/svg+xml</dc:format>
    <dc:creator>
     <cc:Agent>
      <dc:title>Matplotlib v3.10.9, https://matplotlib.org/</dc:title>
     </cc:Agent>
    </dc:creator>
   </cc:Work>
  </rdf:RDF>
 </metadata>
 <defs>
  <style type="text/css">*{stroke-linejoin: round; stroke-linecap: butt}</style>
 </defs>
 <g id="figure_1">
  <g id="patch_1">
   <path d="M 0 120 
L 288 120 
L 288 0 
L 0 0 
L 0 120 
z
" style="fill: none; opacity: 0"/>
  </g>
  <g id="axes_1">
   <g id="patch_2">
    <path d="M 8.64 108 
L 279.36 108 
L 279.36 4.8 
L 8.64 4.8 
L 8.64 108 
z
" style="fill: none"/>
   </g>
   <g id="matplotlib.axis_1"/>
   <g id="matplotlib.axis_2"/>
   <g id="line2d_1">
    <path d="M 8.64 87.36 
L 279.36 87.36 
" clip-path="url(#p7db698215c)" style="fill: none; stroke: #b2b2b2; stroke-opacity: 0.35; stroke-width: 0.5; stroke-linecap: square"/>
   </g>
   <g id="line2d_2">
    <path d="M 8.64 66.72 
L 279.36 66.72 
" clip-path="url(#p7db698215c)" style="fill: none; stroke: #b2b2b2; stroke-opacity: 0.35; stroke-width: 0.5; stroke-linecap: square"/>
   </g>
   <g id="line2d_3">
    <path d="M 8.64 46.08 
L 279.36 46.08 
" clip-path="url(#p7db698215c)" style="fill: none; stroke: #b2b2b2; stroke-opacity: 0.35; stroke-width: 0.5; stroke-linecap: square"/>
   </g>
   <g id="line2d_4">
    <path d="M 8.64 25.44 
L 279.36 25.44 
" clip-path="url(#p7db698215c)" style="fill: none; stroke: #b2b2b2; stroke-opacity: 0.35; stroke-width: 0.5; stroke-linecap: square"/>
   </g>
   <g id="line2d_5">
    <path d="M 8.64 99.32088 
L 17.955788 100.22904 
L 27.327921 100.01232 
L 36.535011 100.43544 
L 46.000406 100.75536 
L 55.417119 101.02368 
L 64.676453 101.02368 
L 74.035957 101.17848 
L 83.415214 100.7244 
L 92.669907 100.75536 
L 101.86793 101.11656 
L 111.341744 100.91016 
L 120.790624 100.89984 
L 129.975478 101.1372 
L 139.397372 101.2404 
L 148.69373 101.6532 
L 158.026789 101.4984 
L 167.218443 101.48808 
L 176.735002 101.32296 
L 186.199102 101.51904 
L 195.433501 101.7048 
L 204.86457 102.54072 
L 214.15877 103.08768 
L 223.331319 103.36632 
L 232.514123 104.22288 
L 242.04072 103.85136 
L 251.408104 103.68624 
L 260.556258 103.43856 
L 269.979124 103.81008 
L 279.36 103.72752 
" clip-path="url(#p7db698215c)" style="fill: none; stroke: #bebebe; stroke-width: 0.5; stroke-linecap: round"/>
   </g>
   <g id="line2d_6">
    <path d="M 8.64 85.35792 
L 17.955788 86.1732 
L 27.327921 85.92552 
L 36.535011 86.55504 
L 46.000406 87.13296 
L 55.417119 88.10304 
L 64.676453 87.9276 
L 74.035957 88.26816 
L 83.415214 87.78312 
L 92.669907 87.95856 
L 101.86793 88.94928 
L 111.341744 88.14432 
L 120.790624 88.33008 
L 129.975478 88.52616 
L 139.397372 88.86672 
L 148.69373 90.22896 
L 158.026789 89.82648 
L 167.218443 89.87808 
L 176.735002 89.46528 
L 186.199102 90.0432 
L 195.433501 89.96064 
L 204.86457 91.99368 
L 214.15877 93.05664 
L 223.331319 93.74808 
L 232.514123 97.02984 
L 242.04072 95.93592 
L 251.408104 95.07936 
L 260.556258 94.46016 
L 269.979124 95.47152 
L 279.36 95.11032 
" clip-path="url(#p7db698215c)" style="fill: none; stroke: #4a8dff; stroke-width: 0.6"/>
   </g>
   <g id="line2d_7">
    <path d="M 8.64 92.53032 
L 17.955788 94.54272 
L 27.327921 92.85024 
L 36.535011 94.82136 
L 46.000406 95.75016 
L 55.417119 96.97824 
L 64.676453 97.08144 
L 74.035957 97.23624 
L 83.415214 95.94624 
L 92.669907 96.30744 
L 101.86793 98.08248 
L 111.341744 97.2672 
L 120.790624 96.61704 
L 129.975478 97.23624 
L 139.397372 98.08248 
L 148.69373 99.18672 
L 158.026789 99.03192 
L 167.218443 99.1248 
L 176.735002 98.74296 
L 186.199102 99.09384 
L 195.433501 100.0536 
L 204.86457 101.23008 
L 214.15877 101.99376 
L 223.331319 102.08664 
L 232.514123 102.8916 
L 242.04072 102.45816 
L 251.408104 102.28272 
L 260.556258 102.10728 
L 269.979124 102.582 
L 279.36 102.29304 
" clip-path="url(#p7db698215c)" style="fill: none; stroke: #f5841e; stroke-width: 0.6"/>
   </g>
  </g>
 </g>
 <defs>
  <clipPath id="p7db698215c">
   <rect x="8.64" y="4.8" width="270.72" height="103.2"/>
  </clipPath>
 </defs>
</svg>
