<?xml version="1.0" encoding="utf-8" standalone="no"?>
<!DOCTYPE svg PUBLIC "-//W3C//DTD SVG 1.1//EN"
  "http://www.w3.org/Graphics/SVG/1.1/DTD/svg11.dtd">
<svg xmlns:xlink="http://www.w3.org/1999/xlink" width="288pt" height="120pt" viewBox="0 0 288 120" xmlns="http://www.w3.org/2000/svg" version="1.1">
<desc id="nav-meta">{"window":"3m","count":4,"labels":["25.11","25.12","23.01","22.02"],"tick_utc":["2025-11-25T12:00:00Z","2025-12-25T12:00:00Z","2026-01-23T12:00:00Z","2026-02-22T03:28:03Z"],"w":720,"h":300}</desc>

 <metadata>
  <rdf:RDF xmlns:dc="http://purl.org/dc/elements/1.1/" xmlns:cc="http://creativecommons.org/ns#" xmlns:rdf="http://www.w3.org/1999/02/22-rdf-syntax-ns#">
   <cc:Work>
    <dc:type rdf:resource="http://purl.org/dc/dcmitype/StillImage"/>
    <dc:date>2026-02-22T13:30:56.168952</dc:date>
    <dc:format>image/svg+xml</dc:format>
    <dc:creator>
     <cc:Agent>
      <dc:title>Matplotlib v3.10.8, https://matplotlib.org/</dc:title>
     </cc:Agent>
    </dc:creator>
   </cc:Work>
  </rdf:RDF>
 </metadata>
 <defs>
  <style type="text/css">*{stroke-linejoin: round; stroke-linecap: butt}</style>
 </defs>
 <g id="figure_1">
  <g id="patch_1">
   <path d="M 0 120 
L 288 120 
L 288 0 
L 0 0 
L 0 120 
z
" style="fill: none; opacity: 0"/>
  </g>
  <g id="axes_1">
   <g id="patch_2">
    <path d="M 8.64 108 
L 279.36 108 
L 279.36 4.8 
L 8.64 4.8 
L 8.64 108 
z
" style="fill: none"/>
   </g>
   <g id="matplotlib.axis_1"/>
   <g id="matplotlib.axis_2"/>
   <g id="line2d_1">
    <path d="M 8.64 87.36 
L 279.36 87.36 
" clip-path="url(#p6ff544c1cb)" style="fill: none; stroke: #b2b2b2; stroke-opacity: 0.35; stroke-width: 0.5; stroke-linecap: square"/>
   </g>
   <g id="line2d_2">
    <path d="M 8.64 66.72 
L 279.36 66.72 
" clip-path="url(#p6ff544c1cb)" style="fill: none; stroke: #b2b2b2; stroke-opacity: 0.35; stroke-width: 0.5; stroke-linecap: square"/>
   </g>
   <g id="line2d_3">
    <path d="M 8.64 46.08 
L 279.36 46.08 
" clip-path="url(#p6ff544c1cb)" style="fill: none; stroke: #b2b2b2; stroke-opacity: 0.35; stroke-width: 0.5; stroke-linecap: square"/>
   </g>
   <g id="line2d_4">
    <path d="M 8.64 25.44 
L 279.36 25.44 
" clip-path="url(#p6ff544c1cb)" style="fill: none; stroke: #b2b2b2; stroke-opacity: 0.35; stroke-width: 0.5; stroke-linecap: square"/>
   </g>
   <g id="line2d_5">
    <path d="M 8.64 88.7016 
L 11.693997 88.52616 
L 14.747995 87.45288 
L 17.801992 88.0308 
L 20.855989 88.94928 
L 23.909986 89.3208 
L 26.963984 89.7336 
L 30.017981 91.86984 
L 33.071978 88.60872 
L 36.125976 86.87496 
L 39.179973 88.52616 
L 42.23397 90.11544 
L 45.287968 90.38376 
L 48.341965 90.53856 
L 51.395962 90.08448 
L 54.449959 88.79448 
L 57.503957 89.20728 
L 60.557954 89.22792 
L 63.611951 90.31152 
L 66.665949 90.10512 
L 69.719946 91.09584 
L 72.773943 91.61184 
L 75.827941 91.31256 
L 78.881938 92.87088 
L 81.935935 93.8616 
L 84.989932 92.02464 
L 88.04393 92.13816 
L 91.097927 92.07624 
L 94.151924 92.14848 
L 97.205922 92.64384 
L 100.259919 93.01536 
L 103.313916 93.69648 
L 106.367914 93.11856 
L 109.421911 92.44776 
L 112.475908 92.30328 
L 115.529905 92.87088 
L 118.583903 92.38584 
L 121.6379 92.47872 
L 124.691897 91.88016 
L 127.745895 90.42504 
L 130.799892 90.08448 
L 133.853889 89.92968 
L 136.907887 88.76352 
L 139.961884 87.94824 
L 143.015881 89.2692 
L 146.069878 88.72224 
L 149.123876 89.39304 
L 152.177873 89.40336 
L 155.23187 88.41264 
L 158.285868 88.4952 
L 161.339865 86.86464 
L 164.393862 86.42088 
L 167.44786 87.62832 
L 170.501857 86.93688 
L 173.555854 87.23616 
L 176.609851 88.63968 
L 179.663849 90.0432 
L 182.717846 92.12784 
L 185.771843 91.16808 
L 188.825841 91.46736 
L 191.879838 91.73568 
L 194.933835 91.78728 
L 197.987833 94.0164 
L 201.04183 92.5716 
L 204.095827 91.76664 
L 207.149824 92.33424 
L 210.203822 94.36728 
L 213.257819 94.46016 
L 216.311816 97.71096 
L 219.365814 98.48496 
L 222.419811 97.85544 
L 224.99807 99.10416 
L 227.425044 100.16712 
L 230.477486 102.23112 
L 233.518405 100.54896 
L 236.642213 100.70376 
L 239.671008 100.68312 
L 242.742431 100.95144 
L 245.790101 101.28168 
L 248.833105 101.71512 
L 251.886184 101.84928 
L 254.903455 101.034 
L 257.796305 100.54896 
L 261.046196 101.04432 
L 263.71657 100.81728 
L 267.149348 101.034 
L 270.199634 101.4984 
L 273.235781 101.33328 
L 276.271115 101.1372 
L 279.36 101.06496 
" clip-path="url(#p6ff544c1cb)" style="fill: none; stroke: #bebebe; stroke-width: 0.5; stroke-linecap: round"/>
   </g>
   <g id="line2d_6">
    <path d="M 8.64 75.76032 
L 11.693997 75.73968 
L 14.747995 74.65608 
L 17.801992 74.83152 
L 20.855989 74.57352 
L 23.909986 75.20304 
L 26.963984 75.17208 
L 30.017981 78.05136 
L 33.071978 75.1308 
L 36.125976 72.16896 
L 39.179973 73.08744 
L 42.23397 74.72832 
L 45.287968 74.48064 
L 48.341965 74.28456 
L 51.395962 73.21128 
L 54.449959 70.2804 
L 57.503957 70.2288 
L 60.557954 71.56008 
L 63.611951 73.79952 
L 66.665949 73.35576 
L 69.719946 74.0988 
L 72.773943 75.5952 
L 75.827941 75.5952 
L 78.881938 77.61792 
L 81.935935 77.63856 
L 84.989932 75.40944 
L 88.04393 75.40944 
L 91.097927 75.04824 
L 94.151924 74.98632 
L 97.205922 75.58488 
L 100.259919 75.87384 
L 103.313916 76.49304 
L 106.367914 76.15248 
L 109.421911 75.82224 
L 112.475908 75.84288 
L 115.529905 76.03896 
L 118.583903 75.51264 
L 121.6379 75.56424 
L 124.691897 75.05856 
L 127.745895 73.26288 
L 130.799892 73.20096 
L 133.853889 73.00488 
L 136.907887 71.68392 
L 139.961884 70.6932 
L 143.015881 72.62304 
L 146.069878 73.52088 
L 149.123876 73.83048 
L 152.177873 73.8408 
L 155.23187 73.29384 
L 158.285868 73.72728 
L 161.339865 70.32168 
L 164.393862 69.77472 
L 167.44786 70.34232 
L 170.501857 70.67256 
L 173.555854 70.51776 
L 176.609851 70.848 
L 179.663849 72.31344 
L 182.717846 76.01832 
L 185.771843 75.41976 
L 188.825841 75.83256 
L 191.879838 75.79128 
L 194.933835 75.82224 
L 197.987833 77.82432 
L 201.04183 76.14216 
L 204.095827 74.75928 
L 207.149824 74.96568 
L 210.203822 77.75208 
L 213.257819 79.48584 
L 216.311816 83.31456 
L 219.365814 85.90488 
L 222.419811 84.79032 
L 224.99807 85.84296 
L 227.425044 88.25784 
L 230.477486 91.41576 
L 233.518405 88.7532 
L 236.642213 88.65 
L 239.671008 88.55712 
L 242.742431 88.96992 
L 245.790101 89.7336 
L 248.833105 90.456 
L 251.886184 90.56952 
L 254.903455 89.15568 
L 257.796305 88.9596 
L 261.046196 90.6624 
L 263.71657 89.94 
L 267.149348 90.00192 
L 270.199634 90.3528 
L 273.235781 90.62112 
L 276.271115 90.5076 
L 279.36 90.3528 
" clip-path="url(#p6ff544c1cb)" style="fill: none; stroke: #4a8dff; stroke-width: 0.6"/>
   </g>
   <g id="line2d_7">
    <path d="M 8.64 85.296 
L 11.693997 86.24544 
L 14.747995 82.96368 
L 17.801992 82.13808 
L 20.855989 82.47864 
L 23.909986 82.58184 
L 26.963984 83.03592 
L 30.017981 87.3084 
L 33.071978 82.06584 
L 36.125976 79.71288 
L 39.179973 81.24024 
L 42.23397 84.17112 
L 45.287968 84.24336 
L 48.341965 83.29392 
L 51.395962 82.8192 
L 54.449959 80.64168 
L 57.503957 81.38472 
L 60.557954 80.87904 
L 63.611951 83.13912 
L 66.665949 83.19072 
L 69.719946 85.296 
L 72.773943 87.17424 
L 75.827941 85.71912 
L 78.881938 87.53544 
L 81.935935 88.17528 
L 84.989932 85.41984 
L 88.04393 85.17216 
L 91.097927 84.9348 
L 94.151924 85.01736 
L 97.205922 86.14224 
L 100.259919 85.90488 
L 103.313916 86.328 
L 106.367914 86.24544 
L 109.421911 85.72944 
L 112.475908 85.7088 
L 115.529905 86.40024 
L 118.583903 85.09992 
L 121.6379 86.02872 
L 124.691897 84.78 
L 127.745895 83.53128 
L 130.799892 82.83984 
L 133.853889 82.03488 
L 136.907887 79.39296 
L 139.961884 79.66128 
L 143.015881 82.15872 
L 146.069878 82.43736 
L 149.123876 82.93272 
L 152.177873 83.00496 
L 155.23187 82.6128 
L 158.285868 82.28256 
L 161.339865 78.01008 
L 164.393862 76.19376 
L 167.44786 77.66952 
L 170.501857 77.74176 
L 173.555854 78.1752 
L 176.609851 79.5684 
L 179.663849 80.8068 
L 182.717846 85.20312 
L 185.771843 84.12984 
L 188.825841 84.03696 
L 191.879838 84.06792 
L 194.933835 84.3156 
L 197.987833 87.02976 
L 201.04183 85.21344 
L 204.095827 84.28464 
L 207.149824 84.32592 
L 210.203822 89.08344 
L 213.257819 89.5272 
L 216.311816 95.14128 
L 219.365814 96.98856 
L 222.419811 95.08968 
L 224.99807 97.71096 
L 227.425044 99.80592 
L 230.477486 101.79768 
L 233.518405 100.03296 
L 236.642213 100.518 
L 239.671008 99.98136 
L 242.742431 100.49736 
L 245.790101 100.78632 
L 248.833105 101.07528 
L 251.886184 101.26104 
L 254.903455 100.63152 
L 257.796305 100.38384 
L 261.046196 100.84824 
L 263.71657 100.65216 
L 267.149348 101.034 
L 270.199634 101.19912 
L 273.235781 101.10624 
L 276.271115 100.97208 
L 279.36 100.91016 
" clip-path="url(#p6ff544c1cb)" style="fill: none; stroke: #f5841e; stroke-width: 0.6"/>
   </g>
  </g>
 </g>
 <defs>
  <clipPath id="p6ff544c1cb">
   <rect x="8.64" y="4.8" width="270.72" height="103.2"/>
  </clipPath>
 </defs>
</svg>
