<?xml version="1.0" encoding="utf-8" standalone="no"?>
<!DOCTYPE svg PUBLIC "-//W3C//DTD SVG 1.1//EN"
  "http://www.w3.org/Graphics/SVG/1.1/DTD/svg11.dtd">
<svg xmlns:xlink="http://www.w3.org/1999/xlink" width="288pt" height="120pt" viewBox="0 0 288 120" xmlns="http://www.w3.org/2000/svg" version="1.1">
<desc id="nav-meta">{"window":"3m","count":4,"labels":["03.04","03.05","01.06","01.07"],"tick_utc":["2026-04-03T03:37:13Z","2026-05-03T04:31:45Z","2026-06-01T05:29:45Z","2026-07-01T05:10:59Z"],"w":720,"h":300}</desc>

 <metadata>
  <rdf:RDF xmlns:dc="http://purl.org/dc/elements/1.1/" xmlns:cc="http://creativecommons.org/ns#" xmlns:rdf="http://www.w3.org/1999/02/22-rdf-syntax-ns#">
   <cc:Work>
    <dc:type rdf:resource="http://purl.org/dc/dcmitype/StillImage"/>
    <dc:date>2026-07-01T10:31:56.575173</dc:date>
    <dc:format>image/svg+xml</dc:format>
    <dc:creator>
     <cc:Agent>
      <dc:title>Matplotlib v3.11.0, https://matplotlib.org/</dc:title>
     </cc:Agent>
    </dc:creator>
   </cc:Work>
  </rdf:RDF>
 </metadata>
 <defs>
  <style type="text/css">*{stroke-linejoin: round; stroke-linecap: butt}</style>
 </defs>
 <g id="figure_1">
  <g id="patch_1">
   <path d="M 0 120 
L 288 120 
L 288 0 
L 0 0 
L 0 120 
z
" style="fill: none; opacity: 0"/>
  </g>
  <g id="axes_1">
   <g id="patch_2">
    <path d="M 8.64 108 
L 279.36 108 
L 279.36 4.8 
L 8.64 4.8 
L 8.64 108 
z
" style="fill: none"/>
   </g>
   <g id="matplotlib.axis_1"/>
   <g id="matplotlib.axis_2"/>
   <g id="line2d_1">
    <path d="M 8.64 87.36 
L 279.36 87.36 
" clip-path="url(#p84c0788309)" style="fill: none; stroke: #b2b2b2; stroke-opacity: 0.35; stroke-width: 0.5; stroke-linecap: square"/>
   </g>
   <g id="line2d_2">
    <path d="M 8.64 66.72 
L 279.36 66.72 
" clip-path="url(#p84c0788309)" style="fill: none; stroke: #b2b2b2; stroke-opacity: 0.35; stroke-width: 0.5; stroke-linecap: square"/>
   </g>
   <g id="line2d_3">
    <path d="M 8.64 46.08 
L 279.36 46.08 
" clip-path="url(#p84c0788309)" style="fill: none; stroke: #b2b2b2; stroke-opacity: 0.35; stroke-width: 0.5; stroke-linecap: square"/>
   </g>
   <g id="line2d_4">
    <path d="M 8.64 25.44 
L 279.36 25.44 
" clip-path="url(#p84c0788309)" style="fill: none; stroke: #b2b2b2; stroke-opacity: 0.35; stroke-width: 0.5; stroke-linecap: square"/>
   </g>
   <g id="line2d_5">
    <path d="M 8.64 101.88024 
L 11.65354 101.72544 
L 14.738884 101.68416 
L 17.786303 101.47776 
L 20.806141 101.78736 
L 23.85064 101.09592 
L 26.879624 101.46744 
L 29.947167 101.3436 
L 32.940267 101.05464 
L 36.034371 101.3952 
L 39.089529 101.47776 
L 42.109754 100.86888 
L 45.147006 101.26104 
L 48.199738 100.99272 
L 51.23312 100.61088 
L 54.239167 100.44576 
L 57.318881 100.94112 
L 60.365984 101.09592 
L 63.392224 101.00304 
L 66.42237 100.69344 
L 69.474257 100.9308 
L 72.521887 100.92048 
L 75.52519 100.81728 
L 78.612046 100.8792 
L 81.684373 100.64184 
L 84.730314 101.1888 
L 87.761586 101.09592 
L 90.806261 101.37456 
L 93.879045 101.21976 
L 96.841046 101.20944 
L 99.942326 101.23008 
L 102.980845 100.92048 
L 105.953471 101.06496 
L 109.046589 100.70376 
L 112.086972 100.55928 
L 115.075957 100.53864 
L 118.126648 99.60984 
L 121.22747 99.72336 
L 124.291037 99.44472 
L 127.288395 99.25896 
L 130.342428 99.32088 
L 133.378624 100.22904 
L 136.433185 100.01232 
L 139.433955 100.43544 
L 142.518911 100.75536 
L 145.588001 101.02368 
L 148.605799 101.02368 
L 151.656243 101.17848 
L 154.713126 100.7244 
L 157.72941 100.75536 
L 160.727225 101.11656 
L 163.814926 100.91016 
L 166.8945 100.89984 
L 169.888023 101.1372 
L 172.958801 101.2404 
L 175.988666 101.6532 
L 179.030491 101.4984 
L 182.02623 101.48808 
L 185.127862 101.32296 
L 188.212396 101.51904 
L 191.222067 101.7048 
L 194.295836 102.54072 
L 197.324997 103.08768 
L 200.314509 103.36632 
L 203.307364 104.22288 
L 206.412267 103.85136 
L 209.46528 103.68624 
L 212.446842 103.43856 
L 215.517937 103.81008 
L 218.575347 103.72752 
L 221.626847 103.50048 
L 224.644187 103.5108 
L 227.705819 103.31472 
L 230.846431 102.95352 
L 233.903348 102.61296 
L 236.846106 102.6336 
L 239.871116 102.9948 
L 242.982281 103.28376 
L 245.900307 103.01544 
L 249.003135 102.69552 
L 252.13168 102.582 
L 254.989548 102.88128 
L 258.039993 103.15992 
L 261.078757 103.36632 
L 264.133916 103.36632 
L 267.136234 102.81936 
L 270.23375 103.0464 
L 273.295311 102.9432 
L 276.275958 102.59232 
L 279.36 102.40656 
" clip-path="url(#p84c0788309)" style="fill: none; stroke: #bebebe; stroke-width: 0.5; stroke-linecap: round"/>
   </g>
   <g id="line2d_6">
    <path d="M 8.64 89.10408 
L 11.65354 89.14536 
L 14.738884 89.07312 
L 17.786303 87.9792 
L 20.806141 88.29912 
L 23.85064 86.38992 
L 26.879624 87.24648 
L 29.947167 87.1536 
L 32.940267 86.21448 
L 36.034371 86.66856 
L 39.089529 87.01944 
L 42.109754 84.44976 
L 45.147006 85.05864 
L 48.199738 84.58392 
L 51.23312 85.04832 
L 54.239167 83.71704 
L 57.318881 84.86256 
L 60.365984 85.6572 
L 63.392224 85.27536 
L 66.42237 84.49104 
L 69.474257 84.86256 
L 72.521887 85.32696 
L 75.52519 85.17216 
L 78.612046 85.31664 
L 81.684373 84.11952 
L 84.730314 85.66752 
L 87.761586 85.26504 
L 90.806261 86.26608 
L 93.879045 85.77072 
L 96.841046 85.38888 
L 99.942326 85.3992 
L 102.980845 84.09888 
L 105.953471 84.22272 
L 109.046589 84.34656 
L 112.086972 85.06896 
L 115.075957 85.7604 
L 118.126648 85.0896 
L 121.22747 85.01736 
L 124.291037 84.9348 
L 127.288395 85.296 
L 130.342428 85.35792 
L 133.378624 86.1732 
L 136.433185 85.92552 
L 139.433955 86.55504 
L 142.518911 87.13296 
L 145.588001 88.10304 
L 148.605799 87.9276 
L 151.656243 88.26816 
L 154.713126 87.78312 
L 157.72941 87.95856 
L 160.727225 88.94928 
L 163.814926 88.14432 
L 166.8945 88.33008 
L 169.888023 88.52616 
L 172.958801 88.86672 
L 175.988666 90.22896 
L 179.030491 89.82648 
L 182.02623 89.87808 
L 185.127862 89.46528 
L 188.212396 90.0432 
L 191.222067 89.96064 
L 194.295836 91.99368 
L 197.324997 93.05664 
L 200.314509 93.74808 
L 203.307364 97.02984 
L 206.412267 95.93592 
L 209.46528 95.07936 
L 212.446842 94.46016 
L 215.517937 95.47152 
L 218.575347 95.11032 
L 221.626847 94.82136 
L 224.644187 94.8936 
L 227.705819 94.70784 
L 230.846431 94.04736 
L 233.903348 93.40752 
L 236.846106 92.9844 
L 239.871116 93.93384 
L 242.982281 94.4292 
L 245.900307 94.19184 
L 249.003135 93.87192 
L 252.13168 93.81 
L 254.989548 94.03704 
L 258.039993 94.83168 
L 261.078757 95.48184 
L 264.133916 96.63768 
L 267.136234 96.14232 
L 270.23375 96.30744 
L 273.295311 96.29712 
L 276.275958 96.04944 
L 279.36 95.9256 
" clip-path="url(#p84c0788309)" style="fill: none; stroke: #4a8dff; stroke-width: 0.6"/>
   </g>
   <g id="line2d_7">
    <path d="M 8.64 101.28168 
L 11.65354 101.20944 
L 14.738884 101.14752 
L 17.786303 100.55928 
L 20.806141 100.65216 
L 23.85064 99.80592 
L 26.879624 99.96072 
L 29.947167 99.6408 
L 32.940267 99.1764 
L 36.034371 99.70272 
L 39.089529 99.94008 
L 42.109754 98.57784 
L 45.147006 98.65008 
L 48.199738 98.38176 
L 51.23312 98.48496 
L 54.239167 96.70992 
L 57.318881 98.05152 
L 60.365984 98.48496 
L 63.392224 97.96896 
L 66.42237 96.32808 
L 69.474257 96.20424 
L 72.521887 96.16296 
L 75.52519 96.1836 
L 78.612046 96.50352 
L 81.684373 94.76976 
L 84.730314 97.19496 
L 87.761586 96.9576 
L 90.806261 97.9896 
L 93.879045 96.89568 
L 96.841046 95.45088 
L 99.942326 95.67792 
L 102.980845 93.43848 
L 105.953471 92.90184 
L 109.046589 92.25168 
L 112.086972 92.87088 
L 115.075957 94.2744 
L 118.126648 93.1392 
L 121.22747 92.97408 
L 124.291037 92.9844 
L 127.288395 92.60256 
L 130.342428 92.53032 
L 133.378624 94.54272 
L 136.433185 92.85024 
L 139.433955 94.82136 
L 142.518911 95.75016 
L 145.588001 96.97824 
L 148.605799 97.08144 
L 151.656243 97.23624 
L 154.713126 95.94624 
L 157.72941 96.30744 
L 160.727225 98.08248 
L 163.814926 97.2672 
L 166.8945 96.61704 
L 169.888023 97.23624 
L 172.958801 98.08248 
L 175.988666 99.18672 
L 179.030491 99.03192 
L 182.02623 99.1248 
L 185.127862 98.74296 
L 188.212396 99.09384 
L 191.222067 100.0536 
L 194.295836 101.23008 
L 197.324997 101.99376 
L 200.314509 102.08664 
L 203.307364 102.8916 
L 206.412267 102.45816 
L 209.46528 102.28272 
L 212.446842 102.10728 
L 215.517937 102.582 
L 218.575347 102.29304 
L 221.626847 102.08664 
L 224.644187 102.066 
L 227.705819 101.86992 
L 230.846431 101.48808 
L 233.903348 101.40552 
L 236.846106 101.4984 
L 239.871116 101.97312 
L 242.982281 102.26208 
L 245.900307 102.066 
L 249.003135 101.90088 
L 252.13168 101.90088 
L 254.989548 102.0144 
L 258.039993 102.25176 
L 261.078757 102.6336 
L 264.133916 102.88128 
L 267.136234 102.77808 
L 270.23375 102.85032 
L 273.295311 102.93288 
L 276.275958 102.95352 
L 279.36 103.00512 
" clip-path="url(#p84c0788309)" style="fill: none; stroke: #f5841e; stroke-width: 0.6"/>
   </g>
  </g>
 </g>
 <defs>
  <clipPath id="p84c0788309">
   <rect x="8.64" y="4.8" width="270.72" height="103.2"/>
  </clipPath>
 </defs>
</svg>
