<?xml version="1.0" encoding="utf-8" standalone="no"?>
<!DOCTYPE svg PUBLIC "-//W3C//DTD SVG 1.1//EN"
  "http://www.w3.org/Graphics/SVG/1.1/DTD/svg11.dtd">
<svg xmlns:xlink="http://www.w3.org/1999/xlink" width="288pt" height="120pt" viewBox="0 0 288 120" xmlns="http://www.w3.org/2000/svg" version="1.1">
<desc id="nav-meta">{"window":"1m","count":4,"labels":["09.06","19.06","28.06","08.07"],"tick_utc":["2026-06-09T04:50:50Z","2026-06-19T05:57:01Z","2026-06-28T05:07:25Z","2026-07-08T03:58:12Z"],"w":720,"h":300}</desc>

 <metadata>
  <rdf:RDF xmlns:dc="http://purl.org/dc/elements/1.1/" xmlns:cc="http://creativecommons.org/ns#" xmlns:rdf="http://www.w3.org/1999/02/22-rdf-syntax-ns#">
   <cc:Work>
    <dc:type rdf:resource="http://purl.org/dc/dcmitype/StillImage"/>
    <dc:date>2026-07-08T14:59:44.758904</dc:date>
    <dc:format>image/svg+xml</dc:format>
    <dc:creator>
     <cc:Agent>
      <dc:title>Matplotlib v3.11.0, https://matplotlib.org/</dc:title>
     </cc:Agent>
    </dc:creator>
   </cc:Work>
  </rdf:RDF>
 </metadata>
 <defs>
  <style type="text/css">*{stroke-linejoin: round; stroke-linecap: butt}</style>
 </defs>
 <g id="figure_1">
  <g id="patch_1">
   <path d="M 0 120 
L 288 120 
L 288 0 
L 0 0 
L 0 120 
z
" style="fill: none; opacity: 0"/>
  </g>
  <g id="axes_1">
   <g id="patch_2">
    <path d="M 8.64 108 
L 279.36 108 
L 279.36 4.8 
L 8.64 4.8 
L 8.64 108 
z
" style="fill: none"/>
   </g>
   <g id="matplotlib.axis_1"/>
   <g id="matplotlib.axis_2"/>
   <g id="line2d_1">
    <path d="M 8.64 87.36 
L 279.36 87.36 
" clip-path="url(#p6fd713c6e6)" style="fill: none; stroke: #b2b2b2; stroke-opacity: 0.35; stroke-width: 0.5; stroke-linecap: square"/>
   </g>
   <g id="line2d_2">
    <path d="M 8.64 66.72 
L 279.36 66.72 
" clip-path="url(#p6fd713c6e6)" style="fill: none; stroke: #b2b2b2; stroke-opacity: 0.35; stroke-width: 0.5; stroke-linecap: square"/>
   </g>
   <g id="line2d_3">
    <path d="M 8.64 46.08 
L 279.36 46.08 
" clip-path="url(#p6fd713c6e6)" style="fill: none; stroke: #b2b2b2; stroke-opacity: 0.35; stroke-width: 0.5; stroke-linecap: square"/>
   </g>
   <g id="line2d_4">
    <path d="M 8.64 25.44 
L 279.36 25.44 
" clip-path="url(#p6fd713c6e6)" style="fill: none; stroke: #b2b2b2; stroke-opacity: 0.35; stroke-width: 0.5; stroke-linecap: square"/>
   </g>
   <g id="line2d_5">
    <path d="M 8.64 103.43856 
L 18.083884 103.81008 
L 27.485686 103.72752 
L 36.869313 103.50048 
L 46.147895 103.5108 
L 55.562678 103.31472 
L 65.220331 102.95352 
L 74.620618 102.61296 
L 83.669853 102.6336 
L 92.972019 102.9948 
L 102.539123 103.28376 
L 111.512306 103.01544 
L 121.053771 102.69552 
L 130.674317 102.582 
L 139.462509 102.88128 
L 148.84289 103.15992 
L 158.187355 103.36632 
L 167.582233 103.36632 
L 176.814621 102.81936 
L 186.33975 103.0464 
L 195.754317 102.9432 
L 204.920065 102.59232 
L 214.403761 102.40656 
L 223.587034 102.02472 
L 232.832295 101.68416 
L 242.139005 101.3436 
L 251.622809 101.6532 
L 261.06031 101.6532 
L 270.267059 101.63256 
L 279.36 101.95248 
" clip-path="url(#p6fd713c6e6)" style="fill: none; stroke: #bebebe; stroke-width: 0.5; stroke-linecap: round"/>
   </g>
   <g id="line2d_6">
    <path d="M 8.64 94.46016 
L 18.083884 95.47152 
L 27.485686 95.11032 
L 36.869313 94.82136 
L 46.147895 94.8936 
L 55.562678 94.70784 
L 65.220331 94.04736 
L 74.620618 93.40752 
L 83.669853 92.9844 
L 92.972019 93.93384 
L 102.539123 94.4292 
L 111.512306 94.19184 
L 121.053771 93.87192 
L 130.674317 93.81 
L 139.462509 94.03704 
L 148.84289 94.83168 
L 158.187355 95.48184 
L 167.582233 96.63768 
L 176.814621 96.14232 
L 186.33975 96.30744 
L 195.754317 96.29712 
L 204.920065 96.04944 
L 214.403761 95.9256 
L 223.587034 95.39928 
L 232.832295 94.31568 
L 242.139005 93.57264 
L 251.622809 93.32496 
L 261.06031 93.22176 
L 270.267059 93.35592 
L 279.36 93.61392 
" clip-path="url(#p6fd713c6e6)" style="fill: none; stroke: #4a8dff; stroke-width: 0.6"/>
   </g>
   <g id="line2d_7">
    <path d="M 8.64 102.10728 
L 18.083884 102.582 
L 27.485686 102.29304 
L 36.869313 102.08664 
L 46.147895 102.066 
L 55.562678 101.86992 
L 65.220331 101.48808 
L 74.620618 101.40552 
L 83.669853 101.4984 
L 92.972019 101.97312 
L 102.539123 102.26208 
L 111.512306 102.066 
L 121.053771 101.90088 
L 130.674317 101.90088 
L 139.462509 102.0144 
L 148.84289 102.25176 
L 158.187355 102.6336 
L 167.582233 102.88128 
L 176.814621 102.77808 
L 186.33975 102.85032 
L 195.754317 102.93288 
L 204.920065 102.95352 
L 214.403761 103.00512 
L 223.587034 102.69552 
L 232.832295 102.55104 
L 242.139005 102.2724 
L 251.622809 102.21048 
L 261.06031 102.12792 
L 270.267059 102.13824 
L 279.36 102.25176 
" clip-path="url(#p6fd713c6e6)" style="fill: none; stroke: #f5841e; stroke-width: 0.6"/>
   </g>
  </g>
 </g>
 <defs>
  <clipPath id="p6fd713c6e6">
   <rect x="8.64" y="4.8" width="270.72" height="103.2"/>
  </clipPath>
 </defs>
</svg>
