<?xml version="1.0" encoding="utf-8" standalone="no"?>
<!DOCTYPE svg PUBLIC "-//W3C//DTD SVG 1.1//EN"
  "http://www.w3.org/Graphics/SVG/1.1/DTD/svg11.dtd">
<svg xmlns:xlink="http://www.w3.org/1999/xlink" width="288pt" height="120pt" viewBox="0 0 288 120" xmlns="http://www.w3.org/2000/svg" version="1.1">
<desc id="nav-meta">{"window":"1m","count":4,"labels":["12.01","22.01","31.01","10.02"],"tick_utc":["2026-01-12T12:00:00Z","2026-01-22T12:00:00Z","2026-01-31T12:00:00Z","2026-02-10T03:42:23Z"],"w":720,"h":300}</desc>

 <metadata>
  <rdf:RDF xmlns:dc="http://purl.org/dc/elements/1.1/" xmlns:cc="http://creativecommons.org/ns#" xmlns:rdf="http://www.w3.org/1999/02/22-rdf-syntax-ns#">
   <cc:Work>
    <dc:type rdf:resource="http://purl.org/dc/dcmitype/StillImage"/>
    <dc:date>2026-02-10T14:07:09.680605</dc:date>
    <dc:format>image/svg+xml</dc:format>
    <dc:creator>
     <cc:Agent>
      <dc:title>Matplotlib v3.10.8, https://matplotlib.org/</dc:title>
     </cc:Agent>
    </dc:creator>
   </cc:Work>
  </rdf:RDF>
 </metadata>
 <defs>
  <style type="text/css">*{stroke-linejoin: round; stroke-linecap: butt}</style>
 </defs>
 <g id="figure_1">
  <g id="patch_1">
   <path d="M 0 120 
L 288 120 
L 288 0 
L 0 0 
L 0 120 
z
" style="fill: none; opacity: 0"/>
  </g>
  <g id="axes_1">
   <g id="patch_2">
    <path d="M 8.64 108 
L 279.36 108 
L 279.36 4.8 
L 8.64 4.8 
L 8.64 108 
z
" style="fill: none"/>
   </g>
   <g id="matplotlib.axis_1"/>
   <g id="matplotlib.axis_2"/>
   <g id="line2d_1">
    <path d="M 8.64 87.36 
L 279.36 87.36 
" clip-path="url(#pb453261519)" style="fill: none; stroke: #b2b2b2; stroke-opacity: 0.35; stroke-width: 0.5; stroke-linecap: square"/>
   </g>
   <g id="line2d_2">
    <path d="M 8.64 66.72 
L 279.36 66.72 
" clip-path="url(#pb453261519)" style="fill: none; stroke: #b2b2b2; stroke-opacity: 0.35; stroke-width: 0.5; stroke-linecap: square"/>
   </g>
   <g id="line2d_3">
    <path d="M 8.64 46.08 
L 279.36 46.08 
" clip-path="url(#pb453261519)" style="fill: none; stroke: #b2b2b2; stroke-opacity: 0.35; stroke-width: 0.5; stroke-linecap: square"/>
   </g>
   <g id="line2d_4">
    <path d="M 8.64 25.44 
L 279.36 25.44 
" clip-path="url(#pb453261519)" style="fill: none; stroke: #b2b2b2; stroke-opacity: 0.35; stroke-width: 0.5; stroke-linecap: square"/>
   </g>
   <g id="line2d_5">
    <path d="M 8.64 88.41264 
L 18.087753 88.4952 
L 27.535506 86.86464 
L 36.983259 86.42088 
L 46.431011 87.62832 
L 55.878764 86.93688 
L 65.326517 87.23616 
L 74.77427 88.63968 
L 84.222023 90.0432 
L 93.669776 92.12784 
L 103.117529 91.16808 
L 112.565281 91.46736 
L 122.013034 91.73568 
L 131.460787 91.78728 
L 140.90854 94.0164 
L 150.356293 92.5716 
L 159.804046 91.76664 
L 169.251799 92.33424 
L 178.699551 94.36728 
L 188.147304 94.46016 
L 197.595057 97.71096 
L 207.04281 98.48496 
L 216.490563 97.85544 
L 224.466588 99.10416 
L 231.974599 100.16712 
L 241.41754 102.23112 
L 250.824834 100.54896 
L 260.488551 100.70376 
L 269.858338 100.68312 
L 279.36 100.95144 
" clip-path="url(#pb453261519)" style="fill: none; stroke: #bebebe; stroke-width: 0.5; stroke-linecap: round"/>
   </g>
   <g id="line2d_6">
    <path d="M 8.64 73.29384 
L 18.087753 73.72728 
L 27.535506 70.32168 
L 36.983259 69.77472 
L 46.431011 70.34232 
L 55.878764 70.67256 
L 65.326517 70.51776 
L 74.77427 70.848 
L 84.222023 72.31344 
L 93.669776 76.01832 
L 103.117529 75.41976 
L 112.565281 75.83256 
L 122.013034 75.79128 
L 131.460787 75.82224 
L 140.90854 77.82432 
L 150.356293 76.14216 
L 159.804046 74.75928 
L 169.251799 74.96568 
L 178.699551 77.75208 
L 188.147304 79.48584 
L 197.595057 83.31456 
L 207.04281 85.90488 
L 216.490563 84.79032 
L 224.466588 85.84296 
L 231.974599 88.25784 
L 241.41754 91.41576 
L 250.824834 88.7532 
L 260.488551 88.65 
L 269.858338 88.55712 
L 279.36 88.96992 
" clip-path="url(#pb453261519)" style="fill: none; stroke: #4a8dff; stroke-width: 0.6"/>
   </g>
   <g id="line2d_7">
    <path d="M 8.64 82.6128 
L 18.087753 82.28256 
L 27.535506 78.01008 
L 36.983259 76.19376 
L 46.431011 77.66952 
L 55.878764 77.74176 
L 65.326517 78.1752 
L 74.77427 79.5684 
L 84.222023 80.8068 
L 93.669776 85.20312 
L 103.117529 84.12984 
L 112.565281 84.03696 
L 122.013034 84.06792 
L 131.460787 84.3156 
L 140.90854 87.02976 
L 150.356293 85.21344 
L 159.804046 84.28464 
L 169.251799 84.32592 
L 178.699551 89.08344 
L 188.147304 89.5272 
L 197.595057 95.14128 
L 207.04281 96.98856 
L 216.490563 95.08968 
L 224.466588 97.71096 
L 231.974599 99.80592 
L 241.41754 101.79768 
L 250.824834 100.03296 
L 260.488551 100.518 
L 269.858338 99.98136 
L 279.36 100.49736 
" clip-path="url(#pb453261519)" style="fill: none; stroke: #f5841e; stroke-width: 0.6"/>
   </g>
  </g>
 </g>
 <defs>
  <clipPath id="pb453261519">
   <rect x="8.64" y="4.8" width="270.72" height="103.2"/>
  </clipPath>
 </defs>
</svg>
