<?xml version="1.0" encoding="utf-8" standalone="no"?>
<!DOCTYPE svg PUBLIC "-//W3C//DTD SVG 1.1//EN"
  "http://www.w3.org/Graphics/SVG/1.1/DTD/svg11.dtd">
<svg xmlns:xlink="http://www.w3.org/1999/xlink" width="288pt" height="120pt" viewBox="0 0 288 120" xmlns="http://www.w3.org/2000/svg" version="1.1">
<desc id="nav-meta">{"window":"3m","count":4,"labels":["06.02","08.03","06.04","06.05"],"tick_utc":["2026-02-06T03:19:18Z","2026-03-08T03:19:34Z","2026-04-06T03:50:17Z","2026-05-06T04:24:54Z"],"w":720,"h":300}</desc>

 <metadata>
  <rdf:RDF xmlns:dc="http://purl.org/dc/elements/1.1/" xmlns:cc="http://creativecommons.org/ns#" xmlns:rdf="http://www.w3.org/1999/02/22-rdf-syntax-ns#">
   <cc:Work>
    <dc:type rdf:resource="http://purl.org/dc/dcmitype/StillImage"/>
    <dc:date>2026-05-06T20:12:16.779702</dc:date>
    <dc:format>image/svg+xml</dc:format>
    <dc:creator>
     <cc:Agent>
      <dc:title>Matplotlib v3.10.9, https://matplotlib.org/</dc:title>
     </cc:Agent>
    </dc:creator>
   </cc:Work>
  </rdf:RDF>
 </metadata>
 <defs>
  <style type="text/css">*{stroke-linejoin: round; stroke-linecap: butt}</style>
 </defs>
 <g id="figure_1">
  <g id="patch_1">
   <path d="M 0 120 
L 288 120 
L 288 0 
L 0 0 
L 0 120 
z
" style="fill: none; opacity: 0"/>
  </g>
  <g id="axes_1">
   <g id="patch_2">
    <path d="M 8.64 108 
L 279.36 108 
L 279.36 4.8 
L 8.64 4.8 
L 8.64 108 
z
" style="fill: none"/>
   </g>
   <g id="matplotlib.axis_1"/>
   <g id="matplotlib.axis_2"/>
   <g id="line2d_1">
    <path d="M 8.64 87.36 
L 279.36 87.36 
" clip-path="url(#p76b5c173ed)" style="fill: none; stroke: #b2b2b2; stroke-opacity: 0.35; stroke-width: 0.5; stroke-linecap: square"/>
   </g>
   <g id="line2d_2">
    <path d="M 8.64 66.72 
L 279.36 66.72 
" clip-path="url(#p76b5c173ed)" style="fill: none; stroke: #b2b2b2; stroke-opacity: 0.35; stroke-width: 0.5; stroke-linecap: square"/>
   </g>
   <g id="line2d_3">
    <path d="M 8.64 46.08 
L 279.36 46.08 
" clip-path="url(#p76b5c173ed)" style="fill: none; stroke: #b2b2b2; stroke-opacity: 0.35; stroke-width: 0.5; stroke-linecap: square"/>
   </g>
   <g id="line2d_4">
    <path d="M 8.64 25.44 
L 279.36 25.44 
" clip-path="url(#p76b5c173ed)" style="fill: none; stroke: #b2b2b2; stroke-opacity: 0.35; stroke-width: 0.5; stroke-linecap: square"/>
   </g>
   <g id="line2d_5">
    <path d="M 8.64 102.23112 
L 11.667222 100.54896 
L 14.77696 100.70376 
L 17.792112 100.68312 
L 20.849702 100.95144 
L 23.883645 101.28168 
L 26.912943 101.71512 
L 29.952269 101.84928 
L 32.955951 101.034 
L 35.83577 100.54896 
L 39.071024 101.04432 
L 41.72937 100.81728 
L 45.146686 101.034 
L 48.183233 101.4984 
L 51.205704 101.33328 
L 54.227367 101.1372 
L 57.302339 101.06496 
L 60.351729 102.09696 
L 63.135134 102.05568 
L 66.421269 101.4984 
L 69.447963 100.60056 
L 72.482434 100.80696 
L 75.486854 101.45712 
L 78.59617 100.55928 
L 81.605024 101.10624 
L 84.652338 100.8792 
L 87.675549 100.74504 
L 90.722335 100.21872 
L 93.761134 100.53864 
L 96.778046 101.07528 
L 99.84781 101.38488 
L 102.897165 101.26104 
L 105.917878 100.78632 
L 108.956923 100.91016 
L 112.009128 100.99272 
L 115.043494 100.38384 
L 118.079689 100.50768 
L 121.178096 100.60056 
L 124.226923 99.76464 
L 127.213961 99.49632 
L 130.277391 99.40344 
L 133.318477 100.09488 
L 136.329126 100.3632 
L 139.351562 100.19808 
L 142.437267 100.47672 
L 145.484651 100.79664 
L 148.496742 100.26 
L 151.763419 99.83688 
L 154.614208 100.13616 
L 157.658285 100.80696 
L 160.669462 101.38488 
L 163.751119 101.3436 
L 166.800052 101.292 
L 169.821117 101.28168 
L 172.887432 101.28168 
L 175.88763 101.8596 
L 178.931355 101.88024 
L 181.945558 101.72544 
L 185.031579 101.68416 
L 188.079667 101.47776 
L 191.100168 101.78736 
L 194.145336 101.09592 
L 197.174986 101.46744 
L 200.243202 101.3436 
L 203.236961 101.05464 
L 206.331744 101.3952 
L 209.387573 101.47776 
L 212.408462 100.86888 
L 215.446381 101.26104 
L 218.499783 100.99272 
L 221.533831 100.61088 
L 224.540539 100.44576 
L 227.62093 100.94112 
L 230.668701 101.09592 
L 233.695607 101.00304 
L 236.726418 100.69344 
L 239.778975 100.9308 
L 242.827275 100.92048 
L 245.831238 100.81728 
L 248.918772 100.8792 
L 251.991773 100.64184 
L 255.038384 101.1888 
L 258.070321 101.09592 
L 261.115665 101.37456 
L 264.189124 101.21976 
L 267.151776 101.20944 
L 270.253738 101.23008 
L 273.292923 100.92048 
L 276.266202 101.06496 
L 279.36 100.70376 
" clip-path="url(#p76b5c173ed)" style="fill: none; stroke: #bebebe; stroke-width: 0.5; stroke-linecap: round"/>
   </g>
   <g id="line2d_6">
    <path d="M 8.64 91.41576 
L 11.667222 88.7532 
L 14.77696 88.65 
L 17.792112 88.55712 
L 20.849702 88.96992 
L 23.883645 89.7336 
L 26.912943 90.456 
L 29.952269 90.56952 
L 32.955951 89.15568 
L 35.83577 88.9596 
L 39.071024 90.6624 
L 41.72937 89.94 
L 45.146686 90.00192 
L 48.183233 90.3528 
L 51.205704 90.62112 
L 54.227367 90.5076 
L 57.302339 90.3528 
L 60.351729 92.004 
L 63.135134 92.13816 
L 66.421269 91.25064 
L 69.447963 89.166 
L 72.482434 89.56848 
L 75.486854 90.93072 
L 78.59617 89.41368 
L 81.605024 90.37344 
L 84.652338 89.79552 
L 87.675549 90.23928 
L 90.722335 88.0824 
L 93.761134 88.7532 
L 96.778046 90.16704 
L 99.84781 90.67272 
L 102.897165 90.18768 
L 105.917878 89.2692 
L 108.956923 89.54784 
L 112.009128 89.49624 
L 115.043494 88.31976 
L 118.079689 88.45392 
L 121.178096 88.46424 
L 124.226923 86.38992 
L 127.213961 84.80064 
L 130.277391 84.8316 
L 133.318477 86.586 
L 136.329126 87.74184 
L 139.351562 87.618 
L 142.437267 88.19592 
L 145.484651 89.08344 
L 148.496742 87.89664 
L 151.763419 87.3084 
L 154.614208 87.65928 
L 157.658285 88.96992 
L 160.669462 90.07416 
L 163.751119 89.76456 
L 166.800052 89.3724 
L 169.821117 89.00088 
L 172.887432 88.42296 
L 175.88763 88.81512 
L 178.931355 89.10408 
L 181.945558 89.14536 
L 185.031579 89.07312 
L 188.079667 87.9792 
L 191.100168 88.29912 
L 194.145336 86.38992 
L 197.174986 87.24648 
L 200.243202 87.1536 
L 203.236961 86.21448 
L 206.331744 86.66856 
L 209.387573 87.01944 
L 212.408462 84.44976 
L 215.446381 85.05864 
L 218.499783 84.58392 
L 221.533831 85.04832 
L 224.540539 83.71704 
L 227.62093 84.86256 
L 230.668701 85.6572 
L 233.695607 85.27536 
L 236.726418 84.49104 
L 239.778975 84.86256 
L 242.827275 85.32696 
L 245.831238 85.17216 
L 248.918772 85.31664 
L 251.991773 84.11952 
L 255.038384 85.66752 
L 258.070321 85.26504 
L 261.115665 86.26608 
L 264.189124 85.77072 
L 267.151776 85.38888 
L 270.253738 85.3992 
L 273.292923 84.09888 
L 276.266202 84.22272 
L 279.36 84.34656 
" clip-path="url(#p76b5c173ed)" style="fill: none; stroke: #4a8dff; stroke-width: 0.6"/>
   </g>
   <g id="line2d_7">
    <path d="M 8.64 101.79768 
L 11.667222 100.03296 
L 14.77696 100.518 
L 17.792112 99.98136 
L 20.849702 100.49736 
L 23.883645 100.78632 
L 26.912943 101.07528 
L 29.952269 101.26104 
L 32.955951 100.63152 
L 35.83577 100.38384 
L 39.071024 100.84824 
L 41.72937 100.65216 
L 45.146686 101.034 
L 48.183233 101.19912 
L 51.205704 101.10624 
L 54.227367 100.97208 
L 57.302339 100.91016 
L 60.351729 101.7564 
L 63.135134 101.84928 
L 66.421269 101.56032 
L 69.447963 100.85856 
L 72.482434 101.12688 
L 75.486854 101.4468 
L 78.59617 101.02368 
L 81.605024 101.30232 
L 84.652338 100.81728 
L 87.675549 100.79664 
L 90.722335 99.3312 
L 93.761134 99.92976 
L 96.778046 100.78632 
L 99.84781 101.17848 
L 102.897165 101.1372 
L 105.917878 100.21872 
L 108.956923 100.37352 
L 112.009128 100.4664 
L 115.043494 99.88848 
L 118.079689 99.94008 
L 121.178096 99.81624 
L 124.226923 98.93904 
L 127.213961 98.3508 
L 130.277391 98.52624 
L 133.318477 99.78528 
L 136.329126 100.12584 
L 139.351562 100.03296 
L 142.437267 100.45608 
L 145.484651 100.83792 
L 148.496742 100.11552 
L 151.763419 99.87816 
L 154.614208 100.002 
L 157.658285 100.64184 
L 160.669462 101.41584 
L 163.751119 101.21976 
L 166.800052 101.14752 
L 169.821117 101.00304 
L 172.887432 100.86888 
L 175.88763 101.21976 
L 178.931355 101.28168 
L 181.945558 101.20944 
L 185.031579 101.14752 
L 188.079667 100.55928 
L 191.100168 100.65216 
L 194.145336 99.80592 
L 197.174986 99.96072 
L 200.243202 99.6408 
L 203.236961 99.1764 
L 206.331744 99.70272 
L 209.387573 99.94008 
L 212.408462 98.57784 
L 215.446381 98.65008 
L 218.499783 98.38176 
L 221.533831 98.48496 
L 224.540539 96.70992 
L 227.62093 98.05152 
L 230.668701 98.48496 
L 233.695607 97.96896 
L 236.726418 96.32808 
L 239.778975 96.20424 
L 242.827275 96.16296 
L 245.831238 96.1836 
L 248.918772 96.50352 
L 251.991773 94.76976 
L 255.038384 97.19496 
L 258.070321 96.9576 
L 261.115665 97.9896 
L 264.189124 96.89568 
L 267.151776 95.45088 
L 270.253738 95.67792 
L 273.292923 93.43848 
L 276.266202 92.90184 
L 279.36 92.25168 
" clip-path="url(#p76b5c173ed)" style="fill: none; stroke: #f5841e; stroke-width: 0.6"/>
   </g>
  </g>
 </g>
 <defs>
  <clipPath id="p76b5c173ed">
   <rect x="8.64" y="4.8" width="270.72" height="103.2"/>
  </clipPath>
 </defs>
</svg>
