<?xml version="1.0" encoding="utf-8" standalone="no"?>
<!DOCTYPE svg PUBLIC "-//W3C//DTD SVG 1.1//EN"
  "http://www.w3.org/Graphics/SVG/1.1/DTD/svg11.dtd">
<svg xmlns:xlink="http://www.w3.org/1999/xlink" width="288pt" height="120pt" viewBox="0 0 288 120" xmlns="http://www.w3.org/2000/svg" version="1.1">
<desc id="nav-meta">{"window":"1m","count":4,"labels":["18.01","28.01","07.02","17.02"],"tick_utc":["2026-01-18T12:00:00Z","2026-01-28T12:00:00Z","2026-02-07T03:13:08Z","2026-02-17T00:31:58Z"],"w":720,"h":300}</desc>

 <metadata>
  <rdf:RDF xmlns:dc="http://purl.org/dc/elements/1.1/" xmlns:cc="http://creativecommons.org/ns#" xmlns:rdf="http://www.w3.org/1999/02/22-rdf-syntax-ns#">
   <cc:Work>
    <dc:type rdf:resource="http://purl.org/dc/dcmitype/StillImage"/>
    <dc:date>2026-02-17T03:24:51.447050</dc:date>
    <dc:format>image/svg+xml</dc:format>
    <dc:creator>
     <cc:Agent>
      <dc:title>Matplotlib v3.10.8, https://matplotlib.org/</dc:title>
     </cc:Agent>
    </dc:creator>
   </cc:Work>
  </rdf:RDF>
 </metadata>
 <defs>
  <style type="text/css">*{stroke-linejoin: round; stroke-linecap: butt}</style>
 </defs>
 <g id="figure_1">
  <g id="patch_1">
   <path d="M 0 120 
L 288 120 
L 288 0 
L 0 0 
L 0 120 
z
" style="fill: none; opacity: 0"/>
  </g>
  <g id="axes_1">
   <g id="patch_2">
    <path d="M 8.64 108 
L 279.36 108 
L 279.36 4.8 
L 8.64 4.8 
L 8.64 108 
z
" style="fill: none"/>
   </g>
   <g id="matplotlib.axis_1"/>
   <g id="matplotlib.axis_2"/>
   <g id="line2d_1">
    <path d="M 8.64 87.36 
L 279.36 87.36 
" clip-path="url(#pdd4bc41b07)" style="fill: none; stroke: #b2b2b2; stroke-opacity: 0.35; stroke-width: 0.5; stroke-linecap: square"/>
   </g>
   <g id="line2d_2">
    <path d="M 8.64 66.72 
L 279.36 66.72 
" clip-path="url(#pdd4bc41b07)" style="fill: none; stroke: #b2b2b2; stroke-opacity: 0.35; stroke-width: 0.5; stroke-linecap: square"/>
   </g>
   <g id="line2d_3">
    <path d="M 8.64 46.08 
L 279.36 46.08 
" clip-path="url(#pdd4bc41b07)" style="fill: none; stroke: #b2b2b2; stroke-opacity: 0.35; stroke-width: 0.5; stroke-linecap: square"/>
   </g>
   <g id="line2d_4">
    <path d="M 8.64 25.44 
L 279.36 25.44 
" clip-path="url(#pdd4bc41b07)" style="fill: none; stroke: #b2b2b2; stroke-opacity: 0.35; stroke-width: 0.5; stroke-linecap: square"/>
   </g>
   <g id="line2d_5">
    <path d="M 8.64 87.23616 
L 17.810049 88.63968 
L 26.980097 90.0432 
L 36.150146 92.12784 
L 45.320194 91.16808 
L 54.490243 91.46736 
L 63.660292 91.73568 
L 72.83034 91.78728 
L 82.000389 94.0164 
L 91.170437 92.5716 
L 100.340486 91.76664 
L 109.510534 92.33424 
L 118.680583 94.36728 
L 127.850632 94.46016 
L 137.02068 97.71096 
L 146.190729 98.48496 
L 155.360777 97.85544 
L 163.102357 99.10416 
L 170.38968 100.16712 
L 179.555059 102.23112 
L 188.685838 100.54896 
L 198.065503 100.70376 
L 207.159877 100.68312 
L 216.38225 100.95144 
L 225.533301 101.28168 
L 234.670341 101.71512 
L 243.83763 101.84928 
L 252.897405 101.034 
L 261.583585 100.54896 
L 271.341833 101.04432 
L 279.36 100.81728 
" clip-path="url(#pdd4bc41b07)" style="fill: none; stroke: #bebebe; stroke-width: 0.5; stroke-linecap: round"/>
   </g>
   <g id="line2d_6">
    <path d="M 8.64 70.51776 
L 17.810049 70.848 
L 26.980097 72.31344 
L 36.150146 76.01832 
L 45.320194 75.41976 
L 54.490243 75.83256 
L 63.660292 75.79128 
L 72.83034 75.82224 
L 82.000389 77.82432 
L 91.170437 76.14216 
L 100.340486 74.75928 
L 109.510534 74.96568 
L 118.680583 77.75208 
L 127.850632 79.48584 
L 137.02068 83.31456 
L 146.190729 85.90488 
L 155.360777 84.79032 
L 163.102357 85.84296 
L 170.38968 88.25784 
L 179.555059 91.41576 
L 188.685838 88.7532 
L 198.065503 88.65 
L 207.159877 88.55712 
L 216.38225 88.96992 
L 225.533301 89.7336 
L 234.670341 90.456 
L 243.83763 90.56952 
L 252.897405 89.15568 
L 261.583585 88.9596 
L 271.341833 90.6624 
L 279.36 89.94 
" clip-path="url(#pdd4bc41b07)" style="fill: none; stroke: #4a8dff; stroke-width: 0.6"/>
   </g>
   <g id="line2d_7">
    <path d="M 8.64 78.1752 
L 17.810049 79.5684 
L 26.980097 80.8068 
L 36.150146 85.20312 
L 45.320194 84.12984 
L 54.490243 84.03696 
L 63.660292 84.06792 
L 72.83034 84.3156 
L 82.000389 87.02976 
L 91.170437 85.21344 
L 100.340486 84.28464 
L 109.510534 84.32592 
L 118.680583 89.08344 
L 127.850632 89.5272 
L 137.02068 95.14128 
L 146.190729 96.98856 
L 155.360777 95.08968 
L 163.102357 97.71096 
L 170.38968 99.80592 
L 179.555059 101.79768 
L 188.685838 100.03296 
L 198.065503 100.518 
L 207.159877 99.98136 
L 216.38225 100.49736 
L 225.533301 100.78632 
L 234.670341 101.07528 
L 243.83763 101.26104 
L 252.897405 100.63152 
L 261.583585 100.38384 
L 271.341833 100.84824 
L 279.36 100.65216 
" clip-path="url(#pdd4bc41b07)" style="fill: none; stroke: #f5841e; stroke-width: 0.6"/>
   </g>
  </g>
 </g>
 <defs>
  <clipPath id="pdd4bc41b07">
   <rect x="8.64" y="4.8" width="270.72" height="103.2"/>
  </clipPath>
 </defs>
</svg>
