<?xml version="1.0" encoding="utf-8" standalone="no"?>
<!DOCTYPE svg PUBLIC "-//W3C//DTD SVG 1.1//EN"
  "http://www.w3.org/Graphics/SVG/1.1/DTD/svg11.dtd">
<svg xmlns:xlink="http://www.w3.org/1999/xlink" width="288pt" height="120pt" viewBox="0 0 288 120" xmlns="http://www.w3.org/2000/svg" version="1.1">
<desc id="nav-meta">{"window":"3m","count":4,"labels":["30.03","29.04","28.05","27.06"],"tick_utc":["2026-03-30T03:51:16Z","2026-04-29T04:21:07Z","2026-05-28T04:58:45Z","2026-06-27T04:39:58Z"],"w":720,"h":300}</desc>

 <metadata>
  <rdf:RDF xmlns:dc="http://purl.org/dc/elements/1.1/" xmlns:cc="http://creativecommons.org/ns#" xmlns:rdf="http://www.w3.org/1999/02/22-rdf-syntax-ns#">
   <cc:Work>
    <dc:type rdf:resource="http://purl.org/dc/dcmitype/StillImage"/>
    <dc:date>2026-06-27T14:16:40.498833</dc:date>
    <dc:format>image/svg+xml</dc:format>
    <dc:creator>
     <cc:Agent>
      <dc:title>Matplotlib v3.11.0, https://matplotlib.org/</dc:title>
     </cc:Agent>
    </dc:creator>
   </cc:Work>
  </rdf:RDF>
 </metadata>
 <defs>
  <style type="text/css">*{stroke-linejoin: round; stroke-linecap: butt}</style>
 </defs>
 <g id="figure_1">
  <g id="patch_1">
   <path d="M 0 120 
L 288 120 
L 288 0 
L 0 0 
L 0 120 
z
" style="fill: none; opacity: 0"/>
  </g>
  <g id="axes_1">
   <g id="patch_2">
    <path d="M 8.64 108 
L 279.36 108 
L 279.36 4.8 
L 8.64 4.8 
L 8.64 108 
z
" style="fill: none"/>
   </g>
   <g id="matplotlib.axis_1"/>
   <g id="matplotlib.axis_2"/>
   <g id="line2d_1">
    <path d="M 8.64 87.36 
L 279.36 87.36 
" clip-path="url(#p72489db4d3)" style="fill: none; stroke: #b2b2b2; stroke-opacity: 0.35; stroke-width: 0.5; stroke-linecap: square"/>
   </g>
   <g id="line2d_2">
    <path d="M 8.64 66.72 
L 279.36 66.72 
" clip-path="url(#p72489db4d3)" style="fill: none; stroke: #b2b2b2; stroke-opacity: 0.35; stroke-width: 0.5; stroke-linecap: square"/>
   </g>
   <g id="line2d_3">
    <path d="M 8.64 46.08 
L 279.36 46.08 
" clip-path="url(#p72489db4d3)" style="fill: none; stroke: #b2b2b2; stroke-opacity: 0.35; stroke-width: 0.5; stroke-linecap: square"/>
   </g>
   <g id="line2d_4">
    <path d="M 8.64 25.44 
L 279.36 25.44 
" clip-path="url(#p72489db4d3)" style="fill: none; stroke: #b2b2b2; stroke-opacity: 0.35; stroke-width: 0.5; stroke-linecap: square"/>
   </g>
   <g id="line2d_5">
    <path d="M 8.64 101.292 
L 11.661462 101.28168 
L 14.728182 101.28168 
L 17.728776 101.8596 
L 20.772902 101.88024 
L 23.787502 101.72544 
L 26.87393 101.68416 
L 29.92242 101.47776 
L 32.943319 101.78736 
L 35.988888 101.09592 
L 39.018938 101.46744 
L 42.087558 101.3436 
L 45.081711 101.05464 
L 48.176902 101.3952 
L 51.233135 101.47776 
L 54.254421 100.86888 
L 57.292741 101.26104 
L 60.346545 100.99272 
L 63.380994 100.61088 
L 66.388097 100.44576 
L 69.468894 100.94112 
L 72.517068 101.09592 
L 75.544372 101.00304 
L 78.575583 100.69344 
L 81.628543 100.9308 
L 84.677244 100.92048 
L 87.681603 100.81728 
L 90.769544 100.8792 
L 93.842951 100.64184 
L 96.889963 101.1888 
L 99.9223 101.09592 
L 102.968045 101.37456 
L 106.041909 101.21976 
L 109.004952 101.20944 
L 112.107322 101.23008 
L 115.146909 100.92048 
L 118.120579 101.06496 
L 121.214785 100.70376 
L 124.256237 100.55928 
L 127.246272 100.53864 
L 130.298035 99.60984 
L 133.399948 99.72336 
L 136.464591 99.44472 
L 139.463003 99.25896 
L 142.518109 99.32088 
L 145.555373 100.22904 
L 148.611007 100.01232 
L 151.612832 100.43544 
L 154.698873 100.75536 
L 157.769042 101.02368 
L 160.7879 101.02368 
L 163.839417 101.17848 
L 166.897374 100.7244 
L 169.914719 100.75536 
L 172.913588 101.11656 
L 176.002373 100.91016 
L 179.08303 100.89984 
L 182.077605 101.1372 
L 185.149463 101.2404 
L 188.180392 101.6532 
L 191.223287 101.4984 
L 194.220079 101.48808 
L 197.322801 101.32296 
L 200.40842 101.51904 
L 203.419148 101.7048 
L 206.493998 102.54072 
L 209.524223 103.08768 
L 212.514787 103.36632 
L 215.508693 104.22288 
L 218.614688 103.85136 
L 221.668774 103.68624 
L 224.651384 103.43856 
L 227.723559 103.81008 
L 230.782044 103.72752 
L 233.834616 103.50048 
L 236.853017 103.5108 
L 239.915725 103.31472 
L 243.05744 102.95352 
L 246.115433 102.61296 
L 249.059225 102.6336 
L 252.085298 102.9948 
L 255.197557 103.28376 
L 258.116609 103.01544 
L 261.220527 102.69552 
L 264.350172 102.582 
L 267.209044 102.88128 
L 270.260561 103.15992 
L 273.300394 103.36632 
L 276.356627 103.36632 
L 279.36 102.81936 
" clip-path="url(#p72489db4d3)" style="fill: none; stroke: #bebebe; stroke-width: 0.5; stroke-linecap: round"/>
   </g>
   <g id="line2d_6">
    <path d="M 8.64 89.3724 
L 11.661462 89.00088 
L 14.728182 88.42296 
L 17.728776 88.81512 
L 20.772902 89.10408 
L 23.787502 89.14536 
L 26.87393 89.07312 
L 29.92242 87.9792 
L 32.943319 88.29912 
L 35.988888 86.38992 
L 39.018938 87.24648 
L 42.087558 87.1536 
L 45.081711 86.21448 
L 48.176902 86.66856 
L 51.233135 87.01944 
L 54.254421 84.44976 
L 57.292741 85.05864 
L 60.346545 84.58392 
L 63.380994 85.04832 
L 66.388097 83.71704 
L 69.468894 84.86256 
L 72.517068 85.6572 
L 75.544372 85.27536 
L 78.575583 84.49104 
L 81.628543 84.86256 
L 84.677244 85.32696 
L 87.681603 85.17216 
L 90.769544 85.31664 
L 93.842951 84.11952 
L 96.889963 85.66752 
L 99.9223 85.26504 
L 102.968045 86.26608 
L 106.041909 85.77072 
L 109.004952 85.38888 
L 112.107322 85.3992 
L 115.146909 84.09888 
L 118.120579 84.22272 
L 121.214785 84.34656 
L 124.256237 85.06896 
L 127.246272 85.7604 
L 130.298035 85.0896 
L 133.399948 85.01736 
L 136.464591 84.9348 
L 139.463003 85.296 
L 142.518109 85.35792 
L 145.555373 86.1732 
L 148.611007 85.92552 
L 151.612832 86.55504 
L 154.698873 87.13296 
L 157.769042 88.10304 
L 160.7879 87.9276 
L 163.839417 88.26816 
L 166.897374 87.78312 
L 169.914719 87.95856 
L 172.913588 88.94928 
L 176.002373 88.14432 
L 179.08303 88.33008 
L 182.077605 88.52616 
L 185.149463 88.86672 
L 188.180392 90.22896 
L 191.223287 89.82648 
L 194.220079 89.87808 
L 197.322801 89.46528 
L 200.40842 90.0432 
L 203.419148 89.96064 
L 206.493998 91.99368 
L 209.524223 93.05664 
L 212.514787 93.74808 
L 215.508693 97.02984 
L 218.614688 95.93592 
L 221.668774 95.07936 
L 224.651384 94.46016 
L 227.723559 95.47152 
L 230.782044 95.11032 
L 233.834616 94.82136 
L 236.853017 94.8936 
L 239.915725 94.70784 
L 243.05744 94.04736 
L 246.115433 93.40752 
L 249.059225 92.9844 
L 252.085298 93.93384 
L 255.197557 94.4292 
L 258.116609 94.19184 
L 261.220527 93.87192 
L 264.350172 93.81 
L 267.209044 94.03704 
L 270.260561 94.83168 
L 273.300394 95.48184 
L 276.356627 96.63768 
L 279.36 96.14232 
" clip-path="url(#p72489db4d3)" style="fill: none; stroke: #4a8dff; stroke-width: 0.6"/>
   </g>
   <g id="line2d_7">
    <path d="M 8.64 101.14752 
L 11.661462 101.00304 
L 14.728182 100.86888 
L 17.728776 101.21976 
L 20.772902 101.28168 
L 23.787502 101.20944 
L 26.87393 101.14752 
L 29.92242 100.55928 
L 32.943319 100.65216 
L 35.988888 99.80592 
L 39.018938 99.96072 
L 42.087558 99.6408 
L 45.081711 99.1764 
L 48.176902 99.70272 
L 51.233135 99.94008 
L 54.254421 98.57784 
L 57.292741 98.65008 
L 60.346545 98.38176 
L 63.380994 98.48496 
L 66.388097 96.70992 
L 69.468894 98.05152 
L 72.517068 98.48496 
L 75.544372 97.96896 
L 78.575583 96.32808 
L 81.628543 96.20424 
L 84.677244 96.16296 
L 87.681603 96.1836 
L 90.769544 96.50352 
L 93.842951 94.76976 
L 96.889963 97.19496 
L 99.9223 96.9576 
L 102.968045 97.9896 
L 106.041909 96.89568 
L 109.004952 95.45088 
L 112.107322 95.67792 
L 115.146909 93.43848 
L 118.120579 92.90184 
L 121.214785 92.25168 
L 124.256237 92.87088 
L 127.246272 94.2744 
L 130.298035 93.1392 
L 133.399948 92.97408 
L 136.464591 92.9844 
L 139.463003 92.60256 
L 142.518109 92.53032 
L 145.555373 94.54272 
L 148.611007 92.85024 
L 151.612832 94.82136 
L 154.698873 95.75016 
L 157.769042 96.97824 
L 160.7879 97.08144 
L 163.839417 97.23624 
L 166.897374 95.94624 
L 169.914719 96.30744 
L 172.913588 98.08248 
L 176.002373 97.2672 
L 179.08303 96.61704 
L 182.077605 97.23624 
L 185.149463 98.08248 
L 188.180392 99.18672 
L 191.223287 99.03192 
L 194.220079 99.1248 
L 197.322801 98.74296 
L 200.40842 99.09384 
L 203.419148 100.0536 
L 206.493998 101.23008 
L 209.524223 101.99376 
L 212.514787 102.08664 
L 215.508693 102.8916 
L 218.614688 102.45816 
L 221.668774 102.28272 
L 224.651384 102.10728 
L 227.723559 102.582 
L 230.782044 102.29304 
L 233.834616 102.08664 
L 236.853017 102.066 
L 239.915725 101.86992 
L 243.05744 101.48808 
L 246.115433 101.40552 
L 249.059225 101.4984 
L 252.085298 101.97312 
L 255.197557 102.26208 
L 258.116609 102.066 
L 261.220527 101.90088 
L 264.350172 101.90088 
L 267.209044 102.0144 
L 270.260561 102.25176 
L 273.300394 102.6336 
L 276.356627 102.88128 
L 279.36 102.77808 
" clip-path="url(#p72489db4d3)" style="fill: none; stroke: #f5841e; stroke-width: 0.6"/>
   </g>
  </g>
 </g>
 <defs>
  <clipPath id="p72489db4d3">
   <rect x="8.64" y="4.8" width="270.72" height="103.2"/>
  </clipPath>
 </defs>
</svg>
