<?xml version="1.0" encoding="utf-8" standalone="no"?>
<!DOCTYPE svg PUBLIC "-//W3C//DTD SVG 1.1//EN"
  "http://www.w3.org/Graphics/SVG/1.1/DTD/svg11.dtd">
<svg xmlns:xlink="http://www.w3.org/1999/xlink" width="288pt" height="120pt" viewBox="0 0 288 120" xmlns="http://www.w3.org/2000/svg" version="1.1">
<desc id="nav-meta">{"window":"3m","count":4,"labels":["10.01","09.02","11.03","10.04"],"tick_utc":["2026-01-10T12:00:00Z","2026-02-09T03:34:10Z","2026-03-11T03:14:04Z","2026-04-10T03:51:30Z"],"w":720,"h":300}</desc>

 <metadata>
  <rdf:RDF xmlns:dc="http://purl.org/dc/elements/1.1/" xmlns:cc="http://creativecommons.org/ns#" xmlns:rdf="http://www.w3.org/1999/02/22-rdf-syntax-ns#">
   <cc:Work>
    <dc:type rdf:resource="http://purl.org/dc/dcmitype/StillImage"/>
    <dc:date>2026-04-10T08:11:02.533726</dc:date>
    <dc:format>image/svg+xml</dc:format>
    <dc:creator>
     <cc:Agent>
      <dc:title>Matplotlib v3.10.8, https://matplotlib.org/</dc:title>
     </cc:Agent>
    </dc:creator>
   </cc:Work>
  </rdf:RDF>
 </metadata>
 <defs>
  <style type="text/css">*{stroke-linejoin: round; stroke-linecap: butt}</style>
 </defs>
 <g id="figure_1">
  <g id="patch_1">
   <path d="M 0 120 
L 288 120 
L 288 0 
L 0 0 
L 0 120 
z
" style="fill: none; opacity: 0"/>
  </g>
  <g id="axes_1">
   <g id="patch_2">
    <path d="M 8.64 108 
L 279.36 108 
L 279.36 4.8 
L 8.64 4.8 
L 8.64 108 
z
" style="fill: none"/>
   </g>
   <g id="matplotlib.axis_1"/>
   <g id="matplotlib.axis_2"/>
   <g id="line2d_1">
    <path d="M 8.64 87.36 
L 279.36 87.36 
" clip-path="url(#pe3d56cd73a)" style="fill: none; stroke: #b2b2b2; stroke-opacity: 0.35; stroke-width: 0.5; stroke-linecap: square"/>
   </g>
   <g id="line2d_2">
    <path d="M 8.64 66.72 
L 279.36 66.72 
" clip-path="url(#pe3d56cd73a)" style="fill: none; stroke: #b2b2b2; stroke-opacity: 0.35; stroke-width: 0.5; stroke-linecap: square"/>
   </g>
   <g id="line2d_3">
    <path d="M 8.64 46.08 
L 279.36 46.08 
" clip-path="url(#pe3d56cd73a)" style="fill: none; stroke: #b2b2b2; stroke-opacity: 0.35; stroke-width: 0.5; stroke-linecap: square"/>
   </g>
   <g id="line2d_4">
    <path d="M 8.64 25.44 
L 279.36 25.44 
" clip-path="url(#pe3d56cd73a)" style="fill: none; stroke: #b2b2b2; stroke-opacity: 0.35; stroke-width: 0.5; stroke-linecap: square"/>
   </g>
   <g id="line2d_5">
    <path d="M 8.64 89.39304 
L 11.659381 89.40336 
L 14.678762 88.41264 
L 17.698143 88.4952 
L 20.717524 86.86464 
L 23.736905 86.42088 
L 26.756286 87.62832 
L 29.775666 86.93688 
L 32.795047 87.23616 
L 35.814428 88.63968 
L 38.833809 90.0432 
L 41.85319 92.12784 
L 44.872571 91.16808 
L 47.891952 91.46736 
L 50.911333 91.73568 
L 53.930714 91.78728 
L 56.950095 94.0164 
L 59.969476 92.5716 
L 62.988857 91.76664 
L 66.008238 92.33424 
L 69.027618 94.36728 
L 72.046999 94.46016 
L 75.06638 97.71096 
L 78.085761 98.48496 
L 81.105142 97.85544 
L 83.654178 99.10416 
L 86.053642 100.16712 
L 89.071485 102.23112 
L 92.077936 100.54896 
L 95.166336 100.70376 
L 98.1608 100.68312 
L 101.19741 100.95144 
L 104.210535 101.28168 
L 107.219048 101.71512 
L 110.23752 101.84928 
L 113.220592 101.034 
L 116.080651 100.54896 
L 119.293706 101.04432 
L 121.933812 100.81728 
L 125.32768 101.034 
L 128.343392 101.4984 
L 131.345125 101.33328 
L 134.346054 101.1372 
L 137.399927 101.06496 
L 140.428394 102.09696 
L 143.1927 102.05568 
L 146.456287 101.4984 
L 149.462214 100.60056 
L 152.475864 100.80696 
L 155.459669 101.45712 
L 158.54765 100.55928 
L 161.535858 101.10624 
L 164.562264 100.8792 
L 167.56473 100.74504 
L 170.590611 100.21872 
L 173.60856 100.53864 
L 176.604771 101.07528 
L 179.653472 101.38488 
L 182.681904 101.26104 
L 185.68189 100.78632 
L 188.700082 100.91016 
L 191.731345 100.99272 
L 194.74489 100.38384 
L 197.760252 100.50768 
L 200.8374 100.60056 
L 203.865307 99.76464 
L 206.831849 99.49632 
L 209.87426 99.40344 
L 212.89448 100.09488 
L 215.88447 100.3632 
L 218.886168 100.19808 
L 221.9507 100.47672 
L 224.977175 100.79664 
L 227.968599 100.26 
L 231.212861 99.83688 
L 234.04409 100.13616 
L 237.06728 100.80696 
L 240.057795 101.38488 
L 243.118308 101.3436 
L 246.146321 101.292 
L 249.146656 101.28168 
L 252.191932 101.28168 
L 255.171544 101.8596 
L 258.194384 101.88024 
L 261.187905 101.72544 
L 264.252751 101.68416 
L 267.279925 101.47776 
L 270.279701 101.78736 
L 273.303975 101.09592 
L 276.312837 101.46744 
L 279.36 101.3436 
" clip-path="url(#pe3d56cd73a)" style="fill: none; stroke: #bebebe; stroke-width: 0.5; stroke-linecap: round"/>
   </g>
   <g id="line2d_6">
    <path d="M 8.64 73.83048 
L 11.659381 73.8408 
L 14.678762 73.29384 
L 17.698143 73.72728 
L 20.717524 70.32168 
L 23.736905 69.77472 
L 26.756286 70.34232 
L 29.775666 70.67256 
L 32.795047 70.51776 
L 35.814428 70.848 
L 38.833809 72.31344 
L 41.85319 76.01832 
L 44.872571 75.41976 
L 47.891952 75.83256 
L 50.911333 75.79128 
L 53.930714 75.82224 
L 56.950095 77.82432 
L 59.969476 76.14216 
L 62.988857 74.75928 
L 66.008238 74.96568 
L 69.027618 77.75208 
L 72.046999 79.48584 
L 75.06638 83.31456 
L 78.085761 85.90488 
L 81.105142 84.79032 
L 83.654178 85.84296 
L 86.053642 88.25784 
L 89.071485 91.41576 
L 92.077936 88.7532 
L 95.166336 88.65 
L 98.1608 88.55712 
L 101.19741 88.96992 
L 104.210535 89.7336 
L 107.219048 90.456 
L 110.23752 90.56952 
L 113.220592 89.15568 
L 116.080651 88.9596 
L 119.293706 90.6624 
L 121.933812 89.94 
L 125.32768 90.00192 
L 128.343392 90.3528 
L 131.345125 90.62112 
L 134.346054 90.5076 
L 137.399927 90.3528 
L 140.428394 92.004 
L 143.1927 92.13816 
L 146.456287 91.25064 
L 149.462214 89.166 
L 152.475864 89.56848 
L 155.459669 90.93072 
L 158.54765 89.41368 
L 161.535858 90.37344 
L 164.562264 89.79552 
L 167.56473 90.23928 
L 170.590611 88.0824 
L 173.60856 88.7532 
L 176.604771 90.16704 
L 179.653472 90.67272 
L 182.681904 90.18768 
L 185.68189 89.2692 
L 188.700082 89.54784 
L 191.731345 89.49624 
L 194.74489 88.31976 
L 197.760252 88.45392 
L 200.8374 88.46424 
L 203.865307 86.38992 
L 206.831849 84.80064 
L 209.87426 84.8316 
L 212.89448 86.586 
L 215.88447 87.74184 
L 218.886168 87.618 
L 221.9507 88.19592 
L 224.977175 89.08344 
L 227.968599 87.89664 
L 231.212861 87.3084 
L 234.04409 87.65928 
L 237.06728 88.96992 
L 240.057795 90.07416 
L 243.118308 89.76456 
L 246.146321 89.3724 
L 249.146656 89.00088 
L 252.191932 88.42296 
L 255.171544 88.81512 
L 258.194384 89.10408 
L 261.187905 89.14536 
L 264.252751 89.07312 
L 267.279925 87.9792 
L 270.279701 88.29912 
L 273.303975 86.38992 
L 276.312837 87.24648 
L 279.36 87.1536 
" clip-path="url(#pe3d56cd73a)" style="fill: none; stroke: #4a8dff; stroke-width: 0.6"/>
   </g>
   <g id="line2d_7">
    <path d="M 8.64 82.93272 
L 11.659381 83.00496 
L 14.678762 82.6128 
L 17.698143 82.28256 
L 20.717524 78.01008 
L 23.736905 76.19376 
L 26.756286 77.66952 
L 29.775666 77.74176 
L 32.795047 78.1752 
L 35.814428 79.5684 
L 38.833809 80.8068 
L 41.85319 85.20312 
L 44.872571 84.12984 
L 47.891952 84.03696 
L 50.911333 84.06792 
L 53.930714 84.3156 
L 56.950095 87.02976 
L 59.969476 85.21344 
L 62.988857 84.28464 
L 66.008238 84.32592 
L 69.027618 89.08344 
L 72.046999 89.5272 
L 75.06638 95.14128 
L 78.085761 96.98856 
L 81.105142 95.08968 
L 83.654178 97.71096 
L 86.053642 99.80592 
L 89.071485 101.79768 
L 92.077936 100.03296 
L 95.166336 100.518 
L 98.1608 99.98136 
L 101.19741 100.49736 
L 104.210535 100.78632 
L 107.219048 101.07528 
L 110.23752 101.26104 
L 113.220592 100.63152 
L 116.080651 100.38384 
L 119.293706 100.84824 
L 121.933812 100.65216 
L 125.32768 101.034 
L 128.343392 101.19912 
L 131.345125 101.10624 
L 134.346054 100.97208 
L 137.399927 100.91016 
L 140.428394 101.7564 
L 143.1927 101.84928 
L 146.456287 101.56032 
L 149.462214 100.85856 
L 152.475864 101.12688 
L 155.459669 101.4468 
L 158.54765 101.02368 
L 161.535858 101.30232 
L 164.562264 100.81728 
L 167.56473 100.79664 
L 170.590611 99.3312 
L 173.60856 99.92976 
L 176.604771 100.78632 
L 179.653472 101.17848 
L 182.681904 101.1372 
L 185.68189 100.21872 
L 188.700082 100.37352 
L 191.731345 100.4664 
L 194.74489 99.88848 
L 197.760252 99.94008 
L 200.8374 99.81624 
L 203.865307 98.93904 
L 206.831849 98.3508 
L 209.87426 98.52624 
L 212.89448 99.78528 
L 215.88447 100.12584 
L 218.886168 100.03296 
L 221.9507 100.45608 
L 224.977175 100.83792 
L 227.968599 100.11552 
L 231.212861 99.87816 
L 234.04409 100.002 
L 237.06728 100.64184 
L 240.057795 101.41584 
L 243.118308 101.21976 
L 246.146321 101.14752 
L 249.146656 101.00304 
L 252.191932 100.86888 
L 255.171544 101.21976 
L 258.194384 101.28168 
L 261.187905 101.20944 
L 264.252751 101.14752 
L 267.279925 100.55928 
L 270.279701 100.65216 
L 273.303975 99.80592 
L 276.312837 99.96072 
L 279.36 99.6408 
" clip-path="url(#pe3d56cd73a)" style="fill: none; stroke: #f5841e; stroke-width: 0.6"/>
   </g>
  </g>
 </g>
 <defs>
  <clipPath id="pe3d56cd73a">
   <rect x="8.64" y="4.8" width="270.72" height="103.2"/>
  </clipPath>
 </defs>
</svg>
