<?xml version="1.0" encoding="utf-8" standalone="no"?>
<!DOCTYPE svg PUBLIC "-//W3C//DTD SVG 1.1//EN"
  "http://www.w3.org/Graphics/SVG/1.1/DTD/svg11.dtd">
<svg xmlns:xlink="http://www.w3.org/1999/xlink" width="288pt" height="120pt" viewBox="0 0 288 120" xmlns="http://www.w3.org/2000/svg" version="1.1">
<desc id="nav-meta">{"window":"6m","count":4,"labels":["30.08","29.10","27.12","25.02"],"tick_utc":["2025-08-30T12:00:00Z","2025-10-29T12:00:00Z","2025-12-27T12:00:00Z","2026-02-25T03:27:12Z"],"w":720,"h":300}</desc>

 <metadata>
  <rdf:RDF xmlns:dc="http://purl.org/dc/elements/1.1/" xmlns:cc="http://creativecommons.org/ns#" xmlns:rdf="http://www.w3.org/1999/02/22-rdf-syntax-ns#">
   <cc:Work>
    <dc:type rdf:resource="http://purl.org/dc/dcmitype/StillImage"/>
    <dc:date>2026-02-25T13:56:05.780067</dc:date>
    <dc:format>image/svg+xml</dc:format>
    <dc:creator>
     <cc:Agent>
      <dc:title>Matplotlib v3.10.8, https://matplotlib.org/</dc:title>
     </cc:Agent>
    </dc:creator>
   </cc:Work>
  </rdf:RDF>
 </metadata>
 <defs>
  <style type="text/css">*{stroke-linejoin: round; stroke-linecap: butt}</style>
 </defs>
 <g id="figure_1">
  <g id="patch_1">
   <path d="M 0 120 
L 288 120 
L 288 0 
L 0 0 
L 0 120 
z
" style="fill: none; opacity: 0"/>
  </g>
  <g id="axes_1">
   <g id="patch_2">
    <path d="M 8.64 108 
L 279.36 108 
L 279.36 4.8 
L 8.64 4.8 
L 8.64 108 
z
" style="fill: none"/>
   </g>
   <g id="matplotlib.axis_1"/>
   <g id="matplotlib.axis_2"/>
   <g id="line2d_1">
    <path d="M 8.64 87.36 
L 279.36 87.36 
" clip-path="url(#p49dde3b291)" style="fill: none; stroke: #b2b2b2; stroke-opacity: 0.35; stroke-width: 0.5; stroke-linecap: square"/>
   </g>
   <g id="line2d_2">
    <path d="M 8.64 66.72 
L 279.36 66.72 
" clip-path="url(#p49dde3b291)" style="fill: none; stroke: #b2b2b2; stroke-opacity: 0.35; stroke-width: 0.5; stroke-linecap: square"/>
   </g>
   <g id="line2d_3">
    <path d="M 8.64 46.08 
L 279.36 46.08 
" clip-path="url(#p49dde3b291)" style="fill: none; stroke: #b2b2b2; stroke-opacity: 0.35; stroke-width: 0.5; stroke-linecap: square"/>
   </g>
   <g id="line2d_4">
    <path d="M 8.64 25.44 
L 279.36 25.44 
" clip-path="url(#p49dde3b291)" style="fill: none; stroke: #b2b2b2; stroke-opacity: 0.35; stroke-width: 0.5; stroke-linecap: square"/>
   </g>
   <g id="line2d_5">
    <path d="M 8.64 70.46616 
L 10.155417 71.11632 
L 11.670834 71.61168 
L 13.186251 72.7056 
L 14.701668 69.33096 
L 16.217085 68.9388 
L 17.732502 71.12664 
L 19.24792 70.90992 
L 20.763337 71.80776 
L 22.278754 70.074 
L 23.794171 68.01 
L 25.309588 67.10184 
L 26.825005 65.29584 
L 28.340422 64.01616 
L 29.855839 60.31128 
L 31.371256 60.19776 
L 32.886673 60.786 
L 34.40209 62.61264 
L 35.917507 61.74576 
L 37.432924 59.57856 
L 38.948342 58.86648 
L 40.463759 61.38456 
L 41.979176 61.07496 
L 43.494593 61.83864 
L 45.01001 66.29688 
L 46.525427 67.97904 
L 48.040844 68.69112 
L 49.556261 73.9956 
L 51.071678 70.45584 
L 52.587095 70.87896 
L 54.102512 68.91816 
L 55.617929 68.3196 
L 57.133346 69.47544 
L 60.164181 62.39592 
L 61.679598 62.81904 
L 63.195015 64.22256 
L 64.710432 64.05744 
L 66.225849 62.9532 
L 67.741266 66.14208 
L 69.256683 63.91296 
L 70.7721 66.17304 
L 72.287517 74.6148 
L 73.802934 77.78304 
L 75.318351 72.66432 
L 76.833768 69.69216 
L 78.349186 71.09568 
L 81.38002 76.06992 
L 82.895437 76.76136 
L 84.410854 75.25464 
L 85.926271 75.24432 
L 87.441688 74.63544 
L 88.957105 75.73968 
L 90.472522 77.31864 
L 91.987939 74.202 
L 93.503356 73.64472 
L 95.018773 73.48992 
L 96.53419 71.83872 
L 98.049608 72.17928 
L 99.565025 73.38672 
L 101.080442 73.43832 
L 102.595859 76.15248 
L 104.111276 75.3372 
L 105.626693 75.58488 
L 107.14211 75.35784 
L 108.657527 81.168 
L 110.172944 84.01632 
L 111.688361 82.06584 
L 113.203778 84.19176 
L 114.719195 82.27224 
L 116.234612 83.29392 
L 117.75003 81.62208 
L 119.265447 80.72424 
L 120.780864 84.33624 
L 122.296281 84.64584 
L 123.811698 86.844 
L 125.327115 88.52616 
L 126.842532 88.36104 
L 128.357949 88.93896 
L 129.873366 90.79656 
L 131.388783 88.09272 
L 132.9042 89.22792 
L 134.419617 90.00192 
L 135.935035 91.39512 
L 137.450452 91.63248 
L 138.965869 90.75528 
L 140.481286 88.7016 
L 141.996703 88.52616 
L 143.51212 87.45288 
L 145.027537 88.0308 
L 146.542954 88.94928 
L 149.573788 89.7336 
L 151.089205 91.86984 
L 152.604622 88.60872 
L 154.120039 86.87496 
L 157.150874 90.11544 
L 158.666291 90.38376 
L 160.181708 90.53856 
L 161.697125 90.08448 
L 163.212542 88.79448 
L 164.727959 89.20728 
L 166.243376 89.22792 
L 167.758793 90.31152 
L 169.27421 90.10512 
L 170.789627 91.09584 
L 172.305044 91.61184 
L 173.820461 91.31256 
L 175.335879 92.87088 
L 176.851296 93.8616 
L 178.366713 92.02464 
L 179.88213 92.13816 
L 181.397547 92.07624 
L 182.912964 92.14848 
L 184.428381 92.64384 
L 185.943798 93.01536 
L 187.459215 93.69648 
L 190.490049 92.44776 
L 192.005466 92.30328 
L 193.520883 92.87088 
L 195.036301 92.38584 
L 196.551718 92.47872 
L 198.067135 91.88016 
L 199.582552 90.42504 
L 201.097969 90.08448 
L 202.613386 89.92968 
L 204.128803 88.76352 
L 205.64422 87.94824 
L 207.159637 89.2692 
L 208.675054 88.72224 
L 210.190471 89.39304 
L 211.705888 89.40336 
L 213.221305 88.41264 
L 214.736723 88.4952 
L 216.25214 86.86464 
L 217.767557 86.42088 
L 219.282974 87.62832 
L 220.798391 86.93688 
L 222.313808 87.23616 
L 225.344642 90.0432 
L 226.860059 92.12784 
L 228.375476 91.16808 
L 231.40631 91.73568 
L 232.921727 91.78728 
L 234.437145 94.0164 
L 235.952562 92.5716 
L 237.467979 91.76664 
L 238.983396 92.33424 
L 240.498813 94.36728 
L 242.01423 94.46016 
L 243.529647 97.71096 
L 245.045064 98.48496 
L 246.560481 97.85544 
L 249.044116 100.16712 
L 250.558762 102.23112 
L 252.067689 100.54896 
L 253.617747 100.70376 
L 255.120658 100.68312 
L 258.157 101.28168 
L 259.666962 101.71512 
L 261.181923 101.84928 
L 262.679117 101.034 
L 264.114571 100.54896 
L 265.727192 101.04432 
L 267.052253 100.81728 
L 268.755623 101.034 
L 270.269199 101.4984 
L 274.814643 101.06496 
L 276.334621 102.09696 
L 277.722017 102.05568 
L 279.36 101.4984 
L 279.36 101.4984 
" clip-path="url(#p49dde3b291)" style="fill: none; stroke: #bebebe; stroke-width: 0.5; stroke-linecap: round"/>
   </g>
   <g id="line2d_6">
    <path d="M 8.64 54.82104 
L 11.670834 54.45984 
L 13.186251 55.7292 
L 14.701668 55.39896 
L 16.217085 53.55168 
L 17.732502 55.81176 
L 19.24792 55.6776 
L 20.763337 56.18328 
L 22.278754 55.71888 
L 25.309588 55.63632 
L 26.825005 55.07904 
L 28.340422 53.41752 
L 29.855839 49.71264 
L 31.371256 50.32152 
L 32.886673 51.17808 
L 34.40209 52.44744 
L 35.917507 52.74672 
L 37.432924 51.4464 
L 38.948342 51.46704 
L 40.463759 53.2524 
L 41.979176 53.08728 
L 43.494593 53.5104 
L 45.01001 57.26688 
L 46.525427 57.76224 
L 48.040844 58.02024 
L 49.556261 62.26176 
L 51.071678 59.68176 
L 52.587095 59.9604 
L 54.102512 58.12344 
L 55.617929 57.02952 
L 57.133346 58.09248 
L 58.648764 55.13064 
L 60.164181 53.046 
L 61.679598 52.5816 
L 63.195015 52.9944 
L 64.710432 52.5816 
L 66.225849 50.0016 
L 67.741266 53.48976 
L 69.256683 52.40616 
L 70.7721 54.75912 
L 72.287517 62.67456 
L 73.802934 63.95424 
L 75.318351 57.86544 
L 76.833768 56.57544 
L 78.349186 58.31952 
L 79.864603 60.4764 
L 81.38002 61.85928 
L 82.895437 62.73648 
L 84.410854 61.8696 
L 85.926271 60.45576 
L 87.441688 60.54864 
L 88.957105 62.04504 
L 90.472522 63.16992 
L 91.987939 62.36496 
L 93.503356 61.21944 
L 95.018773 60.9408 
L 96.53419 57.83448 
L 98.049608 58.40208 
L 99.565025 60.49704 
L 101.080442 61.75608 
L 102.595859 63.1596 
L 104.111276 62.49912 
L 105.626693 62.1276 
L 107.14211 61.56 
L 110.172944 70.66224 
L 111.688361 68.72208 
L 113.203778 70.4868 
L 114.719195 68.61888 
L 116.234612 69.11424 
L 117.75003 66.5136 
L 119.265447 66.68904 
L 120.780864 68.8872 
L 122.296281 68.9904 
L 123.811698 71.5704 
L 125.327115 73.48992 
L 126.842532 72.54048 
L 128.357949 73.56216 
L 129.873366 74.74896 
L 131.388783 73.3248 
L 132.9042 74.80056 
L 134.419617 77.556 
L 135.935035 78.55704 
L 137.450452 78.50544 
L 138.965869 78.04104 
L 140.481286 75.76032 
L 141.996703 75.73968 
L 143.51212 74.65608 
L 145.027537 74.83152 
L 146.542954 74.57352 
L 148.058371 75.20304 
L 149.573788 75.17208 
L 151.089205 78.05136 
L 154.120039 72.16896 
L 155.635457 73.08744 
L 157.150874 74.72832 
L 160.181708 74.28456 
L 161.697125 73.21128 
L 163.212542 70.2804 
L 164.727959 70.2288 
L 166.243376 71.56008 
L 167.758793 73.79952 
L 169.27421 73.35576 
L 170.789627 74.0988 
L 172.305044 75.5952 
L 173.820461 75.5952 
L 175.335879 77.61792 
L 176.851296 77.63856 
L 178.366713 75.40944 
L 179.88213 75.40944 
L 181.397547 75.04824 
L 182.912964 74.98632 
L 184.428381 75.58488 
L 185.943798 75.87384 
L 187.459215 76.49304 
L 190.490049 75.82224 
L 192.005466 75.84288 
L 193.520883 76.03896 
L 195.036301 75.51264 
L 196.551718 75.56424 
L 198.067135 75.05856 
L 199.582552 73.26288 
L 201.097969 73.20096 
L 202.613386 73.00488 
L 204.128803 71.68392 
L 205.64422 70.6932 
L 207.159637 72.62304 
L 208.675054 73.52088 
L 210.190471 73.83048 
L 211.705888 73.8408 
L 213.221305 73.29384 
L 214.736723 73.72728 
L 216.25214 70.32168 
L 217.767557 69.77472 
L 219.282974 70.34232 
L 220.798391 70.67256 
L 222.313808 70.51776 
L 223.829225 70.848 
L 225.344642 72.31344 
L 226.860059 76.01832 
L 228.375476 75.41976 
L 229.890893 75.83256 
L 232.921727 75.82224 
L 234.437145 77.82432 
L 235.952562 76.14216 
L 237.467979 74.75928 
L 238.983396 74.96568 
L 240.498813 77.75208 
L 242.01423 79.48584 
L 243.529647 83.31456 
L 245.045064 85.90488 
L 246.560481 84.79032 
L 247.839833 85.84296 
L 250.558762 91.41576 
L 252.067689 88.7532 
L 255.120658 88.55712 
L 256.644722 88.96992 
L 259.666962 90.456 
L 261.181923 90.56952 
L 262.679117 89.15568 
L 264.114571 88.9596 
L 265.727192 90.6624 
L 267.052253 89.94 
L 268.755623 90.00192 
L 271.775758 90.62112 
L 274.814643 90.3528 
L 276.334621 92.004 
L 277.722017 92.13816 
L 279.36 91.25064 
L 279.36 91.25064 
" clip-path="url(#p49dde3b291)" style="fill: none; stroke: #4a8dff; stroke-width: 0.6"/>
   </g>
   <g id="line2d_7">
    <path d="M 8.64 64.31544 
L 10.155417 63.99552 
L 11.670834 64.5528 
L 13.186251 63.60336 
L 14.701668 61.5084 
L 16.217085 60.96144 
L 17.732502 61.98312 
L 19.24792 62.05536 
L 20.763337 62.51976 
L 23.794171 60.64152 
L 25.309588 61.13688 
L 26.825005 58.6188 
L 28.340422 57.03984 
L 29.855839 56.35872 
L 31.371256 56.5548 
L 32.886673 57.174 
L 34.40209 57.14304 
L 35.917507 55.7292 
L 37.432924 56.04912 
L 38.948342 55.33704 
L 40.463759 56.87472 
L 41.979176 56.8128 
L 43.494593 57.24624 
L 45.01001 59.93976 
L 46.525427 60.64152 
L 48.040844 59.29992 
L 49.556261 63.80976 
L 51.071678 63.03576 
L 52.587095 63.09768 
L 54.102512 60.51768 
L 55.617929 58.27824 
L 57.133346 58.5672 
L 58.648764 53.93352 
L 60.164181 51.74568 
L 61.679598 50.04288 
L 63.195015 49.90872 
L 64.710432 48.74256 
L 66.225849 47.43192 
L 67.741266 50.80656 
L 69.256683 48.90768 
L 70.7721 50.6208 
L 72.287517 59.42376 
L 73.802934 61.85928 
L 75.318351 57.35976 
L 76.833768 57.3288 
L 78.349186 59.46504 
L 81.38002 64.72824 
L 82.895437 66.42072 
L 84.410854 65.688 
L 85.926271 64.17096 
L 87.441688 62.10696 
L 88.957105 64.30512 
L 90.472522 65.20296 
L 91.987939 62.68488 
L 93.503356 61.70448 
L 95.018773 61.06464 
L 96.53419 58.1028 
L 98.049608 58.40208 
L 99.565025 59.68176 
L 101.080442 62.6952 
L 102.595859 64.56312 
L 104.111276 63.18024 
L 105.626693 62.72616 
L 107.14211 62.06568 
L 108.657527 66.33816 
L 110.172944 71.40528 
L 111.688361 69.08328 
L 113.203778 71.7252 
L 114.719195 69.57864 
L 116.234612 70.72416 
L 117.75003 68.2164 
L 119.265447 66.978 
L 120.780864 70.03272 
L 122.296281 71.5188 
L 123.811698 73.3764 
L 125.327115 78.846 
L 126.842532 77.75208 
L 128.357949 78.88728 
L 129.873366 81.34344 
L 131.388783 80.53848 
L 132.9042 82.0452 
L 134.419617 86.92656 
L 135.935035 88.58808 
L 137.450452 88.96992 
L 138.965869 86.7924 
L 140.481286 85.296 
L 141.996703 86.24544 
L 143.51212 82.96368 
L 145.027537 82.13808 
L 146.542954 82.47864 
L 148.058371 82.58184 
L 149.573788 83.03592 
L 151.089205 87.3084 
L 152.604622 82.06584 
L 154.120039 79.71288 
L 155.635457 81.24024 
L 157.150874 84.17112 
L 158.666291 84.24336 
L 160.181708 83.29392 
L 161.697125 82.8192 
L 163.212542 80.64168 
L 164.727959 81.38472 
L 166.243376 80.87904 
L 167.758793 83.13912 
L 169.27421 83.19072 
L 170.789627 85.296 
L 172.305044 87.17424 
L 173.820461 85.71912 
L 175.335879 87.53544 
L 176.851296 88.17528 
L 178.366713 85.41984 
L 181.397547 84.9348 
L 182.912964 85.01736 
L 184.428381 86.14224 
L 185.943798 85.90488 
L 187.459215 86.328 
L 188.974632 86.24544 
L 190.490049 85.72944 
L 192.005466 85.7088 
L 193.520883 86.40024 
L 195.036301 85.09992 
L 196.551718 86.02872 
L 199.582552 83.53128 
L 202.613386 82.03488 
L 204.128803 79.39296 
L 205.64422 79.66128 
L 207.159637 82.15872 
L 208.675054 82.43736 
L 210.190471 82.93272 
L 211.705888 83.00496 
L 214.736723 82.28256 
L 216.25214 78.01008 
L 217.767557 76.19376 
L 219.282974 77.66952 
L 220.798391 77.74176 
L 222.313808 78.1752 
L 223.829225 79.5684 
L 225.344642 80.8068 
L 226.860059 85.20312 
L 228.375476 84.12984 
L 229.890893 84.03696 
L 231.40631 84.06792 
L 232.921727 84.3156 
L 234.437145 87.02976 
L 235.952562 85.21344 
L 237.467979 84.28464 
L 238.983396 84.32592 
L 240.498813 89.08344 
L 242.01423 89.5272 
L 243.529647 95.14128 
L 245.045064 96.98856 
L 246.560481 95.08968 
L 247.839833 97.71096 
L 249.044116 99.80592 
L 250.558762 101.79768 
L 252.067689 100.03296 
L 253.617747 100.518 
L 255.120658 99.98136 
L 256.644722 100.49736 
L 261.181923 101.26104 
L 262.679117 100.63152 
L 264.114571 100.38384 
L 265.727192 100.84824 
L 267.052253 100.65216 
L 268.755623 101.034 
L 270.269199 101.19912 
L 274.814643 100.91016 
L 276.334621 101.7564 
L 277.722017 101.84928 
L 279.36 101.56032 
L 279.36 101.56032 
" clip-path="url(#p49dde3b291)" style="fill: none; stroke: #f5841e; stroke-width: 0.6"/>
   </g>
  </g>
 </g>
 <defs>
  <clipPath id="p49dde3b291">
   <rect x="8.64" y="4.8" width="270.72" height="103.2"/>
  </clipPath>
 </defs>
</svg>
