<?xml version="1.0" encoding="utf-8" standalone="no"?>
<!DOCTYPE svg PUBLIC "-//W3C//DTD SVG 1.1//EN"
  "http://www.w3.org/Graphics/SVG/1.1/DTD/svg11.dtd">
<svg xmlns:xlink="http://www.w3.org/1999/xlink" width="288pt" height="120pt" viewBox="0 0 288 120" xmlns="http://www.w3.org/2000/svg" version="1.1">
<desc id="nav-meta">{"window":"1m","count":4,"labels":["05.02","15.02","25.02","07.03"],"tick_utc":["2026-02-05T03:20:02Z","2026-02-15T02:00:29Z","2026-02-25T03:27:12Z","2026-03-07T03:05:35Z"],"w":720,"h":300}</desc>

 <metadata>
  <rdf:RDF xmlns:dc="http://purl.org/dc/elements/1.1/" xmlns:cc="http://creativecommons.org/ns#" xmlns:rdf="http://www.w3.org/1999/02/22-rdf-syntax-ns#">
   <cc:Work>
    <dc:type rdf:resource="http://purl.org/dc/dcmitype/StillImage"/>
    <dc:date>2026-03-07T03:05:38.219708</dc:date>
    <dc:format>image/svg+xml</dc:format>
    <dc:creator>
     <cc:Agent>
      <dc:title>Matplotlib v3.10.8, https://matplotlib.org/</dc:title>
     </cc:Agent>
    </dc:creator>
   </cc:Work>
  </rdf:RDF>
 </metadata>
 <defs>
  <style type="text/css">*{stroke-linejoin: round; stroke-linecap: butt}</style>
 </defs>
 <g id="figure_1">
  <g id="patch_1">
   <path d="M 0 120 
L 288 120 
L 288 0 
L 0 0 
L 0 120 
z
" style="fill: none; opacity: 0"/>
  </g>
  <g id="axes_1">
   <g id="patch_2">
    <path d="M 8.64 108 
L 279.36 108 
L 279.36 4.8 
L 8.64 4.8 
L 8.64 108 
z
" style="fill: none"/>
   </g>
   <g id="matplotlib.axis_1"/>
   <g id="matplotlib.axis_2"/>
   <g id="line2d_1">
    <path d="M 8.64 87.36 
L 279.36 87.36 
" clip-path="url(#p9f1178ac1e)" style="fill: none; stroke: #b2b2b2; stroke-opacity: 0.35; stroke-width: 0.5; stroke-linecap: square"/>
   </g>
   <g id="line2d_2">
    <path d="M 8.64 66.72 
L 279.36 66.72 
" clip-path="url(#p9f1178ac1e)" style="fill: none; stroke: #b2b2b2; stroke-opacity: 0.35; stroke-width: 0.5; stroke-linecap: square"/>
   </g>
   <g id="line2d_3">
    <path d="M 8.64 46.08 
L 279.36 46.08 
" clip-path="url(#p9f1178ac1e)" style="fill: none; stroke: #b2b2b2; stroke-opacity: 0.35; stroke-width: 0.5; stroke-linecap: square"/>
   </g>
   <g id="line2d_4">
    <path d="M 8.64 25.44 
L 279.36 25.44 
" clip-path="url(#p9f1178ac1e)" style="fill: none; stroke: #b2b2b2; stroke-opacity: 0.35; stroke-width: 0.5; stroke-linecap: square"/>
   </g>
   <g id="line2d_5">
    <path d="M 8.64 100.16712 
L 17.662422 102.23112 
L 26.650784 100.54896 
L 35.884151 100.70376 
L 44.836676 100.68312 
L 53.915204 100.95144 
L 62.923522 101.28168 
L 71.918048 101.71512 
L 80.942351 101.84928 
L 89.860816 101.034 
L 98.411514 100.54896 
L 108.017559 101.04432 
L 115.910663 100.81728 
L 126.057284 101.034 
L 135.073333 101.4984 
L 144.04759 101.33328 
L 153.019445 101.1372 
L 162.149585 101.06496 
L 171.203769 102.09696 
L 179.468194 102.05568 
L 189.225315 101.4984 
L 198.21211 100.60056 
L 207.221995 100.80696 
L 216.142654 101.45712 
L 225.374767 100.55928 
L 234.308591 101.10624 
L 243.356611 100.8792 
L 252.333062 100.74504 
L 261.379515 100.21872 
L 270.40225 100.53864 
L 279.36 101.07528 
" clip-path="url(#p9f1178ac1e)" style="fill: none; stroke: #bebebe; stroke-width: 0.5; stroke-linecap: round"/>
   </g>
   <g id="line2d_6">
    <path d="M 8.64 88.25784 
L 17.662422 91.41576 
L 26.650784 88.7532 
L 35.884151 88.65 
L 44.836676 88.55712 
L 53.915204 88.96992 
L 62.923522 89.7336 
L 71.918048 90.456 
L 80.942351 90.56952 
L 89.860816 89.15568 
L 98.411514 88.9596 
L 108.017559 90.6624 
L 115.910663 89.94 
L 126.057284 90.00192 
L 135.073333 90.3528 
L 144.04759 90.62112 
L 153.019445 90.5076 
L 162.149585 90.3528 
L 171.203769 92.004 
L 179.468194 92.13816 
L 189.225315 91.25064 
L 198.21211 89.166 
L 207.221995 89.56848 
L 216.142654 90.93072 
L 225.374767 89.41368 
L 234.308591 90.37344 
L 243.356611 89.79552 
L 252.333062 90.23928 
L 261.379515 88.0824 
L 270.40225 88.7532 
L 279.36 90.16704 
" clip-path="url(#p9f1178ac1e)" style="fill: none; stroke: #4a8dff; stroke-width: 0.6"/>
   </g>
   <g id="line2d_7">
    <path d="M 8.64 99.80592 
L 17.662422 101.79768 
L 26.650784 100.03296 
L 35.884151 100.518 
L 44.836676 99.98136 
L 53.915204 100.49736 
L 62.923522 100.78632 
L 71.918048 101.07528 
L 80.942351 101.26104 
L 89.860816 100.63152 
L 98.411514 100.38384 
L 108.017559 100.84824 
L 115.910663 100.65216 
L 126.057284 101.034 
L 135.073333 101.19912 
L 144.04759 101.10624 
L 153.019445 100.97208 
L 162.149585 100.91016 
L 171.203769 101.7564 
L 179.468194 101.84928 
L 189.225315 101.56032 
L 198.21211 100.85856 
L 207.221995 101.12688 
L 216.142654 101.4468 
L 225.374767 101.02368 
L 234.308591 101.30232 
L 243.356611 100.81728 
L 252.333062 100.79664 
L 261.379515 99.3312 
L 270.40225 99.92976 
L 279.36 100.78632 
" clip-path="url(#p9f1178ac1e)" style="fill: none; stroke: #f5841e; stroke-width: 0.6"/>
   </g>
  </g>
 </g>
 <defs>
  <clipPath id="p9f1178ac1e">
   <rect x="8.64" y="4.8" width="270.72" height="103.2"/>
  </clipPath>
 </defs>
</svg>
