<?xml version="1.0" encoding="utf-8" standalone="no"?>
<!DOCTYPE svg PUBLIC "-//W3C//DTD SVG 1.1//EN"
  "http://www.w3.org/Graphics/SVG/1.1/DTD/svg11.dtd">
<svg xmlns:xlink="http://www.w3.org/1999/xlink" width="288pt" height="120pt" viewBox="0 0 288 120" xmlns="http://www.w3.org/2000/svg" version="1.1">
<desc id="nav-meta">{"window":"1m","count":4,"labels":["01.06","11.06","21.06","01.07"],"tick_utc":["2026-06-01T05:29:45Z","2026-06-11T05:14:13Z","2026-06-21T05:29:24Z","2026-07-01T05:10:59Z"],"w":720,"h":300}</desc>

 <metadata>
  <rdf:RDF xmlns:dc="http://purl.org/dc/elements/1.1/" xmlns:cc="http://creativecommons.org/ns#" xmlns:rdf="http://www.w3.org/1999/02/22-rdf-syntax-ns#">
   <cc:Work>
    <dc:type rdf:resource="http://purl.org/dc/dcmitype/StillImage"/>
    <dc:date>2026-07-01T05:11:01.033360</dc:date>
    <dc:format>image/svg+xml</dc:format>
    <dc:creator>
     <cc:Agent>
      <dc:title>Matplotlib v3.11.0, https://matplotlib.org/</dc:title>
     </cc:Agent>
    </dc:creator>
   </cc:Work>
  </rdf:RDF>
 </metadata>
 <defs>
  <style type="text/css">*{stroke-linejoin: round; stroke-linecap: butt}</style>
 </defs>
 <g id="figure_1">
  <g id="patch_1">
   <path d="M 0 120 
L 288 120 
L 288 0 
L 0 0 
L 0 120 
z
" style="fill: none; opacity: 0"/>
  </g>
  <g id="axes_1">
   <g id="patch_2">
    <path d="M 8.64 108 
L 279.36 108 
L 279.36 4.8 
L 8.64 4.8 
L 8.64 108 
z
" style="fill: none"/>
   </g>
   <g id="matplotlib.axis_1"/>
   <g id="matplotlib.axis_2"/>
   <g id="line2d_1">
    <path d="M 8.64 87.36 
L 279.36 87.36 
" clip-path="url(#p52cc4b2dc4)" style="fill: none; stroke: #b2b2b2; stroke-opacity: 0.35; stroke-width: 0.5; stroke-linecap: square"/>
   </g>
   <g id="line2d_2">
    <path d="M 8.64 66.72 
L 279.36 66.72 
" clip-path="url(#p52cc4b2dc4)" style="fill: none; stroke: #b2b2b2; stroke-opacity: 0.35; stroke-width: 0.5; stroke-linecap: square"/>
   </g>
   <g id="line2d_3">
    <path d="M 8.64 46.08 
L 279.36 46.08 
" clip-path="url(#p52cc4b2dc4)" style="fill: none; stroke: #b2b2b2; stroke-opacity: 0.35; stroke-width: 0.5; stroke-linecap: square"/>
   </g>
   <g id="line2d_4">
    <path d="M 8.64 25.44 
L 279.36 25.44 
" clip-path="url(#p52cc4b2dc4)" style="fill: none; stroke: #b2b2b2; stroke-opacity: 0.35; stroke-width: 0.5; stroke-linecap: square"/>
   </g>
   <g id="line2d_5">
    <path d="M 8.64 101.51904 
L 17.579105 101.7048 
L 26.708591 102.54072 
L 35.705584 103.08768 
L 44.584817 103.36632 
L 53.473976 104.22288 
L 62.695936 103.85136 
L 71.763773 103.68624 
L 80.619391 103.43856 
L 89.740936 103.81008 
L 98.821834 103.72752 
L 107.885178 103.50048 
L 116.847062 103.5108 
L 125.940499 103.31472 
L 135.268516 102.95352 
L 144.347951 102.61296 
L 153.088317 102.6336 
L 162.07298 102.9948 
L 171.313539 103.28376 
L 179.980448 103.01544 
L 189.196243 102.69552 
L 198.488419 102.582 
L 206.976651 102.88128 
L 216.03686 103.15992 
L 225.062379 103.36632 
L 234.13659 103.36632 
L 243.053857 102.81936 
L 252.253874 103.0464 
L 261.347102 102.9432 
L 270.200003 102.59232 
L 279.36 102.40656 
" clip-path="url(#p52cc4b2dc4)" style="fill: none; stroke: #bebebe; stroke-width: 0.5; stroke-linecap: round"/>
   </g>
   <g id="line2d_6">
    <path d="M 8.64 90.0432 
L 17.579105 89.96064 
L 26.708591 91.99368 
L 35.705584 93.05664 
L 44.584817 93.74808 
L 53.473976 97.02984 
L 62.695936 95.93592 
L 71.763773 95.07936 
L 80.619391 94.46016 
L 89.740936 95.47152 
L 98.821834 95.11032 
L 107.885178 94.82136 
L 116.847062 94.8936 
L 125.940499 94.70784 
L 135.268516 94.04736 
L 144.347951 93.40752 
L 153.088317 92.9844 
L 162.07298 93.93384 
L 171.313539 94.4292 
L 179.980448 94.19184 
L 189.196243 93.87192 
L 198.488419 93.81 
L 206.976651 94.03704 
L 216.03686 94.83168 
L 225.062379 95.48184 
L 234.13659 96.63768 
L 243.053857 96.14232 
L 252.253874 96.30744 
L 261.347102 96.29712 
L 270.200003 96.04944 
L 279.36 95.9256 
" clip-path="url(#p52cc4b2dc4)" style="fill: none; stroke: #4a8dff; stroke-width: 0.6"/>
   </g>
   <g id="line2d_7">
    <path d="M 8.64 99.09384 
L 17.579105 100.0536 
L 26.708591 101.23008 
L 35.705584 101.99376 
L 44.584817 102.08664 
L 53.473976 102.8916 
L 62.695936 102.45816 
L 71.763773 102.28272 
L 80.619391 102.10728 
L 89.740936 102.582 
L 98.821834 102.29304 
L 107.885178 102.08664 
L 116.847062 102.066 
L 125.940499 101.86992 
L 135.268516 101.48808 
L 144.347951 101.40552 
L 153.088317 101.4984 
L 162.07298 101.97312 
L 171.313539 102.26208 
L 179.980448 102.066 
L 189.196243 101.90088 
L 198.488419 101.90088 
L 206.976651 102.0144 
L 216.03686 102.25176 
L 225.062379 102.6336 
L 234.13659 102.88128 
L 243.053857 102.77808 
L 252.253874 102.85032 
L 261.347102 102.93288 
L 270.200003 102.95352 
L 279.36 103.00512 
" clip-path="url(#p52cc4b2dc4)" style="fill: none; stroke: #f5841e; stroke-width: 0.6"/>
   </g>
  </g>
 </g>
 <defs>
  <clipPath id="p52cc4b2dc4">
   <rect x="8.64" y="4.8" width="270.72" height="103.2"/>
  </clipPath>
 </defs>
</svg>
