<?xml version="1.0" encoding="utf-8" standalone="no"?>
<!DOCTYPE svg PUBLIC "-//W3C//DTD SVG 1.1//EN"
  "http://www.w3.org/Graphics/SVG/1.1/DTD/svg11.dtd">
<svg xmlns:xlink="http://www.w3.org/1999/xlink" width="288pt" height="120pt" viewBox="0 0 288 120" xmlns="http://www.w3.org/2000/svg" version="1.1">
<desc id="nav-meta">{"window":"3m","count":4,"labels":["16.02","18.03","16.04","16.05"],"tick_utc":["2026-02-16T03:32:51Z","2026-03-18T03:32:26Z","2026-04-16T03:58:40Z","2026-05-16T04:20:56Z"],"w":720,"h":300}</desc>

 <metadata>
  <rdf:RDF xmlns:dc="http://purl.org/dc/elements/1.1/" xmlns:cc="http://creativecommons.org/ns#" xmlns:rdf="http://www.w3.org/1999/02/22-rdf-syntax-ns#">
   <cc:Work>
    <dc:type rdf:resource="http://purl.org/dc/dcmitype/StillImage"/>
    <dc:date>2026-05-16T08:27:39.720398</dc:date>
    <dc:format>image/svg+xml</dc:format>
    <dc:creator>
     <cc:Agent>
      <dc:title>Matplotlib v3.10.9, https://matplotlib.org/</dc:title>
     </cc:Agent>
    </dc:creator>
   </cc:Work>
  </rdf:RDF>
 </metadata>
 <defs>
  <style type="text/css">*{stroke-linejoin: round; stroke-linecap: butt}</style>
 </defs>
 <g id="figure_1">
  <g id="patch_1">
   <path d="M 0 120 
L 288 120 
L 288 0 
L 0 0 
L 0 120 
z
" style="fill: none; opacity: 0"/>
  </g>
  <g id="axes_1">
   <g id="patch_2">
    <path d="M 8.64 108 
L 279.36 108 
L 279.36 4.8 
L 8.64 4.8 
L 8.64 108 
z
" style="fill: none"/>
   </g>
   <g id="matplotlib.axis_1"/>
   <g id="matplotlib.axis_2"/>
   <g id="line2d_1">
    <path d="M 8.64 87.36 
L 279.36 87.36 
" clip-path="url(#p618d4db413)" style="fill: none; stroke: #b2b2b2; stroke-opacity: 0.35; stroke-width: 0.5; stroke-linecap: square"/>
   </g>
   <g id="line2d_2">
    <path d="M 8.64 66.72 
L 279.36 66.72 
" clip-path="url(#p618d4db413)" style="fill: none; stroke: #b2b2b2; stroke-opacity: 0.35; stroke-width: 0.5; stroke-linecap: square"/>
   </g>
   <g id="line2d_3">
    <path d="M 8.64 46.08 
L 279.36 46.08 
" clip-path="url(#p618d4db413)" style="fill: none; stroke: #b2b2b2; stroke-opacity: 0.35; stroke-width: 0.5; stroke-linecap: square"/>
   </g>
   <g id="line2d_4">
    <path d="M 8.64 25.44 
L 279.36 25.44 
" clip-path="url(#p618d4db413)" style="fill: none; stroke: #b2b2b2; stroke-opacity: 0.35; stroke-width: 0.5; stroke-linecap: square"/>
   </g>
   <g id="line2d_5">
    <path d="M 8.64 101.04432 
L 11.29871 100.81728 
L 14.716492 101.034 
L 17.753454 101.4984 
L 20.776339 101.33328 
L 23.798414 101.1372 
L 26.873806 101.06496 
L 29.923613 102.09696 
L 32.707398 102.05568 
L 35.993982 101.4984 
L 39.02109 100.60056 
L 42.055975 100.80696 
L 45.060806 101.45712 
L 48.170546 100.55928 
L 51.179811 101.10624 
L 54.227542 100.8792 
L 57.251166 100.74504 
L 60.298369 100.21872 
L 63.337583 100.53864 
L 66.354907 101.07528 
L 69.42509 101.38488 
L 72.474862 101.26104 
L 75.495987 100.78632 
L 78.535448 100.91016 
L 81.58807 100.99272 
L 84.62285 100.38384 
L 87.65946 100.50768 
L 90.75829 100.60056 
L 93.807534 99.76464 
L 96.79498 99.49632 
L 99.858829 99.40344 
L 102.90033 100.09488 
L 105.91139 100.3632 
L 108.93424 100.19808 
L 112.020366 100.47672 
L 115.068167 100.79664 
L 118.080669 100.26 
L 121.347792 99.83688 
L 124.198971 100.13616 
L 127.243464 100.80696 
L 130.255052 101.38488 
L 133.33713 101.3436 
L 136.38648 101.292 
L 139.407957 101.28168 
L 142.474692 101.28168 
L 145.475299 101.8596 
L 148.51944 101.88024 
L 151.534055 101.72544 
L 154.620497 101.68416 
L 157.669002 101.47776 
L 160.689916 101.78736 
L 163.7355 101.09592 
L 166.765564 101.46744 
L 169.834199 101.3436 
L 172.828367 101.05464 
L 175.923572 101.3952 
L 178.97982 101.47776 
L 182.001121 100.86888 
L 185.039455 101.26104 
L 188.093274 100.99272 
L 191.127737 100.61088 
L 194.134855 100.44576 
L 197.215667 100.94112 
L 200.263855 101.09592 
L 203.291174 101.00304 
L 206.322399 100.69344 
L 209.375374 100.9308 
L 212.42409 100.92048 
L 215.428463 100.81728 
L 218.516419 100.8792 
L 221.589841 100.64184 
L 224.636867 101.1888 
L 227.669219 101.09592 
L 230.714979 101.37456 
L 233.788858 101.21976 
L 236.751915 101.20944 
L 239.8543 101.23008 
L 242.893901 100.92048 
L 245.867586 101.06496 
L 248.961806 100.70376 
L 252.003273 100.55928 
L 254.993322 100.53864 
L 258.0451 99.60984 
L 261.147028 99.72336 
L 264.211686 99.44472 
L 267.210112 99.25896 
L 270.265233 99.32088 
L 273.302512 100.22904 
L 276.358161 100.01232 
L 279.36 100.43544 
" clip-path="url(#p618d4db413)" style="fill: none; stroke: #bebebe; stroke-width: 0.5; stroke-linecap: round"/>
   </g>
   <g id="line2d_6">
    <path d="M 8.64 90.6624 
L 11.29871 89.94 
L 14.716492 90.00192 
L 17.753454 90.3528 
L 20.776339 90.62112 
L 23.798414 90.5076 
L 26.873806 90.3528 
L 29.923613 92.004 
L 32.707398 92.13816 
L 35.993982 91.25064 
L 39.02109 89.166 
L 42.055975 89.56848 
L 45.060806 90.93072 
L 48.170546 89.41368 
L 51.179811 90.37344 
L 54.227542 89.79552 
L 57.251166 90.23928 
L 60.298369 88.0824 
L 63.337583 88.7532 
L 66.354907 90.16704 
L 69.42509 90.67272 
L 72.474862 90.18768 
L 75.495987 89.2692 
L 78.535448 89.54784 
L 81.58807 89.49624 
L 84.62285 88.31976 
L 87.65946 88.45392 
L 90.75829 88.46424 
L 93.807534 86.38992 
L 96.79498 84.80064 
L 99.858829 84.8316 
L 102.90033 86.586 
L 105.91139 87.74184 
L 108.93424 87.618 
L 112.020366 88.19592 
L 115.068167 89.08344 
L 118.080669 87.89664 
L 121.347792 87.3084 
L 124.198971 87.65928 
L 127.243464 88.96992 
L 130.255052 90.07416 
L 133.33713 89.76456 
L 136.38648 89.3724 
L 139.407957 89.00088 
L 142.474692 88.42296 
L 145.475299 88.81512 
L 148.51944 89.10408 
L 151.534055 89.14536 
L 154.620497 89.07312 
L 157.669002 87.9792 
L 160.689916 88.29912 
L 163.7355 86.38992 
L 166.765564 87.24648 
L 169.834199 87.1536 
L 172.828367 86.21448 
L 175.923572 86.66856 
L 178.97982 87.01944 
L 182.001121 84.44976 
L 185.039455 85.05864 
L 188.093274 84.58392 
L 191.127737 85.04832 
L 194.134855 83.71704 
L 197.215667 84.86256 
L 200.263855 85.6572 
L 203.291174 85.27536 
L 206.322399 84.49104 
L 209.375374 84.86256 
L 212.42409 85.32696 
L 215.428463 85.17216 
L 218.516419 85.31664 
L 221.589841 84.11952 
L 224.636867 85.66752 
L 227.669219 85.26504 
L 230.714979 86.26608 
L 233.788858 85.77072 
L 236.751915 85.38888 
L 239.8543 85.3992 
L 242.893901 84.09888 
L 245.867586 84.22272 
L 248.961806 84.34656 
L 252.003273 85.06896 
L 254.993322 85.7604 
L 258.0451 85.0896 
L 261.147028 85.01736 
L 264.211686 84.9348 
L 267.210112 85.296 
L 270.265233 85.35792 
L 273.302512 86.1732 
L 276.358161 85.92552 
L 279.36 86.55504 
" clip-path="url(#p618d4db413)" style="fill: none; stroke: #4a8dff; stroke-width: 0.6"/>
   </g>
   <g id="line2d_7">
    <path d="M 8.64 100.84824 
L 11.29871 100.65216 
L 14.716492 101.034 
L 17.753454 101.19912 
L 20.776339 101.10624 
L 23.798414 100.97208 
L 26.873806 100.91016 
L 29.923613 101.7564 
L 32.707398 101.84928 
L 35.993982 101.56032 
L 39.02109 100.85856 
L 42.055975 101.12688 
L 45.060806 101.4468 
L 48.170546 101.02368 
L 51.179811 101.30232 
L 54.227542 100.81728 
L 57.251166 100.79664 
L 60.298369 99.3312 
L 63.337583 99.92976 
L 66.354907 100.78632 
L 69.42509 101.17848 
L 72.474862 101.1372 
L 75.495987 100.21872 
L 78.535448 100.37352 
L 81.58807 100.4664 
L 84.62285 99.88848 
L 87.65946 99.94008 
L 90.75829 99.81624 
L 93.807534 98.93904 
L 96.79498 98.3508 
L 99.858829 98.52624 
L 102.90033 99.78528 
L 105.91139 100.12584 
L 108.93424 100.03296 
L 112.020366 100.45608 
L 115.068167 100.83792 
L 118.080669 100.11552 
L 121.347792 99.87816 
L 124.198971 100.002 
L 127.243464 100.64184 
L 130.255052 101.41584 
L 133.33713 101.21976 
L 136.38648 101.14752 
L 139.407957 101.00304 
L 142.474692 100.86888 
L 145.475299 101.21976 
L 148.51944 101.28168 
L 151.534055 101.20944 
L 154.620497 101.14752 
L 157.669002 100.55928 
L 160.689916 100.65216 
L 163.7355 99.80592 
L 166.765564 99.96072 
L 169.834199 99.6408 
L 172.828367 99.1764 
L 175.923572 99.70272 
L 178.97982 99.94008 
L 182.001121 98.57784 
L 185.039455 98.65008 
L 188.093274 98.38176 
L 191.127737 98.48496 
L 194.134855 96.70992 
L 197.215667 98.05152 
L 200.263855 98.48496 
L 203.291174 97.96896 
L 206.322399 96.32808 
L 209.375374 96.20424 
L 212.42409 96.16296 
L 215.428463 96.1836 
L 218.516419 96.50352 
L 221.589841 94.76976 
L 224.636867 97.19496 
L 227.669219 96.9576 
L 230.714979 97.9896 
L 233.788858 96.89568 
L 236.751915 95.45088 
L 239.8543 95.67792 
L 242.893901 93.43848 
L 245.867586 92.90184 
L 248.961806 92.25168 
L 252.003273 92.87088 
L 254.993322 94.2744 
L 258.0451 93.1392 
L 261.147028 92.97408 
L 264.211686 92.9844 
L 267.210112 92.60256 
L 270.265233 92.53032 
L 273.302512 94.54272 
L 276.358161 92.85024 
L 279.36 94.82136 
" clip-path="url(#p618d4db413)" style="fill: none; stroke: #f5841e; stroke-width: 0.6"/>
   </g>
  </g>
 </g>
 <defs>
  <clipPath id="p618d4db413">
   <rect x="8.64" y="4.8" width="270.72" height="103.2"/>
  </clipPath>
 </defs>
</svg>
