<?xml version="1.0" encoding="utf-8" standalone="no"?>
<!DOCTYPE svg PUBLIC "-//W3C//DTD SVG 1.1//EN"
  "http://www.w3.org/Graphics/SVG/1.1/DTD/svg11.dtd">
<svg xmlns:xlink="http://www.w3.org/1999/xlink" width="288pt" height="120pt" viewBox="0 0 288 120" xmlns="http://www.w3.org/2000/svg" version="1.1">
<desc id="nav-meta">{"window":"3m","count":4,"labels":["24.04","24.05","23.06","23.07"],"tick_utc":["2026-04-24T04:01:18Z","2026-05-24T04:51:26Z","2026-06-23T04:45:28Z","2026-07-23T03:58:20Z"],"w":720,"h":300}</desc>

 <metadata>
  <rdf:RDF xmlns:dc="http://purl.org/dc/elements/1.1/" xmlns:cc="http://creativecommons.org/ns#" xmlns:rdf="http://www.w3.org/1999/02/22-rdf-syntax-ns#">
   <cc:Work>
    <dc:type rdf:resource="http://purl.org/dc/dcmitype/StillImage"/>
    <dc:date>2026-07-23T03:58:22.691369</dc:date>
    <dc:format>image/svg+xml</dc:format>
    <dc:creator>
     <cc:Agent>
      <dc:title>Matplotlib v3.11.1, https://matplotlib.org/</dc:title>
     </cc:Agent>
    </dc:creator>
   </cc:Work>
  </rdf:RDF>
 </metadata>
 <defs>
  <style type="text/css">*{stroke-linejoin: round; stroke-linecap: butt}</style>
 </defs>
 <g id="figure_1">
  <g id="patch_1">
   <path d="M 0 120 
L 288 120 
L 288 0 
L 0 0 
L 0 120 
z
" style="fill: none; opacity: 0"/>
  </g>
  <g id="axes_1">
   <g id="patch_2">
    <path d="M 8.64 108 
L 279.36 108 
L 279.36 4.8 
L 8.64 4.8 
L 8.64 108 
z
" style="fill: none"/>
   </g>
   <g id="matplotlib.axis_1"/>
   <g id="matplotlib.axis_2"/>
   <g id="line2d_1">
    <path d="M 8.64 87.36 
L 279.36 87.36 
" clip-path="url(#p35a2cc9f20)" style="fill: none; stroke: #b2b2b2; stroke-opacity: 0.35; stroke-width: 0.5; stroke-linecap: square"/>
   </g>
   <g id="line2d_2">
    <path d="M 8.64 66.72 
L 279.36 66.72 
" clip-path="url(#p35a2cc9f20)" style="fill: none; stroke: #b2b2b2; stroke-opacity: 0.35; stroke-width: 0.5; stroke-linecap: square"/>
   </g>
   <g id="line2d_3">
    <path d="M 8.64 46.08 
L 279.36 46.08 
" clip-path="url(#p35a2cc9f20)" style="fill: none; stroke: #b2b2b2; stroke-opacity: 0.35; stroke-width: 0.5; stroke-linecap: square"/>
   </g>
   <g id="line2d_4">
    <path d="M 8.64 25.44 
L 279.36 25.44 
" clip-path="url(#p35a2cc9f20)" style="fill: none; stroke: #b2b2b2; stroke-opacity: 0.35; stroke-width: 0.5; stroke-linecap: square"/>
   </g>
   <g id="line2d_5">
    <path d="M 8.64 100.92048 
L 11.612174 100.81728 
L 14.667035 100.8792 
L 17.707517 100.64184 
L 20.721888 101.1888 
L 23.72174 101.09592 
L 26.734857 101.37456 
L 29.775792 101.21976 
L 32.707092 101.20944 
L 35.776228 101.23008 
L 38.783252 100.92048 
L 41.725067 101.06496 
L 44.786125 100.70376 
L 47.794995 100.55928 
L 50.752999 100.53864 
L 53.772069 99.60984 
L 56.840752 99.72336 
L 59.872565 99.44472 
L 62.838855 99.25896 
L 65.861234 99.32088 
L 68.86596 100.22904 
L 71.88886 100.01232 
L 74.858528 100.43544 
L 77.911509 100.75536 
L 80.948788 101.02368 
L 83.935306 101.02368 
L 86.954133 101.17848 
L 89.979331 100.7244 
L 92.964352 100.75536 
L 95.931094 101.11656 
L 98.986791 100.91016 
L 102.034445 100.89984 
L 104.996941 101.1372 
L 108.035891 101.2404 
L 111.034351 101.6532 
L 114.044648 101.4984 
L 117.009336 101.48808 
L 120.07882 101.32296 
L 123.131383 101.51904 
L 126.109859 101.7048 
L 129.151768 102.54072 
L 132.149532 103.08768 
L 135.108058 103.36632 
L 138.069892 104.22288 
L 141.142613 103.85136 
L 144.163982 103.68624 
L 147.114639 103.43856 
L 150.153903 103.81008 
L 153.179623 103.72752 
L 156.199495 103.50048 
L 159.18556 103.5108 
L 162.215458 103.31472 
L 165.323518 102.95352 
L 168.348751 102.61296 
L 171.261007 102.6336 
L 174.254662 102.9948 
L 177.333581 103.28376 
L 180.221362 103.01544 
L 183.292029 102.69552 
L 186.388147 102.582 
L 189.216393 102.88128 
L 192.23522 103.15992 
L 195.242488 103.36632 
L 198.26598 103.36632 
L 201.237179 102.81936 
L 204.302589 103.0464 
L 207.332418 102.9432 
L 210.282171 102.59232 
L 213.334246 102.40656 
L 216.289639 102.02472 
L 219.264981 101.68416 
L 222.260099 101.3436 
L 225.312209 101.6532 
L 228.349419 101.6532 
L 231.312367 101.63256 
L 234.238689 101.95248 
L 237.33794 102.08664 
L 240.339219 101.9112 
L 243.258474 102.066 
L 246.311524 102.18984 
L 249.326173 102.31368 
L 252.264681 102.45816 
L 255.273515 102.08664 
L 258.289104 102.21048 
L 261.297661 102.4272 
L 264.290863 102.4272 
L 267.344158 102.34464 
L 270.39303 102.25176 
L 273.346265 102.02472 
L 276.356527 102.066 
L 279.36 102.10728 
" clip-path="url(#p35a2cc9f20)" style="fill: none; stroke: #bebebe; stroke-width: 0.5; stroke-linecap: round"/>
   </g>
   <g id="line2d_6">
    <path d="M 8.64 85.32696 
L 11.612174 85.17216 
L 14.667035 85.31664 
L 17.707517 84.11952 
L 20.721888 85.66752 
L 23.72174 85.26504 
L 26.734857 86.26608 
L 29.775792 85.77072 
L 32.707092 85.38888 
L 35.776228 85.3992 
L 38.783252 84.09888 
L 41.725067 84.22272 
L 44.786125 84.34656 
L 47.794995 85.06896 
L 50.752999 85.7604 
L 53.772069 85.0896 
L 56.840752 85.01736 
L 59.872565 84.9348 
L 62.838855 85.296 
L 65.861234 85.35792 
L 68.86596 86.1732 
L 71.88886 85.92552 
L 74.858528 86.55504 
L 77.911509 87.13296 
L 80.948788 88.10304 
L 83.935306 87.9276 
L 86.954133 88.26816 
L 89.979331 87.78312 
L 92.964352 87.95856 
L 95.931094 88.94928 
L 98.986791 88.14432 
L 102.034445 88.33008 
L 104.996941 88.52616 
L 108.035891 88.86672 
L 111.034351 90.22896 
L 114.044648 89.82648 
L 117.009336 89.87808 
L 120.07882 89.46528 
L 123.131383 90.0432 
L 126.109859 89.96064 
L 129.151768 91.99368 
L 132.149532 93.05664 
L 135.108058 93.74808 
L 138.069892 97.02984 
L 141.142613 95.93592 
L 144.163982 95.07936 
L 147.114639 94.46016 
L 150.153903 95.47152 
L 153.179623 95.11032 
L 156.199495 94.82136 
L 159.18556 94.8936 
L 162.215458 94.70784 
L 165.323518 94.04736 
L 168.348751 93.40752 
L 171.261007 92.9844 
L 174.254662 93.93384 
L 177.333581 94.4292 
L 180.221362 94.19184 
L 183.292029 93.87192 
L 186.388147 93.81 
L 189.216393 94.03704 
L 192.23522 94.83168 
L 195.242488 95.48184 
L 198.26598 96.63768 
L 201.237179 96.14232 
L 204.302589 96.30744 
L 207.332418 96.29712 
L 210.282171 96.04944 
L 213.334246 95.9256 
L 216.289639 95.39928 
L 219.264981 94.31568 
L 222.260099 93.57264 
L 225.312209 93.32496 
L 228.349419 93.22176 
L 231.312367 93.35592 
L 234.238689 93.61392 
L 237.33794 93.77904 
L 240.339219 93.26304 
L 243.258474 92.92248 
L 246.311524 92.71608 
L 249.326173 93.15984 
L 252.264681 93.17016 
L 255.273515 91.80792 
L 258.289104 91.14744 
L 261.297661 92.13816 
L 264.290863 92.25168 
L 267.344158 91.9008 
L 270.39303 91.81824 
L 273.346265 91.00296 
L 276.356527 90.98232 
L 279.36 91.10616 
" clip-path="url(#p35a2cc9f20)" style="fill: none; stroke: #4a8dff; stroke-width: 0.6"/>
   </g>
   <g id="line2d_7">
    <path d="M 8.64 96.16296 
L 11.612174 96.1836 
L 14.667035 96.50352 
L 17.707517 94.76976 
L 20.721888 97.19496 
L 23.72174 96.9576 
L 26.734857 97.9896 
L 29.775792 96.89568 
L 32.707092 95.45088 
L 35.776228 95.67792 
L 38.783252 93.43848 
L 41.725067 92.90184 
L 44.786125 92.25168 
L 47.794995 92.87088 
L 50.752999 94.2744 
L 53.772069 93.1392 
L 56.840752 92.97408 
L 59.872565 92.9844 
L 62.838855 92.60256 
L 65.861234 92.53032 
L 68.86596 94.54272 
L 71.88886 92.85024 
L 74.858528 94.82136 
L 77.911509 95.75016 
L 80.948788 96.97824 
L 83.935306 97.08144 
L 86.954133 97.23624 
L 89.979331 95.94624 
L 92.964352 96.30744 
L 95.931094 98.08248 
L 98.986791 97.2672 
L 102.034445 96.61704 
L 104.996941 97.23624 
L 108.035891 98.08248 
L 111.034351 99.18672 
L 114.044648 99.03192 
L 117.009336 99.1248 
L 120.07882 98.74296 
L 123.131383 99.09384 
L 126.109859 100.0536 
L 129.151768 101.23008 
L 132.149532 101.99376 
L 135.108058 102.08664 
L 138.069892 102.8916 
L 141.142613 102.45816 
L 144.163982 102.28272 
L 147.114639 102.10728 
L 150.153903 102.582 
L 153.179623 102.29304 
L 156.199495 102.08664 
L 159.18556 102.066 
L 162.215458 101.86992 
L 165.323518 101.48808 
L 168.348751 101.40552 
L 171.261007 101.4984 
L 174.254662 101.97312 
L 177.333581 102.26208 
L 180.221362 102.066 
L 183.292029 101.90088 
L 186.388147 101.90088 
L 189.216393 102.0144 
L 192.23522 102.25176 
L 195.242488 102.6336 
L 198.26598 102.88128 
L 201.237179 102.77808 
L 204.302589 102.85032 
L 207.332418 102.93288 
L 210.282171 102.95352 
L 213.334246 103.00512 
L 216.289639 102.69552 
L 219.264981 102.55104 
L 222.260099 102.2724 
L 225.312209 102.21048 
L 228.349419 102.12792 
L 231.312367 102.13824 
L 234.238689 102.25176 
L 237.33794 102.36528 
L 240.339219 101.94216 
L 243.258474 101.92152 
L 246.311524 101.9112 
L 249.326173 102.2208 
L 252.264681 102.31368 
L 255.273515 101.79768 
L 258.289104 101.81832 
L 261.297661 102.07632 
L 264.290863 101.97312 
L 267.344158 101.79768 
L 270.39303 101.78736 
L 273.346265 101.57064 
L 276.356527 101.40552 
L 279.36 101.55 
" clip-path="url(#p35a2cc9f20)" style="fill: none; stroke: #f5841e; stroke-width: 0.6"/>
   </g>
  </g>
 </g>
 <defs>
  <clipPath id="p35a2cc9f20">
   <rect x="8.64" y="4.8" width="270.72" height="103.2"/>
  </clipPath>
 </defs>
</svg>
