<?xml version="1.0" encoding="utf-8" standalone="no"?>
<!DOCTYPE svg PUBLIC "-//W3C//DTD SVG 1.1//EN"
  "http://www.w3.org/Graphics/SVG/1.1/DTD/svg11.dtd">
<svg xmlns:xlink="http://www.w3.org/1999/xlink" width="288pt" height="120pt" viewBox="0 0 288 120" xmlns="http://www.w3.org/2000/svg" version="1.1">
<desc id="nav-meta">{"window":"3m","count":4,"labels":["20.04","20.05","18.06","18.07"],"tick_utc":["2026-04-20T04:02:26Z","2026-05-20T04:51:15Z","2026-06-18T05:23:06Z","2026-07-18T03:44:33Z"],"w":720,"h":300}</desc>

 <metadata>
  <rdf:RDF xmlns:dc="http://purl.org/dc/elements/1.1/" xmlns:cc="http://creativecommons.org/ns#" xmlns:rdf="http://www.w3.org/1999/02/22-rdf-syntax-ns#">
   <cc:Work>
    <dc:type rdf:resource="http://purl.org/dc/dcmitype/StillImage"/>
    <dc:date>2026-07-18T08:26:34.837785</dc:date>
    <dc:format>image/svg+xml</dc:format>
    <dc:creator>
     <cc:Agent>
      <dc:title>Matplotlib v3.11.1, https://matplotlib.org/</dc:title>
     </cc:Agent>
    </dc:creator>
   </cc:Work>
  </rdf:RDF>
 </metadata>
 <defs>
  <style type="text/css">*{stroke-linejoin: round; stroke-linecap: butt}</style>
 </defs>
 <g id="figure_1">
  <g id="patch_1">
   <path d="M 0 120 
L 288 120 
L 288 0 
L 0 0 
L 0 120 
z
" style="fill: none; opacity: 0"/>
  </g>
  <g id="axes_1">
   <g id="patch_2">
    <path d="M 8.64 108 
L 279.36 108 
L 279.36 4.8 
L 8.64 4.8 
L 8.64 108 
z
" style="fill: none"/>
   </g>
   <g id="matplotlib.axis_1"/>
   <g id="matplotlib.axis_2"/>
   <g id="line2d_1">
    <path d="M 8.64 87.36 
L 279.36 87.36 
" clip-path="url(#p3ab0676329)" style="fill: none; stroke: #b2b2b2; stroke-opacity: 0.35; stroke-width: 0.5; stroke-linecap: square"/>
   </g>
   <g id="line2d_2">
    <path d="M 8.64 66.72 
L 279.36 66.72 
" clip-path="url(#p3ab0676329)" style="fill: none; stroke: #b2b2b2; stroke-opacity: 0.35; stroke-width: 0.5; stroke-linecap: square"/>
   </g>
   <g id="line2d_3">
    <path d="M 8.64 46.08 
L 279.36 46.08 
" clip-path="url(#p3ab0676329)" style="fill: none; stroke: #b2b2b2; stroke-opacity: 0.35; stroke-width: 0.5; stroke-linecap: square"/>
   </g>
   <g id="line2d_4">
    <path d="M 8.64 25.44 
L 279.36 25.44 
" clip-path="url(#p3ab0676329)" style="fill: none; stroke: #b2b2b2; stroke-opacity: 0.35; stroke-width: 0.5; stroke-linecap: square"/>
   </g>
   <g id="line2d_5">
    <path d="M 8.64 101.09592 
L 11.668877 101.00304 
L 14.701663 100.69344 
L 17.756209 100.9308 
L 20.806495 100.92048 
L 23.812415 100.81728 
L 26.90196 100.8792 
L 29.976964 100.64184 
L 33.025559 101.1888 
L 36.059472 101.09592 
L 39.1068 101.37456 
L 42.182261 101.21976 
L 45.146843 101.20944 
L 48.250825 101.23008 
L 51.291991 100.92048 
L 54.267207 101.06496 
L 57.36302 100.70376 
L 60.406053 100.55928 
L 63.397642 100.53864 
L 66.45099 99.60984 
L 69.554515 99.72336 
L 72.620751 99.44472 
L 75.62072 99.25896 
L 78.677414 99.32088 
L 81.716256 100.22904 
L 84.773478 100.01232 
L 87.776863 100.43544 
L 90.864507 100.75536 
L 93.936271 101.02368 
L 96.956698 101.02368 
L 100.009801 101.17848 
L 103.069347 100.7244 
L 106.088259 100.75536 
L 109.088686 101.11656 
L 112.179077 100.91016 
L 115.261334 100.89984 
L 118.257465 101.1372 
L 121.33092 101.2404 
L 124.363424 101.6532 
L 127.407899 101.4984 
L 130.406249 101.48808 
L 133.510583 101.32296 
L 136.597805 101.51904 
L 139.610098 101.7048 
L 142.686545 102.54072 
L 145.718345 103.08768 
L 148.710462 103.36632 
L 151.705924 104.22288 
L 154.813533 103.85136 
L 157.869206 103.68624 
L 160.853366 103.43856 
L 163.927137 103.81008 
L 166.987211 103.72752 
L 170.04137 103.50048 
L 173.061339 103.5108 
L 176.125638 103.31472 
L 179.268986 102.95352 
L 182.328567 102.61296 
L 185.273889 102.6336 
L 188.301534 102.9948 
L 191.415411 103.28376 
L 194.335979 103.01544 
L 197.441511 102.69552 
L 200.572781 102.582 
L 203.433139 102.88128 
L 206.486242 103.15992 
L 209.527654 103.36632 
L 212.585475 103.36632 
L 215.590409 102.81936 
L 218.690623 103.0464 
L 221.754852 102.9432 
L 224.738096 102.59232 
L 227.824825 102.40656 
L 230.813773 102.02472 
L 233.822897 101.68416 
L 236.852021 101.3436 
L 239.938785 101.6532 
L 243.010479 101.6532 
L 246.007068 101.63256 
L 248.966615 101.95248 
L 252.101055 102.08664 
L 255.136411 101.9112 
L 258.08881 102.066 
L 261.176525 102.18984 
L 264.225402 102.31368 
L 267.197273 102.45816 
L 270.24027 102.08664 
L 273.290098 102.21048 
L 276.332813 102.4272 
L 279.36 102.4272 
" clip-path="url(#p3ab0676329)" style="fill: none; stroke: #bebebe; stroke-width: 0.5; stroke-linecap: round"/>
   </g>
   <g id="line2d_6">
    <path d="M 8.64 85.6572 
L 11.668877 85.27536 
L 14.701663 84.49104 
L 17.756209 84.86256 
L 20.806495 85.32696 
L 23.812415 85.17216 
L 26.90196 85.31664 
L 29.976964 84.11952 
L 33.025559 85.66752 
L 36.059472 85.26504 
L 39.1068 86.26608 
L 42.182261 85.77072 
L 45.146843 85.38888 
L 48.250825 85.3992 
L 51.291991 84.09888 
L 54.267207 84.22272 
L 57.36302 84.34656 
L 60.406053 85.06896 
L 63.397642 85.7604 
L 66.45099 85.0896 
L 69.554515 85.01736 
L 72.620751 84.9348 
L 75.62072 85.296 
L 78.677414 85.35792 
L 81.716256 86.1732 
L 84.773478 85.92552 
L 87.776863 86.55504 
L 90.864507 87.13296 
L 93.936271 88.10304 
L 96.956698 87.9276 
L 100.009801 88.26816 
L 103.069347 87.78312 
L 106.088259 87.95856 
L 109.088686 88.94928 
L 112.179077 88.14432 
L 115.261334 88.33008 
L 118.257465 88.52616 
L 121.33092 88.86672 
L 124.363424 90.22896 
L 127.407899 89.82648 
L 130.406249 89.87808 
L 133.510583 89.46528 
L 136.597805 90.0432 
L 139.610098 89.96064 
L 142.686545 91.99368 
L 145.718345 93.05664 
L 148.710462 93.74808 
L 151.705924 97.02984 
L 154.813533 95.93592 
L 157.869206 95.07936 
L 160.853366 94.46016 
L 163.927137 95.47152 
L 166.987211 95.11032 
L 170.04137 94.82136 
L 173.061339 94.8936 
L 176.125638 94.70784 
L 179.268986 94.04736 
L 182.328567 93.40752 
L 185.273889 92.9844 
L 188.301534 93.93384 
L 191.415411 94.4292 
L 194.335979 94.19184 
L 197.441511 93.87192 
L 200.572781 93.81 
L 203.433139 94.03704 
L 206.486242 94.83168 
L 209.527654 95.48184 
L 212.585475 96.63768 
L 215.590409 96.14232 
L 218.690623 96.30744 
L 221.754852 96.29712 
L 224.738096 96.04944 
L 227.824825 95.9256 
L 230.813773 95.39928 
L 233.822897 94.31568 
L 236.852021 93.57264 
L 239.938785 93.32496 
L 243.010479 93.22176 
L 246.007068 93.35592 
L 248.966615 93.61392 
L 252.101055 93.77904 
L 255.136411 93.26304 
L 258.08881 92.92248 
L 261.176525 92.71608 
L 264.225402 93.15984 
L 267.197273 93.17016 
L 270.24027 91.80792 
L 273.290098 91.14744 
L 276.332813 92.13816 
L 279.36 92.25168 
" clip-path="url(#p3ab0676329)" style="fill: none; stroke: #4a8dff; stroke-width: 0.6"/>
   </g>
   <g id="line2d_7">
    <path d="M 8.64 98.48496 
L 11.668877 97.96896 
L 14.701663 96.32808 
L 17.756209 96.20424 
L 20.806495 96.16296 
L 23.812415 96.1836 
L 26.90196 96.50352 
L 29.976964 94.76976 
L 33.025559 97.19496 
L 36.059472 96.9576 
L 39.1068 97.9896 
L 42.182261 96.89568 
L 45.146843 95.45088 
L 48.250825 95.67792 
L 51.291991 93.43848 
L 54.267207 92.90184 
L 57.36302 92.25168 
L 60.406053 92.87088 
L 63.397642 94.2744 
L 66.45099 93.1392 
L 69.554515 92.97408 
L 72.620751 92.9844 
L 75.62072 92.60256 
L 78.677414 92.53032 
L 81.716256 94.54272 
L 84.773478 92.85024 
L 87.776863 94.82136 
L 90.864507 95.75016 
L 93.936271 96.97824 
L 96.956698 97.08144 
L 100.009801 97.23624 
L 103.069347 95.94624 
L 106.088259 96.30744 
L 109.088686 98.08248 
L 112.179077 97.2672 
L 115.261334 96.61704 
L 118.257465 97.23624 
L 121.33092 98.08248 
L 124.363424 99.18672 
L 127.407899 99.03192 
L 130.406249 99.1248 
L 133.510583 98.74296 
L 136.597805 99.09384 
L 139.610098 100.0536 
L 142.686545 101.23008 
L 145.718345 101.99376 
L 148.710462 102.08664 
L 151.705924 102.8916 
L 154.813533 102.45816 
L 157.869206 102.28272 
L 160.853366 102.10728 
L 163.927137 102.582 
L 166.987211 102.29304 
L 170.04137 102.08664 
L 173.061339 102.066 
L 176.125638 101.86992 
L 179.268986 101.48808 
L 182.328567 101.40552 
L 185.273889 101.4984 
L 188.301534 101.97312 
L 191.415411 102.26208 
L 194.335979 102.066 
L 197.441511 101.90088 
L 200.572781 101.90088 
L 203.433139 102.0144 
L 206.486242 102.25176 
L 209.527654 102.6336 
L 212.585475 102.88128 
L 215.590409 102.77808 
L 218.690623 102.85032 
L 221.754852 102.93288 
L 224.738096 102.95352 
L 227.824825 103.00512 
L 230.813773 102.69552 
L 233.822897 102.55104 
L 236.852021 102.2724 
L 239.938785 102.21048 
L 243.010479 102.12792 
L 246.007068 102.13824 
L 248.966615 102.25176 
L 252.101055 102.36528 
L 255.136411 101.94216 
L 258.08881 101.92152 
L 261.176525 101.9112 
L 264.225402 102.2208 
L 267.197273 102.31368 
L 270.24027 101.79768 
L 273.290098 101.81832 
L 276.332813 102.07632 
L 279.36 101.97312 
" clip-path="url(#p3ab0676329)" style="fill: none; stroke: #f5841e; stroke-width: 0.6"/>
   </g>
  </g>
 </g>
 <defs>
  <clipPath id="p3ab0676329">
   <rect x="8.64" y="4.8" width="270.72" height="103.2"/>
  </clipPath>
 </defs>
</svg>
