<?xml version="1.0" encoding="utf-8" standalone="no"?>
<!DOCTYPE svg PUBLIC "-//W3C//DTD SVG 1.1//EN"
  "http://www.w3.org/Graphics/SVG/1.1/DTD/svg11.dtd">
<svg xmlns:xlink="http://www.w3.org/1999/xlink" width="288pt" height="120pt" viewBox="0 0 288 120" xmlns="http://www.w3.org/2000/svg" version="1.1">
<desc id="nav-meta">{"window":"1m","count":4,"labels":["11.06","21.06","30.06","10.07"],"tick_utc":["2026-06-11T05:14:13Z","2026-06-21T05:29:24Z","2026-06-30T04:49:55Z","2026-07-10T04:38:36Z"],"w":720,"h":300}</desc>

 <metadata>
  <rdf:RDF xmlns:dc="http://purl.org/dc/elements/1.1/" xmlns:cc="http://creativecommons.org/ns#" xmlns:rdf="http://www.w3.org/1999/02/22-rdf-syntax-ns#">
   <cc:Work>
    <dc:type rdf:resource="http://purl.org/dc/dcmitype/StillImage"/>
    <dc:date>2026-07-10T20:04:56.295472</dc:date>
    <dc:format>image/svg+xml</dc:format>
    <dc:creator>
     <cc:Agent>
      <dc:title>Matplotlib v3.11.0, https://matplotlib.org/</dc:title>
     </cc:Agent>
    </dc:creator>
   </cc:Work>
  </rdf:RDF>
 </metadata>
 <defs>
  <style type="text/css">*{stroke-linejoin: round; stroke-linecap: butt}</style>
 </defs>
 <g id="figure_1">
  <g id="patch_1">
   <path d="M 0 120 
L 288 120 
L 288 0 
L 0 0 
L 0 120 
z
" style="fill: none; opacity: 0"/>
  </g>
  <g id="axes_1">
   <g id="patch_2">
    <path d="M 8.64 108 
L 279.36 108 
L 279.36 4.8 
L 8.64 4.8 
L 8.64 108 
z
" style="fill: none"/>
   </g>
   <g id="matplotlib.axis_1"/>
   <g id="matplotlib.axis_2"/>
   <g id="line2d_1">
    <path d="M 8.64 87.36 
L 279.36 87.36 
" clip-path="url(#p46b653e97d)" style="fill: none; stroke: #b2b2b2; stroke-opacity: 0.35; stroke-width: 0.5; stroke-linecap: square"/>
   </g>
   <g id="line2d_2">
    <path d="M 8.64 66.72 
L 279.36 66.72 
" clip-path="url(#p46b653e97d)" style="fill: none; stroke: #b2b2b2; stroke-opacity: 0.35; stroke-width: 0.5; stroke-linecap: square"/>
   </g>
   <g id="line2d_3">
    <path d="M 8.64 46.08 
L 279.36 46.08 
" clip-path="url(#p46b653e97d)" style="fill: none; stroke: #b2b2b2; stroke-opacity: 0.35; stroke-width: 0.5; stroke-linecap: square"/>
   </g>
   <g id="line2d_4">
    <path d="M 8.64 25.44 
L 279.36 25.44 
" clip-path="url(#p46b653e97d)" style="fill: none; stroke: #b2b2b2; stroke-opacity: 0.35; stroke-width: 0.5; stroke-linecap: square"/>
   </g>
   <g id="line2d_5">
    <path d="M 8.64 103.72752 
L 18.0198 103.50048 
L 27.294598 103.5108 
L 36.705541 103.31472 
L 46.359255 102.95352 
L 55.755709 102.61296 
L 64.801253 102.6336 
L 74.099625 102.9948 
L 83.662828 103.28376 
L 92.632351 103.01544 
L 102.169925 102.69552 
L 111.786547 102.582 
L 120.571155 102.88128 
L 129.94771 103.15992 
L 139.288364 103.36632 
L 148.679411 103.36632 
L 157.908033 102.81936 
L 167.429278 103.0464 
L 176.840005 102.9432 
L 186.002015 102.59232 
L 195.481843 102.40656 
L 204.661371 102.02472 
L 213.902862 101.68416 
L 223.205776 101.3436 
L 232.685712 101.6532 
L 242.119364 101.6532 
L 251.322358 101.63256 
L 260.411591 101.95248 
L 270.037946 102.08664 
L 279.36 101.9112 
" clip-path="url(#p46b653e97d)" style="fill: none; stroke: #bebebe; stroke-width: 0.5; stroke-linecap: round"/>
   </g>
   <g id="line2d_6">
    <path d="M 8.64 95.11032 
L 18.0198 94.82136 
L 27.294598 94.8936 
L 36.705541 94.70784 
L 46.359255 94.04736 
L 55.755709 93.40752 
L 64.801253 92.9844 
L 74.099625 93.93384 
L 83.662828 94.4292 
L 92.632351 94.19184 
L 102.169925 93.87192 
L 111.786547 93.81 
L 120.571155 94.03704 
L 129.94771 94.83168 
L 139.288364 95.48184 
L 148.679411 96.63768 
L 157.908033 96.14232 
L 167.429278 96.30744 
L 176.840005 96.29712 
L 186.002015 96.04944 
L 195.481843 95.9256 
L 204.661371 95.39928 
L 213.902862 94.31568 
L 223.205776 93.57264 
L 232.685712 93.32496 
L 242.119364 93.22176 
L 251.322358 93.35592 
L 260.411591 93.61392 
L 270.037946 93.77904 
L 279.36 93.26304 
" clip-path="url(#p46b653e97d)" style="fill: none; stroke: #4a8dff; stroke-width: 0.6"/>
   </g>
   <g id="line2d_7">
    <path d="M 8.64 102.29304 
L 18.0198 102.08664 
L 27.294598 102.066 
L 36.705541 101.86992 
L 46.359255 101.48808 
L 55.755709 101.40552 
L 64.801253 101.4984 
L 74.099625 101.97312 
L 83.662828 102.26208 
L 92.632351 102.066 
L 102.169925 101.90088 
L 111.786547 101.90088 
L 120.571155 102.0144 
L 129.94771 102.25176 
L 139.288364 102.6336 
L 148.679411 102.88128 
L 157.908033 102.77808 
L 167.429278 102.85032 
L 176.840005 102.93288 
L 186.002015 102.95352 
L 195.481843 103.00512 
L 204.661371 102.69552 
L 213.902862 102.55104 
L 223.205776 102.2724 
L 232.685712 102.21048 
L 242.119364 102.12792 
L 251.322358 102.13824 
L 260.411591 102.25176 
L 270.037946 102.36528 
L 279.36 101.94216 
" clip-path="url(#p46b653e97d)" style="fill: none; stroke: #f5841e; stroke-width: 0.6"/>
   </g>
  </g>
 </g>
 <defs>
  <clipPath id="p46b653e97d">
   <rect x="8.64" y="4.8" width="270.72" height="103.2"/>
  </clipPath>
 </defs>
</svg>
