<?xml version="1.0" encoding="utf-8" standalone="no"?>
<!DOCTYPE svg PUBLIC "-//W3C//DTD SVG 1.1//EN"
  "http://www.w3.org/Graphics/SVG/1.1/DTD/svg11.dtd">
<svg xmlns:xlink="http://www.w3.org/1999/xlink" width="288pt" height="120pt" viewBox="0 0 288 120" xmlns="http://www.w3.org/2000/svg" version="1.1">
<desc id="nav-meta">{"window":"6m","count":4,"labels":["25.01","26.03","25.05","24.07"],"tick_utc":["2026-01-25T12:00:00Z","2026-03-26T03:39:29Z","2026-05-25T05:10:23Z","2026-07-24T03:57:40Z"],"w":720,"h":300}</desc>

 <metadata>
  <rdf:RDF xmlns:dc="http://purl.org/dc/elements/1.1/" xmlns:cc="http://creativecommons.org/ns#" xmlns:rdf="http://www.w3.org/1999/02/22-rdf-syntax-ns#">
   <cc:Work>
    <dc:type rdf:resource="http://purl.org/dc/dcmitype/StillImage"/>
    <dc:date>2026-07-24T03:57:42.585212</dc:date>
    <dc:format>image/svg+xml</dc:format>
    <dc:creator>
     <cc:Agent>
      <dc:title>Matplotlib v3.11.1, https://matplotlib.org/</dc:title>
     </cc:Agent>
    </dc:creator>
   </cc:Work>
  </rdf:RDF>
 </metadata>
 <defs>
  <style type="text/css">*{stroke-linejoin: round; stroke-linecap: butt}</style>
 </defs>
 <g id="figure_1">
  <g id="patch_1">
   <path d="M 0 120 
L 288 120 
L 288 0 
L 0 0 
L 0 120 
z
" style="fill: none; opacity: 0"/>
  </g>
  <g id="axes_1">
   <g id="patch_2">
    <path d="M 8.64 108 
L 279.36 108 
L 279.36 4.8 
L 8.64 4.8 
L 8.64 108 
z
" style="fill: none"/>
   </g>
   <g id="matplotlib.axis_1"/>
   <g id="matplotlib.axis_2"/>
   <g id="line2d_1">
    <path d="M 8.64 87.36 
L 279.36 87.36 
" clip-path="url(#p08b3345ab5)" style="fill: none; stroke: #b2b2b2; stroke-opacity: 0.35; stroke-width: 0.5; stroke-linecap: square"/>
   </g>
   <g id="line2d_2">
    <path d="M 8.64 66.72 
L 279.36 66.72 
" clip-path="url(#p08b3345ab5)" style="fill: none; stroke: #b2b2b2; stroke-opacity: 0.35; stroke-width: 0.5; stroke-linecap: square"/>
   </g>
   <g id="line2d_3">
    <path d="M 8.64 46.08 
L 279.36 46.08 
" clip-path="url(#p08b3345ab5)" style="fill: none; stroke: #b2b2b2; stroke-opacity: 0.35; stroke-width: 0.5; stroke-linecap: square"/>
   </g>
   <g id="line2d_4">
    <path d="M 8.64 25.44 
L 279.36 25.44 
" clip-path="url(#p08b3345ab5)" style="fill: none; stroke: #b2b2b2; stroke-opacity: 0.35; stroke-width: 0.5; stroke-linecap: square"/>
   </g>
   <g id="line2d_5">
    <path d="M 8.64 91.78728 
L 10.146804 94.0164 
L 11.653608 92.5716 
L 13.160412 91.76664 
L 14.667216 92.33424 
L 16.17402 94.36728 
L 17.680824 94.46016 
L 19.187628 97.71096 
L 20.694432 98.48496 
L 22.201235 97.85544 
L 24.670755 100.16712 
L 26.176791 102.23112 
L 27.677142 100.54896 
L 29.21839 100.70376 
L 30.712759 100.68312 
L 33.731843 101.28168 
L 35.233224 101.71512 
L 36.739574 101.84928 
L 38.228258 101.034 
L 39.655554 100.54896 
L 41.259009 101.04432 
L 42.576538 100.81728 
L 44.270228 101.034 
L 45.775201 101.4984 
L 50.29481 101.06496 
L 51.806148 102.09696 
L 53.185659 102.05568 
L 54.814333 101.4984 
L 56.314422 100.60056 
L 57.818366 100.80696 
L 59.307416 101.45712 
L 60.848455 100.55928 
L 62.339702 101.10624 
L 65.348375 100.74504 
L 66.858422 100.21872 
L 68.364511 100.53864 
L 69.859752 101.07528 
L 71.381188 101.38488 
L 72.892509 101.26104 
L 74.389634 100.78632 
L 77.408579 100.99272 
L 78.91247 100.38384 
L 81.952901 100.60056 
L 83.46396 99.76464 
L 84.944395 99.49632 
L 86.462691 99.40344 
L 87.969914 100.09488 
L 89.462051 100.3632 
L 90.96003 100.19808 
L 93.999711 100.79664 
L 95.492563 100.26 
L 97.111592 99.83688 
L 98.5245 100.13616 
L 101.525604 101.38488 
L 107.581072 101.28168 
L 109.068029 101.8596 
L 110.57656 101.88024 
L 112.070458 101.72544 
L 113.599951 101.68416 
L 115.110644 101.47776 
L 116.607665 101.78736 
L 118.11691 101.09592 
L 119.618465 101.46744 
L 121.139133 101.3436 
L 122.622899 101.05464 
L 124.156735 101.3952 
L 125.671265 101.47776 
L 127.168477 100.86888 
L 128.67413 101.26104 
L 130.187456 100.99272 
L 131.691191 100.61088 
L 133.181374 100.44576 
L 134.708077 100.94112 
L 136.218613 101.09592 
L 137.718808 101.00304 
L 139.220938 100.69344 
L 140.733845 100.9308 
L 145.26371 100.8792 
L 146.78675 100.64184 
L 148.296711 101.1888 
L 149.799399 101.09592 
L 151.308732 101.37456 
L 152.831999 101.21976 
L 155.837741 101.23008 
L 157.344022 100.92048 
L 158.817638 101.06496 
L 160.350985 100.70376 
L 161.85819 100.55928 
L 163.339916 100.53864 
L 164.852231 99.60984 
L 166.389397 99.72336 
L 169.393972 99.25896 
L 170.907943 99.32088 
L 172.413073 100.22904 
L 173.927306 100.01232 
L 176.944175 100.75536 
L 178.465611 101.02368 
L 179.96162 101.02368 
L 181.473813 101.17848 
L 182.989197 100.7244 
L 184.484456 100.75536 
L 185.970559 101.11656 
L 187.501221 100.91016 
L 189.027854 100.89984 
L 190.511829 101.1372 
L 192.034102 101.2404 
L 193.536092 101.6532 
L 195.044012 101.4984 
L 196.529086 101.48808 
L 198.066654 101.32296 
L 201.087726 101.7048 
L 202.611482 102.54072 
L 204.113124 103.08768 
L 205.595111 103.36632 
L 207.078754 104.22288 
L 208.617944 103.85136 
L 211.609456 103.43856 
L 213.131886 103.81008 
L 214.647532 103.72752 
L 216.160248 103.50048 
L 217.65603 103.5108 
L 219.173769 103.31472 
L 222.246062 102.61296 
L 223.704871 102.6336 
L 226.746749 103.28376 
L 229.731459 102.69552 
L 231.282368 102.582 
L 234.211288 103.15992 
L 235.717691 103.36632 
L 237.232221 103.36632 
L 238.720556 102.81936 
L 240.256083 103.0464 
L 241.773787 102.9432 
L 243.251379 102.59232 
L 244.780227 102.40656 
L 249.251372 101.3436 
L 250.780237 101.6532 
L 253.78584 101.63256 
L 255.251695 101.95248 
L 256.804174 102.08664 
L 258.307577 101.9112 
L 264.281287 102.45816 
L 265.788475 102.08664 
L 270.305451 102.4272 
L 273.362153 102.25176 
L 274.841489 102.02472 
L 277.853894 102.10728 
L 279.36 102.34464 
L 279.36 102.34464 
" clip-path="url(#p08b3345ab5)" style="fill: none; stroke: #bebebe; stroke-width: 0.5; stroke-linecap: round"/>
   </g>
   <g id="line2d_6">
    <path d="M 8.64 75.82224 
L 10.146804 77.82432 
L 11.653608 76.14216 
L 13.160412 74.75928 
L 14.667216 74.96568 
L 16.17402 77.75208 
L 17.680824 79.48584 
L 19.187628 83.31456 
L 20.694432 85.90488 
L 22.201235 84.79032 
L 23.473316 85.84296 
L 26.176791 91.41576 
L 27.677142 88.7532 
L 30.712759 88.55712 
L 32.228161 88.96992 
L 35.233224 90.456 
L 36.739574 90.56952 
L 38.228258 89.15568 
L 39.655554 88.9596 
L 41.259009 90.6624 
L 42.576538 89.94 
L 44.270228 90.00192 
L 47.273197 90.62112 
L 50.29481 90.3528 
L 51.806148 92.004 
L 53.185659 92.13816 
L 54.814333 91.25064 
L 56.314422 89.166 
L 57.818366 89.56848 
L 59.307416 90.93072 
L 60.848455 89.41368 
L 62.339702 90.37344 
L 63.850011 89.79552 
L 65.348375 90.23928 
L 66.858422 88.0824 
L 68.364511 88.7532 
L 69.859752 90.16704 
L 71.381188 90.67272 
L 72.892509 90.18768 
L 74.389634 89.2692 
L 75.895845 89.54784 
L 77.408579 89.49624 
L 78.91247 88.31976 
L 80.417268 88.45392 
L 81.952901 88.46424 
L 83.46396 86.38992 
L 84.944395 84.80064 
L 86.462691 84.8316 
L 87.969914 86.586 
L 89.462051 87.74184 
L 90.96003 87.618 
L 92.489367 88.19592 
L 93.999711 89.08344 
L 95.492563 87.89664 
L 97.111592 87.3084 
L 98.5245 87.65928 
L 100.033205 88.96992 
L 101.525604 90.07416 
L 104.564046 89.3724 
L 106.061345 89.00088 
L 107.581072 88.42296 
L 110.57656 89.10408 
L 112.070458 89.14536 
L 113.599951 89.07312 
L 115.110644 87.9792 
L 116.607665 88.29912 
L 118.11691 86.38992 
L 119.618465 87.24648 
L 121.139133 87.1536 
L 122.622899 86.21448 
L 125.671265 87.01944 
L 127.168477 84.44976 
L 128.67413 85.05864 
L 130.187456 84.58392 
L 131.691191 85.04832 
L 133.181374 83.71704 
L 134.708077 84.86256 
L 136.218613 85.6572 
L 137.718808 85.27536 
L 139.220938 84.49104 
L 142.244643 85.32696 
L 143.733467 85.17216 
L 145.26371 85.31664 
L 146.78675 84.11952 
L 148.296711 85.66752 
L 149.799399 85.26504 
L 151.308732 86.26608 
L 154.300348 85.38888 
L 155.837741 85.3992 
L 157.344022 84.09888 
L 160.350985 84.34656 
L 163.339916 85.7604 
L 164.852231 85.0896 
L 167.908095 84.9348 
L 169.393972 85.296 
L 170.907943 85.35792 
L 172.413073 86.1732 
L 173.927306 85.92552 
L 176.944175 87.13296 
L 178.465611 88.10304 
L 179.96162 87.9276 
L 181.473813 88.26816 
L 182.989197 87.78312 
L 184.484456 87.95856 
L 185.970559 88.94928 
L 187.501221 88.14432 
L 190.511829 88.52616 
L 192.034102 88.86672 
L 193.536092 90.22896 
L 195.044012 89.82648 
L 196.529086 89.87808 
L 198.066654 89.46528 
L 199.595746 90.0432 
L 201.087726 89.96064 
L 202.611482 91.99368 
L 204.113124 93.05664 
L 205.595111 93.74808 
L 207.078754 97.02984 
L 208.617944 95.93592 
L 210.13141 95.07936 
L 211.609456 94.46016 
L 213.131886 95.47152 
L 216.160248 94.82136 
L 217.65603 94.8936 
L 219.173769 94.70784 
L 222.246062 93.40752 
L 223.704871 92.9844 
L 225.204455 93.93384 
L 226.746749 94.4292 
L 229.731459 93.87192 
L 231.282368 93.81 
L 232.699095 94.03704 
L 234.211288 94.83168 
L 235.717691 95.48184 
L 237.232221 96.63768 
L 238.720556 96.14232 
L 240.256083 96.30744 
L 241.773787 96.29712 
L 243.251379 96.04944 
L 244.780227 95.9256 
L 246.260645 95.39928 
L 247.751055 94.31568 
L 249.251372 93.57264 
L 250.780237 93.32496 
L 252.301638 93.22176 
L 253.78584 93.35592 
L 256.804174 93.77904 
L 258.307577 93.26304 
L 259.769892 92.92248 
L 261.299228 92.71608 
L 262.809328 93.15984 
L 264.281287 93.17016 
L 265.788475 91.80792 
L 267.299046 91.14744 
L 268.806094 92.13816 
L 270.305451 92.25168 
L 271.834909 91.9008 
L 273.362153 91.81824 
L 274.841489 91.00296 
L 276.349392 90.98232 
L 277.853894 91.10616 
L 279.36 91.6944 
L 279.36 91.6944 
" clip-path="url(#p08b3345ab5)" style="fill: none; stroke: #4a8dff; stroke-width: 0.6"/>
   </g>
   <g id="line2d_7">
    <path d="M 8.64 84.3156 
L 10.146804 87.02976 
L 11.653608 85.21344 
L 13.160412 84.28464 
L 14.667216 84.32592 
L 16.17402 89.08344 
L 17.680824 89.5272 
L 19.187628 95.14128 
L 20.694432 96.98856 
L 22.201235 95.08968 
L 23.473316 97.71096 
L 24.670755 99.80592 
L 26.176791 101.79768 
L 27.677142 100.03296 
L 29.21839 100.518 
L 30.712759 99.98136 
L 32.228161 100.49736 
L 36.739574 101.26104 
L 38.228258 100.63152 
L 39.655554 100.38384 
L 41.259009 100.84824 
L 42.576538 100.65216 
L 44.270228 101.034 
L 45.775201 101.19912 
L 50.29481 100.91016 
L 51.806148 101.7564 
L 53.185659 101.84928 
L 54.814333 101.56032 
L 56.314422 100.85856 
L 59.307416 101.4468 
L 60.848455 101.02368 
L 62.339702 101.30232 
L 63.850011 100.81728 
L 65.348375 100.79664 
L 66.858422 99.3312 
L 68.364511 99.92976 
L 69.859752 100.78632 
L 71.381188 101.17848 
L 72.892509 101.1372 
L 74.389634 100.21872 
L 77.408579 100.4664 
L 78.91247 99.88848 
L 80.417268 99.94008 
L 81.952901 99.81624 
L 83.46396 98.93904 
L 84.944395 98.3508 
L 86.462691 98.52624 
L 87.969914 99.78528 
L 89.462051 100.12584 
L 90.96003 100.03296 
L 93.999711 100.83792 
L 95.492563 100.11552 
L 97.111592 99.87816 
L 98.5245 100.002 
L 100.033205 100.64184 
L 101.525604 101.41584 
L 103.052934 101.21976 
L 106.061345 101.00304 
L 107.581072 100.86888 
L 109.068029 101.21976 
L 110.57656 101.28168 
L 113.599951 101.14752 
L 115.110644 100.55928 
L 116.607665 100.65216 
L 118.11691 99.80592 
L 119.618465 99.96072 
L 121.139133 99.6408 
L 122.622899 99.1764 
L 124.156735 99.70272 
L 125.671265 99.94008 
L 127.168477 98.57784 
L 128.67413 98.65008 
L 130.187456 98.38176 
L 131.691191 98.48496 
L 133.181374 96.70992 
L 134.708077 98.05152 
L 136.218613 98.48496 
L 137.718808 97.96896 
L 139.220938 96.32808 
L 142.244643 96.16296 
L 143.733467 96.1836 
L 145.26371 96.50352 
L 146.78675 94.76976 
L 148.296711 97.19496 
L 149.799399 96.9576 
L 151.308732 97.9896 
L 152.831999 96.89568 
L 154.300348 95.45088 
L 155.837741 95.67792 
L 157.344022 93.43848 
L 160.350985 92.25168 
L 161.85819 92.87088 
L 163.339916 94.2744 
L 164.852231 93.1392 
L 166.389397 92.97408 
L 167.908095 92.9844 
L 169.393972 92.60256 
L 170.907943 92.53032 
L 172.413073 94.54272 
L 173.927306 92.85024 
L 175.414874 94.82136 
L 176.944175 95.75016 
L 178.465611 96.97824 
L 181.473813 97.23624 
L 182.989197 95.94624 
L 184.484456 96.30744 
L 185.970559 98.08248 
L 187.501221 97.2672 
L 189.027854 96.61704 
L 190.511829 97.23624 
L 192.034102 98.08248 
L 193.536092 99.18672 
L 195.044012 99.03192 
L 196.529086 99.1248 
L 198.066654 98.74296 
L 199.595746 99.09384 
L 201.087726 100.0536 
L 202.611482 101.23008 
L 204.113124 101.99376 
L 205.595111 102.08664 
L 207.078754 102.8916 
L 208.617944 102.45816 
L 211.609456 102.10728 
L 213.131886 102.582 
L 216.160248 102.08664 
L 217.65603 102.066 
L 219.173769 101.86992 
L 220.73066 101.48808 
L 222.246062 101.40552 
L 223.704871 101.4984 
L 225.204455 101.97312 
L 226.746749 102.26208 
L 229.731459 101.90088 
L 231.282368 101.90088 
L 232.699095 102.0144 
L 234.211288 102.25176 
L 235.717691 102.6336 
L 237.232221 102.88128 
L 238.720556 102.77808 
L 244.780227 103.00512 
L 246.260645 102.69552 
L 247.751055 102.55104 
L 249.251372 102.2724 
L 253.78584 102.13824 
L 256.804174 102.36528 
L 258.307577 101.94216 
L 261.299228 101.9112 
L 262.809328 102.2208 
L 264.281287 102.31368 
L 265.788475 101.79768 
L 267.299046 101.81832 
L 268.806094 102.07632 
L 274.841489 101.57064 
L 276.349392 101.40552 
L 279.36 101.6016 
L 279.36 101.6016 
" clip-path="url(#p08b3345ab5)" style="fill: none; stroke: #f5841e; stroke-width: 0.6"/>
   </g>
  </g>
 </g>
 <defs>
  <clipPath id="p08b3345ab5">
   <rect x="8.64" y="4.8" width="270.72" height="103.2"/>
  </clipPath>
 </defs>
</svg>
