<?xml version="1.0" encoding="utf-8" standalone="no"?>
<!DOCTYPE svg PUBLIC "-//W3C//DTD SVG 1.1//EN"
  "http://www.w3.org/Graphics/SVG/1.1/DTD/svg11.dtd">
<svg xmlns:xlink="http://www.w3.org/1999/xlink" width="288pt" height="120pt" viewBox="0 0 288 120" xmlns="http://www.w3.org/2000/svg" version="1.1">
<desc id="nav-meta">{"window":"3m","count":4,"labels":["12.01","11.02","12.03","11.04"],"tick_utc":["2026-01-12T12:00:00Z","2026-02-11T03:39:24Z","2026-03-12T03:19:44Z","2026-04-11T03:29:29Z"],"w":720,"h":300}</desc>

 <metadata>
  <rdf:RDF xmlns:dc="http://purl.org/dc/elements/1.1/" xmlns:cc="http://creativecommons.org/ns#" xmlns:rdf="http://www.w3.org/1999/02/22-rdf-syntax-ns#">
   <cc:Work>
    <dc:type rdf:resource="http://purl.org/dc/dcmitype/StillImage"/>
    <dc:date>2026-04-11T13:42:04.390578</dc:date>
    <dc:format>image/svg+xml</dc:format>
    <dc:creator>
     <cc:Agent>
      <dc:title>Matplotlib v3.10.8, https://matplotlib.org/</dc:title>
     </cc:Agent>
    </dc:creator>
   </cc:Work>
  </rdf:RDF>
 </metadata>
 <defs>
  <style type="text/css">*{stroke-linejoin: round; stroke-linecap: butt}</style>
 </defs>
 <g id="figure_1">
  <g id="patch_1">
   <path d="M 0 120 
L 288 120 
L 288 0 
L 0 0 
L 0 120 
z
" style="fill: none; opacity: 0"/>
  </g>
  <g id="axes_1">
   <g id="patch_2">
    <path d="M 8.64 108 
L 279.36 108 
L 279.36 4.8 
L 8.64 4.8 
L 8.64 108 
z
" style="fill: none"/>
   </g>
   <g id="matplotlib.axis_1"/>
   <g id="matplotlib.axis_2"/>
   <g id="line2d_1">
    <path d="M 8.64 87.36 
L 279.36 87.36 
" clip-path="url(#p151089d619)" style="fill: none; stroke: #b2b2b2; stroke-opacity: 0.35; stroke-width: 0.5; stroke-linecap: square"/>
   </g>
   <g id="line2d_2">
    <path d="M 8.64 66.72 
L 279.36 66.72 
" clip-path="url(#p151089d619)" style="fill: none; stroke: #b2b2b2; stroke-opacity: 0.35; stroke-width: 0.5; stroke-linecap: square"/>
   </g>
   <g id="line2d_3">
    <path d="M 8.64 46.08 
L 279.36 46.08 
" clip-path="url(#p151089d619)" style="fill: none; stroke: #b2b2b2; stroke-opacity: 0.35; stroke-width: 0.5; stroke-linecap: square"/>
   </g>
   <g id="line2d_4">
    <path d="M 8.64 25.44 
L 279.36 25.44 
" clip-path="url(#p151089d619)" style="fill: none; stroke: #b2b2b2; stroke-opacity: 0.35; stroke-width: 0.5; stroke-linecap: square"/>
   </g>
   <g id="line2d_5">
    <path d="M 8.64 88.41264 
L 11.693963 88.4952 
L 14.747926 86.86464 
L 17.801889 86.42088 
L 20.855852 87.62832 
L 23.909815 86.93688 
L 26.963778 87.23616 
L 30.017741 88.63968 
L 33.071704 90.0432 
L 36.125667 92.12784 
L 39.17963 91.16808 
L 42.233593 91.46736 
L 45.287556 91.73568 
L 48.341519 91.78728 
L 51.395482 94.0164 
L 54.449445 92.5716 
L 57.503408 91.76664 
L 60.557371 92.33424 
L 63.611334 94.36728 
L 66.665297 94.46016 
L 69.71926 97.71096 
L 72.773223 98.48496 
L 75.827186 97.85544 
L 78.405417 99.10416 
L 80.832363 100.16712 
L 83.884771 102.23112 
L 86.925655 100.54896 
L 90.049428 100.70376 
L 93.078189 100.68312 
L 96.149578 100.95144 
L 99.197214 101.28168 
L 102.240184 101.71512 
L 105.293228 101.84928 
L 108.310466 101.034 
L 111.203283 100.54896 
L 114.453138 101.04432 
L 117.123482 100.81728 
L 120.556221 101.034 
L 123.606473 101.4984 
L 126.642586 101.33328 
L 129.677886 101.1372 
L 132.766736 101.06496 
L 135.829889 102.09696 
L 138.625856 102.05568 
L 141.926822 101.4984 
L 144.967177 100.60056 
L 148.015343 100.80696 
L 151.033323 101.45712 
L 154.156672 100.55928 
L 157.179105 101.10624 
L 160.240173 100.8792 
L 163.277028 100.74504 
L 166.337566 100.21872 
L 169.390079 100.53864 
L 172.420607 101.07528 
L 175.504226 101.38488 
L 178.567344 101.26104 
L 181.60169 100.78632 
L 184.654451 100.91016 
L 187.720432 100.99272 
L 190.768492 100.38384 
L 193.81839 100.50768 
L 196.930781 100.60056 
L 199.993369 99.76464 
L 202.993888 99.49632 
L 206.071144 99.40344 
L 209.125956 100.09488 
L 212.150192 100.3632 
L 215.186269 100.19808 
L 218.2859 100.47672 
L 221.347039 100.79664 
L 224.372724 100.26 
L 227.654144 99.83688 
L 230.5178 100.13616 
L 233.575616 100.80696 
L 236.600382 101.38488 
L 239.695949 101.3436 
L 242.758642 101.292 
L 245.793341 101.28168 
L 248.873496 101.28168 
L 251.887235 101.8596 
L 254.944697 101.88024 
L 257.972503 101.72544 
L 261.072452 101.68416 
L 264.134298 101.47776 
L 267.168431 101.78736 
L 270.227343 101.09592 
L 273.270666 101.46744 
L 276.35273 101.3436 
L 279.36 101.05464 
" clip-path="url(#p151089d619)" style="fill: none; stroke: #bebebe; stroke-width: 0.5; stroke-linecap: round"/>
   </g>
   <g id="line2d_6">
    <path d="M 8.64 73.29384 
L 11.693963 73.72728 
L 14.747926 70.32168 
L 17.801889 69.77472 
L 20.855852 70.34232 
L 23.909815 70.67256 
L 26.963778 70.51776 
L 30.017741 70.848 
L 33.071704 72.31344 
L 36.125667 76.01832 
L 39.17963 75.41976 
L 42.233593 75.83256 
L 45.287556 75.79128 
L 48.341519 75.82224 
L 51.395482 77.82432 
L 54.449445 76.14216 
L 57.503408 74.75928 
L 60.557371 74.96568 
L 63.611334 77.75208 
L 66.665297 79.48584 
L 69.71926 83.31456 
L 72.773223 85.90488 
L 75.827186 84.79032 
L 78.405417 85.84296 
L 80.832363 88.25784 
L 83.884771 91.41576 
L 86.925655 88.7532 
L 90.049428 88.65 
L 93.078189 88.55712 
L 96.149578 88.96992 
L 99.197214 89.7336 
L 102.240184 90.456 
L 105.293228 90.56952 
L 108.310466 89.15568 
L 111.203283 88.9596 
L 114.453138 90.6624 
L 117.123482 89.94 
L 120.556221 90.00192 
L 123.606473 90.3528 
L 126.642586 90.62112 
L 129.677886 90.5076 
L 132.766736 90.3528 
L 135.829889 92.004 
L 138.625856 92.13816 
L 141.926822 91.25064 
L 144.967177 89.166 
L 148.015343 89.56848 
L 151.033323 90.93072 
L 154.156672 89.41368 
L 157.179105 90.37344 
L 160.240173 89.79552 
L 163.277028 90.23928 
L 166.337566 88.0824 
L 169.390079 88.7532 
L 172.420607 90.16704 
L 175.504226 90.67272 
L 178.567344 90.18768 
L 181.60169 89.2692 
L 184.654451 89.54784 
L 187.720432 89.49624 
L 190.768492 88.31976 
L 193.81839 88.45392 
L 196.930781 88.46424 
L 199.993369 86.38992 
L 202.993888 84.80064 
L 206.071144 84.8316 
L 209.125956 86.586 
L 212.150192 87.74184 
L 215.186269 87.618 
L 218.2859 88.19592 
L 221.347039 89.08344 
L 224.372724 87.89664 
L 227.654144 87.3084 
L 230.5178 87.65928 
L 233.575616 88.96992 
L 236.600382 90.07416 
L 239.695949 89.76456 
L 242.758642 89.3724 
L 245.793341 89.00088 
L 248.873496 88.42296 
L 251.887235 88.81512 
L 254.944697 89.10408 
L 257.972503 89.14536 
L 261.072452 89.07312 
L 264.134298 87.9792 
L 267.168431 88.29912 
L 270.227343 86.38992 
L 273.270666 87.24648 
L 276.35273 87.1536 
L 279.36 86.21448 
" clip-path="url(#p151089d619)" style="fill: none; stroke: #4a8dff; stroke-width: 0.6"/>
   </g>
   <g id="line2d_7">
    <path d="M 8.64 82.6128 
L 11.693963 82.28256 
L 14.747926 78.01008 
L 17.801889 76.19376 
L 20.855852 77.66952 
L 23.909815 77.74176 
L 26.963778 78.1752 
L 30.017741 79.5684 
L 33.071704 80.8068 
L 36.125667 85.20312 
L 39.17963 84.12984 
L 42.233593 84.03696 
L 45.287556 84.06792 
L 48.341519 84.3156 
L 51.395482 87.02976 
L 54.449445 85.21344 
L 57.503408 84.28464 
L 60.557371 84.32592 
L 63.611334 89.08344 
L 66.665297 89.5272 
L 69.71926 95.14128 
L 72.773223 96.98856 
L 75.827186 95.08968 
L 78.405417 97.71096 
L 80.832363 99.80592 
L 83.884771 101.79768 
L 86.925655 100.03296 
L 90.049428 100.518 
L 93.078189 99.98136 
L 96.149578 100.49736 
L 99.197214 100.78632 
L 102.240184 101.07528 
L 105.293228 101.26104 
L 108.310466 100.63152 
L 111.203283 100.38384 
L 114.453138 100.84824 
L 117.123482 100.65216 
L 120.556221 101.034 
L 123.606473 101.19912 
L 126.642586 101.10624 
L 129.677886 100.97208 
L 132.766736 100.91016 
L 135.829889 101.7564 
L 138.625856 101.84928 
L 141.926822 101.56032 
L 144.967177 100.85856 
L 148.015343 101.12688 
L 151.033323 101.4468 
L 154.156672 101.02368 
L 157.179105 101.30232 
L 160.240173 100.81728 
L 163.277028 100.79664 
L 166.337566 99.3312 
L 169.390079 99.92976 
L 172.420607 100.78632 
L 175.504226 101.17848 
L 178.567344 101.1372 
L 181.60169 100.21872 
L 184.654451 100.37352 
L 187.720432 100.4664 
L 190.768492 99.88848 
L 193.81839 99.94008 
L 196.930781 99.81624 
L 199.993369 98.93904 
L 202.993888 98.3508 
L 206.071144 98.52624 
L 209.125956 99.78528 
L 212.150192 100.12584 
L 215.186269 100.03296 
L 218.2859 100.45608 
L 221.347039 100.83792 
L 224.372724 100.11552 
L 227.654144 99.87816 
L 230.5178 100.002 
L 233.575616 100.64184 
L 236.600382 101.41584 
L 239.695949 101.21976 
L 242.758642 101.14752 
L 245.793341 101.00304 
L 248.873496 100.86888 
L 251.887235 101.21976 
L 254.944697 101.28168 
L 257.972503 101.20944 
L 261.072452 101.14752 
L 264.134298 100.55928 
L 267.168431 100.65216 
L 270.227343 99.80592 
L 273.270666 99.96072 
L 276.35273 99.6408 
L 279.36 99.1764 
" clip-path="url(#p151089d619)" style="fill: none; stroke: #f5841e; stroke-width: 0.6"/>
   </g>
  </g>
 </g>
 <defs>
  <clipPath id="p151089d619">
   <rect x="8.64" y="4.8" width="270.72" height="103.2"/>
  </clipPath>
 </defs>
</svg>
