<?xml version="1.0" encoding="utf-8" standalone="no"?>
<!DOCTYPE svg PUBLIC "-//W3C//DTD SVG 1.1//EN"
  "http://www.w3.org/Graphics/SVG/1.1/DTD/svg11.dtd">
<svg xmlns:xlink="http://www.w3.org/1999/xlink" width="288pt" height="120pt" viewBox="0 0 288 120" xmlns="http://www.w3.org/2000/svg" version="1.1">
<desc id="nav-meta">{"window":"3m","count":4,"labels":["19.12","18.01","17.02","18.03"],"tick_utc":["2025-12-19T12:00:00Z","2026-01-18T12:00:00Z","2026-02-17T00:31:58Z","2026-03-18T03:32:26Z"],"w":720,"h":300}</desc>

 <metadata>
  <rdf:RDF xmlns:dc="http://purl.org/dc/elements/1.1/" xmlns:cc="http://creativecommons.org/ns#" xmlns:rdf="http://www.w3.org/1999/02/22-rdf-syntax-ns#">
   <cc:Work>
    <dc:type rdf:resource="http://purl.org/dc/dcmitype/StillImage"/>
    <dc:date>2026-03-18T14:05:25.510148</dc:date>
    <dc:format>image/svg+xml</dc:format>
    <dc:creator>
     <cc:Agent>
      <dc:title>Matplotlib v3.10.8, https://matplotlib.org/</dc:title>
     </cc:Agent>
    </dc:creator>
   </cc:Work>
  </rdf:RDF>
 </metadata>
 <defs>
  <style type="text/css">*{stroke-linejoin: round; stroke-linecap: butt}</style>
 </defs>
 <g id="figure_1">
  <g id="patch_1">
   <path d="M 0 120 
L 288 120 
L 288 0 
L 0 0 
L 0 120 
z
" style="fill: none; opacity: 0"/>
  </g>
  <g id="axes_1">
   <g id="patch_2">
    <path d="M 8.64 108 
L 279.36 108 
L 279.36 4.8 
L 8.64 4.8 
L 8.64 108 
z
" style="fill: none"/>
   </g>
   <g id="matplotlib.axis_1"/>
   <g id="matplotlib.axis_2"/>
   <g id="line2d_1">
    <path d="M 8.64 87.36 
L 279.36 87.36 
" clip-path="url(#p85d27b0adc)" style="fill: none; stroke: #b2b2b2; stroke-opacity: 0.35; stroke-width: 0.5; stroke-linecap: square"/>
   </g>
   <g id="line2d_2">
    <path d="M 8.64 66.72 
L 279.36 66.72 
" clip-path="url(#p85d27b0adc)" style="fill: none; stroke: #b2b2b2; stroke-opacity: 0.35; stroke-width: 0.5; stroke-linecap: square"/>
   </g>
   <g id="line2d_3">
    <path d="M 8.64 46.08 
L 279.36 46.08 
" clip-path="url(#p85d27b0adc)" style="fill: none; stroke: #b2b2b2; stroke-opacity: 0.35; stroke-width: 0.5; stroke-linecap: square"/>
   </g>
   <g id="line2d_4">
    <path d="M 8.64 25.44 
L 279.36 25.44 
" clip-path="url(#p85d27b0adc)" style="fill: none; stroke: #b2b2b2; stroke-opacity: 0.35; stroke-width: 0.5; stroke-linecap: square"/>
   </g>
   <g id="line2d_5">
    <path d="M 8.64 93.8616 
L 11.693892 92.02464 
L 14.747785 92.13816 
L 17.801677 92.07624 
L 20.85557 92.14848 
L 23.909462 92.64384 
L 26.963355 93.01536 
L 30.017247 93.69648 
L 33.071139 93.11856 
L 36.125032 92.44776 
L 39.178924 92.30328 
L 42.232817 92.87088 
L 45.286709 92.38584 
L 48.340602 92.47872 
L 51.394494 91.88016 
L 54.448386 90.42504 
L 57.502279 90.08448 
L 60.556171 89.92968 
L 63.610064 88.76352 
L 66.663956 87.94824 
L 69.717849 89.2692 
L 72.771741 88.72224 
L 75.825633 89.39304 
L 78.879526 89.40336 
L 81.933418 88.41264 
L 84.987311 88.4952 
L 88.041203 86.86464 
L 91.095096 86.42088 
L 94.148988 87.62832 
L 97.202881 86.93688 
L 100.256773 87.23616 
L 103.310665 88.63968 
L 106.364558 90.0432 
L 109.41845 92.12784 
L 112.472343 91.16808 
L 115.526235 91.46736 
L 118.580128 91.73568 
L 121.63402 91.78728 
L 124.687912 94.0164 
L 127.741805 92.5716 
L 130.795697 91.76664 
L 133.84959 92.33424 
L 136.903482 94.36728 
L 139.957375 94.46016 
L 143.011267 97.71096 
L 146.065159 98.48496 
L 149.119052 97.85544 
L 151.697223 99.10416 
L 154.124113 100.16712 
L 157.17645 102.23112 
L 160.217265 100.54896 
L 163.340965 100.70376 
L 166.369656 100.68312 
L 169.440974 100.95144 
L 172.48854 101.28168 
L 175.531439 101.71512 
L 178.584413 101.84928 
L 181.601581 101.034 
L 184.494331 100.54896 
L 187.744111 101.04432 
L 190.414393 100.81728 
L 193.847053 101.034 
L 196.897234 101.4984 
L 199.933277 101.33328 
L 202.968507 101.1372 
L 206.057286 101.06496 
L 209.120368 102.09696 
L 211.91627 102.05568 
L 215.21716 101.4984 
L 218.257445 100.60056 
L 221.30554 100.80696 
L 224.32345 101.45712 
L 227.446727 100.55928 
L 230.469091 101.10624 
L 233.530088 100.8792 
L 236.566873 100.74504 
L 239.62734 100.21872 
L 242.679783 100.53864 
L 245.710241 101.07528 
L 248.793789 101.38488 
L 251.856836 101.26104 
L 254.891111 100.78632 
L 257.943802 100.91016 
L 261.009712 100.99272 
L 264.057701 100.38384 
L 267.107529 100.50768 
L 270.219848 100.60056 
L 273.282365 99.76464 
L 276.282815 99.49632 
L 279.36 99.40344 
" clip-path="url(#p85d27b0adc)" style="fill: none; stroke: #bebebe; stroke-width: 0.5; stroke-linecap: round"/>
   </g>
   <g id="line2d_6">
    <path d="M 8.64 77.63856 
L 11.693892 75.40944 
L 14.747785 75.40944 
L 17.801677 75.04824 
L 20.85557 74.98632 
L 23.909462 75.58488 
L 26.963355 75.87384 
L 30.017247 76.49304 
L 33.071139 76.15248 
L 36.125032 75.82224 
L 39.178924 75.84288 
L 42.232817 76.03896 
L 45.286709 75.51264 
L 48.340602 75.56424 
L 51.394494 75.05856 
L 54.448386 73.26288 
L 57.502279 73.20096 
L 60.556171 73.00488 
L 63.610064 71.68392 
L 66.663956 70.6932 
L 69.717849 72.62304 
L 72.771741 73.52088 
L 75.825633 73.83048 
L 78.879526 73.8408 
L 81.933418 73.29384 
L 84.987311 73.72728 
L 88.041203 70.32168 
L 91.095096 69.77472 
L 94.148988 70.34232 
L 97.202881 70.67256 
L 100.256773 70.51776 
L 103.310665 70.848 
L 106.364558 72.31344 
L 109.41845 76.01832 
L 112.472343 75.41976 
L 115.526235 75.83256 
L 118.580128 75.79128 
L 121.63402 75.82224 
L 124.687912 77.82432 
L 127.741805 76.14216 
L 130.795697 74.75928 
L 133.84959 74.96568 
L 136.903482 77.75208 
L 139.957375 79.48584 
L 143.011267 83.31456 
L 146.065159 85.90488 
L 149.119052 84.79032 
L 151.697223 85.84296 
L 154.124113 88.25784 
L 157.17645 91.41576 
L 160.217265 88.7532 
L 163.340965 88.65 
L 166.369656 88.55712 
L 169.440974 88.96992 
L 172.48854 89.7336 
L 175.531439 90.456 
L 178.584413 90.56952 
L 181.601581 89.15568 
L 184.494331 88.9596 
L 187.744111 90.6624 
L 190.414393 89.94 
L 193.847053 90.00192 
L 196.897234 90.3528 
L 199.933277 90.62112 
L 202.968507 90.5076 
L 206.057286 90.3528 
L 209.120368 92.004 
L 211.91627 92.13816 
L 215.21716 91.25064 
L 218.257445 89.166 
L 221.30554 89.56848 
L 224.32345 90.93072 
L 227.446727 89.41368 
L 230.469091 90.37344 
L 233.530088 89.79552 
L 236.566873 90.23928 
L 239.62734 88.0824 
L 242.679783 88.7532 
L 245.710241 90.16704 
L 248.793789 90.67272 
L 251.856836 90.18768 
L 254.891111 89.2692 
L 257.943802 89.54784 
L 261.009712 89.49624 
L 264.057701 88.31976 
L 267.107529 88.45392 
L 270.219848 88.46424 
L 273.282365 86.38992 
L 276.282815 84.80064 
L 279.36 84.8316 
" clip-path="url(#p85d27b0adc)" style="fill: none; stroke: #4a8dff; stroke-width: 0.6"/>
   </g>
   <g id="line2d_7">
    <path d="M 8.64 88.17528 
L 11.693892 85.41984 
L 14.747785 85.17216 
L 17.801677 84.9348 
L 20.85557 85.01736 
L 23.909462 86.14224 
L 26.963355 85.90488 
L 30.017247 86.328 
L 33.071139 86.24544 
L 36.125032 85.72944 
L 39.178924 85.7088 
L 42.232817 86.40024 
L 45.286709 85.09992 
L 48.340602 86.02872 
L 51.394494 84.78 
L 54.448386 83.53128 
L 57.502279 82.83984 
L 60.556171 82.03488 
L 63.610064 79.39296 
L 66.663956 79.66128 
L 69.717849 82.15872 
L 72.771741 82.43736 
L 75.825633 82.93272 
L 78.879526 83.00496 
L 81.933418 82.6128 
L 84.987311 82.28256 
L 88.041203 78.01008 
L 91.095096 76.19376 
L 94.148988 77.66952 
L 97.202881 77.74176 
L 100.256773 78.1752 
L 103.310665 79.5684 
L 106.364558 80.8068 
L 109.41845 85.20312 
L 112.472343 84.12984 
L 115.526235 84.03696 
L 118.580128 84.06792 
L 121.63402 84.3156 
L 124.687912 87.02976 
L 127.741805 85.21344 
L 130.795697 84.28464 
L 133.84959 84.32592 
L 136.903482 89.08344 
L 139.957375 89.5272 
L 143.011267 95.14128 
L 146.065159 96.98856 
L 149.119052 95.08968 
L 151.697223 97.71096 
L 154.124113 99.80592 
L 157.17645 101.79768 
L 160.217265 100.03296 
L 163.340965 100.518 
L 166.369656 99.98136 
L 169.440974 100.49736 
L 172.48854 100.78632 
L 175.531439 101.07528 
L 178.584413 101.26104 
L 181.601581 100.63152 
L 184.494331 100.38384 
L 187.744111 100.84824 
L 190.414393 100.65216 
L 193.847053 101.034 
L 196.897234 101.19912 
L 199.933277 101.10624 
L 202.968507 100.97208 
L 206.057286 100.91016 
L 209.120368 101.7564 
L 211.91627 101.84928 
L 215.21716 101.56032 
L 218.257445 100.85856 
L 221.30554 101.12688 
L 224.32345 101.4468 
L 227.446727 101.02368 
L 230.469091 101.30232 
L 233.530088 100.81728 
L 236.566873 100.79664 
L 239.62734 99.3312 
L 242.679783 99.92976 
L 245.710241 100.78632 
L 248.793789 101.17848 
L 251.856836 101.1372 
L 254.891111 100.21872 
L 257.943802 100.37352 
L 261.009712 100.4664 
L 264.057701 99.88848 
L 267.107529 99.94008 
L 270.219848 99.81624 
L 273.282365 98.93904 
L 276.282815 98.3508 
L 279.36 98.52624 
" clip-path="url(#p85d27b0adc)" style="fill: none; stroke: #f5841e; stroke-width: 0.6"/>
   </g>
  </g>
 </g>
 <defs>
  <clipPath id="p85d27b0adc">
   <rect x="8.64" y="4.8" width="270.72" height="103.2"/>
  </clipPath>
 </defs>
</svg>
