<?xml version="1.0" encoding="utf-8" standalone="no"?>
<!DOCTYPE svg PUBLIC "-//W3C//DTD SVG 1.1//EN"
  "http://www.w3.org/Graphics/SVG/1.1/DTD/svg11.dtd">
<svg xmlns:xlink="http://www.w3.org/1999/xlink" width="288pt" height="120pt" viewBox="0 0 288 120" xmlns="http://www.w3.org/2000/svg" version="1.1">
<desc id="nav-meta">{"window":"1y","count":4,"labels":["21.07","19.11","21.03","20.07"],"tick_utc":["2025-07-21T12:00:00Z","2025-11-19T12:00:00Z","2026-03-21T03:10:23Z","2026-07-20T04:25:44Z"],"w":720,"h":300}</desc>

 <metadata>
  <rdf:RDF xmlns:dc="http://purl.org/dc/elements/1.1/" xmlns:cc="http://creativecommons.org/ns#" xmlns:rdf="http://www.w3.org/1999/02/22-rdf-syntax-ns#">
   <cc:Work>
    <dc:type rdf:resource="http://purl.org/dc/dcmitype/StillImage"/>
    <dc:date>2026-07-20T14:56:14.637398</dc:date>
    <dc:format>image/svg+xml</dc:format>
    <dc:creator>
     <cc:Agent>
      <dc:title>Matplotlib v3.11.1, https://matplotlib.org/</dc:title>
     </cc:Agent>
    </dc:creator>
   </cc:Work>
  </rdf:RDF>
 </metadata>
 <defs>
  <style type="text/css">*{stroke-linejoin: round; stroke-linecap: butt}</style>
 </defs>
 <g id="figure_1">
  <g id="patch_1">
   <path d="M 0 120 
L 288 120 
L 288 0 
L 0 0 
L 0 120 
z
" style="fill: none; opacity: 0"/>
  </g>
  <g id="axes_1">
   <g id="patch_2">
    <path d="M 8.64 108 
L 279.36 108 
L 279.36 4.8 
L 8.64 4.8 
L 8.64 108 
z
" style="fill: none"/>
   </g>
   <g id="matplotlib.axis_1"/>
   <g id="matplotlib.axis_2"/>
   <g id="line2d_1">
    <path d="M 8.64 87.36 
L 279.36 87.36 
" clip-path="url(#p65414c7874)" style="fill: none; stroke: #b2b2b2; stroke-opacity: 0.35; stroke-width: 0.5; stroke-linecap: square"/>
   </g>
   <g id="line2d_2">
    <path d="M 8.64 66.72 
L 279.36 66.72 
" clip-path="url(#p65414c7874)" style="fill: none; stroke: #b2b2b2; stroke-opacity: 0.35; stroke-width: 0.5; stroke-linecap: square"/>
   </g>
   <g id="line2d_3">
    <path d="M 8.64 46.08 
L 279.36 46.08 
" clip-path="url(#p65414c7874)" style="fill: none; stroke: #b2b2b2; stroke-opacity: 0.35; stroke-width: 0.5; stroke-linecap: square"/>
   </g>
   <g id="line2d_4">
    <path d="M 8.64 25.44 
L 279.36 25.44 
" clip-path="url(#p65414c7874)" style="fill: none; stroke: #b2b2b2; stroke-opacity: 0.35; stroke-width: 0.5; stroke-linecap: square"/>
   </g>
   <g id="line2d_5">
    <path d="M 8.64 77.05032 
L 9.384381 72.82944 
L 10.128763 70.41456 
L 10.873144 74.69736 
L 11.617526 76.6272 
L 12.361907 75.63648 
L 13.106288 75.97704 
L 13.85067 74.976 
L 14.595051 76.49304 
L 15.339432 76.99872 
L 16.083814 77.90688 
L 16.828195 79.4652 
L 17.572577 82.02456 
L 18.316958 83.19072 
L 19.061339 82.27224 
L 19.805721 80.21856 
L 20.550102 81.67368 
L 21.294484 80.5488 
L 22.038865 78.588 
L 22.783246 78.19584 
L 23.527628 77.21544 
L 24.272009 76.524 
L 25.016391 78.68088 
L 25.760772 73.88208 
L 26.505153 71.364 
L 27.249535 73.8408 
L 27.993916 75.79128 
L 28.738297 74.65608 
L 29.482679 74.14008 
L 30.22706 76.50336 
L 30.971442 78.30936 
L 31.715823 75.3372 
L 32.460204 77.25672 
L 33.204586 71.78712 
L 33.948967 70.75512 
L 34.693349 70.24944 
L 35.43773 75.35784 
L 36.182111 72.95328 
L 36.926493 70.96152 
L 37.670874 67.87584 
L 38.415255 70.46616 
L 39.159637 71.11632 
L 39.904018 71.61168 
L 40.6484 72.7056 
L 41.392781 69.33096 
L 42.137162 68.9388 
L 42.881544 71.12664 
L 43.625925 70.90992 
L 44.370307 71.80776 
L 45.114688 70.074 
L 45.859069 68.01 
L 46.603451 67.10184 
L 47.347832 65.29584 
L 48.092213 64.01616 
L 48.836595 60.31128 
L 49.580976 60.19776 
L 50.325358 60.786 
L 51.069739 62.61264 
L 51.81412 61.74576 
L 52.558502 59.57856 
L 53.302883 58.86648 
L 54.047265 61.38456 
L 54.791646 61.07496 
L 55.536027 61.83864 
L 56.280409 66.29688 
L 57.02479 67.97904 
L 57.769172 68.69112 
L 58.513553 73.9956 
L 59.257934 70.45584 
L 60.002316 70.87896 
L 60.746697 68.91816 
L 61.491078 68.3196 
L 62.23546 69.47544 
L 63.724223 62.39592 
L 64.468604 62.81904 
L 65.212985 64.22256 
L 65.957367 64.05744 
L 66.701748 62.9532 
L 67.44613 66.14208 
L 68.190511 63.91296 
L 68.934892 66.17304 
L 69.679274 74.6148 
L 70.423655 77.78304 
L 71.168036 72.66432 
L 71.912418 69.69216 
L 72.656799 71.09568 
L 74.145562 76.06992 
L 74.889943 76.76136 
L 75.634325 75.25464 
L 76.378706 75.24432 
L 77.123088 74.63544 
L 77.867469 75.73968 
L 78.61185 77.31864 
L 79.356232 74.202 
L 80.100613 73.64472 
L 80.844995 73.48992 
L 81.589376 71.83872 
L 82.333757 72.17928 
L 83.078139 73.38672 
L 83.82252 73.43832 
L 84.566901 76.15248 
L 85.311283 75.3372 
L 86.055664 75.58488 
L 86.800046 75.35784 
L 87.544427 81.168 
L 88.288808 84.01632 
L 89.03319 82.06584 
L 89.777571 84.19176 
L 90.521953 82.27224 
L 91.266334 83.29392 
L 92.010715 81.62208 
L 92.755097 80.72424 
L 93.499478 84.33624 
L 94.243859 84.64584 
L 94.988241 86.844 
L 95.732622 88.52616 
L 96.477004 88.36104 
L 97.221385 88.93896 
L 97.965766 90.79656 
L 98.710148 88.09272 
L 99.454529 89.22792 
L 100.198911 90.00192 
L 100.943292 91.39512 
L 101.687673 91.63248 
L 102.432055 90.75528 
L 103.176436 88.7016 
L 103.920817 88.52616 
L 104.665199 87.45288 
L 105.40958 88.0308 
L 106.153962 88.94928 
L 107.642724 89.7336 
L 108.387106 91.86984 
L 109.131487 88.60872 
L 109.875869 86.87496 
L 111.364631 90.11544 
L 112.853394 90.53856 
L 113.597776 90.08448 
L 114.342157 88.79448 
L 115.086538 89.20728 
L 115.83092 89.22792 
L 116.575301 90.31152 
L 117.319682 90.10512 
L 118.064064 91.09584 
L 118.808445 91.61184 
L 119.552827 91.31256 
L 120.297208 92.87088 
L 121.041589 93.8616 
L 121.785971 92.02464 
L 122.530352 92.13816 
L 123.274734 92.07624 
L 124.019115 92.14848 
L 126.252259 93.69648 
L 127.741022 92.44776 
L 128.485403 92.30328 
L 129.229785 92.87088 
L 129.974166 92.38584 
L 130.718547 92.47872 
L 131.462929 91.88016 
L 132.20731 90.42504 
L 132.951692 90.08448 
L 133.696073 89.92968 
L 134.440454 88.76352 
L 135.184836 87.94824 
L 135.929217 89.2692 
L 136.673599 88.72224 
L 137.41798 89.39304 
L 138.162361 89.40336 
L 138.906743 88.41264 
L 139.651124 88.4952 
L 140.395505 86.86464 
L 141.139887 86.42088 
L 141.884268 87.62832 
L 142.62865 86.93688 
L 143.373031 87.23616 
L 144.861794 90.0432 
L 145.606175 92.12784 
L 146.350557 91.16808 
L 147.839319 91.73568 
L 148.583701 91.78728 
L 149.328082 94.0164 
L 150.072463 92.5716 
L 150.816845 91.76664 
L 151.561226 92.33424 
L 152.305608 94.36728 
L 153.049989 94.46016 
L 153.79437 97.71096 
L 154.538752 98.48496 
L 155.283133 97.85544 
L 156.503109 100.16712 
L 157.247111 102.23112 
L 157.988305 100.54896 
L 158.749702 100.70376 
L 159.48794 100.68312 
L 160.979408 101.28168 
L 161.72111 101.71512 
L 162.465268 101.84928 
L 163.200698 101.034 
L 163.905801 100.54896 
L 164.697929 101.04432 
L 165.348806 100.81728 
L 166.185512 101.034 
L 166.928989 101.4984 
L 169.161736 101.06496 
L 169.908358 102.09696 
L 170.589855 102.05568 
L 171.394441 101.4984 
L 172.135506 100.60056 
L 172.878474 100.80696 
L 173.614085 101.45712 
L 174.375378 100.55928 
L 175.112075 101.10624 
L 176.598399 100.74504 
L 177.344383 100.21872 
L 178.088411 100.53864 
L 178.827081 101.07528 
L 179.578691 101.38488 
L 180.325303 101.26104 
L 181.064903 100.78632 
L 182.556302 100.99272 
L 183.299245 100.38384 
L 184.801258 100.60056 
L 185.547742 99.76464 
L 186.279097 99.49632 
L 187.029156 99.40344 
L 187.773744 100.09488 
L 188.510879 100.3632 
L 189.250901 100.19808 
L 190.752544 100.79664 
L 191.490033 100.26 
L 192.289856 99.83688 
L 192.987851 100.13616 
L 194.470437 101.38488 
L 197.461919 101.28168 
L 198.196496 101.8596 
L 198.94173 101.88024 
L 199.679736 101.72544 
L 200.435327 101.68416 
L 201.181629 101.47776 
L 201.921177 101.78736 
L 202.666765 101.09592 
L 203.408553 101.46744 
L 204.159784 101.3436 
L 204.892784 101.05464 
L 205.650519 101.3952 
L 206.398717 101.47776 
L 207.13836 100.86888 
L 207.882173 101.26104 
L 210.108812 100.44576 
L 210.863024 100.94112 
L 211.609249 101.09592 
L 212.350365 101.00304 
L 213.092438 100.69344 
L 213.839835 100.9308 
L 216.077648 100.8792 
L 216.830051 100.64184 
L 217.575992 101.1888 
L 218.31834 101.09592 
L 219.06397 101.37456 
L 219.816485 101.21976 
L 221.301362 101.23008 
L 222.045485 100.92048 
L 222.773471 101.06496 
L 223.530965 100.70376 
L 224.275545 100.55928 
L 225.007537 100.53864 
L 225.754641 99.60984 
L 226.514022 99.72336 
L 227.998322 99.25896 
L 228.746244 99.32088 
L 229.489799 100.22904 
L 230.23785 100.01232 
L 231.728224 100.75536 
L 232.479834 101.02368 
L 233.218882 101.02368 
L 233.965926 101.17848 
L 234.714546 100.7244 
L 235.453224 100.75536 
L 236.187379 101.11656 
L 236.943546 100.91016 
L 237.697723 100.89984 
L 238.430827 101.1372 
L 239.18285 101.2404 
L 239.924854 101.6532 
L 240.669787 101.4984 
L 241.403433 101.48808 
L 242.163012 101.32296 
L 243.655462 101.7048 
L 244.408218 102.54072 
L 245.150049 103.08768 
L 245.882171 103.36632 
L 246.615111 104.22288 
L 247.375491 103.85136 
L 248.853338 103.43856 
L 249.605439 103.81008 
L 250.354188 103.72752 
L 251.101491 103.50048 
L 251.840427 103.5108 
L 252.59021 103.31472 
L 254.107964 102.61296 
L 254.828636 102.6336 
L 256.331364 103.28376 
L 257.805851 102.69552 
L 258.572021 102.582 
L 260.018947 103.15992 
L 260.76313 103.36632 
L 261.511328 103.36632 
L 262.246586 102.81936 
L 263.005157 103.0464 
L 263.754923 102.9432 
L 264.484873 102.59232 
L 265.240145 102.40656 
L 267.44895 101.3436 
L 268.20423 101.6532 
L 269.689038 101.63256 
L 270.413191 101.95248 
L 271.180136 102.08664 
L 271.922837 101.9112 
L 274.87393 102.45816 
L 275.618501 102.08664 
L 277.849948 102.4272 
L 279.36 102.25176 
L 279.36 102.25176 
" clip-path="url(#p65414c7874)" style="fill: none; stroke: #bebebe; stroke-width: 0.5; stroke-linecap: round"/>
   </g>
   <g id="line2d_6">
    <path d="M 8.64 63.80976 
L 9.384381 63.70656 
L 10.128763 63.9852 
L 10.873144 65.71896 
L 11.617526 64.5528 
L 13.106288 64.05744 
L 13.85067 62.25144 
L 14.595051 63.39696 
L 15.339432 63.366 
L 16.083814 63.08736 
L 16.828195 64.72824 
L 17.572577 67.89648 
L 18.316958 69.16584 
L 19.061339 67.69008 
L 19.805721 64.4496 
L 20.550102 65.97696 
L 21.294484 64.914 
L 22.038865 61.54968 
L 22.783246 60.04296 
L 23.527628 56.28648 
L 24.272009 56.47224 
L 25.016391 56.83344 
L 25.760772 51.22968 
L 26.505153 48.89736 
L 27.249535 52.00368 
L 27.993916 53.84064 
L 28.738297 53.90256 
L 29.482679 53.00472 
L 30.22706 55.5228 
L 30.971442 59.12448 
L 31.715823 55.32672 
L 32.460204 56.90568 
L 33.204586 47.92728 
L 33.948967 48.75288 
L 34.693349 48.68064 
L 35.43773 54.57336 
L 36.182111 51.2916 
L 36.926493 52.80864 
L 37.670874 52.69512 
L 38.415255 54.82104 
L 39.904018 54.45984 
L 40.6484 55.7292 
L 41.392781 55.39896 
L 42.137162 53.55168 
L 42.881544 55.81176 
L 43.625925 55.6776 
L 44.370307 56.18328 
L 45.114688 55.71888 
L 46.603451 55.63632 
L 47.347832 55.07904 
L 48.092213 53.41752 
L 48.836595 49.71264 
L 49.580976 50.32152 
L 50.325358 51.17808 
L 51.069739 52.44744 
L 51.81412 52.74672 
L 52.558502 51.4464 
L 53.302883 51.46704 
L 54.047265 53.2524 
L 54.791646 53.08728 
L 55.536027 53.5104 
L 56.280409 57.26688 
L 57.02479 57.76224 
L 57.769172 58.02024 
L 58.513553 62.26176 
L 59.257934 59.68176 
L 60.002316 59.9604 
L 60.746697 58.12344 
L 61.491078 57.02952 
L 62.23546 58.09248 
L 62.979841 55.13064 
L 63.724223 53.046 
L 64.468604 52.5816 
L 65.212985 52.9944 
L 65.957367 52.5816 
L 66.701748 50.0016 
L 67.44613 53.48976 
L 68.190511 52.40616 
L 68.934892 54.75912 
L 69.679274 62.67456 
L 70.423655 63.95424 
L 71.168036 57.86544 
L 71.912418 56.57544 
L 72.656799 58.31952 
L 73.401181 60.4764 
L 74.145562 61.85928 
L 74.889943 62.73648 
L 75.634325 61.8696 
L 76.378706 60.45576 
L 77.123088 60.54864 
L 77.867469 62.04504 
L 78.61185 63.16992 
L 79.356232 62.36496 
L 80.100613 61.21944 
L 80.844995 60.9408 
L 81.589376 57.83448 
L 82.333757 58.40208 
L 83.078139 60.49704 
L 84.566901 63.1596 
L 85.311283 62.49912 
L 86.055664 62.1276 
L 86.800046 61.56 
L 88.288808 70.66224 
L 89.03319 68.72208 
L 89.777571 70.4868 
L 90.521953 68.61888 
L 91.266334 69.11424 
L 92.010715 66.5136 
L 92.755097 66.68904 
L 93.499478 68.8872 
L 94.243859 68.9904 
L 94.988241 71.5704 
L 95.732622 73.48992 
L 96.477004 72.54048 
L 97.965766 74.74896 
L 98.710148 73.3248 
L 99.454529 74.80056 
L 100.198911 77.556 
L 100.943292 78.55704 
L 101.687673 78.50544 
L 102.432055 78.04104 
L 103.176436 75.76032 
L 103.920817 75.73968 
L 104.665199 74.65608 
L 105.40958 74.83152 
L 106.153962 74.57352 
L 106.898343 75.20304 
L 107.642724 75.17208 
L 108.387106 78.05136 
L 109.875869 72.16896 
L 110.62025 73.08744 
L 111.364631 74.72832 
L 112.853394 74.28456 
L 113.597776 73.21128 
L 114.342157 70.2804 
L 115.086538 70.2288 
L 115.83092 71.56008 
L 116.575301 73.79952 
L 117.319682 73.35576 
L 118.064064 74.0988 
L 118.808445 75.5952 
L 119.552827 75.5952 
L 120.297208 77.61792 
L 121.041589 77.63856 
L 121.785971 75.40944 
L 122.530352 75.40944 
L 123.274734 75.04824 
L 124.019115 74.98632 
L 124.763496 75.58488 
L 125.507878 75.87384 
L 126.252259 76.49304 
L 127.741022 75.82224 
L 128.485403 75.84288 
L 129.229785 76.03896 
L 129.974166 75.51264 
L 130.718547 75.56424 
L 131.462929 75.05856 
L 132.20731 73.26288 
L 132.951692 73.20096 
L 133.696073 73.00488 
L 134.440454 71.68392 
L 135.184836 70.6932 
L 135.929217 72.62304 
L 136.673599 73.52088 
L 137.41798 73.83048 
L 138.162361 73.8408 
L 138.906743 73.29384 
L 139.651124 73.72728 
L 140.395505 70.32168 
L 141.139887 69.77472 
L 141.884268 70.34232 
L 142.62865 70.67256 
L 143.373031 70.51776 
L 144.117412 70.848 
L 144.861794 72.31344 
L 145.606175 76.01832 
L 146.350557 75.41976 
L 147.094938 75.83256 
L 148.583701 75.82224 
L 149.328082 77.82432 
L 150.072463 76.14216 
L 150.816845 74.75928 
L 151.561226 74.96568 
L 152.305608 77.75208 
L 153.049989 79.48584 
L 153.79437 83.31456 
L 154.538752 85.90488 
L 155.283133 84.79032 
L 155.911558 85.84296 
L 157.247111 91.41576 
L 157.988305 88.7532 
L 159.48794 88.55712 
L 160.236569 88.96992 
L 161.72111 90.456 
L 162.465268 90.56952 
L 163.200698 89.15568 
L 163.905801 88.9596 
L 164.697929 90.6624 
L 165.348806 89.94 
L 166.185512 90.00192 
L 167.669019 90.62112 
L 169.161736 90.3528 
L 169.908358 92.004 
L 170.589855 92.13816 
L 171.394441 91.25064 
L 172.135506 89.166 
L 172.878474 89.56848 
L 173.614085 90.93072 
L 174.375378 89.41368 
L 175.112075 90.37344 
L 175.858188 89.79552 
L 176.598399 90.23928 
L 177.344383 88.0824 
L 178.088411 88.7532 
L 178.827081 90.16704 
L 179.578691 90.67272 
L 180.325303 90.18768 
L 181.064903 89.2692 
L 181.808992 89.54784 
L 182.556302 89.49624 
L 183.299245 88.31976 
L 184.042635 88.45392 
L 184.801258 88.46424 
L 185.547742 86.38992 
L 186.279097 84.80064 
L 187.029156 84.8316 
L 187.773744 86.586 
L 188.510879 87.74184 
L 189.250901 87.618 
L 190.006414 88.19592 
L 190.752544 89.08344 
L 191.490033 87.89664 
L 192.289856 87.3084 
L 192.987851 87.65928 
L 194.470437 90.07416 
L 195.971468 89.3724 
L 196.711154 89.00088 
L 197.461919 88.42296 
L 198.94173 89.10408 
L 199.679736 89.14536 
L 200.435327 89.07312 
L 201.181629 87.9792 
L 201.921177 88.29912 
L 202.666765 86.38992 
L 203.408553 87.24648 
L 204.159784 87.1536 
L 204.892784 86.21448 
L 206.398717 87.01944 
L 207.13836 84.44976 
L 207.882173 85.05864 
L 208.629777 84.58392 
L 209.372642 85.04832 
L 210.108812 83.71704 
L 210.863024 84.86256 
L 211.609249 85.6572 
L 212.350365 85.27536 
L 213.092438 84.49104 
L 214.586189 85.32696 
L 215.321688 85.17216 
L 216.077648 85.31664 
L 216.830051 84.11952 
L 217.575992 85.66752 
L 218.31834 85.26504 
L 219.06397 86.26608 
L 220.541869 85.38888 
L 221.301362 85.3992 
L 222.045485 84.09888 
L 223.530965 84.34656 
L 225.007537 85.7604 
L 225.754641 85.0896 
L 227.264279 84.9348 
L 227.998322 85.296 
L 228.746244 85.35792 
L 229.489799 86.1732 
L 230.23785 85.92552 
L 231.728224 87.13296 
L 232.479834 88.10304 
L 233.218882 87.9276 
L 233.965926 88.26816 
L 234.714546 87.78312 
L 235.453224 87.95856 
L 236.187379 88.94928 
L 236.943546 88.14432 
L 238.430827 88.52616 
L 239.18285 88.86672 
L 239.924854 90.22896 
L 240.669787 89.82648 
L 241.403433 89.87808 
L 242.163012 89.46528 
L 242.918404 90.0432 
L 243.655462 89.96064 
L 244.408218 91.99368 
L 245.150049 93.05664 
L 245.882171 93.74808 
L 246.615111 97.02984 
L 247.375491 95.93592 
L 248.123164 95.07936 
L 248.853338 94.46016 
L 249.605439 95.47152 
L 251.101491 94.82136 
L 251.840427 94.8936 
L 252.59021 94.70784 
L 254.107964 93.40752 
L 254.828636 92.9844 
L 255.56945 93.93384 
L 256.331364 94.4292 
L 257.805851 93.87192 
L 258.572021 93.81 
L 259.271903 94.03704 
L 260.76313 95.48184 
L 261.511328 96.63768 
L 262.246586 96.14232 
L 263.005157 96.30744 
L 263.754923 96.29712 
L 264.484873 96.04944 
L 265.240145 95.9256 
L 265.971491 95.39928 
L 266.707774 94.31568 
L 267.44895 93.57264 
L 268.20423 93.32496 
L 268.955823 93.22176 
L 269.689038 93.35592 
L 271.180136 93.77904 
L 271.922837 93.26304 
L 272.645241 92.92248 
L 273.400753 92.71608 
L 274.146763 93.15984 
L 274.87393 93.17016 
L 275.618501 91.80792 
L 276.364744 91.14744 
L 277.109246 92.13816 
L 277.849948 92.25168 
L 278.605521 91.9008 
L 279.36 91.81824 
L 279.36 91.81824 
" clip-path="url(#p65414c7874)" style="fill: none; stroke: #4a8dff; stroke-width: 0.6"/>
   </g>
   <g id="line2d_7">
    <path d="M 8.64 55.22352 
L 9.384381 54.98616 
L 10.128763 52.4268 
L 10.873144 53.79936 
L 11.617526 54.08832 
L 12.361907 54.92424 
L 13.106288 54.4908 
L 13.85067 52.98408 
L 14.595051 54.44952 
L 15.339432 54.60432 
L 16.083814 54.62496 
L 17.572577 59.38248 
L 18.316958 60.09456 
L 19.061339 58.39176 
L 19.805721 57.41136 
L 20.550102 58.464 
L 21.294484 57.5352 
L 22.038865 55.0068 
L 22.783246 55.81176 
L 23.527628 55.99752 
L 24.272009 53.13888 
L 25.016391 53.64456 
L 25.760772 52.1688 
L 26.505153 48.69096 
L 27.249535 54.0264 
L 27.993916 55.13064 
L 28.738297 54.96552 
L 29.482679 54.92424 
L 30.22706 56.25552 
L 30.971442 59.8572 
L 31.715823 58.32984 
L 32.460204 60.23904 
L 33.204586 55.65696 
L 33.948967 57.18432 
L 34.693349 59.21736 
L 35.43773 62.55072 
L 36.182111 60.82728 
L 36.926493 61.47744 
L 37.670874 60.12552 
L 38.415255 64.31544 
L 39.159637 63.99552 
L 39.904018 64.5528 
L 40.6484 63.60336 
L 41.392781 61.5084 
L 42.137162 60.96144 
L 42.881544 61.98312 
L 43.625925 62.05536 
L 44.370307 62.51976 
L 45.859069 60.64152 
L 46.603451 61.13688 
L 47.347832 58.6188 
L 48.092213 57.03984 
L 48.836595 56.35872 
L 49.580976 56.5548 
L 50.325358 57.174 
L 51.069739 57.14304 
L 51.81412 55.7292 
L 52.558502 56.04912 
L 53.302883 55.33704 
L 54.047265 56.87472 
L 54.791646 56.8128 
L 55.536027 57.24624 
L 56.280409 59.93976 
L 57.02479 60.64152 
L 57.769172 59.29992 
L 58.513553 63.80976 
L 59.257934 63.03576 
L 60.002316 63.09768 
L 61.491078 58.27824 
L 62.23546 58.5672 
L 62.979841 53.93352 
L 63.724223 51.74568 
L 64.468604 50.04288 
L 65.212985 49.90872 
L 66.701748 47.43192 
L 67.44613 50.80656 
L 68.190511 48.90768 
L 68.934892 50.6208 
L 69.679274 59.42376 
L 70.423655 61.85928 
L 71.168036 57.35976 
L 71.912418 57.3288 
L 72.656799 59.46504 
L 74.145562 64.72824 
L 74.889943 66.42072 
L 75.634325 65.688 
L 76.378706 64.17096 
L 77.123088 62.10696 
L 77.867469 64.30512 
L 78.61185 65.20296 
L 79.356232 62.68488 
L 80.100613 61.70448 
L 80.844995 61.06464 
L 81.589376 58.1028 
L 82.333757 58.40208 
L 83.078139 59.68176 
L 83.82252 62.6952 
L 84.566901 64.56312 
L 85.311283 63.18024 
L 86.055664 62.72616 
L 86.800046 62.06568 
L 87.544427 66.33816 
L 88.288808 71.40528 
L 89.03319 69.08328 
L 89.777571 71.7252 
L 90.521953 69.57864 
L 91.266334 70.72416 
L 92.010715 68.2164 
L 92.755097 66.978 
L 93.499478 70.03272 
L 94.243859 71.5188 
L 94.988241 73.3764 
L 95.732622 78.846 
L 96.477004 77.75208 
L 97.221385 78.88728 
L 97.965766 81.34344 
L 98.710148 80.53848 
L 99.454529 82.0452 
L 100.198911 86.92656 
L 100.943292 88.58808 
L 101.687673 88.96992 
L 102.432055 86.7924 
L 103.176436 85.296 
L 103.920817 86.24544 
L 104.665199 82.96368 
L 105.40958 82.13808 
L 106.153962 82.47864 
L 106.898343 82.58184 
L 107.642724 83.03592 
L 108.387106 87.3084 
L 109.131487 82.06584 
L 109.875869 79.71288 
L 110.62025 81.24024 
L 111.364631 84.17112 
L 112.109013 84.24336 
L 112.853394 83.29392 
L 113.597776 82.8192 
L 114.342157 80.64168 
L 115.086538 81.38472 
L 115.83092 80.87904 
L 116.575301 83.13912 
L 117.319682 83.19072 
L 118.808445 87.17424 
L 119.552827 85.71912 
L 120.297208 87.53544 
L 121.041589 88.17528 
L 121.785971 85.41984 
L 123.274734 84.9348 
L 124.019115 85.01736 
L 124.763496 86.14224 
L 125.507878 85.90488 
L 126.252259 86.328 
L 126.99664 86.24544 
L 127.741022 85.72944 
L 128.485403 85.7088 
L 129.229785 86.40024 
L 129.974166 85.09992 
L 130.718547 86.02872 
L 132.20731 83.53128 
L 133.696073 82.03488 
L 134.440454 79.39296 
L 135.184836 79.66128 
L 135.929217 82.15872 
L 136.673599 82.43736 
L 137.41798 82.93272 
L 138.162361 83.00496 
L 139.651124 82.28256 
L 140.395505 78.01008 
L 141.139887 76.19376 
L 141.884268 77.66952 
L 142.62865 77.74176 
L 143.373031 78.1752 
L 144.861794 80.8068 
L 145.606175 85.20312 
L 146.350557 84.12984 
L 147.094938 84.03696 
L 147.839319 84.06792 
L 148.583701 84.3156 
L 149.328082 87.02976 
L 150.072463 85.21344 
L 150.816845 84.28464 
L 151.561226 84.32592 
L 152.305608 89.08344 
L 153.049989 89.5272 
L 153.79437 95.14128 
L 154.538752 96.98856 
L 155.283133 95.08968 
L 156.503109 99.80592 
L 157.247111 101.79768 
L 157.988305 100.03296 
L 158.749702 100.518 
L 159.48794 99.98136 
L 160.236569 100.49736 
L 162.465268 101.26104 
L 163.200698 100.63152 
L 163.905801 100.38384 
L 164.697929 100.84824 
L 165.348806 100.65216 
L 166.185512 101.034 
L 166.928989 101.19912 
L 169.161736 100.91016 
L 169.908358 101.7564 
L 170.589855 101.84928 
L 171.394441 101.56032 
L 172.135506 100.85856 
L 173.614085 101.4468 
L 174.375378 101.02368 
L 175.112075 101.30232 
L 175.858188 100.81728 
L 176.598399 100.79664 
L 177.344383 99.3312 
L 178.088411 99.92976 
L 178.827081 100.78632 
L 179.578691 101.17848 
L 180.325303 101.1372 
L 181.064903 100.21872 
L 182.556302 100.4664 
L 183.299245 99.88848 
L 184.042635 99.94008 
L 184.801258 99.81624 
L 185.547742 98.93904 
L 186.279097 98.3508 
L 187.029156 98.52624 
L 187.773744 99.78528 
L 188.510879 100.12584 
L 189.250901 100.03296 
L 190.752544 100.83792 
L 191.490033 100.11552 
L 192.289856 99.87816 
L 192.987851 100.002 
L 194.470437 101.41584 
L 195.224958 101.21976 
L 196.711154 101.00304 
L 197.461919 100.86888 
L 198.196496 101.21976 
L 198.94173 101.28168 
L 200.435327 101.14752 
L 201.181629 100.55928 
L 201.921177 100.65216 
L 202.666765 99.80592 
L 203.408553 99.96072 
L 204.159784 99.6408 
L 204.892784 99.1764 
L 205.650519 99.70272 
L 206.398717 99.94008 
L 207.13836 98.57784 
L 207.882173 98.65008 
L 208.629777 98.38176 
L 209.372642 98.48496 
L 210.108812 96.70992 
L 210.863024 98.05152 
L 211.609249 98.48496 
L 212.350365 97.96896 
L 213.092438 96.32808 
L 214.586189 96.16296 
L 215.321688 96.1836 
L 216.077648 96.50352 
L 216.830051 94.76976 
L 217.575992 97.19496 
L 218.31834 96.9576 
L 219.06397 97.9896 
L 219.816485 96.89568 
L 220.541869 95.45088 
L 221.301362 95.67792 
L 222.045485 93.43848 
L 223.530965 92.25168 
L 224.275545 92.87088 
L 225.007537 94.2744 
L 225.754641 93.1392 
L 226.514022 92.97408 
L 227.264279 92.9844 
L 227.998322 92.60256 
L 228.746244 92.53032 
L 229.489799 94.54272 
L 230.23785 92.85024 
L 230.972729 94.82136 
L 231.728224 95.75016 
L 232.479834 96.97824 
L 233.965926 97.23624 
L 234.714546 95.94624 
L 235.453224 96.30744 
L 236.187379 98.08248 
L 237.697723 96.61704 
L 238.430827 97.23624 
L 239.18285 98.08248 
L 239.924854 99.18672 
L 240.669787 99.03192 
L 241.403433 99.1248 
L 242.163012 98.74296 
L 242.918404 99.09384 
L 243.655462 100.0536 
L 244.408218 101.23008 
L 245.150049 101.99376 
L 245.882171 102.08664 
L 246.615111 102.8916 
L 247.375491 102.45816 
L 248.853338 102.10728 
L 249.605439 102.582 
L 251.101491 102.08664 
L 251.840427 102.066 
L 252.59021 101.86992 
L 253.359335 101.48808 
L 254.107964 101.40552 
L 254.828636 101.4984 
L 255.56945 101.97312 
L 256.331364 102.26208 
L 257.805851 101.90088 
L 258.572021 101.90088 
L 259.271903 102.0144 
L 260.018947 102.25176 
L 260.76313 102.6336 
L 261.511328 102.88128 
L 262.246586 102.77808 
L 265.240145 103.00512 
L 265.971491 102.69552 
L 266.707774 102.55104 
L 267.44895 102.2724 
L 269.689038 102.13824 
L 271.180136 102.36528 
L 271.922837 101.94216 
L 273.400753 101.9112 
L 274.146763 102.2208 
L 274.87393 102.31368 
L 275.618501 101.79768 
L 276.364744 101.81832 
L 277.109246 102.07632 
L 279.36 101.78736 
L 279.36 101.78736 
" clip-path="url(#p65414c7874)" style="fill: none; stroke: #f5841e; stroke-width: 0.6"/>
   </g>
  </g>
 </g>
 <defs>
  <clipPath id="p65414c7874">
   <rect x="8.64" y="4.8" width="270.72" height="103.2"/>
  </clipPath>
 </defs>
</svg>
