<?xml version="1.0" encoding="utf-8" standalone="no"?>
<!DOCTYPE svg PUBLIC "-//W3C//DTD SVG 1.1//EN"
  "http://www.w3.org/Graphics/SVG/1.1/DTD/svg11.dtd">
<svg xmlns:xlink="http://www.w3.org/1999/xlink" width="288pt" height="120pt" viewBox="0 0 288 120" xmlns="http://www.w3.org/2000/svg" version="1.1">
<desc id="nav-meta">{"window":"3m","count":4,"labels":["25.11","25.12","24.01","23.02"],"tick_utc":["2025-11-25T12:00:00Z","2025-12-25T12:00:00Z","2026-01-24T12:00:00Z","2026-02-23T03:32:23Z"],"w":720,"h":300}</desc>

 <metadata>
  <rdf:RDF xmlns:dc="http://purl.org/dc/elements/1.1/" xmlns:cc="http://creativecommons.org/ns#" xmlns:rdf="http://www.w3.org/1999/02/22-rdf-syntax-ns#">
   <cc:Work>
    <dc:type rdf:resource="http://purl.org/dc/dcmitype/StillImage"/>
    <dc:date>2026-02-23T03:32:26.065817</dc:date>
    <dc:format>image/svg+xml</dc:format>
    <dc:creator>
     <cc:Agent>
      <dc:title>Matplotlib v3.10.8, https://matplotlib.org/</dc:title>
     </cc:Agent>
    </dc:creator>
   </cc:Work>
  </rdf:RDF>
 </metadata>
 <defs>
  <style type="text/css">*{stroke-linejoin: round; stroke-linecap: butt}</style>
 </defs>
 <g id="figure_1">
  <g id="patch_1">
   <path d="M 0 120 
L 288 120 
L 288 0 
L 0 0 
L 0 120 
z
" style="fill: none; opacity: 0"/>
  </g>
  <g id="axes_1">
   <g id="patch_2">
    <path d="M 8.64 108 
L 279.36 108 
L 279.36 4.8 
L 8.64 4.8 
L 8.64 108 
z
" style="fill: none"/>
   </g>
   <g id="matplotlib.axis_1"/>
   <g id="matplotlib.axis_2"/>
   <g id="line2d_1">
    <path d="M 8.64 87.36 
L 279.36 87.36 
" clip-path="url(#pa1d50f52dd)" style="fill: none; stroke: #b2b2b2; stroke-opacity: 0.35; stroke-width: 0.5; stroke-linecap: square"/>
   </g>
   <g id="line2d_2">
    <path d="M 8.64 66.72 
L 279.36 66.72 
" clip-path="url(#pa1d50f52dd)" style="fill: none; stroke: #b2b2b2; stroke-opacity: 0.35; stroke-width: 0.5; stroke-linecap: square"/>
   </g>
   <g id="line2d_3">
    <path d="M 8.64 46.08 
L 279.36 46.08 
" clip-path="url(#pa1d50f52dd)" style="fill: none; stroke: #b2b2b2; stroke-opacity: 0.35; stroke-width: 0.5; stroke-linecap: square"/>
   </g>
   <g id="line2d_4">
    <path d="M 8.64 25.44 
L 279.36 25.44 
" clip-path="url(#pa1d50f52dd)" style="fill: none; stroke: #b2b2b2; stroke-opacity: 0.35; stroke-width: 0.5; stroke-linecap: square"/>
   </g>
   <g id="line2d_5">
    <path d="M 8.64 88.7016 
L 11.659828 88.52616 
L 14.679656 87.45288 
L 17.699484 88.0308 
L 20.719312 88.94928 
L 23.73914 89.3208 
L 26.758968 89.7336 
L 29.778796 91.86984 
L 32.798624 88.60872 
L 35.818452 86.87496 
L 38.83828 88.52616 
L 41.858109 90.11544 
L 44.877937 90.38376 
L 47.897765 90.53856 
L 50.917593 90.08448 
L 53.937421 88.79448 
L 56.957249 89.20728 
L 59.977077 89.22792 
L 62.996905 90.31152 
L 66.016733 90.10512 
L 69.036561 91.09584 
L 72.056389 91.61184 
L 75.076217 91.31256 
L 78.096045 92.87088 
L 81.115873 93.8616 
L 84.135701 92.02464 
L 87.155529 92.13816 
L 90.175357 92.07624 
L 93.195185 92.14848 
L 96.215013 92.64384 
L 99.234841 93.01536 
L 102.254669 93.69648 
L 105.274498 93.11856 
L 108.294326 92.44776 
L 111.314154 92.30328 
L 114.333982 92.87088 
L 117.35381 92.38584 
L 120.373638 92.47872 
L 123.393466 91.88016 
L 126.413294 90.42504 
L 129.433122 90.08448 
L 132.45295 89.92968 
L 135.472778 88.76352 
L 138.492606 87.94824 
L 141.512434 89.2692 
L 144.532262 88.72224 
L 147.55209 89.39304 
L 150.571918 89.40336 
L 153.591746 88.41264 
L 156.611574 88.4952 
L 159.631402 86.86464 
L 162.65123 86.42088 
L 165.671059 87.62832 
L 168.690887 86.93688 
L 171.710715 87.23616 
L 174.730543 88.63968 
L 177.750371 90.0432 
L 180.770199 92.12784 
L 183.790027 91.16808 
L 186.809855 91.46736 
L 189.829683 91.73568 
L 192.849511 91.78728 
L 195.869339 94.0164 
L 198.889167 92.5716 
L 201.908995 91.76664 
L 204.928823 92.33424 
L 207.948651 94.36728 
L 210.968479 94.46016 
L 213.988307 97.71096 
L 217.008135 98.48496 
L 220.027963 97.85544 
L 222.577376 99.10416 
L 224.977196 100.16712 
L 227.995486 102.23112 
L 231.002382 100.54896 
L 234.09124 100.70376 
L 237.086147 100.68312 
L 240.123206 100.95144 
L 243.136778 101.28168 
L 246.145736 101.71512 
L 249.164655 101.84928 
L 252.148169 101.034 
L 255.008652 100.54896 
L 258.222182 101.04432 
L 260.862679 100.81728 
L 264.25705 101.034 
L 267.273208 101.4984 
L 270.275386 101.33328 
L 273.276759 101.1372 
L 276.331085 101.06496 
L 279.36 102.09696 
" clip-path="url(#pa1d50f52dd)" style="fill: none; stroke: #bebebe; stroke-width: 0.5; stroke-linecap: round"/>
   </g>
   <g id="line2d_6">
    <path d="M 8.64 75.76032 
L 11.659828 75.73968 
L 14.679656 74.65608 
L 17.699484 74.83152 
L 20.719312 74.57352 
L 23.73914 75.20304 
L 26.758968 75.17208 
L 29.778796 78.05136 
L 32.798624 75.1308 
L 35.818452 72.16896 
L 38.83828 73.08744 
L 41.858109 74.72832 
L 44.877937 74.48064 
L 47.897765 74.28456 
L 50.917593 73.21128 
L 53.937421 70.2804 
L 56.957249 70.2288 
L 59.977077 71.56008 
L 62.996905 73.79952 
L 66.016733 73.35576 
L 69.036561 74.0988 
L 72.056389 75.5952 
L 75.076217 75.5952 
L 78.096045 77.61792 
L 81.115873 77.63856 
L 84.135701 75.40944 
L 87.155529 75.40944 
L 90.175357 75.04824 
L 93.195185 74.98632 
L 96.215013 75.58488 
L 99.234841 75.87384 
L 102.254669 76.49304 
L 105.274498 76.15248 
L 108.294326 75.82224 
L 111.314154 75.84288 
L 114.333982 76.03896 
L 117.35381 75.51264 
L 120.373638 75.56424 
L 123.393466 75.05856 
L 126.413294 73.26288 
L 129.433122 73.20096 
L 132.45295 73.00488 
L 135.472778 71.68392 
L 138.492606 70.6932 
L 141.512434 72.62304 
L 144.532262 73.52088 
L 147.55209 73.83048 
L 150.571918 73.8408 
L 153.591746 73.29384 
L 156.611574 73.72728 
L 159.631402 70.32168 
L 162.65123 69.77472 
L 165.671059 70.34232 
L 168.690887 70.67256 
L 171.710715 70.51776 
L 174.730543 70.848 
L 177.750371 72.31344 
L 180.770199 76.01832 
L 183.790027 75.41976 
L 186.809855 75.83256 
L 189.829683 75.79128 
L 192.849511 75.82224 
L 195.869339 77.82432 
L 198.889167 76.14216 
L 201.908995 74.75928 
L 204.928823 74.96568 
L 207.948651 77.75208 
L 210.968479 79.48584 
L 213.988307 83.31456 
L 217.008135 85.90488 
L 220.027963 84.79032 
L 222.577376 85.84296 
L 224.977196 88.25784 
L 227.995486 91.41576 
L 231.002382 88.7532 
L 234.09124 88.65 
L 237.086147 88.55712 
L 240.123206 88.96992 
L 243.136778 89.7336 
L 246.145736 90.456 
L 249.164655 90.56952 
L 252.148169 89.15568 
L 255.008652 88.9596 
L 258.222182 90.6624 
L 260.862679 89.94 
L 264.25705 90.00192 
L 267.273208 90.3528 
L 270.275386 90.62112 
L 273.276759 90.5076 
L 276.331085 90.3528 
L 279.36 92.004 
" clip-path="url(#pa1d50f52dd)" style="fill: none; stroke: #4a8dff; stroke-width: 0.6"/>
   </g>
   <g id="line2d_7">
    <path d="M 8.64 85.296 
L 11.659828 86.24544 
L 14.679656 82.96368 
L 17.699484 82.13808 
L 20.719312 82.47864 
L 23.73914 82.58184 
L 26.758968 83.03592 
L 29.778796 87.3084 
L 32.798624 82.06584 
L 35.818452 79.71288 
L 38.83828 81.24024 
L 41.858109 84.17112 
L 44.877937 84.24336 
L 47.897765 83.29392 
L 50.917593 82.8192 
L 53.937421 80.64168 
L 56.957249 81.38472 
L 59.977077 80.87904 
L 62.996905 83.13912 
L 66.016733 83.19072 
L 69.036561 85.296 
L 72.056389 87.17424 
L 75.076217 85.71912 
L 78.096045 87.53544 
L 81.115873 88.17528 
L 84.135701 85.41984 
L 87.155529 85.17216 
L 90.175357 84.9348 
L 93.195185 85.01736 
L 96.215013 86.14224 
L 99.234841 85.90488 
L 102.254669 86.328 
L 105.274498 86.24544 
L 108.294326 85.72944 
L 111.314154 85.7088 
L 114.333982 86.40024 
L 117.35381 85.09992 
L 120.373638 86.02872 
L 123.393466 84.78 
L 126.413294 83.53128 
L 129.433122 82.83984 
L 132.45295 82.03488 
L 135.472778 79.39296 
L 138.492606 79.66128 
L 141.512434 82.15872 
L 144.532262 82.43736 
L 147.55209 82.93272 
L 150.571918 83.00496 
L 153.591746 82.6128 
L 156.611574 82.28256 
L 159.631402 78.01008 
L 162.65123 76.19376 
L 165.671059 77.66952 
L 168.690887 77.74176 
L 171.710715 78.1752 
L 174.730543 79.5684 
L 177.750371 80.8068 
L 180.770199 85.20312 
L 183.790027 84.12984 
L 186.809855 84.03696 
L 189.829683 84.06792 
L 192.849511 84.3156 
L 195.869339 87.02976 
L 198.889167 85.21344 
L 201.908995 84.28464 
L 204.928823 84.32592 
L 207.948651 89.08344 
L 210.968479 89.5272 
L 213.988307 95.14128 
L 217.008135 96.98856 
L 220.027963 95.08968 
L 222.577376 97.71096 
L 224.977196 99.80592 
L 227.995486 101.79768 
L 231.002382 100.03296 
L 234.09124 100.518 
L 237.086147 99.98136 
L 240.123206 100.49736 
L 243.136778 100.78632 
L 246.145736 101.07528 
L 249.164655 101.26104 
L 252.148169 100.63152 
L 255.008652 100.38384 
L 258.222182 100.84824 
L 260.862679 100.65216 
L 264.25705 101.034 
L 267.273208 101.19912 
L 270.275386 101.10624 
L 273.276759 100.97208 
L 276.331085 100.91016 
L 279.36 101.7564 
" clip-path="url(#pa1d50f52dd)" style="fill: none; stroke: #f5841e; stroke-width: 0.6"/>
   </g>
  </g>
 </g>
 <defs>
  <clipPath id="pa1d50f52dd">
   <rect x="8.64" y="4.8" width="270.72" height="103.2"/>
  </clipPath>
 </defs>
</svg>
