<?xml version="1.0" encoding="utf-8" standalone="no"?>
<!DOCTYPE svg PUBLIC "-//W3C//DTD SVG 1.1//EN"
  "http://www.w3.org/Graphics/SVG/1.1/DTD/svg11.dtd">
<svg xmlns:xlink="http://www.w3.org/1999/xlink" width="288pt" height="120pt" viewBox="0 0 288 120" xmlns="http://www.w3.org/2000/svg" version="1.1">
<desc id="nav-meta">{"window":"3m","count":4,"labels":["29.12","28.01","27.02","29.03"],"tick_utc":["2025-12-29T12:00:00Z","2026-01-28T12:00:00Z","2026-02-27T03:18:03Z","2026-03-29T03:47:09Z"],"w":720,"h":300}</desc>

 <metadata>
  <rdf:RDF xmlns:dc="http://purl.org/dc/elements/1.1/" xmlns:cc="http://creativecommons.org/ns#" xmlns:rdf="http://www.w3.org/1999/02/22-rdf-syntax-ns#">
   <cc:Work>
    <dc:type rdf:resource="http://purl.org/dc/dcmitype/StillImage"/>
    <dc:date>2026-03-29T03:47:11.668158</dc:date>
    <dc:format>image/svg+xml</dc:format>
    <dc:creator>
     <cc:Agent>
      <dc:title>Matplotlib v3.10.8, https://matplotlib.org/</dc:title>
     </cc:Agent>
    </dc:creator>
   </cc:Work>
  </rdf:RDF>
 </metadata>
 <defs>
  <style type="text/css">*{stroke-linejoin: round; stroke-linecap: butt}</style>
 </defs>
 <g id="figure_1">
  <g id="patch_1">
   <path d="M 0 120 
L 288 120 
L 288 0 
L 0 0 
L 0 120 
z
" style="fill: none; opacity: 0"/>
  </g>
  <g id="axes_1">
   <g id="patch_2">
    <path d="M 8.64 108 
L 279.36 108 
L 279.36 4.8 
L 8.64 4.8 
L 8.64 108 
z
" style="fill: none"/>
   </g>
   <g id="matplotlib.axis_1"/>
   <g id="matplotlib.axis_2"/>
   <g id="line2d_1">
    <path d="M 8.64 87.36 
L 279.36 87.36 
" clip-path="url(#p5c31c92f5c)" style="fill: none; stroke: #b2b2b2; stroke-opacity: 0.35; stroke-width: 0.5; stroke-linecap: square"/>
   </g>
   <g id="line2d_2">
    <path d="M 8.64 66.72 
L 279.36 66.72 
" clip-path="url(#p5c31c92f5c)" style="fill: none; stroke: #b2b2b2; stroke-opacity: 0.35; stroke-width: 0.5; stroke-linecap: square"/>
   </g>
   <g id="line2d_3">
    <path d="M 8.64 46.08 
L 279.36 46.08 
" clip-path="url(#p5c31c92f5c)" style="fill: none; stroke: #b2b2b2; stroke-opacity: 0.35; stroke-width: 0.5; stroke-linecap: square"/>
   </g>
   <g id="line2d_4">
    <path d="M 8.64 25.44 
L 279.36 25.44 
" clip-path="url(#p5c31c92f5c)" style="fill: none; stroke: #b2b2b2; stroke-opacity: 0.35; stroke-width: 0.5; stroke-linecap: square"/>
   </g>
   <g id="line2d_5">
    <path d="M 8.64 92.30328 
L 11.659483 92.87088 
L 14.678965 92.38584 
L 17.698448 92.47872 
L 20.717931 91.88016 
L 23.737413 90.42504 
L 26.756896 90.08448 
L 29.776379 89.92968 
L 32.795861 88.76352 
L 35.815344 87.94824 
L 38.834827 89.2692 
L 41.854309 88.72224 
L 44.873792 89.39304 
L 47.893275 89.40336 
L 50.912757 88.41264 
L 53.93224 88.4952 
L 56.951722 86.86464 
L 59.971205 86.42088 
L 62.990688 87.62832 
L 66.01017 86.93688 
L 69.029653 87.23616 
L 72.049136 88.63968 
L 75.068618 90.0432 
L 78.088101 92.12784 
L 81.107584 91.16808 
L 84.127066 91.46736 
L 87.146549 91.73568 
L 90.166032 91.78728 
L 93.185514 94.0164 
L 96.204997 92.5716 
L 99.22448 91.76664 
L 102.243962 92.33424 
L 105.263445 94.36728 
L 108.282928 94.46016 
L 111.30241 97.71096 
L 114.321893 98.48496 
L 117.341376 97.85544 
L 119.890497 99.10416 
L 122.290042 100.16712 
L 125.307987 102.23112 
L 128.314539 100.54896 
L 131.403043 100.70376 
L 134.397608 100.68312 
L 137.43432 100.95144 
L 140.447547 101.28168 
L 143.456161 101.71512 
L 146.474735 101.84928 
L 149.457907 101.034 
L 152.318063 100.54896 
L 155.531226 101.04432 
L 158.171421 100.81728 
L 161.565403 101.034 
L 164.581217 101.4984 
L 167.583051 101.33328 
L 170.584081 101.1372 
L 173.638057 101.06496 
L 176.666626 102.09696 
L 179.431025 102.05568 
L 182.694723 101.4984 
L 185.70075 100.60056 
L 188.714502 100.80696 
L 191.698408 101.45712 
L 194.786493 100.55928 
L 197.774802 101.10624 
L 200.801309 100.8792 
L 203.803877 100.74504 
L 206.82986 100.21872 
L 209.84791 100.53864 
L 212.844222 101.07528 
L 215.893026 101.38488 
L 218.92156 101.26104 
L 221.921647 100.78632 
L 224.939941 100.91016 
L 227.971306 100.99272 
L 230.984952 100.38384 
L 234.000416 100.50768 
L 237.077667 100.60056 
L 240.105677 99.76464 
L 243.072319 99.49632 
L 246.114832 99.40344 
L 249.135153 100.09488 
L 252.125245 100.3632 
L 255.127044 100.19808 
L 258.191679 100.47672 
L 261.218256 100.79664 
L 264.209781 100.26 
L 267.454152 99.83688 
L 270.285476 100.13616 
L 273.308768 100.80696 
L 276.299384 101.38488 
L 279.36 101.3436 
" clip-path="url(#p5c31c92f5c)" style="fill: none; stroke: #bebebe; stroke-width: 0.5; stroke-linecap: round"/>
   </g>
   <g id="line2d_6">
    <path d="M 8.64 75.84288 
L 11.659483 76.03896 
L 14.678965 75.51264 
L 17.698448 75.56424 
L 20.717931 75.05856 
L 23.737413 73.26288 
L 26.756896 73.20096 
L 29.776379 73.00488 
L 32.795861 71.68392 
L 35.815344 70.6932 
L 38.834827 72.62304 
L 41.854309 73.52088 
L 44.873792 73.83048 
L 47.893275 73.8408 
L 50.912757 73.29384 
L 53.93224 73.72728 
L 56.951722 70.32168 
L 59.971205 69.77472 
L 62.990688 70.34232 
L 66.01017 70.67256 
L 69.029653 70.51776 
L 72.049136 70.848 
L 75.068618 72.31344 
L 78.088101 76.01832 
L 81.107584 75.41976 
L 84.127066 75.83256 
L 87.146549 75.79128 
L 90.166032 75.82224 
L 93.185514 77.82432 
L 96.204997 76.14216 
L 99.22448 74.75928 
L 102.243962 74.96568 
L 105.263445 77.75208 
L 108.282928 79.48584 
L 111.30241 83.31456 
L 114.321893 85.90488 
L 117.341376 84.79032 
L 119.890497 85.84296 
L 122.290042 88.25784 
L 125.307987 91.41576 
L 128.314539 88.7532 
L 131.403043 88.65 
L 134.397608 88.55712 
L 137.43432 88.96992 
L 140.447547 89.7336 
L 143.456161 90.456 
L 146.474735 90.56952 
L 149.457907 89.15568 
L 152.318063 88.9596 
L 155.531226 90.6624 
L 158.171421 89.94 
L 161.565403 90.00192 
L 164.581217 90.3528 
L 167.583051 90.62112 
L 170.584081 90.5076 
L 173.638057 90.3528 
L 176.666626 92.004 
L 179.431025 92.13816 
L 182.694723 91.25064 
L 185.70075 89.166 
L 188.714502 89.56848 
L 191.698408 90.93072 
L 194.786493 89.41368 
L 197.774802 90.37344 
L 200.801309 89.79552 
L 203.803877 90.23928 
L 206.82986 88.0824 
L 209.84791 88.7532 
L 212.844222 90.16704 
L 215.893026 90.67272 
L 218.92156 90.18768 
L 221.921647 89.2692 
L 224.939941 89.54784 
L 227.971306 89.49624 
L 230.984952 88.31976 
L 234.000416 88.45392 
L 237.077667 88.46424 
L 240.105677 86.38992 
L 243.072319 84.80064 
L 246.114832 84.8316 
L 249.135153 86.586 
L 252.125245 87.74184 
L 255.127044 87.618 
L 258.191679 88.19592 
L 261.218256 89.08344 
L 264.209781 87.89664 
L 267.454152 87.3084 
L 270.285476 87.65928 
L 273.308768 88.96992 
L 276.299384 90.07416 
L 279.36 89.76456 
" clip-path="url(#p5c31c92f5c)" style="fill: none; stroke: #4a8dff; stroke-width: 0.6"/>
   </g>
   <g id="line2d_7">
    <path d="M 8.64 85.7088 
L 11.659483 86.40024 
L 14.678965 85.09992 
L 17.698448 86.02872 
L 20.717931 84.78 
L 23.737413 83.53128 
L 26.756896 82.83984 
L 29.776379 82.03488 
L 32.795861 79.39296 
L 35.815344 79.66128 
L 38.834827 82.15872 
L 41.854309 82.43736 
L 44.873792 82.93272 
L 47.893275 83.00496 
L 50.912757 82.6128 
L 53.93224 82.28256 
L 56.951722 78.01008 
L 59.971205 76.19376 
L 62.990688 77.66952 
L 66.01017 77.74176 
L 69.029653 78.1752 
L 72.049136 79.5684 
L 75.068618 80.8068 
L 78.088101 85.20312 
L 81.107584 84.12984 
L 84.127066 84.03696 
L 87.146549 84.06792 
L 90.166032 84.3156 
L 93.185514 87.02976 
L 96.204997 85.21344 
L 99.22448 84.28464 
L 102.243962 84.32592 
L 105.263445 89.08344 
L 108.282928 89.5272 
L 111.30241 95.14128 
L 114.321893 96.98856 
L 117.341376 95.08968 
L 119.890497 97.71096 
L 122.290042 99.80592 
L 125.307987 101.79768 
L 128.314539 100.03296 
L 131.403043 100.518 
L 134.397608 99.98136 
L 137.43432 100.49736 
L 140.447547 100.78632 
L 143.456161 101.07528 
L 146.474735 101.26104 
L 149.457907 100.63152 
L 152.318063 100.38384 
L 155.531226 100.84824 
L 158.171421 100.65216 
L 161.565403 101.034 
L 164.581217 101.19912 
L 167.583051 101.10624 
L 170.584081 100.97208 
L 173.638057 100.91016 
L 176.666626 101.7564 
L 179.431025 101.84928 
L 182.694723 101.56032 
L 185.70075 100.85856 
L 188.714502 101.12688 
L 191.698408 101.4468 
L 194.786493 101.02368 
L 197.774802 101.30232 
L 200.801309 100.81728 
L 203.803877 100.79664 
L 206.82986 99.3312 
L 209.84791 99.92976 
L 212.844222 100.78632 
L 215.893026 101.17848 
L 218.92156 101.1372 
L 221.921647 100.21872 
L 224.939941 100.37352 
L 227.971306 100.4664 
L 230.984952 99.88848 
L 234.000416 99.94008 
L 237.077667 99.81624 
L 240.105677 98.93904 
L 243.072319 98.3508 
L 246.114832 98.52624 
L 249.135153 99.78528 
L 252.125245 100.12584 
L 255.127044 100.03296 
L 258.191679 100.45608 
L 261.218256 100.83792 
L 264.209781 100.11552 
L 267.454152 99.87816 
L 270.285476 100.002 
L 273.308768 100.64184 
L 276.299384 101.41584 
L 279.36 101.21976 
" clip-path="url(#p5c31c92f5c)" style="fill: none; stroke: #f5841e; stroke-width: 0.6"/>
   </g>
  </g>
 </g>
 <defs>
  <clipPath id="p5c31c92f5c">
   <rect x="8.64" y="4.8" width="270.72" height="103.2"/>
  </clipPath>
 </defs>
</svg>
