<?xml version="1.0" encoding="utf-8" standalone="no"?>
<!DOCTYPE svg PUBLIC "-//W3C//DTD SVG 1.1//EN"
  "http://www.w3.org/Graphics/SVG/1.1/DTD/svg11.dtd">
<svg xmlns:xlink="http://www.w3.org/1999/xlink" width="288pt" height="120pt" viewBox="0 0 288 120" xmlns="http://www.w3.org/2000/svg" version="1.1">
<desc id="nav-meta">{"window":"3m","count":4,"labels":["25.03","24.04","24.05","23.06"],"tick_utc":["2026-03-25T05:09:13Z","2026-04-24T04:01:18Z","2026-05-24T04:51:26Z","2026-06-23T04:45:28Z"],"w":720,"h":300}</desc>

 <metadata>
  <rdf:RDF xmlns:dc="http://purl.org/dc/elements/1.1/" xmlns:cc="http://creativecommons.org/ns#" xmlns:rdf="http://www.w3.org/1999/02/22-rdf-syntax-ns#">
   <cc:Work>
    <dc:type rdf:resource="http://purl.org/dc/dcmitype/StillImage"/>
    <dc:date>2026-06-23T04:45:29.795233</dc:date>
    <dc:format>image/svg+xml</dc:format>
    <dc:creator>
     <cc:Agent>
      <dc:title>Matplotlib v3.11.0, https://matplotlib.org/</dc:title>
     </cc:Agent>
    </dc:creator>
   </cc:Work>
  </rdf:RDF>
 </metadata>
 <defs>
  <style type="text/css">*{stroke-linejoin: round; stroke-linecap: butt}</style>
 </defs>
 <g id="figure_1">
  <g id="patch_1">
   <path d="M 0 120 
L 288 120 
L 288 0 
L 0 0 
L 0 120 
z
" style="fill: none; opacity: 0"/>
  </g>
  <g id="axes_1">
   <g id="patch_2">
    <path d="M 8.64 108 
L 279.36 108 
L 279.36 4.8 
L 8.64 4.8 
L 8.64 108 
z
" style="fill: none"/>
   </g>
   <g id="matplotlib.axis_1"/>
   <g id="matplotlib.axis_2"/>
   <g id="line2d_1">
    <path d="M 8.64 87.36 
L 279.36 87.36 
" clip-path="url(#p035f6ed784)" style="fill: none; stroke: #b2b2b2; stroke-opacity: 0.35; stroke-width: 0.5; stroke-linecap: square"/>
   </g>
   <g id="line2d_2">
    <path d="M 8.64 66.72 
L 279.36 66.72 
" clip-path="url(#p035f6ed784)" style="fill: none; stroke: #b2b2b2; stroke-opacity: 0.35; stroke-width: 0.5; stroke-linecap: square"/>
   </g>
   <g id="line2d_3">
    <path d="M 8.64 46.08 
L 279.36 46.08 
" clip-path="url(#p035f6ed784)" style="fill: none; stroke: #b2b2b2; stroke-opacity: 0.35; stroke-width: 0.5; stroke-linecap: square"/>
   </g>
   <g id="line2d_4">
    <path d="M 8.64 25.44 
L 279.36 25.44 
" clip-path="url(#p035f6ed784)" style="fill: none; stroke: #b2b2b2; stroke-opacity: 0.35; stroke-width: 0.5; stroke-linecap: square"/>
   </g>
   <g id="line2d_5">
    <path d="M 8.64 99.83688 
L 11.461074 100.13616 
L 14.473421 100.80696 
L 17.45321 101.38488 
L 20.502746 101.3436 
L 23.519898 101.292 
L 26.509472 101.28168 
L 29.543826 101.28168 
L 32.51275 101.8596 
L 35.524749 101.88024 
L 38.507533 101.72544 
L 41.561386 101.68416 
L 44.577703 101.47776 
L 47.566719 101.78736 
L 50.580146 101.09592 
L 53.578216 101.46744 
L 56.61445 101.3436 
L 59.577003 101.05464 
L 62.639527 101.3952 
L 65.663504 101.47776 
L 68.652904 100.86888 
L 71.659157 101.26104 
L 74.680731 100.99272 
L 77.683154 100.61088 
L 80.658521 100.44576 
L 83.706803 100.94112 
L 86.722806 101.09592 
L 89.71816 101.00304 
L 92.71738 100.69344 
L 95.738118 100.9308 
L 98.754644 100.92048 
L 101.727294 100.81728 
L 104.782645 100.8792 
L 107.823615 100.64184 
L 110.838469 101.1888 
L 113.838803 101.09592 
L 116.852403 101.37456 
L 119.893826 101.21976 
L 122.825596 101.20944 
L 125.895224 101.23008 
L 128.902731 100.92048 
L 131.845017 101.06496 
L 134.906567 100.70376 
L 137.915919 100.55928 
L 140.874397 100.53864 
L 143.893952 99.60984 
L 146.963127 99.72336 
L 149.995426 99.44472 
L 152.962192 99.25896 
L 155.985055 99.32088 
L 158.990264 100.22904 
L 162.013649 100.01232 
L 164.983792 100.43544 
L 168.037263 100.75536 
L 171.075029 101.02368 
L 174.062026 101.02368 
L 177.081338 101.17848 
L 180.107021 100.7244 
L 183.092521 100.75536 
L 186.059739 101.11656 
L 189.115926 100.91016 
L 192.164069 100.89984 
L 195.127039 101.1372 
L 198.166477 101.2404 
L 201.165418 101.6532 
L 204.176198 101.4984 
L 207.141362 101.48808 
L 210.211338 101.32296 
L 213.264391 101.51904 
L 216.243344 101.7048 
L 219.285741 102.54072 
L 222.283986 103.08768 
L 225.242986 103.36632 
L 228.205295 104.22288 
L 231.27851 103.85136 
L 234.300363 103.68624 
L 237.251494 103.43856 
L 240.291245 103.81008 
L 243.317451 103.72752 
L 246.337806 103.50048 
L 249.324351 103.5108 
L 252.354735 103.31472 
L 255.463293 102.95352 
L 258.489011 102.61296 
L 261.401734 102.6336 
L 264.39587 102.9948 
L 267.475282 103.28376 
L 270.363526 103.01544 
L 273.434686 102.69552 
L 276.5313 102.582 
L 279.36 102.88128 
" clip-path="url(#p035f6ed784)" style="fill: none; stroke: #bebebe; stroke-width: 0.5; stroke-linecap: round"/>
   </g>
   <g id="line2d_6">
    <path d="M 8.64 87.3084 
L 11.461074 87.65928 
L 14.473421 88.96992 
L 17.45321 90.07416 
L 20.502746 89.76456 
L 23.519898 89.3724 
L 26.509472 89.00088 
L 29.543826 88.42296 
L 32.51275 88.81512 
L 35.524749 89.10408 
L 38.507533 89.14536 
L 41.561386 89.07312 
L 44.577703 87.9792 
L 47.566719 88.29912 
L 50.580146 86.38992 
L 53.578216 87.24648 
L 56.61445 87.1536 
L 59.577003 86.21448 
L 62.639527 86.66856 
L 65.663504 87.01944 
L 68.652904 84.44976 
L 71.659157 85.05864 
L 74.680731 84.58392 
L 77.683154 85.04832 
L 80.658521 83.71704 
L 83.706803 84.86256 
L 86.722806 85.6572 
L 89.71816 85.27536 
L 92.71738 84.49104 
L 95.738118 84.86256 
L 98.754644 85.32696 
L 101.727294 85.17216 
L 104.782645 85.31664 
L 107.823615 84.11952 
L 110.838469 85.66752 
L 113.838803 85.26504 
L 116.852403 86.26608 
L 119.893826 85.77072 
L 122.825596 85.38888 
L 125.895224 85.3992 
L 128.902731 84.09888 
L 131.845017 84.22272 
L 134.906567 84.34656 
L 137.915919 85.06896 
L 140.874397 85.7604 
L 143.893952 85.0896 
L 146.963127 85.01736 
L 149.995426 84.9348 
L 152.962192 85.296 
L 155.985055 85.35792 
L 158.990264 86.1732 
L 162.013649 85.92552 
L 164.983792 86.55504 
L 168.037263 87.13296 
L 171.075029 88.10304 
L 174.062026 87.9276 
L 177.081338 88.26816 
L 180.107021 87.78312 
L 183.092521 87.95856 
L 186.059739 88.94928 
L 189.115926 88.14432 
L 192.164069 88.33008 
L 195.127039 88.52616 
L 198.166477 88.86672 
L 201.165418 90.22896 
L 204.176198 89.82648 
L 207.141362 89.87808 
L 210.211338 89.46528 
L 213.264391 90.0432 
L 216.243344 89.96064 
L 219.285741 91.99368 
L 222.283986 93.05664 
L 225.242986 93.74808 
L 228.205295 97.02984 
L 231.27851 95.93592 
L 234.300363 95.07936 
L 237.251494 94.46016 
L 240.291245 95.47152 
L 243.317451 95.11032 
L 246.337806 94.82136 
L 249.324351 94.8936 
L 252.354735 94.70784 
L 255.463293 94.04736 
L 258.489011 93.40752 
L 261.401734 92.9844 
L 264.39587 93.93384 
L 267.475282 94.4292 
L 270.363526 94.19184 
L 273.434686 93.87192 
L 276.5313 93.81 
L 279.36 94.03704 
" clip-path="url(#p035f6ed784)" style="fill: none; stroke: #4a8dff; stroke-width: 0.6"/>
   </g>
   <g id="line2d_7">
    <path d="M 8.64 99.87816 
L 11.461074 100.002 
L 14.473421 100.64184 
L 17.45321 101.41584 
L 20.502746 101.21976 
L 23.519898 101.14752 
L 26.509472 101.00304 
L 29.543826 100.86888 
L 32.51275 101.21976 
L 35.524749 101.28168 
L 38.507533 101.20944 
L 41.561386 101.14752 
L 44.577703 100.55928 
L 47.566719 100.65216 
L 50.580146 99.80592 
L 53.578216 99.96072 
L 56.61445 99.6408 
L 59.577003 99.1764 
L 62.639527 99.70272 
L 65.663504 99.94008 
L 68.652904 98.57784 
L 71.659157 98.65008 
L 74.680731 98.38176 
L 77.683154 98.48496 
L 80.658521 96.70992 
L 83.706803 98.05152 
L 86.722806 98.48496 
L 89.71816 97.96896 
L 92.71738 96.32808 
L 95.738118 96.20424 
L 98.754644 96.16296 
L 101.727294 96.1836 
L 104.782645 96.50352 
L 107.823615 94.76976 
L 110.838469 97.19496 
L 113.838803 96.9576 
L 116.852403 97.9896 
L 119.893826 96.89568 
L 122.825596 95.45088 
L 125.895224 95.67792 
L 128.902731 93.43848 
L 131.845017 92.90184 
L 134.906567 92.25168 
L 137.915919 92.87088 
L 140.874397 94.2744 
L 143.893952 93.1392 
L 146.963127 92.97408 
L 149.995426 92.9844 
L 152.962192 92.60256 
L 155.985055 92.53032 
L 158.990264 94.54272 
L 162.013649 92.85024 
L 164.983792 94.82136 
L 168.037263 95.75016 
L 171.075029 96.97824 
L 174.062026 97.08144 
L 177.081338 97.23624 
L 180.107021 95.94624 
L 183.092521 96.30744 
L 186.059739 98.08248 
L 189.115926 97.2672 
L 192.164069 96.61704 
L 195.127039 97.23624 
L 198.166477 98.08248 
L 201.165418 99.18672 
L 204.176198 99.03192 
L 207.141362 99.1248 
L 210.211338 98.74296 
L 213.264391 99.09384 
L 216.243344 100.0536 
L 219.285741 101.23008 
L 222.283986 101.99376 
L 225.242986 102.08664 
L 228.205295 102.8916 
L 231.27851 102.45816 
L 234.300363 102.28272 
L 237.251494 102.10728 
L 240.291245 102.582 
L 243.317451 102.29304 
L 246.337806 102.08664 
L 249.324351 102.066 
L 252.354735 101.86992 
L 255.463293 101.48808 
L 258.489011 101.40552 
L 261.401734 101.4984 
L 264.39587 101.97312 
L 267.475282 102.26208 
L 270.363526 102.066 
L 273.434686 101.90088 
L 276.5313 101.90088 
L 279.36 102.0144 
" clip-path="url(#p035f6ed784)" style="fill: none; stroke: #f5841e; stroke-width: 0.6"/>
   </g>
  </g>
 </g>
 <defs>
  <clipPath id="p035f6ed784">
   <rect x="8.64" y="4.8" width="270.72" height="103.2"/>
  </clipPath>
 </defs>
</svg>
