<?xml version="1.0" encoding="utf-8" standalone="no"?>
<!DOCTYPE svg PUBLIC "-//W3C//DTD SVG 1.1//EN"
  "http://www.w3.org/Graphics/SVG/1.1/DTD/svg11.dtd">
<svg xmlns:xlink="http://www.w3.org/1999/xlink" width="288pt" height="120pt" viewBox="0 0 288 120" xmlns="http://www.w3.org/2000/svg" version="1.1">
<desc id="nav-meta">{"window":"3m","count":4,"labels":["24.01","23.02","25.03","24.04"],"tick_utc":["2026-01-24T12:00:00Z","2026-02-23T03:32:23Z","2026-03-25T05:09:13Z","2026-04-24T04:01:18Z"],"w":720,"h":300}</desc>

 <metadata>
  <rdf:RDF xmlns:dc="http://purl.org/dc/elements/1.1/" xmlns:cc="http://creativecommons.org/ns#" xmlns:rdf="http://www.w3.org/1999/02/22-rdf-syntax-ns#">
   <cc:Work>
    <dc:type rdf:resource="http://purl.org/dc/dcmitype/StillImage"/>
    <dc:date>2026-04-24T04:01:21.389838</dc:date>
    <dc:format>image/svg+xml</dc:format>
    <dc:creator>
     <cc:Agent>
      <dc:title>Matplotlib v3.10.9, https://matplotlib.org/</dc:title>
     </cc:Agent>
    </dc:creator>
   </cc:Work>
  </rdf:RDF>
 </metadata>
 <defs>
  <style type="text/css">*{stroke-linejoin: round; stroke-linecap: butt}</style>
 </defs>
 <g id="figure_1">
  <g id="patch_1">
   <path d="M 0 120 
L 288 120 
L 288 0 
L 0 0 
L 0 120 
z
" style="fill: none; opacity: 0"/>
  </g>
  <g id="axes_1">
   <g id="patch_2">
    <path d="M 8.64 108 
L 279.36 108 
L 279.36 4.8 
L 8.64 4.8 
L 8.64 108 
z
" style="fill: none"/>
   </g>
   <g id="matplotlib.axis_1"/>
   <g id="matplotlib.axis_2"/>
   <g id="line2d_1">
    <path d="M 8.64 87.36 
L 279.36 87.36 
" clip-path="url(#p2882aa57c2)" style="fill: none; stroke: #b2b2b2; stroke-opacity: 0.35; stroke-width: 0.5; stroke-linecap: square"/>
   </g>
   <g id="line2d_2">
    <path d="M 8.64 66.72 
L 279.36 66.72 
" clip-path="url(#p2882aa57c2)" style="fill: none; stroke: #b2b2b2; stroke-opacity: 0.35; stroke-width: 0.5; stroke-linecap: square"/>
   </g>
   <g id="line2d_3">
    <path d="M 8.64 46.08 
L 279.36 46.08 
" clip-path="url(#p2882aa57c2)" style="fill: none; stroke: #b2b2b2; stroke-opacity: 0.35; stroke-width: 0.5; stroke-linecap: square"/>
   </g>
   <g id="line2d_4">
    <path d="M 8.64 25.44 
L 279.36 25.44 
" clip-path="url(#p2882aa57c2)" style="fill: none; stroke: #b2b2b2; stroke-opacity: 0.35; stroke-width: 0.5; stroke-linecap: square"/>
   </g>
   <g id="line2d_5">
    <path d="M 8.64 91.73568 
L 11.659152 91.78728 
L 14.678304 94.0164 
L 17.697455 92.5716 
L 20.716607 91.76664 
L 23.735759 92.33424 
L 26.754911 94.36728 
L 29.774062 94.46016 
L 32.793214 97.71096 
L 35.812366 98.48496 
L 38.831518 97.85544 
L 41.38036 99.10416 
L 43.779642 100.16712 
L 46.797256 102.23112 
L 49.803478 100.54896 
L 52.891644 100.70376 
L 55.885881 100.68312 
L 58.92226 100.95144 
L 61.935157 101.28168 
L 64.943441 101.71512 
L 67.961685 101.84928 
L 70.94453 101.034 
L 73.804372 100.54896 
L 77.017183 101.04432 
L 79.657089 100.81728 
L 83.050699 101.034 
L 86.066182 101.4984 
L 89.067687 101.33328 
L 92.068388 101.1372 
L 95.12203 101.06496 
L 98.150267 102.09696 
L 100.914363 102.05568 
L 104.177703 101.4984 
L 107.183401 100.60056 
L 110.196822 100.80696 
L 113.180401 101.45712 
L 116.268148 100.55928 
L 119.256129 101.10624 
L 122.282305 100.8792 
L 125.284544 100.74504 
L 128.310195 100.21872 
L 131.327914 100.53864 
L 134.323898 101.07528 
L 137.372368 101.38488 
L 140.40057 101.26104 
L 143.400328 100.78632 
L 146.418292 100.91016 
L 149.449324 100.99272 
L 152.46264 100.38384 
L 155.477774 100.50768 
L 158.554688 100.60056 
L 161.582366 99.76464 
L 164.548682 99.49632 
L 167.590862 99.40344 
L 170.610853 100.09488 
L 173.600616 100.3632 
L 176.602087 100.19808 
L 179.666386 100.47672 
L 182.692631 100.79664 
L 185.683828 100.26 
L 188.927844 99.83688 
L 191.758857 100.13616 
L 194.781818 100.80696 
L 197.772106 101.38488 
L 200.832387 101.3436 
L 203.86017 101.292 
L 206.860277 101.28168 
L 209.905322 101.28168 
L 212.884708 101.8596 
L 215.907319 101.88024 
L 218.900612 101.72544 
L 221.965226 101.68416 
L 224.99217 101.47776 
L 227.991719 101.78736 
L 231.015763 101.09592 
L 234.024396 101.46744 
L 237.071328 101.3436 
L 240.044319 101.05464 
L 243.117634 101.3952 
L 246.152266 101.47776 
L 249.152199 100.86888 
L 252.169044 101.26104 
L 255.201265 100.99272 
L 258.214266 100.61088 
L 261.200117 100.44576 
L 264.259139 100.94112 
L 267.285769 101.09592 
L 270.291677 101.00304 
L 273.301464 100.69344 
L 276.332846 100.9308 
L 279.36 100.92048 
" clip-path="url(#p2882aa57c2)" style="fill: none; stroke: #bebebe; stroke-width: 0.5; stroke-linecap: round"/>
   </g>
   <g id="line2d_6">
    <path d="M 8.64 75.79128 
L 11.659152 75.82224 
L 14.678304 77.82432 
L 17.697455 76.14216 
L 20.716607 74.75928 
L 23.735759 74.96568 
L 26.754911 77.75208 
L 29.774062 79.48584 
L 32.793214 83.31456 
L 35.812366 85.90488 
L 38.831518 84.79032 
L 41.38036 85.84296 
L 43.779642 88.25784 
L 46.797256 91.41576 
L 49.803478 88.7532 
L 52.891644 88.65 
L 55.885881 88.55712 
L 58.92226 88.96992 
L 61.935157 89.7336 
L 64.943441 90.456 
L 67.961685 90.56952 
L 70.94453 89.15568 
L 73.804372 88.9596 
L 77.017183 90.6624 
L 79.657089 89.94 
L 83.050699 90.00192 
L 86.066182 90.3528 
L 89.067687 90.62112 
L 92.068388 90.5076 
L 95.12203 90.3528 
L 98.150267 92.004 
L 100.914363 92.13816 
L 104.177703 91.25064 
L 107.183401 89.166 
L 110.196822 89.56848 
L 113.180401 90.93072 
L 116.268148 89.41368 
L 119.256129 90.37344 
L 122.282305 89.79552 
L 125.284544 90.23928 
L 128.310195 88.0824 
L 131.327914 88.7532 
L 134.323898 90.16704 
L 137.372368 90.67272 
L 140.40057 90.18768 
L 143.400328 89.2692 
L 146.418292 89.54784 
L 149.449324 89.49624 
L 152.46264 88.31976 
L 155.477774 88.45392 
L 158.554688 88.46424 
L 161.582366 86.38992 
L 164.548682 84.80064 
L 167.590862 84.8316 
L 170.610853 86.586 
L 173.600616 87.74184 
L 176.602087 87.618 
L 179.666386 88.19592 
L 182.692631 89.08344 
L 185.683828 87.89664 
L 188.927844 87.3084 
L 191.758857 87.65928 
L 194.781818 88.96992 
L 197.772106 90.07416 
L 200.832387 89.76456 
L 203.86017 89.3724 
L 206.860277 89.00088 
L 209.905322 88.42296 
L 212.884708 88.81512 
L 215.907319 89.10408 
L 218.900612 89.14536 
L 221.965226 89.07312 
L 224.99217 87.9792 
L 227.991719 88.29912 
L 231.015763 86.38992 
L 234.024396 87.24648 
L 237.071328 87.1536 
L 240.044319 86.21448 
L 243.117634 86.66856 
L 246.152266 87.01944 
L 249.152199 84.44976 
L 252.169044 85.05864 
L 255.201265 84.58392 
L 258.214266 85.04832 
L 261.200117 83.71704 
L 264.259139 84.86256 
L 267.285769 85.6572 
L 270.291677 85.27536 
L 273.301464 84.49104 
L 276.332846 84.86256 
L 279.36 85.32696 
" clip-path="url(#p2882aa57c2)" style="fill: none; stroke: #4a8dff; stroke-width: 0.6"/>
   </g>
   <g id="line2d_7">
    <path d="M 8.64 84.06792 
L 11.659152 84.3156 
L 14.678304 87.02976 
L 17.697455 85.21344 
L 20.716607 84.28464 
L 23.735759 84.32592 
L 26.754911 89.08344 
L 29.774062 89.5272 
L 32.793214 95.14128 
L 35.812366 96.98856 
L 38.831518 95.08968 
L 41.38036 97.71096 
L 43.779642 99.80592 
L 46.797256 101.79768 
L 49.803478 100.03296 
L 52.891644 100.518 
L 55.885881 99.98136 
L 58.92226 100.49736 
L 61.935157 100.78632 
L 64.943441 101.07528 
L 67.961685 101.26104 
L 70.94453 100.63152 
L 73.804372 100.38384 
L 77.017183 100.84824 
L 79.657089 100.65216 
L 83.050699 101.034 
L 86.066182 101.19912 
L 89.067687 101.10624 
L 92.068388 100.97208 
L 95.12203 100.91016 
L 98.150267 101.7564 
L 100.914363 101.84928 
L 104.177703 101.56032 
L 107.183401 100.85856 
L 110.196822 101.12688 
L 113.180401 101.4468 
L 116.268148 101.02368 
L 119.256129 101.30232 
L 122.282305 100.81728 
L 125.284544 100.79664 
L 128.310195 99.3312 
L 131.327914 99.92976 
L 134.323898 100.78632 
L 137.372368 101.17848 
L 140.40057 101.1372 
L 143.400328 100.21872 
L 146.418292 100.37352 
L 149.449324 100.4664 
L 152.46264 99.88848 
L 155.477774 99.94008 
L 158.554688 99.81624 
L 161.582366 98.93904 
L 164.548682 98.3508 
L 167.590862 98.52624 
L 170.610853 99.78528 
L 173.600616 100.12584 
L 176.602087 100.03296 
L 179.666386 100.45608 
L 182.692631 100.83792 
L 185.683828 100.11552 
L 188.927844 99.87816 
L 191.758857 100.002 
L 194.781818 100.64184 
L 197.772106 101.41584 
L 200.832387 101.21976 
L 203.86017 101.14752 
L 206.860277 101.00304 
L 209.905322 100.86888 
L 212.884708 101.21976 
L 215.907319 101.28168 
L 218.900612 101.20944 
L 221.965226 101.14752 
L 224.99217 100.55928 
L 227.991719 100.65216 
L 231.015763 99.80592 
L 234.024396 99.96072 
L 237.071328 99.6408 
L 240.044319 99.1764 
L 243.117634 99.70272 
L 246.152266 99.94008 
L 249.152199 98.57784 
L 252.169044 98.65008 
L 255.201265 98.38176 
L 258.214266 98.48496 
L 261.200117 96.70992 
L 264.259139 98.05152 
L 267.285769 98.48496 
L 270.291677 97.96896 
L 273.301464 96.32808 
L 276.332846 96.20424 
L 279.36 96.16296 
" clip-path="url(#p2882aa57c2)" style="fill: none; stroke: #f5841e; stroke-width: 0.6"/>
   </g>
  </g>
 </g>
 <defs>
  <clipPath id="p2882aa57c2">
   <rect x="8.64" y="4.8" width="270.72" height="103.2"/>
  </clipPath>
 </defs>
</svg>
