<?xml version="1.0" encoding="utf-8" standalone="no"?>
<!DOCTYPE svg PUBLIC "-//W3C//DTD SVG 1.1//EN"
  "http://www.w3.org/Graphics/SVG/1.1/DTD/svg11.dtd">
<svg xmlns:xlink="http://www.w3.org/1999/xlink" width="288pt" height="120pt" viewBox="0 0 288 120" xmlns="http://www.w3.org/2000/svg" version="1.1">
<desc id="nav-meta">{"window":"3m","count":4,"labels":["13.03","12.04","11.05","10.06"],"tick_utc":["2026-03-13T03:16:57Z","2026-04-12T03:55:19Z","2026-05-11T04:46:58Z","2026-06-10T05:05:46Z"],"w":720,"h":300}</desc>

 <metadata>
  <rdf:RDF xmlns:dc="http://purl.org/dc/elements/1.1/" xmlns:cc="http://creativecommons.org/ns#" xmlns:rdf="http://www.w3.org/1999/02/22-rdf-syntax-ns#">
   <cc:Work>
    <dc:type rdf:resource="http://purl.org/dc/dcmitype/StillImage"/>
    <dc:date>2026-06-10T21:13:15.627221</dc:date>
    <dc:format>image/svg+xml</dc:format>
    <dc:creator>
     <cc:Agent>
      <dc:title>Matplotlib v3.10.9, https://matplotlib.org/</dc:title>
     </cc:Agent>
    </dc:creator>
   </cc:Work>
  </rdf:RDF>
 </metadata>
 <defs>
  <style type="text/css">*{stroke-linejoin: round; stroke-linecap: butt}</style>
 </defs>
 <g id="figure_1">
  <g id="patch_1">
   <path d="M 0 120 
L 288 120 
L 288 0 
L 0 0 
L 0 120 
z
" style="fill: none; opacity: 0"/>
  </g>
  <g id="axes_1">
   <g id="patch_2">
    <path d="M 8.64 108 
L 279.36 108 
L 279.36 4.8 
L 8.64 4.8 
L 8.64 108 
z
" style="fill: none"/>
   </g>
   <g id="matplotlib.axis_1"/>
   <g id="matplotlib.axis_2"/>
   <g id="line2d_1">
    <path d="M 8.64 87.36 
L 279.36 87.36 
" clip-path="url(#pd201919f88)" style="fill: none; stroke: #b2b2b2; stroke-opacity: 0.35; stroke-width: 0.5; stroke-linecap: square"/>
   </g>
   <g id="line2d_2">
    <path d="M 8.64 66.72 
L 279.36 66.72 
" clip-path="url(#pd201919f88)" style="fill: none; stroke: #b2b2b2; stroke-opacity: 0.35; stroke-width: 0.5; stroke-linecap: square"/>
   </g>
   <g id="line2d_3">
    <path d="M 8.64 46.08 
L 279.36 46.08 
" clip-path="url(#pd201919f88)" style="fill: none; stroke: #b2b2b2; stroke-opacity: 0.35; stroke-width: 0.5; stroke-linecap: square"/>
   </g>
   <g id="line2d_4">
    <path d="M 8.64 25.44 
L 279.36 25.44 
" clip-path="url(#pd201919f88)" style="fill: none; stroke: #b2b2b2; stroke-opacity: 0.35; stroke-width: 0.5; stroke-linecap: square"/>
   </g>
   <g id="line2d_5">
    <path d="M 8.64 100.38384 
L 11.675172 100.50768 
L 14.772535 100.60056 
L 17.820336 99.76464 
L 20.806367 99.49632 
L 23.868765 99.40344 
L 26.908826 100.09488 
L 29.91846 100.3632 
L 32.939879 100.19808 
L 36.024543 100.47672 
L 39.070901 100.79664 
L 42.081978 100.26 
L 45.347553 99.83688 
L 48.197382 100.13616 
L 51.240434 100.80696 
L 54.250596 101.38488 
L 57.331215 101.3436 
L 60.379121 101.292 
L 63.399167 101.28168 
L 66.46445 101.28168 
L 69.463637 101.8596 
L 72.506336 101.88024 
L 75.519523 101.72544 
L 78.604505 101.68416 
L 81.651566 101.47776 
L 84.67105 101.78736 
L 87.715192 101.09592 
L 90.743821 101.46744 
L 93.811003 101.3436 
L 96.803753 101.05464 
L 99.897493 101.3952 
L 102.952293 101.47776 
L 105.972164 100.86888 
L 109.009059 101.26104 
L 112.061432 100.99272 
L 115.094459 100.61088 
L 118.100153 100.44576 
L 121.179506 100.94112 
L 124.226251 101.09592 
L 127.252137 101.00304 
L 130.281927 100.69344 
L 133.333456 100.9308 
L 136.380728 100.92048 
L 139.383679 100.81728 
L 142.470173 100.8792 
L 145.542139 100.64184 
L 148.587723 101.1888 
L 151.618639 101.09592 
L 154.662957 101.37456 
L 157.73538 101.21976 
L 160.697034 101.20944 
L 163.79795 101.23008 
L 166.836112 100.92048 
L 169.808389 101.06496 
L 172.901144 100.70376 
L 175.941171 100.55928 
L 178.929805 100.53864 
L 181.980138 99.60984 
L 185.080597 99.72336 
L 188.143804 99.44472 
L 191.14081 99.25896 
L 194.194484 99.32088 
L 197.230325 100.22904 
L 200.284527 100.01232 
L 203.284945 100.43544 
L 206.369539 100.75536 
L 209.438269 101.02368 
L 212.455713 101.02368 
L 215.505799 101.17848 
L 218.562323 100.7244 
L 221.578254 100.75536 
L 224.575717 101.11656 
L 227.663055 100.91016 
L 230.742268 100.89984 
L 233.73544 101.1372 
L 236.805858 101.2404 
L 239.835367 101.6532 
L 242.876835 101.4984 
L 245.872223 101.48808 
L 248.973491 101.32296 
L 252.057663 101.51904 
L 255.066981 101.7048 
L 258.140389 102.54072 
L 261.169194 103.08768 
L 264.158356 103.36632 
L 267.150859 104.22288 
L 270.255399 103.85136 
L 273.308053 103.68624 
L 276.289265 103.43856 
L 279.36 103.81008 
" clip-path="url(#pd201919f88)" style="fill: none; stroke: #bebebe; stroke-width: 0.5; stroke-linecap: round"/>
   </g>
   <g id="line2d_6">
    <path d="M 8.64 88.31976 
L 11.675172 88.45392 
L 14.772535 88.46424 
L 17.820336 86.38992 
L 20.806367 84.80064 
L 23.868765 84.8316 
L 26.908826 86.586 
L 29.91846 87.74184 
L 32.939879 87.618 
L 36.024543 88.19592 
L 39.070901 89.08344 
L 42.081978 87.89664 
L 45.347553 87.3084 
L 48.197382 87.65928 
L 51.240434 88.96992 
L 54.250596 90.07416 
L 57.331215 89.76456 
L 60.379121 89.3724 
L 63.399167 89.00088 
L 66.46445 88.42296 
L 69.463637 88.81512 
L 72.506336 89.10408 
L 75.519523 89.14536 
L 78.604505 89.07312 
L 81.651566 87.9792 
L 84.67105 88.29912 
L 87.715192 86.38992 
L 90.743821 87.24648 
L 93.811003 87.1536 
L 96.803753 86.21448 
L 99.897493 86.66856 
L 102.952293 87.01944 
L 105.972164 84.44976 
L 109.009059 85.05864 
L 112.061432 84.58392 
L 115.094459 85.04832 
L 118.100153 83.71704 
L 121.179506 84.86256 
L 124.226251 85.6572 
L 127.252137 85.27536 
L 130.281927 84.49104 
L 133.333456 84.86256 
L 136.380728 85.32696 
L 139.383679 85.17216 
L 142.470173 85.31664 
L 145.542139 84.11952 
L 148.587723 85.66752 
L 151.618639 85.26504 
L 154.662957 86.26608 
L 157.73538 85.77072 
L 160.697034 85.38888 
L 163.79795 85.3992 
L 166.836112 84.09888 
L 169.808389 84.22272 
L 172.901144 84.34656 
L 175.941171 85.06896 
L 178.929805 85.7604 
L 181.980138 85.0896 
L 185.080597 85.01736 
L 188.143804 84.9348 
L 191.14081 85.296 
L 194.194484 85.35792 
L 197.230325 86.1732 
L 200.284527 85.92552 
L 203.284945 86.55504 
L 206.369539 87.13296 
L 209.438269 88.10304 
L 212.455713 87.9276 
L 215.505799 88.26816 
L 218.562323 87.78312 
L 221.578254 87.95856 
L 224.575717 88.94928 
L 227.663055 88.14432 
L 230.742268 88.33008 
L 233.73544 88.52616 
L 236.805858 88.86672 
L 239.835367 90.22896 
L 242.876835 89.82648 
L 245.872223 89.87808 
L 248.973491 89.46528 
L 252.057663 90.0432 
L 255.066981 89.96064 
L 258.140389 91.99368 
L 261.169194 93.05664 
L 264.158356 93.74808 
L 267.150859 97.02984 
L 270.255399 95.93592 
L 273.308053 95.07936 
L 276.289265 94.46016 
L 279.36 95.47152 
" clip-path="url(#pd201919f88)" style="fill: none; stroke: #4a8dff; stroke-width: 0.6"/>
   </g>
   <g id="line2d_7">
    <path d="M 8.64 99.88848 
L 11.675172 99.94008 
L 14.772535 99.81624 
L 17.820336 98.93904 
L 20.806367 98.3508 
L 23.868765 98.52624 
L 26.908826 99.78528 
L 29.91846 100.12584 
L 32.939879 100.03296 
L 36.024543 100.45608 
L 39.070901 100.83792 
L 42.081978 100.11552 
L 45.347553 99.87816 
L 48.197382 100.002 
L 51.240434 100.64184 
L 54.250596 101.41584 
L 57.331215 101.21976 
L 60.379121 101.14752 
L 63.399167 101.00304 
L 66.46445 100.86888 
L 69.463637 101.21976 
L 72.506336 101.28168 
L 75.519523 101.20944 
L 78.604505 101.14752 
L 81.651566 100.55928 
L 84.67105 100.65216 
L 87.715192 99.80592 
L 90.743821 99.96072 
L 93.811003 99.6408 
L 96.803753 99.1764 
L 99.897493 99.70272 
L 102.952293 99.94008 
L 105.972164 98.57784 
L 109.009059 98.65008 
L 112.061432 98.38176 
L 115.094459 98.48496 
L 118.100153 96.70992 
L 121.179506 98.05152 
L 124.226251 98.48496 
L 127.252137 97.96896 
L 130.281927 96.32808 
L 133.333456 96.20424 
L 136.380728 96.16296 
L 139.383679 96.1836 
L 142.470173 96.50352 
L 145.542139 94.76976 
L 148.587723 97.19496 
L 151.618639 96.9576 
L 154.662957 97.9896 
L 157.73538 96.89568 
L 160.697034 95.45088 
L 163.79795 95.67792 
L 166.836112 93.43848 
L 169.808389 92.90184 
L 172.901144 92.25168 
L 175.941171 92.87088 
L 178.929805 94.2744 
L 181.980138 93.1392 
L 185.080597 92.97408 
L 188.143804 92.9844 
L 191.14081 92.60256 
L 194.194484 92.53032 
L 197.230325 94.54272 
L 200.284527 92.85024 
L 203.284945 94.82136 
L 206.369539 95.75016 
L 209.438269 96.97824 
L 212.455713 97.08144 
L 215.505799 97.23624 
L 218.562323 95.94624 
L 221.578254 96.30744 
L 224.575717 98.08248 
L 227.663055 97.2672 
L 230.742268 96.61704 
L 233.73544 97.23624 
L 236.805858 98.08248 
L 239.835367 99.18672 
L 242.876835 99.03192 
L 245.872223 99.1248 
L 248.973491 98.74296 
L 252.057663 99.09384 
L 255.066981 100.0536 
L 258.140389 101.23008 
L 261.169194 101.99376 
L 264.158356 102.08664 
L 267.150859 102.8916 
L 270.255399 102.45816 
L 273.308053 102.28272 
L 276.289265 102.10728 
L 279.36 102.582 
" clip-path="url(#pd201919f88)" style="fill: none; stroke: #f5841e; stroke-width: 0.6"/>
   </g>
  </g>
 </g>
 <defs>
  <clipPath id="pd201919f88">
   <rect x="8.64" y="4.8" width="270.72" height="103.2"/>
  </clipPath>
 </defs>
</svg>
