<?xml version="1.0" encoding="utf-8" standalone="no"?>
<!DOCTYPE svg PUBLIC "-//W3C//DTD SVG 1.1//EN"
  "http://www.w3.org/Graphics/SVG/1.1/DTD/svg11.dtd">
<svg xmlns:xlink="http://www.w3.org/1999/xlink" width="288pt" height="120pt" viewBox="0 0 288 120" xmlns="http://www.w3.org/2000/svg" version="1.1">
<desc id="nav-meta">{"window":"1m","count":4,"labels":["01.03","11.03","20.03","30.03"],"tick_utc":["2026-03-01T03:33:48Z","2026-03-11T03:14:04Z","2026-03-20T03:18:49Z","2026-03-30T03:51:16Z"],"w":720,"h":300}</desc>

 <metadata>
  <rdf:RDF xmlns:dc="http://purl.org/dc/elements/1.1/" xmlns:cc="http://creativecommons.org/ns#" xmlns:rdf="http://www.w3.org/1999/02/22-rdf-syntax-ns#">
   <cc:Work>
    <dc:type rdf:resource="http://purl.org/dc/dcmitype/StillImage"/>
    <dc:date>2026-03-30T03:51:17.987892</dc:date>
    <dc:format>image/svg+xml</dc:format>
    <dc:creator>
     <cc:Agent>
      <dc:title>Matplotlib v3.10.8, https://matplotlib.org/</dc:title>
     </cc:Agent>
    </dc:creator>
   </cc:Work>
  </rdf:RDF>
 </metadata>
 <defs>
  <style type="text/css">*{stroke-linejoin: round; stroke-linecap: butt}</style>
 </defs>
 <g id="figure_1">
  <g id="patch_1">
   <path d="M 0 120 
L 288 120 
L 288 0 
L 0 0 
L 0 120 
z
" style="fill: none; opacity: 0"/>
  </g>
  <g id="axes_1">
   <g id="patch_2">
    <path d="M 8.64 108 
L 279.36 108 
L 279.36 4.8 
L 8.64 4.8 
L 8.64 108 
z
" style="fill: none"/>
   </g>
   <g id="matplotlib.axis_1"/>
   <g id="matplotlib.axis_2"/>
   <g id="line2d_1">
    <path d="M 8.64 87.36 
L 279.36 87.36 
" clip-path="url(#pc9b4289f50)" style="fill: none; stroke: #b2b2b2; stroke-opacity: 0.35; stroke-width: 0.5; stroke-linecap: square"/>
   </g>
   <g id="line2d_2">
    <path d="M 8.64 66.72 
L 279.36 66.72 
" clip-path="url(#pc9b4289f50)" style="fill: none; stroke: #b2b2b2; stroke-opacity: 0.35; stroke-width: 0.5; stroke-linecap: square"/>
   </g>
   <g id="line2d_3">
    <path d="M 8.64 46.08 
L 279.36 46.08 
" clip-path="url(#pc9b4289f50)" style="fill: none; stroke: #b2b2b2; stroke-opacity: 0.35; stroke-width: 0.5; stroke-linecap: square"/>
   </g>
   <g id="line2d_4">
    <path d="M 8.64 25.44 
L 279.36 25.44 
" clip-path="url(#pc9b4289f50)" style="fill: none; stroke: #b2b2b2; stroke-opacity: 0.35; stroke-width: 0.5; stroke-linecap: square"/>
   </g>
   <g id="line2d_5">
    <path d="M 8.64 100.55928 
L 17.874933 101.10624 
L 27.22791 100.8792 
L 36.506908 100.74504 
L 45.858265 100.21872 
L 55.185107 100.53864 
L 64.444772 101.07528 
L 73.866654 101.38488 
L 83.225895 101.26104 
L 92.497224 100.78632 
L 101.824822 100.91016 
L 111.192812 100.99272 
L 120.506045 100.38384 
L 129.824894 100.50768 
L 139.334689 100.60056 
L 148.692311 99.76464 
L 157.860283 99.49632 
L 167.262725 99.40344 
L 176.596587 100.09488 
L 185.837028 100.3632 
L 195.113649 100.19808 
L 204.584455 100.47672 
L 213.937649 100.79664 
L 223.182518 100.26 
L 233.208772 99.83688 
L 241.958565 100.13616 
L 251.301607 100.80696 
L 260.543668 101.38488 
L 270.002054 101.3436 
L 279.36 101.292 
" clip-path="url(#pc9b4289f50)" style="fill: none; stroke: #bebebe; stroke-width: 0.5; stroke-linecap: round"/>
   </g>
   <g id="line2d_6">
    <path d="M 8.64 89.41368 
L 17.874933 90.37344 
L 27.22791 89.79552 
L 36.506908 90.23928 
L 45.858265 88.0824 
L 55.185107 88.7532 
L 64.444772 90.16704 
L 73.866654 90.67272 
L 83.225895 90.18768 
L 92.497224 89.2692 
L 101.824822 89.54784 
L 111.192812 89.49624 
L 120.506045 88.31976 
L 129.824894 88.45392 
L 139.334689 88.46424 
L 148.692311 86.38992 
L 157.860283 84.80064 
L 167.262725 84.8316 
L 176.596587 86.586 
L 185.837028 87.74184 
L 195.113649 87.618 
L 204.584455 88.19592 
L 213.937649 89.08344 
L 223.182518 87.89664 
L 233.208772 87.3084 
L 241.958565 87.65928 
L 251.301607 88.96992 
L 260.543668 90.07416 
L 270.002054 89.76456 
L 279.36 89.3724 
" clip-path="url(#pc9b4289f50)" style="fill: none; stroke: #4a8dff; stroke-width: 0.6"/>
   </g>
   <g id="line2d_7">
    <path d="M 8.64 101.02368 
L 17.874933 101.30232 
L 27.22791 100.81728 
L 36.506908 100.79664 
L 45.858265 99.3312 
L 55.185107 99.92976 
L 64.444772 100.78632 
L 73.866654 101.17848 
L 83.225895 101.1372 
L 92.497224 100.21872 
L 101.824822 100.37352 
L 111.192812 100.4664 
L 120.506045 99.88848 
L 129.824894 99.94008 
L 139.334689 99.81624 
L 148.692311 98.93904 
L 157.860283 98.3508 
L 167.262725 98.52624 
L 176.596587 99.78528 
L 185.837028 100.12584 
L 195.113649 100.03296 
L 204.584455 100.45608 
L 213.937649 100.83792 
L 223.182518 100.11552 
L 233.208772 99.87816 
L 241.958565 100.002 
L 251.301607 100.64184 
L 260.543668 101.41584 
L 270.002054 101.21976 
L 279.36 101.14752 
" clip-path="url(#pc9b4289f50)" style="fill: none; stroke: #f5841e; stroke-width: 0.6"/>
   </g>
  </g>
 </g>
 <defs>
  <clipPath id="pc9b4289f50">
   <rect x="8.64" y="4.8" width="270.72" height="103.2"/>
  </clipPath>
 </defs>
</svg>
