<?xml version="1.0" encoding="utf-8" standalone="no"?>
<!DOCTYPE svg PUBLIC "-//W3C//DTD SVG 1.1//EN"
  "http://www.w3.org/Graphics/SVG/1.1/DTD/svg11.dtd">
<svg xmlns:xlink="http://www.w3.org/1999/xlink" width="288pt" height="120pt" viewBox="0 0 288 120" xmlns="http://www.w3.org/2000/svg" version="1.1">
<desc id="nav-meta">{"window":"1m","count":4,"labels":["05.05","15.05","24.05","03.06"],"tick_utc":["2026-05-05T03:59:32Z","2026-05-15T04:39:19Z","2026-05-24T04:51:26Z","2026-06-03T05:31:47Z"],"w":720,"h":300}</desc>

 <metadata>
  <rdf:RDF xmlns:dc="http://purl.org/dc/elements/1.1/" xmlns:cc="http://creativecommons.org/ns#" xmlns:rdf="http://www.w3.org/1999/02/22-rdf-syntax-ns#">
   <cc:Work>
    <dc:type rdf:resource="http://purl.org/dc/dcmitype/StillImage"/>
    <dc:date>2026-06-03T11:31:48.156986</dc:date>
    <dc:format>image/svg+xml</dc:format>
    <dc:creator>
     <cc:Agent>
      <dc:title>Matplotlib v3.10.9, https://matplotlib.org/</dc:title>
     </cc:Agent>
    </dc:creator>
   </cc:Work>
  </rdf:RDF>
 </metadata>
 <defs>
  <style type="text/css">*{stroke-linejoin: round; stroke-linecap: butt}</style>
 </defs>
 <g id="figure_1">
  <g id="patch_1">
   <path d="M 0 120 
L 288 120 
L 288 0 
L 0 0 
L 0 120 
z
" style="fill: none; opacity: 0"/>
  </g>
  <g id="axes_1">
   <g id="patch_2">
    <path d="M 8.64 108 
L 279.36 108 
L 279.36 4.8 
L 8.64 4.8 
L 8.64 108 
z
" style="fill: none"/>
   </g>
   <g id="matplotlib.axis_1"/>
   <g id="matplotlib.axis_2"/>
   <g id="line2d_1">
    <path d="M 8.64 87.36 
L 279.36 87.36 
" clip-path="url(#pe22c365524)" style="fill: none; stroke: #b2b2b2; stroke-opacity: 0.35; stroke-width: 0.5; stroke-linecap: square"/>
   </g>
   <g id="line2d_2">
    <path d="M 8.64 66.72 
L 279.36 66.72 
" clip-path="url(#pe22c365524)" style="fill: none; stroke: #b2b2b2; stroke-opacity: 0.35; stroke-width: 0.5; stroke-linecap: square"/>
   </g>
   <g id="line2d_3">
    <path d="M 8.64 46.08 
L 279.36 46.08 
" clip-path="url(#pe22c365524)" style="fill: none; stroke: #b2b2b2; stroke-opacity: 0.35; stroke-width: 0.5; stroke-linecap: square"/>
   </g>
   <g id="line2d_4">
    <path d="M 8.64 25.44 
L 279.36 25.44 
" clip-path="url(#pe22c365524)" style="fill: none; stroke: #b2b2b2; stroke-opacity: 0.35; stroke-width: 0.5; stroke-linecap: square"/>
   </g>
   <g id="line2d_5">
    <path d="M 8.64 101.06496 
L 18.118679 100.70376 
L 27.435755 100.55928 
L 36.595323 100.53864 
L 45.943987 99.60984 
L 55.446276 99.72336 
L 64.834397 99.44472 
L 74.019624 99.25896 
L 83.378529 99.32088 
L 92.682775 100.22904 
L 102.043297 100.01232 
L 111.238981 100.43544 
L 120.692649 100.75536 
L 130.097696 101.02368 
L 139.345559 101.02368 
L 148.693468 101.17848 
L 158.061105 100.7244 
L 167.304332 100.75536 
L 176.49096 101.11656 
L 185.953037 100.91016 
L 195.390211 100.89984 
L 204.563686 101.1372 
L 213.973908 101.2404 
L 223.258749 101.6532 
L 232.580245 101.4984 
L 241.760512 101.48808 
L 251.265281 101.32296 
L 260.717655 101.51904 
L 269.940615 101.7048 
L 279.36 102.54072 
" clip-path="url(#pe22c365524)" style="fill: none; stroke: #bebebe; stroke-width: 0.5; stroke-linecap: round"/>
   </g>
   <g id="line2d_6">
    <path d="M 8.64 84.22272 
L 18.118679 84.34656 
L 27.435755 85.06896 
L 36.595323 85.7604 
L 45.943987 85.0896 
L 55.446276 85.01736 
L 64.834397 84.9348 
L 74.019624 85.296 
L 83.378529 85.35792 
L 92.682775 86.1732 
L 102.043297 85.92552 
L 111.238981 86.55504 
L 120.692649 87.13296 
L 130.097696 88.10304 
L 139.345559 87.9276 
L 148.693468 88.26816 
L 158.061105 87.78312 
L 167.304332 87.95856 
L 176.49096 88.94928 
L 185.953037 88.14432 
L 195.390211 88.33008 
L 204.563686 88.52616 
L 213.973908 88.86672 
L 223.258749 90.22896 
L 232.580245 89.82648 
L 241.760512 89.87808 
L 251.265281 89.46528 
L 260.717655 90.0432 
L 269.940615 89.96064 
L 279.36 91.99368 
" clip-path="url(#pe22c365524)" style="fill: none; stroke: #4a8dff; stroke-width: 0.6"/>
   </g>
   <g id="line2d_7">
    <path d="M 8.64 92.90184 
L 18.118679 92.25168 
L 27.435755 92.87088 
L 36.595323 94.2744 
L 45.943987 93.1392 
L 55.446276 92.97408 
L 64.834397 92.9844 
L 74.019624 92.60256 
L 83.378529 92.53032 
L 92.682775 94.54272 
L 102.043297 92.85024 
L 111.238981 94.82136 
L 120.692649 95.75016 
L 130.097696 96.97824 
L 139.345559 97.08144 
L 148.693468 97.23624 
L 158.061105 95.94624 
L 167.304332 96.30744 
L 176.49096 98.08248 
L 185.953037 97.2672 
L 195.390211 96.61704 
L 204.563686 97.23624 
L 213.973908 98.08248 
L 223.258749 99.18672 
L 232.580245 99.03192 
L 241.760512 99.1248 
L 251.265281 98.74296 
L 260.717655 99.09384 
L 269.940615 100.0536 
L 279.36 101.23008 
" clip-path="url(#pe22c365524)" style="fill: none; stroke: #f5841e; stroke-width: 0.6"/>
   </g>
  </g>
 </g>
 <defs>
  <clipPath id="pe22c365524">
   <rect x="8.64" y="4.8" width="270.72" height="103.2"/>
  </clipPath>
 </defs>
</svg>
