<?xml version="1.0" encoding="utf-8" standalone="no"?>
<!DOCTYPE svg PUBLIC "-//W3C//DTD SVG 1.1//EN"
  "http://www.w3.org/Graphics/SVG/1.1/DTD/svg11.dtd">
<svg xmlns:xlink="http://www.w3.org/1999/xlink" width="288pt" height="120pt" viewBox="0 0 288 120" xmlns="http://www.w3.org/2000/svg" version="1.1">
<desc id="nav-meta">{"window":"3m","count":4,"labels":["10.12","09.01","07.02","09.03"],"tick_utc":["2025-12-10T12:00:00Z","2026-01-09T12:00:00Z","2026-02-07T03:13:08Z","2026-03-09T03:23:53Z"],"w":720,"h":300}</desc>

 <metadata>
  <rdf:RDF xmlns:dc="http://purl.org/dc/elements/1.1/" xmlns:cc="http://creativecommons.org/ns#" xmlns:rdf="http://www.w3.org/1999/02/22-rdf-syntax-ns#">
   <cc:Work>
    <dc:type rdf:resource="http://purl.org/dc/dcmitype/StillImage"/>
    <dc:date>2026-03-09T13:51:03.350536</dc:date>
    <dc:format>image/svg+xml</dc:format>
    <dc:creator>
     <cc:Agent>
      <dc:title>Matplotlib v3.10.8, https://matplotlib.org/</dc:title>
     </cc:Agent>
    </dc:creator>
   </cc:Work>
  </rdf:RDF>
 </metadata>
 <defs>
  <style type="text/css">*{stroke-linejoin: round; stroke-linecap: butt}</style>
 </defs>
 <g id="figure_1">
  <g id="patch_1">
   <path d="M 0 120 
L 288 120 
L 288 0 
L 0 0 
L 0 120 
z
" style="fill: none; opacity: 0"/>
  </g>
  <g id="axes_1">
   <g id="patch_2">
    <path d="M 8.64 108 
L 279.36 108 
L 279.36 4.8 
L 8.64 4.8 
L 8.64 108 
z
" style="fill: none"/>
   </g>
   <g id="matplotlib.axis_1"/>
   <g id="matplotlib.axis_2"/>
   <g id="line2d_1">
    <path d="M 8.64 87.36 
L 279.36 87.36 
" clip-path="url(#p1a3be10971)" style="fill: none; stroke: #b2b2b2; stroke-opacity: 0.35; stroke-width: 0.5; stroke-linecap: square"/>
   </g>
   <g id="line2d_2">
    <path d="M 8.64 66.72 
L 279.36 66.72 
" clip-path="url(#p1a3be10971)" style="fill: none; stroke: #b2b2b2; stroke-opacity: 0.35; stroke-width: 0.5; stroke-linecap: square"/>
   </g>
   <g id="line2d_3">
    <path d="M 8.64 46.08 
L 279.36 46.08 
" clip-path="url(#p1a3be10971)" style="fill: none; stroke: #b2b2b2; stroke-opacity: 0.35; stroke-width: 0.5; stroke-linecap: square"/>
   </g>
   <g id="line2d_4">
    <path d="M 8.64 25.44 
L 279.36 25.44 
" clip-path="url(#p1a3be10971)" style="fill: none; stroke: #b2b2b2; stroke-opacity: 0.35; stroke-width: 0.5; stroke-linecap: square"/>
   </g>
   <g id="line2d_5">
    <path d="M 8.64 88.79448 
L 11.694097 89.20728 
L 14.748194 89.22792 
L 17.802291 90.31152 
L 20.856388 90.10512 
L 23.910485 91.09584 
L 26.964582 91.61184 
L 30.018679 91.31256 
L 33.072776 92.87088 
L 36.126873 93.8616 
L 39.18097 92.02464 
L 42.235067 92.13816 
L 45.289164 92.07624 
L 48.343261 92.14848 
L 51.397358 92.64384 
L 54.451455 93.01536 
L 57.505552 93.69648 
L 60.559649 93.11856 
L 63.613746 92.44776 
L 66.667843 92.30328 
L 69.72194 92.87088 
L 72.776037 92.38584 
L 75.830134 92.47872 
L 78.884231 91.88016 
L 81.938328 90.42504 
L 84.992425 90.08448 
L 88.046522 89.92968 
L 91.100619 88.76352 
L 94.154716 87.94824 
L 97.208813 89.2692 
L 100.26291 88.72224 
L 103.317007 89.39304 
L 106.371104 89.40336 
L 109.425201 88.41264 
L 112.479298 88.4952 
L 115.533395 86.86464 
L 118.587492 86.42088 
L 121.641589 87.62832 
L 124.695686 86.93688 
L 127.749783 87.23616 
L 130.80388 88.63968 
L 133.857977 90.0432 
L 136.912074 92.12784 
L 139.966171 91.16808 
L 143.020268 91.46736 
L 146.074365 91.73568 
L 149.128462 91.78728 
L 152.182559 94.0164 
L 155.236656 92.5716 
L 158.290753 91.76664 
L 161.34485 92.33424 
L 164.398947 94.36728 
L 167.453044 94.46016 
L 170.507141 97.71096 
L 173.561238 98.48496 
L 176.615335 97.85544 
L 179.193678 99.10416 
L 181.620731 100.16712 
L 184.673272 102.23112 
L 187.714291 100.54896 
L 190.838201 100.70376 
L 193.867094 100.68312 
L 196.938618 100.95144 
L 199.986388 101.28168 
L 203.029491 101.71512 
L 206.082669 101.84928 
L 209.100039 101.034 
L 211.992983 100.54896 
L 215.242981 101.04432 
L 217.913442 100.81728 
L 221.346332 101.034 
L 224.396717 101.4984 
L 227.432963 101.33328 
L 230.468396 101.1372 
L 233.557382 101.06496 
L 236.62067 102.09696 
L 239.416759 102.05568 
L 242.71787 101.4984 
L 245.758358 100.60056 
L 248.806658 100.80696 
L 251.824771 101.45712 
L 254.948256 100.55928 
L 257.970823 101.10624 
L 261.032025 100.8792 
L 264.069013 100.74504 
L 267.129685 100.21872 
L 270.182332 100.53864 
L 273.212994 101.07528 
L 276.296748 101.38488 
L 279.36 101.26104 
" clip-path="url(#p1a3be10971)" style="fill: none; stroke: #bebebe; stroke-width: 0.5; stroke-linecap: round"/>
   </g>
   <g id="line2d_6">
    <path d="M 8.64 70.2804 
L 11.694097 70.2288 
L 14.748194 71.56008 
L 17.802291 73.79952 
L 20.856388 73.35576 
L 23.910485 74.0988 
L 26.964582 75.5952 
L 30.018679 75.5952 
L 33.072776 77.61792 
L 36.126873 77.63856 
L 39.18097 75.40944 
L 42.235067 75.40944 
L 45.289164 75.04824 
L 48.343261 74.98632 
L 51.397358 75.58488 
L 54.451455 75.87384 
L 57.505552 76.49304 
L 60.559649 76.15248 
L 63.613746 75.82224 
L 66.667843 75.84288 
L 69.72194 76.03896 
L 72.776037 75.51264 
L 75.830134 75.56424 
L 78.884231 75.05856 
L 81.938328 73.26288 
L 84.992425 73.20096 
L 88.046522 73.00488 
L 91.100619 71.68392 
L 94.154716 70.6932 
L 97.208813 72.62304 
L 100.26291 73.52088 
L 103.317007 73.83048 
L 106.371104 73.8408 
L 109.425201 73.29384 
L 112.479298 73.72728 
L 115.533395 70.32168 
L 118.587492 69.77472 
L 121.641589 70.34232 
L 124.695686 70.67256 
L 127.749783 70.51776 
L 130.80388 70.848 
L 133.857977 72.31344 
L 136.912074 76.01832 
L 139.966171 75.41976 
L 143.020268 75.83256 
L 146.074365 75.79128 
L 149.128462 75.82224 
L 152.182559 77.82432 
L 155.236656 76.14216 
L 158.290753 74.75928 
L 161.34485 74.96568 
L 164.398947 77.75208 
L 167.453044 79.48584 
L 170.507141 83.31456 
L 173.561238 85.90488 
L 176.615335 84.79032 
L 179.193678 85.84296 
L 181.620731 88.25784 
L 184.673272 91.41576 
L 187.714291 88.7532 
L 190.838201 88.65 
L 193.867094 88.55712 
L 196.938618 88.96992 
L 199.986388 89.7336 
L 203.029491 90.456 
L 206.082669 90.56952 
L 209.100039 89.15568 
L 211.992983 88.9596 
L 215.242981 90.6624 
L 217.913442 89.94 
L 221.346332 90.00192 
L 224.396717 90.3528 
L 227.432963 90.62112 
L 230.468396 90.5076 
L 233.557382 90.3528 
L 236.62067 92.004 
L 239.416759 92.13816 
L 242.71787 91.25064 
L 245.758358 89.166 
L 248.806658 89.56848 
L 251.824771 90.93072 
L 254.948256 89.41368 
L 257.970823 90.37344 
L 261.032025 89.79552 
L 264.069013 90.23928 
L 267.129685 88.0824 
L 270.182332 88.7532 
L 273.212994 90.16704 
L 276.296748 90.67272 
L 279.36 90.18768 
" clip-path="url(#p1a3be10971)" style="fill: none; stroke: #4a8dff; stroke-width: 0.6"/>
   </g>
   <g id="line2d_7">
    <path d="M 8.64 80.64168 
L 11.694097 81.38472 
L 14.748194 80.87904 
L 17.802291 83.13912 
L 20.856388 83.19072 
L 23.910485 85.296 
L 26.964582 87.17424 
L 30.018679 85.71912 
L 33.072776 87.53544 
L 36.126873 88.17528 
L 39.18097 85.41984 
L 42.235067 85.17216 
L 45.289164 84.9348 
L 48.343261 85.01736 
L 51.397358 86.14224 
L 54.451455 85.90488 
L 57.505552 86.328 
L 60.559649 86.24544 
L 63.613746 85.72944 
L 66.667843 85.7088 
L 69.72194 86.40024 
L 72.776037 85.09992 
L 75.830134 86.02872 
L 78.884231 84.78 
L 81.938328 83.53128 
L 84.992425 82.83984 
L 88.046522 82.03488 
L 91.100619 79.39296 
L 94.154716 79.66128 
L 97.208813 82.15872 
L 100.26291 82.43736 
L 103.317007 82.93272 
L 106.371104 83.00496 
L 109.425201 82.6128 
L 112.479298 82.28256 
L 115.533395 78.01008 
L 118.587492 76.19376 
L 121.641589 77.66952 
L 124.695686 77.74176 
L 127.749783 78.1752 
L 130.80388 79.5684 
L 133.857977 80.8068 
L 136.912074 85.20312 
L 139.966171 84.12984 
L 143.020268 84.03696 
L 146.074365 84.06792 
L 149.128462 84.3156 
L 152.182559 87.02976 
L 155.236656 85.21344 
L 158.290753 84.28464 
L 161.34485 84.32592 
L 164.398947 89.08344 
L 167.453044 89.5272 
L 170.507141 95.14128 
L 173.561238 96.98856 
L 176.615335 95.08968 
L 179.193678 97.71096 
L 181.620731 99.80592 
L 184.673272 101.79768 
L 187.714291 100.03296 
L 190.838201 100.518 
L 193.867094 99.98136 
L 196.938618 100.49736 
L 199.986388 100.78632 
L 203.029491 101.07528 
L 206.082669 101.26104 
L 209.100039 100.63152 
L 211.992983 100.38384 
L 215.242981 100.84824 
L 217.913442 100.65216 
L 221.346332 101.034 
L 224.396717 101.19912 
L 227.432963 101.10624 
L 230.468396 100.97208 
L 233.557382 100.91016 
L 236.62067 101.7564 
L 239.416759 101.84928 
L 242.71787 101.56032 
L 245.758358 100.85856 
L 248.806658 101.12688 
L 251.824771 101.4468 
L 254.948256 101.02368 
L 257.970823 101.30232 
L 261.032025 100.81728 
L 264.069013 100.79664 
L 267.129685 99.3312 
L 270.182332 99.92976 
L 273.212994 100.78632 
L 276.296748 101.17848 
L 279.36 101.1372 
" clip-path="url(#p1a3be10971)" style="fill: none; stroke: #f5841e; stroke-width: 0.6"/>
   </g>
  </g>
 </g>
 <defs>
  <clipPath id="p1a3be10971">
   <rect x="8.64" y="4.8" width="270.72" height="103.2"/>
  </clipPath>
 </defs>
</svg>
