<?xml version="1.0" encoding="utf-8" standalone="no"?>
<!DOCTYPE svg PUBLIC "-//W3C//DTD SVG 1.1//EN"
  "http://www.w3.org/Graphics/SVG/1.1/DTD/svg11.dtd">
<svg xmlns:xlink="http://www.w3.org/1999/xlink" width="288pt" height="120pt" viewBox="0 0 288 120" xmlns="http://www.w3.org/2000/svg" version="1.1">
<desc id="nav-meta">{"window":"3m","count":4,"labels":["15.04","15.05","14.06","14.07"],"tick_utc":["2026-04-15T03:52:26Z","2026-05-15T04:39:19Z","2026-06-14T05:19:47Z","2026-07-14T03:47:28Z"],"w":720,"h":300}</desc>

 <metadata>
  <rdf:RDF xmlns:dc="http://purl.org/dc/elements/1.1/" xmlns:cc="http://creativecommons.org/ns#" xmlns:rdf="http://www.w3.org/1999/02/22-rdf-syntax-ns#">
   <cc:Work>
    <dc:type rdf:resource="http://purl.org/dc/dcmitype/StillImage"/>
    <dc:date>2026-07-14T03:47:29.943565</dc:date>
    <dc:format>image/svg+xml</dc:format>
    <dc:creator>
     <cc:Agent>
      <dc:title>Matplotlib v3.11.0, https://matplotlib.org/</dc:title>
     </cc:Agent>
    </dc:creator>
   </cc:Work>
  </rdf:RDF>
 </metadata>
 <defs>
  <style type="text/css">*{stroke-linejoin: round; stroke-linecap: butt}</style>
 </defs>
 <g id="figure_1">
  <g id="patch_1">
   <path d="M 0 120 
L 288 120 
L 288 0 
L 0 0 
L 0 120 
z
" style="fill: none; opacity: 0"/>
  </g>
  <g id="axes_1">
   <g id="patch_2">
    <path d="M 8.64 108 
L 279.36 108 
L 279.36 4.8 
L 8.64 4.8 
L 8.64 108 
z
" style="fill: none"/>
   </g>
   <g id="matplotlib.axis_1"/>
   <g id="matplotlib.axis_2"/>
   <g id="line2d_1">
    <path d="M 8.64 87.36 
L 279.36 87.36 
" clip-path="url(#p4786e60236)" style="fill: none; stroke: #b2b2b2; stroke-opacity: 0.35; stroke-width: 0.5; stroke-linecap: square"/>
   </g>
   <g id="line2d_2">
    <path d="M 8.64 66.72 
L 279.36 66.72 
" clip-path="url(#p4786e60236)" style="fill: none; stroke: #b2b2b2; stroke-opacity: 0.35; stroke-width: 0.5; stroke-linecap: square"/>
   </g>
   <g id="line2d_3">
    <path d="M 8.64 46.08 
L 279.36 46.08 
" clip-path="url(#p4786e60236)" style="fill: none; stroke: #b2b2b2; stroke-opacity: 0.35; stroke-width: 0.5; stroke-linecap: square"/>
   </g>
   <g id="line2d_4">
    <path d="M 8.64 25.44 
L 279.36 25.44 
" clip-path="url(#p4786e60236)" style="fill: none; stroke: #b2b2b2; stroke-opacity: 0.35; stroke-width: 0.5; stroke-linecap: square"/>
   </g>
   <g id="line2d_5">
    <path d="M 8.64 101.26104 
L 11.661137 100.99272 
L 14.663124 100.61088 
L 17.63806 100.44576 
L 20.6859 100.94112 
L 23.701466 101.09592 
L 26.696386 101.00304 
L 29.695171 100.69344 
L 32.715472 100.9308 
L 35.73156 100.92048 
L 38.70378 100.81728 
L 41.758688 100.8792 
L 44.799217 100.64184 
L 47.813634 101.1888 
L 50.813533 101.09592 
L 53.826696 101.37456 
L 56.867678 101.21976 
L 59.799024 101.20944 
L 62.868206 101.23008 
L 65.875277 100.92048 
L 68.817137 101.06496 
L 71.878243 100.70376 
L 74.887159 100.55928 
L 77.845208 100.53864 
L 80.864326 99.60984 
L 83.933056 99.72336 
L 86.964916 99.44472 
L 89.931252 99.25896 
L 92.953676 99.32088 
L 95.958449 100.22904 
L 98.981396 100.01232 
L 101.951109 100.43544 
L 105.004137 100.75536 
L 108.041463 101.02368 
L 111.028028 101.02368 
L 114.046901 101.17848 
L 117.072146 100.7244 
L 120.057213 100.75536 
L 123.024001 101.11656 
L 126.079745 100.91016 
L 129.127446 100.89984 
L 132.089987 101.1372 
L 135.128984 101.2404 
L 138.127491 101.6532 
L 141.137834 101.4984 
L 144.102568 101.48808 
L 147.172099 101.32296 
L 150.22471 101.51904 
L 153.203231 101.7048 
L 156.245188 102.54072 
L 159.242997 103.08768 
L 162.201569 103.36632 
L 165.163449 104.22288 
L 168.236218 103.85136 
L 171.257633 103.68624 
L 174.208336 103.43856 
L 177.247647 103.81008 
L 180.273414 103.72752 
L 183.293332 103.50048 
L 186.279443 103.5108 
L 189.309388 103.31472 
L 192.417496 102.95352 
L 195.442775 102.61296 
L 198.355076 102.6336 
L 201.348778 102.9948 
L 204.427744 103.28376 
L 207.315569 103.01544 
L 210.386284 102.69552 
L 213.482449 102.582 
L 216.310739 102.88128 
L 219.329613 103.15992 
L 222.336927 103.36632 
L 225.360466 103.36632 
L 228.331711 102.81936 
L 231.397169 103.0464 
L 234.427044 102.9432 
L 237.376842 102.59232 
L 240.428965 102.40656 
L 243.384404 102.02472 
L 246.359792 101.68416 
L 249.354955 101.3436 
L 252.407113 101.6532 
L 255.444369 101.6532 
L 258.407363 101.63256 
L 261.33373 101.95248 
L 264.433029 102.08664 
L 267.434355 101.9112 
L 270.353654 102.066 
L 273.406752 102.18984 
L 276.421447 102.31368 
L 279.36 102.45816 
" clip-path="url(#p4786e60236)" style="fill: none; stroke: #bebebe; stroke-width: 0.5; stroke-linecap: round"/>
   </g>
   <g id="line2d_6">
    <path d="M 8.64 85.05864 
L 11.661137 84.58392 
L 14.663124 85.04832 
L 17.63806 83.71704 
L 20.6859 84.86256 
L 23.701466 85.6572 
L 26.696386 85.27536 
L 29.695171 84.49104 
L 32.715472 84.86256 
L 35.73156 85.32696 
L 38.70378 85.17216 
L 41.758688 85.31664 
L 44.799217 84.11952 
L 47.813634 85.66752 
L 50.813533 85.26504 
L 53.826696 86.26608 
L 56.867678 85.77072 
L 59.799024 85.38888 
L 62.868206 85.3992 
L 65.875277 84.09888 
L 68.817137 84.22272 
L 71.878243 84.34656 
L 74.887159 85.06896 
L 77.845208 85.7604 
L 80.864326 85.0896 
L 83.933056 85.01736 
L 86.964916 84.9348 
L 89.931252 85.296 
L 92.953676 85.35792 
L 95.958449 86.1732 
L 98.981396 85.92552 
L 101.951109 86.55504 
L 105.004137 87.13296 
L 108.041463 88.10304 
L 111.028028 87.9276 
L 114.046901 88.26816 
L 117.072146 87.78312 
L 120.057213 87.95856 
L 123.024001 88.94928 
L 126.079745 88.14432 
L 129.127446 88.33008 
L 132.089987 88.52616 
L 135.128984 88.86672 
L 138.127491 90.22896 
L 141.137834 89.82648 
L 144.102568 89.87808 
L 147.172099 89.46528 
L 150.22471 90.0432 
L 153.203231 89.96064 
L 156.245188 91.99368 
L 159.242997 93.05664 
L 162.201569 93.74808 
L 165.163449 97.02984 
L 168.236218 95.93592 
L 171.257633 95.07936 
L 174.208336 94.46016 
L 177.247647 95.47152 
L 180.273414 95.11032 
L 183.293332 94.82136 
L 186.279443 94.8936 
L 189.309388 94.70784 
L 192.417496 94.04736 
L 195.442775 93.40752 
L 198.355076 92.9844 
L 201.348778 93.93384 
L 204.427744 94.4292 
L 207.315569 94.19184 
L 210.386284 93.87192 
L 213.482449 93.81 
L 216.310739 94.03704 
L 219.329613 94.83168 
L 222.336927 95.48184 
L 225.360466 96.63768 
L 228.331711 96.14232 
L 231.397169 96.30744 
L 234.427044 96.29712 
L 237.376842 96.04944 
L 240.428965 95.9256 
L 243.384404 95.39928 
L 246.359792 94.31568 
L 249.354955 93.57264 
L 252.407113 93.32496 
L 255.444369 93.22176 
L 258.407363 93.35592 
L 261.33373 93.61392 
L 264.433029 93.77904 
L 267.434355 93.26304 
L 270.353654 92.92248 
L 273.406752 92.71608 
L 276.421447 93.15984 
L 279.36 93.17016 
" clip-path="url(#p4786e60236)" style="fill: none; stroke: #4a8dff; stroke-width: 0.6"/>
   </g>
   <g id="line2d_7">
    <path d="M 8.64 98.65008 
L 11.661137 98.38176 
L 14.663124 98.48496 
L 17.63806 96.70992 
L 20.6859 98.05152 
L 23.701466 98.48496 
L 26.696386 97.96896 
L 29.695171 96.32808 
L 32.715472 96.20424 
L 35.73156 96.16296 
L 38.70378 96.1836 
L 41.758688 96.50352 
L 44.799217 94.76976 
L 47.813634 97.19496 
L 50.813533 96.9576 
L 53.826696 97.9896 
L 56.867678 96.89568 
L 59.799024 95.45088 
L 62.868206 95.67792 
L 65.875277 93.43848 
L 68.817137 92.90184 
L 71.878243 92.25168 
L 74.887159 92.87088 
L 77.845208 94.2744 
L 80.864326 93.1392 
L 83.933056 92.97408 
L 86.964916 92.9844 
L 89.931252 92.60256 
L 92.953676 92.53032 
L 95.958449 94.54272 
L 98.981396 92.85024 
L 101.951109 94.82136 
L 105.004137 95.75016 
L 108.041463 96.97824 
L 111.028028 97.08144 
L 114.046901 97.23624 
L 117.072146 95.94624 
L 120.057213 96.30744 
L 123.024001 98.08248 
L 126.079745 97.2672 
L 129.127446 96.61704 
L 132.089987 97.23624 
L 135.128984 98.08248 
L 138.127491 99.18672 
L 141.137834 99.03192 
L 144.102568 99.1248 
L 147.172099 98.74296 
L 150.22471 99.09384 
L 153.203231 100.0536 
L 156.245188 101.23008 
L 159.242997 101.99376 
L 162.201569 102.08664 
L 165.163449 102.8916 
L 168.236218 102.45816 
L 171.257633 102.28272 
L 174.208336 102.10728 
L 177.247647 102.582 
L 180.273414 102.29304 
L 183.293332 102.08664 
L 186.279443 102.066 
L 189.309388 101.86992 
L 192.417496 101.48808 
L 195.442775 101.40552 
L 198.355076 101.4984 
L 201.348778 101.97312 
L 204.427744 102.26208 
L 207.315569 102.066 
L 210.386284 101.90088 
L 213.482449 101.90088 
L 216.310739 102.0144 
L 219.329613 102.25176 
L 222.336927 102.6336 
L 225.360466 102.88128 
L 228.331711 102.77808 
L 231.397169 102.85032 
L 234.427044 102.93288 
L 237.376842 102.95352 
L 240.428965 103.00512 
L 243.384404 102.69552 
L 246.359792 102.55104 
L 249.354955 102.2724 
L 252.407113 102.21048 
L 255.444369 102.12792 
L 258.407363 102.13824 
L 261.33373 102.25176 
L 264.433029 102.36528 
L 267.434355 101.94216 
L 270.353654 101.92152 
L 273.406752 101.9112 
L 276.421447 102.2208 
L 279.36 102.31368 
" clip-path="url(#p4786e60236)" style="fill: none; stroke: #f5841e; stroke-width: 0.6"/>
   </g>
  </g>
 </g>
 <defs>
  <clipPath id="p4786e60236">
   <rect x="8.64" y="4.8" width="270.72" height="103.2"/>
  </clipPath>
 </defs>
</svg>
