<?xml version="1.0" encoding="utf-8" standalone="no"?>
<!DOCTYPE svg PUBLIC "-//W3C//DTD SVG 1.1//EN"
  "http://www.w3.org/Graphics/SVG/1.1/DTD/svg11.dtd">
<svg xmlns:xlink="http://www.w3.org/1999/xlink" width="288pt" height="120pt" viewBox="0 0 288 120" xmlns="http://www.w3.org/2000/svg" version="1.1">
<desc id="nav-meta">{"window":"3m","count":4,"labels":["11.11","11.12","10.01","09.02"],"tick_utc":["2025-11-11T12:00:00Z","2025-12-11T12:00:00Z","2026-01-10T12:00:00Z","2026-02-09T03:34:10Z"],"w":720,"h":300}</desc>

 <metadata>
  <rdf:RDF xmlns:dc="http://purl.org/dc/elements/1.1/" xmlns:cc="http://creativecommons.org/ns#" xmlns:rdf="http://www.w3.org/1999/02/22-rdf-syntax-ns#">
   <cc:Work>
    <dc:type rdf:resource="http://purl.org/dc/dcmitype/StillImage"/>
    <dc:date>2026-02-09T07:42:03.848757</dc:date>
    <dc:format>image/svg+xml</dc:format>
    <dc:creator>
     <cc:Agent>
      <dc:title>Matplotlib v3.10.8, https://matplotlib.org/</dc:title>
     </cc:Agent>
    </dc:creator>
   </cc:Work>
  </rdf:RDF>
 </metadata>
 <defs>
  <style type="text/css">*{stroke-linejoin: round; stroke-linecap: butt}</style>
 </defs>
 <g id="figure_1">
  <g id="patch_1">
   <path d="M 0 120 
L 288 120 
L 288 0 
L 0 0 
L 0 120 
z
" style="fill: none; opacity: 0"/>
  </g>
  <g id="axes_1">
   <g id="patch_2">
    <path d="M 8.64 108 
L 279.36 108 
L 279.36 4.8 
L 8.64 4.8 
L 8.64 108 
z
" style="fill: none"/>
   </g>
   <g id="matplotlib.axis_1"/>
   <g id="matplotlib.axis_2"/>
   <g id="line2d_1">
    <path d="M 8.64 87.36 
L 279.36 87.36 
" clip-path="url(#ped2004b61b)" style="fill: none; stroke: #b2b2b2; stroke-opacity: 0.35; stroke-width: 0.5; stroke-linecap: square"/>
   </g>
   <g id="line2d_2">
    <path d="M 8.64 66.72 
L 279.36 66.72 
" clip-path="url(#ped2004b61b)" style="fill: none; stroke: #b2b2b2; stroke-opacity: 0.35; stroke-width: 0.5; stroke-linecap: square"/>
   </g>
   <g id="line2d_3">
    <path d="M 8.64 46.08 
L 279.36 46.08 
" clip-path="url(#ped2004b61b)" style="fill: none; stroke: #b2b2b2; stroke-opacity: 0.35; stroke-width: 0.5; stroke-linecap: square"/>
   </g>
   <g id="line2d_4">
    <path d="M 8.64 25.44 
L 279.36 25.44 
" clip-path="url(#ped2004b61b)" style="fill: none; stroke: #b2b2b2; stroke-opacity: 0.35; stroke-width: 0.5; stroke-linecap: square"/>
   </g>
   <g id="line2d_5">
    <path d="M 8.64 80.72424 
L 11.659786 84.33624 
L 14.679573 84.64584 
L 17.699359 86.844 
L 20.719145 88.52616 
L 23.738932 88.36104 
L 26.758718 88.93896 
L 29.778504 90.79656 
L 32.798291 88.09272 
L 35.818077 89.22792 
L 38.837863 90.00192 
L 41.85765 91.39512 
L 44.877436 91.63248 
L 47.897222 90.75528 
L 50.917009 88.7016 
L 53.936795 88.52616 
L 56.956581 87.45288 
L 59.976368 88.0308 
L 62.996154 88.94928 
L 66.01594 89.3208 
L 69.035727 89.7336 
L 72.055513 91.86984 
L 75.075299 88.60872 
L 78.095086 86.87496 
L 81.114872 88.52616 
L 84.134658 90.11544 
L 87.154445 90.38376 
L 90.174231 90.53856 
L 93.194017 90.08448 
L 96.213804 88.79448 
L 99.23359 89.20728 
L 102.253376 89.22792 
L 105.273163 90.31152 
L 108.292949 90.10512 
L 111.312735 91.09584 
L 114.332522 91.61184 
L 117.352308 91.31256 
L 120.372094 92.87088 
L 123.391881 93.8616 
L 126.411667 92.02464 
L 129.431453 92.13816 
L 132.45124 92.07624 
L 135.471026 92.14848 
L 138.490812 92.64384 
L 141.510599 93.01536 
L 144.530385 93.69648 
L 147.550171 93.11856 
L 150.569958 92.44776 
L 153.589744 92.30328 
L 156.60953 92.87088 
L 159.629317 92.38584 
L 162.649103 92.47872 
L 165.668889 91.88016 
L 168.688676 90.42504 
L 171.708462 90.08448 
L 174.728248 89.92968 
L 177.748035 88.76352 
L 180.767821 87.94824 
L 183.787607 89.2692 
L 186.807394 88.72224 
L 189.82718 89.39304 
L 192.846966 89.40336 
L 195.866753 88.41264 
L 198.886539 88.4952 
L 201.906325 86.86464 
L 204.926112 86.42088 
L 207.945898 87.62832 
L 210.965684 86.93688 
L 213.985471 87.23616 
L 217.005257 88.63968 
L 220.025043 90.0432 
L 223.04483 92.12784 
L 226.064616 91.16808 
L 229.084402 91.46736 
L 232.104189 91.73568 
L 235.123975 91.78728 
L 238.143761 94.0164 
L 241.163548 92.5716 
L 244.183334 91.76664 
L 247.20312 92.33424 
L 250.222907 94.36728 
L 253.242693 94.46016 
L 256.262479 97.71096 
L 259.282266 98.48496 
L 262.302052 97.85544 
L 264.85143 99.10416 
L 267.251216 100.16712 
L 270.269465 102.23112 
L 273.276319 100.54896 
L 276.365134 100.70376 
L 279.36 100.68312 
" clip-path="url(#ped2004b61b)" style="fill: none; stroke: #bebebe; stroke-width: 0.5; stroke-linecap: round"/>
   </g>
   <g id="line2d_6">
    <path d="M 8.64 66.68904 
L 11.659786 68.8872 
L 14.679573 68.9904 
L 17.699359 71.5704 
L 20.719145 73.48992 
L 23.738932 72.54048 
L 26.758718 73.56216 
L 29.778504 74.74896 
L 32.798291 73.3248 
L 35.818077 74.80056 
L 38.837863 77.556 
L 41.85765 78.55704 
L 44.877436 78.50544 
L 47.897222 78.04104 
L 50.917009 75.76032 
L 53.936795 75.73968 
L 56.956581 74.65608 
L 59.976368 74.83152 
L 62.996154 74.57352 
L 66.01594 75.20304 
L 69.035727 75.17208 
L 72.055513 78.05136 
L 75.075299 75.1308 
L 78.095086 72.16896 
L 81.114872 73.08744 
L 84.134658 74.72832 
L 87.154445 74.48064 
L 90.174231 74.28456 
L 93.194017 73.21128 
L 96.213804 70.2804 
L 99.23359 70.2288 
L 102.253376 71.56008 
L 105.273163 73.79952 
L 108.292949 73.35576 
L 111.312735 74.0988 
L 114.332522 75.5952 
L 117.352308 75.5952 
L 120.372094 77.61792 
L 123.391881 77.63856 
L 126.411667 75.40944 
L 129.431453 75.40944 
L 132.45124 75.04824 
L 135.471026 74.98632 
L 138.490812 75.58488 
L 141.510599 75.87384 
L 144.530385 76.49304 
L 147.550171 76.15248 
L 150.569958 75.82224 
L 153.589744 75.84288 
L 156.60953 76.03896 
L 159.629317 75.51264 
L 162.649103 75.56424 
L 165.668889 75.05856 
L 168.688676 73.26288 
L 171.708462 73.20096 
L 174.728248 73.00488 
L 177.748035 71.68392 
L 180.767821 70.6932 
L 183.787607 72.62304 
L 186.807394 73.52088 
L 189.82718 73.83048 
L 192.846966 73.8408 
L 195.866753 73.29384 
L 198.886539 73.72728 
L 201.906325 70.32168 
L 204.926112 69.77472 
L 207.945898 70.34232 
L 210.965684 70.67256 
L 213.985471 70.51776 
L 217.005257 70.848 
L 220.025043 72.31344 
L 223.04483 76.01832 
L 226.064616 75.41976 
L 229.084402 75.83256 
L 232.104189 75.79128 
L 235.123975 75.82224 
L 238.143761 77.82432 
L 241.163548 76.14216 
L 244.183334 74.75928 
L 247.20312 74.96568 
L 250.222907 77.75208 
L 253.242693 79.48584 
L 256.262479 83.31456 
L 259.282266 85.90488 
L 262.302052 84.79032 
L 264.85143 85.84296 
L 267.251216 88.25784 
L 270.269465 91.41576 
L 273.276319 88.7532 
L 276.365134 88.65 
L 279.36 88.55712 
" clip-path="url(#ped2004b61b)" style="fill: none; stroke: #4a8dff; stroke-width: 0.6"/>
   </g>
   <g id="line2d_7">
    <path d="M 8.64 66.978 
L 11.659786 70.03272 
L 14.679573 71.5188 
L 17.699359 73.3764 
L 20.719145 78.846 
L 23.738932 77.75208 
L 26.758718 78.88728 
L 29.778504 81.34344 
L 32.798291 80.53848 
L 35.818077 82.0452 
L 38.837863 86.92656 
L 41.85765 88.58808 
L 44.877436 88.96992 
L 47.897222 86.7924 
L 50.917009 85.296 
L 53.936795 86.24544 
L 56.956581 82.96368 
L 59.976368 82.13808 
L 62.996154 82.47864 
L 66.01594 82.58184 
L 69.035727 83.03592 
L 72.055513 87.3084 
L 75.075299 82.06584 
L 78.095086 79.71288 
L 81.114872 81.24024 
L 84.134658 84.17112 
L 87.154445 84.24336 
L 90.174231 83.29392 
L 93.194017 82.8192 
L 96.213804 80.64168 
L 99.23359 81.38472 
L 102.253376 80.87904 
L 105.273163 83.13912 
L 108.292949 83.19072 
L 111.312735 85.296 
L 114.332522 87.17424 
L 117.352308 85.71912 
L 120.372094 87.53544 
L 123.391881 88.17528 
L 126.411667 85.41984 
L 129.431453 85.17216 
L 132.45124 84.9348 
L 135.471026 85.01736 
L 138.490812 86.14224 
L 141.510599 85.90488 
L 144.530385 86.328 
L 147.550171 86.24544 
L 150.569958 85.72944 
L 153.589744 85.7088 
L 156.60953 86.40024 
L 159.629317 85.09992 
L 162.649103 86.02872 
L 165.668889 84.78 
L 168.688676 83.53128 
L 171.708462 82.83984 
L 174.728248 82.03488 
L 177.748035 79.39296 
L 180.767821 79.66128 
L 183.787607 82.15872 
L 186.807394 82.43736 
L 189.82718 82.93272 
L 192.846966 83.00496 
L 195.866753 82.6128 
L 198.886539 82.28256 
L 201.906325 78.01008 
L 204.926112 76.19376 
L 207.945898 77.66952 
L 210.965684 77.74176 
L 213.985471 78.1752 
L 217.005257 79.5684 
L 220.025043 80.8068 
L 223.04483 85.20312 
L 226.064616 84.12984 
L 229.084402 84.03696 
L 232.104189 84.06792 
L 235.123975 84.3156 
L 238.143761 87.02976 
L 241.163548 85.21344 
L 244.183334 84.28464 
L 247.20312 84.32592 
L 250.222907 89.08344 
L 253.242693 89.5272 
L 256.262479 95.14128 
L 259.282266 96.98856 
L 262.302052 95.08968 
L 264.85143 97.71096 
L 267.251216 99.80592 
L 270.269465 101.79768 
L 273.276319 100.03296 
L 276.365134 100.518 
L 279.36 99.98136 
" clip-path="url(#ped2004b61b)" style="fill: none; stroke: #f5841e; stroke-width: 0.6"/>
   </g>
  </g>
 </g>
 <defs>
  <clipPath id="ped2004b61b">
   <rect x="8.64" y="4.8" width="270.72" height="103.2"/>
  </clipPath>
 </defs>
</svg>
