<?xml version="1.0" encoding="utf-8" standalone="no"?>
<!DOCTYPE svg PUBLIC "-//W3C//DTD SVG 1.1//EN"
  "http://www.w3.org/Graphics/SVG/1.1/DTD/svg11.dtd">
<svg xmlns:xlink="http://www.w3.org/1999/xlink" width="288pt" height="120pt" viewBox="0 0 288 120" xmlns="http://www.w3.org/2000/svg" version="1.1">
<desc id="nav-meta">{"window":"2w","count":4,"labels":["31.01","05.02","09.02","14.02"],"tick_utc":["2026-01-31T12:00:00Z","2026-02-05T03:20:02Z","2026-02-09T03:34:10Z","2026-02-14T03:16:28Z"],"w":720,"h":300}</desc>

 <metadata>
  <rdf:RDF xmlns:dc="http://purl.org/dc/elements/1.1/" xmlns:cc="http://creativecommons.org/ns#" xmlns:rdf="http://www.w3.org/1999/02/22-rdf-syntax-ns#">
   <cc:Work>
    <dc:type rdf:resource="http://purl.org/dc/dcmitype/StillImage"/>
    <dc:date>2026-02-14T07:22:32.835198</dc:date>
    <dc:format>image/svg+xml</dc:format>
    <dc:creator>
     <cc:Agent>
      <dc:title>Matplotlib v3.10.8, https://matplotlib.org/</dc:title>
     </cc:Agent>
    </dc:creator>
   </cc:Work>
  </rdf:RDF>
 </metadata>
 <defs>
  <style type="text/css">*{stroke-linejoin: round; stroke-linecap: butt}</style>
 </defs>
 <g id="figure_1">
  <g id="patch_1">
   <path d="M 0 120 
L 288 120 
L 288 0 
L 0 0 
L 0 120 
z
" style="fill: none; opacity: 0"/>
  </g>
  <g id="axes_1">
   <g id="patch_2">
    <path d="M 8.64 108 
L 279.36 108 
L 279.36 4.8 
L 8.64 4.8 
L 8.64 108 
z
" style="fill: none"/>
   </g>
   <g id="matplotlib.axis_1"/>
   <g id="matplotlib.axis_2"/>
   <g id="line2d_1">
    <path d="M 8.64 87.36 
L 279.36 87.36 
" clip-path="url(#pd6000daeea)" style="fill: none; stroke: #b2b2b2; stroke-opacity: 0.35; stroke-width: 0.5; stroke-linecap: square"/>
   </g>
   <g id="line2d_2">
    <path d="M 8.64 66.72 
L 279.36 66.72 
" clip-path="url(#pd6000daeea)" style="fill: none; stroke: #b2b2b2; stroke-opacity: 0.35; stroke-width: 0.5; stroke-linecap: square"/>
   </g>
   <g id="line2d_3">
    <path d="M 8.64 46.08 
L 279.36 46.08 
" clip-path="url(#pd6000daeea)" style="fill: none; stroke: #b2b2b2; stroke-opacity: 0.35; stroke-width: 0.5; stroke-linecap: square"/>
   </g>
   <g id="line2d_4">
    <path d="M 8.64 25.44 
L 279.36 25.44 
" clip-path="url(#pd6000daeea)" style="fill: none; stroke: #b2b2b2; stroke-opacity: 0.35; stroke-width: 0.5; stroke-linecap: square"/>
   </g>
   <g id="line2d_5">
    <path d="M 8.64 94.46016 
L 28.492696 97.71096 
L 48.345392 98.48496 
L 68.198088 97.85544 
L 84.95822 99.10416 
L 100.73491 100.16712 
L 120.577495 102.23112 
L 140.345174 100.54896 
L 160.651678 100.70376 
L 180.340544 100.68312 
L 200.306519 100.95144 
L 220.118085 101.28168 
L 239.89932 101.71512 
L 259.746042 101.84928 
L 279.36 101.034 
" clip-path="url(#pd6000daeea)" style="fill: none; stroke: #bebebe; stroke-width: 0.5; stroke-linecap: round"/>
   </g>
   <g id="line2d_6">
    <path d="M 8.64 79.48584 
L 28.492696 83.31456 
L 48.345392 85.90488 
L 68.198088 84.79032 
L 84.95822 85.84296 
L 100.73491 88.25784 
L 120.577495 91.41576 
L 140.345174 88.7532 
L 160.651678 88.65 
L 180.340544 88.55712 
L 200.306519 88.96992 
L 220.118085 89.7336 
L 239.89932 90.456 
L 259.746042 90.56952 
L 279.36 89.15568 
" clip-path="url(#pd6000daeea)" style="fill: none; stroke: #4a8dff; stroke-width: 0.6"/>
   </g>
   <g id="line2d_7">
    <path d="M 8.64 89.5272 
L 28.492696 95.14128 
L 48.345392 96.98856 
L 68.198088 95.08968 
L 84.95822 97.71096 
L 100.73491 99.80592 
L 120.577495 101.79768 
L 140.345174 100.03296 
L 160.651678 100.518 
L 180.340544 99.98136 
L 200.306519 100.49736 
L 220.118085 100.78632 
L 239.89932 101.07528 
L 259.746042 101.26104 
L 279.36 100.63152 
" clip-path="url(#pd6000daeea)" style="fill: none; stroke: #f5841e; stroke-width: 0.6"/>
   </g>
  </g>
 </g>
 <defs>
  <clipPath id="pd6000daeea">
   <rect x="8.64" y="4.8" width="270.72" height="103.2"/>
  </clipPath>
 </defs>
</svg>
