<?xml version="1.0" encoding="utf-8" standalone="no"?>
<!DOCTYPE svg PUBLIC "-//W3C//DTD SVG 1.1//EN"
  "http://www.w3.org/Graphics/SVG/1.1/DTD/svg11.dtd">
<svg xmlns:xlink="http://www.w3.org/1999/xlink" width="288pt" height="120pt" viewBox="0 0 288 120" xmlns="http://www.w3.org/2000/svg" version="1.1">
<desc id="nav-meta">{"window":"3m","count":4,"labels":["24.03","23.04","22.05","21.06"],"tick_utc":["2026-03-24T03:21:58Z","2026-04-23T03:57:29Z","2026-05-22T04:48:25Z","2026-06-21T05:29:24Z"],"w":720,"h":300}</desc>

 <metadata>
  <rdf:RDF xmlns:dc="http://purl.org/dc/elements/1.1/" xmlns:cc="http://creativecommons.org/ns#" xmlns:rdf="http://www.w3.org/1999/02/22-rdf-syntax-ns#">
   <cc:Work>
    <dc:type rdf:resource="http://purl.org/dc/dcmitype/StillImage"/>
    <dc:date>2026-06-21T15:01:28.381314</dc:date>
    <dc:format>image/svg+xml</dc:format>
    <dc:creator>
     <cc:Agent>
      <dc:title>Matplotlib v3.11.0, https://matplotlib.org/</dc:title>
     </cc:Agent>
    </dc:creator>
   </cc:Work>
  </rdf:RDF>
 </metadata>
 <defs>
  <style type="text/css">*{stroke-linejoin: round; stroke-linecap: butt}</style>
 </defs>
 <g id="figure_1">
  <g id="patch_1">
   <path d="M 0 120 
L 288 120 
L 288 0 
L 0 0 
L 0 120 
z
" style="fill: none; opacity: 0"/>
  </g>
  <g id="axes_1">
   <g id="patch_2">
    <path d="M 8.64 108 
L 279.36 108 
L 279.36 4.8 
L 8.64 4.8 
L 8.64 108 
z
" style="fill: none"/>
   </g>
   <g id="matplotlib.axis_1"/>
   <g id="matplotlib.axis_2"/>
   <g id="line2d_1">
    <path d="M 8.64 87.36 
L 279.36 87.36 
" clip-path="url(#p84874b0496)" style="fill: none; stroke: #b2b2b2; stroke-opacity: 0.35; stroke-width: 0.5; stroke-linecap: square"/>
   </g>
   <g id="line2d_2">
    <path d="M 8.64 66.72 
L 279.36 66.72 
" clip-path="url(#p84874b0496)" style="fill: none; stroke: #b2b2b2; stroke-opacity: 0.35; stroke-width: 0.5; stroke-linecap: square"/>
   </g>
   <g id="line2d_3">
    <path d="M 8.64 46.08 
L 279.36 46.08 
" clip-path="url(#p84874b0496)" style="fill: none; stroke: #b2b2b2; stroke-opacity: 0.35; stroke-width: 0.5; stroke-linecap: square"/>
   </g>
   <g id="line2d_4">
    <path d="M 8.64 25.44 
L 279.36 25.44 
" clip-path="url(#p84874b0496)" style="fill: none; stroke: #b2b2b2; stroke-opacity: 0.35; stroke-width: 0.5; stroke-linecap: square"/>
   </g>
   <g id="line2d_5">
    <path d="M 8.64 100.26 
L 11.905102 99.83688 
L 14.754517 100.13616 
L 17.797127 100.80696 
L 20.806852 101.38488 
L 23.887024 101.3436 
L 26.934488 101.292 
L 29.954096 101.28168 
L 33.018934 101.28168 
L 36.017685 101.8596 
L 39.059944 101.88024 
L 42.072693 101.72544 
L 45.157227 101.68416 
L 48.203846 101.47776 
L 51.222892 101.78736 
L 54.266592 101.09592 
L 57.294781 101.46744 
L 60.361519 101.3436 
L 63.353834 101.05464 
L 66.447125 101.3952 
L 69.501482 101.47776 
L 72.520914 100.86888 
L 75.557369 101.26104 
L 78.609299 100.99272 
L 81.641885 100.61088 
L 84.647144 100.44576 
L 87.72605 100.94112 
L 90.772353 101.09592 
L 93.797799 101.00304 
L 96.82715 100.69344 
L 99.878236 100.9308 
L 102.925066 100.92048 
L 105.927581 100.81728 
L 109.013627 100.8792 
L 112.085147 100.64184 
L 115.13029 101.1888 
L 118.160765 101.09592 
L 121.204641 101.37456 
L 124.276619 101.21976 
L 127.237843 101.20944 
L 130.338309 101.23008 
L 133.37603 100.92048 
L 136.347876 101.06496 
L 139.440183 100.70376 
L 142.479768 100.55928 
L 145.467968 100.53864 
L 148.517858 99.60984 
L 151.617867 99.72336 
L 154.68063 99.44472 
L 157.677201 99.25896 
L 160.730433 99.32088 
L 163.765832 100.22904 
L 166.819591 100.01232 
L 169.819574 100.43544 
L 172.903721 100.75536 
L 175.972006 101.02368 
L 178.989011 101.02368 
L 182.038655 101.17848 
L 185.094735 100.7244 
L 188.110228 100.75536 
L 191.107256 101.11656 
L 194.194147 100.91016 
L 197.272912 100.89984 
L 200.26565 101.1372 
L 203.335623 101.2404 
L 206.364692 101.6532 
L 209.405719 101.4984 
L 212.400672 101.48808 
L 215.50149 101.32296 
L 218.585214 101.51904 
L 221.594095 101.7048 
L 224.667058 102.54072 
L 227.695423 103.08768 
L 230.684151 103.36632 
L 233.67622 104.22288 
L 236.780309 103.85136 
L 239.832521 103.68624 
L 242.8133 103.43856 
L 245.883589 103.81008 
L 248.940197 103.72752 
L 251.990896 103.50048 
L 255.007444 103.5108 
L 258.068273 103.31472 
L 261.20806 102.95352 
L 264.264176 102.61296 
L 267.206161 102.6336 
L 270.230377 102.9948 
L 273.340726 103.28376 
L 276.257986 103.01544 
L 279.36 102.69552 
" clip-path="url(#p84874b0496)" style="fill: none; stroke: #bebebe; stroke-width: 0.5; stroke-linecap: round"/>
   </g>
   <g id="line2d_6">
    <path d="M 8.64 87.89664 
L 11.905102 87.3084 
L 14.754517 87.65928 
L 17.797127 88.96992 
L 20.806852 90.07416 
L 23.887024 89.76456 
L 26.934488 89.3724 
L 29.954096 89.00088 
L 33.018934 88.42296 
L 36.017685 88.81512 
L 39.059944 89.10408 
L 42.072693 89.14536 
L 45.157227 89.07312 
L 48.203846 87.9792 
L 51.222892 88.29912 
L 54.266592 86.38992 
L 57.294781 87.24648 
L 60.361519 87.1536 
L 63.353834 86.21448 
L 66.447125 86.66856 
L 69.501482 87.01944 
L 72.520914 84.44976 
L 75.557369 85.05864 
L 78.609299 84.58392 
L 81.641885 85.04832 
L 84.647144 83.71704 
L 87.72605 84.86256 
L 90.772353 85.6572 
L 93.797799 85.27536 
L 96.82715 84.49104 
L 99.878236 84.86256 
L 102.925066 85.32696 
L 105.927581 85.17216 
L 109.013627 85.31664 
L 112.085147 84.11952 
L 115.13029 85.66752 
L 118.160765 85.26504 
L 121.204641 86.26608 
L 124.276619 85.77072 
L 127.237843 85.38888 
L 130.338309 85.3992 
L 133.37603 84.09888 
L 136.347876 84.22272 
L 139.440183 84.34656 
L 142.479768 85.06896 
L 145.467968 85.7604 
L 148.517858 85.0896 
L 151.617867 85.01736 
L 154.68063 84.9348 
L 157.677201 85.296 
L 160.730433 85.35792 
L 163.765832 86.1732 
L 166.819591 85.92552 
L 169.819574 86.55504 
L 172.903721 87.13296 
L 175.972006 88.10304 
L 178.989011 87.9276 
L 182.038655 88.26816 
L 185.094735 87.78312 
L 188.110228 87.95856 
L 191.107256 88.94928 
L 194.194147 88.14432 
L 197.272912 88.33008 
L 200.26565 88.52616 
L 203.335623 88.86672 
L 206.364692 90.22896 
L 209.405719 89.82648 
L 212.400672 89.87808 
L 215.50149 89.46528 
L 218.585214 90.0432 
L 221.594095 89.96064 
L 224.667058 91.99368 
L 227.695423 93.05664 
L 230.684151 93.74808 
L 233.67622 97.02984 
L 236.780309 95.93592 
L 239.832521 95.07936 
L 242.8133 94.46016 
L 245.883589 95.47152 
L 248.940197 95.11032 
L 251.990896 94.82136 
L 255.007444 94.8936 
L 258.068273 94.70784 
L 261.20806 94.04736 
L 264.264176 93.40752 
L 267.206161 92.9844 
L 270.230377 93.93384 
L 273.340726 94.4292 
L 276.257986 94.19184 
L 279.36 93.87192 
" clip-path="url(#p84874b0496)" style="fill: none; stroke: #4a8dff; stroke-width: 0.6"/>
   </g>
   <g id="line2d_7">
    <path d="M 8.64 100.11552 
L 11.905102 99.87816 
L 14.754517 100.002 
L 17.797127 100.64184 
L 20.806852 101.41584 
L 23.887024 101.21976 
L 26.934488 101.14752 
L 29.954096 101.00304 
L 33.018934 100.86888 
L 36.017685 101.21976 
L 39.059944 101.28168 
L 42.072693 101.20944 
L 45.157227 101.14752 
L 48.203846 100.55928 
L 51.222892 100.65216 
L 54.266592 99.80592 
L 57.294781 99.96072 
L 60.361519 99.6408 
L 63.353834 99.1764 
L 66.447125 99.70272 
L 69.501482 99.94008 
L 72.520914 98.57784 
L 75.557369 98.65008 
L 78.609299 98.38176 
L 81.641885 98.48496 
L 84.647144 96.70992 
L 87.72605 98.05152 
L 90.772353 98.48496 
L 93.797799 97.96896 
L 96.82715 96.32808 
L 99.878236 96.20424 
L 102.925066 96.16296 
L 105.927581 96.1836 
L 109.013627 96.50352 
L 112.085147 94.76976 
L 115.13029 97.19496 
L 118.160765 96.9576 
L 121.204641 97.9896 
L 124.276619 96.89568 
L 127.237843 95.45088 
L 130.338309 95.67792 
L 133.37603 93.43848 
L 136.347876 92.90184 
L 139.440183 92.25168 
L 142.479768 92.87088 
L 145.467968 94.2744 
L 148.517858 93.1392 
L 151.617867 92.97408 
L 154.68063 92.9844 
L 157.677201 92.60256 
L 160.730433 92.53032 
L 163.765832 94.54272 
L 166.819591 92.85024 
L 169.819574 94.82136 
L 172.903721 95.75016 
L 175.972006 96.97824 
L 178.989011 97.08144 
L 182.038655 97.23624 
L 185.094735 95.94624 
L 188.110228 96.30744 
L 191.107256 98.08248 
L 194.194147 97.2672 
L 197.272912 96.61704 
L 200.26565 97.23624 
L 203.335623 98.08248 
L 206.364692 99.18672 
L 209.405719 99.03192 
L 212.400672 99.1248 
L 215.50149 98.74296 
L 218.585214 99.09384 
L 221.594095 100.0536 
L 224.667058 101.23008 
L 227.695423 101.99376 
L 230.684151 102.08664 
L 233.67622 102.8916 
L 236.780309 102.45816 
L 239.832521 102.28272 
L 242.8133 102.10728 
L 245.883589 102.582 
L 248.940197 102.29304 
L 251.990896 102.08664 
L 255.007444 102.066 
L 258.068273 101.86992 
L 261.20806 101.48808 
L 264.264176 101.40552 
L 267.206161 101.4984 
L 270.230377 101.97312 
L 273.340726 102.26208 
L 276.257986 102.066 
L 279.36 101.90088 
" clip-path="url(#p84874b0496)" style="fill: none; stroke: #f5841e; stroke-width: 0.6"/>
   </g>
  </g>
 </g>
 <defs>
  <clipPath id="p84874b0496">
   <rect x="8.64" y="4.8" width="270.72" height="103.2"/>
  </clipPath>
 </defs>
</svg>
