<?xml version="1.0" encoding="utf-8" standalone="no"?>
<!DOCTYPE svg PUBLIC "-//W3C//DTD SVG 1.1//EN"
  "http://www.w3.org/Graphics/SVG/1.1/DTD/svg11.dtd">
<svg xmlns:xlink="http://www.w3.org/1999/xlink" width="288pt" height="120pt" viewBox="0 0 288 120" xmlns="http://www.w3.org/2000/svg" version="1.1">
<desc id="nav-meta">{"window":"3m","count":4,"labels":["22.02","24.03","22.04","22.05"],"tick_utc":["2026-02-22T03:28:03Z","2026-03-24T03:21:58Z","2026-04-22T03:51:39Z","2026-05-22T04:48:25Z"],"w":720,"h":300}</desc>

 <metadata>
  <rdf:RDF xmlns:dc="http://purl.org/dc/elements/1.1/" xmlns:cc="http://creativecommons.org/ns#" xmlns:rdf="http://www.w3.org/1999/02/22-rdf-syntax-ns#">
   <cc:Work>
    <dc:type rdf:resource="http://purl.org/dc/dcmitype/StillImage"/>
    <dc:date>2026-05-22T04:48:27.376440</dc:date>
    <dc:format>image/svg+xml</dc:format>
    <dc:creator>
     <cc:Agent>
      <dc:title>Matplotlib v3.10.9, https://matplotlib.org/</dc:title>
     </cc:Agent>
    </dc:creator>
   </cc:Work>
  </rdf:RDF>
 </metadata>
 <defs>
  <style type="text/css">*{stroke-linejoin: round; stroke-linecap: butt}</style>
 </defs>
 <g id="figure_1">
  <g id="patch_1">
   <path d="M 0 120 
L 288 120 
L 288 0 
L 0 0 
L 0 120 
z
" style="fill: none; opacity: 0"/>
  </g>
  <g id="axes_1">
   <g id="patch_2">
    <path d="M 8.64 108 
L 279.36 108 
L 279.36 4.8 
L 8.64 4.8 
L 8.64 108 
z
" style="fill: none"/>
   </g>
   <g id="matplotlib.axis_1"/>
   <g id="matplotlib.axis_2"/>
   <g id="line2d_1">
    <path d="M 8.64 87.36 
L 279.36 87.36 
" clip-path="url(#p55e8bb9b56)" style="fill: none; stroke: #b2b2b2; stroke-opacity: 0.35; stroke-width: 0.5; stroke-linecap: square"/>
   </g>
   <g id="line2d_2">
    <path d="M 8.64 66.72 
L 279.36 66.72 
" clip-path="url(#p55e8bb9b56)" style="fill: none; stroke: #b2b2b2; stroke-opacity: 0.35; stroke-width: 0.5; stroke-linecap: square"/>
   </g>
   <g id="line2d_3">
    <path d="M 8.64 46.08 
L 279.36 46.08 
" clip-path="url(#p55e8bb9b56)" style="fill: none; stroke: #b2b2b2; stroke-opacity: 0.35; stroke-width: 0.5; stroke-linecap: square"/>
   </g>
   <g id="line2d_4">
    <path d="M 8.64 25.44 
L 279.36 25.44 
" clip-path="url(#p55e8bb9b56)" style="fill: none; stroke: #b2b2b2; stroke-opacity: 0.35; stroke-width: 0.5; stroke-linecap: square"/>
   </g>
   <g id="line2d_5">
    <path d="M 8.64 101.06496 
L 11.689039 102.09696 
L 14.472123 102.05568 
L 17.75788 101.4984 
L 20.784226 100.60056 
L 23.818347 100.80696 
L 26.822421 101.45712 
L 29.931379 100.55928 
L 32.939886 101.10624 
L 35.98685 100.8792 
L 39.009712 100.74504 
L 42.056148 100.21872 
L 45.094597 100.53864 
L 48.111162 101.07528 
L 51.180572 101.38488 
L 54.229576 101.26104 
L 57.249941 100.78632 
L 60.288636 100.91016 
L 63.34049 100.99272 
L 66.374506 100.38384 
L 69.410351 100.50768 
L 72.508402 100.60056 
L 75.556878 99.76464 
L 78.543572 99.49632 
L 81.606649 99.40344 
L 84.647385 100.09488 
L 87.657687 100.3632 
L 90.679775 100.19808 
L 93.765125 100.47672 
L 96.812158 100.79664 
L 99.823903 100.26 
L 103.090203 99.83688 
L 105.940664 100.13616 
L 108.984391 100.80696 
L 111.99522 101.38488 
L 115.076523 101.3436 
L 118.125105 101.292 
L 121.145821 101.28168 
L 124.211784 101.28168 
L 127.211636 101.8596 
L 130.255011 101.88024 
L 133.268866 101.72544 
L 136.354532 101.68416 
L 139.40227 101.47776 
L 142.422423 101.78736 
L 145.46724 101.09592 
L 148.496541 101.46744 
L 151.564404 101.3436 
L 154.557818 101.05464 
L 157.652244 101.3952 
L 160.707722 101.47776 
L 163.728262 100.86888 
L 166.765832 101.26104 
L 169.818882 100.99272 
L 172.852581 100.61088 
L 175.858942 100.44576 
L 178.938979 100.94112 
L 181.9864 101.09592 
L 185.012956 101.00304 
L 188.043419 100.69344 
L 191.095625 100.9308 
L 194.143573 100.92048 
L 197.14719 100.81728 
L 200.234369 100.8792 
L 203.307016 100.64184 
L 206.353276 101.1888 
L 209.384864 101.09592 
L 212.429857 101.37456 
L 215.502963 101.21976 
L 218.465274 101.20944 
L 221.566878 101.23008 
L 224.605714 100.92048 
L 227.57865 101.06496 
L 230.672092 100.70376 
L 233.712792 100.55928 
L 236.702089 100.53864 
L 239.753099 99.60984 
L 242.854246 99.72336 
L 245.918133 99.44472 
L 248.915803 99.25896 
L 251.970155 99.32088 
L 255.006669 100.22904 
L 258.061549 100.01232 
L 261.062633 100.43544 
L 264.147911 100.75536 
L 267.217322 101.02368 
L 270.235435 101.02368 
L 273.286198 101.17848 
L 276.3434 100.7244 
L 279.36 100.75536 
" clip-path="url(#p55e8bb9b56)" style="fill: none; stroke: #bebebe; stroke-width: 0.5; stroke-linecap: round"/>
   </g>
   <g id="line2d_6">
    <path d="M 8.64 90.3528 
L 11.689039 92.004 
L 14.472123 92.13816 
L 17.75788 91.25064 
L 20.784226 89.166 
L 23.818347 89.56848 
L 26.822421 90.93072 
L 29.931379 89.41368 
L 32.939886 90.37344 
L 35.98685 89.79552 
L 39.009712 90.23928 
L 42.056148 88.0824 
L 45.094597 88.7532 
L 48.111162 90.16704 
L 51.180572 90.67272 
L 54.229576 90.18768 
L 57.249941 89.2692 
L 60.288636 89.54784 
L 63.34049 89.49624 
L 66.374506 88.31976 
L 69.410351 88.45392 
L 72.508402 88.46424 
L 75.556878 86.38992 
L 78.543572 84.80064 
L 81.606649 84.8316 
L 84.647385 86.586 
L 87.657687 87.74184 
L 90.679775 87.618 
L 93.765125 88.19592 
L 96.812158 89.08344 
L 99.823903 87.89664 
L 103.090203 87.3084 
L 105.940664 87.65928 
L 108.984391 88.96992 
L 111.99522 90.07416 
L 115.076523 89.76456 
L 118.125105 89.3724 
L 121.145821 89.00088 
L 124.211784 88.42296 
L 127.211636 88.81512 
L 130.255011 89.10408 
L 133.268866 89.14536 
L 136.354532 89.07312 
L 139.40227 87.9792 
L 142.422423 88.29912 
L 145.46724 86.38992 
L 148.496541 87.24648 
L 151.564404 87.1536 
L 154.557818 86.21448 
L 157.652244 86.66856 
L 160.707722 87.01944 
L 163.728262 84.44976 
L 166.765832 85.05864 
L 169.818882 84.58392 
L 172.852581 85.04832 
L 175.858942 83.71704 
L 178.938979 84.86256 
L 181.9864 85.6572 
L 185.012956 85.27536 
L 188.043419 84.49104 
L 191.095625 84.86256 
L 194.143573 85.32696 
L 197.14719 85.17216 
L 200.234369 85.31664 
L 203.307016 84.11952 
L 206.353276 85.66752 
L 209.384864 85.26504 
L 212.429857 86.26608 
L 215.502963 85.77072 
L 218.465274 85.38888 
L 221.566878 85.3992 
L 224.605714 84.09888 
L 227.57865 84.22272 
L 230.672092 84.34656 
L 233.712792 85.06896 
L 236.702089 85.7604 
L 239.753099 85.0896 
L 242.854246 85.01736 
L 245.918133 84.9348 
L 248.915803 85.296 
L 251.970155 85.35792 
L 255.006669 86.1732 
L 258.061549 85.92552 
L 261.062633 86.55504 
L 264.147911 87.13296 
L 267.217322 88.10304 
L 270.235435 87.9276 
L 273.286198 88.26816 
L 276.3434 87.78312 
L 279.36 87.95856 
" clip-path="url(#p55e8bb9b56)" style="fill: none; stroke: #4a8dff; stroke-width: 0.6"/>
   </g>
   <g id="line2d_7">
    <path d="M 8.64 100.91016 
L 11.689039 101.7564 
L 14.472123 101.84928 
L 17.75788 101.56032 
L 20.784226 100.85856 
L 23.818347 101.12688 
L 26.822421 101.4468 
L 29.931379 101.02368 
L 32.939886 101.30232 
L 35.98685 100.81728 
L 39.009712 100.79664 
L 42.056148 99.3312 
L 45.094597 99.92976 
L 48.111162 100.78632 
L 51.180572 101.17848 
L 54.229576 101.1372 
L 57.249941 100.21872 
L 60.288636 100.37352 
L 63.34049 100.4664 
L 66.374506 99.88848 
L 69.410351 99.94008 
L 72.508402 99.81624 
L 75.556878 98.93904 
L 78.543572 98.3508 
L 81.606649 98.52624 
L 84.647385 99.78528 
L 87.657687 100.12584 
L 90.679775 100.03296 
L 93.765125 100.45608 
L 96.812158 100.83792 
L 99.823903 100.11552 
L 103.090203 99.87816 
L 105.940664 100.002 
L 108.984391 100.64184 
L 111.99522 101.41584 
L 115.076523 101.21976 
L 118.125105 101.14752 
L 121.145821 101.00304 
L 124.211784 100.86888 
L 127.211636 101.21976 
L 130.255011 101.28168 
L 133.268866 101.20944 
L 136.354532 101.14752 
L 139.40227 100.55928 
L 142.422423 100.65216 
L 145.46724 99.80592 
L 148.496541 99.96072 
L 151.564404 99.6408 
L 154.557818 99.1764 
L 157.652244 99.70272 
L 160.707722 99.94008 
L 163.728262 98.57784 
L 166.765832 98.65008 
L 169.818882 98.38176 
L 172.852581 98.48496 
L 175.858942 96.70992 
L 178.938979 98.05152 
L 181.9864 98.48496 
L 185.012956 97.96896 
L 188.043419 96.32808 
L 191.095625 96.20424 
L 194.143573 96.16296 
L 197.14719 96.1836 
L 200.234369 96.50352 
L 203.307016 94.76976 
L 206.353276 97.19496 
L 209.384864 96.9576 
L 212.429857 97.9896 
L 215.502963 96.89568 
L 218.465274 95.45088 
L 221.566878 95.67792 
L 224.605714 93.43848 
L 227.57865 92.90184 
L 230.672092 92.25168 
L 233.712792 92.87088 
L 236.702089 94.2744 
L 239.753099 93.1392 
L 242.854246 92.97408 
L 245.918133 92.9844 
L 248.915803 92.60256 
L 251.970155 92.53032 
L 255.006669 94.54272 
L 258.061549 92.85024 
L 261.062633 94.82136 
L 264.147911 95.75016 
L 267.217322 96.97824 
L 270.235435 97.08144 
L 273.286198 97.23624 
L 276.3434 95.94624 
L 279.36 96.30744 
" clip-path="url(#p55e8bb9b56)" style="fill: none; stroke: #f5841e; stroke-width: 0.6"/>
   </g>
  </g>
 </g>
 <defs>
  <clipPath id="p55e8bb9b56">
   <rect x="8.64" y="4.8" width="270.72" height="103.2"/>
  </clipPath>
 </defs>
</svg>
