<?xml version="1.0" encoding="utf-8" standalone="no"?>
<!DOCTYPE svg PUBLIC "-//W3C//DTD SVG 1.1//EN"
  "http://www.w3.org/Graphics/SVG/1.1/DTD/svg11.dtd">
<svg xmlns:xlink="http://www.w3.org/1999/xlink" width="288pt" height="120pt" viewBox="0 0 288 120" xmlns="http://www.w3.org/2000/svg" version="1.1">
<desc id="nav-meta">{"window":"3m","count":4,"labels":["04.02","06.03","04.04","04.05"],"tick_utc":["2026-02-04T08:15:41Z","2026-03-06T03:16:38Z","2026-04-04T03:24:53Z","2026-05-04T04:31:15Z"],"w":720,"h":300}</desc>

 <metadata>
  <rdf:RDF xmlns:dc="http://purl.org/dc/elements/1.1/" xmlns:cc="http://creativecommons.org/ns#" xmlns:rdf="http://www.w3.org/1999/02/22-rdf-syntax-ns#">
   <cc:Work>
    <dc:type rdf:resource="http://purl.org/dc/dcmitype/StillImage"/>
    <dc:date>2026-05-04T20:06:01.651983</dc:date>
    <dc:format>image/svg+xml</dc:format>
    <dc:creator>
     <cc:Agent>
      <dc:title>Matplotlib v3.10.9, https://matplotlib.org/</dc:title>
     </cc:Agent>
    </dc:creator>
   </cc:Work>
  </rdf:RDF>
 </metadata>
 <defs>
  <style type="text/css">*{stroke-linejoin: round; stroke-linecap: butt}</style>
 </defs>
 <g id="figure_1">
  <g id="patch_1">
   <path d="M 0 120 
L 288 120 
L 288 0 
L 0 0 
L 0 120 
z
" style="fill: none; opacity: 0"/>
  </g>
  <g id="axes_1">
   <g id="patch_2">
    <path d="M 8.64 108 
L 279.36 108 
L 279.36 4.8 
L 8.64 4.8 
L 8.64 108 
z
" style="fill: none"/>
   </g>
   <g id="matplotlib.axis_1"/>
   <g id="matplotlib.axis_2"/>
   <g id="line2d_1">
    <path d="M 8.64 87.36 
L 279.36 87.36 
" clip-path="url(#p36b18da41b)" style="fill: none; stroke: #b2b2b2; stroke-opacity: 0.35; stroke-width: 0.5; stroke-linecap: square"/>
   </g>
   <g id="line2d_2">
    <path d="M 8.64 66.72 
L 279.36 66.72 
" clip-path="url(#p36b18da41b)" style="fill: none; stroke: #b2b2b2; stroke-opacity: 0.35; stroke-width: 0.5; stroke-linecap: square"/>
   </g>
   <g id="line2d_3">
    <path d="M 8.64 46.08 
L 279.36 46.08 
" clip-path="url(#p36b18da41b)" style="fill: none; stroke: #b2b2b2; stroke-opacity: 0.35; stroke-width: 0.5; stroke-linecap: square"/>
   </g>
   <g id="line2d_4">
    <path d="M 8.64 25.44 
L 279.36 25.44 
" clip-path="url(#p36b18da41b)" style="fill: none; stroke: #b2b2b2; stroke-opacity: 0.35; stroke-width: 0.5; stroke-linecap: square"/>
   </g>
   <g id="line2d_5">
    <path d="M 8.64 99.10416 
L 11.061519 100.16712 
L 14.107101 102.23112 
L 17.141186 100.54896 
L 20.257974 100.70376 
L 23.279962 100.68312 
L 26.344483 100.95144 
L 29.385304 101.28168 
L 32.421469 101.71512 
L 35.467686 101.84928 
L 38.478177 101.034 
L 41.364525 100.54896 
L 44.607113 101.04432 
L 47.271486 100.81728 
L 50.696549 101.034 
L 53.73998 101.4984 
L 56.769303 101.33328 
L 59.797816 101.1372 
L 62.879759 101.06496 
L 65.936063 102.09696 
L 68.725777 102.05568 
L 72.019362 101.4984 
L 75.052918 100.60056 
L 78.094268 100.80696 
L 81.105499 101.45712 
L 84.221864 100.55928 
L 87.237539 101.10624 
L 90.291761 100.8792 
L 93.321826 100.74504 
L 96.375519 100.21872 
L 99.421207 100.53864 
L 102.444959 101.07528 
L 105.521682 101.38488 
L 108.57795 101.26104 
L 111.605511 100.78632 
L 114.651445 100.91016 
L 117.71057 100.99272 
L 120.751814 100.38384 
L 123.794893 100.50768 
L 126.900324 100.60056 
L 129.956063 99.76464 
L 132.949872 99.49632 
L 136.020248 99.40344 
L 139.068228 100.09488 
L 142.085702 100.3632 
L 145.11499 100.19808 
L 148.20769 100.47672 
L 151.261983 100.79664 
L 154.280903 100.26 
L 157.554985 99.83688 
L 160.412237 100.13616 
L 163.463215 100.80696 
L 166.481218 101.38488 
L 169.569862 101.3436 
L 172.625707 101.292 
L 175.65362 101.28168 
L 178.726887 101.28168 
L 181.733886 101.8596 
L 184.784512 101.88024 
L 187.805547 101.72544 
L 190.898565 101.68416 
L 193.953563 101.47776 
L 196.980912 101.78736 
L 200.032983 101.09592 
L 203.069501 101.46744 
L 206.144673 101.3436 
L 209.145218 101.05464 
L 212.247017 101.3952 
L 215.309775 101.47776 
L 218.337511 100.86888 
L 221.382318 101.26104 
L 224.442642 100.99272 
L 227.483568 100.61088 
L 230.497092 100.44576 
L 233.584467 100.94112 
L 236.639148 101.09592 
L 239.672915 101.00304 
L 242.710597 100.69344 
L 245.770075 100.9308 
L 248.825285 100.92048 
L 251.836058 100.81728 
L 254.930592 100.8792 
L 258.01056 100.64184 
L 261.064077 101.1888 
L 264.102888 101.09592 
L 267.155135 101.37456 
L 270.235562 101.21976 
L 273.204931 101.20944 
L 276.313924 101.23008 
L 279.36 100.92048 
" clip-path="url(#p36b18da41b)" style="fill: none; stroke: #bebebe; stroke-width: 0.5; stroke-linecap: round"/>
   </g>
   <g id="line2d_6">
    <path d="M 8.64 85.84296 
L 11.061519 88.25784 
L 14.107101 91.41576 
L 17.141186 88.7532 
L 20.257974 88.65 
L 23.279962 88.55712 
L 26.344483 88.96992 
L 29.385304 89.7336 
L 32.421469 90.456 
L 35.467686 90.56952 
L 38.478177 89.15568 
L 41.364525 88.9596 
L 44.607113 90.6624 
L 47.271486 89.94 
L 50.696549 90.00192 
L 53.73998 90.3528 
L 56.769303 90.62112 
L 59.797816 90.5076 
L 62.879759 90.3528 
L 65.936063 92.004 
L 68.725777 92.13816 
L 72.019362 91.25064 
L 75.052918 89.166 
L 78.094268 89.56848 
L 81.105499 90.93072 
L 84.221864 89.41368 
L 87.237539 90.37344 
L 90.291761 89.79552 
L 93.321826 90.23928 
L 96.375519 88.0824 
L 99.421207 88.7532 
L 102.444959 90.16704 
L 105.521682 90.67272 
L 108.57795 90.18768 
L 111.605511 89.2692 
L 114.651445 89.54784 
L 117.71057 89.49624 
L 120.751814 88.31976 
L 123.794893 88.45392 
L 126.900324 88.46424 
L 129.956063 86.38992 
L 132.949872 84.80064 
L 136.020248 84.8316 
L 139.068228 86.586 
L 142.085702 87.74184 
L 145.11499 87.618 
L 148.20769 88.19592 
L 151.261983 89.08344 
L 154.280903 87.89664 
L 157.554985 87.3084 
L 160.412237 87.65928 
L 163.463215 88.96992 
L 166.481218 90.07416 
L 169.569862 89.76456 
L 172.625707 89.3724 
L 175.65362 89.00088 
L 178.726887 88.42296 
L 181.733886 88.81512 
L 184.784512 89.10408 
L 187.805547 89.14536 
L 190.898565 89.07312 
L 193.953563 87.9792 
L 196.980912 88.29912 
L 200.032983 86.38992 
L 203.069501 87.24648 
L 206.144673 87.1536 
L 209.145218 86.21448 
L 212.247017 86.66856 
L 215.309775 87.01944 
L 218.337511 84.44976 
L 221.382318 85.05864 
L 224.442642 84.58392 
L 227.483568 85.04832 
L 230.497092 83.71704 
L 233.584467 84.86256 
L 236.639148 85.6572 
L 239.672915 85.27536 
L 242.710597 84.49104 
L 245.770075 84.86256 
L 248.825285 85.32696 
L 251.836058 85.17216 
L 254.930592 85.31664 
L 258.01056 84.11952 
L 261.064077 85.66752 
L 264.102888 85.26504 
L 267.155135 86.26608 
L 270.235562 85.77072 
L 273.204931 85.38888 
L 276.313924 85.3992 
L 279.36 84.09888 
" clip-path="url(#p36b18da41b)" style="fill: none; stroke: #4a8dff; stroke-width: 0.6"/>
   </g>
   <g id="line2d_7">
    <path d="M 8.64 97.71096 
L 11.061519 99.80592 
L 14.107101 101.79768 
L 17.141186 100.03296 
L 20.257974 100.518 
L 23.279962 99.98136 
L 26.344483 100.49736 
L 29.385304 100.78632 
L 32.421469 101.07528 
L 35.467686 101.26104 
L 38.478177 100.63152 
L 41.364525 100.38384 
L 44.607113 100.84824 
L 47.271486 100.65216 
L 50.696549 101.034 
L 53.73998 101.19912 
L 56.769303 101.10624 
L 59.797816 100.97208 
L 62.879759 100.91016 
L 65.936063 101.7564 
L 68.725777 101.84928 
L 72.019362 101.56032 
L 75.052918 100.85856 
L 78.094268 101.12688 
L 81.105499 101.4468 
L 84.221864 101.02368 
L 87.237539 101.30232 
L 90.291761 100.81728 
L 93.321826 100.79664 
L 96.375519 99.3312 
L 99.421207 99.92976 
L 102.444959 100.78632 
L 105.521682 101.17848 
L 108.57795 101.1372 
L 111.605511 100.21872 
L 114.651445 100.37352 
L 117.71057 100.4664 
L 120.751814 99.88848 
L 123.794893 99.94008 
L 126.900324 99.81624 
L 129.956063 98.93904 
L 132.949872 98.3508 
L 136.020248 98.52624 
L 139.068228 99.78528 
L 142.085702 100.12584 
L 145.11499 100.03296 
L 148.20769 100.45608 
L 151.261983 100.83792 
L 154.280903 100.11552 
L 157.554985 99.87816 
L 160.412237 100.002 
L 163.463215 100.64184 
L 166.481218 101.41584 
L 169.569862 101.21976 
L 172.625707 101.14752 
L 175.65362 101.00304 
L 178.726887 100.86888 
L 181.733886 101.21976 
L 184.784512 101.28168 
L 187.805547 101.20944 
L 190.898565 101.14752 
L 193.953563 100.55928 
L 196.980912 100.65216 
L 200.032983 99.80592 
L 203.069501 99.96072 
L 206.144673 99.6408 
L 209.145218 99.1764 
L 212.247017 99.70272 
L 215.309775 99.94008 
L 218.337511 98.57784 
L 221.382318 98.65008 
L 224.442642 98.38176 
L 227.483568 98.48496 
L 230.497092 96.70992 
L 233.584467 98.05152 
L 236.639148 98.48496 
L 239.672915 97.96896 
L 242.710597 96.32808 
L 245.770075 96.20424 
L 248.825285 96.16296 
L 251.836058 96.1836 
L 254.930592 96.50352 
L 258.01056 94.76976 
L 261.064077 97.19496 
L 264.102888 96.9576 
L 267.155135 97.9896 
L 270.235562 96.89568 
L 273.204931 95.45088 
L 276.313924 95.67792 
L 279.36 93.43848 
" clip-path="url(#p36b18da41b)" style="fill: none; stroke: #f5841e; stroke-width: 0.6"/>
   </g>
  </g>
 </g>
 <defs>
  <clipPath id="p36b18da41b">
   <rect x="8.64" y="4.8" width="270.72" height="103.2"/>
  </clipPath>
 </defs>
</svg>
