<?xml version="1.0" encoding="utf-8" standalone="no"?>
<!DOCTYPE svg PUBLIC "-//W3C//DTD SVG 1.1//EN"
  "http://www.w3.org/Graphics/SVG/1.1/DTD/svg11.dtd">
<svg xmlns:xlink="http://www.w3.org/1999/xlink" width="288pt" height="120pt" viewBox="0 0 288 120" xmlns="http://www.w3.org/2000/svg" version="1.1">
<desc id="nav-meta">{"window":"1m","count":4,"labels":["16.02","26.02","08.03","18.03"],"tick_utc":["2026-02-16T03:32:51Z","2026-02-26T03:20:47Z","2026-03-08T03:19:34Z","2026-03-18T03:32:26Z"],"w":720,"h":300}</desc>

 <metadata>
  <rdf:RDF xmlns:dc="http://purl.org/dc/elements/1.1/" xmlns:cc="http://creativecommons.org/ns#" xmlns:rdf="http://www.w3.org/1999/02/22-rdf-syntax-ns#">
   <cc:Work>
    <dc:type rdf:resource="http://purl.org/dc/dcmitype/StillImage"/>
    <dc:date>2026-03-18T03:32:28.160609</dc:date>
    <dc:format>image/svg+xml</dc:format>
    <dc:creator>
     <cc:Agent>
      <dc:title>Matplotlib v3.10.8, https://matplotlib.org/</dc:title>
     </cc:Agent>
    </dc:creator>
   </cc:Work>
  </rdf:RDF>
 </metadata>
 <defs>
  <style type="text/css">*{stroke-linejoin: round; stroke-linecap: butt}</style>
 </defs>
 <g id="figure_1">
  <g id="patch_1">
   <path d="M 0 120 
L 288 120 
L 288 0 
L 0 0 
L 0 120 
z
" style="fill: none; opacity: 0"/>
  </g>
  <g id="axes_1">
   <g id="patch_2">
    <path d="M 8.64 108 
L 279.36 108 
L 279.36 4.8 
L 8.64 4.8 
L 8.64 108 
z
" style="fill: none"/>
   </g>
   <g id="matplotlib.axis_1"/>
   <g id="matplotlib.axis_2"/>
   <g id="line2d_1">
    <path d="M 8.64 87.36 
L 279.36 87.36 
" clip-path="url(#pc1d83c26b1)" style="fill: none; stroke: #b2b2b2; stroke-opacity: 0.35; stroke-width: 0.5; stroke-linecap: square"/>
   </g>
   <g id="line2d_2">
    <path d="M 8.64 66.72 
L 279.36 66.72 
" clip-path="url(#pc1d83c26b1)" style="fill: none; stroke: #b2b2b2; stroke-opacity: 0.35; stroke-width: 0.5; stroke-linecap: square"/>
   </g>
   <g id="line2d_3">
    <path d="M 8.64 46.08 
L 279.36 46.08 
" clip-path="url(#pc1d83c26b1)" style="fill: none; stroke: #b2b2b2; stroke-opacity: 0.35; stroke-width: 0.5; stroke-linecap: square"/>
   </g>
   <g id="line2d_4">
    <path d="M 8.64 25.44 
L 279.36 25.44 
" clip-path="url(#pc1d83c26b1)" style="fill: none; stroke: #b2b2b2; stroke-opacity: 0.35; stroke-width: 0.5; stroke-linecap: square"/>
   </g>
   <g id="line2d_5">
    <path d="M 8.64 101.04432 
L 16.530541 100.81728 
L 26.673865 101.034 
L 35.686985 101.4984 
L 44.658327 101.33328 
L 53.627267 101.1372 
L 62.754442 101.06496 
L 71.805685 102.09696 
L 80.067424 102.05568 
L 89.821376 101.4984 
L 98.805252 100.60056 
L 107.81221 100.80696 
L 116.729971 101.45712 
L 125.959085 100.55928 
L 134.890007 101.10624 
L 143.935087 100.8792 
L 152.908623 100.74504 
L 161.952136 100.21872 
L 170.971941 100.53864 
L 179.926781 101.07528 
L 189.038498 101.38488 
L 198.089636 101.26104 
L 207.055756 100.78632 
L 216.076292 100.91016 
L 225.13589 100.99272 
L 234.142535 100.38384 
L 243.154611 100.50768 
L 252.351346 100.60056 
L 261.400918 99.76464 
L 270.267083 99.49632 
L 279.36 99.40344 
" clip-path="url(#pc1d83c26b1)" style="fill: none; stroke: #bebebe; stroke-width: 0.5; stroke-linecap: round"/>
   </g>
   <g id="line2d_6">
    <path d="M 8.64 90.6624 
L 16.530541 89.94 
L 26.673865 90.00192 
L 35.686985 90.3528 
L 44.658327 90.62112 
L 53.627267 90.5076 
L 62.754442 90.3528 
L 71.805685 92.004 
L 80.067424 92.13816 
L 89.821376 91.25064 
L 98.805252 89.166 
L 107.81221 89.56848 
L 116.729971 90.93072 
L 125.959085 89.41368 
L 134.890007 90.37344 
L 143.935087 89.79552 
L 152.908623 90.23928 
L 161.952136 88.0824 
L 170.971941 88.7532 
L 179.926781 90.16704 
L 189.038498 90.67272 
L 198.089636 90.18768 
L 207.055756 89.2692 
L 216.076292 89.54784 
L 225.13589 89.49624 
L 234.142535 88.31976 
L 243.154611 88.45392 
L 252.351346 88.46424 
L 261.400918 86.38992 
L 270.267083 84.80064 
L 279.36 84.8316 
" clip-path="url(#pc1d83c26b1)" style="fill: none; stroke: #4a8dff; stroke-width: 0.6"/>
   </g>
   <g id="line2d_7">
    <path d="M 8.64 100.84824 
L 16.530541 100.65216 
L 26.673865 101.034 
L 35.686985 101.19912 
L 44.658327 101.10624 
L 53.627267 100.97208 
L 62.754442 100.91016 
L 71.805685 101.7564 
L 80.067424 101.84928 
L 89.821376 101.56032 
L 98.805252 100.85856 
L 107.81221 101.12688 
L 116.729971 101.4468 
L 125.959085 101.02368 
L 134.890007 101.30232 
L 143.935087 100.81728 
L 152.908623 100.79664 
L 161.952136 99.3312 
L 170.971941 99.92976 
L 179.926781 100.78632 
L 189.038498 101.17848 
L 198.089636 101.1372 
L 207.055756 100.21872 
L 216.076292 100.37352 
L 225.13589 100.4664 
L 234.142535 99.88848 
L 243.154611 99.94008 
L 252.351346 99.81624 
L 261.400918 98.93904 
L 270.267083 98.3508 
L 279.36 98.52624 
" clip-path="url(#pc1d83c26b1)" style="fill: none; stroke: #f5841e; stroke-width: 0.6"/>
   </g>
  </g>
 </g>
 <defs>
  <clipPath id="pc1d83c26b1">
   <rect x="8.64" y="4.8" width="270.72" height="103.2"/>
  </clipPath>
 </defs>
</svg>
