<?xml version="1.0" encoding="utf-8" standalone="no"?>
<!DOCTYPE svg PUBLIC "-//W3C//DTD SVG 1.1//EN"
  "http://www.w3.org/Graphics/SVG/1.1/DTD/svg11.dtd">
<svg xmlns:xlink="http://www.w3.org/1999/xlink" width="288pt" height="120pt" viewBox="0 0 288 120" xmlns="http://www.w3.org/2000/svg" version="1.1">
<desc id="nav-meta">{"window":"3m","count":4,"labels":["30.12","29.01","27.02","29.03"],"tick_utc":["2025-12-30T12:00:00Z","2026-01-29T12:00:00Z","2026-02-27T03:18:03Z","2026-03-29T03:47:09Z"],"w":720,"h":300}</desc>

 <metadata>
  <rdf:RDF xmlns:dc="http://purl.org/dc/elements/1.1/" xmlns:cc="http://creativecommons.org/ns#" xmlns:rdf="http://www.w3.org/1999/02/22-rdf-syntax-ns#">
   <cc:Work>
    <dc:type rdf:resource="http://purl.org/dc/dcmitype/StillImage"/>
    <dc:date>2026-03-29T19:20:09.388955</dc:date>
    <dc:format>image/svg+xml</dc:format>
    <dc:creator>
     <cc:Agent>
      <dc:title>Matplotlib v3.10.8, https://matplotlib.org/</dc:title>
     </cc:Agent>
    </dc:creator>
   </cc:Work>
  </rdf:RDF>
 </metadata>
 <defs>
  <style type="text/css">*{stroke-linejoin: round; stroke-linecap: butt}</style>
 </defs>
 <g id="figure_1">
  <g id="patch_1">
   <path d="M 0 120 
L 288 120 
L 288 0 
L 0 0 
L 0 120 
z
" style="fill: none; opacity: 0"/>
  </g>
  <g id="axes_1">
   <g id="patch_2">
    <path d="M 8.64 108 
L 279.36 108 
L 279.36 4.8 
L 8.64 4.8 
L 8.64 108 
z
" style="fill: none"/>
   </g>
   <g id="matplotlib.axis_1"/>
   <g id="matplotlib.axis_2"/>
   <g id="line2d_1">
    <path d="M 8.64 87.36 
L 279.36 87.36 
" clip-path="url(#pb192b8c8e7)" style="fill: none; stroke: #b2b2b2; stroke-opacity: 0.35; stroke-width: 0.5; stroke-linecap: square"/>
   </g>
   <g id="line2d_2">
    <path d="M 8.64 66.72 
L 279.36 66.72 
" clip-path="url(#pb192b8c8e7)" style="fill: none; stroke: #b2b2b2; stroke-opacity: 0.35; stroke-width: 0.5; stroke-linecap: square"/>
   </g>
   <g id="line2d_3">
    <path d="M 8.64 46.08 
L 279.36 46.08 
" clip-path="url(#pb192b8c8e7)" style="fill: none; stroke: #b2b2b2; stroke-opacity: 0.35; stroke-width: 0.5; stroke-linecap: square"/>
   </g>
   <g id="line2d_4">
    <path d="M 8.64 25.44 
L 279.36 25.44 
" clip-path="url(#pb192b8c8e7)" style="fill: none; stroke: #b2b2b2; stroke-opacity: 0.35; stroke-width: 0.5; stroke-linecap: square"/>
   </g>
   <g id="line2d_5">
    <path d="M 8.64 92.87088 
L 11.69354 92.38584 
L 14.747081 92.47872 
L 17.800621 91.88016 
L 20.854162 90.42504 
L 23.907702 90.08448 
L 26.961242 89.92968 
L 30.014783 88.76352 
L 33.068323 87.94824 
L 36.121864 89.2692 
L 39.175404 88.72224 
L 42.228944 89.39304 
L 45.282485 89.40336 
L 48.336025 88.41264 
L 51.389566 88.4952 
L 54.443106 86.86464 
L 57.496646 86.42088 
L 60.550187 87.62832 
L 63.603727 86.93688 
L 66.657268 87.23616 
L 69.710808 88.63968 
L 72.764348 90.0432 
L 75.817889 92.12784 
L 78.871429 91.16808 
L 81.92497 91.46736 
L 84.97851 91.73568 
L 88.03205 91.78728 
L 91.085591 94.0164 
L 94.139131 92.5716 
L 97.192672 91.76664 
L 100.246212 92.33424 
L 103.299752 94.36728 
L 106.353293 94.46016 
L 109.406833 97.71096 
L 112.460374 98.48496 
L 115.513914 97.85544 
L 118.091788 99.10416 
L 120.518398 100.16712 
L 123.570383 102.23112 
L 126.610847 100.54896 
L 129.734188 100.70376 
L 132.76253 100.68312 
L 135.833494 100.95144 
L 138.880708 101.28168 
L 141.923257 101.71512 
L 144.975878 101.84928 
L 147.992698 101.034 
L 150.885115 100.54896 
L 154.13452 101.04432 
L 156.804495 100.81728 
L 160.236759 101.034 
L 163.286589 101.4984 
L 166.322282 101.33328 
L 169.357161 101.1372 
L 172.445584 101.06496 
L 175.508314 102.09696 
L 178.303893 102.05568 
L 181.604403 101.4984 
L 184.644337 100.60056 
L 187.692081 100.80696 
L 190.709643 101.45712 
L 193.83256 100.55928 
L 196.854575 101.10624 
L 199.91522 100.8792 
L 202.951654 100.74504 
L 206.011768 100.21872 
L 209.06386 100.53864 
L 212.093969 101.07528 
L 215.177161 101.38488 
L 218.239855 101.26104 
L 221.27378 100.78632 
L 224.326119 100.91016 
L 227.391676 100.99272 
L 230.439314 100.38384 
L 233.48879 100.50768 
L 236.600751 100.60056 
L 239.662915 99.76464 
L 242.663018 99.49632 
L 245.739849 99.40344 
L 248.794237 100.09488 
L 251.818055 100.3632 
L 254.853713 100.19808 
L 257.952915 100.47672 
L 261.01363 100.79664 
L 264.038896 100.26 
L 267.319862 99.83688 
L 270.183122 100.13616 
L 273.240514 100.80696 
L 276.264862 101.38488 
L 279.36 101.3436 
" clip-path="url(#pb192b8c8e7)" style="fill: none; stroke: #bebebe; stroke-width: 0.5; stroke-linecap: round"/>
   </g>
   <g id="line2d_6">
    <path d="M 8.64 76.03896 
L 11.69354 75.51264 
L 14.747081 75.56424 
L 17.800621 75.05856 
L 20.854162 73.26288 
L 23.907702 73.20096 
L 26.961242 73.00488 
L 30.014783 71.68392 
L 33.068323 70.6932 
L 36.121864 72.62304 
L 39.175404 73.52088 
L 42.228944 73.83048 
L 45.282485 73.8408 
L 48.336025 73.29384 
L 51.389566 73.72728 
L 54.443106 70.32168 
L 57.496646 69.77472 
L 60.550187 70.34232 
L 63.603727 70.67256 
L 66.657268 70.51776 
L 69.710808 70.848 
L 72.764348 72.31344 
L 75.817889 76.01832 
L 78.871429 75.41976 
L 81.92497 75.83256 
L 84.97851 75.79128 
L 88.03205 75.82224 
L 91.085591 77.82432 
L 94.139131 76.14216 
L 97.192672 74.75928 
L 100.246212 74.96568 
L 103.299752 77.75208 
L 106.353293 79.48584 
L 109.406833 83.31456 
L 112.460374 85.90488 
L 115.513914 84.79032 
L 118.091788 85.84296 
L 120.518398 88.25784 
L 123.570383 91.41576 
L 126.610847 88.7532 
L 129.734188 88.65 
L 132.76253 88.55712 
L 135.833494 88.96992 
L 138.880708 89.7336 
L 141.923257 90.456 
L 144.975878 90.56952 
L 147.992698 89.15568 
L 150.885115 88.9596 
L 154.13452 90.6624 
L 156.804495 89.94 
L 160.236759 90.00192 
L 163.286589 90.3528 
L 166.322282 90.62112 
L 169.357161 90.5076 
L 172.445584 90.3528 
L 175.508314 92.004 
L 178.303893 92.13816 
L 181.604403 91.25064 
L 184.644337 89.166 
L 187.692081 89.56848 
L 190.709643 90.93072 
L 193.83256 89.41368 
L 196.854575 90.37344 
L 199.91522 89.79552 
L 202.951654 90.23928 
L 206.011768 88.0824 
L 209.06386 88.7532 
L 212.093969 90.16704 
L 215.177161 90.67272 
L 218.239855 90.18768 
L 221.27378 89.2692 
L 224.326119 89.54784 
L 227.391676 89.49624 
L 230.439314 88.31976 
L 233.48879 88.45392 
L 236.600751 88.46424 
L 239.662915 86.38992 
L 242.663018 84.80064 
L 245.739849 84.8316 
L 248.794237 86.586 
L 251.818055 87.74184 
L 254.853713 87.618 
L 257.952915 88.19592 
L 261.01363 89.08344 
L 264.038896 87.89664 
L 267.319862 87.3084 
L 270.183122 87.65928 
L 273.240514 88.96992 
L 276.264862 90.07416 
L 279.36 89.76456 
" clip-path="url(#pb192b8c8e7)" style="fill: none; stroke: #4a8dff; stroke-width: 0.6"/>
   </g>
   <g id="line2d_7">
    <path d="M 8.64 86.40024 
L 11.69354 85.09992 
L 14.747081 86.02872 
L 17.800621 84.78 
L 20.854162 83.53128 
L 23.907702 82.83984 
L 26.961242 82.03488 
L 30.014783 79.39296 
L 33.068323 79.66128 
L 36.121864 82.15872 
L 39.175404 82.43736 
L 42.228944 82.93272 
L 45.282485 83.00496 
L 48.336025 82.6128 
L 51.389566 82.28256 
L 54.443106 78.01008 
L 57.496646 76.19376 
L 60.550187 77.66952 
L 63.603727 77.74176 
L 66.657268 78.1752 
L 69.710808 79.5684 
L 72.764348 80.8068 
L 75.817889 85.20312 
L 78.871429 84.12984 
L 81.92497 84.03696 
L 84.97851 84.06792 
L 88.03205 84.3156 
L 91.085591 87.02976 
L 94.139131 85.21344 
L 97.192672 84.28464 
L 100.246212 84.32592 
L 103.299752 89.08344 
L 106.353293 89.5272 
L 109.406833 95.14128 
L 112.460374 96.98856 
L 115.513914 95.08968 
L 118.091788 97.71096 
L 120.518398 99.80592 
L 123.570383 101.79768 
L 126.610847 100.03296 
L 129.734188 100.518 
L 132.76253 99.98136 
L 135.833494 100.49736 
L 138.880708 100.78632 
L 141.923257 101.07528 
L 144.975878 101.26104 
L 147.992698 100.63152 
L 150.885115 100.38384 
L 154.13452 100.84824 
L 156.804495 100.65216 
L 160.236759 101.034 
L 163.286589 101.19912 
L 166.322282 101.10624 
L 169.357161 100.97208 
L 172.445584 100.91016 
L 175.508314 101.7564 
L 178.303893 101.84928 
L 181.604403 101.56032 
L 184.644337 100.85856 
L 187.692081 101.12688 
L 190.709643 101.4468 
L 193.83256 101.02368 
L 196.854575 101.30232 
L 199.91522 100.81728 
L 202.951654 100.79664 
L 206.011768 99.3312 
L 209.06386 99.92976 
L 212.093969 100.78632 
L 215.177161 101.17848 
L 218.239855 101.1372 
L 221.27378 100.21872 
L 224.326119 100.37352 
L 227.391676 100.4664 
L 230.439314 99.88848 
L 233.48879 99.94008 
L 236.600751 99.81624 
L 239.662915 98.93904 
L 242.663018 98.3508 
L 245.739849 98.52624 
L 248.794237 99.78528 
L 251.818055 100.12584 
L 254.853713 100.03296 
L 257.952915 100.45608 
L 261.01363 100.83792 
L 264.038896 100.11552 
L 267.319862 99.87816 
L 270.183122 100.002 
L 273.240514 100.64184 
L 276.264862 101.41584 
L 279.36 101.21976 
" clip-path="url(#pb192b8c8e7)" style="fill: none; stroke: #f5841e; stroke-width: 0.6"/>
   </g>
  </g>
 </g>
 <defs>
  <clipPath id="pb192b8c8e7">
   <rect x="8.64" y="4.8" width="270.72" height="103.2"/>
  </clipPath>
 </defs>
</svg>
