<?xml version="1.0" encoding="utf-8" standalone="no"?>
<!DOCTYPE svg PUBLIC "-//W3C//DTD SVG 1.1//EN"
  "http://www.w3.org/Graphics/SVG/1.1/DTD/svg11.dtd">
<svg xmlns:xlink="http://www.w3.org/1999/xlink" width="288pt" height="120pt" viewBox="0 0 288 120" xmlns="http://www.w3.org/2000/svg" version="1.1">
<desc id="nav-meta">{"window":"3m","count":4,"labels":["20.12","19.01","18.02","20.03"],"tick_utc":["2025-12-20T12:00:00Z","2026-01-19T12:00:00Z","2026-02-18T03:30:34Z","2026-03-20T03:18:49Z"],"w":720,"h":300}</desc>

 <metadata>
  <rdf:RDF xmlns:dc="http://purl.org/dc/elements/1.1/" xmlns:cc="http://creativecommons.org/ns#" xmlns:rdf="http://www.w3.org/1999/02/22-rdf-syntax-ns#">
   <cc:Work>
    <dc:type rdf:resource="http://purl.org/dc/dcmitype/StillImage"/>
    <dc:date>2026-03-20T07:34:22.013755</dc:date>
    <dc:format>image/svg+xml</dc:format>
    <dc:creator>
     <cc:Agent>
      <dc:title>Matplotlib v3.10.8, https://matplotlib.org/</dc:title>
     </cc:Agent>
    </dc:creator>
   </cc:Work>
  </rdf:RDF>
 </metadata>
 <defs>
  <style type="text/css">*{stroke-linejoin: round; stroke-linecap: butt}</style>
 </defs>
 <g id="figure_1">
  <g id="patch_1">
   <path d="M 0 120 
L 288 120 
L 288 0 
L 0 0 
L 0 120 
z
" style="fill: none; opacity: 0"/>
  </g>
  <g id="axes_1">
   <g id="patch_2">
    <path d="M 8.64 108 
L 279.36 108 
L 279.36 4.8 
L 8.64 4.8 
L 8.64 108 
z
" style="fill: none"/>
   </g>
   <g id="matplotlib.axis_1"/>
   <g id="matplotlib.axis_2"/>
   <g id="line2d_1">
    <path d="M 8.64 87.36 
L 279.36 87.36 
" clip-path="url(#p00a30084b9)" style="fill: none; stroke: #b2b2b2; stroke-opacity: 0.35; stroke-width: 0.5; stroke-linecap: square"/>
   </g>
   <g id="line2d_2">
    <path d="M 8.64 66.72 
L 279.36 66.72 
" clip-path="url(#p00a30084b9)" style="fill: none; stroke: #b2b2b2; stroke-opacity: 0.35; stroke-width: 0.5; stroke-linecap: square"/>
   </g>
   <g id="line2d_3">
    <path d="M 8.64 46.08 
L 279.36 46.08 
" clip-path="url(#p00a30084b9)" style="fill: none; stroke: #b2b2b2; stroke-opacity: 0.35; stroke-width: 0.5; stroke-linecap: square"/>
   </g>
   <g id="line2d_4">
    <path d="M 8.64 25.44 
L 279.36 25.44 
" clip-path="url(#p00a30084b9)" style="fill: none; stroke: #b2b2b2; stroke-opacity: 0.35; stroke-width: 0.5; stroke-linecap: square"/>
   </g>
   <g id="line2d_5">
    <path d="M 8.64 92.02464 
L 11.660145 92.13816 
L 14.680291 92.07624 
L 17.700436 92.14848 
L 20.720582 92.64384 
L 23.740727 93.01536 
L 26.760873 93.69648 
L 29.781018 93.11856 
L 32.801164 92.44776 
L 35.821309 92.30328 
L 38.841454 92.87088 
L 41.8616 92.38584 
L 44.881745 92.47872 
L 47.901891 91.88016 
L 50.922036 90.42504 
L 53.942182 90.08448 
L 56.962327 89.92968 
L 59.982473 88.76352 
L 63.002618 87.94824 
L 66.022763 89.2692 
L 69.042909 88.72224 
L 72.063054 89.39304 
L 75.0832 89.40336 
L 78.103345 88.41264 
L 81.123491 88.4952 
L 84.143636 86.86464 
L 87.163782 86.42088 
L 90.183927 87.62832 
L 93.204072 86.93688 
L 96.224218 87.23616 
L 99.244363 88.63968 
L 102.264509 90.0432 
L 105.284654 92.12784 
L 108.3048 91.16808 
L 111.324945 91.46736 
L 114.345091 91.73568 
L 117.365236 91.78728 
L 120.385381 94.0164 
L 123.405527 92.5716 
L 126.425672 91.76664 
L 129.445818 92.33424 
L 132.465963 94.36728 
L 135.486109 94.46016 
L 138.506254 97.71096 
L 141.5264 98.48496 
L 144.546545 97.85544 
L 147.096226 99.10416 
L 149.496298 100.16712 
L 152.514905 102.23112 
L 155.522117 100.54896 
L 158.611299 100.70376 
L 161.606522 100.68312 
L 164.6439 100.95144 
L 167.657788 101.28168 
L 170.667063 101.71512 
L 173.686299 101.84928 
L 176.670126 101.034 
L 179.53091 100.54896 
L 182.744778 101.04432 
L 185.385553 100.81728 
L 188.78028 101.034 
L 191.796755 101.4984 
L 194.799248 101.33328 
L 197.800937 101.1372 
L 200.855584 101.06496 
L 203.884818 102.09696 
L 206.649824 102.05568 
L 209.914237 101.4984 
L 212.920925 100.60056 
L 215.935338 100.80696 
L 218.919899 101.45712 
L 222.008661 100.55928 
L 224.997627 101.10624 
L 228.024798 100.8792 
L 231.028025 100.74504 
L 234.054672 100.21872 
L 237.073385 100.53864 
L 240.070355 101.07528 
L 243.119828 101.38488 
L 246.149027 101.26104 
L 249.149772 100.78632 
L 252.168729 100.91016 
L 255.200759 100.99272 
L 258.215067 100.38384 
L 261.231192 100.50768 
L 264.309119 100.60056 
L 267.337794 99.76464 
L 270.305087 99.49632 
L 273.348268 99.40344 
L 276.369252 100.09488 
L 279.36 100.3632 
" clip-path="url(#p00a30084b9)" style="fill: none; stroke: #bebebe; stroke-width: 0.5; stroke-linecap: round"/>
   </g>
   <g id="line2d_6">
    <path d="M 8.64 75.40944 
L 11.660145 75.40944 
L 14.680291 75.04824 
L 17.700436 74.98632 
L 20.720582 75.58488 
L 23.740727 75.87384 
L 26.760873 76.49304 
L 29.781018 76.15248 
L 32.801164 75.82224 
L 35.821309 75.84288 
L 38.841454 76.03896 
L 41.8616 75.51264 
L 44.881745 75.56424 
L 47.901891 75.05856 
L 50.922036 73.26288 
L 53.942182 73.20096 
L 56.962327 73.00488 
L 59.982473 71.68392 
L 63.002618 70.6932 
L 66.022763 72.62304 
L 69.042909 73.52088 
L 72.063054 73.83048 
L 75.0832 73.8408 
L 78.103345 73.29384 
L 81.123491 73.72728 
L 84.143636 70.32168 
L 87.163782 69.77472 
L 90.183927 70.34232 
L 93.204072 70.67256 
L 96.224218 70.51776 
L 99.244363 70.848 
L 102.264509 72.31344 
L 105.284654 76.01832 
L 108.3048 75.41976 
L 111.324945 75.83256 
L 114.345091 75.79128 
L 117.365236 75.82224 
L 120.385381 77.82432 
L 123.405527 76.14216 
L 126.425672 74.75928 
L 129.445818 74.96568 
L 132.465963 77.75208 
L 135.486109 79.48584 
L 138.506254 83.31456 
L 141.5264 85.90488 
L 144.546545 84.79032 
L 147.096226 85.84296 
L 149.496298 88.25784 
L 152.514905 91.41576 
L 155.522117 88.7532 
L 158.611299 88.65 
L 161.606522 88.55712 
L 164.6439 88.96992 
L 167.657788 89.7336 
L 170.667063 90.456 
L 173.686299 90.56952 
L 176.670126 89.15568 
L 179.53091 88.9596 
L 182.744778 90.6624 
L 185.385553 89.94 
L 188.78028 90.00192 
L 191.796755 90.3528 
L 194.799248 90.62112 
L 197.800937 90.5076 
L 200.855584 90.3528 
L 203.884818 92.004 
L 206.649824 92.13816 
L 209.914237 91.25064 
L 212.920925 89.166 
L 215.935338 89.56848 
L 218.919899 90.93072 
L 222.008661 89.41368 
L 224.997627 90.37344 
L 228.024798 89.79552 
L 231.028025 90.23928 
L 234.054672 88.0824 
L 237.073385 88.7532 
L 240.070355 90.16704 
L 243.119828 90.67272 
L 246.149027 90.18768 
L 249.149772 89.2692 
L 252.168729 89.54784 
L 255.200759 89.49624 
L 258.215067 88.31976 
L 261.231192 88.45392 
L 264.309119 88.46424 
L 267.337794 86.38992 
L 270.305087 84.80064 
L 273.348268 84.8316 
L 276.369252 86.586 
L 279.36 87.74184 
" clip-path="url(#p00a30084b9)" style="fill: none; stroke: #4a8dff; stroke-width: 0.6"/>
   </g>
   <g id="line2d_7">
    <path d="M 8.64 85.41984 
L 11.660145 85.17216 
L 14.680291 84.9348 
L 17.700436 85.01736 
L 20.720582 86.14224 
L 23.740727 85.90488 
L 26.760873 86.328 
L 29.781018 86.24544 
L 32.801164 85.72944 
L 35.821309 85.7088 
L 38.841454 86.40024 
L 41.8616 85.09992 
L 44.881745 86.02872 
L 47.901891 84.78 
L 50.922036 83.53128 
L 53.942182 82.83984 
L 56.962327 82.03488 
L 59.982473 79.39296 
L 63.002618 79.66128 
L 66.022763 82.15872 
L 69.042909 82.43736 
L 72.063054 82.93272 
L 75.0832 83.00496 
L 78.103345 82.6128 
L 81.123491 82.28256 
L 84.143636 78.01008 
L 87.163782 76.19376 
L 90.183927 77.66952 
L 93.204072 77.74176 
L 96.224218 78.1752 
L 99.244363 79.5684 
L 102.264509 80.8068 
L 105.284654 85.20312 
L 108.3048 84.12984 
L 111.324945 84.03696 
L 114.345091 84.06792 
L 117.365236 84.3156 
L 120.385381 87.02976 
L 123.405527 85.21344 
L 126.425672 84.28464 
L 129.445818 84.32592 
L 132.465963 89.08344 
L 135.486109 89.5272 
L 138.506254 95.14128 
L 141.5264 96.98856 
L 144.546545 95.08968 
L 147.096226 97.71096 
L 149.496298 99.80592 
L 152.514905 101.79768 
L 155.522117 100.03296 
L 158.611299 100.518 
L 161.606522 99.98136 
L 164.6439 100.49736 
L 167.657788 100.78632 
L 170.667063 101.07528 
L 173.686299 101.26104 
L 176.670126 100.63152 
L 179.53091 100.38384 
L 182.744778 100.84824 
L 185.385553 100.65216 
L 188.78028 101.034 
L 191.796755 101.19912 
L 194.799248 101.10624 
L 197.800937 100.97208 
L 200.855584 100.91016 
L 203.884818 101.7564 
L 206.649824 101.84928 
L 209.914237 101.56032 
L 212.920925 100.85856 
L 215.935338 101.12688 
L 218.919899 101.4468 
L 222.008661 101.02368 
L 224.997627 101.30232 
L 228.024798 100.81728 
L 231.028025 100.79664 
L 234.054672 99.3312 
L 237.073385 99.92976 
L 240.070355 100.78632 
L 243.119828 101.17848 
L 246.149027 101.1372 
L 249.149772 100.21872 
L 252.168729 100.37352 
L 255.200759 100.4664 
L 258.215067 99.88848 
L 261.231192 99.94008 
L 264.309119 99.81624 
L 267.337794 98.93904 
L 270.305087 98.3508 
L 273.348268 98.52624 
L 276.369252 99.78528 
L 279.36 100.12584 
" clip-path="url(#p00a30084b9)" style="fill: none; stroke: #f5841e; stroke-width: 0.6"/>
   </g>
  </g>
 </g>
 <defs>
  <clipPath id="p00a30084b9">
   <rect x="8.64" y="4.8" width="270.72" height="103.2"/>
  </clipPath>
 </defs>
</svg>
