<?xml version="1.0" encoding="utf-8" standalone="no"?>
<!DOCTYPE svg PUBLIC "-//W3C//DTD SVG 1.1//EN"
  "http://www.w3.org/Graphics/SVG/1.1/DTD/svg11.dtd">
<svg xmlns:xlink="http://www.w3.org/1999/xlink" width="288pt" height="120pt" viewBox="0 0 288 120" xmlns="http://www.w3.org/2000/svg" version="1.1">
<desc id="nav-meta">{"window":"6m","count":4,"labels":["10.10","09.12","06.02","07.04"],"tick_utc":["2025-10-10T12:00:00Z","2025-12-09T12:00:00Z","2026-02-06T03:19:18Z","2026-04-07T03:40:56Z"],"w":720,"h":300}</desc>

 <metadata>
  <rdf:RDF xmlns:dc="http://purl.org/dc/elements/1.1/" xmlns:cc="http://creativecommons.org/ns#" xmlns:rdf="http://www.w3.org/1999/02/22-rdf-syntax-ns#">
   <cc:Work>
    <dc:type rdf:resource="http://purl.org/dc/dcmitype/StillImage"/>
    <dc:date>2026-04-07T14:12:42.646641</dc:date>
    <dc:format>image/svg+xml</dc:format>
    <dc:creator>
     <cc:Agent>
      <dc:title>Matplotlib v3.10.8, https://matplotlib.org/</dc:title>
     </cc:Agent>
    </dc:creator>
   </cc:Work>
  </rdf:RDF>
 </metadata>
 <defs>
  <style type="text/css">*{stroke-linejoin: round; stroke-linecap: butt}</style>
 </defs>
 <g id="figure_1">
  <g id="patch_1">
   <path d="M 0 120 
L 288 120 
L 288 0 
L 0 0 
L 0 120 
z
" style="fill: none; opacity: 0"/>
  </g>
  <g id="axes_1">
   <g id="patch_2">
    <path d="M 8.64 108 
L 279.36 108 
L 279.36 4.8 
L 8.64 4.8 
L 8.64 108 
z
" style="fill: none"/>
   </g>
   <g id="matplotlib.axis_1"/>
   <g id="matplotlib.axis_2"/>
   <g id="line2d_1">
    <path d="M 8.64 87.36 
L 279.36 87.36 
" clip-path="url(#pe664b3c759)" style="fill: none; stroke: #b2b2b2; stroke-opacity: 0.35; stroke-width: 0.5; stroke-linecap: square"/>
   </g>
   <g id="line2d_2">
    <path d="M 8.64 66.72 
L 279.36 66.72 
" clip-path="url(#pe664b3c759)" style="fill: none; stroke: #b2b2b2; stroke-opacity: 0.35; stroke-width: 0.5; stroke-linecap: square"/>
   </g>
   <g id="line2d_3">
    <path d="M 8.64 46.08 
L 279.36 46.08 
" clip-path="url(#pe664b3c759)" style="fill: none; stroke: #b2b2b2; stroke-opacity: 0.35; stroke-width: 0.5; stroke-linecap: square"/>
   </g>
   <g id="line2d_4">
    <path d="M 8.64 25.44 
L 279.36 25.44 
" clip-path="url(#pe664b3c759)" style="fill: none; stroke: #b2b2b2; stroke-opacity: 0.35; stroke-width: 0.5; stroke-linecap: square"/>
   </g>
   <g id="line2d_5">
    <path d="M 8.64 66.17304 
L 10.155336 74.6148 
L 11.670672 77.78304 
L 13.186009 72.66432 
L 14.701345 69.69216 
L 16.216681 71.09568 
L 19.247353 76.06992 
L 20.762689 76.76136 
L 22.278026 75.25464 
L 23.793362 75.24432 
L 25.308698 74.63544 
L 26.824034 75.73968 
L 28.33937 77.31864 
L 29.854707 74.202 
L 31.370043 73.64472 
L 32.885379 73.48992 
L 34.400715 71.83872 
L 35.916051 72.17928 
L 37.431387 73.38672 
L 38.946724 73.43832 
L 40.46206 76.15248 
L 41.977396 75.3372 
L 43.492732 75.58488 
L 45.008068 75.35784 
L 46.523405 81.168 
L 48.038741 84.01632 
L 49.554077 82.06584 
L 51.069413 84.19176 
L 52.584749 82.27224 
L 54.100085 83.29392 
L 55.615422 81.62208 
L 57.130758 80.72424 
L 58.646094 84.33624 
L 60.16143 84.64584 
L 61.676766 86.844 
L 63.192102 88.52616 
L 64.707439 88.36104 
L 66.222775 88.93896 
L 67.738111 90.79656 
L 69.253447 88.09272 
L 70.768783 89.22792 
L 72.28412 90.00192 
L 73.799456 91.39512 
L 75.314792 91.63248 
L 76.830128 90.75528 
L 78.345464 88.7016 
L 79.8608 88.52616 
L 81.376137 87.45288 
L 82.891473 88.0308 
L 84.406809 88.94928 
L 87.437481 89.7336 
L 88.952818 91.86984 
L 90.468154 88.60872 
L 91.98349 86.87496 
L 95.014162 90.11544 
L 96.529498 90.38376 
L 98.044835 90.53856 
L 99.560171 90.08448 
L 101.075507 88.79448 
L 102.590843 89.20728 
L 104.106179 89.22792 
L 105.621516 90.31152 
L 107.136852 90.10512 
L 108.652188 91.09584 
L 110.167524 91.61184 
L 111.68286 91.31256 
L 113.198196 92.87088 
L 114.713533 93.8616 
L 116.228869 92.02464 
L 117.744205 92.13816 
L 119.259541 92.07624 
L 120.774877 92.14848 
L 122.290214 92.64384 
L 123.80555 93.01536 
L 125.320886 93.69648 
L 128.351558 92.44776 
L 129.866894 92.30328 
L 131.382231 92.87088 
L 132.897567 92.38584 
L 134.412903 92.47872 
L 135.928239 91.88016 
L 137.443575 90.42504 
L 138.958911 90.08448 
L 140.474248 89.92968 
L 141.989584 88.76352 
L 143.50492 87.94824 
L 145.020256 89.2692 
L 146.535592 88.72224 
L 148.050929 89.39304 
L 149.566265 89.40336 
L 151.081601 88.41264 
L 152.596937 88.4952 
L 154.112273 86.86464 
L 155.627609 86.42088 
L 157.142946 87.62832 
L 158.658282 86.93688 
L 160.173618 87.23616 
L 163.20429 90.0432 
L 164.719627 92.12784 
L 166.234963 91.16808 
L 169.265635 91.73568 
L 170.780971 91.78728 
L 172.296307 94.0164 
L 173.811644 92.5716 
L 175.32698 91.76664 
L 176.842316 92.33424 
L 178.357652 94.36728 
L 179.872988 94.46016 
L 181.388325 97.71096 
L 182.903661 98.48496 
L 184.418997 97.85544 
L 186.9025 100.16712 
L 188.417064 102.23112 
L 189.925911 100.54896 
L 191.475886 100.70376 
L 192.978717 100.68312 
L 196.014897 101.28168 
L 197.524778 101.71512 
L 199.039658 101.84928 
L 200.536772 101.034 
L 201.97215 100.54896 
L 203.584685 101.04432 
L 204.909674 100.81728 
L 206.612954 101.034 
L 208.126449 101.4984 
L 212.671651 101.06496 
L 214.191547 102.09696 
L 215.578869 102.05568 
L 217.216765 101.4984 
L 218.725349 100.60056 
L 220.237808 100.80696 
L 221.73529 101.45712 
L 223.285055 100.55928 
L 224.784747 101.10624 
L 227.810455 100.74504 
L 229.329054 100.21872 
L 230.843671 100.53864 
L 232.347379 101.07528 
L 233.87743 101.38488 
L 235.397309 101.26104 
L 236.902911 100.78632 
L 239.93895 100.99272 
L 241.451357 100.38384 
L 244.509004 100.60056 
L 246.02862 99.76464 
L 247.517438 99.49632 
L 249.044332 99.40344 
L 250.560089 100.09488 
L 252.060675 100.3632 
L 253.567137 100.19808 
L 256.624029 100.79664 
L 258.125335 100.26 
L 259.753532 99.83688 
L 261.17444 100.13616 
L 264.192537 101.38488 
L 270.282294 101.28168 
L 271.777672 101.8596 
L 273.294744 101.88024 
L 274.797102 101.72544 
L 276.335256 101.68416 
L 277.854503 101.47776 
L 279.36 101.78736 
L 279.36 101.78736 
" clip-path="url(#pe664b3c759)" style="fill: none; stroke: #bebebe; stroke-width: 0.5; stroke-linecap: round"/>
   </g>
   <g id="line2d_6">
    <path d="M 8.64 54.75912 
L 10.155336 62.67456 
L 11.670672 63.95424 
L 13.186009 57.86544 
L 14.701345 56.57544 
L 16.216681 58.31952 
L 17.732017 60.4764 
L 19.247353 61.85928 
L 20.762689 62.73648 
L 22.278026 61.8696 
L 23.793362 60.45576 
L 25.308698 60.54864 
L 26.824034 62.04504 
L 28.33937 63.16992 
L 29.854707 62.36496 
L 31.370043 61.21944 
L 32.885379 60.9408 
L 34.400715 57.83448 
L 35.916051 58.40208 
L 37.431387 60.49704 
L 38.946724 61.75608 
L 40.46206 63.1596 
L 41.977396 62.49912 
L 43.492732 62.1276 
L 45.008068 61.56 
L 48.038741 70.66224 
L 49.554077 68.72208 
L 51.069413 70.4868 
L 52.584749 68.61888 
L 54.100085 69.11424 
L 55.615422 66.5136 
L 57.130758 66.68904 
L 58.646094 68.8872 
L 60.16143 68.9904 
L 61.676766 71.5704 
L 63.192102 73.48992 
L 64.707439 72.54048 
L 66.222775 73.56216 
L 67.738111 74.74896 
L 69.253447 73.3248 
L 70.768783 74.80056 
L 72.28412 77.556 
L 73.799456 78.55704 
L 75.314792 78.50544 
L 76.830128 78.04104 
L 78.345464 75.76032 
L 79.8608 75.73968 
L 81.376137 74.65608 
L 82.891473 74.83152 
L 84.406809 74.57352 
L 85.922145 75.20304 
L 87.437481 75.17208 
L 88.952818 78.05136 
L 91.98349 72.16896 
L 93.498826 73.08744 
L 95.014162 74.72832 
L 98.044835 74.28456 
L 99.560171 73.21128 
L 101.075507 70.2804 
L 102.590843 70.2288 
L 104.106179 71.56008 
L 105.621516 73.79952 
L 107.136852 73.35576 
L 108.652188 74.0988 
L 110.167524 75.5952 
L 111.68286 75.5952 
L 113.198196 77.61792 
L 114.713533 77.63856 
L 116.228869 75.40944 
L 117.744205 75.40944 
L 119.259541 75.04824 
L 120.774877 74.98632 
L 122.290214 75.58488 
L 123.80555 75.87384 
L 125.320886 76.49304 
L 128.351558 75.82224 
L 129.866894 75.84288 
L 131.382231 76.03896 
L 132.897567 75.51264 
L 134.412903 75.56424 
L 135.928239 75.05856 
L 137.443575 73.26288 
L 138.958911 73.20096 
L 140.474248 73.00488 
L 141.989584 71.68392 
L 143.50492 70.6932 
L 145.020256 72.62304 
L 146.535592 73.52088 
L 148.050929 73.83048 
L 149.566265 73.8408 
L 151.081601 73.29384 
L 152.596937 73.72728 
L 154.112273 70.32168 
L 155.627609 69.77472 
L 157.142946 70.34232 
L 158.658282 70.67256 
L 160.173618 70.51776 
L 161.688954 70.848 
L 163.20429 72.31344 
L 164.719627 76.01832 
L 166.234963 75.41976 
L 167.750299 75.83256 
L 170.780971 75.82224 
L 172.296307 77.82432 
L 173.811644 76.14216 
L 175.32698 74.75928 
L 176.842316 74.96568 
L 178.357652 77.75208 
L 179.872988 79.48584 
L 181.388325 83.31456 
L 182.903661 85.90488 
L 184.418997 84.79032 
L 185.698281 85.84296 
L 188.417064 91.41576 
L 189.925911 88.7532 
L 192.978717 88.55712 
L 194.5027 88.96992 
L 197.524778 90.456 
L 199.039658 90.56952 
L 200.536772 89.15568 
L 201.97215 88.9596 
L 203.584685 90.6624 
L 204.909674 89.94 
L 206.612954 90.00192 
L 209.632928 90.62112 
L 212.671651 90.3528 
L 214.191547 92.004 
L 215.578869 92.13816 
L 217.216765 91.25064 
L 218.725349 89.166 
L 220.237808 89.56848 
L 221.73529 90.93072 
L 223.285055 89.41368 
L 224.784747 90.37344 
L 226.303608 89.79552 
L 227.810455 90.23928 
L 229.329054 88.0824 
L 230.843671 88.7532 
L 232.347379 90.16704 
L 233.87743 90.67272 
L 235.397309 90.18768 
L 236.902911 89.2692 
L 238.417651 89.54784 
L 239.93895 89.49624 
L 241.451357 88.31976 
L 242.964677 88.45392 
L 244.509004 88.46424 
L 246.02862 86.38992 
L 247.517438 84.80064 
L 249.044332 84.8316 
L 250.560089 86.586 
L 252.060675 87.74184 
L 253.567137 87.618 
L 255.105133 88.19592 
L 256.624029 89.08344 
L 258.125335 87.89664 
L 259.753532 87.3084 
L 261.17444 87.65928 
L 262.691688 88.96992 
L 264.192537 90.07416 
L 267.248184 89.3724 
L 268.753962 89.00088 
L 270.282294 88.42296 
L 273.294744 89.10408 
L 274.797102 89.14536 
L 276.335256 89.07312 
L 277.854503 87.9792 
L 279.36 88.29912 
L 279.36 88.29912 
" clip-path="url(#pe664b3c759)" style="fill: none; stroke: #4a8dff; stroke-width: 0.6"/>
   </g>
   <g id="line2d_7">
    <path d="M 8.64 50.6208 
L 10.155336 59.42376 
L 11.670672 61.85928 
L 13.186009 57.35976 
L 14.701345 57.3288 
L 16.216681 59.46504 
L 19.247353 64.72824 
L 20.762689 66.42072 
L 22.278026 65.688 
L 23.793362 64.17096 
L 25.308698 62.10696 
L 26.824034 64.30512 
L 28.33937 65.20296 
L 29.854707 62.68488 
L 31.370043 61.70448 
L 32.885379 61.06464 
L 34.400715 58.1028 
L 35.916051 58.40208 
L 37.431387 59.68176 
L 38.946724 62.6952 
L 40.46206 64.56312 
L 41.977396 63.18024 
L 43.492732 62.72616 
L 45.008068 62.06568 
L 46.523405 66.33816 
L 48.038741 71.40528 
L 49.554077 69.08328 
L 51.069413 71.7252 
L 52.584749 69.57864 
L 54.100085 70.72416 
L 55.615422 68.2164 
L 57.130758 66.978 
L 58.646094 70.03272 
L 60.16143 71.5188 
L 61.676766 73.3764 
L 63.192102 78.846 
L 64.707439 77.75208 
L 66.222775 78.88728 
L 67.738111 81.34344 
L 69.253447 80.53848 
L 70.768783 82.0452 
L 72.28412 86.92656 
L 73.799456 88.58808 
L 75.314792 88.96992 
L 76.830128 86.7924 
L 78.345464 85.296 
L 79.8608 86.24544 
L 81.376137 82.96368 
L 82.891473 82.13808 
L 84.406809 82.47864 
L 85.922145 82.58184 
L 87.437481 83.03592 
L 88.952818 87.3084 
L 90.468154 82.06584 
L 91.98349 79.71288 
L 93.498826 81.24024 
L 95.014162 84.17112 
L 96.529498 84.24336 
L 98.044835 83.29392 
L 99.560171 82.8192 
L 101.075507 80.64168 
L 102.590843 81.38472 
L 104.106179 80.87904 
L 105.621516 83.13912 
L 107.136852 83.19072 
L 108.652188 85.296 
L 110.167524 87.17424 
L 111.68286 85.71912 
L 113.198196 87.53544 
L 114.713533 88.17528 
L 116.228869 85.41984 
L 119.259541 84.9348 
L 120.774877 85.01736 
L 122.290214 86.14224 
L 123.80555 85.90488 
L 125.320886 86.328 
L 126.836222 86.24544 
L 128.351558 85.72944 
L 129.866894 85.7088 
L 131.382231 86.40024 
L 132.897567 85.09992 
L 134.412903 86.02872 
L 137.443575 83.53128 
L 140.474248 82.03488 
L 141.989584 79.39296 
L 143.50492 79.66128 
L 145.020256 82.15872 
L 146.535592 82.43736 
L 148.050929 82.93272 
L 149.566265 83.00496 
L 152.596937 82.28256 
L 154.112273 78.01008 
L 155.627609 76.19376 
L 157.142946 77.66952 
L 158.658282 77.74176 
L 160.173618 78.1752 
L 161.688954 79.5684 
L 163.20429 80.8068 
L 164.719627 85.20312 
L 166.234963 84.12984 
L 167.750299 84.03696 
L 169.265635 84.06792 
L 170.780971 84.3156 
L 172.296307 87.02976 
L 173.811644 85.21344 
L 175.32698 84.28464 
L 176.842316 84.32592 
L 178.357652 89.08344 
L 179.872988 89.5272 
L 181.388325 95.14128 
L 182.903661 96.98856 
L 184.418997 95.08968 
L 185.698281 97.71096 
L 186.9025 99.80592 
L 188.417064 101.79768 
L 189.925911 100.03296 
L 191.475886 100.518 
L 192.978717 99.98136 
L 194.5027 100.49736 
L 199.039658 101.26104 
L 200.536772 100.63152 
L 201.97215 100.38384 
L 203.584685 100.84824 
L 204.909674 100.65216 
L 206.612954 101.034 
L 208.126449 101.19912 
L 212.671651 100.91016 
L 214.191547 101.7564 
L 215.578869 101.84928 
L 217.216765 101.56032 
L 218.725349 100.85856 
L 221.73529 101.4468 
L 223.285055 101.02368 
L 224.784747 101.30232 
L 226.303608 100.81728 
L 227.810455 100.79664 
L 229.329054 99.3312 
L 230.843671 99.92976 
L 232.347379 100.78632 
L 233.87743 101.17848 
L 235.397309 101.1372 
L 236.902911 100.21872 
L 239.93895 100.4664 
L 241.451357 99.88848 
L 242.964677 99.94008 
L 244.509004 99.81624 
L 246.02862 98.93904 
L 247.517438 98.3508 
L 249.044332 98.52624 
L 250.560089 99.78528 
L 252.060675 100.12584 
L 253.567137 100.03296 
L 256.624029 100.83792 
L 258.125335 100.11552 
L 259.753532 99.87816 
L 261.17444 100.002 
L 262.691688 100.64184 
L 264.192537 101.41584 
L 265.728516 101.21976 
L 268.753962 101.00304 
L 270.282294 100.86888 
L 271.777672 101.21976 
L 273.294744 101.28168 
L 276.335256 101.14752 
L 277.854503 100.55928 
L 279.36 100.65216 
L 279.36 100.65216 
" clip-path="url(#pe664b3c759)" style="fill: none; stroke: #f5841e; stroke-width: 0.6"/>
   </g>
  </g>
 </g>
 <defs>
  <clipPath id="pe664b3c759">
   <rect x="8.64" y="4.8" width="270.72" height="103.2"/>
  </clipPath>
 </defs>
</svg>
