<?xml version="1.0" encoding="utf-8" standalone="no"?>
<!DOCTYPE svg PUBLIC "-//W3C//DTD SVG 1.1//EN"
  "http://www.w3.org/Graphics/SVG/1.1/DTD/svg11.dtd">
<svg xmlns:xlink="http://www.w3.org/1999/xlink" width="288pt" height="120pt" viewBox="0 0 288 120" xmlns="http://www.w3.org/2000/svg" version="1.1">
<desc id="nav-meta">{"window":"6m","count":4,"labels":["18.11","17.01","18.03","17.05"],"tick_utc":["2025-11-18T12:00:00Z","2026-01-17T12:00:00Z","2026-03-18T03:32:26Z","2026-05-17T04:42:26Z"],"w":720,"h":300}</desc>

 <metadata>
  <rdf:RDF xmlns:dc="http://purl.org/dc/elements/1.1/" xmlns:cc="http://creativecommons.org/ns#" xmlns:rdf="http://www.w3.org/1999/02/22-rdf-syntax-ns#">
   <cc:Work>
    <dc:type rdf:resource="http://purl.org/dc/dcmitype/StillImage"/>
    <dc:date>2026-05-17T04:42:27.843318</dc:date>
    <dc:format>image/svg+xml</dc:format>
    <dc:creator>
     <cc:Agent>
      <dc:title>Matplotlib v3.10.9, https://matplotlib.org/</dc:title>
     </cc:Agent>
    </dc:creator>
   </cc:Work>
  </rdf:RDF>
 </metadata>
 <defs>
  <style type="text/css">*{stroke-linejoin: round; stroke-linecap: butt}</style>
 </defs>
 <g id="figure_1">
  <g id="patch_1">
   <path d="M 0 120 
L 288 120 
L 288 0 
L 0 0 
L 0 120 
z
" style="fill: none; opacity: 0"/>
  </g>
  <g id="axes_1">
   <g id="patch_2">
    <path d="M 8.64 108 
L 279.36 108 
L 279.36 4.8 
L 8.64 4.8 
L 8.64 108 
z
" style="fill: none"/>
   </g>
   <g id="matplotlib.axis_1"/>
   <g id="matplotlib.axis_2"/>
   <g id="line2d_1">
    <path d="M 8.64 87.36 
L 279.36 87.36 
" clip-path="url(#p54ca17637a)" style="fill: none; stroke: #b2b2b2; stroke-opacity: 0.35; stroke-width: 0.5; stroke-linecap: square"/>
   </g>
   <g id="line2d_2">
    <path d="M 8.64 66.72 
L 279.36 66.72 
" clip-path="url(#p54ca17637a)" style="fill: none; stroke: #b2b2b2; stroke-opacity: 0.35; stroke-width: 0.5; stroke-linecap: square"/>
   </g>
   <g id="line2d_3">
    <path d="M 8.64 46.08 
L 279.36 46.08 
" clip-path="url(#p54ca17637a)" style="fill: none; stroke: #b2b2b2; stroke-opacity: 0.35; stroke-width: 0.5; stroke-linecap: square"/>
   </g>
   <g id="line2d_4">
    <path d="M 8.64 25.44 
L 279.36 25.44 
" clip-path="url(#p54ca17637a)" style="fill: none; stroke: #b2b2b2; stroke-opacity: 0.35; stroke-width: 0.5; stroke-linecap: square"/>
   </g>
   <g id="line2d_5">
    <path d="M 8.64 90.79656 
L 10.146543 88.09272 
L 11.653087 89.22792 
L 13.15963 90.00192 
L 14.666173 91.39512 
L 16.172716 91.63248 
L 17.67926 90.75528 
L 19.185803 88.7016 
L 20.692346 88.52616 
L 22.198889 87.45288 
L 23.705433 88.0308 
L 25.211976 88.94928 
L 28.225062 89.7336 
L 29.731606 91.86984 
L 31.238149 88.60872 
L 32.744692 86.87496 
L 35.757779 90.11544 
L 37.264322 90.38376 
L 38.770865 90.53856 
L 40.277408 90.08448 
L 41.783952 88.79448 
L 43.290495 89.20728 
L 44.797038 89.22792 
L 46.303582 90.31152 
L 47.810125 90.10512 
L 49.316668 91.09584 
L 50.823211 91.61184 
L 52.329755 91.31256 
L 53.836298 92.87088 
L 55.342841 93.8616 
L 56.849384 92.02464 
L 58.355928 92.13816 
L 59.862471 92.07624 
L 61.369014 92.14848 
L 62.875557 92.64384 
L 64.382101 93.01536 
L 65.888644 93.69648 
L 68.90173 92.44776 
L 70.408274 92.30328 
L 71.914817 92.87088 
L 73.42136 92.38584 
L 74.927903 92.47872 
L 76.434447 91.88016 
L 77.94099 90.42504 
L 79.447533 90.08448 
L 80.954077 89.92968 
L 82.46062 88.76352 
L 83.967163 87.94824 
L 85.473706 89.2692 
L 86.98025 88.72224 
L 88.486793 89.39304 
L 89.993336 89.40336 
L 91.499879 88.41264 
L 93.006423 88.4952 
L 94.512966 86.86464 
L 96.019509 86.42088 
L 97.526052 87.62832 
L 99.032596 86.93688 
L 100.539139 87.23616 
L 103.552225 90.0432 
L 105.058769 92.12784 
L 106.565312 91.16808 
L 109.578398 91.73568 
L 111.084942 91.78728 
L 112.591485 94.0164 
L 114.098028 92.5716 
L 115.604571 91.76664 
L 117.111115 92.33424 
L 118.617658 94.36728 
L 120.124201 94.46016 
L 121.630745 97.71096 
L 123.137288 98.48496 
L 124.643831 97.85544 
L 127.112923 100.16712 
L 128.618699 102.23112 
L 130.118791 100.54896 
L 131.659772 100.70376 
L 133.153882 100.68312 
L 136.172444 101.28168 
L 137.673565 101.71512 
L 139.179654 101.84928 
L 140.668081 101.034 
L 142.095129 100.54896 
L 143.698308 101.04432 
L 145.015609 100.81728 
L 146.709005 101.034 
L 148.213718 101.4984 
L 152.732545 101.06496 
L 154.243622 102.09696 
L 155.622894 102.05568 
L 157.251286 101.4984 
L 158.751116 100.60056 
L 160.2548 100.80696 
L 161.743592 101.45712 
L 163.284364 100.55928 
L 164.775354 101.10624 
L 167.783506 100.74504 
L 169.293292 100.21872 
L 170.79912 100.53864 
L 172.294103 101.07528 
L 173.815276 101.38488 
L 175.326335 101.26104 
L 176.823201 100.78632 
L 179.841623 100.99272 
L 181.345255 100.38384 
L 184.385159 100.60056 
L 185.895957 99.76464 
L 187.376135 99.49632 
L 188.89417 99.40344 
L 190.401131 100.09488 
L 191.89301 100.3632 
L 193.39073 100.19808 
L 196.429885 100.79664 
L 197.922479 100.26 
L 199.541228 99.83688 
L 200.953891 100.13616 
L 203.954476 101.38488 
L 210.008897 101.28168 
L 211.495597 101.8596 
L 213.003866 101.88024 
L 214.497506 101.72544 
L 216.026735 101.68416 
L 217.537166 101.47776 
L 219.033928 101.78736 
L 220.542912 101.09592 
L 222.044207 101.46744 
L 223.564612 101.3436 
L 225.048122 101.05464 
L 226.581692 101.3952 
L 228.09596 101.47776 
L 229.592913 100.86888 
L 231.098305 101.26104 
L 232.61137 100.99272 
L 234.114844 100.61088 
L 235.60477 100.44576 
L 237.131209 100.94112 
L 238.641484 101.09592 
L 240.141418 101.00304 
L 241.643288 100.69344 
L 243.155935 100.9308 
L 247.685015 100.8792 
L 249.207792 100.64184 
L 250.717491 101.1888 
L 252.21992 101.09592 
L 253.728991 101.37456 
L 255.251995 101.21976 
L 258.257217 101.23008 
L 259.763237 100.92048 
L 261.236598 101.06496 
L 262.769681 100.70376 
L 264.276625 100.55928 
L 265.758094 100.53864 
L 267.270147 99.60984 
L 268.807048 99.72336 
L 271.811102 99.25896 
L 273.324812 99.32088 
L 274.829681 100.22904 
L 276.343653 100.01232 
L 279.36 100.75536 
L 279.36 100.75536 
" clip-path="url(#p54ca17637a)" style="fill: none; stroke: #bebebe; stroke-width: 0.5; stroke-linecap: round"/>
   </g>
   <g id="line2d_6">
    <path d="M 8.64 74.74896 
L 10.146543 73.3248 
L 11.653087 74.80056 
L 13.15963 77.556 
L 14.666173 78.55704 
L 16.172716 78.50544 
L 17.67926 78.04104 
L 19.185803 75.76032 
L 20.692346 75.73968 
L 22.198889 74.65608 
L 23.705433 74.83152 
L 25.211976 74.57352 
L 26.718519 75.20304 
L 28.225062 75.17208 
L 29.731606 78.05136 
L 32.744692 72.16896 
L 34.251235 73.08744 
L 35.757779 74.72832 
L 38.770865 74.28456 
L 40.277408 73.21128 
L 41.783952 70.2804 
L 43.290495 70.2288 
L 44.797038 71.56008 
L 46.303582 73.79952 
L 47.810125 73.35576 
L 49.316668 74.0988 
L 50.823211 75.5952 
L 52.329755 75.5952 
L 53.836298 77.61792 
L 55.342841 77.63856 
L 56.849384 75.40944 
L 58.355928 75.40944 
L 59.862471 75.04824 
L 61.369014 74.98632 
L 62.875557 75.58488 
L 64.382101 75.87384 
L 65.888644 76.49304 
L 68.90173 75.82224 
L 70.408274 75.84288 
L 71.914817 76.03896 
L 73.42136 75.51264 
L 74.927903 75.56424 
L 76.434447 75.05856 
L 77.94099 73.26288 
L 79.447533 73.20096 
L 80.954077 73.00488 
L 82.46062 71.68392 
L 83.967163 70.6932 
L 85.473706 72.62304 
L 86.98025 73.52088 
L 88.486793 73.83048 
L 89.993336 73.8408 
L 91.499879 73.29384 
L 93.006423 73.72728 
L 94.512966 70.32168 
L 96.019509 69.77472 
L 97.526052 70.34232 
L 99.032596 70.67256 
L 100.539139 70.51776 
L 102.045682 70.848 
L 103.552225 72.31344 
L 105.058769 76.01832 
L 106.565312 75.41976 
L 108.071855 75.83256 
L 111.084942 75.82224 
L 112.591485 77.82432 
L 114.098028 76.14216 
L 115.604571 74.75928 
L 117.111115 74.96568 
L 118.617658 77.75208 
L 120.124201 79.48584 
L 121.630745 83.31456 
L 123.137288 85.90488 
L 124.643831 84.79032 
L 125.915692 85.84296 
L 128.618699 91.41576 
L 130.118791 88.7532 
L 133.153882 88.55712 
L 134.669022 88.96992 
L 137.673565 90.456 
L 139.179654 90.56952 
L 140.668081 89.15568 
L 142.095129 88.9596 
L 143.698308 90.6624 
L 145.015609 89.94 
L 146.709005 90.00192 
L 149.711455 90.62112 
L 152.732545 90.3528 
L 154.243622 92.004 
L 155.622894 92.13816 
L 157.251286 91.25064 
L 158.751116 89.166 
L 160.2548 89.56848 
L 161.743592 90.93072 
L 163.284364 89.41368 
L 164.775354 90.37344 
L 166.285402 89.79552 
L 167.783506 90.23928 
L 169.293292 88.0824 
L 170.79912 88.7532 
L 172.294103 90.16704 
L 173.815276 90.67272 
L 175.326335 90.18768 
L 176.823201 89.2692 
L 178.329151 89.54784 
L 179.841623 89.49624 
L 181.345255 88.31976 
L 182.849793 88.45392 
L 184.385159 88.46424 
L 185.895957 86.38992 
L 187.376135 84.80064 
L 188.89417 84.8316 
L 190.401131 86.586 
L 191.89301 87.74184 
L 193.39073 87.618 
L 194.919802 88.19592 
L 196.429885 89.08344 
L 197.922479 87.89664 
L 199.541228 87.3084 
L 200.953891 87.65928 
L 202.462335 88.96992 
L 203.954476 90.07416 
L 206.992392 89.3724 
L 208.489433 89.00088 
L 210.008897 88.42296 
L 213.003866 89.10408 
L 214.497506 89.14536 
L 216.026735 89.07312 
L 217.537166 87.9792 
L 219.033928 88.29912 
L 220.542912 86.38992 
L 222.044207 87.24648 
L 223.564612 87.1536 
L 225.048122 86.21448 
L 228.09596 87.01944 
L 229.592913 84.44976 
L 231.098305 85.05864 
L 232.61137 84.58392 
L 234.114844 85.04832 
L 235.60477 83.71704 
L 237.131209 84.86256 
L 238.641484 85.6572 
L 240.141418 85.27536 
L 241.643288 84.49104 
L 244.666471 85.32696 
L 246.155037 85.17216 
L 247.685015 85.31664 
L 249.207792 84.11952 
L 250.717491 85.66752 
L 252.21992 85.26504 
L 253.728991 86.26608 
L 256.72009 85.38888 
L 258.257217 85.3992 
L 259.763237 84.09888 
L 262.769681 84.34656 
L 265.758094 85.7604 
L 267.270147 85.0896 
L 270.325483 84.9348 
L 271.811102 85.296 
L 273.324812 85.35792 
L 274.829681 86.1732 
L 276.343653 85.92552 
L 279.36 87.13296 
L 279.36 87.13296 
" clip-path="url(#p54ca17637a)" style="fill: none; stroke: #4a8dff; stroke-width: 0.6"/>
   </g>
   <g id="line2d_7">
    <path d="M 8.64 81.34344 
L 10.146543 80.53848 
L 11.653087 82.0452 
L 13.15963 86.92656 
L 14.666173 88.58808 
L 16.172716 88.96992 
L 17.67926 86.7924 
L 19.185803 85.296 
L 20.692346 86.24544 
L 22.198889 82.96368 
L 23.705433 82.13808 
L 25.211976 82.47864 
L 26.718519 82.58184 
L 28.225062 83.03592 
L 29.731606 87.3084 
L 31.238149 82.06584 
L 32.744692 79.71288 
L 34.251235 81.24024 
L 35.757779 84.17112 
L 37.264322 84.24336 
L 38.770865 83.29392 
L 40.277408 82.8192 
L 41.783952 80.64168 
L 43.290495 81.38472 
L 44.797038 80.87904 
L 46.303582 83.13912 
L 47.810125 83.19072 
L 49.316668 85.296 
L 50.823211 87.17424 
L 52.329755 85.71912 
L 53.836298 87.53544 
L 55.342841 88.17528 
L 56.849384 85.41984 
L 59.862471 84.9348 
L 61.369014 85.01736 
L 62.875557 86.14224 
L 64.382101 85.90488 
L 65.888644 86.328 
L 67.395187 86.24544 
L 68.90173 85.72944 
L 70.408274 85.7088 
L 71.914817 86.40024 
L 73.42136 85.09992 
L 74.927903 86.02872 
L 77.94099 83.53128 
L 80.954077 82.03488 
L 82.46062 79.39296 
L 83.967163 79.66128 
L 85.473706 82.15872 
L 86.98025 82.43736 
L 88.486793 82.93272 
L 89.993336 83.00496 
L 93.006423 82.28256 
L 94.512966 78.01008 
L 96.019509 76.19376 
L 97.526052 77.66952 
L 99.032596 77.74176 
L 100.539139 78.1752 
L 102.045682 79.5684 
L 103.552225 80.8068 
L 105.058769 85.20312 
L 106.565312 84.12984 
L 108.071855 84.03696 
L 109.578398 84.06792 
L 111.084942 84.3156 
L 112.591485 87.02976 
L 114.098028 85.21344 
L 115.604571 84.28464 
L 117.111115 84.32592 
L 118.617658 89.08344 
L 120.124201 89.5272 
L 121.630745 95.14128 
L 123.137288 96.98856 
L 124.643831 95.08968 
L 125.915692 97.71096 
L 127.112923 99.80592 
L 128.618699 101.79768 
L 130.118791 100.03296 
L 131.659772 100.518 
L 133.153882 99.98136 
L 134.669022 100.49736 
L 139.179654 101.26104 
L 140.668081 100.63152 
L 142.095129 100.38384 
L 143.698308 100.84824 
L 145.015609 100.65216 
L 146.709005 101.034 
L 148.213718 101.19912 
L 152.732545 100.91016 
L 154.243622 101.7564 
L 155.622894 101.84928 
L 157.251286 101.56032 
L 158.751116 100.85856 
L 161.743592 101.4468 
L 163.284364 101.02368 
L 164.775354 101.30232 
L 166.285402 100.81728 
L 167.783506 100.79664 
L 169.293292 99.3312 
L 170.79912 99.92976 
L 172.294103 100.78632 
L 173.815276 101.17848 
L 175.326335 101.1372 
L 176.823201 100.21872 
L 179.841623 100.4664 
L 181.345255 99.88848 
L 182.849793 99.94008 
L 184.385159 99.81624 
L 185.895957 98.93904 
L 187.376135 98.3508 
L 188.89417 98.52624 
L 190.401131 99.78528 
L 191.89301 100.12584 
L 193.39073 100.03296 
L 196.429885 100.83792 
L 197.922479 100.11552 
L 199.541228 99.87816 
L 200.953891 100.002 
L 202.462335 100.64184 
L 203.954476 101.41584 
L 205.481542 101.21976 
L 208.489433 101.00304 
L 210.008897 100.86888 
L 211.495597 101.21976 
L 213.003866 101.28168 
L 216.026735 101.14752 
L 217.537166 100.55928 
L 219.033928 100.65216 
L 220.542912 99.80592 
L 222.044207 99.96072 
L 223.564612 99.6408 
L 225.048122 99.1764 
L 226.581692 99.70272 
L 228.09596 99.94008 
L 229.592913 98.57784 
L 231.098305 98.65008 
L 232.61137 98.38176 
L 234.114844 98.48496 
L 235.60477 96.70992 
L 237.131209 98.05152 
L 238.641484 98.48496 
L 240.141418 97.96896 
L 241.643288 96.32808 
L 244.666471 96.16296 
L 246.155037 96.1836 
L 247.685015 96.50352 
L 249.207792 94.76976 
L 250.717491 97.19496 
L 252.21992 96.9576 
L 253.728991 97.9896 
L 255.251995 96.89568 
L 256.72009 95.45088 
L 258.257217 95.67792 
L 259.763237 93.43848 
L 262.769681 92.25168 
L 264.276625 92.87088 
L 265.758094 94.2744 
L 267.270147 93.1392 
L 268.807048 92.97408 
L 270.325483 92.9844 
L 271.811102 92.60256 
L 273.324812 92.53032 
L 274.829681 94.54272 
L 276.343653 92.85024 
L 277.830963 94.82136 
L 279.36 95.75016 
L 279.36 95.75016 
" clip-path="url(#p54ca17637a)" style="fill: none; stroke: #f5841e; stroke-width: 0.6"/>
   </g>
  </g>
 </g>
 <defs>
  <clipPath id="p54ca17637a">
   <rect x="8.64" y="4.8" width="270.72" height="103.2"/>
  </clipPath>
 </defs>
</svg>
