<?xml version="1.0" encoding="utf-8" standalone="no"?>
<!DOCTYPE svg PUBLIC "-//W3C//DTD SVG 1.1//EN"
  "http://www.w3.org/Graphics/SVG/1.1/DTD/svg11.dtd">
<svg xmlns:xlink="http://www.w3.org/1999/xlink" width="288pt" height="120pt" viewBox="0 0 288 120" xmlns="http://www.w3.org/2000/svg" version="1.1">
<desc id="nav-meta">{"window":"3m","count":4,"labels":["23.02","25.03","23.04","23.05"],"tick_utc":["2026-02-23T03:32:23Z","2026-03-25T05:09:13Z","2026-04-23T03:57:29Z","2026-05-23T04:28:38Z"],"w":720,"h":300}</desc>

 <metadata>
  <rdf:RDF xmlns:dc="http://purl.org/dc/elements/1.1/" xmlns:cc="http://creativecommons.org/ns#" xmlns:rdf="http://www.w3.org/1999/02/22-rdf-syntax-ns#">
   <cc:Work>
    <dc:type rdf:resource="http://purl.org/dc/dcmitype/StillImage"/>
    <dc:date>2026-05-23T08:37:07.786817</dc:date>
    <dc:format>image/svg+xml</dc:format>
    <dc:creator>
     <cc:Agent>
      <dc:title>Matplotlib v3.10.9, https://matplotlib.org/</dc:title>
     </cc:Agent>
    </dc:creator>
   </cc:Work>
  </rdf:RDF>
 </metadata>
 <defs>
  <style type="text/css">*{stroke-linejoin: round; stroke-linecap: butt}</style>
 </defs>
 <g id="figure_1">
  <g id="patch_1">
   <path d="M 0 120 
L 288 120 
L 288 0 
L 0 0 
L 0 120 
z
" style="fill: none; opacity: 0"/>
  </g>
  <g id="axes_1">
   <g id="patch_2">
    <path d="M 8.64 108 
L 279.36 108 
L 279.36 4.8 
L 8.64 4.8 
L 8.64 108 
z
" style="fill: none"/>
   </g>
   <g id="matplotlib.axis_1"/>
   <g id="matplotlib.axis_2"/>
   <g id="line2d_1">
    <path d="M 8.64 87.36 
L 279.36 87.36 
" clip-path="url(#paad9b9ed87)" style="fill: none; stroke: #b2b2b2; stroke-opacity: 0.35; stroke-width: 0.5; stroke-linecap: square"/>
   </g>
   <g id="line2d_2">
    <path d="M 8.64 66.72 
L 279.36 66.72 
" clip-path="url(#paad9b9ed87)" style="fill: none; stroke: #b2b2b2; stroke-opacity: 0.35; stroke-width: 0.5; stroke-linecap: square"/>
   </g>
   <g id="line2d_3">
    <path d="M 8.64 46.08 
L 279.36 46.08 
" clip-path="url(#paad9b9ed87)" style="fill: none; stroke: #b2b2b2; stroke-opacity: 0.35; stroke-width: 0.5; stroke-linecap: square"/>
   </g>
   <g id="line2d_4">
    <path d="M 8.64 25.44 
L 279.36 25.44 
" clip-path="url(#paad9b9ed87)" style="fill: none; stroke: #b2b2b2; stroke-opacity: 0.35; stroke-width: 0.5; stroke-linecap: square"/>
   </g>
   <g id="line2d_5">
    <path d="M 8.64 102.09696 
L 11.423607 102.05568 
L 14.709982 101.4984 
L 17.736897 100.60056 
L 20.771589 100.80696 
L 23.776229 101.45712 
L 26.885771 100.55928 
L 29.894844 101.10624 
L 32.942381 100.8792 
L 35.965812 100.74504 
L 39.012821 100.21872 
L 42.051841 100.53864 
L 45.068973 101.07528 
L 48.138961 101.38488 
L 51.188539 101.26104 
L 54.209471 100.78632 
L 57.248738 100.91016 
L 60.301166 100.99272 
L 63.335753 100.38384 
L 66.372169 100.50768 
L 69.470802 100.60056 
L 72.519852 99.76464 
L 75.507107 99.49632 
L 78.570761 99.40344 
L 81.612069 100.09488 
L 84.622937 100.3632 
L 87.645594 100.19808 
L 90.731523 100.47672 
L 93.77913 100.79664 
L 96.791441 100.26 
L 100.058355 99.83688 
L 102.909353 100.13616 
L 105.953652 100.80696 
L 108.965048 101.38488 
L 112.04693 101.3436 
L 115.096086 101.292 
L 118.11737 101.28168 
L 121.18391 101.28168 
L 124.184326 101.8596 
L 127.228273 101.88024 
L 130.242695 101.72544 
L 133.328942 101.68416 
L 136.377252 101.47776 
L 139.397974 101.78736 
L 142.443364 101.09592 
L 145.473235 101.46744 
L 148.541674 101.3436 
L 151.535651 101.05464 
L 154.63066 101.3952 
L 157.686712 101.47776 
L 160.707821 100.86888 
L 163.745961 101.26104 
L 166.799586 100.99272 
L 169.833856 100.61088 
L 172.840782 100.44576 
L 175.921398 100.94112 
L 178.969392 101.09592 
L 181.996518 101.00304 
L 185.027551 100.69344 
L 188.08033 100.9308 
L 191.128852 100.92048 
L 194.133034 100.81728 
L 197.220794 100.8792 
L 200.294019 100.64184 
L 203.340852 101.1888 
L 206.37301 101.09592 
L 209.418576 101.37456 
L 212.492259 101.21976 
L 215.455128 101.20944 
L 218.557315 101.23008 
L 221.596723 100.92048 
L 224.570218 101.06496 
L 227.664242 100.70376 
L 230.705514 100.55928 
L 233.695373 100.53864 
L 236.746957 99.60984 
L 239.848687 99.72336 
L 242.91315 99.44472 
L 245.911385 99.25896 
L 248.966311 99.32088 
L 252.003396 100.22904 
L 255.058851 100.01232 
L 258.060499 100.43544 
L 261.146358 100.75536 
L 264.216346 101.02368 
L 267.235027 101.02368 
L 270.286364 101.17848 
L 273.344141 100.7244 
L 276.361308 100.75536 
L 279.36 101.11656 
" clip-path="url(#paad9b9ed87)" style="fill: none; stroke: #bebebe; stroke-width: 0.5; stroke-linecap: round"/>
   </g>
   <g id="line2d_6">
    <path d="M 8.64 92.004 
L 11.423607 92.13816 
L 14.709982 91.25064 
L 17.736897 89.166 
L 20.771589 89.56848 
L 23.776229 90.93072 
L 26.885771 89.41368 
L 29.894844 90.37344 
L 32.942381 89.79552 
L 35.965812 90.23928 
L 39.012821 88.0824 
L 42.051841 88.7532 
L 45.068973 90.16704 
L 48.138961 90.67272 
L 51.188539 90.18768 
L 54.209471 89.2692 
L 57.248738 89.54784 
L 60.301166 89.49624 
L 63.335753 88.31976 
L 66.372169 88.45392 
L 69.470802 88.46424 
L 72.519852 86.38992 
L 75.507107 84.80064 
L 78.570761 84.8316 
L 81.612069 86.586 
L 84.622937 87.74184 
L 87.645594 87.618 
L 90.731523 88.19592 
L 93.77913 89.08344 
L 96.791441 87.89664 
L 100.058355 87.3084 
L 102.909353 87.65928 
L 105.953652 88.96992 
L 108.965048 90.07416 
L 112.04693 89.76456 
L 115.096086 89.3724 
L 118.11737 89.00088 
L 121.18391 88.42296 
L 124.184326 88.81512 
L 127.228273 89.10408 
L 130.242695 89.14536 
L 133.328942 89.07312 
L 136.377252 87.9792 
L 139.397974 88.29912 
L 142.443364 86.38992 
L 145.473235 87.24648 
L 148.541674 87.1536 
L 151.535651 86.21448 
L 154.63066 86.66856 
L 157.686712 87.01944 
L 160.707821 84.44976 
L 163.745961 85.05864 
L 166.799586 84.58392 
L 169.833856 85.04832 
L 172.840782 83.71704 
L 175.921398 84.86256 
L 178.969392 85.6572 
L 181.996518 85.27536 
L 185.027551 84.49104 
L 188.08033 84.86256 
L 191.128852 85.32696 
L 194.133034 85.17216 
L 197.220794 85.31664 
L 200.294019 84.11952 
L 203.340852 85.66752 
L 206.37301 85.26504 
L 209.418576 86.26608 
L 212.492259 85.77072 
L 215.455128 85.38888 
L 218.557315 85.3992 
L 221.596723 84.09888 
L 224.570218 84.22272 
L 227.664242 84.34656 
L 230.705514 85.06896 
L 233.695373 85.7604 
L 236.746957 85.0896 
L 239.848687 85.01736 
L 242.91315 84.9348 
L 245.911385 85.296 
L 248.966311 85.35792 
L 252.003396 86.1732 
L 255.058851 85.92552 
L 258.060499 86.55504 
L 261.146358 87.13296 
L 264.216346 88.10304 
L 267.235027 87.9276 
L 270.286364 88.26816 
L 273.344141 87.78312 
L 276.361308 87.95856 
L 279.36 88.94928 
" clip-path="url(#paad9b9ed87)" style="fill: none; stroke: #4a8dff; stroke-width: 0.6"/>
   </g>
   <g id="line2d_7">
    <path d="M 8.64 101.7564 
L 11.423607 101.84928 
L 14.709982 101.56032 
L 17.736897 100.85856 
L 20.771589 101.12688 
L 23.776229 101.4468 
L 26.885771 101.02368 
L 29.894844 101.30232 
L 32.942381 100.81728 
L 35.965812 100.79664 
L 39.012821 99.3312 
L 42.051841 99.92976 
L 45.068973 100.78632 
L 48.138961 101.17848 
L 51.188539 101.1372 
L 54.209471 100.21872 
L 57.248738 100.37352 
L 60.301166 100.4664 
L 63.335753 99.88848 
L 66.372169 99.94008 
L 69.470802 99.81624 
L 72.519852 98.93904 
L 75.507107 98.3508 
L 78.570761 98.52624 
L 81.612069 99.78528 
L 84.622937 100.12584 
L 87.645594 100.03296 
L 90.731523 100.45608 
L 93.77913 100.83792 
L 96.791441 100.11552 
L 100.058355 99.87816 
L 102.909353 100.002 
L 105.953652 100.64184 
L 108.965048 101.41584 
L 112.04693 101.21976 
L 115.096086 101.14752 
L 118.11737 101.00304 
L 121.18391 100.86888 
L 124.184326 101.21976 
L 127.228273 101.28168 
L 130.242695 101.20944 
L 133.328942 101.14752 
L 136.377252 100.55928 
L 139.397974 100.65216 
L 142.443364 99.80592 
L 145.473235 99.96072 
L 148.541674 99.6408 
L 151.535651 99.1764 
L 154.63066 99.70272 
L 157.686712 99.94008 
L 160.707821 98.57784 
L 163.745961 98.65008 
L 166.799586 98.38176 
L 169.833856 98.48496 
L 172.840782 96.70992 
L 175.921398 98.05152 
L 178.969392 98.48496 
L 181.996518 97.96896 
L 185.027551 96.32808 
L 188.08033 96.20424 
L 191.128852 96.16296 
L 194.133034 96.1836 
L 197.220794 96.50352 
L 200.294019 94.76976 
L 203.340852 97.19496 
L 206.37301 96.9576 
L 209.418576 97.9896 
L 212.492259 96.89568 
L 215.455128 95.45088 
L 218.557315 95.67792 
L 221.596723 93.43848 
L 224.570218 92.90184 
L 227.664242 92.25168 
L 230.705514 92.87088 
L 233.695373 94.2744 
L 236.746957 93.1392 
L 239.848687 92.97408 
L 242.91315 92.9844 
L 245.911385 92.60256 
L 248.966311 92.53032 
L 252.003396 94.54272 
L 255.058851 92.85024 
L 258.060499 94.82136 
L 261.146358 95.75016 
L 264.216346 96.97824 
L 267.235027 97.08144 
L 270.286364 97.23624 
L 273.344141 95.94624 
L 276.361308 96.30744 
L 279.36 98.08248 
" clip-path="url(#paad9b9ed87)" style="fill: none; stroke: #f5841e; stroke-width: 0.6"/>
   </g>
  </g>
 </g>
 <defs>
  <clipPath id="paad9b9ed87">
   <rect x="8.64" y="4.8" width="270.72" height="103.2"/>
  </clipPath>
 </defs>
</svg>
