<?xml version="1.0" encoding="utf-8" standalone="no"?>
<!DOCTYPE svg PUBLIC "-//W3C//DTD SVG 1.1//EN"
  "http://www.w3.org/Graphics/SVG/1.1/DTD/svg11.dtd">
<svg xmlns:xlink="http://www.w3.org/1999/xlink" width="288pt" height="120pt" viewBox="0 0 288 120" xmlns="http://www.w3.org/2000/svg" version="1.1">
<desc id="nav-meta">{"window":"1m","count":4,"labels":["03.02","13.02","22.02","04.03"],"tick_utc":["2026-02-03T12:00:00Z","2026-02-13T03:33:47Z","2026-02-22T03:28:03Z","2026-03-04T03:14:13Z"],"w":720,"h":300}</desc>

 <metadata>
  <rdf:RDF xmlns:dc="http://purl.org/dc/elements/1.1/" xmlns:cc="http://creativecommons.org/ns#" xmlns:rdf="http://www.w3.org/1999/02/22-rdf-syntax-ns#">
   <cc:Work>
    <dc:type rdf:resource="http://purl.org/dc/dcmitype/StillImage"/>
    <dc:date>2026-03-04T19:26:04.345425</dc:date>
    <dc:format>image/svg+xml</dc:format>
    <dc:creator>
     <cc:Agent>
      <dc:title>Matplotlib v3.10.8, https://matplotlib.org/</dc:title>
     </cc:Agent>
    </dc:creator>
   </cc:Work>
  </rdf:RDF>
 </metadata>
 <defs>
  <style type="text/css">*{stroke-linejoin: round; stroke-linecap: butt}</style>
 </defs>
 <g id="figure_1">
  <g id="patch_1">
   <path d="M 0 120 
L 288 120 
L 288 0 
L 0 0 
L 0 120 
z
" style="fill: none; opacity: 0"/>
  </g>
  <g id="axes_1">
   <g id="patch_2">
    <path d="M 8.64 108 
L 279.36 108 
L 279.36 4.8 
L 8.64 4.8 
L 8.64 108 
z
" style="fill: none"/>
   </g>
   <g id="matplotlib.axis_1"/>
   <g id="matplotlib.axis_2"/>
   <g id="line2d_1">
    <path d="M 8.64 87.36 
L 279.36 87.36 
" clip-path="url(#p683a7688ae)" style="fill: none; stroke: #b2b2b2; stroke-opacity: 0.35; stroke-width: 0.5; stroke-linecap: square"/>
   </g>
   <g id="line2d_2">
    <path d="M 8.64 66.72 
L 279.36 66.72 
" clip-path="url(#p683a7688ae)" style="fill: none; stroke: #b2b2b2; stroke-opacity: 0.35; stroke-width: 0.5; stroke-linecap: square"/>
   </g>
   <g id="line2d_3">
    <path d="M 8.64 46.08 
L 279.36 46.08 
" clip-path="url(#p683a7688ae)" style="fill: none; stroke: #b2b2b2; stroke-opacity: 0.35; stroke-width: 0.5; stroke-linecap: square"/>
   </g>
   <g id="line2d_4">
    <path d="M 8.64 25.44 
L 279.36 25.44 
" clip-path="url(#p683a7688ae)" style="fill: none; stroke: #b2b2b2; stroke-opacity: 0.35; stroke-width: 0.5; stroke-linecap: square"/>
   </g>
   <g id="line2d_5">
    <path d="M 8.64 97.85544 
L 16.621473 99.10416 
L 24.134613 100.16712 
L 33.584005 102.23112 
L 42.997724 100.54896 
L 52.668043 100.70376 
L 62.04423 100.68312 
L 71.552383 100.95144 
L 80.987002 101.28168 
L 90.407178 101.71512 
L 99.85854 101.84928 
L 109.199055 101.034 
L 118.154399 100.54896 
L 128.215031 101.04432 
L 136.481663 100.81728 
L 147.108453 101.034 
L 156.55117 101.4984 
L 165.950118 101.33328 
L 175.346549 101.1372 
L 184.908756 101.06496 
L 194.391413 102.09696 
L 203.046936 102.05568 
L 213.265795 101.4984 
L 222.677874 100.60056 
L 232.114135 100.80696 
L 241.456948 101.45712 
L 251.125953 100.55928 
L 260.482554 101.10624 
L 269.958755 100.8792 
L 279.36 100.74504 
" clip-path="url(#p683a7688ae)" style="fill: none; stroke: #bebebe; stroke-width: 0.5; stroke-linecap: round"/>
   </g>
   <g id="line2d_6">
    <path d="M 8.64 84.79032 
L 16.621473 85.84296 
L 24.134613 88.25784 
L 33.584005 91.41576 
L 42.997724 88.7532 
L 52.668043 88.65 
L 62.04423 88.55712 
L 71.552383 88.96992 
L 80.987002 89.7336 
L 90.407178 90.456 
L 99.85854 90.56952 
L 109.199055 89.15568 
L 118.154399 88.9596 
L 128.215031 90.6624 
L 136.481663 89.94 
L 147.108453 90.00192 
L 156.55117 90.3528 
L 165.950118 90.62112 
L 175.346549 90.5076 
L 184.908756 90.3528 
L 194.391413 92.004 
L 203.046936 92.13816 
L 213.265795 91.25064 
L 222.677874 89.166 
L 232.114135 89.56848 
L 241.456948 90.93072 
L 251.125953 89.41368 
L 260.482554 90.37344 
L 269.958755 89.79552 
L 279.36 90.23928 
" clip-path="url(#p683a7688ae)" style="fill: none; stroke: #4a8dff; stroke-width: 0.6"/>
   </g>
   <g id="line2d_7">
    <path d="M 8.64 95.08968 
L 16.621473 97.71096 
L 24.134613 99.80592 
L 33.584005 101.79768 
L 42.997724 100.03296 
L 52.668043 100.518 
L 62.04423 99.98136 
L 71.552383 100.49736 
L 80.987002 100.78632 
L 90.407178 101.07528 
L 99.85854 101.26104 
L 109.199055 100.63152 
L 118.154399 100.38384 
L 128.215031 100.84824 
L 136.481663 100.65216 
L 147.108453 101.034 
L 156.55117 101.19912 
L 165.950118 101.10624 
L 175.346549 100.97208 
L 184.908756 100.91016 
L 194.391413 101.7564 
L 203.046936 101.84928 
L 213.265795 101.56032 
L 222.677874 100.85856 
L 232.114135 101.12688 
L 241.456948 101.4468 
L 251.125953 101.02368 
L 260.482554 101.30232 
L 269.958755 100.81728 
L 279.36 100.79664 
" clip-path="url(#p683a7688ae)" style="fill: none; stroke: #f5841e; stroke-width: 0.6"/>
   </g>
  </g>
 </g>
 <defs>
  <clipPath id="p683a7688ae">
   <rect x="8.64" y="4.8" width="270.72" height="103.2"/>
  </clipPath>
 </defs>
</svg>
