<?xml version="1.0" encoding="utf-8" standalone="no"?>
<!DOCTYPE svg PUBLIC "-//W3C//DTD SVG 1.1//EN"
  "http://www.w3.org/Graphics/SVG/1.1/DTD/svg11.dtd">
<svg xmlns:xlink="http://www.w3.org/1999/xlink" width="288pt" height="120pt" viewBox="0 0 288 120" xmlns="http://www.w3.org/2000/svg" version="1.1">
<desc id="nav-meta">{"window":"3m","count":4,"labels":["19.02","21.03","19.04","19.05"],"tick_utc":["2026-02-19T03:28:49Z","2026-03-21T03:10:23Z","2026-04-19T03:58:52Z","2026-05-19T04:46:06Z"],"w":720,"h":300}</desc>

 <metadata>
  <rdf:RDF xmlns:dc="http://purl.org/dc/elements/1.1/" xmlns:cc="http://creativecommons.org/ns#" xmlns:rdf="http://www.w3.org/1999/02/22-rdf-syntax-ns#">
   <cc:Work>
    <dc:type rdf:resource="http://purl.org/dc/dcmitype/StillImage"/>
    <dc:date>2026-05-19T10:26:48.552638</dc:date>
    <dc:format>image/svg+xml</dc:format>
    <dc:creator>
     <cc:Agent>
      <dc:title>Matplotlib v3.10.9, https://matplotlib.org/</dc:title>
     </cc:Agent>
    </dc:creator>
   </cc:Work>
  </rdf:RDF>
 </metadata>
 <defs>
  <style type="text/css">*{stroke-linejoin: round; stroke-linecap: butt}</style>
 </defs>
 <g id="figure_1">
  <g id="patch_1">
   <path d="M 0 120 
L 288 120 
L 288 0 
L 0 0 
L 0 120 
z
" style="fill: none; opacity: 0"/>
  </g>
  <g id="axes_1">
   <g id="patch_2">
    <path d="M 8.64 108 
L 279.36 108 
L 279.36 4.8 
L 8.64 4.8 
L 8.64 108 
z
" style="fill: none"/>
   </g>
   <g id="matplotlib.axis_1"/>
   <g id="matplotlib.axis_2"/>
   <g id="line2d_1">
    <path d="M 8.64 87.36 
L 279.36 87.36 
" clip-path="url(#p89e14ec40a)" style="fill: none; stroke: #b2b2b2; stroke-opacity: 0.35; stroke-width: 0.5; stroke-linecap: square"/>
   </g>
   <g id="line2d_2">
    <path d="M 8.64 66.72 
L 279.36 66.72 
" clip-path="url(#p89e14ec40a)" style="fill: none; stroke: #b2b2b2; stroke-opacity: 0.35; stroke-width: 0.5; stroke-linecap: square"/>
   </g>
   <g id="line2d_3">
    <path d="M 8.64 46.08 
L 279.36 46.08 
" clip-path="url(#p89e14ec40a)" style="fill: none; stroke: #b2b2b2; stroke-opacity: 0.35; stroke-width: 0.5; stroke-linecap: square"/>
   </g>
   <g id="line2d_4">
    <path d="M 8.64 25.44 
L 279.36 25.44 
" clip-path="url(#p89e14ec40a)" style="fill: none; stroke: #b2b2b2; stroke-opacity: 0.35; stroke-width: 0.5; stroke-linecap: square"/>
   </g>
   <g id="line2d_5">
    <path d="M 8.64 101.4984 
L 11.662196 101.33328 
L 14.683583 101.1372 
L 17.758275 101.06496 
L 20.807388 102.09696 
L 23.590539 102.05568 
L 26.876375 101.4984 
L 29.902793 100.60056 
L 32.936987 100.80696 
L 35.941134 101.45712 
L 39.050166 100.55928 
L 42.058746 101.10624 
L 45.105783 100.8792 
L 48.128718 100.74504 
L 51.175227 100.21872 
L 54.213749 100.53864 
L 57.230386 101.07528 
L 60.29987 101.38488 
L 63.348948 101.26104 
L 66.369385 100.78632 
L 69.408153 100.91016 
L 72.460081 100.99272 
L 75.494169 100.38384 
L 78.530088 100.50768 
L 81.628213 100.60056 
L 84.676762 99.76464 
L 87.663528 99.49632 
L 90.726679 99.40344 
L 93.767488 100.09488 
L 96.777862 100.3632 
L 99.800023 100.19808 
L 102.885447 100.47672 
L 105.932554 100.79664 
L 108.94437 100.26 
L 112.210749 99.83688 
L 115.061279 100.13616 
L 118.105079 100.80696 
L 121.11598 101.38488 
L 124.197358 101.3436 
L 127.246013 101.292 
L 130.266802 101.28168 
L 133.332838 101.28168 
L 136.332762 101.8596 
L 139.37621 101.88024 
L 142.390138 101.72544 
L 145.475878 101.68416 
L 148.523689 101.47776 
L 151.543915 101.78736 
L 154.588805 101.09592 
L 157.618179 101.46744 
L 160.686116 101.3436 
L 163.679601 101.05464 
L 166.774102 101.3952 
L 169.829654 101.47776 
L 172.850267 100.86888 
L 175.887909 101.26104 
L 178.941033 100.99272 
L 181.974805 100.61088 
L 184.981238 100.44576 
L 188.061349 100.94112 
L 191.108843 101.09592 
L 194.135472 101.00304 
L 197.166008 100.69344 
L 200.218287 100.9308 
L 203.266309 100.92048 
L 206.269998 100.81728 
L 209.357251 100.8792 
L 212.429972 100.64184 
L 215.476305 101.1888 
L 218.507966 101.09592 
L 221.553033 101.37456 
L 224.626212 101.21976 
L 227.588594 101.20944 
L 230.690273 101.23008 
L 233.729182 100.92048 
L 236.70219 101.06496 
L 239.795705 100.70376 
L 242.836479 100.55928 
L 245.825848 100.53864 
L 248.876931 99.60984 
L 251.978152 99.72336 
L 255.042113 99.44472 
L 258.039856 99.25896 
L 261.094281 99.32088 
L 264.130868 100.22904 
L 267.185821 100.01232 
L 270.186977 100.43544 
L 273.27233 100.75536 
L 276.341815 101.02368 
L 279.36 101.02368 
" clip-path="url(#p89e14ec40a)" style="fill: none; stroke: #bebebe; stroke-width: 0.5; stroke-linecap: round"/>
   </g>
   <g id="line2d_6">
    <path d="M 8.64 90.3528 
L 11.662196 90.62112 
L 14.683583 90.5076 
L 17.758275 90.3528 
L 20.807388 92.004 
L 23.590539 92.13816 
L 26.876375 91.25064 
L 29.902793 89.166 
L 32.936987 89.56848 
L 35.941134 90.93072 
L 39.050166 89.41368 
L 42.058746 90.37344 
L 45.105783 89.79552 
L 48.128718 90.23928 
L 51.175227 88.0824 
L 54.213749 88.7532 
L 57.230386 90.16704 
L 60.29987 90.67272 
L 63.348948 90.18768 
L 66.369385 89.2692 
L 69.408153 89.54784 
L 72.460081 89.49624 
L 75.494169 88.31976 
L 78.530088 88.45392 
L 81.628213 88.46424 
L 84.676762 86.38992 
L 87.663528 84.80064 
L 90.726679 84.8316 
L 93.767488 86.586 
L 96.777862 87.74184 
L 99.800023 87.618 
L 102.885447 88.19592 
L 105.932554 89.08344 
L 108.94437 87.89664 
L 112.210749 87.3084 
L 115.061279 87.65928 
L 118.105079 88.96992 
L 121.11598 90.07416 
L 124.197358 89.76456 
L 127.246013 89.3724 
L 130.266802 89.00088 
L 133.332838 88.42296 
L 136.332762 88.81512 
L 139.37621 89.10408 
L 142.390138 89.14536 
L 145.475878 89.07312 
L 148.523689 87.9792 
L 151.543915 88.29912 
L 154.588805 86.38992 
L 157.618179 87.24648 
L 160.686116 87.1536 
L 163.679601 86.21448 
L 166.774102 86.66856 
L 169.829654 87.01944 
L 172.850267 84.44976 
L 175.887909 85.05864 
L 178.941033 84.58392 
L 181.974805 85.04832 
L 184.981238 83.71704 
L 188.061349 84.86256 
L 191.108843 85.6572 
L 194.135472 85.27536 
L 197.166008 84.49104 
L 200.218287 84.86256 
L 203.266309 85.32696 
L 206.269998 85.17216 
L 209.357251 85.31664 
L 212.429972 84.11952 
L 215.476305 85.66752 
L 218.507966 85.26504 
L 221.553033 86.26608 
L 224.626212 85.77072 
L 227.588594 85.38888 
L 230.690273 85.3992 
L 233.729182 84.09888 
L 236.70219 84.22272 
L 239.795705 84.34656 
L 242.836479 85.06896 
L 245.825848 85.7604 
L 248.876931 85.0896 
L 251.978152 85.01736 
L 255.042113 84.9348 
L 258.039856 85.296 
L 261.094281 85.35792 
L 264.130868 86.1732 
L 267.185821 85.92552 
L 270.186977 86.55504 
L 273.27233 87.13296 
L 276.341815 88.10304 
L 279.36 87.9276 
" clip-path="url(#p89e14ec40a)" style="fill: none; stroke: #4a8dff; stroke-width: 0.6"/>
   </g>
   <g id="line2d_7">
    <path d="M 8.64 101.19912 
L 11.662196 101.10624 
L 14.683583 100.97208 
L 17.758275 100.91016 
L 20.807388 101.7564 
L 23.590539 101.84928 
L 26.876375 101.56032 
L 29.902793 100.85856 
L 32.936987 101.12688 
L 35.941134 101.4468 
L 39.050166 101.02368 
L 42.058746 101.30232 
L 45.105783 100.81728 
L 48.128718 100.79664 
L 51.175227 99.3312 
L 54.213749 99.92976 
L 57.230386 100.78632 
L 60.29987 101.17848 
L 63.348948 101.1372 
L 66.369385 100.21872 
L 69.408153 100.37352 
L 72.460081 100.4664 
L 75.494169 99.88848 
L 78.530088 99.94008 
L 81.628213 99.81624 
L 84.676762 98.93904 
L 87.663528 98.3508 
L 90.726679 98.52624 
L 93.767488 99.78528 
L 96.777862 100.12584 
L 99.800023 100.03296 
L 102.885447 100.45608 
L 105.932554 100.83792 
L 108.94437 100.11552 
L 112.210749 99.87816 
L 115.061279 100.002 
L 118.105079 100.64184 
L 121.11598 101.41584 
L 124.197358 101.21976 
L 127.246013 101.14752 
L 130.266802 101.00304 
L 133.332838 100.86888 
L 136.332762 101.21976 
L 139.37621 101.28168 
L 142.390138 101.20944 
L 145.475878 101.14752 
L 148.523689 100.55928 
L 151.543915 100.65216 
L 154.588805 99.80592 
L 157.618179 99.96072 
L 160.686116 99.6408 
L 163.679601 99.1764 
L 166.774102 99.70272 
L 169.829654 99.94008 
L 172.850267 98.57784 
L 175.887909 98.65008 
L 178.941033 98.38176 
L 181.974805 98.48496 
L 184.981238 96.70992 
L 188.061349 98.05152 
L 191.108843 98.48496 
L 194.135472 97.96896 
L 197.166008 96.32808 
L 200.218287 96.20424 
L 203.266309 96.16296 
L 206.269998 96.1836 
L 209.357251 96.50352 
L 212.429972 94.76976 
L 215.476305 97.19496 
L 218.507966 96.9576 
L 221.553033 97.9896 
L 224.626212 96.89568 
L 227.588594 95.45088 
L 230.690273 95.67792 
L 233.729182 93.43848 
L 236.70219 92.90184 
L 239.795705 92.25168 
L 242.836479 92.87088 
L 245.825848 94.2744 
L 248.876931 93.1392 
L 251.978152 92.97408 
L 255.042113 92.9844 
L 258.039856 92.60256 
L 261.094281 92.53032 
L 264.130868 94.54272 
L 267.185821 92.85024 
L 270.186977 94.82136 
L 273.27233 95.75016 
L 276.341815 96.97824 
L 279.36 97.08144 
" clip-path="url(#p89e14ec40a)" style="fill: none; stroke: #f5841e; stroke-width: 0.6"/>
   </g>
  </g>
 </g>
 <defs>
  <clipPath id="p89e14ec40a">
   <rect x="8.64" y="4.8" width="270.72" height="103.2"/>
  </clipPath>
 </defs>
</svg>
