<?xml version="1.0" encoding="utf-8" standalone="no"?>
<!DOCTYPE svg PUBLIC "-//W3C//DTD SVG 1.1//EN"
  "http://www.w3.org/Graphics/SVG/1.1/DTD/svg11.dtd">
<svg xmlns:xlink="http://www.w3.org/1999/xlink" width="288pt" height="120pt" viewBox="0 0 288 120" xmlns="http://www.w3.org/2000/svg" version="1.1">
<desc id="nav-meta">{"window":"3m","count":4,"labels":["23.03","22.04","21.05","20.06"],"tick_utc":["2026-03-23T03:35:18Z","2026-04-22T03:51:39Z","2026-05-21T04:59:27Z","2026-06-20T04:59:26Z"],"w":720,"h":300}</desc>

 <metadata>
  <rdf:RDF xmlns:dc="http://purl.org/dc/elements/1.1/" xmlns:cc="http://creativecommons.org/ns#" xmlns:rdf="http://www.w3.org/1999/02/22-rdf-syntax-ns#">
   <cc:Work>
    <dc:type rdf:resource="http://purl.org/dc/dcmitype/StillImage"/>
    <dc:date>2026-06-20T14:55:26.843117</dc:date>
    <dc:format>image/svg+xml</dc:format>
    <dc:creator>
     <cc:Agent>
      <dc:title>Matplotlib v3.11.0, https://matplotlib.org/</dc:title>
     </cc:Agent>
    </dc:creator>
   </cc:Work>
  </rdf:RDF>
 </metadata>
 <defs>
  <style type="text/css">*{stroke-linejoin: round; stroke-linecap: butt}</style>
 </defs>
 <g id="figure_1">
  <g id="patch_1">
   <path d="M 0 120 
L 288 120 
L 288 0 
L 0 0 
L 0 120 
z
" style="fill: none; opacity: 0"/>
  </g>
  <g id="axes_1">
   <g id="patch_2">
    <path d="M 8.64 108 
L 279.36 108 
L 279.36 4.8 
L 8.64 4.8 
L 8.64 108 
z
" style="fill: none"/>
   </g>
   <g id="matplotlib.axis_1"/>
   <g id="matplotlib.axis_2"/>
   <g id="line2d_1">
    <path d="M 8.64 87.36 
L 279.36 87.36 
" clip-path="url(#p7ffff3b600)" style="fill: none; stroke: #b2b2b2; stroke-opacity: 0.35; stroke-width: 0.5; stroke-linecap: square"/>
   </g>
   <g id="line2d_2">
    <path d="M 8.64 66.72 
L 279.36 66.72 
" clip-path="url(#p7ffff3b600)" style="fill: none; stroke: #b2b2b2; stroke-opacity: 0.35; stroke-width: 0.5; stroke-linecap: square"/>
   </g>
   <g id="line2d_3">
    <path d="M 8.64 46.08 
L 279.36 46.08 
" clip-path="url(#p7ffff3b600)" style="fill: none; stroke: #b2b2b2; stroke-opacity: 0.35; stroke-width: 0.5; stroke-linecap: square"/>
   </g>
   <g id="line2d_4">
    <path d="M 8.64 25.44 
L 279.36 25.44 
" clip-path="url(#p7ffff3b600)" style="fill: none; stroke: #b2b2b2; stroke-opacity: 0.35; stroke-width: 0.5; stroke-linecap: square"/>
   </g>
   <g id="line2d_5">
    <path d="M 8.64 100.79664 
L 11.651656 100.26 
L 14.91786 99.83688 
L 17.768238 100.13616 
L 20.811875 100.80696 
L 23.822616 101.38488 
L 26.903828 101.3436 
L 29.952321 101.292 
L 32.972948 101.28168 
L 36.038821 101.28168 
L 39.038585 101.8596 
L 42.08187 101.88024 
L 45.095637 101.72544 
L 48.181212 101.68416 
L 51.22886 101.47776 
L 54.248925 101.78736 
L 57.293653 101.09592 
L 60.322865 101.46744 
L 63.390638 101.3436 
L 66.383963 101.05464 
L 69.478299 101.3952 
L 72.533687 101.47776 
L 75.554139 100.86888 
L 78.591619 101.26104 
L 81.644579 100.99272 
L 84.678189 100.61088 
L 87.684462 100.44576 
L 90.764408 100.94112 
L 93.81174 101.09592 
L 96.838208 101.00304 
L 99.868581 100.69344 
L 102.920697 100.9308 
L 105.968556 100.92048 
L 108.972085 100.81728 
L 112.059173 100.8792 
L 115.13173 100.64184 
L 118.177901 101.1888 
L 121.2094 101.09592 
L 124.254303 101.37456 
L 127.327318 101.21976 
L 130.289542 101.20944 
L 133.391055 101.23008 
L 136.429802 100.92048 
L 139.402651 101.06496 
L 142.496002 100.70376 
L 145.536613 100.55928 
L 148.525822 100.53864 
L 151.576742 99.60984 
L 154.677798 99.72336 
L 157.741595 99.44472 
L 160.739178 99.25896 
L 163.79344 99.32088 
L 166.829865 100.22904 
L 169.884655 100.01232 
L 172.88565 100.43544 
L 175.970838 100.75536 
L 179.040159 101.02368 
L 182.058183 101.02368 
L 185.108857 101.17848 
L 188.165969 100.7244 
L 191.18248 100.75536 
L 194.18052 101.11656 
L 197.268453 100.91016 
L 200.348258 100.89984 
L 203.342005 101.1372 
L 206.413015 101.2404 
L 209.443107 101.6532 
L 212.485161 101.4984 
L 215.481125 101.48808 
L 218.58299 101.32296 
L 221.667756 101.51904 
L 224.677652 101.7048 
L 227.751652 102.54072 
L 230.78104 103.08768 
L 233.770777 103.36632 
L 236.763857 104.22288 
L 239.868994 103.85136 
L 242.922236 103.68624 
L 245.904021 103.43856 
L 248.975347 103.81008 
L 252.032987 103.72752 
L 255.084717 103.50048 
L 258.102283 103.5108 
L 261.164145 103.31472 
L 264.304993 102.95352 
L 267.36214 102.61296 
L 270.305119 102.6336 
L 273.330355 102.9948 
L 276.441755 103.28376 
L 279.36 103.01544 
" clip-path="url(#p7ffff3b600)" style="fill: none; stroke: #bebebe; stroke-width: 0.5; stroke-linecap: round"/>
   </g>
   <g id="line2d_6">
    <path d="M 8.64 89.08344 
L 11.651656 87.89664 
L 14.91786 87.3084 
L 17.768238 87.65928 
L 20.811875 88.96992 
L 23.822616 90.07416 
L 26.903828 89.76456 
L 29.952321 89.3724 
L 32.972948 89.00088 
L 36.038821 88.42296 
L 39.038585 88.81512 
L 42.08187 89.10408 
L 45.095637 89.14536 
L 48.181212 89.07312 
L 51.22886 87.9792 
L 54.248925 88.29912 
L 57.293653 86.38992 
L 60.322865 87.24648 
L 63.390638 87.1536 
L 66.383963 86.21448 
L 69.478299 86.66856 
L 72.533687 87.01944 
L 75.554139 84.44976 
L 78.591619 85.05864 
L 81.644579 84.58392 
L 84.678189 85.04832 
L 87.684462 83.71704 
L 90.764408 84.86256 
L 93.81174 85.6572 
L 96.838208 85.27536 
L 99.868581 84.49104 
L 102.920697 84.86256 
L 105.968556 85.32696 
L 108.972085 85.17216 
L 112.059173 85.31664 
L 115.13173 84.11952 
L 118.177901 85.66752 
L 121.2094 85.26504 
L 124.254303 86.26608 
L 127.327318 85.77072 
L 130.289542 85.38888 
L 133.391055 85.3992 
L 136.429802 84.09888 
L 139.402651 84.22272 
L 142.496002 84.34656 
L 145.536613 85.06896 
L 148.525822 85.7604 
L 151.576742 85.0896 
L 154.677798 85.01736 
L 157.741595 84.9348 
L 160.739178 85.296 
L 163.79344 85.35792 
L 166.829865 86.1732 
L 169.884655 85.92552 
L 172.88565 86.55504 
L 175.970838 87.13296 
L 179.040159 88.10304 
L 182.058183 87.9276 
L 185.108857 88.26816 
L 188.165969 87.78312 
L 191.18248 87.95856 
L 194.18052 88.94928 
L 197.268453 88.14432 
L 200.348258 88.33008 
L 203.342005 88.52616 
L 206.413015 88.86672 
L 209.443107 90.22896 
L 212.485161 89.82648 
L 215.481125 89.87808 
L 218.58299 89.46528 
L 221.667756 90.0432 
L 224.677652 89.96064 
L 227.751652 91.99368 
L 230.78104 93.05664 
L 233.770777 93.74808 
L 236.763857 97.02984 
L 239.868994 95.93592 
L 242.922236 95.07936 
L 245.904021 94.46016 
L 248.975347 95.47152 
L 252.032987 95.11032 
L 255.084717 94.82136 
L 258.102283 94.8936 
L 261.164145 94.70784 
L 264.304993 94.04736 
L 267.36214 93.40752 
L 270.305119 92.9844 
L 273.330355 93.93384 
L 276.441755 94.4292 
L 279.36 94.19184 
" clip-path="url(#p7ffff3b600)" style="fill: none; stroke: #4a8dff; stroke-width: 0.6"/>
   </g>
   <g id="line2d_7">
    <path d="M 8.64 100.83792 
L 11.651656 100.11552 
L 14.91786 99.87816 
L 17.768238 100.002 
L 20.811875 100.64184 
L 23.822616 101.41584 
L 26.903828 101.21976 
L 29.952321 101.14752 
L 32.972948 101.00304 
L 36.038821 100.86888 
L 39.038585 101.21976 
L 42.08187 101.28168 
L 45.095637 101.20944 
L 48.181212 101.14752 
L 51.22886 100.55928 
L 54.248925 100.65216 
L 57.293653 99.80592 
L 60.322865 99.96072 
L 63.390638 99.6408 
L 66.383963 99.1764 
L 69.478299 99.70272 
L 72.533687 99.94008 
L 75.554139 98.57784 
L 78.591619 98.65008 
L 81.644579 98.38176 
L 84.678189 98.48496 
L 87.684462 96.70992 
L 90.764408 98.05152 
L 93.81174 98.48496 
L 96.838208 97.96896 
L 99.868581 96.32808 
L 102.920697 96.20424 
L 105.968556 96.16296 
L 108.972085 96.1836 
L 112.059173 96.50352 
L 115.13173 94.76976 
L 118.177901 97.19496 
L 121.2094 96.9576 
L 124.254303 97.9896 
L 127.327318 96.89568 
L 130.289542 95.45088 
L 133.391055 95.67792 
L 136.429802 93.43848 
L 139.402651 92.90184 
L 142.496002 92.25168 
L 145.536613 92.87088 
L 148.525822 94.2744 
L 151.576742 93.1392 
L 154.677798 92.97408 
L 157.741595 92.9844 
L 160.739178 92.60256 
L 163.79344 92.53032 
L 166.829865 94.54272 
L 169.884655 92.85024 
L 172.88565 94.82136 
L 175.970838 95.75016 
L 179.040159 96.97824 
L 182.058183 97.08144 
L 185.108857 97.23624 
L 188.165969 95.94624 
L 191.18248 96.30744 
L 194.18052 98.08248 
L 197.268453 97.2672 
L 200.348258 96.61704 
L 203.342005 97.23624 
L 206.413015 98.08248 
L 209.443107 99.18672 
L 212.485161 99.03192 
L 215.481125 99.1248 
L 218.58299 98.74296 
L 221.667756 99.09384 
L 224.677652 100.0536 
L 227.751652 101.23008 
L 230.78104 101.99376 
L 233.770777 102.08664 
L 236.763857 102.8916 
L 239.868994 102.45816 
L 242.922236 102.28272 
L 245.904021 102.10728 
L 248.975347 102.582 
L 252.032987 102.29304 
L 255.084717 102.08664 
L 258.102283 102.066 
L 261.164145 101.86992 
L 264.304993 101.48808 
L 267.36214 101.40552 
L 270.305119 101.4984 
L 273.330355 101.97312 
L 276.441755 102.26208 
L 279.36 102.066 
" clip-path="url(#p7ffff3b600)" style="fill: none; stroke: #f5841e; stroke-width: 0.6"/>
   </g>
  </g>
 </g>
 <defs>
  <clipPath id="p7ffff3b600">
   <rect x="8.64" y="4.8" width="270.72" height="103.2"/>
  </clipPath>
 </defs>
</svg>
