<?xml version="1.0" encoding="utf-8" standalone="no"?>
<!DOCTYPE svg PUBLIC "-//W3C//DTD SVG 1.1//EN"
  "http://www.w3.org/Graphics/SVG/1.1/DTD/svg11.dtd">
<svg xmlns:xlink="http://www.w3.org/1999/xlink" width="288pt" height="120pt" viewBox="0 0 288 120" xmlns="http://www.w3.org/2000/svg" version="1.1">
<desc id="nav-meta">{"window":"3m","count":4,"labels":["09.01","08.02","10.03","09.04"],"tick_utc":["2026-01-09T12:00:00Z","2026-02-08T03:46:03Z","2026-03-10T03:14:38Z","2026-04-09T03:38:15Z"],"w":720,"h":300}</desc>

 <metadata>
  <rdf:RDF xmlns:dc="http://purl.org/dc/elements/1.1/" xmlns:cc="http://creativecommons.org/ns#" xmlns:rdf="http://www.w3.org/1999/02/22-rdf-syntax-ns#">
   <cc:Work>
    <dc:type rdf:resource="http://purl.org/dc/dcmitype/StillImage"/>
    <dc:date>2026-04-09T08:06:38.914044</dc:date>
    <dc:format>image/svg+xml</dc:format>
    <dc:creator>
     <cc:Agent>
      <dc:title>Matplotlib v3.10.8, https://matplotlib.org/</dc:title>
     </cc:Agent>
    </dc:creator>
   </cc:Work>
  </rdf:RDF>
 </metadata>
 <defs>
  <style type="text/css">*{stroke-linejoin: round; stroke-linecap: butt}</style>
 </defs>
 <g id="figure_1">
  <g id="patch_1">
   <path d="M 0 120 
L 288 120 
L 288 0 
L 0 0 
L 0 120 
z
" style="fill: none; opacity: 0"/>
  </g>
  <g id="axes_1">
   <g id="patch_2">
    <path d="M 8.64 108 
L 279.36 108 
L 279.36 4.8 
L 8.64 4.8 
L 8.64 108 
z
" style="fill: none"/>
   </g>
   <g id="matplotlib.axis_1"/>
   <g id="matplotlib.axis_2"/>
   <g id="line2d_1">
    <path d="M 8.64 87.36 
L 279.36 87.36 
" clip-path="url(#p551dafb17d)" style="fill: none; stroke: #b2b2b2; stroke-opacity: 0.35; stroke-width: 0.5; stroke-linecap: square"/>
   </g>
   <g id="line2d_2">
    <path d="M 8.64 66.72 
L 279.36 66.72 
" clip-path="url(#p551dafb17d)" style="fill: none; stroke: #b2b2b2; stroke-opacity: 0.35; stroke-width: 0.5; stroke-linecap: square"/>
   </g>
   <g id="line2d_3">
    <path d="M 8.64 46.08 
L 279.36 46.08 
" clip-path="url(#p551dafb17d)" style="fill: none; stroke: #b2b2b2; stroke-opacity: 0.35; stroke-width: 0.5; stroke-linecap: square"/>
   </g>
   <g id="line2d_4">
    <path d="M 8.64 25.44 
L 279.36 25.44 
" clip-path="url(#p551dafb17d)" style="fill: none; stroke: #b2b2b2; stroke-opacity: 0.35; stroke-width: 0.5; stroke-linecap: square"/>
   </g>
   <g id="line2d_5">
    <path d="M 8.64 88.72224 
L 11.659691 89.39304 
L 14.679382 89.40336 
L 17.699072 88.41264 
L 20.718763 88.4952 
L 23.738454 86.86464 
L 26.758145 86.42088 
L 29.777836 87.62832 
L 32.797527 86.93688 
L 35.817217 87.23616 
L 38.836908 88.63968 
L 41.856599 90.0432 
L 44.87629 92.12784 
L 47.895981 91.16808 
L 50.915671 91.46736 
L 53.935362 91.73568 
L 56.955053 91.78728 
L 59.974744 94.0164 
L 62.994435 92.5716 
L 66.014126 91.76664 
L 69.033816 92.33424 
L 72.053507 94.36728 
L 75.073198 94.46016 
L 78.092889 97.71096 
L 81.11258 98.48496 
L 84.13227 97.85544 
L 86.681568 99.10416 
L 89.081278 100.16712 
L 92.099431 102.23112 
L 95.10619 100.54896 
L 98.194908 100.70376 
L 101.189679 100.68312 
L 104.2266 100.95144 
L 107.240035 101.28168 
L 110.248856 101.71512 
L 113.267638 101.84928 
L 116.251016 101.034 
L 119.111369 100.54896 
L 122.324754 101.04432 
L 124.965131 100.81728 
L 128.359347 101.034 
L 131.375368 101.4984 
L 134.377409 101.33328 
L 137.378646 101.1372 
L 140.432833 101.06496 
L 143.461611 102.09696 
L 146.226201 102.05568 
L 149.490123 101.4984 
L 152.496358 100.60056 
L 155.510317 100.80696 
L 158.494429 101.45712 
L 161.582726 100.55928 
L 164.571242 101.10624 
L 167.597958 100.8792 
L 170.600733 100.74504 
L 173.626924 100.21872 
L 176.645182 100.53864 
L 179.641701 101.07528 
L 182.690715 101.38488 
L 185.719458 101.26104 
L 188.719751 100.78632 
L 191.738254 100.91016 
L 194.769828 100.99272 
L 197.783682 100.38384 
L 200.799353 100.50768 
L 203.876817 100.60056 
L 206.905035 99.76464 
L 209.871881 99.49632 
L 212.914604 99.40344 
L 215.935134 100.09488 
L 218.925432 100.3632 
L 221.927438 100.19808 
L 224.992284 100.47672 
L 228.01907 100.79664 
L 231.010801 100.26 
L 234.255396 99.83688 
L 237.086915 100.13616 
L 240.110415 100.80696 
L 243.101237 101.38488 
L 246.162064 101.3436 
L 249.190388 101.292 
L 252.191031 101.28168 
L 255.23662 101.28168 
L 258.216537 101.8596 
L 261.239688 101.88024 
L 264.233516 101.72544 
L 267.298677 101.68416 
L 270.326162 101.47776 
L 273.326245 101.78736 
L 276.350829 101.09592 
L 279.36 101.46744 
" clip-path="url(#p551dafb17d)" style="fill: none; stroke: #bebebe; stroke-width: 0.5; stroke-linecap: round"/>
   </g>
   <g id="line2d_6">
    <path d="M 8.64 73.52088 
L 11.659691 73.83048 
L 14.679382 73.8408 
L 17.699072 73.29384 
L 20.718763 73.72728 
L 23.738454 70.32168 
L 26.758145 69.77472 
L 29.777836 70.34232 
L 32.797527 70.67256 
L 35.817217 70.51776 
L 38.836908 70.848 
L 41.856599 72.31344 
L 44.87629 76.01832 
L 47.895981 75.41976 
L 50.915671 75.83256 
L 53.935362 75.79128 
L 56.955053 75.82224 
L 59.974744 77.82432 
L 62.994435 76.14216 
L 66.014126 74.75928 
L 69.033816 74.96568 
L 72.053507 77.75208 
L 75.073198 79.48584 
L 78.092889 83.31456 
L 81.11258 85.90488 
L 84.13227 84.79032 
L 86.681568 85.84296 
L 89.081278 88.25784 
L 92.099431 91.41576 
L 95.10619 88.7532 
L 98.194908 88.65 
L 101.189679 88.55712 
L 104.2266 88.96992 
L 107.240035 89.7336 
L 110.248856 90.456 
L 113.267638 90.56952 
L 116.251016 89.15568 
L 119.111369 88.9596 
L 122.324754 90.6624 
L 124.965131 89.94 
L 128.359347 90.00192 
L 131.375368 90.3528 
L 134.377409 90.62112 
L 137.378646 90.5076 
L 140.432833 90.3528 
L 143.461611 92.004 
L 146.226201 92.13816 
L 149.490123 91.25064 
L 152.496358 89.166 
L 155.510317 89.56848 
L 158.494429 90.93072 
L 161.582726 89.41368 
L 164.571242 90.37344 
L 167.597958 89.79552 
L 170.600733 90.23928 
L 173.626924 88.0824 
L 176.645182 88.7532 
L 179.641701 90.16704 
L 182.690715 90.67272 
L 185.719458 90.18768 
L 188.719751 89.2692 
L 191.738254 89.54784 
L 194.769828 89.49624 
L 197.783682 88.31976 
L 200.799353 88.45392 
L 203.876817 88.46424 
L 206.905035 86.38992 
L 209.871881 84.80064 
L 212.914604 84.8316 
L 215.935134 86.586 
L 218.925432 87.74184 
L 221.927438 87.618 
L 224.992284 88.19592 
L 228.01907 89.08344 
L 231.010801 87.89664 
L 234.255396 87.3084 
L 237.086915 87.65928 
L 240.110415 88.96992 
L 243.101237 90.07416 
L 246.162064 89.76456 
L 249.190388 89.3724 
L 252.191031 89.00088 
L 255.23662 88.42296 
L 258.216537 88.81512 
L 261.239688 89.10408 
L 264.233516 89.14536 
L 267.298677 89.07312 
L 270.326162 87.9792 
L 273.326245 88.29912 
L 276.350829 86.38992 
L 279.36 87.24648 
" clip-path="url(#p551dafb17d)" style="fill: none; stroke: #4a8dff; stroke-width: 0.6"/>
   </g>
   <g id="line2d_7">
    <path d="M 8.64 82.43736 
L 11.659691 82.93272 
L 14.679382 83.00496 
L 17.699072 82.6128 
L 20.718763 82.28256 
L 23.738454 78.01008 
L 26.758145 76.19376 
L 29.777836 77.66952 
L 32.797527 77.74176 
L 35.817217 78.1752 
L 38.836908 79.5684 
L 41.856599 80.8068 
L 44.87629 85.20312 
L 47.895981 84.12984 
L 50.915671 84.03696 
L 53.935362 84.06792 
L 56.955053 84.3156 
L 59.974744 87.02976 
L 62.994435 85.21344 
L 66.014126 84.28464 
L 69.033816 84.32592 
L 72.053507 89.08344 
L 75.073198 89.5272 
L 78.092889 95.14128 
L 81.11258 96.98856 
L 84.13227 95.08968 
L 86.681568 97.71096 
L 89.081278 99.80592 
L 92.099431 101.79768 
L 95.10619 100.03296 
L 98.194908 100.518 
L 101.189679 99.98136 
L 104.2266 100.49736 
L 107.240035 100.78632 
L 110.248856 101.07528 
L 113.267638 101.26104 
L 116.251016 100.63152 
L 119.111369 100.38384 
L 122.324754 100.84824 
L 124.965131 100.65216 
L 128.359347 101.034 
L 131.375368 101.19912 
L 134.377409 101.10624 
L 137.378646 100.97208 
L 140.432833 100.91016 
L 143.461611 101.7564 
L 146.226201 101.84928 
L 149.490123 101.56032 
L 152.496358 100.85856 
L 155.510317 101.12688 
L 158.494429 101.4468 
L 161.582726 101.02368 
L 164.571242 101.30232 
L 167.597958 100.81728 
L 170.600733 100.79664 
L 173.626924 99.3312 
L 176.645182 99.92976 
L 179.641701 100.78632 
L 182.690715 101.17848 
L 185.719458 101.1372 
L 188.719751 100.21872 
L 191.738254 100.37352 
L 194.769828 100.4664 
L 197.783682 99.88848 
L 200.799353 99.94008 
L 203.876817 99.81624 
L 206.905035 98.93904 
L 209.871881 98.3508 
L 212.914604 98.52624 
L 215.935134 99.78528 
L 218.925432 100.12584 
L 221.927438 100.03296 
L 224.992284 100.45608 
L 228.01907 100.83792 
L 231.010801 100.11552 
L 234.255396 99.87816 
L 237.086915 100.002 
L 240.110415 100.64184 
L 243.101237 101.41584 
L 246.162064 101.21976 
L 249.190388 101.14752 
L 252.191031 101.00304 
L 255.23662 100.86888 
L 258.216537 101.21976 
L 261.239688 101.28168 
L 264.233516 101.20944 
L 267.298677 101.14752 
L 270.326162 100.55928 
L 273.326245 100.65216 
L 276.350829 99.80592 
L 279.36 99.96072 
" clip-path="url(#p551dafb17d)" style="fill: none; stroke: #f5841e; stroke-width: 0.6"/>
   </g>
  </g>
 </g>
 <defs>
  <clipPath id="p551dafb17d">
   <rect x="8.64" y="4.8" width="270.72" height="103.2"/>
  </clipPath>
 </defs>
</svg>
