<?xml version="1.0" encoding="utf-8" standalone="no"?>
<!DOCTYPE svg PUBLIC "-//W3C//DTD SVG 1.1//EN"
  "http://www.w3.org/Graphics/SVG/1.1/DTD/svg11.dtd">
<svg xmlns:xlink="http://www.w3.org/1999/xlink" width="288pt" height="120pt" viewBox="0 0 288 120" xmlns="http://www.w3.org/2000/svg" version="1.1">
<desc id="nav-meta">{"window":"1m","count":4,"labels":["29.01","08.02","18.02","28.02"],"tick_utc":["2026-01-29T12:00:00Z","2026-02-08T03:46:03Z","2026-02-18T03:30:34Z","2026-02-28T03:01:05Z"],"w":720,"h":300}</desc>

 <metadata>
  <rdf:RDF xmlns:dc="http://purl.org/dc/elements/1.1/" xmlns:cc="http://creativecommons.org/ns#" xmlns:rdf="http://www.w3.org/1999/02/22-rdf-syntax-ns#">
   <cc:Work>
    <dc:type rdf:resource="http://purl.org/dc/dcmitype/StillImage"/>
    <dc:date>2026-02-28T03:01:06.672171</dc:date>
    <dc:format>image/svg+xml</dc:format>
    <dc:creator>
     <cc:Agent>
      <dc:title>Matplotlib v3.10.8, https://matplotlib.org/</dc:title>
     </cc:Agent>
    </dc:creator>
   </cc:Work>
  </rdf:RDF>
 </metadata>
 <defs>
  <style type="text/css">*{stroke-linejoin: round; stroke-linecap: butt}</style>
 </defs>
 <g id="figure_1">
  <g id="patch_1">
   <path d="M 0 120 
L 288 120 
L 288 0 
L 0 0 
L 0 120 
z
" style="fill: none; opacity: 0"/>
  </g>
  <g id="axes_1">
   <g id="patch_2">
    <path d="M 8.64 108 
L 279.36 108 
L 279.36 4.8 
L 8.64 4.8 
L 8.64 108 
z
" style="fill: none"/>
   </g>
   <g id="matplotlib.axis_1"/>
   <g id="matplotlib.axis_2"/>
   <g id="line2d_1">
    <path d="M 8.64 87.36 
L 279.36 87.36 
" clip-path="url(#pcd320d80cc)" style="fill: none; stroke: #b2b2b2; stroke-opacity: 0.35; stroke-width: 0.5; stroke-linecap: square"/>
   </g>
   <g id="line2d_2">
    <path d="M 8.64 66.72 
L 279.36 66.72 
" clip-path="url(#pcd320d80cc)" style="fill: none; stroke: #b2b2b2; stroke-opacity: 0.35; stroke-width: 0.5; stroke-linecap: square"/>
   </g>
   <g id="line2d_3">
    <path d="M 8.64 46.08 
L 279.36 46.08 
" clip-path="url(#pcd320d80cc)" style="fill: none; stroke: #b2b2b2; stroke-opacity: 0.35; stroke-width: 0.5; stroke-linecap: square"/>
   </g>
   <g id="line2d_4">
    <path d="M 8.64 25.44 
L 279.36 25.44 
" clip-path="url(#pcd320d80cc)" style="fill: none; stroke: #b2b2b2; stroke-opacity: 0.35; stroke-width: 0.5; stroke-linecap: square"/>
   </g>
   <g id="line2d_5">
    <path d="M 8.64 92.33424 
L 17.777996 94.36728 
L 26.915992 94.46016 
L 36.053987 97.71096 
L 45.191983 98.48496 
L 54.329979 97.85544 
L 62.044499 99.10416 
L 69.30635 100.16712 
L 78.439692 102.23112 
L 87.538556 100.54896 
L 96.885435 100.70376 
L 105.948021 100.68312 
L 115.138159 100.95144 
L 124.257223 101.28168 
L 133.362326 101.71512 
L 142.497572 101.84928 
L 151.525679 101.034 
L 160.181497 100.54896 
L 169.905636 101.04432 
L 177.895777 100.81728 
L 188.167138 101.034 
L 197.294029 101.4984 
L 206.378614 101.33328 
L 215.460766 101.1372 
L 224.703151 101.06496 
L 233.868646 102.09696 
L 242.234671 102.05568 
L 252.111745 101.4984 
L 261.209021 100.60056 
L 270.329672 100.80696 
L 279.36 101.45712 
" clip-path="url(#pcd320d80cc)" style="fill: none; stroke: #bebebe; stroke-width: 0.5; stroke-linecap: round"/>
   </g>
   <g id="line2d_6">
    <path d="M 8.64 74.96568 
L 17.777996 77.75208 
L 26.915992 79.48584 
L 36.053987 83.31456 
L 45.191983 85.90488 
L 54.329979 84.79032 
L 62.044499 85.84296 
L 69.30635 88.25784 
L 78.439692 91.41576 
L 87.538556 88.7532 
L 96.885435 88.65 
L 105.948021 88.55712 
L 115.138159 88.96992 
L 124.257223 89.7336 
L 133.362326 90.456 
L 142.497572 90.56952 
L 151.525679 89.15568 
L 160.181497 88.9596 
L 169.905636 90.6624 
L 177.895777 89.94 
L 188.167138 90.00192 
L 197.294029 90.3528 
L 206.378614 90.62112 
L 215.460766 90.5076 
L 224.703151 90.3528 
L 233.868646 92.004 
L 242.234671 92.13816 
L 252.111745 91.25064 
L 261.209021 89.166 
L 270.329672 89.56848 
L 279.36 90.93072 
" clip-path="url(#pcd320d80cc)" style="fill: none; stroke: #4a8dff; stroke-width: 0.6"/>
   </g>
   <g id="line2d_7">
    <path d="M 8.64 84.32592 
L 17.777996 89.08344 
L 26.915992 89.5272 
L 36.053987 95.14128 
L 45.191983 96.98856 
L 54.329979 95.08968 
L 62.044499 97.71096 
L 69.30635 99.80592 
L 78.439692 101.79768 
L 87.538556 100.03296 
L 96.885435 100.518 
L 105.948021 99.98136 
L 115.138159 100.49736 
L 124.257223 100.78632 
L 133.362326 101.07528 
L 142.497572 101.26104 
L 151.525679 100.63152 
L 160.181497 100.38384 
L 169.905636 100.84824 
L 177.895777 100.65216 
L 188.167138 101.034 
L 197.294029 101.19912 
L 206.378614 101.10624 
L 215.460766 100.97208 
L 224.703151 100.91016 
L 233.868646 101.7564 
L 242.234671 101.84928 
L 252.111745 101.56032 
L 261.209021 100.85856 
L 270.329672 101.12688 
L 279.36 101.4468 
" clip-path="url(#pcd320d80cc)" style="fill: none; stroke: #f5841e; stroke-width: 0.6"/>
   </g>
  </g>
 </g>
 <defs>
  <clipPath id="pcd320d80cc">
   <rect x="8.64" y="4.8" width="270.72" height="103.2"/>
  </clipPath>
 </defs>
</svg>
