<?xml version="1.0" encoding="utf-8" standalone="no"?>
<!DOCTYPE svg PUBLIC "-//W3C//DTD SVG 1.1//EN"
  "http://www.w3.org/Graphics/SVG/1.1/DTD/svg11.dtd">
<svg xmlns:xlink="http://www.w3.org/1999/xlink" width="288pt" height="120pt" viewBox="0 0 288 120" xmlns="http://www.w3.org/2000/svg" version="1.1">
<desc id="nav-meta">{"window":"6m","count":4,"labels":["04.11","03.01","04.03","03.05"],"tick_utc":["2025-11-04T12:00:00Z","2026-01-03T12:00:00Z","2026-03-04T03:14:13Z","2026-05-03T04:31:45Z"],"w":720,"h":300}</desc>

 <metadata>
  <rdf:RDF xmlns:dc="http://purl.org/dc/elements/1.1/" xmlns:cc="http://creativecommons.org/ns#" xmlns:rdf="http://www.w3.org/1999/02/22-rdf-syntax-ns#">
   <cc:Work>
    <dc:type rdf:resource="http://purl.org/dc/dcmitype/StillImage"/>
    <dc:date>2026-05-03T08:24:06.331034</dc:date>
    <dc:format>image/svg+xml</dc:format>
    <dc:creator>
     <cc:Agent>
      <dc:title>Matplotlib v3.10.9, https://matplotlib.org/</dc:title>
     </cc:Agent>
    </dc:creator>
   </cc:Work>
  </rdf:RDF>
 </metadata>
 <defs>
  <style type="text/css">*{stroke-linejoin: round; stroke-linecap: butt}</style>
 </defs>
 <g id="figure_1">
  <g id="patch_1">
   <path d="M 0 120 
L 288 120 
L 288 0 
L 0 0 
L 0 120 
z
" style="fill: none; opacity: 0"/>
  </g>
  <g id="axes_1">
   <g id="patch_2">
    <path d="M 8.64 108 
L 279.36 108 
L 279.36 4.8 
L 8.64 4.8 
L 8.64 108 
z
" style="fill: none"/>
   </g>
   <g id="matplotlib.axis_1"/>
   <g id="matplotlib.axis_2"/>
   <g id="line2d_1">
    <path d="M 8.64 87.36 
L 279.36 87.36 
" clip-path="url(#p2241a2f266)" style="fill: none; stroke: #b2b2b2; stroke-opacity: 0.35; stroke-width: 0.5; stroke-linecap: square"/>
   </g>
   <g id="line2d_2">
    <path d="M 8.64 66.72 
L 279.36 66.72 
" clip-path="url(#p2241a2f266)" style="fill: none; stroke: #b2b2b2; stroke-opacity: 0.35; stroke-width: 0.5; stroke-linecap: square"/>
   </g>
   <g id="line2d_3">
    <path d="M 8.64 46.08 
L 279.36 46.08 
" clip-path="url(#p2241a2f266)" style="fill: none; stroke: #b2b2b2; stroke-opacity: 0.35; stroke-width: 0.5; stroke-linecap: square"/>
   </g>
   <g id="line2d_4">
    <path d="M 8.64 25.44 
L 279.36 25.44 
" clip-path="url(#p2241a2f266)" style="fill: none; stroke: #b2b2b2; stroke-opacity: 0.35; stroke-width: 0.5; stroke-linecap: square"/>
   </g>
   <g id="line2d_5">
    <path d="M 8.64 81.168 
L 10.146605 84.01632 
L 11.653211 82.06584 
L 13.159816 84.19176 
L 14.666422 82.27224 
L 16.173027 83.29392 
L 17.679633 81.62208 
L 19.186238 80.72424 
L 20.692844 84.33624 
L 22.199449 84.64584 
L 23.706055 86.844 
L 25.21266 88.52616 
L 26.719266 88.36104 
L 28.225871 88.93896 
L 29.732476 90.79656 
L 31.239082 88.09272 
L 32.745687 89.22792 
L 34.252293 90.00192 
L 35.758898 91.39512 
L 37.265504 91.63248 
L 38.772109 90.75528 
L 40.278715 88.7016 
L 41.78532 88.52616 
L 43.291926 87.45288 
L 44.798531 88.0308 
L 46.305137 88.94928 
L 49.318347 89.7336 
L 50.824953 91.86984 
L 52.331558 88.60872 
L 53.838164 86.87496 
L 56.851375 90.11544 
L 58.35798 90.38376 
L 59.864586 90.53856 
L 61.371191 90.08448 
L 62.877797 88.79448 
L 64.384402 89.20728 
L 65.891008 89.22792 
L 67.397613 90.31152 
L 68.904219 90.10512 
L 70.410824 91.09584 
L 71.917429 91.61184 
L 73.424035 91.31256 
L 74.93064 92.87088 
L 76.437246 93.8616 
L 77.943851 92.02464 
L 79.450457 92.13816 
L 80.957062 92.07624 
L 82.463668 92.14848 
L 83.970273 92.64384 
L 85.476879 93.01536 
L 86.983484 93.69648 
L 89.996695 92.44776 
L 91.5033 92.30328 
L 93.009906 92.87088 
L 94.516511 92.38584 
L 96.023117 92.47872 
L 97.529722 91.88016 
L 99.036328 90.42504 
L 100.542933 90.08448 
L 102.049539 89.92968 
L 103.556144 88.76352 
L 105.06275 87.94824 
L 106.569355 89.2692 
L 108.075961 88.72224 
L 109.582566 89.39304 
L 111.089171 89.40336 
L 112.595777 88.41264 
L 114.102382 88.4952 
L 115.608988 86.86464 
L 117.115593 86.42088 
L 118.622199 87.62832 
L 120.128804 86.93688 
L 121.63541 87.23616 
L 124.648621 90.0432 
L 126.155226 92.12784 
L 127.661832 91.16808 
L 130.675042 91.73568 
L 132.181648 91.78728 
L 133.688253 94.0164 
L 135.194859 92.5716 
L 136.701464 91.76664 
L 138.20807 92.33424 
L 139.714675 94.36728 
L 141.221281 94.46016 
L 142.727886 97.71096 
L 144.234492 98.48496 
L 145.741097 97.85544 
L 148.210291 100.16712 
L 149.716129 102.23112 
L 151.216283 100.54896 
L 152.757327 100.70376 
L 154.2515 100.68312 
L 157.270186 101.28168 
L 158.771369 101.71512 
L 160.277521 101.84928 
L 161.766008 101.034 
L 163.193116 100.54896 
L 164.79636 101.04432 
L 166.113716 100.81728 
L 167.807182 101.034 
L 169.311957 101.4984 
L 173.830971 101.06496 
L 175.34211 102.09696 
L 176.721439 102.05568 
L 178.349898 101.4984 
L 179.84979 100.60056 
L 181.353536 100.80696 
L 182.84239 101.45712 
L 184.383225 100.55928 
L 185.874277 101.10624 
L 188.882553 100.74504 
L 190.392402 100.21872 
L 191.898292 100.53864 
L 193.393336 101.07528 
L 194.914572 101.38488 
L 196.425694 101.26104 
L 197.922621 100.78632 
L 200.941168 100.99272 
L 202.444862 100.38384 
L 205.484892 100.60056 
L 206.995752 99.76464 
L 208.475992 99.49632 
L 209.994088 99.40344 
L 211.501112 100.09488 
L 212.993053 100.3632 
L 214.490835 100.19808 
L 217.530115 100.79664 
L 219.02277 100.26 
L 220.641587 99.83688 
L 222.054308 100.13616 
L 225.055016 101.38488 
L 231.109687 101.28168 
L 232.596449 101.8596 
L 234.10478 101.88024 
L 235.598482 101.72544 
L 237.127774 101.68416 
L 238.638268 101.47776 
L 240.135091 101.78736 
L 241.644138 101.09592 
L 243.145494 101.46744 
L 244.665963 101.3436 
L 246.149533 101.05464 
L 247.683167 101.3952 
L 249.197497 101.47776 
L 250.694512 100.86888 
L 252.199966 101.26104 
L 253.713094 100.99272 
L 255.21663 100.61088 
L 256.706617 100.44576 
L 258.233119 100.94112 
L 259.743456 101.09592 
L 261.243453 101.00304 
L 262.745385 100.69344 
L 264.258094 100.9308 
L 268.787361 100.8792 
L 270.310201 100.64184 
L 271.819963 101.1888 
L 273.322453 101.09592 
L 274.831587 101.37456 
L 276.354653 101.21976 
L 279.36 101.23008 
L 279.36 101.23008 
" clip-path="url(#p2241a2f266)" style="fill: none; stroke: #bebebe; stroke-width: 0.5; stroke-linecap: round"/>
   </g>
   <g id="line2d_6">
    <path d="M 8.64 66.1524 
L 10.146605 70.66224 
L 11.653211 68.72208 
L 13.159816 70.4868 
L 14.666422 68.61888 
L 16.173027 69.11424 
L 17.679633 66.5136 
L 19.186238 66.68904 
L 20.692844 68.8872 
L 22.199449 68.9904 
L 23.706055 71.5704 
L 25.21266 73.48992 
L 26.719266 72.54048 
L 28.225871 73.56216 
L 29.732476 74.74896 
L 31.239082 73.3248 
L 32.745687 74.80056 
L 34.252293 77.556 
L 35.758898 78.55704 
L 37.265504 78.50544 
L 38.772109 78.04104 
L 40.278715 75.76032 
L 41.78532 75.73968 
L 43.291926 74.65608 
L 44.798531 74.83152 
L 46.305137 74.57352 
L 47.811742 75.20304 
L 49.318347 75.17208 
L 50.824953 78.05136 
L 53.838164 72.16896 
L 55.344769 73.08744 
L 56.851375 74.72832 
L 59.864586 74.28456 
L 61.371191 73.21128 
L 62.877797 70.2804 
L 64.384402 70.2288 
L 65.891008 71.56008 
L 67.397613 73.79952 
L 68.904219 73.35576 
L 70.410824 74.0988 
L 71.917429 75.5952 
L 73.424035 75.5952 
L 74.93064 77.61792 
L 76.437246 77.63856 
L 77.943851 75.40944 
L 79.450457 75.40944 
L 80.957062 75.04824 
L 82.463668 74.98632 
L 83.970273 75.58488 
L 85.476879 75.87384 
L 86.983484 76.49304 
L 89.996695 75.82224 
L 91.5033 75.84288 
L 93.009906 76.03896 
L 94.516511 75.51264 
L 96.023117 75.56424 
L 97.529722 75.05856 
L 99.036328 73.26288 
L 100.542933 73.20096 
L 102.049539 73.00488 
L 103.556144 71.68392 
L 105.06275 70.6932 
L 106.569355 72.62304 
L 108.075961 73.52088 
L 109.582566 73.83048 
L 111.089171 73.8408 
L 112.595777 73.29384 
L 114.102382 73.72728 
L 115.608988 70.32168 
L 117.115593 69.77472 
L 118.622199 70.34232 
L 120.128804 70.67256 
L 121.63541 70.51776 
L 123.142015 70.848 
L 124.648621 72.31344 
L 126.155226 76.01832 
L 127.661832 75.41976 
L 129.168437 75.83256 
L 132.181648 75.82224 
L 133.688253 77.82432 
L 135.194859 76.14216 
L 136.701464 74.75928 
L 138.20807 74.96568 
L 139.714675 77.75208 
L 141.221281 79.48584 
L 142.727886 83.31456 
L 144.234492 85.90488 
L 145.741097 84.79032 
L 147.01301 85.84296 
L 149.716129 91.41576 
L 151.216283 88.7532 
L 154.2515 88.55712 
L 155.766702 88.96992 
L 158.771369 90.456 
L 160.277521 90.56952 
L 161.766008 89.15568 
L 163.193116 88.9596 
L 164.79636 90.6624 
L 166.113716 89.94 
L 167.807182 90.00192 
L 170.809756 90.62112 
L 173.830971 90.3528 
L 175.34211 92.004 
L 176.721439 92.13816 
L 178.349898 91.25064 
L 179.84979 89.166 
L 181.353536 89.56848 
L 182.84239 90.93072 
L 184.383225 89.41368 
L 185.874277 90.37344 
L 187.384387 89.79552 
L 188.882553 90.23928 
L 190.392402 88.0824 
L 191.898292 88.7532 
L 193.393336 90.16704 
L 194.914572 90.67272 
L 196.425694 90.18768 
L 197.922621 89.2692 
L 199.428634 89.54784 
L 200.941168 89.49624 
L 202.444862 88.31976 
L 203.949462 88.45392 
L 205.484892 88.46424 
L 206.995752 86.38992 
L 208.475992 84.80064 
L 209.994088 84.8316 
L 211.501112 86.586 
L 212.993053 87.74184 
L 214.490835 87.618 
L 216.01997 88.19592 
L 217.530115 89.08344 
L 219.02277 87.89664 
L 220.641587 87.3084 
L 222.054308 87.65928 
L 223.562814 88.96992 
L 225.055016 90.07416 
L 228.093058 89.3724 
L 229.59016 89.00088 
L 231.109687 88.42296 
L 234.10478 89.10408 
L 235.598482 89.14536 
L 237.127774 89.07312 
L 238.638268 87.9792 
L 240.135091 88.29912 
L 241.644138 86.38992 
L 243.145494 87.24648 
L 244.665963 87.1536 
L 246.149533 86.21448 
L 249.197497 87.01944 
L 250.694512 84.44976 
L 252.199966 85.05864 
L 253.713094 84.58392 
L 255.21663 85.04832 
L 256.706617 83.71704 
L 258.233119 84.86256 
L 259.743456 85.6572 
L 261.243453 85.27536 
L 262.745385 84.49104 
L 265.768692 85.32696 
L 267.25732 85.17216 
L 268.787361 85.31664 
L 270.310201 84.11952 
L 271.819963 85.66752 
L 273.322453 85.26504 
L 274.831587 86.26608 
L 277.822809 85.38888 
L 279.36 85.3992 
L 279.36 85.3992 
" clip-path="url(#p2241a2f266)" style="fill: none; stroke: #4a8dff; stroke-width: 0.6"/>
   </g>
   <g id="line2d_7">
    <path d="M 8.64 66.33816 
L 10.146605 71.40528 
L 11.653211 69.08328 
L 13.159816 71.7252 
L 14.666422 69.57864 
L 16.173027 70.72416 
L 17.679633 68.2164 
L 19.186238 66.978 
L 20.692844 70.03272 
L 22.199449 71.5188 
L 23.706055 73.3764 
L 25.21266 78.846 
L 26.719266 77.75208 
L 28.225871 78.88728 
L 29.732476 81.34344 
L 31.239082 80.53848 
L 32.745687 82.0452 
L 34.252293 86.92656 
L 35.758898 88.58808 
L 37.265504 88.96992 
L 38.772109 86.7924 
L 40.278715 85.296 
L 41.78532 86.24544 
L 43.291926 82.96368 
L 44.798531 82.13808 
L 46.305137 82.47864 
L 47.811742 82.58184 
L 49.318347 83.03592 
L 50.824953 87.3084 
L 52.331558 82.06584 
L 53.838164 79.71288 
L 55.344769 81.24024 
L 56.851375 84.17112 
L 58.35798 84.24336 
L 59.864586 83.29392 
L 61.371191 82.8192 
L 62.877797 80.64168 
L 64.384402 81.38472 
L 65.891008 80.87904 
L 67.397613 83.13912 
L 68.904219 83.19072 
L 70.410824 85.296 
L 71.917429 87.17424 
L 73.424035 85.71912 
L 74.93064 87.53544 
L 76.437246 88.17528 
L 77.943851 85.41984 
L 80.957062 84.9348 
L 82.463668 85.01736 
L 83.970273 86.14224 
L 85.476879 85.90488 
L 86.983484 86.328 
L 88.49009 86.24544 
L 89.996695 85.72944 
L 91.5033 85.7088 
L 93.009906 86.40024 
L 94.516511 85.09992 
L 96.023117 86.02872 
L 99.036328 83.53128 
L 102.049539 82.03488 
L 103.556144 79.39296 
L 105.06275 79.66128 
L 106.569355 82.15872 
L 108.075961 82.43736 
L 109.582566 82.93272 
L 111.089171 83.00496 
L 114.102382 82.28256 
L 115.608988 78.01008 
L 117.115593 76.19376 
L 118.622199 77.66952 
L 120.128804 77.74176 
L 121.63541 78.1752 
L 123.142015 79.5684 
L 124.648621 80.8068 
L 126.155226 85.20312 
L 127.661832 84.12984 
L 129.168437 84.03696 
L 130.675042 84.06792 
L 132.181648 84.3156 
L 133.688253 87.02976 
L 135.194859 85.21344 
L 136.701464 84.28464 
L 138.20807 84.32592 
L 139.714675 89.08344 
L 141.221281 89.5272 
L 142.727886 95.14128 
L 144.234492 96.98856 
L 145.741097 95.08968 
L 147.01301 97.71096 
L 148.210291 99.80592 
L 149.716129 101.79768 
L 151.216283 100.03296 
L 152.757327 100.518 
L 154.2515 99.98136 
L 155.766702 100.49736 
L 160.277521 101.26104 
L 161.766008 100.63152 
L 163.193116 100.38384 
L 164.79636 100.84824 
L 166.113716 100.65216 
L 167.807182 101.034 
L 169.311957 101.19912 
L 173.830971 100.91016 
L 175.34211 101.7564 
L 176.721439 101.84928 
L 178.349898 101.56032 
L 179.84979 100.85856 
L 182.84239 101.4468 
L 184.383225 101.02368 
L 185.874277 101.30232 
L 187.384387 100.81728 
L 188.882553 100.79664 
L 190.392402 99.3312 
L 191.898292 99.92976 
L 193.393336 100.78632 
L 194.914572 101.17848 
L 196.425694 101.1372 
L 197.922621 100.21872 
L 200.941168 100.4664 
L 202.444862 99.88848 
L 203.949462 99.94008 
L 205.484892 99.81624 
L 206.995752 98.93904 
L 208.475992 98.3508 
L 209.994088 98.52624 
L 211.501112 99.78528 
L 212.993053 100.12584 
L 214.490835 100.03296 
L 217.530115 100.83792 
L 219.02277 100.11552 
L 220.641587 99.87816 
L 222.054308 100.002 
L 223.562814 100.64184 
L 225.055016 101.41584 
L 226.582146 101.21976 
L 229.59016 101.00304 
L 231.109687 100.86888 
L 232.596449 101.21976 
L 234.10478 101.28168 
L 237.127774 101.14752 
L 238.638268 100.55928 
L 240.135091 100.65216 
L 241.644138 99.80592 
L 243.145494 99.96072 
L 244.665963 99.6408 
L 246.149533 99.1764 
L 247.683167 99.70272 
L 249.197497 99.94008 
L 250.694512 98.57784 
L 252.199966 98.65008 
L 253.713094 98.38176 
L 255.21663 98.48496 
L 256.706617 96.70992 
L 258.233119 98.05152 
L 259.743456 98.48496 
L 261.243453 97.96896 
L 262.745385 96.32808 
L 265.768692 96.16296 
L 267.25732 96.1836 
L 268.787361 96.50352 
L 270.310201 94.76976 
L 271.819963 97.19496 
L 273.322453 96.9576 
L 274.831587 97.9896 
L 276.354653 96.89568 
L 277.822809 95.45088 
L 279.36 95.67792 
L 279.36 95.67792 
" clip-path="url(#p2241a2f266)" style="fill: none; stroke: #f5841e; stroke-width: 0.6"/>
   </g>
  </g>
 </g>
 <defs>
  <clipPath id="p2241a2f266">
   <rect x="8.64" y="4.8" width="270.72" height="103.2"/>
  </clipPath>
 </defs>
</svg>
