<?xml version="1.0" encoding="utf-8" standalone="no"?>
<!DOCTYPE svg PUBLIC "-//W3C//DTD SVG 1.1//EN"
  "http://www.w3.org/Graphics/SVG/1.1/DTD/svg11.dtd">
<svg xmlns:xlink="http://www.w3.org/1999/xlink" width="288pt" height="120pt" viewBox="0 0 288 120" xmlns="http://www.w3.org/2000/svg" version="1.1">
<desc id="nav-meta">{"window":"1m","count":4,"labels":["23.03","02.04","11.04","21.04"],"tick_utc":["2026-03-23T03:35:18Z","2026-04-02T03:35:34Z","2026-04-11T03:29:29Z","2026-04-21T03:56:07Z"],"w":720,"h":300}</desc>

 <metadata>
  <rdf:RDF xmlns:dc="http://purl.org/dc/elements/1.1/" xmlns:cc="http://creativecommons.org/ns#" xmlns:rdf="http://www.w3.org/1999/02/22-rdf-syntax-ns#">
   <cc:Work>
    <dc:type rdf:resource="http://purl.org/dc/dcmitype/StillImage"/>
    <dc:date>2026-04-21T14:19:07.787118</dc:date>
    <dc:format>image/svg+xml</dc:format>
    <dc:creator>
     <cc:Agent>
      <dc:title>Matplotlib v3.10.8, https://matplotlib.org/</dc:title>
     </cc:Agent>
    </dc:creator>
   </cc:Work>
  </rdf:RDF>
 </metadata>
 <defs>
  <style type="text/css">*{stroke-linejoin: round; stroke-linecap: butt}</style>
 </defs>
 <g id="figure_1">
  <g id="patch_1">
   <path d="M 0 120 
L 288 120 
L 288 0 
L 0 0 
L 0 120 
z
" style="fill: none; opacity: 0"/>
  </g>
  <g id="axes_1">
   <g id="patch_2">
    <path d="M 8.64 108 
L 279.36 108 
L 279.36 4.8 
L 8.64 4.8 
L 8.64 108 
z
" style="fill: none"/>
   </g>
   <g id="matplotlib.axis_1"/>
   <g id="matplotlib.axis_2"/>
   <g id="line2d_1">
    <path d="M 8.64 87.36 
L 279.36 87.36 
" clip-path="url(#p28200ab026)" style="fill: none; stroke: #b2b2b2; stroke-opacity: 0.35; stroke-width: 0.5; stroke-linecap: square"/>
   </g>
   <g id="line2d_2">
    <path d="M 8.64 66.72 
L 279.36 66.72 
" clip-path="url(#p28200ab026)" style="fill: none; stroke: #b2b2b2; stroke-opacity: 0.35; stroke-width: 0.5; stroke-linecap: square"/>
   </g>
   <g id="line2d_3">
    <path d="M 8.64 46.08 
L 279.36 46.08 
" clip-path="url(#p28200ab026)" style="fill: none; stroke: #b2b2b2; stroke-opacity: 0.35; stroke-width: 0.5; stroke-linecap: square"/>
   </g>
   <g id="line2d_4">
    <path d="M 8.64 25.44 
L 279.36 25.44 
" clip-path="url(#p28200ab026)" style="fill: none; stroke: #b2b2b2; stroke-opacity: 0.35; stroke-width: 0.5; stroke-linecap: square"/>
   </g>
   <g id="line2d_5">
    <path d="M 8.64 100.79664 
L 17.884128 100.26 
L 27.909578 99.83688 
L 36.65867 100.13616 
L 46.000962 100.80696 
L 55.242282 101.38488 
L 64.69991 101.3436 
L 74.057106 101.292 
L 83.328771 101.28168 
L 92.739315 101.28168 
L 101.946941 101.8596 
L 111.288153 101.88024 
L 120.538761 101.72544 
L 130.00978 101.68416 
L 139.364383 101.47776 
L 148.634321 101.78736 
L 157.979961 101.09592 
L 167.277977 101.46744 
L 176.694352 101.3436 
L 185.882216 101.05464 
L 195.380125 101.3952 
L 204.758486 101.47776 
L 214.029612 100.86888 
L 223.353006 101.26104 
L 232.723916 100.99272 
L 242.035431 100.61088 
L 251.263036 100.44576 
L 260.716776 100.94112 
L 270.070408 101.09592 
L 279.36 101.00304 
" clip-path="url(#p28200ab026)" style="fill: none; stroke: #bebebe; stroke-width: 0.5; stroke-linecap: round"/>
   </g>
   <g id="line2d_6">
    <path d="M 8.64 89.08344 
L 17.884128 87.89664 
L 27.909578 87.3084 
L 36.65867 87.65928 
L 46.000962 88.96992 
L 55.242282 90.07416 
L 64.69991 89.76456 
L 74.057106 89.3724 
L 83.328771 89.00088 
L 92.739315 88.42296 
L 101.946941 88.81512 
L 111.288153 89.10408 
L 120.538761 89.14536 
L 130.00978 89.07312 
L 139.364383 87.9792 
L 148.634321 88.29912 
L 157.979961 86.38992 
L 167.277977 87.24648 
L 176.694352 87.1536 
L 185.882216 86.21448 
L 195.380125 86.66856 
L 204.758486 87.01944 
L 214.029612 84.44976 
L 223.353006 85.05864 
L 232.723916 84.58392 
L 242.035431 85.04832 
L 251.263036 83.71704 
L 260.716776 84.86256 
L 270.070408 85.6572 
L 279.36 85.27536 
" clip-path="url(#p28200ab026)" style="fill: none; stroke: #4a8dff; stroke-width: 0.6"/>
   </g>
   <g id="line2d_7">
    <path d="M 8.64 100.83792 
L 17.884128 100.11552 
L 27.909578 99.87816 
L 36.65867 100.002 
L 46.000962 100.64184 
L 55.242282 101.41584 
L 64.69991 101.21976 
L 74.057106 101.14752 
L 83.328771 101.00304 
L 92.739315 100.86888 
L 101.946941 101.21976 
L 111.288153 101.28168 
L 120.538761 101.20944 
L 130.00978 101.14752 
L 139.364383 100.55928 
L 148.634321 100.65216 
L 157.979961 99.80592 
L 167.277977 99.96072 
L 176.694352 99.6408 
L 185.882216 99.1764 
L 195.380125 99.70272 
L 204.758486 99.94008 
L 214.029612 98.57784 
L 223.353006 98.65008 
L 232.723916 98.38176 
L 242.035431 98.48496 
L 251.263036 96.70992 
L 260.716776 98.05152 
L 270.070408 98.48496 
L 279.36 97.96896 
" clip-path="url(#p28200ab026)" style="fill: none; stroke: #f5841e; stroke-width: 0.6"/>
   </g>
  </g>
 </g>
 <defs>
  <clipPath id="p28200ab026">
   <rect x="8.64" y="4.8" width="270.72" height="103.2"/>
  </clipPath>
 </defs>
</svg>
