<?xml version="1.0" encoding="utf-8" standalone="no"?>
<!DOCTYPE svg PUBLIC "-//W3C//DTD SVG 1.1//EN"
  "http://www.w3.org/Graphics/SVG/1.1/DTD/svg11.dtd">
<svg xmlns:xlink="http://www.w3.org/1999/xlink" width="288pt" height="120pt" viewBox="0 0 288 120" xmlns="http://www.w3.org/2000/svg" version="1.1">
<desc id="nav-meta">{"window":"1m","count":4,"labels":["19.03","29.03","07.04","17.04"],"tick_utc":["2026-03-19T03:32:50Z","2026-03-29T03:47:09Z","2026-04-07T03:40:56Z","2026-04-17T03:55:44Z"],"w":720,"h":300}</desc>

 <metadata>
  <rdf:RDF xmlns:dc="http://purl.org/dc/elements/1.1/" xmlns:cc="http://creativecommons.org/ns#" xmlns:rdf="http://www.w3.org/1999/02/22-rdf-syntax-ns#">
   <cc:Work>
    <dc:type rdf:resource="http://purl.org/dc/dcmitype/StillImage"/>
    <dc:date>2026-04-17T08:15:38.429672</dc:date>
    <dc:format>image/svg+xml</dc:format>
    <dc:creator>
     <cc:Agent>
      <dc:title>Matplotlib v3.10.8, https://matplotlib.org/</dc:title>
     </cc:Agent>
    </dc:creator>
   </cc:Work>
  </rdf:RDF>
 </metadata>
 <defs>
  <style type="text/css">*{stroke-linejoin: round; stroke-linecap: butt}</style>
 </defs>
 <g id="figure_1">
  <g id="patch_1">
   <path d="M 0 120 
L 288 120 
L 288 0 
L 0 0 
L 0 120 
z
" style="fill: none; opacity: 0"/>
  </g>
  <g id="axes_1">
   <g id="patch_2">
    <path d="M 8.64 108 
L 279.36 108 
L 279.36 4.8 
L 8.64 4.8 
L 8.64 108 
z
" style="fill: none"/>
   </g>
   <g id="matplotlib.axis_1"/>
   <g id="matplotlib.axis_2"/>
   <g id="line2d_1">
    <path d="M 8.64 87.36 
L 279.36 87.36 
" clip-path="url(#p753c287223)" style="fill: none; stroke: #b2b2b2; stroke-opacity: 0.35; stroke-width: 0.5; stroke-linecap: square"/>
   </g>
   <g id="line2d_2">
    <path d="M 8.64 66.72 
L 279.36 66.72 
" clip-path="url(#p753c287223)" style="fill: none; stroke: #b2b2b2; stroke-opacity: 0.35; stroke-width: 0.5; stroke-linecap: square"/>
   </g>
   <g id="line2d_3">
    <path d="M 8.64 46.08 
L 279.36 46.08 
" clip-path="url(#p753c287223)" style="fill: none; stroke: #b2b2b2; stroke-opacity: 0.35; stroke-width: 0.5; stroke-linecap: square"/>
   </g>
   <g id="line2d_4">
    <path d="M 8.64 25.44 
L 279.36 25.44 
" clip-path="url(#p753c287223)" style="fill: none; stroke: #b2b2b2; stroke-opacity: 0.35; stroke-width: 0.5; stroke-linecap: square"/>
   </g>
   <g id="line2d_5">
    <path d="M 8.64 100.09488 
L 17.879239 100.3632 
L 27.154654 100.19808 
L 36.624229 100.47672 
L 45.976206 100.79664 
L 55.219873 100.26 
L 65.244824 99.83688 
L 73.993479 100.13616 
L 83.335306 100.80696 
L 92.576165 101.38488 
L 102.033321 101.3436 
L 111.39005 101.292 
L 120.661253 101.28168 
L 130.071328 101.28168 
L 139.278495 101.8596 
L 148.619242 101.88024 
L 157.869388 101.72544 
L 167.339934 101.68416 
L 176.694071 101.47776 
L 185.963547 101.78736 
L 195.308721 101.09592 
L 204.606273 101.46744 
L 214.022179 101.3436 
L 223.209584 101.05464 
L 232.70702 101.3952 
L 242.084914 101.47776 
L 251.355578 100.86888 
L 260.678506 101.26104 
L 270.04895 100.99272 
L 279.36 100.61088 
" clip-path="url(#p753c287223)" style="fill: none; stroke: #bebebe; stroke-width: 0.5; stroke-linecap: round"/>
   </g>
   <g id="line2d_6">
    <path d="M 8.64 86.586 
L 17.879239 87.74184 
L 27.154654 87.618 
L 36.624229 88.19592 
L 45.976206 89.08344 
L 55.219873 87.89664 
L 65.244824 87.3084 
L 73.993479 87.65928 
L 83.335306 88.96992 
L 92.576165 90.07416 
L 102.033321 89.76456 
L 111.39005 89.3724 
L 120.661253 89.00088 
L 130.071328 88.42296 
L 139.278495 88.81512 
L 148.619242 89.10408 
L 157.869388 89.14536 
L 167.339934 89.07312 
L 176.694071 87.9792 
L 185.963547 88.29912 
L 195.308721 86.38992 
L 204.606273 87.24648 
L 214.022179 87.1536 
L 223.209584 86.21448 
L 232.70702 86.66856 
L 242.084914 87.01944 
L 251.355578 84.44976 
L 260.678506 85.05864 
L 270.04895 84.58392 
L 279.36 85.04832 
" clip-path="url(#p753c287223)" style="fill: none; stroke: #4a8dff; stroke-width: 0.6"/>
   </g>
   <g id="line2d_7">
    <path d="M 8.64 99.78528 
L 17.879239 100.12584 
L 27.154654 100.03296 
L 36.624229 100.45608 
L 45.976206 100.83792 
L 55.219873 100.11552 
L 65.244824 99.87816 
L 73.993479 100.002 
L 83.335306 100.64184 
L 92.576165 101.41584 
L 102.033321 101.21976 
L 111.39005 101.14752 
L 120.661253 101.00304 
L 130.071328 100.86888 
L 139.278495 101.21976 
L 148.619242 101.28168 
L 157.869388 101.20944 
L 167.339934 101.14752 
L 176.694071 100.55928 
L 185.963547 100.65216 
L 195.308721 99.80592 
L 204.606273 99.96072 
L 214.022179 99.6408 
L 223.209584 99.1764 
L 232.70702 99.70272 
L 242.084914 99.94008 
L 251.355578 98.57784 
L 260.678506 98.65008 
L 270.04895 98.38176 
L 279.36 98.48496 
" clip-path="url(#p753c287223)" style="fill: none; stroke: #f5841e; stroke-width: 0.6"/>
   </g>
  </g>
 </g>
 <defs>
  <clipPath id="p753c287223">
   <rect x="8.64" y="4.8" width="270.72" height="103.2"/>
  </clipPath>
 </defs>
</svg>
