<?xml version="1.0" encoding="utf-8" standalone="no"?>
<!DOCTYPE svg PUBLIC "-//W3C//DTD SVG 1.1//EN"
  "http://www.w3.org/Graphics/SVG/1.1/DTD/svg11.dtd">
<svg xmlns:xlink="http://www.w3.org/1999/xlink" width="288pt" height="120pt" viewBox="0 0 288 120" xmlns="http://www.w3.org/2000/svg" version="1.1">
<desc id="nav-meta">{"window":"1m","count":4,"labels":["07.03","17.03","26.03","05.04"],"tick_utc":["2026-03-07T03:05:35Z","2026-03-17T03:21:27Z","2026-03-26T03:39:29Z","2026-04-05T03:46:34Z"],"w":720,"h":300}</desc>

 <metadata>
  <rdf:RDF xmlns:dc="http://purl.org/dc/elements/1.1/" xmlns:cc="http://creativecommons.org/ns#" xmlns:rdf="http://www.w3.org/1999/02/22-rdf-syntax-ns#">
   <cc:Work>
    <dc:type rdf:resource="http://purl.org/dc/dcmitype/StillImage"/>
    <dc:date>2026-04-05T03:46:35.964932</dc:date>
    <dc:format>image/svg+xml</dc:format>
    <dc:creator>
     <cc:Agent>
      <dc:title>Matplotlib v3.10.8, https://matplotlib.org/</dc:title>
     </cc:Agent>
    </dc:creator>
   </cc:Work>
  </rdf:RDF>
 </metadata>
 <defs>
  <style type="text/css">*{stroke-linejoin: round; stroke-linecap: butt}</style>
 </defs>
 <g id="figure_1">
  <g id="patch_1">
   <path d="M 0 120 
L 288 120 
L 288 0 
L 0 0 
L 0 120 
z
" style="fill: none; opacity: 0"/>
  </g>
  <g id="axes_1">
   <g id="patch_2">
    <path d="M 8.64 108 
L 279.36 108 
L 279.36 4.8 
L 8.64 4.8 
L 8.64 108 
z
" style="fill: none"/>
   </g>
   <g id="matplotlib.axis_1"/>
   <g id="matplotlib.axis_2"/>
   <g id="line2d_1">
    <path d="M 8.64 87.36 
L 279.36 87.36 
" clip-path="url(#p2f146c391d)" style="fill: none; stroke: #b2b2b2; stroke-opacity: 0.35; stroke-width: 0.5; stroke-linecap: square"/>
   </g>
   <g id="line2d_2">
    <path d="M 8.64 66.72 
L 279.36 66.72 
" clip-path="url(#p2f146c391d)" style="fill: none; stroke: #b2b2b2; stroke-opacity: 0.35; stroke-width: 0.5; stroke-linecap: square"/>
   </g>
   <g id="line2d_3">
    <path d="M 8.64 46.08 
L 279.36 46.08 
" clip-path="url(#p2f146c391d)" style="fill: none; stroke: #b2b2b2; stroke-opacity: 0.35; stroke-width: 0.5; stroke-linecap: square"/>
   </g>
   <g id="line2d_4">
    <path d="M 8.64 25.44 
L 279.36 25.44 
" clip-path="url(#p2f146c391d)" style="fill: none; stroke: #b2b2b2; stroke-opacity: 0.35; stroke-width: 0.5; stroke-linecap: square"/>
   </g>
   <g id="line2d_5">
    <path d="M 8.64 101.07528 
L 18.056582 101.38488 
L 27.410558 101.26104 
L 36.676671 100.78632 
L 45.999021 100.91016 
L 55.36174 100.99272 
L 64.669734 100.38384 
L 73.983341 100.50768 
L 83.487786 100.60056 
L 92.840143 99.76464 
L 102.002957 99.49632 
L 111.40011 99.40344 
L 120.72872 100.09488 
L 129.963962 100.3632 
L 139.235365 100.19808 
L 148.700843 100.47672 
L 158.048775 100.79664 
L 167.288442 100.26 
L 177.309056 99.83688 
L 186.053927 100.13616 
L 195.391712 100.80696 
L 204.628574 101.38488 
L 214.081639 101.3436 
L 223.43432 101.292 
L 232.701513 101.28168 
L 242.107516 101.28168 
L 251.3107 101.8596 
L 260.647406 101.88024 
L 269.89355 101.72544 
L 279.36 101.68416 
" clip-path="url(#p2f146c391d)" style="fill: none; stroke: #bebebe; stroke-width: 0.5; stroke-linecap: round"/>
   </g>
   <g id="line2d_6">
    <path d="M 8.64 90.16704 
L 18.056582 90.67272 
L 27.410558 90.18768 
L 36.676671 89.2692 
L 45.999021 89.54784 
L 55.36174 89.49624 
L 64.669734 88.31976 
L 73.983341 88.45392 
L 83.487786 88.46424 
L 92.840143 86.38992 
L 102.002957 84.80064 
L 111.40011 84.8316 
L 120.72872 86.586 
L 129.963962 87.74184 
L 139.235365 87.618 
L 148.700843 88.19592 
L 158.048775 89.08344 
L 167.288442 87.89664 
L 177.309056 87.3084 
L 186.053927 87.65928 
L 195.391712 88.96992 
L 204.628574 90.07416 
L 214.081639 89.76456 
L 223.43432 89.3724 
L 232.701513 89.00088 
L 242.107516 88.42296 
L 251.3107 88.81512 
L 260.647406 89.10408 
L 269.89355 89.14536 
L 279.36 89.07312 
" clip-path="url(#p2f146c391d)" style="fill: none; stroke: #4a8dff; stroke-width: 0.6"/>
   </g>
   <g id="line2d_7">
    <path d="M 8.64 100.78632 
L 18.056582 101.17848 
L 27.410558 101.1372 
L 36.676671 100.21872 
L 45.999021 100.37352 
L 55.36174 100.4664 
L 64.669734 99.88848 
L 73.983341 99.94008 
L 83.487786 99.81624 
L 92.840143 98.93904 
L 102.002957 98.3508 
L 111.40011 98.52624 
L 120.72872 99.78528 
L 129.963962 100.12584 
L 139.235365 100.03296 
L 148.700843 100.45608 
L 158.048775 100.83792 
L 167.288442 100.11552 
L 177.309056 99.87816 
L 186.053927 100.002 
L 195.391712 100.64184 
L 204.628574 101.41584 
L 214.081639 101.21976 
L 223.43432 101.14752 
L 232.701513 101.00304 
L 242.107516 100.86888 
L 251.3107 101.21976 
L 260.647406 101.28168 
L 269.89355 101.20944 
L 279.36 101.14752 
" clip-path="url(#p2f146c391d)" style="fill: none; stroke: #f5841e; stroke-width: 0.6"/>
   </g>
  </g>
 </g>
 <defs>
  <clipPath id="p2f146c391d">
   <rect x="8.64" y="4.8" width="270.72" height="103.2"/>
  </clipPath>
 </defs>
</svg>
