<?xml version="1.0" encoding="utf-8" standalone="no"?>
<!DOCTYPE svg PUBLIC "-//W3C//DTD SVG 1.1//EN"
  "http://www.w3.org/Graphics/SVG/1.1/DTD/svg11.dtd">
<svg xmlns:xlink="http://www.w3.org/1999/xlink" width="288pt" height="120pt" viewBox="0 0 288 120" xmlns="http://www.w3.org/2000/svg" version="1.1">
<desc id="nav-meta">{"window":"3m","count":4,"labels":["16.12","15.01","13.02","15.03"],"tick_utc":["2025-12-16T12:00:00Z","2026-01-15T12:00:00Z","2026-02-13T03:33:47Z","2026-03-15T03:42:35Z"],"w":720,"h":300}</desc>

 <metadata>
  <rdf:RDF xmlns:dc="http://purl.org/dc/elements/1.1/" xmlns:cc="http://creativecommons.org/ns#" xmlns:rdf="http://www.w3.org/1999/02/22-rdf-syntax-ns#">
   <cc:Work>
    <dc:type rdf:resource="http://purl.org/dc/dcmitype/StillImage"/>
    <dc:date>2026-03-15T13:34:23.750753</dc:date>
    <dc:format>image/svg+xml</dc:format>
    <dc:creator>
     <cc:Agent>
      <dc:title>Matplotlib v3.10.8, https://matplotlib.org/</dc:title>
     </cc:Agent>
    </dc:creator>
   </cc:Work>
  </rdf:RDF>
 </metadata>
 <defs>
  <style type="text/css">*{stroke-linejoin: round; stroke-linecap: butt}</style>
 </defs>
 <g id="figure_1">
  <g id="patch_1">
   <path d="M 0 120 
L 288 120 
L 288 0 
L 0 0 
L 0 120 
z
" style="fill: none; opacity: 0"/>
  </g>
  <g id="axes_1">
   <g id="patch_2">
    <path d="M 8.64 108 
L 279.36 108 
L 279.36 4.8 
L 8.64 4.8 
L 8.64 108 
z
" style="fill: none"/>
   </g>
   <g id="matplotlib.axis_1"/>
   <g id="matplotlib.axis_2"/>
   <g id="line2d_1">
    <path d="M 8.64 87.36 
L 279.36 87.36 
" clip-path="url(#p8980388f13)" style="fill: none; stroke: #b2b2b2; stroke-opacity: 0.35; stroke-width: 0.5; stroke-linecap: square"/>
   </g>
   <g id="line2d_2">
    <path d="M 8.64 66.72 
L 279.36 66.72 
" clip-path="url(#p8980388f13)" style="fill: none; stroke: #b2b2b2; stroke-opacity: 0.35; stroke-width: 0.5; stroke-linecap: square"/>
   </g>
   <g id="line2d_3">
    <path d="M 8.64 46.08 
L 279.36 46.08 
" clip-path="url(#p8980388f13)" style="fill: none; stroke: #b2b2b2; stroke-opacity: 0.35; stroke-width: 0.5; stroke-linecap: square"/>
   </g>
   <g id="line2d_4">
    <path d="M 8.64 25.44 
L 279.36 25.44 
" clip-path="url(#p8980388f13)" style="fill: none; stroke: #b2b2b2; stroke-opacity: 0.35; stroke-width: 0.5; stroke-linecap: square"/>
   </g>
   <g id="line2d_5">
    <path d="M 8.64 91.61184 
L 11.69365 91.31256 
L 14.747299 92.87088 
L 17.800949 93.8616 
L 20.854599 92.02464 
L 23.908248 92.13816 
L 26.961898 92.07624 
L 30.015547 92.14848 
L 33.069197 92.64384 
L 36.122847 93.01536 
L 39.176496 93.69648 
L 42.230146 93.11856 
L 45.283796 92.44776 
L 48.337445 92.30328 
L 51.391095 92.87088 
L 54.444744 92.38584 
L 57.498394 92.47872 
L 60.552044 91.88016 
L 63.605693 90.42504 
L 66.659343 90.08448 
L 69.712993 89.92968 
L 72.766642 88.76352 
L 75.820292 87.94824 
L 78.873941 89.2692 
L 81.927591 88.72224 
L 84.981241 89.39304 
L 88.03489 89.40336 
L 91.08854 88.41264 
L 94.14219 88.4952 
L 97.195839 86.86464 
L 100.249489 86.42088 
L 103.303138 87.62832 
L 106.356788 86.93688 
L 109.410438 87.23616 
L 112.464087 88.63968 
L 115.517737 90.0432 
L 118.571387 92.12784 
L 121.625036 91.16808 
L 124.678686 91.46736 
L 127.732335 91.73568 
L 130.785985 91.78728 
L 133.839635 94.0164 
L 136.893284 92.5716 
L 139.946934 91.76664 
L 143.000584 92.33424 
L 146.054233 94.36728 
L 149.107883 94.46016 
L 152.161532 97.71096 
L 155.215182 98.48496 
L 158.268832 97.85544 
L 160.846798 99.10416 
L 163.273495 100.16712 
L 166.325589 102.23112 
L 169.366162 100.54896 
L 172.489614 100.70376 
L 175.518064 100.68312 
L 178.589138 100.95144 
L 181.636461 101.28168 
L 184.679119 101.71512 
L 187.73185 101.84928 
L 190.748778 101.034 
L 193.641298 100.54896 
L 196.89082 101.04432 
L 199.56089 100.81728 
L 202.993277 101.034 
L 206.043215 101.4984 
L 209.079017 101.33328 
L 212.114005 101.1372 
L 215.202539 101.06496 
L 218.265377 102.09696 
L 221.061057 102.05568 
L 224.361685 101.4984 
L 227.401727 100.60056 
L 230.449581 100.80696 
L 233.467251 101.45712 
L 236.590279 100.55928 
L 239.612403 101.10624 
L 242.673156 100.8792 
L 245.7097 100.74504 
L 248.769923 100.21872 
L 251.822124 100.53864 
L 254.852341 101.07528 
L 257.935644 101.38488 
L 260.998447 101.26104 
L 264.032481 100.78632 
L 267.084929 100.91016 
L 270.150596 100.99272 
L 273.198343 100.38384 
L 276.247928 100.50768 
L 279.36 100.60056 
" clip-path="url(#p8980388f13)" style="fill: none; stroke: #bebebe; stroke-width: 0.5; stroke-linecap: round"/>
   </g>
   <g id="line2d_6">
    <path d="M 8.64 75.5952 
L 11.69365 75.5952 
L 14.747299 77.61792 
L 17.800949 77.63856 
L 20.854599 75.40944 
L 23.908248 75.40944 
L 26.961898 75.04824 
L 30.015547 74.98632 
L 33.069197 75.58488 
L 36.122847 75.87384 
L 39.176496 76.49304 
L 42.230146 76.15248 
L 45.283796 75.82224 
L 48.337445 75.84288 
L 51.391095 76.03896 
L 54.444744 75.51264 
L 57.498394 75.56424 
L 60.552044 75.05856 
L 63.605693 73.26288 
L 66.659343 73.20096 
L 69.712993 73.00488 
L 72.766642 71.68392 
L 75.820292 70.6932 
L 78.873941 72.62304 
L 81.927591 73.52088 
L 84.981241 73.83048 
L 88.03489 73.8408 
L 91.08854 73.29384 
L 94.14219 73.72728 
L 97.195839 70.32168 
L 100.249489 69.77472 
L 103.303138 70.34232 
L 106.356788 70.67256 
L 109.410438 70.51776 
L 112.464087 70.848 
L 115.517737 72.31344 
L 118.571387 76.01832 
L 121.625036 75.41976 
L 124.678686 75.83256 
L 127.732335 75.79128 
L 130.785985 75.82224 
L 133.839635 77.82432 
L 136.893284 76.14216 
L 139.946934 74.75928 
L 143.000584 74.96568 
L 146.054233 77.75208 
L 149.107883 79.48584 
L 152.161532 83.31456 
L 155.215182 85.90488 
L 158.268832 84.79032 
L 160.846798 85.84296 
L 163.273495 88.25784 
L 166.325589 91.41576 
L 169.366162 88.7532 
L 172.489614 88.65 
L 175.518064 88.55712 
L 178.589138 88.96992 
L 181.636461 89.7336 
L 184.679119 90.456 
L 187.73185 90.56952 
L 190.748778 89.15568 
L 193.641298 88.9596 
L 196.89082 90.6624 
L 199.56089 89.94 
L 202.993277 90.00192 
L 206.043215 90.3528 
L 209.079017 90.62112 
L 212.114005 90.5076 
L 215.202539 90.3528 
L 218.265377 92.004 
L 221.061057 92.13816 
L 224.361685 91.25064 
L 227.401727 89.166 
L 230.449581 89.56848 
L 233.467251 90.93072 
L 236.590279 89.41368 
L 239.612403 90.37344 
L 242.673156 89.79552 
L 245.7097 90.23928 
L 248.769923 88.0824 
L 251.822124 88.7532 
L 254.852341 90.16704 
L 257.935644 90.67272 
L 260.998447 90.18768 
L 264.032481 89.2692 
L 267.084929 89.54784 
L 270.150596 89.49624 
L 273.198343 88.31976 
L 276.247928 88.45392 
L 279.36 88.46424 
" clip-path="url(#p8980388f13)" style="fill: none; stroke: #4a8dff; stroke-width: 0.6"/>
   </g>
   <g id="line2d_7">
    <path d="M 8.64 87.17424 
L 11.69365 85.71912 
L 14.747299 87.53544 
L 17.800949 88.17528 
L 20.854599 85.41984 
L 23.908248 85.17216 
L 26.961898 84.9348 
L 30.015547 85.01736 
L 33.069197 86.14224 
L 36.122847 85.90488 
L 39.176496 86.328 
L 42.230146 86.24544 
L 45.283796 85.72944 
L 48.337445 85.7088 
L 51.391095 86.40024 
L 54.444744 85.09992 
L 57.498394 86.02872 
L 60.552044 84.78 
L 63.605693 83.53128 
L 66.659343 82.83984 
L 69.712993 82.03488 
L 72.766642 79.39296 
L 75.820292 79.66128 
L 78.873941 82.15872 
L 81.927591 82.43736 
L 84.981241 82.93272 
L 88.03489 83.00496 
L 91.08854 82.6128 
L 94.14219 82.28256 
L 97.195839 78.01008 
L 100.249489 76.19376 
L 103.303138 77.66952 
L 106.356788 77.74176 
L 109.410438 78.1752 
L 112.464087 79.5684 
L 115.517737 80.8068 
L 118.571387 85.20312 
L 121.625036 84.12984 
L 124.678686 84.03696 
L 127.732335 84.06792 
L 130.785985 84.3156 
L 133.839635 87.02976 
L 136.893284 85.21344 
L 139.946934 84.28464 
L 143.000584 84.32592 
L 146.054233 89.08344 
L 149.107883 89.5272 
L 152.161532 95.14128 
L 155.215182 96.98856 
L 158.268832 95.08968 
L 160.846798 97.71096 
L 163.273495 99.80592 
L 166.325589 101.79768 
L 169.366162 100.03296 
L 172.489614 100.518 
L 175.518064 99.98136 
L 178.589138 100.49736 
L 181.636461 100.78632 
L 184.679119 101.07528 
L 187.73185 101.26104 
L 190.748778 100.63152 
L 193.641298 100.38384 
L 196.89082 100.84824 
L 199.56089 100.65216 
L 202.993277 101.034 
L 206.043215 101.19912 
L 209.079017 101.10624 
L 212.114005 100.97208 
L 215.202539 100.91016 
L 218.265377 101.7564 
L 221.061057 101.84928 
L 224.361685 101.56032 
L 227.401727 100.85856 
L 230.449581 101.12688 
L 233.467251 101.4468 
L 236.590279 101.02368 
L 239.612403 101.30232 
L 242.673156 100.81728 
L 245.7097 100.79664 
L 248.769923 99.3312 
L 251.822124 99.92976 
L 254.852341 100.78632 
L 257.935644 101.17848 
L 260.998447 101.1372 
L 264.032481 100.21872 
L 267.084929 100.37352 
L 270.150596 100.4664 
L 273.198343 99.88848 
L 276.247928 99.94008 
L 279.36 99.81624 
" clip-path="url(#p8980388f13)" style="fill: none; stroke: #f5841e; stroke-width: 0.6"/>
   </g>
  </g>
 </g>
 <defs>
  <clipPath id="p8980388f13">
   <rect x="8.64" y="4.8" width="270.72" height="103.2"/>
  </clipPath>
 </defs>
</svg>
