<?xml version="1.0" encoding="utf-8" standalone="no"?>
<!DOCTYPE svg PUBLIC "-//W3C//DTD SVG 1.1//EN"
  "http://www.w3.org/Graphics/SVG/1.1/DTD/svg11.dtd">
<svg xmlns:xlink="http://www.w3.org/1999/xlink" width="288pt" height="120pt" viewBox="0 0 288 120" xmlns="http://www.w3.org/2000/svg" version="1.1">
<desc id="nav-meta">{"window":"3m","count":4,"labels":["11.01","10.02","12.03","11.04"],"tick_utc":["2026-01-11T12:00:00Z","2026-02-10T03:42:23Z","2026-03-12T03:19:44Z","2026-04-11T03:29:29Z"],"w":720,"h":300}</desc>

 <metadata>
  <rdf:RDF xmlns:dc="http://purl.org/dc/elements/1.1/" xmlns:cc="http://creativecommons.org/ns#" xmlns:rdf="http://www.w3.org/1999/02/22-rdf-syntax-ns#">
   <cc:Work>
    <dc:type rdf:resource="http://purl.org/dc/dcmitype/StillImage"/>
    <dc:date>2026-04-11T03:29:32.422525</dc:date>
    <dc:format>image/svg+xml</dc:format>
    <dc:creator>
     <cc:Agent>
      <dc:title>Matplotlib v3.10.8, https://matplotlib.org/</dc:title>
     </cc:Agent>
    </dc:creator>
   </cc:Work>
  </rdf:RDF>
 </metadata>
 <defs>
  <style type="text/css">*{stroke-linejoin: round; stroke-linecap: butt}</style>
 </defs>
 <g id="figure_1">
  <g id="patch_1">
   <path d="M 0 120 
L 288 120 
L 288 0 
L 0 0 
L 0 120 
z
" style="fill: none; opacity: 0"/>
  </g>
  <g id="axes_1">
   <g id="patch_2">
    <path d="M 8.64 108 
L 279.36 108 
L 279.36 4.8 
L 8.64 4.8 
L 8.64 108 
z
" style="fill: none"/>
   </g>
   <g id="matplotlib.axis_1"/>
   <g id="matplotlib.axis_2"/>
   <g id="line2d_1">
    <path d="M 8.64 87.36 
L 279.36 87.36 
" clip-path="url(#pd8b91b64ca)" style="fill: none; stroke: #b2b2b2; stroke-opacity: 0.35; stroke-width: 0.5; stroke-linecap: square"/>
   </g>
   <g id="line2d_2">
    <path d="M 8.64 66.72 
L 279.36 66.72 
" clip-path="url(#pd8b91b64ca)" style="fill: none; stroke: #b2b2b2; stroke-opacity: 0.35; stroke-width: 0.5; stroke-linecap: square"/>
   </g>
   <g id="line2d_3">
    <path d="M 8.64 46.08 
L 279.36 46.08 
" clip-path="url(#pd8b91b64ca)" style="fill: none; stroke: #b2b2b2; stroke-opacity: 0.35; stroke-width: 0.5; stroke-linecap: square"/>
   </g>
   <g id="line2d_4">
    <path d="M 8.64 25.44 
L 279.36 25.44 
" clip-path="url(#pd8b91b64ca)" style="fill: none; stroke: #b2b2b2; stroke-opacity: 0.35; stroke-width: 0.5; stroke-linecap: square"/>
   </g>
   <g id="line2d_5">
    <path d="M 8.64 89.40336 
L 11.659896 88.41264 
L 14.679792 88.4952 
L 17.699688 86.86464 
L 20.719584 86.42088 
L 23.739479 87.62832 
L 26.759375 86.93688 
L 29.779271 87.23616 
L 32.799167 88.63968 
L 35.819063 90.0432 
L 38.838959 92.12784 
L 41.858855 91.16808 
L 44.878751 91.46736 
L 47.898647 91.73568 
L 50.918542 91.78728 
L 53.938438 94.0164 
L 56.958334 92.5716 
L 59.97823 91.76664 
L 62.998126 92.33424 
L 66.018022 94.36728 
L 69.037918 94.46016 
L 72.057814 97.71096 
L 75.07771 98.48496 
L 78.097605 97.85544 
L 80.647076 99.10416 
L 83.046949 100.16712 
L 86.065307 102.23112 
L 89.072271 100.54896 
L 92.161198 100.70376 
L 95.156172 100.68312 
L 98.1933 100.95144 
L 101.206939 101.28168 
L 104.215965 101.71512 
L 107.234952 101.84928 
L 110.218532 101.034 
L 113.07908 100.54896 
L 116.292682 101.04432 
L 118.933239 100.81728 
L 122.327686 101.034 
L 125.343912 101.4984 
L 128.346156 101.33328 
L 131.347597 101.1372 
L 134.401991 101.06496 
L 137.430975 102.09696 
L 140.195753 102.05568 
L 143.459897 101.4984 
L 146.466336 100.60056 
L 149.480499 100.80696 
L 152.464814 101.45712 
L 155.553321 100.55928 
L 158.54204 101.10624 
L 161.568961 100.8792 
L 164.57194 100.74504 
L 167.598337 100.21872 
L 170.6168 100.53864 
L 173.613522 101.07528 
L 176.662743 101.38488 
L 179.691692 101.26104 
L 182.692189 100.78632 
L 185.710896 100.91016 
L 188.742676 100.99272 
L 191.756735 100.38384 
L 194.772611 100.50768 
L 197.850284 100.60056 
L 200.878708 99.76464 
L 203.845756 99.49632 
L 206.888685 99.40344 
L 209.90942 100.09488 
L 212.899921 100.3632 
L 215.902131 100.19808 
L 218.967185 100.47672 
L 221.994177 100.79664 
L 224.98611 100.26 
L 228.230926 99.83688 
L 231.062637 100.13616 
L 234.086343 100.80696 
L 237.077368 101.38488 
L 240.138403 101.3436 
L 243.166932 101.292 
L 246.167779 101.28168 
L 249.213575 101.28168 
L 252.193695 101.8596 
L 255.217051 101.88024 
L 258.211082 101.72544 
L 261.276451 101.68416 
L 264.304141 101.47776 
L 267.304429 101.78736 
L 270.329218 101.09592 
L 273.338593 101.46744 
L 276.386276 101.3436 
L 279.36 101.05464 
" clip-path="url(#pd8b91b64ca)" style="fill: none; stroke: #bebebe; stroke-width: 0.5; stroke-linecap: round"/>
   </g>
   <g id="line2d_6">
    <path d="M 8.64 73.8408 
L 11.659896 73.29384 
L 14.679792 73.72728 
L 17.699688 70.32168 
L 20.719584 69.77472 
L 23.739479 70.34232 
L 26.759375 70.67256 
L 29.779271 70.51776 
L 32.799167 70.848 
L 35.819063 72.31344 
L 38.838959 76.01832 
L 41.858855 75.41976 
L 44.878751 75.83256 
L 47.898647 75.79128 
L 50.918542 75.82224 
L 53.938438 77.82432 
L 56.958334 76.14216 
L 59.97823 74.75928 
L 62.998126 74.96568 
L 66.018022 77.75208 
L 69.037918 79.48584 
L 72.057814 83.31456 
L 75.07771 85.90488 
L 78.097605 84.79032 
L 80.647076 85.84296 
L 83.046949 88.25784 
L 86.065307 91.41576 
L 89.072271 88.7532 
L 92.161198 88.65 
L 95.156172 88.55712 
L 98.1933 88.96992 
L 101.206939 89.7336 
L 104.215965 90.456 
L 107.234952 90.56952 
L 110.218532 89.15568 
L 113.07908 88.9596 
L 116.292682 90.6624 
L 118.933239 89.94 
L 122.327686 90.00192 
L 125.343912 90.3528 
L 128.346156 90.62112 
L 131.347597 90.5076 
L 134.401991 90.3528 
L 137.430975 92.004 
L 140.195753 92.13816 
L 143.459897 91.25064 
L 146.466336 89.166 
L 149.480499 89.56848 
L 152.464814 90.93072 
L 155.553321 89.41368 
L 158.54204 90.37344 
L 161.568961 89.79552 
L 164.57194 90.23928 
L 167.598337 88.0824 
L 170.6168 88.7532 
L 173.613522 90.16704 
L 176.662743 90.67272 
L 179.691692 90.18768 
L 182.692189 89.2692 
L 185.710896 89.54784 
L 188.742676 89.49624 
L 191.756735 88.31976 
L 194.772611 88.45392 
L 197.850284 88.46424 
L 200.878708 86.38992 
L 203.845756 84.80064 
L 206.888685 84.8316 
L 209.90942 86.586 
L 212.899921 87.74184 
L 215.902131 87.618 
L 218.967185 88.19592 
L 221.994177 89.08344 
L 224.98611 87.89664 
L 228.230926 87.3084 
L 231.062637 87.65928 
L 234.086343 88.96992 
L 237.077368 90.07416 
L 240.138403 89.76456 
L 243.166932 89.3724 
L 246.167779 89.00088 
L 249.213575 88.42296 
L 252.193695 88.81512 
L 255.217051 89.10408 
L 258.211082 89.14536 
L 261.276451 89.07312 
L 264.304141 87.9792 
L 267.304429 88.29912 
L 270.329218 86.38992 
L 273.338593 87.24648 
L 276.386276 87.1536 
L 279.36 86.21448 
" clip-path="url(#pd8b91b64ca)" style="fill: none; stroke: #4a8dff; stroke-width: 0.6"/>
   </g>
   <g id="line2d_7">
    <path d="M 8.64 83.00496 
L 11.659896 82.6128 
L 14.679792 82.28256 
L 17.699688 78.01008 
L 20.719584 76.19376 
L 23.739479 77.66952 
L 26.759375 77.74176 
L 29.779271 78.1752 
L 32.799167 79.5684 
L 35.819063 80.8068 
L 38.838959 85.20312 
L 41.858855 84.12984 
L 44.878751 84.03696 
L 47.898647 84.06792 
L 50.918542 84.3156 
L 53.938438 87.02976 
L 56.958334 85.21344 
L 59.97823 84.28464 
L 62.998126 84.32592 
L 66.018022 89.08344 
L 69.037918 89.5272 
L 72.057814 95.14128 
L 75.07771 96.98856 
L 78.097605 95.08968 
L 80.647076 97.71096 
L 83.046949 99.80592 
L 86.065307 101.79768 
L 89.072271 100.03296 
L 92.161198 100.518 
L 95.156172 99.98136 
L 98.1933 100.49736 
L 101.206939 100.78632 
L 104.215965 101.07528 
L 107.234952 101.26104 
L 110.218532 100.63152 
L 113.07908 100.38384 
L 116.292682 100.84824 
L 118.933239 100.65216 
L 122.327686 101.034 
L 125.343912 101.19912 
L 128.346156 101.10624 
L 131.347597 100.97208 
L 134.401991 100.91016 
L 137.430975 101.7564 
L 140.195753 101.84928 
L 143.459897 101.56032 
L 146.466336 100.85856 
L 149.480499 101.12688 
L 152.464814 101.4468 
L 155.553321 101.02368 
L 158.54204 101.30232 
L 161.568961 100.81728 
L 164.57194 100.79664 
L 167.598337 99.3312 
L 170.6168 99.92976 
L 173.613522 100.78632 
L 176.662743 101.17848 
L 179.691692 101.1372 
L 182.692189 100.21872 
L 185.710896 100.37352 
L 188.742676 100.4664 
L 191.756735 99.88848 
L 194.772611 99.94008 
L 197.850284 99.81624 
L 200.878708 98.93904 
L 203.845756 98.3508 
L 206.888685 98.52624 
L 209.90942 99.78528 
L 212.899921 100.12584 
L 215.902131 100.03296 
L 218.967185 100.45608 
L 221.994177 100.83792 
L 224.98611 100.11552 
L 228.230926 99.87816 
L 231.062637 100.002 
L 234.086343 100.64184 
L 237.077368 101.41584 
L 240.138403 101.21976 
L 243.166932 101.14752 
L 246.167779 101.00304 
L 249.213575 100.86888 
L 252.193695 101.21976 
L 255.217051 101.28168 
L 258.211082 101.20944 
L 261.276451 101.14752 
L 264.304141 100.55928 
L 267.304429 100.65216 
L 270.329218 99.80592 
L 273.338593 99.96072 
L 276.386276 99.6408 
L 279.36 99.1764 
" clip-path="url(#pd8b91b64ca)" style="fill: none; stroke: #f5841e; stroke-width: 0.6"/>
   </g>
  </g>
 </g>
 <defs>
  <clipPath id="pd8b91b64ca">
   <rect x="8.64" y="4.8" width="270.72" height="103.2"/>
  </clipPath>
 </defs>
</svg>
