<?xml version="1.0" encoding="utf-8" standalone="no"?>
<!DOCTYPE svg PUBLIC "-//W3C//DTD SVG 1.1//EN"
  "http://www.w3.org/Graphics/SVG/1.1/DTD/svg11.dtd">
<svg xmlns:xlink="http://www.w3.org/1999/xlink" width="288pt" height="120pt" viewBox="0 0 288 120" xmlns="http://www.w3.org/2000/svg" version="1.1">
<desc id="nav-meta">{"window":"1m","count":4,"labels":["14.06","24.06","04.07","14.07"],"tick_utc":["2026-06-14T05:19:47Z","2026-06-24T04:50:37Z","2026-07-04T04:23:54Z","2026-07-14T03:47:28Z"],"w":720,"h":300}</desc>

 <metadata>
  <rdf:RDF xmlns:dc="http://purl.org/dc/elements/1.1/" xmlns:cc="http://creativecommons.org/ns#" xmlns:rdf="http://www.w3.org/1999/02/22-rdf-syntax-ns#">
   <cc:Work>
    <dc:type rdf:resource="http://purl.org/dc/dcmitype/StillImage"/>
    <dc:date>2026-07-14T03:47:29.930225</dc:date>
    <dc:format>image/svg+xml</dc:format>
    <dc:creator>
     <cc:Agent>
      <dc:title>Matplotlib v3.11.0, https://matplotlib.org/</dc:title>
     </cc:Agent>
    </dc:creator>
   </cc:Work>
  </rdf:RDF>
 </metadata>
 <defs>
  <style type="text/css">*{stroke-linejoin: round; stroke-linecap: butt}</style>
 </defs>
 <g id="figure_1">
  <g id="patch_1">
   <path d="M 0 120 
L 288 120 
L 288 0 
L 0 0 
L 0 120 
z
" style="fill: none; opacity: 0"/>
  </g>
  <g id="axes_1">
   <g id="patch_2">
    <path d="M 8.64 108 
L 279.36 108 
L 279.36 4.8 
L 8.64 4.8 
L 8.64 108 
z
" style="fill: none"/>
   </g>
   <g id="matplotlib.axis_1"/>
   <g id="matplotlib.axis_2"/>
   <g id="line2d_1">
    <path d="M 8.64 87.36 
L 279.36 87.36 
" clip-path="url(#pb813394313)" style="fill: none; stroke: #b2b2b2; stroke-opacity: 0.35; stroke-width: 0.5; stroke-linecap: square"/>
   </g>
   <g id="line2d_2">
    <path d="M 8.64 66.72 
L 279.36 66.72 
" clip-path="url(#pb813394313)" style="fill: none; stroke: #b2b2b2; stroke-opacity: 0.35; stroke-width: 0.5; stroke-linecap: square"/>
   </g>
   <g id="line2d_3">
    <path d="M 8.64 46.08 
L 279.36 46.08 
" clip-path="url(#pb813394313)" style="fill: none; stroke: #b2b2b2; stroke-opacity: 0.35; stroke-width: 0.5; stroke-linecap: square"/>
   </g>
   <g id="line2d_4">
    <path d="M 8.64 25.44 
L 279.36 25.44 
" clip-path="url(#pb813394313)" style="fill: none; stroke: #b2b2b2; stroke-opacity: 0.35; stroke-width: 0.5; stroke-linecap: square"/>
   </g>
   <g id="line2d_5">
    <path d="M 8.64 103.31472 
L 17.983932 102.95352 
L 27.078859 102.61296 
L 35.834137 102.6336 
L 44.83413 102.9948 
L 54.090455 103.28376 
L 62.772152 103.01544 
L 72.00367 102.69552 
L 81.311701 102.582 
L 89.814415 102.88128 
L 98.890083 103.15992 
L 107.931001 103.36632 
L 117.020694 103.36632 
L 125.953176 102.81936 
L 135.168889 103.0464 
L 144.277632 102.9432 
L 153.145638 102.59232 
L 162.321264 102.40656 
L 171.206226 102.02472 
L 180.151164 101.68416 
L 189.155552 101.3436 
L 198.331283 101.6532 
L 207.462215 101.6532 
L 216.36989 101.63256 
L 225.167455 101.95248 
L 234.484906 102.08664 
L 243.507821 101.9112 
L 252.284138 102.066 
L 261.462694 102.18984 
L 270.525802 102.31368 
L 279.36 102.45816 
" clip-path="url(#pb813394313)" style="fill: none; stroke: #bebebe; stroke-width: 0.5; stroke-linecap: round"/>
   </g>
   <g id="line2d_6">
    <path d="M 8.64 94.70784 
L 17.983932 94.04736 
L 27.078859 93.40752 
L 35.834137 92.9844 
L 44.83413 93.93384 
L 54.090455 94.4292 
L 62.772152 94.19184 
L 72.00367 93.87192 
L 81.311701 93.81 
L 89.814415 94.03704 
L 98.890083 94.83168 
L 107.931001 95.48184 
L 117.020694 96.63768 
L 125.953176 96.14232 
L 135.168889 96.30744 
L 144.277632 96.29712 
L 153.145638 96.04944 
L 162.321264 95.9256 
L 171.206226 95.39928 
L 180.151164 94.31568 
L 189.155552 93.57264 
L 198.331283 93.32496 
L 207.462215 93.22176 
L 216.36989 93.35592 
L 225.167455 93.61392 
L 234.484906 93.77904 
L 243.507821 93.26304 
L 252.284138 92.92248 
L 261.462694 92.71608 
L 270.525802 93.15984 
L 279.36 93.17016 
" clip-path="url(#pb813394313)" style="fill: none; stroke: #4a8dff; stroke-width: 0.6"/>
   </g>
   <g id="line2d_7">
    <path d="M 8.64 101.86992 
L 17.983932 101.48808 
L 27.078859 101.40552 
L 35.834137 101.4984 
L 44.83413 101.97312 
L 54.090455 102.26208 
L 62.772152 102.066 
L 72.00367 101.90088 
L 81.311701 101.90088 
L 89.814415 102.0144 
L 98.890083 102.25176 
L 107.931001 102.6336 
L 117.020694 102.88128 
L 125.953176 102.77808 
L 135.168889 102.85032 
L 144.277632 102.93288 
L 153.145638 102.95352 
L 162.321264 103.00512 
L 171.206226 102.69552 
L 180.151164 102.55104 
L 189.155552 102.2724 
L 198.331283 102.21048 
L 207.462215 102.12792 
L 216.36989 102.13824 
L 225.167455 102.25176 
L 234.484906 102.36528 
L 243.507821 101.94216 
L 252.284138 101.92152 
L 261.462694 101.9112 
L 270.525802 102.2208 
L 279.36 102.31368 
" clip-path="url(#pb813394313)" style="fill: none; stroke: #f5841e; stroke-width: 0.6"/>
   </g>
  </g>
 </g>
 <defs>
  <clipPath id="pb813394313">
   <rect x="8.64" y="4.8" width="270.72" height="103.2"/>
  </clipPath>
 </defs>
</svg>
