<?xml version="1.0" encoding="utf-8" standalone="no"?>
<!DOCTYPE svg PUBLIC "-//W3C//DTD SVG 1.1//EN"
  "http://www.w3.org/Graphics/SVG/1.1/DTD/svg11.dtd">
<svg xmlns:xlink="http://www.w3.org/1999/xlink" width="288pt" height="120pt" viewBox="0 0 288 120" xmlns="http://www.w3.org/2000/svg" version="1.1">
<desc id="nav-meta">{"window":"3m","count":4,"labels":["26.02","28.03","26.04","26.05"],"tick_utc":["2026-02-26T03:20:47Z","2026-03-28T03:27:32Z","2026-04-26T04:06:31Z","2026-05-26T04:48:34Z"],"w":720,"h":300}</desc>

 <metadata>
  <rdf:RDF xmlns:dc="http://purl.org/dc/elements/1.1/" xmlns:cc="http://creativecommons.org/ns#" xmlns:rdf="http://www.w3.org/1999/02/22-rdf-syntax-ns#">
   <cc:Work>
    <dc:type rdf:resource="http://purl.org/dc/dcmitype/StillImage"/>
    <dc:date>2026-05-26T16:30:41.748257</dc:date>
    <dc:format>image/svg+xml</dc:format>
    <dc:creator>
     <cc:Agent>
      <dc:title>Matplotlib v3.10.9, https://matplotlib.org/</dc:title>
     </cc:Agent>
    </dc:creator>
   </cc:Work>
  </rdf:RDF>
 </metadata>
 <defs>
  <style type="text/css">*{stroke-linejoin: round; stroke-linecap: butt}</style>
 </defs>
 <g id="figure_1">
  <g id="patch_1">
   <path d="M 0 120 
L 288 120 
L 288 0 
L 0 0 
L 0 120 
z
" style="fill: none; opacity: 0"/>
  </g>
  <g id="axes_1">
   <g id="patch_2">
    <path d="M 8.64 108 
L 279.36 108 
L 279.36 4.8 
L 8.64 4.8 
L 8.64 108 
z
" style="fill: none"/>
   </g>
   <g id="matplotlib.axis_1"/>
   <g id="matplotlib.axis_2"/>
   <g id="line2d_1">
    <path d="M 8.64 87.36 
L 279.36 87.36 
" clip-path="url(#p480420685c)" style="fill: none; stroke: #b2b2b2; stroke-opacity: 0.35; stroke-width: 0.5; stroke-linecap: square"/>
   </g>
   <g id="line2d_2">
    <path d="M 8.64 66.72 
L 279.36 66.72 
" clip-path="url(#p480420685c)" style="fill: none; stroke: #b2b2b2; stroke-opacity: 0.35; stroke-width: 0.5; stroke-linecap: square"/>
   </g>
   <g id="line2d_3">
    <path d="M 8.64 46.08 
L 279.36 46.08 
" clip-path="url(#p480420685c)" style="fill: none; stroke: #b2b2b2; stroke-opacity: 0.35; stroke-width: 0.5; stroke-linecap: square"/>
   </g>
   <g id="line2d_4">
    <path d="M 8.64 25.44 
L 279.36 25.44 
" clip-path="url(#p480420685c)" style="fill: none; stroke: #b2b2b2; stroke-opacity: 0.35; stroke-width: 0.5; stroke-linecap: square"/>
   </g>
   <g id="line2d_5">
    <path d="M 8.64 100.60056 
L 11.673946 100.80696 
L 14.677846 101.45712 
L 17.786624 100.55928 
L 20.794958 101.10624 
L 23.841745 100.8792 
L 26.864433 100.74504 
L 29.910692 100.21872 
L 32.948965 100.53864 
L 35.965355 101.07528 
L 39.034589 101.38488 
L 42.083416 101.26104 
L 45.103606 100.78632 
L 48.142126 100.91016 
L 51.193803 100.99272 
L 54.227644 100.38384 
L 57.263313 100.50768 
L 60.361185 100.60056 
L 63.409485 99.76464 
L 66.396006 99.49632 
L 69.458906 99.40344 
L 72.499466 100.09488 
L 75.509594 100.3632 
L 78.531508 100.19808 
L 81.616678 100.47672 
L 84.663536 100.79664 
L 87.675106 100.26 
L 90.941217 99.83688 
L 93.791514 100.13616 
L 96.835064 100.80696 
L 99.84572 101.38488 
L 102.926844 101.3436 
L 105.97525 101.292 
L 108.995792 101.28168 
L 112.061577 101.28168 
L 115.061256 101.8596 
L 118.104454 101.88024 
L 121.118136 101.72544 
L 124.203623 101.68416 
L 127.251184 101.47776 
L 130.271163 101.78736 
L 133.315804 101.09592 
L 136.34493 101.46744 
L 139.412615 101.3436 
L 142.405856 101.05464 
L 145.500103 101.3952 
L 148.555404 101.47776 
L 151.57577 100.86888 
L 154.613164 101.26104 
L 157.666038 100.99272 
L 160.699561 100.61088 
L 163.705749 100.44576 
L 166.785607 100.94112 
L 169.832851 101.09592 
L 172.859233 101.00304 
L 175.88952 100.69344 
L 178.94155 100.9308 
L 181.989322 100.92048 
L 184.992765 100.81728 
L 188.079765 100.8792 
L 191.152235 100.64184 
L 194.198319 101.1888 
L 197.229732 101.09592 
L 200.274549 101.37456 
L 203.347476 101.21976 
L 206.309616 101.20944 
L 209.41104 101.23008 
L 212.449701 100.92048 
L 215.422465 101.06496 
L 218.515728 100.70376 
L 221.556253 100.55928 
L 224.545377 100.53864 
L 227.59621 99.60984 
L 230.697177 99.72336 
L 233.760887 99.44472 
L 236.758385 99.25896 
L 239.81256 99.32088 
L 242.848898 100.22904 
L 245.903601 100.01232 
L 248.904511 100.43544 
L 251.989612 100.75536 
L 255.058845 101.02368 
L 258.076783 101.02368 
L 261.12737 101.17848 
L 264.184395 100.7244 
L 267.200821 100.75536 
L 270.198775 101.11656 
L 273.28662 100.91016 
L 276.366337 100.89984 
L 279.36 101.1372 
" clip-path="url(#p480420685c)" style="fill: none; stroke: #bebebe; stroke-width: 0.5; stroke-linecap: round"/>
   </g>
   <g id="line2d_6">
    <path d="M 8.64 89.166 
L 11.673946 89.56848 
L 14.677846 90.93072 
L 17.786624 89.41368 
L 20.794958 90.37344 
L 23.841745 89.79552 
L 26.864433 90.23928 
L 29.910692 88.0824 
L 32.948965 88.7532 
L 35.965355 90.16704 
L 39.034589 90.67272 
L 42.083416 90.18768 
L 45.103606 89.2692 
L 48.142126 89.54784 
L 51.193803 89.49624 
L 54.227644 88.31976 
L 57.263313 88.45392 
L 60.361185 88.46424 
L 63.409485 86.38992 
L 66.396006 84.80064 
L 69.458906 84.8316 
L 72.499466 86.586 
L 75.509594 87.74184 
L 78.531508 87.618 
L 81.616678 88.19592 
L 84.663536 89.08344 
L 87.675106 87.89664 
L 90.941217 87.3084 
L 93.791514 87.65928 
L 96.835064 88.96992 
L 99.84572 90.07416 
L 102.926844 89.76456 
L 105.97525 89.3724 
L 108.995792 89.00088 
L 112.061577 88.42296 
L 115.061256 88.81512 
L 118.104454 89.10408 
L 121.118136 89.14536 
L 124.203623 89.07312 
L 127.251184 87.9792 
L 130.271163 88.29912 
L 133.315804 86.38992 
L 136.34493 87.24648 
L 139.412615 87.1536 
L 142.405856 86.21448 
L 145.500103 86.66856 
L 148.555404 87.01944 
L 151.57577 84.44976 
L 154.613164 85.05864 
L 157.666038 84.58392 
L 160.699561 85.04832 
L 163.705749 83.71704 
L 166.785607 84.86256 
L 169.832851 85.6572 
L 172.859233 85.27536 
L 175.88952 84.49104 
L 178.94155 84.86256 
L 181.989322 85.32696 
L 184.992765 85.17216 
L 188.079765 85.31664 
L 191.152235 84.11952 
L 194.198319 85.66752 
L 197.229732 85.26504 
L 200.274549 86.26608 
L 203.347476 85.77072 
L 206.309616 85.38888 
L 209.41104 85.3992 
L 212.449701 84.09888 
L 215.422465 84.22272 
L 218.515728 84.34656 
L 221.556253 85.06896 
L 224.545377 85.7604 
L 227.59621 85.0896 
L 230.697177 85.01736 
L 233.760887 84.9348 
L 236.758385 85.296 
L 239.81256 85.35792 
L 242.848898 86.1732 
L 245.903601 85.92552 
L 248.904511 86.55504 
L 251.989612 87.13296 
L 255.058845 88.10304 
L 258.076783 87.9276 
L 261.12737 88.26816 
L 264.184395 87.78312 
L 267.200821 87.95856 
L 270.198775 88.94928 
L 273.28662 88.14432 
L 276.366337 88.33008 
L 279.36 88.52616 
" clip-path="url(#p480420685c)" style="fill: none; stroke: #4a8dff; stroke-width: 0.6"/>
   </g>
   <g id="line2d_7">
    <path d="M 8.64 100.85856 
L 11.673946 101.12688 
L 14.677846 101.4468 
L 17.786624 101.02368 
L 20.794958 101.30232 
L 23.841745 100.81728 
L 26.864433 100.79664 
L 29.910692 99.3312 
L 32.948965 99.92976 
L 35.965355 100.78632 
L 39.034589 101.17848 
L 42.083416 101.1372 
L 45.103606 100.21872 
L 48.142126 100.37352 
L 51.193803 100.4664 
L 54.227644 99.88848 
L 57.263313 99.94008 
L 60.361185 99.81624 
L 63.409485 98.93904 
L 66.396006 98.3508 
L 69.458906 98.52624 
L 72.499466 99.78528 
L 75.509594 100.12584 
L 78.531508 100.03296 
L 81.616678 100.45608 
L 84.663536 100.83792 
L 87.675106 100.11552 
L 90.941217 99.87816 
L 93.791514 100.002 
L 96.835064 100.64184 
L 99.84572 101.41584 
L 102.926844 101.21976 
L 105.97525 101.14752 
L 108.995792 101.00304 
L 112.061577 100.86888 
L 115.061256 101.21976 
L 118.104454 101.28168 
L 121.118136 101.20944 
L 124.203623 101.14752 
L 127.251184 100.55928 
L 130.271163 100.65216 
L 133.315804 99.80592 
L 136.34493 99.96072 
L 139.412615 99.6408 
L 142.405856 99.1764 
L 145.500103 99.70272 
L 148.555404 99.94008 
L 151.57577 98.57784 
L 154.613164 98.65008 
L 157.666038 98.38176 
L 160.699561 98.48496 
L 163.705749 96.70992 
L 166.785607 98.05152 
L 169.832851 98.48496 
L 172.859233 97.96896 
L 175.88952 96.32808 
L 178.94155 96.20424 
L 181.989322 96.16296 
L 184.992765 96.1836 
L 188.079765 96.50352 
L 191.152235 94.76976 
L 194.198319 97.19496 
L 197.229732 96.9576 
L 200.274549 97.9896 
L 203.347476 96.89568 
L 206.309616 95.45088 
L 209.41104 95.67792 
L 212.449701 93.43848 
L 215.422465 92.90184 
L 218.515728 92.25168 
L 221.556253 92.87088 
L 224.545377 94.2744 
L 227.59621 93.1392 
L 230.697177 92.97408 
L 233.760887 92.9844 
L 236.758385 92.60256 
L 239.81256 92.53032 
L 242.848898 94.54272 
L 245.903601 92.85024 
L 248.904511 94.82136 
L 251.989612 95.75016 
L 255.058845 96.97824 
L 258.076783 97.08144 
L 261.12737 97.23624 
L 264.184395 95.94624 
L 267.200821 96.30744 
L 270.198775 98.08248 
L 273.28662 97.2672 
L 276.366337 96.61704 
L 279.36 97.23624 
" clip-path="url(#p480420685c)" style="fill: none; stroke: #f5841e; stroke-width: 0.6"/>
   </g>
  </g>
 </g>
 <defs>
  <clipPath id="p480420685c">
   <rect x="8.64" y="4.8" width="270.72" height="103.2"/>
  </clipPath>
 </defs>
</svg>
