<?xml version="1.0" encoding="utf-8" standalone="no"?>
<!DOCTYPE svg PUBLIC "-//W3C//DTD SVG 1.1//EN"
  "http://www.w3.org/Graphics/SVG/1.1/DTD/svg11.dtd">
<svg xmlns:xlink="http://www.w3.org/1999/xlink" width="288pt" height="120pt" viewBox="0 0 288 120" xmlns="http://www.w3.org/2000/svg" version="1.1">
<desc id="nav-meta">{"window":"3m","count":4,"labels":["01.12","31.12","30.01","01.03"],"tick_utc":["2025-12-01T12:00:00Z","2025-12-31T12:00:00Z","2026-01-30T12:00:00Z","2026-03-01T03:33:48Z"],"w":720,"h":300}</desc>

 <metadata>
  <rdf:RDF xmlns:dc="http://purl.org/dc/elements/1.1/" xmlns:cc="http://creativecommons.org/ns#" xmlns:rdf="http://www.w3.org/1999/02/22-rdf-syntax-ns#">
   <cc:Work>
    <dc:type rdf:resource="http://purl.org/dc/dcmitype/StillImage"/>
    <dc:date>2026-03-01T03:33:50.559496</dc:date>
    <dc:format>image/svg+xml</dc:format>
    <dc:creator>
     <cc:Agent>
      <dc:title>Matplotlib v3.10.8, https://matplotlib.org/</dc:title>
     </cc:Agent>
    </dc:creator>
   </cc:Work>
  </rdf:RDF>
 </metadata>
 <defs>
  <style type="text/css">*{stroke-linejoin: round; stroke-linecap: butt}</style>
 </defs>
 <g id="figure_1">
  <g id="patch_1">
   <path d="M 0 120 
L 288 120 
L 288 0 
L 0 0 
L 0 120 
z
" style="fill: none; opacity: 0"/>
  </g>
  <g id="axes_1">
   <g id="patch_2">
    <path d="M 8.64 108 
L 279.36 108 
L 279.36 4.8 
L 8.64 4.8 
L 8.64 108 
z
" style="fill: none"/>
   </g>
   <g id="matplotlib.axis_1"/>
   <g id="matplotlib.axis_2"/>
   <g id="line2d_1">
    <path d="M 8.64 87.36 
L 279.36 87.36 
" clip-path="url(#pb6dfd5704f)" style="fill: none; stroke: #b2b2b2; stroke-opacity: 0.35; stroke-width: 0.5; stroke-linecap: square"/>
   </g>
   <g id="line2d_2">
    <path d="M 8.64 66.72 
L 279.36 66.72 
" clip-path="url(#pb6dfd5704f)" style="fill: none; stroke: #b2b2b2; stroke-opacity: 0.35; stroke-width: 0.5; stroke-linecap: square"/>
   </g>
   <g id="line2d_3">
    <path d="M 8.64 46.08 
L 279.36 46.08 
" clip-path="url(#pb6dfd5704f)" style="fill: none; stroke: #b2b2b2; stroke-opacity: 0.35; stroke-width: 0.5; stroke-linecap: square"/>
   </g>
   <g id="line2d_4">
    <path d="M 8.64 25.44 
L 279.36 25.44 
" clip-path="url(#pb6dfd5704f)" style="fill: none; stroke: #b2b2b2; stroke-opacity: 0.35; stroke-width: 0.5; stroke-linecap: square"/>
   </g>
   <g id="line2d_5">
    <path d="M 8.64 89.7336 
L 11.659795 91.86984 
L 14.67959 88.60872 
L 17.699385 86.87496 
L 20.71918 88.52616 
L 23.738975 90.11544 
L 26.758769 90.38376 
L 29.778564 90.53856 
L 32.798359 90.08448 
L 35.818154 88.79448 
L 38.837949 89.20728 
L 41.857744 89.22792 
L 44.877539 90.31152 
L 47.897334 90.10512 
L 50.917129 91.09584 
L 53.936924 91.61184 
L 56.956719 91.31256 
L 59.976513 92.87088 
L 62.996308 93.8616 
L 66.016103 92.02464 
L 69.035898 92.13816 
L 72.055693 92.07624 
L 75.075488 92.14848 
L 78.095283 92.64384 
L 81.115078 93.01536 
L 84.134873 93.69648 
L 87.154668 93.11856 
L 90.174463 92.44776 
L 93.194257 92.30328 
L 96.214052 92.87088 
L 99.233847 92.38584 
L 102.253642 92.47872 
L 105.273437 91.88016 
L 108.293232 90.42504 
L 111.313027 90.08448 
L 114.332822 89.92968 
L 117.352617 88.76352 
L 120.372412 87.94824 
L 123.392207 89.2692 
L 126.412001 88.72224 
L 129.431796 89.39304 
L 132.451591 89.40336 
L 135.471386 88.41264 
L 138.491181 88.4952 
L 141.510976 86.86464 
L 144.530771 86.42088 
L 147.550566 87.62832 
L 150.570361 86.93688 
L 153.590156 87.23616 
L 156.609951 88.63968 
L 159.629745 90.0432 
L 162.64954 92.12784 
L 165.669335 91.16808 
L 168.68913 91.46736 
L 171.708925 91.73568 
L 174.72872 91.78728 
L 177.748515 94.0164 
L 180.76831 92.5716 
L 183.788105 91.76664 
L 186.8079 92.33424 
L 189.827695 94.36728 
L 192.847489 94.46016 
L 195.867284 97.71096 
L 198.887079 98.48496 
L 201.906874 97.85544 
L 204.456259 99.10416 
L 206.856052 100.16712 
L 209.874309 102.23112 
L 212.881172 100.54896 
L 215.969996 100.70376 
L 218.964871 100.68312 
L 222.001897 100.95144 
L 225.015435 101.28168 
L 228.02436 101.71512 
L 231.043247 101.84928 
L 234.026727 101.034 
L 236.887179 100.54896 
L 240.100674 101.04432 
L 242.741142 100.81728 
L 246.135475 101.034 
L 249.1516 101.4984 
L 252.153745 101.33328 
L 255.155086 101.1372 
L 258.209377 101.06496 
L 261.23826 102.09696 
L 264.002945 102.05568 
L 267.26698 101.4984 
L 270.273318 100.60056 
L 273.287381 100.80696 
L 276.271596 101.45712 
L 279.36 100.55928 
" clip-path="url(#pb6dfd5704f)" style="fill: none; stroke: #bebebe; stroke-width: 0.5; stroke-linecap: round"/>
   </g>
   <g id="line2d_6">
    <path d="M 8.64 75.17208 
L 11.659795 78.05136 
L 14.67959 75.1308 
L 17.699385 72.16896 
L 20.71918 73.08744 
L 23.738975 74.72832 
L 26.758769 74.48064 
L 29.778564 74.28456 
L 32.798359 73.21128 
L 35.818154 70.2804 
L 38.837949 70.2288 
L 41.857744 71.56008 
L 44.877539 73.79952 
L 47.897334 73.35576 
L 50.917129 74.0988 
L 53.936924 75.5952 
L 56.956719 75.5952 
L 59.976513 77.61792 
L 62.996308 77.63856 
L 66.016103 75.40944 
L 69.035898 75.40944 
L 72.055693 75.04824 
L 75.075488 74.98632 
L 78.095283 75.58488 
L 81.115078 75.87384 
L 84.134873 76.49304 
L 87.154668 76.15248 
L 90.174463 75.82224 
L 93.194257 75.84288 
L 96.214052 76.03896 
L 99.233847 75.51264 
L 102.253642 75.56424 
L 105.273437 75.05856 
L 108.293232 73.26288 
L 111.313027 73.20096 
L 114.332822 73.00488 
L 117.352617 71.68392 
L 120.372412 70.6932 
L 123.392207 72.62304 
L 126.412001 73.52088 
L 129.431796 73.83048 
L 132.451591 73.8408 
L 135.471386 73.29384 
L 138.491181 73.72728 
L 141.510976 70.32168 
L 144.530771 69.77472 
L 147.550566 70.34232 
L 150.570361 70.67256 
L 153.590156 70.51776 
L 156.609951 70.848 
L 159.629745 72.31344 
L 162.64954 76.01832 
L 165.669335 75.41976 
L 168.68913 75.83256 
L 171.708925 75.79128 
L 174.72872 75.82224 
L 177.748515 77.82432 
L 180.76831 76.14216 
L 183.788105 74.75928 
L 186.8079 74.96568 
L 189.827695 77.75208 
L 192.847489 79.48584 
L 195.867284 83.31456 
L 198.887079 85.90488 
L 201.906874 84.79032 
L 204.456259 85.84296 
L 206.856052 88.25784 
L 209.874309 91.41576 
L 212.881172 88.7532 
L 215.969996 88.65 
L 218.964871 88.55712 
L 222.001897 88.96992 
L 225.015435 89.7336 
L 228.02436 90.456 
L 231.043247 90.56952 
L 234.026727 89.15568 
L 236.887179 88.9596 
L 240.100674 90.6624 
L 242.741142 89.94 
L 246.135475 90.00192 
L 249.1516 90.3528 
L 252.153745 90.62112 
L 255.155086 90.5076 
L 258.209377 90.3528 
L 261.23826 92.004 
L 264.002945 92.13816 
L 267.26698 91.25064 
L 270.273318 89.166 
L 273.287381 89.56848 
L 276.271596 90.93072 
L 279.36 89.41368 
" clip-path="url(#pb6dfd5704f)" style="fill: none; stroke: #4a8dff; stroke-width: 0.6"/>
   </g>
   <g id="line2d_7">
    <path d="M 8.64 83.03592 
L 11.659795 87.3084 
L 14.67959 82.06584 
L 17.699385 79.71288 
L 20.71918 81.24024 
L 23.738975 84.17112 
L 26.758769 84.24336 
L 29.778564 83.29392 
L 32.798359 82.8192 
L 35.818154 80.64168 
L 38.837949 81.38472 
L 41.857744 80.87904 
L 44.877539 83.13912 
L 47.897334 83.19072 
L 50.917129 85.296 
L 53.936924 87.17424 
L 56.956719 85.71912 
L 59.976513 87.53544 
L 62.996308 88.17528 
L 66.016103 85.41984 
L 69.035898 85.17216 
L 72.055693 84.9348 
L 75.075488 85.01736 
L 78.095283 86.14224 
L 81.115078 85.90488 
L 84.134873 86.328 
L 87.154668 86.24544 
L 90.174463 85.72944 
L 93.194257 85.7088 
L 96.214052 86.40024 
L 99.233847 85.09992 
L 102.253642 86.02872 
L 105.273437 84.78 
L 108.293232 83.53128 
L 111.313027 82.83984 
L 114.332822 82.03488 
L 117.352617 79.39296 
L 120.372412 79.66128 
L 123.392207 82.15872 
L 126.412001 82.43736 
L 129.431796 82.93272 
L 132.451591 83.00496 
L 135.471386 82.6128 
L 138.491181 82.28256 
L 141.510976 78.01008 
L 144.530771 76.19376 
L 147.550566 77.66952 
L 150.570361 77.74176 
L 153.590156 78.1752 
L 156.609951 79.5684 
L 159.629745 80.8068 
L 162.64954 85.20312 
L 165.669335 84.12984 
L 168.68913 84.03696 
L 171.708925 84.06792 
L 174.72872 84.3156 
L 177.748515 87.02976 
L 180.76831 85.21344 
L 183.788105 84.28464 
L 186.8079 84.32592 
L 189.827695 89.08344 
L 192.847489 89.5272 
L 195.867284 95.14128 
L 198.887079 96.98856 
L 201.906874 95.08968 
L 204.456259 97.71096 
L 206.856052 99.80592 
L 209.874309 101.79768 
L 212.881172 100.03296 
L 215.969996 100.518 
L 218.964871 99.98136 
L 222.001897 100.49736 
L 225.015435 100.78632 
L 228.02436 101.07528 
L 231.043247 101.26104 
L 234.026727 100.63152 
L 236.887179 100.38384 
L 240.100674 100.84824 
L 242.741142 100.65216 
L 246.135475 101.034 
L 249.1516 101.19912 
L 252.153745 101.10624 
L 255.155086 100.97208 
L 258.209377 100.91016 
L 261.23826 101.7564 
L 264.002945 101.84928 
L 267.26698 101.56032 
L 270.273318 100.85856 
L 273.287381 101.12688 
L 276.271596 101.4468 
L 279.36 101.02368 
" clip-path="url(#pb6dfd5704f)" style="fill: none; stroke: #f5841e; stroke-width: 0.6"/>
   </g>
  </g>
 </g>
 <defs>
  <clipPath id="pb6dfd5704f">
   <rect x="8.64" y="4.8" width="270.72" height="103.2"/>
  </clipPath>
 </defs>
</svg>
