<?xml version="1.0" encoding="utf-8" standalone="no"?>
<!DOCTYPE svg PUBLIC "-//W3C//DTD SVG 1.1//EN"
  "http://www.w3.org/Graphics/SVG/1.1/DTD/svg11.dtd">
<svg xmlns:xlink="http://www.w3.org/1999/xlink" width="288pt" height="120pt" viewBox="0 0 288 120" xmlns="http://www.w3.org/2000/svg" version="1.1">
<desc id="nav-meta">{"window":"3m","count":4,"labels":["14.12","13.01","12.02","14.03"],"tick_utc":["2025-12-14T12:00:00Z","2026-01-13T12:00:00Z","2026-02-12T03:34:13Z","2026-03-14T03:15:02Z"],"w":720,"h":300}</desc>

 <metadata>
  <rdf:RDF xmlns:dc="http://purl.org/dc/elements/1.1/" xmlns:cc="http://creativecommons.org/ns#" xmlns:rdf="http://www.w3.org/1999/02/22-rdf-syntax-ns#">
   <cc:Work>
    <dc:type rdf:resource="http://purl.org/dc/dcmitype/StillImage"/>
    <dc:date>2026-03-14T03:15:04.810703</dc:date>
    <dc:format>image/svg+xml</dc:format>
    <dc:creator>
     <cc:Agent>
      <dc:title>Matplotlib v3.10.8, https://matplotlib.org/</dc:title>
     </cc:Agent>
    </dc:creator>
   </cc:Work>
  </rdf:RDF>
 </metadata>
 <defs>
  <style type="text/css">*{stroke-linejoin: round; stroke-linecap: butt}</style>
 </defs>
 <g id="figure_1">
  <g id="patch_1">
   <path d="M 0 120 
L 288 120 
L 288 0 
L 0 0 
L 0 120 
z
" style="fill: none; opacity: 0"/>
  </g>
  <g id="axes_1">
   <g id="patch_2">
    <path d="M 8.64 108 
L 279.36 108 
L 279.36 4.8 
L 8.64 4.8 
L 8.64 108 
z
" style="fill: none"/>
   </g>
   <g id="matplotlib.axis_1"/>
   <g id="matplotlib.axis_2"/>
   <g id="line2d_1">
    <path d="M 8.64 87.36 
L 279.36 87.36 
" clip-path="url(#p21831cb037)" style="fill: none; stroke: #b2b2b2; stroke-opacity: 0.35; stroke-width: 0.5; stroke-linecap: square"/>
   </g>
   <g id="line2d_2">
    <path d="M 8.64 66.72 
L 279.36 66.72 
" clip-path="url(#p21831cb037)" style="fill: none; stroke: #b2b2b2; stroke-opacity: 0.35; stroke-width: 0.5; stroke-linecap: square"/>
   </g>
   <g id="line2d_3">
    <path d="M 8.64 46.08 
L 279.36 46.08 
" clip-path="url(#p21831cb037)" style="fill: none; stroke: #b2b2b2; stroke-opacity: 0.35; stroke-width: 0.5; stroke-linecap: square"/>
   </g>
   <g id="line2d_4">
    <path d="M 8.64 25.44 
L 279.36 25.44 
" clip-path="url(#p21831cb037)" style="fill: none; stroke: #b2b2b2; stroke-opacity: 0.35; stroke-width: 0.5; stroke-linecap: square"/>
   </g>
   <g id="line2d_5">
    <path d="M 8.64 90.10512 
L 11.660234 91.09584 
L 14.680468 91.61184 
L 17.700702 91.31256 
L 20.720936 92.87088 
L 23.74117 93.8616 
L 26.761404 92.02464 
L 29.781638 92.13816 
L 32.801872 92.07624 
L 35.822106 92.14848 
L 38.84234 92.64384 
L 41.862574 93.01536 
L 44.882808 93.69648 
L 47.903042 93.11856 
L 50.923276 92.44776 
L 53.94351 92.30328 
L 56.963743 92.87088 
L 59.983977 92.38584 
L 63.004211 92.47872 
L 66.024445 91.88016 
L 69.044679 90.42504 
L 72.064913 90.08448 
L 75.085147 89.92968 
L 78.105381 88.76352 
L 81.125615 87.94824 
L 84.145849 89.2692 
L 87.166083 88.72224 
L 90.186317 89.39304 
L 93.206551 89.40336 
L 96.226785 88.41264 
L 99.247019 88.4952 
L 102.267253 86.86464 
L 105.287487 86.42088 
L 108.307721 87.62832 
L 111.327955 86.93688 
L 114.348189 87.23616 
L 117.368423 88.63968 
L 120.388657 90.0432 
L 123.408891 92.12784 
L 126.429125 91.16808 
L 129.449359 91.46736 
L 132.469593 91.73568 
L 135.489827 91.78728 
L 138.510061 94.0164 
L 141.530295 92.5716 
L 144.550529 91.76664 
L 147.570762 92.33424 
L 150.590996 94.36728 
L 153.61123 94.46016 
L 156.631464 97.71096 
L 159.651698 98.48496 
L 162.671932 97.85544 
L 165.221688 99.10416 
L 167.62183 100.16712 
L 170.640526 102.23112 
L 173.647826 100.54896 
L 176.737099 100.70376 
L 179.732409 100.68312 
L 182.769877 100.95144 
L 185.783853 101.28168 
L 188.793216 101.71512 
L 191.812541 101.84928 
L 194.796455 101.034 
L 197.657323 100.54896 
L 200.871285 101.04432 
L 203.512137 100.81728 
L 206.906964 101.034 
L 209.923528 101.4984 
L 212.926109 101.33328 
L 215.927886 101.1372 
L 218.982622 101.06496 
L 222.011944 102.09696 
L 224.777031 102.05568 
L 228.041541 101.4984 
L 231.048316 100.60056 
L 234.062818 100.80696 
L 237.047466 101.45712 
L 240.136319 100.55928 
L 243.125372 101.10624 
L 246.152632 100.8792 
L 249.155947 100.74504 
L 252.182683 100.21872 
L 255.201484 100.53864 
L 258.198542 101.07528 
L 261.248104 101.38488 
L 264.277392 101.26104 
L 267.278225 100.78632 
L 270.297271 100.91016 
L 273.32939 100.99272 
L 276.343786 100.38384 
L 279.36 100.50768 
" clip-path="url(#p21831cb037)" style="fill: none; stroke: #bebebe; stroke-width: 0.5; stroke-linecap: round"/>
   </g>
   <g id="line2d_6">
    <path d="M 8.64 73.35576 
L 11.660234 74.0988 
L 14.680468 75.5952 
L 17.700702 75.5952 
L 20.720936 77.61792 
L 23.74117 77.63856 
L 26.761404 75.40944 
L 29.781638 75.40944 
L 32.801872 75.04824 
L 35.822106 74.98632 
L 38.84234 75.58488 
L 41.862574 75.87384 
L 44.882808 76.49304 
L 47.903042 76.15248 
L 50.923276 75.82224 
L 53.94351 75.84288 
L 56.963743 76.03896 
L 59.983977 75.51264 
L 63.004211 75.56424 
L 66.024445 75.05856 
L 69.044679 73.26288 
L 72.064913 73.20096 
L 75.085147 73.00488 
L 78.105381 71.68392 
L 81.125615 70.6932 
L 84.145849 72.62304 
L 87.166083 73.52088 
L 90.186317 73.83048 
L 93.206551 73.8408 
L 96.226785 73.29384 
L 99.247019 73.72728 
L 102.267253 70.32168 
L 105.287487 69.77472 
L 108.307721 70.34232 
L 111.327955 70.67256 
L 114.348189 70.51776 
L 117.368423 70.848 
L 120.388657 72.31344 
L 123.408891 76.01832 
L 126.429125 75.41976 
L 129.449359 75.83256 
L 132.469593 75.79128 
L 135.489827 75.82224 
L 138.510061 77.82432 
L 141.530295 76.14216 
L 144.550529 74.75928 
L 147.570762 74.96568 
L 150.590996 77.75208 
L 153.61123 79.48584 
L 156.631464 83.31456 
L 159.651698 85.90488 
L 162.671932 84.79032 
L 165.221688 85.84296 
L 167.62183 88.25784 
L 170.640526 91.41576 
L 173.647826 88.7532 
L 176.737099 88.65 
L 179.732409 88.55712 
L 182.769877 88.96992 
L 185.783853 89.7336 
L 188.793216 90.456 
L 191.812541 90.56952 
L 194.796455 89.15568 
L 197.657323 88.9596 
L 200.871285 90.6624 
L 203.512137 89.94 
L 206.906964 90.00192 
L 209.923528 90.3528 
L 212.926109 90.62112 
L 215.927886 90.5076 
L 218.982622 90.3528 
L 222.011944 92.004 
L 224.777031 92.13816 
L 228.041541 91.25064 
L 231.048316 89.166 
L 234.062818 89.56848 
L 237.047466 90.93072 
L 240.136319 89.41368 
L 243.125372 90.37344 
L 246.152632 89.79552 
L 249.155947 90.23928 
L 252.182683 88.0824 
L 255.201484 88.7532 
L 258.198542 90.16704 
L 261.248104 90.67272 
L 264.277392 90.18768 
L 267.278225 89.2692 
L 270.297271 89.54784 
L 273.32939 89.49624 
L 276.343786 88.31976 
L 279.36 88.45392 
" clip-path="url(#p21831cb037)" style="fill: none; stroke: #4a8dff; stroke-width: 0.6"/>
   </g>
   <g id="line2d_7">
    <path d="M 8.64 83.19072 
L 11.660234 85.296 
L 14.680468 87.17424 
L 17.700702 85.71912 
L 20.720936 87.53544 
L 23.74117 88.17528 
L 26.761404 85.41984 
L 29.781638 85.17216 
L 32.801872 84.9348 
L 35.822106 85.01736 
L 38.84234 86.14224 
L 41.862574 85.90488 
L 44.882808 86.328 
L 47.903042 86.24544 
L 50.923276 85.72944 
L 53.94351 85.7088 
L 56.963743 86.40024 
L 59.983977 85.09992 
L 63.004211 86.02872 
L 66.024445 84.78 
L 69.044679 83.53128 
L 72.064913 82.83984 
L 75.085147 82.03488 
L 78.105381 79.39296 
L 81.125615 79.66128 
L 84.145849 82.15872 
L 87.166083 82.43736 
L 90.186317 82.93272 
L 93.206551 83.00496 
L 96.226785 82.6128 
L 99.247019 82.28256 
L 102.267253 78.01008 
L 105.287487 76.19376 
L 108.307721 77.66952 
L 111.327955 77.74176 
L 114.348189 78.1752 
L 117.368423 79.5684 
L 120.388657 80.8068 
L 123.408891 85.20312 
L 126.429125 84.12984 
L 129.449359 84.03696 
L 132.469593 84.06792 
L 135.489827 84.3156 
L 138.510061 87.02976 
L 141.530295 85.21344 
L 144.550529 84.28464 
L 147.570762 84.32592 
L 150.590996 89.08344 
L 153.61123 89.5272 
L 156.631464 95.14128 
L 159.651698 96.98856 
L 162.671932 95.08968 
L 165.221688 97.71096 
L 167.62183 99.80592 
L 170.640526 101.79768 
L 173.647826 100.03296 
L 176.737099 100.518 
L 179.732409 99.98136 
L 182.769877 100.49736 
L 185.783853 100.78632 
L 188.793216 101.07528 
L 191.812541 101.26104 
L 194.796455 100.63152 
L 197.657323 100.38384 
L 200.871285 100.84824 
L 203.512137 100.65216 
L 206.906964 101.034 
L 209.923528 101.19912 
L 212.926109 101.10624 
L 215.927886 100.97208 
L 218.982622 100.91016 
L 222.011944 101.7564 
L 224.777031 101.84928 
L 228.041541 101.56032 
L 231.048316 100.85856 
L 234.062818 101.12688 
L 237.047466 101.4468 
L 240.136319 101.02368 
L 243.125372 101.30232 
L 246.152632 100.81728 
L 249.155947 100.79664 
L 252.182683 99.3312 
L 255.201484 99.92976 
L 258.198542 100.78632 
L 261.248104 101.17848 
L 264.277392 101.1372 
L 267.278225 100.21872 
L 270.297271 100.37352 
L 273.32939 100.4664 
L 276.343786 99.88848 
L 279.36 99.94008 
" clip-path="url(#p21831cb037)" style="fill: none; stroke: #f5841e; stroke-width: 0.6"/>
   </g>
  </g>
 </g>
 <defs>
  <clipPath id="p21831cb037">
   <rect x="8.64" y="4.8" width="270.72" height="103.2"/>
  </clipPath>
 </defs>
</svg>
