<?xml version="1.0" encoding="utf-8" standalone="no"?>
<!DOCTYPE svg PUBLIC "-//W3C//DTD SVG 1.1//EN"
  "http://www.w3.org/Graphics/SVG/1.1/DTD/svg11.dtd">
<svg xmlns:xlink="http://www.w3.org/1999/xlink" width="288pt" height="120pt" viewBox="0 0 288 120" xmlns="http://www.w3.org/2000/svg" version="1.1">
<desc id="nav-meta">{"window":"1m","count":4,"labels":["19.01","29.01","07.02","17.02"],"tick_utc":["2026-01-19T12:00:00Z","2026-01-29T12:00:00Z","2026-02-07T03:13:08Z","2026-02-17T00:31:58Z"],"w":720,"h":300}</desc>

 <metadata>
  <rdf:RDF xmlns:dc="http://purl.org/dc/elements/1.1/" xmlns:cc="http://creativecommons.org/ns#" xmlns:rdf="http://www.w3.org/1999/02/22-rdf-syntax-ns#">
   <cc:Work>
    <dc:type rdf:resource="http://purl.org/dc/dcmitype/StillImage"/>
    <dc:date>2026-02-17T13:52:18.257782</dc:date>
    <dc:format>image/svg+xml</dc:format>
    <dc:creator>
     <cc:Agent>
      <dc:title>Matplotlib v3.10.8, https://matplotlib.org/</dc:title>
     </cc:Agent>
    </dc:creator>
   </cc:Work>
  </rdf:RDF>
 </metadata>
 <defs>
  <style type="text/css">*{stroke-linejoin: round; stroke-linecap: butt}</style>
 </defs>
 <g id="figure_1">
  <g id="patch_1">
   <path d="M 0 120 
L 288 120 
L 288 0 
L 0 0 
L 0 120 
z
" style="fill: none; opacity: 0"/>
  </g>
  <g id="axes_1">
   <g id="patch_2">
    <path d="M 8.64 108 
L 279.36 108 
L 279.36 4.8 
L 8.64 4.8 
L 8.64 108 
z
" style="fill: none"/>
   </g>
   <g id="matplotlib.axis_1"/>
   <g id="matplotlib.axis_2"/>
   <g id="line2d_1">
    <path d="M 8.64 87.36 
L 279.36 87.36 
" clip-path="url(#pd169856969)" style="fill: none; stroke: #b2b2b2; stroke-opacity: 0.35; stroke-width: 0.5; stroke-linecap: square"/>
   </g>
   <g id="line2d_2">
    <path d="M 8.64 66.72 
L 279.36 66.72 
" clip-path="url(#pd169856969)" style="fill: none; stroke: #b2b2b2; stroke-opacity: 0.35; stroke-width: 0.5; stroke-linecap: square"/>
   </g>
   <g id="line2d_3">
    <path d="M 8.64 46.08 
L 279.36 46.08 
" clip-path="url(#pd169856969)" style="fill: none; stroke: #b2b2b2; stroke-opacity: 0.35; stroke-width: 0.5; stroke-linecap: square"/>
   </g>
   <g id="line2d_4">
    <path d="M 8.64 25.44 
L 279.36 25.44 
" clip-path="url(#pd169856969)" style="fill: none; stroke: #b2b2b2; stroke-opacity: 0.35; stroke-width: 0.5; stroke-linecap: square"/>
   </g>
   <g id="line2d_5">
    <path d="M 8.64 88.63968 
L 18.131554 90.0432 
L 27.623109 92.12784 
L 37.114663 91.16808 
L 46.606217 91.46736 
L 56.097771 91.73568 
L 65.589326 91.78728 
L 75.08088 94.0164 
L 84.572434 92.5716 
L 94.063988 91.76664 
L 103.555543 92.33424 
L 113.047097 94.36728 
L 122.538651 94.46016 
L 132.030205 97.71096 
L 141.52176 98.48496 
L 151.013314 97.85544 
L 159.026317 99.10416 
L 166.569136 100.16712 
L 176.055857 102.23112 
L 185.506765 100.54896 
L 195.215284 100.70376 
L 204.628511 100.68312 
L 214.174224 100.95144 
L 223.646115 101.28168 
L 233.103504 101.71512 
L 242.592202 101.84928 
L 251.969615 101.034 
L 260.960336 100.54896 
L 271.060712 101.04432 
L 279.36 100.81728 
" clip-path="url(#pd169856969)" style="fill: none; stroke: #bebebe; stroke-width: 0.5; stroke-linecap: round"/>
   </g>
   <g id="line2d_6">
    <path d="M 8.64 70.848 
L 18.131554 72.31344 
L 27.623109 76.01832 
L 37.114663 75.41976 
L 46.606217 75.83256 
L 56.097771 75.79128 
L 65.589326 75.82224 
L 75.08088 77.82432 
L 84.572434 76.14216 
L 94.063988 74.75928 
L 103.555543 74.96568 
L 113.047097 77.75208 
L 122.538651 79.48584 
L 132.030205 83.31456 
L 141.52176 85.90488 
L 151.013314 84.79032 
L 159.026317 85.84296 
L 166.569136 88.25784 
L 176.055857 91.41576 
L 185.506765 88.7532 
L 195.215284 88.65 
L 204.628511 88.55712 
L 214.174224 88.96992 
L 223.646115 89.7336 
L 233.103504 90.456 
L 242.592202 90.56952 
L 251.969615 89.15568 
L 260.960336 88.9596 
L 271.060712 90.6624 
L 279.36 89.94 
" clip-path="url(#pd169856969)" style="fill: none; stroke: #4a8dff; stroke-width: 0.6"/>
   </g>
   <g id="line2d_7">
    <path d="M 8.64 79.5684 
L 18.131554 80.8068 
L 27.623109 85.20312 
L 37.114663 84.12984 
L 46.606217 84.03696 
L 56.097771 84.06792 
L 65.589326 84.3156 
L 75.08088 87.02976 
L 84.572434 85.21344 
L 94.063988 84.28464 
L 103.555543 84.32592 
L 113.047097 89.08344 
L 122.538651 89.5272 
L 132.030205 95.14128 
L 141.52176 96.98856 
L 151.013314 95.08968 
L 159.026317 97.71096 
L 166.569136 99.80592 
L 176.055857 101.79768 
L 185.506765 100.03296 
L 195.215284 100.518 
L 204.628511 99.98136 
L 214.174224 100.49736 
L 223.646115 100.78632 
L 233.103504 101.07528 
L 242.592202 101.26104 
L 251.969615 100.63152 
L 260.960336 100.38384 
L 271.060712 100.84824 
L 279.36 100.65216 
" clip-path="url(#pd169856969)" style="fill: none; stroke: #f5841e; stroke-width: 0.6"/>
   </g>
  </g>
 </g>
 <defs>
  <clipPath id="pd169856969">
   <rect x="8.64" y="4.8" width="270.72" height="103.2"/>
  </clipPath>
 </defs>
</svg>
