<?xml version="1.0" encoding="utf-8" standalone="no"?>
<!DOCTYPE svg PUBLIC "-//W3C//DTD SVG 1.1//EN"
  "http://www.w3.org/Graphics/SVG/1.1/DTD/svg11.dtd">
<svg xmlns:xlink="http://www.w3.org/1999/xlink" width="288pt" height="120pt" viewBox="0 0 288 120" xmlns="http://www.w3.org/2000/svg" version="1.1">
<desc id="nav-meta">{"window":"3m","count":4,"labels":["18.12","17.01","16.02","18.03"],"tick_utc":["2025-12-18T12:00:00Z","2026-01-17T12:00:00Z","2026-02-16T03:32:51Z","2026-03-18T03:32:26Z"],"w":720,"h":300}</desc>

 <metadata>
  <rdf:RDF xmlns:dc="http://purl.org/dc/elements/1.1/" xmlns:cc="http://creativecommons.org/ns#" xmlns:rdf="http://www.w3.org/1999/02/22-rdf-syntax-ns#">
   <cc:Work>
    <dc:type rdf:resource="http://purl.org/dc/dcmitype/StillImage"/>
    <dc:date>2026-03-18T03:32:28.173842</dc:date>
    <dc:format>image/svg+xml</dc:format>
    <dc:creator>
     <cc:Agent>
      <dc:title>Matplotlib v3.10.8, https://matplotlib.org/</dc:title>
     </cc:Agent>
    </dc:creator>
   </cc:Work>
  </rdf:RDF>
 </metadata>
 <defs>
  <style type="text/css">*{stroke-linejoin: round; stroke-linecap: butt}</style>
 </defs>
 <g id="figure_1">
  <g id="patch_1">
   <path d="M 0 120 
L 288 120 
L 288 0 
L 0 0 
L 0 120 
z
" style="fill: none; opacity: 0"/>
  </g>
  <g id="axes_1">
   <g id="patch_2">
    <path d="M 8.64 108 
L 279.36 108 
L 279.36 4.8 
L 8.64 4.8 
L 8.64 108 
z
" style="fill: none"/>
   </g>
   <g id="matplotlib.axis_1"/>
   <g id="matplotlib.axis_2"/>
   <g id="line2d_1">
    <path d="M 8.64 87.36 
L 279.36 87.36 
" clip-path="url(#p7f3e3f6092)" style="fill: none; stroke: #b2b2b2; stroke-opacity: 0.35; stroke-width: 0.5; stroke-linecap: square"/>
   </g>
   <g id="line2d_2">
    <path d="M 8.64 66.72 
L 279.36 66.72 
" clip-path="url(#p7f3e3f6092)" style="fill: none; stroke: #b2b2b2; stroke-opacity: 0.35; stroke-width: 0.5; stroke-linecap: square"/>
   </g>
   <g id="line2d_3">
    <path d="M 8.64 46.08 
L 279.36 46.08 
" clip-path="url(#p7f3e3f6092)" style="fill: none; stroke: #b2b2b2; stroke-opacity: 0.35; stroke-width: 0.5; stroke-linecap: square"/>
   </g>
   <g id="line2d_4">
    <path d="M 8.64 25.44 
L 279.36 25.44 
" clip-path="url(#p7f3e3f6092)" style="fill: none; stroke: #b2b2b2; stroke-opacity: 0.35; stroke-width: 0.5; stroke-linecap: square"/>
   </g>
   <g id="line2d_5">
    <path d="M 8.64 92.87088 
L 11.659827 93.8616 
L 14.679654 92.02464 
L 17.699481 92.13816 
L 20.719308 92.07624 
L 23.739134 92.14848 
L 26.758961 92.64384 
L 29.778788 93.01536 
L 32.798615 93.69648 
L 35.818442 93.11856 
L 38.838269 92.44776 
L 41.858096 92.30328 
L 44.877923 92.87088 
L 47.897749 92.38584 
L 50.917576 92.47872 
L 53.937403 91.88016 
L 56.95723 90.42504 
L 59.977057 90.08448 
L 62.996884 89.92968 
L 66.016711 88.76352 
L 69.036538 87.94824 
L 72.056364 89.2692 
L 75.076191 88.72224 
L 78.096018 89.39304 
L 81.115845 89.40336 
L 84.135672 88.41264 
L 87.155499 88.4952 
L 90.175326 86.86464 
L 93.195153 86.42088 
L 96.214979 87.62832 
L 99.234806 86.93688 
L 102.254633 87.23616 
L 105.27446 88.63968 
L 108.294287 90.0432 
L 111.314114 92.12784 
L 114.333941 91.16808 
L 117.353768 91.46736 
L 120.373595 91.73568 
L 123.393421 91.78728 
L 126.413248 94.0164 
L 129.433075 92.5716 
L 132.452902 91.76664 
L 135.472729 92.33424 
L 138.492556 94.36728 
L 141.512383 94.46016 
L 144.53221 97.71096 
L 147.552036 98.48496 
L 150.571863 97.85544 
L 153.121275 99.10416 
L 155.521094 100.16712 
L 158.539383 102.23112 
L 161.546278 100.54896 
L 164.635134 100.70376 
L 167.63004 100.68312 
L 170.667099 100.95144 
L 173.680669 101.28168 
L 176.689626 101.71512 
L 179.708544 101.84928 
L 182.692056 101.034 
L 185.552538 100.54896 
L 188.766067 101.04432 
L 191.406564 100.81728 
L 194.800933 101.034 
L 197.81709 101.4984 
L 200.819266 101.33328 
L 203.820638 101.1372 
L 206.874963 101.06496 
L 209.903877 102.09696 
L 212.668591 102.05568 
L 215.932661 101.4984 
L 218.939031 100.60056 
L 221.953126 100.80696 
L 224.937372 101.45712 
L 228.025809 100.55928 
L 231.014459 101.10624 
L 234.041311 100.8792 
L 237.044221 100.74504 
L 240.070549 100.21872 
L 243.088943 100.53864 
L 246.085597 101.07528 
L 249.134749 101.38488 
L 252.163628 101.26104 
L 255.164057 100.78632 
L 258.182695 100.91016 
L 261.214406 100.99272 
L 264.228395 100.38384 
L 267.244203 100.50768 
L 270.321805 100.60056 
L 273.35016 99.76464 
L 276.31714 99.49632 
L 279.36 99.40344 
" clip-path="url(#p7f3e3f6092)" style="fill: none; stroke: #bebebe; stroke-width: 0.5; stroke-linecap: round"/>
   </g>
   <g id="line2d_6">
    <path d="M 8.64 77.61792 
L 11.659827 77.63856 
L 14.679654 75.40944 
L 17.699481 75.40944 
L 20.719308 75.04824 
L 23.739134 74.98632 
L 26.758961 75.58488 
L 29.778788 75.87384 
L 32.798615 76.49304 
L 35.818442 76.15248 
L 38.838269 75.82224 
L 41.858096 75.84288 
L 44.877923 76.03896 
L 47.897749 75.51264 
L 50.917576 75.56424 
L 53.937403 75.05856 
L 56.95723 73.26288 
L 59.977057 73.20096 
L 62.996884 73.00488 
L 66.016711 71.68392 
L 69.036538 70.6932 
L 72.056364 72.62304 
L 75.076191 73.52088 
L 78.096018 73.83048 
L 81.115845 73.8408 
L 84.135672 73.29384 
L 87.155499 73.72728 
L 90.175326 70.32168 
L 93.195153 69.77472 
L 96.214979 70.34232 
L 99.234806 70.67256 
L 102.254633 70.51776 
L 105.27446 70.848 
L 108.294287 72.31344 
L 111.314114 76.01832 
L 114.333941 75.41976 
L 117.353768 75.83256 
L 120.373595 75.79128 
L 123.393421 75.82224 
L 126.413248 77.82432 
L 129.433075 76.14216 
L 132.452902 74.75928 
L 135.472729 74.96568 
L 138.492556 77.75208 
L 141.512383 79.48584 
L 144.53221 83.31456 
L 147.552036 85.90488 
L 150.571863 84.79032 
L 153.121275 85.84296 
L 155.521094 88.25784 
L 158.539383 91.41576 
L 161.546278 88.7532 
L 164.635134 88.65 
L 167.63004 88.55712 
L 170.667099 88.96992 
L 173.680669 89.7336 
L 176.689626 90.456 
L 179.708544 90.56952 
L 182.692056 89.15568 
L 185.552538 88.9596 
L 188.766067 90.6624 
L 191.406564 89.94 
L 194.800933 90.00192 
L 197.81709 90.3528 
L 200.819266 90.62112 
L 203.820638 90.5076 
L 206.874963 90.3528 
L 209.903877 92.004 
L 212.668591 92.13816 
L 215.932661 91.25064 
L 218.939031 89.166 
L 221.953126 89.56848 
L 224.937372 90.93072 
L 228.025809 89.41368 
L 231.014459 90.37344 
L 234.041311 89.79552 
L 237.044221 90.23928 
L 240.070549 88.0824 
L 243.088943 88.7532 
L 246.085597 90.16704 
L 249.134749 90.67272 
L 252.163628 90.18768 
L 255.164057 89.2692 
L 258.182695 89.54784 
L 261.214406 89.49624 
L 264.228395 88.31976 
L 267.244203 88.45392 
L 270.321805 88.46424 
L 273.35016 86.38992 
L 276.31714 84.80064 
L 279.36 84.8316 
" clip-path="url(#p7f3e3f6092)" style="fill: none; stroke: #4a8dff; stroke-width: 0.6"/>
   </g>
   <g id="line2d_7">
    <path d="M 8.64 87.53544 
L 11.659827 88.17528 
L 14.679654 85.41984 
L 17.699481 85.17216 
L 20.719308 84.9348 
L 23.739134 85.01736 
L 26.758961 86.14224 
L 29.778788 85.90488 
L 32.798615 86.328 
L 35.818442 86.24544 
L 38.838269 85.72944 
L 41.858096 85.7088 
L 44.877923 86.40024 
L 47.897749 85.09992 
L 50.917576 86.02872 
L 53.937403 84.78 
L 56.95723 83.53128 
L 59.977057 82.83984 
L 62.996884 82.03488 
L 66.016711 79.39296 
L 69.036538 79.66128 
L 72.056364 82.15872 
L 75.076191 82.43736 
L 78.096018 82.93272 
L 81.115845 83.00496 
L 84.135672 82.6128 
L 87.155499 82.28256 
L 90.175326 78.01008 
L 93.195153 76.19376 
L 96.214979 77.66952 
L 99.234806 77.74176 
L 102.254633 78.1752 
L 105.27446 79.5684 
L 108.294287 80.8068 
L 111.314114 85.20312 
L 114.333941 84.12984 
L 117.353768 84.03696 
L 120.373595 84.06792 
L 123.393421 84.3156 
L 126.413248 87.02976 
L 129.433075 85.21344 
L 132.452902 84.28464 
L 135.472729 84.32592 
L 138.492556 89.08344 
L 141.512383 89.5272 
L 144.53221 95.14128 
L 147.552036 96.98856 
L 150.571863 95.08968 
L 153.121275 97.71096 
L 155.521094 99.80592 
L 158.539383 101.79768 
L 161.546278 100.03296 
L 164.635134 100.518 
L 167.63004 99.98136 
L 170.667099 100.49736 
L 173.680669 100.78632 
L 176.689626 101.07528 
L 179.708544 101.26104 
L 182.692056 100.63152 
L 185.552538 100.38384 
L 188.766067 100.84824 
L 191.406564 100.65216 
L 194.800933 101.034 
L 197.81709 101.19912 
L 200.819266 101.10624 
L 203.820638 100.97208 
L 206.874963 100.91016 
L 209.903877 101.7564 
L 212.668591 101.84928 
L 215.932661 101.56032 
L 218.939031 100.85856 
L 221.953126 101.12688 
L 224.937372 101.4468 
L 228.025809 101.02368 
L 231.014459 101.30232 
L 234.041311 100.81728 
L 237.044221 100.79664 
L 240.070549 99.3312 
L 243.088943 99.92976 
L 246.085597 100.78632 
L 249.134749 101.17848 
L 252.163628 101.1372 
L 255.164057 100.21872 
L 258.182695 100.37352 
L 261.214406 100.4664 
L 264.228395 99.88848 
L 267.244203 99.94008 
L 270.321805 99.81624 
L 273.35016 98.93904 
L 276.31714 98.3508 
L 279.36 98.52624 
" clip-path="url(#p7f3e3f6092)" style="fill: none; stroke: #f5841e; stroke-width: 0.6"/>
   </g>
  </g>
 </g>
 <defs>
  <clipPath id="p7f3e3f6092">
   <rect x="8.64" y="4.8" width="270.72" height="103.2"/>
  </clipPath>
 </defs>
</svg>
