<?xml version="1.0" encoding="utf-8" standalone="no"?>
<!DOCTYPE svg PUBLIC "-//W3C//DTD SVG 1.1//EN"
  "http://www.w3.org/Graphics/SVG/1.1/DTD/svg11.dtd">
<svg xmlns:xlink="http://www.w3.org/1999/xlink" width="288pt" height="120pt" viewBox="0 0 288 120" xmlns="http://www.w3.org/2000/svg" version="1.1">
<desc id="nav-meta">{"window":"1m","count":4,"labels":["10.03","20.03","29.03","08.04"],"tick_utc":["2026-03-10T03:14:38Z","2026-03-20T03:18:49Z","2026-03-29T03:47:09Z","2026-04-08T03:43:16Z"],"w":720,"h":300}</desc>

 <metadata>
  <rdf:RDF xmlns:dc="http://purl.org/dc/elements/1.1/" xmlns:cc="http://creativecommons.org/ns#" xmlns:rdf="http://www.w3.org/1999/02/22-rdf-syntax-ns#">
   <cc:Work>
    <dc:type rdf:resource="http://purl.org/dc/dcmitype/StillImage"/>
    <dc:date>2026-04-08T03:43:19.154091</dc:date>
    <dc:format>image/svg+xml</dc:format>
    <dc:creator>
     <cc:Agent>
      <dc:title>Matplotlib v3.10.8, https://matplotlib.org/</dc:title>
     </cc:Agent>
    </dc:creator>
   </cc:Work>
  </rdf:RDF>
 </metadata>
 <defs>
  <style type="text/css">*{stroke-linejoin: round; stroke-linecap: butt}</style>
 </defs>
 <g id="figure_1">
  <g id="patch_1">
   <path d="M 0 120 
L 288 120 
L 288 0 
L 0 0 
L 0 120 
z
" style="fill: none; opacity: 0"/>
  </g>
  <g id="axes_1">
   <g id="patch_2">
    <path d="M 8.64 108 
L 279.36 108 
L 279.36 4.8 
L 8.64 4.8 
L 8.64 108 
z
" style="fill: none"/>
   </g>
   <g id="matplotlib.axis_1"/>
   <g id="matplotlib.axis_2"/>
   <g id="line2d_1">
    <path d="M 8.64 87.36 
L 279.36 87.36 
" clip-path="url(#p92f5572a02)" style="fill: none; stroke: #b2b2b2; stroke-opacity: 0.35; stroke-width: 0.5; stroke-linecap: square"/>
   </g>
   <g id="line2d_2">
    <path d="M 8.64 66.72 
L 279.36 66.72 
" clip-path="url(#p92f5572a02)" style="fill: none; stroke: #b2b2b2; stroke-opacity: 0.35; stroke-width: 0.5; stroke-linecap: square"/>
   </g>
   <g id="line2d_3">
    <path d="M 8.64 46.08 
L 279.36 46.08 
" clip-path="url(#p92f5572a02)" style="fill: none; stroke: #b2b2b2; stroke-opacity: 0.35; stroke-width: 0.5; stroke-linecap: square"/>
   </g>
   <g id="line2d_4">
    <path d="M 8.64 25.44 
L 279.36 25.44 
" clip-path="url(#p92f5572a02)" style="fill: none; stroke: #b2b2b2; stroke-opacity: 0.35; stroke-width: 0.5; stroke-linecap: square"/>
   </g>
   <g id="line2d_5">
    <path d="M 8.64 100.78632 
L 17.965105 100.91016 
L 27.330591 100.99272 
L 36.641336 100.38384 
L 45.957695 100.50768 
L 55.464949 100.60056 
L 64.82007 99.76464 
L 73.985593 99.49632 
L 83.385522 99.40344 
L 92.716889 100.09488 
L 101.954861 100.3632 
L 111.229003 100.19808 
L 120.697279 100.47672 
L 130.047973 100.79664 
L 139.290372 100.26 
L 149.313947 99.83688 
L 158.061402 100.13616 
L 167.401947 100.80696 
L 176.641538 101.38488 
L 186.097397 101.3436 
L 195.452842 101.292 
L 204.722774 101.28168 
L 214.131557 101.28168 
L 223.337461 101.8596 
L 232.676926 101.88024 
L 241.925803 101.72544 
L 251.39505 101.68416 
L 260.747904 101.47776 
L 270.016108 101.78736 
L 279.36 101.09592 
" clip-path="url(#p92f5572a02)" style="fill: none; stroke: #bebebe; stroke-width: 0.5; stroke-linecap: round"/>
   </g>
   <g id="line2d_6">
    <path d="M 8.64 89.2692 
L 17.965105 89.54784 
L 27.330591 89.49624 
L 36.641336 88.31976 
L 45.957695 88.45392 
L 55.464949 88.46424 
L 64.82007 86.38992 
L 73.985593 84.80064 
L 83.385522 84.8316 
L 92.716889 86.586 
L 101.954861 87.74184 
L 111.229003 87.618 
L 120.697279 88.19592 
L 130.047973 89.08344 
L 139.290372 87.89664 
L 149.313947 87.3084 
L 158.061402 87.65928 
L 167.401947 88.96992 
L 176.641538 90.07416 
L 186.097397 89.76456 
L 195.452842 89.3724 
L 204.722774 89.00088 
L 214.131557 88.42296 
L 223.337461 88.81512 
L 232.676926 89.10408 
L 241.925803 89.14536 
L 251.39505 89.07312 
L 260.747904 87.9792 
L 270.016108 88.29912 
L 279.36 86.38992 
" clip-path="url(#p92f5572a02)" style="fill: none; stroke: #4a8dff; stroke-width: 0.6"/>
   </g>
   <g id="line2d_7">
    <path d="M 8.64 100.21872 
L 17.965105 100.37352 
L 27.330591 100.4664 
L 36.641336 99.88848 
L 45.957695 99.94008 
L 55.464949 99.81624 
L 64.82007 98.93904 
L 73.985593 98.3508 
L 83.385522 98.52624 
L 92.716889 99.78528 
L 101.954861 100.12584 
L 111.229003 100.03296 
L 120.697279 100.45608 
L 130.047973 100.83792 
L 139.290372 100.11552 
L 149.313947 99.87816 
L 158.061402 100.002 
L 167.401947 100.64184 
L 176.641538 101.41584 
L 186.097397 101.21976 
L 195.452842 101.14752 
L 204.722774 101.00304 
L 214.131557 100.86888 
L 223.337461 101.21976 
L 232.676926 101.28168 
L 241.925803 101.20944 
L 251.39505 101.14752 
L 260.747904 100.55928 
L 270.016108 100.65216 
L 279.36 99.80592 
" clip-path="url(#p92f5572a02)" style="fill: none; stroke: #f5841e; stroke-width: 0.6"/>
   </g>
  </g>
 </g>
 <defs>
  <clipPath id="p92f5572a02">
   <rect x="8.64" y="4.8" width="270.72" height="103.2"/>
  </clipPath>
 </defs>
</svg>
