<?xml version="1.0" encoding="utf-8" standalone="no"?>
<!DOCTYPE svg PUBLIC "-//W3C//DTD SVG 1.1//EN"
  "http://www.w3.org/Graphics/SVG/1.1/DTD/svg11.dtd">
<svg xmlns:xlink="http://www.w3.org/1999/xlink" width="288pt" height="120pt" viewBox="0 0 288 120" xmlns="http://www.w3.org/2000/svg" version="1.1">
<desc id="nav-meta">{"window":"1m","count":4,"labels":["15.01","25.01","04.02","14.02"],"tick_utc":["2026-01-15T12:00:00Z","2026-01-25T12:00:00Z","2026-02-04T08:15:41Z","2026-02-14T03:16:28Z"],"w":720,"h":300}</desc>

 <metadata>
  <rdf:RDF xmlns:dc="http://purl.org/dc/elements/1.1/" xmlns:cc="http://creativecommons.org/ns#" xmlns:rdf="http://www.w3.org/1999/02/22-rdf-syntax-ns#">
   <cc:Work>
    <dc:type rdf:resource="http://purl.org/dc/dcmitype/StillImage"/>
    <dc:date>2026-02-14T03:16:33.132179</dc:date>
    <dc:format>image/svg+xml</dc:format>
    <dc:creator>
     <cc:Agent>
      <dc:title>Matplotlib v3.10.8, https://matplotlib.org/</dc:title>
     </cc:Agent>
    </dc:creator>
   </cc:Work>
  </rdf:RDF>
 </metadata>
 <defs>
  <style type="text/css">*{stroke-linejoin: round; stroke-linecap: butt}</style>
 </defs>
 <g id="figure_1">
  <g id="patch_1">
   <path d="M 0 120 
L 288 120 
L 288 0 
L 0 0 
L 0 120 
z
" style="fill: none; opacity: 0"/>
  </g>
  <g id="axes_1">
   <g id="patch_2">
    <path d="M 8.64 108 
L 279.36 108 
L 279.36 4.8 
L 8.64 4.8 
L 8.64 108 
z
" style="fill: none"/>
   </g>
   <g id="matplotlib.axis_1"/>
   <g id="matplotlib.axis_2"/>
   <g id="line2d_1">
    <path d="M 8.64 87.36 
L 279.36 87.36 
" clip-path="url(#p55a53ba461)" style="fill: none; stroke: #b2b2b2; stroke-opacity: 0.35; stroke-width: 0.5; stroke-linecap: square"/>
   </g>
   <g id="line2d_2">
    <path d="M 8.64 66.72 
L 279.36 66.72 
" clip-path="url(#p55a53ba461)" style="fill: none; stroke: #b2b2b2; stroke-opacity: 0.35; stroke-width: 0.5; stroke-linecap: square"/>
   </g>
   <g id="line2d_3">
    <path d="M 8.64 46.08 
L 279.36 46.08 
" clip-path="url(#p55a53ba461)" style="fill: none; stroke: #b2b2b2; stroke-opacity: 0.35; stroke-width: 0.5; stroke-linecap: square"/>
   </g>
   <g id="line2d_4">
    <path d="M 8.64 25.44 
L 279.36 25.44 
" clip-path="url(#p55a53ba461)" style="fill: none; stroke: #b2b2b2; stroke-opacity: 0.35; stroke-width: 0.5; stroke-linecap: square"/>
   </g>
   <g id="line2d_5">
    <path d="M 8.64 86.42088 
L 17.774702 87.62832 
L 26.909404 86.93688 
L 36.044106 87.23616 
L 45.178807 88.63968 
L 54.313509 90.0432 
L 63.448211 92.12784 
L 72.582913 91.16808 
L 81.717615 91.46736 
L 90.852317 91.73568 
L 99.987019 91.78728 
L 109.121721 94.0164 
L 118.256422 92.5716 
L 127.391124 91.76664 
L 136.525826 92.33424 
L 145.660528 94.36728 
L 154.79523 94.46016 
L 163.929932 97.71096 
L 173.064634 98.48496 
L 182.199336 97.85544 
L 189.911075 99.10416 
L 197.170308 100.16712 
L 206.300358 102.23112 
L 215.395942 100.54896 
L 224.739452 100.70376 
L 233.798771 100.68312 
L 242.985596 100.95144 
L 252.101373 101.28168 
L 261.203194 101.71512 
L 270.335147 101.84928 
L 279.36 101.034 
" clip-path="url(#p55a53ba461)" style="fill: none; stroke: #bebebe; stroke-width: 0.5; stroke-linecap: round"/>
   </g>
   <g id="line2d_6">
    <path d="M 8.64 69.77472 
L 17.774702 70.34232 
L 26.909404 70.67256 
L 36.044106 70.51776 
L 45.178807 70.848 
L 54.313509 72.31344 
L 63.448211 76.01832 
L 72.582913 75.41976 
L 81.717615 75.83256 
L 90.852317 75.79128 
L 99.987019 75.82224 
L 109.121721 77.82432 
L 118.256422 76.14216 
L 127.391124 74.75928 
L 136.525826 74.96568 
L 145.660528 77.75208 
L 154.79523 79.48584 
L 163.929932 83.31456 
L 173.064634 85.90488 
L 182.199336 84.79032 
L 189.911075 85.84296 
L 197.170308 88.25784 
L 206.300358 91.41576 
L 215.395942 88.7532 
L 224.739452 88.65 
L 233.798771 88.55712 
L 242.985596 88.96992 
L 252.101373 89.7336 
L 261.203194 90.456 
L 270.335147 90.56952 
L 279.36 89.15568 
" clip-path="url(#p55a53ba461)" style="fill: none; stroke: #4a8dff; stroke-width: 0.6"/>
   </g>
   <g id="line2d_7">
    <path d="M 8.64 76.19376 
L 17.774702 77.66952 
L 26.909404 77.74176 
L 36.044106 78.1752 
L 45.178807 79.5684 
L 54.313509 80.8068 
L 63.448211 85.20312 
L 72.582913 84.12984 
L 81.717615 84.03696 
L 90.852317 84.06792 
L 99.987019 84.3156 
L 109.121721 87.02976 
L 118.256422 85.21344 
L 127.391124 84.28464 
L 136.525826 84.32592 
L 145.660528 89.08344 
L 154.79523 89.5272 
L 163.929932 95.14128 
L 173.064634 96.98856 
L 182.199336 95.08968 
L 189.911075 97.71096 
L 197.170308 99.80592 
L 206.300358 101.79768 
L 215.395942 100.03296 
L 224.739452 100.518 
L 233.798771 99.98136 
L 242.985596 100.49736 
L 252.101373 100.78632 
L 261.203194 101.07528 
L 270.335147 101.26104 
L 279.36 100.63152 
" clip-path="url(#p55a53ba461)" style="fill: none; stroke: #f5841e; stroke-width: 0.6"/>
   </g>
  </g>
 </g>
 <defs>
  <clipPath id="p55a53ba461">
   <rect x="8.64" y="4.8" width="270.72" height="103.2"/>
  </clipPath>
 </defs>
</svg>
