<?xml version="1.0" encoding="utf-8" standalone="no"?>
<!DOCTYPE svg PUBLIC "-//W3C//DTD SVG 1.1//EN"
  "http://www.w3.org/Graphics/SVG/1.1/DTD/svg11.dtd">
<svg xmlns:xlink="http://www.w3.org/1999/xlink" width="288pt" height="120pt" viewBox="0 0 288 120" xmlns="http://www.w3.org/2000/svg" version="1.1">
<desc id="nav-meta">{"window":"3m","count":4,"labels":["05.02","07.03","05.04","05.05"],"tick_utc":["2026-02-05T03:20:02Z","2026-03-07T03:05:35Z","2026-04-05T03:46:34Z","2026-05-05T03:59:32Z"],"w":720,"h":300}</desc>

 <metadata>
  <rdf:RDF xmlns:dc="http://purl.org/dc/elements/1.1/" xmlns:cc="http://creativecommons.org/ns#" xmlns:rdf="http://www.w3.org/1999/02/22-rdf-syntax-ns#">
   <cc:Work>
    <dc:type rdf:resource="http://purl.org/dc/dcmitype/StillImage"/>
    <dc:date>2026-05-05T20:00:21.360864</dc:date>
    <dc:format>image/svg+xml</dc:format>
    <dc:creator>
     <cc:Agent>
      <dc:title>Matplotlib v3.10.9, https://matplotlib.org/</dc:title>
     </cc:Agent>
    </dc:creator>
   </cc:Work>
  </rdf:RDF>
 </metadata>
 <defs>
  <style type="text/css">*{stroke-linejoin: round; stroke-linecap: butt}</style>
 </defs>
 <g id="figure_1">
  <g id="patch_1">
   <path d="M 0 120 
L 288 120 
L 288 0 
L 0 0 
L 0 120 
z
" style="fill: none; opacity: 0"/>
  </g>
  <g id="axes_1">
   <g id="patch_2">
    <path d="M 8.64 108 
L 279.36 108 
L 279.36 4.8 
L 8.64 4.8 
L 8.64 108 
z
" style="fill: none"/>
   </g>
   <g id="matplotlib.axis_1"/>
   <g id="matplotlib.axis_2"/>
   <g id="line2d_1">
    <path d="M 8.64 87.36 
L 279.36 87.36 
" clip-path="url(#p5b17893a20)" style="fill: none; stroke: #b2b2b2; stroke-opacity: 0.35; stroke-width: 0.5; stroke-linecap: square"/>
   </g>
   <g id="line2d_2">
    <path d="M 8.64 66.72 
L 279.36 66.72 
" clip-path="url(#p5b17893a20)" style="fill: none; stroke: #b2b2b2; stroke-opacity: 0.35; stroke-width: 0.5; stroke-linecap: square"/>
   </g>
   <g id="line2d_3">
    <path d="M 8.64 46.08 
L 279.36 46.08 
" clip-path="url(#p5b17893a20)" style="fill: none; stroke: #b2b2b2; stroke-opacity: 0.35; stroke-width: 0.5; stroke-linecap: square"/>
   </g>
   <g id="line2d_4">
    <path d="M 8.64 25.44 
L 279.36 25.44 
" clip-path="url(#p5b17893a20)" style="fill: none; stroke: #b2b2b2; stroke-opacity: 0.35; stroke-width: 0.5; stroke-linecap: square"/>
   </g>
   <g id="line2d_5">
    <path d="M 8.64 100.16712 
L 11.679312 102.23112 
L 14.70715 100.54896 
L 17.817521 100.70376 
L 20.833288 100.68312 
L 23.891499 100.95144 
L 26.92606 101.28168 
L 29.955975 101.71512 
L 32.99592 101.84928 
L 36.000213 101.034 
L 38.880619 100.54896 
L 42.116531 101.04432 
L 44.775419 100.81728 
L 48.19343 101.034 
L 51.230595 101.4984 
L 54.253682 101.33328 
L 57.27596 101.1372 
L 60.351558 101.06496 
L 63.401569 102.09696 
L 66.18554 102.05568 
L 69.472345 101.4984 
L 72.499655 100.60056 
L 75.534744 100.80696 
L 78.539775 101.45712 
L 81.649724 100.55928 
L 84.65919 101.10624 
L 87.707125 100.8792 
L 90.730951 100.74504 
L 93.778358 100.21872 
L 96.817776 100.53864 
L 99.835302 101.07528 
L 102.905691 101.38488 
L 105.955667 101.26104 
L 108.976994 100.78632 
L 112.016658 100.91016 
L 115.069485 100.99272 
L 118.104468 100.38384 
L 121.141281 100.50768 
L 124.240319 100.60056 
L 127.289767 99.76464 
L 130.277413 99.49632 
L 133.341467 99.40344 
L 136.383172 100.09488 
L 139.394434 100.3632 
L 142.417485 100.19808 
L 145.503818 100.47672 
L 148.551823 100.79664 
L 151.564528 100.26 
L 154.831869 99.83688 
L 157.683239 100.13616 
L 160.727936 100.80696 
L 163.739725 101.38488 
L 166.82201 101.3436 
L 169.871564 101.292 
L 172.893243 101.28168 
L 175.960183 101.28168 
L 178.960992 101.8596 
L 182.005337 101.88024 
L 185.020153 101.72544 
L 188.106802 101.68416 
L 191.155511 101.47776 
L 194.176627 101.78736 
L 197.222415 101.09592 
L 200.252682 101.46744 
L 203.321523 101.3436 
L 206.31589 101.05464 
L 209.411303 101.3952 
L 212.467755 101.47776 
L 215.489259 100.86888 
L 218.527796 101.26104 
L 221.58182 100.99272 
L 224.616486 100.61088 
L 227.623805 100.44576 
L 230.704824 100.94112 
L 233.753216 101.09592 
L 236.780738 101.00304 
L 239.812166 100.69344 
L 242.865345 100.9308 
L 245.914265 100.92048 
L 248.918839 100.81728 
L 252.007002 100.8792 
L 255.080629 100.64184 
L 258.12786 101.1888 
L 261.160415 101.09592 
L 264.206378 101.37456 
L 267.280463 101.21976 
L 270.243718 101.20944 
L 273.346311 101.23008 
L 276.386116 100.92048 
L 279.36 101.06496 
" clip-path="url(#p5b17893a20)" style="fill: none; stroke: #bebebe; stroke-width: 0.5; stroke-linecap: round"/>
   </g>
   <g id="line2d_6">
    <path d="M 8.64 88.25784 
L 11.679312 91.41576 
L 14.70715 88.7532 
L 17.817521 88.65 
L 20.833288 88.55712 
L 23.891499 88.96992 
L 26.92606 89.7336 
L 29.955975 90.456 
L 32.99592 90.56952 
L 36.000213 89.15568 
L 38.880619 88.9596 
L 42.116531 90.6624 
L 44.775419 89.94 
L 48.19343 90.00192 
L 51.230595 90.3528 
L 54.253682 90.62112 
L 57.27596 90.5076 
L 60.351558 90.3528 
L 63.401569 92.004 
L 66.18554 92.13816 
L 69.472345 91.25064 
L 72.499655 89.166 
L 75.534744 89.56848 
L 78.539775 90.93072 
L 81.649724 89.41368 
L 84.65919 90.37344 
L 87.707125 89.79552 
L 90.730951 90.23928 
L 93.778358 88.0824 
L 96.817776 88.7532 
L 99.835302 90.16704 
L 102.905691 90.67272 
L 105.955667 90.18768 
L 108.976994 89.2692 
L 112.016658 89.54784 
L 115.069485 89.49624 
L 118.104468 88.31976 
L 121.141281 88.45392 
L 124.240319 88.46424 
L 127.289767 86.38992 
L 130.277413 84.80064 
L 133.341467 84.8316 
L 136.383172 86.586 
L 139.394434 87.74184 
L 142.417485 87.618 
L 145.503818 88.19592 
L 148.551823 89.08344 
L 151.564528 87.89664 
L 154.831869 87.3084 
L 157.683239 87.65928 
L 160.727936 88.96992 
L 163.739725 90.07416 
L 166.82201 89.76456 
L 169.871564 89.3724 
L 172.893243 89.00088 
L 175.960183 88.42296 
L 178.960992 88.81512 
L 182.005337 89.10408 
L 185.020153 89.14536 
L 188.106802 89.07312 
L 191.155511 87.9792 
L 194.176627 88.29912 
L 197.222415 86.38992 
L 200.252682 87.24648 
L 203.321523 87.1536 
L 206.31589 86.21448 
L 209.411303 86.66856 
L 212.467755 87.01944 
L 215.489259 84.44976 
L 218.527796 85.05864 
L 221.58182 84.58392 
L 224.616486 85.04832 
L 227.623805 83.71704 
L 230.704824 84.86256 
L 233.753216 85.6572 
L 236.780738 85.27536 
L 239.812166 84.49104 
L 242.865345 84.86256 
L 245.914265 85.32696 
L 248.918839 85.17216 
L 252.007002 85.31664 
L 255.080629 84.11952 
L 258.12786 85.66752 
L 261.160415 85.26504 
L 264.206378 86.26608 
L 267.280463 85.77072 
L 270.243718 85.38888 
L 273.346311 85.3992 
L 276.386116 84.09888 
L 279.36 84.22272 
" clip-path="url(#p5b17893a20)" style="fill: none; stroke: #4a8dff; stroke-width: 0.6"/>
   </g>
   <g id="line2d_7">
    <path d="M 8.64 99.80592 
L 11.679312 101.79768 
L 14.70715 100.03296 
L 17.817521 100.518 
L 20.833288 99.98136 
L 23.891499 100.49736 
L 26.92606 100.78632 
L 29.955975 101.07528 
L 32.99592 101.26104 
L 36.000213 100.63152 
L 38.880619 100.38384 
L 42.116531 100.84824 
L 44.775419 100.65216 
L 48.19343 101.034 
L 51.230595 101.19912 
L 54.253682 101.10624 
L 57.27596 100.97208 
L 60.351558 100.91016 
L 63.401569 101.7564 
L 66.18554 101.84928 
L 69.472345 101.56032 
L 72.499655 100.85856 
L 75.534744 101.12688 
L 78.539775 101.4468 
L 81.649724 101.02368 
L 84.65919 101.30232 
L 87.707125 100.81728 
L 90.730951 100.79664 
L 93.778358 99.3312 
L 96.817776 99.92976 
L 99.835302 100.78632 
L 102.905691 101.17848 
L 105.955667 101.1372 
L 108.976994 100.21872 
L 112.016658 100.37352 
L 115.069485 100.4664 
L 118.104468 99.88848 
L 121.141281 99.94008 
L 124.240319 99.81624 
L 127.289767 98.93904 
L 130.277413 98.3508 
L 133.341467 98.52624 
L 136.383172 99.78528 
L 139.394434 100.12584 
L 142.417485 100.03296 
L 145.503818 100.45608 
L 148.551823 100.83792 
L 151.564528 100.11552 
L 154.831869 99.87816 
L 157.683239 100.002 
L 160.727936 100.64184 
L 163.739725 101.41584 
L 166.82201 101.21976 
L 169.871564 101.14752 
L 172.893243 101.00304 
L 175.960183 100.86888 
L 178.960992 101.21976 
L 182.005337 101.28168 
L 185.020153 101.20944 
L 188.106802 101.14752 
L 191.155511 100.55928 
L 194.176627 100.65216 
L 197.222415 99.80592 
L 200.252682 99.96072 
L 203.321523 99.6408 
L 206.31589 99.1764 
L 209.411303 99.70272 
L 212.467755 99.94008 
L 215.489259 98.57784 
L 218.527796 98.65008 
L 221.58182 98.38176 
L 224.616486 98.48496 
L 227.623805 96.70992 
L 230.704824 98.05152 
L 233.753216 98.48496 
L 236.780738 97.96896 
L 239.812166 96.32808 
L 242.865345 96.20424 
L 245.914265 96.16296 
L 248.918839 96.1836 
L 252.007002 96.50352 
L 255.080629 94.76976 
L 258.12786 97.19496 
L 261.160415 96.9576 
L 264.206378 97.9896 
L 267.280463 96.89568 
L 270.243718 95.45088 
L 273.346311 95.67792 
L 276.386116 93.43848 
L 279.36 92.90184 
" clip-path="url(#p5b17893a20)" style="fill: none; stroke: #f5841e; stroke-width: 0.6"/>
   </g>
  </g>
 </g>
 <defs>
  <clipPath id="p5b17893a20">
   <rect x="8.64" y="4.8" width="270.72" height="103.2"/>
  </clipPath>
 </defs>
</svg>
