<?xml version="1.0" encoding="utf-8" standalone="no"?>
<!DOCTYPE svg PUBLIC "-//W3C//DTD SVG 1.1//EN"
  "http://www.w3.org/Graphics/SVG/1.1/DTD/svg11.dtd">
<svg xmlns:xlink="http://www.w3.org/1999/xlink" width="288pt" height="120pt" viewBox="0 0 288 120" xmlns="http://www.w3.org/2000/svg" version="1.1">
<desc id="nav-meta">{"window":"3m","count":4,"labels":["15.12","14.01","12.02","14.03"],"tick_utc":["2025-12-15T12:00:00Z","2026-01-14T12:00:00Z","2026-02-12T03:34:13Z","2026-03-14T03:15:02Z"],"w":720,"h":300}</desc>

 <metadata>
  <rdf:RDF xmlns:dc="http://purl.org/dc/elements/1.1/" xmlns:cc="http://creativecommons.org/ns#" xmlns:rdf="http://www.w3.org/1999/02/22-rdf-syntax-ns#">
   <cc:Work>
    <dc:type rdf:resource="http://purl.org/dc/dcmitype/StillImage"/>
    <dc:date>2026-03-14T19:06:34.194486</dc:date>
    <dc:format>image/svg+xml</dc:format>
    <dc:creator>
     <cc:Agent>
      <dc:title>Matplotlib v3.10.8, https://matplotlib.org/</dc:title>
     </cc:Agent>
    </dc:creator>
   </cc:Work>
  </rdf:RDF>
 </metadata>
 <defs>
  <style type="text/css">*{stroke-linejoin: round; stroke-linecap: butt}</style>
 </defs>
 <g id="figure_1">
  <g id="patch_1">
   <path d="M 0 120 
L 288 120 
L 288 0 
L 0 0 
L 0 120 
z
" style="fill: none; opacity: 0"/>
  </g>
  <g id="axes_1">
   <g id="patch_2">
    <path d="M 8.64 108 
L 279.36 108 
L 279.36 4.8 
L 8.64 4.8 
L 8.64 108 
z
" style="fill: none"/>
   </g>
   <g id="matplotlib.axis_1"/>
   <g id="matplotlib.axis_2"/>
   <g id="line2d_1">
    <path d="M 8.64 87.36 
L 279.36 87.36 
" clip-path="url(#paf3e7f1254)" style="fill: none; stroke: #b2b2b2; stroke-opacity: 0.35; stroke-width: 0.5; stroke-linecap: square"/>
   </g>
   <g id="line2d_2">
    <path d="M 8.64 66.72 
L 279.36 66.72 
" clip-path="url(#paf3e7f1254)" style="fill: none; stroke: #b2b2b2; stroke-opacity: 0.35; stroke-width: 0.5; stroke-linecap: square"/>
   </g>
   <g id="line2d_3">
    <path d="M 8.64 46.08 
L 279.36 46.08 
" clip-path="url(#paf3e7f1254)" style="fill: none; stroke: #b2b2b2; stroke-opacity: 0.35; stroke-width: 0.5; stroke-linecap: square"/>
   </g>
   <g id="line2d_4">
    <path d="M 8.64 25.44 
L 279.36 25.44 
" clip-path="url(#paf3e7f1254)" style="fill: none; stroke: #b2b2b2; stroke-opacity: 0.35; stroke-width: 0.5; stroke-linecap: square"/>
   </g>
   <g id="line2d_5">
    <path d="M 8.64 91.09584 
L 11.694309 91.61184 
L 14.748618 91.31256 
L 17.802926 92.87088 
L 20.857235 93.8616 
L 23.911544 92.02464 
L 26.965853 92.13816 
L 30.020161 92.07624 
L 33.07447 92.14848 
L 36.128779 92.64384 
L 39.183088 93.01536 
L 42.237396 93.69648 
L 45.291705 93.11856 
L 48.346014 92.44776 
L 51.400323 92.30328 
L 54.454631 92.87088 
L 57.50894 92.38584 
L 60.563249 92.47872 
L 63.617558 91.88016 
L 66.671866 90.42504 
L 69.726175 90.08448 
L 72.780484 89.92968 
L 75.834793 88.76352 
L 78.889101 87.94824 
L 81.94341 89.2692 
L 84.997719 88.72224 
L 88.052028 89.39304 
L 91.106336 89.40336 
L 94.160645 88.41264 
L 97.214954 88.4952 
L 100.269263 86.86464 
L 103.323571 86.42088 
L 106.37788 87.62832 
L 109.432189 86.93688 
L 112.486498 87.23616 
L 115.540806 88.63968 
L 118.595115 90.0432 
L 121.649424 92.12784 
L 124.703733 91.16808 
L 127.758042 91.46736 
L 130.81235 91.73568 
L 133.866659 91.78728 
L 136.920968 94.0164 
L 139.975277 92.5716 
L 143.029585 91.76664 
L 146.083894 92.33424 
L 149.138203 94.36728 
L 152.192512 94.46016 
L 155.24682 97.71096 
L 158.301129 98.48496 
L 161.355438 97.85544 
L 163.93396 99.10416 
L 166.361181 100.16712 
L 169.413935 102.23112 
L 172.455164 100.54896 
L 175.57929 100.70376 
L 178.608394 100.68312 
L 181.68013 100.95144 
L 184.728111 101.28168 
L 187.771426 101.71512 
L 190.824816 101.84928 
L 193.842395 101.034 
L 196.735539 100.54896 
L 199.985762 101.04432 
L 202.656409 100.81728 
L 206.089537 101.034 
L 209.140134 101.4984 
L 212.17659 101.33328 
L 215.212234 101.1372 
L 218.301434 101.06496 
L 221.364934 102.09696 
L 224.161217 102.05568 
L 227.462557 101.4984 
L 230.503256 100.60056 
L 233.551767 100.80696 
L 236.570089 101.45712 
L 239.693791 100.55928 
L 242.716567 101.10624 
L 245.777981 100.8792 
L 248.81518 100.74504 
L 251.876064 100.21872 
L 254.928924 100.53864 
L 257.959795 101.07528 
L 261.043763 101.38488 
L 264.107227 101.26104 
L 267.141917 100.78632 
L 270.195023 100.91016 
L 273.261351 100.99272 
L 276.309757 100.38384 
L 279.36 100.50768 
" clip-path="url(#paf3e7f1254)" style="fill: none; stroke: #bebebe; stroke-width: 0.5; stroke-linecap: round"/>
   </g>
   <g id="line2d_6">
    <path d="M 8.64 74.0988 
L 11.694309 75.5952 
L 14.748618 75.5952 
L 17.802926 77.61792 
L 20.857235 77.63856 
L 23.911544 75.40944 
L 26.965853 75.40944 
L 30.020161 75.04824 
L 33.07447 74.98632 
L 36.128779 75.58488 
L 39.183088 75.87384 
L 42.237396 76.49304 
L 45.291705 76.15248 
L 48.346014 75.82224 
L 51.400323 75.84288 
L 54.454631 76.03896 
L 57.50894 75.51264 
L 60.563249 75.56424 
L 63.617558 75.05856 
L 66.671866 73.26288 
L 69.726175 73.20096 
L 72.780484 73.00488 
L 75.834793 71.68392 
L 78.889101 70.6932 
L 81.94341 72.62304 
L 84.997719 73.52088 
L 88.052028 73.83048 
L 91.106336 73.8408 
L 94.160645 73.29384 
L 97.214954 73.72728 
L 100.269263 70.32168 
L 103.323571 69.77472 
L 106.37788 70.34232 
L 109.432189 70.67256 
L 112.486498 70.51776 
L 115.540806 70.848 
L 118.595115 72.31344 
L 121.649424 76.01832 
L 124.703733 75.41976 
L 127.758042 75.83256 
L 130.81235 75.79128 
L 133.866659 75.82224 
L 136.920968 77.82432 
L 139.975277 76.14216 
L 143.029585 74.75928 
L 146.083894 74.96568 
L 149.138203 77.75208 
L 152.192512 79.48584 
L 155.24682 83.31456 
L 158.301129 85.90488 
L 161.355438 84.79032 
L 163.93396 85.84296 
L 166.361181 88.25784 
L 169.413935 91.41576 
L 172.455164 88.7532 
L 175.57929 88.65 
L 178.608394 88.55712 
L 181.68013 88.96992 
L 184.728111 89.7336 
L 187.771426 90.456 
L 190.824816 90.56952 
L 193.842395 89.15568 
L 196.735539 88.9596 
L 199.985762 90.6624 
L 202.656409 89.94 
L 206.089537 90.00192 
L 209.140134 90.3528 
L 212.17659 90.62112 
L 215.212234 90.5076 
L 218.301434 90.3528 
L 221.364934 92.004 
L 224.161217 92.13816 
L 227.462557 91.25064 
L 230.503256 89.166 
L 233.551767 89.56848 
L 236.570089 90.93072 
L 239.693791 89.41368 
L 242.716567 90.37344 
L 245.777981 89.79552 
L 248.81518 90.23928 
L 251.876064 88.0824 
L 254.928924 88.7532 
L 257.959795 90.16704 
L 261.043763 90.67272 
L 264.107227 90.18768 
L 267.141917 89.2692 
L 270.195023 89.54784 
L 273.261351 89.49624 
L 276.309757 88.31976 
L 279.36 88.45392 
" clip-path="url(#paf3e7f1254)" style="fill: none; stroke: #4a8dff; stroke-width: 0.6"/>
   </g>
   <g id="line2d_7">
    <path d="M 8.64 85.296 
L 11.694309 87.17424 
L 14.748618 85.71912 
L 17.802926 87.53544 
L 20.857235 88.17528 
L 23.911544 85.41984 
L 26.965853 85.17216 
L 30.020161 84.9348 
L 33.07447 85.01736 
L 36.128779 86.14224 
L 39.183088 85.90488 
L 42.237396 86.328 
L 45.291705 86.24544 
L 48.346014 85.72944 
L 51.400323 85.7088 
L 54.454631 86.40024 
L 57.50894 85.09992 
L 60.563249 86.02872 
L 63.617558 84.78 
L 66.671866 83.53128 
L 69.726175 82.83984 
L 72.780484 82.03488 
L 75.834793 79.39296 
L 78.889101 79.66128 
L 81.94341 82.15872 
L 84.997719 82.43736 
L 88.052028 82.93272 
L 91.106336 83.00496 
L 94.160645 82.6128 
L 97.214954 82.28256 
L 100.269263 78.01008 
L 103.323571 76.19376 
L 106.37788 77.66952 
L 109.432189 77.74176 
L 112.486498 78.1752 
L 115.540806 79.5684 
L 118.595115 80.8068 
L 121.649424 85.20312 
L 124.703733 84.12984 
L 127.758042 84.03696 
L 130.81235 84.06792 
L 133.866659 84.3156 
L 136.920968 87.02976 
L 139.975277 85.21344 
L 143.029585 84.28464 
L 146.083894 84.32592 
L 149.138203 89.08344 
L 152.192512 89.5272 
L 155.24682 95.14128 
L 158.301129 96.98856 
L 161.355438 95.08968 
L 163.93396 97.71096 
L 166.361181 99.80592 
L 169.413935 101.79768 
L 172.455164 100.03296 
L 175.57929 100.518 
L 178.608394 99.98136 
L 181.68013 100.49736 
L 184.728111 100.78632 
L 187.771426 101.07528 
L 190.824816 101.26104 
L 193.842395 100.63152 
L 196.735539 100.38384 
L 199.985762 100.84824 
L 202.656409 100.65216 
L 206.089537 101.034 
L 209.140134 101.19912 
L 212.17659 101.10624 
L 215.212234 100.97208 
L 218.301434 100.91016 
L 221.364934 101.7564 
L 224.161217 101.84928 
L 227.462557 101.56032 
L 230.503256 100.85856 
L 233.551767 101.12688 
L 236.570089 101.4468 
L 239.693791 101.02368 
L 242.716567 101.30232 
L 245.777981 100.81728 
L 248.81518 100.79664 
L 251.876064 99.3312 
L 254.928924 99.92976 
L 257.959795 100.78632 
L 261.043763 101.17848 
L 264.107227 101.1372 
L 267.141917 100.21872 
L 270.195023 100.37352 
L 273.261351 100.4664 
L 276.309757 99.88848 
L 279.36 99.94008 
" clip-path="url(#paf3e7f1254)" style="fill: none; stroke: #f5841e; stroke-width: 0.6"/>
   </g>
  </g>
 </g>
 <defs>
  <clipPath id="paf3e7f1254">
   <rect x="8.64" y="4.8" width="270.72" height="103.2"/>
  </clipPath>
 </defs>
</svg>
