<?xml version="1.0" encoding="utf-8" standalone="no"?>
<!DOCTYPE svg PUBLIC "-//W3C//DTD SVG 1.1//EN"
  "http://www.w3.org/Graphics/SVG/1.1/DTD/svg11.dtd">
<svg xmlns:xlink="http://www.w3.org/1999/xlink" width="288pt" height="120pt" viewBox="0 0 288 120" xmlns="http://www.w3.org/2000/svg" version="1.1">
<desc id="nav-meta">{"window":"1m","count":4,"labels":["24.05","03.06","12.06","22.06"],"tick_utc":["2026-05-24T04:51:26Z","2026-06-03T05:31:47Z","2026-06-12T05:19:52Z","2026-06-22T06:11:33Z"],"w":720,"h":300}</desc>

 <metadata>
  <rdf:RDF xmlns:dc="http://purl.org/dc/elements/1.1/" xmlns:cc="http://creativecommons.org/ns#" xmlns:rdf="http://www.w3.org/1999/02/22-rdf-syntax-ns#">
   <cc:Work>
    <dc:type rdf:resource="http://purl.org/dc/dcmitype/StillImage"/>
    <dc:date>2026-06-22T21:23:43.140021</dc:date>
    <dc:format>image/svg+xml</dc:format>
    <dc:creator>
     <cc:Agent>
      <dc:title>Matplotlib v3.11.0, https://matplotlib.org/</dc:title>
     </cc:Agent>
    </dc:creator>
   </cc:Work>
  </rdf:RDF>
 </metadata>
 <defs>
  <style type="text/css">*{stroke-linejoin: round; stroke-linecap: butt}</style>
 </defs>
 <g id="figure_1">
  <g id="patch_1">
   <path d="M 0 120 
L 288 120 
L 288 0 
L 0 0 
L 0 120 
z
" style="fill: none; opacity: 0"/>
  </g>
  <g id="axes_1">
   <g id="patch_2">
    <path d="M 8.64 108 
L 279.36 108 
L 279.36 4.8 
L 8.64 4.8 
L 8.64 108 
z
" style="fill: none"/>
   </g>
   <g id="matplotlib.axis_1"/>
   <g id="matplotlib.axis_2"/>
   <g id="line2d_1">
    <path d="M 8.64 87.36 
L 279.36 87.36 
" clip-path="url(#p12bef4d202)" style="fill: none; stroke: #b2b2b2; stroke-opacity: 0.35; stroke-width: 0.5; stroke-linecap: square"/>
   </g>
   <g id="line2d_2">
    <path d="M 8.64 66.72 
L 279.36 66.72 
" clip-path="url(#p12bef4d202)" style="fill: none; stroke: #b2b2b2; stroke-opacity: 0.35; stroke-width: 0.5; stroke-linecap: square"/>
   </g>
   <g id="line2d_3">
    <path d="M 8.64 46.08 
L 279.36 46.08 
" clip-path="url(#p12bef4d202)" style="fill: none; stroke: #b2b2b2; stroke-opacity: 0.35; stroke-width: 0.5; stroke-linecap: square"/>
   </g>
   <g id="line2d_4">
    <path d="M 8.64 25.44 
L 279.36 25.44 
" clip-path="url(#p12bef4d202)" style="fill: none; stroke: #b2b2b2; stroke-opacity: 0.35; stroke-width: 0.5; stroke-linecap: square"/>
   </g>
   <g id="line2d_5">
    <path d="M 8.64 100.91016 
L 18.07991 100.89984 
L 27.256046 101.1372 
L 36.668996 101.2404 
L 45.95653 101.6532 
L 55.280729 101.4984 
L 64.463658 101.48808 
L 73.971184 101.32296 
L 83.426299 101.51904 
L 92.651933 101.7048 
L 102.07405 102.54072 
L 111.359427 103.08768 
L 120.523269 103.36632 
L 129.697356 104.22288 
L 139.21491 103.85136 
L 148.573402 103.68624 
L 157.712872 103.43856 
L 167.126793 103.81008 
L 176.498765 103.72752 
L 185.852619 103.50048 
L 195.101762 103.5108 
L 204.486675 103.31472 
L 214.113686 102.95352 
L 223.484147 102.61296 
L 232.504671 102.6336 
L 241.777323 102.9948 
L 251.314073 103.28376 
L 260.258786 103.01544 
L 269.769978 102.69552 
L 279.36 102.582 
" clip-path="url(#p12bef4d202)" style="fill: none; stroke: #bebebe; stroke-width: 0.5; stroke-linecap: round"/>
   </g>
   <g id="line2d_6">
    <path d="M 8.64 88.14432 
L 18.07991 88.33008 
L 27.256046 88.52616 
L 36.668996 88.86672 
L 45.95653 90.22896 
L 55.280729 89.82648 
L 64.463658 89.87808 
L 73.971184 89.46528 
L 83.426299 90.0432 
L 92.651933 89.96064 
L 102.07405 91.99368 
L 111.359427 93.05664 
L 120.523269 93.74808 
L 129.697356 97.02984 
L 139.21491 95.93592 
L 148.573402 95.07936 
L 157.712872 94.46016 
L 167.126793 95.47152 
L 176.498765 95.11032 
L 185.852619 94.82136 
L 195.101762 94.8936 
L 204.486675 94.70784 
L 214.113686 94.04736 
L 223.484147 93.40752 
L 232.504671 92.9844 
L 241.777323 93.93384 
L 251.314073 94.4292 
L 260.258786 94.19184 
L 269.769978 93.87192 
L 279.36 93.81 
" clip-path="url(#p12bef4d202)" style="fill: none; stroke: #4a8dff; stroke-width: 0.6"/>
   </g>
   <g id="line2d_7">
    <path d="M 8.64 97.2672 
L 18.07991 96.61704 
L 27.256046 97.23624 
L 36.668996 98.08248 
L 45.95653 99.18672 
L 55.280729 99.03192 
L 64.463658 99.1248 
L 73.971184 98.74296 
L 83.426299 99.09384 
L 92.651933 100.0536 
L 102.07405 101.23008 
L 111.359427 101.99376 
L 120.523269 102.08664 
L 129.697356 102.8916 
L 139.21491 102.45816 
L 148.573402 102.28272 
L 157.712872 102.10728 
L 167.126793 102.582 
L 176.498765 102.29304 
L 185.852619 102.08664 
L 195.101762 102.066 
L 204.486675 101.86992 
L 214.113686 101.48808 
L 223.484147 101.40552 
L 232.504671 101.4984 
L 241.777323 101.97312 
L 251.314073 102.26208 
L 260.258786 102.066 
L 269.769978 101.90088 
L 279.36 101.90088 
" clip-path="url(#p12bef4d202)" style="fill: none; stroke: #f5841e; stroke-width: 0.6"/>
   </g>
  </g>
 </g>
 <defs>
  <clipPath id="p12bef4d202">
   <rect x="8.64" y="4.8" width="270.72" height="103.2"/>
  </clipPath>
 </defs>
</svg>
