<?xml version="1.0" encoding="utf-8" standalone="no"?>
<!DOCTYPE svg PUBLIC "-//W3C//DTD SVG 1.1//EN"
  "http://www.w3.org/Graphics/SVG/1.1/DTD/svg11.dtd">
<svg xmlns:xlink="http://www.w3.org/1999/xlink" width="288pt" height="120pt" viewBox="0 0 288 120" xmlns="http://www.w3.org/2000/svg" version="1.1">
<desc id="nav-meta">{"window":"1m","count":4,"labels":["09.03","19.03","28.03","07.04"],"tick_utc":["2026-03-09T03:23:53Z","2026-03-19T03:32:50Z","2026-03-28T03:27:32Z","2026-04-07T03:40:56Z"],"w":720,"h":300}</desc>

 <metadata>
  <rdf:RDF xmlns:dc="http://purl.org/dc/elements/1.1/" xmlns:cc="http://creativecommons.org/ns#" xmlns:rdf="http://www.w3.org/1999/02/22-rdf-syntax-ns#">
   <cc:Work>
    <dc:type rdf:resource="http://purl.org/dc/dcmitype/StillImage"/>
    <dc:date>2026-04-07T08:00:14.849254</dc:date>
    <dc:format>image/svg+xml</dc:format>
    <dc:creator>
     <cc:Agent>
      <dc:title>Matplotlib v3.10.8, https://matplotlib.org/</dc:title>
     </cc:Agent>
    </dc:creator>
   </cc:Work>
  </rdf:RDF>
 </metadata>
 <defs>
  <style type="text/css">*{stroke-linejoin: round; stroke-linecap: butt}</style>
 </defs>
 <g id="figure_1">
  <g id="patch_1">
   <path d="M 0 120 
L 288 120 
L 288 0 
L 0 0 
L 0 120 
z
" style="fill: none; opacity: 0"/>
  </g>
  <g id="axes_1">
   <g id="patch_2">
    <path d="M 8.64 108 
L 279.36 108 
L 279.36 4.8 
L 8.64 4.8 
L 8.64 108 
z
" style="fill: none"/>
   </g>
   <g id="matplotlib.axis_1"/>
   <g id="matplotlib.axis_2"/>
   <g id="line2d_1">
    <path d="M 8.64 87.36 
L 279.36 87.36 
" clip-path="url(#p1bcb61c8f8)" style="fill: none; stroke: #b2b2b2; stroke-opacity: 0.35; stroke-width: 0.5; stroke-linecap: square"/>
   </g>
   <g id="line2d_2">
    <path d="M 8.64 66.72 
L 279.36 66.72 
" clip-path="url(#p1bcb61c8f8)" style="fill: none; stroke: #b2b2b2; stroke-opacity: 0.35; stroke-width: 0.5; stroke-linecap: square"/>
   </g>
   <g id="line2d_3">
    <path d="M 8.64 46.08 
L 279.36 46.08 
" clip-path="url(#p1bcb61c8f8)" style="fill: none; stroke: #b2b2b2; stroke-opacity: 0.35; stroke-width: 0.5; stroke-linecap: square"/>
   </g>
   <g id="line2d_4">
    <path d="M 8.64 25.44 
L 279.36 25.44 
" clip-path="url(#p1bcb61c8f8)" style="fill: none; stroke: #b2b2b2; stroke-opacity: 0.35; stroke-width: 0.5; stroke-linecap: square"/>
   </g>
   <g id="line2d_5">
    <path d="M 8.64 101.26104 
L 17.911422 100.78632 
L 27.239112 100.91016 
L 36.607195 100.99272 
L 45.920521 100.38384 
L 55.239464 100.50768 
L 64.749353 100.60056 
L 74.107068 99.76464 
L 83.275132 99.49632 
L 92.677668 99.40344 
L 102.011623 100.09488 
L 111.252156 100.3632 
L 120.528869 100.19808 
L 129.99977 100.47672 
L 139.353057 100.79664 
L 148.598018 100.26 
L 158.624373 99.83688 
L 167.374253 100.13616 
L 176.717388 100.80696 
L 185.959541 101.38488 
L 195.418022 101.3436 
L 204.776061 101.292 
L 214.048562 101.28168 
L 223.459954 101.28168 
L 232.668411 101.8596 
L 242.010465 101.88024 
L 251.261907 101.72544 
L 260.73378 101.68416 
L 270.089227 101.47776 
L 279.36 101.78736 
" clip-path="url(#p1bcb61c8f8)" style="fill: none; stroke: #bebebe; stroke-width: 0.5; stroke-linecap: round"/>
   </g>
   <g id="line2d_6">
    <path d="M 8.64 90.18768 
L 17.911422 89.2692 
L 27.239112 89.54784 
L 36.607195 89.49624 
L 45.920521 88.31976 
L 55.239464 88.45392 
L 64.749353 88.46424 
L 74.107068 86.38992 
L 83.275132 84.80064 
L 92.677668 84.8316 
L 102.011623 86.586 
L 111.252156 87.74184 
L 120.528869 87.618 
L 129.99977 88.19592 
L 139.353057 89.08344 
L 148.598018 87.89664 
L 158.624373 87.3084 
L 167.374253 87.65928 
L 176.717388 88.96992 
L 185.959541 90.07416 
L 195.418022 89.76456 
L 204.776061 89.3724 
L 214.048562 89.00088 
L 223.459954 88.42296 
L 232.668411 88.81512 
L 242.010465 89.10408 
L 251.261907 89.14536 
L 260.73378 89.07312 
L 270.089227 87.9792 
L 279.36 88.29912 
" clip-path="url(#p1bcb61c8f8)" style="fill: none; stroke: #4a8dff; stroke-width: 0.6"/>
   </g>
   <g id="line2d_7">
    <path d="M 8.64 101.1372 
L 17.911422 100.21872 
L 27.239112 100.37352 
L 36.607195 100.4664 
L 45.920521 99.88848 
L 55.239464 99.94008 
L 64.749353 99.81624 
L 74.107068 98.93904 
L 83.275132 98.3508 
L 92.677668 98.52624 
L 102.011623 99.78528 
L 111.252156 100.12584 
L 120.528869 100.03296 
L 129.99977 100.45608 
L 139.353057 100.83792 
L 148.598018 100.11552 
L 158.624373 99.87816 
L 167.374253 100.002 
L 176.717388 100.64184 
L 185.959541 101.41584 
L 195.418022 101.21976 
L 204.776061 101.14752 
L 214.048562 101.00304 
L 223.459954 100.86888 
L 232.668411 101.21976 
L 242.010465 101.28168 
L 251.261907 101.20944 
L 260.73378 101.14752 
L 270.089227 100.55928 
L 279.36 100.65216 
" clip-path="url(#p1bcb61c8f8)" style="fill: none; stroke: #f5841e; stroke-width: 0.6"/>
   </g>
  </g>
 </g>
 <defs>
  <clipPath id="p1bcb61c8f8">
   <rect x="8.64" y="4.8" width="270.72" height="103.2"/>
  </clipPath>
 </defs>
</svg>
