<?xml version="1.0" encoding="utf-8" standalone="no"?>
<!DOCTYPE svg PUBLIC "-//W3C//DTD SVG 1.1//EN"
  "http://www.w3.org/Graphics/SVG/1.1/DTD/svg11.dtd">
<svg xmlns:xlink="http://www.w3.org/1999/xlink" width="288pt" height="120pt" viewBox="0 0 288 120" xmlns="http://www.w3.org/2000/svg" version="1.1">
<desc id="nav-meta">{"window":"3m","count":4,"labels":["08.03","07.04","06.05","05.06"],"tick_utc":["2026-03-08T03:19:34Z","2026-04-07T03:40:56Z","2026-05-06T04:24:54Z","2026-06-05T05:03:08Z"],"w":720,"h":300}</desc>

 <metadata>
  <rdf:RDF xmlns:dc="http://purl.org/dc/elements/1.1/" xmlns:cc="http://creativecommons.org/ns#" xmlns:rdf="http://www.w3.org/1999/02/22-rdf-syntax-ns#">
   <cc:Work>
    <dc:type rdf:resource="http://purl.org/dc/dcmitype/StillImage"/>
    <dc:date>2026-06-05T05:03:10.146388</dc:date>
    <dc:format>image/svg+xml</dc:format>
    <dc:creator>
     <cc:Agent>
      <dc:title>Matplotlib v3.10.9, https://matplotlib.org/</dc:title>
     </cc:Agent>
    </dc:creator>
   </cc:Work>
  </rdf:RDF>
 </metadata>
 <defs>
  <style type="text/css">*{stroke-linejoin: round; stroke-linecap: butt}</style>
 </defs>
 <g id="figure_1">
  <g id="patch_1">
   <path d="M 0 120 
L 288 120 
L 288 0 
L 0 0 
L 0 120 
z
" style="fill: none; opacity: 0"/>
  </g>
  <g id="axes_1">
   <g id="patch_2">
    <path d="M 8.64 108 
L 279.36 108 
L 279.36 4.8 
L 8.64 4.8 
L 8.64 108 
z
" style="fill: none"/>
   </g>
   <g id="matplotlib.axis_1"/>
   <g id="matplotlib.axis_2"/>
   <g id="line2d_1">
    <path d="M 8.64 87.36 
L 279.36 87.36 
" clip-path="url(#pff759d4bf3)" style="fill: none; stroke: #b2b2b2; stroke-opacity: 0.35; stroke-width: 0.5; stroke-linecap: square"/>
   </g>
   <g id="line2d_2">
    <path d="M 8.64 66.72 
L 279.36 66.72 
" clip-path="url(#pff759d4bf3)" style="fill: none; stroke: #b2b2b2; stroke-opacity: 0.35; stroke-width: 0.5; stroke-linecap: square"/>
   </g>
   <g id="line2d_3">
    <path d="M 8.64 46.08 
L 279.36 46.08 
" clip-path="url(#pff759d4bf3)" style="fill: none; stroke: #b2b2b2; stroke-opacity: 0.35; stroke-width: 0.5; stroke-linecap: square"/>
   </g>
   <g id="line2d_4">
    <path d="M 8.64 25.44 
L 279.36 25.44 
" clip-path="url(#pff759d4bf3)" style="fill: none; stroke: #b2b2b2; stroke-opacity: 0.35; stroke-width: 0.5; stroke-linecap: square"/>
   </g>
   <g id="line2d_5">
    <path d="M 8.64 101.38488 
L 11.688453 101.26104 
L 14.708271 100.78632 
L 17.746416 100.91016 
L 20.797718 100.99272 
L 23.831185 100.38384 
L 26.866482 100.50768 
L 29.963972 100.60056 
L 33.011897 99.76464 
L 35.99805 99.49632 
L 39.060574 99.40344 
L 42.100759 100.09488 
L 45.110517 100.3632 
L 48.132059 100.19808 
L 51.21685 100.47672 
L 54.263332 100.79664 
L 57.274532 100.26 
L 60.540241 99.83688 
L 63.390187 100.13616 
L 66.433363 100.80696 
L 69.443648 101.38488 
L 72.524393 101.3436 
L 75.572424 101.292 
L 78.592594 101.28168 
L 81.658002 101.28168 
L 84.657312 101.8596 
L 87.700136 101.88024 
L 90.713446 101.72544 
L 93.798554 101.68416 
L 96.84574 101.47776 
L 99.865347 101.78736 
L 102.909614 101.09592 
L 105.938367 101.46744 
L 109.005675 101.3436 
L 111.998547 101.05464 
L 115.092414 101.3952 
L 118.147339 101.47776 
L 121.167333 100.86888 
L 124.204353 101.26104 
L 127.256851 100.99272 
L 130.290001 100.61088 
L 133.295819 100.44576 
L 136.375298 100.94112 
L 139.422168 101.09592 
L 142.448177 101.00304 
L 145.478091 100.69344 
L 148.529745 100.9308 
L 151.577142 100.92048 
L 154.580216 100.81728 
L 157.666836 100.8792 
L 160.738928 100.64184 
L 163.784637 101.1888 
L 166.815676 101.09592 
L 169.860119 101.37456 
L 172.932668 101.21976 
L 175.894443 101.20944 
L 178.995486 101.23008 
L 182.033773 100.92048 
L 185.006171 101.06496 
L 188.099053 100.70376 
L 191.139204 100.55928 
L 194.12796 100.53864 
L 197.178418 99.60984 
L 200.279004 99.72336 
L 203.342337 99.44472 
L 206.339465 99.25896 
L 209.393265 99.32088 
L 212.429229 100.22904 
L 215.483557 100.01232 
L 218.484097 100.43544 
L 221.568818 100.75536 
L 224.637674 101.02368 
L 227.655241 101.02368 
L 230.705452 101.17848 
L 233.762101 100.7244 
L 236.778155 100.75536 
L 239.775741 101.11656 
L 242.863206 100.91016 
L 245.942544 100.89984 
L 248.935838 101.1372 
L 252.006382 101.2404 
L 255.036015 101.6532 
L 258.077608 101.4984 
L 261.073119 101.48808 
L 264.174513 101.32296 
L 267.258812 101.51904 
L 270.268253 101.7048 
L 273.341787 102.54072 
L 276.370716 103.08768 
L 279.36 103.36632 
" clip-path="url(#pff759d4bf3)" style="fill: none; stroke: #bebebe; stroke-width: 0.5; stroke-linecap: round"/>
   </g>
   <g id="line2d_6">
    <path d="M 8.64 90.67272 
L 11.688453 90.18768 
L 14.708271 89.2692 
L 17.746416 89.54784 
L 20.797718 89.49624 
L 23.831185 88.31976 
L 26.866482 88.45392 
L 29.963972 88.46424 
L 33.011897 86.38992 
L 35.99805 84.80064 
L 39.060574 84.8316 
L 42.100759 86.586 
L 45.110517 87.74184 
L 48.132059 87.618 
L 51.21685 88.19592 
L 54.263332 89.08344 
L 57.274532 87.89664 
L 60.540241 87.3084 
L 63.390187 87.65928 
L 66.433363 88.96992 
L 69.443648 90.07416 
L 72.524393 89.76456 
L 75.572424 89.3724 
L 78.592594 89.00088 
L 81.658002 88.42296 
L 84.657312 88.81512 
L 87.700136 89.10408 
L 90.713446 89.14536 
L 93.798554 89.07312 
L 96.84574 87.9792 
L 99.865347 88.29912 
L 102.909614 86.38992 
L 105.938367 87.24648 
L 109.005675 87.1536 
L 111.998547 86.21448 
L 115.092414 86.66856 
L 118.147339 87.01944 
L 121.167333 84.44976 
L 124.204353 85.05864 
L 127.256851 84.58392 
L 130.290001 85.04832 
L 133.295819 83.71704 
L 136.375298 84.86256 
L 139.422168 85.6572 
L 142.448177 85.27536 
L 145.478091 84.49104 
L 148.529745 84.86256 
L 151.577142 85.32696 
L 154.580216 85.17216 
L 157.666836 85.31664 
L 160.738928 84.11952 
L 163.784637 85.66752 
L 166.815676 85.26504 
L 169.860119 86.26608 
L 172.932668 85.77072 
L 175.894443 85.38888 
L 178.995486 85.3992 
L 182.033773 84.09888 
L 185.006171 84.22272 
L 188.099053 84.34656 
L 191.139204 85.06896 
L 194.12796 85.7604 
L 197.178418 85.0896 
L 200.279004 85.01736 
L 203.342337 84.9348 
L 206.339465 85.296 
L 209.393265 85.35792 
L 212.429229 86.1732 
L 215.483557 85.92552 
L 218.484097 86.55504 
L 221.568818 87.13296 
L 224.637674 88.10304 
L 227.655241 87.9276 
L 230.705452 88.26816 
L 233.762101 87.78312 
L 236.778155 87.95856 
L 239.775741 88.94928 
L 242.863206 88.14432 
L 245.942544 88.33008 
L 248.935838 88.52616 
L 252.006382 88.86672 
L 255.036015 90.22896 
L 258.077608 89.82648 
L 261.073119 89.87808 
L 264.174513 89.46528 
L 267.258812 90.0432 
L 270.268253 89.96064 
L 273.341787 91.99368 
L 276.370716 93.05664 
L 279.36 93.74808 
" clip-path="url(#pff759d4bf3)" style="fill: none; stroke: #4a8dff; stroke-width: 0.6"/>
   </g>
   <g id="line2d_7">
    <path d="M 8.64 101.17848 
L 11.688453 101.1372 
L 14.708271 100.21872 
L 17.746416 100.37352 
L 20.797718 100.4664 
L 23.831185 99.88848 
L 26.866482 99.94008 
L 29.963972 99.81624 
L 33.011897 98.93904 
L 35.99805 98.3508 
L 39.060574 98.52624 
L 42.100759 99.78528 
L 45.110517 100.12584 
L 48.132059 100.03296 
L 51.21685 100.45608 
L 54.263332 100.83792 
L 57.274532 100.11552 
L 60.540241 99.87816 
L 63.390187 100.002 
L 66.433363 100.64184 
L 69.443648 101.41584 
L 72.524393 101.21976 
L 75.572424 101.14752 
L 78.592594 101.00304 
L 81.658002 100.86888 
L 84.657312 101.21976 
L 87.700136 101.28168 
L 90.713446 101.20944 
L 93.798554 101.14752 
L 96.84574 100.55928 
L 99.865347 100.65216 
L 102.909614 99.80592 
L 105.938367 99.96072 
L 109.005675 99.6408 
L 111.998547 99.1764 
L 115.092414 99.70272 
L 118.147339 99.94008 
L 121.167333 98.57784 
L 124.204353 98.65008 
L 127.256851 98.38176 
L 130.290001 98.48496 
L 133.295819 96.70992 
L 136.375298 98.05152 
L 139.422168 98.48496 
L 142.448177 97.96896 
L 145.478091 96.32808 
L 148.529745 96.20424 
L 151.577142 96.16296 
L 154.580216 96.1836 
L 157.666836 96.50352 
L 160.738928 94.76976 
L 163.784637 97.19496 
L 166.815676 96.9576 
L 169.860119 97.9896 
L 172.932668 96.89568 
L 175.894443 95.45088 
L 178.995486 95.67792 
L 182.033773 93.43848 
L 185.006171 92.90184 
L 188.099053 92.25168 
L 191.139204 92.87088 
L 194.12796 94.2744 
L 197.178418 93.1392 
L 200.279004 92.97408 
L 203.342337 92.9844 
L 206.339465 92.60256 
L 209.393265 92.53032 
L 212.429229 94.54272 
L 215.483557 92.85024 
L 218.484097 94.82136 
L 221.568818 95.75016 
L 224.637674 96.97824 
L 227.655241 97.08144 
L 230.705452 97.23624 
L 233.762101 95.94624 
L 236.778155 96.30744 
L 239.775741 98.08248 
L 242.863206 97.2672 
L 245.942544 96.61704 
L 248.935838 97.23624 
L 252.006382 98.08248 
L 255.036015 99.18672 
L 258.077608 99.03192 
L 261.073119 99.1248 
L 264.174513 98.74296 
L 267.258812 99.09384 
L 270.268253 100.0536 
L 273.341787 101.23008 
L 276.370716 101.99376 
L 279.36 102.08664 
" clip-path="url(#pff759d4bf3)" style="fill: none; stroke: #f5841e; stroke-width: 0.6"/>
   </g>
  </g>
 </g>
 <defs>
  <clipPath id="pff759d4bf3">
   <rect x="8.64" y="4.8" width="270.72" height="103.2"/>
  </clipPath>
 </defs>
</svg>
