<?xml version="1.0" encoding="utf-8" standalone="no"?>
<!DOCTYPE svg PUBLIC "-//W3C//DTD SVG 1.1//EN"
  "http://www.w3.org/Graphics/SVG/1.1/DTD/svg11.dtd">
<svg xmlns:xlink="http://www.w3.org/1999/xlink" width="288pt" height="120pt" viewBox="0 0 288 120" xmlns="http://www.w3.org/2000/svg" version="1.1">
<desc id="nav-meta">{"window":"3m","count":4,"labels":["14.11","14.12","12.01","11.02"],"tick_utc":["2025-11-14T12:00:00Z","2025-12-14T12:00:00Z","2026-01-12T12:00:00Z","2026-02-11T03:39:24Z"],"w":720,"h":300}</desc>

 <metadata>
  <rdf:RDF xmlns:dc="http://purl.org/dc/elements/1.1/" xmlns:cc="http://creativecommons.org/ns#" xmlns:rdf="http://www.w3.org/1999/02/22-rdf-syntax-ns#">
   <cc:Work>
    <dc:type rdf:resource="http://purl.org/dc/dcmitype/StillImage"/>
    <dc:date>2026-02-11T14:02:18.963687</dc:date>
    <dc:format>image/svg+xml</dc:format>
    <dc:creator>
     <cc:Agent>
      <dc:title>Matplotlib v3.10.8, https://matplotlib.org/</dc:title>
     </cc:Agent>
    </dc:creator>
   </cc:Work>
  </rdf:RDF>
 </metadata>
 <defs>
  <style type="text/css">*{stroke-linejoin: round; stroke-linecap: butt}</style>
 </defs>
 <g id="figure_1">
  <g id="patch_1">
   <path d="M 0 120 
L 288 120 
L 288 0 
L 0 0 
L 0 120 
z
" style="fill: none; opacity: 0"/>
  </g>
  <g id="axes_1">
   <g id="patch_2">
    <path d="M 8.64 108 
L 279.36 108 
L 279.36 4.8 
L 8.64 4.8 
L 8.64 108 
z
" style="fill: none"/>
   </g>
   <g id="matplotlib.axis_1"/>
   <g id="matplotlib.axis_2"/>
   <g id="line2d_1">
    <path d="M 8.64 87.36 
L 279.36 87.36 
" clip-path="url(#p7b77decba8)" style="fill: none; stroke: #b2b2b2; stroke-opacity: 0.35; stroke-width: 0.5; stroke-linecap: square"/>
   </g>
   <g id="line2d_2">
    <path d="M 8.64 66.72 
L 279.36 66.72 
" clip-path="url(#p7b77decba8)" style="fill: none; stroke: #b2b2b2; stroke-opacity: 0.35; stroke-width: 0.5; stroke-linecap: square"/>
   </g>
   <g id="line2d_3">
    <path d="M 8.64 46.08 
L 279.36 46.08 
" clip-path="url(#p7b77decba8)" style="fill: none; stroke: #b2b2b2; stroke-opacity: 0.35; stroke-width: 0.5; stroke-linecap: square"/>
   </g>
   <g id="line2d_4">
    <path d="M 8.64 25.44 
L 279.36 25.44 
" clip-path="url(#p7b77decba8)" style="fill: none; stroke: #b2b2b2; stroke-opacity: 0.35; stroke-width: 0.5; stroke-linecap: square"/>
   </g>
   <g id="line2d_5">
    <path d="M 8.64 86.844 
L 11.693726 88.52616 
L 14.747452 88.36104 
L 17.801177 88.93896 
L 20.854903 90.79656 
L 23.908629 88.09272 
L 26.962355 89.22792 
L 30.01608 90.00192 
L 33.069806 91.39512 
L 36.123532 91.63248 
L 39.177258 90.75528 
L 42.230984 88.7016 
L 45.284709 88.52616 
L 48.338435 87.45288 
L 51.392161 88.0308 
L 54.445887 88.94928 
L 57.499612 89.3208 
L 60.553338 89.7336 
L 63.607064 91.86984 
L 66.66079 88.60872 
L 69.714515 86.87496 
L 72.768241 88.52616 
L 75.821967 90.11544 
L 78.875693 90.38376 
L 81.929419 90.53856 
L 84.983144 90.08448 
L 88.03687 88.79448 
L 91.090596 89.20728 
L 94.144322 89.22792 
L 97.198047 90.31152 
L 100.251773 90.10512 
L 103.305499 91.09584 
L 106.359225 91.61184 
L 109.412951 91.31256 
L 112.466676 92.87088 
L 115.520402 93.8616 
L 118.574128 92.02464 
L 121.627854 92.13816 
L 124.681579 92.07624 
L 127.735305 92.14848 
L 130.789031 92.64384 
L 133.842757 93.01536 
L 136.896482 93.69648 
L 139.950208 93.11856 
L 143.003934 92.44776 
L 146.05766 92.30328 
L 149.111386 92.87088 
L 152.165111 92.38584 
L 155.218837 92.47872 
L 158.272563 91.88016 
L 161.326289 90.42504 
L 164.380014 90.08448 
L 167.43374 89.92968 
L 170.487466 88.76352 
L 173.541192 87.94824 
L 176.594918 89.2692 
L 179.648643 88.72224 
L 182.702369 89.39304 
L 185.756095 89.40336 
L 188.809821 88.41264 
L 191.863546 88.4952 
L 194.917272 86.86464 
L 197.970998 86.42088 
L 201.024724 87.62832 
L 204.078449 86.93688 
L 207.132175 87.23616 
L 210.185901 88.63968 
L 213.239627 90.0432 
L 216.293353 92.12784 
L 219.347078 91.16808 
L 222.400804 91.46736 
L 225.45453 91.73568 
L 228.508256 91.78728 
L 231.561981 94.0164 
L 234.615707 92.5716 
L 237.669433 91.76664 
L 240.723159 92.33424 
L 243.776885 94.36728 
L 246.83061 94.46016 
L 249.884336 97.71096 
L 252.938062 98.48496 
L 255.991788 97.85544 
L 258.569818 99.10416 
L 260.996576 100.16712 
L 264.048746 102.23112 
L 267.089395 100.54896 
L 270.212925 100.70376 
L 273.24145 100.68312 
L 276.312601 100.95144 
L 279.36 101.28168 
" clip-path="url(#p7b77decba8)" style="fill: none; stroke: #bebebe; stroke-width: 0.5; stroke-linecap: round"/>
   </g>
   <g id="line2d_6">
    <path d="M 8.64 71.5704 
L 11.693726 73.48992 
L 14.747452 72.54048 
L 17.801177 73.56216 
L 20.854903 74.74896 
L 23.908629 73.3248 
L 26.962355 74.80056 
L 30.01608 77.556 
L 33.069806 78.55704 
L 36.123532 78.50544 
L 39.177258 78.04104 
L 42.230984 75.76032 
L 45.284709 75.73968 
L 48.338435 74.65608 
L 51.392161 74.83152 
L 54.445887 74.57352 
L 57.499612 75.20304 
L 60.553338 75.17208 
L 63.607064 78.05136 
L 66.66079 75.1308 
L 69.714515 72.16896 
L 72.768241 73.08744 
L 75.821967 74.72832 
L 78.875693 74.48064 
L 81.929419 74.28456 
L 84.983144 73.21128 
L 88.03687 70.2804 
L 91.090596 70.2288 
L 94.144322 71.56008 
L 97.198047 73.79952 
L 100.251773 73.35576 
L 103.305499 74.0988 
L 106.359225 75.5952 
L 109.412951 75.5952 
L 112.466676 77.61792 
L 115.520402 77.63856 
L 118.574128 75.40944 
L 121.627854 75.40944 
L 124.681579 75.04824 
L 127.735305 74.98632 
L 130.789031 75.58488 
L 133.842757 75.87384 
L 136.896482 76.49304 
L 139.950208 76.15248 
L 143.003934 75.82224 
L 146.05766 75.84288 
L 149.111386 76.03896 
L 152.165111 75.51264 
L 155.218837 75.56424 
L 158.272563 75.05856 
L 161.326289 73.26288 
L 164.380014 73.20096 
L 167.43374 73.00488 
L 170.487466 71.68392 
L 173.541192 70.6932 
L 176.594918 72.62304 
L 179.648643 73.52088 
L 182.702369 73.83048 
L 185.756095 73.8408 
L 188.809821 73.29384 
L 191.863546 73.72728 
L 194.917272 70.32168 
L 197.970998 69.77472 
L 201.024724 70.34232 
L 204.078449 70.67256 
L 207.132175 70.51776 
L 210.185901 70.848 
L 213.239627 72.31344 
L 216.293353 76.01832 
L 219.347078 75.41976 
L 222.400804 75.83256 
L 225.45453 75.79128 
L 228.508256 75.82224 
L 231.561981 77.82432 
L 234.615707 76.14216 
L 237.669433 74.75928 
L 240.723159 74.96568 
L 243.776885 77.75208 
L 246.83061 79.48584 
L 249.884336 83.31456 
L 252.938062 85.90488 
L 255.991788 84.79032 
L 258.569818 85.84296 
L 260.996576 88.25784 
L 264.048746 91.41576 
L 267.089395 88.7532 
L 270.212925 88.65 
L 273.24145 88.55712 
L 276.312601 88.96992 
L 279.36 89.7336 
" clip-path="url(#p7b77decba8)" style="fill: none; stroke: #4a8dff; stroke-width: 0.6"/>
   </g>
   <g id="line2d_7">
    <path d="M 8.64 73.3764 
L 11.693726 78.846 
L 14.747452 77.75208 
L 17.801177 78.88728 
L 20.854903 81.34344 
L 23.908629 80.53848 
L 26.962355 82.0452 
L 30.01608 86.92656 
L 33.069806 88.58808 
L 36.123532 88.96992 
L 39.177258 86.7924 
L 42.230984 85.296 
L 45.284709 86.24544 
L 48.338435 82.96368 
L 51.392161 82.13808 
L 54.445887 82.47864 
L 57.499612 82.58184 
L 60.553338 83.03592 
L 63.607064 87.3084 
L 66.66079 82.06584 
L 69.714515 79.71288 
L 72.768241 81.24024 
L 75.821967 84.17112 
L 78.875693 84.24336 
L 81.929419 83.29392 
L 84.983144 82.8192 
L 88.03687 80.64168 
L 91.090596 81.38472 
L 94.144322 80.87904 
L 97.198047 83.13912 
L 100.251773 83.19072 
L 103.305499 85.296 
L 106.359225 87.17424 
L 109.412951 85.71912 
L 112.466676 87.53544 
L 115.520402 88.17528 
L 118.574128 85.41984 
L 121.627854 85.17216 
L 124.681579 84.9348 
L 127.735305 85.01736 
L 130.789031 86.14224 
L 133.842757 85.90488 
L 136.896482 86.328 
L 139.950208 86.24544 
L 143.003934 85.72944 
L 146.05766 85.7088 
L 149.111386 86.40024 
L 152.165111 85.09992 
L 155.218837 86.02872 
L 158.272563 84.78 
L 161.326289 83.53128 
L 164.380014 82.83984 
L 167.43374 82.03488 
L 170.487466 79.39296 
L 173.541192 79.66128 
L 176.594918 82.15872 
L 179.648643 82.43736 
L 182.702369 82.93272 
L 185.756095 83.00496 
L 188.809821 82.6128 
L 191.863546 82.28256 
L 194.917272 78.01008 
L 197.970998 76.19376 
L 201.024724 77.66952 
L 204.078449 77.74176 
L 207.132175 78.1752 
L 210.185901 79.5684 
L 213.239627 80.8068 
L 216.293353 85.20312 
L 219.347078 84.12984 
L 222.400804 84.03696 
L 225.45453 84.06792 
L 228.508256 84.3156 
L 231.561981 87.02976 
L 234.615707 85.21344 
L 237.669433 84.28464 
L 240.723159 84.32592 
L 243.776885 89.08344 
L 246.83061 89.5272 
L 249.884336 95.14128 
L 252.938062 96.98856 
L 255.991788 95.08968 
L 258.569818 97.71096 
L 260.996576 99.80592 
L 264.048746 101.79768 
L 267.089395 100.03296 
L 270.212925 100.518 
L 273.24145 99.98136 
L 276.312601 100.49736 
L 279.36 100.78632 
" clip-path="url(#p7b77decba8)" style="fill: none; stroke: #f5841e; stroke-width: 0.6"/>
   </g>
  </g>
 </g>
 <defs>
  <clipPath id="p7b77decba8">
   <rect x="8.64" y="4.8" width="270.72" height="103.2"/>
  </clipPath>
 </defs>
</svg>
