<?xml version="1.0" encoding="utf-8" standalone="no"?>
<!DOCTYPE svg PUBLIC "-//W3C//DTD SVG 1.1//EN"
  "http://www.w3.org/Graphics/SVG/1.1/DTD/svg11.dtd">
<svg xmlns:xlink="http://www.w3.org/1999/xlink" width="288pt" height="120pt" viewBox="0 0 288 120" xmlns="http://www.w3.org/2000/svg" version="1.1">
<desc id="nav-meta">{"window":"1m","count":4,"labels":["11.05","21.05","30.05","09.06"],"tick_utc":["2026-05-11T04:46:58Z","2026-05-21T04:59:27Z","2026-05-30T04:39:03Z","2026-06-09T04:50:50Z"],"w":720,"h":300}</desc>

 <metadata>
  <rdf:RDF xmlns:dc="http://purl.org/dc/elements/1.1/" xmlns:cc="http://creativecommons.org/ns#" xmlns:rdf="http://www.w3.org/1999/02/22-rdf-syntax-ns#">
   <cc:Work>
    <dc:type rdf:resource="http://purl.org/dc/dcmitype/StillImage"/>
    <dc:date>2026-06-09T20:35:09.022417</dc:date>
    <dc:format>image/svg+xml</dc:format>
    <dc:creator>
     <cc:Agent>
      <dc:title>Matplotlib v3.10.9, https://matplotlib.org/</dc:title>
     </cc:Agent>
    </dc:creator>
   </cc:Work>
  </rdf:RDF>
 </metadata>
 <defs>
  <style type="text/css">*{stroke-linejoin: round; stroke-linecap: butt}</style>
 </defs>
 <g id="figure_1">
  <g id="patch_1">
   <path d="M 0 120 
L 288 120 
L 288 0 
L 0 0 
L 0 120 
z
" style="fill: none; opacity: 0"/>
  </g>
  <g id="axes_1">
   <g id="patch_2">
    <path d="M 8.64 108 
L 279.36 108 
L 279.36 4.8 
L 8.64 4.8 
L 8.64 108 
z
" style="fill: none"/>
   </g>
   <g id="matplotlib.axis_1"/>
   <g id="matplotlib.axis_2"/>
   <g id="line2d_1">
    <path d="M 8.64 87.36 
L 279.36 87.36 
" clip-path="url(#p736e398f6a)" style="fill: none; stroke: #b2b2b2; stroke-opacity: 0.35; stroke-width: 0.5; stroke-linecap: square"/>
   </g>
   <g id="line2d_2">
    <path d="M 8.64 66.72 
L 279.36 66.72 
" clip-path="url(#p736e398f6a)" style="fill: none; stroke: #b2b2b2; stroke-opacity: 0.35; stroke-width: 0.5; stroke-linecap: square"/>
   </g>
   <g id="line2d_3">
    <path d="M 8.64 46.08 
L 279.36 46.08 
" clip-path="url(#p736e398f6a)" style="fill: none; stroke: #b2b2b2; stroke-opacity: 0.35; stroke-width: 0.5; stroke-linecap: square"/>
   </g>
   <g id="line2d_4">
    <path d="M 8.64 25.44 
L 279.36 25.44 
" clip-path="url(#p736e398f6a)" style="fill: none; stroke: #b2b2b2; stroke-opacity: 0.35; stroke-width: 0.5; stroke-linecap: square"/>
   </g>
   <g id="line2d_5">
    <path d="M 8.64 99.44472 
L 17.844665 99.25896 
L 27.223376 99.32088 
L 36.547313 100.22904 
L 45.927644 100.01232 
L 55.142788 100.43544 
L 64.616463 100.75536 
L 74.041413 101.02368 
L 83.308847 101.02368 
L 92.676538 101.17848 
L 102.064 100.7244 
L 111.326789 100.75536 
L 120.532858 101.11656 
L 130.014959 100.91016 
L 139.472104 100.89984 
L 148.664993 101.1372 
L 158.095129 101.2404 
L 167.39962 101.6532 
L 176.740842 101.4984 
L 185.940537 101.48808 
L 195.465421 101.32296 
L 204.937799 101.51904 
L 214.180277 101.7048 
L 223.619596 102.54072 
L 232.921925 103.08768 
L 242.102498 103.36632 
L 251.293334 104.22288 
L 260.828265 103.85136 
L 270.203843 103.68624 
L 279.36 103.43856 
" clip-path="url(#p736e398f6a)" style="fill: none; stroke: #bebebe; stroke-width: 0.5; stroke-linecap: round"/>
   </g>
   <g id="line2d_6">
    <path d="M 8.64 84.9348 
L 17.844665 85.296 
L 27.223376 85.35792 
L 36.547313 86.1732 
L 45.927644 85.92552 
L 55.142788 86.55504 
L 64.616463 87.13296 
L 74.041413 88.10304 
L 83.308847 87.9276 
L 92.676538 88.26816 
L 102.064 87.78312 
L 111.326789 87.95856 
L 120.532858 88.94928 
L 130.014959 88.14432 
L 139.472104 88.33008 
L 148.664993 88.52616 
L 158.095129 88.86672 
L 167.39962 90.22896 
L 176.740842 89.82648 
L 185.940537 89.87808 
L 195.465421 89.46528 
L 204.937799 90.0432 
L 214.180277 89.96064 
L 223.619596 91.99368 
L 232.921925 93.05664 
L 242.102498 93.74808 
L 251.293334 97.02984 
L 260.828265 95.93592 
L 270.203843 95.07936 
L 279.36 94.46016 
" clip-path="url(#p736e398f6a)" style="fill: none; stroke: #4a8dff; stroke-width: 0.6"/>
   </g>
   <g id="line2d_7">
    <path d="M 8.64 92.9844 
L 17.844665 92.60256 
L 27.223376 92.53032 
L 36.547313 94.54272 
L 45.927644 92.85024 
L 55.142788 94.82136 
L 64.616463 95.75016 
L 74.041413 96.97824 
L 83.308847 97.08144 
L 92.676538 97.23624 
L 102.064 95.94624 
L 111.326789 96.30744 
L 120.532858 98.08248 
L 130.014959 97.2672 
L 139.472104 96.61704 
L 148.664993 97.23624 
L 158.095129 98.08248 
L 167.39962 99.18672 
L 176.740842 99.03192 
L 185.940537 99.1248 
L 195.465421 98.74296 
L 204.937799 99.09384 
L 214.180277 100.0536 
L 223.619596 101.23008 
L 232.921925 101.99376 
L 242.102498 102.08664 
L 251.293334 102.8916 
L 260.828265 102.45816 
L 270.203843 102.28272 
L 279.36 102.10728 
" clip-path="url(#p736e398f6a)" style="fill: none; stroke: #f5841e; stroke-width: 0.6"/>
   </g>
  </g>
 </g>
 <defs>
  <clipPath id="p736e398f6a">
   <rect x="8.64" y="4.8" width="270.72" height="103.2"/>
  </clipPath>
 </defs>
</svg>
