<?xml version="1.0" encoding="utf-8" standalone="no"?>
<!DOCTYPE svg PUBLIC "-//W3C//DTD SVG 1.1//EN"
  "http://www.w3.org/Graphics/SVG/1.1/DTD/svg11.dtd">
<svg xmlns:xlink="http://www.w3.org/1999/xlink" width="288pt" height="120pt" viewBox="0 0 288 120" xmlns="http://www.w3.org/2000/svg" version="1.1">
<desc id="nav-meta">{"window":"1m","count":4,"labels":["22.04","02.05","11.05","21.05"],"tick_utc":["2026-04-22T03:51:39Z","2026-05-02T04:02:31Z","2026-05-11T04:46:58Z","2026-05-21T04:59:27Z"],"w":720,"h":300}</desc>

 <metadata>
  <rdf:RDF xmlns:dc="http://purl.org/dc/elements/1.1/" xmlns:cc="http://creativecommons.org/ns#" xmlns:rdf="http://www.w3.org/1999/02/22-rdf-syntax-ns#">
   <cc:Work>
    <dc:type rdf:resource="http://purl.org/dc/dcmitype/StillImage"/>
    <dc:date>2026-05-21T16:01:11.093038</dc:date>
    <dc:format>image/svg+xml</dc:format>
    <dc:creator>
     <cc:Agent>
      <dc:title>Matplotlib v3.10.9, https://matplotlib.org/</dc:title>
     </cc:Agent>
    </dc:creator>
   </cc:Work>
  </rdf:RDF>
 </metadata>
 <defs>
  <style type="text/css">*{stroke-linejoin: round; stroke-linecap: butt}</style>
 </defs>
 <g id="figure_1">
  <g id="patch_1">
   <path d="M 0 120 
L 288 120 
L 288 0 
L 0 0 
L 0 120 
z
" style="fill: none; opacity: 0"/>
  </g>
  <g id="axes_1">
   <g id="patch_2">
    <path d="M 8.64 108 
L 279.36 108 
L 279.36 4.8 
L 8.64 4.8 
L 8.64 108 
z
" style="fill: none"/>
   </g>
   <g id="matplotlib.axis_1"/>
   <g id="matplotlib.axis_2"/>
   <g id="line2d_1">
    <path d="M 8.64 87.36 
L 279.36 87.36 
" clip-path="url(#p9e542eb271)" style="fill: none; stroke: #b2b2b2; stroke-opacity: 0.35; stroke-width: 0.5; stroke-linecap: square"/>
   </g>
   <g id="line2d_2">
    <path d="M 8.64 66.72 
L 279.36 66.72 
" clip-path="url(#p9e542eb271)" style="fill: none; stroke: #b2b2b2; stroke-opacity: 0.35; stroke-width: 0.5; stroke-linecap: square"/>
   </g>
   <g id="line2d_3">
    <path d="M 8.64 46.08 
L 279.36 46.08 
" clip-path="url(#p9e542eb271)" style="fill: none; stroke: #b2b2b2; stroke-opacity: 0.35; stroke-width: 0.5; stroke-linecap: square"/>
   </g>
   <g id="line2d_4">
    <path d="M 8.64 25.44 
L 279.36 25.44 
" clip-path="url(#p9e542eb271)" style="fill: none; stroke: #b2b2b2; stroke-opacity: 0.35; stroke-width: 0.5; stroke-linecap: square"/>
   </g>
   <g id="line2d_5">
    <path d="M 8.64 100.69344 
L 17.997796 100.9308 
L 27.342539 100.92048 
L 36.551365 100.81728 
L 46.016384 100.8792 
L 55.436852 100.64184 
L 64.776418 101.1888 
L 74.071001 101.09592 
L 83.406683 101.37456 
L 92.828554 101.21976 
L 101.910739 101.20944 
L 111.419985 101.23008 
L 120.73679 100.92048 
L 129.851553 101.06496 
L 139.335773 100.70376 
L 148.658294 100.55928 
L 157.823217 100.53864 
L 167.177345 99.60984 
L 176.685189 99.72336 
L 186.078797 99.44472 
L 195.269393 99.25896 
L 204.633769 99.32088 
L 213.943454 100.22904 
L 223.309448 100.01232 
L 232.510507 100.43544 
L 241.969701 100.75536 
L 251.380245 101.02368 
L 260.633514 101.02368 
L 269.986887 101.17848 
L 279.36 100.7244 
" clip-path="url(#p9e542eb271)" style="fill: none; stroke: #bebebe; stroke-width: 0.5; stroke-linecap: round"/>
   </g>
   <g id="line2d_6">
    <path d="M 8.64 84.49104 
L 17.997796 84.86256 
L 27.342539 85.32696 
L 36.551365 85.17216 
L 46.016384 85.31664 
L 55.436852 84.11952 
L 64.776418 85.66752 
L 74.071001 85.26504 
L 83.406683 86.26608 
L 92.828554 85.77072 
L 101.910739 85.38888 
L 111.419985 85.3992 
L 120.73679 84.09888 
L 129.851553 84.22272 
L 139.335773 84.34656 
L 148.658294 85.06896 
L 157.823217 85.7604 
L 167.177345 85.0896 
L 176.685189 85.01736 
L 186.078797 84.9348 
L 195.269393 85.296 
L 204.633769 85.35792 
L 213.943454 86.1732 
L 223.309448 85.92552 
L 232.510507 86.55504 
L 241.969701 87.13296 
L 251.380245 88.10304 
L 260.633514 87.9276 
L 269.986887 88.26816 
L 279.36 87.78312 
" clip-path="url(#p9e542eb271)" style="fill: none; stroke: #4a8dff; stroke-width: 0.6"/>
   </g>
   <g id="line2d_7">
    <path d="M 8.64 96.32808 
L 17.997796 96.20424 
L 27.342539 96.16296 
L 36.551365 96.1836 
L 46.016384 96.50352 
L 55.436852 94.76976 
L 64.776418 97.19496 
L 74.071001 96.9576 
L 83.406683 97.9896 
L 92.828554 96.89568 
L 101.910739 95.45088 
L 111.419985 95.67792 
L 120.73679 93.43848 
L 129.851553 92.90184 
L 139.335773 92.25168 
L 148.658294 92.87088 
L 157.823217 94.2744 
L 167.177345 93.1392 
L 176.685189 92.97408 
L 186.078797 92.9844 
L 195.269393 92.60256 
L 204.633769 92.53032 
L 213.943454 94.54272 
L 223.309448 92.85024 
L 232.510507 94.82136 
L 241.969701 95.75016 
L 251.380245 96.97824 
L 260.633514 97.08144 
L 269.986887 97.23624 
L 279.36 95.94624 
" clip-path="url(#p9e542eb271)" style="fill: none; stroke: #f5841e; stroke-width: 0.6"/>
   </g>
  </g>
 </g>
 <defs>
  <clipPath id="p9e542eb271">
   <rect x="8.64" y="4.8" width="270.72" height="103.2"/>
  </clipPath>
 </defs>
</svg>
