<?xml version="1.0" encoding="utf-8" standalone="no"?>
<!DOCTYPE svg PUBLIC "-//W3C//DTD SVG 1.1//EN"
  "http://www.w3.org/Graphics/SVG/1.1/DTD/svg11.dtd">
<svg xmlns:xlink="http://www.w3.org/1999/xlink" width="288pt" height="120pt" viewBox="0 0 288 120" xmlns="http://www.w3.org/2000/svg" version="1.1">
<desc id="nav-meta">{"window":"1m","count":4,"labels":["23.06","03.07","13.07","23.07"],"tick_utc":["2026-06-23T04:45:28Z","2026-07-03T04:30:06Z","2026-07-13T04:20:46Z","2026-07-23T03:58:20Z"],"w":720,"h":300}</desc>

 <metadata>
  <rdf:RDF xmlns:dc="http://purl.org/dc/elements/1.1/" xmlns:cc="http://creativecommons.org/ns#" xmlns:rdf="http://www.w3.org/1999/02/22-rdf-syntax-ns#">
   <cc:Work>
    <dc:type rdf:resource="http://purl.org/dc/dcmitype/StillImage"/>
    <dc:date>2026-07-23T03:58:22.679397</dc:date>
    <dc:format>image/svg+xml</dc:format>
    <dc:creator>
     <cc:Agent>
      <dc:title>Matplotlib v3.11.1, https://matplotlib.org/</dc:title>
     </cc:Agent>
    </dc:creator>
   </cc:Work>
  </rdf:RDF>
 </metadata>
 <defs>
  <style type="text/css">*{stroke-linejoin: round; stroke-linecap: butt}</style>
 </defs>
 <g id="figure_1">
  <g id="patch_1">
   <path d="M 0 120 
L 288 120 
L 288 0 
L 0 0 
L 0 120 
z
" style="fill: none; opacity: 0"/>
  </g>
  <g id="axes_1">
   <g id="patch_2">
    <path d="M 8.64 108 
L 279.36 108 
L 279.36 4.8 
L 8.64 4.8 
L 8.64 108 
z
" style="fill: none"/>
   </g>
   <g id="matplotlib.axis_1"/>
   <g id="matplotlib.axis_2"/>
   <g id="line2d_1">
    <path d="M 8.64 87.36 
L 279.36 87.36 
" clip-path="url(#p49423c7396)" style="fill: none; stroke: #b2b2b2; stroke-opacity: 0.35; stroke-width: 0.5; stroke-linecap: square"/>
   </g>
   <g id="line2d_2">
    <path d="M 8.64 66.72 
L 279.36 66.72 
" clip-path="url(#p49423c7396)" style="fill: none; stroke: #b2b2b2; stroke-opacity: 0.35; stroke-width: 0.5; stroke-linecap: square"/>
   </g>
   <g id="line2d_3">
    <path d="M 8.64 46.08 
L 279.36 46.08 
" clip-path="url(#p49423c7396)" style="fill: none; stroke: #b2b2b2; stroke-opacity: 0.35; stroke-width: 0.5; stroke-linecap: square"/>
   </g>
   <g id="line2d_4">
    <path d="M 8.64 25.44 
L 279.36 25.44 
" clip-path="url(#p49423c7396)" style="fill: none; stroke: #b2b2b2; stroke-opacity: 0.35; stroke-width: 0.5; stroke-linecap: square"/>
   </g>
   <g id="line2d_5">
    <path d="M 8.64 102.88128 
L 17.706165 103.15992 
L 26.737617 103.36632 
L 35.817792 103.36632 
L 44.740921 102.81936 
L 53.946985 103.0464 
L 63.046191 102.9432 
L 71.904912 102.59232 
L 81.07093 102.40656 
L 89.94659 102.02472 
L 98.882161 101.68416 
L 107.877121 101.3436 
L 117.043244 101.6532 
L 126.164616 101.6532 
L 135.062965 101.63256 
L 143.851318 101.95248 
L 153.159013 102.08664 
L 162.17248 101.9112 
L 170.939608 102.066 
L 180.108554 102.18984 
L 189.162172 102.31368 
L 197.98712 102.45816 
L 207.023277 102.08664 
L 216.079718 102.21048 
L 225.115038 102.4272 
L 234.104248 102.4272 
L 243.273926 102.34464 
L 252.430325 102.25176 
L 261.299502 102.02472 
L 270.339945 102.066 
L 279.36 102.10728 
" clip-path="url(#p49423c7396)" style="fill: none; stroke: #bebebe; stroke-width: 0.5; stroke-linecap: round"/>
   </g>
   <g id="line2d_6">
    <path d="M 8.64 94.03704 
L 17.706165 94.83168 
L 26.737617 95.48184 
L 35.817792 96.63768 
L 44.740921 96.14232 
L 53.946985 96.30744 
L 63.046191 96.29712 
L 71.904912 96.04944 
L 81.07093 95.9256 
L 89.94659 95.39928 
L 98.882161 94.31568 
L 107.877121 93.57264 
L 117.043244 93.32496 
L 126.164616 93.22176 
L 135.062965 93.35592 
L 143.851318 93.61392 
L 153.159013 93.77904 
L 162.17248 93.26304 
L 170.939608 92.92248 
L 180.108554 92.71608 
L 189.162172 93.15984 
L 197.98712 93.17016 
L 207.023277 91.80792 
L 216.079718 91.14744 
L 225.115038 92.13816 
L 234.104248 92.25168 
L 243.273926 91.9008 
L 252.430325 91.81824 
L 261.299502 91.00296 
L 270.339945 90.98232 
L 279.36 91.10616 
" clip-path="url(#p49423c7396)" style="fill: none; stroke: #4a8dff; stroke-width: 0.6"/>
   </g>
   <g id="line2d_7">
    <path d="M 8.64 102.0144 
L 17.706165 102.25176 
L 26.737617 102.6336 
L 35.817792 102.88128 
L 44.740921 102.77808 
L 53.946985 102.85032 
L 63.046191 102.93288 
L 71.904912 102.95352 
L 81.07093 103.00512 
L 89.94659 102.69552 
L 98.882161 102.55104 
L 107.877121 102.2724 
L 117.043244 102.21048 
L 126.164616 102.12792 
L 135.062965 102.13824 
L 143.851318 102.25176 
L 153.159013 102.36528 
L 162.17248 101.94216 
L 170.939608 101.92152 
L 180.108554 101.9112 
L 189.162172 102.2208 
L 197.98712 102.31368 
L 207.023277 101.79768 
L 216.079718 101.81832 
L 225.115038 102.07632 
L 234.104248 101.97312 
L 243.273926 101.79768 
L 252.430325 101.78736 
L 261.299502 101.57064 
L 270.339945 101.40552 
L 279.36 101.55 
" clip-path="url(#p49423c7396)" style="fill: none; stroke: #f5841e; stroke-width: 0.6"/>
   </g>
  </g>
 </g>
 <defs>
  <clipPath id="p49423c7396">
   <rect x="8.64" y="4.8" width="270.72" height="103.2"/>
  </clipPath>
 </defs>
</svg>
