<?xml version="1.0" encoding="utf-8" standalone="no"?>
<!DOCTYPE svg PUBLIC "-//W3C//DTD SVG 1.1//EN"
  "http://www.w3.org/Graphics/SVG/1.1/DTD/svg11.dtd">
<svg xmlns:xlink="http://www.w3.org/1999/xlink" width="288pt" height="120pt" viewBox="0 0 288 120" xmlns="http://www.w3.org/2000/svg" version="1.1">
<desc id="nav-meta">{"window":"3m","count":4,"labels":["22.12","21.01","19.02","21.03"],"tick_utc":["2025-12-22T12:00:00Z","2026-01-21T12:00:00Z","2026-02-19T03:28:49Z","2026-03-21T03:10:23Z"],"w":720,"h":300}</desc>

 <metadata>
  <rdf:RDF xmlns:dc="http://purl.org/dc/elements/1.1/" xmlns:cc="http://creativecommons.org/ns#" xmlns:rdf="http://www.w3.org/1999/02/22-rdf-syntax-ns#">
   <cc:Work>
    <dc:type rdf:resource="http://purl.org/dc/dcmitype/StillImage"/>
    <dc:date>2026-03-21T19:03:27.964968</dc:date>
    <dc:format>image/svg+xml</dc:format>
    <dc:creator>
     <cc:Agent>
      <dc:title>Matplotlib v3.10.8, https://matplotlib.org/</dc:title>
     </cc:Agent>
    </dc:creator>
   </cc:Work>
  </rdf:RDF>
 </metadata>
 <defs>
  <style type="text/css">*{stroke-linejoin: round; stroke-linecap: butt}</style>
 </defs>
 <g id="figure_1">
  <g id="patch_1">
   <path d="M 0 120 
L 288 120 
L 288 0 
L 0 0 
L 0 120 
z
" style="fill: none; opacity: 0"/>
  </g>
  <g id="axes_1">
   <g id="patch_2">
    <path d="M 8.64 108 
L 279.36 108 
L 279.36 4.8 
L 8.64 4.8 
L 8.64 108 
z
" style="fill: none"/>
   </g>
   <g id="matplotlib.axis_1"/>
   <g id="matplotlib.axis_2"/>
   <g id="line2d_1">
    <path d="M 8.64 87.36 
L 279.36 87.36 
" clip-path="url(#p2a48113850)" style="fill: none; stroke: #b2b2b2; stroke-opacity: 0.35; stroke-width: 0.5; stroke-linecap: square"/>
   </g>
   <g id="line2d_2">
    <path d="M 8.64 66.72 
L 279.36 66.72 
" clip-path="url(#p2a48113850)" style="fill: none; stroke: #b2b2b2; stroke-opacity: 0.35; stroke-width: 0.5; stroke-linecap: square"/>
   </g>
   <g id="line2d_3">
    <path d="M 8.64 46.08 
L 279.36 46.08 
" clip-path="url(#p2a48113850)" style="fill: none; stroke: #b2b2b2; stroke-opacity: 0.35; stroke-width: 0.5; stroke-linecap: square"/>
   </g>
   <g id="line2d_4">
    <path d="M 8.64 25.44 
L 279.36 25.44 
" clip-path="url(#p2a48113850)" style="fill: none; stroke: #b2b2b2; stroke-opacity: 0.35; stroke-width: 0.5; stroke-linecap: square"/>
   </g>
   <g id="line2d_5">
    <path d="M 8.64 92.07624 
L 11.69442 92.14848 
L 14.74884 92.64384 
L 17.80326 93.01536 
L 20.85768 93.69648 
L 23.9121 93.11856 
L 26.96652 92.44776 
L 30.02094 92.30328 
L 33.07536 92.87088 
L 36.12978 92.38584 
L 39.1842 92.47872 
L 42.23862 91.88016 
L 45.29304 90.42504 
L 48.34746 90.08448 
L 51.40188 89.92968 
L 54.456301 88.76352 
L 57.510721 87.94824 
L 60.565141 89.2692 
L 63.619561 88.72224 
L 66.673981 89.39304 
L 69.728401 89.40336 
L 72.782821 88.41264 
L 75.837241 88.4952 
L 78.891661 86.86464 
L 81.946081 86.42088 
L 85.000501 87.62832 
L 88.054921 86.93688 
L 91.109341 87.23616 
L 94.163761 88.63968 
L 97.218181 90.0432 
L 100.272601 92.12784 
L 103.327021 91.16808 
L 106.381441 91.46736 
L 109.435861 91.73568 
L 112.490281 91.78728 
L 115.544701 94.0164 
L 118.599121 92.5716 
L 121.653541 91.76664 
L 124.707961 92.33424 
L 127.762381 94.36728 
L 130.816801 94.46016 
L 133.871221 97.71096 
L 136.925641 98.48496 
L 139.980062 97.85544 
L 142.558678 99.10416 
L 144.985987 100.16712 
L 148.038852 102.23112 
L 151.080192 100.54896 
L 154.204432 100.70376 
L 157.233646 100.68312 
L 160.305495 100.95144 
L 163.353587 101.28168 
L 166.397012 101.71512 
L 169.450513 101.84928 
L 172.468202 101.034 
L 175.361452 100.54896 
L 178.611793 101.04432 
L 181.282537 100.81728 
L 184.71579 101.034 
L 187.766498 101.4984 
L 190.803066 101.33328 
L 193.83882 101.1372 
L 196.928132 101.06496 
L 199.991744 102.09696 
L 202.788129 102.05568 
L 206.089589 101.4984 
L 209.130399 100.60056 
L 212.179021 100.80696 
L 215.197453 101.45712 
L 218.321269 100.55928 
L 221.344155 101.10624 
L 224.405681 100.8792 
L 227.44299 100.74504 
L 230.503986 100.21872 
L 233.556956 100.53864 
L 236.587938 101.07528 
L 239.672019 101.38488 
L 242.735595 101.26104 
L 245.770394 100.78632 
L 248.823612 100.91016 
L 251.890052 100.99272 
L 254.938568 100.38384 
L 257.988923 100.50768 
L 261.10178 100.60056 
L 264.164826 99.76464 
L 267.165794 99.49632 
L 270.243511 99.40344 
L 273.298779 100.09488 
L 276.323468 100.3632 
L 279.36 100.19808 
" clip-path="url(#p2a48113850)" style="fill: none; stroke: #bebebe; stroke-width: 0.5; stroke-linecap: round"/>
   </g>
   <g id="line2d_6">
    <path d="M 8.64 75.04824 
L 11.69442 74.98632 
L 14.74884 75.58488 
L 17.80326 75.87384 
L 20.85768 76.49304 
L 23.9121 76.15248 
L 26.96652 75.82224 
L 30.02094 75.84288 
L 33.07536 76.03896 
L 36.12978 75.51264 
L 39.1842 75.56424 
L 42.23862 75.05856 
L 45.29304 73.26288 
L 48.34746 73.20096 
L 51.40188 73.00488 
L 54.456301 71.68392 
L 57.510721 70.6932 
L 60.565141 72.62304 
L 63.619561 73.52088 
L 66.673981 73.83048 
L 69.728401 73.8408 
L 72.782821 73.29384 
L 75.837241 73.72728 
L 78.891661 70.32168 
L 81.946081 69.77472 
L 85.000501 70.34232 
L 88.054921 70.67256 
L 91.109341 70.51776 
L 94.163761 70.848 
L 97.218181 72.31344 
L 100.272601 76.01832 
L 103.327021 75.41976 
L 106.381441 75.83256 
L 109.435861 75.79128 
L 112.490281 75.82224 
L 115.544701 77.82432 
L 118.599121 76.14216 
L 121.653541 74.75928 
L 124.707961 74.96568 
L 127.762381 77.75208 
L 130.816801 79.48584 
L 133.871221 83.31456 
L 136.925641 85.90488 
L 139.980062 84.79032 
L 142.558678 85.84296 
L 144.985987 88.25784 
L 148.038852 91.41576 
L 151.080192 88.7532 
L 154.204432 88.65 
L 157.233646 88.55712 
L 160.305495 88.96992 
L 163.353587 89.7336 
L 166.397012 90.456 
L 169.450513 90.56952 
L 172.468202 89.15568 
L 175.361452 88.9596 
L 178.611793 90.6624 
L 181.282537 89.94 
L 184.71579 90.00192 
L 187.766498 90.3528 
L 190.803066 90.62112 
L 193.83882 90.5076 
L 196.928132 90.3528 
L 199.991744 92.004 
L 202.788129 92.13816 
L 206.089589 91.25064 
L 209.130399 89.166 
L 212.179021 89.56848 
L 215.197453 90.93072 
L 218.321269 89.41368 
L 221.344155 90.37344 
L 224.405681 89.79552 
L 227.44299 90.23928 
L 230.503986 88.0824 
L 233.556956 88.7532 
L 236.587938 90.16704 
L 239.672019 90.67272 
L 242.735595 90.18768 
L 245.770394 89.2692 
L 248.823612 89.54784 
L 251.890052 89.49624 
L 254.938568 88.31976 
L 257.988923 88.45392 
L 261.10178 88.46424 
L 264.164826 86.38992 
L 267.165794 84.80064 
L 270.243511 84.8316 
L 273.298779 86.586 
L 276.323468 87.74184 
L 279.36 87.618 
" clip-path="url(#p2a48113850)" style="fill: none; stroke: #4a8dff; stroke-width: 0.6"/>
   </g>
   <g id="line2d_7">
    <path d="M 8.64 84.9348 
L 11.69442 85.01736 
L 14.74884 86.14224 
L 17.80326 85.90488 
L 20.85768 86.328 
L 23.9121 86.24544 
L 26.96652 85.72944 
L 30.02094 85.7088 
L 33.07536 86.40024 
L 36.12978 85.09992 
L 39.1842 86.02872 
L 42.23862 84.78 
L 45.29304 83.53128 
L 48.34746 82.83984 
L 51.40188 82.03488 
L 54.456301 79.39296 
L 57.510721 79.66128 
L 60.565141 82.15872 
L 63.619561 82.43736 
L 66.673981 82.93272 
L 69.728401 83.00496 
L 72.782821 82.6128 
L 75.837241 82.28256 
L 78.891661 78.01008 
L 81.946081 76.19376 
L 85.000501 77.66952 
L 88.054921 77.74176 
L 91.109341 78.1752 
L 94.163761 79.5684 
L 97.218181 80.8068 
L 100.272601 85.20312 
L 103.327021 84.12984 
L 106.381441 84.03696 
L 109.435861 84.06792 
L 112.490281 84.3156 
L 115.544701 87.02976 
L 118.599121 85.21344 
L 121.653541 84.28464 
L 124.707961 84.32592 
L 127.762381 89.08344 
L 130.816801 89.5272 
L 133.871221 95.14128 
L 136.925641 96.98856 
L 139.980062 95.08968 
L 142.558678 97.71096 
L 144.985987 99.80592 
L 148.038852 101.79768 
L 151.080192 100.03296 
L 154.204432 100.518 
L 157.233646 99.98136 
L 160.305495 100.49736 
L 163.353587 100.78632 
L 166.397012 101.07528 
L 169.450513 101.26104 
L 172.468202 100.63152 
L 175.361452 100.38384 
L 178.611793 100.84824 
L 181.282537 100.65216 
L 184.71579 101.034 
L 187.766498 101.19912 
L 190.803066 101.10624 
L 193.83882 100.97208 
L 196.928132 100.91016 
L 199.991744 101.7564 
L 202.788129 101.84928 
L 206.089589 101.56032 
L 209.130399 100.85856 
L 212.179021 101.12688 
L 215.197453 101.4468 
L 218.321269 101.02368 
L 221.344155 101.30232 
L 224.405681 100.81728 
L 227.44299 100.79664 
L 230.503986 99.3312 
L 233.556956 99.92976 
L 236.587938 100.78632 
L 239.672019 101.17848 
L 242.735595 101.1372 
L 245.770394 100.21872 
L 248.823612 100.37352 
L 251.890052 100.4664 
L 254.938568 99.88848 
L 257.988923 99.94008 
L 261.10178 99.81624 
L 264.164826 98.93904 
L 267.165794 98.3508 
L 270.243511 98.52624 
L 273.298779 99.78528 
L 276.323468 100.12584 
L 279.36 100.03296 
" clip-path="url(#p2a48113850)" style="fill: none; stroke: #f5841e; stroke-width: 0.6"/>
   </g>
  </g>
 </g>
 <defs>
  <clipPath id="p2a48113850">
   <rect x="8.64" y="4.8" width="270.72" height="103.2"/>
  </clipPath>
 </defs>
</svg>
