<?xml version="1.0" encoding="utf-8" standalone="no"?>
<!DOCTYPE svg PUBLIC "-//W3C//DTD SVG 1.1//EN"
  "http://www.w3.org/Graphics/SVG/1.1/DTD/svg11.dtd">
<svg xmlns:xlink="http://www.w3.org/1999/xlink" width="288pt" height="120pt" viewBox="0 0 288 120" xmlns="http://www.w3.org/2000/svg" version="1.1">
<desc id="nav-meta">{"window":"1m","count":4,"labels":["13.02","23.02","04.03","14.03"],"tick_utc":["2026-02-13T03:33:47Z","2026-02-23T03:32:23Z","2026-03-04T03:14:13Z","2026-03-14T03:15:02Z"],"w":720,"h":300}</desc>

 <metadata>
  <rdf:RDF xmlns:dc="http://purl.org/dc/elements/1.1/" xmlns:cc="http://creativecommons.org/ns#" xmlns:rdf="http://www.w3.org/1999/02/22-rdf-syntax-ns#">
   <cc:Work>
    <dc:type rdf:resource="http://purl.org/dc/dcmitype/StillImage"/>
    <dc:date>2026-03-14T19:06:34.181444</dc:date>
    <dc:format>image/svg+xml</dc:format>
    <dc:creator>
     <cc:Agent>
      <dc:title>Matplotlib v3.10.8, https://matplotlib.org/</dc:title>
     </cc:Agent>
    </dc:creator>
   </cc:Work>
  </rdf:RDF>
 </metadata>
 <defs>
  <style type="text/css">*{stroke-linejoin: round; stroke-linecap: butt}</style>
 </defs>
 <g id="figure_1">
  <g id="patch_1">
   <path d="M 0 120 
L 288 120 
L 288 0 
L 0 0 
L 0 120 
z
" style="fill: none; opacity: 0"/>
  </g>
  <g id="axes_1">
   <g id="patch_2">
    <path d="M 8.64 108 
L 279.36 108 
L 279.36 4.8 
L 8.64 4.8 
L 8.64 108 
z
" style="fill: none"/>
   </g>
   <g id="matplotlib.axis_1"/>
   <g id="matplotlib.axis_2"/>
   <g id="line2d_1">
    <path d="M 8.64 87.36 
L 279.36 87.36 
" clip-path="url(#p2ff8f94237)" style="fill: none; stroke: #b2b2b2; stroke-opacity: 0.35; stroke-width: 0.5; stroke-linecap: square"/>
   </g>
   <g id="line2d_2">
    <path d="M 8.64 66.72 
L 279.36 66.72 
" clip-path="url(#p2ff8f94237)" style="fill: none; stroke: #b2b2b2; stroke-opacity: 0.35; stroke-width: 0.5; stroke-linecap: square"/>
   </g>
   <g id="line2d_3">
    <path d="M 8.64 46.08 
L 279.36 46.08 
" clip-path="url(#p2ff8f94237)" style="fill: none; stroke: #b2b2b2; stroke-opacity: 0.35; stroke-width: 0.5; stroke-linecap: square"/>
   </g>
   <g id="line2d_4">
    <path d="M 8.64 25.44 
L 279.36 25.44 
" clip-path="url(#p2ff8f94237)" style="fill: none; stroke: #b2b2b2; stroke-opacity: 0.35; stroke-width: 0.5; stroke-linecap: square"/>
   </g>
   <g id="line2d_5">
    <path d="M 8.64 101.84928 
L 17.867056 101.034 
L 26.713618 100.54896 
L 36.652044 101.04432 
L 44.81826 100.81728 
L 55.315966 101.034 
L 64.643982 101.4984 
L 73.92876 101.33328 
L 83.211052 101.1372 
L 92.657107 101.06496 
L 102.024577 102.09696 
L 110.574961 102.05568 
L 120.669691 101.4984 
L 129.967441 100.60056 
L 139.289079 100.80696 
L 148.518405 101.45712 
L 158.06996 100.55928 
L 167.312905 101.10624 
L 176.673998 100.8792 
L 185.961046 100.74504 
L 195.320517 100.21872 
L 204.655451 100.53864 
L 213.92315 101.07528 
L 223.353207 101.38488 
L 232.72057 101.26104 
L 241.999943 100.78632 
L 251.335633 100.91016 
L 260.711751 100.99272 
L 270.033065 100.38384 
L 279.36 100.50768 
" clip-path="url(#p2ff8f94237)" style="fill: none; stroke: #bebebe; stroke-width: 0.5; stroke-linecap: round"/>
   </g>
   <g id="line2d_6">
    <path d="M 8.64 90.56952 
L 17.867056 89.15568 
L 26.713618 88.9596 
L 36.652044 90.6624 
L 44.81826 89.94 
L 55.315966 90.00192 
L 64.643982 90.3528 
L 73.92876 90.62112 
L 83.211052 90.5076 
L 92.657107 90.3528 
L 102.024577 92.004 
L 110.574961 92.13816 
L 120.669691 91.25064 
L 129.967441 89.166 
L 139.289079 89.56848 
L 148.518405 90.93072 
L 158.06996 89.41368 
L 167.312905 90.37344 
L 176.673998 89.79552 
L 185.961046 90.23928 
L 195.320517 88.0824 
L 204.655451 88.7532 
L 213.92315 90.16704 
L 223.353207 90.67272 
L 232.72057 90.18768 
L 241.999943 89.2692 
L 251.335633 89.54784 
L 260.711751 89.49624 
L 270.033065 88.31976 
L 279.36 88.45392 
" clip-path="url(#p2ff8f94237)" style="fill: none; stroke: #4a8dff; stroke-width: 0.6"/>
   </g>
   <g id="line2d_7">
    <path d="M 8.64 101.26104 
L 17.867056 100.63152 
L 26.713618 100.38384 
L 36.652044 100.84824 
L 44.81826 100.65216 
L 55.315966 101.034 
L 64.643982 101.19912 
L 73.92876 101.10624 
L 83.211052 100.97208 
L 92.657107 100.91016 
L 102.024577 101.7564 
L 110.574961 101.84928 
L 120.669691 101.56032 
L 129.967441 100.85856 
L 139.289079 101.12688 
L 148.518405 101.4468 
L 158.06996 101.02368 
L 167.312905 101.30232 
L 176.673998 100.81728 
L 185.961046 100.79664 
L 195.320517 99.3312 
L 204.655451 99.92976 
L 213.92315 100.78632 
L 223.353207 101.17848 
L 232.72057 101.1372 
L 241.999943 100.21872 
L 251.335633 100.37352 
L 260.711751 100.4664 
L 270.033065 99.88848 
L 279.36 99.94008 
" clip-path="url(#p2ff8f94237)" style="fill: none; stroke: #f5841e; stroke-width: 0.6"/>
   </g>
  </g>
 </g>
 <defs>
  <clipPath id="p2ff8f94237">
   <rect x="8.64" y="4.8" width="270.72" height="103.2"/>
  </clipPath>
 </defs>
</svg>
