<?xml version="1.0" encoding="utf-8" standalone="no"?>
<!DOCTYPE svg PUBLIC "-//W3C//DTD SVG 1.1//EN"
  "http://www.w3.org/Graphics/SVG/1.1/DTD/svg11.dtd">
<svg xmlns:xlink="http://www.w3.org/1999/xlink" width="288pt" height="120pt" viewBox="0 0 288 120" xmlns="http://www.w3.org/2000/svg" version="1.1">
<desc id="nav-meta">{"window":"6m","count":4,"labels":["29.10","28.12","25.02","26.04"],"tick_utc":["2025-10-29T12:00:00Z","2025-12-28T12:00:00Z","2026-02-25T03:27:12Z","2026-04-26T04:06:31Z"],"w":720,"h":300}</desc>

 <metadata>
  <rdf:RDF xmlns:dc="http://purl.org/dc/elements/1.1/" xmlns:cc="http://creativecommons.org/ns#" xmlns:rdf="http://www.w3.org/1999/02/22-rdf-syntax-ns#">
   <cc:Work>
    <dc:type rdf:resource="http://purl.org/dc/dcmitype/StillImage"/>
    <dc:date>2026-04-26T19:33:51.387416</dc:date>
    <dc:format>image/svg+xml</dc:format>
    <dc:creator>
     <cc:Agent>
      <dc:title>Matplotlib v3.10.9, https://matplotlib.org/</dc:title>
     </cc:Agent>
    </dc:creator>
   </cc:Work>
  </rdf:RDF>
 </metadata>
 <defs>
  <style type="text/css">*{stroke-linejoin: round; stroke-linecap: butt}</style>
 </defs>
 <g id="figure_1">
  <g id="patch_1">
   <path d="M 0 120 
L 288 120 
L 288 0 
L 0 0 
L 0 120 
z
" style="fill: none; opacity: 0"/>
  </g>
  <g id="axes_1">
   <g id="patch_2">
    <path d="M 8.64 108 
L 279.36 108 
L 279.36 4.8 
L 8.64 4.8 
L 8.64 108 
z
" style="fill: none"/>
   </g>
   <g id="matplotlib.axis_1"/>
   <g id="matplotlib.axis_2"/>
   <g id="line2d_1">
    <path d="M 8.64 87.36 
L 279.36 87.36 
" clip-path="url(#pf531226297)" style="fill: none; stroke: #b2b2b2; stroke-opacity: 0.35; stroke-width: 0.5; stroke-linecap: square"/>
   </g>
   <g id="line2d_2">
    <path d="M 8.64 66.72 
L 279.36 66.72 
" clip-path="url(#pf531226297)" style="fill: none; stroke: #b2b2b2; stroke-opacity: 0.35; stroke-width: 0.5; stroke-linecap: square"/>
   </g>
   <g id="line2d_3">
    <path d="M 8.64 46.08 
L 279.36 46.08 
" clip-path="url(#pf531226297)" style="fill: none; stroke: #b2b2b2; stroke-opacity: 0.35; stroke-width: 0.5; stroke-linecap: square"/>
   </g>
   <g id="line2d_4">
    <path d="M 8.64 25.44 
L 279.36 25.44 
" clip-path="url(#pf531226297)" style="fill: none; stroke: #b2b2b2; stroke-opacity: 0.35; stroke-width: 0.5; stroke-linecap: square"/>
   </g>
   <g id="line2d_5">
    <path d="M 8.64 73.38672 
L 10.155186 73.43832 
L 11.670371 76.15248 
L 13.185557 75.3372 
L 14.700742 75.58488 
L 16.215928 75.35784 
L 17.731113 81.168 
L 19.246299 84.01632 
L 20.761484 82.06584 
L 22.27667 84.19176 
L 23.791855 82.27224 
L 25.307041 83.29392 
L 26.822226 81.62208 
L 28.337412 80.72424 
L 29.852597 84.33624 
L 31.367783 84.64584 
L 32.882968 86.844 
L 34.398154 88.52616 
L 35.913339 88.36104 
L 37.428525 88.93896 
L 38.94371 90.79656 
L 40.458896 88.09272 
L 41.974081 89.22792 
L 43.489267 90.00192 
L 45.004452 91.39512 
L 46.519638 91.63248 
L 48.034823 90.75528 
L 49.550009 88.7016 
L 51.065194 88.52616 
L 52.58038 87.45288 
L 54.095565 88.0308 
L 55.610751 88.94928 
L 58.641122 89.7336 
L 60.156307 91.86984 
L 61.671493 88.60872 
L 63.186678 86.87496 
L 66.217049 90.11544 
L 67.732235 90.38376 
L 69.24742 90.53856 
L 70.762606 90.08448 
L 72.277791 88.79448 
L 73.792977 89.20728 
L 75.308162 89.22792 
L 76.823348 90.31152 
L 78.338533 90.10512 
L 79.853719 91.09584 
L 81.368904 91.61184 
L 82.88409 91.31256 
L 84.399275 92.87088 
L 85.914461 93.8616 
L 87.429646 92.02464 
L 88.944832 92.13816 
L 90.460017 92.07624 
L 91.975203 92.14848 
L 93.490388 92.64384 
L 95.005574 93.01536 
L 96.520759 93.69648 
L 99.55113 92.44776 
L 101.066316 92.30328 
L 102.581501 92.87088 
L 104.096687 92.38584 
L 105.611872 92.47872 
L 107.127058 91.88016 
L 108.642243 90.42504 
L 110.157429 90.08448 
L 111.672614 89.92968 
L 113.1878 88.76352 
L 114.702985 87.94824 
L 116.218171 89.2692 
L 117.733356 88.72224 
L 119.248542 89.39304 
L 120.763727 89.40336 
L 122.278913 88.41264 
L 123.794098 88.4952 
L 125.309284 86.86464 
L 126.824469 86.42088 
L 128.339655 87.62832 
L 129.85484 86.93688 
L 131.370026 87.23616 
L 134.400397 90.0432 
L 135.915582 92.12784 
L 137.430768 91.16808 
L 140.461139 91.73568 
L 141.976324 91.78728 
L 143.49151 94.0164 
L 145.006695 92.5716 
L 146.521881 91.76664 
L 148.037066 92.33424 
L 149.552252 94.36728 
L 151.067437 94.46016 
L 152.582623 97.71096 
L 154.097808 98.48496 
L 155.612994 97.85544 
L 158.096249 100.16712 
L 159.610663 102.23112 
L 161.11936 100.54896 
L 162.669181 100.70376 
L 164.171863 100.68312 
L 167.20774 101.28168 
L 168.717472 101.71512 
L 170.232201 101.84928 
L 171.729166 101.034 
L 173.164401 100.54896 
L 174.776776 101.04432 
L 176.101634 100.81728 
L 177.804744 101.034 
L 179.318088 101.4984 
L 183.862838 101.06496 
L 185.382583 102.09696 
L 186.769767 102.05568 
L 188.4075 101.4984 
L 189.915934 100.60056 
L 191.428244 100.80696 
L 192.925577 101.45712 
L 194.475187 100.55928 
L 195.97473 101.10624 
L 199.000138 100.74504 
L 200.518585 100.21872 
L 202.033052 100.53864 
L 203.53661 101.07528 
L 205.066509 101.38488 
L 206.586237 101.26104 
L 208.091689 100.78632 
L 211.127426 100.99272 
L 212.639683 100.38384 
L 215.697026 100.60056 
L 217.21649 99.76464 
L 218.70516 99.49632 
L 220.231903 99.40344 
L 221.747509 100.09488 
L 223.247946 100.3632 
L 224.754258 100.19808 
L 227.810846 100.79664 
L 229.312002 100.26 
L 230.940038 99.83688 
L 232.360805 100.13616 
L 235.378602 101.38488 
L 241.467753 101.28168 
L 242.962982 101.8596 
L 244.479904 101.88024 
L 245.982112 101.72544 
L 247.520113 101.68416 
L 249.039209 101.47776 
L 250.544556 101.78736 
L 252.062197 101.09592 
L 253.572104 101.46744 
L 255.101231 101.3436 
L 256.593251 101.05464 
L 258.135618 101.3952 
L 259.658573 101.47776 
L 261.164113 100.86888 
L 262.678141 101.26104 
L 264.199885 100.99272 
L 265.711984 100.61088 
L 267.210457 100.44576 
L 268.745652 100.94112 
L 270.26459 101.09592 
L 271.773129 101.00304 
L 273.283615 100.69344 
L 274.804939 100.9308 
L 279.36 100.8792 
L 279.36 100.8792 
" clip-path="url(#pf531226297)" style="fill: none; stroke: #bebebe; stroke-width: 0.5; stroke-linecap: round"/>
   </g>
   <g id="line2d_6">
    <path d="M 8.64 60.49704 
L 10.155186 61.75608 
L 11.670371 63.1596 
L 13.185557 62.49912 
L 14.700742 62.1276 
L 16.215928 61.56 
L 19.246299 70.66224 
L 20.761484 68.72208 
L 22.27667 70.4868 
L 23.791855 68.61888 
L 25.307041 69.11424 
L 26.822226 66.5136 
L 28.337412 66.68904 
L 29.852597 68.8872 
L 31.367783 68.9904 
L 32.882968 71.5704 
L 34.398154 73.48992 
L 35.913339 72.54048 
L 37.428525 73.56216 
L 38.94371 74.74896 
L 40.458896 73.3248 
L 41.974081 74.80056 
L 43.489267 77.556 
L 45.004452 78.55704 
L 46.519638 78.50544 
L 48.034823 78.04104 
L 49.550009 75.76032 
L 51.065194 75.73968 
L 52.58038 74.65608 
L 54.095565 74.83152 
L 55.610751 74.57352 
L 57.125936 75.20304 
L 58.641122 75.17208 
L 60.156307 78.05136 
L 63.186678 72.16896 
L 64.701864 73.08744 
L 66.217049 74.72832 
L 69.24742 74.28456 
L 70.762606 73.21128 
L 72.277791 70.2804 
L 73.792977 70.2288 
L 75.308162 71.56008 
L 76.823348 73.79952 
L 78.338533 73.35576 
L 79.853719 74.0988 
L 81.368904 75.5952 
L 82.88409 75.5952 
L 84.399275 77.61792 
L 85.914461 77.63856 
L 87.429646 75.40944 
L 88.944832 75.40944 
L 90.460017 75.04824 
L 91.975203 74.98632 
L 93.490388 75.58488 
L 95.005574 75.87384 
L 96.520759 76.49304 
L 99.55113 75.82224 
L 101.066316 75.84288 
L 102.581501 76.03896 
L 104.096687 75.51264 
L 105.611872 75.56424 
L 107.127058 75.05856 
L 108.642243 73.26288 
L 110.157429 73.20096 
L 111.672614 73.00488 
L 113.1878 71.68392 
L 114.702985 70.6932 
L 116.218171 72.62304 
L 117.733356 73.52088 
L 119.248542 73.83048 
L 120.763727 73.8408 
L 122.278913 73.29384 
L 123.794098 73.72728 
L 125.309284 70.32168 
L 126.824469 69.77472 
L 128.339655 70.34232 
L 129.85484 70.67256 
L 131.370026 70.51776 
L 132.885211 70.848 
L 134.400397 72.31344 
L 135.915582 76.01832 
L 137.430768 75.41976 
L 138.945953 75.83256 
L 141.976324 75.82224 
L 143.49151 77.82432 
L 145.006695 76.14216 
L 146.521881 74.75928 
L 148.037066 74.96568 
L 149.552252 77.75208 
L 151.067437 79.48584 
L 152.582623 83.31456 
L 154.097808 85.90488 
L 155.612994 84.79032 
L 156.892151 85.84296 
L 159.610663 91.41576 
L 161.11936 88.7532 
L 164.171863 88.55712 
L 165.695694 88.96992 
L 168.717472 90.456 
L 170.232201 90.56952 
L 171.729166 89.15568 
L 173.164401 88.9596 
L 174.776776 90.6624 
L 176.101634 89.94 
L 177.804744 90.00192 
L 180.824418 90.62112 
L 183.862838 90.3528 
L 185.382583 92.004 
L 186.769767 92.13816 
L 188.4075 91.25064 
L 189.915934 89.166 
L 191.428244 89.56848 
L 192.925577 90.93072 
L 194.475187 89.41368 
L 195.97473 90.37344 
L 197.49344 89.79552 
L 199.000138 90.23928 
L 200.518585 88.0824 
L 202.033052 88.7532 
L 203.53661 90.16704 
L 205.066509 90.67272 
L 206.586237 90.18768 
L 208.091689 89.2692 
L 209.606278 89.54784 
L 211.127426 89.49624 
L 212.639683 88.31976 
L 214.152852 88.45392 
L 215.697026 88.46424 
L 217.21649 86.38992 
L 218.70516 84.80064 
L 220.231903 84.8316 
L 221.747509 86.586 
L 223.247946 87.74184 
L 224.754258 87.618 
L 226.292101 88.19592 
L 227.810846 89.08344 
L 229.312002 87.89664 
L 230.940038 87.3084 
L 232.360805 87.65928 
L 233.877902 88.96992 
L 235.378602 90.07416 
L 238.433945 89.3724 
L 239.939573 89.00088 
L 241.467753 88.42296 
L 244.479904 89.10408 
L 245.982112 89.14536 
L 247.520113 89.07312 
L 249.039209 87.9792 
L 250.544556 88.29912 
L 252.062197 86.38992 
L 253.572104 87.24648 
L 255.101231 87.1536 
L 256.593251 86.21448 
L 259.658573 87.01944 
L 261.164113 84.44976 
L 262.678141 85.05864 
L 264.199885 84.58392 
L 265.711984 85.04832 
L 267.210457 83.71704 
L 268.745652 84.86256 
L 270.26459 85.6572 
L 271.773129 85.27536 
L 273.283615 84.49104 
L 276.32414 85.32696 
L 277.821245 85.17216 
L 279.36 85.31664 
L 279.36 85.31664 
" clip-path="url(#pf531226297)" style="fill: none; stroke: #4a8dff; stroke-width: 0.6"/>
   </g>
   <g id="line2d_7">
    <path d="M 8.64 59.68176 
L 10.155186 62.6952 
L 11.670371 64.56312 
L 13.185557 63.18024 
L 14.700742 62.72616 
L 16.215928 62.06568 
L 17.731113 66.33816 
L 19.246299 71.40528 
L 20.761484 69.08328 
L 22.27667 71.7252 
L 23.791855 69.57864 
L 25.307041 70.72416 
L 26.822226 68.2164 
L 28.337412 66.978 
L 29.852597 70.03272 
L 31.367783 71.5188 
L 32.882968 73.3764 
L 34.398154 78.846 
L 35.913339 77.75208 
L 37.428525 78.88728 
L 38.94371 81.34344 
L 40.458896 80.53848 
L 41.974081 82.0452 
L 43.489267 86.92656 
L 45.004452 88.58808 
L 46.519638 88.96992 
L 48.034823 86.7924 
L 49.550009 85.296 
L 51.065194 86.24544 
L 52.58038 82.96368 
L 54.095565 82.13808 
L 55.610751 82.47864 
L 57.125936 82.58184 
L 58.641122 83.03592 
L 60.156307 87.3084 
L 61.671493 82.06584 
L 63.186678 79.71288 
L 64.701864 81.24024 
L 66.217049 84.17112 
L 67.732235 84.24336 
L 69.24742 83.29392 
L 70.762606 82.8192 
L 72.277791 80.64168 
L 73.792977 81.38472 
L 75.308162 80.87904 
L 76.823348 83.13912 
L 78.338533 83.19072 
L 79.853719 85.296 
L 81.368904 87.17424 
L 82.88409 85.71912 
L 84.399275 87.53544 
L 85.914461 88.17528 
L 87.429646 85.41984 
L 90.460017 84.9348 
L 91.975203 85.01736 
L 93.490388 86.14224 
L 95.005574 85.90488 
L 96.520759 86.328 
L 98.035945 86.24544 
L 99.55113 85.72944 
L 101.066316 85.7088 
L 102.581501 86.40024 
L 104.096687 85.09992 
L 105.611872 86.02872 
L 108.642243 83.53128 
L 111.672614 82.03488 
L 113.1878 79.39296 
L 114.702985 79.66128 
L 116.218171 82.15872 
L 117.733356 82.43736 
L 119.248542 82.93272 
L 120.763727 83.00496 
L 123.794098 82.28256 
L 125.309284 78.01008 
L 126.824469 76.19376 
L 128.339655 77.66952 
L 129.85484 77.74176 
L 131.370026 78.1752 
L 132.885211 79.5684 
L 134.400397 80.8068 
L 135.915582 85.20312 
L 137.430768 84.12984 
L 138.945953 84.03696 
L 140.461139 84.06792 
L 141.976324 84.3156 
L 143.49151 87.02976 
L 145.006695 85.21344 
L 146.521881 84.28464 
L 148.037066 84.32592 
L 149.552252 89.08344 
L 151.067437 89.5272 
L 152.582623 95.14128 
L 154.097808 96.98856 
L 155.612994 95.08968 
L 156.892151 97.71096 
L 158.096249 99.80592 
L 159.610663 101.79768 
L 161.11936 100.03296 
L 162.669181 100.518 
L 164.171863 99.98136 
L 165.695694 100.49736 
L 170.232201 101.26104 
L 171.729166 100.63152 
L 173.164401 100.38384 
L 174.776776 100.84824 
L 176.101634 100.65216 
L 177.804744 101.034 
L 179.318088 101.19912 
L 183.862838 100.91016 
L 185.382583 101.7564 
L 186.769767 101.84928 
L 188.4075 101.56032 
L 189.915934 100.85856 
L 192.925577 101.4468 
L 194.475187 101.02368 
L 195.97473 101.30232 
L 197.49344 100.81728 
L 199.000138 100.79664 
L 200.518585 99.3312 
L 202.033052 99.92976 
L 203.53661 100.78632 
L 205.066509 101.17848 
L 206.586237 101.1372 
L 208.091689 100.21872 
L 211.127426 100.4664 
L 212.639683 99.88848 
L 214.152852 99.94008 
L 215.697026 99.81624 
L 217.21649 98.93904 
L 218.70516 98.3508 
L 220.231903 98.52624 
L 221.747509 99.78528 
L 223.247946 100.12584 
L 224.754258 100.03296 
L 227.810846 100.83792 
L 229.312002 100.11552 
L 230.940038 99.87816 
L 232.360805 100.002 
L 233.877902 100.64184 
L 235.378602 101.41584 
L 236.914428 101.21976 
L 239.939573 101.00304 
L 241.467753 100.86888 
L 242.962982 101.21976 
L 244.479904 101.28168 
L 247.520113 101.14752 
L 249.039209 100.55928 
L 250.544556 100.65216 
L 252.062197 99.80592 
L 253.572104 99.96072 
L 255.101231 99.6408 
L 256.593251 99.1764 
L 258.135618 99.70272 
L 259.658573 99.94008 
L 261.164113 98.57784 
L 262.678141 98.65008 
L 264.199885 98.38176 
L 265.711984 98.48496 
L 267.210457 96.70992 
L 268.745652 98.05152 
L 270.26459 98.48496 
L 271.773129 97.96896 
L 273.283615 96.32808 
L 276.32414 96.16296 
L 277.821245 96.1836 
L 279.36 96.50352 
L 279.36 96.50352 
" clip-path="url(#pf531226297)" style="fill: none; stroke: #f5841e; stroke-width: 0.6"/>
   </g>
  </g>
 </g>
 <defs>
  <clipPath id="pf531226297">
   <rect x="8.64" y="4.8" width="270.72" height="103.2"/>
  </clipPath>
 </defs>
</svg>
