<?xml version="1.0" encoding="utf-8" standalone="no"?>
<!DOCTYPE svg PUBLIC "-//W3C//DTD SVG 1.1//EN"
  "http://www.w3.org/Graphics/SVG/1.1/DTD/svg11.dtd">
<svg xmlns:xlink="http://www.w3.org/1999/xlink" width="288pt" height="120pt" viewBox="0 0 288 120" xmlns="http://www.w3.org/2000/svg" version="1.1">
<desc id="nav-meta">{"window":"3m","count":4,"labels":["25.01","24.02","25.03","24.04"],"tick_utc":["2026-01-25T12:00:00Z","2026-02-24T01:30:44Z","2026-03-25T05:09:13Z","2026-04-24T04:01:18Z"],"w":720,"h":300}</desc>

 <metadata>
  <rdf:RDF xmlns:dc="http://purl.org/dc/elements/1.1/" xmlns:cc="http://creativecommons.org/ns#" xmlns:rdf="http://www.w3.org/1999/02/22-rdf-syntax-ns#">
   <cc:Work>
    <dc:type rdf:resource="http://purl.org/dc/dcmitype/StillImage"/>
    <dc:date>2026-04-24T14:17:07.005090</dc:date>
    <dc:format>image/svg+xml</dc:format>
    <dc:creator>
     <cc:Agent>
      <dc:title>Matplotlib v3.10.9, https://matplotlib.org/</dc:title>
     </cc:Agent>
    </dc:creator>
   </cc:Work>
  </rdf:RDF>
 </metadata>
 <defs>
  <style type="text/css">*{stroke-linejoin: round; stroke-linecap: butt}</style>
 </defs>
 <g id="figure_1">
  <g id="patch_1">
   <path d="M 0 120 
L 288 120 
L 288 0 
L 0 0 
L 0 120 
z
" style="fill: none; opacity: 0"/>
  </g>
  <g id="axes_1">
   <g id="patch_2">
    <path d="M 8.64 108 
L 279.36 108 
L 279.36 4.8 
L 8.64 4.8 
L 8.64 108 
z
" style="fill: none"/>
   </g>
   <g id="matplotlib.axis_1"/>
   <g id="matplotlib.axis_2"/>
   <g id="line2d_1">
    <path d="M 8.64 87.36 
L 279.36 87.36 
" clip-path="url(#pfe3b6203fe)" style="fill: none; stroke: #b2b2b2; stroke-opacity: 0.35; stroke-width: 0.5; stroke-linecap: square"/>
   </g>
   <g id="line2d_2">
    <path d="M 8.64 66.72 
L 279.36 66.72 
" clip-path="url(#pfe3b6203fe)" style="fill: none; stroke: #b2b2b2; stroke-opacity: 0.35; stroke-width: 0.5; stroke-linecap: square"/>
   </g>
   <g id="line2d_3">
    <path d="M 8.64 46.08 
L 279.36 46.08 
" clip-path="url(#pfe3b6203fe)" style="fill: none; stroke: #b2b2b2; stroke-opacity: 0.35; stroke-width: 0.5; stroke-linecap: square"/>
   </g>
   <g id="line2d_4">
    <path d="M 8.64 25.44 
L 279.36 25.44 
" clip-path="url(#pfe3b6203fe)" style="fill: none; stroke: #b2b2b2; stroke-opacity: 0.35; stroke-width: 0.5; stroke-linecap: square"/>
   </g>
   <g id="line2d_5">
    <path d="M 8.64 91.78728 
L 11.693202 94.0164 
L 14.746404 92.5716 
L 17.799606 91.76664 
L 20.852808 92.33424 
L 23.90601 94.36728 
L 26.959212 94.46016 
L 30.012414 97.71096 
L 33.065616 98.48496 
L 36.118818 97.85544 
L 38.696406 99.10416 
L 41.122747 100.16712 
L 44.174395 102.23112 
L 47.214522 100.54896 
L 50.337516 100.70376 
L 53.365522 100.68312 
L 56.436146 100.95144 
L 59.483022 101.28168 
L 62.525234 101.71512 
L 65.577517 101.84928 
L 68.594003 101.034 
L 71.486099 100.54896 
L 74.735144 101.04432 
L 77.404823 100.81728 
L 80.836707 101.034 
L 83.886199 101.4984 
L 86.921555 101.33328 
L 89.956098 101.1372 
L 93.044179 101.06496 
L 96.106569 102.09696 
L 98.901839 102.05568 
L 102.201983 101.4984 
L 105.24158 100.60056 
L 108.288986 100.80696 
L 111.306214 101.45712 
L 114.428785 100.55928 
L 117.450465 101.10624 
L 120.51077 100.8792 
L 123.546868 100.74504 
L 126.606643 100.21872 
L 129.658396 100.53864 
L 132.688169 101.07528 
L 135.77102 101.38488 
L 138.833374 101.26104 
L 141.866964 100.78632 
L 144.918964 100.91016 
L 147.984181 100.99272 
L 151.031482 100.38384 
L 154.08062 100.50768 
L 157.192236 100.60056 
L 160.25406 99.76464 
L 163.253831 99.49632 
L 166.330321 99.40344 
L 169.384371 100.09488 
L 172.407854 100.3632 
L 175.443175 100.19808 
L 178.542033 100.47672 
L 181.602409 100.79664 
L 184.62734 100.26 
L 187.907942 99.83688 
L 190.770885 100.13616 
L 193.827939 100.80696 
L 196.851951 101.38488 
L 199.946746 101.3436 
L 203.008677 101.292 
L 206.042619 101.28168 
L 209.122007 101.28168 
L 212.134994 101.8596 
L 215.191695 101.88024 
L 218.218747 101.72544 
L 221.317923 101.68416 
L 224.379006 101.47776 
L 227.412383 101.78736 
L 230.470532 101.09592 
L 233.513098 101.46744 
L 236.594393 101.3436 
L 239.600914 101.05464 
L 242.70889 101.3952 
L 245.777746 101.47776 
L 248.811513 100.86888 
L 251.862382 101.26104 
L 254.928801 100.99272 
L 257.975783 100.61088 
L 260.995308 100.44576 
L 264.088831 100.94112 
L 267.149595 101.09592 
L 270.189404 101.00304 
L 273.233135 100.69344 
L 276.298706 100.9308 
L 279.36 100.92048 
" clip-path="url(#pfe3b6203fe)" style="fill: none; stroke: #bebebe; stroke-width: 0.5; stroke-linecap: round"/>
   </g>
   <g id="line2d_6">
    <path d="M 8.64 75.82224 
L 11.693202 77.82432 
L 14.746404 76.14216 
L 17.799606 74.75928 
L 20.852808 74.96568 
L 23.90601 77.75208 
L 26.959212 79.48584 
L 30.012414 83.31456 
L 33.065616 85.90488 
L 36.118818 84.79032 
L 38.696406 85.84296 
L 41.122747 88.25784 
L 44.174395 91.41576 
L 47.214522 88.7532 
L 50.337516 88.65 
L 53.365522 88.55712 
L 56.436146 88.96992 
L 59.483022 89.7336 
L 62.525234 90.456 
L 65.577517 90.56952 
L 68.594003 89.15568 
L 71.486099 88.9596 
L 74.735144 90.6624 
L 77.404823 89.94 
L 80.836707 90.00192 
L 83.886199 90.3528 
L 86.921555 90.62112 
L 89.956098 90.5076 
L 93.044179 90.3528 
L 96.106569 92.004 
L 98.901839 92.13816 
L 102.201983 91.25064 
L 105.24158 89.166 
L 108.288986 89.56848 
L 111.306214 90.93072 
L 114.428785 89.41368 
L 117.450465 90.37344 
L 120.51077 89.79552 
L 123.546868 90.23928 
L 126.606643 88.0824 
L 129.658396 88.7532 
L 132.688169 90.16704 
L 135.77102 90.67272 
L 138.833374 90.18768 
L 141.866964 89.2692 
L 144.918964 89.54784 
L 147.984181 89.49624 
L 151.031482 88.31976 
L 154.08062 88.45392 
L 157.192236 88.46424 
L 160.25406 86.38992 
L 163.253831 84.80064 
L 166.330321 84.8316 
L 169.384371 86.586 
L 172.407854 87.74184 
L 175.443175 87.618 
L 178.542033 88.19592 
L 181.602409 89.08344 
L 184.62734 87.89664 
L 187.907942 87.3084 
L 190.770885 87.65928 
L 193.827939 88.96992 
L 196.851951 90.07416 
L 199.946746 89.76456 
L 203.008677 89.3724 
L 206.042619 89.00088 
L 209.122007 88.42296 
L 212.134994 88.81512 
L 215.191695 89.10408 
L 218.218747 89.14536 
L 221.317923 89.07312 
L 224.379006 87.9792 
L 227.412383 88.29912 
L 230.470532 86.38992 
L 233.513098 87.24648 
L 236.594393 87.1536 
L 239.600914 86.21448 
L 242.70889 86.66856 
L 245.777746 87.01944 
L 248.811513 84.44976 
L 251.862382 85.05864 
L 254.928801 84.58392 
L 257.975783 85.04832 
L 260.995308 83.71704 
L 264.088831 84.86256 
L 267.149595 85.6572 
L 270.189404 85.27536 
L 273.233135 84.49104 
L 276.298706 84.86256 
L 279.36 85.32696 
" clip-path="url(#pfe3b6203fe)" style="fill: none; stroke: #4a8dff; stroke-width: 0.6"/>
   </g>
   <g id="line2d_7">
    <path d="M 8.64 84.3156 
L 11.693202 87.02976 
L 14.746404 85.21344 
L 17.799606 84.28464 
L 20.852808 84.32592 
L 23.90601 89.08344 
L 26.959212 89.5272 
L 30.012414 95.14128 
L 33.065616 96.98856 
L 36.118818 95.08968 
L 38.696406 97.71096 
L 41.122747 99.80592 
L 44.174395 101.79768 
L 47.214522 100.03296 
L 50.337516 100.518 
L 53.365522 99.98136 
L 56.436146 100.49736 
L 59.483022 100.78632 
L 62.525234 101.07528 
L 65.577517 101.26104 
L 68.594003 100.63152 
L 71.486099 100.38384 
L 74.735144 100.84824 
L 77.404823 100.65216 
L 80.836707 101.034 
L 83.886199 101.19912 
L 86.921555 101.10624 
L 89.956098 100.97208 
L 93.044179 100.91016 
L 96.106569 101.7564 
L 98.901839 101.84928 
L 102.201983 101.56032 
L 105.24158 100.85856 
L 108.288986 101.12688 
L 111.306214 101.4468 
L 114.428785 101.02368 
L 117.450465 101.30232 
L 120.51077 100.81728 
L 123.546868 100.79664 
L 126.606643 99.3312 
L 129.658396 99.92976 
L 132.688169 100.78632 
L 135.77102 101.17848 
L 138.833374 101.1372 
L 141.866964 100.21872 
L 144.918964 100.37352 
L 147.984181 100.4664 
L 151.031482 99.88848 
L 154.08062 99.94008 
L 157.192236 99.81624 
L 160.25406 98.93904 
L 163.253831 98.3508 
L 166.330321 98.52624 
L 169.384371 99.78528 
L 172.407854 100.12584 
L 175.443175 100.03296 
L 178.542033 100.45608 
L 181.602409 100.83792 
L 184.62734 100.11552 
L 187.907942 99.87816 
L 190.770885 100.002 
L 193.827939 100.64184 
L 196.851951 101.41584 
L 199.946746 101.21976 
L 203.008677 101.14752 
L 206.042619 101.00304 
L 209.122007 100.86888 
L 212.134994 101.21976 
L 215.191695 101.28168 
L 218.218747 101.20944 
L 221.317923 101.14752 
L 224.379006 100.55928 
L 227.412383 100.65216 
L 230.470532 99.80592 
L 233.513098 99.96072 
L 236.594393 99.6408 
L 239.600914 99.1764 
L 242.70889 99.70272 
L 245.777746 99.94008 
L 248.811513 98.57784 
L 251.862382 98.65008 
L 254.928801 98.38176 
L 257.975783 98.48496 
L 260.995308 96.70992 
L 264.088831 98.05152 
L 267.149595 98.48496 
L 270.189404 97.96896 
L 273.233135 96.32808 
L 276.298706 96.20424 
L 279.36 96.16296 
" clip-path="url(#pfe3b6203fe)" style="fill: none; stroke: #f5841e; stroke-width: 0.6"/>
   </g>
  </g>
 </g>
 <defs>
  <clipPath id="pfe3b6203fe">
   <rect x="8.64" y="4.8" width="270.72" height="103.2"/>
  </clipPath>
 </defs>
</svg>
