<?xml version="1.0" encoding="utf-8" standalone="no"?>
<!DOCTYPE svg PUBLIC "-//W3C//DTD SVG 1.1//EN"
  "http://www.w3.org/Graphics/SVG/1.1/DTD/svg11.dtd">
<svg xmlns:xlink="http://www.w3.org/1999/xlink" width="288pt" height="120pt" viewBox="0 0 288 120" xmlns="http://www.w3.org/2000/svg" version="1.1">
<desc id="nav-meta">{"window":"3m","count":4,"labels":["11.02","13.03","11.04","11.05"],"tick_utc":["2026-02-11T03:39:24Z","2026-03-13T03:16:57Z","2026-04-11T03:29:29Z","2026-05-11T04:46:58Z"],"w":720,"h":300}</desc>

 <metadata>
  <rdf:RDF xmlns:dc="http://purl.org/dc/elements/1.1/" xmlns:cc="http://creativecommons.org/ns#" xmlns:rdf="http://www.w3.org/1999/02/22-rdf-syntax-ns#">
   <cc:Work>
    <dc:type rdf:resource="http://purl.org/dc/dcmitype/StillImage"/>
    <dc:date>2026-05-11T10:25:20.208755</dc:date>
    <dc:format>image/svg+xml</dc:format>
    <dc:creator>
     <cc:Agent>
      <dc:title>Matplotlib v3.10.9, https://matplotlib.org/</dc:title>
     </cc:Agent>
    </dc:creator>
   </cc:Work>
  </rdf:RDF>
 </metadata>
 <defs>
  <style type="text/css">*{stroke-linejoin: round; stroke-linecap: butt}</style>
 </defs>
 <g id="figure_1">
  <g id="patch_1">
   <path d="M 0 120 
L 288 120 
L 288 0 
L 0 0 
L 0 120 
z
" style="fill: none; opacity: 0"/>
  </g>
  <g id="axes_1">
   <g id="patch_2">
    <path d="M 8.64 108 
L 279.36 108 
L 279.36 4.8 
L 8.64 4.8 
L 8.64 108 
z
" style="fill: none"/>
   </g>
   <g id="matplotlib.axis_1"/>
   <g id="matplotlib.axis_2"/>
   <g id="line2d_1">
    <path d="M 8.64 87.36 
L 279.36 87.36 
" clip-path="url(#p8323e59243)" style="fill: none; stroke: #b2b2b2; stroke-opacity: 0.35; stroke-width: 0.5; stroke-linecap: square"/>
   </g>
   <g id="line2d_2">
    <path d="M 8.64 66.72 
L 279.36 66.72 
" clip-path="url(#p8323e59243)" style="fill: none; stroke: #b2b2b2; stroke-opacity: 0.35; stroke-width: 0.5; stroke-linecap: square"/>
   </g>
   <g id="line2d_3">
    <path d="M 8.64 46.08 
L 279.36 46.08 
" clip-path="url(#p8323e59243)" style="fill: none; stroke: #b2b2b2; stroke-opacity: 0.35; stroke-width: 0.5; stroke-linecap: square"/>
   </g>
   <g id="line2d_4">
    <path d="M 8.64 25.44 
L 279.36 25.44 
" clip-path="url(#p8323e59243)" style="fill: none; stroke: #b2b2b2; stroke-opacity: 0.35; stroke-width: 0.5; stroke-linecap: square"/>
   </g>
   <g id="line2d_5">
    <path d="M 8.64 101.28168 
L 11.669252 101.71512 
L 14.708532 101.84928 
L 17.712167 101.034 
L 20.591942 100.54896 
L 23.827146 101.04432 
L 26.485452 100.81728 
L 29.902715 101.034 
L 32.939216 101.4984 
L 35.961641 101.33328 
L 38.983257 101.1372 
L 42.058182 101.06496 
L 45.107525 102.09696 
L 47.890887 102.05568 
L 51.176972 101.4984 
L 54.20362 100.60056 
L 57.238044 100.80696 
L 60.242418 101.45712 
L 63.351686 100.55928 
L 66.360494 101.10624 
L 69.407761 100.8792 
L 72.430926 100.74504 
L 75.477665 100.21872 
L 78.516418 100.53864 
L 81.533283 101.07528 
L 84.603001 101.38488 
L 87.652309 101.26104 
L 90.672975 100.78632 
L 93.711974 100.91016 
L 96.764132 100.99272 
L 99.798451 100.38384 
L 102.834599 100.50768 
L 105.932959 100.60056 
L 108.98174 99.76464 
L 111.968731 99.49632 
L 115.032115 99.40344 
L 118.073154 100.09488 
L 121.083756 100.3632 
L 124.106147 100.19808 
L 127.191804 100.47672 
L 130.239142 100.79664 
L 133.251187 100.26 
L 136.517813 99.83688 
L 139.368559 100.13616 
L 142.412589 100.80696 
L 145.423719 101.38488 
L 148.50533 101.3436 
L 151.554216 101.292 
L 154.575234 101.28168 
L 157.641503 101.28168 
L 160.641654 101.8596 
L 163.685333 101.88024 
L 166.699489 101.72544 
L 169.785463 101.68416 
L 172.833504 101.47776 
L 175.853959 101.78736 
L 178.89908 101.09592 
L 181.928684 101.46744 
L 184.996853 101.3436 
L 187.990565 101.05464 
L 191.085301 101.3952 
L 194.141084 101.47776 
L 197.161926 100.86888 
L 200.199798 101.26104 
L 203.253153 100.99272 
L 206.287155 100.61088 
L 209.293816 100.44576 
L 212.37416 100.94112 
L 215.421885 101.09592 
L 218.448744 101.00304 
L 221.479509 100.69344 
L 224.532019 100.9308 
L 227.580272 100.92048 
L 230.584189 100.81728 
L 233.671676 100.8792 
L 236.74463 100.64184 
L 239.791194 101.1888 
L 242.823085 101.09592 
L 245.868382 101.37456 
L 248.941794 101.21976 
L 251.904401 101.20944 
L 255.006314 101.23008 
L 258.045454 100.92048 
L 261.018687 101.06496 
L 264.112437 100.70376 
L 267.153441 100.55928 
L 270.143037 100.53864 
L 273.194351 99.60984 
L 276.295807 99.72336 
L 279.36 99.44472 
" clip-path="url(#p8323e59243)" style="fill: none; stroke: #bebebe; stroke-width: 0.5; stroke-linecap: round"/>
   </g>
   <g id="line2d_6">
    <path d="M 8.64 89.7336 
L 11.669252 90.456 
L 14.708532 90.56952 
L 17.712167 89.15568 
L 20.591942 88.9596 
L 23.827146 90.6624 
L 26.485452 89.94 
L 29.902715 90.00192 
L 32.939216 90.3528 
L 35.961641 90.62112 
L 38.983257 90.5076 
L 42.058182 90.3528 
L 45.107525 92.004 
L 47.890887 92.13816 
L 51.176972 91.25064 
L 54.20362 89.166 
L 57.238044 89.56848 
L 60.242418 90.93072 
L 63.351686 89.41368 
L 66.360494 90.37344 
L 69.407761 89.79552 
L 72.430926 90.23928 
L 75.477665 88.0824 
L 78.516418 88.7532 
L 81.533283 90.16704 
L 84.603001 90.67272 
L 87.652309 90.18768 
L 90.672975 89.2692 
L 93.711974 89.54784 
L 96.764132 89.49624 
L 99.798451 88.31976 
L 102.834599 88.45392 
L 105.932959 88.46424 
L 108.98174 86.38992 
L 111.968731 84.80064 
L 115.032115 84.8316 
L 118.073154 86.586 
L 121.083756 87.74184 
L 124.106147 87.618 
L 127.191804 88.19592 
L 130.239142 89.08344 
L 133.251187 87.89664 
L 136.517813 87.3084 
L 139.368559 87.65928 
L 142.412589 88.96992 
L 145.423719 90.07416 
L 148.50533 89.76456 
L 151.554216 89.3724 
L 154.575234 89.00088 
L 157.641503 88.42296 
L 160.641654 88.81512 
L 163.685333 89.10408 
L 166.699489 89.14536 
L 169.785463 89.07312 
L 172.833504 87.9792 
L 175.853959 88.29912 
L 178.89908 86.38992 
L 181.928684 87.24648 
L 184.996853 87.1536 
L 187.990565 86.21448 
L 191.085301 86.66856 
L 194.141084 87.01944 
L 197.161926 84.44976 
L 200.199798 85.05864 
L 203.253153 84.58392 
L 206.287155 85.04832 
L 209.293816 83.71704 
L 212.37416 84.86256 
L 215.421885 85.6572 
L 218.448744 85.27536 
L 221.479509 84.49104 
L 224.532019 84.86256 
L 227.580272 85.32696 
L 230.584189 85.17216 
L 233.671676 85.31664 
L 236.74463 84.11952 
L 239.791194 85.66752 
L 242.823085 85.26504 
L 245.868382 86.26608 
L 248.941794 85.77072 
L 251.904401 85.38888 
L 255.006314 85.3992 
L 258.045454 84.09888 
L 261.018687 84.22272 
L 264.112437 84.34656 
L 267.153441 85.06896 
L 270.143037 85.7604 
L 273.194351 85.0896 
L 276.295807 85.01736 
L 279.36 84.9348 
" clip-path="url(#p8323e59243)" style="fill: none; stroke: #4a8dff; stroke-width: 0.6"/>
   </g>
   <g id="line2d_7">
    <path d="M 8.64 100.78632 
L 11.669252 101.07528 
L 14.708532 101.26104 
L 17.712167 100.63152 
L 20.591942 100.38384 
L 23.827146 100.84824 
L 26.485452 100.65216 
L 29.902715 101.034 
L 32.939216 101.19912 
L 35.961641 101.10624 
L 38.983257 100.97208 
L 42.058182 100.91016 
L 45.107525 101.7564 
L 47.890887 101.84928 
L 51.176972 101.56032 
L 54.20362 100.85856 
L 57.238044 101.12688 
L 60.242418 101.4468 
L 63.351686 101.02368 
L 66.360494 101.30232 
L 69.407761 100.81728 
L 72.430926 100.79664 
L 75.477665 99.3312 
L 78.516418 99.92976 
L 81.533283 100.78632 
L 84.603001 101.17848 
L 87.652309 101.1372 
L 90.672975 100.21872 
L 93.711974 100.37352 
L 96.764132 100.4664 
L 99.798451 99.88848 
L 102.834599 99.94008 
L 105.932959 99.81624 
L 108.98174 98.93904 
L 111.968731 98.3508 
L 115.032115 98.52624 
L 118.073154 99.78528 
L 121.083756 100.12584 
L 124.106147 100.03296 
L 127.191804 100.45608 
L 130.239142 100.83792 
L 133.251187 100.11552 
L 136.517813 99.87816 
L 139.368559 100.002 
L 142.412589 100.64184 
L 145.423719 101.41584 
L 148.50533 101.21976 
L 151.554216 101.14752 
L 154.575234 101.00304 
L 157.641503 100.86888 
L 160.641654 101.21976 
L 163.685333 101.28168 
L 166.699489 101.20944 
L 169.785463 101.14752 
L 172.833504 100.55928 
L 175.853959 100.65216 
L 178.89908 99.80592 
L 181.928684 99.96072 
L 184.996853 99.6408 
L 187.990565 99.1764 
L 191.085301 99.70272 
L 194.141084 99.94008 
L 197.161926 98.57784 
L 200.199798 98.65008 
L 203.253153 98.38176 
L 206.287155 98.48496 
L 209.293816 96.70992 
L 212.37416 98.05152 
L 215.421885 98.48496 
L 218.448744 97.96896 
L 221.479509 96.32808 
L 224.532019 96.20424 
L 227.580272 96.16296 
L 230.584189 96.1836 
L 233.671676 96.50352 
L 236.74463 94.76976 
L 239.791194 97.19496 
L 242.823085 96.9576 
L 245.868382 97.9896 
L 248.941794 96.89568 
L 251.904401 95.45088 
L 255.006314 95.67792 
L 258.045454 93.43848 
L 261.018687 92.90184 
L 264.112437 92.25168 
L 267.153441 92.87088 
L 270.143037 94.2744 
L 273.194351 93.1392 
L 276.295807 92.97408 
L 279.36 92.9844 
" clip-path="url(#p8323e59243)" style="fill: none; stroke: #f5841e; stroke-width: 0.6"/>
   </g>
  </g>
 </g>
 <defs>
  <clipPath id="p8323e59243">
   <rect x="8.64" y="4.8" width="270.72" height="103.2"/>
  </clipPath>
 </defs>
</svg>
