<?xml version="1.0" encoding="utf-8" standalone="no"?>
<!DOCTYPE svg PUBLIC "-//W3C//DTD SVG 1.1//EN"
  "http://www.w3.org/Graphics/SVG/1.1/DTD/svg11.dtd">
<svg xmlns:xlink="http://www.w3.org/1999/xlink" width="288pt" height="120pt" viewBox="0 0 288 120" xmlns="http://www.w3.org/2000/svg" version="1.1">
<desc id="nav-meta">{"window":"3m","count":4,"labels":["19.11","19.12","18.01","17.02"],"tick_utc":["2025-11-19T12:00:00Z","2025-12-19T12:00:00Z","2026-01-18T12:00:00Z","2026-02-17T00:31:58Z"],"w":720,"h":300}</desc>

 <metadata>
  <rdf:RDF xmlns:dc="http://purl.org/dc/elements/1.1/" xmlns:cc="http://creativecommons.org/ns#" xmlns:rdf="http://www.w3.org/1999/02/22-rdf-syntax-ns#">
   <cc:Work>
    <dc:type rdf:resource="http://purl.org/dc/dcmitype/StillImage"/>
    <dc:date>2026-02-17T00:32:00.607454</dc:date>
    <dc:format>image/svg+xml</dc:format>
    <dc:creator>
     <cc:Agent>
      <dc:title>Matplotlib v3.10.8, https://matplotlib.org/</dc:title>
     </cc:Agent>
    </dc:creator>
   </cc:Work>
  </rdf:RDF>
 </metadata>
 <defs>
  <style type="text/css">*{stroke-linejoin: round; stroke-linecap: butt}</style>
 </defs>
 <g id="figure_1">
  <g id="patch_1">
   <path d="M 0 120 
L 288 120 
L 288 0 
L 0 0 
L 0 120 
z
" style="fill: none; opacity: 0"/>
  </g>
  <g id="axes_1">
   <g id="patch_2">
    <path d="M 8.64 108 
L 279.36 108 
L 279.36 4.8 
L 8.64 4.8 
L 8.64 108 
z
" style="fill: none"/>
   </g>
   <g id="matplotlib.axis_1"/>
   <g id="matplotlib.axis_2"/>
   <g id="line2d_1">
    <path d="M 8.64 87.36 
L 279.36 87.36 
" clip-path="url(#p4399cce097)" style="fill: none; stroke: #b2b2b2; stroke-opacity: 0.35; stroke-width: 0.5; stroke-linecap: square"/>
   </g>
   <g id="line2d_2">
    <path d="M 8.64 66.72 
L 279.36 66.72 
" clip-path="url(#p4399cce097)" style="fill: none; stroke: #b2b2b2; stroke-opacity: 0.35; stroke-width: 0.5; stroke-linecap: square"/>
   </g>
   <g id="line2d_3">
    <path d="M 8.64 46.08 
L 279.36 46.08 
" clip-path="url(#p4399cce097)" style="fill: none; stroke: #b2b2b2; stroke-opacity: 0.35; stroke-width: 0.5; stroke-linecap: square"/>
   </g>
   <g id="line2d_4">
    <path d="M 8.64 25.44 
L 279.36 25.44 
" clip-path="url(#p4399cce097)" style="fill: none; stroke: #b2b2b2; stroke-opacity: 0.35; stroke-width: 0.5; stroke-linecap: square"/>
   </g>
   <g id="line2d_5">
    <path d="M 8.64 88.09272 
L 11.664054 89.22792 
L 14.688109 90.00192 
L 17.712163 91.39512 
L 20.736218 91.63248 
L 23.760272 90.75528 
L 26.784326 88.7016 
L 29.808381 88.52616 
L 32.832435 87.45288 
L 35.85649 88.0308 
L 38.880544 88.94928 
L 41.904598 89.3208 
L 44.928653 89.7336 
L 47.952707 91.86984 
L 50.976762 88.60872 
L 54.000816 86.87496 
L 57.02487 88.52616 
L 60.048925 90.11544 
L 63.072979 90.38376 
L 66.097034 90.53856 
L 69.121088 90.08448 
L 72.145142 88.79448 
L 75.169197 89.20728 
L 78.193251 89.22792 
L 81.217306 90.31152 
L 84.24136 90.10512 
L 87.265414 91.09584 
L 90.289469 91.61184 
L 93.313523 91.31256 
L 96.337578 92.87088 
L 99.361632 93.8616 
L 102.385686 92.02464 
L 105.409741 92.13816 
L 108.433795 92.07624 
L 111.45785 92.14848 
L 114.481904 92.64384 
L 117.505958 93.01536 
L 120.530013 93.69648 
L 123.554067 93.11856 
L 126.578122 92.44776 
L 129.602176 92.30328 
L 132.62623 92.87088 
L 135.650285 92.38584 
L 138.674339 92.47872 
L 141.698394 91.88016 
L 144.722448 90.42504 
L 147.746502 90.08448 
L 150.770557 89.92968 
L 153.794611 88.76352 
L 156.818666 87.94824 
L 159.84272 89.2692 
L 162.866774 88.72224 
L 165.890829 89.39304 
L 168.914883 89.40336 
L 171.938938 88.41264 
L 174.962992 88.4952 
L 177.987046 86.86464 
L 181.011101 86.42088 
L 184.035155 87.62832 
L 187.05921 86.93688 
L 190.083264 87.23616 
L 193.107318 88.63968 
L 196.131373 90.0432 
L 199.155427 92.12784 
L 202.179482 91.16808 
L 205.203536 91.46736 
L 208.22759 91.73568 
L 211.251645 91.78728 
L 214.275699 94.0164 
L 217.299754 92.5716 
L 220.323808 91.76664 
L 223.347862 92.33424 
L 226.371917 94.36728 
L 229.395971 94.46016 
L 232.420026 97.71096 
L 235.44408 98.48496 
L 238.468134 97.85544 
L 241.021115 99.10416 
L 243.424294 100.16712 
L 246.446808 102.23112 
L 249.457912 100.54896 
L 252.551093 100.70376 
L 255.550192 100.68312 
L 258.591501 100.95144 
L 261.609291 101.28168 
L 264.62246 101.71512 
L 267.645604 101.84928 
L 270.633293 101.034 
L 273.49778 100.54896 
L 276.715807 101.04432 
L 279.36 100.81728 
" clip-path="url(#p4399cce097)" style="fill: none; stroke: #bebebe; stroke-width: 0.5; stroke-linecap: round"/>
   </g>
   <g id="line2d_6">
    <path d="M 8.64 73.3248 
L 11.664054 74.80056 
L 14.688109 77.556 
L 17.712163 78.55704 
L 20.736218 78.50544 
L 23.760272 78.04104 
L 26.784326 75.76032 
L 29.808381 75.73968 
L 32.832435 74.65608 
L 35.85649 74.83152 
L 38.880544 74.57352 
L 41.904598 75.20304 
L 44.928653 75.17208 
L 47.952707 78.05136 
L 50.976762 75.1308 
L 54.000816 72.16896 
L 57.02487 73.08744 
L 60.048925 74.72832 
L 63.072979 74.48064 
L 66.097034 74.28456 
L 69.121088 73.21128 
L 72.145142 70.2804 
L 75.169197 70.2288 
L 78.193251 71.56008 
L 81.217306 73.79952 
L 84.24136 73.35576 
L 87.265414 74.0988 
L 90.289469 75.5952 
L 93.313523 75.5952 
L 96.337578 77.61792 
L 99.361632 77.63856 
L 102.385686 75.40944 
L 105.409741 75.40944 
L 108.433795 75.04824 
L 111.45785 74.98632 
L 114.481904 75.58488 
L 117.505958 75.87384 
L 120.530013 76.49304 
L 123.554067 76.15248 
L 126.578122 75.82224 
L 129.602176 75.84288 
L 132.62623 76.03896 
L 135.650285 75.51264 
L 138.674339 75.56424 
L 141.698394 75.05856 
L 144.722448 73.26288 
L 147.746502 73.20096 
L 150.770557 73.00488 
L 153.794611 71.68392 
L 156.818666 70.6932 
L 159.84272 72.62304 
L 162.866774 73.52088 
L 165.890829 73.83048 
L 168.914883 73.8408 
L 171.938938 73.29384 
L 174.962992 73.72728 
L 177.987046 70.32168 
L 181.011101 69.77472 
L 184.035155 70.34232 
L 187.05921 70.67256 
L 190.083264 70.51776 
L 193.107318 70.848 
L 196.131373 72.31344 
L 199.155427 76.01832 
L 202.179482 75.41976 
L 205.203536 75.83256 
L 208.22759 75.79128 
L 211.251645 75.82224 
L 214.275699 77.82432 
L 217.299754 76.14216 
L 220.323808 74.75928 
L 223.347862 74.96568 
L 226.371917 77.75208 
L 229.395971 79.48584 
L 232.420026 83.31456 
L 235.44408 85.90488 
L 238.468134 84.79032 
L 241.021115 85.84296 
L 243.424294 88.25784 
L 246.446808 91.41576 
L 249.457912 88.7532 
L 252.551093 88.65 
L 255.550192 88.55712 
L 258.591501 88.96992 
L 261.609291 89.7336 
L 264.62246 90.456 
L 267.645604 90.56952 
L 270.633293 89.15568 
L 273.49778 88.9596 
L 276.715807 90.6624 
L 279.36 89.94 
" clip-path="url(#p4399cce097)" style="fill: none; stroke: #4a8dff; stroke-width: 0.6"/>
   </g>
   <g id="line2d_7">
    <path d="M 8.64 80.53848 
L 11.664054 82.0452 
L 14.688109 86.92656 
L 17.712163 88.58808 
L 20.736218 88.96992 
L 23.760272 86.7924 
L 26.784326 85.296 
L 29.808381 86.24544 
L 32.832435 82.96368 
L 35.85649 82.13808 
L 38.880544 82.47864 
L 41.904598 82.58184 
L 44.928653 83.03592 
L 47.952707 87.3084 
L 50.976762 82.06584 
L 54.000816 79.71288 
L 57.02487 81.24024 
L 60.048925 84.17112 
L 63.072979 84.24336 
L 66.097034 83.29392 
L 69.121088 82.8192 
L 72.145142 80.64168 
L 75.169197 81.38472 
L 78.193251 80.87904 
L 81.217306 83.13912 
L 84.24136 83.19072 
L 87.265414 85.296 
L 90.289469 87.17424 
L 93.313523 85.71912 
L 96.337578 87.53544 
L 99.361632 88.17528 
L 102.385686 85.41984 
L 105.409741 85.17216 
L 108.433795 84.9348 
L 111.45785 85.01736 
L 114.481904 86.14224 
L 117.505958 85.90488 
L 120.530013 86.328 
L 123.554067 86.24544 
L 126.578122 85.72944 
L 129.602176 85.7088 
L 132.62623 86.40024 
L 135.650285 85.09992 
L 138.674339 86.02872 
L 141.698394 84.78 
L 144.722448 83.53128 
L 147.746502 82.83984 
L 150.770557 82.03488 
L 153.794611 79.39296 
L 156.818666 79.66128 
L 159.84272 82.15872 
L 162.866774 82.43736 
L 165.890829 82.93272 
L 168.914883 83.00496 
L 171.938938 82.6128 
L 174.962992 82.28256 
L 177.987046 78.01008 
L 181.011101 76.19376 
L 184.035155 77.66952 
L 187.05921 77.74176 
L 190.083264 78.1752 
L 193.107318 79.5684 
L 196.131373 80.8068 
L 199.155427 85.20312 
L 202.179482 84.12984 
L 205.203536 84.03696 
L 208.22759 84.06792 
L 211.251645 84.3156 
L 214.275699 87.02976 
L 217.299754 85.21344 
L 220.323808 84.28464 
L 223.347862 84.32592 
L 226.371917 89.08344 
L 229.395971 89.5272 
L 232.420026 95.14128 
L 235.44408 96.98856 
L 238.468134 95.08968 
L 241.021115 97.71096 
L 243.424294 99.80592 
L 246.446808 101.79768 
L 249.457912 100.03296 
L 252.551093 100.518 
L 255.550192 99.98136 
L 258.591501 100.49736 
L 261.609291 100.78632 
L 264.62246 101.07528 
L 267.645604 101.26104 
L 270.633293 100.63152 
L 273.49778 100.38384 
L 276.715807 100.84824 
L 279.36 100.65216 
" clip-path="url(#p4399cce097)" style="fill: none; stroke: #f5841e; stroke-width: 0.6"/>
   </g>
  </g>
 </g>
 <defs>
  <clipPath id="p4399cce097">
   <rect x="8.64" y="4.8" width="270.72" height="103.2"/>
  </clipPath>
 </defs>
</svg>
