<?xml version="1.0" encoding="utf-8" standalone="no"?>
<!DOCTYPE svg PUBLIC "-//W3C//DTD SVG 1.1//EN"
  "http://www.w3.org/Graphics/SVG/1.1/DTD/svg11.dtd">
<svg xmlns:xlink="http://www.w3.org/1999/xlink" width="288pt" height="120pt" viewBox="0 0 288 120" xmlns="http://www.w3.org/2000/svg" version="1.1">
<desc id="nav-meta">{"window":"1m","count":4,"labels":["22.01","01.02","11.02","21.02"],"tick_utc":["2026-01-22T12:00:00Z","2026-02-01T12:00:00Z","2026-02-11T03:39:24Z","2026-02-21T03:11:36Z"],"w":720,"h":300}</desc>

 <metadata>
  <rdf:RDF xmlns:dc="http://purl.org/dc/elements/1.1/" xmlns:cc="http://creativecommons.org/ns#" xmlns:rdf="http://www.w3.org/1999/02/22-rdf-syntax-ns#">
   <cc:Work>
    <dc:type rdf:resource="http://purl.org/dc/dcmitype/StillImage"/>
    <dc:date>2026-02-21T03:11:39.249681</dc:date>
    <dc:format>image/svg+xml</dc:format>
    <dc:creator>
     <cc:Agent>
      <dc:title>Matplotlib v3.10.8, https://matplotlib.org/</dc:title>
     </cc:Agent>
    </dc:creator>
   </cc:Work>
  </rdf:RDF>
 </metadata>
 <defs>
  <style type="text/css">*{stroke-linejoin: round; stroke-linecap: butt}</style>
 </defs>
 <g id="figure_1">
  <g id="patch_1">
   <path d="M 0 120 
L 288 120 
L 288 0 
L 0 0 
L 0 120 
z
" style="fill: none; opacity: 0"/>
  </g>
  <g id="axes_1">
   <g id="patch_2">
    <path d="M 8.64 108 
L 279.36 108 
L 279.36 4.8 
L 8.64 4.8 
L 8.64 108 
z
" style="fill: none"/>
   </g>
   <g id="matplotlib.axis_1"/>
   <g id="matplotlib.axis_2"/>
   <g id="line2d_1">
    <path d="M 8.64 87.36 
L 279.36 87.36 
" clip-path="url(#pcb3d801da8)" style="fill: none; stroke: #b2b2b2; stroke-opacity: 0.35; stroke-width: 0.5; stroke-linecap: square"/>
   </g>
   <g id="line2d_2">
    <path d="M 8.64 66.72 
L 279.36 66.72 
" clip-path="url(#pcb3d801da8)" style="fill: none; stroke: #b2b2b2; stroke-opacity: 0.35; stroke-width: 0.5; stroke-linecap: square"/>
   </g>
   <g id="line2d_3">
    <path d="M 8.64 46.08 
L 279.36 46.08 
" clip-path="url(#pcb3d801da8)" style="fill: none; stroke: #b2b2b2; stroke-opacity: 0.35; stroke-width: 0.5; stroke-linecap: square"/>
   </g>
   <g id="line2d_4">
    <path d="M 8.64 25.44 
L 279.36 25.44 
" clip-path="url(#pcb3d801da8)" style="fill: none; stroke: #b2b2b2; stroke-opacity: 0.35; stroke-width: 0.5; stroke-linecap: square"/>
   </g>
   <g id="line2d_5">
    <path d="M 8.64 91.16808 
L 17.775744 91.46736 
L 26.911487 91.73568 
L 36.047231 91.78728 
L 45.182975 94.0164 
L 54.318718 92.5716 
L 63.454462 91.76664 
L 72.590206 92.33424 
L 81.725949 94.36728 
L 90.861693 94.46016 
L 99.997437 97.71096 
L 109.13318 98.48496 
L 118.268924 97.85544 
L 125.981543 99.10416 
L 133.241604 100.16712 
L 142.372696 102.23112 
L 151.469316 100.54896 
L 160.813892 100.70376 
L 169.874245 100.68312 
L 179.062117 100.95144 
L 188.178934 101.28168 
L 197.281793 101.71512 
L 206.414788 101.84928 
L 215.44067 101.034 
L 224.094355 100.54896 
L 233.816097 101.04432 
L 241.804269 100.81728 
L 252.073099 101.034 
L 261.19774 101.4984 
L 270.280086 101.33328 
L 279.36 101.1372 
" clip-path="url(#pcb3d801da8)" style="fill: none; stroke: #bebebe; stroke-width: 0.5; stroke-linecap: round"/>
   </g>
   <g id="line2d_6">
    <path d="M 8.64 75.41976 
L 17.775744 75.83256 
L 26.911487 75.79128 
L 36.047231 75.82224 
L 45.182975 77.82432 
L 54.318718 76.14216 
L 63.454462 74.75928 
L 72.590206 74.96568 
L 81.725949 77.75208 
L 90.861693 79.48584 
L 99.997437 83.31456 
L 109.13318 85.90488 
L 118.268924 84.79032 
L 125.981543 85.84296 
L 133.241604 88.25784 
L 142.372696 91.41576 
L 151.469316 88.7532 
L 160.813892 88.65 
L 169.874245 88.55712 
L 179.062117 88.96992 
L 188.178934 89.7336 
L 197.281793 90.456 
L 206.414788 90.56952 
L 215.44067 89.15568 
L 224.094355 88.9596 
L 233.816097 90.6624 
L 241.804269 89.94 
L 252.073099 90.00192 
L 261.19774 90.3528 
L 270.280086 90.62112 
L 279.36 90.5076 
" clip-path="url(#pcb3d801da8)" style="fill: none; stroke: #4a8dff; stroke-width: 0.6"/>
   </g>
   <g id="line2d_7">
    <path d="M 8.64 84.12984 
L 17.775744 84.03696 
L 26.911487 84.06792 
L 36.047231 84.3156 
L 45.182975 87.02976 
L 54.318718 85.21344 
L 63.454462 84.28464 
L 72.590206 84.32592 
L 81.725949 89.08344 
L 90.861693 89.5272 
L 99.997437 95.14128 
L 109.13318 96.98856 
L 118.268924 95.08968 
L 125.981543 97.71096 
L 133.241604 99.80592 
L 142.372696 101.79768 
L 151.469316 100.03296 
L 160.813892 100.518 
L 169.874245 99.98136 
L 179.062117 100.49736 
L 188.178934 100.78632 
L 197.281793 101.07528 
L 206.414788 101.26104 
L 215.44067 100.63152 
L 224.094355 100.38384 
L 233.816097 100.84824 
L 241.804269 100.65216 
L 252.073099 101.034 
L 261.19774 101.19912 
L 270.280086 101.10624 
L 279.36 100.97208 
" clip-path="url(#pcb3d801da8)" style="fill: none; stroke: #f5841e; stroke-width: 0.6"/>
   </g>
  </g>
 </g>
 <defs>
  <clipPath id="pcb3d801da8">
   <rect x="8.64" y="4.8" width="270.72" height="103.2"/>
  </clipPath>
 </defs>
</svg>
