<?xml version="1.0" encoding="utf-8" standalone="no"?>
<!DOCTYPE svg PUBLIC "-//W3C//DTD SVG 1.1//EN"
  "http://www.w3.org/Graphics/SVG/1.1/DTD/svg11.dtd">
<svg xmlns:xlink="http://www.w3.org/1999/xlink" width="288pt" height="120pt" viewBox="0 0 288 120" xmlns="http://www.w3.org/2000/svg" version="1.1">
<desc id="nav-meta">{"window":"1m","count":4,"labels":["26.03","05.04","14.04","24.04"],"tick_utc":["2026-03-26T03:39:29Z","2026-04-05T03:46:34Z","2026-04-14T03:53:32Z","2026-04-24T04:01:18Z"],"w":720,"h":300}</desc>

 <metadata>
  <rdf:RDF xmlns:dc="http://purl.org/dc/elements/1.1/" xmlns:cc="http://creativecommons.org/ns#" xmlns:rdf="http://www.w3.org/1999/02/22-rdf-syntax-ns#">
   <cc:Work>
    <dc:type rdf:resource="http://purl.org/dc/dcmitype/StillImage"/>
    <dc:date>2026-04-24T14:17:06.991534</dc:date>
    <dc:format>image/svg+xml</dc:format>
    <dc:creator>
     <cc:Agent>
      <dc:title>Matplotlib v3.10.9, https://matplotlib.org/</dc:title>
     </cc:Agent>
    </dc:creator>
   </cc:Work>
  </rdf:RDF>
 </metadata>
 <defs>
  <style type="text/css">*{stroke-linejoin: round; stroke-linecap: butt}</style>
 </defs>
 <g id="figure_1">
  <g id="patch_1">
   <path d="M 0 120 
L 288 120 
L 288 0 
L 0 0 
L 0 120 
z
" style="fill: none; opacity: 0"/>
  </g>
  <g id="axes_1">
   <g id="patch_2">
    <path d="M 8.64 108 
L 279.36 108 
L 279.36 4.8 
L 8.64 4.8 
L 8.64 108 
z
" style="fill: none"/>
   </g>
   <g id="matplotlib.axis_1"/>
   <g id="matplotlib.axis_2"/>
   <g id="line2d_1">
    <path d="M 8.64 87.36 
L 279.36 87.36 
" clip-path="url(#pb3c4773535)" style="fill: none; stroke: #b2b2b2; stroke-opacity: 0.35; stroke-width: 0.5; stroke-linecap: square"/>
   </g>
   <g id="line2d_2">
    <path d="M 8.64 66.72 
L 279.36 66.72 
" clip-path="url(#pb3c4773535)" style="fill: none; stroke: #b2b2b2; stroke-opacity: 0.35; stroke-width: 0.5; stroke-linecap: square"/>
   </g>
   <g id="line2d_3">
    <path d="M 8.64 46.08 
L 279.36 46.08 
" clip-path="url(#pb3c4773535)" style="fill: none; stroke: #b2b2b2; stroke-opacity: 0.35; stroke-width: 0.5; stroke-linecap: square"/>
   </g>
   <g id="line2d_4">
    <path d="M 8.64 25.44 
L 279.36 25.44 
" clip-path="url(#pb3c4773535)" style="fill: none; stroke: #b2b2b2; stroke-opacity: 0.35; stroke-width: 0.5; stroke-linecap: square"/>
   </g>
   <g id="line2d_5">
    <path d="M 8.64 100.13616 
L 17.982069 100.80696 
L 27.223167 101.38488 
L 36.680569 101.3436 
L 46.037541 101.292 
L 55.308984 101.28168 
L 64.719303 101.28168 
L 73.926708 101.8596 
L 83.267697 101.88024 
L 92.518083 101.72544 
L 101.988875 101.68416 
L 111.343255 101.47776 
L 120.612971 101.78736 
L 129.958387 101.09592 
L 139.256181 101.46744 
L 148.67233 101.3436 
L 157.859974 101.05464 
L 167.357656 101.3952 
L 176.735793 101.47776 
L 186.006697 100.86888 
L 195.329868 101.26104 
L 204.700554 100.99272 
L 214.011846 100.61088 
L 223.23923 100.44576 
L 232.692744 100.94112 
L 242.046151 101.09592 
L 251.335521 101.00304 
L 260.636878 100.69344 
L 270.004972 100.9308 
L 279.36 100.92048 
" clip-path="url(#pb3c4773535)" style="fill: none; stroke: #bebebe; stroke-width: 0.5; stroke-linecap: round"/>
   </g>
   <g id="line2d_6">
    <path d="M 8.64 87.65928 
L 17.982069 88.96992 
L 27.223167 90.07416 
L 36.680569 89.76456 
L 46.037541 89.3724 
L 55.308984 89.00088 
L 64.719303 88.42296 
L 73.926708 88.81512 
L 83.267697 89.10408 
L 92.518083 89.14536 
L 101.988875 89.07312 
L 111.343255 87.9792 
L 120.612971 88.29912 
L 129.958387 86.38992 
L 139.256181 87.24648 
L 148.67233 87.1536 
L 157.859974 86.21448 
L 167.357656 86.66856 
L 176.735793 87.01944 
L 186.006697 84.44976 
L 195.329868 85.05864 
L 204.700554 84.58392 
L 214.011846 85.04832 
L 223.23923 83.71704 
L 232.692744 84.86256 
L 242.046151 85.6572 
L 251.335521 85.27536 
L 260.636878 84.49104 
L 270.004972 84.86256 
L 279.36 85.32696 
" clip-path="url(#pb3c4773535)" style="fill: none; stroke: #4a8dff; stroke-width: 0.6"/>
   </g>
   <g id="line2d_7">
    <path d="M 8.64 100.002 
L 17.982069 100.64184 
L 27.223167 101.41584 
L 36.680569 101.21976 
L 46.037541 101.14752 
L 55.308984 101.00304 
L 64.719303 100.86888 
L 73.926708 101.21976 
L 83.267697 101.28168 
L 92.518083 101.20944 
L 101.988875 101.14752 
L 111.343255 100.55928 
L 120.612971 100.65216 
L 129.958387 99.80592 
L 139.256181 99.96072 
L 148.67233 99.6408 
L 157.859974 99.1764 
L 167.357656 99.70272 
L 176.735793 99.94008 
L 186.006697 98.57784 
L 195.329868 98.65008 
L 204.700554 98.38176 
L 214.011846 98.48496 
L 223.23923 96.70992 
L 232.692744 98.05152 
L 242.046151 98.48496 
L 251.335521 97.96896 
L 260.636878 96.32808 
L 270.004972 96.20424 
L 279.36 96.16296 
" clip-path="url(#pb3c4773535)" style="fill: none; stroke: #f5841e; stroke-width: 0.6"/>
   </g>
  </g>
 </g>
 <defs>
  <clipPath id="pb3c4773535">
   <rect x="8.64" y="4.8" width="270.72" height="103.2"/>
  </clipPath>
 </defs>
</svg>
