<?xml version="1.0" encoding="utf-8" standalone="no"?>
<!DOCTYPE svg PUBLIC "-//W3C//DTD SVG 1.1//EN"
  "http://www.w3.org/Graphics/SVG/1.1/DTD/svg11.dtd">
<svg xmlns:xlink="http://www.w3.org/1999/xlink" width="288pt" height="120pt" viewBox="0 0 288 120" xmlns="http://www.w3.org/2000/svg" version="1.1">
<desc id="nav-meta">{"window":"3m","count":4,"labels":["19.04","19.05","18.06","18.07"],"tick_utc":["2026-04-19T03:58:52Z","2026-05-19T04:46:06Z","2026-06-18T05:23:06Z","2026-07-18T03:44:33Z"],"w":720,"h":300}</desc>

 <metadata>
  <rdf:RDF xmlns:dc="http://purl.org/dc/elements/1.1/" xmlns:cc="http://creativecommons.org/ns#" xmlns:rdf="http://www.w3.org/1999/02/22-rdf-syntax-ns#">
   <cc:Work>
    <dc:type rdf:resource="http://purl.org/dc/dcmitype/StillImage"/>
    <dc:date>2026-07-18T03:44:35.007845</dc:date>
    <dc:format>image/svg+xml</dc:format>
    <dc:creator>
     <cc:Agent>
      <dc:title>Matplotlib v3.11.1, https://matplotlib.org/</dc:title>
     </cc:Agent>
    </dc:creator>
   </cc:Work>
  </rdf:RDF>
 </metadata>
 <defs>
  <style type="text/css">*{stroke-linejoin: round; stroke-linecap: butt}</style>
 </defs>
 <g id="figure_1">
  <g id="patch_1">
   <path d="M 0 120 
L 288 120 
L 288 0 
L 0 0 
L 0 120 
z
" style="fill: none; opacity: 0"/>
  </g>
  <g id="axes_1">
   <g id="patch_2">
    <path d="M 8.64 108 
L 279.36 108 
L 279.36 4.8 
L 8.64 4.8 
L 8.64 108 
z
" style="fill: none"/>
   </g>
   <g id="matplotlib.axis_1"/>
   <g id="matplotlib.axis_2"/>
   <g id="line2d_1">
    <path d="M 8.64 87.36 
L 279.36 87.36 
" clip-path="url(#p64b8934bd2)" style="fill: none; stroke: #b2b2b2; stroke-opacity: 0.35; stroke-width: 0.5; stroke-linecap: square"/>
   </g>
   <g id="line2d_2">
    <path d="M 8.64 66.72 
L 279.36 66.72 
" clip-path="url(#p64b8934bd2)" style="fill: none; stroke: #b2b2b2; stroke-opacity: 0.35; stroke-width: 0.5; stroke-linecap: square"/>
   </g>
   <g id="line2d_3">
    <path d="M 8.64 46.08 
L 279.36 46.08 
" clip-path="url(#p64b8934bd2)" style="fill: none; stroke: #b2b2b2; stroke-opacity: 0.35; stroke-width: 0.5; stroke-linecap: square"/>
   </g>
   <g id="line2d_4">
    <path d="M 8.64 25.44 
L 279.36 25.44 
" clip-path="url(#p64b8934bd2)" style="fill: none; stroke: #b2b2b2; stroke-opacity: 0.35; stroke-width: 0.5; stroke-linecap: square"/>
   </g>
   <g id="line2d_5">
    <path d="M 8.64 100.94112 
L 11.655784 101.09592 
L 14.65092 101.00304 
L 17.64992 100.69344 
L 20.670439 100.9308 
L 23.686745 100.92048 
L 26.659179 100.81728 
L 29.714308 100.8792 
L 32.755057 100.64184 
L 35.769691 101.1888 
L 38.769806 101.09592 
L 41.783187 101.37456 
L 44.824388 101.21976 
L 47.755946 101.20944 
L 50.82535 101.23008 
L 53.832638 100.92048 
L 56.77471 101.06496 
L 59.836036 100.70376 
L 62.845169 100.55928 
L 65.803433 100.53864 
L 68.822768 99.60984 
L 71.891719 99.72336 
L 74.923798 99.44472 
L 77.890348 99.25896 
L 80.912991 99.32088 
L 83.91798 100.22904 
L 86.941145 100.01232 
L 89.911073 100.43544 
L 92.964321 100.75536 
L 96.001866 101.02368 
L 98.988646 101.02368 
L 102.007737 101.17848 
L 105.0332 100.7244 
L 108.018483 100.75536 
L 110.985485 101.11656 
L 114.041449 100.91016 
L 117.089371 100.89984 
L 120.052125 101.1372 
L 123.091342 101.2404 
L 126.090064 101.6532 
L 129.100625 101.4984 
L 132.065573 101.48808 
L 135.135326 101.32296 
L 138.188156 101.51904 
L 141.166893 101.7048 
L 144.209069 102.54072 
L 147.207095 103.08768 
L 150.16588 103.36632 
L 153.127973 104.22288 
L 156.200964 103.85136 
L 159.222597 103.68624 
L 162.173513 103.43856 
L 165.213043 103.81008 
L 168.239028 103.72752 
L 171.259164 103.50048 
L 174.245491 103.5108 
L 177.275655 103.31472 
L 180.383986 102.95352 
L 183.409484 102.61296 
L 186.321996 102.6336 
L 189.315913 102.9948 
L 192.395101 103.28376 
L 195.283135 103.01544 
L 198.354071 102.69552 
L 201.45046 102.582 
L 204.278954 102.88128 
L 207.298045 103.15992 
L 210.305577 103.36632 
L 213.329334 103.36632 
L 216.300793 102.81936 
L 219.366472 103.0464 
L 222.396566 102.9432 
L 225.346577 102.59232 
L 228.39892 102.40656 
L 231.354572 102.02472 
L 234.330175 101.68416 
L 237.325554 101.3436 
L 240.377932 101.6532 
L 243.415408 101.6532 
L 246.378615 101.63256 
L 249.305193 101.95248 
L 252.404716 102.08664 
L 255.406258 101.9112 
L 258.325768 102.066 
L 261.379086 102.18984 
L 264.393999 102.31368 
L 267.332764 102.45816 
L 270.341862 102.08664 
L 273.357715 102.21048 
L 276.366535 102.4272 
L 279.36 102.4272 
" clip-path="url(#p64b8934bd2)" style="fill: none; stroke: #bebebe; stroke-width: 0.5; stroke-linecap: round"/>
   </g>
   <g id="line2d_6">
    <path d="M 8.64 84.86256 
L 11.655784 85.6572 
L 14.65092 85.27536 
L 17.64992 84.49104 
L 20.670439 84.86256 
L 23.686745 85.32696 
L 26.659179 85.17216 
L 29.714308 85.31664 
L 32.755057 84.11952 
L 35.769691 85.66752 
L 38.769806 85.26504 
L 41.783187 86.26608 
L 44.824388 85.77072 
L 47.755946 85.38888 
L 50.82535 85.3992 
L 53.832638 84.09888 
L 56.77471 84.22272 
L 59.836036 84.34656 
L 62.845169 85.06896 
L 65.803433 85.7604 
L 68.822768 85.0896 
L 71.891719 85.01736 
L 74.923798 84.9348 
L 77.890348 85.296 
L 80.912991 85.35792 
L 83.91798 86.1732 
L 86.941145 85.92552 
L 89.911073 86.55504 
L 92.964321 87.13296 
L 96.001866 88.10304 
L 98.988646 87.9276 
L 102.007737 88.26816 
L 105.0332 87.78312 
L 108.018483 87.95856 
L 110.985485 88.94928 
L 114.041449 88.14432 
L 117.089371 88.33008 
L 120.052125 88.52616 
L 123.091342 88.86672 
L 126.090064 90.22896 
L 129.100625 89.82648 
L 132.065573 89.87808 
L 135.135326 89.46528 
L 138.188156 90.0432 
L 141.166893 89.96064 
L 144.209069 91.99368 
L 147.207095 93.05664 
L 150.16588 93.74808 
L 153.127973 97.02984 
L 156.200964 95.93592 
L 159.222597 95.07936 
L 162.173513 94.46016 
L 165.213043 95.47152 
L 168.239028 95.11032 
L 171.259164 94.82136 
L 174.245491 94.8936 
L 177.275655 94.70784 
L 180.383986 94.04736 
L 183.409484 93.40752 
L 186.321996 92.9844 
L 189.315913 93.93384 
L 192.395101 94.4292 
L 195.283135 94.19184 
L 198.354071 93.87192 
L 201.45046 93.81 
L 204.278954 94.03704 
L 207.298045 94.83168 
L 210.305577 95.48184 
L 213.329334 96.63768 
L 216.300793 96.14232 
L 219.366472 96.30744 
L 222.396566 96.29712 
L 225.346577 96.04944 
L 228.39892 95.9256 
L 231.354572 95.39928 
L 234.330175 94.31568 
L 237.325554 93.57264 
L 240.377932 93.32496 
L 243.415408 93.22176 
L 246.378615 93.35592 
L 249.305193 93.61392 
L 252.404716 93.77904 
L 255.406258 93.26304 
L 258.325768 92.92248 
L 261.379086 92.71608 
L 264.393999 93.15984 
L 267.332764 93.17016 
L 270.341862 91.80792 
L 273.357715 91.14744 
L 276.366535 92.13816 
L 279.36 92.25168 
" clip-path="url(#p64b8934bd2)" style="fill: none; stroke: #4a8dff; stroke-width: 0.6"/>
   </g>
   <g id="line2d_7">
    <path d="M 8.64 98.05152 
L 11.655784 98.48496 
L 14.65092 97.96896 
L 17.64992 96.32808 
L 20.670439 96.20424 
L 23.686745 96.16296 
L 26.659179 96.1836 
L 29.714308 96.50352 
L 32.755057 94.76976 
L 35.769691 97.19496 
L 38.769806 96.9576 
L 41.783187 97.9896 
L 44.824388 96.89568 
L 47.755946 95.45088 
L 50.82535 95.67792 
L 53.832638 93.43848 
L 56.77471 92.90184 
L 59.836036 92.25168 
L 62.845169 92.87088 
L 65.803433 94.2744 
L 68.822768 93.1392 
L 71.891719 92.97408 
L 74.923798 92.9844 
L 77.890348 92.60256 
L 80.912991 92.53032 
L 83.91798 94.54272 
L 86.941145 92.85024 
L 89.911073 94.82136 
L 92.964321 95.75016 
L 96.001866 96.97824 
L 98.988646 97.08144 
L 102.007737 97.23624 
L 105.0332 95.94624 
L 108.018483 96.30744 
L 110.985485 98.08248 
L 114.041449 97.2672 
L 117.089371 96.61704 
L 120.052125 97.23624 
L 123.091342 98.08248 
L 126.090064 99.18672 
L 129.100625 99.03192 
L 132.065573 99.1248 
L 135.135326 98.74296 
L 138.188156 99.09384 
L 141.166893 100.0536 
L 144.209069 101.23008 
L 147.207095 101.99376 
L 150.16588 102.08664 
L 153.127973 102.8916 
L 156.200964 102.45816 
L 159.222597 102.28272 
L 162.173513 102.10728 
L 165.213043 102.582 
L 168.239028 102.29304 
L 171.259164 102.08664 
L 174.245491 102.066 
L 177.275655 101.86992 
L 180.383986 101.48808 
L 183.409484 101.40552 
L 186.321996 101.4984 
L 189.315913 101.97312 
L 192.395101 102.26208 
L 195.283135 102.066 
L 198.354071 101.90088 
L 201.45046 101.90088 
L 204.278954 102.0144 
L 207.298045 102.25176 
L 210.305577 102.6336 
L 213.329334 102.88128 
L 216.300793 102.77808 
L 219.366472 102.85032 
L 222.396566 102.93288 
L 225.346577 102.95352 
L 228.39892 103.00512 
L 231.354572 102.69552 
L 234.330175 102.55104 
L 237.325554 102.2724 
L 240.377932 102.21048 
L 243.415408 102.12792 
L 246.378615 102.13824 
L 249.305193 102.25176 
L 252.404716 102.36528 
L 255.406258 101.94216 
L 258.325768 101.92152 
L 261.379086 101.9112 
L 264.393999 102.2208 
L 267.332764 102.31368 
L 270.341862 101.79768 
L 273.357715 101.81832 
L 276.366535 102.07632 
L 279.36 101.97312 
" clip-path="url(#p64b8934bd2)" style="fill: none; stroke: #f5841e; stroke-width: 0.6"/>
   </g>
  </g>
 </g>
 <defs>
  <clipPath id="p64b8934bd2">
   <rect x="8.64" y="4.8" width="270.72" height="103.2"/>
  </clipPath>
 </defs>
</svg>
