<?xml version="1.0" encoding="utf-8" standalone="no"?>
<!DOCTYPE svg PUBLIC "-//W3C//DTD SVG 1.1//EN"
  "http://www.w3.org/Graphics/SVG/1.1/DTD/svg11.dtd">
<svg xmlns:xlink="http://www.w3.org/1999/xlink" width="288pt" height="120pt" viewBox="0 0 288 120" xmlns="http://www.w3.org/2000/svg" version="1.1">
<desc id="nav-meta">{"window":"3m","count":4,"labels":["12.12","11.01","09.02","11.03"],"tick_utc":["2025-12-12T12:00:00Z","2026-01-11T12:00:00Z","2026-02-09T03:34:10Z","2026-03-11T03:14:04Z"],"w":720,"h":300}</desc>

 <metadata>
  <rdf:RDF xmlns:dc="http://purl.org/dc/elements/1.1/" xmlns:cc="http://creativecommons.org/ns#" xmlns:rdf="http://www.w3.org/1999/02/22-rdf-syntax-ns#">
   <cc:Work>
    <dc:type rdf:resource="http://purl.org/dc/dcmitype/StillImage"/>
    <dc:date>2026-03-11T13:51:09.543496</dc:date>
    <dc:format>image/svg+xml</dc:format>
    <dc:creator>
     <cc:Agent>
      <dc:title>Matplotlib v3.10.8, https://matplotlib.org/</dc:title>
     </cc:Agent>
    </dc:creator>
   </cc:Work>
  </rdf:RDF>
 </metadata>
 <defs>
  <style type="text/css">*{stroke-linejoin: round; stroke-linecap: butt}</style>
 </defs>
 <g id="figure_1">
  <g id="patch_1">
   <path d="M 0 120 
L 288 120 
L 288 0 
L 0 0 
L 0 120 
z
" style="fill: none; opacity: 0"/>
  </g>
  <g id="axes_1">
   <g id="patch_2">
    <path d="M 8.64 108 
L 279.36 108 
L 279.36 4.8 
L 8.64 4.8 
L 8.64 108 
z
" style="fill: none"/>
   </g>
   <g id="matplotlib.axis_1"/>
   <g id="matplotlib.axis_2"/>
   <g id="line2d_1">
    <path d="M 8.64 87.36 
L 279.36 87.36 
" clip-path="url(#pe3a799f9f8)" style="fill: none; stroke: #b2b2b2; stroke-opacity: 0.35; stroke-width: 0.5; stroke-linecap: square"/>
   </g>
   <g id="line2d_2">
    <path d="M 8.64 66.72 
L 279.36 66.72 
" clip-path="url(#pe3a799f9f8)" style="fill: none; stroke: #b2b2b2; stroke-opacity: 0.35; stroke-width: 0.5; stroke-linecap: square"/>
   </g>
   <g id="line2d_3">
    <path d="M 8.64 46.08 
L 279.36 46.08 
" clip-path="url(#pe3a799f9f8)" style="fill: none; stroke: #b2b2b2; stroke-opacity: 0.35; stroke-width: 0.5; stroke-linecap: square"/>
   </g>
   <g id="line2d_4">
    <path d="M 8.64 25.44 
L 279.36 25.44 
" clip-path="url(#pe3a799f9f8)" style="fill: none; stroke: #b2b2b2; stroke-opacity: 0.35; stroke-width: 0.5; stroke-linecap: square"/>
   </g>
   <g id="line2d_5">
    <path d="M 8.64 89.22792 
L 11.694332 90.31152 
L 14.748664 90.10512 
L 17.802996 91.09584 
L 20.857328 91.61184 
L 23.911659 91.31256 
L 26.965991 92.87088 
L 30.020323 93.8616 
L 33.074655 92.02464 
L 36.128987 92.13816 
L 39.183319 92.07624 
L 42.237651 92.14848 
L 45.291983 92.64384 
L 48.346315 93.01536 
L 51.400646 93.69648 
L 54.454978 93.11856 
L 57.50931 92.44776 
L 60.563642 92.30328 
L 63.617974 92.87088 
L 66.672306 92.38584 
L 69.726638 92.47872 
L 72.78097 91.88016 
L 75.835302 90.42504 
L 78.889633 90.08448 
L 81.943965 89.92968 
L 84.998297 88.76352 
L 88.052629 87.94824 
L 91.106961 89.2692 
L 94.161293 88.72224 
L 97.215625 89.39304 
L 100.269957 89.40336 
L 103.324289 88.41264 
L 106.37862 88.4952 
L 109.432952 86.86464 
L 112.487284 86.42088 
L 115.541616 87.62832 
L 118.595948 86.93688 
L 121.65028 87.23616 
L 124.704612 88.63968 
L 127.758944 90.0432 
L 130.813276 92.12784 
L 133.867607 91.16808 
L 136.921939 91.46736 
L 139.976271 91.73568 
L 143.030603 91.78728 
L 146.084935 94.0164 
L 149.139267 92.5716 
L 152.193599 91.76664 
L 155.247931 92.33424 
L 158.302263 94.36728 
L 161.356594 94.46016 
L 164.410926 97.71096 
L 167.465258 98.48496 
L 170.51959 97.85544 
L 173.098132 99.10416 
L 175.525371 100.16712 
L 178.578148 102.23112 
L 181.6194 100.54896 
L 184.74355 100.70376 
L 187.772677 100.68312 
L 190.844437 100.95144 
L 193.892441 101.28168 
L 196.935778 101.71512 
L 199.989191 101.84928 
L 203.006793 101.034 
L 205.89996 100.54896 
L 209.150207 101.04432 
L 211.820874 100.81728 
L 215.254028 101.034 
L 218.304648 101.4984 
L 221.341128 101.33328 
L 224.376794 101.1372 
L 227.466017 101.06496 
L 230.529541 102.09696 
L 233.325845 102.05568 
L 236.62721 101.4984 
L 239.667932 100.60056 
L 242.716466 100.80696 
L 245.734811 101.45712 
L 248.858537 100.55928 
L 251.881336 101.10624 
L 254.942773 100.8792 
L 257.979995 100.74504 
L 261.040902 100.21872 
L 264.093785 100.53864 
L 267.124679 101.07528 
L 270.20867 101.38488 
L 273.272158 101.26104 
L 276.30687 100.78632 
L 279.36 100.91016 
" clip-path="url(#pe3a799f9f8)" style="fill: none; stroke: #bebebe; stroke-width: 0.5; stroke-linecap: round"/>
   </g>
   <g id="line2d_6">
    <path d="M 8.64 71.56008 
L 11.694332 73.79952 
L 14.748664 73.35576 
L 17.802996 74.0988 
L 20.857328 75.5952 
L 23.911659 75.5952 
L 26.965991 77.61792 
L 30.020323 77.63856 
L 33.074655 75.40944 
L 36.128987 75.40944 
L 39.183319 75.04824 
L 42.237651 74.98632 
L 45.291983 75.58488 
L 48.346315 75.87384 
L 51.400646 76.49304 
L 54.454978 76.15248 
L 57.50931 75.82224 
L 60.563642 75.84288 
L 63.617974 76.03896 
L 66.672306 75.51264 
L 69.726638 75.56424 
L 72.78097 75.05856 
L 75.835302 73.26288 
L 78.889633 73.20096 
L 81.943965 73.00488 
L 84.998297 71.68392 
L 88.052629 70.6932 
L 91.106961 72.62304 
L 94.161293 73.52088 
L 97.215625 73.83048 
L 100.269957 73.8408 
L 103.324289 73.29384 
L 106.37862 73.72728 
L 109.432952 70.32168 
L 112.487284 69.77472 
L 115.541616 70.34232 
L 118.595948 70.67256 
L 121.65028 70.51776 
L 124.704612 70.848 
L 127.758944 72.31344 
L 130.813276 76.01832 
L 133.867607 75.41976 
L 136.921939 75.83256 
L 139.976271 75.79128 
L 143.030603 75.82224 
L 146.084935 77.82432 
L 149.139267 76.14216 
L 152.193599 74.75928 
L 155.247931 74.96568 
L 158.302263 77.75208 
L 161.356594 79.48584 
L 164.410926 83.31456 
L 167.465258 85.90488 
L 170.51959 84.79032 
L 173.098132 85.84296 
L 175.525371 88.25784 
L 178.578148 91.41576 
L 181.6194 88.7532 
L 184.74355 88.65 
L 187.772677 88.55712 
L 190.844437 88.96992 
L 193.892441 89.7336 
L 196.935778 90.456 
L 199.989191 90.56952 
L 203.006793 89.15568 
L 205.89996 88.9596 
L 209.150207 90.6624 
L 211.820874 89.94 
L 215.254028 90.00192 
L 218.304648 90.3528 
L 221.341128 90.62112 
L 224.376794 90.5076 
L 227.466017 90.3528 
L 230.529541 92.004 
L 233.325845 92.13816 
L 236.62721 91.25064 
L 239.667932 89.166 
L 242.716466 89.56848 
L 245.734811 90.93072 
L 248.858537 89.41368 
L 251.881336 90.37344 
L 254.942773 89.79552 
L 257.979995 90.23928 
L 261.040902 88.0824 
L 264.093785 88.7532 
L 267.124679 90.16704 
L 270.20867 90.67272 
L 273.272158 90.18768 
L 276.30687 89.2692 
L 279.36 89.54784 
" clip-path="url(#pe3a799f9f8)" style="fill: none; stroke: #4a8dff; stroke-width: 0.6"/>
   </g>
   <g id="line2d_7">
    <path d="M 8.64 80.87904 
L 11.694332 83.13912 
L 14.748664 83.19072 
L 17.802996 85.296 
L 20.857328 87.17424 
L 23.911659 85.71912 
L 26.965991 87.53544 
L 30.020323 88.17528 
L 33.074655 85.41984 
L 36.128987 85.17216 
L 39.183319 84.9348 
L 42.237651 85.01736 
L 45.291983 86.14224 
L 48.346315 85.90488 
L 51.400646 86.328 
L 54.454978 86.24544 
L 57.50931 85.72944 
L 60.563642 85.7088 
L 63.617974 86.40024 
L 66.672306 85.09992 
L 69.726638 86.02872 
L 72.78097 84.78 
L 75.835302 83.53128 
L 78.889633 82.83984 
L 81.943965 82.03488 
L 84.998297 79.39296 
L 88.052629 79.66128 
L 91.106961 82.15872 
L 94.161293 82.43736 
L 97.215625 82.93272 
L 100.269957 83.00496 
L 103.324289 82.6128 
L 106.37862 82.28256 
L 109.432952 78.01008 
L 112.487284 76.19376 
L 115.541616 77.66952 
L 118.595948 77.74176 
L 121.65028 78.1752 
L 124.704612 79.5684 
L 127.758944 80.8068 
L 130.813276 85.20312 
L 133.867607 84.12984 
L 136.921939 84.03696 
L 139.976271 84.06792 
L 143.030603 84.3156 
L 146.084935 87.02976 
L 149.139267 85.21344 
L 152.193599 84.28464 
L 155.247931 84.32592 
L 158.302263 89.08344 
L 161.356594 89.5272 
L 164.410926 95.14128 
L 167.465258 96.98856 
L 170.51959 95.08968 
L 173.098132 97.71096 
L 175.525371 99.80592 
L 178.578148 101.79768 
L 181.6194 100.03296 
L 184.74355 100.518 
L 187.772677 99.98136 
L 190.844437 100.49736 
L 193.892441 100.78632 
L 196.935778 101.07528 
L 199.989191 101.26104 
L 203.006793 100.63152 
L 205.89996 100.38384 
L 209.150207 100.84824 
L 211.820874 100.65216 
L 215.254028 101.034 
L 218.304648 101.19912 
L 221.341128 101.10624 
L 224.376794 100.97208 
L 227.466017 100.91016 
L 230.529541 101.7564 
L 233.325845 101.84928 
L 236.62721 101.56032 
L 239.667932 100.85856 
L 242.716466 101.12688 
L 245.734811 101.4468 
L 248.858537 101.02368 
L 251.881336 101.30232 
L 254.942773 100.81728 
L 257.979995 100.79664 
L 261.040902 99.3312 
L 264.093785 99.92976 
L 267.124679 100.78632 
L 270.20867 101.17848 
L 273.272158 101.1372 
L 276.30687 100.21872 
L 279.36 100.37352 
" clip-path="url(#pe3a799f9f8)" style="fill: none; stroke: #f5841e; stroke-width: 0.6"/>
   </g>
  </g>
 </g>
 <defs>
  <clipPath id="pe3a799f9f8">
   <rect x="8.64" y="4.8" width="270.72" height="103.2"/>
  </clipPath>
 </defs>
</svg>
