<?xml version="1.0" encoding="utf-8" standalone="no"?>
<!DOCTYPE svg PUBLIC "-//W3C//DTD SVG 1.1//EN"
  "http://www.w3.org/Graphics/SVG/1.1/DTD/svg11.dtd">
<svg xmlns:xlink="http://www.w3.org/1999/xlink" width="288pt" height="120pt" viewBox="0 0 288 120" xmlns="http://www.w3.org/2000/svg" version="1.1">
<desc id="nav-meta">{"window":"1m","count":4,"labels":["07.01","17.01","26.01","05.02"],"tick_utc":["2026-01-07T12:00:00Z","2026-01-17T12:00:00Z","2026-01-26T12:00:00Z","2026-02-05T03:20:02Z"],"w":720,"h":300}</desc>

 <metadata>
  <rdf:RDF xmlns:dc="http://purl.org/dc/elements/1.1/" xmlns:cc="http://creativecommons.org/ns#" xmlns:rdf="http://www.w3.org/1999/02/22-rdf-syntax-ns#">
   <cc:Work>
    <dc:type rdf:resource="http://purl.org/dc/dcmitype/StillImage"/>
    <dc:date>2026-02-05T18:26:46.152381</dc:date>
    <dc:format>image/svg+xml</dc:format>
    <dc:creator>
     <cc:Agent>
      <dc:title>Matplotlib v3.10.8, https://matplotlib.org/</dc:title>
     </cc:Agent>
    </dc:creator>
   </cc:Work>
  </rdf:RDF>
 </metadata>
 <defs>
  <style type="text/css">*{stroke-linejoin: round; stroke-linecap: butt}</style>
 </defs>
 <g id="figure_1">
  <g id="patch_1">
   <path d="M 0 120 
L 288 120 
L 288 0 
L 0 0 
L 0 120 
z
" style="fill: none; opacity: 0"/>
  </g>
  <g id="axes_1">
   <g id="patch_2">
    <path d="M 8.64 108 
L 279.36 108 
L 279.36 4.8 
L 8.64 4.8 
L 8.64 108 
z
" style="fill: none"/>
   </g>
   <g id="matplotlib.axis_1"/>
   <g id="matplotlib.axis_2"/>
   <g id="line2d_1">
    <path d="M 8.64 87.36 
L 279.36 87.36 
" clip-path="url(#pae70f6bb14)" style="fill: none; stroke: #b2b2b2; stroke-opacity: 0.35; stroke-width: 0.5; stroke-linecap: square"/>
   </g>
   <g id="line2d_2">
    <path d="M 8.64 66.72 
L 279.36 66.72 
" clip-path="url(#pae70f6bb14)" style="fill: none; stroke: #b2b2b2; stroke-opacity: 0.35; stroke-width: 0.5; stroke-linecap: square"/>
   </g>
   <g id="line2d_3">
    <path d="M 8.64 46.08 
L 279.36 46.08 
" clip-path="url(#pae70f6bb14)" style="fill: none; stroke: #b2b2b2; stroke-opacity: 0.35; stroke-width: 0.5; stroke-linecap: square"/>
   </g>
   <g id="line2d_4">
    <path d="M 8.64 25.44 
L 279.36 25.44 
" clip-path="url(#pae70f6bb14)" style="fill: none; stroke: #b2b2b2; stroke-opacity: 0.35; stroke-width: 0.5; stroke-linecap: square"/>
   </g>
   <g id="line2d_5">
    <path d="M 8.64 87.94824 
L 18.092873 89.2692 
L 27.545746 88.72224 
L 36.998619 89.39304 
L 46.451492 89.40336 
L 55.904365 88.41264 
L 65.357238 88.4952 
L 74.810111 86.86464 
L 84.262984 86.42088 
L 93.715858 87.62832 
L 103.168731 86.93688 
L 112.621604 87.23616 
L 122.074477 88.63968 
L 131.52735 90.0432 
L 140.980223 92.12784 
L 150.433096 91.16808 
L 159.885969 91.46736 
L 169.338842 91.73568 
L 178.791715 91.78728 
L 188.244588 94.0164 
L 197.697461 92.5716 
L 207.150334 91.76664 
L 216.603207 92.33424 
L 226.05608 94.36728 
L 235.508953 94.46016 
L 244.961826 97.71096 
L 254.4147 98.48496 
L 263.867573 97.85544 
L 271.84792 99.10416 
L 279.36 100.16712 
" clip-path="url(#pae70f6bb14)" style="fill: none; stroke: #bebebe; stroke-width: 0.5; stroke-linecap: round"/>
   </g>
   <g id="line2d_6">
    <path d="M 8.64 70.6932 
L 18.092873 72.62304 
L 27.545746 73.52088 
L 36.998619 73.83048 
L 46.451492 73.8408 
L 55.904365 73.29384 
L 65.357238 73.72728 
L 74.810111 70.32168 
L 84.262984 69.77472 
L 93.715858 70.34232 
L 103.168731 70.67256 
L 112.621604 70.51776 
L 122.074477 70.848 
L 131.52735 72.31344 
L 140.980223 76.01832 
L 150.433096 75.41976 
L 159.885969 75.83256 
L 169.338842 75.79128 
L 178.791715 75.82224 
L 188.244588 77.82432 
L 197.697461 76.14216 
L 207.150334 74.75928 
L 216.603207 74.96568 
L 226.05608 77.75208 
L 235.508953 79.48584 
L 244.961826 83.31456 
L 254.4147 85.90488 
L 263.867573 84.79032 
L 271.84792 85.84296 
L 279.36 88.25784 
" clip-path="url(#pae70f6bb14)" style="fill: none; stroke: #4a8dff; stroke-width: 0.6"/>
   </g>
   <g id="line2d_7">
    <path d="M 8.64 79.66128 
L 18.092873 82.15872 
L 27.545746 82.43736 
L 36.998619 82.93272 
L 46.451492 83.00496 
L 55.904365 82.6128 
L 65.357238 82.28256 
L 74.810111 78.01008 
L 84.262984 76.19376 
L 93.715858 77.66952 
L 103.168731 77.74176 
L 112.621604 78.1752 
L 122.074477 79.5684 
L 131.52735 80.8068 
L 140.980223 85.20312 
L 150.433096 84.12984 
L 159.885969 84.03696 
L 169.338842 84.06792 
L 178.791715 84.3156 
L 188.244588 87.02976 
L 197.697461 85.21344 
L 207.150334 84.28464 
L 216.603207 84.32592 
L 226.05608 89.08344 
L 235.508953 89.5272 
L 244.961826 95.14128 
L 254.4147 96.98856 
L 263.867573 95.08968 
L 271.84792 97.71096 
L 279.36 99.80592 
" clip-path="url(#pae70f6bb14)" style="fill: none; stroke: #f5841e; stroke-width: 0.6"/>
   </g>
  </g>
 </g>
 <defs>
  <clipPath id="pae70f6bb14">
   <rect x="8.64" y="4.8" width="270.72" height="103.2"/>
  </clipPath>
 </defs>
</svg>
