<?xml version="1.0" encoding="utf-8" standalone="no"?>
<!DOCTYPE svg PUBLIC "-//W3C//DTD SVG 1.1//EN"
  "http://www.w3.org/Graphics/SVG/1.1/DTD/svg11.dtd">
<svg xmlns:xlink="http://www.w3.org/1999/xlink" width="288pt" height="120pt" viewBox="0 0 288 120" xmlns="http://www.w3.org/2000/svg" version="1.1">
<desc id="nav-meta">{"window":"3m","count":4,"labels":["23.04","23.05","21.06","21.07"],"tick_utc":["2026-04-23T03:57:29Z","2026-05-23T04:28:38Z","2026-06-21T05:29:24Z","2026-07-21T03:59:29Z"],"w":720,"h":300}</desc>

 <metadata>
  <rdf:RDF xmlns:dc="http://purl.org/dc/elements/1.1/" xmlns:cc="http://creativecommons.org/ns#" xmlns:rdf="http://www.w3.org/1999/02/22-rdf-syntax-ns#">
   <cc:Work>
    <dc:type rdf:resource="http://purl.org/dc/dcmitype/StillImage"/>
    <dc:date>2026-07-21T20:05:21.296898</dc:date>
    <dc:format>image/svg+xml</dc:format>
    <dc:creator>
     <cc:Agent>
      <dc:title>Matplotlib v3.11.1, https://matplotlib.org/</dc:title>
     </cc:Agent>
    </dc:creator>
   </cc:Work>
  </rdf:RDF>
 </metadata>
 <defs>
  <style type="text/css">*{stroke-linejoin: round; stroke-linecap: butt}</style>
 </defs>
 <g id="figure_1">
  <g id="patch_1">
   <path d="M 0 120 
L 288 120 
L 288 0 
L 0 0 
L 0 120 
z
" style="fill: none; opacity: 0"/>
  </g>
  <g id="axes_1">
   <g id="patch_2">
    <path d="M 8.64 108 
L 279.36 108 
L 279.36 4.8 
L 8.64 4.8 
L 8.64 108 
z
" style="fill: none"/>
   </g>
   <g id="matplotlib.axis_1"/>
   <g id="matplotlib.axis_2"/>
   <g id="line2d_1">
    <path d="M 8.64 87.36 
L 279.36 87.36 
" clip-path="url(#p644ede9f53)" style="fill: none; stroke: #b2b2b2; stroke-opacity: 0.35; stroke-width: 0.5; stroke-linecap: square"/>
   </g>
   <g id="line2d_2">
    <path d="M 8.64 66.72 
L 279.36 66.72 
" clip-path="url(#p644ede9f53)" style="fill: none; stroke: #b2b2b2; stroke-opacity: 0.35; stroke-width: 0.5; stroke-linecap: square"/>
   </g>
   <g id="line2d_3">
    <path d="M 8.64 46.08 
L 279.36 46.08 
" clip-path="url(#p644ede9f53)" style="fill: none; stroke: #b2b2b2; stroke-opacity: 0.35; stroke-width: 0.5; stroke-linecap: square"/>
   </g>
   <g id="line2d_4">
    <path d="M 8.64 25.44 
L 279.36 25.44 
" clip-path="url(#p644ede9f53)" style="fill: none; stroke: #b2b2b2; stroke-opacity: 0.35; stroke-width: 0.5; stroke-linecap: square"/>
   </g>
   <g id="line2d_5">
    <path d="M 8.64 100.9308 
L 11.689812 100.92048 
L 14.695266 100.81728 
L 17.784332 100.8792 
L 20.858859 100.64184 
L 23.906981 101.1888 
L 26.940423 101.09592 
L 29.987278 101.37456 
L 33.062262 101.21976 
L 36.026385 101.20944 
L 39.129885 101.23008 
L 42.170579 100.92048 
L 45.145334 101.06496 
L 48.240667 100.70376 
L 51.283227 100.55928 
L 54.274352 100.53864 
L 57.327227 99.60984 
L 60.43027 99.72336 
L 63.49603 99.44472 
L 66.495534 99.25896 
L 69.551754 99.32088 
L 72.590124 100.22904 
L 75.646872 100.01232 
L 78.649791 100.43544 
L 81.736956 100.75536 
L 84.808244 101.02368 
L 87.828202 101.02368 
L 90.88083 101.17848 
L 93.939902 100.7244 
L 96.958346 100.75536 
L 99.958308 101.11656 
L 103.048219 100.91016 
L 106.129998 100.89984 
L 109.125664 101.1372 
L 112.198642 101.2404 
L 115.230675 101.6532 
L 118.274679 101.4984 
L 121.272563 101.48808 
L 124.376416 101.32296 
L 127.463158 101.51904 
L 130.474984 101.7048 
L 133.550954 102.54072 
L 136.582284 103.08768 
L 139.573936 103.36632 
L 142.568934 104.22288 
L 145.676061 103.85136 
L 148.731259 103.68624 
L 151.714956 103.43856 
L 154.78825 103.81008 
L 157.84785 103.72752 
L 160.901535 103.50048 
L 163.921035 103.5108 
L 166.984859 103.31472 
L 170.12772 102.95352 
L 173.186826 102.61296 
L 176.131691 102.6336 
L 179.158866 102.9948 
L 182.27226 103.28376 
L 185.192375 103.01544 
L 188.297425 102.69552 
L 191.42821 102.582 
L 194.288124 102.88128 
L 197.340753 103.15992 
L 200.381693 103.36632 
L 203.439039 103.36632 
L 206.443507 102.81936 
L 209.543241 103.0464 
L 212.606995 102.9432 
L 215.589776 102.59232 
L 218.676026 102.40656 
L 221.66451 102.02472 
L 224.673167 101.68416 
L 227.701821 101.3436 
L 230.788106 101.6532 
L 233.859324 101.6532 
L 236.855448 101.63256 
L 239.814535 101.95248 
L 242.948489 102.08664 
L 245.983374 101.9112 
L 248.935315 102.066 
L 252.022551 102.18984 
L 255.070955 102.31368 
L 258.042365 102.45816 
L 261.08489 102.08664 
L 264.134244 102.21048 
L 267.176488 102.4272 
L 270.203205 102.4272 
L 273.290687 102.34464 
L 276.373698 102.25176 
L 279.36 102.02472 
" clip-path="url(#p644ede9f53)" style="fill: none; stroke: #bebebe; stroke-width: 0.5; stroke-linecap: round"/>
   </g>
   <g id="line2d_6">
    <path d="M 8.64 84.86256 
L 11.689812 85.32696 
L 14.695266 85.17216 
L 17.784332 85.31664 
L 20.858859 84.11952 
L 23.906981 85.66752 
L 26.940423 85.26504 
L 29.987278 86.26608 
L 33.062262 85.77072 
L 36.026385 85.38888 
L 39.129885 85.3992 
L 42.170579 84.09888 
L 45.145334 84.22272 
L 48.240667 84.34656 
L 51.283227 85.06896 
L 54.274352 85.7604 
L 57.327227 85.0896 
L 60.43027 85.01736 
L 63.49603 84.9348 
L 66.495534 85.296 
L 69.551754 85.35792 
L 72.590124 86.1732 
L 75.646872 85.92552 
L 78.649791 86.55504 
L 81.736956 87.13296 
L 84.808244 88.10304 
L 87.828202 87.9276 
L 90.88083 88.26816 
L 93.939902 87.78312 
L 96.958346 87.95856 
L 99.958308 88.94928 
L 103.048219 88.14432 
L 106.129998 88.33008 
L 109.125664 88.52616 
L 112.198642 88.86672 
L 115.230675 90.22896 
L 118.274679 89.82648 
L 121.272563 89.87808 
L 124.376416 89.46528 
L 127.463158 90.0432 
L 130.474984 89.96064 
L 133.550954 91.99368 
L 136.582284 93.05664 
L 139.573936 93.74808 
L 142.568934 97.02984 
L 145.676061 95.93592 
L 148.731259 95.07936 
L 151.714956 94.46016 
L 154.78825 95.47152 
L 157.84785 95.11032 
L 160.901535 94.82136 
L 163.921035 94.8936 
L 166.984859 94.70784 
L 170.12772 94.04736 
L 173.186826 93.40752 
L 176.131691 92.9844 
L 179.158866 93.93384 
L 182.27226 94.4292 
L 185.192375 94.19184 
L 188.297425 93.87192 
L 191.42821 93.81 
L 194.288124 94.03704 
L 197.340753 94.83168 
L 200.381693 95.48184 
L 203.439039 96.63768 
L 206.443507 96.14232 
L 209.543241 96.30744 
L 212.606995 96.29712 
L 215.589776 96.04944 
L 218.676026 95.9256 
L 221.66451 95.39928 
L 224.673167 94.31568 
L 227.701821 93.57264 
L 230.788106 93.32496 
L 233.859324 93.22176 
L 236.855448 93.35592 
L 239.814535 93.61392 
L 242.948489 93.77904 
L 245.983374 93.26304 
L 248.935315 92.92248 
L 252.022551 92.71608 
L 255.070955 93.15984 
L 258.042365 93.17016 
L 261.08489 91.80792 
L 264.134244 91.14744 
L 267.176488 92.13816 
L 270.203205 92.25168 
L 273.290687 91.9008 
L 276.373698 91.81824 
L 279.36 91.00296 
" clip-path="url(#p644ede9f53)" style="fill: none; stroke: #4a8dff; stroke-width: 0.6"/>
   </g>
   <g id="line2d_7">
    <path d="M 8.64 96.20424 
L 11.689812 96.16296 
L 14.695266 96.1836 
L 17.784332 96.50352 
L 20.858859 94.76976 
L 23.906981 97.19496 
L 26.940423 96.9576 
L 29.987278 97.9896 
L 33.062262 96.89568 
L 36.026385 95.45088 
L 39.129885 95.67792 
L 42.170579 93.43848 
L 45.145334 92.90184 
L 48.240667 92.25168 
L 51.283227 92.87088 
L 54.274352 94.2744 
L 57.327227 93.1392 
L 60.43027 92.97408 
L 63.49603 92.9844 
L 66.495534 92.60256 
L 69.551754 92.53032 
L 72.590124 94.54272 
L 75.646872 92.85024 
L 78.649791 94.82136 
L 81.736956 95.75016 
L 84.808244 96.97824 
L 87.828202 97.08144 
L 90.88083 97.23624 
L 93.939902 95.94624 
L 96.958346 96.30744 
L 99.958308 98.08248 
L 103.048219 97.2672 
L 106.129998 96.61704 
L 109.125664 97.23624 
L 112.198642 98.08248 
L 115.230675 99.18672 
L 118.274679 99.03192 
L 121.272563 99.1248 
L 124.376416 98.74296 
L 127.463158 99.09384 
L 130.474984 100.0536 
L 133.550954 101.23008 
L 136.582284 101.99376 
L 139.573936 102.08664 
L 142.568934 102.8916 
L 145.676061 102.45816 
L 148.731259 102.28272 
L 151.714956 102.10728 
L 154.78825 102.582 
L 157.84785 102.29304 
L 160.901535 102.08664 
L 163.921035 102.066 
L 166.984859 101.86992 
L 170.12772 101.48808 
L 173.186826 101.40552 
L 176.131691 101.4984 
L 179.158866 101.97312 
L 182.27226 102.26208 
L 185.192375 102.066 
L 188.297425 101.90088 
L 191.42821 101.90088 
L 194.288124 102.0144 
L 197.340753 102.25176 
L 200.381693 102.6336 
L 203.439039 102.88128 
L 206.443507 102.77808 
L 209.543241 102.85032 
L 212.606995 102.93288 
L 215.589776 102.95352 
L 218.676026 103.00512 
L 221.66451 102.69552 
L 224.673167 102.55104 
L 227.701821 102.2724 
L 230.788106 102.21048 
L 233.859324 102.12792 
L 236.855448 102.13824 
L 239.814535 102.25176 
L 242.948489 102.36528 
L 245.983374 101.94216 
L 248.935315 101.92152 
L 252.022551 101.9112 
L 255.070955 102.2208 
L 258.042365 102.31368 
L 261.08489 101.79768 
L 264.134244 101.81832 
L 267.176488 102.07632 
L 270.203205 101.97312 
L 273.290687 101.79768 
L 276.373698 101.78736 
L 279.36 101.57064 
" clip-path="url(#p644ede9f53)" style="fill: none; stroke: #f5841e; stroke-width: 0.6"/>
   </g>
  </g>
 </g>
 <defs>
  <clipPath id="p644ede9f53">
   <rect x="8.64" y="4.8" width="270.72" height="103.2"/>
  </clipPath>
 </defs>
</svg>
