<?xml version="1.0" encoding="utf-8" standalone="no"?>
<!DOCTYPE svg PUBLIC "-//W3C//DTD SVG 1.1//EN"
  "http://www.w3.org/Graphics/SVG/1.1/DTD/svg11.dtd">
<svg xmlns:xlink="http://www.w3.org/1999/xlink" width="288pt" height="120pt" viewBox="0 0 288 120" xmlns="http://www.w3.org/2000/svg" version="1.1">
<desc id="nav-meta">{"window":"1m","count":4,"labels":["19.05","29.05","07.06","17.06"],"tick_utc":["2026-05-19T04:46:06Z","2026-05-29T04:59:49Z","2026-06-07T05:11:57Z","2026-06-17T05:30:00Z"],"w":720,"h":300}</desc>

 <metadata>
  <rdf:RDF xmlns:dc="http://purl.org/dc/elements/1.1/" xmlns:cc="http://creativecommons.org/ns#" xmlns:rdf="http://www.w3.org/1999/02/22-rdf-syntax-ns#">
   <cc:Work>
    <dc:type rdf:resource="http://purl.org/dc/dcmitype/StillImage"/>
    <dc:date>2026-06-17T16:27:10.262592</dc:date>
    <dc:format>image/svg+xml</dc:format>
    <dc:creator>
     <cc:Agent>
      <dc:title>Matplotlib v3.11.0, https://matplotlib.org/</dc:title>
     </cc:Agent>
    </dc:creator>
   </cc:Work>
  </rdf:RDF>
 </metadata>
 <defs>
  <style type="text/css">*{stroke-linejoin: round; stroke-linecap: butt}</style>
 </defs>
 <g id="figure_1">
  <g id="patch_1">
   <path d="M 0 120 
L 288 120 
L 288 0 
L 0 0 
L 0 120 
z
" style="fill: none; opacity: 0"/>
  </g>
  <g id="axes_1">
   <g id="patch_2">
    <path d="M 8.64 108 
L 279.36 108 
L 279.36 4.8 
L 8.64 4.8 
L 8.64 108 
z
" style="fill: none"/>
   </g>
   <g id="matplotlib.axis_1"/>
   <g id="matplotlib.axis_2"/>
   <g id="line2d_1">
    <path d="M 8.64 87.36 
L 279.36 87.36 
" clip-path="url(#p51304d6ac9)" style="fill: none; stroke: #b2b2b2; stroke-opacity: 0.35; stroke-width: 0.5; stroke-linecap: square"/>
   </g>
   <g id="line2d_2">
    <path d="M 8.64 66.72 
L 279.36 66.72 
" clip-path="url(#p51304d6ac9)" style="fill: none; stroke: #b2b2b2; stroke-opacity: 0.35; stroke-width: 0.5; stroke-linecap: square"/>
   </g>
   <g id="line2d_3">
    <path d="M 8.64 46.08 
L 279.36 46.08 
" clip-path="url(#p51304d6ac9)" style="fill: none; stroke: #b2b2b2; stroke-opacity: 0.35; stroke-width: 0.5; stroke-linecap: square"/>
   </g>
   <g id="line2d_4">
    <path d="M 8.64 25.44 
L 279.36 25.44 
" clip-path="url(#p51304d6ac9)" style="fill: none; stroke: #b2b2b2; stroke-opacity: 0.35; stroke-width: 0.5; stroke-linecap: square"/>
   </g>
   <g id="line2d_5">
    <path d="M 8.64 101.02368 
L 17.99872 101.17848 
L 27.377192 100.7244 
L 36.63111 100.75536 
L 45.828363 101.11656 
L 55.301384 100.91016 
L 64.749473 100.89984 
L 73.933558 101.1372 
L 83.354663 101.2404 
L 92.650243 101.6532 
L 101.98252 101.4984 
L 111.173405 101.48808 
L 120.689167 101.32296 
L 130.152474 101.51904 
L 139.386101 101.7048 
L 148.81638 102.54072 
L 158.109802 103.08768 
L 167.281583 103.36632 
L 176.463618 104.22288 
L 185.989417 103.85136 
L 195.356017 103.68624 
L 204.503405 103.43856 
L 213.925482 103.81008 
L 223.305573 103.72752 
L 232.667531 103.50048 
L 241.924687 103.5108 
L 251.31773 103.31472 
L 260.953081 102.95352 
L 270.331661 102.61296 
L 279.36 102.6336 
" clip-path="url(#p51304d6ac9)" style="fill: none; stroke: #bebebe; stroke-width: 0.5; stroke-linecap: round"/>
   </g>
   <g id="line2d_6">
    <path d="M 8.64 87.9276 
L 17.99872 88.26816 
L 27.377192 87.78312 
L 36.63111 87.95856 
L 45.828363 88.94928 
L 55.301384 88.14432 
L 64.749473 88.33008 
L 73.933558 88.52616 
L 83.354663 88.86672 
L 92.650243 90.22896 
L 101.98252 89.82648 
L 111.173405 89.87808 
L 120.689167 89.46528 
L 130.152474 90.0432 
L 139.386101 89.96064 
L 148.81638 91.99368 
L 158.109802 93.05664 
L 167.281583 93.74808 
L 176.463618 97.02984 
L 185.989417 95.93592 
L 195.356017 95.07936 
L 204.503405 94.46016 
L 213.925482 95.47152 
L 223.305573 95.11032 
L 232.667531 94.82136 
L 241.924687 94.8936 
L 251.31773 94.70784 
L 260.953081 94.04736 
L 270.331661 93.40752 
L 279.36 92.9844 
" clip-path="url(#p51304d6ac9)" style="fill: none; stroke: #4a8dff; stroke-width: 0.6"/>
   </g>
   <g id="line2d_7">
    <path d="M 8.64 97.08144 
L 17.99872 97.23624 
L 27.377192 95.94624 
L 36.63111 96.30744 
L 45.828363 98.08248 
L 55.301384 97.2672 
L 64.749473 96.61704 
L 73.933558 97.23624 
L 83.354663 98.08248 
L 92.650243 99.18672 
L 101.98252 99.03192 
L 111.173405 99.1248 
L 120.689167 98.74296 
L 130.152474 99.09384 
L 139.386101 100.0536 
L 148.81638 101.23008 
L 158.109802 101.99376 
L 167.281583 102.08664 
L 176.463618 102.8916 
L 185.989417 102.45816 
L 195.356017 102.28272 
L 204.503405 102.10728 
L 213.925482 102.582 
L 223.305573 102.29304 
L 232.667531 102.08664 
L 241.924687 102.066 
L 251.31773 101.86992 
L 260.953081 101.48808 
L 270.331661 101.40552 
L 279.36 101.4984 
" clip-path="url(#p51304d6ac9)" style="fill: none; stroke: #f5841e; stroke-width: 0.6"/>
   </g>
  </g>
 </g>
 <defs>
  <clipPath id="p51304d6ac9">
   <rect x="8.64" y="4.8" width="270.72" height="103.2"/>
  </clipPath>
 </defs>
</svg>
