<?xml version="1.0" encoding="utf-8" standalone="no"?>
<!DOCTYPE svg PUBLIC "-//W3C//DTD SVG 1.1//EN"
  "http://www.w3.org/Graphics/SVG/1.1/DTD/svg11.dtd">
<svg xmlns:xlink="http://www.w3.org/1999/xlink" width="288pt" height="120pt" viewBox="0 0 288 120" xmlns="http://www.w3.org/2000/svg" version="1.1">
<desc id="nav-meta">{"window":"3m","count":4,"labels":["21.01","20.02","22.03","21.04"],"tick_utc":["2026-01-21T12:00:00Z","2026-02-20T03:20:24Z","2026-03-22T03:31:55Z","2026-04-21T03:56:07Z"],"w":720,"h":300}</desc>

 <metadata>
  <rdf:RDF xmlns:dc="http://purl.org/dc/elements/1.1/" xmlns:cc="http://creativecommons.org/ns#" xmlns:rdf="http://www.w3.org/1999/02/22-rdf-syntax-ns#">
   <cc:Work>
    <dc:type rdf:resource="http://purl.org/dc/dcmitype/StillImage"/>
    <dc:date>2026-04-21T03:56:08.918646</dc:date>
    <dc:format>image/svg+xml</dc:format>
    <dc:creator>
     <cc:Agent>
      <dc:title>Matplotlib v3.10.8, https://matplotlib.org/</dc:title>
     </cc:Agent>
    </dc:creator>
   </cc:Work>
  </rdf:RDF>
 </metadata>
 <defs>
  <style type="text/css">*{stroke-linejoin: round; stroke-linecap: butt}</style>
 </defs>
 <g id="figure_1">
  <g id="patch_1">
   <path d="M 0 120 
L 288 120 
L 288 0 
L 0 0 
L 0 120 
z
" style="fill: none; opacity: 0"/>
  </g>
  <g id="axes_1">
   <g id="patch_2">
    <path d="M 8.64 108 
L 279.36 108 
L 279.36 4.8 
L 8.64 4.8 
L 8.64 108 
z
" style="fill: none"/>
   </g>
   <g id="matplotlib.axis_1"/>
   <g id="matplotlib.axis_2"/>
   <g id="line2d_1">
    <path d="M 8.64 87.36 
L 279.36 87.36 
" clip-path="url(#p18249a9987)" style="fill: none; stroke: #b2b2b2; stroke-opacity: 0.35; stroke-width: 0.5; stroke-linecap: square"/>
   </g>
   <g id="line2d_2">
    <path d="M 8.64 66.72 
L 279.36 66.72 
" clip-path="url(#p18249a9987)" style="fill: none; stroke: #b2b2b2; stroke-opacity: 0.35; stroke-width: 0.5; stroke-linecap: square"/>
   </g>
   <g id="line2d_3">
    <path d="M 8.64 46.08 
L 279.36 46.08 
" clip-path="url(#p18249a9987)" style="fill: none; stroke: #b2b2b2; stroke-opacity: 0.35; stroke-width: 0.5; stroke-linecap: square"/>
   </g>
   <g id="line2d_4">
    <path d="M 8.64 25.44 
L 279.36 25.44 
" clip-path="url(#p18249a9987)" style="fill: none; stroke: #b2b2b2; stroke-opacity: 0.35; stroke-width: 0.5; stroke-linecap: square"/>
   </g>
   <g id="line2d_5">
    <path d="M 8.64 92.12784 
L 11.659273 91.16808 
L 14.678546 91.46736 
L 17.697819 91.73568 
L 20.717092 91.78728 
L 23.736365 94.0164 
L 26.755638 92.5716 
L 29.774911 91.76664 
L 32.794184 92.33424 
L 35.813457 94.36728 
L 38.83273 94.46016 
L 41.852003 97.71096 
L 44.871276 98.48496 
L 47.890549 97.85544 
L 50.439493 99.10416 
L 52.838871 100.16712 
L 55.856607 102.23112 
L 58.86295 100.54896 
L 61.95124 100.70376 
L 64.945597 100.68312 
L 67.982098 100.95144 
L 70.995116 101.28168 
L 74.00352 101.71512 
L 77.021885 101.84928 
L 80.00485 101.034 
L 82.864807 100.54896 
L 86.077747 101.04432 
L 88.717759 100.81728 
L 92.111505 101.034 
L 95.127109 101.4984 
L 98.128735 101.33328 
L 101.129556 101.1372 
L 104.18332 101.06496 
L 107.211679 102.09696 
L 109.975886 102.05568 
L 113.239357 101.4984 
L 116.245176 100.60056 
L 119.258718 100.80696 
L 122.242417 101.45712 
L 125.330287 100.55928 
L 128.318389 101.10624 
L 131.344686 100.8792 
L 134.347045 100.74504 
L 137.372818 100.21872 
L 140.390658 100.53864 
L 143.386763 101.07528 
L 146.435355 101.38488 
L 149.463678 101.26104 
L 152.463557 100.78632 
L 155.481642 100.91016 
L 158.512796 100.99272 
L 161.526233 100.38384 
L 164.541487 100.50768 
L 167.618525 100.60056 
L 170.646324 99.76464 
L 173.61276 99.49632 
L 176.655062 99.40344 
L 179.675174 100.09488 
L 182.665058 100.3632 
L 185.666648 100.19808 
L 188.731071 100.47672 
L 191.757437 100.79664 
L 194.748754 100.26 
L 197.9929 99.83688 
L 200.824028 100.13616 
L 203.84711 100.80696 
L 206.837518 101.38488 
L 209.897921 101.3436 
L 212.925826 101.292 
L 215.926054 101.28168 
L 218.971221 101.28168 
L 221.950726 101.8596 
L 224.973459 101.88024 
L 227.966872 101.72544 
L 231.031609 101.68416 
L 234.058675 101.47776 
L 237.058343 101.78736 
L 240.082509 101.09592 
L 243.091263 101.46744 
L 246.138318 101.3436 
L 249.111428 101.05464 
L 252.184866 101.3952 
L 255.21962 101.47776 
L 258.219673 100.86888 
L 261.236639 101.26104 
L 264.268982 100.99272 
L 267.282104 100.61088 
L 270.268075 100.44576 
L 273.32722 100.94112 
L 276.353971 101.09592 
L 279.36 101.00304 
" clip-path="url(#p18249a9987)" style="fill: none; stroke: #bebebe; stroke-width: 0.5; stroke-linecap: round"/>
   </g>
   <g id="line2d_6">
    <path d="M 8.64 76.01832 
L 11.659273 75.41976 
L 14.678546 75.83256 
L 17.697819 75.79128 
L 20.717092 75.82224 
L 23.736365 77.82432 
L 26.755638 76.14216 
L 29.774911 74.75928 
L 32.794184 74.96568 
L 35.813457 77.75208 
L 38.83273 79.48584 
L 41.852003 83.31456 
L 44.871276 85.90488 
L 47.890549 84.79032 
L 50.439493 85.84296 
L 52.838871 88.25784 
L 55.856607 91.41576 
L 58.86295 88.7532 
L 61.95124 88.65 
L 64.945597 88.55712 
L 67.982098 88.96992 
L 70.995116 89.7336 
L 74.00352 90.456 
L 77.021885 90.56952 
L 80.00485 89.15568 
L 82.864807 88.9596 
L 86.077747 90.6624 
L 88.717759 89.94 
L 92.111505 90.00192 
L 95.127109 90.3528 
L 98.128735 90.62112 
L 101.129556 90.5076 
L 104.18332 90.3528 
L 107.211679 92.004 
L 109.975886 92.13816 
L 113.239357 91.25064 
L 116.245176 89.166 
L 119.258718 89.56848 
L 122.242417 90.93072 
L 125.330287 89.41368 
L 128.318389 90.37344 
L 131.344686 89.79552 
L 134.347045 90.23928 
L 137.372818 88.0824 
L 140.390658 88.7532 
L 143.386763 90.16704 
L 146.435355 90.67272 
L 149.463678 90.18768 
L 152.463557 89.2692 
L 155.481642 89.54784 
L 158.512796 89.49624 
L 161.526233 88.31976 
L 164.541487 88.45392 
L 167.618525 88.46424 
L 170.646324 86.38992 
L 173.61276 84.80064 
L 176.655062 84.8316 
L 179.675174 86.586 
L 182.665058 87.74184 
L 185.666648 87.618 
L 188.731071 88.19592 
L 191.757437 89.08344 
L 194.748754 87.89664 
L 197.9929 87.3084 
L 200.824028 87.65928 
L 203.84711 88.96992 
L 206.837518 90.07416 
L 209.897921 89.76456 
L 212.925826 89.3724 
L 215.926054 89.00088 
L 218.971221 88.42296 
L 221.950726 88.81512 
L 224.973459 89.10408 
L 227.966872 89.14536 
L 231.031609 89.07312 
L 234.058675 87.9792 
L 237.058343 88.29912 
L 240.082509 86.38992 
L 243.091263 87.24648 
L 246.138318 87.1536 
L 249.111428 86.21448 
L 252.184866 86.66856 
L 255.21962 87.01944 
L 258.219673 84.44976 
L 261.236639 85.05864 
L 264.268982 84.58392 
L 267.282104 85.04832 
L 270.268075 83.71704 
L 273.32722 84.86256 
L 276.353971 85.6572 
L 279.36 85.27536 
" clip-path="url(#p18249a9987)" style="fill: none; stroke: #4a8dff; stroke-width: 0.6"/>
   </g>
   <g id="line2d_7">
    <path d="M 8.64 85.20312 
L 11.659273 84.12984 
L 14.678546 84.03696 
L 17.697819 84.06792 
L 20.717092 84.3156 
L 23.736365 87.02976 
L 26.755638 85.21344 
L 29.774911 84.28464 
L 32.794184 84.32592 
L 35.813457 89.08344 
L 38.83273 89.5272 
L 41.852003 95.14128 
L 44.871276 96.98856 
L 47.890549 95.08968 
L 50.439493 97.71096 
L 52.838871 99.80592 
L 55.856607 101.79768 
L 58.86295 100.03296 
L 61.95124 100.518 
L 64.945597 99.98136 
L 67.982098 100.49736 
L 70.995116 100.78632 
L 74.00352 101.07528 
L 77.021885 101.26104 
L 80.00485 100.63152 
L 82.864807 100.38384 
L 86.077747 100.84824 
L 88.717759 100.65216 
L 92.111505 101.034 
L 95.127109 101.19912 
L 98.128735 101.10624 
L 101.129556 100.97208 
L 104.18332 100.91016 
L 107.211679 101.7564 
L 109.975886 101.84928 
L 113.239357 101.56032 
L 116.245176 100.85856 
L 119.258718 101.12688 
L 122.242417 101.4468 
L 125.330287 101.02368 
L 128.318389 101.30232 
L 131.344686 100.81728 
L 134.347045 100.79664 
L 137.372818 99.3312 
L 140.390658 99.92976 
L 143.386763 100.78632 
L 146.435355 101.17848 
L 149.463678 101.1372 
L 152.463557 100.21872 
L 155.481642 100.37352 
L 158.512796 100.4664 
L 161.526233 99.88848 
L 164.541487 99.94008 
L 167.618525 99.81624 
L 170.646324 98.93904 
L 173.61276 98.3508 
L 176.655062 98.52624 
L 179.675174 99.78528 
L 182.665058 100.12584 
L 185.666648 100.03296 
L 188.731071 100.45608 
L 191.757437 100.83792 
L 194.748754 100.11552 
L 197.9929 99.87816 
L 200.824028 100.002 
L 203.84711 100.64184 
L 206.837518 101.41584 
L 209.897921 101.21976 
L 212.925826 101.14752 
L 215.926054 101.00304 
L 218.971221 100.86888 
L 221.950726 101.21976 
L 224.973459 101.28168 
L 227.966872 101.20944 
L 231.031609 101.14752 
L 234.058675 100.55928 
L 237.058343 100.65216 
L 240.082509 99.80592 
L 243.091263 99.96072 
L 246.138318 99.6408 
L 249.111428 99.1764 
L 252.184866 99.70272 
L 255.21962 99.94008 
L 258.219673 98.57784 
L 261.236639 98.65008 
L 264.268982 98.38176 
L 267.282104 98.48496 
L 270.268075 96.70992 
L 273.32722 98.05152 
L 276.353971 98.48496 
L 279.36 97.96896 
" clip-path="url(#p18249a9987)" style="fill: none; stroke: #f5841e; stroke-width: 0.6"/>
   </g>
  </g>
 </g>
 <defs>
  <clipPath id="p18249a9987">
   <rect x="8.64" y="4.8" width="270.72" height="103.2"/>
  </clipPath>
 </defs>
</svg>
