<?xml version="1.0" encoding="utf-8" standalone="no"?>
<!DOCTYPE svg PUBLIC "-//W3C//DTD SVG 1.1//EN"
  "http://www.w3.org/Graphics/SVG/1.1/DTD/svg11.dtd">
<svg xmlns:xlink="http://www.w3.org/1999/xlink" width="288pt" height="120pt" viewBox="0 0 288 120" xmlns="http://www.w3.org/2000/svg" version="1.1">
<desc id="nav-meta">{"window":"1y","count":4,"labels":["02.06","01.10","30.01","01.06"],"tick_utc":["2025-06-02T12:00:00Z","2025-10-01T12:00:00Z","2026-01-30T12:00:00Z","2026-06-01T05:29:45Z"],"w":720,"h":300}</desc>

 <metadata>
  <rdf:RDF xmlns:dc="http://purl.org/dc/elements/1.1/" xmlns:cc="http://creativecommons.org/ns#" xmlns:rdf="http://www.w3.org/1999/02/22-rdf-syntax-ns#">
   <cc:Work>
    <dc:type rdf:resource="http://purl.org/dc/dcmitype/StillImage"/>
    <dc:date>2026-06-01T18:27:23.047666</dc:date>
    <dc:format>image/svg+xml</dc:format>
    <dc:creator>
     <cc:Agent>
      <dc:title>Matplotlib v3.10.9, https://matplotlib.org/</dc:title>
     </cc:Agent>
    </dc:creator>
   </cc:Work>
  </rdf:RDF>
 </metadata>
 <defs>
  <style type="text/css">*{stroke-linejoin: round; stroke-linecap: butt}</style>
 </defs>
 <g id="figure_1">
  <g id="patch_1">
   <path d="M 0 120 
L 288 120 
L 288 0 
L 0 0 
L 0 120 
z
" style="fill: none; opacity: 0"/>
  </g>
  <g id="axes_1">
   <g id="patch_2">
    <path d="M 8.64 108 
L 279.36 108 
L 279.36 4.8 
L 8.64 4.8 
L 8.64 108 
z
" style="fill: none"/>
   </g>
   <g id="matplotlib.axis_1"/>
   <g id="matplotlib.axis_2"/>
   <g id="line2d_1">
    <path d="M 8.64 87.36 
L 279.36 87.36 
" clip-path="url(#pa8d129494a)" style="fill: none; stroke: #b2b2b2; stroke-opacity: 0.35; stroke-width: 0.5; stroke-linecap: square"/>
   </g>
   <g id="line2d_2">
    <path d="M 8.64 66.72 
L 279.36 66.72 
" clip-path="url(#pa8d129494a)" style="fill: none; stroke: #b2b2b2; stroke-opacity: 0.35; stroke-width: 0.5; stroke-linecap: square"/>
   </g>
   <g id="line2d_3">
    <path d="M 8.64 46.08 
L 279.36 46.08 
" clip-path="url(#pa8d129494a)" style="fill: none; stroke: #b2b2b2; stroke-opacity: 0.35; stroke-width: 0.5; stroke-linecap: square"/>
   </g>
   <g id="line2d_4">
    <path d="M 8.64 25.44 
L 279.36 25.44 
" clip-path="url(#pa8d129494a)" style="fill: none; stroke: #b2b2b2; stroke-opacity: 0.35; stroke-width: 0.5; stroke-linecap: square"/>
   </g>
   <g id="line2d_5">
    <path d="M 8.64 83.4384 
L 9.38429 83.61384 
L 10.128581 83.99568 
L 10.872871 84.55296 
L 11.617162 87.00912 
L 12.361452 85.98744 
L 13.105742 85.5024 
L 13.850033 84.8316 
L 14.594323 82.46832 
L 15.338614 81.426 
L 16.082904 82.5096 
L 16.827194 84.79032 
L 18.315775 86.95752 
L 19.060066 84.79032 
L 19.804356 85.13088 
L 20.548646 86.07 
L 21.292937 86.5344 
L 22.037227 86.31768 
L 23.525808 89.97096 
L 24.270099 90.48696 
L 25.014389 86.9472 
L 25.758679 86.66856 
L 26.50297 87.32904 
L 27.24726 88.53648 
L 27.991551 87.6696 
L 28.735841 85.30632 
L 29.480131 84.61488 
L 30.224422 84.17112 
L 30.968712 86.3796 
L 31.713003 84.92448 
L 32.457293 84.89352 
L 33.201583 86.13192 
L 33.945874 86.1732 
L 34.690164 84.99672 
L 35.434455 85.85328 
L 36.178745 85.01736 
L 36.923035 83.55192 
L 37.667326 81.7356 
L 38.411616 82.03488 
L 39.155907 82.65408 
L 40.644487 82.15872 
L 41.388778 81.70464 
L 42.133068 79.01112 
L 42.877359 78.39192 
L 43.621649 78.04104 
L 44.365939 78.16488 
L 45.11023 77.05032 
L 45.85452 72.82944 
L 46.598811 70.41456 
L 47.343101 74.69736 
L 48.087392 76.6272 
L 48.831682 75.63648 
L 49.575972 75.97704 
L 50.320263 74.976 
L 51.064553 76.49304 
L 51.808844 76.99872 
L 52.553134 77.90688 
L 53.297424 79.4652 
L 54.041715 82.02456 
L 54.786005 83.19072 
L 55.530296 82.27224 
L 56.274586 80.21856 
L 57.018876 81.67368 
L 57.763167 80.5488 
L 58.507457 78.588 
L 59.251748 78.19584 
L 59.996038 77.21544 
L 60.740328 76.524 
L 61.484619 78.68088 
L 62.228909 73.88208 
L 62.9732 71.364 
L 63.71749 73.8408 
L 64.46178 75.79128 
L 65.206071 74.65608 
L 65.950361 74.14008 
L 66.694652 76.50336 
L 67.438942 78.30936 
L 68.183232 75.3372 
L 68.927523 77.25672 
L 69.671813 71.78712 
L 70.416104 70.75512 
L 71.160394 70.24944 
L 71.904685 75.35784 
L 72.648975 72.95328 
L 73.393265 70.96152 
L 74.137556 67.87584 
L 74.881846 70.46616 
L 75.626137 71.11632 
L 76.370427 71.61168 
L 77.114717 72.7056 
L 77.859008 69.33096 
L 78.603298 68.9388 
L 79.347589 71.12664 
L 80.091879 70.90992 
L 80.836169 71.80776 
L 81.58046 70.074 
L 82.32475 68.01 
L 83.069041 67.10184 
L 83.813331 65.29584 
L 84.557621 64.01616 
L 85.301912 60.31128 
L 86.046202 60.19776 
L 86.790493 60.786 
L 87.534783 62.61264 
L 88.279073 61.74576 
L 89.023364 59.57856 
L 89.767654 58.86648 
L 90.511945 61.38456 
L 91.256235 61.07496 
L 92.000525 61.83864 
L 92.744816 66.29688 
L 93.489106 67.97904 
L 94.233397 68.69112 
L 94.977687 73.9956 
L 95.721978 70.45584 
L 96.466268 70.87896 
L 97.210558 68.91816 
L 97.954849 68.3196 
L 98.699139 69.47544 
L 100.18772 62.39592 
L 100.93201 62.81904 
L 101.676301 64.22256 
L 102.420591 64.05744 
L 103.164882 62.9532 
L 103.909172 66.14208 
L 104.653462 63.91296 
L 105.397753 66.17304 
L 106.142043 74.6148 
L 106.886334 77.78304 
L 107.630624 72.66432 
L 108.374914 69.69216 
L 109.119205 71.09568 
L 110.607786 76.06992 
L 111.352076 76.76136 
L 112.096366 75.25464 
L 112.840657 75.24432 
L 113.584947 74.63544 
L 114.329238 75.73968 
L 115.073528 77.31864 
L 115.817818 74.202 
L 116.562109 73.64472 
L 117.306399 73.48992 
L 118.05069 71.83872 
L 118.79498 72.17928 
L 119.539271 73.38672 
L 120.283561 73.43832 
L 121.027851 76.15248 
L 121.772142 75.3372 
L 122.516432 75.58488 
L 123.260723 75.35784 
L 124.005013 81.168 
L 124.749303 84.01632 
L 125.493594 82.06584 
L 126.237884 84.19176 
L 126.982175 82.27224 
L 127.726465 83.29392 
L 128.470755 81.62208 
L 129.215046 80.72424 
L 129.959336 84.33624 
L 130.703627 84.64584 
L 131.447917 86.844 
L 132.192207 88.52616 
L 132.936498 88.36104 
L 133.680788 88.93896 
L 134.425079 90.79656 
L 135.169369 88.09272 
L 135.913659 89.22792 
L 136.65795 90.00192 
L 137.40224 91.39512 
L 138.146531 91.63248 
L 138.890821 90.75528 
L 139.635111 88.7016 
L 140.379402 88.52616 
L 141.123692 87.45288 
L 141.867983 88.0308 
L 142.612273 88.94928 
L 144.100854 89.7336 
L 144.845144 91.86984 
L 145.589435 88.60872 
L 146.333725 86.87496 
L 147.822306 90.11544 
L 149.310887 90.53856 
L 150.055177 90.08448 
L 150.799468 88.79448 
L 151.543758 89.20728 
L 152.288048 89.22792 
L 153.032339 90.31152 
L 153.776629 90.10512 
L 154.52092 91.09584 
L 155.26521 91.61184 
L 156.0095 91.31256 
L 156.753791 92.87088 
L 157.498081 93.8616 
L 158.242372 92.02464 
L 158.986662 92.13816 
L 159.730952 92.07624 
L 160.475243 92.14848 
L 162.708114 93.69648 
L 164.196695 92.44776 
L 164.940985 92.30328 
L 165.685276 92.87088 
L 166.429566 92.38584 
L 167.173857 92.47872 
L 167.918147 91.88016 
L 168.662437 90.42504 
L 169.406728 90.08448 
L 170.151018 89.92968 
L 170.895309 88.76352 
L 171.639599 87.94824 
L 172.383889 89.2692 
L 173.12818 88.72224 
L 173.87247 89.39304 
L 174.616761 89.40336 
L 175.361051 88.41264 
L 176.105341 88.4952 
L 176.849632 86.86464 
L 177.593922 86.42088 
L 178.338213 87.62832 
L 179.082503 86.93688 
L 179.826793 87.23616 
L 181.315374 90.0432 
L 182.059665 92.12784 
L 182.803955 91.16808 
L 184.292536 91.73568 
L 185.036826 91.78728 
L 185.781117 94.0164 
L 186.525407 92.5716 
L 187.269697 91.76664 
L 188.013988 92.33424 
L 188.758278 94.36728 
L 189.502569 94.46016 
L 190.246859 97.71096 
L 190.99115 98.48496 
L 191.73544 97.85544 
L 192.955266 100.16712 
L 193.699178 102.23112 
L 194.440281 100.54896 
L 195.201585 100.70376 
L 195.939733 100.68312 
L 197.431019 101.28168 
L 198.17263 101.71512 
L 198.916697 101.84928 
L 199.652037 101.034 
L 200.357054 100.54896 
L 201.149085 101.04432 
L 201.799883 100.81728 
L 202.636486 101.034 
L 203.379872 101.4984 
L 205.612347 101.06496 
L 206.358877 102.09696 
L 207.04029 102.05568 
L 207.844779 101.4984 
L 208.585753 100.60056 
L 209.32863 100.80696 
L 210.064151 101.45712 
L 210.825352 100.55928 
L 211.561958 101.10624 
L 213.048101 100.74504 
L 213.793994 100.21872 
L 214.537931 100.53864 
L 215.27651 101.07528 
L 216.028028 101.38488 
L 216.774549 101.26104 
L 217.514059 100.78632 
L 219.005276 100.99272 
L 219.748127 100.38384 
L 221.249957 100.60056 
L 221.99635 99.76464 
L 222.727615 99.49632 
L 223.477582 99.40344 
L 224.222079 100.09488 
L 224.959125 100.3632 
L 225.699057 100.19808 
L 227.200516 100.79664 
L 227.937915 100.26 
L 228.737639 99.83688 
L 229.435549 100.13616 
L 230.917954 101.38488 
L 233.909071 101.28168 
L 234.643558 101.8596 
L 235.388701 101.88024 
L 236.126617 101.72544 
L 236.882115 101.68416 
L 237.628326 101.47776 
L 238.367784 101.78736 
L 239.11328 101.09592 
L 239.854978 101.46744 
L 240.606117 101.3436 
L 241.339027 101.05464 
L 242.09667 101.3952 
L 242.844777 101.47776 
L 243.584329 100.86888 
L 244.328051 101.26104 
L 246.554418 100.44576 
L 247.308538 100.94112 
L 248.054672 101.09592 
L 248.795697 101.00304 
L 249.537679 100.69344 
L 250.284984 100.9308 
L 252.522525 100.8792 
L 253.274835 100.64184 
L 254.020685 101.1888 
L 254.762942 101.09592 
L 255.508482 101.37456 
L 256.260904 101.21976 
L 257.7456 101.23008 
L 258.489632 100.92048 
L 259.217529 101.06496 
L 259.974931 100.70376 
L 260.719419 100.55928 
L 261.451322 100.53864 
L 262.198334 99.60984 
L 262.957623 99.72336 
L 264.441741 99.25896 
L 265.189572 99.32088 
L 265.933036 100.22904 
L 266.680996 100.01232 
L 268.171187 100.75536 
L 268.922705 101.02368 
L 269.661663 101.02368 
L 270.408616 101.17848 
L 271.157144 100.7244 
L 271.895732 100.75536 
L 272.629797 101.11656 
L 273.385872 100.91016 
L 274.139957 100.89984 
L 274.872971 101.1372 
L 275.624903 101.2404 
L 276.366815 101.6532 
L 277.111657 101.4984 
L 277.845214 101.48808 
L 278.6047 101.32296 
L 279.36 101.51904 
L 279.36 101.51904 
" clip-path="url(#pa8d129494a)" style="fill: none; stroke: #bebebe; stroke-width: 0.5; stroke-linecap: round"/>
   </g>
   <g id="line2d_6">
    <path d="M 8.64 81.92136 
L 9.38429 80.8584 
L 10.128581 81.07512 
L 10.872871 80.84808 
L 11.617162 83.6448 
L 12.361452 82.7676 
L 13.105742 82.0968 
L 13.850033 82.3548 
L 14.594323 79.74384 
L 15.338614 77.90688 
L 16.082904 78.39192 
L 16.827194 80.21856 
L 17.571485 81.34344 
L 18.315775 81.98328 
L 19.804356 81.5808 
L 20.548646 82.26192 
L 22.037227 82.15872 
L 22.781518 83.88216 
L 23.525808 85.89456 
L 24.270099 86.5344 
L 25.014389 83.61384 
L 25.758679 83.2836 
L 26.50297 83.71704 
L 27.24726 83.748 
L 28.735841 83.41776 
L 29.480131 82.44768 
L 30.224422 82.6644 
L 30.968712 83.89248 
L 31.713003 81.38472 
L 32.457293 81.14736 
L 33.201583 82.34448 
L 33.945874 82.23096 
L 34.690164 81.426 
L 35.434455 81.8388 
L 36.178745 80.76552 
L 37.667326 75.83256 
L 38.411616 75.67776 
L 39.155907 75.91512 
L 40.644487 74.88312 
L 41.388778 73.09776 
L 42.133068 69.6096 
L 42.877359 67.91712 
L 43.621649 66.94704 
L 44.365939 66.24528 
L 45.11023 63.80976 
L 45.85452 63.70656 
L 46.598811 63.9852 
L 47.343101 65.71896 
L 48.087392 64.5528 
L 49.575972 64.05744 
L 50.320263 62.25144 
L 51.064553 63.39696 
L 51.808844 63.366 
L 52.553134 63.08736 
L 53.297424 64.72824 
L 54.041715 67.89648 
L 54.786005 69.16584 
L 55.530296 67.69008 
L 56.274586 64.4496 
L 57.018876 65.97696 
L 57.763167 64.914 
L 58.507457 61.54968 
L 59.251748 60.04296 
L 59.996038 56.28648 
L 60.740328 56.47224 
L 61.484619 56.83344 
L 62.228909 51.22968 
L 62.9732 48.89736 
L 63.71749 52.00368 
L 64.46178 53.84064 
L 65.206071 53.90256 
L 65.950361 53.00472 
L 66.694652 55.5228 
L 67.438942 59.12448 
L 68.183232 55.32672 
L 68.927523 56.90568 
L 69.671813 47.92728 
L 70.416104 48.75288 
L 71.160394 48.68064 
L 71.904685 54.57336 
L 72.648975 51.2916 
L 73.393265 52.80864 
L 74.137556 52.69512 
L 74.881846 54.82104 
L 76.370427 54.45984 
L 77.114717 55.7292 
L 77.859008 55.39896 
L 78.603298 53.55168 
L 79.347589 55.81176 
L 80.091879 55.6776 
L 80.836169 56.18328 
L 81.58046 55.71888 
L 83.069041 55.63632 
L 83.813331 55.07904 
L 84.557621 53.41752 
L 85.301912 49.71264 
L 86.046202 50.32152 
L 86.790493 51.17808 
L 87.534783 52.44744 
L 88.279073 52.74672 
L 89.023364 51.4464 
L 89.767654 51.46704 
L 90.511945 53.2524 
L 91.256235 53.08728 
L 92.000525 53.5104 
L 92.744816 57.26688 
L 93.489106 57.76224 
L 94.233397 58.02024 
L 94.977687 62.26176 
L 95.721978 59.68176 
L 96.466268 59.9604 
L 97.210558 58.12344 
L 97.954849 57.02952 
L 98.699139 58.09248 
L 99.44343 55.13064 
L 100.18772 53.046 
L 100.93201 52.5816 
L 101.676301 52.9944 
L 102.420591 52.5816 
L 103.164882 50.0016 
L 103.909172 53.48976 
L 104.653462 52.40616 
L 105.397753 54.75912 
L 106.142043 62.67456 
L 106.886334 63.95424 
L 107.630624 57.86544 
L 108.374914 56.57544 
L 109.119205 58.31952 
L 109.863495 60.4764 
L 110.607786 61.85928 
L 111.352076 62.73648 
L 112.096366 61.8696 
L 112.840657 60.45576 
L 113.584947 60.54864 
L 114.329238 62.04504 
L 115.073528 63.16992 
L 115.817818 62.36496 
L 116.562109 61.21944 
L 117.306399 60.9408 
L 118.05069 57.83448 
L 118.79498 58.40208 
L 119.539271 60.49704 
L 121.027851 63.1596 
L 121.772142 62.49912 
L 122.516432 62.1276 
L 123.260723 61.56 
L 124.749303 70.66224 
L 125.493594 68.72208 
L 126.237884 70.4868 
L 126.982175 68.61888 
L 127.726465 69.11424 
L 128.470755 66.5136 
L 129.215046 66.68904 
L 129.959336 68.8872 
L 130.703627 68.9904 
L 131.447917 71.5704 
L 132.192207 73.48992 
L 132.936498 72.54048 
L 134.425079 74.74896 
L 135.169369 73.3248 
L 135.913659 74.80056 
L 136.65795 77.556 
L 137.40224 78.55704 
L 138.146531 78.50544 
L 138.890821 78.04104 
L 139.635111 75.76032 
L 140.379402 75.73968 
L 141.123692 74.65608 
L 141.867983 74.83152 
L 142.612273 74.57352 
L 143.356564 75.20304 
L 144.100854 75.17208 
L 144.845144 78.05136 
L 146.333725 72.16896 
L 147.078016 73.08744 
L 147.822306 74.72832 
L 149.310887 74.28456 
L 150.055177 73.21128 
L 150.799468 70.2804 
L 151.543758 70.2288 
L 152.288048 71.56008 
L 153.032339 73.79952 
L 153.776629 73.35576 
L 154.52092 74.0988 
L 155.26521 75.5952 
L 156.0095 75.5952 
L 156.753791 77.61792 
L 157.498081 77.63856 
L 158.242372 75.40944 
L 158.986662 75.40944 
L 159.730952 75.04824 
L 160.475243 74.98632 
L 161.219533 75.58488 
L 161.963824 75.87384 
L 162.708114 76.49304 
L 164.196695 75.82224 
L 164.940985 75.84288 
L 165.685276 76.03896 
L 166.429566 75.51264 
L 167.173857 75.56424 
L 167.918147 75.05856 
L 168.662437 73.26288 
L 169.406728 73.20096 
L 170.151018 73.00488 
L 170.895309 71.68392 
L 171.639599 70.6932 
L 172.383889 72.62304 
L 173.12818 73.52088 
L 173.87247 73.83048 
L 174.616761 73.8408 
L 175.361051 73.29384 
L 176.105341 73.72728 
L 176.849632 70.32168 
L 177.593922 69.77472 
L 178.338213 70.34232 
L 179.082503 70.67256 
L 179.826793 70.51776 
L 180.571084 70.848 
L 181.315374 72.31344 
L 182.059665 76.01832 
L 182.803955 75.41976 
L 183.548245 75.83256 
L 185.036826 75.82224 
L 185.781117 77.82432 
L 186.525407 76.14216 
L 187.269697 74.75928 
L 188.013988 74.96568 
L 188.758278 77.75208 
L 189.502569 79.48584 
L 190.246859 83.31456 
L 190.99115 85.90488 
L 191.73544 84.79032 
L 192.363788 85.84296 
L 193.699178 91.41576 
L 194.440281 88.7532 
L 195.939733 88.55712 
L 196.68827 88.96992 
L 198.17263 90.456 
L 198.916697 90.56952 
L 199.652037 89.15568 
L 200.357054 88.9596 
L 201.149085 90.6624 
L 201.799883 89.94 
L 202.636486 90.00192 
L 204.119812 90.62112 
L 205.612347 90.3528 
L 206.358877 92.004 
L 207.04029 92.13816 
L 207.844779 91.25064 
L 208.585753 89.166 
L 209.32863 89.56848 
L 210.064151 90.93072 
L 210.825352 89.41368 
L 211.561958 90.37344 
L 212.30798 89.79552 
L 213.048101 90.23928 
L 213.793994 88.0824 
L 214.537931 88.7532 
L 215.27651 90.16704 
L 216.028028 90.67272 
L 216.774549 90.18768 
L 217.514059 89.2692 
L 218.258056 89.54784 
L 219.005276 89.49624 
L 219.748127 88.31976 
L 220.491427 88.45392 
L 221.249957 88.46424 
L 221.99635 86.38992 
L 222.727615 84.80064 
L 223.477582 84.8316 
L 224.222079 86.586 
L 224.959125 87.74184 
L 225.699057 87.618 
L 226.454477 88.19592 
L 227.200516 89.08344 
L 227.937915 87.89664 
L 228.737639 87.3084 
L 229.435549 87.65928 
L 230.917954 90.07416 
L 232.418801 89.3724 
L 233.158397 89.00088 
L 233.909071 88.42296 
L 235.388701 89.10408 
L 236.126617 89.14536 
L 236.882115 89.07312 
L 237.628326 87.9792 
L 238.367784 88.29912 
L 239.11328 86.38992 
L 239.854978 87.24648 
L 240.606117 87.1536 
L 241.339027 86.21448 
L 242.844777 87.01944 
L 243.584329 84.44976 
L 244.328051 85.05864 
L 245.075563 84.58392 
L 245.818337 85.04832 
L 246.554418 83.71704 
L 247.308538 84.86256 
L 248.054672 85.6572 
L 248.795697 85.27536 
L 249.537679 84.49104 
L 251.031248 85.32696 
L 251.766656 85.17216 
L 252.522525 85.31664 
L 253.274835 84.11952 
L 254.020685 85.66752 
L 254.762942 85.26504 
L 255.508482 86.26608 
L 256.9862 85.38888 
L 257.7456 85.3992 
L 258.489632 84.09888 
L 259.974931 84.34656 
L 261.451322 85.7604 
L 262.198334 85.0896 
L 263.707788 84.9348 
L 264.441741 85.296 
L 265.189572 85.35792 
L 265.933036 86.1732 
L 266.680996 85.92552 
L 268.171187 87.13296 
L 268.922705 88.10304 
L 269.661663 87.9276 
L 270.408616 88.26816 
L 271.157144 87.78312 
L 271.895732 87.95856 
L 272.629797 88.94928 
L 273.385872 88.14432 
L 274.872971 88.52616 
L 275.624903 88.86672 
L 276.366815 90.22896 
L 277.111657 89.82648 
L 277.845214 89.87808 
L 278.6047 89.46528 
L 279.36 90.0432 
L 279.36 90.0432 
" clip-path="url(#pa8d129494a)" style="fill: none; stroke: #4a8dff; stroke-width: 0.6"/>
   </g>
   <g id="line2d_7">
    <path d="M 8.64 67.1844 
L 9.38429 66.99864 
L 10.128581 67.47336 
L 10.872871 68.1132 
L 11.617162 71.38464 
L 12.361452 68.526 
L 13.105742 67.21536 
L 13.850033 67.20504 
L 14.594323 62.46816 
L 15.338614 62.51976 
L 16.082904 64.10904 
L 16.827194 66.90576 
L 17.571485 66.83352 
L 18.315775 67.42176 
L 19.060066 67.3392 
L 19.804356 65.8944 
L 20.548646 68.24736 
L 22.037227 68.23704 
L 22.781518 69.69216 
L 23.525808 71.50848 
L 24.270099 72.21024 
L 25.014389 67.3908 
L 25.758679 66.90576 
L 26.50297 65.59512 
L 27.24726 65.86344 
L 27.991551 65.76024 
L 28.735841 65.50224 
L 29.480131 64.398 
L 30.224422 65.70864 
L 30.968712 67.2876 
L 31.713003 63.95424 
L 32.457293 63.14928 
L 33.201583 64.76952 
L 33.945874 64.58376 
L 34.690164 63.55176 
L 35.434455 64.5012 
L 36.178745 63.82008 
L 36.923035 61.36392 
L 37.667326 56.64768 
L 38.411616 54.89328 
L 39.155907 55.04808 
L 39.900197 53.29368 
L 40.644487 52.55064 
L 41.388778 54.77976 
L 42.133068 53.67552 
L 42.877359 52.95312 
L 43.621649 54.45984 
L 44.365939 54.55272 
L 45.11023 55.22352 
L 45.85452 54.98616 
L 46.598811 52.4268 
L 47.343101 53.79936 
L 48.087392 54.08832 
L 48.831682 54.92424 
L 49.575972 54.4908 
L 50.320263 52.98408 
L 51.064553 54.44952 
L 51.808844 54.60432 
L 52.553134 54.62496 
L 54.041715 59.38248 
L 54.786005 60.09456 
L 55.530296 58.39176 
L 56.274586 57.41136 
L 57.018876 58.464 
L 57.763167 57.5352 
L 58.507457 55.0068 
L 59.251748 55.81176 
L 59.996038 55.99752 
L 60.740328 53.13888 
L 61.484619 53.64456 
L 62.228909 52.1688 
L 62.9732 48.69096 
L 63.71749 54.0264 
L 64.46178 55.13064 
L 65.206071 54.96552 
L 65.950361 54.92424 
L 66.694652 56.25552 
L 67.438942 59.8572 
L 68.183232 58.32984 
L 68.927523 60.23904 
L 69.671813 55.65696 
L 70.416104 57.18432 
L 71.160394 59.21736 
L 71.904685 62.55072 
L 72.648975 60.82728 
L 73.393265 61.47744 
L 74.137556 60.12552 
L 74.881846 64.31544 
L 75.626137 63.99552 
L 76.370427 64.5528 
L 77.114717 63.60336 
L 77.859008 61.5084 
L 78.603298 60.96144 
L 79.347589 61.98312 
L 80.091879 62.05536 
L 80.836169 62.51976 
L 82.32475 60.64152 
L 83.069041 61.13688 
L 83.813331 58.6188 
L 84.557621 57.03984 
L 85.301912 56.35872 
L 86.046202 56.5548 
L 86.790493 57.174 
L 87.534783 57.14304 
L 88.279073 55.7292 
L 89.023364 56.04912 
L 89.767654 55.33704 
L 90.511945 56.87472 
L 91.256235 56.8128 
L 92.000525 57.24624 
L 92.744816 59.93976 
L 93.489106 60.64152 
L 94.233397 59.29992 
L 94.977687 63.80976 
L 95.721978 63.03576 
L 96.466268 63.09768 
L 97.954849 58.27824 
L 98.699139 58.5672 
L 99.44343 53.93352 
L 100.18772 51.74568 
L 100.93201 50.04288 
L 101.676301 49.90872 
L 103.164882 47.43192 
L 103.909172 50.80656 
L 104.653462 48.90768 
L 105.397753 50.6208 
L 106.142043 59.42376 
L 106.886334 61.85928 
L 107.630624 57.35976 
L 108.374914 57.3288 
L 109.119205 59.46504 
L 110.607786 64.72824 
L 111.352076 66.42072 
L 112.096366 65.688 
L 112.840657 64.17096 
L 113.584947 62.10696 
L 114.329238 64.30512 
L 115.073528 65.20296 
L 115.817818 62.68488 
L 116.562109 61.70448 
L 117.306399 61.06464 
L 118.05069 58.1028 
L 118.79498 58.40208 
L 119.539271 59.68176 
L 120.283561 62.6952 
L 121.027851 64.56312 
L 121.772142 63.18024 
L 122.516432 62.72616 
L 123.260723 62.06568 
L 124.005013 66.33816 
L 124.749303 71.40528 
L 125.493594 69.08328 
L 126.237884 71.7252 
L 126.982175 69.57864 
L 127.726465 70.72416 
L 128.470755 68.2164 
L 129.215046 66.978 
L 129.959336 70.03272 
L 130.703627 71.5188 
L 131.447917 73.3764 
L 132.192207 78.846 
L 132.936498 77.75208 
L 133.680788 78.88728 
L 134.425079 81.34344 
L 135.169369 80.53848 
L 135.913659 82.0452 
L 136.65795 86.92656 
L 137.40224 88.58808 
L 138.146531 88.96992 
L 138.890821 86.7924 
L 139.635111 85.296 
L 140.379402 86.24544 
L 141.123692 82.96368 
L 141.867983 82.13808 
L 142.612273 82.47864 
L 143.356564 82.58184 
L 144.100854 83.03592 
L 144.845144 87.3084 
L 145.589435 82.06584 
L 146.333725 79.71288 
L 147.078016 81.24024 
L 147.822306 84.17112 
L 148.566596 84.24336 
L 149.310887 83.29392 
L 150.055177 82.8192 
L 150.799468 80.64168 
L 151.543758 81.38472 
L 152.288048 80.87904 
L 153.032339 83.13912 
L 153.776629 83.19072 
L 155.26521 87.17424 
L 156.0095 85.71912 
L 156.753791 87.53544 
L 157.498081 88.17528 
L 158.242372 85.41984 
L 159.730952 84.9348 
L 160.475243 85.01736 
L 161.219533 86.14224 
L 161.963824 85.90488 
L 162.708114 86.328 
L 163.452404 86.24544 
L 164.196695 85.72944 
L 164.940985 85.7088 
L 165.685276 86.40024 
L 166.429566 85.09992 
L 167.173857 86.02872 
L 168.662437 83.53128 
L 170.151018 82.03488 
L 170.895309 79.39296 
L 171.639599 79.66128 
L 172.383889 82.15872 
L 173.12818 82.43736 
L 173.87247 82.93272 
L 174.616761 83.00496 
L 176.105341 82.28256 
L 176.849632 78.01008 
L 177.593922 76.19376 
L 178.338213 77.66952 
L 179.082503 77.74176 
L 179.826793 78.1752 
L 181.315374 80.8068 
L 182.059665 85.20312 
L 182.803955 84.12984 
L 183.548245 84.03696 
L 184.292536 84.06792 
L 185.036826 84.3156 
L 185.781117 87.02976 
L 186.525407 85.21344 
L 187.269697 84.28464 
L 188.013988 84.32592 
L 188.758278 89.08344 
L 189.502569 89.5272 
L 190.246859 95.14128 
L 190.99115 96.98856 
L 191.73544 95.08968 
L 192.955266 99.80592 
L 193.699178 101.79768 
L 194.440281 100.03296 
L 195.201585 100.518 
L 195.939733 99.98136 
L 196.68827 100.49736 
L 198.916697 101.26104 
L 199.652037 100.63152 
L 200.357054 100.38384 
L 201.149085 100.84824 
L 201.799883 100.65216 
L 202.636486 101.034 
L 203.379872 101.19912 
L 205.612347 100.91016 
L 206.358877 101.7564 
L 207.04029 101.84928 
L 207.844779 101.56032 
L 208.585753 100.85856 
L 210.064151 101.4468 
L 210.825352 101.02368 
L 211.561958 101.30232 
L 212.30798 100.81728 
L 213.048101 100.79664 
L 213.793994 99.3312 
L 214.537931 99.92976 
L 215.27651 100.78632 
L 216.028028 101.17848 
L 216.774549 101.1372 
L 217.514059 100.21872 
L 219.005276 100.4664 
L 219.748127 99.88848 
L 220.491427 99.94008 
L 221.249957 99.81624 
L 221.99635 98.93904 
L 222.727615 98.3508 
L 223.477582 98.52624 
L 224.222079 99.78528 
L 224.959125 100.12584 
L 225.699057 100.03296 
L 227.200516 100.83792 
L 227.937915 100.11552 
L 228.737639 99.87816 
L 229.435549 100.002 
L 230.917954 101.41584 
L 231.672383 101.21976 
L 233.158397 101.00304 
L 233.909071 100.86888 
L 234.643558 101.21976 
L 235.388701 101.28168 
L 236.882115 101.14752 
L 237.628326 100.55928 
L 238.367784 100.65216 
L 239.11328 99.80592 
L 239.854978 99.96072 
L 240.606117 99.6408 
L 241.339027 99.1764 
L 242.09667 99.70272 
L 242.844777 99.94008 
L 243.584329 98.57784 
L 244.328051 98.65008 
L 245.075563 98.38176 
L 245.818337 98.48496 
L 246.554418 96.70992 
L 247.308538 98.05152 
L 248.054672 98.48496 
L 248.795697 97.96896 
L 249.537679 96.32808 
L 251.031248 96.16296 
L 251.766656 96.1836 
L 252.522525 96.50352 
L 253.274835 94.76976 
L 254.020685 97.19496 
L 254.762942 96.9576 
L 255.508482 97.9896 
L 256.260904 96.89568 
L 256.9862 95.45088 
L 257.7456 95.67792 
L 258.489632 93.43848 
L 259.974931 92.25168 
L 260.719419 92.87088 
L 261.451322 94.2744 
L 262.198334 93.1392 
L 262.957623 92.97408 
L 263.707788 92.9844 
L 264.441741 92.60256 
L 265.189572 92.53032 
L 265.933036 94.54272 
L 266.680996 92.85024 
L 267.415784 94.82136 
L 268.171187 95.75016 
L 268.922705 96.97824 
L 270.408616 97.23624 
L 271.157144 95.94624 
L 271.895732 96.30744 
L 272.629797 98.08248 
L 274.139957 96.61704 
L 274.872971 97.23624 
L 275.624903 98.08248 
L 276.366815 99.18672 
L 277.111657 99.03192 
L 277.845214 99.1248 
L 278.6047 98.74296 
L 279.36 99.09384 
L 279.36 99.09384 
" clip-path="url(#pa8d129494a)" style="fill: none; stroke: #f5841e; stroke-width: 0.6"/>
   </g>
  </g>
 </g>
 <defs>
  <clipPath id="pa8d129494a">
   <rect x="8.64" y="4.8" width="270.72" height="103.2"/>
  </clipPath>
 </defs>
</svg>
