<svg width="172" height="147" viewBox="0 0 172 147" fill="none" xmlns="http://www.w3.org/2000/svg">
<path d="M172 49H92V99H172V49Z" fill="white"/>
<path d="M132 0H34V50H132V0Z" fill="white"/>
<path d="M64.5725 18.88L63.7725 19.08C65.0525 17.7733 66.4125 16.8 67.8525 16.16C69.2925 15.4933 70.6658 15.16 71.9725 15.16C73.6525 15.16 75.0525 15.72 76.1725 16.84C77.3192 17.9333 77.8925 19.6267 77.8925 21.92V33.96L77.3725 33.16L80.5725 34.12V37H70.0525V34.12L72.9725 33.24L72.2925 34.08V23.16C72.2925 21.88 72.0258 20.9333 71.4925 20.32C70.9858 19.7067 70.3192 19.4 69.4925 19.4C68.7992 19.4 68.0258 19.6133 67.1725 20.04C66.3192 20.4667 65.4658 21.0933 64.6125 21.92L65.0125 20.68C65.0658 20.8933 65.0925 21.0933 65.0925 21.28C65.0925 21.44 65.0925 21.5867 65.0925 21.72V33.96L64.5725 33.16L67.3725 34.12V37H57.2125V34.12L60.1325 33.24L59.4925 34.08V23.16C59.4925 21.88 59.2258 20.9333 58.6925 20.32C58.1592 19.7067 57.4925 19.4 56.6925 19.4C55.9992 19.4 55.2258 19.6 54.3725 20C53.5192 20.4 52.6925 21 51.8925 21.8L52.2525 20.96V34.08L51.7325 33.24L54.5325 34.12V37H43.9725V34.12L47.3325 33.16L46.6525 33.96V18.72L47.3325 19.64L43.9725 18.64V15.76L51.0125 15.44L51.7325 19.28L51.0125 19C52.2658 17.7467 53.5992 16.8 55.0125 16.16C56.4525 15.4933 57.8258 15.16 59.1325 15.16C60.3592 15.16 61.4525 15.4667 62.4125 16.08C63.3725 16.6667 64.0925 17.6 64.5725 18.88ZM100.257 34.16L99.4966 33.04L102.937 34.12V36.96L95.9366 37.32L95.1766 33.48L95.5766 33.6C94.5099 34.9067 93.3499 35.88 92.0966 36.52C90.8432 37.16 89.5499 37.48 88.2166 37.48C86.5099 37.48 85.0966 36.9333 83.9766 35.84C82.8566 34.7467 82.2966 33.1733 82.2966 31.12C82.2966 29.6 82.6166 28.4 83.2566 27.52C83.9232 26.6133 84.8832 25.96 86.1366 25.56C87.3899 25.16 88.9099 24.96 90.6966 24.96H95.0566L94.6566 25.4V22.76C94.6566 21.5067 94.3499 20.6133 93.7366 20.08C93.1499 19.5467 92.2832 19.28 91.1366 19.28C90.5766 19.28 89.9766 19.3333 89.3366 19.44C88.6966 19.5467 88.0032 19.7067 87.2566 19.92L87.8166 19.32L87.2966 22.56H83.8166L83.4966 16.72C85.3099 16.1867 86.9632 15.8 88.4566 15.56C89.9766 15.2933 91.3632 15.16 92.6166 15.16C95.0966 15.16 96.9899 15.6933 98.2966 16.76C99.6032 17.8267 100.257 19.48 100.257 21.72V34.16ZM87.9366 30.56C87.9366 31.5467 88.1632 32.28 88.6166 32.76C89.0966 33.2133 89.6966 33.44 90.4166 33.44C91.0832 33.44 91.8166 33.24 92.6166 32.84C93.4166 32.4133 94.1766 31.84 94.8966 31.12L94.6566 32.08V27.52L95.0566 27.92H91.6166C90.2299 27.92 89.2699 28.1333 88.7366 28.56C88.2032 28.9867 87.9366 29.6533 87.9366 30.56ZM104.558 37V34.12L107.798 33.2L107.238 34.04V18.68L107.878 19.64L104.558 18.64V15.76L111.598 15.44L112.318 19.24L111.598 19.08C112.798 17.8267 113.985 16.8667 115.158 16.2C116.332 15.5067 117.585 15.16 118.918 15.16C119.772 15.16 120.678 15.2933 121.638 15.56L121.278 22.84H117.998L117.438 18.64L117.958 19.72C117.798 19.6667 117.625 19.6267 117.438 19.6C117.278 19.5733 117.118 19.56 116.958 19.56C116.132 19.56 115.305 19.8133 114.478 20.32C113.678 20.8267 112.985 21.48 112.398 22.28L112.838 20.76V34.04L112.198 33.2L116.158 34.12V37H104.558ZM102.32 85V82.12L105.64 81.16L104.96 82.2V57.32L105.4 57.96L102.32 57.08V54.2L110.56 53.88V72.28L109.64 71.44H114.76L113.4 72.08L117 66.6L117.4 67.2L114.6 66.64V63.8L124.36 63.48V66.32L121 67.08L122.52 66.24L117.6 73.52L117.68 72.08L122.96 82.04L122.12 81.32L125.16 82.16V85H118.68L113.6 74.8L114.4 75.16H109.64L110.56 74.8V82.2L110 81.12L113.12 82.12V85H102.32ZM135.219 85.48C133.272 85.48 131.565 85.08 130.099 84.28C128.632 83.4533 127.485 82.24 126.659 80.64C125.859 79.0133 125.459 77.04 125.459 74.72C125.459 72.32 125.885 70.2667 126.739 68.56C127.619 66.8267 128.845 65.4933 130.419 64.56C131.992 63.6267 133.845 63.16 135.979 63.16C138.059 63.16 139.752 63.5733 141.059 64.4C142.365 65.2267 143.325 66.36 143.939 67.8C144.552 69.2133 144.859 70.8133 144.859 72.6C144.859 73.0533 144.832 73.5067 144.779 73.96C144.752 74.4133 144.699 74.8933 144.619 75.4H129.979V72.08H139.819L139.099 72.6C139.125 71.5333 139.019 70.6 138.779 69.8C138.565 68.9733 138.192 68.3333 137.659 67.88C137.152 67.4267 136.445 67.2 135.539 67.2C134.499 67.2 133.659 67.5067 133.019 68.12C132.379 68.7067 131.912 69.5067 131.619 70.52C131.352 71.5333 131.219 72.6667 131.219 73.92C131.219 75.3333 131.392 76.6 131.739 77.72C132.085 78.84 132.645 79.72 133.419 80.36C134.219 81 135.259 81.32 136.539 81.32C137.445 81.32 138.419 81.16 139.459 80.84C140.525 80.4933 141.632 79.9867 142.779 79.32L144.659 82.32C143.112 83.3867 141.525 84.1867 139.899 84.72C138.299 85.2267 136.739 85.48 135.219 85.48ZM155.132 85.48C153.292 85.48 151.892 84.9333 150.932 83.84C149.999 82.72 149.532 81.0667 149.532 78.88V66.64L150.252 67.36H146.412V64.36L150.332 63.44L149.532 64.4V58.96L155.172 57.96V64.4L154.572 63.64H160.652L160.572 67.36H154.572L155.172 66.64V78.12C155.172 79.2667 155.359 80.0933 155.732 80.6C156.105 81.1067 156.665 81.36 157.412 81.36C157.839 81.36 158.305 81.2933 158.812 81.16C159.345 81 159.919 80.8 160.532 80.56L161.572 83.64C159.332 84.8667 157.185 85.48 155.132 85.48Z" fill="#2D2D2D"/>
<path d="M11.9269 81.72L11.5269 81.24L14.6069 82.12V85H3.68688V82.12L6.76688 81.24L6.32688 81.72V57.52L6.68688 57.92L3.68688 57.08V54.2L11.9269 53.88V81.72ZM34.28 82.16L33.52 81.04L36.96 82.12V84.96L29.96 85.32L29.2 81.48L29.6 81.6C28.5333 82.9067 27.3733 83.88 26.12 84.52C24.8667 85.16 23.5733 85.48 22.24 85.48C20.5333 85.48 19.12 84.9333 18 83.84C16.88 82.7467 16.32 81.1733 16.32 79.12C16.32 77.6 16.64 76.4 17.28 75.52C17.9467 74.6133 18.9067 73.96 20.16 73.56C21.4133 73.16 22.9333 72.96 24.72 72.96H29.08L28.68 73.4V70.76C28.68 69.5067 28.3733 68.6133 27.76 68.08C27.1733 67.5467 26.3067 67.28 25.16 67.28C24.6 67.28 24 67.3333 23.36 67.44C22.72 67.5467 22.0267 67.7067 21.28 67.92L21.84 67.32L21.32 70.56H17.84L17.52 64.72C19.3333 64.1867 20.9867 63.8 22.48 63.56C24 63.2933 25.3867 63.16 26.64 63.16C29.12 63.16 31.0133 63.6933 32.32 64.76C33.6267 65.8267 34.28 67.48 34.28 69.72V82.16ZM21.96 78.56C21.96 79.5467 22.1867 80.28 22.64 80.76C23.12 81.2133 23.72 81.44 24.44 81.44C25.1067 81.44 25.84 81.24 26.64 80.84C27.44 80.4133 28.2 79.84 28.92 79.12L28.68 80.08V75.52L29.08 75.92H25.64C24.2533 75.92 23.2933 76.1333 22.76 76.56C22.2267 76.9867 21.96 77.6533 21.96 78.56ZM38.5819 85V82.12L41.9419 81.16L41.2619 81.96V66.72L41.9419 67.64L38.5819 66.64V63.76L45.6219 63.44L46.3419 67.28L45.6219 67C46.9019 65.6933 48.2619 64.7333 49.7019 64.12C51.1419 63.48 52.5152 63.16 53.8219 63.16C55.6352 63.16 57.1419 63.7333 58.3419 64.88C59.5419 66 60.1285 67.7067 60.1019 70V81.96L59.5819 81.16L62.7819 82.12V85H52.1019V82.12L55.1419 81.24L54.5019 82.08V71.2C54.5019 69.8933 54.2085 68.9333 53.6219 68.32C53.0619 67.7067 52.3152 67.4 51.3819 67.4C50.6619 67.4 49.8752 67.6 49.0219 68C48.1685 68.4 47.3285 69 46.5019 69.8L46.8619 68.96V82.08L46.3419 81.24L49.2619 82.12V85H38.5819ZM72.3641 85.48C70.8174 85.48 69.4441 85.08 68.2441 84.28C67.0707 83.4533 66.1374 82.24 65.4441 80.64C64.7774 79.04 64.4441 77.0933 64.4441 74.8C64.4441 70.8533 65.4441 67.9333 67.4441 66.04C69.4441 64.12 72.2574 63.16 75.8841 63.16C76.4707 63.16 77.0574 63.1867 77.6441 63.24C78.2307 63.2933 78.8441 63.3867 79.4841 63.52L78.4441 64.16V57.56L78.8441 58.12L75.5641 57.04V54.2L84.0441 53.88V81.88L83.3641 81.08L86.7241 82.12V84.96L79.6841 85.28L78.9641 81.84L79.5241 82.04C78.3507 83.1867 77.1774 84.0533 76.0041 84.64C74.8574 85.2 73.6441 85.48 72.3641 85.48ZM74.5241 81.36C75.2174 81.36 75.9507 81.1733 76.7241 80.8C77.4974 80.4 78.2974 79.8267 79.1241 79.08L78.4441 80.76V66.4L79.1241 67.68C77.8707 67.3333 76.7374 67.16 75.7241 67.16C73.8307 67.16 72.4441 67.8 71.5641 69.08C70.7107 70.3333 70.2841 72.0667 70.2841 74.28C70.2841 75.72 70.4574 76.9733 70.8041 78.04C71.1507 79.1067 71.6307 79.9333 72.2441 80.52C72.8841 81.08 73.6441 81.36 74.5241 81.36ZM35.6208 117.04C35.6208 117.653 35.8874 118.147 36.4208 118.52C36.9541 118.893 37.6341 119.213 38.4608 119.48C39.3141 119.747 40.2074 120.027 41.1408 120.32C42.1008 120.613 42.9941 121 43.8208 121.48C44.6741 121.933 45.3674 122.547 45.9008 123.32C46.4341 124.093 46.7008 125.093 46.7008 126.32C46.7008 127.893 46.2741 129.213 45.4208 130.28C44.5674 131.347 43.4074 132.147 41.9408 132.68C40.4741 133.213 38.8208 133.48 36.9808 133.48C35.9141 133.48 34.7808 133.387 33.5808 133.2C32.4074 133.013 31.1941 132.76 29.9408 132.44L30.1808 126.4H33.7008L34.1408 129.92L33.6608 129.24C34.1941 129.4 34.7808 129.533 35.4208 129.64C36.0608 129.72 36.6208 129.76 37.1008 129.76C37.7941 129.76 38.4341 129.667 39.0208 129.48C39.6341 129.293 40.1274 129.027 40.5008 128.68C40.9008 128.307 41.1008 127.84 41.1008 127.28C41.1008 126.64 40.8341 126.133 40.3008 125.76C39.7674 125.387 39.0741 125.067 38.2208 124.8C37.3941 124.533 36.5141 124.253 35.5808 123.96C34.6741 123.667 33.7941 123.28 32.9408 122.8C32.1141 122.32 31.4341 121.68 30.9008 120.88C30.3674 120.08 30.1008 119.04 30.1008 117.76C30.1008 116.213 30.4874 114.96 31.2608 114C32.0341 113.013 33.0608 112.293 34.3408 111.84C35.6474 111.387 37.0741 111.16 38.6208 111.16C39.7141 111.16 40.8741 111.267 42.1008 111.48C43.3274 111.667 44.5808 111.947 45.8608 112.32L45.6608 117.68H42.1008L41.4608 114.52L42.2208 115.36C40.9674 115.013 39.8608 114.84 38.9008 114.84C37.9141 114.84 37.1141 115.04 36.5008 115.44C35.9141 115.813 35.6208 116.347 35.6208 117.04ZM58.9473 133.48C57.1073 133.48 55.4407 133.053 53.9473 132.2C52.4807 131.32 51.3207 130.067 50.4673 128.44C49.614 126.813 49.1873 124.84 49.1873 122.52C49.1873 120.413 49.494 118.64 50.1073 117.2C50.7207 115.76 51.5473 114.6 52.5873 113.72C53.6273 112.813 54.7873 112.16 56.0673 111.76C57.3473 111.36 58.6673 111.16 60.0273 111.16C61.3073 111.16 62.6007 111.32 63.9073 111.64C65.214 111.96 66.2807 112.32 67.1073 112.72L66.9473 118.6H63.3473L62.7473 115.32L63.1873 115.64C62.7873 115.48 62.294 115.36 61.7073 115.28C61.1473 115.2 60.6273 115.16 60.1473 115.16C59.0007 115.16 58.0407 115.453 57.2673 116.04C56.5207 116.6 55.9607 117.413 55.5873 118.48C55.214 119.52 55.0273 120.76 55.0273 122.2C55.0273 123.747 55.2407 125.053 55.6673 126.12C56.094 127.187 56.694 128 57.4673 128.56C58.2673 129.093 59.1873 129.36 60.2273 129.36C61.054 129.36 61.9607 129.187 62.9473 128.84C63.934 128.493 64.9607 127.973 66.0273 127.28L67.9073 130.12C66.414 131.267 64.9207 132.12 63.4273 132.68C61.934 133.213 60.4407 133.48 58.9473 133.48ZM87.2683 130.16L86.5083 129.04L89.9483 130.12V132.96L82.9483 133.32L82.1883 129.48L82.5883 129.6C81.5216 130.907 80.3616 131.88 79.1083 132.52C77.8549 133.16 76.5616 133.48 75.2283 133.48C73.5216 133.48 72.1083 132.933 70.9883 131.84C69.8683 130.747 69.3083 129.173 69.3083 127.12C69.3083 125.6 69.6283 124.4 70.2683 123.52C70.9349 122.613 71.8949 121.96 73.1483 121.56C74.4016 121.16 75.9216 120.96 77.7083 120.96H82.0683L81.6683 121.4V118.76C81.6683 117.507 81.3616 116.613 80.7483 116.08C80.1616 115.547 79.2949 115.28 78.1483 115.28C77.5883 115.28 76.9883 115.333 76.3483 115.44C75.7083 115.547 75.0149 115.707 74.2683 115.92L74.8283 115.32L74.3083 118.56H70.8283L70.5083 112.72C72.3216 112.187 73.9749 111.8 75.4683 111.56C76.9883 111.293 78.3749 111.16 79.6283 111.16C82.1083 111.16 84.0016 111.693 85.3083 112.76C86.6149 113.827 87.2683 115.48 87.2683 117.72V130.16ZM74.9483 126.56C74.9483 127.547 75.1749 128.28 75.6283 128.76C76.1083 129.213 76.7083 129.44 77.4283 129.44C78.0949 129.44 78.8283 129.24 79.6283 128.84C80.4283 128.413 81.1883 127.84 81.9083 127.12L81.6683 128.08V123.52L82.0683 123.92H78.6283C77.2416 123.92 76.2816 124.133 75.7483 124.56C75.2149 124.987 74.9483 125.653 74.9483 126.56ZM91.2102 142.2V139.32L94.6102 138.2L93.8902 139.16V114.88L94.5302 115.64L91.2102 114.64V111.76L98.2502 111.44L98.8902 114.92L98.2502 114.6C99.5035 113.48 100.717 112.627 101.89 112.04C103.09 111.453 104.33 111.16 105.61 111.16C107.157 111.16 108.517 111.573 109.69 112.4C110.863 113.2 111.783 114.4 112.45 116C113.143 117.573 113.49 119.507 113.49 121.8C113.49 124.387 113.05 126.547 112.17 128.28C111.29 130.013 110.05 131.32 108.45 132.2C106.877 133.053 105.037 133.48 102.93 133.48C102.29 133.48 101.623 133.427 100.93 133.32C100.237 133.24 99.5168 133.12 98.7702 132.96L99.4902 132.32V139.16L98.8902 138.32L102.61 139.32V142.2H91.2102ZM102.21 129.52C104.103 129.52 105.477 128.88 106.33 127.6C107.21 126.32 107.65 124.573 107.65 122.36C107.65 120.893 107.477 119.64 107.13 118.6C106.783 117.533 106.303 116.72 105.69 116.16C105.077 115.573 104.317 115.28 103.41 115.28C102.717 115.28 101.983 115.467 101.21 115.84C100.437 116.213 99.6368 116.787 98.8102 117.56L99.4902 116.08V130.04L98.8102 128.96C100.063 129.333 101.197 129.52 102.21 129.52ZM125.746 133.48C123.799 133.48 122.093 133.08 120.626 132.28C119.159 131.453 118.013 130.24 117.186 128.64C116.386 127.013 115.986 125.04 115.986 122.72C115.986 120.32 116.413 118.267 117.266 116.56C118.146 114.827 119.373 113.493 120.946 112.56C122.519 111.627 124.373 111.16 126.506 111.16C128.586 111.16 130.279 111.573 131.586 112.4C132.893 113.227 133.853 114.36 134.466 115.8C135.079 117.213 135.386 118.813 135.386 120.6C135.386 121.053 135.359 121.507 135.306 121.96C135.279 122.413 135.226 122.893 135.146 123.4H120.506V120.08H130.346L129.626 120.6C129.653 119.533 129.546 118.6 129.306 117.8C129.093 116.973 128.719 116.333 128.186 115.88C127.679 115.427 126.973 115.2 126.066 115.2C125.026 115.2 124.186 115.507 123.546 116.12C122.906 116.707 122.439 117.507 122.146 118.52C121.879 119.533 121.746 120.667 121.746 121.92C121.746 123.333 121.919 124.6 122.266 125.72C122.613 126.84 123.173 127.72 123.946 128.36C124.746 129 125.786 129.32 127.066 129.32C127.973 129.32 128.946 129.16 129.986 128.84C131.053 128.493 132.159 127.987 133.306 127.32L135.186 130.32C133.639 131.387 132.053 132.187 130.426 132.72C128.826 133.227 127.266 133.48 125.746 133.48Z" fill="white"/>
</svg>
