<svg width="180" height="180" viewBox="0 0 180 180" fill="none" xmlns="http://www.w3.org/2000/svg">
<mask id="path-1-inside-1_5003_3" fill="white">
<rect width="180" height="180" rx="5"/>
</mask>
<rect width="180" height="180" rx="5" fill="#242424"/>
<rect width="180" height="180" rx="5" stroke="white" stroke-width="12" mask="url(#path-1-inside-1_5003_3)"/>
<path d="M147.299 117.384L146.259 116.136L154.267 118.424V125.912H125.875V118.424L133.883 116.136L132.739 117.384V54.464L133.675 55.504L125.875 53.32V45.832L147.299 45V117.384Z" fill="white"/>
<path d="M81.56 78.8L79.48 79.32C82.808 75.9227 86.344 73.392 90.088 71.728C93.832 69.9947 97.4027 69.128 100.8 69.128C105.168 69.128 108.808 70.584 111.72 73.496C114.701 76.3387 116.192 80.7413 116.192 86.704V118.008L114.84 115.928L123.16 118.424V125.912H95.808V118.424L103.4 116.136L101.632 118.32V89.928C101.632 86.6 100.939 84.1387 99.552 82.544C98.2347 80.9493 96.5013 80.152 94.352 80.152C92.5493 80.152 90.5387 80.7067 88.32 81.816C86.1013 82.9253 83.8827 84.5547 81.664 86.704L82.704 83.48C82.8427 84.0347 82.912 84.5547 82.912 85.04C82.912 85.456 82.912 85.8373 82.912 86.184V118.008L81.56 115.928L88.84 118.424V125.912H62.424V118.424L70.016 116.136L68.352 118.32V89.928C68.352 86.6 67.6587 84.1387 66.272 82.544C64.8853 80.9493 63.152 80.152 61.072 80.152C59.2693 80.152 57.2587 80.672 55.04 81.712C52.8213 82.752 50.672 84.312 48.592 86.392L49.528 84.208V118.32L48.176 116.136L55.456 118.424V125.912H28V118.424L36.736 115.928L34.968 118.008V78.384L36.736 80.776L28 78.176V70.688L46.304 69.856L48.176 79.84L46.304 79.112C49.5627 75.8533 53.0293 73.392 56.704 71.728C60.448 69.9947 64.0187 69.128 67.416 69.128C70.6053 69.128 73.448 69.9253 75.944 71.52C78.44 73.0453 80.312 75.472 81.56 78.8Z" fill="white"/>
<path d="M153.686 154.64C152.907 154.64 152.225 154.48 151.638 154.16C151.051 153.829 150.593 153.344 150.262 152.704C149.942 152.053 149.782 151.264 149.782 150.336C149.782 149.376 149.953 148.555 150.294 147.872C150.646 147.179 151.137 146.645 151.766 146.272C152.395 145.899 153.137 145.712 153.99 145.712C154.822 145.712 155.499 145.877 156.022 146.208C156.545 146.539 156.929 146.992 157.174 147.568C157.419 148.133 157.542 148.773 157.542 149.488C157.542 149.669 157.531 149.851 157.51 150.032C157.499 150.213 157.478 150.405 157.446 150.608H151.59V149.28H155.526L155.238 149.488C155.249 149.061 155.206 148.688 155.11 148.368C155.025 148.037 154.875 147.781 154.662 147.6C154.459 147.419 154.177 147.328 153.814 147.328C153.398 147.328 153.062 147.451 152.806 147.696C152.55 147.931 152.363 148.251 152.246 148.656C152.139 149.061 152.086 149.515 152.086 150.016C152.086 150.581 152.155 151.088 152.294 151.536C152.433 151.984 152.657 152.336 152.966 152.592C153.286 152.848 153.702 152.976 154.214 152.976C154.577 152.976 154.966 152.912 155.382 152.784C155.809 152.645 156.251 152.443 156.71 152.176L157.462 153.376C156.843 153.803 156.209 154.123 155.558 154.336C154.918 154.539 154.294 154.64 153.686 154.64Z" fill="white"/>
<path d="M139.872 158.128V156.976L141.232 156.528L140.944 156.912V147.2L141.2 147.504L139.872 147.104V145.952L142.688 145.824L142.944 147.216L142.688 147.088C143.189 146.64 143.674 146.299 144.144 146.064C144.624 145.829 145.12 145.712 145.632 145.712C146.25 145.712 146.794 145.877 147.264 146.208C147.733 146.528 148.101 147.008 148.368 147.648C148.645 148.277 148.784 149.051 148.784 149.968C148.784 151.003 148.608 151.867 148.256 152.56C147.904 153.253 147.408 153.776 146.768 154.128C146.138 154.469 145.402 154.64 144.56 154.64C144.304 154.64 144.037 154.619 143.76 154.576C143.482 154.544 143.194 154.496 142.896 154.432L143.184 154.176V156.912L142.944 156.576L144.432 156.976V158.128H139.872ZM144.272 153.056C145.029 153.056 145.578 152.8 145.92 152.288C146.272 151.776 146.448 151.077 146.448 150.192C146.448 149.605 146.378 149.104 146.24 148.688C146.101 148.261 145.909 147.936 145.664 147.712C145.418 147.477 145.114 147.36 144.752 147.36C144.474 147.36 144.181 147.435 143.872 147.584C143.562 147.733 143.242 147.963 142.912 148.272L143.184 147.68V153.264L142.912 152.832C143.413 152.981 143.866 153.056 144.272 153.056Z" fill="white"/>
<path d="M138.295 153.312L137.991 152.864L139.367 153.296V154.432L136.567 154.576L136.263 153.04L136.423 153.088C135.996 153.611 135.532 154 135.031 154.256C134.53 154.512 134.012 154.64 133.479 154.64C132.796 154.64 132.231 154.421 131.783 153.984C131.335 153.547 131.111 152.917 131.111 152.096C131.111 151.488 131.239 151.008 131.495 150.656C131.762 150.293 132.146 150.032 132.647 149.872C133.148 149.712 133.756 149.632 134.471 149.632H136.215L136.055 149.808V148.752C136.055 148.251 135.932 147.893 135.687 147.68C135.452 147.467 135.106 147.36 134.647 147.36C134.423 147.36 134.183 147.381 133.927 147.424C133.671 147.467 133.394 147.531 133.095 147.616L133.319 147.376L133.111 148.672H131.719L131.591 146.336C132.316 146.123 132.978 145.968 133.575 145.872C134.183 145.765 134.738 145.712 135.239 145.712C136.231 145.712 136.988 145.925 137.511 146.352C138.034 146.779 138.295 147.44 138.295 148.336V153.312ZM133.367 151.872C133.367 152.267 133.458 152.56 133.639 152.752C133.831 152.933 134.071 153.024 134.359 153.024C134.626 153.024 134.919 152.944 135.239 152.784C135.559 152.613 135.863 152.384 136.151 152.096L136.055 152.48V150.656L136.215 150.816H134.839C134.284 150.816 133.9 150.901 133.687 151.072C133.474 151.243 133.367 151.509 133.367 151.872Z" fill="white"/>
<path d="M126.966 154.64C126.23 154.64 125.564 154.469 124.966 154.128C124.38 153.776 123.916 153.275 123.575 152.624C123.233 151.973 123.062 151.184 123.062 150.256C123.062 149.413 123.185 148.704 123.431 148.128C123.676 147.552 124.007 147.088 124.423 146.736C124.839 146.373 125.303 146.112 125.815 145.952C126.327 145.792 126.855 145.712 127.399 145.712C127.911 145.712 128.428 145.776 128.951 145.904C129.473 146.032 129.9 146.176 130.231 146.336L130.167 148.688H128.727L128.487 147.376L128.663 147.504C128.503 147.44 128.305 147.392 128.071 147.36C127.847 147.328 127.639 147.312 127.447 147.312C126.988 147.312 126.604 147.429 126.295 147.664C125.996 147.888 125.772 148.213 125.623 148.64C125.473 149.056 125.399 149.552 125.399 150.128C125.399 150.747 125.484 151.269 125.655 151.696C125.825 152.123 126.065 152.448 126.375 152.672C126.695 152.885 127.063 152.992 127.479 152.992C127.809 152.992 128.172 152.923 128.567 152.784C128.961 152.645 129.372 152.437 129.799 152.16L130.551 153.296C129.953 153.755 129.356 154.096 128.759 154.32C128.161 154.533 127.564 154.64 126.966 154.64Z" fill="white"/>
<path d="M117.636 148.064C117.636 148.309 117.743 148.507 117.956 148.656C118.169 148.805 118.441 148.933 118.772 149.04C119.113 149.147 119.471 149.259 119.844 149.376C120.228 149.493 120.585 149.648 120.916 149.84C121.257 150.021 121.535 150.267 121.748 150.576C121.961 150.885 122.068 151.285 122.068 151.776C122.068 152.405 121.897 152.933 121.556 153.36C121.215 153.787 120.751 154.107 120.164 154.32C119.577 154.533 118.916 154.64 118.18 154.64C117.753 154.64 117.3 154.603 116.82 154.528C116.351 154.453 115.865 154.352 115.364 154.224L115.46 151.808H116.868L117.044 153.216L116.852 152.944C117.065 153.008 117.3 153.061 117.556 153.104C117.812 153.136 118.036 153.152 118.228 153.152C118.505 153.152 118.761 153.115 118.996 153.04C119.241 152.965 119.439 152.859 119.588 152.72C119.748 152.571 119.828 152.384 119.828 152.16C119.828 151.904 119.721 151.701 119.508 151.552C119.295 151.403 119.017 151.275 118.676 151.168C118.345 151.061 117.993 150.949 117.62 150.832C117.257 150.715 116.905 150.56 116.564 150.368C116.233 150.176 115.961 149.92 115.748 149.6C115.535 149.28 115.428 148.864 115.428 148.352C115.428 147.733 115.583 147.232 115.892 146.848C116.201 146.453 116.612 146.165 117.124 145.984C117.647 145.803 118.217 145.712 118.836 145.712C119.273 145.712 119.737 145.755 120.228 145.84C120.719 145.915 121.22 146.027 121.732 146.176L121.652 148.32H120.228L119.972 147.056L120.276 147.392C119.775 147.253 119.332 147.184 118.948 147.184C118.553 147.184 118.233 147.264 117.988 147.424C117.753 147.573 117.636 147.787 117.636 148.064Z" fill="white"/>
<path d="M108.732 154.64C108.113 154.64 107.564 154.48 107.084 154.16C106.614 153.829 106.241 153.344 105.964 152.704C105.697 152.064 105.564 151.285 105.564 150.368C105.564 148.789 105.964 147.621 106.764 146.864C107.564 146.096 108.689 145.712 110.14 145.712C110.374 145.712 110.609 145.723 110.844 145.744C111.078 145.765 111.324 145.803 111.58 145.856L111.164 146.112V143.472L111.324 143.696L110.012 143.264V142.128L113.404 142V153.2L113.132 152.88L114.476 153.296V154.432L111.66 154.56L111.372 153.184L111.596 153.264C111.126 153.723 110.657 154.069 110.188 154.304C109.729 154.528 109.244 154.64 108.732 154.64ZM109.596 152.992C109.873 152.992 110.166 152.917 110.476 152.768C110.785 152.608 111.105 152.379 111.436 152.08L111.164 152.752V147.008L111.436 147.52C110.934 147.381 110.481 147.312 110.076 147.312C109.318 147.312 108.764 147.568 108.412 148.08C108.07 148.581 107.9 149.275 107.9 150.16C107.9 150.736 107.969 151.237 108.108 151.664C108.246 152.091 108.438 152.421 108.684 152.656C108.94 152.88 109.244 152.992 109.596 152.992Z" fill="white"/>
<path d="M95.2188 154.448V153.296L96.5628 152.912L96.2908 153.232V147.136L96.5628 147.504L95.2188 147.104V145.952L98.0348 145.824L98.3228 147.36L98.0348 147.248C98.5468 146.725 99.0908 146.341 99.6668 146.096C100.243 145.84 100.792 145.712 101.315 145.712C102.04 145.712 102.643 145.941 103.123 146.4C103.603 146.848 103.837 147.531 103.827 148.448V153.232L103.619 152.912L104.899 153.296V154.448H100.627V153.296L101.843 152.944L101.587 153.28V148.928C101.587 148.405 101.469 148.021 101.235 147.776C101.011 147.531 100.712 147.408 100.339 147.408C100.051 147.408 99.7361 147.488 99.3948 147.648C99.0534 147.808 98.7174 148.048 98.3868 148.368L98.5308 148.032V153.28L98.3228 152.944L99.4908 153.296V154.448H95.2188Z" fill="white"/>
<path d="M93.498 153.312L93.194 152.864L94.57 153.296V154.432L91.77 154.576L91.466 153.04L91.626 153.088C91.1993 153.611 90.7353 154 90.234 154.256C89.7327 154.512 89.2153 154.64 88.682 154.64C87.9993 154.64 87.434 154.421 86.986 153.984C86.538 153.547 86.314 152.917 86.314 152.096C86.314 151.488 86.442 151.008 86.698 150.656C86.9647 150.293 87.3487 150.032 87.85 149.872C88.3513 149.712 88.9593 149.632 89.674 149.632H91.418L91.258 149.808V148.752C91.258 148.251 91.1353 147.893 90.89 147.68C90.6553 147.467 90.3087 147.36 89.85 147.36C89.626 147.36 89.386 147.381 89.13 147.424C88.874 147.467 88.5967 147.531 88.298 147.616L88.522 147.376L88.314 148.672H86.922L86.794 146.336C87.5193 146.123 88.1807 145.968 88.778 145.872C89.386 145.765 89.9407 145.712 90.442 145.712C91.434 145.712 92.1913 145.925 92.714 146.352C93.2367 146.779 93.498 147.44 93.498 148.336V153.312ZM88.57 151.872C88.57 152.267 88.6607 152.56 88.842 152.752C89.034 152.933 89.274 153.024 89.562 153.024C89.8287 153.024 90.122 152.944 90.442 152.784C90.762 152.613 91.066 152.384 91.354 152.096L91.258 152.48V150.656L91.418 150.816H90.042C89.4873 150.816 89.1033 150.901 88.89 151.072C88.6767 151.243 88.57 151.509 88.57 151.872Z" fill="white"/>
<path d="M84.5567 153.136L84.3967 152.944L85.6287 153.296V154.448H81.2607V153.296L82.4927 152.944L82.3167 153.136V143.456L82.4607 143.616L81.2607 143.28V142.128L84.5567 142V153.136Z" fill="white"/>
<path d="M75.4012 154.64C74.6652 154.64 74.1052 154.421 73.7212 153.984C73.3479 153.536 73.1613 152.875 73.1613 152V147.104L73.4492 147.392H71.9132V146.192L73.4813 145.824L73.1613 146.208V144.032L75.4172 143.632V146.208L75.1772 145.904H77.6092L77.5773 147.392H75.1772L75.4172 147.104V151.696C75.4172 152.155 75.4919 152.485 75.6413 152.688C75.7906 152.891 76.0146 152.992 76.3133 152.992C76.4839 152.992 76.6706 152.965 76.8732 152.912C77.0866 152.848 77.3159 152.768 77.5612 152.672L77.9772 153.904C77.0812 154.395 76.2226 154.64 75.4012 154.64Z" fill="white"/>
<path d="M67.436 154.64C66.6573 154.64 65.9747 154.48 65.388 154.16C64.8013 153.829 64.3427 153.344 64.012 152.704C63.692 152.053 63.532 151.264 63.532 150.336C63.532 149.376 63.7027 148.555 64.044 147.872C64.396 147.179 64.8867 146.645 65.516 146.272C66.1453 145.899 66.8867 145.712 67.74 145.712C68.572 145.712 69.2493 145.877 69.772 146.208C70.2947 146.539 70.6787 146.992 70.924 147.568C71.1693 148.133 71.292 148.773 71.292 149.488C71.292 149.669 71.2813 149.851 71.26 150.032C71.2493 150.213 71.228 150.405 71.196 150.608H65.34V149.28H69.276L68.988 149.488C68.9987 149.061 68.956 148.688 68.86 148.368C68.7747 148.037 68.6253 147.781 68.412 147.6C68.2093 147.419 67.9267 147.328 67.564 147.328C67.148 147.328 66.812 147.451 66.556 147.696C66.3 147.931 66.1133 148.251 65.996 148.656C65.8893 149.061 65.836 149.515 65.836 150.016C65.836 150.581 65.9053 151.088 66.044 151.536C66.1827 151.984 66.4067 152.336 66.716 152.592C67.036 152.848 67.452 152.976 67.964 152.976C68.3267 152.976 68.716 152.912 69.132 152.784C69.5587 152.645 70.0013 152.443 70.46 152.176L71.212 153.376C70.5933 153.803 69.9587 154.123 69.308 154.336C68.668 154.539 68.044 154.64 67.436 154.64Z" fill="white"/>
<path d="M54.2764 154.448V153.296L55.6044 152.912L55.3324 153.328V143.376L55.5084 143.632L54.2764 143.28V142.128L57.5724 142V149.36L57.2044 149.024H59.2524L58.7084 149.28L60.1484 147.088L60.3084 147.328L59.1884 147.104V145.968L63.0924 145.84V146.976L61.7484 147.28L62.3564 146.944L60.3884 149.856L60.4204 149.28L62.5324 153.264L62.1964 152.976L63.4124 153.312V154.448H60.8204L58.7884 150.368L59.1084 150.512H57.2044L57.5724 150.368V153.328L57.3484 152.896L58.5964 153.296V154.448H54.2764Z" fill="white"/>
<path d="M47.2344 154.448V153.296L48.5304 152.928L48.3064 153.264V147.12L48.5624 147.504L47.2344 147.104V145.952L50.0504 145.824L50.3384 147.344L50.0504 147.28C50.5304 146.779 51.005 146.395 51.4744 146.128C51.9437 145.851 52.445 145.712 52.9784 145.712C53.3197 145.712 53.6824 145.765 54.0664 145.872L53.9224 148.784H52.6104L52.3864 147.104L52.5944 147.536C52.5304 147.515 52.461 147.499 52.3864 147.488C52.3224 147.477 52.2584 147.472 52.1944 147.472C51.8637 147.472 51.533 147.573 51.2024 147.776C50.8824 147.979 50.605 148.24 50.3704 148.56L50.5464 147.952V153.264L50.2904 152.928L51.8744 153.296V154.448H47.2344Z" fill="white"/>
<path d="M45.5136 153.312L45.2096 152.864L46.5856 153.296V154.432L43.7856 154.576L43.4816 153.04L43.6416 153.088C43.215 153.611 42.751 154 42.2496 154.256C41.7483 154.512 41.231 154.64 40.6976 154.64C40.015 154.64 39.4496 154.421 39.0016 153.984C38.5536 153.547 38.3296 152.917 38.3296 152.096C38.3296 151.488 38.4576 151.008 38.7136 150.656C38.9803 150.293 39.3643 150.032 39.8656 149.872C40.367 149.712 40.975 149.632 41.6896 149.632H43.4336L43.2736 149.808V148.752C43.2736 148.251 43.151 147.893 42.9056 147.68C42.671 147.467 42.3243 147.36 41.8656 147.36C41.6416 147.36 41.4016 147.381 41.1456 147.424C40.8896 147.467 40.6123 147.531 40.3136 147.616L40.5376 147.376L40.3296 148.672H38.9376L38.8096 146.336C39.535 146.123 40.1963 145.968 40.7936 145.872C41.4016 145.765 41.9563 145.712 42.4576 145.712C43.4496 145.712 44.207 145.925 44.7296 146.352C45.2523 146.779 45.5136 147.44 45.5136 148.336V153.312ZM40.5856 151.872C40.5856 152.267 40.6763 152.56 40.8576 152.752C41.0496 152.933 41.2896 153.024 41.5776 153.024C41.8443 153.024 42.1376 152.944 42.4576 152.784C42.7776 152.613 43.0816 152.384 43.3696 152.096L43.2736 152.48V150.656L43.4336 150.816H42.0576C41.503 150.816 41.119 150.901 40.9056 151.072C40.6923 151.243 40.5856 151.509 40.5856 151.872Z" fill="white"/>
<path d="M31.24 147.2L30.92 147.28C31.432 146.757 31.976 146.368 32.552 146.112C33.128 145.845 33.6773 145.712 34.2 145.712C34.872 145.712 35.432 145.936 35.88 146.384C36.3387 146.821 36.568 147.499 36.568 148.416V153.232L36.36 152.912L37.64 153.296V154.448H33.432V153.296L34.6 152.944L34.328 153.28V148.912C34.328 148.4 34.2213 148.021 34.008 147.776C33.8053 147.531 33.5387 147.408 33.208 147.408C32.9307 147.408 32.6213 147.493 32.28 147.664C31.9387 147.835 31.5973 148.085 31.256 148.416L31.416 147.92C31.4373 148.005 31.448 148.085 31.448 148.16C31.448 148.224 31.448 148.283 31.448 148.336V153.232L31.24 152.912L32.36 153.296V154.448H28.296V153.296L29.464 152.944L29.208 153.28V148.912C29.208 148.4 29.1013 148.021 28.888 147.776C28.6747 147.531 28.408 147.408 28.088 147.408C27.8107 147.408 27.5013 147.488 27.16 147.648C26.8187 147.808 26.488 148.048 26.168 148.368L26.312 148.032V153.28L26.104 152.944L27.224 153.296V154.448H23V153.296L24.344 152.912L24.072 153.232V147.136L24.344 147.504L23 147.104V145.952L25.816 145.824L26.104 147.36L25.816 147.248C26.3173 146.747 26.8507 146.368 27.416 146.112C27.992 145.845 28.5413 145.712 29.064 145.712C29.5547 145.712 29.992 145.835 30.376 146.08C30.76 146.315 31.048 146.688 31.24 147.2Z" fill="white"/>
</svg>
