<svg width="176" height="176" viewBox="0 0 176 176" fill="none" xmlns="http://www.w3.org/2000/svg">
<path d="M144.358 114.472L143.318 113.224L151.326 115.512V123H122.934V115.512L130.942 113.224L129.798 114.472V51.552L130.734 52.592L122.934 50.408V42.92L144.358 42.088V114.472Z" fill="#242424"/>
<path d="M78.619 75.888L76.539 76.408C79.867 73.0107 83.403 70.48 87.147 68.816C90.891 67.0827 94.4616 66.216 97.859 66.216C102.227 66.216 105.867 67.672 108.779 70.584C111.76 73.4267 113.251 77.8293 113.251 83.792V115.096L111.899 113.016L120.219 115.512V123H92.867V115.512L100.459 113.224L98.691 115.408V87.016C98.691 83.688 97.9976 81.2267 96.611 79.632C95.2936 78.0373 93.5603 77.24 91.411 77.24C89.6083 77.24 87.5976 77.7947 85.379 78.904C83.1603 80.0133 80.9416 81.6427 78.723 83.792L79.763 80.568C79.9016 81.1227 79.971 81.6427 79.971 82.128C79.971 82.544 79.971 82.9253 79.971 83.272V115.096L78.619 113.016L85.899 115.512V123H59.483V115.512L67.075 113.224L65.411 115.408V87.016C65.411 83.688 64.7176 81.2267 63.331 79.632C61.9443 78.0373 60.211 77.24 58.131 77.24C56.3283 77.24 54.3176 77.76 52.099 78.8C49.8803 79.84 47.731 81.4 45.651 83.48L46.587 81.296V115.408L45.235 113.224L52.515 115.512V123H25.059V115.512L33.795 113.016L32.027 115.096V75.472L33.795 77.864L25.059 75.264V67.776L43.363 66.944L45.235 76.928L43.363 76.2C46.6216 72.9413 50.0883 70.48 53.763 68.816C57.507 67.0827 61.0776 66.216 64.475 66.216C67.6643 66.216 70.507 67.0133 73.003 68.608C75.499 70.1333 77.371 72.56 78.619 75.888Z" fill="#242424"/>
<path d="M151.384 155.192C150.606 155.192 149.923 155.032 149.336 154.712C148.75 154.381 148.291 153.896 147.96 153.256C147.64 152.605 147.48 151.816 147.48 150.888C147.48 149.928 147.651 149.107 147.992 148.424C148.344 147.731 148.835 147.197 149.464 146.824C150.094 146.451 150.835 146.264 151.688 146.264C152.52 146.264 153.198 146.429 153.72 146.76C154.243 147.091 154.627 147.544 154.872 148.12C155.118 148.685 155.24 149.325 155.24 150.04C155.24 150.221 155.23 150.403 155.208 150.584C155.198 150.765 155.176 150.957 155.144 151.16H149.288V149.832H153.224L152.936 150.04C152.947 149.613 152.904 149.24 152.808 148.92C152.723 148.589 152.574 148.333 152.36 148.152C152.158 147.971 151.875 147.88 151.512 147.88C151.096 147.88 150.76 148.003 150.504 148.248C150.248 148.483 150.062 148.803 149.944 149.208C149.838 149.613 149.784 150.067 149.784 150.568C149.784 151.133 149.854 151.64 149.992 152.088C150.131 152.536 150.355 152.888 150.664 153.144C150.984 153.4 151.4 153.528 151.912 153.528C152.275 153.528 152.664 153.464 153.08 153.336C153.507 153.197 153.95 152.995 154.408 152.728L155.16 153.928C154.542 154.355 153.907 154.675 153.256 154.888C152.616 155.091 151.992 155.192 151.384 155.192Z" fill="#242424"/>
<path d="M137.57 158.68V157.528L138.93 157.08L138.642 157.464V147.752L138.898 148.056L137.57 147.656V146.504L140.386 146.376L140.642 147.768L140.386 147.64C140.887 147.192 141.373 146.851 141.842 146.616C142.322 146.381 142.818 146.264 143.33 146.264C143.949 146.264 144.493 146.429 144.962 146.76C145.431 147.08 145.799 147.56 146.066 148.2C146.343 148.829 146.482 149.603 146.482 150.52C146.482 151.555 146.306 152.419 145.954 153.112C145.602 153.805 145.106 154.328 144.466 154.68C143.837 155.021 143.101 155.192 142.258 155.192C142.002 155.192 141.735 155.171 141.458 155.128C141.181 155.096 140.893 155.048 140.594 154.984L140.882 154.728V157.464L140.642 157.128L142.13 157.528V158.68H137.57ZM141.97 153.608C142.727 153.608 143.277 153.352 143.618 152.84C143.97 152.328 144.146 151.629 144.146 150.744C144.146 150.157 144.077 149.656 143.938 149.24C143.799 148.813 143.607 148.488 143.362 148.264C143.117 148.029 142.813 147.912 142.45 147.912C142.173 147.912 141.879 147.987 141.57 148.136C141.261 148.285 140.941 148.515 140.61 148.824L140.882 148.232V153.816L140.61 153.384C141.111 153.533 141.565 153.608 141.97 153.608Z" fill="#242424"/>
<path d="M135.993 153.864L135.689 153.416L137.065 153.848V154.984L134.265 155.128L133.961 153.592L134.121 153.64C133.695 154.163 133.231 154.552 132.729 154.808C132.228 155.064 131.711 155.192 131.177 155.192C130.495 155.192 129.929 154.973 129.481 154.536C129.033 154.099 128.809 153.469 128.809 152.648C128.809 152.04 128.937 151.56 129.193 151.208C129.46 150.845 129.844 150.584 130.345 150.424C130.847 150.264 131.455 150.184 132.169 150.184H133.913L133.753 150.36V149.304C133.753 148.803 133.631 148.445 133.385 148.232C133.151 148.019 132.804 147.912 132.345 147.912C132.121 147.912 131.881 147.933 131.625 147.976C131.369 148.019 131.092 148.083 130.793 148.168L131.017 147.928L130.809 149.224H129.417L129.289 146.888C130.015 146.675 130.676 146.52 131.273 146.424C131.881 146.317 132.436 146.264 132.937 146.264C133.929 146.264 134.687 146.477 135.209 146.904C135.732 147.331 135.993 147.992 135.993 148.888V153.864ZM131.065 152.424C131.065 152.819 131.156 153.112 131.337 153.304C131.529 153.485 131.769 153.576 132.057 153.576C132.324 153.576 132.617 153.496 132.937 153.336C133.257 153.165 133.561 152.936 133.849 152.648L133.753 153.032V151.208L133.913 151.368H132.537C131.983 151.368 131.599 151.453 131.385 151.624C131.172 151.795 131.065 152.061 131.065 152.424Z" fill="#242424"/>
<path d="M124.665 155.192C123.929 155.192 123.262 155.021 122.665 154.68C122.078 154.328 121.614 153.827 121.273 153.176C120.932 152.525 120.761 151.736 120.761 150.808C120.761 149.965 120.884 149.256 121.129 148.68C121.374 148.104 121.705 147.64 122.121 147.288C122.537 146.925 123.001 146.664 123.513 146.504C124.025 146.344 124.553 146.264 125.097 146.264C125.609 146.264 126.126 146.328 126.649 146.456C127.172 146.584 127.598 146.728 127.929 146.888L127.865 149.24H126.425L126.185 147.928L126.361 148.056C126.201 147.992 126.004 147.944 125.769 147.912C125.545 147.88 125.337 147.864 125.145 147.864C124.686 147.864 124.302 147.981 123.993 148.216C123.694 148.44 123.47 148.765 123.321 149.192C123.172 149.608 123.097 150.104 123.097 150.68C123.097 151.299 123.182 151.821 123.353 152.248C123.524 152.675 123.764 153 124.073 153.224C124.393 153.437 124.761 153.544 125.177 153.544C125.508 153.544 125.87 153.475 126.265 153.336C126.66 153.197 127.07 152.989 127.497 152.712L128.249 153.848C127.652 154.307 127.054 154.648 126.457 154.872C125.86 155.085 125.262 155.192 124.665 155.192Z" fill="#242424"/>
<path d="M115.334 148.616C115.334 148.861 115.441 149.059 115.654 149.208C115.868 149.357 116.14 149.485 116.47 149.592C116.812 149.699 117.169 149.811 117.542 149.928C117.926 150.045 118.284 150.2 118.614 150.392C118.956 150.573 119.233 150.819 119.446 151.128C119.66 151.437 119.766 151.837 119.766 152.328C119.766 152.957 119.596 153.485 119.254 153.912C118.913 154.339 118.449 154.659 117.862 154.872C117.276 155.085 116.614 155.192 115.878 155.192C115.452 155.192 114.998 155.155 114.518 155.08C114.049 155.005 113.564 154.904 113.062 154.776L113.158 152.36H114.566L114.742 153.768L114.55 153.496C114.764 153.56 114.998 153.613 115.254 153.656C115.51 153.688 115.734 153.704 115.926 153.704C116.204 153.704 116.46 153.667 116.694 153.592C116.94 153.517 117.137 153.411 117.286 153.272C117.446 153.123 117.526 152.936 117.526 152.712C117.526 152.456 117.42 152.253 117.206 152.104C116.993 151.955 116.716 151.827 116.374 151.72C116.044 151.613 115.692 151.501 115.318 151.384C114.956 151.267 114.604 151.112 114.262 150.92C113.932 150.728 113.66 150.472 113.446 150.152C113.233 149.832 113.126 149.416 113.126 148.904C113.126 148.285 113.281 147.784 113.59 147.4C113.9 147.005 114.31 146.717 114.822 146.536C115.345 146.355 115.916 146.264 116.534 146.264C116.972 146.264 117.436 146.307 117.926 146.392C118.417 146.467 118.918 146.579 119.43 146.728L119.35 148.872H117.926L117.67 147.608L117.974 147.944C117.473 147.805 117.03 147.736 116.646 147.736C116.252 147.736 115.932 147.816 115.686 147.976C115.452 148.125 115.334 148.339 115.334 148.616Z" fill="#242424"/>
<path d="M106.43 155.192C105.811 155.192 105.262 155.032 104.782 154.712C104.313 154.381 103.939 153.896 103.662 153.256C103.395 152.616 103.262 151.837 103.262 150.92C103.262 149.341 103.662 148.173 104.462 147.416C105.262 146.648 106.387 146.264 107.838 146.264C108.073 146.264 108.307 146.275 108.542 146.296C108.777 146.317 109.022 146.355 109.278 146.408L108.862 146.664V144.024L109.022 144.248L107.71 143.816V142.68L111.102 142.552V153.752L110.83 153.432L112.174 153.848V154.984L109.358 155.112L109.07 153.736L109.294 153.816C108.825 154.275 108.355 154.621 107.886 154.856C107.427 155.08 106.942 155.192 106.43 155.192ZM107.294 153.544C107.571 153.544 107.865 153.469 108.174 153.32C108.483 153.16 108.803 152.931 109.134 152.632L108.862 153.304V147.56L109.134 148.072C108.633 147.933 108.179 147.864 107.774 147.864C107.017 147.864 106.462 148.12 106.11 148.632C105.769 149.133 105.598 149.827 105.598 150.712C105.598 151.288 105.667 151.789 105.806 152.216C105.945 152.643 106.137 152.973 106.382 153.208C106.638 153.432 106.942 153.544 107.294 153.544Z" fill="#242424"/>
<path d="M92.9171 155V153.848L94.2611 153.464L93.9891 153.784V147.688L94.2611 148.056L92.9171 147.656V146.504L95.7331 146.376L96.0211 147.912L95.7331 147.8C96.2451 147.277 96.7891 146.893 97.3651 146.648C97.9411 146.392 98.4905 146.264 99.0131 146.264C99.7385 146.264 100.341 146.493 100.821 146.952C101.301 147.4 101.536 148.083 101.525 149V153.784L101.317 153.464L102.597 153.848V155H98.3251V153.848L99.5411 153.496L99.2851 153.832V149.48C99.2851 148.957 99.1678 148.573 98.9331 148.328C98.7091 148.083 98.4105 147.96 98.0371 147.96C97.7491 147.96 97.4345 148.04 97.0931 148.2C96.7518 148.36 96.4158 148.6 96.0851 148.92L96.2291 148.584V153.832L96.0211 153.496L97.1891 153.848V155H92.9171Z" fill="#242424"/>
<path d="M91.1964 153.864L90.8924 153.416L92.2684 153.848V154.984L89.4684 155.128L89.1644 153.592L89.3244 153.64C88.8977 154.163 88.4337 154.552 87.9324 154.808C87.431 155.064 86.9137 155.192 86.3804 155.192C85.6977 155.192 85.1324 154.973 84.6844 154.536C84.2364 154.099 84.0124 153.469 84.0124 152.648C84.0124 152.04 84.1404 151.56 84.3964 151.208C84.663 150.845 85.047 150.584 85.5484 150.424C86.0497 150.264 86.6577 150.184 87.3724 150.184H89.1164L88.9564 150.36V149.304C88.9564 148.803 88.8337 148.445 88.5884 148.232C88.3537 148.019 88.007 147.912 87.5484 147.912C87.3244 147.912 87.0844 147.933 86.8284 147.976C86.5724 148.019 86.295 148.083 85.9964 148.168L86.2204 147.928L86.0124 149.224H84.6204L84.4924 146.888C85.2177 146.675 85.879 146.52 86.4764 146.424C87.0844 146.317 87.639 146.264 88.1404 146.264C89.1324 146.264 89.8897 146.477 90.4124 146.904C90.935 147.331 91.1964 147.992 91.1964 148.888V153.864ZM86.2684 152.424C86.2684 152.819 86.359 153.112 86.5404 153.304C86.7324 153.485 86.9724 153.576 87.2604 153.576C87.527 153.576 87.8204 153.496 88.1404 153.336C88.4604 153.165 88.7644 152.936 89.0524 152.648L88.9564 153.032V151.208L89.1164 151.368H87.7404C87.1857 151.368 86.8017 151.453 86.5884 151.624C86.375 151.795 86.2684 152.061 86.2684 152.424Z" fill="#242424"/>
<path d="M82.2551 153.688L82.0951 153.496L83.3271 153.848V155H78.9591V153.848L80.1911 153.496L80.0151 153.688V144.008L80.1591 144.168L78.9591 143.832V142.68L82.2551 142.552V153.688Z" fill="#242424"/>
<path d="M73.0996 155.192C72.3636 155.192 71.8036 154.973 71.4196 154.536C71.0463 154.088 70.8596 153.427 70.8596 152.552V147.656L71.1476 147.944H69.6116V146.744L71.1796 146.376L70.8596 146.76V144.584L73.1156 144.184V146.76L72.8756 146.456H75.3076L75.2756 147.944H72.8756L73.1156 147.656V152.248C73.1156 152.707 73.1903 153.037 73.3396 153.24C73.489 153.443 73.713 153.544 74.0116 153.544C74.1823 153.544 74.369 153.517 74.5716 153.464C74.785 153.4 75.0143 153.32 75.2596 153.224L75.6756 154.456C74.7796 154.947 73.921 155.192 73.0996 155.192Z" fill="#242424"/>
<path d="M65.1344 155.192C64.3557 155.192 63.673 155.032 63.0864 154.712C62.4997 154.381 62.041 153.896 61.7104 153.256C61.3904 152.605 61.2304 151.816 61.2304 150.888C61.2304 149.928 61.401 149.107 61.7424 148.424C62.0944 147.731 62.585 147.197 63.2144 146.824C63.8437 146.451 64.585 146.264 65.4384 146.264C66.2704 146.264 66.9477 146.429 67.4704 146.76C67.993 147.091 68.377 147.544 68.6224 148.12C68.8677 148.685 68.9904 149.325 68.9904 150.04C68.9904 150.221 68.9797 150.403 68.9584 150.584C68.9477 150.765 68.9264 150.957 68.8944 151.16H63.0384V149.832H66.9744L66.6864 150.04C66.697 149.613 66.6544 149.24 66.5584 148.92C66.473 148.589 66.3237 148.333 66.1104 148.152C65.9077 147.971 65.625 147.88 65.2624 147.88C64.8464 147.88 64.5104 148.003 64.2544 148.248C63.9984 148.483 63.8117 148.803 63.6944 149.208C63.5877 149.613 63.5344 150.067 63.5344 150.568C63.5344 151.133 63.6037 151.64 63.7424 152.088C63.881 152.536 64.105 152.888 64.4144 153.144C64.7344 153.4 65.1504 153.528 65.6624 153.528C66.025 153.528 66.4144 153.464 66.8304 153.336C67.257 153.197 67.6997 152.995 68.1584 152.728L68.9104 153.928C68.2917 154.355 67.657 154.675 67.0064 154.888C66.3664 155.091 65.7424 155.192 65.1344 155.192Z" fill="#242424"/>
<path d="M51.9748 155V153.848L53.3027 153.464L53.0308 153.88V143.928L53.2067 144.184L51.9748 143.832V142.68L55.2708 142.552V149.912L54.9028 149.576H56.9508L56.4067 149.832L57.8467 147.64L58.0068 147.88L56.8867 147.656V146.52L60.7907 146.392V147.528L59.4468 147.832L60.0547 147.496L58.0868 150.408L58.1188 149.832L60.2308 153.816L59.8948 153.528L61.1107 153.864V155H58.5187L56.4868 150.92L56.8068 151.064H54.9028L55.2708 150.92V153.88L55.0467 153.448L56.2948 153.848V155H51.9748Z" fill="#242424"/>
<path d="M44.9328 155V153.848L46.2288 153.48L46.0047 153.816V147.672L46.2607 148.056L44.9328 147.656V146.504L47.7488 146.376L48.0368 147.896L47.7488 147.832C48.2288 147.331 48.7034 146.947 49.1728 146.68C49.6421 146.403 50.1434 146.264 50.6768 146.264C51.0181 146.264 51.3808 146.317 51.7648 146.424L51.6208 149.336H50.3088L50.0848 147.656L50.2928 148.088C50.2288 148.067 50.1594 148.051 50.0848 148.04C50.0208 148.029 49.9567 148.024 49.8927 148.024C49.5621 148.024 49.2314 148.125 48.9007 148.328C48.5807 148.531 48.3034 148.792 48.0688 149.112L48.2448 148.504V153.816L47.9888 153.48L49.5728 153.848V155H44.9328Z" fill="#242424"/>
<path d="M43.212 153.864L42.908 153.416L44.284 153.848V154.984L41.484 155.128L41.18 153.592L41.34 153.64C40.9133 154.163 40.4493 154.552 39.948 154.808C39.4467 155.064 38.9293 155.192 38.396 155.192C37.7133 155.192 37.148 154.973 36.7 154.536C36.252 154.099 36.028 153.469 36.028 152.648C36.028 152.04 36.156 151.56 36.412 151.208C36.6787 150.845 37.0627 150.584 37.564 150.424C38.0653 150.264 38.6733 150.184 39.388 150.184H41.132L40.972 150.36V149.304C40.972 148.803 40.8493 148.445 40.604 148.232C40.3693 148.019 40.0227 147.912 39.564 147.912C39.34 147.912 39.1 147.933 38.844 147.976C38.588 148.019 38.3107 148.083 38.012 148.168L38.236 147.928L38.028 149.224H36.636L36.508 146.888C37.2333 146.675 37.8947 146.52 38.492 146.424C39.1 146.317 39.6547 146.264 40.156 146.264C41.148 146.264 41.9053 146.477 42.428 146.904C42.9507 147.331 43.212 147.992 43.212 148.888V153.864ZM38.284 152.424C38.284 152.819 38.3747 153.112 38.556 153.304C38.748 153.485 38.988 153.576 39.276 153.576C39.5427 153.576 39.836 153.496 40.156 153.336C40.476 153.165 40.78 152.936 41.068 152.648L40.972 153.032V151.208L41.132 151.368H39.756C39.2013 151.368 38.8173 151.453 38.604 151.624C38.3907 151.795 38.284 152.061 38.284 152.424Z" fill="#242424"/>
<path d="M28.9384 147.752L28.6184 147.832C29.1304 147.309 29.6744 146.92 30.2504 146.664C30.8264 146.397 31.3757 146.264 31.8984 146.264C32.5704 146.264 33.1304 146.488 33.5784 146.936C34.037 147.373 34.2664 148.051 34.2664 148.968V153.784L34.0584 153.464L35.3384 153.848V155H31.1304V153.848L32.2984 153.496L32.0264 153.832V149.464C32.0264 148.952 31.9197 148.573 31.7064 148.328C31.5037 148.083 31.237 147.96 30.9064 147.96C30.629 147.96 30.3197 148.045 29.9784 148.216C29.637 148.387 29.2957 148.637 28.9544 148.968L29.1144 148.472C29.1357 148.557 29.1464 148.637 29.1464 148.712C29.1464 148.776 29.1464 148.835 29.1464 148.888V153.784L28.9384 153.464L30.0584 153.848V155H25.9944V153.848L27.1624 153.496L26.9064 153.832V149.464C26.9064 148.952 26.7997 148.573 26.5864 148.328C26.373 148.083 26.1064 147.96 25.7864 147.96C25.509 147.96 25.1997 148.04 24.8584 148.2C24.517 148.36 24.1864 148.6 23.8664 148.92L24.0104 148.584V153.832L23.8024 153.496L24.9224 153.848V155H20.6984V153.848L22.0424 153.464L21.7704 153.784V147.688L22.0424 148.056L20.6984 147.656V146.504L23.5144 146.376L23.8024 147.912L23.5144 147.8C24.0157 147.299 24.549 146.92 25.1144 146.664C25.6904 146.397 26.2397 146.264 26.7624 146.264C27.253 146.264 27.6904 146.387 28.0744 146.632C28.4584 146.867 28.7464 147.24 28.9384 147.752Z" fill="#242424"/>
</svg>
