<svg width="180" height="180" viewBox="0 0 180 180" fill="none" xmlns="http://www.w3.org/2000/svg">
<g clip-path="url(#clip0_3005_2)">
<mask id="path-1-inside-1_3005_2" fill="white">
<rect width="180" height="180" rx="5"/>
</mask>
<rect width="180" height="180" rx="5" fill="white"/>
<rect width="180" height="180" rx="5" stroke="#242424" stroke-width="12" mask="url(#path-1-inside-1_3005_2)"/>
<path d="M146.639 120.029L145.587 118.753L153.685 121.093V128.751H124.974V121.093L133.072 118.753L131.915 120.029V55.6791L132.862 56.7427L124.974 54.5091V46.8509L146.639 46V120.029Z" fill="#242424"/>
<path d="M80.1618 80.5682L78.0584 81.1C81.4238 77.6255 84.9996 75.0373 88.7856 73.3355C92.5717 71.5627 96.1825 70.6764 99.618 70.6764C104.035 70.6764 107.716 72.1655 110.661 75.1436C113.676 78.0509 115.183 82.5536 115.183 88.6518V120.667L113.816 118.54L122.229 121.093V128.751H94.5699V121.093L102.247 118.753L100.459 120.986V91.9491C100.459 88.5455 99.7582 86.0282 98.356 84.3973C97.0238 82.7664 95.271 81.9509 93.0975 81.9509C91.2746 81.9509 89.2414 82.5182 86.9978 83.6527C84.7542 84.7873 82.5106 86.4536 80.267 88.6518L81.3187 85.3546C81.4589 85.9218 81.529 86.4536 81.529 86.95C81.529 87.3755 81.529 87.7655 81.529 88.12V120.667L80.1618 118.54L87.5236 121.093V128.751H60.8108V121.093L68.4881 118.753L66.8054 120.986V91.9491C66.8054 88.5455 66.1043 86.0282 64.702 84.3973C63.2998 82.7664 61.547 81.9509 59.4436 81.9509C57.6207 81.9509 55.5874 82.4827 53.3438 83.5464C51.1002 84.61 48.9267 86.2055 46.8234 88.3327L47.7699 86.0991V120.986L46.4027 118.753L53.7645 121.093V128.751H26V121.093L34.8342 118.54L33.0463 120.667V80.1427L34.8342 82.5891L26 79.93V72.2718L44.5097 71.4209L46.4027 81.6318L44.5097 80.8873C47.8049 77.5546 51.3106 75.0373 55.0265 73.3355C58.8126 71.5627 62.4234 70.6764 65.8589 70.6764C69.084 70.6764 71.9587 71.4918 74.4827 73.1227C77.0067 74.6827 78.8998 77.1646 80.1618 80.5682Z" fill="#242424"/>
<path d="M154.154 156.927C153.367 156.927 152.677 156.764 152.083 156.436C151.49 156.098 151.026 155.602 150.692 154.947C150.368 154.282 150.207 153.475 150.207 152.525C150.207 151.544 150.379 150.704 150.724 150.005C151.08 149.296 151.576 148.751 152.213 148.369C152.849 147.987 153.599 147.796 154.462 147.796C155.303 147.796 155.988 147.965 156.517 148.304C157.045 148.642 157.433 149.105 157.682 149.695C157.93 150.273 158.054 150.927 158.054 151.658C158.054 151.844 158.043 152.029 158.021 152.215C158.011 152.4 157.989 152.596 157.957 152.804H152.035V151.445H156.015L155.724 151.658C155.735 151.222 155.691 150.84 155.594 150.513C155.508 150.175 155.357 149.913 155.141 149.727C154.936 149.542 154.651 149.449 154.284 149.449C153.863 149.449 153.523 149.575 153.264 149.825C153.006 150.065 152.817 150.393 152.698 150.807C152.59 151.222 152.536 151.685 152.536 152.198C152.536 152.776 152.607 153.295 152.747 153.753C152.887 154.211 153.113 154.571 153.426 154.833C153.75 155.095 154.171 155.225 154.688 155.225C155.055 155.225 155.449 155.16 155.869 155.029C156.301 154.887 156.749 154.68 157.212 154.407L157.973 155.635C157.347 156.071 156.705 156.398 156.047 156.616C155.4 156.824 154.769 156.927 154.154 156.927Z" fill="#242424"/>
<path d="M140.185 160.495V159.316L141.56 158.858L141.269 159.251V149.318L141.528 149.629L140.185 149.22V148.042L143.032 147.911L143.291 149.335L143.032 149.204C143.539 148.745 144.03 148.396 144.505 148.156C144.99 147.916 145.492 147.796 146.01 147.796C146.635 147.796 147.185 147.965 147.66 148.304C148.134 148.631 148.507 149.122 148.776 149.776C149.057 150.42 149.197 151.211 149.197 152.149C149.197 153.207 149.019 154.091 148.663 154.8C148.307 155.509 147.805 156.044 147.158 156.404C146.522 156.753 145.778 156.927 144.925 156.927C144.667 156.927 144.397 156.905 144.116 156.862C143.836 156.829 143.545 156.78 143.243 156.715L143.534 156.453V159.251L143.291 158.907L144.796 159.316V160.495H140.185ZM144.634 155.307C145.4 155.307 145.956 155.045 146.301 154.522C146.657 153.998 146.835 153.284 146.835 152.378C146.835 151.778 146.765 151.265 146.624 150.84C146.484 150.404 146.29 150.071 146.042 149.842C145.794 149.602 145.486 149.482 145.12 149.482C144.839 149.482 144.543 149.558 144.23 149.711C143.917 149.864 143.593 150.098 143.259 150.415L143.534 149.809V155.52L143.259 155.078C143.766 155.231 144.224 155.307 144.634 155.307Z" fill="#242424"/>
<path d="M138.59 155.569L138.283 155.111L139.674 155.553V156.715L136.843 156.862L136.535 155.291L136.697 155.34C136.266 155.875 135.797 156.273 135.29 156.535C134.783 156.796 134.26 156.927 133.72 156.927C133.03 156.927 132.458 156.704 132.005 156.256C131.552 155.809 131.326 155.165 131.326 154.325C131.326 153.704 131.455 153.213 131.714 152.853C131.984 152.482 132.372 152.215 132.879 152.051C133.386 151.887 134.001 151.805 134.723 151.805H136.487L136.325 151.985V150.905C136.325 150.393 136.201 150.027 135.953 149.809C135.716 149.591 135.365 149.482 134.901 149.482C134.675 149.482 134.432 149.504 134.173 149.547C133.914 149.591 133.634 149.656 133.332 149.744L133.558 149.498L133.348 150.824H131.94L131.811 148.435C132.544 148.216 133.213 148.058 133.817 147.96C134.432 147.851 134.993 147.796 135.5 147.796C136.503 147.796 137.269 148.015 137.798 148.451C138.326 148.887 138.59 149.564 138.59 150.48V155.569ZM133.607 154.096C133.607 154.5 133.699 154.8 133.882 154.996C134.076 155.182 134.319 155.275 134.61 155.275C134.88 155.275 135.176 155.193 135.5 155.029C135.824 154.855 136.131 154.62 136.422 154.325L136.325 154.718V152.853L136.487 153.016H135.095C134.535 153.016 134.146 153.104 133.931 153.278C133.715 153.453 133.607 153.725 133.607 154.096Z" fill="#242424"/>
<path d="M127.135 156.927C126.39 156.927 125.716 156.753 125.112 156.404C124.519 156.044 124.05 155.531 123.705 154.865C123.359 154.2 123.187 153.393 123.187 152.444C123.187 151.582 123.311 150.856 123.559 150.267C123.807 149.678 124.141 149.204 124.562 148.844C124.983 148.473 125.452 148.205 125.97 148.042C126.487 147.878 127.021 147.796 127.572 147.796C128.089 147.796 128.612 147.862 129.141 147.993C129.669 148.124 130.101 148.271 130.435 148.435L130.371 150.84H128.914L128.672 149.498L128.85 149.629C128.688 149.564 128.488 149.515 128.251 149.482C128.025 149.449 127.814 149.433 127.62 149.433C127.156 149.433 126.768 149.553 126.455 149.793C126.153 150.022 125.927 150.355 125.776 150.791C125.625 151.216 125.549 151.724 125.549 152.313C125.549 152.945 125.635 153.48 125.808 153.916C125.981 154.353 126.223 154.685 126.536 154.915C126.86 155.133 127.232 155.242 127.652 155.242C127.987 155.242 128.354 155.171 128.753 155.029C129.152 154.887 129.567 154.675 129.998 154.391L130.759 155.553C130.155 156.022 129.551 156.371 128.947 156.6C128.343 156.818 127.739 156.927 127.135 156.927Z" fill="#242424"/>
<path d="M117.699 150.202C117.699 150.453 117.807 150.655 118.023 150.807C118.239 150.96 118.514 151.091 118.848 151.2C119.193 151.309 119.554 151.424 119.932 151.544C120.32 151.664 120.682 151.822 121.016 152.018C121.361 152.204 121.642 152.455 121.857 152.771C122.073 153.087 122.181 153.496 122.181 153.998C122.181 154.642 122.008 155.182 121.663 155.618C121.318 156.055 120.849 156.382 120.256 156.6C119.662 156.818 118.994 156.927 118.249 156.927C117.818 156.927 117.359 156.889 116.874 156.813C116.399 156.736 115.909 156.633 115.402 156.502L115.499 154.031H116.923L117.101 155.471L116.906 155.193C117.122 155.258 117.359 155.313 117.618 155.356C117.877 155.389 118.104 155.405 118.298 155.405C118.578 155.405 118.837 155.367 119.074 155.291C119.323 155.215 119.522 155.105 119.673 154.964C119.835 154.811 119.916 154.62 119.916 154.391C119.916 154.129 119.808 153.922 119.592 153.769C119.377 153.616 119.096 153.485 118.751 153.376C118.417 153.267 118.061 153.153 117.683 153.033C117.316 152.913 116.96 152.755 116.615 152.558C116.281 152.362 116.006 152.1 115.79 151.773C115.574 151.445 115.466 151.02 115.466 150.496C115.466 149.864 115.623 149.351 115.936 148.958C116.248 148.555 116.664 148.26 117.181 148.075C117.71 147.889 118.287 147.796 118.913 147.796C119.355 147.796 119.824 147.84 120.32 147.927C120.817 148.004 121.323 148.118 121.841 148.271L121.76 150.464H120.32L120.061 149.171L120.369 149.515C119.862 149.373 119.414 149.302 119.026 149.302C118.627 149.302 118.303 149.384 118.055 149.547C117.818 149.7 117.699 149.918 117.699 150.202Z" fill="#242424"/>
<path d="M108.695 156.927C108.069 156.927 107.514 156.764 107.028 156.436C106.554 156.098 106.176 155.602 105.896 154.947C105.626 154.293 105.491 153.496 105.491 152.558C105.491 150.944 105.896 149.749 106.705 148.975C107.514 148.189 108.652 147.796 110.119 147.796C110.356 147.796 110.593 147.807 110.831 147.829C111.068 147.851 111.316 147.889 111.575 147.944L111.154 148.205V145.505L111.316 145.735L109.989 145.293V144.131L113.419 144V155.455L113.144 155.127L114.503 155.553V156.715L111.656 156.845L111.365 155.438L111.591 155.52C111.116 155.989 110.642 156.344 110.167 156.584C109.703 156.813 109.213 156.927 108.695 156.927ZM109.569 155.242C109.849 155.242 110.146 155.165 110.459 155.013C110.771 154.849 111.095 154.615 111.429 154.309L111.154 154.996V149.122L111.429 149.645C110.922 149.504 110.464 149.433 110.054 149.433C109.288 149.433 108.727 149.695 108.371 150.218C108.026 150.731 107.854 151.44 107.854 152.345C107.854 152.935 107.924 153.447 108.064 153.884C108.204 154.32 108.398 154.658 108.646 154.898C108.905 155.127 109.213 155.242 109.569 155.242Z" fill="#242424"/>
<path d="M95.0302 156.731V155.553L96.3893 155.16L96.1142 155.487V149.253L96.3893 149.629L95.0302 149.22V148.042L97.8778 147.911L98.1691 149.482L97.8778 149.367C98.3956 148.833 98.9457 148.44 99.5282 148.189C100.111 147.927 100.666 147.796 101.195 147.796C101.928 147.796 102.538 148.031 103.023 148.5C103.508 148.958 103.746 149.656 103.735 150.595V155.487L103.525 155.16L104.819 155.553V156.731H100.499V155.553L101.729 155.193L101.47 155.536V151.085C101.47 150.551 101.351 150.158 101.114 149.907C100.887 149.656 100.585 149.531 100.208 149.531C99.9165 149.531 99.5983 149.613 99.2531 149.776C98.908 149.94 98.5682 150.185 98.2338 150.513L98.3794 150.169V155.536L98.1691 155.193L99.3502 155.553V156.731H95.0302Z" fill="#242424"/>
<path d="M93.2901 155.569L92.9827 155.111L94.3742 155.553V156.715L91.5427 156.862L91.2353 155.291L91.3971 155.34C90.9656 155.875 90.4964 156.273 89.9894 156.535C89.4825 156.796 88.9593 156.927 88.42 156.927C87.7297 156.927 87.158 156.704 86.7049 156.256C86.2519 155.809 86.0254 155.165 86.0254 154.325C86.0254 153.704 86.1548 153.213 86.4137 152.853C86.6834 152.482 87.0717 152.215 87.5787 152.051C88.0856 151.887 88.7004 151.805 89.4231 151.805H91.1867L91.0249 151.985V150.905C91.0249 150.393 90.9009 150.027 90.6528 149.809C90.4155 149.591 90.0649 149.482 89.6011 149.482C89.3746 149.482 89.1319 149.504 88.873 149.547C88.6142 149.591 88.3337 149.656 88.0317 149.744L88.2582 149.498L88.0479 150.824H86.6402L86.5108 148.435C87.2443 148.216 87.913 148.058 88.5171 147.96C89.1319 147.851 89.6928 147.796 90.1998 147.796C91.2029 147.796 91.9688 148.015 92.4973 148.451C93.0258 148.887 93.2901 149.564 93.2901 150.48V155.569ZM88.3067 154.096C88.3067 154.5 88.3984 154.8 88.5818 154.996C88.776 155.182 89.0187 155.275 89.3099 155.275C89.5795 155.275 89.8762 155.193 90.1998 155.029C90.5234 154.855 90.8308 154.62 91.122 154.325L91.0249 154.718V152.853L91.1867 153.016H89.7953C89.2344 153.016 88.8461 153.104 88.6303 153.278C88.4146 153.453 88.3067 153.725 88.3067 154.096Z" fill="#242424"/>
<path d="M84.2484 155.389L84.0866 155.193L85.3324 155.553V156.731H80.9154V155.553L82.1612 155.193L81.9832 155.389V145.489L82.1288 145.653L80.9154 145.309V144.131L84.2484 144V155.389Z" fill="#242424"/>
<path d="M74.99 156.927C74.2458 156.927 73.6795 156.704 73.2912 156.256C72.9136 155.798 72.7249 155.122 72.7249 154.227V149.22L73.0161 149.515H71.4628V148.287L73.0485 147.911L72.7249 148.304V146.078L75.0062 145.669V148.304L74.7635 147.993H77.2228L77.1905 149.515H74.7635L75.0062 149.22V153.916C75.0062 154.385 75.0817 154.724 75.2327 154.931C75.3837 155.138 75.6103 155.242 75.9123 155.242C76.0849 155.242 76.2736 155.215 76.4786 155.16C76.6943 155.095 76.9262 155.013 77.1743 154.915L77.595 156.175C76.6889 156.676 75.8206 156.927 74.99 156.927Z" fill="#242424"/>
<path d="M66.9353 156.927C66.1479 156.927 65.4575 156.764 64.8643 156.436C64.271 156.098 63.8072 155.602 63.4728 154.947C63.1492 154.282 62.9874 153.475 62.9874 152.525C62.9874 151.544 63.16 150.704 63.5052 150.005C63.8611 149.296 64.3573 148.751 64.9937 148.369C65.6301 147.987 66.3798 147.796 67.2427 147.796C68.084 147.796 68.769 147.965 69.2975 148.304C69.8261 148.642 70.2144 149.105 70.4625 149.695C70.7106 150.273 70.8346 150.927 70.8346 151.658C70.8346 151.844 70.8238 152.029 70.8022 152.215C70.7915 152.4 70.7699 152.596 70.7375 152.804H64.8157V151.445H68.796L68.5047 151.658C68.5155 151.222 68.4724 150.84 68.3753 150.513C68.289 150.175 68.138 149.913 67.9222 149.727C67.7173 149.542 67.4315 149.449 67.0647 149.449C66.644 149.449 66.3043 149.575 66.0454 149.825C65.7865 150.065 65.5977 150.393 65.4791 150.807C65.3712 151.222 65.3173 151.685 65.3173 152.198C65.3173 152.776 65.3874 153.295 65.5276 153.753C65.6679 154.211 65.8944 154.571 66.2072 154.833C66.5308 155.095 66.9515 155.225 67.4692 155.225C67.836 155.225 68.2297 155.16 68.6503 155.029C69.0818 154.887 69.5294 154.68 69.9933 154.407L70.7537 155.635C70.1281 156.071 69.4863 156.398 68.8283 156.616C68.1811 156.824 67.5501 156.927 66.9353 156.927Z" fill="#242424"/>
<path d="M53.6278 156.731V155.553L54.9707 155.16L54.6957 155.585V145.407L54.8736 145.669L53.6278 145.309V144.131L56.9608 144V151.527L56.5887 151.184H58.6597L58.1096 151.445L59.5658 149.204L59.7276 149.449L58.595 149.22V148.058L62.5428 147.927V149.089L61.1837 149.4L61.7986 149.056L59.8085 152.035L59.8408 151.445L61.9766 155.52L61.6368 155.225L62.8664 155.569V156.731H60.2453L58.1905 152.558L58.5141 152.705H56.5887L56.9608 152.558V155.585L56.7343 155.144L57.9963 155.553V156.731H53.6278Z" fill="#242424"/>
<path d="M46.5067 156.731V155.553L47.8172 155.176L47.5907 155.52V149.236L47.8496 149.629L46.5067 149.22V148.042L49.3543 147.911L49.6455 149.465L49.3543 149.4C49.8397 148.887 50.3197 148.495 50.7943 148.222C51.2689 147.938 51.7759 147.796 52.3152 147.796C52.6604 147.796 53.0271 147.851 53.4154 147.96L53.2698 150.938H51.9431L51.7166 149.22L51.9269 149.662C51.8622 149.64 51.7921 149.624 51.7166 149.613C51.6518 149.602 51.5871 149.596 51.5224 149.596C51.188 149.596 50.8536 149.7 50.5193 149.907C50.1957 150.115 49.9152 150.382 49.6779 150.709L49.8559 150.087V155.52L49.597 155.176L51.1988 155.553V156.731H46.5067Z" fill="#242424"/>
<path d="M44.7666 155.569L44.4592 155.111L45.8506 155.553V156.715L43.0192 156.862L42.7118 155.291L42.8736 155.34C42.4421 155.875 41.9729 156.273 41.4659 156.535C40.9589 156.796 40.4358 156.927 39.8965 156.927C39.2061 156.927 38.6345 156.704 38.1814 156.256C37.7284 155.809 37.5019 155.165 37.5019 154.325C37.5019 153.704 37.6313 153.213 37.8902 152.853C38.1598 152.482 38.5482 152.215 39.0551 152.051C39.5621 151.887 40.1769 151.805 40.8996 151.805H42.6632L42.5014 151.985V150.905C42.5014 150.393 42.3774 150.027 42.1293 149.809C41.892 149.591 41.5414 149.482 41.0776 149.482C40.8511 149.482 40.6084 149.504 40.3495 149.547C40.0906 149.591 39.8102 149.656 39.5082 149.744L39.7347 149.498L39.5243 150.824H38.1167L37.9873 148.435C38.7207 148.216 39.3895 148.058 39.9936 147.96C40.6084 147.851 41.1693 147.796 41.6762 147.796C42.6794 147.796 43.4452 148.015 43.9738 148.451C44.5023 148.887 44.7666 149.564 44.7666 150.48V155.569ZM39.7832 154.096C39.7832 154.5 39.8749 154.8 40.0583 154.996C40.2524 155.182 40.4951 155.275 40.7864 155.275C41.056 155.275 41.3527 155.193 41.6762 155.029C41.9998 154.855 42.3073 154.62 42.5985 154.325L42.5014 154.718V152.853L42.6632 153.016H41.2718C40.7109 153.016 40.3225 153.104 40.1068 153.278C39.8911 153.453 39.7832 153.725 39.7832 154.096Z" fill="#242424"/>
<path d="M30.3326 149.318L30.009 149.4C30.5267 148.865 31.0769 148.467 31.6593 148.205C32.2418 147.933 32.7973 147.796 33.3258 147.796C34.0054 147.796 34.5717 148.025 35.0247 148.484C35.4885 148.931 35.7205 149.624 35.7205 150.562V155.487L35.5101 155.16L36.8045 155.553V156.731H32.5492V155.553L33.7303 155.193L33.4553 155.536V151.069C33.4553 150.545 33.3474 150.158 33.1317 149.907C32.9267 149.656 32.6571 149.531 32.3227 149.531C32.0422 149.531 31.7294 149.618 31.3843 149.793C31.0391 149.967 30.6939 150.224 30.3488 150.562L30.5106 150.055C30.5321 150.142 30.5429 150.224 30.5429 150.3C30.5429 150.365 30.5429 150.425 30.5429 150.48V155.487L30.3326 155.16L31.4652 155.553V156.731H27.3555V155.553L28.5366 155.193L28.2778 155.536V151.069C28.2778 150.545 28.1699 150.158 27.9542 149.907C27.7384 149.656 27.4688 149.531 27.1452 149.531C26.8647 149.531 26.5519 149.613 26.2067 149.776C25.8616 149.94 25.5272 150.185 25.2036 150.513L25.3492 150.169V155.536L25.1389 155.193L26.2715 155.553V156.731H22V155.553L23.3591 155.16L23.084 155.487V149.253L23.3591 149.629L22 149.22V148.042L24.8476 147.911L25.1389 149.482L24.8476 149.367C25.3546 148.855 25.8939 148.467 26.4656 148.205C27.0481 147.933 27.6036 147.796 28.1321 147.796C28.6283 147.796 29.0706 147.922 29.4589 148.173C29.8472 148.413 30.1384 148.795 30.3326 149.318Z" fill="#242424"/>
</g>
<defs>
<clipPath id="clip0_3005_2">
<rect width="180" height="180" fill="white"/>
</clipPath>
</defs>
</svg>
