<svg width="180" height="180" viewBox="0 0 180 180" fill="none" xmlns="http://www.w3.org/2000/svg">
<path d="M174 2H6C3.79086 2 2 3.79086 2 6V174C2 176.209 3.79086 178 6 178H174C176.209 178 178 176.209 178 174V6C178 3.79086 176.209 2 174 2Z" fill="white" stroke="white" stroke-width="8"/>
<path d="M146.358 116.472L145.318 115.224L153.326 117.512V125H124.934V117.512L132.942 115.224L131.798 116.472V53.552L132.734 54.592L124.934 52.408V44.92L146.358 44.088V116.472Z" fill="#242424"/>
<path d="M80.619 77.888L78.539 78.408C81.867 75.0107 85.403 72.48 89.147 70.816C92.891 69.0827 96.4616 68.216 99.859 68.216C104.227 68.216 107.867 69.672 110.779 72.584C113.76 75.4267 115.251 79.8293 115.251 85.792V117.096L113.899 115.016L122.219 117.512V125H94.867V117.512L102.459 115.224L100.691 117.408V89.016C100.691 85.688 99.9976 83.2267 98.611 81.632C97.2936 80.0373 95.5603 79.24 93.411 79.24C91.6083 79.24 89.5976 79.7947 87.379 80.904C85.1603 82.0133 82.9416 83.6427 80.723 85.792L81.763 82.568C81.9016 83.1227 81.971 83.6427 81.971 84.128C81.971 84.544 81.971 84.9253 81.971 85.272V117.096L80.619 115.016L87.899 117.512V125H61.483V117.512L69.075 115.224L67.411 117.408V89.016C67.411 85.688 66.7176 83.2267 65.331 81.632C63.9443 80.0373 62.211 79.24 60.131 79.24C58.3283 79.24 56.3176 79.76 54.099 80.8C51.8803 81.84 49.731 83.4 47.651 85.48L48.587 83.296V117.408L47.235 115.224L54.515 117.512V125H27.059V117.512L35.795 115.016L34.027 117.096V77.472L35.795 79.864L27.059 77.264V69.776L45.363 68.944L47.235 78.928L45.363 78.2C48.6216 74.9413 52.0883 72.48 55.763 70.816C59.507 69.0827 63.0776 68.216 66.475 68.216C69.6643 68.216 72.507 69.0133 75.003 70.608C77.499 72.1333 79.371 74.56 80.619 77.888Z" fill="#242424"/>
<path d="M153.384 157.192C152.606 157.192 151.923 157.032 151.336 156.712C150.75 156.381 150.291 155.896 149.96 155.256C149.64 154.605 149.48 153.816 149.48 152.888C149.48 151.928 149.651 151.107 149.992 150.424C150.344 149.731 150.835 149.197 151.464 148.824C152.094 148.451 152.835 148.264 153.688 148.264C154.52 148.264 155.198 148.429 155.72 148.76C156.243 149.091 156.627 149.544 156.872 150.12C157.118 150.685 157.24 151.325 157.24 152.04C157.24 152.221 157.23 152.403 157.208 152.584C157.198 152.765 157.176 152.957 157.144 153.16H151.288V151.832H155.224L154.936 152.04C154.947 151.613 154.904 151.24 154.808 150.92C154.723 150.589 154.574 150.333 154.36 150.152C154.158 149.971 153.875 149.88 153.512 149.88C153.096 149.88 152.76 150.003 152.504 150.248C152.248 150.483 152.062 150.803 151.944 151.208C151.838 151.613 151.784 152.067 151.784 152.568C151.784 153.133 151.854 153.64 151.992 154.088C152.131 154.536 152.355 154.888 152.664 155.144C152.984 155.4 153.4 155.528 153.912 155.528C154.275 155.528 154.664 155.464 155.08 155.336C155.507 155.197 155.95 154.995 156.408 154.728L157.16 155.928C156.542 156.355 155.907 156.675 155.256 156.888C154.616 157.091 153.992 157.192 153.384 157.192Z" fill="#242424"/>
<path d="M139.57 160.68V159.528L140.93 159.08L140.642 159.464V149.752L140.898 150.056L139.57 149.656V148.504L142.386 148.376L142.642 149.768L142.386 149.64C142.887 149.192 143.373 148.851 143.842 148.616C144.322 148.381 144.818 148.264 145.33 148.264C145.949 148.264 146.493 148.429 146.962 148.76C147.431 149.08 147.799 149.56 148.066 150.2C148.343 150.829 148.482 151.603 148.482 152.52C148.482 153.555 148.306 154.419 147.954 155.112C147.602 155.805 147.106 156.328 146.466 156.68C145.837 157.021 145.101 157.192 144.258 157.192C144.002 157.192 143.735 157.171 143.458 157.128C143.181 157.096 142.893 157.048 142.594 156.984L142.882 156.728V159.464L142.642 159.128L144.13 159.528V160.68H139.57ZM143.97 155.608C144.727 155.608 145.277 155.352 145.618 154.84C145.97 154.328 146.146 153.629 146.146 152.744C146.146 152.157 146.077 151.656 145.938 151.24C145.799 150.813 145.607 150.488 145.362 150.264C145.117 150.029 144.813 149.912 144.45 149.912C144.173 149.912 143.879 149.987 143.57 150.136C143.261 150.285 142.941 150.515 142.61 150.824L142.882 150.232V155.816L142.61 155.384C143.111 155.533 143.565 155.608 143.97 155.608Z" fill="#242424"/>
<path d="M137.993 155.864L137.689 155.416L139.065 155.848V156.984L136.265 157.128L135.961 155.592L136.121 155.64C135.695 156.163 135.231 156.552 134.729 156.808C134.228 157.064 133.711 157.192 133.177 157.192C132.495 157.192 131.929 156.973 131.481 156.536C131.033 156.099 130.809 155.469 130.809 154.648C130.809 154.04 130.937 153.56 131.193 153.208C131.46 152.845 131.844 152.584 132.345 152.424C132.847 152.264 133.455 152.184 134.169 152.184H135.913L135.753 152.36V151.304C135.753 150.803 135.631 150.445 135.385 150.232C135.151 150.019 134.804 149.912 134.345 149.912C134.121 149.912 133.881 149.933 133.625 149.976C133.369 150.019 133.092 150.083 132.793 150.168L133.017 149.928L132.809 151.224H131.417L131.289 148.888C132.015 148.675 132.676 148.52 133.273 148.424C133.881 148.317 134.436 148.264 134.937 148.264C135.929 148.264 136.687 148.477 137.209 148.904C137.732 149.331 137.993 149.992 137.993 150.888V155.864ZM133.065 154.424C133.065 154.819 133.156 155.112 133.337 155.304C133.529 155.485 133.769 155.576 134.057 155.576C134.324 155.576 134.617 155.496 134.937 155.336C135.257 155.165 135.561 154.936 135.849 154.648L135.753 155.032V153.208L135.913 153.368H134.537C133.983 153.368 133.599 153.453 133.385 153.624C133.172 153.795 133.065 154.061 133.065 154.424Z" fill="#242424"/>
<path d="M126.665 157.192C125.929 157.192 125.262 157.021 124.665 156.68C124.078 156.328 123.614 155.827 123.273 155.176C122.932 154.525 122.761 153.736 122.761 152.808C122.761 151.965 122.884 151.256 123.129 150.68C123.374 150.104 123.705 149.64 124.121 149.288C124.537 148.925 125.001 148.664 125.513 148.504C126.025 148.344 126.553 148.264 127.097 148.264C127.609 148.264 128.126 148.328 128.649 148.456C129.172 148.584 129.598 148.728 129.929 148.888L129.865 151.24H128.425L128.185 149.928L128.361 150.056C128.201 149.992 128.004 149.944 127.769 149.912C127.545 149.88 127.337 149.864 127.145 149.864C126.686 149.864 126.302 149.981 125.993 150.216C125.694 150.44 125.47 150.765 125.321 151.192C125.172 151.608 125.097 152.104 125.097 152.68C125.097 153.299 125.182 153.821 125.353 154.248C125.524 154.675 125.764 155 126.073 155.224C126.393 155.437 126.761 155.544 127.177 155.544C127.508 155.544 127.87 155.475 128.265 155.336C128.66 155.197 129.07 154.989 129.497 154.712L130.249 155.848C129.652 156.307 129.054 156.648 128.457 156.872C127.86 157.085 127.262 157.192 126.665 157.192Z" fill="#242424"/>
<path d="M117.334 150.616C117.334 150.861 117.441 151.059 117.654 151.208C117.868 151.357 118.14 151.485 118.47 151.592C118.812 151.699 119.169 151.811 119.542 151.928C119.926 152.045 120.284 152.2 120.614 152.392C120.956 152.573 121.233 152.819 121.446 153.128C121.66 153.437 121.766 153.837 121.766 154.328C121.766 154.957 121.596 155.485 121.254 155.912C120.913 156.339 120.449 156.659 119.862 156.872C119.276 157.085 118.614 157.192 117.878 157.192C117.452 157.192 116.998 157.155 116.518 157.08C116.049 157.005 115.564 156.904 115.062 156.776L115.158 154.36H116.566L116.742 155.768L116.55 155.496C116.764 155.56 116.998 155.613 117.254 155.656C117.51 155.688 117.734 155.704 117.926 155.704C118.204 155.704 118.46 155.667 118.694 155.592C118.94 155.517 119.137 155.411 119.286 155.272C119.446 155.123 119.526 154.936 119.526 154.712C119.526 154.456 119.42 154.253 119.206 154.104C118.993 153.955 118.716 153.827 118.374 153.72C118.044 153.613 117.692 153.501 117.318 153.384C116.956 153.267 116.604 153.112 116.262 152.92C115.932 152.728 115.66 152.472 115.446 152.152C115.233 151.832 115.126 151.416 115.126 150.904C115.126 150.285 115.281 149.784 115.59 149.4C115.9 149.005 116.31 148.717 116.822 148.536C117.345 148.355 117.916 148.264 118.534 148.264C118.972 148.264 119.436 148.307 119.926 148.392C120.417 148.467 120.918 148.579 121.43 148.728L121.35 150.872H119.926L119.67 149.608L119.974 149.944C119.473 149.805 119.03 149.736 118.646 149.736C118.252 149.736 117.932 149.816 117.686 149.976C117.452 150.125 117.334 150.339 117.334 150.616Z" fill="#242424"/>
<path d="M108.43 157.192C107.811 157.192 107.262 157.032 106.782 156.712C106.313 156.381 105.939 155.896 105.662 155.256C105.395 154.616 105.262 153.837 105.262 152.92C105.262 151.341 105.662 150.173 106.462 149.416C107.262 148.648 108.387 148.264 109.838 148.264C110.073 148.264 110.307 148.275 110.542 148.296C110.777 148.317 111.022 148.355 111.278 148.408L110.862 148.664V146.024L111.022 146.248L109.71 145.816V144.68L113.102 144.552V155.752L112.83 155.432L114.174 155.848V156.984L111.358 157.112L111.07 155.736L111.294 155.816C110.825 156.275 110.355 156.621 109.886 156.856C109.427 157.08 108.942 157.192 108.43 157.192ZM109.294 155.544C109.571 155.544 109.865 155.469 110.174 155.32C110.483 155.16 110.803 154.931 111.134 154.632L110.862 155.304V149.56L111.134 150.072C110.633 149.933 110.179 149.864 109.774 149.864C109.017 149.864 108.462 150.12 108.11 150.632C107.769 151.133 107.598 151.827 107.598 152.712C107.598 153.288 107.667 153.789 107.806 154.216C107.945 154.643 108.137 154.973 108.382 155.208C108.638 155.432 108.942 155.544 109.294 155.544Z" fill="#242424"/>
<path d="M94.9171 157V155.848L96.2611 155.464L95.9891 155.784V149.688L96.2611 150.056L94.9171 149.656V148.504L97.7331 148.376L98.0211 149.912L97.7331 149.8C98.2451 149.277 98.7891 148.893 99.3651 148.648C99.9411 148.392 100.49 148.264 101.013 148.264C101.738 148.264 102.341 148.493 102.821 148.952C103.301 149.4 103.536 150.083 103.525 151V155.784L103.317 155.464L104.597 155.848V157H100.325V155.848L101.541 155.496L101.285 155.832V151.48C101.285 150.957 101.168 150.573 100.933 150.328C100.709 150.083 100.41 149.96 100.037 149.96C99.7491 149.96 99.4345 150.04 99.0931 150.2C98.7518 150.36 98.4158 150.6 98.0851 150.92L98.2291 150.584V155.832L98.0211 155.496L99.1891 155.848V157H94.9171Z" fill="#242424"/>
<path d="M93.1964 155.864L92.8924 155.416L94.2684 155.848V156.984L91.4684 157.128L91.1644 155.592L91.3244 155.64C90.8977 156.163 90.4337 156.552 89.9324 156.808C89.431 157.064 88.9137 157.192 88.3804 157.192C87.6977 157.192 87.1324 156.973 86.6844 156.536C86.2364 156.099 86.0124 155.469 86.0124 154.648C86.0124 154.04 86.1404 153.56 86.3964 153.208C86.663 152.845 87.047 152.584 87.5484 152.424C88.0497 152.264 88.6577 152.184 89.3724 152.184H91.1164L90.9564 152.36V151.304C90.9564 150.803 90.8337 150.445 90.5884 150.232C90.3537 150.019 90.007 149.912 89.5484 149.912C89.3244 149.912 89.0844 149.933 88.8284 149.976C88.5724 150.019 88.295 150.083 87.9964 150.168L88.2204 149.928L88.0124 151.224H86.6204L86.4924 148.888C87.2177 148.675 87.879 148.52 88.4764 148.424C89.0844 148.317 89.639 148.264 90.1404 148.264C91.1324 148.264 91.8897 148.477 92.4124 148.904C92.935 149.331 93.1964 149.992 93.1964 150.888V155.864ZM88.2684 154.424C88.2684 154.819 88.359 155.112 88.5404 155.304C88.7324 155.485 88.9724 155.576 89.2604 155.576C89.527 155.576 89.8204 155.496 90.1404 155.336C90.4604 155.165 90.7644 154.936 91.0524 154.648L90.9564 155.032V153.208L91.1164 153.368H89.7404C89.1857 153.368 88.8017 153.453 88.5884 153.624C88.375 153.795 88.2684 154.061 88.2684 154.424Z" fill="#242424"/>
<path d="M84.2551 155.688L84.0951 155.496L85.3271 155.848V157H80.9591V155.848L82.1911 155.496L82.0151 155.688V146.008L82.1591 146.168L80.9591 145.832V144.68L84.2551 144.552V155.688Z" fill="#242424"/>
<path d="M75.0996 157.192C74.3636 157.192 73.8036 156.973 73.4196 156.536C73.0463 156.088 72.8596 155.427 72.8596 154.552V149.656L73.1476 149.944H71.6116V148.744L73.1796 148.376L72.8596 148.76V146.584L75.1156 146.184V148.76L74.8756 148.456H77.3076L77.2756 149.944H74.8756L75.1156 149.656V154.248C75.1156 154.707 75.1903 155.037 75.3396 155.24C75.489 155.443 75.713 155.544 76.0116 155.544C76.1823 155.544 76.369 155.517 76.5716 155.464C76.785 155.4 77.0143 155.32 77.2596 155.224L77.6756 156.456C76.7796 156.947 75.921 157.192 75.0996 157.192Z" fill="#242424"/>
<path d="M67.1344 157.192C66.3557 157.192 65.673 157.032 65.0864 156.712C64.4997 156.381 64.041 155.896 63.7104 155.256C63.3904 154.605 63.2304 153.816 63.2304 152.888C63.2304 151.928 63.401 151.107 63.7424 150.424C64.0944 149.731 64.585 149.197 65.2144 148.824C65.8437 148.451 66.585 148.264 67.4384 148.264C68.2704 148.264 68.9477 148.429 69.4704 148.76C69.993 149.091 70.377 149.544 70.6224 150.12C70.8677 150.685 70.9904 151.325 70.9904 152.04C70.9904 152.221 70.9797 152.403 70.9584 152.584C70.9477 152.765 70.9264 152.957 70.8944 153.16H65.0384V151.832H68.9744L68.6864 152.04C68.697 151.613 68.6544 151.24 68.5584 150.92C68.473 150.589 68.3237 150.333 68.1104 150.152C67.9077 149.971 67.625 149.88 67.2624 149.88C66.8464 149.88 66.5104 150.003 66.2544 150.248C65.9984 150.483 65.8117 150.803 65.6944 151.208C65.5877 151.613 65.5344 152.067 65.5344 152.568C65.5344 153.133 65.6037 153.64 65.7424 154.088C65.881 154.536 66.105 154.888 66.4144 155.144C66.7344 155.4 67.1504 155.528 67.6624 155.528C68.025 155.528 68.4144 155.464 68.8304 155.336C69.257 155.197 69.6997 154.995 70.1584 154.728L70.9104 155.928C70.2917 156.355 69.657 156.675 69.0064 156.888C68.3664 157.091 67.7424 157.192 67.1344 157.192Z" fill="#242424"/>
<path d="M53.9748 157V155.848L55.3027 155.464L55.0308 155.88V145.928L55.2067 146.184L53.9748 145.832V144.68L57.2708 144.552V151.912L56.9028 151.576H58.9508L58.4067 151.832L59.8467 149.64L60.0068 149.88L58.8867 149.656V148.52L62.7907 148.392V149.528L61.4468 149.832L62.0547 149.496L60.0868 152.408L60.1188 151.832L62.2308 155.816L61.8948 155.528L63.1107 155.864V157H60.5187L58.4868 152.92L58.8068 153.064H56.9028L57.2708 152.92V155.88L57.0467 155.448L58.2948 155.848V157H53.9748Z" fill="#242424"/>
<path d="M46.9328 157V155.848L48.2288 155.48L48.0047 155.816V149.672L48.2607 150.056L46.9328 149.656V148.504L49.7488 148.376L50.0368 149.896L49.7488 149.832C50.2288 149.331 50.7034 148.947 51.1728 148.68C51.6421 148.403 52.1434 148.264 52.6768 148.264C53.0181 148.264 53.3808 148.317 53.7648 148.424L53.6208 151.336H52.3088L52.0848 149.656L52.2928 150.088C52.2288 150.067 52.1594 150.051 52.0848 150.04C52.0208 150.029 51.9567 150.024 51.8927 150.024C51.5621 150.024 51.2314 150.125 50.9007 150.328C50.5807 150.531 50.3034 150.792 50.0688 151.112L50.2448 150.504V155.816L49.9888 155.48L51.5728 155.848V157H46.9328Z" fill="#242424"/>
<path d="M45.212 155.864L44.908 155.416L46.284 155.848V156.984L43.484 157.128L43.18 155.592L43.34 155.64C42.9133 156.163 42.4493 156.552 41.948 156.808C41.4467 157.064 40.9293 157.192 40.396 157.192C39.7133 157.192 39.148 156.973 38.7 156.536C38.252 156.099 38.028 155.469 38.028 154.648C38.028 154.04 38.156 153.56 38.412 153.208C38.6787 152.845 39.0627 152.584 39.564 152.424C40.0653 152.264 40.6733 152.184 41.388 152.184H43.132L42.972 152.36V151.304C42.972 150.803 42.8493 150.445 42.604 150.232C42.3693 150.019 42.0227 149.912 41.564 149.912C41.34 149.912 41.1 149.933 40.844 149.976C40.588 150.019 40.3107 150.083 40.012 150.168L40.236 149.928L40.028 151.224H38.636L38.508 148.888C39.2333 148.675 39.8947 148.52 40.492 148.424C41.1 148.317 41.6547 148.264 42.156 148.264C43.148 148.264 43.9053 148.477 44.428 148.904C44.9507 149.331 45.212 149.992 45.212 150.888V155.864ZM40.284 154.424C40.284 154.819 40.3747 155.112 40.556 155.304C40.748 155.485 40.988 155.576 41.276 155.576C41.5427 155.576 41.836 155.496 42.156 155.336C42.476 155.165 42.78 154.936 43.068 154.648L42.972 155.032V153.208L43.132 153.368H41.756C41.2013 153.368 40.8173 153.453 40.604 153.624C40.3907 153.795 40.284 154.061 40.284 154.424Z" fill="#242424"/>
<path d="M30.9384 149.752L30.6184 149.832C31.1304 149.309 31.6744 148.92 32.2504 148.664C32.8264 148.397 33.3757 148.264 33.8984 148.264C34.5704 148.264 35.1304 148.488 35.5784 148.936C36.037 149.373 36.2664 150.051 36.2664 150.968V155.784L36.0584 155.464L37.3384 155.848V157H33.1304V155.848L34.2984 155.496L34.0264 155.832V151.464C34.0264 150.952 33.9197 150.573 33.7064 150.328C33.5037 150.083 33.237 149.96 32.9064 149.96C32.629 149.96 32.3197 150.045 31.9784 150.216C31.637 150.387 31.2957 150.637 30.9544 150.968L31.1144 150.472C31.1357 150.557 31.1464 150.637 31.1464 150.712C31.1464 150.776 31.1464 150.835 31.1464 150.888V155.784L30.9384 155.464L32.0584 155.848V157H27.9944V155.848L29.1624 155.496L28.9064 155.832V151.464C28.9064 150.952 28.7997 150.573 28.5864 150.328C28.373 150.083 28.1064 149.96 27.7864 149.96C27.509 149.96 27.1997 150.04 26.8584 150.2C26.517 150.36 26.1864 150.6 25.8664 150.92L26.0104 150.584V155.832L25.8024 155.496L26.9224 155.848V157H22.6984V155.848L24.0424 155.464L23.7704 155.784V149.688L24.0424 150.056L22.6984 149.656V148.504L25.5144 148.376L25.8024 149.912L25.5144 149.8C26.0157 149.299 26.549 148.92 27.1144 148.664C27.6904 148.397 28.2397 148.264 28.7624 148.264C29.253 148.264 29.6904 148.387 30.0744 148.632C30.4584 148.867 30.7464 149.24 30.9384 149.752Z" fill="#242424"/>
</svg>
