<svg width="180" height="180" viewBox="0 0 180 180" fill="none" xmlns="http://www.w3.org/2000/svg">
<mask id="path-1-inside-1_4001_2" fill="white">
<rect width="180" height="180" rx="4"/>
</mask>
<rect width="180" height="180" rx="4" fill="#242424" stroke="white" stroke-width="12" mask="url(#path-1-inside-1_4001_2)"/>
<path d="M139 16H41V66H139V16Z" fill="white"/>
<path d="M179 65H99V115H179V65Z" fill="white"/>
<path d="M71.5725 34.88L70.7725 35.08C72.0525 33.7733 73.4125 32.8 74.8525 32.16C76.2925 31.4933 77.6658 31.16 78.9725 31.16C80.6525 31.16 82.0525 31.72 83.1725 32.84C84.3192 33.9333 84.8925 35.6267 84.8925 37.92V49.96L84.3725 49.16L87.5725 50.12V53H77.0525V50.12L79.9725 49.24L79.2925 50.08V39.16C79.2925 37.88 79.0258 36.9333 78.4925 36.32C77.9858 35.7067 77.3192 35.4 76.4925 35.4C75.7992 35.4 75.0258 35.6133 74.1725 36.04C73.3192 36.4667 72.4658 37.0933 71.6125 37.92L72.0125 36.68C72.0658 36.8933 72.0925 37.0933 72.0925 37.28C72.0925 37.44 72.0925 37.5867 72.0925 37.72V49.96L71.5725 49.16L74.3725 50.12V53H64.2125V50.12L67.1325 49.24L66.4925 50.08V39.16C66.4925 37.88 66.2258 36.9333 65.6925 36.32C65.1592 35.7067 64.4925 35.4 63.6925 35.4C62.9992 35.4 62.2258 35.6 61.3725 36C60.5192 36.4 59.6925 37 58.8925 37.8L59.2525 36.96V50.08L58.7325 49.24L61.5325 50.12V53H50.9725V50.12L54.3325 49.16L53.6525 49.96V34.72L54.3325 35.64L50.9725 34.64V31.76L58.0125 31.44L58.7325 35.28L58.0125 35C59.2658 33.7467 60.5992 32.8 62.0125 32.16C63.4525 31.4933 64.8258 31.16 66.1325 31.16C67.3592 31.16 68.4525 31.4667 69.4125 32.08C70.3725 32.6667 71.0925 33.6 71.5725 34.88ZM107.257 50.16L106.497 49.04L109.937 50.12V52.96L102.937 53.32L102.177 49.48L102.577 49.6C101.51 50.9067 100.35 51.88 99.0966 52.52C97.8432 53.16 96.5499 53.48 95.2166 53.48C93.5099 53.48 92.0966 52.9333 90.9766 51.84C89.8566 50.7467 89.2966 49.1733 89.2966 47.12C89.2966 45.6 89.6166 44.4 90.2566 43.52C90.9232 42.6133 91.8832 41.96 93.1366 41.56C94.3899 41.16 95.9099 40.96 97.6966 40.96H102.057L101.657 41.4V38.76C101.657 37.5067 101.35 36.6133 100.737 36.08C100.15 35.5467 99.2832 35.28 98.1366 35.28C97.5766 35.28 96.9766 35.3333 96.3366 35.44C95.6966 35.5467 95.0032 35.7067 94.2566 35.92L94.8166 35.32L94.2966 38.56H90.8166L90.4966 32.72C92.3099 32.1867 93.9632 31.8 95.4566 31.56C96.9766 31.2933 98.3632 31.16 99.6166 31.16C102.097 31.16 103.99 31.6933 105.297 32.76C106.603 33.8267 107.257 35.48 107.257 37.72V50.16ZM94.9366 46.56C94.9366 47.5467 95.1632 48.28 95.6166 48.76C96.0966 49.2133 96.6966 49.44 97.4166 49.44C98.0832 49.44 98.8166 49.24 99.6166 48.84C100.417 48.4133 101.177 47.84 101.897 47.12L101.657 48.08V43.52L102.057 43.92H98.6166C97.2299 43.92 96.2699 44.1333 95.7366 44.56C95.2032 44.9867 94.9366 45.6533 94.9366 46.56ZM111.558 53V50.12L114.798 49.2L114.238 50.04V34.68L114.878 35.64L111.558 34.64V31.76L118.598 31.44L119.318 35.24L118.598 35.08C119.798 33.8267 120.985 32.8667 122.158 32.2C123.332 31.5067 124.585 31.16 125.918 31.16C126.772 31.16 127.678 31.2933 128.638 31.56L128.278 38.84H124.998L124.438 34.64L124.958 35.72C124.798 35.6667 124.625 35.6267 124.438 35.6C124.278 35.5733 124.118 35.56 123.958 35.56C123.132 35.56 122.305 35.8133 121.478 36.32C120.678 36.8267 119.985 37.48 119.398 38.28L119.838 36.76V50.04L119.198 49.2L123.158 50.12V53H111.558ZM109.32 101V98.12L112.64 97.16L111.96 98.2V73.32L112.4 73.96L109.32 73.08V70.2L117.56 69.88V88.28L116.64 87.44H121.76L120.4 88.08L124 82.6L124.4 83.2L121.6 82.64V79.8L131.36 79.48V82.32L128 83.08L129.52 82.24L124.6 89.52L124.68 88.08L129.96 98.04L129.12 97.32L132.16 98.16V101H125.68L120.6 90.8L121.4 91.16H116.64L117.56 90.8V98.2L117 97.12L120.12 98.12V101H109.32ZM142.219 101.48C140.272 101.48 138.565 101.08 137.099 100.28C135.632 99.4533 134.485 98.24 133.659 96.64C132.859 95.0133 132.459 93.04 132.459 90.72C132.459 88.32 132.885 86.2667 133.739 84.56C134.619 82.8267 135.845 81.4933 137.419 80.56C138.992 79.6267 140.845 79.16 142.979 79.16C145.059 79.16 146.752 79.5733 148.059 80.4C149.365 81.2267 150.325 82.36 150.939 83.8C151.552 85.2133 151.859 86.8133 151.859 88.6C151.859 89.0533 151.832 89.5067 151.779 89.96C151.752 90.4133 151.699 90.8933 151.619 91.4H136.979V88.08H146.819L146.099 88.6C146.125 87.5333 146.019 86.6 145.779 85.8C145.565 84.9733 145.192 84.3333 144.659 83.88C144.152 83.4267 143.445 83.2 142.539 83.2C141.499 83.2 140.659 83.5067 140.019 84.12C139.379 84.7067 138.912 85.5067 138.619 86.52C138.352 87.5333 138.219 88.6667 138.219 89.92C138.219 91.3333 138.392 92.6 138.739 93.72C139.085 94.84 139.645 95.72 140.419 96.36C141.219 97 142.259 97.32 143.539 97.32C144.445 97.32 145.419 97.16 146.459 96.84C147.525 96.4933 148.632 95.9867 149.779 95.32L151.659 98.32C150.112 99.3867 148.525 100.187 146.899 100.72C145.299 101.227 143.739 101.48 142.219 101.48ZM162.132 101.48C160.292 101.48 158.892 100.933 157.932 99.84C156.999 98.72 156.532 97.0667 156.532 94.88V82.64L157.252 83.36H153.412V80.36L157.332 79.44L156.532 80.4V74.96L162.172 73.96V80.4L161.572 79.64H167.652L167.572 83.36H161.572L162.172 82.64V94.12C162.172 95.2667 162.359 96.0933 162.732 96.6C163.105 97.1067 163.665 97.36 164.412 97.36C164.839 97.36 165.305 97.2933 165.812 97.16C166.345 97 166.919 96.8 167.532 96.56L168.572 99.64C166.332 100.867 164.185 101.48 162.132 101.48Z" fill="#242424"/>
<path d="M18.9269 97.72L18.5269 97.24L21.6069 98.12V101H10.6869V98.12L13.7669 97.24L13.3269 97.72V73.52L13.6869 73.92L10.6869 73.08V70.2L18.9269 69.88V97.72ZM41.28 98.16L40.52 97.04L43.96 98.12V100.96L36.96 101.32L36.2 97.48L36.6 97.6C35.5333 98.9067 34.3733 99.88 33.12 100.52C31.8667 101.16 30.5733 101.48 29.24 101.48C27.5333 101.48 26.12 100.933 25 99.84C23.88 98.7467 23.32 97.1733 23.32 95.12C23.32 93.6 23.64 92.4 24.28 91.52C24.9467 90.6133 25.9067 89.96 27.16 89.56C28.4133 89.16 29.9333 88.96 31.72 88.96H36.08L35.68 89.4V86.76C35.68 85.5067 35.3733 84.6133 34.76 84.08C34.1733 83.5467 33.3067 83.28 32.16 83.28C31.6 83.28 31 83.3333 30.36 83.44C29.72 83.5467 29.0267 83.7067 28.28 83.92L28.84 83.32L28.32 86.56H24.84L24.52 80.72C26.3333 80.1867 27.9867 79.8 29.48 79.56C31 79.2933 32.3867 79.16 33.64 79.16C36.12 79.16 38.0133 79.6933 39.32 80.76C40.6267 81.8267 41.28 83.48 41.28 85.72V98.16ZM28.96 94.56C28.96 95.5467 29.1867 96.28 29.64 96.76C30.12 97.2133 30.72 97.44 31.44 97.44C32.1067 97.44 32.84 97.24 33.64 96.84C34.44 96.4133 35.2 95.84 35.92 95.12L35.68 96.08V91.52L36.08 91.92H32.64C31.2533 91.92 30.2933 92.1333 29.76 92.56C29.2267 92.9867 28.96 93.6533 28.96 94.56ZM45.5819 101V98.12L48.9419 97.16L48.2619 97.96V82.72L48.9419 83.64L45.5819 82.64V79.76L52.6219 79.44L53.3419 83.28L52.6219 83C53.9019 81.6933 55.2619 80.7333 56.7019 80.12C58.1419 79.48 59.5152 79.16 60.8219 79.16C62.6352 79.16 64.1419 79.7333 65.3419 80.88C66.5419 82 67.1285 83.7067 67.1019 86V97.96L66.5819 97.16L69.7819 98.12V101H59.1019V98.12L62.1419 97.24L61.5019 98.08V87.2C61.5019 85.8933 61.2085 84.9333 60.6219 84.32C60.0619 83.7067 59.3152 83.4 58.3819 83.4C57.6619 83.4 56.8752 83.6 56.0219 84C55.1685 84.4 54.3285 85 53.5019 85.8L53.8619 84.96V98.08L53.3419 97.24L56.2619 98.12V101H45.5819ZM79.3641 101.48C77.8174 101.48 76.4441 101.08 75.2441 100.28C74.0707 99.4533 73.1374 98.24 72.4441 96.64C71.7774 95.04 71.4441 93.0933 71.4441 90.8C71.4441 86.8533 72.4441 83.9333 74.4441 82.04C76.4441 80.12 79.2574 79.16 82.8841 79.16C83.4707 79.16 84.0574 79.1867 84.6441 79.24C85.2307 79.2933 85.8441 79.3867 86.4841 79.52L85.4441 80.16V73.56L85.8441 74.12L82.5641 73.04V70.2L91.0441 69.88V97.88L90.3641 97.08L93.7241 98.12V100.96L86.6841 101.28L85.9641 97.84L86.5241 98.04C85.3507 99.1867 84.1774 100.053 83.0041 100.64C81.8574 101.2 80.6441 101.48 79.3641 101.48ZM81.5241 97.36C82.2174 97.36 82.9507 97.1733 83.7241 96.8C84.4974 96.4 85.2974 95.8267 86.1241 95.08L85.4441 96.76V82.4L86.1241 83.68C84.8707 83.3333 83.7374 83.16 82.7241 83.16C80.8307 83.16 79.4441 83.8 78.5641 85.08C77.7107 86.3333 77.2841 88.0667 77.2841 90.28C77.2841 91.72 77.4574 92.9733 77.8041 94.04C78.1507 95.1067 78.6307 95.9333 79.2441 96.52C79.8841 97.08 80.6441 97.36 81.5241 97.36ZM42.6208 133.04C42.6208 133.653 42.8874 134.147 43.4208 134.52C43.9541 134.893 44.6341 135.213 45.4608 135.48C46.3141 135.747 47.2074 136.027 48.1408 136.32C49.1008 136.613 49.9941 137 50.8208 137.48C51.6741 137.933 52.3674 138.547 52.9008 139.32C53.4341 140.093 53.7008 141.093 53.7008 142.32C53.7008 143.893 53.2741 145.213 52.4208 146.28C51.5674 147.347 50.4074 148.147 48.9408 148.68C47.4741 149.213 45.8208 149.48 43.9808 149.48C42.9141 149.48 41.7808 149.387 40.5808 149.2C39.4074 149.013 38.1941 148.76 36.9408 148.44L37.1808 142.4H40.7008L41.1408 145.92L40.6608 145.24C41.1941 145.4 41.7808 145.533 42.4208 145.64C43.0608 145.72 43.6208 145.76 44.1008 145.76C44.7941 145.76 45.4341 145.667 46.0208 145.48C46.6341 145.293 47.1274 145.027 47.5008 144.68C47.9008 144.307 48.1008 143.84 48.1008 143.28C48.1008 142.64 47.8341 142.133 47.3008 141.76C46.7674 141.387 46.0741 141.067 45.2208 140.8C44.3941 140.533 43.5141 140.253 42.5808 139.96C41.6741 139.667 40.7941 139.28 39.9408 138.8C39.1141 138.32 38.4341 137.68 37.9008 136.88C37.3674 136.08 37.1008 135.04 37.1008 133.76C37.1008 132.213 37.4874 130.96 38.2608 130C39.0341 129.013 40.0608 128.293 41.3408 127.84C42.6474 127.387 44.0741 127.16 45.6208 127.16C46.7141 127.16 47.8741 127.267 49.1008 127.48C50.3274 127.667 51.5808 127.947 52.8608 128.32L52.6608 133.68H49.1008L48.4608 130.52L49.2208 131.36C47.9674 131.013 46.8608 130.84 45.9008 130.84C44.9141 130.84 44.1141 131.04 43.5008 131.44C42.9141 131.813 42.6208 132.347 42.6208 133.04ZM65.9473 149.48C64.1073 149.48 62.4407 149.053 60.9473 148.2C59.4807 147.32 58.3207 146.067 57.4673 144.44C56.614 142.813 56.1873 140.84 56.1873 138.52C56.1873 136.413 56.494 134.64 57.1073 133.2C57.7207 131.76 58.5473 130.6 59.5873 129.72C60.6273 128.813 61.7873 128.16 63.0673 127.76C64.3473 127.36 65.6673 127.16 67.0273 127.16C68.3073 127.16 69.6007 127.32 70.9073 127.64C72.214 127.96 73.2807 128.32 74.1073 128.72L73.9473 134.6H70.3473L69.7473 131.32L70.1873 131.64C69.7873 131.48 69.294 131.36 68.7073 131.28C68.1473 131.2 67.6273 131.16 67.1473 131.16C66.0007 131.16 65.0407 131.453 64.2673 132.04C63.5207 132.6 62.9607 133.413 62.5873 134.48C62.214 135.52 62.0273 136.76 62.0273 138.2C62.0273 139.747 62.2407 141.053 62.6673 142.12C63.094 143.187 63.694 144 64.4673 144.56C65.2673 145.093 66.1873 145.36 67.2273 145.36C68.054 145.36 68.9607 145.187 69.9473 144.84C70.934 144.493 71.9607 143.973 73.0273 143.28L74.9073 146.12C73.414 147.267 71.9207 148.12 70.4273 148.68C68.934 149.213 67.4407 149.48 65.9473 149.48ZM94.2683 146.16L93.5083 145.04L96.9483 146.12V148.96L89.9483 149.32L89.1883 145.48L89.5883 145.6C88.5216 146.907 87.3616 147.88 86.1083 148.52C84.8549 149.16 83.5616 149.48 82.2283 149.48C80.5216 149.48 79.1083 148.933 77.9883 147.84C76.8683 146.747 76.3083 145.173 76.3083 143.12C76.3083 141.6 76.6283 140.4 77.2683 139.52C77.9349 138.613 78.8949 137.96 80.1483 137.56C81.4016 137.16 82.9216 136.96 84.7083 136.96H89.0683L88.6683 137.4V134.76C88.6683 133.507 88.3616 132.613 87.7483 132.08C87.1616 131.547 86.2949 131.28 85.1483 131.28C84.5883 131.28 83.9883 131.333 83.3483 131.44C82.7083 131.547 82.0149 131.707 81.2683 131.92L81.8283 131.32L81.3083 134.56H77.8283L77.5083 128.72C79.3216 128.187 80.9749 127.8 82.4683 127.56C83.9883 127.293 85.3749 127.16 86.6283 127.16C89.1083 127.16 91.0016 127.693 92.3083 128.76C93.6149 129.827 94.2683 131.48 94.2683 133.72V146.16ZM81.9483 142.56C81.9483 143.547 82.1749 144.28 82.6283 144.76C83.1083 145.213 83.7083 145.44 84.4283 145.44C85.0949 145.44 85.8283 145.24 86.6283 144.84C87.4283 144.413 88.1883 143.84 88.9083 143.12L88.6683 144.08V139.52L89.0683 139.92H85.6283C84.2416 139.92 83.2816 140.133 82.7483 140.56C82.2149 140.987 81.9483 141.653 81.9483 142.56ZM98.2102 158.2V155.32L101.61 154.2L100.89 155.16V130.88L101.53 131.64L98.2102 130.64V127.76L105.25 127.44L105.89 130.92L105.25 130.6C106.503 129.48 107.717 128.627 108.89 128.04C110.09 127.453 111.33 127.16 112.61 127.16C114.157 127.16 115.517 127.573 116.69 128.4C117.863 129.2 118.783 130.4 119.45 132C120.143 133.573 120.49 135.507 120.49 137.8C120.49 140.387 120.05 142.547 119.17 144.28C118.29 146.013 117.05 147.32 115.45 148.2C113.877 149.053 112.037 149.48 109.93 149.48C109.29 149.48 108.623 149.427 107.93 149.32C107.237 149.24 106.517 149.12 105.77 148.96L106.49 148.32V155.16L105.89 154.32L109.61 155.32V158.2H98.2102ZM109.21 145.52C111.103 145.52 112.477 144.88 113.33 143.6C114.21 142.32 114.65 140.573 114.65 138.36C114.65 136.893 114.477 135.64 114.13 134.6C113.783 133.533 113.303 132.72 112.69 132.16C112.077 131.573 111.317 131.28 110.41 131.28C109.717 131.28 108.983 131.467 108.21 131.84C107.437 132.213 106.637 132.787 105.81 133.56L106.49 132.08V146.04L105.81 144.96C107.063 145.333 108.197 145.52 109.21 145.52ZM132.746 149.48C130.799 149.48 129.093 149.08 127.626 148.28C126.159 147.453 125.013 146.24 124.186 144.64C123.386 143.013 122.986 141.04 122.986 138.72C122.986 136.32 123.413 134.267 124.266 132.56C125.146 130.827 126.373 129.493 127.946 128.56C129.519 127.627 131.373 127.16 133.506 127.16C135.586 127.16 137.279 127.573 138.586 128.4C139.893 129.227 140.853 130.36 141.466 131.8C142.079 133.213 142.386 134.813 142.386 136.6C142.386 137.053 142.359 137.507 142.306 137.96C142.279 138.413 142.226 138.893 142.146 139.4H127.506V136.08H137.346L136.626 136.6C136.653 135.533 136.546 134.6 136.306 133.8C136.093 132.973 135.719 132.333 135.186 131.88C134.679 131.427 133.973 131.2 133.066 131.2C132.026 131.2 131.186 131.507 130.546 132.12C129.906 132.707 129.439 133.507 129.146 134.52C128.879 135.533 128.746 136.667 128.746 137.92C128.746 139.333 128.919 140.6 129.266 141.72C129.613 142.84 130.173 143.72 130.946 144.36C131.746 145 132.786 145.32 134.066 145.32C134.973 145.32 135.946 145.16 136.986 144.84C138.053 144.493 139.159 143.987 140.306 143.32L142.186 146.32C140.639 147.387 139.053 148.187 137.426 148.72C135.826 149.227 134.266 149.48 132.746 149.48Z" fill="white"/>
</svg>
