<svg width="172" height="148" viewBox="0 0 172 148" fill="none" xmlns="http://www.w3.org/2000/svg">
<path d="M132 0H34V50H132V0Z" fill="#242424"/>
<path d="M172 50H92V100H172V50Z" fill="#242424"/>
<path d="M64.5725 19.88L63.7725 20.08C65.0525 18.7733 66.4125 17.8 67.8525 17.16C69.2925 16.4933 70.6658 16.16 71.9725 16.16C73.6525 16.16 75.0525 16.72 76.1725 17.84C77.3192 18.9333 77.8925 20.6267 77.8925 22.92V34.96L77.3725 34.16L80.5725 35.12V38H70.0525V35.12L72.9725 34.24L72.2925 35.08V24.16C72.2925 22.88 72.0258 21.9333 71.4925 21.32C70.9858 20.7067 70.3192 20.4 69.4925 20.4C68.7992 20.4 68.0258 20.6133 67.1725 21.04C66.3192 21.4667 65.4658 22.0933 64.6125 22.92L65.0125 21.68C65.0658 21.8933 65.0925 22.0933 65.0925 22.28C65.0925 22.44 65.0925 22.5867 65.0925 22.72V34.96L64.5725 34.16L67.3725 35.12V38H57.2125V35.12L60.1325 34.24L59.4925 35.08V24.16C59.4925 22.88 59.2258 21.9333 58.6925 21.32C58.1592 20.7067 57.4925 20.4 56.6925 20.4C55.9992 20.4 55.2258 20.6 54.3725 21C53.5192 21.4 52.6925 22 51.8925 22.8L52.2525 21.96V35.08L51.7325 34.24L54.5325 35.12V38H43.9725V35.12L47.3325 34.16L46.6525 34.96V19.72L47.3325 20.64L43.9725 19.64V16.76L51.0125 16.44L51.7325 20.28L51.0125 20C52.2658 18.7467 53.5992 17.8 55.0125 17.16C56.4525 16.4933 57.8258 16.16 59.1325 16.16C60.3592 16.16 61.4525 16.4667 62.4125 17.08C63.3725 17.6667 64.0925 18.6 64.5725 19.88ZM100.257 35.16L99.4966 34.04L102.937 35.12V37.96L95.9366 38.32L95.1766 34.48L95.5766 34.6C94.5099 35.9067 93.3499 36.88 92.0966 37.52C90.8432 38.16 89.5499 38.48 88.2166 38.48C86.5099 38.48 85.0966 37.9333 83.9766 36.84C82.8566 35.7467 82.2966 34.1733 82.2966 32.12C82.2966 30.6 82.6166 29.4 83.2566 28.52C83.9232 27.6133 84.8832 26.96 86.1366 26.56C87.3899 26.16 88.9099 25.96 90.6966 25.96H95.0566L94.6566 26.4V23.76C94.6566 22.5067 94.3499 21.6133 93.7366 21.08C93.1499 20.5467 92.2832 20.28 91.1366 20.28C90.5766 20.28 89.9766 20.3333 89.3366 20.44C88.6966 20.5467 88.0032 20.7067 87.2566 20.92L87.8166 20.32L87.2966 23.56H83.8166L83.4966 17.72C85.3099 17.1867 86.9632 16.8 88.4566 16.56C89.9766 16.2933 91.3632 16.16 92.6166 16.16C95.0966 16.16 96.9899 16.6933 98.2966 17.76C99.6032 18.8267 100.257 20.48 100.257 22.72V35.16ZM87.9366 31.56C87.9366 32.5467 88.1632 33.28 88.6166 33.76C89.0966 34.2133 89.6966 34.44 90.4166 34.44C91.0832 34.44 91.8166 34.24 92.6166 33.84C93.4166 33.4133 94.1766 32.84 94.8966 32.12L94.6566 33.08V28.52L95.0566 28.92H91.6166C90.2299 28.92 89.2699 29.1333 88.7366 29.56C88.2032 29.9867 87.9366 30.6533 87.9366 31.56ZM104.558 38V35.12L107.798 34.2L107.238 35.04V19.68L107.878 20.64L104.558 19.64V16.76L111.598 16.44L112.318 20.24L111.598 20.08C112.798 18.8267 113.985 17.8667 115.158 17.2C116.332 16.5067 117.585 16.16 118.918 16.16C119.772 16.16 120.678 16.2933 121.638 16.56L121.278 23.84H117.998L117.438 19.64L117.958 20.72C117.798 20.6667 117.625 20.6267 117.438 20.6C117.278 20.5733 117.118 20.56 116.958 20.56C116.132 20.56 115.305 20.8133 114.478 21.32C113.678 21.8267 112.985 22.48 112.398 23.28L112.838 21.76V35.04L112.198 34.2L116.158 35.12V38H104.558ZM102.32 86V83.12L105.64 82.16L104.96 83.2V58.32L105.4 58.96L102.32 58.08V55.2L110.56 54.88V73.28L109.64 72.44H114.76L113.4 73.08L117 67.6L117.4 68.2L114.6 67.64V64.8L124.36 64.48V67.32L121 68.08L122.52 67.24L117.6 74.52L117.68 73.08L122.96 83.04L122.12 82.32L125.16 83.16V86H118.68L113.6 75.8L114.4 76.16H109.64L110.56 75.8V83.2L110 82.12L113.12 83.12V86H102.32ZM135.219 86.48C133.272 86.48 131.565 86.08 130.099 85.28C128.632 84.4533 127.485 83.24 126.659 81.64C125.859 80.0133 125.459 78.04 125.459 75.72C125.459 73.32 125.885 71.2667 126.739 69.56C127.619 67.8267 128.845 66.4933 130.419 65.56C131.992 64.6267 133.845 64.16 135.979 64.16C138.059 64.16 139.752 64.5733 141.059 65.4C142.365 66.2267 143.325 67.36 143.939 68.8C144.552 70.2133 144.859 71.8133 144.859 73.6C144.859 74.0533 144.832 74.5067 144.779 74.96C144.752 75.4133 144.699 75.8933 144.619 76.4H129.979V73.08H139.819L139.099 73.6C139.125 72.5333 139.019 71.6 138.779 70.8C138.565 69.9733 138.192 69.3333 137.659 68.88C137.152 68.4267 136.445 68.2 135.539 68.2C134.499 68.2 133.659 68.5067 133.019 69.12C132.379 69.7067 131.912 70.5067 131.619 71.52C131.352 72.5333 131.219 73.6667 131.219 74.92C131.219 76.3333 131.392 77.6 131.739 78.72C132.085 79.84 132.645 80.72 133.419 81.36C134.219 82 135.259 82.32 136.539 82.32C137.445 82.32 138.419 82.16 139.459 81.84C140.525 81.4933 141.632 80.9867 142.779 80.32L144.659 83.32C143.112 84.3867 141.525 85.1867 139.899 85.72C138.299 86.2267 136.739 86.48 135.219 86.48ZM155.132 86.48C153.292 86.48 151.892 85.9333 150.932 84.84C149.999 83.72 149.532 82.0667 149.532 79.88V67.64L150.252 68.36H146.412V65.36L150.332 64.44L149.532 65.4V59.96L155.172 58.96V65.4L154.572 64.64H160.652L160.572 68.36H154.572L155.172 67.64V79.12C155.172 80.2667 155.359 81.0933 155.732 81.6C156.105 82.1067 156.665 82.36 157.412 82.36C157.839 82.36 158.305 82.2933 158.812 82.16C159.345 82 159.919 81.8 160.532 81.56L161.572 84.64C159.332 85.8667 157.185 86.48 155.132 86.48Z" fill="white"/>
<path d="M11.9269 82.72L11.5269 82.24L14.6069 83.12V86H3.68688V83.12L6.76688 82.24L6.32688 82.72V58.52L6.68688 58.92L3.68688 58.08V55.2L11.9269 54.88V82.72ZM34.28 83.16L33.52 82.04L36.96 83.12V85.96L29.96 86.32L29.2 82.48L29.6 82.6C28.5333 83.9067 27.3733 84.88 26.12 85.52C24.8667 86.16 23.5733 86.48 22.24 86.48C20.5333 86.48 19.12 85.9333 18 84.84C16.88 83.7467 16.32 82.1733 16.32 80.12C16.32 78.6 16.64 77.4 17.28 76.52C17.9467 75.6133 18.9067 74.96 20.16 74.56C21.4133 74.16 22.9333 73.96 24.72 73.96H29.08L28.68 74.4V71.76C28.68 70.5067 28.3733 69.6133 27.76 69.08C27.1733 68.5467 26.3067 68.28 25.16 68.28C24.6 68.28 24 68.3333 23.36 68.44C22.72 68.5467 22.0267 68.7067 21.28 68.92L21.84 68.32L21.32 71.56H17.84L17.52 65.72C19.3333 65.1867 20.9867 64.8 22.48 64.56C24 64.2933 25.3867 64.16 26.64 64.16C29.12 64.16 31.0133 64.6933 32.32 65.76C33.6267 66.8267 34.28 68.48 34.28 70.72V83.16ZM21.96 79.56C21.96 80.5467 22.1867 81.28 22.64 81.76C23.12 82.2133 23.72 82.44 24.44 82.44C25.1067 82.44 25.84 82.24 26.64 81.84C27.44 81.4133 28.2 80.84 28.92 80.12L28.68 81.08V76.52L29.08 76.92H25.64C24.2533 76.92 23.2933 77.1333 22.76 77.56C22.2267 77.9867 21.96 78.6533 21.96 79.56ZM38.5819 86V83.12L41.9419 82.16L41.2619 82.96V67.72L41.9419 68.64L38.5819 67.64V64.76L45.6219 64.44L46.3419 68.28L45.6219 68C46.9019 66.6933 48.2619 65.7333 49.7019 65.12C51.1419 64.48 52.5152 64.16 53.8219 64.16C55.6352 64.16 57.1419 64.7333 58.3419 65.88C59.5419 67 60.1285 68.7067 60.1019 71V82.96L59.5819 82.16L62.7819 83.12V86H52.1019V83.12L55.1419 82.24L54.5019 83.08V72.2C54.5019 70.8933 54.2085 69.9333 53.6219 69.32C53.0619 68.7067 52.3152 68.4 51.3819 68.4C50.6619 68.4 49.8752 68.6 49.0219 69C48.1685 69.4 47.3285 70 46.5019 70.8L46.8619 69.96V83.08L46.3419 82.24L49.2619 83.12V86H38.5819ZM72.3641 86.48C70.8174 86.48 69.4441 86.08 68.2441 85.28C67.0707 84.4533 66.1374 83.24 65.4441 81.64C64.7774 80.04 64.4441 78.0933 64.4441 75.8C64.4441 71.8533 65.4441 68.9333 67.4441 67.04C69.4441 65.12 72.2574 64.16 75.8841 64.16C76.4707 64.16 77.0574 64.1867 77.6441 64.24C78.2307 64.2933 78.8441 64.3867 79.4841 64.52L78.4441 65.16V58.56L78.8441 59.12L75.5641 58.04V55.2L84.0441 54.88V82.88L83.3641 82.08L86.7241 83.12V85.96L79.6841 86.28L78.9641 82.84L79.5241 83.04C78.3507 84.1867 77.1774 85.0533 76.0041 85.64C74.8574 86.2 73.6441 86.48 72.3641 86.48ZM74.5241 82.36C75.2174 82.36 75.9507 82.1733 76.7241 81.8C77.4974 81.4 78.2974 80.8267 79.1241 80.08L78.4441 81.76V67.4L79.1241 68.68C77.8707 68.3333 76.7374 68.16 75.7241 68.16C73.8307 68.16 72.4441 68.8 71.5641 70.08C70.7107 71.3333 70.2841 73.0667 70.2841 75.28C70.2841 76.72 70.4574 77.9733 70.8041 79.04C71.1507 80.1067 71.6307 80.9333 72.2441 81.52C72.8841 82.08 73.6441 82.36 74.5241 82.36ZM35.6208 118.04C35.6208 118.653 35.8874 119.147 36.4208 119.52C36.9541 119.893 37.6341 120.213 38.4608 120.48C39.3141 120.747 40.2074 121.027 41.1408 121.32C42.1008 121.613 42.9941 122 43.8208 122.48C44.6741 122.933 45.3674 123.547 45.9008 124.32C46.4341 125.093 46.7008 126.093 46.7008 127.32C46.7008 128.893 46.2741 130.213 45.4208 131.28C44.5674 132.347 43.4074 133.147 41.9408 133.68C40.4741 134.213 38.8208 134.48 36.9808 134.48C35.9141 134.48 34.7808 134.387 33.5808 134.2C32.4074 134.013 31.1941 133.76 29.9408 133.44L30.1808 127.4H33.7008L34.1408 130.92L33.6608 130.24C34.1941 130.4 34.7808 130.533 35.4208 130.64C36.0608 130.72 36.6208 130.76 37.1008 130.76C37.7941 130.76 38.4341 130.667 39.0208 130.48C39.6341 130.293 40.1274 130.027 40.5008 129.68C40.9008 129.307 41.1008 128.84 41.1008 128.28C41.1008 127.64 40.8341 127.133 40.3008 126.76C39.7674 126.387 39.0741 126.067 38.2208 125.8C37.3941 125.533 36.5141 125.253 35.5808 124.96C34.6741 124.667 33.7941 124.28 32.9408 123.8C32.1141 123.32 31.4341 122.68 30.9008 121.88C30.3674 121.08 30.1008 120.04 30.1008 118.76C30.1008 117.213 30.4874 115.96 31.2608 115C32.0341 114.013 33.0608 113.293 34.3408 112.84C35.6474 112.387 37.0741 112.16 38.6208 112.16C39.7141 112.16 40.8741 112.267 42.1008 112.48C43.3274 112.667 44.5808 112.947 45.8608 113.32L45.6608 118.68H42.1008L41.4608 115.52L42.2208 116.36C40.9674 116.013 39.8608 115.84 38.9008 115.84C37.9141 115.84 37.1141 116.04 36.5008 116.44C35.9141 116.813 35.6208 117.347 35.6208 118.04ZM58.9473 134.48C57.1073 134.48 55.4407 134.053 53.9473 133.2C52.4807 132.32 51.3207 131.067 50.4673 129.44C49.614 127.813 49.1873 125.84 49.1873 123.52C49.1873 121.413 49.494 119.64 50.1073 118.2C50.7207 116.76 51.5473 115.6 52.5873 114.72C53.6273 113.813 54.7873 113.16 56.0673 112.76C57.3473 112.36 58.6673 112.16 60.0273 112.16C61.3073 112.16 62.6007 112.32 63.9073 112.64C65.214 112.96 66.2807 113.32 67.1073 113.72L66.9473 119.6H63.3473L62.7473 116.32L63.1873 116.64C62.7873 116.48 62.294 116.36 61.7073 116.28C61.1473 116.2 60.6273 116.16 60.1473 116.16C59.0007 116.16 58.0407 116.453 57.2673 117.04C56.5207 117.6 55.9607 118.413 55.5873 119.48C55.214 120.52 55.0273 121.76 55.0273 123.2C55.0273 124.747 55.2407 126.053 55.6673 127.12C56.094 128.187 56.694 129 57.4673 129.56C58.2673 130.093 59.1873 130.36 60.2273 130.36C61.054 130.36 61.9607 130.187 62.9473 129.84C63.934 129.493 64.9607 128.973 66.0273 128.28L67.9073 131.12C66.414 132.267 64.9207 133.12 63.4273 133.68C61.934 134.213 60.4407 134.48 58.9473 134.48ZM87.2683 131.16L86.5083 130.04L89.9483 131.12V133.96L82.9483 134.32L82.1883 130.48L82.5883 130.6C81.5216 131.907 80.3616 132.88 79.1083 133.52C77.8549 134.16 76.5616 134.48 75.2283 134.48C73.5216 134.48 72.1083 133.933 70.9883 132.84C69.8683 131.747 69.3083 130.173 69.3083 128.12C69.3083 126.6 69.6283 125.4 70.2683 124.52C70.9349 123.613 71.8949 122.96 73.1483 122.56C74.4016 122.16 75.9216 121.96 77.7083 121.96H82.0683L81.6683 122.4V119.76C81.6683 118.507 81.3616 117.613 80.7483 117.08C80.1616 116.547 79.2949 116.28 78.1483 116.28C77.5883 116.28 76.9883 116.333 76.3483 116.44C75.7083 116.547 75.0149 116.707 74.2683 116.92L74.8283 116.32L74.3083 119.56H70.8283L70.5083 113.72C72.3216 113.187 73.9749 112.8 75.4683 112.56C76.9883 112.293 78.3749 112.16 79.6283 112.16C82.1083 112.16 84.0016 112.693 85.3083 113.76C86.6149 114.827 87.2683 116.48 87.2683 118.72V131.16ZM74.9483 127.56C74.9483 128.547 75.1749 129.28 75.6283 129.76C76.1083 130.213 76.7083 130.44 77.4283 130.44C78.0949 130.44 78.8283 130.24 79.6283 129.84C80.4283 129.413 81.1883 128.84 81.9083 128.12L81.6683 129.08V124.52L82.0683 124.92H78.6283C77.2416 124.92 76.2816 125.133 75.7483 125.56C75.2149 125.987 74.9483 126.653 74.9483 127.56ZM91.2102 143.2V140.32L94.6102 139.2L93.8902 140.16V115.88L94.5302 116.64L91.2102 115.64V112.76L98.2502 112.44L98.8902 115.92L98.2502 115.6C99.5035 114.48 100.717 113.627 101.89 113.04C103.09 112.453 104.33 112.16 105.61 112.16C107.157 112.16 108.517 112.573 109.69 113.4C110.863 114.2 111.783 115.4 112.45 117C113.143 118.573 113.49 120.507 113.49 122.8C113.49 125.387 113.05 127.547 112.17 129.28C111.29 131.013 110.05 132.32 108.45 133.2C106.877 134.053 105.037 134.48 102.93 134.48C102.29 134.48 101.623 134.427 100.93 134.32C100.237 134.24 99.5168 134.12 98.7702 133.96L99.4902 133.32V140.16L98.8902 139.32L102.61 140.32V143.2H91.2102ZM102.21 130.52C104.103 130.52 105.477 129.88 106.33 128.6C107.21 127.32 107.65 125.573 107.65 123.36C107.65 121.893 107.477 120.64 107.13 119.6C106.783 118.533 106.303 117.72 105.69 117.16C105.077 116.573 104.317 116.28 103.41 116.28C102.717 116.28 101.983 116.467 101.21 116.84C100.437 117.213 99.6368 117.787 98.8102 118.56L99.4902 117.08V131.04L98.8102 129.96C100.063 130.333 101.197 130.52 102.21 130.52ZM125.746 134.48C123.799 134.48 122.093 134.08 120.626 133.28C119.159 132.453 118.013 131.24 117.186 129.64C116.386 128.013 115.986 126.04 115.986 123.72C115.986 121.32 116.413 119.267 117.266 117.56C118.146 115.827 119.373 114.493 120.946 113.56C122.519 112.627 124.373 112.16 126.506 112.16C128.586 112.16 130.279 112.573 131.586 113.4C132.893 114.227 133.853 115.36 134.466 116.8C135.079 118.213 135.386 119.813 135.386 121.6C135.386 122.053 135.359 122.507 135.306 122.96C135.279 123.413 135.226 123.893 135.146 124.4H120.506V121.08H130.346L129.626 121.6C129.653 120.533 129.546 119.6 129.306 118.8C129.093 117.973 128.719 117.333 128.186 116.88C127.679 116.427 126.973 116.2 126.066 116.2C125.026 116.2 124.186 116.507 123.546 117.12C122.906 117.707 122.439 118.507 122.146 119.52C121.879 120.533 121.746 121.667 121.746 122.92C121.746 124.333 121.919 125.6 122.266 126.72C122.613 127.84 123.173 128.72 123.946 129.36C124.746 130 125.786 130.32 127.066 130.32C127.973 130.32 128.946 130.16 129.986 129.84C131.053 129.493 132.159 128.987 133.306 128.32L135.186 131.32C133.639 132.387 132.053 133.187 130.426 133.72C128.826 134.227 127.266 134.48 125.746 134.48Z" fill="#242424"/>
</svg>
