<svg width="180" height="180" viewBox="0 0 180 180" fill="none" xmlns="http://www.w3.org/2000/svg">
<g clip-path="url(#clip0_9001_2)">
<path d="M180 0H0V180H180V0Z" fill="#242424"/>
<path d="M178 2H2V178H178V2Z" stroke="white" stroke-width="6"/>
<path d="M81.4605 78.7L79.4606 79.2C82.6606 75.9333 86.0606 73.5 89.6606 71.9C93.2605 70.2333 96.6939 69.4 99.9606 69.4C104.161 69.4 107.661 70.8 110.461 73.6C113.327 76.3333 114.761 80.5667 114.761 86.3V116.4L113.461 114.4L121.461 116.8V124H95.1606V116.8L102.461 114.6L100.761 116.7V89.4C100.761 86.2 100.094 83.8333 98.7605 82.3C97.4939 80.7667 95.8272 80 93.7606 80C92.0272 80 90.0939 80.5333 87.9605 81.6C85.8272 82.6667 83.6939 84.2333 81.5605 86.3L82.5605 83.2C82.6939 83.7333 82.7606 84.2333 82.7606 84.7C82.7606 85.1 82.7606 85.4667 82.7606 85.8V116.4L81.4605 114.4L88.4605 116.8V124H63.0605V116.8L70.3605 114.6L68.7605 116.7V89.4C68.7605 86.2 68.0939 83.8333 66.7605 82.3C65.4272 80.7667 63.7605 80 61.7605 80C60.0272 80 58.0939 80.5 55.9605 81.5C53.8272 82.5 51.7605 84 49.7605 86L50.6605 83.9V116.7L49.3605 114.6L56.3605 116.8V124H29.9605V116.8L38.3605 114.4L36.6605 116.4V78.3L38.3605 80.6L29.9605 78.1V70.9L47.5605 70.1L49.3605 79.7L47.5605 79C50.6939 75.8667 54.0272 73.5 57.5605 71.9C61.1605 70.2333 64.5939 69.4 67.8605 69.4C70.9272 69.4 73.6605 70.1667 76.0605 71.7C78.4605 73.1667 80.2605 75.5 81.4605 78.7ZM144.671 115.8L143.671 114.6L151.371 116.8V124H124.071V116.8L131.771 114.6L130.671 115.8V55.3L131.571 56.3L124.071 54.2V47L144.671 46.2V115.8Z" fill="white"/>
<path d="M35.1297 148.205L34.8297 148.28C35.3097 147.79 35.8197 147.425 36.3597 147.185C36.8997 146.935 37.4147 146.81 37.9047 146.81C38.5347 146.81 39.0597 147.02 39.4797 147.44C39.9097 147.85 40.1247 148.485 40.1247 149.345V153.86L39.9297 153.56L41.1297 153.92V155H37.1847V153.92L38.2797 153.59L38.0247 153.905V149.81C38.0247 149.33 37.9247 148.975 37.7247 148.745C37.5347 148.515 37.2847 148.4 36.9747 148.4C36.7147 148.4 36.4247 148.48 36.1047 148.64C35.7847 148.8 35.4647 149.035 35.1447 149.345L35.2947 148.88C35.3147 148.96 35.3247 149.035 35.3247 149.105C35.3247 149.165 35.3247 149.22 35.3247 149.27V153.86L35.1297 153.56L36.1797 153.92V155H32.3697V153.92L33.4647 153.59L33.2247 153.905V149.81C33.2247 149.33 33.1247 148.975 32.9247 148.745C32.7247 148.515 32.4747 148.4 32.1747 148.4C31.9147 148.4 31.6247 148.475 31.3047 148.625C30.9847 148.775 30.6747 149 30.3747 149.3L30.5097 148.985V153.905L30.3147 153.59L31.3647 153.92V155H27.4047V153.92L28.6647 153.56L28.4097 153.86V148.145L28.6647 148.49L27.4047 148.115V147.035L30.0447 146.915L30.3147 148.355L30.0447 148.25C30.5147 147.78 31.0147 147.425 31.5447 147.185C32.0847 146.935 32.5997 146.81 33.0897 146.81C33.5497 146.81 33.9597 146.925 34.3197 147.155C34.6797 147.375 34.9497 147.725 35.1297 148.205ZM48.5113 153.935L48.2263 153.515L49.5163 153.92V154.985L46.8913 155.12L46.6063 153.68L46.7563 153.725C46.3563 154.215 45.9213 154.58 45.4513 154.82C44.9813 155.06 44.4963 155.18 43.9963 155.18C43.3563 155.18 42.8263 154.975 42.4063 154.565C41.9863 154.155 41.7762 153.565 41.7762 152.795C41.7762 152.225 41.8963 151.775 42.1363 151.445C42.3863 151.105 42.7463 150.86 43.2163 150.71C43.6863 150.56 44.2563 150.485 44.9263 150.485H46.5613L46.4113 150.65V149.66C46.4113 149.19 46.2963 148.855 46.0663 148.655C45.8463 148.455 45.5213 148.355 45.0913 148.355C44.8813 148.355 44.6563 148.375 44.4163 148.415C44.1763 148.455 43.9163 148.515 43.6363 148.595L43.8463 148.37L43.6513 149.585H42.3463L42.2263 147.395C42.9063 147.195 43.5263 147.05 44.0863 146.96C44.6563 146.86 45.1763 146.81 45.6463 146.81C46.5763 146.81 47.2863 147.01 47.7763 147.41C48.2663 147.81 48.5113 148.43 48.5113 149.27V153.935ZM43.8913 152.585C43.8913 152.955 43.9763 153.23 44.1463 153.41C44.3263 153.58 44.5513 153.665 44.8213 153.665C45.0713 153.665 45.3463 153.59 45.6463 153.44C45.9463 153.28 46.2313 153.065 46.5013 152.795L46.4113 153.155V151.445L46.5613 151.595H45.2713C44.7513 151.595 44.3913 151.675 44.1913 151.835C43.9913 151.995 43.8913 152.245 43.8913 152.585ZM50.1245 155V153.92L51.3395 153.575L51.1295 153.89V148.13L51.3695 148.49L50.1245 148.115V147.035L52.7645 146.915L53.0345 148.34L52.7645 148.28C53.2145 147.81 53.6595 147.45 54.0995 147.2C54.5395 146.94 55.0095 146.81 55.5095 146.81C55.8295 146.81 56.1695 146.86 56.5295 146.96L56.3945 149.69H55.1645L54.9545 148.115L55.1495 148.52C55.0895 148.5 55.0245 148.485 54.9545 148.475C54.8945 148.465 54.8345 148.46 54.7745 148.46C54.4645 148.46 54.1545 148.555 53.8445 148.745C53.5445 148.935 53.2845 149.18 53.0645 149.48L53.2295 148.91V153.89L52.9895 153.575L54.4745 153.92V155H50.1245ZM56.7263 155V153.92L57.9713 153.56L57.7163 153.95V144.62L57.8813 144.86L56.7263 144.53V143.45L59.8163 143.33V150.23L59.4713 149.915H61.3913L60.8813 150.155L62.2313 148.1L62.3813 148.325L61.3313 148.115V147.05L64.9913 146.93V147.995L63.7313 148.28L64.3013 147.965L62.4563 150.695L62.4863 150.155L64.4663 153.89L64.1513 153.62L65.2913 153.935V155H62.8613L60.9563 151.175L61.2563 151.31H59.4713L59.8163 151.175V153.95L59.6063 153.545L60.7763 153.92V155H56.7263ZM69.0635 155.18C68.3335 155.18 67.6935 155.03 67.1435 154.73C66.5935 154.42 66.1635 153.965 65.8535 153.365C65.5535 152.755 65.4035 152.015 65.4035 151.145C65.4035 150.245 65.5635 149.475 65.8835 148.835C66.2135 148.185 66.6735 147.685 67.2635 147.335C67.8535 146.985 68.5485 146.81 69.3485 146.81C70.1285 146.81 70.7635 146.965 71.2535 147.275C71.7435 147.585 72.1035 148.01 72.3335 148.55C72.5635 149.08 72.6785 149.68 72.6785 150.35C72.6785 150.52 72.6685 150.69 72.6485 150.86C72.6385 151.03 72.6185 151.21 72.5885 151.4H67.0985V150.155H70.7885L70.5185 150.35C70.5285 149.95 70.4885 149.6 70.3985 149.3C70.3185 148.99 70.1785 148.75 69.9785 148.58C69.7885 148.41 69.5235 148.325 69.1835 148.325C68.7935 148.325 68.4785 148.44 68.2385 148.67C67.9985 148.89 67.8235 149.19 67.7135 149.57C67.6135 149.95 67.5635 150.375 67.5635 150.845C67.5635 151.375 67.6285 151.85 67.7585 152.27C67.8885 152.69 68.0985 153.02 68.3885 153.26C68.6885 153.5 69.0785 153.62 69.5585 153.62C69.8985 153.62 70.2635 153.56 70.6535 153.44C71.0535 153.31 71.4685 153.12 71.8985 152.87L72.6035 153.995C72.0235 154.395 71.4285 154.695 70.8185 154.895C70.2185 155.085 69.6335 155.18 69.0635 155.18ZM76.5309 155.18C75.8409 155.18 75.3159 154.975 74.9559 154.565C74.6059 154.145 74.4309 153.525 74.4309 152.705V148.115L74.7009 148.385H73.2609V147.26L74.7309 146.915L74.4309 147.275V145.235L76.5459 144.86V147.275L76.3209 146.99H78.6009L78.5709 148.385H76.3209L76.5459 148.115V152.42C76.5459 152.85 76.6159 153.16 76.7559 153.35C76.8959 153.54 77.1059 153.635 77.3859 153.635C77.5459 153.635 77.7209 153.61 77.9109 153.56C78.1109 153.5 78.3259 153.425 78.5559 153.335L78.9459 154.49C78.1059 154.95 77.3009 155.18 76.5309 155.18ZM85.1142 153.77L84.9642 153.59L86.1192 153.92V155H82.0242V153.92L83.1792 153.59L83.0142 153.77V144.695L83.1492 144.845L82.0242 144.53V143.45L85.1142 143.33V153.77ZM93.4966 153.935L93.2116 153.515L94.5016 153.92V154.985L91.8766 155.12L91.5916 153.68L91.7416 153.725C91.3416 154.215 90.9066 154.58 90.4366 154.82C89.9666 155.06 89.4816 155.18 88.9816 155.18C88.3416 155.18 87.8116 154.975 87.3916 154.565C86.9716 154.155 86.7616 153.565 86.7616 152.795C86.7616 152.225 86.8816 151.775 87.1216 151.445C87.3716 151.105 87.7316 150.86 88.2016 150.71C88.6716 150.56 89.2416 150.485 89.9116 150.485H91.5466L91.3966 150.65V149.66C91.3966 149.19 91.2816 148.855 91.0516 148.655C90.8316 148.455 90.5066 148.355 90.0766 148.355C89.8666 148.355 89.6416 148.375 89.4016 148.415C89.1616 148.455 88.9016 148.515 88.6216 148.595L88.8316 148.37L88.6366 149.585H87.3316L87.2116 147.395C87.8916 147.195 88.5116 147.05 89.0716 146.96C89.6416 146.86 90.1616 146.81 90.6316 146.81C91.5616 146.81 92.2716 147.01 92.7616 147.41C93.2516 147.81 93.4966 148.43 93.4966 149.27V153.935ZM88.8766 152.585C88.8766 152.955 88.9616 153.23 89.1316 153.41C89.3116 153.58 89.5366 153.665 89.8066 153.665C90.0566 153.665 90.3316 153.59 90.6316 153.44C90.9316 153.28 91.2166 153.065 91.4866 152.795L91.3966 153.155V151.445L91.5466 151.595H90.2566C89.7366 151.595 89.3766 151.675 89.1766 151.835C88.9766 151.995 88.8766 152.245 88.8766 152.585ZM95.1098 155V153.92L96.3698 153.56L96.1148 153.86V148.145L96.3698 148.49L95.1098 148.115V147.035L97.7498 146.915L98.0198 148.355L97.7498 148.25C98.2298 147.76 98.7398 147.4 99.2798 147.17C99.8198 146.93 100.335 146.81 100.825 146.81C101.505 146.81 102.07 147.025 102.52 147.455C102.97 147.875 103.19 148.515 103.18 149.375V153.86L102.985 153.56L104.185 153.92V155H100.18V153.92L101.32 153.59L101.08 153.905V149.825C101.08 149.335 100.97 148.975 100.75 148.745C100.54 148.515 100.26 148.4 99.9098 148.4C99.6398 148.4 99.3448 148.475 99.0248 148.625C98.7048 148.775 98.3898 149 98.0798 149.3L98.2148 148.985V153.905L98.0198 153.59L99.1148 153.92V155H95.1098ZM107.778 155.18C107.198 155.18 106.683 155.03 106.233 154.73C105.793 154.42 105.443 153.965 105.183 153.365C104.933 152.765 104.808 152.035 104.808 151.175C104.808 149.695 105.183 148.6 105.933 147.89C106.683 147.17 107.738 146.81 109.098 146.81C109.318 146.81 109.538 146.82 109.758 146.84C109.978 146.86 110.208 146.895 110.448 146.945L110.058 147.185V144.71L110.208 144.92L108.978 144.515V143.45L112.158 143.33V153.83L111.903 153.53L113.163 153.92V154.985L110.523 155.105L110.253 153.815L110.463 153.89C110.023 154.32 109.583 154.645 109.143 154.865C108.713 155.075 108.258 155.18 107.778 155.18ZM108.588 153.635C108.848 153.635 109.123 153.565 109.413 153.425C109.703 153.275 110.003 153.06 110.313 152.78L110.058 153.41V148.025L110.313 148.505C109.843 148.375 109.418 148.31 109.038 148.31C108.328 148.31 107.808 148.55 107.478 149.03C107.158 149.5 106.998 150.15 106.998 150.98C106.998 151.52 107.063 151.99 107.193 152.39C107.323 152.79 107.503 153.1 107.733 153.32C107.973 153.53 108.258 153.635 108.588 153.635ZM116.126 149.015C116.126 149.245 116.226 149.43 116.426 149.57C116.626 149.71 116.881 149.83 117.191 149.93C117.511 150.03 117.846 150.135 118.196 150.245C118.556 150.355 118.891 150.5 119.201 150.68C119.521 150.85 119.781 151.08 119.981 151.37C120.181 151.66 120.281 152.035 120.281 152.495C120.281 153.085 120.121 153.58 119.801 153.98C119.481 154.38 119.046 154.68 118.496 154.88C117.946 155.08 117.326 155.18 116.636 155.18C116.236 155.18 115.811 155.145 115.361 155.075C114.921 155.005 114.466 154.91 113.996 154.79L114.086 152.525H115.406L115.571 153.845L115.391 153.59C115.591 153.65 115.811 153.7 116.051 153.74C116.291 153.77 116.501 153.785 116.681 153.785C116.941 153.785 117.181 153.75 117.401 153.68C117.631 153.61 117.816 153.51 117.956 153.38C118.106 153.24 118.181 153.065 118.181 152.855C118.181 152.615 118.081 152.425 117.881 152.285C117.681 152.145 117.421 152.025 117.101 151.925C116.791 151.825 116.461 151.72 116.111 151.61C115.771 151.5 115.441 151.355 115.121 151.175C114.811 150.995 114.556 150.755 114.356 150.455C114.156 150.155 114.056 149.765 114.056 149.285C114.056 148.705 114.201 148.235 114.491 147.875C114.781 147.505 115.166 147.235 115.646 147.065C116.136 146.895 116.671 146.81 117.251 146.81C117.661 146.81 118.096 146.85 118.556 146.93C119.016 147 119.486 147.105 119.966 147.245L119.891 149.255H118.556L118.316 148.07L118.601 148.385C118.131 148.255 117.716 148.19 117.356 148.19C116.986 148.19 116.686 148.265 116.456 148.415C116.236 148.555 116.126 148.755 116.126 149.015ZM124.873 155.18C124.183 155.18 123.558 155.02 122.998 154.7C122.448 154.37 122.013 153.9 121.693 153.29C121.373 152.68 121.213 151.94 121.213 151.07C121.213 150.28 121.328 149.615 121.558 149.075C121.788 148.535 122.098 148.1 122.488 147.77C122.878 147.43 123.313 147.185 123.793 147.035C124.273 146.885 124.768 146.81 125.278 146.81C125.758 146.81 126.243 146.87 126.733 146.99C127.223 147.11 127.623 147.245 127.933 147.395L127.873 149.6H126.523L126.298 148.37L126.463 148.49C126.313 148.43 126.128 148.385 125.908 148.355C125.698 148.325 125.503 148.31 125.323 148.31C124.893 148.31 124.533 148.42 124.243 148.64C123.963 148.85 123.753 149.155 123.613 149.555C123.473 149.945 123.403 150.41 123.403 150.95C123.403 151.53 123.483 152.02 123.643 152.42C123.803 152.82 124.028 153.125 124.318 153.335C124.618 153.535 124.963 153.635 125.353 153.635C125.663 153.635 126.003 153.57 126.373 153.44C126.743 153.31 127.128 153.115 127.528 152.855L128.233 153.92C127.673 154.35 127.113 154.67 126.553 154.88C125.993 155.08 125.433 155.18 124.873 155.18ZM135.494 153.935L135.209 153.515L136.499 153.92V154.985L133.874 155.12L133.589 153.68L133.739 153.725C133.339 154.215 132.904 154.58 132.434 154.82C131.964 155.06 131.479 155.18 130.979 155.18C130.339 155.18 129.809 154.975 129.389 154.565C128.969 154.155 128.759 153.565 128.759 152.795C128.759 152.225 128.879 151.775 129.119 151.445C129.369 151.105 129.729 150.86 130.199 150.71C130.669 150.56 131.239 150.485 131.909 150.485H133.544L133.394 150.65V149.66C133.394 149.19 133.279 148.855 133.049 148.655C132.829 148.455 132.504 148.355 132.074 148.355C131.864 148.355 131.639 148.375 131.399 148.415C131.159 148.455 130.899 148.515 130.619 148.595L130.829 148.37L130.634 149.585H129.329L129.209 147.395C129.889 147.195 130.509 147.05 131.069 146.96C131.639 146.86 132.159 146.81 132.629 146.81C133.559 146.81 134.269 147.01 134.759 147.41C135.249 147.81 135.494 148.43 135.494 149.27V153.935ZM130.874 152.585C130.874 152.955 130.959 153.23 131.129 153.41C131.309 153.58 131.534 153.665 131.804 153.665C132.054 153.665 132.329 153.59 132.629 153.44C132.929 153.28 133.214 153.065 133.484 152.795L133.394 153.155V151.445L133.544 151.595H132.254C131.734 151.595 131.374 151.675 131.174 151.835C130.974 151.995 130.874 152.245 130.874 152.585ZM136.972 158.45V157.37L138.247 156.95L137.977 157.31V148.205L138.217 148.49L136.972 148.115V147.035L139.612 146.915L139.852 148.22L139.612 148.1C140.082 147.68 140.537 147.36 140.977 147.14C141.427 146.92 141.892 146.81 142.372 146.81C142.952 146.81 143.462 146.965 143.902 147.275C144.342 147.575 144.687 148.025 144.937 148.625C145.197 149.215 145.327 149.94 145.327 150.8C145.327 151.77 145.162 152.58 144.832 153.23C144.502 153.88 144.037 154.37 143.437 154.7C142.847 155.02 142.157 155.18 141.367 155.18C141.127 155.18 140.877 155.16 140.617 155.12C140.357 155.09 140.087 155.045 139.807 154.985L140.077 154.745V157.31L139.852 156.995L141.247 157.37V158.45H136.972ZM141.097 153.695C141.807 153.695 142.322 153.455 142.642 152.975C142.972 152.495 143.137 151.84 143.137 151.01C143.137 150.46 143.072 149.99 142.942 149.6C142.812 149.2 142.632 148.895 142.402 148.685C142.172 148.465 141.887 148.355 141.547 148.355C141.287 148.355 141.012 148.425 140.722 148.565C140.432 148.705 140.132 148.92 139.822 149.21L140.077 148.655V153.89L139.822 153.485C140.292 153.625 140.717 153.695 141.097 153.695ZM149.923 155.18C149.193 155.18 148.553 155.03 148.003 154.73C147.453 154.42 147.023 153.965 146.713 153.365C146.413 152.755 146.263 152.015 146.263 151.145C146.263 150.245 146.423 149.475 146.743 148.835C147.073 148.185 147.533 147.685 148.123 147.335C148.713 146.985 149.408 146.81 150.208 146.81C150.988 146.81 151.623 146.965 152.113 147.275C152.603 147.585 152.963 148.01 153.193 148.55C153.423 149.08 153.538 149.68 153.538 150.35C153.538 150.52 153.528 150.69 153.508 150.86C153.498 151.03 153.478 151.21 153.448 151.4H147.958V150.155H151.648L151.378 150.35C151.388 149.95 151.348 149.6 151.258 149.3C151.178 148.99 151.038 148.75 150.838 148.58C150.648 148.41 150.383 148.325 150.043 148.325C149.653 148.325 149.338 148.44 149.098 148.67C148.858 148.89 148.683 149.19 148.573 149.57C148.473 149.95 148.423 150.375 148.423 150.845C148.423 151.375 148.488 151.85 148.618 152.27C148.748 152.69 148.958 153.02 149.248 153.26C149.548 153.5 149.938 153.62 150.418 153.62C150.758 153.62 151.123 153.56 151.513 153.44C151.913 153.31 152.328 153.12 152.758 152.87L153.463 153.995C152.883 154.395 152.288 154.695 151.678 154.895C151.078 155.085 150.493 155.18 149.923 155.18Z" fill="white"/>
</g>
<defs>
<clipPath id="clip0_9001_2">
<rect width="180" height="180" fill="white"/>
</clipPath>
</defs>
</svg>
