<svg width="180" height="180" viewBox="0 0 180 180" fill="none" xmlns="http://www.w3.org/2000/svg">
<g clip-path="url(#clip0_10001_2)">
<path d="M180 0H0V180H180V0Z" fill="#242424"/>
<path d="M178 2H2V178H178V2Z" stroke="white" stroke-width="6"/>
<path d="M45.3043 124V116.8L53.7043 114.4L52.0043 116.4V78.3L53.7043 80.6L45.3043 78.1V70.9L62.9043 70.1L64.7043 79.7L62.9043 79C66.1043 75.7333 69.5043 73.3333 73.1043 71.8C76.7043 70.2 80.1376 69.4 83.4043 69.4C87.9376 69.4 91.7043 70.8333 94.7043 73.7C97.7043 76.5 99.171 80.7667 99.1043 86.5V116.4L97.8043 114.4L105.804 116.8V124H79.1043V116.8L86.7043 114.6L85.1043 116.7V89.5C85.1043 86.2333 84.371 83.8333 82.9043 82.3C81.5043 80.7667 79.6376 80 77.3043 80C75.5043 80 73.5376 80.5 71.4043 81.5C69.271 82.5 67.171 84 65.1043 86L66.0043 83.9V116.7L64.7043 114.6L72.0043 116.8V124H45.3043ZM130.36 115.8L129.36 114.6L137.06 116.8V124H109.66V116.8L117.36 114.6L116.36 115.8V79.3L117.26 80.2L109.66 78.1V70.9L130.36 70.2V115.8ZM122.96 62.4C120.493 62.4 118.493 61.7 116.96 60.3C115.493 58.9 114.76 56.9 114.76 54.3C114.76 51.5 115.526 49.4333 117.06 48.1C118.66 46.7 120.66 46 123.06 46C125.393 46 127.326 46.7 128.86 48.1C130.393 49.4333 131.16 51.4667 131.16 54.2C131.16 56.9333 130.36 59 128.76 60.4C127.226 61.7333 125.293 62.4 122.96 62.4Z" fill="white"/>
<path d="M31.477 155V153.92L32.737 153.56L32.482 153.86V148.145L32.737 148.49L31.477 148.115V147.035L34.117 146.915L34.387 148.355L34.117 148.25C34.597 147.76 35.107 147.4 35.647 147.17C36.187 146.93 36.702 146.81 37.192 146.81C37.872 146.81 38.437 147.025 38.887 147.455C39.337 147.875 39.557 148.515 39.547 149.375V153.86L39.352 153.56L40.552 153.92V155H36.547V153.92L37.687 153.59L37.447 153.905V149.825C37.447 149.335 37.337 148.975 37.117 148.745C36.907 148.515 36.627 148.4 36.277 148.4C36.007 148.4 35.712 148.475 35.392 148.625C35.072 148.775 34.757 149 34.447 149.3L34.582 148.985V153.905L34.387 153.59L35.482 153.92V155H31.477ZM47.9253 153.935L47.6403 153.515L48.9303 153.92V154.985L46.3053 155.12L46.0203 153.68L46.1703 153.725C45.7703 154.215 45.3353 154.58 44.8653 154.82C44.3953 155.06 43.9103 155.18 43.4103 155.18C42.7703 155.18 42.2403 154.975 41.8203 154.565C41.4003 154.155 41.1903 153.565 41.1903 152.795C41.1903 152.225 41.3103 151.775 41.5503 151.445C41.8003 151.105 42.1603 150.86 42.6303 150.71C43.1003 150.56 43.6703 150.485 44.3403 150.485H45.9753L45.8253 150.65V149.66C45.8253 149.19 45.7103 148.855 45.4803 148.655C45.2603 148.455 44.9353 148.355 44.5053 148.355C44.2953 148.355 44.0703 148.375 43.8303 148.415C43.5903 148.455 43.3303 148.515 43.0503 148.595L43.2603 148.37L43.0653 149.585H41.7603L41.6403 147.395C42.3203 147.195 42.9403 147.05 43.5003 146.96C44.0703 146.86 44.5903 146.81 45.0603 146.81C45.9903 146.81 46.7003 147.01 47.1903 147.41C47.6803 147.81 47.9253 148.43 47.9253 149.27V153.935ZM43.3053 152.585C43.3053 152.955 43.3903 153.23 43.5603 153.41C43.7403 153.58 43.9653 153.665 44.2353 153.665C44.4853 153.665 44.7603 153.59 45.0603 153.44C45.3603 153.28 45.6453 153.065 45.9153 152.795L45.8253 153.155V151.445L45.9753 151.595H44.6853C44.1653 151.595 43.8053 151.675 43.6053 151.835C43.4053 151.995 43.3053 152.245 43.3053 152.585ZM53.5087 147.05L56.8987 146.93V147.995L56.0437 148.37L56.3287 148.055L53.8537 155.03H51.3937L49.2187 148.13L49.5187 148.37L48.6187 148.13V147.05L52.2937 146.93V147.995L51.1987 148.325L51.3487 148.055L52.8787 153.695H52.7137L54.4087 148.175L54.5287 148.34L53.5087 148.13V147.05ZM60.3339 153.77L60.1839 153.59L61.3389 153.92V155H57.2289V153.92L58.3839 153.59L58.2339 153.77V148.295L58.3689 148.43L57.2289 148.115V147.035L60.3339 146.93V153.77ZM59.2239 145.76C58.8539 145.76 58.5539 145.655 58.3239 145.445C58.1039 145.235 57.9939 144.935 57.9939 144.545C57.9939 144.125 58.1089 143.815 58.3389 143.615C58.5789 143.405 58.8789 143.3 59.2389 143.3C59.5889 143.3 59.8789 143.405 60.1089 143.615C60.3389 143.815 60.4539 144.12 60.4539 144.53C60.4539 144.94 60.3339 145.25 60.0939 145.46C59.8639 145.66 59.5739 145.76 59.2239 145.76ZM65.4693 158.63C64.2193 158.63 63.2893 158.465 62.6793 158.135C62.0693 157.805 61.7643 157.315 61.7643 156.665C61.7643 156.165 61.9343 155.745 62.2743 155.405C62.6243 155.075 63.1343 154.8 63.8043 154.58L63.7743 155C63.3943 154.97 63.0843 154.87 62.8443 154.7C62.6043 154.53 62.4843 154.305 62.4843 154.025C62.4843 153.935 62.4993 153.84 62.5293 153.74C62.5593 153.64 62.6143 153.515 62.6943 153.365C62.7743 153.205 62.8843 153.01 63.0243 152.78C63.1643 152.55 63.3393 152.26 63.5493 151.91L63.5793 152.255C63.0793 152.025 62.6993 151.7 62.4393 151.28C62.1793 150.86 62.0493 150.36 62.0493 149.78C62.0493 148.85 62.3643 148.125 62.9943 147.605C63.6343 147.075 64.5193 146.81 65.6493 146.81C66.4593 146.81 67.1493 146.95 67.7193 147.23L67.2393 147.14L69.7443 147.05V148.175L68.5593 148.415L68.6943 148.19C68.8443 148.37 68.9593 148.58 69.0393 148.82C69.1193 149.06 69.1593 149.335 69.1593 149.645C69.1593 150.575 68.8343 151.31 68.1843 151.85C67.5343 152.38 66.6593 152.645 65.5593 152.645C65.0393 152.645 64.5393 152.575 64.0593 152.435L64.4043 152.225L64.1643 153.83L63.8493 153.68H66.8493C67.8593 153.68 68.6243 153.875 69.1443 154.265C69.6643 154.655 69.9243 155.225 69.9243 155.975C69.9243 156.835 69.5493 157.49 68.7993 157.94C68.0593 158.4 66.9493 158.63 65.4693 158.63ZM65.6493 157.16C66.4493 157.16 67.0243 157.075 67.3743 156.905C67.7343 156.735 67.9143 156.485 67.9143 156.155C67.9143 155.835 67.7943 155.6 67.5543 155.45C67.3143 155.3 66.9693 155.225 66.5193 155.225H63.9093L64.4043 155.12C63.8643 155.46 63.5943 155.845 63.5943 156.275C63.5943 156.565 63.7593 156.785 64.0893 156.935C64.4193 157.085 64.9393 157.16 65.6493 157.16ZM65.5593 151.235C66.0493 151.235 66.4243 151.105 66.6843 150.845C66.9443 150.585 67.0743 150.2 67.0743 149.69C67.0743 149.18 66.9543 148.81 66.7143 148.58C66.4743 148.34 66.1143 148.22 65.6343 148.22C65.1443 148.22 64.7743 148.345 64.5243 148.595C64.2743 148.845 64.1493 149.22 64.1493 149.72C64.1493 150.21 64.2693 150.585 64.5093 150.845C64.7493 151.105 65.0993 151.235 65.5593 151.235ZM77.2222 153.935L76.9372 153.515L78.2272 153.92V154.985L75.6022 155.12L75.3172 153.68L75.4672 153.725C75.0672 154.215 74.6322 154.58 74.1622 154.82C73.6922 155.06 73.2072 155.18 72.7072 155.18C72.0672 155.18 71.5372 154.975 71.1172 154.565C70.6972 154.155 70.4872 153.565 70.4872 152.795C70.4872 152.225 70.6072 151.775 70.8472 151.445C71.0972 151.105 71.4572 150.86 71.9272 150.71C72.3972 150.56 72.9672 150.485 73.6372 150.485H75.2722L75.1222 150.65V149.66C75.1222 149.19 75.0072 148.855 74.7772 148.655C74.5572 148.455 74.2322 148.355 73.8022 148.355C73.5922 148.355 73.3672 148.375 73.1272 148.415C72.8872 148.455 72.6272 148.515 72.3472 148.595L72.5572 148.37L72.3622 149.585H71.0572L70.9372 147.395C71.6172 147.195 72.2372 147.05 72.7972 146.96C73.3672 146.86 73.8872 146.81 74.3572 146.81C75.2872 146.81 75.9972 147.01 76.4872 147.41C76.9772 147.81 77.2222 148.43 77.2222 149.27V153.935ZM72.6022 152.585C72.6022 152.955 72.6872 153.23 72.8572 153.41C73.0372 153.58 73.2622 153.665 73.5322 153.665C73.7822 153.665 74.0572 153.59 74.3572 153.44C74.6572 153.28 74.9422 153.065 75.2122 152.795L75.1222 153.155V151.445L75.2722 151.595H73.9822C73.4622 151.595 73.1022 151.675 72.9022 151.835C72.7022 151.995 72.6022 152.245 72.6022 152.585ZM81.7604 155.18C81.0704 155.18 80.5454 154.975 80.1854 154.565C79.8354 154.145 79.6604 153.525 79.6604 152.705V148.115L79.9304 148.385H78.4904V147.26L79.9604 146.915L79.6604 147.275V145.235L81.7754 144.86V147.275L81.5504 146.99H83.8304L83.8004 148.385H81.5504L81.7754 148.115V152.42C81.7754 152.85 81.8454 153.16 81.9854 153.35C82.1254 153.54 82.3354 153.635 82.6154 153.635C82.7754 153.635 82.9504 153.61 83.1404 153.56C83.3404 153.5 83.5554 153.425 83.7854 153.335L84.1754 154.49C83.3354 154.95 82.5304 155.18 81.7604 155.18ZM87.8584 153.77L87.7084 153.59L88.8634 153.92V155H84.7534V153.92L85.9084 153.59L85.7584 153.77V148.295L85.8934 148.43L84.7534 148.115V147.035L87.8584 146.93V153.77ZM86.7484 145.76C86.3784 145.76 86.0784 145.655 85.8484 145.445C85.6284 145.235 85.5184 144.935 85.5184 144.545C85.5184 144.125 85.6334 143.815 85.8634 143.615C86.1034 143.405 86.4034 143.3 86.7634 143.3C87.1134 143.3 87.4034 143.405 87.6334 143.615C87.8634 143.815 87.9784 144.12 87.9784 144.53C87.9784 144.94 87.8584 145.25 87.6184 145.46C87.3884 145.66 87.0984 145.76 86.7484 145.76ZM93.5338 146.81C94.7138 146.81 95.6338 147.16 96.2938 147.86C96.9538 148.56 97.2838 149.555 97.2838 150.845C97.2838 151.745 97.1238 152.52 96.8037 153.17C96.4838 153.81 96.0238 154.305 95.4238 154.655C94.8238 155.005 94.1038 155.18 93.2638 155.18C92.0838 155.18 91.1688 154.83 90.5188 154.13C89.8788 153.43 89.5588 152.435 89.5588 151.145C89.5588 150.245 89.7138 149.475 90.0238 148.835C90.3438 148.185 90.7988 147.685 91.3888 147.335C91.9788 146.985 92.6938 146.81 93.5338 146.81ZM93.4288 148.31C92.8588 148.31 92.4338 148.535 92.1538 148.985C91.8738 149.425 91.7338 150.11 91.7338 151.04C91.7338 151.97 91.8688 152.645 92.1388 153.065C92.4088 153.475 92.8188 153.68 93.3688 153.68C93.7688 153.68 94.0938 153.58 94.3438 153.38C94.5938 153.18 94.7838 152.875 94.9138 152.465C95.0438 152.055 95.1088 151.55 95.1088 150.95C95.1088 150.04 94.9688 149.375 94.6888 148.955C94.4088 148.525 93.9888 148.31 93.4288 148.31ZM98.186 155V153.92L99.446 153.56L99.191 153.86V148.145L99.446 148.49L98.186 148.115V147.035L100.826 146.915L101.096 148.355L100.826 148.25C101.306 147.76 101.816 147.4 102.356 147.17C102.896 146.93 103.411 146.81 103.901 146.81C104.581 146.81 105.146 147.025 105.596 147.455C106.046 147.875 106.266 148.515 106.256 149.375V153.86L106.061 153.56L107.261 153.92V155H103.256V153.92L104.396 153.59L104.156 153.905V149.825C104.156 149.335 104.046 148.975 103.826 148.745C103.616 148.515 103.336 148.4 102.986 148.4C102.716 148.4 102.421 148.475 102.101 148.625C101.781 148.775 101.466 149 101.156 149.3L101.291 148.985V153.905L101.096 153.59L102.191 153.92V155H98.186ZM113.64 153.77L113.49 153.59L114.645 153.92V155H110.535V153.92L111.69 153.59L111.54 153.77V148.295L111.675 148.43L110.535 148.115V147.035L113.64 146.93V153.77ZM112.53 145.76C112.16 145.76 111.86 145.655 111.63 145.445C111.41 145.235 111.3 144.935 111.3 144.545C111.3 144.125 111.415 143.815 111.645 143.615C111.885 143.405 112.185 143.3 112.545 143.3C112.895 143.3 113.185 143.405 113.415 143.615C113.645 143.815 113.76 144.12 113.76 144.53C113.76 144.94 113.64 145.25 113.4 145.46C113.17 145.66 112.88 145.76 112.53 145.76ZM115.31 155V153.92L116.57 153.56L116.315 153.86V148.145L116.57 148.49L115.31 148.115V147.035L117.95 146.915L118.22 148.355L117.95 148.25C118.43 147.76 118.94 147.4 119.48 147.17C120.02 146.93 120.535 146.81 121.025 146.81C121.705 146.81 122.27 147.025 122.72 147.455C123.17 147.875 123.39 148.515 123.38 149.375V153.86L123.185 153.56L124.385 153.92V155H120.38V153.92L121.52 153.59L121.28 153.905V149.825C121.28 149.335 121.17 148.975 120.95 148.745C120.74 148.515 120.46 148.4 120.11 148.4C119.84 148.4 119.545 148.475 119.225 148.625C118.905 148.775 118.59 149 118.28 149.3L118.415 148.985V153.905L118.22 153.59L119.315 153.92V155H115.31ZM127.978 155.18C127.398 155.18 126.883 155.03 126.433 154.73C125.993 154.42 125.643 153.965 125.383 153.365C125.133 152.765 125.008 152.035 125.008 151.175C125.008 149.695 125.383 148.6 126.133 147.89C126.883 147.17 127.938 146.81 129.298 146.81C129.518 146.81 129.738 146.82 129.958 146.84C130.178 146.86 130.408 146.895 130.648 146.945L130.258 147.185V144.71L130.408 144.92L129.178 144.515V143.45L132.358 143.33V153.83L132.103 153.53L133.363 153.92V154.985L130.723 155.105L130.453 153.815L130.663 153.89C130.223 154.32 129.783 154.645 129.343 154.865C128.913 155.075 128.458 155.18 127.978 155.18ZM128.788 153.635C129.048 153.635 129.323 153.565 129.613 153.425C129.903 153.275 130.203 153.06 130.513 152.78L130.258 153.41V148.025L130.513 148.505C130.043 148.375 129.618 148.31 129.238 148.31C128.528 148.31 128.008 148.55 127.678 149.03C127.358 149.5 127.198 150.15 127.198 150.98C127.198 151.52 127.263 151.99 127.393 152.39C127.523 152.79 127.703 153.1 127.933 153.32C128.173 153.53 128.458 153.635 128.788 153.635ZM137.706 155.18C136.976 155.18 136.336 155.03 135.786 154.73C135.236 154.42 134.806 153.965 134.496 153.365C134.196 152.755 134.046 152.015 134.046 151.145C134.046 150.245 134.206 149.475 134.526 148.835C134.856 148.185 135.316 147.685 135.906 147.335C136.496 146.985 137.191 146.81 137.991 146.81C138.771 146.81 139.406 146.965 139.896 147.275C140.386 147.585 140.746 148.01 140.976 148.55C141.206 149.08 141.321 149.68 141.321 150.35C141.321 150.52 141.311 150.69 141.291 150.86C141.281 151.03 141.261 151.21 141.231 151.4H135.741V150.155H139.431L139.161 150.35C139.171 149.95 139.131 149.6 139.041 149.3C138.961 148.99 138.821 148.75 138.621 148.58C138.431 148.41 138.166 148.325 137.826 148.325C137.436 148.325 137.121 148.44 136.881 148.67C136.641 148.89 136.466 149.19 136.356 149.57C136.256 149.95 136.206 150.375 136.206 150.845C136.206 151.375 136.271 151.85 136.401 152.27C136.531 152.69 136.741 153.02 137.031 153.26C137.331 153.5 137.721 153.62 138.201 153.62C138.541 153.62 138.906 153.56 139.296 153.44C139.696 153.31 140.111 153.12 140.541 152.87L141.246 153.995C140.666 154.395 140.071 154.695 139.461 154.895C138.861 155.085 138.276 155.18 137.706 155.18ZM141.568 155V153.935L142.813 153.65L142.303 153.935L144.658 150.68L145.138 150.635L147.553 147.05L149.608 146.93V147.995L148.333 148.325L148.933 147.995L146.653 151.07L146.203 151.1L143.638 155H141.568ZM145.798 155V153.92L146.773 153.74L146.653 154.025L144.778 151.37L142.363 148.01L142.783 148.37L141.748 148.13V147.05L145.468 146.93V147.995L144.463 148.22L144.613 147.905L146.248 150.275L148.933 153.92L148.573 153.635L149.773 153.92V155H145.798Z" fill="white"/>
</g>
<defs>
<clipPath id="clip0_10001_2">
<rect width="180" height="180" fill="white"/>
</clipPath>
</defs>
</svg>
