<svg width="182" height="182" viewBox="0 0 182 182" fill="none" xmlns="http://www.w3.org/2000/svg">
<path d="M181 1H1V181H181V1Z" fill="white"/>
<path d="M179 3H3V179H179V3Z" stroke="#242424" stroke-width="6"/>
<path d="M46.3043 125V117.8L54.7043 115.4L53.0043 117.4V79.3L54.7043 81.6L46.3043 79.1V71.9L63.9043 71.1L65.7043 80.7L63.9043 80C67.1043 76.7333 70.5043 74.3333 74.1043 72.8C77.7043 71.2 81.1376 70.4 84.4043 70.4C88.9376 70.4 92.7043 71.8333 95.7043 74.7C98.7043 77.5 100.171 81.7667 100.104 87.5V117.4L98.8043 115.4L106.804 117.8V125H80.1043V117.8L87.7043 115.6L86.1043 117.7V90.5C86.1043 87.2333 85.371 84.8333 83.9043 83.3C82.5043 81.7667 80.6376 81 78.3043 81C76.5043 81 74.5376 81.5 72.4043 82.5C70.271 83.5 68.171 85 66.1043 87L67.0043 84.9V117.7L65.7043 115.6L73.0043 117.8V125H46.3043ZM131.36 116.8L130.36 115.6L138.06 117.8V125H110.66V117.8L118.36 115.6L117.36 116.8V80.3L118.26 81.2L110.66 79.1V71.9L131.36 71.2V116.8ZM123.96 63.4C121.493 63.4 119.493 62.7 117.96 61.3C116.493 59.9 115.76 57.9 115.76 55.3C115.76 52.5 116.526 50.4333 118.06 49.1C119.66 47.7 121.66 47 124.06 47C126.393 47 128.326 47.7 129.86 49.1C131.393 50.4333 132.16 52.4667 132.16 55.2C132.16 57.9333 131.36 60 129.76 61.4C128.226 62.7333 126.293 63.4 123.96 63.4Z" fill="#242424"/>
<path d="M32.477 156V154.92L33.737 154.56L33.482 154.86V149.145L33.737 149.49L32.477 149.115V148.035L35.117 147.915L35.387 149.355L35.117 149.25C35.597 148.76 36.107 148.4 36.647 148.17C37.187 147.93 37.702 147.81 38.192 147.81C38.872 147.81 39.437 148.025 39.887 148.455C40.337 148.875 40.557 149.515 40.547 150.375V154.86L40.352 154.56L41.552 154.92V156H37.547V154.92L38.687 154.59L38.447 154.905V150.825C38.447 150.335 38.337 149.975 38.117 149.745C37.907 149.515 37.627 149.4 37.277 149.4C37.007 149.4 36.712 149.475 36.392 149.625C36.072 149.775 35.757 150 35.447 150.3L35.582 149.985V154.905L35.387 154.59L36.482 154.92V156H32.477ZM48.9253 154.935L48.6403 154.515L49.9303 154.92V155.985L47.3053 156.12L47.0203 154.68L47.1703 154.725C46.7703 155.215 46.3353 155.58 45.8653 155.82C45.3953 156.06 44.9103 156.18 44.4103 156.18C43.7703 156.18 43.2403 155.975 42.8203 155.565C42.4003 155.155 42.1903 154.565 42.1903 153.795C42.1903 153.225 42.3103 152.775 42.5503 152.445C42.8003 152.105 43.1603 151.86 43.6303 151.71C44.1003 151.56 44.6703 151.485 45.3403 151.485H46.9753L46.8253 151.65V150.66C46.8253 150.19 46.7103 149.855 46.4803 149.655C46.2603 149.455 45.9353 149.355 45.5053 149.355C45.2953 149.355 45.0703 149.375 44.8303 149.415C44.5903 149.455 44.3303 149.515 44.0503 149.595L44.2603 149.37L44.0653 150.585H42.7603L42.6403 148.395C43.3203 148.195 43.9403 148.05 44.5003 147.96C45.0703 147.86 45.5903 147.81 46.0603 147.81C46.9903 147.81 47.7003 148.01 48.1903 148.41C48.6803 148.81 48.9253 149.43 48.9253 150.27V154.935ZM44.3053 153.585C44.3053 153.955 44.3903 154.23 44.5603 154.41C44.7403 154.58 44.9653 154.665 45.2353 154.665C45.4853 154.665 45.7603 154.59 46.0603 154.44C46.3603 154.28 46.6453 154.065 46.9153 153.795L46.8253 154.155V152.445L46.9753 152.595H45.6853C45.1653 152.595 44.8053 152.675 44.6053 152.835C44.4053 152.995 44.3053 153.245 44.3053 153.585ZM54.5087 148.05L57.8987 147.93V148.995L57.0437 149.37L57.3287 149.055L54.8537 156.03H52.3937L50.2187 149.13L50.5187 149.37L49.6187 149.13V148.05L53.2937 147.93V148.995L52.1987 149.325L52.3487 149.055L53.8787 154.695H53.7137L55.4087 149.175L55.5287 149.34L54.5087 149.13V148.05ZM61.3339 154.77L61.1839 154.59L62.3389 154.92V156H58.2289V154.92L59.3839 154.59L59.2339 154.77V149.295L59.3689 149.43L58.2289 149.115V148.035L61.3339 147.93V154.77ZM60.2239 146.76C59.8539 146.76 59.5539 146.655 59.3239 146.445C59.1039 146.235 58.9939 145.935 58.9939 145.545C58.9939 145.125 59.1089 144.815 59.3389 144.615C59.5789 144.405 59.8789 144.3 60.2389 144.3C60.5889 144.3 60.8789 144.405 61.1089 144.615C61.3389 144.815 61.4539 145.12 61.4539 145.53C61.4539 145.94 61.3339 146.25 61.0939 146.46C60.8639 146.66 60.5739 146.76 60.2239 146.76ZM66.4693 159.63C65.2193 159.63 64.2893 159.465 63.6793 159.135C63.0693 158.805 62.7643 158.315 62.7643 157.665C62.7643 157.165 62.9343 156.745 63.2743 156.405C63.6243 156.075 64.1343 155.8 64.8043 155.58L64.7743 156C64.3943 155.97 64.0843 155.87 63.8443 155.7C63.6043 155.53 63.4843 155.305 63.4843 155.025C63.4843 154.935 63.4993 154.84 63.5293 154.74C63.5593 154.64 63.6143 154.515 63.6943 154.365C63.7743 154.205 63.8843 154.01 64.0243 153.78C64.1643 153.55 64.3393 153.26 64.5493 152.91L64.5793 153.255C64.0793 153.025 63.6993 152.7 63.4393 152.28C63.1793 151.86 63.0493 151.36 63.0493 150.78C63.0493 149.85 63.3643 149.125 63.9943 148.605C64.6343 148.075 65.5193 147.81 66.6493 147.81C67.4593 147.81 68.1493 147.95 68.7193 148.23L68.2393 148.14L70.7443 148.05V149.175L69.5593 149.415L69.6943 149.19C69.8443 149.37 69.9593 149.58 70.0393 149.82C70.1193 150.06 70.1593 150.335 70.1593 150.645C70.1593 151.575 69.8343 152.31 69.1843 152.85C68.5343 153.38 67.6593 153.645 66.5593 153.645C66.0393 153.645 65.5393 153.575 65.0593 153.435L65.4043 153.225L65.1643 154.83L64.8493 154.68H67.8493C68.8593 154.68 69.6243 154.875 70.1443 155.265C70.6643 155.655 70.9243 156.225 70.9243 156.975C70.9243 157.835 70.5493 158.49 69.7993 158.94C69.0593 159.4 67.9493 159.63 66.4693 159.63ZM66.6493 158.16C67.4493 158.16 68.0243 158.075 68.3743 157.905C68.7343 157.735 68.9143 157.485 68.9143 157.155C68.9143 156.835 68.7943 156.6 68.5543 156.45C68.3143 156.3 67.9693 156.225 67.5193 156.225H64.9093L65.4043 156.12C64.8643 156.46 64.5943 156.845 64.5943 157.275C64.5943 157.565 64.7593 157.785 65.0893 157.935C65.4193 158.085 65.9393 158.16 66.6493 158.16ZM66.5593 152.235C67.0493 152.235 67.4243 152.105 67.6843 151.845C67.9443 151.585 68.0743 151.2 68.0743 150.69C68.0743 150.18 67.9543 149.81 67.7143 149.58C67.4743 149.34 67.1143 149.22 66.6343 149.22C66.1443 149.22 65.7743 149.345 65.5243 149.595C65.2743 149.845 65.1493 150.22 65.1493 150.72C65.1493 151.21 65.2693 151.585 65.5093 151.845C65.7493 152.105 66.0993 152.235 66.5593 152.235ZM78.2222 154.935L77.9372 154.515L79.2272 154.92V155.985L76.6022 156.12L76.3172 154.68L76.4672 154.725C76.0672 155.215 75.6322 155.58 75.1622 155.82C74.6922 156.06 74.2072 156.18 73.7072 156.18C73.0672 156.18 72.5372 155.975 72.1172 155.565C71.6972 155.155 71.4872 154.565 71.4872 153.795C71.4872 153.225 71.6072 152.775 71.8472 152.445C72.0972 152.105 72.4572 151.86 72.9272 151.71C73.3972 151.56 73.9672 151.485 74.6372 151.485H76.2722L76.1222 151.65V150.66C76.1222 150.19 76.0072 149.855 75.7772 149.655C75.5572 149.455 75.2322 149.355 74.8022 149.355C74.5922 149.355 74.3672 149.375 74.1272 149.415C73.8872 149.455 73.6272 149.515 73.3472 149.595L73.5572 149.37L73.3622 150.585H72.0572L71.9372 148.395C72.6172 148.195 73.2372 148.05 73.7972 147.96C74.3672 147.86 74.8872 147.81 75.3572 147.81C76.2872 147.81 76.9972 148.01 77.4872 148.41C77.9772 148.81 78.2222 149.43 78.2222 150.27V154.935ZM73.6022 153.585C73.6022 153.955 73.6872 154.23 73.8572 154.41C74.0372 154.58 74.2622 154.665 74.5322 154.665C74.7822 154.665 75.0572 154.59 75.3572 154.44C75.6572 154.28 75.9422 154.065 76.2122 153.795L76.1222 154.155V152.445L76.2722 152.595H74.9822C74.4622 152.595 74.1022 152.675 73.9022 152.835C73.7022 152.995 73.6022 153.245 73.6022 153.585ZM82.7604 156.18C82.0704 156.18 81.5454 155.975 81.1854 155.565C80.8354 155.145 80.6604 154.525 80.6604 153.705V149.115L80.9304 149.385H79.4904V148.26L80.9604 147.915L80.6604 148.275V146.235L82.7754 145.86V148.275L82.5504 147.99H84.8304L84.8004 149.385H82.5504L82.7754 149.115V153.42C82.7754 153.85 82.8454 154.16 82.9854 154.35C83.1254 154.54 83.3354 154.635 83.6154 154.635C83.7754 154.635 83.9504 154.61 84.1404 154.56C84.3404 154.5 84.5554 154.425 84.7854 154.335L85.1754 155.49C84.3354 155.95 83.5304 156.18 82.7604 156.18ZM88.8584 154.77L88.7084 154.59L89.8634 154.92V156H85.7534V154.92L86.9084 154.59L86.7584 154.77V149.295L86.8934 149.43L85.7534 149.115V148.035L88.8584 147.93V154.77ZM87.7484 146.76C87.3784 146.76 87.0784 146.655 86.8484 146.445C86.6284 146.235 86.5184 145.935 86.5184 145.545C86.5184 145.125 86.6334 144.815 86.8634 144.615C87.1034 144.405 87.4034 144.3 87.7634 144.3C88.1134 144.3 88.4034 144.405 88.6334 144.615C88.8634 144.815 88.9784 145.12 88.9784 145.53C88.9784 145.94 88.8584 146.25 88.6184 146.46C88.3884 146.66 88.0984 146.76 87.7484 146.76ZM94.5338 147.81C95.7138 147.81 96.6338 148.16 97.2938 148.86C97.9538 149.56 98.2838 150.555 98.2838 151.845C98.2838 152.745 98.1238 153.52 97.8037 154.17C97.4838 154.81 97.0238 155.305 96.4238 155.655C95.8238 156.005 95.1038 156.18 94.2638 156.18C93.0838 156.18 92.1688 155.83 91.5188 155.13C90.8788 154.43 90.5588 153.435 90.5588 152.145C90.5588 151.245 90.7138 150.475 91.0238 149.835C91.3438 149.185 91.7988 148.685 92.3888 148.335C92.9788 147.985 93.6938 147.81 94.5338 147.81ZM94.4288 149.31C93.8588 149.31 93.4338 149.535 93.1538 149.985C92.8738 150.425 92.7338 151.11 92.7338 152.04C92.7338 152.97 92.8688 153.645 93.1388 154.065C93.4088 154.475 93.8188 154.68 94.3688 154.68C94.7688 154.68 95.0938 154.58 95.3438 154.38C95.5938 154.18 95.7838 153.875 95.9138 153.465C96.0438 153.055 96.1088 152.55 96.1088 151.95C96.1088 151.04 95.9688 150.375 95.6888 149.955C95.4088 149.525 94.9888 149.31 94.4288 149.31ZM99.186 156V154.92L100.446 154.56L100.191 154.86V149.145L100.446 149.49L99.186 149.115V148.035L101.826 147.915L102.096 149.355L101.826 149.25C102.306 148.76 102.816 148.4 103.356 148.17C103.896 147.93 104.411 147.81 104.901 147.81C105.581 147.81 106.146 148.025 106.596 148.455C107.046 148.875 107.266 149.515 107.256 150.375V154.86L107.061 154.56L108.261 154.92V156H104.256V154.92L105.396 154.59L105.156 154.905V150.825C105.156 150.335 105.046 149.975 104.826 149.745C104.616 149.515 104.336 149.4 103.986 149.4C103.716 149.4 103.421 149.475 103.101 149.625C102.781 149.775 102.466 150 102.156 150.3L102.291 149.985V154.905L102.096 154.59L103.191 154.92V156H99.186ZM114.64 154.77L114.49 154.59L115.645 154.92V156H111.535V154.92L112.69 154.59L112.54 154.77V149.295L112.675 149.43L111.535 149.115V148.035L114.64 147.93V154.77ZM113.53 146.76C113.16 146.76 112.86 146.655 112.63 146.445C112.41 146.235 112.3 145.935 112.3 145.545C112.3 145.125 112.415 144.815 112.645 144.615C112.885 144.405 113.185 144.3 113.545 144.3C113.895 144.3 114.185 144.405 114.415 144.615C114.645 144.815 114.76 145.12 114.76 145.53C114.76 145.94 114.64 146.25 114.4 146.46C114.17 146.66 113.88 146.76 113.53 146.76ZM116.31 156V154.92L117.57 154.56L117.315 154.86V149.145L117.57 149.49L116.31 149.115V148.035L118.95 147.915L119.22 149.355L118.95 149.25C119.43 148.76 119.94 148.4 120.48 148.17C121.02 147.93 121.535 147.81 122.025 147.81C122.705 147.81 123.27 148.025 123.72 148.455C124.17 148.875 124.39 149.515 124.38 150.375V154.86L124.185 154.56L125.385 154.92V156H121.38V154.92L122.52 154.59L122.28 154.905V150.825C122.28 150.335 122.17 149.975 121.95 149.745C121.74 149.515 121.46 149.4 121.11 149.4C120.84 149.4 120.545 149.475 120.225 149.625C119.905 149.775 119.59 150 119.28 150.3L119.415 149.985V154.905L119.22 154.59L120.315 154.92V156H116.31ZM128.978 156.18C128.398 156.18 127.883 156.03 127.433 155.73C126.993 155.42 126.643 154.965 126.383 154.365C126.133 153.765 126.008 153.035 126.008 152.175C126.008 150.695 126.383 149.6 127.133 148.89C127.883 148.17 128.938 147.81 130.298 147.81C130.518 147.81 130.738 147.82 130.958 147.84C131.178 147.86 131.408 147.895 131.648 147.945L131.258 148.185V145.71L131.408 145.92L130.178 145.515V144.45L133.358 144.33V154.83L133.103 154.53L134.363 154.92V155.985L131.723 156.105L131.453 154.815L131.663 154.89C131.223 155.32 130.783 155.645 130.343 155.865C129.913 156.075 129.458 156.18 128.978 156.18ZM129.788 154.635C130.048 154.635 130.323 154.565 130.613 154.425C130.903 154.275 131.203 154.06 131.513 153.78L131.258 154.41V149.025L131.513 149.505C131.043 149.375 130.618 149.31 130.238 149.31C129.528 149.31 129.008 149.55 128.678 150.03C128.358 150.5 128.198 151.15 128.198 151.98C128.198 152.52 128.263 152.99 128.393 153.39C128.523 153.79 128.703 154.1 128.933 154.32C129.173 154.53 129.458 154.635 129.788 154.635ZM138.706 156.18C137.976 156.18 137.336 156.03 136.786 155.73C136.236 155.42 135.806 154.965 135.496 154.365C135.196 153.755 135.046 153.015 135.046 152.145C135.046 151.245 135.206 150.475 135.526 149.835C135.856 149.185 136.316 148.685 136.906 148.335C137.496 147.985 138.191 147.81 138.991 147.81C139.771 147.81 140.406 147.965 140.896 148.275C141.386 148.585 141.746 149.01 141.976 149.55C142.206 150.08 142.321 150.68 142.321 151.35C142.321 151.52 142.311 151.69 142.291 151.86C142.281 152.03 142.261 152.21 142.231 152.4H136.741V151.155H140.431L140.161 151.35C140.171 150.95 140.131 150.6 140.041 150.3C139.961 149.99 139.821 149.75 139.621 149.58C139.431 149.41 139.166 149.325 138.826 149.325C138.436 149.325 138.121 149.44 137.881 149.67C137.641 149.89 137.466 150.19 137.356 150.57C137.256 150.95 137.206 151.375 137.206 151.845C137.206 152.375 137.271 152.85 137.401 153.27C137.531 153.69 137.741 154.02 138.031 154.26C138.331 154.5 138.721 154.62 139.201 154.62C139.541 154.62 139.906 154.56 140.296 154.44C140.696 154.31 141.111 154.12 141.541 153.87L142.246 154.995C141.666 155.395 141.071 155.695 140.461 155.895C139.861 156.085 139.276 156.18 138.706 156.18ZM142.568 156V154.935L143.813 154.65L143.303 154.935L145.658 151.68L146.138 151.635L148.553 148.05L150.608 147.93V148.995L149.333 149.325L149.933 148.995L147.653 152.07L147.203 152.1L144.638 156H142.568ZM146.798 156V154.92L147.773 154.74L147.653 155.025L145.778 152.37L143.363 149.01L143.783 149.37L142.748 149.13V148.05L146.468 147.93V148.995L145.463 149.22L145.613 148.905L147.248 151.275L149.933 154.92L149.573 154.635L150.773 154.92V156H146.798Z" fill="#242424"/>
</svg>
