<?xml version="1.0" encoding="utf-8" standalone="no"?>
<!DOCTYPE svg PUBLIC "-//W3C//DTD SVG 1.1//EN"
  "http://www.w3.org/Graphics/SVG/1.1/DTD/svg11.dtd">
<svg xmlns:xlink="http://www.w3.org/1999/xlink" width="144pt" height="60pt" viewBox="0 0 144 60" xmlns="http://www.w3.org/2000/svg" version="1.1">
  <desc id="nav-meta">{"window":"3m","count":4,"labels":["22.01","21.02","23.03","22.04"],"tick_utc":["2026-01-22T12:00:00Z","2026-02-21T03:11:36Z","2026-03-23T03:35:18Z","2026-04-22T03:51:39Z"]}</desc>

 <metadata>
  <rdf:RDF xmlns:dc="http://purl.org/dc/elements/1.1/" xmlns:cc="http://creativecommons.org/ns#" xmlns:rdf="http://www.w3.org/1999/02/22-rdf-syntax-ns#">
   <cc:Work>
    <dc:type rdf:resource="http://purl.org/dc/dcmitype/StillImage"/>
    <dc:date>2026-04-22T08:19:17.506886</dc:date>
    <dc:format>image/svg+xml</dc:format>
    <dc:creator>
     <cc:Agent>
      <dc:title>Matplotlib v3.10.8, https://matplotlib.org/</dc:title>
     </cc:Agent>
    </dc:creator>
   </cc:Work>
  </rdf:RDF>
 </metadata>
 <defs>
  <style type="text/css">*{stroke-linejoin: round; stroke-linecap: butt}</style>
 </defs>
 <g id="figure_1">
  <g id="patch_1">
   <path d="M 0 60 
L 144 60 
L 144 0 
L 0 0 
L 0 60 
z
" style="fill: none; opacity: 0"/>
  </g>
  <g id="axes_1">
   <g id="patch_2">
    <path d="M 5.76 52.8 
L 138.24 52.8 
L 138.24 3.6 
L 5.76 3.6 
L 5.76 52.8 
z
" style="fill: none"/>
   </g>
   <g id="matplotlib.axis_1"/>
   <g id="matplotlib.axis_2"/>
   <g id="line2d_1">
    <path d="M 5.76 42.96 
L 138.24 42.96 
" clip-path="url(#pe3c39fede4)" style="fill: none; stroke: #b2b2b2; stroke-opacity: 0.35; stroke-width: 0.5; stroke-linecap: square"/>
   </g>
   <g id="line2d_2">
    <path d="M 5.76 33.12 
L 138.24 33.12 
" clip-path="url(#pe3c39fede4)" style="fill: none; stroke: #b2b2b2; stroke-opacity: 0.35; stroke-width: 0.5; stroke-linecap: square"/>
   </g>
   <g id="line2d_3">
    <path d="M 5.76 23.28 
L 138.24 23.28 
" clip-path="url(#pe3c39fede4)" style="fill: none; stroke: #b2b2b2; stroke-opacity: 0.35; stroke-width: 0.5; stroke-linecap: square"/>
   </g>
   <g id="line2d_4">
    <path d="M 5.76 13.44 
L 138.24 13.44 
" clip-path="url(#pe3c39fede4)" style="fill: none; stroke: #b2b2b2; stroke-opacity: 0.35; stroke-width: 0.5; stroke-linecap: square"/>
   </g>
   <g id="line2d_5">
    <path d="M 5.76 44.77548 
L 7.237568 44.91816 
L 8.715135 45.04608 
L 10.192703 45.07068 
L 11.670271 46.1334 
L 13.147838 45.4446 
L 14.625406 45.06084 
L 16.102974 45.33144 
L 17.580541 46.30068 
L 19.058109 46.34496 
L 20.535677 47.89476 
L 22.013244 48.26376 
L 23.490812 47.96364 
L 24.738211 48.55896 
L 25.912415 49.06572 
L 27.389231 50.04972 
L 28.860471 49.24776 
L 30.371814 49.32156 
L 31.837188 49.31172 
L 33.323187 49.43964 
L 34.797693 49.59708 
L 36.269943 49.80372 
L 37.747066 49.86768 
L 39.206865 49.479 
L 40.606467 49.24776 
L 42.178811 49.48392 
L 43.470776 49.37568 
L 45.131603 49.479 
L 46.607375 49.7004 
L 48.076307 49.62168 
L 49.544845 49.5282 
L 51.039292 49.49376 
L 52.521306 49.98576 
L 53.87405 49.96608 
L 55.471123 49.7004 
L 56.942106 49.27236 
L 58.416869 49.37076 
L 59.877028 49.68072 
L 61.388165 49.25268 
L 62.850479 49.51344 
L 64.331484 49.4052 
L 65.800774 49.34124 
L 67.281523 49.09032 
L 68.758389 49.24284 
L 70.224619 49.49868 
L 71.716534 49.64628 
L 73.198531 49.58724 
L 74.666608 49.36092 
L 76.143594 49.41996 
L 77.626976 49.45932 
L 79.101688 49.16904 
L 80.577289 49.22808 
L 82.083125 49.27236 
L 83.564866 48.87384 
L 85.016576 48.74592 
L 86.505414 48.70164 
L 87.983392 49.03128 
L 89.446577 49.1592 
L 90.915491 49.08048 
L 92.415154 49.21332 
L 93.896193 49.36584 
L 95.36008 49.11 
L 96.947695 48.90828 
L 98.333189 49.05096 
L 99.812621 49.37076 
L 101.276062 49.64628 
L 102.773758 49.6266 
L 104.25555 49.602 
L 105.723798 49.59708 
L 107.214037 49.59708 
L 108.672144 49.8726 
L 110.151404 49.88244 
L 111.616317 49.80864 
L 113.116134 49.78896 
L 114.597515 49.69056 
L 116.065489 49.83816 
L 117.545451 49.50852 
L 119.017871 49.68564 
L 120.509034 49.6266 
L 121.964011 49.48884 
L 123.468086 49.6512 
L 124.953229 49.69056 
L 126.421391 49.40028 
L 127.89783 49.58724 
L 129.381794 49.45932 
L 130.856352 49.27728 
L 132.317621 49.19856 
L 133.814702 49.43472 
L 135.295929 49.50852 
L 136.767016 49.46424 
L 138.24 49.31664 
" clip-path="url(#pe3c39fede4)" style="fill: none; stroke: #bebebe; stroke-width: 0.6; stroke-linecap: round"/>
   </g>
   <g id="line2d_6">
    <path d="M 5.76 37.26756 
L 7.237568 37.46436 
L 8.715135 37.44468 
L 10.192703 37.45944 
L 11.670271 38.41392 
L 13.147838 37.61196 
L 14.625406 36.95268 
L 16.102974 37.05108 
L 17.580541 38.37948 
L 19.058109 39.20604 
L 20.535677 41.03136 
L 22.013244 42.26628 
L 23.490812 41.73492 
L 24.738211 42.23676 
L 25.912415 43.38804 
L 27.389231 44.89356 
L 28.860471 43.6242 
L 30.371814 43.575 
L 31.837188 43.53072 
L 33.323187 43.72752 
L 34.797693 44.0916 
L 36.269943 44.436 
L 37.747066 44.49012 
L 39.206865 43.81608 
L 40.606467 43.7226 
L 42.178811 44.5344 
L 43.470776 44.19 
L 45.131603 44.21952 
L 46.607375 44.3868 
L 48.076307 44.51472 
L 49.544845 44.4606 
L 51.039292 44.3868 
L 52.521306 45.174 
L 53.87405 45.23796 
L 55.471123 44.81484 
L 56.942106 43.821 
L 58.416869 44.01288 
L 59.877028 44.66232 
L 61.388165 43.93908 
L 62.850479 44.39664 
L 64.331484 44.12112 
L 65.800774 44.33268 
L 67.281523 43.3044 
L 68.758389 43.6242 
L 70.224619 44.29824 
L 71.716534 44.53932 
L 73.198531 44.30808 
L 74.666608 43.8702 
L 76.143594 44.00304 
L 77.626976 43.97844 
L 79.101688 43.41756 
L 80.577289 43.48152 
L 82.083125 43.48644 
L 83.564866 42.49752 
L 85.016576 41.73984 
L 86.505414 41.7546 
L 87.983392 42.591 
L 89.446577 43.14204 
L 90.915491 43.083 
L 92.415154 43.35852 
L 93.896193 43.78164 
L 95.36008 43.21584 
L 96.947695 42.9354 
L 98.333189 43.10268 
L 99.812621 43.72752 
L 101.276062 44.25396 
L 102.773758 44.10636 
L 104.25555 43.9194 
L 105.723798 43.74228 
L 107.214037 43.46676 
L 108.672144 43.65372 
L 110.151404 43.79148 
L 111.616317 43.81116 
L 113.116134 43.77672 
L 114.597515 43.2552 
L 116.065489 43.40772 
L 117.545451 42.49752 
L 119.017871 42.90588 
L 120.509034 42.8616 
L 121.964011 42.41388 
L 123.468086 42.63036 
L 124.953229 42.79764 
L 126.421391 41.57256 
L 127.89783 41.86284 
L 129.381794 41.63652 
L 130.856352 41.85792 
L 132.317621 41.22324 
L 133.814702 41.76936 
L 135.295929 42.1482 
L 136.767016 41.96616 
L 138.24 41.59224 
" clip-path="url(#pe3c39fede4)" style="fill: none; stroke: #4a8dff; stroke-width: 0.6; stroke-linecap: round"/>
   </g>
   <g id="line2d_7">
    <path d="M 5.76 41.42004 
L 7.237568 41.37576 
L 8.715135 41.39052 
L 10.192703 41.5086 
L 11.670271 42.80256 
L 13.147838 41.93664 
L 14.625406 41.49384 
L 16.102974 41.51352 
L 17.580541 43.78164 
L 19.058109 43.9932 
L 20.535677 46.66968 
L 22.013244 47.55036 
L 23.490812 46.64508 
L 24.738211 47.89476 
L 25.912415 48.89352 
L 27.389231 49.84308 
L 28.860471 49.00176 
L 30.371814 49.233 
L 31.837188 48.97716 
L 33.323187 49.22316 
L 34.797693 49.36092 
L 36.269943 49.49868 
L 37.747066 49.58724 
L 39.206865 49.28712 
L 40.606467 49.16904 
L 42.178811 49.39044 
L 43.470776 49.29696 
L 45.131603 49.479 
L 46.607375 49.55772 
L 48.076307 49.51344 
L 49.544845 49.44948 
L 51.039292 49.41996 
L 52.521306 49.8234 
L 53.87405 49.86768 
L 55.471123 49.72992 
L 56.942106 49.39536 
L 58.416869 49.52328 
L 59.877028 49.6758 
L 61.388165 49.47408 
L 62.850479 49.60692 
L 64.331484 49.37568 
L 65.800774 49.36584 
L 67.281523 48.6672 
L 68.758389 48.95256 
L 70.224619 49.36092 
L 71.716534 49.54788 
L 73.198531 49.5282 
L 74.666608 49.09032 
L 76.143594 49.16412 
L 77.626976 49.2084 
L 79.101688 48.93288 
L 80.577289 48.95748 
L 82.083125 48.89844 
L 83.564866 48.48024 
L 85.016576 48.1998 
L 86.505414 48.28344 
L 87.983392 48.88368 
L 89.446577 49.04604 
L 90.915491 49.00176 
L 92.415154 49.20348 
L 93.896193 49.38552 
L 95.36008 49.04112 
L 96.947695 48.92796 
L 98.333189 48.987 
L 99.812621 49.29204 
L 101.276062 49.66104 
L 102.773758 49.56756 
L 104.25555 49.53312 
L 105.723798 49.46424 
L 107.214037 49.40028 
L 108.672144 49.56756 
L 110.151404 49.59708 
L 111.616317 49.56264 
L 113.116134 49.53312 
L 114.597515 49.25268 
L 116.065489 49.29696 
L 117.545451 48.89352 
L 119.017871 48.96732 
L 120.509034 48.8148 
L 121.964011 48.5934 
L 123.468086 48.84432 
L 124.953229 48.95748 
L 126.421391 48.30804 
L 127.89783 48.34248 
L 129.381794 48.21456 
L 130.856352 48.26376 
L 132.317621 47.41752 
L 133.814702 48.05712 
L 135.295929 48.26376 
L 136.767016 48.01776 
L 138.24 47.23548 
" clip-path="url(#pe3c39fede4)" style="fill: none; stroke: #f5841e; stroke-width: 0.7; stroke-linecap: round"/>
   </g>
  </g>
 </g>
 <defs>
  <clipPath id="pe3c39fede4">
   <rect x="5.76" y="3.6" width="132.48" height="49.2"/>
  </clipPath>
 </defs>
</svg>
