<?xml version="1.0" encoding="utf-8" standalone="no"?>
<!DOCTYPE svg PUBLIC "-//W3C//DTD SVG 1.1//EN"
  "http://www.w3.org/Graphics/SVG/1.1/DTD/svg11.dtd">
<svg xmlns:xlink="http://www.w3.org/1999/xlink" width="144pt" height="60pt" viewBox="0 0 144 60" xmlns="http://www.w3.org/2000/svg" version="1.1">
  <desc id="nav-meta">{"window":"1m","count":4,"labels":["28.01","07.02","17.02","27.02"],"tick_utc":["2026-01-28T12:00:00Z","2026-02-07T03:13:08Z","2026-02-17T00:31:58Z","2026-02-27T03:18:03Z"]}</desc>

 <metadata>
  <rdf:RDF xmlns:dc="http://purl.org/dc/elements/1.1/" xmlns:cc="http://creativecommons.org/ns#" xmlns:rdf="http://www.w3.org/1999/02/22-rdf-syntax-ns#">
   <cc:Work>
    <dc:type rdf:resource="http://purl.org/dc/dcmitype/StillImage"/>
    <dc:date>2026-02-27T03:18:04.787962</dc:date>
    <dc:format>image/svg+xml</dc:format>
    <dc:creator>
     <cc:Agent>
      <dc:title>Matplotlib v3.10.8, https://matplotlib.org/</dc:title>
     </cc:Agent>
    </dc:creator>
   </cc:Work>
  </rdf:RDF>
 </metadata>
 <defs>
  <style type="text/css">*{stroke-linejoin: round; stroke-linecap: butt}</style>
 </defs>
 <g id="figure_1">
  <g id="patch_1">
   <path d="M 0 60 
L 144 60 
L 144 0 
L 0 0 
L 0 60 
z
" style="fill: none; opacity: 0"/>
  </g>
  <g id="axes_1">
   <g id="patch_2">
    <path d="M 5.76 52.8 
L 138.24 52.8 
L 138.24 3.6 
L 5.76 3.6 
L 5.76 52.8 
z
" style="fill: none"/>
   </g>
   <g id="matplotlib.axis_1"/>
   <g id="matplotlib.axis_2"/>
   <g id="line2d_1">
    <path d="M 5.76 42.96 
L 138.24 42.96 
" clip-path="url(#p39036860ff)" style="fill: none; stroke: #b2b2b2; stroke-opacity: 0.35; stroke-width: 0.5; stroke-linecap: square"/>
   </g>
   <g id="line2d_2">
    <path d="M 5.76 33.12 
L 138.24 33.12 
" clip-path="url(#p39036860ff)" style="fill: none; stroke: #b2b2b2; stroke-opacity: 0.35; stroke-width: 0.5; stroke-linecap: square"/>
   </g>
   <g id="line2d_3">
    <path d="M 5.76 23.28 
L 138.24 23.28 
" clip-path="url(#p39036860ff)" style="fill: none; stroke: #b2b2b2; stroke-opacity: 0.35; stroke-width: 0.5; stroke-linecap: square"/>
   </g>
   <g id="line2d_4">
    <path d="M 5.76 13.44 
L 138.24 13.44 
" clip-path="url(#p39036860ff)" style="fill: none; stroke: #b2b2b2; stroke-opacity: 0.35; stroke-width: 0.5; stroke-linecap: square"/>
   </g>
   <g id="line2d_5">
    <path d="M 5.76 45.06084 
L 10.230007 45.33144 
L 14.700015 46.30068 
L 19.170022 46.34496 
L 23.64003 47.89476 
L 28.110037 48.26376 
L 32.580044 47.96364 
L 36.353734 48.55896 
L 39.905993 49.06572 
L 44.373724 50.04972 
L 48.82459 49.24776 
L 53.396776 49.32156 
L 57.829895 49.31172 
L 62.325409 49.43964 
L 66.786155 49.59708 
L 71.240073 49.80372 
L 75.708735 49.86768 
L 80.124989 49.479 
L 84.359131 49.24776 
L 89.11586 49.48392 
L 93.024375 49.37568 
L 98.048787 49.479 
L 102.513362 49.7004 
L 106.957243 49.62168 
L 111.399934 49.5282 
L 115.921005 49.49376 
L 120.404463 49.98576 
L 124.496848 49.96608 
L 129.328388 49.7004 
L 133.778477 49.27236 
L 138.24 49.37076 
" clip-path="url(#p39036860ff)" style="fill: none; stroke: #bebebe; stroke-width: 0.6; stroke-linecap: round"/>
   </g>
   <g id="line2d_6">
    <path d="M 5.76 36.95268 
L 10.230007 37.05108 
L 14.700015 38.37948 
L 19.170022 39.20604 
L 23.64003 41.03136 
L 28.110037 42.26628 
L 32.580044 41.73492 
L 36.353734 42.23676 
L 39.905993 43.38804 
L 44.373724 44.89356 
L 48.82459 43.6242 
L 53.396776 43.575 
L 57.829895 43.53072 
L 62.325409 43.72752 
L 66.786155 44.0916 
L 71.240073 44.436 
L 75.708735 44.49012 
L 80.124989 43.81608 
L 84.359131 43.7226 
L 89.11586 44.5344 
L 93.024375 44.19 
L 98.048787 44.21952 
L 102.513362 44.3868 
L 106.957243 44.51472 
L 111.399934 44.4606 
L 115.921005 44.3868 
L 120.404463 45.174 
L 124.496848 45.23796 
L 129.328388 44.81484 
L 133.778477 43.821 
L 138.24 44.01288 
" clip-path="url(#p39036860ff)" style="fill: none; stroke: #4a8dff; stroke-width: 0.6; stroke-linecap: round"/>
   </g>
   <g id="line2d_7">
    <path d="M 5.76 41.49384 
L 10.230007 41.51352 
L 14.700015 43.78164 
L 19.170022 43.9932 
L 23.64003 46.66968 
L 28.110037 47.55036 
L 32.580044 46.64508 
L 36.353734 47.89476 
L 39.905993 48.89352 
L 44.373724 49.84308 
L 48.82459 49.00176 
L 53.396776 49.233 
L 57.829895 48.97716 
L 62.325409 49.22316 
L 66.786155 49.36092 
L 71.240073 49.49868 
L 75.708735 49.58724 
L 80.124989 49.28712 
L 84.359131 49.16904 
L 89.11586 49.39044 
L 93.024375 49.29696 
L 98.048787 49.479 
L 102.513362 49.55772 
L 106.957243 49.51344 
L 111.399934 49.44948 
L 115.921005 49.41996 
L 120.404463 49.8234 
L 124.496848 49.86768 
L 129.328388 49.72992 
L 133.778477 49.39536 
L 138.24 49.52328 
" clip-path="url(#p39036860ff)" style="fill: none; stroke: #f5841e; stroke-width: 0.7; stroke-linecap: round"/>
   </g>
  </g>
 </g>
 <defs>
  <clipPath id="p39036860ff">
   <rect x="5.76" y="3.6" width="132.48" height="49.2"/>
  </clipPath>
 </defs>
</svg>
