<?xml version="1.0" encoding="utf-8" standalone="no"?>
<!DOCTYPE svg PUBLIC "-//W3C//DTD SVG 1.1//EN"
  "http://www.w3.org/Graphics/SVG/1.1/DTD/svg11.dtd">
<svg xmlns:xlink="http://www.w3.org/1999/xlink" width="144pt" height="60pt" viewBox="0 0 144 60" xmlns="http://www.w3.org/2000/svg" version="1.1">
 <metadata>
  <rdf:RDF xmlns:dc="http://purl.org/dc/elements/1.1/" xmlns:cc="http://creativecommons.org/ns#" xmlns:rdf="http://www.w3.org/1999/02/22-rdf-syntax-ns#">
   <cc:Work>
    <dc:type rdf:resource="http://purl.org/dc/dcmitype/StillImage"/>
    <dc:date>2026-01-22T23:15:51.191354</dc:date>
    <dc:format>image/svg+xml</dc:format>
    <dc:creator>
     <cc:Agent>
      <dc:title>Matplotlib v3.10.8, https://matplotlib.org/</dc:title>
     </cc:Agent>
    </dc:creator>
   </cc:Work>
  </rdf:RDF>
 </metadata>
 <defs>
  <style type="text/css">*{stroke-linejoin: round; stroke-linecap: butt}</style>
 </defs>
 <g id="figure_1">
  <g id="patch_1">
   <path d="M 0 60 
L 144 60 
L 144 0 
L 0 0 
L 0 60 
z
" style="fill: none; opacity: 0"/>
  </g>
  <g id="axes_1">
   <g id="patch_2">
    <path d="M 4.32 52.8 
L 139.68 52.8 
L 139.68 3.6 
L 4.32 3.6 
L 4.32 52.8 
z
" style="fill: none"/>
   </g>
   <g id="matplotlib.axis_1"/>
   <g id="matplotlib.axis_2"/>
   <g id="line2d_1">
    <path d="M 4.32 42.96 
L 139.68 42.96 
" clip-path="url(#p658ebe62ab)" style="fill: none; stroke: #b2b2b2; stroke-opacity: 0.35; stroke-width: 0.5; stroke-linecap: square"/>
   </g>
   <g id="line2d_2">
    <path d="M 4.32 33.12 
L 139.68 33.12 
" clip-path="url(#p658ebe62ab)" style="fill: none; stroke: #b2b2b2; stroke-opacity: 0.35; stroke-width: 0.5; stroke-linecap: square"/>
   </g>
   <g id="line2d_3">
    <path d="M 4.32 23.28 
L 139.68 23.28 
" clip-path="url(#p658ebe62ab)" style="fill: none; stroke: #b2b2b2; stroke-opacity: 0.35; stroke-width: 0.5; stroke-linecap: square"/>
   </g>
   <g id="line2d_4">
    <path d="M 4.32 13.44 
L 139.68 13.44 
" clip-path="url(#p658ebe62ab)" style="fill: none; stroke: #b2b2b2; stroke-opacity: 0.35; stroke-width: 0.5; stroke-linecap: square"/>
   </g>
   <g id="line2d_5">
    <path d="M 5.155556 37.34628 
L 6.811146 37.848333 
L 10.536223 37.813025 
L 12.60571 37.671 
L 14.2613 37.573819 
L 15.91689 37.45452 
L 30.8172 37.559028 
L 32.47279 37.68576 
L 45.303612 37.776407 
L 46.959202 38.8272 
L 53.167664 38.746226 
L 54.823254 38.70912 
L 56.064947 38.782235 
L 58.134434 38.86656 
L 58.962229 38.97477 
L 60.617819 39.41268 
L 62.687307 39.484149 
L 64.756794 39.57996 
L 75.932026 39.528445 
L 77.587616 39.3438 
L 79.657104 39.249299 
L 81.312693 39.18144 
L 83.382181 39.285202 
L 85.451668 39.310091 
L 93.315721 39.461956 
L 94.143516 39.52092 
L 138.844444 39.53076 
L 138.844444 39.53076 
" clip-path="url(#p658ebe62ab)" style="fill: none; stroke: #bebebe; stroke-width: 0.6; stroke-linecap: round"/>
   </g>
   <g id="line2d_6">
    <path d="M 5.155556 32.10156 
L 7.63894 32.005902 
L 8.880633 31.937448 
L 11.364018 32.04744 
L 22.953148 31.955422 
L 26.264327 31.887152 
L 29.575507 31.88048 
L 35.370072 31.863587 
L 41.164637 31.68336 
L 41.992432 31.722385 
L 43.648022 32.58506 
L 48.200894 32.585761 
L 52.339869 32.56896 
L 53.995459 32.633453 
L 55.651049 32.85432 
L 56.892742 32.85432 
L 58.962229 33.42504 
L 60.617819 33.516098 
L 62.273409 33.9072 
L 64.756794 34.002173 
L 66.412384 34.04988 
L 68.067974 34.139019 
L 69.723564 34.18764 
L 77.173719 34.141715 
L 79.243206 33.84816 
L 81.726591 33.945037 
L 85.037771 34.005691 
L 90.832336 34.219658 
L 92.487926 34.45332 
L 138.844444 34.41888 
L 138.844444 34.41888 
" clip-path="url(#p658ebe62ab)" style="fill: none; stroke: #4a8dff; stroke-width: 0.7; stroke-linecap: round"/>
   </g>
   <g id="line2d_7">
    <path d="M 5.155556 36.55908 
L 7.63894 36.465813 
L 8.880633 36.421305 
L 10.95012 36.60336 
L 22.953148 36.494861 
L 25.436533 36.469621 
L 38.681252 36.615424 
L 41.578535 36.50004 
L 41.992432 36.547808 
L 43.648022 37.598434 
L 46.959202 37.494718 
L 50.684279 37.52634 
L 53.581562 37.45944 
L 55.651049 37.87764 
L 57.306639 37.981737 
L 58.962229 38.37948 
L 61.031717 38.486867 
L 62.687307 38.62548 
L 63.928999 38.674908 
L 65.584589 38.91576 
L 68.481871 39.021411 
L 73.862539 39.094632 
L 75.932026 38.84196 
L 78.415411 38.738762 
L 80.484899 38.726957 
L 83.796078 38.821991 
L 90.832336 38.880985 
L 92.487926 39.147 
L 104.90485 39.06173 
L 106.56044 39.01908 
L 107.802133 38.948128 
L 109.87162 38.8518 
L 112.768903 38.948722 
L 114.83839 39.02892 
L 138.844444 39.08304 
L 138.844444 39.08304 
" clip-path="url(#p658ebe62ab)" style="fill: none; stroke: #f5841e; stroke-width: 0.8; stroke-linecap: round"/>
   </g>
   <g id="text_1">
    <!-- 16 Jan -->
    <g style="fill: #8c8c8c; opacity: 0.65" transform="translate(5.573333 56.219297) scale(0.045 -0.045)">
     <defs>
      <path id="DejaVuSans-31" d="M 794 531 
L 1825 531 
L 1825 4091 
L 703 3866 
L 703 4441 
L 1819 4666 
L 2450 4666 
L 2450 531 
L 3481 531 
L 3481 0 
L 794 0 
L 794 531 
z
" transform="scale(0.015625)"/>
      <path id="DejaVuSans-36" d="M 2113 2584 
Q 1688 2584 1439 2293 
Q 1191 2003 1191 1497 
Q 1191 994 1439 701 
Q 1688 409 2113 409 
Q 2538 409 2786 701 
Q 3034 994 3034 1497 
Q 3034 2003 2786 2293 
Q 2538 2584 2113 2584 
z
M 3366 4563 
L 3366 3988 
Q 3128 4100 2886 4159 
Q 2644 4219 2406 4219 
Q 1781 4219 1451 3797 
Q 1122 3375 1075 2522 
Q 1259 2794 1537 2939 
Q 1816 3084 2150 3084 
Q 2853 3084 3261 2657 
Q 3669 2231 3669 1497 
Q 3669 778 3244 343 
Q 2819 -91 2113 -91 
Q 1303 -91 875 529 
Q 447 1150 447 2328 
Q 447 3434 972 4092 
Q 1497 4750 2381 4750 
Q 2619 4750 2861 4703 
Q 3103 4656 3366 4563 
z
" transform="scale(0.015625)"/>
      <path id="DejaVuSans-20" transform="scale(0.015625)"/>
      <path id="DejaVuSans-4a" d="M 628 4666 
L 1259 4666 
L 1259 325 
Q 1259 -519 939 -900 
Q 619 -1281 -91 -1281 
L -331 -1281 
L -331 -750 
L -134 -750 
Q 284 -750 456 -515 
Q 628 -281 628 325 
L 628 4666 
z
" transform="scale(0.015625)"/>
      <path id="DejaVuSans-61" d="M 2194 1759 
Q 1497 1759 1228 1600 
Q 959 1441 959 1056 
Q 959 750 1161 570 
Q 1363 391 1709 391 
Q 2188 391 2477 730 
Q 2766 1069 2766 1631 
L 2766 1759 
L 2194 1759 
z
M 3341 1997 
L 3341 0 
L 2766 0 
L 2766 531 
Q 2569 213 2275 61 
Q 1981 -91 1556 -91 
Q 1019 -91 701 211 
Q 384 513 384 1019 
Q 384 1609 779 1909 
Q 1175 2209 1959 2209 
L 2766 2209 
L 2766 2266 
Q 2766 2663 2505 2880 
Q 2244 3097 1772 3097 
Q 1472 3097 1187 3025 
Q 903 2953 641 2809 
L 641 3341 
Q 956 3463 1253 3523 
Q 1550 3584 1831 3584 
Q 2591 3584 2966 3190 
Q 3341 2797 3341 1997 
z
" transform="scale(0.015625)"/>
      <path id="DejaVuSans-6e" d="M 3513 2113 
L 3513 0 
L 2938 0 
L 2938 2094 
Q 2938 2591 2744 2837 
Q 2550 3084 2163 3084 
Q 1697 3084 1428 2787 
Q 1159 2491 1159 1978 
L 1159 0 
L 581 0 
L 581 3500 
L 1159 3500 
L 1159 2956 
Q 1366 3272 1645 3428 
Q 1925 3584 2291 3584 
Q 2894 3584 3203 3211 
Q 3513 2838 3513 2113 
z
" transform="scale(0.015625)"/>
     </defs>
     <use xlink:href="#DejaVuSans-31"/>
     <use xlink:href="#DejaVuSans-36" transform="translate(63.623047 0)"/>
     <use xlink:href="#DejaVuSans-20" transform="translate(127.246094 0)"/>
     <use xlink:href="#DejaVuSans-4a" transform="translate(159.033203 0)"/>
     <use xlink:href="#DejaVuSans-61" transform="translate(188.525391 0)"/>
     <use xlink:href="#DejaVuSans-6e" transform="translate(249.804688 0)"/>
    </g>
   </g>
   <g id="text_2">
    <!-- 19 Jan -->
    <g style="fill: #8c8c8c; opacity: 0.65" transform="translate(43.228837 56.219297) scale(0.045 -0.045)">
     <defs>
      <path id="DejaVuSans-39" d="M 703 97 
L 703 672 
Q 941 559 1184 500 
Q 1428 441 1663 441 
Q 2288 441 2617 861 
Q 2947 1281 2994 2138 
Q 2813 1869 2534 1725 
Q 2256 1581 1919 1581 
Q 1219 1581 811 2004 
Q 403 2428 403 3163 
Q 403 3881 828 4315 
Q 1253 4750 1959 4750 
Q 2769 4750 3195 4129 
Q 3622 3509 3622 2328 
Q 3622 1225 3098 567 
Q 2575 -91 1691 -91 
Q 1453 -91 1209 -44 
Q 966 3 703 97 
z
M 1959 2075 
Q 2384 2075 2632 2365 
Q 2881 2656 2881 3163 
Q 2881 3666 2632 3958 
Q 2384 4250 1959 4250 
Q 1534 4250 1286 3958 
Q 1038 3666 1038 3163 
Q 1038 2656 1286 2365 
Q 1534 2075 1959 2075 
z
" transform="scale(0.015625)"/>
     </defs>
     <use xlink:href="#DejaVuSans-31"/>
     <use xlink:href="#DejaVuSans-39" transform="translate(63.623047 0)"/>
     <use xlink:href="#DejaVuSans-20" transform="translate(127.246094 0)"/>
     <use xlink:href="#DejaVuSans-4a" transform="translate(159.033203 0)"/>
     <use xlink:href="#DejaVuSans-61" transform="translate(188.525391 0)"/>
     <use xlink:href="#DejaVuSans-6e" transform="translate(249.804688 0)"/>
    </g>
   </g>
   <g id="text_3">
    <!-- 22 Jan -->
    <g style="fill: #8c8c8c; opacity: 0.65" transform="translate(88.348837 56.219297) scale(0.045 -0.045)">
     <defs>
      <path id="DejaVuSans-32" d="M 1228 531 
L 3431 531 
L 3431 0 
L 469 0 
L 469 531 
Q 828 903 1448 1529 
Q 2069 2156 2228 2338 
Q 2531 2678 2651 2914 
Q 2772 3150 2772 3378 
Q 2772 3750 2511 3984 
Q 2250 4219 1831 4219 
Q 1534 4219 1204 4116 
Q 875 4013 500 3803 
L 500 4441 
Q 881 4594 1212 4672 
Q 1544 4750 1819 4750 
Q 2544 4750 2975 4387 
Q 3406 4025 3406 3419 
Q 3406 3131 3298 2873 
Q 3191 2616 2906 2266 
Q 2828 2175 2409 1742 
Q 1991 1309 1228 531 
z
" transform="scale(0.015625)"/>
     </defs>
     <use xlink:href="#DejaVuSans-32"/>
     <use xlink:href="#DejaVuSans-32" transform="translate(63.623047 0)"/>
     <use xlink:href="#DejaVuSans-20" transform="translate(127.246094 0)"/>
     <use xlink:href="#DejaVuSans-4a" transform="translate(159.033203 0)"/>
     <use xlink:href="#DejaVuSans-61" transform="translate(188.525391 0)"/>
     <use xlink:href="#DejaVuSans-6e" transform="translate(249.804688 0)"/>
    </g>
   </g>
   <g id="text_4">
    <!-- 22 Jan -->
    <g style="fill: #8c8c8c; opacity: 0.65" transform="translate(124.333229 56.219297) scale(0.045 -0.045)">
     <use xlink:href="#DejaVuSans-32"/>
     <use xlink:href="#DejaVuSans-32" transform="translate(63.623047 0)"/>
     <use xlink:href="#DejaVuSans-20" transform="translate(127.246094 0)"/>
     <use xlink:href="#DejaVuSans-4a" transform="translate(159.033203 0)"/>
     <use xlink:href="#DejaVuSans-61" transform="translate(188.525391 0)"/>
     <use xlink:href="#DejaVuSans-6e" transform="translate(249.804688 0)"/>
    </g>
   </g>
  </g>
 </g>
 <defs>
  <clipPath id="p658ebe62ab">
   <rect x="4.32" y="3.6" width="135.36" height="49.2"/>
  </clipPath>
 </defs>
</svg>
