<?xml version="1.0" encoding="utf-8" standalone="no"?>
<!DOCTYPE svg PUBLIC "-//W3C//DTD SVG 1.1//EN"
  "http://www.w3.org/Graphics/SVG/1.1/DTD/svg11.dtd">
<svg xmlns:xlink="http://www.w3.org/1999/xlink" width="144pt" height="60pt" viewBox="0 0 144 60" xmlns="http://www.w3.org/2000/svg" version="1.1">
  <desc id="nav-meta">{"window":"3m","count":4,"labels":["01.04","01.05","30.05","29.06"],"tick_utc":["2026-04-01T03:54:32Z","2026-05-01T04:39:16Z","2026-05-30T04:39:03Z","2026-06-29T05:17:50Z"]}</desc>

 <metadata>
  <rdf:RDF xmlns:dc="http://purl.org/dc/elements/1.1/" xmlns:cc="http://creativecommons.org/ns#" xmlns:rdf="http://www.w3.org/1999/02/22-rdf-syntax-ns#">
   <cc:Work>
    <dc:type rdf:resource="http://purl.org/dc/dcmitype/StillImage"/>
    <dc:date>2026-06-29T11:34:27.354930</dc:date>
    <dc:format>image/svg+xml</dc:format>
    <dc:creator>
     <cc:Agent>
      <dc:title>Matplotlib v3.11.0, https://matplotlib.org/</dc:title>
     </cc:Agent>
    </dc:creator>
   </cc:Work>
  </rdf:RDF>
 </metadata>
 <defs>
  <style type="text/css">*{stroke-linejoin: round; stroke-linecap: butt}</style>
 </defs>
 <g id="figure_1">
  <g id="patch_1">
   <path d="M 0 60 
L 144 60 
L 144 0 
L 0 0 
L 0 60 
z
" style="fill: none; opacity: 0"/>
  </g>
  <g id="axes_1">
   <g id="patch_2">
    <path d="M 5.76 52.8 
L 138.24 52.8 
L 138.24 3.6 
L 5.76 3.6 
L 5.76 52.8 
z
" style="fill: none"/>
   </g>
   <g id="matplotlib.axis_1"/>
   <g id="matplotlib.axis_2"/>
   <g id="line2d_1">
    <path d="M 5.76 42.96 
L 138.24 42.96 
" clip-path="url(#p0eaaaa5fe9)" style="fill: none; stroke: #b2b2b2; stroke-opacity: 0.35; stroke-width: 0.5; stroke-linecap: square"/>
   </g>
   <g id="line2d_2">
    <path d="M 5.76 33.12 
L 138.24 33.12 
" clip-path="url(#p0eaaaa5fe9)" style="fill: none; stroke: #b2b2b2; stroke-opacity: 0.35; stroke-width: 0.5; stroke-linecap: square"/>
   </g>
   <g id="line2d_3">
    <path d="M 5.76 23.28 
L 138.24 23.28 
" clip-path="url(#p0eaaaa5fe9)" style="fill: none; stroke: #b2b2b2; stroke-opacity: 0.35; stroke-width: 0.5; stroke-linecap: square"/>
   </g>
   <g id="line2d_4">
    <path d="M 5.76 13.44 
L 138.24 13.44 
" clip-path="url(#p0eaaaa5fe9)" style="fill: none; stroke: #b2b2b2; stroke-opacity: 0.35; stroke-width: 0.5; stroke-linecap: square"/>
   </g>
   <g id="line2d_5">
    <path d="M 5.76 49.59708 
L 7.227979 49.8726 
L 8.717256 49.88244 
L 10.192088 49.80864 
L 11.70206 49.78896 
L 13.193472 49.69056 
L 14.671385 49.83816 
L 16.161368 49.50852 
L 17.643758 49.68564 
L 19.145019 49.6266 
L 20.609847 49.48884 
L 22.124106 49.6512 
L 23.619306 49.69056 
L 25.097409 49.40028 
L 26.583845 49.58724 
L 28.077857 49.45932 
L 29.562399 49.27728 
L 31.033563 49.19856 
L 32.540781 49.43472 
L 34.032038 49.50852 
L 35.513085 49.46424 
L 36.996043 49.31664 
L 38.489641 49.4298 
L 39.981157 49.42488 
L 41.450978 49.37568 
L 42.96169 49.4052 
L 44.465292 49.29204 
L 45.955981 49.5528 
L 47.43949 49.50852 
L 48.929559 49.64136 
L 50.433385 49.56756 
L 51.882993 49.56264 
L 53.400765 49.57248 
L 54.887821 49.42488 
L 56.342628 49.49376 
L 57.856406 49.32156 
L 59.344374 49.25268 
L 60.807188 49.24284 
L 62.300201 48.80004 
L 63.817749 48.85416 
L 65.317064 48.72132 
L 66.783975 48.63276 
L 68.278624 48.66228 
L 69.764544 49.09524 
L 71.259451 48.99192 
L 72.728032 49.19364 
L 74.237815 49.34616 
L 75.739833 49.47408 
L 77.216748 49.47408 
L 78.70964 49.54788 
L 80.205684 49.3314 
L 81.681858 49.34616 
L 83.148994 49.51836 
L 84.66012 49.41996 
L 86.167268 49.41504 
L 87.632303 49.5282 
L 89.135147 49.5774 
L 90.617968 49.7742 
L 92.106642 49.7004 
L 93.572762 49.69548 
L 95.090706 49.61676 
L 96.600282 49.71024 
L 98.07322 49.7988 
L 99.577527 50.19732 
L 101.060003 50.45808 
L 102.523076 50.59092 
L 103.987783 50.99928 
L 105.507328 50.82216 
L 107.001478 50.74344 
L 108.460659 50.62536 
L 109.963658 50.80248 
L 111.45996 50.76312 
L 112.953369 50.65488 
L 114.43006 50.6598 
L 115.928428 50.56632 
L 117.465448 50.39412 
L 118.961509 50.23176 
L 120.401699 50.2416 
L 121.882144 50.4138 
L 123.404753 50.55156 
L 124.83284 50.42364 
L 126.351369 50.27112 
L 127.882484 50.217 
L 129.281129 50.35968 
L 130.774022 50.49252 
L 132.261198 50.59092 
L 133.756398 50.59092 
L 135.225737 50.33016 
L 136.741667 50.4384 
L 138.24 50.3892 
" clip-path="url(#p0eaaaa5fe9)" style="fill: none; stroke: #bebebe; stroke-width: 0.6; stroke-linecap: round"/>
   </g>
   <g id="line2d_6">
    <path d="M 5.76 43.46676 
L 7.227979 43.65372 
L 8.717256 43.79148 
L 10.192088 43.81116 
L 11.70206 43.77672 
L 13.193472 43.2552 
L 14.671385 43.40772 
L 16.161368 42.49752 
L 17.643758 42.90588 
L 19.145019 42.8616 
L 20.609847 42.41388 
L 22.124106 42.63036 
L 23.619306 42.79764 
L 25.097409 41.57256 
L 26.583845 41.86284 
L 28.077857 41.63652 
L 29.562399 41.85792 
L 31.033563 41.22324 
L 32.540781 41.76936 
L 34.032038 42.1482 
L 35.513085 41.96616 
L 36.996043 41.59224 
L 38.489641 41.76936 
L 39.981157 41.99076 
L 41.450978 41.91696 
L 42.96169 41.98584 
L 44.465292 41.41512 
L 45.955981 42.15312 
L 47.43949 41.96124 
L 48.929559 42.43848 
L 50.433385 42.20232 
L 51.882993 42.02028 
L 53.400765 42.0252 
L 54.887821 41.40528 
L 56.342628 41.46432 
L 57.856406 41.52336 
L 59.344374 41.86776 
L 60.807188 42.1974 
L 62.300201 41.8776 
L 63.817749 41.84316 
L 65.317064 41.8038 
L 66.783975 41.976 
L 68.278624 42.00552 
L 69.764544 42.3942 
L 71.259451 42.27612 
L 72.728032 42.57624 
L 74.237815 42.85176 
L 75.739833 43.31424 
L 77.216748 43.2306 
L 78.70964 43.39296 
L 80.205684 43.16172 
L 81.681858 43.24536 
L 83.148994 43.71768 
L 84.66012 43.33392 
L 86.167268 43.42248 
L 87.632303 43.51596 
L 89.135147 43.67832 
L 90.617968 44.32776 
L 92.106642 44.13588 
L 93.572762 44.16048 
L 95.090706 43.96368 
L 96.600282 44.2392 
L 98.07322 44.19984 
L 99.577527 45.16908 
L 101.060003 45.67584 
L 102.523076 46.00548 
L 103.987783 47.57004 
L 105.507328 47.04852 
L 107.001478 46.64016 
L 108.460659 46.34496 
L 109.963658 46.82712 
L 111.45996 46.65492 
L 112.953369 46.51716 
L 114.43006 46.5516 
L 115.928428 46.46304 
L 117.465448 46.14816 
L 118.961509 45.84312 
L 120.401699 45.6414 
L 121.882144 46.09404 
L 123.404753 46.3302 
L 124.83284 46.21704 
L 126.351369 46.06452 
L 127.882484 46.035 
L 129.281129 46.14324 
L 130.774022 46.52208 
L 132.261198 46.83204 
L 133.756398 47.38308 
L 135.225737 47.14692 
L 136.741667 47.22564 
L 138.24 47.22072 
" clip-path="url(#p0eaaaa5fe9)" style="fill: none; stroke: #4a8dff; stroke-width: 0.6; stroke-linecap: round"/>
   </g>
   <g id="line2d_7">
    <path d="M 5.76 49.40028 
L 7.227979 49.56756 
L 8.717256 49.59708 
L 10.192088 49.56264 
L 11.70206 49.53312 
L 13.193472 49.25268 
L 14.671385 49.29696 
L 16.161368 48.89352 
L 17.643758 48.96732 
L 19.145019 48.8148 
L 20.609847 48.5934 
L 22.124106 48.84432 
L 23.619306 48.95748 
L 25.097409 48.30804 
L 26.583845 48.34248 
L 28.077857 48.21456 
L 29.562399 48.26376 
L 31.033563 47.41752 
L 32.540781 48.05712 
L 34.032038 48.26376 
L 35.513085 48.01776 
L 36.996043 47.23548 
L 38.489641 47.17644 
L 39.981157 47.15676 
L 41.450978 47.1666 
L 42.96169 47.31912 
L 44.465292 46.49256 
L 45.955981 47.64876 
L 47.43949 47.5356 
L 48.929559 48.0276 
L 50.433385 47.50608 
L 51.882993 46.81728 
L 53.400765 46.92552 
L 54.887821 45.85788 
L 56.342628 45.60204 
L 57.856406 45.29208 
L 59.344374 45.58728 
L 60.807188 46.2564 
L 62.300201 45.7152 
L 63.817749 45.63648 
L 65.317064 45.6414 
L 66.783975 45.45936 
L 68.278624 45.42492 
L 69.764544 46.38432 
L 71.259451 45.57744 
L 72.728032 46.51716 
L 74.237815 46.95996 
L 75.739833 47.54544 
L 77.216748 47.59464 
L 78.70964 47.66844 
L 80.205684 47.05344 
L 81.681858 47.22564 
L 83.148994 48.07188 
L 84.66012 47.6832 
L 86.167268 47.37324 
L 87.632303 47.66844 
L 89.135147 48.07188 
L 90.617968 48.59832 
L 92.106642 48.52452 
L 93.572762 48.5688 
L 95.090706 48.38676 
L 96.600282 48.55404 
L 98.07322 49.0116 
L 99.577527 49.57248 
L 101.060003 49.93656 
L 102.523076 49.98084 
L 103.987783 50.3646 
L 105.507328 50.15796 
L 107.001478 50.07432 
L 108.460659 49.99068 
L 109.963658 50.217 
L 111.45996 50.07924 
L 112.953369 49.98084 
L 114.43006 49.971 
L 115.928428 49.87752 
L 117.465448 49.69548 
L 118.961509 49.65612 
L 120.401699 49.7004 
L 121.882144 49.92672 
L 123.404753 50.06448 
L 124.83284 49.971 
L 126.351369 49.89228 
L 127.882484 49.89228 
L 129.281129 49.9464 
L 130.774022 50.05956 
L 132.261198 50.2416 
L 133.756398 50.35968 
L 135.225737 50.31048 
L 136.741667 50.34492 
L 138.24 50.38428 
" clip-path="url(#p0eaaaa5fe9)" style="fill: none; stroke: #f5841e; stroke-width: 0.7; stroke-linecap: round"/>
   </g>
  </g>
 </g>
 <defs>
  <clipPath id="p0eaaaa5fe9">
   <rect x="5.76" y="3.6" width="132.48" height="49.2"/>
  </clipPath>
 </defs>
</svg>
