<?xml version="1.0" encoding="utf-8" standalone="no"?>
<!DOCTYPE svg PUBLIC "-//W3C//DTD SVG 1.1//EN"
  "http://www.w3.org/Graphics/SVG/1.1/DTD/svg11.dtd">
<svg xmlns:xlink="http://www.w3.org/1999/xlink" width="144pt" height="60pt" viewBox="0 0 144 60" xmlns="http://www.w3.org/2000/svg" version="1.1">
  <desc id="nav-meta">{"window":"3m","count":4,"labels":["29.12","28.01","27.02","29.03"],"tick_utc":["2025-12-29T12:00:00Z","2026-01-28T12:00:00Z","2026-02-27T03:18:03Z","2026-03-29T03:47:09Z"]}</desc>

 <metadata>
  <rdf:RDF xmlns:dc="http://purl.org/dc/elements/1.1/" xmlns:cc="http://creativecommons.org/ns#" xmlns:rdf="http://www.w3.org/1999/02/22-rdf-syntax-ns#">
   <cc:Work>
    <dc:type rdf:resource="http://purl.org/dc/dcmitype/StillImage"/>
    <dc:date>2026-03-29T03:47:11.089579</dc:date>
    <dc:format>image/svg+xml</dc:format>
    <dc:creator>
     <cc:Agent>
      <dc:title>Matplotlib v3.10.8, https://matplotlib.org/</dc:title>
     </cc:Agent>
    </dc:creator>
   </cc:Work>
  </rdf:RDF>
 </metadata>
 <defs>
  <style type="text/css">*{stroke-linejoin: round; stroke-linecap: butt}</style>
 </defs>
 <g id="figure_1">
  <g id="patch_1">
   <path d="M 0 60 
L 144 60 
L 144 0 
L 0 0 
L 0 60 
z
" style="fill: none; opacity: 0"/>
  </g>
  <g id="axes_1">
   <g id="patch_2">
    <path d="M 5.76 52.8 
L 138.24 52.8 
L 138.24 3.6 
L 5.76 3.6 
L 5.76 52.8 
z
" style="fill: none"/>
   </g>
   <g id="matplotlib.axis_1"/>
   <g id="matplotlib.axis_2"/>
   <g id="line2d_1">
    <path d="M 5.76 42.96 
L 138.24 42.96 
" clip-path="url(#p75077fcde2)" style="fill: none; stroke: #b2b2b2; stroke-opacity: 0.35; stroke-width: 0.5; stroke-linecap: square"/>
   </g>
   <g id="line2d_2">
    <path d="M 5.76 33.12 
L 138.24 33.12 
" clip-path="url(#p75077fcde2)" style="fill: none; stroke: #b2b2b2; stroke-opacity: 0.35; stroke-width: 0.5; stroke-linecap: square"/>
   </g>
   <g id="line2d_3">
    <path d="M 5.76 23.28 
L 138.24 23.28 
" clip-path="url(#p75077fcde2)" style="fill: none; stroke: #b2b2b2; stroke-opacity: 0.35; stroke-width: 0.5; stroke-linecap: square"/>
   </g>
   <g id="line2d_4">
    <path d="M 5.76 13.44 
L 138.24 13.44 
" clip-path="url(#p75077fcde2)" style="fill: none; stroke: #b2b2b2; stroke-opacity: 0.35; stroke-width: 0.5; stroke-linecap: square"/>
   </g>
   <g id="line2d_5">
    <path d="M 5.76 45.31668 
L 7.237619 45.58728 
L 8.715238 45.35604 
L 10.192858 45.40032 
L 11.670477 45.11496 
L 13.148096 44.42124 
L 14.625715 44.25888 
L 16.103334 44.18508 
L 17.580953 43.62912 
L 19.058573 43.24044 
L 20.536192 43.8702 
L 22.013811 43.60944 
L 23.49143 43.92924 
L 24.969049 43.93416 
L 26.446668 43.46184 
L 27.924288 43.5012 
L 29.401907 42.72384 
L 30.879526 42.51228 
L 32.357145 43.08792 
L 33.834764 42.75828 
L 35.312383 42.90096 
L 36.790003 43.57008 
L 38.267622 44.2392 
L 39.745241 45.23304 
L 41.22286 44.77548 
L 42.700479 44.91816 
L 44.178098 45.04608 
L 45.655718 45.07068 
L 47.133337 46.1334 
L 48.610956 45.4446 
L 50.088575 45.06084 
L 51.566194 45.33144 
L 53.043813 46.30068 
L 54.521433 46.34496 
L 55.999052 47.89476 
L 57.476671 48.26376 
L 58.95429 47.96364 
L 60.201733 48.55896 
L 61.375978 49.06572 
L 62.852845 50.04972 
L 64.324136 49.24776 
L 65.835532 49.32156 
L 67.300957 49.31172 
L 68.787008 49.43964 
L 70.261566 49.59708 
L 71.733866 49.80372 
L 73.211041 49.86768 
L 74.670891 49.479 
L 76.070542 49.24776 
L 77.64294 49.48392 
L 78.934951 49.37568 
L 80.595836 49.479 
L 82.071659 49.7004 
L 83.540642 49.62168 
L 85.009231 49.5282 
L 86.50373 49.49376 
L 87.985796 49.98576 
L 89.338587 49.96608 
L 90.935715 49.7004 
L 92.40675 49.27236 
L 93.881565 49.37076 
L 95.341774 49.68072 
L 96.852964 49.25268 
L 98.315329 49.51344 
L 99.796385 49.4052 
L 101.265727 49.34124 
L 102.746527 49.09032 
L 104.223445 49.24284 
L 105.689726 49.49868 
L 107.181693 49.64628 
L 108.663742 49.58724 
L 110.13187 49.36092 
L 111.608907 49.41996 
L 113.092341 49.45932 
L 114.567104 49.16904 
L 116.042757 49.22808 
L 117.548646 49.27236 
L 119.030438 48.87384 
L 120.482199 48.74592 
L 121.971088 48.70164 
L 123.449118 49.03128 
L 124.912354 49.1592 
L 126.381319 49.08048 
L 127.881035 49.21332 
L 129.362125 49.36584 
L 130.826063 49.11 
L 132.413734 48.90828 
L 133.799276 49.05096 
L 135.278759 49.37076 
L 136.742252 49.64628 
L 138.24 49.6266 
" clip-path="url(#p75077fcde2)" style="fill: none; stroke: #bebebe; stroke-width: 0.6; stroke-linecap: round"/>
   </g>
   <g id="line2d_6">
    <path d="M 5.76 37.46928 
L 7.237619 37.56276 
L 8.715238 37.31184 
L 10.192858 37.33644 
L 11.670477 37.09536 
L 13.148096 36.23928 
L 14.625715 36.20976 
L 16.103334 36.11628 
L 17.580953 35.48652 
L 19.058573 35.0142 
L 20.536192 35.93424 
L 22.013811 36.36228 
L 23.49143 36.50988 
L 24.969049 36.5148 
L 26.446668 36.25404 
L 27.924288 36.46068 
L 29.401907 34.83708 
L 30.879526 34.57632 
L 32.357145 34.84692 
L 33.834764 35.00436 
L 35.312383 34.93056 
L 36.790003 35.088 
L 38.267622 35.78664 
L 39.745241 37.55292 
L 41.22286 37.26756 
L 42.700479 37.46436 
L 44.178098 37.44468 
L 45.655718 37.45944 
L 47.133337 38.41392 
L 48.610956 37.61196 
L 50.088575 36.95268 
L 51.566194 37.05108 
L 53.043813 38.37948 
L 54.521433 39.20604 
L 55.999052 41.03136 
L 57.476671 42.26628 
L 58.95429 41.73492 
L 60.201733 42.23676 
L 61.375978 43.38804 
L 62.852845 44.89356 
L 64.324136 43.6242 
L 65.835532 43.575 
L 67.300957 43.53072 
L 68.787008 43.72752 
L 70.261566 44.0916 
L 71.733866 44.436 
L 73.211041 44.49012 
L 74.670891 43.81608 
L 76.070542 43.7226 
L 77.64294 44.5344 
L 78.934951 44.19 
L 80.595836 44.21952 
L 82.071659 44.3868 
L 83.540642 44.51472 
L 85.009231 44.4606 
L 86.50373 44.3868 
L 87.985796 45.174 
L 89.338587 45.23796 
L 90.935715 44.81484 
L 92.40675 43.821 
L 93.881565 44.01288 
L 95.341774 44.66232 
L 96.852964 43.93908 
L 98.315329 44.39664 
L 99.796385 44.12112 
L 101.265727 44.33268 
L 102.746527 43.3044 
L 104.223445 43.6242 
L 105.689726 44.29824 
L 107.181693 44.53932 
L 108.663742 44.30808 
L 110.13187 43.8702 
L 111.608907 44.00304 
L 113.092341 43.97844 
L 114.567104 43.41756 
L 116.042757 43.48152 
L 117.548646 43.48644 
L 119.030438 42.49752 
L 120.482199 41.73984 
L 121.971088 41.7546 
L 123.449118 42.591 
L 124.912354 43.14204 
L 126.381319 43.083 
L 127.881035 43.35852 
L 129.362125 43.78164 
L 130.826063 43.21584 
L 132.413734 42.9354 
L 133.799276 43.10268 
L 135.278759 43.72752 
L 136.742252 44.25396 
L 138.24 44.10636 
" clip-path="url(#p75077fcde2)" style="fill: none; stroke: #4a8dff; stroke-width: 0.6; stroke-linecap: round"/>
   </g>
   <g id="line2d_7">
    <path d="M 5.76 42.1728 
L 7.237619 42.50244 
L 8.715238 41.88252 
L 10.192858 42.32532 
L 11.670477 41.73 
L 13.148096 41.13468 
L 14.625715 40.80504 
L 16.103334 40.42128 
L 17.580953 39.16176 
L 19.058573 39.28968 
L 20.536192 40.48032 
L 22.013811 40.61316 
L 23.49143 40.84932 
L 24.969049 40.88376 
L 26.446668 40.6968 
L 27.924288 40.53936 
L 29.401907 38.50248 
L 30.879526 37.63656 
L 32.357145 38.34012 
L 33.834764 38.37456 
L 35.312383 38.5812 
L 36.790003 39.2454 
L 38.267622 39.8358 
L 39.745241 41.93172 
L 41.22286 41.42004 
L 42.700479 41.37576 
L 44.178098 41.39052 
L 45.655718 41.5086 
L 47.133337 42.80256 
L 48.610956 41.93664 
L 50.088575 41.49384 
L 51.566194 41.51352 
L 53.043813 43.78164 
L 54.521433 43.9932 
L 55.999052 46.66968 
L 57.476671 47.55036 
L 58.95429 46.64508 
L 60.201733 47.89476 
L 61.375978 48.89352 
L 62.852845 49.84308 
L 64.324136 49.00176 
L 65.835532 49.233 
L 67.300957 48.97716 
L 68.787008 49.22316 
L 70.261566 49.36092 
L 71.733866 49.49868 
L 73.211041 49.58724 
L 74.670891 49.28712 
L 76.070542 49.16904 
L 77.64294 49.39044 
L 78.934951 49.29696 
L 80.595836 49.479 
L 82.071659 49.55772 
L 83.540642 49.51344 
L 85.009231 49.44948 
L 86.50373 49.41996 
L 87.985796 49.8234 
L 89.338587 49.86768 
L 90.935715 49.72992 
L 92.40675 49.39536 
L 93.881565 49.52328 
L 95.341774 49.6758 
L 96.852964 49.47408 
L 98.315329 49.60692 
L 99.796385 49.37568 
L 101.265727 49.36584 
L 102.746527 48.6672 
L 104.223445 48.95256 
L 105.689726 49.36092 
L 107.181693 49.54788 
L 108.663742 49.5282 
L 110.13187 49.09032 
L 111.608907 49.16412 
L 113.092341 49.2084 
L 114.567104 48.93288 
L 116.042757 48.95748 
L 117.548646 48.89844 
L 119.030438 48.48024 
L 120.482199 48.1998 
L 121.971088 48.28344 
L 123.449118 48.88368 
L 124.912354 49.04604 
L 126.381319 49.00176 
L 127.881035 49.20348 
L 129.362125 49.38552 
L 130.826063 49.04112 
L 132.413734 48.92796 
L 133.799276 48.987 
L 135.278759 49.29204 
L 136.742252 49.66104 
L 138.24 49.56756 
" clip-path="url(#p75077fcde2)" style="fill: none; stroke: #f5841e; stroke-width: 0.7; stroke-linecap: round"/>
   </g>
  </g>
 </g>
 <defs>
  <clipPath id="p75077fcde2">
   <rect x="5.76" y="3.6" width="132.48" height="49.2"/>
  </clipPath>
 </defs>
</svg>
