<?xml version="1.0" encoding="utf-8" standalone="no"?>
<!DOCTYPE svg PUBLIC "-//W3C//DTD SVG 1.1//EN"
  "http://www.w3.org/Graphics/SVG/1.1/DTD/svg11.dtd">
<svg xmlns:xlink="http://www.w3.org/1999/xlink" width="144pt" height="60pt" viewBox="0 0 144 60" xmlns="http://www.w3.org/2000/svg" version="1.1">
  <desc id="nav-meta">{"window":"1m","count":4,"labels":["22.01","01.02","10.02","20.02"],"tick_utc":["2026-01-22T12:00:00Z","2026-02-01T12:00:00Z","2026-02-10T03:42:23Z","2026-02-20T03:20:24Z"]}</desc>

 <metadata>
  <rdf:RDF xmlns:dc="http://purl.org/dc/elements/1.1/" xmlns:cc="http://creativecommons.org/ns#" xmlns:rdf="http://www.w3.org/1999/02/22-rdf-syntax-ns#">
   <cc:Work>
    <dc:type rdf:resource="http://purl.org/dc/dcmitype/StillImage"/>
    <dc:date>2026-02-20T19:25:32.486870</dc:date>
    <dc:format>image/svg+xml</dc:format>
    <dc:creator>
     <cc:Agent>
      <dc:title>Matplotlib v3.10.8, https://matplotlib.org/</dc:title>
     </cc:Agent>
    </dc:creator>
   </cc:Work>
  </rdf:RDF>
 </metadata>
 <defs>
  <style type="text/css">*{stroke-linejoin: round; stroke-linecap: butt}</style>
 </defs>
 <g id="figure_1">
  <g id="patch_1">
   <path d="M 0 60 
L 144 60 
L 144 0 
L 0 0 
L 0 60 
z
" style="fill: none; opacity: 0"/>
  </g>
  <g id="axes_1">
   <g id="patch_2">
    <path d="M 5.76 52.8 
L 138.24 52.8 
L 138.24 3.6 
L 5.76 3.6 
L 5.76 52.8 
z
" style="fill: none"/>
   </g>
   <g id="matplotlib.axis_1"/>
   <g id="matplotlib.axis_2"/>
   <g id="line2d_1">
    <path d="M 5.76 42.96 
L 138.24 42.96 
" clip-path="url(#pa12ec021d3)" style="fill: none; stroke: #b2b2b2; stroke-opacity: 0.35; stroke-width: 0.5; stroke-linecap: square"/>
   </g>
   <g id="line2d_2">
    <path d="M 5.76 33.12 
L 138.24 33.12 
" clip-path="url(#pa12ec021d3)" style="fill: none; stroke: #b2b2b2; stroke-opacity: 0.35; stroke-width: 0.5; stroke-linecap: square"/>
   </g>
   <g id="line2d_3">
    <path d="M 5.76 23.28 
L 138.24 23.28 
" clip-path="url(#pa12ec021d3)" style="fill: none; stroke: #b2b2b2; stroke-opacity: 0.35; stroke-width: 0.5; stroke-linecap: square"/>
   </g>
   <g id="line2d_4">
    <path d="M 5.76 13.44 
L 138.24 13.44 
" clip-path="url(#pa12ec021d3)" style="fill: none; stroke: #b2b2b2; stroke-opacity: 0.35; stroke-width: 0.5; stroke-linecap: square"/>
   </g>
   <g id="line2d_5">
    <path d="M 5.76 44.77548 
L 10.385833 44.91816 
L 15.011666 45.04608 
L 19.637499 45.07068 
L 24.263332 46.1334 
L 28.889165 45.4446 
L 33.514998 45.06084 
L 38.14083 45.33144 
L 42.766663 46.30068 
L 47.392496 46.34496 
L 52.018329 47.89476 
L 56.644162 48.26376 
L 61.269995 47.96364 
L 65.175237 48.55896 
L 68.851328 49.06572 
L 73.474805 50.04972 
L 78.080829 49.24776 
L 82.812403 49.32156 
L 87.400062 49.31172 
L 92.05229 49.43964 
L 96.668539 49.59708 
L 101.277721 49.80372 
L 105.902162 49.86768 
L 110.472367 49.479 
L 114.854112 49.24776 
L 119.776662 49.48392 
L 123.821429 49.37568 
L 129.020993 49.479 
L 133.641205 49.7004 
L 138.24 49.62168 
" clip-path="url(#pa12ec021d3)" style="fill: none; stroke: #bebebe; stroke-width: 0.6; stroke-linecap: round"/>
   </g>
   <g id="line2d_6">
    <path d="M 5.76 37.26756 
L 10.385833 37.46436 
L 15.011666 37.44468 
L 19.637499 37.45944 
L 24.263332 38.41392 
L 28.889165 37.61196 
L 33.514998 36.95268 
L 38.14083 37.05108 
L 42.766663 38.37948 
L 47.392496 39.20604 
L 52.018329 41.03136 
L 56.644162 42.26628 
L 61.269995 41.73492 
L 65.175237 42.23676 
L 68.851328 43.38804 
L 73.474805 44.89356 
L 78.080829 43.6242 
L 82.812403 43.575 
L 87.400062 43.53072 
L 92.05229 43.72752 
L 96.668539 44.0916 
L 101.277721 44.436 
L 105.902162 44.49012 
L 110.472367 43.81608 
L 114.854112 43.7226 
L 119.776662 44.5344 
L 123.821429 44.19 
L 129.020993 44.21952 
L 133.641205 44.3868 
L 138.24 44.51472 
" clip-path="url(#pa12ec021d3)" style="fill: none; stroke: #4a8dff; stroke-width: 0.6; stroke-linecap: round"/>
   </g>
   <g id="line2d_7">
    <path d="M 5.76 41.42004 
L 10.385833 41.37576 
L 15.011666 41.39052 
L 19.637499 41.5086 
L 24.263332 42.80256 
L 28.889165 41.93664 
L 33.514998 41.49384 
L 38.14083 41.51352 
L 42.766663 43.78164 
L 47.392496 43.9932 
L 52.018329 46.66968 
L 56.644162 47.55036 
L 61.269995 46.64508 
L 65.175237 47.89476 
L 68.851328 48.89352 
L 73.474805 49.84308 
L 78.080829 49.00176 
L 82.812403 49.233 
L 87.400062 48.97716 
L 92.05229 49.22316 
L 96.668539 49.36092 
L 101.277721 49.49868 
L 105.902162 49.58724 
L 110.472367 49.28712 
L 114.854112 49.16904 
L 119.776662 49.39044 
L 123.821429 49.29696 
L 129.020993 49.479 
L 133.641205 49.55772 
L 138.24 49.51344 
" clip-path="url(#pa12ec021d3)" style="fill: none; stroke: #f5841e; stroke-width: 0.7; stroke-linecap: round"/>
   </g>
  </g>
 </g>
 <defs>
  <clipPath id="pa12ec021d3">
   <rect x="5.76" y="3.6" width="132.48" height="49.2"/>
  </clipPath>
 </defs>
</svg>
