<?xml version="1.0" encoding="utf-8" standalone="no"?>
<!DOCTYPE svg PUBLIC "-//W3C//DTD SVG 1.1//EN"
  "http://www.w3.org/Graphics/SVG/1.1/DTD/svg11.dtd">
<svg xmlns:xlink="http://www.w3.org/1999/xlink" width="144pt" height="60pt" viewBox="0 0 144 60" xmlns="http://www.w3.org/2000/svg" version="1.1">
  <desc id="nav-meta">{"window":"1w","count":4,"labels":["17 Jan","21 Jan","22 Jan","24 Jan"],"idxs":[0,29,58,87]}</desc>

 <metadata>
  <rdf:RDF xmlns:dc="http://purl.org/dc/elements/1.1/" xmlns:cc="http://creativecommons.org/ns#" xmlns:rdf="http://www.w3.org/1999/02/22-rdf-syntax-ns#">
   <cc:Work>
    <dc:type rdf:resource="http://purl.org/dc/dcmitype/StillImage"/>
    <dc:date>2026-01-24T14:48:39.180349</dc:date>
    <dc:format>image/svg+xml</dc:format>
    <dc:creator>
     <cc:Agent>
      <dc:title>Matplotlib v3.10.8, https://matplotlib.org/</dc:title>
     </cc:Agent>
    </dc:creator>
   </cc:Work>
  </rdf:RDF>
 </metadata>
 <defs>
  <style type="text/css">*{stroke-linejoin: round; stroke-linecap: butt}</style>
 </defs>
 <g id="figure_1">
  <g id="patch_1">
   <path d="M 0 60 
L 144 60 
L 144 0 
L 0 0 
L 0 60 
z
" style="fill: none; opacity: 0"/>
  </g>
  <g id="axes_1">
   <g id="patch_2">
    <path d="M 5.76 52.8 
L 138.24 52.8 
L 138.24 3.6 
L 5.76 3.6 
L 5.76 52.8 
z
" style="fill: none"/>
   </g>
   <g id="matplotlib.axis_1"/>
   <g id="matplotlib.axis_2"/>
   <g id="line2d_1">
    <path d="M 5.76 42.96 
L 138.24 42.96 
" clip-path="url(#p98c28a8ff7)" style="fill: none; stroke: #b2b2b2; stroke-opacity: 0.35; stroke-width: 0.5; stroke-linecap: square"/>
   </g>
   <g id="line2d_2">
    <path d="M 5.76 33.12 
L 138.24 33.12 
" clip-path="url(#p98c28a8ff7)" style="fill: none; stroke: #b2b2b2; stroke-opacity: 0.35; stroke-width: 0.5; stroke-linecap: square"/>
   </g>
   <g id="line2d_3">
    <path d="M 5.76 23.28 
L 138.24 23.28 
" clip-path="url(#p98c28a8ff7)" style="fill: none; stroke: #b2b2b2; stroke-opacity: 0.35; stroke-width: 0.5; stroke-linecap: square"/>
   </g>
   <g id="line2d_4">
    <path d="M 5.76 13.44 
L 138.24 13.44 
" clip-path="url(#p98c28a8ff7)" style="fill: none; stroke: #b2b2b2; stroke-opacity: 0.35; stroke-width: 0.5; stroke-linecap: square"/>
   </g>
   <g id="line2d_5">
    <path d="M 6.512727 37.52832 
L 10.99049 37.4906 
L 13.229371 37.579791 
L 14.721958 37.68576 
L 25.916364 37.74972 
L 26.28951 37.897068 
L 27.408951 38.698271 
L 27.782098 38.8272 
L 33.379301 38.730314 
L 35.245035 38.722576 
L 37.483916 38.86656 
L 38.23021 38.903902 
L 39.722797 39.41268 
L 41.961678 39.504184 
L 43.454266 39.57996 
L 53.902378 39.492577 
L 55.021818 39.3438 
L 56.887552 39.268865 
L 58.38014 39.18144 
L 60.245874 39.27 
L 61.738462 39.30936 
L 68.828252 39.374624 
L 70.320839 39.52092 
L 117.71049 39.616334 
L 119.576224 39.64392 
L 122.188252 39.746946 
L 124.427133 39.76692 
L 126.666014 39.671043 
L 128.904895 39.64884 
L 137.487273 39.61932 
L 137.487273 39.61932 
" clip-path="url(#p98c28a8ff7)" style="fill: none; stroke: #bebebe; stroke-width: 0.6; stroke-linecap: round"/>
   </g>
   <g id="line2d_6">
    <path d="M 6.512727 31.92444 
L 17.707133 31.833862 
L 22.184895 31.68336 
L 22.931189 31.68336 
L 23.677483 32.045043 
L 24.796923 32.589439 
L 28.528392 32.592383 
L 32.633007 32.56896 
L 34.125594 32.666519 
L 35.618182 32.85432 
L 36.737622 32.898222 
L 38.23021 33.42504 
L 39.722797 33.453887 
L 41.215385 33.9072 
L 43.454266 33.984028 
L 45.32 34.04988 
L 46.812587 34.155849 
L 48.305175 34.18764 
L 55.021818 34.10072 
L 56.514406 33.84816 
L 58.753287 33.930917 
L 60.619021 33.96624 
L 66.962517 34.18272 
L 68.455105 34.45332 
L 112.486434 34.361396 
L 114.725315 34.31064 
L 118.456783 34.528382 
L 119.949371 34.541712 
L 121.815105 34.65996 
L 122.934545 34.59108 
L 124.427133 34.469299 
L 127.412308 34.466188 
L 130.024336 34.372077 
L 133.755804 34.323255 
L 137.487273 34.34508 
L 137.487273 34.34508 
" clip-path="url(#p98c28a8ff7)" style="fill: none; stroke: #4a8dff; stroke-width: 0.7; stroke-linecap: round"/>
   </g>
   <g id="line2d_7">
    <path d="M 6.512727 36.4656 
L 11.736783 36.552941 
L 13.602517 36.61812 
L 21.438601 36.510553 
L 22.931189 36.50004 
L 23.677483 36.942756 
L 24.423776 37.489086 
L 24.796923 37.586393 
L 27.408951 37.49388 
L 31.886713 37.472308 
L 33.752448 37.498758 
L 35.245035 37.87764 
L 36.737622 37.916243 
L 38.23021 38.37948 
L 40.095944 38.455172 
L 41.588531 38.62548 
L 43.081119 38.709835 
L 44.573706 38.91576 
L 46.812587 39.006591 
L 48.678322 39.034639 
L 51.663497 39.12732 
L 53.529231 38.84196 
L 55.768112 38.753652 
L 57.260699 38.71896 
L 66.589371 38.78292 
L 69.574545 39.147 
L 78.903217 39.145066 
L 81.142098 39.01908 
L 82.634685 38.924717 
L 84.127273 38.8518 
L 86.739301 38.934683 
L 88.978182 39.02892 
L 100.918881 39.090651 
L 104.277203 39.034807 
L 109.128112 39.066556 
L 111.74014 38.999148 
L 114.725315 38.82228 
L 118.82993 39.133459 
L 122.934545 39.1552 
L 124.053986 38.981234 
L 127.039161 39.053436 
L 131.89007 38.88132 
L 136.740979 38.989938 
L 137.487273 39.03384 
L 137.487273 39.03384 
" clip-path="url(#p98c28a8ff7)" style="fill: none; stroke: #f5841e; stroke-width: 0.8; stroke-linecap: round"/>
   </g>
  </g>
 </g>
 <defs>
  <clipPath id="p98c28a8ff7">
   <rect x="5.76" y="3.6" width="132.48" height="49.2"/>
  </clipPath>
 </defs>
</svg>
