<?xml version="1.0" encoding="utf-8" standalone="no"?>
<!DOCTYPE svg PUBLIC "-//W3C//DTD SVG 1.1//EN"
  "http://www.w3.org/Graphics/SVG/1.1/DTD/svg11.dtd">
<svg xmlns:xlink="http://www.w3.org/1999/xlink" width="144pt" height="60pt" viewBox="0 0 144 60" xmlns="http://www.w3.org/2000/svg" version="1.1">
  <desc id="nav-meta">{"window":"6m","count":4,"labels":["28.09","27.11","25.01","26.03"],"tick_utc":["2025-09-28T12:00:00Z","2025-11-27T12:00:00Z","2026-01-25T12:00:00Z","2026-03-26T03:39:29Z"]}</desc>

 <metadata>
  <rdf:RDF xmlns:dc="http://purl.org/dc/elements/1.1/" xmlns:cc="http://creativecommons.org/ns#" xmlns:rdf="http://www.w3.org/1999/02/22-rdf-syntax-ns#">
   <cc:Work>
    <dc:type rdf:resource="http://purl.org/dc/dcmitype/StillImage"/>
    <dc:date>2026-03-26T14:10:21.709708</dc:date>
    <dc:format>image/svg+xml</dc:format>
    <dc:creator>
     <cc:Agent>
      <dc:title>Matplotlib v3.10.8, https://matplotlib.org/</dc:title>
     </cc:Agent>
    </dc:creator>
   </cc:Work>
  </rdf:RDF>
 </metadata>
 <defs>
  <style type="text/css">*{stroke-linejoin: round; stroke-linecap: butt}</style>
 </defs>
 <g id="figure_1">
  <g id="patch_1">
   <path d="M 0 60 
L 144 60 
L 144 0 
L 0 0 
L 0 60 
z
" style="fill: none; opacity: 0"/>
  </g>
  <g id="axes_1">
   <g id="patch_2">
    <path d="M 5.76 52.8 
L 138.24 52.8 
L 138.24 3.6 
L 5.76 3.6 
L 5.76 52.8 
z
" style="fill: none"/>
   </g>
   <g id="matplotlib.axis_1"/>
   <g id="matplotlib.axis_2"/>
   <g id="line2d_1">
    <path d="M 5.76 42.96 
L 138.24 42.96 
" clip-path="url(#p6cae9cb797)" style="fill: none; stroke: #b2b2b2; stroke-opacity: 0.35; stroke-width: 0.5; stroke-linecap: square"/>
   </g>
   <g id="line2d_2">
    <path d="M 5.76 33.12 
L 138.24 33.12 
" clip-path="url(#p6cae9cb797)" style="fill: none; stroke: #b2b2b2; stroke-opacity: 0.35; stroke-width: 0.5; stroke-linecap: square"/>
   </g>
   <g id="line2d_3">
    <path d="M 5.76 23.28 
L 138.24 23.28 
" clip-path="url(#p6cae9cb797)" style="fill: none; stroke: #b2b2b2; stroke-opacity: 0.35; stroke-width: 0.5; stroke-linecap: square"/>
   </g>
   <g id="line2d_4">
    <path d="M 5.76 13.44 
L 138.24 13.44 
" clip-path="url(#p6cae9cb797)" style="fill: none; stroke: #b2b2b2; stroke-opacity: 0.35; stroke-width: 0.5; stroke-linecap: square"/>
   </g>
   <g id="line2d_5">
    <path d="M 5.76 35.10276 
L 6.501552 34.16796 
L 7.243103 33.8826 
L 7.984655 34.43364 
L 9.467758 31.05852 
L 10.20931 31.26024 
L 10.950862 31.92936 
L 11.692413 31.85064 
L 12.433965 31.3242 
L 13.175517 32.84448 
L 13.917068 31.78176 
L 14.65862 32.85924 
L 15.400172 36.8838 
L 16.141723 38.39424 
L 16.883275 35.95392 
L 17.624827 34.53696 
L 18.366378 35.20608 
L 19.849482 37.57752 
L 20.591033 37.90716 
L 21.332585 37.18884 
L 22.074137 37.18392 
L 22.815688 36.89364 
L 23.55724 37.42008 
L 24.298792 38.17284 
L 25.040343 36.687 
L 25.781895 36.42132 
L 26.523447 36.34752 
L 27.264998 35.56032 
L 28.00655 35.72268 
L 28.748102 36.29832 
L 29.489654 36.32292 
L 30.231205 37.61688 
L 30.972757 37.2282 
L 31.714309 37.34628 
L 32.45586 37.23804 
L 33.197412 40.008 
L 33.938964 41.36592 
L 34.680515 40.43604 
L 35.422067 41.44956 
L 36.163619 40.53444 
L 36.90517 41.02152 
L 37.646722 40.22448 
L 38.388274 39.79644 
L 39.129825 41.51844 
L 39.871377 41.66604 
L 40.612929 42.714 
L 41.35448 43.51596 
L 42.096032 43.43724 
L 42.837584 43.71276 
L 43.579135 44.59836 
L 44.320687 43.30932 
L 45.062239 43.85052 
L 45.80379 44.21952 
L 46.545342 44.88372 
L 47.286894 44.99688 
L 48.028445 44.57868 
L 48.769997 43.5996 
L 49.511549 43.51596 
L 50.2531 43.00428 
L 50.994652 43.2798 
L 51.736204 43.71768 
L 53.219307 44.0916 
L 53.960859 45.11004 
L 54.70241 43.55532 
L 55.443962 42.72876 
L 56.927065 44.27364 
L 58.410169 44.47536 
L 59.15172 44.25888 
L 59.893272 43.64388 
L 60.634824 43.84068 
L 61.376375 43.85052 
L 62.117927 44.36712 
L 62.859479 44.26872 
L 63.60103 44.74104 
L 64.342582 44.98704 
L 65.084134 44.84436 
L 65.825685 45.58728 
L 66.567237 46.0596 
L 67.308789 45.18384 
L 70.274995 45.47904 
L 71.016547 45.65616 
L 71.758099 45.98088 
L 73.241202 45.38556 
L 73.982754 45.31668 
L 74.724305 45.58728 
L 75.465857 45.35604 
L 76.207409 45.40032 
L 76.948961 45.11496 
L 77.690512 44.42124 
L 79.173616 44.18508 
L 79.915167 43.62912 
L 80.656719 43.24044 
L 81.398271 43.8702 
L 82.139822 43.60944 
L 82.881374 43.92924 
L 83.622926 43.93416 
L 84.364477 43.46184 
L 85.106029 43.5012 
L 85.847581 42.72384 
L 86.589132 42.51228 
L 87.330684 43.08792 
L 88.072236 42.75828 
L 88.813787 42.90096 
L 90.296891 44.2392 
L 91.038442 45.23304 
L 91.779994 44.77548 
L 93.263097 45.04608 
L 94.004649 45.07068 
L 94.746201 46.1334 
L 95.487752 45.4446 
L 96.229304 45.06084 
L 96.970856 45.33144 
L 97.712407 46.30068 
L 98.453959 46.34496 
L 99.195511 47.89476 
L 99.937062 48.26376 
L 100.678614 47.96364 
L 101.893952 49.06572 
L 102.635126 50.04972 
L 103.373502 49.24776 
L 106.353235 49.59708 
L 107.092118 49.80372 
L 107.833446 49.86768 
L 108.56608 49.479 
L 109.268503 49.24776 
L 110.057621 49.48392 
L 110.706023 49.37568 
L 111.539548 49.479 
L 112.280199 49.7004 
L 114.504459 49.49376 
L 115.248242 49.98576 
L 115.927148 49.96608 
L 116.728676 49.7004 
L 117.466923 49.27236 
L 118.207067 49.37076 
L 118.939882 49.68072 
L 119.698281 49.25268 
L 120.432177 49.51344 
L 122.656 49.09032 
L 124.881813 49.64628 
L 125.625588 49.58724 
L 126.362376 49.36092 
L 127.848106 49.45932 
L 128.588224 49.16904 
L 130.084528 49.27236 
L 130.828174 48.87384 
L 132.303956 48.70164 
L 133.045714 49.03128 
L 133.780047 49.1592 
L 134.517256 49.08048 
L 136.013191 49.36584 
L 137.544658 48.90828 
L 138.24 49.05096 
L 138.24 49.05096 
" clip-path="url(#p6cae9cb797)" style="fill: none; stroke: #bebebe; stroke-width: 0.6; stroke-linecap: round"/>
   </g>
   <g id="line2d_6">
    <path d="M 5.76 29.8974 
L 6.501552 29.02164 
L 7.243103 28.50012 
L 7.984655 29.00688 
L 8.726207 27.59484 
L 9.467758 26.601 
L 10.20931 26.3796 
L 10.950862 26.5764 
L 11.692413 26.3796 
L 12.433965 25.1496 
L 13.175517 26.81256 
L 13.917068 26.29596 
L 14.65862 27.41772 
L 15.400172 31.19136 
L 16.141723 31.80144 
L 16.883275 28.89864 
L 17.624827 28.28364 
L 18.366378 29.11512 
L 19.10793 30.1434 
L 19.849482 30.80268 
L 20.591033 31.22088 
L 21.332585 30.8076 
L 22.074137 30.13356 
L 22.815688 30.17784 
L 23.55724 30.89124 
L 24.298792 31.42752 
L 25.040343 31.04376 
L 25.781895 30.49764 
L 26.523447 30.3648 
L 27.264998 28.88388 
L 28.00655 29.15448 
L 28.748102 30.15324 
L 30.231205 31.4226 
L 30.972757 31.10772 
L 32.45586 30.66 
L 33.938964 34.99944 
L 34.680515 34.07448 
L 35.422067 34.9158 
L 36.163619 34.02528 
L 36.90517 34.26144 
L 37.646722 33.0216 
L 38.388274 33.10524 
L 39.129825 34.1532 
L 39.871377 34.2024 
L 40.612929 35.4324 
L 41.35448 36.34752 
L 42.096032 35.89488 
L 43.579135 36.94776 
L 44.320687 36.2688 
L 45.062239 36.97236 
L 45.80379 38.286 
L 46.545342 38.76324 
L 47.286894 38.73864 
L 48.028445 38.51724 
L 48.769997 37.42992 
L 49.511549 37.42008 
L 50.2531 36.90348 
L 50.994652 36.98712 
L 51.736204 36.86412 
L 52.477755 37.16424 
L 53.219307 37.14948 
L 53.960859 38.52216 
L 55.443962 35.71776 
L 56.185514 36.15564 
L 56.927065 36.93792 
L 58.410169 36.72636 
L 59.15172 36.21468 
L 59.893272 34.8174 
L 60.634824 34.7928 
L 61.376375 35.42748 
L 62.117927 36.49512 
L 62.859479 36.28356 
L 63.60103 36.6378 
L 64.342582 37.3512 
L 65.084134 37.3512 
L 65.825685 38.31552 
L 66.567237 38.32536 
L 67.308789 37.26264 
L 68.05034 37.26264 
L 68.791892 37.09044 
L 69.533444 37.06092 
L 70.274995 37.34628 
L 71.016547 37.48404 
L 71.758099 37.77924 
L 73.241202 37.45944 
L 74.724305 37.56276 
L 75.465857 37.31184 
L 76.207409 37.33644 
L 76.948961 37.09536 
L 77.690512 36.23928 
L 79.173616 36.11628 
L 79.915167 35.48652 
L 80.656719 35.0142 
L 81.398271 35.93424 
L 82.139822 36.36228 
L 82.881374 36.50988 
L 83.622926 36.5148 
L 84.364477 36.25404 
L 85.106029 36.46068 
L 85.847581 34.83708 
L 86.589132 34.57632 
L 88.072236 35.00436 
L 88.813787 34.93056 
L 89.555339 35.088 
L 90.296891 35.78664 
L 91.038442 37.55292 
L 91.779994 37.26756 
L 92.521546 37.46436 
L 94.004649 37.45944 
L 94.746201 38.41392 
L 96.229304 36.95268 
L 96.970856 37.05108 
L 97.712407 38.37948 
L 98.453959 39.20604 
L 99.195511 41.03136 
L 99.937062 42.26628 
L 100.678614 41.73492 
L 101.30465 42.23676 
L 102.635126 44.89356 
L 103.373502 43.6242 
L 104.867437 43.53072 
L 105.61322 43.72752 
L 107.092118 44.436 
L 107.833446 44.49012 
L 108.56608 43.81608 
L 109.268503 43.7226 
L 110.057621 44.5344 
L 110.706023 44.19 
L 111.539548 44.21952 
L 113.017416 44.51472 
L 114.504459 44.3868 
L 115.248242 45.174 
L 115.927148 45.23796 
L 116.728676 44.81484 
L 117.466923 43.821 
L 118.207067 44.01288 
L 118.939882 44.66232 
L 119.698281 43.93908 
L 120.432177 44.39664 
L 121.175454 44.12112 
L 121.912852 44.33268 
L 122.656 43.3044 
L 123.3972 43.6242 
L 124.133061 44.29824 
L 124.881813 44.53932 
L 125.625588 44.30808 
L 126.362376 43.8702 
L 127.103636 44.00304 
L 127.848106 43.97844 
L 128.588224 43.41756 
L 130.084528 43.48644 
L 130.828174 42.49752 
L 131.556748 41.73984 
L 132.303956 41.7546 
L 133.045714 42.591 
L 133.780047 43.14204 
L 134.517256 43.083 
L 135.269897 43.35852 
L 136.013191 43.78164 
L 136.747876 43.21584 
L 137.544658 42.9354 
L 138.24 43.10268 
L 138.24 43.10268 
" clip-path="url(#p6cae9cb797)" style="fill: none; stroke: #4a8dff; stroke-width: 0.6; stroke-linecap: round"/>
   </g>
   <g id="line2d_7">
    <path d="M 5.76 31.39308 
L 7.243103 29.09544 
L 7.984655 29.2332 
L 8.726207 27.02412 
L 9.467758 25.98108 
L 10.20931 25.16928 
L 10.950862 25.10532 
L 12.433965 23.92452 
L 13.175517 25.53336 
L 13.917068 24.62808 
L 14.65862 25.4448 
L 15.400172 29.64156 
L 16.141723 30.80268 
L 16.883275 28.65756 
L 17.624827 28.6428 
L 18.366378 29.66124 
L 19.849482 32.17044 
L 20.591033 32.97732 
L 21.332585 32.628 
L 22.074137 31.90476 
L 22.815688 30.92076 
L 23.55724 31.96872 
L 24.298792 32.39676 
L 25.040343 31.19628 
L 25.781895 30.72888 
L 26.523447 30.42384 
L 27.264998 29.0118 
L 28.00655 29.15448 
L 28.748102 29.76456 
L 29.489654 31.2012 
L 30.231205 32.09172 
L 30.972757 31.43244 
L 32.45586 30.90108 
L 33.197412 32.93796 
L 33.938964 35.35368 
L 34.680515 34.24668 
L 35.422067 35.5062 
L 36.163619 34.48284 
L 36.90517 35.02896 
L 37.646722 33.8334 
L 38.388274 33.243 
L 39.129825 34.69932 
L 39.871377 35.4078 
L 40.612929 36.2934 
L 41.35448 38.901 
L 42.096032 38.37948 
L 42.837584 38.92068 
L 43.579135 40.09164 
L 44.320687 39.70788 
L 45.062239 40.4262 
L 45.80379 42.75336 
L 46.545342 43.54548 
L 47.286894 43.72752 
L 48.028445 42.6894 
L 48.769997 41.976 
L 49.511549 42.42864 
L 50.2531 40.86408 
L 50.994652 40.47048 
L 53.219307 40.89852 
L 53.960859 42.9354 
L 54.70241 40.43604 
L 55.443962 39.31428 
L 56.185514 40.04244 
L 56.927065 41.43972 
L 57.668617 41.47416 
L 58.410169 41.02152 
L 59.15172 40.7952 
L 59.893272 39.75708 
L 60.634824 40.11132 
L 61.376375 39.87024 
L 62.117927 40.94772 
L 62.859479 40.97232 
L 64.342582 42.87144 
L 65.084134 42.17772 
L 65.825685 43.04364 
L 66.567237 43.34868 
L 67.308789 42.03504 
L 68.791892 41.8038 
L 69.533444 41.84316 
L 70.274995 42.37944 
L 71.016547 42.26628 
L 71.758099 42.468 
L 72.49965 42.42864 
L 73.241202 42.18264 
L 73.982754 42.1728 
L 74.724305 42.50244 
L 75.465857 41.88252 
L 76.207409 42.32532 
L 77.690512 41.13468 
L 79.173616 40.42128 
L 79.915167 39.16176 
L 80.656719 39.28968 
L 81.398271 40.48032 
L 83.622926 40.88376 
L 85.106029 40.53936 
L 85.847581 38.50248 
L 86.589132 37.63656 
L 87.330684 38.34012 
L 88.072236 38.37456 
L 88.813787 38.5812 
L 90.296891 39.8358 
L 91.038442 41.93172 
L 91.779994 41.42004 
L 93.263097 41.39052 
L 94.004649 41.5086 
L 94.746201 42.80256 
L 95.487752 41.93664 
L 96.229304 41.49384 
L 96.970856 41.51352 
L 97.712407 43.78164 
L 98.453959 43.9932 
L 99.195511 46.66968 
L 99.937062 47.55036 
L 100.678614 46.64508 
L 101.893952 48.89352 
L 102.635126 49.84308 
L 103.373502 49.00176 
L 104.132005 49.233 
L 104.867437 48.97716 
L 106.353235 49.36092 
L 107.833446 49.58724 
L 108.56608 49.28712 
L 109.268503 49.16904 
L 110.057621 49.39044 
L 110.706023 49.29696 
L 112.280199 49.55772 
L 114.504459 49.41996 
L 115.248242 49.8234 
L 115.927148 49.86768 
L 116.728676 49.72992 
L 117.466923 49.39536 
L 118.939882 49.6758 
L 119.698281 49.47408 
L 120.432177 49.60692 
L 121.175454 49.37568 
L 121.912852 49.36584 
L 122.656 48.6672 
L 123.3972 48.95256 
L 124.133061 49.36092 
L 124.881813 49.54788 
L 125.625588 49.5282 
L 126.362376 49.09032 
L 127.848106 49.2084 
L 128.588224 48.93288 
L 130.084528 48.89844 
L 130.828174 48.48024 
L 131.556748 48.1998 
L 132.303956 48.28344 
L 133.045714 48.88368 
L 133.780047 49.04604 
L 134.517256 49.00176 
L 136.013191 49.38552 
L 136.747876 49.04112 
L 137.544658 48.92796 
L 138.24 48.987 
L 138.24 48.987 
" clip-path="url(#p6cae9cb797)" style="fill: none; stroke: #f5841e; stroke-width: 0.7; stroke-linecap: round"/>
   </g>
  </g>
 </g>
 <defs>
  <clipPath id="p6cae9cb797">
   <rect x="5.76" y="3.6" width="132.48" height="49.2"/>
  </clipPath>
 </defs>
</svg>
