<?xml version="1.0" encoding="utf-8" standalone="no"?>
<!DOCTYPE svg PUBLIC "-//W3C//DTD SVG 1.1//EN"
  "http://www.w3.org/Graphics/SVG/1.1/DTD/svg11.dtd">
<svg xmlns:xlink="http://www.w3.org/1999/xlink" width="144pt" height="60pt" viewBox="0 0 144 60" xmlns="http://www.w3.org/2000/svg" version="1.1">
  <desc id="nav-meta">{"window":"1y","count":4,"labels":["05.03","04.07","02.11","04.03"],"tick_utc":["2025-03-05T12:00:00Z","2025-07-04T12:00:00Z","2025-11-02T12:00:00Z","2026-03-04T03:14:13Z"]}</desc>

 <metadata>
  <rdf:RDF xmlns:dc="http://purl.org/dc/elements/1.1/" xmlns:cc="http://creativecommons.org/ns#" xmlns:rdf="http://www.w3.org/1999/02/22-rdf-syntax-ns#">
   <cc:Work>
    <dc:type rdf:resource="http://purl.org/dc/dcmitype/StillImage"/>
    <dc:date>2026-03-04T19:26:03.809905</dc:date>
    <dc:format>image/svg+xml</dc:format>
    <dc:creator>
     <cc:Agent>
      <dc:title>Matplotlib v3.10.8, https://matplotlib.org/</dc:title>
     </cc:Agent>
    </dc:creator>
   </cc:Work>
  </rdf:RDF>
 </metadata>
 <defs>
  <style type="text/css">*{stroke-linejoin: round; stroke-linecap: butt}</style>
 </defs>
 <g id="figure_1">
  <g id="patch_1">
   <path d="M 0 60 
L 144 60 
L 144 0 
L 0 0 
L 0 60 
z
" style="fill: none; opacity: 0"/>
  </g>
  <g id="axes_1">
   <g id="patch_2">
    <path d="M 5.76 52.8 
L 138.24 52.8 
L 138.24 3.6 
L 5.76 3.6 
L 5.76 52.8 
z
" style="fill: none"/>
   </g>
   <g id="matplotlib.axis_1"/>
   <g id="matplotlib.axis_2"/>
   <g id="line2d_1">
    <path d="M 5.76 42.96 
L 138.24 42.96 
" clip-path="url(#pbe9c7aaa38)" style="fill: none; stroke: #b2b2b2; stroke-opacity: 0.35; stroke-width: 0.5; stroke-linecap: square"/>
   </g>
   <g id="line2d_2">
    <path d="M 5.76 33.12 
L 138.24 33.12 
" clip-path="url(#pbe9c7aaa38)" style="fill: none; stroke: #b2b2b2; stroke-opacity: 0.35; stroke-width: 0.5; stroke-linecap: square"/>
   </g>
   <g id="line2d_3">
    <path d="M 5.76 23.28 
L 138.24 23.28 
" clip-path="url(#pbe9c7aaa38)" style="fill: none; stroke: #b2b2b2; stroke-opacity: 0.35; stroke-width: 0.5; stroke-linecap: square"/>
   </g>
   <g id="line2d_4">
    <path d="M 5.76 13.44 
L 138.24 13.44 
" clip-path="url(#pbe9c7aaa38)" style="fill: none; stroke: #b2b2b2; stroke-opacity: 0.35; stroke-width: 0.5; stroke-linecap: square"/>
   </g>
   <g id="line2d_5">
    <path d="M 5.76 42.72384 
L 6.124321 42.58116 
L 6.488643 42.9354 
L 6.852964 43.49136 
L 7.217286 43.79148 
L 7.945929 46.14816 
L 8.31025 45.28224 
L 8.674572 45.13464 
L 9.038893 45.5676 
L 9.403215 44.22444 
L 9.767536 43.92924 
L 10.131858 45.18876 
L 10.496179 44.91324 
L 10.860501 45.297 
L 11.224822 43.95384 
L 11.589144 44.99196 
L 12.317787 44.89848 
L 12.682108 44.41632 
L 13.04643 43.30932 
L 13.410751 42.87144 
L 13.775073 43.76196 
L 14.139394 43.59468 
L 14.503716 44.76072 
L 14.868037 45.40524 
L 15.59668 45.35604 
L 15.961002 45.10512 
L 16.325323 46.24164 
L 16.689645 46.3548 
L 17.053966 45.63648 
L 17.418288 45.97104 
L 17.782609 47.84556 
L 18.146931 47.71272 
L 18.511252 47.88 
L 18.875574 46.12848 
L 19.239895 46.91568 
L 19.968538 44.40648 
L 20.33286 44.91816 
L 20.697181 44.76564 
L 21.061503 45.16908 
L 21.425824 44.49504 
L 21.790146 44.08668 
L 22.154467 44.17032 
L 22.518789 43.43232 
L 23.247432 43.86528 
L 23.611753 42.23676 
L 24.340396 41.7792 
L 25.433361 42.31056 
L 25.797682 42.345 
L 26.162004 42.5418 
L 26.526325 42.37944 
L 26.890647 41.98584 
L 27.254968 42.345 
L 27.61929 42.49752 
L 27.983611 42.86652 
L 28.347933 42.49752 
L 29.076576 42.44832 
L 29.440897 40.33272 
L 29.805219 39.12732 
L 30.16954 38.52216 
L 30.533862 39.10272 
L 30.898183 38.901 
L 31.262505 37.6464 
L 31.991148 39.639 
L 32.719791 40.008 
L 33.084112 39.27492 
L 33.448434 39.90468 
L 33.812755 39.6882 
L 34.541398 38.22696 
L 34.90572 38.901 
L 35.270041 38.69436 
L 35.998684 38.86164 
L 36.363005 38.62056 
L 37.091648 39.88992 
L 37.45597 41.23308 
L 38.548934 41.17404 
L 39.277577 41.62176 
L 39.641899 42.79272 
L 40.00622 42.30564 
L 40.734863 41.7546 
L 41.099185 40.62792 
L 41.463506 40.131 
L 41.827828 40.6476 
L 42.192149 41.73492 
L 42.920792 42.76812 
L 43.285114 41.73492 
L 43.649435 41.89728 
L 44.013757 42.345 
L 44.378078 42.5664 
L 44.7424 42.46308 
L 45.471043 44.20476 
L 45.835364 44.45076 
L 46.199686 42.7632 
L 46.564007 42.63036 
L 46.928329 42.94524 
L 47.29265 43.52088 
L 47.656972 43.1076 
L 48.021293 41.98092 
L 48.749936 41.43972 
L 49.114258 42.4926 
L 49.478579 41.79888 
L 49.842901 41.78412 
L 50.207222 42.37452 
L 50.571544 42.3942 
L 50.935865 41.83332 
L 51.300187 42.24168 
L 51.664508 41.84316 
L 52.393151 40.2786 
L 52.757473 40.42128 
L 53.121794 40.71648 
L 53.850437 40.48032 
L 54.214759 40.26384 
L 54.57908 38.97972 
L 55.307723 38.51724 
L 55.672045 38.57628 
L 56.036366 38.04492 
L 56.400688 36.03264 
L 56.765009 34.88136 
L 57.129331 36.92316 
L 57.493652 37.8432 
L 57.857974 37.37088 
L 58.222295 37.53324 
L 58.586617 37.056 
L 58.950938 37.77924 
L 59.31526 38.02032 
L 59.679581 38.45328 
L 60.043903 39.1962 
L 60.408224 40.41636 
L 60.772546 40.97232 
L 61.136867 40.53444 
L 61.501189 39.55536 
L 61.86551 40.24908 
L 62.229832 39.7128 
L 62.594153 38.778 
L 62.958475 38.59104 
L 63.687118 37.794 
L 64.051439 38.82228 
L 64.41576 36.53448 
L 64.780082 35.334 
L 65.508725 37.44468 
L 65.873046 36.90348 
L 66.237368 36.65748 
L 66.966011 38.64516 
L 67.330332 37.2282 
L 67.694654 38.14332 
L 68.058975 35.53572 
L 68.423297 35.04372 
L 68.787618 34.80264 
L 69.15194 37.23804 
L 70.244904 33.67104 
L 70.609226 34.90596 
L 71.70219 35.9736 
L 72.066512 34.36476 
L 72.430833 34.1778 
L 72.795155 35.22084 
L 73.159476 35.11752 
L 73.523798 35.54556 
L 74.981084 32.44104 
L 75.345405 31.83096 
L 75.709727 30.06468 
L 76.074048 30.01056 
L 76.43837 30.291 
L 76.802691 31.16184 
L 77.167013 30.74856 
L 77.531334 29.71536 
L 77.895656 29.37588 
L 78.259977 30.57636 
L 78.624299 30.42876 
L 78.98862 30.79284 
L 79.352942 32.91828 
L 79.717263 33.72024 
L 80.081585 34.05972 
L 80.445906 36.5886 
L 80.810228 34.90104 
L 81.174549 35.10276 
L 81.538871 34.16796 
L 81.903192 33.8826 
L 82.267514 34.43364 
L 82.996157 31.05852 
L 83.360478 31.26024 
L 83.7248 31.92936 
L 84.089121 31.85064 
L 84.453443 31.3242 
L 84.817764 32.84448 
L 85.182086 31.78176 
L 85.546407 32.85924 
L 85.910729 36.8838 
L 86.27505 38.39424 
L 86.639372 35.95392 
L 87.003693 34.53696 
L 87.368015 35.20608 
L 88.096658 37.57752 
L 88.460979 37.90716 
L 88.825301 37.18884 
L 89.189622 37.18392 
L 89.553944 36.89364 
L 89.918265 37.42008 
L 90.282587 38.17284 
L 90.646908 36.687 
L 91.01123 36.42132 
L 91.375551 36.34752 
L 91.739873 35.56032 
L 92.104194 35.72268 
L 92.468516 36.29832 
L 92.832837 36.32292 
L 93.197159 37.61688 
L 93.56148 37.2282 
L 93.925801 37.34628 
L 94.290123 37.23804 
L 94.654444 40.008 
L 95.018766 41.36592 
L 95.383087 40.43604 
L 95.747409 41.44956 
L 96.11173 40.53444 
L 96.476052 41.02152 
L 96.840373 40.22448 
L 97.204695 39.79644 
L 97.569016 41.51844 
L 97.933338 41.66604 
L 98.661981 43.51596 
L 99.026302 43.43724 
L 99.390624 43.71276 
L 99.754945 44.59836 
L 100.119267 43.30932 
L 101.212231 44.88372 
L 101.576553 44.99688 
L 101.940874 44.57868 
L 102.305196 43.5996 
L 102.669517 43.51596 
L 103.033839 43.00428 
L 103.39816 43.2798 
L 103.762482 43.71768 
L 104.491125 44.0916 
L 104.855446 45.11004 
L 105.219768 43.55532 
L 105.584089 42.72876 
L 106.312732 44.27364 
L 107.041375 44.47536 
L 107.405697 44.25888 
L 107.770018 43.64388 
L 108.13434 43.84068 
L 108.498661 43.85052 
L 108.862983 44.36712 
L 109.227304 44.26872 
L 109.591626 44.74104 
L 109.955947 44.98704 
L 110.320269 44.84436 
L 110.68459 45.58728 
L 111.048912 46.0596 
L 111.413233 45.18384 
L 112.870519 45.47904 
L 113.234841 45.65616 
L 113.599162 45.98088 
L 114.327805 45.38556 
L 114.692127 45.31668 
L 115.056448 45.58728 
L 115.42077 45.35604 
L 115.785091 45.40032 
L 116.149413 45.11496 
L 116.513734 44.42124 
L 117.242377 44.18508 
L 117.97102 43.24044 
L 118.335342 43.8702 
L 118.699663 43.60944 
L 119.063985 43.92924 
L 119.428306 43.93416 
L 119.792628 43.46184 
L 120.156949 43.5012 
L 120.521271 42.72384 
L 120.885592 42.51228 
L 121.249914 43.08792 
L 121.614235 42.75828 
L 121.978557 42.90096 
L 122.707199 44.2392 
L 123.071521 45.23304 
L 123.435842 44.77548 
L 124.164485 45.04608 
L 124.528807 45.07068 
L 124.893128 46.1334 
L 125.25745 45.4446 
L 125.621771 45.06084 
L 125.986093 45.33144 
L 126.350414 46.30068 
L 126.714736 46.34496 
L 127.079057 47.89476 
L 127.443379 48.26376 
L 127.8077 47.96364 
L 128.768927 50.04972 
L 129.131689 49.24776 
L 130.59562 49.59708 
L 130.95863 49.80372 
L 131.322842 49.86768 
L 132.02788 49.24776 
L 132.41557 49.48392 
L 132.734128 49.37568 
L 133.143636 49.479 
L 133.507514 49.7004 
L 134.600285 49.49376 
L 134.965703 49.98576 
L 135.299247 49.96608 
L 135.693034 49.7004 
L 136.055732 49.27236 
L 136.419362 49.37076 
L 136.779391 49.68072 
L 137.15199 49.25268 
L 137.51255 49.51344 
L 138.24 49.34124 
L 138.24 49.34124 
" clip-path="url(#pbe9c7aaa38)" style="fill: none; stroke: #bebebe; stroke-width: 0.6; stroke-linecap: round"/>
   </g>
   <g id="line2d_6">
    <path d="M 5.76 42.96 
L 6.124321 42.468 
L 6.488643 42.74352 
L 6.852964 43.17648 
L 7.217286 42.75828 
L 7.945929 45.0264 
L 8.31025 44.7312 
L 8.674572 44.805 
L 9.038893 45.14448 
L 9.767536 44.59836 
L 10.131858 44.96736 
L 10.496179 44.67216 
L 10.860501 44.64756 
L 11.224822 43.74228 
L 11.589144 44.30808 
L 11.953465 44.42616 
L 12.682108 44.1654 
L 13.04643 43.6242 
L 13.410751 43.68816 
L 13.775073 44.10144 
L 14.139394 44.15064 
L 14.503716 44.9034 
L 14.868037 45.38064 
L 15.232359 45.55284 
L 15.59668 45.41508 
L 15.961002 44.8296 
L 16.325323 45.6168 
L 16.689645 45.45936 
L 17.418288 45.5184 
L 17.782609 47.18136 
L 18.146931 47.3142 
L 18.511252 47.90952 
L 18.875574 46.56144 
L 19.239895 47.54052 
L 19.604217 47.23056 
L 19.968538 46.67952 
L 20.33286 47.03376 
L 20.697181 46.85172 
L 21.061503 47.08788 
L 21.425824 47.16168 
L 22.154467 47.07804 
L 22.518789 46.896 
L 22.88311 47.10756 
L 23.247432 47.16168 
L 23.611753 45.87264 
L 23.976075 45.63156 
L 24.340396 45.80376 
L 25.069039 45.43968 
L 25.433361 45.63156 
L 26.162004 45.61188 
L 26.526325 45.63156 
L 26.890647 45.31176 
L 27.61929 45.3462 
L 27.983611 45.52824 
L 28.712254 45.47412 
L 29.076576 45.51348 
L 29.440897 42.77796 
L 29.805219 41.75952 
L 30.16954 40.04244 
L 30.533862 40.58364 
L 30.898183 40.69188 
L 31.262505 39.38808 
L 31.991148 40.33764 
L 32.355469 40.32288 
L 32.719791 40.81488 
L 33.084112 40.88376 
L 33.448434 40.44588 
L 33.812755 40.46556 
L 34.177077 40.21956 
L 34.541398 39.52584 
L 34.90572 40.49508 
L 35.998684 40.19496 
L 36.363005 39.4914 
L 36.727327 39.38808 
L 37.091648 39.69312 
L 37.45597 40.46556 
L 38.184613 40.36716 
L 38.548934 39.8604 
L 38.913256 39.96372 
L 39.277577 39.85548 
L 39.641899 41.1888 
L 40.370542 40.4508 
L 40.734863 40.5738 
L 41.463506 38.45328 
L 41.827828 38.68452 
L 42.192149 39.55536 
L 42.556471 40.09164 
L 42.920792 40.39668 
L 43.649435 40.2048 
L 44.013757 40.52952 
L 44.7424 40.48032 
L 45.471043 42.26136 
L 45.835364 42.5664 
L 46.199686 41.17404 
L 46.564007 41.0166 
L 46.928329 41.22324 
L 47.656972 41.17896 
L 48.021293 41.08056 
L 48.385615 40.61808 
L 48.749936 40.7214 
L 49.114258 41.30688 
L 49.478579 40.11132 
L 49.842901 39.99816 
L 50.207222 40.56888 
L 50.571544 40.51476 
L 50.935865 40.131 
L 51.300187 40.3278 
L 51.664508 39.81612 
L 52.393151 37.46436 
L 52.757473 37.39056 
L 53.121794 37.50372 
L 53.850437 37.01172 
L 54.214759 36.16056 
L 54.57908 34.4976 
L 54.943402 33.69072 
L 55.672045 32.89368 
L 56.036366 31.73256 
L 56.400688 31.68336 
L 56.765009 31.8162 
L 57.129331 32.64276 
L 57.493652 32.0868 
L 58.222295 31.85064 
L 58.586617 30.98964 
L 58.950938 31.53576 
L 59.31526 31.521 
L 59.679581 31.38816 
L 60.043903 32.17044 
L 60.408224 33.68088 
L 60.772546 34.28604 
L 61.136867 33.58248 
L 61.501189 32.0376 
L 61.86551 32.76576 
L 62.229832 32.259 
L 62.594153 30.65508 
L 62.958475 29.93676 
L 63.322796 28.14588 
L 64.051439 28.40664 
L 64.41576 25.73508 
L 64.780082 24.62316 
L 65.144403 26.10408 
L 65.508725 26.97984 
L 65.873046 27.00936 
L 66.237368 26.58132 
L 66.601689 27.7818 
L 66.966011 29.49888 
L 67.330332 27.68832 
L 67.694654 28.44108 
L 68.058975 24.16068 
L 68.423297 24.55428 
L 68.787618 24.51984 
L 69.15194 27.32916 
L 69.516261 25.7646 
L 69.880583 26.48784 
L 70.244904 26.43372 
L 70.609226 27.44724 
L 71.337869 27.27504 
L 71.70219 27.8802 
L 72.066512 27.72276 
L 72.430833 26.84208 
L 72.795155 27.91956 
L 73.159476 27.8556 
L 73.523798 28.09668 
L 73.888119 27.87528 
L 74.616762 27.83592 
L 74.981084 27.57024 
L 75.345405 26.77812 
L 75.709727 25.01184 
L 76.43837 25.71048 
L 76.802691 26.31564 
L 77.167013 26.45832 
L 77.531334 25.8384 
L 77.895656 25.84824 
L 78.259977 26.6994 
L 78.624299 26.62068 
L 78.98862 26.8224 
L 79.352942 28.61328 
L 80.081585 28.97244 
L 80.445906 30.99456 
L 80.810228 29.76456 
L 81.174549 29.8974 
L 81.538871 29.02164 
L 81.903192 28.50012 
L 82.267514 29.00688 
L 82.996157 26.601 
L 83.360478 26.3796 
L 83.7248 26.5764 
L 84.089121 26.3796 
L 84.453443 25.1496 
L 84.817764 26.81256 
L 85.182086 26.29596 
L 85.546407 27.41772 
L 85.910729 31.19136 
L 86.27505 31.80144 
L 86.639372 28.89864 
L 87.003693 28.28364 
L 88.096658 30.80268 
L 88.460979 31.22088 
L 88.825301 30.8076 
L 89.189622 30.13356 
L 89.553944 30.17784 
L 90.282587 31.42752 
L 90.646908 31.04376 
L 91.01123 30.49764 
L 91.375551 30.3648 
L 91.739873 28.88388 
L 92.104194 29.15448 
L 92.468516 30.15324 
L 93.197159 31.4226 
L 93.925801 30.9306 
L 94.290123 30.66 
L 95.018766 34.99944 
L 95.383087 34.07448 
L 95.747409 34.9158 
L 96.11173 34.02528 
L 96.476052 34.26144 
L 96.840373 33.0216 
L 97.204695 33.10524 
L 97.569016 34.1532 
L 97.933338 34.2024 
L 98.661981 36.34752 
L 99.026302 35.89488 
L 99.754945 36.94776 
L 100.119267 36.2688 
L 100.483588 36.97236 
L 100.84791 38.286 
L 101.212231 38.76324 
L 101.576553 38.73864 
L 101.940874 38.51724 
L 102.305196 37.42992 
L 102.669517 37.42008 
L 103.033839 36.90348 
L 103.39816 36.98712 
L 103.762482 36.86412 
L 104.126803 37.16424 
L 104.491125 37.14948 
L 104.855446 38.52216 
L 105.584089 35.71776 
L 105.948411 36.15564 
L 106.312732 36.93792 
L 107.041375 36.72636 
L 107.405697 36.21468 
L 107.770018 34.8174 
L 108.13434 34.7928 
L 108.498661 35.42748 
L 108.862983 36.49512 
L 109.227304 36.28356 
L 109.591626 36.6378 
L 109.955947 37.3512 
L 110.320269 37.3512 
L 110.68459 38.31552 
L 111.048912 38.32536 
L 111.413233 37.26264 
L 111.777555 37.26264 
L 112.141876 37.09044 
L 112.506198 37.06092 
L 112.870519 37.34628 
L 113.234841 37.48404 
L 113.599162 37.77924 
L 114.327805 37.45944 
L 115.056448 37.56276 
L 115.42077 37.31184 
L 115.785091 37.33644 
L 116.149413 37.09536 
L 116.513734 36.23928 
L 117.242377 36.11628 
L 117.97102 35.0142 
L 118.335342 35.93424 
L 118.699663 36.36228 
L 119.063985 36.50988 
L 119.428306 36.5148 
L 119.792628 36.25404 
L 120.156949 36.46068 
L 120.521271 34.83708 
L 120.885592 34.57632 
L 121.614235 35.00436 
L 121.978557 34.93056 
L 122.342878 35.088 
L 122.707199 35.78664 
L 123.071521 37.55292 
L 123.435842 37.26756 
L 123.800164 37.46436 
L 124.528807 37.45944 
L 124.893128 38.41392 
L 125.621771 36.95268 
L 125.986093 37.05108 
L 126.350414 38.37948 
L 126.714736 39.20604 
L 127.079057 41.03136 
L 127.443379 42.26628 
L 127.8077 41.73492 
L 128.11527 42.23676 
L 128.768927 44.89356 
L 129.131689 43.6242 
L 129.865653 43.53072 
L 130.232053 43.72752 
L 130.95863 44.436 
L 131.322842 44.49012 
L 131.682782 43.81608 
L 132.02788 43.7226 
L 132.41557 44.5344 
L 132.734128 44.19 
L 133.143636 44.21952 
L 133.869706 44.51472 
L 134.600285 44.3868 
L 134.965703 45.174 
L 135.299247 45.23796 
L 135.693034 44.81484 
L 136.055732 43.821 
L 136.419362 44.01288 
L 136.779391 44.66232 
L 137.15199 43.93908 
L 137.51255 44.39664 
L 137.877719 44.12112 
L 138.24 44.33268 
L 138.24 44.33268 
" clip-path="url(#pbe9c7aaa38)" style="fill: none; stroke: #4a8dff; stroke-width: 0.6; stroke-linecap: round"/>
   </g>
   <g id="line2d_7">
    <path d="M 5.76 42.42864 
L 6.124321 40.80012 
L 6.488643 41.10024 
L 6.852964 42.69432 
L 7.217286 43.00428 
L 7.581607 45.666 
L 7.945929 46.64016 
L 8.31025 44.6574 
L 8.674572 44.12112 
L 9.038893 45.4938 
L 9.403215 44.07684 
L 9.767536 43.8702 
L 10.131858 44.75088 
L 10.496179 44.02764 
L 10.860501 44.66724 
L 11.224822 42.67464 
L 11.589144 43.92924 
L 12.317787 44.1654 
L 13.04643 42.4188 
L 13.410751 42.32532 
L 13.775073 42.60084 
L 14.139394 42.468 
L 14.503716 43.88496 
L 14.868037 44.71644 
L 15.232359 44.87388 
L 15.59668 44.79516 
L 15.961002 43.452 
L 16.325323 44.79024 
L 17.053966 44.13588 
L 17.418288 44.2638 
L 17.782609 46.9206 
L 18.146931 46.44336 
L 18.511252 47.85048 
L 18.875574 44.74596 
L 19.239895 46.23672 
L 19.604217 44.34252 
L 19.968538 43.41756 
L 20.33286 44.25888 
L 20.697181 43.80624 
L 21.061503 44.23428 
L 21.425824 44.01288 
L 21.790146 43.60452 
L 22.154467 43.85052 
L 22.518789 43.50612 
L 22.88311 43.53072 
L 23.247432 42.35976 
L 23.611753 39.33396 
L 23.976075 39.3192 
L 24.340396 39.18636 
L 24.704718 38.74356 
L 25.069039 38.80752 
L 25.433361 39.2208 
L 25.797682 38.61564 
L 26.162004 38.9994 
L 26.526325 39.00924 
L 26.890647 37.92684 
L 27.254968 37.71528 
L 27.61929 38.17284 
L 27.983611 38.96496 
L 28.347933 38.74848 
L 28.712254 37.71528 
L 29.076576 37.63164 
L 29.440897 34.64028 
L 29.805219 34.69932 
L 30.16954 33.87276 
L 30.533862 34.18764 
L 30.898183 34.73868 
L 31.262505 34.09416 
L 31.626826 34.38444 
L 31.991148 34.33032 
L 32.719791 34.57632 
L 33.084112 33.18396 
L 33.448434 33.38076 
L 33.812755 32.81004 
L 34.177077 31.38816 
L 34.541398 30.45336 
L 34.90572 32.59848 
L 35.270041 32.29344 
L 35.634362 31.78176 
L 35.998684 31.53084 
L 36.363005 31.68336 
L 36.727327 32.28852 
L 37.45597 34.1778 
L 37.820291 33.84324 
L 38.184613 33.3414 
L 38.548934 33.25284 
L 39.277577 33.7842 
L 39.641899 35.34384 
L 40.00622 33.981 
L 40.370542 33.35616 
L 40.734863 33.35124 
L 41.099185 31.09296 
L 41.463506 31.11756 
L 41.827828 31.87524 
L 42.192149 33.20856 
L 42.556471 33.17412 
L 42.920792 33.45456 
L 43.285114 33.4152 
L 43.649435 32.7264 
L 44.013757 33.84816 
L 44.7424 33.84324 
L 45.835364 35.73744 
L 46.199686 33.4398 
L 46.564007 33.20856 
L 46.928329 32.58372 
L 47.29265 32.71164 
L 48.021293 32.53944 
L 48.385615 32.013 
L 49.114258 33.3906 
L 49.478579 31.80144 
L 49.842901 31.41768 
L 50.207222 32.19012 
L 50.571544 32.10156 
L 50.935865 31.60956 
L 51.300187 32.0622 
L 51.664508 31.73748 
L 52.02883 30.56652 
L 52.393151 28.31808 
L 52.757473 27.48168 
L 53.121794 27.55548 
L 53.486116 26.71908 
L 53.850437 26.36484 
L 54.214759 27.42756 
L 54.943402 26.55672 
L 55.307723 27.27504 
L 55.672045 27.31932 
L 56.036366 27.63912 
L 56.400688 27.52596 
L 56.765009 26.3058 
L 57.129331 26.96016 
L 57.493652 27.09792 
L 57.857974 27.49644 
L 58.222295 27.2898 
L 58.586617 26.57148 
L 58.950938 27.27012 
L 59.679581 27.35376 
L 60.408224 29.62188 
L 60.772546 29.96136 
L 61.136867 29.14956 
L 61.501189 28.68216 
L 61.86551 29.184 
L 62.229832 28.7412 
L 62.594153 27.5358 
L 62.958475 27.91956 
L 63.322796 28.00812 
L 63.687118 26.64528 
L 64.051439 26.88636 
L 64.41576 26.1828 
L 64.780082 24.52476 
L 65.144403 27.0684 
L 65.508725 27.59484 
L 66.237368 27.49644 
L 66.601689 28.13112 
L 66.966011 29.8482 
L 67.330332 29.12004 
L 67.694654 30.03024 
L 68.058975 27.84576 
L 68.787618 29.54316 
L 69.15194 31.13232 
L 69.516261 30.31068 
L 69.880583 30.62064 
L 70.244904 29.97612 
L 70.609226 31.97364 
L 70.973547 31.82112 
L 71.337869 32.0868 
L 71.70219 31.63416 
L 72.066512 30.6354 
L 72.430833 30.37464 
L 72.795155 30.86172 
L 73.159476 30.89616 
L 73.523798 31.11756 
L 74.252441 30.22212 
L 74.616762 30.45828 
L 74.981084 29.2578 
L 75.345405 28.50504 
L 75.709727 28.18032 
L 76.074048 28.2738 
L 76.43837 28.569 
L 76.802691 28.55424 
L 77.167013 27.8802 
L 77.531334 28.03272 
L 77.895656 27.69324 
L 78.259977 28.42632 
L 78.624299 28.3968 
L 78.98862 28.60344 
L 79.352942 29.88756 
L 79.717263 30.22212 
L 80.081585 29.58252 
L 80.445906 31.73256 
L 80.810228 31.36356 
L 81.174549 31.39308 
L 81.903192 29.09544 
L 82.267514 29.2332 
L 82.631835 27.02412 
L 83.360478 25.16928 
L 83.7248 25.10532 
L 84.453443 23.92452 
L 84.817764 25.53336 
L 85.182086 24.62808 
L 85.546407 25.4448 
L 85.910729 29.64156 
L 86.27505 30.80268 
L 86.639372 28.65756 
L 87.003693 28.6428 
L 87.732336 30.87156 
L 88.096658 32.17044 
L 88.460979 32.97732 
L 88.825301 32.628 
L 89.189622 31.90476 
L 89.553944 30.92076 
L 89.918265 31.96872 
L 90.282587 32.39676 
L 90.646908 31.19628 
L 91.375551 30.42384 
L 91.739873 29.0118 
L 92.104194 29.15448 
L 92.468516 29.76456 
L 92.832837 31.2012 
L 93.197159 32.09172 
L 93.56148 31.43244 
L 94.290123 30.90108 
L 95.018766 35.35368 
L 95.383087 34.24668 
L 95.747409 35.5062 
L 96.11173 34.48284 
L 96.476052 35.02896 
L 96.840373 33.8334 
L 97.204695 33.243 
L 97.569016 34.69932 
L 98.297659 36.2934 
L 98.661981 38.901 
L 99.026302 38.37948 
L 99.390624 38.92068 
L 99.754945 40.09164 
L 100.119267 39.70788 
L 100.483588 40.4262 
L 100.84791 42.75336 
L 101.212231 43.54548 
L 101.576553 43.72752 
L 102.305196 41.976 
L 102.669517 42.42864 
L 103.033839 40.86408 
L 103.39816 40.47048 
L 104.491125 40.89852 
L 104.855446 42.9354 
L 105.219768 40.43604 
L 105.584089 39.31428 
L 105.948411 40.04244 
L 106.312732 41.43972 
L 106.677054 41.47416 
L 107.041375 41.02152 
L 107.405697 40.7952 
L 107.770018 39.75708 
L 108.13434 40.11132 
L 108.498661 39.87024 
L 108.862983 40.94772 
L 109.227304 40.97232 
L 109.955947 42.87144 
L 110.320269 42.17772 
L 110.68459 43.04364 
L 111.048912 43.34868 
L 111.413233 42.03504 
L 112.141876 41.8038 
L 112.506198 41.84316 
L 112.870519 42.37944 
L 113.234841 42.26628 
L 113.599162 42.468 
L 113.963484 42.42864 
L 114.327805 42.18264 
L 114.692127 42.1728 
L 115.056448 42.50244 
L 115.42077 41.88252 
L 115.785091 42.32532 
L 116.513734 41.13468 
L 117.242377 40.42128 
L 117.606699 39.16176 
L 117.97102 39.28968 
L 118.335342 40.48032 
L 119.428306 40.88376 
L 120.156949 40.53936 
L 120.521271 38.50248 
L 120.885592 37.63656 
L 121.249914 38.34012 
L 121.614235 38.37456 
L 121.978557 38.5812 
L 122.707199 39.8358 
L 123.071521 41.93172 
L 123.435842 41.42004 
L 124.164485 41.39052 
L 124.528807 41.5086 
L 124.893128 42.80256 
L 125.25745 41.93664 
L 125.621771 41.49384 
L 125.986093 41.51352 
L 126.350414 43.78164 
L 126.714736 43.9932 
L 127.079057 46.66968 
L 127.443379 47.55036 
L 127.8077 46.64508 
L 128.404791 48.89352 
L 128.768927 49.84308 
L 129.131689 49.00176 
L 129.504338 49.233 
L 129.865653 48.97716 
L 130.59562 49.36092 
L 131.322842 49.58724 
L 131.682782 49.28712 
L 132.02788 49.16904 
L 132.41557 49.39044 
L 132.734128 49.29696 
L 133.507514 49.55772 
L 134.600285 49.41996 
L 134.965703 49.8234 
L 135.299247 49.86768 
L 135.693034 49.72992 
L 136.055732 49.39536 
L 136.779391 49.6758 
L 137.15199 49.47408 
L 137.51255 49.60692 
L 137.877719 49.37568 
L 138.24 49.36584 
L 138.24 49.36584 
" clip-path="url(#pbe9c7aaa38)" style="fill: none; stroke: #f5841e; stroke-width: 0.7; stroke-linecap: round"/>
   </g>
  </g>
 </g>
 <defs>
  <clipPath id="pbe9c7aaa38">
   <rect x="5.76" y="3.6" width="132.48" height="49.2"/>
  </clipPath>
 </defs>
</svg>
