<?xml version="1.0" encoding="utf-8" standalone="no"?>
<!DOCTYPE svg PUBLIC "-//W3C//DTD SVG 1.1//EN"
  "http://www.w3.org/Graphics/SVG/1.1/DTD/svg11.dtd">
<svg xmlns:xlink="http://www.w3.org/1999/xlink" width="144pt" height="60pt" viewBox="0 0 144 60" xmlns="http://www.w3.org/2000/svg" version="1.1">
  <desc id="nav-meta">{"window":"1y","count":4,"labels":["05.05","04.09","03.01","05.05"],"tick_utc":["2025-05-05T12:00:00Z","2025-09-04T12:00:00Z","2026-01-03T12:00:00Z","2026-05-05T03:59:32Z"]}</desc>

 <metadata>
  <rdf:RDF xmlns:dc="http://purl.org/dc/elements/1.1/" xmlns:cc="http://creativecommons.org/ns#" xmlns:rdf="http://www.w3.org/1999/02/22-rdf-syntax-ns#">
   <cc:Work>
    <dc:type rdf:resource="http://purl.org/dc/dcmitype/StillImage"/>
    <dc:date>2026-05-05T08:59:56.164695</dc:date>
    <dc:format>image/svg+xml</dc:format>
    <dc:creator>
     <cc:Agent>
      <dc:title>Matplotlib v3.10.9, https://matplotlib.org/</dc:title>
     </cc:Agent>
    </dc:creator>
   </cc:Work>
  </rdf:RDF>
 </metadata>
 <defs>
  <style type="text/css">*{stroke-linejoin: round; stroke-linecap: butt}</style>
 </defs>
 <g id="figure_1">
  <g id="patch_1">
   <path d="M 0 60 
L 144 60 
L 144 0 
L 0 0 
L 0 60 
z
" style="fill: none; opacity: 0"/>
  </g>
  <g id="axes_1">
   <g id="patch_2">
    <path d="M 5.76 52.8 
L 138.24 52.8 
L 138.24 3.6 
L 5.76 3.6 
L 5.76 52.8 
z
" style="fill: none"/>
   </g>
   <g id="matplotlib.axis_1"/>
   <g id="matplotlib.axis_2"/>
   <g id="line2d_1">
    <path d="M 5.76 42.96 
L 138.24 42.96 
" clip-path="url(#p9bc95569dd)" style="fill: none; stroke: #b2b2b2; stroke-opacity: 0.35; stroke-width: 0.5; stroke-linecap: square"/>
   </g>
   <g id="line2d_2">
    <path d="M 5.76 33.12 
L 138.24 33.12 
" clip-path="url(#p9bc95569dd)" style="fill: none; stroke: #b2b2b2; stroke-opacity: 0.35; stroke-width: 0.5; stroke-linecap: square"/>
   </g>
   <g id="line2d_3">
    <path d="M 5.76 23.28 
L 138.24 23.28 
" clip-path="url(#p9bc95569dd)" style="fill: none; stroke: #b2b2b2; stroke-opacity: 0.35; stroke-width: 0.5; stroke-linecap: square"/>
   </g>
   <g id="line2d_4">
    <path d="M 5.76 13.44 
L 138.24 13.44 
" clip-path="url(#p9bc95569dd)" style="fill: none; stroke: #b2b2b2; stroke-opacity: 0.35; stroke-width: 0.5; stroke-linecap: square"/>
   </g>
   <g id="line2d_5">
    <path d="M 5.76 42.86652 
L 6.123291 42.49752 
L 6.849873 42.44832 
L 7.213164 40.33272 
L 7.576455 39.12732 
L 7.939746 38.52216 
L 8.303037 39.10272 
L 8.666328 38.901 
L 9.029619 37.6464 
L 9.756201 39.639 
L 10.482783 40.008 
L 10.846074 39.27492 
L 11.209365 39.90468 
L 11.572656 39.6882 
L 12.299238 38.22696 
L 12.662529 38.901 
L 13.02582 38.69436 
L 13.752402 38.86164 
L 14.115693 38.62056 
L 14.842275 39.88992 
L 15.205566 41.23308 
L 16.295439 41.17404 
L 17.022021 41.62176 
L 17.385312 42.79272 
L 17.748603 42.30564 
L 18.475185 41.7546 
L 18.838476 40.62792 
L 19.201767 40.131 
L 19.565058 40.6476 
L 19.928349 41.73492 
L 20.654931 42.76812 
L 21.018222 41.73492 
L 21.381513 41.89728 
L 21.744804 42.345 
L 22.108095 42.5664 
L 22.471386 42.46308 
L 23.197968 44.20476 
L 23.561259 44.45076 
L 23.92455 42.7632 
L 24.287841 42.63036 
L 24.651132 42.94524 
L 25.014423 43.52088 
L 25.377714 43.1076 
L 25.741005 41.98092 
L 26.467587 41.43972 
L 26.830878 42.4926 
L 27.194169 41.79888 
L 27.55746 41.78412 
L 27.920751 42.37452 
L 28.284042 42.3942 
L 28.647333 41.83332 
L 29.010624 42.24168 
L 29.373915 41.84316 
L 30.100497 40.2786 
L 30.463788 40.42128 
L 30.827079 40.71648 
L 31.553661 40.48032 
L 31.916952 40.26384 
L 32.280243 38.97972 
L 33.006825 38.51724 
L 33.370116 38.57628 
L 33.733407 38.04492 
L 34.096698 36.03264 
L 34.459989 34.88136 
L 34.82328 36.92316 
L 35.186571 37.8432 
L 35.549862 37.37088 
L 35.913153 37.53324 
L 36.276444 37.056 
L 36.639735 37.77924 
L 37.003026 38.02032 
L 37.366317 38.45328 
L 37.729608 39.1962 
L 38.092899 40.41636 
L 38.45619 40.97232 
L 38.819481 40.53444 
L 39.182772 39.55536 
L 39.546063 40.24908 
L 39.909354 39.7128 
L 40.272645 38.778 
L 40.635936 38.59104 
L 41.362518 37.794 
L 41.725809 38.82228 
L 42.0891 36.53448 
L 42.452391 35.334 
L 43.178973 37.44468 
L 43.542264 36.90348 
L 43.905555 36.65748 
L 44.632137 38.64516 
L 44.995428 37.2282 
L 45.358719 38.14332 
L 45.72201 35.53572 
L 46.085301 35.04372 
L 46.448592 34.80264 
L 46.811883 37.23804 
L 47.901756 33.67104 
L 48.265047 34.90596 
L 49.35492 35.9736 
L 49.718211 34.36476 
L 50.081502 34.1778 
L 50.444793 35.22084 
L 50.808084 35.11752 
L 51.171375 35.54556 
L 52.624539 32.44104 
L 52.98783 31.83096 
L 53.351121 30.06468 
L 53.714412 30.01056 
L 54.077703 30.291 
L 54.440994 31.16184 
L 54.804285 30.74856 
L 55.167576 29.71536 
L 55.530867 29.37588 
L 55.894158 30.57636 
L 56.257449 30.42876 
L 56.62074 30.79284 
L 56.984031 32.91828 
L 57.347322 33.72024 
L 57.710613 34.05972 
L 58.073904 36.5886 
L 58.437195 34.90104 
L 58.800486 35.10276 
L 59.163777 34.16796 
L 59.527068 33.8826 
L 59.890359 34.43364 
L 60.616941 31.05852 
L 60.980232 31.26024 
L 61.343523 31.92936 
L 61.706814 31.85064 
L 62.070105 31.3242 
L 62.433396 32.84448 
L 62.796687 31.78176 
L 63.159978 32.85924 
L 63.523269 36.8838 
L 63.88656 38.39424 
L 64.249851 35.95392 
L 64.613142 34.53696 
L 64.976433 35.20608 
L 65.703015 37.57752 
L 66.066306 37.90716 
L 66.429597 37.18884 
L 66.792888 37.18392 
L 67.156179 36.89364 
L 67.51947 37.42008 
L 67.882761 38.17284 
L 68.246052 36.687 
L 68.609343 36.42132 
L 68.972634 36.34752 
L 69.335925 35.56032 
L 69.699216 35.72268 
L 70.062507 36.29832 
L 70.425798 36.32292 
L 70.789089 37.61688 
L 71.15238 37.2282 
L 71.515671 37.34628 
L 71.878962 37.23804 
L 72.242253 40.008 
L 72.605544 41.36592 
L 72.968835 40.43604 
L 73.332126 41.44956 
L 73.695417 40.53444 
L 74.058708 41.02152 
L 74.421999 40.22448 
L 74.78529 39.79644 
L 75.148581 41.51844 
L 75.511872 41.66604 
L 76.238454 43.51596 
L 76.601745 43.43724 
L 76.965036 43.71276 
L 77.328327 44.59836 
L 77.691618 43.30932 
L 78.781491 44.88372 
L 79.144782 44.99688 
L 79.508073 44.57868 
L 79.871364 43.5996 
L 80.234655 43.51596 
L 80.597946 43.00428 
L 80.961237 43.2798 
L 81.324528 43.71768 
L 82.05111 44.0916 
L 82.414401 45.11004 
L 82.777692 43.55532 
L 83.140983 42.72876 
L 83.867565 44.27364 
L 84.594147 44.47536 
L 84.957438 44.25888 
L 85.320729 43.64388 
L 85.68402 43.84068 
L 86.047311 43.85052 
L 86.410602 44.36712 
L 86.773893 44.26872 
L 87.137184 44.74104 
L 87.500475 44.98704 
L 87.863766 44.84436 
L 88.227057 45.58728 
L 88.590348 46.0596 
L 88.953639 45.18384 
L 90.406803 45.47904 
L 90.770094 45.65616 
L 91.133385 45.98088 
L 91.859967 45.38556 
L 92.223258 45.31668 
L 92.586549 45.58728 
L 92.94984 45.35604 
L 93.313131 45.40032 
L 93.676422 45.11496 
L 94.039713 44.42124 
L 94.766295 44.18508 
L 95.492877 43.24044 
L 95.856168 43.8702 
L 96.219459 43.60944 
L 96.58275 43.92924 
L 96.946041 43.93416 
L 97.309332 43.46184 
L 97.672623 43.5012 
L 98.035914 42.72384 
L 98.399205 42.51228 
L 98.762496 43.08792 
L 99.125787 42.75828 
L 99.489078 42.90096 
L 100.21566 44.2392 
L 100.578951 45.23304 
L 100.942242 44.77548 
L 101.668824 45.04608 
L 102.032115 45.07068 
L 102.395406 46.1334 
L 102.758697 45.4446 
L 103.121988 45.06084 
L 103.485279 45.33144 
L 103.84857 46.30068 
L 104.211861 46.34496 
L 104.575152 47.89476 
L 104.938443 48.26376 
L 105.301734 47.96364 
L 106.260242 50.04972 
L 106.621977 49.24776 
L 108.081768 49.59708 
L 108.443751 49.80372 
L 108.806933 49.86768 
L 109.509976 49.24776 
L 109.89657 49.48392 
L 110.214227 49.37568 
L 110.622576 49.479 
L 110.985426 49.7004 
L 112.075105 49.49376 
L 112.43949 49.98576 
L 112.77209 49.96608 
L 113.164764 49.7004 
L 113.526436 49.27236 
L 113.889037 49.37076 
L 114.248048 49.68072 
L 114.619593 49.25268 
L 114.979133 49.51344 
L 116.068598 49.09032 
L 117.523419 49.58724 
L 117.884376 49.36092 
L 118.612245 49.45932 
L 118.974834 49.16904 
L 119.707883 49.27236 
L 120.0722 48.87384 
L 120.795195 48.70164 
L 121.158587 49.03128 
L 121.518342 49.1592 
L 121.879505 49.08048 
L 122.612373 49.36584 
L 123.362649 48.90828 
L 123.703302 49.05096 
L 124.426869 49.64628 
L 125.886845 49.59708 
L 126.245351 49.8726 
L 126.969237 49.80864 
L 128.06316 49.83816 
L 128.427039 49.50852 
L 128.789065 49.68564 
L 129.513435 49.48884 
L 130.248397 49.69056 
L 130.609375 49.40028 
L 130.972389 49.58724 
L 132.059087 49.19856 
L 132.427176 49.43472 
L 132.791367 49.50852 
L 134.603201 49.37568 
L 134.972143 49.4052 
L 135.339348 49.29204 
L 135.7034 49.5528 
L 136.065699 49.50852 
L 136.4296 49.64136 
L 137.15088 49.56264 
L 137.521546 49.57248 
L 137.884711 49.42488 
L 138.24 49.49376 
L 138.24 49.49376 
" clip-path="url(#p9bc95569dd)" style="fill: none; stroke: #bebebe; stroke-width: 0.6; stroke-linecap: round"/>
   </g>
   <g id="line2d_6">
    <path d="M 5.76 45.52824 
L 6.486582 45.47412 
L 6.849873 45.51348 
L 7.213164 42.77796 
L 7.576455 41.75952 
L 7.939746 40.04244 
L 8.303037 40.58364 
L 8.666328 40.69188 
L 9.029619 39.38808 
L 9.756201 40.33764 
L 10.119492 40.32288 
L 10.482783 40.81488 
L 10.846074 40.88376 
L 11.209365 40.44588 
L 11.572656 40.46556 
L 11.935947 40.21956 
L 12.299238 39.52584 
L 12.662529 40.49508 
L 13.752402 40.19496 
L 14.115693 39.4914 
L 14.478984 39.38808 
L 14.842275 39.69312 
L 15.205566 40.46556 
L 15.932148 40.36716 
L 16.295439 39.8604 
L 16.65873 39.96372 
L 17.022021 39.85548 
L 17.385312 41.1888 
L 18.111894 40.4508 
L 18.475185 40.5738 
L 19.201767 38.45328 
L 19.565058 38.68452 
L 19.928349 39.55536 
L 20.29164 40.09164 
L 20.654931 40.39668 
L 21.381513 40.2048 
L 21.744804 40.52952 
L 22.471386 40.48032 
L 23.197968 42.26136 
L 23.561259 42.5664 
L 23.92455 41.17404 
L 24.287841 41.0166 
L 24.651132 41.22324 
L 25.377714 41.17896 
L 25.741005 41.08056 
L 26.104296 40.61808 
L 26.467587 40.7214 
L 26.830878 41.30688 
L 27.194169 40.11132 
L 27.55746 39.99816 
L 27.920751 40.56888 
L 28.284042 40.51476 
L 28.647333 40.131 
L 29.010624 40.3278 
L 29.373915 39.81612 
L 30.100497 37.46436 
L 30.463788 37.39056 
L 30.827079 37.50372 
L 31.553661 37.01172 
L 31.916952 36.16056 
L 32.280243 34.4976 
L 32.643534 33.69072 
L 33.370116 32.89368 
L 33.733407 31.73256 
L 34.096698 31.68336 
L 34.459989 31.8162 
L 34.82328 32.64276 
L 35.186571 32.0868 
L 35.913153 31.85064 
L 36.276444 30.98964 
L 36.639735 31.53576 
L 37.003026 31.521 
L 37.366317 31.38816 
L 37.729608 32.17044 
L 38.092899 33.68088 
L 38.45619 34.28604 
L 38.819481 33.58248 
L 39.182772 32.0376 
L 39.546063 32.76576 
L 39.909354 32.259 
L 40.272645 30.65508 
L 40.635936 29.93676 
L 40.999227 28.14588 
L 41.725809 28.40664 
L 42.0891 25.73508 
L 42.452391 24.62316 
L 42.815682 26.10408 
L 43.178973 26.97984 
L 43.542264 27.00936 
L 43.905555 26.58132 
L 44.268846 27.7818 
L 44.632137 29.49888 
L 44.995428 27.68832 
L 45.358719 28.44108 
L 45.72201 24.16068 
L 46.085301 24.55428 
L 46.448592 24.51984 
L 46.811883 27.32916 
L 47.175174 25.7646 
L 47.538465 26.48784 
L 47.901756 26.43372 
L 48.265047 27.44724 
L 48.991629 27.27504 
L 49.35492 27.8802 
L 49.718211 27.72276 
L 50.081502 26.84208 
L 50.444793 27.91956 
L 50.808084 27.8556 
L 51.171375 28.09668 
L 51.534666 27.87528 
L 52.261248 27.83592 
L 52.624539 27.57024 
L 52.98783 26.77812 
L 53.351121 25.01184 
L 54.077703 25.71048 
L 54.440994 26.31564 
L 54.804285 26.45832 
L 55.167576 25.8384 
L 55.530867 25.84824 
L 55.894158 26.6994 
L 56.257449 26.62068 
L 56.62074 26.8224 
L 56.984031 28.61328 
L 57.710613 28.97244 
L 58.073904 30.99456 
L 58.437195 29.76456 
L 58.800486 29.8974 
L 59.163777 29.02164 
L 59.527068 28.50012 
L 59.890359 29.00688 
L 60.616941 26.601 
L 60.980232 26.3796 
L 61.343523 26.5764 
L 61.706814 26.3796 
L 62.070105 25.1496 
L 62.433396 26.81256 
L 62.796687 26.29596 
L 63.159978 27.41772 
L 63.523269 31.19136 
L 63.88656 31.80144 
L 64.249851 28.89864 
L 64.613142 28.28364 
L 65.703015 30.80268 
L 66.066306 31.22088 
L 66.429597 30.8076 
L 66.792888 30.13356 
L 67.156179 30.17784 
L 67.882761 31.42752 
L 68.246052 31.04376 
L 68.609343 30.49764 
L 68.972634 30.3648 
L 69.335925 28.88388 
L 69.699216 29.15448 
L 70.062507 30.15324 
L 70.789089 31.4226 
L 71.515671 30.9306 
L 71.878962 30.66 
L 72.605544 34.99944 
L 72.968835 34.07448 
L 73.332126 34.9158 
L 73.695417 34.02528 
L 74.058708 34.26144 
L 74.421999 33.0216 
L 74.78529 33.10524 
L 75.148581 34.1532 
L 75.511872 34.2024 
L 76.238454 36.34752 
L 76.601745 35.89488 
L 77.328327 36.94776 
L 77.691618 36.2688 
L 78.054909 36.97236 
L 78.4182 38.286 
L 78.781491 38.76324 
L 79.144782 38.73864 
L 79.508073 38.51724 
L 79.871364 37.42992 
L 80.234655 37.42008 
L 80.597946 36.90348 
L 80.961237 36.98712 
L 81.324528 36.86412 
L 81.687819 37.16424 
L 82.05111 37.14948 
L 82.414401 38.52216 
L 83.140983 35.71776 
L 83.504274 36.15564 
L 83.867565 36.93792 
L 84.594147 36.72636 
L 84.957438 36.21468 
L 85.320729 34.8174 
L 85.68402 34.7928 
L 86.047311 35.42748 
L 86.410602 36.49512 
L 86.773893 36.28356 
L 87.137184 36.6378 
L 87.500475 37.3512 
L 87.863766 37.3512 
L 88.227057 38.31552 
L 88.590348 38.32536 
L 88.953639 37.26264 
L 89.31693 37.26264 
L 89.680221 37.09044 
L 90.043512 37.06092 
L 90.406803 37.34628 
L 90.770094 37.48404 
L 91.133385 37.77924 
L 91.859967 37.45944 
L 92.586549 37.56276 
L 92.94984 37.31184 
L 93.313131 37.33644 
L 93.676422 37.09536 
L 94.039713 36.23928 
L 94.766295 36.11628 
L 95.492877 35.0142 
L 95.856168 35.93424 
L 96.219459 36.36228 
L 96.58275 36.50988 
L 96.946041 36.5148 
L 97.309332 36.25404 
L 97.672623 36.46068 
L 98.035914 34.83708 
L 98.399205 34.57632 
L 99.125787 35.00436 
L 99.489078 34.93056 
L 99.852369 35.088 
L 100.21566 35.78664 
L 100.578951 37.55292 
L 100.942242 37.26756 
L 101.305533 37.46436 
L 102.032115 37.45944 
L 102.395406 38.41392 
L 103.121988 36.95268 
L 103.485279 37.05108 
L 103.84857 38.37948 
L 104.211861 39.20604 
L 104.575152 41.03136 
L 104.938443 42.26628 
L 105.301734 41.73492 
L 105.608433 42.23676 
L 106.260242 44.89356 
L 106.621977 43.6242 
L 107.353865 43.53072 
L 107.719229 43.72752 
L 108.443751 44.436 
L 108.806933 44.49012 
L 109.165855 43.81608 
L 109.509976 43.7226 
L 109.89657 44.5344 
L 110.214227 44.19 
L 110.622576 44.21952 
L 111.346593 44.51472 
L 112.075105 44.3868 
L 112.43949 45.174 
L 112.77209 45.23796 
L 113.164764 44.81484 
L 113.526436 43.821 
L 113.889037 44.01288 
L 114.248048 44.66232 
L 114.619593 43.93908 
L 114.979133 44.39664 
L 115.343269 44.12112 
L 115.704525 44.33268 
L 116.068598 43.3044 
L 116.431717 43.6242 
L 116.79222 44.29824 
L 117.159039 44.53932 
L 117.523419 44.30808 
L 117.884376 43.8702 
L 118.247524 44.00304 
L 118.612245 43.97844 
L 118.974834 43.41756 
L 119.707883 43.48644 
L 120.429133 41.73984 
L 120.795195 41.7546 
L 121.518342 43.14204 
L 121.879505 43.083 
L 122.248229 43.35852 
L 122.612373 43.78164 
L 122.972301 43.21584 
L 123.362649 42.9354 
L 123.703302 43.10268 
L 124.426869 44.25396 
L 125.520438 43.74228 
L 125.886845 43.46676 
L 126.609058 43.79148 
L 127.337999 43.77672 
L 127.702227 43.2552 
L 128.06316 43.40772 
L 128.427039 42.49752 
L 128.789065 42.90588 
L 129.155698 42.8616 
L 129.513435 42.41388 
L 130.248397 42.79764 
L 130.609375 41.57256 
L 130.972389 41.86284 
L 131.337252 41.63652 
L 131.699803 41.85792 
L 132.059087 41.22324 
L 132.791367 42.1482 
L 133.153064 41.96616 
L 133.515228 41.59224 
L 134.244245 41.99076 
L 134.603201 41.91696 
L 134.972143 41.98584 
L 135.339348 41.41512 
L 135.7034 42.15312 
L 136.065699 41.96124 
L 136.4296 42.43848 
L 137.15088 42.02028 
L 137.521546 42.0252 
L 137.884711 41.40528 
L 138.24 41.46432 
L 138.24 41.46432 
" clip-path="url(#p9bc95569dd)" style="fill: none; stroke: #4a8dff; stroke-width: 0.6; stroke-linecap: round"/>
   </g>
   <g id="line2d_7">
    <path d="M 5.76 38.96496 
L 6.123291 38.74848 
L 6.486582 37.71528 
L 6.849873 37.63164 
L 7.213164 34.64028 
L 7.576455 34.69932 
L 7.939746 33.87276 
L 8.303037 34.18764 
L 8.666328 34.73868 
L 9.029619 34.09416 
L 9.39291 34.38444 
L 9.756201 34.33032 
L 10.482783 34.57632 
L 10.846074 33.18396 
L 11.209365 33.38076 
L 11.572656 32.81004 
L 11.935947 31.38816 
L 12.299238 30.45336 
L 12.662529 32.59848 
L 13.02582 32.29344 
L 13.389111 31.78176 
L 13.752402 31.53084 
L 14.115693 31.68336 
L 14.478984 32.28852 
L 15.205566 34.1778 
L 15.568857 33.84324 
L 15.932148 33.3414 
L 16.295439 33.25284 
L 17.022021 33.7842 
L 17.385312 35.34384 
L 17.748603 33.981 
L 18.111894 33.35616 
L 18.475185 33.35124 
L 18.838476 31.09296 
L 19.201767 31.11756 
L 19.565058 31.87524 
L 19.928349 33.20856 
L 20.29164 33.17412 
L 20.654931 33.45456 
L 21.018222 33.4152 
L 21.381513 32.7264 
L 21.744804 33.84816 
L 22.471386 33.84324 
L 23.561259 35.73744 
L 23.92455 33.4398 
L 24.287841 33.20856 
L 24.651132 32.58372 
L 25.014423 32.71164 
L 25.741005 32.53944 
L 26.104296 32.013 
L 26.830878 33.3906 
L 27.194169 31.80144 
L 27.55746 31.41768 
L 27.920751 32.19012 
L 28.284042 32.10156 
L 28.647333 31.60956 
L 29.010624 32.0622 
L 29.373915 31.73748 
L 29.737206 30.56652 
L 30.100497 28.31808 
L 30.463788 27.48168 
L 30.827079 27.55548 
L 31.19037 26.71908 
L 31.553661 26.36484 
L 31.916952 27.42756 
L 32.643534 26.55672 
L 33.006825 27.27504 
L 33.370116 27.31932 
L 33.733407 27.63912 
L 34.096698 27.52596 
L 34.459989 26.3058 
L 34.82328 26.96016 
L 35.186571 27.09792 
L 35.549862 27.49644 
L 35.913153 27.2898 
L 36.276444 26.57148 
L 36.639735 27.27012 
L 37.366317 27.35376 
L 38.092899 29.62188 
L 38.45619 29.96136 
L 38.819481 29.14956 
L 39.182772 28.68216 
L 39.546063 29.184 
L 39.909354 28.7412 
L 40.272645 27.5358 
L 40.635936 27.91956 
L 40.999227 28.00812 
L 41.362518 26.64528 
L 41.725809 26.88636 
L 42.0891 26.1828 
L 42.452391 24.52476 
L 42.815682 27.0684 
L 43.178973 27.59484 
L 43.905555 27.49644 
L 44.268846 28.13112 
L 44.632137 29.8482 
L 44.995428 29.12004 
L 45.358719 30.03024 
L 45.72201 27.84576 
L 46.448592 29.54316 
L 46.811883 31.13232 
L 47.175174 30.31068 
L 47.538465 30.62064 
L 47.901756 29.97612 
L 48.265047 31.97364 
L 48.628338 31.82112 
L 48.991629 32.0868 
L 49.35492 31.63416 
L 49.718211 30.6354 
L 50.081502 30.37464 
L 50.444793 30.86172 
L 50.808084 30.89616 
L 51.171375 31.11756 
L 51.897957 30.22212 
L 52.261248 30.45828 
L 52.624539 29.2578 
L 52.98783 28.50504 
L 53.351121 28.18032 
L 53.714412 28.2738 
L 54.077703 28.569 
L 54.440994 28.55424 
L 54.804285 27.8802 
L 55.167576 28.03272 
L 55.530867 27.69324 
L 55.894158 28.42632 
L 56.257449 28.3968 
L 56.62074 28.60344 
L 56.984031 29.88756 
L 57.347322 30.22212 
L 57.710613 29.58252 
L 58.073904 31.73256 
L 58.437195 31.36356 
L 58.800486 31.39308 
L 59.527068 29.09544 
L 59.890359 29.2332 
L 60.25365 27.02412 
L 60.980232 25.16928 
L 61.343523 25.10532 
L 62.070105 23.92452 
L 62.433396 25.53336 
L 62.796687 24.62808 
L 63.159978 25.4448 
L 63.523269 29.64156 
L 63.88656 30.80268 
L 64.249851 28.65756 
L 64.613142 28.6428 
L 65.339724 30.87156 
L 65.703015 32.17044 
L 66.066306 32.97732 
L 66.429597 32.628 
L 66.792888 31.90476 
L 67.156179 30.92076 
L 67.51947 31.96872 
L 67.882761 32.39676 
L 68.246052 31.19628 
L 68.972634 30.42384 
L 69.335925 29.0118 
L 69.699216 29.15448 
L 70.062507 29.76456 
L 70.425798 31.2012 
L 70.789089 32.09172 
L 71.15238 31.43244 
L 71.878962 30.90108 
L 72.605544 35.35368 
L 72.968835 34.24668 
L 73.332126 35.5062 
L 73.695417 34.48284 
L 74.058708 35.02896 
L 74.421999 33.8334 
L 74.78529 33.243 
L 75.148581 34.69932 
L 75.875163 36.2934 
L 76.238454 38.901 
L 76.601745 38.37948 
L 76.965036 38.92068 
L 77.328327 40.09164 
L 77.691618 39.70788 
L 78.054909 40.4262 
L 78.4182 42.75336 
L 78.781491 43.54548 
L 79.144782 43.72752 
L 79.871364 41.976 
L 80.234655 42.42864 
L 80.597946 40.86408 
L 80.961237 40.47048 
L 82.05111 40.89852 
L 82.414401 42.9354 
L 82.777692 40.43604 
L 83.140983 39.31428 
L 83.504274 40.04244 
L 83.867565 41.43972 
L 84.230856 41.47416 
L 84.594147 41.02152 
L 84.957438 40.7952 
L 85.320729 39.75708 
L 85.68402 40.11132 
L 86.047311 39.87024 
L 86.410602 40.94772 
L 86.773893 40.97232 
L 87.500475 42.87144 
L 87.863766 42.17772 
L 88.227057 43.04364 
L 88.590348 43.34868 
L 88.953639 42.03504 
L 89.680221 41.8038 
L 90.043512 41.84316 
L 90.406803 42.37944 
L 90.770094 42.26628 
L 91.133385 42.468 
L 91.496676 42.42864 
L 91.859967 42.18264 
L 92.223258 42.1728 
L 92.586549 42.50244 
L 92.94984 41.88252 
L 93.313131 42.32532 
L 94.039713 41.13468 
L 94.766295 40.42128 
L 95.129586 39.16176 
L 95.492877 39.28968 
L 95.856168 40.48032 
L 96.946041 40.88376 
L 97.672623 40.53936 
L 98.035914 38.50248 
L 98.399205 37.63656 
L 98.762496 38.34012 
L 99.125787 38.37456 
L 99.489078 38.5812 
L 100.21566 39.8358 
L 100.578951 41.93172 
L 100.942242 41.42004 
L 101.668824 41.39052 
L 102.032115 41.5086 
L 102.395406 42.80256 
L 102.758697 41.93664 
L 103.121988 41.49384 
L 103.485279 41.51352 
L 103.84857 43.78164 
L 104.211861 43.9932 
L 104.575152 46.66968 
L 104.938443 47.55036 
L 105.301734 46.64508 
L 105.897136 48.89352 
L 106.260242 49.84308 
L 106.621977 49.00176 
L 106.993572 49.233 
L 107.353865 48.97716 
L 108.081768 49.36092 
L 108.806933 49.58724 
L 109.165855 49.28712 
L 109.509976 49.16904 
L 109.89657 49.39044 
L 110.214227 49.29696 
L 110.985426 49.55772 
L 112.075105 49.41996 
L 112.43949 49.8234 
L 112.77209 49.86768 
L 113.164764 49.72992 
L 113.526436 49.39536 
L 114.248048 49.6758 
L 114.619593 49.47408 
L 114.979133 49.60692 
L 115.343269 49.37568 
L 115.704525 49.36584 
L 116.068598 48.6672 
L 117.159039 49.54788 
L 117.523419 49.5282 
L 117.884376 49.09032 
L 118.612245 49.2084 
L 118.974834 48.93288 
L 119.707883 48.89844 
L 120.429133 48.1998 
L 120.795195 48.28344 
L 121.158587 48.88368 
L 121.518342 49.04604 
L 121.879505 49.00176 
L 122.612373 49.38552 
L 122.972301 49.04112 
L 123.362649 48.92796 
L 123.703302 48.987 
L 124.426869 49.66104 
L 125.886845 49.40028 
L 126.245351 49.56756 
L 126.969237 49.56264 
L 127.337999 49.53312 
L 127.702227 49.25268 
L 128.06316 49.29696 
L 128.427039 48.89352 
L 128.789065 48.96732 
L 129.513435 48.5934 
L 129.883243 48.84432 
L 130.248397 48.95748 
L 130.609375 48.30804 
L 130.972389 48.34248 
L 131.337252 48.21456 
L 131.699803 48.26376 
L 132.059087 47.41752 
L 132.427176 48.05712 
L 132.791367 48.26376 
L 133.153064 48.01776 
L 133.515228 47.23548 
L 134.603201 47.1666 
L 134.972143 47.31912 
L 135.339348 46.49256 
L 135.7034 47.64876 
L 136.065699 47.5356 
L 136.4296 48.0276 
L 137.15088 46.81728 
L 137.521546 46.92552 
L 137.884711 45.85788 
L 138.24 45.60204 
L 138.24 45.60204 
" clip-path="url(#p9bc95569dd)" style="fill: none; stroke: #f5841e; stroke-width: 0.7; stroke-linecap: round"/>
   </g>
  </g>
 </g>
 <defs>
  <clipPath id="p9bc95569dd">
   <rect x="5.76" y="3.6" width="132.48" height="49.2"/>
  </clipPath>
 </defs>
</svg>
