<?xml version="1.0" encoding="utf-8" standalone="no"?>
<!DOCTYPE svg PUBLIC "-//W3C//DTD SVG 1.1//EN"
  "http://www.w3.org/Graphics/SVG/1.1/DTD/svg11.dtd">
<svg xmlns:xlink="http://www.w3.org/1999/xlink" width="144pt" height="60pt" viewBox="0 0 144 60" xmlns="http://www.w3.org/2000/svg" version="1.1">
  <desc id="nav-meta">{"window":"3m","count":4,"labels":["03.04","03.05","01.06","01.07"],"tick_utc":["2026-04-03T03:37:13Z","2026-05-03T04:31:45Z","2026-06-01T05:29:45Z","2026-07-01T05:10:59Z"]}</desc>

 <metadata>
  <rdf:RDF xmlns:dc="http://purl.org/dc/elements/1.1/" xmlns:cc="http://creativecommons.org/ns#" xmlns:rdf="http://www.w3.org/1999/02/22-rdf-syntax-ns#">
   <cc:Work>
    <dc:type rdf:resource="http://purl.org/dc/dcmitype/StillImage"/>
    <dc:date>2026-07-01T20:28:18.933028</dc:date>
    <dc:format>image/svg+xml</dc:format>
    <dc:creator>
     <cc:Agent>
      <dc:title>Matplotlib v3.11.0, https://matplotlib.org/</dc:title>
     </cc:Agent>
    </dc:creator>
   </cc:Work>
  </rdf:RDF>
 </metadata>
 <defs>
  <style type="text/css">*{stroke-linejoin: round; stroke-linecap: butt}</style>
 </defs>
 <g id="figure_1">
  <g id="patch_1">
   <path d="M 0 60 
L 144 60 
L 144 0 
L 0 0 
L 0 60 
z
" style="fill: none; opacity: 0"/>
  </g>
  <g id="axes_1">
   <g id="patch_2">
    <path d="M 5.76 52.8 
L 138.24 52.8 
L 138.24 3.6 
L 5.76 3.6 
L 5.76 52.8 
z
" style="fill: none"/>
   </g>
   <g id="matplotlib.axis_1"/>
   <g id="matplotlib.axis_2"/>
   <g id="line2d_1">
    <path d="M 5.76 42.96 
L 138.24 42.96 
" clip-path="url(#p5788e2c470)" style="fill: none; stroke: #b2b2b2; stroke-opacity: 0.35; stroke-width: 0.5; stroke-linecap: square"/>
   </g>
   <g id="line2d_2">
    <path d="M 5.76 33.12 
L 138.24 33.12 
" clip-path="url(#p5788e2c470)" style="fill: none; stroke: #b2b2b2; stroke-opacity: 0.35; stroke-width: 0.5; stroke-linecap: square"/>
   </g>
   <g id="line2d_3">
    <path d="M 5.76 23.28 
L 138.24 23.28 
" clip-path="url(#p5788e2c470)" style="fill: none; stroke: #b2b2b2; stroke-opacity: 0.35; stroke-width: 0.5; stroke-linecap: square"/>
   </g>
   <g id="line2d_4">
    <path d="M 5.76 13.44 
L 138.24 13.44 
" clip-path="url(#p5788e2c470)" style="fill: none; stroke: #b2b2b2; stroke-opacity: 0.35; stroke-width: 0.5; stroke-linecap: square"/>
   </g>
   <g id="line2d_5">
    <path d="M 5.76 49.88244 
L 7.234711 49.80864 
L 8.74456 49.78896 
L 10.23585 49.69056 
L 11.713643 49.83816 
L 13.203505 49.50852 
L 14.685774 49.68564 
L 16.186911 49.6266 
L 17.65162 49.48884 
L 19.165756 49.6512 
L 20.660834 49.69056 
L 22.138816 49.40028 
L 23.625131 49.58724 
L 25.11902 49.45932 
L 26.603442 49.27728 
L 28.074486 49.19856 
L 29.58158 49.43472 
L 31.072715 49.50852 
L 32.553642 49.46424 
L 34.036479 49.31664 
L 35.529956 49.4298 
L 37.021349 49.42488 
L 38.49105 49.37568 
L 40.00164 49.4052 
L 41.505119 49.29204 
L 42.995686 49.5528 
L 44.479074 49.50852 
L 45.969021 49.64136 
L 47.472724 49.56756 
L 48.922214 49.56264 
L 50.439862 49.57248 
L 51.926796 49.42488 
L 53.381486 49.49376 
L 54.895139 49.32156 
L 56.382986 49.25268 
L 57.845681 49.24284 
L 59.338572 48.80004 
L 60.855996 48.85416 
L 62.355188 48.72132 
L 63.82198 48.63276 
L 65.316507 48.66228 
L 66.802305 49.09524 
L 68.29709 48.99192 
L 69.765552 49.19364 
L 71.275212 49.34616 
L 72.777107 49.47408 
L 74.253902 49.47408 
L 75.746672 49.54788 
L 77.242594 49.3314 
L 78.718648 49.34616 
L 80.185663 49.51836 
L 81.696666 49.41996 
L 83.203691 49.41504 
L 84.668607 49.5282 
L 86.171328 49.5774 
L 87.654028 49.7742 
L 89.142581 49.7004 
L 90.608581 49.69548 
L 92.126401 49.61676 
L 93.635854 49.71024 
L 95.108671 49.7988 
L 96.612856 50.19732 
L 98.095211 50.45808 
L 99.558164 50.59092 
L 101.022752 50.99928 
L 102.542173 50.82216 
L 104.036201 50.74344 
L 105.495263 50.62536 
L 106.998139 50.80248 
L 108.494319 50.76312 
L 109.987606 50.65488 
L 111.464177 50.6598 
L 112.962422 50.56632 
L 114.499317 50.39412 
L 115.995256 50.23176 
L 117.435329 50.2416 
L 118.915652 50.4138 
L 120.438138 50.55156 
L 121.866108 50.42364 
L 123.384513 50.27112 
L 124.915503 50.217 
L 126.314034 50.35968 
L 127.806805 50.49252 
L 129.29386 50.59092 
L 130.788938 50.59092 
L 132.258157 50.33016 
L 133.773963 50.4384 
L 135.272174 50.3892 
L 136.730788 50.22192 
L 138.24 50.13336 
" clip-path="url(#p5788e2c470)" style="fill: none; stroke: #bebebe; stroke-width: 0.6; stroke-linecap: round"/>
   </g>
   <g id="line2d_6">
    <path d="M 5.76 43.79148 
L 7.234711 43.81116 
L 8.74456 43.77672 
L 10.23585 43.2552 
L 11.713643 43.40772 
L 13.203505 42.49752 
L 14.685774 42.90588 
L 16.186911 42.8616 
L 17.65162 42.41388 
L 19.165756 42.63036 
L 20.660834 42.79764 
L 22.138816 41.57256 
L 23.625131 41.86284 
L 25.11902 41.63652 
L 26.603442 41.85792 
L 28.074486 41.22324 
L 29.58158 41.76936 
L 31.072715 42.1482 
L 32.553642 41.96616 
L 34.036479 41.59224 
L 35.529956 41.76936 
L 37.021349 41.99076 
L 38.49105 41.91696 
L 40.00164 41.98584 
L 41.505119 41.41512 
L 42.995686 42.15312 
L 44.479074 41.96124 
L 45.969021 42.43848 
L 47.472724 42.20232 
L 48.922214 42.02028 
L 50.439862 42.0252 
L 51.926796 41.40528 
L 53.381486 41.46432 
L 54.895139 41.52336 
L 56.382986 41.86776 
L 57.845681 42.1974 
L 59.338572 41.8776 
L 60.855996 41.84316 
L 62.355188 41.8038 
L 63.82198 41.976 
L 65.316507 42.00552 
L 66.802305 42.3942 
L 68.29709 42.27612 
L 69.765552 42.57624 
L 71.275212 42.85176 
L 72.777107 43.31424 
L 74.253902 43.2306 
L 75.746672 43.39296 
L 77.242594 43.16172 
L 78.718648 43.24536 
L 80.185663 43.71768 
L 81.696666 43.33392 
L 83.203691 43.42248 
L 84.668607 43.51596 
L 86.171328 43.67832 
L 87.654028 44.32776 
L 89.142581 44.13588 
L 90.608581 44.16048 
L 92.126401 43.96368 
L 93.635854 44.2392 
L 95.108671 44.19984 
L 96.612856 45.16908 
L 98.095211 45.67584 
L 99.558164 46.00548 
L 101.022752 47.57004 
L 102.542173 47.04852 
L 104.036201 46.64016 
L 105.495263 46.34496 
L 106.998139 46.82712 
L 108.494319 46.65492 
L 109.987606 46.51716 
L 111.464177 46.5516 
L 112.962422 46.46304 
L 114.499317 46.14816 
L 115.995256 45.84312 
L 117.435329 45.6414 
L 118.915652 46.09404 
L 120.438138 46.3302 
L 121.866108 46.21704 
L 123.384513 46.06452 
L 124.915503 46.035 
L 126.314034 46.14324 
L 127.806805 46.52208 
L 129.29386 46.83204 
L 130.788938 47.38308 
L 132.258157 47.14692 
L 133.773963 47.22564 
L 135.272174 47.22072 
L 136.730788 47.10264 
L 138.24 47.0436 
" clip-path="url(#p5788e2c470)" style="fill: none; stroke: #4a8dff; stroke-width: 0.6; stroke-linecap: round"/>
   </g>
   <g id="line2d_7">
    <path d="M 5.76 49.59708 
L 7.234711 49.56264 
L 8.74456 49.53312 
L 10.23585 49.25268 
L 11.713643 49.29696 
L 13.203505 48.89352 
L 14.685774 48.96732 
L 16.186911 48.8148 
L 17.65162 48.5934 
L 19.165756 48.84432 
L 20.660834 48.95748 
L 22.138816 48.30804 
L 23.625131 48.34248 
L 25.11902 48.21456 
L 26.603442 48.26376 
L 28.074486 47.41752 
L 29.58158 48.05712 
L 31.072715 48.26376 
L 32.553642 48.01776 
L 34.036479 47.23548 
L 35.529956 47.17644 
L 37.021349 47.15676 
L 38.49105 47.1666 
L 40.00164 47.31912 
L 41.505119 46.49256 
L 42.995686 47.64876 
L 44.479074 47.5356 
L 45.969021 48.0276 
L 47.472724 47.50608 
L 48.922214 46.81728 
L 50.439862 46.92552 
L 51.926796 45.85788 
L 53.381486 45.60204 
L 54.895139 45.29208 
L 56.382986 45.58728 
L 57.845681 46.2564 
L 59.338572 45.7152 
L 60.855996 45.63648 
L 62.355188 45.6414 
L 63.82198 45.45936 
L 65.316507 45.42492 
L 66.802305 46.38432 
L 68.29709 45.57744 
L 69.765552 46.51716 
L 71.275212 46.95996 
L 72.777107 47.54544 
L 74.253902 47.59464 
L 75.746672 47.66844 
L 77.242594 47.05344 
L 78.718648 47.22564 
L 80.185663 48.07188 
L 81.696666 47.6832 
L 83.203691 47.37324 
L 84.668607 47.66844 
L 86.171328 48.07188 
L 87.654028 48.59832 
L 89.142581 48.52452 
L 90.608581 48.5688 
L 92.126401 48.38676 
L 93.635854 48.55404 
L 95.108671 49.0116 
L 96.612856 49.57248 
L 98.095211 49.93656 
L 99.558164 49.98084 
L 101.022752 50.3646 
L 102.542173 50.15796 
L 104.036201 50.07432 
L 105.495263 49.99068 
L 106.998139 50.217 
L 108.494319 50.07924 
L 109.987606 49.98084 
L 111.464177 49.971 
L 112.962422 49.87752 
L 114.499317 49.69548 
L 115.995256 49.65612 
L 117.435329 49.7004 
L 118.915652 49.92672 
L 120.438138 50.06448 
L 121.866108 49.971 
L 123.384513 49.89228 
L 124.915503 49.89228 
L 126.314034 49.9464 
L 127.806805 50.05956 
L 129.29386 50.2416 
L 130.788938 50.35968 
L 132.258157 50.31048 
L 133.773963 50.34492 
L 135.272174 50.38428 
L 136.730788 50.39412 
L 138.24 50.41872 
" clip-path="url(#p5788e2c470)" style="fill: none; stroke: #f5841e; stroke-width: 0.7; stroke-linecap: round"/>
   </g>
  </g>
 </g>
 <defs>
  <clipPath id="p5788e2c470">
   <rect x="5.76" y="3.6" width="132.48" height="49.2"/>
  </clipPath>
 </defs>
</svg>
