<?xml version="1.0" encoding="utf-8" standalone="no"?>
<!DOCTYPE svg PUBLIC "-//W3C//DTD SVG 1.1//EN"
  "http://www.w3.org/Graphics/SVG/1.1/DTD/svg11.dtd">
<svg xmlns:xlink="http://www.w3.org/1999/xlink" width="144pt" height="60pt" viewBox="0 0 144 60" xmlns="http://www.w3.org/2000/svg" version="1.1">
  <desc id="nav-meta">{"window":"6m","count":4,"labels":["5 Jan","16 Jan","22 Jan","31 Jan"],"idxs":[0,79,157,236]}</desc>

 <metadata>
  <rdf:RDF xmlns:dc="http://purl.org/dc/elements/1.1/" xmlns:cc="http://creativecommons.org/ns#" xmlns:rdf="http://www.w3.org/1999/02/22-rdf-syntax-ns#">
   <cc:Work>
    <dc:type rdf:resource="http://purl.org/dc/dcmitype/StillImage"/>
    <dc:date>2026-01-31T14:54:33.862514</dc:date>
    <dc:format>image/svg+xml</dc:format>
    <dc:creator>
     <cc:Agent>
      <dc:title>Matplotlib v3.10.8, https://matplotlib.org/</dc:title>
     </cc:Agent>
    </dc:creator>
   </cc:Work>
  </rdf:RDF>
 </metadata>
 <defs>
  <style type="text/css">*{stroke-linejoin: round; stroke-linecap: butt}</style>
 </defs>
 <g id="figure_1">
  <g id="patch_1">
   <path d="M 0 60 
L 144 60 
L 144 0 
L 0 0 
L 0 60 
z
" style="fill: none; opacity: 0"/>
  </g>
  <g id="axes_1">
   <g id="patch_2">
    <path d="M 5.76 52.8 
L 138.24 52.8 
L 138.24 3.6 
L 5.76 3.6 
L 5.76 52.8 
z
" style="fill: none"/>
   </g>
   <g id="matplotlib.axis_1"/>
   <g id="matplotlib.axis_2"/>
   <g id="line2d_1">
    <path d="M 5.76 42.96 
L 138.24 42.96 
" clip-path="url(#p6f36ef5af3)" style="fill: none; stroke: #b2b2b2; stroke-opacity: 0.35; stroke-width: 0.5; stroke-linecap: square"/>
   </g>
   <g id="line2d_2">
    <path d="M 5.76 33.12 
L 138.24 33.12 
" clip-path="url(#p6f36ef5af3)" style="fill: none; stroke: #b2b2b2; stroke-opacity: 0.35; stroke-width: 0.5; stroke-linecap: square"/>
   </g>
   <g id="line2d_3">
    <path d="M 5.76 23.28 
L 138.24 23.28 
" clip-path="url(#p6f36ef5af3)" style="fill: none; stroke: #b2b2b2; stroke-opacity: 0.35; stroke-width: 0.5; stroke-linecap: square"/>
   </g>
   <g id="line2d_4">
    <path d="M 5.76 13.44 
L 138.24 13.44 
" clip-path="url(#p6f36ef5af3)" style="fill: none; stroke: #b2b2b2; stroke-opacity: 0.35; stroke-width: 0.5; stroke-linecap: square"/>
   </g>
   <g id="line2d_5">
    <path d="M 6.039494 38.29584 
L 8.686272 38.21712 
L 8.96488 38.119525 
L 9.522097 37.79892 
L 10.079313 37.883812 
L 10.63653 38.17284 
L 12.30818 38.242795 
L 12.865396 38.46312 
L 13.701221 38.358849 
L 14.258437 38.31552 
L 14.537046 38.369105 
L 15.233566 38.5812 
L 15.651479 38.531221 
L 16.347999 38.32536 
L 16.765912 38.396968 
L 17.323128 38.7042 
L 18.298257 38.598927 
L 19.134082 38.488447 
L 19.691299 38.34996 
L 20.109211 38.302282 
L 20.805732 38.06952 
L 21.502252 38.17376 
L 22.059469 38.22696 
L 22.477381 38.314969 
L 23.034598 38.44344 
L 23.731118 38.532904 
L 24.288335 38.5812 
L 30.139108 38.498729 
L 30.835629 38.27616 
L 33.203799 38.175484 
L 33.761016 38.1138 
L 34.039624 38.081184 
L 34.736145 37.75464 
L 35.293361 37.853144 
L 35.850578 38.04984 
L 36.547098 38.13494 
L 37.104315 38.19744 
L 37.382923 38.17165 
L 38.079444 37.83828 
L 38.775965 37.752276 
L 39.333181 37.68576 
L 40.726222 37.594067 
L 41.562047 37.4496 
L 43.094393 37.344482 
L 44.766042 37.1298 
L 45.323259 37.231889 
L 45.880475 37.4988 
L 46.576996 37.41956 
L 47.134213 37.34628 
L 48.527254 37.350561 
L 49.223774 37.85304 
L 50.477512 37.762501 
L 51.034728 37.671 
L 51.591945 37.564703 
L 52.149161 37.45452 
L 57.024806 37.530315 
L 57.721327 37.68576 
L 61.90045 37.74972 
L 62.318363 38.482452 
L 62.596971 38.8272 
L 64.686533 38.720612 
L 65.383054 38.734723 
L 66.218879 38.86656 
L 66.497487 38.951909 
L 67.054703 39.41268 
L 67.890528 39.521138 
L 68.447745 39.57996 
L 72.208956 39.522489 
L 72.766173 39.3438 
L 73.462693 39.243675 
L 74.01991 39.18144 
L 74.716431 39.291394 
L 75.691559 39.318275 
L 78.05973 39.48248 
L 78.477642 39.52092 
L 95.890659 39.591307 
L 96.308571 39.64392 
L 97.562308 39.73367 
L 98.119525 39.76692 
L 99.233958 39.681882 
L 99.791174 39.64884 
L 107.870814 39.753973 
L 108.845943 39.7866 
L 109.263855 40.429348 
L 109.542463 40.75584 
L 110.09968 40.679468 
L 110.656897 40.27368 
L 112.328546 40.192414 
L 113.164371 40.06212 
L 117.900711 39.995869 
L 118.457928 39.63408 
L 126.398263 39.737904 
L 126.95548 39.9096 
L 127.512696 39.991801 
L 128.069913 40.17528 
L 129.602258 40.170765 
L 130.159475 40.7706 
L 131.831125 40.880092 
L 132.666949 41.05104 
L 134.338599 40.996369 
L 134.756511 40.869 
L 136.010248 40.768418 
L 136.567465 40.6722 
L 136.985377 40.767753 
L 137.542594 41.04612 
L 137.960506 41.04612 
L 137.960506 41.04612 
" clip-path="url(#p6f36ef5af3)" style="fill: none; stroke: #bebebe; stroke-width: 0.6; stroke-linecap: round"/>
   </g>
   <g id="line2d_6">
    <path d="M 6.039494 32.44596 
L 8.407664 32.427823 
L 8.96488 32.13108 
L 9.522097 32.186577 
L 10.218618 32.37216 
L 11.890267 32.448937 
L 12.30818 32.63784 
L 13.840525 32.73624 
L 14.67635 33.10524 
L 16.487304 33.198637 
L 16.905216 33.28236 
L 17.323128 33.339052 
L 17.880345 33.5874 
L 18.437561 33.538823 
L 19.134082 33.3168 
L 21.641556 33.42504 
L 23.313206 33.56627 
L 24.706247 33.476479 
L 26.517201 33.43488 
L 29.581892 33.338891 
L 30.835629 33.287659 
L 31.810758 33.265044 
L 32.367975 33.014306 
L 33.064495 33.25776 
L 37.243619 33.158882 
L 38.497356 33.08556 
L 39.054573 33.057973 
L 39.751094 32.64276 
L 40.169006 32.590993 
L 40.726222 31.7178 
L 43.790913 31.608609 
L 44.208826 31.46688 
L 44.626738 31.481344 
L 45.323259 31.9392 
L 45.741171 31.929163 
L 46.437692 31.52592 
L 47.273517 31.616319 
L 47.552125 31.756999 
L 48.109341 32.07974 
L 49.223774 32.051477 
L 49.780991 31.940618 
L 50.616816 32.04744 
L 54.517331 31.948848 
L 55.631765 31.882046 
L 56.606893 31.876778 
L 58.557151 31.87032 
L 60.786017 31.68336 
L 61.621842 32.600802 
L 62.875579 32.589778 
L 64.268621 32.56896 
L 64.825837 32.616269 
L 65.522358 32.85432 
L 65.94027 32.945322 
L 66.497487 33.42504 
L 67.054703 33.498866 
L 67.61192 33.9072 
L 68.447745 33.999256 
L 69.004961 34.04988 
L 69.562178 34.137889 
L 70.119394 34.18764 
L 72.626869 34.133447 
L 73.323389 33.84816 
L 74.159214 33.95003 
L 75.552255 34.01544 
L 76.38808 34.115814 
L 77.363209 34.323644 
L 77.781121 34.45332 
L 94.079705 34.352504 
L 94.91553 34.31064 
L 95.751354 34.55664 
L 99.65187 34.447283 
L 100.487695 34.374964 
L 102.159344 34.329634 
L 106.199164 34.454551 
L 107.452902 34.54587 
L 108.42803 34.722569 
L 108.985247 35.47176 
L 109.542463 35.406579 
L 110.09968 35.06832 
L 110.656897 35.004931 
L 111.214113 34.65996 
L 114.278804 34.554364 
L 114.696716 34.46808 
L 115.393237 34.551543 
L 115.950454 34.60092 
L 117.343495 34.541324 
L 117.900711 33.9072 
L 122.497748 34.013913 
L 124.865918 34.045906 
L 125.423134 33.981 
L 126.816176 33.994918 
L 127.512696 34.41888 
L 129.045042 34.444452 
L 129.602258 35.10768 
L 130.298779 35.194339 
L 130.855996 35.40288 
L 131.413212 35.477776 
L 131.970429 35.66364 
L 132.666949 35.762747 
L 133.224166 35.8506 
L 134.756511 35.941524 
L 135.174424 36.280988 
L 136.010248 36.1212 
L 136.428161 36.220483 
L 136.985377 36.50496 
L 137.40329 36.50736 
L 137.960506 37.26264 
L 137.960506 37.26264 
" clip-path="url(#p6f36ef5af3)" style="fill: none; stroke: #4a8dff; stroke-width: 0.7; stroke-linecap: round"/>
   </g>
   <g id="line2d_7">
    <path d="M 6.039494 37.0806 
L 7.850447 37.177176 
L 8.407664 37.272272 
L 9.104185 37.14456 
L 9.382793 37.14456 
L 10.079313 37.71528 
L 11.750963 37.737371 
L 12.30818 38.0646 
L 13.144004 37.977318 
L 13.701221 37.9416 
L 13.979829 38.025256 
L 14.537046 38.34996 
L 16.208695 38.438281 
L 16.765912 38.76816 
L 18.437561 38.752252 
L 18.994778 38.36472 
L 20.666427 38.404953 
L 21.362948 38.655 
L 24.845551 38.54464 
L 25.959984 38.545877 
L 27.910242 38.545472 
L 29.024675 38.466866 
L 31.950062 38.306989 
L 32.367975 37.968839 
L 32.925191 38.47788 
L 34.596841 38.409883 
L 35.293361 38.163 
L 36.965011 38.110392 
L 37.522227 37.87764 
L 38.915269 37.80876 
L 39.054573 37.750214 
L 39.611789 36.86904 
L 40.30831 36.766941 
L 40.865527 36.53448 
L 42.537176 36.478661 
L 42.955089 36.08184 
L 43.512305 36.062929 
L 44.208826 35.57016 
L 44.626738 35.587185 
L 45.323259 36.12612 
L 45.880475 36.029237 
L 46.437692 35.77188 
L 46.994908 35.866519 
L 48.248646 36.563901 
L 49.363079 36.462431 
L 49.780991 36.426552 
L 50.477512 36.60336 
L 54.378027 36.509496 
L 55.353156 36.472084 
L 59.810888 36.599141 
L 60.646713 36.50004 
L 60.786017 36.50004 
L 61.20393 37.256484 
L 61.482538 37.582118 
L 62.457667 37.49388 
L 63.850708 37.510687 
L 64.686533 37.45944 
L 65.661662 37.87764 
L 65.94027 37.957659 
L 66.497487 38.37948 
L 67.194007 38.478451 
L 67.751224 38.62548 
L 68.169136 38.668087 
L 68.865657 38.91576 
L 69.701482 39.020623 
L 71.512436 39.090859 
L 72.208956 38.84196 
L 73.044781 38.735066 
L 73.741302 38.730852 
L 74.716431 38.82228 
L 77.223905 38.908637 
L 77.781121 39.147 
L 81.960245 39.044101 
L 83.631895 38.8518 
L 84.607024 38.969584 
L 85.303545 39.02892 
L 88.786148 39.0732 
L 93.801097 38.989383 
L 94.636921 38.82228 
L 95.054834 38.893087 
L 95.61205 39.11256 
L 97.005092 39.219112 
L 97.701612 39.2454 
L 98.398133 38.993612 
L 99.373262 39.05844 
L 101.462824 38.88132 
L 102.995169 38.985024 
L 103.970298 39.039544 
L 106.05986 39.2208 
L 107.034989 39.51108 
L 107.592206 39.418416 
L 108.149422 39.37332 
L 108.288726 39.37332 
L 108.706639 40.022417 
L 108.985247 40.34748 
L 109.542463 40.27435 
L 110.09968 39.89484 
L 110.796201 39.78938 
L 111.353417 39.63408 
L 113.164371 39.695125 
L 113.582283 39.78168 
L 114.000196 39.716671 
L 114.557412 39.30444 
L 115.253933 39.407022 
L 115.811149 39.57504 
L 116.368366 39.646564 
L 116.925582 39.76692 
L 117.343495 39.679841 
L 117.900711 39.024 
L 121.522619 39.131757 
L 122.497748 39.160097 
L 124.865918 39.069542 
L 125.28383 38.9502 
L 125.841047 39.016098 
L 126.537568 39.15684 
L 126.816176 39.187389 
L 127.373392 39.639 
L 129.045042 39.659652 
L 129.602258 40.32288 
L 130.159475 40.363903 
L 130.716691 41.24784 
L 131.273908 41.263551 
L 131.970429 41.66112 
L 132.666949 41.770659 
L 133.224166 41.86776 
L 133.642078 41.793466 
L 134.199295 41.59716 
L 134.895815 41.49024 
L 135.73164 41.29212 
L 136.428161 41.392676 
L 136.985377 41.6808 
L 137.40329 41.683278 
L 137.960506 42.46308 
L 137.960506 42.46308 
" clip-path="url(#p6f36ef5af3)" style="fill: none; stroke: #f5841e; stroke-width: 0.8; stroke-linecap: round"/>
   </g>
  </g>
 </g>
 <defs>
  <clipPath id="p6f36ef5af3">
   <rect x="5.76" y="3.6" width="132.48" height="49.2"/>
  </clipPath>
 </defs>
</svg>
