<?xml version="1.0" encoding="utf-8" standalone="no"?>
<!DOCTYPE svg PUBLIC "-//W3C//DTD SVG 1.1//EN"
  "http://www.w3.org/Graphics/SVG/1.1/DTD/svg11.dtd">
<svg xmlns:xlink="http://www.w3.org/1999/xlink" width="144pt" height="60pt" viewBox="0 0 144 60" xmlns="http://www.w3.org/2000/svg" version="1.1">
  <desc id="nav-meta">{"window":"1m","count":4,"labels":["04.05","14.05","23.05","02.06"],"tick_utc":["2026-05-04T04:31:15Z","2026-05-14T04:32:13Z","2026-05-23T04:28:38Z","2026-06-02T05:15:35Z"]}</desc>

 <metadata>
  <rdf:RDF xmlns:dc="http://purl.org/dc/elements/1.1/" xmlns:cc="http://creativecommons.org/ns#" xmlns:rdf="http://www.w3.org/1999/02/22-rdf-syntax-ns#">
   <cc:Work>
    <dc:type rdf:resource="http://purl.org/dc/dcmitype/StillImage"/>
    <dc:date>2026-06-02T17:09:23.064453</dc:date>
    <dc:format>image/svg+xml</dc:format>
    <dc:creator>
     <cc:Agent>
      <dc:title>Matplotlib v3.10.9, https://matplotlib.org/</dc:title>
     </cc:Agent>
    </dc:creator>
   </cc:Work>
  </rdf:RDF>
 </metadata>
 <defs>
  <style type="text/css">*{stroke-linejoin: round; stroke-linecap: butt}</style>
 </defs>
 <g id="figure_1">
  <g id="patch_1">
   <path d="M 0 60 
L 144 60 
L 144 0 
L 0 0 
L 0 60 
z
" style="fill: none; opacity: 0"/>
  </g>
  <g id="axes_1">
   <g id="patch_2">
    <path d="M 5.76 52.8 
L 138.24 52.8 
L 138.24 3.6 
L 5.76 3.6 
L 5.76 52.8 
z
" style="fill: none"/>
   </g>
   <g id="matplotlib.axis_1"/>
   <g id="matplotlib.axis_2"/>
   <g id="line2d_1">
    <path d="M 5.76 42.96 
L 138.24 42.96 
" clip-path="url(#p7245ff3af3)" style="fill: none; stroke: #b2b2b2; stroke-opacity: 0.35; stroke-width: 0.5; stroke-linecap: square"/>
   </g>
   <g id="line2d_2">
    <path d="M 5.76 33.12 
L 138.24 33.12 
" clip-path="url(#p7245ff3af3)" style="fill: none; stroke: #b2b2b2; stroke-opacity: 0.35; stroke-width: 0.5; stroke-linecap: square"/>
   </g>
   <g id="line2d_3">
    <path d="M 5.76 23.28 
L 138.24 23.28 
" clip-path="url(#p7245ff3af3)" style="fill: none; stroke: #b2b2b2; stroke-opacity: 0.35; stroke-width: 0.5; stroke-linecap: square"/>
   </g>
   <g id="line2d_4">
    <path d="M 5.76 13.44 
L 138.24 13.44 
" clip-path="url(#p7245ff3af3)" style="fill: none; stroke: #b2b2b2; stroke-opacity: 0.35; stroke-width: 0.5; stroke-linecap: square"/>
   </g>
   <g id="line2d_5">
    <path d="M 5.76 49.42488 
L 10.22292 49.49376 
L 14.866739 49.32156 
L 19.431385 49.25268 
L 23.918865 49.24284 
L 28.498986 48.80004 
L 33.154373 48.85416 
L 37.753825 48.72132 
L 42.253876 48.63276 
L 46.839015 48.66228 
L 51.397376 49.09524 
L 55.983307 48.99192 
L 60.488481 49.19364 
L 65.120046 49.34616 
L 69.727792 49.47408 
L 74.258529 49.47408 
L 78.838281 49.54788 
L 83.427698 49.3314 
L 87.956164 49.34616 
L 92.456901 49.51836 
L 97.092586 49.41996 
L 101.716071 49.41504 
L 106.210364 49.5282 
L 110.820645 49.5774 
L 115.369498 49.7742 
L 119.93631 49.7004 
L 124.43393 49.69548 
L 129.090532 49.61676 
L 133.721464 49.71024 
L 138.24 49.7988 
" clip-path="url(#p7245ff3af3)" style="fill: none; stroke: #bebebe; stroke-width: 0.6; stroke-linecap: round"/>
   </g>
   <g id="line2d_6">
    <path d="M 5.76 41.40528 
L 10.22292 41.46432 
L 14.866739 41.52336 
L 19.431385 41.86776 
L 23.918865 42.1974 
L 28.498986 41.8776 
L 33.154373 41.84316 
L 37.753825 41.8038 
L 42.253876 41.976 
L 46.839015 42.00552 
L 51.397376 42.3942 
L 55.983307 42.27612 
L 60.488481 42.57624 
L 65.120046 42.85176 
L 69.727792 43.31424 
L 74.258529 43.2306 
L 78.838281 43.39296 
L 83.427698 43.16172 
L 87.956164 43.24536 
L 92.456901 43.71768 
L 97.092586 43.33392 
L 101.716071 43.42248 
L 106.210364 43.51596 
L 110.820645 43.67832 
L 115.369498 44.32776 
L 119.93631 44.13588 
L 124.43393 44.16048 
L 129.090532 43.96368 
L 133.721464 44.2392 
L 138.24 44.19984 
" clip-path="url(#p7245ff3af3)" style="fill: none; stroke: #4a8dff; stroke-width: 0.6; stroke-linecap: round"/>
   </g>
   <g id="line2d_7">
    <path d="M 5.76 45.85788 
L 10.22292 45.60204 
L 14.866739 45.29208 
L 19.431385 45.58728 
L 23.918865 46.2564 
L 28.498986 45.7152 
L 33.154373 45.63648 
L 37.753825 45.6414 
L 42.253876 45.45936 
L 46.839015 45.42492 
L 51.397376 46.38432 
L 55.983307 45.57744 
L 60.488481 46.51716 
L 65.120046 46.95996 
L 69.727792 47.54544 
L 74.258529 47.59464 
L 78.838281 47.66844 
L 83.427698 47.05344 
L 87.956164 47.22564 
L 92.456901 48.07188 
L 97.092586 47.6832 
L 101.716071 47.37324 
L 106.210364 47.66844 
L 110.820645 48.07188 
L 115.369498 48.59832 
L 119.93631 48.52452 
L 124.43393 48.5688 
L 129.090532 48.38676 
L 133.721464 48.55404 
L 138.24 49.0116 
" clip-path="url(#p7245ff3af3)" style="fill: none; stroke: #f5841e; stroke-width: 0.7; stroke-linecap: round"/>
   </g>
  </g>
 </g>
 <defs>
  <clipPath id="p7245ff3af3">
   <rect x="5.76" y="3.6" width="132.48" height="49.2"/>
  </clipPath>
 </defs>
</svg>
