<?xml version="1.0" encoding="utf-8" standalone="no"?>
<!DOCTYPE svg PUBLIC "-//W3C//DTD SVG 1.1//EN"
  "http://www.w3.org/Graphics/SVG/1.1/DTD/svg11.dtd">
<svg xmlns:xlink="http://www.w3.org/1999/xlink" width="144pt" height="60pt" viewBox="0 0 144 60" xmlns="http://www.w3.org/2000/svg" version="1.1">
 <metadata>
  <rdf:RDF xmlns:dc="http://purl.org/dc/elements/1.1/" xmlns:cc="http://creativecommons.org/ns#" xmlns:rdf="http://www.w3.org/1999/02/22-rdf-syntax-ns#">
   <cc:Work>
    <dc:type rdf:resource="http://purl.org/dc/dcmitype/StillImage"/>
    <dc:date>2026-01-22T20:54:42.488801</dc:date>
    <dc:format>image/svg+xml</dc:format>
    <dc:creator>
     <cc:Agent>
      <dc:title>Matplotlib v3.10.8, https://matplotlib.org/</dc:title>
     </cc:Agent>
    </dc:creator>
   </cc:Work>
  </rdf:RDF>
 </metadata>
 <defs>
  <style type="text/css">*{stroke-linejoin: round; stroke-linecap: butt}</style>
 </defs>
 <g id="figure_1">
  <g id="patch_1">
   <path d="M 0 60 
L 144 60 
L 144 0 
L 0 0 
L 0 60 
z
" style="fill: none; opacity: 0"/>
  </g>
  <g id="axes_1">
   <g id="patch_2">
    <path d="M 4.32 52.8 
L 139.68 52.8 
L 139.68 3.6 
L 4.32 3.6 
L 4.32 52.8 
z
" style="fill: none"/>
   </g>
   <g id="matplotlib.axis_1"/>
   <g id="matplotlib.axis_2"/>
   <g id="line2d_1">
    <path d="M 4.32 42.96 
L 139.68 42.96 
" clip-path="url(#p0c230e707b)" style="fill: none; stroke: #b2b2b2; stroke-opacity: 0.35; stroke-width: 0.5; stroke-linecap: square"/>
   </g>
   <g id="line2d_2">
    <path d="M 4.32 33.12 
L 139.68 33.12 
" clip-path="url(#p0c230e707b)" style="fill: none; stroke: #b2b2b2; stroke-opacity: 0.35; stroke-width: 0.5; stroke-linecap: square"/>
   </g>
   <g id="line2d_3">
    <path d="M 4.32 23.28 
L 139.68 23.28 
" clip-path="url(#p0c230e707b)" style="fill: none; stroke: #b2b2b2; stroke-opacity: 0.35; stroke-width: 0.5; stroke-linecap: square"/>
   </g>
   <g id="line2d_4">
    <path d="M 4.32 13.44 
L 139.68 13.44 
" clip-path="url(#p0c230e707b)" style="fill: none; stroke: #b2b2b2; stroke-opacity: 0.35; stroke-width: 0.5; stroke-linecap: square"/>
   </g>
   <g id="line2d_5">
    <path d="M 4.32 38.59104 
L 5.744842 38.34996 
L 6.884716 38.283835 
L 8.024589 38.06952 
L 9.449432 38.143765 
L 10.589305 38.22696 
L 11.729179 38.326313 
L 12.869053 38.44344 
L 14.293895 38.539147 
L 15.433768 38.5812 
L 27.402442 38.496441 
L 28.827284 38.27616 
L 33.671747 38.176735 
L 34.811621 38.1138 
L 35.381558 38.085823 
L 36.8064 37.75464 
L 37.946274 37.84724 
L 39.086147 38.04984 
L 40.510989 38.130942 
L 41.650863 38.19744 
L 42.505768 38.093851 
L 43.645642 37.83828 
L 45.070484 37.758327 
L 46.210358 37.68576 
L 49.060042 37.601799 
L 50.769853 37.4496 
L 53.904505 37.351418 
L 57.324126 37.1298 
L 58.464 37.2036 
L 59.603874 37.4988 
L 61.313684 37.394444 
L 62.453558 37.34628 
L 65.303242 37.428428 
L 66.443116 37.85304 
L 69.007832 37.781757 
L 70.147705 37.671 
L 71.287579 37.588965 
L 72.427453 37.45452 
L 82.686316 37.551107 
L 84.111158 37.68576 
L 92.660211 37.761062 
L 93.800084 38.8272 
L 98.074611 38.746243 
L 99.214484 38.70912 
L 100.069389 38.783034 
L 101.494232 38.86656 
L 101.7792 38.86656 
L 103.204042 39.41268 
L 104.628884 39.486988 
L 105.768758 39.57996 
L 113.747874 39.516818 
L 114.887747 39.3438 
L 116.312589 39.241599 
L 117.452463 39.18144 
L 118.877305 39.292124 
L 121.157053 39.321945 
L 125.431579 39.419413 
L 126.286484 39.52092 
L 139.68 39.42252 
L 139.68 39.42252 
" clip-path="url(#p0c230e707b)" style="fill: none; stroke: #bebebe; stroke-width: 0.6; stroke-linecap: round"/>
   </g>
   <g id="line2d_6">
    <path d="M 4.32 33.3168 
L 10.019368 33.42504 
L 12.299116 33.55296 
L 16.003705 33.485717 
L 19.993263 33.43488 
L 26.262568 33.338106 
L 28.827284 33.287736 
L 30.822063 33.265145 
L 31.961937 33.013365 
L 33.386779 33.25776 
L 41.935832 33.162239 
L 43.930611 33.110968 
L 45.925389 32.966237 
L 47.065263 32.64276 
L 47.920168 32.634971 
L 49.060042 31.7178 
L 55.329347 31.629354 
L 56.184253 31.46688 
L 57.324126 31.564327 
L 58.464 31.9392 
L 59.603874 31.859154 
L 60.743747 31.52592 
L 62.738526 31.635299 
L 64.448337 32.084345 
L 66.443116 32.070901 
L 67.582989 31.926087 
L 69.2928 32.04744 
L 77.556884 31.938237 
L 81.261474 31.867213 
L 85.820968 31.86627 
L 89.810526 31.68336 
L 90.380463 31.70421 
L 91.520337 32.584383 
L 94.654989 32.586206 
L 97.504674 32.56896 
L 98.644547 32.633842 
L 99.784421 32.85432 
L 100.639326 32.85432 
L 102.064168 33.42504 
L 103.204042 33.522487 
L 104.343916 33.9072 
L 106.053726 34.005124 
L 107.1936 34.04988 
L 108.333474 34.142687 
L 109.473347 34.18764 
L 114.602779 34.127761 
L 115.742653 33.84816 
L 117.737432 33.951076 
L 120.872084 34.01544 
L 122.296926 34.115373 
L 124.291705 34.320687 
L 125.146611 34.45332 
L 139.68 34.48284 
L 139.68 34.48284 
" clip-path="url(#p0c230e707b)" style="fill: none; stroke: #4a8dff; stroke-width: 0.7; stroke-linecap: round"/>
   </g>
   <g id="line2d_7">
    <path d="M 4.32 38.36472 
L 8.024589 38.42375 
L 9.164463 38.655 
L 16.288674 38.554943 
L 18.853389 38.546843 
L 22.842947 38.543549 
L 25.122695 38.466714 
L 31.107032 38.307669 
L 31.961937 37.966873 
L 33.101811 38.47788 
L 36.521432 38.414231 
L 37.946274 38.163 
L 41.365895 38.120533 
L 42.505768 37.87764 
L 45.640421 37.788976 
L 46.780295 36.86904 
L 48.205137 36.783111 
L 49.345011 36.53448 
L 52.764632 36.512832 
L 53.619537 36.094829 
L 55.044379 35.969809 
L 56.184253 35.57016 
L 57.039158 35.57016 
L 58.464 36.12612 
L 59.603874 36.057509 
L 60.743747 35.77188 
L 61.883621 35.836016 
L 64.448337 36.564818 
L 67.013053 36.433853 
L 67.582989 36.4025 
L 69.007832 36.60336 
L 77.271916 36.499408 
L 78.981726 36.468148 
L 88.100716 36.618638 
L 90.095495 36.50004 
L 90.380463 36.525562 
L 91.520337 37.600297 
L 93.800084 37.494108 
L 96.3648 37.526746 
L 98.359579 37.45944 
L 99.784421 37.87764 
L 100.924295 37.985404 
L 102.064168 38.37948 
L 103.489011 38.490309 
L 104.628884 38.62548 
L 105.483789 38.68048 
L 106.623663 38.91576 
L 108.618442 39.024642 
L 112.323032 39.084065 
L 113.747874 38.84196 
L 115.457684 38.733202 
L 117.167495 38.757678 
L 118.877305 38.82228 
L 124.006737 38.905557 
L 124.861642 39.147 
L 133.695663 39.048952 
L 134.835537 39.01908 
L 135.690442 38.931742 
L 136.830316 38.8518 
L 138.825095 38.929919 
L 139.68 39.02892 
L 139.68 39.02892 
" clip-path="url(#p0c230e707b)" style="fill: none; stroke: #d8a538; stroke-width: 0.8; stroke-linecap: round"/>
   </g>
  </g>
 </g>
 <defs>
  <clipPath id="p0c230e707b">
   <rect x="4.32" y="3.6" width="135.36" height="49.2"/>
  </clipPath>
 </defs>
</svg>
