<?xml version="1.0" encoding="utf-8" standalone="no"?>
<!DOCTYPE svg PUBLIC "-//W3C//DTD SVG 1.1//EN"
  "http://www.w3.org/Graphics/SVG/1.1/DTD/svg11.dtd">
<svg xmlns:xlink="http://www.w3.org/1999/xlink" width="144pt" height="60pt" viewBox="0 0 144 60" xmlns="http://www.w3.org/2000/svg" version="1.1">
  <desc id="nav-meta">{"window":"1y","count":4,"labels":["10.07","09.11","10.03","10.07"],"tick_utc":["2025-07-10T12:00:00Z","2025-11-09T12:00:00Z","2026-03-10T03:14:38Z","2026-07-10T04:38:36Z"]}</desc>

 <metadata>
  <rdf:RDF xmlns:dc="http://purl.org/dc/elements/1.1/" xmlns:cc="http://creativecommons.org/ns#" xmlns:rdf="http://www.w3.org/1999/02/22-rdf-syntax-ns#">
   <cc:Work>
    <dc:type rdf:resource="http://purl.org/dc/dcmitype/StillImage"/>
    <dc:date>2026-07-10T10:03:48.391714</dc:date>
    <dc:format>image/svg+xml</dc:format>
    <dc:creator>
     <cc:Agent>
      <dc:title>Matplotlib v3.11.0, https://matplotlib.org/</dc:title>
     </cc:Agent>
    </dc:creator>
   </cc:Work>
  </rdf:RDF>
 </metadata>
 <defs>
  <style type="text/css">*{stroke-linejoin: round; stroke-linecap: butt}</style>
 </defs>
 <g id="figure_1">
  <g id="patch_1">
   <path d="M 0 60 
L 144 60 
L 144 0 
L 0 0 
L 0 60 
z
" style="fill: none; opacity: 0"/>
  </g>
  <g id="axes_1">
   <g id="patch_2">
    <path d="M 5.76 52.8 
L 138.24 52.8 
L 138.24 3.6 
L 5.76 3.6 
L 5.76 52.8 
z
" style="fill: none"/>
   </g>
   <g id="matplotlib.axis_1"/>
   <g id="matplotlib.axis_2"/>
   <g id="line2d_1">
    <path d="M 5.76 42.96 
L 138.24 42.96 
" clip-path="url(#pef847ad0ae)" style="fill: none; stroke: #b2b2b2; stroke-opacity: 0.35; stroke-width: 0.5; stroke-linecap: square"/>
   </g>
   <g id="line2d_2">
    <path d="M 5.76 33.12 
L 138.24 33.12 
" clip-path="url(#pef847ad0ae)" style="fill: none; stroke: #b2b2b2; stroke-opacity: 0.35; stroke-width: 0.5; stroke-linecap: square"/>
   </g>
   <g id="line2d_3">
    <path d="M 5.76 23.28 
L 138.24 23.28 
" clip-path="url(#pef847ad0ae)" style="fill: none; stroke: #b2b2b2; stroke-opacity: 0.35; stroke-width: 0.5; stroke-linecap: square"/>
   </g>
   <g id="line2d_4">
    <path d="M 5.76 13.44 
L 138.24 13.44 
" clip-path="url(#pef847ad0ae)" style="fill: none; stroke: #b2b2b2; stroke-opacity: 0.35; stroke-width: 0.5; stroke-linecap: square"/>
   </g>
   <g id="line2d_5">
    <path d="M 5.76 41.14452 
L 6.123264 40.2786 
L 6.486528 40.42128 
L 6.849792 40.71648 
L 7.57632 40.48032 
L 7.939584 40.26384 
L 8.302848 38.97972 
L 9.029376 38.51724 
L 9.39264 38.57628 
L 9.755904 38.04492 
L 10.119168 36.03264 
L 10.482432 34.88136 
L 10.845696 36.92316 
L 11.20896 37.8432 
L 11.572224 37.37088 
L 11.935488 37.53324 
L 12.298752 37.056 
L 12.662016 37.77924 
L 13.025279 38.02032 
L 13.388543 38.45328 
L 13.751807 39.1962 
L 14.115071 40.41636 
L 14.478335 40.97232 
L 14.841599 40.53444 
L 15.204863 39.55536 
L 15.568127 40.24908 
L 15.931391 39.7128 
L 16.294655 38.778 
L 16.657919 38.59104 
L 17.384447 37.794 
L 17.747711 38.82228 
L 18.110975 36.53448 
L 18.474239 35.334 
L 19.200767 37.44468 
L 19.564031 36.90348 
L 19.927295 36.65748 
L 20.653823 38.64516 
L 21.017087 37.2282 
L 21.380351 38.14332 
L 21.743615 35.53572 
L 22.106879 35.04372 
L 22.470143 34.80264 
L 22.833407 37.23804 
L 23.923199 33.67104 
L 24.286463 34.90596 
L 25.376255 35.9736 
L 25.739519 34.36476 
L 26.102783 34.1778 
L 26.466047 35.22084 
L 26.82931 35.11752 
L 27.192574 35.54556 
L 28.64563 32.44104 
L 29.008894 31.83096 
L 29.372158 30.06468 
L 29.735422 30.01056 
L 30.098686 30.291 
L 30.46195 31.16184 
L 30.825214 30.74856 
L 31.188478 29.71536 
L 31.551742 29.37588 
L 31.915006 30.57636 
L 32.27827 30.42876 
L 32.641534 30.79284 
L 33.004798 32.91828 
L 33.368062 33.72024 
L 33.731326 34.05972 
L 34.09459 36.5886 
L 34.457854 34.90104 
L 34.821118 35.10276 
L 35.184382 34.16796 
L 35.547646 33.8826 
L 35.91091 34.43364 
L 36.637438 31.05852 
L 37.000702 31.26024 
L 37.363966 31.92936 
L 37.72723 31.85064 
L 38.090494 31.3242 
L 38.453758 32.84448 
L 38.817022 31.78176 
L 39.180286 32.85924 
L 39.54355 36.8838 
L 39.906814 38.39424 
L 40.270078 35.95392 
L 40.633342 34.53696 
L 40.996605 35.20608 
L 41.723133 37.57752 
L 42.086397 37.90716 
L 42.449661 37.18884 
L 42.812925 37.18392 
L 43.176189 36.89364 
L 43.539453 37.42008 
L 43.902717 38.17284 
L 44.265981 36.687 
L 44.629245 36.42132 
L 44.992509 36.34752 
L 45.355773 35.56032 
L 45.719037 35.72268 
L 46.082301 36.29832 
L 46.445565 36.32292 
L 46.808829 37.61688 
L 47.172093 37.2282 
L 47.535357 37.34628 
L 47.898621 37.23804 
L 48.261885 40.008 
L 48.625149 41.36592 
L 48.988413 40.43604 
L 49.351677 41.44956 
L 49.714941 40.53444 
L 50.078205 41.02152 
L 50.441469 40.22448 
L 50.804733 39.79644 
L 51.167997 41.51844 
L 51.531261 41.66604 
L 52.257789 43.51596 
L 52.621053 43.43724 
L 52.984317 43.71276 
L 53.347581 44.59836 
L 53.710845 43.30932 
L 54.800636 44.88372 
L 55.1639 44.99688 
L 55.527164 44.57868 
L 55.890428 43.5996 
L 56.253692 43.51596 
L 56.616956 43.00428 
L 56.98022 43.2798 
L 57.343484 43.71768 
L 58.070012 44.0916 
L 58.433276 45.11004 
L 58.79654 43.55532 
L 59.159804 42.72876 
L 59.886332 44.27364 
L 60.61286 44.47536 
L 60.976124 44.25888 
L 61.339388 43.64388 
L 61.702652 43.84068 
L 62.065916 43.85052 
L 62.42918 44.36712 
L 62.792444 44.26872 
L 63.155708 44.74104 
L 63.518972 44.98704 
L 63.882236 44.84436 
L 64.2455 45.58728 
L 64.608764 46.0596 
L 64.972028 45.18384 
L 66.425084 45.47904 
L 66.788348 45.65616 
L 67.151612 45.98088 
L 67.87814 45.38556 
L 68.241404 45.31668 
L 68.604667 45.58728 
L 68.967931 45.35604 
L 69.331195 45.40032 
L 69.694459 45.11496 
L 70.057723 44.42124 
L 70.784251 44.18508 
L 71.510779 43.24044 
L 71.874043 43.8702 
L 72.237307 43.60944 
L 72.600571 43.92924 
L 72.963835 43.93416 
L 73.327099 43.46184 
L 73.690363 43.5012 
L 74.053627 42.72384 
L 74.416891 42.51228 
L 74.780155 43.08792 
L 75.143419 42.75828 
L 75.506683 42.90096 
L 76.233211 44.2392 
L 76.596475 45.23304 
L 76.959739 44.77548 
L 77.686267 45.04608 
L 78.049531 45.07068 
L 78.412795 46.1334 
L 78.776059 45.4446 
L 79.139323 45.06084 
L 79.502587 45.33144 
L 79.865851 46.30068 
L 80.229115 46.34496 
L 80.592379 47.89476 
L 80.955643 48.26376 
L 81.318907 47.96364 
L 82.277343 50.04972 
L 82.639052 49.24776 
L 84.098734 49.59708 
L 84.46069 49.80372 
L 84.823845 49.86768 
L 85.526836 49.24776 
L 85.913401 49.48392 
L 86.231034 49.37568 
L 86.639353 49.479 
L 87.002176 49.7004 
L 88.091774 49.49376 
L 88.456131 49.98576 
L 88.788707 49.96608 
L 89.181352 49.7004 
L 89.542997 49.27236 
L 89.905571 49.37076 
L 90.264555 49.68072 
L 90.636073 49.25268 
L 90.995586 49.51344 
L 92.08497 49.09032 
L 93.539683 49.58724 
L 93.900613 49.36092 
L 94.628428 49.45932 
L 94.99099 49.16904 
L 95.723984 49.27236 
L 96.088274 48.87384 
L 96.811215 48.70164 
L 97.17458 49.03128 
L 97.534308 49.1592 
L 97.895445 49.08048 
L 98.628258 49.36584 
L 99.378478 48.90828 
L 99.719106 49.05096 
L 100.442619 49.64628 
L 101.902486 49.59708 
L 102.260965 49.8726 
L 102.984798 49.80864 
L 104.078639 49.83816 
L 104.442492 49.50852 
L 104.80449 49.68564 
L 105.528807 49.48884 
L 106.263714 49.69056 
L 106.624665 49.40028 
L 106.987652 49.58724 
L 108.074269 49.19856 
L 108.442331 49.43472 
L 108.806494 49.50852 
L 110.618194 49.37568 
L 110.987108 49.4052 
L 111.354287 49.29204 
L 111.718312 49.5528 
L 112.080583 49.50852 
L 112.444457 49.64136 
L 113.165683 49.56264 
L 113.536322 49.57248 
L 113.89946 49.42488 
L 114.254723 49.49376 
L 114.987746 49.25268 
L 115.344964 49.24284 
L 115.709557 48.80004 
L 116.080141 48.85416 
L 116.804491 48.63276 
L 117.169483 48.66228 
L 117.532343 49.09524 
L 117.897398 48.99192 
L 118.624712 49.34616 
L 118.991504 49.47408 
L 119.716729 49.54788 
L 120.082061 49.3314 
L 120.442542 49.34616 
L 120.800815 49.51836 
L 121.537875 49.41504 
L 122.624732 49.7742 
L 123.716971 49.61676 
L 124.445299 49.7988 
L 125.174669 50.45808 
L 125.53195 50.59092 
L 125.88963 50.99928 
L 126.625572 50.74344 
L 126.981903 50.62536 
L 127.348934 50.80248 
L 128.805526 50.56632 
L 129.546202 50.23176 
L 129.897895 50.2416 
L 130.631238 50.55156 
L 131.724697 50.217 
L 132.793975 50.59092 
L 133.159102 50.59092 
L 133.517913 50.33016 
L 133.888102 50.4384 
L 134.253994 50.3892 
L 136.056708 49.6266 
L 136.42529 49.7742 
L 137.149889 49.76436 
L 137.877556 49.98084 
L 138.24 49.8972 
L 138.24 49.8972 
" clip-path="url(#pef847ad0ae)" style="fill: none; stroke: #bebebe; stroke-width: 0.6; stroke-linecap: round"/>
   </g>
   <g id="line2d_6">
    <path d="M 5.76 38.70912 
L 6.123264 37.46436 
L 6.486528 37.39056 
L 6.849792 37.50372 
L 7.57632 37.01172 
L 7.939584 36.16056 
L 8.302848 34.4976 
L 8.666112 33.69072 
L 9.39264 32.89368 
L 9.755904 31.73256 
L 10.119168 31.68336 
L 10.482432 31.8162 
L 10.845696 32.64276 
L 11.20896 32.0868 
L 11.935488 31.85064 
L 12.298752 30.98964 
L 12.662016 31.53576 
L 13.025279 31.521 
L 13.388543 31.38816 
L 13.751807 32.17044 
L 14.115071 33.68088 
L 14.478335 34.28604 
L 14.841599 33.58248 
L 15.204863 32.0376 
L 15.568127 32.76576 
L 15.931391 32.259 
L 16.294655 30.65508 
L 16.657919 29.93676 
L 17.021183 28.14588 
L 17.747711 28.40664 
L 18.110975 25.73508 
L 18.474239 24.62316 
L 18.837503 26.10408 
L 19.200767 26.97984 
L 19.564031 27.00936 
L 19.927295 26.58132 
L 20.290559 27.7818 
L 20.653823 29.49888 
L 21.017087 27.68832 
L 21.380351 28.44108 
L 21.743615 24.16068 
L 22.106879 24.55428 
L 22.470143 24.51984 
L 22.833407 27.32916 
L 23.196671 25.7646 
L 23.559935 26.48784 
L 23.923199 26.43372 
L 24.286463 27.44724 
L 25.012991 27.27504 
L 25.376255 27.8802 
L 25.739519 27.72276 
L 26.102783 26.84208 
L 26.466047 27.91956 
L 26.82931 27.8556 
L 27.192574 28.09668 
L 27.555838 27.87528 
L 28.282366 27.83592 
L 28.64563 27.57024 
L 29.008894 26.77812 
L 29.372158 25.01184 
L 30.098686 25.71048 
L 30.46195 26.31564 
L 30.825214 26.45832 
L 31.188478 25.8384 
L 31.551742 25.84824 
L 31.915006 26.6994 
L 32.27827 26.62068 
L 32.641534 26.8224 
L 33.004798 28.61328 
L 33.731326 28.97244 
L 34.09459 30.99456 
L 34.457854 29.76456 
L 34.821118 29.8974 
L 35.184382 29.02164 
L 35.547646 28.50012 
L 35.91091 29.00688 
L 36.637438 26.601 
L 37.000702 26.3796 
L 37.363966 26.5764 
L 37.72723 26.3796 
L 38.090494 25.1496 
L 38.453758 26.81256 
L 38.817022 26.29596 
L 39.180286 27.41772 
L 39.54355 31.19136 
L 39.906814 31.80144 
L 40.270078 28.89864 
L 40.633342 28.28364 
L 41.723133 30.80268 
L 42.086397 31.22088 
L 42.449661 30.8076 
L 42.812925 30.13356 
L 43.176189 30.17784 
L 43.902717 31.42752 
L 44.265981 31.04376 
L 44.629245 30.49764 
L 44.992509 30.3648 
L 45.355773 28.88388 
L 45.719037 29.15448 
L 46.082301 30.15324 
L 46.808829 31.4226 
L 47.535357 30.9306 
L 47.898621 30.66 
L 48.625149 34.99944 
L 48.988413 34.07448 
L 49.351677 34.9158 
L 49.714941 34.02528 
L 50.078205 34.26144 
L 50.441469 33.0216 
L 50.804733 33.10524 
L 51.167997 34.1532 
L 51.531261 34.2024 
L 52.257789 36.34752 
L 52.621053 35.89488 
L 53.347581 36.94776 
L 53.710845 36.2688 
L 54.074109 36.97236 
L 54.437373 38.286 
L 54.800636 38.76324 
L 55.1639 38.73864 
L 55.527164 38.51724 
L 55.890428 37.42992 
L 56.253692 37.42008 
L 56.616956 36.90348 
L 56.98022 36.98712 
L 57.343484 36.86412 
L 57.706748 37.16424 
L 58.070012 37.14948 
L 58.433276 38.52216 
L 59.159804 35.71776 
L 59.523068 36.15564 
L 59.886332 36.93792 
L 60.61286 36.72636 
L 60.976124 36.21468 
L 61.339388 34.8174 
L 61.702652 34.7928 
L 62.065916 35.42748 
L 62.42918 36.49512 
L 62.792444 36.28356 
L 63.155708 36.6378 
L 63.518972 37.3512 
L 63.882236 37.3512 
L 64.2455 38.31552 
L 64.608764 38.32536 
L 64.972028 37.26264 
L 65.335292 37.26264 
L 65.698556 37.09044 
L 66.06182 37.06092 
L 66.425084 37.34628 
L 66.788348 37.48404 
L 67.151612 37.77924 
L 67.87814 37.45944 
L 68.604667 37.56276 
L 68.967931 37.31184 
L 69.331195 37.33644 
L 69.694459 37.09536 
L 70.057723 36.23928 
L 70.784251 36.11628 
L 71.510779 35.0142 
L 71.874043 35.93424 
L 72.237307 36.36228 
L 72.600571 36.50988 
L 72.963835 36.5148 
L 73.327099 36.25404 
L 73.690363 36.46068 
L 74.053627 34.83708 
L 74.416891 34.57632 
L 75.143419 35.00436 
L 75.506683 34.93056 
L 75.869947 35.088 
L 76.233211 35.78664 
L 76.596475 37.55292 
L 76.959739 37.26756 
L 77.323003 37.46436 
L 78.049531 37.45944 
L 78.412795 38.41392 
L 79.139323 36.95268 
L 79.502587 37.05108 
L 79.865851 38.37948 
L 80.229115 39.20604 
L 80.592379 41.03136 
L 80.955643 42.26628 
L 81.318907 41.73492 
L 81.625583 42.23676 
L 82.277343 44.89356 
L 82.639052 43.6242 
L 83.370886 43.53072 
L 83.736222 43.72752 
L 84.46069 44.436 
L 84.823845 44.49012 
L 85.18274 43.81608 
L 85.526836 43.7226 
L 85.913401 44.5344 
L 86.231034 44.19 
L 86.639353 44.21952 
L 87.363316 44.51472 
L 88.091774 44.3868 
L 88.456131 45.174 
L 88.788707 45.23796 
L 89.181352 44.81484 
L 89.542997 43.821 
L 89.905571 44.01288 
L 90.264555 44.66232 
L 90.636073 43.93908 
L 90.995586 44.39664 
L 91.359695 44.12112 
L 91.720924 44.33268 
L 92.08497 43.3044 
L 92.448062 43.6242 
L 92.808538 44.29824 
L 93.17533 44.53932 
L 93.539683 44.30808 
L 93.900613 43.8702 
L 94.263734 44.00304 
L 94.628428 43.97844 
L 94.99099 43.41756 
L 95.723984 43.48644 
L 96.445181 41.73984 
L 96.811215 41.7546 
L 97.534308 43.14204 
L 97.895445 43.083 
L 98.264141 43.35852 
L 98.628258 43.78164 
L 98.988159 43.21584 
L 99.378478 42.9354 
L 99.719106 43.10268 
L 100.442619 44.25396 
L 101.536107 43.74228 
L 101.902486 43.46676 
L 102.624646 43.79148 
L 103.353532 43.77672 
L 103.717734 43.2552 
L 104.078639 43.40772 
L 104.442492 42.49752 
L 104.80449 42.90588 
L 105.171097 42.8616 
L 105.528807 42.41388 
L 106.263714 42.79764 
L 106.624665 41.57256 
L 106.987652 41.86284 
L 107.352488 41.63652 
L 107.715012 41.85792 
L 108.074269 41.22324 
L 108.806494 42.1482 
L 109.168165 41.96616 
L 109.530302 41.59224 
L 110.259264 41.99076 
L 110.618194 41.91696 
L 110.987108 41.98584 
L 111.354287 41.41512 
L 111.718312 42.15312 
L 112.080583 41.96124 
L 112.444457 42.43848 
L 113.165683 42.02028 
L 113.536322 42.0252 
L 113.89946 41.40528 
L 114.624386 41.52336 
L 115.344964 42.1974 
L 115.709557 41.8776 
L 116.446272 41.8038 
L 116.804491 41.976 
L 117.169483 42.00552 
L 117.532343 42.3942 
L 117.897398 42.27612 
L 118.991504 43.31424 
L 119.352165 43.2306 
L 119.716729 43.39296 
L 120.082061 43.16172 
L 120.442542 43.24536 
L 120.800815 43.71768 
L 121.169831 43.33392 
L 122.262629 43.67832 
L 122.624732 44.32776 
L 122.988265 44.13588 
L 123.346291 44.16048 
L 123.716971 43.96368 
L 124.085608 44.2392 
L 124.445299 44.19984 
L 124.812649 45.16908 
L 125.53195 46.00548 
L 125.88963 47.57004 
L 126.625572 46.64016 
L 126.981903 46.34496 
L 127.348934 46.82712 
L 128.079019 46.51716 
L 128.439626 46.5516 
L 128.805526 46.46304 
L 129.897895 45.6414 
L 130.259418 46.09404 
L 130.631238 46.3302 
L 131.724697 46.035 
L 132.066245 46.14324 
L 133.159102 47.38308 
L 133.517913 47.14692 
L 134.253994 47.22072 
L 135.335696 46.79268 
L 136.056708 45.92184 
L 136.792074 45.75456 
L 137.877556 46.02024 
L 138.24 45.77424 
L 138.24 45.77424 
" clip-path="url(#pef847ad0ae)" style="fill: none; stroke: #4a8dff; stroke-width: 0.6; stroke-linecap: round"/>
   </g>
   <g id="line2d_7">
    <path d="M 5.76 30.56652 
L 6.123264 28.31808 
L 6.486528 27.48168 
L 6.849792 27.55548 
L 7.213056 26.71908 
L 7.57632 26.36484 
L 7.939584 27.42756 
L 8.666112 26.55672 
L 9.029376 27.27504 
L 9.39264 27.31932 
L 9.755904 27.63912 
L 10.119168 27.52596 
L 10.482432 26.3058 
L 10.845696 26.96016 
L 11.20896 27.09792 
L 11.572224 27.49644 
L 11.935488 27.2898 
L 12.298752 26.57148 
L 12.662016 27.27012 
L 13.388543 27.35376 
L 14.115071 29.62188 
L 14.478335 29.96136 
L 14.841599 29.14956 
L 15.204863 28.68216 
L 15.568127 29.184 
L 15.931391 28.7412 
L 16.294655 27.5358 
L 16.657919 27.91956 
L 17.021183 28.00812 
L 17.384447 26.64528 
L 17.747711 26.88636 
L 18.110975 26.1828 
L 18.474239 24.52476 
L 18.837503 27.0684 
L 19.200767 27.59484 
L 19.927295 27.49644 
L 20.290559 28.13112 
L 20.653823 29.8482 
L 21.017087 29.12004 
L 21.380351 30.03024 
L 21.743615 27.84576 
L 22.470143 29.54316 
L 22.833407 31.13232 
L 23.196671 30.31068 
L 23.559935 30.62064 
L 23.923199 29.97612 
L 24.286463 31.97364 
L 24.649727 31.82112 
L 25.012991 32.0868 
L 25.376255 31.63416 
L 25.739519 30.6354 
L 26.102783 30.37464 
L 26.466047 30.86172 
L 26.82931 30.89616 
L 27.192574 31.11756 
L 27.919102 30.22212 
L 28.282366 30.45828 
L 28.64563 29.2578 
L 29.008894 28.50504 
L 29.372158 28.18032 
L 29.735422 28.2738 
L 30.098686 28.569 
L 30.46195 28.55424 
L 30.825214 27.8802 
L 31.188478 28.03272 
L 31.551742 27.69324 
L 31.915006 28.42632 
L 32.27827 28.3968 
L 32.641534 28.60344 
L 33.004798 29.88756 
L 33.368062 30.22212 
L 33.731326 29.58252 
L 34.09459 31.73256 
L 34.457854 31.36356 
L 34.821118 31.39308 
L 35.547646 29.09544 
L 35.91091 29.2332 
L 36.274174 27.02412 
L 37.000702 25.16928 
L 37.363966 25.10532 
L 38.090494 23.92452 
L 38.453758 25.53336 
L 38.817022 24.62808 
L 39.180286 25.4448 
L 39.54355 29.64156 
L 39.906814 30.80268 
L 40.270078 28.65756 
L 40.633342 28.6428 
L 41.359869 30.87156 
L 41.723133 32.17044 
L 42.086397 32.97732 
L 42.449661 32.628 
L 42.812925 31.90476 
L 43.176189 30.92076 
L 43.539453 31.96872 
L 43.902717 32.39676 
L 44.265981 31.19628 
L 44.992509 30.42384 
L 45.355773 29.0118 
L 45.719037 29.15448 
L 46.082301 29.76456 
L 46.445565 31.2012 
L 46.808829 32.09172 
L 47.172093 31.43244 
L 47.898621 30.90108 
L 48.625149 35.35368 
L 48.988413 34.24668 
L 49.351677 35.5062 
L 49.714941 34.48284 
L 50.078205 35.02896 
L 50.441469 33.8334 
L 50.804733 33.243 
L 51.167997 34.69932 
L 51.894525 36.2934 
L 52.257789 38.901 
L 52.621053 38.37948 
L 52.984317 38.92068 
L 53.347581 40.09164 
L 53.710845 39.70788 
L 54.074109 40.4262 
L 54.437373 42.75336 
L 54.800636 43.54548 
L 55.1639 43.72752 
L 55.890428 41.976 
L 56.253692 42.42864 
L 56.616956 40.86408 
L 56.98022 40.47048 
L 58.070012 40.89852 
L 58.433276 42.9354 
L 58.79654 40.43604 
L 59.159804 39.31428 
L 59.523068 40.04244 
L 59.886332 41.43972 
L 60.249596 41.47416 
L 60.61286 41.02152 
L 60.976124 40.7952 
L 61.339388 39.75708 
L 61.702652 40.11132 
L 62.065916 39.87024 
L 62.42918 40.94772 
L 62.792444 40.97232 
L 63.518972 42.87144 
L 63.882236 42.17772 
L 64.2455 43.04364 
L 64.608764 43.34868 
L 64.972028 42.03504 
L 65.698556 41.8038 
L 66.06182 41.84316 
L 66.425084 42.37944 
L 66.788348 42.26628 
L 67.151612 42.468 
L 67.514876 42.42864 
L 67.87814 42.18264 
L 68.241404 42.1728 
L 68.604667 42.50244 
L 68.967931 41.88252 
L 69.331195 42.32532 
L 70.057723 41.13468 
L 70.784251 40.42128 
L 71.147515 39.16176 
L 71.510779 39.28968 
L 71.874043 40.48032 
L 72.963835 40.88376 
L 73.690363 40.53936 
L 74.053627 38.50248 
L 74.416891 37.63656 
L 74.780155 38.34012 
L 75.143419 38.37456 
L 75.506683 38.5812 
L 76.233211 39.8358 
L 76.596475 41.93172 
L 76.959739 41.42004 
L 77.686267 41.39052 
L 78.049531 41.5086 
L 78.412795 42.80256 
L 78.776059 41.93664 
L 79.139323 41.49384 
L 79.502587 41.51352 
L 79.865851 43.78164 
L 80.229115 43.9932 
L 80.592379 46.66968 
L 80.955643 47.55036 
L 81.318907 46.64508 
L 81.914264 48.89352 
L 82.277343 49.84308 
L 82.639052 49.00176 
L 83.010619 49.233 
L 83.370886 48.97716 
L 84.098734 49.36092 
L 84.823845 49.58724 
L 85.18274 49.28712 
L 85.526836 49.16904 
L 85.913401 49.39044 
L 86.231034 49.29696 
L 87.002176 49.55772 
L 88.091774 49.41996 
L 88.456131 49.8234 
L 88.788707 49.86768 
L 89.181352 49.72992 
L 89.542997 49.39536 
L 90.264555 49.6758 
L 90.636073 49.47408 
L 90.995586 49.60692 
L 91.359695 49.37568 
L 91.720924 49.36584 
L 92.08497 48.6672 
L 93.17533 49.54788 
L 93.539683 49.5282 
L 93.900613 49.09032 
L 94.628428 49.2084 
L 94.99099 48.93288 
L 95.723984 48.89844 
L 96.445181 48.1998 
L 96.811215 48.28344 
L 97.17458 48.88368 
L 97.534308 49.04604 
L 97.895445 49.00176 
L 98.628258 49.38552 
L 98.988159 49.04112 
L 99.378478 48.92796 
L 99.719106 48.987 
L 100.442619 49.66104 
L 101.902486 49.40028 
L 102.260965 49.56756 
L 102.984798 49.56264 
L 103.353532 49.53312 
L 103.717734 49.25268 
L 104.078639 49.29696 
L 104.442492 48.89352 
L 104.80449 48.96732 
L 105.528807 48.5934 
L 105.898587 48.84432 
L 106.263714 48.95748 
L 106.624665 48.30804 
L 106.987652 48.34248 
L 107.352488 48.21456 
L 107.715012 48.26376 
L 108.074269 47.41752 
L 108.442331 48.05712 
L 108.806494 48.26376 
L 109.168165 48.01776 
L 109.530302 47.23548 
L 110.618194 47.1666 
L 110.987108 47.31912 
L 111.354287 46.49256 
L 111.718312 47.64876 
L 112.080583 47.5356 
L 112.444457 48.0276 
L 113.165683 46.81728 
L 113.536322 46.92552 
L 113.89946 45.85788 
L 114.624386 45.29208 
L 114.987746 45.58728 
L 115.344964 46.2564 
L 115.709557 45.7152 
L 117.169483 45.42492 
L 117.532343 46.38432 
L 117.897398 45.57744 
L 118.256025 46.51716 
L 118.991504 47.54544 
L 119.716729 47.66844 
L 120.082061 47.05344 
L 120.442542 47.22564 
L 120.800815 48.07188 
L 121.537875 47.37324 
L 122.262629 48.07188 
L 122.624732 48.59832 
L 122.988265 48.52452 
L 123.346291 48.5688 
L 123.716971 48.38676 
L 124.085608 48.55404 
L 125.174669 49.93656 
L 125.53195 49.98084 
L 125.88963 50.3646 
L 126.625572 50.07432 
L 126.981903 49.99068 
L 127.348934 50.217 
L 128.079019 49.98084 
L 128.805526 49.87752 
L 129.180865 49.69548 
L 129.897895 49.7004 
L 130.631238 50.06448 
L 131.3508 49.89228 
L 132.066245 49.9464 
L 133.517913 50.31048 
L 134.978793 50.41872 
L 136.056708 50.0694 
L 137.50328 50.05956 
L 137.877556 50.11368 
L 138.24 49.91196 
L 138.24 49.91196 
" clip-path="url(#pef847ad0ae)" style="fill: none; stroke: #f5841e; stroke-width: 0.7; stroke-linecap: round"/>
   </g>
  </g>
 </g>
 <defs>
  <clipPath id="pef847ad0ae">
   <rect x="5.76" y="3.6" width="132.48" height="49.2"/>
  </clipPath>
 </defs>
</svg>
