<?xml version="1.0" encoding="utf-8" standalone="no"?>
<!DOCTYPE svg PUBLIC "-//W3C//DTD SVG 1.1//EN"
  "http://www.w3.org/Graphics/SVG/1.1/DTD/svg11.dtd">
<svg xmlns:xlink="http://www.w3.org/1999/xlink" width="144pt" height="60pt" viewBox="0 0 144 60" xmlns="http://www.w3.org/2000/svg" version="1.1">
  <desc id="nav-meta">{"window":"1m","count":4,"labels":["26.03","05.04","14.04","24.04"],"tick_utc":["2026-03-26T03:39:29Z","2026-04-05T03:46:34Z","2026-04-14T03:53:32Z","2026-04-24T04:01:18Z"]}</desc>

 <metadata>
  <rdf:RDF xmlns:dc="http://purl.org/dc/elements/1.1/" xmlns:cc="http://creativecommons.org/ns#" xmlns:rdf="http://www.w3.org/1999/02/22-rdf-syntax-ns#">
   <cc:Work>
    <dc:type rdf:resource="http://purl.org/dc/dcmitype/StillImage"/>
    <dc:date>2026-04-24T14:17:06.341460</dc:date>
    <dc:format>image/svg+xml</dc:format>
    <dc:creator>
     <cc:Agent>
      <dc:title>Matplotlib v3.10.9, https://matplotlib.org/</dc:title>
     </cc:Agent>
    </dc:creator>
   </cc:Work>
  </rdf:RDF>
 </metadata>
 <defs>
  <style type="text/css">*{stroke-linejoin: round; stroke-linecap: butt}</style>
 </defs>
 <g id="figure_1">
  <g id="patch_1">
   <path d="M 0 60 
L 144 60 
L 144 0 
L 0 0 
L 0 60 
z
" style="fill: none; opacity: 0"/>
  </g>
  <g id="axes_1">
   <g id="patch_2">
    <path d="M 5.76 52.8 
L 138.24 52.8 
L 138.24 3.6 
L 5.76 3.6 
L 5.76 52.8 
z
" style="fill: none"/>
   </g>
   <g id="matplotlib.axis_1"/>
   <g id="matplotlib.axis_2"/>
   <g id="line2d_1">
    <path d="M 5.76 42.96 
L 138.24 42.96 
" clip-path="url(#p8e245c1fc6)" style="fill: none; stroke: #b2b2b2; stroke-opacity: 0.35; stroke-width: 0.5; stroke-linecap: square"/>
   </g>
   <g id="line2d_2">
    <path d="M 5.76 33.12 
L 138.24 33.12 
" clip-path="url(#p8e245c1fc6)" style="fill: none; stroke: #b2b2b2; stroke-opacity: 0.35; stroke-width: 0.5; stroke-linecap: square"/>
   </g>
   <g id="line2d_3">
    <path d="M 5.76 23.28 
L 138.24 23.28 
" clip-path="url(#p8e245c1fc6)" style="fill: none; stroke: #b2b2b2; stroke-opacity: 0.35; stroke-width: 0.5; stroke-linecap: square"/>
   </g>
   <g id="line2d_4">
    <path d="M 5.76 13.44 
L 138.24 13.44 
" clip-path="url(#p8e245c1fc6)" style="fill: none; stroke: #b2b2b2; stroke-opacity: 0.35; stroke-width: 0.5; stroke-linecap: square"/>
   </g>
   <g id="line2d_5">
    <path d="M 5.76 49.05096 
L 10.331651 49.37076 
L 14.85389 49.64628 
L 19.481981 49.6266 
L 24.060924 49.602 
L 28.598014 49.59708 
L 33.203063 49.59708 
L 37.708815 49.8726 
L 42.279937 49.88244 
L 46.806721 49.80864 
L 51.441365 49.78896 
L 56.01904 49.69056 
L 60.555284 49.83816 
L 65.128573 49.50852 
L 69.678556 49.68564 
L 74.28646 49.6266 
L 78.782541 49.48884 
L 83.430342 49.6512 
L 88.019644 49.69056 
L 92.556469 49.40028 
L 97.118871 49.58724 
L 101.704526 49.45932 
L 106.261116 49.27728 
L 110.776644 49.19856 
L 115.402832 49.43472 
L 119.980032 49.50852 
L 124.525893 49.46424 
L 129.077621 49.31664 
L 133.662008 49.4298 
L 138.24 49.42488 
" clip-path="url(#p8e245c1fc6)" style="fill: none; stroke: #bebebe; stroke-width: 0.6; stroke-linecap: round"/>
   </g>
   <g id="line2d_6">
    <path d="M 5.76 43.10268 
L 10.331651 43.72752 
L 14.85389 44.25396 
L 19.481981 44.10636 
L 24.060924 43.9194 
L 28.598014 43.74228 
L 33.203063 43.46676 
L 37.708815 43.65372 
L 42.279937 43.79148 
L 46.806721 43.81116 
L 51.441365 43.77672 
L 56.01904 43.2552 
L 60.555284 43.40772 
L 65.128573 42.49752 
L 69.678556 42.90588 
L 74.28646 42.8616 
L 78.782541 42.41388 
L 83.430342 42.63036 
L 88.019644 42.79764 
L 92.556469 41.57256 
L 97.118871 41.86284 
L 101.704526 41.63652 
L 106.261116 41.85792 
L 110.776644 41.22324 
L 115.402832 41.76936 
L 119.980032 42.1482 
L 124.525893 41.96616 
L 129.077621 41.59224 
L 133.662008 41.76936 
L 138.24 41.99076 
" clip-path="url(#p8e245c1fc6)" style="fill: none; stroke: #4a8dff; stroke-width: 0.6; stroke-linecap: round"/>
   </g>
   <g id="line2d_7">
    <path d="M 5.76 48.987 
L 10.331651 49.29204 
L 14.85389 49.66104 
L 19.481981 49.56756 
L 24.060924 49.53312 
L 28.598014 49.46424 
L 33.203063 49.40028 
L 37.708815 49.56756 
L 42.279937 49.59708 
L 46.806721 49.56264 
L 51.441365 49.53312 
L 56.01904 49.25268 
L 60.555284 49.29696 
L 65.128573 48.89352 
L 69.678556 48.96732 
L 74.28646 48.8148 
L 78.782541 48.5934 
L 83.430342 48.84432 
L 88.019644 48.95748 
L 92.556469 48.30804 
L 97.118871 48.34248 
L 101.704526 48.21456 
L 106.261116 48.26376 
L 110.776644 47.41752 
L 115.402832 48.05712 
L 119.980032 48.26376 
L 124.525893 48.01776 
L 129.077621 47.23548 
L 133.662008 47.17644 
L 138.24 47.15676 
" clip-path="url(#p8e245c1fc6)" style="fill: none; stroke: #f5841e; stroke-width: 0.7; stroke-linecap: round"/>
   </g>
  </g>
 </g>
 <defs>
  <clipPath id="p8e245c1fc6">
   <rect x="5.76" y="3.6" width="132.48" height="49.2"/>
  </clipPath>
 </defs>
</svg>
