<?xml version="1.0" encoding="utf-8" standalone="no"?>
<!DOCTYPE svg PUBLIC "-//W3C//DTD SVG 1.1//EN"
  "http://www.w3.org/Graphics/SVG/1.1/DTD/svg11.dtd">
<svg xmlns:xlink="http://www.w3.org/1999/xlink" width="144pt" height="60pt" viewBox="0 0 144 60" xmlns="http://www.w3.org/2000/svg" version="1.1">
  <desc id="nav-meta">{"window":"1y","count":4,"labels":["29.04","28.08","27.12","28.04"],"tick_utc":["2025-04-29T12:00:00Z","2025-08-28T12:00:00Z","2025-12-27T12:00:00Z","2026-04-28T04:25:03Z"]}</desc>

 <metadata>
  <rdf:RDF xmlns:dc="http://purl.org/dc/elements/1.1/" xmlns:cc="http://creativecommons.org/ns#" xmlns:rdf="http://www.w3.org/1999/02/22-rdf-syntax-ns#">
   <cc:Work>
    <dc:type rdf:resource="http://purl.org/dc/dcmitype/StillImage"/>
    <dc:date>2026-04-28T15:09:32.904465</dc:date>
    <dc:format>image/svg+xml</dc:format>
    <dc:creator>
     <cc:Agent>
      <dc:title>Matplotlib v3.10.9, https://matplotlib.org/</dc:title>
     </cc:Agent>
    </dc:creator>
   </cc:Work>
  </rdf:RDF>
 </metadata>
 <defs>
  <style type="text/css">*{stroke-linejoin: round; stroke-linecap: butt}</style>
 </defs>
 <g id="figure_1">
  <g id="patch_1">
   <path d="M 0 60 
L 144 60 
L 144 0 
L 0 0 
L 0 60 
z
" style="fill: none; opacity: 0"/>
  </g>
  <g id="axes_1">
   <g id="patch_2">
    <path d="M 5.76 52.8 
L 138.24 52.8 
L 138.24 3.6 
L 5.76 3.6 
L 5.76 52.8 
z
" style="fill: none"/>
   </g>
   <g id="matplotlib.axis_1"/>
   <g id="matplotlib.axis_2"/>
   <g id="line2d_1">
    <path d="M 5.76 42.96 
L 138.24 42.96 
" clip-path="url(#p01f58a3984)" style="fill: none; stroke: #b2b2b2; stroke-opacity: 0.35; stroke-width: 0.5; stroke-linecap: square"/>
   </g>
   <g id="line2d_2">
    <path d="M 5.76 33.12 
L 138.24 33.12 
" clip-path="url(#p01f58a3984)" style="fill: none; stroke: #b2b2b2; stroke-opacity: 0.35; stroke-width: 0.5; stroke-linecap: square"/>
   </g>
   <g id="line2d_3">
    <path d="M 5.76 23.28 
L 138.24 23.28 
" clip-path="url(#p01f58a3984)" style="fill: none; stroke: #b2b2b2; stroke-opacity: 0.35; stroke-width: 0.5; stroke-linecap: square"/>
   </g>
   <g id="line2d_4">
    <path d="M 5.76 13.44 
L 138.24 13.44 
" clip-path="url(#p01f58a3984)" style="fill: none; stroke: #b2b2b2; stroke-opacity: 0.35; stroke-width: 0.5; stroke-linecap: square"/>
   </g>
   <g id="line2d_5">
    <path d="M 5.76 42.345 
L 6.124272 42.5418 
L 6.488544 42.37944 
L 6.852817 41.98584 
L 7.217089 42.345 
L 7.581361 42.49752 
L 7.945633 42.86652 
L 8.309906 42.49752 
L 9.03845 42.44832 
L 9.402722 40.33272 
L 9.766994 39.12732 
L 10.131267 38.52216 
L 10.495539 39.10272 
L 10.859811 38.901 
L 11.224083 37.6464 
L 11.952628 39.639 
L 12.681172 40.008 
L 13.045444 39.27492 
L 13.409717 39.90468 
L 13.773989 39.6882 
L 14.502533 38.22696 
L 14.866805 38.901 
L 15.231078 38.69436 
L 15.959622 38.86164 
L 16.323894 38.62056 
L 17.052439 39.88992 
L 17.416711 41.23308 
L 18.509528 41.17404 
L 19.238072 41.62176 
L 19.602344 42.79272 
L 19.966616 42.30564 
L 20.695161 41.7546 
L 21.059433 40.62792 
L 21.423705 40.131 
L 21.787978 40.6476 
L 22.15225 41.73492 
L 22.880794 42.76812 
L 23.245066 41.73492 
L 23.609339 41.89728 
L 23.973611 42.345 
L 24.337883 42.5664 
L 24.702155 42.46308 
L 25.4307 44.20476 
L 25.794972 44.45076 
L 26.159244 42.7632 
L 26.523516 42.63036 
L 26.887789 42.94524 
L 27.252061 43.52088 
L 27.616333 43.1076 
L 27.980605 41.98092 
L 28.70915 41.43972 
L 29.073422 42.4926 
L 29.437694 41.79888 
L 29.801966 41.78412 
L 30.166239 42.37452 
L 30.530511 42.3942 
L 30.894783 41.83332 
L 31.259055 42.24168 
L 31.623327 41.84316 
L 32.351872 40.2786 
L 32.716144 40.42128 
L 33.080416 40.71648 
L 33.808961 40.48032 
L 34.173233 40.26384 
L 34.537505 38.97972 
L 35.26605 38.51724 
L 35.630322 38.57628 
L 35.994594 38.04492 
L 36.358866 36.03264 
L 36.723139 34.88136 
L 37.087411 36.92316 
L 37.451683 37.8432 
L 37.815955 37.37088 
L 38.180227 37.53324 
L 38.5445 37.056 
L 38.908772 37.77924 
L 39.273044 38.02032 
L 39.637316 38.45328 
L 40.001588 39.1962 
L 40.365861 40.41636 
L 40.730133 40.97232 
L 41.094405 40.53444 
L 41.458677 39.55536 
L 41.82295 40.24908 
L 42.187222 39.7128 
L 42.551494 38.778 
L 42.915766 38.59104 
L 43.644311 37.794 
L 44.008583 38.82228 
L 44.372855 36.53448 
L 44.737127 35.334 
L 45.465672 37.44468 
L 45.829944 36.90348 
L 46.194216 36.65748 
L 46.922761 38.64516 
L 47.287033 37.2282 
L 47.651305 38.14332 
L 48.015577 35.53572 
L 48.379849 35.04372 
L 48.744122 34.80264 
L 49.108394 37.23804 
L 50.201211 33.67104 
L 50.565483 34.90596 
L 51.658299 35.9736 
L 52.022572 34.36476 
L 52.386844 34.1778 
L 52.751116 35.22084 
L 53.115388 35.11752 
L 53.479661 35.54556 
L 54.936749 32.44104 
L 55.301022 31.83096 
L 55.665294 30.06468 
L 56.029566 30.01056 
L 56.393838 30.291 
L 56.75811 31.16184 
L 57.122383 30.74856 
L 57.486655 29.71536 
L 57.850927 29.37588 
L 58.215199 30.57636 
L 58.579472 30.42876 
L 58.943744 30.79284 
L 59.308016 32.91828 
L 59.672288 33.72024 
L 60.03656 34.05972 
L 60.400833 36.5886 
L 60.765105 34.90104 
L 61.129377 35.10276 
L 61.493649 34.16796 
L 61.857922 33.8826 
L 62.222194 34.43364 
L 62.950738 31.05852 
L 63.31501 31.26024 
L 63.679283 31.92936 
L 64.043555 31.85064 
L 64.407827 31.3242 
L 64.772099 32.84448 
L 65.136371 31.78176 
L 65.500644 32.85924 
L 65.864916 36.8838 
L 66.229188 38.39424 
L 66.59346 35.95392 
L 66.957733 34.53696 
L 67.322005 35.20608 
L 68.050549 37.57752 
L 68.414821 37.90716 
L 68.779094 37.18884 
L 69.143366 37.18392 
L 69.507638 36.89364 
L 69.87191 37.42008 
L 70.236183 38.17284 
L 70.600455 36.687 
L 70.964727 36.42132 
L 71.328999 36.34752 
L 71.693271 35.56032 
L 72.057544 35.72268 
L 72.421816 36.29832 
L 72.786088 36.32292 
L 73.15036 37.61688 
L 73.514632 37.2282 
L 73.878905 37.34628 
L 74.243177 37.23804 
L 74.607449 40.008 
L 74.971721 41.36592 
L 75.335994 40.43604 
L 75.700266 41.44956 
L 76.064538 40.53444 
L 76.42881 41.02152 
L 76.793082 40.22448 
L 77.157355 39.79644 
L 77.521627 41.51844 
L 77.885899 41.66604 
L 78.614444 43.51596 
L 78.978716 43.43724 
L 79.342988 43.71276 
L 79.70726 44.59836 
L 80.071532 43.30932 
L 81.164349 44.88372 
L 81.528621 44.99688 
L 81.892894 44.57868 
L 82.257166 43.5996 
L 82.621438 43.51596 
L 82.98571 43.00428 
L 83.349982 43.2798 
L 83.714255 43.71768 
L 84.442799 44.0916 
L 84.807071 45.11004 
L 85.171343 43.55532 
L 85.535616 42.72876 
L 86.26416 44.27364 
L 86.992705 44.47536 
L 87.356977 44.25888 
L 87.721249 43.64388 
L 88.085521 43.84068 
L 88.449793 43.85052 
L 88.814066 44.36712 
L 89.178338 44.26872 
L 89.54261 44.74104 
L 89.906882 44.98704 
L 90.271155 44.84436 
L 90.635427 45.58728 
L 90.999699 46.0596 
L 91.363971 45.18384 
L 92.82106 45.47904 
L 93.185332 45.65616 
L 93.549604 45.98088 
L 94.278149 45.38556 
L 94.642421 45.31668 
L 95.006693 45.58728 
L 95.370966 45.35604 
L 95.735238 45.40032 
L 96.09951 45.11496 
L 96.463782 44.42124 
L 97.192327 44.18508 
L 97.920871 43.24044 
L 98.285143 43.8702 
L 98.649416 43.60944 
L 99.013688 43.92924 
L 99.37796 43.93416 
L 99.742232 43.46184 
L 100.106504 43.5012 
L 100.470777 42.72384 
L 100.835049 42.51228 
L 101.199321 43.08792 
L 101.563593 42.75828 
L 101.927865 42.90096 
L 102.65641 44.2392 
L 103.020682 45.23304 
L 103.384954 44.77548 
L 104.113499 45.04608 
L 104.477771 45.07068 
L 104.842043 46.1334 
L 105.206315 45.4446 
L 105.570588 45.06084 
L 105.93486 45.33144 
L 106.299132 46.30068 
L 106.663404 46.34496 
L 107.027677 47.89476 
L 107.391949 48.26376 
L 107.756221 47.96364 
L 108.717318 50.04972 
L 109.08003 49.24776 
L 110.543764 49.59708 
L 110.906725 49.80372 
L 111.270887 49.86768 
L 111.97583 49.24776 
L 112.363468 49.48392 
L 112.681982 49.37568 
L 113.091435 49.479 
L 113.455264 49.7004 
L 114.547887 49.49376 
L 114.913255 49.98576 
L 115.246754 49.96608 
L 115.640488 49.7004 
L 116.003137 49.27236 
L 116.366718 49.37076 
L 116.726698 49.68072 
L 117.099247 49.25268 
L 117.459758 49.51344 
L 118.552166 49.09032 
L 120.010916 49.58724 
L 120.372848 49.36092 
L 121.102683 49.45932 
L 121.466251 49.16904 
L 122.20128 49.27236 
L 122.566581 48.87384 
L 123.291529 48.70164 
L 123.655902 49.03128 
L 124.016629 49.1592 
L 124.378768 49.08048 
L 125.113615 49.36584 
L 125.865917 48.90828 
L 126.20749 49.05096 
L 126.933011 49.64628 
L 128.39693 49.59708 
L 128.756405 49.8726 
L 129.482247 49.80864 
L 130.579123 49.83816 
L 130.943986 49.50852 
L 131.306989 49.68564 
L 132.033316 49.48884 
L 132.770263 49.69056 
L 133.132216 49.40028 
L 133.49621 49.58724 
L 134.585844 49.19856 
L 134.954927 49.43472 
L 135.320101 49.50852 
L 137.136829 49.37568 
L 137.506767 49.4052 
L 137.874965 49.29204 
L 138.24 49.5528 
L 138.24 49.5528 
" clip-path="url(#p01f58a3984)" style="fill: none; stroke: #bebebe; stroke-width: 0.6; stroke-linecap: round"/>
   </g>
   <g id="line2d_6">
    <path d="M 5.76 45.5922 
L 6.488544 45.63156 
L 6.852817 45.31176 
L 7.581361 45.3462 
L 7.945633 45.52824 
L 8.674178 45.47412 
L 9.03845 45.51348 
L 9.402722 42.77796 
L 9.766994 41.75952 
L 10.131267 40.04244 
L 10.495539 40.58364 
L 10.859811 40.69188 
L 11.224083 39.38808 
L 11.952628 40.33764 
L 12.3169 40.32288 
L 12.681172 40.81488 
L 13.045444 40.88376 
L 13.409717 40.44588 
L 13.773989 40.46556 
L 14.138261 40.21956 
L 14.502533 39.52584 
L 14.866805 40.49508 
L 15.959622 40.19496 
L 16.323894 39.4914 
L 16.688167 39.38808 
L 17.052439 39.69312 
L 17.416711 40.46556 
L 18.145255 40.36716 
L 18.509528 39.8604 
L 18.8738 39.96372 
L 19.238072 39.85548 
L 19.602344 41.1888 
L 20.330889 40.4508 
L 20.695161 40.5738 
L 21.423705 38.45328 
L 21.787978 38.68452 
L 22.15225 39.55536 
L 22.516522 40.09164 
L 22.880794 40.39668 
L 23.609339 40.2048 
L 23.973611 40.52952 
L 24.702155 40.48032 
L 25.4307 42.26136 
L 25.794972 42.5664 
L 26.159244 41.17404 
L 26.523516 41.0166 
L 26.887789 41.22324 
L 27.616333 41.17896 
L 27.980605 41.08056 
L 28.344877 40.61808 
L 28.70915 40.7214 
L 29.073422 41.30688 
L 29.437694 40.11132 
L 29.801966 39.99816 
L 30.166239 40.56888 
L 30.530511 40.51476 
L 30.894783 40.131 
L 31.259055 40.3278 
L 31.623327 39.81612 
L 32.351872 37.46436 
L 32.716144 37.39056 
L 33.080416 37.50372 
L 33.808961 37.01172 
L 34.173233 36.16056 
L 34.537505 34.4976 
L 34.901777 33.69072 
L 35.630322 32.89368 
L 35.994594 31.73256 
L 36.358866 31.68336 
L 36.723139 31.8162 
L 37.087411 32.64276 
L 37.451683 32.0868 
L 38.180227 31.85064 
L 38.5445 30.98964 
L 38.908772 31.53576 
L 39.273044 31.521 
L 39.637316 31.38816 
L 40.001588 32.17044 
L 40.365861 33.68088 
L 40.730133 34.28604 
L 41.094405 33.58248 
L 41.458677 32.0376 
L 41.82295 32.76576 
L 42.187222 32.259 
L 42.551494 30.65508 
L 42.915766 29.93676 
L 43.280038 28.14588 
L 44.008583 28.40664 
L 44.372855 25.73508 
L 44.737127 24.62316 
L 45.1014 26.10408 
L 45.465672 26.97984 
L 45.829944 27.00936 
L 46.194216 26.58132 
L 46.558488 27.7818 
L 46.922761 29.49888 
L 47.287033 27.68832 
L 47.651305 28.44108 
L 48.015577 24.16068 
L 48.379849 24.55428 
L 48.744122 24.51984 
L 49.108394 27.32916 
L 49.472666 25.7646 
L 49.836938 26.48784 
L 50.201211 26.43372 
L 50.565483 27.44724 
L 51.294027 27.27504 
L 51.658299 27.8802 
L 52.022572 27.72276 
L 52.386844 26.84208 
L 52.751116 27.91956 
L 53.115388 27.8556 
L 53.479661 28.09668 
L 53.843933 27.87528 
L 54.572477 27.83592 
L 54.936749 27.57024 
L 55.301022 26.77812 
L 55.665294 25.01184 
L 56.393838 25.71048 
L 56.75811 26.31564 
L 57.122383 26.45832 
L 57.486655 25.8384 
L 57.850927 25.84824 
L 58.215199 26.6994 
L 58.579472 26.62068 
L 58.943744 26.8224 
L 59.308016 28.61328 
L 60.03656 28.97244 
L 60.400833 30.99456 
L 60.765105 29.76456 
L 61.129377 29.8974 
L 61.493649 29.02164 
L 61.857922 28.50012 
L 62.222194 29.00688 
L 62.950738 26.601 
L 63.31501 26.3796 
L 63.679283 26.5764 
L 64.043555 26.3796 
L 64.407827 25.1496 
L 64.772099 26.81256 
L 65.136371 26.29596 
L 65.500644 27.41772 
L 65.864916 31.19136 
L 66.229188 31.80144 
L 66.59346 28.89864 
L 66.957733 28.28364 
L 68.050549 30.80268 
L 68.414821 31.22088 
L 68.779094 30.8076 
L 69.143366 30.13356 
L 69.507638 30.17784 
L 70.236183 31.42752 
L 70.600455 31.04376 
L 70.964727 30.49764 
L 71.328999 30.3648 
L 71.693271 28.88388 
L 72.057544 29.15448 
L 72.421816 30.15324 
L 73.15036 31.4226 
L 73.878905 30.9306 
L 74.243177 30.66 
L 74.971721 34.99944 
L 75.335994 34.07448 
L 75.700266 34.9158 
L 76.064538 34.02528 
L 76.42881 34.26144 
L 76.793082 33.0216 
L 77.157355 33.10524 
L 77.521627 34.1532 
L 77.885899 34.2024 
L 78.614444 36.34752 
L 78.978716 35.89488 
L 79.70726 36.94776 
L 80.071532 36.2688 
L 80.435805 36.97236 
L 80.800077 38.286 
L 81.164349 38.76324 
L 81.528621 38.73864 
L 81.892894 38.51724 
L 82.257166 37.42992 
L 82.621438 37.42008 
L 82.98571 36.90348 
L 83.349982 36.98712 
L 83.714255 36.86412 
L 84.078527 37.16424 
L 84.442799 37.14948 
L 84.807071 38.52216 
L 85.535616 35.71776 
L 85.899888 36.15564 
L 86.26416 36.93792 
L 86.992705 36.72636 
L 87.356977 36.21468 
L 87.721249 34.8174 
L 88.085521 34.7928 
L 88.449793 35.42748 
L 88.814066 36.49512 
L 89.178338 36.28356 
L 89.54261 36.6378 
L 89.906882 37.3512 
L 90.271155 37.3512 
L 90.635427 38.31552 
L 90.999699 38.32536 
L 91.363971 37.26264 
L 91.728243 37.26264 
L 92.092516 37.09044 
L 92.456788 37.06092 
L 92.82106 37.34628 
L 93.185332 37.48404 
L 93.549604 37.77924 
L 94.278149 37.45944 
L 95.006693 37.56276 
L 95.370966 37.31184 
L 95.735238 37.33644 
L 96.09951 37.09536 
L 96.463782 36.23928 
L 97.192327 36.11628 
L 97.920871 35.0142 
L 98.285143 35.93424 
L 98.649416 36.36228 
L 99.013688 36.50988 
L 99.37796 36.5148 
L 99.742232 36.25404 
L 100.106504 36.46068 
L 100.470777 34.83708 
L 100.835049 34.57632 
L 101.563593 35.00436 
L 101.927865 34.93056 
L 102.292138 35.088 
L 102.65641 35.78664 
L 103.020682 37.55292 
L 103.384954 37.26756 
L 103.749227 37.46436 
L 104.477771 37.45944 
L 104.842043 38.41392 
L 105.570588 36.95268 
L 105.93486 37.05108 
L 106.299132 38.37948 
L 106.663404 39.20604 
L 107.027677 41.03136 
L 107.391949 42.26628 
L 107.756221 41.73492 
L 108.063749 42.23676 
L 108.717318 44.89356 
L 109.08003 43.6242 
L 109.813895 43.53072 
L 110.180246 43.72752 
L 110.906725 44.436 
L 111.270887 44.49012 
L 111.630779 43.81608 
L 111.97583 43.7226 
L 112.363468 44.5344 
L 112.681982 44.19 
L 113.091435 44.21952 
L 113.817407 44.51472 
L 114.547887 44.3868 
L 114.913255 45.174 
L 115.246754 45.23796 
L 115.640488 44.81484 
L 116.003137 43.821 
L 116.366718 44.01288 
L 116.726698 44.66232 
L 117.099247 43.93908 
L 117.459758 44.39664 
L 117.824878 44.12112 
L 118.18711 44.33268 
L 118.552166 43.3044 
L 118.916265 43.6242 
L 119.277742 44.29824 
L 119.645552 44.53932 
L 120.010916 44.30808 
L 120.372848 43.8702 
L 120.736977 44.00304 
L 121.102683 43.97844 
L 121.466251 43.41756 
L 122.20128 43.48644 
L 122.924478 41.73984 
L 123.291529 41.7546 
L 124.016629 43.14204 
L 124.378768 43.083 
L 124.748487 43.35852 
L 125.113615 43.78164 
L 125.474514 43.21584 
L 125.865917 42.9354 
L 126.20749 43.10268 
L 126.933011 44.25396 
L 128.029534 43.74228 
L 128.39693 43.46676 
L 129.121094 43.79148 
L 129.852004 43.77672 
L 130.217216 43.2552 
L 130.579123 43.40772 
L 130.943986 42.49752 
L 131.306989 42.90588 
L 131.674613 42.8616 
L 132.033316 42.41388 
L 132.770263 42.79764 
L 133.132216 41.57256 
L 133.49621 41.86284 
L 133.862059 41.63652 
L 134.225589 41.85792 
L 134.585844 41.22324 
L 135.320101 42.1482 
L 135.682775 41.96616 
L 136.045918 41.59224 
L 136.776903 41.99076 
L 137.136829 41.91696 
L 137.506767 41.98584 
L 137.874965 41.41512 
L 138.24 42.15312 
L 138.24 42.15312 
" clip-path="url(#p01f58a3984)" style="fill: none; stroke: #4a8dff; stroke-width: 0.6; stroke-linecap: round"/>
   </g>
   <g id="line2d_7">
    <path d="M 5.76 38.61564 
L 6.124272 38.9994 
L 6.488544 39.00924 
L 6.852817 37.92684 
L 7.217089 37.71528 
L 7.581361 38.17284 
L 7.945633 38.96496 
L 8.309906 38.74848 
L 8.674178 37.71528 
L 9.03845 37.63164 
L 9.402722 34.64028 
L 9.766994 34.69932 
L 10.131267 33.87276 
L 10.495539 34.18764 
L 10.859811 34.73868 
L 11.224083 34.09416 
L 11.588355 34.38444 
L 11.952628 34.33032 
L 12.681172 34.57632 
L 13.045444 33.18396 
L 13.409717 33.38076 
L 13.773989 32.81004 
L 14.138261 31.38816 
L 14.502533 30.45336 
L 14.866805 32.59848 
L 15.231078 32.29344 
L 15.59535 31.78176 
L 15.959622 31.53084 
L 16.323894 31.68336 
L 16.688167 32.28852 
L 17.416711 34.1778 
L 17.780983 33.84324 
L 18.145255 33.3414 
L 18.509528 33.25284 
L 19.238072 33.7842 
L 19.602344 35.34384 
L 19.966616 33.981 
L 20.330889 33.35616 
L 20.695161 33.35124 
L 21.059433 31.09296 
L 21.423705 31.11756 
L 21.787978 31.87524 
L 22.15225 33.20856 
L 22.516522 33.17412 
L 22.880794 33.45456 
L 23.245066 33.4152 
L 23.609339 32.7264 
L 23.973611 33.84816 
L 24.702155 33.84324 
L 25.794972 35.73744 
L 26.159244 33.4398 
L 26.523516 33.20856 
L 26.887789 32.58372 
L 27.252061 32.71164 
L 27.980605 32.53944 
L 28.344877 32.013 
L 29.073422 33.3906 
L 29.437694 31.80144 
L 29.801966 31.41768 
L 30.166239 32.19012 
L 30.530511 32.10156 
L 30.894783 31.60956 
L 31.259055 32.0622 
L 31.623327 31.73748 
L 31.9876 30.56652 
L 32.351872 28.31808 
L 32.716144 27.48168 
L 33.080416 27.55548 
L 33.444689 26.71908 
L 33.808961 26.36484 
L 34.173233 27.42756 
L 34.901777 26.55672 
L 35.26605 27.27504 
L 35.630322 27.31932 
L 35.994594 27.63912 
L 36.358866 27.52596 
L 36.723139 26.3058 
L 37.087411 26.96016 
L 37.451683 27.09792 
L 37.815955 27.49644 
L 38.180227 27.2898 
L 38.5445 26.57148 
L 38.908772 27.27012 
L 39.637316 27.35376 
L 40.365861 29.62188 
L 40.730133 29.96136 
L 41.094405 29.14956 
L 41.458677 28.68216 
L 41.82295 29.184 
L 42.187222 28.7412 
L 42.551494 27.5358 
L 42.915766 27.91956 
L 43.280038 28.00812 
L 43.644311 26.64528 
L 44.008583 26.88636 
L 44.372855 26.1828 
L 44.737127 24.52476 
L 45.1014 27.0684 
L 45.465672 27.59484 
L 46.194216 27.49644 
L 46.558488 28.13112 
L 46.922761 29.8482 
L 47.287033 29.12004 
L 47.651305 30.03024 
L 48.015577 27.84576 
L 48.744122 29.54316 
L 49.108394 31.13232 
L 49.472666 30.31068 
L 49.836938 30.62064 
L 50.201211 29.97612 
L 50.565483 31.97364 
L 50.929755 31.82112 
L 51.294027 32.0868 
L 51.658299 31.63416 
L 52.022572 30.6354 
L 52.386844 30.37464 
L 52.751116 30.86172 
L 53.115388 30.89616 
L 53.479661 31.11756 
L 54.208205 30.22212 
L 54.572477 30.45828 
L 54.936749 29.2578 
L 55.301022 28.50504 
L 55.665294 28.18032 
L 56.029566 28.2738 
L 56.393838 28.569 
L 56.75811 28.55424 
L 57.122383 27.8802 
L 57.486655 28.03272 
L 57.850927 27.69324 
L 58.215199 28.42632 
L 58.579472 28.3968 
L 58.943744 28.60344 
L 59.308016 29.88756 
L 59.672288 30.22212 
L 60.03656 29.58252 
L 60.400833 31.73256 
L 60.765105 31.36356 
L 61.129377 31.39308 
L 61.857922 29.09544 
L 62.222194 29.2332 
L 62.586466 27.02412 
L 63.31501 25.16928 
L 63.679283 25.10532 
L 64.407827 23.92452 
L 64.772099 25.53336 
L 65.136371 24.62808 
L 65.500644 25.4448 
L 65.864916 29.64156 
L 66.229188 30.80268 
L 66.59346 28.65756 
L 66.957733 28.6428 
L 67.686277 30.87156 
L 68.050549 32.17044 
L 68.414821 32.97732 
L 68.779094 32.628 
L 69.143366 31.90476 
L 69.507638 30.92076 
L 69.87191 31.96872 
L 70.236183 32.39676 
L 70.600455 31.19628 
L 71.328999 30.42384 
L 71.693271 29.0118 
L 72.057544 29.15448 
L 72.421816 29.76456 
L 72.786088 31.2012 
L 73.15036 32.09172 
L 73.514632 31.43244 
L 74.243177 30.90108 
L 74.971721 35.35368 
L 75.335994 34.24668 
L 75.700266 35.5062 
L 76.064538 34.48284 
L 76.42881 35.02896 
L 76.793082 33.8334 
L 77.157355 33.243 
L 77.521627 34.69932 
L 78.250171 36.2934 
L 78.614444 38.901 
L 78.978716 38.37948 
L 79.342988 38.92068 
L 79.70726 40.09164 
L 80.071532 39.70788 
L 80.435805 40.4262 
L 80.800077 42.75336 
L 81.164349 43.54548 
L 81.528621 43.72752 
L 82.257166 41.976 
L 82.621438 42.42864 
L 82.98571 40.86408 
L 83.349982 40.47048 
L 84.442799 40.89852 
L 84.807071 42.9354 
L 85.171343 40.43604 
L 85.535616 39.31428 
L 85.899888 40.04244 
L 86.26416 41.43972 
L 86.628432 41.47416 
L 86.992705 41.02152 
L 87.356977 40.7952 
L 87.721249 39.75708 
L 88.085521 40.11132 
L 88.449793 39.87024 
L 88.814066 40.94772 
L 89.178338 40.97232 
L 89.906882 42.87144 
L 90.271155 42.17772 
L 90.635427 43.04364 
L 90.999699 43.34868 
L 91.363971 42.03504 
L 92.092516 41.8038 
L 92.456788 41.84316 
L 92.82106 42.37944 
L 93.185332 42.26628 
L 93.549604 42.468 
L 93.913877 42.42864 
L 94.278149 42.18264 
L 94.642421 42.1728 
L 95.006693 42.50244 
L 95.370966 41.88252 
L 95.735238 42.32532 
L 96.463782 41.13468 
L 97.192327 40.42128 
L 97.556599 39.16176 
L 97.920871 39.28968 
L 98.285143 40.48032 
L 99.37796 40.88376 
L 100.106504 40.53936 
L 100.470777 38.50248 
L 100.835049 37.63656 
L 101.199321 38.34012 
L 101.563593 38.37456 
L 101.927865 38.5812 
L 102.65641 39.8358 
L 103.020682 41.93172 
L 103.384954 41.42004 
L 104.113499 41.39052 
L 104.477771 41.5086 
L 104.842043 42.80256 
L 105.206315 41.93664 
L 105.570588 41.49384 
L 105.93486 41.51352 
L 106.299132 43.78164 
L 106.663404 43.9932 
L 107.027677 46.66968 
L 107.391949 47.55036 
L 107.756221 46.64508 
L 108.353231 48.89352 
L 108.717318 49.84308 
L 109.08003 49.00176 
L 109.452629 49.233 
L 109.813895 48.97716 
L 110.543764 49.36092 
L 111.270887 49.58724 
L 111.630779 49.28712 
L 111.97583 49.16904 
L 112.363468 49.39044 
L 112.681982 49.29696 
L 113.455264 49.55772 
L 114.547887 49.41996 
L 114.913255 49.8234 
L 115.246754 49.86768 
L 115.640488 49.72992 
L 116.003137 49.39536 
L 116.726698 49.6758 
L 117.099247 49.47408 
L 117.459758 49.60692 
L 117.824878 49.37568 
L 118.18711 49.36584 
L 118.552166 48.6672 
L 119.645552 49.54788 
L 120.010916 49.5282 
L 120.372848 49.09032 
L 121.102683 49.2084 
L 121.466251 48.93288 
L 122.20128 48.89844 
L 122.924478 48.1998 
L 123.291529 48.28344 
L 123.655902 48.88368 
L 124.016629 49.04604 
L 124.378768 49.00176 
L 125.113615 49.38552 
L 125.474514 49.04112 
L 125.865917 48.92796 
L 126.20749 48.987 
L 126.933011 49.66104 
L 128.39693 49.40028 
L 128.756405 49.56756 
L 129.482247 49.56264 
L 129.852004 49.53312 
L 130.217216 49.25268 
L 130.579123 49.29696 
L 130.943986 48.89352 
L 131.306989 48.96732 
L 132.033316 48.5934 
L 132.404123 48.84432 
L 132.770263 48.95748 
L 133.132216 48.30804 
L 133.49621 48.34248 
L 133.862059 48.21456 
L 134.225589 48.26376 
L 134.585844 47.41752 
L 134.954927 48.05712 
L 135.320101 48.26376 
L 135.682775 48.01776 
L 136.045918 47.23548 
L 137.136829 47.1666 
L 137.506767 47.31912 
L 137.874965 46.49256 
L 138.24 47.64876 
L 138.24 47.64876 
" clip-path="url(#p01f58a3984)" style="fill: none; stroke: #f5841e; stroke-width: 0.7; stroke-linecap: round"/>
   </g>
  </g>
 </g>
 <defs>
  <clipPath id="p01f58a3984">
   <rect x="5.76" y="3.6" width="132.48" height="49.2"/>
  </clipPath>
 </defs>
</svg>
