<?xml version="1.0" encoding="utf-8" standalone="no"?>
<!DOCTYPE svg PUBLIC "-//W3C//DTD SVG 1.1//EN"
  "http://www.w3.org/Graphics/SVG/1.1/DTD/svg11.dtd">
<svg xmlns:xlink="http://www.w3.org/1999/xlink" width="144pt" height="60pt" viewBox="0 0 144 60" xmlns="http://www.w3.org/2000/svg" version="1.1">
  <desc id="nav-meta">{"window":"2w","count":4,"labels":["22.06","27.06","01.07","06.07"],"tick_utc":["2026-06-22T06:11:33Z","2026-06-27T04:39:58Z","2026-07-01T05:10:59Z","2026-07-06T04:58:56Z"]}</desc>

 <metadata>
  <rdf:RDF xmlns:dc="http://purl.org/dc/elements/1.1/" xmlns:cc="http://creativecommons.org/ns#" xmlns:rdf="http://www.w3.org/1999/02/22-rdf-syntax-ns#">
   <cc:Work>
    <dc:type rdf:resource="http://purl.org/dc/dcmitype/StillImage"/>
    <dc:date>2026-07-06T04:58:58.048074</dc:date>
    <dc:format>image/svg+xml</dc:format>
    <dc:creator>
     <cc:Agent>
      <dc:title>Matplotlib v3.11.0, https://matplotlib.org/</dc:title>
     </cc:Agent>
    </dc:creator>
   </cc:Work>
  </rdf:RDF>
 </metadata>
 <defs>
  <style type="text/css">*{stroke-linejoin: round; stroke-linecap: butt}</style>
 </defs>
 <g id="figure_1">
  <g id="patch_1">
   <path d="M 0 60 
L 144 60 
L 144 0 
L 0 0 
L 0 60 
z
" style="fill: none; opacity: 0"/>
  </g>
  <g id="axes_1">
   <g id="patch_2">
    <path d="M 5.76 52.8 
L 138.24 52.8 
L 138.24 3.6 
L 5.76 3.6 
L 5.76 52.8 
z
" style="fill: none"/>
   </g>
   <g id="matplotlib.axis_1"/>
   <g id="matplotlib.axis_2"/>
   <g id="line2d_1">
    <path d="M 5.76 42.96 
L 138.24 42.96 
" clip-path="url(#pe741d33891)" style="fill: none; stroke: #b2b2b2; stroke-opacity: 0.35; stroke-width: 0.5; stroke-linecap: square"/>
   </g>
   <g id="line2d_2">
    <path d="M 5.76 33.12 
L 138.24 33.12 
" clip-path="url(#pe741d33891)" style="fill: none; stroke: #b2b2b2; stroke-opacity: 0.35; stroke-width: 0.5; stroke-linecap: square"/>
   </g>
   <g id="line2d_3">
    <path d="M 5.76 23.28 
L 138.24 23.28 
" clip-path="url(#pe741d33891)" style="fill: none; stroke: #b2b2b2; stroke-opacity: 0.35; stroke-width: 0.5; stroke-linecap: square"/>
   </g>
   <g id="line2d_4">
    <path d="M 5.76 13.44 
L 138.24 13.44 
" clip-path="url(#pe741d33891)" style="fill: none; stroke: #b2b2b2; stroke-opacity: 0.35; stroke-width: 0.5; stroke-linecap: square"/>
   </g>
   <g id="line2d_5">
    <path d="M 5.76 50.217 
L 14.68933 50.35968 
L 24.220361 50.49252 
L 33.714899 50.59092 
L 43.260659 50.59092 
L 52.64132 50.33016 
L 62.319423 50.4384 
L 71.885189 50.3892 
L 81.198139 50.22192 
L 90.834143 50.13336 
L 100.1649 49.95132 
L 109.558642 49.78896 
L 119.014817 49.6266 
L 128.650931 49.7742 
L 138.24 49.7742 
" clip-path="url(#pe741d33891)" style="fill: none; stroke: #bebebe; stroke-width: 0.6; stroke-linecap: round"/>
   </g>
   <g id="line2d_6">
    <path d="M 5.76 46.035 
L 14.68933 46.14324 
L 24.220361 46.52208 
L 33.714899 46.83204 
L 43.260659 47.38308 
L 52.64132 47.14692 
L 62.319423 47.22564 
L 71.885189 47.22072 
L 81.198139 47.10264 
L 90.834143 47.0436 
L 100.1649 46.79268 
L 109.558642 46.27608 
L 119.014817 45.92184 
L 128.650931 45.80376 
L 138.24 45.75456 
" clip-path="url(#pe741d33891)" style="fill: none; stroke: #4a8dff; stroke-width: 0.6; stroke-linecap: round"/>
   </g>
   <g id="line2d_7">
    <path d="M 5.76 49.89228 
L 14.68933 49.9464 
L 24.220361 50.05956 
L 33.714899 50.2416 
L 43.260659 50.35968 
L 52.64132 50.31048 
L 62.319423 50.34492 
L 71.885189 50.38428 
L 81.198139 50.39412 
L 90.834143 50.41872 
L 100.1649 50.27112 
L 109.558642 50.20224 
L 119.014817 50.0694 
L 128.650931 50.03988 
L 138.24 50.00052 
" clip-path="url(#pe741d33891)" style="fill: none; stroke: #f5841e; stroke-width: 0.7; stroke-linecap: round"/>
   </g>
  </g>
 </g>
 <defs>
  <clipPath id="pe741d33891">
   <rect x="5.76" y="3.6" width="132.48" height="49.2"/>
  </clipPath>
 </defs>
</svg>
