<?xml version="1.0" encoding="utf-8" standalone="no"?>
<!DOCTYPE svg PUBLIC "-//W3C//DTD SVG 1.1//EN"
  "http://www.w3.org/Graphics/SVG/1.1/DTD/svg11.dtd">
<svg xmlns:xlink="http://www.w3.org/1999/xlink" width="144pt" height="60pt" viewBox="0 0 144 60" xmlns="http://www.w3.org/2000/svg" version="1.1">
  <desc id="nav-meta">{"window":"6m","count":4,"labels":["18.12","16.02","17.04","15.06"],"tick_utc":["2025-12-18T12:00:00Z","2026-02-16T03:32:51Z","2026-04-17T03:55:44Z","2026-06-15T06:07:39Z"]}</desc>

 <metadata>
  <rdf:RDF xmlns:dc="http://purl.org/dc/elements/1.1/" xmlns:cc="http://creativecommons.org/ns#" xmlns:rdf="http://www.w3.org/1999/02/22-rdf-syntax-ns#">
   <cc:Work>
    <dc:type rdf:resource="http://purl.org/dc/dcmitype/StillImage"/>
    <dc:date>2026-06-15T21:35:37.432207</dc:date>
    <dc:format>image/svg+xml</dc:format>
    <dc:creator>
     <cc:Agent>
      <dc:title>Matplotlib v3.11.0, https://matplotlib.org/</dc:title>
     </cc:Agent>
    </dc:creator>
   </cc:Work>
  </rdf:RDF>
 </metadata>
 <defs>
  <style type="text/css">*{stroke-linejoin: round; stroke-linecap: butt}</style>
 </defs>
 <g id="figure_1">
  <g id="patch_1">
   <path d="M 0 60 
L 144 60 
L 144 0 
L 0 0 
L 0 60 
z
" style="fill: none; opacity: 0"/>
  </g>
  <g id="axes_1">
   <g id="patch_2">
    <path d="M 5.76 52.8 
L 138.24 52.8 
L 138.24 3.6 
L 5.76 3.6 
L 5.76 52.8 
z
" style="fill: none"/>
   </g>
   <g id="matplotlib.axis_1"/>
   <g id="matplotlib.axis_2"/>
   <g id="line2d_1">
    <path d="M 5.76 42.96 
L 138.24 42.96 
" clip-path="url(#pace3198eb9)" style="fill: none; stroke: #b2b2b2; stroke-opacity: 0.35; stroke-width: 0.5; stroke-linecap: square"/>
   </g>
   <g id="line2d_2">
    <path d="M 5.76 33.12 
L 138.24 33.12 
" clip-path="url(#pace3198eb9)" style="fill: none; stroke: #b2b2b2; stroke-opacity: 0.35; stroke-width: 0.5; stroke-linecap: square"/>
   </g>
   <g id="line2d_3">
    <path d="M 5.76 23.28 
L 138.24 23.28 
" clip-path="url(#pace3198eb9)" style="fill: none; stroke: #b2b2b2; stroke-opacity: 0.35; stroke-width: 0.5; stroke-linecap: square"/>
   </g>
   <g id="line2d_4">
    <path d="M 5.76 13.44 
L 138.24 13.44 
" clip-path="url(#pace3198eb9)" style="fill: none; stroke: #b2b2b2; stroke-opacity: 0.35; stroke-width: 0.5; stroke-linecap: square"/>
   </g>
   <g id="line2d_5">
    <path d="M 5.76 45.58728 
L 6.501125 46.0596 
L 7.24225 45.18384 
L 10.206749 45.47904 
L 10.947874 45.65616 
L 11.688999 45.98088 
L 13.171248 45.38556 
L 13.912373 45.31668 
L 14.653498 45.58728 
L 15.394623 45.35604 
L 16.135748 45.40032 
L 16.876872 45.11496 
L 17.617997 44.42124 
L 19.100247 44.18508 
L 19.841372 43.62912 
L 20.582497 43.24044 
L 21.323621 43.8702 
L 22.064746 43.60944 
L 22.805871 43.92924 
L 23.546996 43.93416 
L 24.288121 43.46184 
L 25.029245 43.5012 
L 25.77037 42.72384 
L 26.511495 42.51228 
L 27.25262 43.08792 
L 27.993745 42.75828 
L 28.73487 42.90096 
L 30.217119 44.2392 
L 30.958244 45.23304 
L 31.699369 44.77548 
L 33.181619 45.04608 
L 33.922743 45.07068 
L 34.663868 46.1334 
L 35.404993 45.4446 
L 36.146118 45.06084 
L 36.887243 45.33144 
L 37.628368 46.30068 
L 38.369492 46.34496 
L 39.110617 47.89476 
L 39.851742 48.26376 
L 40.592867 47.96364 
L 41.807505 49.06572 
L 42.548253 50.04972 
L 43.286204 49.24776 
L 46.264222 49.59708 
L 47.002679 49.80372 
L 47.743581 49.86768 
L 48.475793 49.479 
L 49.177812 49.24776 
L 49.966475 49.48392 
L 50.614504 49.37568 
L 51.447549 49.479 
L 52.187773 49.7004 
L 54.410753 49.49376 
L 55.154108 49.98576 
L 55.832624 49.96608 
L 56.63369 49.7004 
L 57.371513 49.27236 
L 58.111231 49.37076 
L 58.843623 49.68072 
L 59.601586 49.25268 
L 60.33506 49.51344 
L 62.557602 49.09032 
L 64.782135 49.64628 
L 65.525481 49.58724 
L 66.261845 49.36092 
L 67.74672 49.45932 
L 68.486412 49.16904 
L 69.981854 49.27236 
L 70.725072 48.87384 
L 72.200005 48.70164 
L 72.941336 49.03128 
L 73.675247 49.1592 
L 74.412031 49.08048 
L 75.907105 49.36584 
L 77.43769 48.90828 
L 78.132632 49.05096 
L 79.608731 49.64628 
L 82.587127 49.59708 
L 83.31849 49.8726 
L 84.795241 49.80864 
L 87.026876 49.83816 
L 87.769202 49.50852 
L 88.507745 49.68564 
L 89.985483 49.48884 
L 90.739903 49.6512 
L 91.484828 49.69056 
L 92.221235 49.40028 
L 92.961794 49.58724 
L 95.178692 49.19856 
L 95.929604 49.43472 
L 96.672564 49.50852 
L 100.368762 49.37568 
L 101.121415 49.4052 
L 101.870526 49.29204 
L 102.613203 49.5528 
L 103.352304 49.50852 
L 104.094672 49.64136 
L 105.566105 49.56264 
L 106.322276 49.57248 
L 107.063143 49.42488 
L 107.787944 49.49376 
L 109.283447 49.25268 
L 110.012237 49.24284 
L 110.756072 48.80004 
L 111.512131 48.85416 
L 112.989937 48.63276 
L 113.734588 48.66228 
L 114.474889 49.09524 
L 115.219668 48.99192 
L 116.703522 49.34616 
L 117.451843 49.47408 
L 118.931434 49.54788 
L 119.676779 49.3314 
L 120.412225 49.34616 
L 121.143168 49.51836 
L 122.646905 49.41504 
L 124.864292 49.7742 
L 127.092659 49.61676 
L 128.57858 49.7988 
L 129.328043 50.19732 
L 130.066628 50.45808 
L 130.795547 50.59092 
L 131.52528 50.99928 
L 133.026736 50.74344 
L 133.753716 50.62536 
L 134.502526 50.80248 
L 137.47424 50.56632 
L 138.24 50.39412 
L 138.24 50.39412 
" clip-path="url(#pace3198eb9)" style="fill: none; stroke: #bebebe; stroke-width: 0.6; stroke-linecap: round"/>
   </g>
   <g id="line2d_6">
    <path d="M 5.76 38.31552 
L 6.501125 38.32536 
L 7.24225 37.26264 
L 7.983374 37.26264 
L 8.724499 37.09044 
L 9.465624 37.06092 
L 10.206749 37.34628 
L 10.947874 37.48404 
L 11.688999 37.77924 
L 13.171248 37.45944 
L 14.653498 37.56276 
L 15.394623 37.31184 
L 16.135748 37.33644 
L 16.876872 37.09536 
L 17.617997 36.23928 
L 19.100247 36.11628 
L 19.841372 35.48652 
L 20.582497 35.0142 
L 21.323621 35.93424 
L 22.064746 36.36228 
L 22.805871 36.50988 
L 23.546996 36.5148 
L 24.288121 36.25404 
L 25.029245 36.46068 
L 25.77037 34.83708 
L 26.511495 34.57632 
L 27.993745 35.00436 
L 28.73487 34.93056 
L 29.475994 35.088 
L 30.217119 35.78664 
L 30.958244 37.55292 
L 31.699369 37.26756 
L 32.440494 37.46436 
L 33.922743 37.45944 
L 34.663868 38.41392 
L 36.146118 36.95268 
L 36.887243 37.05108 
L 37.628368 38.37948 
L 38.369492 39.20604 
L 39.110617 41.03136 
L 39.851742 42.26628 
L 40.592867 41.73492 
L 41.218543 42.23676 
L 42.548253 44.89356 
L 43.286204 43.6242 
L 44.779279 43.53072 
L 45.524632 43.72752 
L 47.002679 44.436 
L 47.743581 44.49012 
L 48.475793 43.81608 
L 49.177812 43.7226 
L 49.966475 44.5344 
L 50.614504 44.19 
L 51.447549 44.21952 
L 52.924566 44.51472 
L 54.410753 44.3868 
L 55.154108 45.174 
L 55.832624 45.23796 
L 56.63369 44.81484 
L 57.371513 43.821 
L 58.111231 44.01288 
L 58.843623 44.66232 
L 59.601586 43.93908 
L 60.33506 44.39664 
L 61.077909 44.12112 
L 61.814882 44.33268 
L 62.557602 43.3044 
L 63.298375 43.6242 
L 64.033813 44.29824 
L 64.782135 44.53932 
L 65.525481 44.30808 
L 66.261845 43.8702 
L 67.002678 44.00304 
L 67.74672 43.97844 
L 68.486412 43.41756 
L 69.981854 43.48644 
L 70.725072 42.49752 
L 71.453227 41.73984 
L 72.200005 41.7546 
L 72.941336 42.591 
L 73.675247 43.14204 
L 74.412031 43.083 
L 75.164238 43.35852 
L 75.907105 43.78164 
L 76.641367 43.21584 
L 77.43769 42.9354 
L 78.132632 43.10268 
L 79.608731 44.25396 
L 81.839646 43.74228 
L 82.587127 43.46676 
L 84.060464 43.79148 
L 85.547526 43.77672 
L 86.290564 43.2552 
L 87.026876 43.40772 
L 87.769202 42.49752 
L 88.507745 42.90588 
L 89.255689 42.8616 
L 89.985483 42.41388 
L 91.484828 42.79764 
L 92.221235 41.57256 
L 92.961794 41.86284 
L 93.706127 41.63652 
L 94.445742 41.85792 
L 95.178692 41.22324 
L 95.929604 41.76936 
L 96.672564 42.1482 
L 97.410438 41.96616 
L 98.149264 41.59224 
L 99.63648 41.99076 
L 100.368762 41.91696 
L 101.121415 41.98584 
L 101.870526 41.41512 
L 102.613203 42.15312 
L 103.352304 41.96124 
L 104.094672 42.43848 
L 105.566105 42.02028 
L 106.322276 42.0252 
L 107.063143 41.40528 
L 108.542125 41.52336 
L 110.012237 42.1974 
L 110.756072 41.8776 
L 112.259106 41.8038 
L 112.989937 41.976 
L 113.734588 42.00552 
L 114.474889 42.3942 
L 115.219668 42.27612 
L 116.703522 42.85176 
L 117.451843 43.31424 
L 118.187658 43.2306 
L 118.931434 43.39296 
L 119.676779 43.16172 
L 120.412225 43.24536 
L 121.143168 43.71768 
L 121.896027 43.33392 
L 124.125535 43.67832 
L 124.864292 44.32776 
L 125.605966 44.13588 
L 126.336403 44.16048 
L 127.092659 43.96368 
L 127.844746 44.2392 
L 128.57858 44.19984 
L 129.328043 45.16908 
L 130.066628 45.67584 
L 130.795547 46.00548 
L 131.52528 47.57004 
L 133.026736 46.64016 
L 133.753716 46.34496 
L 134.502526 46.82712 
L 135.992033 46.51716 
L 136.727737 46.5516 
L 137.47424 46.46304 
L 138.24 46.14816 
L 138.24 46.14816 
" clip-path="url(#pace3198eb9)" style="fill: none; stroke: #4a8dff; stroke-width: 0.6; stroke-linecap: round"/>
   </g>
   <g id="line2d_7">
    <path d="M 5.76 43.04364 
L 6.501125 43.34868 
L 7.24225 42.03504 
L 8.724499 41.8038 
L 9.465624 41.84316 
L 10.206749 42.37944 
L 10.947874 42.26628 
L 11.688999 42.468 
L 12.430123 42.42864 
L 13.171248 42.18264 
L 13.912373 42.1728 
L 14.653498 42.50244 
L 15.394623 41.88252 
L 16.135748 42.32532 
L 17.617997 41.13468 
L 19.100247 40.42128 
L 19.841372 39.16176 
L 20.582497 39.28968 
L 21.323621 40.48032 
L 23.546996 40.88376 
L 25.029245 40.53936 
L 25.77037 38.50248 
L 26.511495 37.63656 
L 27.25262 38.34012 
L 27.993745 38.37456 
L 28.73487 38.5812 
L 30.217119 39.8358 
L 30.958244 41.93172 
L 31.699369 41.42004 
L 33.181619 41.39052 
L 33.922743 41.5086 
L 34.663868 42.80256 
L 35.404993 41.93664 
L 36.146118 41.49384 
L 36.887243 41.51352 
L 37.628368 43.78164 
L 38.369492 43.9932 
L 39.110617 46.66968 
L 39.851742 47.55036 
L 40.592867 46.64508 
L 41.807505 48.89352 
L 42.548253 49.84308 
L 43.286204 49.00176 
L 44.04427 49.233 
L 44.779279 48.97716 
L 46.264222 49.36092 
L 47.743581 49.58724 
L 48.475793 49.28712 
L 49.177812 49.16904 
L 49.966475 49.39044 
L 50.614504 49.29696 
L 52.187773 49.55772 
L 54.410753 49.41996 
L 55.154108 49.8234 
L 55.832624 49.86768 
L 56.63369 49.72992 
L 57.371513 49.39536 
L 58.843623 49.6758 
L 59.601586 49.47408 
L 60.33506 49.60692 
L 61.077909 49.37568 
L 61.814882 49.36584 
L 62.557602 48.6672 
L 63.298375 48.95256 
L 64.033813 49.36092 
L 64.782135 49.54788 
L 65.525481 49.5282 
L 66.261845 49.09032 
L 67.74672 49.2084 
L 68.486412 48.93288 
L 69.981854 48.89844 
L 70.725072 48.48024 
L 71.453227 48.1998 
L 72.200005 48.28344 
L 72.941336 48.88368 
L 73.675247 49.04604 
L 74.412031 49.00176 
L 75.907105 49.38552 
L 76.641367 49.04112 
L 77.43769 48.92796 
L 78.132632 48.987 
L 79.608731 49.66104 
L 82.587127 49.40028 
L 83.31849 49.56756 
L 84.795241 49.56264 
L 85.547526 49.53312 
L 86.290564 49.25268 
L 87.026876 49.29696 
L 87.769202 48.89352 
L 88.507745 48.96732 
L 89.985483 48.5934 
L 90.739903 48.84432 
L 91.484828 48.95748 
L 92.221235 48.30804 
L 92.961794 48.34248 
L 93.706127 48.21456 
L 94.445742 48.26376 
L 95.178692 47.41752 
L 95.929604 48.05712 
L 96.672564 48.26376 
L 97.410438 48.01776 
L 98.149264 47.23548 
L 100.368762 47.1666 
L 101.121415 47.31912 
L 101.870526 46.49256 
L 102.613203 47.64876 
L 103.352304 47.5356 
L 104.094672 48.0276 
L 104.843895 47.50608 
L 105.566105 46.81728 
L 106.322276 46.92552 
L 107.063143 45.85788 
L 108.542125 45.29208 
L 109.283447 45.58728 
L 110.012237 46.2564 
L 110.756072 45.7152 
L 113.734588 45.42492 
L 114.474889 46.38432 
L 115.219668 45.57744 
L 115.951331 46.51716 
L 116.703522 46.95996 
L 117.451843 47.54544 
L 118.931434 47.66844 
L 119.676779 47.05344 
L 120.412225 47.22564 
L 121.143168 48.07188 
L 122.646905 47.37324 
L 124.125535 48.07188 
L 124.864292 48.59832 
L 125.605966 48.52452 
L 126.336403 48.5688 
L 127.092659 48.38676 
L 127.844746 48.55404 
L 130.066628 49.93656 
L 130.795547 49.98084 
L 131.52528 50.3646 
L 132.282334 50.15796 
L 133.753716 49.99068 
L 134.502526 50.217 
L 135.992033 49.98084 
L 137.47424 49.87752 
L 138.24 49.69548 
L 138.24 49.69548 
" clip-path="url(#pace3198eb9)" style="fill: none; stroke: #f5841e; stroke-width: 0.7; stroke-linecap: round"/>
   </g>
  </g>
 </g>
 <defs>
  <clipPath id="pace3198eb9">
   <rect x="5.76" y="3.6" width="132.48" height="49.2"/>
  </clipPath>
 </defs>
</svg>
