<?xml version="1.0" encoding="utf-8" standalone="no"?>
<!DOCTYPE svg PUBLIC "-//W3C//DTD SVG 1.1//EN"
  "http://www.w3.org/Graphics/SVG/1.1/DTD/svg11.dtd">
<svg xmlns:xlink="http://www.w3.org/1999/xlink" width="144pt" height="60pt" viewBox="0 0 144 60" xmlns="http://www.w3.org/2000/svg" version="1.1">
  <desc id="nav-meta">{"window":"1y","count":4,"labels":["22.06","21.10","20.02","21.06"],"tick_utc":["2025-06-22T12:00:00Z","2025-10-21T12:00:00Z","2026-02-20T03:20:24Z","2026-06-21T05:29:24Z"]}</desc>

 <metadata>
  <rdf:RDF xmlns:dc="http://purl.org/dc/elements/1.1/" xmlns:cc="http://creativecommons.org/ns#" xmlns:rdf="http://www.w3.org/1999/02/22-rdf-syntax-ns#">
   <cc:Work>
    <dc:type rdf:resource="http://purl.org/dc/dcmitype/StillImage"/>
    <dc:date>2026-06-21T15:01:27.819072</dc:date>
    <dc:format>image/svg+xml</dc:format>
    <dc:creator>
     <cc:Agent>
      <dc:title>Matplotlib v3.11.0, https://matplotlib.org/</dc:title>
     </cc:Agent>
    </dc:creator>
   </cc:Work>
  </rdf:RDF>
 </metadata>
 <defs>
  <style type="text/css">*{stroke-linejoin: round; stroke-linecap: butt}</style>
 </defs>
 <g id="figure_1">
  <g id="patch_1">
   <path d="M 0 60 
L 144 60 
L 144 0 
L 0 0 
L 0 60 
z
" style="fill: none; opacity: 0"/>
  </g>
  <g id="axes_1">
   <g id="patch_2">
    <path d="M 5.76 52.8 
L 138.24 52.8 
L 138.24 3.6 
L 5.76 3.6 
L 5.76 52.8 
z
" style="fill: none"/>
   </g>
   <g id="matplotlib.axis_1"/>
   <g id="matplotlib.axis_2"/>
   <g id="line2d_1">
    <path d="M 5.76 42.96 
L 138.24 42.96 
" clip-path="url(#pba5970fa98)" style="fill: none; stroke: #b2b2b2; stroke-opacity: 0.35; stroke-width: 0.5; stroke-linecap: square"/>
   </g>
   <g id="line2d_2">
    <path d="M 5.76 33.12 
L 138.24 33.12 
" clip-path="url(#pba5970fa98)" style="fill: none; stroke: #b2b2b2; stroke-opacity: 0.35; stroke-width: 0.5; stroke-linecap: square"/>
   </g>
   <g id="line2d_3">
    <path d="M 5.76 23.28 
L 138.24 23.28 
" clip-path="url(#pba5970fa98)" style="fill: none; stroke: #b2b2b2; stroke-opacity: 0.35; stroke-width: 0.5; stroke-linecap: square"/>
   </g>
   <g id="line2d_4">
    <path d="M 5.76 13.44 
L 138.24 13.44 
" clip-path="url(#pba5970fa98)" style="fill: none; stroke: #b2b2b2; stroke-opacity: 0.35; stroke-width: 0.5; stroke-linecap: square"/>
   </g>
   <g id="line2d_5">
    <path d="M 5.76 44.20476 
L 6.124227 44.45076 
L 6.488455 42.7632 
L 6.852682 42.63036 
L 7.21691 42.94524 
L 7.581137 43.52088 
L 7.945365 43.1076 
L 8.309592 41.98092 
L 9.038047 41.43972 
L 9.402275 42.4926 
L 9.766502 41.79888 
L 10.13073 41.78412 
L 10.494957 42.37452 
L 10.859184 42.3942 
L 11.223412 41.83332 
L 11.587639 42.24168 
L 11.951867 41.84316 
L 12.680322 40.2786 
L 13.044549 40.42128 
L 13.408777 40.71648 
L 14.137232 40.48032 
L 14.501459 40.26384 
L 14.865687 38.97972 
L 15.594142 38.51724 
L 15.958369 38.57628 
L 16.322596 38.04492 
L 16.686824 36.03264 
L 17.051051 34.88136 
L 17.415279 36.92316 
L 17.779506 37.8432 
L 18.143734 37.37088 
L 18.507961 37.53324 
L 18.872189 37.056 
L 19.236416 37.77924 
L 19.600644 38.02032 
L 19.964871 38.45328 
L 20.329099 39.1962 
L 20.693326 40.41636 
L 21.057553 40.97232 
L 21.421781 40.53444 
L 21.786008 39.55536 
L 22.150236 40.24908 
L 22.514463 39.7128 
L 22.878691 38.778 
L 23.242918 38.59104 
L 23.971373 37.794 
L 24.335601 38.82228 
L 24.699828 36.53448 
L 25.064056 35.334 
L 25.79251 37.44468 
L 26.156738 36.90348 
L 26.520965 36.65748 
L 27.24942 38.64516 
L 27.613648 37.2282 
L 27.977875 38.14332 
L 28.342103 35.53572 
L 28.70633 35.04372 
L 29.070558 34.80264 
L 29.434785 37.23804 
L 30.527468 33.67104 
L 30.891695 34.90596 
L 31.984377 35.9736 
L 32.348605 34.36476 
L 32.712832 34.1778 
L 33.07706 35.22084 
L 33.441287 35.11752 
L 33.805515 35.54556 
L 35.262425 32.44104 
L 35.626652 31.83096 
L 35.990879 30.06468 
L 36.355107 30.01056 
L 36.719334 30.291 
L 37.083562 31.16184 
L 37.447789 30.74856 
L 37.812017 29.71536 
L 38.176244 29.37588 
L 38.540472 30.57636 
L 38.904699 30.42876 
L 39.268927 30.79284 
L 39.633154 32.91828 
L 39.997382 33.72024 
L 40.361609 34.05972 
L 40.725836 36.5886 
L 41.090064 34.90104 
L 41.454291 35.10276 
L 41.818519 34.16796 
L 42.182746 33.8826 
L 42.546974 34.43364 
L 43.275429 31.05852 
L 43.639656 31.26024 
L 44.003884 31.92936 
L 44.368111 31.85064 
L 44.732339 31.3242 
L 45.096566 32.84448 
L 45.460794 31.78176 
L 45.825021 32.85924 
L 46.189248 36.8838 
L 46.553476 38.39424 
L 46.917703 35.95392 
L 47.281931 34.53696 
L 47.646158 35.20608 
L 48.374613 37.57752 
L 48.738841 37.90716 
L 49.103068 37.18884 
L 49.467296 37.18392 
L 49.831523 36.89364 
L 50.195751 37.42008 
L 50.559978 38.17284 
L 50.924205 36.687 
L 51.288433 36.42132 
L 51.65266 36.34752 
L 52.016888 35.56032 
L 52.381115 35.72268 
L 52.745343 36.29832 
L 53.10957 36.32292 
L 53.473798 37.61688 
L 53.838025 37.2282 
L 54.202253 37.34628 
L 54.56648 37.23804 
L 54.930708 40.008 
L 55.294935 41.36592 
L 55.659162 40.43604 
L 56.02339 41.44956 
L 56.387617 40.53444 
L 56.751845 41.02152 
L 57.116072 40.22448 
L 57.4803 39.79644 
L 57.844527 41.51844 
L 58.208755 41.66604 
L 58.93721 43.51596 
L 59.301437 43.43724 
L 59.665665 43.71276 
L 60.029892 44.59836 
L 60.39412 43.30932 
L 61.486802 44.88372 
L 61.851029 44.99688 
L 62.215257 44.57868 
L 62.579484 43.5996 
L 62.943712 43.51596 
L 63.307939 43.00428 
L 63.672167 43.2798 
L 64.036394 43.71768 
L 64.764849 44.0916 
L 65.129077 45.11004 
L 65.493304 43.55532 
L 65.857531 42.72876 
L 66.585986 44.27364 
L 67.314441 44.47536 
L 67.678669 44.25888 
L 68.042896 43.64388 
L 68.407124 43.84068 
L 68.771351 43.85052 
L 69.135579 44.36712 
L 69.499806 44.26872 
L 69.864034 44.74104 
L 70.228261 44.98704 
L 70.592488 44.84436 
L 70.956716 45.58728 
L 71.320943 46.0596 
L 71.685171 45.18384 
L 73.142081 45.47904 
L 73.506308 45.65616 
L 73.870536 45.98088 
L 74.598991 45.38556 
L 74.963218 45.31668 
L 75.327446 45.58728 
L 75.691673 45.35604 
L 76.0559 45.40032 
L 76.420128 45.11496 
L 76.784355 44.42124 
L 77.51281 44.18508 
L 78.241265 43.24044 
L 78.605493 43.8702 
L 78.96972 43.60944 
L 79.333948 43.92924 
L 79.698175 43.93416 
L 80.062403 43.46184 
L 80.42663 43.5012 
L 80.790857 42.72384 
L 81.155085 42.51228 
L 81.519312 43.08792 
L 81.88354 42.75828 
L 82.247767 42.90096 
L 82.976222 44.2392 
L 83.34045 45.23304 
L 83.704677 44.77548 
L 84.433132 45.04608 
L 84.79736 45.07068 
L 85.161587 46.1334 
L 85.525814 45.4446 
L 85.890042 45.06084 
L 86.254269 45.33144 
L 86.618497 46.30068 
L 86.982724 46.34496 
L 87.346952 47.89476 
L 87.711179 48.26376 
L 88.075407 47.96364 
L 89.036385 50.04972 
L 89.399053 49.24776 
L 90.862607 49.59708 
L 91.225523 49.80372 
L 91.589641 49.86768 
L 92.294497 49.24776 
L 92.682087 49.48392 
L 93.000563 49.37568 
L 93.409965 49.479 
L 93.77375 49.7004 
L 94.866238 49.49376 
L 95.231562 49.98576 
L 95.565019 49.96608 
L 95.958705 49.7004 
L 96.32131 49.27236 
L 96.684846 49.37076 
L 97.044782 49.68072 
L 97.417285 49.25268 
L 97.777752 49.51344 
L 98.870025 49.09032 
L 100.328596 49.58724 
L 100.690484 49.36092 
L 101.420229 49.45932 
L 101.783752 49.16904 
L 102.518691 49.27236 
L 102.883947 48.87384 
L 103.608806 48.70164 
L 103.973135 49.03128 
L 104.333817 49.1592 
L 104.695911 49.08048 
L 105.430668 49.36584 
L 106.182878 48.90828 
L 106.524409 49.05096 
L 107.249841 49.64628 
L 108.71358 49.59708 
L 109.07301 49.8726 
L 109.798763 49.80864 
L 110.895505 49.83816 
L 111.260323 49.50852 
L 111.623281 49.68564 
L 112.349519 49.48884 
L 113.086375 49.69056 
L 113.448284 49.40028 
L 113.812234 49.58724 
L 114.901733 49.19856 
L 115.270771 49.43472 
L 115.6359 49.50852 
L 117.452405 49.37568 
L 117.822298 49.4052 
L 118.19045 49.29204 
L 118.555441 49.5528 
L 118.918673 49.50852 
L 119.283512 49.64136 
L 120.006651 49.56264 
L 120.378273 49.57248 
L 120.742374 49.42488 
L 121.098579 49.49376 
L 121.833547 49.25268 
L 122.191712 49.24284 
L 122.557272 48.80004 
L 122.928839 48.85416 
L 123.65511 48.63276 
L 124.02107 48.66228 
L 124.384893 49.09524 
L 124.750916 48.99192 
L 125.480159 49.34616 
L 125.847924 49.47408 
L 126.575072 49.54788 
L 126.941373 49.3314 
L 127.30281 49.34616 
L 127.662033 49.51836 
L 128.401048 49.41504 
L 129.490788 49.7742 
L 130.585924 49.61676 
L 131.316183 49.7988 
L 132.047488 50.45808 
L 132.405717 50.59092 
L 132.764346 50.99928 
L 133.50224 50.74344 
L 133.859516 50.62536 
L 134.22752 50.80248 
L 135.687975 50.56632 
L 136.430616 50.23176 
L 136.783242 50.2416 
L 137.51853 50.55156 
L 138.24 50.27112 
L 138.24 50.27112 
" clip-path="url(#pba5970fa98)" style="fill: none; stroke: #bebebe; stroke-width: 0.6; stroke-linecap: round"/>
   </g>
   <g id="line2d_6">
    <path d="M 5.76 42.26136 
L 6.124227 42.5664 
L 6.488455 41.17404 
L 6.852682 41.0166 
L 7.21691 41.22324 
L 7.945365 41.17896 
L 8.309592 41.08056 
L 8.67382 40.61808 
L 9.038047 40.7214 
L 9.402275 41.30688 
L 9.766502 40.11132 
L 10.13073 39.99816 
L 10.494957 40.56888 
L 10.859184 40.51476 
L 11.223412 40.131 
L 11.587639 40.3278 
L 11.951867 39.81612 
L 12.680322 37.46436 
L 13.044549 37.39056 
L 13.408777 37.50372 
L 14.137232 37.01172 
L 14.501459 36.16056 
L 14.865687 34.4976 
L 15.229914 33.69072 
L 15.958369 32.89368 
L 16.322596 31.73256 
L 16.686824 31.68336 
L 17.051051 31.8162 
L 17.415279 32.64276 
L 17.779506 32.0868 
L 18.507961 31.85064 
L 18.872189 30.98964 
L 19.236416 31.53576 
L 19.600644 31.521 
L 19.964871 31.38816 
L 20.329099 32.17044 
L 20.693326 33.68088 
L 21.057553 34.28604 
L 21.421781 33.58248 
L 21.786008 32.0376 
L 22.150236 32.76576 
L 22.514463 32.259 
L 22.878691 30.65508 
L 23.242918 29.93676 
L 23.607146 28.14588 
L 24.335601 28.40664 
L 24.699828 25.73508 
L 25.064056 24.62316 
L 25.428283 26.10408 
L 25.79251 26.97984 
L 26.156738 27.00936 
L 26.520965 26.58132 
L 26.885193 27.7818 
L 27.24942 29.49888 
L 27.613648 27.68832 
L 27.977875 28.44108 
L 28.342103 24.16068 
L 28.70633 24.55428 
L 29.070558 24.51984 
L 29.434785 27.32916 
L 29.799013 25.7646 
L 30.16324 26.48784 
L 30.527468 26.43372 
L 30.891695 27.44724 
L 31.62015 27.27504 
L 31.984377 27.8802 
L 32.348605 27.72276 
L 32.712832 26.84208 
L 33.07706 27.91956 
L 33.441287 27.8556 
L 33.805515 28.09668 
L 34.169742 27.87528 
L 34.898197 27.83592 
L 35.262425 27.57024 
L 35.626652 26.77812 
L 35.990879 25.01184 
L 36.719334 25.71048 
L 37.083562 26.31564 
L 37.447789 26.45832 
L 37.812017 25.8384 
L 38.176244 25.84824 
L 38.540472 26.6994 
L 38.904699 26.62068 
L 39.268927 26.8224 
L 39.633154 28.61328 
L 40.361609 28.97244 
L 40.725836 30.99456 
L 41.090064 29.76456 
L 41.454291 29.8974 
L 41.818519 29.02164 
L 42.182746 28.50012 
L 42.546974 29.00688 
L 43.275429 26.601 
L 43.639656 26.3796 
L 44.003884 26.5764 
L 44.368111 26.3796 
L 44.732339 25.1496 
L 45.096566 26.81256 
L 45.460794 26.29596 
L 45.825021 27.41772 
L 46.189248 31.19136 
L 46.553476 31.80144 
L 46.917703 28.89864 
L 47.281931 28.28364 
L 48.374613 30.80268 
L 48.738841 31.22088 
L 49.103068 30.8076 
L 49.467296 30.13356 
L 49.831523 30.17784 
L 50.559978 31.42752 
L 50.924205 31.04376 
L 51.288433 30.49764 
L 51.65266 30.3648 
L 52.016888 28.88388 
L 52.381115 29.15448 
L 52.745343 30.15324 
L 53.473798 31.4226 
L 54.202253 30.9306 
L 54.56648 30.66 
L 55.294935 34.99944 
L 55.659162 34.07448 
L 56.02339 34.9158 
L 56.387617 34.02528 
L 56.751845 34.26144 
L 57.116072 33.0216 
L 57.4803 33.10524 
L 57.844527 34.1532 
L 58.208755 34.2024 
L 58.93721 36.34752 
L 59.301437 35.89488 
L 60.029892 36.94776 
L 60.39412 36.2688 
L 60.758347 36.97236 
L 61.122574 38.286 
L 61.486802 38.76324 
L 61.851029 38.73864 
L 62.215257 38.51724 
L 62.579484 37.42992 
L 62.943712 37.42008 
L 63.307939 36.90348 
L 63.672167 36.98712 
L 64.036394 36.86412 
L 64.400622 37.16424 
L 64.764849 37.14948 
L 65.129077 38.52216 
L 65.857531 35.71776 
L 66.221759 36.15564 
L 66.585986 36.93792 
L 67.314441 36.72636 
L 67.678669 36.21468 
L 68.042896 34.8174 
L 68.407124 34.7928 
L 68.771351 35.42748 
L 69.135579 36.49512 
L 69.499806 36.28356 
L 69.864034 36.6378 
L 70.228261 37.3512 
L 70.592488 37.3512 
L 70.956716 38.31552 
L 71.320943 38.32536 
L 71.685171 37.26264 
L 72.049398 37.26264 
L 72.413626 37.09044 
L 72.777853 37.06092 
L 73.142081 37.34628 
L 73.506308 37.48404 
L 73.870536 37.77924 
L 74.598991 37.45944 
L 75.327446 37.56276 
L 75.691673 37.31184 
L 76.0559 37.33644 
L 76.420128 37.09536 
L 76.784355 36.23928 
L 77.51281 36.11628 
L 78.241265 35.0142 
L 78.605493 35.93424 
L 78.96972 36.36228 
L 79.333948 36.50988 
L 79.698175 36.5148 
L 80.062403 36.25404 
L 80.42663 36.46068 
L 80.790857 34.83708 
L 81.155085 34.57632 
L 81.88354 35.00436 
L 82.247767 34.93056 
L 82.611995 35.088 
L 82.976222 35.78664 
L 83.34045 37.55292 
L 83.704677 37.26756 
L 84.068905 37.46436 
L 84.79736 37.45944 
L 85.161587 38.41392 
L 85.890042 36.95268 
L 86.254269 37.05108 
L 86.618497 38.37948 
L 86.982724 39.20604 
L 87.346952 41.03136 
L 87.711179 42.26628 
L 88.075407 41.73492 
L 88.382897 42.23676 
L 89.036385 44.89356 
L 89.399053 43.6242 
L 90.132828 43.53072 
L 90.499134 43.72752 
L 91.225523 44.436 
L 91.589641 44.49012 
L 91.949489 43.81608 
L 92.294497 43.7226 
L 92.682087 44.5344 
L 93.000563 44.19 
L 93.409965 44.21952 
L 94.135848 44.51472 
L 94.866238 44.3868 
L 95.231562 45.174 
L 95.565019 45.23796 
L 95.958705 44.81484 
L 96.32131 43.821 
L 96.684846 44.01288 
L 97.044782 44.66232 
L 97.417285 43.93908 
L 97.777752 44.39664 
L 98.142827 44.12112 
L 98.505014 44.33268 
L 98.870025 43.3044 
L 99.23408 43.6242 
L 99.595512 44.29824 
L 99.963277 44.53932 
L 100.328596 44.30808 
L 100.690484 43.8702 
L 101.054568 44.00304 
L 101.420229 43.97844 
L 101.783752 43.41756 
L 102.518691 43.48644 
L 103.2418 41.73984 
L 103.608806 41.7546 
L 104.333817 43.14204 
L 104.695911 43.083 
L 105.065585 43.35852 
L 105.430668 43.78164 
L 105.791523 43.21584 
L 106.182878 42.9354 
L 106.524409 43.10268 
L 107.249841 44.25396 
L 108.346229 43.74228 
L 108.71358 43.46676 
L 109.437655 43.79148 
L 110.168475 43.77672 
L 110.533643 43.2552 
L 110.895505 43.40772 
L 111.260323 42.49752 
L 111.623281 42.90588 
L 111.99086 42.8616 
L 112.349519 42.41388 
L 113.086375 42.79764 
L 113.448284 41.57256 
L 113.812234 41.86284 
L 114.178038 41.63652 
L 114.541523 41.85792 
L 114.901733 41.22324 
L 115.6359 42.1482 
L 115.99853 41.96616 
L 116.361628 41.59224 
L 117.092523 41.99076 
L 117.452405 41.91696 
L 117.822298 41.98584 
L 118.19045 41.41512 
L 118.555441 42.15312 
L 118.918673 41.96124 
L 119.283512 42.43848 
L 120.006651 42.02028 
L 120.378273 42.0252 
L 120.742374 41.40528 
L 121.469222 41.52336 
L 122.191712 42.1974 
L 122.557272 41.8776 
L 123.295941 41.8038 
L 123.65511 41.976 
L 124.02107 42.00552 
L 124.384893 42.3942 
L 124.750916 42.27612 
L 125.847924 43.31424 
L 126.209542 43.2306 
L 126.575072 43.39296 
L 126.941373 43.16172 
L 127.30281 43.24536 
L 127.662033 43.71768 
L 128.032028 43.33392 
L 129.127724 43.67832 
L 129.490788 44.32776 
L 129.855286 44.13588 
L 130.21426 44.16048 
L 130.585924 43.96368 
L 130.955539 44.2392 
L 131.316183 44.19984 
L 131.684508 45.16908 
L 132.405717 46.00548 
L 132.764346 47.57004 
L 133.50224 46.64016 
L 133.859516 46.34496 
L 134.22752 46.82712 
L 134.959542 46.51716 
L 135.321105 46.5516 
L 135.687975 46.46304 
L 136.783242 45.6414 
L 137.145724 46.09404 
L 137.51853 46.3302 
L 138.24 46.06452 
L 138.24 46.06452 
" clip-path="url(#pba5970fa98)" style="fill: none; stroke: #4a8dff; stroke-width: 0.6; stroke-linecap: round"/>
   </g>
   <g id="line2d_7">
    <path d="M 5.76 35.40288 
L 6.124227 35.73744 
L 6.488455 33.4398 
L 6.852682 33.20856 
L 7.21691 32.58372 
L 7.581137 32.71164 
L 8.309592 32.53944 
L 8.67382 32.013 
L 9.402275 33.3906 
L 9.766502 31.80144 
L 10.13073 31.41768 
L 10.494957 32.19012 
L 10.859184 32.10156 
L 11.223412 31.60956 
L 11.587639 32.0622 
L 11.951867 31.73748 
L 12.316094 30.56652 
L 12.680322 28.31808 
L 13.044549 27.48168 
L 13.408777 27.55548 
L 13.773004 26.71908 
L 14.137232 26.36484 
L 14.501459 27.42756 
L 15.229914 26.55672 
L 15.594142 27.27504 
L 15.958369 27.31932 
L 16.322596 27.63912 
L 16.686824 27.52596 
L 17.051051 26.3058 
L 17.415279 26.96016 
L 17.779506 27.09792 
L 18.143734 27.49644 
L 18.507961 27.2898 
L 18.872189 26.57148 
L 19.236416 27.27012 
L 19.964871 27.35376 
L 20.693326 29.62188 
L 21.057553 29.96136 
L 21.421781 29.14956 
L 21.786008 28.68216 
L 22.150236 29.184 
L 22.514463 28.7412 
L 22.878691 27.5358 
L 23.242918 27.91956 
L 23.607146 28.00812 
L 23.971373 26.64528 
L 24.335601 26.88636 
L 24.699828 26.1828 
L 25.064056 24.52476 
L 25.428283 27.0684 
L 25.79251 27.59484 
L 26.520965 27.49644 
L 26.885193 28.13112 
L 27.24942 29.8482 
L 27.613648 29.12004 
L 27.977875 30.03024 
L 28.342103 27.84576 
L 29.070558 29.54316 
L 29.434785 31.13232 
L 29.799013 30.31068 
L 30.16324 30.62064 
L 30.527468 29.97612 
L 30.891695 31.97364 
L 31.255922 31.82112 
L 31.62015 32.0868 
L 31.984377 31.63416 
L 32.348605 30.6354 
L 32.712832 30.37464 
L 33.07706 30.86172 
L 33.441287 30.89616 
L 33.805515 31.11756 
L 34.53397 30.22212 
L 34.898197 30.45828 
L 35.262425 29.2578 
L 35.626652 28.50504 
L 35.990879 28.18032 
L 36.355107 28.2738 
L 36.719334 28.569 
L 37.083562 28.55424 
L 37.447789 27.8802 
L 37.812017 28.03272 
L 38.176244 27.69324 
L 38.540472 28.42632 
L 38.904699 28.3968 
L 39.268927 28.60344 
L 39.633154 29.88756 
L 39.997382 30.22212 
L 40.361609 29.58252 
L 40.725836 31.73256 
L 41.090064 31.36356 
L 41.454291 31.39308 
L 42.182746 29.09544 
L 42.546974 29.2332 
L 42.911201 27.02412 
L 43.639656 25.16928 
L 44.003884 25.10532 
L 44.732339 23.92452 
L 45.096566 25.53336 
L 45.460794 24.62808 
L 45.825021 25.4448 
L 46.189248 29.64156 
L 46.553476 30.80268 
L 46.917703 28.65756 
L 47.281931 28.6428 
L 48.010386 30.87156 
L 48.374613 32.17044 
L 48.738841 32.97732 
L 49.103068 32.628 
L 49.467296 31.90476 
L 49.831523 30.92076 
L 50.195751 31.96872 
L 50.559978 32.39676 
L 50.924205 31.19628 
L 51.65266 30.42384 
L 52.016888 29.0118 
L 52.381115 29.15448 
L 52.745343 29.76456 
L 53.10957 31.2012 
L 53.473798 32.09172 
L 53.838025 31.43244 
L 54.56648 30.90108 
L 55.294935 35.35368 
L 55.659162 34.24668 
L 56.02339 35.5062 
L 56.387617 34.48284 
L 56.751845 35.02896 
L 57.116072 33.8334 
L 57.4803 33.243 
L 57.844527 34.69932 
L 58.572982 36.2934 
L 58.93721 38.901 
L 59.301437 38.37948 
L 59.665665 38.92068 
L 60.029892 40.09164 
L 60.39412 39.70788 
L 60.758347 40.4262 
L 61.122574 42.75336 
L 61.486802 43.54548 
L 61.851029 43.72752 
L 62.579484 41.976 
L 62.943712 42.42864 
L 63.307939 40.86408 
L 63.672167 40.47048 
L 64.764849 40.89852 
L 65.129077 42.9354 
L 65.493304 40.43604 
L 65.857531 39.31428 
L 66.221759 40.04244 
L 66.585986 41.43972 
L 66.950214 41.47416 
L 67.314441 41.02152 
L 67.678669 40.7952 
L 68.042896 39.75708 
L 68.407124 40.11132 
L 68.771351 39.87024 
L 69.135579 40.94772 
L 69.499806 40.97232 
L 70.228261 42.87144 
L 70.592488 42.17772 
L 70.956716 43.04364 
L 71.320943 43.34868 
L 71.685171 42.03504 
L 72.413626 41.8038 
L 72.777853 41.84316 
L 73.142081 42.37944 
L 73.506308 42.26628 
L 73.870536 42.468 
L 74.234763 42.42864 
L 74.598991 42.18264 
L 74.963218 42.1728 
L 75.327446 42.50244 
L 75.691673 41.88252 
L 76.0559 42.32532 
L 76.784355 41.13468 
L 77.51281 40.42128 
L 77.877038 39.16176 
L 78.241265 39.28968 
L 78.605493 40.48032 
L 79.698175 40.88376 
L 80.42663 40.53936 
L 80.790857 38.50248 
L 81.155085 37.63656 
L 81.519312 38.34012 
L 81.88354 38.37456 
L 82.247767 38.5812 
L 82.976222 39.8358 
L 83.34045 41.93172 
L 83.704677 41.42004 
L 84.433132 41.39052 
L 84.79736 41.5086 
L 85.161587 42.80256 
L 85.525814 41.93664 
L 85.890042 41.49384 
L 86.254269 41.51352 
L 86.618497 43.78164 
L 86.982724 43.9932 
L 87.346952 46.66968 
L 87.711179 47.55036 
L 88.075407 46.64508 
L 88.672344 48.89352 
L 89.036385 49.84308 
L 89.399053 49.00176 
L 89.771606 49.233 
L 90.132828 48.97716 
L 90.862607 49.36092 
L 91.589641 49.58724 
L 91.949489 49.28712 
L 92.294497 49.16904 
L 92.682087 49.39044 
L 93.000563 49.29696 
L 93.77375 49.55772 
L 94.866238 49.41996 
L 95.231562 49.8234 
L 95.565019 49.86768 
L 95.958705 49.72992 
L 96.32131 49.39536 
L 97.044782 49.6758 
L 97.417285 49.47408 
L 97.777752 49.60692 
L 98.142827 49.37568 
L 98.505014 49.36584 
L 98.870025 48.6672 
L 99.963277 49.54788 
L 100.328596 49.5282 
L 100.690484 49.09032 
L 101.420229 49.2084 
L 101.783752 48.93288 
L 102.518691 48.89844 
L 103.2418 48.1998 
L 103.608806 48.28344 
L 103.973135 48.88368 
L 104.333817 49.04604 
L 104.695911 49.00176 
L 105.430668 49.38552 
L 105.791523 49.04112 
L 106.182878 48.92796 
L 106.524409 48.987 
L 107.249841 49.66104 
L 108.71358 49.40028 
L 109.07301 49.56756 
L 109.798763 49.56264 
L 110.168475 49.53312 
L 110.533643 49.25268 
L 110.895505 49.29696 
L 111.260323 48.89352 
L 111.623281 48.96732 
L 112.349519 48.5934 
L 112.720281 48.84432 
L 113.086375 48.95748 
L 113.448284 48.30804 
L 113.812234 48.34248 
L 114.178038 48.21456 
L 114.541523 48.26376 
L 114.901733 47.41752 
L 115.270771 48.05712 
L 115.6359 48.26376 
L 115.99853 48.01776 
L 116.361628 47.23548 
L 117.452405 47.1666 
L 117.822298 47.31912 
L 118.19045 46.49256 
L 118.555441 47.64876 
L 118.918673 47.5356 
L 119.283512 48.0276 
L 120.006651 46.81728 
L 120.378273 46.92552 
L 120.742374 45.85788 
L 121.469222 45.29208 
L 121.833547 45.58728 
L 122.191712 46.2564 
L 122.557272 45.7152 
L 124.02107 45.42492 
L 124.384893 46.38432 
L 124.750916 45.57744 
L 125.110494 46.51716 
L 125.847924 47.54544 
L 126.575072 47.66844 
L 126.941373 47.05344 
L 127.30281 47.22564 
L 127.662033 48.07188 
L 128.401048 47.37324 
L 129.127724 48.07188 
L 129.490788 48.59832 
L 129.855286 48.52452 
L 130.21426 48.5688 
L 130.585924 48.38676 
L 130.955539 48.55404 
L 132.047488 49.93656 
L 132.405717 49.98084 
L 132.764346 50.3646 
L 133.50224 50.07432 
L 133.859516 49.99068 
L 134.22752 50.217 
L 134.959542 49.98084 
L 135.687975 49.87752 
L 136.06431 49.69548 
L 136.783242 49.7004 
L 137.51853 50.06448 
L 138.24 49.89228 
L 138.24 49.89228 
" clip-path="url(#pba5970fa98)" style="fill: none; stroke: #f5841e; stroke-width: 0.7; stroke-linecap: round"/>
   </g>
  </g>
 </g>
 <defs>
  <clipPath id="pba5970fa98">
   <rect x="5.76" y="3.6" width="132.48" height="49.2"/>
  </clipPath>
 </defs>
</svg>
