<?xml version="1.0" encoding="utf-8" standalone="no"?>
<!DOCTYPE svg PUBLIC "-//W3C//DTD SVG 1.1//EN"
  "http://www.w3.org/Graphics/SVG/1.1/DTD/svg11.dtd">
<svg xmlns:xlink="http://www.w3.org/1999/xlink" width="144pt" height="60pt" viewBox="0 0 144 60" xmlns="http://www.w3.org/2000/svg" version="1.1">
  <desc id="nav-meta">{"window":"3m","count":4,"labels":["19.12","18.01","17.02","18.03"],"tick_utc":["2025-12-19T12:00:00Z","2026-01-18T12:00:00Z","2026-02-17T00:31:58Z","2026-03-18T03:32:26Z"]}</desc>

 <metadata>
  <rdf:RDF xmlns:dc="http://purl.org/dc/elements/1.1/" xmlns:cc="http://creativecommons.org/ns#" xmlns:rdf="http://www.w3.org/1999/02/22-rdf-syntax-ns#">
   <cc:Work>
    <dc:type rdf:resource="http://purl.org/dc/dcmitype/StillImage"/>
    <dc:date>2026-03-18T19:35:47.508989</dc:date>
    <dc:format>image/svg+xml</dc:format>
    <dc:creator>
     <cc:Agent>
      <dc:title>Matplotlib v3.10.8, https://matplotlib.org/</dc:title>
     </cc:Agent>
    </dc:creator>
   </cc:Work>
  </rdf:RDF>
 </metadata>
 <defs>
  <style type="text/css">*{stroke-linejoin: round; stroke-linecap: butt}</style>
 </defs>
 <g id="figure_1">
  <g id="patch_1">
   <path d="M 0 60 
L 144 60 
L 144 0 
L 0 0 
L 0 60 
z
" style="fill: none; opacity: 0"/>
  </g>
  <g id="axes_1">
   <g id="patch_2">
    <path d="M 5.76 52.8 
L 138.24 52.8 
L 138.24 3.6 
L 5.76 3.6 
L 5.76 52.8 
z
" style="fill: none"/>
   </g>
   <g id="matplotlib.axis_1"/>
   <g id="matplotlib.axis_2"/>
   <g id="line2d_1">
    <path d="M 5.76 42.96 
L 138.24 42.96 
" clip-path="url(#p78075973e1)" style="fill: none; stroke: #b2b2b2; stroke-opacity: 0.35; stroke-width: 0.5; stroke-linecap: square"/>
   </g>
   <g id="line2d_2">
    <path d="M 5.76 33.12 
L 138.24 33.12 
" clip-path="url(#p78075973e1)" style="fill: none; stroke: #b2b2b2; stroke-opacity: 0.35; stroke-width: 0.5; stroke-linecap: square"/>
   </g>
   <g id="line2d_3">
    <path d="M 5.76 23.28 
L 138.24 23.28 
" clip-path="url(#p78075973e1)" style="fill: none; stroke: #b2b2b2; stroke-opacity: 0.35; stroke-width: 0.5; stroke-linecap: square"/>
   </g>
   <g id="line2d_4">
    <path d="M 5.76 13.44 
L 138.24 13.44 
" clip-path="url(#p78075973e1)" style="fill: none; stroke: #b2b2b2; stroke-opacity: 0.35; stroke-width: 0.5; stroke-linecap: square"/>
   </g>
   <g id="line2d_5">
    <path d="M 5.76 46.0596 
L 7.254458 45.18384 
L 8.748916 45.23796 
L 10.243374 45.20844 
L 11.737832 45.24288 
L 13.23229 45.47904 
L 14.726748 45.65616 
L 16.221206 45.98088 
L 17.715664 45.70536 
L 19.210122 45.38556 
L 20.70458 45.31668 
L 22.199038 45.58728 
L 23.693496 45.35604 
L 25.187954 45.40032 
L 26.682412 45.11496 
L 28.17687 44.42124 
L 29.671328 44.25888 
L 31.165786 44.18508 
L 32.660244 43.62912 
L 34.154702 43.24044 
L 35.64916 43.8702 
L 37.143618 43.60944 
L 38.638076 43.92924 
L 40.132534 43.93416 
L 41.626992 43.46184 
L 43.12145 43.5012 
L 44.615908 42.72384 
L 46.110366 42.51228 
L 47.604824 43.08792 
L 49.099282 42.75828 
L 50.59374 42.90096 
L 52.088198 43.57008 
L 53.582656 44.2392 
L 55.077114 45.23304 
L 56.571572 44.77548 
L 58.06603 44.91816 
L 59.560488 45.04608 
L 61.054946 45.07068 
L 62.549404 46.1334 
L 64.043862 45.4446 
L 65.53832 45.06084 
L 67.032778 45.33144 
L 68.527236 46.30068 
L 70.021694 46.34496 
L 71.516152 47.89476 
L 73.01061 48.26376 
L 74.505068 47.96364 
L 75.766726 48.55896 
L 76.954353 49.06572 
L 78.44805 50.04972 
L 79.936108 49.24776 
L 81.464728 49.32156 
L 82.946853 49.31172 
L 84.449838 49.43964 
L 85.9412 49.59708 
L 87.430279 49.80372 
L 88.924287 49.86768 
L 90.400774 49.479 
L 91.816375 49.24776 
L 93.406692 49.48392 
L 94.713426 49.37568 
L 96.393239 49.479 
L 97.885881 49.7004 
L 99.371604 49.62168 
L 100.856929 49.5282 
L 102.368459 49.49376 
L 103.867414 49.98576 
L 105.235622 49.96608 
L 106.850951 49.7004 
L 108.338749 49.27236 
L 109.830371 49.37076 
L 111.30722 49.68072 
L 112.835632 49.25268 
L 114.314661 49.51344 
L 115.812596 49.4052 
L 117.298682 49.34124 
L 118.796358 49.09032 
L 120.290106 49.24284 
L 121.773097 49.49868 
L 123.282067 49.64628 
L 124.781005 49.58724 
L 126.265863 49.36092 
L 127.759733 49.41996 
L 129.260072 49.45932 
L 130.751641 49.16904 
L 132.24411 49.22808 
L 133.76716 49.27236 
L 135.265838 48.87384 
L 136.734143 48.74592 
L 138.24 48.70164 
" clip-path="url(#p78075973e1)" style="fill: none; stroke: #bebebe; stroke-width: 0.6; stroke-linecap: round"/>
   </g>
   <g id="line2d_6">
    <path d="M 5.76 38.32536 
L 7.254458 37.26264 
L 8.748916 37.26264 
L 10.243374 37.09044 
L 11.737832 37.06092 
L 13.23229 37.34628 
L 14.726748 37.48404 
L 16.221206 37.77924 
L 17.715664 37.61688 
L 19.210122 37.45944 
L 20.70458 37.46928 
L 22.199038 37.56276 
L 23.693496 37.31184 
L 25.187954 37.33644 
L 26.682412 37.09536 
L 28.17687 36.23928 
L 29.671328 36.20976 
L 31.165786 36.11628 
L 32.660244 35.48652 
L 34.154702 35.0142 
L 35.64916 35.93424 
L 37.143618 36.36228 
L 38.638076 36.50988 
L 40.132534 36.5148 
L 41.626992 36.25404 
L 43.12145 36.46068 
L 44.615908 34.83708 
L 46.110366 34.57632 
L 47.604824 34.84692 
L 49.099282 35.00436 
L 50.59374 34.93056 
L 52.088198 35.088 
L 53.582656 35.78664 
L 55.077114 37.55292 
L 56.571572 37.26756 
L 58.06603 37.46436 
L 59.560488 37.44468 
L 61.054946 37.45944 
L 62.549404 38.41392 
L 64.043862 37.61196 
L 65.53832 36.95268 
L 67.032778 37.05108 
L 68.527236 38.37948 
L 70.021694 39.20604 
L 71.516152 41.03136 
L 73.01061 42.26628 
L 74.505068 41.73492 
L 75.766726 42.23676 
L 76.954353 43.38804 
L 78.44805 44.89356 
L 79.936108 43.6242 
L 81.464728 43.575 
L 82.946853 43.53072 
L 84.449838 43.72752 
L 85.9412 44.0916 
L 87.430279 44.436 
L 88.924287 44.49012 
L 90.400774 43.81608 
L 91.816375 43.7226 
L 93.406692 44.5344 
L 94.713426 44.19 
L 96.393239 44.21952 
L 97.885881 44.3868 
L 99.371604 44.51472 
L 100.856929 44.4606 
L 102.368459 44.3868 
L 103.867414 45.174 
L 105.235622 45.23796 
L 106.850951 44.81484 
L 108.338749 43.821 
L 109.830371 44.01288 
L 111.30722 44.66232 
L 112.835632 43.93908 
L 114.314661 44.39664 
L 115.812596 44.12112 
L 117.298682 44.33268 
L 118.796358 43.3044 
L 120.290106 43.6242 
L 121.773097 44.29824 
L 123.282067 44.53932 
L 124.781005 44.30808 
L 126.265863 43.8702 
L 127.759733 44.00304 
L 129.260072 43.97844 
L 130.751641 43.41756 
L 132.24411 43.48152 
L 133.76716 43.48644 
L 135.265838 42.49752 
L 136.734143 41.73984 
L 138.24 41.7546 
" clip-path="url(#p78075973e1)" style="fill: none; stroke: #4a8dff; stroke-width: 0.6; stroke-linecap: round"/>
   </g>
   <g id="line2d_7">
    <path d="M 5.76 43.34868 
L 7.254458 42.03504 
L 8.748916 41.91696 
L 10.243374 41.8038 
L 11.737832 41.84316 
L 13.23229 42.37944 
L 14.726748 42.26628 
L 16.221206 42.468 
L 17.715664 42.42864 
L 19.210122 42.18264 
L 20.70458 42.1728 
L 22.199038 42.50244 
L 23.693496 41.88252 
L 25.187954 42.32532 
L 26.682412 41.73 
L 28.17687 41.13468 
L 29.671328 40.80504 
L 31.165786 40.42128 
L 32.660244 39.16176 
L 34.154702 39.28968 
L 35.64916 40.48032 
L 37.143618 40.61316 
L 38.638076 40.84932 
L 40.132534 40.88376 
L 41.626992 40.6968 
L 43.12145 40.53936 
L 44.615908 38.50248 
L 46.110366 37.63656 
L 47.604824 38.34012 
L 49.099282 38.37456 
L 50.59374 38.5812 
L 52.088198 39.2454 
L 53.582656 39.8358 
L 55.077114 41.93172 
L 56.571572 41.42004 
L 58.06603 41.37576 
L 59.560488 41.39052 
L 61.054946 41.5086 
L 62.549404 42.80256 
L 64.043862 41.93664 
L 65.53832 41.49384 
L 67.032778 41.51352 
L 68.527236 43.78164 
L 70.021694 43.9932 
L 71.516152 46.66968 
L 73.01061 47.55036 
L 74.505068 46.64508 
L 75.766726 47.89476 
L 76.954353 48.89352 
L 78.44805 49.84308 
L 79.936108 49.00176 
L 81.464728 49.233 
L 82.946853 48.97716 
L 84.449838 49.22316 
L 85.9412 49.36092 
L 87.430279 49.49868 
L 88.924287 49.58724 
L 90.400774 49.28712 
L 91.816375 49.16904 
L 93.406692 49.39044 
L 94.713426 49.29696 
L 96.393239 49.479 
L 97.885881 49.55772 
L 99.371604 49.51344 
L 100.856929 49.44948 
L 102.368459 49.41996 
L 103.867414 49.8234 
L 105.235622 49.86768 
L 106.850951 49.72992 
L 108.338749 49.39536 
L 109.830371 49.52328 
L 111.30722 49.6758 
L 112.835632 49.47408 
L 114.314661 49.60692 
L 115.812596 49.37568 
L 117.298682 49.36584 
L 118.796358 48.6672 
L 120.290106 48.95256 
L 121.773097 49.36092 
L 123.282067 49.54788 
L 124.781005 49.5282 
L 126.265863 49.09032 
L 127.759733 49.16412 
L 129.260072 49.2084 
L 130.751641 48.93288 
L 132.24411 48.95748 
L 133.76716 48.89844 
L 135.265838 48.48024 
L 136.734143 48.1998 
L 138.24 48.28344 
" clip-path="url(#p78075973e1)" style="fill: none; stroke: #f5841e; stroke-width: 0.7; stroke-linecap: round"/>
   </g>
  </g>
 </g>
 <defs>
  <clipPath id="p78075973e1">
   <rect x="5.76" y="3.6" width="132.48" height="49.2"/>
  </clipPath>
 </defs>
</svg>
