<?xml version="1.0" encoding="utf-8" standalone="no"?>
<!DOCTYPE svg PUBLIC "-//W3C//DTD SVG 1.1//EN"
  "http://www.w3.org/Graphics/SVG/1.1/DTD/svg11.dtd">
<svg xmlns:xlink="http://www.w3.org/1999/xlink" width="144pt" height="60pt" viewBox="0 0 144 60" xmlns="http://www.w3.org/2000/svg" version="1.1">
  <desc id="nav-meta">{"window":"1m","count":4,"labels":["01.02","11.02","20.02","02.03"],"tick_utc":["2026-02-01T12:00:00Z","2026-02-11T03:39:24Z","2026-02-20T03:20:24Z","2026-03-02T03:18:56Z"]}</desc>

 <metadata>
  <rdf:RDF xmlns:dc="http://purl.org/dc/elements/1.1/" xmlns:cc="http://creativecommons.org/ns#" xmlns:rdf="http://www.w3.org/1999/02/22-rdf-syntax-ns#">
   <cc:Work>
    <dc:type rdf:resource="http://purl.org/dc/dcmitype/StillImage"/>
    <dc:date>2026-03-02T13:45:29.315447</dc:date>
    <dc:format>image/svg+xml</dc:format>
    <dc:creator>
     <cc:Agent>
      <dc:title>Matplotlib v3.10.8, https://matplotlib.org/</dc:title>
     </cc:Agent>
    </dc:creator>
   </cc:Work>
  </rdf:RDF>
 </metadata>
 <defs>
  <style type="text/css">*{stroke-linejoin: round; stroke-linecap: butt}</style>
 </defs>
 <g id="figure_1">
  <g id="patch_1">
   <path d="M 0 60 
L 144 60 
L 144 0 
L 0 0 
L 0 60 
z
" style="fill: none; opacity: 0"/>
  </g>
  <g id="axes_1">
   <g id="patch_2">
    <path d="M 5.76 52.8 
L 138.24 52.8 
L 138.24 3.6 
L 5.76 3.6 
L 5.76 52.8 
z
" style="fill: none"/>
   </g>
   <g id="matplotlib.axis_1"/>
   <g id="matplotlib.axis_2"/>
   <g id="line2d_1">
    <path d="M 5.76 42.96 
L 138.24 42.96 
" clip-path="url(#pccedaa15dd)" style="fill: none; stroke: #b2b2b2; stroke-opacity: 0.35; stroke-width: 0.5; stroke-linecap: square"/>
   </g>
   <g id="line2d_2">
    <path d="M 5.76 33.12 
L 138.24 33.12 
" clip-path="url(#pccedaa15dd)" style="fill: none; stroke: #b2b2b2; stroke-opacity: 0.35; stroke-width: 0.5; stroke-linecap: square"/>
   </g>
   <g id="line2d_3">
    <path d="M 5.76 23.28 
L 138.24 23.28 
" clip-path="url(#pccedaa15dd)" style="fill: none; stroke: #b2b2b2; stroke-opacity: 0.35; stroke-width: 0.5; stroke-linecap: square"/>
   </g>
   <g id="line2d_4">
    <path d="M 5.76 13.44 
L 138.24 13.44 
" clip-path="url(#pccedaa15dd)" style="fill: none; stroke: #b2b2b2; stroke-opacity: 0.35; stroke-width: 0.5; stroke-linecap: square"/>
   </g>
   <g id="line2d_5">
    <path d="M 5.76 47.89476 
L 10.385997 48.26376 
L 15.011995 47.96364 
L 18.917375 48.55896 
L 22.593598 49.06572 
L 27.217239 50.04972 
L 31.823426 49.24776 
L 36.555169 49.32156 
L 41.142991 49.31172 
L 45.795384 49.43964 
L 50.411798 49.59708 
L 55.021144 49.80372 
L 59.645749 49.86768 
L 64.216117 49.479 
L 68.598018 49.24776 
L 73.520743 49.48392 
L 77.565653 49.37568 
L 82.765403 49.479 
L 87.385778 49.7004 
L 91.984737 49.62168 
L 96.582465 49.5282 
L 101.261308 49.49376 
L 105.901226 49.98576 
L 110.136423 49.96608 
L 115.136569 49.7004 
L 119.741953 49.27236 
L 124.35917 49.37076 
L 128.930662 49.68072 
L 133.661762 49.25268 
L 138.24 49.51344 
" clip-path="url(#pccedaa15dd)" style="fill: none; stroke: #bebebe; stroke-width: 0.6; stroke-linecap: round"/>
   </g>
   <g id="line2d_6">
    <path d="M 5.76 41.03136 
L 10.385997 42.26628 
L 15.011995 41.73492 
L 18.917375 42.23676 
L 22.593598 43.38804 
L 27.217239 44.89356 
L 31.823426 43.6242 
L 36.555169 43.575 
L 41.142991 43.53072 
L 45.795384 43.72752 
L 50.411798 44.0916 
L 55.021144 44.436 
L 59.645749 44.49012 
L 64.216117 43.81608 
L 68.598018 43.7226 
L 73.520743 44.5344 
L 77.565653 44.19 
L 82.765403 44.21952 
L 87.385778 44.3868 
L 91.984737 44.51472 
L 96.582465 44.4606 
L 101.261308 44.3868 
L 105.901226 45.174 
L 110.136423 45.23796 
L 115.136569 44.81484 
L 119.741953 43.821 
L 124.35917 44.01288 
L 128.930662 44.66232 
L 133.661762 43.93908 
L 138.24 44.39664 
" clip-path="url(#pccedaa15dd)" style="fill: none; stroke: #4a8dff; stroke-width: 0.6; stroke-linecap: round"/>
   </g>
   <g id="line2d_7">
    <path d="M 5.76 46.66968 
L 10.385997 47.55036 
L 15.011995 46.64508 
L 18.917375 47.89476 
L 22.593598 48.89352 
L 27.217239 49.84308 
L 31.823426 49.00176 
L 36.555169 49.233 
L 41.142991 48.97716 
L 45.795384 49.22316 
L 50.411798 49.36092 
L 55.021144 49.49868 
L 59.645749 49.58724 
L 64.216117 49.28712 
L 68.598018 49.16904 
L 73.520743 49.39044 
L 77.565653 49.29696 
L 82.765403 49.479 
L 87.385778 49.55772 
L 91.984737 49.51344 
L 96.582465 49.44948 
L 101.261308 49.41996 
L 105.901226 49.8234 
L 110.136423 49.86768 
L 115.136569 49.72992 
L 119.741953 49.39536 
L 124.35917 49.52328 
L 128.930662 49.6758 
L 133.661762 49.47408 
L 138.24 49.60692 
" clip-path="url(#pccedaa15dd)" style="fill: none; stroke: #f5841e; stroke-width: 0.7; stroke-linecap: round"/>
   </g>
  </g>
 </g>
 <defs>
  <clipPath id="pccedaa15dd">
   <rect x="5.76" y="3.6" width="132.48" height="49.2"/>
  </clipPath>
 </defs>
</svg>
