<?xml version="1.0" encoding="utf-8" standalone="no"?>
<!DOCTYPE svg PUBLIC "-//W3C//DTD SVG 1.1//EN"
  "http://www.w3.org/Graphics/SVG/1.1/DTD/svg11.dtd">
<svg xmlns:xlink="http://www.w3.org/1999/xlink" width="144pt" height="60pt" viewBox="0 0 144 60" xmlns="http://www.w3.org/2000/svg" version="1.1">
  <desc id="nav-meta">{"window":"1y","count":4,"labels":["30.04","29.08","28.12","29.04"],"tick_utc":["2025-04-30T12:00:00Z","2025-08-29T12:00:00Z","2025-12-28T12:00:00Z","2026-04-29T04:21:07Z"]}</desc>

 <metadata>
  <rdf:RDF xmlns:dc="http://purl.org/dc/elements/1.1/" xmlns:cc="http://creativecommons.org/ns#" xmlns:rdf="http://www.w3.org/1999/02/22-rdf-syntax-ns#">
   <cc:Work>
    <dc:type rdf:resource="http://purl.org/dc/dcmitype/StillImage"/>
    <dc:date>2026-04-29T14:56:26.526744</dc:date>
    <dc:format>image/svg+xml</dc:format>
    <dc:creator>
     <cc:Agent>
      <dc:title>Matplotlib v3.10.9, https://matplotlib.org/</dc:title>
     </cc:Agent>
    </dc:creator>
   </cc:Work>
  </rdf:RDF>
 </metadata>
 <defs>
  <style type="text/css">*{stroke-linejoin: round; stroke-linecap: butt}</style>
 </defs>
 <g id="figure_1">
  <g id="patch_1">
   <path d="M 0 60 
L 144 60 
L 144 0 
L 0 0 
L 0 60 
z
" style="fill: none; opacity: 0"/>
  </g>
  <g id="axes_1">
   <g id="patch_2">
    <path d="M 5.76 52.8 
L 138.24 52.8 
L 138.24 3.6 
L 5.76 3.6 
L 5.76 52.8 
z
" style="fill: none"/>
   </g>
   <g id="matplotlib.axis_1"/>
   <g id="matplotlib.axis_2"/>
   <g id="line2d_1">
    <path d="M 5.76 42.96 
L 138.24 42.96 
" clip-path="url(#p7b7f4cf643)" style="fill: none; stroke: #b2b2b2; stroke-opacity: 0.35; stroke-width: 0.5; stroke-linecap: square"/>
   </g>
   <g id="line2d_2">
    <path d="M 5.76 33.12 
L 138.24 33.12 
" clip-path="url(#p7b7f4cf643)" style="fill: none; stroke: #b2b2b2; stroke-opacity: 0.35; stroke-width: 0.5; stroke-linecap: square"/>
   </g>
   <g id="line2d_3">
    <path d="M 5.76 23.28 
L 138.24 23.28 
" clip-path="url(#p7b7f4cf643)" style="fill: none; stroke: #b2b2b2; stroke-opacity: 0.35; stroke-width: 0.5; stroke-linecap: square"/>
   </g>
   <g id="line2d_4">
    <path d="M 5.76 13.44 
L 138.24 13.44 
" clip-path="url(#p7b7f4cf643)" style="fill: none; stroke: #b2b2b2; stroke-opacity: 0.35; stroke-width: 0.5; stroke-linecap: square"/>
   </g>
   <g id="line2d_5">
    <path d="M 5.76 42.5418 
L 6.124275 42.37944 
L 6.48855 41.98584 
L 6.852825 42.345 
L 7.2171 42.49752 
L 7.581375 42.86652 
L 7.94565 42.49752 
L 8.6742 42.44832 
L 9.038475 40.33272 
L 9.40275 39.12732 
L 9.767024 38.52216 
L 10.131299 39.10272 
L 10.495574 38.901 
L 10.859849 37.6464 
L 11.588399 39.639 
L 12.316949 40.008 
L 12.681224 39.27492 
L 13.045499 39.90468 
L 13.409774 39.6882 
L 14.138324 38.22696 
L 14.502599 38.901 
L 14.866874 38.69436 
L 15.595424 38.86164 
L 15.959699 38.62056 
L 16.688249 39.88992 
L 17.052524 41.23308 
L 18.145348 41.17404 
L 18.873898 41.62176 
L 19.238173 42.79272 
L 19.602448 42.30564 
L 20.330998 41.7546 
L 20.695273 40.62792 
L 21.059548 40.131 
L 21.423823 40.6476 
L 21.788098 41.73492 
L 22.516648 42.76812 
L 22.880923 41.73492 
L 23.245198 41.89728 
L 23.609473 42.345 
L 23.973748 42.5664 
L 24.338023 42.46308 
L 25.066573 44.20476 
L 25.430847 44.45076 
L 25.795122 42.7632 
L 26.159397 42.63036 
L 26.523672 42.94524 
L 26.887947 43.52088 
L 27.252222 43.1076 
L 27.616497 41.98092 
L 28.345047 41.43972 
L 28.709322 42.4926 
L 29.073597 41.79888 
L 29.437872 41.78412 
L 29.802147 42.37452 
L 30.166422 42.3942 
L 30.530697 41.83332 
L 30.894972 42.24168 
L 31.259247 41.84316 
L 31.987797 40.2786 
L 32.352072 40.42128 
L 32.716347 40.71648 
L 33.444896 40.48032 
L 33.809171 40.26384 
L 34.173446 38.97972 
L 34.901996 38.51724 
L 35.266271 38.57628 
L 35.630546 38.04492 
L 35.994821 36.03264 
L 36.359096 34.88136 
L 36.723371 36.92316 
L 37.087646 37.8432 
L 37.451921 37.37088 
L 37.816196 37.53324 
L 38.180471 37.056 
L 38.544746 37.77924 
L 38.909021 38.02032 
L 39.273296 38.45328 
L 39.637571 39.1962 
L 40.001846 40.41636 
L 40.366121 40.97232 
L 40.730396 40.53444 
L 41.094671 39.55536 
L 41.458945 40.24908 
L 41.82322 39.7128 
L 42.187495 38.778 
L 42.55177 38.59104 
L 43.28032 37.794 
L 43.644595 38.82228 
L 44.00887 36.53448 
L 44.373145 35.334 
L 45.101695 37.44468 
L 45.46597 36.90348 
L 45.830245 36.65748 
L 46.558795 38.64516 
L 46.92307 37.2282 
L 47.287345 38.14332 
L 47.65162 35.53572 
L 48.015895 35.04372 
L 48.38017 34.80264 
L 48.744445 37.23804 
L 49.837269 33.67104 
L 50.201544 34.90596 
L 51.294369 35.9736 
L 51.658644 34.36476 
L 52.022919 34.1778 
L 52.387194 35.22084 
L 52.751469 35.11752 
L 53.115744 35.54556 
L 54.572844 32.44104 
L 54.937119 31.83096 
L 55.301394 30.06468 
L 55.665669 30.01056 
L 56.029944 30.291 
L 56.394219 31.16184 
L 56.758494 30.74856 
L 57.122768 29.71536 
L 57.487043 29.37588 
L 57.851318 30.57636 
L 58.215593 30.42876 
L 58.579868 30.79284 
L 58.944143 32.91828 
L 59.308418 33.72024 
L 59.672693 34.05972 
L 60.036968 36.5886 
L 60.401243 34.90104 
L 60.765518 35.10276 
L 61.129793 34.16796 
L 61.494068 33.8826 
L 61.858343 34.43364 
L 62.586893 31.05852 
L 62.951168 31.26024 
L 63.315443 31.92936 
L 63.679718 31.85064 
L 64.043993 31.3242 
L 64.408268 32.84448 
L 64.772542 31.78176 
L 65.136817 32.85924 
L 65.501092 36.8838 
L 65.865367 38.39424 
L 66.229642 35.95392 
L 66.593917 34.53696 
L 66.958192 35.20608 
L 67.686742 37.57752 
L 68.051017 37.90716 
L 68.415292 37.18884 
L 68.779567 37.18392 
L 69.143842 36.89364 
L 69.508117 37.42008 
L 69.872392 38.17284 
L 70.236667 36.687 
L 70.600942 36.42132 
L 70.965217 36.34752 
L 71.329492 35.56032 
L 71.693767 35.72268 
L 72.058042 36.29832 
L 72.422317 36.32292 
L 72.786591 37.61688 
L 73.150866 37.2282 
L 73.515141 37.34628 
L 73.879416 37.23804 
L 74.243691 40.008 
L 74.607966 41.36592 
L 74.972241 40.43604 
L 75.336516 41.44956 
L 75.700791 40.53444 
L 76.065066 41.02152 
L 76.429341 40.22448 
L 76.793616 39.79644 
L 77.157891 41.51844 
L 77.522166 41.66604 
L 78.250716 43.51596 
L 78.614991 43.43724 
L 78.979266 43.71276 
L 79.343541 44.59836 
L 79.707816 43.30932 
L 80.80064 44.88372 
L 81.164915 44.99688 
L 81.52919 44.57868 
L 81.893465 43.5996 
L 82.25774 43.51596 
L 82.622015 43.00428 
L 82.98629 43.2798 
L 83.350565 43.71768 
L 84.079115 44.0916 
L 84.44339 45.11004 
L 84.807665 43.55532 
L 85.17194 42.72876 
L 85.90049 44.27364 
L 86.62904 44.47536 
L 86.993315 44.25888 
L 87.35759 43.64388 
L 87.721865 43.84068 
L 88.08614 43.85052 
L 88.450414 44.36712 
L 88.814689 44.26872 
L 89.178964 44.74104 
L 89.543239 44.98704 
L 89.907514 44.84436 
L 90.271789 45.58728 
L 90.636064 46.0596 
L 91.000339 45.18384 
L 92.457439 45.47904 
L 92.821714 45.65616 
L 93.185989 45.98088 
L 93.914539 45.38556 
L 94.278814 45.31668 
L 94.643089 45.58728 
L 95.007364 45.35604 
L 95.371639 45.40032 
L 95.735914 45.11496 
L 96.100189 44.42124 
L 96.828738 44.18508 
L 97.557288 43.24044 
L 97.921563 43.8702 
L 98.285838 43.60944 
L 98.650113 43.92924 
L 99.014388 43.93416 
L 99.378663 43.46184 
L 99.742938 43.5012 
L 100.107213 42.72384 
L 100.471488 42.51228 
L 100.835763 43.08792 
L 101.200038 42.75828 
L 101.564313 42.90096 
L 102.292863 44.2392 
L 102.657138 45.23304 
L 103.021413 44.77548 
L 103.749963 45.04608 
L 104.114237 45.07068 
L 104.478512 46.1334 
L 104.842787 45.4446 
L 105.207062 45.06084 
L 105.571337 45.33144 
L 105.935612 46.30068 
L 106.299887 46.34496 
L 106.664162 47.89476 
L 107.028437 48.26376 
L 107.392712 47.96364 
L 108.353816 50.04972 
L 108.716531 49.24776 
L 110.180276 49.59708 
L 110.543239 49.80372 
L 110.907405 49.86768 
L 111.612353 49.24776 
L 111.999993 49.48392 
L 112.318511 49.37568 
L 112.727966 49.479 
L 113.091798 49.7004 
L 114.184429 49.49376 
L 114.5498 49.98576 
L 114.883301 49.96608 
L 115.277039 49.7004 
L 115.63969 49.27236 
L 116.003274 49.37076 
L 116.363257 49.68072 
L 116.735808 49.25268 
L 117.096322 49.51344 
L 118.188738 49.09032 
L 119.647499 49.58724 
L 120.009434 49.36092 
L 120.739274 49.45932 
L 121.102845 49.16904 
L 121.837879 49.27236 
L 122.203183 48.87384 
L 122.928137 48.70164 
L 123.292513 49.03128 
L 123.653242 49.1592 
L 124.015383 49.08048 
L 124.750237 49.36584 
L 125.502544 48.90828 
L 125.84412 49.05096 
L 126.569647 49.64628 
L 128.033577 49.59708 
L 128.393054 49.8726 
L 129.118901 49.80864 
L 130.215786 49.83816 
L 130.580651 49.50852 
L 130.943657 49.68564 
L 131.669989 49.48884 
L 132.406942 49.69056 
L 132.768898 49.40028 
L 133.132895 49.58724 
L 134.222536 49.19856 
L 134.591622 49.43472 
L 134.956799 49.50852 
L 136.77354 49.37568 
L 137.143482 49.4052 
L 137.511682 49.29204 
L 137.87672 49.5528 
L 138.24 49.50852 
L 138.24 49.50852 
" clip-path="url(#p7b7f4cf643)" style="fill: none; stroke: #bebebe; stroke-width: 0.6; stroke-linecap: round"/>
   </g>
   <g id="line2d_6">
    <path d="M 5.76 45.61188 
L 6.124275 45.63156 
L 6.48855 45.31176 
L 7.2171 45.3462 
L 7.581375 45.52824 
L 8.309925 45.47412 
L 8.6742 45.51348 
L 9.038475 42.77796 
L 9.40275 41.75952 
L 9.767024 40.04244 
L 10.131299 40.58364 
L 10.495574 40.69188 
L 10.859849 39.38808 
L 11.588399 40.33764 
L 11.952674 40.32288 
L 12.316949 40.81488 
L 12.681224 40.88376 
L 13.045499 40.44588 
L 13.409774 40.46556 
L 13.774049 40.21956 
L 14.138324 39.52584 
L 14.502599 40.49508 
L 15.595424 40.19496 
L 15.959699 39.4914 
L 16.323974 39.38808 
L 16.688249 39.69312 
L 17.052524 40.46556 
L 17.781073 40.36716 
L 18.145348 39.8604 
L 18.509623 39.96372 
L 18.873898 39.85548 
L 19.238173 41.1888 
L 19.966723 40.4508 
L 20.330998 40.5738 
L 21.059548 38.45328 
L 21.423823 38.68452 
L 21.788098 39.55536 
L 22.152373 40.09164 
L 22.516648 40.39668 
L 23.245198 40.2048 
L 23.609473 40.52952 
L 24.338023 40.48032 
L 25.066573 42.26136 
L 25.430847 42.5664 
L 25.795122 41.17404 
L 26.159397 41.0166 
L 26.523672 41.22324 
L 27.252222 41.17896 
L 27.616497 41.08056 
L 27.980772 40.61808 
L 28.345047 40.7214 
L 28.709322 41.30688 
L 29.073597 40.11132 
L 29.437872 39.99816 
L 29.802147 40.56888 
L 30.166422 40.51476 
L 30.530697 40.131 
L 30.894972 40.3278 
L 31.259247 39.81612 
L 31.987797 37.46436 
L 32.352072 37.39056 
L 32.716347 37.50372 
L 33.444896 37.01172 
L 33.809171 36.16056 
L 34.173446 34.4976 
L 34.537721 33.69072 
L 35.266271 32.89368 
L 35.630546 31.73256 
L 35.994821 31.68336 
L 36.359096 31.8162 
L 36.723371 32.64276 
L 37.087646 32.0868 
L 37.816196 31.85064 
L 38.180471 30.98964 
L 38.544746 31.53576 
L 38.909021 31.521 
L 39.273296 31.38816 
L 39.637571 32.17044 
L 40.001846 33.68088 
L 40.366121 34.28604 
L 40.730396 33.58248 
L 41.094671 32.0376 
L 41.458945 32.76576 
L 41.82322 32.259 
L 42.187495 30.65508 
L 42.55177 29.93676 
L 42.916045 28.14588 
L 43.644595 28.40664 
L 44.00887 25.73508 
L 44.373145 24.62316 
L 44.73742 26.10408 
L 45.101695 26.97984 
L 45.46597 27.00936 
L 45.830245 26.58132 
L 46.19452 27.7818 
L 46.558795 29.49888 
L 46.92307 27.68832 
L 47.287345 28.44108 
L 47.65162 24.16068 
L 48.015895 24.55428 
L 48.38017 24.51984 
L 48.744445 27.32916 
L 49.108719 25.7646 
L 49.472994 26.48784 
L 49.837269 26.43372 
L 50.201544 27.44724 
L 50.930094 27.27504 
L 51.294369 27.8802 
L 51.658644 27.72276 
L 52.022919 26.84208 
L 52.387194 27.91956 
L 52.751469 27.8556 
L 53.115744 28.09668 
L 53.480019 27.87528 
L 54.208569 27.83592 
L 54.572844 27.57024 
L 54.937119 26.77812 
L 55.301394 25.01184 
L 56.029944 25.71048 
L 56.394219 26.31564 
L 56.758494 26.45832 
L 57.122768 25.8384 
L 57.487043 25.84824 
L 57.851318 26.6994 
L 58.215593 26.62068 
L 58.579868 26.8224 
L 58.944143 28.61328 
L 59.672693 28.97244 
L 60.036968 30.99456 
L 60.401243 29.76456 
L 60.765518 29.8974 
L 61.129793 29.02164 
L 61.494068 28.50012 
L 61.858343 29.00688 
L 62.586893 26.601 
L 62.951168 26.3796 
L 63.315443 26.5764 
L 63.679718 26.3796 
L 64.043993 25.1496 
L 64.408268 26.81256 
L 64.772542 26.29596 
L 65.136817 27.41772 
L 65.501092 31.19136 
L 65.865367 31.80144 
L 66.229642 28.89864 
L 66.593917 28.28364 
L 67.686742 30.80268 
L 68.051017 31.22088 
L 68.415292 30.8076 
L 68.779567 30.13356 
L 69.143842 30.17784 
L 69.872392 31.42752 
L 70.236667 31.04376 
L 70.600942 30.49764 
L 70.965217 30.3648 
L 71.329492 28.88388 
L 71.693767 29.15448 
L 72.058042 30.15324 
L 72.786591 31.4226 
L 73.515141 30.9306 
L 73.879416 30.66 
L 74.607966 34.99944 
L 74.972241 34.07448 
L 75.336516 34.9158 
L 75.700791 34.02528 
L 76.065066 34.26144 
L 76.429341 33.0216 
L 76.793616 33.10524 
L 77.157891 34.1532 
L 77.522166 34.2024 
L 78.250716 36.34752 
L 78.614991 35.89488 
L 79.343541 36.94776 
L 79.707816 36.2688 
L 80.072091 36.97236 
L 80.436365 38.286 
L 80.80064 38.76324 
L 81.164915 38.73864 
L 81.52919 38.51724 
L 81.893465 37.42992 
L 82.25774 37.42008 
L 82.622015 36.90348 
L 82.98629 36.98712 
L 83.350565 36.86412 
L 83.71484 37.16424 
L 84.079115 37.14948 
L 84.44339 38.52216 
L 85.17194 35.71776 
L 85.536215 36.15564 
L 85.90049 36.93792 
L 86.62904 36.72636 
L 86.993315 36.21468 
L 87.35759 34.8174 
L 87.721865 34.7928 
L 88.08614 35.42748 
L 88.450414 36.49512 
L 88.814689 36.28356 
L 89.178964 36.6378 
L 89.543239 37.3512 
L 89.907514 37.3512 
L 90.271789 38.31552 
L 90.636064 38.32536 
L 91.000339 37.26264 
L 91.364614 37.26264 
L 91.728889 37.09044 
L 92.093164 37.06092 
L 92.457439 37.34628 
L 92.821714 37.48404 
L 93.185989 37.77924 
L 93.914539 37.45944 
L 94.643089 37.56276 
L 95.007364 37.31184 
L 95.371639 37.33644 
L 95.735914 37.09536 
L 96.100189 36.23928 
L 96.828738 36.11628 
L 97.557288 35.0142 
L 97.921563 35.93424 
L 98.285838 36.36228 
L 98.650113 36.50988 
L 99.014388 36.5148 
L 99.378663 36.25404 
L 99.742938 36.46068 
L 100.107213 34.83708 
L 100.471488 34.57632 
L 101.200038 35.00436 
L 101.564313 34.93056 
L 101.928588 35.088 
L 102.292863 35.78664 
L 102.657138 37.55292 
L 103.021413 37.26756 
L 103.385688 37.46436 
L 104.114237 37.45944 
L 104.478512 38.41392 
L 105.207062 36.95268 
L 105.571337 37.05108 
L 105.935612 38.37948 
L 106.299887 39.20604 
L 106.664162 41.03136 
L 107.028437 42.26628 
L 107.392712 41.73492 
L 107.700242 42.23676 
L 108.353816 44.89356 
L 108.716531 43.6242 
L 109.450402 43.53072 
L 109.816755 43.72752 
L 110.543239 44.436 
L 110.907405 44.49012 
L 111.267299 43.81608 
L 111.612353 43.7226 
L 111.999993 44.5344 
L 112.318511 44.19 
L 112.727966 44.21952 
L 113.453944 44.51472 
L 114.184429 44.3868 
L 114.5498 45.174 
L 114.883301 45.23796 
L 115.277039 44.81484 
L 115.63969 43.821 
L 116.003274 44.01288 
L 116.363257 44.66232 
L 116.735808 43.93908 
L 117.096322 44.39664 
L 117.461445 44.12112 
L 117.823679 44.33268 
L 118.188738 43.3044 
L 118.55284 43.6242 
L 118.91432 44.29824 
L 119.282132 44.53932 
L 119.647499 44.30808 
L 120.009434 43.8702 
L 120.373566 44.00304 
L 120.739274 43.97844 
L 121.102845 43.41756 
L 121.837879 43.48644 
L 122.561083 41.73984 
L 122.928137 41.7546 
L 123.653242 43.14204 
L 124.015383 43.083 
L 124.385106 43.35852 
L 124.750237 43.78164 
L 125.111139 43.21584 
L 125.502544 42.9354 
L 125.84412 43.10268 
L 126.569647 44.25396 
L 127.666177 43.74228 
L 128.033577 43.46676 
L 128.757746 43.79148 
L 129.488661 43.77672 
L 129.853876 43.2552 
L 130.215786 43.40772 
L 130.580651 42.49752 
L 130.943657 42.90588 
L 131.311284 42.8616 
L 131.669989 42.41388 
L 132.406942 42.79764 
L 132.768898 41.57256 
L 133.132895 41.86284 
L 133.498746 41.63652 
L 133.862279 41.85792 
L 134.222536 41.22324 
L 134.956799 42.1482 
L 135.319476 41.96616 
L 135.682621 41.59224 
L 136.413612 41.99076 
L 136.77354 41.91696 
L 137.143482 41.98584 
L 137.511682 41.41512 
L 137.87672 42.15312 
L 138.24 41.96124 
L 138.24 41.96124 
" clip-path="url(#p7b7f4cf643)" style="fill: none; stroke: #4a8dff; stroke-width: 0.6; stroke-linecap: round"/>
   </g>
   <g id="line2d_7">
    <path d="M 5.76 38.9994 
L 6.124275 39.00924 
L 6.48855 37.92684 
L 6.852825 37.71528 
L 7.2171 38.17284 
L 7.581375 38.96496 
L 7.94565 38.74848 
L 8.309925 37.71528 
L 8.6742 37.63164 
L 9.038475 34.64028 
L 9.40275 34.69932 
L 9.767024 33.87276 
L 10.131299 34.18764 
L 10.495574 34.73868 
L 10.859849 34.09416 
L 11.224124 34.38444 
L 11.588399 34.33032 
L 12.316949 34.57632 
L 12.681224 33.18396 
L 13.045499 33.38076 
L 13.409774 32.81004 
L 13.774049 31.38816 
L 14.138324 30.45336 
L 14.502599 32.59848 
L 14.866874 32.29344 
L 15.231149 31.78176 
L 15.595424 31.53084 
L 15.959699 31.68336 
L 16.323974 32.28852 
L 17.052524 34.1778 
L 17.416799 33.84324 
L 17.781073 33.3414 
L 18.145348 33.25284 
L 18.873898 33.7842 
L 19.238173 35.34384 
L 19.602448 33.981 
L 19.966723 33.35616 
L 20.330998 33.35124 
L 20.695273 31.09296 
L 21.059548 31.11756 
L 21.423823 31.87524 
L 21.788098 33.20856 
L 22.152373 33.17412 
L 22.516648 33.45456 
L 22.880923 33.4152 
L 23.245198 32.7264 
L 23.609473 33.84816 
L 24.338023 33.84324 
L 25.430847 35.73744 
L 25.795122 33.4398 
L 26.159397 33.20856 
L 26.523672 32.58372 
L 26.887947 32.71164 
L 27.616497 32.53944 
L 27.980772 32.013 
L 28.709322 33.3906 
L 29.073597 31.80144 
L 29.437872 31.41768 
L 29.802147 32.19012 
L 30.166422 32.10156 
L 30.530697 31.60956 
L 30.894972 32.0622 
L 31.259247 31.73748 
L 31.623522 30.56652 
L 31.987797 28.31808 
L 32.352072 27.48168 
L 32.716347 27.55548 
L 33.080622 26.71908 
L 33.444896 26.36484 
L 33.809171 27.42756 
L 34.537721 26.55672 
L 34.901996 27.27504 
L 35.266271 27.31932 
L 35.630546 27.63912 
L 35.994821 27.52596 
L 36.359096 26.3058 
L 36.723371 26.96016 
L 37.087646 27.09792 
L 37.451921 27.49644 
L 37.816196 27.2898 
L 38.180471 26.57148 
L 38.544746 27.27012 
L 39.273296 27.35376 
L 40.001846 29.62188 
L 40.366121 29.96136 
L 40.730396 29.14956 
L 41.094671 28.68216 
L 41.458945 29.184 
L 41.82322 28.7412 
L 42.187495 27.5358 
L 42.55177 27.91956 
L 42.916045 28.00812 
L 43.28032 26.64528 
L 43.644595 26.88636 
L 44.00887 26.1828 
L 44.373145 24.52476 
L 44.73742 27.0684 
L 45.101695 27.59484 
L 45.830245 27.49644 
L 46.19452 28.13112 
L 46.558795 29.8482 
L 46.92307 29.12004 
L 47.287345 30.03024 
L 47.65162 27.84576 
L 48.38017 29.54316 
L 48.744445 31.13232 
L 49.108719 30.31068 
L 49.472994 30.62064 
L 49.837269 29.97612 
L 50.201544 31.97364 
L 50.565819 31.82112 
L 50.930094 32.0868 
L 51.294369 31.63416 
L 51.658644 30.6354 
L 52.022919 30.37464 
L 52.387194 30.86172 
L 52.751469 30.89616 
L 53.115744 31.11756 
L 53.844294 30.22212 
L 54.208569 30.45828 
L 54.572844 29.2578 
L 54.937119 28.50504 
L 55.301394 28.18032 
L 55.665669 28.2738 
L 56.029944 28.569 
L 56.394219 28.55424 
L 56.758494 27.8802 
L 57.122768 28.03272 
L 57.487043 27.69324 
L 57.851318 28.42632 
L 58.215593 28.3968 
L 58.579868 28.60344 
L 58.944143 29.88756 
L 59.308418 30.22212 
L 59.672693 29.58252 
L 60.036968 31.73256 
L 60.401243 31.36356 
L 60.765518 31.39308 
L 61.494068 29.09544 
L 61.858343 29.2332 
L 62.222618 27.02412 
L 62.951168 25.16928 
L 63.315443 25.10532 
L 64.043993 23.92452 
L 64.408268 25.53336 
L 64.772542 24.62808 
L 65.136817 25.4448 
L 65.501092 29.64156 
L 65.865367 30.80268 
L 66.229642 28.65756 
L 66.593917 28.6428 
L 67.322467 30.87156 
L 67.686742 32.17044 
L 68.051017 32.97732 
L 68.415292 32.628 
L 68.779567 31.90476 
L 69.143842 30.92076 
L 69.508117 31.96872 
L 69.872392 32.39676 
L 70.236667 31.19628 
L 70.965217 30.42384 
L 71.329492 29.0118 
L 71.693767 29.15448 
L 72.058042 29.76456 
L 72.422317 31.2012 
L 72.786591 32.09172 
L 73.150866 31.43244 
L 73.879416 30.90108 
L 74.607966 35.35368 
L 74.972241 34.24668 
L 75.336516 35.5062 
L 75.700791 34.48284 
L 76.065066 35.02896 
L 76.429341 33.8334 
L 76.793616 33.243 
L 77.157891 34.69932 
L 77.886441 36.2934 
L 78.250716 38.901 
L 78.614991 38.37948 
L 78.979266 38.92068 
L 79.343541 40.09164 
L 79.707816 39.70788 
L 80.072091 40.4262 
L 80.436365 42.75336 
L 80.80064 43.54548 
L 81.164915 43.72752 
L 81.893465 41.976 
L 82.25774 42.42864 
L 82.622015 40.86408 
L 82.98629 40.47048 
L 84.079115 40.89852 
L 84.44339 42.9354 
L 84.807665 40.43604 
L 85.17194 39.31428 
L 85.536215 40.04244 
L 85.90049 41.43972 
L 86.264765 41.47416 
L 86.62904 41.02152 
L 86.993315 40.7952 
L 87.35759 39.75708 
L 87.721865 40.11132 
L 88.08614 39.87024 
L 88.450414 40.94772 
L 88.814689 40.97232 
L 89.543239 42.87144 
L 89.907514 42.17772 
L 90.271789 43.04364 
L 90.636064 43.34868 
L 91.000339 42.03504 
L 91.728889 41.8038 
L 92.093164 41.84316 
L 92.457439 42.37944 
L 92.821714 42.26628 
L 93.185989 42.468 
L 93.550264 42.42864 
L 93.914539 42.18264 
L 94.278814 42.1728 
L 94.643089 42.50244 
L 95.007364 41.88252 
L 95.371639 42.32532 
L 96.100189 41.13468 
L 96.828738 40.42128 
L 97.193013 39.16176 
L 97.557288 39.28968 
L 97.921563 40.48032 
L 99.014388 40.88376 
L 99.742938 40.53936 
L 100.107213 38.50248 
L 100.471488 37.63656 
L 100.835763 38.34012 
L 101.200038 38.37456 
L 101.564313 38.5812 
L 102.292863 39.8358 
L 102.657138 41.93172 
L 103.021413 41.42004 
L 103.749963 41.39052 
L 104.114237 41.5086 
L 104.478512 42.80256 
L 104.842787 41.93664 
L 105.207062 41.49384 
L 105.571337 41.51352 
L 105.935612 43.78164 
L 106.299887 43.9932 
L 106.664162 46.66968 
L 107.028437 47.55036 
L 107.392712 46.64508 
L 107.989727 48.89352 
L 108.353816 49.84308 
L 108.716531 49.00176 
L 109.089133 49.233 
L 109.450402 48.97716 
L 110.180276 49.36092 
L 110.907405 49.58724 
L 111.267299 49.28712 
L 111.612353 49.16904 
L 111.999993 49.39044 
L 112.318511 49.29696 
L 113.091798 49.55772 
L 114.184429 49.41996 
L 114.5498 49.8234 
L 114.883301 49.86768 
L 115.277039 49.72992 
L 115.63969 49.39536 
L 116.363257 49.6758 
L 116.735808 49.47408 
L 117.096322 49.60692 
L 117.461445 49.37568 
L 117.823679 49.36584 
L 118.188738 48.6672 
L 119.282132 49.54788 
L 119.647499 49.5282 
L 120.009434 49.09032 
L 120.739274 49.2084 
L 121.102845 48.93288 
L 121.837879 48.89844 
L 122.561083 48.1998 
L 122.928137 48.28344 
L 123.292513 48.88368 
L 123.653242 49.04604 
L 124.015383 49.00176 
L 124.750237 49.38552 
L 125.111139 49.04112 
L 125.502544 48.92796 
L 125.84412 48.987 
L 126.569647 49.66104 
L 128.033577 49.40028 
L 128.393054 49.56756 
L 129.118901 49.56264 
L 129.488661 49.53312 
L 129.853876 49.25268 
L 130.215786 49.29696 
L 130.580651 48.89352 
L 130.943657 48.96732 
L 131.669989 48.5934 
L 132.040799 48.84432 
L 132.406942 48.95748 
L 132.768898 48.30804 
L 133.132895 48.34248 
L 133.498746 48.21456 
L 133.862279 48.26376 
L 134.222536 47.41752 
L 134.591622 48.05712 
L 134.956799 48.26376 
L 135.319476 48.01776 
L 135.682621 47.23548 
L 136.77354 47.1666 
L 137.143482 47.31912 
L 137.511682 46.49256 
L 137.87672 47.64876 
L 138.24 47.5356 
L 138.24 47.5356 
" clip-path="url(#p7b7f4cf643)" style="fill: none; stroke: #f5841e; stroke-width: 0.7; stroke-linecap: round"/>
   </g>
  </g>
 </g>
 <defs>
  <clipPath id="p7b7f4cf643">
   <rect x="5.76" y="3.6" width="132.48" height="49.2"/>
  </clipPath>
 </defs>
</svg>
