<?xml version="1.0" encoding="utf-8" standalone="no"?>
<!DOCTYPE svg PUBLIC "-//W3C//DTD SVG 1.1//EN"
  "http://www.w3.org/Graphics/SVG/1.1/DTD/svg11.dtd">
<svg xmlns:xlink="http://www.w3.org/1999/xlink" width="144pt" height="60pt" viewBox="0 0 144 60" xmlns="http://www.w3.org/2000/svg" version="1.1">
  <desc id="nav-meta">{"window":"6m","count":4,"labels":["18.10","17.12","14.02","15.04"],"tick_utc":["2025-10-18T12:00:00Z","2025-12-17T12:00:00Z","2026-02-14T03:16:28Z","2026-04-15T03:52:26Z"]}</desc>

 <metadata>
  <rdf:RDF xmlns:dc="http://purl.org/dc/elements/1.1/" xmlns:cc="http://creativecommons.org/ns#" xmlns:rdf="http://www.w3.org/1999/02/22-rdf-syntax-ns#">
   <cc:Work>
    <dc:type rdf:resource="http://purl.org/dc/dcmitype/StillImage"/>
    <dc:date>2026-04-15T19:51:21.225887</dc:date>
    <dc:format>image/svg+xml</dc:format>
    <dc:creator>
     <cc:Agent>
      <dc:title>Matplotlib v3.10.8, https://matplotlib.org/</dc:title>
     </cc:Agent>
    </dc:creator>
   </cc:Work>
  </rdf:RDF>
 </metadata>
 <defs>
  <style type="text/css">*{stroke-linejoin: round; stroke-linecap: butt}</style>
 </defs>
 <g id="figure_1">
  <g id="patch_1">
   <path d="M 0 60 
L 144 60 
L 144 0 
L 0 0 
L 0 60 
z
" style="fill: none; opacity: 0"/>
  </g>
  <g id="axes_1">
   <g id="patch_2">
    <path d="M 5.76 52.8 
L 138.24 52.8 
L 138.24 3.6 
L 5.76 3.6 
L 5.76 52.8 
z
" style="fill: none"/>
   </g>
   <g id="matplotlib.axis_1"/>
   <g id="matplotlib.axis_2"/>
   <g id="line2d_1">
    <path d="M 5.76 42.96 
L 138.24 42.96 
" clip-path="url(#p25af9e3cca)" style="fill: none; stroke: #b2b2b2; stroke-opacity: 0.35; stroke-width: 0.5; stroke-linecap: square"/>
   </g>
   <g id="line2d_2">
    <path d="M 5.76 33.12 
L 138.24 33.12 
" clip-path="url(#p25af9e3cca)" style="fill: none; stroke: #b2b2b2; stroke-opacity: 0.35; stroke-width: 0.5; stroke-linecap: square"/>
   </g>
   <g id="line2d_3">
    <path d="M 5.76 23.28 
L 138.24 23.28 
" clip-path="url(#p25af9e3cca)" style="fill: none; stroke: #b2b2b2; stroke-opacity: 0.35; stroke-width: 0.5; stroke-linecap: square"/>
   </g>
   <g id="line2d_4">
    <path d="M 5.76 13.44 
L 138.24 13.44 
" clip-path="url(#p25af9e3cca)" style="fill: none; stroke: #b2b2b2; stroke-opacity: 0.35; stroke-width: 0.5; stroke-linecap: square"/>
   </g>
   <g id="line2d_5">
    <path d="M 5.76 37.90716 
L 6.501514 37.18884 
L 7.243029 37.18392 
L 7.984543 36.89364 
L 8.726057 37.42008 
L 9.467572 38.17284 
L 10.209086 36.687 
L 10.9506 36.42132 
L 11.692115 36.34752 
L 12.433629 35.56032 
L 13.175143 35.72268 
L 13.916658 36.29832 
L 14.658172 36.32292 
L 15.399686 37.61688 
L 16.141201 37.2282 
L 16.882715 37.34628 
L 17.62423 37.23804 
L 18.365744 40.008 
L 19.107258 41.36592 
L 19.848773 40.43604 
L 20.590287 41.44956 
L 21.331801 40.53444 
L 22.073316 41.02152 
L 22.81483 40.22448 
L 23.556344 39.79644 
L 24.297859 41.51844 
L 25.039373 41.66604 
L 25.780887 42.714 
L 26.522402 43.51596 
L 27.263916 43.43724 
L 28.00543 43.71276 
L 28.746945 44.59836 
L 29.488459 43.30932 
L 30.229973 43.85052 
L 30.971488 44.21952 
L 31.713002 44.88372 
L 32.454516 44.99688 
L 33.196031 44.57868 
L 33.937545 43.5996 
L 34.679059 43.51596 
L 35.420574 43.00428 
L 36.162088 43.2798 
L 36.903603 43.71768 
L 38.386631 44.0916 
L 39.128146 45.11004 
L 39.86966 43.55532 
L 40.611174 42.72876 
L 42.094203 44.27364 
L 43.577232 44.47536 
L 44.318746 44.25888 
L 45.06026 43.64388 
L 45.801775 43.84068 
L 46.543289 43.85052 
L 47.284803 44.36712 
L 48.026318 44.26872 
L 48.767832 44.74104 
L 49.509346 44.98704 
L 50.250861 44.84436 
L 50.992375 45.58728 
L 51.733889 46.0596 
L 52.475404 45.18384 
L 55.441461 45.47904 
L 56.182975 45.65616 
L 56.92449 45.98088 
L 58.407519 45.38556 
L 59.149033 45.31668 
L 59.890547 45.58728 
L 60.632062 45.35604 
L 61.373576 45.40032 
L 62.11509 45.11496 
L 62.856605 44.42124 
L 64.339633 44.18508 
L 65.081148 43.62912 
L 65.822662 43.24044 
L 66.564176 43.8702 
L 67.305691 43.60944 
L 68.047205 43.92924 
L 68.788719 43.93416 
L 69.530234 43.46184 
L 70.271748 43.5012 
L 71.013262 42.72384 
L 71.754777 42.51228 
L 72.496291 43.08792 
L 73.237805 42.75828 
L 73.97932 42.90096 
L 75.462348 44.2392 
L 76.203863 45.23304 
L 76.945377 44.77548 
L 78.428406 45.04608 
L 79.16992 45.07068 
L 79.911435 46.1334 
L 80.652949 45.4446 
L 81.394463 45.06084 
L 82.135978 45.33144 
L 82.877492 46.30068 
L 83.619006 46.34496 
L 84.360521 47.89476 
L 85.102035 48.26376 
L 85.843549 47.96364 
L 87.058826 49.06572 
L 87.799963 50.04972 
L 88.538302 49.24776 
L 91.517885 49.59708 
L 92.25673 49.80372 
L 92.998021 49.86768 
L 93.730619 49.479 
L 94.433006 49.24776 
L 95.222084 49.48392 
L 95.870454 49.37568 
L 96.703937 49.479 
L 97.44455 49.7004 
L 99.668698 49.49376 
L 100.412444 49.98576 
L 101.091316 49.96608 
L 101.892803 49.7004 
L 102.631014 49.27236 
L 103.37112 49.37076 
L 104.103898 49.68072 
L 104.862259 49.25268 
L 105.596118 49.51344 
L 107.819829 49.09032 
L 110.04553 49.64628 
L 110.789268 49.58724 
L 111.526019 49.36092 
L 113.011674 49.45932 
L 113.751755 49.16904 
L 115.247983 49.27236 
L 115.991592 48.87384 
L 117.4673 48.70164 
L 118.20902 49.03128 
L 118.943316 49.1592 
L 119.680488 49.08048 
L 121.176347 49.36584 
L 122.707738 48.90828 
L 123.403045 49.05096 
L 124.87992 49.64628 
L 127.859881 49.59708 
L 128.591628 49.8726 
L 130.069156 49.80864 
L 132.301963 49.83816 
L 133.044679 49.50852 
L 133.78361 49.68564 
L 135.262125 49.48884 
L 136.016942 49.6512 
L 136.762258 49.69056 
L 137.499052 49.40028 
L 138.24 49.58724 
L 138.24 49.58724 
" clip-path="url(#p25af9e3cca)" style="fill: none; stroke: #bebebe; stroke-width: 0.6; stroke-linecap: round"/>
   </g>
   <g id="line2d_6">
    <path d="M 5.76 31.22088 
L 6.501514 30.8076 
L 7.243029 30.13356 
L 7.984543 30.17784 
L 8.726057 30.89124 
L 9.467572 31.42752 
L 10.209086 31.04376 
L 10.9506 30.49764 
L 11.692115 30.3648 
L 12.433629 28.88388 
L 13.175143 29.15448 
L 13.916658 30.15324 
L 15.399686 31.4226 
L 16.141201 31.10772 
L 17.62423 30.66 
L 19.107258 34.99944 
L 19.848773 34.07448 
L 20.590287 34.9158 
L 21.331801 34.02528 
L 22.073316 34.26144 
L 22.81483 33.0216 
L 23.556344 33.10524 
L 24.297859 34.1532 
L 25.039373 34.2024 
L 25.780887 35.4324 
L 26.522402 36.34752 
L 27.263916 35.89488 
L 28.746945 36.94776 
L 29.488459 36.2688 
L 30.229973 36.97236 
L 30.971488 38.286 
L 31.713002 38.76324 
L 32.454516 38.73864 
L 33.196031 38.51724 
L 33.937545 37.42992 
L 34.679059 37.42008 
L 35.420574 36.90348 
L 36.162088 36.98712 
L 36.903603 36.86412 
L 37.645117 37.16424 
L 38.386631 37.14948 
L 39.128146 38.52216 
L 40.611174 35.71776 
L 41.352689 36.15564 
L 42.094203 36.93792 
L 43.577232 36.72636 
L 44.318746 36.21468 
L 45.06026 34.8174 
L 45.801775 34.7928 
L 46.543289 35.42748 
L 47.284803 36.49512 
L 48.026318 36.28356 
L 48.767832 36.6378 
L 49.509346 37.3512 
L 50.250861 37.3512 
L 50.992375 38.31552 
L 51.733889 38.32536 
L 52.475404 37.26264 
L 53.216918 37.26264 
L 53.958432 37.09044 
L 54.699947 37.06092 
L 55.441461 37.34628 
L 56.182975 37.48404 
L 56.92449 37.77924 
L 58.407519 37.45944 
L 59.890547 37.56276 
L 60.632062 37.31184 
L 61.373576 37.33644 
L 62.11509 37.09536 
L 62.856605 36.23928 
L 64.339633 36.11628 
L 65.081148 35.48652 
L 65.822662 35.0142 
L 66.564176 35.93424 
L 67.305691 36.36228 
L 68.047205 36.50988 
L 68.788719 36.5148 
L 69.530234 36.25404 
L 70.271748 36.46068 
L 71.013262 34.83708 
L 71.754777 34.57632 
L 73.237805 35.00436 
L 73.97932 34.93056 
L 74.720834 35.088 
L 75.462348 35.78664 
L 76.203863 37.55292 
L 76.945377 37.26756 
L 77.686892 37.46436 
L 79.16992 37.45944 
L 79.911435 38.41392 
L 81.394463 36.95268 
L 82.135978 37.05108 
L 82.877492 38.37948 
L 83.619006 39.20604 
L 84.360521 41.03136 
L 85.102035 42.26628 
L 85.843549 41.73492 
L 86.469554 42.23676 
L 87.799963 44.89356 
L 88.538302 43.6242 
L 90.032161 43.53072 
L 90.777907 43.72752 
L 92.25673 44.436 
L 92.998021 44.49012 
L 93.730619 43.81608 
L 94.433006 43.7226 
L 95.222084 44.5344 
L 95.870454 44.19 
L 96.703937 44.21952 
L 98.18173 44.51472 
L 99.668698 44.3868 
L 100.412444 45.174 
L 101.091316 45.23796 
L 101.892803 44.81484 
L 102.631014 43.821 
L 103.37112 44.01288 
L 104.103898 44.66232 
L 104.862259 43.93908 
L 105.596118 44.39664 
L 106.339358 44.12112 
L 107.076718 44.33268 
L 107.819829 43.3044 
L 108.560991 43.6242 
L 109.296816 44.29824 
L 110.04553 44.53932 
L 110.789268 44.30808 
L 111.526019 43.8702 
L 112.267241 44.00304 
L 113.011674 43.97844 
L 113.751755 43.41756 
L 115.247983 43.48644 
L 115.991592 42.49752 
L 116.720129 41.73984 
L 117.4673 41.7546 
L 118.20902 42.591 
L 118.943316 43.14204 
L 119.680488 43.083 
L 120.433091 43.35852 
L 121.176347 43.78164 
L 121.910996 43.21584 
L 122.707738 42.9354 
L 123.403045 43.10268 
L 124.87992 44.25396 
L 127.112007 43.74228 
L 127.859881 43.46676 
L 129.333992 43.79148 
L 130.821836 43.77672 
L 131.565264 43.2552 
L 132.301963 43.40772 
L 133.044679 42.49752 
L 133.78361 42.90588 
L 134.531948 42.8616 
L 135.262125 42.41388 
L 136.762258 42.79764 
L 137.499052 41.57256 
L 138.24 41.86284 
L 138.24 41.86284 
" clip-path="url(#p25af9e3cca)" style="fill: none; stroke: #4a8dff; stroke-width: 0.6; stroke-linecap: round"/>
   </g>
   <g id="line2d_7">
    <path d="M 5.76 32.97732 
L 6.501514 32.628 
L 7.243029 31.90476 
L 7.984543 30.92076 
L 8.726057 31.96872 
L 9.467572 32.39676 
L 10.209086 31.19628 
L 10.9506 30.72888 
L 11.692115 30.42384 
L 12.433629 29.0118 
L 13.175143 29.15448 
L 13.916658 29.76456 
L 14.658172 31.2012 
L 15.399686 32.09172 
L 16.141201 31.43244 
L 17.62423 30.90108 
L 18.365744 32.93796 
L 19.107258 35.35368 
L 19.848773 34.24668 
L 20.590287 35.5062 
L 21.331801 34.48284 
L 22.073316 35.02896 
L 22.81483 33.8334 
L 23.556344 33.243 
L 24.297859 34.69932 
L 25.039373 35.4078 
L 25.780887 36.2934 
L 26.522402 38.901 
L 27.263916 38.37948 
L 28.00543 38.92068 
L 28.746945 40.09164 
L 29.488459 39.70788 
L 30.229973 40.4262 
L 30.971488 42.75336 
L 31.713002 43.54548 
L 32.454516 43.72752 
L 33.196031 42.6894 
L 33.937545 41.976 
L 34.679059 42.42864 
L 35.420574 40.86408 
L 36.162088 40.47048 
L 38.386631 40.89852 
L 39.128146 42.9354 
L 39.86966 40.43604 
L 40.611174 39.31428 
L 41.352689 40.04244 
L 42.094203 41.43972 
L 42.835717 41.47416 
L 43.577232 41.02152 
L 44.318746 40.7952 
L 45.06026 39.75708 
L 45.801775 40.11132 
L 46.543289 39.87024 
L 47.284803 40.94772 
L 48.026318 40.97232 
L 49.509346 42.87144 
L 50.250861 42.17772 
L 50.992375 43.04364 
L 51.733889 43.34868 
L 52.475404 42.03504 
L 53.958432 41.8038 
L 54.699947 41.84316 
L 55.441461 42.37944 
L 56.182975 42.26628 
L 56.92449 42.468 
L 57.666004 42.42864 
L 58.407519 42.18264 
L 59.149033 42.1728 
L 59.890547 42.50244 
L 60.632062 41.88252 
L 61.373576 42.32532 
L 62.856605 41.13468 
L 64.339633 40.42128 
L 65.081148 39.16176 
L 65.822662 39.28968 
L 66.564176 40.48032 
L 68.788719 40.88376 
L 70.271748 40.53936 
L 71.013262 38.50248 
L 71.754777 37.63656 
L 72.496291 38.34012 
L 73.237805 38.37456 
L 73.97932 38.5812 
L 75.462348 39.8358 
L 76.203863 41.93172 
L 76.945377 41.42004 
L 78.428406 41.39052 
L 79.16992 41.5086 
L 79.911435 42.80256 
L 80.652949 41.93664 
L 81.394463 41.49384 
L 82.135978 41.51352 
L 82.877492 43.78164 
L 83.619006 43.9932 
L 84.360521 46.66968 
L 85.102035 47.55036 
L 85.843549 46.64508 
L 87.058826 48.89352 
L 87.799963 49.84308 
L 88.538302 49.00176 
L 89.296766 49.233 
L 90.032161 48.97716 
L 91.517885 49.36092 
L 92.998021 49.58724 
L 93.730619 49.28712 
L 94.433006 49.16904 
L 95.222084 49.39044 
L 95.870454 49.29696 
L 97.44455 49.55772 
L 99.668698 49.41996 
L 100.412444 49.8234 
L 101.091316 49.86768 
L 101.892803 49.72992 
L 102.631014 49.39536 
L 104.103898 49.6758 
L 104.862259 49.47408 
L 105.596118 49.60692 
L 106.339358 49.37568 
L 107.076718 49.36584 
L 107.819829 48.6672 
L 108.560991 48.95256 
L 109.296816 49.36092 
L 110.04553 49.54788 
L 110.789268 49.5282 
L 111.526019 49.09032 
L 113.011674 49.2084 
L 113.751755 48.93288 
L 115.247983 48.89844 
L 115.991592 48.48024 
L 116.720129 48.1998 
L 117.4673 48.28344 
L 118.20902 48.88368 
L 118.943316 49.04604 
L 119.680488 49.00176 
L 121.176347 49.38552 
L 121.910996 49.04112 
L 122.707738 48.92796 
L 123.403045 48.987 
L 124.87992 49.66104 
L 127.859881 49.40028 
L 128.591628 49.56756 
L 130.069156 49.56264 
L 130.821836 49.53312 
L 131.565264 49.25268 
L 132.301963 49.29696 
L 133.044679 48.89352 
L 133.78361 48.96732 
L 135.262125 48.5934 
L 136.016942 48.84432 
L 136.762258 48.95748 
L 137.499052 48.30804 
L 138.24 48.34248 
L 138.24 48.34248 
" clip-path="url(#p25af9e3cca)" style="fill: none; stroke: #f5841e; stroke-width: 0.7; stroke-linecap: round"/>
   </g>
  </g>
 </g>
 <defs>
  <clipPath id="p25af9e3cca">
   <rect x="5.76" y="3.6" width="132.48" height="49.2"/>
  </clipPath>
 </defs>
</svg>
