<?xml version="1.0" encoding="utf-8" standalone="no"?>
<!DOCTYPE svg PUBLIC "-//W3C//DTD SVG 1.1//EN"
  "http://www.w3.org/Graphics/SVG/1.1/DTD/svg11.dtd">
<svg xmlns:xlink="http://www.w3.org/1999/xlink" width="144pt" height="60pt" viewBox="0 0 144 60" xmlns="http://www.w3.org/2000/svg" version="1.1">
  <desc id="nav-meta">{"window":"1w","count":4,"labels":["22 Jan","24 Jan","27 Jan","29 Jan"],"idxs":[0,27,54,81]}</desc>

 <metadata>
  <rdf:RDF xmlns:dc="http://purl.org/dc/elements/1.1/" xmlns:cc="http://creativecommons.org/ns#" xmlns:rdf="http://www.w3.org/1999/02/22-rdf-syntax-ns#">
   <cc:Work>
    <dc:type rdf:resource="http://purl.org/dc/dcmitype/StillImage"/>
    <dc:date>2026-01-29T20:58:55.604995</dc:date>
    <dc:format>image/svg+xml</dc:format>
    <dc:creator>
     <cc:Agent>
      <dc:title>Matplotlib v3.10.8, https://matplotlib.org/</dc:title>
     </cc:Agent>
    </dc:creator>
   </cc:Work>
  </rdf:RDF>
 </metadata>
 <defs>
  <style type="text/css">*{stroke-linejoin: round; stroke-linecap: butt}</style>
 </defs>
 <g id="figure_1">
  <g id="patch_1">
   <path d="M 0 60 
L 144 60 
L 144 0 
L 0 0 
L 0 60 
z
" style="fill: none; opacity: 0"/>
  </g>
  <g id="axes_1">
   <g id="patch_2">
    <path d="M 5.76 52.8 
L 138.24 52.8 
L 138.24 3.6 
L 5.76 3.6 
L 5.76 52.8 
z
" style="fill: none"/>
   </g>
   <g id="matplotlib.axis_1"/>
   <g id="matplotlib.axis_2"/>
   <g id="line2d_1">
    <path d="M 5.76 42.96 
L 138.24 42.96 
" clip-path="url(#p92a6d0474c)" style="fill: none; stroke: #b2b2b2; stroke-opacity: 0.35; stroke-width: 0.5; stroke-linecap: square"/>
   </g>
   <g id="line2d_2">
    <path d="M 5.76 33.12 
L 138.24 33.12 
" clip-path="url(#p92a6d0474c)" style="fill: none; stroke: #b2b2b2; stroke-opacity: 0.35; stroke-width: 0.5; stroke-linecap: square"/>
   </g>
   <g id="line2d_3">
    <path d="M 5.76 23.28 
L 138.24 23.28 
" clip-path="url(#p92a6d0474c)" style="fill: none; stroke: #b2b2b2; stroke-opacity: 0.35; stroke-width: 0.5; stroke-linecap: square"/>
   </g>
   <g id="line2d_4">
    <path d="M 5.76 13.44 
L 138.24 13.44 
" clip-path="url(#p92a6d0474c)" style="fill: none; stroke: #b2b2b2; stroke-opacity: 0.35; stroke-width: 0.5; stroke-linecap: square"/>
   </g>
   <g id="line2d_5">
    <path d="M 6.567805 39.45204 
L 31.380013 39.499073 
L 33.781195 39.4422 
L 42.985724 39.76692 
L 44.986708 39.674839 
L 46.987693 39.64884 
L 69.798917 39.752657 
L 73.000492 39.902197 
L 74.60128 40.75584 
L 76.202068 40.707182 
L 77.802855 40.27368 
L 83.005415 40.167065 
L 85.0064 40.06212 
L 99.013292 39.952526 
L 100.614079 39.63408 
L 123.425303 39.741553 
L 125.026091 39.9096 
L 126.626878 39.992473 
L 128.227666 40.17528 
L 132.629832 40.158173 
L 134.23062 40.7706 
L 137.432195 40.87392 
L 137.432195 40.87392 
" clip-path="url(#p92a6d0474c)" style="fill: none; stroke: #bebebe; stroke-width: 0.6; stroke-linecap: round"/>
   </g>
   <g id="line2d_6">
    <path d="M 6.567805 34.46316 
L 29.779226 34.363586 
L 32.180407 34.31064 
L 33.781195 34.518273 
L 34.981786 34.55664 
L 45.787102 34.470021 
L 48.588481 34.374058 
L 52.59045 34.322737 
L 70.999508 34.5714 
L 71.799902 34.910068 
L 73.000492 35.47176 
L 74.60128 35.427345 
L 76.202068 35.06832 
L 77.802855 35.030856 
L 79.403643 34.65996 
L 88.207975 34.578577 
L 89.408566 34.46808 
L 91.809747 34.569233 
L 93.410535 34.60092 
L 97.012307 34.62552 
L 99.013292 33.9072 
L 112.21979 34.015305 
L 119.023137 34.041168 
L 120.623925 33.981 
L 124.625894 33.999461 
L 126.226682 34.41888 
L 131.029045 34.434678 
L 132.629832 35.10768 
L 134.630817 35.186219 
L 136.231604 35.40288 
L 137.432195 35.40288 
L 137.432195 35.40288 
" clip-path="url(#p92a6d0474c)" style="fill: none; stroke: #4a8dff; stroke-width: 0.7; stroke-linecap: round"/>
   </g>
   <g id="line2d_7">
    <path d="M 6.567805 38.9748 
L 16.972925 39.084033 
L 20.974894 39.037045 
L 23.776272 39.070582 
L 26.57765 39.070943 
L 28.978832 39.001567 
L 32.180407 38.82228 
L 33.380998 38.995383 
L 34.581589 39.11256 
L 38.183361 39.202971 
L 40.184345 39.2454 
L 41.384936 39.096446 
L 42.585527 38.999355 
L 45.386905 39.056138 
L 50.589465 38.88132 
L 55.792025 38.986716 
L 58.593403 39.039798 
L 64.596357 39.2208 
L 67.797932 39.51108 
L 70.999508 39.37332 
L 71.799902 39.739747 
L 73.000492 40.34748 
L 74.60128 40.297648 
L 76.202068 39.89484 
L 78.203052 39.806325 
L 79.80384 39.63408 
L 85.406597 39.733022 
L 86.607187 39.78168 
L 87.407581 39.764167 
L 89.008369 39.30444 
L 91.009353 39.376434 
L 92.610141 39.57504 
L 94.611126 39.6701 
L 96.211913 39.76692 
L 97.012307 39.76692 
L 99.013292 39.024 
L 109.018214 39.118428 
L 112.21979 39.159819 
L 119.023137 39.060832 
L 120.223728 38.9502 
L 121.824516 39.020344 
L 123.425303 39.15684 
L 124.625894 39.192228 
L 126.226682 39.639 
L 131.029045 39.649878 
L 132.629832 40.32288 
L 134.23062 40.339852 
L 135.831407 41.24784 
L 137.432195 41.24784 
L 137.432195 41.24784 
" clip-path="url(#p92a6d0474c)" style="fill: none; stroke: #f5841e; stroke-width: 0.8; stroke-linecap: round"/>
   </g>
  </g>
 </g>
 <defs>
  <clipPath id="p92a6d0474c">
   <rect x="5.76" y="3.6" width="132.48" height="49.2"/>
  </clipPath>
 </defs>
</svg>
