<?xml version="1.0" encoding="utf-8" standalone="no"?>
<!DOCTYPE svg PUBLIC "-//W3C//DTD SVG 1.1//EN"
  "http://www.w3.org/Graphics/SVG/1.1/DTD/svg11.dtd">
<svg xmlns:xlink="http://www.w3.org/1999/xlink" width="144pt" height="60pt" viewBox="0 0 144 60" xmlns="http://www.w3.org/2000/svg" version="1.1">
  <desc id="nav-meta">{"window":"3m","count":4,"labels":["5 Jan","14 Jan","22 Jan","26 Jan"],"idxs":[0,63,127,190]}</desc>

 <metadata>
  <rdf:RDF xmlns:dc="http://purl.org/dc/elements/1.1/" xmlns:cc="http://creativecommons.org/ns#" xmlns:rdf="http://www.w3.org/1999/02/22-rdf-syntax-ns#">
   <cc:Work>
    <dc:type rdf:resource="http://purl.org/dc/dcmitype/StillImage"/>
    <dc:date>2026-01-26T14:58:44.509296</dc:date>
    <dc:format>image/svg+xml</dc:format>
    <dc:creator>
     <cc:Agent>
      <dc:title>Matplotlib v3.10.8, https://matplotlib.org/</dc:title>
     </cc:Agent>
    </dc:creator>
   </cc:Work>
  </rdf:RDF>
 </metadata>
 <defs>
  <style type="text/css">*{stroke-linejoin: round; stroke-linecap: butt}</style>
 </defs>
 <g id="figure_1">
  <g id="patch_1">
   <path d="M 0 60 
L 144 60 
L 144 0 
L 0 0 
L 0 60 
z
" style="fill: none; opacity: 0"/>
  </g>
  <g id="axes_1">
   <g id="patch_2">
    <path d="M 5.76 52.8 
L 138.24 52.8 
L 138.24 3.6 
L 5.76 3.6 
L 5.76 52.8 
z
" style="fill: none"/>
   </g>
   <g id="matplotlib.axis_1"/>
   <g id="matplotlib.axis_2"/>
   <g id="line2d_1">
    <path d="M 5.76 42.96 
L 138.24 42.96 
" clip-path="url(#p1864eb42af)" style="fill: none; stroke: #b2b2b2; stroke-opacity: 0.35; stroke-width: 0.5; stroke-linecap: square"/>
   </g>
   <g id="line2d_2">
    <path d="M 5.76 33.12 
L 138.24 33.12 
" clip-path="url(#p1864eb42af)" style="fill: none; stroke: #b2b2b2; stroke-opacity: 0.35; stroke-width: 0.5; stroke-linecap: square"/>
   </g>
   <g id="line2d_3">
    <path d="M 5.76 23.28 
L 138.24 23.28 
" clip-path="url(#p1864eb42af)" style="fill: none; stroke: #b2b2b2; stroke-opacity: 0.35; stroke-width: 0.5; stroke-linecap: square"/>
   </g>
   <g id="line2d_4">
    <path d="M 5.76 13.44 
L 138.24 13.44 
" clip-path="url(#p1864eb42af)" style="fill: none; stroke: #b2b2b2; stroke-opacity: 0.35; stroke-width: 0.5; stroke-linecap: square"/>
   </g>
   <g id="line2d_5">
    <path d="M 6.106806 38.29584 
L 9.388512 38.21712 
L 9.733955 38.121203 
L 10.42484 37.79892 
L 11.115725 37.881741 
L 11.806611 38.17284 
L 13.879267 38.240385 
L 14.570152 38.46312 
L 15.60648 38.3604 
L 16.297366 38.31552 
L 16.642808 38.36601 
L 17.506415 38.5812 
L 18.197301 38.470884 
L 18.888186 38.32536 
L 19.40635 38.391396 
L 20.097235 38.7042 
L 21.306285 38.600828 
L 22.515334 38.432742 
L 23.033498 38.34996 
L 23.551662 38.307692 
L 24.415269 38.06952 
L 25.278876 38.170422 
L 25.969761 38.22696 
L 26.487925 38.310091 
L 27.178811 38.44344 
L 28.042417 38.529563 
L 28.733303 38.5812 
L 35.987599 38.50702 
L 36.851206 38.27616 
L 39.787469 38.181165 
L 40.478354 38.1138 
L 40.996518 38.005534 
L 41.687404 37.75464 
L 42.378289 37.841304 
L 43.069174 38.04984 
L 43.932781 38.128766 
L 44.623667 38.19744 
L 45.141831 38.097647 
L 45.832716 37.83828 
L 46.696323 37.759122 
L 47.387208 37.68576 
L 49.114422 37.60132 
L 50.15075 37.4496 
L 52.050684 37.349981 
L 54.123341 37.1298 
L 54.814226 37.212015 
L 55.505111 37.4988 
L 56.541439 37.390057 
L 57.232325 37.34628 
L 58.959538 37.447233 
L 59.650424 37.85304 
L 61.204916 37.773591 
L 61.895801 37.671 
L 62.586687 37.578223 
L 63.277572 37.45452 
L 69.49554 37.565565 
L 70.186426 37.68576 
L 75.368066 37.74972 
L 75.540788 37.862693 
L 76.231673 38.8272 
L 78.822493 38.731689 
L 79.6861 38.721913 
L 80.722428 38.86656 
L 81.067871 38.906642 
L 81.758756 39.41268 
L 82.795084 39.506953 
L 83.48597 39.57996 
L 88.322167 39.477317 
L 88.840331 39.3438 
L 89.703938 39.258683 
L 90.394823 39.18144 
L 91.25843 39.27935 
L 91.949316 39.30936 
L 95.231021 39.398642 
L 95.749185 39.52092 
L 117.684796 39.616689 
L 118.548403 39.64392 
L 119.757452 39.748865 
L 120.966502 39.76692 
L 121.830108 39.667566 
L 122.866437 39.64884 
L 132.538832 39.758279 
L 133.747881 39.809465 
L 134.438767 40.75584 
L 135.129652 40.748257 
L 135.993259 40.27368 
L 137.893194 40.21464 
L 137.893194 40.21464 
" clip-path="url(#p1864eb42af)" style="fill: none; stroke: #bebebe; stroke-width: 0.6; stroke-linecap: round"/>
   </g>
   <g id="line2d_6">
    <path d="M 6.106806 32.44596 
L 9.043069 32.429085 
L 9.733955 32.13108 
L 10.42484 32.185426 
L 11.288447 32.37216 
L 13.361103 32.446095 
L 13.879267 32.63784 
L 15.779202 32.73624 
L 16.81553 33.10524 
L 19.060907 33.194761 
L 19.579071 33.28236 
L 20.097235 33.334333 
L 20.788121 33.5874 
L 21.479006 33.543423 
L 22.342613 33.3168 
L 25.451597 33.42504 
L 27.869696 33.56772 
L 29.424188 33.466586 
L 31.496844 33.43488 
L 35.469435 33.325028 
L 37.023927 33.290833 
L 38.060255 33.275996 
L 38.751141 33.004538 
L 39.614748 33.25776 
L 44.796388 33.163513 
L 45.832716 33.124856 
L 47.214487 32.967751 
L 47.905372 32.64276 
L 48.423536 32.634274 
L 49.114422 31.7178 
L 52.914291 31.624397 
L 53.432455 31.46688 
L 54.123341 31.573972 
L 54.814226 31.9392 
L 55.505111 31.848744 
L 56.195997 31.52592 
L 57.232325 31.609644 
L 57.577768 31.732637 
L 58.268653 32.078037 
L 59.650424 32.063129 
L 60.341309 31.932062 
L 61.377637 32.04744 
L 66.213835 31.954734 
L 67.595606 31.88606 
L 68.804655 31.875072 
L 71.395475 31.859577 
L 73.640853 31.68336 
L 74.159017 31.784842 
L 74.849902 32.588002 
L 76.577116 32.593612 
L 78.47705 32.56896 
L 79.167936 32.664329 
L 79.858821 32.85432 
L 80.376985 32.898452 
L 81.067871 33.42504 
L 81.758756 33.458532 
L 82.449641 33.9072 
L 83.48597 33.987048 
L 84.176855 34.04988 
L 85.040462 34.160196 
L 86.594954 34.29588 
L 87.804003 34.199318 
L 89.185774 33.920509 
L 89.531217 33.84816 
L 90.567545 33.939003 
L 91.431151 33.966949 
L 94.540136 34.292372 
L 95.0583 34.45332 
L 115.266697 34.3626 
L 116.303025 34.31064 
L 118.030239 34.528061 
L 118.721124 34.543292 
L 119.584731 34.65996 
L 120.102895 34.587379 
L 120.79378 34.470408 
L 122.175551 34.462438 
L 123.211879 34.376238 
L 126.839028 34.34508 
L 130.293454 34.44239 
L 131.847947 34.539713 
L 133.056996 34.596181 
L 133.747881 35.47176 
L 134.611488 35.363365 
L 135.302374 35.06832 
L 135.993259 34.961815 
L 136.684144 34.65996 
L 137.893194 34.56156 
L 137.893194 34.56156 
" clip-path="url(#p1864eb42af)" style="fill: none; stroke: #4a8dff; stroke-width: 0.7; stroke-linecap: round"/>
   </g>
   <g id="line2d_7">
    <path d="M 6.106806 37.0806 
L 8.352184 37.176737 
L 9.043069 37.272815 
L 9.906676 37.14456 
L 10.252119 37.14456 
L 11.115725 37.71528 
L 13.188381 37.734096 
L 13.879267 38.0646 
L 14.915595 37.978516 
L 15.60648 37.9416 
L 15.951923 38.02081 
L 16.642808 38.34996 
L 18.715465 38.432588 
L 19.40635 38.76816 
L 21.479006 38.76028 
L 22.169892 38.36472 
L 24.415269 38.473669 
L 25.106154 38.655 
L 29.424188 38.545909 
L 30.805959 38.545071 
L 33.224058 38.548127 
L 34.605828 38.467176 
L 38.232977 38.328661 
L 38.751141 37.948416 
L 39.442026 38.47788 
L 41.514682 38.420478 
L 42.378289 38.163 
L 44.450945 38.124994 
L 45.141831 37.87764 
L 47.041765 37.792749 
L 47.732651 36.86904 
L 48.596258 36.78266 
L 49.287143 36.53448 
L 51.359799 36.506727 
L 52.050684 36.08184 
L 52.568849 36.08184 
L 53.432455 35.57016 
L 53.950619 35.57016 
L 54.814226 36.12612 
L 55.505111 36.048586 
L 56.195997 35.77188 
L 56.886882 35.846628 
L 58.441374 36.564471 
L 59.823145 36.473828 
L 60.341309 36.412389 
L 61.204916 36.60336 
L 66.213835 36.494211 
L 67.250163 36.470088 
L 72.777246 36.608209 
L 73.986295 36.50004 
L 74.159017 36.624259 
L 74.849902 37.590346 
L 76.058952 37.49388 
L 78.47705 37.45944 
L 78.995215 37.495066 
L 79.6861 37.87764 
L 80.376985 37.916445 
L 81.067871 38.37948 
L 81.931477 38.457826 
L 82.622363 38.62548 
L 83.313248 38.715646 
L 84.004134 38.91576 
L 85.040462 39.010317 
L 86.594954 39.12732 
L 87.458561 39.045415 
L 88.149446 38.84196 
L 89.185774 38.746365 
L 90.049381 38.721262 
L 91.431151 38.822209 
L 94.367414 38.873105 
L 95.0583 39.147 
L 100.23994 39.05844 
L 100.930826 39.01908 
L 101.44899 38.942565 
L 102.139875 38.8518 
L 103.521646 38.955275 
L 104.385252 39.02892 
L 115.266697 38.9262 
L 116.130304 38.82228 
L 116.648468 38.929946 
L 117.339353 39.11256 
L 118.893846 39.20684 
L 119.757452 39.2454 
L 120.275616 39.082969 
L 120.621059 38.983021 
L 122.00283 39.050876 
L 124.248207 38.88132 
L 126.320863 38.973252 
L 127.702634 39.042932 
L 130.293454 39.233355 
L 131.157061 39.51108 
L 132.193389 39.403291 
L 132.884275 39.37332 
L 133.056996 39.400132 
L 133.747881 40.34748 
L 134.438767 40.338581 
L 135.302374 39.89484 
L 135.993259 39.826831 
L 136.684144 39.63408 
L 137.893194 39.5406 
L 137.893194 39.5406 
" clip-path="url(#p1864eb42af)" style="fill: none; stroke: #f5841e; stroke-width: 0.8; stroke-linecap: round"/>
   </g>
  </g>
 </g>
 <defs>
  <clipPath id="p1864eb42af">
   <rect x="5.76" y="3.6" width="132.48" height="49.2"/>
  </clipPath>
 </defs>
</svg>
