<?xml version="1.0" encoding="utf-8" standalone="no"?>
<!DOCTYPE svg PUBLIC "-//W3C//DTD SVG 1.1//EN"
  "http://www.w3.org/Graphics/SVG/1.1/DTD/svg11.dtd">
<svg xmlns:xlink="http://www.w3.org/1999/xlink" width="144pt" height="60pt" viewBox="0 0 144 60" xmlns="http://www.w3.org/2000/svg" version="1.1">
  <desc id="nav-meta">{"window":"3m","count":4,"labels":["23.12","22.01","21.02","23.03"],"tick_utc":["2025-12-23T12:00:00Z","2026-01-22T12:00:00Z","2026-02-21T03:11:36Z","2026-03-23T03:35:18Z"]}</desc>

 <metadata>
  <rdf:RDF xmlns:dc="http://purl.org/dc/elements/1.1/" xmlns:cc="http://creativecommons.org/ns#" xmlns:rdf="http://www.w3.org/1999/02/22-rdf-syntax-ns#">
   <cc:Work>
    <dc:type rdf:resource="http://purl.org/dc/dcmitype/StillImage"/>
    <dc:date>2026-03-23T07:47:05.169399</dc:date>
    <dc:format>image/svg+xml</dc:format>
    <dc:creator>
     <cc:Agent>
      <dc:title>Matplotlib v3.10.8, https://matplotlib.org/</dc:title>
     </cc:Agent>
    </dc:creator>
   </cc:Work>
  </rdf:RDF>
 </metadata>
 <defs>
  <style type="text/css">*{stroke-linejoin: round; stroke-linecap: butt}</style>
 </defs>
 <g id="figure_1">
  <g id="patch_1">
   <path d="M 0 60 
L 144 60 
L 144 0 
L 0 0 
L 0 60 
z
" style="fill: none; opacity: 0"/>
  </g>
  <g id="axes_1">
   <g id="patch_2">
    <path d="M 5.76 52.8 
L 138.24 52.8 
L 138.24 3.6 
L 5.76 3.6 
L 5.76 52.8 
z
" style="fill: none"/>
   </g>
   <g id="matplotlib.axis_1"/>
   <g id="matplotlib.axis_2"/>
   <g id="line2d_1">
    <path d="M 5.76 42.96 
L 138.24 42.96 
" clip-path="url(#p11aa3cca7b)" style="fill: none; stroke: #b2b2b2; stroke-opacity: 0.35; stroke-width: 0.5; stroke-linecap: square"/>
   </g>
   <g id="line2d_2">
    <path d="M 5.76 33.12 
L 138.24 33.12 
" clip-path="url(#p11aa3cca7b)" style="fill: none; stroke: #b2b2b2; stroke-opacity: 0.35; stroke-width: 0.5; stroke-linecap: square"/>
   </g>
   <g id="line2d_3">
    <path d="M 5.76 23.28 
L 138.24 23.28 
" clip-path="url(#p11aa3cca7b)" style="fill: none; stroke: #b2b2b2; stroke-opacity: 0.35; stroke-width: 0.5; stroke-linecap: square"/>
   </g>
   <g id="line2d_4">
    <path d="M 5.76 13.44 
L 138.24 13.44 
" clip-path="url(#p11aa3cca7b)" style="fill: none; stroke: #b2b2b2; stroke-opacity: 0.35; stroke-width: 0.5; stroke-linecap: square"/>
   </g>
   <g id="line2d_5">
    <path d="M 5.76 45.24288 
L 7.237755 45.47904 
L 8.71551 45.65616 
L 10.193264 45.98088 
L 11.671019 45.70536 
L 13.148774 45.38556 
L 14.626529 45.31668 
L 16.104284 45.58728 
L 17.582038 45.35604 
L 19.059793 45.40032 
L 20.537548 45.11496 
L 22.015303 44.42124 
L 23.493058 44.25888 
L 24.970812 44.18508 
L 26.448567 43.62912 
L 27.926322 43.24044 
L 29.404077 43.8702 
L 30.881832 43.60944 
L 32.359587 43.92924 
L 33.837341 43.93416 
L 35.315096 43.46184 
L 36.792851 43.5012 
L 38.270606 42.72384 
L 39.748361 42.51228 
L 41.226115 43.08792 
L 42.70387 42.75828 
L 44.181625 42.90096 
L 45.65938 43.57008 
L 47.137135 44.2392 
L 48.614889 45.23304 
L 50.092644 44.77548 
L 51.570399 44.91816 
L 53.048154 45.04608 
L 54.525909 45.07068 
L 56.003663 46.1334 
L 57.481418 45.4446 
L 58.959173 45.06084 
L 60.436928 45.33144 
L 61.914683 46.30068 
L 63.392437 46.34496 
L 64.870192 47.89476 
L 66.347947 48.26376 
L 67.825702 47.96364 
L 69.073259 48.55896 
L 70.247612 49.06572 
L 71.724614 50.04972 
L 73.196041 49.24776 
L 74.707575 49.32156 
L 76.173135 49.31172 
L 77.659322 49.43964 
L 79.134015 49.59708 
L 80.606451 49.80372 
L 82.083761 49.86768 
L 83.543745 49.479 
L 84.943524 49.24776 
L 86.516068 49.48392 
L 87.808197 49.37568 
L 89.469234 49.479 
L 90.945193 49.7004 
L 92.41431 49.62168 
L 93.883034 49.5282 
L 95.377671 49.49376 
L 96.859872 49.98576 
L 98.212788 49.96608 
L 99.810063 49.7004 
L 101.281233 49.27236 
L 102.756182 49.37076 
L 104.216526 49.68072 
L 105.727855 49.25268 
L 107.190353 49.51344 
L 108.671546 49.4052 
L 110.141023 49.34124 
L 111.621959 49.09032 
L 113.099012 49.24284 
L 114.565427 49.49868 
L 116.057532 49.64628 
L 117.539717 49.58724 
L 119.007979 49.36092 
L 120.485152 49.41996 
L 121.968722 49.45932 
L 123.443621 49.16904 
L 124.919409 49.22808 
L 126.425436 49.27236 
L 127.907364 48.87384 
L 129.359258 48.74592 
L 130.848284 48.70164 
L 132.326449 49.03128 
L 133.78982 49.1592 
L 135.25892 49.08048 
L 136.758773 49.21332 
L 138.24 49.36584 
" clip-path="url(#p11aa3cca7b)" style="fill: none; stroke: #bebebe; stroke-width: 0.6; stroke-linecap: round"/>
   </g>
   <g id="line2d_6">
    <path d="M 5.76 37.06092 
L 7.237755 37.34628 
L 8.71551 37.48404 
L 10.193264 37.77924 
L 11.671019 37.61688 
L 13.148774 37.45944 
L 14.626529 37.46928 
L 16.104284 37.56276 
L 17.582038 37.31184 
L 19.059793 37.33644 
L 20.537548 37.09536 
L 22.015303 36.23928 
L 23.493058 36.20976 
L 24.970812 36.11628 
L 26.448567 35.48652 
L 27.926322 35.0142 
L 29.404077 35.93424 
L 30.881832 36.36228 
L 32.359587 36.50988 
L 33.837341 36.5148 
L 35.315096 36.25404 
L 36.792851 36.46068 
L 38.270606 34.83708 
L 39.748361 34.57632 
L 41.226115 34.84692 
L 42.70387 35.00436 
L 44.181625 34.93056 
L 45.65938 35.088 
L 47.137135 35.78664 
L 48.614889 37.55292 
L 50.092644 37.26756 
L 51.570399 37.46436 
L 53.048154 37.44468 
L 54.525909 37.45944 
L 56.003663 38.41392 
L 57.481418 37.61196 
L 58.959173 36.95268 
L 60.436928 37.05108 
L 61.914683 38.37948 
L 63.392437 39.20604 
L 64.870192 41.03136 
L 66.347947 42.26628 
L 67.825702 41.73492 
L 69.073259 42.23676 
L 70.247612 43.38804 
L 71.724614 44.89356 
L 73.196041 43.6242 
L 74.707575 43.575 
L 76.173135 43.53072 
L 77.659322 43.72752 
L 79.134015 44.0916 
L 80.606451 44.436 
L 82.083761 44.49012 
L 83.543745 43.81608 
L 84.943524 43.7226 
L 86.516068 44.5344 
L 87.808197 44.19 
L 89.469234 44.21952 
L 90.945193 44.3868 
L 92.41431 44.51472 
L 93.883034 44.4606 
L 95.377671 44.3868 
L 96.859872 45.174 
L 98.212788 45.23796 
L 99.810063 44.81484 
L 101.281233 43.821 
L 102.756182 44.01288 
L 104.216526 44.66232 
L 105.727855 43.93908 
L 107.190353 44.39664 
L 108.671546 44.12112 
L 110.141023 44.33268 
L 111.621959 43.3044 
L 113.099012 43.6242 
L 114.565427 44.29824 
L 116.057532 44.53932 
L 117.539717 44.30808 
L 119.007979 43.8702 
L 120.485152 44.00304 
L 121.968722 43.97844 
L 123.443621 43.41756 
L 124.919409 43.48152 
L 126.425436 43.48644 
L 127.907364 42.49752 
L 129.359258 41.73984 
L 130.848284 41.7546 
L 132.326449 42.591 
L 133.78982 43.14204 
L 135.25892 43.083 
L 136.758773 43.35852 
L 138.24 43.78164 
" clip-path="url(#p11aa3cca7b)" style="fill: none; stroke: #4a8dff; stroke-width: 0.6; stroke-linecap: round"/>
   </g>
   <g id="line2d_7">
    <path d="M 5.76 41.84316 
L 7.237755 42.37944 
L 8.71551 42.26628 
L 10.193264 42.468 
L 11.671019 42.42864 
L 13.148774 42.18264 
L 14.626529 42.1728 
L 16.104284 42.50244 
L 17.582038 41.88252 
L 19.059793 42.32532 
L 20.537548 41.73 
L 22.015303 41.13468 
L 23.493058 40.80504 
L 24.970812 40.42128 
L 26.448567 39.16176 
L 27.926322 39.28968 
L 29.404077 40.48032 
L 30.881832 40.61316 
L 32.359587 40.84932 
L 33.837341 40.88376 
L 35.315096 40.6968 
L 36.792851 40.53936 
L 38.270606 38.50248 
L 39.748361 37.63656 
L 41.226115 38.34012 
L 42.70387 38.37456 
L 44.181625 38.5812 
L 45.65938 39.2454 
L 47.137135 39.8358 
L 48.614889 41.93172 
L 50.092644 41.42004 
L 51.570399 41.37576 
L 53.048154 41.39052 
L 54.525909 41.5086 
L 56.003663 42.80256 
L 57.481418 41.93664 
L 58.959173 41.49384 
L 60.436928 41.51352 
L 61.914683 43.78164 
L 63.392437 43.9932 
L 64.870192 46.66968 
L 66.347947 47.55036 
L 67.825702 46.64508 
L 69.073259 47.89476 
L 70.247612 48.89352 
L 71.724614 49.84308 
L 73.196041 49.00176 
L 74.707575 49.233 
L 76.173135 48.97716 
L 77.659322 49.22316 
L 79.134015 49.36092 
L 80.606451 49.49868 
L 82.083761 49.58724 
L 83.543745 49.28712 
L 84.943524 49.16904 
L 86.516068 49.39044 
L 87.808197 49.29696 
L 89.469234 49.479 
L 90.945193 49.55772 
L 92.41431 49.51344 
L 93.883034 49.44948 
L 95.377671 49.41996 
L 96.859872 49.8234 
L 98.212788 49.86768 
L 99.810063 49.72992 
L 101.281233 49.39536 
L 102.756182 49.52328 
L 104.216526 49.6758 
L 105.727855 49.47408 
L 107.190353 49.60692 
L 108.671546 49.37568 
L 110.141023 49.36584 
L 111.621959 48.6672 
L 113.099012 48.95256 
L 114.565427 49.36092 
L 116.057532 49.54788 
L 117.539717 49.5282 
L 119.007979 49.09032 
L 120.485152 49.16412 
L 121.968722 49.2084 
L 123.443621 48.93288 
L 124.919409 48.95748 
L 126.425436 48.89844 
L 127.907364 48.48024 
L 129.359258 48.1998 
L 130.848284 48.28344 
L 132.326449 48.88368 
L 133.78982 49.04604 
L 135.25892 49.00176 
L 136.758773 49.20348 
L 138.24 49.38552 
" clip-path="url(#p11aa3cca7b)" style="fill: none; stroke: #f5841e; stroke-width: 0.7; stroke-linecap: round"/>
   </g>
  </g>
 </g>
 <defs>
  <clipPath id="p11aa3cca7b">
   <rect x="5.76" y="3.6" width="132.48" height="49.2"/>
  </clipPath>
 </defs>
</svg>
