<?xml version="1.0" encoding="utf-8" standalone="no"?>
<!DOCTYPE svg PUBLIC "-//W3C//DTD SVG 1.1//EN"
  "http://www.w3.org/Graphics/SVG/1.1/DTD/svg11.dtd">
<svg xmlns:xlink="http://www.w3.org/1999/xlink" width="144pt" height="60pt" viewBox="0 0 144 60" xmlns="http://www.w3.org/2000/svg" version="1.1">
  <desc id="nav-meta">{"window":"1m","count":4,"labels":["24.05","03.06","13.06","23.06"],"tick_utc":["2026-05-24T04:51:26Z","2026-06-03T05:31:47Z","2026-06-13T05:09:20Z","2026-06-23T04:45:28Z"]}</desc>

 <metadata>
  <rdf:RDF xmlns:dc="http://purl.org/dc/elements/1.1/" xmlns:cc="http://creativecommons.org/ns#" xmlns:rdf="http://www.w3.org/1999/02/22-rdf-syntax-ns#">
   <cc:Work>
    <dc:type rdf:resource="http://purl.org/dc/dcmitype/StillImage"/>
    <dc:date>2026-06-23T04:45:29.046690</dc:date>
    <dc:format>image/svg+xml</dc:format>
    <dc:creator>
     <cc:Agent>
      <dc:title>Matplotlib v3.11.0, https://matplotlib.org/</dc:title>
     </cc:Agent>
    </dc:creator>
   </cc:Work>
  </rdf:RDF>
 </metadata>
 <defs>
  <style type="text/css">*{stroke-linejoin: round; stroke-linecap: butt}</style>
 </defs>
 <g id="figure_1">
  <g id="patch_1">
   <path d="M 0 60 
L 144 60 
L 144 0 
L 0 0 
L 0 60 
z
" style="fill: none; opacity: 0"/>
  </g>
  <g id="axes_1">
   <g id="patch_2">
    <path d="M 5.76 52.8 
L 138.24 52.8 
L 138.24 3.6 
L 5.76 3.6 
L 5.76 52.8 
z
" style="fill: none"/>
   </g>
   <g id="matplotlib.axis_1"/>
   <g id="matplotlib.axis_2"/>
   <g id="line2d_1">
    <path d="M 5.76 42.96 
L 138.24 42.96 
" clip-path="url(#p5c6153508e)" style="fill: none; stroke: #b2b2b2; stroke-opacity: 0.35; stroke-width: 0.5; stroke-linecap: square"/>
   </g>
   <g id="line2d_2">
    <path d="M 5.76 33.12 
L 138.24 33.12 
" clip-path="url(#p5c6153508e)" style="fill: none; stroke: #b2b2b2; stroke-opacity: 0.35; stroke-width: 0.5; stroke-linecap: square"/>
   </g>
   <g id="line2d_3">
    <path d="M 5.76 23.28 
L 138.24 23.28 
" clip-path="url(#p5c6153508e)" style="fill: none; stroke: #b2b2b2; stroke-opacity: 0.35; stroke-width: 0.5; stroke-linecap: square"/>
   </g>
   <g id="line2d_4">
    <path d="M 5.76 13.44 
L 138.24 13.44 
" clip-path="url(#p5c6153508e)" style="fill: none; stroke: #b2b2b2; stroke-opacity: 0.35; stroke-width: 0.5; stroke-linecap: square"/>
   </g>
   <g id="line2d_5">
    <path d="M 5.76 49.41996 
L 10.234731 49.41504 
L 14.584428 49.5282 
L 19.04638 49.5774 
L 23.448881 49.7742 
L 27.868762 49.7004 
L 32.221679 49.69548 
L 36.728462 49.61676 
L 41.210401 49.71024 
L 45.58356 49.7988 
L 50.049857 50.19732 
L 54.451336 50.45808 
L 58.795205 50.59092 
L 63.14393 50.99928 
L 67.655467 50.82216 
L 72.091604 50.74344 
L 76.42392 50.62536 
L 80.886332 50.80248 
L 85.328859 50.76312 
L 89.762798 50.65488 
L 94.147101 50.6598 
L 98.595762 50.56632 
L 103.159184 50.39412 
L 107.600995 50.23176 
L 111.876928 50.2416 
L 116.272375 50.4138 
L 120.79301 50.55156 
L 125.033007 50.42364 
L 129.541527 50.27112 
L 134.087415 50.217 
L 138.24 50.35968 
" clip-path="url(#p5c6153508e)" style="fill: none; stroke: #bebebe; stroke-width: 0.6; stroke-linecap: round"/>
   </g>
   <g id="line2d_6">
    <path d="M 5.76 43.33392 
L 10.234731 43.42248 
L 14.584428 43.51596 
L 19.04638 43.67832 
L 23.448881 44.32776 
L 27.868762 44.13588 
L 32.221679 44.16048 
L 36.728462 43.96368 
L 41.210401 44.2392 
L 45.58356 44.19984 
L 50.049857 45.16908 
L 54.451336 45.67584 
L 58.795205 46.00548 
L 63.14393 47.57004 
L 67.655467 47.04852 
L 72.091604 46.64016 
L 76.42392 46.34496 
L 80.886332 46.82712 
L 85.328859 46.65492 
L 89.762798 46.51716 
L 94.147101 46.5516 
L 98.595762 46.46304 
L 103.159184 46.14816 
L 107.600995 45.84312 
L 111.876928 45.6414 
L 116.272375 46.09404 
L 120.79301 46.3302 
L 125.033007 46.21704 
L 129.541527 46.06452 
L 134.087415 46.035 
L 138.24 46.14324 
" clip-path="url(#p5c6153508e)" style="fill: none; stroke: #4a8dff; stroke-width: 0.6; stroke-linecap: round"/>
   </g>
   <g id="line2d_7">
    <path d="M 5.76 47.6832 
L 10.234731 47.37324 
L 14.584428 47.66844 
L 19.04638 48.07188 
L 23.448881 48.59832 
L 27.868762 48.52452 
L 32.221679 48.5688 
L 36.728462 48.38676 
L 41.210401 48.55404 
L 45.58356 49.0116 
L 50.049857 49.57248 
L 54.451336 49.93656 
L 58.795205 49.98084 
L 63.14393 50.3646 
L 67.655467 50.15796 
L 72.091604 50.07432 
L 76.42392 49.99068 
L 80.886332 50.217 
L 85.328859 50.07924 
L 89.762798 49.98084 
L 94.147101 49.971 
L 98.595762 49.87752 
L 103.159184 49.69548 
L 107.600995 49.65612 
L 111.876928 49.7004 
L 116.272375 49.92672 
L 120.79301 50.06448 
L 125.033007 49.971 
L 129.541527 49.89228 
L 134.087415 49.89228 
L 138.24 49.9464 
" clip-path="url(#p5c6153508e)" style="fill: none; stroke: #f5841e; stroke-width: 0.7; stroke-linecap: round"/>
   </g>
  </g>
 </g>
 <defs>
  <clipPath id="p5c6153508e">
   <rect x="5.76" y="3.6" width="132.48" height="49.2"/>
  </clipPath>
 </defs>
</svg>
