<?xml version="1.0" encoding="utf-8" standalone="no"?>
<!DOCTYPE svg PUBLIC "-//W3C//DTD SVG 1.1//EN"
  "http://www.w3.org/Graphics/SVG/1.1/DTD/svg11.dtd">
<svg xmlns:xlink="http://www.w3.org/1999/xlink" width="144pt" height="60pt" viewBox="0 0 144 60" xmlns="http://www.w3.org/2000/svg" version="1.1">
  <desc id="nav-meta">{"window":"3m","count":4,"labels":["28.01","27.02","28.03","27.04"],"tick_utc":["2026-01-28T12:00:00Z","2026-02-27T03:18:03Z","2026-03-28T03:27:32Z","2026-04-27T04:22:02Z"]}</desc>

 <metadata>
  <rdf:RDF xmlns:dc="http://purl.org/dc/elements/1.1/" xmlns:cc="http://creativecommons.org/ns#" xmlns:rdf="http://www.w3.org/1999/02/22-rdf-syntax-ns#">
   <cc:Work>
    <dc:type rdf:resource="http://purl.org/dc/dcmitype/StillImage"/>
    <dc:date>2026-04-27T14:36:36.563835</dc:date>
    <dc:format>image/svg+xml</dc:format>
    <dc:creator>
     <cc:Agent>
      <dc:title>Matplotlib v3.10.9, https://matplotlib.org/</dc:title>
     </cc:Agent>
    </dc:creator>
   </cc:Work>
  </rdf:RDF>
 </metadata>
 <defs>
  <style type="text/css">*{stroke-linejoin: round; stroke-linecap: butt}</style>
 </defs>
 <g id="figure_1">
  <g id="patch_1">
   <path d="M 0 60 
L 144 60 
L 144 0 
L 0 0 
L 0 60 
z
" style="fill: none; opacity: 0"/>
  </g>
  <g id="axes_1">
   <g id="patch_2">
    <path d="M 5.76 52.8 
L 138.24 52.8 
L 138.24 3.6 
L 5.76 3.6 
L 5.76 52.8 
z
" style="fill: none"/>
   </g>
   <g id="matplotlib.axis_1"/>
   <g id="matplotlib.axis_2"/>
   <g id="line2d_1">
    <path d="M 5.76 42.96 
L 138.24 42.96 
" clip-path="url(#p27de83ebe0)" style="fill: none; stroke: #b2b2b2; stroke-opacity: 0.35; stroke-width: 0.5; stroke-linecap: square"/>
   </g>
   <g id="line2d_2">
    <path d="M 5.76 33.12 
L 138.24 33.12 
" clip-path="url(#p27de83ebe0)" style="fill: none; stroke: #b2b2b2; stroke-opacity: 0.35; stroke-width: 0.5; stroke-linecap: square"/>
   </g>
   <g id="line2d_3">
    <path d="M 5.76 23.28 
L 138.24 23.28 
" clip-path="url(#p27de83ebe0)" style="fill: none; stroke: #b2b2b2; stroke-opacity: 0.35; stroke-width: 0.5; stroke-linecap: square"/>
   </g>
   <g id="line2d_4">
    <path d="M 5.76 13.44 
L 138.24 13.44 
" clip-path="url(#p27de83ebe0)" style="fill: none; stroke: #b2b2b2; stroke-opacity: 0.35; stroke-width: 0.5; stroke-linecap: square"/>
   </g>
   <g id="line2d_5">
    <path d="M 5.76 45.06084 
L 7.253878 45.33144 
L 8.747755 46.30068 
L 10.241633 46.34496 
L 11.73551 47.89476 
L 13.229388 48.26376 
L 14.723265 47.96364 
L 15.984433 48.55896 
L 17.171599 49.06572 
L 18.664716 50.04972 
L 20.152196 49.24776 
L 21.680222 49.32156 
L 23.161771 49.31172 
L 24.664173 49.43964 
L 26.154956 49.59708 
L 27.643456 49.80372 
L 29.136884 49.86768 
L 30.612797 49.479 
L 32.027848 49.24776 
L 33.617548 49.48392 
L 34.923775 49.37568 
L 36.602935 49.479 
L 38.094997 49.7004 
L 39.580143 49.62168 
L 41.064891 49.5282 
L 42.575834 49.49376 
L 44.074207 49.98576 
L 45.441883 49.96608 
L 47.056585 49.7004 
L 48.543806 49.27236 
L 50.034848 49.37076 
L 51.511124 49.68072 
L 53.038942 49.25268 
L 54.517397 49.51344 
L 56.01475 49.4052 
L 57.500259 49.34124 
L 58.997352 49.09032 
L 60.490521 49.24284 
L 61.972935 49.49868 
L 63.481319 49.64628 
L 64.979675 49.58724 
L 66.463956 49.36092 
L 67.957246 49.41996 
L 69.457002 49.45932 
L 70.947992 49.16904 
L 72.439881 49.22808 
L 73.96234 49.27236 
L 75.460436 48.87384 
L 76.928171 48.74592 
L 78.433442 48.70164 
L 79.927735 49.03128 
L 81.407071 49.1592 
L 82.8922 49.08048 
L 84.408417 49.21332 
L 85.905804 49.36584 
L 87.385849 49.11 
L 88.99099 48.90828 
L 90.391777 49.05096 
L 91.887539 49.37076 
L 93.367135 49.64628 
L 94.881363 49.6266 
L 96.379511 49.602 
L 97.863965 49.59708 
L 99.370655 49.59708 
L 100.844856 49.8726 
L 102.340445 49.88244 
L 103.821528 49.80864 
L 105.3379 49.78896 
L 106.835634 49.69056 
L 108.319811 49.83816 
L 109.81611 49.50852 
L 111.304783 49.68564 
L 112.812406 49.6266 
L 114.283443 49.48884 
L 115.804121 49.6512 
L 117.305658 49.69056 
L 118.790026 49.40028 
L 120.282762 49.58724 
L 121.783106 49.45932 
L 123.273941 49.27728 
L 124.75134 49.19856 
L 126.264946 49.43472 
L 127.762524 49.50852 
L 129.249848 49.46424 
L 130.739092 49.31664 
L 132.239021 49.4298 
L 133.736858 49.42488 
L 135.21291 49.37568 
L 136.730025 49.4052 
L 138.24 49.29204 
" clip-path="url(#p27de83ebe0)" style="fill: none; stroke: #bebebe; stroke-width: 0.6; stroke-linecap: round"/>
   </g>
   <g id="line2d_6">
    <path d="M 5.76 36.95268 
L 7.253878 37.05108 
L 8.747755 38.37948 
L 10.241633 39.20604 
L 11.73551 41.03136 
L 13.229388 42.26628 
L 14.723265 41.73492 
L 15.984433 42.23676 
L 17.171599 43.38804 
L 18.664716 44.89356 
L 20.152196 43.6242 
L 21.680222 43.575 
L 23.161771 43.53072 
L 24.664173 43.72752 
L 26.154956 44.0916 
L 27.643456 44.436 
L 29.136884 44.49012 
L 30.612797 43.81608 
L 32.027848 43.7226 
L 33.617548 44.5344 
L 34.923775 44.19 
L 36.602935 44.21952 
L 38.094997 44.3868 
L 39.580143 44.51472 
L 41.064891 44.4606 
L 42.575834 44.3868 
L 44.074207 45.174 
L 45.441883 45.23796 
L 47.056585 44.81484 
L 48.543806 43.821 
L 50.034848 44.01288 
L 51.511124 44.66232 
L 53.038942 43.93908 
L 54.517397 44.39664 
L 56.01475 44.12112 
L 57.500259 44.33268 
L 58.997352 43.3044 
L 60.490521 43.6242 
L 61.972935 44.29824 
L 63.481319 44.53932 
L 64.979675 44.30808 
L 66.463956 43.8702 
L 67.957246 44.00304 
L 69.457002 43.97844 
L 70.947992 43.41756 
L 72.439881 43.48152 
L 73.96234 43.48644 
L 75.460436 42.49752 
L 76.928171 41.73984 
L 78.433442 41.7546 
L 79.927735 42.591 
L 81.407071 43.14204 
L 82.8922 43.083 
L 84.408417 43.35852 
L 85.905804 43.78164 
L 87.385849 43.21584 
L 88.99099 42.9354 
L 90.391777 43.10268 
L 91.887539 43.72752 
L 93.367135 44.25396 
L 94.881363 44.10636 
L 96.379511 43.9194 
L 97.863965 43.74228 
L 99.370655 43.46676 
L 100.844856 43.65372 
L 102.340445 43.79148 
L 103.821528 43.81116 
L 105.3379 43.77672 
L 106.835634 43.2552 
L 108.319811 43.40772 
L 109.81611 42.49752 
L 111.304783 42.90588 
L 112.812406 42.8616 
L 114.283443 42.41388 
L 115.804121 42.63036 
L 117.305658 42.79764 
L 118.790026 41.57256 
L 120.282762 41.86284 
L 121.783106 41.63652 
L 123.273941 41.85792 
L 124.75134 41.22324 
L 126.264946 41.76936 
L 127.762524 42.1482 
L 129.249848 41.96616 
L 130.739092 41.59224 
L 132.239021 41.76936 
L 133.736858 41.99076 
L 135.21291 41.91696 
L 136.730025 41.98584 
L 138.24 41.41512 
" clip-path="url(#p27de83ebe0)" style="fill: none; stroke: #4a8dff; stroke-width: 0.6; stroke-linecap: round"/>
   </g>
   <g id="line2d_7">
    <path d="M 5.76 41.49384 
L 7.253878 41.51352 
L 8.747755 43.78164 
L 10.241633 43.9932 
L 11.73551 46.66968 
L 13.229388 47.55036 
L 14.723265 46.64508 
L 15.984433 47.89476 
L 17.171599 48.89352 
L 18.664716 49.84308 
L 20.152196 49.00176 
L 21.680222 49.233 
L 23.161771 48.97716 
L 24.664173 49.22316 
L 26.154956 49.36092 
L 27.643456 49.49868 
L 29.136884 49.58724 
L 30.612797 49.28712 
L 32.027848 49.16904 
L 33.617548 49.39044 
L 34.923775 49.29696 
L 36.602935 49.479 
L 38.094997 49.55772 
L 39.580143 49.51344 
L 41.064891 49.44948 
L 42.575834 49.41996 
L 44.074207 49.8234 
L 45.441883 49.86768 
L 47.056585 49.72992 
L 48.543806 49.39536 
L 50.034848 49.52328 
L 51.511124 49.6758 
L 53.038942 49.47408 
L 54.517397 49.60692 
L 56.01475 49.37568 
L 57.500259 49.36584 
L 58.997352 48.6672 
L 60.490521 48.95256 
L 61.972935 49.36092 
L 63.481319 49.54788 
L 64.979675 49.5282 
L 66.463956 49.09032 
L 67.957246 49.16412 
L 69.457002 49.2084 
L 70.947992 48.93288 
L 72.439881 48.95748 
L 73.96234 48.89844 
L 75.460436 48.48024 
L 76.928171 48.1998 
L 78.433442 48.28344 
L 79.927735 48.88368 
L 81.407071 49.04604 
L 82.8922 49.00176 
L 84.408417 49.20348 
L 85.905804 49.38552 
L 87.385849 49.04112 
L 88.99099 48.92796 
L 90.391777 48.987 
L 91.887539 49.29204 
L 93.367135 49.66104 
L 94.881363 49.56756 
L 96.379511 49.53312 
L 97.863965 49.46424 
L 99.370655 49.40028 
L 100.844856 49.56756 
L 102.340445 49.59708 
L 103.821528 49.56264 
L 105.3379 49.53312 
L 106.835634 49.25268 
L 108.319811 49.29696 
L 109.81611 48.89352 
L 111.304783 48.96732 
L 112.812406 48.8148 
L 114.283443 48.5934 
L 115.804121 48.84432 
L 117.305658 48.95748 
L 118.790026 48.30804 
L 120.282762 48.34248 
L 121.783106 48.21456 
L 123.273941 48.26376 
L 124.75134 47.41752 
L 126.264946 48.05712 
L 127.762524 48.26376 
L 129.249848 48.01776 
L 130.739092 47.23548 
L 132.239021 47.17644 
L 133.736858 47.15676 
L 135.21291 47.1666 
L 136.730025 47.31912 
L 138.24 46.49256 
" clip-path="url(#p27de83ebe0)" style="fill: none; stroke: #f5841e; stroke-width: 0.7; stroke-linecap: round"/>
   </g>
  </g>
 </g>
 <defs>
  <clipPath id="p27de83ebe0">
   <rect x="5.76" y="3.6" width="132.48" height="49.2"/>
  </clipPath>
 </defs>
</svg>
