<?xml version="1.0" encoding="utf-8" standalone="no"?>
<!DOCTYPE svg PUBLIC "-//W3C//DTD SVG 1.1//EN"
  "http://www.w3.org/Graphics/SVG/1.1/DTD/svg11.dtd">
<svg xmlns:xlink="http://www.w3.org/1999/xlink" width="144pt" height="60pt" viewBox="0 0 144 60" xmlns="http://www.w3.org/2000/svg" version="1.1">
  <desc id="nav-meta">{"window":"3m","count":4,"labels":["17.03","16.04","15.05","14.06"],"tick_utc":["2026-03-17T03:21:27Z","2026-04-16T03:58:40Z","2026-05-15T04:39:19Z","2026-06-14T05:19:47Z"]}</desc>

 <metadata>
  <rdf:RDF xmlns:dc="http://purl.org/dc/elements/1.1/" xmlns:cc="http://creativecommons.org/ns#" xmlns:rdf="http://www.w3.org/1999/02/22-rdf-syntax-ns#">
   <cc:Work>
    <dc:type rdf:resource="http://purl.org/dc/dcmitype/StillImage"/>
    <dc:date>2026-06-14T05:19:48.782770</dc:date>
    <dc:format>image/svg+xml</dc:format>
    <dc:creator>
     <cc:Agent>
      <dc:title>Matplotlib v3.11.0, https://matplotlib.org/</dc:title>
     </cc:Agent>
    </dc:creator>
   </cc:Work>
  </rdf:RDF>
 </metadata>
 <defs>
  <style type="text/css">*{stroke-linejoin: round; stroke-linecap: butt}</style>
 </defs>
 <g id="figure_1">
  <g id="patch_1">
   <path d="M 0 60 
L 144 60 
L 144 0 
L 0 0 
L 0 60 
z
" style="fill: none; opacity: 0"/>
  </g>
  <g id="axes_1">
   <g id="patch_2">
    <path d="M 5.76 52.8 
L 138.24 52.8 
L 138.24 3.6 
L 5.76 3.6 
L 5.76 52.8 
z
" style="fill: none"/>
   </g>
   <g id="matplotlib.axis_1"/>
   <g id="matplotlib.axis_2"/>
   <g id="line2d_1">
    <path d="M 5.76 42.96 
L 138.24 42.96 
" clip-path="url(#p18068a199b)" style="fill: none; stroke: #b2b2b2; stroke-opacity: 0.35; stroke-width: 0.5; stroke-linecap: square"/>
   </g>
   <g id="line2d_2">
    <path d="M 5.76 33.12 
L 138.24 33.12 
" clip-path="url(#p18068a199b)" style="fill: none; stroke: #b2b2b2; stroke-opacity: 0.35; stroke-width: 0.5; stroke-linecap: square"/>
   </g>
   <g id="line2d_3">
    <path d="M 5.76 23.28 
L 138.24 23.28 
" clip-path="url(#p18068a199b)" style="fill: none; stroke: #b2b2b2; stroke-opacity: 0.35; stroke-width: 0.5; stroke-linecap: square"/>
   </g>
   <g id="line2d_4">
    <path d="M 5.76 13.44 
L 138.24 13.44 
" clip-path="url(#p18068a199b)" style="fill: none; stroke: #b2b2b2; stroke-opacity: 0.35; stroke-width: 0.5; stroke-linecap: square"/>
   </g>
   <g id="line2d_5">
    <path d="M 5.76 48.74592 
L 7.258509 48.70164 
L 8.746089 49.03128 
L 10.218779 49.1592 
L 11.697236 49.08048 
L 13.20664 49.21332 
L 14.697301 49.36584 
L 16.170697 49.11 
L 17.768626 48.90828 
L 19.16312 49.05096 
L 20.652162 49.37076 
L 22.125111 49.64628 
L 23.632536 49.6266 
L 25.123954 49.602 
L 26.601739 49.59708 
L 28.10166 49.59708 
L 29.569238 49.8726 
L 31.058108 49.88244 
L 32.532537 49.80864 
L 34.042097 49.78896 
L 35.533102 49.69056 
L 37.010611 49.83816 
L 38.500187 49.50852 
L 39.982173 49.68564 
L 41.483023 49.6266 
L 42.947451 49.48884 
L 44.461297 49.6512 
L 45.956088 49.69056 
L 47.433787 49.40028 
L 48.919818 49.58724 
L 50.413421 49.45932 
L 51.897558 49.27728 
L 53.368321 49.19856 
L 54.875126 49.43472 
L 56.365976 49.50852 
L 57.846619 49.46424 
L 59.329172 49.31664 
L 60.822363 49.4298 
L 62.31347 49.42488 
L 63.78289 49.37568 
L 65.29319 49.4052 
L 66.796381 49.29204 
L 68.286663 49.5528 
L 69.769767 49.50852 
L 71.259429 49.64136 
L 72.762844 49.56756 
L 74.212056 49.56264 
L 75.729413 49.57248 
L 77.216063 49.42488 
L 78.670474 49.49376 
L 80.183838 49.32156 
L 81.6714 49.25268 
L 83.133814 49.24284 
L 84.62642 48.80004 
L 86.143553 48.85416 
L 87.642458 48.72132 
L 89.108969 48.63276 
L 90.60321 48.66228 
L 92.088723 49.09524 
L 93.583222 48.99192 
L 95.051403 49.19364 
L 96.560773 49.34616 
L 98.062381 49.47408 
L 99.538893 49.47408 
L 101.031377 49.54788 
L 102.527012 49.3314 
L 104.002784 49.34616 
L 105.469518 49.51836 
L 106.980231 49.41996 
L 108.486968 49.41504 
L 109.951603 49.5282 
L 111.454037 49.5774 
L 112.936453 49.7742 
L 114.42472 49.7004 
L 115.89044 49.69548 
L 117.407969 49.61676 
L 118.917133 49.71024 
L 120.389668 49.7988 
L 121.893565 50.19732 
L 123.375636 50.45808 
L 124.838309 50.59092 
L 126.302617 50.99928 
L 127.821747 50.82216 
L 129.315488 50.74344 
L 130.774271 50.62536 
L 132.276859 50.80248 
L 133.772752 50.76312 
L 135.265754 50.65488 
L 136.742042 50.6598 
L 138.24 50.56632 
" clip-path="url(#p18068a199b)" style="fill: none; stroke: #bebebe; stroke-width: 0.6; stroke-linecap: round"/>
   </g>
   <g id="line2d_6">
    <path d="M 5.76 41.73984 
L 7.258509 41.7546 
L 8.746089 42.591 
L 10.218779 43.14204 
L 11.697236 43.083 
L 13.20664 43.35852 
L 14.697301 43.78164 
L 16.170697 43.21584 
L 17.768626 42.9354 
L 19.16312 43.10268 
L 20.652162 43.72752 
L 22.125111 44.25396 
L 23.632536 44.10636 
L 25.123954 43.9194 
L 26.601739 43.74228 
L 28.10166 43.46676 
L 29.569238 43.65372 
L 31.058108 43.79148 
L 32.532537 43.81116 
L 34.042097 43.77672 
L 35.533102 43.2552 
L 37.010611 43.40772 
L 38.500187 42.49752 
L 39.982173 42.90588 
L 41.483023 42.8616 
L 42.947451 42.41388 
L 44.461297 42.63036 
L 45.956088 42.79764 
L 47.433787 41.57256 
L 48.919818 41.86284 
L 50.413421 41.63652 
L 51.897558 41.85792 
L 53.368321 41.22324 
L 54.875126 41.76936 
L 56.365976 42.1482 
L 57.846619 41.96616 
L 59.329172 41.59224 
L 60.822363 41.76936 
L 62.31347 41.99076 
L 63.78289 41.91696 
L 65.29319 41.98584 
L 66.796381 41.41512 
L 68.286663 42.15312 
L 69.769767 41.96124 
L 71.259429 42.43848 
L 72.762844 42.20232 
L 74.212056 42.02028 
L 75.729413 42.0252 
L 77.216063 41.40528 
L 78.670474 41.46432 
L 80.183838 41.52336 
L 81.6714 41.86776 
L 83.133814 42.1974 
L 84.62642 41.8776 
L 86.143553 41.84316 
L 87.642458 41.8038 
L 89.108969 41.976 
L 90.60321 42.00552 
L 92.088723 42.3942 
L 93.583222 42.27612 
L 95.051403 42.57624 
L 96.560773 42.85176 
L 98.062381 43.31424 
L 99.538893 43.2306 
L 101.031377 43.39296 
L 102.527012 43.16172 
L 104.002784 43.24536 
L 105.469518 43.71768 
L 106.980231 43.33392 
L 108.486968 43.42248 
L 109.951603 43.51596 
L 111.454037 43.67832 
L 112.936453 44.32776 
L 114.42472 44.13588 
L 115.89044 44.16048 
L 117.407969 43.96368 
L 118.917133 44.2392 
L 120.389668 44.19984 
L 121.893565 45.16908 
L 123.375636 45.67584 
L 124.838309 46.00548 
L 126.302617 47.57004 
L 127.821747 47.04852 
L 129.315488 46.64016 
L 130.774271 46.34496 
L 132.276859 46.82712 
L 133.772752 46.65492 
L 135.265754 46.51716 
L 136.742042 46.5516 
L 138.24 46.46304 
" clip-path="url(#p18068a199b)" style="fill: none; stroke: #4a8dff; stroke-width: 0.6; stroke-linecap: round"/>
   </g>
   <g id="line2d_7">
    <path d="M 5.76 48.1998 
L 7.258509 48.28344 
L 8.746089 48.88368 
L 10.218779 49.04604 
L 11.697236 49.00176 
L 13.20664 49.20348 
L 14.697301 49.38552 
L 16.170697 49.04112 
L 17.768626 48.92796 
L 19.16312 48.987 
L 20.652162 49.29204 
L 22.125111 49.66104 
L 23.632536 49.56756 
L 25.123954 49.53312 
L 26.601739 49.46424 
L 28.10166 49.40028 
L 29.569238 49.56756 
L 31.058108 49.59708 
L 32.532537 49.56264 
L 34.042097 49.53312 
L 35.533102 49.25268 
L 37.010611 49.29696 
L 38.500187 48.89352 
L 39.982173 48.96732 
L 41.483023 48.8148 
L 42.947451 48.5934 
L 44.461297 48.84432 
L 45.956088 48.95748 
L 47.433787 48.30804 
L 48.919818 48.34248 
L 50.413421 48.21456 
L 51.897558 48.26376 
L 53.368321 47.41752 
L 54.875126 48.05712 
L 56.365976 48.26376 
L 57.846619 48.01776 
L 59.329172 47.23548 
L 60.822363 47.17644 
L 62.31347 47.15676 
L 63.78289 47.1666 
L 65.29319 47.31912 
L 66.796381 46.49256 
L 68.286663 47.64876 
L 69.769767 47.5356 
L 71.259429 48.0276 
L 72.762844 47.50608 
L 74.212056 46.81728 
L 75.729413 46.92552 
L 77.216063 45.85788 
L 78.670474 45.60204 
L 80.183838 45.29208 
L 81.6714 45.58728 
L 83.133814 46.2564 
L 84.62642 45.7152 
L 86.143553 45.63648 
L 87.642458 45.6414 
L 89.108969 45.45936 
L 90.60321 45.42492 
L 92.088723 46.38432 
L 93.583222 45.57744 
L 95.051403 46.51716 
L 96.560773 46.95996 
L 98.062381 47.54544 
L 99.538893 47.59464 
L 101.031377 47.66844 
L 102.527012 47.05344 
L 104.002784 47.22564 
L 105.469518 48.07188 
L 106.980231 47.6832 
L 108.486968 47.37324 
L 109.951603 47.66844 
L 111.454037 48.07188 
L 112.936453 48.59832 
L 114.42472 48.52452 
L 115.89044 48.5688 
L 117.407969 48.38676 
L 118.917133 48.55404 
L 120.389668 49.0116 
L 121.893565 49.57248 
L 123.375636 49.93656 
L 124.838309 49.98084 
L 126.302617 50.3646 
L 127.821747 50.15796 
L 129.315488 50.07432 
L 130.774271 49.99068 
L 132.276859 50.217 
L 133.772752 50.07924 
L 135.265754 49.98084 
L 136.742042 49.971 
L 138.24 49.87752 
" clip-path="url(#p18068a199b)" style="fill: none; stroke: #f5841e; stroke-width: 0.7; stroke-linecap: round"/>
   </g>
  </g>
 </g>
 <defs>
  <clipPath id="p18068a199b">
   <rect x="5.76" y="3.6" width="132.48" height="49.2"/>
  </clipPath>
 </defs>
</svg>
