<?xml version="1.0" encoding="utf-8" standalone="no"?>
<!DOCTYPE svg PUBLIC "-//W3C//DTD SVG 1.1//EN"
  "http://www.w3.org/Graphics/SVG/1.1/DTD/svg11.dtd">
<svg xmlns:xlink="http://www.w3.org/1999/xlink" width="144pt" height="60pt" viewBox="0 0 144 60" xmlns="http://www.w3.org/2000/svg" version="1.1">
  <desc id="nav-meta">{"window":"2w","count":4,"labels":["03.02","08.02","12.02","16.02"],"tick_utc":["2026-02-03T12:00:00Z","2026-02-08T03:46:03Z","2026-02-12T03:34:13Z","2026-02-16T03:32:51Z"]}</desc>

 <metadata>
  <rdf:RDF xmlns:dc="http://purl.org/dc/elements/1.1/" xmlns:cc="http://creativecommons.org/ns#" xmlns:rdf="http://www.w3.org/1999/02/22-rdf-syntax-ns#">
   <cc:Work>
    <dc:type rdf:resource="http://purl.org/dc/dcmitype/StillImage"/>
    <dc:date>2026-02-16T13:51:46.259646</dc:date>
    <dc:format>image/svg+xml</dc:format>
    <dc:creator>
     <cc:Agent>
      <dc:title>Matplotlib v3.10.8, https://matplotlib.org/</dc:title>
     </cc:Agent>
    </dc:creator>
   </cc:Work>
  </rdf:RDF>
 </metadata>
 <defs>
  <style type="text/css">*{stroke-linejoin: round; stroke-linecap: butt}</style>
 </defs>
 <g id="figure_1">
  <g id="patch_1">
   <path d="M 0 60 
L 144 60 
L 144 0 
L 0 0 
L 0 60 
z
" style="fill: none; opacity: 0"/>
  </g>
  <g id="axes_1">
   <g id="patch_2">
    <path d="M 5.76 52.8 
L 138.24 52.8 
L 138.24 3.6 
L 5.76 3.6 
L 5.76 52.8 
z
" style="fill: none"/>
   </g>
   <g id="matplotlib.axis_1"/>
   <g id="matplotlib.axis_2"/>
   <g id="line2d_1">
    <path d="M 5.76 42.96 
L 138.24 42.96 
" clip-path="url(#p4f64346b86)" style="fill: none; stroke: #b2b2b2; stroke-opacity: 0.35; stroke-width: 0.5; stroke-linecap: square"/>
   </g>
   <g id="line2d_2">
    <path d="M 5.76 33.12 
L 138.24 33.12 
" clip-path="url(#p4f64346b86)" style="fill: none; stroke: #b2b2b2; stroke-opacity: 0.35; stroke-width: 0.5; stroke-linecap: square"/>
   </g>
   <g id="line2d_3">
    <path d="M 5.76 23.28 
L 138.24 23.28 
" clip-path="url(#p4f64346b86)" style="fill: none; stroke: #b2b2b2; stroke-opacity: 0.35; stroke-width: 0.5; stroke-linecap: square"/>
   </g>
   <g id="line2d_4">
    <path d="M 5.76 13.44 
L 138.24 13.44 
" clip-path="url(#p4f64346b86)" style="fill: none; stroke: #b2b2b2; stroke-opacity: 0.35; stroke-width: 0.5; stroke-linecap: square"/>
   </g>
   <g id="line2d_5">
    <path d="M 5.76 47.96364 
L 14.602862 48.55896 
L 22.926847 49.06572 
L 33.396052 50.04972 
L 43.825734 49.24776 
L 54.539708 49.32156 
L 64.927807 49.31172 
L 75.462114 49.43964 
L 85.914952 49.59708 
L 96.351787 49.80372 
L 106.823173 49.86768 
L 117.171751 49.479 
L 127.093588 49.24776 
L 138.24 49.48392 
" clip-path="url(#p4f64346b86)" style="fill: none; stroke: #bebebe; stroke-width: 0.6; stroke-linecap: round"/>
   </g>
   <g id="line2d_6">
    <path d="M 5.76 41.73492 
L 14.602862 42.23676 
L 22.926847 43.38804 
L 33.396052 44.89356 
L 43.825734 43.6242 
L 54.539708 43.575 
L 64.927807 43.53072 
L 75.462114 43.72752 
L 85.914952 44.0916 
L 96.351787 44.436 
L 106.823173 44.49012 
L 117.171751 43.81608 
L 127.093588 43.7226 
L 138.24 44.5344 
" clip-path="url(#p4f64346b86)" style="fill: none; stroke: #4a8dff; stroke-width: 0.6; stroke-linecap: round"/>
   </g>
   <g id="line2d_7">
    <path d="M 5.76 46.64508 
L 14.602862 47.89476 
L 22.926847 48.89352 
L 33.396052 49.84308 
L 43.825734 49.00176 
L 54.539708 49.233 
L 64.927807 48.97716 
L 75.462114 49.22316 
L 85.914952 49.36092 
L 96.351787 49.49868 
L 106.823173 49.58724 
L 117.171751 49.28712 
L 127.093588 49.16904 
L 138.24 49.39044 
" clip-path="url(#p4f64346b86)" style="fill: none; stroke: #f5841e; stroke-width: 0.7; stroke-linecap: round"/>
   </g>
  </g>
 </g>
 <defs>
  <clipPath id="p4f64346b86">
   <rect x="5.76" y="3.6" width="132.48" height="49.2"/>
  </clipPath>
 </defs>
</svg>
