<?xml version="1.0" encoding="utf-8" standalone="no"?>
<!DOCTYPE svg PUBLIC "-//W3C//DTD SVG 1.1//EN"
  "http://www.w3.org/Graphics/SVG/1.1/DTD/svg11.dtd">
<svg xmlns:xlink="http://www.w3.org/1999/xlink" width="144pt" height="60pt" viewBox="0 0 144 60" xmlns="http://www.w3.org/2000/svg" version="1.1">
  <desc id="nav-meta">{"window":"1y","count":4,"labels":["04.03","03.07","01.11","03.03"],"tick_utc":["2025-03-04T12:00:00Z","2025-07-03T12:00:00Z","2025-11-01T12:00:00Z","2026-03-03T03:22:17Z"]}</desc>

 <metadata>
  <rdf:RDF xmlns:dc="http://purl.org/dc/elements/1.1/" xmlns:cc="http://creativecommons.org/ns#" xmlns:rdf="http://www.w3.org/1999/02/22-rdf-syntax-ns#">
   <cc:Work>
    <dc:type rdf:resource="http://purl.org/dc/dcmitype/StillImage"/>
    <dc:date>2026-03-03T19:28:02.370945</dc:date>
    <dc:format>image/svg+xml</dc:format>
    <dc:creator>
     <cc:Agent>
      <dc:title>Matplotlib v3.10.8, https://matplotlib.org/</dc:title>
     </cc:Agent>
    </dc:creator>
   </cc:Work>
  </rdf:RDF>
 </metadata>
 <defs>
  <style type="text/css">*{stroke-linejoin: round; stroke-linecap: butt}</style>
 </defs>
 <g id="figure_1">
  <g id="patch_1">
   <path d="M 0 60 
L 144 60 
L 144 0 
L 0 0 
L 0 60 
z
" style="fill: none; opacity: 0"/>
  </g>
  <g id="axes_1">
   <g id="patch_2">
    <path d="M 5.76 52.8 
L 138.24 52.8 
L 138.24 3.6 
L 5.76 3.6 
L 5.76 52.8 
z
" style="fill: none"/>
   </g>
   <g id="matplotlib.axis_1"/>
   <g id="matplotlib.axis_2"/>
   <g id="line2d_1">
    <path d="M 5.76 42.96 
L 138.24 42.96 
" clip-path="url(#p1dadff1a60)" style="fill: none; stroke: #b2b2b2; stroke-opacity: 0.35; stroke-width: 0.5; stroke-linecap: square"/>
   </g>
   <g id="line2d_2">
    <path d="M 5.76 33.12 
L 138.24 33.12 
" clip-path="url(#p1dadff1a60)" style="fill: none; stroke: #b2b2b2; stroke-opacity: 0.35; stroke-width: 0.5; stroke-linecap: square"/>
   </g>
   <g id="line2d_3">
    <path d="M 5.76 23.28 
L 138.24 23.28 
" clip-path="url(#p1dadff1a60)" style="fill: none; stroke: #b2b2b2; stroke-opacity: 0.35; stroke-width: 0.5; stroke-linecap: square"/>
   </g>
   <g id="line2d_4">
    <path d="M 5.76 13.44 
L 138.24 13.44 
" clip-path="url(#p1dadff1a60)" style="fill: none; stroke: #b2b2b2; stroke-opacity: 0.35; stroke-width: 0.5; stroke-linecap: square"/>
   </g>
   <g id="line2d_5">
    <path d="M 5.76 43.0584 
L 6.124316 42.72384 
L 6.488632 42.58116 
L 6.852948 42.9354 
L 7.217264 43.49136 
L 7.581579 43.79148 
L 8.310211 46.14816 
L 8.674527 45.28224 
L 9.038843 45.13464 
L 9.403159 45.5676 
L 9.767475 44.22444 
L 10.131791 43.92924 
L 10.496106 45.18876 
L 10.860422 44.91324 
L 11.224738 45.297 
L 11.589054 43.95384 
L 11.95337 44.99196 
L 12.682002 44.89848 
L 13.046318 44.41632 
L 13.410634 43.30932 
L 13.774949 42.87144 
L 14.139265 43.76196 
L 14.503581 43.59468 
L 14.867897 44.76072 
L 15.232213 45.40524 
L 15.960845 45.35604 
L 16.325161 45.10512 
L 16.689476 46.24164 
L 17.053792 46.3548 
L 17.418108 45.63648 
L 17.782424 45.97104 
L 18.14674 47.84556 
L 18.511056 47.71272 
L 18.875372 47.88 
L 19.239688 46.12848 
L 19.604003 46.91568 
L 20.332635 44.40648 
L 20.696951 44.91816 
L 21.061267 44.76564 
L 21.425583 45.16908 
L 21.789899 44.49504 
L 22.154215 44.08668 
L 22.518531 44.17032 
L 22.882846 43.43232 
L 23.611478 43.86528 
L 23.975794 42.23676 
L 24.704426 41.7792 
L 25.797373 42.31056 
L 26.161689 42.345 
L 26.526005 42.5418 
L 26.890321 42.37944 
L 27.254637 41.98584 
L 27.618953 42.345 
L 27.983269 42.49752 
L 28.347585 42.86652 
L 28.711901 42.49752 
L 29.440532 42.44832 
L 29.804848 40.33272 
L 30.169164 39.12732 
L 30.53348 38.52216 
L 30.897796 39.10272 
L 31.262112 38.901 
L 31.626428 37.6464 
L 32.355059 39.639 
L 33.083691 40.008 
L 33.448007 39.27492 
L 33.812323 39.90468 
L 34.176639 39.6882 
L 34.905271 38.22696 
L 35.269586 38.901 
L 35.633902 38.69436 
L 36.362534 38.86164 
L 36.72685 38.62056 
L 37.455482 39.88992 
L 37.819798 41.23308 
L 38.912745 41.17404 
L 39.641377 41.62176 
L 40.005693 42.79272 
L 40.370009 42.30564 
L 41.09864 41.7546 
L 41.462956 40.62792 
L 41.827272 40.131 
L 42.191588 40.6476 
L 42.555904 41.73492 
L 43.284536 42.76812 
L 43.648852 41.73492 
L 44.013168 41.89728 
L 44.377483 42.345 
L 44.741799 42.5664 
L 45.106115 42.46308 
L 45.834747 44.20476 
L 46.199063 44.45076 
L 46.563379 42.7632 
L 46.927695 42.63036 
L 47.29201 42.94524 
L 47.656326 43.52088 
L 48.020642 43.1076 
L 48.384958 41.98092 
L 49.11359 41.43972 
L 49.477906 42.4926 
L 49.842222 41.79888 
L 50.206538 41.78412 
L 50.570853 42.37452 
L 50.935169 42.3942 
L 51.299485 41.83332 
L 51.663801 42.24168 
L 52.028117 41.84316 
L 52.756749 40.2786 
L 53.121065 40.42128 
L 53.48538 40.71648 
L 54.214012 40.48032 
L 54.578328 40.26384 
L 54.942644 38.97972 
L 55.671276 38.51724 
L 56.035592 38.57628 
L 56.399908 38.04492 
L 56.764223 36.03264 
L 57.128539 34.88136 
L 57.492855 36.92316 
L 57.857171 37.8432 
L 58.221487 37.37088 
L 58.585803 37.53324 
L 58.950119 37.056 
L 59.314435 37.77924 
L 59.67875 38.02032 
L 60.043066 38.45328 
L 60.407382 39.1962 
L 60.771698 40.41636 
L 61.136014 40.97232 
L 61.50033 40.53444 
L 61.864646 39.55536 
L 62.228962 40.24908 
L 62.593278 39.7128 
L 62.957593 38.778 
L 63.321909 38.59104 
L 64.050541 37.794 
L 64.414857 38.82228 
L 64.779173 36.53448 
L 65.143489 35.334 
L 65.87212 37.44468 
L 66.236436 36.90348 
L 66.600752 36.65748 
L 67.329384 38.64516 
L 67.6937 37.2282 
L 68.058016 38.14332 
L 68.422332 35.53572 
L 68.786647 35.04372 
L 69.150963 34.80264 
L 69.515279 37.23804 
L 70.608227 33.67104 
L 70.972543 34.90596 
L 72.06549 35.9736 
L 72.429806 34.36476 
L 72.794122 34.1778 
L 73.158438 35.22084 
L 73.522754 35.11752 
L 73.88707 35.54556 
L 75.344333 32.44104 
L 75.708649 31.83096 
L 76.072965 30.06468 
L 76.437281 30.01056 
L 76.801597 30.291 
L 77.165913 31.16184 
L 77.530229 30.74856 
L 77.894545 29.71536 
L 78.25886 29.37588 
L 78.623176 30.57636 
L 78.987492 30.42876 
L 79.351808 30.79284 
L 79.716124 32.91828 
L 80.08044 33.72024 
L 80.444756 34.05972 
L 80.809072 36.5886 
L 81.173387 34.90104 
L 81.537703 35.10276 
L 81.902019 34.16796 
L 82.266335 33.8826 
L 82.630651 34.43364 
L 83.359283 31.05852 
L 83.723599 31.26024 
L 84.087915 31.92936 
L 84.45223 31.85064 
L 84.816546 31.3242 
L 85.180862 32.84448 
L 85.545178 31.78176 
L 85.909494 32.85924 
L 86.27381 36.8838 
L 86.638126 38.39424 
L 87.002442 35.95392 
L 87.366757 34.53696 
L 87.731073 35.20608 
L 88.459705 37.57752 
L 88.824021 37.90716 
L 89.188337 37.18884 
L 89.552653 37.18392 
L 89.916969 36.89364 
L 90.281284 37.42008 
L 90.6456 38.17284 
L 91.009916 36.687 
L 91.374232 36.42132 
L 91.738548 36.34752 
L 92.102864 35.56032 
L 92.46718 35.72268 
L 92.831496 36.29832 
L 93.195812 36.32292 
L 93.560127 37.61688 
L 93.924443 37.2282 
L 94.288759 37.34628 
L 94.653075 37.23804 
L 95.017391 40.008 
L 95.381707 41.36592 
L 95.746023 40.43604 
L 96.110339 41.44956 
L 96.474654 40.53444 
L 96.83897 41.02152 
L 97.203286 40.22448 
L 97.567602 39.79644 
L 97.931918 41.51844 
L 98.296234 41.66604 
L 99.024866 43.51596 
L 99.389182 43.43724 
L 99.753497 43.71276 
L 100.117813 44.59836 
L 100.482129 43.30932 
L 101.575077 44.88372 
L 101.939393 44.99688 
L 102.303709 44.57868 
L 102.668024 43.5996 
L 103.03234 43.51596 
L 103.396656 43.00428 
L 103.760972 43.2798 
L 104.125288 43.71768 
L 104.85392 44.0916 
L 105.218236 45.11004 
L 105.582552 43.55532 
L 105.946867 42.72876 
L 106.675499 44.27364 
L 107.404131 44.47536 
L 107.768447 44.25888 
L 108.132763 43.64388 
L 108.497079 43.84068 
L 108.861394 43.85052 
L 109.22571 44.36712 
L 109.590026 44.26872 
L 109.954342 44.74104 
L 110.318658 44.98704 
L 110.682974 44.84436 
L 111.04729 45.58728 
L 111.411606 46.0596 
L 111.775921 45.18384 
L 113.233185 45.47904 
L 113.597501 45.65616 
L 113.961817 45.98088 
L 114.690449 45.38556 
L 115.054764 45.31668 
L 115.41908 45.58728 
L 115.783396 45.35604 
L 116.147712 45.40032 
L 116.512028 45.11496 
L 116.876344 44.42124 
L 117.604976 44.18508 
L 118.333607 43.24044 
L 118.697923 43.8702 
L 119.062239 43.60944 
L 119.426555 43.92924 
L 119.790871 43.93416 
L 120.155187 43.46184 
L 120.519503 43.5012 
L 120.883819 42.72384 
L 121.248134 42.51228 
L 121.61245 43.08792 
L 121.976766 42.75828 
L 122.341082 42.90096 
L 123.069714 44.2392 
L 123.43403 45.23304 
L 123.798346 44.77548 
L 124.526977 45.04608 
L 124.891293 45.07068 
L 125.255609 46.1334 
L 125.619925 45.4446 
L 125.984241 45.06084 
L 126.348557 45.33144 
L 126.712873 46.30068 
L 127.077189 46.34496 
L 127.441504 47.89476 
L 127.80582 48.26376 
L 128.170136 47.96364 
L 129.131348 50.04972 
L 129.494104 49.24776 
L 130.958013 49.59708 
L 131.321017 49.80372 
L 131.685224 49.86768 
L 132.390251 49.24776 
L 132.777935 49.48392 
L 133.096488 49.37568 
L 133.505989 49.479 
L 133.869862 49.7004 
L 134.962616 49.49376 
L 135.328028 49.98576 
L 135.661567 49.96608 
L 136.055349 49.7004 
L 136.418041 49.27236 
L 136.781665 49.37076 
L 137.141689 49.68072 
L 137.514282 49.25268 
L 137.874837 49.51344 
L 138.24 49.4052 
L 138.24 49.4052 
" clip-path="url(#p1dadff1a60)" style="fill: none; stroke: #bebebe; stroke-width: 0.6; stroke-linecap: round"/>
   </g>
   <g id="line2d_6">
    <path d="M 5.76 43.12728 
L 6.124316 42.96 
L 6.488632 42.468 
L 6.852948 42.74352 
L 7.217264 43.17648 
L 7.581579 42.75828 
L 8.310211 45.0264 
L 8.674527 44.7312 
L 9.038843 44.805 
L 9.403159 45.14448 
L 10.131791 44.59836 
L 10.496106 44.96736 
L 10.860422 44.67216 
L 11.224738 44.64756 
L 11.589054 43.74228 
L 11.95337 44.30808 
L 12.317686 44.42616 
L 13.046318 44.1654 
L 13.410634 43.6242 
L 13.774949 43.68816 
L 14.139265 44.10144 
L 14.503581 44.15064 
L 14.867897 44.9034 
L 15.232213 45.38064 
L 15.596529 45.55284 
L 15.960845 45.41508 
L 16.325161 44.8296 
L 16.689476 45.6168 
L 17.053792 45.45936 
L 17.782424 45.5184 
L 18.14674 47.18136 
L 18.511056 47.3142 
L 18.875372 47.90952 
L 19.239688 46.56144 
L 19.604003 47.54052 
L 19.968319 47.23056 
L 20.332635 46.67952 
L 20.696951 47.03376 
L 21.061267 46.85172 
L 21.425583 47.08788 
L 21.789899 47.16168 
L 22.518531 47.07804 
L 22.882846 46.896 
L 23.247162 47.10756 
L 23.611478 47.16168 
L 23.975794 45.87264 
L 24.34011 45.63156 
L 24.704426 45.80376 
L 25.433058 45.43968 
L 25.797373 45.63156 
L 26.526005 45.61188 
L 26.890321 45.63156 
L 27.254637 45.31176 
L 27.983269 45.3462 
L 28.347585 45.52824 
L 29.076216 45.47412 
L 29.440532 45.51348 
L 29.804848 42.77796 
L 30.169164 41.75952 
L 30.53348 40.04244 
L 30.897796 40.58364 
L 31.262112 40.69188 
L 31.626428 39.38808 
L 32.355059 40.33764 
L 32.719375 40.32288 
L 33.083691 40.81488 
L 33.448007 40.88376 
L 33.812323 40.44588 
L 34.176639 40.46556 
L 34.540955 40.21956 
L 34.905271 39.52584 
L 35.269586 40.49508 
L 36.362534 40.19496 
L 36.72685 39.4914 
L 37.091166 39.38808 
L 37.455482 39.69312 
L 37.819798 40.46556 
L 38.548429 40.36716 
L 38.912745 39.8604 
L 39.277061 39.96372 
L 39.641377 39.85548 
L 40.005693 41.1888 
L 40.734325 40.4508 
L 41.09864 40.5738 
L 41.827272 38.45328 
L 42.191588 38.68452 
L 42.555904 39.55536 
L 42.92022 40.09164 
L 43.284536 40.39668 
L 44.013168 40.2048 
L 44.377483 40.52952 
L 45.106115 40.48032 
L 45.834747 42.26136 
L 46.199063 42.5664 
L 46.563379 41.17404 
L 46.927695 41.0166 
L 47.29201 41.22324 
L 48.020642 41.17896 
L 48.384958 41.08056 
L 48.749274 40.61808 
L 49.11359 40.7214 
L 49.477906 41.30688 
L 49.842222 40.11132 
L 50.206538 39.99816 
L 50.570853 40.56888 
L 50.935169 40.51476 
L 51.299485 40.131 
L 51.663801 40.3278 
L 52.028117 39.81612 
L 52.756749 37.46436 
L 53.121065 37.39056 
L 53.48538 37.50372 
L 54.214012 37.01172 
L 54.578328 36.16056 
L 54.942644 34.4976 
L 55.30696 33.69072 
L 56.035592 32.89368 
L 56.399908 31.73256 
L 56.764223 31.68336 
L 57.128539 31.8162 
L 57.492855 32.64276 
L 57.857171 32.0868 
L 58.585803 31.85064 
L 58.950119 30.98964 
L 59.314435 31.53576 
L 59.67875 31.521 
L 60.043066 31.38816 
L 60.407382 32.17044 
L 60.771698 33.68088 
L 61.136014 34.28604 
L 61.50033 33.58248 
L 61.864646 32.0376 
L 62.228962 32.76576 
L 62.593278 32.259 
L 62.957593 30.65508 
L 63.321909 29.93676 
L 63.686225 28.14588 
L 64.414857 28.40664 
L 64.779173 25.73508 
L 65.143489 24.62316 
L 65.507805 26.10408 
L 65.87212 26.97984 
L 66.236436 27.00936 
L 66.600752 26.58132 
L 66.965068 27.7818 
L 67.329384 29.49888 
L 67.6937 27.68832 
L 68.058016 28.44108 
L 68.422332 24.16068 
L 68.786647 24.55428 
L 69.150963 24.51984 
L 69.515279 27.32916 
L 69.879595 25.7646 
L 70.243911 26.48784 
L 70.608227 26.43372 
L 70.972543 27.44724 
L 71.701175 27.27504 
L 72.06549 27.8802 
L 72.429806 27.72276 
L 72.794122 26.84208 
L 73.158438 27.91956 
L 73.522754 27.8556 
L 73.88707 28.09668 
L 74.251386 27.87528 
L 74.980017 27.83592 
L 75.344333 27.57024 
L 75.708649 26.77812 
L 76.072965 25.01184 
L 76.801597 25.71048 
L 77.165913 26.31564 
L 77.530229 26.45832 
L 77.894545 25.8384 
L 78.25886 25.84824 
L 78.623176 26.6994 
L 78.987492 26.62068 
L 79.351808 26.8224 
L 79.716124 28.61328 
L 80.444756 28.97244 
L 80.809072 30.99456 
L 81.173387 29.76456 
L 81.537703 29.8974 
L 81.902019 29.02164 
L 82.266335 28.50012 
L 82.630651 29.00688 
L 83.359283 26.601 
L 83.723599 26.3796 
L 84.087915 26.5764 
L 84.45223 26.3796 
L 84.816546 25.1496 
L 85.180862 26.81256 
L 85.545178 26.29596 
L 85.909494 27.41772 
L 86.27381 31.19136 
L 86.638126 31.80144 
L 87.002442 28.89864 
L 87.366757 28.28364 
L 88.459705 30.80268 
L 88.824021 31.22088 
L 89.188337 30.8076 
L 89.552653 30.13356 
L 89.916969 30.17784 
L 90.6456 31.42752 
L 91.009916 31.04376 
L 91.374232 30.49764 
L 91.738548 30.3648 
L 92.102864 28.88388 
L 92.46718 29.15448 
L 92.831496 30.15324 
L 93.560127 31.4226 
L 94.288759 30.9306 
L 94.653075 30.66 
L 95.381707 34.99944 
L 95.746023 34.07448 
L 96.110339 34.9158 
L 96.474654 34.02528 
L 96.83897 34.26144 
L 97.203286 33.0216 
L 97.567602 33.10524 
L 97.931918 34.1532 
L 98.296234 34.2024 
L 99.024866 36.34752 
L 99.389182 35.89488 
L 100.117813 36.94776 
L 100.482129 36.2688 
L 100.846445 36.97236 
L 101.210761 38.286 
L 101.575077 38.76324 
L 101.939393 38.73864 
L 102.303709 38.51724 
L 102.668024 37.42992 
L 103.03234 37.42008 
L 103.396656 36.90348 
L 103.760972 36.98712 
L 104.125288 36.86412 
L 104.489604 37.16424 
L 104.85392 37.14948 
L 105.218236 38.52216 
L 105.946867 35.71776 
L 106.311183 36.15564 
L 106.675499 36.93792 
L 107.404131 36.72636 
L 107.768447 36.21468 
L 108.132763 34.8174 
L 108.497079 34.7928 
L 108.861394 35.42748 
L 109.22571 36.49512 
L 109.590026 36.28356 
L 109.954342 36.6378 
L 110.318658 37.3512 
L 110.682974 37.3512 
L 111.04729 38.31552 
L 111.411606 38.32536 
L 111.775921 37.26264 
L 112.140237 37.26264 
L 112.504553 37.09044 
L 112.868869 37.06092 
L 113.233185 37.34628 
L 113.597501 37.48404 
L 113.961817 37.77924 
L 114.690449 37.45944 
L 115.41908 37.56276 
L 115.783396 37.31184 
L 116.147712 37.33644 
L 116.512028 37.09536 
L 116.876344 36.23928 
L 117.604976 36.11628 
L 118.333607 35.0142 
L 118.697923 35.93424 
L 119.062239 36.36228 
L 119.426555 36.50988 
L 119.790871 36.5148 
L 120.155187 36.25404 
L 120.519503 36.46068 
L 120.883819 34.83708 
L 121.248134 34.57632 
L 121.976766 35.00436 
L 122.341082 34.93056 
L 122.705398 35.088 
L 123.069714 35.78664 
L 123.43403 37.55292 
L 123.798346 37.26756 
L 124.162661 37.46436 
L 124.891293 37.45944 
L 125.255609 38.41392 
L 125.984241 36.95268 
L 126.348557 37.05108 
L 126.712873 38.37948 
L 127.077189 39.20604 
L 127.441504 41.03136 
L 127.80582 42.26628 
L 128.170136 41.73492 
L 128.477701 42.23676 
L 129.131348 44.89356 
L 129.494104 43.6242 
L 130.228057 43.53072 
L 130.594452 43.72752 
L 131.321017 44.436 
L 131.685224 44.49012 
L 132.045158 43.81608 
L 132.390251 43.7226 
L 132.777935 44.5344 
L 133.096488 44.19 
L 133.505989 44.21952 
L 134.232049 44.51472 
L 134.962616 44.3868 
L 135.328028 45.174 
L 135.661567 45.23796 
L 136.055349 44.81484 
L 136.418041 43.821 
L 136.781665 44.01288 
L 137.141689 44.66232 
L 137.514282 43.93908 
L 137.874837 44.39664 
L 138.24 44.12112 
L 138.24 44.12112 
" clip-path="url(#p1dadff1a60)" style="fill: none; stroke: #4a8dff; stroke-width: 0.6; stroke-linecap: round"/>
   </g>
   <g id="line2d_7">
    <path d="M 5.76 43.01412 
L 6.124316 42.42864 
L 6.488632 40.80012 
L 6.852948 41.10024 
L 7.217264 42.69432 
L 7.581579 43.00428 
L 7.945895 45.666 
L 8.310211 46.64016 
L 8.674527 44.6574 
L 9.038843 44.12112 
L 9.403159 45.4938 
L 9.767475 44.07684 
L 10.131791 43.8702 
L 10.496106 44.75088 
L 10.860422 44.02764 
L 11.224738 44.66724 
L 11.589054 42.67464 
L 11.95337 43.92924 
L 12.682002 44.1654 
L 13.410634 42.4188 
L 13.774949 42.32532 
L 14.139265 42.60084 
L 14.503581 42.468 
L 14.867897 43.88496 
L 15.232213 44.71644 
L 15.596529 44.87388 
L 15.960845 44.79516 
L 16.325161 43.452 
L 16.689476 44.79024 
L 17.418108 44.13588 
L 17.782424 44.2638 
L 18.14674 46.9206 
L 18.511056 46.44336 
L 18.875372 47.85048 
L 19.239688 44.74596 
L 19.604003 46.23672 
L 19.968319 44.34252 
L 20.332635 43.41756 
L 20.696951 44.25888 
L 21.061267 43.80624 
L 21.425583 44.23428 
L 21.789899 44.01288 
L 22.154215 43.60452 
L 22.518531 43.85052 
L 22.882846 43.50612 
L 23.247162 43.53072 
L 23.611478 42.35976 
L 23.975794 39.33396 
L 24.34011 39.3192 
L 24.704426 39.18636 
L 25.068742 38.74356 
L 25.433058 38.80752 
L 25.797373 39.2208 
L 26.161689 38.61564 
L 26.526005 38.9994 
L 26.890321 39.00924 
L 27.254637 37.92684 
L 27.618953 37.71528 
L 27.983269 38.17284 
L 28.347585 38.96496 
L 28.711901 38.74848 
L 29.076216 37.71528 
L 29.440532 37.63164 
L 29.804848 34.64028 
L 30.169164 34.69932 
L 30.53348 33.87276 
L 30.897796 34.18764 
L 31.262112 34.73868 
L 31.626428 34.09416 
L 31.990743 34.38444 
L 32.355059 34.33032 
L 33.083691 34.57632 
L 33.448007 33.18396 
L 33.812323 33.38076 
L 34.176639 32.81004 
L 34.540955 31.38816 
L 34.905271 30.45336 
L 35.269586 32.59848 
L 35.633902 32.29344 
L 35.998218 31.78176 
L 36.362534 31.53084 
L 36.72685 31.68336 
L 37.091166 32.28852 
L 37.819798 34.1778 
L 38.184113 33.84324 
L 38.548429 33.3414 
L 38.912745 33.25284 
L 39.641377 33.7842 
L 40.005693 35.34384 
L 40.370009 33.981 
L 40.734325 33.35616 
L 41.09864 33.35124 
L 41.462956 31.09296 
L 41.827272 31.11756 
L 42.191588 31.87524 
L 42.555904 33.20856 
L 42.92022 33.17412 
L 43.284536 33.45456 
L 43.648852 33.4152 
L 44.013168 32.7264 
L 44.377483 33.84816 
L 45.106115 33.84324 
L 46.199063 35.73744 
L 46.563379 33.4398 
L 46.927695 33.20856 
L 47.29201 32.58372 
L 47.656326 32.71164 
L 48.384958 32.53944 
L 48.749274 32.013 
L 49.477906 33.3906 
L 49.842222 31.80144 
L 50.206538 31.41768 
L 50.570853 32.19012 
L 50.935169 32.10156 
L 51.299485 31.60956 
L 51.663801 32.0622 
L 52.028117 31.73748 
L 52.392433 30.56652 
L 52.756749 28.31808 
L 53.121065 27.48168 
L 53.48538 27.55548 
L 53.849696 26.71908 
L 54.214012 26.36484 
L 54.578328 27.42756 
L 55.30696 26.55672 
L 55.671276 27.27504 
L 56.035592 27.31932 
L 56.399908 27.63912 
L 56.764223 27.52596 
L 57.128539 26.3058 
L 57.492855 26.96016 
L 57.857171 27.09792 
L 58.221487 27.49644 
L 58.585803 27.2898 
L 58.950119 26.57148 
L 59.314435 27.27012 
L 60.043066 27.35376 
L 60.771698 29.62188 
L 61.136014 29.96136 
L 61.50033 29.14956 
L 61.864646 28.68216 
L 62.228962 29.184 
L 62.593278 28.7412 
L 62.957593 27.5358 
L 63.321909 27.91956 
L 63.686225 28.00812 
L 64.050541 26.64528 
L 64.414857 26.88636 
L 64.779173 26.1828 
L 65.143489 24.52476 
L 65.507805 27.0684 
L 65.87212 27.59484 
L 66.600752 27.49644 
L 66.965068 28.13112 
L 67.329384 29.8482 
L 67.6937 29.12004 
L 68.058016 30.03024 
L 68.422332 27.84576 
L 69.150963 29.54316 
L 69.515279 31.13232 
L 69.879595 30.31068 
L 70.243911 30.62064 
L 70.608227 29.97612 
L 70.972543 31.97364 
L 71.336859 31.82112 
L 71.701175 32.0868 
L 72.06549 31.63416 
L 72.429806 30.6354 
L 72.794122 30.37464 
L 73.158438 30.86172 
L 73.522754 30.89616 
L 73.88707 31.11756 
L 74.615702 30.22212 
L 74.980017 30.45828 
L 75.344333 29.2578 
L 75.708649 28.50504 
L 76.072965 28.18032 
L 76.437281 28.2738 
L 76.801597 28.569 
L 77.165913 28.55424 
L 77.530229 27.8802 
L 77.894545 28.03272 
L 78.25886 27.69324 
L 78.623176 28.42632 
L 78.987492 28.3968 
L 79.351808 28.60344 
L 79.716124 29.88756 
L 80.08044 30.22212 
L 80.444756 29.58252 
L 80.809072 31.73256 
L 81.173387 31.36356 
L 81.537703 31.39308 
L 82.266335 29.09544 
L 82.630651 29.2332 
L 82.994967 27.02412 
L 83.723599 25.16928 
L 84.087915 25.10532 
L 84.816546 23.92452 
L 85.180862 25.53336 
L 85.545178 24.62808 
L 85.909494 25.4448 
L 86.27381 29.64156 
L 86.638126 30.80268 
L 87.002442 28.65756 
L 87.366757 28.6428 
L 88.095389 30.87156 
L 88.459705 32.17044 
L 88.824021 32.97732 
L 89.188337 32.628 
L 89.552653 31.90476 
L 89.916969 30.92076 
L 90.281284 31.96872 
L 90.6456 32.39676 
L 91.009916 31.19628 
L 91.738548 30.42384 
L 92.102864 29.0118 
L 92.46718 29.15448 
L 92.831496 29.76456 
L 93.195812 31.2012 
L 93.560127 32.09172 
L 93.924443 31.43244 
L 94.653075 30.90108 
L 95.381707 35.35368 
L 95.746023 34.24668 
L 96.110339 35.5062 
L 96.474654 34.48284 
L 96.83897 35.02896 
L 97.203286 33.8334 
L 97.567602 33.243 
L 97.931918 34.69932 
L 98.66055 36.2934 
L 99.024866 38.901 
L 99.389182 38.37948 
L 99.753497 38.92068 
L 100.117813 40.09164 
L 100.482129 39.70788 
L 100.846445 40.4262 
L 101.210761 42.75336 
L 101.575077 43.54548 
L 101.939393 43.72752 
L 102.668024 41.976 
L 103.03234 42.42864 
L 103.396656 40.86408 
L 103.760972 40.47048 
L 104.85392 40.89852 
L 105.218236 42.9354 
L 105.582552 40.43604 
L 105.946867 39.31428 
L 106.311183 40.04244 
L 106.675499 41.43972 
L 107.039815 41.47416 
L 107.404131 41.02152 
L 107.768447 40.7952 
L 108.132763 39.75708 
L 108.497079 40.11132 
L 108.861394 39.87024 
L 109.22571 40.94772 
L 109.590026 40.97232 
L 110.318658 42.87144 
L 110.682974 42.17772 
L 111.04729 43.04364 
L 111.411606 43.34868 
L 111.775921 42.03504 
L 112.504553 41.8038 
L 112.868869 41.84316 
L 113.233185 42.37944 
L 113.597501 42.26628 
L 113.961817 42.468 
L 114.326133 42.42864 
L 114.690449 42.18264 
L 115.054764 42.1728 
L 115.41908 42.50244 
L 115.783396 41.88252 
L 116.147712 42.32532 
L 116.876344 41.13468 
L 117.604976 40.42128 
L 117.969291 39.16176 
L 118.333607 39.28968 
L 118.697923 40.48032 
L 119.790871 40.88376 
L 120.519503 40.53936 
L 120.883819 38.50248 
L 121.248134 37.63656 
L 121.61245 38.34012 
L 121.976766 38.37456 
L 122.341082 38.5812 
L 123.069714 39.8358 
L 123.43403 41.93172 
L 123.798346 41.42004 
L 124.526977 41.39052 
L 124.891293 41.5086 
L 125.255609 42.80256 
L 125.619925 41.93664 
L 125.984241 41.49384 
L 126.348557 41.51352 
L 126.712873 43.78164 
L 127.077189 43.9932 
L 127.441504 46.66968 
L 127.80582 47.55036 
L 128.170136 46.64508 
L 128.767218 48.89352 
L 129.131348 49.84308 
L 129.494104 49.00176 
L 129.866748 49.233 
L 130.228057 48.97716 
L 130.958013 49.36092 
L 131.685224 49.58724 
L 132.045158 49.28712 
L 132.390251 49.16904 
L 132.777935 49.39044 
L 133.096488 49.29696 
L 133.869862 49.55772 
L 134.962616 49.41996 
L 135.328028 49.8234 
L 135.661567 49.86768 
L 136.055349 49.72992 
L 136.418041 49.39536 
L 137.141689 49.6758 
L 137.514282 49.47408 
L 137.874837 49.60692 
L 138.24 49.37568 
L 138.24 49.37568 
" clip-path="url(#p1dadff1a60)" style="fill: none; stroke: #f5841e; stroke-width: 0.7; stroke-linecap: round"/>
   </g>
  </g>
 </g>
 <defs>
  <clipPath id="p1dadff1a60">
   <rect x="5.76" y="3.6" width="132.48" height="49.2"/>
  </clipPath>
 </defs>
</svg>
