<?xml version="1.0" encoding="utf-8" standalone="no"?>
<!DOCTYPE svg PUBLIC "-//W3C//DTD SVG 1.1//EN"
  "http://www.w3.org/Graphics/SVG/1.1/DTD/svg11.dtd">
<svg xmlns:xlink="http://www.w3.org/1999/xlink" width="144pt" height="60pt" viewBox="0 0 144 60" xmlns="http://www.w3.org/2000/svg" version="1.1">
  <desc id="nav-meta">{"window":"3m","count":4,"labels":["09.01","08.02","09.03","08.04"],"tick_utc":["2026-01-09T12:00:00Z","2026-02-08T03:46:03Z","2026-03-09T03:23:53Z","2026-04-08T03:43:16Z"]}</desc>

 <metadata>
  <rdf:RDF xmlns:dc="http://purl.org/dc/elements/1.1/" xmlns:cc="http://creativecommons.org/ns#" xmlns:rdf="http://www.w3.org/1999/02/22-rdf-syntax-ns#">
   <cc:Work>
    <dc:type rdf:resource="http://purl.org/dc/dcmitype/StillImage"/>
    <dc:date>2026-04-08T19:48:55.653662</dc:date>
    <dc:format>image/svg+xml</dc:format>
    <dc:creator>
     <cc:Agent>
      <dc:title>Matplotlib v3.10.8, https://matplotlib.org/</dc:title>
     </cc:Agent>
    </dc:creator>
   </cc:Work>
  </rdf:RDF>
 </metadata>
 <defs>
  <style type="text/css">*{stroke-linejoin: round; stroke-linecap: butt}</style>
 </defs>
 <g id="figure_1">
  <g id="patch_1">
   <path d="M 0 60 
L 144 60 
L 144 0 
L 0 0 
L 0 60 
z
" style="fill: none; opacity: 0"/>
  </g>
  <g id="axes_1">
   <g id="patch_2">
    <path d="M 5.76 52.8 
L 138.24 52.8 
L 138.24 3.6 
L 5.76 3.6 
L 5.76 52.8 
z
" style="fill: none"/>
   </g>
   <g id="matplotlib.axis_1"/>
   <g id="matplotlib.axis_2"/>
   <g id="line2d_1">
    <path d="M 5.76 42.96 
L 138.24 42.96 
" clip-path="url(#pdbc7d32649)" style="fill: none; stroke: #b2b2b2; stroke-opacity: 0.35; stroke-width: 0.5; stroke-linecap: square"/>
   </g>
   <g id="line2d_2">
    <path d="M 5.76 33.12 
L 138.24 33.12 
" clip-path="url(#pdbc7d32649)" style="fill: none; stroke: #b2b2b2; stroke-opacity: 0.35; stroke-width: 0.5; stroke-linecap: square"/>
   </g>
   <g id="line2d_3">
    <path d="M 5.76 23.28 
L 138.24 23.28 
" clip-path="url(#pdbc7d32649)" style="fill: none; stroke: #b2b2b2; stroke-opacity: 0.35; stroke-width: 0.5; stroke-linecap: square"/>
   </g>
   <g id="line2d_4">
    <path d="M 5.76 13.44 
L 138.24 13.44 
" clip-path="url(#pdbc7d32649)" style="fill: none; stroke: #b2b2b2; stroke-opacity: 0.35; stroke-width: 0.5; stroke-linecap: square"/>
   </g>
   <g id="line2d_5">
    <path d="M 5.76 43.60944 
L 7.254331 43.92924 
L 8.748662 43.93416 
L 10.242994 43.46184 
L 11.737325 43.5012 
L 13.231656 42.72384 
L 14.725987 42.51228 
L 16.220318 43.08792 
L 17.714649 42.75828 
L 19.208981 42.90096 
L 20.703312 43.57008 
L 22.197643 44.2392 
L 23.691974 45.23304 
L 25.186305 44.77548 
L 26.680637 44.91816 
L 28.174968 45.04608 
L 29.669299 45.07068 
L 31.16363 46.1334 
L 32.657961 45.4446 
L 34.152292 45.06084 
L 35.646624 45.33144 
L 37.140955 46.30068 
L 38.635286 46.34496 
L 40.129617 47.89476 
L 41.623948 48.26376 
L 43.11828 47.96364 
L 44.379831 48.55896 
L 45.567357 49.06572 
L 47.060927 50.04972 
L 48.548859 49.24776 
L 50.077349 49.32156 
L 51.559348 49.31172 
L 53.062206 49.43964 
L 54.553441 49.59708 
L 56.042394 49.80372 
L 57.536275 49.86768 
L 59.012636 49.479 
L 60.428117 49.24776 
L 62.0183 49.48392 
L 63.324923 49.37568 
L 65.004593 49.479 
L 66.497108 49.7004 
L 67.982705 49.62168 
L 69.467904 49.5282 
L 70.979306 49.49376 
L 72.478134 49.98576 
L 73.846225 49.96608 
L 75.461418 49.7004 
L 76.94909 49.27236 
L 78.440585 49.37076 
L 79.917309 49.68072 
L 81.445591 49.25268 
L 82.924495 49.51344 
L 84.422302 49.4052 
L 85.908263 49.34124 
L 87.405811 49.09032 
L 88.899433 49.24284 
L 90.382297 49.49868 
L 91.891139 49.64628 
L 93.38995 49.58724 
L 94.874682 49.36092 
L 96.368425 49.41996 
L 97.868637 49.45932 
L 99.36008 49.16904 
L 100.852422 49.22808 
L 102.375343 49.27236 
L 103.873894 48.87384 
L 105.342074 48.74592 
L 106.847803 48.70164 
L 108.342549 49.03128 
L 109.822335 49.1592 
L 111.307915 49.08048 
L 112.824592 49.21332 
L 114.322434 49.36584 
L 115.802929 49.11 
L 117.408556 48.90828 
L 118.809769 49.05096 
L 120.305985 49.37076 
L 121.78603 49.64628 
L 123.300718 49.6266 
L 124.799321 49.602 
L 126.284226 49.59708 
L 127.791373 49.59708 
L 129.266022 49.8726 
L 130.762066 49.88244 
L 132.243598 49.80864 
L 133.760431 49.78896 
L 135.258619 49.69056 
L 136.743247 49.83816 
L 138.24 49.50852 
" clip-path="url(#pdbc7d32649)" style="fill: none; stroke: #bebebe; stroke-width: 0.6; stroke-linecap: round"/>
   </g>
   <g id="line2d_6">
    <path d="M 5.76 36.36228 
L 7.254331 36.50988 
L 8.748662 36.5148 
L 10.242994 36.25404 
L 11.737325 36.46068 
L 13.231656 34.83708 
L 14.725987 34.57632 
L 16.220318 34.84692 
L 17.714649 35.00436 
L 19.208981 34.93056 
L 20.703312 35.088 
L 22.197643 35.78664 
L 23.691974 37.55292 
L 25.186305 37.26756 
L 26.680637 37.46436 
L 28.174968 37.44468 
L 29.669299 37.45944 
L 31.16363 38.41392 
L 32.657961 37.61196 
L 34.152292 36.95268 
L 35.646624 37.05108 
L 37.140955 38.37948 
L 38.635286 39.20604 
L 40.129617 41.03136 
L 41.623948 42.26628 
L 43.11828 41.73492 
L 44.379831 42.23676 
L 45.567357 43.38804 
L 47.060927 44.89356 
L 48.548859 43.6242 
L 50.077349 43.575 
L 51.559348 43.53072 
L 53.062206 43.72752 
L 54.553441 44.0916 
L 56.042394 44.436 
L 57.536275 44.49012 
L 59.012636 43.81608 
L 60.428117 43.7226 
L 62.0183 44.5344 
L 63.324923 44.19 
L 65.004593 44.21952 
L 66.497108 44.3868 
L 67.982705 44.51472 
L 69.467904 44.4606 
L 70.979306 44.3868 
L 72.478134 45.174 
L 73.846225 45.23796 
L 75.461418 44.81484 
L 76.94909 43.821 
L 78.440585 44.01288 
L 79.917309 44.66232 
L 81.445591 43.93908 
L 82.924495 44.39664 
L 84.422302 44.12112 
L 85.908263 44.33268 
L 87.405811 43.3044 
L 88.899433 43.6242 
L 90.382297 44.29824 
L 91.891139 44.53932 
L 93.38995 44.30808 
L 94.874682 43.8702 
L 96.368425 44.00304 
L 97.868637 43.97844 
L 99.36008 43.41756 
L 100.852422 43.48152 
L 102.375343 43.48644 
L 103.873894 42.49752 
L 105.342074 41.73984 
L 106.847803 41.7546 
L 108.342549 42.591 
L 109.822335 43.14204 
L 111.307915 43.083 
L 112.824592 43.35852 
L 114.322434 43.78164 
L 115.802929 43.21584 
L 117.408556 42.9354 
L 118.809769 43.10268 
L 120.305985 43.72752 
L 121.78603 44.25396 
L 123.300718 44.10636 
L 124.799321 43.9194 
L 126.284226 43.74228 
L 127.791373 43.46676 
L 129.266022 43.65372 
L 130.762066 43.79148 
L 132.243598 43.81116 
L 133.760431 43.77672 
L 135.258619 43.2552 
L 136.743247 43.40772 
L 138.24 42.49752 
" clip-path="url(#pdbc7d32649)" style="fill: none; stroke: #4a8dff; stroke-width: 0.6; stroke-linecap: round"/>
   </g>
   <g id="line2d_7">
    <path d="M 5.76 40.61316 
L 7.254331 40.84932 
L 8.748662 40.88376 
L 10.242994 40.6968 
L 11.737325 40.53936 
L 13.231656 38.50248 
L 14.725987 37.63656 
L 16.220318 38.34012 
L 17.714649 38.37456 
L 19.208981 38.5812 
L 20.703312 39.2454 
L 22.197643 39.8358 
L 23.691974 41.93172 
L 25.186305 41.42004 
L 26.680637 41.37576 
L 28.174968 41.39052 
L 29.669299 41.5086 
L 31.16363 42.80256 
L 32.657961 41.93664 
L 34.152292 41.49384 
L 35.646624 41.51352 
L 37.140955 43.78164 
L 38.635286 43.9932 
L 40.129617 46.66968 
L 41.623948 47.55036 
L 43.11828 46.64508 
L 44.379831 47.89476 
L 45.567357 48.89352 
L 47.060927 49.84308 
L 48.548859 49.00176 
L 50.077349 49.233 
L 51.559348 48.97716 
L 53.062206 49.22316 
L 54.553441 49.36092 
L 56.042394 49.49868 
L 57.536275 49.58724 
L 59.012636 49.28712 
L 60.428117 49.16904 
L 62.0183 49.39044 
L 63.324923 49.29696 
L 65.004593 49.479 
L 66.497108 49.55772 
L 67.982705 49.51344 
L 69.467904 49.44948 
L 70.979306 49.41996 
L 72.478134 49.8234 
L 73.846225 49.86768 
L 75.461418 49.72992 
L 76.94909 49.39536 
L 78.440585 49.52328 
L 79.917309 49.6758 
L 81.445591 49.47408 
L 82.924495 49.60692 
L 84.422302 49.37568 
L 85.908263 49.36584 
L 87.405811 48.6672 
L 88.899433 48.95256 
L 90.382297 49.36092 
L 91.891139 49.54788 
L 93.38995 49.5282 
L 94.874682 49.09032 
L 96.368425 49.16412 
L 97.868637 49.2084 
L 99.36008 48.93288 
L 100.852422 48.95748 
L 102.375343 48.89844 
L 103.873894 48.48024 
L 105.342074 48.1998 
L 106.847803 48.28344 
L 108.342549 48.88368 
L 109.822335 49.04604 
L 111.307915 49.00176 
L 112.824592 49.20348 
L 114.322434 49.38552 
L 115.802929 49.04112 
L 117.408556 48.92796 
L 118.809769 48.987 
L 120.305985 49.29204 
L 121.78603 49.66104 
L 123.300718 49.56756 
L 124.799321 49.53312 
L 126.284226 49.46424 
L 127.791373 49.40028 
L 129.266022 49.56756 
L 130.762066 49.59708 
L 132.243598 49.56264 
L 133.760431 49.53312 
L 135.258619 49.25268 
L 136.743247 49.29696 
L 138.24 48.89352 
" clip-path="url(#pdbc7d32649)" style="fill: none; stroke: #f5841e; stroke-width: 0.7; stroke-linecap: round"/>
   </g>
  </g>
 </g>
 <defs>
  <clipPath id="pdbc7d32649">
   <rect x="5.76" y="3.6" width="132.48" height="49.2"/>
  </clipPath>
 </defs>
</svg>
