<?xml version="1.0" encoding="utf-8" standalone="no"?>
<!DOCTYPE svg PUBLIC "-//W3C//DTD SVG 1.1//EN"
  "http://www.w3.org/Graphics/SVG/1.1/DTD/svg11.dtd">
<svg xmlns:xlink="http://www.w3.org/1999/xlink" width="144pt" height="60pt" viewBox="0 0 144 60" xmlns="http://www.w3.org/2000/svg" version="1.1">
  <desc id="nav-meta">{"window":"6m","count":4,"labels":["27.11","26.01","26.03","25.05"],"tick_utc":["2025-11-27T12:00:00Z","2026-01-26T12:00:00Z","2026-03-26T03:39:29Z","2026-05-25T05:10:23Z"]}</desc>

 <metadata>
  <rdf:RDF xmlns:dc="http://purl.org/dc/elements/1.1/" xmlns:cc="http://creativecommons.org/ns#" xmlns:rdf="http://www.w3.org/1999/02/22-rdf-syntax-ns#">
   <cc:Work>
    <dc:type rdf:resource="http://purl.org/dc/dcmitype/StillImage"/>
    <dc:date>2026-05-25T15:40:40.429486</dc:date>
    <dc:format>image/svg+xml</dc:format>
    <dc:creator>
     <cc:Agent>
      <dc:title>Matplotlib v3.10.9, https://matplotlib.org/</dc:title>
     </cc:Agent>
    </dc:creator>
   </cc:Work>
  </rdf:RDF>
 </metadata>
 <defs>
  <style type="text/css">*{stroke-linejoin: round; stroke-linecap: butt}</style>
 </defs>
 <g id="figure_1">
  <g id="patch_1">
   <path d="M 0 60 
L 144 60 
L 144 0 
L 0 0 
L 0 60 
z
" style="fill: none; opacity: 0"/>
  </g>
  <g id="axes_1">
   <g id="patch_2">
    <path d="M 5.76 52.8 
L 138.24 52.8 
L 138.24 3.6 
L 5.76 3.6 
L 5.76 52.8 
z
" style="fill: none"/>
   </g>
   <g id="matplotlib.axis_1"/>
   <g id="matplotlib.axis_2"/>
   <g id="line2d_1">
    <path d="M 5.76 42.96 
L 138.24 42.96 
" clip-path="url(#p10e8079f1c)" style="fill: none; stroke: #b2b2b2; stroke-opacity: 0.35; stroke-width: 0.5; stroke-linecap: square"/>
   </g>
   <g id="line2d_2">
    <path d="M 5.76 33.12 
L 138.24 33.12 
" clip-path="url(#p10e8079f1c)" style="fill: none; stroke: #b2b2b2; stroke-opacity: 0.35; stroke-width: 0.5; stroke-linecap: square"/>
   </g>
   <g id="line2d_3">
    <path d="M 5.76 23.28 
L 138.24 23.28 
" clip-path="url(#p10e8079f1c)" style="fill: none; stroke: #b2b2b2; stroke-opacity: 0.35; stroke-width: 0.5; stroke-linecap: square"/>
   </g>
   <g id="line2d_4">
    <path d="M 5.76 13.44 
L 138.24 13.44 
" clip-path="url(#p10e8079f1c)" style="fill: none; stroke: #b2b2b2; stroke-opacity: 0.35; stroke-width: 0.5; stroke-linecap: square"/>
   </g>
   <g id="line2d_5">
    <path d="M 5.76 43.00428 
L 6.50129 43.2798 
L 7.242579 43.71768 
L 8.725159 44.0916 
L 9.466449 45.11004 
L 10.207738 43.55532 
L 10.949028 42.72876 
L 12.431608 44.27364 
L 13.914187 44.47536 
L 14.655477 44.25888 
L 15.396767 43.64388 
L 16.138056 43.84068 
L 16.879346 43.85052 
L 17.620636 44.36712 
L 18.361926 44.26872 
L 19.103215 44.74104 
L 19.844505 44.98704 
L 20.585795 44.84436 
L 21.327085 45.58728 
L 22.068374 46.0596 
L 22.809664 45.18384 
L 25.774823 45.47904 
L 26.516113 45.65616 
L 27.257403 45.98088 
L 28.739982 45.38556 
L 29.481272 45.31668 
L 30.222562 45.58728 
L 30.963851 45.35604 
L 31.705141 45.40032 
L 32.446431 45.11496 
L 33.187721 44.42124 
L 34.6703 44.18508 
L 35.41159 43.62912 
L 36.15288 43.24044 
L 36.894169 43.8702 
L 37.635459 43.60944 
L 38.376749 43.92924 
L 39.118039 43.93416 
L 39.859328 43.46184 
L 40.600618 43.5012 
L 41.341908 42.72384 
L 42.083197 42.51228 
L 42.824487 43.08792 
L 43.565777 42.75828 
L 44.307067 42.90096 
L 45.789646 44.2392 
L 46.530936 45.23304 
L 47.272226 44.77548 
L 48.754805 45.04608 
L 49.496095 45.07068 
L 50.237385 46.1334 
L 50.978674 45.4446 
L 51.719964 45.06084 
L 52.461254 45.33144 
L 53.202544 46.30068 
L 53.943833 46.34496 
L 54.685123 47.89476 
L 55.426413 48.26376 
L 56.167703 47.96364 
L 57.382611 49.06572 
L 58.123524 50.04972 
L 58.861639 49.24776 
L 61.840319 49.59708 
L 62.578941 49.80372 
L 63.320008 49.86768 
L 64.052383 49.479 
L 64.754558 49.24776 
L 65.543396 49.48392 
L 66.19157 49.37568 
L 67.0248 49.479 
L 67.765189 49.7004 
L 69.988664 49.49376 
L 70.732184 49.98576 
L 71.410851 49.96608 
L 72.212096 49.7004 
L 72.950082 49.27236 
L 73.689965 49.37076 
L 74.42252 49.68072 
L 75.180652 49.25268 
L 75.914289 49.51344 
L 78.137326 49.09032 
L 80.362353 49.64628 
L 81.105865 49.58724 
L 81.842393 49.36092 
L 83.327598 49.45932 
L 84.067455 49.16904 
L 85.56323 49.27236 
L 86.306613 48.87384 
L 87.781874 48.70164 
L 88.52337 49.03128 
L 89.257444 49.1592 
L 89.994392 49.08048 
L 91.489799 49.36584 
L 93.020725 48.90828 
L 93.715821 49.05096 
L 95.192249 49.64628 
L 98.171307 49.59708 
L 98.902833 49.8726 
L 100.379913 49.80864 
L 102.612045 49.83816 
L 103.354536 49.50852 
L 104.093243 49.68564 
L 105.571309 49.48884 
L 106.325898 49.6512 
L 107.070988 49.69056 
L 107.807559 49.40028 
L 108.548283 49.58724 
L 110.765674 49.19856 
L 111.516754 49.43472 
L 112.259879 49.50852 
L 115.956899 49.37568 
L 116.70972 49.4052 
L 117.458997 49.29204 
L 118.20184 49.5528 
L 118.941105 49.50852 
L 119.683639 49.64136 
L 121.155399 49.56264 
L 121.911738 49.57248 
L 122.65277 49.42488 
L 123.377733 49.49376 
L 124.873568 49.25268 
L 125.60252 49.24284 
L 126.346521 48.80004 
L 127.102748 48.85416 
L 128.580883 48.63276 
L 129.325699 48.66228 
L 130.066165 49.09524 
L 130.81111 48.99192 
L 132.295294 49.34616 
L 133.043782 49.47408 
L 134.523702 49.54788 
L 135.269213 49.3314 
L 136.004823 49.34616 
L 136.735928 49.51836 
L 138.24 49.41504 
L 138.24 49.41504 
" clip-path="url(#p10e8079f1c)" style="fill: none; stroke: #bebebe; stroke-width: 0.6; stroke-linecap: round"/>
   </g>
   <g id="line2d_6">
    <path d="M 5.76 36.90348 
L 6.50129 36.98712 
L 7.242579 36.86412 
L 7.983869 37.16424 
L 8.725159 37.14948 
L 9.466449 38.52216 
L 10.949028 35.71776 
L 11.690318 36.15564 
L 12.431608 36.93792 
L 13.914187 36.72636 
L 14.655477 36.21468 
L 15.396767 34.8174 
L 16.138056 34.7928 
L 16.879346 35.42748 
L 17.620636 36.49512 
L 18.361926 36.28356 
L 19.103215 36.6378 
L 19.844505 37.3512 
L 20.585795 37.3512 
L 21.327085 38.31552 
L 22.068374 38.32536 
L 22.809664 37.26264 
L 23.550954 37.26264 
L 24.292244 37.09044 
L 25.033533 37.06092 
L 25.774823 37.34628 
L 26.516113 37.48404 
L 27.257403 37.77924 
L 28.739982 37.45944 
L 30.222562 37.56276 
L 30.963851 37.31184 
L 31.705141 37.33644 
L 32.446431 37.09536 
L 33.187721 36.23928 
L 34.6703 36.11628 
L 35.41159 35.48652 
L 36.15288 35.0142 
L 36.894169 35.93424 
L 37.635459 36.36228 
L 38.376749 36.50988 
L 39.118039 36.5148 
L 39.859328 36.25404 
L 40.600618 36.46068 
L 41.341908 34.83708 
L 42.083197 34.57632 
L 43.565777 35.00436 
L 44.307067 34.93056 
L 45.048356 35.088 
L 45.789646 35.78664 
L 46.530936 37.55292 
L 47.272226 37.26756 
L 48.013515 37.46436 
L 49.496095 37.45944 
L 50.237385 38.41392 
L 51.719964 36.95268 
L 52.461254 37.05108 
L 53.202544 38.37948 
L 53.943833 39.20604 
L 54.685123 41.03136 
L 55.426413 42.26628 
L 56.167703 41.73492 
L 56.793518 42.23676 
L 58.123524 44.89356 
L 58.861639 43.6242 
L 60.355046 43.53072 
L 61.100565 43.72752 
L 62.578941 44.436 
L 63.320008 44.49012 
L 64.052383 43.81608 
L 64.754558 43.7226 
L 65.543396 44.5344 
L 66.19157 44.19 
L 67.0248 44.21952 
L 68.502146 44.51472 
L 69.988664 44.3868 
L 70.732184 45.174 
L 71.410851 45.23796 
L 72.212096 44.81484 
L 72.950082 43.821 
L 73.689965 44.01288 
L 74.42252 44.66232 
L 75.180652 43.93908 
L 75.914289 44.39664 
L 76.657303 44.12112 
L 77.39444 44.33268 
L 78.137326 43.3044 
L 78.878264 43.6242 
L 79.613865 44.29824 
L 80.362353 44.53932 
L 81.105865 44.30808 
L 81.842393 43.8702 
L 82.583391 44.00304 
L 83.327598 43.97844 
L 84.067455 43.41756 
L 85.56323 43.48644 
L 86.306613 42.49752 
L 87.03493 41.73984 
L 87.781874 41.7546 
L 88.52337 42.591 
L 89.257444 43.14204 
L 89.994392 43.083 
L 90.746767 43.35852 
L 91.489799 43.78164 
L 92.224225 43.21584 
L 93.020725 42.9354 
L 93.715821 43.10268 
L 95.192249 44.25396 
L 97.42366 43.74228 
L 98.171307 43.46676 
L 99.644973 43.79148 
L 101.132365 43.77672 
L 101.875568 43.2552 
L 102.612045 43.40772 
L 103.354536 42.49752 
L 104.093243 42.90588 
L 104.841354 42.8616 
L 105.571309 42.41388 
L 107.070988 42.79764 
L 107.807559 41.57256 
L 108.548283 41.86284 
L 109.292781 41.63652 
L 110.032561 41.85792 
L 110.765674 41.22324 
L 111.516754 41.76936 
L 112.259879 42.1482 
L 112.997917 41.96616 
L 113.736908 41.59224 
L 115.224455 41.99076 
L 115.956899 41.91696 
L 116.70972 41.98584 
L 117.458997 41.41512 
L 118.20184 42.15312 
L 118.941105 41.96124 
L 119.683639 42.43848 
L 121.155399 42.02028 
L 121.911738 42.0252 
L 122.65277 41.40528 
L 124.132081 41.52336 
L 125.60252 42.1974 
L 126.346521 41.8776 
L 127.849889 41.8038 
L 128.580883 41.976 
L 129.325699 42.00552 
L 130.066165 42.3942 
L 130.81111 42.27612 
L 132.295294 42.85176 
L 133.043782 43.31424 
L 133.779761 43.2306 
L 134.523702 43.39296 
L 135.269213 43.16172 
L 136.004823 43.24536 
L 136.735928 43.71768 
L 137.488955 43.33392 
L 138.24 43.42248 
L 138.24 43.42248 
" clip-path="url(#p10e8079f1c)" style="fill: none; stroke: #4a8dff; stroke-width: 0.6; stroke-linecap: round"/>
   </g>
   <g id="line2d_7">
    <path d="M 5.76 40.86408 
L 6.50129 40.47048 
L 8.725159 40.89852 
L 9.466449 42.9354 
L 10.207738 40.43604 
L 10.949028 39.31428 
L 11.690318 40.04244 
L 12.431608 41.43972 
L 13.172897 41.47416 
L 13.914187 41.02152 
L 14.655477 40.7952 
L 15.396767 39.75708 
L 16.138056 40.11132 
L 16.879346 39.87024 
L 17.620636 40.94772 
L 18.361926 40.97232 
L 19.844505 42.87144 
L 20.585795 42.17772 
L 21.327085 43.04364 
L 22.068374 43.34868 
L 22.809664 42.03504 
L 24.292244 41.8038 
L 25.033533 41.84316 
L 25.774823 42.37944 
L 26.516113 42.26628 
L 27.257403 42.468 
L 27.998692 42.42864 
L 28.739982 42.18264 
L 29.481272 42.1728 
L 30.222562 42.50244 
L 30.963851 41.88252 
L 31.705141 42.32532 
L 33.187721 41.13468 
L 34.6703 40.42128 
L 35.41159 39.16176 
L 36.15288 39.28968 
L 36.894169 40.48032 
L 39.118039 40.88376 
L 40.600618 40.53936 
L 41.341908 38.50248 
L 42.083197 37.63656 
L 42.824487 38.34012 
L 43.565777 38.37456 
L 44.307067 38.5812 
L 45.789646 39.8358 
L 46.530936 41.93172 
L 47.272226 41.42004 
L 48.754805 41.39052 
L 49.496095 41.5086 
L 50.237385 42.80256 
L 50.978674 41.93664 
L 51.719964 41.49384 
L 52.461254 41.51352 
L 53.202544 43.78164 
L 53.943833 43.9932 
L 54.685123 46.66968 
L 55.426413 47.55036 
L 56.167703 46.64508 
L 57.382611 48.89352 
L 58.123524 49.84308 
L 58.861639 49.00176 
L 59.619874 49.233 
L 60.355046 48.97716 
L 61.840319 49.36092 
L 63.320008 49.58724 
L 64.052383 49.28712 
L 64.754558 49.16904 
L 65.543396 49.39044 
L 66.19157 49.29696 
L 67.765189 49.55772 
L 69.988664 49.41996 
L 70.732184 49.8234 
L 71.410851 49.86768 
L 72.212096 49.72992 
L 72.950082 49.39536 
L 74.42252 49.6758 
L 75.180652 49.47408 
L 75.914289 49.60692 
L 76.657303 49.37568 
L 77.39444 49.36584 
L 78.137326 48.6672 
L 78.878264 48.95256 
L 79.613865 49.36092 
L 80.362353 49.54788 
L 81.105865 49.5282 
L 81.842393 49.09032 
L 83.327598 49.2084 
L 84.067455 48.93288 
L 85.56323 48.89844 
L 86.306613 48.48024 
L 87.03493 48.1998 
L 87.781874 48.28344 
L 88.52337 48.88368 
L 89.257444 49.04604 
L 89.994392 49.00176 
L 91.489799 49.38552 
L 92.224225 49.04112 
L 93.020725 48.92796 
L 93.715821 48.987 
L 95.192249 49.66104 
L 98.171307 49.40028 
L 98.902833 49.56756 
L 100.379913 49.56264 
L 101.132365 49.53312 
L 101.875568 49.25268 
L 102.612045 49.29696 
L 103.354536 48.89352 
L 104.093243 48.96732 
L 105.571309 48.5934 
L 106.325898 48.84432 
L 107.070988 48.95748 
L 107.807559 48.30804 
L 108.548283 48.34248 
L 109.292781 48.21456 
L 110.032561 48.26376 
L 110.765674 47.41752 
L 111.516754 48.05712 
L 112.259879 48.26376 
L 112.997917 48.01776 
L 113.736908 47.23548 
L 115.956899 47.1666 
L 116.70972 47.31912 
L 117.458997 46.49256 
L 118.20184 47.64876 
L 118.941105 47.5356 
L 119.683639 48.0276 
L 120.433028 47.50608 
L 121.155399 46.81728 
L 121.911738 46.92552 
L 122.65277 45.85788 
L 124.132081 45.29208 
L 124.873568 45.58728 
L 125.60252 46.2564 
L 126.346521 45.7152 
L 129.325699 45.42492 
L 130.066165 46.38432 
L 130.81111 45.57744 
L 131.542936 46.51716 
L 132.295294 46.95996 
L 133.043782 47.54544 
L 134.523702 47.66844 
L 135.269213 47.05344 
L 136.004823 47.22564 
L 136.735928 48.07188 
L 138.24 47.37324 
L 138.24 47.37324 
" clip-path="url(#p10e8079f1c)" style="fill: none; stroke: #f5841e; stroke-width: 0.7; stroke-linecap: round"/>
   </g>
  </g>
 </g>
 <defs>
  <clipPath id="p10e8079f1c">
   <rect x="5.76" y="3.6" width="132.48" height="49.2"/>
  </clipPath>
 </defs>
</svg>
