<?xml version="1.0" encoding="utf-8" standalone="no"?>
<!DOCTYPE svg PUBLIC "-//W3C//DTD SVG 1.1//EN"
  "http://www.w3.org/Graphics/SVG/1.1/DTD/svg11.dtd">
<svg xmlns:xlink="http://www.w3.org/1999/xlink" width="144pt" height="60pt" viewBox="0 0 144 60" xmlns="http://www.w3.org/2000/svg" version="1.1">
  <desc id="nav-meta">{"window":"3m","count":4,"labels":["12.02","14.03","12.04","12.05"],"tick_utc":["2026-02-12T03:34:13Z","2026-03-14T03:15:02Z","2026-04-12T03:55:19Z","2026-05-12T04:26:58Z"]}</desc>

 <metadata>
  <rdf:RDF xmlns:dc="http://purl.org/dc/elements/1.1/" xmlns:cc="http://creativecommons.org/ns#" xmlns:rdf="http://www.w3.org/1999/02/22-rdf-syntax-ns#">
   <cc:Work>
    <dc:type rdf:resource="http://purl.org/dc/dcmitype/StillImage"/>
    <dc:date>2026-05-12T09:21:06.236529</dc:date>
    <dc:format>image/svg+xml</dc:format>
    <dc:creator>
     <cc:Agent>
      <dc:title>Matplotlib v3.10.9, https://matplotlib.org/</dc:title>
     </cc:Agent>
    </dc:creator>
   </cc:Work>
  </rdf:RDF>
 </metadata>
 <defs>
  <style type="text/css">*{stroke-linejoin: round; stroke-linecap: butt}</style>
 </defs>
 <g id="figure_1">
  <g id="patch_1">
   <path d="M 0 60 
L 144 60 
L 144 0 
L 0 0 
L 0 60 
z
" style="fill: none; opacity: 0"/>
  </g>
  <g id="axes_1">
   <g id="patch_2">
    <path d="M 5.76 52.8 
L 138.24 52.8 
L 138.24 3.6 
L 5.76 3.6 
L 5.76 52.8 
z
" style="fill: none"/>
   </g>
   <g id="matplotlib.axis_1"/>
   <g id="matplotlib.axis_2"/>
   <g id="line2d_1">
    <path d="M 5.76 42.96 
L 138.24 42.96 
" clip-path="url(#pcea9a7ef99)" style="fill: none; stroke: #b2b2b2; stroke-opacity: 0.35; stroke-width: 0.5; stroke-linecap: square"/>
   </g>
   <g id="line2d_2">
    <path d="M 5.76 33.12 
L 138.24 33.12 
" clip-path="url(#pcea9a7ef99)" style="fill: none; stroke: #b2b2b2; stroke-opacity: 0.35; stroke-width: 0.5; stroke-linecap: square"/>
   </g>
   <g id="line2d_3">
    <path d="M 5.76 23.28 
L 138.24 23.28 
" clip-path="url(#pcea9a7ef99)" style="fill: none; stroke: #b2b2b2; stroke-opacity: 0.35; stroke-width: 0.5; stroke-linecap: square"/>
   </g>
   <g id="line2d_4">
    <path d="M 5.76 13.44 
L 138.24 13.44 
" clip-path="url(#pcea9a7ef99)" style="fill: none; stroke: #b2b2b2; stroke-opacity: 0.35; stroke-width: 0.5; stroke-linecap: square"/>
   </g>
   <g id="line2d_5">
    <path d="M 5.76 49.80372 
L 7.247479 49.86768 
L 8.717513 49.479 
L 10.126928 49.24776 
L 11.710295 49.48392 
L 13.011319 49.37568 
L 14.68379 49.479 
L 16.169909 49.7004 
L 17.649139 49.62168 
L 19.127973 49.5282 
L 20.632897 49.49376 
L 22.125302 49.98576 
L 23.48753 49.96608 
L 25.0958 49.7004 
L 26.577096 49.27236 
L 28.062199 49.37076 
L 29.532594 49.68072 
L 31.054327 49.25268 
L 32.526892 49.51344 
L 34.018281 49.4052 
L 35.497872 49.34124 
L 36.989002 49.09032 
L 38.476223 49.24284 
L 39.952732 49.49868 
L 41.455108 49.64628 
L 42.947495 49.58724 
L 44.425864 49.36092 
L 45.913206 49.41996 
L 47.406988 49.45932 
L 48.892039 49.16904 
L 50.377985 49.22808 
L 51.894379 49.27236 
L 53.386508 48.87384 
L 54.848396 48.74592 
L 56.347672 48.70164 
L 57.836012 49.03128 
L 59.309456 49.1592 
L 60.788669 49.08048 
L 62.298846 49.21332 
L 63.790269 49.36584 
L 65.264418 49.11 
L 66.863165 48.90828 
L 68.258372 49.05096 
L 69.748176 49.37076 
L 71.221878 49.64628 
L 72.730074 49.6266 
L 74.222255 49.602 
L 75.700796 49.59708 
L 77.201484 49.59708 
L 78.669813 49.8726 
L 80.159445 49.88244 
L 81.634628 49.80864 
L 83.14496 49.78896 
L 84.636727 49.69056 
L 86.114993 49.83816 
L 87.605331 49.50852 
L 89.088074 49.68564 
L 90.589692 49.6266 
L 92.054869 49.48884 
L 93.56949 49.6512 
L 95.065045 49.69056 
L 96.543501 49.40028 
L 98.030291 49.58724 
L 99.524659 49.45932 
L 101.009555 49.27728 
L 102.48107 49.19856 
L 103.988646 49.43472 
L 105.480258 49.50852 
L 106.961658 49.46424 
L 108.44497 49.31664 
L 109.938924 49.4298 
L 111.430795 49.42488 
L 112.900966 49.37568 
L 114.412039 49.4052 
L 115.915999 49.29204 
L 117.407043 49.5528 
L 118.890906 49.50852 
L 120.38133 49.64136 
L 121.885513 49.56756 
L 123.335467 49.56264 
L 124.8536 49.57248 
L 126.341011 49.42488 
L 127.796165 49.49376 
L 129.310303 49.32156 
L 130.798626 49.25268 
L 132.261789 49.24284 
L 133.755158 48.80004 
L 135.273067 48.85416 
L 136.772739 48.72132 
L 138.24 48.63276 
" clip-path="url(#pcea9a7ef99)" style="fill: none; stroke: #bebebe; stroke-width: 0.6; stroke-linecap: round"/>
   </g>
   <g id="line2d_6">
    <path d="M 5.76 44.436 
L 7.247479 44.49012 
L 8.717513 43.81608 
L 10.126928 43.7226 
L 11.710295 44.5344 
L 13.011319 44.19 
L 14.68379 44.21952 
L 16.169909 44.3868 
L 17.649139 44.51472 
L 19.127973 44.4606 
L 20.632897 44.3868 
L 22.125302 45.174 
L 23.48753 45.23796 
L 25.0958 44.81484 
L 26.577096 43.821 
L 28.062199 44.01288 
L 29.532594 44.66232 
L 31.054327 43.93908 
L 32.526892 44.39664 
L 34.018281 44.12112 
L 35.497872 44.33268 
L 36.989002 43.3044 
L 38.476223 43.6242 
L 39.952732 44.29824 
L 41.455108 44.53932 
L 42.947495 44.30808 
L 44.425864 43.8702 
L 45.913206 44.00304 
L 47.406988 43.97844 
L 48.892039 43.41756 
L 50.377985 43.48152 
L 51.894379 43.48644 
L 53.386508 42.49752 
L 54.848396 41.73984 
L 56.347672 41.7546 
L 57.836012 42.591 
L 59.309456 43.14204 
L 60.788669 43.083 
L 62.298846 43.35852 
L 63.790269 43.78164 
L 65.264418 43.21584 
L 66.863165 42.9354 
L 68.258372 43.10268 
L 69.748176 43.72752 
L 71.221878 44.25396 
L 72.730074 44.10636 
L 74.222255 43.9194 
L 75.700796 43.74228 
L 77.201484 43.46676 
L 78.669813 43.65372 
L 80.159445 43.79148 
L 81.634628 43.81116 
L 83.14496 43.77672 
L 84.636727 43.2552 
L 86.114993 43.40772 
L 87.605331 42.49752 
L 89.088074 42.90588 
L 90.589692 42.8616 
L 92.054869 42.41388 
L 93.56949 42.63036 
L 95.065045 42.79764 
L 96.543501 41.57256 
L 98.030291 41.86284 
L 99.524659 41.63652 
L 101.009555 41.85792 
L 102.48107 41.22324 
L 103.988646 41.76936 
L 105.480258 42.1482 
L 106.961658 41.96616 
L 108.44497 41.59224 
L 109.938924 41.76936 
L 111.430795 41.99076 
L 112.900966 41.91696 
L 114.412039 41.98584 
L 115.915999 41.41512 
L 117.407043 42.15312 
L 118.890906 41.96124 
L 120.38133 42.43848 
L 121.885513 42.20232 
L 123.335467 42.02028 
L 124.8536 42.0252 
L 126.341011 41.40528 
L 127.796165 41.46432 
L 129.310303 41.52336 
L 130.798626 41.86776 
L 132.261789 42.1974 
L 133.755158 41.8776 
L 135.273067 41.84316 
L 136.772739 41.8038 
L 138.24 41.976 
" clip-path="url(#pcea9a7ef99)" style="fill: none; stroke: #4a8dff; stroke-width: 0.6; stroke-linecap: round"/>
   </g>
   <g id="line2d_7">
    <path d="M 5.76 49.49868 
L 7.247479 49.58724 
L 8.717513 49.28712 
L 10.126928 49.16904 
L 11.710295 49.39044 
L 13.011319 49.29696 
L 14.68379 49.479 
L 16.169909 49.55772 
L 17.649139 49.51344 
L 19.127973 49.44948 
L 20.632897 49.41996 
L 22.125302 49.8234 
L 23.48753 49.86768 
L 25.0958 49.72992 
L 26.577096 49.39536 
L 28.062199 49.52328 
L 29.532594 49.6758 
L 31.054327 49.47408 
L 32.526892 49.60692 
L 34.018281 49.37568 
L 35.497872 49.36584 
L 36.989002 48.6672 
L 38.476223 48.95256 
L 39.952732 49.36092 
L 41.455108 49.54788 
L 42.947495 49.5282 
L 44.425864 49.09032 
L 45.913206 49.16412 
L 47.406988 49.2084 
L 48.892039 48.93288 
L 50.377985 48.95748 
L 51.894379 48.89844 
L 53.386508 48.48024 
L 54.848396 48.1998 
L 56.347672 48.28344 
L 57.836012 48.88368 
L 59.309456 49.04604 
L 60.788669 49.00176 
L 62.298846 49.20348 
L 63.790269 49.38552 
L 65.264418 49.04112 
L 66.863165 48.92796 
L 68.258372 48.987 
L 69.748176 49.29204 
L 71.221878 49.66104 
L 72.730074 49.56756 
L 74.222255 49.53312 
L 75.700796 49.46424 
L 77.201484 49.40028 
L 78.669813 49.56756 
L 80.159445 49.59708 
L 81.634628 49.56264 
L 83.14496 49.53312 
L 84.636727 49.25268 
L 86.114993 49.29696 
L 87.605331 48.89352 
L 89.088074 48.96732 
L 90.589692 48.8148 
L 92.054869 48.5934 
L 93.56949 48.84432 
L 95.065045 48.95748 
L 96.543501 48.30804 
L 98.030291 48.34248 
L 99.524659 48.21456 
L 101.009555 48.26376 
L 102.48107 47.41752 
L 103.988646 48.05712 
L 105.480258 48.26376 
L 106.961658 48.01776 
L 108.44497 47.23548 
L 109.938924 47.17644 
L 111.430795 47.15676 
L 112.900966 47.1666 
L 114.412039 47.31912 
L 115.915999 46.49256 
L 117.407043 47.64876 
L 118.890906 47.5356 
L 120.38133 48.0276 
L 121.885513 47.50608 
L 123.335467 46.81728 
L 124.8536 46.92552 
L 126.341011 45.85788 
L 127.796165 45.60204 
L 129.310303 45.29208 
L 130.798626 45.58728 
L 132.261789 46.2564 
L 133.755158 45.7152 
L 135.273067 45.63648 
L 136.772739 45.6414 
L 138.24 45.45936 
" clip-path="url(#pcea9a7ef99)" style="fill: none; stroke: #f5841e; stroke-width: 0.7; stroke-linecap: round"/>
   </g>
  </g>
 </g>
 <defs>
  <clipPath id="pcea9a7ef99">
   <rect x="5.76" y="3.6" width="132.48" height="49.2"/>
  </clipPath>
 </defs>
</svg>
