<?xml version="1.0" encoding="utf-8" standalone="no"?>
<!DOCTYPE svg PUBLIC "-//W3C//DTD SVG 1.1//EN"
  "http://www.w3.org/Graphics/SVG/1.1/DTD/svg11.dtd">
<svg xmlns:xlink="http://www.w3.org/1999/xlink" width="144pt" height="60pt" viewBox="0 0 144 60" xmlns="http://www.w3.org/2000/svg" version="1.1">
  <desc id="nav-meta">{"window":"3m","count":4,"labels":["17.11","17.12","15.01","14.02"],"tick_utc":["2025-11-17T12:00:00Z","2025-12-17T12:00:00Z","2026-01-15T12:00:00Z","2026-02-14T03:16:28Z"]}</desc>

 <metadata>
  <rdf:RDF xmlns:dc="http://purl.org/dc/elements/1.1/" xmlns:cc="http://creativecommons.org/ns#" xmlns:rdf="http://www.w3.org/1999/02/22-rdf-syntax-ns#">
   <cc:Work>
    <dc:type rdf:resource="http://purl.org/dc/dcmitype/StillImage"/>
    <dc:date>2026-02-14T18:38:54.928891</dc:date>
    <dc:format>image/svg+xml</dc:format>
    <dc:creator>
     <cc:Agent>
      <dc:title>Matplotlib v3.10.8, https://matplotlib.org/</dc:title>
     </cc:Agent>
    </dc:creator>
   </cc:Work>
  </rdf:RDF>
 </metadata>
 <defs>
  <style type="text/css">*{stroke-linejoin: round; stroke-linecap: butt}</style>
 </defs>
 <g id="figure_1">
  <g id="patch_1">
   <path d="M 0 60 
L 144 60 
L 144 0 
L 0 0 
L 0 60 
z
" style="fill: none; opacity: 0"/>
  </g>
  <g id="axes_1">
   <g id="patch_2">
    <path d="M 5.76 52.8 
L 138.24 52.8 
L 138.24 3.6 
L 5.76 3.6 
L 5.76 52.8 
z
" style="fill: none"/>
   </g>
   <g id="matplotlib.axis_1"/>
   <g id="matplotlib.axis_2"/>
   <g id="line2d_1">
    <path d="M 5.76 42.96 
L 138.24 42.96 
" clip-path="url(#p93d784056c)" style="fill: none; stroke: #b2b2b2; stroke-opacity: 0.35; stroke-width: 0.5; stroke-linecap: square"/>
   </g>
   <g id="line2d_2">
    <path d="M 5.76 33.12 
L 138.24 33.12 
" clip-path="url(#p93d784056c)" style="fill: none; stroke: #b2b2b2; stroke-opacity: 0.35; stroke-width: 0.5; stroke-linecap: square"/>
   </g>
   <g id="line2d_3">
    <path d="M 5.76 23.28 
L 138.24 23.28 
" clip-path="url(#p93d784056c)" style="fill: none; stroke: #b2b2b2; stroke-opacity: 0.35; stroke-width: 0.5; stroke-linecap: square"/>
   </g>
   <g id="line2d_4">
    <path d="M 5.76 13.44 
L 138.24 13.44 
" clip-path="url(#p93d784056c)" style="fill: none; stroke: #b2b2b2; stroke-opacity: 0.35; stroke-width: 0.5; stroke-linecap: square"/>
   </g>
   <g id="line2d_5">
    <path d="M 5.76 43.71276 
L 7.254645 44.59836 
L 8.74929 43.30932 
L 10.243935 43.85052 
L 11.73858 44.21952 
L 13.233225 44.88372 
L 14.72787 44.99688 
L 16.222515 44.57868 
L 17.71716 43.5996 
L 19.211805 43.51596 
L 20.706449 43.00428 
L 22.201094 43.2798 
L 23.695739 43.71768 
L 25.190384 43.8948 
L 26.685029 44.0916 
L 28.179674 45.11004 
L 29.674319 43.55532 
L 31.168964 42.72876 
L 32.663609 43.51596 
L 34.158254 44.27364 
L 35.652899 44.40156 
L 37.147544 44.47536 
L 38.642189 44.25888 
L 40.136834 43.64388 
L 41.631479 43.84068 
L 43.126124 43.85052 
L 44.620769 44.36712 
L 46.115414 44.26872 
L 47.610059 44.74104 
L 49.104703 44.98704 
L 50.599348 44.84436 
L 52.093993 45.58728 
L 53.588638 46.0596 
L 55.083283 45.18384 
L 56.577928 45.23796 
L 58.072573 45.20844 
L 59.567218 45.24288 
L 61.061863 45.47904 
L 62.556508 45.65616 
L 64.051153 45.98088 
L 65.545798 45.70536 
L 67.040443 45.38556 
L 68.535088 45.31668 
L 70.029733 45.58728 
L 71.524378 45.35604 
L 73.019023 45.40032 
L 74.513668 45.11496 
L 76.008313 44.42124 
L 77.502957 44.25888 
L 78.997602 44.18508 
L 80.492247 43.62912 
L 81.986892 43.24044 
L 83.481537 43.8702 
L 84.976182 43.60944 
L 86.470827 43.92924 
L 87.965472 43.93416 
L 89.460117 43.46184 
L 90.954762 43.5012 
L 92.449407 42.72384 
L 93.944052 42.51228 
L 95.438697 43.08792 
L 96.933342 42.75828 
L 98.427987 42.90096 
L 99.922632 43.57008 
L 101.417277 44.2392 
L 102.911922 45.23304 
L 104.406567 44.77548 
L 105.901211 44.91816 
L 107.395856 45.04608 
L 108.890501 45.07068 
L 110.385146 46.1334 
L 111.879791 45.4446 
L 113.374436 45.06084 
L 114.869081 45.33144 
L 116.363726 46.30068 
L 117.858371 46.34496 
L 119.353016 47.89476 
L 120.847661 48.26376 
L 122.342306 47.96364 
L 123.604122 48.55896 
L 124.791897 49.06572 
L 126.285781 50.04972 
L 127.774026 49.24776 
L 129.302836 49.32156 
L 130.785147 49.31172 
L 132.28832 49.43964 
L 133.779869 49.59708 
L 135.269134 49.80372 
L 136.763329 49.86768 
L 138.24 49.479 
" clip-path="url(#p93d784056c)" style="fill: none; stroke: #bebebe; stroke-width: 0.6; stroke-linecap: round"/>
   </g>
   <g id="line2d_6">
    <path d="M 5.76 36.38196 
L 7.254645 36.94776 
L 8.74929 36.2688 
L 10.243935 36.97236 
L 11.73858 38.286 
L 13.233225 38.76324 
L 14.72787 38.73864 
L 16.222515 38.51724 
L 17.71716 37.42992 
L 19.211805 37.42008 
L 20.706449 36.90348 
L 22.201094 36.98712 
L 23.695739 36.86412 
L 25.190384 37.16424 
L 26.685029 37.14948 
L 28.179674 38.52216 
L 29.674319 37.1298 
L 31.168964 35.71776 
L 32.663609 36.15564 
L 34.158254 36.93792 
L 35.652899 36.81984 
L 37.147544 36.72636 
L 38.642189 36.21468 
L 40.136834 34.8174 
L 41.631479 34.7928 
L 43.126124 35.42748 
L 44.620769 36.49512 
L 46.115414 36.28356 
L 47.610059 36.6378 
L 49.104703 37.3512 
L 50.599348 37.3512 
L 52.093993 38.31552 
L 53.588638 38.32536 
L 55.083283 37.26264 
L 56.577928 37.26264 
L 58.072573 37.09044 
L 59.567218 37.06092 
L 61.061863 37.34628 
L 62.556508 37.48404 
L 64.051153 37.77924 
L 65.545798 37.61688 
L 67.040443 37.45944 
L 68.535088 37.46928 
L 70.029733 37.56276 
L 71.524378 37.31184 
L 73.019023 37.33644 
L 74.513668 37.09536 
L 76.008313 36.23928 
L 77.502957 36.20976 
L 78.997602 36.11628 
L 80.492247 35.48652 
L 81.986892 35.0142 
L 83.481537 35.93424 
L 84.976182 36.36228 
L 86.470827 36.50988 
L 87.965472 36.5148 
L 89.460117 36.25404 
L 90.954762 36.46068 
L 92.449407 34.83708 
L 93.944052 34.57632 
L 95.438697 34.84692 
L 96.933342 35.00436 
L 98.427987 34.93056 
L 99.922632 35.088 
L 101.417277 35.78664 
L 102.911922 37.55292 
L 104.406567 37.26756 
L 105.901211 37.46436 
L 107.395856 37.44468 
L 108.890501 37.45944 
L 110.385146 38.41392 
L 111.879791 37.61196 
L 113.374436 36.95268 
L 114.869081 37.05108 
L 116.363726 38.37948 
L 117.858371 39.20604 
L 119.353016 41.03136 
L 120.847661 42.26628 
L 122.342306 41.73492 
L 123.604122 42.23676 
L 124.791897 43.38804 
L 126.285781 44.89356 
L 127.774026 43.6242 
L 129.302836 43.575 
L 130.785147 43.53072 
L 132.28832 43.72752 
L 133.779869 44.0916 
L 135.269134 44.436 
L 136.763329 44.49012 
L 138.24 43.81608 
" clip-path="url(#p93d784056c)" style="fill: none; stroke: #4a8dff; stroke-width: 0.6; stroke-linecap: round"/>
   </g>
   <g id="line2d_7">
    <path d="M 5.76 38.92068 
L 7.254645 40.09164 
L 8.74929 39.70788 
L 10.243935 40.4262 
L 11.73858 42.75336 
L 13.233225 43.54548 
L 14.72787 43.72752 
L 16.222515 42.6894 
L 17.71716 41.976 
L 19.211805 42.42864 
L 20.706449 40.86408 
L 22.201094 40.47048 
L 23.695739 40.63284 
L 25.190384 40.68204 
L 26.685029 40.89852 
L 28.179674 42.9354 
L 29.674319 40.43604 
L 31.168964 39.31428 
L 32.663609 40.04244 
L 34.158254 41.43972 
L 35.652899 41.47416 
L 37.147544 41.02152 
L 38.642189 40.7952 
L 40.136834 39.75708 
L 41.631479 40.11132 
L 43.126124 39.87024 
L 44.620769 40.94772 
L 46.115414 40.97232 
L 47.610059 41.976 
L 49.104703 42.87144 
L 50.599348 42.17772 
L 52.093993 43.04364 
L 53.588638 43.34868 
L 55.083283 42.03504 
L 56.577928 41.91696 
L 58.072573 41.8038 
L 59.567218 41.84316 
L 61.061863 42.37944 
L 62.556508 42.26628 
L 64.051153 42.468 
L 65.545798 42.42864 
L 67.040443 42.18264 
L 68.535088 42.1728 
L 70.029733 42.50244 
L 71.524378 41.88252 
L 73.019023 42.32532 
L 74.513668 41.73 
L 76.008313 41.13468 
L 77.502957 40.80504 
L 78.997602 40.42128 
L 80.492247 39.16176 
L 81.986892 39.28968 
L 83.481537 40.48032 
L 84.976182 40.61316 
L 86.470827 40.84932 
L 87.965472 40.88376 
L 89.460117 40.6968 
L 90.954762 40.53936 
L 92.449407 38.50248 
L 93.944052 37.63656 
L 95.438697 38.34012 
L 96.933342 38.37456 
L 98.427987 38.5812 
L 99.922632 39.2454 
L 101.417277 39.8358 
L 102.911922 41.93172 
L 104.406567 41.42004 
L 105.901211 41.37576 
L 107.395856 41.39052 
L 108.890501 41.5086 
L 110.385146 42.80256 
L 111.879791 41.93664 
L 113.374436 41.49384 
L 114.869081 41.51352 
L 116.363726 43.78164 
L 117.858371 43.9932 
L 119.353016 46.66968 
L 120.847661 47.55036 
L 122.342306 46.64508 
L 123.604122 47.89476 
L 124.791897 48.89352 
L 126.285781 49.84308 
L 127.774026 49.00176 
L 129.302836 49.233 
L 130.785147 48.97716 
L 132.28832 49.22316 
L 133.779869 49.36092 
L 135.269134 49.49868 
L 136.763329 49.58724 
L 138.24 49.28712 
" clip-path="url(#p93d784056c)" style="fill: none; stroke: #f5841e; stroke-width: 0.7; stroke-linecap: round"/>
   </g>
  </g>
 </g>
 <defs>
  <clipPath id="p93d784056c">
   <rect x="5.76" y="3.6" width="132.48" height="49.2"/>
  </clipPath>
 </defs>
</svg>
