<?xml version="1.0" encoding="utf-8" standalone="no"?>
<!DOCTYPE svg PUBLIC "-//W3C//DTD SVG 1.1//EN"
  "http://www.w3.org/Graphics/SVG/1.1/DTD/svg11.dtd">
<svg xmlns:xlink="http://www.w3.org/1999/xlink" width="144pt" height="60pt" viewBox="0 0 144 60" xmlns="http://www.w3.org/2000/svg" version="1.1">
  <desc id="nav-meta">{"window":"1m","count":4,"labels":["06.06","16.06","25.06","05.07"],"tick_utc":["2026-06-06T04:41:00Z","2026-06-16T06:15:52Z","2026-06-25T04:50:14Z","2026-07-05T04:44:59Z"]}</desc>

 <metadata>
  <rdf:RDF xmlns:dc="http://purl.org/dc/elements/1.1/" xmlns:cc="http://creativecommons.org/ns#" xmlns:rdf="http://www.w3.org/1999/02/22-rdf-syntax-ns#">
   <cc:Work>
    <dc:type rdf:resource="http://purl.org/dc/dcmitype/StillImage"/>
    <dc:date>2026-07-05T14:20:11.991617</dc:date>
    <dc:format>image/svg+xml</dc:format>
    <dc:creator>
     <cc:Agent>
      <dc:title>Matplotlib v3.11.0, https://matplotlib.org/</dc:title>
     </cc:Agent>
    </dc:creator>
   </cc:Work>
  </rdf:RDF>
 </metadata>
 <defs>
  <style type="text/css">*{stroke-linejoin: round; stroke-linecap: butt}</style>
 </defs>
 <g id="figure_1">
  <g id="patch_1">
   <path d="M 0 60 
L 144 60 
L 144 0 
L 0 0 
L 0 60 
z
" style="fill: none; opacity: 0"/>
  </g>
  <g id="axes_1">
   <g id="patch_2">
    <path d="M 5.76 52.8 
L 138.24 52.8 
L 138.24 3.6 
L 5.76 3.6 
L 5.76 52.8 
z
" style="fill: none"/>
   </g>
   <g id="matplotlib.axis_1"/>
   <g id="matplotlib.axis_2"/>
   <g id="line2d_1">
    <path d="M 5.76 42.96 
L 138.24 42.96 
" clip-path="url(#pa8bc38b298)" style="fill: none; stroke: #b2b2b2; stroke-opacity: 0.35; stroke-width: 0.5; stroke-linecap: square"/>
   </g>
   <g id="line2d_2">
    <path d="M 5.76 33.12 
L 138.24 33.12 
" clip-path="url(#pa8bc38b298)" style="fill: none; stroke: #b2b2b2; stroke-opacity: 0.35; stroke-width: 0.5; stroke-linecap: square"/>
   </g>
   <g id="line2d_3">
    <path d="M 5.76 23.28 
L 138.24 23.28 
" clip-path="url(#pa8bc38b298)" style="fill: none; stroke: #b2b2b2; stroke-opacity: 0.35; stroke-width: 0.5; stroke-linecap: square"/>
   </g>
   <g id="line2d_4">
    <path d="M 5.76 13.44 
L 138.24 13.44 
" clip-path="url(#pa8bc38b298)" style="fill: none; stroke: #b2b2b2; stroke-opacity: 0.35; stroke-width: 0.5; stroke-linecap: square"/>
   </g>
   <g id="line2d_5">
    <path d="M 5.76 50.99928 
L 10.426017 50.82216 
L 15.014053 50.74344 
L 19.494713 50.62536 
L 24.109923 50.80248 
L 28.704568 50.76312 
L 33.29033 50.65488 
L 37.824758 50.6598 
L 42.425746 50.56632 
L 47.145425 50.39412 
L 51.739329 50.23176 
L 56.161675 50.2416 
L 60.707628 50.4138 
L 65.383055 50.55156 
L 69.768235 50.42364 
L 74.431132 50.27112 
L 79.132677 50.217 
L 83.427451 50.35968 
L 88.011628 50.49252 
L 92.578252 50.59092 
L 97.169513 50.59092 
L 101.681365 50.33016 
L 106.33628 50.4384 
L 110.937163 50.3892 
L 115.416448 50.22192 
L 120.051114 50.13336 
L 124.538964 49.95132 
L 129.057108 49.78896 
L 133.605281 49.6266 
L 138.24 49.7742 
" clip-path="url(#pa8bc38b298)" style="fill: none; stroke: #bebebe; stroke-width: 0.6; stroke-linecap: round"/>
   </g>
   <g id="line2d_6">
    <path d="M 5.76 47.57004 
L 10.426017 47.04852 
L 15.014053 46.64016 
L 19.494713 46.34496 
L 24.109923 46.82712 
L 28.704568 46.65492 
L 33.29033 46.51716 
L 37.824758 46.5516 
L 42.425746 46.46304 
L 47.145425 46.14816 
L 51.739329 45.84312 
L 56.161675 45.6414 
L 60.707628 46.09404 
L 65.383055 46.3302 
L 69.768235 46.21704 
L 74.431132 46.06452 
L 79.132677 46.035 
L 83.427451 46.14324 
L 88.011628 46.52208 
L 92.578252 46.83204 
L 97.169513 47.38308 
L 101.681365 47.14692 
L 106.33628 47.22564 
L 110.937163 47.22072 
L 115.416448 47.10264 
L 120.051114 47.0436 
L 124.538964 46.79268 
L 129.057108 46.27608 
L 133.605281 45.92184 
L 138.24 45.80376 
" clip-path="url(#pa8bc38b298)" style="fill: none; stroke: #4a8dff; stroke-width: 0.6; stroke-linecap: round"/>
   </g>
   <g id="line2d_7">
    <path d="M 5.76 50.3646 
L 10.426017 50.15796 
L 15.014053 50.07432 
L 19.494713 49.99068 
L 24.109923 50.217 
L 28.704568 50.07924 
L 33.29033 49.98084 
L 37.824758 49.971 
L 42.425746 49.87752 
L 47.145425 49.69548 
L 51.739329 49.65612 
L 56.161675 49.7004 
L 60.707628 49.92672 
L 65.383055 50.06448 
L 69.768235 49.971 
L 74.431132 49.89228 
L 79.132677 49.89228 
L 83.427451 49.9464 
L 88.011628 50.05956 
L 92.578252 50.2416 
L 97.169513 50.35968 
L 101.681365 50.31048 
L 106.33628 50.34492 
L 110.937163 50.38428 
L 115.416448 50.39412 
L 120.051114 50.41872 
L 124.538964 50.27112 
L 129.057108 50.20224 
L 133.605281 50.0694 
L 138.24 50.03988 
" clip-path="url(#pa8bc38b298)" style="fill: none; stroke: #f5841e; stroke-width: 0.7; stroke-linecap: round"/>
   </g>
  </g>
 </g>
 <defs>
  <clipPath id="pa8bc38b298">
   <rect x="5.76" y="3.6" width="132.48" height="49.2"/>
  </clipPath>
 </defs>
</svg>
