<?xml version="1.0" encoding="utf-8" standalone="no"?>
<!DOCTYPE svg PUBLIC "-//W3C//DTD SVG 1.1//EN"
  "http://www.w3.org/Graphics/SVG/1.1/DTD/svg11.dtd">
<svg xmlns:xlink="http://www.w3.org/1999/xlink" width="144pt" height="60pt" viewBox="0 0 144 60" xmlns="http://www.w3.org/2000/svg" version="1.1">
  <desc id="nav-meta">{"window":"2w","count":4,"labels":["10 Jan","16 Jan","22 Jan","24 Jan"],"idxs":[0,46,92,138]}</desc>

 <metadata>
  <rdf:RDF xmlns:dc="http://purl.org/dc/elements/1.1/" xmlns:cc="http://creativecommons.org/ns#" xmlns:rdf="http://www.w3.org/1999/02/22-rdf-syntax-ns#">
   <cc:Work>
    <dc:type rdf:resource="http://purl.org/dc/dcmitype/StillImage"/>
    <dc:date>2026-01-24T08:53:48.221653</dc:date>
    <dc:format>image/svg+xml</dc:format>
    <dc:creator>
     <cc:Agent>
      <dc:title>Matplotlib v3.10.8, https://matplotlib.org/</dc:title>
     </cc:Agent>
    </dc:creator>
   </cc:Work>
  </rdf:RDF>
 </metadata>
 <defs>
  <style type="text/css">*{stroke-linejoin: round; stroke-linecap: butt}</style>
 </defs>
 <g id="figure_1">
  <g id="patch_1">
   <path d="M 0 60 
L 144 60 
L 144 0 
L 0 0 
L 0 60 
z
" style="fill: none; opacity: 0"/>
  </g>
  <g id="axes_1">
   <g id="patch_2">
    <path d="M 5.76 52.8 
L 138.24 52.8 
L 138.24 3.6 
L 5.76 3.6 
L 5.76 52.8 
z
" style="fill: none"/>
   </g>
   <g id="matplotlib.axis_1"/>
   <g id="matplotlib.axis_2"/>
   <g id="line2d_1">
    <path d="M 5.76 42.96 
L 138.24 42.96 
" clip-path="url(#p10305eb22c)" style="fill: none; stroke: #b2b2b2; stroke-opacity: 0.35; stroke-width: 0.5; stroke-linecap: square"/>
   </g>
   <g id="line2d_2">
    <path d="M 5.76 33.12 
L 138.24 33.12 
" clip-path="url(#p10305eb22c)" style="fill: none; stroke: #b2b2b2; stroke-opacity: 0.35; stroke-width: 0.5; stroke-linecap: square"/>
   </g>
   <g id="line2d_3">
    <path d="M 5.76 23.28 
L 138.24 23.28 
" clip-path="url(#p10305eb22c)" style="fill: none; stroke: #b2b2b2; stroke-opacity: 0.35; stroke-width: 0.5; stroke-linecap: square"/>
   </g>
   <g id="line2d_4">
    <path d="M 5.76 13.44 
L 138.24 13.44 
" clip-path="url(#p10305eb22c)" style="fill: none; stroke: #b2b2b2; stroke-opacity: 0.35; stroke-width: 0.5; stroke-linecap: square"/>
   </g>
   <g id="line2d_5">
    <path d="M 6.236547 38.5812 
L 8.843386 38.546467 
L 13.109124 38.52708 
L 15.005007 38.476896 
L 16.189934 38.27616 
L 19.981701 38.202014 
L 21.166628 38.1138 
L 21.640599 38.055558 
L 22.588541 37.75464 
L 23.536482 37.799319 
L 24.484424 38.04984 
L 25.906336 38.143985 
L 26.854278 38.19744 
L 27.328249 38.150846 
L 28.276191 37.83828 
L 29.698103 37.744295 
L 30.646045 37.68576 
L 33.015899 37.58728 
L 34.437811 37.4496 
L 37.044651 37.340695 
L 39.651491 37.1298 
L 40.599432 37.149746 
L 41.784359 37.4988 
L 42.969286 37.416357 
L 43.917228 37.34628 
L 46.287082 37.357237 
L 47.235024 37.85304 
L 49.604878 37.761528 
L 50.55282 37.671 
L 51.500761 37.564515 
L 52.448703 37.45452 
L 60.743193 37.526192 
L 61.92812 37.68576 
L 69.037682 37.74972 
L 69.511653 38.169064 
L 70.222609 38.8272 
L 73.777391 38.727736 
L 74.962318 38.726141 
L 76.38423 38.86656 
L 76.858201 38.919696 
L 77.806143 39.41268 
L 79.228055 39.510335 
L 80.175997 39.57996 
L 86.811589 39.474911 
L 87.522545 39.3438 
L 88.707472 39.257793 
L 89.655414 39.18144 
L 90.840341 39.279627 
L 91.788282 39.30936 
L 96.291005 39.397122 
L 97.001962 39.52092 
L 127.099109 39.605757 
L 127.810066 39.64392 
L 129.942934 39.741655 
L 131.127862 39.76692 
L 132.786759 39.675009 
L 133.971687 39.64884 
L 137.763453 39.56028 
L 137.763453 39.56028 
" clip-path="url(#p10305eb22c)" style="fill: none; stroke: #bebebe; stroke-width: 0.6; stroke-linecap: round"/>
   </g>
   <g id="line2d_6">
    <path d="M 6.236547 33.44964 
L 13.82008 33.348448 
L 16.189934 33.288902 
L 17.848832 33.240154 
L 18.796774 33.035429 
L 19.981701 33.25776 
L 27.091263 33.152552 
L 30.409059 32.925195 
L 31.120016 32.64276 
L 32.067957 32.547764 
L 33.015899 31.7178 
L 37.992593 31.674637 
L 38.940534 31.46688 
L 39.651491 31.494964 
L 40.599432 31.9392 
L 41.547374 31.919094 
L 42.732301 31.52592 
L 44.154213 31.618469 
L 44.628184 31.764314 
L 45.576126 32.080178 
L 47.472009 32.049435 
L 48.419951 31.94178 
L 49.841864 32.04744 
L 56.477455 31.949811 
L 58.373339 31.882952 
L 60.032236 31.876304 
L 63.350032 31.87032 
L 67.141799 31.68336 
L 67.61577 32.043504 
L 68.326726 32.589464 
L 70.69658 32.591964 
L 73.066434 32.56896 
L 74.251361 32.672307 
L 75.199303 32.85432 
L 75.910259 32.912934 
L 76.858201 33.42504 
L 77.806143 33.469347 
L 78.754084 33.9072 
L 80.175997 33.989723 
L 81.123939 34.04988 
L 82.07188 34.128068 
L 83.256807 34.18764 
L 86.574603 34.17288 
L 87.522545 34.079852 
L 88.470486 33.84816 
L 89.892399 33.939433 
L 91.077326 33.967038 
L 95.343064 34.290827 
L 96.05402 34.45332 
L 124.018299 34.345904 
L 125.440212 34.327926 
L 126.625139 34.55664 
L 133.26073 34.469968 
L 134.919628 34.373643 
L 137.289482 34.32298 
L 137.763453 34.33032 
L 137.763453 34.33032 
" clip-path="url(#p10305eb22c)" style="fill: none; stroke: #4a8dff; stroke-width: 0.7; stroke-linecap: round"/>
   </g>
   <g id="line2d_7">
    <path d="M 6.236547 38.52708 
L 14.294051 38.420223 
L 15.715963 38.37456 
L 17.611847 38.52216 
L 18.796774 38.013006 
L 19.744716 38.47788 
L 22.588541 38.391182 
L 23.773468 38.163 
L 26.617293 38.089865 
L 27.328249 37.87764 
L 29.935088 37.80876 
L 30.172074 37.702089 
L 31.120016 36.86904 
L 32.067957 36.83468 
L 33.252884 36.53448 
L 36.096709 36.457781 
L 36.807666 36.08184 
L 37.755607 36.045884 
L 38.703549 35.57016 
L 39.651491 35.603217 
L 40.599432 36.12612 
L 41.784359 36.020805 
L 42.732301 35.77188 
L 43.680243 35.873365 
L 45.813111 36.563761 
L 47.708995 36.460547 
L 48.419951 36.428474 
L 49.367893 36.60336 
L 56.24047 36.510359 
L 57.899368 36.471664 
L 65.482901 36.603094 
L 67.141799 36.50004 
L 67.61577 36.940872 
L 68.089741 37.488933 
L 68.326726 37.586323 
L 69.985624 37.49388 
L 72.829449 37.470929 
L 74.014376 37.506911 
L 74.962318 37.87764 
L 75.910259 37.92918 
L 76.858201 38.37948 
L 78.043128 38.463253 
L 78.99107 38.62548 
L 79.939011 38.721194 
L 80.886953 38.91576 
L 82.308866 39.012139 
L 84.67872 39.12732 
L 85.626661 39.042483 
L 86.574603 38.84196 
L 87.996516 38.745555 
L 89.181443 38.721752 
L 91.077326 38.8222 
L 95.106078 38.87148 
L 96.05402 39.147 
L 103.163582 39.06078 
L 104.111524 39.01908 
L 104.82248 38.945838 
L 105.770422 38.8518 
L 107.666305 38.952088 
L 108.851232 39.02892 
L 123.781314 38.934403 
L 124.966241 38.82228 
L 125.677197 38.914856 
L 126.625139 39.11256 
L 128.758007 39.201253 
L 129.942934 39.2454 
L 130.653891 39.09913 
L 131.364847 38.998762 
L 133.023745 39.056179 
L 136.104555 38.88132 
L 137.763453 38.94528 
L 137.763453 38.94528 
" clip-path="url(#p10305eb22c)" style="fill: none; stroke: #f5841e; stroke-width: 0.8; stroke-linecap: round"/>
   </g>
  </g>
 </g>
 <defs>
  <clipPath id="p10305eb22c">
   <rect x="5.76" y="3.6" width="132.48" height="49.2"/>
  </clipPath>
 </defs>
</svg>
