<?xml version="1.0" encoding="utf-8" standalone="no"?>
<!DOCTYPE svg PUBLIC "-//W3C//DTD SVG 1.1//EN"
  "http://www.w3.org/Graphics/SVG/1.1/DTD/svg11.dtd">
<svg xmlns:xlink="http://www.w3.org/1999/xlink" width="144pt" height="60pt" viewBox="0 0 144 60" xmlns="http://www.w3.org/2000/svg" version="1.1">
  <desc id="nav-meta">{"window":"1y","count":4,"labels":["24.06","23.10","22.02","23.06"],"tick_utc":["2025-06-24T12:00:00Z","2025-10-23T12:00:00Z","2026-02-22T03:28:03Z","2026-06-23T04:45:28Z"]}</desc>

 <metadata>
  <rdf:RDF xmlns:dc="http://purl.org/dc/elements/1.1/" xmlns:cc="http://creativecommons.org/ns#" xmlns:rdf="http://www.w3.org/1999/02/22-rdf-syntax-ns#">
   <cc:Work>
    <dc:type rdf:resource="http://purl.org/dc/dcmitype/StillImage"/>
    <dc:date>2026-06-23T15:38:28.354208</dc:date>
    <dc:format>image/svg+xml</dc:format>
    <dc:creator>
     <cc:Agent>
      <dc:title>Matplotlib v3.11.0, https://matplotlib.org/</dc:title>
     </cc:Agent>
    </dc:creator>
   </cc:Work>
  </rdf:RDF>
 </metadata>
 <defs>
  <style type="text/css">*{stroke-linejoin: round; stroke-linecap: butt}</style>
 </defs>
 <g id="figure_1">
  <g id="patch_1">
   <path d="M 0 60 
L 144 60 
L 144 0 
L 0 0 
L 0 60 
z
" style="fill: none; opacity: 0"/>
  </g>
  <g id="axes_1">
   <g id="patch_2">
    <path d="M 5.76 52.8 
L 138.24 52.8 
L 138.24 3.6 
L 5.76 3.6 
L 5.76 52.8 
z
" style="fill: none"/>
   </g>
   <g id="matplotlib.axis_1"/>
   <g id="matplotlib.axis_2"/>
   <g id="line2d_1">
    <path d="M 5.76 42.96 
L 138.24 42.96 
" clip-path="url(#p8d223ba07b)" style="fill: none; stroke: #b2b2b2; stroke-opacity: 0.35; stroke-width: 0.5; stroke-linecap: square"/>
   </g>
   <g id="line2d_2">
    <path d="M 5.76 33.12 
L 138.24 33.12 
" clip-path="url(#p8d223ba07b)" style="fill: none; stroke: #b2b2b2; stroke-opacity: 0.35; stroke-width: 0.5; stroke-linecap: square"/>
   </g>
   <g id="line2d_3">
    <path d="M 5.76 23.28 
L 138.24 23.28 
" clip-path="url(#p8d223ba07b)" style="fill: none; stroke: #b2b2b2; stroke-opacity: 0.35; stroke-width: 0.5; stroke-linecap: square"/>
   </g>
   <g id="line2d_4">
    <path d="M 5.76 13.44 
L 138.24 13.44 
" clip-path="url(#p8d223ba07b)" style="fill: none; stroke: #b2b2b2; stroke-opacity: 0.35; stroke-width: 0.5; stroke-linecap: square"/>
   </g>
   <g id="line2d_5">
    <path d="M 5.76 42.7632 
L 6.124258 42.63036 
L 6.488516 42.94524 
L 6.852774 43.52088 
L 7.217032 43.1076 
L 7.58129 41.98092 
L 8.309806 41.43972 
L 8.674064 42.4926 
L 9.038322 41.79888 
L 9.40258 41.78412 
L 9.766838 42.37452 
L 10.131096 42.3942 
L 10.495354 41.83332 
L 10.859612 42.24168 
L 11.22387 41.84316 
L 11.952386 40.2786 
L 12.316644 40.42128 
L 12.680902 40.71648 
L 13.409418 40.48032 
L 13.773676 40.26384 
L 14.137934 38.97972 
L 14.86645 38.51724 
L 15.230708 38.57628 
L 15.594966 38.04492 
L 15.959224 36.03264 
L 16.323482 34.88136 
L 16.687741 36.92316 
L 17.051999 37.8432 
L 17.416257 37.37088 
L 17.780515 37.53324 
L 18.144773 37.056 
L 18.509031 37.77924 
L 18.873289 38.02032 
L 19.237547 38.45328 
L 19.601805 39.1962 
L 19.966063 40.41636 
L 20.330321 40.97232 
L 20.694579 40.53444 
L 21.058837 39.55536 
L 21.423095 40.24908 
L 21.787353 39.7128 
L 22.151611 38.778 
L 22.515869 38.59104 
L 23.244385 37.794 
L 23.608643 38.82228 
L 23.972901 36.53448 
L 24.337159 35.334 
L 25.065675 37.44468 
L 25.429933 36.90348 
L 25.794191 36.65748 
L 26.522707 38.64516 
L 26.886965 37.2282 
L 27.251223 38.14332 
L 27.615481 35.53572 
L 27.979739 35.04372 
L 28.343997 34.80264 
L 28.708255 37.23804 
L 29.801029 33.67104 
L 30.165287 34.90596 
L 31.258061 35.9736 
L 31.622319 34.36476 
L 31.986577 34.1778 
L 32.350835 35.22084 
L 32.715093 35.11752 
L 33.079351 35.54556 
L 34.536383 32.44104 
L 34.900641 31.83096 
L 35.264899 30.06468 
L 35.629157 30.01056 
L 35.993415 30.291 
L 36.357673 31.16184 
L 36.721931 30.74856 
L 37.086189 29.71536 
L 37.450447 29.37588 
L 37.814706 30.57636 
L 38.178964 30.42876 
L 38.543222 30.79284 
L 38.90748 32.91828 
L 39.271738 33.72024 
L 39.635996 34.05972 
L 40.000254 36.5886 
L 40.364512 34.90104 
L 40.72877 35.10276 
L 41.093028 34.16796 
L 41.457286 33.8826 
L 41.821544 34.43364 
L 42.55006 31.05852 
L 42.914318 31.26024 
L 43.278576 31.92936 
L 43.642834 31.85064 
L 44.007092 31.3242 
L 44.37135 32.84448 
L 44.735608 31.78176 
L 45.099866 32.85924 
L 45.464124 36.8838 
L 45.828382 38.39424 
L 46.19264 35.95392 
L 46.556898 34.53696 
L 46.921156 35.20608 
L 47.649672 37.57752 
L 48.01393 37.90716 
L 48.378188 37.18884 
L 48.742446 37.18392 
L 49.106704 36.89364 
L 49.470962 37.42008 
L 49.83522 38.17284 
L 50.199478 36.687 
L 50.563736 36.42132 
L 50.927994 36.34752 
L 51.292252 35.56032 
L 51.65651 35.72268 
L 52.020768 36.29832 
L 52.385026 36.32292 
L 52.749284 37.61688 
L 53.113542 37.2282 
L 53.4778 37.34628 
L 53.842058 37.23804 
L 54.206316 40.008 
L 54.570574 41.36592 
L 54.934832 40.43604 
L 55.29909 41.44956 
L 55.663348 40.53444 
L 56.027606 41.02152 
L 56.391864 40.22448 
L 56.756122 39.79644 
L 57.12038 41.51844 
L 57.484638 41.66604 
L 58.213154 43.51596 
L 58.577412 43.43724 
L 58.94167 43.71276 
L 59.305929 44.59836 
L 59.670187 43.30932 
L 60.762961 44.88372 
L 61.127219 44.99688 
L 61.491477 44.57868 
L 61.855735 43.5996 
L 62.219993 43.51596 
L 62.584251 43.00428 
L 62.948509 43.2798 
L 63.312767 43.71768 
L 64.041283 44.0916 
L 64.405541 45.11004 
L 64.769799 43.55532 
L 65.134057 42.72876 
L 65.862573 44.27364 
L 66.591089 44.47536 
L 66.955347 44.25888 
L 67.319605 43.64388 
L 67.683863 43.84068 
L 68.048121 43.85052 
L 68.412379 44.36712 
L 68.776637 44.26872 
L 69.140895 44.74104 
L 69.505153 44.98704 
L 69.869411 44.84436 
L 70.233669 45.58728 
L 70.597927 46.0596 
L 70.962185 45.18384 
L 72.419217 45.47904 
L 72.783475 45.65616 
L 73.147733 45.98088 
L 73.876249 45.38556 
L 74.240507 45.31668 
L 74.604765 45.58728 
L 74.969023 45.35604 
L 75.333281 45.40032 
L 75.697539 45.11496 
L 76.061797 44.42124 
L 76.790313 44.18508 
L 77.518829 43.24044 
L 77.883087 43.8702 
L 78.247345 43.60944 
L 78.611603 43.92924 
L 78.975861 43.93416 
L 79.340119 43.46184 
L 79.704377 43.5012 
L 80.068635 42.72384 
L 80.432894 42.51228 
L 80.797152 43.08792 
L 81.16141 42.75828 
L 81.525668 42.90096 
L 82.254184 44.2392 
L 82.618442 45.23304 
L 82.9827 44.77548 
L 83.711216 45.04608 
L 84.075474 45.07068 
L 84.439732 46.1334 
L 84.80399 45.4446 
L 85.168248 45.06084 
L 85.532506 45.33144 
L 85.896764 46.30068 
L 86.261022 46.34496 
L 86.62528 47.89476 
L 86.989538 48.26376 
L 87.353796 47.96364 
L 88.314855 50.04972 
L 88.677553 49.24776 
L 90.14123 49.59708 
L 90.504177 49.80372 
L 90.868325 49.86768 
L 91.57324 49.24776 
L 91.960863 49.48392 
L 92.279365 49.37568 
L 92.688801 49.479 
L 93.052617 49.7004 
L 94.145197 49.49376 
L 94.510551 49.98576 
L 94.844037 49.96608 
L 95.237756 49.7004 
L 95.600391 49.27236 
L 95.963957 49.37076 
L 96.323924 49.68072 
L 96.696457 49.25268 
L 97.056955 49.51344 
L 98.14932 49.09032 
L 99.608013 49.58724 
L 99.969931 49.36092 
L 100.699737 49.45932 
L 101.063291 49.16904 
L 101.798292 49.27236 
L 102.163578 48.87384 
L 102.888498 48.70164 
L 103.252857 49.03128 
L 103.61357 49.1592 
L 103.975694 49.08048 
L 104.710513 49.36584 
L 105.462786 48.90828 
L 105.804346 49.05096 
L 106.529839 49.64628 
L 107.993701 49.59708 
L 108.353161 49.8726 
L 109.078975 49.80864 
L 110.175809 49.83816 
L 110.540657 49.50852 
L 110.903646 49.68564 
L 111.629944 49.48884 
L 112.366863 49.69056 
L 112.728802 49.40028 
L 113.092782 49.58724 
L 114.182373 49.19856 
L 114.551441 49.43472 
L 114.916601 49.50852 
L 116.733258 49.37568 
L 117.103182 49.4052 
L 117.471365 49.29204 
L 117.836387 49.5528 
L 118.19965 49.50852 
L 118.564519 49.64136 
L 119.287719 49.56264 
L 119.659371 49.57248 
L 120.023503 49.42488 
L 120.379738 49.49376 
L 121.114768 49.25268 
L 121.472963 49.24284 
L 121.838553 48.80004 
L 122.210151 48.85416 
L 122.936484 48.63276 
L 123.302474 48.66228 
L 123.666328 49.09524 
L 124.032382 48.99192 
L 124.761686 49.34616 
L 125.129481 49.47408 
L 125.85669 49.54788 
L 126.223023 49.3314 
L 126.58449 49.34616 
L 126.943743 49.51836 
L 127.68282 49.41504 
L 128.772652 49.7742 
L 129.867879 49.61676 
L 130.5982 49.7988 
L 131.329566 50.45808 
L 131.687825 50.59092 
L 132.046484 50.99928 
L 132.784439 50.74344 
L 133.141745 50.62536 
L 133.509781 50.80248 
L 134.970358 50.56632 
L 135.713061 50.23176 
L 136.065717 50.2416 
L 136.801067 50.55156 
L 137.897517 50.217 
L 138.24 50.35968 
L 138.24 50.35968 
" clip-path="url(#p8d223ba07b)" style="fill: none; stroke: #bebebe; stroke-width: 0.6; stroke-linecap: round"/>
   </g>
   <g id="line2d_6">
    <path d="M 5.76 41.17404 
L 6.124258 41.0166 
L 6.488516 41.22324 
L 7.217032 41.17896 
L 7.58129 41.08056 
L 7.945548 40.61808 
L 8.309806 40.7214 
L 8.674064 41.30688 
L 9.038322 40.11132 
L 9.40258 39.99816 
L 9.766838 40.56888 
L 10.131096 40.51476 
L 10.495354 40.131 
L 10.859612 40.3278 
L 11.22387 39.81612 
L 11.952386 37.46436 
L 12.316644 37.39056 
L 12.680902 37.50372 
L 13.409418 37.01172 
L 13.773676 36.16056 
L 14.137934 34.4976 
L 14.502192 33.69072 
L 15.230708 32.89368 
L 15.594966 31.73256 
L 15.959224 31.68336 
L 16.323482 31.8162 
L 16.687741 32.64276 
L 17.051999 32.0868 
L 17.780515 31.85064 
L 18.144773 30.98964 
L 18.509031 31.53576 
L 18.873289 31.521 
L 19.237547 31.38816 
L 19.601805 32.17044 
L 19.966063 33.68088 
L 20.330321 34.28604 
L 20.694579 33.58248 
L 21.058837 32.0376 
L 21.423095 32.76576 
L 21.787353 32.259 
L 22.151611 30.65508 
L 22.515869 29.93676 
L 22.880127 28.14588 
L 23.608643 28.40664 
L 23.972901 25.73508 
L 24.337159 24.62316 
L 24.701417 26.10408 
L 25.065675 26.97984 
L 25.429933 27.00936 
L 25.794191 26.58132 
L 26.158449 27.7818 
L 26.522707 29.49888 
L 26.886965 27.68832 
L 27.251223 28.44108 
L 27.615481 24.16068 
L 27.979739 24.55428 
L 28.343997 24.51984 
L 28.708255 27.32916 
L 29.072513 25.7646 
L 29.436771 26.48784 
L 29.801029 26.43372 
L 30.165287 27.44724 
L 30.893803 27.27504 
L 31.258061 27.8802 
L 31.622319 27.72276 
L 31.986577 26.84208 
L 32.350835 27.91956 
L 32.715093 27.8556 
L 33.079351 28.09668 
L 33.443609 27.87528 
L 34.172125 27.83592 
L 34.536383 27.57024 
L 34.900641 26.77812 
L 35.264899 25.01184 
L 35.993415 25.71048 
L 36.357673 26.31564 
L 36.721931 26.45832 
L 37.086189 25.8384 
L 37.450447 25.84824 
L 37.814706 26.6994 
L 38.178964 26.62068 
L 38.543222 26.8224 
L 38.90748 28.61328 
L 39.635996 28.97244 
L 40.000254 30.99456 
L 40.364512 29.76456 
L 40.72877 29.8974 
L 41.093028 29.02164 
L 41.457286 28.50012 
L 41.821544 29.00688 
L 42.55006 26.601 
L 42.914318 26.3796 
L 43.278576 26.5764 
L 43.642834 26.3796 
L 44.007092 25.1496 
L 44.37135 26.81256 
L 44.735608 26.29596 
L 45.099866 27.41772 
L 45.464124 31.19136 
L 45.828382 31.80144 
L 46.19264 28.89864 
L 46.556898 28.28364 
L 47.649672 30.80268 
L 48.01393 31.22088 
L 48.378188 30.8076 
L 48.742446 30.13356 
L 49.106704 30.17784 
L 49.83522 31.42752 
L 50.199478 31.04376 
L 50.563736 30.49764 
L 50.927994 30.3648 
L 51.292252 28.88388 
L 51.65651 29.15448 
L 52.020768 30.15324 
L 52.749284 31.4226 
L 53.4778 30.9306 
L 53.842058 30.66 
L 54.570574 34.99944 
L 54.934832 34.07448 
L 55.29909 34.9158 
L 55.663348 34.02528 
L 56.027606 34.26144 
L 56.391864 33.0216 
L 56.756122 33.10524 
L 57.12038 34.1532 
L 57.484638 34.2024 
L 58.213154 36.34752 
L 58.577412 35.89488 
L 59.305929 36.94776 
L 59.670187 36.2688 
L 60.034445 36.97236 
L 60.398703 38.286 
L 60.762961 38.76324 
L 61.127219 38.73864 
L 61.491477 38.51724 
L 61.855735 37.42992 
L 62.219993 37.42008 
L 62.584251 36.90348 
L 62.948509 36.98712 
L 63.312767 36.86412 
L 63.677025 37.16424 
L 64.041283 37.14948 
L 64.405541 38.52216 
L 65.134057 35.71776 
L 65.498315 36.15564 
L 65.862573 36.93792 
L 66.591089 36.72636 
L 66.955347 36.21468 
L 67.319605 34.8174 
L 67.683863 34.7928 
L 68.048121 35.42748 
L 68.412379 36.49512 
L 68.776637 36.28356 
L 69.140895 36.6378 
L 69.505153 37.3512 
L 69.869411 37.3512 
L 70.233669 38.31552 
L 70.597927 38.32536 
L 70.962185 37.26264 
L 71.326443 37.26264 
L 71.690701 37.09044 
L 72.054959 37.06092 
L 72.419217 37.34628 
L 72.783475 37.48404 
L 73.147733 37.77924 
L 73.876249 37.45944 
L 74.604765 37.56276 
L 74.969023 37.31184 
L 75.333281 37.33644 
L 75.697539 37.09536 
L 76.061797 36.23928 
L 76.790313 36.11628 
L 77.518829 35.0142 
L 77.883087 35.93424 
L 78.247345 36.36228 
L 78.611603 36.50988 
L 78.975861 36.5148 
L 79.340119 36.25404 
L 79.704377 36.46068 
L 80.068635 34.83708 
L 80.432894 34.57632 
L 81.16141 35.00436 
L 81.525668 34.93056 
L 81.889926 35.088 
L 82.254184 35.78664 
L 82.618442 37.55292 
L 82.9827 37.26756 
L 83.346958 37.46436 
L 84.075474 37.45944 
L 84.439732 38.41392 
L 85.168248 36.95268 
L 85.532506 37.05108 
L 85.896764 38.37948 
L 86.261022 39.20604 
L 86.62528 41.03136 
L 86.989538 42.26628 
L 87.353796 41.73492 
L 87.661311 42.23676 
L 88.314855 44.89356 
L 88.677553 43.6242 
L 89.41139 43.53072 
L 89.777726 43.72752 
L 90.504177 44.436 
L 90.868325 44.49012 
L 91.228203 43.81608 
L 91.57324 43.7226 
L 91.960863 44.5344 
L 92.279365 44.19 
L 92.688801 44.21952 
L 93.414746 44.51472 
L 94.145197 44.3868 
L 94.510551 45.174 
L 94.844037 45.23796 
L 95.237756 44.81484 
L 95.600391 43.821 
L 95.963957 44.01288 
L 96.323924 44.66232 
L 96.696457 43.93908 
L 97.056955 44.39664 
L 97.42206 44.12112 
L 97.784278 44.33268 
L 98.14932 43.3044 
L 98.513405 43.6242 
L 98.874868 44.29824 
L 99.242663 44.53932 
L 99.608013 44.30808 
L 99.969931 43.8702 
L 100.334046 44.00304 
L 100.699737 43.97844 
L 101.063291 43.41756 
L 101.798292 43.48644 
L 102.521462 41.73984 
L 102.888498 41.7546 
L 103.61357 43.14204 
L 103.975694 43.083 
L 104.345399 43.35852 
L 104.710513 43.78164 
L 105.071399 43.21584 
L 105.462786 42.9354 
L 105.804346 43.10268 
L 106.529839 44.25396 
L 107.626319 43.74228 
L 107.993701 43.46676 
L 108.717836 43.79148 
L 109.448717 43.77672 
L 109.813916 43.2552 
L 110.175809 43.40772 
L 110.540657 42.49752 
L 110.903646 42.90588 
L 111.271255 42.8616 
L 111.629944 42.41388 
L 112.366863 42.79764 
L 112.728802 41.57256 
L 113.092782 41.86284 
L 113.458616 41.63652 
L 113.822132 41.85792 
L 114.182373 41.22324 
L 114.916601 42.1482 
L 115.279261 41.96616 
L 115.64239 41.59224 
L 116.373347 41.99076 
L 116.733258 41.91696 
L 117.103182 41.98584 
L 117.471365 41.41512 
L 117.836387 42.15312 
L 118.19965 41.96124 
L 118.564519 42.43848 
L 119.287719 42.02028 
L 119.659371 42.0252 
L 120.023503 41.40528 
L 120.750413 41.52336 
L 121.472963 42.1974 
L 121.838553 41.8776 
L 122.577285 41.8038 
L 122.936484 41.976 
L 123.302474 42.00552 
L 123.666328 42.3942 
L 124.032382 42.27612 
L 125.129481 43.31424 
L 125.49113 43.2306 
L 125.85669 43.39296 
L 126.223023 43.16172 
L 126.58449 43.24536 
L 126.943743 43.71768 
L 127.313769 43.33392 
L 128.409557 43.67832 
L 128.772652 44.32776 
L 129.13718 44.13588 
L 129.496184 44.16048 
L 129.867879 43.96368 
L 130.237525 44.2392 
L 130.5982 44.19984 
L 130.966556 45.16908 
L 131.687825 46.00548 
L 132.046484 47.57004 
L 132.784439 46.64016 
L 133.141745 46.34496 
L 133.509781 46.82712 
L 134.241864 46.51716 
L 134.603457 46.5516 
L 134.970358 46.46304 
L 136.065717 45.6414 
L 136.42823 46.09404 
L 136.801067 46.3302 
L 137.897517 46.035 
L 138.24 46.14324 
L 138.24 46.14324 
" clip-path="url(#p8d223ba07b)" style="fill: none; stroke: #4a8dff; stroke-width: 0.6; stroke-linecap: round"/>
   </g>
   <g id="line2d_7">
    <path d="M 5.76 33.4398 
L 6.124258 33.20856 
L 6.488516 32.58372 
L 6.852774 32.71164 
L 7.58129 32.53944 
L 7.945548 32.013 
L 8.674064 33.3906 
L 9.038322 31.80144 
L 9.40258 31.41768 
L 9.766838 32.19012 
L 10.131096 32.10156 
L 10.495354 31.60956 
L 10.859612 32.0622 
L 11.22387 31.73748 
L 11.588128 30.56652 
L 11.952386 28.31808 
L 12.316644 27.48168 
L 12.680902 27.55548 
L 13.04516 26.71908 
L 13.409418 26.36484 
L 13.773676 27.42756 
L 14.502192 26.55672 
L 14.86645 27.27504 
L 15.230708 27.31932 
L 15.594966 27.63912 
L 15.959224 27.52596 
L 16.323482 26.3058 
L 16.687741 26.96016 
L 17.051999 27.09792 
L 17.416257 27.49644 
L 17.780515 27.2898 
L 18.144773 26.57148 
L 18.509031 27.27012 
L 19.237547 27.35376 
L 19.966063 29.62188 
L 20.330321 29.96136 
L 20.694579 29.14956 
L 21.058837 28.68216 
L 21.423095 29.184 
L 21.787353 28.7412 
L 22.151611 27.5358 
L 22.515869 27.91956 
L 22.880127 28.00812 
L 23.244385 26.64528 
L 23.608643 26.88636 
L 23.972901 26.1828 
L 24.337159 24.52476 
L 24.701417 27.0684 
L 25.065675 27.59484 
L 25.794191 27.49644 
L 26.158449 28.13112 
L 26.522707 29.8482 
L 26.886965 29.12004 
L 27.251223 30.03024 
L 27.615481 27.84576 
L 28.343997 29.54316 
L 28.708255 31.13232 
L 29.072513 30.31068 
L 29.436771 30.62064 
L 29.801029 29.97612 
L 30.165287 31.97364 
L 30.529545 31.82112 
L 30.893803 32.0868 
L 31.258061 31.63416 
L 31.622319 30.6354 
L 31.986577 30.37464 
L 32.350835 30.86172 
L 32.715093 30.89616 
L 33.079351 31.11756 
L 33.807867 30.22212 
L 34.172125 30.45828 
L 34.536383 29.2578 
L 34.900641 28.50504 
L 35.264899 28.18032 
L 35.629157 28.2738 
L 35.993415 28.569 
L 36.357673 28.55424 
L 36.721931 27.8802 
L 37.086189 28.03272 
L 37.450447 27.69324 
L 37.814706 28.42632 
L 38.178964 28.3968 
L 38.543222 28.60344 
L 38.90748 29.88756 
L 39.271738 30.22212 
L 39.635996 29.58252 
L 40.000254 31.73256 
L 40.364512 31.36356 
L 40.72877 31.39308 
L 41.457286 29.09544 
L 41.821544 29.2332 
L 42.185802 27.02412 
L 42.914318 25.16928 
L 43.278576 25.10532 
L 44.007092 23.92452 
L 44.37135 25.53336 
L 44.735608 24.62808 
L 45.099866 25.4448 
L 45.464124 29.64156 
L 45.828382 30.80268 
L 46.19264 28.65756 
L 46.556898 28.6428 
L 47.285414 30.87156 
L 47.649672 32.17044 
L 48.01393 32.97732 
L 48.378188 32.628 
L 48.742446 31.90476 
L 49.106704 30.92076 
L 49.470962 31.96872 
L 49.83522 32.39676 
L 50.199478 31.19628 
L 50.927994 30.42384 
L 51.292252 29.0118 
L 51.65651 29.15448 
L 52.020768 29.76456 
L 52.385026 31.2012 
L 52.749284 32.09172 
L 53.113542 31.43244 
L 53.842058 30.90108 
L 54.570574 35.35368 
L 54.934832 34.24668 
L 55.29909 35.5062 
L 55.663348 34.48284 
L 56.027606 35.02896 
L 56.391864 33.8334 
L 56.756122 33.243 
L 57.12038 34.69932 
L 57.848896 36.2934 
L 58.213154 38.901 
L 58.577412 38.37948 
L 58.94167 38.92068 
L 59.305929 40.09164 
L 59.670187 39.70788 
L 60.034445 40.4262 
L 60.398703 42.75336 
L 60.762961 43.54548 
L 61.127219 43.72752 
L 61.855735 41.976 
L 62.219993 42.42864 
L 62.584251 40.86408 
L 62.948509 40.47048 
L 64.041283 40.89852 
L 64.405541 42.9354 
L 64.769799 40.43604 
L 65.134057 39.31428 
L 65.498315 40.04244 
L 65.862573 41.43972 
L 66.226831 41.47416 
L 66.591089 41.02152 
L 66.955347 40.7952 
L 67.319605 39.75708 
L 67.683863 40.11132 
L 68.048121 39.87024 
L 68.412379 40.94772 
L 68.776637 40.97232 
L 69.505153 42.87144 
L 69.869411 42.17772 
L 70.233669 43.04364 
L 70.597927 43.34868 
L 70.962185 42.03504 
L 71.690701 41.8038 
L 72.054959 41.84316 
L 72.419217 42.37944 
L 72.783475 42.26628 
L 73.147733 42.468 
L 73.511991 42.42864 
L 73.876249 42.18264 
L 74.240507 42.1728 
L 74.604765 42.50244 
L 74.969023 41.88252 
L 75.333281 42.32532 
L 76.061797 41.13468 
L 76.790313 40.42128 
L 77.154571 39.16176 
L 77.518829 39.28968 
L 77.883087 40.48032 
L 78.975861 40.88376 
L 79.704377 40.53936 
L 80.068635 38.50248 
L 80.432894 37.63656 
L 80.797152 38.34012 
L 81.16141 38.37456 
L 81.525668 38.5812 
L 82.254184 39.8358 
L 82.618442 41.93172 
L 82.9827 41.42004 
L 83.711216 41.39052 
L 84.075474 41.5086 
L 84.439732 42.80256 
L 84.80399 41.93664 
L 85.168248 41.49384 
L 85.532506 41.51352 
L 85.896764 43.78164 
L 86.261022 43.9932 
L 86.62528 46.66968 
L 86.989538 47.55036 
L 87.353796 46.64508 
L 87.950783 48.89352 
L 88.314855 49.84308 
L 88.677553 49.00176 
L 89.050138 49.233 
L 89.41139 48.97716 
L 90.14123 49.36092 
L 90.868325 49.58724 
L 91.228203 49.28712 
L 91.57324 49.16904 
L 91.960863 49.39044 
L 92.279365 49.29696 
L 93.052617 49.55772 
L 94.145197 49.41996 
L 94.510551 49.8234 
L 94.844037 49.86768 
L 95.237756 49.72992 
L 95.600391 49.39536 
L 96.323924 49.6758 
L 96.696457 49.47408 
L 97.056955 49.60692 
L 97.42206 49.37568 
L 97.784278 49.36584 
L 98.14932 48.6672 
L 99.242663 49.54788 
L 99.608013 49.5282 
L 99.969931 49.09032 
L 100.699737 49.2084 
L 101.063291 48.93288 
L 101.798292 48.89844 
L 102.521462 48.1998 
L 102.888498 48.28344 
L 103.252857 48.88368 
L 103.61357 49.04604 
L 103.975694 49.00176 
L 104.710513 49.38552 
L 105.071399 49.04112 
L 105.462786 48.92796 
L 105.804346 48.987 
L 106.529839 49.66104 
L 107.993701 49.40028 
L 108.353161 49.56756 
L 109.078975 49.56264 
L 109.448717 49.53312 
L 109.813916 49.25268 
L 110.175809 49.29696 
L 110.540657 48.89352 
L 110.903646 48.96732 
L 111.629944 48.5934 
L 112.000737 48.84432 
L 112.366863 48.95748 
L 112.728802 48.30804 
L 113.092782 48.34248 
L 113.458616 48.21456 
L 113.822132 48.26376 
L 114.182373 47.41752 
L 114.551441 48.05712 
L 114.916601 48.26376 
L 115.279261 48.01776 
L 115.64239 47.23548 
L 116.733258 47.1666 
L 117.103182 47.31912 
L 117.471365 46.49256 
L 117.836387 47.64876 
L 118.19965 47.5356 
L 118.564519 48.0276 
L 119.287719 46.81728 
L 119.659371 46.92552 
L 120.023503 45.85788 
L 120.750413 45.29208 
L 121.114768 45.58728 
L 121.472963 46.2564 
L 121.838553 45.7152 
L 123.302474 45.42492 
L 123.666328 46.38432 
L 124.032382 45.57744 
L 124.391989 46.51716 
L 125.129481 47.54544 
L 125.85669 47.66844 
L 126.223023 47.05344 
L 126.58449 47.22564 
L 126.943743 48.07188 
L 127.68282 47.37324 
L 128.409557 48.07188 
L 128.772652 48.59832 
L 129.13718 48.52452 
L 129.496184 48.5688 
L 129.867879 48.38676 
L 130.237525 48.55404 
L 131.329566 49.93656 
L 131.687825 49.98084 
L 132.046484 50.3646 
L 132.784439 50.07432 
L 133.141745 49.99068 
L 133.509781 50.217 
L 134.241864 49.98084 
L 134.970358 49.87752 
L 135.346725 49.69548 
L 136.065717 49.7004 
L 136.801067 50.06448 
L 137.522597 49.89228 
L 138.24 49.9464 
L 138.24 49.9464 
" clip-path="url(#p8d223ba07b)" style="fill: none; stroke: #f5841e; stroke-width: 0.7; stroke-linecap: round"/>
   </g>
  </g>
 </g>
 <defs>
  <clipPath id="p8d223ba07b">
   <rect x="5.76" y="3.6" width="132.48" height="49.2"/>
  </clipPath>
 </defs>
</svg>
