<?xml version="1.0" encoding="utf-8" standalone="no"?>
<!DOCTYPE svg PUBLIC "-//W3C//DTD SVG 1.1//EN"
  "http://www.w3.org/Graphics/SVG/1.1/DTD/svg11.dtd">
<svg xmlns:xlink="http://www.w3.org/1999/xlink" width="144pt" height="60pt" viewBox="0 0 144 60" xmlns="http://www.w3.org/2000/svg" version="1.1">
  <desc id="nav-meta">{"window":"2w","count":4,"labels":["14 Jan","20 Jan","22 Jan","28 Jan"],"idxs":[0,47,94,141]}</desc>

 <metadata>
  <rdf:RDF xmlns:dc="http://purl.org/dc/elements/1.1/" xmlns:cc="http://creativecommons.org/ns#" xmlns:rdf="http://www.w3.org/1999/02/22-rdf-syntax-ns#">
   <cc:Work>
    <dc:type rdf:resource="http://purl.org/dc/dcmitype/StillImage"/>
    <dc:date>2026-01-28T00:38:36.917569</dc:date>
    <dc:format>image/svg+xml</dc:format>
    <dc:creator>
     <cc:Agent>
      <dc:title>Matplotlib v3.10.8, https://matplotlib.org/</dc:title>
     </cc:Agent>
    </dc:creator>
   </cc:Work>
  </rdf:RDF>
 </metadata>
 <defs>
  <style type="text/css">*{stroke-linejoin: round; stroke-linecap: butt}</style>
 </defs>
 <g id="figure_1">
  <g id="patch_1">
   <path d="M 0 60 
L 144 60 
L 144 0 
L 0 0 
L 0 60 
z
" style="fill: none; opacity: 0"/>
  </g>
  <g id="axes_1">
   <g id="patch_2">
    <path d="M 5.76 52.8 
L 138.24 52.8 
L 138.24 3.6 
L 5.76 3.6 
L 5.76 52.8 
z
" style="fill: none"/>
   </g>
   <g id="matplotlib.axis_1"/>
   <g id="matplotlib.axis_2"/>
   <g id="line2d_1">
    <path d="M 5.76 42.96 
L 138.24 42.96 
" clip-path="url(#p7252d9d7d4)" style="fill: none; stroke: #b2b2b2; stroke-opacity: 0.35; stroke-width: 0.5; stroke-linecap: square"/>
   </g>
   <g id="line2d_2">
    <path d="M 5.76 33.12 
L 138.24 33.12 
" clip-path="url(#p7252d9d7d4)" style="fill: none; stroke: #b2b2b2; stroke-opacity: 0.35; stroke-width: 0.5; stroke-linecap: square"/>
   </g>
   <g id="line2d_3">
    <path d="M 5.76 23.28 
L 138.24 23.28 
" clip-path="url(#p7252d9d7d4)" style="fill: none; stroke: #b2b2b2; stroke-opacity: 0.35; stroke-width: 0.5; stroke-linecap: square"/>
   </g>
   <g id="line2d_4">
    <path d="M 5.76 13.44 
L 138.24 13.44 
" clip-path="url(#p7252d9d7d4)" style="fill: none; stroke: #b2b2b2; stroke-opacity: 0.35; stroke-width: 0.5; stroke-linecap: square"/>
   </g>
   <g id="line2d_5">
    <path d="M 6.226479 37.60212 
L 7.618511 37.4496 
L 10.17057 37.351174 
L 12.954634 37.1298 
L 13.882656 37.205943 
L 14.810677 37.4988 
L 16.20271 37.393085 
L 17.130731 37.34628 
L 19.450785 37.434762 
L 20.378806 37.85304 
L 22.466854 37.778876 
L 23.394876 37.671 
L 24.322897 37.585095 
L 25.250919 37.45452 
L 33.603112 37.556643 
L 34.531133 37.68576 
L 41.491294 37.74972 
L 41.7233 37.801029 
L 42.651321 38.8272 
L 46.131402 38.740462 
L 47.059423 38.70912 
L 47.987445 38.829074 
L 48.915466 38.86656 
L 49.147471 38.86945 
L 50.075493 39.41268 
L 51.467525 39.494992 
L 52.395547 39.57996 
L 58.891697 39.500823 
L 59.587713 39.3438 
L 60.74774 39.272499 
L 61.907767 39.18144 
L 62.835788 39.268074 
L 63.76381 39.30936 
L 68.171911 39.375507 
L 69.099933 39.52092 
L 98.332609 39.58842 
L 99.028625 39.64392 
L 101.116673 39.731126 
L 102.044695 39.76692 
L 103.900738 39.685076 
L 105.060765 39.64884 
L 118.28507 39.751613 
L 120.141113 39.884037 
L 121.069135 40.75584 
L 121.997156 40.712471 
L 122.925178 40.27368 
L 125.941247 40.166221 
L 127.101274 40.06212 
L 134.989457 40.035958 
L 136.149484 39.63408 
L 137.773521 39.68328 
L 137.773521 39.68328 
" clip-path="url(#p7252d9d7d4)" style="fill: none; stroke: #bebebe; stroke-width: 0.6; stroke-linecap: round"/>
   </g>
   <g id="line2d_6">
    <path d="M 6.226479 31.7178 
L 11.330597 31.628277 
L 12.026613 31.46688 
L 12.954634 31.566842 
L 13.882656 31.9392 
L 14.810677 31.856107 
L 15.738699 31.52592 
L 17.362736 31.636503 
L 18.754769 32.084691 
L 20.378806 32.068239 
L 21.306828 31.928163 
L 22.69886 32.04744 
L 29.19501 31.958177 
L 31.051053 31.888516 
L 32.907096 31.880108 
L 36.155171 31.863682 
L 39.403246 31.68336 
L 39.867257 31.735762 
L 40.795278 32.585803 
L 43.347337 32.584293 
L 46.131402 32.56896 
L 46.595412 32.645962 
L 47.523434 32.85432 
L 48.21945 32.860359 
L 49.147471 33.42504 
L 50.075493 33.42504 
L 51.23552 33.9072 
L 52.627552 34.012134 
L 53.555573 34.04988 
L 54.483595 34.149738 
L 55.411616 34.18764 
L 59.587713 34.10931 
L 60.515734 33.84816 
L 62.139772 33.958118 
L 67.011885 34.18259 
L 67.939906 34.45332 
L 95.316539 34.353124 
L 96.708571 34.31064 
L 98.100604 34.55664 
L 104.596754 34.450665 
L 105.988786 34.375277 
L 109.004856 34.33032 
L 115.269001 34.43856 
L 119.213092 34.666676 
L 120.141113 35.47176 
L 121.069135 35.433337 
L 121.997156 35.06832 
L 122.925178 35.03375 
L 123.853199 34.65996 
L 128.957317 34.57429 
L 129.653333 34.46808 
L 131.045366 34.572806 
L 132.205392 34.601701 
L 134.061435 34.610317 
L 134.989457 33.9072 
L 137.773521 33.9318 
L 137.773521 33.9318 
" clip-path="url(#p7252d9d7d4)" style="fill: none; stroke: #4a8dff; stroke-width: 0.7; stroke-linecap: round"/>
   </g>
   <g id="line2d_7">
    <path d="M 6.226479 36.53448 
L 9.242549 36.512145 
L 10.17057 36.08184 
L 10.866586 36.08184 
L 12.026613 35.57016 
L 12.722629 35.57016 
L 13.882656 36.12612 
L 14.810677 36.054897 
L 15.738699 35.77188 
L 16.66672 35.839354 
L 18.754769 36.564703 
L 20.610812 36.478876 
L 21.306828 36.405935 
L 22.466854 36.60336 
L 29.19501 36.497463 
L 30.587042 36.46888 
L 38.011214 36.61458 
L 39.635252 36.50004 
L 39.867257 36.564182 
L 40.795278 37.596393 
L 42.419316 37.49388 
L 46.595412 37.572288 
L 47.523434 37.87764 
L 48.21945 37.88295 
L 49.147471 38.37948 
L 50.307498 38.440655 
L 51.23552 38.62548 
L 52.163541 38.694594 
L 53.091563 38.91576 
L 54.483595 39.001352 
L 55.411616 39.03384 
L 58.195681 38.926511 
L 58.659691 38.84196 
L 60.051724 38.756706 
L 60.979745 38.71896 
L 66.779879 38.78292 
L 68.635922 39.147 
L 74.436056 39.141533 
L 75.828089 39.01908 
L 76.75611 38.919066 
L 77.684131 38.8518 
L 79.308169 38.94036 
L 80.700201 39.02892 
L 86.036325 39.021709 
L 87.196351 39.0732 
L 94.620523 39.013301 
L 96.940577 38.889858 
L 97.868598 39.11256 
L 100.188652 39.217286 
L 101.348679 39.2454 
L 102.740711 39.012416 
L 104.132743 39.05844 
L 108.076834 38.892149 
L 111.78892 39.038213 
L 115.501006 39.257661 
L 116.661033 39.51108 
L 117.82106 39.426529 
L 118.749081 39.37332 
L 119.213092 39.476406 
L 120.141113 40.34748 
L 121.069135 40.304371 
L 121.997156 39.89484 
L 123.157183 39.80792 
L 124.085205 39.63408 
L 127.33328 39.73576 
L 128.029296 39.78168 
L 128.493307 39.756429 
L 129.421328 39.30444 
L 130.581355 39.383186 
L 131.509376 39.57504 
L 132.669403 39.676564 
L 133.597425 39.76692 
L 134.061435 39.751197 
L 134.989457 39.024 
L 137.773521 39.10764 
L 137.773521 39.10764 
" clip-path="url(#p7252d9d7d4)" style="fill: none; stroke: #f5841e; stroke-width: 0.8; stroke-linecap: round"/>
   </g>
  </g>
 </g>
 <defs>
  <clipPath id="p7252d9d7d4">
   <rect x="5.76" y="3.6" width="132.48" height="49.2"/>
  </clipPath>
 </defs>
</svg>
