<?xml version="1.0" encoding="utf-8" standalone="no"?>
<!DOCTYPE svg PUBLIC "-//W3C//DTD SVG 1.1//EN"
  "http://www.w3.org/Graphics/SVG/1.1/DTD/svg11.dtd">
<svg xmlns:xlink="http://www.w3.org/1999/xlink" width="144pt" height="60pt" viewBox="0 0 144 60" xmlns="http://www.w3.org/2000/svg" version="1.1">
  <desc id="nav-meta">{"window":"3m","count":4,"labels":["05.03","04.04","03.05","02.06"],"tick_utc":["2026-03-05T03:17:19Z","2026-04-04T03:24:53Z","2026-05-03T04:31:45Z","2026-06-02T05:15:35Z"]}</desc>

 <metadata>
  <rdf:RDF xmlns:dc="http://purl.org/dc/elements/1.1/" xmlns:cc="http://creativecommons.org/ns#" xmlns:rdf="http://www.w3.org/1999/02/22-rdf-syntax-ns#">
   <cc:Work>
    <dc:type rdf:resource="http://purl.org/dc/dcmitype/StillImage"/>
    <dc:date>2026-06-02T21:36:32.510922</dc:date>
    <dc:format>image/svg+xml</dc:format>
    <dc:creator>
     <cc:Agent>
      <dc:title>Matplotlib v3.10.9, https://matplotlib.org/</dc:title>
     </cc:Agent>
    </dc:creator>
   </cc:Work>
  </rdf:RDF>
 </metadata>
 <defs>
  <style type="text/css">*{stroke-linejoin: round; stroke-linecap: butt}</style>
 </defs>
 <g id="figure_1">
  <g id="patch_1">
   <path d="M 0 60 
L 144 60 
L 144 0 
L 0 0 
L 0 60 
z
" style="fill: none; opacity: 0"/>
  </g>
  <g id="axes_1">
   <g id="patch_2">
    <path d="M 5.76 52.8 
L 138.24 52.8 
L 138.24 3.6 
L 5.76 3.6 
L 5.76 52.8 
z
" style="fill: none"/>
   </g>
   <g id="matplotlib.axis_1"/>
   <g id="matplotlib.axis_2"/>
   <g id="line2d_1">
    <path d="M 5.76 42.96 
L 138.24 42.96 
" clip-path="url(#pc191109690)" style="fill: none; stroke: #b2b2b2; stroke-opacity: 0.35; stroke-width: 0.5; stroke-linecap: square"/>
   </g>
   <g id="line2d_2">
    <path d="M 5.76 33.12 
L 138.24 33.12 
" clip-path="url(#pc191109690)" style="fill: none; stroke: #b2b2b2; stroke-opacity: 0.35; stroke-width: 0.5; stroke-linecap: square"/>
   </g>
   <g id="line2d_3">
    <path d="M 5.76 23.28 
L 138.24 23.28 
" clip-path="url(#pc191109690)" style="fill: none; stroke: #b2b2b2; stroke-opacity: 0.35; stroke-width: 0.5; stroke-linecap: square"/>
   </g>
   <g id="line2d_4">
    <path d="M 5.76 13.44 
L 138.24 13.44 
" clip-path="url(#pc191109690)" style="fill: none; stroke: #b2b2b2; stroke-opacity: 0.35; stroke-width: 0.5; stroke-linecap: square"/>
   </g>
   <g id="line2d_5">
    <path d="M 5.76 49.09032 
L 7.246461 49.24284 
L 8.722216 49.49868 
L 10.223825 49.64628 
L 11.71545 49.58724 
L 13.193064 49.36092 
L 14.679645 49.41996 
L 16.172665 49.45932 
L 17.656957 49.16904 
L 19.142145 49.22808 
L 20.657764 49.27236 
L 22.149131 48.87384 
L 23.610272 48.74592 
L 25.108782 48.70164 
L 26.596362 49.03128 
L 28.069054 49.1592 
L 29.547511 49.08048 
L 31.056917 49.21332 
L 32.547578 49.36584 
L 34.020975 49.11 
L 35.618904 48.90828 
L 37.013399 49.05096 
L 38.502442 49.37076 
L 39.975391 49.64628 
L 41.482818 49.6266 
L 42.974236 49.602 
L 44.452022 49.59708 
L 45.951944 49.59708 
L 47.419523 49.8726 
L 48.908394 49.88244 
L 50.382823 49.80864 
L 51.892384 49.78896 
L 53.383389 49.69056 
L 54.8609 49.83816 
L 56.350477 49.50852 
L 57.832463 49.68564 
L 59.333314 49.6266 
L 60.797743 49.48884 
L 62.311589 49.6512 
L 63.806381 49.69056 
L 65.284081 49.40028 
L 66.770112 49.58724 
L 68.263717 49.45932 
L 69.747854 49.27728 
L 71.218618 49.19856 
L 72.725424 49.43472 
L 74.216275 49.50852 
L 75.696918 49.46424 
L 77.179472 49.31664 
L 78.672663 49.4298 
L 80.163772 49.42488 
L 81.633193 49.37568 
L 83.143494 49.4052 
L 84.646685 49.29204 
L 86.136968 49.5528 
L 87.620073 49.50852 
L 89.109735 49.64136 
L 90.613151 49.56756 
L 92.062364 49.56264 
L 93.579722 49.57248 
L 95.066373 49.42488 
L 96.520784 49.49376 
L 98.034149 49.32156 
L 99.521711 49.25268 
L 100.984127 49.24284 
L 102.476733 48.80004 
L 103.993867 48.85416 
L 105.492773 48.72132 
L 106.959285 48.63276 
L 108.453526 48.66228 
L 109.939041 49.09524 
L 111.43354 48.99192 
L 112.901722 49.19364 
L 114.411093 49.34616 
L 115.912701 49.47408 
L 117.389213 49.47408 
L 118.881699 49.54788 
L 120.377335 49.3314 
L 121.853107 49.34616 
L 123.319843 49.51836 
L 124.830556 49.41996 
L 126.337294 49.41504 
L 127.80193 49.5282 
L 129.304364 49.5774 
L 130.78678 49.7742 
L 132.275049 49.7004 
L 133.740769 49.69548 
L 135.258299 49.61676 
L 136.767464 49.71024 
L 138.24 49.7988 
" clip-path="url(#pc191109690)" style="fill: none; stroke: #bebebe; stroke-width: 0.6; stroke-linecap: round"/>
   </g>
   <g id="line2d_6">
    <path d="M 5.76 43.3044 
L 7.246461 43.6242 
L 8.722216 44.29824 
L 10.223825 44.53932 
L 11.71545 44.30808 
L 13.193064 43.8702 
L 14.679645 44.00304 
L 16.172665 43.97844 
L 17.656957 43.41756 
L 19.142145 43.48152 
L 20.657764 43.48644 
L 22.149131 42.49752 
L 23.610272 41.73984 
L 25.108782 41.7546 
L 26.596362 42.591 
L 28.069054 43.14204 
L 29.547511 43.083 
L 31.056917 43.35852 
L 32.547578 43.78164 
L 34.020975 43.21584 
L 35.618904 42.9354 
L 37.013399 43.10268 
L 38.502442 43.72752 
L 39.975391 44.25396 
L 41.482818 44.10636 
L 42.974236 43.9194 
L 44.452022 43.74228 
L 45.951944 43.46676 
L 47.419523 43.65372 
L 48.908394 43.79148 
L 50.382823 43.81116 
L 51.892384 43.77672 
L 53.383389 43.2552 
L 54.8609 43.40772 
L 56.350477 42.49752 
L 57.832463 42.90588 
L 59.333314 42.8616 
L 60.797743 42.41388 
L 62.311589 42.63036 
L 63.806381 42.79764 
L 65.284081 41.57256 
L 66.770112 41.86284 
L 68.263717 41.63652 
L 69.747854 41.85792 
L 71.218618 41.22324 
L 72.725424 41.76936 
L 74.216275 42.1482 
L 75.696918 41.96616 
L 77.179472 41.59224 
L 78.672663 41.76936 
L 80.163772 41.99076 
L 81.633193 41.91696 
L 83.143494 41.98584 
L 84.646685 41.41512 
L 86.136968 42.15312 
L 87.620073 41.96124 
L 89.109735 42.43848 
L 90.613151 42.20232 
L 92.062364 42.02028 
L 93.579722 42.0252 
L 95.066373 41.40528 
L 96.520784 41.46432 
L 98.034149 41.52336 
L 99.521711 41.86776 
L 100.984127 42.1974 
L 102.476733 41.8776 
L 103.993867 41.84316 
L 105.492773 41.8038 
L 106.959285 41.976 
L 108.453526 42.00552 
L 109.939041 42.3942 
L 111.43354 42.27612 
L 112.901722 42.57624 
L 114.411093 42.85176 
L 115.912701 43.31424 
L 117.389213 43.2306 
L 118.881699 43.39296 
L 120.377335 43.16172 
L 121.853107 43.24536 
L 123.319843 43.71768 
L 124.830556 43.33392 
L 126.337294 43.42248 
L 127.80193 43.51596 
L 129.304364 43.67832 
L 130.78678 44.32776 
L 132.275049 44.13588 
L 133.740769 44.16048 
L 135.258299 43.96368 
L 136.767464 44.2392 
L 138.24 44.19984 
" clip-path="url(#pc191109690)" style="fill: none; stroke: #4a8dff; stroke-width: 0.6; stroke-linecap: round"/>
   </g>
   <g id="line2d_7">
    <path d="M 5.76 48.6672 
L 7.246461 48.95256 
L 8.722216 49.36092 
L 10.223825 49.54788 
L 11.71545 49.5282 
L 13.193064 49.09032 
L 14.679645 49.16412 
L 16.172665 49.2084 
L 17.656957 48.93288 
L 19.142145 48.95748 
L 20.657764 48.89844 
L 22.149131 48.48024 
L 23.610272 48.1998 
L 25.108782 48.28344 
L 26.596362 48.88368 
L 28.069054 49.04604 
L 29.547511 49.00176 
L 31.056917 49.20348 
L 32.547578 49.38552 
L 34.020975 49.04112 
L 35.618904 48.92796 
L 37.013399 48.987 
L 38.502442 49.29204 
L 39.975391 49.66104 
L 41.482818 49.56756 
L 42.974236 49.53312 
L 44.452022 49.46424 
L 45.951944 49.40028 
L 47.419523 49.56756 
L 48.908394 49.59708 
L 50.382823 49.56264 
L 51.892384 49.53312 
L 53.383389 49.25268 
L 54.8609 49.29696 
L 56.350477 48.89352 
L 57.832463 48.96732 
L 59.333314 48.8148 
L 60.797743 48.5934 
L 62.311589 48.84432 
L 63.806381 48.95748 
L 65.284081 48.30804 
L 66.770112 48.34248 
L 68.263717 48.21456 
L 69.747854 48.26376 
L 71.218618 47.41752 
L 72.725424 48.05712 
L 74.216275 48.26376 
L 75.696918 48.01776 
L 77.179472 47.23548 
L 78.672663 47.17644 
L 80.163772 47.15676 
L 81.633193 47.1666 
L 83.143494 47.31912 
L 84.646685 46.49256 
L 86.136968 47.64876 
L 87.620073 47.5356 
L 89.109735 48.0276 
L 90.613151 47.50608 
L 92.062364 46.81728 
L 93.579722 46.92552 
L 95.066373 45.85788 
L 96.520784 45.60204 
L 98.034149 45.29208 
L 99.521711 45.58728 
L 100.984127 46.2564 
L 102.476733 45.7152 
L 103.993867 45.63648 
L 105.492773 45.6414 
L 106.959285 45.45936 
L 108.453526 45.42492 
L 109.939041 46.38432 
L 111.43354 45.57744 
L 112.901722 46.51716 
L 114.411093 46.95996 
L 115.912701 47.54544 
L 117.389213 47.59464 
L 118.881699 47.66844 
L 120.377335 47.05344 
L 121.853107 47.22564 
L 123.319843 48.07188 
L 124.830556 47.6832 
L 126.337294 47.37324 
L 127.80193 47.66844 
L 129.304364 48.07188 
L 130.78678 48.59832 
L 132.275049 48.52452 
L 133.740769 48.5688 
L 135.258299 48.38676 
L 136.767464 48.55404 
L 138.24 49.0116 
" clip-path="url(#pc191109690)" style="fill: none; stroke: #f5841e; stroke-width: 0.7; stroke-linecap: round"/>
   </g>
  </g>
 </g>
 <defs>
  <clipPath id="pc191109690">
   <rect x="5.76" y="3.6" width="132.48" height="49.2"/>
  </clipPath>
 </defs>
</svg>
