<?xml version="1.0" encoding="utf-8" standalone="no"?>
<!DOCTYPE svg PUBLIC "-//W3C//DTD SVG 1.1//EN"
  "http://www.w3.org/Graphics/SVG/1.1/DTD/svg11.dtd">
<svg xmlns:xlink="http://www.w3.org/1999/xlink" width="144pt" height="60pt" viewBox="0 0 144 60" xmlns="http://www.w3.org/2000/svg" version="1.1">
  <desc id="nav-meta">{"window":"1w","count":4,"labels":["23 Jan","26 Jan","28 Jan","30 Jan"],"idxs":[0,21,43,64]}</desc>

 <metadata>
  <rdf:RDF xmlns:dc="http://purl.org/dc/elements/1.1/" xmlns:cc="http://creativecommons.org/ns#" xmlns:rdf="http://www.w3.org/1999/02/22-rdf-syntax-ns#">
   <cc:Work>
    <dc:type rdf:resource="http://purl.org/dc/dcmitype/StillImage"/>
    <dc:date>2026-01-30T15:05:29.476078</dc:date>
    <dc:format>image/svg+xml</dc:format>
    <dc:creator>
     <cc:Agent>
      <dc:title>Matplotlib v3.10.8, https://matplotlib.org/</dc:title>
     </cc:Agent>
    </dc:creator>
   </cc:Work>
  </rdf:RDF>
 </metadata>
 <defs>
  <style type="text/css">*{stroke-linejoin: round; stroke-linecap: butt}</style>
 </defs>
 <g id="figure_1">
  <g id="patch_1">
   <path d="M 0 60 
L 144 60 
L 144 0 
L 0 0 
L 0 60 
z
" style="fill: none; opacity: 0"/>
  </g>
  <g id="axes_1">
   <g id="patch_2">
    <path d="M 5.76 52.8 
L 138.24 52.8 
L 138.24 3.6 
L 5.76 3.6 
L 5.76 52.8 
z
" style="fill: none"/>
   </g>
   <g id="matplotlib.axis_1"/>
   <g id="matplotlib.axis_2"/>
   <g id="line2d_1">
    <path d="M 5.76 42.96 
L 138.24 42.96 
" clip-path="url(#p2405363f18)" style="fill: none; stroke: #b2b2b2; stroke-opacity: 0.35; stroke-width: 0.5; stroke-linecap: square"/>
   </g>
   <g id="line2d_2">
    <path d="M 5.76 33.12 
L 138.24 33.12 
" clip-path="url(#p2405363f18)" style="fill: none; stroke: #b2b2b2; stroke-opacity: 0.35; stroke-width: 0.5; stroke-linecap: square"/>
   </g>
   <g id="line2d_3">
    <path d="M 5.76 23.28 
L 138.24 23.28 
" clip-path="url(#p2405363f18)" style="fill: none; stroke: #b2b2b2; stroke-opacity: 0.35; stroke-width: 0.5; stroke-linecap: square"/>
   </g>
   <g id="line2d_4">
    <path d="M 5.76 13.44 
L 138.24 13.44 
" clip-path="url(#p2405363f18)" style="fill: none; stroke: #b2b2b2; stroke-opacity: 0.35; stroke-width: 0.5; stroke-linecap: square"/>
   </g>
   <g id="line2d_5">
    <path d="M 6.779077 39.76692 
L 10.304532 39.680754 
L 12.319078 39.64884 
L 42.03363 39.758942 
L 45.559085 39.812796 
L 47.573631 40.75584 
L 49.588177 40.753978 
L 51.602723 40.277403 
L 58.653634 40.145741 
L 61.171816 40.06212 
L 78.295456 40.006176 
L 80.310002 39.63408 
L 109.017281 39.69937 
L 111.535463 39.9096 
L 113.550009 40.012179 
L 115.564555 40.17528 
L 121.104556 40.199196 
L 123.119102 40.7706 
L 128.659103 40.87392 
L 130.673649 41.013428 
L 132.184558 41.05104 
L 137.220923 41.13468 
L 137.220923 41.13468 
" clip-path="url(#p2405363f18)" style="fill: none; stroke: #bebebe; stroke-width: 0.6; stroke-linecap: round"/>
   </g>
   <g id="line2d_6">
    <path d="M 6.779077 34.45332 
L 11.311805 34.476077 
L 14.83726 34.375056 
L 20.880898 34.329123 
L 35.989992 34.467966 
L 40.019084 34.540797 
L 43.544539 34.606163 
L 45.559085 35.47176 
L 48.077268 35.365838 
L 50.091813 35.06832 
L 52.106359 34.970566 
L 54.120905 34.65996 
L 64.697271 34.605764 
L 66.711817 34.46808 
L 69.229999 34.553221 
L 71.244545 34.60092 
L 76.28091 34.553411 
L 78.295456 33.9072 
L 95.419096 34.017663 
L 103.980916 34.02811 
L 105.995462 33.981 
L 111.031827 34.034398 
L 113.046372 34.41888 
L 119.09001 34.481871 
L 121.104556 35.10768 
L 123.622738 35.20456 
L 125.637284 35.40288 
L 127.65183 35.482417 
L 129.666376 35.66364 
L 132.184558 35.762534 
L 134.199104 35.8506 
L 137.220923 35.81616 
L 137.220923 35.81616 
" clip-path="url(#p2405363f18)" style="fill: none; stroke: #4a8dff; stroke-width: 0.7; stroke-linecap: round"/>
   </g>
   <g id="line2d_7">
    <path d="M 6.779077 38.9748 
L 10.808169 39.05844 
L 18.362716 38.88132 
L 23.902717 38.980841 
L 27.931809 39.04501 
L 35.486356 39.245457 
L 38.004538 39.51108 
L 41.026357 39.400446 
L 43.040903 39.37332 
L 43.544539 39.410932 
L 45.559085 40.34748 
L 47.573631 40.340489 
L 50.091813 39.89484 
L 52.106359 39.832419 
L 54.120905 39.63408 
L 61.171816 39.706284 
L 62.682725 39.78168 
L 64.193635 39.700604 
L 66.208181 39.30444 
L 68.726363 39.411008 
L 70.740909 39.57504 
L 72.755455 39.646162 
L 74.770001 39.76692 
L 76.28091 39.692341 
L 78.295456 39.024 
L 91.390004 39.125857 
L 94.915459 39.160563 
L 103.980916 39.036822 
L 104.988189 38.9502 
L 107.506371 39.037164 
L 109.520917 39.15684 
L 111.031827 39.229443 
L 113.046372 39.639 
L 119.09001 39.697071 
L 121.104556 40.32288 
L 123.119102 40.397877 
L 125.133648 41.24784 
L 127.148194 41.271775 
L 129.16274 41.66112 
L 132.184558 41.770424 
L 134.199104 41.86776 
L 135.710014 41.797759 
L 137.220923 41.59716 
L 137.220923 41.59716 
" clip-path="url(#p2405363f18)" style="fill: none; stroke: #f5841e; stroke-width: 0.8; stroke-linecap: round"/>
   </g>
  </g>
 </g>
 <defs>
  <clipPath id="p2405363f18">
   <rect x="5.76" y="3.6" width="132.48" height="49.2"/>
  </clipPath>
 </defs>
</svg>
