<?xml version="1.0" encoding="utf-8" standalone="no"?>
<!DOCTYPE svg PUBLIC "-//W3C//DTD SVG 1.1//EN"
  "http://www.w3.org/Graphics/SVG/1.1/DTD/svg11.dtd">
<svg xmlns:xlink="http://www.w3.org/1999/xlink" width="144pt" height="60pt" viewBox="0 0 144 60" xmlns="http://www.w3.org/2000/svg" version="1.1">
  <desc id="nav-meta">{"window":"1y","count":4,"labels":["27.06","27.10","25.02","27.06"],"tick_utc":["2025-06-27T12:00:00Z","2025-10-27T12:00:00Z","2026-02-25T03:27:12Z","2026-06-27T04:39:58Z"]}</desc>

 <metadata>
  <rdf:RDF xmlns:dc="http://purl.org/dc/elements/1.1/" xmlns:cc="http://creativecommons.org/ns#" xmlns:rdf="http://www.w3.org/1999/02/22-rdf-syntax-ns#">
   <cc:Work>
    <dc:type rdf:resource="http://purl.org/dc/dcmitype/StillImage"/>
    <dc:date>2026-06-27T04:40:00.093570</dc:date>
    <dc:format>image/svg+xml</dc:format>
    <dc:creator>
     <cc:Agent>
      <dc:title>Matplotlib v3.11.0, https://matplotlib.org/</dc:title>
     </cc:Agent>
    </dc:creator>
   </cc:Work>
  </rdf:RDF>
 </metadata>
 <defs>
  <style type="text/css">*{stroke-linejoin: round; stroke-linecap: butt}</style>
 </defs>
 <g id="figure_1">
  <g id="patch_1">
   <path d="M 0 60 
L 144 60 
L 144 0 
L 0 0 
L 0 60 
z
" style="fill: none; opacity: 0"/>
  </g>
  <g id="axes_1">
   <g id="patch_2">
    <path d="M 5.76 52.8 
L 138.24 52.8 
L 138.24 3.6 
L 5.76 3.6 
L 5.76 52.8 
z
" style="fill: none"/>
   </g>
   <g id="matplotlib.axis_1"/>
   <g id="matplotlib.axis_2"/>
   <g id="line2d_1">
    <path d="M 5.76 42.96 
L 138.24 42.96 
" clip-path="url(#pf646f61ae2)" style="fill: none; stroke: #b2b2b2; stroke-opacity: 0.35; stroke-width: 0.5; stroke-linecap: square"/>
   </g>
   <g id="line2d_2">
    <path d="M 5.76 33.12 
L 138.24 33.12 
" clip-path="url(#pf646f61ae2)" style="fill: none; stroke: #b2b2b2; stroke-opacity: 0.35; stroke-width: 0.5; stroke-linecap: square"/>
   </g>
   <g id="line2d_3">
    <path d="M 5.76 23.28 
L 138.24 23.28 
" clip-path="url(#pf646f61ae2)" style="fill: none; stroke: #b2b2b2; stroke-opacity: 0.35; stroke-width: 0.5; stroke-linecap: square"/>
   </g>
   <g id="line2d_4">
    <path d="M 5.76 13.44 
L 138.24 13.44 
" clip-path="url(#pf646f61ae2)" style="fill: none; stroke: #b2b2b2; stroke-opacity: 0.35; stroke-width: 0.5; stroke-linecap: square"/>
   </g>
   <g id="line2d_5">
    <path d="M 5.76 43.52088 
L 6.123263 43.1076 
L 6.486526 41.98092 
L 7.213052 41.43972 
L 7.576315 42.4926 
L 7.939578 41.79888 
L 8.302841 41.78412 
L 8.666104 42.37452 
L 9.029367 42.3942 
L 9.39263 41.83332 
L 9.755893 42.24168 
L 10.119156 41.84316 
L 10.845682 40.2786 
L 11.208945 40.42128 
L 11.572208 40.71648 
L 12.298735 40.48032 
L 12.661998 40.26384 
L 13.025261 38.97972 
L 13.751787 38.51724 
L 14.11505 38.57628 
L 14.478313 38.04492 
L 14.841576 36.03264 
L 15.204839 34.88136 
L 15.568102 36.92316 
L 15.931365 37.8432 
L 16.294628 37.37088 
L 16.657891 37.53324 
L 17.021154 37.056 
L 17.384417 37.77924 
L 17.74768 38.02032 
L 18.110943 38.45328 
L 18.474206 39.1962 
L 18.837469 40.41636 
L 19.200732 40.97232 
L 19.563995 40.53444 
L 19.927258 39.55536 
L 20.290521 40.24908 
L 20.653784 39.7128 
L 21.017047 38.778 
L 21.38031 38.59104 
L 22.106836 37.794 
L 22.470099 38.82228 
L 22.833362 36.53448 
L 23.196625 35.334 
L 23.923151 37.44468 
L 24.286414 36.90348 
L 24.649677 36.65748 
L 25.376204 38.64516 
L 25.739467 37.2282 
L 26.10273 38.14332 
L 26.465993 35.53572 
L 26.829256 35.04372 
L 27.192519 34.80264 
L 27.555782 37.23804 
L 28.645571 33.67104 
L 29.008834 34.90596 
L 30.098623 35.9736 
L 30.461886 34.36476 
L 30.825149 34.1778 
L 31.188412 35.22084 
L 31.551675 35.11752 
L 31.914938 35.54556 
L 33.36799 32.44104 
L 33.731253 31.83096 
L 34.094516 30.06468 
L 34.457779 30.01056 
L 34.821042 30.291 
L 35.184305 31.16184 
L 35.547568 30.74856 
L 35.910831 29.71536 
L 36.274094 29.37588 
L 36.637357 30.57636 
L 37.00062 30.42876 
L 37.363883 30.79284 
L 37.727147 32.91828 
L 38.09041 33.72024 
L 38.453673 34.05972 
L 38.816936 36.5886 
L 39.180199 34.90104 
L 39.543462 35.10276 
L 39.906725 34.16796 
L 40.269988 33.8826 
L 40.633251 34.43364 
L 41.359777 31.05852 
L 41.72304 31.26024 
L 42.086303 31.92936 
L 42.449566 31.85064 
L 42.812829 31.3242 
L 43.176092 32.84448 
L 43.539355 31.78176 
L 43.902618 32.85924 
L 44.265881 36.8838 
L 44.629144 38.39424 
L 44.992407 35.95392 
L 45.35567 34.53696 
L 45.718933 35.20608 
L 46.445459 37.57752 
L 46.808722 37.90716 
L 47.171985 37.18884 
L 47.535248 37.18392 
L 47.898511 36.89364 
L 48.261774 37.42008 
L 48.625037 38.17284 
L 48.9883 36.687 
L 49.351563 36.42132 
L 49.714826 36.34752 
L 50.078089 35.56032 
L 50.441353 35.72268 
L 50.804616 36.29832 
L 51.167879 36.32292 
L 51.531142 37.61688 
L 51.894405 37.2282 
L 52.257668 37.34628 
L 52.620931 37.23804 
L 52.984194 40.008 
L 53.347457 41.36592 
L 53.71072 40.43604 
L 54.073983 41.44956 
L 54.437246 40.53444 
L 54.800509 41.02152 
L 55.163772 40.22448 
L 55.527035 39.79644 
L 55.890298 41.51844 
L 56.253561 41.66604 
L 56.980087 43.51596 
L 57.34335 43.43724 
L 57.706613 43.71276 
L 58.069876 44.59836 
L 58.433139 43.30932 
L 59.522928 44.88372 
L 59.886191 44.99688 
L 60.249454 44.57868 
L 60.612717 43.5996 
L 60.97598 43.51596 
L 61.339243 43.00428 
L 61.702506 43.2798 
L 62.065769 43.71768 
L 62.792295 44.0916 
L 63.155559 45.11004 
L 63.518822 43.55532 
L 63.882085 42.72876 
L 64.608611 44.27364 
L 65.335137 44.47536 
L 65.6984 44.25888 
L 66.061663 43.64388 
L 66.424926 43.84068 
L 66.788189 43.85052 
L 67.151452 44.36712 
L 67.514715 44.26872 
L 67.877978 44.74104 
L 68.241241 44.98704 
L 68.604504 44.84436 
L 68.967767 45.58728 
L 69.33103 46.0596 
L 69.694293 45.18384 
L 71.147345 45.47904 
L 71.510608 45.65616 
L 71.873871 45.98088 
L 72.600397 45.38556 
L 72.96366 45.31668 
L 73.326923 45.58728 
L 73.690186 45.35604 
L 74.053449 45.40032 
L 74.416712 45.11496 
L 74.779975 44.42124 
L 75.506501 44.18508 
L 76.233028 43.24044 
L 76.596291 43.8702 
L 76.959554 43.60944 
L 77.322817 43.92924 
L 77.68608 43.93416 
L 78.049343 43.46184 
L 78.412606 43.5012 
L 78.775869 42.72384 
L 79.139132 42.51228 
L 79.502395 43.08792 
L 79.865658 42.75828 
L 80.228921 42.90096 
L 80.955447 44.2392 
L 81.31871 45.23304 
L 81.681973 44.77548 
L 82.408499 45.04608 
L 82.771762 45.07068 
L 83.135025 46.1334 
L 83.498288 45.4446 
L 83.861551 45.06084 
L 84.224814 45.33144 
L 84.588077 46.30068 
L 84.95134 46.34496 
L 85.314603 47.89476 
L 85.677866 48.26376 
L 86.041129 47.96364 
L 86.999564 50.04972 
L 87.361271 49.24776 
L 88.820949 49.59708 
L 89.182905 49.80372 
L 89.546058 49.86768 
L 90.249048 49.24776 
L 90.635612 49.48392 
L 90.953244 49.37568 
L 91.361562 49.479 
L 91.724384 49.7004 
L 92.813979 49.49376 
L 93.178335 49.98576 
L 93.51091 49.96608 
L 93.903554 49.7004 
L 94.265198 49.27236 
L 94.627772 49.37076 
L 94.986755 49.68072 
L 95.358271 49.25268 
L 95.717784 49.51344 
L 96.807165 49.09032 
L 98.261874 49.58724 
L 98.622803 49.36092 
L 99.350616 49.45932 
L 99.713177 49.16904 
L 100.446169 49.27236 
L 100.810458 48.87384 
L 101.533398 48.70164 
L 101.896762 49.03128 
L 102.256489 49.1592 
L 102.617624 49.08048 
L 103.350436 49.36584 
L 104.100654 48.90828 
L 104.44128 49.05096 
L 105.164792 49.64628 
L 106.624655 49.59708 
L 106.983134 49.8726 
L 107.706965 49.80864 
L 108.800803 49.83816 
L 109.164654 49.50852 
L 109.526652 49.68564 
L 110.250966 49.48884 
L 110.985872 49.69056 
L 111.346822 49.40028 
L 111.709808 49.58724 
L 112.796423 49.19856 
L 113.164483 49.43472 
L 113.528646 49.50852 
L 115.34034 49.37568 
L 115.709254 49.4052 
L 116.076431 49.29204 
L 116.440455 49.5528 
L 116.802726 49.50852 
L 117.166599 49.64136 
L 117.887823 49.56264 
L 118.258461 49.57248 
L 118.621598 49.42488 
L 118.97686 49.49376 
L 119.709881 49.25268 
L 120.067098 49.24284 
L 120.43169 48.80004 
L 120.802273 48.85416 
L 121.526621 48.63276 
L 121.891612 48.66228 
L 122.254472 49.09524 
L 122.619526 48.99192 
L 123.346838 49.34616 
L 123.713629 49.47408 
L 124.438851 49.54788 
L 124.804183 49.3314 
L 125.164663 49.34616 
L 125.522935 49.51836 
L 126.259993 49.41504 
L 127.346848 49.7742 
L 128.439084 49.61676 
L 129.167409 49.7988 
L 129.896777 50.45808 
L 130.254058 50.59092 
L 130.611737 50.99928 
L 131.347677 50.74344 
L 131.704007 50.62536 
L 132.071037 50.80248 
L 133.527625 50.56632 
L 134.268299 50.23176 
L 134.619991 50.2416 
L 135.353333 50.55156 
L 136.446788 50.217 
L 137.516064 50.59092 
L 137.881189 50.59092 
L 138.24 50.33016 
L 138.24 50.33016 
" clip-path="url(#pf646f61ae2)" style="fill: none; stroke: #bebebe; stroke-width: 0.6; stroke-linecap: round"/>
   </g>
   <g id="line2d_6">
    <path d="M 5.76 41.238 
L 6.486526 41.08056 
L 6.849789 40.61808 
L 7.213052 40.7214 
L 7.576315 41.30688 
L 7.939578 40.11132 
L 8.302841 39.99816 
L 8.666104 40.56888 
L 9.029367 40.51476 
L 9.39263 40.131 
L 9.755893 40.3278 
L 10.119156 39.81612 
L 10.845682 37.46436 
L 11.208945 37.39056 
L 11.572208 37.50372 
L 12.298735 37.01172 
L 12.661998 36.16056 
L 13.025261 34.4976 
L 13.388524 33.69072 
L 14.11505 32.89368 
L 14.478313 31.73256 
L 14.841576 31.68336 
L 15.204839 31.8162 
L 15.568102 32.64276 
L 15.931365 32.0868 
L 16.657891 31.85064 
L 17.021154 30.98964 
L 17.384417 31.53576 
L 17.74768 31.521 
L 18.110943 31.38816 
L 18.474206 32.17044 
L 18.837469 33.68088 
L 19.200732 34.28604 
L 19.563995 33.58248 
L 19.927258 32.0376 
L 20.290521 32.76576 
L 20.653784 32.259 
L 21.017047 30.65508 
L 21.38031 29.93676 
L 21.743573 28.14588 
L 22.470099 28.40664 
L 22.833362 25.73508 
L 23.196625 24.62316 
L 23.559888 26.10408 
L 23.923151 26.97984 
L 24.286414 27.00936 
L 24.649677 26.58132 
L 25.012941 27.7818 
L 25.376204 29.49888 
L 25.739467 27.68832 
L 26.10273 28.44108 
L 26.465993 24.16068 
L 26.829256 24.55428 
L 27.192519 24.51984 
L 27.555782 27.32916 
L 27.919045 25.7646 
L 28.282308 26.48784 
L 28.645571 26.43372 
L 29.008834 27.44724 
L 29.73536 27.27504 
L 30.098623 27.8802 
L 30.461886 27.72276 
L 30.825149 26.84208 
L 31.188412 27.91956 
L 31.551675 27.8556 
L 31.914938 28.09668 
L 32.278201 27.87528 
L 33.004727 27.83592 
L 33.36799 27.57024 
L 33.731253 26.77812 
L 34.094516 25.01184 
L 34.821042 25.71048 
L 35.184305 26.31564 
L 35.547568 26.45832 
L 35.910831 25.8384 
L 36.274094 25.84824 
L 36.637357 26.6994 
L 37.00062 26.62068 
L 37.363883 26.8224 
L 37.727147 28.61328 
L 38.453673 28.97244 
L 38.816936 30.99456 
L 39.180199 29.76456 
L 39.543462 29.8974 
L 39.906725 29.02164 
L 40.269988 28.50012 
L 40.633251 29.00688 
L 41.359777 26.601 
L 41.72304 26.3796 
L 42.086303 26.5764 
L 42.449566 26.3796 
L 42.812829 25.1496 
L 43.176092 26.81256 
L 43.539355 26.29596 
L 43.902618 27.41772 
L 44.265881 31.19136 
L 44.629144 31.80144 
L 44.992407 28.89864 
L 45.35567 28.28364 
L 46.445459 30.80268 
L 46.808722 31.22088 
L 47.171985 30.8076 
L 47.535248 30.13356 
L 47.898511 30.17784 
L 48.625037 31.42752 
L 48.9883 31.04376 
L 49.351563 30.49764 
L 49.714826 30.3648 
L 50.078089 28.88388 
L 50.441353 29.15448 
L 50.804616 30.15324 
L 51.531142 31.4226 
L 52.257668 30.9306 
L 52.620931 30.66 
L 53.347457 34.99944 
L 53.71072 34.07448 
L 54.073983 34.9158 
L 54.437246 34.02528 
L 54.800509 34.26144 
L 55.163772 33.0216 
L 55.527035 33.10524 
L 55.890298 34.1532 
L 56.253561 34.2024 
L 56.980087 36.34752 
L 57.34335 35.89488 
L 58.069876 36.94776 
L 58.433139 36.2688 
L 58.796402 36.97236 
L 59.159665 38.286 
L 59.522928 38.76324 
L 59.886191 38.73864 
L 60.249454 38.51724 
L 60.612717 37.42992 
L 60.97598 37.42008 
L 61.339243 36.90348 
L 61.702506 36.98712 
L 62.065769 36.86412 
L 62.429032 37.16424 
L 62.792295 37.14948 
L 63.155559 38.52216 
L 63.882085 35.71776 
L 64.245348 36.15564 
L 64.608611 36.93792 
L 65.335137 36.72636 
L 65.6984 36.21468 
L 66.061663 34.8174 
L 66.424926 34.7928 
L 66.788189 35.42748 
L 67.151452 36.49512 
L 67.514715 36.28356 
L 67.877978 36.6378 
L 68.241241 37.3512 
L 68.604504 37.3512 
L 68.967767 38.31552 
L 69.33103 38.32536 
L 69.694293 37.26264 
L 70.057556 37.26264 
L 70.420819 37.09044 
L 70.784082 37.06092 
L 71.147345 37.34628 
L 71.510608 37.48404 
L 71.873871 37.77924 
L 72.600397 37.45944 
L 73.326923 37.56276 
L 73.690186 37.31184 
L 74.053449 37.33644 
L 74.416712 37.09536 
L 74.779975 36.23928 
L 75.506501 36.11628 
L 76.233028 35.0142 
L 76.596291 35.93424 
L 76.959554 36.36228 
L 77.322817 36.50988 
L 77.68608 36.5148 
L 78.049343 36.25404 
L 78.412606 36.46068 
L 78.775869 34.83708 
L 79.139132 34.57632 
L 79.865658 35.00436 
L 80.228921 34.93056 
L 80.592184 35.088 
L 80.955447 35.78664 
L 81.31871 37.55292 
L 81.681973 37.26756 
L 82.045236 37.46436 
L 82.771762 37.45944 
L 83.135025 38.41392 
L 83.861551 36.95268 
L 84.224814 37.05108 
L 84.588077 38.37948 
L 84.95134 39.20604 
L 85.314603 41.03136 
L 85.677866 42.26628 
L 86.041129 41.73492 
L 86.347805 42.23676 
L 86.999564 44.89356 
L 87.361271 43.6242 
L 88.093103 43.53072 
L 88.458439 43.72752 
L 89.182905 44.436 
L 89.546058 44.49012 
L 89.904953 43.81608 
L 90.249048 43.7226 
L 90.635612 44.5344 
L 90.953244 44.19 
L 91.361562 44.21952 
L 92.085523 44.51472 
L 92.813979 44.3868 
L 93.178335 45.174 
L 93.51091 45.23796 
L 93.903554 44.81484 
L 94.265198 43.821 
L 94.627772 44.01288 
L 94.986755 44.66232 
L 95.358271 43.93908 
L 95.717784 44.39664 
L 96.081892 44.12112 
L 96.44312 44.33268 
L 96.807165 43.3044 
L 97.170256 43.6242 
L 97.530731 44.29824 
L 97.897522 44.53932 
L 98.261874 44.30808 
L 98.622803 43.8702 
L 98.985923 44.00304 
L 99.350616 43.97844 
L 99.713177 43.41756 
L 100.446169 43.48644 
L 101.167364 41.73984 
L 101.533398 41.7546 
L 102.256489 43.14204 
L 102.617624 43.083 
L 102.98632 43.35852 
L 103.350436 43.78164 
L 103.710336 43.21584 
L 104.100654 42.9354 
L 104.44128 43.10268 
L 105.164792 44.25396 
L 106.258277 43.74228 
L 106.624655 43.46676 
L 107.346813 43.79148 
L 108.075698 43.77672 
L 108.439898 43.2552 
L 108.800803 43.40772 
L 109.164654 42.49752 
L 109.526652 42.90588 
L 109.893257 42.8616 
L 110.250966 42.41388 
L 110.985872 42.79764 
L 111.346822 41.57256 
L 111.709808 41.86284 
L 112.074643 41.63652 
L 112.437166 41.85792 
L 112.796423 41.22324 
L 113.528646 42.1482 
L 113.890315 41.96616 
L 114.252451 41.59224 
L 114.981412 41.99076 
L 115.34034 41.91696 
L 115.709254 41.98584 
L 116.076431 41.41512 
L 116.440455 42.15312 
L 116.802726 41.96124 
L 117.166599 42.43848 
L 117.887823 42.02028 
L 118.258461 42.0252 
L 118.621598 41.40528 
L 119.346522 41.52336 
L 120.067098 42.1974 
L 120.43169 41.8776 
L 121.168404 41.8038 
L 121.526621 41.976 
L 121.891612 42.00552 
L 122.254472 42.3942 
L 122.619526 42.27612 
L 123.713629 43.31424 
L 124.074289 43.2306 
L 124.438851 43.39296 
L 124.804183 43.16172 
L 125.164663 43.24536 
L 125.522935 43.71768 
L 125.89195 43.33392 
L 126.984745 43.67832 
L 127.346848 44.32776 
L 127.71038 44.13588 
L 128.068404 44.16048 
L 128.439084 43.96368 
L 128.80772 44.2392 
L 129.167409 44.19984 
L 129.534759 45.16908 
L 130.254058 46.00548 
L 130.611737 47.57004 
L 131.347677 46.64016 
L 131.704007 46.34496 
L 132.071037 46.82712 
L 132.80112 46.51716 
L 133.161726 46.5516 
L 133.527625 46.46304 
L 134.619991 45.6414 
L 134.981514 46.09404 
L 135.353333 46.3302 
L 136.446788 46.035 
L 136.788335 46.14324 
L 137.881189 47.38308 
L 138.24 47.14692 
L 138.24 47.14692 
" clip-path="url(#pf646f61ae2)" style="fill: none; stroke: #4a8dff; stroke-width: 0.6; stroke-linecap: round"/>
   </g>
   <g id="line2d_7">
    <path d="M 5.76 32.71164 
L 6.486526 32.53944 
L 6.849789 32.013 
L 7.576315 33.3906 
L 7.939578 31.80144 
L 8.302841 31.41768 
L 8.666104 32.19012 
L 9.029367 32.10156 
L 9.39263 31.60956 
L 9.755893 32.0622 
L 10.119156 31.73748 
L 10.482419 30.56652 
L 10.845682 28.31808 
L 11.208945 27.48168 
L 11.572208 27.55548 
L 11.935471 26.71908 
L 12.298735 26.36484 
L 12.661998 27.42756 
L 13.388524 26.55672 
L 13.751787 27.27504 
L 14.11505 27.31932 
L 14.478313 27.63912 
L 14.841576 27.52596 
L 15.204839 26.3058 
L 15.568102 26.96016 
L 15.931365 27.09792 
L 16.294628 27.49644 
L 16.657891 27.2898 
L 17.021154 26.57148 
L 17.384417 27.27012 
L 18.110943 27.35376 
L 18.837469 29.62188 
L 19.200732 29.96136 
L 19.563995 29.14956 
L 19.927258 28.68216 
L 20.290521 29.184 
L 20.653784 28.7412 
L 21.017047 27.5358 
L 21.38031 27.91956 
L 21.743573 28.00812 
L 22.106836 26.64528 
L 22.470099 26.88636 
L 22.833362 26.1828 
L 23.196625 24.52476 
L 23.559888 27.0684 
L 23.923151 27.59484 
L 24.649677 27.49644 
L 25.012941 28.13112 
L 25.376204 29.8482 
L 25.739467 29.12004 
L 26.10273 30.03024 
L 26.465993 27.84576 
L 27.192519 29.54316 
L 27.555782 31.13232 
L 27.919045 30.31068 
L 28.282308 30.62064 
L 28.645571 29.97612 
L 29.008834 31.97364 
L 29.372097 31.82112 
L 29.73536 32.0868 
L 30.098623 31.63416 
L 30.461886 30.6354 
L 30.825149 30.37464 
L 31.188412 30.86172 
L 31.551675 30.89616 
L 31.914938 31.11756 
L 32.641464 30.22212 
L 33.004727 30.45828 
L 33.36799 29.2578 
L 33.731253 28.50504 
L 34.094516 28.18032 
L 34.457779 28.2738 
L 34.821042 28.569 
L 35.184305 28.55424 
L 35.547568 27.8802 
L 35.910831 28.03272 
L 36.274094 27.69324 
L 36.637357 28.42632 
L 37.00062 28.3968 
L 37.363883 28.60344 
L 37.727147 29.88756 
L 38.09041 30.22212 
L 38.453673 29.58252 
L 38.816936 31.73256 
L 39.180199 31.36356 
L 39.543462 31.39308 
L 40.269988 29.09544 
L 40.633251 29.2332 
L 40.996514 27.02412 
L 41.72304 25.16928 
L 42.086303 25.10532 
L 42.812829 23.92452 
L 43.176092 25.53336 
L 43.539355 24.62808 
L 43.902618 25.4448 
L 44.265881 29.64156 
L 44.629144 30.80268 
L 44.992407 28.65756 
L 45.35567 28.6428 
L 46.082196 30.87156 
L 46.445459 32.17044 
L 46.808722 32.97732 
L 47.171985 32.628 
L 47.535248 31.90476 
L 47.898511 30.92076 
L 48.261774 31.96872 
L 48.625037 32.39676 
L 48.9883 31.19628 
L 49.714826 30.42384 
L 50.078089 29.0118 
L 50.441353 29.15448 
L 50.804616 29.76456 
L 51.167879 31.2012 
L 51.531142 32.09172 
L 51.894405 31.43244 
L 52.620931 30.90108 
L 53.347457 35.35368 
L 53.71072 34.24668 
L 54.073983 35.5062 
L 54.437246 34.48284 
L 54.800509 35.02896 
L 55.163772 33.8334 
L 55.527035 33.243 
L 55.890298 34.69932 
L 56.616824 36.2934 
L 56.980087 38.901 
L 57.34335 38.37948 
L 57.706613 38.92068 
L 58.069876 40.09164 
L 58.433139 39.70788 
L 58.796402 40.4262 
L 59.159665 42.75336 
L 59.522928 43.54548 
L 59.886191 43.72752 
L 60.612717 41.976 
L 60.97598 42.42864 
L 61.339243 40.86408 
L 61.702506 40.47048 
L 62.792295 40.89852 
L 63.155559 42.9354 
L 63.518822 40.43604 
L 63.882085 39.31428 
L 64.245348 40.04244 
L 64.608611 41.43972 
L 64.971874 41.47416 
L 65.335137 41.02152 
L 65.6984 40.7952 
L 66.061663 39.75708 
L 66.424926 40.11132 
L 66.788189 39.87024 
L 67.151452 40.94772 
L 67.514715 40.97232 
L 68.241241 42.87144 
L 68.604504 42.17772 
L 68.967767 43.04364 
L 69.33103 43.34868 
L 69.694293 42.03504 
L 70.420819 41.8038 
L 70.784082 41.84316 
L 71.147345 42.37944 
L 71.510608 42.26628 
L 71.873871 42.468 
L 72.237134 42.42864 
L 72.600397 42.18264 
L 72.96366 42.1728 
L 73.326923 42.50244 
L 73.690186 41.88252 
L 74.053449 42.32532 
L 74.779975 41.13468 
L 75.506501 40.42128 
L 75.869765 39.16176 
L 76.233028 39.28968 
L 76.596291 40.48032 
L 77.68608 40.88376 
L 78.412606 40.53936 
L 78.775869 38.50248 
L 79.139132 37.63656 
L 79.502395 38.34012 
L 79.865658 38.37456 
L 80.228921 38.5812 
L 80.955447 39.8358 
L 81.31871 41.93172 
L 81.681973 41.42004 
L 82.408499 41.39052 
L 82.771762 41.5086 
L 83.135025 42.80256 
L 83.498288 41.93664 
L 83.861551 41.49384 
L 84.224814 41.51352 
L 84.588077 43.78164 
L 84.95134 43.9932 
L 85.314603 46.66968 
L 85.677866 47.55036 
L 86.041129 46.64508 
L 86.636485 48.89352 
L 86.999564 49.84308 
L 87.361271 49.00176 
L 87.732838 49.233 
L 88.093103 48.97716 
L 88.820949 49.36092 
L 89.546058 49.58724 
L 89.904953 49.28712 
L 90.249048 49.16904 
L 90.635612 49.39044 
L 90.953244 49.29696 
L 91.724384 49.55772 
L 92.813979 49.41996 
L 93.178335 49.8234 
L 93.51091 49.86768 
L 93.903554 49.72992 
L 94.265198 49.39536 
L 94.986755 49.6758 
L 95.358271 49.47408 
L 95.717784 49.60692 
L 96.081892 49.37568 
L 96.44312 49.36584 
L 96.807165 48.6672 
L 97.897522 49.54788 
L 98.261874 49.5282 
L 98.622803 49.09032 
L 99.350616 49.2084 
L 99.713177 48.93288 
L 100.446169 48.89844 
L 101.167364 48.1998 
L 101.533398 48.28344 
L 101.896762 48.88368 
L 102.256489 49.04604 
L 102.617624 49.00176 
L 103.350436 49.38552 
L 103.710336 49.04112 
L 104.100654 48.92796 
L 104.44128 48.987 
L 105.164792 49.66104 
L 106.624655 49.40028 
L 106.983134 49.56756 
L 107.706965 49.56264 
L 108.075698 49.53312 
L 108.439898 49.25268 
L 108.800803 49.29696 
L 109.164654 48.89352 
L 109.526652 48.96732 
L 110.250966 48.5934 
L 110.620746 48.84432 
L 110.985872 48.95748 
L 111.346822 48.30804 
L 111.709808 48.34248 
L 112.074643 48.21456 
L 112.437166 48.26376 
L 112.796423 47.41752 
L 113.164483 48.05712 
L 113.528646 48.26376 
L 113.890315 48.01776 
L 114.252451 47.23548 
L 115.34034 47.1666 
L 115.709254 47.31912 
L 116.076431 46.49256 
L 116.440455 47.64876 
L 116.802726 47.5356 
L 117.166599 48.0276 
L 117.887823 46.81728 
L 118.258461 46.92552 
L 118.621598 45.85788 
L 119.346522 45.29208 
L 119.709881 45.58728 
L 120.067098 46.2564 
L 120.43169 45.7152 
L 121.891612 45.42492 
L 122.254472 46.38432 
L 122.619526 45.57744 
L 122.978151 46.51716 
L 123.713629 47.54544 
L 124.438851 47.66844 
L 124.804183 47.05344 
L 125.164663 47.22564 
L 125.522935 48.07188 
L 126.259993 47.37324 
L 126.984745 48.07188 
L 127.346848 48.59832 
L 127.71038 48.52452 
L 128.068404 48.5688 
L 128.439084 48.38676 
L 128.80772 48.55404 
L 129.896777 49.93656 
L 130.254058 49.98084 
L 130.611737 50.3646 
L 131.347677 50.07432 
L 131.704007 49.99068 
L 132.071037 50.217 
L 132.80112 49.98084 
L 133.527625 49.87752 
L 133.902963 49.69548 
L 134.619991 49.7004 
L 135.353333 50.06448 
L 136.072892 49.89228 
L 136.788335 49.9464 
L 138.24 50.31048 
L 138.24 50.31048 
" clip-path="url(#pf646f61ae2)" style="fill: none; stroke: #f5841e; stroke-width: 0.7; stroke-linecap: round"/>
   </g>
  </g>
 </g>
 <defs>
  <clipPath id="pf646f61ae2">
   <rect x="5.76" y="3.6" width="132.48" height="49.2"/>
  </clipPath>
 </defs>
</svg>
