<?xml version="1.0" encoding="utf-8" standalone="no"?>
<!DOCTYPE svg PUBLIC "-//W3C//DTD SVG 1.1//EN"
  "http://www.w3.org/Graphics/SVG/1.1/DTD/svg11.dtd">
<svg xmlns:xlink="http://www.w3.org/1999/xlink" width="144pt" height="60pt" viewBox="0 0 144 60" xmlns="http://www.w3.org/2000/svg" version="1.1">
  <desc id="nav-meta">{"window":"2w","count":4,"labels":["13 Jan","20 Jan","22 Jan","27 Jan"],"idxs":[0,47,94,141]}</desc>

 <metadata>
  <rdf:RDF xmlns:dc="http://purl.org/dc/elements/1.1/" xmlns:cc="http://creativecommons.org/ns#" xmlns:rdf="http://www.w3.org/1999/02/22-rdf-syntax-ns#">
   <cc:Work>
    <dc:type rdf:resource="http://purl.org/dc/dcmitype/StillImage"/>
    <dc:date>2026-01-27T20:55:50.004105</dc:date>
    <dc:format>image/svg+xml</dc:format>
    <dc:creator>
     <cc:Agent>
      <dc:title>Matplotlib v3.10.8, https://matplotlib.org/</dc:title>
     </cc:Agent>
    </dc:creator>
   </cc:Work>
  </rdf:RDF>
 </metadata>
 <defs>
  <style type="text/css">*{stroke-linejoin: round; stroke-linecap: butt}</style>
 </defs>
 <g id="figure_1">
  <g id="patch_1">
   <path d="M 0 60 
L 144 60 
L 144 0 
L 0 0 
L 0 60 
z
" style="fill: none; opacity: 0"/>
  </g>
  <g id="axes_1">
   <g id="patch_2">
    <path d="M 5.76 52.8 
L 138.24 52.8 
L 138.24 3.6 
L 5.76 3.6 
L 5.76 52.8 
z
" style="fill: none"/>
   </g>
   <g id="matplotlib.axis_1"/>
   <g id="matplotlib.axis_2"/>
   <g id="line2d_1">
    <path d="M 5.76 42.96 
L 138.24 42.96 
" clip-path="url(#pa7513293a2)" style="fill: none; stroke: #b2b2b2; stroke-opacity: 0.35; stroke-width: 0.5; stroke-linecap: square"/>
   </g>
   <g id="line2d_2">
    <path d="M 5.76 33.12 
L 138.24 33.12 
" clip-path="url(#pa7513293a2)" style="fill: none; stroke: #b2b2b2; stroke-opacity: 0.35; stroke-width: 0.5; stroke-linecap: square"/>
   </g>
   <g id="line2d_3">
    <path d="M 5.76 23.28 
L 138.24 23.28 
" clip-path="url(#pa7513293a2)" style="fill: none; stroke: #b2b2b2; stroke-opacity: 0.35; stroke-width: 0.5; stroke-linecap: square"/>
   </g>
   <g id="line2d_4">
    <path d="M 5.76 13.44 
L 138.24 13.44 
" clip-path="url(#pa7513293a2)" style="fill: none; stroke: #b2b2b2; stroke-opacity: 0.35; stroke-width: 0.5; stroke-linecap: square"/>
   </g>
   <g id="line2d_5">
    <path d="M 6.226479 37.68576 
L 10.866586 37.377752 
L 13.650651 37.26756 
L 15.506693 37.1298 
L 16.898726 37.4988 
L 18.058753 37.394699 
L 18.986774 37.34628 
L 21.306828 37.429399 
L 22.234849 37.85304 
L 24.322897 37.780802 
L 25.250919 37.671 
L 26.17894 37.587386 
L 27.106962 37.45452 
L 35.459155 37.55456 
L 36.619182 37.68576 
L 43.579343 37.789627 
L 44.507364 38.8272 
L 47.987445 38.74192 
L 48.915466 38.70912 
L 49.611482 38.788257 
L 50.539504 38.86656 
L 51.003514 38.86656 
L 52.163541 39.41268 
L 53.323568 39.493222 
L 54.25159 39.57996 
L 60.74774 39.503843 
L 61.443756 39.3438 
L 62.835788 39.233842 
L 63.76381 39.18144 
L 64.691831 39.26672 
L 65.619852 39.30936 
L 70.027954 39.372956 
L 70.955976 39.52092 
L 100.188652 39.586286 
L 100.884668 39.64392 
L 102.972716 39.729825 
L 103.900738 39.76692 
L 105.988786 39.656962 
L 111.092904 39.584021 
L 113.644963 39.639 
L 119.909108 39.74724 
L 121.997156 39.87378 
L 122.925178 40.75584 
L 123.853199 40.717573 
L 124.781221 40.27368 
L 127.79729 40.167835 
L 128.957317 40.06212 
L 136.8455 40.040279 
L 137.773521 39.63408 
L 137.773521 39.63408 
" clip-path="url(#pa7513293a2)" style="fill: none; stroke: #bebebe; stroke-width: 0.6; stroke-linecap: round"/>
   </g>
   <g id="line2d_6">
    <path d="M 6.226479 32.64276 
L 7.1545 32.64276 
L 8.082522 31.727588 
L 9.706559 31.760909 
L 11.562602 31.7733 
L 12.954634 31.707361 
L 13.882656 31.46688 
L 14.810677 31.561844 
L 15.738699 31.9392 
L 16.66672 31.86048 
L 17.594742 31.52592 
L 19.218779 31.635253 
L 20.610812 32.084379 
L 22.234849 32.070322 
L 23.162871 31.926653 
L 24.554903 32.04744 
L 31.283058 31.937091 
L 34.299128 31.867613 
L 38.011214 31.864567 
L 41.259289 31.68336 
L 41.7233 31.726234 
L 42.651321 32.585386 
L 45.20338 32.584813 
L 47.755439 32.56896 
L 48.451455 32.642942 
L 49.379477 32.85432 
L 50.075493 32.85432 
L 51.003514 33.42202 
L 52.163541 33.53984 
L 53.091563 33.9072 
L 54.483595 34.010624 
L 55.411616 34.04988 
L 56.339638 34.14828 
L 57.267659 34.18764 
L 61.443756 34.112747 
L 62.371777 33.84816 
L 63.995815 33.956869 
L 69.099933 34.258733 
L 69.795949 34.45332 
L 97.172582 34.354009 
L 98.564614 34.31064 
L 99.956647 34.55664 
L 106.452797 34.451914 
L 107.844829 34.375381 
L 111.092904 34.33032 
L 117.125044 34.43856 
L 121.069135 34.657149 
L 121.997156 35.47176 
L 122.925178 35.437606 
L 123.853199 35.06832 
L 124.781221 35.038071 
L 125.709242 34.65996 
L 130.81336 34.576789 
L 131.509376 34.46808 
L 132.901408 34.5714 
L 133.82943 34.60092 
L 135.917478 34.617919 
L 136.8455 33.9072 
L 137.773521 33.9072 
L 137.773521 33.9072 
" clip-path="url(#pa7513293a2)" style="fill: none; stroke: #4a8dff; stroke-width: 0.7; stroke-linecap: round"/>
   </g>
   <g id="line2d_7">
    <path d="M 6.226479 36.86904 
L 7.386506 36.787613 
L 8.314527 36.53448 
L 11.098592 36.51808 
L 12.026613 36.08184 
L 12.954634 35.973548 
L 13.882656 35.57016 
L 14.578672 35.57016 
L 15.970704 36.12612 
L 16.66672 36.058646 
L 17.594742 35.77188 
L 18.522763 35.835606 
L 20.610812 36.564807 
L 22.69886 36.43319 
L 23.162871 36.403436 
L 24.322897 36.60336 
L 31.051053 36.498348 
L 32.443085 36.468568 
L 39.867257 36.615881 
L 41.491294 36.50004 
L 41.7233 36.55252 
L 42.651321 37.597538 
L 44.275359 37.49388 
L 48.451455 37.567862 
L 49.379477 37.87764 
L 50.075493 37.87764 
L 51.23552 38.37948 
L 52.163541 38.438051 
L 53.091563 38.62548 
L 54.019584 38.691523 
L 54.947606 38.91576 
L 56.339638 39.000103 
L 57.267659 39.03384 
L 60.051724 38.929531 
L 60.515734 38.84196 
L 61.907767 38.758008 
L 62.835788 38.71896 
L 68.635922 38.78292 
L 69.331938 39.016008 
L 69.795949 39.147 
L 76.988115 39.040218 
L 80.004185 38.855314 
L 84.876298 38.976284 
L 90.676432 39.113107 
L 91.836459 39.052349 
L 92.996486 39.029258 
L 95.084534 39.06815 
L 96.476566 39.01429 
L 98.79662 38.886787 
L 99.724641 39.11256 
L 102.044695 39.216244 
L 103.204722 39.2454 
L 104.596754 39.011531 
L 105.988786 39.05844 
L 109.932877 38.891472 
L 113.644963 39.037901 
L 117.357049 39.254589 
L 118.517076 39.51108 
L 119.677103 39.427987 
L 120.605124 39.37332 
L 121.069135 39.466097 
L 121.997156 40.34748 
L 122.925178 40.309161 
L 123.853199 39.89484 
L 125.013226 39.810679 
L 125.941247 39.63408 
L 129.189323 39.733209 
L 129.885339 39.78168 
L 130.349349 39.761479 
L 131.277371 39.30444 
L 132.437398 39.380323 
L 133.365419 39.57504 
L 134.525446 39.674533 
L 135.453467 39.76692 
L 135.917478 39.759058 
L 136.8455 39.024 
L 137.773521 39.024 
L 137.773521 39.024 
" clip-path="url(#pa7513293a2)" style="fill: none; stroke: #f5841e; stroke-width: 0.8; stroke-linecap: round"/>
   </g>
  </g>
 </g>
 <defs>
  <clipPath id="pa7513293a2">
   <rect x="5.76" y="3.6" width="132.48" height="49.2"/>
  </clipPath>
 </defs>
</svg>
