<?xml version="1.0" encoding="utf-8" standalone="no"?>
<!DOCTYPE svg PUBLIC "-//W3C//DTD SVG 1.1//EN"
  "http://www.w3.org/Graphics/SVG/1.1/DTD/svg11.dtd">
<svg xmlns:xlink="http://www.w3.org/1999/xlink" width="144pt" height="60pt" viewBox="0 0 144 60" xmlns="http://www.w3.org/2000/svg" version="1.1">
  <desc id="nav-meta">{"window":"1y","count":4,"labels":["19.04","18.08","17.12","18.04"],"tick_utc":["2025-04-19T12:00:00Z","2025-08-18T12:00:00Z","2025-12-17T12:00:00Z","2026-04-18T03:39:51Z"]}</desc>

 <metadata>
  <rdf:RDF xmlns:dc="http://purl.org/dc/elements/1.1/" xmlns:cc="http://creativecommons.org/ns#" xmlns:rdf="http://www.w3.org/1999/02/22-rdf-syntax-ns#">
   <cc:Work>
    <dc:type rdf:resource="http://purl.org/dc/dcmitype/StillImage"/>
    <dc:date>2026-04-18T19:28:40.446399</dc:date>
    <dc:format>image/svg+xml</dc:format>
    <dc:creator>
     <cc:Agent>
      <dc:title>Matplotlib v3.10.8, https://matplotlib.org/</dc:title>
     </cc:Agent>
    </dc:creator>
   </cc:Work>
  </rdf:RDF>
 </metadata>
 <defs>
  <style type="text/css">*{stroke-linejoin: round; stroke-linecap: butt}</style>
 </defs>
 <g id="figure_1">
  <g id="patch_1">
   <path d="M 0 60 
L 144 60 
L 144 0 
L 0 0 
L 0 60 
z
" style="fill: none; opacity: 0"/>
  </g>
  <g id="axes_1">
   <g id="patch_2">
    <path d="M 5.76 52.8 
L 138.24 52.8 
L 138.24 3.6 
L 5.76 3.6 
L 5.76 52.8 
z
" style="fill: none"/>
   </g>
   <g id="matplotlib.axis_1"/>
   <g id="matplotlib.axis_2"/>
   <g id="line2d_1">
    <path d="M 5.76 42.96 
L 138.24 42.96 
" clip-path="url(#p0f0c0bd367)" style="fill: none; stroke: #b2b2b2; stroke-opacity: 0.35; stroke-width: 0.5; stroke-linecap: square"/>
   </g>
   <g id="line2d_2">
    <path d="M 5.76 33.12 
L 138.24 33.12 
" clip-path="url(#p0f0c0bd367)" style="fill: none; stroke: #b2b2b2; stroke-opacity: 0.35; stroke-width: 0.5; stroke-linecap: square"/>
   </g>
   <g id="line2d_3">
    <path d="M 5.76 23.28 
L 138.24 23.28 
" clip-path="url(#p0f0c0bd367)" style="fill: none; stroke: #b2b2b2; stroke-opacity: 0.35; stroke-width: 0.5; stroke-linecap: square"/>
   </g>
   <g id="line2d_4">
    <path d="M 5.76 13.44 
L 138.24 13.44 
" clip-path="url(#p0f0c0bd367)" style="fill: none; stroke: #b2b2b2; stroke-opacity: 0.35; stroke-width: 0.5; stroke-linecap: square"/>
   </g>
   <g id="line2d_5">
    <path d="M 5.76 44.17032 
L 6.124304 43.43232 
L 6.852911 43.86528 
L 7.217215 42.23676 
L 7.945822 41.7792 
L 9.038733 42.31056 
L 9.403037 42.345 
L 9.76734 42.5418 
L 10.131644 42.37944 
L 10.495948 41.98584 
L 10.860251 42.345 
L 11.224555 42.49752 
L 11.588859 42.86652 
L 11.953162 42.49752 
L 12.68177 42.44832 
L 13.046073 40.33272 
L 13.410377 39.12732 
L 13.774681 38.52216 
L 14.138984 39.10272 
L 14.503288 38.901 
L 14.867592 37.6464 
L 15.596199 39.639 
L 16.324806 40.008 
L 16.68911 39.27492 
L 17.053413 39.90468 
L 17.417717 39.6882 
L 18.146324 38.22696 
L 18.510628 38.901 
L 18.874932 38.69436 
L 19.603539 38.86164 
L 19.967843 38.62056 
L 20.69645 39.88992 
L 21.060754 41.23308 
L 22.153665 41.17404 
L 22.882272 41.62176 
L 23.246576 42.79272 
L 23.610879 42.30564 
L 24.339487 41.7546 
L 24.70379 40.62792 
L 25.068094 40.131 
L 25.432398 40.6476 
L 25.796701 41.73492 
L 26.525309 42.76812 
L 26.889612 41.73492 
L 27.253916 41.89728 
L 27.61822 42.345 
L 27.982523 42.5664 
L 28.346827 42.46308 
L 29.075434 44.20476 
L 29.439738 44.45076 
L 29.804042 42.7632 
L 30.168345 42.63036 
L 30.532649 42.94524 
L 30.896953 43.52088 
L 31.261256 43.1076 
L 31.62556 41.98092 
L 32.354167 41.43972 
L 32.718471 42.4926 
L 33.082775 41.79888 
L 33.447078 41.78412 
L 33.811382 42.37452 
L 34.175685 42.3942 
L 34.539989 41.83332 
L 34.904293 42.24168 
L 35.268596 41.84316 
L 35.997204 40.2786 
L 36.361507 40.42128 
L 36.725811 40.71648 
L 37.454418 40.48032 
L 37.818722 40.26384 
L 38.183026 38.97972 
L 38.911633 38.51724 
L 39.275937 38.57628 
L 39.64024 38.04492 
L 40.004544 36.03264 
L 40.368848 34.88136 
L 40.733151 36.92316 
L 41.097455 37.8432 
L 41.461759 37.37088 
L 41.826062 37.53324 
L 42.190366 37.056 
L 42.55467 37.77924 
L 42.918973 38.02032 
L 43.283277 38.45328 
L 43.647581 39.1962 
L 44.011884 40.41636 
L 44.376188 40.97232 
L 44.740492 40.53444 
L 45.104795 39.55536 
L 45.469099 40.24908 
L 45.833403 39.7128 
L 46.197706 38.778 
L 46.56201 38.59104 
L 47.290617 37.794 
L 47.654921 38.82228 
L 48.019225 36.53448 
L 48.383528 35.334 
L 49.112136 37.44468 
L 49.476439 36.90348 
L 49.840743 36.65748 
L 50.56935 38.64516 
L 50.933654 37.2282 
L 51.297958 38.14332 
L 51.662261 35.53572 
L 52.026565 35.04372 
L 52.390868 34.80264 
L 52.755172 37.23804 
L 53.848083 33.67104 
L 54.212387 34.90596 
L 55.305298 35.9736 
L 55.669601 34.36476 
L 56.033905 34.1778 
L 56.398209 35.22084 
L 56.762512 35.11752 
L 57.126816 35.54556 
L 58.584031 32.44104 
L 58.948334 31.83096 
L 59.312638 30.06468 
L 59.676942 30.01056 
L 60.041245 30.291 
L 60.405549 31.16184 
L 60.769853 30.74856 
L 61.134156 29.71536 
L 61.49846 29.37588 
L 61.862764 30.57636 
L 62.227067 30.42876 
L 62.591371 30.79284 
L 62.955675 32.91828 
L 63.319978 33.72024 
L 63.684282 34.05972 
L 64.048586 36.5886 
L 64.412889 34.90104 
L 64.777193 35.10276 
L 65.141497 34.16796 
L 65.5058 33.8826 
L 65.870104 34.43364 
L 66.598711 31.05852 
L 66.963015 31.26024 
L 67.327319 31.92936 
L 67.691622 31.85064 
L 68.055926 31.3242 
L 68.42023 32.84448 
L 68.784533 31.78176 
L 69.148837 32.85924 
L 69.513141 36.8838 
L 69.877444 38.39424 
L 70.241748 35.95392 
L 70.606051 34.53696 
L 70.970355 35.20608 
L 71.698962 37.57752 
L 72.063266 37.90716 
L 72.42757 37.18884 
L 72.791873 37.18392 
L 73.156177 36.89364 
L 73.520481 37.42008 
L 73.884784 38.17284 
L 74.249088 36.687 
L 74.613392 36.42132 
L 74.977695 36.34752 
L 75.341999 35.56032 
L 75.706303 35.72268 
L 76.070606 36.29832 
L 76.43491 36.32292 
L 76.799214 37.61688 
L 77.163517 37.2282 
L 77.527821 37.34628 
L 77.892125 37.23804 
L 78.256428 40.008 
L 78.620732 41.36592 
L 78.985036 40.43604 
L 79.349339 41.44956 
L 79.713643 40.53444 
L 80.077947 41.02152 
L 80.44225 40.22448 
L 80.806554 39.79644 
L 81.170858 41.51844 
L 81.535161 41.66604 
L 82.263769 43.51596 
L 82.628072 43.43724 
L 82.992376 43.71276 
L 83.35668 44.59836 
L 83.720983 43.30932 
L 84.813894 44.88372 
L 85.178198 44.99688 
L 85.542502 44.57868 
L 85.906805 43.5996 
L 86.271109 43.51596 
L 86.635413 43.00428 
L 86.999716 43.2798 
L 87.36402 43.71768 
L 88.092627 44.0916 
L 88.456931 45.11004 
L 88.821235 43.55532 
L 89.185538 42.72876 
L 89.914145 44.27364 
L 90.642753 44.47536 
L 91.007056 44.25888 
L 91.37136 43.64388 
L 91.735664 43.84068 
L 92.099967 43.85052 
L 92.464271 44.36712 
L 92.828575 44.26872 
L 93.192878 44.74104 
L 93.557182 44.98704 
L 93.921486 44.84436 
L 94.285789 45.58728 
L 94.650093 46.0596 
L 95.014397 45.18384 
L 96.471611 45.47904 
L 96.835915 45.65616 
L 97.200219 45.98088 
L 97.928826 45.38556 
L 98.29313 45.31668 
L 98.657433 45.58728 
L 99.021737 45.35604 
L 99.386041 45.40032 
L 99.750344 45.11496 
L 100.114648 44.42124 
L 100.843255 44.18508 
L 101.571863 43.24044 
L 101.936166 43.8702 
L 102.30047 43.60944 
L 102.664774 43.92924 
L 103.029077 43.93416 
L 103.393381 43.46184 
L 103.757685 43.5012 
L 104.121988 42.72384 
L 104.486292 42.51228 
L 104.850596 43.08792 
L 105.214899 42.75828 
L 105.579203 42.90096 
L 106.30781 44.2392 
L 106.672114 45.23304 
L 107.036418 44.77548 
L 107.765025 45.04608 
L 108.129328 45.07068 
L 108.493632 46.1334 
L 108.857936 45.4446 
L 109.222239 45.06084 
L 109.586543 45.33144 
L 109.950847 46.30068 
L 110.31515 46.34496 
L 110.679454 47.89476 
L 111.043758 48.26376 
L 111.408061 47.96364 
L 112.369241 50.04972 
L 112.731985 49.24776 
L 114.195845 49.59708 
L 114.558837 49.80372 
L 114.923031 49.86768 
L 115.628034 49.24776 
L 116.015706 49.48392 
L 116.334248 49.37568 
L 116.743735 49.479 
L 117.107596 49.7004 
L 118.200313 49.49376 
L 118.565713 49.98576 
L 118.899241 49.96608 
L 119.293009 49.7004 
L 119.65569 49.27236 
L 120.019302 49.37076 
L 120.379313 49.68072 
L 120.751894 49.25268 
L 121.112436 49.51344 
L 122.204938 49.09032 
L 123.663814 49.58724 
L 124.025778 49.36092 
L 124.755675 49.45932 
L 125.119275 49.16904 
L 125.854367 49.27236 
L 126.2197 48.87384 
L 126.94471 48.70164 
L 127.309115 49.03128 
L 127.669873 49.1592 
L 128.032043 49.08048 
L 128.766954 49.36584 
L 129.519321 48.90828 
L 129.860923 49.05096 
L 130.586507 49.64628 
L 132.050552 49.59708 
L 132.410058 49.8726 
L 133.135962 49.80864 
L 134.232934 49.83816 
L 134.597828 49.50852 
L 134.960862 49.68564 
L 135.687252 49.48884 
L 136.424262 49.69056 
L 136.786247 49.40028 
L 137.150272 49.58724 
L 138.24 49.19856 
L 138.24 49.19856 
" clip-path="url(#p0f0c0bd367)" style="fill: none; stroke: #bebebe; stroke-width: 0.6; stroke-linecap: round"/>
   </g>
   <g id="line2d_6">
    <path d="M 5.76 47.07804 
L 6.124304 46.896 
L 6.488607 47.10756 
L 6.852911 47.16168 
L 7.217215 45.87264 
L 7.581518 45.63156 
L 7.945822 45.80376 
L 8.674429 45.43968 
L 9.038733 45.63156 
L 9.76734 45.61188 
L 10.131644 45.63156 
L 10.495948 45.31176 
L 11.224555 45.3462 
L 11.588859 45.52824 
L 12.317466 45.47412 
L 12.68177 45.51348 
L 13.046073 42.77796 
L 13.410377 41.75952 
L 13.774681 40.04244 
L 14.138984 40.58364 
L 14.503288 40.69188 
L 14.867592 39.38808 
L 15.596199 40.33764 
L 15.960502 40.32288 
L 16.324806 40.81488 
L 16.68911 40.88376 
L 17.053413 40.44588 
L 17.417717 40.46556 
L 17.782021 40.21956 
L 18.146324 39.52584 
L 18.510628 40.49508 
L 19.603539 40.19496 
L 19.967843 39.4914 
L 20.332146 39.38808 
L 20.69645 39.69312 
L 21.060754 40.46556 
L 21.789361 40.36716 
L 22.153665 39.8604 
L 22.517968 39.96372 
L 22.882272 39.85548 
L 23.246576 41.1888 
L 23.975183 40.4508 
L 24.339487 40.5738 
L 25.068094 38.45328 
L 25.432398 38.68452 
L 25.796701 39.55536 
L 26.161005 40.09164 
L 26.525309 40.39668 
L 27.253916 40.2048 
L 27.61822 40.52952 
L 28.346827 40.48032 
L 29.075434 42.26136 
L 29.439738 42.5664 
L 29.804042 41.17404 
L 30.168345 41.0166 
L 30.532649 41.22324 
L 31.261256 41.17896 
L 31.62556 41.08056 
L 31.989864 40.61808 
L 32.354167 40.7214 
L 32.718471 41.30688 
L 33.082775 40.11132 
L 33.447078 39.99816 
L 33.811382 40.56888 
L 34.175685 40.51476 
L 34.539989 40.131 
L 34.904293 40.3278 
L 35.268596 39.81612 
L 35.997204 37.46436 
L 36.361507 37.39056 
L 36.725811 37.50372 
L 37.454418 37.01172 
L 37.818722 36.16056 
L 38.183026 34.4976 
L 38.547329 33.69072 
L 39.275937 32.89368 
L 39.64024 31.73256 
L 40.004544 31.68336 
L 40.368848 31.8162 
L 40.733151 32.64276 
L 41.097455 32.0868 
L 41.826062 31.85064 
L 42.190366 30.98964 
L 42.55467 31.53576 
L 42.918973 31.521 
L 43.283277 31.38816 
L 43.647581 32.17044 
L 44.011884 33.68088 
L 44.376188 34.28604 
L 44.740492 33.58248 
L 45.104795 32.0376 
L 45.469099 32.76576 
L 45.833403 32.259 
L 46.197706 30.65508 
L 46.56201 29.93676 
L 46.926314 28.14588 
L 47.654921 28.40664 
L 48.019225 25.73508 
L 48.383528 24.62316 
L 48.747832 26.10408 
L 49.112136 26.97984 
L 49.476439 27.00936 
L 49.840743 26.58132 
L 50.205047 27.7818 
L 50.56935 29.49888 
L 50.933654 27.68832 
L 51.297958 28.44108 
L 51.662261 24.16068 
L 52.026565 24.55428 
L 52.390868 24.51984 
L 52.755172 27.32916 
L 53.119476 25.7646 
L 53.483779 26.48784 
L 53.848083 26.43372 
L 54.212387 27.44724 
L 54.940994 27.27504 
L 55.305298 27.8802 
L 55.669601 27.72276 
L 56.033905 26.84208 
L 56.398209 27.91956 
L 56.762512 27.8556 
L 57.126816 28.09668 
L 57.49112 27.87528 
L 58.219727 27.83592 
L 58.584031 27.57024 
L 58.948334 26.77812 
L 59.312638 25.01184 
L 60.041245 25.71048 
L 60.405549 26.31564 
L 60.769853 26.45832 
L 61.134156 25.8384 
L 61.49846 25.84824 
L 61.862764 26.6994 
L 62.227067 26.62068 
L 62.591371 26.8224 
L 62.955675 28.61328 
L 63.684282 28.97244 
L 64.048586 30.99456 
L 64.412889 29.76456 
L 64.777193 29.8974 
L 65.141497 29.02164 
L 65.5058 28.50012 
L 65.870104 29.00688 
L 66.598711 26.601 
L 66.963015 26.3796 
L 67.327319 26.5764 
L 67.691622 26.3796 
L 68.055926 25.1496 
L 68.42023 26.81256 
L 68.784533 26.29596 
L 69.148837 27.41772 
L 69.513141 31.19136 
L 69.877444 31.80144 
L 70.241748 28.89864 
L 70.606051 28.28364 
L 71.698962 30.80268 
L 72.063266 31.22088 
L 72.42757 30.8076 
L 72.791873 30.13356 
L 73.156177 30.17784 
L 73.884784 31.42752 
L 74.249088 31.04376 
L 74.613392 30.49764 
L 74.977695 30.3648 
L 75.341999 28.88388 
L 75.706303 29.15448 
L 76.070606 30.15324 
L 76.799214 31.4226 
L 77.527821 30.9306 
L 77.892125 30.66 
L 78.620732 34.99944 
L 78.985036 34.07448 
L 79.349339 34.9158 
L 79.713643 34.02528 
L 80.077947 34.26144 
L 80.44225 33.0216 
L 80.806554 33.10524 
L 81.170858 34.1532 
L 81.535161 34.2024 
L 82.263769 36.34752 
L 82.628072 35.89488 
L 83.35668 36.94776 
L 83.720983 36.2688 
L 84.085287 36.97236 
L 84.449591 38.286 
L 84.813894 38.76324 
L 85.178198 38.73864 
L 85.542502 38.51724 
L 85.906805 37.42992 
L 86.271109 37.42008 
L 86.635413 36.90348 
L 86.999716 36.98712 
L 87.36402 36.86412 
L 87.728324 37.16424 
L 88.092627 37.14948 
L 88.456931 38.52216 
L 89.185538 35.71776 
L 89.549842 36.15564 
L 89.914145 36.93792 
L 90.642753 36.72636 
L 91.007056 36.21468 
L 91.37136 34.8174 
L 91.735664 34.7928 
L 92.099967 35.42748 
L 92.464271 36.49512 
L 92.828575 36.28356 
L 93.192878 36.6378 
L 93.557182 37.3512 
L 93.921486 37.3512 
L 94.285789 38.31552 
L 94.650093 38.32536 
L 95.014397 37.26264 
L 95.3787 37.26264 
L 95.743004 37.09044 
L 96.107308 37.06092 
L 96.471611 37.34628 
L 96.835915 37.48404 
L 97.200219 37.77924 
L 97.928826 37.45944 
L 98.657433 37.56276 
L 99.021737 37.31184 
L 99.386041 37.33644 
L 99.750344 37.09536 
L 100.114648 36.23928 
L 100.843255 36.11628 
L 101.571863 35.0142 
L 101.936166 35.93424 
L 102.30047 36.36228 
L 102.664774 36.50988 
L 103.029077 36.5148 
L 103.393381 36.25404 
L 103.757685 36.46068 
L 104.121988 34.83708 
L 104.486292 34.57632 
L 105.214899 35.00436 
L 105.579203 34.93056 
L 105.943507 35.088 
L 106.30781 35.78664 
L 106.672114 37.55292 
L 107.036418 37.26756 
L 107.400721 37.46436 
L 108.129328 37.45944 
L 108.493632 38.41392 
L 109.222239 36.95268 
L 109.586543 37.05108 
L 109.950847 38.37948 
L 110.31515 39.20604 
L 110.679454 41.03136 
L 111.043758 42.26628 
L 111.408061 41.73492 
L 111.715616 42.23676 
L 112.369241 44.89356 
L 112.731985 43.6242 
L 113.465913 43.53072 
L 113.832296 43.72752 
L 114.558837 44.436 
L 114.923031 44.49012 
L 115.282954 43.81608 
L 115.628034 43.7226 
L 116.015706 44.5344 
L 116.334248 44.19 
L 116.743735 44.21952 
L 117.469771 44.51472 
L 118.200313 44.3868 
L 118.565713 45.174 
L 118.899241 45.23796 
L 119.293009 44.81484 
L 119.65569 43.821 
L 120.019302 44.01288 
L 120.379313 44.66232 
L 120.751894 43.93908 
L 121.112436 44.39664 
L 121.477587 44.12112 
L 121.83985 44.33268 
L 122.204938 43.3044 
L 122.569069 43.6242 
L 122.930577 44.29824 
L 123.298418 44.53932 
L 123.663814 44.30808 
L 124.025778 43.8702 
L 124.389938 44.00304 
L 124.755675 43.97844 
L 125.119275 43.41756 
L 125.854367 43.48644 
L 126.577628 41.73984 
L 126.94471 41.7546 
L 127.669873 43.14204 
L 128.032043 43.083 
L 128.401794 43.35852 
L 128.766954 43.78164 
L 129.127884 43.21584 
L 129.519321 42.9354 
L 129.860923 43.10268 
L 130.586507 44.25396 
L 131.683124 43.74228 
L 132.050552 43.46676 
L 132.774779 43.79148 
L 133.505752 43.77672 
L 133.870996 43.2552 
L 134.232934 43.40772 
L 134.597828 42.49752 
L 134.960862 42.90588 
L 135.328518 42.8616 
L 135.687252 42.41388 
L 136.424262 42.79764 
L 136.786247 41.57256 
L 137.150272 41.86284 
L 137.516153 41.63652 
L 137.879715 41.85792 
L 138.24 41.22324 
L 138.24 41.22324 
" clip-path="url(#p0f0c0bd367)" style="fill: none; stroke: #4a8dff; stroke-width: 0.6; stroke-linecap: round"/>
   </g>
   <g id="line2d_7">
    <path d="M 5.76 43.85052 
L 6.124304 43.50612 
L 6.488607 43.53072 
L 6.852911 42.35976 
L 7.217215 39.33396 
L 7.581518 39.3192 
L 7.945822 39.18636 
L 8.310126 38.74356 
L 8.674429 38.80752 
L 9.038733 39.2208 
L 9.403037 38.61564 
L 9.76734 38.9994 
L 10.131644 39.00924 
L 10.495948 37.92684 
L 10.860251 37.71528 
L 11.224555 38.17284 
L 11.588859 38.96496 
L 11.953162 38.74848 
L 12.317466 37.71528 
L 12.68177 37.63164 
L 13.046073 34.64028 
L 13.410377 34.69932 
L 13.774681 33.87276 
L 14.138984 34.18764 
L 14.503288 34.73868 
L 14.867592 34.09416 
L 15.231895 34.38444 
L 15.596199 34.33032 
L 16.324806 34.57632 
L 16.68911 33.18396 
L 17.053413 33.38076 
L 17.417717 32.81004 
L 17.782021 31.38816 
L 18.146324 30.45336 
L 18.510628 32.59848 
L 18.874932 32.29344 
L 19.239235 31.78176 
L 19.603539 31.53084 
L 19.967843 31.68336 
L 20.332146 32.28852 
L 21.060754 34.1778 
L 21.425057 33.84324 
L 21.789361 33.3414 
L 22.153665 33.25284 
L 22.882272 33.7842 
L 23.246576 35.34384 
L 23.610879 33.981 
L 23.975183 33.35616 
L 24.339487 33.35124 
L 24.70379 31.09296 
L 25.068094 31.11756 
L 25.432398 31.87524 
L 25.796701 33.20856 
L 26.161005 33.17412 
L 26.525309 33.45456 
L 26.889612 33.4152 
L 27.253916 32.7264 
L 27.61822 33.84816 
L 28.346827 33.84324 
L 29.439738 35.73744 
L 29.804042 33.4398 
L 30.168345 33.20856 
L 30.532649 32.58372 
L 30.896953 32.71164 
L 31.62556 32.53944 
L 31.989864 32.013 
L 32.718471 33.3906 
L 33.082775 31.80144 
L 33.447078 31.41768 
L 33.811382 32.19012 
L 34.175685 32.10156 
L 34.539989 31.60956 
L 34.904293 32.0622 
L 35.268596 31.73748 
L 35.6329 30.56652 
L 35.997204 28.31808 
L 36.361507 27.48168 
L 36.725811 27.55548 
L 37.090115 26.71908 
L 37.454418 26.36484 
L 37.818722 27.42756 
L 38.547329 26.55672 
L 38.911633 27.27504 
L 39.275937 27.31932 
L 39.64024 27.63912 
L 40.004544 27.52596 
L 40.368848 26.3058 
L 40.733151 26.96016 
L 41.097455 27.09792 
L 41.461759 27.49644 
L 41.826062 27.2898 
L 42.190366 26.57148 
L 42.55467 27.27012 
L 43.283277 27.35376 
L 44.011884 29.62188 
L 44.376188 29.96136 
L 44.740492 29.14956 
L 45.104795 28.68216 
L 45.469099 29.184 
L 45.833403 28.7412 
L 46.197706 27.5358 
L 46.56201 27.91956 
L 46.926314 28.00812 
L 47.290617 26.64528 
L 47.654921 26.88636 
L 48.019225 26.1828 
L 48.383528 24.52476 
L 48.747832 27.0684 
L 49.112136 27.59484 
L 49.840743 27.49644 
L 50.205047 28.13112 
L 50.56935 29.8482 
L 50.933654 29.12004 
L 51.297958 30.03024 
L 51.662261 27.84576 
L 52.390868 29.54316 
L 52.755172 31.13232 
L 53.119476 30.31068 
L 53.483779 30.62064 
L 53.848083 29.97612 
L 54.212387 31.97364 
L 54.57669 31.82112 
L 54.940994 32.0868 
L 55.305298 31.63416 
L 55.669601 30.6354 
L 56.033905 30.37464 
L 56.398209 30.86172 
L 56.762512 30.89616 
L 57.126816 31.11756 
L 57.855423 30.22212 
L 58.219727 30.45828 
L 58.584031 29.2578 
L 58.948334 28.50504 
L 59.312638 28.18032 
L 59.676942 28.2738 
L 60.041245 28.569 
L 60.405549 28.55424 
L 60.769853 27.8802 
L 61.134156 28.03272 
L 61.49846 27.69324 
L 61.862764 28.42632 
L 62.227067 28.3968 
L 62.591371 28.60344 
L 62.955675 29.88756 
L 63.319978 30.22212 
L 63.684282 29.58252 
L 64.048586 31.73256 
L 64.412889 31.36356 
L 64.777193 31.39308 
L 65.5058 29.09544 
L 65.870104 29.2332 
L 66.234408 27.02412 
L 66.963015 25.16928 
L 67.327319 25.10532 
L 68.055926 23.92452 
L 68.42023 25.53336 
L 68.784533 24.62808 
L 69.148837 25.4448 
L 69.513141 29.64156 
L 69.877444 30.80268 
L 70.241748 28.65756 
L 70.606051 28.6428 
L 71.334659 30.87156 
L 71.698962 32.17044 
L 72.063266 32.97732 
L 72.42757 32.628 
L 72.791873 31.90476 
L 73.156177 30.92076 
L 73.520481 31.96872 
L 73.884784 32.39676 
L 74.249088 31.19628 
L 74.977695 30.42384 
L 75.341999 29.0118 
L 75.706303 29.15448 
L 76.070606 29.76456 
L 76.43491 31.2012 
L 76.799214 32.09172 
L 77.163517 31.43244 
L 77.892125 30.90108 
L 78.620732 35.35368 
L 78.985036 34.24668 
L 79.349339 35.5062 
L 79.713643 34.48284 
L 80.077947 35.02896 
L 80.44225 33.8334 
L 80.806554 33.243 
L 81.170858 34.69932 
L 81.899465 36.2934 
L 82.263769 38.901 
L 82.628072 38.37948 
L 82.992376 38.92068 
L 83.35668 40.09164 
L 83.720983 39.70788 
L 84.085287 40.4262 
L 84.449591 42.75336 
L 84.813894 43.54548 
L 85.178198 43.72752 
L 85.906805 41.976 
L 86.271109 42.42864 
L 86.635413 40.86408 
L 86.999716 40.47048 
L 88.092627 40.89852 
L 88.456931 42.9354 
L 88.821235 40.43604 
L 89.185538 39.31428 
L 89.549842 40.04244 
L 89.914145 41.43972 
L 90.278449 41.47416 
L 90.642753 41.02152 
L 91.007056 40.7952 
L 91.37136 39.75708 
L 91.735664 40.11132 
L 92.099967 39.87024 
L 92.464271 40.94772 
L 92.828575 40.97232 
L 93.557182 42.87144 
L 93.921486 42.17772 
L 94.285789 43.04364 
L 94.650093 43.34868 
L 95.014397 42.03504 
L 95.743004 41.8038 
L 96.107308 41.84316 
L 96.471611 42.37944 
L 96.835915 42.26628 
L 97.200219 42.468 
L 97.564522 42.42864 
L 97.928826 42.18264 
L 98.29313 42.1728 
L 98.657433 42.50244 
L 99.021737 41.88252 
L 99.386041 42.32532 
L 100.114648 41.13468 
L 100.843255 40.42128 
L 101.207559 39.16176 
L 101.571863 39.28968 
L 101.936166 40.48032 
L 103.029077 40.88376 
L 103.757685 40.53936 
L 104.121988 38.50248 
L 104.486292 37.63656 
L 104.850596 38.34012 
L 105.214899 38.37456 
L 105.579203 38.5812 
L 106.30781 39.8358 
L 106.672114 41.93172 
L 107.036418 41.42004 
L 107.765025 41.39052 
L 108.129328 41.5086 
L 108.493632 42.80256 
L 108.857936 41.93664 
L 109.222239 41.49384 
L 109.586543 41.51352 
L 109.950847 43.78164 
L 110.31515 43.9932 
L 110.679454 46.66968 
L 111.043758 47.55036 
L 111.408061 46.64508 
L 112.005123 48.89352 
L 112.369241 49.84308 
L 112.731985 49.00176 
L 113.104616 49.233 
L 113.465913 48.97716 
L 114.195845 49.36092 
L 114.923031 49.58724 
L 115.282954 49.28712 
L 115.628034 49.16904 
L 116.015706 49.39044 
L 116.334248 49.29696 
L 117.107596 49.55772 
L 118.200313 49.41996 
L 118.565713 49.8234 
L 118.899241 49.86768 
L 119.293009 49.72992 
L 119.65569 49.39536 
L 120.379313 49.6758 
L 120.751894 49.47408 
L 121.112436 49.60692 
L 121.477587 49.37568 
L 121.83985 49.36584 
L 122.204938 48.6672 
L 123.298418 49.54788 
L 123.663814 49.5282 
L 124.025778 49.09032 
L 124.755675 49.2084 
L 125.119275 48.93288 
L 125.854367 48.89844 
L 126.577628 48.1998 
L 126.94471 48.28344 
L 127.309115 48.88368 
L 127.669873 49.04604 
L 128.032043 49.00176 
L 128.766954 49.38552 
L 129.127884 49.04112 
L 129.519321 48.92796 
L 129.860923 48.987 
L 130.586507 49.66104 
L 132.050552 49.40028 
L 132.410058 49.56756 
L 133.135962 49.56264 
L 133.505752 49.53312 
L 133.870996 49.25268 
L 134.232934 49.29696 
L 134.597828 48.89352 
L 134.960862 48.96732 
L 135.687252 48.5934 
L 136.058091 48.84432 
L 136.424262 48.95748 
L 136.786247 48.30804 
L 137.150272 48.34248 
L 137.516153 48.21456 
L 137.879715 48.26376 
L 138.24 47.41752 
L 138.24 47.41752 
" clip-path="url(#p0f0c0bd367)" style="fill: none; stroke: #f5841e; stroke-width: 0.7; stroke-linecap: round"/>
   </g>
  </g>
 </g>
 <defs>
  <clipPath id="p0f0c0bd367">
   <rect x="5.76" y="3.6" width="132.48" height="49.2"/>
  </clipPath>
 </defs>
</svg>
