<?xml version="1.0" encoding="utf-8" standalone="no"?>
<!DOCTYPE svg PUBLIC "-//W3C//DTD SVG 1.1//EN"
  "http://www.w3.org/Graphics/SVG/1.1/DTD/svg11.dtd">
<svg xmlns:xlink="http://www.w3.org/1999/xlink" width="144pt" height="60pt" viewBox="0 0 144 60" xmlns="http://www.w3.org/2000/svg" version="1.1">
  <desc id="nav-meta">{"window":"1w","count":4,"labels":["26.01","29.01","01.02","02.02"],"idxs":[0,29,59,88]}</desc>

 <metadata>
  <rdf:RDF xmlns:dc="http://purl.org/dc/elements/1.1/" xmlns:cc="http://creativecommons.org/ns#" xmlns:rdf="http://www.w3.org/1999/02/22-rdf-syntax-ns#">
   <cc:Work>
    <dc:type rdf:resource="http://purl.org/dc/dcmitype/StillImage"/>
    <dc:date>2026-02-02T09:01:04.256526</dc:date>
    <dc:format>image/svg+xml</dc:format>
    <dc:creator>
     <cc:Agent>
      <dc:title>Matplotlib v3.10.8, https://matplotlib.org/</dc:title>
     </cc:Agent>
    </dc:creator>
   </cc:Work>
  </rdf:RDF>
 </metadata>
 <defs>
  <style type="text/css">*{stroke-linejoin: round; stroke-linecap: butt}</style>
 </defs>
 <g id="figure_1">
  <g id="patch_1">
   <path d="M 0 60 
L 144 60 
L 144 0 
L 0 0 
L 0 60 
z
" style="fill: none; opacity: 0"/>
  </g>
  <g id="axes_1">
   <g id="patch_2">
    <path d="M 5.76 52.8 
L 138.24 52.8 
L 138.24 3.6 
L 5.76 3.6 
L 5.76 52.8 
z
" style="fill: none"/>
   </g>
   <g id="matplotlib.axis_1"/>
   <g id="matplotlib.axis_2"/>
   <g id="line2d_1">
    <path d="M 5.76 42.96 
L 138.24 42.96 
" clip-path="url(#p1aac094a8a)" style="fill: none; stroke: #b2b2b2; stroke-opacity: 0.35; stroke-width: 0.5; stroke-linecap: square"/>
   </g>
   <g id="line2d_2">
    <path d="M 5.76 33.12 
L 138.24 33.12 
" clip-path="url(#p1aac094a8a)" style="fill: none; stroke: #b2b2b2; stroke-opacity: 0.35; stroke-width: 0.5; stroke-linecap: square"/>
   </g>
   <g id="line2d_3">
    <path d="M 5.76 23.28 
L 138.24 23.28 
" clip-path="url(#p1aac094a8a)" style="fill: none; stroke: #b2b2b2; stroke-opacity: 0.35; stroke-width: 0.5; stroke-linecap: square"/>
   </g>
   <g id="line2d_4">
    <path d="M 5.76 13.44 
L 138.24 13.44 
" clip-path="url(#p1aac094a8a)" style="fill: none; stroke: #b2b2b2; stroke-opacity: 0.35; stroke-width: 0.5; stroke-linecap: square"/>
   </g>
   <g id="line2d_5">
    <path d="M 6.50427 40.21464 
L 8.71821 40.140313 
L 10.56316 40.06212 
L 23.108821 39.979173 
L 24.584781 39.63408 
L 45.617213 39.727948 
L 47.093173 39.9096 
L 48.569133 39.978452 
L 50.045093 40.17528 
L 54.472974 40.282758 
L 55.579944 40.751086 
L 59.638834 40.87392 
L 60.745804 40.951753 
L 62.221764 41.05104 
L 67.018635 40.961053 
L 68.125605 40.869 
L 71.077525 40.794161 
L 72.553485 40.6722 
L 73.660455 40.715385 
L 75.136415 41.04612 
L 76.612375 41.124701 
L 78.088335 41.84316 
L 79.564296 41.919122 
L 81.040256 42.77304 
L 85.468136 42.749244 
L 86.944096 42.27612 
L 110.928448 42.371402 
L 112.773398 42.60084 
L 128.27098 42.69432 
L 128.63997 42.979209 
L 130.11593 48.31296 
L 137.49573 48.249 
L 137.49573 48.249 
" clip-path="url(#p1aac094a8a)" style="fill: none; stroke: #bebebe; stroke-width: 0.6; stroke-linecap: round"/>
   </g>
   <g id="line2d_6">
    <path d="M 6.50427 34.65996 
L 9.45619 34.56156 
L 12.03912 34.70424 
L 13.14609 34.595141 
L 14.62205 34.46808 
L 16.467 34.560133 
L 17.942961 34.60092 
L 21.632861 34.508161 
L 23.108821 33.9072 
L 35.285492 34.013846 
L 41.558323 34.049741 
L 43.034283 33.981 
L 47.093173 34.087369 
L 48.200143 34.41888 
L 52.628023 34.40904 
L 54.472974 35.10768 
L 55.948934 35.171709 
L 57.424894 35.40288 
L 58.900854 35.455032 
L 60.376814 35.66364 
L 62.221764 35.744217 
L 63.697724 35.8506 
L 67.756615 35.885941 
L 69.232575 36.260692 
L 71.446515 36.1212 
L 72.184495 36.168765 
L 73.660455 36.50496 
L 75.136415 36.586064 
L 76.612375 37.26264 
L 78.088335 37.36553 
L 79.564296 38.40408 
L 83.992176 38.369432 
L 85.468136 37.78908 
L 91.740967 37.890778 
L 93.216927 38.09412 
L 109.452488 38.192839 
L 111.297438 38.37456 
L 113.880368 38.434432 
L 115.356329 38.81736 
L 120.153199 38.731433 
L 121.629159 38.57136 
L 126.057039 38.673807 
L 126.795019 38.834795 
L 127.164009 39.084093 
L 128.63997 42.0744 
L 130.48492 42.145775 
L 131.96088 42.3204 
L 137.49573 42.41388 
L 137.49573 42.41388 
" clip-path="url(#p1aac094a8a)" style="fill: none; stroke: #4a8dff; stroke-width: 0.7; stroke-linecap: round"/>
   </g>
   <g id="line2d_7">
    <path d="M 6.50427 39.63408 
L 9.45619 39.5406 
L 11.67013 39.78168 
L 12.7771 39.67951 
L 14.25306 39.30444 
L 15.72902 39.357798 
L 17.204981 39.57504 
L 19.049931 39.657197 
L 20.525891 39.76692 
L 21.263871 39.76692 
L 22.001851 39.461381 
L 23.108821 39.024 
L 32.702562 39.13224 
L 35.285492 39.160111 
L 41.558323 39.076595 
L 42.665293 38.9502 
L 44.510243 39.060214 
L 45.986203 39.15684 
L 46.724183 39.166347 
L 48.200143 39.639 
L 52.628023 39.62424 
L 54.472974 40.32288 
L 55.579944 40.32288 
L 57.424894 41.24784 
L 58.900854 41.330496 
L 60.376814 41.66112 
L 62.221764 41.750179 
L 63.697724 41.86776 
L 64.804694 41.822787 
L 66.649645 41.59716 
L 68.125605 41.515086 
L 70.339545 41.303485 
L 72.184495 41.340294 
L 73.660455 41.6808 
L 75.136415 41.764537 
L 76.612375 42.46308 
L 77.719345 42.46308 
L 78.088335 42.600119 
L 79.564296 43.98336 
L 83.992176 43.952038 
L 85.468136 43.4274 
L 92.478947 43.528364 
L 93.585917 43.57008 
L 110.190468 43.6748 
L 111.297438 43.73736 
L 114.249358 43.839142 
L 115.725319 44.00304 
L 125.319059 43.99812 
L 125.688049 44.252907 
L 127.164009 47.76393 
L 130.48492 47.749045 
L 133.06785 47.82588 
L 136.75775 47.719206 
L 137.49573 47.61432 
L 137.49573 47.61432 
" clip-path="url(#p1aac094a8a)" style="fill: none; stroke: #f5841e; stroke-width: 0.8; stroke-linecap: round"/>
   </g>
  </g>
 </g>
 <defs>
  <clipPath id="p1aac094a8a">
   <rect x="5.76" y="3.6" width="132.48" height="49.2"/>
  </clipPath>
 </defs>
</svg>
