<?xml version="1.0" encoding="utf-8" standalone="no"?>
<!DOCTYPE svg PUBLIC "-//W3C//DTD SVG 1.1//EN"
  "http://www.w3.org/Graphics/SVG/1.1/DTD/svg11.dtd">
<svg xmlns:xlink="http://www.w3.org/1999/xlink" width="144pt" height="60pt" viewBox="0 0 144 60" xmlns="http://www.w3.org/2000/svg" version="1.1">
  <desc id="nav-meta">{"window":"1m","count":4,"labels":["03.02","13.02","23.02","05.03"],"tick_utc":["2026-02-03T12:00:00Z","2026-02-13T03:33:47Z","2026-02-23T03:32:23Z","2026-03-05T03:17:19Z"]}</desc>

 <metadata>
  <rdf:RDF xmlns:dc="http://purl.org/dc/elements/1.1/" xmlns:cc="http://creativecommons.org/ns#" xmlns:rdf="http://www.w3.org/1999/02/22-rdf-syntax-ns#">
   <cc:Work>
    <dc:type rdf:resource="http://purl.org/dc/dcmitype/StillImage"/>
    <dc:date>2026-03-05T07:29:34.936293</dc:date>
    <dc:format>image/svg+xml</dc:format>
    <dc:creator>
     <cc:Agent>
      <dc:title>Matplotlib v3.10.8, https://matplotlib.org/</dc:title>
     </cc:Agent>
    </dc:creator>
   </cc:Work>
  </rdf:RDF>
 </metadata>
 <defs>
  <style type="text/css">*{stroke-linejoin: round; stroke-linecap: butt}</style>
 </defs>
 <g id="figure_1">
  <g id="patch_1">
   <path d="M 0 60 
L 144 60 
L 144 0 
L 0 0 
L 0 60 
z
" style="fill: none; opacity: 0"/>
  </g>
  <g id="axes_1">
   <g id="patch_2">
    <path d="M 5.76 52.8 
L 138.24 52.8 
L 138.24 3.6 
L 5.76 3.6 
L 5.76 52.8 
z
" style="fill: none"/>
   </g>
   <g id="matplotlib.axis_1"/>
   <g id="matplotlib.axis_2"/>
   <g id="line2d_1">
    <path d="M 5.76 42.96 
L 138.24 42.96 
" clip-path="url(#p585b16c9a7)" style="fill: none; stroke: #b2b2b2; stroke-opacity: 0.35; stroke-width: 0.5; stroke-linecap: square"/>
   </g>
   <g id="line2d_2">
    <path d="M 5.76 33.12 
L 138.24 33.12 
" clip-path="url(#p585b16c9a7)" style="fill: none; stroke: #b2b2b2; stroke-opacity: 0.35; stroke-width: 0.5; stroke-linecap: square"/>
   </g>
   <g id="line2d_3">
    <path d="M 5.76 23.28 
L 138.24 23.28 
" clip-path="url(#p585b16c9a7)" style="fill: none; stroke: #b2b2b2; stroke-opacity: 0.35; stroke-width: 0.5; stroke-linecap: square"/>
   </g>
   <g id="line2d_4">
    <path d="M 5.76 13.44 
L 138.24 13.44 
" clip-path="url(#p585b16c9a7)" style="fill: none; stroke: #b2b2b2; stroke-opacity: 0.35; stroke-width: 0.5; stroke-linecap: square"/>
   </g>
   <g id="line2d_5">
    <path d="M 5.76 47.96364 
L 9.533755 48.55896 
L 13.086075 49.06572 
L 17.553883 50.04972 
L 22.004824 49.24776 
L 26.577089 49.32156 
L 31.010285 49.31172 
L 35.505875 49.43964 
L 39.966699 49.59708 
L 44.420693 49.80372 
L 48.889432 49.86768 
L 53.305761 49.479 
L 57.539976 49.24776 
L 62.296787 49.48392 
L 66.205369 49.37568 
L 71.229868 49.479 
L 75.694519 49.7004 
L 80.138476 49.62168 
L 84.581243 49.5282 
L 89.102392 49.49376 
L 93.585928 49.98576 
L 97.678383 49.96608 
L 102.510006 49.7004 
L 106.960172 49.27236 
L 111.421771 49.37076 
L 115.839187 49.68072 
L 120.410831 49.25268 
L 124.834766 49.51344 
L 129.315249 49.4052 
L 133.760293 49.34124 
L 138.24 49.09032 
" clip-path="url(#p585b16c9a7)" style="fill: none; stroke: #bebebe; stroke-width: 0.6; stroke-linecap: round"/>
   </g>
   <g id="line2d_6">
    <path d="M 5.76 41.73492 
L 9.533755 42.23676 
L 13.086075 43.38804 
L 17.553883 44.89356 
L 22.004824 43.6242 
L 26.577089 43.575 
L 31.010285 43.53072 
L 35.505875 43.72752 
L 39.966699 44.0916 
L 44.420693 44.436 
L 48.889432 44.49012 
L 53.305761 43.81608 
L 57.539976 43.7226 
L 62.296787 44.5344 
L 66.205369 44.19 
L 71.229868 44.21952 
L 75.694519 44.3868 
L 80.138476 44.51472 
L 84.581243 44.4606 
L 89.102392 44.3868 
L 93.585928 45.174 
L 97.678383 45.23796 
L 102.510006 44.81484 
L 106.960172 43.821 
L 111.421771 44.01288 
L 115.839187 44.66232 
L 120.410831 43.93908 
L 124.834766 44.39664 
L 129.315249 44.12112 
L 133.760293 44.33268 
L 138.24 43.3044 
" clip-path="url(#p585b16c9a7)" style="fill: none; stroke: #4a8dff; stroke-width: 0.6; stroke-linecap: round"/>
   </g>
   <g id="line2d_7">
    <path d="M 5.76 46.64508 
L 9.533755 47.89476 
L 13.086075 48.89352 
L 17.553883 49.84308 
L 22.004824 49.00176 
L 26.577089 49.233 
L 31.010285 48.97716 
L 35.505875 49.22316 
L 39.966699 49.36092 
L 44.420693 49.49868 
L 48.889432 49.58724 
L 53.305761 49.28712 
L 57.539976 49.16904 
L 62.296787 49.39044 
L 66.205369 49.29696 
L 71.229868 49.479 
L 75.694519 49.55772 
L 80.138476 49.51344 
L 84.581243 49.44948 
L 89.102392 49.41996 
L 93.585928 49.8234 
L 97.678383 49.86768 
L 102.510006 49.72992 
L 106.960172 49.39536 
L 111.421771 49.52328 
L 115.839187 49.6758 
L 120.410831 49.47408 
L 124.834766 49.60692 
L 129.315249 49.37568 
L 133.760293 49.36584 
L 138.24 48.6672 
" clip-path="url(#p585b16c9a7)" style="fill: none; stroke: #f5841e; stroke-width: 0.7; stroke-linecap: round"/>
   </g>
  </g>
 </g>
 <defs>
  <clipPath id="p585b16c9a7">
   <rect x="5.76" y="3.6" width="132.48" height="49.2"/>
  </clipPath>
 </defs>
</svg>
