<?xml version="1.0" encoding="utf-8" standalone="no"?>
<!DOCTYPE svg PUBLIC "-//W3C//DTD SVG 1.1//EN"
  "http://www.w3.org/Graphics/SVG/1.1/DTD/svg11.dtd">
<svg xmlns:xlink="http://www.w3.org/1999/xlink" width="144pt" height="60pt" viewBox="0 0 144 60" xmlns="http://www.w3.org/2000/svg" version="1.1">
  <desc id="nav-meta">{"window":"1m","count":4,"labels":["02.02","12.02","22.02","04.03"],"tick_utc":["2026-02-02T12:00:00Z","2026-02-12T03:34:13Z","2026-02-22T03:28:03Z","2026-03-04T03:14:13Z"]}</desc>

 <metadata>
  <rdf:RDF xmlns:dc="http://purl.org/dc/elements/1.1/" xmlns:cc="http://creativecommons.org/ns#" xmlns:rdf="http://www.w3.org/1999/02/22-rdf-syntax-ns#">
   <cc:Work>
    <dc:type rdf:resource="http://purl.org/dc/dcmitype/StillImage"/>
    <dc:date>2026-03-04T03:14:15.767378</dc:date>
    <dc:format>image/svg+xml</dc:format>
    <dc:creator>
     <cc:Agent>
      <dc:title>Matplotlib v3.10.8, https://matplotlib.org/</dc:title>
     </cc:Agent>
    </dc:creator>
   </cc:Work>
  </rdf:RDF>
 </metadata>
 <defs>
  <style type="text/css">*{stroke-linejoin: round; stroke-linecap: butt}</style>
 </defs>
 <g id="figure_1">
  <g id="patch_1">
   <path d="M 0 60 
L 144 60 
L 144 0 
L 0 0 
L 0 60 
z
" style="fill: none; opacity: 0"/>
  </g>
  <g id="axes_1">
   <g id="patch_2">
    <path d="M 5.76 52.8 
L 138.24 52.8 
L 138.24 3.6 
L 5.76 3.6 
L 5.76 52.8 
z
" style="fill: none"/>
   </g>
   <g id="matplotlib.axis_1"/>
   <g id="matplotlib.axis_2"/>
   <g id="line2d_1">
    <path d="M 5.76 42.96 
L 138.24 42.96 
" clip-path="url(#p549319b887)" style="fill: none; stroke: #b2b2b2; stroke-opacity: 0.35; stroke-width: 0.5; stroke-linecap: square"/>
   </g>
   <g id="line2d_2">
    <path d="M 5.76 33.12 
L 138.24 33.12 
" clip-path="url(#p549319b887)" style="fill: none; stroke: #b2b2b2; stroke-opacity: 0.35; stroke-width: 0.5; stroke-linecap: square"/>
   </g>
   <g id="line2d_3">
    <path d="M 5.76 23.28 
L 138.24 23.28 
" clip-path="url(#p549319b887)" style="fill: none; stroke: #b2b2b2; stroke-opacity: 0.35; stroke-width: 0.5; stroke-linecap: square"/>
   </g>
   <g id="line2d_4">
    <path d="M 5.76 13.44 
L 138.24 13.44 
" clip-path="url(#p549319b887)" style="fill: none; stroke: #b2b2b2; stroke-opacity: 0.35; stroke-width: 0.5; stroke-linecap: square"/>
   </g>
   <g id="line2d_5">
    <path d="M 5.76 48.26376 
L 10.230409 47.96364 
L 14.004438 48.55896 
L 17.557016 49.06572 
L 22.025148 50.04972 
L 26.476413 49.24776 
L 31.04901 49.32156 
L 35.482528 49.31172 
L 39.978445 49.43964 
L 44.439593 49.59708 
L 48.89391 49.80372 
L 53.362974 49.86768 
L 57.779624 49.479 
L 62.014146 49.24776 
L 66.771303 49.48392 
L 70.680169 49.37568 
L 75.705033 49.479 
L 80.170009 49.7004 
L 84.614288 49.62168 
L 89.057378 49.5282 
L 93.578855 49.49376 
L 98.062717 49.98576 
L 102.15547 49.96608 
L 106.987443 49.7004 
L 111.437932 49.27236 
L 115.899856 49.37076 
L 120.317592 49.68072 
L 124.889569 49.25268 
L 129.313825 49.51344 
L 133.794634 49.4052 
L 138.24 49.34124 
" clip-path="url(#p549319b887)" style="fill: none; stroke: #bebebe; stroke-width: 0.6; stroke-linecap: round"/>
   </g>
   <g id="line2d_6">
    <path d="M 5.76 42.26628 
L 10.230409 41.73492 
L 14.004438 42.23676 
L 17.557016 43.38804 
L 22.025148 44.89356 
L 26.476413 43.6242 
L 31.04901 43.575 
L 35.482528 43.53072 
L 39.978445 43.72752 
L 44.439593 44.0916 
L 48.89391 44.436 
L 53.362974 44.49012 
L 57.779624 43.81608 
L 62.014146 43.7226 
L 66.771303 44.5344 
L 70.680169 44.19 
L 75.705033 44.21952 
L 80.170009 44.3868 
L 84.614288 44.51472 
L 89.057378 44.4606 
L 93.578855 44.3868 
L 98.062717 45.174 
L 102.15547 45.23796 
L 106.987443 44.81484 
L 111.437932 43.821 
L 115.899856 44.01288 
L 120.317592 44.66232 
L 124.889569 43.93908 
L 129.313825 44.39664 
L 133.794634 44.12112 
L 138.24 44.33268 
" clip-path="url(#p549319b887)" style="fill: none; stroke: #4a8dff; stroke-width: 0.6; stroke-linecap: round"/>
   </g>
   <g id="line2d_7">
    <path d="M 5.76 47.55036 
L 10.230409 46.64508 
L 14.004438 47.89476 
L 17.557016 48.89352 
L 22.025148 49.84308 
L 26.476413 49.00176 
L 31.04901 49.233 
L 35.482528 48.97716 
L 39.978445 49.22316 
L 44.439593 49.36092 
L 48.89391 49.49868 
L 53.362974 49.58724 
L 57.779624 49.28712 
L 62.014146 49.16904 
L 66.771303 49.39044 
L 70.680169 49.29696 
L 75.705033 49.479 
L 80.170009 49.55772 
L 84.614288 49.51344 
L 89.057378 49.44948 
L 93.578855 49.41996 
L 98.062717 49.8234 
L 102.15547 49.86768 
L 106.987443 49.72992 
L 111.437932 49.39536 
L 115.899856 49.52328 
L 120.317592 49.6758 
L 124.889569 49.47408 
L 129.313825 49.60692 
L 133.794634 49.37568 
L 138.24 49.36584 
" clip-path="url(#p549319b887)" style="fill: none; stroke: #f5841e; stroke-width: 0.7; stroke-linecap: round"/>
   </g>
  </g>
 </g>
 <defs>
  <clipPath id="p549319b887">
   <rect x="5.76" y="3.6" width="132.48" height="49.2"/>
  </clipPath>
 </defs>
</svg>
