<?xml version="1.0" encoding="utf-8" standalone="no"?>
<!DOCTYPE svg PUBLIC "-//W3C//DTD SVG 1.1//EN"
  "http://www.w3.org/Graphics/SVG/1.1/DTD/svg11.dtd">
<svg xmlns:xlink="http://www.w3.org/1999/xlink" width="144pt" height="60pt" viewBox="0 0 144 60" xmlns="http://www.w3.org/2000/svg" version="1.1">
  <desc id="nav-meta">{"window":"1m","count":4,"labels":["08.03","18.03","27.03","06.04"],"tick_utc":["2026-03-08T03:19:34Z","2026-03-18T03:32:26Z","2026-03-27T03:41:18Z","2026-04-06T03:50:17Z"]}</desc>

 <metadata>
  <rdf:RDF xmlns:dc="http://purl.org/dc/elements/1.1/" xmlns:cc="http://creativecommons.org/ns#" xmlns:rdf="http://www.w3.org/1999/02/22-rdf-syntax-ns#">
   <cc:Work>
    <dc:type rdf:resource="http://purl.org/dc/dcmitype/StillImage"/>
    <dc:date>2026-04-06T03:50:18.277222</dc:date>
    <dc:format>image/svg+xml</dc:format>
    <dc:creator>
     <cc:Agent>
      <dc:title>Matplotlib v3.10.8, https://matplotlib.org/</dc:title>
     </cc:Agent>
    </dc:creator>
   </cc:Work>
  </rdf:RDF>
 </metadata>
 <defs>
  <style type="text/css">*{stroke-linejoin: round; stroke-linecap: butt}</style>
 </defs>
 <g id="figure_1">
  <g id="patch_1">
   <path d="M 0 60 
L 144 60 
L 144 0 
L 0 0 
L 0 60 
z
" style="fill: none; opacity: 0"/>
  </g>
  <g id="axes_1">
   <g id="patch_2">
    <path d="M 5.76 52.8 
L 138.24 52.8 
L 138.24 3.6 
L 5.76 3.6 
L 5.76 52.8 
z
" style="fill: none"/>
   </g>
   <g id="matplotlib.axis_1"/>
   <g id="matplotlib.axis_2"/>
   <g id="line2d_1">
    <path d="M 5.76 42.96 
L 138.24 42.96 
" clip-path="url(#p8cc4231dbd)" style="fill: none; stroke: #b2b2b2; stroke-opacity: 0.35; stroke-width: 0.5; stroke-linecap: square"/>
   </g>
   <g id="line2d_2">
    <path d="M 5.76 33.12 
L 138.24 33.12 
" clip-path="url(#p8cc4231dbd)" style="fill: none; stroke: #b2b2b2; stroke-opacity: 0.35; stroke-width: 0.5; stroke-linecap: square"/>
   </g>
   <g id="line2d_3">
    <path d="M 5.76 23.28 
L 138.24 23.28 
" clip-path="url(#p8cc4231dbd)" style="fill: none; stroke: #b2b2b2; stroke-opacity: 0.35; stroke-width: 0.5; stroke-linecap: square"/>
   </g>
   <g id="line2d_4">
    <path d="M 5.76 13.44 
L 138.24 13.44 
" clip-path="url(#p8cc4231dbd)" style="fill: none; stroke: #b2b2b2; stroke-opacity: 0.35; stroke-width: 0.5; stroke-linecap: square"/>
   </g>
   <g id="line2d_5">
    <path d="M 5.76 49.64628 
L 10.338602 49.58724 
L 14.874197 49.36092 
L 19.437319 49.41996 
L 24.020201 49.45932 
L 28.576296 49.16904 
L 33.135138 49.22808 
L 37.787392 49.27236 
L 42.365201 48.87384 
L 46.850233 48.74592 
L 51.44997 48.70164 
L 56.016156 49.03128 
L 60.53664 49.1592 
L 65.074824 49.08048 
L 69.708004 49.21332 
L 74.283648 49.36584 
L 78.806298 49.11 
L 83.711208 48.90828 
L 87.991664 49.05096 
L 92.562341 49.37076 
L 97.083618 49.64628 
L 101.710722 49.6266 
L 106.28869 49.602 
L 110.824814 49.59708 
L 115.428882 49.59708 
L 119.933674 49.8726 
L 124.503823 49.88244 
L 129.029644 49.80864 
L 133.6633 49.78896 
L 138.24 49.69056 
" clip-path="url(#p8cc4231dbd)" style="fill: none; stroke: #bebebe; stroke-width: 0.6; stroke-linecap: round"/>
   </g>
   <g id="line2d_6">
    <path d="M 5.76 44.53932 
L 10.338602 44.30808 
L 14.874197 43.8702 
L 19.437319 44.00304 
L 24.020201 43.97844 
L 28.576296 43.41756 
L 33.135138 43.48152 
L 37.787392 43.48644 
L 42.365201 42.49752 
L 46.850233 41.73984 
L 51.44997 41.7546 
L 56.016156 42.591 
L 60.53664 43.14204 
L 65.074824 43.083 
L 69.708004 43.35852 
L 74.283648 43.78164 
L 78.806298 43.21584 
L 83.711208 42.9354 
L 87.991664 43.10268 
L 92.562341 43.72752 
L 97.083618 44.25396 
L 101.710722 44.10636 
L 106.28869 43.9194 
L 110.824814 43.74228 
L 115.428882 43.46676 
L 119.933674 43.65372 
L 124.503823 43.79148 
L 129.029644 43.81116 
L 133.6633 43.77672 
L 138.24 43.2552 
" clip-path="url(#p8cc4231dbd)" style="fill: none; stroke: #4a8dff; stroke-width: 0.6; stroke-linecap: round"/>
   </g>
   <g id="line2d_7">
    <path d="M 5.76 49.54788 
L 10.338602 49.5282 
L 14.874197 49.09032 
L 19.437319 49.16412 
L 24.020201 49.2084 
L 28.576296 48.93288 
L 33.135138 48.95748 
L 37.787392 48.89844 
L 42.365201 48.48024 
L 46.850233 48.1998 
L 51.44997 48.28344 
L 56.016156 48.88368 
L 60.53664 49.04604 
L 65.074824 49.00176 
L 69.708004 49.20348 
L 74.283648 49.38552 
L 78.806298 49.04112 
L 83.711208 48.92796 
L 87.991664 48.987 
L 92.562341 49.29204 
L 97.083618 49.66104 
L 101.710722 49.56756 
L 106.28869 49.53312 
L 110.824814 49.46424 
L 115.428882 49.40028 
L 119.933674 49.56756 
L 124.503823 49.59708 
L 129.029644 49.56264 
L 133.6633 49.53312 
L 138.24 49.25268 
" clip-path="url(#p8cc4231dbd)" style="fill: none; stroke: #f5841e; stroke-width: 0.7; stroke-linecap: round"/>
   </g>
  </g>
 </g>
 <defs>
  <clipPath id="p8cc4231dbd">
   <rect x="5.76" y="3.6" width="132.48" height="49.2"/>
  </clipPath>
 </defs>
</svg>
