<?xml version="1.0" encoding="utf-8" standalone="no"?>
<!DOCTYPE svg PUBLIC "-//W3C//DTD SVG 1.1//EN"
  "http://www.w3.org/Graphics/SVG/1.1/DTD/svg11.dtd">
<svg xmlns:xlink="http://www.w3.org/1999/xlink" width="144pt" height="60pt" viewBox="0 0 144 60" xmlns="http://www.w3.org/2000/svg" version="1.1">
  <desc id="nav-meta">{"window":"6m","count":4,"labels":["30.12","28.02","29.04","28.06"],"tick_utc":["2025-12-30T12:00:00Z","2026-02-28T03:01:05Z","2026-04-29T04:21:07Z","2026-06-28T05:07:25Z"]}</desc>

 <metadata>
  <rdf:RDF xmlns:dc="http://purl.org/dc/elements/1.1/" xmlns:cc="http://creativecommons.org/ns#" xmlns:rdf="http://www.w3.org/1999/02/22-rdf-syntax-ns#">
   <cc:Work>
    <dc:type rdf:resource="http://purl.org/dc/dcmitype/StillImage"/>
    <dc:date>2026-06-28T09:46:25.160800</dc:date>
    <dc:format>image/svg+xml</dc:format>
    <dc:creator>
     <cc:Agent>
      <dc:title>Matplotlib v3.11.0, https://matplotlib.org/</dc:title>
     </cc:Agent>
    </dc:creator>
   </cc:Work>
  </rdf:RDF>
 </metadata>
 <defs>
  <style type="text/css">*{stroke-linejoin: round; stroke-linecap: butt}</style>
 </defs>
 <g id="figure_1">
  <g id="patch_1">
   <path d="M 0 60 
L 144 60 
L 144 0 
L 0 0 
L 0 60 
z
" style="fill: none; opacity: 0"/>
  </g>
  <g id="axes_1">
   <g id="patch_2">
    <path d="M 5.76 52.8 
L 138.24 52.8 
L 138.24 3.6 
L 5.76 3.6 
L 5.76 52.8 
z
" style="fill: none"/>
   </g>
   <g id="matplotlib.axis_1"/>
   <g id="matplotlib.axis_2"/>
   <g id="line2d_1">
    <path d="M 5.76 42.96 
L 138.24 42.96 
" clip-path="url(#p3860573da0)" style="fill: none; stroke: #b2b2b2; stroke-opacity: 0.35; stroke-width: 0.5; stroke-linecap: square"/>
   </g>
   <g id="line2d_2">
    <path d="M 5.76 33.12 
L 138.24 33.12 
" clip-path="url(#p3860573da0)" style="fill: none; stroke: #b2b2b2; stroke-opacity: 0.35; stroke-width: 0.5; stroke-linecap: square"/>
   </g>
   <g id="line2d_3">
    <path d="M 5.76 23.28 
L 138.24 23.28 
" clip-path="url(#p3860573da0)" style="fill: none; stroke: #b2b2b2; stroke-opacity: 0.35; stroke-width: 0.5; stroke-linecap: square"/>
   </g>
   <g id="line2d_4">
    <path d="M 5.76 13.44 
L 138.24 13.44 
" clip-path="url(#p3860573da0)" style="fill: none; stroke: #b2b2b2; stroke-opacity: 0.35; stroke-width: 0.5; stroke-linecap: square"/>
   </g>
   <g id="line2d_5">
    <path d="M 5.76 45.58728 
L 6.497173 45.35604 
L 7.234347 45.40032 
L 7.97152 45.11496 
L 8.708694 44.42124 
L 10.18304 44.18508 
L 10.920214 43.62912 
L 11.657387 43.24044 
L 12.394561 43.8702 
L 13.131734 43.60944 
L 13.868907 43.92924 
L 14.606081 43.93416 
L 15.343254 43.46184 
L 16.080428 43.5012 
L 16.817601 42.72384 
L 17.554774 42.51228 
L 18.291948 43.08792 
L 19.029121 42.75828 
L 19.766295 42.90096 
L 21.240641 44.2392 
L 21.977815 45.23304 
L 22.714988 44.77548 
L 24.189335 45.04608 
L 24.926508 45.07068 
L 25.663682 46.1334 
L 26.400855 45.4446 
L 27.138029 45.06084 
L 27.875202 45.33144 
L 28.612375 46.30068 
L 29.349549 46.34496 
L 30.086722 47.89476 
L 30.823896 48.26376 
L 31.561069 47.96364 
L 32.769231 49.06572 
L 33.506029 50.04972 
L 34.240046 49.24776 
L 37.202186 49.59708 
L 37.936706 49.80372 
L 38.673658 49.86768 
L 39.401966 49.479 
L 40.100242 49.24776 
L 40.8847 49.48392 
L 41.529275 49.37568 
L 42.357878 49.479 
L 43.094155 49.7004 
L 45.305283 49.49376 
L 46.044675 49.98576 
L 46.719572 49.96608 
L 47.516368 49.7004 
L 48.250257 49.27236 
L 48.986031 49.37076 
L 49.714519 49.68072 
L 50.468441 49.25268 
L 51.198003 49.51344 
L 53.408696 49.09032 
L 55.621368 49.64628 
L 56.360751 49.58724 
L 57.093189 49.36092 
L 58.570147 49.45932 
L 59.305895 49.16904 
L 60.793365 49.27236 
L 61.53262 48.87384 
L 62.999689 48.70164 
L 63.737067 49.03128 
L 64.467065 49.1592 
L 65.199921 49.08048 
L 66.687023 49.36584 
L 68.209448 48.90828 
L 68.900685 49.05096 
L 70.368914 49.64628 
L 73.33143 49.59708 
L 74.058894 49.8726 
L 75.527771 49.80864 
L 77.747508 49.83816 
L 78.485876 49.50852 
L 79.220481 49.68564 
L 80.69034 49.48884 
L 81.440738 49.6512 
L 82.181691 49.69056 
L 82.914172 49.40028 
L 83.650782 49.58724 
L 85.855861 49.19856 
L 86.602769 49.43472 
L 87.341769 49.50852 
L 91.018259 49.37568 
L 91.766899 49.4052 
L 92.512016 49.29204 
L 93.250734 49.5528 
L 93.985894 49.50852 
L 94.724304 49.64136 
L 96.187892 49.56264 
L 96.940031 49.57248 
L 97.676948 49.42488 
L 98.397885 49.49376 
L 99.885414 49.25268 
L 100.610318 49.24284 
L 101.350188 48.80004 
L 102.102216 48.85416 
L 103.572143 48.63276 
L 104.312823 48.66228 
L 105.049177 49.09524 
L 105.789985 48.99192 
L 107.265928 49.34616 
L 108.010259 49.47408 
L 109.481961 49.54788 
L 110.223332 49.3314 
L 110.954858 49.34616 
L 111.681903 49.51836 
L 113.177623 49.41504 
L 115.383188 49.7742 
L 117.599674 49.61676 
L 119.077672 49.7988 
L 119.823139 50.19732 
L 120.557787 50.45808 
L 121.282819 50.59092 
L 122.008662 50.99928 
L 123.502112 50.74344 
L 124.225216 50.62536 
L 124.970034 50.80248 
L 127.925903 50.56632 
L 129.428961 50.23176 
L 130.142654 50.2416 
L 131.630831 50.55156 
L 133.849791 50.217 
L 136.019683 50.59092 
L 136.760636 50.59092 
L 137.488774 50.33016 
L 138.24 50.4384 
L 138.24 50.4384 
" clip-path="url(#p3860573da0)" style="fill: none; stroke: #bebebe; stroke-width: 0.6; stroke-linecap: round"/>
   </g>
   <g id="line2d_6">
    <path d="M 5.76 37.56276 
L 6.497173 37.31184 
L 7.234347 37.33644 
L 7.97152 37.09536 
L 8.708694 36.23928 
L 10.18304 36.11628 
L 10.920214 35.48652 
L 11.657387 35.0142 
L 12.394561 35.93424 
L 13.131734 36.36228 
L 13.868907 36.50988 
L 14.606081 36.5148 
L 15.343254 36.25404 
L 16.080428 36.46068 
L 16.817601 34.83708 
L 17.554774 34.57632 
L 19.029121 35.00436 
L 19.766295 34.93056 
L 20.503468 35.088 
L 21.240641 35.78664 
L 21.977815 37.55292 
L 22.714988 37.26756 
L 23.452162 37.46436 
L 24.926508 37.45944 
L 25.663682 38.41392 
L 27.138029 36.95268 
L 27.875202 37.05108 
L 28.612375 38.37948 
L 29.349549 39.20604 
L 30.086722 41.03136 
L 30.823896 42.26628 
L 31.561069 41.73492 
L 32.183409 42.23676 
L 33.506029 44.89356 
L 34.240046 43.6242 
L 35.72516 43.53072 
L 36.46654 43.72752 
L 37.936706 44.436 
L 38.673658 44.49012 
L 39.401966 43.81608 
L 40.100242 43.7226 
L 40.8847 44.5344 
L 41.529275 44.19 
L 42.357878 44.21952 
L 43.82702 44.51472 
L 45.305283 44.3868 
L 46.044675 45.174 
L 46.719572 45.23796 
L 47.516368 44.81484 
L 48.250257 43.821 
L 48.986031 44.01288 
L 49.714519 44.66232 
L 50.468441 43.93908 
L 51.198003 44.39664 
L 51.936892 44.12112 
L 52.669935 44.33268 
L 53.408696 43.3044 
L 54.145519 43.6242 
L 54.877036 44.29824 
L 55.621368 44.53932 
L 56.360751 44.30808 
L 57.093189 43.8702 
L 57.830073 44.00304 
L 58.570147 43.97844 
L 59.305895 43.41756 
L 60.793365 43.48644 
L 61.53262 42.49752 
L 62.256893 41.73984 
L 62.999689 41.7546 
L 63.737067 42.591 
L 64.467065 43.14204 
L 65.199921 43.083 
L 65.948118 43.35852 
L 66.687023 43.78164 
L 67.417371 43.21584 
L 68.209448 42.9354 
L 68.900685 43.10268 
L 70.368914 44.25396 
L 72.587934 43.74228 
L 73.33143 43.46676 
L 74.796912 43.79148 
L 76.276045 43.77672 
L 77.015121 43.2552 
L 77.747508 43.40772 
L 78.485876 42.49752 
L 79.220481 42.90588 
L 79.964438 42.8616 
L 80.69034 42.41388 
L 82.181691 42.79764 
L 82.914172 41.57256 
L 83.650782 41.86284 
L 84.391147 41.63652 
L 85.126819 41.85792 
L 85.855861 41.22324 
L 86.602769 41.76936 
L 87.341769 42.1482 
L 88.075708 41.96616 
L 88.810595 41.59224 
L 90.289882 41.99076 
L 91.018259 41.91696 
L 91.766899 41.98584 
L 92.512016 41.41512 
L 93.250734 42.15312 
L 93.985894 41.96124 
L 94.724304 42.43848 
L 96.187892 42.02028 
L 96.940031 42.0252 
L 97.676948 41.40528 
L 99.148044 41.52336 
L 100.610318 42.1974 
L 101.350188 41.8776 
L 102.845208 41.8038 
L 103.572143 41.976 
L 104.312823 42.00552 
L 105.049177 42.3942 
L 105.789985 42.27612 
L 107.265928 42.85176 
L 108.010259 43.31424 
L 108.742151 43.2306 
L 109.481961 43.39296 
L 110.223332 43.16172 
L 110.954858 43.24536 
L 111.681903 43.71768 
L 112.430749 43.33392 
L 114.648369 43.67832 
L 115.383188 44.32776 
L 116.120907 44.13588 
L 116.84745 44.16048 
L 117.599674 43.96368 
L 118.347751 44.2392 
L 119.077672 44.19984 
L 119.823139 45.16908 
L 120.557787 45.67584 
L 121.282819 46.00548 
L 122.008662 47.57004 
L 123.502112 46.64016 
L 124.225216 46.34496 
L 124.970034 46.82712 
L 126.451599 46.51716 
L 127.18338 46.5516 
L 127.925903 46.46304 
L 130.142654 45.6414 
L 130.876295 46.09404 
L 131.630831 46.3302 
L 133.849791 46.035 
L 134.542896 46.14324 
L 136.760636 47.38308 
L 137.488774 47.14692 
L 138.24 47.22564 
L 138.24 47.22564 
" clip-path="url(#p3860573da0)" style="fill: none; stroke: #4a8dff; stroke-width: 0.6; stroke-linecap: round"/>
   </g>
   <g id="line2d_7">
    <path d="M 5.76 42.50244 
L 6.497173 41.88252 
L 7.234347 42.32532 
L 8.708694 41.13468 
L 10.18304 40.42128 
L 10.920214 39.16176 
L 11.657387 39.28968 
L 12.394561 40.48032 
L 14.606081 40.88376 
L 16.080428 40.53936 
L 16.817601 38.50248 
L 17.554774 37.63656 
L 18.291948 38.34012 
L 19.029121 38.37456 
L 19.766295 38.5812 
L 21.240641 39.8358 
L 21.977815 41.93172 
L 22.714988 41.42004 
L 24.189335 41.39052 
L 24.926508 41.5086 
L 25.663682 42.80256 
L 26.400855 41.93664 
L 27.138029 41.49384 
L 27.875202 41.51352 
L 28.612375 43.78164 
L 29.349549 43.9932 
L 30.086722 46.66968 
L 30.823896 47.55036 
L 31.561069 46.64508 
L 32.769231 48.89352 
L 33.506029 49.84308 
L 34.240046 49.00176 
L 34.99407 49.233 
L 35.72516 48.97716 
L 37.202186 49.36092 
L 38.673658 49.58724 
L 39.401966 49.28712 
L 40.100242 49.16904 
L 40.8847 49.39044 
L 41.529275 49.29696 
L 43.094155 49.55772 
L 45.305283 49.41996 
L 46.044675 49.8234 
L 46.719572 49.86768 
L 47.516368 49.72992 
L 48.250257 49.39536 
L 49.714519 49.6758 
L 50.468441 49.47408 
L 51.198003 49.60692 
L 51.936892 49.37568 
L 52.669935 49.36584 
L 53.408696 48.6672 
L 54.145519 48.95256 
L 54.877036 49.36092 
L 55.621368 49.54788 
L 56.360751 49.5282 
L 57.093189 49.09032 
L 58.570147 49.2084 
L 59.305895 48.93288 
L 60.793365 48.89844 
L 61.53262 48.48024 
L 62.256893 48.1998 
L 62.999689 48.28344 
L 63.737067 48.88368 
L 64.467065 49.04604 
L 65.199921 49.00176 
L 66.687023 49.38552 
L 67.417371 49.04112 
L 68.209448 48.92796 
L 68.900685 48.987 
L 70.368914 49.66104 
L 73.33143 49.40028 
L 74.058894 49.56756 
L 75.527771 49.56264 
L 76.276045 49.53312 
L 77.015121 49.25268 
L 77.747508 49.29696 
L 78.485876 48.89352 
L 79.220481 48.96732 
L 80.69034 48.5934 
L 81.440738 48.84432 
L 82.181691 48.95748 
L 82.914172 48.30804 
L 83.650782 48.34248 
L 84.391147 48.21456 
L 85.126819 48.26376 
L 85.855861 47.41752 
L 86.602769 48.05712 
L 87.341769 48.26376 
L 88.075708 48.01776 
L 88.810595 47.23548 
L 91.018259 47.1666 
L 91.766899 47.31912 
L 92.512016 46.49256 
L 93.250734 47.64876 
L 93.985894 47.5356 
L 94.724304 48.0276 
L 95.469532 47.50608 
L 96.187892 46.81728 
L 96.940031 46.92552 
L 97.676948 45.85788 
L 99.148044 45.29208 
L 99.885414 45.58728 
L 100.610318 46.2564 
L 101.350188 45.7152 
L 104.312823 45.42492 
L 105.049177 46.38432 
L 105.789985 45.57744 
L 106.517748 46.51716 
L 107.265928 46.95996 
L 108.010259 47.54544 
L 109.481961 47.66844 
L 110.223332 47.05344 
L 110.954858 47.22564 
L 111.681903 48.07188 
L 113.177623 47.37324 
L 114.648369 48.07188 
L 115.383188 48.59832 
L 116.120907 48.52452 
L 116.84745 48.5688 
L 117.599674 48.38676 
L 118.347751 48.55404 
L 120.557787 49.93656 
L 121.282819 49.98084 
L 122.008662 50.3646 
L 122.761679 50.15796 
L 124.225216 49.99068 
L 124.970034 50.217 
L 126.451599 49.98084 
L 127.925903 49.87752 
L 128.687581 49.69548 
L 130.142654 49.7004 
L 131.630831 50.06448 
L 133.09104 49.89228 
L 134.542896 49.9464 
L 137.488774 50.31048 
L 138.24 50.34492 
L 138.24 50.34492 
" clip-path="url(#p3860573da0)" style="fill: none; stroke: #f5841e; stroke-width: 0.7; stroke-linecap: round"/>
   </g>
  </g>
 </g>
 <defs>
  <clipPath id="p3860573da0">
   <rect x="5.76" y="3.6" width="132.48" height="49.2"/>
  </clipPath>
 </defs>
</svg>
