<?xml version="1.0" encoding="utf-8" standalone="no"?>
<!DOCTYPE svg PUBLIC "-//W3C//DTD SVG 1.1//EN"
  "http://www.w3.org/Graphics/SVG/1.1/DTD/svg11.dtd">
<svg xmlns:xlink="http://www.w3.org/1999/xlink" width="144pt" height="60pt" viewBox="0 0 144 60" xmlns="http://www.w3.org/2000/svg" version="1.1">
  <desc id="nav-meta">{"window":"1m","count":4,"labels":["19.03","29.03","07.04","17.04"],"tick_utc":["2026-03-19T03:32:50Z","2026-03-29T03:47:09Z","2026-04-07T03:40:56Z","2026-04-17T03:55:44Z"]}</desc>

 <metadata>
  <rdf:RDF xmlns:dc="http://purl.org/dc/elements/1.1/" xmlns:cc="http://creativecommons.org/ns#" xmlns:rdf="http://www.w3.org/1999/02/22-rdf-syntax-ns#">
   <cc:Work>
    <dc:type rdf:resource="http://purl.org/dc/dcmitype/StillImage"/>
    <dc:date>2026-04-17T08:15:37.787850</dc:date>
    <dc:format>image/svg+xml</dc:format>
    <dc:creator>
     <cc:Agent>
      <dc:title>Matplotlib v3.10.8, https://matplotlib.org/</dc:title>
     </cc:Agent>
    </dc:creator>
   </cc:Work>
  </rdf:RDF>
 </metadata>
 <defs>
  <style type="text/css">*{stroke-linejoin: round; stroke-linecap: butt}</style>
 </defs>
 <g id="figure_1">
  <g id="patch_1">
   <path d="M 0 60 
L 144 60 
L 144 0 
L 0 0 
L 0 60 
z
" style="fill: none; opacity: 0"/>
  </g>
  <g id="axes_1">
   <g id="patch_2">
    <path d="M 5.76 52.8 
L 138.24 52.8 
L 138.24 3.6 
L 5.76 3.6 
L 5.76 52.8 
z
" style="fill: none"/>
   </g>
   <g id="matplotlib.axis_1"/>
   <g id="matplotlib.axis_2"/>
   <g id="line2d_1">
    <path d="M 5.76 42.96 
L 138.24 42.96 
" clip-path="url(#p403e4bcecc)" style="fill: none; stroke: #b2b2b2; stroke-opacity: 0.35; stroke-width: 0.5; stroke-linecap: square"/>
   </g>
   <g id="line2d_2">
    <path d="M 5.76 33.12 
L 138.24 33.12 
" clip-path="url(#p403e4bcecc)" style="fill: none; stroke: #b2b2b2; stroke-opacity: 0.35; stroke-width: 0.5; stroke-linecap: square"/>
   </g>
   <g id="line2d_3">
    <path d="M 5.76 23.28 
L 138.24 23.28 
" clip-path="url(#p403e4bcecc)" style="fill: none; stroke: #b2b2b2; stroke-opacity: 0.35; stroke-width: 0.5; stroke-linecap: square"/>
   </g>
   <g id="line2d_4">
    <path d="M 5.76 13.44 
L 138.24 13.44 
" clip-path="url(#p403e4bcecc)" style="fill: none; stroke: #b2b2b2; stroke-opacity: 0.35; stroke-width: 0.5; stroke-linecap: square"/>
   </g>
   <g id="line2d_5">
    <path d="M 5.76 49.03128 
L 10.28133 49.1592 
L 14.820363 49.08048 
L 19.45441 49.21332 
L 24.030909 49.36584 
L 28.554406 49.11 
L 33.460233 48.90828 
L 37.74149 49.05096 
L 42.313022 49.37076 
L 46.835145 49.64628 
L 51.463115 49.6266 
L 56.041939 49.602 
L 60.578911 49.59708 
L 65.183841 49.59708 
L 69.689476 49.8726 
L 74.26048 49.88244 
L 78.787147 49.80864 
L 83.42167 49.78896 
L 87.999226 49.69056 
L 92.535353 49.83816 
L 97.108523 49.50852 
L 101.658389 49.68564 
L 106.266173 49.6266 
L 110.762137 49.48884 
L 115.409818 49.6512 
L 119.999001 49.69056 
L 124.535708 49.40028 
L 129.097993 49.58724 
L 133.683529 49.45932 
L 138.24 49.27728 
" clip-path="url(#p403e4bcecc)" style="fill: none; stroke: #bebebe; stroke-width: 0.6; stroke-linecap: round"/>
   </g>
   <g id="line2d_6">
    <path d="M 5.76 42.591 
L 10.28133 43.14204 
L 14.820363 43.083 
L 19.45441 43.35852 
L 24.030909 43.78164 
L 28.554406 43.21584 
L 33.460233 42.9354 
L 37.74149 43.10268 
L 42.313022 43.72752 
L 46.835145 44.25396 
L 51.463115 44.10636 
L 56.041939 43.9194 
L 60.578911 43.74228 
L 65.183841 43.46676 
L 69.689476 43.65372 
L 74.26048 43.79148 
L 78.787147 43.81116 
L 83.42167 43.77672 
L 87.999226 43.2552 
L 92.535353 43.40772 
L 97.108523 42.49752 
L 101.658389 42.90588 
L 106.266173 42.8616 
L 110.762137 42.41388 
L 115.409818 42.63036 
L 119.999001 42.79764 
L 124.535708 41.57256 
L 129.097993 41.86284 
L 133.683529 41.63652 
L 138.24 41.85792 
" clip-path="url(#p403e4bcecc)" style="fill: none; stroke: #4a8dff; stroke-width: 0.6; stroke-linecap: round"/>
   </g>
   <g id="line2d_7">
    <path d="M 5.76 48.88368 
L 10.28133 49.04604 
L 14.820363 49.00176 
L 19.45441 49.20348 
L 24.030909 49.38552 
L 28.554406 49.04112 
L 33.460233 48.92796 
L 37.74149 48.987 
L 42.313022 49.29204 
L 46.835145 49.66104 
L 51.463115 49.56756 
L 56.041939 49.53312 
L 60.578911 49.46424 
L 65.183841 49.40028 
L 69.689476 49.56756 
L 74.26048 49.59708 
L 78.787147 49.56264 
L 83.42167 49.53312 
L 87.999226 49.25268 
L 92.535353 49.29696 
L 97.108523 48.89352 
L 101.658389 48.96732 
L 106.266173 48.8148 
L 110.762137 48.5934 
L 115.409818 48.84432 
L 119.999001 48.95748 
L 124.535708 48.30804 
L 129.097993 48.34248 
L 133.683529 48.21456 
L 138.24 48.26376 
" clip-path="url(#p403e4bcecc)" style="fill: none; stroke: #f5841e; stroke-width: 0.7; stroke-linecap: round"/>
   </g>
  </g>
 </g>
 <defs>
  <clipPath id="p403e4bcecc">
   <rect x="5.76" y="3.6" width="132.48" height="49.2"/>
  </clipPath>
 </defs>
</svg>
