<?xml version="1.0" encoding="utf-8" standalone="no"?>
<!DOCTYPE svg PUBLIC "-//W3C//DTD SVG 1.1//EN"
  "http://www.w3.org/Graphics/SVG/1.1/DTD/svg11.dtd">
<svg xmlns:xlink="http://www.w3.org/1999/xlink" width="144pt" height="60pt" viewBox="0 0 144 60" xmlns="http://www.w3.org/2000/svg" version="1.1">
  <desc id="nav-meta">{"window":"2w","count":4,"labels":["21.01","27.01","01.02","03.02"],"idxs":[0,6,11,17]}</desc>

 <metadata>
  <rdf:RDF xmlns:dc="http://purl.org/dc/elements/1.1/" xmlns:cc="http://creativecommons.org/ns#" xmlns:rdf="http://www.w3.org/1999/02/22-rdf-syntax-ns#">
   <cc:Work>
    <dc:type rdf:resource="http://purl.org/dc/dcmitype/StillImage"/>
    <dc:date>2026-02-03T19:01:36.570844</dc:date>
    <dc:format>image/svg+xml</dc:format>
    <dc:creator>
     <cc:Agent>
      <dc:title>Matplotlib v3.10.8, https://matplotlib.org/</dc:title>
     </cc:Agent>
    </dc:creator>
   </cc:Work>
  </rdf:RDF>
 </metadata>
 <defs>
  <style type="text/css">*{stroke-linejoin: round; stroke-linecap: butt}</style>
 </defs>
 <g id="figure_1">
  <g id="patch_1">
   <path d="M 0 60 
L 144 60 
L 144 0 
L 0 0 
L 0 60 
z
" style="fill: none; opacity: 0"/>
  </g>
  <g id="axes_1">
   <g id="patch_2">
    <path d="M 5.76 52.8 
L 138.24 52.8 
L 138.24 3.6 
L 5.76 3.6 
L 5.76 52.8 
z
" style="fill: none"/>
   </g>
   <g id="matplotlib.axis_1"/>
   <g id="matplotlib.axis_2"/>
   <g id="line2d_1">
    <path d="M 5.76 42.96 
L 138.24 42.96 
" clip-path="url(#p4b62ce80e4)" style="fill: none; stroke: #b2b2b2; stroke-opacity: 0.35; stroke-width: 0.5; stroke-linecap: square"/>
   </g>
   <g id="line2d_2">
    <path d="M 5.76 33.12 
L 138.24 33.12 
" clip-path="url(#p4b62ce80e4)" style="fill: none; stroke: #b2b2b2; stroke-opacity: 0.35; stroke-width: 0.5; stroke-linecap: square"/>
   </g>
   <g id="line2d_3">
    <path d="M 5.76 23.28 
L 138.24 23.28 
" clip-path="url(#p4b62ce80e4)" style="fill: none; stroke: #b2b2b2; stroke-opacity: 0.35; stroke-width: 0.5; stroke-linecap: square"/>
   </g>
   <g id="line2d_4">
    <path d="M 5.76 13.44 
L 138.24 13.44 
" clip-path="url(#p4b62ce80e4)" style="fill: none; stroke: #b2b2b2; stroke-opacity: 0.35; stroke-width: 0.5; stroke-linecap: square"/>
   </g>
   <g id="line2d_5">
    <path d="M 5.76 45.23304 
L 13.552941 44.77548 
L 21.345882 44.91816 
L 29.138824 45.04608 
L 36.931765 45.07068 
L 44.724706 46.1334 
L 52.517647 45.4446 
L 60.310588 45.06084 
L 68.103529 45.33144 
L 75.896471 46.30068 
L 83.689412 46.34496 
L 91.482353 47.89476 
L 99.275294 48.26376 
L 107.068235 47.96364 
L 114.861176 48.2736 
L 122.654118 48.31788 
L 130.447059 48.4212 
L 138.24 48.58848 
" clip-path="url(#p4b62ce80e4)" style="fill: none; stroke: #bebebe; stroke-width: 0.6; stroke-linecap: round"/>
   </g>
   <g id="line2d_6">
    <path d="M 5.76 37.55292 
L 13.552941 37.26756 
L 21.345882 37.46436 
L 29.138824 37.44468 
L 36.931765 37.45944 
L 44.724706 38.41392 
L 52.517647 37.61196 
L 60.310588 36.95268 
L 68.103529 37.05108 
L 75.896471 38.37948 
L 83.689412 39.20604 
L 91.482353 41.03136 
L 99.275294 42.26628 
L 107.068235 41.73492 
L 114.861176 42.46308 
L 122.654118 42.53688 
L 130.447059 42.74844 
L 138.24 43.31424 
" clip-path="url(#p4b62ce80e4)" style="fill: none; stroke: #4a8dff; stroke-width: 0.7; stroke-linecap: round"/>
   </g>
   <g id="line2d_7">
    <path d="M 5.76 41.93172 
L 13.552941 41.42004 
L 21.345882 41.37576 
L 29.138824 41.39052 
L 36.931765 41.5086 
L 44.724706 42.80256 
L 52.517647 41.93664 
L 60.310588 41.49384 
L 68.103529 41.51352 
L 75.896471 43.78164 
L 83.689412 43.9932 
L 91.482353 46.66968 
L 99.275294 47.55036 
L 107.068235 46.64508 
L 114.861176 47.7078 
L 122.654118 47.96364 
L 130.447059 48.17028 
L 138.24 48.57864 
" clip-path="url(#p4b62ce80e4)" style="fill: none; stroke: #f5841e; stroke-width: 0.8; stroke-linecap: round"/>
   </g>
  </g>
 </g>
 <defs>
  <clipPath id="p4b62ce80e4">
   <rect x="5.76" y="3.6" width="132.48" height="49.2"/>
  </clipPath>
 </defs>
</svg>
