<?xml version="1.0" encoding="utf-8" standalone="no"?>
<!DOCTYPE svg PUBLIC "-//W3C//DTD SVG 1.1//EN"
  "http://www.w3.org/Graphics/SVG/1.1/DTD/svg11.dtd">
<svg xmlns:xlink="http://www.w3.org/1999/xlink" width="144pt" height="60pt" viewBox="0 0 144 60" xmlns="http://www.w3.org/2000/svg" version="1.1">
  <desc id="nav-meta">{"window":"1m","count":4,"labels":["12.02","22.02","04.03","14.03"],"tick_utc":["2026-02-12T03:34:13Z","2026-02-22T03:28:03Z","2026-03-04T03:14:13Z","2026-03-14T03:15:02Z"]}</desc>

 <metadata>
  <rdf:RDF xmlns:dc="http://purl.org/dc/elements/1.1/" xmlns:cc="http://creativecommons.org/ns#" xmlns:rdf="http://www.w3.org/1999/02/22-rdf-syntax-ns#">
   <cc:Work>
    <dc:type rdf:resource="http://purl.org/dc/dcmitype/StillImage"/>
    <dc:date>2026-03-14T03:15:04.167540</dc:date>
    <dc:format>image/svg+xml</dc:format>
    <dc:creator>
     <cc:Agent>
      <dc:title>Matplotlib v3.10.8, https://matplotlib.org/</dc:title>
     </cc:Agent>
    </dc:creator>
   </cc:Work>
  </rdf:RDF>
 </metadata>
 <defs>
  <style type="text/css">*{stroke-linejoin: round; stroke-linecap: butt}</style>
 </defs>
 <g id="figure_1">
  <g id="patch_1">
   <path d="M 0 60 
L 144 60 
L 144 0 
L 0 0 
L 0 60 
z
" style="fill: none; opacity: 0"/>
  </g>
  <g id="axes_1">
   <g id="patch_2">
    <path d="M 5.76 52.8 
L 138.24 52.8 
L 138.24 3.6 
L 5.76 3.6 
L 5.76 52.8 
z
" style="fill: none"/>
   </g>
   <g id="matplotlib.axis_1"/>
   <g id="matplotlib.axis_2"/>
   <g id="line2d_1">
    <path d="M 5.76 42.96 
L 138.24 42.96 
" clip-path="url(#p8530cbb398)" style="fill: none; stroke: #b2b2b2; stroke-opacity: 0.35; stroke-width: 0.5; stroke-linecap: square"/>
   </g>
   <g id="line2d_2">
    <path d="M 5.76 33.12 
L 138.24 33.12 
" clip-path="url(#p8530cbb398)" style="fill: none; stroke: #b2b2b2; stroke-opacity: 0.35; stroke-width: 0.5; stroke-linecap: square"/>
   </g>
   <g id="line2d_3">
    <path d="M 5.76 23.28 
L 138.24 23.28 
" clip-path="url(#p8530cbb398)" style="fill: none; stroke: #b2b2b2; stroke-opacity: 0.35; stroke-width: 0.5; stroke-linecap: square"/>
   </g>
   <g id="line2d_4">
    <path d="M 5.76 13.44 
L 138.24 13.44 
" clip-path="url(#p8530cbb398)" style="fill: none; stroke: #b2b2b2; stroke-opacity: 0.35; stroke-width: 0.5; stroke-linecap: square"/>
   </g>
   <g id="line2d_5">
    <path d="M 5.76 49.80372 
L 10.176632 49.86768 
L 14.541466 49.479 
L 18.726309 49.24776 
L 23.427654 49.48392 
L 27.290661 49.37568 
L 32.256573 49.479 
L 36.669165 49.7004 
L 41.061305 49.62168 
L 45.452268 49.5282 
L 49.920699 49.49376 
L 54.351955 49.98576 
L 58.396692 49.96608 
L 63.171977 49.7004 
L 67.570252 49.27236 
L 71.979828 49.37076 
L 76.345735 49.68072 
L 80.864073 49.25268 
L 85.236423 49.51344 
L 89.664663 49.4052 
L 94.057876 49.34124 
L 98.485349 49.09032 
L 102.901214 49.24284 
L 107.285274 49.49868 
L 111.746137 49.64628 
L 116.177343 49.58724 
L 120.566925 49.36092 
L 124.983149 49.41996 
L 129.418496 49.45932 
L 133.827919 49.16904 
L 138.24 49.22808 
" clip-path="url(#p8530cbb398)" style="fill: none; stroke: #bebebe; stroke-width: 0.6; stroke-linecap: round"/>
   </g>
   <g id="line2d_6">
    <path d="M 5.76 44.436 
L 10.176632 44.49012 
L 14.541466 43.81608 
L 18.726309 43.7226 
L 23.427654 44.5344 
L 27.290661 44.19 
L 32.256573 44.21952 
L 36.669165 44.3868 
L 41.061305 44.51472 
L 45.452268 44.4606 
L 49.920699 44.3868 
L 54.351955 45.174 
L 58.396692 45.23796 
L 63.171977 44.81484 
L 67.570252 43.821 
L 71.979828 44.01288 
L 76.345735 44.66232 
L 80.864073 43.93908 
L 85.236423 44.39664 
L 89.664663 44.12112 
L 94.057876 44.33268 
L 98.485349 43.3044 
L 102.901214 43.6242 
L 107.285274 44.29824 
L 111.746137 44.53932 
L 116.177343 44.30808 
L 120.566925 43.8702 
L 124.983149 44.00304 
L 129.418496 43.97844 
L 133.827919 43.41756 
L 138.24 43.48152 
" clip-path="url(#p8530cbb398)" style="fill: none; stroke: #4a8dff; stroke-width: 0.6; stroke-linecap: round"/>
   </g>
   <g id="line2d_7">
    <path d="M 5.76 49.49868 
L 10.176632 49.58724 
L 14.541466 49.28712 
L 18.726309 49.16904 
L 23.427654 49.39044 
L 27.290661 49.29696 
L 32.256573 49.479 
L 36.669165 49.55772 
L 41.061305 49.51344 
L 45.452268 49.44948 
L 49.920699 49.41996 
L 54.351955 49.8234 
L 58.396692 49.86768 
L 63.171977 49.72992 
L 67.570252 49.39536 
L 71.979828 49.52328 
L 76.345735 49.6758 
L 80.864073 49.47408 
L 85.236423 49.60692 
L 89.664663 49.37568 
L 94.057876 49.36584 
L 98.485349 48.6672 
L 102.901214 48.95256 
L 107.285274 49.36092 
L 111.746137 49.54788 
L 116.177343 49.5282 
L 120.566925 49.09032 
L 124.983149 49.16412 
L 129.418496 49.2084 
L 133.827919 48.93288 
L 138.24 48.95748 
" clip-path="url(#p8530cbb398)" style="fill: none; stroke: #f5841e; stroke-width: 0.7; stroke-linecap: round"/>
   </g>
  </g>
 </g>
 <defs>
  <clipPath id="p8530cbb398">
   <rect x="5.76" y="3.6" width="132.48" height="49.2"/>
  </clipPath>
 </defs>
</svg>
