<?xml version="1.0" encoding="utf-8" standalone="no"?>
<!DOCTYPE svg PUBLIC "-//W3C//DTD SVG 1.1//EN"
  "http://www.w3.org/Graphics/SVG/1.1/DTD/svg11.dtd">
<svg xmlns:xlink="http://www.w3.org/1999/xlink" width="144pt" height="60pt" viewBox="0 0 144 60" xmlns="http://www.w3.org/2000/svg" version="1.1">
  <desc id="nav-meta">{"window":"1w","count":4,"labels":["26.01","29.01","01.02","02.02"],"idxs":[0,30,61,91]}</desc>

 <metadata>
  <rdf:RDF xmlns:dc="http://purl.org/dc/elements/1.1/" xmlns:cc="http://creativecommons.org/ns#" xmlns:rdf="http://www.w3.org/1999/02/22-rdf-syntax-ns#">
   <cc:Work>
    <dc:type rdf:resource="http://purl.org/dc/dcmitype/StillImage"/>
    <dc:date>2026-02-02T15:02:29.169597</dc:date>
    <dc:format>image/svg+xml</dc:format>
    <dc:creator>
     <cc:Agent>
      <dc:title>Matplotlib v3.10.8, https://matplotlib.org/</dc:title>
     </cc:Agent>
    </dc:creator>
   </cc:Work>
  </rdf:RDF>
 </metadata>
 <defs>
  <style type="text/css">*{stroke-linejoin: round; stroke-linecap: butt}</style>
 </defs>
 <g id="figure_1">
  <g id="patch_1">
   <path d="M 0 60 
L 144 60 
L 144 0 
L 0 0 
L 0 60 
z
" style="fill: none; opacity: 0"/>
  </g>
  <g id="axes_1">
   <g id="patch_2">
    <path d="M 5.76 52.8 
L 138.24 52.8 
L 138.24 3.6 
L 5.76 3.6 
L 5.76 52.8 
z
" style="fill: none"/>
   </g>
   <g id="matplotlib.axis_1"/>
   <g id="matplotlib.axis_2"/>
   <g id="line2d_1">
    <path d="M 5.76 42.96 
L 138.24 42.96 
" clip-path="url(#pbef4d338f6)" style="fill: none; stroke: #b2b2b2; stroke-opacity: 0.35; stroke-width: 0.5; stroke-linecap: square"/>
   </g>
   <g id="line2d_2">
    <path d="M 5.76 33.12 
L 138.24 33.12 
" clip-path="url(#pbef4d338f6)" style="fill: none; stroke: #b2b2b2; stroke-opacity: 0.35; stroke-width: 0.5; stroke-linecap: square"/>
   </g>
   <g id="line2d_3">
    <path d="M 5.76 23.28 
L 138.24 23.28 
" clip-path="url(#pbef4d338f6)" style="fill: none; stroke: #b2b2b2; stroke-opacity: 0.35; stroke-width: 0.5; stroke-linecap: square"/>
   </g>
   <g id="line2d_4">
    <path d="M 5.76 13.44 
L 138.24 13.44 
" clip-path="url(#pbef4d338f6)" style="fill: none; stroke: #b2b2b2; stroke-opacity: 0.35; stroke-width: 0.5; stroke-linecap: square"/>
   </g>
   <g id="line2d_5">
    <path d="M 6.48 40.06212 
L 10.050572 40.030294 
L 11.835858 39.96372 
L 18.619946 39.866634 
L 19.691117 39.63408 
L 40.043379 39.735939 
L 41.471608 39.9096 
L 42.899837 39.98706 
L 44.328065 40.17528 
L 48.255695 40.147704 
L 49.683924 40.7706 
L 53.96861 40.87392 
L 56.468011 41.05104 
L 60.752698 40.951527 
L 61.466812 40.869 
L 64.680327 40.786955 
L 66.108556 40.6722 
L 67.179728 40.729256 
L 68.607956 41.04612 
L 70.036185 41.154709 
L 71.464414 41.84316 
L 72.535586 41.84316 
L 72.892643 41.954644 
L 74.320872 42.77304 
L 78.605559 42.729712 
L 80.033787 42.27612 
L 103.242507 42.383328 
L 104.670736 42.60084 
L 120.024196 42.69432 
L 120.381253 43.245467 
L 121.452425 47.425001 
L 121.809482 48.31296 
L 130.021798 48.206087 
L 133.592371 48.19488 
L 136.805886 48.100636 
L 137.52 48.00792 
L 137.52 48.00792 
" clip-path="url(#pbef4d338f6)" style="fill: none; stroke: #bebebe; stroke-width: 0.6; stroke-linecap: round"/>
   </g>
   <g id="line2d_6">
    <path d="M 6.48 34.70424 
L 8.265286 34.647613 
L 9.693515 34.46808 
L 11.835858 34.563638 
L 13.264087 34.60092 
L 16.477602 34.62552 
L 17.548774 34.132287 
L 17.905831 33.954175 
L 18.977003 33.9072 
L 30.045777 34.014582 
L 36.115749 34.045 
L 37.543978 33.981 
L 41.11455 33.989674 
L 42.542779 34.41888 
L 46.827466 34.422366 
L 48.255695 35.10768 
L 50.040981 35.181681 
L 51.46921 35.40288 
L 52.897439 35.463985 
L 54.325668 35.66364 
L 56.110954 35.750752 
L 57.539183 35.8506 
L 61.466812 35.902763 
L 62.895041 36.254804 
L 65.037384 36.1212 
L 65.751499 36.182894 
L 67.179728 36.50496 
L 68.607956 36.61438 
L 70.036185 37.26264 
L 71.107357 37.26264 
L 71.464414 37.408819 
L 72.892643 38.40408 
L 77.17733 38.345429 
L 78.605559 37.78908 
L 84.318474 37.833615 
L 86.10376 38.09412 
L 101.814278 38.20232 
L 103.599564 38.37456 
L 106.098965 38.454192 
L 107.527193 38.81736 
L 112.168937 38.720167 
L 113.597166 38.57136 
L 117.524796 38.608521 
L 118.595967 38.850071 
L 118.953025 39.233831 
L 120.024196 41.598085 
L 120.381253 42.0744 
L 122.16654 42.157517 
L 123.594768 42.3204 
L 135.020599 42.252633 
L 136.091771 41.8038 
L 137.52 41.8038 
L 137.52 41.8038 
" clip-path="url(#pbef4d338f6)" style="fill: none; stroke: #4a8dff; stroke-width: 0.7; stroke-linecap: round"/>
   </g>
   <g id="line2d_7">
    <path d="M 6.48 39.78168 
L 7.908229 39.78168 
L 9.693515 39.30444 
L 11.121744 39.364901 
L 12.549973 39.57504 
L 14.335259 39.662353 
L 15.763488 39.76692 
L 16.477602 39.76692 
L 17.548774 39.256795 
L 17.905831 39.072583 
L 18.977003 39.024 
L 27.546376 39.134412 
L 30.045777 39.159964 
L 36.115749 39.067878 
L 37.186921 38.9502 
L 38.61515 39.015514 
L 40.043379 39.15684 
L 41.11455 39.181802 
L 42.542779 39.639 
L 46.827466 39.637566 
L 48.255695 40.32288 
L 49.683924 40.3254 
L 51.112153 41.242799 
L 52.897439 41.344685 
L 54.325668 41.66112 
L 56.110954 41.757402 
L 57.539183 41.86776 
L 58.610354 41.813198 
L 60.038583 41.59716 
L 61.823869 41.507635 
L 63.966213 41.299895 
L 65.751499 41.354605 
L 67.179728 41.6808 
L 68.250899 41.6808 
L 68.965014 41.987744 
L 70.036185 42.46308 
L 71.107357 42.46308 
L 71.464414 42.657775 
L 72.535586 43.788665 
L 72.892643 43.98336 
L 77.17733 43.930339 
L 78.605559 43.4274 
L 85.389646 43.535358 
L 86.817875 43.57008 
L 102.171335 43.63766 
L 103.599564 43.73736 
L 106.098965 43.785139 
L 107.884251 44.00304 
L 117.167738 43.99812 
L 117.524796 44.429418 
L 118.595967 47.232852 
L 118.953025 47.761612 
L 122.16654 47.754212 
L 124.308883 47.82588 
L 127.879455 47.761317 
L 129.307684 47.61432 
L 134.663542 47.605633 
L 136.091771 47.08296 
L 137.52 47.08296 
L 137.52 47.08296 
" clip-path="url(#pbef4d338f6)" style="fill: none; stroke: #f5841e; stroke-width: 0.8; stroke-linecap: round"/>
   </g>
  </g>
 </g>
 <defs>
  <clipPath id="pbef4d338f6">
   <rect x="5.76" y="3.6" width="132.48" height="49.2"/>
  </clipPath>
 </defs>
</svg>
