<?xml version="1.0" encoding="utf-8" standalone="no"?>
<!DOCTYPE svg PUBLIC "-//W3C//DTD SVG 1.1//EN"
  "http://www.w3.org/Graphics/SVG/1.1/DTD/svg11.dtd">
<svg xmlns:xlink="http://www.w3.org/1999/xlink" width="144pt" height="60pt" viewBox="0 0 144 60" xmlns="http://www.w3.org/2000/svg" version="1.1">
  <desc id="nav-meta">{"window":"1y","count":4,"labels":["08.05","06.09","05.01","07.05"],"tick_utc":["2025-05-08T12:00:00Z","2025-09-06T12:00:00Z","2026-01-05T12:00:00Z","2026-05-07T04:25:17Z"]}</desc>

 <metadata>
  <rdf:RDF xmlns:dc="http://purl.org/dc/elements/1.1/" xmlns:cc="http://creativecommons.org/ns#" xmlns:rdf="http://www.w3.org/1999/02/22-rdf-syntax-ns#">
   <cc:Work>
    <dc:type rdf:resource="http://purl.org/dc/dcmitype/StillImage"/>
    <dc:date>2026-05-07T20:05:40.808678</dc:date>
    <dc:format>image/svg+xml</dc:format>
    <dc:creator>
     <cc:Agent>
      <dc:title>Matplotlib v3.10.9, https://matplotlib.org/</dc:title>
     </cc:Agent>
    </dc:creator>
   </cc:Work>
  </rdf:RDF>
 </metadata>
 <defs>
  <style type="text/css">*{stroke-linejoin: round; stroke-linecap: butt}</style>
 </defs>
 <g id="figure_1">
  <g id="patch_1">
   <path d="M 0 60 
L 144 60 
L 144 0 
L 0 0 
L 0 60 
z
" style="fill: none; opacity: 0"/>
  </g>
  <g id="axes_1">
   <g id="patch_2">
    <path d="M 5.76 52.8 
L 138.24 52.8 
L 138.24 3.6 
L 5.76 3.6 
L 5.76 52.8 
z
" style="fill: none"/>
   </g>
   <g id="matplotlib.axis_1"/>
   <g id="matplotlib.axis_2"/>
   <g id="line2d_1">
    <path d="M 5.76 42.96 
L 138.24 42.96 
" clip-path="url(#p8a7932f23d)" style="fill: none; stroke: #b2b2b2; stroke-opacity: 0.35; stroke-width: 0.5; stroke-linecap: square"/>
   </g>
   <g id="line2d_2">
    <path d="M 5.76 33.12 
L 138.24 33.12 
" clip-path="url(#p8a7932f23d)" style="fill: none; stroke: #b2b2b2; stroke-opacity: 0.35; stroke-width: 0.5; stroke-linecap: square"/>
   </g>
   <g id="line2d_3">
    <path d="M 5.76 23.28 
L 138.24 23.28 
" clip-path="url(#p8a7932f23d)" style="fill: none; stroke: #b2b2b2; stroke-opacity: 0.35; stroke-width: 0.5; stroke-linecap: square"/>
   </g>
   <g id="line2d_4">
    <path d="M 5.76 13.44 
L 138.24 13.44 
" clip-path="url(#p8a7932f23d)" style="fill: none; stroke: #b2b2b2; stroke-opacity: 0.35; stroke-width: 0.5; stroke-linecap: square"/>
   </g>
   <g id="line2d_5">
    <path d="M 5.76 42.44832 
L 6.124272 40.33272 
L 6.488544 39.12732 
L 6.852816 38.52216 
L 7.217088 39.10272 
L 7.58136 38.901 
L 7.945632 37.6464 
L 8.674176 39.639 
L 9.402721 40.008 
L 9.766993 39.27492 
L 10.131265 39.90468 
L 10.495537 39.6882 
L 11.224081 38.22696 
L 11.588353 38.901 
L 11.952625 38.69436 
L 12.681169 38.86164 
L 13.045441 38.62056 
L 13.773985 39.88992 
L 14.138257 41.23308 
L 15.231073 41.17404 
L 15.959618 41.62176 
L 16.32389 42.79272 
L 16.688162 42.30564 
L 17.416706 41.7546 
L 17.780978 40.62792 
L 18.14525 40.131 
L 18.509522 40.6476 
L 18.873794 41.73492 
L 19.602338 42.76812 
L 19.96661 41.73492 
L 20.330882 41.89728 
L 20.695154 42.345 
L 21.059426 42.5664 
L 21.423698 42.46308 
L 22.152242 44.20476 
L 22.516515 44.45076 
L 22.880787 42.7632 
L 23.245059 42.63036 
L 23.609331 42.94524 
L 23.973603 43.52088 
L 24.337875 43.1076 
L 24.702147 41.98092 
L 25.430691 41.43972 
L 25.794963 42.4926 
L 26.159235 41.79888 
L 26.523507 41.78412 
L 26.887779 42.37452 
L 27.252051 42.3942 
L 27.616323 41.83332 
L 27.980595 42.24168 
L 28.344867 41.84316 
L 29.073412 40.2786 
L 29.437684 40.42128 
L 29.801956 40.71648 
L 30.5305 40.48032 
L 30.894772 40.26384 
L 31.259044 38.97972 
L 31.987588 38.51724 
L 32.35186 38.57628 
L 32.716132 38.04492 
L 33.080404 36.03264 
L 33.444676 34.88136 
L 33.808948 36.92316 
L 34.17322 37.8432 
L 34.537492 37.37088 
L 34.901764 37.53324 
L 35.266036 37.056 
L 35.630309 37.77924 
L 35.994581 38.02032 
L 36.358853 38.45328 
L 36.723125 39.1962 
L 37.087397 40.41636 
L 37.451669 40.97232 
L 37.815941 40.53444 
L 38.180213 39.55536 
L 38.544485 40.24908 
L 38.908757 39.7128 
L 39.273029 38.778 
L 39.637301 38.59104 
L 40.365845 37.794 
L 40.730117 38.82228 
L 41.094389 36.53448 
L 41.458661 35.334 
L 42.187206 37.44468 
L 42.551478 36.90348 
L 42.91575 36.65748 
L 43.644294 38.64516 
L 44.008566 37.2282 
L 44.372838 38.14332 
L 44.73711 35.53572 
L 45.101382 35.04372 
L 45.465654 34.80264 
L 45.829926 37.23804 
L 46.922742 33.67104 
L 47.287014 34.90596 
L 48.37983 35.9736 
L 48.744103 34.36476 
L 49.108375 34.1778 
L 49.472647 35.22084 
L 49.836919 35.11752 
L 50.201191 35.54556 
L 51.658279 32.44104 
L 52.022551 31.83096 
L 52.386823 30.06468 
L 52.751095 30.01056 
L 53.115367 30.291 
L 53.479639 31.16184 
L 53.843911 30.74856 
L 54.208183 29.71536 
L 54.572455 29.37588 
L 54.936727 30.57636 
L 55.301 30.42876 
L 55.665272 30.79284 
L 56.029544 32.91828 
L 56.393816 33.72024 
L 56.758088 34.05972 
L 57.12236 36.5886 
L 57.486632 34.90104 
L 57.850904 35.10276 
L 58.215176 34.16796 
L 58.579448 33.8826 
L 58.94372 34.43364 
L 59.672264 31.05852 
L 60.036536 31.26024 
L 60.400808 31.92936 
L 60.76508 31.85064 
L 61.129352 31.3242 
L 61.493624 32.84448 
L 61.857897 31.78176 
L 62.222169 32.85924 
L 62.586441 36.8838 
L 62.950713 38.39424 
L 63.314985 35.95392 
L 63.679257 34.53696 
L 64.043529 35.20608 
L 64.772073 37.57752 
L 65.136345 37.90716 
L 65.500617 37.18884 
L 65.864889 37.18392 
L 66.229161 36.89364 
L 66.593433 37.42008 
L 66.957705 38.17284 
L 67.321977 36.687 
L 67.686249 36.42132 
L 68.050521 36.34752 
L 68.414794 35.56032 
L 68.779066 35.72268 
L 69.143338 36.29832 
L 69.50761 36.32292 
L 69.871882 37.61688 
L 70.236154 37.2282 
L 70.600426 37.34628 
L 70.964698 37.23804 
L 71.32897 40.008 
L 71.693242 41.36592 
L 72.057514 40.43604 
L 72.421786 41.44956 
L 72.786058 40.53444 
L 73.15033 41.02152 
L 73.514602 40.22448 
L 73.878874 39.79644 
L 74.243146 41.51844 
L 74.607418 41.66604 
L 75.335963 43.51596 
L 75.700235 43.43724 
L 76.064507 43.71276 
L 76.428779 44.59836 
L 76.793051 43.30932 
L 77.885867 44.88372 
L 78.250139 44.99688 
L 78.614411 44.57868 
L 78.978683 43.5996 
L 79.342955 43.51596 
L 79.707227 43.00428 
L 80.071499 43.2798 
L 80.435771 43.71768 
L 81.164315 44.0916 
L 81.528588 45.11004 
L 81.89286 43.55532 
L 82.257132 42.72876 
L 82.985676 44.27364 
L 83.71422 44.47536 
L 84.078492 44.25888 
L 84.442764 43.64388 
L 84.807036 43.84068 
L 85.171308 43.85052 
L 85.53558 44.36712 
L 85.899852 44.26872 
L 86.264124 44.74104 
L 86.628396 44.98704 
L 86.992668 44.84436 
L 87.35694 45.58728 
L 87.721212 46.0596 
L 88.085485 45.18384 
L 89.542573 45.47904 
L 89.906845 45.65616 
L 90.271117 45.98088 
L 90.999661 45.38556 
L 91.363933 45.31668 
L 91.728205 45.58728 
L 92.092477 45.35604 
L 92.456749 45.40032 
L 92.821021 45.11496 
L 93.185293 44.42124 
L 93.913837 44.18508 
L 94.642382 43.24044 
L 95.006654 43.8702 
L 95.370926 43.60944 
L 95.735198 43.92924 
L 96.09947 43.93416 
L 96.463742 43.46184 
L 96.828014 43.5012 
L 97.192286 42.72384 
L 97.556558 42.51228 
L 97.92083 43.08792 
L 98.285102 42.75828 
L 98.649374 42.90096 
L 99.377918 44.2392 
L 99.74219 45.23304 
L 100.106462 44.77548 
L 100.835006 45.04608 
L 101.199279 45.07068 
L 101.563551 46.1334 
L 101.927823 45.4446 
L 102.292095 45.06084 
L 102.656367 45.33144 
L 103.020639 46.30068 
L 103.384911 46.34496 
L 103.749183 47.89476 
L 104.113455 48.26376 
L 104.477727 47.96364 
L 105.438823 50.04972 
L 105.801536 49.24776 
L 107.265268 49.59708 
L 107.628229 49.80372 
L 107.992392 49.86768 
L 108.697334 49.24776 
L 109.084972 49.48392 
L 109.403486 49.37568 
L 109.812938 49.479 
L 110.176768 49.7004 
L 111.26939 49.49376 
L 111.634758 49.98576 
L 111.968257 49.96608 
L 112.361991 49.7004 
L 112.72464 49.27236 
L 113.08822 49.37076 
L 113.4482 49.68072 
L 113.820749 49.25268 
L 114.18126 49.51344 
L 115.273667 49.09032 
L 116.732417 49.58724 
L 117.094349 49.36092 
L 117.824183 49.45932 
L 118.187751 49.16904 
L 118.922779 49.27236 
L 119.28808 48.87384 
L 120.013028 48.70164 
L 120.377401 49.03128 
L 120.738127 49.1592 
L 121.100266 49.08048 
L 121.835113 49.36584 
L 122.587415 48.90828 
L 122.928988 49.05096 
L 123.654509 49.64628 
L 125.118427 49.59708 
L 125.477901 49.8726 
L 126.203743 49.80864 
L 127.300619 49.83816 
L 127.665482 49.50852 
L 128.028485 49.68564 
L 128.754811 49.48884 
L 129.491758 49.69056 
L 129.853711 49.40028 
L 130.217705 49.58724 
L 131.307338 49.19856 
L 131.67642 49.43472 
L 132.041595 49.50852 
L 133.858322 49.37568 
L 134.22826 49.4052 
L 134.596457 49.29204 
L 134.961492 49.5528 
L 135.32477 49.50852 
L 135.689653 49.64136 
L 136.412881 49.56264 
L 136.784548 49.57248 
L 137.148693 49.42488 
L 137.504942 49.49376 
L 138.24 49.25268 
L 138.24 49.25268 
" clip-path="url(#p8a7932f23d)" style="fill: none; stroke: #bebebe; stroke-width: 0.6; stroke-linecap: round"/>
   </g>
   <g id="line2d_6">
    <path d="M 5.76 45.51348 
L 6.124272 42.77796 
L 6.488544 41.75952 
L 6.852816 40.04244 
L 7.217088 40.58364 
L 7.58136 40.69188 
L 7.945632 39.38808 
L 8.674176 40.33764 
L 9.038448 40.32288 
L 9.402721 40.81488 
L 9.766993 40.88376 
L 10.131265 40.44588 
L 10.495537 40.46556 
L 10.859809 40.21956 
L 11.224081 39.52584 
L 11.588353 40.49508 
L 12.681169 40.19496 
L 13.045441 39.4914 
L 13.409713 39.38808 
L 13.773985 39.69312 
L 14.138257 40.46556 
L 14.866801 40.36716 
L 15.231073 39.8604 
L 15.595345 39.96372 
L 15.959618 39.85548 
L 16.32389 41.1888 
L 17.052434 40.4508 
L 17.416706 40.5738 
L 18.14525 38.45328 
L 18.509522 38.68452 
L 18.873794 39.55536 
L 19.238066 40.09164 
L 19.602338 40.39668 
L 20.330882 40.2048 
L 20.695154 40.52952 
L 21.423698 40.48032 
L 22.152242 42.26136 
L 22.516515 42.5664 
L 22.880787 41.17404 
L 23.245059 41.0166 
L 23.609331 41.22324 
L 24.337875 41.17896 
L 24.702147 41.08056 
L 25.066419 40.61808 
L 25.430691 40.7214 
L 25.794963 41.30688 
L 26.159235 40.11132 
L 26.523507 39.99816 
L 26.887779 40.56888 
L 27.252051 40.51476 
L 27.616323 40.131 
L 27.980595 40.3278 
L 28.344867 39.81612 
L 29.073412 37.46436 
L 29.437684 37.39056 
L 29.801956 37.50372 
L 30.5305 37.01172 
L 30.894772 36.16056 
L 31.259044 34.4976 
L 31.623316 33.69072 
L 32.35186 32.89368 
L 32.716132 31.73256 
L 33.080404 31.68336 
L 33.444676 31.8162 
L 33.808948 32.64276 
L 34.17322 32.0868 
L 34.901764 31.85064 
L 35.266036 30.98964 
L 35.630309 31.53576 
L 35.994581 31.521 
L 36.358853 31.38816 
L 36.723125 32.17044 
L 37.087397 33.68088 
L 37.451669 34.28604 
L 37.815941 33.58248 
L 38.180213 32.0376 
L 38.544485 32.76576 
L 38.908757 32.259 
L 39.273029 30.65508 
L 39.637301 29.93676 
L 40.001573 28.14588 
L 40.730117 28.40664 
L 41.094389 25.73508 
L 41.458661 24.62316 
L 41.822933 26.10408 
L 42.187206 26.97984 
L 42.551478 27.00936 
L 42.91575 26.58132 
L 43.280022 27.7818 
L 43.644294 29.49888 
L 44.008566 27.68832 
L 44.372838 28.44108 
L 44.73711 24.16068 
L 45.101382 24.55428 
L 45.465654 24.51984 
L 45.829926 27.32916 
L 46.194198 25.7646 
L 46.55847 26.48784 
L 46.922742 26.43372 
L 47.287014 27.44724 
L 48.015558 27.27504 
L 48.37983 27.8802 
L 48.744103 27.72276 
L 49.108375 26.84208 
L 49.472647 27.91956 
L 49.836919 27.8556 
L 50.201191 28.09668 
L 50.565463 27.87528 
L 51.294007 27.83592 
L 51.658279 27.57024 
L 52.022551 26.77812 
L 52.386823 25.01184 
L 53.115367 25.71048 
L 53.479639 26.31564 
L 53.843911 26.45832 
L 54.208183 25.8384 
L 54.572455 25.84824 
L 54.936727 26.6994 
L 55.301 26.62068 
L 55.665272 26.8224 
L 56.029544 28.61328 
L 56.758088 28.97244 
L 57.12236 30.99456 
L 57.486632 29.76456 
L 57.850904 29.8974 
L 58.215176 29.02164 
L 58.579448 28.50012 
L 58.94372 29.00688 
L 59.672264 26.601 
L 60.036536 26.3796 
L 60.400808 26.5764 
L 60.76508 26.3796 
L 61.129352 25.1496 
L 61.493624 26.81256 
L 61.857897 26.29596 
L 62.222169 27.41772 
L 62.586441 31.19136 
L 62.950713 31.80144 
L 63.314985 28.89864 
L 63.679257 28.28364 
L 64.772073 30.80268 
L 65.136345 31.22088 
L 65.500617 30.8076 
L 65.864889 30.13356 
L 66.229161 30.17784 
L 66.957705 31.42752 
L 67.321977 31.04376 
L 67.686249 30.49764 
L 68.050521 30.3648 
L 68.414794 28.88388 
L 68.779066 29.15448 
L 69.143338 30.15324 
L 69.871882 31.4226 
L 70.600426 30.9306 
L 70.964698 30.66 
L 71.693242 34.99944 
L 72.057514 34.07448 
L 72.421786 34.9158 
L 72.786058 34.02528 
L 73.15033 34.26144 
L 73.514602 33.0216 
L 73.878874 33.10524 
L 74.243146 34.1532 
L 74.607418 34.2024 
L 75.335963 36.34752 
L 75.700235 35.89488 
L 76.428779 36.94776 
L 76.793051 36.2688 
L 77.157323 36.97236 
L 77.521595 38.286 
L 77.885867 38.76324 
L 78.250139 38.73864 
L 78.614411 38.51724 
L 78.978683 37.42992 
L 79.342955 37.42008 
L 79.707227 36.90348 
L 80.071499 36.98712 
L 80.435771 36.86412 
L 80.800043 37.16424 
L 81.164315 37.14948 
L 81.528588 38.52216 
L 82.257132 35.71776 
L 82.621404 36.15564 
L 82.985676 36.93792 
L 83.71422 36.72636 
L 84.078492 36.21468 
L 84.442764 34.8174 
L 84.807036 34.7928 
L 85.171308 35.42748 
L 85.53558 36.49512 
L 85.899852 36.28356 
L 86.264124 36.6378 
L 86.628396 37.3512 
L 86.992668 37.3512 
L 87.35694 38.31552 
L 87.721212 38.32536 
L 88.085485 37.26264 
L 88.449757 37.26264 
L 88.814029 37.09044 
L 89.178301 37.06092 
L 89.542573 37.34628 
L 89.906845 37.48404 
L 90.271117 37.77924 
L 90.999661 37.45944 
L 91.728205 37.56276 
L 92.092477 37.31184 
L 92.456749 37.33644 
L 92.821021 37.09536 
L 93.185293 36.23928 
L 93.913837 36.11628 
L 94.642382 35.0142 
L 95.006654 35.93424 
L 95.370926 36.36228 
L 95.735198 36.50988 
L 96.09947 36.5148 
L 96.463742 36.25404 
L 96.828014 36.46068 
L 97.192286 34.83708 
L 97.556558 34.57632 
L 98.285102 35.00436 
L 98.649374 34.93056 
L 99.013646 35.088 
L 99.377918 35.78664 
L 99.74219 37.55292 
L 100.106462 37.26756 
L 100.470734 37.46436 
L 101.199279 37.45944 
L 101.563551 38.41392 
L 102.292095 36.95268 
L 102.656367 37.05108 
L 103.020639 38.37948 
L 103.384911 39.20604 
L 103.749183 41.03136 
L 104.113455 42.26628 
L 104.477727 41.73492 
L 104.785254 42.23676 
L 105.438823 44.89356 
L 105.801536 43.6242 
L 106.5354 43.53072 
L 106.901751 43.72752 
L 107.628229 44.436 
L 107.992392 44.49012 
L 108.352283 43.81608 
L 108.697334 43.7226 
L 109.084972 44.5344 
L 109.403486 44.19 
L 109.812938 44.21952 
L 110.53891 44.51472 
L 111.26939 44.3868 
L 111.634758 45.174 
L 111.968257 45.23796 
L 112.361991 44.81484 
L 112.72464 43.821 
L 113.08822 44.01288 
L 113.4482 44.66232 
L 113.820749 43.93908 
L 114.18126 44.39664 
L 114.546379 44.12112 
L 114.908611 44.33268 
L 115.273667 43.3044 
L 115.637766 43.6242 
L 115.999243 44.29824 
L 116.367053 44.53932 
L 116.732417 44.30808 
L 117.094349 43.8702 
L 117.458477 44.00304 
L 117.824183 43.97844 
L 118.187751 43.41756 
L 118.922779 43.48644 
L 119.645977 41.73984 
L 120.013028 41.7546 
L 120.738127 43.14204 
L 121.100266 43.083 
L 121.469985 43.35852 
L 121.835113 43.78164 
L 122.196013 43.21584 
L 122.587415 42.9354 
L 122.928988 43.10268 
L 123.654509 44.25396 
L 124.751031 43.74228 
L 125.118427 43.46676 
L 125.842591 43.79148 
L 126.5735 43.77672 
L 126.938712 43.2552 
L 127.300619 43.40772 
L 127.665482 42.49752 
L 128.028485 42.90588 
L 128.396108 42.8616 
L 128.754811 42.41388 
L 129.491758 42.79764 
L 129.853711 41.57256 
L 130.217705 41.86284 
L 130.583554 41.63652 
L 130.947084 41.85792 
L 131.307338 41.22324 
L 132.041595 42.1482 
L 132.404269 41.96616 
L 132.767411 41.59224 
L 133.498396 41.99076 
L 133.858322 41.91696 
L 134.22826 41.98584 
L 134.596457 41.41512 
L 134.961492 42.15312 
L 135.32477 41.96124 
L 135.689653 42.43848 
L 136.412881 42.02028 
L 136.784548 42.0252 
L 137.148693 41.40528 
L 137.875631 41.52336 
L 138.24 41.86776 
L 138.24 41.86776 
" clip-path="url(#p8a7932f23d)" style="fill: none; stroke: #4a8dff; stroke-width: 0.6; stroke-linecap: round"/>
   </g>
   <g id="line2d_7">
    <path d="M 5.76 37.63164 
L 6.124272 34.64028 
L 6.488544 34.69932 
L 6.852816 33.87276 
L 7.217088 34.18764 
L 7.58136 34.73868 
L 7.945632 34.09416 
L 8.309904 34.38444 
L 8.674176 34.33032 
L 9.402721 34.57632 
L 9.766993 33.18396 
L 10.131265 33.38076 
L 10.495537 32.81004 
L 10.859809 31.38816 
L 11.224081 30.45336 
L 11.588353 32.59848 
L 11.952625 32.29344 
L 12.316897 31.78176 
L 12.681169 31.53084 
L 13.045441 31.68336 
L 13.409713 32.28852 
L 14.138257 34.1778 
L 14.502529 33.84324 
L 14.866801 33.3414 
L 15.231073 33.25284 
L 15.959618 33.7842 
L 16.32389 35.34384 
L 16.688162 33.981 
L 17.052434 33.35616 
L 17.416706 33.35124 
L 17.780978 31.09296 
L 18.14525 31.11756 
L 18.509522 31.87524 
L 18.873794 33.20856 
L 19.238066 33.17412 
L 19.602338 33.45456 
L 19.96661 33.4152 
L 20.330882 32.7264 
L 20.695154 33.84816 
L 21.423698 33.84324 
L 22.516515 35.73744 
L 22.880787 33.4398 
L 23.245059 33.20856 
L 23.609331 32.58372 
L 23.973603 32.71164 
L 24.702147 32.53944 
L 25.066419 32.013 
L 25.794963 33.3906 
L 26.159235 31.80144 
L 26.523507 31.41768 
L 26.887779 32.19012 
L 27.252051 32.10156 
L 27.616323 31.60956 
L 27.980595 32.0622 
L 28.344867 31.73748 
L 28.709139 30.56652 
L 29.073412 28.31808 
L 29.437684 27.48168 
L 29.801956 27.55548 
L 30.166228 26.71908 
L 30.5305 26.36484 
L 30.894772 27.42756 
L 31.623316 26.55672 
L 31.987588 27.27504 
L 32.35186 27.31932 
L 32.716132 27.63912 
L 33.080404 27.52596 
L 33.444676 26.3058 
L 33.808948 26.96016 
L 34.17322 27.09792 
L 34.537492 27.49644 
L 34.901764 27.2898 
L 35.266036 26.57148 
L 35.630309 27.27012 
L 36.358853 27.35376 
L 37.087397 29.62188 
L 37.451669 29.96136 
L 37.815941 29.14956 
L 38.180213 28.68216 
L 38.544485 29.184 
L 38.908757 28.7412 
L 39.273029 27.5358 
L 39.637301 27.91956 
L 40.001573 28.00812 
L 40.365845 26.64528 
L 40.730117 26.88636 
L 41.094389 26.1828 
L 41.458661 24.52476 
L 41.822933 27.0684 
L 42.187206 27.59484 
L 42.91575 27.49644 
L 43.280022 28.13112 
L 43.644294 29.8482 
L 44.008566 29.12004 
L 44.372838 30.03024 
L 44.73711 27.84576 
L 45.465654 29.54316 
L 45.829926 31.13232 
L 46.194198 30.31068 
L 46.55847 30.62064 
L 46.922742 29.97612 
L 47.287014 31.97364 
L 47.651286 31.82112 
L 48.015558 32.0868 
L 48.37983 31.63416 
L 48.744103 30.6354 
L 49.108375 30.37464 
L 49.472647 30.86172 
L 49.836919 30.89616 
L 50.201191 31.11756 
L 50.929735 30.22212 
L 51.294007 30.45828 
L 51.658279 29.2578 
L 52.022551 28.50504 
L 52.386823 28.18032 
L 52.751095 28.2738 
L 53.115367 28.569 
L 53.479639 28.55424 
L 53.843911 27.8802 
L 54.208183 28.03272 
L 54.572455 27.69324 
L 54.936727 28.42632 
L 55.301 28.3968 
L 55.665272 28.60344 
L 56.029544 29.88756 
L 56.393816 30.22212 
L 56.758088 29.58252 
L 57.12236 31.73256 
L 57.486632 31.36356 
L 57.850904 31.39308 
L 58.579448 29.09544 
L 58.94372 29.2332 
L 59.307992 27.02412 
L 60.036536 25.16928 
L 60.400808 25.10532 
L 61.129352 23.92452 
L 61.493624 25.53336 
L 61.857897 24.62808 
L 62.222169 25.4448 
L 62.586441 29.64156 
L 62.950713 30.80268 
L 63.314985 28.65756 
L 63.679257 28.6428 
L 64.407801 30.87156 
L 64.772073 32.17044 
L 65.136345 32.97732 
L 65.500617 32.628 
L 65.864889 31.90476 
L 66.229161 30.92076 
L 66.593433 31.96872 
L 66.957705 32.39676 
L 67.321977 31.19628 
L 68.050521 30.42384 
L 68.414794 29.0118 
L 68.779066 29.15448 
L 69.143338 29.76456 
L 69.50761 31.2012 
L 69.871882 32.09172 
L 70.236154 31.43244 
L 70.964698 30.90108 
L 71.693242 35.35368 
L 72.057514 34.24668 
L 72.421786 35.5062 
L 72.786058 34.48284 
L 73.15033 35.02896 
L 73.514602 33.8334 
L 73.878874 33.243 
L 74.243146 34.69932 
L 74.971691 36.2934 
L 75.335963 38.901 
L 75.700235 38.37948 
L 76.064507 38.92068 
L 76.428779 40.09164 
L 76.793051 39.70788 
L 77.157323 40.4262 
L 77.521595 42.75336 
L 77.885867 43.54548 
L 78.250139 43.72752 
L 78.978683 41.976 
L 79.342955 42.42864 
L 79.707227 40.86408 
L 80.071499 40.47048 
L 81.164315 40.89852 
L 81.528588 42.9354 
L 81.89286 40.43604 
L 82.257132 39.31428 
L 82.621404 40.04244 
L 82.985676 41.43972 
L 83.349948 41.47416 
L 83.71422 41.02152 
L 84.078492 40.7952 
L 84.442764 39.75708 
L 84.807036 40.11132 
L 85.171308 39.87024 
L 85.53558 40.94772 
L 85.899852 40.97232 
L 86.628396 42.87144 
L 86.992668 42.17772 
L 87.35694 43.04364 
L 87.721212 43.34868 
L 88.085485 42.03504 
L 88.814029 41.8038 
L 89.178301 41.84316 
L 89.542573 42.37944 
L 89.906845 42.26628 
L 90.271117 42.468 
L 90.635389 42.42864 
L 90.999661 42.18264 
L 91.363933 42.1728 
L 91.728205 42.50244 
L 92.092477 41.88252 
L 92.456749 42.32532 
L 93.185293 41.13468 
L 93.913837 40.42128 
L 94.278109 39.16176 
L 94.642382 39.28968 
L 95.006654 40.48032 
L 96.09947 40.88376 
L 96.828014 40.53936 
L 97.192286 38.50248 
L 97.556558 37.63656 
L 97.92083 38.34012 
L 98.285102 38.37456 
L 98.649374 38.5812 
L 99.377918 39.8358 
L 99.74219 41.93172 
L 100.106462 41.42004 
L 100.835006 41.39052 
L 101.199279 41.5086 
L 101.563551 42.80256 
L 101.927823 41.93664 
L 102.292095 41.49384 
L 102.656367 41.51352 
L 103.020639 43.78164 
L 103.384911 43.9932 
L 103.749183 46.66968 
L 104.113455 47.55036 
L 104.477727 46.64508 
L 105.074737 48.89352 
L 105.438823 49.84308 
L 105.801536 49.00176 
L 106.174134 49.233 
L 106.5354 48.97716 
L 107.265268 49.36092 
L 107.992392 49.58724 
L 108.352283 49.28712 
L 108.697334 49.16904 
L 109.084972 49.39044 
L 109.403486 49.29696 
L 110.176768 49.55772 
L 111.26939 49.41996 
L 111.634758 49.8234 
L 111.968257 49.86768 
L 112.361991 49.72992 
L 112.72464 49.39536 
L 113.4482 49.6758 
L 113.820749 49.47408 
L 114.18126 49.60692 
L 114.546379 49.37568 
L 114.908611 49.36584 
L 115.273667 48.6672 
L 116.367053 49.54788 
L 116.732417 49.5282 
L 117.094349 49.09032 
L 117.824183 49.2084 
L 118.187751 48.93288 
L 118.922779 48.89844 
L 119.645977 48.1998 
L 120.013028 48.28344 
L 120.377401 48.88368 
L 120.738127 49.04604 
L 121.100266 49.00176 
L 121.835113 49.38552 
L 122.196013 49.04112 
L 122.587415 48.92796 
L 122.928988 48.987 
L 123.654509 49.66104 
L 125.118427 49.40028 
L 125.477901 49.56756 
L 126.203743 49.56264 
L 126.5735 49.53312 
L 126.938712 49.25268 
L 127.300619 49.29696 
L 127.665482 48.89352 
L 128.028485 48.96732 
L 128.754811 48.5934 
L 129.125618 48.84432 
L 129.491758 48.95748 
L 129.853711 48.30804 
L 130.217705 48.34248 
L 130.583554 48.21456 
L 130.947084 48.26376 
L 131.307338 47.41752 
L 131.67642 48.05712 
L 132.041595 48.26376 
L 132.404269 48.01776 
L 132.767411 47.23548 
L 133.858322 47.1666 
L 134.22826 47.31912 
L 134.596457 46.49256 
L 134.961492 47.64876 
L 135.32477 47.5356 
L 135.689653 48.0276 
L 136.412881 46.81728 
L 136.784548 46.92552 
L 137.148693 45.85788 
L 137.875631 45.29208 
L 138.24 45.58728 
L 138.24 45.58728 
" clip-path="url(#p8a7932f23d)" style="fill: none; stroke: #f5841e; stroke-width: 0.7; stroke-linecap: round"/>
   </g>
  </g>
 </g>
 <defs>
  <clipPath id="p8a7932f23d">
   <rect x="5.76" y="3.6" width="132.48" height="49.2"/>
  </clipPath>
 </defs>
</svg>
