<?xml version="1.0" encoding="utf-8" standalone="no"?>
<!DOCTYPE svg PUBLIC "-//W3C//DTD SVG 1.1//EN"
  "http://www.w3.org/Graphics/SVG/1.1/DTD/svg11.dtd">
<svg xmlns:xlink="http://www.w3.org/1999/xlink" width="144pt" height="60pt" viewBox="0 0 144 60" xmlns="http://www.w3.org/2000/svg" version="1.1">
  <desc id="nav-meta">{"window":"2w","count":4,"labels":["15 Jan","21 Jan","24 Jan","29 Jan"],"idxs":[0,49,98,147]}</desc>

 <metadata>
  <rdf:RDF xmlns:dc="http://purl.org/dc/elements/1.1/" xmlns:cc="http://creativecommons.org/ns#" xmlns:rdf="http://www.w3.org/1999/02/22-rdf-syntax-ns#">
   <cc:Work>
    <dc:type rdf:resource="http://purl.org/dc/dcmitype/StillImage"/>
    <dc:date>2026-01-29T09:09:36.771320</dc:date>
    <dc:format>image/svg+xml</dc:format>
    <dc:creator>
     <cc:Agent>
      <dc:title>Matplotlib v3.10.8, https://matplotlib.org/</dc:title>
     </cc:Agent>
    </dc:creator>
   </cc:Work>
  </rdf:RDF>
 </metadata>
 <defs>
  <style type="text/css">*{stroke-linejoin: round; stroke-linecap: butt}</style>
 </defs>
 <g id="figure_1">
  <g id="patch_1">
   <path d="M 0 60 
L 144 60 
L 144 0 
L 0 0 
L 0 60 
z
" style="fill: none; opacity: 0"/>
  </g>
  <g id="axes_1">
   <g id="patch_2">
    <path d="M 5.76 52.8 
L 138.24 52.8 
L 138.24 3.6 
L 5.76 3.6 
L 5.76 52.8 
z
" style="fill: none"/>
   </g>
   <g id="matplotlib.axis_1"/>
   <g id="matplotlib.axis_2"/>
   <g id="line2d_1">
    <path d="M 5.76 42.96 
L 138.24 42.96 
" clip-path="url(#pb7ef8541bd)" style="fill: none; stroke: #b2b2b2; stroke-opacity: 0.35; stroke-width: 0.5; stroke-linecap: square"/>
   </g>
   <g id="line2d_2">
    <path d="M 5.76 33.12 
L 138.24 33.12 
" clip-path="url(#pb7ef8541bd)" style="fill: none; stroke: #b2b2b2; stroke-opacity: 0.35; stroke-width: 0.5; stroke-linecap: square"/>
   </g>
   <g id="line2d_3">
    <path d="M 5.76 23.28 
L 138.24 23.28 
" clip-path="url(#pb7ef8541bd)" style="fill: none; stroke: #b2b2b2; stroke-opacity: 0.35; stroke-width: 0.5; stroke-linecap: square"/>
   </g>
   <g id="line2d_4">
    <path d="M 5.76 13.44 
L 138.24 13.44 
" clip-path="url(#pb7ef8541bd)" style="fill: none; stroke: #b2b2b2; stroke-opacity: 0.35; stroke-width: 0.5; stroke-linecap: square"/>
   </g>
   <g id="line2d_5">
    <path d="M 6.207568 37.4988 
L 7.543455 37.34628 
L 9.769933 37.34628 
L 10.883172 37.85304 
L 12.887002 37.76895 
L 13.777594 37.671 
L 14.668185 37.573199 
L 15.558776 37.45452 
L 23.35145 37.51893 
L 24.464689 37.68576 
L 31.144124 37.74972 
L 31.366772 37.864578 
L 32.257363 38.8272 
L 35.597081 38.732197 
L 36.71032 38.721108 
L 38.046207 38.86656 
L 38.491502 38.902598 
L 39.382094 39.41268 
L 40.717981 39.505236 
L 41.608572 39.57996 
L 47.842711 39.482859 
L 48.510654 39.3438 
L 49.623894 39.262208 
L 50.514485 39.18144 
L 51.627724 39.276244 
L 52.518315 39.30936 
L 56.748624 39.391202 
L 57.639215 39.52092 
L 85.692841 39.602962 
L 86.360785 39.64392 
L 88.364615 39.740072 
L 89.477854 39.76692 
L 91.036389 39.676412 
L 92.149628 39.64884 
L 104.840554 39.754632 
L 106.399089 39.7866 
L 107.067033 40.44096 
L 107.28968 40.68204 
L 107.734976 40.75584 
L 108.402919 40.675072 
L 109.293511 40.27368 
L 111.965285 40.192188 
L 113.301172 40.06212 
L 120.871198 40.003055 
L 121.761789 39.63408 
L 134.452715 39.726186 
L 135.343306 39.9096 
L 136.233898 39.97838 
L 137.124489 40.17528 
L 137.792432 40.17528 
L 137.792432 40.17528 
" clip-path="url(#pb7ef8541bd)" style="fill: none; stroke: #bebebe; stroke-width: 0.6; stroke-linecap: round"/>
   </g>
   <g id="line2d_6">
    <path d="M 6.207568 31.52592 
L 7.766102 31.613431 
L 8.211398 31.746121 
L 9.101989 32.078933 
L 10.883172 32.057605 
L 11.773763 31.935903 
L 13.10965 32.04744 
L 19.343789 31.953211 
L 21.124972 31.88518 
L 22.683507 31.87539 
L 26.023224 31.858857 
L 28.917646 31.68336 
L 29.585589 31.788478 
L 30.476181 32.588116 
L 32.702659 32.59361 
L 35.151785 32.56896 
L 36.042376 32.663114 
L 36.932967 32.85432 
L 37.600911 32.894879 
L 38.491502 33.42504 
L 39.382094 33.45441 
L 40.272685 33.9072 
L 41.608572 33.985421 
L 42.499163 34.04988 
L 43.612402 34.15827 
L 44.502994 34.18764 
L 48.288007 34.169583 
L 49.401246 33.84816 
L 50.737133 33.93627 
L 51.627724 33.96624 
L 54.07685 34.071783 
L 55.190089 34.13352 
L 55.635385 34.203324 
L 56.525976 34.45332 
L 82.79842 34.347153 
L 84.134306 34.324376 
L 85.247546 34.55664 
L 91.481685 34.471352 
L 93.04022 34.3743 
L 95.266698 34.322828 
L 105.508498 34.5714 
L 106.176441 35.183828 
L 106.399089 35.407775 
L 106.844385 35.47176 
L 107.512328 35.402131 
L 108.402919 35.06832 
L 109.293511 35.001987 
L 110.184102 34.65996 
L 115.082354 34.555591 
L 115.750298 34.46808 
L 116.863537 34.550346 
L 117.754128 34.60092 
L 119.980606 34.552594 
L 120.871198 33.9072 
L 128.218576 34.013092 
L 132.226237 34.014291 
L 133.116828 33.981 
L 135.343306 34.085719 
L 136.233898 34.41888 
L 137.792432 34.40904 
L 137.792432 34.40904 
" clip-path="url(#pb7ef8541bd)" style="fill: none; stroke: #4a8dff; stroke-width: 0.7; stroke-linecap: round"/>
   </g>
   <g id="line2d_7">
    <path d="M 6.207568 35.77188 
L 7.320807 35.858192 
L 9.324637 36.564175 
L 11.10582 36.468497 
L 11.773763 36.418748 
L 12.887002 36.60336 
L 19.343789 36.492772 
L 20.679676 36.470545 
L 27.804407 36.607431 
L 29.362941 36.50004 
L 29.585589 36.628709 
L 30.476181 37.590032 
L 32.034715 37.49388 
L 34.929137 37.45944 
L 35.819728 37.493405 
L 36.71032 37.87764 
L 37.600911 37.913304 
L 38.491502 38.37948 
L 39.604741 38.455653 
L 40.495333 38.62548 
L 41.385924 38.712417 
L 42.276515 38.91576 
L 43.612402 39.008666 
L 45.616233 39.12732 
L 46.729472 39.050548 
L 47.620063 38.84196 
L 48.95595 38.74893 
L 49.846541 38.71896 
L 55.412737 38.78292 
L 56.748624 39.147 
L 63.205411 39.063835 
L 64.096002 39.01908 
L 64.763946 38.949451 
L 65.877185 38.8518 
L 67.43572 38.949351 
L 68.548959 39.02892 
L 82.575772 38.936914 
L 83.689011 38.82228 
L 84.356954 38.91069 
L 85.247546 39.11256 
L 87.251376 39.199946 
L 88.587263 39.237158 
L 89.700502 38.997727 
L 91.259037 39.057166 
L 94.153459 38.88132 
L 97.04788 38.987987 
L 98.606415 39.040433 
L 101.946133 39.2208 
L 103.282019 39.51108 
L 104.395259 39.415977 
L 105.28585 39.37332 
L 105.508498 39.37332 
L 106.176441 40.035947 
L 106.399089 40.27825 
L 106.844385 40.34748 
L 107.512328 40.269359 
L 108.402919 39.89484 
L 109.516159 39.787624 
L 110.40675 39.63408 
L 113.301172 39.694793 
L 113.969115 39.78168 
L 114.637059 39.718694 
L 115.52765 39.30444 
L 116.640889 39.404713 
L 117.53148 39.57504 
L 118.422072 39.644195 
L 119.312663 39.76692 
L 119.980606 39.691497 
L 120.871198 39.024 
L 126.660041 39.129543 
L 128.218576 39.160262 
L 132.003589 39.081167 
L 132.671532 38.9502 
L 133.784772 39.05824 
L 134.675363 39.15684 
L 135.120659 39.164183 
L 136.233898 39.639 
L 137.792432 39.62424 
L 137.792432 39.62424 
" clip-path="url(#pb7ef8541bd)" style="fill: none; stroke: #f5841e; stroke-width: 0.8; stroke-linecap: round"/>
   </g>
  </g>
 </g>
 <defs>
  <clipPath id="pb7ef8541bd">
   <rect x="5.76" y="3.6" width="132.48" height="49.2"/>
  </clipPath>
 </defs>
</svg>
