<?xml version="1.0" encoding="utf-8" standalone="no"?>
<!DOCTYPE svg PUBLIC "-//W3C//DTD SVG 1.1//EN"
  "http://www.w3.org/Graphics/SVG/1.1/DTD/svg11.dtd">
<svg xmlns:xlink="http://www.w3.org/1999/xlink" width="144pt" height="60pt" viewBox="0 0 144 60" xmlns="http://www.w3.org/2000/svg" version="1.1">
  <desc id="nav-meta">{"window":"1y","count":4,"labels":["01.03","01.07","30.10","01.03"],"tick_utc":["2025-03-01T12:00:00Z","2025-07-01T12:00:00Z","2025-10-30T12:00:00Z","2026-03-01T03:33:48Z"]}</desc>

 <metadata>
  <rdf:RDF xmlns:dc="http://purl.org/dc/elements/1.1/" xmlns:cc="http://creativecommons.org/ns#" xmlns:rdf="http://www.w3.org/1999/02/22-rdf-syntax-ns#">
   <cc:Work>
    <dc:type rdf:resource="http://purl.org/dc/dcmitype/StillImage"/>
    <dc:date>2026-03-01T07:21:50.024757</dc:date>
    <dc:format>image/svg+xml</dc:format>
    <dc:creator>
     <cc:Agent>
      <dc:title>Matplotlib v3.10.8, https://matplotlib.org/</dc:title>
     </cc:Agent>
    </dc:creator>
   </cc:Work>
  </rdf:RDF>
 </metadata>
 <defs>
  <style type="text/css">*{stroke-linejoin: round; stroke-linecap: butt}</style>
 </defs>
 <g id="figure_1">
  <g id="patch_1">
   <path d="M 0 60 
L 144 60 
L 144 0 
L 0 0 
L 0 60 
z
" style="fill: none; opacity: 0"/>
  </g>
  <g id="axes_1">
   <g id="patch_2">
    <path d="M 5.76 52.8 
L 138.24 52.8 
L 138.24 3.6 
L 5.76 3.6 
L 5.76 52.8 
z
" style="fill: none"/>
   </g>
   <g id="matplotlib.axis_1"/>
   <g id="matplotlib.axis_2"/>
   <g id="line2d_1">
    <path d="M 5.76 42.96 
L 138.24 42.96 
" clip-path="url(#p2c6cb1cc34)" style="fill: none; stroke: #b2b2b2; stroke-opacity: 0.35; stroke-width: 0.5; stroke-linecap: square"/>
   </g>
   <g id="line2d_2">
    <path d="M 5.76 33.12 
L 138.24 33.12 
" clip-path="url(#p2c6cb1cc34)" style="fill: none; stroke: #b2b2b2; stroke-opacity: 0.35; stroke-width: 0.5; stroke-linecap: square"/>
   </g>
   <g id="line2d_3">
    <path d="M 5.76 23.28 
L 138.24 23.28 
" clip-path="url(#p2c6cb1cc34)" style="fill: none; stroke: #b2b2b2; stroke-opacity: 0.35; stroke-width: 0.5; stroke-linecap: square"/>
   </g>
   <g id="line2d_4">
    <path d="M 5.76 13.44 
L 138.24 13.44 
" clip-path="url(#p2c6cb1cc34)" style="fill: none; stroke: #b2b2b2; stroke-opacity: 0.35; stroke-width: 0.5; stroke-linecap: square"/>
   </g>
   <g id="line2d_5">
    <path d="M 5.76 42.3204 
L 6.123309 42.94032 
L 6.486618 38.41392 
L 6.849926 43.0584 
L 7.213235 42.72384 
L 7.576544 42.58116 
L 7.939853 42.9354 
L 8.303162 43.49136 
L 8.66647 43.79148 
L 9.393088 46.14816 
L 9.756397 45.28224 
L 10.119706 45.13464 
L 10.483014 45.5676 
L 10.846323 44.22444 
L 11.209632 43.92924 
L 11.572941 45.18876 
L 11.93625 44.91324 
L 12.299558 45.297 
L 12.662867 43.95384 
L 13.026176 44.99196 
L 13.752794 44.89848 
L 14.116102 44.41632 
L 14.479411 43.30932 
L 14.84272 42.87144 
L 15.206029 43.76196 
L 15.569338 43.59468 
L 15.932646 44.76072 
L 16.295955 45.40524 
L 17.022573 45.35604 
L 17.385882 45.10512 
L 17.749191 46.24164 
L 18.112499 46.3548 
L 18.475808 45.63648 
L 18.839117 45.97104 
L 19.202426 47.84556 
L 19.565735 47.71272 
L 19.929043 47.88 
L 20.292352 46.12848 
L 20.655661 46.91568 
L 21.382279 44.40648 
L 21.745587 44.91816 
L 22.108896 44.76564 
L 22.472205 45.16908 
L 22.835514 44.49504 
L 23.198823 44.08668 
L 23.562131 44.17032 
L 23.92544 43.43232 
L 24.652058 43.86528 
L 25.015367 42.23676 
L 25.741984 41.7792 
L 26.831911 42.31056 
L 27.195219 42.345 
L 27.558528 42.5418 
L 27.921837 42.37944 
L 28.285146 41.98584 
L 28.648455 42.345 
L 29.011763 42.49752 
L 29.375072 42.86652 
L 29.738381 42.49752 
L 30.464999 42.44832 
L 30.828307 40.33272 
L 31.191616 39.12732 
L 31.554925 38.52216 
L 31.918234 39.10272 
L 32.281543 38.901 
L 32.644851 37.6464 
L 33.371469 39.639 
L 34.098087 40.008 
L 34.461395 39.27492 
L 34.824704 39.90468 
L 35.188013 39.6882 
L 35.914631 38.22696 
L 36.277939 38.901 
L 36.641248 38.69436 
L 37.367866 38.86164 
L 37.731175 38.62056 
L 38.457792 39.88992 
L 38.821101 41.23308 
L 39.911027 41.17404 
L 40.637645 41.62176 
L 41.000954 42.79272 
L 41.364263 42.30564 
L 42.09088 41.7546 
L 42.454189 40.62792 
L 42.817498 40.131 
L 43.180807 40.6476 
L 43.544116 41.73492 
L 44.270733 42.76812 
L 44.634042 41.73492 
L 44.997351 41.89728 
L 45.36066 42.345 
L 45.723968 42.5664 
L 46.087277 42.46308 
L 46.813895 44.20476 
L 47.177204 44.45076 
L 47.540512 42.7632 
L 47.903821 42.63036 
L 48.26713 42.94524 
L 48.630439 43.52088 
L 48.993748 43.1076 
L 49.357056 41.98092 
L 50.083674 41.43972 
L 50.446983 42.4926 
L 50.810292 41.79888 
L 51.1736 41.78412 
L 51.536909 42.37452 
L 51.900218 42.3942 
L 52.263527 41.83332 
L 52.626836 42.24168 
L 52.990144 41.84316 
L 53.716762 40.2786 
L 54.080071 40.42128 
L 54.44338 40.71648 
L 55.169997 40.48032 
L 55.533306 40.26384 
L 55.896615 38.97972 
L 56.623232 38.51724 
L 56.986541 38.57628 
L 57.34985 38.04492 
L 57.713159 36.03264 
L 58.076468 34.88136 
L 58.439776 36.92316 
L 58.803085 37.8432 
L 59.166394 37.37088 
L 59.529703 37.53324 
L 59.893012 37.056 
L 60.25632 37.77924 
L 60.619629 38.02032 
L 60.982938 38.45328 
L 61.346247 39.1962 
L 61.709556 40.41636 
L 62.072864 40.97232 
L 62.436173 40.53444 
L 62.799482 39.55536 
L 63.162791 40.24908 
L 63.5261 39.7128 
L 63.889408 38.778 
L 64.252717 38.59104 
L 64.979335 37.794 
L 65.342644 38.82228 
L 65.705953 36.53448 
L 66.069261 35.334 
L 66.795879 37.44468 
L 67.159188 36.90348 
L 67.522497 36.65748 
L 68.249114 38.64516 
L 68.612423 37.2282 
L 68.975732 38.14332 
L 69.339041 35.53572 
L 69.702349 35.04372 
L 70.065658 34.80264 
L 70.428967 37.23804 
L 71.518893 33.67104 
L 71.882202 34.90596 
L 72.972129 35.9736 
L 73.335437 34.36476 
L 73.698746 34.1778 
L 74.062055 35.22084 
L 74.425364 35.11752 
L 74.788673 35.54556 
L 76.241908 32.44104 
L 76.605217 31.83096 
L 76.968525 30.06468 
L 77.331834 30.01056 
L 77.695143 30.291 
L 78.058452 31.16184 
L 78.421761 30.74856 
L 78.785069 29.71536 
L 79.148378 29.37588 
L 79.511687 30.57636 
L 79.874996 30.42876 
L 80.238305 30.79284 
L 80.601613 32.91828 
L 80.964922 33.72024 
L 81.328231 34.05972 
L 81.69154 36.5886 
L 82.054849 34.90104 
L 82.418157 35.10276 
L 82.781466 34.16796 
L 83.144775 33.8826 
L 83.508084 34.43364 
L 84.234701 31.05852 
L 84.59801 31.26024 
L 84.961319 31.92936 
L 85.324628 31.85064 
L 85.687937 31.3242 
L 86.051245 32.84448 
L 86.414554 31.78176 
L 86.777863 32.85924 
L 87.141172 36.8838 
L 87.504481 38.39424 
L 87.86779 35.95392 
L 88.231098 34.53696 
L 88.594407 35.20608 
L 89.321025 37.57752 
L 89.684334 37.90716 
L 90.047642 37.18884 
L 90.410951 37.18392 
L 90.77426 36.89364 
L 91.137569 37.42008 
L 91.500878 38.17284 
L 91.864186 36.687 
L 92.227495 36.42132 
L 92.590804 36.34752 
L 92.954113 35.56032 
L 93.317422 35.72268 
L 93.68073 36.29832 
L 94.044039 36.32292 
L 94.407348 37.61688 
L 94.770657 37.2282 
L 95.133966 37.34628 
L 95.497274 37.23804 
L 95.860583 40.008 
L 96.223892 41.36592 
L 96.587201 40.43604 
L 96.95051 41.44956 
L 97.313818 40.53444 
L 97.677127 41.02152 
L 98.040436 40.22448 
L 98.403745 39.79644 
L 98.767054 41.51844 
L 99.130362 41.66604 
L 99.85698 43.51596 
L 100.220289 43.43724 
L 100.583598 43.71276 
L 100.946906 44.59836 
L 101.310215 43.30932 
L 102.400142 44.88372 
L 102.76345 44.99688 
L 103.126759 44.57868 
L 103.490068 43.5996 
L 103.853377 43.51596 
L 104.216686 43.00428 
L 104.579994 43.2798 
L 104.943303 43.71768 
L 105.669921 44.0916 
L 106.03323 45.11004 
L 106.396538 43.55532 
L 106.759847 42.72876 
L 107.486465 44.27364 
L 108.213082 44.47536 
L 108.576391 44.25888 
L 108.9397 43.64388 
L 109.303009 43.84068 
L 109.666318 43.85052 
L 110.029626 44.36712 
L 110.392935 44.26872 
L 110.756244 44.74104 
L 111.119553 44.98704 
L 111.482862 44.84436 
L 111.846171 45.58728 
L 112.209479 46.0596 
L 112.572788 45.18384 
L 114.026023 45.47904 
L 114.389332 45.65616 
L 114.752641 45.98088 
L 115.479259 45.38556 
L 115.842567 45.31668 
L 116.205876 45.58728 
L 116.569185 45.35604 
L 116.932494 45.40032 
L 117.295803 45.11496 
L 117.659111 44.42124 
L 118.385729 44.18508 
L 119.112347 43.24044 
L 119.475655 43.8702 
L 119.838964 43.60944 
L 120.202273 43.92924 
L 120.565582 43.93416 
L 120.928891 43.46184 
L 121.292199 43.5012 
L 121.655508 42.72384 
L 122.018817 42.51228 
L 122.382126 43.08792 
L 122.745435 42.75828 
L 123.108743 42.90096 
L 123.835361 44.2392 
L 124.19867 45.23304 
L 124.561979 44.77548 
L 125.288596 45.04608 
L 125.651905 45.07068 
L 126.015214 46.1334 
L 126.378523 45.4446 
L 126.741831 45.06084 
L 127.10514 45.33144 
L 127.468449 46.30068 
L 127.831758 46.34496 
L 128.195067 47.89476 
L 128.558375 48.26376 
L 128.921684 47.96364 
L 129.880239 50.04972 
L 130.241992 49.24776 
L 131.701854 49.59708 
L 132.063855 49.80372 
L 132.427055 49.86768 
L 133.130133 49.24776 
L 133.516746 49.48392 
L 133.834418 49.37568 
L 134.242787 49.479 
L 134.605655 49.7004 
L 135.695388 49.49376 
L 136.05979 49.98576 
L 136.392407 49.96608 
L 136.7851 49.7004 
L 137.14679 49.27236 
L 137.509409 49.37076 
L 137.868437 49.68072 
L 138.24 49.25268 
L 138.24 49.25268 
" clip-path="url(#p2c6cb1cc34)" style="fill: none; stroke: #bebebe; stroke-width: 0.6; stroke-linecap: round"/>
   </g>
   <g id="line2d_6">
    <path d="M 5.76 42.50736 
L 6.123309 42.66972 
L 6.486618 40.51476 
L 6.849926 43.12728 
L 7.213235 42.96 
L 7.576544 42.468 
L 7.939853 42.74352 
L 8.303162 43.17648 
L 8.66647 42.75828 
L 9.393088 45.0264 
L 9.756397 44.7312 
L 10.119706 44.805 
L 10.483014 45.14448 
L 11.209632 44.59836 
L 11.572941 44.96736 
L 11.93625 44.67216 
L 12.299558 44.64756 
L 12.662867 43.74228 
L 13.026176 44.30808 
L 13.389485 44.42616 
L 14.116102 44.1654 
L 14.479411 43.6242 
L 14.84272 43.68816 
L 15.206029 44.10144 
L 15.569338 44.15064 
L 15.932646 44.9034 
L 16.295955 45.38064 
L 16.659264 45.55284 
L 17.022573 45.41508 
L 17.385882 44.8296 
L 17.749191 45.6168 
L 18.112499 45.45936 
L 18.839117 45.5184 
L 19.202426 47.18136 
L 19.565735 47.3142 
L 19.929043 47.90952 
L 20.292352 46.56144 
L 20.655661 47.54052 
L 21.01897 47.23056 
L 21.382279 46.67952 
L 21.745587 47.03376 
L 22.108896 46.85172 
L 22.472205 47.08788 
L 22.835514 47.16168 
L 23.562131 47.07804 
L 23.92544 46.896 
L 24.288749 47.10756 
L 24.652058 47.16168 
L 25.015367 45.87264 
L 25.378675 45.63156 
L 25.741984 45.80376 
L 26.468602 45.43968 
L 26.831911 45.63156 
L 27.558528 45.61188 
L 27.921837 45.63156 
L 28.285146 45.31176 
L 29.011763 45.3462 
L 29.375072 45.52824 
L 30.10169 45.47412 
L 30.464999 45.51348 
L 30.828307 42.77796 
L 31.191616 41.75952 
L 31.554925 40.04244 
L 31.918234 40.58364 
L 32.281543 40.69188 
L 32.644851 39.38808 
L 33.371469 40.33764 
L 33.734778 40.32288 
L 34.098087 40.81488 
L 34.461395 40.88376 
L 34.824704 40.44588 
L 35.188013 40.46556 
L 35.551322 40.21956 
L 35.914631 39.52584 
L 36.277939 40.49508 
L 37.367866 40.19496 
L 37.731175 39.4914 
L 38.094483 39.38808 
L 38.457792 39.69312 
L 38.821101 40.46556 
L 39.547719 40.36716 
L 39.911027 39.8604 
L 40.274336 39.96372 
L 40.637645 39.85548 
L 41.000954 41.1888 
L 41.727572 40.4508 
L 42.09088 40.5738 
L 42.817498 38.45328 
L 43.180807 38.68452 
L 43.544116 39.55536 
L 43.907424 40.09164 
L 44.270733 40.39668 
L 44.997351 40.2048 
L 45.36066 40.52952 
L 46.087277 40.48032 
L 46.813895 42.26136 
L 47.177204 42.5664 
L 47.540512 41.17404 
L 47.903821 41.0166 
L 48.26713 41.22324 
L 48.993748 41.17896 
L 49.357056 41.08056 
L 49.720365 40.61808 
L 50.083674 40.7214 
L 50.446983 41.30688 
L 50.810292 40.11132 
L 51.1736 39.99816 
L 51.536909 40.56888 
L 51.900218 40.51476 
L 52.263527 40.131 
L 52.626836 40.3278 
L 52.990144 39.81612 
L 53.716762 37.46436 
L 54.080071 37.39056 
L 54.44338 37.50372 
L 55.169997 37.01172 
L 55.533306 36.16056 
L 55.896615 34.4976 
L 56.259924 33.69072 
L 56.986541 32.89368 
L 57.34985 31.73256 
L 57.713159 31.68336 
L 58.076468 31.8162 
L 58.439776 32.64276 
L 58.803085 32.0868 
L 59.529703 31.85064 
L 59.893012 30.98964 
L 60.25632 31.53576 
L 60.619629 31.521 
L 60.982938 31.38816 
L 61.346247 32.17044 
L 61.709556 33.68088 
L 62.072864 34.28604 
L 62.436173 33.58248 
L 62.799482 32.0376 
L 63.162791 32.76576 
L 63.5261 32.259 
L 63.889408 30.65508 
L 64.252717 29.93676 
L 64.616026 28.14588 
L 65.342644 28.40664 
L 65.705953 25.73508 
L 66.069261 24.62316 
L 66.43257 26.10408 
L 66.795879 26.97984 
L 67.159188 27.00936 
L 67.522497 26.58132 
L 67.885805 27.7818 
L 68.249114 29.49888 
L 68.612423 27.68832 
L 68.975732 28.44108 
L 69.339041 24.16068 
L 69.702349 24.55428 
L 70.065658 24.51984 
L 70.428967 27.32916 
L 70.792276 25.7646 
L 71.155585 26.48784 
L 71.518893 26.43372 
L 71.882202 27.44724 
L 72.60882 27.27504 
L 72.972129 27.8802 
L 73.335437 27.72276 
L 73.698746 26.84208 
L 74.062055 27.91956 
L 74.425364 27.8556 
L 74.788673 28.09668 
L 75.151981 27.87528 
L 75.878599 27.83592 
L 76.241908 27.57024 
L 76.605217 26.77812 
L 76.968525 25.01184 
L 77.695143 25.71048 
L 78.058452 26.31564 
L 78.421761 26.45832 
L 78.785069 25.8384 
L 79.148378 25.84824 
L 79.511687 26.6994 
L 79.874996 26.62068 
L 80.238305 26.8224 
L 80.601613 28.61328 
L 81.328231 28.97244 
L 81.69154 30.99456 
L 82.054849 29.76456 
L 82.418157 29.8974 
L 82.781466 29.02164 
L 83.144775 28.50012 
L 83.508084 29.00688 
L 84.234701 26.601 
L 84.59801 26.3796 
L 84.961319 26.5764 
L 85.324628 26.3796 
L 85.687937 25.1496 
L 86.051245 26.81256 
L 86.414554 26.29596 
L 86.777863 27.41772 
L 87.141172 31.19136 
L 87.504481 31.80144 
L 87.86779 28.89864 
L 88.231098 28.28364 
L 89.321025 30.80268 
L 89.684334 31.22088 
L 90.047642 30.8076 
L 90.410951 30.13356 
L 90.77426 30.17784 
L 91.500878 31.42752 
L 91.864186 31.04376 
L 92.227495 30.49764 
L 92.590804 30.3648 
L 92.954113 28.88388 
L 93.317422 29.15448 
L 93.68073 30.15324 
L 94.407348 31.4226 
L 95.133966 30.9306 
L 95.497274 30.66 
L 96.223892 34.99944 
L 96.587201 34.07448 
L 96.95051 34.9158 
L 97.313818 34.02528 
L 97.677127 34.26144 
L 98.040436 33.0216 
L 98.403745 33.10524 
L 98.767054 34.1532 
L 99.130362 34.2024 
L 99.85698 36.34752 
L 100.220289 35.89488 
L 100.946906 36.94776 
L 101.310215 36.2688 
L 101.673524 36.97236 
L 102.036833 38.286 
L 102.400142 38.76324 
L 102.76345 38.73864 
L 103.126759 38.51724 
L 103.490068 37.42992 
L 103.853377 37.42008 
L 104.216686 36.90348 
L 104.579994 36.98712 
L 104.943303 36.86412 
L 105.306612 37.16424 
L 105.669921 37.14948 
L 106.03323 38.52216 
L 106.759847 35.71776 
L 107.123156 36.15564 
L 107.486465 36.93792 
L 108.213082 36.72636 
L 108.576391 36.21468 
L 108.9397 34.8174 
L 109.303009 34.7928 
L 109.666318 35.42748 
L 110.029626 36.49512 
L 110.392935 36.28356 
L 110.756244 36.6378 
L 111.119553 37.3512 
L 111.482862 37.3512 
L 111.846171 38.31552 
L 112.209479 38.32536 
L 112.572788 37.26264 
L 112.936097 37.26264 
L 113.299406 37.09044 
L 113.662715 37.06092 
L 114.026023 37.34628 
L 114.389332 37.48404 
L 114.752641 37.77924 
L 115.479259 37.45944 
L 116.205876 37.56276 
L 116.569185 37.31184 
L 116.932494 37.33644 
L 117.295803 37.09536 
L 117.659111 36.23928 
L 118.385729 36.11628 
L 119.112347 35.0142 
L 119.475655 35.93424 
L 119.838964 36.36228 
L 120.202273 36.50988 
L 120.565582 36.5148 
L 120.928891 36.25404 
L 121.292199 36.46068 
L 121.655508 34.83708 
L 122.018817 34.57632 
L 122.745435 35.00436 
L 123.108743 34.93056 
L 123.472052 35.088 
L 123.835361 35.78664 
L 124.19867 37.55292 
L 124.561979 37.26756 
L 124.925287 37.46436 
L 125.651905 37.45944 
L 126.015214 38.41392 
L 126.741831 36.95268 
L 127.10514 37.05108 
L 127.468449 38.37948 
L 127.831758 39.20604 
L 128.195067 41.03136 
L 128.558375 42.26628 
L 128.921684 41.73492 
L 129.228398 42.23676 
L 129.880239 44.89356 
L 130.241992 43.6242 
L 130.973916 43.53072 
L 131.339298 43.72752 
L 132.063855 44.436 
L 132.427055 44.49012 
L 132.785995 43.81608 
L 133.130133 43.7226 
L 133.516746 44.5344 
L 133.834418 44.19 
L 134.242787 44.21952 
L 134.96684 44.51472 
L 135.695388 44.3868 
L 136.05979 45.174 
L 136.392407 45.23796 
L 136.7851 44.81484 
L 137.14679 43.821 
L 137.509409 44.01288 
L 137.868437 44.66232 
L 138.24 43.93908 
L 138.24 43.93908 
" clip-path="url(#p2c6cb1cc34)" style="fill: none; stroke: #4a8dff; stroke-width: 0.6; stroke-linecap: round"/>
   </g>
   <g id="line2d_7">
    <path d="M 5.76 43.8456 
L 6.123309 43.07316 
L 6.486618 38.99448 
L 6.849926 43.01412 
L 7.213235 42.42864 
L 7.576544 40.80012 
L 7.939853 41.10024 
L 8.303162 42.69432 
L 8.66647 43.00428 
L 9.029779 45.666 
L 9.393088 46.64016 
L 9.756397 44.6574 
L 10.119706 44.12112 
L 10.483014 45.4938 
L 10.846323 44.07684 
L 11.209632 43.8702 
L 11.572941 44.75088 
L 11.93625 44.02764 
L 12.299558 44.66724 
L 12.662867 42.67464 
L 13.026176 43.92924 
L 13.752794 44.1654 
L 14.479411 42.4188 
L 14.84272 42.32532 
L 15.206029 42.60084 
L 15.569338 42.468 
L 15.932646 43.88496 
L 16.295955 44.71644 
L 16.659264 44.87388 
L 17.022573 44.79516 
L 17.385882 43.452 
L 17.749191 44.79024 
L 18.475808 44.13588 
L 18.839117 44.2638 
L 19.202426 46.9206 
L 19.565735 46.44336 
L 19.929043 47.85048 
L 20.292352 44.74596 
L 20.655661 46.23672 
L 21.01897 44.34252 
L 21.382279 43.41756 
L 21.745587 44.25888 
L 22.108896 43.80624 
L 22.472205 44.23428 
L 22.835514 44.01288 
L 23.198823 43.60452 
L 23.562131 43.85052 
L 23.92544 43.50612 
L 24.288749 43.53072 
L 24.652058 42.35976 
L 25.015367 39.33396 
L 25.378675 39.3192 
L 25.741984 39.18636 
L 26.105293 38.74356 
L 26.468602 38.80752 
L 26.831911 39.2208 
L 27.195219 38.61564 
L 27.558528 38.9994 
L 27.921837 39.00924 
L 28.285146 37.92684 
L 28.648455 37.71528 
L 29.011763 38.17284 
L 29.375072 38.96496 
L 29.738381 38.74848 
L 30.10169 37.71528 
L 30.464999 37.63164 
L 30.828307 34.64028 
L 31.191616 34.69932 
L 31.554925 33.87276 
L 31.918234 34.18764 
L 32.281543 34.73868 
L 32.644851 34.09416 
L 33.00816 34.38444 
L 33.371469 34.33032 
L 34.098087 34.57632 
L 34.461395 33.18396 
L 34.824704 33.38076 
L 35.188013 32.81004 
L 35.551322 31.38816 
L 35.914631 30.45336 
L 36.277939 32.59848 
L 36.641248 32.29344 
L 37.004557 31.78176 
L 37.367866 31.53084 
L 37.731175 31.68336 
L 38.094483 32.28852 
L 38.821101 34.1778 
L 39.18441 33.84324 
L 39.547719 33.3414 
L 39.911027 33.25284 
L 40.637645 33.7842 
L 41.000954 35.34384 
L 41.364263 33.981 
L 41.727572 33.35616 
L 42.09088 33.35124 
L 42.454189 31.09296 
L 42.817498 31.11756 
L 43.180807 31.87524 
L 43.544116 33.20856 
L 43.907424 33.17412 
L 44.270733 33.45456 
L 44.634042 33.4152 
L 44.997351 32.7264 
L 45.36066 33.84816 
L 46.087277 33.84324 
L 47.177204 35.73744 
L 47.540512 33.4398 
L 47.903821 33.20856 
L 48.26713 32.58372 
L 48.630439 32.71164 
L 49.357056 32.53944 
L 49.720365 32.013 
L 50.446983 33.3906 
L 50.810292 31.80144 
L 51.1736 31.41768 
L 51.536909 32.19012 
L 51.900218 32.10156 
L 52.263527 31.60956 
L 52.626836 32.0622 
L 52.990144 31.73748 
L 53.353453 30.56652 
L 53.716762 28.31808 
L 54.080071 27.48168 
L 54.44338 27.55548 
L 54.806688 26.71908 
L 55.169997 26.36484 
L 55.533306 27.42756 
L 56.259924 26.55672 
L 56.623232 27.27504 
L 56.986541 27.31932 
L 57.34985 27.63912 
L 57.713159 27.52596 
L 58.076468 26.3058 
L 58.439776 26.96016 
L 58.803085 27.09792 
L 59.166394 27.49644 
L 59.529703 27.2898 
L 59.893012 26.57148 
L 60.25632 27.27012 
L 60.982938 27.35376 
L 61.709556 29.62188 
L 62.072864 29.96136 
L 62.436173 29.14956 
L 62.799482 28.68216 
L 63.162791 29.184 
L 63.5261 28.7412 
L 63.889408 27.5358 
L 64.252717 27.91956 
L 64.616026 28.00812 
L 64.979335 26.64528 
L 65.342644 26.88636 
L 65.705953 26.1828 
L 66.069261 24.52476 
L 66.43257 27.0684 
L 66.795879 27.59484 
L 67.522497 27.49644 
L 67.885805 28.13112 
L 68.249114 29.8482 
L 68.612423 29.12004 
L 68.975732 30.03024 
L 69.339041 27.84576 
L 70.065658 29.54316 
L 70.428967 31.13232 
L 70.792276 30.31068 
L 71.155585 30.62064 
L 71.518893 29.97612 
L 71.882202 31.97364 
L 72.245511 31.82112 
L 72.60882 32.0868 
L 72.972129 31.63416 
L 73.335437 30.6354 
L 73.698746 30.37464 
L 74.062055 30.86172 
L 74.425364 30.89616 
L 74.788673 31.11756 
L 75.51529 30.22212 
L 75.878599 30.45828 
L 76.241908 29.2578 
L 76.605217 28.50504 
L 76.968525 28.18032 
L 77.331834 28.2738 
L 77.695143 28.569 
L 78.058452 28.55424 
L 78.421761 27.8802 
L 78.785069 28.03272 
L 79.148378 27.69324 
L 79.511687 28.42632 
L 79.874996 28.3968 
L 80.238305 28.60344 
L 80.601613 29.88756 
L 80.964922 30.22212 
L 81.328231 29.58252 
L 81.69154 31.73256 
L 82.054849 31.36356 
L 82.418157 31.39308 
L 83.144775 29.09544 
L 83.508084 29.2332 
L 83.871393 27.02412 
L 84.59801 25.16928 
L 84.961319 25.10532 
L 85.687937 23.92452 
L 86.051245 25.53336 
L 86.414554 24.62808 
L 86.777863 25.4448 
L 87.141172 29.64156 
L 87.504481 30.80268 
L 87.86779 28.65756 
L 88.231098 28.6428 
L 88.957716 30.87156 
L 89.321025 32.17044 
L 89.684334 32.97732 
L 90.047642 32.628 
L 90.410951 31.90476 
L 90.77426 30.92076 
L 91.137569 31.96872 
L 91.500878 32.39676 
L 91.864186 31.19628 
L 92.590804 30.42384 
L 92.954113 29.0118 
L 93.317422 29.15448 
L 93.68073 29.76456 
L 94.044039 31.2012 
L 94.407348 32.09172 
L 94.770657 31.43244 
L 95.497274 30.90108 
L 96.223892 35.35368 
L 96.587201 34.24668 
L 96.95051 35.5062 
L 97.313818 34.48284 
L 97.677127 35.02896 
L 98.040436 33.8334 
L 98.403745 33.243 
L 98.767054 34.69932 
L 99.493671 36.2934 
L 99.85698 38.901 
L 100.220289 38.37948 
L 100.583598 38.92068 
L 100.946906 40.09164 
L 101.310215 39.70788 
L 101.673524 40.4262 
L 102.036833 42.75336 
L 102.400142 43.54548 
L 102.76345 43.72752 
L 103.490068 41.976 
L 103.853377 42.42864 
L 104.216686 40.86408 
L 104.579994 40.47048 
L 105.669921 40.89852 
L 106.03323 42.9354 
L 106.396538 40.43604 
L 106.759847 39.31428 
L 107.123156 40.04244 
L 107.486465 41.43972 
L 107.849774 41.47416 
L 108.213082 41.02152 
L 108.576391 40.7952 
L 108.9397 39.75708 
L 109.303009 40.11132 
L 109.666318 39.87024 
L 110.029626 40.94772 
L 110.392935 40.97232 
L 111.119553 42.87144 
L 111.482862 42.17772 
L 111.846171 43.04364 
L 112.209479 43.34868 
L 112.572788 42.03504 
L 113.299406 41.8038 
L 113.662715 41.84316 
L 114.026023 42.37944 
L 114.389332 42.26628 
L 114.752641 42.468 
L 115.11595 42.42864 
L 115.479259 42.18264 
L 115.842567 42.1728 
L 116.205876 42.50244 
L 116.569185 41.88252 
L 116.932494 42.32532 
L 117.659111 41.13468 
L 118.385729 40.42128 
L 118.749038 39.16176 
L 119.112347 39.28968 
L 119.475655 40.48032 
L 120.565582 40.88376 
L 121.292199 40.53936 
L 121.655508 38.50248 
L 122.018817 37.63656 
L 122.382126 38.34012 
L 122.745435 38.37456 
L 123.108743 38.5812 
L 123.835361 39.8358 
L 124.19867 41.93172 
L 124.561979 41.42004 
L 125.288596 41.39052 
L 125.651905 41.5086 
L 126.015214 42.80256 
L 126.378523 41.93664 
L 126.741831 41.49384 
L 127.10514 41.51352 
L 127.468449 43.78164 
L 127.831758 43.9932 
L 128.195067 46.66968 
L 128.558375 47.55036 
L 128.921684 46.64508 
L 129.517115 48.89352 
L 129.880239 49.84308 
L 130.241992 49.00176 
L 130.613606 49.233 
L 130.973916 48.97716 
L 131.701854 49.36092 
L 132.427055 49.58724 
L 132.785995 49.28712 
L 133.130133 49.16904 
L 133.516746 49.39044 
L 133.834418 49.29696 
L 134.605655 49.55772 
L 135.695388 49.41996 
L 136.05979 49.8234 
L 136.392407 49.86768 
L 136.7851 49.72992 
L 137.14679 49.39536 
L 137.868437 49.6758 
L 138.24 49.47408 
L 138.24 49.47408 
" clip-path="url(#p2c6cb1cc34)" style="fill: none; stroke: #f5841e; stroke-width: 0.7; stroke-linecap: round"/>
   </g>
  </g>
 </g>
 <defs>
  <clipPath id="p2c6cb1cc34">
   <rect x="5.76" y="3.6" width="132.48" height="49.2"/>
  </clipPath>
 </defs>
</svg>
