<?xml version="1.0" encoding="utf-8" standalone="no"?>
<!DOCTYPE svg PUBLIC "-//W3C//DTD SVG 1.1//EN"
  "http://www.w3.org/Graphics/SVG/1.1/DTD/svg11.dtd">
<svg xmlns:xlink="http://www.w3.org/1999/xlink" width="144pt" height="60pt" viewBox="0 0 144 60" xmlns="http://www.w3.org/2000/svg" version="1.1">
  <desc id="nav-meta">{"window":"1m","count":4,"labels":["24.02","06.03","15.03","25.03"],"tick_utc":["2026-02-24T01:30:44Z","2026-03-06T03:16:38Z","2026-03-15T03:42:35Z","2026-03-25T05:09:13Z"]}</desc>

 <metadata>
  <rdf:RDF xmlns:dc="http://purl.org/dc/elements/1.1/" xmlns:cc="http://creativecommons.org/ns#" xmlns:rdf="http://www.w3.org/1999/02/22-rdf-syntax-ns#">
   <cc:Work>
    <dc:type rdf:resource="http://purl.org/dc/dcmitype/StillImage"/>
    <dc:date>2026-03-25T05:14:25.638525</dc:date>
    <dc:format>image/svg+xml</dc:format>
    <dc:creator>
     <cc:Agent>
      <dc:title>Matplotlib v3.10.8, https://matplotlib.org/</dc:title>
     </cc:Agent>
    </dc:creator>
   </cc:Work>
  </rdf:RDF>
 </metadata>
 <defs>
  <style type="text/css">*{stroke-linejoin: round; stroke-linecap: butt}</style>
 </defs>
 <g id="figure_1">
  <g id="patch_1">
   <path d="M 0 60 
L 144 60 
L 144 0 
L 0 0 
L 0 60 
z
" style="fill: none; opacity: 0"/>
  </g>
  <g id="axes_1">
   <g id="patch_2">
    <path d="M 5.76 52.8 
L 138.24 52.8 
L 138.24 3.6 
L 5.76 3.6 
L 5.76 52.8 
z
" style="fill: none"/>
   </g>
   <g id="matplotlib.axis_1"/>
   <g id="matplotlib.axis_2"/>
   <g id="line2d_1">
    <path d="M 5.76 42.96 
L 138.24 42.96 
" clip-path="url(#p06846d8380)" style="fill: none; stroke: #b2b2b2; stroke-opacity: 0.35; stroke-width: 0.5; stroke-linecap: square"/>
   </g>
   <g id="line2d_2">
    <path d="M 5.76 33.12 
L 138.24 33.12 
" clip-path="url(#p06846d8380)" style="fill: none; stroke: #b2b2b2; stroke-opacity: 0.35; stroke-width: 0.5; stroke-linecap: square"/>
   </g>
   <g id="line2d_3">
    <path d="M 5.76 23.28 
L 138.24 23.28 
" clip-path="url(#p06846d8380)" style="fill: none; stroke: #b2b2b2; stroke-opacity: 0.35; stroke-width: 0.5; stroke-linecap: square"/>
   </g>
   <g id="line2d_4">
    <path d="M 5.76 13.44 
L 138.24 13.44 
" clip-path="url(#p06846d8380)" style="fill: none; stroke: #b2b2b2; stroke-opacity: 0.35; stroke-width: 0.5; stroke-linecap: square"/>
   </g>
   <g id="line2d_5">
    <path d="M 5.76 49.96608 
L 10.672057 49.7004 
L 15.196306 49.27236 
L 19.73218 49.37076 
L 24.223134 49.68072 
L 28.870884 49.25268 
L 33.368466 49.51344 
L 37.923538 49.4052 
L 42.44258 49.34124 
L 46.996863 49.09032 
L 51.539206 49.24284 
L 56.048833 49.49868 
L 60.637462 49.64628 
L 65.195585 49.58724 
L 69.710892 49.36092 
L 74.253604 49.41996 
L 78.815987 49.45932 
L 83.351702 49.16904 
L 87.890153 49.22808 
L 92.521598 49.27236 
L 97.078931 48.87384 
L 101.543902 48.74592 
L 106.123064 48.70164 
L 110.668826 49.03128 
L 115.16909 49.1592 
L 119.686975 49.08048 
L 124.299432 49.21332 
L 128.854609 49.36584 
L 133.35703 49.11 
L 138.24 48.90828 
" clip-path="url(#p06846d8380)" style="fill: none; stroke: #bebebe; stroke-width: 0.6; stroke-linecap: round"/>
   </g>
   <g id="line2d_6">
    <path d="M 5.76 45.23796 
L 10.672057 44.81484 
L 15.196306 43.821 
L 19.73218 44.01288 
L 24.223134 44.66232 
L 28.870884 43.93908 
L 33.368466 44.39664 
L 37.923538 44.12112 
L 42.44258 44.33268 
L 46.996863 43.3044 
L 51.539206 43.6242 
L 56.048833 44.29824 
L 60.637462 44.53932 
L 65.195585 44.30808 
L 69.710892 43.8702 
L 74.253604 44.00304 
L 78.815987 43.97844 
L 83.351702 43.41756 
L 87.890153 43.48152 
L 92.521598 43.48644 
L 97.078931 42.49752 
L 101.543902 41.73984 
L 106.123064 41.7546 
L 110.668826 42.591 
L 115.16909 43.14204 
L 119.686975 43.083 
L 124.299432 43.35852 
L 128.854609 43.78164 
L 133.35703 43.21584 
L 138.24 42.9354 
" clip-path="url(#p06846d8380)" style="fill: none; stroke: #4a8dff; stroke-width: 0.6; stroke-linecap: round"/>
   </g>
   <g id="line2d_7">
    <path d="M 5.76 49.86768 
L 10.672057 49.72992 
L 15.196306 49.39536 
L 19.73218 49.52328 
L 24.223134 49.6758 
L 28.870884 49.47408 
L 33.368466 49.60692 
L 37.923538 49.37568 
L 42.44258 49.36584 
L 46.996863 48.6672 
L 51.539206 48.95256 
L 56.048833 49.36092 
L 60.637462 49.54788 
L 65.195585 49.5282 
L 69.710892 49.09032 
L 74.253604 49.16412 
L 78.815987 49.2084 
L 83.351702 48.93288 
L 87.890153 48.95748 
L 92.521598 48.89844 
L 97.078931 48.48024 
L 101.543902 48.1998 
L 106.123064 48.28344 
L 110.668826 48.88368 
L 115.16909 49.04604 
L 119.686975 49.00176 
L 124.299432 49.20348 
L 128.854609 49.38552 
L 133.35703 49.04112 
L 138.24 48.92796 
" clip-path="url(#p06846d8380)" style="fill: none; stroke: #f5841e; stroke-width: 0.7; stroke-linecap: round"/>
   </g>
  </g>
 </g>
 <defs>
  <clipPath id="p06846d8380">
   <rect x="5.76" y="3.6" width="132.48" height="49.2"/>
  </clipPath>
 </defs>
</svg>
