<?xml version="1.0" encoding="utf-8" standalone="no"?>
<!DOCTYPE svg PUBLIC "-//W3C//DTD SVG 1.1//EN"
  "http://www.w3.org/Graphics/SVG/1.1/DTD/svg11.dtd">
<svg xmlns:xlink="http://www.w3.org/1999/xlink" width="144pt" height="60pt" viewBox="0 0 144 60" xmlns="http://www.w3.org/2000/svg" version="1.1">
  <desc id="nav-meta">{"window":"2w","count":4,"labels":["25.05","29.05","03.06","07.06"],"tick_utc":["2026-05-25T05:10:23Z","2026-05-29T04:59:49Z","2026-06-03T05:31:47Z","2026-06-07T05:11:57Z"]}</desc>

 <metadata>
  <rdf:RDF xmlns:dc="http://purl.org/dc/elements/1.1/" xmlns:cc="http://creativecommons.org/ns#" xmlns:rdf="http://www.w3.org/1999/02/22-rdf-syntax-ns#">
   <cc:Work>
    <dc:type rdf:resource="http://purl.org/dc/dcmitype/StillImage"/>
    <dc:date>2026-06-07T14:32:02.767339</dc:date>
    <dc:format>image/svg+xml</dc:format>
    <dc:creator>
     <cc:Agent>
      <dc:title>Matplotlib v3.10.9, https://matplotlib.org/</dc:title>
     </cc:Agent>
    </dc:creator>
   </cc:Work>
  </rdf:RDF>
 </metadata>
 <defs>
  <style type="text/css">*{stroke-linejoin: round; stroke-linecap: butt}</style>
 </defs>
 <g id="figure_1">
  <g id="patch_1">
   <path d="M 0 60 
L 144 60 
L 144 0 
L 0 0 
L 0 60 
z
" style="fill: none; opacity: 0"/>
  </g>
  <g id="axes_1">
   <g id="patch_2">
    <path d="M 5.76 52.8 
L 138.24 52.8 
L 138.24 3.6 
L 5.76 3.6 
L 5.76 52.8 
z
" style="fill: none"/>
   </g>
   <g id="matplotlib.axis_1"/>
   <g id="matplotlib.axis_2"/>
   <g id="line2d_1">
    <path d="M 5.76 42.96 
L 138.24 42.96 
" clip-path="url(#pd2fb37d00f)" style="fill: none; stroke: #b2b2b2; stroke-opacity: 0.35; stroke-width: 0.5; stroke-linecap: square"/>
   </g>
   <g id="line2d_2">
    <path d="M 5.76 33.12 
L 138.24 33.12 
" clip-path="url(#pd2fb37d00f)" style="fill: none; stroke: #b2b2b2; stroke-opacity: 0.35; stroke-width: 0.5; stroke-linecap: square"/>
   </g>
   <g id="line2d_3">
    <path d="M 5.76 23.28 
L 138.24 23.28 
" clip-path="url(#pd2fb37d00f)" style="fill: none; stroke: #b2b2b2; stroke-opacity: 0.35; stroke-width: 0.5; stroke-linecap: square"/>
   </g>
   <g id="line2d_4">
    <path d="M 5.76 13.44 
L 138.24 13.44 
" clip-path="url(#pd2fb37d00f)" style="fill: none; stroke: #b2b2b2; stroke-opacity: 0.35; stroke-width: 0.5; stroke-linecap: square"/>
   </g>
   <g id="line2d_5">
    <path d="M 5.76 49.41504 
L 15.795534 49.5282 
L 26.090063 49.5774 
L 36.247428 49.7742 
L 46.444893 49.7004 
L 56.487857 49.69548 
L 66.885818 49.61676 
L 77.22646 49.71024 
L 87.316128 49.7988 
L 97.620681 50.19732 
L 107.775688 50.45808 
L 117.797777 50.59092 
L 127.831071 50.99928 
L 138.24 50.82216 
" clip-path="url(#pd2fb37d00f)" style="fill: none; stroke: #bebebe; stroke-width: 0.6; stroke-linecap: round"/>
   </g>
   <g id="line2d_6">
    <path d="M 5.76 43.42248 
L 15.795534 43.51596 
L 26.090063 43.67832 
L 36.247428 44.32776 
L 46.444893 44.13588 
L 56.487857 44.16048 
L 66.885818 43.96368 
L 77.22646 44.2392 
L 87.316128 44.19984 
L 97.620681 45.16908 
L 107.775688 45.67584 
L 117.797777 46.00548 
L 127.831071 47.57004 
L 138.24 47.04852 
" clip-path="url(#pd2fb37d00f)" style="fill: none; stroke: #4a8dff; stroke-width: 0.6; stroke-linecap: round"/>
   </g>
   <g id="line2d_7">
    <path d="M 5.76 47.37324 
L 15.795534 47.66844 
L 26.090063 48.07188 
L 36.247428 48.59832 
L 46.444893 48.52452 
L 56.487857 48.5688 
L 66.885818 48.38676 
L 77.22646 48.55404 
L 87.316128 49.0116 
L 97.620681 49.57248 
L 107.775688 49.93656 
L 117.797777 49.98084 
L 127.831071 50.3646 
L 138.24 50.15796 
" clip-path="url(#pd2fb37d00f)" style="fill: none; stroke: #f5841e; stroke-width: 0.7; stroke-linecap: round"/>
   </g>
  </g>
 </g>
 <defs>
  <clipPath id="pd2fb37d00f">
   <rect x="5.76" y="3.6" width="132.48" height="49.2"/>
  </clipPath>
 </defs>
</svg>
