<?xml version="1.0" encoding="utf-8" standalone="no"?>
<!DOCTYPE svg PUBLIC "-//W3C//DTD SVG 1.1//EN"
  "http://www.w3.org/Graphics/SVG/1.1/DTD/svg11.dtd">
<svg xmlns:xlink="http://www.w3.org/1999/xlink" width="144pt" height="60pt" viewBox="0 0 144 60" xmlns="http://www.w3.org/2000/svg" version="1.1">
  <desc id="nav-meta">{"window":"6m","count":4,"labels":["07.11","06.01","07.03","06.05"],"tick_utc":["2025-11-07T12:00:00Z","2026-01-06T12:00:00Z","2026-03-07T03:05:35Z","2026-05-06T04:24:54Z"]}</desc>

 <metadata>
  <rdf:RDF xmlns:dc="http://purl.org/dc/elements/1.1/" xmlns:cc="http://creativecommons.org/ns#" xmlns:rdf="http://www.w3.org/1999/02/22-rdf-syntax-ns#">
   <cc:Work>
    <dc:type rdf:resource="http://purl.org/dc/dcmitype/StillImage"/>
    <dc:date>2026-05-06T04:24:55.211509</dc:date>
    <dc:format>image/svg+xml</dc:format>
    <dc:creator>
     <cc:Agent>
      <dc:title>Matplotlib v3.10.9, https://matplotlib.org/</dc:title>
     </cc:Agent>
    </dc:creator>
   </cc:Work>
  </rdf:RDF>
 </metadata>
 <defs>
  <style type="text/css">*{stroke-linejoin: round; stroke-linecap: butt}</style>
 </defs>
 <g id="figure_1">
  <g id="patch_1">
   <path d="M 0 60 
L 144 60 
L 144 0 
L 0 0 
L 0 60 
z
" style="fill: none; opacity: 0"/>
  </g>
  <g id="axes_1">
   <g id="patch_2">
    <path d="M 5.76 52.8 
L 138.24 52.8 
L 138.24 3.6 
L 5.76 3.6 
L 5.76 52.8 
z
" style="fill: none"/>
   </g>
   <g id="matplotlib.axis_1"/>
   <g id="matplotlib.axis_2"/>
   <g id="line2d_1">
    <path d="M 5.76 42.96 
L 138.24 42.96 
" clip-path="url(#pc8cc76ec63)" style="fill: none; stroke: #b2b2b2; stroke-opacity: 0.35; stroke-width: 0.5; stroke-linecap: square"/>
   </g>
   <g id="line2d_2">
    <path d="M 5.76 33.12 
L 138.24 33.12 
" clip-path="url(#pc8cc76ec63)" style="fill: none; stroke: #b2b2b2; stroke-opacity: 0.35; stroke-width: 0.5; stroke-linecap: square"/>
   </g>
   <g id="line2d_3">
    <path d="M 5.76 23.28 
L 138.24 23.28 
" clip-path="url(#pc8cc76ec63)" style="fill: none; stroke: #b2b2b2; stroke-opacity: 0.35; stroke-width: 0.5; stroke-linecap: square"/>
   </g>
   <g id="line2d_4">
    <path d="M 5.76 13.44 
L 138.24 13.44 
" clip-path="url(#pc8cc76ec63)" style="fill: none; stroke: #b2b2b2; stroke-opacity: 0.35; stroke-width: 0.5; stroke-linecap: square"/>
   </g>
   <g id="line2d_5">
    <path d="M 5.76 41.44956 
L 6.497295 40.53444 
L 7.234589 41.02152 
L 7.971884 40.22448 
L 8.709178 39.79644 
L 9.446473 41.51844 
L 10.183767 41.66604 
L 10.921062 42.714 
L 11.658356 43.51596 
L 12.395651 43.43724 
L 13.132945 43.71276 
L 13.87024 44.59836 
L 14.607534 43.30932 
L 15.344829 43.85052 
L 16.082123 44.21952 
L 16.819418 44.88372 
L 17.556713 44.99688 
L 18.294007 44.57868 
L 19.031302 43.5996 
L 19.768596 43.51596 
L 20.505891 43.00428 
L 21.243185 43.2798 
L 21.98048 43.71768 
L 23.455069 44.0916 
L 24.192363 45.11004 
L 24.929658 43.55532 
L 25.666952 42.72876 
L 27.141541 44.27364 
L 28.61613 44.47536 
L 29.353425 44.25888 
L 30.09072 43.64388 
L 30.828014 43.84068 
L 31.565309 43.85052 
L 32.302603 44.36712 
L 33.039898 44.26872 
L 33.777192 44.74104 
L 34.514487 44.98704 
L 35.251781 44.84436 
L 35.989076 45.58728 
L 36.72637 46.0596 
L 37.463665 45.18384 
L 40.412843 45.47904 
L 41.150138 45.65616 
L 41.887432 45.98088 
L 43.362021 45.38556 
L 44.099316 45.31668 
L 44.83661 45.58728 
L 45.573905 45.35604 
L 46.311199 45.40032 
L 47.048494 45.11496 
L 47.785788 44.42124 
L 49.260377 44.18508 
L 49.997672 43.62912 
L 50.734966 43.24044 
L 51.472261 43.8702 
L 52.209556 43.60944 
L 52.94685 43.92924 
L 53.684145 43.93416 
L 54.421439 43.46184 
L 55.158734 43.5012 
L 55.896028 42.72384 
L 56.633323 42.51228 
L 57.370617 43.08792 
L 58.107912 42.75828 
L 58.845206 42.90096 
L 60.319795 44.2392 
L 61.05709 45.23304 
L 61.794384 44.77548 
L 63.268974 45.04608 
L 64.006268 45.07068 
L 64.743563 46.1334 
L 65.480857 45.4446 
L 66.218152 45.06084 
L 66.955446 45.33144 
L 67.692741 46.30068 
L 68.430035 46.34496 
L 69.16733 47.89476 
L 69.904624 48.26376 
L 70.641919 47.96364 
L 71.85028 49.06572 
L 72.587199 50.04972 
L 73.321336 49.24776 
L 76.283963 49.59708 
L 77.018603 49.80372 
L 77.755676 49.86768 
L 78.484104 49.479 
L 79.182495 49.24776 
L 79.967082 49.48392 
L 80.611762 49.37568 
L 81.440502 49.479 
L 82.1769 49.7004 
L 84.388391 49.49376 
L 85.127905 49.98576 
L 85.802913 49.96608 
L 86.59984 49.7004 
L 87.333849 49.27236 
L 88.069744 49.37076 
L 88.798351 49.68072 
L 89.552397 49.25268 
L 90.28208 49.51344 
L 92.493136 49.09032 
L 94.706171 49.64628 
L 95.445676 49.58724 
L 96.178234 49.36092 
L 97.655435 49.45932 
L 98.391304 49.16904 
L 99.879018 49.27236 
L 100.618394 48.87384 
L 102.085704 48.70164 
L 102.823204 49.03128 
L 103.553322 49.1592 
L 104.286298 49.08048 
L 105.773645 49.36584 
L 107.29632 48.90828 
L 107.98767 49.05096 
L 109.456141 49.64628 
L 112.419143 49.59708 
L 113.146727 49.8726 
L 114.615846 49.80864 
L 116.835947 49.83816 
L 117.574436 49.50852 
L 118.309162 49.68564 
L 119.779263 49.48884 
L 120.529784 49.6512 
L 121.270859 49.69056 
L 122.00346 49.40028 
L 122.740192 49.58724 
L 124.945632 49.19856 
L 125.692664 49.43472 
L 126.431784 49.50852 
L 130.108879 49.37568 
L 130.857642 49.4052 
L 131.602881 49.29204 
L 132.341721 49.5528 
L 133.077001 49.50852 
L 133.815533 49.64136 
L 135.279361 49.56264 
L 136.031624 49.57248 
L 136.768662 49.42488 
L 137.489717 49.49376 
L 138.24 49.32156 
L 138.24 49.32156 
" clip-path="url(#pc8cc76ec63)" style="fill: none; stroke: #bebebe; stroke-width: 0.6; stroke-linecap: round"/>
   </g>
   <g id="line2d_6">
    <path d="M 5.76 34.9158 
L 6.497295 34.02528 
L 7.234589 34.26144 
L 7.971884 33.0216 
L 8.709178 33.10524 
L 9.446473 34.1532 
L 10.183767 34.2024 
L 10.921062 35.4324 
L 11.658356 36.34752 
L 12.395651 35.89488 
L 13.87024 36.94776 
L 14.607534 36.2688 
L 15.344829 36.97236 
L 16.082123 38.286 
L 16.819418 38.76324 
L 17.556713 38.73864 
L 18.294007 38.51724 
L 19.031302 37.42992 
L 19.768596 37.42008 
L 20.505891 36.90348 
L 21.243185 36.98712 
L 21.98048 36.86412 
L 22.717774 37.16424 
L 23.455069 37.14948 
L 24.192363 38.52216 
L 25.666952 35.71776 
L 26.404247 36.15564 
L 27.141541 36.93792 
L 28.61613 36.72636 
L 29.353425 36.21468 
L 30.09072 34.8174 
L 30.828014 34.7928 
L 31.565309 35.42748 
L 32.302603 36.49512 
L 33.039898 36.28356 
L 33.777192 36.6378 
L 34.514487 37.3512 
L 35.251781 37.3512 
L 35.989076 38.31552 
L 36.72637 38.32536 
L 37.463665 37.26264 
L 38.200959 37.26264 
L 38.938254 37.09044 
L 39.675548 37.06092 
L 40.412843 37.34628 
L 41.150138 37.48404 
L 41.887432 37.77924 
L 43.362021 37.45944 
L 44.83661 37.56276 
L 45.573905 37.31184 
L 46.311199 37.33644 
L 47.048494 37.09536 
L 47.785788 36.23928 
L 49.260377 36.11628 
L 49.997672 35.48652 
L 50.734966 35.0142 
L 51.472261 35.93424 
L 52.209556 36.36228 
L 52.94685 36.50988 
L 53.684145 36.5148 
L 54.421439 36.25404 
L 55.158734 36.46068 
L 55.896028 34.83708 
L 56.633323 34.57632 
L 58.107912 35.00436 
L 58.845206 34.93056 
L 59.582501 35.088 
L 60.319795 35.78664 
L 61.05709 37.55292 
L 61.794384 37.26756 
L 62.531679 37.46436 
L 64.006268 37.45944 
L 64.743563 38.41392 
L 66.218152 36.95268 
L 66.955446 37.05108 
L 67.692741 38.37948 
L 68.430035 39.20604 
L 69.16733 41.03136 
L 69.904624 42.26628 
L 70.641919 41.73492 
L 71.264361 42.23676 
L 72.587199 44.89356 
L 73.321336 43.6242 
L 74.806694 43.53072 
L 75.548196 43.72752 
L 77.018603 44.436 
L 77.755676 44.49012 
L 78.484104 43.81608 
L 79.182495 43.7226 
L 79.967082 44.5344 
L 80.611762 44.19 
L 81.440502 44.21952 
L 82.909885 44.51472 
L 84.388391 44.3868 
L 85.127905 45.174 
L 85.802913 45.23796 
L 86.59984 44.81484 
L 87.333849 43.821 
L 88.069744 44.01288 
L 88.798351 44.66232 
L 89.552397 43.93908 
L 90.28208 44.39664 
L 91.02109 44.12112 
L 91.754254 44.33268 
L 92.493136 43.3044 
L 93.23008 43.6242 
L 93.961717 44.29824 
L 94.706171 44.53932 
L 95.445676 44.30808 
L 96.178234 43.8702 
L 96.915239 44.00304 
L 97.655435 43.97844 
L 98.391304 43.41756 
L 99.879018 43.48644 
L 100.618394 42.49752 
L 101.342786 41.73984 
L 102.085704 41.7546 
L 102.823204 42.591 
L 103.553322 43.14204 
L 104.286298 43.083 
L 105.034618 43.35852 
L 105.773645 43.78164 
L 106.504113 43.21584 
L 107.29632 42.9354 
L 107.98767 43.10268 
L 109.456141 44.25396 
L 111.675525 43.74228 
L 112.419143 43.46676 
L 113.884866 43.79148 
L 115.364242 43.77672 
L 116.10344 43.2552 
L 116.835947 43.40772 
L 117.574436 42.49752 
L 118.309162 42.90588 
L 119.053241 42.8616 
L 119.779263 42.41388 
L 121.270859 42.79764 
L 122.00346 41.57256 
L 122.740192 41.86284 
L 123.480678 41.63652 
L 124.21647 41.85792 
L 124.945632 41.22324 
L 125.692664 41.76936 
L 126.431784 42.1482 
L 127.165845 41.96616 
L 127.900852 41.59224 
L 129.380382 41.99076 
L 130.108879 41.91696 
L 130.857642 41.98584 
L 131.602881 41.41512 
L 132.341721 42.15312 
L 133.077001 41.96124 
L 133.815533 42.43848 
L 135.279361 42.02028 
L 136.031624 42.0252 
L 136.768662 41.40528 
L 138.24 41.52336 
L 138.24 41.52336 
" clip-path="url(#pc8cc76ec63)" style="fill: none; stroke: #4a8dff; stroke-width: 0.6; stroke-linecap: round"/>
   </g>
   <g id="line2d_7">
    <path d="M 5.76 35.5062 
L 6.497295 34.48284 
L 7.234589 35.02896 
L 7.971884 33.8334 
L 8.709178 33.243 
L 9.446473 34.69932 
L 10.183767 35.4078 
L 10.921062 36.2934 
L 11.658356 38.901 
L 12.395651 38.37948 
L 13.132945 38.92068 
L 13.87024 40.09164 
L 14.607534 39.70788 
L 15.344829 40.4262 
L 16.082123 42.75336 
L 16.819418 43.54548 
L 17.556713 43.72752 
L 18.294007 42.6894 
L 19.031302 41.976 
L 19.768596 42.42864 
L 20.505891 40.86408 
L 21.243185 40.47048 
L 23.455069 40.89852 
L 24.192363 42.9354 
L 24.929658 40.43604 
L 25.666952 39.31428 
L 26.404247 40.04244 
L 27.141541 41.43972 
L 27.878836 41.47416 
L 28.61613 41.02152 
L 29.353425 40.7952 
L 30.09072 39.75708 
L 30.828014 40.11132 
L 31.565309 39.87024 
L 32.302603 40.94772 
L 33.039898 40.97232 
L 34.514487 42.87144 
L 35.251781 42.17772 
L 35.989076 43.04364 
L 36.72637 43.34868 
L 37.463665 42.03504 
L 38.938254 41.8038 
L 39.675548 41.84316 
L 40.412843 42.37944 
L 41.150138 42.26628 
L 41.887432 42.468 
L 42.624727 42.42864 
L 43.362021 42.18264 
L 44.099316 42.1728 
L 44.83661 42.50244 
L 45.573905 41.88252 
L 46.311199 42.32532 
L 47.785788 41.13468 
L 49.260377 40.42128 
L 49.997672 39.16176 
L 50.734966 39.28968 
L 51.472261 40.48032 
L 53.684145 40.88376 
L 55.158734 40.53936 
L 55.896028 38.50248 
L 56.633323 37.63656 
L 57.370617 38.34012 
L 58.107912 38.37456 
L 58.845206 38.5812 
L 60.319795 39.8358 
L 61.05709 41.93172 
L 61.794384 41.42004 
L 63.268974 41.39052 
L 64.006268 41.5086 
L 64.743563 42.80256 
L 65.480857 41.93664 
L 66.218152 41.49384 
L 66.955446 41.51352 
L 67.692741 43.78164 
L 68.430035 43.9932 
L 69.16733 46.66968 
L 69.904624 47.55036 
L 70.641919 46.64508 
L 71.85028 48.89352 
L 72.587199 49.84308 
L 73.321336 49.00176 
L 74.075484 49.233 
L 74.806694 48.97716 
L 76.283963 49.36092 
L 77.755676 49.58724 
L 78.484104 49.28712 
L 79.182495 49.16904 
L 79.967082 49.39044 
L 80.611762 49.29696 
L 82.1769 49.55772 
L 84.388391 49.41996 
L 85.127905 49.8234 
L 85.802913 49.86768 
L 86.59984 49.72992 
L 87.333849 49.39536 
L 88.798351 49.6758 
L 89.552397 49.47408 
L 90.28208 49.60692 
L 91.02109 49.37568 
L 91.754254 49.36584 
L 92.493136 48.6672 
L 93.23008 48.95256 
L 93.961717 49.36092 
L 94.706171 49.54788 
L 95.445676 49.5282 
L 96.178234 49.09032 
L 97.655435 49.2084 
L 98.391304 48.93288 
L 99.879018 48.89844 
L 100.618394 48.48024 
L 101.342786 48.1998 
L 102.085704 48.28344 
L 102.823204 48.88368 
L 103.553322 49.04604 
L 104.286298 49.00176 
L 105.773645 49.38552 
L 106.504113 49.04112 
L 107.29632 48.92796 
L 107.98767 48.987 
L 109.456141 49.66104 
L 112.419143 49.40028 
L 113.146727 49.56756 
L 114.615846 49.56264 
L 115.364242 49.53312 
L 116.10344 49.25268 
L 116.835947 49.29696 
L 117.574436 48.89352 
L 118.309162 48.96732 
L 119.779263 48.5934 
L 120.529784 48.84432 
L 121.270859 48.95748 
L 122.00346 48.30804 
L 122.740192 48.34248 
L 123.480678 48.21456 
L 124.21647 48.26376 
L 124.945632 47.41752 
L 125.692664 48.05712 
L 126.431784 48.26376 
L 127.165845 48.01776 
L 127.900852 47.23548 
L 130.108879 47.1666 
L 130.857642 47.31912 
L 131.602881 46.49256 
L 132.341721 47.64876 
L 133.077001 47.5356 
L 133.815533 48.0276 
L 134.560883 47.50608 
L 135.279361 46.81728 
L 136.031624 46.92552 
L 136.768662 45.85788 
L 138.24 45.29208 
L 138.24 45.29208 
" clip-path="url(#pc8cc76ec63)" style="fill: none; stroke: #f5841e; stroke-width: 0.7; stroke-linecap: round"/>
   </g>
  </g>
 </g>
 <defs>
  <clipPath id="pc8cc76ec63">
   <rect x="5.76" y="3.6" width="132.48" height="49.2"/>
  </clipPath>
 </defs>
</svg>
