<?xml version="1.0" encoding="utf-8" standalone="no"?>
<!DOCTYPE svg PUBLIC "-//W3C//DTD SVG 1.1//EN"
  "http://www.w3.org/Graphics/SVG/1.1/DTD/svg11.dtd">
<svg xmlns:xlink="http://www.w3.org/1999/xlink" width="144pt" height="60pt" viewBox="0 0 144 60" xmlns="http://www.w3.org/2000/svg" version="1.1">
  <desc id="nav-meta">{"window":"6m","count":4,"labels":["07.09","06.11","05.01","06.03"],"tick_utc":["2025-09-07T12:00:00Z","2025-11-06T12:00:00Z","2026-01-05T12:00:00Z","2026-03-06T03:16:38Z"]}</desc>

 <metadata>
  <rdf:RDF xmlns:dc="http://purl.org/dc/elements/1.1/" xmlns:cc="http://creativecommons.org/ns#" xmlns:rdf="http://www.w3.org/1999/02/22-rdf-syntax-ns#">
   <cc:Work>
    <dc:type rdf:resource="http://purl.org/dc/dcmitype/StillImage"/>
    <dc:date>2026-03-06T07:26:58.390369</dc:date>
    <dc:format>image/svg+xml</dc:format>
    <dc:creator>
     <cc:Agent>
      <dc:title>Matplotlib v3.10.8, https://matplotlib.org/</dc:title>
     </cc:Agent>
    </dc:creator>
   </cc:Work>
  </rdf:RDF>
 </metadata>
 <defs>
  <style type="text/css">*{stroke-linejoin: round; stroke-linecap: butt}</style>
 </defs>
 <g id="figure_1">
  <g id="patch_1">
   <path d="M 0 60 
L 144 60 
L 144 0 
L 0 0 
L 0 60 
z
" style="fill: none; opacity: 0"/>
  </g>
  <g id="axes_1">
   <g id="patch_2">
    <path d="M 5.76 52.8 
L 138.24 52.8 
L 138.24 3.6 
L 5.76 3.6 
L 5.76 52.8 
z
" style="fill: none"/>
   </g>
   <g id="matplotlib.axis_1"/>
   <g id="matplotlib.axis_2"/>
   <g id="line2d_1">
    <path d="M 5.76 42.96 
L 138.24 42.96 
" clip-path="url(#pac29596085)" style="fill: none; stroke: #b2b2b2; stroke-opacity: 0.35; stroke-width: 0.5; stroke-linecap: square"/>
   </g>
   <g id="line2d_2">
    <path d="M 5.76 33.12 
L 138.24 33.12 
" clip-path="url(#pac29596085)" style="fill: none; stroke: #b2b2b2; stroke-opacity: 0.35; stroke-width: 0.5; stroke-linecap: square"/>
   </g>
   <g id="line2d_3">
    <path d="M 5.76 23.28 
L 138.24 23.28 
" clip-path="url(#pac29596085)" style="fill: none; stroke: #b2b2b2; stroke-opacity: 0.35; stroke-width: 0.5; stroke-linecap: square"/>
   </g>
   <g id="line2d_4">
    <path d="M 5.76 13.44 
L 138.24 13.44 
" clip-path="url(#pac29596085)" style="fill: none; stroke: #b2b2b2; stroke-opacity: 0.35; stroke-width: 0.5; stroke-linecap: square"/>
   </g>
   <g id="line2d_5">
    <path d="M 5.76 35.54556 
L 7.234978 33.735 
L 7.972467 33.30204 
L 8.709956 32.44104 
L 9.447446 31.83096 
L 10.184935 30.06468 
L 10.922424 30.01056 
L 11.659913 30.291 
L 12.397402 31.16184 
L 13.134891 30.74856 
L 13.87238 29.71536 
L 14.609869 29.37588 
L 15.347358 30.57636 
L 16.084848 30.42876 
L 16.822337 30.79284 
L 17.559826 32.91828 
L 18.297315 33.72024 
L 19.034804 34.05972 
L 19.772293 36.5886 
L 20.509782 34.90104 
L 21.247271 35.10276 
L 21.98476 34.16796 
L 22.72225 33.8826 
L 23.459739 34.43364 
L 24.934717 31.05852 
L 25.672206 31.26024 
L 26.409695 31.92936 
L 27.147184 31.85064 
L 27.884673 31.3242 
L 28.622162 32.84448 
L 29.359652 31.78176 
L 30.097141 32.85924 
L 30.83463 36.8838 
L 31.572119 38.39424 
L 32.309608 35.95392 
L 33.047097 34.53696 
L 33.784586 35.20608 
L 35.259564 37.57752 
L 35.997053 37.90716 
L 36.734543 37.18884 
L 37.472032 37.18392 
L 38.209521 36.89364 
L 38.94701 37.42008 
L 39.684499 38.17284 
L 40.421988 36.687 
L 41.159477 36.42132 
L 41.896966 36.34752 
L 42.634455 35.56032 
L 43.371945 35.72268 
L 44.109434 36.29832 
L 44.846923 36.32292 
L 45.584412 37.61688 
L 46.321901 37.2282 
L 47.05939 37.34628 
L 47.796879 37.23804 
L 48.534368 40.008 
L 49.271857 41.36592 
L 50.009347 40.43604 
L 50.746836 41.44956 
L 51.484325 40.53444 
L 52.221814 41.02152 
L 52.959303 40.22448 
L 53.696792 39.79644 
L 54.434281 41.51844 
L 55.17177 41.66604 
L 55.909259 42.714 
L 56.646749 43.51596 
L 57.384238 43.43724 
L 58.121727 43.71276 
L 58.859216 44.59836 
L 59.596705 43.30932 
L 60.334194 43.85052 
L 61.071683 44.21952 
L 61.809172 44.88372 
L 62.546661 44.99688 
L 63.284151 44.57868 
L 64.02164 43.5996 
L 64.759129 43.51596 
L 65.496618 43.00428 
L 66.234107 43.2798 
L 66.971596 43.71768 
L 68.446574 44.0916 
L 69.184063 45.11004 
L 69.921553 43.55532 
L 70.659042 42.72876 
L 72.13402 44.27364 
L 73.608998 44.47536 
L 74.346487 44.25888 
L 75.083976 43.64388 
L 75.821465 43.84068 
L 76.558955 43.85052 
L 77.296444 44.36712 
L 78.033933 44.26872 
L 78.771422 44.74104 
L 79.508911 44.98704 
L 80.2464 44.84436 
L 80.983889 45.58728 
L 81.721378 46.0596 
L 82.458867 45.18384 
L 85.408824 45.47904 
L 86.146313 45.65616 
L 86.883802 45.98088 
L 88.35878 45.38556 
L 89.096269 45.31668 
L 89.833758 45.58728 
L 90.571248 45.35604 
L 91.308737 45.40032 
L 92.046226 45.11496 
L 92.783715 44.42124 
L 94.258693 44.18508 
L 94.996182 43.62912 
L 95.733671 43.24044 
L 96.47116 43.8702 
L 97.20865 43.60944 
L 97.946139 43.92924 
L 98.683628 43.93416 
L 99.421117 43.46184 
L 100.158606 43.5012 
L 100.896095 42.72384 
L 101.633584 42.51228 
L 102.371073 43.08792 
L 103.108562 42.75828 
L 103.846052 42.90096 
L 105.32103 44.2392 
L 106.058519 45.23304 
L 106.796008 44.77548 
L 108.270986 45.04608 
L 109.008475 45.07068 
L 109.745964 46.1334 
L 110.483454 45.4446 
L 111.220943 45.06084 
L 111.958432 45.33144 
L 112.695921 46.30068 
L 113.43341 46.34496 
L 114.170899 47.89476 
L 114.908388 48.26376 
L 115.645877 47.96364 
L 116.854557 49.06572 
L 117.591671 50.04972 
L 118.326002 49.24776 
L 121.28941 49.59708 
L 122.024245 49.80372 
L 122.761512 49.86768 
L 123.490132 49.479 
L 124.188707 49.24776 
L 124.973501 49.48392 
L 125.618352 49.37568 
L 126.44731 49.479 
L 127.183903 49.7004 
L 129.395978 49.49376 
L 130.135686 49.98576 
L 130.810873 49.96608 
L 131.60801 49.7004 
L 132.342213 49.27236 
L 133.078302 49.37076 
L 133.807101 49.68072 
L 134.561346 49.25268 
L 135.291221 49.51344 
L 137.502861 49.09032 
L 138.24 49.24284 
L 138.24 49.24284 
" clip-path="url(#pac29596085)" style="fill: none; stroke: #bebebe; stroke-width: 0.6; stroke-linecap: round"/>
   </g>
   <g id="line2d_6">
    <path d="M 5.76 28.09668 
L 6.497489 27.87528 
L 7.972467 27.83592 
L 8.709956 27.57024 
L 9.447446 26.77812 
L 10.184935 25.01184 
L 11.659913 25.71048 
L 12.397402 26.31564 
L 13.134891 26.45832 
L 13.87238 25.8384 
L 14.609869 25.84824 
L 15.347358 26.6994 
L 16.084848 26.62068 
L 16.822337 26.8224 
L 17.559826 28.61328 
L 19.034804 28.97244 
L 19.772293 30.99456 
L 20.509782 29.76456 
L 21.247271 29.8974 
L 21.98476 29.02164 
L 22.72225 28.50012 
L 23.459739 29.00688 
L 24.197228 27.59484 
L 24.934717 26.601 
L 25.672206 26.3796 
L 26.409695 26.5764 
L 27.147184 26.3796 
L 27.884673 25.1496 
L 28.622162 26.81256 
L 29.359652 26.29596 
L 30.097141 27.41772 
L 30.83463 31.19136 
L 31.572119 31.80144 
L 32.309608 28.89864 
L 33.047097 28.28364 
L 33.784586 29.11512 
L 34.522075 30.1434 
L 35.259564 30.80268 
L 35.997053 31.22088 
L 36.734543 30.8076 
L 37.472032 30.13356 
L 38.209521 30.17784 
L 38.94701 30.89124 
L 39.684499 31.42752 
L 40.421988 31.04376 
L 41.159477 30.49764 
L 41.896966 30.3648 
L 42.634455 28.88388 
L 43.371945 29.15448 
L 44.109434 30.15324 
L 45.584412 31.4226 
L 46.321901 31.10772 
L 47.796879 30.66 
L 49.271857 34.99944 
L 50.009347 34.07448 
L 50.746836 34.9158 
L 51.484325 34.02528 
L 52.221814 34.26144 
L 52.959303 33.0216 
L 53.696792 33.10524 
L 54.434281 34.1532 
L 55.17177 34.2024 
L 55.909259 35.4324 
L 56.646749 36.34752 
L 57.384238 35.89488 
L 58.859216 36.94776 
L 59.596705 36.2688 
L 60.334194 36.97236 
L 61.071683 38.286 
L 61.809172 38.76324 
L 62.546661 38.73864 
L 63.284151 38.51724 
L 64.02164 37.42992 
L 64.759129 37.42008 
L 65.496618 36.90348 
L 66.234107 36.98712 
L 66.971596 36.86412 
L 67.709085 37.16424 
L 68.446574 37.14948 
L 69.184063 38.52216 
L 70.659042 35.71776 
L 71.396531 36.15564 
L 72.13402 36.93792 
L 73.608998 36.72636 
L 74.346487 36.21468 
L 75.083976 34.8174 
L 75.821465 34.7928 
L 76.558955 35.42748 
L 77.296444 36.49512 
L 78.033933 36.28356 
L 78.771422 36.6378 
L 79.508911 37.3512 
L 80.2464 37.3512 
L 80.983889 38.31552 
L 81.721378 38.32536 
L 82.458867 37.26264 
L 83.196357 37.26264 
L 83.933846 37.09044 
L 84.671335 37.06092 
L 85.408824 37.34628 
L 86.146313 37.48404 
L 86.883802 37.77924 
L 88.35878 37.45944 
L 89.833758 37.56276 
L 90.571248 37.31184 
L 91.308737 37.33644 
L 92.046226 37.09536 
L 92.783715 36.23928 
L 94.258693 36.11628 
L 94.996182 35.48652 
L 95.733671 35.0142 
L 96.47116 35.93424 
L 97.20865 36.36228 
L 97.946139 36.50988 
L 98.683628 36.5148 
L 99.421117 36.25404 
L 100.158606 36.46068 
L 100.896095 34.83708 
L 101.633584 34.57632 
L 103.108562 35.00436 
L 103.846052 34.93056 
L 104.583541 35.088 
L 105.32103 35.78664 
L 106.058519 37.55292 
L 106.796008 37.26756 
L 107.533497 37.46436 
L 109.008475 37.45944 
L 109.745964 38.41392 
L 111.220943 36.95268 
L 111.958432 37.05108 
L 112.695921 38.37948 
L 113.43341 39.20604 
L 114.170899 41.03136 
L 114.908388 42.26628 
L 115.645877 41.73492 
L 116.268484 42.23676 
L 117.591671 44.89356 
L 118.326002 43.6242 
L 119.811752 43.53072 
L 120.553449 43.72752 
L 122.024245 44.436 
L 122.761512 44.49012 
L 123.490132 43.81608 
L 124.188707 43.7226 
L 124.973501 44.5344 
L 125.618352 44.19 
L 126.44731 44.21952 
L 127.917082 44.51472 
L 129.395978 44.3868 
L 130.135686 45.174 
L 130.810873 45.23796 
L 131.60801 44.81484 
L 132.342213 43.821 
L 133.078302 44.01288 
L 133.807101 44.66232 
L 134.561346 43.93908 
L 135.291221 44.39664 
L 136.030426 44.12112 
L 136.763784 44.33268 
L 137.502861 43.3044 
L 138.24 43.6242 
L 138.24 43.6242 
" clip-path="url(#pac29596085)" style="fill: none; stroke: #4a8dff; stroke-width: 0.6; stroke-linecap: round"/>
   </g>
   <g id="line2d_7">
    <path d="M 5.76 31.11756 
L 7.234978 30.22212 
L 7.972467 30.45828 
L 8.709956 29.2578 
L 9.447446 28.50504 
L 10.184935 28.18032 
L 10.922424 28.2738 
L 11.659913 28.569 
L 12.397402 28.55424 
L 13.134891 27.8802 
L 13.87238 28.03272 
L 14.609869 27.69324 
L 15.347358 28.42632 
L 16.084848 28.3968 
L 16.822337 28.60344 
L 17.559826 29.88756 
L 18.297315 30.22212 
L 19.034804 29.58252 
L 19.772293 31.73256 
L 20.509782 31.36356 
L 21.247271 31.39308 
L 22.72225 29.09544 
L 23.459739 29.2332 
L 24.197228 27.02412 
L 24.934717 25.98108 
L 25.672206 25.16928 
L 26.409695 25.10532 
L 27.884673 23.92452 
L 28.622162 25.53336 
L 29.359652 24.62808 
L 30.097141 25.4448 
L 30.83463 29.64156 
L 31.572119 30.80268 
L 32.309608 28.65756 
L 33.047097 28.6428 
L 33.784586 29.66124 
L 35.259564 32.17044 
L 35.997053 32.97732 
L 36.734543 32.628 
L 37.472032 31.90476 
L 38.209521 30.92076 
L 38.94701 31.96872 
L 39.684499 32.39676 
L 40.421988 31.19628 
L 41.159477 30.72888 
L 41.896966 30.42384 
L 42.634455 29.0118 
L 43.371945 29.15448 
L 44.109434 29.76456 
L 44.846923 31.2012 
L 45.584412 32.09172 
L 46.321901 31.43244 
L 47.796879 30.90108 
L 48.534368 32.93796 
L 49.271857 35.35368 
L 50.009347 34.24668 
L 50.746836 35.5062 
L 51.484325 34.48284 
L 52.221814 35.02896 
L 52.959303 33.8334 
L 53.696792 33.243 
L 54.434281 34.69932 
L 55.17177 35.4078 
L 55.909259 36.2934 
L 56.646749 38.901 
L 57.384238 38.37948 
L 58.121727 38.92068 
L 58.859216 40.09164 
L 59.596705 39.70788 
L 60.334194 40.4262 
L 61.071683 42.75336 
L 61.809172 43.54548 
L 62.546661 43.72752 
L 63.284151 42.6894 
L 64.02164 41.976 
L 64.759129 42.42864 
L 65.496618 40.86408 
L 66.234107 40.47048 
L 68.446574 40.89852 
L 69.184063 42.9354 
L 69.921553 40.43604 
L 70.659042 39.31428 
L 71.396531 40.04244 
L 72.13402 41.43972 
L 72.871509 41.47416 
L 73.608998 41.02152 
L 74.346487 40.7952 
L 75.083976 39.75708 
L 75.821465 40.11132 
L 76.558955 39.87024 
L 77.296444 40.94772 
L 78.033933 40.97232 
L 79.508911 42.87144 
L 80.2464 42.17772 
L 80.983889 43.04364 
L 81.721378 43.34868 
L 82.458867 42.03504 
L 83.933846 41.8038 
L 84.671335 41.84316 
L 85.408824 42.37944 
L 86.146313 42.26628 
L 86.883802 42.468 
L 87.621291 42.42864 
L 88.35878 42.18264 
L 89.096269 42.1728 
L 89.833758 42.50244 
L 90.571248 41.88252 
L 91.308737 42.32532 
L 92.783715 41.13468 
L 94.258693 40.42128 
L 94.996182 39.16176 
L 95.733671 39.28968 
L 96.47116 40.48032 
L 98.683628 40.88376 
L 100.158606 40.53936 
L 100.896095 38.50248 
L 101.633584 37.63656 
L 102.371073 38.34012 
L 103.108562 38.37456 
L 103.846052 38.5812 
L 105.32103 39.8358 
L 106.058519 41.93172 
L 106.796008 41.42004 
L 108.270986 41.39052 
L 109.008475 41.5086 
L 109.745964 42.80256 
L 110.483454 41.93664 
L 111.220943 41.49384 
L 111.958432 41.51352 
L 112.695921 43.78164 
L 113.43341 43.9932 
L 114.170899 46.66968 
L 114.908388 47.55036 
L 115.645877 46.64508 
L 116.854557 48.89352 
L 117.591671 49.84308 
L 118.326002 49.00176 
L 119.080349 49.233 
L 119.811752 48.97716 
L 121.28941 49.36092 
L 122.761512 49.58724 
L 123.490132 49.28712 
L 124.188707 49.16904 
L 124.973501 49.39044 
L 125.618352 49.29696 
L 127.183903 49.55772 
L 129.395978 49.41996 
L 130.135686 49.8234 
L 130.810873 49.86768 
L 131.60801 49.72992 
L 132.342213 49.39536 
L 133.807101 49.6758 
L 134.561346 49.47408 
L 135.291221 49.60692 
L 136.030426 49.37568 
L 136.763784 49.36584 
L 137.502861 48.6672 
L 138.24 48.95256 
L 138.24 48.95256 
" clip-path="url(#pac29596085)" style="fill: none; stroke: #f5841e; stroke-width: 0.7; stroke-linecap: round"/>
   </g>
  </g>
 </g>
 <defs>
  <clipPath id="pac29596085">
   <rect x="5.76" y="3.6" width="132.48" height="49.2"/>
  </clipPath>
 </defs>
</svg>
