<?xml version="1.0" encoding="utf-8" standalone="no"?>
<!DOCTYPE svg PUBLIC "-//W3C//DTD SVG 1.1//EN"
  "http://www.w3.org/Graphics/SVG/1.1/DTD/svg11.dtd">
<svg xmlns:xlink="http://www.w3.org/1999/xlink" width="144pt" height="60pt" viewBox="0 0 144 60" xmlns="http://www.w3.org/2000/svg" version="1.1">
  <desc id="nav-meta">{"window":"3m","count":4,"labels":["14.01","13.02","15.03","14.04"],"tick_utc":["2026-01-14T12:00:00Z","2026-02-13T03:33:47Z","2026-03-15T03:42:35Z","2026-04-14T03:53:32Z"]}</desc>

 <metadata>
  <rdf:RDF xmlns:dc="http://purl.org/dc/elements/1.1/" xmlns:cc="http://creativecommons.org/ns#" xmlns:rdf="http://www.w3.org/1999/02/22-rdf-syntax-ns#">
   <cc:Work>
    <dc:type rdf:resource="http://purl.org/dc/dcmitype/StillImage"/>
    <dc:date>2026-04-14T03:53:34.387857</dc:date>
    <dc:format>image/svg+xml</dc:format>
    <dc:creator>
     <cc:Agent>
      <dc:title>Matplotlib v3.10.8, https://matplotlib.org/</dc:title>
     </cc:Agent>
    </dc:creator>
   </cc:Work>
  </rdf:RDF>
 </metadata>
 <defs>
  <style type="text/css">*{stroke-linejoin: round; stroke-linecap: butt}</style>
 </defs>
 <g id="figure_1">
  <g id="patch_1">
   <path d="M 0 60 
L 144 60 
L 144 0 
L 0 0 
L 0 60 
z
" style="fill: none; opacity: 0"/>
  </g>
  <g id="axes_1">
   <g id="patch_2">
    <path d="M 5.76 52.8 
L 138.24 52.8 
L 138.24 3.6 
L 5.76 3.6 
L 5.76 52.8 
z
" style="fill: none"/>
   </g>
   <g id="matplotlib.axis_1"/>
   <g id="matplotlib.axis_2"/>
   <g id="line2d_1">
    <path d="M 5.76 42.96 
L 138.24 42.96 
" clip-path="url(#p95191627e7)" style="fill: none; stroke: #b2b2b2; stroke-opacity: 0.35; stroke-width: 0.5; stroke-linecap: square"/>
   </g>
   <g id="line2d_2">
    <path d="M 5.76 33.12 
L 138.24 33.12 
" clip-path="url(#p95191627e7)" style="fill: none; stroke: #b2b2b2; stroke-opacity: 0.35; stroke-width: 0.5; stroke-linecap: square"/>
   </g>
   <g id="line2d_3">
    <path d="M 5.76 23.28 
L 138.24 23.28 
" clip-path="url(#p95191627e7)" style="fill: none; stroke: #b2b2b2; stroke-opacity: 0.35; stroke-width: 0.5; stroke-linecap: square"/>
   </g>
   <g id="line2d_4">
    <path d="M 5.76 13.44 
L 138.24 13.44 
" clip-path="url(#p95191627e7)" style="fill: none; stroke: #b2b2b2; stroke-opacity: 0.35; stroke-width: 0.5; stroke-linecap: square"/>
   </g>
   <g id="line2d_5">
    <path d="M 5.76 42.72384 
L 7.237546 42.51228 
L 8.715092 43.08792 
L 10.192638 42.75828 
L 11.670184 42.90096 
L 13.147731 43.57008 
L 14.625277 44.2392 
L 16.102823 45.23304 
L 17.580369 44.77548 
L 19.057915 44.91816 
L 20.535461 45.04608 
L 22.013007 45.07068 
L 23.490553 46.1334 
L 24.9681 45.4446 
L 26.445646 45.06084 
L 27.923192 45.33144 
L 29.400738 46.30068 
L 30.878284 46.34496 
L 32.35583 47.89476 
L 33.833376 48.26376 
L 35.310922 47.96364 
L 36.558303 48.55896 
L 37.73249 49.06572 
L 39.209284 50.04972 
L 40.680503 49.24776 
L 42.191824 49.32156 
L 43.657177 49.31172 
L 45.143154 49.43964 
L 46.617639 49.59708 
L 48.089866 49.80372 
L 49.566968 49.86768 
L 51.026746 49.479 
L 52.426328 49.24776 
L 53.998649 49.48392 
L 55.290595 49.37568 
L 56.951398 49.479 
L 58.427148 49.7004 
L 59.896058 49.62168 
L 61.364575 49.5282 
L 62.859 49.49376 
L 64.340993 49.98576 
L 65.693717 49.96608 
L 67.290766 49.7004 
L 68.761729 49.27236 
L 70.23647 49.37076 
L 71.696607 49.68072 
L 73.207723 49.25268 
L 74.670015 49.51344 
L 76.150998 49.4052 
L 77.620267 49.34124 
L 79.100994 49.09032 
L 80.577839 49.24284 
L 82.044047 49.49868 
L 83.535941 49.64628 
L 85.017917 49.58724 
L 86.485972 49.36092 
L 87.962936 49.41996 
L 89.446297 49.45932 
L 90.920987 49.16904 
L 92.396566 49.22808 
L 93.902381 49.27236 
L 95.3841 48.87384 
L 96.835789 48.74592 
L 98.324605 48.70164 
L 99.802561 49.03128 
L 101.265725 49.1592 
L 102.734618 49.08048 
L 104.234259 49.21332 
L 105.715277 49.36584 
L 107.179142 49.11 
L 108.766734 48.90828 
L 110.152207 49.05096 
L 111.631618 49.37076 
L 113.095038 49.64628 
L 114.592712 49.6266 
L 116.074482 49.602 
L 117.542708 49.59708 
L 119.032927 49.59708 
L 120.491011 49.8726 
L 121.970251 49.88244 
L 123.435142 49.80864 
L 124.934937 49.78896 
L 126.416296 49.69056 
L 127.884249 49.83816 
L 129.364189 49.50852 
L 130.836588 49.68564 
L 132.327729 49.6266 
L 133.782685 49.48884 
L 135.286738 49.6512 
L 136.77186 49.69056 
L 138.24 49.40028 
" clip-path="url(#p95191627e7)" style="fill: none; stroke: #bebebe; stroke-width: 0.6; stroke-linecap: round"/>
   </g>
   <g id="line2d_6">
    <path d="M 5.76 34.83708 
L 7.237546 34.57632 
L 8.715092 34.84692 
L 10.192638 35.00436 
L 11.670184 34.93056 
L 13.147731 35.088 
L 14.625277 35.78664 
L 16.102823 37.55292 
L 17.580369 37.26756 
L 19.057915 37.46436 
L 20.535461 37.44468 
L 22.013007 37.45944 
L 23.490553 38.41392 
L 24.9681 37.61196 
L 26.445646 36.95268 
L 27.923192 37.05108 
L 29.400738 38.37948 
L 30.878284 39.20604 
L 32.35583 41.03136 
L 33.833376 42.26628 
L 35.310922 41.73492 
L 36.558303 42.23676 
L 37.73249 43.38804 
L 39.209284 44.89356 
L 40.680503 43.6242 
L 42.191824 43.575 
L 43.657177 43.53072 
L 45.143154 43.72752 
L 46.617639 44.0916 
L 48.089866 44.436 
L 49.566968 44.49012 
L 51.026746 43.81608 
L 52.426328 43.7226 
L 53.998649 44.5344 
L 55.290595 44.19 
L 56.951398 44.21952 
L 58.427148 44.3868 
L 59.896058 44.51472 
L 61.364575 44.4606 
L 62.859 44.3868 
L 64.340993 45.174 
L 65.693717 45.23796 
L 67.290766 44.81484 
L 68.761729 43.821 
L 70.23647 44.01288 
L 71.696607 44.66232 
L 73.207723 43.93908 
L 74.670015 44.39664 
L 76.150998 44.12112 
L 77.620267 44.33268 
L 79.100994 43.3044 
L 80.577839 43.6242 
L 82.044047 44.29824 
L 83.535941 44.53932 
L 85.017917 44.30808 
L 86.485972 43.8702 
L 87.962936 44.00304 
L 89.446297 43.97844 
L 90.920987 43.41756 
L 92.396566 43.48152 
L 93.902381 43.48644 
L 95.3841 42.49752 
L 96.835789 41.73984 
L 98.324605 41.7546 
L 99.802561 42.591 
L 101.265725 43.14204 
L 102.734618 43.083 
L 104.234259 43.35852 
L 105.715277 43.78164 
L 107.179142 43.21584 
L 108.766734 42.9354 
L 110.152207 43.10268 
L 111.631618 43.72752 
L 113.095038 44.25396 
L 114.592712 44.10636 
L 116.074482 43.9194 
L 117.542708 43.74228 
L 119.032927 43.46676 
L 120.491011 43.65372 
L 121.970251 43.79148 
L 123.435142 43.81116 
L 124.934937 43.77672 
L 126.416296 43.2552 
L 127.884249 43.40772 
L 129.364189 42.49752 
L 130.836588 42.90588 
L 132.327729 42.8616 
L 133.782685 42.41388 
L 135.286738 42.63036 
L 136.77186 42.79764 
L 138.24 41.57256 
" clip-path="url(#p95191627e7)" style="fill: none; stroke: #4a8dff; stroke-width: 0.6; stroke-linecap: round"/>
   </g>
   <g id="line2d_7">
    <path d="M 5.76 38.50248 
L 7.237546 37.63656 
L 8.715092 38.34012 
L 10.192638 38.37456 
L 11.670184 38.5812 
L 13.147731 39.2454 
L 14.625277 39.8358 
L 16.102823 41.93172 
L 17.580369 41.42004 
L 19.057915 41.37576 
L 20.535461 41.39052 
L 22.013007 41.5086 
L 23.490553 42.80256 
L 24.9681 41.93664 
L 26.445646 41.49384 
L 27.923192 41.51352 
L 29.400738 43.78164 
L 30.878284 43.9932 
L 32.35583 46.66968 
L 33.833376 47.55036 
L 35.310922 46.64508 
L 36.558303 47.89476 
L 37.73249 48.89352 
L 39.209284 49.84308 
L 40.680503 49.00176 
L 42.191824 49.233 
L 43.657177 48.97716 
L 45.143154 49.22316 
L 46.617639 49.36092 
L 48.089866 49.49868 
L 49.566968 49.58724 
L 51.026746 49.28712 
L 52.426328 49.16904 
L 53.998649 49.39044 
L 55.290595 49.29696 
L 56.951398 49.479 
L 58.427148 49.55772 
L 59.896058 49.51344 
L 61.364575 49.44948 
L 62.859 49.41996 
L 64.340993 49.8234 
L 65.693717 49.86768 
L 67.290766 49.72992 
L 68.761729 49.39536 
L 70.23647 49.52328 
L 71.696607 49.6758 
L 73.207723 49.47408 
L 74.670015 49.60692 
L 76.150998 49.37568 
L 77.620267 49.36584 
L 79.100994 48.6672 
L 80.577839 48.95256 
L 82.044047 49.36092 
L 83.535941 49.54788 
L 85.017917 49.5282 
L 86.485972 49.09032 
L 87.962936 49.16412 
L 89.446297 49.2084 
L 90.920987 48.93288 
L 92.396566 48.95748 
L 93.902381 48.89844 
L 95.3841 48.48024 
L 96.835789 48.1998 
L 98.324605 48.28344 
L 99.802561 48.88368 
L 101.265725 49.04604 
L 102.734618 49.00176 
L 104.234259 49.20348 
L 105.715277 49.38552 
L 107.179142 49.04112 
L 108.766734 48.92796 
L 110.152207 48.987 
L 111.631618 49.29204 
L 113.095038 49.66104 
L 114.592712 49.56756 
L 116.074482 49.53312 
L 117.542708 49.46424 
L 119.032927 49.40028 
L 120.491011 49.56756 
L 121.970251 49.59708 
L 123.435142 49.56264 
L 124.934937 49.53312 
L 126.416296 49.25268 
L 127.884249 49.29696 
L 129.364189 48.89352 
L 130.836588 48.96732 
L 132.327729 48.8148 
L 133.782685 48.5934 
L 135.286738 48.84432 
L 136.77186 48.95748 
L 138.24 48.30804 
" clip-path="url(#p95191627e7)" style="fill: none; stroke: #f5841e; stroke-width: 0.7; stroke-linecap: round"/>
   </g>
  </g>
 </g>
 <defs>
  <clipPath id="p95191627e7">
   <rect x="5.76" y="3.6" width="132.48" height="49.2"/>
  </clipPath>
 </defs>
</svg>
