<?xml version="1.0" encoding="utf-8" standalone="no"?>
<!DOCTYPE svg PUBLIC "-//W3C//DTD SVG 1.1//EN"
  "http://www.w3.org/Graphics/SVG/1.1/DTD/svg11.dtd">
<svg xmlns:xlink="http://www.w3.org/1999/xlink" width="144pt" height="60pt" viewBox="0 0 144 60" xmlns="http://www.w3.org/2000/svg" version="1.1">
  <desc id="nav-meta">{"window":"1y","count":4,"labels":["24.06","24.10","22.02","24.06"],"tick_utc":["2025-06-24T12:00:00Z","2025-10-24T12:00:00Z","2026-02-22T03:28:03Z","2026-06-24T04:50:37Z"]}</desc>

 <metadata>
  <rdf:RDF xmlns:dc="http://purl.org/dc/elements/1.1/" xmlns:cc="http://creativecommons.org/ns#" xmlns:rdf="http://www.w3.org/1999/02/22-rdf-syntax-ns#">
   <cc:Work>
    <dc:type rdf:resource="http://purl.org/dc/dcmitype/StillImage"/>
    <dc:date>2026-06-24T10:00:58.483513</dc:date>
    <dc:format>image/svg+xml</dc:format>
    <dc:creator>
     <cc:Agent>
      <dc:title>Matplotlib v3.11.0, https://matplotlib.org/</dc:title>
     </cc:Agent>
    </dc:creator>
   </cc:Work>
  </rdf:RDF>
 </metadata>
 <defs>
  <style type="text/css">*{stroke-linejoin: round; stroke-linecap: butt}</style>
 </defs>
 <g id="figure_1">
  <g id="patch_1">
   <path d="M 0 60 
L 144 60 
L 144 0 
L 0 0 
L 0 60 
z
" style="fill: none; opacity: 0"/>
  </g>
  <g id="axes_1">
   <g id="patch_2">
    <path d="M 5.76 52.8 
L 138.24 52.8 
L 138.24 3.6 
L 5.76 3.6 
L 5.76 52.8 
z
" style="fill: none"/>
   </g>
   <g id="matplotlib.axis_1"/>
   <g id="matplotlib.axis_2"/>
   <g id="line2d_1">
    <path d="M 5.76 42.96 
L 138.24 42.96 
" clip-path="url(#p16bec19bbc)" style="fill: none; stroke: #b2b2b2; stroke-opacity: 0.35; stroke-width: 0.5; stroke-linecap: square"/>
   </g>
   <g id="line2d_2">
    <path d="M 5.76 33.12 
L 138.24 33.12 
" clip-path="url(#p16bec19bbc)" style="fill: none; stroke: #b2b2b2; stroke-opacity: 0.35; stroke-width: 0.5; stroke-linecap: square"/>
   </g>
   <g id="line2d_3">
    <path d="M 5.76 23.28 
L 138.24 23.28 
" clip-path="url(#p16bec19bbc)" style="fill: none; stroke: #b2b2b2; stroke-opacity: 0.35; stroke-width: 0.5; stroke-linecap: square"/>
   </g>
   <g id="line2d_4">
    <path d="M 5.76 13.44 
L 138.24 13.44 
" clip-path="url(#p16bec19bbc)" style="fill: none; stroke: #b2b2b2; stroke-opacity: 0.35; stroke-width: 0.5; stroke-linecap: square"/>
   </g>
   <g id="line2d_5">
    <path d="M 5.76 42.7632 
L 6.123256 42.63036 
L 6.486511 42.94524 
L 6.849767 43.52088 
L 7.213023 43.1076 
L 7.576278 41.98092 
L 8.30279 41.43972 
L 8.666045 42.4926 
L 9.029301 41.79888 
L 9.392557 41.78412 
L 9.755812 42.37452 
L 10.119068 42.3942 
L 10.482324 41.83332 
L 10.845579 42.24168 
L 11.208835 41.84316 
L 11.935346 40.2786 
L 12.298602 40.42128 
L 12.661858 40.71648 
L 13.388369 40.48032 
L 13.751625 40.26384 
L 14.11488 38.97972 
L 14.841392 38.51724 
L 15.204647 38.57628 
L 15.567903 38.04492 
L 15.931159 36.03264 
L 16.294414 34.88136 
L 16.65767 36.92316 
L 17.020926 37.8432 
L 17.384181 37.37088 
L 17.747437 37.53324 
L 18.110693 37.056 
L 18.473948 37.77924 
L 18.837204 38.02032 
L 19.200459 38.45328 
L 19.563715 39.1962 
L 19.926971 40.41636 
L 20.290226 40.97232 
L 20.653482 40.53444 
L 21.016738 39.55536 
L 21.379993 40.24908 
L 21.743249 39.7128 
L 22.106505 38.778 
L 22.46976 38.59104 
L 23.196272 37.794 
L 23.559527 38.82228 
L 23.922783 36.53448 
L 24.286039 35.334 
L 25.01255 37.44468 
L 25.375806 36.90348 
L 25.739061 36.65748 
L 26.465573 38.64516 
L 26.828828 37.2282 
L 27.192084 38.14332 
L 27.55534 35.53572 
L 27.918595 35.04372 
L 28.281851 34.80264 
L 28.645107 37.23804 
L 29.734874 33.67104 
L 30.098129 34.90596 
L 31.187896 35.9736 
L 31.551152 34.36476 
L 31.914408 34.1778 
L 32.277663 35.22084 
L 32.640919 35.11752 
L 33.004175 35.54556 
L 34.457197 32.44104 
L 34.820453 31.83096 
L 35.183709 30.06468 
L 35.546964 30.01056 
L 35.91022 30.291 
L 36.273476 31.16184 
L 36.636731 30.74856 
L 36.999987 29.71536 
L 37.363243 29.37588 
L 37.726498 30.57636 
L 38.089754 30.42876 
L 38.45301 30.79284 
L 38.816265 32.91828 
L 39.179521 33.72024 
L 39.542777 34.05972 
L 39.906032 36.5886 
L 40.269288 34.90104 
L 40.632544 35.10276 
L 40.995799 34.16796 
L 41.359055 33.8826 
L 41.722311 34.43364 
L 42.448822 31.05852 
L 42.812078 31.26024 
L 43.175333 31.92936 
L 43.538589 31.85064 
L 43.901845 31.3242 
L 44.2651 32.84448 
L 44.628356 31.78176 
L 44.991611 32.85924 
L 45.354867 36.8838 
L 45.718123 38.39424 
L 46.081378 35.95392 
L 46.444634 34.53696 
L 46.80789 35.20608 
L 47.534401 37.57752 
L 47.897657 37.90716 
L 48.260912 37.18884 
L 48.624168 37.18392 
L 48.987424 36.89364 
L 49.350679 37.42008 
L 49.713935 38.17284 
L 50.077191 36.687 
L 50.440446 36.42132 
L 50.803702 36.34752 
L 51.166958 35.56032 
L 51.530213 35.72268 
L 51.893469 36.29832 
L 52.256725 36.32292 
L 52.61998 37.61688 
L 52.983236 37.2282 
L 53.346492 37.34628 
L 53.709747 37.23804 
L 54.073003 40.008 
L 54.436259 41.36592 
L 54.799514 40.43604 
L 55.16277 41.44956 
L 55.526026 40.53444 
L 55.889281 41.02152 
L 56.252537 40.22448 
L 56.615793 39.79644 
L 56.979048 41.51844 
L 57.342304 41.66604 
L 58.068815 43.51596 
L 58.432071 43.43724 
L 58.795327 43.71276 
L 59.158582 44.59836 
L 59.521838 43.30932 
L 60.611605 44.88372 
L 60.974861 44.99688 
L 61.338116 44.57868 
L 61.701372 43.5996 
L 62.064628 43.51596 
L 62.427883 43.00428 
L 62.791139 43.2798 
L 63.154395 43.71768 
L 63.880906 44.0916 
L 64.244162 45.11004 
L 64.607417 43.55532 
L 64.970673 42.72876 
L 65.697184 44.27364 
L 66.423696 44.47536 
L 66.786951 44.25888 
L 67.150207 43.64388 
L 67.513463 43.84068 
L 67.876718 43.85052 
L 68.239974 44.36712 
L 68.60323 44.26872 
L 68.966485 44.74104 
L 69.329741 44.98704 
L 69.692997 44.84436 
L 70.056252 45.58728 
L 70.419508 46.0596 
L 70.782763 45.18384 
L 72.235786 45.47904 
L 72.599042 45.65616 
L 72.962297 45.98088 
L 73.688809 45.38556 
L 74.052064 45.31668 
L 74.41532 45.58728 
L 74.778576 45.35604 
L 75.141831 45.40032 
L 75.505087 45.11496 
L 75.868343 44.42124 
L 76.594854 44.18508 
L 77.321365 43.24044 
L 77.684621 43.8702 
L 78.047877 43.60944 
L 78.411132 43.92924 
L 78.774388 43.93416 
L 79.137644 43.46184 
L 79.500899 43.5012 
L 79.864155 42.72384 
L 80.227411 42.51228 
L 80.590666 43.08792 
L 80.953922 42.75828 
L 81.317178 42.90096 
L 82.043689 44.2392 
L 82.406945 45.23304 
L 82.7702 44.77548 
L 83.496712 45.04608 
L 83.859967 45.07068 
L 84.223223 46.1334 
L 84.586479 45.4446 
L 84.949734 45.06084 
L 85.31299 45.33144 
L 85.676246 46.30068 
L 86.039501 46.34496 
L 86.402757 47.89476 
L 86.766013 48.26376 
L 87.129268 47.96364 
L 88.087683 50.04972 
L 88.449383 49.24776 
L 89.909032 49.59708 
L 90.27098 49.80372 
L 90.634126 49.86768 
L 91.337102 49.24776 
L 91.723658 49.48392 
L 92.041284 49.37568 
L 92.449593 49.479 
L 92.812407 49.7004 
L 93.901981 49.49376 
L 94.26633 49.98576 
L 94.598898 49.96608 
L 94.991533 49.7004 
L 95.35317 49.27236 
L 95.715737 49.37076 
L 96.074712 49.68072 
L 96.446221 49.25268 
L 96.805726 49.51344 
L 97.895086 49.09032 
L 99.349765 49.58724 
L 99.710687 49.36092 
L 100.438485 49.45932 
L 100.801038 49.16904 
L 101.534016 49.27236 
L 101.898298 48.87384 
L 102.621223 48.70164 
L 102.984579 49.03128 
L 103.344299 49.1592 
L 103.705427 49.08048 
L 104.438224 49.36584 
L 105.188427 48.90828 
L 105.529046 49.05096 
L 106.252543 49.64628 
L 107.712377 49.59708 
L 108.070848 49.8726 
L 108.794664 49.80864 
L 109.88848 49.83816 
L 110.252324 49.50852 
L 110.614314 49.68564 
L 111.338614 49.48884 
L 112.073505 49.69056 
L 112.434448 49.40028 
L 112.797426 49.58724 
L 113.884019 49.19856 
L 114.252072 49.43472 
L 114.616227 49.50852 
L 116.427885 49.37568 
L 116.796791 49.4052 
L 117.163961 49.29204 
L 117.527978 49.5528 
L 117.890241 49.50852 
L 118.254107 49.64136 
L 118.975316 49.56264 
L 119.345946 49.57248 
L 119.709076 49.42488 
L 120.064331 49.49376 
L 120.797338 49.25268 
L 121.154547 49.24284 
L 121.519132 48.80004 
L 121.889707 48.85416 
L 122.614041 48.63276 
L 122.979024 48.66228 
L 123.341876 49.09524 
L 123.706923 48.99192 
L 124.434221 49.34616 
L 124.801004 49.47408 
L 125.526212 49.54788 
L 125.891536 49.3314 
L 126.252008 49.34616 
L 126.610273 49.51836 
L 127.347316 49.41504 
L 128.434149 49.7742 
L 129.526363 49.61676 
L 130.254674 49.7988 
L 130.984027 50.45808 
L 131.3413 50.59092 
L 131.698972 50.99928 
L 132.434897 50.74344 
L 132.79122 50.62536 
L 133.158242 50.80248 
L 134.614801 50.56632 
L 135.35546 50.23176 
L 135.707145 50.2416 
L 136.440472 50.55156 
L 137.533905 50.217 
L 138.24 50.49252 
L 138.24 50.49252 
" clip-path="url(#p16bec19bbc)" style="fill: none; stroke: #bebebe; stroke-width: 0.6; stroke-linecap: round"/>
   </g>
   <g id="line2d_6">
    <path d="M 5.76 41.17404 
L 6.123256 41.0166 
L 6.486511 41.22324 
L 7.213023 41.17896 
L 7.576278 41.08056 
L 7.939534 40.61808 
L 8.30279 40.7214 
L 8.666045 41.30688 
L 9.029301 40.11132 
L 9.392557 39.99816 
L 9.755812 40.56888 
L 10.119068 40.51476 
L 10.482324 40.131 
L 10.845579 40.3278 
L 11.208835 39.81612 
L 11.935346 37.46436 
L 12.298602 37.39056 
L 12.661858 37.50372 
L 13.388369 37.01172 
L 13.751625 36.16056 
L 14.11488 34.4976 
L 14.478136 33.69072 
L 15.204647 32.89368 
L 15.567903 31.73256 
L 15.931159 31.68336 
L 16.294414 31.8162 
L 16.65767 32.64276 
L 17.020926 32.0868 
L 17.747437 31.85064 
L 18.110693 30.98964 
L 18.473948 31.53576 
L 18.837204 31.521 
L 19.200459 31.38816 
L 19.563715 32.17044 
L 19.926971 33.68088 
L 20.290226 34.28604 
L 20.653482 33.58248 
L 21.016738 32.0376 
L 21.379993 32.76576 
L 21.743249 32.259 
L 22.106505 30.65508 
L 22.46976 29.93676 
L 22.833016 28.14588 
L 23.559527 28.40664 
L 23.922783 25.73508 
L 24.286039 24.62316 
L 24.649294 26.10408 
L 25.01255 26.97984 
L 25.375806 27.00936 
L 25.739061 26.58132 
L 26.102317 27.7818 
L 26.465573 29.49888 
L 26.828828 27.68832 
L 27.192084 28.44108 
L 27.55534 24.16068 
L 27.918595 24.55428 
L 28.281851 24.51984 
L 28.645107 27.32916 
L 29.008362 25.7646 
L 29.371618 26.48784 
L 29.734874 26.43372 
L 30.098129 27.44724 
L 30.824641 27.27504 
L 31.187896 27.8802 
L 31.551152 27.72276 
L 31.914408 26.84208 
L 32.277663 27.91956 
L 32.640919 27.8556 
L 33.004175 28.09668 
L 33.36743 27.87528 
L 34.093942 27.83592 
L 34.457197 27.57024 
L 34.820453 26.77812 
L 35.183709 25.01184 
L 35.91022 25.71048 
L 36.273476 26.31564 
L 36.636731 26.45832 
L 36.999987 25.8384 
L 37.363243 25.84824 
L 37.726498 26.6994 
L 38.089754 26.62068 
L 38.45301 26.8224 
L 38.816265 28.61328 
L 39.542777 28.97244 
L 39.906032 30.99456 
L 40.269288 29.76456 
L 40.632544 29.8974 
L 40.995799 29.02164 
L 41.359055 28.50012 
L 41.722311 29.00688 
L 42.448822 26.601 
L 42.812078 26.3796 
L 43.175333 26.5764 
L 43.538589 26.3796 
L 43.901845 25.1496 
L 44.2651 26.81256 
L 44.628356 26.29596 
L 44.991611 27.41772 
L 45.354867 31.19136 
L 45.718123 31.80144 
L 46.081378 28.89864 
L 46.444634 28.28364 
L 47.534401 30.80268 
L 47.897657 31.22088 
L 48.260912 30.8076 
L 48.624168 30.13356 
L 48.987424 30.17784 
L 49.713935 31.42752 
L 50.077191 31.04376 
L 50.440446 30.49764 
L 50.803702 30.3648 
L 51.166958 28.88388 
L 51.530213 29.15448 
L 51.893469 30.15324 
L 52.61998 31.4226 
L 53.346492 30.9306 
L 53.709747 30.66 
L 54.436259 34.99944 
L 54.799514 34.07448 
L 55.16277 34.9158 
L 55.526026 34.02528 
L 55.889281 34.26144 
L 56.252537 33.0216 
L 56.615793 33.10524 
L 56.979048 34.1532 
L 57.342304 34.2024 
L 58.068815 36.34752 
L 58.432071 35.89488 
L 59.158582 36.94776 
L 59.521838 36.2688 
L 59.885094 36.97236 
L 60.248349 38.286 
L 60.611605 38.76324 
L 60.974861 38.73864 
L 61.338116 38.51724 
L 61.701372 37.42992 
L 62.064628 37.42008 
L 62.427883 36.90348 
L 62.791139 36.98712 
L 63.154395 36.86412 
L 63.51765 37.16424 
L 63.880906 37.14948 
L 64.244162 38.52216 
L 64.970673 35.71776 
L 65.333929 36.15564 
L 65.697184 36.93792 
L 66.423696 36.72636 
L 66.786951 36.21468 
L 67.150207 34.8174 
L 67.513463 34.7928 
L 67.876718 35.42748 
L 68.239974 36.49512 
L 68.60323 36.28356 
L 68.966485 36.6378 
L 69.329741 37.3512 
L 69.692997 37.3512 
L 70.056252 38.31552 
L 70.419508 38.32536 
L 70.782763 37.26264 
L 71.146019 37.26264 
L 71.509275 37.09044 
L 71.87253 37.06092 
L 72.235786 37.34628 
L 72.599042 37.48404 
L 72.962297 37.77924 
L 73.688809 37.45944 
L 74.41532 37.56276 
L 74.778576 37.31184 
L 75.141831 37.33644 
L 75.505087 37.09536 
L 75.868343 36.23928 
L 76.594854 36.11628 
L 77.321365 35.0142 
L 77.684621 35.93424 
L 78.047877 36.36228 
L 78.411132 36.50988 
L 78.774388 36.5148 
L 79.137644 36.25404 
L 79.500899 36.46068 
L 79.864155 34.83708 
L 80.227411 34.57632 
L 80.953922 35.00436 
L 81.317178 34.93056 
L 81.680433 35.088 
L 82.043689 35.78664 
L 82.406945 37.55292 
L 82.7702 37.26756 
L 83.133456 37.46436 
L 83.859967 37.45944 
L 84.223223 38.41392 
L 84.949734 36.95268 
L 85.31299 37.05108 
L 85.676246 38.37948 
L 86.039501 39.20604 
L 86.402757 41.03136 
L 86.766013 42.26628 
L 87.129268 41.73492 
L 87.435938 42.23676 
L 88.087683 44.89356 
L 88.449383 43.6242 
L 89.1812 43.53072 
L 89.546529 43.72752 
L 90.27098 44.436 
L 90.634126 44.49012 
L 90.993014 43.81608 
L 91.337102 43.7226 
L 91.723658 44.5344 
L 92.041284 44.19 
L 92.449593 44.21952 
L 93.17354 44.51472 
L 93.901981 44.3868 
L 94.26633 45.174 
L 94.598898 45.23796 
L 94.991533 44.81484 
L 95.35317 43.821 
L 95.715737 44.01288 
L 96.074712 44.66232 
L 96.446221 43.93908 
L 96.805726 44.39664 
L 97.169827 44.12112 
L 97.531048 44.33268 
L 97.895086 43.3044 
L 98.258169 43.6242 
L 98.618637 44.29824 
L 98.98542 44.53932 
L 99.349765 44.30808 
L 99.710687 43.8702 
L 100.0738 44.00304 
L 100.438485 43.97844 
L 100.801038 43.41756 
L 101.534016 43.48644 
L 102.255196 41.73984 
L 102.621223 41.7546 
L 103.344299 43.14204 
L 103.705427 43.083 
L 104.074115 43.35852 
L 104.438224 43.78164 
L 104.798116 43.21584 
L 105.188427 42.9354 
L 105.529046 43.10268 
L 106.252543 44.25396 
L 107.346006 43.74228 
L 107.712377 43.46676 
L 108.43452 43.79148 
L 109.16339 43.77672 
L 109.527583 43.2552 
L 109.88848 43.40772 
L 110.252324 42.49752 
L 110.614314 42.90588 
L 110.980913 42.8616 
L 111.338614 42.41388 
L 112.073505 42.79764 
L 112.434448 41.57256 
L 112.797426 41.86284 
L 113.162254 41.63652 
L 113.52477 41.85792 
L 113.884019 41.22324 
L 114.616227 42.1482 
L 114.977889 41.96616 
L 115.340018 41.59224 
L 116.068964 41.99076 
L 116.427885 41.91696 
L 116.796791 41.98584 
L 117.163961 41.41512 
L 117.527978 42.15312 
L 117.890241 41.96124 
L 118.254107 42.43848 
L 118.975316 42.02028 
L 119.345946 42.0252 
L 119.709076 41.40528 
L 120.433985 41.52336 
L 121.154547 42.1974 
L 121.519132 41.8776 
L 122.25583 41.8038 
L 122.614041 41.976 
L 122.979024 42.00552 
L 123.341876 42.3942 
L 123.706923 42.27612 
L 124.801004 43.31424 
L 125.161657 43.2306 
L 125.526212 43.39296 
L 125.891536 43.16172 
L 126.252008 43.24536 
L 126.610273 43.71768 
L 126.97928 43.33392 
L 128.072054 43.67832 
L 128.434149 44.32776 
L 128.797674 44.13588 
L 129.155691 44.16048 
L 129.526363 43.96368 
L 129.894992 44.2392 
L 130.254674 44.19984 
L 130.622016 45.16908 
L 131.3413 46.00548 
L 131.698972 47.57004 
L 132.434897 46.64016 
L 132.79122 46.34496 
L 133.158242 46.82712 
L 133.888311 46.51716 
L 134.248909 46.5516 
L 134.614801 46.46304 
L 135.707145 45.6414 
L 136.06866 46.09404 
L 136.440472 46.3302 
L 137.533905 46.035 
L 137.875445 46.14324 
L 138.24 46.52208 
L 138.24 46.52208 
" clip-path="url(#p16bec19bbc)" style="fill: none; stroke: #4a8dff; stroke-width: 0.6; stroke-linecap: round"/>
   </g>
   <g id="line2d_7">
    <path d="M 5.76 33.4398 
L 6.123256 33.20856 
L 6.486511 32.58372 
L 6.849767 32.71164 
L 7.576278 32.53944 
L 7.939534 32.013 
L 8.666045 33.3906 
L 9.029301 31.80144 
L 9.392557 31.41768 
L 9.755812 32.19012 
L 10.119068 32.10156 
L 10.482324 31.60956 
L 10.845579 32.0622 
L 11.208835 31.73748 
L 11.572091 30.56652 
L 11.935346 28.31808 
L 12.298602 27.48168 
L 12.661858 27.55548 
L 13.025113 26.71908 
L 13.388369 26.36484 
L 13.751625 27.42756 
L 14.478136 26.55672 
L 14.841392 27.27504 
L 15.204647 27.31932 
L 15.567903 27.63912 
L 15.931159 27.52596 
L 16.294414 26.3058 
L 16.65767 26.96016 
L 17.020926 27.09792 
L 17.384181 27.49644 
L 17.747437 27.2898 
L 18.110693 26.57148 
L 18.473948 27.27012 
L 19.200459 27.35376 
L 19.926971 29.62188 
L 20.290226 29.96136 
L 20.653482 29.14956 
L 21.016738 28.68216 
L 21.379993 29.184 
L 21.743249 28.7412 
L 22.106505 27.5358 
L 22.46976 27.91956 
L 22.833016 28.00812 
L 23.196272 26.64528 
L 23.559527 26.88636 
L 23.922783 26.1828 
L 24.286039 24.52476 
L 24.649294 27.0684 
L 25.01255 27.59484 
L 25.739061 27.49644 
L 26.102317 28.13112 
L 26.465573 29.8482 
L 26.828828 29.12004 
L 27.192084 30.03024 
L 27.55534 27.84576 
L 28.281851 29.54316 
L 28.645107 31.13232 
L 29.008362 30.31068 
L 29.371618 30.62064 
L 29.734874 29.97612 
L 30.098129 31.97364 
L 30.461385 31.82112 
L 30.824641 32.0868 
L 31.187896 31.63416 
L 31.551152 30.6354 
L 31.914408 30.37464 
L 32.277663 30.86172 
L 32.640919 30.89616 
L 33.004175 31.11756 
L 33.730686 30.22212 
L 34.093942 30.45828 
L 34.457197 29.2578 
L 34.820453 28.50504 
L 35.183709 28.18032 
L 35.546964 28.2738 
L 35.91022 28.569 
L 36.273476 28.55424 
L 36.636731 27.8802 
L 36.999987 28.03272 
L 37.363243 27.69324 
L 37.726498 28.42632 
L 38.089754 28.3968 
L 38.45301 28.60344 
L 38.816265 29.88756 
L 39.179521 30.22212 
L 39.542777 29.58252 
L 39.906032 31.73256 
L 40.269288 31.36356 
L 40.632544 31.39308 
L 41.359055 29.09544 
L 41.722311 29.2332 
L 42.085566 27.02412 
L 42.812078 25.16928 
L 43.175333 25.10532 
L 43.901845 23.92452 
L 44.2651 25.53336 
L 44.628356 24.62808 
L 44.991611 25.4448 
L 45.354867 29.64156 
L 45.718123 30.80268 
L 46.081378 28.65756 
L 46.444634 28.6428 
L 47.171145 30.87156 
L 47.534401 32.17044 
L 47.897657 32.97732 
L 48.260912 32.628 
L 48.624168 31.90476 
L 48.987424 30.92076 
L 49.350679 31.96872 
L 49.713935 32.39676 
L 50.077191 31.19628 
L 50.803702 30.42384 
L 51.166958 29.0118 
L 51.530213 29.15448 
L 51.893469 29.76456 
L 52.256725 31.2012 
L 52.61998 32.09172 
L 52.983236 31.43244 
L 53.709747 30.90108 
L 54.436259 35.35368 
L 54.799514 34.24668 
L 55.16277 35.5062 
L 55.526026 34.48284 
L 55.889281 35.02896 
L 56.252537 33.8334 
L 56.615793 33.243 
L 56.979048 34.69932 
L 57.70556 36.2934 
L 58.068815 38.901 
L 58.432071 38.37948 
L 58.795327 38.92068 
L 59.158582 40.09164 
L 59.521838 39.70788 
L 59.885094 40.4262 
L 60.248349 42.75336 
L 60.611605 43.54548 
L 60.974861 43.72752 
L 61.701372 41.976 
L 62.064628 42.42864 
L 62.427883 40.86408 
L 62.791139 40.47048 
L 63.880906 40.89852 
L 64.244162 42.9354 
L 64.607417 40.43604 
L 64.970673 39.31428 
L 65.333929 40.04244 
L 65.697184 41.43972 
L 66.06044 41.47416 
L 66.423696 41.02152 
L 66.786951 40.7952 
L 67.150207 39.75708 
L 67.513463 40.11132 
L 67.876718 39.87024 
L 68.239974 40.94772 
L 68.60323 40.97232 
L 69.329741 42.87144 
L 69.692997 42.17772 
L 70.056252 43.04364 
L 70.419508 43.34868 
L 70.782763 42.03504 
L 71.509275 41.8038 
L 71.87253 41.84316 
L 72.235786 42.37944 
L 72.599042 42.26628 
L 72.962297 42.468 
L 73.325553 42.42864 
L 73.688809 42.18264 
L 74.052064 42.1728 
L 74.41532 42.50244 
L 74.778576 41.88252 
L 75.141831 42.32532 
L 75.868343 41.13468 
L 76.594854 40.42128 
L 76.95811 39.16176 
L 77.321365 39.28968 
L 77.684621 40.48032 
L 78.774388 40.88376 
L 79.500899 40.53936 
L 79.864155 38.50248 
L 80.227411 37.63656 
L 80.590666 38.34012 
L 80.953922 38.37456 
L 81.317178 38.5812 
L 82.043689 39.8358 
L 82.406945 41.93172 
L 82.7702 41.42004 
L 83.496712 41.39052 
L 83.859967 41.5086 
L 84.223223 42.80256 
L 84.586479 41.93664 
L 84.949734 41.49384 
L 85.31299 41.51352 
L 85.676246 43.78164 
L 86.039501 43.9932 
L 86.402757 46.66968 
L 86.766013 47.55036 
L 87.129268 46.64508 
L 87.724612 48.89352 
L 88.087683 49.84308 
L 88.449383 49.00176 
L 88.820942 49.233 
L 89.1812 48.97716 
L 89.909032 49.36092 
L 90.634126 49.58724 
L 90.993014 49.28712 
L 91.337102 49.16904 
L 91.723658 49.39044 
L 92.041284 49.29696 
L 92.812407 49.55772 
L 93.901981 49.41996 
L 94.26633 49.8234 
L 94.598898 49.86768 
L 94.991533 49.72992 
L 95.35317 49.39536 
L 96.074712 49.6758 
L 96.446221 49.47408 
L 96.805726 49.60692 
L 97.169827 49.37568 
L 97.531048 49.36584 
L 97.895086 48.6672 
L 98.98542 49.54788 
L 99.349765 49.5282 
L 99.710687 49.09032 
L 100.438485 49.2084 
L 100.801038 48.93288 
L 101.534016 48.89844 
L 102.255196 48.1998 
L 102.621223 48.28344 
L 102.984579 48.88368 
L 103.344299 49.04604 
L 103.705427 49.00176 
L 104.438224 49.38552 
L 104.798116 49.04112 
L 105.188427 48.92796 
L 105.529046 48.987 
L 106.252543 49.66104 
L 107.712377 49.40028 
L 108.070848 49.56756 
L 108.794664 49.56264 
L 109.16339 49.53312 
L 109.527583 49.25268 
L 109.88848 49.29696 
L 110.252324 48.89352 
L 110.614314 48.96732 
L 111.338614 48.5934 
L 111.708387 48.84432 
L 112.073505 48.95748 
L 112.434448 48.30804 
L 112.797426 48.34248 
L 113.162254 48.21456 
L 113.52477 48.26376 
L 113.884019 47.41752 
L 114.252072 48.05712 
L 114.616227 48.26376 
L 114.977889 48.01776 
L 115.340018 47.23548 
L 116.427885 47.1666 
L 116.796791 47.31912 
L 117.163961 46.49256 
L 117.527978 47.64876 
L 117.890241 47.5356 
L 118.254107 48.0276 
L 118.975316 46.81728 
L 119.345946 46.92552 
L 119.709076 45.85788 
L 120.433985 45.29208 
L 120.797338 45.58728 
L 121.154547 46.2564 
L 121.519132 45.7152 
L 122.979024 45.42492 
L 123.341876 46.38432 
L 123.706923 45.57744 
L 124.065541 46.51716 
L 124.801004 47.54544 
L 125.526212 47.66844 
L 125.891536 47.05344 
L 126.252008 47.22564 
L 126.610273 48.07188 
L 127.347316 47.37324 
L 128.072054 48.07188 
L 128.434149 48.59832 
L 128.797674 48.52452 
L 129.155691 48.5688 
L 129.526363 48.38676 
L 129.894992 48.55404 
L 130.984027 49.93656 
L 131.3413 49.98084 
L 131.698972 50.3646 
L 132.434897 50.07432 
L 132.79122 49.99068 
L 133.158242 50.217 
L 133.888311 49.98084 
L 134.614801 49.87752 
L 134.990132 49.69548 
L 135.707145 49.7004 
L 136.440472 50.06448 
L 137.160017 49.89228 
L 137.875445 49.9464 
L 138.24 50.05956 
L 138.24 50.05956 
" clip-path="url(#p16bec19bbc)" style="fill: none; stroke: #f5841e; stroke-width: 0.7; stroke-linecap: round"/>
   </g>
  </g>
 </g>
 <defs>
  <clipPath id="p16bec19bbc">
   <rect x="5.76" y="3.6" width="132.48" height="49.2"/>
  </clipPath>
 </defs>
</svg>
