<?xml version="1.0" encoding="utf-8" standalone="no"?>
<!DOCTYPE svg PUBLIC "-//W3C//DTD SVG 1.1//EN"
  "http://www.w3.org/Graphics/SVG/1.1/DTD/svg11.dtd">
<svg xmlns:xlink="http://www.w3.org/1999/xlink" width="144pt" height="60pt" viewBox="0 0 144 60" xmlns="http://www.w3.org/2000/svg" version="1.1">
  <desc id="nav-meta">{"window":"1w","count":4,"labels":["18 Jan","22 Jan","22 Jan","25 Jan"],"idxs":[0,29,58,87]}</desc>

 <metadata>
  <rdf:RDF xmlns:dc="http://purl.org/dc/elements/1.1/" xmlns:cc="http://creativecommons.org/ns#" xmlns:rdf="http://www.w3.org/1999/02/22-rdf-syntax-ns#">
   <cc:Work>
    <dc:type rdf:resource="http://purl.org/dc/dcmitype/StillImage"/>
    <dc:date>2026-01-25T08:53:56.750252</dc:date>
    <dc:format>image/svg+xml</dc:format>
    <dc:creator>
     <cc:Agent>
      <dc:title>Matplotlib v3.10.8, https://matplotlib.org/</dc:title>
     </cc:Agent>
    </dc:creator>
   </cc:Work>
  </rdf:RDF>
 </metadata>
 <defs>
  <style type="text/css">*{stroke-linejoin: round; stroke-linecap: butt}</style>
 </defs>
 <g id="figure_1">
  <g id="patch_1">
   <path d="M 0 60 
L 144 60 
L 144 0 
L 0 0 
L 0 60 
z
" style="fill: none; opacity: 0"/>
  </g>
  <g id="axes_1">
   <g id="patch_2">
    <path d="M 5.76 52.8 
L 138.24 52.8 
L 138.24 3.6 
L 5.76 3.6 
L 5.76 52.8 
z
" style="fill: none"/>
   </g>
   <g id="matplotlib.axis_1"/>
   <g id="matplotlib.axis_2"/>
   <g id="line2d_1">
    <path d="M 5.76 42.96 
L 138.24 42.96 
" clip-path="url(#pc7a79c0cfa)" style="fill: none; stroke: #b2b2b2; stroke-opacity: 0.35; stroke-width: 0.5; stroke-linecap: square"/>
   </g>
   <g id="line2d_2">
    <path d="M 5.76 33.12 
L 138.24 33.12 
" clip-path="url(#pc7a79c0cfa)" style="fill: none; stroke: #b2b2b2; stroke-opacity: 0.35; stroke-width: 0.5; stroke-linecap: square"/>
   </g>
   <g id="line2d_3">
    <path d="M 5.76 23.28 
L 138.24 23.28 
" clip-path="url(#pc7a79c0cfa)" style="fill: none; stroke: #b2b2b2; stroke-opacity: 0.35; stroke-width: 0.5; stroke-linecap: square"/>
   </g>
   <g id="line2d_4">
    <path d="M 5.76 13.44 
L 138.24 13.44 
" clip-path="url(#pc7a79c0cfa)" style="fill: none; stroke: #b2b2b2; stroke-opacity: 0.35; stroke-width: 0.5; stroke-linecap: square"/>
   </g>
   <g id="line2d_5">
    <path d="M 6.512727 37.68576 
L 11.363636 37.77924 
L 16.960839 37.74972 
L 17.707133 38.219391 
L 18.453427 38.753526 
L 19.19972 38.8272 
L 24.423776 38.723249 
L 26.28951 38.73065 
L 28.528392 38.86656 
L 29.274685 38.931908 
L 30.767273 39.41268 
L 33.006154 39.512762 
L 34.498741 39.57996 
L 44.946853 39.477944 
L 46.066294 39.3438 
L 47.932028 39.260538 
L 49.424615 39.18144 
L 51.29035 39.27656 
L 52.782937 39.30936 
L 59.872727 39.386987 
L 61.365315 39.52092 
L 108.754965 39.626679 
L 111.366993 39.64392 
L 113.232727 39.753253 
L 116.217902 39.76692 
L 122.188252 39.64884 
L 128.531748 39.620329 
L 137.487273 39.68328 
L 137.487273 39.68328 
" clip-path="url(#pc7a79c0cfa)" style="fill: none; stroke: #bebebe; stroke-width: 0.6; stroke-linecap: round"/>
   </g>
   <g id="line2d_6">
    <path d="M 6.512727 31.87032 
L 11.363636 31.76372 
L 13.975664 31.68336 
L 15.841399 32.591457 
L 19.572867 32.589859 
L 23.304336 32.56896 
L 24.796923 32.610423 
L 26.662657 32.85432 
L 27.782098 32.927489 
L 29.274685 33.42504 
L 30.767273 33.478613 
L 32.25986 33.9072 
L 34.498741 33.991345 
L 35.991329 34.04988 
L 37.483916 34.128768 
L 38.976503 34.18764 
L 46.066294 34.084068 
L 47.558881 33.84816 
L 49.797762 33.936972 
L 51.29035 33.96624 
L 55.394965 34.070948 
L 57.260699 34.13352 
L 58.006993 34.19912 
L 59.49958 34.45332 
L 103.530909 34.357107 
L 105.76979 34.31064 
L 108.754965 34.55664 
L 110.993846 34.551047 
L 112.486434 34.65996 
L 113.979021 34.580483 
L 115.471608 34.471823 
L 118.456783 34.460132 
L 120.695664 34.376114 
L 128.158601 34.342178 
L 137.114126 34.505169 
L 137.487273 34.52712 
L 137.487273 34.52712 
" clip-path="url(#pc7a79c0cfa)" style="fill: none; stroke: #4a8dff; stroke-width: 0.7; stroke-linecap: round"/>
   </g>
   <g id="line2d_7">
    <path d="M 6.512727 36.57384 
L 13.975664 36.50004 
L 15.095105 37.272438 
L 15.468252 37.545603 
L 16.214545 37.554013 
L 18.453427 37.49388 
L 22.558042 37.489717 
L 24.423776 37.45944 
L 25.543217 37.727517 
L 26.28951 37.87764 
L 27.782098 37.941978 
L 29.274685 38.37948 
L 31.14042 38.467788 
L 32.633007 38.62548 
L 34.125594 38.724721 
L 35.618182 38.91576 
L 37.857063 39.012646 
L 41.588531 39.12732 
L 43.081119 39.044395 
L 44.573706 38.84196 
L 46.812587 38.747345 
L 48.305175 38.71896 
L 57.633846 38.78292 
L 59.872727 39.147 
L 70.693986 39.06971 
L 72.186573 39.01908 
L 73.679161 38.916138 
L 75.171748 38.8518 
L 77.783776 38.941495 
L 80.022657 39.02892 
L 88.605035 39.020005 
L 90.470769 39.0732 
L 102.784615 38.994354 
L 105.396643 38.82228 
L 106.142937 38.874382 
L 107.635524 39.11256 
L 111.366993 39.210918 
L 113.232727 39.2454 
L 116.217902 39.047717 
L 118.456783 39.028415 
L 122.934545 38.88132 
L 127.412308 38.972529 
L 130.397483 39.042418 
L 135.994685 39.223281 
L 137.487273 39.51108 
L 137.487273 39.51108 
" clip-path="url(#pc7a79c0cfa)" style="fill: none; stroke: #f5841e; stroke-width: 0.8; stroke-linecap: round"/>
   </g>
  </g>
 </g>
 <defs>
  <clipPath id="pc7a79c0cfa">
   <rect x="5.76" y="3.6" width="132.48" height="49.2"/>
  </clipPath>
 </defs>
</svg>
