<?xml version="1.0" encoding="utf-8" standalone="no"?>
<!DOCTYPE svg PUBLIC "-//W3C//DTD SVG 1.1//EN"
  "http://www.w3.org/Graphics/SVG/1.1/DTD/svg11.dtd">
<svg xmlns:xlink="http://www.w3.org/1999/xlink" width="144pt" height="60pt" viewBox="0 0 144 60" xmlns="http://www.w3.org/2000/svg" version="1.1">
  <desc id="nav-meta">{"window":"2w","count":4,"labels":["10.05","14.05","19.05","23.05"],"tick_utc":["2026-05-10T04:35:36Z","2026-05-14T04:32:13Z","2026-05-19T04:46:06Z","2026-05-23T04:28:38Z"]}</desc>

 <metadata>
  <rdf:RDF xmlns:dc="http://purl.org/dc/elements/1.1/" xmlns:cc="http://creativecommons.org/ns#" xmlns:rdf="http://www.w3.org/1999/02/22-rdf-syntax-ns#">
   <cc:Work>
    <dc:type rdf:resource="http://purl.org/dc/dcmitype/StillImage"/>
    <dc:date>2026-05-23T04:28:40.481883</dc:date>
    <dc:format>image/svg+xml</dc:format>
    <dc:creator>
     <cc:Agent>
      <dc:title>Matplotlib v3.10.9, https://matplotlib.org/</dc:title>
     </cc:Agent>
    </dc:creator>
   </cc:Work>
  </rdf:RDF>
 </metadata>
 <defs>
  <style type="text/css">*{stroke-linejoin: round; stroke-linecap: butt}</style>
 </defs>
 <g id="figure_1">
  <g id="patch_1">
   <path d="M 0 60 
L 144 60 
L 144 0 
L 0 0 
L 0 60 
z
" style="fill: none; opacity: 0"/>
  </g>
  <g id="axes_1">
   <g id="patch_2">
    <path d="M 5.76 52.8 
L 138.24 52.8 
L 138.24 3.6 
L 5.76 3.6 
L 5.76 52.8 
z
" style="fill: none"/>
   </g>
   <g id="matplotlib.axis_1"/>
   <g id="matplotlib.axis_2"/>
   <g id="line2d_1">
    <path d="M 5.76 42.96 
L 138.24 42.96 
" clip-path="url(#p81aa5d5ac4)" style="fill: none; stroke: #b2b2b2; stroke-opacity: 0.35; stroke-width: 0.5; stroke-linecap: square"/>
   </g>
   <g id="line2d_2">
    <path d="M 5.76 33.12 
L 138.24 33.12 
" clip-path="url(#p81aa5d5ac4)" style="fill: none; stroke: #b2b2b2; stroke-opacity: 0.35; stroke-width: 0.5; stroke-linecap: square"/>
   </g>
   <g id="line2d_3">
    <path d="M 5.76 23.28 
L 138.24 23.28 
" clip-path="url(#p81aa5d5ac4)" style="fill: none; stroke: #b2b2b2; stroke-opacity: 0.35; stroke-width: 0.5; stroke-linecap: square"/>
   </g>
   <g id="line2d_4">
    <path d="M 5.76 13.44 
L 138.24 13.44 
" clip-path="url(#p81aa5d5ac4)" style="fill: none; stroke: #b2b2b2; stroke-opacity: 0.35; stroke-width: 0.5; stroke-linecap: square"/>
   </g>
   <g id="line2d_5">
    <path d="M 5.76 48.85416 
L 16.035034 48.72132 
L 26.088006 48.63276 
L 36.331064 48.66228 
L 46.5143 49.09524 
L 56.759128 48.99192 
L 66.823545 49.19364 
L 77.170319 49.34616 
L 87.463878 49.47408 
L 97.585404 49.47408 
L 107.816427 49.54788 
L 118.069042 49.3314 
L 128.185494 49.34616 
L 138.24 49.51836 
" clip-path="url(#p81aa5d5ac4)" style="fill: none; stroke: #bebebe; stroke-width: 0.6; stroke-linecap: round"/>
   </g>
   <g id="line2d_6">
    <path d="M 5.76 41.84316 
L 16.035034 41.8038 
L 26.088006 41.976 
L 36.331064 42.00552 
L 46.5143 42.3942 
L 56.759128 42.27612 
L 66.823545 42.57624 
L 77.170319 42.85176 
L 87.463878 43.31424 
L 97.585404 43.2306 
L 107.816427 43.39296 
L 118.069042 43.16172 
L 128.185494 43.24536 
L 138.24 43.71768 
" clip-path="url(#p81aa5d5ac4)" style="fill: none; stroke: #4a8dff; stroke-width: 0.6; stroke-linecap: round"/>
   </g>
   <g id="line2d_7">
    <path d="M 5.76 45.63648 
L 16.035034 45.6414 
L 26.088006 45.45936 
L 36.331064 45.42492 
L 46.5143 46.38432 
L 56.759128 45.57744 
L 66.823545 46.51716 
L 77.170319 46.95996 
L 87.463878 47.54544 
L 97.585404 47.59464 
L 107.816427 47.66844 
L 118.069042 47.05344 
L 128.185494 47.22564 
L 138.24 48.07188 
" clip-path="url(#p81aa5d5ac4)" style="fill: none; stroke: #f5841e; stroke-width: 0.7; stroke-linecap: round"/>
   </g>
  </g>
 </g>
 <defs>
  <clipPath id="p81aa5d5ac4">
   <rect x="5.76" y="3.6" width="132.48" height="49.2"/>
  </clipPath>
 </defs>
</svg>
