<?xml version="1.0" encoding="utf-8" standalone="no"?>
<!DOCTYPE svg PUBLIC "-//W3C//DTD SVG 1.1//EN"
  "http://www.w3.org/Graphics/SVG/1.1/DTD/svg11.dtd">
<svg xmlns:xlink="http://www.w3.org/1999/xlink" width="144pt" height="60pt" viewBox="0 0 144 60" xmlns="http://www.w3.org/2000/svg" version="1.1">
  <desc id="nav-meta">{"window":"2w","count":4,"labels":["01.02","06.02","10.02","14.02"],"tick_utc":["2026-02-01T12:00:00Z","2026-02-06T03:19:18Z","2026-02-10T03:42:23Z","2026-02-14T03:16:28Z"]}</desc>

 <metadata>
  <rdf:RDF xmlns:dc="http://purl.org/dc/elements/1.1/" xmlns:cc="http://creativecommons.org/ns#" xmlns:rdf="http://www.w3.org/1999/02/22-rdf-syntax-ns#">
   <cc:Work>
    <dc:type rdf:resource="http://purl.org/dc/dcmitype/StillImage"/>
    <dc:date>2026-02-14T19:03:48.092654</dc:date>
    <dc:format>image/svg+xml</dc:format>
    <dc:creator>
     <cc:Agent>
      <dc:title>Matplotlib v3.10.8, https://matplotlib.org/</dc:title>
     </cc:Agent>
    </dc:creator>
   </cc:Work>
  </rdf:RDF>
 </metadata>
 <defs>
  <style type="text/css">*{stroke-linejoin: round; stroke-linecap: butt}</style>
 </defs>
 <g id="figure_1">
  <g id="patch_1">
   <path d="M 0 60 
L 144 60 
L 144 0 
L 0 0 
L 0 60 
z
" style="fill: none; opacity: 0"/>
  </g>
  <g id="axes_1">
   <g id="patch_2">
    <path d="M 5.76 52.8 
L 138.24 52.8 
L 138.24 3.6 
L 5.76 3.6 
L 5.76 52.8 
z
" style="fill: none"/>
   </g>
   <g id="matplotlib.axis_1"/>
   <g id="matplotlib.axis_2"/>
   <g id="line2d_1">
    <path d="M 5.76 42.96 
L 138.24 42.96 
" clip-path="url(#pef9d3cdf72)" style="fill: none; stroke: #b2b2b2; stroke-opacity: 0.35; stroke-width: 0.5; stroke-linecap: square"/>
   </g>
   <g id="line2d_2">
    <path d="M 5.76 33.12 
L 138.24 33.12 
" clip-path="url(#pef9d3cdf72)" style="fill: none; stroke: #b2b2b2; stroke-opacity: 0.35; stroke-width: 0.5; stroke-linecap: square"/>
   </g>
   <g id="line2d_3">
    <path d="M 5.76 23.28 
L 138.24 23.28 
" clip-path="url(#pef9d3cdf72)" style="fill: none; stroke: #b2b2b2; stroke-opacity: 0.35; stroke-width: 0.5; stroke-linecap: square"/>
   </g>
   <g id="line2d_4">
    <path d="M 5.76 13.44 
L 138.24 13.44 
" clip-path="url(#pef9d3cdf72)" style="fill: none; stroke: #b2b2b2; stroke-opacity: 0.35; stroke-width: 0.5; stroke-linecap: square"/>
   </g>
   <g id="line2d_5">
    <path d="M 5.76 47.89476 
L 16.243969 48.26376 
L 26.727939 47.96364 
L 35.578763 48.55896 
L 43.910243 49.06572 
L 54.388873 50.04972 
L 64.827946 49.24776 
L 75.551566 49.32156 
L 85.949018 49.31172 
L 96.49281 49.43964 
L 106.955059 49.59708 
L 117.401291 49.80372 
L 127.882105 49.86768 
L 138.24 49.479 
" clip-path="url(#pef9d3cdf72)" style="fill: none; stroke: #bebebe; stroke-width: 0.6; stroke-linecap: round"/>
   </g>
   <g id="line2d_6">
    <path d="M 5.76 41.03136 
L 16.243969 42.26628 
L 26.727939 41.73492 
L 35.578763 42.23676 
L 43.910243 43.38804 
L 54.388873 44.89356 
L 64.827946 43.6242 
L 75.551566 43.575 
L 85.949018 43.53072 
L 96.49281 43.72752 
L 106.955059 44.0916 
L 117.401291 44.436 
L 127.882105 44.49012 
L 138.24 43.81608 
" clip-path="url(#pef9d3cdf72)" style="fill: none; stroke: #4a8dff; stroke-width: 0.6; stroke-linecap: round"/>
   </g>
   <g id="line2d_7">
    <path d="M 5.76 46.66968 
L 16.243969 47.55036 
L 26.727939 46.64508 
L 35.578763 47.89476 
L 43.910243 48.89352 
L 54.388873 49.84308 
L 64.827946 49.00176 
L 75.551566 49.233 
L 85.949018 48.97716 
L 96.49281 49.22316 
L 106.955059 49.36092 
L 117.401291 49.49868 
L 127.882105 49.58724 
L 138.24 49.28712 
" clip-path="url(#pef9d3cdf72)" style="fill: none; stroke: #f5841e; stroke-width: 0.7; stroke-linecap: round"/>
   </g>
  </g>
 </g>
 <defs>
  <clipPath id="pef9d3cdf72">
   <rect x="5.76" y="3.6" width="132.48" height="49.2"/>
  </clipPath>
 </defs>
</svg>
