<?xml version="1.0" encoding="utf-8" standalone="no"?>
<!DOCTYPE svg PUBLIC "-//W3C//DTD SVG 1.1//EN"
  "http://www.w3.org/Graphics/SVG/1.1/DTD/svg11.dtd">
<svg xmlns:xlink="http://www.w3.org/1999/xlink" width="144pt" height="60pt" viewBox="0 0 144 60" xmlns="http://www.w3.org/2000/svg" version="1.1">
  <desc id="nav-meta">{"window":"1m","count":4,"labels":["28.05","07.06","16.06","26.06"],"tick_utc":["2026-05-28T04:58:45Z","2026-06-07T05:11:57Z","2026-06-16T06:15:52Z","2026-06-26T04:57:37Z"]}</desc>

 <metadata>
  <rdf:RDF xmlns:dc="http://purl.org/dc/elements/1.1/" xmlns:cc="http://creativecommons.org/ns#" xmlns:rdf="http://www.w3.org/1999/02/22-rdf-syntax-ns#">
   <cc:Work>
    <dc:type rdf:resource="http://purl.org/dc/dcmitype/StillImage"/>
    <dc:date>2026-06-26T15:16:06.157628</dc:date>
    <dc:format>image/svg+xml</dc:format>
    <dc:creator>
     <cc:Agent>
      <dc:title>Matplotlib v3.11.0, https://matplotlib.org/</dc:title>
     </cc:Agent>
    </dc:creator>
   </cc:Work>
  </rdf:RDF>
 </metadata>
 <defs>
  <style type="text/css">*{stroke-linejoin: round; stroke-linecap: butt}</style>
 </defs>
 <g id="figure_1">
  <g id="patch_1">
   <path d="M 0 60 
L 144 60 
L 144 0 
L 0 0 
L 0 60 
z
" style="fill: none; opacity: 0"/>
  </g>
  <g id="axes_1">
   <g id="patch_2">
    <path d="M 5.76 52.8 
L 138.24 52.8 
L 138.24 3.6 
L 5.76 3.6 
L 5.76 52.8 
z
" style="fill: none"/>
   </g>
   <g id="matplotlib.axis_1"/>
   <g id="matplotlib.axis_2"/>
   <g id="line2d_1">
    <path d="M 5.76 42.96 
L 138.24 42.96 
" clip-path="url(#pff550a9227)" style="fill: none; stroke: #b2b2b2; stroke-opacity: 0.35; stroke-width: 0.5; stroke-linecap: square"/>
   </g>
   <g id="line2d_2">
    <path d="M 5.76 33.12 
L 138.24 33.12 
" clip-path="url(#pff550a9227)" style="fill: none; stroke: #b2b2b2; stroke-opacity: 0.35; stroke-width: 0.5; stroke-linecap: square"/>
   </g>
   <g id="line2d_3">
    <path d="M 5.76 23.28 
L 138.24 23.28 
" clip-path="url(#pff550a9227)" style="fill: none; stroke: #b2b2b2; stroke-opacity: 0.35; stroke-width: 0.5; stroke-linecap: square"/>
   </g>
   <g id="line2d_4">
    <path d="M 5.76 13.44 
L 138.24 13.44 
" clip-path="url(#pff550a9227)" style="fill: none; stroke: #b2b2b2; stroke-opacity: 0.35; stroke-width: 0.5; stroke-linecap: square"/>
   </g>
   <g id="line2d_5">
    <path d="M 5.76 49.7742 
L 10.331784 49.7004 
L 14.834301 49.69548 
L 19.495973 49.61676 
L 24.131947 49.71024 
L 28.655403 49.7988 
L 33.275197 50.19732 
L 37.827946 50.45808 
L 42.321105 50.59092 
L 46.819287 50.99928 
L 51.485875 50.82216 
L 56.074474 50.74344 
L 60.555683 50.62536 
L 65.171458 50.80248 
L 69.766666 50.76312 
L 74.35299 50.65488 
L 78.887973 50.6598 
L 83.489526 50.56632 
L 88.209782 50.39412 
L 92.80425 50.23176 
L 97.227138 50.2416 
L 101.773647 50.4138 
L 106.449648 50.55156 
L 110.835364 50.42364 
L 115.498833 50.27112 
L 120.200954 50.217 
L 124.496255 50.35968 
L 129.080993 50.49252 
L 133.648177 50.59092 
L 138.24 50.59092 
" clip-path="url(#pff550a9227)" style="fill: none; stroke: #bebebe; stroke-width: 0.6; stroke-linecap: round"/>
   </g>
   <g id="line2d_6">
    <path d="M 5.76 44.32776 
L 10.331784 44.13588 
L 14.834301 44.16048 
L 19.495973 43.96368 
L 24.131947 44.2392 
L 28.655403 44.19984 
L 33.275197 45.16908 
L 37.827946 45.67584 
L 42.321105 46.00548 
L 46.819287 47.57004 
L 51.485875 47.04852 
L 56.074474 46.64016 
L 60.555683 46.34496 
L 65.171458 46.82712 
L 69.766666 46.65492 
L 74.35299 46.51716 
L 78.887973 46.5516 
L 83.489526 46.46304 
L 88.209782 46.14816 
L 92.80425 45.84312 
L 97.227138 45.6414 
L 101.773647 46.09404 
L 106.449648 46.3302 
L 110.835364 46.21704 
L 115.498833 46.06452 
L 120.200954 46.035 
L 124.496255 46.14324 
L 129.080993 46.52208 
L 133.648177 46.83204 
L 138.24 47.38308 
" clip-path="url(#pff550a9227)" style="fill: none; stroke: #4a8dff; stroke-width: 0.6; stroke-linecap: round"/>
   </g>
   <g id="line2d_7">
    <path d="M 5.76 48.59832 
L 10.331784 48.52452 
L 14.834301 48.5688 
L 19.495973 48.38676 
L 24.131947 48.55404 
L 28.655403 49.0116 
L 33.275197 49.57248 
L 37.827946 49.93656 
L 42.321105 49.98084 
L 46.819287 50.3646 
L 51.485875 50.15796 
L 56.074474 50.07432 
L 60.555683 49.99068 
L 65.171458 50.217 
L 69.766666 50.07924 
L 74.35299 49.98084 
L 78.887973 49.971 
L 83.489526 49.87752 
L 88.209782 49.69548 
L 92.80425 49.65612 
L 97.227138 49.7004 
L 101.773647 49.92672 
L 106.449648 50.06448 
L 110.835364 49.971 
L 115.498833 49.89228 
L 120.200954 49.89228 
L 124.496255 49.9464 
L 129.080993 50.05956 
L 133.648177 50.2416 
L 138.24 50.35968 
" clip-path="url(#pff550a9227)" style="fill: none; stroke: #f5841e; stroke-width: 0.7; stroke-linecap: round"/>
   </g>
  </g>
 </g>
 <defs>
  <clipPath id="pff550a9227">
   <rect x="5.76" y="3.6" width="132.48" height="49.2"/>
  </clipPath>
 </defs>
</svg>
