<?xml version="1.0" encoding="utf-8" standalone="no"?>
<!DOCTYPE svg PUBLIC "-//W3C//DTD SVG 1.1//EN"
  "http://www.w3.org/Graphics/SVG/1.1/DTD/svg11.dtd">
<svg xmlns:xlink="http://www.w3.org/1999/xlink" width="144pt" height="60pt" viewBox="0 0 144 60" xmlns="http://www.w3.org/2000/svg" version="1.1">
  <desc id="nav-meta">{"window":"3m","count":4,"labels":["04.12","03.01","02.02","04.03"],"tick_utc":["2025-12-04T12:00:00Z","2026-01-03T12:00:00Z","2026-02-02T12:00:00Z","2026-03-04T03:14:13Z"]}</desc>

 <metadata>
  <rdf:RDF xmlns:dc="http://purl.org/dc/elements/1.1/" xmlns:cc="http://creativecommons.org/ns#" xmlns:rdf="http://www.w3.org/1999/02/22-rdf-syntax-ns#">
   <cc:Work>
    <dc:type rdf:resource="http://purl.org/dc/dcmitype/StillImage"/>
    <dc:date>2026-03-04T07:26:13.375292</dc:date>
    <dc:format>image/svg+xml</dc:format>
    <dc:creator>
     <cc:Agent>
      <dc:title>Matplotlib v3.10.8, https://matplotlib.org/</dc:title>
     </cc:Agent>
    </dc:creator>
   </cc:Work>
  </rdf:RDF>
 </metadata>
 <defs>
  <style type="text/css">*{stroke-linejoin: round; stroke-linecap: butt}</style>
 </defs>
 <g id="figure_1">
  <g id="patch_1">
   <path d="M 0 60 
L 144 60 
L 144 0 
L 0 0 
L 0 60 
z
" style="fill: none; opacity: 0"/>
  </g>
  <g id="axes_1">
   <g id="patch_2">
    <path d="M 5.76 52.8 
L 138.24 52.8 
L 138.24 3.6 
L 5.76 3.6 
L 5.76 52.8 
z
" style="fill: none"/>
   </g>
   <g id="matplotlib.axis_1"/>
   <g id="matplotlib.axis_2"/>
   <g id="line2d_1">
    <path d="M 5.76 42.96 
L 138.24 42.96 
" clip-path="url(#p8995530486)" style="fill: none; stroke: #b2b2b2; stroke-opacity: 0.35; stroke-width: 0.5; stroke-linecap: square"/>
   </g>
   <g id="line2d_2">
    <path d="M 5.76 33.12 
L 138.24 33.12 
" clip-path="url(#p8995530486)" style="fill: none; stroke: #b2b2b2; stroke-opacity: 0.35; stroke-width: 0.5; stroke-linecap: square"/>
   </g>
   <g id="line2d_3">
    <path d="M 5.76 23.28 
L 138.24 23.28 
" clip-path="url(#p8995530486)" style="fill: none; stroke: #b2b2b2; stroke-opacity: 0.35; stroke-width: 0.5; stroke-linecap: square"/>
   </g>
   <g id="line2d_4">
    <path d="M 5.76 13.44 
L 138.24 13.44 
" clip-path="url(#p8995530486)" style="fill: none; stroke: #b2b2b2; stroke-opacity: 0.35; stroke-width: 0.5; stroke-linecap: square"/>
   </g>
   <g id="line2d_5">
    <path d="M 5.76 42.72876 
L 7.237996 43.51596 
L 8.715992 44.27364 
L 10.193989 44.40156 
L 11.671985 44.47536 
L 13.149981 44.25888 
L 14.627977 43.64388 
L 16.105973 43.84068 
L 17.583969 43.85052 
L 19.061966 44.36712 
L 20.539962 44.26872 
L 22.017958 44.74104 
L 23.495954 44.98704 
L 24.97395 44.84436 
L 26.451947 45.58728 
L 27.929943 46.0596 
L 29.407939 45.18384 
L 30.885935 45.23796 
L 32.363931 45.20844 
L 33.841928 45.24288 
L 35.319924 45.47904 
L 36.79792 45.65616 
L 38.275916 45.98088 
L 39.753912 45.70536 
L 41.231908 45.38556 
L 42.709905 45.31668 
L 44.187901 45.58728 
L 45.665897 45.35604 
L 47.143893 45.40032 
L 48.621889 45.11496 
L 50.099886 44.42124 
L 51.577882 44.25888 
L 53.055878 44.18508 
L 54.533874 43.62912 
L 56.01187 43.24044 
L 57.489867 43.8702 
L 58.967863 43.60944 
L 60.445859 43.92924 
L 61.923855 43.93416 
L 63.401851 43.46184 
L 64.879847 43.5012 
L 66.357844 42.72384 
L 67.83584 42.51228 
L 69.313836 43.08792 
L 70.791832 42.75828 
L 72.269828 42.90096 
L 73.747825 43.57008 
L 75.225821 44.2392 
L 76.703817 45.23304 
L 78.181813 44.77548 
L 79.659809 44.91816 
L 81.137806 45.04608 
L 82.615802 45.07068 
L 84.093798 46.1334 
L 85.571794 45.4446 
L 87.04979 45.06084 
L 88.527786 45.33144 
L 90.005783 46.30068 
L 91.483779 46.34496 
L 92.961775 47.89476 
L 94.439771 48.26376 
L 95.917767 47.96364 
L 97.165528 48.55896 
L 98.340073 49.06572 
L 99.817317 50.04972 
L 101.288983 49.24776 
L 102.800765 49.32156 
L 104.266564 49.31172 
L 105.752994 49.43964 
L 107.227928 49.59708 
L 108.700604 49.80372 
L 110.178155 49.86768 
L 111.638378 49.479 
L 113.038386 49.24776 
L 114.611186 49.48392 
L 115.903526 49.37568 
L 117.564835 49.479 
L 119.041035 49.7004 
L 120.510392 49.62168 
L 121.979356 49.5282 
L 123.474236 49.49376 
L 124.95668 49.98576 
L 126.309817 49.96608 
L 127.907353 49.7004 
L 129.378763 49.27236 
L 130.853954 49.37076 
L 132.314535 49.68072 
L 133.826112 49.25268 
L 135.288849 49.51344 
L 136.770283 49.4052 
L 138.24 49.34124 
" clip-path="url(#p8995530486)" style="fill: none; stroke: #bebebe; stroke-width: 0.6; stroke-linecap: round"/>
   </g>
   <g id="line2d_6">
    <path d="M 5.76 35.71776 
L 7.237996 36.15564 
L 8.715992 36.93792 
L 10.193989 36.81984 
L 11.671985 36.72636 
L 13.149981 36.21468 
L 14.627977 34.8174 
L 16.105973 34.7928 
L 17.583969 35.42748 
L 19.061966 36.49512 
L 20.539962 36.28356 
L 22.017958 36.6378 
L 23.495954 37.3512 
L 24.97395 37.3512 
L 26.451947 38.31552 
L 27.929943 38.32536 
L 29.407939 37.26264 
L 30.885935 37.26264 
L 32.363931 37.09044 
L 33.841928 37.06092 
L 35.319924 37.34628 
L 36.79792 37.48404 
L 38.275916 37.77924 
L 39.753912 37.61688 
L 41.231908 37.45944 
L 42.709905 37.46928 
L 44.187901 37.56276 
L 45.665897 37.31184 
L 47.143893 37.33644 
L 48.621889 37.09536 
L 50.099886 36.23928 
L 51.577882 36.20976 
L 53.055878 36.11628 
L 54.533874 35.48652 
L 56.01187 35.0142 
L 57.489867 35.93424 
L 58.967863 36.36228 
L 60.445859 36.50988 
L 61.923855 36.5148 
L 63.401851 36.25404 
L 64.879847 36.46068 
L 66.357844 34.83708 
L 67.83584 34.57632 
L 69.313836 34.84692 
L 70.791832 35.00436 
L 72.269828 34.93056 
L 73.747825 35.088 
L 75.225821 35.78664 
L 76.703817 37.55292 
L 78.181813 37.26756 
L 79.659809 37.46436 
L 81.137806 37.44468 
L 82.615802 37.45944 
L 84.093798 38.41392 
L 85.571794 37.61196 
L 87.04979 36.95268 
L 88.527786 37.05108 
L 90.005783 38.37948 
L 91.483779 39.20604 
L 92.961775 41.03136 
L 94.439771 42.26628 
L 95.917767 41.73492 
L 97.165528 42.23676 
L 98.340073 43.38804 
L 99.817317 44.89356 
L 101.288983 43.6242 
L 102.800765 43.575 
L 104.266564 43.53072 
L 105.752994 43.72752 
L 107.227928 44.0916 
L 108.700604 44.436 
L 110.178155 44.49012 
L 111.638378 43.81608 
L 113.038386 43.7226 
L 114.611186 44.5344 
L 115.903526 44.19 
L 117.564835 44.21952 
L 119.041035 44.3868 
L 120.510392 44.51472 
L 121.979356 44.4606 
L 123.474236 44.3868 
L 124.95668 45.174 
L 126.309817 45.23796 
L 127.907353 44.81484 
L 129.378763 43.821 
L 130.853954 44.01288 
L 132.314535 44.66232 
L 133.826112 43.93908 
L 135.288849 44.39664 
L 136.770283 44.12112 
L 138.24 44.33268 
" clip-path="url(#p8995530486)" style="fill: none; stroke: #4a8dff; stroke-width: 0.6; stroke-linecap: round"/>
   </g>
   <g id="line2d_7">
    <path d="M 5.76 39.31428 
L 7.237996 40.04244 
L 8.715992 41.43972 
L 10.193989 41.47416 
L 11.671985 41.02152 
L 13.149981 40.7952 
L 14.627977 39.75708 
L 16.105973 40.11132 
L 17.583969 39.87024 
L 19.061966 40.94772 
L 20.539962 40.97232 
L 22.017958 41.976 
L 23.495954 42.87144 
L 24.97395 42.17772 
L 26.451947 43.04364 
L 27.929943 43.34868 
L 29.407939 42.03504 
L 30.885935 41.91696 
L 32.363931 41.8038 
L 33.841928 41.84316 
L 35.319924 42.37944 
L 36.79792 42.26628 
L 38.275916 42.468 
L 39.753912 42.42864 
L 41.231908 42.18264 
L 42.709905 42.1728 
L 44.187901 42.50244 
L 45.665897 41.88252 
L 47.143893 42.32532 
L 48.621889 41.73 
L 50.099886 41.13468 
L 51.577882 40.80504 
L 53.055878 40.42128 
L 54.533874 39.16176 
L 56.01187 39.28968 
L 57.489867 40.48032 
L 58.967863 40.61316 
L 60.445859 40.84932 
L 61.923855 40.88376 
L 63.401851 40.6968 
L 64.879847 40.53936 
L 66.357844 38.50248 
L 67.83584 37.63656 
L 69.313836 38.34012 
L 70.791832 38.37456 
L 72.269828 38.5812 
L 73.747825 39.2454 
L 75.225821 39.8358 
L 76.703817 41.93172 
L 78.181813 41.42004 
L 79.659809 41.37576 
L 81.137806 41.39052 
L 82.615802 41.5086 
L 84.093798 42.80256 
L 85.571794 41.93664 
L 87.04979 41.49384 
L 88.527786 41.51352 
L 90.005783 43.78164 
L 91.483779 43.9932 
L 92.961775 46.66968 
L 94.439771 47.55036 
L 95.917767 46.64508 
L 97.165528 47.89476 
L 98.340073 48.89352 
L 99.817317 49.84308 
L 101.288983 49.00176 
L 102.800765 49.233 
L 104.266564 48.97716 
L 105.752994 49.22316 
L 107.227928 49.36092 
L 108.700604 49.49868 
L 110.178155 49.58724 
L 111.638378 49.28712 
L 113.038386 49.16904 
L 114.611186 49.39044 
L 115.903526 49.29696 
L 117.564835 49.479 
L 119.041035 49.55772 
L 120.510392 49.51344 
L 121.979356 49.44948 
L 123.474236 49.41996 
L 124.95668 49.8234 
L 126.309817 49.86768 
L 127.907353 49.72992 
L 129.378763 49.39536 
L 130.853954 49.52328 
L 132.314535 49.6758 
L 133.826112 49.47408 
L 135.288849 49.60692 
L 136.770283 49.37568 
L 138.24 49.36584 
" clip-path="url(#p8995530486)" style="fill: none; stroke: #f5841e; stroke-width: 0.7; stroke-linecap: round"/>
   </g>
  </g>
 </g>
 <defs>
  <clipPath id="p8995530486">
   <rect x="5.76" y="3.6" width="132.48" height="49.2"/>
  </clipPath>
 </defs>
</svg>
