<?xml version="1.0" encoding="utf-8" standalone="no"?>
<!DOCTYPE svg PUBLIC "-//W3C//DTD SVG 1.1//EN"
  "http://www.w3.org/Graphics/SVG/1.1/DTD/svg11.dtd">
<svg xmlns:xlink="http://www.w3.org/1999/xlink" width="144pt" height="60pt" viewBox="0 0 144 60" xmlns="http://www.w3.org/2000/svg" version="1.1">
  <desc id="nav-meta">{"window":"1m","count":4,"labels":["5 Jan","14 Jan","22 Jan","27 Jan"],"idxs":[0,66,132,198]}</desc>

 <metadata>
  <rdf:RDF xmlns:dc="http://purl.org/dc/elements/1.1/" xmlns:cc="http://creativecommons.org/ns#" xmlns:rdf="http://www.w3.org/1999/02/22-rdf-syntax-ns#">
   <cc:Work>
    <dc:type rdf:resource="http://purl.org/dc/dcmitype/StillImage"/>
    <dc:date>2026-01-27T15:01:14.350313</dc:date>
    <dc:format>image/svg+xml</dc:format>
    <dc:creator>
     <cc:Agent>
      <dc:title>Matplotlib v3.10.8, https://matplotlib.org/</dc:title>
     </cc:Agent>
    </dc:creator>
   </cc:Work>
  </rdf:RDF>
 </metadata>
 <defs>
  <style type="text/css">*{stroke-linejoin: round; stroke-linecap: butt}</style>
 </defs>
 <g id="figure_1">
  <g id="patch_1">
   <path d="M 0 60 
L 144 60 
L 144 0 
L 0 0 
L 0 60 
z
" style="fill: none; opacity: 0"/>
  </g>
  <g id="axes_1">
   <g id="patch_2">
    <path d="M 5.76 52.8 
L 138.24 52.8 
L 138.24 3.6 
L 5.76 3.6 
L 5.76 52.8 
z
" style="fill: none"/>
   </g>
   <g id="matplotlib.axis_1"/>
   <g id="matplotlib.axis_2"/>
   <g id="line2d_1">
    <path d="M 5.76 42.96 
L 138.24 42.96 
" clip-path="url(#p8566906653)" style="fill: none; stroke: #b2b2b2; stroke-opacity: 0.35; stroke-width: 0.5; stroke-linecap: square"/>
   </g>
   <g id="line2d_2">
    <path d="M 5.76 33.12 
L 138.24 33.12 
" clip-path="url(#p8566906653)" style="fill: none; stroke: #b2b2b2; stroke-opacity: 0.35; stroke-width: 0.5; stroke-linecap: square"/>
   </g>
   <g id="line2d_3">
    <path d="M 5.76 23.28 
L 138.24 23.28 
" clip-path="url(#p8566906653)" style="fill: none; stroke: #b2b2b2; stroke-opacity: 0.35; stroke-width: 0.5; stroke-linecap: square"/>
   </g>
   <g id="line2d_4">
    <path d="M 5.76 13.44 
L 138.24 13.44 
" clip-path="url(#p8566906653)" style="fill: none; stroke: #b2b2b2; stroke-opacity: 0.35; stroke-width: 0.5; stroke-linecap: square"/>
   </g>
   <g id="line2d_5">
    <path d="M 6.092864 38.29584 
L 9.243143 38.21712 
L 9.574751 38.120855 
L 10.237967 37.79892 
L 10.901184 37.88217 
L 11.5644 38.17284 
L 13.554049 38.240885 
L 14.217266 38.46312 
L 15.212091 38.360078 
L 15.875307 38.31552 
L 16.206915 38.366651 
L 17.035936 38.5812 
L 17.699152 38.470175 
L 18.362369 38.32536 
L 18.859781 38.39255 
L 19.522998 38.7042 
L 20.683626 38.600434 
L 21.844255 38.431836 
L 22.341668 38.34996 
L 22.83908 38.306571 
L 23.668101 38.06952 
L 24.497121 38.171113 
L 25.160338 38.22696 
L 25.65775 38.311101 
L 26.320966 38.44344 
L 27.149987 38.530255 
L 27.813203 38.5812 
L 34.776976 38.505302 
L 35.605997 38.27616 
L 38.424667 38.179988 
L 39.087883 38.1138 
L 39.419491 38.092115 
L 40.248512 37.75464 
L 40.911728 37.843757 
L 41.574945 38.04984 
L 42.403965 38.130045 
L 43.067182 38.19744 
L 43.564594 38.094436 
L 44.227811 37.83828 
L 45.056831 37.757703 
L 45.720048 37.68576 
L 47.378089 37.599818 
L 48.372914 37.4496 
L 50.196759 37.348842 
L 52.186408 37.1298 
L 52.849625 37.216132 
L 53.512841 37.4988 
L 54.507666 37.388295 
L 55.170882 37.34628 
L 56.828923 37.453369 
L 57.49214 37.85304 
L 58.984377 37.771294 
L 59.647593 37.671 
L 60.31081 37.575422 
L 60.974026 37.45452 
L 66.77717 37.519408 
L 67.606191 37.68576 
L 72.580314 37.74972 
L 72.911923 38.148184 
L 73.409335 38.8272 
L 75.896397 38.729394 
L 76.725417 38.724567 
L 77.720242 38.86656 
L 78.05185 38.91602 
L 78.715067 39.41268 
L 79.709891 39.509892 
L 80.373108 39.57996 
L 85.015623 39.471943 
L 85.513035 39.3438 
L 86.342056 39.255574 
L 87.005272 39.18144 
L 87.834293 39.281845 
L 88.663314 39.309806 
L 91.813592 39.463607 
L 92.311004 39.52092 
L 113.202323 39.621845 
L 114.197147 39.64392 
L 115.191972 39.752067 
L 116.518405 39.76692 
L 119.171271 39.64884 
L 121.658332 39.61932 
L 126.300848 39.719484 
L 128.124693 39.7866 
L 128.622105 39.837805 
L 129.285322 40.75584 
L 129.948538 40.734006 
L 130.611755 40.27368 
L 132.767208 40.17205 
L 133.596229 40.06212 
L 137.907136 40.0326 
L 137.907136 40.0326 
" clip-path="url(#p8566906653)" style="fill: none; stroke: #bebebe; stroke-width: 0.6; stroke-linecap: round"/>
   </g>
   <g id="line2d_6">
    <path d="M 6.092864 32.44596 
L 8.911534 32.428824 
L 9.574751 32.13108 
L 10.237967 32.185664 
L 11.066988 32.37216 
L 13.056637 32.446684 
L 13.554049 32.63784 
L 15.377895 32.73624 
L 16.372719 33.10524 
L 18.528173 33.195564 
L 19.025585 33.28236 
L 19.522998 33.33531 
L 20.186214 33.5874 
L 20.849431 33.54247 
L 21.678451 33.3168 
L 24.662925 33.42504 
L 26.818379 33.56772 
L 28.47642 33.466349 
L 30.466069 33.43488 
L 34.279564 33.324598 
L 35.771801 33.290938 
L 36.766626 33.273727 
L 37.429842 33.006562 
L 38.258863 33.25776 
L 43.232986 33.162553 
L 44.393615 33.110884 
L 45.554244 32.963581 
L 46.21746 32.64276 
L 46.714872 32.625308 
L 47.378089 31.7178 
L 51.025779 31.621127 
L 51.523192 31.46688 
L 52.020604 31.46688 
L 52.849625 31.9392 
L 53.512841 31.844068 
L 54.176058 31.52592 
L 55.170882 31.611027 
L 55.502491 31.737684 
L 56.165707 32.07839 
L 57.49214 32.060715 
L 58.155356 31.933834 
L 59.150181 32.04744 
L 63.792696 31.953514 
L 65.119129 31.885229 
L 66.279758 31.875426 
L 68.76682 31.858326 
L 70.922273 31.68336 
L 71.253881 31.68336 
L 71.58549 32.023118 
L 72.082902 32.588621 
L 73.740943 32.592817 
L 75.564788 32.56896 
L 76.228005 32.669105 
L 76.891221 32.85432 
L 77.388634 32.908162 
L 78.05185 33.42504 
L 78.715067 33.466888 
L 79.378283 33.9072 
L 80.373108 33.989578 
L 81.036324 34.04988 
L 81.699541 34.128377 
L 82.528561 34.18764 
L 84.684015 34.17288 
L 85.513035 34.076077 
L 86.176252 33.84816 
L 87.171077 33.941287 
L 88.165901 33.980165 
L 90.984571 34.298851 
L 91.481984 34.45332 
L 110.881065 34.360508 
L 111.87589 34.31064 
L 113.368127 34.545649 
L 114.197147 34.547988 
L 115.026168 34.65996 
L 115.52358 34.581983 
L 116.186797 34.4717 
L 117.51323 34.459298 
L 118.508054 34.375974 
L 121.492528 34.335389 
L 127.793085 34.5714 
L 127.958889 34.622364 
L 128.622105 35.47176 
L 129.285322 35.451969 
L 130.114342 35.06832 
L 130.611755 35.051369 
L 131.440775 34.65996 
L 134.922662 34.58215 
L 135.420074 34.46808 
L 136.414899 34.568838 
L 137.078115 34.60092 
L 137.907136 34.62552 
L 137.907136 34.62552 
" clip-path="url(#p8566906653)" style="fill: none; stroke: #4a8dff; stroke-width: 0.7; stroke-linecap: round"/>
   </g>
   <g id="line2d_7">
    <path d="M 6.092864 37.0806 
L 8.248318 37.176828 
L 8.911534 37.272703 
L 9.740555 37.14456 
L 10.072163 37.14456 
L 10.901184 37.71528 
L 12.890833 37.734774 
L 13.554049 38.0646 
L 14.548874 37.978268 
L 15.212091 37.9416 
L 15.543699 38.021731 
L 16.206915 38.34996 
L 18.196565 38.433767 
L 18.859781 38.76816 
L 20.849431 38.758617 
L 21.512647 38.36472 
L 23.668101 38.474928 
L 24.331317 38.655 
L 28.47642 38.545646 
L 29.802853 38.545238 
L 32.12411 38.547577 
L 33.450543 38.467112 
L 36.93243 38.324172 
L 37.429842 37.952647 
L 38.093059 38.47788 
L 40.082708 38.418283 
L 40.911728 38.163 
L 42.901378 38.121969 
L 43.564594 37.87764 
L 45.38844 37.783937 
L 46.051656 36.86904 
L 46.880677 36.779403 
L 47.543893 36.53448 
L 49.533542 36.500913 
L 50.196759 36.08184 
L 50.694171 36.08184 
L 51.523192 35.57016 
L 52.020604 35.57016 
L 52.849625 36.12612 
L 53.512841 36.044578 
L 54.176058 35.77188 
L 54.839274 35.850749 
L 56.331511 36.564353 
L 57.657944 36.471467 
L 58.155356 36.415323 
L 58.984377 36.60336 
L 63.792696 36.493059 
L 64.787521 36.470501 
L 70.093253 36.606331 
L 71.253881 36.50004 
L 71.58549 36.915919 
L 72.082902 37.588641 
L 73.243531 37.49388 
L 75.23318 37.472139 
L 76.062201 37.502049 
L 76.725417 37.87764 
L 77.388634 37.924983 
L 78.05185 38.37948 
L 78.880871 38.462099 
L 79.544087 38.62548 
L 80.207304 38.720779 
L 80.87052 38.91576 
L 81.865345 39.012452 
L 83.523386 39.12732 
L 84.186602 39.040097 
L 84.849819 38.84196 
L 85.844644 38.744024 
L 86.673664 38.723249 
L 88.000097 38.822113 
L 90.818767 38.880466 
L 91.481984 39.147 
L 96.456107 39.055469 
L 97.119323 39.01908 
L 97.616736 38.938912 
L 98.279952 38.8518 
L 99.606385 38.958239 
L 100.435406 39.02892 
L 110.881065 38.922017 
L 111.710086 38.82228 
L 112.041694 38.865 
L 112.870714 39.11256 
L 114.362951 39.209382 
L 115.191972 39.2454 
L 116.518405 39.047709 
L 117.51323 39.027825 
L 119.502879 38.88132 
L 121.492528 38.975691 
L 122.818961 39.043754 
L 125.306023 39.241613 
L 126.135044 39.51108 
L 126.964064 39.433622 
L 127.793085 39.37332 
L 127.958889 39.428461 
L 128.622105 40.34748 
L 129.285322 40.325275 
L 130.114342 39.89484 
L 130.777559 39.819072 
L 131.440775 39.63408 
L 133.762033 39.727096 
L 134.259445 39.78168 
L 134.591053 39.772675 
L 135.420074 39.30444 
L 136.08329 39.374898 
L 136.746507 39.57504 
L 137.575527 39.671342 
L 137.907136 39.76692 
L 137.907136 39.76692 
" clip-path="url(#p8566906653)" style="fill: none; stroke: #f5841e; stroke-width: 0.8; stroke-linecap: round"/>
   </g>
  </g>
 </g>
 <defs>
  <clipPath id="p8566906653">
   <rect x="5.76" y="3.6" width="132.48" height="49.2"/>
  </clipPath>
 </defs>
</svg>
