<?xml version="1.0" encoding="utf-8" standalone="no"?>
<!DOCTYPE svg PUBLIC "-//W3C//DTD SVG 1.1//EN"
  "http://www.w3.org/Graphics/SVG/1.1/DTD/svg11.dtd">
<svg xmlns:xlink="http://www.w3.org/1999/xlink" width="144pt" height="60pt" viewBox="0 0 144 60" xmlns="http://www.w3.org/2000/svg" version="1.1">
  <desc id="nav-meta">{"window":"6m","count":4,"labels":["08.10","07.12","05.02","06.04"],"tick_utc":["2025-10-08T12:00:00Z","2025-12-07T12:00:00Z","2026-02-05T03:20:02Z","2026-04-06T03:50:17Z"]}</desc>

 <metadata>
  <rdf:RDF xmlns:dc="http://purl.org/dc/elements/1.1/" xmlns:cc="http://creativecommons.org/ns#" xmlns:rdf="http://www.w3.org/1999/02/22-rdf-syntax-ns#">
   <cc:Work>
    <dc:type rdf:resource="http://purl.org/dc/dcmitype/StillImage"/>
    <dc:date>2026-04-06T08:12:37.295111</dc:date>
    <dc:format>image/svg+xml</dc:format>
    <dc:creator>
     <cc:Agent>
      <dc:title>Matplotlib v3.10.8, https://matplotlib.org/</dc:title>
     </cc:Agent>
    </dc:creator>
   </cc:Work>
  </rdf:RDF>
 </metadata>
 <defs>
  <style type="text/css">*{stroke-linejoin: round; stroke-linecap: butt}</style>
 </defs>
 <g id="figure_1">
  <g id="patch_1">
   <path d="M 0 60 
L 144 60 
L 144 0 
L 0 0 
L 0 60 
z
" style="fill: none; opacity: 0"/>
  </g>
  <g id="axes_1">
   <g id="patch_2">
    <path d="M 5.76 52.8 
L 138.24 52.8 
L 138.24 3.6 
L 5.76 3.6 
L 5.76 52.8 
z
" style="fill: none"/>
   </g>
   <g id="matplotlib.axis_1"/>
   <g id="matplotlib.axis_2"/>
   <g id="line2d_1">
    <path d="M 5.76 42.96 
L 138.24 42.96 
" clip-path="url(#pc34268da43)" style="fill: none; stroke: #b2b2b2; stroke-opacity: 0.35; stroke-width: 0.5; stroke-linecap: square"/>
   </g>
   <g id="line2d_2">
    <path d="M 5.76 33.12 
L 138.24 33.12 
" clip-path="url(#pc34268da43)" style="fill: none; stroke: #b2b2b2; stroke-opacity: 0.35; stroke-width: 0.5; stroke-linecap: square"/>
   </g>
   <g id="line2d_3">
    <path d="M 5.76 23.28 
L 138.24 23.28 
" clip-path="url(#pc34268da43)" style="fill: none; stroke: #b2b2b2; stroke-opacity: 0.35; stroke-width: 0.5; stroke-linecap: square"/>
   </g>
   <g id="line2d_4">
    <path d="M 5.76 13.44 
L 138.24 13.44 
" clip-path="url(#pc34268da43)" style="fill: none; stroke: #b2b2b2; stroke-opacity: 0.35; stroke-width: 0.5; stroke-linecap: square"/>
   </g>
   <g id="line2d_5">
    <path d="M 5.76 32.84448 
L 6.497393 31.78176 
L 7.234786 32.85924 
L 7.97218 36.8838 
L 8.709573 38.39424 
L 9.446966 35.95392 
L 10.184359 34.53696 
L 10.921752 35.20608 
L 12.396539 37.57752 
L 13.133932 37.90716 
L 13.871325 37.18884 
L 14.608718 37.18392 
L 15.346111 36.89364 
L 16.083505 37.42008 
L 16.820898 38.17284 
L 17.558291 36.687 
L 18.295684 36.42132 
L 19.033077 36.34752 
L 19.770471 35.56032 
L 20.507864 35.72268 
L 21.245257 36.29832 
L 21.98265 36.32292 
L 22.720043 37.61688 
L 23.457436 37.2282 
L 24.19483 37.34628 
L 24.932223 37.23804 
L 25.669616 40.008 
L 26.407009 41.36592 
L 27.144402 40.43604 
L 27.881796 41.44956 
L 28.619189 40.53444 
L 29.356582 41.02152 
L 30.093975 40.22448 
L 30.831368 39.79644 
L 31.568761 41.51844 
L 32.306155 41.66604 
L 33.043548 42.714 
L 33.780941 43.51596 
L 34.518334 43.43724 
L 35.255727 43.71276 
L 35.993121 44.59836 
L 36.730514 43.30932 
L 37.467907 43.85052 
L 38.2053 44.21952 
L 38.942693 44.88372 
L 39.680087 44.99688 
L 40.41748 44.57868 
L 41.154873 43.5996 
L 41.892266 43.51596 
L 42.629659 43.00428 
L 43.367052 43.2798 
L 44.104446 43.71768 
L 45.579232 44.0916 
L 46.316625 45.11004 
L 47.054018 43.55532 
L 47.791412 42.72876 
L 49.266198 44.27364 
L 50.740984 44.47536 
L 51.478378 44.25888 
L 52.215771 43.64388 
L 52.953164 43.84068 
L 53.690557 43.85052 
L 54.42795 44.36712 
L 55.165343 44.26872 
L 55.902737 44.74104 
L 56.64013 44.98704 
L 57.377523 44.84436 
L 58.114916 45.58728 
L 58.852309 46.0596 
L 59.589703 45.18384 
L 62.539275 45.47904 
L 63.276668 45.65616 
L 64.014062 45.98088 
L 65.488848 45.38556 
L 66.226241 45.31668 
L 66.963634 45.58728 
L 67.701028 45.35604 
L 68.438421 45.40032 
L 69.175814 45.11496 
L 69.913207 44.42124 
L 71.387994 44.18508 
L 72.125387 43.62912 
L 72.86278 43.24044 
L 73.600173 43.8702 
L 74.337566 43.60944 
L 75.074959 43.92924 
L 75.812353 43.93416 
L 76.549746 43.46184 
L 77.287139 43.5012 
L 78.024532 42.72384 
L 78.761925 42.51228 
L 79.499319 43.08792 
L 80.236712 42.75828 
L 80.974105 42.90096 
L 82.448891 44.2392 
L 83.186284 45.23304 
L 83.923678 44.77548 
L 85.398464 45.04608 
L 86.135857 45.07068 
L 86.87325 46.1334 
L 87.610644 45.4446 
L 88.348037 45.06084 
L 89.08543 45.33144 
L 89.822823 46.30068 
L 90.560216 46.34496 
L 91.29761 47.89476 
L 92.035003 48.26376 
L 92.772396 47.96364 
L 93.980918 49.06572 
L 94.717936 50.04972 
L 95.452172 49.24776 
L 98.415195 49.59708 
L 99.149934 49.80372 
L 99.887105 49.86768 
L 100.615631 49.479 
L 101.314114 49.24776 
L 102.098807 49.48392 
L 102.743573 49.37568 
L 103.572424 49.479 
L 104.308921 49.7004 
L 106.520708 49.49376 
L 107.26032 49.98576 
L 107.935419 49.96608 
L 108.732452 49.7004 
L 109.466559 49.27236 
L 110.202553 49.37076 
L 110.931258 49.68072 
L 111.685405 49.25268 
L 112.415185 49.51344 
L 114.626537 49.09032 
L 116.839868 49.64628 
L 117.579472 49.58724 
L 118.312128 49.36092 
L 119.789526 49.45932 
L 120.525494 49.16904 
L 122.013407 49.27236 
L 122.752883 48.87384 
L 124.220389 48.70164 
L 124.957987 49.03128 
L 125.688202 49.1592 
L 126.421277 49.08048 
L 127.908823 49.36584 
L 129.431702 48.90828 
L 130.123145 49.05096 
L 131.591812 49.64628 
L 134.55521 49.59708 
L 135.282891 49.8726 
L 136.752207 49.80864 
L 138.24 49.69056 
L 138.24 49.69056 
" clip-path="url(#pc34268da43)" style="fill: none; stroke: #bebebe; stroke-width: 0.6; stroke-linecap: round"/>
   </g>
   <g id="line2d_6">
    <path d="M 5.76 26.81256 
L 6.497393 26.29596 
L 7.234786 27.41772 
L 7.97218 31.19136 
L 8.709573 31.80144 
L 9.446966 28.89864 
L 10.184359 28.28364 
L 10.921752 29.11512 
L 11.659145 30.1434 
L 12.396539 30.80268 
L 13.133932 31.22088 
L 13.871325 30.8076 
L 14.608718 30.13356 
L 15.346111 30.17784 
L 16.083505 30.89124 
L 16.820898 31.42752 
L 17.558291 31.04376 
L 18.295684 30.49764 
L 19.033077 30.3648 
L 19.770471 28.88388 
L 20.507864 29.15448 
L 21.245257 30.15324 
L 22.720043 31.4226 
L 23.457436 31.10772 
L 24.932223 30.66 
L 26.407009 34.99944 
L 27.144402 34.07448 
L 27.881796 34.9158 
L 28.619189 34.02528 
L 29.356582 34.26144 
L 30.093975 33.0216 
L 30.831368 33.10524 
L 31.568761 34.1532 
L 32.306155 34.2024 
L 33.043548 35.4324 
L 33.780941 36.34752 
L 34.518334 35.89488 
L 35.993121 36.94776 
L 36.730514 36.2688 
L 37.467907 36.97236 
L 38.2053 38.286 
L 38.942693 38.76324 
L 39.680087 38.73864 
L 40.41748 38.51724 
L 41.154873 37.42992 
L 41.892266 37.42008 
L 42.629659 36.90348 
L 43.367052 36.98712 
L 44.104446 36.86412 
L 44.841839 37.16424 
L 45.579232 37.14948 
L 46.316625 38.52216 
L 47.791412 35.71776 
L 48.528805 36.15564 
L 49.266198 36.93792 
L 50.740984 36.72636 
L 51.478378 36.21468 
L 52.215771 34.8174 
L 52.953164 34.7928 
L 53.690557 35.42748 
L 54.42795 36.49512 
L 55.165343 36.28356 
L 55.902737 36.6378 
L 56.64013 37.3512 
L 57.377523 37.3512 
L 58.114916 38.31552 
L 58.852309 38.32536 
L 59.589703 37.26264 
L 60.327096 37.26264 
L 61.064489 37.09044 
L 61.801882 37.06092 
L 62.539275 37.34628 
L 63.276668 37.48404 
L 64.014062 37.77924 
L 65.488848 37.45944 
L 66.963634 37.56276 
L 67.701028 37.31184 
L 68.438421 37.33644 
L 69.175814 37.09536 
L 69.913207 36.23928 
L 71.387994 36.11628 
L 72.125387 35.48652 
L 72.86278 35.0142 
L 73.600173 35.93424 
L 74.337566 36.36228 
L 75.074959 36.50988 
L 75.812353 36.5148 
L 76.549746 36.25404 
L 77.287139 36.46068 
L 78.024532 34.83708 
L 78.761925 34.57632 
L 80.236712 35.00436 
L 80.974105 34.93056 
L 81.711498 35.088 
L 82.448891 35.78664 
L 83.186284 37.55292 
L 83.923678 37.26756 
L 84.661071 37.46436 
L 86.135857 37.45944 
L 86.87325 38.41392 
L 88.348037 36.95268 
L 89.08543 37.05108 
L 89.822823 38.37948 
L 90.560216 39.20604 
L 91.29761 41.03136 
L 92.035003 42.26628 
L 92.772396 41.73492 
L 93.394921 42.23676 
L 94.717936 44.89356 
L 95.452172 43.6242 
L 96.937729 43.53072 
L 97.679329 43.72752 
L 99.149934 44.436 
L 99.887105 44.49012 
L 100.615631 43.81608 
L 101.314114 43.7226 
L 102.098807 44.5344 
L 102.743573 44.19 
L 103.572424 44.21952 
L 105.042004 44.51472 
L 106.520708 44.3868 
L 107.26032 45.174 
L 107.935419 45.23796 
L 108.732452 44.81484 
L 109.466559 43.821 
L 110.202553 44.01288 
L 110.931258 44.66232 
L 111.685405 43.93908 
L 112.415185 44.39664 
L 113.154293 44.12112 
L 113.887556 44.33268 
L 114.626537 43.3044 
L 115.36358 43.6242 
L 116.095315 44.29824 
L 116.839868 44.53932 
L 117.579472 44.30808 
L 118.312128 43.8702 
L 119.049231 44.00304 
L 119.789526 43.97844 
L 120.525494 43.41756 
L 122.013407 43.48644 
L 122.752883 42.49752 
L 123.477371 41.73984 
L 124.220389 41.7546 
L 124.957987 42.591 
L 125.688202 43.14204 
L 126.421277 43.083 
L 127.169697 43.35852 
L 127.908823 43.78164 
L 128.639388 43.21584 
L 129.431702 42.9354 
L 130.123145 43.10268 
L 131.591812 44.25396 
L 133.811493 43.74228 
L 134.55521 43.46676 
L 136.021129 43.79148 
L 137.500704 43.77672 
L 138.24 43.2552 
L 138.24 43.2552 
" clip-path="url(#pc34268da43)" style="fill: none; stroke: #4a8dff; stroke-width: 0.6; stroke-linecap: round"/>
   </g>
   <g id="line2d_7">
    <path d="M 5.76 25.53336 
L 6.497393 24.62808 
L 7.234786 25.4448 
L 7.97218 29.64156 
L 8.709573 30.80268 
L 9.446966 28.65756 
L 10.184359 28.6428 
L 10.921752 29.66124 
L 12.396539 32.17044 
L 13.133932 32.97732 
L 13.871325 32.628 
L 14.608718 31.90476 
L 15.346111 30.92076 
L 16.083505 31.96872 
L 16.820898 32.39676 
L 17.558291 31.19628 
L 18.295684 30.72888 
L 19.033077 30.42384 
L 19.770471 29.0118 
L 20.507864 29.15448 
L 21.245257 29.76456 
L 21.98265 31.2012 
L 22.720043 32.09172 
L 23.457436 31.43244 
L 24.932223 30.90108 
L 25.669616 32.93796 
L 26.407009 35.35368 
L 27.144402 34.24668 
L 27.881796 35.5062 
L 28.619189 34.48284 
L 29.356582 35.02896 
L 30.093975 33.8334 
L 30.831368 33.243 
L 31.568761 34.69932 
L 32.306155 35.4078 
L 33.043548 36.2934 
L 33.780941 38.901 
L 34.518334 38.37948 
L 35.255727 38.92068 
L 35.993121 40.09164 
L 36.730514 39.70788 
L 37.467907 40.4262 
L 38.2053 42.75336 
L 38.942693 43.54548 
L 39.680087 43.72752 
L 40.41748 42.6894 
L 41.154873 41.976 
L 41.892266 42.42864 
L 42.629659 40.86408 
L 43.367052 40.47048 
L 45.579232 40.89852 
L 46.316625 42.9354 
L 47.054018 40.43604 
L 47.791412 39.31428 
L 48.528805 40.04244 
L 49.266198 41.43972 
L 50.003591 41.47416 
L 50.740984 41.02152 
L 51.478378 40.7952 
L 52.215771 39.75708 
L 52.953164 40.11132 
L 53.690557 39.87024 
L 54.42795 40.94772 
L 55.165343 40.97232 
L 56.64013 42.87144 
L 57.377523 42.17772 
L 58.114916 43.04364 
L 58.852309 43.34868 
L 59.589703 42.03504 
L 61.064489 41.8038 
L 61.801882 41.84316 
L 62.539275 42.37944 
L 63.276668 42.26628 
L 64.014062 42.468 
L 64.751455 42.42864 
L 65.488848 42.18264 
L 66.226241 42.1728 
L 66.963634 42.50244 
L 67.701028 41.88252 
L 68.438421 42.32532 
L 69.913207 41.13468 
L 71.387994 40.42128 
L 72.125387 39.16176 
L 72.86278 39.28968 
L 73.600173 40.48032 
L 75.812353 40.88376 
L 77.287139 40.53936 
L 78.024532 38.50248 
L 78.761925 37.63656 
L 79.499319 38.34012 
L 80.236712 38.37456 
L 80.974105 38.5812 
L 82.448891 39.8358 
L 83.186284 41.93172 
L 83.923678 41.42004 
L 85.398464 41.39052 
L 86.135857 41.5086 
L 86.87325 42.80256 
L 87.610644 41.93664 
L 88.348037 41.49384 
L 89.08543 41.51352 
L 89.822823 43.78164 
L 90.560216 43.9932 
L 91.29761 46.66968 
L 92.035003 47.55036 
L 92.772396 46.64508 
L 93.980918 48.89352 
L 94.717936 49.84308 
L 95.452172 49.00176 
L 96.206421 49.233 
L 96.937729 48.97716 
L 98.415195 49.36092 
L 99.887105 49.58724 
L 100.615631 49.28712 
L 101.314114 49.16904 
L 102.098807 49.39044 
L 102.743573 49.29696 
L 104.308921 49.55772 
L 106.520708 49.41996 
L 107.26032 49.8234 
L 107.935419 49.86768 
L 108.732452 49.72992 
L 109.466559 49.39536 
L 110.931258 49.6758 
L 111.685405 49.47408 
L 112.415185 49.60692 
L 113.154293 49.37568 
L 113.887556 49.36584 
L 114.626537 48.6672 
L 115.36358 48.95256 
L 116.095315 49.36092 
L 116.839868 49.54788 
L 117.579472 49.5282 
L 118.312128 49.09032 
L 119.789526 49.2084 
L 120.525494 48.93288 
L 122.013407 48.89844 
L 122.752883 48.48024 
L 123.477371 48.1998 
L 124.220389 48.28344 
L 124.957987 48.88368 
L 125.688202 49.04604 
L 126.421277 49.00176 
L 127.908823 49.38552 
L 128.639388 49.04112 
L 129.431702 48.92796 
L 130.123145 48.987 
L 131.591812 49.66104 
L 134.55521 49.40028 
L 135.282891 49.56756 
L 136.752207 49.56264 
L 137.500704 49.53312 
L 138.24 49.25268 
L 138.24 49.25268 
" clip-path="url(#pc34268da43)" style="fill: none; stroke: #f5841e; stroke-width: 0.7; stroke-linecap: round"/>
   </g>
  </g>
 </g>
 <defs>
  <clipPath id="pc34268da43">
   <rect x="5.76" y="3.6" width="132.48" height="49.2"/>
  </clipPath>
 </defs>
</svg>
