<?xml version="1.0" encoding="utf-8" standalone="no"?>
<!DOCTYPE svg PUBLIC "-//W3C//DTD SVG 1.1//EN"
  "http://www.w3.org/Graphics/SVG/1.1/DTD/svg11.dtd">
<svg xmlns:xlink="http://www.w3.org/1999/xlink" width="144pt" height="60pt" viewBox="0 0 144 60" xmlns="http://www.w3.org/2000/svg" version="1.1">
  <desc id="nav-meta">{"window":"1m","count":4,"labels":["27.05","06.06","15.06","25.06"],"tick_utc":["2026-05-27T05:03:21Z","2026-06-06T04:41:00Z","2026-06-15T06:07:39Z","2026-06-25T04:50:14Z"]}</desc>

 <metadata>
  <rdf:RDF xmlns:dc="http://purl.org/dc/elements/1.1/" xmlns:cc="http://creativecommons.org/ns#" xmlns:rdf="http://www.w3.org/1999/02/22-rdf-syntax-ns#">
   <cc:Work>
    <dc:type rdf:resource="http://purl.org/dc/dcmitype/StillImage"/>
    <dc:date>2026-06-25T15:32:31.996818</dc:date>
    <dc:format>image/svg+xml</dc:format>
    <dc:creator>
     <cc:Agent>
      <dc:title>Matplotlib v3.11.0, https://matplotlib.org/</dc:title>
     </cc:Agent>
    </dc:creator>
   </cc:Work>
  </rdf:RDF>
 </metadata>
 <defs>
  <style type="text/css">*{stroke-linejoin: round; stroke-linecap: butt}</style>
 </defs>
 <g id="figure_1">
  <g id="patch_1">
   <path d="M 0 60 
L 144 60 
L 144 0 
L 0 0 
L 0 60 
z
" style="fill: none; opacity: 0"/>
  </g>
  <g id="axes_1">
   <g id="patch_2">
    <path d="M 5.76 52.8 
L 138.24 52.8 
L 138.24 3.6 
L 5.76 3.6 
L 5.76 52.8 
z
" style="fill: none"/>
   </g>
   <g id="matplotlib.axis_1"/>
   <g id="matplotlib.axis_2"/>
   <g id="line2d_1">
    <path d="M 5.76 42.96 
L 138.24 42.96 
" clip-path="url(#p38cbd47162)" style="fill: none; stroke: #b2b2b2; stroke-opacity: 0.35; stroke-width: 0.5; stroke-linecap: square"/>
   </g>
   <g id="line2d_2">
    <path d="M 5.76 33.12 
L 138.24 33.12 
" clip-path="url(#p38cbd47162)" style="fill: none; stroke: #b2b2b2; stroke-opacity: 0.35; stroke-width: 0.5; stroke-linecap: square"/>
   </g>
   <g id="line2d_3">
    <path d="M 5.76 23.28 
L 138.24 23.28 
" clip-path="url(#p38cbd47162)" style="fill: none; stroke: #b2b2b2; stroke-opacity: 0.35; stroke-width: 0.5; stroke-linecap: square"/>
   </g>
   <g id="line2d_4">
    <path d="M 5.76 13.44 
L 138.24 13.44 
" clip-path="url(#p38cbd47162)" style="fill: none; stroke: #b2b2b2; stroke-opacity: 0.35; stroke-width: 0.5; stroke-linecap: square"/>
   </g>
   <g id="line2d_5">
    <path d="M 5.76 49.5774 
L 10.315114 49.7742 
L 14.88821 49.7004 
L 19.39202 49.69548 
L 24.055029 49.61676 
L 28.692334 49.71024 
L 33.217089 49.7988 
L 37.838209 50.19732 
L 42.392265 50.45808 
L 46.886713 50.59092 
L 51.386186 50.99928 
L 56.054114 50.82216 
L 60.64403 50.74344 
L 65.126525 50.62536 
L 69.743626 50.80248 
L 74.340152 50.76312 
L 78.927793 50.65488 
L 83.464078 50.6598 
L 88.066951 50.56632 
L 92.788563 50.39412 
L 97.384349 50.23176 
L 101.808506 50.2416 
L 106.356321 50.4138 
L 111.033664 50.55156 
L 115.420639 50.42364 
L 120.085447 50.27112 
L 124.788918 50.217 
L 129.085451 50.35968 
L 133.671505 50.49252 
L 138.24 50.59092 
" clip-path="url(#p38cbd47162)" style="fill: none; stroke: #bebebe; stroke-width: 0.6; stroke-linecap: round"/>
   </g>
   <g id="line2d_6">
    <path d="M 5.76 43.67832 
L 10.315114 44.32776 
L 14.88821 44.13588 
L 19.39202 44.16048 
L 24.055029 43.96368 
L 28.692334 44.2392 
L 33.217089 44.19984 
L 37.838209 45.16908 
L 42.392265 45.67584 
L 46.886713 46.00548 
L 51.386186 47.57004 
L 56.054114 47.04852 
L 60.64403 46.64016 
L 65.126525 46.34496 
L 69.743626 46.82712 
L 74.340152 46.65492 
L 78.927793 46.51716 
L 83.464078 46.5516 
L 88.066951 46.46304 
L 92.788563 46.14816 
L 97.384349 45.84312 
L 101.808506 45.6414 
L 106.356321 46.09404 
L 111.033664 46.3302 
L 115.420639 46.21704 
L 120.085447 46.06452 
L 124.788918 46.035 
L 129.085451 46.14324 
L 133.671505 46.52208 
L 138.24 46.83204 
" clip-path="url(#p38cbd47162)" style="fill: none; stroke: #4a8dff; stroke-width: 0.6; stroke-linecap: round"/>
   </g>
   <g id="line2d_7">
    <path d="M 5.76 48.07188 
L 10.315114 48.59832 
L 14.88821 48.52452 
L 19.39202 48.5688 
L 24.055029 48.38676 
L 28.692334 48.55404 
L 33.217089 49.0116 
L 37.838209 49.57248 
L 42.392265 49.93656 
L 46.886713 49.98084 
L 51.386186 50.3646 
L 56.054114 50.15796 
L 60.64403 50.07432 
L 65.126525 49.99068 
L 69.743626 50.217 
L 74.340152 50.07924 
L 78.927793 49.98084 
L 83.464078 49.971 
L 88.066951 49.87752 
L 92.788563 49.69548 
L 97.384349 49.65612 
L 101.808506 49.7004 
L 106.356321 49.92672 
L 111.033664 50.06448 
L 115.420639 49.971 
L 120.085447 49.89228 
L 124.788918 49.89228 
L 129.085451 49.9464 
L 133.671505 50.05956 
L 138.24 50.2416 
" clip-path="url(#p38cbd47162)" style="fill: none; stroke: #f5841e; stroke-width: 0.7; stroke-linecap: round"/>
   </g>
  </g>
 </g>
 <defs>
  <clipPath id="p38cbd47162">
   <rect x="5.76" y="3.6" width="132.48" height="49.2"/>
  </clipPath>
 </defs>
</svg>
