<?xml version="1.0" encoding="utf-8" standalone="no"?>
<!DOCTYPE svg PUBLIC "-//W3C//DTD SVG 1.1//EN"
  "http://www.w3.org/Graphics/SVG/1.1/DTD/svg11.dtd">
<svg xmlns:xlink="http://www.w3.org/1999/xlink" width="144pt" height="60pt" viewBox="0 0 144 60" xmlns="http://www.w3.org/2000/svg" version="1.1">
  <desc id="nav-meta">{"window":"1y","count":4,"labels":["21.06","21.10","20.02","21.06"],"tick_utc":["2025-06-21T12:00:00Z","2025-10-21T12:00:00Z","2026-02-20T03:20:24Z","2026-06-21T05:29:24Z"]}</desc>

 <metadata>
  <rdf:RDF xmlns:dc="http://purl.org/dc/elements/1.1/" xmlns:cc="http://creativecommons.org/ns#" xmlns:rdf="http://www.w3.org/1999/02/22-rdf-syntax-ns#">
   <cc:Work>
    <dc:type rdf:resource="http://purl.org/dc/dcmitype/StillImage"/>
    <dc:date>2026-06-21T10:21:16.870347</dc:date>
    <dc:format>image/svg+xml</dc:format>
    <dc:creator>
     <cc:Agent>
      <dc:title>Matplotlib v3.11.0, https://matplotlib.org/</dc:title>
     </cc:Agent>
    </dc:creator>
   </cc:Work>
  </rdf:RDF>
 </metadata>
 <defs>
  <style type="text/css">*{stroke-linejoin: round; stroke-linecap: butt}</style>
 </defs>
 <g id="figure_1">
  <g id="patch_1">
   <path d="M 0 60 
L 144 60 
L 144 0 
L 0 0 
L 0 60 
z
" style="fill: none; opacity: 0"/>
  </g>
  <g id="axes_1">
   <g id="patch_2">
    <path d="M 5.76 52.8 
L 138.24 52.8 
L 138.24 3.6 
L 5.76 3.6 
L 5.76 52.8 
z
" style="fill: none"/>
   </g>
   <g id="matplotlib.axis_1"/>
   <g id="matplotlib.axis_2"/>
   <g id="line2d_1">
    <path d="M 5.76 42.96 
L 138.24 42.96 
" clip-path="url(#p34f1b26314)" style="fill: none; stroke: #b2b2b2; stroke-opacity: 0.35; stroke-width: 0.5; stroke-linecap: square"/>
   </g>
   <g id="line2d_2">
    <path d="M 5.76 33.12 
L 138.24 33.12 
" clip-path="url(#p34f1b26314)" style="fill: none; stroke: #b2b2b2; stroke-opacity: 0.35; stroke-width: 0.5; stroke-linecap: square"/>
   </g>
   <g id="line2d_3">
    <path d="M 5.76 23.28 
L 138.24 23.28 
" clip-path="url(#p34f1b26314)" style="fill: none; stroke: #b2b2b2; stroke-opacity: 0.35; stroke-width: 0.5; stroke-linecap: square"/>
   </g>
   <g id="line2d_4">
    <path d="M 5.76 13.44 
L 138.24 13.44 
" clip-path="url(#p34f1b26314)" style="fill: none; stroke: #b2b2b2; stroke-opacity: 0.35; stroke-width: 0.5; stroke-linecap: square"/>
   </g>
   <g id="line2d_5">
    <path d="M 5.76 43.3782 
L 6.123229 44.20476 
L 6.486458 44.45076 
L 6.849687 42.7632 
L 7.212915 42.63036 
L 7.576144 42.94524 
L 7.939373 43.52088 
L 8.302602 43.1076 
L 8.665831 41.98092 
L 9.392288 41.43972 
L 9.755517 42.4926 
L 10.118746 41.79888 
L 10.481975 41.78412 
L 10.845204 42.37452 
L 11.208433 42.3942 
L 11.571661 41.83332 
L 11.93489 42.24168 
L 12.298119 41.84316 
L 13.024577 40.2786 
L 13.387806 40.42128 
L 13.751034 40.71648 
L 14.477492 40.48032 
L 14.840721 40.26384 
L 15.20395 38.97972 
L 15.930407 38.51724 
L 16.293636 38.57628 
L 16.656865 38.04492 
L 17.020094 36.03264 
L 17.383323 34.88136 
L 17.746552 36.92316 
L 18.10978 37.8432 
L 18.473009 37.37088 
L 18.836238 37.53324 
L 19.199467 37.056 
L 19.562696 37.77924 
L 19.925925 38.02032 
L 20.289154 38.45328 
L 20.652382 39.1962 
L 21.015611 40.41636 
L 21.37884 40.97232 
L 21.742069 40.53444 
L 22.105298 39.55536 
L 22.468527 40.24908 
L 22.831755 39.7128 
L 23.194984 38.778 
L 23.558213 38.59104 
L 24.284671 37.794 
L 24.6479 38.82228 
L 25.011128 36.53448 
L 25.374357 35.334 
L 26.100815 37.44468 
L 26.464044 36.90348 
L 26.827273 36.65748 
L 27.55373 38.64516 
L 27.916959 37.2282 
L 28.280188 38.14332 
L 28.643417 35.53572 
L 29.006646 35.04372 
L 29.369874 34.80264 
L 29.733103 37.23804 
L 30.82279 33.67104 
L 31.186019 34.90596 
L 32.275705 35.9736 
L 32.638934 34.36476 
L 33.002163 34.1778 
L 33.365392 35.22084 
L 33.728621 35.11752 
L 34.091849 35.54556 
L 35.544765 32.44104 
L 35.907994 31.83096 
L 36.271222 30.06468 
L 36.634451 30.01056 
L 36.99768 30.291 
L 37.360909 31.16184 
L 37.724138 30.74856 
L 38.087367 29.71536 
L 38.450595 29.37588 
L 38.813824 30.57636 
L 39.177053 30.42876 
L 39.540282 30.79284 
L 39.903511 32.91828 
L 40.26674 33.72024 
L 40.629968 34.05972 
L 40.993197 36.5886 
L 41.356426 34.90104 
L 41.719655 35.10276 
L 42.082884 34.16796 
L 42.446113 33.8826 
L 42.809341 34.43364 
L 43.535799 31.05852 
L 43.899028 31.26024 
L 44.262257 31.92936 
L 44.625486 31.85064 
L 44.988714 31.3242 
L 45.351943 32.84448 
L 45.715172 31.78176 
L 46.078401 32.85924 
L 46.44163 36.8838 
L 46.804859 38.39424 
L 47.168088 35.95392 
L 47.531316 34.53696 
L 47.894545 35.20608 
L 48.621003 37.57752 
L 48.984232 37.90716 
L 49.347461 37.18884 
L 49.710689 37.18392 
L 50.073918 36.89364 
L 50.437147 37.42008 
L 50.800376 38.17284 
L 51.163605 36.687 
L 51.526834 36.42132 
L 51.890062 36.34752 
L 52.253291 35.56032 
L 52.61652 35.72268 
L 52.979749 36.29832 
L 53.342978 36.32292 
L 53.706207 37.61688 
L 54.069435 37.2282 
L 54.432664 37.34628 
L 54.795893 37.23804 
L 55.159122 40.008 
L 55.522351 41.36592 
L 55.88558 40.43604 
L 56.248808 41.44956 
L 56.612037 40.53444 
L 56.975266 41.02152 
L 57.338495 40.22448 
L 57.701724 39.79644 
L 58.064953 41.51844 
L 58.428181 41.66604 
L 59.154639 43.51596 
L 59.517868 43.43724 
L 59.881097 43.71276 
L 60.244326 44.59836 
L 60.607555 43.30932 
L 61.697241 44.88372 
L 62.06047 44.99688 
L 62.423699 44.57868 
L 62.786928 43.5996 
L 63.150156 43.51596 
L 63.513385 43.00428 
L 63.876614 43.2798 
L 64.239843 43.71768 
L 64.966301 44.0916 
L 65.329529 45.11004 
L 65.692758 43.55532 
L 66.055987 42.72876 
L 66.782445 44.27364 
L 67.508902 44.47536 
L 67.872131 44.25888 
L 68.23536 43.64388 
L 68.598589 43.84068 
L 68.961818 43.85052 
L 69.325047 44.36712 
L 69.688275 44.26872 
L 70.051504 44.74104 
L 70.414733 44.98704 
L 70.777962 44.84436 
L 71.141191 45.58728 
L 71.50442 46.0596 
L 71.867648 45.18384 
L 73.320564 45.47904 
L 73.683793 45.65616 
L 74.047022 45.98088 
L 74.773479 45.38556 
L 75.136708 45.31668 
L 75.499937 45.58728 
L 75.863166 45.35604 
L 76.226395 45.40032 
L 76.589623 45.11496 
L 76.952852 44.42124 
L 77.67931 44.18508 
L 78.405768 43.24044 
L 78.768996 43.8702 
L 79.132225 43.60944 
L 79.495454 43.92924 
L 79.858683 43.93416 
L 80.221912 43.46184 
L 80.585141 43.5012 
L 80.948369 42.72384 
L 81.311598 42.51228 
L 81.674827 43.08792 
L 82.038056 42.75828 
L 82.401285 42.90096 
L 83.127742 44.2392 
L 83.490971 45.23304 
L 83.8542 44.77548 
L 84.580658 45.04608 
L 84.943887 45.07068 
L 85.307115 46.1334 
L 85.670344 45.4446 
L 86.033573 45.06084 
L 86.396802 45.33144 
L 86.760031 46.30068 
L 87.12326 46.34496 
L 87.486489 47.89476 
L 87.849717 48.26376 
L 88.212946 47.96364 
L 89.17129 50.04972 
L 89.532964 49.24776 
L 90.992504 49.59708 
L 91.354426 49.80372 
L 91.717545 49.86768 
L 92.420469 49.24776 
L 92.806996 49.48392 
L 93.124599 49.37568 
L 93.532878 49.479 
L 93.895666 49.7004 
L 94.985159 49.49376 
L 95.349481 49.98576 
L 95.682024 49.96608 
L 96.074631 49.7004 
L 96.436241 49.27236 
L 96.79878 49.37076 
L 97.15773 49.68072 
L 97.529211 49.25268 
L 97.88869 49.51344 
L 98.977969 49.09032 
L 100.43254 49.58724 
L 100.793436 49.36092 
L 101.52118 49.45932 
L 101.883707 49.16904 
L 102.61663 49.27236 
L 102.980885 48.87384 
L 103.703756 48.70164 
L 104.067086 49.03128 
L 104.426779 49.1592 
L 104.787881 49.08048 
L 105.520624 49.36584 
L 106.270771 48.90828 
L 106.611365 49.05096 
L 107.334809 49.64628 
L 108.794535 49.59708 
L 109.152979 49.8726 
L 109.876742 49.80864 
L 110.970477 49.83816 
L 111.334295 49.50852 
L 111.696258 49.68564 
L 112.420504 49.48884 
L 113.155341 49.69056 
L 113.516257 49.40028 
L 113.879209 49.58724 
L 114.965721 49.19856 
L 115.333747 49.43472 
L 115.697875 49.50852 
L 117.509399 49.37568 
L 117.878278 49.4052 
L 118.245421 49.29204 
L 118.609411 49.5528 
L 118.971648 49.50852 
L 119.335486 49.64136 
L 120.056642 49.56264 
L 120.427245 49.57248 
L 120.790348 49.42488 
L 121.145576 49.49376 
L 121.878529 49.25268 
L 122.235713 49.24284 
L 122.60027 48.80004 
L 122.970818 48.85416 
L 123.695098 48.63276 
L 124.060055 48.66228 
L 124.42288 49.09524 
L 124.7879 48.99192 
L 125.515144 49.34616 
L 125.8819 49.47408 
L 126.607054 49.54788 
L 126.972351 49.3314 
L 127.332797 49.34616 
L 127.691036 49.51836 
L 128.428025 49.41504 
L 129.514777 49.7742 
L 130.60691 49.61676 
L 131.335167 49.7988 
L 132.064467 50.45808 
L 132.421713 50.59092 
L 132.779359 50.99928 
L 133.515229 50.74344 
L 133.871526 50.62536 
L 134.238521 50.80248 
L 135.694972 50.56632 
L 136.435577 50.23176 
L 136.787236 50.2416 
L 137.520508 50.55156 
L 138.24 50.27112 
L 138.24 50.27112 
" clip-path="url(#p34f1b26314)" style="fill: none; stroke: #bebebe; stroke-width: 0.6; stroke-linecap: round"/>
   </g>
   <g id="line2d_6">
    <path d="M 5.76 41.30196 
L 6.123229 42.26136 
L 6.486458 42.5664 
L 6.849687 41.17404 
L 7.212915 41.0166 
L 7.576144 41.22324 
L 8.302602 41.17896 
L 8.665831 41.08056 
L 9.02906 40.61808 
L 9.392288 40.7214 
L 9.755517 41.30688 
L 10.118746 40.11132 
L 10.481975 39.99816 
L 10.845204 40.56888 
L 11.208433 40.51476 
L 11.571661 40.131 
L 11.93489 40.3278 
L 12.298119 39.81612 
L 13.024577 37.46436 
L 13.387806 37.39056 
L 13.751034 37.50372 
L 14.477492 37.01172 
L 14.840721 36.16056 
L 15.20395 34.4976 
L 15.567179 33.69072 
L 16.293636 32.89368 
L 16.656865 31.73256 
L 17.020094 31.68336 
L 17.383323 31.8162 
L 17.746552 32.64276 
L 18.10978 32.0868 
L 18.836238 31.85064 
L 19.199467 30.98964 
L 19.562696 31.53576 
L 19.925925 31.521 
L 20.289154 31.38816 
L 20.652382 32.17044 
L 21.015611 33.68088 
L 21.37884 34.28604 
L 21.742069 33.58248 
L 22.105298 32.0376 
L 22.468527 32.76576 
L 22.831755 32.259 
L 23.194984 30.65508 
L 23.558213 29.93676 
L 23.921442 28.14588 
L 24.6479 28.40664 
L 25.011128 25.73508 
L 25.374357 24.62316 
L 25.737586 26.10408 
L 26.100815 26.97984 
L 26.464044 27.00936 
L 26.827273 26.58132 
L 27.190501 27.7818 
L 27.55373 29.49888 
L 27.916959 27.68832 
L 28.280188 28.44108 
L 28.643417 24.16068 
L 29.006646 24.55428 
L 29.369874 24.51984 
L 29.733103 27.32916 
L 30.096332 25.7646 
L 30.459561 26.48784 
L 30.82279 26.43372 
L 31.186019 27.44724 
L 31.912476 27.27504 
L 32.275705 27.8802 
L 32.638934 27.72276 
L 33.002163 26.84208 
L 33.365392 27.91956 
L 33.728621 27.8556 
L 34.091849 28.09668 
L 34.455078 27.87528 
L 35.181536 27.83592 
L 35.544765 27.57024 
L 35.907994 26.77812 
L 36.271222 25.01184 
L 36.99768 25.71048 
L 37.360909 26.31564 
L 37.724138 26.45832 
L 38.087367 25.8384 
L 38.450595 25.84824 
L 38.813824 26.6994 
L 39.177053 26.62068 
L 39.540282 26.8224 
L 39.903511 28.61328 
L 40.629968 28.97244 
L 40.993197 30.99456 
L 41.356426 29.76456 
L 41.719655 29.8974 
L 42.082884 29.02164 
L 42.446113 28.50012 
L 42.809341 29.00688 
L 43.535799 26.601 
L 43.899028 26.3796 
L 44.262257 26.5764 
L 44.625486 26.3796 
L 44.988714 25.1496 
L 45.351943 26.81256 
L 45.715172 26.29596 
L 46.078401 27.41772 
L 46.44163 31.19136 
L 46.804859 31.80144 
L 47.168088 28.89864 
L 47.531316 28.28364 
L 48.621003 30.80268 
L 48.984232 31.22088 
L 49.347461 30.8076 
L 49.710689 30.13356 
L 50.073918 30.17784 
L 50.800376 31.42752 
L 51.163605 31.04376 
L 51.526834 30.49764 
L 51.890062 30.3648 
L 52.253291 28.88388 
L 52.61652 29.15448 
L 52.979749 30.15324 
L 53.706207 31.4226 
L 54.432664 30.9306 
L 54.795893 30.66 
L 55.522351 34.99944 
L 55.88558 34.07448 
L 56.248808 34.9158 
L 56.612037 34.02528 
L 56.975266 34.26144 
L 57.338495 33.0216 
L 57.701724 33.10524 
L 58.064953 34.1532 
L 58.428181 34.2024 
L 59.154639 36.34752 
L 59.517868 35.89488 
L 60.244326 36.94776 
L 60.607555 36.2688 
L 60.970783 36.97236 
L 61.334012 38.286 
L 61.697241 38.76324 
L 62.06047 38.73864 
L 62.423699 38.51724 
L 62.786928 37.42992 
L 63.150156 37.42008 
L 63.513385 36.90348 
L 63.876614 36.98712 
L 64.239843 36.86412 
L 64.603072 37.16424 
L 64.966301 37.14948 
L 65.329529 38.52216 
L 66.055987 35.71776 
L 66.419216 36.15564 
L 66.782445 36.93792 
L 67.508902 36.72636 
L 67.872131 36.21468 
L 68.23536 34.8174 
L 68.598589 34.7928 
L 68.961818 35.42748 
L 69.325047 36.49512 
L 69.688275 36.28356 
L 70.051504 36.6378 
L 70.414733 37.3512 
L 70.777962 37.3512 
L 71.141191 38.31552 
L 71.50442 38.32536 
L 71.867648 37.26264 
L 72.230877 37.26264 
L 72.594106 37.09044 
L 72.957335 37.06092 
L 73.320564 37.34628 
L 73.683793 37.48404 
L 74.047022 37.77924 
L 74.773479 37.45944 
L 75.499937 37.56276 
L 75.863166 37.31184 
L 76.226395 37.33644 
L 76.589623 37.09536 
L 76.952852 36.23928 
L 77.67931 36.11628 
L 78.405768 35.0142 
L 78.768996 35.93424 
L 79.132225 36.36228 
L 79.495454 36.50988 
L 79.858683 36.5148 
L 80.221912 36.25404 
L 80.585141 36.46068 
L 80.948369 34.83708 
L 81.311598 34.57632 
L 82.038056 35.00436 
L 82.401285 34.93056 
L 82.764514 35.088 
L 83.127742 35.78664 
L 83.490971 37.55292 
L 83.8542 37.26756 
L 84.217429 37.46436 
L 84.943887 37.45944 
L 85.307115 38.41392 
L 86.033573 36.95268 
L 86.396802 37.05108 
L 86.760031 38.37948 
L 87.12326 39.20604 
L 87.486489 41.03136 
L 87.849717 42.26628 
L 88.212946 41.73492 
L 88.519593 42.23676 
L 89.17129 44.89356 
L 89.532964 43.6242 
L 90.264727 43.53072 
L 90.630028 43.72752 
L 91.354426 44.436 
L 91.717545 44.49012 
L 92.076406 43.81608 
L 92.420469 43.7226 
L 92.806996 44.5344 
L 93.124599 44.19 
L 93.532878 44.21952 
L 94.256771 44.51472 
L 94.985159 44.3868 
L 95.349481 45.174 
L 95.682024 45.23796 
L 96.074631 44.81484 
L 96.436241 43.821 
L 96.79878 44.01288 
L 97.15773 44.66232 
L 97.529211 43.93908 
L 97.88869 44.39664 
L 98.252764 44.12112 
L 98.613958 44.33268 
L 98.977969 43.3044 
L 99.341025 43.6242 
L 99.701467 44.29824 
L 100.068223 44.53932 
L 100.43254 44.30808 
L 100.793436 43.8702 
L 101.156522 44.00304 
L 101.52118 43.97844 
L 101.883707 43.41756 
L 102.61663 43.48644 
L 103.337757 41.73984 
L 103.703756 41.7546 
L 104.426779 43.14204 
L 104.787881 43.083 
L 105.156541 43.35852 
L 105.520624 43.78164 
L 105.880489 43.21584 
L 106.270771 42.9354 
L 106.611365 43.10268 
L 107.334809 44.25396 
L 108.428191 43.74228 
L 108.794535 43.46676 
L 109.516624 43.79148 
L 110.245441 43.77672 
L 110.609607 43.2552 
L 110.970477 43.40772 
L 111.334295 42.49752 
L 111.696258 42.90588 
L 112.062829 42.8616 
L 112.420504 42.41388 
L 113.155341 42.79764 
L 113.516257 41.57256 
L 113.879209 41.86284 
L 114.24401 41.63652 
L 114.606499 41.85792 
L 114.965721 41.22324 
L 115.697875 42.1482 
L 116.059511 41.96616 
L 116.421613 41.59224 
L 117.150505 41.99076 
L 117.509399 41.91696 
L 117.878278 41.98584 
L 118.245421 41.41512 
L 118.609411 42.15312 
L 118.971648 41.96124 
L 119.335486 42.43848 
L 120.056642 42.02028 
L 120.427245 42.0252 
L 120.790348 41.40528 
L 121.515204 41.52336 
L 122.235713 42.1974 
L 122.60027 41.8776 
L 123.336914 41.8038 
L 123.695098 41.976 
L 124.060055 42.00552 
L 124.42288 42.3942 
L 124.7879 42.27612 
L 125.8819 43.31424 
L 126.242526 43.2306 
L 126.607054 43.39296 
L 126.972351 43.16172 
L 127.332797 43.24536 
L 127.691036 43.71768 
L 128.060016 43.33392 
L 129.152708 43.67832 
L 129.514777 44.32776 
L 129.878275 44.13588 
L 130.236265 44.16048 
L 130.60691 43.96368 
L 130.975512 44.2392 
L 131.335167 44.19984 
L 131.702482 45.16908 
L 132.421713 46.00548 
L 132.779359 47.57004 
L 133.515229 46.64016 
L 133.871526 46.34496 
L 134.238521 46.82712 
L 134.968536 46.51716 
L 135.329108 46.5516 
L 135.694972 46.46304 
L 136.787236 45.6414 
L 137.148724 46.09404 
L 137.520508 46.3302 
L 138.24 46.06452 
L 138.24 46.06452 
" clip-path="url(#p34f1b26314)" style="fill: none; stroke: #4a8dff; stroke-width: 0.6; stroke-linecap: round"/>
   </g>
   <g id="line2d_7">
    <path d="M 5.76 34.53696 
L 6.123229 35.40288 
L 6.486458 35.73744 
L 6.849687 33.4398 
L 7.212915 33.20856 
L 7.576144 32.58372 
L 7.939373 32.71164 
L 8.665831 32.53944 
L 9.02906 32.013 
L 9.755517 33.3906 
L 10.118746 31.80144 
L 10.481975 31.41768 
L 10.845204 32.19012 
L 11.208433 32.10156 
L 11.571661 31.60956 
L 11.93489 32.0622 
L 12.298119 31.73748 
L 12.661348 30.56652 
L 13.024577 28.31808 
L 13.387806 27.48168 
L 13.751034 27.55548 
L 14.114263 26.71908 
L 14.477492 26.36484 
L 14.840721 27.42756 
L 15.567179 26.55672 
L 15.930407 27.27504 
L 16.293636 27.31932 
L 16.656865 27.63912 
L 17.020094 27.52596 
L 17.383323 26.3058 
L 17.746552 26.96016 
L 18.10978 27.09792 
L 18.473009 27.49644 
L 18.836238 27.2898 
L 19.199467 26.57148 
L 19.562696 27.27012 
L 20.289154 27.35376 
L 21.015611 29.62188 
L 21.37884 29.96136 
L 21.742069 29.14956 
L 22.105298 28.68216 
L 22.468527 29.184 
L 22.831755 28.7412 
L 23.194984 27.5358 
L 23.558213 27.91956 
L 23.921442 28.00812 
L 24.284671 26.64528 
L 24.6479 26.88636 
L 25.011128 26.1828 
L 25.374357 24.52476 
L 25.737586 27.0684 
L 26.100815 27.59484 
L 26.827273 27.49644 
L 27.190501 28.13112 
L 27.55373 29.8482 
L 27.916959 29.12004 
L 28.280188 30.03024 
L 28.643417 27.84576 
L 29.369874 29.54316 
L 29.733103 31.13232 
L 30.096332 30.31068 
L 30.459561 30.62064 
L 30.82279 29.97612 
L 31.186019 31.97364 
L 31.549247 31.82112 
L 31.912476 32.0868 
L 32.275705 31.63416 
L 32.638934 30.6354 
L 33.002163 30.37464 
L 33.365392 30.86172 
L 33.728621 30.89616 
L 34.091849 31.11756 
L 34.818307 30.22212 
L 35.181536 30.45828 
L 35.544765 29.2578 
L 35.907994 28.50504 
L 36.271222 28.18032 
L 36.634451 28.2738 
L 36.99768 28.569 
L 37.360909 28.55424 
L 37.724138 27.8802 
L 38.087367 28.03272 
L 38.450595 27.69324 
L 38.813824 28.42632 
L 39.177053 28.3968 
L 39.540282 28.60344 
L 39.903511 29.88756 
L 40.26674 30.22212 
L 40.629968 29.58252 
L 40.993197 31.73256 
L 41.356426 31.36356 
L 41.719655 31.39308 
L 42.446113 29.09544 
L 42.809341 29.2332 
L 43.17257 27.02412 
L 43.899028 25.16928 
L 44.262257 25.10532 
L 44.988714 23.92452 
L 45.351943 25.53336 
L 45.715172 24.62808 
L 46.078401 25.4448 
L 46.44163 29.64156 
L 46.804859 30.80268 
L 47.168088 28.65756 
L 47.531316 28.6428 
L 48.257774 30.87156 
L 48.621003 32.17044 
L 48.984232 32.97732 
L 49.347461 32.628 
L 49.710689 31.90476 
L 50.073918 30.92076 
L 50.437147 31.96872 
L 50.800376 32.39676 
L 51.163605 31.19628 
L 51.890062 30.42384 
L 52.253291 29.0118 
L 52.61652 29.15448 
L 52.979749 29.76456 
L 53.342978 31.2012 
L 53.706207 32.09172 
L 54.069435 31.43244 
L 54.795893 30.90108 
L 55.522351 35.35368 
L 55.88558 34.24668 
L 56.248808 35.5062 
L 56.612037 34.48284 
L 56.975266 35.02896 
L 57.338495 33.8334 
L 57.701724 33.243 
L 58.064953 34.69932 
L 58.79141 36.2934 
L 59.154639 38.901 
L 59.517868 38.37948 
L 59.881097 38.92068 
L 60.244326 40.09164 
L 60.607555 39.70788 
L 60.970783 40.4262 
L 61.334012 42.75336 
L 61.697241 43.54548 
L 62.06047 43.72752 
L 62.786928 41.976 
L 63.150156 42.42864 
L 63.513385 40.86408 
L 63.876614 40.47048 
L 64.966301 40.89852 
L 65.329529 42.9354 
L 65.692758 40.43604 
L 66.055987 39.31428 
L 66.419216 40.04244 
L 66.782445 41.43972 
L 67.145674 41.47416 
L 67.508902 41.02152 
L 67.872131 40.7952 
L 68.23536 39.75708 
L 68.598589 40.11132 
L 68.961818 39.87024 
L 69.325047 40.94772 
L 69.688275 40.97232 
L 70.414733 42.87144 
L 70.777962 42.17772 
L 71.141191 43.04364 
L 71.50442 43.34868 
L 71.867648 42.03504 
L 72.594106 41.8038 
L 72.957335 41.84316 
L 73.320564 42.37944 
L 73.683793 42.26628 
L 74.047022 42.468 
L 74.41025 42.42864 
L 74.773479 42.18264 
L 75.136708 42.1728 
L 75.499937 42.50244 
L 75.863166 41.88252 
L 76.226395 42.32532 
L 76.952852 41.13468 
L 77.67931 40.42128 
L 78.042539 39.16176 
L 78.405768 39.28968 
L 78.768996 40.48032 
L 79.858683 40.88376 
L 80.585141 40.53936 
L 80.948369 38.50248 
L 81.311598 37.63656 
L 81.674827 38.34012 
L 82.038056 38.37456 
L 82.401285 38.5812 
L 83.127742 39.8358 
L 83.490971 41.93172 
L 83.8542 41.42004 
L 84.580658 41.39052 
L 84.943887 41.5086 
L 85.307115 42.80256 
L 85.670344 41.93664 
L 86.033573 41.49384 
L 86.396802 41.51352 
L 86.760031 43.78164 
L 87.12326 43.9932 
L 87.486489 46.66968 
L 87.849717 47.55036 
L 88.212946 46.64508 
L 88.808246 48.89352 
L 89.17129 49.84308 
L 89.532964 49.00176 
L 89.904495 49.233 
L 90.264727 48.97716 
L 90.992504 49.36092 
L 91.717545 49.58724 
L 92.076406 49.28712 
L 92.420469 49.16904 
L 92.806996 49.39044 
L 93.124599 49.29696 
L 93.895666 49.55772 
L 94.985159 49.41996 
L 95.349481 49.8234 
L 95.682024 49.86768 
L 96.074631 49.72992 
L 96.436241 49.39536 
L 97.15773 49.6758 
L 97.529211 49.47408 
L 97.88869 49.60692 
L 98.252764 49.37568 
L 98.613958 49.36584 
L 98.977969 48.6672 
L 100.068223 49.54788 
L 100.43254 49.5282 
L 100.793436 49.09032 
L 101.52118 49.2084 
L 101.883707 48.93288 
L 102.61663 48.89844 
L 103.337757 48.1998 
L 103.703756 48.28344 
L 104.067086 48.88368 
L 104.426779 49.04604 
L 104.787881 49.00176 
L 105.520624 49.38552 
L 105.880489 49.04112 
L 106.270771 48.92796 
L 106.611365 48.987 
L 107.334809 49.66104 
L 108.794535 49.40028 
L 109.152979 49.56756 
L 109.876742 49.56264 
L 110.245441 49.53312 
L 110.609607 49.25268 
L 110.970477 49.29696 
L 111.334295 48.89352 
L 111.696258 48.96732 
L 112.420504 48.5934 
L 112.79025 48.84432 
L 113.155341 48.95748 
L 113.516257 48.30804 
L 113.879209 48.34248 
L 114.24401 48.21456 
L 114.606499 48.26376 
L 114.965721 47.41752 
L 115.333747 48.05712 
L 115.697875 48.26376 
L 116.059511 48.01776 
L 116.421613 47.23548 
L 117.509399 47.1666 
L 117.878278 47.31912 
L 118.245421 46.49256 
L 118.609411 47.64876 
L 118.971648 47.5356 
L 119.335486 48.0276 
L 120.056642 46.81728 
L 120.427245 46.92552 
L 120.790348 45.85788 
L 121.515204 45.29208 
L 121.878529 45.58728 
L 122.235713 46.2564 
L 122.60027 45.7152 
L 124.060055 45.42492 
L 124.42288 46.38432 
L 124.7879 45.57744 
L 125.146492 46.51716 
L 125.8819 47.54544 
L 126.607054 47.66844 
L 126.972351 47.05344 
L 127.332797 47.22564 
L 127.691036 48.07188 
L 128.428025 47.37324 
L 129.152708 48.07188 
L 129.514777 48.59832 
L 129.878275 48.52452 
L 130.236265 48.5688 
L 130.60691 48.38676 
L 130.975512 48.55404 
L 132.064467 49.93656 
L 132.421713 49.98084 
L 132.779359 50.3646 
L 133.515229 50.07432 
L 133.871526 49.99068 
L 134.238521 50.217 
L 134.968536 49.98084 
L 135.694972 49.87752 
L 136.070275 49.69548 
L 136.787236 49.7004 
L 137.520508 50.06448 
L 138.24 49.89228 
L 138.24 49.89228 
" clip-path="url(#p34f1b26314)" style="fill: none; stroke: #f5841e; stroke-width: 0.7; stroke-linecap: round"/>
   </g>
  </g>
 </g>
 <defs>
  <clipPath id="p34f1b26314">
   <rect x="5.76" y="3.6" width="132.48" height="49.2"/>
  </clipPath>
 </defs>
</svg>
