<?xml version="1.0" encoding="utf-8" standalone="no"?>
<!DOCTYPE svg PUBLIC "-//W3C//DTD SVG 1.1//EN"
  "http://www.w3.org/Graphics/SVG/1.1/DTD/svg11.dtd">
<svg xmlns:xlink="http://www.w3.org/1999/xlink" width="144pt" height="60pt" viewBox="0 0 144 60" xmlns="http://www.w3.org/2000/svg" version="1.1">
  <desc id="nav-meta">{"window":"1w","count":4,"labels":["25.01","27.01","29.01","01.02"],"idxs":[0,22,44,66]}</desc>

 <metadata>
  <rdf:RDF xmlns:dc="http://purl.org/dc/elements/1.1/" xmlns:cc="http://creativecommons.org/ns#" xmlns:rdf="http://www.w3.org/1999/02/22-rdf-syntax-ns#">
   <cc:Work>
    <dc:type rdf:resource="http://purl.org/dc/dcmitype/StillImage"/>
    <dc:date>2026-02-01T03:08:53.154470</dc:date>
    <dc:format>image/svg+xml</dc:format>
    <dc:creator>
     <cc:Agent>
      <dc:title>Matplotlib v3.10.8, https://matplotlib.org/</dc:title>
     </cc:Agent>
    </dc:creator>
   </cc:Work>
  </rdf:RDF>
 </metadata>
 <defs>
  <style type="text/css">*{stroke-linejoin: round; stroke-linecap: butt}</style>
 </defs>
 <g id="figure_1">
  <g id="patch_1">
   <path d="M 0 60 
L 144 60 
L 144 0 
L 0 0 
L 0 60 
z
" style="fill: none; opacity: 0"/>
  </g>
  <g id="axes_1">
   <g id="patch_2">
    <path d="M 5.76 52.8 
L 138.24 52.8 
L 138.24 3.6 
L 5.76 3.6 
L 5.76 52.8 
z
" style="fill: none"/>
   </g>
   <g id="matplotlib.axis_1"/>
   <g id="matplotlib.axis_2"/>
   <g id="line2d_1">
    <path d="M 5.76 42.96 
L 138.24 42.96 
" clip-path="url(#p8c4f6775e6)" style="fill: none; stroke: #b2b2b2; stroke-opacity: 0.35; stroke-width: 0.5; stroke-linecap: square"/>
   </g>
   <g id="line2d_2">
    <path d="M 5.76 33.12 
L 138.24 33.12 
" clip-path="url(#p8c4f6775e6)" style="fill: none; stroke: #b2b2b2; stroke-opacity: 0.35; stroke-width: 0.5; stroke-linecap: square"/>
   </g>
   <g id="line2d_3">
    <path d="M 5.76 23.28 
L 138.24 23.28 
" clip-path="url(#p8c4f6775e6)" style="fill: none; stroke: #b2b2b2; stroke-opacity: 0.35; stroke-width: 0.5; stroke-linecap: square"/>
   </g>
   <g id="line2d_4">
    <path d="M 5.76 13.44 
L 138.24 13.44 
" clip-path="url(#p8c4f6775e6)" style="fill: none; stroke: #b2b2b2; stroke-opacity: 0.35; stroke-width: 0.5; stroke-linecap: square"/>
   </g>
   <g id="line2d_5">
    <path d="M 6.748657 39.62424 
L 14.569042 39.74724 
L 18.479235 39.7866 
L 19.456783 40.200433 
L 20.434332 40.679608 
L 21.41188 40.75584 
L 22.878202 40.679995 
L 24.833299 40.27368 
L 30.698588 40.197503 
L 33.631233 40.06212 
L 50.249552 40.04244 
L 52.693423 39.63408 
L 80.553547 39.74044 
L 82.508643 39.9096 
L 84.46374 39.9902 
L 86.418836 40.17528 
L 91.795351 40.147916 
L 93.750448 40.7706 
L 99.615737 40.87392 
L 103.037156 41.05104 
L 108.902445 40.958555 
L 110.368767 40.869 
L 114.27896 40.793818 
L 116.234057 40.6722 
L 117.700379 40.714213 
L 119.655475 41.04612 
L 121.610572 41.117764 
L 123.565668 41.84316 
L 125.520765 41.905849 
L 127.475861 42.77304 
L 133.34115 42.761873 
L 135.296247 42.27612 
L 137.251343 42.27612 
L 137.251343 42.27612 
" clip-path="url(#p8c4f6775e6)" style="fill: none; stroke: #bebebe; stroke-width: 0.6; stroke-linecap: round"/>
   </g>
   <g id="line2d_6">
    <path d="M 6.748657 34.43856 
L 13.591494 34.547519 
L 16.524139 34.5714 
L 17.990461 35.188501 
L 18.479235 35.411062 
L 19.456783 35.47176 
L 20.923106 35.403764 
L 22.878202 35.06832 
L 24.833299 35.008672 
L 26.788395 34.65996 
L 37.541425 34.568912 
L 39.007748 34.46808 
L 41.940392 34.574053 
L 44.384263 34.601749 
L 48.294456 34.617449 
L 50.249552 33.9072 
L 66.867872 34.015551 
L 75.177032 34.04098 
L 77.132128 33.981 
L 82.019869 33.996755 
L 83.974966 34.41888 
L 89.840255 34.42474 
L 91.795351 35.10768 
L 94.239222 35.180651 
L 96.194318 35.40288 
L 98.149415 35.461478 
L 100.104511 35.66364 
L 102.548382 35.747667 
L 104.503478 35.8506 
L 109.879993 35.889684 
L 111.83509 36.259844 
L 114.767734 36.1212 
L 115.745283 36.168631 
L 117.700379 36.50496 
L 119.655475 36.581579 
L 121.610572 37.26264 
L 123.565668 37.352416 
L 125.520765 38.40408 
L 131.386054 38.38335 
L 133.34115 37.78908 
L 137.251343 37.78908 
L 137.251343 37.78908 
" clip-path="url(#p8c4f6775e6)" style="fill: none; stroke: #4a8dff; stroke-width: 0.7; stroke-linecap: round"/>
   </g>
   <g id="line2d_7">
    <path d="M 6.748657 39.2208 
L 9.192527 39.289293 
L 11.147624 39.51108 
L 14.080268 39.413564 
L 16.035365 39.37332 
L 16.524139 39.37332 
L 17.990461 40.041003 
L 18.479235 40.281806 
L 19.456783 40.34748 
L 20.923106 40.271192 
L 22.878202 39.89484 
L 25.322073 39.792294 
L 27.277169 39.63408 
L 34.120007 39.743757 
L 35.586329 39.78168 
L 36.563877 39.744144 
L 38.518974 39.30444 
L 40.962844 39.386532 
L 42.917941 39.57504 
L 45.361811 39.67637 
L 47.316908 39.76692 
L 48.294456 39.758573 
L 50.249552 39.024 
L 62.957679 39.11947 
L 66.867872 39.15977 
L 75.177032 39.060485 
L 76.643354 38.9502 
L 78.59845 39.019854 
L 80.553547 39.15684 
L 82.019869 39.189345 
L 83.974966 39.639 
L 89.840255 39.63994 
L 91.795351 40.32288 
L 93.750448 40.32288 
L 95.705544 41.237447 
L 98.149415 41.340712 
L 100.104511 41.66112 
L 102.548382 41.753992 
L 104.503478 41.86776 
L 105.9698 41.819113 
L 107.924897 41.59716 
L 110.368767 41.513575 
L 113.301412 41.303176 
L 115.745283 41.340159 
L 117.700379 41.6808 
L 119.655475 41.759907 
L 121.610572 42.46308 
L 123.076894 42.46308 
L 123.565668 42.582653 
L 125.520765 43.98336 
L 131.386054 43.96462 
L 133.34115 43.4274 
L 137.251343 43.4274 
L 137.251343 43.4274 
" clip-path="url(#p8c4f6775e6)" style="fill: none; stroke: #f5841e; stroke-width: 0.8; stroke-linecap: round"/>
   </g>
  </g>
 </g>
 <defs>
  <clipPath id="p8c4f6775e6">
   <rect x="5.76" y="3.6" width="132.48" height="49.2"/>
  </clipPath>
 </defs>
</svg>
