<?xml version="1.0" encoding="utf-8" standalone="no"?>
<!DOCTYPE svg PUBLIC "-//W3C//DTD SVG 1.1//EN"
  "http://www.w3.org/Graphics/SVG/1.1/DTD/svg11.dtd">
<svg xmlns:xlink="http://www.w3.org/1999/xlink" width="144pt" height="60pt" viewBox="0 0 144 60" xmlns="http://www.w3.org/2000/svg" version="1.1">
  <desc id="nav-meta">{"window":"3m","count":4,"labels":["27.03","26.04","25.05","24.06"],"tick_utc":["2026-03-27T03:41:18Z","2026-04-26T04:06:31Z","2026-05-25T05:10:23Z","2026-06-24T04:50:37Z"]}</desc>

 <metadata>
  <rdf:RDF xmlns:dc="http://purl.org/dc/elements/1.1/" xmlns:cc="http://creativecommons.org/ns#" xmlns:rdf="http://www.w3.org/1999/02/22-rdf-syntax-ns#">
   <cc:Work>
    <dc:type rdf:resource="http://purl.org/dc/dcmitype/StillImage"/>
    <dc:date>2026-06-24T20:22:36.056979</dc:date>
    <dc:format>image/svg+xml</dc:format>
    <dc:creator>
     <cc:Agent>
      <dc:title>Matplotlib v3.11.0, https://matplotlib.org/</dc:title>
     </cc:Agent>
    </dc:creator>
   </cc:Work>
  </rdf:RDF>
 </metadata>
 <defs>
  <style type="text/css">*{stroke-linejoin: round; stroke-linecap: butt}</style>
 </defs>
 <g id="figure_1">
  <g id="patch_1">
   <path d="M 0 60 
L 144 60 
L 144 0 
L 0 0 
L 0 60 
z
" style="fill: none; opacity: 0"/>
  </g>
  <g id="axes_1">
   <g id="patch_2">
    <path d="M 5.76 52.8 
L 138.24 52.8 
L 138.24 3.6 
L 5.76 3.6 
L 5.76 52.8 
z
" style="fill: none"/>
   </g>
   <g id="matplotlib.axis_1"/>
   <g id="matplotlib.axis_2"/>
   <g id="line2d_1">
    <path d="M 5.76 42.96 
L 138.24 42.96 
" clip-path="url(#pf910726de4)" style="fill: none; stroke: #b2b2b2; stroke-opacity: 0.35; stroke-width: 0.5; stroke-linecap: square"/>
   </g>
   <g id="line2d_2">
    <path d="M 5.76 33.12 
L 138.24 33.12 
" clip-path="url(#pf910726de4)" style="fill: none; stroke: #b2b2b2; stroke-opacity: 0.35; stroke-width: 0.5; stroke-linecap: square"/>
   </g>
   <g id="line2d_3">
    <path d="M 5.76 23.28 
L 138.24 23.28 
" clip-path="url(#pf910726de4)" style="fill: none; stroke: #b2b2b2; stroke-opacity: 0.35; stroke-width: 0.5; stroke-linecap: square"/>
   </g>
   <g id="line2d_4">
    <path d="M 5.76 13.44 
L 138.24 13.44 
" clip-path="url(#pf910726de4)" style="fill: none; stroke: #b2b2b2; stroke-opacity: 0.35; stroke-width: 0.5; stroke-linecap: square"/>
   </g>
   <g id="line2d_5">
    <path d="M 5.76 49.37076 
L 7.233512 49.64628 
L 8.741513 49.6266 
L 10.233501 49.602 
L 11.711851 49.59708 
L 13.212345 49.59708 
L 14.680485 49.8726 
L 16.169924 49.88244 
L 17.644916 49.80864 
L 19.155053 49.78896 
L 20.646628 49.69056 
L 22.124703 49.83816 
L 23.614848 49.50852 
L 25.0974 49.68564 
L 26.598823 49.6266 
L 28.063812 49.48884 
L 29.578236 49.6512 
L 31.073599 49.69056 
L 32.551863 49.40028 
L 34.038461 49.58724 
L 35.532636 49.45932 
L 37.01734 49.27728 
L 38.488665 49.19856 
L 39.996046 49.43472 
L 41.487466 49.50852 
L 42.968675 49.46424 
L 44.451794 49.31664 
L 45.945556 49.4298 
L 47.437234 49.42488 
L 48.907215 49.37568 
L 50.418093 49.4052 
L 51.921858 49.29204 
L 53.41271 49.5528 
L 54.896381 49.50852 
L 56.386612 49.64136 
L 57.890602 49.56756 
L 59.340368 49.56264 
L 60.858305 49.57248 
L 62.345523 49.42488 
L 63.80049 49.49376 
L 65.314432 49.32156 
L 66.802563 49.25268 
L 68.265536 49.24284 
L 69.758712 48.80004 
L 71.276425 48.85416 
L 72.775904 48.72132 
L 74.242975 48.63276 
L 75.737787 48.66228 
L 77.223869 49.09524 
L 78.718939 48.99192 
L 80.187681 49.19364 
L 81.697628 49.34616 
L 83.19981 49.47408 
L 84.676886 49.47408 
L 86.169941 49.54788 
L 87.666147 49.3314 
L 89.142483 49.34616 
L 90.609779 49.51836 
L 92.121069 49.41996 
L 93.628382 49.41504 
L 95.093577 49.5282 
L 96.596585 49.5774 
L 98.079567 49.7742 
L 99.568404 49.7004 
L 101.034683 49.69548 
L 102.552792 49.61676 
L 104.062533 49.71024 
L 105.535632 49.7988 
L 107.040103 50.19732 
L 108.522741 50.45808 
L 109.985973 50.59092 
L 111.450841 50.99928 
L 112.970551 50.82216 
L 114.464864 50.74344 
L 115.924204 50.62536 
L 117.427367 50.80248 
L 118.923832 50.76312 
L 120.417404 50.65488 
L 121.894256 50.6598 
L 123.392787 50.56632 
L 124.929975 50.39412 
L 126.426199 50.23176 
L 127.866546 50.2416 
L 129.347152 50.4138 
L 130.869928 50.55156 
L 132.29817 50.42364 
L 133.816865 50.27112 
L 135.348147 50.217 
L 136.746945 50.35968 
L 138.24 50.49252 
" clip-path="url(#pf910726de4)" style="fill: none; stroke: #bebebe; stroke-width: 0.6; stroke-linecap: round"/>
   </g>
   <g id="line2d_6">
    <path d="M 5.76 43.72752 
L 7.233512 44.25396 
L 8.741513 44.10636 
L 10.233501 43.9194 
L 11.711851 43.74228 
L 13.212345 43.46676 
L 14.680485 43.65372 
L 16.169924 43.79148 
L 17.644916 43.81116 
L 19.155053 43.77672 
L 20.646628 43.2552 
L 22.124703 43.40772 
L 23.614848 42.49752 
L 25.0974 42.90588 
L 26.598823 42.8616 
L 28.063812 42.41388 
L 29.578236 42.63036 
L 31.073599 42.79764 
L 32.551863 41.57256 
L 34.038461 41.86284 
L 35.532636 41.63652 
L 37.01734 41.85792 
L 38.488665 41.22324 
L 39.996046 41.76936 
L 41.487466 42.1482 
L 42.968675 41.96616 
L 44.451794 41.59224 
L 45.945556 41.76936 
L 47.437234 41.99076 
L 48.907215 41.91696 
L 50.418093 41.98584 
L 51.921858 41.41512 
L 53.41271 42.15312 
L 54.896381 41.96124 
L 56.386612 42.43848 
L 57.890602 42.20232 
L 59.340368 42.02028 
L 60.858305 42.0252 
L 62.345523 41.40528 
L 63.80049 41.46432 
L 65.314432 41.52336 
L 66.802563 41.86776 
L 68.265536 42.1974 
L 69.758712 41.8776 
L 71.276425 41.84316 
L 72.775904 41.8038 
L 74.242975 41.976 
L 75.737787 42.00552 
L 77.223869 42.3942 
L 78.718939 42.27612 
L 80.187681 42.57624 
L 81.697628 42.85176 
L 83.19981 43.31424 
L 84.676886 43.2306 
L 86.169941 43.39296 
L 87.666147 43.16172 
L 89.142483 43.24536 
L 90.609779 43.71768 
L 92.121069 43.33392 
L 93.628382 43.42248 
L 95.093577 43.51596 
L 96.596585 43.67832 
L 98.079567 44.32776 
L 99.568404 44.13588 
L 101.034683 44.16048 
L 102.552792 43.96368 
L 104.062533 44.2392 
L 105.535632 44.19984 
L 107.040103 45.16908 
L 108.522741 45.67584 
L 109.985973 46.00548 
L 111.450841 47.57004 
L 112.970551 47.04852 
L 114.464864 46.64016 
L 115.924204 46.34496 
L 117.427367 46.82712 
L 118.923832 46.65492 
L 120.417404 46.51716 
L 121.894256 46.5516 
L 123.392787 46.46304 
L 124.929975 46.14816 
L 126.426199 45.84312 
L 127.866546 45.6414 
L 129.347152 46.09404 
L 130.869928 46.3302 
L 132.29817 46.21704 
L 133.816865 46.06452 
L 135.348147 46.035 
L 136.746945 46.14324 
L 138.24 46.52208 
" clip-path="url(#pf910726de4)" style="fill: none; stroke: #4a8dff; stroke-width: 0.6; stroke-linecap: round"/>
   </g>
   <g id="line2d_7">
    <path d="M 5.76 49.29204 
L 7.233512 49.66104 
L 8.741513 49.56756 
L 10.233501 49.53312 
L 11.711851 49.46424 
L 13.212345 49.40028 
L 14.680485 49.56756 
L 16.169924 49.59708 
L 17.644916 49.56264 
L 19.155053 49.53312 
L 20.646628 49.25268 
L 22.124703 49.29696 
L 23.614848 48.89352 
L 25.0974 48.96732 
L 26.598823 48.8148 
L 28.063812 48.5934 
L 29.578236 48.84432 
L 31.073599 48.95748 
L 32.551863 48.30804 
L 34.038461 48.34248 
L 35.532636 48.21456 
L 37.01734 48.26376 
L 38.488665 47.41752 
L 39.996046 48.05712 
L 41.487466 48.26376 
L 42.968675 48.01776 
L 44.451794 47.23548 
L 45.945556 47.17644 
L 47.437234 47.15676 
L 48.907215 47.1666 
L 50.418093 47.31912 
L 51.921858 46.49256 
L 53.41271 47.64876 
L 54.896381 47.5356 
L 56.386612 48.0276 
L 57.890602 47.50608 
L 59.340368 46.81728 
L 60.858305 46.92552 
L 62.345523 45.85788 
L 63.80049 45.60204 
L 65.314432 45.29208 
L 66.802563 45.58728 
L 68.265536 46.2564 
L 69.758712 45.7152 
L 71.276425 45.63648 
L 72.775904 45.6414 
L 74.242975 45.45936 
L 75.737787 45.42492 
L 77.223869 46.38432 
L 78.718939 45.57744 
L 80.187681 46.51716 
L 81.697628 46.95996 
L 83.19981 47.54544 
L 84.676886 47.59464 
L 86.169941 47.66844 
L 87.666147 47.05344 
L 89.142483 47.22564 
L 90.609779 48.07188 
L 92.121069 47.6832 
L 93.628382 47.37324 
L 95.093577 47.66844 
L 96.596585 48.07188 
L 98.079567 48.59832 
L 99.568404 48.52452 
L 101.034683 48.5688 
L 102.552792 48.38676 
L 104.062533 48.55404 
L 105.535632 49.0116 
L 107.040103 49.57248 
L 108.522741 49.93656 
L 109.985973 49.98084 
L 111.450841 50.3646 
L 112.970551 50.15796 
L 114.464864 50.07432 
L 115.924204 49.99068 
L 117.427367 50.217 
L 118.923832 50.07924 
L 120.417404 49.98084 
L 121.894256 49.971 
L 123.392787 49.87752 
L 124.929975 49.69548 
L 126.426199 49.65612 
L 127.866546 49.7004 
L 129.347152 49.92672 
L 130.869928 50.06448 
L 132.29817 49.971 
L 133.816865 49.89228 
L 135.348147 49.89228 
L 136.746945 49.9464 
L 138.24 50.05956 
" clip-path="url(#pf910726de4)" style="fill: none; stroke: #f5841e; stroke-width: 0.7; stroke-linecap: round"/>
   </g>
  </g>
 </g>
 <defs>
  <clipPath id="pf910726de4">
   <rect x="5.76" y="3.6" width="132.48" height="49.2"/>
  </clipPath>
 </defs>
</svg>
