<?xml version="1.0" encoding="utf-8" standalone="no"?>
<!DOCTYPE svg PUBLIC "-//W3C//DTD SVG 1.1//EN"
  "http://www.w3.org/Graphics/SVG/1.1/DTD/svg11.dtd">
<svg xmlns:xlink="http://www.w3.org/1999/xlink" width="144pt" height="60pt" viewBox="0 0 144 60" xmlns="http://www.w3.org/2000/svg" version="1.1">
  <desc id="nav-meta">{"window":"6m","count":4,"labels":["17.08","16.10","15.12","13.02"],"tick_utc":["2025-08-17T12:00:00Z","2025-10-16T12:00:00Z","2025-12-15T12:00:00Z","2026-02-13T03:33:47Z"]}</desc>

 <metadata>
  <rdf:RDF xmlns:dc="http://purl.org/dc/elements/1.1/" xmlns:cc="http://creativecommons.org/ns#" xmlns:rdf="http://www.w3.org/1999/02/22-rdf-syntax-ns#">
   <cc:Work>
    <dc:type rdf:resource="http://purl.org/dc/dcmitype/StillImage"/>
    <dc:date>2026-02-13T03:33:48.912345</dc:date>
    <dc:format>image/svg+xml</dc:format>
    <dc:creator>
     <cc:Agent>
      <dc:title>Matplotlib v3.10.8, https://matplotlib.org/</dc:title>
     </cc:Agent>
    </dc:creator>
   </cc:Work>
  </rdf:RDF>
 </metadata>
 <defs>
  <style type="text/css">*{stroke-linejoin: round; stroke-linecap: butt}</style>
 </defs>
 <g id="figure_1">
  <g id="patch_1">
   <path d="M 0 60 
L 144 60 
L 144 0 
L 0 0 
L 0 60 
z
" style="fill: none; opacity: 0"/>
  </g>
  <g id="axes_1">
   <g id="patch_2">
    <path d="M 5.76 52.8 
L 138.24 52.8 
L 138.24 3.6 
L 5.76 3.6 
L 5.76 52.8 
z
" style="fill: none"/>
   </g>
   <g id="matplotlib.axis_1"/>
   <g id="matplotlib.axis_2"/>
   <g id="line2d_1">
    <path d="M 5.76 42.96 
L 138.24 42.96 
" clip-path="url(#p937f9a5760)" style="fill: none; stroke: #b2b2b2; stroke-opacity: 0.35; stroke-width: 0.5; stroke-linecap: square"/>
   </g>
   <g id="line2d_2">
    <path d="M 5.76 33.12 
L 138.24 33.12 
" clip-path="url(#p937f9a5760)" style="fill: none; stroke: #b2b2b2; stroke-opacity: 0.35; stroke-width: 0.5; stroke-linecap: square"/>
   </g>
   <g id="line2d_3">
    <path d="M 5.76 23.28 
L 138.24 23.28 
" clip-path="url(#p937f9a5760)" style="fill: none; stroke: #b2b2b2; stroke-opacity: 0.35; stroke-width: 0.5; stroke-linecap: square"/>
   </g>
   <g id="line2d_4">
    <path d="M 5.76 13.44 
L 138.24 13.44 
" clip-path="url(#p937f9a5760)" style="fill: none; stroke: #b2b2b2; stroke-opacity: 0.35; stroke-width: 0.5; stroke-linecap: square"/>
   </g>
   <g id="line2d_5">
    <path d="M 5.76 36.90348 
L 6.49744 36.65748 
L 7.23488 37.78416 
L 7.972321 38.64516 
L 8.709761 37.2282 
L 9.447201 38.14332 
L 10.184641 35.53572 
L 10.922082 35.04372 
L 11.659522 34.80264 
L 12.396962 37.23804 
L 14.609283 33.67104 
L 15.346723 34.90596 
L 16.821603 35.45208 
L 17.559043 35.9736 
L 18.296484 34.36476 
L 19.033924 34.1778 
L 19.771364 35.22084 
L 20.508804 35.11752 
L 21.246245 35.54556 
L 22.721125 33.735 
L 23.458565 33.30204 
L 24.196005 32.44104 
L 24.933446 31.83096 
L 25.670886 30.06468 
L 26.408326 30.01056 
L 27.145766 30.291 
L 27.883207 31.16184 
L 28.620647 30.74856 
L 29.358087 29.71536 
L 30.095527 29.37588 
L 30.832967 30.57636 
L 31.570408 30.42876 
L 32.307848 30.79284 
L 33.045288 32.91828 
L 33.782728 33.72024 
L 34.520169 34.05972 
L 35.257609 36.5886 
L 35.995049 34.90104 
L 36.732489 35.10276 
L 37.469929 34.16796 
L 38.20737 33.8826 
L 38.94481 34.43364 
L 40.41969 31.05852 
L 41.15713 31.26024 
L 41.894571 31.92936 
L 42.632011 31.85064 
L 43.369451 31.3242 
L 44.106891 32.84448 
L 44.844332 31.78176 
L 45.581772 32.85924 
L 46.319212 36.8838 
L 47.056652 38.39424 
L 47.794092 35.95392 
L 48.531533 34.53696 
L 49.268973 35.20608 
L 50.743853 37.57752 
L 51.481294 37.90716 
L 52.218734 37.18884 
L 52.956174 37.18392 
L 53.693614 36.89364 
L 54.431054 37.42008 
L 55.168495 38.17284 
L 55.905935 36.687 
L 56.643375 36.42132 
L 57.380815 36.34752 
L 58.118255 35.56032 
L 58.855696 35.72268 
L 59.593136 36.29832 
L 60.330576 36.32292 
L 61.068016 37.61688 
L 61.805457 37.2282 
L 62.542897 37.34628 
L 63.280337 37.23804 
L 64.017777 40.008 
L 64.755217 41.36592 
L 65.492658 40.43604 
L 66.230098 41.44956 
L 66.967538 40.53444 
L 67.704978 41.02152 
L 68.442419 40.22448 
L 69.179859 39.79644 
L 69.917299 41.51844 
L 70.654739 41.66604 
L 71.392179 42.714 
L 72.12962 43.51596 
L 72.86706 43.43724 
L 73.6045 43.71276 
L 74.34194 44.59836 
L 75.079381 43.30932 
L 75.816821 43.85052 
L 76.554261 44.21952 
L 77.291701 44.88372 
L 78.029141 44.99688 
L 78.766582 44.57868 
L 79.504022 43.5996 
L 80.241462 43.51596 
L 80.978902 43.00428 
L 81.716342 43.2798 
L 82.453783 43.71768 
L 83.928663 44.0916 
L 84.666103 45.11004 
L 85.403544 43.55532 
L 86.140984 42.72876 
L 87.615864 44.27364 
L 89.090745 44.47536 
L 89.828185 44.25888 
L 90.565625 43.64388 
L 91.303065 43.84068 
L 92.040506 43.85052 
L 92.777946 44.36712 
L 93.515386 44.26872 
L 94.252826 44.74104 
L 94.990266 44.98704 
L 95.727707 44.84436 
L 96.465147 45.58728 
L 97.202587 46.0596 
L 97.940027 45.18384 
L 100.889788 45.47904 
L 101.627228 45.65616 
L 102.364669 45.98088 
L 103.839549 45.38556 
L 104.576989 45.31668 
L 105.314429 45.58728 
L 106.05187 45.35604 
L 106.78931 45.40032 
L 107.52675 45.11496 
L 108.26419 44.42124 
L 109.739071 44.18508 
L 110.476511 43.62912 
L 111.213951 43.24044 
L 111.951391 43.8702 
L 112.688832 43.60944 
L 113.426272 43.92924 
L 114.163712 43.93416 
L 114.901152 43.46184 
L 115.638592 43.5012 
L 116.376033 42.72384 
L 117.113473 42.51228 
L 117.850913 43.08792 
L 118.588353 42.75828 
L 119.325794 42.90096 
L 120.800674 44.2392 
L 121.538114 45.23304 
L 122.275554 44.77548 
L 123.750435 45.04608 
L 124.487875 45.07068 
L 125.225315 46.1334 
L 125.962756 45.4446 
L 126.700196 45.06084 
L 127.437636 45.33144 
L 128.175076 46.30068 
L 128.912516 46.34496 
L 129.649957 47.89476 
L 130.387397 48.26376 
L 131.124837 47.96364 
L 132.333437 49.06572 
L 133.070501 50.04972 
L 133.804784 49.24776 
L 136.767996 49.59708 
L 137.502782 49.80372 
L 138.24 49.86768 
L 138.24 49.86768 
" clip-path="url(#p937f9a5760)" style="fill: none; stroke: #bebebe; stroke-width: 0.6; stroke-linecap: round"/>
   </g>
   <g id="line2d_6">
    <path d="M 5.76 27.00936 
L 6.49744 26.58132 
L 7.23488 27.7818 
L 7.972321 29.49888 
L 8.709761 27.68832 
L 9.447201 28.44108 
L 10.184641 24.16068 
L 10.922082 24.55428 
L 11.659522 24.51984 
L 12.396962 27.32916 
L 13.134402 25.7646 
L 13.871842 26.48784 
L 14.609283 26.43372 
L 15.346723 27.44724 
L 16.821603 27.27504 
L 17.559043 27.8802 
L 18.296484 27.72276 
L 19.033924 26.84208 
L 19.771364 27.91956 
L 20.508804 27.8556 
L 21.246245 28.09668 
L 21.983685 27.87528 
L 23.458565 27.83592 
L 24.196005 27.57024 
L 24.933446 26.77812 
L 25.670886 25.01184 
L 27.145766 25.71048 
L 27.883207 26.31564 
L 28.620647 26.45832 
L 29.358087 25.8384 
L 30.095527 25.84824 
L 30.832967 26.6994 
L 31.570408 26.62068 
L 32.307848 26.8224 
L 33.045288 28.61328 
L 34.520169 28.97244 
L 35.257609 30.99456 
L 35.995049 29.76456 
L 36.732489 29.8974 
L 37.469929 29.02164 
L 38.20737 28.50012 
L 38.94481 29.00688 
L 39.68225 27.59484 
L 40.41969 26.601 
L 41.15713 26.3796 
L 41.894571 26.5764 
L 42.632011 26.3796 
L 43.369451 25.1496 
L 44.106891 26.81256 
L 44.844332 26.29596 
L 45.581772 27.41772 
L 46.319212 31.19136 
L 47.056652 31.80144 
L 47.794092 28.89864 
L 48.531533 28.28364 
L 49.268973 29.11512 
L 50.006413 30.1434 
L 50.743853 30.80268 
L 51.481294 31.22088 
L 52.218734 30.8076 
L 52.956174 30.13356 
L 53.693614 30.17784 
L 54.431054 30.89124 
L 55.168495 31.42752 
L 55.905935 31.04376 
L 56.643375 30.49764 
L 57.380815 30.3648 
L 58.118255 28.88388 
L 58.855696 29.15448 
L 59.593136 30.15324 
L 61.068016 31.4226 
L 61.805457 31.10772 
L 63.280337 30.66 
L 64.755217 34.99944 
L 65.492658 34.07448 
L 66.230098 34.9158 
L 66.967538 34.02528 
L 67.704978 34.26144 
L 68.442419 33.0216 
L 69.179859 33.10524 
L 69.917299 34.1532 
L 70.654739 34.2024 
L 71.392179 35.4324 
L 72.12962 36.34752 
L 72.86706 35.89488 
L 74.34194 36.94776 
L 75.079381 36.2688 
L 75.816821 36.97236 
L 76.554261 38.286 
L 77.291701 38.76324 
L 78.029141 38.73864 
L 78.766582 38.51724 
L 79.504022 37.42992 
L 80.241462 37.42008 
L 80.978902 36.90348 
L 81.716342 36.98712 
L 82.453783 36.86412 
L 83.191223 37.16424 
L 83.928663 37.14948 
L 84.666103 38.52216 
L 86.140984 35.71776 
L 86.878424 36.15564 
L 87.615864 36.93792 
L 89.090745 36.72636 
L 89.828185 36.21468 
L 90.565625 34.8174 
L 91.303065 34.7928 
L 92.040506 35.42748 
L 92.777946 36.49512 
L 93.515386 36.28356 
L 94.252826 36.6378 
L 94.990266 37.3512 
L 95.727707 37.3512 
L 96.465147 38.31552 
L 97.202587 38.32536 
L 97.940027 37.26264 
L 98.677467 37.26264 
L 99.414908 37.09044 
L 100.152348 37.06092 
L 100.889788 37.34628 
L 101.627228 37.48404 
L 102.364669 37.77924 
L 103.839549 37.45944 
L 105.314429 37.56276 
L 106.05187 37.31184 
L 106.78931 37.33644 
L 107.52675 37.09536 
L 108.26419 36.23928 
L 109.739071 36.11628 
L 110.476511 35.48652 
L 111.213951 35.0142 
L 111.951391 35.93424 
L 112.688832 36.36228 
L 113.426272 36.50988 
L 114.163712 36.5148 
L 114.901152 36.25404 
L 115.638592 36.46068 
L 116.376033 34.83708 
L 117.113473 34.57632 
L 118.588353 35.00436 
L 119.325794 34.93056 
L 120.063234 35.088 
L 120.800674 35.78664 
L 121.538114 37.55292 
L 122.275554 37.26756 
L 123.012995 37.46436 
L 124.487875 37.45944 
L 125.225315 38.41392 
L 126.700196 36.95268 
L 127.437636 37.05108 
L 128.175076 38.37948 
L 128.912516 39.20604 
L 129.649957 41.03136 
L 130.387397 42.26628 
L 131.124837 41.73492 
L 131.747402 42.23676 
L 133.070501 44.89356 
L 133.804784 43.6242 
L 135.290435 43.53072 
L 136.032084 43.72752 
L 137.502782 44.436 
L 138.24 44.49012 
L 138.24 44.49012 
" clip-path="url(#p937f9a5760)" style="fill: none; stroke: #4a8dff; stroke-width: 0.6; stroke-linecap: round"/>
   </g>
   <g id="line2d_7">
    <path d="M 5.76 27.51612 
L 6.49744 27.49644 
L 7.23488 28.13112 
L 7.972321 29.8482 
L 8.709761 29.12004 
L 9.447201 30.03024 
L 10.184641 27.84576 
L 10.922082 28.57392 
L 11.659522 29.54316 
L 12.396962 31.13232 
L 13.134402 30.31068 
L 13.871842 30.62064 
L 14.609283 29.97612 
L 15.346723 31.97364 
L 16.084163 31.82112 
L 16.821603 32.0868 
L 17.559043 31.63416 
L 18.296484 30.6354 
L 19.033924 30.37464 
L 19.771364 30.86172 
L 20.508804 30.89616 
L 21.246245 31.11756 
L 22.721125 30.22212 
L 23.458565 30.45828 
L 24.196005 29.2578 
L 24.933446 28.50504 
L 25.670886 28.18032 
L 26.408326 28.2738 
L 27.145766 28.569 
L 27.883207 28.55424 
L 28.620647 27.8802 
L 29.358087 28.03272 
L 30.095527 27.69324 
L 30.832967 28.42632 
L 31.570408 28.3968 
L 32.307848 28.60344 
L 33.045288 29.88756 
L 33.782728 30.22212 
L 34.520169 29.58252 
L 35.257609 31.73256 
L 35.995049 31.36356 
L 36.732489 31.39308 
L 38.20737 29.09544 
L 38.94481 29.2332 
L 39.68225 27.02412 
L 40.41969 25.98108 
L 41.15713 25.16928 
L 41.894571 25.10532 
L 43.369451 23.92452 
L 44.106891 25.53336 
L 44.844332 24.62808 
L 45.581772 25.4448 
L 46.319212 29.64156 
L 47.056652 30.80268 
L 47.794092 28.65756 
L 48.531533 28.6428 
L 49.268973 29.66124 
L 50.743853 32.17044 
L 51.481294 32.97732 
L 52.218734 32.628 
L 52.956174 31.90476 
L 53.693614 30.92076 
L 54.431054 31.96872 
L 55.168495 32.39676 
L 55.905935 31.19628 
L 56.643375 30.72888 
L 57.380815 30.42384 
L 58.118255 29.0118 
L 58.855696 29.15448 
L 59.593136 29.76456 
L 60.330576 31.2012 
L 61.068016 32.09172 
L 61.805457 31.43244 
L 63.280337 30.90108 
L 64.017777 32.93796 
L 64.755217 35.35368 
L 65.492658 34.24668 
L 66.230098 35.5062 
L 66.967538 34.48284 
L 67.704978 35.02896 
L 68.442419 33.8334 
L 69.179859 33.243 
L 69.917299 34.69932 
L 70.654739 35.4078 
L 71.392179 36.2934 
L 72.12962 38.901 
L 72.86706 38.37948 
L 73.6045 38.92068 
L 74.34194 40.09164 
L 75.079381 39.70788 
L 75.816821 40.4262 
L 76.554261 42.75336 
L 77.291701 43.54548 
L 78.029141 43.72752 
L 78.766582 42.6894 
L 79.504022 41.976 
L 80.241462 42.42864 
L 80.978902 40.86408 
L 81.716342 40.47048 
L 83.928663 40.89852 
L 84.666103 42.9354 
L 85.403544 40.43604 
L 86.140984 39.31428 
L 86.878424 40.04244 
L 87.615864 41.43972 
L 88.353304 41.47416 
L 89.090745 41.02152 
L 89.828185 40.7952 
L 90.565625 39.75708 
L 91.303065 40.11132 
L 92.040506 39.87024 
L 92.777946 40.94772 
L 93.515386 40.97232 
L 94.990266 42.87144 
L 95.727707 42.17772 
L 96.465147 43.04364 
L 97.202587 43.34868 
L 97.940027 42.03504 
L 99.414908 41.8038 
L 100.152348 41.84316 
L 100.889788 42.37944 
L 101.627228 42.26628 
L 102.364669 42.468 
L 103.102109 42.42864 
L 103.839549 42.18264 
L 104.576989 42.1728 
L 105.314429 42.50244 
L 106.05187 41.88252 
L 106.78931 42.32532 
L 108.26419 41.13468 
L 109.739071 40.42128 
L 110.476511 39.16176 
L 111.213951 39.28968 
L 111.951391 40.48032 
L 114.163712 40.88376 
L 115.638592 40.53936 
L 116.376033 38.50248 
L 117.113473 37.63656 
L 117.850913 38.34012 
L 118.588353 38.37456 
L 119.325794 38.5812 
L 120.800674 39.8358 
L 121.538114 41.93172 
L 122.275554 41.42004 
L 123.750435 41.39052 
L 124.487875 41.5086 
L 125.225315 42.80256 
L 125.962756 41.93664 
L 126.700196 41.49384 
L 127.437636 41.51352 
L 128.175076 43.78164 
L 128.912516 43.9932 
L 129.649957 46.66968 
L 130.387397 47.55036 
L 131.124837 46.64508 
L 132.333437 48.89352 
L 133.070501 49.84308 
L 133.804784 49.00176 
L 134.559081 49.233 
L 135.290435 48.97716 
L 136.767996 49.36092 
L 138.24 49.58724 
L 138.24 49.58724 
" clip-path="url(#p937f9a5760)" style="fill: none; stroke: #f5841e; stroke-width: 0.7; stroke-linecap: round"/>
   </g>
  </g>
 </g>
 <defs>
  <clipPath id="p937f9a5760">
   <rect x="5.76" y="3.6" width="132.48" height="49.2"/>
  </clipPath>
 </defs>
</svg>
