<?xml version="1.0" encoding="utf-8" standalone="no"?>
<!DOCTYPE svg PUBLIC "-//W3C//DTD SVG 1.1//EN"
  "http://www.w3.org/Graphics/SVG/1.1/DTD/svg11.dtd">
<svg xmlns:xlink="http://www.w3.org/1999/xlink" width="144pt" height="60pt" viewBox="0 0 144 60" xmlns="http://www.w3.org/2000/svg" version="1.1">
  <desc id="nav-meta">{"window":"1w","count":4,"labels":["27.01","30.01","01.02","03.02"],"idxs":[0,31,61,92]}</desc>

 <metadata>
  <rdf:RDF xmlns:dc="http://purl.org/dc/elements/1.1/" xmlns:cc="http://creativecommons.org/ns#" xmlns:rdf="http://www.w3.org/1999/02/22-rdf-syntax-ns#">
   <cc:Work>
    <dc:type rdf:resource="http://purl.org/dc/dcmitype/StillImage"/>
    <dc:date>2026-02-03T01:03:52.026476</dc:date>
    <dc:format>image/svg+xml</dc:format>
    <dc:creator>
     <cc:Agent>
      <dc:title>Matplotlib v3.10.8, https://matplotlib.org/</dc:title>
     </cc:Agent>
    </dc:creator>
   </cc:Work>
  </rdf:RDF>
 </metadata>
 <defs>
  <style type="text/css">*{stroke-linejoin: round; stroke-linecap: butt}</style>
 </defs>
 <g id="figure_1">
  <g id="patch_1">
   <path d="M 0 60 
L 144 60 
L 144 0 
L 0 0 
L 0 60 
z
" style="fill: none; opacity: 0"/>
  </g>
  <g id="axes_1">
   <g id="patch_2">
    <path d="M 5.76 52.8 
L 138.24 52.8 
L 138.24 3.6 
L 5.76 3.6 
L 5.76 52.8 
z
" style="fill: none"/>
   </g>
   <g id="matplotlib.axis_1"/>
   <g id="matplotlib.axis_2"/>
   <g id="line2d_1">
    <path d="M 5.76 42.96 
L 138.24 42.96 
" clip-path="url(#p7398fd1360)" style="fill: none; stroke: #b2b2b2; stroke-opacity: 0.35; stroke-width: 0.5; stroke-linecap: square"/>
   </g>
   <g id="line2d_2">
    <path d="M 5.76 33.12 
L 138.24 33.12 
" clip-path="url(#p7398fd1360)" style="fill: none; stroke: #b2b2b2; stroke-opacity: 0.35; stroke-width: 0.5; stroke-linecap: square"/>
   </g>
   <g id="line2d_3">
    <path d="M 5.76 23.28 
L 138.24 23.28 
" clip-path="url(#p7398fd1360)" style="fill: none; stroke: #b2b2b2; stroke-opacity: 0.35; stroke-width: 0.5; stroke-linecap: square"/>
   </g>
   <g id="line2d_4">
    <path d="M 5.76 13.44 
L 138.24 13.44 
" clip-path="url(#p7398fd1360)" style="fill: none; stroke: #b2b2b2; stroke-opacity: 0.35; stroke-width: 0.5; stroke-linecap: square"/>
   </g>
   <g id="line2d_5">
    <path d="M 6.472258 40.09164 
L 8.945003 39.96372 
L 15.656739 39.859724 
L 16.716487 39.63408 
L 36.851696 39.740516 
L 38.264694 39.9096 
L 39.677691 39.991954 
L 41.090688 40.17528 
L 44.97643 40.159512 
L 46.389427 40.7706 
L 50.628418 40.87392 
L 52.747914 41.05104 
L 57.340155 40.946341 
L 58.046653 40.869 
L 61.225897 40.783066 
L 62.638894 40.6722 
L 63.698642 40.736704 
L 65.111639 41.04612 
L 66.171387 41.04612 
L 66.877885 41.368373 
L 67.937633 41.84316 
L 68.997381 41.84316 
L 69.70388 42.204084 
L 70.763628 42.77304 
L 75.002619 42.719464 
L 76.415616 42.27612 
L 99.02357 42.33024 
L 101.143066 42.60084 
L 115.979536 42.69432 
L 116.332785 43.375826 
L 117.392533 47.555731 
L 117.745782 48.31296 
L 125.870516 48.2048 
L 130.109507 48.19488 
L 132.582252 48.096109 
L 133.995249 48.00792 
L 137.527742 48.00792 
L 137.527742 48.00792 
" clip-path="url(#p7398fd1360)" style="fill: none; stroke: #bebebe; stroke-width: 0.6; stroke-linecap: round"/>
   </g>
   <g id="line2d_6">
    <path d="M 6.472258 34.46808 
L 8.945003 34.56583 
L 10.358 34.60092 
L 13.537244 34.62552 
L 15.30349 33.9072 
L 26.960716 34.015016 
L 32.965954 34.042255 
L 34.378951 33.981 
L 37.911444 33.997961 
L 39.324441 34.41888 
L 43.563433 34.435404 
L 44.97643 35.10768 
L 46.742676 35.187249 
L 48.155673 35.40288 
L 49.568671 35.468949 
L 50.981668 35.66364 
L 52.747914 35.754348 
L 54.160911 35.8506 
L 58.046653 35.911908 
L 59.106401 36.259623 
L 62.638894 36.285669 
L 63.698642 36.50496 
L 64.75839 36.50496 
L 65.464888 36.817426 
L 66.524636 37.26264 
L 67.584384 37.26264 
L 68.290883 37.714909 
L 68.997381 38.281014 
L 69.35063 38.40408 
L 73.589622 38.3328 
L 75.002619 37.78908 
L 80.654607 37.839394 
L 82.420854 38.09412 
L 97.610573 38.15808 
L 99.730069 38.37456 
L 102.202814 38.464075 
L 103.615811 38.81736 
L 108.208051 38.714584 
L 109.621049 38.57136 
L 113.506791 38.615998 
L 114.566539 38.857569 
L 114.919788 39.307291 
L 115.979536 41.671756 
L 116.332785 42.0744 
L 118.099031 42.163252 
L 119.512029 42.3204 
L 130.816006 42.237927 
L 131.875753 41.8038 
L 137.174493 41.707601 
L 137.527742 41.67588 
L 137.527742 41.67588 
" clip-path="url(#p7398fd1360)" style="fill: none; stroke: #4a8dff; stroke-width: 0.7; stroke-linecap: round"/>
   </g>
   <g id="line2d_7">
    <path d="M 6.472258 39.30444 
L 8.238504 39.369355 
L 9.651502 39.57504 
L 11.417748 39.665549 
L 12.830745 39.76692 
L 13.537244 39.76692 
L 15.30349 39.024 
L 24.134722 39.1174 
L 26.960716 39.159877 
L 32.965954 39.06283 
L 34.025702 38.9502 
L 35.438699 39.019266 
L 36.851696 39.15684 
L 37.911444 39.19063 
L 39.324441 39.639 
L 43.563433 39.650604 
L 44.97643 40.32288 
L 46.389427 40.342825 
L 47.802424 41.24784 
L 49.568671 41.352552 
L 50.981668 41.66112 
L 52.747914 41.761377 
L 54.160911 41.86776 
L 55.220659 41.807951 
L 56.633656 41.59716 
L 58.399903 41.503587 
L 60.519398 41.297955 
L 62.285645 41.362313 
L 63.698642 41.6808 
L 64.75839 41.6808 
L 65.464888 42.003411 
L 66.524636 42.46308 
L 67.584384 42.46308 
L 67.937633 42.688458 
L 68.997381 43.819448 
L 69.35063 43.98336 
L 73.589622 43.918923 
L 75.002619 43.4274 
L 81.361106 43.49628 
L 82.774103 43.57008 
L 98.317072 43.641679 
L 99.730069 43.73736 
L 102.202814 43.791069 
L 103.615811 44.00304 
L 113.153541 43.99812 
L 113.506791 44.516192 
L 114.566539 47.319876 
L 114.919788 47.760475 
L 118.099031 47.756735 
L 120.218527 47.82588 
L 123.75102 47.75631 
L 125.164017 47.61432 
L 130.462756 47.592836 
L 131.875753 47.08296 
L 136.114745 47.078544 
L 137.527742 46.53684 
L 137.527742 46.53684 
" clip-path="url(#p7398fd1360)" style="fill: none; stroke: #f5841e; stroke-width: 0.8; stroke-linecap: round"/>
   </g>
  </g>
 </g>
 <defs>
  <clipPath id="p7398fd1360">
   <rect x="5.76" y="3.6" width="132.48" height="49.2"/>
  </clipPath>
 </defs>
</svg>
