<?xml version="1.0" encoding="utf-8" standalone="no"?>
<!DOCTYPE svg PUBLIC "-//W3C//DTD SVG 1.1//EN"
  "http://www.w3.org/Graphics/SVG/1.1/DTD/svg11.dtd">
<svg xmlns:xlink="http://www.w3.org/1999/xlink" width="144pt" height="60pt" viewBox="0 0 144 60" xmlns="http://www.w3.org/2000/svg" version="1.1">
  <desc id="nav-meta">{"window":"6m","count":4,"labels":["08.01","09.03","08.05","07.07"],"tick_utc":["2026-01-08T12:00:00Z","2026-03-09T03:23:53Z","2026-05-08T04:01:19Z","2026-07-07T04:37:20Z"]}</desc>

 <metadata>
  <rdf:RDF xmlns:dc="http://purl.org/dc/elements/1.1/" xmlns:cc="http://creativecommons.org/ns#" xmlns:rdf="http://www.w3.org/1999/02/22-rdf-syntax-ns#">
   <cc:Work>
    <dc:type rdf:resource="http://purl.org/dc/dcmitype/StillImage"/>
    <dc:date>2026-07-07T04:37:22.009919</dc:date>
    <dc:format>image/svg+xml</dc:format>
    <dc:creator>
     <cc:Agent>
      <dc:title>Matplotlib v3.11.0, https://matplotlib.org/</dc:title>
     </cc:Agent>
    </dc:creator>
   </cc:Work>
  </rdf:RDF>
 </metadata>
 <defs>
  <style type="text/css">*{stroke-linejoin: round; stroke-linecap: butt}</style>
 </defs>
 <g id="figure_1">
  <g id="patch_1">
   <path d="M 0 60 
L 144 60 
L 144 0 
L 0 0 
L 0 60 
z
" style="fill: none; opacity: 0"/>
  </g>
  <g id="axes_1">
   <g id="patch_2">
    <path d="M 5.76 52.8 
L 138.24 52.8 
L 138.24 3.6 
L 5.76 3.6 
L 5.76 52.8 
z
" style="fill: none"/>
   </g>
   <g id="matplotlib.axis_1"/>
   <g id="matplotlib.axis_2"/>
   <g id="line2d_1">
    <path d="M 5.76 42.96 
L 138.24 42.96 
" clip-path="url(#pd99f509b11)" style="fill: none; stroke: #b2b2b2; stroke-opacity: 0.35; stroke-width: 0.5; stroke-linecap: square"/>
   </g>
   <g id="line2d_2">
    <path d="M 5.76 33.12 
L 138.24 33.12 
" clip-path="url(#pd99f509b11)" style="fill: none; stroke: #b2b2b2; stroke-opacity: 0.35; stroke-width: 0.5; stroke-linecap: square"/>
   </g>
   <g id="line2d_3">
    <path d="M 5.76 23.28 
L 138.24 23.28 
" clip-path="url(#pd99f509b11)" style="fill: none; stroke: #b2b2b2; stroke-opacity: 0.35; stroke-width: 0.5; stroke-linecap: square"/>
   </g>
   <g id="line2d_4">
    <path d="M 5.76 13.44 
L 138.24 13.44 
" clip-path="url(#pd99f509b11)" style="fill: none; stroke: #b2b2b2; stroke-opacity: 0.35; stroke-width: 0.5; stroke-linecap: square"/>
   </g>
   <g id="line2d_5">
    <path d="M 5.76 43.8702 
L 6.497259 43.60944 
L 7.234518 43.92924 
L 7.971777 43.93416 
L 8.709036 43.46184 
L 9.446296 43.5012 
L 10.183555 42.72384 
L 10.920814 42.51228 
L 11.658073 43.08792 
L 12.395332 42.75828 
L 13.132591 42.90096 
L 14.607109 44.2392 
L 15.344368 45.23304 
L 16.081627 44.77548 
L 17.556146 45.04608 
L 18.293405 45.07068 
L 19.030664 46.1334 
L 19.767923 45.4446 
L 20.505182 45.06084 
L 21.242441 45.33144 
L 21.9797 46.30068 
L 22.716959 46.34496 
L 23.454219 47.89476 
L 24.191478 48.26376 
L 24.928737 47.96364 
L 26.13704 49.06572 
L 26.873923 50.04972 
L 27.608025 49.24776 
L 30.57051 49.59708 
L 31.305115 49.80372 
L 32.042152 49.86768 
L 32.770545 49.479 
L 33.468902 49.24776 
L 34.253452 49.48392 
L 34.898101 49.37568 
L 35.726801 49.479 
L 36.463164 49.7004 
L 38.674549 49.49376 
L 39.414026 49.98576 
L 40.089003 49.96608 
L 40.885891 49.7004 
L 41.619865 49.27236 
L 42.355724 49.37076 
L 43.084297 49.68072 
L 43.838306 49.25268 
L 44.567954 49.51344 
L 46.778904 49.09032 
L 48.991833 49.64628 
L 49.731302 49.58724 
L 50.463825 49.36092 
L 51.940955 49.45932 
L 52.676789 49.16904 
L 54.164431 49.27236 
L 54.903772 48.87384 
L 56.371011 48.70164 
L 57.108475 49.03128 
L 57.838558 49.1592 
L 58.5715 49.08048 
L 60.058775 49.36584 
L 61.581377 48.90828 
L 62.272694 49.05096 
L 63.741094 49.64628 
L 66.703954 49.59708 
L 67.431502 49.8726 
L 68.900551 49.80864 
L 71.120545 49.83816 
L 71.858999 49.50852 
L 72.59369 49.68564 
L 74.06372 49.48884 
L 74.814205 49.6512 
L 75.555244 49.69056 
L 76.28781 49.40028 
L 77.024506 49.58724 
L 79.229841 49.19856 
L 79.976836 49.43472 
L 80.715922 49.50852 
L 84.392839 49.37568 
L 85.141567 49.4052 
L 85.88677 49.29204 
L 86.625574 49.5528 
L 87.360819 49.50852 
L 88.099315 49.64136 
L 89.563073 49.56264 
L 90.3153 49.57248 
L 91.052303 49.42488 
L 91.773323 49.49376 
L 93.261025 49.25268 
L 93.986014 49.24284 
L 94.725969 48.80004 
L 95.478084 48.85416 
L 96.948183 48.63276 
L 97.688949 48.66228 
L 98.425389 49.09524 
L 99.166283 48.99192 
L 100.642397 49.34616 
L 101.386815 49.47408 
L 102.858688 49.54788 
L 103.600145 49.3314 
L 104.331756 49.34616 
L 105.058886 49.51836 
L 106.55478 49.41504 
L 108.760601 49.7742 
L 110.977344 49.61676 
L 112.455515 49.7988 
L 113.201068 50.19732 
L 113.935801 50.45808 
L 114.660918 50.59092 
L 115.386845 50.99928 
L 116.880469 50.74344 
L 117.603657 50.62536 
L 118.348562 50.80248 
L 121.304774 50.56632 
L 122.808006 50.23176 
L 123.521782 50.2416 
L 125.010133 50.55156 
L 127.229351 50.217 
L 129.399495 50.59092 
L 130.140535 50.59092 
L 130.868757 50.33016 
L 131.62007 50.4384 
L 132.362663 50.3892 
L 136.021345 49.6266 
L 136.769398 49.7742 
L 138.24 49.76436 
L 138.24 49.76436 
" clip-path="url(#pd99f509b11)" style="fill: none; stroke: #bebebe; stroke-width: 0.6; stroke-linecap: round"/>
   </g>
   <g id="line2d_6">
    <path d="M 5.76 35.93424 
L 6.497259 36.36228 
L 7.234518 36.50988 
L 7.971777 36.5148 
L 8.709036 36.25404 
L 9.446296 36.46068 
L 10.183555 34.83708 
L 10.920814 34.57632 
L 12.395332 35.00436 
L 13.132591 34.93056 
L 13.86985 35.088 
L 14.607109 35.78664 
L 15.344368 37.55292 
L 16.081627 37.26756 
L 16.818887 37.46436 
L 18.293405 37.45944 
L 19.030664 38.41392 
L 20.505182 36.95268 
L 21.242441 37.05108 
L 21.9797 38.37948 
L 22.716959 39.20604 
L 23.454219 41.03136 
L 24.191478 42.26628 
L 24.928737 41.73492 
L 25.551149 42.23676 
L 26.873923 44.89356 
L 27.608025 43.6242 
L 29.093312 43.53072 
L 29.834778 43.72752 
L 31.305115 44.436 
L 32.042152 44.49012 
L 32.770545 43.81608 
L 33.468902 43.7226 
L 34.253452 44.5344 
L 34.898101 44.19 
L 35.726801 44.21952 
L 37.196114 44.51472 
L 38.674549 44.3868 
L 39.414026 45.174 
L 40.089003 45.23796 
L 40.885891 44.81484 
L 41.619865 43.821 
L 42.355724 44.01288 
L 43.084297 44.66232 
L 43.838306 43.93908 
L 44.567954 44.39664 
L 45.306928 44.12112 
L 46.040057 44.33268 
L 46.778904 43.3044 
L 47.515813 43.6242 
L 48.247415 44.29824 
L 48.991833 44.53932 
L 49.731302 44.30808 
L 50.463825 43.8702 
L 51.200794 44.00304 
L 51.940955 43.97844 
L 52.676789 43.41756 
L 54.164431 43.48644 
L 54.903772 42.49752 
L 55.628129 41.73984 
L 56.371011 41.7546 
L 57.108475 42.591 
L 57.838558 43.14204 
L 58.5715 43.083 
L 59.319783 43.35852 
L 60.058775 43.78164 
L 60.789207 43.21584 
L 61.581377 42.9354 
L 62.272694 43.10268 
L 63.741094 44.25396 
L 65.960372 43.74228 
L 66.703954 43.46676 
L 68.169606 43.79148 
L 69.648911 43.77672 
L 70.388073 43.2552 
L 71.120545 43.40772 
L 71.858999 42.49752 
L 72.59369 42.90588 
L 73.337733 42.8616 
L 74.06372 42.41388 
L 75.555244 42.79764 
L 76.28781 41.57256 
L 77.024506 41.86284 
L 77.764957 41.63652 
L 78.500714 41.85792 
L 79.229841 41.22324 
L 79.976836 41.76936 
L 80.715922 42.1482 
L 81.449947 41.96616 
L 82.184919 41.59224 
L 83.664378 41.99076 
L 84.392839 41.91696 
L 85.141567 41.98584 
L 85.88677 41.41512 
L 86.625574 42.15312 
L 87.360819 41.96124 
L 88.099315 42.43848 
L 89.563073 42.02028 
L 90.3153 42.0252 
L 91.052303 41.40528 
L 92.52357 41.52336 
L 93.986014 42.1974 
L 94.725969 41.8776 
L 96.221163 41.8038 
L 96.948183 41.976 
L 97.688949 42.00552 
L 98.425389 42.3942 
L 99.166283 42.27612 
L 100.642397 42.85176 
L 101.386815 43.31424 
L 102.118792 43.2306 
L 102.858688 43.39296 
L 103.600145 43.16172 
L 104.331756 43.24536 
L 105.058886 43.71768 
L 105.807818 43.33392 
L 108.025697 43.67832 
L 108.760601 44.32776 
L 109.498406 44.13588 
L 110.225033 44.16048 
L 110.977344 43.96368 
L 111.725509 44.2392 
L 112.455515 44.19984 
L 113.201068 45.16908 
L 113.935801 45.67584 
L 114.660918 46.00548 
L 115.386845 47.57004 
L 116.880469 46.64016 
L 117.603657 46.34496 
L 118.348562 46.82712 
L 119.830299 46.51716 
L 120.562165 46.5516 
L 121.304774 46.46304 
L 123.521782 45.6414 
L 124.255509 46.09404 
L 125.010133 46.3302 
L 127.229351 46.035 
L 127.922537 46.14324 
L 130.140535 47.38308 
L 130.868757 47.14692 
L 132.362663 47.22072 
L 134.558022 46.79268 
L 135.28726 46.27608 
L 136.021345 45.92184 
L 137.5138 45.75456 
L 138.24 45.81852 
L 138.24 45.81852 
" clip-path="url(#pd99f509b11)" style="fill: none; stroke: #4a8dff; stroke-width: 0.6; stroke-linecap: round"/>
   </g>
   <g id="line2d_7">
    <path d="M 5.76 40.48032 
L 7.971777 40.88376 
L 9.446296 40.53936 
L 10.183555 38.50248 
L 10.920814 37.63656 
L 11.658073 38.34012 
L 12.395332 38.37456 
L 13.132591 38.5812 
L 14.607109 39.8358 
L 15.344368 41.93172 
L 16.081627 41.42004 
L 17.556146 41.39052 
L 18.293405 41.5086 
L 19.030664 42.80256 
L 19.767923 41.93664 
L 20.505182 41.49384 
L 21.242441 41.51352 
L 21.9797 43.78164 
L 22.716959 43.9932 
L 23.454219 46.66968 
L 24.191478 47.55036 
L 24.928737 46.64508 
L 26.13704 48.89352 
L 26.873923 49.84308 
L 27.608025 49.00176 
L 28.362137 49.233 
L 29.093312 48.97716 
L 30.57051 49.36092 
L 32.042152 49.58724 
L 32.770545 49.28712 
L 33.468902 49.16904 
L 34.253452 49.39044 
L 34.898101 49.29696 
L 36.463164 49.55772 
L 38.674549 49.41996 
L 39.414026 49.8234 
L 40.089003 49.86768 
L 40.885891 49.72992 
L 41.619865 49.39536 
L 43.084297 49.6758 
L 43.838306 49.47408 
L 44.567954 49.60692 
L 45.306928 49.37568 
L 46.040057 49.36584 
L 46.778904 48.6672 
L 47.515813 48.95256 
L 48.247415 49.36092 
L 48.991833 49.54788 
L 49.731302 49.5282 
L 50.463825 49.09032 
L 51.940955 49.2084 
L 52.676789 48.93288 
L 54.164431 48.89844 
L 54.903772 48.48024 
L 55.628129 48.1998 
L 56.371011 48.28344 
L 57.108475 48.88368 
L 57.838558 49.04604 
L 58.5715 49.00176 
L 60.058775 49.38552 
L 60.789207 49.04112 
L 61.581377 48.92796 
L 62.272694 48.987 
L 63.741094 49.66104 
L 66.703954 49.40028 
L 67.431502 49.56756 
L 68.900551 49.56264 
L 69.648911 49.53312 
L 70.388073 49.25268 
L 71.120545 49.29696 
L 71.858999 48.89352 
L 72.59369 48.96732 
L 74.06372 48.5934 
L 74.814205 48.84432 
L 75.555244 48.95748 
L 76.28781 48.30804 
L 77.024506 48.34248 
L 77.764957 48.21456 
L 78.500714 48.26376 
L 79.229841 47.41752 
L 79.976836 48.05712 
L 80.715922 48.26376 
L 81.449947 48.01776 
L 82.184919 47.23548 
L 84.392839 47.1666 
L 85.141567 47.31912 
L 85.88677 46.49256 
L 86.625574 47.64876 
L 87.360819 47.5356 
L 88.099315 48.0276 
L 88.84463 47.50608 
L 89.563073 46.81728 
L 90.3153 46.92552 
L 91.052303 45.85788 
L 92.52357 45.29208 
L 93.261025 45.58728 
L 93.986014 46.2564 
L 94.725969 45.7152 
L 97.688949 45.42492 
L 98.425389 46.38432 
L 99.166283 45.57744 
L 99.89413 46.51716 
L 100.642397 46.95996 
L 101.386815 47.54544 
L 102.858688 47.66844 
L 103.600145 47.05344 
L 104.331756 47.22564 
L 105.058886 48.07188 
L 106.55478 47.37324 
L 108.025697 48.07188 
L 108.760601 48.59832 
L 109.498406 48.52452 
L 110.225033 48.5688 
L 110.977344 48.38676 
L 111.725509 48.55404 
L 113.935801 49.93656 
L 114.660918 49.98084 
L 115.386845 50.3646 
L 116.13995 50.15796 
L 117.603657 49.99068 
L 118.348562 50.217 
L 119.830299 49.98084 
L 121.304774 49.87752 
L 122.066541 49.69548 
L 123.521782 49.7004 
L 125.010133 50.06448 
L 126.470512 49.89228 
L 127.922537 49.9464 
L 130.868757 50.31048 
L 133.833674 50.41872 
L 136.021345 50.0694 
L 138.24 50.00544 
L 138.24 50.00544 
" clip-path="url(#pd99f509b11)" style="fill: none; stroke: #f5841e; stroke-width: 0.7; stroke-linecap: round"/>
   </g>
  </g>
 </g>
 <defs>
  <clipPath id="pd99f509b11">
   <rect x="5.76" y="3.6" width="132.48" height="49.2"/>
  </clipPath>
 </defs>
</svg>
