<?xml version="1.0" encoding="utf-8" standalone="no"?>
<!DOCTYPE svg PUBLIC "-//W3C//DTD SVG 1.1//EN"
  "http://www.w3.org/Graphics/SVG/1.1/DTD/svg11.dtd">
<svg xmlns:xlink="http://www.w3.org/1999/xlink" width="144pt" height="60pt" viewBox="0 0 144 60" xmlns="http://www.w3.org/2000/svg" version="1.1">
  <desc id="nav-meta">{"window":"2w","count":4,"labels":["18.01","22.01","26.01","01.02"],"idxs":[0,50,101,151]}</desc>

 <metadata>
  <rdf:RDF xmlns:dc="http://purl.org/dc/elements/1.1/" xmlns:cc="http://creativecommons.org/ns#" xmlns:rdf="http://www.w3.org/1999/02/22-rdf-syntax-ns#">
   <cc:Work>
    <dc:type rdf:resource="http://purl.org/dc/dcmitype/StillImage"/>
    <dc:date>2026-02-01T00:50:19.287210</dc:date>
    <dc:format>image/svg+xml</dc:format>
    <dc:creator>
     <cc:Agent>
      <dc:title>Matplotlib v3.10.8, https://matplotlib.org/</dc:title>
     </cc:Agent>
    </dc:creator>
   </cc:Work>
  </rdf:RDF>
 </metadata>
 <defs>
  <style type="text/css">*{stroke-linejoin: round; stroke-linecap: butt}</style>
 </defs>
 <g id="figure_1">
  <g id="patch_1">
   <path d="M 0 60 
L 144 60 
L 144 0 
L 0 0 
L 0 60 
z
" style="fill: none; opacity: 0"/>
  </g>
  <g id="axes_1">
   <g id="patch_2">
    <path d="M 5.76 52.8 
L 138.24 52.8 
L 138.24 3.6 
L 5.76 3.6 
L 5.76 52.8 
z
" style="fill: none"/>
   </g>
   <g id="matplotlib.axis_1"/>
   <g id="matplotlib.axis_2"/>
   <g id="line2d_1">
    <path d="M 5.76 42.96 
L 138.24 42.96 
" clip-path="url(#p197c18ca53)" style="fill: none; stroke: #b2b2b2; stroke-opacity: 0.35; stroke-width: 0.5; stroke-linecap: square"/>
   </g>
   <g id="line2d_2">
    <path d="M 5.76 33.12 
L 138.24 33.12 
" clip-path="url(#p197c18ca53)" style="fill: none; stroke: #b2b2b2; stroke-opacity: 0.35; stroke-width: 0.5; stroke-linecap: square"/>
   </g>
   <g id="line2d_3">
    <path d="M 5.76 23.28 
L 138.24 23.28 
" clip-path="url(#p197c18ca53)" style="fill: none; stroke: #b2b2b2; stroke-opacity: 0.35; stroke-width: 0.5; stroke-linecap: square"/>
   </g>
   <g id="line2d_4">
    <path d="M 5.76 13.44 
L 138.24 13.44 
" clip-path="url(#p197c18ca53)" style="fill: none; stroke: #b2b2b2; stroke-opacity: 0.35; stroke-width: 0.5; stroke-linecap: square"/>
   </g>
   <g id="line2d_5">
    <path d="M 6.195789 37.48896 
L 7.496696 37.68576 
L 14.001231 37.74972 
L 15.08532 38.8272 
L 18.337588 38.718652 
L 19.421677 38.736614 
L 20.722584 38.86656 
L 21.15622 38.95653 
L 22.023491 39.41268 
L 23.324398 39.521812 
L 24.191669 39.57996 
L 30.04575 39.525265 
L 30.913022 39.3438 
L 31.997111 39.245903 
L 32.864382 39.18144 
L 33.948471 39.289129 
L 35.249378 39.314296 
L 39.152099 39.475643 
L 39.802553 39.52092 
L 67.121599 39.624313 
L 68.422506 39.64392 
L 69.723413 39.753141 
L 71.457955 39.76692 
L 74.710223 39.64884 
L 85.767932 39.758912 
L 87.285657 39.823326 
L 88.152928 40.75584 
L 89.020199 40.742336 
L 89.887471 40.27368 
L 92.706102 40.175442 
L 93.790192 40.06212 
L 101.378816 39.957673 
L 102.246087 39.63408 
L 114.387885 39.692164 
L 115.471974 39.9096 
L 116.339246 40.008519 
L 117.206517 40.17528 
L 119.591513 40.206202 
L 120.458784 40.7706 
L 122.84378 40.87392 
L 126.746501 41.051518 
L 127.613773 40.869 
L 129.565133 40.76136 
L 130.432404 40.6722 
L 131.082858 40.780002 
L 131.950129 41.04612 
L 132.600583 41.069755 
L 133.467854 41.84316 
L 134.335125 41.861543 
L 135.202397 42.77304 
L 137.804211 42.77304 
L 137.804211 42.77304 
" clip-path="url(#p197c18ca53)" style="fill: none; stroke: #bebebe; stroke-width: 0.6; stroke-linecap: round"/>
   </g>
   <g id="line2d_6">
    <path d="M 6.195789 31.89 
L 10.532146 31.78668 
L 12.266689 31.68336 
L 13.350778 32.591955 
L 15.518956 32.588794 
L 17.687134 32.56896 
L 18.554406 32.620203 
L 19.421677 32.85432 
L 20.288948 32.951164 
L 21.15622 33.42504 
L 22.023491 33.50209 
L 22.890762 33.9072 
L 24.191669 33.999578 
L 25.05894 34.04988 
L 25.926212 34.137711 
L 26.793483 34.18764 
L 30.696204 34.137038 
L 31.780293 33.84816 
L 33.0812 33.948149 
L 35.03256 34.01544 
L 36.550285 34.113094 
L 38.06801 34.315284 
L 38.718464 34.45332 
L 64.086149 34.359143 
L 65.387056 34.31064 
L 67.121599 34.55664 
L 68.422506 34.549896 
L 69.289777 34.65996 
L 70.157048 34.5803 
L 71.02432 34.472044 
L 72.758862 34.458751 
L 74.059769 34.375946 
L 77.96249 34.335353 
L 86.201568 34.5714 
L 86.418386 34.609966 
L 87.285657 35.47176 
L 88.152928 35.458467 
L 89.237017 35.06832 
L 90.104289 34.957316 
L 90.97156 34.65996 
L 95.524734 34.5883 
L 96.392006 34.46808 
L 97.476095 34.565029 
L 98.343366 34.60092 
L 100.294726 34.62552 
L 101.378816 33.9072 
L 108.533804 34.015853 
L 112.219707 34.035023 
L 113.086978 33.981 
L 115.255157 34.024405 
L 116.122428 34.41888 
L 118.724242 34.485004 
L 119.591513 35.10768 
L 120.675602 35.210295 
L 121.542873 35.40288 
L 122.410145 35.490946 
L 123.277416 35.66364 
L 124.361505 35.771442 
L 125.228777 35.8506 
L 127.613773 35.960153 
L 128.264226 36.274733 
L 129.565133 36.1212 
L 129.998769 36.13827 
L 131.082858 36.50496 
L 131.733311 36.531173 
L 132.600583 37.26264 
L 133.467854 37.290847 
L 134.335125 38.40408 
L 136.936939 38.40104 
L 137.804211 37.78908 
L 137.804211 37.78908 
" clip-path="url(#p197c18ca53)" style="fill: none; stroke: #4a8dff; stroke-width: 0.7; stroke-linecap: round"/>
   </g>
   <g id="line2d_7">
    <path d="M 6.195789 36.61812 
L 11.182599 36.534285 
L 12.049871 36.50004 
L 12.266689 36.50004 
L 13.350778 37.579473 
L 14.868503 37.49388 
L 17.036681 37.509191 
L 18.337588 37.45944 
L 19.855313 37.87764 
L 20.288948 37.962796 
L 21.15622 38.37948 
L 22.240309 38.479987 
L 23.10758 38.62548 
L 23.758033 38.668998 
L 24.842123 38.91576 
L 26.14303 39.020417 
L 28.961661 39.093002 
L 30.04575 38.84196 
L 31.346657 38.736589 
L 32.430747 38.729343 
L 33.948471 38.82228 
L 37.851192 38.899282 
L 38.718464 39.147 
L 45.222998 39.049719 
L 46.09027 39.01908 
L 46.740723 38.932271 
L 47.607994 38.8518 
L 49.125719 38.930001 
L 50.426626 39.02892 
L 64.086149 38.919286 
L 65.170238 38.82228 
L 65.603874 38.869146 
L 66.471145 39.11256 
L 68.639324 39.210385 
L 69.723413 39.2454 
L 71.457955 39.048243 
L 72.758862 39.027437 
L 75.360676 38.88132 
L 77.96249 38.975481 
L 79.697033 39.043615 
L 82.9493 39.238972 
L 84.033389 39.51108 
L 85.334296 39.401008 
L 86.201568 39.37332 
L 86.418386 39.415047 
L 87.285657 40.34748 
L 88.152928 40.332566 
L 89.020199 39.89484 
L 90.104289 39.823958 
L 90.97156 39.63408 
L 94.007009 39.721311 
L 94.440645 39.78168 
L 95.091099 39.78168 
L 96.175188 39.30444 
L 97.042459 39.367298 
L 97.90973 39.57504 
L 98.993819 39.665448 
L 99.861091 39.76692 
L 100.294726 39.76692 
L 101.378816 39.024 
L 106.799261 39.11945 
L 108.533804 39.159709 
L 112.219707 39.049532 
L 112.87016 38.9502 
L 113.737432 39.030201 
L 114.604703 39.15684 
L 115.255157 39.218798 
L 116.122428 39.639 
L 118.724242 39.700204 
L 119.591513 40.32288 
L 120.458784 40.414309 
L 121.326056 41.24784 
L 122.193327 41.284606 
L 123.060598 41.66112 
L 124.144687 41.728865 
L 125.011959 41.86776 
L 125.87923 41.781721 
L 126.746501 41.59716 
L 127.613773 41.5335 
L 128.91468 41.311735 
L 129.998769 41.309409 
L 131.082858 41.6808 
L 131.733311 41.707864 
L 132.600583 42.46308 
L 133.467854 42.500649 
L 134.335125 43.98336 
L 136.936939 43.980612 
L 137.804211 43.4274 
L 137.804211 43.4274 
" clip-path="url(#p197c18ca53)" style="fill: none; stroke: #f5841e; stroke-width: 0.8; stroke-linecap: round"/>
   </g>
  </g>
 </g>
 <defs>
  <clipPath id="p197c18ca53">
   <rect x="5.76" y="3.6" width="132.48" height="49.2"/>
  </clipPath>
 </defs>
</svg>
