<?xml version="1.0" encoding="utf-8" standalone="no"?>
<!DOCTYPE svg PUBLIC "-//W3C//DTD SVG 1.1//EN"
  "http://www.w3.org/Graphics/SVG/1.1/DTD/svg11.dtd">
<svg xmlns:xlink="http://www.w3.org/1999/xlink" width="144pt" height="60pt" viewBox="0 0 144 60" xmlns="http://www.w3.org/2000/svg" version="1.1">
  <desc id="nav-meta">{"window":"6m","count":4,"labels":["29.12","27.02","28.04","27.06"],"tick_utc":["2025-12-29T12:00:00Z","2026-02-27T03:18:03Z","2026-04-28T04:25:03Z","2026-06-27T04:39:58Z"]}</desc>

 <metadata>
  <rdf:RDF xmlns:dc="http://purl.org/dc/elements/1.1/" xmlns:cc="http://creativecommons.org/ns#" xmlns:rdf="http://www.w3.org/1999/02/22-rdf-syntax-ns#">
   <cc:Work>
    <dc:type rdf:resource="http://purl.org/dc/dcmitype/StillImage"/>
    <dc:date>2026-06-27T09:15:56.721528</dc:date>
    <dc:format>image/svg+xml</dc:format>
    <dc:creator>
     <cc:Agent>
      <dc:title>Matplotlib v3.11.0, https://matplotlib.org/</dc:title>
     </cc:Agent>
    </dc:creator>
   </cc:Work>
  </rdf:RDF>
 </metadata>
 <defs>
  <style type="text/css">*{stroke-linejoin: round; stroke-linecap: butt}</style>
 </defs>
 <g id="figure_1">
  <g id="patch_1">
   <path d="M 0 60 
L 144 60 
L 144 0 
L 0 0 
L 0 60 
z
" style="fill: none; opacity: 0"/>
  </g>
  <g id="axes_1">
   <g id="patch_2">
    <path d="M 5.76 52.8 
L 138.24 52.8 
L 138.24 3.6 
L 5.76 3.6 
L 5.76 52.8 
z
" style="fill: none"/>
   </g>
   <g id="matplotlib.axis_1"/>
   <g id="matplotlib.axis_2"/>
   <g id="line2d_1">
    <path d="M 5.76 42.96 
L 138.24 42.96 
" clip-path="url(#p61e2ba4f66)" style="fill: none; stroke: #b2b2b2; stroke-opacity: 0.35; stroke-width: 0.5; stroke-linecap: square"/>
   </g>
   <g id="line2d_2">
    <path d="M 5.76 33.12 
L 138.24 33.12 
" clip-path="url(#p61e2ba4f66)" style="fill: none; stroke: #b2b2b2; stroke-opacity: 0.35; stroke-width: 0.5; stroke-linecap: square"/>
   </g>
   <g id="line2d_3">
    <path d="M 5.76 23.28 
L 138.24 23.28 
" clip-path="url(#p61e2ba4f66)" style="fill: none; stroke: #b2b2b2; stroke-opacity: 0.35; stroke-width: 0.5; stroke-linecap: square"/>
   </g>
   <g id="line2d_4">
    <path d="M 5.76 13.44 
L 138.24 13.44 
" clip-path="url(#p61e2ba4f66)" style="fill: none; stroke: #b2b2b2; stroke-opacity: 0.35; stroke-width: 0.5; stroke-linecap: square"/>
   </g>
   <g id="line2d_5">
    <path d="M 5.76 45.31668 
L 6.497252 45.58728 
L 7.234503 45.35604 
L 7.971755 45.40032 
L 8.709006 45.11496 
L 9.446258 44.42124 
L 10.920761 44.18508 
L 11.658013 43.62912 
L 12.395264 43.24044 
L 13.132516 43.8702 
L 13.869768 43.60944 
L 14.607019 43.92924 
L 15.344271 43.93416 
L 16.081522 43.46184 
L 16.818774 43.5012 
L 17.556026 42.72384 
L 18.293277 42.51228 
L 19.030529 43.08792 
L 19.76778 42.75828 
L 20.505032 42.90096 
L 21.979535 44.2392 
L 22.716787 45.23304 
L 23.454038 44.77548 
L 24.928542 45.04608 
L 25.665793 45.07068 
L 26.403045 46.1334 
L 27.140296 45.4446 
L 27.877548 45.06084 
L 28.6148 45.33144 
L 29.352051 46.30068 
L 30.089303 46.34496 
L 30.826554 47.89476 
L 31.563806 48.26376 
L 32.301058 47.96364 
L 33.509348 49.06572 
L 34.246224 50.04972 
L 34.980319 49.24776 
L 37.942773 49.59708 
L 38.677371 49.80372 
L 39.414401 49.86768 
L 40.142787 49.479 
L 40.841136 49.24776 
L 41.625678 49.48392 
L 42.270321 49.37568 
L 43.099012 49.479 
L 43.835368 49.7004 
L 46.04673 49.49376 
L 46.7862 49.98576 
L 47.461169 49.96608 
L 48.258049 49.7004 
L 48.992016 49.27236 
L 49.727868 49.37076 
L 50.456433 49.68072 
L 51.210435 49.25268 
L 51.940075 49.51344 
L 54.151002 49.09032 
L 56.363909 49.64628 
L 57.103371 49.58724 
L 57.835886 49.36092 
L 59.313001 49.45932 
L 60.048827 49.16904 
L 61.536454 49.27236 
L 62.275788 48.87384 
L 63.743012 48.70164 
L 64.480469 49.03128 
L 65.210544 49.1592 
L 65.943478 49.08048 
L 67.430738 49.36584 
L 68.953325 48.90828 
L 69.644635 49.05096 
L 71.11302 49.64628 
L 74.07585 49.59708 
L 74.803391 49.8726 
L 76.272424 49.80864 
L 78.492396 49.83816 
L 79.230843 49.50852 
L 79.965526 49.68564 
L 81.435541 49.48884 
L 82.186018 49.6512 
L 82.92705 49.69056 
L 83.659608 49.40028 
L 84.396297 49.58724 
L 86.601609 49.19856 
L 87.348597 49.43472 
L 88.087675 49.50852 
L 91.764555 49.37568 
L 92.513275 49.4052 
L 93.258471 49.29204 
L 93.997267 49.5528 
L 94.732505 49.50852 
L 95.470994 49.64136 
L 96.934737 49.56264 
L 97.686955 49.57248 
L 98.423951 49.42488 
L 99.144964 49.49376 
L 100.632651 49.25268 
L 101.357632 49.24284 
L 102.09758 48.80004 
L 102.849687 48.85416 
L 104.319771 48.63276 
L 105.060529 48.66228 
L 105.796962 49.09524 
L 106.537848 48.99192 
L 108.013947 49.34616 
L 108.758358 49.47408 
L 110.230216 49.54788 
L 110.971666 49.3314 
L 111.703269 49.34616 
L 112.430391 49.51836 
L 113.92627 49.41504 
L 116.132069 49.7742 
L 118.34879 49.61676 
L 119.826945 49.7988 
L 120.572491 50.19732 
L 121.307216 50.45808 
L 122.032326 50.59092 
L 122.758245 50.99928 
L 124.251854 50.74344 
L 124.975035 50.62536 
L 125.719932 50.80248 
L 128.676115 50.56632 
L 130.179331 50.23176 
L 130.8931 50.2416 
L 132.381435 50.55156 
L 134.600631 50.217 
L 136.770753 50.59092 
L 137.511785 50.59092 
L 138.24 50.33016 
L 138.24 50.33016 
" clip-path="url(#p61e2ba4f66)" style="fill: none; stroke: #bebebe; stroke-width: 0.6; stroke-linecap: round"/>
   </g>
   <g id="line2d_6">
    <path d="M 5.76 37.46928 
L 6.497252 37.56276 
L 7.234503 37.31184 
L 7.971755 37.33644 
L 8.709006 37.09536 
L 9.446258 36.23928 
L 10.920761 36.11628 
L 11.658013 35.48652 
L 12.395264 35.0142 
L 13.132516 35.93424 
L 13.869768 36.36228 
L 14.607019 36.50988 
L 15.344271 36.5148 
L 16.081522 36.25404 
L 16.818774 36.46068 
L 17.556026 34.83708 
L 18.293277 34.57632 
L 19.76778 35.00436 
L 20.505032 34.93056 
L 21.242284 35.088 
L 21.979535 35.78664 
L 22.716787 37.55292 
L 23.454038 37.26756 
L 24.19129 37.46436 
L 25.665793 37.45944 
L 26.403045 38.41392 
L 27.877548 36.95268 
L 28.6148 37.05108 
L 29.352051 38.37948 
L 30.089303 39.20604 
L 30.826554 41.03136 
L 31.563806 42.26628 
L 32.301058 41.73492 
L 32.923464 42.23676 
L 34.246224 44.89356 
L 34.980319 43.6242 
L 36.465591 43.53072 
L 37.207049 43.72752 
L 38.677371 44.436 
L 39.414401 44.49012 
L 40.142787 43.81608 
L 40.841136 43.7226 
L 41.625678 44.5344 
L 42.270321 44.19 
L 43.099012 44.21952 
L 44.56831 44.51472 
L 46.04673 44.3868 
L 46.7862 45.174 
L 47.461169 45.23796 
L 48.258049 44.81484 
L 48.992016 43.821 
L 49.727868 44.01288 
L 50.456433 44.66232 
L 51.210435 43.93908 
L 51.940075 44.39664 
L 52.679042 44.12112 
L 53.412163 44.33268 
L 54.151002 43.3044 
L 54.887904 43.6242 
L 55.619498 44.29824 
L 56.363909 44.53932 
L 57.103371 44.30808 
L 57.835886 43.8702 
L 58.572848 44.00304 
L 59.313001 43.97844 
L 60.048827 43.41756 
L 61.536454 43.48644 
L 62.275788 42.49752 
L 63.000138 41.73984 
L 63.743012 41.7546 
L 64.480469 42.591 
L 65.210544 43.14204 
L 65.943478 43.083 
L 66.691754 43.35852 
L 67.430738 43.78164 
L 68.161163 43.21584 
L 68.953325 42.9354 
L 69.644635 43.10268 
L 71.11302 44.25396 
L 73.332275 43.74228 
L 74.07585 43.46676 
L 75.541487 43.79148 
L 77.020777 43.77672 
L 77.759932 43.2552 
L 78.492396 43.40772 
L 79.230843 42.49752 
L 79.965526 42.90588 
L 80.709561 42.8616 
L 81.435541 42.41388 
L 82.92705 42.79764 
L 83.659608 41.57256 
L 84.396297 41.86284 
L 85.13674 41.63652 
L 85.87249 41.85792 
L 86.601609 41.22324 
L 87.348597 41.76936 
L 88.087675 42.1482 
L 88.821692 41.96616 
L 89.556657 41.59224 
L 91.036101 41.99076 
L 91.764555 41.91696 
L 92.513275 41.98584 
L 93.258471 41.41512 
L 93.997267 42.15312 
L 94.732505 41.96124 
L 95.470994 42.43848 
L 96.934737 42.02028 
L 97.686955 42.0252 
L 98.423951 41.40528 
L 99.895203 41.52336 
L 101.357632 42.1974 
L 102.09758 41.8776 
L 103.592759 41.8038 
L 104.319771 41.976 
L 105.060529 42.00552 
L 105.796962 42.3942 
L 106.537848 42.27612 
L 108.013947 42.85176 
L 108.758358 43.31424 
L 109.490328 43.2306 
L 110.230216 43.39296 
L 110.971666 43.16172 
L 111.703269 43.24536 
L 112.430391 43.71768 
L 113.179316 43.33392 
L 115.397172 43.67832 
L 116.132069 44.32776 
L 116.869866 44.13588 
L 117.596486 44.16048 
L 118.34879 43.96368 
L 119.096946 44.2392 
L 119.826945 44.19984 
L 120.572491 45.16908 
L 121.307216 45.67584 
L 122.032326 46.00548 
L 122.758245 47.57004 
L 124.251854 46.64016 
L 124.975035 46.34496 
L 125.719932 46.82712 
L 127.201654 46.51716 
L 127.933513 46.5516 
L 128.676115 46.46304 
L 130.8931 45.6414 
L 131.626819 46.09404 
L 132.381435 46.3302 
L 134.600631 46.035 
L 135.293809 46.14324 
L 137.511785 47.38308 
L 138.24 47.14692 
L 138.24 47.14692 
" clip-path="url(#p61e2ba4f66)" style="fill: none; stroke: #4a8dff; stroke-width: 0.6; stroke-linecap: round"/>
   </g>
   <g id="line2d_7">
    <path d="M 5.76 42.1728 
L 6.497252 42.50244 
L 7.234503 41.88252 
L 7.971755 42.32532 
L 9.446258 41.13468 
L 10.920761 40.42128 
L 11.658013 39.16176 
L 12.395264 39.28968 
L 13.132516 40.48032 
L 15.344271 40.88376 
L 16.818774 40.53936 
L 17.556026 38.50248 
L 18.293277 37.63656 
L 19.030529 38.34012 
L 19.76778 38.37456 
L 20.505032 38.5812 
L 21.979535 39.8358 
L 22.716787 41.93172 
L 23.454038 41.42004 
L 24.928542 41.39052 
L 25.665793 41.5086 
L 26.403045 42.80256 
L 27.140296 41.93664 
L 27.877548 41.49384 
L 28.6148 41.51352 
L 29.352051 43.78164 
L 30.089303 43.9932 
L 30.826554 46.66968 
L 31.563806 47.55036 
L 32.301058 46.64508 
L 33.509348 48.89352 
L 34.246224 49.84308 
L 34.980319 49.00176 
L 35.734423 49.233 
L 36.465591 48.97716 
L 37.942773 49.36092 
L 39.414401 49.58724 
L 40.142787 49.28712 
L 40.841136 49.16904 
L 41.625678 49.39044 
L 42.270321 49.29696 
L 43.835368 49.55772 
L 46.04673 49.41996 
L 46.7862 49.8234 
L 47.461169 49.86768 
L 48.258049 49.72992 
L 48.992016 49.39536 
L 50.456433 49.6758 
L 51.210435 49.47408 
L 51.940075 49.60692 
L 52.679042 49.37568 
L 53.412163 49.36584 
L 54.151002 48.6672 
L 54.887904 48.95256 
L 55.619498 49.36092 
L 56.363909 49.54788 
L 57.103371 49.5282 
L 57.835886 49.09032 
L 59.313001 49.2084 
L 60.048827 48.93288 
L 61.536454 48.89844 
L 62.275788 48.48024 
L 63.000138 48.1998 
L 63.743012 48.28344 
L 64.480469 48.88368 
L 65.210544 49.04604 
L 65.943478 49.00176 
L 67.430738 49.38552 
L 68.161163 49.04112 
L 68.953325 48.92796 
L 69.644635 48.987 
L 71.11302 49.66104 
L 74.07585 49.40028 
L 74.803391 49.56756 
L 76.272424 49.56264 
L 77.020777 49.53312 
L 77.759932 49.25268 
L 78.492396 49.29696 
L 79.230843 48.89352 
L 79.965526 48.96732 
L 81.435541 48.5934 
L 82.186018 48.84432 
L 82.92705 48.95748 
L 83.659608 48.30804 
L 84.396297 48.34248 
L 85.13674 48.21456 
L 85.87249 48.26376 
L 86.601609 47.41752 
L 87.348597 48.05712 
L 88.087675 48.26376 
L 88.821692 48.01776 
L 89.556657 47.23548 
L 91.764555 47.1666 
L 92.513275 47.31912 
L 93.258471 46.49256 
L 93.997267 47.64876 
L 94.732505 47.5356 
L 95.470994 48.0276 
L 96.2163 47.50608 
L 96.934737 46.81728 
L 97.686955 46.92552 
L 98.423951 45.85788 
L 99.895203 45.29208 
L 100.632651 45.58728 
L 101.357632 46.2564 
L 102.09758 45.7152 
L 105.060529 45.42492 
L 105.796962 46.38432 
L 106.537848 45.57744 
L 107.265688 46.51716 
L 108.013947 46.95996 
L 108.758358 47.54544 
L 110.230216 47.66844 
L 110.971666 47.05344 
L 111.703269 47.22564 
L 112.430391 48.07188 
L 113.92627 47.37324 
L 115.397172 48.07188 
L 116.132069 48.59832 
L 116.869866 48.52452 
L 117.596486 48.5688 
L 118.34879 48.38676 
L 119.096946 48.55404 
L 121.307216 49.93656 
L 122.032326 49.98084 
L 122.758245 50.3646 
L 123.511343 50.15796 
L 124.975035 49.99068 
L 125.719932 50.217 
L 127.201654 49.98084 
L 128.676115 49.87752 
L 129.437873 49.69548 
L 130.8931 49.7004 
L 132.381435 50.06448 
L 133.841799 49.89228 
L 135.293809 49.9464 
L 138.24 50.31048 
L 138.24 50.31048 
" clip-path="url(#p61e2ba4f66)" style="fill: none; stroke: #f5841e; stroke-width: 0.7; stroke-linecap: round"/>
   </g>
  </g>
 </g>
 <defs>
  <clipPath id="p61e2ba4f66">
   <rect x="5.76" y="3.6" width="132.48" height="49.2"/>
  </clipPath>
 </defs>
</svg>
