<?xml version="1.0" encoding="utf-8" standalone="no"?>
<!DOCTYPE svg PUBLIC "-//W3C//DTD SVG 1.1//EN"
  "http://www.w3.org/Graphics/SVG/1.1/DTD/svg11.dtd">
<svg xmlns:xlink="http://www.w3.org/1999/xlink" width="144pt" height="60pt" viewBox="0 0 144 60" xmlns="http://www.w3.org/2000/svg" version="1.1">
  <desc id="nav-meta">{"window":"1y","count":4,"labels":["21.05","19.09","18.01","20.05"],"tick_utc":["2025-05-21T12:00:00Z","2025-09-19T12:00:00Z","2026-01-18T12:00:00Z","2026-05-20T04:51:15Z"]}</desc>

 <metadata>
  <rdf:RDF xmlns:dc="http://purl.org/dc/elements/1.1/" xmlns:cc="http://creativecommons.org/ns#" xmlns:rdf="http://www.w3.org/1999/02/22-rdf-syntax-ns#">
   <cc:Work>
    <dc:type rdf:resource="http://purl.org/dc/dcmitype/StillImage"/>
    <dc:date>2026-05-20T20:52:48.328841</dc:date>
    <dc:format>image/svg+xml</dc:format>
    <dc:creator>
     <cc:Agent>
      <dc:title>Matplotlib v3.10.9, https://matplotlib.org/</dc:title>
     </cc:Agent>
    </dc:creator>
   </cc:Work>
  </rdf:RDF>
 </metadata>
 <defs>
  <style type="text/css">*{stroke-linejoin: round; stroke-linecap: butt}</style>
 </defs>
 <g id="figure_1">
  <g id="patch_1">
   <path d="M 0 60 
L 144 60 
L 144 0 
L 0 0 
L 0 60 
z
" style="fill: none; opacity: 0"/>
  </g>
  <g id="axes_1">
   <g id="patch_2">
    <path d="M 5.76 52.8 
L 138.24 52.8 
L 138.24 3.6 
L 5.76 3.6 
L 5.76 52.8 
z
" style="fill: none"/>
   </g>
   <g id="matplotlib.axis_1"/>
   <g id="matplotlib.axis_2"/>
   <g id="line2d_1">
    <path d="M 5.76 42.96 
L 138.24 42.96 
" clip-path="url(#pbf65df495f)" style="fill: none; stroke: #b2b2b2; stroke-opacity: 0.35; stroke-width: 0.5; stroke-linecap: square"/>
   </g>
   <g id="line2d_2">
    <path d="M 5.76 33.12 
L 138.24 33.12 
" clip-path="url(#pbf65df495f)" style="fill: none; stroke: #b2b2b2; stroke-opacity: 0.35; stroke-width: 0.5; stroke-linecap: square"/>
   </g>
   <g id="line2d_3">
    <path d="M 5.76 23.28 
L 138.24 23.28 
" clip-path="url(#pbf65df495f)" style="fill: none; stroke: #b2b2b2; stroke-opacity: 0.35; stroke-width: 0.5; stroke-linecap: square"/>
   </g>
   <g id="line2d_4">
    <path d="M 5.76 13.44 
L 138.24 13.44 
" clip-path="url(#pbf65df495f)" style="fill: none; stroke: #b2b2b2; stroke-opacity: 0.35; stroke-width: 0.5; stroke-linecap: square"/>
   </g>
   <g id="line2d_5">
    <path d="M 5.76 39.6882 
L 6.488508 38.22696 
L 6.852762 38.901 
L 7.217016 38.69436 
L 7.945524 38.86164 
L 8.309778 38.62056 
L 9.038286 39.88992 
L 9.40254 41.23308 
L 10.495302 41.17404 
L 11.22381 41.62176 
L 11.588064 42.79272 
L 11.952318 42.30564 
L 12.680826 41.7546 
L 13.04508 40.62792 
L 13.409334 40.131 
L 13.773588 40.6476 
L 14.137842 41.73492 
L 14.86635 42.76812 
L 15.230604 41.73492 
L 15.594858 41.89728 
L 15.959112 42.345 
L 16.323366 42.5664 
L 16.68762 42.46308 
L 17.416128 44.20476 
L 17.780382 44.45076 
L 18.144636 42.7632 
L 18.50889 42.63036 
L 18.873144 42.94524 
L 19.237398 43.52088 
L 19.601652 43.1076 
L 19.965906 41.98092 
L 20.694414 41.43972 
L 21.058668 42.4926 
L 21.422922 41.79888 
L 21.787176 41.78412 
L 22.15143 42.37452 
L 22.515684 42.3942 
L 22.879938 41.83332 
L 23.244192 42.24168 
L 23.608446 41.84316 
L 24.336954 40.2786 
L 24.701208 40.42128 
L 25.065462 40.71648 
L 25.79397 40.48032 
L 26.158224 40.26384 
L 26.522478 38.97972 
L 27.250986 38.51724 
L 27.61524 38.57628 
L 27.979494 38.04492 
L 28.343748 36.03264 
L 28.708002 34.88136 
L 29.072256 36.92316 
L 29.43651 37.8432 
L 29.800764 37.37088 
L 30.165018 37.53324 
L 30.529272 37.056 
L 30.893526 37.77924 
L 31.25778 38.02032 
L 31.622034 38.45328 
L 31.986288 39.1962 
L 32.350542 40.41636 
L 32.714796 40.97232 
L 33.07905 40.53444 
L 33.443304 39.55536 
L 33.807558 40.24908 
L 34.171812 39.7128 
L 34.536066 38.778 
L 34.90032 38.59104 
L 35.628828 37.794 
L 35.993082 38.82228 
L 36.357336 36.53448 
L 36.72159 35.334 
L 37.450098 37.44468 
L 37.814352 36.90348 
L 38.178606 36.65748 
L 38.907114 38.64516 
L 39.271368 37.2282 
L 39.635622 38.14332 
L 39.999876 35.53572 
L 40.36413 35.04372 
L 40.728383 34.80264 
L 41.092637 37.23804 
L 42.185399 33.67104 
L 42.549653 34.90596 
L 43.642415 35.9736 
L 44.006669 34.36476 
L 44.370923 34.1778 
L 44.735177 35.22084 
L 45.099431 35.11752 
L 45.463685 35.54556 
L 46.920701 32.44104 
L 47.284955 31.83096 
L 47.649209 30.06468 
L 48.013463 30.01056 
L 48.377717 30.291 
L 48.741971 31.16184 
L 49.106225 30.74856 
L 49.470479 29.71536 
L 49.834733 29.37588 
L 50.198987 30.57636 
L 50.563241 30.42876 
L 50.927495 30.79284 
L 51.291749 32.91828 
L 51.656003 33.72024 
L 52.020257 34.05972 
L 52.384511 36.5886 
L 52.748765 34.90104 
L 53.113019 35.10276 
L 53.477273 34.16796 
L 53.841527 33.8826 
L 54.205781 34.43364 
L 54.934289 31.05852 
L 55.298543 31.26024 
L 55.662797 31.92936 
L 56.027051 31.85064 
L 56.391305 31.3242 
L 56.755559 32.84448 
L 57.119813 31.78176 
L 57.484067 32.85924 
L 57.848321 36.8838 
L 58.212575 38.39424 
L 58.576829 35.95392 
L 58.941083 34.53696 
L 59.305337 35.20608 
L 60.033845 37.57752 
L 60.398099 37.90716 
L 60.762353 37.18884 
L 61.126607 37.18392 
L 61.490861 36.89364 
L 61.855115 37.42008 
L 62.219369 38.17284 
L 62.583623 36.687 
L 62.947877 36.42132 
L 63.312131 36.34752 
L 63.676385 35.56032 
L 64.040639 35.72268 
L 64.404893 36.29832 
L 64.769147 36.32292 
L 65.133401 37.61688 
L 65.497655 37.2282 
L 65.861909 37.34628 
L 66.226163 37.23804 
L 66.590417 40.008 
L 66.954671 41.36592 
L 67.318925 40.43604 
L 67.683179 41.44956 
L 68.047433 40.53444 
L 68.411687 41.02152 
L 68.775941 40.22448 
L 69.140195 39.79644 
L 69.504449 41.51844 
L 69.868703 41.66604 
L 70.597211 43.51596 
L 70.961465 43.43724 
L 71.325719 43.71276 
L 71.689973 44.59836 
L 72.054227 43.30932 
L 73.146989 44.88372 
L 73.511243 44.99688 
L 73.875497 44.57868 
L 74.239751 43.5996 
L 74.604005 43.51596 
L 74.968259 43.00428 
L 75.332513 43.2798 
L 75.696767 43.71768 
L 76.425275 44.0916 
L 76.789529 45.11004 
L 77.153783 43.55532 
L 77.518037 42.72876 
L 78.246545 44.27364 
L 78.975053 44.47536 
L 79.339307 44.25888 
L 79.703561 43.64388 
L 80.067815 43.84068 
L 80.432069 43.85052 
L 80.796323 44.36712 
L 81.160577 44.26872 
L 81.524831 44.74104 
L 81.889085 44.98704 
L 82.253339 44.84436 
L 82.617593 45.58728 
L 82.981847 46.0596 
L 83.346101 45.18384 
L 84.803117 45.47904 
L 85.167371 45.65616 
L 85.531625 45.98088 
L 86.260133 45.38556 
L 86.624387 45.31668 
L 86.988641 45.58728 
L 87.352895 45.35604 
L 87.717149 45.40032 
L 88.081403 45.11496 
L 88.445657 44.42124 
L 89.174165 44.18508 
L 89.902673 43.24044 
L 90.266927 43.8702 
L 90.631181 43.60944 
L 90.995435 43.92924 
L 91.359689 43.93416 
L 91.723943 43.46184 
L 92.088197 43.5012 
L 92.452451 42.72384 
L 92.816705 42.51228 
L 93.180959 43.08792 
L 93.545213 42.75828 
L 93.909467 42.90096 
L 94.637975 44.2392 
L 95.002229 45.23304 
L 95.366483 44.77548 
L 96.094991 45.04608 
L 96.459245 45.07068 
L 96.823499 46.1334 
L 97.187753 45.4446 
L 97.552007 45.06084 
L 97.916261 45.33144 
L 98.280515 46.30068 
L 98.644769 46.34496 
L 99.009023 47.89476 
L 99.373277 48.26376 
L 99.737531 47.96364 
L 100.698579 50.04972 
L 101.061274 49.24776 
L 102.524934 49.59708 
L 102.887877 49.80372 
L 103.252021 49.86768 
L 103.956928 49.24776 
L 104.344547 49.48392 
L 104.663046 49.37568 
L 105.072477 49.479 
L 105.436289 49.7004 
L 106.528857 49.49376 
L 106.894207 49.98576 
L 107.227689 49.96608 
L 107.621404 49.7004 
L 107.984035 49.27236 
L 108.347597 49.37076 
L 108.707559 49.68072 
L 109.080089 49.25268 
L 109.440583 49.51344 
L 110.532936 49.09032 
L 111.991613 49.58724 
L 112.353527 49.36092 
L 113.083325 49.45932 
L 113.446875 49.16904 
L 114.181867 49.27236 
L 114.54715 48.87384 
L 115.272061 48.70164 
L 115.636417 49.03128 
L 115.997125 49.1592 
L 116.359246 49.08048 
L 117.094056 49.36584 
L 117.846321 48.90828 
L 118.187877 49.05096 
L 118.913362 49.64628 
L 120.377208 49.59708 
L 120.736664 49.8726 
L 121.462469 49.80864 
L 122.559291 49.83816 
L 122.924136 49.50852 
L 123.287121 49.68564 
L 124.013411 49.48884 
L 124.750321 49.69056 
L 125.112257 49.40028 
L 125.476232 49.58724 
L 126.565811 49.19856 
L 126.934876 49.43472 
L 127.300032 49.50852 
L 129.116668 49.37568 
L 129.486589 49.4052 
L 129.854768 49.29204 
L 130.219785 49.5528 
L 130.583044 49.50852 
L 130.947909 49.64136 
L 131.671101 49.56264 
L 132.042749 49.57248 
L 132.406877 49.42488 
L 132.763108 49.49376 
L 133.49813 49.25268 
L 133.856321 49.24284 
L 134.221907 48.80004 
L 134.593501 48.85416 
L 135.319825 48.63276 
L 135.685812 48.66228 
L 136.049661 49.09524 
L 136.415711 48.99192 
L 137.145008 49.34616 
L 137.512799 49.47408 
L 138.24 49.54788 
L 138.24 49.54788 
" clip-path="url(#pbf65df495f)" style="fill: none; stroke: #bebebe; stroke-width: 0.6; stroke-linecap: round"/>
   </g>
   <g id="line2d_6">
    <path d="M 5.76 40.46556 
L 6.124254 40.21956 
L 6.488508 39.52584 
L 6.852762 40.49508 
L 7.945524 40.19496 
L 8.309778 39.4914 
L 8.674032 39.38808 
L 9.038286 39.69312 
L 9.40254 40.46556 
L 10.131048 40.36716 
L 10.495302 39.8604 
L 10.859556 39.96372 
L 11.22381 39.85548 
L 11.588064 41.1888 
L 12.316572 40.4508 
L 12.680826 40.5738 
L 13.409334 38.45328 
L 13.773588 38.68452 
L 14.137842 39.55536 
L 14.502096 40.09164 
L 14.86635 40.39668 
L 15.594858 40.2048 
L 15.959112 40.52952 
L 16.68762 40.48032 
L 17.416128 42.26136 
L 17.780382 42.5664 
L 18.144636 41.17404 
L 18.50889 41.0166 
L 18.873144 41.22324 
L 19.601652 41.17896 
L 19.965906 41.08056 
L 20.33016 40.61808 
L 20.694414 40.7214 
L 21.058668 41.30688 
L 21.422922 40.11132 
L 21.787176 39.99816 
L 22.15143 40.56888 
L 22.515684 40.51476 
L 22.879938 40.131 
L 23.244192 40.3278 
L 23.608446 39.81612 
L 24.336954 37.46436 
L 24.701208 37.39056 
L 25.065462 37.50372 
L 25.79397 37.01172 
L 26.158224 36.16056 
L 26.522478 34.4976 
L 26.886732 33.69072 
L 27.61524 32.89368 
L 27.979494 31.73256 
L 28.343748 31.68336 
L 28.708002 31.8162 
L 29.072256 32.64276 
L 29.43651 32.0868 
L 30.165018 31.85064 
L 30.529272 30.98964 
L 30.893526 31.53576 
L 31.25778 31.521 
L 31.622034 31.38816 
L 31.986288 32.17044 
L 32.350542 33.68088 
L 32.714796 34.28604 
L 33.07905 33.58248 
L 33.443304 32.0376 
L 33.807558 32.76576 
L 34.171812 32.259 
L 34.536066 30.65508 
L 34.90032 29.93676 
L 35.264574 28.14588 
L 35.993082 28.40664 
L 36.357336 25.73508 
L 36.72159 24.62316 
L 37.085844 26.10408 
L 37.450098 26.97984 
L 37.814352 27.00936 
L 38.178606 26.58132 
L 38.54286 27.7818 
L 38.907114 29.49888 
L 39.271368 27.68832 
L 39.635622 28.44108 
L 39.999876 24.16068 
L 40.36413 24.55428 
L 40.728383 24.51984 
L 41.092637 27.32916 
L 41.456891 25.7646 
L 41.821145 26.48784 
L 42.185399 26.43372 
L 42.549653 27.44724 
L 43.278161 27.27504 
L 43.642415 27.8802 
L 44.006669 27.72276 
L 44.370923 26.84208 
L 44.735177 27.91956 
L 45.099431 27.8556 
L 45.463685 28.09668 
L 45.827939 27.87528 
L 46.556447 27.83592 
L 46.920701 27.57024 
L 47.284955 26.77812 
L 47.649209 25.01184 
L 48.377717 25.71048 
L 48.741971 26.31564 
L 49.106225 26.45832 
L 49.470479 25.8384 
L 49.834733 25.84824 
L 50.198987 26.6994 
L 50.563241 26.62068 
L 50.927495 26.8224 
L 51.291749 28.61328 
L 52.020257 28.97244 
L 52.384511 30.99456 
L 52.748765 29.76456 
L 53.113019 29.8974 
L 53.477273 29.02164 
L 53.841527 28.50012 
L 54.205781 29.00688 
L 54.934289 26.601 
L 55.298543 26.3796 
L 55.662797 26.5764 
L 56.027051 26.3796 
L 56.391305 25.1496 
L 56.755559 26.81256 
L 57.119813 26.29596 
L 57.484067 27.41772 
L 57.848321 31.19136 
L 58.212575 31.80144 
L 58.576829 28.89864 
L 58.941083 28.28364 
L 60.033845 30.80268 
L 60.398099 31.22088 
L 60.762353 30.8076 
L 61.126607 30.13356 
L 61.490861 30.17784 
L 62.219369 31.42752 
L 62.583623 31.04376 
L 62.947877 30.49764 
L 63.312131 30.3648 
L 63.676385 28.88388 
L 64.040639 29.15448 
L 64.404893 30.15324 
L 65.133401 31.4226 
L 65.861909 30.9306 
L 66.226163 30.66 
L 66.954671 34.99944 
L 67.318925 34.07448 
L 67.683179 34.9158 
L 68.047433 34.02528 
L 68.411687 34.26144 
L 68.775941 33.0216 
L 69.140195 33.10524 
L 69.504449 34.1532 
L 69.868703 34.2024 
L 70.597211 36.34752 
L 70.961465 35.89488 
L 71.689973 36.94776 
L 72.054227 36.2688 
L 72.418481 36.97236 
L 72.782735 38.286 
L 73.146989 38.76324 
L 73.511243 38.73864 
L 73.875497 38.51724 
L 74.239751 37.42992 
L 74.604005 37.42008 
L 74.968259 36.90348 
L 75.332513 36.98712 
L 75.696767 36.86412 
L 76.061021 37.16424 
L 76.425275 37.14948 
L 76.789529 38.52216 
L 77.518037 35.71776 
L 77.882291 36.15564 
L 78.246545 36.93792 
L 78.975053 36.72636 
L 79.339307 36.21468 
L 79.703561 34.8174 
L 80.067815 34.7928 
L 80.432069 35.42748 
L 80.796323 36.49512 
L 81.160577 36.28356 
L 81.524831 36.6378 
L 81.889085 37.3512 
L 82.253339 37.3512 
L 82.617593 38.31552 
L 82.981847 38.32536 
L 83.346101 37.26264 
L 83.710355 37.26264 
L 84.074609 37.09044 
L 84.438863 37.06092 
L 84.803117 37.34628 
L 85.167371 37.48404 
L 85.531625 37.77924 
L 86.260133 37.45944 
L 86.988641 37.56276 
L 87.352895 37.31184 
L 87.717149 37.33644 
L 88.081403 37.09536 
L 88.445657 36.23928 
L 89.174165 36.11628 
L 89.902673 35.0142 
L 90.266927 35.93424 
L 90.631181 36.36228 
L 90.995435 36.50988 
L 91.359689 36.5148 
L 91.723943 36.25404 
L 92.088197 36.46068 
L 92.452451 34.83708 
L 92.816705 34.57632 
L 93.545213 35.00436 
L 93.909467 34.93056 
L 94.273721 35.088 
L 94.637975 35.78664 
L 95.002229 37.55292 
L 95.366483 37.26756 
L 95.730737 37.46436 
L 96.459245 37.45944 
L 96.823499 38.41392 
L 97.552007 36.95268 
L 97.916261 37.05108 
L 98.280515 38.37948 
L 98.644769 39.20604 
L 99.009023 41.03136 
L 99.373277 42.26628 
L 99.737531 41.73492 
L 100.045043 42.23676 
L 100.698579 44.89356 
L 101.061274 43.6242 
L 101.795102 43.53072 
L 102.161434 43.72752 
L 102.887877 44.436 
L 103.252021 44.49012 
L 103.611895 43.81608 
L 103.956928 43.7226 
L 104.344547 44.5344 
L 104.663046 44.19 
L 105.072477 44.21952 
L 105.798414 44.51472 
L 106.528857 44.3868 
L 106.894207 45.174 
L 107.227689 45.23796 
L 107.621404 44.81484 
L 107.984035 43.821 
L 108.347597 44.01288 
L 108.707559 44.66232 
L 109.080089 43.93908 
L 109.440583 44.39664 
L 109.805684 44.12112 
L 110.167897 44.33268 
L 110.532936 43.3044 
L 110.897017 43.6242 
L 111.258476 44.29824 
L 111.626267 44.53932 
L 111.991613 44.30808 
L 112.353527 43.8702 
L 112.717637 44.00304 
L 113.083325 43.97844 
L 113.446875 43.41756 
L 114.181867 43.48644 
L 114.905029 41.73984 
L 115.272061 41.7546 
L 115.997125 43.14204 
L 116.359246 43.083 
L 116.728947 43.35852 
L 117.094056 43.78164 
L 117.454938 43.21584 
L 117.846321 42.9354 
L 118.187877 43.10268 
L 118.913362 44.25396 
L 120.00983 43.74228 
L 120.377208 43.46676 
L 121.101335 43.79148 
L 121.832208 43.77672 
L 122.197402 43.2552 
L 122.559291 43.40772 
L 122.924136 42.49752 
L 123.287121 42.90588 
L 123.654726 42.8616 
L 124.013411 42.41388 
L 124.750321 42.79764 
L 125.112257 41.57256 
L 125.476232 41.86284 
L 125.842063 41.63652 
L 126.205575 41.85792 
L 126.565811 41.22324 
L 127.300032 42.1482 
L 127.662688 41.96616 
L 128.025812 41.59224 
L 128.756761 41.99076 
L 129.116668 41.91696 
L 129.486589 41.98584 
L 129.854768 41.41512 
L 130.219785 42.15312 
L 130.583044 41.96124 
L 130.947909 42.43848 
L 131.671101 42.02028 
L 132.042749 42.0252 
L 132.406877 41.40528 
L 133.133779 41.52336 
L 133.856321 42.1974 
L 134.221907 41.8776 
L 134.960631 41.8038 
L 135.319825 41.976 
L 135.685812 42.00552 
L 136.049661 42.3942 
L 136.415711 42.27612 
L 137.512799 43.31424 
L 137.874443 43.2306 
L 138.24 43.39296 
L 138.24 43.39296 
" clip-path="url(#pbf65df495f)" style="fill: none; stroke: #4a8dff; stroke-width: 0.6; stroke-linecap: round"/>
   </g>
   <g id="line2d_7">
    <path d="M 5.76 32.81004 
L 6.124254 31.38816 
L 6.488508 30.45336 
L 6.852762 32.59848 
L 7.217016 32.29344 
L 7.58127 31.78176 
L 7.945524 31.53084 
L 8.309778 31.68336 
L 8.674032 32.28852 
L 9.40254 34.1778 
L 9.766794 33.84324 
L 10.131048 33.3414 
L 10.495302 33.25284 
L 11.22381 33.7842 
L 11.588064 35.34384 
L 11.952318 33.981 
L 12.316572 33.35616 
L 12.680826 33.35124 
L 13.04508 31.09296 
L 13.409334 31.11756 
L 13.773588 31.87524 
L 14.137842 33.20856 
L 14.502096 33.17412 
L 14.86635 33.45456 
L 15.230604 33.4152 
L 15.594858 32.7264 
L 15.959112 33.84816 
L 16.68762 33.84324 
L 17.780382 35.73744 
L 18.144636 33.4398 
L 18.50889 33.20856 
L 18.873144 32.58372 
L 19.237398 32.71164 
L 19.965906 32.53944 
L 20.33016 32.013 
L 21.058668 33.3906 
L 21.422922 31.80144 
L 21.787176 31.41768 
L 22.15143 32.19012 
L 22.515684 32.10156 
L 22.879938 31.60956 
L 23.244192 32.0622 
L 23.608446 31.73748 
L 23.9727 30.56652 
L 24.336954 28.31808 
L 24.701208 27.48168 
L 25.065462 27.55548 
L 25.429716 26.71908 
L 25.79397 26.36484 
L 26.158224 27.42756 
L 26.886732 26.55672 
L 27.250986 27.27504 
L 27.61524 27.31932 
L 27.979494 27.63912 
L 28.343748 27.52596 
L 28.708002 26.3058 
L 29.072256 26.96016 
L 29.43651 27.09792 
L 29.800764 27.49644 
L 30.165018 27.2898 
L 30.529272 26.57148 
L 30.893526 27.27012 
L 31.622034 27.35376 
L 32.350542 29.62188 
L 32.714796 29.96136 
L 33.07905 29.14956 
L 33.443304 28.68216 
L 33.807558 29.184 
L 34.171812 28.7412 
L 34.536066 27.5358 
L 34.90032 27.91956 
L 35.264574 28.00812 
L 35.628828 26.64528 
L 35.993082 26.88636 
L 36.357336 26.1828 
L 36.72159 24.52476 
L 37.085844 27.0684 
L 37.450098 27.59484 
L 38.178606 27.49644 
L 38.54286 28.13112 
L 38.907114 29.8482 
L 39.271368 29.12004 
L 39.635622 30.03024 
L 39.999876 27.84576 
L 40.728383 29.54316 
L 41.092637 31.13232 
L 41.456891 30.31068 
L 41.821145 30.62064 
L 42.185399 29.97612 
L 42.549653 31.97364 
L 42.913907 31.82112 
L 43.278161 32.0868 
L 43.642415 31.63416 
L 44.006669 30.6354 
L 44.370923 30.37464 
L 44.735177 30.86172 
L 45.099431 30.89616 
L 45.463685 31.11756 
L 46.192193 30.22212 
L 46.556447 30.45828 
L 46.920701 29.2578 
L 47.284955 28.50504 
L 47.649209 28.18032 
L 48.013463 28.2738 
L 48.377717 28.569 
L 48.741971 28.55424 
L 49.106225 27.8802 
L 49.470479 28.03272 
L 49.834733 27.69324 
L 50.198987 28.42632 
L 50.563241 28.3968 
L 50.927495 28.60344 
L 51.291749 29.88756 
L 51.656003 30.22212 
L 52.020257 29.58252 
L 52.384511 31.73256 
L 52.748765 31.36356 
L 53.113019 31.39308 
L 53.841527 29.09544 
L 54.205781 29.2332 
L 54.570035 27.02412 
L 55.298543 25.16928 
L 55.662797 25.10532 
L 56.391305 23.92452 
L 56.755559 25.53336 
L 57.119813 24.62808 
L 57.484067 25.4448 
L 57.848321 29.64156 
L 58.212575 30.80268 
L 58.576829 28.65756 
L 58.941083 28.6428 
L 59.669591 30.87156 
L 60.033845 32.17044 
L 60.398099 32.97732 
L 60.762353 32.628 
L 61.126607 31.90476 
L 61.490861 30.92076 
L 61.855115 31.96872 
L 62.219369 32.39676 
L 62.583623 31.19628 
L 63.312131 30.42384 
L 63.676385 29.0118 
L 64.040639 29.15448 
L 64.404893 29.76456 
L 64.769147 31.2012 
L 65.133401 32.09172 
L 65.497655 31.43244 
L 66.226163 30.90108 
L 66.954671 35.35368 
L 67.318925 34.24668 
L 67.683179 35.5062 
L 68.047433 34.48284 
L 68.411687 35.02896 
L 68.775941 33.8334 
L 69.140195 33.243 
L 69.504449 34.69932 
L 70.232957 36.2934 
L 70.597211 38.901 
L 70.961465 38.37948 
L 71.325719 38.92068 
L 71.689973 40.09164 
L 72.054227 39.70788 
L 72.418481 40.4262 
L 72.782735 42.75336 
L 73.146989 43.54548 
L 73.511243 43.72752 
L 74.239751 41.976 
L 74.604005 42.42864 
L 74.968259 40.86408 
L 75.332513 40.47048 
L 76.425275 40.89852 
L 76.789529 42.9354 
L 77.153783 40.43604 
L 77.518037 39.31428 
L 77.882291 40.04244 
L 78.246545 41.43972 
L 78.610799 41.47416 
L 78.975053 41.02152 
L 79.339307 40.7952 
L 79.703561 39.75708 
L 80.067815 40.11132 
L 80.432069 39.87024 
L 80.796323 40.94772 
L 81.160577 40.97232 
L 81.889085 42.87144 
L 82.253339 42.17772 
L 82.617593 43.04364 
L 82.981847 43.34868 
L 83.346101 42.03504 
L 84.074609 41.8038 
L 84.438863 41.84316 
L 84.803117 42.37944 
L 85.167371 42.26628 
L 85.531625 42.468 
L 85.895879 42.42864 
L 86.260133 42.18264 
L 86.624387 42.1728 
L 86.988641 42.50244 
L 87.352895 41.88252 
L 87.717149 42.32532 
L 88.445657 41.13468 
L 89.174165 40.42128 
L 89.538419 39.16176 
L 89.902673 39.28968 
L 90.266927 40.48032 
L 91.359689 40.88376 
L 92.088197 40.53936 
L 92.452451 38.50248 
L 92.816705 37.63656 
L 93.180959 38.34012 
L 93.545213 38.37456 
L 93.909467 38.5812 
L 94.637975 39.8358 
L 95.002229 41.93172 
L 95.366483 41.42004 
L 96.094991 41.39052 
L 96.459245 41.5086 
L 96.823499 42.80256 
L 97.187753 41.93664 
L 97.552007 41.49384 
L 97.916261 41.51352 
L 98.280515 43.78164 
L 98.644769 43.9932 
L 99.009023 46.66968 
L 99.373277 47.55036 
L 99.737531 46.64508 
L 100.334511 48.89352 
L 100.698579 49.84308 
L 101.061274 49.00176 
L 101.433854 49.233 
L 101.795102 48.97716 
L 102.524934 49.36092 
L 103.252021 49.58724 
L 103.611895 49.28712 
L 103.956928 49.16904 
L 104.344547 49.39044 
L 104.663046 49.29696 
L 105.436289 49.55772 
L 106.528857 49.41996 
L 106.894207 49.8234 
L 107.227689 49.86768 
L 107.621404 49.72992 
L 107.984035 49.39536 
L 108.707559 49.6758 
L 109.080089 49.47408 
L 109.440583 49.60692 
L 109.805684 49.37568 
L 110.167897 49.36584 
L 110.532936 48.6672 
L 111.626267 49.54788 
L 111.991613 49.5282 
L 112.353527 49.09032 
L 113.083325 49.2084 
L 113.446875 48.93288 
L 114.181867 48.89844 
L 114.905029 48.1998 
L 115.272061 48.28344 
L 115.636417 48.88368 
L 115.997125 49.04604 
L 116.359246 49.00176 
L 117.094056 49.38552 
L 117.454938 49.04112 
L 117.846321 48.92796 
L 118.187877 48.987 
L 118.913362 49.66104 
L 120.377208 49.40028 
L 120.736664 49.56756 
L 121.462469 49.56264 
L 121.832208 49.53312 
L 122.197402 49.25268 
L 122.559291 49.29696 
L 122.924136 48.89352 
L 123.287121 48.96732 
L 124.013411 48.5934 
L 124.3842 48.84432 
L 124.750321 48.95748 
L 125.112257 48.30804 
L 125.476232 48.34248 
L 125.842063 48.21456 
L 126.205575 48.26376 
L 126.565811 47.41752 
L 126.934876 48.05712 
L 127.300032 48.26376 
L 127.662688 48.01776 
L 128.025812 47.23548 
L 129.116668 47.1666 
L 129.486589 47.31912 
L 129.854768 46.49256 
L 130.219785 47.64876 
L 130.583044 47.5356 
L 130.947909 48.0276 
L 131.671101 46.81728 
L 132.042749 46.92552 
L 132.406877 45.85788 
L 133.133779 45.29208 
L 133.49813 45.58728 
L 133.856321 46.2564 
L 134.221907 45.7152 
L 135.685812 45.42492 
L 136.049661 46.38432 
L 136.415711 45.57744 
L 136.775315 46.51716 
L 137.512799 47.54544 
L 138.24 47.66844 
L 138.24 47.66844 
" clip-path="url(#pbf65df495f)" style="fill: none; stroke: #f5841e; stroke-width: 0.7; stroke-linecap: round"/>
   </g>
  </g>
 </g>
 <defs>
  <clipPath id="pbf65df495f">
   <rect x="5.76" y="3.6" width="132.48" height="49.2"/>
  </clipPath>
 </defs>
</svg>
