<?xml version="1.0" encoding="utf-8" standalone="no"?>
<!DOCTYPE svg PUBLIC "-//W3C//DTD SVG 1.1//EN"
  "http://www.w3.org/Graphics/SVG/1.1/DTD/svg11.dtd">
<svg xmlns:xlink="http://www.w3.org/1999/xlink" width="144pt" height="60pt" viewBox="0 0 144 60" xmlns="http://www.w3.org/2000/svg" version="1.1">
  <desc id="nav-meta">{"window":"3m","count":4,"labels":["03.02","05.03","04.04","04.05"],"tick_utc":["2026-02-03T12:00:00Z","2026-03-05T03:17:19Z","2026-04-04T03:24:53Z","2026-05-04T04:31:15Z"]}</desc>

 <metadata>
  <rdf:RDF xmlns:dc="http://purl.org/dc/elements/1.1/" xmlns:cc="http://creativecommons.org/ns#" xmlns:rdf="http://www.w3.org/1999/02/22-rdf-syntax-ns#">
   <cc:Work>
    <dc:type rdf:resource="http://purl.org/dc/dcmitype/StillImage"/>
    <dc:date>2026-05-04T09:09:33.673422</dc:date>
    <dc:format>image/svg+xml</dc:format>
    <dc:creator>
     <cc:Agent>
      <dc:title>Matplotlib v3.10.9, https://matplotlib.org/</dc:title>
     </cc:Agent>
    </dc:creator>
   </cc:Work>
  </rdf:RDF>
 </metadata>
 <defs>
  <style type="text/css">*{stroke-linejoin: round; stroke-linecap: butt}</style>
 </defs>
 <g id="figure_1">
  <g id="patch_1">
   <path d="M 0 60 
L 144 60 
L 144 0 
L 0 0 
L 0 60 
z
" style="fill: none; opacity: 0"/>
  </g>
  <g id="axes_1">
   <g id="patch_2">
    <path d="M 5.76 52.8 
L 138.24 52.8 
L 138.24 3.6 
L 5.76 3.6 
L 5.76 52.8 
z
" style="fill: none"/>
   </g>
   <g id="matplotlib.axis_1"/>
   <g id="matplotlib.axis_2"/>
   <g id="line2d_1">
    <path d="M 5.76 42.96 
L 138.24 42.96 
" clip-path="url(#pbe3be48f8d)" style="fill: none; stroke: #b2b2b2; stroke-opacity: 0.35; stroke-width: 0.5; stroke-linecap: square"/>
   </g>
   <g id="line2d_2">
    <path d="M 5.76 33.12 
L 138.24 33.12 
" clip-path="url(#pbe3be48f8d)" style="fill: none; stroke: #b2b2b2; stroke-opacity: 0.35; stroke-width: 0.5; stroke-linecap: square"/>
   </g>
   <g id="line2d_3">
    <path d="M 5.76 23.28 
L 138.24 23.28 
" clip-path="url(#pbe3be48f8d)" style="fill: none; stroke: #b2b2b2; stroke-opacity: 0.35; stroke-width: 0.5; stroke-linecap: square"/>
   </g>
   <g id="line2d_4">
    <path d="M 5.76 13.44 
L 138.24 13.44 
" clip-path="url(#pbe3be48f8d)" style="fill: none; stroke: #b2b2b2; stroke-opacity: 0.35; stroke-width: 0.5; stroke-linecap: square"/>
   </g>
   <g id="line2d_5">
    <path d="M 5.76 47.96364 
L 7.007016 48.55896 
L 8.180861 49.06572 
L 9.657223 50.04972 
L 11.128012 49.24776 
L 12.638892 49.32156 
L 14.103817 49.31172 
L 15.58936 49.43964 
L 17.063415 49.59708 
L 18.535212 49.80372 
L 20.011882 49.86768 
L 21.471234 49.479 
L 22.870407 49.24776 
L 24.442269 49.48392 
L 25.733838 49.37568 
L 27.394156 49.479 
L 28.869475 49.7004 
L 30.337956 49.62168 
L 31.806044 49.5282 
L 33.300033 49.49376 
L 34.781592 49.98576 
L 36.133922 49.96608 
L 37.730505 49.7004 
L 39.201037 49.27236 
L 40.675348 49.37076 
L 42.135059 49.68072 
L 43.645733 49.25268 
L 45.107598 49.51344 
L 46.588149 49.4052 
L 48.056989 49.34124 
L 49.537284 49.09032 
L 51.013697 49.24284 
L 52.479477 49.49868 
L 53.970936 49.64628 
L 55.452478 49.58724 
L 56.920104 49.36092 
L 58.396638 49.41996 
L 59.879565 49.45932 
L 61.353825 49.16904 
L 62.828973 49.22808 
L 64.334348 49.27236 
L 65.815634 48.87384 
L 67.266899 48.74592 
L 68.75528 48.70164 
L 70.232805 49.03128 
L 71.695542 49.1592 
L 73.164006 49.08048 
L 74.663209 49.21332 
L 76.143794 49.36584 
L 77.607231 49.11 
L 79.19436 48.90828 
L 80.579429 49.05096 
L 82.058407 49.37076 
L 83.5214 49.64628 
L 85.018637 49.6266 
L 86.499974 49.602 
L 87.967771 49.59708 
L 89.457554 49.59708 
L 90.915214 49.8726 
L 92.394021 49.88244 
L 93.858484 49.80864 
L 95.357841 49.78896 
L 96.838768 49.69056 
L 98.306292 49.83816 
L 99.7858 49.50852 
L 101.257768 49.68564 
L 102.748475 49.6266 
L 104.203005 49.48884 
L 105.706619 49.6512 
L 107.191307 49.69056 
L 108.659019 49.40028 
L 110.135005 49.58724 
L 111.618514 49.45932 
L 113.092619 49.27728 
L 114.553441 49.19856 
L 116.050063 49.43472 
L 117.530836 49.50852 
L 119.001471 49.46424 
L 120.474004 49.31664 
L 121.957102 49.4298 
L 123.438132 49.42488 
L 124.89762 49.37568 
L 126.397712 49.4052 
L 127.890743 49.29204 
L 129.370952 49.5528 
L 130.844032 49.50852 
L 132.323626 49.64136 
L 133.816879 49.56756 
L 135.256297 49.56264 
L 136.763398 49.57248 
L 138.24 49.42488 
" clip-path="url(#pbe3be48f8d)" style="fill: none; stroke: #bebebe; stroke-width: 0.6; stroke-linecap: round"/>
   </g>
   <g id="line2d_6">
    <path d="M 5.76 41.73492 
L 7.007016 42.23676 
L 8.180861 43.38804 
L 9.657223 44.89356 
L 11.128012 43.6242 
L 12.638892 43.575 
L 14.103817 43.53072 
L 15.58936 43.72752 
L 17.063415 44.0916 
L 18.535212 44.436 
L 20.011882 44.49012 
L 21.471234 43.81608 
L 22.870407 43.7226 
L 24.442269 44.5344 
L 25.733838 44.19 
L 27.394156 44.21952 
L 28.869475 44.3868 
L 30.337956 44.51472 
L 31.806044 44.4606 
L 33.300033 44.3868 
L 34.781592 45.174 
L 36.133922 45.23796 
L 37.730505 44.81484 
L 39.201037 43.821 
L 40.675348 44.01288 
L 42.135059 44.66232 
L 43.645733 43.93908 
L 45.107598 44.39664 
L 46.588149 44.12112 
L 48.056989 44.33268 
L 49.537284 43.3044 
L 51.013697 43.6242 
L 52.479477 44.29824 
L 53.970936 44.53932 
L 55.452478 44.30808 
L 56.920104 43.8702 
L 58.396638 44.00304 
L 59.879565 43.97844 
L 61.353825 43.41756 
L 62.828973 43.48152 
L 64.334348 43.48644 
L 65.815634 42.49752 
L 67.266899 41.73984 
L 68.75528 41.7546 
L 70.232805 42.591 
L 71.695542 43.14204 
L 73.164006 43.083 
L 74.663209 43.35852 
L 76.143794 43.78164 
L 77.607231 43.21584 
L 79.19436 42.9354 
L 80.579429 43.10268 
L 82.058407 43.72752 
L 83.5214 44.25396 
L 85.018637 44.10636 
L 86.499974 43.9194 
L 87.967771 43.74228 
L 89.457554 43.46676 
L 90.915214 43.65372 
L 92.394021 43.79148 
L 93.858484 43.81116 
L 95.357841 43.77672 
L 96.838768 43.2552 
L 98.306292 43.40772 
L 99.7858 42.49752 
L 101.257768 42.90588 
L 102.748475 42.8616 
L 104.203005 42.41388 
L 105.706619 42.63036 
L 107.191307 42.79764 
L 108.659019 41.57256 
L 110.135005 41.86284 
L 111.618514 41.63652 
L 113.092619 41.85792 
L 114.553441 41.22324 
L 116.050063 41.76936 
L 117.530836 42.1482 
L 119.001471 41.96616 
L 120.474004 41.59224 
L 121.957102 41.76936 
L 123.438132 41.99076 
L 124.89762 41.91696 
L 126.397712 41.98584 
L 127.890743 41.41512 
L 129.370952 42.15312 
L 130.844032 41.96124 
L 132.323626 42.43848 
L 133.816879 42.20232 
L 135.256297 42.02028 
L 136.763398 42.0252 
L 138.24 41.40528 
" clip-path="url(#pbe3be48f8d)" style="fill: none; stroke: #4a8dff; stroke-width: 0.6; stroke-linecap: round"/>
   </g>
   <g id="line2d_7">
    <path d="M 5.76 46.64508 
L 7.007016 47.89476 
L 8.180861 48.89352 
L 9.657223 49.84308 
L 11.128012 49.00176 
L 12.638892 49.233 
L 14.103817 48.97716 
L 15.58936 49.22316 
L 17.063415 49.36092 
L 18.535212 49.49868 
L 20.011882 49.58724 
L 21.471234 49.28712 
L 22.870407 49.16904 
L 24.442269 49.39044 
L 25.733838 49.29696 
L 27.394156 49.479 
L 28.869475 49.55772 
L 30.337956 49.51344 
L 31.806044 49.44948 
L 33.300033 49.41996 
L 34.781592 49.8234 
L 36.133922 49.86768 
L 37.730505 49.72992 
L 39.201037 49.39536 
L 40.675348 49.52328 
L 42.135059 49.6758 
L 43.645733 49.47408 
L 45.107598 49.60692 
L 46.588149 49.37568 
L 48.056989 49.36584 
L 49.537284 48.6672 
L 51.013697 48.95256 
L 52.479477 49.36092 
L 53.970936 49.54788 
L 55.452478 49.5282 
L 56.920104 49.09032 
L 58.396638 49.16412 
L 59.879565 49.2084 
L 61.353825 48.93288 
L 62.828973 48.95748 
L 64.334348 48.89844 
L 65.815634 48.48024 
L 67.266899 48.1998 
L 68.75528 48.28344 
L 70.232805 48.88368 
L 71.695542 49.04604 
L 73.164006 49.00176 
L 74.663209 49.20348 
L 76.143794 49.38552 
L 77.607231 49.04112 
L 79.19436 48.92796 
L 80.579429 48.987 
L 82.058407 49.29204 
L 83.5214 49.66104 
L 85.018637 49.56756 
L 86.499974 49.53312 
L 87.967771 49.46424 
L 89.457554 49.40028 
L 90.915214 49.56756 
L 92.394021 49.59708 
L 93.858484 49.56264 
L 95.357841 49.53312 
L 96.838768 49.25268 
L 98.306292 49.29696 
L 99.7858 48.89352 
L 101.257768 48.96732 
L 102.748475 48.8148 
L 104.203005 48.5934 
L 105.706619 48.84432 
L 107.191307 48.95748 
L 108.659019 48.30804 
L 110.135005 48.34248 
L 111.618514 48.21456 
L 113.092619 48.26376 
L 114.553441 47.41752 
L 116.050063 48.05712 
L 117.530836 48.26376 
L 119.001471 48.01776 
L 120.474004 47.23548 
L 121.957102 47.17644 
L 123.438132 47.15676 
L 124.89762 47.1666 
L 126.397712 47.31912 
L 127.890743 46.49256 
L 129.370952 47.64876 
L 130.844032 47.5356 
L 132.323626 48.0276 
L 133.816879 47.50608 
L 135.256297 46.81728 
L 136.763398 46.92552 
L 138.24 45.85788 
" clip-path="url(#pbe3be48f8d)" style="fill: none; stroke: #f5841e; stroke-width: 0.7; stroke-linecap: round"/>
   </g>
  </g>
 </g>
 <defs>
  <clipPath id="pbe3be48f8d">
   <rect x="5.76" y="3.6" width="132.48" height="49.2"/>
  </clipPath>
 </defs>
</svg>
