<?xml version="1.0" encoding="utf-8" standalone="no"?>
<!DOCTYPE svg PUBLIC "-//W3C//DTD SVG 1.1//EN"
  "http://www.w3.org/Graphics/SVG/1.1/DTD/svg11.dtd">
<svg xmlns:xlink="http://www.w3.org/1999/xlink" width="144pt" height="60pt" viewBox="0 0 144 60" xmlns="http://www.w3.org/2000/svg" version="1.1">
  <desc id="nav-meta">{"window":"1m","count":4,"labels":["10.05","20.05","29.05","08.06"],"tick_utc":["2026-05-10T04:35:36Z","2026-05-20T04:51:15Z","2026-05-29T04:59:49Z","2026-06-08T05:18:19Z"]}</desc>

 <metadata>
  <rdf:RDF xmlns:dc="http://purl.org/dc/elements/1.1/" xmlns:cc="http://creativecommons.org/ns#" xmlns:rdf="http://www.w3.org/1999/02/22-rdf-syntax-ns#">
   <cc:Work>
    <dc:type rdf:resource="http://purl.org/dc/dcmitype/StillImage"/>
    <dc:date>2026-06-08T05:18:20.213486</dc:date>
    <dc:format>image/svg+xml</dc:format>
    <dc:creator>
     <cc:Agent>
      <dc:title>Matplotlib v3.10.9, https://matplotlib.org/</dc:title>
     </cc:Agent>
    </dc:creator>
   </cc:Work>
  </rdf:RDF>
 </metadata>
 <defs>
  <style type="text/css">*{stroke-linejoin: round; stroke-linecap: butt}</style>
 </defs>
 <g id="figure_1">
  <g id="patch_1">
   <path d="M 0 60 
L 144 60 
L 144 0 
L 0 0 
L 0 60 
z
" style="fill: none; opacity: 0"/>
  </g>
  <g id="axes_1">
   <g id="patch_2">
    <path d="M 5.76 52.8 
L 138.24 52.8 
L 138.24 3.6 
L 5.76 3.6 
L 5.76 52.8 
z
" style="fill: none"/>
   </g>
   <g id="matplotlib.axis_1"/>
   <g id="matplotlib.axis_2"/>
   <g id="line2d_1">
    <path d="M 5.76 42.96 
L 138.24 42.96 
" clip-path="url(#p4755afe045)" style="fill: none; stroke: #b2b2b2; stroke-opacity: 0.35; stroke-width: 0.5; stroke-linecap: square"/>
   </g>
   <g id="line2d_2">
    <path d="M 5.76 33.12 
L 138.24 33.12 
" clip-path="url(#p4755afe045)" style="fill: none; stroke: #b2b2b2; stroke-opacity: 0.35; stroke-width: 0.5; stroke-linecap: square"/>
   </g>
   <g id="line2d_3">
    <path d="M 5.76 23.28 
L 138.24 23.28 
" clip-path="url(#p4755afe045)" style="fill: none; stroke: #b2b2b2; stroke-opacity: 0.35; stroke-width: 0.5; stroke-linecap: square"/>
   </g>
   <g id="line2d_4">
    <path d="M 5.76 13.44 
L 138.24 13.44 
" clip-path="url(#p4755afe045)" style="fill: none; stroke: #b2b2b2; stroke-opacity: 0.35; stroke-width: 0.5; stroke-linecap: square"/>
   </g>
   <g id="line2d_5">
    <path d="M 5.76 48.85416 
L 10.359631 48.72132 
L 14.859855 48.63276 
L 19.445171 48.66228 
L 24.003708 49.09524 
L 28.589817 48.99192 
L 33.095165 49.19364 
L 37.72691 49.34616 
L 42.334833 49.47408 
L 46.865746 49.47408 
L 51.445675 49.54788 
L 56.03527 49.3314 
L 60.563911 49.34616 
L 65.064822 49.51836 
L 69.700686 49.41996 
L 74.32435 49.41504 
L 78.818817 49.5282 
L 83.429276 49.5774 
L 87.978305 49.7742 
L 92.545293 49.7004 
L 97.043088 49.69548 
L 101.699869 49.61676 
L 106.33098 49.71024 
L 110.849691 49.7988 
L 115.46464 50.19732 
L 120.012613 50.45808 
L 124.501058 50.59092 
L 128.994522 50.99928 
L 133.656215 50.82216 
L 138.24 50.74344 
" clip-path="url(#p4755afe045)" style="fill: none; stroke: #bebebe; stroke-width: 0.6; stroke-linecap: round"/>
   </g>
   <g id="line2d_6">
    <path d="M 5.76 41.84316 
L 10.359631 41.8038 
L 14.859855 41.976 
L 19.445171 42.00552 
L 24.003708 42.3942 
L 28.589817 42.27612 
L 33.095165 42.57624 
L 37.72691 42.85176 
L 42.334833 43.31424 
L 46.865746 43.2306 
L 51.445675 43.39296 
L 56.03527 43.16172 
L 60.563911 43.24536 
L 65.064822 43.71768 
L 69.700686 43.33392 
L 74.32435 43.42248 
L 78.818817 43.51596 
L 83.429276 43.67832 
L 87.978305 44.32776 
L 92.545293 44.13588 
L 97.043088 44.16048 
L 101.699869 43.96368 
L 106.33098 44.2392 
L 110.849691 44.19984 
L 115.46464 45.16908 
L 120.012613 45.67584 
L 124.501058 46.00548 
L 128.994522 47.57004 
L 133.656215 47.04852 
L 138.24 46.64016 
" clip-path="url(#p4755afe045)" style="fill: none; stroke: #4a8dff; stroke-width: 0.6; stroke-linecap: round"/>
   </g>
   <g id="line2d_7">
    <path d="M 5.76 45.63648 
L 10.359631 45.6414 
L 14.859855 45.45936 
L 19.445171 45.42492 
L 24.003708 46.38432 
L 28.589817 45.57744 
L 33.095165 46.51716 
L 37.72691 46.95996 
L 42.334833 47.54544 
L 46.865746 47.59464 
L 51.445675 47.66844 
L 56.03527 47.05344 
L 60.563911 47.22564 
L 65.064822 48.07188 
L 69.700686 47.6832 
L 74.32435 47.37324 
L 78.818817 47.66844 
L 83.429276 48.07188 
L 87.978305 48.59832 
L 92.545293 48.52452 
L 97.043088 48.5688 
L 101.699869 48.38676 
L 106.33098 48.55404 
L 110.849691 49.0116 
L 115.46464 49.57248 
L 120.012613 49.93656 
L 124.501058 49.98084 
L 128.994522 50.3646 
L 133.656215 50.15796 
L 138.24 50.07432 
" clip-path="url(#p4755afe045)" style="fill: none; stroke: #f5841e; stroke-width: 0.7; stroke-linecap: round"/>
   </g>
  </g>
 </g>
 <defs>
  <clipPath id="p4755afe045">
   <rect x="5.76" y="3.6" width="132.48" height="49.2"/>
  </clipPath>
 </defs>
</svg>
