<?xml version="1.0" encoding="utf-8" standalone="no"?>
<!DOCTYPE svg PUBLIC "-//W3C//DTD SVG 1.1//EN"
  "http://www.w3.org/Graphics/SVG/1.1/DTD/svg11.dtd">
<svg xmlns:xlink="http://www.w3.org/1999/xlink" width="144pt" height="60pt" viewBox="0 0 144 60" xmlns="http://www.w3.org/2000/svg" version="1.1">
  <desc id="nav-meta">{"window":"3m","count":4,"labels":["17.01","16.02","18.03","17.04"],"tick_utc":["2026-01-17T12:00:00Z","2026-02-16T03:32:51Z","2026-03-18T03:32:26Z","2026-04-17T03:55:44Z"]}</desc>

 <metadata>
  <rdf:RDF xmlns:dc="http://purl.org/dc/elements/1.1/" xmlns:cc="http://creativecommons.org/ns#" xmlns:rdf="http://www.w3.org/1999/02/22-rdf-syntax-ns#">
   <cc:Work>
    <dc:type rdf:resource="http://purl.org/dc/dcmitype/StillImage"/>
    <dc:date>2026-04-17T08:15:37.806144</dc:date>
    <dc:format>image/svg+xml</dc:format>
    <dc:creator>
     <cc:Agent>
      <dc:title>Matplotlib v3.10.8, https://matplotlib.org/</dc:title>
     </cc:Agent>
    </dc:creator>
   </cc:Work>
  </rdf:RDF>
 </metadata>
 <defs>
  <style type="text/css">*{stroke-linejoin: round; stroke-linecap: butt}</style>
 </defs>
 <g id="figure_1">
  <g id="patch_1">
   <path d="M 0 60 
L 144 60 
L 144 0 
L 0 0 
L 0 60 
z
" style="fill: none; opacity: 0"/>
  </g>
  <g id="axes_1">
   <g id="patch_2">
    <path d="M 5.76 52.8 
L 138.24 52.8 
L 138.24 3.6 
L 5.76 3.6 
L 5.76 52.8 
z
" style="fill: none"/>
   </g>
   <g id="matplotlib.axis_1"/>
   <g id="matplotlib.axis_2"/>
   <g id="line2d_1">
    <path d="M 5.76 42.96 
L 138.24 42.96 
" clip-path="url(#pdda091281e)" style="fill: none; stroke: #b2b2b2; stroke-opacity: 0.35; stroke-width: 0.5; stroke-linecap: square"/>
   </g>
   <g id="line2d_2">
    <path d="M 5.76 33.12 
L 138.24 33.12 
" clip-path="url(#pdda091281e)" style="fill: none; stroke: #b2b2b2; stroke-opacity: 0.35; stroke-width: 0.5; stroke-linecap: square"/>
   </g>
   <g id="line2d_3">
    <path d="M 5.76 23.28 
L 138.24 23.28 
" clip-path="url(#pdda091281e)" style="fill: none; stroke: #b2b2b2; stroke-opacity: 0.35; stroke-width: 0.5; stroke-linecap: square"/>
   </g>
   <g id="line2d_4">
    <path d="M 5.76 13.44 
L 138.24 13.44 
" clip-path="url(#pdda091281e)" style="fill: none; stroke: #b2b2b2; stroke-opacity: 0.35; stroke-width: 0.5; stroke-linecap: square"/>
   </g>
   <g id="line2d_5">
    <path d="M 5.76 42.75828 
L 7.237521 42.90096 
L 8.715042 43.57008 
L 10.192563 44.2392 
L 11.670084 45.23304 
L 13.147605 44.77548 
L 14.625126 44.91816 
L 16.102647 45.04608 
L 17.580168 45.07068 
L 19.057688 46.1334 
L 20.535209 45.4446 
L 22.01273 45.06084 
L 23.490251 45.33144 
L 24.967772 46.30068 
L 26.445293 46.34496 
L 27.922814 47.89476 
L 29.400335 48.26376 
L 30.877856 47.96364 
L 32.125215 48.55896 
L 33.299383 49.06572 
L 34.776151 50.04972 
L 36.247345 49.24776 
L 37.75864 49.32156 
L 39.223968 49.31172 
L 40.70992 49.43964 
L 42.18438 49.59708 
L 43.656582 49.80372 
L 45.133659 49.86768 
L 46.593412 49.479 
L 47.99297 49.24776 
L 49.565264 49.48392 
L 50.857188 49.37568 
L 52.517963 49.479 
L 53.993688 49.7004 
L 55.462573 49.62168 
L 56.931065 49.5282 
L 58.425464 49.49376 
L 59.907432 49.98576 
L 61.260133 49.96608 
L 62.857155 49.7004 
L 64.328092 49.27236 
L 65.802809 49.37076 
L 67.262921 49.68072 
L 68.774011 49.25268 
L 70.236278 49.51344 
L 71.717236 49.4052 
L 73.18648 49.34124 
L 74.667182 49.09032 
L 76.144002 49.24284 
L 77.610185 49.49868 
L 79.102053 49.64628 
L 80.584003 49.58724 
L 82.052033 49.36092 
L 83.528973 49.41996 
L 85.012308 49.45932 
L 86.486973 49.16904 
L 87.962527 49.22808 
L 89.468316 49.27236 
L 90.95001 48.87384 
L 92.401674 48.74592 
L 93.890465 48.70164 
L 95.368396 49.03128 
L 96.831535 49.1592 
L 98.300403 49.08048 
L 99.800018 49.21332 
L 101.281011 49.36584 
L 102.744851 49.11 
L 104.332416 48.90828 
L 105.717866 49.05096 
L 107.197251 49.37076 
L 108.660646 49.64628 
L 110.158295 49.6266 
L 111.64004 49.602 
L 113.108241 49.59708 
L 114.598434 49.59708 
L 116.056494 49.8726 
L 117.535708 49.88244 
L 119.000574 49.80864 
L 120.500343 49.78896 
L 121.981678 49.69056 
L 123.449605 49.83816 
L 124.92952 49.50852 
L 126.401894 49.68564 
L 127.89301 49.6266 
L 129.34794 49.48884 
L 130.851968 49.6512 
L 132.337064 49.69056 
L 133.80518 49.40028 
L 135.281572 49.58724 
L 136.765489 49.45932 
L 138.24 49.27728 
" clip-path="url(#pdda091281e)" style="fill: none; stroke: #bebebe; stroke-width: 0.6; stroke-linecap: round"/>
   </g>
   <g id="line2d_6">
    <path d="M 5.76 35.00436 
L 7.237521 34.93056 
L 8.715042 35.088 
L 10.192563 35.78664 
L 11.670084 37.55292 
L 13.147605 37.26756 
L 14.625126 37.46436 
L 16.102647 37.44468 
L 17.580168 37.45944 
L 19.057688 38.41392 
L 20.535209 37.61196 
L 22.01273 36.95268 
L 23.490251 37.05108 
L 24.967772 38.37948 
L 26.445293 39.20604 
L 27.922814 41.03136 
L 29.400335 42.26628 
L 30.877856 41.73492 
L 32.125215 42.23676 
L 33.299383 43.38804 
L 34.776151 44.89356 
L 36.247345 43.6242 
L 37.75864 43.575 
L 39.223968 43.53072 
L 40.70992 43.72752 
L 42.18438 44.0916 
L 43.656582 44.436 
L 45.133659 44.49012 
L 46.593412 43.81608 
L 47.99297 43.7226 
L 49.565264 44.5344 
L 50.857188 44.19 
L 52.517963 44.21952 
L 53.993688 44.3868 
L 55.462573 44.51472 
L 56.931065 44.4606 
L 58.425464 44.3868 
L 59.907432 45.174 
L 61.260133 45.23796 
L 62.857155 44.81484 
L 64.328092 43.821 
L 65.802809 44.01288 
L 67.262921 44.66232 
L 68.774011 43.93908 
L 70.236278 44.39664 
L 71.717236 44.12112 
L 73.18648 44.33268 
L 74.667182 43.3044 
L 76.144002 43.6242 
L 77.610185 44.29824 
L 79.102053 44.53932 
L 80.584003 44.30808 
L 82.052033 43.8702 
L 83.528973 44.00304 
L 85.012308 43.97844 
L 86.486973 43.41756 
L 87.962527 43.48152 
L 89.468316 43.48644 
L 90.95001 42.49752 
L 92.401674 41.73984 
L 93.890465 41.7546 
L 95.368396 42.591 
L 96.831535 43.14204 
L 98.300403 43.083 
L 99.800018 43.35852 
L 101.281011 43.78164 
L 102.744851 43.21584 
L 104.332416 42.9354 
L 105.717866 43.10268 
L 107.197251 43.72752 
L 108.660646 44.25396 
L 110.158295 44.10636 
L 111.64004 43.9194 
L 113.108241 43.74228 
L 114.598434 43.46676 
L 116.056494 43.65372 
L 117.535708 43.79148 
L 119.000574 43.81116 
L 120.500343 43.77672 
L 121.981678 43.2552 
L 123.449605 43.40772 
L 124.92952 42.49752 
L 126.401894 42.90588 
L 127.89301 42.8616 
L 129.34794 42.41388 
L 130.851968 42.63036 
L 132.337064 42.79764 
L 133.80518 41.57256 
L 135.281572 41.86284 
L 136.765489 41.63652 
L 138.24 41.85792 
" clip-path="url(#pdda091281e)" style="fill: none; stroke: #4a8dff; stroke-width: 0.6; stroke-linecap: round"/>
   </g>
   <g id="line2d_7">
    <path d="M 5.76 38.37456 
L 7.237521 38.5812 
L 8.715042 39.2454 
L 10.192563 39.8358 
L 11.670084 41.93172 
L 13.147605 41.42004 
L 14.625126 41.37576 
L 16.102647 41.39052 
L 17.580168 41.5086 
L 19.057688 42.80256 
L 20.535209 41.93664 
L 22.01273 41.49384 
L 23.490251 41.51352 
L 24.967772 43.78164 
L 26.445293 43.9932 
L 27.922814 46.66968 
L 29.400335 47.55036 
L 30.877856 46.64508 
L 32.125215 47.89476 
L 33.299383 48.89352 
L 34.776151 49.84308 
L 36.247345 49.00176 
L 37.75864 49.233 
L 39.223968 48.97716 
L 40.70992 49.22316 
L 42.18438 49.36092 
L 43.656582 49.49868 
L 45.133659 49.58724 
L 46.593412 49.28712 
L 47.99297 49.16904 
L 49.565264 49.39044 
L 50.857188 49.29696 
L 52.517963 49.479 
L 53.993688 49.55772 
L 55.462573 49.51344 
L 56.931065 49.44948 
L 58.425464 49.41996 
L 59.907432 49.8234 
L 61.260133 49.86768 
L 62.857155 49.72992 
L 64.328092 49.39536 
L 65.802809 49.52328 
L 67.262921 49.6758 
L 68.774011 49.47408 
L 70.236278 49.60692 
L 71.717236 49.37568 
L 73.18648 49.36584 
L 74.667182 48.6672 
L 76.144002 48.95256 
L 77.610185 49.36092 
L 79.102053 49.54788 
L 80.584003 49.5282 
L 82.052033 49.09032 
L 83.528973 49.16412 
L 85.012308 49.2084 
L 86.486973 48.93288 
L 87.962527 48.95748 
L 89.468316 48.89844 
L 90.95001 48.48024 
L 92.401674 48.1998 
L 93.890465 48.28344 
L 95.368396 48.88368 
L 96.831535 49.04604 
L 98.300403 49.00176 
L 99.800018 49.20348 
L 101.281011 49.38552 
L 102.744851 49.04112 
L 104.332416 48.92796 
L 105.717866 48.987 
L 107.197251 49.29204 
L 108.660646 49.66104 
L 110.158295 49.56756 
L 111.64004 49.53312 
L 113.108241 49.46424 
L 114.598434 49.40028 
L 116.056494 49.56756 
L 117.535708 49.59708 
L 119.000574 49.56264 
L 120.500343 49.53312 
L 121.981678 49.25268 
L 123.449605 49.29696 
L 124.92952 48.89352 
L 126.401894 48.96732 
L 127.89301 48.8148 
L 129.34794 48.5934 
L 130.851968 48.84432 
L 132.337064 48.95748 
L 133.80518 48.30804 
L 135.281572 48.34248 
L 136.765489 48.21456 
L 138.24 48.26376 
" clip-path="url(#pdda091281e)" style="fill: none; stroke: #f5841e; stroke-width: 0.7; stroke-linecap: round"/>
   </g>
  </g>
 </g>
 <defs>
  <clipPath id="pdda091281e">
   <rect x="5.76" y="3.6" width="132.48" height="49.2"/>
  </clipPath>
 </defs>
</svg>
