<?xml version="1.0" encoding="utf-8" standalone="no"?>
<!DOCTYPE svg PUBLIC "-//W3C//DTD SVG 1.1//EN"
  "http://www.w3.org/Graphics/SVG/1.1/DTD/svg11.dtd">
<svg xmlns:xlink="http://www.w3.org/1999/xlink" width="144pt" height="60pt" viewBox="0 0 144 60" xmlns="http://www.w3.org/2000/svg" version="1.1">
  <desc id="nav-meta">{"window":"1y","count":4,"labels":["05.03","05.07","03.11","05.03"],"tick_utc":["2025-03-05T12:00:00Z","2025-07-05T12:00:00Z","2025-11-03T12:00:00Z","2026-03-05T03:17:19Z"]}</desc>

 <metadata>
  <rdf:RDF xmlns:dc="http://purl.org/dc/elements/1.1/" xmlns:cc="http://creativecommons.org/ns#" xmlns:rdf="http://www.w3.org/1999/02/22-rdf-syntax-ns#">
   <cc:Work>
    <dc:type rdf:resource="http://purl.org/dc/dcmitype/StillImage"/>
    <dc:date>2026-03-05T07:29:34.974195</dc:date>
    <dc:format>image/svg+xml</dc:format>
    <dc:creator>
     <cc:Agent>
      <dc:title>Matplotlib v3.10.8, https://matplotlib.org/</dc:title>
     </cc:Agent>
    </dc:creator>
   </cc:Work>
  </rdf:RDF>
 </metadata>
 <defs>
  <style type="text/css">*{stroke-linejoin: round; stroke-linecap: butt}</style>
 </defs>
 <g id="figure_1">
  <g id="patch_1">
   <path d="M 0 60 
L 144 60 
L 144 0 
L 0 0 
L 0 60 
z
" style="fill: none; opacity: 0"/>
  </g>
  <g id="axes_1">
   <g id="patch_2">
    <path d="M 5.76 52.8 
L 138.24 52.8 
L 138.24 3.6 
L 5.76 3.6 
L 5.76 52.8 
z
" style="fill: none"/>
   </g>
   <g id="matplotlib.axis_1"/>
   <g id="matplotlib.axis_2"/>
   <g id="line2d_1">
    <path d="M 5.76 42.96 
L 138.24 42.96 
" clip-path="url(#pd8b8925c35)" style="fill: none; stroke: #b2b2b2; stroke-opacity: 0.35; stroke-width: 0.5; stroke-linecap: square"/>
   </g>
   <g id="line2d_2">
    <path d="M 5.76 33.12 
L 138.24 33.12 
" clip-path="url(#pd8b8925c35)" style="fill: none; stroke: #b2b2b2; stroke-opacity: 0.35; stroke-width: 0.5; stroke-linecap: square"/>
   </g>
   <g id="line2d_3">
    <path d="M 5.76 23.28 
L 138.24 23.28 
" clip-path="url(#pd8b8925c35)" style="fill: none; stroke: #b2b2b2; stroke-opacity: 0.35; stroke-width: 0.5; stroke-linecap: square"/>
   </g>
   <g id="line2d_4">
    <path d="M 5.76 13.44 
L 138.24 13.44 
" clip-path="url(#pd8b8925c35)" style="fill: none; stroke: #b2b2b2; stroke-opacity: 0.35; stroke-width: 0.5; stroke-linecap: square"/>
   </g>
   <g id="line2d_5">
    <path d="M 5.76 42.72384 
L 6.12332 42.58116 
L 6.48664 42.9354 
L 6.849961 43.49136 
L 7.213281 43.79148 
L 7.939921 46.14816 
L 8.303241 45.28224 
L 8.666562 45.13464 
L 9.029882 45.5676 
L 9.393202 44.22444 
L 9.756522 43.92924 
L 10.119842 45.18876 
L 10.483163 44.91324 
L 10.846483 45.297 
L 11.209803 43.95384 
L 11.573123 44.99196 
L 12.299764 44.89848 
L 12.663084 44.41632 
L 13.026404 43.30932 
L 13.389724 42.87144 
L 13.753045 43.76196 
L 14.116365 43.59468 
L 14.479685 44.76072 
L 14.843005 45.40524 
L 15.569646 45.35604 
L 15.932966 45.10512 
L 16.296286 46.24164 
L 16.659606 46.3548 
L 17.022926 45.63648 
L 17.386247 45.97104 
L 17.749567 47.84556 
L 18.112887 47.71272 
L 18.476207 47.88 
L 18.839527 46.12848 
L 19.202848 46.91568 
L 19.929488 44.40648 
L 20.292808 44.91816 
L 20.656129 44.76564 
L 21.019449 45.16908 
L 21.382769 44.49504 
L 21.746089 44.08668 
L 22.109409 44.17032 
L 22.47273 43.43232 
L 23.19937 43.86528 
L 23.56269 42.23676 
L 24.289331 41.7792 
L 25.379291 42.31056 
L 25.742611 42.345 
L 26.105932 42.5418 
L 26.469252 42.37944 
L 26.832572 41.98584 
L 27.195892 42.345 
L 27.559212 42.49752 
L 27.922533 42.86652 
L 28.285853 42.49752 
L 29.012493 42.44832 
L 29.375814 40.33272 
L 29.739134 39.12732 
L 30.102454 38.52216 
L 30.465774 39.10272 
L 30.829094 38.901 
L 31.192415 37.6464 
L 31.919055 39.639 
L 32.645695 40.008 
L 33.009016 39.27492 
L 33.372336 39.90468 
L 33.735656 39.6882 
L 34.462296 38.22696 
L 34.825617 38.901 
L 35.188937 38.69436 
L 35.915577 38.86164 
L 36.278897 38.62056 
L 37.005538 39.88992 
L 37.368858 41.23308 
L 38.458819 41.17404 
L 39.185459 41.62176 
L 39.548779 42.79272 
L 39.9121 42.30564 
L 40.63874 41.7546 
L 41.00206 40.62792 
L 41.36538 40.131 
L 41.728701 40.6476 
L 42.092021 41.73492 
L 42.818661 42.76812 
L 43.181981 41.73492 
L 43.545302 41.89728 
L 43.908622 42.345 
L 44.271942 42.5664 
L 44.635262 42.46308 
L 45.361903 44.20476 
L 45.725223 44.45076 
L 46.088543 42.7632 
L 46.451863 42.63036 
L 46.815184 42.94524 
L 47.178504 43.52088 
L 47.541824 43.1076 
L 47.905144 41.98092 
L 48.631785 41.43972 
L 48.995105 42.4926 
L 49.358425 41.79888 
L 49.721745 41.78412 
L 50.085065 42.37452 
L 50.448386 42.3942 
L 50.811706 41.83332 
L 51.175026 42.24168 
L 51.538346 41.84316 
L 52.264987 40.2786 
L 52.628307 40.42128 
L 52.991627 40.71648 
L 53.718267 40.48032 
L 54.081588 40.26384 
L 54.444908 38.97972 
L 55.171548 38.51724 
L 55.534869 38.57628 
L 55.898189 38.04492 
L 56.261509 36.03264 
L 56.624829 34.88136 
L 56.988149 36.92316 
L 57.35147 37.8432 
L 57.71479 37.37088 
L 58.07811 37.53324 
L 58.44143 37.056 
L 58.80475 37.77924 
L 59.168071 38.02032 
L 59.531391 38.45328 
L 59.894711 39.1962 
L 60.258031 40.41636 
L 60.621351 40.97232 
L 60.984672 40.53444 
L 61.347992 39.55536 
L 61.711312 40.24908 
L 62.074632 39.7128 
L 62.437952 38.778 
L 62.801273 38.59104 
L 63.527913 37.794 
L 63.891233 38.82228 
L 64.254554 36.53448 
L 64.617874 35.334 
L 65.344514 37.44468 
L 65.707834 36.90348 
L 66.071155 36.65748 
L 66.797795 38.64516 
L 67.161115 37.2282 
L 67.524435 38.14332 
L 67.887756 35.53572 
L 68.251076 35.04372 
L 68.614396 34.80264 
L 68.977716 37.23804 
L 70.067677 33.67104 
L 70.430997 34.90596 
L 71.520958 35.9736 
L 71.884278 34.36476 
L 72.247598 34.1778 
L 72.610918 35.22084 
L 72.974239 35.11752 
L 73.337559 35.54556 
L 74.79084 32.44104 
L 75.15416 31.83096 
L 75.51748 30.06468 
L 75.8808 30.01056 
L 76.24412 30.291 
L 76.607441 31.16184 
L 76.970761 30.74856 
L 77.334081 29.71536 
L 77.697401 29.37588 
L 78.060721 30.57636 
L 78.424042 30.42876 
L 78.787362 30.79284 
L 79.150682 32.91828 
L 79.514002 33.72024 
L 79.877322 34.05972 
L 80.240643 36.5886 
L 80.603963 34.90104 
L 80.967283 35.10276 
L 81.330603 34.16796 
L 81.693924 33.8826 
L 82.057244 34.43364 
L 82.783884 31.05852 
L 83.147204 31.26024 
L 83.510525 31.92936 
L 83.873845 31.85064 
L 84.237165 31.3242 
L 84.600485 32.84448 
L 84.963805 31.78176 
L 85.327126 32.85924 
L 85.690446 36.8838 
L 86.053766 38.39424 
L 86.417086 35.95392 
L 86.780406 34.53696 
L 87.143727 35.20608 
L 87.870367 37.57752 
L 88.233687 37.90716 
L 88.597007 37.18884 
L 88.960328 37.18392 
L 89.323648 36.89364 
L 89.686968 37.42008 
L 90.050288 38.17284 
L 90.413609 36.687 
L 90.776929 36.42132 
L 91.140249 36.34752 
L 91.503569 35.56032 
L 91.866889 35.72268 
L 92.23021 36.29832 
L 92.59353 36.32292 
L 92.95685 37.61688 
L 93.32017 37.2282 
L 93.68349 37.34628 
L 94.046811 37.23804 
L 94.410131 40.008 
L 94.773451 41.36592 
L 95.136771 40.43604 
L 95.500091 41.44956 
L 95.863412 40.53444 
L 96.226732 41.02152 
L 96.590052 40.22448 
L 96.953372 39.79644 
L 97.316692 41.51844 
L 97.680013 41.66604 
L 98.406653 43.51596 
L 98.769973 43.43724 
L 99.133294 43.71276 
L 99.496614 44.59836 
L 99.859934 43.30932 
L 100.949895 44.88372 
L 101.313215 44.99688 
L 101.676535 44.57868 
L 102.039855 43.5996 
L 102.403175 43.51596 
L 102.766496 43.00428 
L 103.129816 43.2798 
L 103.493136 43.71768 
L 104.219776 44.0916 
L 104.583097 45.11004 
L 104.946417 43.55532 
L 105.309737 42.72876 
L 106.036377 44.27364 
L 106.763018 44.47536 
L 107.126338 44.25888 
L 107.489658 43.64388 
L 107.852978 43.84068 
L 108.216299 43.85052 
L 108.579619 44.36712 
L 108.942939 44.26872 
L 109.306259 44.74104 
L 109.66958 44.98704 
L 110.0329 44.84436 
L 110.39622 45.58728 
L 110.75954 46.0596 
L 111.12286 45.18384 
L 112.576141 45.47904 
L 112.939461 45.65616 
L 113.302782 45.98088 
L 114.029422 45.38556 
L 114.392742 45.31668 
L 114.756062 45.58728 
L 115.119383 45.35604 
L 115.482703 45.40032 
L 115.846023 45.11496 
L 116.209343 44.42124 
L 116.935984 44.18508 
L 117.662624 43.24044 
L 118.025944 43.8702 
L 118.389265 43.60944 
L 118.752585 43.92924 
L 119.115905 43.93416 
L 119.479225 43.46184 
L 119.842545 43.5012 
L 120.205866 42.72384 
L 120.569186 42.51228 
L 120.932506 43.08792 
L 121.295826 42.75828 
L 121.659146 42.90096 
L 122.385787 44.2392 
L 122.749107 45.23304 
L 123.112427 44.77548 
L 123.839068 45.04608 
L 124.202388 45.07068 
L 124.565708 46.1334 
L 124.929028 45.4446 
L 125.292348 45.06084 
L 125.655669 45.33144 
L 126.018989 46.30068 
L 126.382309 46.34496 
L 126.745629 47.89476 
L 127.10895 48.26376 
L 127.47227 47.96364 
L 128.430855 50.04972 
L 128.792619 49.24776 
L 130.252527 49.59708 
L 130.61454 49.80372 
L 130.97775 49.86768 
L 131.680851 49.24776 
L 132.067476 49.48392 
L 132.385158 49.37568 
L 132.79354 49.479 
L 133.156419 49.7004 
L 134.246186 49.49376 
L 134.610599 49.98576 
L 134.943227 49.96608 
L 135.335932 49.7004 
L 135.697633 49.27236 
L 136.060264 49.37076 
L 136.419303 49.68072 
L 136.790878 49.25268 
L 137.150447 49.51344 
L 138.24 49.09032 
L 138.24 49.09032 
" clip-path="url(#pd8b8925c35)" style="fill: none; stroke: #bebebe; stroke-width: 0.6; stroke-linecap: round"/>
   </g>
   <g id="line2d_6">
    <path d="M 5.76 42.96 
L 6.12332 42.468 
L 6.48664 42.74352 
L 6.849961 43.17648 
L 7.213281 42.75828 
L 7.939921 45.0264 
L 8.303241 44.7312 
L 8.666562 44.805 
L 9.029882 45.14448 
L 9.756522 44.59836 
L 10.119842 44.96736 
L 10.483163 44.67216 
L 10.846483 44.64756 
L 11.209803 43.74228 
L 11.573123 44.30808 
L 11.936444 44.42616 
L 12.663084 44.1654 
L 13.026404 43.6242 
L 13.389724 43.68816 
L 13.753045 44.10144 
L 14.116365 44.15064 
L 14.479685 44.9034 
L 14.843005 45.38064 
L 15.206325 45.55284 
L 15.569646 45.41508 
L 15.932966 44.8296 
L 16.296286 45.6168 
L 16.659606 45.45936 
L 17.386247 45.5184 
L 17.749567 47.18136 
L 18.112887 47.3142 
L 18.476207 47.90952 
L 18.839527 46.56144 
L 19.202848 47.54052 
L 19.566168 47.23056 
L 19.929488 46.67952 
L 20.292808 47.03376 
L 20.656129 46.85172 
L 21.019449 47.08788 
L 21.382769 47.16168 
L 22.109409 47.07804 
L 22.47273 46.896 
L 22.83605 47.10756 
L 23.19937 47.16168 
L 23.56269 45.87264 
L 23.92601 45.63156 
L 24.289331 45.80376 
L 25.015971 45.43968 
L 25.379291 45.63156 
L 26.105932 45.61188 
L 26.469252 45.63156 
L 26.832572 45.31176 
L 27.559212 45.3462 
L 27.922533 45.52824 
L 28.649173 45.47412 
L 29.012493 45.51348 
L 29.375814 42.77796 
L 29.739134 41.75952 
L 30.102454 40.04244 
L 30.465774 40.58364 
L 30.829094 40.69188 
L 31.192415 39.38808 
L 31.919055 40.33764 
L 32.282375 40.32288 
L 32.645695 40.81488 
L 33.009016 40.88376 
L 33.372336 40.44588 
L 33.735656 40.46556 
L 34.098976 40.21956 
L 34.462296 39.52584 
L 34.825617 40.49508 
L 35.915577 40.19496 
L 36.278897 39.4914 
L 36.642218 39.38808 
L 37.005538 39.69312 
L 37.368858 40.46556 
L 38.095499 40.36716 
L 38.458819 39.8604 
L 38.822139 39.96372 
L 39.185459 39.85548 
L 39.548779 41.1888 
L 40.27542 40.4508 
L 40.63874 40.5738 
L 41.36538 38.45328 
L 41.728701 38.68452 
L 42.092021 39.55536 
L 42.455341 40.09164 
L 42.818661 40.39668 
L 43.545302 40.2048 
L 43.908622 40.52952 
L 44.635262 40.48032 
L 45.361903 42.26136 
L 45.725223 42.5664 
L 46.088543 41.17404 
L 46.451863 41.0166 
L 46.815184 41.22324 
L 47.541824 41.17896 
L 47.905144 41.08056 
L 48.268464 40.61808 
L 48.631785 40.7214 
L 48.995105 41.30688 
L 49.358425 40.11132 
L 49.721745 39.99816 
L 50.085065 40.56888 
L 50.448386 40.51476 
L 50.811706 40.131 
L 51.175026 40.3278 
L 51.538346 39.81612 
L 52.264987 37.46436 
L 52.628307 37.39056 
L 52.991627 37.50372 
L 53.718267 37.01172 
L 54.081588 36.16056 
L 54.444908 34.4976 
L 54.808228 33.69072 
L 55.534869 32.89368 
L 55.898189 31.73256 
L 56.261509 31.68336 
L 56.624829 31.8162 
L 56.988149 32.64276 
L 57.35147 32.0868 
L 58.07811 31.85064 
L 58.44143 30.98964 
L 58.80475 31.53576 
L 59.168071 31.521 
L 59.531391 31.38816 
L 59.894711 32.17044 
L 60.258031 33.68088 
L 60.621351 34.28604 
L 60.984672 33.58248 
L 61.347992 32.0376 
L 61.711312 32.76576 
L 62.074632 32.259 
L 62.437952 30.65508 
L 62.801273 29.93676 
L 63.164593 28.14588 
L 63.891233 28.40664 
L 64.254554 25.73508 
L 64.617874 24.62316 
L 64.981194 26.10408 
L 65.344514 26.97984 
L 65.707834 27.00936 
L 66.071155 26.58132 
L 66.434475 27.7818 
L 66.797795 29.49888 
L 67.161115 27.68832 
L 67.524435 28.44108 
L 67.887756 24.16068 
L 68.251076 24.55428 
L 68.614396 24.51984 
L 68.977716 27.32916 
L 69.341036 25.7646 
L 69.704357 26.48784 
L 70.067677 26.43372 
L 70.430997 27.44724 
L 71.157637 27.27504 
L 71.520958 27.8802 
L 71.884278 27.72276 
L 72.247598 26.84208 
L 72.610918 27.91956 
L 72.974239 27.8556 
L 73.337559 28.09668 
L 73.700879 27.87528 
L 74.427519 27.83592 
L 74.79084 27.57024 
L 75.15416 26.77812 
L 75.51748 25.01184 
L 76.24412 25.71048 
L 76.607441 26.31564 
L 76.970761 26.45832 
L 77.334081 25.8384 
L 77.697401 25.84824 
L 78.060721 26.6994 
L 78.424042 26.62068 
L 78.787362 26.8224 
L 79.150682 28.61328 
L 79.877322 28.97244 
L 80.240643 30.99456 
L 80.603963 29.76456 
L 80.967283 29.8974 
L 81.330603 29.02164 
L 81.693924 28.50012 
L 82.057244 29.00688 
L 82.783884 26.601 
L 83.147204 26.3796 
L 83.510525 26.5764 
L 83.873845 26.3796 
L 84.237165 25.1496 
L 84.600485 26.81256 
L 84.963805 26.29596 
L 85.327126 27.41772 
L 85.690446 31.19136 
L 86.053766 31.80144 
L 86.417086 28.89864 
L 86.780406 28.28364 
L 87.870367 30.80268 
L 88.233687 31.22088 
L 88.597007 30.8076 
L 88.960328 30.13356 
L 89.323648 30.17784 
L 90.050288 31.42752 
L 90.413609 31.04376 
L 90.776929 30.49764 
L 91.140249 30.3648 
L 91.503569 28.88388 
L 91.866889 29.15448 
L 92.23021 30.15324 
L 92.95685 31.4226 
L 93.68349 30.9306 
L 94.046811 30.66 
L 94.773451 34.99944 
L 95.136771 34.07448 
L 95.500091 34.9158 
L 95.863412 34.02528 
L 96.226732 34.26144 
L 96.590052 33.0216 
L 96.953372 33.10524 
L 97.316692 34.1532 
L 97.680013 34.2024 
L 98.406653 36.34752 
L 98.769973 35.89488 
L 99.496614 36.94776 
L 99.859934 36.2688 
L 100.223254 36.97236 
L 100.586574 38.286 
L 100.949895 38.76324 
L 101.313215 38.73864 
L 101.676535 38.51724 
L 102.039855 37.42992 
L 102.403175 37.42008 
L 102.766496 36.90348 
L 103.129816 36.98712 
L 103.493136 36.86412 
L 103.856456 37.16424 
L 104.219776 37.14948 
L 104.583097 38.52216 
L 105.309737 35.71776 
L 105.673057 36.15564 
L 106.036377 36.93792 
L 106.763018 36.72636 
L 107.126338 36.21468 
L 107.489658 34.8174 
L 107.852978 34.7928 
L 108.216299 35.42748 
L 108.579619 36.49512 
L 108.942939 36.28356 
L 109.306259 36.6378 
L 109.66958 37.3512 
L 110.0329 37.3512 
L 110.39622 38.31552 
L 110.75954 38.32536 
L 111.12286 37.26264 
L 111.486181 37.26264 
L 111.849501 37.09044 
L 112.212821 37.06092 
L 112.576141 37.34628 
L 112.939461 37.48404 
L 113.302782 37.77924 
L 114.029422 37.45944 
L 114.756062 37.56276 
L 115.119383 37.31184 
L 115.482703 37.33644 
L 115.846023 37.09536 
L 116.209343 36.23928 
L 116.935984 36.11628 
L 117.662624 35.0142 
L 118.025944 35.93424 
L 118.389265 36.36228 
L 118.752585 36.50988 
L 119.115905 36.5148 
L 119.479225 36.25404 
L 119.842545 36.46068 
L 120.205866 34.83708 
L 120.569186 34.57632 
L 121.295826 35.00436 
L 121.659146 34.93056 
L 122.022467 35.088 
L 122.385787 35.78664 
L 122.749107 37.55292 
L 123.112427 37.26756 
L 123.475747 37.46436 
L 124.202388 37.45944 
L 124.565708 38.41392 
L 125.292348 36.95268 
L 125.655669 37.05108 
L 126.018989 38.37948 
L 126.382309 39.20604 
L 126.745629 41.03136 
L 127.10895 42.26628 
L 127.47227 41.73492 
L 127.778994 42.23676 
L 128.430855 44.89356 
L 128.792619 43.6242 
L 129.524566 43.53072 
L 129.88996 43.72752 
L 130.61454 44.436 
L 130.97775 44.49012 
L 131.336702 43.81608 
L 131.680851 43.7226 
L 132.067476 44.5344 
L 132.385158 44.19 
L 132.79354 44.21952 
L 133.517615 44.51472 
L 134.246186 44.3868 
L 134.610599 45.174 
L 134.943227 45.23796 
L 135.335932 44.81484 
L 135.697633 43.821 
L 136.060264 44.01288 
L 136.419303 44.66232 
L 136.790878 43.93908 
L 137.150447 44.39664 
L 137.514613 44.12112 
L 137.875898 44.33268 
L 138.24 43.3044 
L 138.24 43.3044 
" clip-path="url(#pd8b8925c35)" style="fill: none; stroke: #4a8dff; stroke-width: 0.6; stroke-linecap: round"/>
   </g>
   <g id="line2d_7">
    <path d="M 5.76 42.42864 
L 6.12332 40.80012 
L 6.48664 41.10024 
L 6.849961 42.69432 
L 7.213281 43.00428 
L 7.576601 45.666 
L 7.939921 46.64016 
L 8.303241 44.6574 
L 8.666562 44.12112 
L 9.029882 45.4938 
L 9.393202 44.07684 
L 9.756522 43.8702 
L 10.119842 44.75088 
L 10.483163 44.02764 
L 10.846483 44.66724 
L 11.209803 42.67464 
L 11.573123 43.92924 
L 12.299764 44.1654 
L 13.026404 42.4188 
L 13.389724 42.32532 
L 13.753045 42.60084 
L 14.116365 42.468 
L 14.479685 43.88496 
L 14.843005 44.71644 
L 15.206325 44.87388 
L 15.569646 44.79516 
L 15.932966 43.452 
L 16.296286 44.79024 
L 17.022926 44.13588 
L 17.386247 44.2638 
L 17.749567 46.9206 
L 18.112887 46.44336 
L 18.476207 47.85048 
L 18.839527 44.74596 
L 19.202848 46.23672 
L 19.566168 44.34252 
L 19.929488 43.41756 
L 20.292808 44.25888 
L 20.656129 43.80624 
L 21.019449 44.23428 
L 21.382769 44.01288 
L 21.746089 43.60452 
L 22.109409 43.85052 
L 22.47273 43.50612 
L 22.83605 43.53072 
L 23.19937 42.35976 
L 23.56269 39.33396 
L 23.92601 39.3192 
L 24.289331 39.18636 
L 24.652651 38.74356 
L 25.015971 38.80752 
L 25.379291 39.2208 
L 25.742611 38.61564 
L 26.105932 38.9994 
L 26.469252 39.00924 
L 26.832572 37.92684 
L 27.195892 37.71528 
L 27.559212 38.17284 
L 27.922533 38.96496 
L 28.285853 38.74848 
L 28.649173 37.71528 
L 29.012493 37.63164 
L 29.375814 34.64028 
L 29.739134 34.69932 
L 30.102454 33.87276 
L 30.465774 34.18764 
L 30.829094 34.73868 
L 31.192415 34.09416 
L 31.555735 34.38444 
L 31.919055 34.33032 
L 32.645695 34.57632 
L 33.009016 33.18396 
L 33.372336 33.38076 
L 33.735656 32.81004 
L 34.098976 31.38816 
L 34.462296 30.45336 
L 34.825617 32.59848 
L 35.188937 32.29344 
L 35.552257 31.78176 
L 35.915577 31.53084 
L 36.278897 31.68336 
L 36.642218 32.28852 
L 37.368858 34.1778 
L 37.732178 33.84324 
L 38.095499 33.3414 
L 38.458819 33.25284 
L 39.185459 33.7842 
L 39.548779 35.34384 
L 39.9121 33.981 
L 40.27542 33.35616 
L 40.63874 33.35124 
L 41.00206 31.09296 
L 41.36538 31.11756 
L 41.728701 31.87524 
L 42.092021 33.20856 
L 42.455341 33.17412 
L 42.818661 33.45456 
L 43.181981 33.4152 
L 43.545302 32.7264 
L 43.908622 33.84816 
L 44.635262 33.84324 
L 45.725223 35.73744 
L 46.088543 33.4398 
L 46.451863 33.20856 
L 46.815184 32.58372 
L 47.178504 32.71164 
L 47.905144 32.53944 
L 48.268464 32.013 
L 48.995105 33.3906 
L 49.358425 31.80144 
L 49.721745 31.41768 
L 50.085065 32.19012 
L 50.448386 32.10156 
L 50.811706 31.60956 
L 51.175026 32.0622 
L 51.538346 31.73748 
L 51.901666 30.56652 
L 52.264987 28.31808 
L 52.628307 27.48168 
L 52.991627 27.55548 
L 53.354947 26.71908 
L 53.718267 26.36484 
L 54.081588 27.42756 
L 54.808228 26.55672 
L 55.171548 27.27504 
L 55.534869 27.31932 
L 55.898189 27.63912 
L 56.261509 27.52596 
L 56.624829 26.3058 
L 56.988149 26.96016 
L 57.35147 27.09792 
L 57.71479 27.49644 
L 58.07811 27.2898 
L 58.44143 26.57148 
L 58.80475 27.27012 
L 59.531391 27.35376 
L 60.258031 29.62188 
L 60.621351 29.96136 
L 60.984672 29.14956 
L 61.347992 28.68216 
L 61.711312 29.184 
L 62.074632 28.7412 
L 62.437952 27.5358 
L 62.801273 27.91956 
L 63.164593 28.00812 
L 63.527913 26.64528 
L 63.891233 26.88636 
L 64.254554 26.1828 
L 64.617874 24.52476 
L 64.981194 27.0684 
L 65.344514 27.59484 
L 66.071155 27.49644 
L 66.434475 28.13112 
L 66.797795 29.8482 
L 67.161115 29.12004 
L 67.524435 30.03024 
L 67.887756 27.84576 
L 68.614396 29.54316 
L 68.977716 31.13232 
L 69.341036 30.31068 
L 69.704357 30.62064 
L 70.067677 29.97612 
L 70.430997 31.97364 
L 70.794317 31.82112 
L 71.157637 32.0868 
L 71.520958 31.63416 
L 71.884278 30.6354 
L 72.247598 30.37464 
L 72.610918 30.86172 
L 72.974239 30.89616 
L 73.337559 31.11756 
L 74.064199 30.22212 
L 74.427519 30.45828 
L 74.79084 29.2578 
L 75.15416 28.50504 
L 75.51748 28.18032 
L 75.8808 28.2738 
L 76.24412 28.569 
L 76.607441 28.55424 
L 76.970761 27.8802 
L 77.334081 28.03272 
L 77.697401 27.69324 
L 78.060721 28.42632 
L 78.424042 28.3968 
L 78.787362 28.60344 
L 79.150682 29.88756 
L 79.514002 30.22212 
L 79.877322 29.58252 
L 80.240643 31.73256 
L 80.603963 31.36356 
L 80.967283 31.39308 
L 81.693924 29.09544 
L 82.057244 29.2332 
L 82.420564 27.02412 
L 83.147204 25.16928 
L 83.510525 25.10532 
L 84.237165 23.92452 
L 84.600485 25.53336 
L 84.963805 24.62808 
L 85.327126 25.4448 
L 85.690446 29.64156 
L 86.053766 30.80268 
L 86.417086 28.65756 
L 86.780406 28.6428 
L 87.507047 30.87156 
L 87.870367 32.17044 
L 88.233687 32.97732 
L 88.597007 32.628 
L 88.960328 31.90476 
L 89.323648 30.92076 
L 89.686968 31.96872 
L 90.050288 32.39676 
L 90.413609 31.19628 
L 91.140249 30.42384 
L 91.503569 29.0118 
L 91.866889 29.15448 
L 92.23021 29.76456 
L 92.59353 31.2012 
L 92.95685 32.09172 
L 93.32017 31.43244 
L 94.046811 30.90108 
L 94.773451 35.35368 
L 95.136771 34.24668 
L 95.500091 35.5062 
L 95.863412 34.48284 
L 96.226732 35.02896 
L 96.590052 33.8334 
L 96.953372 33.243 
L 97.316692 34.69932 
L 98.043333 36.2934 
L 98.406653 38.901 
L 98.769973 38.37948 
L 99.133294 38.92068 
L 99.496614 40.09164 
L 99.859934 39.70788 
L 100.223254 40.4262 
L 100.586574 42.75336 
L 100.949895 43.54548 
L 101.313215 43.72752 
L 102.039855 41.976 
L 102.403175 42.42864 
L 102.766496 40.86408 
L 103.129816 40.47048 
L 104.219776 40.89852 
L 104.583097 42.9354 
L 104.946417 40.43604 
L 105.309737 39.31428 
L 105.673057 40.04244 
L 106.036377 41.43972 
L 106.399698 41.47416 
L 106.763018 41.02152 
L 107.126338 40.7952 
L 107.489658 39.75708 
L 107.852978 40.11132 
L 108.216299 39.87024 
L 108.579619 40.94772 
L 108.942939 40.97232 
L 109.66958 42.87144 
L 110.0329 42.17772 
L 110.39622 43.04364 
L 110.75954 43.34868 
L 111.12286 42.03504 
L 111.849501 41.8038 
L 112.212821 41.84316 
L 112.576141 42.37944 
L 112.939461 42.26628 
L 113.302782 42.468 
L 113.666102 42.42864 
L 114.029422 42.18264 
L 114.392742 42.1728 
L 114.756062 42.50244 
L 115.119383 41.88252 
L 115.482703 42.32532 
L 116.209343 41.13468 
L 116.935984 40.42128 
L 117.299304 39.16176 
L 117.662624 39.28968 
L 118.025944 40.48032 
L 119.115905 40.88376 
L 119.842545 40.53936 
L 120.205866 38.50248 
L 120.569186 37.63656 
L 120.932506 38.34012 
L 121.295826 38.37456 
L 121.659146 38.5812 
L 122.385787 39.8358 
L 122.749107 41.93172 
L 123.112427 41.42004 
L 123.839068 41.39052 
L 124.202388 41.5086 
L 124.565708 42.80256 
L 124.929028 41.93664 
L 125.292348 41.49384 
L 125.655669 41.51352 
L 126.018989 43.78164 
L 126.382309 43.9932 
L 126.745629 46.66968 
L 127.10895 47.55036 
L 127.47227 46.64508 
L 128.06772 48.89352 
L 128.430855 49.84308 
L 128.792619 49.00176 
L 129.164244 49.233 
L 129.524566 48.97716 
L 130.252527 49.36092 
L 130.97775 49.58724 
L 131.336702 49.28712 
L 131.680851 49.16904 
L 132.067476 49.39044 
L 132.385158 49.29696 
L 133.156419 49.55772 
L 134.246186 49.41996 
L 134.610599 49.8234 
L 134.943227 49.86768 
L 135.335932 49.72992 
L 135.697633 49.39536 
L 136.419303 49.6758 
L 136.790878 49.47408 
L 137.150447 49.60692 
L 137.514613 49.37568 
L 137.875898 49.36584 
L 138.24 48.6672 
L 138.24 48.6672 
" clip-path="url(#pd8b8925c35)" style="fill: none; stroke: #f5841e; stroke-width: 0.7; stroke-linecap: round"/>
   </g>
  </g>
 </g>
 <defs>
  <clipPath id="pd8b8925c35">
   <rect x="5.76" y="3.6" width="132.48" height="49.2"/>
  </clipPath>
 </defs>
</svg>
