<?xml version="1.0" encoding="utf-8" standalone="no"?>
<!DOCTYPE svg PUBLIC "-//W3C//DTD SVG 1.1//EN"
  "http://www.w3.org/Graphics/SVG/1.1/DTD/svg11.dtd">
<svg xmlns:xlink="http://www.w3.org/1999/xlink" width="144pt" height="60pt" viewBox="0 0 144 60" xmlns="http://www.w3.org/2000/svg" version="1.1">
  <desc id="nav-meta">{"window":"3m","count":4,"labels":["06.11","06.12","05.01","03.02"],"idxs":[0,30,60,90]}</desc>

 <metadata>
  <rdf:RDF xmlns:dc="http://purl.org/dc/elements/1.1/" xmlns:cc="http://creativecommons.org/ns#" xmlns:rdf="http://www.w3.org/1999/02/22-rdf-syntax-ns#">
   <cc:Work>
    <dc:type rdf:resource="http://purl.org/dc/dcmitype/StillImage"/>
    <dc:date>2026-02-03T17:18:01.858438</dc:date>
    <dc:format>image/svg+xml</dc:format>
    <dc:creator>
     <cc:Agent>
      <dc:title>Matplotlib v3.10.8, https://matplotlib.org/</dc:title>
     </cc:Agent>
    </dc:creator>
   </cc:Work>
  </rdf:RDF>
 </metadata>
 <defs>
  <style type="text/css">*{stroke-linejoin: round; stroke-linecap: butt}</style>
 </defs>
 <g id="figure_1">
  <g id="patch_1">
   <path d="M 0 60 
L 144 60 
L 144 0 
L 0 0 
L 0 60 
z
" style="fill: none; opacity: 0"/>
  </g>
  <g id="axes_1">
   <g id="patch_2">
    <path d="M 5.76 52.8 
L 138.24 52.8 
L 138.24 3.6 
L 5.76 3.6 
L 5.76 52.8 
z
" style="fill: none"/>
   </g>
   <g id="matplotlib.axis_1"/>
   <g id="matplotlib.axis_2"/>
   <g id="line2d_1">
    <path d="M 5.76 42.96 
L 138.24 42.96 
" clip-path="url(#pb9a219d981)" style="fill: none; stroke: #b2b2b2; stroke-opacity: 0.35; stroke-width: 0.5; stroke-linecap: square"/>
   </g>
   <g id="line2d_2">
    <path d="M 5.76 33.12 
L 138.24 33.12 
" clip-path="url(#pb9a219d981)" style="fill: none; stroke: #b2b2b2; stroke-opacity: 0.35; stroke-width: 0.5; stroke-linecap: square"/>
   </g>
   <g id="line2d_3">
    <path d="M 5.76 23.28 
L 138.24 23.28 
" clip-path="url(#pb9a219d981)" style="fill: none; stroke: #b2b2b2; stroke-opacity: 0.35; stroke-width: 0.5; stroke-linecap: square"/>
   </g>
   <g id="line2d_4">
    <path d="M 5.76 13.44 
L 138.24 13.44 
" clip-path="url(#pb9a219d981)" style="fill: none; stroke: #b2b2b2; stroke-opacity: 0.35; stroke-width: 0.5; stroke-linecap: square"/>
   </g>
   <g id="line2d_5">
    <path d="M 6.487912 40.43604 
L 7.931705 41.441184 
L 9.375497 40.549566 
L 10.81929 41.009444 
L 13.345927 39.920253 
L 13.706875 39.814128 
L 14.428771 40.579167 
L 15.150668 41.433052 
L 15.872564 41.584311 
L 16.59446 41.657501 
L 17.677305 42.384889 
L 18.760149 43.058644 
L 19.482045 43.45631 
L 20.203942 43.48278 
L 21.286786 43.48278 
L 22.730579 43.851821 
L 23.813423 44.510532 
L 24.174371 44.406602 
L 25.257216 43.447812 
L 25.618164 43.385356 
L 27.783853 44.082289 
L 28.866697 44.466537 
L 29.949541 44.896813 
L 31.393334 44.951949 
L 32.837127 44.481581 
L 34.280919 43.591996 
L 35.724712 43.473672 
L 37.168504 43.024773 
L 39.334193 43.525881 
L 40.417038 43.771841 
L 42.943675 44.133684 
L 44.387467 45.058644 
L 45.83126 43.534827 
L 47.275052 42.741772 
L 50.162637 44.27364 
L 53.050223 44.47414 
L 54.854963 44.121649 
L 55.937808 43.664211 
L 59.186341 43.952986 
L 60.630134 44.348416 
L 62.073926 44.354596 
L 63.878667 44.844726 
L 64.961511 44.963457 
L 66.044356 44.857331 
L 66.766252 45.145212 
L 68.210045 45.774647 
L 68.931941 46.008855 
L 69.292889 45.936559 
L 70.736682 45.190996 
L 76.511852 45.496606 
L 78.677541 45.846698 
L 79.399437 45.95811 
L 83.008918 45.346851 
L 84.091763 45.399425 
L 85.174607 45.575814 
L 86.979348 45.368848 
L 88.42314 45.320136 
L 89.866933 44.925764 
L 90.949777 44.418556 
L 94.559259 43.909397 
L 96.003051 43.439598 
L 96.724948 43.246864 
L 98.16874 43.854586 
L 99.973481 43.678157 
L 101.417274 43.930257 
L 102.861066 43.840477 
L 104.304859 43.469322 
L 105.387703 43.498598 
L 106.470548 42.974394 
L 107.192444 42.687123 
L 108.275288 42.529764 
L 108.997185 42.750148 
L 109.719081 43.035589 
L 110.440977 42.954429 
L 111.523822 42.779505 
L 112.967614 42.994969 
L 116.216147 44.60881 
L 116.938044 45.101623 
L 117.298992 45.180099 
L 118.742784 44.790809 
L 122.352266 45.060515 
L 123.074162 45.158508 
L 124.517955 46.082167 
L 126.322695 45.32408 
L 127.40554 45.076495 
L 128.849332 45.379501 
L 130.293125 46.30251 
L 131.736918 46.396193 
L 133.18071 47.903909 
L 134.624503 48.258799 
L 136.068295 47.966202 
L 137.512088 48.2736 
L 137.512088 48.2736 
" clip-path="url(#pb9a219d981)" style="fill: none; stroke: #bebebe; stroke-width: 0.6; stroke-linecap: round"/>
   </g>
   <g id="line2d_6">
    <path d="M 6.487912 34.07448 
L 7.931705 34.908847 
L 9.375497 34.039999 
L 10.81929 34.255585 
L 12.624031 33.039572 
L 13.706875 33.101784 
L 15.511616 34.162959 
L 16.59446 34.199554 
L 17.316356 34.74116 
L 18.760149 35.825675 
L 19.482045 36.279453 
L 20.203942 36.156738 
L 20.925838 35.932288 
L 21.647734 36.096153 
L 24.174371 36.846758 
L 25.257216 36.341746 
L 25.618164 36.367647 
L 27.061956 37.146064 
L 28.505749 38.345162 
L 29.949541 38.760394 
L 31.754282 38.659961 
L 32.837127 38.409407 
L 34.280919 37.429025 
L 35.724712 37.377386 
L 37.168504 36.909701 
L 38.973245 36.948492 
L 40.056089 36.881482 
L 41.86083 37.159849 
L 42.943675 37.206202 
L 44.387467 38.476132 
L 47.275052 35.724998 
L 49.079793 36.356059 
L 50.162637 36.93792 
L 53.411171 36.607955 
L 54.494015 36.227366 
L 55.937808 34.863591 
L 57.020652 34.799916 
L 57.3816 34.793817 
L 58.825393 35.396008 
L 60.269185 36.433356 
L 60.991082 36.402453 
L 62.073926 36.347967 
L 63.517719 36.761613 
L 64.961511 37.3512 
L 66.044356 37.3512 
L 66.766252 37.74171 
L 67.488148 38.219885 
L 68.210045 38.319423 
L 68.931941 38.324303 
L 69.653837 37.912568 
L 70.375733 37.385599 
L 70.736682 37.26264 
L 72.90237 37.155904 
L 74.346163 37.072386 
L 75.068059 37.091579 
L 77.233748 37.428253 
L 78.677541 37.657257 
L 79.399437 37.765822 
L 83.008918 37.46497 
L 85.896503 37.425895 
L 86.979348 37.318956 
L 88.42314 37.268699 
L 89.505985 37.074135 
L 90.949777 36.238792 
L 93.837363 36.11628 
L 96.364 35.139111 
L 96.724948 35.022007 
L 98.890637 36.135879 
L 99.973481 36.393996 
L 102.13917 36.513336 
L 102.861066 36.463079 
L 104.304859 36.293319 
L 105.387703 36.447018 
L 106.109599 35.762935 
L 106.831496 34.957844 
L 107.553392 34.727173 
L 108.636236 34.621047 
L 111.162873 34.988746 
L 114.050459 35.069784 
L 114.772355 35.353599 
L 115.494251 35.700032 
L 116.216147 36.443521 
L 116.938044 37.319362 
L 117.298992 37.519903 
L 118.742784 37.288704 
L 120.547525 37.457529 
L 122.713214 37.457 
L 123.074162 37.538323 
L 124.517955 38.35427 
L 127.044592 37.077998 
L 127.40554 36.958373 
L 128.849332 37.116951 
L 130.654073 38.618568 
L 131.736918 39.266381 
L 133.541658 41.368156 
L 134.624503 42.257497 
L 136.068295 41.740938 
L 137.512088 42.46308 
L 137.512088 42.46308 
" clip-path="url(#pb9a219d981)" style="fill: none; stroke: #4a8dff; stroke-width: 0.7; stroke-linecap: round"/>
   </g>
   <g id="line2d_7">
    <path d="M 6.487912 34.24668 
L 7.931705 35.495791 
L 9.375497 34.499755 
L 10.81929 35.01542 
L 12.984979 33.560157 
L 13.706875 33.267397 
L 14.428771 33.904964 
L 15.511616 34.839845 
L 17.677305 36.015278 
L 18.038253 36.234848 
L 18.760149 37.414021 
L 19.482045 38.707046 
L 19.842993 38.810488 
L 20.925838 38.422581 
L 21.647734 38.603116 
L 22.730579 39.10455 
L 23.813423 39.975512 
L 24.174371 40.034552 
L 25.257216 39.74911 
L 25.618164 39.808801 
L 26.701008 40.343089 
L 27.061956 40.733924 
L 28.505749 42.851557 
L 29.949541 43.566542 
L 31.032386 43.701944 
L 31.393334 43.615986 
L 33.198075 42.441774 
L 34.280919 42.017149 
L 35.363764 42.353823 
L 35.724712 42.299338 
L 37.168504 40.834804 
L 38.612297 40.481215 
L 42.943675 40.982689 
L 44.387467 42.852777 
L 45.83126 40.408228 
L 47.275052 39.326316 
L 48.718845 40.053988 
L 50.162637 41.43972 
L 51.60643 41.473875 
L 53.772119 40.913036 
L 54.494015 40.800811 
L 55.937808 39.791398 
L 57.020652 40.008854 
L 57.3816 40.096682 
L 58.825393 39.882194 
L 59.547289 40.351099 
L 60.269185 40.885386 
L 60.991082 40.958495 
L 61.712978 40.970694 
L 62.434874 41.403654 
L 64.600563 42.797437 
L 64.961511 42.756776 
L 66.044356 42.240785 
L 66.405304 42.313691 
L 67.849096 43.089018 
L 68.931941 43.315907 
L 69.292889 43.164119 
L 70.375733 42.187031 
L 70.736682 42.019426 
L 74.346163 41.827871 
L 75.068059 41.900777 
L 76.511852 42.368218 
L 78.316592 42.334631 
L 79.760385 42.454988 
L 81.204178 42.349351 
L 82.64797 42.17955 
L 84.091763 42.273599 
L 85.174607 42.4717 
L 86.6184 41.900818 
L 88.062192 42.30564 
L 91.310726 41.047502 
L 93.837363 40.42128 
L 95.281155 39.172169 
L 96.724948 39.287566 
L 98.16874 40.4508 
L 101.056325 40.839561 
L 102.861066 40.846677 
L 105.387703 40.549769 
L 106.109599 39.664007 
L 106.831496 38.653983 
L 107.553392 38.137505 
L 108.275288 37.708124 
L 108.636236 37.752851 
L 110.080029 38.345528 
L 112.245718 38.507766 
L 112.967614 38.674517 
L 115.855199 40.095625 
L 116.938044 41.654574 
L 117.298992 41.872517 
L 118.742784 41.415283 
L 121.63037 41.401255 
L 123.074162 41.615539 
L 124.157007 42.577988 
L 124.517955 42.738153 
L 125.961747 41.907364 
L 127.40554 41.494979 
L 128.488384 41.509617 
L 128.849332 41.625989 
L 130.293125 43.790382 
L 131.736918 44.081679 
L 133.18071 46.691515 
L 134.624503 47.535397 
L 136.068295 46.653863 
L 137.512088 47.7078 
L 137.512088 47.7078 
" clip-path="url(#pb9a219d981)" style="fill: none; stroke: #f5841e; stroke-width: 0.8; stroke-linecap: round"/>
   </g>
  </g>
 </g>
 <defs>
  <clipPath id="pb9a219d981">
   <rect x="5.76" y="3.6" width="132.48" height="49.2"/>
  </clipPath>
 </defs>
</svg>
