<?xml version="1.0" encoding="utf-8" standalone="no"?>
<!DOCTYPE svg PUBLIC "-//W3C//DTD SVG 1.1//EN"
  "http://www.w3.org/Graphics/SVG/1.1/DTD/svg11.dtd">
<svg xmlns:xlink="http://www.w3.org/1999/xlink" width="144pt" height="60pt" viewBox="0 0 144 60" xmlns="http://www.w3.org/2000/svg" version="1.1">
 <metadata>
  <rdf:RDF xmlns:dc="http://purl.org/dc/elements/1.1/" xmlns:cc="http://creativecommons.org/ns#" xmlns:rdf="http://www.w3.org/1999/02/22-rdf-syntax-ns#">
   <cc:Work>
    <dc:type rdf:resource="http://purl.org/dc/dcmitype/StillImage"/>
    <dc:date>2026-01-22T22:03:28.540076</dc:date>
    <dc:format>image/svg+xml</dc:format>
    <dc:creator>
     <cc:Agent>
      <dc:title>Matplotlib v3.10.8, https://matplotlib.org/</dc:title>
     </cc:Agent>
    </dc:creator>
   </cc:Work>
  </rdf:RDF>
 </metadata>
 <defs>
  <style type="text/css">*{stroke-linejoin: round; stroke-linecap: butt}</style>
 </defs>
 <g id="figure_1">
  <g id="patch_1">
   <path d="M 0 60 
L 144 60 
L 144 0 
L 0 0 
L 0 60 
z
" style="fill: none; opacity: 0"/>
  </g>
  <g id="axes_1">
   <g id="patch_2">
    <path d="M 4.32 52.8 
L 139.68 52.8 
L 139.68 3.6 
L 4.32 3.6 
L 4.32 52.8 
z
" style="fill: none"/>
   </g>
   <g id="matplotlib.axis_1"/>
   <g id="matplotlib.axis_2"/>
   <g id="line2d_1">
    <path d="M 4.32 42.96 
L 139.68 42.96 
" clip-path="url(#p2afc0cbcad)" style="fill: none; stroke: #b2b2b2; stroke-opacity: 0.35; stroke-width: 0.5; stroke-linecap: square"/>
   </g>
   <g id="line2d_2">
    <path d="M 4.32 33.12 
L 139.68 33.12 
" clip-path="url(#p2afc0cbcad)" style="fill: none; stroke: #b2b2b2; stroke-opacity: 0.35; stroke-width: 0.5; stroke-linecap: square"/>
   </g>
   <g id="line2d_3">
    <path d="M 4.32 23.28 
L 139.68 23.28 
" clip-path="url(#p2afc0cbcad)" style="fill: none; stroke: #b2b2b2; stroke-opacity: 0.35; stroke-width: 0.5; stroke-linecap: square"/>
   </g>
   <g id="line2d_4">
    <path d="M 4.32 13.44 
L 139.68 13.44 
" clip-path="url(#p2afc0cbcad)" style="fill: none; stroke: #b2b2b2; stroke-opacity: 0.35; stroke-width: 0.5; stroke-linecap: square"/>
   </g>
   <g id="line2d_5">
    <path d="M 4.852913 38.34996 
L 6.177314 38.06952 
L 7.501714 38.145911 
L 8.561234 38.22696 
L 9.620754 38.329436 
L 10.680274 38.44344 
L 12.004674 38.541258 
L 13.064194 38.5812 
L 24.189155 38.491446 
L 25.513555 38.27616 
L 30.016516 38.173364 
L 31.076036 38.1138 
L 31.605796 38.077671 
L 32.665316 37.75464 
L 33.989716 37.854204 
L 35.049236 38.04984 
L 36.373636 38.134557 
L 37.433157 38.19744 
L 37.962917 38.174063 
L 39.287317 37.83828 
L 40.611717 37.754349 
L 41.671237 37.68576 
L 44.320037 37.597608 
L 45.909317 37.4496 
L 48.822998 37.34826 
L 52.001558 37.1298 
L 53.061078 37.214954 
L 54.120598 37.4988 
L 55.709878 37.389599 
L 56.769398 37.34628 
L 59.418199 37.445233 
L 60.477719 37.85304 
L 62.861639 37.775484 
L 63.921159 37.671 
L 64.980679 37.581334 
L 66.040199 37.45452 
L 75.57588 37.55883 
L 76.6354 37.68576 
L 84.581801 37.74972 
L 84.846681 37.807101 
L 85.906201 38.8272 
L 89.879402 38.740096 
L 90.938922 38.70912 
L 91.998442 38.829296 
L 93.057962 38.86656 
L 93.322842 38.869791 
L 94.382362 39.41268 
L 95.971642 39.494835 
L 97.031162 39.57996 
L 104.447803 39.502521 
L 105.242443 39.3438 
L 106.831723 39.233318 
L 107.891244 39.18144 
L 108.950764 39.266972 
L 110.010284 39.30936 
L 115.043004 39.372563 
L 116.102524 39.52092 
L 139.147087 39.45696 
L 139.147087 39.45696 
" clip-path="url(#p2afc0cbcad)" style="fill: none; stroke: #bebebe; stroke-width: 0.6; stroke-linecap: round"/>
   </g>
   <g id="line2d_6">
    <path d="M 4.852913 33.26268 
L 6.442194 33.342419 
L 7.501714 33.42504 
L 8.826114 33.518142 
L 9.885634 33.55296 
L 15.977874 33.443177 
L 27.632596 33.181573 
L 28.427236 33.019184 
L 29.751636 33.25776 
L 37.698037 33.159535 
L 40.081957 33.08556 
L 41.141477 33.064599 
L 42.200997 32.64276 
L 43.260517 32.609921 
L 44.320037 31.7178 
L 50.147398 31.620302 
L 50.942038 31.46688 
L 51.736678 31.46688 
L 53.061078 31.9392 
L 54.120598 31.846273 
L 55.180118 31.52592 
L 56.769398 31.609764 
L 57.299159 31.732647 
L 58.358679 32.077979 
L 60.477719 32.064296 
L 61.537239 31.930932 
L 63.126519 32.04744 
L 70.54316 31.956929 
L 72.6622 31.887758 
L 74.78124 31.880393 
L 78.489561 31.862896 
L 81.933001 31.68336 
L 82.727641 31.741963 
L 83.787161 32.586049 
L 86.700841 32.584069 
L 89.879402 32.56896 
L 90.409162 32.646632 
L 91.468682 32.85432 
L 92.263322 32.861074 
L 93.322842 33.42504 
L 94.382362 33.42504 
L 95.706762 33.9072 
L 97.296042 34.011888 
L 98.355563 34.04988 
L 99.415083 34.149328 
L 100.474603 34.18764 
L 105.242443 34.111395 
L 106.301963 33.84816 
L 108.156124 33.957157 
L 113.983484 34.258412 
L 114.778124 34.45332 
L 139.147087 34.43364 
L 139.147087 34.43364 
" clip-path="url(#p2afc0cbcad)" style="fill: none; stroke: #4a8dff; stroke-width: 0.7; stroke-linecap: round"/>
   </g>
   <g id="line2d_7">
    <path d="M 4.852913 38.35488 
L 6.177314 38.42769 
L 7.236834 38.655 
L 13.858834 38.554155 
L 16.242755 38.547342 
L 19.951075 38.541927 
L 22.070115 38.466526 
L 27.367716 38.446351 
L 28.162356 37.991499 
L 28.427236 37.979039 
L 29.486756 38.47788 
L 32.665316 38.407981 
L 33.989716 38.163 
L 37.168277 38.111995 
L 38.227797 37.87764 
L 40.876597 37.80876 
L 41.141477 37.764276 
L 42.200997 36.86904 
L 43.525397 36.774017 
L 44.584917 36.53448 
L 47.763478 36.496692 
L 48.558118 36.08184 
L 49.617638 36.08184 
L 50.677158 35.573188 
L 51.736678 35.57016 
L 53.061078 36.12612 
L 54.120598 36.046468 
L 55.180118 35.77188 
L 56.239638 35.847339 
L 58.623559 36.564495 
L 60.742599 36.475062 
L 61.537239 36.410519 
L 62.861639 36.60336 
L 70.54316 36.496284 
L 72.13244 36.469268 
L 80.608601 36.613578 
L 82.462761 36.50004 
L 82.727641 36.571773 
L 83.787161 37.595715 
L 85.641321 37.49388 
L 90.409162 37.57327 
L 91.468682 37.87764 
L 92.263322 37.883579 
L 93.322842 38.37948 
L 94.647242 38.440616 
L 95.706762 38.62548 
L 96.766282 38.694185 
L 97.825803 38.91576 
L 99.415083 39.001001 
L 100.474603 39.03384 
L 103.653163 38.928075 
L 104.182923 38.84196 
L 105.772203 38.757534 
L 106.831723 38.71896 
L 113.453724 38.78292 
L 114.248364 39.015587 
L 114.778124 39.147 
L 122.989405 39.041089 
L 126.432845 38.854944 
L 131.995326 38.976227 
L 138.617327 39.112647 
L 139.147087 39.12732 
L 139.147087 39.12732 
" clip-path="url(#p2afc0cbcad)" style="fill: none; stroke: #f5841e; stroke-width: 0.8; stroke-linecap: round"/>
   </g>
   <g id="text_1">
    <!-- 9 Jan -->
    <g style="fill: #8c8c8c; opacity: 0.65" transform="translate(5.11937 56.219297) scale(0.045 -0.045)">
     <defs>
      <path id="DejaVuSans-39" d="M 703 97 
L 703 672 
Q 941 559 1184 500 
Q 1428 441 1663 441 
Q 2288 441 2617 861 
Q 2947 1281 2994 2138 
Q 2813 1869 2534 1725 
Q 2256 1581 1919 1581 
Q 1219 1581 811 2004 
Q 403 2428 403 3163 
Q 403 3881 828 4315 
Q 1253 4750 1959 4750 
Q 2769 4750 3195 4129 
Q 3622 3509 3622 2328 
Q 3622 1225 3098 567 
Q 2575 -91 1691 -91 
Q 1453 -91 1209 -44 
Q 966 3 703 97 
z
M 1959 2075 
Q 2384 2075 2632 2365 
Q 2881 2656 2881 3163 
Q 2881 3666 2632 3958 
Q 2384 4250 1959 4250 
Q 1534 4250 1286 3958 
Q 1038 3666 1038 3163 
Q 1038 2656 1286 2365 
Q 1534 2075 1959 2075 
z
" transform="scale(0.015625)"/>
      <path id="DejaVuSans-20" transform="scale(0.015625)"/>
      <path id="DejaVuSans-4a" d="M 628 4666 
L 1259 4666 
L 1259 325 
Q 1259 -519 939 -900 
Q 619 -1281 -91 -1281 
L -331 -1281 
L -331 -750 
L -134 -750 
Q 284 -750 456 -515 
Q 628 -281 628 325 
L 628 4666 
z
" transform="scale(0.015625)"/>
      <path id="DejaVuSans-61" d="M 2194 1759 
Q 1497 1759 1228 1600 
Q 959 1441 959 1056 
Q 959 750 1161 570 
Q 1363 391 1709 391 
Q 2188 391 2477 730 
Q 2766 1069 2766 1631 
L 2766 1759 
L 2194 1759 
z
M 3341 1997 
L 3341 0 
L 2766 0 
L 2766 531 
Q 2569 213 2275 61 
Q 1981 -91 1556 -91 
Q 1019 -91 701 211 
Q 384 513 384 1019 
Q 384 1609 779 1909 
Q 1175 2209 1959 2209 
L 2766 2209 
L 2766 2266 
Q 2766 2663 2505 2880 
Q 2244 3097 1772 3097 
Q 1472 3097 1187 3025 
Q 903 2953 641 2809 
L 641 3341 
Q 956 3463 1253 3523 
Q 1550 3584 1831 3584 
Q 2591 3584 2966 3190 
Q 3341 2797 3341 1997 
z
" transform="scale(0.015625)"/>
      <path id="DejaVuSans-6e" d="M 3513 2113 
L 3513 0 
L 2938 0 
L 2938 2094 
Q 2938 2591 2744 2837 
Q 2550 3084 2163 3084 
Q 1697 3084 1428 2787 
Q 1159 2491 1159 1978 
L 1159 0 
L 581 0 
L 581 3500 
L 1159 3500 
L 1159 2956 
Q 1366 3272 1645 3428 
Q 1925 3584 2291 3584 
Q 2894 3584 3203 3211 
Q 3513 2838 3513 2113 
z
" transform="scale(0.015625)"/>
     </defs>
     <use xlink:href="#DejaVuSans-39"/>
     <use xlink:href="#DejaVuSans-20" transform="translate(63.623047 0)"/>
     <use xlink:href="#DejaVuSans-4a" transform="translate(95.410156 0)"/>
     <use xlink:href="#DejaVuSans-61" transform="translate(124.902344 0)"/>
     <use xlink:href="#DejaVuSans-6e" transform="translate(186.181641 0)"/>
    </g>
   </g>
   <g id="text_2">
    <!-- 14 Jan -->
    <g style="fill: #8c8c8c; opacity: 0.65" transform="translate(42.570919 56.219297) scale(0.045 -0.045)">
     <defs>
      <path id="DejaVuSans-31" d="M 794 531 
L 1825 531 
L 1825 4091 
L 703 3866 
L 703 4441 
L 1819 4666 
L 2450 4666 
L 2450 531 
L 3481 531 
L 3481 0 
L 794 0 
L 794 531 
z
" transform="scale(0.015625)"/>
      <path id="DejaVuSans-34" d="M 2419 4116 
L 825 1625 
L 2419 1625 
L 2419 4116 
z
M 2253 4666 
L 3047 4666 
L 3047 1625 
L 3713 1625 
L 3713 1100 
L 3047 1100 
L 3047 0 
L 2419 0 
L 2419 1100 
L 313 1100 
L 313 1709 
L 2253 4666 
z
" transform="scale(0.015625)"/>
     </defs>
     <use xlink:href="#DejaVuSans-31"/>
     <use xlink:href="#DejaVuSans-34" transform="translate(63.623047 0)"/>
     <use xlink:href="#DejaVuSans-20" transform="translate(127.246094 0)"/>
     <use xlink:href="#DejaVuSans-4a" transform="translate(159.033203 0)"/>
     <use xlink:href="#DejaVuSans-61" transform="translate(188.525391 0)"/>
     <use xlink:href="#DejaVuSans-6e" transform="translate(249.804688 0)"/>
    </g>
   </g>
   <g id="text_3">
    <!-- 20 Jan -->
    <g style="fill: #8c8c8c; opacity: 0.65" transform="translate(87.335643 56.219297) scale(0.045 -0.045)">
     <defs>
      <path id="DejaVuSans-32" d="M 1228 531 
L 3431 531 
L 3431 0 
L 469 0 
L 469 531 
Q 828 903 1448 1529 
Q 2069 2156 2228 2338 
Q 2531 2678 2651 2914 
Q 2772 3150 2772 3378 
Q 2772 3750 2511 3984 
Q 2250 4219 1831 4219 
Q 1534 4219 1204 4116 
Q 875 4013 500 3803 
L 500 4441 
Q 881 4594 1212 4672 
Q 1544 4750 1819 4750 
Q 2544 4750 2975 4387 
Q 3406 4025 3406 3419 
Q 3406 3131 3298 2873 
Q 3191 2616 2906 2266 
Q 2828 2175 2409 1742 
Q 1991 1309 1228 531 
z
" transform="scale(0.015625)"/>
      <path id="DejaVuSans-30" d="M 2034 4250 
Q 1547 4250 1301 3770 
Q 1056 3291 1056 2328 
Q 1056 1369 1301 889 
Q 1547 409 2034 409 
Q 2525 409 2770 889 
Q 3016 1369 3016 2328 
Q 3016 3291 2770 3770 
Q 2525 4250 2034 4250 
z
M 2034 4750 
Q 2819 4750 3233 4129 
Q 3647 3509 3647 2328 
Q 3647 1150 3233 529 
Q 2819 -91 2034 -91 
Q 1250 -91 836 529 
Q 422 1150 422 2328 
Q 422 3509 836 4129 
Q 1250 4750 2034 4750 
z
" transform="scale(0.015625)"/>
     </defs>
     <use xlink:href="#DejaVuSans-32"/>
     <use xlink:href="#DejaVuSans-30" transform="translate(63.623047 0)"/>
     <use xlink:href="#DejaVuSans-20" transform="translate(127.246094 0)"/>
     <use xlink:href="#DejaVuSans-4a" transform="translate(159.033203 0)"/>
     <use xlink:href="#DejaVuSans-61" transform="translate(188.525391 0)"/>
     <use xlink:href="#DejaVuSans-6e" transform="translate(249.804688 0)"/>
    </g>
   </g>
   <g id="text_4">
    <!-- 22 Jan -->
    <g style="fill: #8c8c8c; opacity: 0.65" transform="translate(124.787192 56.219297) scale(0.045 -0.045)">
     <use xlink:href="#DejaVuSans-32"/>
     <use xlink:href="#DejaVuSans-32" transform="translate(63.623047 0)"/>
     <use xlink:href="#DejaVuSans-20" transform="translate(127.246094 0)"/>
     <use xlink:href="#DejaVuSans-4a" transform="translate(159.033203 0)"/>
     <use xlink:href="#DejaVuSans-61" transform="translate(188.525391 0)"/>
     <use xlink:href="#DejaVuSans-6e" transform="translate(249.804688 0)"/>
    </g>
   </g>
  </g>
 </g>
 <defs>
  <clipPath id="p2afc0cbcad">
   <rect x="4.32" y="3.6" width="135.36" height="49.2"/>
  </clipPath>
 </defs>
</svg>
