<?xml version="1.0" encoding="utf-8" standalone="no"?>
<!DOCTYPE svg PUBLIC "-//W3C//DTD SVG 1.1//EN"
  "http://www.w3.org/Graphics/SVG/1.1/DTD/svg11.dtd">
<svg xmlns:xlink="http://www.w3.org/1999/xlink" width="144pt" height="60pt" viewBox="0 0 144 60" xmlns="http://www.w3.org/2000/svg" version="1.1">
  <desc id="nav-meta">{"window":"1y","count":4,"labels":["25.07","23.11","25.03","24.07"],"tick_utc":["2025-07-25T12:00:00Z","2025-11-23T12:00:00Z","2026-03-25T05:09:13Z","2026-07-24T03:57:40Z"]}</desc>

 <metadata>
  <rdf:RDF xmlns:dc="http://purl.org/dc/elements/1.1/" xmlns:cc="http://creativecommons.org/ns#" xmlns:rdf="http://www.w3.org/1999/02/22-rdf-syntax-ns#">
   <cc:Work>
    <dc:type rdf:resource="http://purl.org/dc/dcmitype/StillImage"/>
    <dc:date>2026-07-24T14:24:09.673960</dc:date>
    <dc:format>image/svg+xml</dc:format>
    <dc:creator>
     <cc:Agent>
      <dc:title>Matplotlib v3.11.1, https://matplotlib.org/</dc:title>
     </cc:Agent>
    </dc:creator>
   </cc:Work>
  </rdf:RDF>
 </metadata>
 <defs>
  <style type="text/css">*{stroke-linejoin: round; stroke-linecap: butt}</style>
 </defs>
 <g id="figure_1">
  <g id="patch_1">
   <path d="M 0 60 
L 144 60 
L 144 0 
L 0 0 
L 0 60 
z
" style="fill: none; opacity: 0"/>
  </g>
  <g id="axes_1">
   <g id="patch_2">
    <path d="M 5.76 52.8 
L 138.24 52.8 
L 138.24 3.6 
L 5.76 3.6 
L 5.76 52.8 
z
" style="fill: none"/>
   </g>
   <g id="matplotlib.axis_1"/>
   <g id="matplotlib.axis_2"/>
   <g id="line2d_1">
    <path d="M 5.76 42.96 
L 138.24 42.96 
" clip-path="url(#p79c8a67b65)" style="fill: none; stroke: #b2b2b2; stroke-opacity: 0.35; stroke-width: 0.5; stroke-linecap: square"/>
   </g>
   <g id="line2d_2">
    <path d="M 5.76 33.12 
L 138.24 33.12 
" clip-path="url(#p79c8a67b65)" style="fill: none; stroke: #b2b2b2; stroke-opacity: 0.35; stroke-width: 0.5; stroke-linecap: square"/>
   </g>
   <g id="line2d_3">
    <path d="M 5.76 23.28 
L 138.24 23.28 
" clip-path="url(#p79c8a67b65)" style="fill: none; stroke: #b2b2b2; stroke-opacity: 0.35; stroke-width: 0.5; stroke-linecap: square"/>
   </g>
   <g id="line2d_4">
    <path d="M 5.76 13.44 
L 138.24 13.44 
" clip-path="url(#p79c8a67b65)" style="fill: none; stroke: #b2b2b2; stroke-opacity: 0.35; stroke-width: 0.5; stroke-linecap: square"/>
   </g>
   <g id="line2d_5">
    <path d="M 5.76 37.8432 
L 6.124291 37.37088 
L 6.488583 37.53324 
L 6.852874 37.056 
L 7.217165 37.77924 
L 7.581456 38.02032 
L 7.945748 38.45328 
L 8.310039 39.1962 
L 8.67433 40.41636 
L 9.038621 40.97232 
L 9.402913 40.53444 
L 9.767204 39.55536 
L 10.131495 40.24908 
L 10.495786 39.7128 
L 10.860078 38.778 
L 11.224369 38.59104 
L 11.952952 37.794 
L 12.317243 38.82228 
L 12.681534 36.53448 
L 13.045825 35.334 
L 13.774408 37.44468 
L 14.138699 36.90348 
L 14.50299 36.65748 
L 15.231573 38.64516 
L 15.595864 37.2282 
L 15.960155 38.14332 
L 16.324447 35.53572 
L 16.688738 35.04372 
L 17.053029 34.80264 
L 17.417321 37.23804 
L 18.510194 33.67104 
L 18.874486 34.90596 
L 19.967359 35.9736 
L 20.331651 34.36476 
L 20.695942 34.1778 
L 21.060233 35.22084 
L 21.424524 35.11752 
L 21.788816 35.54556 
L 23.245981 32.44104 
L 23.610272 31.83096 
L 23.974563 30.06468 
L 24.338855 30.01056 
L 24.703146 30.291 
L 25.067437 31.16184 
L 25.431728 30.74856 
L 25.79602 29.71536 
L 26.160311 29.37588 
L 26.524602 30.57636 
L 26.888893 30.42876 
L 27.253185 30.79284 
L 27.617476 32.91828 
L 27.981767 33.72024 
L 28.346058 34.05972 
L 28.71035 36.5886 
L 29.074641 34.90104 
L 29.438932 35.10276 
L 29.803224 34.16796 
L 30.167515 33.8826 
L 30.531806 34.43364 
L 31.260389 31.05852 
L 31.62468 31.26024 
L 31.988971 31.92936 
L 32.353262 31.85064 
L 32.717554 31.3242 
L 33.081845 32.84448 
L 33.446136 31.78176 
L 33.810427 32.85924 
L 34.174719 36.8838 
L 34.53901 38.39424 
L 34.903301 35.95392 
L 35.267593 34.53696 
L 35.631884 35.20608 
L 36.360466 37.57752 
L 36.724758 37.90716 
L 37.089049 37.18884 
L 37.45334 37.18392 
L 37.817631 36.89364 
L 38.181923 37.42008 
L 38.546214 38.17284 
L 38.910505 36.687 
L 39.274796 36.42132 
L 39.639088 36.34752 
L 40.003379 35.56032 
L 40.36767 35.72268 
L 40.731962 36.29832 
L 41.096253 36.32292 
L 41.460544 37.61688 
L 41.824835 37.2282 
L 42.189127 37.34628 
L 42.553418 37.23804 
L 42.917709 40.008 
L 43.282 41.36592 
L 43.646292 40.43604 
L 44.010583 41.44956 
L 44.374874 40.53444 
L 44.739165 41.02152 
L 45.103457 40.22448 
L 45.467748 39.79644 
L 45.832039 41.51844 
L 46.19633 41.66604 
L 46.924913 43.51596 
L 47.289204 43.43724 
L 47.653496 43.71276 
L 48.017787 44.59836 
L 48.382078 43.30932 
L 49.474952 44.88372 
L 49.839243 44.99688 
L 50.203534 44.57868 
L 50.567826 43.5996 
L 50.932117 43.51596 
L 51.296408 43.00428 
L 51.660699 43.2798 
L 52.024991 43.71768 
L 52.753573 44.0916 
L 53.117865 45.11004 
L 53.482156 43.55532 
L 53.846447 42.72876 
L 54.57503 44.27364 
L 55.303612 44.47536 
L 55.667903 44.25888 
L 56.032195 43.64388 
L 56.396486 43.84068 
L 56.760777 43.85052 
L 57.125068 44.36712 
L 57.48936 44.26872 
L 57.853651 44.74104 
L 58.217942 44.98704 
L 58.582234 44.84436 
L 58.946525 45.58728 
L 59.310816 46.0596 
L 59.675107 45.18384 
L 61.132272 45.47904 
L 61.496564 45.65616 
L 61.860855 45.98088 
L 62.589437 45.38556 
L 62.953729 45.31668 
L 63.31802 45.58728 
L 63.682311 45.35604 
L 64.046603 45.40032 
L 64.410894 45.11496 
L 64.775185 44.42124 
L 65.503768 44.18508 
L 66.23235 43.24044 
L 66.596641 43.8702 
L 66.960933 43.60944 
L 67.325224 43.92924 
L 67.689515 43.93416 
L 68.053806 43.46184 
L 68.418098 43.5012 
L 68.782389 42.72384 
L 69.14668 42.51228 
L 69.510971 43.08792 
L 69.875263 42.75828 
L 70.239554 42.90096 
L 70.968137 44.2392 
L 71.332428 45.23304 
L 71.696719 44.77548 
L 72.425302 45.04608 
L 72.789593 45.07068 
L 73.153884 46.1334 
L 73.518175 45.4446 
L 73.882467 45.06084 
L 74.246758 45.33144 
L 74.611049 46.30068 
L 74.97534 46.34496 
L 75.339632 47.89476 
L 75.703923 48.26376 
L 76.068214 47.96364 
L 77.029361 50.04972 
L 77.392093 49.24776 
L 78.855903 49.59708 
L 79.218883 49.80372 
L 79.583064 49.86768 
L 80.288044 49.24776 
L 80.675702 49.48392 
L 80.994233 49.37568 
L 81.403707 49.479 
L 81.767555 49.7004 
L 82.860235 49.49376 
L 83.225623 49.98576 
L 83.559139 49.96608 
L 83.952894 49.7004 
L 84.315562 49.27236 
L 84.679162 49.37076 
L 85.039161 49.68072 
L 85.411729 49.25268 
L 85.772259 49.51344 
L 86.864724 49.09032 
L 88.32355 49.58724 
L 88.685501 49.36092 
L 89.415374 49.45932 
L 89.778961 49.16904 
L 90.514028 49.27236 
L 90.879348 48.87384 
L 91.604334 48.70164 
L 91.968727 49.03128 
L 92.329472 49.1592 
L 92.69163 49.08048 
L 93.426516 49.36584 
L 94.178858 48.90828 
L 94.520448 49.05096 
L 95.246008 49.64628 
L 96.710003 49.59708 
L 97.069496 49.8726 
L 97.795376 49.80864 
L 98.89231 49.83816 
L 99.257192 49.50852 
L 99.620214 49.68564 
L 100.346579 49.48884 
L 101.083564 49.69056 
L 101.445537 49.40028 
L 101.80955 49.58724 
L 102.89924 49.19856 
L 103.268342 49.43472 
L 103.633536 49.50852 
L 105.450358 49.37568 
L 105.820316 49.4052 
L 106.188533 49.29204 
L 106.553587 49.5528 
L 106.916884 49.50852 
L 107.281786 49.64136 
L 108.005052 49.56264 
L 108.376739 49.57248 
L 108.740903 49.42488 
L 109.097171 49.49376 
L 109.832268 49.25268 
L 110.190496 49.24284 
L 110.55612 48.80004 
L 110.927751 48.85416 
L 111.65415 48.63276 
L 112.020174 48.66228 
L 112.384061 49.09524 
L 112.750148 48.99192 
L 113.479519 49.34616 
L 113.847348 49.47408 
L 114.574623 49.54788 
L 114.940989 49.3314 
L 115.302489 49.34616 
L 115.661775 49.51836 
L 116.40092 49.41504 
L 117.490851 49.7742 
L 118.586178 49.61676 
L 119.316566 49.7988 
L 120.047998 50.45808 
L 120.40629 50.59092 
L 120.764982 50.99928 
L 121.503005 50.74344 
L 121.860343 50.62536 
L 122.228412 50.80248 
L 123.689123 50.56632 
L 124.431894 50.23176 
L 124.784582 50.2416 
L 125.519999 50.55156 
L 126.616549 50.217 
L 127.688852 50.59092 
L 128.055011 50.59092 
L 128.414837 50.33016 
L 128.786072 50.4384 
L 129.152999 50.3892 
L 130.960811 49.6266 
L 131.330436 49.7742 
L 132.057083 49.76436 
L 132.786809 49.98084 
L 133.150278 49.8972 
L 134.594507 50.15796 
L 134.958891 49.98084 
L 136.050934 50.1432 
L 137.875877 49.99068 
L 138.24 50.10384 
L 138.24 50.10384 
" clip-path="url(#p79c8a67b65)" style="fill: none; stroke: #bebebe; stroke-width: 0.6; stroke-linecap: round"/>
   </g>
   <g id="line2d_6">
    <path d="M 5.76 32.0868 
L 6.488583 31.85064 
L 6.852874 30.98964 
L 7.217165 31.53576 
L 7.581456 31.521 
L 7.945748 31.38816 
L 8.310039 32.17044 
L 8.67433 33.68088 
L 9.038621 34.28604 
L 9.402913 33.58248 
L 9.767204 32.0376 
L 10.131495 32.76576 
L 10.495786 32.259 
L 10.860078 30.65508 
L 11.224369 29.93676 
L 11.58866 28.14588 
L 12.317243 28.40664 
L 12.681534 25.73508 
L 13.045825 24.62316 
L 13.410117 26.10408 
L 13.774408 26.97984 
L 14.138699 27.00936 
L 14.50299 26.58132 
L 14.867282 27.7818 
L 15.231573 29.49888 
L 15.595864 27.68832 
L 15.960155 28.44108 
L 16.324447 24.16068 
L 16.688738 24.55428 
L 17.053029 24.51984 
L 17.417321 27.32916 
L 17.781612 25.7646 
L 18.145903 26.48784 
L 18.510194 26.43372 
L 18.874486 27.44724 
L 19.603068 27.27504 
L 19.967359 27.8802 
L 20.331651 27.72276 
L 20.695942 26.84208 
L 21.060233 27.91956 
L 21.424524 27.8556 
L 21.788816 28.09668 
L 22.153107 27.87528 
L 22.881689 27.83592 
L 23.245981 27.57024 
L 23.610272 26.77812 
L 23.974563 25.01184 
L 24.703146 25.71048 
L 25.067437 26.31564 
L 25.431728 26.45832 
L 25.79602 25.8384 
L 26.160311 25.84824 
L 26.524602 26.6994 
L 26.888893 26.62068 
L 27.253185 26.8224 
L 27.617476 28.61328 
L 28.346058 28.97244 
L 28.71035 30.99456 
L 29.074641 29.76456 
L 29.438932 29.8974 
L 29.803224 29.02164 
L 30.167515 28.50012 
L 30.531806 29.00688 
L 31.260389 26.601 
L 31.62468 26.3796 
L 31.988971 26.5764 
L 32.353262 26.3796 
L 32.717554 25.1496 
L 33.081845 26.81256 
L 33.446136 26.29596 
L 33.810427 27.41772 
L 34.174719 31.19136 
L 34.53901 31.80144 
L 34.903301 28.89864 
L 35.267593 28.28364 
L 36.360466 30.80268 
L 36.724758 31.22088 
L 37.089049 30.8076 
L 37.45334 30.13356 
L 37.817631 30.17784 
L 38.546214 31.42752 
L 38.910505 31.04376 
L 39.274796 30.49764 
L 39.639088 30.3648 
L 40.003379 28.88388 
L 40.36767 29.15448 
L 40.731962 30.15324 
L 41.460544 31.4226 
L 42.189127 30.9306 
L 42.553418 30.66 
L 43.282 34.99944 
L 43.646292 34.07448 
L 44.010583 34.9158 
L 44.374874 34.02528 
L 44.739165 34.26144 
L 45.103457 33.0216 
L 45.467748 33.10524 
L 45.832039 34.1532 
L 46.19633 34.2024 
L 46.924913 36.34752 
L 47.289204 35.89488 
L 48.017787 36.94776 
L 48.382078 36.2688 
L 48.746369 36.97236 
L 49.110661 38.286 
L 49.474952 38.76324 
L 49.839243 38.73864 
L 50.203534 38.51724 
L 50.567826 37.42992 
L 50.932117 37.42008 
L 51.296408 36.90348 
L 51.660699 36.98712 
L 52.024991 36.86412 
L 52.389282 37.16424 
L 52.753573 37.14948 
L 53.117865 38.52216 
L 53.846447 35.71776 
L 54.210738 36.15564 
L 54.57503 36.93792 
L 55.303612 36.72636 
L 55.667903 36.21468 
L 56.032195 34.8174 
L 56.396486 34.7928 
L 56.760777 35.42748 
L 57.125068 36.49512 
L 57.48936 36.28356 
L 57.853651 36.6378 
L 58.217942 37.3512 
L 58.582234 37.3512 
L 58.946525 38.31552 
L 59.310816 38.32536 
L 59.675107 37.26264 
L 60.039399 37.26264 
L 60.40369 37.09044 
L 60.767981 37.06092 
L 61.132272 37.34628 
L 61.496564 37.48404 
L 61.860855 37.77924 
L 62.589437 37.45944 
L 63.31802 37.56276 
L 63.682311 37.31184 
L 64.046603 37.33644 
L 64.410894 37.09536 
L 64.775185 36.23928 
L 65.503768 36.11628 
L 66.23235 35.0142 
L 66.596641 35.93424 
L 66.960933 36.36228 
L 67.325224 36.50988 
L 67.689515 36.5148 
L 68.053806 36.25404 
L 68.418098 36.46068 
L 68.782389 34.83708 
L 69.14668 34.57632 
L 69.875263 35.00436 
L 70.239554 34.93056 
L 70.603845 35.088 
L 70.968137 35.78664 
L 71.332428 37.55292 
L 71.696719 37.26756 
L 72.06101 37.46436 
L 72.789593 37.45944 
L 73.153884 38.41392 
L 73.882467 36.95268 
L 74.246758 37.05108 
L 74.611049 38.37948 
L 74.97534 39.20604 
L 75.339632 41.03136 
L 75.703923 42.26628 
L 76.068214 41.73492 
L 76.375758 42.23676 
L 77.029361 44.89356 
L 77.392093 43.6242 
L 78.125996 43.53072 
L 78.492366 43.72752 
L 79.218883 44.436 
L 79.583064 44.49012 
L 79.942975 43.81608 
L 80.288044 43.7226 
L 80.675702 44.5344 
L 80.994233 44.19 
L 81.403707 44.21952 
L 82.129717 44.51472 
L 82.860235 44.3868 
L 83.225623 45.174 
L 83.559139 45.23796 
L 83.952894 44.81484 
L 84.315562 43.821 
L 84.679162 44.01288 
L 85.039161 44.66232 
L 85.411729 43.93908 
L 85.772259 44.39664 
L 86.137398 44.12112 
L 86.499648 44.33268 
L 86.864724 43.3044 
L 87.228842 43.6242 
L 87.590338 44.29824 
L 87.958167 44.53932 
L 88.32355 44.30808 
L 88.685501 43.8702 
L 89.049649 44.00304 
L 89.415374 43.97844 
L 89.778961 43.41756 
L 90.514028 43.48644 
L 91.237265 41.73984 
L 91.604334 41.7546 
L 92.329472 43.14204 
L 92.69163 43.083 
L 93.061369 43.35852 
L 93.426516 43.78164 
L 93.787434 43.21584 
L 94.178858 42.9354 
L 94.520448 43.10268 
L 95.246008 44.25396 
L 96.342587 43.74228 
L 96.710003 43.46676 
L 97.434205 43.79148 
L 98.165153 43.77672 
L 98.530384 43.2552 
L 98.89231 43.40772 
L 99.257192 42.49752 
L 99.620214 42.90588 
L 99.987857 42.8616 
L 100.346579 42.41388 
L 101.083564 42.79764 
L 101.445537 41.57256 
L 101.80955 41.86284 
L 102.175418 41.63652 
L 102.538967 41.85792 
L 102.89924 41.22324 
L 103.633536 42.1482 
L 103.996229 41.96616 
L 104.35939 41.59224 
L 105.090414 41.99076 
L 105.450358 41.91696 
L 105.820316 41.98584 
L 106.188533 41.41512 
L 106.553587 42.15312 
L 106.916884 41.96124 
L 107.281786 42.43848 
L 108.005052 42.02028 
L 108.376739 42.0252 
L 108.740903 41.40528 
L 109.46788 41.52336 
L 110.190496 42.1974 
L 110.55612 41.8776 
L 111.294918 41.8038 
L 111.65415 41.976 
L 112.020174 42.00552 
L 112.384061 42.3942 
L 112.750148 42.27612 
L 113.847348 43.31424 
L 114.209029 43.2306 
L 114.574623 43.39296 
L 114.940989 43.16172 
L 115.302489 43.24536 
L 115.661775 43.71768 
L 116.031835 43.33392 
L 117.127723 43.67832 
L 117.490851 44.32776 
L 117.855412 44.13588 
L 118.21445 44.16048 
L 118.586178 43.96368 
L 118.955858 44.2392 
L 119.316566 44.19984 
L 119.684955 45.16908 
L 120.40629 46.00548 
L 120.764982 47.57004 
L 121.503005 46.64016 
L 121.860343 46.34496 
L 122.228412 46.82712 
L 122.960562 46.51716 
L 123.322188 46.5516 
L 123.689123 46.46304 
L 124.784582 45.6414 
L 125.147127 46.09404 
L 125.519999 46.3302 
L 126.616549 46.035 
L 126.959063 46.14324 
L 128.055011 47.38308 
L 128.414837 47.14692 
L 129.152999 47.22072 
L 130.23776 46.79268 
L 130.960811 45.92184 
L 131.698256 45.75456 
L 132.786809 46.02024 
L 133.503813 45.61188 
L 133.873552 45.51348 
L 134.23864 45.72504 
L 134.594507 45.72996 
L 134.958891 45.08052 
L 135.324093 44.76564 
L 135.688443 45.23796 
L 136.050934 45.29208 
L 136.420702 45.1248 
L 136.789935 45.08544 
L 137.147586 44.69676 
L 137.875877 44.74596 
L 138.24 45.0264 
L 138.24 45.0264 
" clip-path="url(#p79c8a67b65)" style="fill: none; stroke: #4a8dff; stroke-width: 0.6; stroke-linecap: round"/>
   </g>
   <g id="line2d_7">
    <path d="M 5.76 27.09792 
L 6.124291 27.49644 
L 6.488583 27.2898 
L 6.852874 26.57148 
L 7.217165 27.27012 
L 7.945748 27.35376 
L 8.67433 29.62188 
L 9.038621 29.96136 
L 9.402913 29.14956 
L 9.767204 28.68216 
L 10.131495 29.184 
L 10.495786 28.7412 
L 10.860078 27.5358 
L 11.224369 27.91956 
L 11.58866 28.00812 
L 11.952952 26.64528 
L 12.317243 26.88636 
L 12.681534 26.1828 
L 13.045825 24.52476 
L 13.410117 27.0684 
L 13.774408 27.59484 
L 14.50299 27.49644 
L 14.867282 28.13112 
L 15.231573 29.8482 
L 15.595864 29.12004 
L 15.960155 30.03024 
L 16.324447 27.84576 
L 17.053029 29.54316 
L 17.417321 31.13232 
L 17.781612 30.31068 
L 18.145903 30.62064 
L 18.510194 29.97612 
L 18.874486 31.97364 
L 19.238777 31.82112 
L 19.603068 32.0868 
L 19.967359 31.63416 
L 20.331651 30.6354 
L 20.695942 30.37464 
L 21.060233 30.86172 
L 21.424524 30.89616 
L 21.788816 31.11756 
L 22.517398 30.22212 
L 22.881689 30.45828 
L 23.245981 29.2578 
L 23.610272 28.50504 
L 23.974563 28.18032 
L 24.338855 28.2738 
L 24.703146 28.569 
L 25.067437 28.55424 
L 25.431728 27.8802 
L 25.79602 28.03272 
L 26.160311 27.69324 
L 26.524602 28.42632 
L 26.888893 28.3968 
L 27.253185 28.60344 
L 27.617476 29.88756 
L 27.981767 30.22212 
L 28.346058 29.58252 
L 28.71035 31.73256 
L 29.074641 31.36356 
L 29.438932 31.39308 
L 30.167515 29.09544 
L 30.531806 29.2332 
L 30.896097 27.02412 
L 31.62468 25.16928 
L 31.988971 25.10532 
L 32.717554 23.92452 
L 33.081845 25.53336 
L 33.446136 24.62808 
L 33.810427 25.4448 
L 34.174719 29.64156 
L 34.53901 30.80268 
L 34.903301 28.65756 
L 35.267593 28.6428 
L 35.996175 30.87156 
L 36.360466 32.17044 
L 36.724758 32.97732 
L 37.089049 32.628 
L 37.45334 31.90476 
L 37.817631 30.92076 
L 38.181923 31.96872 
L 38.546214 32.39676 
L 38.910505 31.19628 
L 39.639088 30.42384 
L 40.003379 29.0118 
L 40.36767 29.15448 
L 40.731962 29.76456 
L 41.096253 31.2012 
L 41.460544 32.09172 
L 41.824835 31.43244 
L 42.553418 30.90108 
L 43.282 35.35368 
L 43.646292 34.24668 
L 44.010583 35.5062 
L 44.374874 34.48284 
L 44.739165 35.02896 
L 45.103457 33.8334 
L 45.467748 33.243 
L 45.832039 34.69932 
L 46.560622 36.2934 
L 46.924913 38.901 
L 47.289204 38.37948 
L 47.653496 38.92068 
L 48.017787 40.09164 
L 48.382078 39.70788 
L 48.746369 40.4262 
L 49.110661 42.75336 
L 49.474952 43.54548 
L 49.839243 43.72752 
L 50.567826 41.976 
L 50.932117 42.42864 
L 51.296408 40.86408 
L 51.660699 40.47048 
L 52.753573 40.89852 
L 53.117865 42.9354 
L 53.482156 40.43604 
L 53.846447 39.31428 
L 54.210738 40.04244 
L 54.57503 41.43972 
L 54.939321 41.47416 
L 55.303612 41.02152 
L 55.667903 40.7952 
L 56.032195 39.75708 
L 56.396486 40.11132 
L 56.760777 39.87024 
L 57.125068 40.94772 
L 57.48936 40.97232 
L 58.217942 42.87144 
L 58.582234 42.17772 
L 58.946525 43.04364 
L 59.310816 43.34868 
L 59.675107 42.03504 
L 60.40369 41.8038 
L 60.767981 41.84316 
L 61.132272 42.37944 
L 61.496564 42.26628 
L 61.860855 42.468 
L 62.225146 42.42864 
L 62.589437 42.18264 
L 62.953729 42.1728 
L 63.31802 42.50244 
L 63.682311 41.88252 
L 64.046603 42.32532 
L 64.775185 41.13468 
L 65.503768 40.42128 
L 65.868059 39.16176 
L 66.23235 39.28968 
L 66.596641 40.48032 
L 67.689515 40.88376 
L 68.418098 40.53936 
L 68.782389 38.50248 
L 69.14668 37.63656 
L 69.510971 38.34012 
L 69.875263 38.37456 
L 70.239554 38.5812 
L 70.968137 39.8358 
L 71.332428 41.93172 
L 71.696719 41.42004 
L 72.425302 41.39052 
L 72.789593 41.5086 
L 73.153884 42.80256 
L 73.518175 41.93664 
L 73.882467 41.49384 
L 74.246758 41.51352 
L 74.611049 43.78164 
L 74.97534 43.9932 
L 75.339632 46.66968 
L 75.703923 47.55036 
L 76.068214 46.64508 
L 76.665256 48.89352 
L 77.029361 49.84308 
L 77.392093 49.00176 
L 77.764711 49.233 
L 78.125996 48.97716 
L 78.855903 49.36092 
L 79.583064 49.58724 
L 79.942975 49.28712 
L 80.288044 49.16904 
L 80.675702 49.39044 
L 80.994233 49.29696 
L 81.767555 49.55772 
L 82.860235 49.41996 
L 83.225623 49.8234 
L 83.559139 49.86768 
L 83.952894 49.72992 
L 84.315562 49.39536 
L 85.039161 49.6758 
L 85.411729 49.47408 
L 85.772259 49.60692 
L 86.137398 49.37568 
L 86.499648 49.36584 
L 86.864724 48.6672 
L 87.958167 49.54788 
L 88.32355 49.5282 
L 88.685501 49.09032 
L 89.415374 49.2084 
L 89.778961 48.93288 
L 90.514028 48.89844 
L 91.237265 48.1998 
L 91.604334 48.28344 
L 91.968727 48.88368 
L 92.329472 49.04604 
L 92.69163 49.00176 
L 93.426516 49.38552 
L 93.787434 49.04112 
L 94.178858 48.92796 
L 94.520448 48.987 
L 95.246008 49.66104 
L 96.710003 49.40028 
L 97.069496 49.56756 
L 97.795376 49.56264 
L 98.165153 49.53312 
L 98.530384 49.25268 
L 98.89231 49.29696 
L 99.257192 48.89352 
L 99.620214 48.96732 
L 100.346579 48.5934 
L 100.717405 48.84432 
L 101.083564 48.95748 
L 101.445537 48.30804 
L 101.80955 48.34248 
L 102.175418 48.21456 
L 102.538967 48.26376 
L 102.89924 47.41752 
L 103.268342 48.05712 
L 103.633536 48.26376 
L 103.996229 48.01776 
L 104.35939 47.23548 
L 105.450358 47.1666 
L 105.820316 47.31912 
L 106.188533 46.49256 
L 106.553587 47.64876 
L 106.916884 47.5356 
L 107.281786 48.0276 
L 108.005052 46.81728 
L 108.376739 46.92552 
L 108.740903 45.85788 
L 109.46788 45.29208 
L 109.832268 45.58728 
L 110.190496 46.2564 
L 110.55612 45.7152 
L 112.020174 45.42492 
L 112.384061 46.38432 
L 112.750148 45.57744 
L 113.109789 46.51716 
L 113.847348 47.54544 
L 114.574623 47.66844 
L 114.940989 47.05344 
L 115.302489 47.22564 
L 115.661775 48.07188 
L 116.40092 47.37324 
L 117.127723 48.07188 
L 117.490851 48.59832 
L 117.855412 48.52452 
L 118.21445 48.5688 
L 118.586178 48.38676 
L 118.955858 48.55404 
L 120.047998 49.93656 
L 120.40629 49.98084 
L 120.764982 50.3646 
L 121.503005 50.07432 
L 121.860343 49.99068 
L 122.228412 50.217 
L 122.960562 49.98084 
L 123.689123 49.87752 
L 124.065524 49.69548 
L 124.784582 49.7004 
L 125.519999 50.06448 
L 126.241595 49.89228 
L 126.959063 49.9464 
L 128.414837 50.31048 
L 129.879849 50.41872 
L 130.960811 50.0694 
L 132.411475 50.05956 
L 132.786809 50.11368 
L 133.150278 49.91196 
L 133.873552 49.8972 
L 134.594507 50.08908 
L 134.958891 49.84308 
L 135.324093 49.85292 
L 135.688443 49.97592 
L 137.875877 49.725 
L 138.24 49.7496 
L 138.24 49.7496 
" clip-path="url(#p79c8a67b65)" style="fill: none; stroke: #f5841e; stroke-width: 0.7; stroke-linecap: round"/>
   </g>
  </g>
 </g>
 <defs>
  <clipPath id="p79c8a67b65">
   <rect x="5.76" y="3.6" width="132.48" height="49.2"/>
  </clipPath>
 </defs>
</svg>
