<?xml version="1.0" encoding="utf-8" standalone="no"?>
<!DOCTYPE svg PUBLIC "-//W3C//DTD SVG 1.1//EN"
  "http://www.w3.org/Graphics/SVG/1.1/DTD/svg11.dtd">
<svg xmlns:xlink="http://www.w3.org/1999/xlink" width="144pt" height="60pt" viewBox="0 0 144 60" xmlns="http://www.w3.org/2000/svg" version="1.1">
  <desc id="nav-meta">{"window":"2w","count":4,"labels":["17 Jan","22 Jan","25 Jan","31 Jan"],"idxs":[0,49,98,147]}</desc>

 <metadata>
  <rdf:RDF xmlns:dc="http://purl.org/dc/elements/1.1/" xmlns:cc="http://creativecommons.org/ns#" xmlns:rdf="http://www.w3.org/1999/02/22-rdf-syntax-ns#">
   <cc:Work>
    <dc:type rdf:resource="http://purl.org/dc/dcmitype/StillImage"/>
    <dc:date>2026-01-31T08:58:30.213008</dc:date>
    <dc:format>image/svg+xml</dc:format>
    <dc:creator>
     <cc:Agent>
      <dc:title>Matplotlib v3.10.8, https://matplotlib.org/</dc:title>
     </cc:Agent>
    </dc:creator>
   </cc:Work>
  </rdf:RDF>
 </metadata>
 <defs>
  <style type="text/css">*{stroke-linejoin: round; stroke-linecap: butt}</style>
 </defs>
 <g id="figure_1">
  <g id="patch_1">
   <path d="M 0 60 
L 144 60 
L 144 0 
L 0 0 
L 0 60 
z
" style="fill: none; opacity: 0"/>
  </g>
  <g id="axes_1">
   <g id="patch_2">
    <path d="M 5.76 52.8 
L 138.24 52.8 
L 138.24 3.6 
L 5.76 3.6 
L 5.76 52.8 
z
" style="fill: none"/>
   </g>
   <g id="matplotlib.axis_1"/>
   <g id="matplotlib.axis_2"/>
   <g id="line2d_1">
    <path d="M 5.76 42.96 
L 138.24 42.96 
" clip-path="url(#pbc6a6d7ad7)" style="fill: none; stroke: #b2b2b2; stroke-opacity: 0.35; stroke-width: 0.5; stroke-linecap: square"/>
   </g>
   <g id="line2d_2">
    <path d="M 5.76 33.12 
L 138.24 33.12 
" clip-path="url(#pbc6a6d7ad7)" style="fill: none; stroke: #b2b2b2; stroke-opacity: 0.35; stroke-width: 0.5; stroke-linecap: square"/>
   </g>
   <g id="line2d_3">
    <path d="M 5.76 23.28 
L 138.24 23.28 
" clip-path="url(#pbc6a6d7ad7)" style="fill: none; stroke: #b2b2b2; stroke-opacity: 0.35; stroke-width: 0.5; stroke-linecap: square"/>
   </g>
   <g id="line2d_4">
    <path d="M 5.76 13.44 
L 138.24 13.44 
" clip-path="url(#pbc6a6d7ad7)" style="fill: none; stroke: #b2b2b2; stroke-opacity: 0.35; stroke-width: 0.5; stroke-linecap: square"/>
   </g>
   <g id="line2d_5">
    <path d="M 6.207568 37.52832 
L 8.656694 37.505843 
L 9.769933 37.48896 
L 11.10582 37.68576 
L 17.785254 37.74972 
L 18.453198 38.482625 
L 18.675846 38.750628 
L 19.121141 38.8272 
L 22.238211 38.721707 
L 23.35145 38.733096 
L 24.687337 38.86656 
L 25.132633 38.944181 
L 26.023224 39.41268 
L 27.359111 39.517973 
L 28.249702 39.57996 
L 34.261194 39.532109 
L 35.151785 39.3438 
L 36.265024 39.249845 
L 37.155615 39.18144 
L 38.268854 39.285984 
L 39.382094 39.310259 
L 43.612402 39.469522 
L 44.280346 39.52092 
L 72.333972 39.618321 
L 73.447211 39.64392 
L 75.005746 39.749438 
L 76.56428 39.76692 
L 77.67752 39.667421 
L 79.236054 39.64884 
L 91.481685 39.757629 
L 93.04022 39.79152 
L 93.930811 40.75584 
L 94.821402 40.75584 
L 95.934641 40.27368 
L 98.606415 40.180575 
L 99.942302 40.06212 
L 107.512328 39.971962 
L 108.402919 39.63408 
L 120.871198 39.68288 
L 121.984437 39.9096 
L 122.875028 39.99861 
L 123.765619 40.17528 
L 126.214746 40.182398 
L 127.105337 40.7706 
L 129.554463 40.87392 
L 130.445054 41.014177 
L 131.335645 41.05104 
L 133.784772 40.995771 
L 134.452715 40.869 
L 136.456545 40.769102 
L 137.347137 40.6722 
L 137.792432 40.6722 
L 137.792432 40.6722 
" clip-path="url(#pbc6a6d7ad7)" style="fill: none; stroke: #bebebe; stroke-width: 0.6; stroke-linecap: round"/>
   </g>
   <g id="line2d_6">
    <path d="M 6.207568 31.92444 
L 12.887002 31.831684 
L 15.558776 31.68336 
L 16.004072 31.68336 
L 16.672015 32.304928 
L 16.894663 32.528876 
L 17.562607 32.610693 
L 19.343789 32.589864 
L 21.570268 32.56896 
L 22.460859 32.613864 
L 23.574098 32.85432 
L 24.242041 32.938335 
L 25.132633 33.42504 
L 26.023224 33.491123 
L 26.913815 33.9072 
L 28.249702 33.996284 
L 29.140294 34.04988 
L 30.030885 34.134494 
L 30.921476 34.18764 
L 34.929137 34.144858 
L 36.042376 33.84816 
L 37.378263 33.945261 
L 39.159446 34.006199 
L 42.276515 34.227674 
L 43.167107 34.45332 
L 69.216902 34.361588 
L 70.552789 34.31064 
L 72.779267 34.52747 
L 73.669859 34.544452 
L 74.783098 34.65996 
L 75.451041 34.586535 
L 76.341633 34.470552 
L 78.122815 34.462361 
L 79.458702 34.376248 
L 84.356954 34.34508 
L 88.587263 34.441257 
L 90.813741 34.550047 
L 92.149628 34.580541 
L 93.04022 35.47176 
L 94.153459 35.371412 
L 95.04405 35.06832 
L 95.934641 34.970894 
L 96.825233 34.65996 
L 101.500837 34.59635 
L 102.391428 34.46808 
L 103.504667 34.560461 
L 104.395259 34.60092 
L 106.621737 34.4979 
L 107.512328 33.9072 
L 114.859706 34.014965 
L 118.644719 34.040614 
L 119.535311 33.981 
L 121.761789 34.007598 
L 122.65238 34.41888 
L 125.324154 34.45869 
L 126.214746 35.10768 
L 127.327985 35.199087 
L 128.218576 35.40288 
L 129.109167 35.480976 
L 129.999759 35.66364 
L 131.112998 35.764238 
L 132.003589 35.8506 
L 134.452715 35.941907 
L 135.120659 36.281088 
L 136.456545 36.1212 
L 137.124489 36.218601 
L 137.792432 36.50496 
L 137.792432 36.50496 
" clip-path="url(#pbc6a6d7ad7)" style="fill: none; stroke: #4a8dff; stroke-width: 0.7; stroke-linecap: round"/>
   </g>
   <g id="line2d_7">
    <path d="M 6.207568 36.4656 
L 9.324637 36.554435 
L 10.437876 36.61812 
L 14.890833 36.536878 
L 15.781424 36.50004 
L 16.004072 36.50004 
L 16.672015 37.260867 
L 16.894663 37.534988 
L 17.339959 37.554868 
L 18.675846 37.49388 
L 21.124972 37.48911 
L 22.238211 37.45944 
L 25.577928 38.37948 
L 26.245872 38.474384 
L 27.136463 38.62548 
L 28.027054 38.734519 
L 28.917646 38.91576 
L 30.253533 39.017656 
L 32.925307 39.12732 
L 33.59325 38.957842 
L 34.261194 38.84196 
L 35.597081 38.739564 
L 36.71032 38.726827 
L 38.491502 38.821955 
L 42.276515 38.890111 
L 43.167107 39.147 
L 49.846541 39.053345 
L 50.737133 39.01908 
L 51.405076 38.936714 
L 52.295667 38.8518 
L 54.07685 38.959466 
L 55.190089 39.02892 
L 69.216902 38.924176 
L 70.330141 38.82228 
L 70.998085 38.932793 
L 71.888676 39.11256 
L 73.892507 39.207439 
L 75.005746 39.2454 
L 75.673689 39.081941 
L 76.118985 38.983291 
L 77.900167 39.050798 
L 80.794589 38.88132 
L 83.466363 38.972702 
L 85.247546 39.042681 
L 88.587263 39.229641 
L 89.700502 39.51108 
L 91.036389 39.405487 
L 91.92698 39.37332 
L 92.149628 39.38321 
L 93.04022 40.34748 
L 93.930811 40.34748 
L 95.04405 39.89484 
L 95.934641 39.832628 
L 96.825233 39.63408 
L 99.942302 39.71315 
L 100.610246 39.78168 
L 101.278189 39.682356 
L 102.16878 39.30444 
L 103.059372 39.358011 
L 103.949963 39.57504 
L 105.063202 39.658805 
L 105.953793 39.76692 
L 106.399089 39.76692 
L 107.067033 39.265355 
L 107.512328 39.024 
L 113.078524 39.116806 
L 114.859706 39.159887 
L 118.644719 39.059814 
L 119.312663 38.9502 
L 120.203254 39.022576 
L 121.093846 39.15684 
L 121.761789 39.200895 
L 122.65238 39.639 
L 125.324154 39.67389 
L 126.214746 40.32288 
L 127.105337 40.379223 
L 127.995928 41.24784 
L 128.886519 41.268819 
L 129.999759 41.66112 
L 130.89035 41.720909 
L 132.003589 41.86776 
L 132.671532 41.792212 
L 133.562124 41.59716 
L 134.675363 41.490169 
L 136.01125 41.29212 
L 137.124489 41.39077 
L 137.792432 41.6808 
L 137.792432 41.6808 
" clip-path="url(#pbc6a6d7ad7)" style="fill: none; stroke: #f5841e; stroke-width: 0.8; stroke-linecap: round"/>
   </g>
  </g>
 </g>
 <defs>
  <clipPath id="pbc6a6d7ad7">
   <rect x="5.76" y="3.6" width="132.48" height="49.2"/>
  </clipPath>
 </defs>
</svg>
