<?xml version="1.0" encoding="utf-8" standalone="no"?>
<!DOCTYPE svg PUBLIC "-//W3C//DTD SVG 1.1//EN"
  "http://www.w3.org/Graphics/SVG/1.1/DTD/svg11.dtd">
<svg xmlns:xlink="http://www.w3.org/1999/xlink" width="144pt" height="60pt" viewBox="0 0 144 60" xmlns="http://www.w3.org/2000/svg" version="1.1">
  <desc id="nav-meta">{"window":"1m","count":4,"labels":["04.03","14.03","23.03","02.04"],"tick_utc":["2026-03-04T03:14:13Z","2026-03-14T03:15:02Z","2026-03-23T03:35:18Z","2026-04-02T03:35:34Z"]}</desc>

 <metadata>
  <rdf:RDF xmlns:dc="http://purl.org/dc/elements/1.1/" xmlns:cc="http://creativecommons.org/ns#" xmlns:rdf="http://www.w3.org/1999/02/22-rdf-syntax-ns#">
   <cc:Work>
    <dc:type rdf:resource="http://purl.org/dc/dcmitype/StillImage"/>
    <dc:date>2026-04-02T03:35:36.574120</dc:date>
    <dc:format>image/svg+xml</dc:format>
    <dc:creator>
     <cc:Agent>
      <dc:title>Matplotlib v3.10.8, https://matplotlib.org/</dc:title>
     </cc:Agent>
    </dc:creator>
   </cc:Work>
  </rdf:RDF>
 </metadata>
 <defs>
  <style type="text/css">*{stroke-linejoin: round; stroke-linecap: butt}</style>
 </defs>
 <g id="figure_1">
  <g id="patch_1">
   <path d="M 0 60 
L 144 60 
L 144 0 
L 0 0 
L 0 60 
z
" style="fill: none; opacity: 0"/>
  </g>
  <g id="axes_1">
   <g id="patch_2">
    <path d="M 5.76 52.8 
L 138.24 52.8 
L 138.24 3.6 
L 5.76 3.6 
L 5.76 52.8 
z
" style="fill: none"/>
   </g>
   <g id="matplotlib.axis_1"/>
   <g id="matplotlib.axis_2"/>
   <g id="line2d_1">
    <path d="M 5.76 42.96 
L 138.24 42.96 
" clip-path="url(#pe7459dee47)" style="fill: none; stroke: #b2b2b2; stroke-opacity: 0.35; stroke-width: 0.5; stroke-linecap: square"/>
   </g>
   <g id="line2d_2">
    <path d="M 5.76 33.12 
L 138.24 33.12 
" clip-path="url(#pe7459dee47)" style="fill: none; stroke: #b2b2b2; stroke-opacity: 0.35; stroke-width: 0.5; stroke-linecap: square"/>
   </g>
   <g id="line2d_3">
    <path d="M 5.76 23.28 
L 138.24 23.28 
" clip-path="url(#pe7459dee47)" style="fill: none; stroke: #b2b2b2; stroke-opacity: 0.35; stroke-width: 0.5; stroke-linecap: square"/>
   </g>
   <g id="line2d_4">
    <path d="M 5.76 13.44 
L 138.24 13.44 
" clip-path="url(#pe7459dee47)" style="fill: none; stroke: #b2b2b2; stroke-opacity: 0.35; stroke-width: 0.5; stroke-linecap: square"/>
   </g>
   <g id="line2d_5">
    <path d="M 5.76 49.34124 
L 10.335771 49.09032 
L 14.899546 49.24284 
L 19.43045 49.49868 
L 24.04073 49.64628 
L 28.620359 49.58724 
L 33.15697 49.36092 
L 37.721115 49.41996 
L 42.305024 49.45932 
L 46.86214 49.16904 
L 51.422005 49.22808 
L 56.075301 49.27236 
L 60.654137 48.87384 
L 65.140175 48.74592 
L 69.740942 48.70164 
L 74.308152 49.03128 
L 78.82965 49.1592 
L 83.368851 49.08048 
L 88.00307 49.21332 
L 92.579739 49.36584 
L 97.103404 49.11 
L 102.009413 48.90828 
L 106.290828 49.05096 
L 110.86253 49.37076 
L 115.38482 49.64628 
L 120.012962 49.6266 
L 124.591957 49.602 
L 129.129097 49.59708 
L 133.734198 49.59708 
L 138.24 49.8726 
" clip-path="url(#pe7459dee47)" style="fill: none; stroke: #bebebe; stroke-width: 0.6; stroke-linecap: round"/>
   </g>
   <g id="line2d_6">
    <path d="M 5.76 44.33268 
L 10.335771 43.3044 
L 14.899546 43.6242 
L 19.43045 44.29824 
L 24.04073 44.53932 
L 28.620359 44.30808 
L 33.15697 43.8702 
L 37.721115 44.00304 
L 42.305024 43.97844 
L 46.86214 43.41756 
L 51.422005 43.48152 
L 56.075301 43.48644 
L 60.654137 42.49752 
L 65.140175 41.73984 
L 69.740942 41.7546 
L 74.308152 42.591 
L 78.82965 43.14204 
L 83.368851 43.083 
L 88.00307 43.35852 
L 92.579739 43.78164 
L 97.103404 43.21584 
L 102.009413 42.9354 
L 106.290828 43.10268 
L 110.86253 43.72752 
L 115.38482 44.25396 
L 120.012962 44.10636 
L 124.591957 43.9194 
L 129.129097 43.74228 
L 133.734198 43.46676 
L 138.24 43.65372 
" clip-path="url(#pe7459dee47)" style="fill: none; stroke: #4a8dff; stroke-width: 0.6; stroke-linecap: round"/>
   </g>
   <g id="line2d_7">
    <path d="M 5.76 49.36584 
L 10.335771 48.6672 
L 14.899546 48.95256 
L 19.43045 49.36092 
L 24.04073 49.54788 
L 28.620359 49.5282 
L 33.15697 49.09032 
L 37.721115 49.16412 
L 42.305024 49.2084 
L 46.86214 48.93288 
L 51.422005 48.95748 
L 56.075301 48.89844 
L 60.654137 48.48024 
L 65.140175 48.1998 
L 69.740942 48.28344 
L 74.308152 48.88368 
L 78.82965 49.04604 
L 83.368851 49.00176 
L 88.00307 49.20348 
L 92.579739 49.38552 
L 97.103404 49.04112 
L 102.009413 48.92796 
L 106.290828 48.987 
L 110.86253 49.29204 
L 115.38482 49.66104 
L 120.012962 49.56756 
L 124.591957 49.53312 
L 129.129097 49.46424 
L 133.734198 49.40028 
L 138.24 49.56756 
" clip-path="url(#pe7459dee47)" style="fill: none; stroke: #f5841e; stroke-width: 0.7; stroke-linecap: round"/>
   </g>
  </g>
 </g>
 <defs>
  <clipPath id="pe7459dee47">
   <rect x="5.76" y="3.6" width="132.48" height="49.2"/>
  </clipPath>
 </defs>
</svg>
