<?xml version="1.0" encoding="utf-8" standalone="no"?>
<!DOCTYPE svg PUBLIC "-//W3C//DTD SVG 1.1//EN"
  "http://www.w3.org/Graphics/SVG/1.1/DTD/svg11.dtd">
<svg xmlns:xlink="http://www.w3.org/1999/xlink" width="144pt" height="60pt" viewBox="0 0 144 60" xmlns="http://www.w3.org/2000/svg" version="1.1">
  <desc id="nav-meta">{"window":"1y","count":4,"labels":["30.04","30.08","29.12","30.04"],"tick_utc":["2025-04-30T12:00:00Z","2025-08-30T12:00:00Z","2025-12-29T12:00:00Z","2026-04-30T04:23:32Z"]}</desc>

 <metadata>
  <rdf:RDF xmlns:dc="http://purl.org/dc/elements/1.1/" xmlns:cc="http://creativecommons.org/ns#" xmlns:rdf="http://www.w3.org/1999/02/22-rdf-syntax-ns#">
   <cc:Work>
    <dc:type rdf:resource="http://purl.org/dc/dcmitype/StillImage"/>
    <dc:date>2026-04-30T04:23:34.212664</dc:date>
    <dc:format>image/svg+xml</dc:format>
    <dc:creator>
     <cc:Agent>
      <dc:title>Matplotlib v3.10.9, https://matplotlib.org/</dc:title>
     </cc:Agent>
    </dc:creator>
   </cc:Work>
  </rdf:RDF>
 </metadata>
 <defs>
  <style type="text/css">*{stroke-linejoin: round; stroke-linecap: butt}</style>
 </defs>
 <g id="figure_1">
  <g id="patch_1">
   <path d="M 0 60 
L 144 60 
L 144 0 
L 0 0 
L 0 60 
z
" style="fill: none; opacity: 0"/>
  </g>
  <g id="axes_1">
   <g id="patch_2">
    <path d="M 5.76 52.8 
L 138.24 52.8 
L 138.24 3.6 
L 5.76 3.6 
L 5.76 52.8 
z
" style="fill: none"/>
   </g>
   <g id="matplotlib.axis_1"/>
   <g id="matplotlib.axis_2"/>
   <g id="line2d_1">
    <path d="M 5.76 42.96 
L 138.24 42.96 
" clip-path="url(#p52dafc4542)" style="fill: none; stroke: #b2b2b2; stroke-opacity: 0.35; stroke-width: 0.5; stroke-linecap: square"/>
   </g>
   <g id="line2d_2">
    <path d="M 5.76 33.12 
L 138.24 33.12 
" clip-path="url(#p52dafc4542)" style="fill: none; stroke: #b2b2b2; stroke-opacity: 0.35; stroke-width: 0.5; stroke-linecap: square"/>
   </g>
   <g id="line2d_3">
    <path d="M 5.76 23.28 
L 138.24 23.28 
" clip-path="url(#p52dafc4542)" style="fill: none; stroke: #b2b2b2; stroke-opacity: 0.35; stroke-width: 0.5; stroke-linecap: square"/>
   </g>
   <g id="line2d_4">
    <path d="M 5.76 13.44 
L 138.24 13.44 
" clip-path="url(#p52dafc4542)" style="fill: none; stroke: #b2b2b2; stroke-opacity: 0.35; stroke-width: 0.5; stroke-linecap: square"/>
   </g>
   <g id="line2d_5">
    <path d="M 5.76 42.5418 
L 6.123274 42.37944 
L 6.486549 41.98584 
L 6.849823 42.345 
L 7.213098 42.49752 
L 7.576372 42.86652 
L 7.939646 42.49752 
L 8.666195 42.44832 
L 9.02947 40.33272 
L 9.392744 39.12732 
L 9.756018 38.52216 
L 10.119293 39.10272 
L 10.482567 38.901 
L 10.845842 37.6464 
L 11.57239 39.639 
L 12.298939 40.008 
L 12.662214 39.27492 
L 13.025488 39.90468 
L 13.388762 39.6882 
L 14.115311 38.22696 
L 14.478586 38.901 
L 14.84186 38.69436 
L 15.568409 38.86164 
L 15.931683 38.62056 
L 16.658232 39.88992 
L 17.021506 41.23308 
L 18.111329 41.17404 
L 18.837878 41.62176 
L 19.201153 42.79272 
L 19.564427 42.30564 
L 20.290976 41.7546 
L 20.65425 40.62792 
L 21.017525 40.131 
L 21.380799 40.6476 
L 21.744073 41.73492 
L 22.470622 42.76812 
L 22.833897 41.73492 
L 23.197171 41.89728 
L 23.560445 42.345 
L 23.92372 42.5664 
L 24.286994 42.46308 
L 25.013543 44.20476 
L 25.376817 44.45076 
L 25.740092 42.7632 
L 26.103366 42.63036 
L 26.466641 42.94524 
L 26.829915 43.52088 
L 27.193189 43.1076 
L 27.556464 41.98092 
L 28.283013 41.43972 
L 28.646287 42.4926 
L 29.009561 41.79888 
L 29.372836 41.78412 
L 29.73611 42.37452 
L 30.099385 42.3942 
L 30.462659 41.83332 
L 30.825933 42.24168 
L 31.189208 41.84316 
L 31.915757 40.2786 
L 32.279031 40.42128 
L 32.642305 40.71648 
L 33.368854 40.48032 
L 33.732129 40.26384 
L 34.095403 38.97972 
L 34.821952 38.51724 
L 35.185226 38.57628 
L 35.5485 38.04492 
L 35.911775 36.03264 
L 36.275049 34.88136 
L 36.638324 36.92316 
L 37.001598 37.8432 
L 37.364872 37.37088 
L 37.728147 37.53324 
L 38.091421 37.056 
L 38.454696 37.77924 
L 38.81797 38.02032 
L 39.181244 38.45328 
L 39.544519 39.1962 
L 39.907793 40.41636 
L 40.271068 40.97232 
L 40.634342 40.53444 
L 40.997616 39.55536 
L 41.360891 40.24908 
L 41.724165 39.7128 
L 42.08744 38.778 
L 42.450714 38.59104 
L 43.177263 37.794 
L 43.540537 38.82228 
L 43.903812 36.53448 
L 44.267086 35.334 
L 44.993635 37.44468 
L 45.356909 36.90348 
L 45.720184 36.65748 
L 46.446732 38.64516 
L 46.810007 37.2282 
L 47.173281 38.14332 
L 47.536556 35.53572 
L 47.89983 35.04372 
L 48.263104 34.80264 
L 48.626379 37.23804 
L 49.716202 33.67104 
L 50.079476 34.90596 
L 51.1693 35.9736 
L 51.532574 34.36476 
L 51.895848 34.1778 
L 52.259123 35.22084 
L 52.622397 35.11752 
L 52.985672 35.54556 
L 54.438769 32.44104 
L 54.802043 31.83096 
L 55.165318 30.06468 
L 55.528592 30.01056 
L 55.891867 30.291 
L 56.255141 31.16184 
L 56.618415 30.74856 
L 56.98169 29.71536 
L 57.344964 29.37588 
L 57.708239 30.57636 
L 58.071513 30.42876 
L 58.434787 30.79284 
L 58.798062 32.91828 
L 59.161336 33.72024 
L 59.524611 34.05972 
L 59.887885 36.5886 
L 60.251159 34.90104 
L 60.614434 35.10276 
L 60.977708 34.16796 
L 61.340983 33.8826 
L 61.704257 34.43364 
L 62.430806 31.05852 
L 62.79408 31.26024 
L 63.157355 31.92936 
L 63.520629 31.85064 
L 63.883903 31.3242 
L 64.247178 32.84448 
L 64.610452 31.78176 
L 64.973727 32.85924 
L 65.337001 36.8838 
L 65.700275 38.39424 
L 66.06355 35.95392 
L 66.426824 34.53696 
L 66.790099 35.20608 
L 67.516647 37.57752 
L 67.879922 37.90716 
L 68.243196 37.18884 
L 68.606471 37.18392 
L 68.969745 36.89364 
L 69.333019 37.42008 
L 69.696294 38.17284 
L 70.059568 36.687 
L 70.422843 36.42132 
L 70.786117 36.34752 
L 71.149391 35.56032 
L 71.512666 35.72268 
L 71.87594 36.29832 
L 72.239215 36.32292 
L 72.602489 37.61688 
L 72.965763 37.2282 
L 73.329038 37.34628 
L 73.692312 37.23804 
L 74.055586 40.008 
L 74.418861 41.36592 
L 74.782135 40.43604 
L 75.14541 41.44956 
L 75.508684 40.53444 
L 75.871958 41.02152 
L 76.235233 40.22448 
L 76.598507 39.79644 
L 76.961782 41.51844 
L 77.325056 41.66604 
L 78.051605 43.51596 
L 78.414879 43.43724 
L 78.778154 43.71276 
L 79.141428 44.59836 
L 79.504702 43.30932 
L 80.594526 44.88372 
L 80.9578 44.99688 
L 81.321074 44.57868 
L 81.684349 43.5996 
L 82.047623 43.51596 
L 82.410898 43.00428 
L 82.774172 43.2798 
L 83.137446 43.71768 
L 83.863995 44.0916 
L 84.22727 45.11004 
L 84.590544 43.55532 
L 84.953818 42.72876 
L 85.680367 44.27364 
L 86.406916 44.47536 
L 86.77019 44.25888 
L 87.133465 43.64388 
L 87.496739 43.84068 
L 87.860014 43.85052 
L 88.223288 44.36712 
L 88.586562 44.26872 
L 88.949837 44.74104 
L 89.313111 44.98704 
L 89.676386 44.84436 
L 90.03966 45.58728 
L 90.402934 46.0596 
L 90.766209 45.18384 
L 92.219306 45.47904 
L 92.582581 45.65616 
L 92.945855 45.98088 
L 93.672404 45.38556 
L 94.035678 45.31668 
L 94.398953 45.58728 
L 94.762227 45.35604 
L 95.125501 45.40032 
L 95.488776 45.11496 
L 95.85205 44.42124 
L 96.578599 44.18508 
L 97.305148 43.24044 
L 97.668422 43.8702 
L 98.031697 43.60944 
L 98.394971 43.92924 
L 98.758245 43.93416 
L 99.12152 43.46184 
L 99.484794 43.5012 
L 99.848069 42.72384 
L 100.211343 42.51228 
L 100.574617 43.08792 
L 100.937892 42.75828 
L 101.301166 42.90096 
L 102.027715 44.2392 
L 102.390989 45.23304 
L 102.754264 44.77548 
L 103.480813 45.04608 
L 103.844087 45.07068 
L 104.207361 46.1334 
L 104.570636 45.4446 
L 104.93391 45.06084 
L 105.297185 45.33144 
L 105.660459 46.30068 
L 106.023733 46.34496 
L 106.387008 47.89476 
L 106.750282 48.26376 
L 107.113557 47.96364 
L 108.072021 50.04972 
L 108.433739 49.24776 
L 109.893463 49.59708 
L 110.25543 49.80372 
L 110.618595 49.86768 
L 111.321607 49.24776 
L 111.708183 49.48392 
L 112.025825 49.37568 
L 112.434156 49.479 
L 112.796989 49.7004 
L 113.886618 49.49376 
L 114.250986 49.98576 
L 114.583571 49.96608 
L 114.976227 49.7004 
L 115.337883 49.27236 
L 115.700468 49.37076 
L 116.059462 49.68072 
L 116.43099 49.25268 
L 116.790514 49.51344 
L 117.879929 49.09032 
L 119.334683 49.58724 
L 119.695624 49.36092 
L 120.42346 49.45932 
L 120.786032 49.16904 
L 121.519047 49.27236 
L 121.883347 48.87384 
L 122.60631 48.70164 
L 122.969685 49.03128 
L 123.329423 49.1592 
L 123.69057 49.08048 
L 124.423405 49.36584 
L 125.173646 48.90828 
L 125.514283 49.05096 
L 126.237818 49.64628 
L 127.697727 49.59708 
L 128.056216 49.8726 
L 128.78007 49.80864 
L 129.873942 49.83816 
L 130.237805 49.50852 
L 130.599814 49.68564 
L 131.324151 49.48884 
L 132.05908 49.69056 
L 132.420041 49.40028 
L 132.783038 49.58724 
L 133.869687 49.19856 
L 134.237759 49.43472 
L 134.601933 49.50852 
L 136.413684 49.37568 
L 136.78261 49.4052 
L 137.149798 49.29204 
L 137.513834 49.5528 
L 137.876116 49.50852 
L 138.24 49.64136 
L 138.24 49.64136 
" clip-path="url(#p52dafc4542)" style="fill: none; stroke: #bebebe; stroke-width: 0.6; stroke-linecap: round"/>
   </g>
   <g id="line2d_6">
    <path d="M 5.76 45.61188 
L 6.123274 45.63156 
L 6.486549 45.31176 
L 7.213098 45.3462 
L 7.576372 45.52824 
L 8.302921 45.47412 
L 8.666195 45.51348 
L 9.02947 42.77796 
L 9.392744 41.75952 
L 9.756018 40.04244 
L 10.119293 40.58364 
L 10.482567 40.69188 
L 10.845842 39.38808 
L 11.57239 40.33764 
L 11.935665 40.32288 
L 12.298939 40.81488 
L 12.662214 40.88376 
L 13.025488 40.44588 
L 13.388762 40.46556 
L 13.752037 40.21956 
L 14.115311 39.52584 
L 14.478586 40.49508 
L 15.568409 40.19496 
L 15.931683 39.4914 
L 16.294957 39.38808 
L 16.658232 39.69312 
L 17.021506 40.46556 
L 17.748055 40.36716 
L 18.111329 39.8604 
L 18.474604 39.96372 
L 18.837878 39.85548 
L 19.201153 41.1888 
L 19.927701 40.4508 
L 20.290976 40.5738 
L 21.017525 38.45328 
L 21.380799 38.68452 
L 21.744073 39.55536 
L 22.107348 40.09164 
L 22.470622 40.39668 
L 23.197171 40.2048 
L 23.560445 40.52952 
L 24.286994 40.48032 
L 25.013543 42.26136 
L 25.376817 42.5664 
L 25.740092 41.17404 
L 26.103366 41.0166 
L 26.466641 41.22324 
L 27.193189 41.17896 
L 27.556464 41.08056 
L 27.919738 40.61808 
L 28.283013 40.7214 
L 28.646287 41.30688 
L 29.009561 40.11132 
L 29.372836 39.99816 
L 29.73611 40.56888 
L 30.099385 40.51476 
L 30.462659 40.131 
L 30.825933 40.3278 
L 31.189208 39.81612 
L 31.915757 37.46436 
L 32.279031 37.39056 
L 32.642305 37.50372 
L 33.368854 37.01172 
L 33.732129 36.16056 
L 34.095403 34.4976 
L 34.458677 33.69072 
L 35.185226 32.89368 
L 35.5485 31.73256 
L 35.911775 31.68336 
L 36.275049 31.8162 
L 36.638324 32.64276 
L 37.001598 32.0868 
L 37.728147 31.85064 
L 38.091421 30.98964 
L 38.454696 31.53576 
L 38.81797 31.521 
L 39.181244 31.38816 
L 39.544519 32.17044 
L 39.907793 33.68088 
L 40.271068 34.28604 
L 40.634342 33.58248 
L 40.997616 32.0376 
L 41.360891 32.76576 
L 41.724165 32.259 
L 42.08744 30.65508 
L 42.450714 29.93676 
L 42.813988 28.14588 
L 43.540537 28.40664 
L 43.903812 25.73508 
L 44.267086 24.62316 
L 44.63036 26.10408 
L 44.993635 26.97984 
L 45.356909 27.00936 
L 45.720184 26.58132 
L 46.083458 27.7818 
L 46.446732 29.49888 
L 46.810007 27.68832 
L 47.173281 28.44108 
L 47.536556 24.16068 
L 47.89983 24.55428 
L 48.263104 24.51984 
L 48.626379 27.32916 
L 48.989653 25.7646 
L 49.352928 26.48784 
L 49.716202 26.43372 
L 50.079476 27.44724 
L 50.806025 27.27504 
L 51.1693 27.8802 
L 51.532574 27.72276 
L 51.895848 26.84208 
L 52.259123 27.91956 
L 52.622397 27.8556 
L 52.985672 28.09668 
L 53.348946 27.87528 
L 54.075495 27.83592 
L 54.438769 27.57024 
L 54.802043 26.77812 
L 55.165318 25.01184 
L 55.891867 25.71048 
L 56.255141 26.31564 
L 56.618415 26.45832 
L 56.98169 25.8384 
L 57.344964 25.84824 
L 57.708239 26.6994 
L 58.071513 26.62068 
L 58.434787 26.8224 
L 58.798062 28.61328 
L 59.524611 28.97244 
L 59.887885 30.99456 
L 60.251159 29.76456 
L 60.614434 29.8974 
L 60.977708 29.02164 
L 61.340983 28.50012 
L 61.704257 29.00688 
L 62.430806 26.601 
L 62.79408 26.3796 
L 63.157355 26.5764 
L 63.520629 26.3796 
L 63.883903 25.1496 
L 64.247178 26.81256 
L 64.610452 26.29596 
L 64.973727 27.41772 
L 65.337001 31.19136 
L 65.700275 31.80144 
L 66.06355 28.89864 
L 66.426824 28.28364 
L 67.516647 30.80268 
L 67.879922 31.22088 
L 68.243196 30.8076 
L 68.606471 30.13356 
L 68.969745 30.17784 
L 69.696294 31.42752 
L 70.059568 31.04376 
L 70.422843 30.49764 
L 70.786117 30.3648 
L 71.149391 28.88388 
L 71.512666 29.15448 
L 71.87594 30.15324 
L 72.602489 31.4226 
L 73.329038 30.9306 
L 73.692312 30.66 
L 74.418861 34.99944 
L 74.782135 34.07448 
L 75.14541 34.9158 
L 75.508684 34.02528 
L 75.871958 34.26144 
L 76.235233 33.0216 
L 76.598507 33.10524 
L 76.961782 34.1532 
L 77.325056 34.2024 
L 78.051605 36.34752 
L 78.414879 35.89488 
L 79.141428 36.94776 
L 79.504702 36.2688 
L 79.867977 36.97236 
L 80.231251 38.286 
L 80.594526 38.76324 
L 80.9578 38.73864 
L 81.321074 38.51724 
L 81.684349 37.42992 
L 82.047623 37.42008 
L 82.410898 36.90348 
L 82.774172 36.98712 
L 83.137446 36.86412 
L 83.500721 37.16424 
L 83.863995 37.14948 
L 84.22727 38.52216 
L 84.953818 35.71776 
L 85.317093 36.15564 
L 85.680367 36.93792 
L 86.406916 36.72636 
L 86.77019 36.21468 
L 87.133465 34.8174 
L 87.496739 34.7928 
L 87.860014 35.42748 
L 88.223288 36.49512 
L 88.586562 36.28356 
L 88.949837 36.6378 
L 89.313111 37.3512 
L 89.676386 37.3512 
L 90.03966 38.31552 
L 90.402934 38.32536 
L 90.766209 37.26264 
L 91.129483 37.26264 
L 91.492758 37.09044 
L 91.856032 37.06092 
L 92.219306 37.34628 
L 92.582581 37.48404 
L 92.945855 37.77924 
L 93.672404 37.45944 
L 94.398953 37.56276 
L 94.762227 37.31184 
L 95.125501 37.33644 
L 95.488776 37.09536 
L 95.85205 36.23928 
L 96.578599 36.11628 
L 97.305148 35.0142 
L 97.668422 35.93424 
L 98.031697 36.36228 
L 98.394971 36.50988 
L 98.758245 36.5148 
L 99.12152 36.25404 
L 99.484794 36.46068 
L 99.848069 34.83708 
L 100.211343 34.57632 
L 100.937892 35.00436 
L 101.301166 34.93056 
L 101.664441 35.088 
L 102.027715 35.78664 
L 102.390989 37.55292 
L 102.754264 37.26756 
L 103.117538 37.46436 
L 103.844087 37.45944 
L 104.207361 38.41392 
L 104.93391 36.95268 
L 105.297185 37.05108 
L 105.660459 38.37948 
L 106.023733 39.20604 
L 106.387008 41.03136 
L 106.750282 42.26628 
L 107.113557 41.73492 
L 107.420242 42.23676 
L 108.072021 44.89356 
L 108.433739 43.6242 
L 109.165594 43.53072 
L 109.530942 43.72752 
L 110.25543 44.436 
L 110.618595 44.49012 
L 110.977501 43.81608 
L 111.321607 43.7226 
L 111.708183 44.5344 
L 112.025825 44.19 
L 112.434156 44.21952 
L 113.15814 44.51472 
L 113.886618 44.3868 
L 114.250986 45.174 
L 114.583571 45.23796 
L 114.976227 44.81484 
L 115.337883 43.821 
L 115.700468 44.01288 
L 116.059462 44.66232 
L 116.43099 43.93908 
L 116.790514 44.39664 
L 117.154633 44.12112 
L 117.515873 44.33268 
L 117.879929 43.3044 
L 118.243031 43.6242 
L 118.603518 44.29824 
L 118.97032 44.53932 
L 119.334683 44.30808 
L 119.695624 43.8702 
L 120.058756 44.00304 
L 120.42346 43.97844 
L 120.786032 43.41756 
L 121.519047 43.48644 
L 122.240265 41.73984 
L 122.60631 41.7546 
L 123.329423 43.14204 
L 123.69057 43.083 
L 124.059277 43.35852 
L 124.423405 43.78164 
L 124.783316 43.21584 
L 125.173646 42.9354 
L 125.514283 43.10268 
L 126.237818 44.25396 
L 127.331337 43.74228 
L 127.697727 43.46676 
L 128.419907 43.79148 
L 129.148814 43.77672 
L 129.513026 43.2552 
L 129.873942 43.40772 
L 130.237805 42.49752 
L 130.599814 42.90588 
L 130.966431 42.8616 
L 131.324151 42.41388 
L 132.05908 42.79764 
L 132.420041 41.57256 
L 132.783038 41.86284 
L 133.147885 41.63652 
L 133.51042 41.85792 
L 133.869687 41.22324 
L 134.601933 42.1482 
L 134.963614 41.96616 
L 135.325761 41.59224 
L 136.054745 41.99076 
L 136.413684 41.91696 
L 136.78261 41.98584 
L 137.149798 41.41512 
L 137.513834 42.15312 
L 137.876116 41.96124 
L 138.24 42.43848 
L 138.24 42.43848 
" clip-path="url(#p52dafc4542)" style="fill: none; stroke: #4a8dff; stroke-width: 0.6; stroke-linecap: round"/>
   </g>
   <g id="line2d_7">
    <path d="M 5.76 38.9994 
L 6.123274 39.00924 
L 6.486549 37.92684 
L 6.849823 37.71528 
L 7.213098 38.17284 
L 7.576372 38.96496 
L 7.939646 38.74848 
L 8.302921 37.71528 
L 8.666195 37.63164 
L 9.02947 34.64028 
L 9.392744 34.69932 
L 9.756018 33.87276 
L 10.119293 34.18764 
L 10.482567 34.73868 
L 10.845842 34.09416 
L 11.209116 34.38444 
L 11.57239 34.33032 
L 12.298939 34.57632 
L 12.662214 33.18396 
L 13.025488 33.38076 
L 13.388762 32.81004 
L 13.752037 31.38816 
L 14.115311 30.45336 
L 14.478586 32.59848 
L 14.84186 32.29344 
L 15.205134 31.78176 
L 15.568409 31.53084 
L 15.931683 31.68336 
L 16.294957 32.28852 
L 17.021506 34.1778 
L 17.384781 33.84324 
L 17.748055 33.3414 
L 18.111329 33.25284 
L 18.837878 33.7842 
L 19.201153 35.34384 
L 19.564427 33.981 
L 19.927701 33.35616 
L 20.290976 33.35124 
L 20.65425 31.09296 
L 21.017525 31.11756 
L 21.380799 31.87524 
L 21.744073 33.20856 
L 22.107348 33.17412 
L 22.470622 33.45456 
L 22.833897 33.4152 
L 23.197171 32.7264 
L 23.560445 33.84816 
L 24.286994 33.84324 
L 25.376817 35.73744 
L 25.740092 33.4398 
L 26.103366 33.20856 
L 26.466641 32.58372 
L 26.829915 32.71164 
L 27.556464 32.53944 
L 27.919738 32.013 
L 28.646287 33.3906 
L 29.009561 31.80144 
L 29.372836 31.41768 
L 29.73611 32.19012 
L 30.099385 32.10156 
L 30.462659 31.60956 
L 30.825933 32.0622 
L 31.189208 31.73748 
L 31.552482 30.56652 
L 31.915757 28.31808 
L 32.279031 27.48168 
L 32.642305 27.55548 
L 33.00558 26.71908 
L 33.368854 26.36484 
L 33.732129 27.42756 
L 34.458677 26.55672 
L 34.821952 27.27504 
L 35.185226 27.31932 
L 35.5485 27.63912 
L 35.911775 27.52596 
L 36.275049 26.3058 
L 36.638324 26.96016 
L 37.001598 27.09792 
L 37.364872 27.49644 
L 37.728147 27.2898 
L 38.091421 26.57148 
L 38.454696 27.27012 
L 39.181244 27.35376 
L 39.907793 29.62188 
L 40.271068 29.96136 
L 40.634342 29.14956 
L 40.997616 28.68216 
L 41.360891 29.184 
L 41.724165 28.7412 
L 42.08744 27.5358 
L 42.450714 27.91956 
L 42.813988 28.00812 
L 43.177263 26.64528 
L 43.540537 26.88636 
L 43.903812 26.1828 
L 44.267086 24.52476 
L 44.63036 27.0684 
L 44.993635 27.59484 
L 45.720184 27.49644 
L 46.083458 28.13112 
L 46.446732 29.8482 
L 46.810007 29.12004 
L 47.173281 30.03024 
L 47.536556 27.84576 
L 48.263104 29.54316 
L 48.626379 31.13232 
L 48.989653 30.31068 
L 49.352928 30.62064 
L 49.716202 29.97612 
L 50.079476 31.97364 
L 50.442751 31.82112 
L 50.806025 32.0868 
L 51.1693 31.63416 
L 51.532574 30.6354 
L 51.895848 30.37464 
L 52.259123 30.86172 
L 52.622397 30.89616 
L 52.985672 31.11756 
L 53.71222 30.22212 
L 54.075495 30.45828 
L 54.438769 29.2578 
L 54.802043 28.50504 
L 55.165318 28.18032 
L 55.528592 28.2738 
L 55.891867 28.569 
L 56.255141 28.55424 
L 56.618415 27.8802 
L 56.98169 28.03272 
L 57.344964 27.69324 
L 57.708239 28.42632 
L 58.071513 28.3968 
L 58.434787 28.60344 
L 58.798062 29.88756 
L 59.161336 30.22212 
L 59.524611 29.58252 
L 59.887885 31.73256 
L 60.251159 31.36356 
L 60.614434 31.39308 
L 61.340983 29.09544 
L 61.704257 29.2332 
L 62.067531 27.02412 
L 62.79408 25.16928 
L 63.157355 25.10532 
L 63.883903 23.92452 
L 64.247178 25.53336 
L 64.610452 24.62808 
L 64.973727 25.4448 
L 65.337001 29.64156 
L 65.700275 30.80268 
L 66.06355 28.65756 
L 66.426824 28.6428 
L 67.153373 30.87156 
L 67.516647 32.17044 
L 67.879922 32.97732 
L 68.243196 32.628 
L 68.606471 31.90476 
L 68.969745 30.92076 
L 69.333019 31.96872 
L 69.696294 32.39676 
L 70.059568 31.19628 
L 70.786117 30.42384 
L 71.149391 29.0118 
L 71.512666 29.15448 
L 71.87594 29.76456 
L 72.239215 31.2012 
L 72.602489 32.09172 
L 72.965763 31.43244 
L 73.692312 30.90108 
L 74.418861 35.35368 
L 74.782135 34.24668 
L 75.14541 35.5062 
L 75.508684 34.48284 
L 75.871958 35.02896 
L 76.235233 33.8334 
L 76.598507 33.243 
L 76.961782 34.69932 
L 77.68833 36.2934 
L 78.051605 38.901 
L 78.414879 38.37948 
L 78.778154 38.92068 
L 79.141428 40.09164 
L 79.504702 39.70788 
L 79.867977 40.4262 
L 80.231251 42.75336 
L 80.594526 43.54548 
L 80.9578 43.72752 
L 81.684349 41.976 
L 82.047623 42.42864 
L 82.410898 40.86408 
L 82.774172 40.47048 
L 83.863995 40.89852 
L 84.22727 42.9354 
L 84.590544 40.43604 
L 84.953818 39.31428 
L 85.317093 40.04244 
L 85.680367 41.43972 
L 86.043642 41.47416 
L 86.406916 41.02152 
L 86.77019 40.7952 
L 87.133465 39.75708 
L 87.496739 40.11132 
L 87.860014 39.87024 
L 88.223288 40.94772 
L 88.586562 40.97232 
L 89.313111 42.87144 
L 89.676386 42.17772 
L 90.03966 43.04364 
L 90.402934 43.34868 
L 90.766209 42.03504 
L 91.492758 41.8038 
L 91.856032 41.84316 
L 92.219306 42.37944 
L 92.582581 42.26628 
L 92.945855 42.468 
L 93.309129 42.42864 
L 93.672404 42.18264 
L 94.035678 42.1728 
L 94.398953 42.50244 
L 94.762227 41.88252 
L 95.125501 42.32532 
L 95.85205 41.13468 
L 96.578599 40.42128 
L 96.941873 39.16176 
L 97.305148 39.28968 
L 97.668422 40.48032 
L 98.758245 40.88376 
L 99.484794 40.53936 
L 99.848069 38.50248 
L 100.211343 37.63656 
L 100.574617 38.34012 
L 100.937892 38.37456 
L 101.301166 38.5812 
L 102.027715 39.8358 
L 102.390989 41.93172 
L 102.754264 41.42004 
L 103.480813 41.39052 
L 103.844087 41.5086 
L 104.207361 42.80256 
L 104.570636 41.93664 
L 104.93391 41.49384 
L 105.297185 41.51352 
L 105.660459 43.78164 
L 106.023733 43.9932 
L 106.387008 46.66968 
L 106.750282 47.55036 
L 107.113557 46.64508 
L 107.708931 48.89352 
L 108.072021 49.84308 
L 108.433739 49.00176 
L 108.805318 49.233 
L 109.165594 48.97716 
L 109.893463 49.36092 
L 110.618595 49.58724 
L 110.977501 49.28712 
L 111.321607 49.16904 
L 111.708183 49.39044 
L 112.025825 49.29696 
L 112.796989 49.55772 
L 113.886618 49.41996 
L 114.250986 49.8234 
L 114.583571 49.86768 
L 114.976227 49.72992 
L 115.337883 49.39536 
L 116.059462 49.6758 
L 116.43099 49.47408 
L 116.790514 49.60692 
L 117.154633 49.37568 
L 117.515873 49.36584 
L 117.879929 48.6672 
L 118.97032 49.54788 
L 119.334683 49.5282 
L 119.695624 49.09032 
L 120.42346 49.2084 
L 120.786032 48.93288 
L 121.519047 48.89844 
L 122.240265 48.1998 
L 122.60631 48.28344 
L 122.969685 48.88368 
L 123.329423 49.04604 
L 123.69057 49.00176 
L 124.423405 49.38552 
L 124.783316 49.04112 
L 125.173646 48.92796 
L 125.514283 48.987 
L 126.237818 49.66104 
L 127.697727 49.40028 
L 128.056216 49.56756 
L 128.78007 49.56264 
L 129.148814 49.53312 
L 129.513026 49.25268 
L 129.873942 49.29696 
L 130.237805 48.89352 
L 130.599814 48.96732 
L 131.324151 48.5934 
L 131.693943 48.84432 
L 132.05908 48.95748 
L 132.420041 48.30804 
L 132.783038 48.34248 
L 133.147885 48.21456 
L 133.51042 48.26376 
L 133.869687 47.41752 
L 134.237759 48.05712 
L 134.601933 48.26376 
L 134.963614 48.01776 
L 135.325761 47.23548 
L 136.413684 47.1666 
L 136.78261 47.31912 
L 137.149798 46.49256 
L 137.513834 47.64876 
L 137.876116 47.5356 
L 138.24 48.0276 
L 138.24 48.0276 
" clip-path="url(#p52dafc4542)" style="fill: none; stroke: #f5841e; stroke-width: 0.7; stroke-linecap: round"/>
   </g>
  </g>
 </g>
 <defs>
  <clipPath id="p52dafc4542">
   <rect x="5.76" y="3.6" width="132.48" height="49.2"/>
  </clipPath>
 </defs>
</svg>
