<?xml version="1.0" encoding="utf-8" standalone="no"?>
<!DOCTYPE svg PUBLIC "-//W3C//DTD SVG 1.1//EN"
  "http://www.w3.org/Graphics/SVG/1.1/DTD/svg11.dtd">
<svg xmlns:xlink="http://www.w3.org/1999/xlink" width="144pt" height="60pt" viewBox="0 0 144 60" xmlns="http://www.w3.org/2000/svg" version="1.1">
 <metadata>
  <rdf:RDF xmlns:dc="http://purl.org/dc/elements/1.1/" xmlns:cc="http://creativecommons.org/ns#" xmlns:rdf="http://www.w3.org/1999/02/22-rdf-syntax-ns#">
   <cc:Work>
    <dc:type rdf:resource="http://purl.org/dc/dcmitype/StillImage"/>
    <dc:date>2026-01-22T19:44:30.611839</dc:date>
    <dc:format>image/svg+xml</dc:format>
    <dc:creator>
     <cc:Agent>
      <dc:title>Matplotlib v3.10.8, https://matplotlib.org/</dc:title>
     </cc:Agent>
    </dc:creator>
   </cc:Work>
  </rdf:RDF>
 </metadata>
 <defs>
  <style type="text/css">*{stroke-linejoin: round; stroke-linecap: butt}</style>
 </defs>
 <g id="figure_1">
  <g id="patch_1">
   <path d="M 0 60 
L 144 60 
L 144 0 
L 0 0 
L 0 60 
z
" style="fill: none; opacity: 0"/>
  </g>
  <g id="axes_1">
   <g id="patch_2">
    <path d="M 5.76 52.8 
L 141.12 52.8 
L 141.12 3.6 
L 5.76 3.6 
L 5.76 52.8 
z
" style="fill: none"/>
   </g>
   <g id="matplotlib.axis_1"/>
   <g id="matplotlib.axis_2"/>
   <g id="line2d_1">
    <path d="M 5.76 42.96 
L 141.12 42.96 
" clip-path="url(#p627db5423b)" style="fill: none; stroke: #ffffff; stroke-opacity: 0.1; stroke-width: 0.6; stroke-linecap: square"/>
   </g>
   <g id="line2d_2">
    <path d="M 5.76 33.12 
L 141.12 33.12 
" clip-path="url(#p627db5423b)" style="fill: none; stroke: #ffffff; stroke-opacity: 0.1; stroke-width: 0.6; stroke-linecap: square"/>
   </g>
   <g id="line2d_3">
    <path d="M 5.76 23.28 
L 141.12 23.28 
" clip-path="url(#p627db5423b)" style="fill: none; stroke: #ffffff; stroke-opacity: 0.1; stroke-width: 0.6; stroke-linecap: square"/>
   </g>
   <g id="line2d_4">
    <path d="M 5.76 13.44 
L 141.12 13.44 
" clip-path="url(#p627db5423b)" style="fill: none; stroke: #ffffff; stroke-opacity: 0.1; stroke-width: 0.6; stroke-linecap: square"/>
   </g>
   <g id="line2d_5">
    <path d="M 5.76 37.34628 
L 7.850502 37.34628 
L 10.463629 37.85304 
L 15.167259 37.771509 
L 17.257761 37.671 
L 19.348263 37.579059 
L 21.438764 37.45452 
L 40.253282 37.549748 
L 42.866409 37.68576 
L 58.545174 37.74972 
L 60.11305 38.502708 
L 60.635676 38.768958 
L 61.680927 38.8272 
L 68.997683 38.722949 
L 71.610811 38.730396 
L 74.746564 38.86656 
L 75.791815 38.927709 
L 77.882317 39.41268 
L 81.018069 39.510206 
L 83.108571 39.57996 
L 97.742085 39.489234 
L 99.309961 39.3438 
L 101.923089 39.267948 
L 104.013591 39.18144 
L 106.626718 39.269848 
L 108.71722 39.30936 
L 118.647104 39.370129 
L 120.737606 39.52092 
L 141.12 39.42252 
L 141.12 39.42252 
" clip-path="url(#p627db5423b)" style="fill: none; stroke: #bebebe; stroke-linecap: round"/>
   </g>
   <g id="line2d_6">
    <path d="M 5.76 32.07204 
L 10.463629 32.057489 
L 12.554131 31.935059 
L 15.689884 32.04744 
L 30.846023 31.936749 
L 38.16278 31.873283 
L 46.002162 31.868059 
L 53.318919 31.68336 
L 54.36417 31.68336 
L 56.977297 32.59223 
L 62.203552 32.589267 
L 67.429807 32.56896 
L 69.520309 32.610827 
L 72.133436 32.85432 
L 73.701313 32.924834 
L 75.791815 33.42504 
L 77.882317 33.473442 
L 79.972819 33.9072 
L 83.108571 33.988731 
L 85.199073 34.04988 
L 87.812201 34.15945 
L 90.947954 34.21773 
L 94.606332 34.29493 
L 98.26471 34.17288 
L 99.309961 34.097655 
L 101.400463 33.84816 
L 104.536216 33.931135 
L 107.149344 33.96624 
L 116.033977 34.177971 
L 118.124479 34.45332 
L 141.12 34.34508 
L 141.12 34.34508 
" clip-path="url(#p627db5423b)" style="fill: none; stroke: #4a8dff; stroke-linecap: round"/>
   </g>
   <g id="line2d_7">
    <path d="M 5.76 36.56892 
L 10.986255 36.468696 
L 12.554131 36.41735 
L 15.167259 36.60336 
L 30.323398 36.497893 
L 33.459151 36.468449 
L 50.183166 36.622565 
L 53.841544 36.50004 
L 54.36417 36.50004 
L 56.454672 37.568079 
L 58.022548 37.525224 
L 60.635676 37.49388 
L 65.861931 37.511072 
L 68.997683 37.45944 
L 70.56556 37.727476 
L 71.610811 37.87764 
L 73.701313 37.939643 
L 75.791815 38.37948 
L 78.404942 38.464963 
L 80.495444 38.62548 
L 82.585946 38.719625 
L 84.676448 38.91576 
L 87.812201 39.009677 
L 92.51583 39.12732 
L 95.128958 39.054603 
L 97.219459 38.84196 
L 100.355212 38.752678 
L 102.445714 38.71896 
L 115.511351 38.78292 
L 117.079228 39.013457 
L 118.124479 39.147 
L 134.325869 39.048334 
L 136.416371 39.01908 
L 137.984247 38.932534 
L 140.074749 38.8518 
L 141.12 38.8518 
L 141.12 38.8518 
" clip-path="url(#p627db5423b)" style="fill: none; stroke: #d8a538; stroke-linecap: round"/>
   </g>
  </g>
 </g>
 <defs>
  <clipPath id="p627db5423b">
   <rect x="5.76" y="3.6" width="135.36" height="49.2"/>
  </clipPath>
 </defs>
</svg>
