<?xml version="1.0" encoding="utf-8" standalone="no"?>
<!DOCTYPE svg PUBLIC "-//W3C//DTD SVG 1.1//EN"
  "http://www.w3.org/Graphics/SVG/1.1/DTD/svg11.dtd">
<svg xmlns:xlink="http://www.w3.org/1999/xlink" width="144pt" height="60pt" viewBox="0 0 144 60" xmlns="http://www.w3.org/2000/svg" version="1.1">
  <desc id="nav-meta">{"window":"6m","count":4,"labels":["12.01","13.03","11.05","10.07"],"tick_utc":["2026-01-12T12:00:00Z","2026-03-13T03:16:57Z","2026-05-11T04:46:58Z","2026-07-10T04:38:36Z"]}</desc>

 <metadata>
  <rdf:RDF xmlns:dc="http://purl.org/dc/elements/1.1/" xmlns:cc="http://creativecommons.org/ns#" xmlns:rdf="http://www.w3.org/1999/02/22-rdf-syntax-ns#">
   <cc:Work>
    <dc:type rdf:resource="http://purl.org/dc/dcmitype/StillImage"/>
    <dc:date>2026-07-10T15:18:45.168489</dc:date>
    <dc:format>image/svg+xml</dc:format>
    <dc:creator>
     <cc:Agent>
      <dc:title>Matplotlib v3.11.0, https://matplotlib.org/</dc:title>
     </cc:Agent>
    </dc:creator>
   </cc:Work>
  </rdf:RDF>
 </metadata>
 <defs>
  <style type="text/css">*{stroke-linejoin: round; stroke-linecap: butt}</style>
 </defs>
 <g id="figure_1">
  <g id="patch_1">
   <path d="M 0 60 
L 144 60 
L 144 0 
L 0 0 
L 0 60 
z
" style="fill: none; opacity: 0"/>
  </g>
  <g id="axes_1">
   <g id="patch_2">
    <path d="M 5.76 52.8 
L 138.24 52.8 
L 138.24 3.6 
L 5.76 3.6 
L 5.76 52.8 
z
" style="fill: none"/>
   </g>
   <g id="matplotlib.axis_1"/>
   <g id="matplotlib.axis_2"/>
   <g id="line2d_1">
    <path d="M 5.76 42.96 
L 138.24 42.96 
" clip-path="url(#pc6a0536dac)" style="fill: none; stroke: #b2b2b2; stroke-opacity: 0.35; stroke-width: 0.5; stroke-linecap: square"/>
   </g>
   <g id="line2d_2">
    <path d="M 5.76 33.12 
L 138.24 33.12 
" clip-path="url(#pc6a0536dac)" style="fill: none; stroke: #b2b2b2; stroke-opacity: 0.35; stroke-width: 0.5; stroke-linecap: square"/>
   </g>
   <g id="line2d_3">
    <path d="M 5.76 23.28 
L 138.24 23.28 
" clip-path="url(#pc6a0536dac)" style="fill: none; stroke: #b2b2b2; stroke-opacity: 0.35; stroke-width: 0.5; stroke-linecap: square"/>
   </g>
   <g id="line2d_4">
    <path d="M 5.76 13.44 
L 138.24 13.44 
" clip-path="url(#pc6a0536dac)" style="fill: none; stroke: #b2b2b2; stroke-opacity: 0.35; stroke-width: 0.5; stroke-linecap: square"/>
   </g>
   <g id="line2d_5">
    <path d="M 5.76 43.46184 
L 6.501381 43.5012 
L 7.242763 42.72384 
L 7.984144 42.51228 
L 8.725525 43.08792 
L 9.466907 42.75828 
L 10.208288 42.90096 
L 11.69105 44.2392 
L 12.432432 45.23304 
L 13.173813 44.77548 
L 14.656576 45.04608 
L 15.397957 45.07068 
L 16.139338 46.1334 
L 16.88072 45.4446 
L 17.622101 45.06084 
L 18.363482 45.33144 
L 19.104864 46.30068 
L 19.846245 46.34496 
L 20.587626 47.89476 
L 21.329007 48.26376 
L 22.070389 47.96364 
L 23.285448 49.06572 
L 24.026451 50.04972 
L 24.764658 49.24776 
L 27.743706 49.59708 
L 28.482419 49.80372 
L 29.223577 49.86768 
L 29.956043 49.479 
L 30.658304 49.24776 
L 31.447241 49.48392 
L 32.095494 49.37568 
L 32.928828 49.479 
L 33.669308 49.7004 
L 35.893057 49.49376 
L 36.636669 49.98576 
L 37.315419 49.96608 
L 38.116763 49.7004 
L 38.854841 49.27236 
L 39.594815 49.37076 
L 40.327461 49.68072 
L 41.085687 49.25268 
L 41.819414 49.51344 
L 44.042725 49.09032 
L 46.268028 49.64628 
L 47.011631 49.58724 
L 47.74825 49.36092 
L 49.233639 49.45932 
L 49.973587 49.16904 
L 51.469547 49.27236 
L 52.213022 48.87384 
L 53.688465 48.70164 
L 54.430052 49.03128 
L 55.164217 49.1592 
L 55.901257 49.08048 
L 57.396848 49.36584 
L 58.927963 48.90828 
L 59.623145 49.05096 
L 61.099756 49.64628 
L 64.079182 49.59708 
L 64.810798 49.8726 
L 66.28806 49.80864 
L 68.520468 49.83816 
L 69.26305 49.50852 
L 70.001849 49.68564 
L 71.480098 49.48884 
L 72.234779 49.6512 
L 72.979962 49.69056 
L 73.716624 49.40028 
L 74.457439 49.58724 
L 76.675104 49.19856 
L 77.426276 49.43472 
L 78.169494 49.50852 
L 81.86697 49.37568 
L 82.619884 49.4052 
L 83.369254 49.29204 
L 84.112188 49.5528 
L 84.851545 49.50852 
L 85.59417 49.64136 
L 87.066112 49.56264 
L 87.822544 49.57248 
L 88.563668 49.42488 
L 89.28872 49.49376 
L 90.78474 49.25268 
L 91.513782 49.24284 
L 92.257875 48.80004 
L 93.014196 48.85416 
L 94.492513 48.63276 
L 95.237422 48.66228 
L 95.977979 49.09524 
L 96.723016 48.99192 
L 98.207383 49.34616 
L 98.955964 49.47408 
L 100.436066 49.54788 
L 101.181669 49.3314 
L 101.91737 49.34616 
L 102.648566 49.51836 
L 104.152823 49.41504 
L 106.370978 49.7742 
L 108.600116 49.61676 
L 110.086551 49.7988 
L 110.836273 50.19732 
L 111.575114 50.45808 
L 112.304285 50.59092 
L 113.034271 50.99928 
L 114.536246 50.74344 
L 115.263478 50.62536 
L 116.012547 50.80248 
L 118.985289 50.56632 
L 120.496926 50.23176 
L 121.214693 50.2416 
L 122.711365 50.55156 
L 124.942992 50.217 
L 127.12527 50.59092 
L 127.870452 50.59092 
L 128.602747 50.33016 
L 129.358261 50.4384 
L 130.105005 50.3892 
L 133.784144 49.6266 
L 134.53638 49.7742 
L 136.015204 49.76436 
L 137.500292 49.98084 
L 138.24 49.8972 
L 138.24 49.8972 
" clip-path="url(#pc6a0536dac)" style="fill: none; stroke: #bebebe; stroke-width: 0.6; stroke-linecap: round"/>
   </g>
   <g id="line2d_6">
    <path d="M 5.76 36.25404 
L 6.501381 36.46068 
L 7.242763 34.83708 
L 7.984144 34.57632 
L 9.466907 35.00436 
L 10.208288 34.93056 
L 10.949669 35.088 
L 11.69105 35.78664 
L 12.432432 37.55292 
L 13.173813 37.26756 
L 13.915194 37.46436 
L 15.397957 37.45944 
L 16.139338 38.41392 
L 17.622101 36.95268 
L 18.363482 37.05108 
L 19.104864 38.37948 
L 19.846245 39.20604 
L 20.587626 41.03136 
L 21.329007 42.26628 
L 22.070389 41.73492 
L 22.696281 42.23676 
L 24.026451 44.89356 
L 24.764658 43.6242 
L 26.258249 43.53072 
L 27.003861 43.72752 
L 28.482419 44.436 
L 29.223577 44.49012 
L 29.956043 43.81608 
L 30.658304 43.7226 
L 31.447241 44.5344 
L 32.095494 44.19 
L 32.928828 44.21952 
L 34.406356 44.51472 
L 35.893057 44.3868 
L 36.636669 45.174 
L 37.315419 45.23796 
L 38.116763 44.81484 
L 38.854841 43.821 
L 39.594815 44.01288 
L 40.327461 44.66232 
L 41.085687 43.93908 
L 41.819414 44.39664 
L 42.56252 44.12112 
L 43.299748 44.33268 
L 44.042725 43.3044 
L 44.783755 43.6242 
L 45.519447 44.29824 
L 46.268028 44.53932 
L 47.011631 44.30808 
L 47.74825 43.8702 
L 48.48934 44.00304 
L 49.233639 43.97844 
L 49.973587 43.41756 
L 51.469547 43.48644 
L 52.213022 42.49752 
L 52.941429 41.73984 
L 53.688465 41.7546 
L 54.430052 42.591 
L 55.164217 43.14204 
L 55.901257 43.083 
L 56.653724 43.35852 
L 57.396848 43.78164 
L 58.131364 43.21584 
L 58.927963 42.9354 
L 59.623145 43.10268 
L 61.099756 44.25396 
L 63.331442 43.74228 
L 64.079182 43.46676 
L 65.553029 43.79148 
L 67.040605 43.77672 
L 67.7839 43.2552 
L 68.520468 43.40772 
L 69.26305 42.49752 
L 70.001849 42.90588 
L 70.750052 42.8616 
L 71.480098 42.41388 
L 72.979962 42.79764 
L 73.716624 41.57256 
L 74.457439 41.86284 
L 75.202029 41.63652 
L 75.9419 41.85792 
L 76.675104 41.22324 
L 77.426276 41.76936 
L 78.169494 42.1482 
L 78.907623 41.96616 
L 79.646705 41.59224 
L 81.134436 41.99076 
L 81.86697 41.91696 
L 82.619884 41.98584 
L 83.369254 41.41512 
L 84.112188 42.15312 
L 84.851545 41.96124 
L 85.59417 42.43848 
L 87.066112 42.02028 
L 87.822544 42.0252 
L 88.563668 41.40528 
L 90.043162 41.52336 
L 91.513782 42.1974 
L 92.257875 41.8776 
L 93.761429 41.8038 
L 94.492513 41.976 
L 95.237422 42.00552 
L 95.977979 42.3942 
L 96.723016 42.27612 
L 98.207383 42.85176 
L 98.955964 43.31424 
L 99.692033 43.2306 
L 100.436066 43.39296 
L 101.181669 43.16172 
L 101.91737 43.24536 
L 102.648566 43.71768 
L 103.401686 43.33392 
L 105.631965 43.67832 
L 106.370978 44.32776 
L 107.112908 44.13588 
L 107.843598 44.16048 
L 108.600116 43.96368 
L 109.352464 44.2392 
L 110.086551 44.19984 
L 110.836273 45.16908 
L 111.575114 45.67584 
L 112.304285 46.00548 
L 113.034271 47.57004 
L 114.536246 46.64016 
L 115.263478 46.34496 
L 116.012547 46.82712 
L 117.502569 46.51716 
L 118.238528 46.5516 
L 118.985289 46.46304 
L 121.214693 45.6414 
L 121.952522 46.09404 
L 122.711365 46.3302 
L 124.942992 46.035 
L 125.640053 46.14324 
L 127.870452 47.38308 
L 128.602747 47.14692 
L 130.105005 47.22072 
L 132.312639 46.79268 
L 133.045955 46.27608 
L 133.784144 45.92184 
L 135.284943 45.75456 
L 137.500292 46.02024 
L 138.24 45.77424 
L 138.24 45.77424 
" clip-path="url(#pc6a0536dac)" style="fill: none; stroke: #4a8dff; stroke-width: 0.6; stroke-linecap: round"/>
   </g>
   <g id="line2d_7">
    <path d="M 5.76 40.6968 
L 6.501381 40.53936 
L 7.242763 38.50248 
L 7.984144 37.63656 
L 8.725525 38.34012 
L 9.466907 38.37456 
L 10.208288 38.5812 
L 11.69105 39.8358 
L 12.432432 41.93172 
L 13.173813 41.42004 
L 14.656576 41.39052 
L 15.397957 41.5086 
L 16.139338 42.80256 
L 16.88072 41.93664 
L 17.622101 41.49384 
L 18.363482 41.51352 
L 19.104864 43.78164 
L 19.846245 43.9932 
L 20.587626 46.66968 
L 21.329007 47.55036 
L 22.070389 46.64508 
L 23.285448 48.89352 
L 24.026451 49.84308 
L 24.764658 49.00176 
L 25.522986 49.233 
L 26.258249 48.97716 
L 27.743706 49.36092 
L 29.223577 49.58724 
L 29.956043 49.28712 
L 30.658304 49.16904 
L 31.447241 49.39044 
L 32.095494 49.29696 
L 33.669308 49.55772 
L 35.893057 49.41996 
L 36.636669 49.8234 
L 37.315419 49.86768 
L 38.116763 49.72992 
L 38.854841 49.39536 
L 40.327461 49.6758 
L 41.085687 49.47408 
L 41.819414 49.60692 
L 42.56252 49.37568 
L 43.299748 49.36584 
L 44.042725 48.6672 
L 44.783755 48.95256 
L 45.519447 49.36092 
L 46.268028 49.54788 
L 47.011631 49.5282 
L 47.74825 49.09032 
L 49.233639 49.2084 
L 49.973587 48.93288 
L 51.469547 48.89844 
L 52.213022 48.48024 
L 52.941429 48.1998 
L 53.688465 48.28344 
L 54.430052 48.88368 
L 55.164217 49.04604 
L 55.901257 49.00176 
L 57.396848 49.38552 
L 58.131364 49.04112 
L 58.927963 48.92796 
L 59.623145 48.987 
L 61.099756 49.66104 
L 64.079182 49.40028 
L 64.810798 49.56756 
L 66.28806 49.56264 
L 67.040605 49.53312 
L 67.7839 49.25268 
L 68.520468 49.29696 
L 69.26305 48.89352 
L 70.001849 48.96732 
L 71.480098 48.5934 
L 72.234779 48.84432 
L 72.979962 48.95748 
L 73.716624 48.30804 
L 74.457439 48.34248 
L 75.202029 48.21456 
L 75.9419 48.26376 
L 76.675104 47.41752 
L 77.426276 48.05712 
L 78.169494 48.26376 
L 78.907623 48.01776 
L 79.646705 47.23548 
L 81.86697 47.1666 
L 82.619884 47.31912 
L 83.369254 46.49256 
L 84.112188 47.64876 
L 84.851545 47.5356 
L 85.59417 48.0276 
L 86.343652 47.50608 
L 87.066112 46.81728 
L 87.822544 46.92552 
L 88.563668 45.85788 
L 90.043162 45.29208 
L 90.78474 45.58728 
L 91.513782 46.2564 
L 92.257875 45.7152 
L 95.237422 45.42492 
L 95.977979 46.38432 
L 96.723016 45.57744 
L 97.454932 46.51716 
L 98.207383 46.95996 
L 98.955964 47.54544 
L 100.436066 47.66844 
L 101.181669 47.05344 
L 101.91737 47.22564 
L 102.648566 48.07188 
L 104.152823 47.37324 
L 105.631965 48.07188 
L 106.370978 48.59832 
L 107.112908 48.52452 
L 107.843598 48.5688 
L 108.600116 48.38676 
L 109.352464 48.55404 
L 111.575114 49.93656 
L 112.304285 49.98084 
L 113.034271 50.3646 
L 113.791587 50.15796 
L 115.263478 49.99068 
L 116.012547 50.217 
L 117.502569 49.98084 
L 118.985289 49.87752 
L 119.751315 49.69548 
L 121.214693 49.7004 
L 122.711365 50.06448 
L 124.179909 49.89228 
L 125.640053 49.9464 
L 128.602747 50.31048 
L 131.584241 50.41872 
L 133.784144 50.0694 
L 136.736438 50.05956 
L 137.500292 50.11368 
L 138.24 49.91196 
L 138.24 49.91196 
" clip-path="url(#pc6a0536dac)" style="fill: none; stroke: #f5841e; stroke-width: 0.7; stroke-linecap: round"/>
   </g>
  </g>
 </g>
 <defs>
  <clipPath id="pc6a0536dac">
   <rect x="5.76" y="3.6" width="132.48" height="49.2"/>
  </clipPath>
 </defs>
</svg>
