<?xml version="1.0" encoding="utf-8" standalone="no"?>
<!DOCTYPE svg PUBLIC "-//W3C//DTD SVG 1.1//EN"
  "http://www.w3.org/Graphics/SVG/1.1/DTD/svg11.dtd">
<svg xmlns:xlink="http://www.w3.org/1999/xlink" width="144pt" height="60pt" viewBox="0 0 144 60" xmlns="http://www.w3.org/2000/svg" version="1.1">
  <desc id="nav-meta">{"window":"3m","count":4,"labels":["06.01","05.02","07.03","06.04"],"tick_utc":["2026-01-06T12:00:00Z","2026-02-05T03:20:02Z","2026-03-07T03:05:35Z","2026-04-06T03:50:17Z"]}</desc>

 <metadata>
  <rdf:RDF xmlns:dc="http://purl.org/dc/elements/1.1/" xmlns:cc="http://creativecommons.org/ns#" xmlns:rdf="http://www.w3.org/1999/02/22-rdf-syntax-ns#">
   <cc:Work>
    <dc:type rdf:resource="http://purl.org/dc/dcmitype/StillImage"/>
    <dc:date>2026-04-06T08:12:37.279435</dc:date>
    <dc:format>image/svg+xml</dc:format>
    <dc:creator>
     <cc:Agent>
      <dc:title>Matplotlib v3.10.8, https://matplotlib.org/</dc:title>
     </cc:Agent>
    </dc:creator>
   </cc:Work>
  </rdf:RDF>
 </metadata>
 <defs>
  <style type="text/css">*{stroke-linejoin: round; stroke-linecap: butt}</style>
 </defs>
 <g id="figure_1">
  <g id="patch_1">
   <path d="M 0 60 
L 144 60 
L 144 0 
L 0 0 
L 0 60 
z
" style="fill: none; opacity: 0"/>
  </g>
  <g id="axes_1">
   <g id="patch_2">
    <path d="M 5.76 52.8 
L 138.24 52.8 
L 138.24 3.6 
L 5.76 3.6 
L 5.76 52.8 
z
" style="fill: none"/>
   </g>
   <g id="matplotlib.axis_1"/>
   <g id="matplotlib.axis_2"/>
   <g id="line2d_1">
    <path d="M 5.76 42.96 
L 138.24 42.96 
" clip-path="url(#p57a90e4c3d)" style="fill: none; stroke: #b2b2b2; stroke-opacity: 0.35; stroke-width: 0.5; stroke-linecap: square"/>
   </g>
   <g id="line2d_2">
    <path d="M 5.76 33.12 
L 138.24 33.12 
" clip-path="url(#p57a90e4c3d)" style="fill: none; stroke: #b2b2b2; stroke-opacity: 0.35; stroke-width: 0.5; stroke-linecap: square"/>
   </g>
   <g id="line2d_3">
    <path d="M 5.76 23.28 
L 138.24 23.28 
" clip-path="url(#p57a90e4c3d)" style="fill: none; stroke: #b2b2b2; stroke-opacity: 0.35; stroke-width: 0.5; stroke-linecap: square"/>
   </g>
   <g id="line2d_4">
    <path d="M 5.76 13.44 
L 138.24 13.44 
" clip-path="url(#p57a90e4c3d)" style="fill: none; stroke: #b2b2b2; stroke-opacity: 0.35; stroke-width: 0.5; stroke-linecap: square"/>
   </g>
   <g id="line2d_5">
    <path d="M 5.76 43.62912 
L 7.237583 43.24044 
L 8.715167 43.8702 
L 10.19275 43.60944 
L 11.670333 43.92924 
L 13.147917 43.93416 
L 14.6255 43.46184 
L 16.103083 43.5012 
L 17.580666 42.72384 
L 19.05825 42.51228 
L 20.535833 43.08792 
L 22.013416 42.75828 
L 23.491 42.90096 
L 24.968583 43.57008 
L 26.446166 44.2392 
L 27.92375 45.23304 
L 29.401333 44.77548 
L 30.878916 44.91816 
L 32.3565 45.04608 
L 33.834083 45.07068 
L 35.311666 46.1334 
L 36.78925 45.4446 
L 38.266833 45.06084 
L 39.744416 45.33144 
L 41.221999 46.30068 
L 42.699583 46.34496 
L 44.177166 47.89476 
L 45.654749 48.26376 
L 47.132333 47.96364 
L 48.379745 48.55896 
L 49.553962 49.06572 
L 51.030793 50.04972 
L 52.502048 49.24776 
L 54.013407 49.32156 
L 55.478797 49.31172 
L 56.964812 49.43964 
L 58.439334 49.59708 
L 59.911598 49.80372 
L 61.388737 49.86768 
L 62.848552 49.479 
L 64.248169 49.24776 
L 65.820529 49.48392 
L 67.112508 49.37568 
L 68.773353 49.479 
L 70.249141 49.7004 
L 71.718088 49.62168 
L 73.186641 49.5282 
L 74.681104 49.49376 
L 76.163134 49.98576 
L 77.515892 49.96608 
L 79.112982 49.7004 
L 80.583981 49.27236 
L 82.05876 49.37076 
L 83.518933 49.68072 
L 85.030087 49.25268 
L 86.492416 49.51344 
L 87.973437 49.4052 
L 89.442743 49.34124 
L 90.923507 49.09032 
L 92.400389 49.24284 
L 93.866634 49.49868 
L 95.358566 49.64628 
L 96.840578 49.58724 
L 98.30867 49.36092 
L 99.785672 49.41996 
L 101.26907 49.45932 
L 102.743797 49.16904 
L 104.219414 49.22808 
L 105.725266 49.27236 
L 107.207022 48.87384 
L 108.658748 48.74592 
L 110.147601 48.70164 
L 111.625595 49.03128 
L 113.088796 49.1592 
L 114.557726 49.08048 
L 116.057404 49.21332 
L 117.538459 49.36584 
L 119.002361 49.11 
L 120.589994 48.90828 
L 121.975502 49.05096 
L 123.454949 49.37076 
L 124.918406 49.64628 
L 126.416118 49.6266 
L 127.897926 49.602 
L 129.366189 49.59708 
L 130.856444 49.59708 
L 132.314566 49.8726 
L 133.793842 49.88244 
L 135.25877 49.80864 
L 136.758603 49.78896 
L 138.24 49.69056 
" clip-path="url(#p57a90e4c3d)" style="fill: none; stroke: #bebebe; stroke-width: 0.6; stroke-linecap: round"/>
   </g>
   <g id="line2d_6">
    <path d="M 5.76 35.48652 
L 7.237583 35.0142 
L 8.715167 35.93424 
L 10.19275 36.36228 
L 11.670333 36.50988 
L 13.147917 36.5148 
L 14.6255 36.25404 
L 16.103083 36.46068 
L 17.580666 34.83708 
L 19.05825 34.57632 
L 20.535833 34.84692 
L 22.013416 35.00436 
L 23.491 34.93056 
L 24.968583 35.088 
L 26.446166 35.78664 
L 27.92375 37.55292 
L 29.401333 37.26756 
L 30.878916 37.46436 
L 32.3565 37.44468 
L 33.834083 37.45944 
L 35.311666 38.41392 
L 36.78925 37.61196 
L 38.266833 36.95268 
L 39.744416 37.05108 
L 41.221999 38.37948 
L 42.699583 39.20604 
L 44.177166 41.03136 
L 45.654749 42.26628 
L 47.132333 41.73492 
L 48.379745 42.23676 
L 49.553962 43.38804 
L 51.030793 44.89356 
L 52.502048 43.6242 
L 54.013407 43.575 
L 55.478797 43.53072 
L 56.964812 43.72752 
L 58.439334 44.0916 
L 59.911598 44.436 
L 61.388737 44.49012 
L 62.848552 43.81608 
L 64.248169 43.7226 
L 65.820529 44.5344 
L 67.112508 44.19 
L 68.773353 44.21952 
L 70.249141 44.3868 
L 71.718088 44.51472 
L 73.186641 44.4606 
L 74.681104 44.3868 
L 76.163134 45.174 
L 77.515892 45.23796 
L 79.112982 44.81484 
L 80.583981 43.821 
L 82.05876 44.01288 
L 83.518933 44.66232 
L 85.030087 43.93908 
L 86.492416 44.39664 
L 87.973437 44.12112 
L 89.442743 44.33268 
L 90.923507 43.3044 
L 92.400389 43.6242 
L 93.866634 44.29824 
L 95.358566 44.53932 
L 96.840578 44.30808 
L 98.30867 43.8702 
L 99.785672 44.00304 
L 101.26907 43.97844 
L 102.743797 43.41756 
L 104.219414 43.48152 
L 105.725266 43.48644 
L 107.207022 42.49752 
L 108.658748 41.73984 
L 110.147601 41.7546 
L 111.625595 42.591 
L 113.088796 43.14204 
L 114.557726 43.083 
L 116.057404 43.35852 
L 117.538459 43.78164 
L 119.002361 43.21584 
L 120.589994 42.9354 
L 121.975502 43.10268 
L 123.454949 43.72752 
L 124.918406 44.25396 
L 126.416118 44.10636 
L 127.897926 43.9194 
L 129.366189 43.74228 
L 130.856444 43.46676 
L 132.314566 43.65372 
L 133.793842 43.79148 
L 135.25877 43.81116 
L 136.758603 43.77672 
L 138.24 43.2552 
" clip-path="url(#p57a90e4c3d)" style="fill: none; stroke: #4a8dff; stroke-width: 0.6; stroke-linecap: round"/>
   </g>
   <g id="line2d_7">
    <path d="M 5.76 39.16176 
L 7.237583 39.28968 
L 8.715167 40.48032 
L 10.19275 40.61316 
L 11.670333 40.84932 
L 13.147917 40.88376 
L 14.6255 40.6968 
L 16.103083 40.53936 
L 17.580666 38.50248 
L 19.05825 37.63656 
L 20.535833 38.34012 
L 22.013416 38.37456 
L 23.491 38.5812 
L 24.968583 39.2454 
L 26.446166 39.8358 
L 27.92375 41.93172 
L 29.401333 41.42004 
L 30.878916 41.37576 
L 32.3565 41.39052 
L 33.834083 41.5086 
L 35.311666 42.80256 
L 36.78925 41.93664 
L 38.266833 41.49384 
L 39.744416 41.51352 
L 41.221999 43.78164 
L 42.699583 43.9932 
L 44.177166 46.66968 
L 45.654749 47.55036 
L 47.132333 46.64508 
L 48.379745 47.89476 
L 49.553962 48.89352 
L 51.030793 49.84308 
L 52.502048 49.00176 
L 54.013407 49.233 
L 55.478797 48.97716 
L 56.964812 49.22316 
L 58.439334 49.36092 
L 59.911598 49.49868 
L 61.388737 49.58724 
L 62.848552 49.28712 
L 64.248169 49.16904 
L 65.820529 49.39044 
L 67.112508 49.29696 
L 68.773353 49.479 
L 70.249141 49.55772 
L 71.718088 49.51344 
L 73.186641 49.44948 
L 74.681104 49.41996 
L 76.163134 49.8234 
L 77.515892 49.86768 
L 79.112982 49.72992 
L 80.583981 49.39536 
L 82.05876 49.52328 
L 83.518933 49.6758 
L 85.030087 49.47408 
L 86.492416 49.60692 
L 87.973437 49.37568 
L 89.442743 49.36584 
L 90.923507 48.6672 
L 92.400389 48.95256 
L 93.866634 49.36092 
L 95.358566 49.54788 
L 96.840578 49.5282 
L 98.30867 49.09032 
L 99.785672 49.16412 
L 101.26907 49.2084 
L 102.743797 48.93288 
L 104.219414 48.95748 
L 105.725266 48.89844 
L 107.207022 48.48024 
L 108.658748 48.1998 
L 110.147601 48.28344 
L 111.625595 48.88368 
L 113.088796 49.04604 
L 114.557726 49.00176 
L 116.057404 49.20348 
L 117.538459 49.38552 
L 119.002361 49.04112 
L 120.589994 48.92796 
L 121.975502 48.987 
L 123.454949 49.29204 
L 124.918406 49.66104 
L 126.416118 49.56756 
L 127.897926 49.53312 
L 129.366189 49.46424 
L 130.856444 49.40028 
L 132.314566 49.56756 
L 133.793842 49.59708 
L 135.25877 49.56264 
L 136.758603 49.53312 
L 138.24 49.25268 
" clip-path="url(#p57a90e4c3d)" style="fill: none; stroke: #f5841e; stroke-width: 0.7; stroke-linecap: round"/>
   </g>
  </g>
 </g>
 <defs>
  <clipPath id="p57a90e4c3d">
   <rect x="5.76" y="3.6" width="132.48" height="49.2"/>
  </clipPath>
 </defs>
</svg>
