<?xml version="1.0" encoding="utf-8" standalone="no"?>
<!DOCTYPE svg PUBLIC "-//W3C//DTD SVG 1.1//EN"
  "http://www.w3.org/Graphics/SVG/1.1/DTD/svg11.dtd">
<svg xmlns:xlink="http://www.w3.org/1999/xlink" width="144pt" height="60pt" viewBox="0 0 144 60" xmlns="http://www.w3.org/2000/svg" version="1.1">
  <desc id="nav-meta">{"window":"3m","count":4,"labels":["16.01","15.02","17.03","16.04"],"tick_utc":["2026-01-16T12:00:00Z","2026-02-15T02:00:29Z","2026-03-17T03:21:27Z","2026-04-16T03:58:40Z"]}</desc>

 <metadata>
  <rdf:RDF xmlns:dc="http://purl.org/dc/elements/1.1/" xmlns:cc="http://creativecommons.org/ns#" xmlns:rdf="http://www.w3.org/1999/02/22-rdf-syntax-ns#">
   <cc:Work>
    <dc:type rdf:resource="http://purl.org/dc/dcmitype/StillImage"/>
    <dc:date>2026-04-16T08:17:23.187732</dc:date>
    <dc:format>image/svg+xml</dc:format>
    <dc:creator>
     <cc:Agent>
      <dc:title>Matplotlib v3.10.8, https://matplotlib.org/</dc:title>
     </cc:Agent>
    </dc:creator>
   </cc:Work>
  </rdf:RDF>
 </metadata>
 <defs>
  <style type="text/css">*{stroke-linejoin: round; stroke-linecap: butt}</style>
 </defs>
 <g id="figure_1">
  <g id="patch_1">
   <path d="M 0 60 
L 144 60 
L 144 0 
L 0 0 
L 0 60 
z
" style="fill: none; opacity: 0"/>
  </g>
  <g id="axes_1">
   <g id="patch_2">
    <path d="M 5.76 52.8 
L 138.24 52.8 
L 138.24 3.6 
L 5.76 3.6 
L 5.76 52.8 
z
" style="fill: none"/>
   </g>
   <g id="matplotlib.axis_1"/>
   <g id="matplotlib.axis_2"/>
   <g id="line2d_1">
    <path d="M 5.76 42.96 
L 138.24 42.96 
" clip-path="url(#p75f6e020fe)" style="fill: none; stroke: #b2b2b2; stroke-opacity: 0.35; stroke-width: 0.5; stroke-linecap: square"/>
   </g>
   <g id="line2d_2">
    <path d="M 5.76 33.12 
L 138.24 33.12 
" clip-path="url(#p75f6e020fe)" style="fill: none; stroke: #b2b2b2; stroke-opacity: 0.35; stroke-width: 0.5; stroke-linecap: square"/>
   </g>
   <g id="line2d_3">
    <path d="M 5.76 23.28 
L 138.24 23.28 
" clip-path="url(#p75f6e020fe)" style="fill: none; stroke: #b2b2b2; stroke-opacity: 0.35; stroke-width: 0.5; stroke-linecap: square"/>
   </g>
   <g id="line2d_4">
    <path d="M 5.76 13.44 
L 138.24 13.44 
" clip-path="url(#p75f6e020fe)" style="fill: none; stroke: #b2b2b2; stroke-opacity: 0.35; stroke-width: 0.5; stroke-linecap: square"/>
   </g>
   <g id="line2d_5">
    <path d="M 5.76 43.08792 
L 7.237487 42.75828 
L 8.714975 42.90096 
L 10.192462 43.57008 
L 11.66995 44.2392 
L 13.147437 45.23304 
L 14.624924 44.77548 
L 16.102412 44.91816 
L 17.579899 45.04608 
L 19.057386 45.07068 
L 20.534874 46.1334 
L 22.012361 45.4446 
L 23.489849 45.06084 
L 24.967336 45.33144 
L 26.444823 46.30068 
L 27.922311 46.34496 
L 29.399798 47.89476 
L 30.877285 48.26376 
L 32.354773 47.96364 
L 33.602104 48.55896 
L 34.776245 49.06572 
L 36.25298 50.04972 
L 37.72414 49.24776 
L 39.235401 49.32156 
L 40.700695 49.31172 
L 42.186613 49.43964 
L 43.66104 49.59708 
L 45.133209 49.80372 
L 46.610252 49.86768 
L 48.069971 49.479 
L 49.469497 49.24776 
L 51.041756 49.48392 
L 52.333651 49.37568 
L 53.994388 49.479 
L 55.47008 49.7004 
L 56.938931 49.62168 
L 58.40739 49.5282 
L 59.901755 49.49376 
L 61.383689 49.98576 
L 62.736359 49.96608 
L 64.333345 49.7004 
L 65.804249 49.27236 
L 67.278932 49.37076 
L 68.739011 49.68072 
L 70.250067 49.25268 
L 71.7123 49.51344 
L 73.193225 49.4052 
L 74.662436 49.34124 
L 76.143104 49.09032 
L 77.61989 49.24284 
L 79.08604 49.49868 
L 80.577874 49.64628 
L 82.059791 49.58724 
L 83.527787 49.36092 
L 85.004693 49.41996 
L 86.487995 49.45932 
L 87.962627 49.16904 
L 89.438147 49.22808 
L 90.943902 49.27236 
L 92.425562 48.87384 
L 93.877193 48.74592 
L 95.36595 48.70164 
L 96.843848 49.03128 
L 98.306953 49.1592 
L 99.775788 49.08048 
L 101.275369 49.21332 
L 102.756328 49.36584 
L 104.220135 49.11 
L 105.807664 48.90828 
L 107.193082 49.05096 
L 108.672434 49.37076 
L 110.135796 49.64628 
L 111.633411 49.6266 
L 113.115122 49.602 
L 114.58329 49.59708 
L 116.073448 49.59708 
L 117.531475 49.8726 
L 119.010656 49.88244 
L 120.475489 49.80864 
L 121.975224 49.78896 
L 123.456525 49.69056 
L 124.924419 49.83816 
L 126.4043 49.50852 
L 127.87664 49.68564 
L 129.367723 49.6266 
L 130.82262 49.48884 
L 132.326613 49.6512 
L 133.811676 49.69056 
L 135.279758 49.40028 
L 136.756117 49.58724 
L 138.24 49.45932 
" clip-path="url(#p75f6e020fe)" style="fill: none; stroke: #bebebe; stroke-width: 0.6; stroke-linecap: round"/>
   </g>
   <g id="line2d_6">
    <path d="M 5.76 34.84692 
L 7.237487 35.00436 
L 8.714975 34.93056 
L 10.192462 35.088 
L 11.66995 35.78664 
L 13.147437 37.55292 
L 14.624924 37.26756 
L 16.102412 37.46436 
L 17.579899 37.44468 
L 19.057386 37.45944 
L 20.534874 38.41392 
L 22.012361 37.61196 
L 23.489849 36.95268 
L 24.967336 37.05108 
L 26.444823 38.37948 
L 27.922311 39.20604 
L 29.399798 41.03136 
L 30.877285 42.26628 
L 32.354773 41.73492 
L 33.602104 42.23676 
L 34.776245 43.38804 
L 36.25298 44.89356 
L 37.72414 43.6242 
L 39.235401 43.575 
L 40.700695 43.53072 
L 42.186613 43.72752 
L 43.66104 44.0916 
L 45.133209 44.436 
L 46.610252 44.49012 
L 48.069971 43.81608 
L 49.469497 43.7226 
L 51.041756 44.5344 
L 52.333651 44.19 
L 53.994388 44.21952 
L 55.47008 44.3868 
L 56.938931 44.51472 
L 58.40739 44.4606 
L 59.901755 44.3868 
L 61.383689 45.174 
L 62.736359 45.23796 
L 64.333345 44.81484 
L 65.804249 43.821 
L 67.278932 44.01288 
L 68.739011 44.66232 
L 70.250067 43.93908 
L 71.7123 44.39664 
L 73.193225 44.12112 
L 74.662436 44.33268 
L 76.143104 43.3044 
L 77.61989 43.6242 
L 79.08604 44.29824 
L 80.577874 44.53932 
L 82.059791 44.30808 
L 83.527787 43.8702 
L 85.004693 44.00304 
L 86.487995 43.97844 
L 87.962627 43.41756 
L 89.438147 43.48152 
L 90.943902 43.48644 
L 92.425562 42.49752 
L 93.877193 41.73984 
L 95.36595 41.7546 
L 96.843848 42.591 
L 98.306953 43.14204 
L 99.775788 43.083 
L 101.275369 43.35852 
L 102.756328 43.78164 
L 104.220135 43.21584 
L 105.807664 42.9354 
L 107.193082 43.10268 
L 108.672434 43.72752 
L 110.135796 44.25396 
L 111.633411 44.10636 
L 113.115122 43.9194 
L 114.58329 43.74228 
L 116.073448 43.46676 
L 117.531475 43.65372 
L 119.010656 43.79148 
L 120.475489 43.81116 
L 121.975224 43.77672 
L 123.456525 43.2552 
L 124.924419 43.40772 
L 126.4043 42.49752 
L 127.87664 42.90588 
L 129.367723 42.8616 
L 130.82262 42.41388 
L 132.326613 42.63036 
L 133.811676 42.79764 
L 135.279758 41.57256 
L 136.756117 41.86284 
L 138.24 41.63652 
" clip-path="url(#p75f6e020fe)" style="fill: none; stroke: #4a8dff; stroke-width: 0.6; stroke-linecap: round"/>
   </g>
   <g id="line2d_7">
    <path d="M 5.76 38.34012 
L 7.237487 38.37456 
L 8.714975 38.5812 
L 10.192462 39.2454 
L 11.66995 39.8358 
L 13.147437 41.93172 
L 14.624924 41.42004 
L 16.102412 41.37576 
L 17.579899 41.39052 
L 19.057386 41.5086 
L 20.534874 42.80256 
L 22.012361 41.93664 
L 23.489849 41.49384 
L 24.967336 41.51352 
L 26.444823 43.78164 
L 27.922311 43.9932 
L 29.399798 46.66968 
L 30.877285 47.55036 
L 32.354773 46.64508 
L 33.602104 47.89476 
L 34.776245 48.89352 
L 36.25298 49.84308 
L 37.72414 49.00176 
L 39.235401 49.233 
L 40.700695 48.97716 
L 42.186613 49.22316 
L 43.66104 49.36092 
L 45.133209 49.49868 
L 46.610252 49.58724 
L 48.069971 49.28712 
L 49.469497 49.16904 
L 51.041756 49.39044 
L 52.333651 49.29696 
L 53.994388 49.479 
L 55.47008 49.55772 
L 56.938931 49.51344 
L 58.40739 49.44948 
L 59.901755 49.41996 
L 61.383689 49.8234 
L 62.736359 49.86768 
L 64.333345 49.72992 
L 65.804249 49.39536 
L 67.278932 49.52328 
L 68.739011 49.6758 
L 70.250067 49.47408 
L 71.7123 49.60692 
L 73.193225 49.37568 
L 74.662436 49.36584 
L 76.143104 48.6672 
L 77.61989 48.95256 
L 79.08604 49.36092 
L 80.577874 49.54788 
L 82.059791 49.5282 
L 83.527787 49.09032 
L 85.004693 49.16412 
L 86.487995 49.2084 
L 87.962627 48.93288 
L 89.438147 48.95748 
L 90.943902 48.89844 
L 92.425562 48.48024 
L 93.877193 48.1998 
L 95.36595 48.28344 
L 96.843848 48.88368 
L 98.306953 49.04604 
L 99.775788 49.00176 
L 101.275369 49.20348 
L 102.756328 49.38552 
L 104.220135 49.04112 
L 105.807664 48.92796 
L 107.193082 48.987 
L 108.672434 49.29204 
L 110.135796 49.66104 
L 111.633411 49.56756 
L 113.115122 49.53312 
L 114.58329 49.46424 
L 116.073448 49.40028 
L 117.531475 49.56756 
L 119.010656 49.59708 
L 120.475489 49.56264 
L 121.975224 49.53312 
L 123.456525 49.25268 
L 124.924419 49.29696 
L 126.4043 48.89352 
L 127.87664 48.96732 
L 129.367723 48.8148 
L 130.82262 48.5934 
L 132.326613 48.84432 
L 133.811676 48.95748 
L 135.279758 48.30804 
L 136.756117 48.34248 
L 138.24 48.21456 
" clip-path="url(#p75f6e020fe)" style="fill: none; stroke: #f5841e; stroke-width: 0.7; stroke-linecap: round"/>
   </g>
  </g>
 </g>
 <defs>
  <clipPath id="p75f6e020fe">
   <rect x="5.76" y="3.6" width="132.48" height="49.2"/>
  </clipPath>
 </defs>
</svg>
