<?xml version="1.0" encoding="utf-8" standalone="no"?>
<!DOCTYPE svg PUBLIC "-//W3C//DTD SVG 1.1//EN"
  "http://www.w3.org/Graphics/SVG/1.1/DTD/svg11.dtd">
<svg xmlns:xlink="http://www.w3.org/1999/xlink" width="144pt" height="60pt" viewBox="0 0 144 60" xmlns="http://www.w3.org/2000/svg" version="1.1">
  <desc id="nav-meta">{"window":"2w","count":4,"labels":["13 Jan","19 Jan","22 Jan","27 Jan"],"idxs":[0,47,93,140]}</desc>

 <metadata>
  <rdf:RDF xmlns:dc="http://purl.org/dc/elements/1.1/" xmlns:cc="http://creativecommons.org/ns#" xmlns:rdf="http://www.w3.org/1999/02/22-rdf-syntax-ns#">
   <cc:Work>
    <dc:type rdf:resource="http://purl.org/dc/dcmitype/StillImage"/>
    <dc:date>2026-01-27T09:01:23.425856</dc:date>
    <dc:format>image/svg+xml</dc:format>
    <dc:creator>
     <cc:Agent>
      <dc:title>Matplotlib v3.10.8, https://matplotlib.org/</dc:title>
     </cc:Agent>
    </dc:creator>
   </cc:Work>
  </rdf:RDF>
 </metadata>
 <defs>
  <style type="text/css">*{stroke-linejoin: round; stroke-linecap: butt}</style>
 </defs>
 <g id="figure_1">
  <g id="patch_1">
   <path d="M 0 60 
L 144 60 
L 144 0 
L 0 0 
L 0 60 
z
" style="fill: none; opacity: 0"/>
  </g>
  <g id="axes_1">
   <g id="patch_2">
    <path d="M 5.76 52.8 
L 138.24 52.8 
L 138.24 3.6 
L 5.76 3.6 
L 5.76 52.8 
z
" style="fill: none"/>
   </g>
   <g id="matplotlib.axis_1"/>
   <g id="matplotlib.axis_2"/>
   <g id="line2d_1">
    <path d="M 5.76 42.96 
L 138.24 42.96 
" clip-path="url(#p6652f6c6f7)" style="fill: none; stroke: #b2b2b2; stroke-opacity: 0.35; stroke-width: 0.5; stroke-linecap: square"/>
   </g>
   <g id="line2d_2">
    <path d="M 5.76 33.12 
L 138.24 33.12 
" clip-path="url(#p6652f6c6f7)" style="fill: none; stroke: #b2b2b2; stroke-opacity: 0.35; stroke-width: 0.5; stroke-linecap: square"/>
   </g>
   <g id="line2d_3">
    <path d="M 5.76 23.28 
L 138.24 23.28 
" clip-path="url(#p6652f6c6f7)" style="fill: none; stroke: #b2b2b2; stroke-opacity: 0.35; stroke-width: 0.5; stroke-linecap: square"/>
   </g>
   <g id="line2d_4">
    <path d="M 5.76 13.44 
L 138.24 13.44 
" clip-path="url(#p6652f6c6f7)" style="fill: none; stroke: #b2b2b2; stroke-opacity: 0.35; stroke-width: 0.5; stroke-linecap: square"/>
   </g>
   <g id="line2d_5">
    <path d="M 6.229787 38.19744 
L 7.397997 37.83828 
L 8.566207 37.764052 
L 9.734417 37.68576 
L 11.837194 37.60212 
L 13.70633 37.4496 
L 19.313737 37.1298 
L 20.949231 37.4988 
L 21.883799 37.398023 
L 22.818367 37.34628 
L 25.154786 37.418289 
L 26.089354 37.85304 
L 28.192132 37.784815 
L 29.360342 37.671 
L 30.061268 37.592175 
L 30.995835 37.45452 
L 39.406946 37.550132 
L 40.575156 37.68576 
L 47.584415 37.765031 
L 48.518983 38.8272 
L 52.023612 38.745089 
L 52.95818 38.70912 
L 53.659106 38.784624 
L 54.593674 38.86656 
L 55.060958 38.86656 
L 56.229167 39.41268 
L 57.397377 39.489338 
L 58.331945 39.57996 
L 64.87392 39.510556 
L 65.574846 39.3438 
L 66.976698 39.237675 
L 67.911266 39.18144 
L 68.845833 39.263691 
L 69.780401 39.30936 
L 74.219599 39.367194 
L 75.154167 39.52092 
L 104.826696 39.63138 
L 109.265893 39.76692 
L 110.434103 39.659956 
L 113.004165 39.64884 
L 124.686263 39.750176 
L 126.555399 39.848576 
L 127.489966 40.75584 
L 128.424534 40.730148 
L 129.359102 40.27368 
L 132.396448 40.171837 
L 133.564657 40.06212 
L 137.770213 39.96372 
L 137.770213 39.96372 
" clip-path="url(#p6652f6c6f7)" style="fill: none; stroke: #bebebe; stroke-width: 0.6; stroke-linecap: round"/>
   </g>
   <g id="line2d_6">
    <path d="M 6.229787 33.13968 
L 9.033491 33.08556 
L 10.201701 32.64276 
L 10.902627 32.64276 
L 12.070836 31.7178 
L 16.977318 31.638093 
L 17.678243 31.46688 
L 18.612811 31.551612 
L 19.547379 31.9392 
L 20.481947 31.869464 
L 21.416515 31.52592 
L 23.052009 31.632674 
L 24.687502 32.091073 
L 26.089354 32.074644 
L 27.023922 31.923514 
L 28.425774 32.04744 
L 35.201391 31.939069 
L 38.005094 31.8654 
L 42.677934 31.804062 
L 45.481637 31.68336 
L 45.715279 31.705749 
L 46.649847 32.584489 
L 49.219909 32.58594 
L 51.556328 32.56896 
L 52.490896 32.636372 
L 53.425464 32.85432 
L 54.12639 32.85432 
L 55.2946 33.42504 
L 56.229167 33.528666 
L 57.163735 33.9072 
L 58.565587 34.007304 
L 59.500155 34.04988 
L 60.434723 34.145064 
L 61.369291 34.18764 
L 65.574846 34.120394 
L 66.509414 33.84816 
L 68.144908 33.954075 
L 73.518673 34.330626 
L 74.219599 34.45332 
L 101.555708 34.3561 
L 102.95756 34.31064 
L 104.593054 34.55664 
L 110.901387 34.45491 
L 112.303239 34.375631 
L 116.04151 34.33032 
L 122.116201 34.468604 
L 123.985337 34.54167 
L 125.620831 34.63377 
L 126.555399 35.47176 
L 127.489966 35.448113 
L 128.424534 35.06832 
L 129.359102 35.048736 
L 130.527312 34.65996 
L 135.433793 34.583014 
L 136.134719 34.46808 
L 137.536571 34.567887 
L 137.770213 34.60092 
L 137.770213 34.60092 
" clip-path="url(#p6652f6c6f7)" style="fill: none; stroke: #4a8dff; stroke-width: 0.7; stroke-linecap: round"/>
   </g>
   <g id="line2d_7">
    <path d="M 6.229787 37.87764 
L 9.033491 37.80876 
L 9.968059 36.88907 
L 11.36991 36.711565 
L 12.070836 36.53448 
L 14.87454 36.530146 
L 15.809108 36.08184 
L 16.743676 35.984594 
L 17.678243 35.57016 
L 18.612811 35.669897 
L 19.547379 36.12612 
L 20.481947 36.066346 
L 21.416515 35.77188 
L 22.351083 35.827879 
L 24.45386 36.565022 
L 26.556638 36.437408 
L 27.023922 36.398241 
L 28.192132 36.60336 
L 34.967749 36.500215 
L 36.369601 36.467907 
L 43.846143 36.618671 
L 45.481637 36.50004 
L 45.715279 36.527445 
L 46.649847 37.600005 
L 48.518983 37.494361 
L 50.62176 37.526135 
L 52.257254 37.45944 
L 53.425464 37.87764 
L 54.12639 37.87764 
L 55.2946 38.37948 
L 56.229167 38.43235 
L 57.397377 38.62548 
L 58.098303 38.684773 
L 59.032871 38.91576 
L 60.668365 39.026709 
L 63.70571 39.078155 
L 64.640278 38.84196 
L 66.04213 38.760907 
L 67.21034 38.71896 
L 70.247685 38.81736 
L 73.285031 38.916782 
L 73.985957 39.147 
L 81.228858 39.043549 
L 84.032561 38.8518 
L 85.668055 38.968753 
L 86.836265 39.02892 
L 93.611882 39.073244 
L 96.181943 39.054787 
L 97.350153 39.02892 
L 99.686573 39.072553 
L 101.088424 38.993379 
L 102.723918 38.82228 
L 103.191202 38.879511 
L 104.12577 39.11256 
L 106.46219 39.213765 
L 107.630399 39.2454 
L 109.265893 39.030213 
L 110.667745 39.045515 
L 113.705091 38.88132 
L 116.508794 38.978156 
L 118.37793 39.044484 
L 121.882559 39.247095 
L 123.050769 39.51108 
L 124.218979 39.431556 
L 125.153547 39.37332 
L 125.620831 39.440802 
L 126.555399 40.34748 
L 127.489966 40.320949 
L 128.424534 39.89484 
L 129.592744 39.817492 
L 130.527312 39.63408 
L 133.798299 39.72687 
L 134.499225 39.78168 
L 134.966509 39.774051 
L 136.134719 39.30444 
L 137.069287 39.373171 
L 137.770213 39.57504 
L 137.770213 39.57504 
" clip-path="url(#p6652f6c6f7)" style="fill: none; stroke: #f5841e; stroke-width: 0.8; stroke-linecap: round"/>
   </g>
  </g>
 </g>
 <defs>
  <clipPath id="p6652f6c6f7">
   <rect x="5.76" y="3.6" width="132.48" height="49.2"/>
  </clipPath>
 </defs>
</svg>
