<?xml version="1.0" encoding="utf-8" standalone="no"?>
<!DOCTYPE svg PUBLIC "-//W3C//DTD SVG 1.1//EN"
  "http://www.w3.org/Graphics/SVG/1.1/DTD/svg11.dtd">
<svg xmlns:xlink="http://www.w3.org/1999/xlink" width="144pt" height="60pt" viewBox="0 0 144 60" xmlns="http://www.w3.org/2000/svg" version="1.1">
  <desc id="nav-meta">{"window":"3m","count":4,"labels":["24.01","23.02","24.03","23.04"],"tick_utc":["2026-01-24T12:00:00Z","2026-02-23T03:32:23Z","2026-03-24T03:21:58Z","2026-04-23T03:57:29Z"]}</desc>

 <metadata>
  <rdf:RDF xmlns:dc="http://purl.org/dc/elements/1.1/" xmlns:cc="http://creativecommons.org/ns#" xmlns:rdf="http://www.w3.org/1999/02/22-rdf-syntax-ns#">
   <cc:Work>
    <dc:type rdf:resource="http://purl.org/dc/dcmitype/StillImage"/>
    <dc:date>2026-04-23T14:22:20.734126</dc:date>
    <dc:format>image/svg+xml</dc:format>
    <dc:creator>
     <cc:Agent>
      <dc:title>Matplotlib v3.10.8, https://matplotlib.org/</dc:title>
     </cc:Agent>
    </dc:creator>
   </cc:Work>
  </rdf:RDF>
 </metadata>
 <defs>
  <style type="text/css">*{stroke-linejoin: round; stroke-linecap: butt}</style>
 </defs>
 <g id="figure_1">
  <g id="patch_1">
   <path d="M 0 60 
L 144 60 
L 144 0 
L 0 0 
L 0 60 
z
" style="fill: none; opacity: 0"/>
  </g>
  <g id="axes_1">
   <g id="patch_2">
    <path d="M 5.76 52.8 
L 138.24 52.8 
L 138.24 3.6 
L 5.76 3.6 
L 5.76 52.8 
z
" style="fill: none"/>
   </g>
   <g id="matplotlib.axis_1"/>
   <g id="matplotlib.axis_2"/>
   <g id="line2d_1">
    <path d="M 5.76 42.96 
L 138.24 42.96 
" clip-path="url(#p95d90e2c40)" style="fill: none; stroke: #b2b2b2; stroke-opacity: 0.35; stroke-width: 0.5; stroke-linecap: square"/>
   </g>
   <g id="line2d_2">
    <path d="M 5.76 33.12 
L 138.24 33.12 
" clip-path="url(#p95d90e2c40)" style="fill: none; stroke: #b2b2b2; stroke-opacity: 0.35; stroke-width: 0.5; stroke-linecap: square"/>
   </g>
   <g id="line2d_3">
    <path d="M 5.76 23.28 
L 138.24 23.28 
" clip-path="url(#p95d90e2c40)" style="fill: none; stroke: #b2b2b2; stroke-opacity: 0.35; stroke-width: 0.5; stroke-linecap: square"/>
   </g>
   <g id="line2d_4">
    <path d="M 5.76 13.44 
L 138.24 13.44 
" clip-path="url(#p95d90e2c40)" style="fill: none; stroke: #b2b2b2; stroke-opacity: 0.35; stroke-width: 0.5; stroke-linecap: square"/>
   </g>
   <g id="line2d_5">
    <path d="M 5.76 45.04608 
L 7.254165 45.07068 
L 8.74833 46.1334 
L 10.242494 45.4446 
L 11.736659 45.06084 
L 13.230824 45.33144 
L 14.724989 46.30068 
L 16.219154 46.34496 
L 17.713318 47.89476 
L 19.207483 48.26376 
L 20.701648 47.96364 
L 21.963058 48.55896 
L 23.150453 49.06572 
L 24.643856 50.04972 
L 26.131623 49.24776 
L 27.659942 49.32156 
L 29.141777 49.31172 
L 30.644467 49.43964 
L 32.135536 49.59708 
L 33.624323 49.80372 
L 35.118038 49.86768 
L 36.594235 49.479 
L 38.009558 49.24776 
L 39.599564 49.48392 
L 40.906042 49.37568 
L 42.585524 49.479 
L 44.077873 49.7004 
L 45.563305 49.62168 
L 47.048339 49.5282 
L 48.559572 49.49376 
L 50.058233 49.98576 
L 51.426172 49.96608 
L 53.041185 49.7004 
L 54.528691 49.27236 
L 56.02002 49.37076 
L 57.49658 49.68072 
L 59.024692 49.25268 
L 60.503431 49.51344 
L 62.001072 49.4052 
L 63.486866 49.34124 
L 64.984248 49.09032 
L 66.477704 49.24284 
L 67.960403 49.49868 
L 69.469077 49.64628 
L 70.967721 49.58724 
L 72.452287 49.36092 
L 73.945864 49.41996 
L 75.445909 49.45932 
L 76.937186 49.16904 
L 78.429362 49.22808 
L 79.952113 49.27236 
L 81.450497 48.87384 
L 82.918514 48.74592 
L 84.424075 48.70164 
L 85.918655 49.03128 
L 87.398276 49.1592 
L 88.88369 49.08048 
L 90.400198 49.21332 
L 91.897874 49.36584 
L 93.378204 49.11 
L 94.983653 48.90828 
L 96.384709 49.05096 
L 97.880759 49.37076 
L 99.360639 49.64628 
L 100.875158 49.6266 
L 102.373595 49.602 
L 103.858334 49.59708 
L 105.365314 49.59708 
L 106.839798 49.8726 
L 108.335675 49.88244 
L 109.817043 49.80864 
L 111.333706 49.78896 
L 112.831728 49.69056 
L 114.316191 49.83816 
L 115.812777 49.50852 
L 117.301736 49.68564 
L 118.809649 49.6266 
L 120.280969 49.48884 
L 121.801939 49.6512 
L 123.303765 49.69056 
L 124.788418 49.40028 
L 126.281442 49.58724 
L 127.782074 49.45932 
L 129.273195 49.27728 
L 130.750879 49.19856 
L 132.264776 49.43472 
L 133.762642 49.50852 
L 135.250252 49.46424 
L 136.739782 49.31664 
L 138.24 49.4298 
" clip-path="url(#p95d90e2c40)" style="fill: none; stroke: #bebebe; stroke-width: 0.6; stroke-linecap: round"/>
   </g>
   <g id="line2d_6">
    <path d="M 5.76 37.44468 
L 7.254165 37.45944 
L 8.74833 38.41392 
L 10.242494 37.61196 
L 11.736659 36.95268 
L 13.230824 37.05108 
L 14.724989 38.37948 
L 16.219154 39.20604 
L 17.713318 41.03136 
L 19.207483 42.26628 
L 20.701648 41.73492 
L 21.963058 42.23676 
L 23.150453 43.38804 
L 24.643856 44.89356 
L 26.131623 43.6242 
L 27.659942 43.575 
L 29.141777 43.53072 
L 30.644467 43.72752 
L 32.135536 44.0916 
L 33.624323 44.436 
L 35.118038 44.49012 
L 36.594235 43.81608 
L 38.009558 43.7226 
L 39.599564 44.5344 
L 40.906042 44.19 
L 42.585524 44.21952 
L 44.077873 44.3868 
L 45.563305 44.51472 
L 47.048339 44.4606 
L 48.559572 44.3868 
L 50.058233 45.174 
L 51.426172 45.23796 
L 53.041185 44.81484 
L 54.528691 43.821 
L 56.02002 44.01288 
L 57.49658 44.66232 
L 59.024692 43.93908 
L 60.503431 44.39664 
L 62.001072 44.12112 
L 63.486866 44.33268 
L 64.984248 43.3044 
L 66.477704 43.6242 
L 67.960403 44.29824 
L 69.469077 44.53932 
L 70.967721 44.30808 
L 72.452287 43.8702 
L 73.945864 44.00304 
L 75.445909 43.97844 
L 76.937186 43.41756 
L 78.429362 43.48152 
L 79.952113 43.48644 
L 81.450497 42.49752 
L 82.918514 41.73984 
L 84.424075 41.7546 
L 85.918655 42.591 
L 87.398276 43.14204 
L 88.88369 43.083 
L 90.400198 43.35852 
L 91.897874 43.78164 
L 93.378204 43.21584 
L 94.983653 42.9354 
L 96.384709 43.10268 
L 97.880759 43.72752 
L 99.360639 44.25396 
L 100.875158 44.10636 
L 102.373595 43.9194 
L 103.858334 43.74228 
L 105.365314 43.46676 
L 106.839798 43.65372 
L 108.335675 43.79148 
L 109.817043 43.81116 
L 111.333706 43.77672 
L 112.831728 43.2552 
L 114.316191 43.40772 
L 115.812777 42.49752 
L 117.301736 42.90588 
L 118.809649 42.8616 
L 120.280969 42.41388 
L 121.801939 42.63036 
L 123.303765 42.79764 
L 124.788418 41.57256 
L 126.281442 41.86284 
L 127.782074 41.63652 
L 129.273195 41.85792 
L 130.750879 41.22324 
L 132.264776 41.76936 
L 133.762642 42.1482 
L 135.250252 41.96616 
L 136.739782 41.59224 
L 138.24 41.76936 
" clip-path="url(#p95d90e2c40)" style="fill: none; stroke: #4a8dff; stroke-width: 0.6; stroke-linecap: round"/>
   </g>
   <g id="line2d_7">
    <path d="M 5.76 41.39052 
L 7.254165 41.5086 
L 8.74833 42.80256 
L 10.242494 41.93664 
L 11.736659 41.49384 
L 13.230824 41.51352 
L 14.724989 43.78164 
L 16.219154 43.9932 
L 17.713318 46.66968 
L 19.207483 47.55036 
L 20.701648 46.64508 
L 21.963058 47.89476 
L 23.150453 48.89352 
L 24.643856 49.84308 
L 26.131623 49.00176 
L 27.659942 49.233 
L 29.141777 48.97716 
L 30.644467 49.22316 
L 32.135536 49.36092 
L 33.624323 49.49868 
L 35.118038 49.58724 
L 36.594235 49.28712 
L 38.009558 49.16904 
L 39.599564 49.39044 
L 40.906042 49.29696 
L 42.585524 49.479 
L 44.077873 49.55772 
L 45.563305 49.51344 
L 47.048339 49.44948 
L 48.559572 49.41996 
L 50.058233 49.8234 
L 51.426172 49.86768 
L 53.041185 49.72992 
L 54.528691 49.39536 
L 56.02002 49.52328 
L 57.49658 49.6758 
L 59.024692 49.47408 
L 60.503431 49.60692 
L 62.001072 49.37568 
L 63.486866 49.36584 
L 64.984248 48.6672 
L 66.477704 48.95256 
L 67.960403 49.36092 
L 69.469077 49.54788 
L 70.967721 49.5282 
L 72.452287 49.09032 
L 73.945864 49.16412 
L 75.445909 49.2084 
L 76.937186 48.93288 
L 78.429362 48.95748 
L 79.952113 48.89844 
L 81.450497 48.48024 
L 82.918514 48.1998 
L 84.424075 48.28344 
L 85.918655 48.88368 
L 87.398276 49.04604 
L 88.88369 49.00176 
L 90.400198 49.20348 
L 91.897874 49.38552 
L 93.378204 49.04112 
L 94.983653 48.92796 
L 96.384709 48.987 
L 97.880759 49.29204 
L 99.360639 49.66104 
L 100.875158 49.56756 
L 102.373595 49.53312 
L 103.858334 49.46424 
L 105.365314 49.40028 
L 106.839798 49.56756 
L 108.335675 49.59708 
L 109.817043 49.56264 
L 111.333706 49.53312 
L 112.831728 49.25268 
L 114.316191 49.29696 
L 115.812777 48.89352 
L 117.301736 48.96732 
L 118.809649 48.8148 
L 120.280969 48.5934 
L 121.801939 48.84432 
L 123.303765 48.95748 
L 124.788418 48.30804 
L 126.281442 48.34248 
L 127.782074 48.21456 
L 129.273195 48.26376 
L 130.750879 47.41752 
L 132.264776 48.05712 
L 133.762642 48.26376 
L 135.250252 48.01776 
L 136.739782 47.23548 
L 138.24 47.17644 
" clip-path="url(#p95d90e2c40)" style="fill: none; stroke: #f5841e; stroke-width: 0.7; stroke-linecap: round"/>
   </g>
  </g>
 </g>
 <defs>
  <clipPath id="p95d90e2c40">
   <rect x="5.76" y="3.6" width="132.48" height="49.2"/>
  </clipPath>
 </defs>
</svg>
