<?xml version="1.0" encoding="utf-8" standalone="no"?>
<!DOCTYPE svg PUBLIC "-//W3C//DTD SVG 1.1//EN"
  "http://www.w3.org/Graphics/SVG/1.1/DTD/svg11.dtd">
<svg xmlns:xlink="http://www.w3.org/1999/xlink" width="144pt" height="60pt" viewBox="0 0 144 60" xmlns="http://www.w3.org/2000/svg" version="1.1">
  <desc id="nav-meta">{"window":"2w","count":4,"labels":["9 Jan","15 Jan","21 Jan","23 Jan"],"idxs":[0,45,89,134]}</desc>

 <metadata>
  <rdf:RDF xmlns:dc="http://purl.org/dc/elements/1.1/" xmlns:cc="http://creativecommons.org/ns#" xmlns:rdf="http://www.w3.org/1999/02/22-rdf-syntax-ns#">
   <cc:Work>
    <dc:type rdf:resource="http://purl.org/dc/dcmitype/StillImage"/>
    <dc:date>2026-01-23T03:57:17.869907</dc:date>
    <dc:format>image/svg+xml</dc:format>
    <dc:creator>
     <cc:Agent>
      <dc:title>Matplotlib v3.10.8, https://matplotlib.org/</dc:title>
     </cc:Agent>
    </dc:creator>
   </cc:Work>
  </rdf:RDF>
 </metadata>
 <defs>
  <style type="text/css">*{stroke-linejoin: round; stroke-linecap: butt}</style>
 </defs>
 <g id="figure_1">
  <g id="patch_1">
   <path d="M 0 60 
L 144 60 
L 144 0 
L 0 0 
L 0 60 
z
" style="fill: none; opacity: 0"/>
  </g>
  <g id="axes_1">
   <g id="patch_2">
    <path d="M 4.32 52.8 
L 139.68 52.8 
L 139.68 3.6 
L 4.32 3.6 
L 4.32 52.8 
z
" style="fill: none"/>
   </g>
   <g id="matplotlib.axis_1"/>
   <g id="matplotlib.axis_2"/>
   <g id="line2d_1">
    <path d="M 4.32 42.96 
L 139.68 42.96 
" clip-path="url(#p0121e81719)" style="fill: none; stroke: #b2b2b2; stroke-opacity: 0.35; stroke-width: 0.5; stroke-linecap: square"/>
   </g>
   <g id="line2d_2">
    <path d="M 4.32 33.12 
L 139.68 33.12 
" clip-path="url(#p0121e81719)" style="fill: none; stroke: #b2b2b2; stroke-opacity: 0.35; stroke-width: 0.5; stroke-linecap: square"/>
   </g>
   <g id="line2d_3">
    <path d="M 4.32 23.28 
L 139.68 23.28 
" clip-path="url(#p0121e81719)" style="fill: none; stroke: #b2b2b2; stroke-opacity: 0.35; stroke-width: 0.5; stroke-linecap: square"/>
   </g>
   <g id="line2d_4">
    <path d="M 4.32 13.44 
L 139.68 13.44 
" clip-path="url(#p0121e81719)" style="fill: none; stroke: #b2b2b2; stroke-opacity: 0.35; stroke-width: 0.5; stroke-linecap: square"/>
   </g>
   <g id="line2d_5">
    <path d="M 4.821333 38.34996 
L 6.067691 38.06952 
L 7.314048 38.146049 
L 8.311134 38.22696 
L 9.30822 38.329778 
L 10.305306 38.44344 
L 11.551664 38.541584 
L 12.54875 38.5812 
L 23.018152 38.489838 
L 24.26451 38.27616 
L 28.502125 38.172092 
L 29.499211 38.1138 
L 29.997754 38.074486 
L 30.99484 37.75464 
L 32.241197 37.857056 
L 33.238283 38.04984 
L 34.484641 38.1361 
L 35.481727 38.19744 
L 35.98027 38.17012 
L 37.226627 37.83828 
L 38.472985 37.752541 
L 39.470071 37.68576 
L 41.962785 37.595612 
L 43.458414 37.4496 
L 46.200401 37.346682 
L 49.191659 37.1298 
L 50.188745 37.220852 
L 51.185831 37.4988 
L 52.432188 37.424945 
L 53.678545 37.34628 
L 56.17126 37.454401 
L 57.168346 37.85304 
L 59.41179 37.771983 
L 60.408876 37.671 
L 61.405962 37.577018 
L 62.403048 37.45452 
L 71.376821 37.563445 
L 72.373907 37.68576 
L 79.852052 37.74972 
L 80.101323 37.835679 
L 81.098409 38.8272 
L 84.837482 38.736212 
L 85.834568 38.70912 
L 86.831654 38.833845 
L 88.576554 39.157351 
L 89.075097 39.41268 
L 90.570726 39.499889 
L 91.567812 39.57996 
L 98.547414 39.493098 
L 99.295228 39.3438 
L 100.541586 39.268193 
L 101.538672 39.18144 
L 102.785029 39.271387 
L 103.782115 39.30936 
L 108.518273 39.381371 
L 109.515359 39.52092 
L 139.178667 39.4422 
L 139.178667 39.4422 
" clip-path="url(#p0121e81719)" style="fill: none; stroke: #bebebe; stroke-width: 0.6; stroke-linecap: round"/>
   </g>
   <g id="line2d_6">
    <path d="M 4.821333 33.26268 
L 6.316962 33.342504 
L 7.314048 33.42504 
L 8.560406 33.51831 
L 9.557492 33.55296 
L 15.290736 33.443123 
L 26.258682 33.179232 
L 27.006496 33.021299 
L 28.252853 33.25776 
L 35.730998 33.158356 
L 37.974442 33.08556 
L 38.971528 33.059271 
L 39.968613 32.64276 
L 40.965699 32.598142 
L 41.962785 31.7178 
L 47.446758 31.615721 
L 48.194573 31.46688 
L 48.942387 31.468633 
L 50.188745 31.9392 
L 51.185831 31.839522 
L 52.182917 31.52592 
L 53.678545 31.611796 
L 54.177088 31.740091 
L 55.174174 32.078503 
L 57.168346 32.060666 
L 58.165432 31.933614 
L 59.661061 32.04744 
L 66.640663 31.955001 
L 68.634835 31.886431 
L 70.379735 31.874847 
L 74.118808 31.860854 
L 77.359337 31.68336 
L 78.107152 31.765211 
L 79.104237 32.587079 
L 81.596952 32.594966 
L 84.338939 32.56896 
L 85.336025 32.654727 
L 86.333111 32.85432 
L 87.080925 32.877615 
L 88.078011 33.42504 
L 89.075097 33.439353 
L 90.072183 33.9072 
L 91.817083 34.016262 
L 92.814169 34.04988 
L 93.811255 34.153647 
L 94.808341 34.18764 
L 99.295228 34.100586 
L 100.292314 33.84816 
L 101.787943 33.931846 
L 102.785029 33.96624 
L 105.527015 34.067141 
L 109.515359 34.439007 
L 112.008074 34.463242 
L 115.996418 34.438387 
L 120.483305 34.447898 
L 122.726748 34.471193 
L 130.204893 34.43364 
L 137.932309 34.330968 
L 139.178667 34.31064 
L 139.178667 34.31064 
" clip-path="url(#p0121e81719)" style="fill: none; stroke: #4a8dff; stroke-width: 0.7; stroke-linecap: round"/>
   </g>
   <g id="line2d_7">
    <path d="M 4.821333 38.35488 
L 6.067691 38.427822 
L 7.064777 38.655 
L 13.296564 38.554008 
L 15.540007 38.547454 
L 19.029808 38.541484 
L 21.02398 38.46647 
L 26.00941 38.441797 
L 26.757224 37.986784 
L 27.006496 37.983461 
L 28.003582 38.47788 
L 30.99484 38.405486 
L 32.241197 38.163 
L 35.232455 38.108305 
L 36.229541 37.87764 
L 38.722256 37.80876 
L 38.971528 37.75297 
L 39.968613 36.86904 
L 41.214971 36.769727 
L 42.212057 36.53448 
L 45.203315 36.488712 
L 45.951129 36.08184 
L 46.948215 36.074245 
L 47.945301 35.57016 
L 48.942387 35.572223 
L 49.939473 36.125089 
L 51.185831 36.040682 
L 52.182917 35.77188 
L 53.180002 35.853375 
L 55.423446 36.564319 
L 57.417618 36.471506 
L 58.165432 36.414958 
L 59.41179 36.60336 
L 66.640663 36.494463 
L 68.136292 36.469927 
L 76.11298 36.610489 
L 77.85788 36.50004 
L 78.107152 36.600229 
L 79.104237 37.592882 
L 80.849138 37.49388 
L 85.336025 37.585133 
L 86.083839 37.87764 
L 87.080925 37.898123 
L 88.078011 38.37948 
L 89.324369 38.44794 
L 90.321455 38.62548 
L 91.318541 38.703032 
L 92.315626 38.91576 
L 93.811255 39.004703 
L 94.808341 39.03384 
L 97.550328 38.98967 
L 98.298142 38.84196 
L 99.793771 38.753418 
L 100.790857 38.71896 
L 107.022644 38.78292 
L 108.767545 39.147 
L 115.747147 39.069941 
L 116.744233 39.01908 
L 117.741318 38.915422 
L 118.738404 38.8518 
L 120.483305 38.943153 
L 121.729662 39.02892 
L 137.433766 38.946111 
L 138.680124 38.82228 
L 139.178667 38.82228 
L 139.178667 38.82228 
" clip-path="url(#p0121e81719)" style="fill: none; stroke: #f5841e; stroke-width: 0.8; stroke-linecap: round"/>
   </g>
   <g id="text_1">
    <!-- 9 Jan -->
    <g style="fill: #8c8c8c; opacity: 0.65" transform="translate(5.072 56.219297) scale(0.045 -0.045)">
     <defs>
      <path id="DejaVuSans-39" d="M 703 97 
L 703 672 
Q 941 559 1184 500 
Q 1428 441 1663 441 
Q 2288 441 2617 861 
Q 2947 1281 2994 2138 
Q 2813 1869 2534 1725 
Q 2256 1581 1919 1581 
Q 1219 1581 811 2004 
Q 403 2428 403 3163 
Q 403 3881 828 4315 
Q 1253 4750 1959 4750 
Q 2769 4750 3195 4129 
Q 3622 3509 3622 2328 
Q 3622 1225 3098 567 
Q 2575 -91 1691 -91 
Q 1453 -91 1209 -44 
Q 966 3 703 97 
z
M 1959 2075 
Q 2384 2075 2632 2365 
Q 2881 2656 2881 3163 
Q 2881 3666 2632 3958 
Q 2384 4250 1959 4250 
Q 1534 4250 1286 3958 
Q 1038 3666 1038 3163 
Q 1038 2656 1286 2365 
Q 1534 2075 1959 2075 
z
" transform="scale(0.015625)"/>
      <path id="DejaVuSans-20" transform="scale(0.015625)"/>
      <path id="DejaVuSans-4a" d="M 628 4666 
L 1259 4666 
L 1259 325 
Q 1259 -519 939 -900 
Q 619 -1281 -91 -1281 
L -331 -1281 
L -331 -750 
L -134 -750 
Q 284 -750 456 -515 
Q 628 -281 628 325 
L 628 4666 
z
" transform="scale(0.015625)"/>
      <path id="DejaVuSans-61" d="M 2194 1759 
Q 1497 1759 1228 1600 
Q 959 1441 959 1056 
Q 959 750 1161 570 
Q 1363 391 1709 391 
Q 2188 391 2477 730 
Q 2766 1069 2766 1631 
L 2766 1759 
L 2194 1759 
z
M 3341 1997 
L 3341 0 
L 2766 0 
L 2766 531 
Q 2569 213 2275 61 
Q 1981 -91 1556 -91 
Q 1019 -91 701 211 
Q 384 513 384 1019 
Q 384 1609 779 1909 
Q 1175 2209 1959 2209 
L 2766 2209 
L 2766 2266 
Q 2766 2663 2505 2880 
Q 2244 3097 1772 3097 
Q 1472 3097 1187 3025 
Q 903 2953 641 2809 
L 641 3341 
Q 956 3463 1253 3523 
Q 1550 3584 1831 3584 
Q 2591 3584 2966 3190 
Q 3341 2797 3341 1997 
z
" transform="scale(0.015625)"/>
      <path id="DejaVuSans-6e" d="M 3513 2113 
L 3513 0 
L 2938 0 
L 2938 2094 
Q 2938 2591 2744 2837 
Q 2550 3084 2163 3084 
Q 1697 3084 1428 2787 
Q 1159 2491 1159 1978 
L 1159 0 
L 581 0 
L 581 3500 
L 1159 3500 
L 1159 2956 
Q 1366 3272 1645 3428 
Q 1925 3584 2291 3584 
Q 2894 3584 3203 3211 
Q 3513 2838 3513 2113 
z
" transform="scale(0.015625)"/>
     </defs>
     <use xlink:href="#DejaVuSans-39"/>
     <use xlink:href="#DejaVuSans-20" transform="translate(63.623047 0)"/>
     <use xlink:href="#DejaVuSans-4a" transform="translate(95.410156 0)"/>
     <use xlink:href="#DejaVuSans-61" transform="translate(124.902344 0)"/>
     <use xlink:href="#DejaVuSans-6e" transform="translate(186.181641 0)"/>
    </g>
   </g>
   <g id="text_2">
    <!-- 15 Jan -->
    <g style="fill: #8c8c8c; opacity: 0.65" transform="translate(42.894615 56.219297) scale(0.045 -0.045)">
     <defs>
      <path id="DejaVuSans-31" d="M 794 531 
L 1825 531 
L 1825 4091 
L 703 3866 
L 703 4441 
L 1819 4666 
L 2450 4666 
L 2450 531 
L 3481 531 
L 3481 0 
L 794 0 
L 794 531 
z
" transform="scale(0.015625)"/>
      <path id="DejaVuSans-35" d="M 691 4666 
L 3169 4666 
L 3169 4134 
L 1269 4134 
L 1269 2991 
Q 1406 3038 1543 3061 
Q 1681 3084 1819 3084 
Q 2600 3084 3056 2656 
Q 3513 2228 3513 1497 
Q 3513 744 3044 326 
Q 2575 -91 1722 -91 
Q 1428 -91 1123 -41 
Q 819 9 494 109 
L 494 744 
Q 775 591 1075 516 
Q 1375 441 1709 441 
Q 2250 441 2565 725 
Q 2881 1009 2881 1497 
Q 2881 1984 2565 2268 
Q 2250 2553 1709 2553 
Q 1456 2553 1204 2497 
Q 953 2441 691 2322 
L 691 4666 
z
" transform="scale(0.015625)"/>
     </defs>
     <use xlink:href="#DejaVuSans-31"/>
     <use xlink:href="#DejaVuSans-35" transform="translate(63.623047 0)"/>
     <use xlink:href="#DejaVuSans-20" transform="translate(127.246094 0)"/>
     <use xlink:href="#DejaVuSans-4a" transform="translate(159.033203 0)"/>
     <use xlink:href="#DejaVuSans-61" transform="translate(188.525391 0)"/>
     <use xlink:href="#DejaVuSans-6e" transform="translate(249.804688 0)"/>
    </g>
   </g>
   <g id="text_3">
    <!-- 21 Jan -->
    <g style="fill: #8c8c8c; opacity: 0.65" transform="translate(88.014615 56.219297) scale(0.045 -0.045)">
     <defs>
      <path id="DejaVuSans-32" d="M 1228 531 
L 3431 531 
L 3431 0 
L 469 0 
L 469 531 
Q 828 903 1448 1529 
Q 2069 2156 2228 2338 
Q 2531 2678 2651 2914 
Q 2772 3150 2772 3378 
Q 2772 3750 2511 3984 
Q 2250 4219 1831 4219 
Q 1534 4219 1204 4116 
Q 875 4013 500 3803 
L 500 4441 
Q 881 4594 1212 4672 
Q 1544 4750 1819 4750 
Q 2544 4750 2975 4387 
Q 3406 4025 3406 3419 
Q 3406 3131 3298 2873 
Q 3191 2616 2906 2266 
Q 2828 2175 2409 1742 
Q 1991 1309 1228 531 
z
" transform="scale(0.015625)"/>
     </defs>
     <use xlink:href="#DejaVuSans-32"/>
     <use xlink:href="#DejaVuSans-31" transform="translate(63.623047 0)"/>
     <use xlink:href="#DejaVuSans-20" transform="translate(127.246094 0)"/>
     <use xlink:href="#DejaVuSans-4a" transform="translate(159.033203 0)"/>
     <use xlink:href="#DejaVuSans-61" transform="translate(188.525391 0)"/>
     <use xlink:href="#DejaVuSans-6e" transform="translate(249.804688 0)"/>
    </g>
   </g>
   <g id="text_4">
    <!-- 23 Jan -->
    <g style="fill: #8c8c8c; opacity: 0.65" transform="translate(124.834563 56.219297) scale(0.045 -0.045)">
     <defs>
      <path id="DejaVuSans-33" d="M 2597 2516 
Q 3050 2419 3304 2112 
Q 3559 1806 3559 1356 
Q 3559 666 3084 287 
Q 2609 -91 1734 -91 
Q 1441 -91 1130 -33 
Q 819 25 488 141 
L 488 750 
Q 750 597 1062 519 
Q 1375 441 1716 441 
Q 2309 441 2620 675 
Q 2931 909 2931 1356 
Q 2931 1769 2642 2001 
Q 2353 2234 1838 2234 
L 1294 2234 
L 1294 2753 
L 1863 2753 
Q 2328 2753 2575 2939 
Q 2822 3125 2822 3475 
Q 2822 3834 2567 4026 
Q 2313 4219 1838 4219 
Q 1578 4219 1281 4162 
Q 984 4106 628 3988 
L 628 4550 
Q 988 4650 1302 4700 
Q 1616 4750 1894 4750 
Q 2613 4750 3031 4423 
Q 3450 4097 3450 3541 
Q 3450 3153 3228 2886 
Q 3006 2619 2597 2516 
z
" transform="scale(0.015625)"/>
     </defs>
     <use xlink:href="#DejaVuSans-32"/>
     <use xlink:href="#DejaVuSans-33" transform="translate(63.623047 0)"/>
     <use xlink:href="#DejaVuSans-20" transform="translate(127.246094 0)"/>
     <use xlink:href="#DejaVuSans-4a" transform="translate(159.033203 0)"/>
     <use xlink:href="#DejaVuSans-61" transform="translate(188.525391 0)"/>
     <use xlink:href="#DejaVuSans-6e" transform="translate(249.804688 0)"/>
    </g>
   </g>
  </g>
 </g>
 <defs>
  <clipPath id="p0121e81719">
   <rect x="4.32" y="3.6" width="135.36" height="49.2"/>
  </clipPath>
 </defs>
</svg>
