<?xml version="1.0" encoding="utf-8" standalone="no"?>
<!DOCTYPE svg PUBLIC "-//W3C//DTD SVG 1.1//EN"
  "http://www.w3.org/Graphics/SVG/1.1/DTD/svg11.dtd">
<svg xmlns:xlink="http://www.w3.org/1999/xlink" width="144pt" height="60pt" viewBox="0 0 144 60" xmlns="http://www.w3.org/2000/svg" version="1.1">
  <desc id="nav-meta">{"window":"2w","count":4,"labels":["12.03","16.03","21.03","25.03"],"tick_utc":["2026-03-12T03:19:44Z","2026-03-16T03:46:39Z","2026-03-21T03:10:23Z","2026-03-25T05:09:13Z"]}</desc>

 <metadata>
  <rdf:RDF xmlns:dc="http://purl.org/dc/elements/1.1/" xmlns:cc="http://creativecommons.org/ns#" xmlns:rdf="http://www.w3.org/1999/02/22-rdf-syntax-ns#">
   <cc:Work>
    <dc:type rdf:resource="http://purl.org/dc/dcmitype/StillImage"/>
    <dc:date>2026-03-25T05:14:25.625744</dc:date>
    <dc:format>image/svg+xml</dc:format>
    <dc:creator>
     <cc:Agent>
      <dc:title>Matplotlib v3.10.8, https://matplotlib.org/</dc:title>
     </cc:Agent>
    </dc:creator>
   </cc:Work>
  </rdf:RDF>
 </metadata>
 <defs>
  <style type="text/css">*{stroke-linejoin: round; stroke-linecap: butt}</style>
 </defs>
 <g id="figure_1">
  <g id="patch_1">
   <path d="M 0 60 
L 144 60 
L 144 0 
L 0 0 
L 0 60 
z
" style="fill: none; opacity: 0"/>
  </g>
  <g id="axes_1">
   <g id="patch_2">
    <path d="M 5.76 52.8 
L 138.24 52.8 
L 138.24 3.6 
L 5.76 3.6 
L 5.76 52.8 
z
" style="fill: none"/>
   </g>
   <g id="matplotlib.axis_1"/>
   <g id="matplotlib.axis_2"/>
   <g id="line2d_1">
    <path d="M 5.76 42.96 
L 138.24 42.96 
" clip-path="url(#pf27a707e9d)" style="fill: none; stroke: #b2b2b2; stroke-opacity: 0.35; stroke-width: 0.5; stroke-linecap: square"/>
   </g>
   <g id="line2d_2">
    <path d="M 5.76 33.12 
L 138.24 33.12 
" clip-path="url(#pf27a707e9d)" style="fill: none; stroke: #b2b2b2; stroke-opacity: 0.35; stroke-width: 0.5; stroke-linecap: square"/>
   </g>
   <g id="line2d_3">
    <path d="M 5.76 23.28 
L 138.24 23.28 
" clip-path="url(#pf27a707e9d)" style="fill: none; stroke: #b2b2b2; stroke-opacity: 0.35; stroke-width: 0.5; stroke-linecap: square"/>
   </g>
   <g id="line2d_4">
    <path d="M 5.76 13.44 
L 138.24 13.44 
" clip-path="url(#pf27a707e9d)" style="fill: none; stroke: #b2b2b2; stroke-opacity: 0.35; stroke-width: 0.5; stroke-linecap: square"/>
   </g>
   <g id="line2d_5">
    <path d="M 5.76 49.45932 
L 15.871932 49.16904 
L 25.989963 49.22808 
L 36.315314 49.27236 
L 46.475441 48.87384 
L 56.429655 48.74592 
L 66.638447 48.70164 
L 76.772776 49.03128 
L 86.805674 49.1592 
L 96.877854 49.08048 
L 107.160873 49.21332 
L 117.316193 49.36584 
L 127.353898 49.11 
L 138.24 48.90828 
" clip-path="url(#pf27a707e9d)" style="fill: none; stroke: #bebebe; stroke-width: 0.6; stroke-linecap: round"/>
   </g>
   <g id="line2d_6">
    <path d="M 5.76 43.97844 
L 15.871932 43.41756 
L 25.989963 43.48152 
L 36.315314 43.48644 
L 46.475441 42.49752 
L 56.429655 41.73984 
L 66.638447 41.7546 
L 76.772776 42.591 
L 86.805674 43.14204 
L 96.877854 43.083 
L 107.160873 43.35852 
L 117.316193 43.78164 
L 127.353898 43.21584 
L 138.24 42.9354 
" clip-path="url(#pf27a707e9d)" style="fill: none; stroke: #4a8dff; stroke-width: 0.6; stroke-linecap: round"/>
   </g>
   <g id="line2d_7">
    <path d="M 5.76 49.2084 
L 15.871932 48.93288 
L 25.989963 48.95748 
L 36.315314 48.89844 
L 46.475441 48.48024 
L 56.429655 48.1998 
L 66.638447 48.28344 
L 76.772776 48.88368 
L 86.805674 49.04604 
L 96.877854 49.00176 
L 107.160873 49.20348 
L 117.316193 49.38552 
L 127.353898 49.04112 
L 138.24 48.92796 
" clip-path="url(#pf27a707e9d)" style="fill: none; stroke: #f5841e; stroke-width: 0.7; stroke-linecap: round"/>
   </g>
  </g>
 </g>
 <defs>
  <clipPath id="pf27a707e9d">
   <rect x="5.76" y="3.6" width="132.48" height="49.2"/>
  </clipPath>
 </defs>
</svg>
