<?xml version="1.0" encoding="utf-8" standalone="no"?>
<!DOCTYPE svg PUBLIC "-//W3C//DTD SVG 1.1//EN"
  "http://www.w3.org/Graphics/SVG/1.1/DTD/svg11.dtd">
<svg xmlns:xlink="http://www.w3.org/1999/xlink" width="144pt" height="60pt" viewBox="0 0 144 60" xmlns="http://www.w3.org/2000/svg" version="1.1">
  <desc id="nav-meta">{"window":"6m","count":4,"labels":["25.01","26.03","25.05","24.07"],"tick_utc":["2026-01-25T12:00:00Z","2026-03-26T03:39:29Z","2026-05-25T05:10:23Z","2026-07-24T03:57:40Z"]}</desc>

 <metadata>
  <rdf:RDF xmlns:dc="http://purl.org/dc/elements/1.1/" xmlns:cc="http://creativecommons.org/ns#" xmlns:rdf="http://www.w3.org/1999/02/22-rdf-syntax-ns#">
   <cc:Work>
    <dc:type rdf:resource="http://purl.org/dc/dcmitype/StillImage"/>
    <dc:date>2026-07-24T09:08:38.367986</dc:date>
    <dc:format>image/svg+xml</dc:format>
    <dc:creator>
     <cc:Agent>
      <dc:title>Matplotlib v3.11.1, https://matplotlib.org/</dc:title>
     </cc:Agent>
    </dc:creator>
   </cc:Work>
  </rdf:RDF>
 </metadata>
 <defs>
  <style type="text/css">*{stroke-linejoin: round; stroke-linecap: butt}</style>
 </defs>
 <g id="figure_1">
  <g id="patch_1">
   <path d="M 0 60 
L 144 60 
L 144 0 
L 0 0 
L 0 60 
z
" style="fill: none; opacity: 0"/>
  </g>
  <g id="axes_1">
   <g id="patch_2">
    <path d="M 5.76 52.8 
L 138.24 52.8 
L 138.24 3.6 
L 5.76 3.6 
L 5.76 52.8 
z
" style="fill: none"/>
   </g>
   <g id="matplotlib.axis_1"/>
   <g id="matplotlib.axis_2"/>
   <g id="line2d_1">
    <path d="M 5.76 42.96 
L 138.24 42.96 
" clip-path="url(#p00a2c85d4d)" style="fill: none; stroke: #b2b2b2; stroke-opacity: 0.35; stroke-width: 0.5; stroke-linecap: square"/>
   </g>
   <g id="line2d_2">
    <path d="M 5.76 33.12 
L 138.24 33.12 
" clip-path="url(#p00a2c85d4d)" style="fill: none; stroke: #b2b2b2; stroke-opacity: 0.35; stroke-width: 0.5; stroke-linecap: square"/>
   </g>
   <g id="line2d_3">
    <path d="M 5.76 23.28 
L 138.24 23.28 
" clip-path="url(#p00a2c85d4d)" style="fill: none; stroke: #b2b2b2; stroke-opacity: 0.35; stroke-width: 0.5; stroke-linecap: square"/>
   </g>
   <g id="line2d_4">
    <path d="M 5.76 13.44 
L 138.24 13.44 
" clip-path="url(#p00a2c85d4d)" style="fill: none; stroke: #b2b2b2; stroke-opacity: 0.35; stroke-width: 0.5; stroke-linecap: square"/>
   </g>
   <g id="line2d_5">
    <path d="M 5.76 45.07068 
L 6.497372 46.1334 
L 7.234744 45.4446 
L 7.972116 45.06084 
L 8.709489 45.33144 
L 9.446861 46.30068 
L 10.184233 46.34496 
L 10.921605 47.89476 
L 11.658977 48.26376 
L 12.396349 47.96364 
L 13.604837 49.06572 
L 14.341834 50.04972 
L 15.076048 49.24776 
L 18.038987 49.59708 
L 18.773705 49.80372 
L 19.510855 49.86768 
L 20.23936 49.479 
L 20.937824 49.24776 
L 21.722494 49.48392 
L 22.367242 49.37568 
L 23.196069 49.479 
L 23.932545 49.7004 
L 26.144269 49.49376 
L 26.88386 49.98576 
L 27.558939 49.96608 
L 28.35595 49.7004 
L 29.090036 49.27236 
L 29.826009 49.37076 
L 30.554693 49.68072 
L 31.308818 49.25268 
L 32.038578 49.51344 
L 34.249866 49.09032 
L 36.463135 49.64628 
L 37.202717 49.58724 
L 37.935353 49.36092 
L 39.412709 49.45932 
L 40.148656 49.16904 
L 41.636526 49.27236 
L 42.37598 48.87384 
L 43.843445 48.70164 
L 44.581022 49.03128 
L 45.311216 49.1592 
L 46.04427 49.08048 
L 47.531773 49.36584 
L 49.054609 48.90828 
L 49.746032 49.05096 
L 51.214657 49.64628 
L 54.177971 49.59708 
L 54.905631 49.8726 
L 56.374905 49.80864 
L 58.59524 49.83816 
L 59.333807 49.50852 
L 60.06861 49.68564 
L 61.538866 49.48884 
L 62.289466 49.6512 
L 63.030619 49.69056 
L 63.763297 49.40028 
L 64.500106 49.58724 
L 66.705779 49.19856 
L 67.452889 49.43472 
L 68.192087 49.50852 
L 71.869569 49.37568 
L 72.618411 49.4052 
L 73.363729 49.29204 
L 74.102646 49.5528 
L 74.838004 49.50852 
L 75.576613 49.64136 
L 77.040596 49.56264 
L 77.792937 49.57248 
L 78.530053 49.42488 
L 79.251185 49.49376 
L 80.739114 49.25268 
L 81.464214 49.24284 
L 82.204283 48.80004 
L 82.956514 48.85416 
L 84.426837 48.63276 
L 85.167717 48.66228 
L 85.90427 49.09524 
L 86.645278 48.99192 
L 88.121618 49.34616 
L 88.86615 49.47408 
L 90.338249 49.54788 
L 91.07982 49.3314 
L 91.811542 49.34616 
L 92.538784 49.51836 
L 94.034907 49.41504 
L 96.241066 49.7742 
L 98.45815 49.61676 
L 99.936547 49.7988 
L 100.682215 50.19732 
L 101.41706 50.45808 
L 102.142288 50.59092 
L 102.868327 50.99928 
L 104.362179 50.74344 
L 105.085478 50.62536 
L 105.830497 50.80248 
L 108.787163 50.56632 
L 110.290626 50.23176 
L 111.004511 50.2416 
L 112.49309 50.55156 
L 114.712648 50.217 
L 116.883125 50.59092 
L 117.624278 50.59092 
L 118.352612 50.33016 
L 119.104041 50.4384 
L 119.846747 50.3892 
L 123.50599 49.6266 
L 124.254158 49.7742 
L 125.724985 49.76436 
L 127.202043 49.98084 
L 127.937751 49.8972 
L 130.861056 50.15796 
L 131.598615 49.98084 
L 133.809051 50.1432 
L 137.502969 49.99068 
L 138.24 50.10384 
L 138.24 50.10384 
" clip-path="url(#p00a2c85d4d)" style="fill: none; stroke: #bebebe; stroke-width: 0.6; stroke-linecap: round"/>
   </g>
   <g id="line2d_6">
    <path d="M 5.76 37.45944 
L 6.497372 38.41392 
L 7.972116 36.95268 
L 8.709489 37.05108 
L 9.446861 38.37948 
L 10.184233 39.20604 
L 10.921605 41.03136 
L 11.658977 42.26628 
L 12.396349 41.73492 
L 13.018857 42.23676 
L 14.341834 44.89356 
L 15.076048 43.6242 
L 16.561563 43.53072 
L 17.303143 43.72752 
L 18.773705 44.436 
L 19.510855 44.49012 
L 20.23936 43.81608 
L 20.937824 43.7226 
L 21.722494 44.5344 
L 22.367242 44.19 
L 23.196069 44.21952 
L 24.665607 44.51472 
L 26.144269 44.3868 
L 26.88386 45.174 
L 27.558939 45.23796 
L 28.35595 44.81484 
L 29.090036 43.821 
L 29.826009 44.01288 
L 30.554693 44.66232 
L 31.308818 43.93908 
L 32.038578 44.39664 
L 32.777665 44.12112 
L 33.510907 44.33268 
L 34.249866 43.3044 
L 34.986888 43.6242 
L 35.718602 44.29824 
L 36.463135 44.53932 
L 37.202717 44.30808 
L 37.935353 43.8702 
L 38.672435 44.00304 
L 39.412709 43.97844 
L 40.148656 43.41756 
L 41.636526 43.48644 
L 42.37598 42.49752 
L 43.100448 41.73984 
L 43.843445 41.7546 
L 44.581022 42.591 
L 45.311216 43.14204 
L 46.04427 43.083 
L 46.792669 43.35852 
L 47.531773 43.78164 
L 48.262318 43.21584 
L 49.054609 42.9354 
L 49.746032 43.10268 
L 51.214657 44.25396 
L 53.434275 43.74228 
L 54.177971 43.46676 
L 55.643848 43.79148 
L 57.12338 43.77672 
L 57.862656 43.2552 
L 58.59524 43.40772 
L 59.333807 42.49752 
L 60.06861 42.90588 
L 60.812767 42.8616 
L 61.538866 42.41388 
L 63.030619 42.79764 
L 63.763297 41.57256 
L 64.500106 41.86284 
L 65.24067 41.63652 
L 65.97654 41.85792 
L 66.705779 41.22324 
L 67.452889 41.76936 
L 68.192087 42.1482 
L 68.926225 41.96616 
L 69.66131 41.59224 
L 71.140996 41.99076 
L 71.869569 41.91696 
L 72.618411 41.98584 
L 73.363729 41.41512 
L 74.102646 42.15312 
L 74.838004 41.96124 
L 75.576613 42.43848 
L 77.040596 42.02028 
L 77.792937 42.0252 
L 78.530053 41.40528 
L 80.001546 41.52336 
L 81.464214 42.1974 
L 82.204283 41.8776 
L 83.699706 41.8038 
L 84.426837 41.976 
L 85.167717 42.00552 
L 85.90427 42.3942 
L 86.645278 42.27612 
L 88.121618 42.85176 
L 88.86615 43.31424 
L 89.59824 43.2306 
L 90.338249 43.39296 
L 91.07982 43.16172 
L 91.811542 43.24536 
L 92.538784 43.71768 
L 93.287831 43.33392 
L 95.50605 43.67832 
L 96.241066 44.32776 
L 96.978985 44.13588 
L 97.705723 44.16048 
L 98.45815 43.96368 
L 99.206429 44.2392 
L 99.936547 44.19984 
L 100.682215 45.16908 
L 101.41706 45.67584 
L 102.142288 46.00548 
L 102.868327 47.57004 
L 104.362179 46.64016 
L 105.085478 46.34496 
L 105.830497 46.82712 
L 107.312462 46.51716 
L 108.04444 46.5516 
L 108.787163 46.46304 
L 111.004511 45.6414 
L 111.73835 46.09404 
L 112.49309 46.3302 
L 114.712648 46.035 
L 115.40594 46.14324 
L 117.624278 47.38308 
L 118.352612 47.14692 
L 119.846747 47.22072 
L 122.042443 46.79268 
L 122.771793 46.27608 
L 123.50599 45.92184 
L 124.998674 45.75456 
L 127.202043 46.02024 
L 128.653351 45.61188 
L 129.40175 45.51348 
L 130.140735 45.72504 
L 130.861056 45.72996 
L 131.598615 45.08052 
L 132.337831 44.76564 
L 133.075323 45.23796 
L 133.809051 45.29208 
L 134.557509 45.1248 
L 135.304883 45.08544 
L 136.028814 44.69676 
L 137.502969 44.74596 
L 138.24 45.0264 
L 138.24 45.0264 
" clip-path="url(#p00a2c85d4d)" style="fill: none; stroke: #4a8dff; stroke-width: 0.6; stroke-linecap: round"/>
   </g>
   <g id="line2d_7">
    <path d="M 5.76 41.5086 
L 6.497372 42.80256 
L 7.234744 41.93664 
L 7.972116 41.49384 
L 8.709489 41.51352 
L 9.446861 43.78164 
L 10.184233 43.9932 
L 10.921605 46.66968 
L 11.658977 47.55036 
L 12.396349 46.64508 
L 13.604837 48.89352 
L 14.341834 49.84308 
L 15.076048 49.00176 
L 15.830276 49.233 
L 16.561563 48.97716 
L 18.038987 49.36092 
L 19.510855 49.58724 
L 20.23936 49.28712 
L 20.937824 49.16904 
L 21.722494 49.39044 
L 22.367242 49.29696 
L 23.932545 49.55772 
L 26.144269 49.41996 
L 26.88386 49.8234 
L 27.558939 49.86768 
L 28.35595 49.72992 
L 29.090036 49.39536 
L 30.554693 49.6758 
L 31.308818 49.47408 
L 32.038578 49.60692 
L 32.777665 49.37568 
L 33.510907 49.36584 
L 34.249866 48.6672 
L 34.986888 48.95256 
L 35.718602 49.36092 
L 36.463135 49.54788 
L 37.202717 49.5282 
L 37.935353 49.09032 
L 39.412709 49.2084 
L 40.148656 48.93288 
L 41.636526 48.89844 
L 42.37598 48.48024 
L 43.100448 48.1998 
L 43.843445 48.28344 
L 44.581022 48.88368 
L 45.311216 49.04604 
L 46.04427 49.00176 
L 47.531773 49.38552 
L 48.262318 49.04112 
L 49.054609 48.92796 
L 49.746032 48.987 
L 51.214657 49.66104 
L 54.177971 49.40028 
L 54.905631 49.56756 
L 56.374905 49.56264 
L 57.12338 49.53312 
L 57.862656 49.25268 
L 58.59524 49.29696 
L 59.333807 48.89352 
L 60.06861 48.96732 
L 61.538866 48.5934 
L 62.289466 48.84432 
L 63.030619 48.95748 
L 63.763297 48.30804 
L 64.500106 48.34248 
L 65.24067 48.21456 
L 65.97654 48.26376 
L 66.705779 47.41752 
L 67.452889 48.05712 
L 68.192087 48.26376 
L 68.926225 48.01776 
L 69.66131 47.23548 
L 71.869569 47.1666 
L 72.618411 47.31912 
L 73.363729 46.49256 
L 74.102646 47.64876 
L 74.838004 47.5356 
L 75.576613 48.0276 
L 76.322042 47.50608 
L 77.040596 46.81728 
L 77.792937 46.92552 
L 78.530053 45.85788 
L 80.001546 45.29208 
L 80.739114 45.58728 
L 81.464214 46.2564 
L 82.204283 45.7152 
L 85.167717 45.42492 
L 85.90427 46.38432 
L 86.645278 45.57744 
L 87.373236 46.51716 
L 88.121618 46.95996 
L 88.86615 47.54544 
L 90.338249 47.66844 
L 91.07982 47.05344 
L 91.811542 47.22564 
L 92.538784 48.07188 
L 94.034907 47.37324 
L 95.50605 48.07188 
L 96.241066 48.59832 
L 96.978985 48.52452 
L 97.705723 48.5688 
L 98.45815 48.38676 
L 99.206429 48.55404 
L 101.41706 49.93656 
L 102.142288 49.98084 
L 102.868327 50.3646 
L 103.621547 50.15796 
L 105.085478 49.99068 
L 105.830497 50.217 
L 107.312462 49.98084 
L 108.787163 49.87752 
L 109.549046 49.69548 
L 111.004511 49.7004 
L 112.49309 50.06448 
L 113.953693 49.89228 
L 115.40594 49.9464 
L 118.352612 50.31048 
L 121.317984 50.41872 
L 123.50599 50.0694 
L 126.442319 50.05956 
L 127.202043 50.11368 
L 127.937751 49.91196 
L 129.40175 49.8972 
L 130.861056 50.08908 
L 131.598615 49.84308 
L 132.337831 49.85292 
L 133.075323 49.97592 
L 137.502969 49.725 
L 138.24 49.7496 
L 138.24 49.7496 
" clip-path="url(#p00a2c85d4d)" style="fill: none; stroke: #f5841e; stroke-width: 0.7; stroke-linecap: round"/>
   </g>
  </g>
 </g>
 <defs>
  <clipPath id="p00a2c85d4d">
   <rect x="5.76" y="3.6" width="132.48" height="49.2"/>
  </clipPath>
 </defs>
</svg>
