<?xml version="1.0" encoding="utf-8" standalone="no"?>
<!DOCTYPE svg PUBLIC "-//W3C//DTD SVG 1.1//EN"
  "http://www.w3.org/Graphics/SVG/1.1/DTD/svg11.dtd">
<svg xmlns:xlink="http://www.w3.org/1999/xlink" width="144pt" height="60pt" viewBox="0 0 144 60" xmlns="http://www.w3.org/2000/svg" version="1.1">
  <desc id="nav-meta">{"window":"2w","count":4,"labels":["11 Jan","17 Jan","22 Jan","25 Jan"],"idxs":[0,46,92,138]}</desc>

 <metadata>
  <rdf:RDF xmlns:dc="http://purl.org/dc/elements/1.1/" xmlns:cc="http://creativecommons.org/ns#" xmlns:rdf="http://www.w3.org/1999/02/22-rdf-syntax-ns#">
   <cc:Work>
    <dc:type rdf:resource="http://purl.org/dc/dcmitype/StillImage"/>
    <dc:date>2026-01-25T08:53:56.764285</dc:date>
    <dc:format>image/svg+xml</dc:format>
    <dc:creator>
     <cc:Agent>
      <dc:title>Matplotlib v3.10.8, https://matplotlib.org/</dc:title>
     </cc:Agent>
    </dc:creator>
   </cc:Work>
  </rdf:RDF>
 </metadata>
 <defs>
  <style type="text/css">*{stroke-linejoin: round; stroke-linecap: butt}</style>
 </defs>
 <g id="figure_1">
  <g id="patch_1">
   <path d="M 0 60 
L 144 60 
L 144 0 
L 0 0 
L 0 60 
z
" style="fill: none; opacity: 0"/>
  </g>
  <g id="axes_1">
   <g id="patch_2">
    <path d="M 5.76 52.8 
L 138.24 52.8 
L 138.24 3.6 
L 5.76 3.6 
L 5.76 52.8 
z
" style="fill: none"/>
   </g>
   <g id="matplotlib.axis_1"/>
   <g id="matplotlib.axis_2"/>
   <g id="line2d_1">
    <path d="M 5.76 42.96 
L 138.24 42.96 
" clip-path="url(#pec84f89d5d)" style="fill: none; stroke: #b2b2b2; stroke-opacity: 0.35; stroke-width: 0.5; stroke-linecap: square"/>
   </g>
   <g id="line2d_2">
    <path d="M 5.76 33.12 
L 138.24 33.12 
" clip-path="url(#pec84f89d5d)" style="fill: none; stroke: #b2b2b2; stroke-opacity: 0.35; stroke-width: 0.5; stroke-linecap: square"/>
   </g>
   <g id="line2d_3">
    <path d="M 5.76 23.28 
L 138.24 23.28 
" clip-path="url(#pec84f89d5d)" style="fill: none; stroke: #b2b2b2; stroke-opacity: 0.35; stroke-width: 0.5; stroke-linecap: square"/>
   </g>
   <g id="line2d_4">
    <path d="M 5.76 13.44 
L 138.24 13.44 
" clip-path="url(#pec84f89d5d)" style="fill: none; stroke: #b2b2b2; stroke-opacity: 0.35; stroke-width: 0.5; stroke-linecap: square"/>
   </g>
   <g id="line2d_5">
    <path d="M 6.236547 38.52708 
L 7.421474 38.466045 
L 8.369416 38.27616 
L 12.398168 38.195419 
L 13.583095 38.1138 
L 14.057066 38.040027 
L 15.005007 37.75464 
L 15.952949 37.812084 
L 16.900891 38.04984 
L 18.322803 38.150368 
L 19.270745 38.19744 
L 19.744716 38.135315 
L 20.692657 37.83828 
L 22.11457 37.737699 
L 23.062511 37.68576 
L 25.432366 37.580685 
L 26.854278 37.4496 
L 29.224132 37.362928 
L 32.067957 37.1298 
L 33.015899 37.165703 
L 33.963841 37.4988 
L 35.385753 37.409761 
L 36.333695 37.34628 
L 38.703549 37.379151 
L 39.651491 37.85304 
L 42.021345 37.753656 
L 42.969286 37.671 
L 43.680243 37.608981 
L 44.628184 37.45452 
L 53.159659 37.534703 
L 54.344586 37.68576 
L 61.454149 37.74972 
L 62.165105 38.483571 
L 62.402091 38.751485 
L 62.876061 38.8272 
L 66.193857 38.721779 
L 67.378784 38.732949 
L 68.800697 38.86656 
L 69.274668 38.943312 
L 70.222609 39.41268 
L 71.644522 39.517569 
L 72.592464 39.57996 
L 78.99107 39.533526 
L 79.939011 39.3438 
L 81.123939 39.250772 
L 82.07188 39.18144 
L 83.256807 39.285159 
L 84.441734 39.310158 
L 88.944457 39.467491 
L 89.655414 39.52092 
L 119.515576 39.61448 
L 120.463518 39.64392 
L 122.359401 39.746974 
L 123.781314 39.76692 
L 125.203226 39.669903 
L 126.625139 39.64884 
L 137.763453 39.68328 
L 137.763453 39.68328 
" clip-path="url(#pec84f89d5d)" style="fill: none; stroke: #bebebe; stroke-width: 0.6; stroke-linecap: round"/>
   </g>
   <g id="line2d_6">
    <path d="M 6.236547 33.34632 
L 8.606401 33.289541 
L 10.265299 33.226751 
L 10.976255 32.995537 
L 12.635153 33.25776 
L 19.50773 33.147871 
L 22.588541 33.016148 
L 23.536482 32.64276 
L 24.247438 32.64276 
L 24.721409 32.277776 
L 25.432366 31.7178 
L 30.409059 31.661446 
L 31.357001 31.46688 
L 32.067957 31.515389 
L 33.015899 31.9392 
L 33.963841 31.901223 
L 34.911782 31.52592 
L 36.57068 31.623575 
L 37.281636 31.889255 
L 37.755607 32.074114 
L 39.888476 32.040924 
L 40.836418 31.94795 
L 42.021345 32.04744 
L 48.893922 31.945982 
L 50.789805 31.880399 
L 52.448703 31.877368 
L 55.766499 31.87032 
L 59.558266 31.68336 
L 60.269222 32.306312 
L 60.506207 32.530185 
L 61.217164 32.61074 
L 63.113047 32.589837 
L 65.482901 32.56896 
L 66.430843 32.613692 
L 67.61577 32.85432 
L 68.326726 32.937614 
L 69.274668 33.42504 
L 70.222609 33.490197 
L 71.170551 33.9072 
L 72.592464 33.995893 
L 73.540405 34.04988 
L 74.488347 34.134025 
L 75.436289 34.18764 
L 79.702026 34.146551 
L 80.886953 33.84816 
L 82.308866 33.944539 
L 83.967764 33.993632 
L 87.522545 34.225138 
L 88.470486 34.45332 
L 116.434766 34.342288 
L 117.619693 34.31064 
L 120.226532 34.509408 
L 120.937489 34.540896 
L 122.122416 34.65996 
L 122.833372 34.590708 
L 123.781314 34.469543 
L 125.677197 34.464862 
L 127.336095 34.37109 
L 129.705949 34.323618 
L 137.763453 34.52712 
L 137.763453 34.52712 
" clip-path="url(#pec84f89d5d)" style="fill: none; stroke: #4a8dff; stroke-width: 0.7; stroke-linecap: round"/>
   </g>
   <g id="line2d_7">
    <path d="M 6.236547 38.4582 
L 8.13243 38.37456 
L 9.791328 38.52216 
L 10.028313 38.52216 
L 10.976255 37.928569 
L 12.398168 38.47788 
L 15.005007 38.37948 
L 15.952949 38.163 
L 19.033759 38.074972 
L 19.744716 37.87764 
L 22.351555 37.80876 
L 22.825526 37.427792 
L 23.536482 36.86904 
L 24.484424 36.820212 
L 25.432366 36.53448 
L 28.513176 36.433527 
L 29.224132 36.08184 
L 30.172074 36.023757 
L 31.120016 35.57016 
L 32.067957 35.627259 
L 33.015899 36.12612 
L 33.963841 36.093568 
L 34.911782 35.77188 
L 35.859724 35.800602 
L 38.229578 36.563335 
L 40.125461 36.45225 
L 40.599432 36.379965 
L 41.784359 36.60336 
L 48.656936 36.506742 
L 50.078849 36.4656 
L 57.899368 36.597775 
L 59.32128 36.50004 
L 59.558266 36.50004 
L 60.269222 37.26256 
L 60.506207 37.536591 
L 60.980178 37.554728 
L 62.402091 37.49388 
L 65.00893 37.48912 
L 66.193857 37.45944 
L 66.904814 37.732965 
L 67.378784 37.87764 
L 68.326726 37.950882 
L 69.274668 38.37948 
L 70.459595 38.473891 
L 71.407536 38.62548 
L 72.355478 38.733747 
L 73.30342 38.91576 
L 74.725332 39.017245 
L 77.569157 39.12732 
L 78.280114 38.959189 
L 78.99107 38.84196 
L 80.412982 38.740236 
L 81.597909 38.72622 
L 83.493793 38.821987 
L 87.522545 38.887224 
L 88.470486 39.147 
L 95.580049 39.054823 
L 96.527991 39.01908 
L 97.238947 38.938605 
L 98.186889 38.8518 
L 100.082772 38.957833 
L 101.267699 39.02892 
L 116.19778 38.927169 
L 117.382707 38.82228 
L 118.093664 38.927408 
L 119.041605 39.11256 
L 121.174474 39.205508 
L 122.359401 39.2454 
L 123.070357 39.087428 
L 123.544328 38.981582 
L 125.440212 39.052563 
L 128.521022 38.88132 
L 131.364847 38.970651 
L 133.26073 39.041978 
L 136.815512 39.222369 
L 137.763453 39.51108 
L 137.763453 39.51108 
" clip-path="url(#pec84f89d5d)" style="fill: none; stroke: #f5841e; stroke-width: 0.8; stroke-linecap: round"/>
   </g>
  </g>
 </g>
 <defs>
  <clipPath id="pec84f89d5d">
   <rect x="5.76" y="3.6" width="132.48" height="49.2"/>
  </clipPath>
 </defs>
</svg>
