<?xml version="1.0" encoding="utf-8" standalone="no"?>
<!DOCTYPE svg PUBLIC "-//W3C//DTD SVG 1.1//EN"
  "http://www.w3.org/Graphics/SVG/1.1/DTD/svg11.dtd">
<svg xmlns:xlink="http://www.w3.org/1999/xlink" width="144pt" height="60pt" viewBox="0 0 144 60" xmlns="http://www.w3.org/2000/svg" version="1.1">
  <desc id="nav-meta">{"window":"1y","count":4,"labels":["14.02","16.06","15.10","14.02"],"tick_utc":["2025-02-14T12:00:00Z","2025-06-16T12:00:00Z","2025-10-15T12:00:00Z","2026-02-14T03:16:28Z"]}</desc>

 <metadata>
  <rdf:RDF xmlns:dc="http://purl.org/dc/elements/1.1/" xmlns:cc="http://creativecommons.org/ns#" xmlns:rdf="http://www.w3.org/1999/02/22-rdf-syntax-ns#">
   <cc:Work>
    <dc:type rdf:resource="http://purl.org/dc/dcmitype/StillImage"/>
    <dc:date>2026-02-14T03:16:32.570818</dc:date>
    <dc:format>image/svg+xml</dc:format>
    <dc:creator>
     <cc:Agent>
      <dc:title>Matplotlib v3.10.8, https://matplotlib.org/</dc:title>
     </cc:Agent>
    </dc:creator>
   </cc:Work>
  </rdf:RDF>
 </metadata>
 <defs>
  <style type="text/css">*{stroke-linejoin: round; stroke-linecap: butt}</style>
 </defs>
 <g id="figure_1">
  <g id="patch_1">
   <path d="M 0 60 
L 144 60 
L 144 0 
L 0 0 
L 0 60 
z
" style="fill: none; opacity: 0"/>
  </g>
  <g id="axes_1">
   <g id="patch_2">
    <path d="M 5.76 52.8 
L 138.24 52.8 
L 138.24 3.6 
L 5.76 3.6 
L 5.76 52.8 
z
" style="fill: none"/>
   </g>
   <g id="matplotlib.axis_1"/>
   <g id="matplotlib.axis_2"/>
   <g id="line2d_1">
    <path d="M 5.76 42.96 
L 138.24 42.96 
" clip-path="url(#p336e40fd1a)" style="fill: none; stroke: #b2b2b2; stroke-opacity: 0.35; stroke-width: 0.5; stroke-linecap: square"/>
   </g>
   <g id="line2d_2">
    <path d="M 5.76 33.12 
L 138.24 33.12 
" clip-path="url(#p336e40fd1a)" style="fill: none; stroke: #b2b2b2; stroke-opacity: 0.35; stroke-width: 0.5; stroke-linecap: square"/>
   </g>
   <g id="line2d_3">
    <path d="M 5.76 23.28 
L 138.24 23.28 
" clip-path="url(#p336e40fd1a)" style="fill: none; stroke: #b2b2b2; stroke-opacity: 0.35; stroke-width: 0.5; stroke-linecap: square"/>
   </g>
   <g id="line2d_4">
    <path d="M 5.76 13.44 
L 138.24 13.44 
" clip-path="url(#p336e40fd1a)" style="fill: none; stroke: #b2b2b2; stroke-opacity: 0.35; stroke-width: 0.5; stroke-linecap: square"/>
   </g>
   <g id="line2d_5">
    <path d="M 5.76 36.318 
L 6.123321 35.61444 
L 6.849962 37.11012 
L 7.576604 39.59472 
L 7.939925 39.57504 
L 8.303246 38.69436 
L 8.666566 39.60948 
L 9.029887 39.19128 
L 9.393208 39.72756 
L 9.756529 43.23552 
L 10.11985 42.81732 
L 10.48317 44.08176 
L 10.846491 43.698 
L 11.209812 42.3204 
L 11.573133 42.94032 
L 11.936454 38.41392 
L 12.299774 43.0584 
L 12.663095 42.72384 
L 13.026416 42.58116 
L 13.389737 42.9354 
L 13.753058 43.49136 
L 14.116378 43.79148 
L 14.84302 46.14816 
L 15.206341 45.28224 
L 15.569662 45.13464 
L 15.932982 45.5676 
L 16.296303 44.22444 
L 16.659624 43.92924 
L 17.022945 45.18876 
L 17.386265 44.91324 
L 17.749586 45.297 
L 18.112907 43.95384 
L 18.476228 44.99196 
L 19.202869 44.89848 
L 19.56619 44.41632 
L 19.929511 43.30932 
L 20.292832 42.87144 
L 20.656153 43.76196 
L 21.019473 43.59468 
L 21.382794 44.76072 
L 21.746115 45.40524 
L 22.472757 45.35604 
L 22.836077 45.10512 
L 23.199398 46.24164 
L 23.562719 46.3548 
L 23.92604 45.63648 
L 24.289361 45.97104 
L 24.652681 47.84556 
L 25.016002 47.71272 
L 25.379323 47.88 
L 25.742644 46.12848 
L 26.105965 46.91568 
L 26.832606 44.40648 
L 27.195927 44.91816 
L 27.559248 44.76564 
L 27.922569 45.16908 
L 28.285889 44.49504 
L 28.64921 44.08668 
L 29.012531 44.17032 
L 29.375852 43.43232 
L 30.102493 43.86528 
L 30.465814 42.23676 
L 31.192456 41.7792 
L 32.282418 42.31056 
L 32.645739 42.345 
L 33.00906 42.5418 
L 33.372381 42.37944 
L 33.735701 41.98584 
L 34.099022 42.345 
L 34.462343 42.49752 
L 34.825664 42.86652 
L 35.188985 42.49752 
L 35.915626 42.44832 
L 36.278947 40.33272 
L 36.642268 39.12732 
L 37.005588 38.52216 
L 37.368909 39.10272 
L 37.73223 38.901 
L 38.095551 37.6464 
L 38.822192 39.639 
L 39.548834 40.008 
L 39.912155 39.27492 
L 40.275476 39.90468 
L 40.638796 39.6882 
L 41.365438 38.22696 
L 41.728759 38.901 
L 42.09208 38.69436 
L 42.818721 38.86164 
L 43.182042 38.62056 
L 43.908684 39.88992 
L 44.272004 41.23308 
L 45.361967 41.17404 
L 46.088608 41.62176 
L 46.451929 42.79272 
L 46.81525 42.30564 
L 47.541892 41.7546 
L 47.905212 40.62792 
L 48.268533 40.131 
L 48.631854 40.6476 
L 48.995175 41.73492 
L 49.721816 42.76812 
L 50.085137 41.73492 
L 50.448458 41.89728 
L 50.811779 42.345 
L 51.1751 42.5664 
L 51.53842 42.46308 
L 52.265062 44.20476 
L 52.628383 44.45076 
L 52.991704 42.7632 
L 53.355024 42.63036 
L 53.718345 42.94524 
L 54.081666 43.52088 
L 54.444987 43.1076 
L 54.808308 41.98092 
L 55.534949 41.43972 
L 55.89827 42.4926 
L 56.261591 41.79888 
L 56.624911 41.78412 
L 56.988232 42.37452 
L 57.351553 42.3942 
L 57.714874 41.83332 
L 58.078195 42.24168 
L 58.441515 41.84316 
L 59.168157 40.2786 
L 59.531478 40.42128 
L 59.894799 40.71648 
L 60.62144 40.48032 
L 60.984761 40.26384 
L 61.348082 38.97972 
L 62.074723 38.51724 
L 62.438044 38.57628 
L 62.801365 38.04492 
L 63.164686 36.03264 
L 63.528007 34.88136 
L 63.891327 36.92316 
L 64.254648 37.8432 
L 64.617969 37.37088 
L 64.98129 37.53324 
L 65.344611 37.056 
L 65.707931 37.77924 
L 66.071252 38.02032 
L 66.434573 38.45328 
L 66.797894 39.1962 
L 67.161215 40.41636 
L 67.524535 40.97232 
L 67.887856 40.53444 
L 68.251177 39.55536 
L 68.614498 40.24908 
L 68.977819 39.7128 
L 69.341139 38.778 
L 69.70446 38.59104 
L 70.431102 37.794 
L 70.794423 38.82228 
L 71.157743 36.53448 
L 71.521064 35.334 
L 72.247706 37.44468 
L 72.611027 36.90348 
L 72.974347 36.65748 
L 73.700989 38.64516 
L 74.06431 37.2282 
L 74.427631 38.14332 
L 74.790951 35.53572 
L 75.154272 35.04372 
L 75.517593 34.80264 
L 75.880914 37.23804 
L 76.970876 33.67104 
L 77.334197 34.90596 
L 78.424159 35.9736 
L 78.78748 34.36476 
L 79.150801 34.1778 
L 79.514122 35.22084 
L 79.877442 35.11752 
L 80.240763 35.54556 
L 81.694046 32.44104 
L 82.057367 31.83096 
L 82.420688 30.06468 
L 82.784009 30.01056 
L 83.14733 30.291 
L 83.51065 31.16184 
L 83.873971 30.74856 
L 84.237292 29.71536 
L 84.600613 29.37588 
L 84.963934 30.57636 
L 85.327254 30.42876 
L 85.690575 30.79284 
L 86.053896 32.91828 
L 86.417217 33.72024 
L 86.780538 34.05972 
L 87.143858 36.5886 
L 87.507179 34.90104 
L 87.8705 35.10276 
L 88.233821 34.16796 
L 88.597142 33.8826 
L 88.960462 34.43364 
L 89.687104 31.05852 
L 90.050425 31.26024 
L 90.413746 31.92936 
L 90.777066 31.85064 
L 91.140387 31.3242 
L 91.503708 32.84448 
L 91.867029 31.78176 
L 92.23035 32.85924 
L 92.59367 36.8838 
L 92.956991 38.39424 
L 93.320312 35.95392 
L 93.683633 34.53696 
L 94.046954 35.20608 
L 94.773595 37.57752 
L 95.136916 37.90716 
L 95.500237 37.18884 
L 95.863557 37.18392 
L 96.226878 36.89364 
L 96.590199 37.42008 
L 96.95352 38.17284 
L 97.316841 36.687 
L 97.680161 36.42132 
L 98.043482 36.34752 
L 98.406803 35.56032 
L 98.770124 35.72268 
L 99.133445 36.29832 
L 99.496765 36.32292 
L 99.860086 37.61688 
L 100.223407 37.2282 
L 100.586728 37.34628 
L 100.950049 37.23804 
L 101.313369 40.008 
L 101.67669 41.36592 
L 102.040011 40.43604 
L 102.403332 41.44956 
L 102.766653 40.53444 
L 103.129973 41.02152 
L 103.493294 40.22448 
L 103.856615 39.79644 
L 104.219936 41.51844 
L 104.583257 41.66604 
L 105.309898 43.51596 
L 105.673219 43.43724 
L 106.03654 43.71276 
L 106.399861 44.59836 
L 106.763181 43.30932 
L 107.853144 44.88372 
L 108.216465 44.99688 
L 108.579785 44.57868 
L 108.943106 43.5996 
L 109.306427 43.51596 
L 109.669748 43.00428 
L 110.033069 43.2798 
L 110.396389 43.71768 
L 111.123031 44.0916 
L 111.486352 45.11004 
L 111.849673 43.55532 
L 112.212993 42.72876 
L 112.939635 44.27364 
L 113.666277 44.47536 
L 114.029597 44.25888 
L 114.392918 43.64388 
L 114.756239 43.84068 
L 115.11956 43.85052 
L 115.48288 44.36712 
L 115.846201 44.26872 
L 116.209522 44.74104 
L 116.572843 44.98704 
L 116.936164 44.84436 
L 117.299484 45.58728 
L 117.662805 46.0596 
L 118.026126 45.18384 
L 119.479409 45.47904 
L 119.84273 45.65616 
L 120.206051 45.98088 
L 120.932692 45.38556 
L 121.296013 45.31668 
L 121.659334 45.58728 
L 122.022655 45.35604 
L 122.385976 45.40032 
L 122.749296 45.11496 
L 123.112617 44.42124 
L 123.839259 44.18508 
L 124.5659 43.24044 
L 124.929221 43.8702 
L 125.292542 43.60944 
L 125.655863 43.92924 
L 126.019184 43.93416 
L 126.382504 43.46184 
L 126.745825 43.5012 
L 127.109146 42.72384 
L 127.472467 42.51228 
L 127.835788 43.08792 
L 128.199108 42.75828 
L 128.562429 42.90096 
L 129.289071 44.2392 
L 129.652392 45.23304 
L 130.015712 44.77548 
L 130.742354 45.04608 
L 131.105675 45.07068 
L 131.468996 46.1334 
L 131.832316 45.4446 
L 132.195637 45.06084 
L 132.558958 45.33144 
L 132.922279 46.30068 
L 133.2856 46.34496 
L 133.64892 47.89476 
L 134.012241 48.26376 
L 134.375562 47.96364 
L 135.334148 50.04972 
L 135.695913 49.24776 
L 137.155824 49.59708 
L 137.517837 49.80372 
L 137.881048 49.86768 
L 138.24 49.479 
L 138.24 49.479 
" clip-path="url(#p336e40fd1a)" style="fill: none; stroke: #bebebe; stroke-width: 0.6; stroke-linecap: round"/>
   </g>
   <g id="line2d_6">
    <path d="M 5.76 39.393 
L 6.123321 39.0486 
L 6.849962 39.50616 
L 7.213283 38.9256 
L 7.576604 39.43728 
L 8.303246 38.9256 
L 8.666566 39.516 
L 9.029887 38.76816 
L 9.393208 38.32044 
L 9.756529 40.61316 
L 10.11985 40.6722 
L 10.48317 41.86776 
L 10.846491 42.01536 
L 11.209812 42.50736 
L 11.573133 42.66972 
L 11.936454 40.51476 
L 12.299774 43.12728 
L 12.663095 42.96 
L 13.026416 42.468 
L 13.389737 42.74352 
L 13.753058 43.17648 
L 14.116378 42.75828 
L 14.84302 45.0264 
L 15.206341 44.7312 
L 15.569662 44.805 
L 15.932982 45.14448 
L 16.659624 44.59836 
L 17.022945 44.96736 
L 17.386265 44.67216 
L 17.749586 44.64756 
L 18.112907 43.74228 
L 18.476228 44.30808 
L 18.839549 44.42616 
L 19.56619 44.1654 
L 19.929511 43.6242 
L 20.292832 43.68816 
L 20.656153 44.10144 
L 21.019473 44.15064 
L 21.382794 44.9034 
L 21.746115 45.38064 
L 22.109436 45.55284 
L 22.472757 45.41508 
L 22.836077 44.8296 
L 23.199398 45.6168 
L 23.562719 45.45936 
L 24.289361 45.5184 
L 24.652681 47.18136 
L 25.016002 47.3142 
L 25.379323 47.90952 
L 25.742644 46.56144 
L 26.105965 47.54052 
L 26.469285 47.23056 
L 26.832606 46.67952 
L 27.195927 47.03376 
L 27.559248 46.85172 
L 27.922569 47.08788 
L 28.285889 47.16168 
L 29.012531 47.07804 
L 29.375852 46.896 
L 29.739173 47.10756 
L 30.102493 47.16168 
L 30.465814 45.87264 
L 30.829135 45.63156 
L 31.192456 45.80376 
L 31.919097 45.43968 
L 32.282418 45.63156 
L 33.00906 45.61188 
L 33.372381 45.63156 
L 33.735701 45.31176 
L 34.462343 45.3462 
L 34.825664 45.52824 
L 35.552305 45.47412 
L 35.915626 45.51348 
L 36.278947 42.77796 
L 36.642268 41.75952 
L 37.005588 40.04244 
L 37.368909 40.58364 
L 37.73223 40.69188 
L 38.095551 39.38808 
L 38.822192 40.33764 
L 39.185513 40.32288 
L 39.548834 40.81488 
L 39.912155 40.88376 
L 40.275476 40.44588 
L 40.638796 40.46556 
L 41.002117 40.21956 
L 41.365438 39.52584 
L 41.728759 40.49508 
L 42.818721 40.19496 
L 43.182042 39.4914 
L 43.545363 39.38808 
L 43.908684 39.69312 
L 44.272004 40.46556 
L 44.998646 40.36716 
L 45.361967 39.8604 
L 45.725288 39.96372 
L 46.088608 39.85548 
L 46.451929 41.1888 
L 47.178571 40.4508 
L 47.541892 40.5738 
L 48.268533 38.45328 
L 48.631854 38.68452 
L 48.995175 39.55536 
L 49.358496 40.09164 
L 49.721816 40.39668 
L 50.448458 40.2048 
L 50.811779 40.52952 
L 51.53842 40.48032 
L 52.265062 42.26136 
L 52.628383 42.5664 
L 52.991704 41.17404 
L 53.355024 41.0166 
L 53.718345 41.22324 
L 54.444987 41.17896 
L 54.808308 41.08056 
L 55.171628 40.61808 
L 55.534949 40.7214 
L 55.89827 41.30688 
L 56.261591 40.11132 
L 56.624911 39.99816 
L 56.988232 40.56888 
L 57.351553 40.51476 
L 57.714874 40.131 
L 58.078195 40.3278 
L 58.441515 39.81612 
L 59.168157 37.46436 
L 59.531478 37.39056 
L 59.894799 37.50372 
L 60.62144 37.01172 
L 60.984761 36.16056 
L 61.348082 34.4976 
L 61.711403 33.69072 
L 62.438044 32.89368 
L 62.801365 31.73256 
L 63.164686 31.68336 
L 63.528007 31.8162 
L 63.891327 32.64276 
L 64.254648 32.0868 
L 64.98129 31.85064 
L 65.344611 30.98964 
L 65.707931 31.53576 
L 66.071252 31.521 
L 66.434573 31.38816 
L 66.797894 32.17044 
L 67.161215 33.68088 
L 67.524535 34.28604 
L 67.887856 33.58248 
L 68.251177 32.0376 
L 68.614498 32.76576 
L 68.977819 32.259 
L 69.341139 30.65508 
L 69.70446 29.93676 
L 70.067781 28.14588 
L 70.794423 28.40664 
L 71.157743 25.73508 
L 71.521064 24.62316 
L 71.884385 26.10408 
L 72.247706 26.97984 
L 72.611027 27.00936 
L 72.974347 26.58132 
L 73.337668 27.7818 
L 73.700989 29.49888 
L 74.06431 27.68832 
L 74.427631 28.44108 
L 74.790951 24.16068 
L 75.154272 24.55428 
L 75.517593 24.51984 
L 75.880914 27.32916 
L 76.244234 25.7646 
L 76.607555 26.48784 
L 76.970876 26.43372 
L 77.334197 27.44724 
L 78.060838 27.27504 
L 78.424159 27.8802 
L 78.78748 27.72276 
L 79.150801 26.84208 
L 79.514122 27.91956 
L 79.877442 27.8556 
L 80.240763 28.09668 
L 80.604084 27.87528 
L 81.330726 27.83592 
L 81.694046 27.57024 
L 82.057367 26.77812 
L 82.420688 25.01184 
L 83.14733 25.71048 
L 83.51065 26.31564 
L 83.873971 26.45832 
L 84.237292 25.8384 
L 84.600613 25.84824 
L 84.963934 26.6994 
L 85.327254 26.62068 
L 85.690575 26.8224 
L 86.053896 28.61328 
L 86.780538 28.97244 
L 87.143858 30.99456 
L 87.507179 29.76456 
L 87.8705 29.8974 
L 88.233821 29.02164 
L 88.597142 28.50012 
L 88.960462 29.00688 
L 89.687104 26.601 
L 90.050425 26.3796 
L 90.413746 26.5764 
L 90.777066 26.3796 
L 91.140387 25.1496 
L 91.503708 26.81256 
L 91.867029 26.29596 
L 92.23035 27.41772 
L 92.59367 31.19136 
L 92.956991 31.80144 
L 93.320312 28.89864 
L 93.683633 28.28364 
L 94.773595 30.80268 
L 95.136916 31.22088 
L 95.500237 30.8076 
L 95.863557 30.13356 
L 96.226878 30.17784 
L 96.95352 31.42752 
L 97.316841 31.04376 
L 97.680161 30.49764 
L 98.043482 30.3648 
L 98.406803 28.88388 
L 98.770124 29.15448 
L 99.133445 30.15324 
L 99.860086 31.4226 
L 100.586728 30.9306 
L 100.950049 30.66 
L 101.67669 34.99944 
L 102.040011 34.07448 
L 102.403332 34.9158 
L 102.766653 34.02528 
L 103.129973 34.26144 
L 103.493294 33.0216 
L 103.856615 33.10524 
L 104.219936 34.1532 
L 104.583257 34.2024 
L 105.309898 36.34752 
L 105.673219 35.89488 
L 106.399861 36.94776 
L 106.763181 36.2688 
L 107.126502 36.97236 
L 107.489823 38.286 
L 107.853144 38.76324 
L 108.216465 38.73864 
L 108.579785 38.51724 
L 108.943106 37.42992 
L 109.306427 37.42008 
L 109.669748 36.90348 
L 110.033069 36.98712 
L 110.396389 36.86412 
L 110.75971 37.16424 
L 111.123031 37.14948 
L 111.486352 38.52216 
L 112.212993 35.71776 
L 112.576314 36.15564 
L 112.939635 36.93792 
L 113.666277 36.72636 
L 114.029597 36.21468 
L 114.392918 34.8174 
L 114.756239 34.7928 
L 115.11956 35.42748 
L 115.48288 36.49512 
L 115.846201 36.28356 
L 116.209522 36.6378 
L 116.572843 37.3512 
L 116.936164 37.3512 
L 117.299484 38.31552 
L 117.662805 38.32536 
L 118.026126 37.26264 
L 118.389447 37.26264 
L 118.752768 37.09044 
L 119.116088 37.06092 
L 119.479409 37.34628 
L 119.84273 37.48404 
L 120.206051 37.77924 
L 120.932692 37.45944 
L 121.659334 37.56276 
L 122.022655 37.31184 
L 122.385976 37.33644 
L 122.749296 37.09536 
L 123.112617 36.23928 
L 123.839259 36.11628 
L 124.5659 35.0142 
L 124.929221 35.93424 
L 125.292542 36.36228 
L 125.655863 36.50988 
L 126.019184 36.5148 
L 126.382504 36.25404 
L 126.745825 36.46068 
L 127.109146 34.83708 
L 127.472467 34.57632 
L 128.199108 35.00436 
L 128.562429 34.93056 
L 128.92575 35.088 
L 129.289071 35.78664 
L 129.652392 37.55292 
L 130.015712 37.26756 
L 130.379033 37.46436 
L 131.105675 37.45944 
L 131.468996 38.41392 
L 132.195637 36.95268 
L 132.558958 37.05108 
L 132.922279 38.37948 
L 133.2856 39.20604 
L 133.64892 41.03136 
L 134.012241 42.26628 
L 134.375562 41.73492 
L 134.682286 42.23676 
L 135.334148 44.89356 
L 135.695913 43.6242 
L 136.427862 43.53072 
L 136.793256 43.72752 
L 137.517837 44.436 
L 137.881048 44.49012 
L 138.24 43.81608 
L 138.24 43.81608 
" clip-path="url(#p336e40fd1a)" style="fill: none; stroke: #4a8dff; stroke-width: 0.6; stroke-linecap: round"/>
   </g>
   <g id="line2d_7">
    <path d="M 5.76 37.85796 
L 6.123321 37.4004 
L 6.486642 37.36104 
L 6.849962 38.0646 
L 7.576604 38.3844 
L 7.939925 37.86288 
L 8.303246 36.9576 
L 8.666566 38.06952 
L 9.029887 37.85796 
L 9.393208 37.97604 
L 9.756529 40.41144 
L 10.11985 41.71524 
L 10.48317 44.11128 
L 10.846491 43.71276 
L 11.209812 43.8456 
L 11.573133 43.07316 
L 11.936454 38.99448 
L 12.299774 43.01412 
L 12.663095 42.42864 
L 13.026416 40.80012 
L 13.389737 41.10024 
L 13.753058 42.69432 
L 14.116378 43.00428 
L 14.479699 45.666 
L 14.84302 46.64016 
L 15.206341 44.6574 
L 15.569662 44.12112 
L 15.932982 45.4938 
L 16.296303 44.07684 
L 16.659624 43.8702 
L 17.022945 44.75088 
L 17.386265 44.02764 
L 17.749586 44.66724 
L 18.112907 42.67464 
L 18.476228 43.92924 
L 19.202869 44.1654 
L 19.929511 42.4188 
L 20.292832 42.32532 
L 20.656153 42.60084 
L 21.019473 42.468 
L 21.382794 43.88496 
L 21.746115 44.71644 
L 22.109436 44.87388 
L 22.472757 44.79516 
L 22.836077 43.452 
L 23.199398 44.79024 
L 23.92604 44.13588 
L 24.289361 44.2638 
L 24.652681 46.9206 
L 25.016002 46.44336 
L 25.379323 47.85048 
L 25.742644 44.74596 
L 26.105965 46.23672 
L 26.469285 44.34252 
L 26.832606 43.41756 
L 27.195927 44.25888 
L 27.559248 43.80624 
L 27.922569 44.23428 
L 28.285889 44.01288 
L 28.64921 43.60452 
L 29.012531 43.85052 
L 29.375852 43.50612 
L 29.739173 43.53072 
L 30.102493 42.35976 
L 30.465814 39.33396 
L 30.829135 39.3192 
L 31.192456 39.18636 
L 31.555777 38.74356 
L 31.919097 38.80752 
L 32.282418 39.2208 
L 32.645739 38.61564 
L 33.00906 38.9994 
L 33.372381 39.00924 
L 33.735701 37.92684 
L 34.099022 37.71528 
L 34.462343 38.17284 
L 34.825664 38.96496 
L 35.188985 38.74848 
L 35.552305 37.71528 
L 35.915626 37.63164 
L 36.278947 34.64028 
L 36.642268 34.69932 
L 37.005588 33.87276 
L 37.368909 34.18764 
L 37.73223 34.73868 
L 38.095551 34.09416 
L 38.458872 34.38444 
L 38.822192 34.33032 
L 39.548834 34.57632 
L 39.912155 33.18396 
L 40.275476 33.38076 
L 40.638796 32.81004 
L 41.002117 31.38816 
L 41.365438 30.45336 
L 41.728759 32.59848 
L 42.09208 32.29344 
L 42.4554 31.78176 
L 42.818721 31.53084 
L 43.182042 31.68336 
L 43.545363 32.28852 
L 44.272004 34.1778 
L 44.635325 33.84324 
L 44.998646 33.3414 
L 45.361967 33.25284 
L 46.088608 33.7842 
L 46.451929 35.34384 
L 46.81525 33.981 
L 47.178571 33.35616 
L 47.541892 33.35124 
L 47.905212 31.09296 
L 48.268533 31.11756 
L 48.631854 31.87524 
L 48.995175 33.20856 
L 49.358496 33.17412 
L 49.721816 33.45456 
L 50.085137 33.4152 
L 50.448458 32.7264 
L 50.811779 33.84816 
L 51.53842 33.84324 
L 52.628383 35.73744 
L 52.991704 33.4398 
L 53.355024 33.20856 
L 53.718345 32.58372 
L 54.081666 32.71164 
L 54.808308 32.53944 
L 55.171628 32.013 
L 55.89827 33.3906 
L 56.261591 31.80144 
L 56.624911 31.41768 
L 56.988232 32.19012 
L 57.351553 32.10156 
L 57.714874 31.60956 
L 58.078195 32.0622 
L 58.441515 31.73748 
L 58.804836 30.56652 
L 59.168157 28.31808 
L 59.531478 27.48168 
L 59.894799 27.55548 
L 60.258119 26.71908 
L 60.62144 26.36484 
L 60.984761 27.42756 
L 61.711403 26.55672 
L 62.074723 27.27504 
L 62.438044 27.31932 
L 62.801365 27.63912 
L 63.164686 27.52596 
L 63.528007 26.3058 
L 63.891327 26.96016 
L 64.254648 27.09792 
L 64.617969 27.49644 
L 64.98129 27.2898 
L 65.344611 26.57148 
L 65.707931 27.27012 
L 66.434573 27.35376 
L 67.161215 29.62188 
L 67.524535 29.96136 
L 67.887856 29.14956 
L 68.251177 28.68216 
L 68.614498 29.184 
L 68.977819 28.7412 
L 69.341139 27.5358 
L 69.70446 27.91956 
L 70.067781 28.00812 
L 70.431102 26.64528 
L 70.794423 26.88636 
L 71.157743 26.1828 
L 71.521064 24.52476 
L 71.884385 27.0684 
L 72.247706 27.59484 
L 72.974347 27.49644 
L 73.337668 28.13112 
L 73.700989 29.8482 
L 74.06431 29.12004 
L 74.427631 30.03024 
L 74.790951 27.84576 
L 75.517593 29.54316 
L 75.880914 31.13232 
L 76.244234 30.31068 
L 76.607555 30.62064 
L 76.970876 29.97612 
L 77.334197 31.97364 
L 77.697518 31.82112 
L 78.060838 32.0868 
L 78.424159 31.63416 
L 78.78748 30.6354 
L 79.150801 30.37464 
L 79.514122 30.86172 
L 79.877442 30.89616 
L 80.240763 31.11756 
L 80.967405 30.22212 
L 81.330726 30.45828 
L 81.694046 29.2578 
L 82.057367 28.50504 
L 82.420688 28.18032 
L 82.784009 28.2738 
L 83.14733 28.569 
L 83.51065 28.55424 
L 83.873971 27.8802 
L 84.237292 28.03272 
L 84.600613 27.69324 
L 84.963934 28.42632 
L 85.327254 28.3968 
L 85.690575 28.60344 
L 86.053896 29.88756 
L 86.417217 30.22212 
L 86.780538 29.58252 
L 87.143858 31.73256 
L 87.507179 31.36356 
L 87.8705 31.39308 
L 88.597142 29.09544 
L 88.960462 29.2332 
L 89.323783 27.02412 
L 90.050425 25.16928 
L 90.413746 25.10532 
L 91.140387 23.92452 
L 91.503708 25.53336 
L 91.867029 24.62808 
L 92.23035 25.4448 
L 92.59367 29.64156 
L 92.956991 30.80268 
L 93.320312 28.65756 
L 93.683633 28.6428 
L 94.410274 30.87156 
L 94.773595 32.17044 
L 95.136916 32.97732 
L 95.500237 32.628 
L 95.863557 31.90476 
L 96.226878 30.92076 
L 96.590199 31.96872 
L 96.95352 32.39676 
L 97.316841 31.19628 
L 98.043482 30.42384 
L 98.406803 29.0118 
L 98.770124 29.15448 
L 99.133445 29.76456 
L 99.496765 31.2012 
L 99.860086 32.09172 
L 100.223407 31.43244 
L 100.950049 30.90108 
L 101.67669 35.35368 
L 102.040011 34.24668 
L 102.403332 35.5062 
L 102.766653 34.48284 
L 103.129973 35.02896 
L 103.493294 33.8334 
L 103.856615 33.243 
L 104.219936 34.69932 
L 104.946577 36.2934 
L 105.309898 38.901 
L 105.673219 38.37948 
L 106.03654 38.92068 
L 106.399861 40.09164 
L 106.763181 39.70788 
L 107.126502 40.4262 
L 107.489823 42.75336 
L 107.853144 43.54548 
L 108.216465 43.72752 
L 108.943106 41.976 
L 109.306427 42.42864 
L 109.669748 40.86408 
L 110.033069 40.47048 
L 111.123031 40.89852 
L 111.486352 42.9354 
L 111.849673 40.43604 
L 112.212993 39.31428 
L 112.576314 40.04244 
L 112.939635 41.43972 
L 113.302956 41.47416 
L 113.666277 41.02152 
L 114.029597 40.7952 
L 114.392918 39.75708 
L 114.756239 40.11132 
L 115.11956 39.87024 
L 115.48288 40.94772 
L 115.846201 40.97232 
L 116.572843 42.87144 
L 116.936164 42.17772 
L 117.299484 43.04364 
L 117.662805 43.34868 
L 118.026126 42.03504 
L 118.752768 41.8038 
L 119.116088 41.84316 
L 119.479409 42.37944 
L 119.84273 42.26628 
L 120.206051 42.468 
L 120.569372 42.42864 
L 120.932692 42.18264 
L 121.296013 42.1728 
L 121.659334 42.50244 
L 122.022655 41.88252 
L 122.385976 42.32532 
L 123.112617 41.13468 
L 123.839259 40.42128 
L 124.20258 39.16176 
L 124.5659 39.28968 
L 124.929221 40.48032 
L 126.019184 40.88376 
L 126.745825 40.53936 
L 127.109146 38.50248 
L 127.472467 37.63656 
L 127.835788 38.34012 
L 128.199108 38.37456 
L 128.562429 38.5812 
L 129.289071 39.8358 
L 129.652392 41.93172 
L 130.015712 41.42004 
L 130.742354 41.39052 
L 131.105675 41.5086 
L 131.468996 42.80256 
L 131.832316 41.93664 
L 132.195637 41.49384 
L 132.558958 41.51352 
L 132.922279 43.78164 
L 133.2856 43.9932 
L 133.64892 46.66968 
L 134.012241 47.55036 
L 134.375562 46.64508 
L 134.971013 48.89352 
L 135.334148 49.84308 
L 135.695913 49.00176 
L 136.067539 49.233 
L 136.427862 48.97716 
L 137.155824 49.36092 
L 137.881048 49.58724 
L 138.24 49.28712 
L 138.24 49.28712 
" clip-path="url(#p336e40fd1a)" style="fill: none; stroke: #f5841e; stroke-width: 0.7; stroke-linecap: round"/>
   </g>
  </g>
 </g>
 <defs>
  <clipPath id="p336e40fd1a">
   <rect x="5.76" y="3.6" width="132.48" height="49.2"/>
  </clipPath>
 </defs>
</svg>
