<?xml version="1.0" encoding="utf-8" standalone="no"?>
<!DOCTYPE svg PUBLIC "-//W3C//DTD SVG 1.1//EN"
  "http://www.w3.org/Graphics/SVG/1.1/DTD/svg11.dtd">
<svg xmlns:xlink="http://www.w3.org/1999/xlink" width="144pt" height="60pt" viewBox="0 0 144 60" xmlns="http://www.w3.org/2000/svg" version="1.1">
  <desc id="nav-meta">{"window":"1y","count":4,"labels":["31.03","30.07","28.11","30.03"],"tick_utc":["2025-03-31T12:00:00Z","2025-07-30T12:00:00Z","2025-11-28T12:00:00Z","2026-03-30T03:51:16Z"]}</desc>

 <metadata>
  <rdf:RDF xmlns:dc="http://purl.org/dc/elements/1.1/" xmlns:cc="http://creativecommons.org/ns#" xmlns:rdf="http://www.w3.org/1999/02/22-rdf-syntax-ns#">
   <cc:Work>
    <dc:type rdf:resource="http://purl.org/dc/dcmitype/StillImage"/>
    <dc:date>2026-03-30T14:10:57.530273</dc:date>
    <dc:format>image/svg+xml</dc:format>
    <dc:creator>
     <cc:Agent>
      <dc:title>Matplotlib v3.10.8, https://matplotlib.org/</dc:title>
     </cc:Agent>
    </dc:creator>
   </cc:Work>
  </rdf:RDF>
 </metadata>
 <defs>
  <style type="text/css">*{stroke-linejoin: round; stroke-linecap: butt}</style>
 </defs>
 <g id="figure_1">
  <g id="patch_1">
   <path d="M 0 60 
L 144 60 
L 144 0 
L 0 0 
L 0 60 
z
" style="fill: none; opacity: 0"/>
  </g>
  <g id="axes_1">
   <g id="patch_2">
    <path d="M 5.76 52.8 
L 138.24 52.8 
L 138.24 3.6 
L 5.76 3.6 
L 5.76 52.8 
z
" style="fill: none"/>
   </g>
   <g id="matplotlib.axis_1"/>
   <g id="matplotlib.axis_2"/>
   <g id="line2d_1">
    <path d="M 5.76 42.96 
L 138.24 42.96 
" clip-path="url(#p1690013e6d)" style="fill: none; stroke: #b2b2b2; stroke-opacity: 0.35; stroke-width: 0.5; stroke-linecap: square"/>
   </g>
   <g id="line2d_2">
    <path d="M 5.76 33.12 
L 138.24 33.12 
" clip-path="url(#p1690013e6d)" style="fill: none; stroke: #b2b2b2; stroke-opacity: 0.35; stroke-width: 0.5; stroke-linecap: square"/>
   </g>
   <g id="line2d_3">
    <path d="M 5.76 23.28 
L 138.24 23.28 
" clip-path="url(#p1690013e6d)" style="fill: none; stroke: #b2b2b2; stroke-opacity: 0.35; stroke-width: 0.5; stroke-linecap: square"/>
   </g>
   <g id="line2d_4">
    <path d="M 5.76 13.44 
L 138.24 13.44 
" clip-path="url(#p1690013e6d)" style="fill: none; stroke: #b2b2b2; stroke-opacity: 0.35; stroke-width: 0.5; stroke-linecap: square"/>
   </g>
   <g id="line2d_5">
    <path d="M 5.76 45.3954 
L 6.124296 45.35604 
L 6.488591 45.10512 
L 6.852887 46.24164 
L 7.217183 46.3548 
L 7.581479 45.63648 
L 7.945774 45.97104 
L 8.31007 47.84556 
L 8.674366 47.71272 
L 9.038661 47.88 
L 9.402957 46.12848 
L 9.767253 46.91568 
L 10.495844 44.40648 
L 10.86014 44.91816 
L 11.224436 44.76564 
L 11.588731 45.16908 
L 11.953027 44.49504 
L 12.317323 44.08668 
L 12.681619 44.17032 
L 13.045914 43.43232 
L 13.774506 43.86528 
L 14.138802 42.23676 
L 14.867393 41.7792 
L 15.96028 42.31056 
L 16.324576 42.345 
L 16.688872 42.5418 
L 17.053167 42.37944 
L 17.417463 41.98584 
L 17.781759 42.345 
L 18.146054 42.49752 
L 18.51035 42.86652 
L 18.874646 42.49752 
L 19.603237 42.44832 
L 19.967533 40.33272 
L 20.331829 39.12732 
L 20.696124 38.52216 
L 21.06042 39.10272 
L 21.424716 38.901 
L 21.789012 37.6464 
L 22.517603 39.639 
L 23.246194 40.008 
L 23.61049 39.27492 
L 23.974786 39.90468 
L 24.339082 39.6882 
L 25.067673 38.22696 
L 25.431969 38.901 
L 25.796264 38.69436 
L 26.524856 38.86164 
L 26.889152 38.62056 
L 27.617743 39.88992 
L 27.982039 41.23308 
L 29.074926 41.17404 
L 29.803517 41.62176 
L 30.167813 42.79272 
L 30.532109 42.30564 
L 31.2607 41.7546 
L 31.624996 40.62792 
L 31.989292 40.131 
L 32.353587 40.6476 
L 32.717883 41.73492 
L 33.446475 42.76812 
L 33.81077 41.73492 
L 34.175066 41.89728 
L 34.539362 42.345 
L 34.903657 42.5664 
L 35.267953 42.46308 
L 35.996545 44.20476 
L 36.36084 44.45076 
L 36.725136 42.7632 
L 37.089432 42.63036 
L 37.453727 42.94524 
L 37.818023 43.52088 
L 38.182319 43.1076 
L 38.546615 41.98092 
L 39.275206 41.43972 
L 39.639502 42.4926 
L 40.003797 41.79888 
L 40.368093 41.78412 
L 40.732389 42.37452 
L 41.096685 42.3942 
L 41.46098 41.83332 
L 41.825276 42.24168 
L 42.189572 41.84316 
L 42.918163 40.2786 
L 43.282459 40.42128 
L 43.646755 40.71648 
L 44.375346 40.48032 
L 44.739642 40.26384 
L 45.103938 38.97972 
L 45.832529 38.51724 
L 46.196825 38.57628 
L 46.56112 38.04492 
L 46.925416 36.03264 
L 47.289712 34.88136 
L 47.654008 36.92316 
L 48.018303 37.8432 
L 48.382599 37.37088 
L 48.746895 37.53324 
L 49.11119 37.056 
L 49.475486 37.77924 
L 49.839782 38.02032 
L 50.204078 38.45328 
L 50.568373 39.1962 
L 50.932669 40.41636 
L 51.296965 40.97232 
L 51.66126 40.53444 
L 52.025556 39.55536 
L 52.389852 40.24908 
L 52.754148 39.7128 
L 53.118443 38.778 
L 53.482739 38.59104 
L 54.21133 37.794 
L 54.575626 38.82228 
L 54.939922 36.53448 
L 55.304218 35.334 
L 56.032809 37.44468 
L 56.397105 36.90348 
L 56.7614 36.65748 
L 57.489992 38.64516 
L 57.854288 37.2282 
L 58.218583 38.14332 
L 58.582879 35.53572 
L 58.947175 35.04372 
L 59.311471 34.80264 
L 59.675766 37.23804 
L 60.768653 33.67104 
L 61.132949 34.90596 
L 62.225836 35.9736 
L 62.590132 34.36476 
L 62.954428 34.1778 
L 63.318723 35.22084 
L 63.683019 35.11752 
L 64.047315 35.54556 
L 65.504498 32.44104 
L 65.868793 31.83096 
L 66.233089 30.06468 
L 66.597385 30.01056 
L 66.961681 30.291 
L 67.325976 31.16184 
L 67.690272 30.74856 
L 68.054568 29.71536 
L 68.418863 29.37588 
L 68.783159 30.57636 
L 69.147455 30.42876 
L 69.511751 30.79284 
L 69.876046 32.91828 
L 70.240342 33.72024 
L 70.604638 34.05972 
L 70.968933 36.5886 
L 71.333229 34.90104 
L 71.697525 35.10276 
L 72.061821 34.16796 
L 72.426116 33.8826 
L 72.790412 34.43364 
L 73.519004 31.05852 
L 73.883299 31.26024 
L 74.247595 31.92936 
L 74.611891 31.85064 
L 74.976186 31.3242 
L 75.340482 32.84448 
L 75.704778 31.78176 
L 76.069074 32.85924 
L 76.433369 36.8838 
L 76.797665 38.39424 
L 77.161961 35.95392 
L 77.526256 34.53696 
L 77.890552 35.20608 
L 78.619144 37.57752 
L 78.983439 37.90716 
L 79.347735 37.18884 
L 79.712031 37.18392 
L 80.076326 36.89364 
L 80.440622 37.42008 
L 80.804918 38.17284 
L 81.169214 36.687 
L 81.533509 36.42132 
L 81.897805 36.34752 
L 82.262101 35.56032 
L 82.626396 35.72268 
L 82.990692 36.29832 
L 83.354988 36.32292 
L 83.719284 37.61688 
L 84.083579 37.2282 
L 84.447875 37.34628 
L 84.812171 37.23804 
L 85.176466 40.008 
L 85.540762 41.36592 
L 85.905058 40.43604 
L 86.269354 41.44956 
L 86.633649 40.53444 
L 86.997945 41.02152 
L 87.362241 40.22448 
L 87.726537 39.79644 
L 88.090832 41.51844 
L 88.455128 41.66604 
L 89.183719 43.51596 
L 89.548015 43.43724 
L 89.912311 43.71276 
L 90.276607 44.59836 
L 90.640902 43.30932 
L 91.733789 44.88372 
L 92.098085 44.99688 
L 92.462381 44.57868 
L 92.826677 43.5996 
L 93.190972 43.51596 
L 93.555268 43.00428 
L 93.919564 43.2798 
L 94.283859 43.71768 
L 95.012451 44.0916 
L 95.376747 45.11004 
L 95.741042 43.55532 
L 96.105338 42.72876 
L 96.833929 44.27364 
L 97.562521 44.47536 
L 97.926817 44.25888 
L 98.291112 43.64388 
L 98.655408 43.84068 
L 99.019704 43.85052 
L 99.383999 44.36712 
L 99.748295 44.26872 
L 100.112591 44.74104 
L 100.476887 44.98704 
L 100.841182 44.84436 
L 101.205478 45.58728 
L 101.569774 46.0596 
L 101.93407 45.18384 
L 103.391252 45.47904 
L 103.755548 45.65616 
L 104.119844 45.98088 
L 104.848435 45.38556 
L 105.212731 45.31668 
L 105.577027 45.58728 
L 105.941322 45.35604 
L 106.305618 45.40032 
L 106.669914 45.11496 
L 107.03421 44.42124 
L 107.762801 44.18508 
L 108.491392 43.24044 
L 108.855688 43.8702 
L 109.219984 43.60944 
L 109.58428 43.92924 
L 109.948575 43.93416 
L 110.312871 43.46184 
L 110.677167 43.5012 
L 111.041462 42.72384 
L 111.405758 42.51228 
L 111.770054 43.08792 
L 112.13435 42.75828 
L 112.498645 42.90096 
L 113.227237 44.2392 
L 113.591532 45.23304 
L 113.955828 44.77548 
L 114.68442 45.04608 
L 115.048715 45.07068 
L 115.413011 46.1334 
L 115.777307 45.4446 
L 116.141603 45.06084 
L 116.505898 45.33144 
L 116.870194 46.30068 
L 117.23449 46.34496 
L 117.598785 47.89476 
L 117.963081 48.26376 
L 118.327377 47.96364 
L 119.288536 50.04972 
L 119.651271 49.24776 
L 121.115099 49.59708 
L 121.478084 49.80372 
L 121.84227 49.86768 
L 122.547258 49.24776 
L 122.934921 49.48392 
L 123.253456 49.37568 
L 123.662935 49.479 
L 124.026788 49.7004 
L 125.119481 49.49376 
L 125.484873 49.98576 
L 125.818393 49.96608 
L 126.212153 49.7004 
L 126.574825 49.27236 
L 126.938429 49.37076 
L 127.298433 49.68072 
L 127.671005 49.25268 
L 128.03154 49.51344 
L 129.124018 49.09032 
L 130.582862 49.58724 
L 130.944818 49.36092 
L 131.6747 49.45932 
L 132.038291 49.16904 
L 132.773367 49.27236 
L 133.138692 48.87384 
L 133.863687 48.70164 
L 134.228084 49.03128 
L 134.588834 49.1592 
L 134.950996 49.08048 
L 135.685891 49.36584 
L 136.438241 48.90828 
L 136.779836 49.05096 
L 137.505404 49.64628 
L 138.24 49.602 
L 138.24 49.602 
" clip-path="url(#p1690013e6d)" style="fill: none; stroke: #bebebe; stroke-width: 0.6; stroke-linecap: round"/>
   </g>
   <g id="line2d_6">
    <path d="M 5.76 45.55284 
L 6.124296 45.41508 
L 6.488591 44.8296 
L 6.852887 45.6168 
L 7.217183 45.45936 
L 7.945774 45.5184 
L 8.31007 47.18136 
L 8.674366 47.3142 
L 9.038661 47.90952 
L 9.402957 46.56144 
L 9.767253 47.54052 
L 10.131549 47.23056 
L 10.495844 46.67952 
L 10.86014 47.03376 
L 11.224436 46.85172 
L 11.588731 47.08788 
L 11.953027 47.16168 
L 12.681619 47.07804 
L 13.045914 46.896 
L 13.41021 47.10756 
L 13.774506 47.16168 
L 14.138802 45.87264 
L 14.503097 45.63156 
L 14.867393 45.80376 
L 15.595984 45.43968 
L 15.96028 45.63156 
L 16.688872 45.61188 
L 17.053167 45.63156 
L 17.417463 45.31176 
L 18.146054 45.3462 
L 18.51035 45.52824 
L 19.238942 45.47412 
L 19.603237 45.51348 
L 19.967533 42.77796 
L 20.331829 41.75952 
L 20.696124 40.04244 
L 21.06042 40.58364 
L 21.424716 40.69188 
L 21.789012 39.38808 
L 22.517603 40.33764 
L 22.881899 40.32288 
L 23.246194 40.81488 
L 23.61049 40.88376 
L 23.974786 40.44588 
L 24.339082 40.46556 
L 24.703377 40.21956 
L 25.067673 39.52584 
L 25.431969 40.49508 
L 26.524856 40.19496 
L 26.889152 39.4914 
L 27.253447 39.38808 
L 27.617743 39.69312 
L 27.982039 40.46556 
L 28.71063 40.36716 
L 29.074926 39.8604 
L 29.439222 39.96372 
L 29.803517 39.85548 
L 30.167813 41.1888 
L 30.896405 40.4508 
L 31.2607 40.5738 
L 31.989292 38.45328 
L 32.353587 38.68452 
L 32.717883 39.55536 
L 33.082179 40.09164 
L 33.446475 40.39668 
L 34.175066 40.2048 
L 34.539362 40.52952 
L 35.267953 40.48032 
L 35.996545 42.26136 
L 36.36084 42.5664 
L 36.725136 41.17404 
L 37.089432 41.0166 
L 37.453727 41.22324 
L 38.182319 41.17896 
L 38.546615 41.08056 
L 38.91091 40.61808 
L 39.275206 40.7214 
L 39.639502 41.30688 
L 40.003797 40.11132 
L 40.368093 39.99816 
L 40.732389 40.56888 
L 41.096685 40.51476 
L 41.46098 40.131 
L 41.825276 40.3278 
L 42.189572 39.81612 
L 42.918163 37.46436 
L 43.282459 37.39056 
L 43.646755 37.50372 
L 44.375346 37.01172 
L 44.739642 36.16056 
L 45.103938 34.4976 
L 45.468233 33.69072 
L 46.196825 32.89368 
L 46.56112 31.73256 
L 46.925416 31.68336 
L 47.289712 31.8162 
L 47.654008 32.64276 
L 48.018303 32.0868 
L 48.746895 31.85064 
L 49.11119 30.98964 
L 49.475486 31.53576 
L 49.839782 31.521 
L 50.204078 31.38816 
L 50.568373 32.17044 
L 50.932669 33.68088 
L 51.296965 34.28604 
L 51.66126 33.58248 
L 52.025556 32.0376 
L 52.389852 32.76576 
L 52.754148 32.259 
L 53.118443 30.65508 
L 53.482739 29.93676 
L 53.847035 28.14588 
L 54.575626 28.40664 
L 54.939922 25.73508 
L 55.304218 24.62316 
L 55.668513 26.10408 
L 56.032809 26.97984 
L 56.397105 27.00936 
L 56.7614 26.58132 
L 57.125696 27.7818 
L 57.489992 29.49888 
L 57.854288 27.68832 
L 58.218583 28.44108 
L 58.582879 24.16068 
L 58.947175 24.55428 
L 59.311471 24.51984 
L 59.675766 27.32916 
L 60.040062 25.7646 
L 60.404358 26.48784 
L 60.768653 26.43372 
L 61.132949 27.44724 
L 61.861541 27.27504 
L 62.225836 27.8802 
L 62.590132 27.72276 
L 62.954428 26.84208 
L 63.318723 27.91956 
L 63.683019 27.8556 
L 64.047315 28.09668 
L 64.411611 27.87528 
L 65.140202 27.83592 
L 65.504498 27.57024 
L 65.868793 26.77812 
L 66.233089 25.01184 
L 66.961681 25.71048 
L 67.325976 26.31564 
L 67.690272 26.45832 
L 68.054568 25.8384 
L 68.418863 25.84824 
L 68.783159 26.6994 
L 69.147455 26.62068 
L 69.511751 26.8224 
L 69.876046 28.61328 
L 70.604638 28.97244 
L 70.968933 30.99456 
L 71.333229 29.76456 
L 71.697525 29.8974 
L 72.061821 29.02164 
L 72.426116 28.50012 
L 72.790412 29.00688 
L 73.519004 26.601 
L 73.883299 26.3796 
L 74.247595 26.5764 
L 74.611891 26.3796 
L 74.976186 25.1496 
L 75.340482 26.81256 
L 75.704778 26.29596 
L 76.069074 27.41772 
L 76.433369 31.19136 
L 76.797665 31.80144 
L 77.161961 28.89864 
L 77.526256 28.28364 
L 78.619144 30.80268 
L 78.983439 31.22088 
L 79.347735 30.8076 
L 79.712031 30.13356 
L 80.076326 30.17784 
L 80.804918 31.42752 
L 81.169214 31.04376 
L 81.533509 30.49764 
L 81.897805 30.3648 
L 82.262101 28.88388 
L 82.626396 29.15448 
L 82.990692 30.15324 
L 83.719284 31.4226 
L 84.447875 30.9306 
L 84.812171 30.66 
L 85.540762 34.99944 
L 85.905058 34.07448 
L 86.269354 34.9158 
L 86.633649 34.02528 
L 86.997945 34.26144 
L 87.362241 33.0216 
L 87.726537 33.10524 
L 88.090832 34.1532 
L 88.455128 34.2024 
L 89.183719 36.34752 
L 89.548015 35.89488 
L 90.276607 36.94776 
L 90.640902 36.2688 
L 91.005198 36.97236 
L 91.369494 38.286 
L 91.733789 38.76324 
L 92.098085 38.73864 
L 92.462381 38.51724 
L 92.826677 37.42992 
L 93.190972 37.42008 
L 93.555268 36.90348 
L 93.919564 36.98712 
L 94.283859 36.86412 
L 94.648155 37.16424 
L 95.012451 37.14948 
L 95.376747 38.52216 
L 96.105338 35.71776 
L 96.469634 36.15564 
L 96.833929 36.93792 
L 97.562521 36.72636 
L 97.926817 36.21468 
L 98.291112 34.8174 
L 98.655408 34.7928 
L 99.019704 35.42748 
L 99.383999 36.49512 
L 99.748295 36.28356 
L 100.112591 36.6378 
L 100.476887 37.3512 
L 100.841182 37.3512 
L 101.205478 38.31552 
L 101.569774 38.32536 
L 101.93407 37.26264 
L 102.298365 37.26264 
L 102.662661 37.09044 
L 103.026957 37.06092 
L 103.391252 37.34628 
L 103.755548 37.48404 
L 104.119844 37.77924 
L 104.848435 37.45944 
L 105.577027 37.56276 
L 105.941322 37.31184 
L 106.305618 37.33644 
L 106.669914 37.09536 
L 107.03421 36.23928 
L 107.762801 36.11628 
L 108.491392 35.0142 
L 108.855688 35.93424 
L 109.219984 36.36228 
L 109.58428 36.50988 
L 109.948575 36.5148 
L 110.312871 36.25404 
L 110.677167 36.46068 
L 111.041462 34.83708 
L 111.405758 34.57632 
L 112.13435 35.00436 
L 112.498645 34.93056 
L 112.862941 35.088 
L 113.227237 35.78664 
L 113.591532 37.55292 
L 113.955828 37.26756 
L 114.320124 37.46436 
L 115.048715 37.45944 
L 115.413011 38.41392 
L 116.141603 36.95268 
L 116.505898 37.05108 
L 116.870194 38.37948 
L 117.23449 39.20604 
L 117.598785 41.03136 
L 117.963081 42.26628 
L 118.327377 41.73492 
L 118.634924 42.23676 
L 119.288536 44.89356 
L 119.651271 43.6242 
L 120.385184 43.53072 
L 120.751558 43.72752 
L 121.478084 44.436 
L 121.84227 44.49012 
L 122.202185 43.81608 
L 122.547258 43.7226 
L 122.934921 44.5344 
L 123.253456 44.19 
L 123.662935 44.21952 
L 124.388954 44.51472 
L 125.119481 44.3868 
L 125.484873 45.174 
L 125.818393 45.23796 
L 126.212153 44.81484 
L 126.574825 43.821 
L 126.938429 44.01288 
L 127.298433 44.66232 
L 127.671005 43.93908 
L 128.03154 44.39664 
L 128.396683 44.12112 
L 128.758938 44.33268 
L 129.124018 43.3044 
L 129.488141 43.6242 
L 129.849641 44.29824 
L 130.217475 44.53932 
L 130.582862 44.30808 
L 130.944818 43.8702 
L 131.30897 44.00304 
L 131.6747 43.97844 
L 132.038291 43.41756 
L 132.773367 43.48644 
L 133.496613 41.73984 
L 133.863687 41.7546 
L 134.588834 43.14204 
L 134.950996 43.083 
L 135.320739 43.35852 
L 135.685891 43.78164 
L 136.046813 43.21584 
L 136.438241 42.9354 
L 136.779836 43.10268 
L 137.505404 44.25396 
L 138.24 43.9194 
L 138.24 43.9194 
" clip-path="url(#p1690013e6d)" style="fill: none; stroke: #4a8dff; stroke-width: 0.6; stroke-linecap: round"/>
   </g>
   <g id="line2d_7">
    <path d="M 5.76 44.87388 
L 6.124296 44.79516 
L 6.488591 43.452 
L 6.852887 44.79024 
L 7.581479 44.13588 
L 7.945774 44.2638 
L 8.31007 46.9206 
L 8.674366 46.44336 
L 9.038661 47.85048 
L 9.402957 44.74596 
L 9.767253 46.23672 
L 10.131549 44.34252 
L 10.495844 43.41756 
L 10.86014 44.25888 
L 11.224436 43.80624 
L 11.588731 44.23428 
L 11.953027 44.01288 
L 12.317323 43.60452 
L 12.681619 43.85052 
L 13.045914 43.50612 
L 13.41021 43.53072 
L 13.774506 42.35976 
L 14.138802 39.33396 
L 14.503097 39.3192 
L 14.867393 39.18636 
L 15.231689 38.74356 
L 15.595984 38.80752 
L 15.96028 39.2208 
L 16.324576 38.61564 
L 16.688872 38.9994 
L 17.053167 39.00924 
L 17.417463 37.92684 
L 17.781759 37.71528 
L 18.146054 38.17284 
L 18.51035 38.96496 
L 18.874646 38.74848 
L 19.238942 37.71528 
L 19.603237 37.63164 
L 19.967533 34.64028 
L 20.331829 34.69932 
L 20.696124 33.87276 
L 21.06042 34.18764 
L 21.424716 34.73868 
L 21.789012 34.09416 
L 22.153307 34.38444 
L 22.517603 34.33032 
L 23.246194 34.57632 
L 23.61049 33.18396 
L 23.974786 33.38076 
L 24.339082 32.81004 
L 24.703377 31.38816 
L 25.067673 30.45336 
L 25.431969 32.59848 
L 25.796264 32.29344 
L 26.16056 31.78176 
L 26.524856 31.53084 
L 26.889152 31.68336 
L 27.253447 32.28852 
L 27.982039 34.1778 
L 28.346335 33.84324 
L 28.71063 33.3414 
L 29.074926 33.25284 
L 29.803517 33.7842 
L 30.167813 35.34384 
L 30.532109 33.981 
L 30.896405 33.35616 
L 31.2607 33.35124 
L 31.624996 31.09296 
L 31.989292 31.11756 
L 32.353587 31.87524 
L 32.717883 33.20856 
L 33.082179 33.17412 
L 33.446475 33.45456 
L 33.81077 33.4152 
L 34.175066 32.7264 
L 34.539362 33.84816 
L 35.267953 33.84324 
L 36.36084 35.73744 
L 36.725136 33.4398 
L 37.089432 33.20856 
L 37.453727 32.58372 
L 37.818023 32.71164 
L 38.546615 32.53944 
L 38.91091 32.013 
L 39.639502 33.3906 
L 40.003797 31.80144 
L 40.368093 31.41768 
L 40.732389 32.19012 
L 41.096685 32.10156 
L 41.46098 31.60956 
L 41.825276 32.0622 
L 42.189572 31.73748 
L 42.553868 30.56652 
L 42.918163 28.31808 
L 43.282459 27.48168 
L 43.646755 27.55548 
L 44.01105 26.71908 
L 44.375346 26.36484 
L 44.739642 27.42756 
L 45.468233 26.55672 
L 45.832529 27.27504 
L 46.196825 27.31932 
L 46.56112 27.63912 
L 46.925416 27.52596 
L 47.289712 26.3058 
L 47.654008 26.96016 
L 48.018303 27.09792 
L 48.382599 27.49644 
L 48.746895 27.2898 
L 49.11119 26.57148 
L 49.475486 27.27012 
L 50.204078 27.35376 
L 50.932669 29.62188 
L 51.296965 29.96136 
L 51.66126 29.14956 
L 52.025556 28.68216 
L 52.389852 29.184 
L 52.754148 28.7412 
L 53.118443 27.5358 
L 53.482739 27.91956 
L 53.847035 28.00812 
L 54.21133 26.64528 
L 54.575626 26.88636 
L 54.939922 26.1828 
L 55.304218 24.52476 
L 55.668513 27.0684 
L 56.032809 27.59484 
L 56.7614 27.49644 
L 57.125696 28.13112 
L 57.489992 29.8482 
L 57.854288 29.12004 
L 58.218583 30.03024 
L 58.582879 27.84576 
L 59.311471 29.54316 
L 59.675766 31.13232 
L 60.040062 30.31068 
L 60.404358 30.62064 
L 60.768653 29.97612 
L 61.132949 31.97364 
L 61.497245 31.82112 
L 61.861541 32.0868 
L 62.225836 31.63416 
L 62.590132 30.6354 
L 62.954428 30.37464 
L 63.318723 30.86172 
L 63.683019 30.89616 
L 64.047315 31.11756 
L 64.775906 30.22212 
L 65.140202 30.45828 
L 65.504498 29.2578 
L 65.868793 28.50504 
L 66.233089 28.18032 
L 66.597385 28.2738 
L 66.961681 28.569 
L 67.325976 28.55424 
L 67.690272 27.8802 
L 68.054568 28.03272 
L 68.418863 27.69324 
L 68.783159 28.42632 
L 69.147455 28.3968 
L 69.511751 28.60344 
L 69.876046 29.88756 
L 70.240342 30.22212 
L 70.604638 29.58252 
L 70.968933 31.73256 
L 71.333229 31.36356 
L 71.697525 31.39308 
L 72.426116 29.09544 
L 72.790412 29.2332 
L 73.154708 27.02412 
L 73.883299 25.16928 
L 74.247595 25.10532 
L 74.976186 23.92452 
L 75.340482 25.53336 
L 75.704778 24.62808 
L 76.069074 25.4448 
L 76.433369 29.64156 
L 76.797665 30.80268 
L 77.161961 28.65756 
L 77.526256 28.6428 
L 78.254848 30.87156 
L 78.619144 32.17044 
L 78.983439 32.97732 
L 79.347735 32.628 
L 79.712031 31.90476 
L 80.076326 30.92076 
L 80.440622 31.96872 
L 80.804918 32.39676 
L 81.169214 31.19628 
L 81.897805 30.42384 
L 82.262101 29.0118 
L 82.626396 29.15448 
L 82.990692 29.76456 
L 83.354988 31.2012 
L 83.719284 32.09172 
L 84.083579 31.43244 
L 84.812171 30.90108 
L 85.540762 35.35368 
L 85.905058 34.24668 
L 86.269354 35.5062 
L 86.633649 34.48284 
L 86.997945 35.02896 
L 87.362241 33.8334 
L 87.726537 33.243 
L 88.090832 34.69932 
L 88.819424 36.2934 
L 89.183719 38.901 
L 89.548015 38.37948 
L 89.912311 38.92068 
L 90.276607 40.09164 
L 90.640902 39.70788 
L 91.005198 40.4262 
L 91.369494 42.75336 
L 91.733789 43.54548 
L 92.098085 43.72752 
L 92.826677 41.976 
L 93.190972 42.42864 
L 93.555268 40.86408 
L 93.919564 40.47048 
L 95.012451 40.89852 
L 95.376747 42.9354 
L 95.741042 40.43604 
L 96.105338 39.31428 
L 96.469634 40.04244 
L 96.833929 41.43972 
L 97.198225 41.47416 
L 97.562521 41.02152 
L 97.926817 40.7952 
L 98.291112 39.75708 
L 98.655408 40.11132 
L 99.019704 39.87024 
L 99.383999 40.94772 
L 99.748295 40.97232 
L 100.476887 42.87144 
L 100.841182 42.17772 
L 101.205478 43.04364 
L 101.569774 43.34868 
L 101.93407 42.03504 
L 102.662661 41.8038 
L 103.026957 41.84316 
L 103.391252 42.37944 
L 103.755548 42.26628 
L 104.119844 42.468 
L 104.48414 42.42864 
L 104.848435 42.18264 
L 105.212731 42.1728 
L 105.577027 42.50244 
L 105.941322 41.88252 
L 106.305618 42.32532 
L 107.03421 41.13468 
L 107.762801 40.42128 
L 108.127097 39.16176 
L 108.491392 39.28968 
L 108.855688 40.48032 
L 109.948575 40.88376 
L 110.677167 40.53936 
L 111.041462 38.50248 
L 111.405758 37.63656 
L 111.770054 38.34012 
L 112.13435 38.37456 
L 112.498645 38.5812 
L 113.227237 39.8358 
L 113.591532 41.93172 
L 113.955828 41.42004 
L 114.68442 41.39052 
L 115.048715 41.5086 
L 115.413011 42.80256 
L 115.777307 41.93664 
L 116.141603 41.49384 
L 116.505898 41.51352 
L 116.870194 43.78164 
L 117.23449 43.9932 
L 117.598785 46.66968 
L 117.963081 47.55036 
L 118.327377 46.64508 
L 118.924425 48.89352 
L 119.288536 49.84308 
L 119.651271 49.00176 
L 120.023894 49.233 
L 120.385184 48.97716 
L 121.115099 49.36092 
L 121.84227 49.58724 
L 122.202185 49.28712 
L 122.547258 49.16904 
L 122.934921 49.39044 
L 123.253456 49.29696 
L 124.026788 49.55772 
L 125.119481 49.41996 
L 125.484873 49.8234 
L 125.818393 49.86768 
L 126.212153 49.72992 
L 126.574825 49.39536 
L 127.298433 49.6758 
L 127.671005 49.47408 
L 128.03154 49.60692 
L 128.396683 49.37568 
L 128.758938 49.36584 
L 129.124018 48.6672 
L 130.217475 49.54788 
L 130.582862 49.5282 
L 130.944818 49.09032 
L 131.6747 49.2084 
L 132.038291 48.93288 
L 132.773367 48.89844 
L 133.496613 48.1998 
L 133.863687 48.28344 
L 134.228084 48.88368 
L 134.588834 49.04604 
L 134.950996 49.00176 
L 135.685891 49.38552 
L 136.046813 49.04112 
L 136.438241 48.92796 
L 136.779836 48.987 
L 137.505404 49.66104 
L 138.24 49.53312 
L 138.24 49.53312 
" clip-path="url(#p1690013e6d)" style="fill: none; stroke: #f5841e; stroke-width: 0.7; stroke-linecap: round"/>
   </g>
  </g>
 </g>
 <defs>
  <clipPath id="p1690013e6d">
   <rect x="5.76" y="3.6" width="132.48" height="49.2"/>
  </clipPath>
 </defs>
</svg>
