<?xml version="1.0" encoding="utf-8" standalone="no"?>
<!DOCTYPE svg PUBLIC "-//W3C//DTD SVG 1.1//EN"
  "http://www.w3.org/Graphics/SVG/1.1/DTD/svg11.dtd">
<svg xmlns:xlink="http://www.w3.org/1999/xlink" width="144pt" height="60pt" viewBox="0 0 144 60" xmlns="http://www.w3.org/2000/svg" version="1.1">
  <desc id="nav-meta">{"window":"6m","count":4,"labels":["22.10","21.12","18.02","19.04"],"tick_utc":["2025-10-22T12:00:00Z","2025-12-21T12:00:00Z","2026-02-18T03:30:34Z","2026-04-19T03:58:52Z"]}</desc>

 <metadata>
  <rdf:RDF xmlns:dc="http://purl.org/dc/elements/1.1/" xmlns:cc="http://creativecommons.org/ns#" xmlns:rdf="http://www.w3.org/1999/02/22-rdf-syntax-ns#">
   <cc:Work>
    <dc:type rdf:resource="http://purl.org/dc/dcmitype/StillImage"/>
    <dc:date>2026-04-19T13:46:07.450661</dc:date>
    <dc:format>image/svg+xml</dc:format>
    <dc:creator>
     <cc:Agent>
      <dc:title>Matplotlib v3.10.8, https://matplotlib.org/</dc:title>
     </cc:Agent>
    </dc:creator>
   </cc:Work>
  </rdf:RDF>
 </metadata>
 <defs>
  <style type="text/css">*{stroke-linejoin: round; stroke-linecap: butt}</style>
 </defs>
 <g id="figure_1">
  <g id="patch_1">
   <path d="M 0 60 
L 144 60 
L 144 0 
L 0 0 
L 0 60 
z
" style="fill: none; opacity: 0"/>
  </g>
  <g id="axes_1">
   <g id="patch_2">
    <path d="M 5.76 52.8 
L 138.24 52.8 
L 138.24 3.6 
L 5.76 3.6 
L 5.76 52.8 
z
" style="fill: none"/>
   </g>
   <g id="matplotlib.axis_1"/>
   <g id="matplotlib.axis_2"/>
   <g id="line2d_1">
    <path d="M 5.76 42.96 
L 138.24 42.96 
" clip-path="url(#p6b6679c8cb)" style="fill: none; stroke: #b2b2b2; stroke-opacity: 0.35; stroke-width: 0.5; stroke-linecap: square"/>
   </g>
   <g id="line2d_2">
    <path d="M 5.76 33.12 
L 138.24 33.12 
" clip-path="url(#p6b6679c8cb)" style="fill: none; stroke: #b2b2b2; stroke-opacity: 0.35; stroke-width: 0.5; stroke-linecap: square"/>
   </g>
   <g id="line2d_3">
    <path d="M 5.76 23.28 
L 138.24 23.28 
" clip-path="url(#p6b6679c8cb)" style="fill: none; stroke: #b2b2b2; stroke-opacity: 0.35; stroke-width: 0.5; stroke-linecap: square"/>
   </g>
   <g id="line2d_4">
    <path d="M 5.76 13.44 
L 138.24 13.44 
" clip-path="url(#p6b6679c8cb)" style="fill: none; stroke: #b2b2b2; stroke-opacity: 0.35; stroke-width: 0.5; stroke-linecap: square"/>
   </g>
   <g id="line2d_5">
    <path d="M 5.76 37.42008 
L 6.501496 38.17284 
L 7.242992 36.687 
L 7.984487 36.42132 
L 8.725983 36.34752 
L 9.467479 35.56032 
L 10.208975 35.72268 
L 10.950471 36.29832 
L 11.691966 36.32292 
L 12.433462 37.61688 
L 13.174958 37.2282 
L 13.916454 37.34628 
L 14.65795 37.23804 
L 15.399445 40.008 
L 16.140941 41.36592 
L 16.882437 40.43604 
L 17.623933 41.44956 
L 18.365429 40.53444 
L 19.106924 41.02152 
L 19.84842 40.22448 
L 20.589916 39.79644 
L 21.331412 41.51844 
L 22.072908 41.66604 
L 22.814403 42.714 
L 23.555899 43.51596 
L 24.297395 43.43724 
L 25.038891 43.71276 
L 25.780387 44.59836 
L 26.521883 43.30932 
L 27.263378 43.85052 
L 28.004874 44.21952 
L 28.74637 44.88372 
L 29.487866 44.99688 
L 30.229362 44.57868 
L 30.970857 43.5996 
L 31.712353 43.51596 
L 32.453849 43.00428 
L 33.195345 43.2798 
L 33.936841 43.71768 
L 35.419832 44.0916 
L 36.161328 45.11004 
L 36.902824 43.55532 
L 37.64432 42.72876 
L 39.127311 44.27364 
L 40.610303 44.47536 
L 41.351799 44.25888 
L 42.093294 43.64388 
L 42.83479 43.84068 
L 43.576286 43.85052 
L 44.317782 44.36712 
L 45.059278 44.26872 
L 45.800773 44.74104 
L 46.542269 44.98704 
L 47.283765 44.84436 
L 48.025261 45.58728 
L 48.766757 46.0596 
L 49.508252 45.18384 
L 52.474236 45.47904 
L 53.215731 45.65616 
L 53.957227 45.98088 
L 55.440219 45.38556 
L 56.181715 45.31668 
L 56.92321 45.58728 
L 57.664706 45.35604 
L 58.406202 45.40032 
L 59.147698 45.11496 
L 59.889194 44.42124 
L 61.372185 44.18508 
L 62.113681 43.62912 
L 62.855177 43.24044 
L 63.596673 43.8702 
L 64.338168 43.60944 
L 65.079664 43.92924 
L 65.82116 43.93416 
L 66.562656 43.46184 
L 67.304152 43.5012 
L 68.045648 42.72384 
L 68.787143 42.51228 
L 69.528639 43.08792 
L 70.270135 42.75828 
L 71.011631 42.90096 
L 72.494622 44.2392 
L 73.236118 45.23304 
L 73.977614 44.77548 
L 75.460606 45.04608 
L 76.202101 45.07068 
L 76.943597 46.1334 
L 77.685093 45.4446 
L 78.426589 45.06084 
L 79.168085 45.33144 
L 79.90958 46.30068 
L 80.651076 46.34496 
L 81.392572 47.89476 
L 82.134068 48.26376 
L 82.875564 47.96364 
L 84.09081 49.06572 
L 84.831928 50.04972 
L 85.570249 49.24776 
L 88.549757 49.59708 
L 89.288584 49.80372 
L 90.029857 49.86768 
L 90.762436 49.479 
L 91.464806 49.24776 
L 92.253863 49.48392 
L 92.902217 49.37568 
L 93.735679 49.479 
L 94.476274 49.7004 
L 96.700367 49.49376 
L 97.444094 49.98576 
L 98.122949 49.96608 
L 98.924416 49.7004 
L 99.662608 49.27236 
L 100.402696 49.37076 
L 101.135456 49.68072 
L 101.893798 49.25268 
L 102.627639 49.51344 
L 104.851294 49.09032 
L 107.07694 49.64628 
L 107.820658 49.58724 
L 108.557391 49.36092 
L 110.043009 49.45932 
L 110.783071 49.16904 
L 112.279262 49.27236 
L 113.022852 48.87384 
L 114.498523 48.70164 
L 115.240225 49.03128 
L 115.974503 49.1592 
L 116.711656 49.08048 
L 118.207478 49.36584 
L 119.73883 48.90828 
L 120.43412 49.05096 
L 121.910958 49.64628 
L 124.890844 49.59708 
L 125.622574 49.8726 
L 127.100064 49.80864 
L 129.332816 49.83816 
L 130.075513 49.50852 
L 130.814426 49.68564 
L 132.292903 49.48884 
L 133.047701 49.6512 
L 133.792999 49.69056 
L 134.529775 49.40028 
L 135.270704 49.58724 
L 137.488712 49.19856 
L 138.24 49.43472 
L 138.24 49.43472 
" clip-path="url(#p6b6679c8cb)" style="fill: none; stroke: #bebebe; stroke-width: 0.6; stroke-linecap: round"/>
   </g>
   <g id="line2d_6">
    <path d="M 5.76 30.89124 
L 6.501496 31.42752 
L 7.242992 31.04376 
L 7.984487 30.49764 
L 8.725983 30.3648 
L 9.467479 28.88388 
L 10.208975 29.15448 
L 10.950471 30.15324 
L 12.433462 31.4226 
L 13.174958 31.10772 
L 14.65795 30.66 
L 16.140941 34.99944 
L 16.882437 34.07448 
L 17.623933 34.9158 
L 18.365429 34.02528 
L 19.106924 34.26144 
L 19.84842 33.0216 
L 20.589916 33.10524 
L 21.331412 34.1532 
L 22.072908 34.2024 
L 22.814403 35.4324 
L 23.555899 36.34752 
L 24.297395 35.89488 
L 25.780387 36.94776 
L 26.521883 36.2688 
L 27.263378 36.97236 
L 28.004874 38.286 
L 28.74637 38.76324 
L 29.487866 38.73864 
L 30.229362 38.51724 
L 30.970857 37.42992 
L 31.712353 37.42008 
L 32.453849 36.90348 
L 33.195345 36.98712 
L 33.936841 36.86412 
L 34.678336 37.16424 
L 35.419832 37.14948 
L 36.161328 38.52216 
L 37.64432 35.71776 
L 38.385815 36.15564 
L 39.127311 36.93792 
L 40.610303 36.72636 
L 41.351799 36.21468 
L 42.093294 34.8174 
L 42.83479 34.7928 
L 43.576286 35.42748 
L 44.317782 36.49512 
L 45.059278 36.28356 
L 45.800773 36.6378 
L 46.542269 37.3512 
L 47.283765 37.3512 
L 48.025261 38.31552 
L 48.766757 38.32536 
L 49.508252 37.26264 
L 50.249748 37.26264 
L 50.991244 37.09044 
L 51.73274 37.06092 
L 52.474236 37.34628 
L 53.215731 37.48404 
L 53.957227 37.77924 
L 55.440219 37.45944 
L 56.92321 37.56276 
L 57.664706 37.31184 
L 58.406202 37.33644 
L 59.147698 37.09536 
L 59.889194 36.23928 
L 61.372185 36.11628 
L 62.113681 35.48652 
L 62.855177 35.0142 
L 63.596673 35.93424 
L 64.338168 36.36228 
L 65.079664 36.50988 
L 65.82116 36.5148 
L 66.562656 36.25404 
L 67.304152 36.46068 
L 68.045648 34.83708 
L 68.787143 34.57632 
L 70.270135 35.00436 
L 71.011631 34.93056 
L 71.753127 35.088 
L 72.494622 35.78664 
L 73.236118 37.55292 
L 73.977614 37.26756 
L 74.71911 37.46436 
L 76.202101 37.45944 
L 76.943597 38.41392 
L 78.426589 36.95268 
L 79.168085 37.05108 
L 79.90958 38.37948 
L 80.651076 39.20604 
L 81.392572 41.03136 
L 82.134068 42.26628 
L 82.875564 41.73492 
L 83.501553 42.23676 
L 84.831928 44.89356 
L 85.570249 43.6242 
L 87.064071 43.53072 
L 87.809798 43.72752 
L 89.288584 44.436 
L 90.029857 44.49012 
L 90.762436 43.81608 
L 91.464806 43.7226 
L 92.253863 44.5344 
L 92.902217 44.19 
L 93.735679 44.21952 
L 95.213436 44.51472 
L 96.700367 44.3868 
L 97.444094 45.174 
L 98.122949 45.23796 
L 98.924416 44.81484 
L 99.662608 43.821 
L 100.402696 44.01288 
L 101.135456 44.66232 
L 101.893798 43.93908 
L 102.627639 44.39664 
L 103.370859 44.12112 
L 104.108202 44.33268 
L 104.851294 43.3044 
L 105.592438 43.6242 
L 106.328243 44.29824 
L 107.07694 44.53932 
L 107.820658 44.30808 
L 108.557391 43.8702 
L 109.298595 44.00304 
L 110.043009 43.97844 
L 110.783071 43.41756 
L 112.279262 43.48644 
L 113.022852 42.49752 
L 113.751372 41.73984 
L 114.498523 41.7546 
L 115.240225 42.591 
L 115.974503 43.14204 
L 116.711656 43.083 
L 117.46424 43.35852 
L 118.207478 43.78164 
L 118.942108 43.21584 
L 119.73883 42.9354 
L 120.43412 43.10268 
L 121.910958 44.25396 
L 124.142989 43.74228 
L 124.890844 43.46676 
L 126.364919 43.79148 
L 127.852725 43.77672 
L 128.596135 43.2552 
L 129.332816 43.40772 
L 130.075513 42.49752 
L 130.814426 42.90588 
L 131.562744 42.8616 
L 132.292903 42.41388 
L 133.792999 42.79764 
L 134.529775 41.57256 
L 135.270704 41.86284 
L 136.01541 41.63652 
L 136.755395 41.85792 
L 137.488712 41.22324 
L 138.24 41.76936 
L 138.24 41.76936 
" clip-path="url(#p6b6679c8cb)" style="fill: none; stroke: #4a8dff; stroke-width: 0.6; stroke-linecap: round"/>
   </g>
   <g id="line2d_7">
    <path d="M 5.76 31.96872 
L 6.501496 32.39676 
L 7.242992 31.19628 
L 7.984487 30.72888 
L 8.725983 30.42384 
L 9.467479 29.0118 
L 10.208975 29.15448 
L 10.950471 29.76456 
L 11.691966 31.2012 
L 12.433462 32.09172 
L 13.174958 31.43244 
L 14.65795 30.90108 
L 15.399445 32.93796 
L 16.140941 35.35368 
L 16.882437 34.24668 
L 17.623933 35.5062 
L 18.365429 34.48284 
L 19.106924 35.02896 
L 19.84842 33.8334 
L 20.589916 33.243 
L 21.331412 34.69932 
L 22.072908 35.4078 
L 22.814403 36.2934 
L 23.555899 38.901 
L 24.297395 38.37948 
L 25.038891 38.92068 
L 25.780387 40.09164 
L 26.521883 39.70788 
L 27.263378 40.4262 
L 28.004874 42.75336 
L 28.74637 43.54548 
L 29.487866 43.72752 
L 30.229362 42.6894 
L 30.970857 41.976 
L 31.712353 42.42864 
L 32.453849 40.86408 
L 33.195345 40.47048 
L 35.419832 40.89852 
L 36.161328 42.9354 
L 36.902824 40.43604 
L 37.64432 39.31428 
L 38.385815 40.04244 
L 39.127311 41.43972 
L 39.868807 41.47416 
L 40.610303 41.02152 
L 41.351799 40.7952 
L 42.093294 39.75708 
L 42.83479 40.11132 
L 43.576286 39.87024 
L 44.317782 40.94772 
L 45.059278 40.97232 
L 46.542269 42.87144 
L 47.283765 42.17772 
L 48.025261 43.04364 
L 48.766757 43.34868 
L 49.508252 42.03504 
L 50.991244 41.8038 
L 51.73274 41.84316 
L 52.474236 42.37944 
L 53.215731 42.26628 
L 53.957227 42.468 
L 54.698723 42.42864 
L 55.440219 42.18264 
L 56.181715 42.1728 
L 56.92321 42.50244 
L 57.664706 41.88252 
L 58.406202 42.32532 
L 59.889194 41.13468 
L 61.372185 40.42128 
L 62.113681 39.16176 
L 62.855177 39.28968 
L 63.596673 40.48032 
L 65.82116 40.88376 
L 67.304152 40.53936 
L 68.045648 38.50248 
L 68.787143 37.63656 
L 69.528639 38.34012 
L 70.270135 38.37456 
L 71.011631 38.5812 
L 72.494622 39.8358 
L 73.236118 41.93172 
L 73.977614 41.42004 
L 75.460606 41.39052 
L 76.202101 41.5086 
L 76.943597 42.80256 
L 77.685093 41.93664 
L 78.426589 41.49384 
L 79.168085 41.51352 
L 79.90958 43.78164 
L 80.651076 43.9932 
L 81.392572 46.66968 
L 82.134068 47.55036 
L 82.875564 46.64508 
L 84.09081 48.89352 
L 84.831928 49.84308 
L 85.570249 49.00176 
L 86.328694 49.233 
L 87.064071 48.97716 
L 88.549757 49.36092 
L 90.029857 49.58724 
L 90.762436 49.28712 
L 91.464806 49.16904 
L 92.253863 49.39044 
L 92.902217 49.29696 
L 94.476274 49.55772 
L 96.700367 49.41996 
L 97.444094 49.8234 
L 98.122949 49.86768 
L 98.924416 49.72992 
L 99.662608 49.39536 
L 101.135456 49.6758 
L 101.893798 49.47408 
L 102.627639 49.60692 
L 103.370859 49.37568 
L 104.108202 49.36584 
L 104.851294 48.6672 
L 105.592438 48.95256 
L 106.328243 49.36092 
L 107.07694 49.54788 
L 107.820658 49.5282 
L 108.557391 49.09032 
L 110.043009 49.2084 
L 110.783071 48.93288 
L 112.279262 48.89844 
L 113.022852 48.48024 
L 113.751372 48.1998 
L 114.498523 48.28344 
L 115.240225 48.88368 
L 115.974503 49.04604 
L 116.711656 49.00176 
L 118.207478 49.38552 
L 118.942108 49.04112 
L 119.73883 48.92796 
L 120.43412 48.987 
L 121.910958 49.66104 
L 124.890844 49.40028 
L 125.622574 49.56756 
L 127.100064 49.56264 
L 127.852725 49.53312 
L 128.596135 49.25268 
L 129.332816 49.29696 
L 130.075513 48.89352 
L 130.814426 48.96732 
L 132.292903 48.5934 
L 133.047701 48.84432 
L 133.792999 48.95748 
L 134.529775 48.30804 
L 135.270704 48.34248 
L 136.01541 48.21456 
L 136.755395 48.26376 
L 137.488712 47.41752 
L 138.24 48.05712 
L 138.24 48.05712 
" clip-path="url(#p6b6679c8cb)" style="fill: none; stroke: #f5841e; stroke-width: 0.7; stroke-linecap: round"/>
   </g>
  </g>
 </g>
 <defs>
  <clipPath id="p6b6679c8cb">
   <rect x="5.76" y="3.6" width="132.48" height="49.2"/>
  </clipPath>
 </defs>
</svg>
