<?xml version="1.0" encoding="utf-8" standalone="no"?>
<!DOCTYPE svg PUBLIC "-//W3C//DTD SVG 1.1//EN"
  "http://www.w3.org/Graphics/SVG/1.1/DTD/svg11.dtd">
<svg xmlns:xlink="http://www.w3.org/1999/xlink" width="144pt" height="60pt" viewBox="0 0 144 60" xmlns="http://www.w3.org/2000/svg" version="1.1">
  <desc id="nav-meta">{"window":"2w","count":4,"labels":["10 Jan","16 Jan","22 Jan","24 Jan"],"idxs":[0,45,91,136]}</desc>

 <metadata>
  <rdf:RDF xmlns:dc="http://purl.org/dc/elements/1.1/" xmlns:cc="http://creativecommons.org/ns#" xmlns:rdf="http://www.w3.org/1999/02/22-rdf-syntax-ns#">
   <cc:Work>
    <dc:type rdf:resource="http://purl.org/dc/dcmitype/StillImage"/>
    <dc:date>2026-01-24T00:24:44.014546</dc:date>
    <dc:format>image/svg+xml</dc:format>
    <dc:creator>
     <cc:Agent>
      <dc:title>Matplotlib v3.10.8, https://matplotlib.org/</dc:title>
     </cc:Agent>
    </dc:creator>
   </cc:Work>
  </rdf:RDF>
 </metadata>
 <defs>
  <style type="text/css">*{stroke-linejoin: round; stroke-linecap: butt}</style>
 </defs>
 <g id="figure_1">
  <g id="patch_1">
   <path d="M 0 60 
L 144 60 
L 144 0 
L 0 0 
L 0 60 
z
" style="fill: none; opacity: 0"/>
  </g>
  <g id="axes_1">
   <g id="patch_2">
    <path d="M 5.76 52.8 
L 138.24 52.8 
L 138.24 3.6 
L 5.76 3.6 
L 5.76 52.8 
z
" style="fill: none"/>
   </g>
   <g id="matplotlib.axis_1"/>
   <g id="matplotlib.axis_2"/>
   <g id="line2d_1">
    <path d="M 5.76 42.96 
L 138.24 42.96 
" clip-path="url(#p9894347d84)" style="fill: none; stroke: #b2b2b2; stroke-opacity: 0.35; stroke-width: 0.5; stroke-linecap: square"/>
   </g>
   <g id="line2d_2">
    <path d="M 5.76 33.12 
L 138.24 33.12 
" clip-path="url(#p9894347d84)" style="fill: none; stroke: #b2b2b2; stroke-opacity: 0.35; stroke-width: 0.5; stroke-linecap: square"/>
   </g>
   <g id="line2d_3">
    <path d="M 5.76 23.28 
L 138.24 23.28 
" clip-path="url(#p9894347d84)" style="fill: none; stroke: #b2b2b2; stroke-opacity: 0.35; stroke-width: 0.5; stroke-linecap: square"/>
   </g>
   <g id="line2d_4">
    <path d="M 5.76 13.44 
L 138.24 13.44 
" clip-path="url(#p9894347d84)" style="fill: none; stroke: #b2b2b2; stroke-opacity: 0.35; stroke-width: 0.5; stroke-linecap: square"/>
   </g>
   <g id="line2d_5">
    <path d="M 6.243504 38.5812 
L 16.100967 38.478456 
L 17.303097 38.27616 
L 21.390338 38.165105 
L 22.352042 38.1138 
L 22.832894 38.057989 
L 23.794598 37.75464 
L 24.756302 37.797274 
L 25.958431 38.04984 
L 27.160561 38.142933 
L 28.122265 38.19744 
L 28.603117 38.153448 
L 29.56482 37.83828 
L 31.007376 37.74543 
L 31.96908 37.68576 
L 34.373339 37.588457 
L 35.815895 37.4496 
L 38.46058 37.341567 
L 41.345692 37.1298 
L 42.307396 37.238409 
L 43.269099 37.4988 
L 44.471229 37.41766 
L 45.432933 37.34628 
L 47.837192 37.352765 
L 48.798896 37.85304 
L 51.203156 37.763185 
L 52.164859 37.671 
L 53.126563 37.56652 
L 54.088267 37.45452 
L 62.503175 37.524219 
L 63.705305 37.68576 
L 70.918083 37.74972 
L 71.398935 38.157468 
L 72.120213 38.8272 
L 75.726602 38.729268 
L 76.928732 38.724375 
L 78.371288 38.86656 
L 78.852139 38.913484 
L 79.813843 39.41268 
L 81.256399 39.5084 
L 82.218103 39.57996 
L 88.950029 39.478394 
L 89.671307 39.3438 
L 90.873437 39.2598 
L 91.835141 39.18144 
L 93.03727 39.278023 
L 93.998974 39.30936 
L 98.567067 39.393989 
L 99.528771 39.52092 
L 129.82244 39.602617 
L 130.543718 39.64392 
L 132.707551 39.739712 
L 133.909681 39.76692 
L 135.592663 39.676903 
L 136.554367 39.64884 
L 137.756496 39.64884 
L 137.756496 39.64884 
" clip-path="url(#p9894347d84)" style="fill: none; stroke: #bebebe; stroke-width: 0.6; stroke-linecap: round"/>
   </g>
   <g id="line2d_6">
    <path d="M 6.243504 33.49392 
L 9.849893 33.43488 
L 15.139264 33.333575 
L 17.303097 33.288809 
L 18.986079 33.242155 
L 19.947783 33.033662 
L 21.149912 33.25776 
L 28.362691 33.153334 
L 31.728654 32.928516 
L 32.449932 32.64276 
L 33.411636 32.55483 
L 34.373339 31.7178 
L 39.422284 31.677118 
L 40.383988 31.46688 
L 41.105266 31.491057 
L 42.06697 31.9392 
L 43.028673 31.922578 
L 44.230803 31.52592 
L 45.673359 31.617448 
L 46.154211 31.760596 
L 47.115915 32.079919 
L 49.039322 32.051191 
L 50.001026 31.940495 
L 51.443582 32.04744 
L 58.175508 31.950668 
L 60.098916 31.883533 
L 61.781897 31.876059 
L 65.388286 31.856711 
L 68.513824 31.68336 
L 68.994676 31.68336 
L 69.475528 32.033957 
L 70.196805 32.589045 
L 72.601065 32.592499 
L 75.24575 32.56896 
L 76.207454 32.669123 
L 77.169158 32.85432 
L 77.890436 32.906488 
L 78.852139 33.42504 
L 79.813843 33.463824 
L 80.775547 33.9072 
L 82.218103 33.988061 
L 83.179807 34.04988 
L 84.381936 34.160692 
L 86.54577 34.29588 
L 88.228751 34.199639 
L 91.835141 33.908603 
L 93.03727 33.96624 
L 95.681956 34.073293 
L 96.884085 34.13352 
L 97.364937 34.207185 
L 98.326641 34.45332 
L 126.696903 34.347185 
L 128.139458 34.324132 
L 129.341588 34.55664 
L 136.073515 34.471867 
L 137.756496 34.3746 
L 137.756496 34.3746 
" clip-path="url(#p9894347d84)" style="fill: none; stroke: #4a8dff; stroke-width: 0.7; stroke-linecap: round"/>
   </g>
   <g id="line2d_7">
    <path d="M 6.243504 38.57628 
L 8.888189 38.548775 
L 12.013726 38.5566 
L 14.417986 38.463579 
L 18.986079 38.413974 
L 19.707357 37.958923 
L 20.188209 38.149985 
L 20.909486 38.47788 
L 23.794598 38.393035 
L 24.996727 38.163 
L 27.881839 38.092339 
L 28.603117 37.87764 
L 31.247802 37.80876 
L 31.488228 37.709119 
L 32.449932 36.86904 
L 33.411636 36.837235 
L 34.613765 36.53448 
L 37.498877 36.462254 
L 38.220155 36.08184 
L 39.181858 36.050035 
L 40.143562 35.57016 
L 41.105266 35.598619 
L 42.06697 36.12612 
L 43.269099 36.023798 
L 44.230803 35.77188 
L 45.192507 35.870316 
L 47.35634 36.563847 
L 49.279748 36.462263 
L 50.001026 36.426348 
L 50.96273 36.60336 
L 57.935082 36.511166 
L 59.618064 36.471374 
L 67.311694 36.604376 
L 68.994676 36.50004 
L 69.475528 36.929186 
L 70.196805 37.587477 
L 71.879787 37.49388 
L 74.764898 37.471906 
L 75.967028 37.502254 
L 76.928732 37.87764 
L 77.890436 37.923512 
L 78.852139 38.37948 
L 80.054269 38.460431 
L 81.015973 38.62548 
L 81.977677 38.717818 
L 82.939381 38.91576 
L 84.381936 39.010742 
L 86.54577 39.12732 
L 87.747899 39.045938 
L 88.709603 38.84196 
L 90.152159 38.747068 
L 91.113863 38.71896 
L 97.364937 38.866785 
L 98.326641 39.147 
L 105.53942 39.062649 
L 106.501123 39.01908 
L 107.222401 38.948131 
L 108.424531 38.8518 
L 110.107513 38.950236 
L 111.309642 39.02892 
L 126.456477 38.93696 
L 127.658607 38.82228 
L 128.379884 38.910372 
L 129.341588 39.11256 
L 131.505422 39.199708 
L 132.947977 39.23798 
L 134.150107 38.99743 
L 135.833089 39.057523 
L 137.756496 38.9748 
L 137.756496 38.9748 
" clip-path="url(#p9894347d84)" style="fill: none; stroke: #f5841e; stroke-width: 0.8; stroke-linecap: round"/>
   </g>
  </g>
 </g>
 <defs>
  <clipPath id="p9894347d84">
   <rect x="5.76" y="3.6" width="132.48" height="49.2"/>
  </clipPath>
 </defs>
</svg>
