<?xml version="1.0" encoding="utf-8" standalone="no"?>
<!DOCTYPE svg PUBLIC "-//W3C//DTD SVG 1.1//EN"
  "http://www.w3.org/Graphics/SVG/1.1/DTD/svg11.dtd">
<svg xmlns:xlink="http://www.w3.org/1999/xlink" width="144pt" height="60pt" viewBox="0 0 144 60" xmlns="http://www.w3.org/2000/svg" version="1.1">
  <desc id="nav-meta">{"window":"1m","count":4,"labels":["14.06","24.06","03.07","13.07"],"tick_utc":["2026-06-14T05:19:47Z","2026-06-24T04:50:37Z","2026-07-03T04:30:06Z","2026-07-13T04:20:46Z"]}</desc>

 <metadata>
  <rdf:RDF xmlns:dc="http://purl.org/dc/elements/1.1/" xmlns:cc="http://creativecommons.org/ns#" xmlns:rdf="http://www.w3.org/1999/02/22-rdf-syntax-ns#">
   <cc:Work>
    <dc:type rdf:resource="http://purl.org/dc/dcmitype/StillImage"/>
    <dc:date>2026-07-13T20:02:15.178872</dc:date>
    <dc:format>image/svg+xml</dc:format>
    <dc:creator>
     <cc:Agent>
      <dc:title>Matplotlib v3.11.0, https://matplotlib.org/</dc:title>
     </cc:Agent>
    </dc:creator>
   </cc:Work>
  </rdf:RDF>
 </metadata>
 <defs>
  <style type="text/css">*{stroke-linejoin: round; stroke-linecap: butt}</style>
 </defs>
 <g id="figure_1">
  <g id="patch_1">
   <path d="M 0 60 
L 144 60 
L 144 0 
L 0 0 
L 0 60 
z
" style="fill: none; opacity: 0"/>
  </g>
  <g id="axes_1">
   <g id="patch_2">
    <path d="M 5.76 52.8 
L 138.24 52.8 
L 138.24 3.6 
L 5.76 3.6 
L 5.76 52.8 
z
" style="fill: none"/>
   </g>
   <g id="matplotlib.axis_1"/>
   <g id="matplotlib.axis_2"/>
   <g id="line2d_1">
    <path d="M 5.76 42.96 
L 138.24 42.96 
" clip-path="url(#pfca1ae23ed)" style="fill: none; stroke: #b2b2b2; stroke-opacity: 0.35; stroke-width: 0.5; stroke-linecap: square"/>
   </g>
   <g id="line2d_2">
    <path d="M 5.76 33.12 
L 138.24 33.12 
" clip-path="url(#pfca1ae23ed)" style="fill: none; stroke: #b2b2b2; stroke-opacity: 0.35; stroke-width: 0.5; stroke-linecap: square"/>
   </g>
   <g id="line2d_3">
    <path d="M 5.76 23.28 
L 138.24 23.28 
" clip-path="url(#pfca1ae23ed)" style="fill: none; stroke: #b2b2b2; stroke-opacity: 0.35; stroke-width: 0.5; stroke-linecap: square"/>
   </g>
   <g id="line2d_4">
    <path d="M 5.76 13.44 
L 138.24 13.44 
" clip-path="url(#pfca1ae23ed)" style="fill: none; stroke: #b2b2b2; stroke-opacity: 0.35; stroke-width: 0.5; stroke-linecap: square"/>
   </g>
   <g id="line2d_5">
    <path d="M 5.76 50.56632 
L 10.486809 50.39412 
L 15.087653 50.23176 
L 19.51668 50.2416 
L 24.069501 50.4138 
L 28.751992 50.55156 
L 33.143796 50.42364 
L 37.813739 50.27112 
L 42.522386 50.217 
L 46.823649 50.35968 
L 51.414751 50.49252 
L 55.988274 50.59092 
L 60.586471 50.59092 
L 65.10514 50.33016 
L 69.767087 50.4384 
L 74.374921 50.3892 
L 78.860973 50.22192 
L 83.502641 50.13336 
L 87.997271 49.95132 
L 92.522241 49.78896 
L 97.077285 49.6266 
L 101.719006 49.7742 
L 106.338065 49.7742 
L 110.844184 49.76436 
L 115.294603 49.91688 
L 120.008016 49.98084 
L 124.572432 49.8972 
L 129.012101 49.971 
L 133.655252 50.03004 
L 138.24 50.08908 
" clip-path="url(#pfca1ae23ed)" style="fill: none; stroke: #bebebe; stroke-width: 0.6; stroke-linecap: round"/>
   </g>
   <g id="line2d_6">
    <path d="M 5.76 46.46304 
L 10.486809 46.14816 
L 15.087653 45.84312 
L 19.51668 45.6414 
L 24.069501 46.09404 
L 28.751992 46.3302 
L 33.143796 46.21704 
L 37.813739 46.06452 
L 42.522386 46.035 
L 46.823649 46.14324 
L 51.414751 46.52208 
L 55.988274 46.83204 
L 60.586471 47.38308 
L 65.10514 47.14692 
L 69.767087 47.22564 
L 74.374921 47.22072 
L 78.860973 47.10264 
L 83.502641 47.0436 
L 87.997271 46.79268 
L 92.522241 46.27608 
L 97.077285 45.92184 
L 101.719006 45.80376 
L 106.338065 45.75456 
L 110.844184 45.81852 
L 115.294603 45.94152 
L 120.008016 46.02024 
L 124.572432 45.77424 
L 129.012101 45.61188 
L 133.655252 45.51348 
L 138.24 45.72504 
" clip-path="url(#pfca1ae23ed)" style="fill: none; stroke: #4a8dff; stroke-width: 0.6; stroke-linecap: round"/>
   </g>
   <g id="line2d_7">
    <path d="M 5.76 49.87752 
L 10.486809 49.69548 
L 15.087653 49.65612 
L 19.51668 49.7004 
L 24.069501 49.92672 
L 28.751992 50.06448 
L 33.143796 49.971 
L 37.813739 49.89228 
L 42.522386 49.89228 
L 46.823649 49.9464 
L 51.414751 50.05956 
L 55.988274 50.2416 
L 60.586471 50.35968 
L 65.10514 50.31048 
L 69.767087 50.34492 
L 74.374921 50.38428 
L 78.860973 50.39412 
L 83.502641 50.41872 
L 87.997271 50.27112 
L 92.522241 50.20224 
L 97.077285 50.0694 
L 101.719006 50.03988 
L 106.338065 50.00052 
L 110.844184 50.00544 
L 115.294603 50.05956 
L 120.008016 50.11368 
L 124.572432 49.91196 
L 129.012101 49.90212 
L 133.655252 49.8972 
L 138.24 50.0448 
" clip-path="url(#pfca1ae23ed)" style="fill: none; stroke: #f5841e; stroke-width: 0.7; stroke-linecap: round"/>
   </g>
  </g>
 </g>
 <defs>
  <clipPath id="pfca1ae23ed">
   <rect x="5.76" y="3.6" width="132.48" height="49.2"/>
  </clipPath>
 </defs>
</svg>
