<?xml version="1.0" encoding="utf-8" standalone="no"?>
<!DOCTYPE svg PUBLIC "-//W3C//DTD SVG 1.1//EN"
  "http://www.w3.org/Graphics/SVG/1.1/DTD/svg11.dtd">
<svg xmlns:xlink="http://www.w3.org/1999/xlink" width="144pt" height="60pt" viewBox="0 0 144 60" xmlns="http://www.w3.org/2000/svg" version="1.1">
 <metadata>
  <rdf:RDF xmlns:dc="http://purl.org/dc/elements/1.1/" xmlns:cc="http://creativecommons.org/ns#" xmlns:rdf="http://www.w3.org/1999/02/22-rdf-syntax-ns#">
   <cc:Work>
    <dc:type rdf:resource="http://purl.org/dc/dcmitype/StillImage"/>
    <dc:date>2026-01-22T19:42:42.076056</dc:date>
    <dc:format>image/svg+xml</dc:format>
    <dc:creator>
     <cc:Agent>
      <dc:title>Matplotlib v3.10.8, https://matplotlib.org/</dc:title>
     </cc:Agent>
    </dc:creator>
   </cc:Work>
  </rdf:RDF>
 </metadata>
 <defs>
  <style type="text/css">*{stroke-linejoin: round; stroke-linecap: butt}</style>
 </defs>
 <g id="figure_1">
  <g id="patch_1">
   <path d="M 0 60 
L 144 60 
L 144 0 
L 0 0 
L 0 60 
z
" style="fill: none; opacity: 0"/>
  </g>
  <g id="axes_1">
   <g id="patch_2">
    <path d="M 5.76 52.8 
L 141.12 52.8 
L 141.12 3.6 
L 5.76 3.6 
L 5.76 52.8 
z
" style="fill: none"/>
   </g>
   <g id="matplotlib.axis_1"/>
   <g id="matplotlib.axis_2"/>
   <g id="line2d_1">
    <path d="M 5.76 42.96 
L 141.12 42.96 
" clip-path="url(#p257afd7269)" style="fill: none; stroke: #ffffff; stroke-opacity: 0.1; stroke-width: 0.6; stroke-linecap: square"/>
   </g>
   <g id="line2d_2">
    <path d="M 5.76 33.12 
L 141.12 33.12 
" clip-path="url(#p257afd7269)" style="fill: none; stroke: #ffffff; stroke-opacity: 0.1; stroke-width: 0.6; stroke-linecap: square"/>
   </g>
   <g id="line2d_3">
    <path d="M 5.76 23.28 
L 141.12 23.28 
" clip-path="url(#p257afd7269)" style="fill: none; stroke: #ffffff; stroke-opacity: 0.1; stroke-width: 0.6; stroke-linecap: square"/>
   </g>
   <g id="line2d_4">
    <path d="M 5.76 13.44 
L 141.12 13.44 
" clip-path="url(#p257afd7269)" style="fill: none; stroke: #ffffff; stroke-opacity: 0.1; stroke-width: 0.6; stroke-linecap: square"/>
   </g>
   <g id="line2d_5">
    <path d="M 5.76 37.34628 
L 7.883294 37.34628 
L 10.537412 37.85304 
L 15.314824 37.771657 
L 17.438118 37.671 
L 19.561412 37.579314 
L 21.684706 37.45452 
L 40.794353 37.549158 
L 43.448471 37.68576 
L 59.373176 37.74972 
L 60.965647 38.497618 
L 61.496471 38.763819 
L 62.558118 38.8272 
L 69.989647 38.723706 
L 72.643765 38.729495 
L 75.828706 38.86656 
L 76.890353 38.924384 
L 79.013647 39.41268 
L 82.198588 39.509112 
L 84.321882 39.57996 
L 99.184941 39.491516 
L 100.777412 39.3438 
L 103.431529 39.269305 
L 105.554824 39.18144 
L 108.208941 39.268727 
L 110.332235 39.30936 
L 120.417882 39.367763 
L 122.541176 39.52092 
L 141.12 39.53076 
L 141.12 39.53076 
" clip-path="url(#p257afd7269)" style="fill: none; stroke: #bebebe; stroke-linecap: round"/>
   </g>
   <g id="line2d_6">
    <path d="M 5.76 32.07204 
L 10.537412 32.057569 
L 12.660706 31.934975 
L 15.845647 32.04744 
L 31.239529 31.936943 
L 38.140235 31.867136 
L 46.633412 31.868352 
L 54.064941 31.68336 
L 55.126588 31.68336 
L 57.780706 32.592055 
L 63.088941 32.589508 
L 68.397176 32.56896 
L 71.051294 32.679747 
L 73.174588 32.85432 
L 74.767059 32.921464 
L 76.890353 33.42504 
L 79.013647 33.47042 
L 81.136941 33.9072 
L 84.321882 33.987772 
L 86.445176 34.04988 
L 89.099294 34.158467 
L 91.222588 34.18764 
L 100.246588 34.17288 
L 103.431529 33.84816 
L 106.085647 33.930121 
L 108.739765 33.96624 
L 117.763765 34.174906 
L 119.887059 34.45332 
L 141.12 34.34508 
L 141.12 34.34508 
" clip-path="url(#p257afd7269)" style="fill: none; stroke: #4a8dff; stroke-linecap: round"/>
   </g>
   <g id="line2d_7">
    <path d="M 5.76 36.56892 
L 11.068235 36.468784 
L 12.660706 36.41721 
L 15.314824 36.60336 
L 30.708706 36.498072 
L 33.893647 36.468378 
L 50.88 36.62304 
L 54.595765 36.50004 
L 55.126588 36.50004 
L 57.249882 37.563223 
L 58.842353 37.525715 
L 61.496471 37.49388 
L 66.804706 37.511534 
L 69.989647 37.45944 
L 71.582118 37.72512 
L 72.643765 37.87764 
L 74.767059 37.93668 
L 76.890353 38.37948 
L 79.544471 38.463409 
L 81.667765 38.62548 
L 83.791059 38.717687 
L 85.914353 38.91576 
L 89.099294 39.008835 
L 93.876706 39.12732 
L 96.530824 39.056819 
L 98.654118 38.84196 
L 101.839059 38.753689 
L 103.962353 38.71896 
L 117.763765 38.830036 
L 119.887059 39.147 
L 136.342588 39.049873 
L 138.465882 39.01908 
L 140.058353 38.934456 
L 141.12 38.8518 
L 141.12 38.8518 
" clip-path="url(#p257afd7269)" style="fill: none; stroke: #d8a538; stroke-linecap: round"/>
   </g>
  </g>
 </g>
 <defs>
  <clipPath id="p257afd7269">
   <rect x="5.76" y="3.6" width="135.36" height="49.2"/>
  </clipPath>
 </defs>
</svg>
