<?xml version="1.0" encoding="utf-8" standalone="no"?>
<!DOCTYPE svg PUBLIC "-//W3C//DTD SVG 1.1//EN"
  "http://www.w3.org/Graphics/SVG/1.1/DTD/svg11.dtd">
<svg xmlns:xlink="http://www.w3.org/1999/xlink" width="144pt" height="60pt" viewBox="0 0 144 60" xmlns="http://www.w3.org/2000/svg" version="1.1">
  <desc id="nav-meta">{"window":"6m","count":4,"labels":["10.08","09.10","07.12","05.02"],"tick_utc":["2025-08-10T12:00:00Z","2025-10-09T12:00:00Z","2025-12-07T12:00:00Z","2026-02-05T03:20:02Z"]}</desc>

 <metadata>
  <rdf:RDF xmlns:dc="http://purl.org/dc/elements/1.1/" xmlns:cc="http://creativecommons.org/ns#" xmlns:rdf="http://www.w3.org/1999/02/22-rdf-syntax-ns#">
   <cc:Work>
    <dc:type rdf:resource="http://purl.org/dc/dcmitype/StillImage"/>
    <dc:date>2026-02-05T13:51:41.615314</dc:date>
    <dc:format>image/svg+xml</dc:format>
    <dc:creator>
     <cc:Agent>
      <dc:title>Matplotlib v3.10.8, https://matplotlib.org/</dc:title>
     </cc:Agent>
    </dc:creator>
   </cc:Work>
  </rdf:RDF>
 </metadata>
 <defs>
  <style type="text/css">*{stroke-linejoin: round; stroke-linecap: butt}</style>
 </defs>
 <g id="figure_1">
  <g id="patch_1">
   <path d="M 0 60 
L 144 60 
L 144 0 
L 0 0 
L 0 60 
z
" style="fill: none; opacity: 0"/>
  </g>
  <g id="axes_1">
   <g id="patch_2">
    <path d="M 5.76 52.8 
L 138.24 52.8 
L 138.24 3.6 
L 5.76 3.6 
L 5.76 52.8 
z
" style="fill: none"/>
   </g>
   <g id="matplotlib.axis_1"/>
   <g id="matplotlib.axis_2"/>
   <g id="line2d_1">
    <path d="M 5.76 42.96 
L 138.24 42.96 
" clip-path="url(#p9fad4a9794)" style="fill: none; stroke: #b2b2b2; stroke-opacity: 0.35; stroke-width: 0.5; stroke-linecap: square"/>
   </g>
   <g id="line2d_2">
    <path d="M 5.76 33.12 
L 138.24 33.12 
" clip-path="url(#p9fad4a9794)" style="fill: none; stroke: #b2b2b2; stroke-opacity: 0.35; stroke-width: 0.5; stroke-linecap: square"/>
   </g>
   <g id="line2d_3">
    <path d="M 5.76 23.28 
L 138.24 23.28 
" clip-path="url(#p9fad4a9794)" style="fill: none; stroke: #b2b2b2; stroke-opacity: 0.35; stroke-width: 0.5; stroke-linecap: square"/>
   </g>
   <g id="line2d_4">
    <path d="M 5.76 13.44 
L 138.24 13.44 
" clip-path="url(#p9fad4a9794)" style="fill: none; stroke: #b2b2b2; stroke-opacity: 0.35; stroke-width: 0.5; stroke-linecap: square"/>
   </g>
   <g id="line2d_5">
    <path d="M 5.76 38.12364 
L 6.501608 37.794 
L 7.243215 38.82228 
L 7.984823 36.53448 
L 8.726431 35.334 
L 9.468039 36.5148 
L 10.209646 37.44468 
L 10.951254 36.90348 
L 11.692862 36.65748 
L 12.43447 37.78416 
L 13.176077 38.64516 
L 13.917685 37.2282 
L 14.659293 38.14332 
L 15.400901 35.53572 
L 16.142508 35.04372 
L 16.884116 34.80264 
L 17.625724 37.23804 
L 19.850547 33.67104 
L 20.592155 34.90596 
L 22.07537 35.45208 
L 22.816978 35.9736 
L 23.558586 34.36476 
L 24.300194 34.1778 
L 25.041801 35.22084 
L 25.783409 35.11752 
L 26.525017 35.54556 
L 28.008232 33.735 
L 28.74984 33.30204 
L 29.491448 32.44104 
L 30.233055 31.83096 
L 30.974663 30.06468 
L 31.716271 30.01056 
L 32.457879 30.291 
L 33.199486 31.16184 
L 33.941094 30.74856 
L 34.682702 29.71536 
L 35.42431 29.37588 
L 36.165917 30.57636 
L 36.907525 30.42876 
L 37.649133 30.79284 
L 38.390741 32.91828 
L 39.132348 33.72024 
L 39.873956 34.05972 
L 40.615564 36.5886 
L 41.357172 34.90104 
L 42.098779 35.10276 
L 42.840387 34.16796 
L 43.581995 33.8826 
L 44.323603 34.43364 
L 45.806818 31.05852 
L 46.548426 31.26024 
L 47.290033 31.92936 
L 48.031641 31.85064 
L 48.773249 31.3242 
L 49.514857 32.84448 
L 50.256464 31.78176 
L 50.998072 32.85924 
L 51.73968 36.8838 
L 52.481288 38.39424 
L 53.222895 35.95392 
L 53.964503 34.53696 
L 54.706111 35.20608 
L 56.189326 37.57752 
L 56.930934 37.90716 
L 57.672542 37.18884 
L 58.41415 37.18392 
L 59.155757 36.89364 
L 59.897365 37.42008 
L 60.638973 38.17284 
L 61.380581 36.687 
L 62.122188 36.42132 
L 62.863796 36.34752 
L 63.605404 35.56032 
L 64.347012 35.72268 
L 65.088619 36.29832 
L 65.830227 36.32292 
L 66.571835 37.61688 
L 67.313442 37.2282 
L 68.05505 37.34628 
L 68.796658 37.23804 
L 69.538266 40.008 
L 70.279873 41.36592 
L 71.021481 40.43604 
L 71.763089 41.44956 
L 72.504697 40.53444 
L 73.246304 41.02152 
L 73.987912 40.22448 
L 74.72952 39.79644 
L 75.471128 41.51844 
L 76.212735 41.66604 
L 76.954343 42.714 
L 77.695951 43.51596 
L 78.437559 43.43724 
L 79.179166 43.71276 
L 79.920774 44.59836 
L 80.662382 43.30932 
L 81.40399 43.85052 
L 82.145597 44.21952 
L 82.887205 44.88372 
L 83.628813 44.99688 
L 84.370421 44.57868 
L 85.112028 43.5996 
L 85.853636 43.51596 
L 86.595244 43.00428 
L 87.336852 43.2798 
L 88.078459 43.71768 
L 89.561675 44.0916 
L 90.303282 45.11004 
L 91.04489 43.55532 
L 91.786498 42.72876 
L 93.269713 44.27364 
L 94.752929 44.47536 
L 95.494537 44.25888 
L 96.236144 43.64388 
L 96.977752 43.84068 
L 97.71936 43.85052 
L 98.460968 44.36712 
L 99.202575 44.26872 
L 99.944183 44.74104 
L 100.685791 44.98704 
L 101.427399 44.84436 
L 102.169006 45.58728 
L 102.910614 46.0596 
L 103.652222 45.18384 
L 106.618653 45.47904 
L 107.360261 45.65616 
L 108.101868 45.98088 
L 109.585084 45.38556 
L 110.326691 45.31668 
L 111.068299 45.58728 
L 111.809907 45.35604 
L 112.551515 45.40032 
L 113.293122 45.11496 
L 114.03473 44.42124 
L 115.517946 44.18508 
L 116.259553 43.62912 
L 117.001161 43.24044 
L 117.742769 43.8702 
L 118.484377 43.60944 
L 119.225984 43.92924 
L 119.967592 43.93416 
L 120.7092 43.46184 
L 121.450808 43.5012 
L 122.192415 42.72384 
L 122.934023 42.51228 
L 123.675631 43.08792 
L 124.417239 42.75828 
L 125.158846 42.90096 
L 126.642062 44.2392 
L 127.38367 45.23304 
L 128.125277 44.77548 
L 129.608493 45.04608 
L 130.3501 45.07068 
L 131.091708 46.1334 
L 131.833316 45.4446 
L 132.574924 45.06084 
L 133.316531 45.33144 
L 134.058139 46.30068 
L 134.799747 46.34496 
L 135.541355 47.89476 
L 136.282962 48.26376 
L 137.02457 47.96364 
L 138.24 49.06572 
L 138.24 49.06572 
" clip-path="url(#p9fad4a9794)" style="fill: none; stroke: #bebebe; stroke-width: 0.6; stroke-linecap: round"/>
   </g>
   <g id="line2d_6">
    <path d="M 5.76 28.14588 
L 7.243215 28.40664 
L 7.984823 25.73508 
L 8.726431 24.62316 
L 9.468039 26.10408 
L 10.209646 26.97984 
L 10.951254 27.00936 
L 11.692862 26.58132 
L 12.43447 27.7818 
L 13.176077 29.49888 
L 13.917685 27.68832 
L 14.659293 28.44108 
L 15.400901 24.16068 
L 16.142508 24.55428 
L 16.884116 24.51984 
L 17.625724 27.32916 
L 18.367332 25.7646 
L 19.108939 26.48784 
L 19.850547 26.43372 
L 20.592155 27.44724 
L 22.07537 27.27504 
L 22.816978 27.8802 
L 23.558586 27.72276 
L 24.300194 26.84208 
L 25.041801 27.91956 
L 25.783409 27.8556 
L 26.525017 28.09668 
L 27.266624 27.87528 
L 28.74984 27.83592 
L 29.491448 27.57024 
L 30.233055 26.77812 
L 30.974663 25.01184 
L 32.457879 25.71048 
L 33.199486 26.31564 
L 33.941094 26.45832 
L 34.682702 25.8384 
L 35.42431 25.84824 
L 36.165917 26.6994 
L 36.907525 26.62068 
L 37.649133 26.8224 
L 38.390741 28.61328 
L 39.873956 28.97244 
L 40.615564 30.99456 
L 41.357172 29.76456 
L 42.098779 29.8974 
L 42.840387 29.02164 
L 43.581995 28.50012 
L 44.323603 29.00688 
L 45.06521 27.59484 
L 45.806818 26.601 
L 46.548426 26.3796 
L 47.290033 26.5764 
L 48.031641 26.3796 
L 48.773249 25.1496 
L 49.514857 26.81256 
L 50.256464 26.29596 
L 50.998072 27.41772 
L 51.73968 31.19136 
L 52.481288 31.80144 
L 53.222895 28.89864 
L 53.964503 28.28364 
L 54.706111 29.11512 
L 55.447719 30.1434 
L 56.189326 30.80268 
L 56.930934 31.22088 
L 57.672542 30.8076 
L 58.41415 30.13356 
L 59.155757 30.17784 
L 59.897365 30.89124 
L 60.638973 31.42752 
L 61.380581 31.04376 
L 62.122188 30.49764 
L 62.863796 30.3648 
L 63.605404 28.88388 
L 64.347012 29.15448 
L 65.088619 30.15324 
L 66.571835 31.4226 
L 67.313442 31.10772 
L 68.796658 30.66 
L 70.279873 34.99944 
L 71.021481 34.07448 
L 71.763089 34.9158 
L 72.504697 34.02528 
L 73.246304 34.26144 
L 73.987912 33.0216 
L 74.72952 33.10524 
L 75.471128 34.1532 
L 76.212735 34.2024 
L 76.954343 35.4324 
L 77.695951 36.34752 
L 78.437559 35.89488 
L 79.920774 36.94776 
L 80.662382 36.2688 
L 81.40399 36.97236 
L 82.145597 38.286 
L 82.887205 38.76324 
L 83.628813 38.73864 
L 84.370421 38.51724 
L 85.112028 37.42992 
L 85.853636 37.42008 
L 86.595244 36.90348 
L 87.336852 36.98712 
L 88.078459 36.86412 
L 88.820067 37.16424 
L 89.561675 37.14948 
L 90.303282 38.52216 
L 91.786498 35.71776 
L 92.528106 36.15564 
L 93.269713 36.93792 
L 94.752929 36.72636 
L 95.494537 36.21468 
L 96.236144 34.8174 
L 96.977752 34.7928 
L 97.71936 35.42748 
L 98.460968 36.49512 
L 99.202575 36.28356 
L 99.944183 36.6378 
L 100.685791 37.3512 
L 101.427399 37.3512 
L 102.169006 38.31552 
L 102.910614 38.32536 
L 103.652222 37.26264 
L 104.39383 37.26264 
L 105.135437 37.09044 
L 105.877045 37.06092 
L 106.618653 37.34628 
L 107.360261 37.48404 
L 108.101868 37.77924 
L 109.585084 37.45944 
L 111.068299 37.56276 
L 111.809907 37.31184 
L 112.551515 37.33644 
L 113.293122 37.09536 
L 114.03473 36.23928 
L 115.517946 36.11628 
L 116.259553 35.48652 
L 117.001161 35.0142 
L 117.742769 35.93424 
L 118.484377 36.36228 
L 119.225984 36.50988 
L 119.967592 36.5148 
L 120.7092 36.25404 
L 121.450808 36.46068 
L 122.192415 34.83708 
L 122.934023 34.57632 
L 124.417239 35.00436 
L 125.158846 34.93056 
L 125.900454 35.088 
L 126.642062 35.78664 
L 127.38367 37.55292 
L 128.125277 37.26756 
L 128.866885 37.46436 
L 130.3501 37.45944 
L 131.091708 38.41392 
L 132.574924 36.95268 
L 133.316531 37.05108 
L 134.058139 38.37948 
L 134.799747 39.20604 
L 135.541355 41.03136 
L 136.282962 42.26628 
L 137.02457 41.73492 
L 137.650654 42.23676 
L 138.24 43.38804 
L 138.24 43.38804 
" clip-path="url(#p9fad4a9794)" style="fill: none; stroke: #4a8dff; stroke-width: 0.7; stroke-linecap: round"/>
   </g>
   <g id="line2d_7">
    <path d="M 5.76 28.00812 
L 6.501608 26.64528 
L 7.243215 26.88636 
L 7.984823 26.1828 
L 8.726431 24.52476 
L 9.468039 27.0684 
L 10.209646 27.59484 
L 11.692862 27.49644 
L 12.43447 28.13112 
L 13.176077 29.8482 
L 13.917685 29.12004 
L 14.659293 30.03024 
L 15.400901 27.84576 
L 16.142508 28.57392 
L 16.884116 29.54316 
L 17.625724 31.13232 
L 18.367332 30.31068 
L 19.108939 30.62064 
L 19.850547 29.97612 
L 20.592155 31.97364 
L 21.333763 31.82112 
L 22.07537 32.0868 
L 22.816978 31.63416 
L 23.558586 30.6354 
L 24.300194 30.37464 
L 25.041801 30.86172 
L 25.783409 30.89616 
L 26.525017 31.11756 
L 28.008232 30.22212 
L 28.74984 30.45828 
L 29.491448 29.2578 
L 30.233055 28.50504 
L 30.974663 28.18032 
L 31.716271 28.2738 
L 32.457879 28.569 
L 33.199486 28.55424 
L 33.941094 27.8802 
L 34.682702 28.03272 
L 35.42431 27.69324 
L 36.165917 28.42632 
L 36.907525 28.3968 
L 37.649133 28.60344 
L 38.390741 29.88756 
L 39.132348 30.22212 
L 39.873956 29.58252 
L 40.615564 31.73256 
L 41.357172 31.36356 
L 42.098779 31.39308 
L 43.581995 29.09544 
L 44.323603 29.2332 
L 45.06521 27.02412 
L 45.806818 25.98108 
L 46.548426 25.16928 
L 47.290033 25.10532 
L 48.773249 23.92452 
L 49.514857 25.53336 
L 50.256464 24.62808 
L 50.998072 25.4448 
L 51.73968 29.64156 
L 52.481288 30.80268 
L 53.222895 28.65756 
L 53.964503 28.6428 
L 54.706111 29.66124 
L 56.189326 32.17044 
L 56.930934 32.97732 
L 57.672542 32.628 
L 58.41415 31.90476 
L 59.155757 30.92076 
L 59.897365 31.96872 
L 60.638973 32.39676 
L 61.380581 31.19628 
L 62.122188 30.72888 
L 62.863796 30.42384 
L 63.605404 29.0118 
L 64.347012 29.15448 
L 65.088619 29.76456 
L 65.830227 31.2012 
L 66.571835 32.09172 
L 67.313442 31.43244 
L 68.796658 30.90108 
L 69.538266 32.93796 
L 70.279873 35.35368 
L 71.021481 34.24668 
L 71.763089 35.5062 
L 72.504697 34.48284 
L 73.246304 35.02896 
L 73.987912 33.8334 
L 74.72952 33.243 
L 75.471128 34.69932 
L 76.212735 35.4078 
L 76.954343 36.2934 
L 77.695951 38.901 
L 78.437559 38.37948 
L 79.179166 38.92068 
L 79.920774 40.09164 
L 80.662382 39.70788 
L 81.40399 40.4262 
L 82.145597 42.75336 
L 82.887205 43.54548 
L 83.628813 43.72752 
L 84.370421 42.6894 
L 85.112028 41.976 
L 85.853636 42.42864 
L 86.595244 40.86408 
L 87.336852 40.47048 
L 89.561675 40.89852 
L 90.303282 42.9354 
L 91.04489 40.43604 
L 91.786498 39.31428 
L 92.528106 40.04244 
L 93.269713 41.43972 
L 94.011321 41.47416 
L 94.752929 41.02152 
L 95.494537 40.7952 
L 96.236144 39.75708 
L 96.977752 40.11132 
L 97.71936 39.87024 
L 98.460968 40.94772 
L 99.202575 40.97232 
L 100.685791 42.87144 
L 101.427399 42.17772 
L 102.169006 43.04364 
L 102.910614 43.34868 
L 103.652222 42.03504 
L 105.135437 41.8038 
L 105.877045 41.84316 
L 106.618653 42.37944 
L 107.360261 42.26628 
L 108.101868 42.468 
L 108.843476 42.42864 
L 109.585084 42.18264 
L 110.326691 42.1728 
L 111.068299 42.50244 
L 111.809907 41.88252 
L 112.551515 42.32532 
L 114.03473 41.13468 
L 115.517946 40.42128 
L 116.259553 39.16176 
L 117.001161 39.28968 
L 117.742769 40.48032 
L 119.967592 40.88376 
L 121.450808 40.53936 
L 122.192415 38.50248 
L 122.934023 37.63656 
L 123.675631 38.34012 
L 124.417239 38.37456 
L 125.158846 38.5812 
L 126.642062 39.8358 
L 127.38367 41.93172 
L 128.125277 41.42004 
L 129.608493 41.39052 
L 130.3501 41.5086 
L 131.091708 42.80256 
L 131.833316 41.93664 
L 132.574924 41.49384 
L 133.316531 41.51352 
L 134.058139 43.78164 
L 134.799747 43.9932 
L 135.541355 46.66968 
L 136.282962 47.55036 
L 137.02457 46.64508 
L 138.24 48.89352 
L 138.24 48.89352 
" clip-path="url(#p9fad4a9794)" style="fill: none; stroke: #f5841e; stroke-width: 0.8; stroke-linecap: round"/>
   </g>
  </g>
 </g>
 <defs>
  <clipPath id="p9fad4a9794">
   <rect x="5.76" y="3.6" width="132.48" height="49.2"/>
  </clipPath>
 </defs>
</svg>
