<?xml version="1.0" encoding="utf-8" standalone="no"?>
<!DOCTYPE svg PUBLIC "-//W3C//DTD SVG 1.1//EN"
  "http://www.w3.org/Graphics/SVG/1.1/DTD/svg11.dtd">
<svg xmlns:xlink="http://www.w3.org/1999/xlink" width="144pt" height="60pt" viewBox="0 0 144 60" xmlns="http://www.w3.org/2000/svg" version="1.1">
  <desc id="nav-meta">{"window":"1y","count":4,"labels":["12.02","13.06","12.10","11.02"],"tick_utc":["2025-02-12T12:00:00Z","2025-06-13T12:00:00Z","2025-10-12T12:00:00Z","2026-02-11T03:39:24Z"]}</desc>

 <metadata>
  <rdf:RDF xmlns:dc="http://purl.org/dc/elements/1.1/" xmlns:cc="http://creativecommons.org/ns#" xmlns:rdf="http://www.w3.org/1999/02/22-rdf-syntax-ns#">
   <cc:Work>
    <dc:type rdf:resource="http://purl.org/dc/dcmitype/StillImage"/>
    <dc:date>2026-02-11T19:40:41.866611</dc:date>
    <dc:format>image/svg+xml</dc:format>
    <dc:creator>
     <cc:Agent>
      <dc:title>Matplotlib v3.10.8, https://matplotlib.org/</dc:title>
     </cc:Agent>
    </dc:creator>
   </cc:Work>
  </rdf:RDF>
 </metadata>
 <defs>
  <style type="text/css">*{stroke-linejoin: round; stroke-linecap: butt}</style>
 </defs>
 <g id="figure_1">
  <g id="patch_1">
   <path d="M 0 60 
L 144 60 
L 144 0 
L 0 0 
L 0 60 
z
" style="fill: none; opacity: 0"/>
  </g>
  <g id="axes_1">
   <g id="patch_2">
    <path d="M 5.76 52.8 
L 138.24 52.8 
L 138.24 3.6 
L 5.76 3.6 
L 5.76 52.8 
z
" style="fill: none"/>
   </g>
   <g id="matplotlib.axis_1"/>
   <g id="matplotlib.axis_2"/>
   <g id="line2d_1">
    <path d="M 5.76 42.96 
L 138.24 42.96 
" clip-path="url(#p3b5904f490)" style="fill: none; stroke: #b2b2b2; stroke-opacity: 0.35; stroke-width: 0.5; stroke-linecap: square"/>
   </g>
   <g id="line2d_2">
    <path d="M 5.76 33.12 
L 138.24 33.12 
" clip-path="url(#p3b5904f490)" style="fill: none; stroke: #b2b2b2; stroke-opacity: 0.35; stroke-width: 0.5; stroke-linecap: square"/>
   </g>
   <g id="line2d_3">
    <path d="M 5.76 23.28 
L 138.24 23.28 
" clip-path="url(#p3b5904f490)" style="fill: none; stroke: #b2b2b2; stroke-opacity: 0.35; stroke-width: 0.5; stroke-linecap: square"/>
   </g>
   <g id="line2d_4">
    <path d="M 5.76 13.44 
L 138.24 13.44 
" clip-path="url(#p3b5904f490)" style="fill: none; stroke: #b2b2b2; stroke-opacity: 0.35; stroke-width: 0.5; stroke-linecap: square"/>
   </g>
   <g id="line2d_5">
    <path d="M 5.76 35.84076 
L 6.124304 36.01296 
L 6.488608 36.318 
L 6.852912 35.61444 
L 7.58152 37.11012 
L 8.310128 39.59472 
L 8.674432 39.57504 
L 9.038736 38.69436 
L 9.40304 39.60948 
L 9.767344 39.19128 
L 10.131648 39.72756 
L 10.495952 43.23552 
L 10.860256 42.81732 
L 11.22456 44.08176 
L 11.588864 43.698 
L 11.953168 42.3204 
L 12.317472 42.94032 
L 12.681775 38.41392 
L 13.046079 43.0584 
L 13.410383 42.72384 
L 13.774687 42.58116 
L 14.138991 42.9354 
L 14.503295 43.49136 
L 14.867599 43.79148 
L 15.596207 46.14816 
L 15.960511 45.28224 
L 16.324815 45.13464 
L 16.689119 45.5676 
L 17.053423 44.22444 
L 17.417727 43.92924 
L 17.782031 45.18876 
L 18.146335 44.91324 
L 18.510639 45.297 
L 18.874943 43.95384 
L 19.239247 44.99196 
L 19.967855 44.89848 
L 20.332159 44.41632 
L 20.696463 43.30932 
L 21.060767 42.87144 
L 21.425071 43.76196 
L 21.789375 43.59468 
L 22.153679 44.76072 
L 22.517983 45.40524 
L 23.246591 45.35604 
L 23.610895 45.10512 
L 23.975199 46.24164 
L 24.339503 46.3548 
L 24.703807 45.63648 
L 25.068111 45.97104 
L 25.432415 47.84556 
L 25.796719 47.71272 
L 26.161022 47.88 
L 26.525326 46.12848 
L 26.88963 46.91568 
L 27.618238 44.40648 
L 27.982542 44.91816 
L 28.346846 44.76564 
L 28.71115 45.16908 
L 29.075454 44.49504 
L 29.439758 44.08668 
L 29.804062 44.17032 
L 30.168366 43.43232 
L 30.896974 43.86528 
L 31.261278 42.23676 
L 31.989886 41.7792 
L 33.082798 42.31056 
L 33.447102 42.345 
L 33.811406 42.5418 
L 34.17571 42.37944 
L 34.540014 41.98584 
L 34.904318 42.345 
L 35.268622 42.49752 
L 35.632926 42.86652 
L 35.99723 42.49752 
L 36.725838 42.44832 
L 37.090142 40.33272 
L 37.454446 39.12732 
L 37.81875 38.52216 
L 38.183054 39.10272 
L 38.547358 38.901 
L 38.911662 37.6464 
L 39.64027 39.639 
L 40.368877 40.008 
L 40.733181 39.27492 
L 41.097485 39.90468 
L 41.461789 39.6882 
L 42.190397 38.22696 
L 42.554701 38.901 
L 42.919005 38.69436 
L 43.647613 38.86164 
L 44.011917 38.62056 
L 44.740525 39.88992 
L 45.104829 41.23308 
L 46.197741 41.17404 
L 46.926349 41.62176 
L 47.290653 42.79272 
L 47.654957 42.30564 
L 48.383565 41.7546 
L 48.747869 40.62792 
L 49.112173 40.131 
L 49.476477 40.6476 
L 49.840781 41.73492 
L 50.569389 42.76812 
L 50.933693 41.73492 
L 51.297997 41.89728 
L 51.662301 42.345 
L 52.026605 42.5664 
L 52.390909 42.46308 
L 53.119517 44.20476 
L 53.48382 44.45076 
L 53.848124 42.7632 
L 54.212428 42.63036 
L 54.576732 42.94524 
L 54.941036 43.52088 
L 55.30534 43.1076 
L 55.669644 41.98092 
L 56.398252 41.43972 
L 56.762556 42.4926 
L 57.12686 41.79888 
L 57.491164 41.78412 
L 57.855468 42.37452 
L 58.219772 42.3942 
L 58.584076 41.83332 
L 58.94838 42.24168 
L 59.312684 41.84316 
L 60.041292 40.2786 
L 60.405596 40.42128 
L 60.7699 40.71648 
L 61.498508 40.48032 
L 61.862812 40.26384 
L 62.227116 38.97972 
L 62.955724 38.51724 
L 63.320028 38.57628 
L 63.684332 38.04492 
L 64.048636 36.03264 
L 64.41294 34.88136 
L 64.777244 36.92316 
L 65.141548 37.8432 
L 65.505852 37.37088 
L 65.870156 37.53324 
L 66.23446 37.056 
L 66.598764 37.77924 
L 66.963067 38.02032 
L 67.327371 38.45328 
L 67.691675 39.1962 
L 68.055979 40.41636 
L 68.420283 40.97232 
L 68.784587 40.53444 
L 69.148891 39.55536 
L 69.513195 40.24908 
L 69.877499 39.7128 
L 70.241803 38.778 
L 70.606107 38.59104 
L 71.334715 37.794 
L 71.699019 38.82228 
L 72.063323 36.53448 
L 72.427627 35.334 
L 73.156235 37.44468 
L 73.520539 36.90348 
L 73.884843 36.65748 
L 74.613451 38.64516 
L 74.977755 37.2282 
L 75.342059 38.14332 
L 75.706363 35.53572 
L 76.070667 35.04372 
L 76.434971 34.80264 
L 76.799275 37.23804 
L 77.892187 33.67104 
L 78.256491 34.90596 
L 79.349403 35.9736 
L 79.713707 34.36476 
L 80.078011 34.1778 
L 80.442314 35.22084 
L 80.806618 35.11752 
L 81.170922 35.54556 
L 82.628138 32.44104 
L 82.992442 31.83096 
L 83.356746 30.06468 
L 83.72105 30.01056 
L 84.085354 30.291 
L 84.449658 31.16184 
L 84.813962 30.74856 
L 85.178266 29.71536 
L 85.54257 29.37588 
L 85.906874 30.57636 
L 86.271178 30.42876 
L 86.635482 30.79284 
L 86.999786 32.91828 
L 87.36409 33.72024 
L 87.728394 34.05972 
L 88.092698 36.5886 
L 88.457002 34.90104 
L 88.821306 35.10276 
L 89.18561 34.16796 
L 89.549914 33.8826 
L 89.914218 34.43364 
L 90.642826 31.05852 
L 91.00713 31.26024 
L 91.371434 31.92936 
L 91.735738 31.85064 
L 92.100042 31.3242 
L 92.464346 32.84448 
L 92.82865 31.78176 
L 93.192954 32.85924 
L 93.557258 36.8838 
L 93.921562 38.39424 
L 94.285865 35.95392 
L 94.650169 34.53696 
L 95.014473 35.20608 
L 95.743081 37.57752 
L 96.107385 37.90716 
L 96.471689 37.18884 
L 96.835993 37.18392 
L 97.200297 36.89364 
L 97.564601 37.42008 
L 97.928905 38.17284 
L 98.293209 36.687 
L 98.657513 36.42132 
L 99.021817 36.34752 
L 99.386121 35.56032 
L 99.750425 35.72268 
L 100.114729 36.29832 
L 100.479033 36.32292 
L 100.843337 37.61688 
L 101.207641 37.2282 
L 101.571945 37.34628 
L 101.936249 37.23804 
L 102.300553 40.008 
L 102.664857 41.36592 
L 103.029161 40.43604 
L 103.393465 41.44956 
L 103.757769 40.53444 
L 104.122073 41.02152 
L 104.486377 40.22448 
L 104.850681 39.79644 
L 105.214985 41.51844 
L 105.579289 41.66604 
L 106.307897 43.51596 
L 106.672201 43.43724 
L 107.036505 43.71276 
L 107.400809 44.59836 
L 107.765112 43.30932 
L 108.858024 44.88372 
L 109.222328 44.99688 
L 109.586632 44.57868 
L 109.950936 43.5996 
L 110.31524 43.51596 
L 110.679544 43.00428 
L 111.043848 43.2798 
L 111.408152 43.71768 
L 112.13676 44.0916 
L 112.501064 45.11004 
L 112.865368 43.55532 
L 113.229672 42.72876 
L 113.95828 44.27364 
L 114.686888 44.47536 
L 115.051192 44.25888 
L 115.415496 43.64388 
L 115.7798 43.84068 
L 116.144104 43.85052 
L 116.508408 44.36712 
L 116.872712 44.26872 
L 117.237016 44.74104 
L 117.60132 44.98704 
L 117.965624 44.84436 
L 118.329928 45.58728 
L 118.694232 46.0596 
L 119.058536 45.18384 
L 120.515752 45.47904 
L 120.880056 45.65616 
L 121.244359 45.98088 
L 121.972967 45.38556 
L 122.337271 45.31668 
L 122.701575 45.58728 
L 123.065879 45.35604 
L 123.430183 45.40032 
L 123.794487 45.11496 
L 124.158791 44.42124 
L 124.887399 44.18508 
L 125.616007 43.24044 
L 125.980311 43.8702 
L 126.344615 43.60944 
L 126.708919 43.92924 
L 127.073223 43.93416 
L 127.437527 43.46184 
L 127.801831 43.5012 
L 128.166135 42.72384 
L 128.530439 42.51228 
L 128.894743 43.08792 
L 129.259047 42.75828 
L 129.623351 42.90096 
L 130.351959 44.2392 
L 130.716263 45.23304 
L 131.080567 44.77548 
L 131.809175 45.04608 
L 132.173479 45.07068 
L 132.537783 46.1334 
L 132.902087 45.4446 
L 133.266391 45.06084 
L 133.630695 45.33144 
L 133.994999 46.30068 
L 134.359303 46.34496 
L 134.723606 47.89476 
L 135.08791 48.26376 
L 135.452214 47.96364 
L 136.413395 50.04972 
L 136.776139 49.24776 
L 138.24 49.59708 
L 138.24 49.59708 
" clip-path="url(#p3b5904f490)" style="fill: none; stroke: #bebebe; stroke-width: 0.6; stroke-linecap: round"/>
   </g>
   <g id="line2d_6">
    <path d="M 5.76 39.9096 
L 6.124304 38.96496 
L 6.488608 39.393 
L 6.852912 39.0486 
L 7.58152 39.50616 
L 7.945824 38.9256 
L 8.310128 39.43728 
L 9.038736 38.9256 
L 9.40304 39.516 
L 9.767344 38.76816 
L 10.131648 38.32044 
L 10.495952 40.61316 
L 10.860256 40.6722 
L 11.22456 41.86776 
L 11.588864 42.01536 
L 11.953168 42.50736 
L 12.317472 42.66972 
L 12.681775 40.51476 
L 13.046079 43.12728 
L 13.410383 42.96 
L 13.774687 42.468 
L 14.138991 42.74352 
L 14.503295 43.17648 
L 14.867599 42.75828 
L 15.596207 45.0264 
L 15.960511 44.7312 
L 16.324815 44.805 
L 16.689119 45.14448 
L 17.417727 44.59836 
L 17.782031 44.96736 
L 18.146335 44.67216 
L 18.510639 44.64756 
L 18.874943 43.74228 
L 19.239247 44.30808 
L 19.603551 44.42616 
L 20.332159 44.1654 
L 20.696463 43.6242 
L 21.060767 43.68816 
L 21.425071 44.10144 
L 21.789375 44.15064 
L 22.153679 44.9034 
L 22.517983 45.38064 
L 22.882287 45.55284 
L 23.246591 45.41508 
L 23.610895 44.8296 
L 23.975199 45.6168 
L 24.339503 45.45936 
L 25.068111 45.5184 
L 25.432415 47.18136 
L 25.796719 47.3142 
L 26.161022 47.90952 
L 26.525326 46.56144 
L 26.88963 47.54052 
L 27.253934 47.23056 
L 27.618238 46.67952 
L 27.982542 47.03376 
L 28.346846 46.85172 
L 28.71115 47.08788 
L 29.075454 47.16168 
L 29.804062 47.07804 
L 30.168366 46.896 
L 30.53267 47.10756 
L 30.896974 47.16168 
L 31.261278 45.87264 
L 31.625582 45.63156 
L 31.989886 45.80376 
L 32.718494 45.43968 
L 33.082798 45.63156 
L 33.811406 45.61188 
L 34.17571 45.63156 
L 34.540014 45.31176 
L 35.268622 45.3462 
L 35.632926 45.52824 
L 36.361534 45.47412 
L 36.725838 45.51348 
L 37.090142 42.77796 
L 37.454446 41.75952 
L 37.81875 40.04244 
L 38.183054 40.58364 
L 38.547358 40.69188 
L 38.911662 39.38808 
L 39.64027 40.33764 
L 40.004573 40.32288 
L 40.368877 40.81488 
L 40.733181 40.88376 
L 41.097485 40.44588 
L 41.461789 40.46556 
L 41.826093 40.21956 
L 42.190397 39.52584 
L 42.554701 40.49508 
L 43.647613 40.19496 
L 44.011917 39.4914 
L 44.376221 39.38808 
L 44.740525 39.69312 
L 45.104829 40.46556 
L 45.833437 40.36716 
L 46.197741 39.8604 
L 46.562045 39.96372 
L 46.926349 39.85548 
L 47.290653 41.1888 
L 48.019261 40.4508 
L 48.383565 40.5738 
L 49.112173 38.45328 
L 49.476477 38.68452 
L 49.840781 39.55536 
L 50.205085 40.09164 
L 50.569389 40.39668 
L 51.297997 40.2048 
L 51.662301 40.52952 
L 52.390909 40.48032 
L 53.119517 42.26136 
L 53.48382 42.5664 
L 53.848124 41.17404 
L 54.212428 41.0166 
L 54.576732 41.22324 
L 55.30534 41.17896 
L 55.669644 41.08056 
L 56.033948 40.61808 
L 56.398252 40.7214 
L 56.762556 41.30688 
L 57.12686 40.11132 
L 57.491164 39.99816 
L 57.855468 40.56888 
L 58.219772 40.51476 
L 58.584076 40.131 
L 58.94838 40.3278 
L 59.312684 39.81612 
L 60.041292 37.46436 
L 60.405596 37.39056 
L 60.7699 37.50372 
L 61.498508 37.01172 
L 61.862812 36.16056 
L 62.227116 34.4976 
L 62.59142 33.69072 
L 63.320028 32.89368 
L 63.684332 31.73256 
L 64.048636 31.68336 
L 64.41294 31.8162 
L 64.777244 32.64276 
L 65.141548 32.0868 
L 65.870156 31.85064 
L 66.23446 30.98964 
L 66.598764 31.53576 
L 66.963067 31.521 
L 67.327371 31.38816 
L 67.691675 32.17044 
L 68.055979 33.68088 
L 68.420283 34.28604 
L 68.784587 33.58248 
L 69.148891 32.0376 
L 69.513195 32.76576 
L 69.877499 32.259 
L 70.241803 30.65508 
L 70.606107 29.93676 
L 70.970411 28.14588 
L 71.699019 28.40664 
L 72.063323 25.73508 
L 72.427627 24.62316 
L 72.791931 26.10408 
L 73.156235 26.97984 
L 73.520539 27.00936 
L 73.884843 26.58132 
L 74.249147 27.7818 
L 74.613451 29.49888 
L 74.977755 27.68832 
L 75.342059 28.44108 
L 75.706363 24.16068 
L 76.070667 24.55428 
L 76.434971 24.51984 
L 76.799275 27.32916 
L 77.163579 25.7646 
L 77.527883 26.48784 
L 77.892187 26.43372 
L 78.256491 27.44724 
L 78.985099 27.27504 
L 79.349403 27.8802 
L 79.713707 27.72276 
L 80.078011 26.84208 
L 80.442314 27.91956 
L 80.806618 27.8556 
L 81.170922 28.09668 
L 81.535226 27.87528 
L 82.263834 27.83592 
L 82.628138 27.57024 
L 82.992442 26.77812 
L 83.356746 25.01184 
L 84.085354 25.71048 
L 84.449658 26.31564 
L 84.813962 26.45832 
L 85.178266 25.8384 
L 85.54257 25.84824 
L 85.906874 26.6994 
L 86.271178 26.62068 
L 86.635482 26.8224 
L 86.999786 28.61328 
L 87.728394 28.97244 
L 88.092698 30.99456 
L 88.457002 29.76456 
L 88.821306 29.8974 
L 89.18561 29.02164 
L 89.549914 28.50012 
L 89.914218 29.00688 
L 90.642826 26.601 
L 91.00713 26.3796 
L 91.371434 26.5764 
L 91.735738 26.3796 
L 92.100042 25.1496 
L 92.464346 26.81256 
L 92.82865 26.29596 
L 93.192954 27.41772 
L 93.557258 31.19136 
L 93.921562 31.80144 
L 94.285865 28.89864 
L 94.650169 28.28364 
L 95.743081 30.80268 
L 96.107385 31.22088 
L 96.471689 30.8076 
L 96.835993 30.13356 
L 97.200297 30.17784 
L 97.928905 31.42752 
L 98.293209 31.04376 
L 98.657513 30.49764 
L 99.021817 30.3648 
L 99.386121 28.88388 
L 99.750425 29.15448 
L 100.114729 30.15324 
L 100.843337 31.4226 
L 101.571945 30.9306 
L 101.936249 30.66 
L 102.664857 34.99944 
L 103.029161 34.07448 
L 103.393465 34.9158 
L 103.757769 34.02528 
L 104.122073 34.26144 
L 104.486377 33.0216 
L 104.850681 33.10524 
L 105.214985 34.1532 
L 105.579289 34.2024 
L 106.307897 36.34752 
L 106.672201 35.89488 
L 107.400809 36.94776 
L 107.765112 36.2688 
L 108.129416 36.97236 
L 108.49372 38.286 
L 108.858024 38.76324 
L 109.222328 38.73864 
L 109.586632 38.51724 
L 109.950936 37.42992 
L 110.31524 37.42008 
L 110.679544 36.90348 
L 111.043848 36.98712 
L 111.408152 36.86412 
L 111.772456 37.16424 
L 112.13676 37.14948 
L 112.501064 38.52216 
L 113.229672 35.71776 
L 113.593976 36.15564 
L 113.95828 36.93792 
L 114.686888 36.72636 
L 115.051192 36.21468 
L 115.415496 34.8174 
L 115.7798 34.7928 
L 116.144104 35.42748 
L 116.508408 36.49512 
L 116.872712 36.28356 
L 117.237016 36.6378 
L 117.60132 37.3512 
L 117.965624 37.3512 
L 118.329928 38.31552 
L 118.694232 38.32536 
L 119.058536 37.26264 
L 119.42284 37.26264 
L 119.787144 37.09044 
L 120.151448 37.06092 
L 120.515752 37.34628 
L 120.880056 37.48404 
L 121.244359 37.77924 
L 121.972967 37.45944 
L 122.701575 37.56276 
L 123.065879 37.31184 
L 123.430183 37.33644 
L 123.794487 37.09536 
L 124.158791 36.23928 
L 124.887399 36.11628 
L 125.616007 35.0142 
L 125.980311 35.93424 
L 126.344615 36.36228 
L 126.708919 36.50988 
L 127.073223 36.5148 
L 127.437527 36.25404 
L 127.801831 36.46068 
L 128.166135 34.83708 
L 128.530439 34.57632 
L 129.259047 35.00436 
L 129.623351 34.93056 
L 129.987655 35.088 
L 130.351959 35.78664 
L 130.716263 37.55292 
L 131.080567 37.26756 
L 131.444871 37.46436 
L 132.173479 37.45944 
L 132.537783 38.41392 
L 133.266391 36.95268 
L 133.630695 37.05108 
L 133.994999 38.37948 
L 134.359303 39.20604 
L 134.723606 41.03136 
L 135.08791 42.26628 
L 135.452214 41.73492 
L 135.759769 42.23676 
L 136.413395 44.89356 
L 136.776139 43.6242 
L 137.510068 43.53072 
L 137.876451 43.72752 
L 138.24 44.0916 
L 138.24 44.0916 
" clip-path="url(#p3b5904f490)" style="fill: none; stroke: #4a8dff; stroke-width: 0.6; stroke-linecap: round"/>
   </g>
   <g id="line2d_7">
    <path d="M 5.76 38.26632 
L 6.124304 37.2282 
L 6.488608 37.85796 
L 6.852912 37.4004 
L 7.217216 37.36104 
L 7.58152 38.0646 
L 8.310128 38.3844 
L 8.674432 37.86288 
L 9.038736 36.9576 
L 9.40304 38.06952 
L 9.767344 37.85796 
L 10.131648 37.97604 
L 10.495952 40.41144 
L 10.860256 41.71524 
L 11.22456 44.11128 
L 11.588864 43.71276 
L 11.953168 43.8456 
L 12.317472 43.07316 
L 12.681775 38.99448 
L 13.046079 43.01412 
L 13.410383 42.42864 
L 13.774687 40.80012 
L 14.138991 41.10024 
L 14.503295 42.69432 
L 14.867599 43.00428 
L 15.231903 45.666 
L 15.596207 46.64016 
L 15.960511 44.6574 
L 16.324815 44.12112 
L 16.689119 45.4938 
L 17.053423 44.07684 
L 17.417727 43.8702 
L 17.782031 44.75088 
L 18.146335 44.02764 
L 18.510639 44.66724 
L 18.874943 42.67464 
L 19.239247 43.92924 
L 19.967855 44.1654 
L 20.696463 42.4188 
L 21.060767 42.32532 
L 21.425071 42.60084 
L 21.789375 42.468 
L 22.153679 43.88496 
L 22.517983 44.71644 
L 22.882287 44.87388 
L 23.246591 44.79516 
L 23.610895 43.452 
L 23.975199 44.79024 
L 24.703807 44.13588 
L 25.068111 44.2638 
L 25.432415 46.9206 
L 25.796719 46.44336 
L 26.161022 47.85048 
L 26.525326 44.74596 
L 26.88963 46.23672 
L 27.253934 44.34252 
L 27.618238 43.41756 
L 27.982542 44.25888 
L 28.346846 43.80624 
L 28.71115 44.23428 
L 29.075454 44.01288 
L 29.439758 43.60452 
L 29.804062 43.85052 
L 30.168366 43.50612 
L 30.53267 43.53072 
L 30.896974 42.35976 
L 31.261278 39.33396 
L 31.625582 39.3192 
L 31.989886 39.18636 
L 32.35419 38.74356 
L 32.718494 38.80752 
L 33.082798 39.2208 
L 33.447102 38.61564 
L 33.811406 38.9994 
L 34.17571 39.00924 
L 34.540014 37.92684 
L 34.904318 37.71528 
L 35.268622 38.17284 
L 35.632926 38.96496 
L 35.99723 38.74848 
L 36.361534 37.71528 
L 36.725838 37.63164 
L 37.090142 34.64028 
L 37.454446 34.69932 
L 37.81875 33.87276 
L 38.183054 34.18764 
L 38.547358 34.73868 
L 38.911662 34.09416 
L 39.275966 34.38444 
L 39.64027 34.33032 
L 40.368877 34.57632 
L 40.733181 33.18396 
L 41.097485 33.38076 
L 41.461789 32.81004 
L 41.826093 31.38816 
L 42.190397 30.45336 
L 42.554701 32.59848 
L 42.919005 32.29344 
L 43.283309 31.78176 
L 43.647613 31.53084 
L 44.011917 31.68336 
L 44.376221 32.28852 
L 45.104829 34.1778 
L 45.469133 33.84324 
L 45.833437 33.3414 
L 46.197741 33.25284 
L 46.926349 33.7842 
L 47.290653 35.34384 
L 47.654957 33.981 
L 48.019261 33.35616 
L 48.383565 33.35124 
L 48.747869 31.09296 
L 49.112173 31.11756 
L 49.476477 31.87524 
L 49.840781 33.20856 
L 50.205085 33.17412 
L 50.569389 33.45456 
L 50.933693 33.4152 
L 51.297997 32.7264 
L 51.662301 33.84816 
L 52.390909 33.84324 
L 53.48382 35.73744 
L 53.848124 33.4398 
L 54.212428 33.20856 
L 54.576732 32.58372 
L 54.941036 32.71164 
L 55.669644 32.53944 
L 56.033948 32.013 
L 56.762556 33.3906 
L 57.12686 31.80144 
L 57.491164 31.41768 
L 57.855468 32.19012 
L 58.219772 32.10156 
L 58.584076 31.60956 
L 58.94838 32.0622 
L 59.312684 31.73748 
L 59.676988 30.56652 
L 60.041292 28.31808 
L 60.405596 27.48168 
L 60.7699 27.55548 
L 61.134204 26.71908 
L 61.498508 26.36484 
L 61.862812 27.42756 
L 62.59142 26.55672 
L 62.955724 27.27504 
L 63.320028 27.31932 
L 63.684332 27.63912 
L 64.048636 27.52596 
L 64.41294 26.3058 
L 64.777244 26.96016 
L 65.141548 27.09792 
L 65.505852 27.49644 
L 65.870156 27.2898 
L 66.23446 26.57148 
L 66.598764 27.27012 
L 67.327371 27.35376 
L 68.055979 29.62188 
L 68.420283 29.96136 
L 68.784587 29.14956 
L 69.148891 28.68216 
L 69.513195 29.184 
L 69.877499 28.7412 
L 70.241803 27.5358 
L 70.606107 27.91956 
L 70.970411 28.00812 
L 71.334715 26.64528 
L 71.699019 26.88636 
L 72.063323 26.1828 
L 72.427627 24.52476 
L 72.791931 27.0684 
L 73.156235 27.59484 
L 73.884843 27.49644 
L 74.249147 28.13112 
L 74.613451 29.8482 
L 74.977755 29.12004 
L 75.342059 30.03024 
L 75.706363 27.84576 
L 76.434971 29.54316 
L 76.799275 31.13232 
L 77.163579 30.31068 
L 77.527883 30.62064 
L 77.892187 29.97612 
L 78.256491 31.97364 
L 78.620795 31.82112 
L 78.985099 32.0868 
L 79.349403 31.63416 
L 79.713707 30.6354 
L 80.078011 30.37464 
L 80.442314 30.86172 
L 80.806618 30.89616 
L 81.170922 31.11756 
L 81.89953 30.22212 
L 82.263834 30.45828 
L 82.628138 29.2578 
L 82.992442 28.50504 
L 83.356746 28.18032 
L 83.72105 28.2738 
L 84.085354 28.569 
L 84.449658 28.55424 
L 84.813962 27.8802 
L 85.178266 28.03272 
L 85.54257 27.69324 
L 85.906874 28.42632 
L 86.271178 28.3968 
L 86.635482 28.60344 
L 86.999786 29.88756 
L 87.36409 30.22212 
L 87.728394 29.58252 
L 88.092698 31.73256 
L 88.457002 31.36356 
L 88.821306 31.39308 
L 89.549914 29.09544 
L 89.914218 29.2332 
L 90.278522 27.02412 
L 91.00713 25.16928 
L 91.371434 25.10532 
L 92.100042 23.92452 
L 92.464346 25.53336 
L 92.82865 24.62808 
L 93.192954 25.4448 
L 93.557258 29.64156 
L 93.921562 30.80268 
L 94.285865 28.65756 
L 94.650169 28.6428 
L 95.378777 30.87156 
L 95.743081 32.17044 
L 96.107385 32.97732 
L 96.471689 32.628 
L 96.835993 31.90476 
L 97.200297 30.92076 
L 97.564601 31.96872 
L 97.928905 32.39676 
L 98.293209 31.19628 
L 99.021817 30.42384 
L 99.386121 29.0118 
L 99.750425 29.15448 
L 100.114729 29.76456 
L 100.479033 31.2012 
L 100.843337 32.09172 
L 101.207641 31.43244 
L 101.936249 30.90108 
L 102.664857 35.35368 
L 103.029161 34.24668 
L 103.393465 35.5062 
L 103.757769 34.48284 
L 104.122073 35.02896 
L 104.486377 33.8334 
L 104.850681 33.243 
L 105.214985 34.69932 
L 105.943593 36.2934 
L 106.307897 38.901 
L 106.672201 38.37948 
L 107.036505 38.92068 
L 107.400809 40.09164 
L 107.765112 39.70788 
L 108.129416 40.4262 
L 108.49372 42.75336 
L 108.858024 43.54548 
L 109.222328 43.72752 
L 109.950936 41.976 
L 110.31524 42.42864 
L 110.679544 40.86408 
L 111.043848 40.47048 
L 112.13676 40.89852 
L 112.501064 42.9354 
L 112.865368 40.43604 
L 113.229672 39.31428 
L 113.593976 40.04244 
L 113.95828 41.43972 
L 114.322584 41.47416 
L 114.686888 41.02152 
L 115.051192 40.7952 
L 115.415496 39.75708 
L 115.7798 40.11132 
L 116.144104 39.87024 
L 116.508408 40.94772 
L 116.872712 40.97232 
L 117.60132 42.87144 
L 117.965624 42.17772 
L 118.329928 43.04364 
L 118.694232 43.34868 
L 119.058536 42.03504 
L 119.787144 41.8038 
L 120.151448 41.84316 
L 120.515752 42.37944 
L 120.880056 42.26628 
L 121.244359 42.468 
L 121.608663 42.42864 
L 121.972967 42.18264 
L 122.337271 42.1728 
L 122.701575 42.50244 
L 123.065879 41.88252 
L 123.430183 42.32532 
L 124.158791 41.13468 
L 124.887399 40.42128 
L 125.251703 39.16176 
L 125.616007 39.28968 
L 125.980311 40.48032 
L 127.073223 40.88376 
L 127.801831 40.53936 
L 128.166135 38.50248 
L 128.530439 37.63656 
L 128.894743 38.34012 
L 129.259047 38.37456 
L 129.623351 38.5812 
L 130.351959 39.8358 
L 130.716263 41.93172 
L 131.080567 41.42004 
L 131.809175 41.39052 
L 132.173479 41.5086 
L 132.537783 42.80256 
L 132.902087 41.93664 
L 133.266391 41.49384 
L 133.630695 41.51352 
L 133.994999 43.78164 
L 134.359303 43.9932 
L 134.723606 46.66968 
L 135.08791 47.55036 
L 135.452214 46.64508 
L 136.049277 48.89352 
L 136.413395 49.84308 
L 136.776139 49.00176 
L 137.14877 49.233 
L 137.510068 48.97716 
L 138.24 49.36092 
L 138.24 49.36092 
" clip-path="url(#p3b5904f490)" style="fill: none; stroke: #f5841e; stroke-width: 0.7; stroke-linecap: round"/>
   </g>
  </g>
 </g>
 <defs>
  <clipPath id="p3b5904f490">
   <rect x="5.76" y="3.6" width="132.48" height="49.2"/>
  </clipPath>
 </defs>
</svg>
