<?xml version="1.0" encoding="utf-8" standalone="no"?>
<!DOCTYPE svg PUBLIC "-//W3C//DTD SVG 1.1//EN"
  "http://www.w3.org/Graphics/SVG/1.1/DTD/svg11.dtd">
<svg xmlns:xlink="http://www.w3.org/1999/xlink" width="144pt" height="60pt" viewBox="0 0 144 60" xmlns="http://www.w3.org/2000/svg" version="1.1">
  <desc id="nav-meta">{"window":"2w","count":4,"labels":["15 Jan","21 Jan","24 Jan","29 Jan"],"idxs":[0,49,99,148]}</desc>

 <metadata>
  <rdf:RDF xmlns:dc="http://purl.org/dc/elements/1.1/" xmlns:cc="http://creativecommons.org/ns#" xmlns:rdf="http://www.w3.org/1999/02/22-rdf-syntax-ns#">
   <cc:Work>
    <dc:type rdf:resource="http://purl.org/dc/dcmitype/StillImage"/>
    <dc:date>2026-01-29T09:24:35.954746</dc:date>
    <dc:format>image/svg+xml</dc:format>
    <dc:creator>
     <cc:Agent>
      <dc:title>Matplotlib v3.10.8, https://matplotlib.org/</dc:title>
     </cc:Agent>
    </dc:creator>
   </cc:Work>
  </rdf:RDF>
 </metadata>
 <defs>
  <style type="text/css">*{stroke-linejoin: round; stroke-linecap: butt}</style>
 </defs>
 <g id="figure_1">
  <g id="patch_1">
   <path d="M 0 60 
L 144 60 
L 144 0 
L 0 0 
L 0 60 
z
" style="fill: none; opacity: 0"/>
  </g>
  <g id="axes_1">
   <g id="patch_2">
    <path d="M 5.76 52.8 
L 138.24 52.8 
L 138.24 3.6 
L 5.76 3.6 
L 5.76 52.8 
z
" style="fill: none"/>
   </g>
   <g id="matplotlib.axis_1"/>
   <g id="matplotlib.axis_2"/>
   <g id="line2d_1">
    <path d="M 5.76 42.96 
L 138.24 42.96 
" clip-path="url(#p32b8981864)" style="fill: none; stroke: #b2b2b2; stroke-opacity: 0.35; stroke-width: 0.5; stroke-linecap: square"/>
   </g>
   <g id="line2d_2">
    <path d="M 5.76 33.12 
L 138.24 33.12 
" clip-path="url(#p32b8981864)" style="fill: none; stroke: #b2b2b2; stroke-opacity: 0.35; stroke-width: 0.5; stroke-linecap: square"/>
   </g>
   <g id="line2d_3">
    <path d="M 5.76 23.28 
L 138.24 23.28 
" clip-path="url(#p32b8981864)" style="fill: none; stroke: #b2b2b2; stroke-opacity: 0.35; stroke-width: 0.5; stroke-linecap: square"/>
   </g>
   <g id="line2d_4">
    <path d="M 5.76 13.44 
L 138.24 13.44 
" clip-path="url(#p32b8981864)" style="fill: none; stroke: #b2b2b2; stroke-opacity: 0.35; stroke-width: 0.5; stroke-linecap: square"/>
   </g>
   <g id="line2d_5">
    <path d="M 6.204564 37.4988 
L 7.531531 37.34628 
L 9.743142 37.34628 
L 10.848947 37.85304 
L 12.839398 37.768904 
L 13.724042 37.671 
L 14.608687 37.573129 
L 15.493331 37.45452 
L 23.233971 37.519059 
L 24.339776 37.68576 
L 30.97461 37.74972 
L 31.195771 37.865617 
L 32.080416 38.8272 
L 35.397833 38.732041 
L 36.503639 38.721292 
L 37.830605 38.86656 
L 38.272928 38.903274 
L 39.157572 39.41268 
L 40.484539 39.505457 
L 41.369183 39.57996 
L 47.561695 39.482403 
L 48.225179 39.3438 
L 49.330984 39.261938 
L 50.215629 39.18144 
L 51.321434 39.276466 
L 52.206079 39.30936 
L 56.40814 39.391669 
L 57.292785 39.52092 
L 85.159087 39.603576 
L 85.822571 39.64392 
L 87.813021 39.740459 
L 88.918826 39.76692 
L 90.466954 39.676028 
L 91.57276 39.64884 
L 104.178944 39.754781 
L 105.727072 39.7866 
L 106.390556 40.444706 
L 106.611717 40.685794 
L 107.054039 40.75584 
L 107.717523 40.673184 
L 108.602167 40.27368 
L 111.256101 40.19157 
L 112.583067 40.06212 
L 120.102546 40.001261 
L 120.98719 39.63408 
L 133.593375 39.727419 
L 134.478019 39.9096 
L 135.362664 39.979704 
L 136.247308 40.17528 
L 137.795436 40.14084 
L 137.795436 40.14084 
" clip-path="url(#p32b8981864)" style="fill: none; stroke: #bebebe; stroke-width: 0.6; stroke-linecap: round"/>
   </g>
   <g id="line2d_6">
    <path d="M 6.204564 31.52592 
L 7.752692 31.613438 
L 8.195014 31.746154 
L 9.079658 32.078936 
L 10.848947 32.057569 
L 11.733592 31.935934 
L 13.060559 32.04744 
L 19.25307 31.953166 
L 21.022359 31.885146 
L 22.570487 31.875405 
L 25.887904 31.858793 
L 28.762999 31.68336 
L 29.426482 31.789285 
L 30.311127 32.588152 
L 32.522738 32.59356 
L 34.955511 32.56896 
L 35.840155 32.663441 
L 36.7248 32.85432 
L 37.388283 32.895565 
L 38.272928 33.42504 
L 39.157572 33.455023 
L 40.042217 33.9072 
L 41.369183 33.985614 
L 42.253828 34.04988 
L 43.359634 34.158467 
L 44.244278 34.18764 
L 48.004017 34.16906 
L 49.109823 33.84816 
L 50.43679 33.936472 
L 51.321434 33.96624 
L 53.754207 34.071999 
L 54.860012 34.13352 
L 55.302335 34.20393 
L 56.186979 34.45332 
L 82.283993 34.346907 
L 83.610959 34.325111 
L 84.716765 34.55664 
L 90.909277 34.470966 
L 92.457405 34.374104 
L 94.669016 34.322878 
L 104.842428 34.5714 
L 105.505911 35.187277 
L 105.727072 35.411232 
L 106.169395 35.47176 
L 106.832878 35.400565 
L 107.717523 35.06832 
L 108.602167 35.000374 
L 109.486812 34.65996 
L 114.352356 34.554606 
L 115.01584 34.46808 
L 116.121645 34.55091 
L 117.00629 34.60092 
L 119.217901 34.549463 
L 120.102546 33.9072 
L 127.400863 34.013207 
L 131.381763 34.013555 
L 132.266408 33.981 
L 134.256858 33.975369 
L 135.362664 34.41888 
L 137.795436 34.40904 
L 137.795436 34.40904 
" clip-path="url(#p32b8981864)" style="fill: none; stroke: #4a8dff; stroke-width: 0.7; stroke-linecap: round"/>
   </g>
   <g id="line2d_7">
    <path d="M 6.204564 35.77188 
L 7.310369 35.858207 
L 9.30082 36.564174 
L 11.070109 36.468461 
L 11.733592 36.418798 
L 12.839398 36.60336 
L 19.25307 36.49273 
L 20.580037 36.470561 
L 27.657193 36.607329 
L 29.205321 36.50004 
L 29.426482 36.629696 
L 30.311127 37.589932 
L 31.859255 37.49388 
L 34.73435 37.45944 
L 35.618994 37.49388 
L 36.503639 37.87764 
L 37.388283 37.913907 
L 38.272928 38.37948 
L 39.378733 38.455967 
L 40.263378 38.62548 
L 41.148022 38.712808 
L 42.032667 38.91576 
L 43.359634 39.008835 
L 45.350084 39.12732 
L 46.455889 39.050105 
L 47.340534 38.84196 
L 48.667501 38.748728 
L 49.552145 38.71896 
L 55.081174 38.78292 
L 56.40814 39.147 
L 62.821813 39.063534 
L 63.706458 39.01908 
L 64.369941 38.949075 
L 65.475747 38.8518 
L 67.023875 38.949663 
L 68.12968 39.02892 
L 82.062831 38.936424 
L 83.168637 38.82228 
L 83.83212 38.911559 
L 84.716765 39.11256 
L 86.707215 39.200252 
L 88.034182 39.236304 
L 89.139988 38.997994 
L 90.688116 39.056894 
L 93.56321 38.88132 
L 96.438305 38.988295 
L 97.986433 39.040538 
L 101.30385 39.2208 
L 102.630817 39.51108 
L 103.736622 39.415458 
L 104.621267 39.37332 
L 104.842428 39.37332 
L 105.505911 40.039678 
L 105.727072 40.28199 
L 106.169395 40.34748 
L 106.832878 40.267602 
L 107.717523 39.89484 
L 108.823328 39.786592 
L 109.707973 39.63408 
L 112.583067 39.695783 
L 113.246551 39.78168 
L 113.910034 39.716711 
L 114.794679 39.30444 
L 115.900484 39.405858 
L 116.785129 39.57504 
L 117.669773 39.64502 
L 118.554418 39.76692 
L 119.217901 39.688258 
L 120.102546 39.024 
L 125.852735 39.129883 
L 127.400863 39.160239 
L 131.160602 39.079815 
L 131.824086 38.9502 
L 132.929891 39.05925 
L 133.814536 39.15684 
L 134.256858 39.166564 
L 135.141503 39.639 
L 137.795436 39.62424 
L 137.795436 39.62424 
" clip-path="url(#p32b8981864)" style="fill: none; stroke: #f5841e; stroke-width: 0.8; stroke-linecap: round"/>
   </g>
  </g>
 </g>
 <defs>
  <clipPath id="p32b8981864">
   <rect x="5.76" y="3.6" width="132.48" height="49.2"/>
  </clipPath>
 </defs>
</svg>
