<?xml version="1.0" encoding="utf-8" standalone="no"?>
<!DOCTYPE svg PUBLIC "-//W3C//DTD SVG 1.1//EN"
  "http://www.w3.org/Graphics/SVG/1.1/DTD/svg11.dtd">
<svg xmlns:xlink="http://www.w3.org/1999/xlink" width="144pt" height="60pt" viewBox="0 0 144 60" xmlns="http://www.w3.org/2000/svg" version="1.1">
  <desc id="nav-meta">{"window":"1m","count":4,"labels":["20.01","30.01","08.02","18.02"],"tick_utc":["2026-01-20T12:00:00Z","2026-01-30T12:00:00Z","2026-02-08T03:46:03Z","2026-02-18T03:30:34Z"]}</desc>

 <metadata>
  <rdf:RDF xmlns:dc="http://purl.org/dc/elements/1.1/" xmlns:cc="http://creativecommons.org/ns#" xmlns:rdf="http://www.w3.org/1999/02/22-rdf-syntax-ns#">
   <cc:Work>
    <dc:type rdf:resource="http://purl.org/dc/dcmitype/StillImage"/>
    <dc:date>2026-02-18T19:34:30.123240</dc:date>
    <dc:format>image/svg+xml</dc:format>
    <dc:creator>
     <cc:Agent>
      <dc:title>Matplotlib v3.10.8, https://matplotlib.org/</dc:title>
     </cc:Agent>
    </dc:creator>
   </cc:Work>
  </rdf:RDF>
 </metadata>
 <defs>
  <style type="text/css">*{stroke-linejoin: round; stroke-linecap: butt}</style>
 </defs>
 <g id="figure_1">
  <g id="patch_1">
   <path d="M 0 60 
L 144 60 
L 144 0 
L 0 0 
L 0 60 
z
" style="fill: none; opacity: 0"/>
  </g>
  <g id="axes_1">
   <g id="patch_2">
    <path d="M 5.76 52.8 
L 138.24 52.8 
L 138.24 3.6 
L 5.76 3.6 
L 5.76 52.8 
z
" style="fill: none"/>
   </g>
   <g id="matplotlib.axis_1"/>
   <g id="matplotlib.axis_2"/>
   <g id="line2d_1">
    <path d="M 5.76 42.96 
L 138.24 42.96 
" clip-path="url(#p9563712efa)" style="fill: none; stroke: #b2b2b2; stroke-opacity: 0.35; stroke-width: 0.5; stroke-linecap: square"/>
   </g>
   <g id="line2d_2">
    <path d="M 5.76 33.12 
L 138.24 33.12 
" clip-path="url(#p9563712efa)" style="fill: none; stroke: #b2b2b2; stroke-opacity: 0.35; stroke-width: 0.5; stroke-linecap: square"/>
   </g>
   <g id="line2d_3">
    <path d="M 5.76 23.28 
L 138.24 23.28 
" clip-path="url(#p9563712efa)" style="fill: none; stroke: #b2b2b2; stroke-opacity: 0.35; stroke-width: 0.5; stroke-linecap: square"/>
   </g>
   <g id="line2d_4">
    <path d="M 5.76 13.44 
L 138.24 13.44 
" clip-path="url(#p9563712efa)" style="fill: none; stroke: #b2b2b2; stroke-opacity: 0.35; stroke-width: 0.5; stroke-linecap: square"/>
   </g>
   <g id="line2d_5">
    <path d="M 5.76 44.2392 
L 10.384693 45.23304 
L 15.009386 44.77548 
L 19.634078 44.91816 
L 24.258771 45.04608 
L 28.883464 45.07068 
L 33.508157 46.1334 
L 38.13285 45.4446 
L 42.757543 45.06084 
L 47.382235 45.33144 
L 52.006928 46.30068 
L 56.631621 46.34496 
L 61.256314 47.89476 
L 65.881007 48.26376 
L 70.5057 47.96364 
L 74.409979 48.55896 
L 78.085164 49.06572 
L 82.707502 50.04972 
L 87.31239 49.24776 
L 92.042798 49.32156 
L 96.629326 49.31172 
L 101.280408 49.43964 
L 105.895519 49.59708 
L 110.503565 49.80372 
L 115.126866 49.86768 
L 119.695945 49.479 
L 124.076611 49.24776 
L 128.997947 49.48392 
L 133.041717 49.37568 
L 138.24 49.479 
" clip-path="url(#p9563712efa)" style="fill: none; stroke: #bebebe; stroke-width: 0.6; stroke-linecap: round"/>
   </g>
   <g id="line2d_6">
    <path d="M 5.76 35.78664 
L 10.384693 37.55292 
L 15.009386 37.26756 
L 19.634078 37.46436 
L 24.258771 37.44468 
L 28.883464 37.45944 
L 33.508157 38.41392 
L 38.13285 37.61196 
L 42.757543 36.95268 
L 47.382235 37.05108 
L 52.006928 38.37948 
L 56.631621 39.20604 
L 61.256314 41.03136 
L 65.881007 42.26628 
L 70.5057 41.73492 
L 74.409979 42.23676 
L 78.085164 43.38804 
L 82.707502 44.89356 
L 87.31239 43.6242 
L 92.042798 43.575 
L 96.629326 43.53072 
L 101.280408 43.72752 
L 105.895519 44.0916 
L 110.503565 44.436 
L 115.126866 44.49012 
L 119.695945 43.81608 
L 124.076611 43.7226 
L 128.997947 44.5344 
L 133.041717 44.19 
L 138.24 44.21952 
" clip-path="url(#p9563712efa)" style="fill: none; stroke: #4a8dff; stroke-width: 0.6; stroke-linecap: round"/>
   </g>
   <g id="line2d_7">
    <path d="M 5.76 39.8358 
L 10.384693 41.93172 
L 15.009386 41.42004 
L 19.634078 41.37576 
L 24.258771 41.39052 
L 28.883464 41.5086 
L 33.508157 42.80256 
L 38.13285 41.93664 
L 42.757543 41.49384 
L 47.382235 41.51352 
L 52.006928 43.78164 
L 56.631621 43.9932 
L 61.256314 46.66968 
L 65.881007 47.55036 
L 70.5057 46.64508 
L 74.409979 47.89476 
L 78.085164 48.89352 
L 82.707502 49.84308 
L 87.31239 49.00176 
L 92.042798 49.233 
L 96.629326 48.97716 
L 101.280408 49.22316 
L 105.895519 49.36092 
L 110.503565 49.49868 
L 115.126866 49.58724 
L 119.695945 49.28712 
L 124.076611 49.16904 
L 128.997947 49.39044 
L 133.041717 49.29696 
L 138.24 49.479 
" clip-path="url(#p9563712efa)" style="fill: none; stroke: #f5841e; stroke-width: 0.7; stroke-linecap: round"/>
   </g>
  </g>
 </g>
 <defs>
  <clipPath id="p9563712efa">
   <rect x="5.76" y="3.6" width="132.48" height="49.2"/>
  </clipPath>
 </defs>
</svg>
