<?xml version="1.0" encoding="utf-8" standalone="no"?>
<!DOCTYPE svg PUBLIC "-//W3C//DTD SVG 1.1//EN"
  "http://www.w3.org/Graphics/SVG/1.1/DTD/svg11.dtd">
<svg xmlns:xlink="http://www.w3.org/1999/xlink" width="144pt" height="60pt" viewBox="0 0 144 60" xmlns="http://www.w3.org/2000/svg" version="1.1">
  <desc id="nav-meta">{"window":"1m","count":4,"labels":["09.01","19.01","28.01","07.02"],"tick_utc":["2026-01-09T12:00:00Z","2026-01-19T12:00:00Z","2026-01-28T12:00:00Z","2026-02-07T03:13:08Z"]}</desc>

 <metadata>
  <rdf:RDF xmlns:dc="http://purl.org/dc/elements/1.1/" xmlns:cc="http://creativecommons.org/ns#" xmlns:rdf="http://www.w3.org/1999/02/22-rdf-syntax-ns#">
   <cc:Work>
    <dc:type rdf:resource="http://purl.org/dc/dcmitype/StillImage"/>
    <dc:date>2026-02-07T14:06:27.816614</dc:date>
    <dc:format>image/svg+xml</dc:format>
    <dc:creator>
     <cc:Agent>
      <dc:title>Matplotlib v3.10.8, https://matplotlib.org/</dc:title>
     </cc:Agent>
    </dc:creator>
   </cc:Work>
  </rdf:RDF>
 </metadata>
 <defs>
  <style type="text/css">*{stroke-linejoin: round; stroke-linecap: butt}</style>
 </defs>
 <g id="figure_1">
  <g id="patch_1">
   <path d="M 0 60 
L 144 60 
L 144 0 
L 0 0 
L 0 60 
z
" style="fill: none; opacity: 0"/>
  </g>
  <g id="axes_1">
   <g id="patch_2">
    <path d="M 5.76 52.8 
L 138.24 52.8 
L 138.24 3.6 
L 5.76 3.6 
L 5.76 52.8 
z
" style="fill: none"/>
   </g>
   <g id="matplotlib.axis_1"/>
   <g id="matplotlib.axis_2"/>
   <g id="line2d_1">
    <path d="M 5.76 42.96 
L 138.24 42.96 
" clip-path="url(#pe2ca813614)" style="fill: none; stroke: #b2b2b2; stroke-opacity: 0.35; stroke-width: 0.5; stroke-linecap: square"/>
   </g>
   <g id="line2d_2">
    <path d="M 5.76 33.12 
L 138.24 33.12 
" clip-path="url(#pe2ca813614)" style="fill: none; stroke: #b2b2b2; stroke-opacity: 0.35; stroke-width: 0.5; stroke-linecap: square"/>
   </g>
   <g id="line2d_3">
    <path d="M 5.76 23.28 
L 138.24 23.28 
" clip-path="url(#pe2ca813614)" style="fill: none; stroke: #b2b2b2; stroke-opacity: 0.35; stroke-width: 0.5; stroke-linecap: square"/>
   </g>
   <g id="line2d_4">
    <path d="M 5.76 13.44 
L 138.24 13.44 
" clip-path="url(#pe2ca813614)" style="fill: none; stroke: #b2b2b2; stroke-opacity: 0.35; stroke-width: 0.5; stroke-linecap: square"/>
   </g>
   <g id="line2d_5">
    <path d="M 5.76 43.60944 
L 10.386648 43.92924 
L 15.013296 43.93416 
L 19.639944 43.46184 
L 24.266593 43.5012 
L 28.893241 42.72384 
L 33.519889 42.51228 
L 38.146537 43.08792 
L 42.773185 42.75828 
L 47.399833 42.90096 
L 52.026481 43.57008 
L 56.65313 44.2392 
L 61.279778 45.23304 
L 65.906426 44.77548 
L 70.533074 44.91816 
L 75.159722 45.04608 
L 79.78637 45.07068 
L 84.413019 46.1334 
L 89.039667 45.4446 
L 93.666315 45.06084 
L 98.292963 45.33144 
L 102.919611 46.30068 
L 107.546259 46.34496 
L 112.172907 47.89476 
L 116.799556 48.26376 
L 121.426204 47.96364 
L 125.332134 48.55896 
L 129.008873 49.06572 
L 133.633165 50.04972 
L 138.24 49.24776 
" clip-path="url(#pe2ca813614)" style="fill: none; stroke: #bebebe; stroke-width: 0.6; stroke-linecap: round"/>
   </g>
   <g id="line2d_6">
    <path d="M 5.76 36.36228 
L 10.386648 36.50988 
L 15.013296 36.5148 
L 19.639944 36.25404 
L 24.266593 36.46068 
L 28.893241 34.83708 
L 33.519889 34.57632 
L 38.146537 34.84692 
L 42.773185 35.00436 
L 47.399833 34.93056 
L 52.026481 35.088 
L 56.65313 35.78664 
L 61.279778 37.55292 
L 65.906426 37.26756 
L 70.533074 37.46436 
L 75.159722 37.44468 
L 79.78637 37.45944 
L 84.413019 38.41392 
L 89.039667 37.61196 
L 93.666315 36.95268 
L 98.292963 37.05108 
L 102.919611 38.37948 
L 107.546259 39.20604 
L 112.172907 41.03136 
L 116.799556 42.26628 
L 121.426204 41.73492 
L 125.332134 42.23676 
L 129.008873 43.38804 
L 133.633165 44.89356 
L 138.24 43.6242 
" clip-path="url(#pe2ca813614)" style="fill: none; stroke: #4a8dff; stroke-width: 0.6; stroke-linecap: round"/>
   </g>
   <g id="line2d_7">
    <path d="M 5.76 40.61316 
L 10.386648 40.84932 
L 15.013296 40.88376 
L 19.639944 40.6968 
L 24.266593 40.53936 
L 28.893241 38.50248 
L 33.519889 37.63656 
L 38.146537 38.34012 
L 42.773185 38.37456 
L 47.399833 38.5812 
L 52.026481 39.2454 
L 56.65313 39.8358 
L 61.279778 41.93172 
L 65.906426 41.42004 
L 70.533074 41.37576 
L 75.159722 41.39052 
L 79.78637 41.5086 
L 84.413019 42.80256 
L 89.039667 41.93664 
L 93.666315 41.49384 
L 98.292963 41.51352 
L 102.919611 43.78164 
L 107.546259 43.9932 
L 112.172907 46.66968 
L 116.799556 47.55036 
L 121.426204 46.64508 
L 125.332134 47.89476 
L 129.008873 48.89352 
L 133.633165 49.84308 
L 138.24 49.00176 
" clip-path="url(#pe2ca813614)" style="fill: none; stroke: #f5841e; stroke-width: 0.7; stroke-linecap: round"/>
   </g>
  </g>
 </g>
 <defs>
  <clipPath id="pe2ca813614">
   <rect x="5.76" y="3.6" width="132.48" height="49.2"/>
  </clipPath>
 </defs>
</svg>
