<?xml version="1.0" encoding="utf-8" standalone="no"?>
<!DOCTYPE svg PUBLIC "-//W3C//DTD SVG 1.1//EN"
  "http://www.w3.org/Graphics/SVG/1.1/DTD/svg11.dtd">
<svg xmlns:xlink="http://www.w3.org/1999/xlink" width="144pt" height="60pt" viewBox="0 0 144 60" xmlns="http://www.w3.org/2000/svg" version="1.1">
  <desc id="nav-meta">{"window":"6m","count":4,"labels":["27.10","26.12","24.02","24.04"],"tick_utc":["2025-10-27T12:00:00Z","2025-12-26T12:00:00Z","2026-02-24T01:30:44Z","2026-04-24T04:01:18Z"]}</desc>

 <metadata>
  <rdf:RDF xmlns:dc="http://purl.org/dc/elements/1.1/" xmlns:cc="http://creativecommons.org/ns#" xmlns:rdf="http://www.w3.org/1999/02/22-rdf-syntax-ns#">
   <cc:Work>
    <dc:type rdf:resource="http://purl.org/dc/dcmitype/StillImage"/>
    <dc:date>2026-04-24T19:37:52.274310</dc:date>
    <dc:format>image/svg+xml</dc:format>
    <dc:creator>
     <cc:Agent>
      <dc:title>Matplotlib v3.10.9, https://matplotlib.org/</dc:title>
     </cc:Agent>
    </dc:creator>
   </cc:Work>
  </rdf:RDF>
 </metadata>
 <defs>
  <style type="text/css">*{stroke-linejoin: round; stroke-linecap: butt}</style>
 </defs>
 <g id="figure_1">
  <g id="patch_1">
   <path d="M 0 60 
L 144 60 
L 144 0 
L 0 0 
L 0 60 
z
" style="fill: none; opacity: 0"/>
  </g>
  <g id="axes_1">
   <g id="patch_2">
    <path d="M 5.76 52.8 
L 138.24 52.8 
L 138.24 3.6 
L 5.76 3.6 
L 5.76 52.8 
z
" style="fill: none"/>
   </g>
   <g id="matplotlib.axis_1"/>
   <g id="matplotlib.axis_2"/>
   <g id="line2d_1">
    <path d="M 5.76 42.96 
L 138.24 42.96 
" clip-path="url(#p6b2048fd23)" style="fill: none; stroke: #b2b2b2; stroke-opacity: 0.35; stroke-width: 0.5; stroke-linecap: square"/>
   </g>
   <g id="line2d_2">
    <path d="M 5.76 33.12 
L 138.24 33.12 
" clip-path="url(#p6b2048fd23)" style="fill: none; stroke: #b2b2b2; stroke-opacity: 0.35; stroke-width: 0.5; stroke-linecap: square"/>
   </g>
   <g id="line2d_3">
    <path d="M 5.76 23.28 
L 138.24 23.28 
" clip-path="url(#p6b2048fd23)" style="fill: none; stroke: #b2b2b2; stroke-opacity: 0.35; stroke-width: 0.5; stroke-linecap: square"/>
   </g>
   <g id="line2d_4">
    <path d="M 5.76 13.44 
L 138.24 13.44 
" clip-path="url(#p6b2048fd23)" style="fill: none; stroke: #b2b2b2; stroke-opacity: 0.35; stroke-width: 0.5; stroke-linecap: square"/>
   </g>
   <g id="line2d_5">
    <path d="M 5.76 35.56032 
L 6.501489 35.72268 
L 7.242978 36.29832 
L 7.984466 36.32292 
L 8.725955 37.61688 
L 9.467444 37.2282 
L 10.208933 37.34628 
L 10.950422 37.23804 
L 11.69191 40.008 
L 12.433399 41.36592 
L 13.174888 40.43604 
L 13.916377 41.44956 
L 14.657865 40.53444 
L 15.399354 41.02152 
L 16.140843 40.22448 
L 16.882332 39.79644 
L 17.623821 41.51844 
L 18.365309 41.66604 
L 19.106798 42.714 
L 19.848287 43.51596 
L 20.589776 43.43724 
L 21.331265 43.71276 
L 22.072753 44.59836 
L 22.814242 43.30932 
L 23.555731 43.85052 
L 24.29722 44.21952 
L 25.038709 44.88372 
L 25.780197 44.99688 
L 26.521686 44.57868 
L 27.263175 43.5996 
L 28.004664 43.51596 
L 28.746153 43.00428 
L 29.487641 43.2798 
L 30.22913 43.71768 
L 31.712108 44.0916 
L 32.453596 45.11004 
L 33.195085 43.55532 
L 33.936574 42.72876 
L 35.419552 44.27364 
L 36.902529 44.47536 
L 37.644018 44.25888 
L 38.385507 43.64388 
L 39.126996 43.84068 
L 39.868484 43.85052 
L 40.609973 44.36712 
L 41.351462 44.26872 
L 42.092951 44.74104 
L 42.83444 44.98704 
L 43.575928 44.84436 
L 44.317417 45.58728 
L 45.058906 46.0596 
L 45.800395 45.18384 
L 48.76635 45.47904 
L 49.507839 45.65616 
L 50.249327 45.98088 
L 51.732305 45.38556 
L 52.473794 45.31668 
L 53.215283 45.58728 
L 53.956771 45.35604 
L 54.69826 45.40032 
L 55.439749 45.11496 
L 56.181238 44.42124 
L 57.664215 44.18508 
L 58.405704 43.62912 
L 59.147193 43.24044 
L 59.888682 43.8702 
L 60.630171 43.60944 
L 61.371659 43.92924 
L 62.113148 43.93416 
L 62.854637 43.46184 
L 63.596126 43.5012 
L 64.337614 42.72384 
L 65.079103 42.51228 
L 65.820592 43.08792 
L 66.562081 42.75828 
L 67.30357 42.90096 
L 68.786547 44.2392 
L 69.528036 45.23304 
L 70.269525 44.77548 
L 71.752502 45.04608 
L 72.493991 45.07068 
L 73.23548 46.1334 
L 73.976969 45.4446 
L 74.718458 45.06084 
L 75.459946 45.33144 
L 76.201435 46.30068 
L 76.942924 46.34496 
L 77.684413 47.89476 
L 78.425901 48.26376 
L 79.16739 47.96364 
L 80.382625 49.06572 
L 81.123736 50.04972 
L 81.86205 49.24776 
L 84.84153 49.59708 
L 85.58035 49.80372 
L 86.321616 49.86768 
L 87.054188 49.479 
L 87.756551 49.24776 
L 88.545601 49.48392 
L 89.193949 49.37568 
L 90.027403 49.479 
L 90.767991 49.7004 
L 92.992063 49.49376 
L 93.735783 49.98576 
L 94.414631 49.96608 
L 95.216091 49.7004 
L 95.954276 49.27236 
L 96.694357 49.37076 
L 97.42711 49.68072 
L 98.185445 49.25268 
L 98.919279 49.51344 
L 101.142912 49.09032 
L 103.368537 49.64628 
L 104.112249 49.58724 
L 104.848975 49.36092 
L 106.334578 49.45932 
L 107.074634 49.16904 
L 108.570811 49.27236 
L 109.314394 48.87384 
L 110.790051 48.70164 
L 111.531745 49.03128 
L 112.266017 49.1592 
L 113.003163 49.08048 
L 114.498971 49.36584 
L 116.030308 48.90828 
L 116.725591 49.05096 
L 118.202415 49.64628 
L 121.182274 49.59708 
L 121.913996 49.8726 
L 123.391472 49.80864 
L 125.624203 49.83816 
L 126.366894 49.50852 
L 127.105799 49.68564 
L 128.584263 49.48884 
L 129.339054 49.6512 
L 130.084344 49.69056 
L 130.821113 49.40028 
L 131.562035 49.58724 
L 133.780022 49.19856 
L 134.531303 49.43472 
L 135.274628 49.50852 
L 138.24 49.42488 
L 138.24 49.42488 
" clip-path="url(#p6b2048fd23)" style="fill: none; stroke: #bebebe; stroke-width: 0.6; stroke-linecap: round"/>
   </g>
   <g id="line2d_6">
    <path d="M 5.76 28.88388 
L 6.501489 29.15448 
L 7.242978 30.15324 
L 8.725955 31.4226 
L 9.467444 31.10772 
L 10.950422 30.66 
L 12.433399 34.99944 
L 13.174888 34.07448 
L 13.916377 34.9158 
L 14.657865 34.02528 
L 15.399354 34.26144 
L 16.140843 33.0216 
L 16.882332 33.10524 
L 17.623821 34.1532 
L 18.365309 34.2024 
L 19.106798 35.4324 
L 19.848287 36.34752 
L 20.589776 35.89488 
L 22.072753 36.94776 
L 22.814242 36.2688 
L 23.555731 36.97236 
L 24.29722 38.286 
L 25.038709 38.76324 
L 25.780197 38.73864 
L 26.521686 38.51724 
L 27.263175 37.42992 
L 28.004664 37.42008 
L 28.746153 36.90348 
L 29.487641 36.98712 
L 30.22913 36.86412 
L 30.970619 37.16424 
L 31.712108 37.14948 
L 32.453596 38.52216 
L 33.936574 35.71776 
L 34.678063 36.15564 
L 35.419552 36.93792 
L 36.902529 36.72636 
L 37.644018 36.21468 
L 38.385507 34.8174 
L 39.126996 34.7928 
L 39.868484 35.42748 
L 40.609973 36.49512 
L 41.351462 36.28356 
L 42.092951 36.6378 
L 42.83444 37.3512 
L 43.575928 37.3512 
L 44.317417 38.31552 
L 45.058906 38.32536 
L 45.800395 37.26264 
L 46.541883 37.26264 
L 47.283372 37.09044 
L 48.024861 37.06092 
L 48.76635 37.34628 
L 49.507839 37.48404 
L 50.249327 37.77924 
L 51.732305 37.45944 
L 53.215283 37.56276 
L 53.956771 37.31184 
L 54.69826 37.33644 
L 55.439749 37.09536 
L 56.181238 36.23928 
L 57.664215 36.11628 
L 58.405704 35.48652 
L 59.147193 35.0142 
L 59.888682 35.93424 
L 60.630171 36.36228 
L 61.371659 36.50988 
L 62.113148 36.5148 
L 62.854637 36.25404 
L 63.596126 36.46068 
L 64.337614 34.83708 
L 65.079103 34.57632 
L 66.562081 35.00436 
L 67.30357 34.93056 
L 68.045058 35.088 
L 68.786547 35.78664 
L 69.528036 37.55292 
L 70.269525 37.26756 
L 71.011014 37.46436 
L 72.493991 37.45944 
L 73.23548 38.41392 
L 74.718458 36.95268 
L 75.459946 37.05108 
L 76.201435 38.37948 
L 76.942924 39.20604 
L 77.684413 41.03136 
L 78.425901 42.26628 
L 79.16739 41.73492 
L 79.793373 42.23676 
L 81.123736 44.89356 
L 81.86205 43.6242 
L 83.355858 43.53072 
L 84.101578 43.72752 
L 85.58035 44.436 
L 86.321616 44.49012 
L 87.054188 43.81608 
L 87.756551 43.7226 
L 88.545601 44.5344 
L 89.193949 44.19 
L 90.027403 44.21952 
L 91.505146 44.51472 
L 92.992063 44.3868 
L 93.735783 45.174 
L 94.414631 45.23796 
L 95.216091 44.81484 
L 95.954276 43.821 
L 96.694357 44.01288 
L 97.42711 44.66232 
L 98.185445 43.93908 
L 98.919279 44.39664 
L 99.662492 44.12112 
L 100.399827 44.33268 
L 101.142912 43.3044 
L 101.884049 43.6242 
L 102.619848 44.29824 
L 103.368537 44.53932 
L 104.112249 44.30808 
L 104.848975 43.8702 
L 105.590172 44.00304 
L 106.334578 43.97844 
L 107.074634 43.41756 
L 108.570811 43.48644 
L 109.314394 42.49752 
L 110.042906 41.73984 
L 110.790051 41.7546 
L 111.531745 42.591 
L 112.266017 43.14204 
L 113.003163 43.083 
L 113.75574 43.35852 
L 114.498971 43.78164 
L 115.233594 43.21584 
L 116.030308 42.9354 
L 116.725591 43.10268 
L 118.202415 44.25396 
L 120.434425 43.74228 
L 121.182274 43.46676 
L 122.656334 43.79148 
L 124.144126 43.77672 
L 124.887529 43.2552 
L 125.624203 43.40772 
L 126.366894 42.49752 
L 127.105799 42.90588 
L 127.854111 42.8616 
L 128.584263 42.41388 
L 130.084344 42.79764 
L 130.821113 41.57256 
L 131.562035 41.86284 
L 132.306734 41.63652 
L 133.046712 41.85792 
L 133.780022 41.22324 
L 134.531303 41.76936 
L 135.274628 42.1482 
L 136.012865 41.96616 
L 136.752053 41.59224 
L 138.24 41.99076 
L 138.24 41.99076 
" clip-path="url(#p6b2048fd23)" style="fill: none; stroke: #4a8dff; stroke-width: 0.6; stroke-linecap: round"/>
   </g>
   <g id="line2d_7">
    <path d="M 5.76 29.0118 
L 6.501489 29.15448 
L 7.242978 29.76456 
L 7.984466 31.2012 
L 8.725955 32.09172 
L 9.467444 31.43244 
L 10.950422 30.90108 
L 11.69191 32.93796 
L 12.433399 35.35368 
L 13.174888 34.24668 
L 13.916377 35.5062 
L 14.657865 34.48284 
L 15.399354 35.02896 
L 16.140843 33.8334 
L 16.882332 33.243 
L 17.623821 34.69932 
L 18.365309 35.4078 
L 19.106798 36.2934 
L 19.848287 38.901 
L 20.589776 38.37948 
L 21.331265 38.92068 
L 22.072753 40.09164 
L 22.814242 39.70788 
L 23.555731 40.4262 
L 24.29722 42.75336 
L 25.038709 43.54548 
L 25.780197 43.72752 
L 26.521686 42.6894 
L 27.263175 41.976 
L 28.004664 42.42864 
L 28.746153 40.86408 
L 29.487641 40.47048 
L 31.712108 40.89852 
L 32.453596 42.9354 
L 33.195085 40.43604 
L 33.936574 39.31428 
L 34.678063 40.04244 
L 35.419552 41.43972 
L 36.16104 41.47416 
L 36.902529 41.02152 
L 37.644018 40.7952 
L 38.385507 39.75708 
L 39.126996 40.11132 
L 39.868484 39.87024 
L 40.609973 40.94772 
L 41.351462 40.97232 
L 42.83444 42.87144 
L 43.575928 42.17772 
L 44.317417 43.04364 
L 45.058906 43.34868 
L 45.800395 42.03504 
L 47.283372 41.8038 
L 48.024861 41.84316 
L 48.76635 42.37944 
L 49.507839 42.26628 
L 50.249327 42.468 
L 50.990816 42.42864 
L 51.732305 42.18264 
L 52.473794 42.1728 
L 53.215283 42.50244 
L 53.956771 41.88252 
L 54.69826 42.32532 
L 56.181238 41.13468 
L 57.664215 40.42128 
L 58.405704 39.16176 
L 59.147193 39.28968 
L 59.888682 40.48032 
L 62.113148 40.88376 
L 63.596126 40.53936 
L 64.337614 38.50248 
L 65.079103 37.63656 
L 65.820592 38.34012 
L 66.562081 38.37456 
L 67.30357 38.5812 
L 68.786547 39.8358 
L 69.528036 41.93172 
L 70.269525 41.42004 
L 71.752502 41.39052 
L 72.493991 41.5086 
L 73.23548 42.80256 
L 73.976969 41.93664 
L 74.718458 41.49384 
L 75.459946 41.51352 
L 76.201435 43.78164 
L 76.942924 43.9932 
L 77.684413 46.66968 
L 78.425901 47.55036 
L 79.16739 46.64508 
L 80.382625 48.89352 
L 81.123736 49.84308 
L 81.86205 49.00176 
L 82.620488 49.233 
L 83.355858 48.97716 
L 84.84153 49.36092 
L 86.321616 49.58724 
L 87.054188 49.28712 
L 87.756551 49.16904 
L 88.545601 49.39044 
L 89.193949 49.29696 
L 90.767991 49.55772 
L 92.992063 49.41996 
L 93.735783 49.8234 
L 94.414631 49.86768 
L 95.216091 49.72992 
L 95.954276 49.39536 
L 97.42711 49.6758 
L 98.185445 49.47408 
L 98.919279 49.60692 
L 99.662492 49.37568 
L 100.399827 49.36584 
L 101.142912 48.6672 
L 101.884049 48.95256 
L 102.619848 49.36092 
L 103.368537 49.54788 
L 104.112249 49.5282 
L 104.848975 49.09032 
L 106.334578 49.2084 
L 107.074634 48.93288 
L 108.570811 48.89844 
L 109.314394 48.48024 
L 110.042906 48.1998 
L 110.790051 48.28344 
L 111.531745 48.88368 
L 112.266017 49.04604 
L 113.003163 49.00176 
L 114.498971 49.38552 
L 115.233594 49.04112 
L 116.030308 48.92796 
L 116.725591 48.987 
L 118.202415 49.66104 
L 121.182274 49.40028 
L 121.913996 49.56756 
L 123.391472 49.56264 
L 124.144126 49.53312 
L 124.887529 49.25268 
L 125.624203 49.29696 
L 126.366894 48.89352 
L 127.105799 48.96732 
L 128.584263 48.5934 
L 129.339054 48.84432 
L 130.084344 48.95748 
L 130.821113 48.30804 
L 131.562035 48.34248 
L 132.306734 48.21456 
L 133.046712 48.26376 
L 133.780022 47.41752 
L 134.531303 48.05712 
L 135.274628 48.26376 
L 136.012865 48.01776 
L 136.752053 47.23548 
L 138.24 47.15676 
L 138.24 47.15676 
" clip-path="url(#p6b2048fd23)" style="fill: none; stroke: #f5841e; stroke-width: 0.7; stroke-linecap: round"/>
   </g>
  </g>
 </g>
 <defs>
  <clipPath id="p6b2048fd23">
   <rect x="5.76" y="3.6" width="132.48" height="49.2"/>
  </clipPath>
 </defs>
</svg>
