<?xml version="1.0" encoding="utf-8" standalone="no"?>
<!DOCTYPE svg PUBLIC "-//W3C//DTD SVG 1.1//EN"
  "http://www.w3.org/Graphics/SVG/1.1/DTD/svg11.dtd">
<svg xmlns:xlink="http://www.w3.org/1999/xlink" width="144pt" height="60pt" viewBox="0 0 144 60" xmlns="http://www.w3.org/2000/svg" version="1.1">
  <desc id="nav-meta">{"window":"1y","count":4,"labels":["04.02","07.06","09.10","04.02"],"idxs":[0,123,247,370]}</desc>

 <metadata>
  <rdf:RDF xmlns:dc="http://purl.org/dc/elements/1.1/" xmlns:cc="http://creativecommons.org/ns#" xmlns:rdf="http://www.w3.org/1999/02/22-rdf-syntax-ns#">
   <cc:Work>
    <dc:type rdf:resource="http://purl.org/dc/dcmitype/StillImage"/>
    <dc:date>2026-02-04T05:02:38.630772</dc:date>
    <dc:format>image/svg+xml</dc:format>
    <dc:creator>
     <cc:Agent>
      <dc:title>Matplotlib v3.10.8, https://matplotlib.org/</dc:title>
     </cc:Agent>
    </dc:creator>
   </cc:Work>
  </rdf:RDF>
 </metadata>
 <defs>
  <style type="text/css">*{stroke-linejoin: round; stroke-linecap: butt}</style>
 </defs>
 <g id="figure_1">
  <g id="patch_1">
   <path d="M 0 60 
L 144 60 
L 144 0 
L 0 0 
L 0 60 
z
" style="fill: none; opacity: 0"/>
  </g>
  <g id="axes_1">
   <g id="patch_2">
    <path d="M 5.76 52.8 
L 138.24 52.8 
L 138.24 3.6 
L 5.76 3.6 
L 5.76 52.8 
z
" style="fill: none"/>
   </g>
   <g id="matplotlib.axis_1"/>
   <g id="matplotlib.axis_2"/>
   <g id="line2d_1">
    <path d="M 5.76 42.96 
L 138.24 42.96 
" clip-path="url(#p21424524c5)" style="fill: none; stroke: #b2b2b2; stroke-opacity: 0.35; stroke-width: 0.5; stroke-linecap: square"/>
   </g>
   <g id="line2d_2">
    <path d="M 5.76 33.12 
L 138.24 33.12 
" clip-path="url(#p21424524c5)" style="fill: none; stroke: #b2b2b2; stroke-opacity: 0.35; stroke-width: 0.5; stroke-linecap: square"/>
   </g>
   <g id="line2d_3">
    <path d="M 5.76 23.28 
L 138.24 23.28 
" clip-path="url(#p21424524c5)" style="fill: none; stroke: #b2b2b2; stroke-opacity: 0.35; stroke-width: 0.5; stroke-linecap: square"/>
   </g>
   <g id="line2d_4">
    <path d="M 5.76 13.44 
L 138.24 13.44 
" clip-path="url(#p21424524c5)" style="fill: none; stroke: #b2b2b2; stroke-opacity: 0.35; stroke-width: 0.5; stroke-linecap: square"/>
   </g>
   <g id="line2d_5">
    <path d="M 5.76 33.489 
L 6.834162 36.95268 
L 7.192216 36.57384 
L 7.55027 35.6046 
L 7.908324 35.51112 
L 8.266378 35.56524 
L 9.340541 36.318 
L 9.698595 35.61444 
L 10.414703 37.11012 
L 11.130811 39.59472 
L 11.488865 39.57504 
L 11.846919 38.69436 
L 12.204973 39.60948 
L 12.563027 39.19128 
L 12.921081 39.72756 
L 13.279135 43.23552 
L 13.637189 42.81732 
L 13.995243 44.08176 
L 14.353297 43.698 
L 14.711351 42.3204 
L 15.069405 42.94032 
L 15.427459 38.41392 
L 15.785514 43.0584 
L 16.143568 42.72384 
L 16.501622 42.58116 
L 16.859676 42.9354 
L 17.21773 43.49136 
L 17.575784 43.79148 
L 18.291892 46.14816 
L 18.649946 45.28224 
L 19.008 45.13464 
L 19.366054 45.5676 
L 19.724108 44.22444 
L 20.082162 43.92924 
L 20.440216 45.18876 
L 20.79827 44.91324 
L 21.156324 45.297 
L 21.514378 43.95384 
L 21.872432 44.99196 
L 22.588541 44.89848 
L 22.946595 44.41632 
L 23.304649 43.30932 
L 23.662703 42.87144 
L 24.020757 43.76196 
L 24.378811 43.59468 
L 24.736865 44.76072 
L 25.094919 45.40524 
L 25.811027 45.35604 
L 26.169081 45.10512 
L 26.527135 46.24164 
L 26.885189 46.3548 
L 27.243243 45.63648 
L 27.601297 45.97104 
L 27.959351 47.84556 
L 28.317405 47.71272 
L 28.675459 47.88 
L 29.033514 46.12848 
L 29.391568 46.91568 
L 30.107676 44.40648 
L 30.46573 44.91816 
L 30.823784 44.76564 
L 31.181838 45.16908 
L 31.539892 44.49504 
L 31.897946 44.08668 
L 32.256 44.17032 
L 32.614054 43.43232 
L 33.330162 43.86528 
L 33.688216 42.23676 
L 34.404324 41.7792 
L 35.478486 42.31056 
L 35.836541 42.345 
L 36.194595 42.5418 
L 36.552649 42.37944 
L 36.910703 41.98584 
L 37.268757 42.345 
L 37.626811 42.49752 
L 37.984865 42.86652 
L 38.342919 42.49752 
L 39.059027 42.44832 
L 39.417081 40.33272 
L 39.775135 39.12732 
L 40.133189 38.52216 
L 40.491243 39.10272 
L 40.849297 38.901 
L 41.207351 37.6464 
L 41.923459 39.639 
L 42.639568 40.008 
L 42.997622 39.27492 
L 43.355676 39.90468 
L 43.71373 39.6882 
L 44.429838 38.22696 
L 44.787892 38.901 
L 45.145946 38.69436 
L 45.862054 38.86164 
L 46.220108 38.62056 
L 46.936216 39.88992 
L 47.29427 41.23308 
L 48.368432 41.17404 
L 49.084541 41.62176 
L 49.442595 42.79272 
L 49.800649 42.30564 
L 50.516757 41.7546 
L 50.874811 40.62792 
L 51.232865 40.131 
L 51.590919 40.6476 
L 51.948973 41.73492 
L 52.665081 42.76812 
L 53.023135 41.73492 
L 53.381189 41.89728 
L 53.739243 42.345 
L 54.097297 42.5664 
L 54.455351 42.46308 
L 55.171459 44.20476 
L 55.529514 44.45076 
L 55.887568 42.7632 
L 56.245622 42.63036 
L 56.603676 42.94524 
L 56.96173 43.52088 
L 57.319784 43.1076 
L 57.677838 41.98092 
L 58.393946 41.43972 
L 58.752 42.4926 
L 59.110054 41.79888 
L 59.468108 41.78412 
L 59.826162 42.37452 
L 60.184216 42.3942 
L 60.54227 41.83332 
L 60.900324 42.24168 
L 61.258378 41.84316 
L 61.974486 40.2786 
L 62.332541 40.42128 
L 62.690595 40.71648 
L 63.406703 40.48032 
L 63.764757 40.26384 
L 64.122811 38.97972 
L 64.838919 38.51724 
L 65.196973 38.57628 
L 65.555027 38.04492 
L 65.913081 36.03264 
L 66.271135 34.88136 
L 66.629189 36.92316 
L 66.987243 37.8432 
L 67.345297 37.37088 
L 67.703351 37.53324 
L 68.061405 37.056 
L 68.419459 37.77924 
L 68.777514 38.02032 
L 69.135568 38.45328 
L 69.493622 39.1962 
L 69.851676 40.41636 
L 70.20973 40.97232 
L 70.567784 40.53444 
L 70.925838 39.55536 
L 71.283892 40.24908 
L 71.641946 39.7128 
L 72 38.778 
L 72.358054 38.59104 
L 73.074162 37.794 
L 73.432216 38.82228 
L 73.79027 36.53448 
L 74.148324 35.334 
L 74.864432 37.44468 
L 75.222486 36.90348 
L 75.580541 36.65748 
L 76.296649 38.64516 
L 76.654703 37.2282 
L 77.012757 38.14332 
L 77.370811 35.53572 
L 77.728865 35.04372 
L 78.086919 34.80264 
L 78.444973 37.23804 
L 79.519135 33.67104 
L 79.877189 34.90596 
L 80.951351 35.9736 
L 81.309405 34.36476 
L 81.667459 34.1778 
L 82.025514 35.22084 
L 82.383568 35.11752 
L 82.741622 35.54556 
L 84.173838 32.44104 
L 84.531892 31.83096 
L 84.889946 30.06468 
L 85.248 30.01056 
L 85.606054 30.291 
L 85.964108 31.16184 
L 86.322162 30.74856 
L 86.680216 29.71536 
L 87.03827 29.37588 
L 87.396324 30.57636 
L 87.754378 30.42876 
L 88.112432 30.79284 
L 88.470486 32.91828 
L 88.828541 33.72024 
L 89.186595 34.05972 
L 89.544649 36.5886 
L 89.902703 34.90104 
L 90.260757 35.10276 
L 90.618811 34.16796 
L 90.976865 33.8826 
L 91.334919 34.43364 
L 92.051027 31.05852 
L 92.409081 31.26024 
L 92.767135 31.92936 
L 93.125189 31.85064 
L 93.483243 31.3242 
L 93.841297 32.84448 
L 94.199351 31.78176 
L 94.557405 32.85924 
L 94.915459 36.8838 
L 95.273514 38.39424 
L 95.631568 35.95392 
L 95.989622 34.53696 
L 96.347676 35.20608 
L 97.063784 37.57752 
L 97.421838 37.90716 
L 97.779892 37.18884 
L 98.137946 37.18392 
L 98.496 36.89364 
L 98.854054 37.42008 
L 99.212108 38.17284 
L 99.570162 36.687 
L 99.928216 36.42132 
L 100.28627 36.34752 
L 100.644324 35.56032 
L 101.002378 35.72268 
L 101.360432 36.29832 
L 101.718486 36.32292 
L 102.076541 37.61688 
L 102.434595 37.2282 
L 102.792649 37.34628 
L 103.150703 37.23804 
L 103.508757 40.008 
L 103.866811 41.36592 
L 104.224865 40.43604 
L 104.582919 41.44956 
L 104.940973 40.53444 
L 105.299027 41.02152 
L 105.657081 40.22448 
L 106.015135 39.79644 
L 106.373189 41.51844 
L 106.731243 41.66604 
L 107.447351 43.51596 
L 107.805405 43.43724 
L 108.163459 43.71276 
L 108.521514 44.59836 
L 108.879568 43.30932 
L 109.95373 44.88372 
L 110.311784 44.99688 
L 110.669838 44.57868 
L 111.027892 43.5996 
L 111.385946 43.51596 
L 111.744 43.00428 
L 112.102054 43.2798 
L 112.460108 43.71768 
L 113.176216 44.0916 
L 113.53427 45.11004 
L 113.892324 43.55532 
L 114.250378 42.72876 
L 114.966486 44.27364 
L 115.682595 44.47536 
L 116.040649 44.25888 
L 116.398703 43.64388 
L 116.756757 43.84068 
L 117.114811 43.85052 
L 117.472865 44.36712 
L 117.830919 44.26872 
L 118.188973 44.74104 
L 118.547027 44.98704 
L 118.905081 44.84436 
L 119.263135 45.58728 
L 119.621189 46.0596 
L 119.979243 45.18384 
L 121.411459 45.47904 
L 121.769514 45.65616 
L 122.127568 45.98088 
L 122.843676 45.38556 
L 123.20173 45.31668 
L 123.559784 45.58728 
L 123.917838 45.35604 
L 124.275892 45.40032 
L 124.633946 45.11496 
L 124.992 44.42124 
L 125.708108 44.18508 
L 126.424216 43.24044 
L 126.78227 43.8702 
L 127.140324 43.60944 
L 127.498378 43.92924 
L 127.856432 43.93416 
L 128.214486 43.46184 
L 128.572541 43.5012 
L 128.930595 42.72384 
L 129.288649 42.51228 
L 129.646703 43.08792 
L 130.004757 42.75828 
L 130.362811 42.90096 
L 131.078919 44.2392 
L 131.436973 45.23304 
L 131.795027 44.77548 
L 132.511135 45.04608 
L 132.869189 45.07068 
L 133.227243 46.1334 
L 133.585297 45.4446 
L 133.943351 45.06084 
L 134.301405 45.33144 
L 134.659459 46.30068 
L 135.017514 46.34496 
L 135.375568 47.89476 
L 135.733622 48.26376 
L 136.091676 47.96364 
L 136.44973 48.2736 
L 137.165838 48.4212 
L 137.523892 48.58848 
L 137.881946 48.42612 
L 138.24 48.50976 
L 138.24 48.50976 
" clip-path="url(#p21424524c5)" style="fill: none; stroke: #bebebe; stroke-width: 0.6; stroke-linecap: round"/>
   </g>
   <g id="line2d_6">
    <path d="M 5.76 37.9662 
L 6.118054 38.93544 
L 6.476108 38.5812 
L 6.834162 39.31428 
L 7.192216 39.762 
L 8.266378 39.50124 
L 8.624432 39.9096 
L 8.982486 38.96496 
L 9.340541 39.393 
L 9.698595 39.0486 
L 10.414703 39.50616 
L 10.772757 38.9256 
L 11.130811 39.43728 
L 11.846919 38.9256 
L 12.204973 39.516 
L 12.563027 38.76816 
L 12.921081 38.32044 
L 13.279135 40.61316 
L 13.637189 40.6722 
L 13.995243 41.86776 
L 14.353297 42.01536 
L 14.711351 42.50736 
L 15.069405 42.66972 
L 15.427459 40.51476 
L 15.785514 43.12728 
L 16.143568 42.96 
L 16.501622 42.468 
L 16.859676 42.74352 
L 17.21773 43.17648 
L 17.575784 42.75828 
L 18.291892 45.0264 
L 18.649946 44.7312 
L 19.008 44.805 
L 19.366054 45.14448 
L 20.082162 44.59836 
L 20.440216 44.96736 
L 20.79827 44.67216 
L 21.156324 44.64756 
L 21.514378 43.74228 
L 21.872432 44.30808 
L 22.230486 44.42616 
L 22.946595 44.1654 
L 23.304649 43.6242 
L 23.662703 43.68816 
L 24.020757 44.10144 
L 24.378811 44.15064 
L 24.736865 44.9034 
L 25.094919 45.38064 
L 25.452973 45.55284 
L 25.811027 45.41508 
L 26.169081 44.8296 
L 26.527135 45.6168 
L 26.885189 45.45936 
L 27.601297 45.5184 
L 27.959351 47.18136 
L 28.317405 47.3142 
L 28.675459 47.90952 
L 29.033514 46.56144 
L 29.391568 47.54052 
L 29.749622 47.23056 
L 30.107676 46.67952 
L 30.46573 47.03376 
L 30.823784 46.85172 
L 31.181838 47.08788 
L 31.539892 47.16168 
L 32.256 47.07804 
L 32.614054 46.896 
L 32.972108 47.10756 
L 33.330162 47.16168 
L 33.688216 45.87264 
L 34.04627 45.63156 
L 34.404324 45.80376 
L 35.120432 45.43968 
L 35.478486 45.63156 
L 36.194595 45.61188 
L 36.552649 45.63156 
L 36.910703 45.31176 
L 37.626811 45.3462 
L 37.984865 45.52824 
L 38.700973 45.47412 
L 39.059027 45.51348 
L 39.417081 42.77796 
L 39.775135 41.75952 
L 40.133189 40.04244 
L 40.491243 40.58364 
L 40.849297 40.69188 
L 41.207351 39.38808 
L 41.923459 40.33764 
L 42.281514 40.32288 
L 42.639568 40.81488 
L 42.997622 40.88376 
L 43.355676 40.44588 
L 43.71373 40.46556 
L 44.071784 40.21956 
L 44.429838 39.52584 
L 44.787892 40.49508 
L 45.862054 40.19496 
L 46.220108 39.4914 
L 46.578162 39.38808 
L 46.936216 39.69312 
L 47.29427 40.46556 
L 48.010378 40.36716 
L 48.368432 39.8604 
L 48.726486 39.96372 
L 49.084541 39.85548 
L 49.442595 41.1888 
L 50.158703 40.4508 
L 50.516757 40.5738 
L 51.232865 38.45328 
L 51.590919 38.68452 
L 51.948973 39.55536 
L 52.307027 40.09164 
L 52.665081 40.39668 
L 53.381189 40.2048 
L 53.739243 40.52952 
L 54.455351 40.48032 
L 55.171459 42.26136 
L 55.529514 42.5664 
L 55.887568 41.17404 
L 56.245622 41.0166 
L 56.603676 41.22324 
L 57.319784 41.17896 
L 57.677838 41.08056 
L 58.035892 40.61808 
L 58.393946 40.7214 
L 58.752 41.30688 
L 59.110054 40.11132 
L 59.468108 39.99816 
L 59.826162 40.56888 
L 60.184216 40.51476 
L 60.54227 40.131 
L 60.900324 40.3278 
L 61.258378 39.81612 
L 61.974486 37.46436 
L 62.332541 37.39056 
L 62.690595 37.50372 
L 63.406703 37.01172 
L 63.764757 36.16056 
L 64.122811 34.4976 
L 64.480865 33.69072 
L 65.196973 32.89368 
L 65.555027 31.73256 
L 65.913081 31.68336 
L 66.271135 31.8162 
L 66.629189 32.64276 
L 66.987243 32.0868 
L 67.703351 31.85064 
L 68.061405 30.98964 
L 68.419459 31.53576 
L 68.777514 31.521 
L 69.135568 31.38816 
L 69.493622 32.17044 
L 69.851676 33.68088 
L 70.20973 34.28604 
L 70.567784 33.58248 
L 70.925838 32.0376 
L 71.283892 32.76576 
L 71.641946 32.259 
L 72 30.65508 
L 72.358054 29.93676 
L 72.716108 28.14588 
L 73.432216 28.40664 
L 73.79027 25.73508 
L 74.148324 24.62316 
L 74.506378 26.10408 
L 74.864432 26.97984 
L 75.222486 27.00936 
L 75.580541 26.58132 
L 75.938595 27.7818 
L 76.296649 29.49888 
L 76.654703 27.68832 
L 77.012757 28.44108 
L 77.370811 24.16068 
L 77.728865 24.55428 
L 78.086919 24.51984 
L 78.444973 27.32916 
L 78.803027 25.7646 
L 79.161081 26.48784 
L 79.519135 26.43372 
L 79.877189 27.44724 
L 80.593297 27.27504 
L 80.951351 27.8802 
L 81.309405 27.72276 
L 81.667459 26.84208 
L 82.025514 27.91956 
L 82.383568 27.8556 
L 82.741622 28.09668 
L 83.099676 27.87528 
L 83.815784 27.83592 
L 84.173838 27.57024 
L 84.531892 26.77812 
L 84.889946 25.01184 
L 85.606054 25.71048 
L 85.964108 26.31564 
L 86.322162 26.45832 
L 86.680216 25.8384 
L 87.03827 25.84824 
L 87.396324 26.6994 
L 87.754378 26.62068 
L 88.112432 26.8224 
L 88.470486 28.61328 
L 89.186595 28.97244 
L 89.544649 30.99456 
L 89.902703 29.76456 
L 90.260757 29.8974 
L 90.618811 29.02164 
L 90.976865 28.50012 
L 91.334919 29.00688 
L 92.051027 26.601 
L 92.409081 26.3796 
L 92.767135 26.5764 
L 93.125189 26.3796 
L 93.483243 25.1496 
L 93.841297 26.81256 
L 94.199351 26.29596 
L 94.557405 27.41772 
L 94.915459 31.19136 
L 95.273514 31.80144 
L 95.631568 28.89864 
L 95.989622 28.28364 
L 97.063784 30.80268 
L 97.421838 31.22088 
L 97.779892 30.8076 
L 98.137946 30.13356 
L 98.496 30.17784 
L 99.212108 31.42752 
L 100.28627 30.3648 
L 100.644324 28.88388 
L 101.002378 29.15448 
L 101.360432 30.15324 
L 102.076541 31.4226 
L 102.792649 30.9306 
L 103.150703 30.66 
L 103.866811 34.99944 
L 104.224865 34.07448 
L 104.582919 34.9158 
L 104.940973 34.02528 
L 105.299027 34.26144 
L 105.657081 33.0216 
L 106.015135 33.10524 
L 106.373189 34.1532 
L 106.731243 34.2024 
L 107.447351 36.34752 
L 107.805405 35.89488 
L 108.521514 36.94776 
L 108.879568 36.2688 
L 109.237622 36.97236 
L 109.595676 38.286 
L 109.95373 38.76324 
L 110.311784 38.73864 
L 110.669838 38.51724 
L 111.027892 37.42992 
L 111.385946 37.42008 
L 111.744 36.90348 
L 112.102054 36.98712 
L 112.460108 36.86412 
L 112.818162 37.16424 
L 113.176216 37.14948 
L 113.53427 38.52216 
L 114.250378 35.71776 
L 114.608432 36.15564 
L 114.966486 36.93792 
L 115.682595 36.72636 
L 116.040649 36.21468 
L 116.398703 34.8174 
L 116.756757 34.7928 
L 117.114811 35.42748 
L 117.472865 36.49512 
L 117.830919 36.28356 
L 118.188973 36.6378 
L 118.547027 37.3512 
L 118.905081 37.3512 
L 119.263135 38.31552 
L 119.621189 38.32536 
L 119.979243 37.26264 
L 120.337297 37.26264 
L 120.695351 37.09044 
L 121.053405 37.06092 
L 121.411459 37.34628 
L 121.769514 37.48404 
L 122.127568 37.77924 
L 122.843676 37.45944 
L 123.559784 37.56276 
L 123.917838 37.31184 
L 124.275892 37.33644 
L 124.633946 37.09536 
L 124.992 36.23928 
L 125.708108 36.11628 
L 126.424216 35.0142 
L 126.78227 35.93424 
L 127.140324 36.36228 
L 127.498378 36.50988 
L 127.856432 36.5148 
L 128.214486 36.25404 
L 128.572541 36.46068 
L 128.930595 34.83708 
L 129.288649 34.57632 
L 130.004757 35.00436 
L 130.362811 34.93056 
L 130.720865 35.088 
L 131.078919 35.78664 
L 131.436973 37.55292 
L 131.795027 37.26756 
L 132.153081 37.46436 
L 132.869189 37.45944 
L 133.227243 38.41392 
L 133.943351 36.95268 
L 134.301405 37.05108 
L 134.659459 38.37948 
L 135.017514 39.20604 
L 135.375568 41.03136 
L 135.733622 42.26628 
L 136.091676 41.73492 
L 136.44973 42.46308 
L 136.807784 42.53688 
L 137.165838 42.74844 
L 137.523892 43.31424 
L 138.24 42.26136 
L 138.24 42.26136 
" clip-path="url(#p21424524c5)" style="fill: none; stroke: #4a8dff; stroke-width: 0.7; stroke-linecap: round"/>
   </g>
   <g id="line2d_7">
    <path d="M 5.76 35.43732 
L 6.118054 37.09044 
L 6.476108 37.84812 
L 7.55027 37.86288 
L 7.908324 37.8678 
L 8.266378 37.44468 
L 8.624432 38.26632 
L 8.982486 37.2282 
L 9.340541 37.85796 
L 9.698595 37.4004 
L 10.056649 37.36104 
L 10.414703 38.0646 
L 11.130811 38.3844 
L 11.488865 37.86288 
L 11.846919 36.9576 
L 12.204973 38.06952 
L 12.563027 37.85796 
L 12.921081 37.97604 
L 13.279135 40.41144 
L 13.637189 41.71524 
L 13.995243 44.11128 
L 14.353297 43.71276 
L 14.711351 43.8456 
L 15.069405 43.07316 
L 15.427459 38.99448 
L 15.785514 43.01412 
L 16.143568 42.42864 
L 16.501622 40.80012 
L 16.859676 41.10024 
L 17.21773 42.69432 
L 17.575784 43.00428 
L 17.933838 45.666 
L 18.291892 46.64016 
L 18.649946 44.6574 
L 19.008 44.12112 
L 19.366054 45.4938 
L 19.724108 44.07684 
L 20.082162 43.8702 
L 20.440216 44.75088 
L 20.79827 44.02764 
L 21.156324 44.66724 
L 21.514378 42.67464 
L 21.872432 43.92924 
L 22.588541 44.1654 
L 23.304649 42.4188 
L 23.662703 42.32532 
L 24.020757 42.60084 
L 24.378811 42.468 
L 24.736865 43.88496 
L 25.094919 44.71644 
L 25.452973 44.87388 
L 25.811027 44.79516 
L 26.169081 43.452 
L 26.527135 44.79024 
L 27.243243 44.13588 
L 27.601297 44.2638 
L 27.959351 46.9206 
L 28.317405 46.44336 
L 28.675459 47.85048 
L 29.033514 44.74596 
L 29.391568 46.23672 
L 29.749622 44.34252 
L 30.107676 43.41756 
L 30.46573 44.25888 
L 30.823784 43.80624 
L 31.181838 44.23428 
L 31.539892 44.01288 
L 31.897946 43.60452 
L 32.256 43.85052 
L 32.614054 43.50612 
L 32.972108 43.53072 
L 33.330162 42.35976 
L 33.688216 39.33396 
L 34.04627 39.3192 
L 34.404324 39.18636 
L 34.762378 38.74356 
L 35.120432 38.80752 
L 35.478486 39.2208 
L 35.836541 38.61564 
L 36.194595 38.9994 
L 36.552649 39.00924 
L 36.910703 37.92684 
L 37.268757 37.71528 
L 37.626811 38.17284 
L 37.984865 38.96496 
L 38.342919 38.74848 
L 38.700973 37.71528 
L 39.059027 37.63164 
L 39.417081 34.64028 
L 39.775135 34.69932 
L 40.133189 33.87276 
L 40.491243 34.18764 
L 40.849297 34.73868 
L 41.207351 34.09416 
L 41.565405 34.38444 
L 41.923459 34.33032 
L 42.639568 34.57632 
L 42.997622 33.18396 
L 43.355676 33.38076 
L 43.71373 32.81004 
L 44.071784 31.38816 
L 44.429838 30.45336 
L 44.787892 32.59848 
L 45.145946 32.29344 
L 45.504 31.78176 
L 45.862054 31.53084 
L 46.220108 31.68336 
L 46.578162 32.28852 
L 47.29427 34.1778 
L 47.652324 33.84324 
L 48.010378 33.3414 
L 48.368432 33.25284 
L 49.084541 33.7842 
L 49.442595 35.34384 
L 49.800649 33.981 
L 50.158703 33.35616 
L 50.516757 33.35124 
L 50.874811 31.09296 
L 51.232865 31.11756 
L 51.590919 31.87524 
L 51.948973 33.20856 
L 52.307027 33.17412 
L 52.665081 33.45456 
L 53.023135 33.4152 
L 53.381189 32.7264 
L 53.739243 33.84816 
L 54.455351 33.84324 
L 55.529514 35.73744 
L 55.887568 33.4398 
L 56.245622 33.20856 
L 56.603676 32.58372 
L 56.96173 32.71164 
L 57.677838 32.53944 
L 58.035892 32.013 
L 58.752 33.3906 
L 59.110054 31.80144 
L 59.468108 31.41768 
L 59.826162 32.19012 
L 60.184216 32.10156 
L 60.54227 31.60956 
L 60.900324 32.0622 
L 61.258378 31.73748 
L 61.616432 30.56652 
L 61.974486 28.31808 
L 62.332541 27.48168 
L 62.690595 27.55548 
L 63.048649 26.71908 
L 63.406703 26.36484 
L 63.764757 27.42756 
L 64.480865 26.55672 
L 64.838919 27.27504 
L 65.196973 27.31932 
L 65.555027 27.63912 
L 65.913081 27.52596 
L 66.271135 26.3058 
L 66.629189 26.96016 
L 66.987243 27.09792 
L 67.345297 27.49644 
L 67.703351 27.2898 
L 68.061405 26.57148 
L 68.419459 27.27012 
L 69.135568 27.35376 
L 69.851676 29.62188 
L 70.20973 29.96136 
L 70.567784 29.14956 
L 70.925838 28.68216 
L 71.283892 29.184 
L 71.641946 28.7412 
L 72 27.5358 
L 72.358054 27.91956 
L 72.716108 28.00812 
L 73.074162 26.64528 
L 73.432216 26.88636 
L 73.79027 26.1828 
L 74.148324 24.52476 
L 74.506378 27.0684 
L 74.864432 27.59484 
L 75.580541 27.49644 
L 75.938595 28.13112 
L 76.296649 29.8482 
L 76.654703 29.12004 
L 77.012757 30.03024 
L 77.370811 27.84576 
L 78.086919 29.54316 
L 78.444973 31.13232 
L 78.803027 30.31068 
L 79.161081 30.62064 
L 79.519135 29.97612 
L 79.877189 31.97364 
L 80.235243 31.82112 
L 80.593297 32.0868 
L 80.951351 31.63416 
L 81.309405 30.6354 
L 81.667459 30.37464 
L 82.025514 30.86172 
L 82.383568 30.89616 
L 82.741622 31.11756 
L 83.45773 30.22212 
L 83.815784 30.45828 
L 84.173838 29.2578 
L 84.531892 28.50504 
L 84.889946 28.18032 
L 85.248 28.2738 
L 85.606054 28.569 
L 85.964108 28.55424 
L 86.322162 27.8802 
L 86.680216 28.03272 
L 87.03827 27.69324 
L 87.396324 28.42632 
L 87.754378 28.3968 
L 88.112432 28.60344 
L 88.470486 29.88756 
L 88.828541 30.22212 
L 89.186595 29.58252 
L 89.544649 31.73256 
L 89.902703 31.36356 
L 90.260757 31.39308 
L 90.976865 29.09544 
L 91.334919 29.2332 
L 91.692973 27.02412 
L 92.409081 25.16928 
L 92.767135 25.10532 
L 93.483243 23.92452 
L 93.841297 25.53336 
L 94.199351 24.62808 
L 94.557405 25.4448 
L 94.915459 29.64156 
L 95.273514 30.80268 
L 95.631568 28.65756 
L 95.989622 28.6428 
L 96.70573 30.87156 
L 97.063784 32.17044 
L 97.421838 32.97732 
L 97.779892 32.628 
L 98.137946 31.90476 
L 98.496 30.92076 
L 98.854054 31.96872 
L 99.212108 32.39676 
L 99.570162 31.19628 
L 100.28627 30.42384 
L 100.644324 29.0118 
L 101.002378 29.15448 
L 101.360432 29.76456 
L 101.718486 31.2012 
L 102.076541 32.09172 
L 102.434595 31.43244 
L 103.150703 30.90108 
L 103.866811 35.35368 
L 104.224865 34.24668 
L 104.582919 35.5062 
L 104.940973 34.48284 
L 105.299027 35.02896 
L 105.657081 33.8334 
L 106.015135 33.243 
L 106.373189 34.69932 
L 107.089297 36.2934 
L 107.447351 38.901 
L 107.805405 38.37948 
L 108.163459 38.92068 
L 108.521514 40.09164 
L 108.879568 39.70788 
L 109.237622 40.4262 
L 109.595676 42.75336 
L 109.95373 43.54548 
L 110.311784 43.72752 
L 111.027892 41.976 
L 111.385946 42.42864 
L 111.744 40.86408 
L 112.102054 40.47048 
L 113.176216 40.89852 
L 113.53427 42.9354 
L 113.892324 40.43604 
L 114.250378 39.31428 
L 114.608432 40.04244 
L 114.966486 41.43972 
L 115.324541 41.47416 
L 115.682595 41.02152 
L 116.040649 40.7952 
L 116.398703 39.75708 
L 116.756757 40.11132 
L 117.114811 39.87024 
L 117.472865 40.94772 
L 117.830919 40.97232 
L 118.547027 42.87144 
L 118.905081 42.17772 
L 119.263135 43.04364 
L 119.621189 43.34868 
L 119.979243 42.03504 
L 120.695351 41.8038 
L 121.053405 41.84316 
L 121.411459 42.37944 
L 121.769514 42.26628 
L 122.127568 42.468 
L 122.485622 42.42864 
L 122.843676 42.18264 
L 123.20173 42.1728 
L 123.559784 42.50244 
L 123.917838 41.88252 
L 124.275892 42.32532 
L 124.992 41.13468 
L 125.708108 40.42128 
L 126.066162 39.16176 
L 126.424216 39.28968 
L 126.78227 40.48032 
L 127.856432 40.88376 
L 128.572541 40.53936 
L 128.930595 38.50248 
L 129.288649 37.63656 
L 129.646703 38.34012 
L 130.004757 38.37456 
L 130.362811 38.5812 
L 131.078919 39.8358 
L 131.436973 41.93172 
L 131.795027 41.42004 
L 132.511135 41.39052 
L 132.869189 41.5086 
L 133.227243 42.80256 
L 133.585297 41.93664 
L 133.943351 41.49384 
L 134.301405 41.51352 
L 134.659459 43.78164 
L 135.017514 43.9932 
L 135.375568 46.66968 
L 135.733622 47.55036 
L 136.091676 46.64508 
L 136.44973 47.7078 
L 137.523892 48.57864 
L 138.24 47.8308 
L 138.24 47.8308 
" clip-path="url(#p21424524c5)" style="fill: none; stroke: #f5841e; stroke-width: 0.8; stroke-linecap: round"/>
   </g>
  </g>
 </g>
 <defs>
  <clipPath id="p21424524c5">
   <rect x="5.76" y="3.6" width="132.48" height="49.2"/>
  </clipPath>
 </defs>
</svg>
