<?xml version="1.0" encoding="utf-8" standalone="no"?>
<!DOCTYPE svg PUBLIC "-//W3C//DTD SVG 1.1//EN"
  "http://www.w3.org/Graphics/SVG/1.1/DTD/svg11.dtd">
<svg xmlns:xlink="http://www.w3.org/1999/xlink" width="144pt" height="60pt" viewBox="0 0 144 60" xmlns="http://www.w3.org/2000/svg" version="1.1">
  <desc id="nav-meta">{"window":"6m","count":4,"labels":["21.12","19.02","20.04","19.06"],"tick_utc":["2025-12-21T12:00:00Z","2026-02-19T03:28:49Z","2026-04-20T04:02:26Z","2026-06-19T05:57:01Z"]}</desc>

 <metadata>
  <rdf:RDF xmlns:dc="http://purl.org/dc/elements/1.1/" xmlns:cc="http://creativecommons.org/ns#" xmlns:rdf="http://www.w3.org/1999/02/22-rdf-syntax-ns#">
   <cc:Work>
    <dc:type rdf:resource="http://purl.org/dc/dcmitype/StillImage"/>
    <dc:date>2026-06-19T11:06:52.555619</dc:date>
    <dc:format>image/svg+xml</dc:format>
    <dc:creator>
     <cc:Agent>
      <dc:title>Matplotlib v3.11.0, https://matplotlib.org/</dc:title>
     </cc:Agent>
    </dc:creator>
   </cc:Work>
  </rdf:RDF>
 </metadata>
 <defs>
  <style type="text/css">*{stroke-linejoin: round; stroke-linecap: butt}</style>
 </defs>
 <g id="figure_1">
  <g id="patch_1">
   <path d="M 0 60 
L 144 60 
L 144 0 
L 0 0 
L 0 60 
z
" style="fill: none; opacity: 0"/>
  </g>
  <g id="axes_1">
   <g id="patch_2">
    <path d="M 5.76 52.8 
L 138.24 52.8 
L 138.24 3.6 
L 5.76 3.6 
L 5.76 52.8 
z
" style="fill: none"/>
   </g>
   <g id="matplotlib.axis_1"/>
   <g id="matplotlib.axis_2"/>
   <g id="line2d_1">
    <path d="M 5.76 42.96 
L 138.24 42.96 
" clip-path="url(#pf2f19c949b)" style="fill: none; stroke: #b2b2b2; stroke-opacity: 0.35; stroke-width: 0.5; stroke-linecap: square"/>
   </g>
   <g id="line2d_2">
    <path d="M 5.76 33.12 
L 138.24 33.12 
" clip-path="url(#pf2f19c949b)" style="fill: none; stroke: #b2b2b2; stroke-opacity: 0.35; stroke-width: 0.5; stroke-linecap: square"/>
   </g>
   <g id="line2d_3">
    <path d="M 5.76 23.28 
L 138.24 23.28 
" clip-path="url(#pf2f19c949b)" style="fill: none; stroke: #b2b2b2; stroke-opacity: 0.35; stroke-width: 0.5; stroke-linecap: square"/>
   </g>
   <g id="line2d_4">
    <path d="M 5.76 13.44 
L 138.24 13.44 
" clip-path="url(#pf2f19c949b)" style="fill: none; stroke: #b2b2b2; stroke-opacity: 0.35; stroke-width: 0.5; stroke-linecap: square"/>
   </g>
   <g id="line2d_5">
    <path d="M 5.76 45.23796 
L 7.234064 45.24288 
L 9.445161 45.98088 
L 10.919225 45.38556 
L 11.656257 45.31668 
L 12.393289 45.58728 
L 13.130321 45.35604 
L 13.867354 45.40032 
L 14.604386 45.11496 
L 15.341418 44.42124 
L 16.815482 44.18508 
L 17.552514 43.62912 
L 18.289546 43.24044 
L 19.026578 43.8702 
L 19.763611 43.60944 
L 20.500643 43.92924 
L 21.237675 43.93416 
L 21.974707 43.46184 
L 22.711739 43.5012 
L 23.448771 42.72384 
L 24.185803 42.51228 
L 24.922836 43.08792 
L 25.659868 42.75828 
L 26.3969 42.90096 
L 27.870964 44.2392 
L 28.607996 45.23304 
L 29.345028 44.77548 
L 30.819093 45.04608 
L 31.556125 45.07068 
L 32.293157 46.1334 
L 33.030189 45.4446 
L 33.767221 45.06084 
L 34.504253 45.33144 
L 35.241286 46.30068 
L 35.978318 46.34496 
L 36.71535 47.89476 
L 37.452382 48.26376 
L 38.189414 47.96364 
L 39.397345 49.06572 
L 40.134002 50.04972 
L 40.867878 49.24776 
L 43.82945 49.59708 
L 44.563829 49.80372 
L 45.30064 49.86768 
L 46.028809 49.479 
L 46.72695 49.24776 
L 47.511258 49.48392 
L 48.155709 49.37568 
L 48.984154 49.479 
L 49.72029 49.7004 
L 51.930994 49.49376 
L 52.670245 49.98576 
L 53.345013 49.96608 
L 54.141656 49.7004 
L 54.875404 49.27236 
L 55.611037 49.37076 
L 56.339385 49.68072 
L 57.093162 49.25268 
L 57.822585 49.51344 
L 60.032854 49.09032 
L 62.245102 49.64628 
L 62.984344 49.58724 
L 63.716642 49.36092 
L 65.193316 49.45932 
L 65.928924 49.16904 
L 67.416108 49.27236 
L 68.155222 48.87384 
L 69.622009 48.70164 
L 70.359246 49.03128 
L 71.089104 49.1592 
L 71.82182 49.08048 
L 73.308637 49.36584 
L 74.830771 48.90828 
L 75.521875 49.05096 
L 76.989823 49.64628 
L 79.951771 49.59708 
L 80.679095 49.8726 
L 82.147691 49.80864 
L 84.367003 49.83816 
L 85.105229 49.50852 
L 85.839693 49.68564 
L 87.309271 49.48884 
L 88.059525 49.6512 
L 88.800336 49.69056 
L 89.532677 49.40028 
L 90.269146 49.58724 
L 92.473802 49.19856 
L 93.220567 49.43472 
L 93.959425 49.50852 
L 97.63521 49.37568 
L 98.383708 49.4052 
L 99.128682 49.29204 
L 99.867258 49.5528 
L 100.602277 49.50852 
L 101.340546 49.64136 
L 102.803853 49.56264 
L 103.555848 49.57248 
L 104.292624 49.42488 
L 105.013423 49.49376 
L 106.500666 49.25268 
L 107.225432 49.24284 
L 107.965159 48.80004 
L 108.717043 48.85416 
L 110.186689 48.63276 
L 110.927227 48.66228 
L 111.66344 49.09524 
L 112.404106 48.99192 
L 113.879766 49.34616 
L 114.623955 49.47408 
L 116.095375 49.54788 
L 116.836604 49.3314 
L 117.567989 49.34616 
L 118.294895 49.51836 
L 119.790328 49.41504 
L 121.99547 49.7742 
L 124.211532 49.61676 
L 125.689247 49.7988 
L 126.434571 50.19732 
L 127.169078 50.45808 
L 127.893971 50.59092 
L 128.619675 50.99928 
L 130.112839 50.74344 
L 130.835804 50.62536 
L 131.58048 50.80248 
L 134.535782 50.56632 
L 136.038552 50.23176 
L 136.752108 50.2416 
L 138.24 50.55156 
L 138.24 50.55156 
" clip-path="url(#pf2f19c949b)" style="fill: none; stroke: #bebebe; stroke-width: 0.6; stroke-linecap: round"/>
   </g>
   <g id="line2d_6">
    <path d="M 5.76 37.26264 
L 6.497032 37.09044 
L 7.234064 37.06092 
L 7.971096 37.34628 
L 8.708129 37.48404 
L 9.445161 37.77924 
L 10.919225 37.45944 
L 12.393289 37.56276 
L 13.130321 37.31184 
L 13.867354 37.33644 
L 14.604386 37.09536 
L 15.341418 36.23928 
L 16.815482 36.11628 
L 17.552514 35.48652 
L 18.289546 35.0142 
L 19.026578 35.93424 
L 19.763611 36.36228 
L 20.500643 36.50988 
L 21.237675 36.5148 
L 21.974707 36.25404 
L 22.711739 36.46068 
L 23.448771 34.83708 
L 24.185803 34.57632 
L 25.659868 35.00436 
L 26.3969 34.93056 
L 27.133932 35.088 
L 27.870964 35.78664 
L 28.607996 37.55292 
L 29.345028 37.26756 
L 30.082061 37.46436 
L 31.556125 37.45944 
L 32.293157 38.41392 
L 33.767221 36.95268 
L 34.504253 37.05108 
L 35.241286 38.37948 
L 35.978318 39.20604 
L 36.71535 41.03136 
L 37.452382 42.26628 
L 38.189414 41.73492 
L 38.811635 42.23676 
L 40.134002 44.89356 
L 40.867878 43.6242 
L 42.352707 43.53072 
L 43.093945 43.72752 
L 44.563829 44.436 
L 45.30064 44.49012 
L 46.028809 43.81608 
L 46.72695 43.7226 
L 47.511258 44.5344 
L 48.155709 44.19 
L 48.984154 44.21952 
L 50.453015 44.51472 
L 51.930994 44.3868 
L 52.670245 45.174 
L 53.345013 45.23796 
L 54.141656 44.81484 
L 54.875404 43.821 
L 55.611037 44.01288 
L 56.339385 44.66232 
L 57.093162 43.93908 
L 57.822585 44.39664 
L 58.561332 44.12112 
L 59.294236 44.33268 
L 60.032854 43.3044 
L 60.769537 43.6242 
L 61.500913 44.29824 
L 62.245102 44.53932 
L 62.984344 44.30808 
L 63.716642 43.8702 
L 64.453384 44.00304 
L 65.193316 43.97844 
L 65.928924 43.41756 
L 67.416108 43.48644 
L 68.155222 42.49752 
L 68.879356 41.73984 
L 69.622009 41.7546 
L 70.359246 42.591 
L 71.089104 43.14204 
L 71.82182 43.083 
L 72.569873 43.35852 
L 73.308637 43.78164 
L 74.038845 43.21584 
L 74.830771 42.9354 
L 75.521875 43.10268 
L 76.989823 44.25396 
L 79.208417 43.74228 
L 79.951771 43.46676 
L 81.416972 43.79148 
L 82.895822 43.77672 
L 83.634756 43.2552 
L 84.367003 43.40772 
L 85.105229 42.49752 
L 85.839693 42.90588 
L 86.583507 42.8616 
L 87.309271 42.41388 
L 88.800336 42.79764 
L 89.532677 41.57256 
L 90.269146 41.86284 
L 91.009368 41.63652 
L 91.744899 41.85792 
L 92.473802 41.22324 
L 93.220567 41.76936 
L 93.959425 42.1482 
L 94.693224 41.96616 
L 95.42797 41.59224 
L 96.906973 41.99076 
L 97.63521 41.91696 
L 98.383708 41.98584 
L 99.128682 41.41512 
L 99.867258 42.15312 
L 100.602277 41.96124 
L 101.340546 42.43848 
L 102.803853 42.02028 
L 103.555848 42.0252 
L 104.292624 41.40528 
L 105.763438 41.52336 
L 107.225432 42.1974 
L 107.965159 41.8776 
L 109.459893 41.8038 
L 110.186689 41.976 
L 110.927227 42.00552 
L 111.66344 42.3942 
L 112.404106 42.27612 
L 113.879766 42.85176 
L 114.623955 43.31424 
L 115.355707 43.2306 
L 116.095375 43.39296 
L 116.836604 43.16172 
L 117.567989 43.24536 
L 118.294895 43.71768 
L 119.043597 43.33392 
L 121.260793 43.67832 
L 121.99547 44.32776 
L 122.733049 44.13588 
L 123.459452 44.16048 
L 124.211532 43.96368 
L 124.959466 44.2392 
L 125.689247 44.19984 
L 126.434571 45.16908 
L 127.169078 45.67584 
L 127.893971 46.00548 
L 128.619675 47.57004 
L 130.112839 46.64016 
L 130.835804 46.34496 
L 131.58048 46.82712 
L 133.061761 46.51716 
L 133.793402 46.5516 
L 134.535782 46.46304 
L 136.752108 45.6414 
L 137.485608 46.09404 
L 138.24 46.3302 
L 138.24 46.3302 
" clip-path="url(#pf2f19c949b)" style="fill: none; stroke: #4a8dff; stroke-width: 0.6; stroke-linecap: round"/>
   </g>
   <g id="line2d_7">
    <path d="M 5.76 41.91696 
L 6.497032 41.8038 
L 7.234064 41.84316 
L 7.971096 42.37944 
L 8.708129 42.26628 
L 9.445161 42.468 
L 10.182193 42.42864 
L 10.919225 42.18264 
L 11.656257 42.1728 
L 12.393289 42.50244 
L 13.130321 41.88252 
L 13.867354 42.32532 
L 15.341418 41.13468 
L 16.815482 40.42128 
L 17.552514 39.16176 
L 18.289546 39.28968 
L 19.026578 40.48032 
L 21.237675 40.88376 
L 22.711739 40.53936 
L 23.448771 38.50248 
L 24.185803 37.63656 
L 24.922836 38.34012 
L 25.659868 38.37456 
L 26.3969 38.5812 
L 27.870964 39.8358 
L 28.607996 41.93172 
L 29.345028 41.42004 
L 30.819093 41.39052 
L 31.556125 41.5086 
L 32.293157 42.80256 
L 33.030189 41.93664 
L 33.767221 41.49384 
L 34.504253 41.51352 
L 35.241286 43.78164 
L 35.978318 43.9932 
L 36.71535 46.66968 
L 37.452382 47.55036 
L 38.189414 46.64508 
L 39.397345 48.89352 
L 40.134002 49.84308 
L 40.867878 49.00176 
L 41.621757 49.233 
L 42.352707 48.97716 
L 43.82945 49.36092 
L 45.30064 49.58724 
L 46.028809 49.28712 
L 46.72695 49.16904 
L 47.511258 49.39044 
L 48.155709 49.29696 
L 49.72029 49.55772 
L 51.930994 49.41996 
L 52.670245 49.8234 
L 53.345013 49.86768 
L 54.141656 49.72992 
L 54.875404 49.39536 
L 56.339385 49.6758 
L 57.093162 49.47408 
L 57.822585 49.60692 
L 58.561332 49.37568 
L 59.294236 49.36584 
L 60.032854 48.6672 
L 60.769537 48.95256 
L 61.500913 49.36092 
L 62.245102 49.54788 
L 62.984344 49.5282 
L 63.716642 49.09032 
L 65.193316 49.2084 
L 65.928924 48.93288 
L 67.416108 48.89844 
L 68.155222 48.48024 
L 68.879356 48.1998 
L 69.622009 48.28344 
L 70.359246 48.88368 
L 71.089104 49.04604 
L 71.82182 49.00176 
L 73.308637 49.38552 
L 74.038845 49.04112 
L 74.830771 48.92796 
L 75.521875 48.987 
L 76.989823 49.66104 
L 79.951771 49.40028 
L 80.679095 49.56756 
L 82.147691 49.56264 
L 82.895822 49.53312 
L 83.634756 49.25268 
L 84.367003 49.29696 
L 85.105229 48.89352 
L 85.839693 48.96732 
L 87.309271 48.5934 
L 88.059525 48.84432 
L 88.800336 48.95748 
L 89.532677 48.30804 
L 90.269146 48.34248 
L 91.009368 48.21456 
L 91.744899 48.26376 
L 92.473802 47.41752 
L 93.220567 48.05712 
L 93.959425 48.26376 
L 94.693224 48.01776 
L 95.42797 47.23548 
L 97.63521 47.1666 
L 98.383708 47.31912 
L 99.128682 46.49256 
L 99.867258 47.64876 
L 100.602277 47.5356 
L 101.340546 48.0276 
L 102.085631 47.50608 
L 102.803853 46.81728 
L 103.555848 46.92552 
L 104.292624 45.85788 
L 105.763438 45.29208 
L 106.500666 45.58728 
L 107.225432 46.2564 
L 107.965159 45.7152 
L 110.927227 45.42492 
L 111.66344 46.38432 
L 112.404106 45.57744 
L 113.131729 46.51716 
L 113.879766 46.95996 
L 114.623955 47.54544 
L 116.095375 47.66844 
L 116.836604 47.05344 
L 117.567989 47.22564 
L 118.294895 48.07188 
L 119.790328 47.37324 
L 121.260793 48.07188 
L 121.99547 48.59832 
L 122.733049 48.52452 
L 123.459452 48.5688 
L 124.211532 48.38676 
L 124.959466 48.55404 
L 127.169078 49.93656 
L 127.893971 49.98084 
L 128.619675 50.3646 
L 129.372548 50.15796 
L 130.835804 49.99068 
L 131.58048 50.217 
L 133.061761 49.98084 
L 134.535782 49.87752 
L 135.297314 49.69548 
L 136.752108 49.7004 
L 138.24 50.06448 
L 138.24 50.06448 
" clip-path="url(#pf2f19c949b)" style="fill: none; stroke: #f5841e; stroke-width: 0.7; stroke-linecap: round"/>
   </g>
  </g>
 </g>
 <defs>
  <clipPath id="pf2f19c949b">
   <rect x="5.76" y="3.6" width="132.48" height="49.2"/>
  </clipPath>
 </defs>
</svg>
