<?xml version="1.0" encoding="utf-8" standalone="no"?>
<!DOCTYPE svg PUBLIC "-//W3C//DTD SVG 1.1//EN"
  "http://www.w3.org/Graphics/SVG/1.1/DTD/svg11.dtd">
<svg xmlns:xlink="http://www.w3.org/1999/xlink" width="144pt" height="60pt" viewBox="0 0 144 60" xmlns="http://www.w3.org/2000/svg" version="1.1">
  <desc id="nav-meta">{"window":"1m","count":4,"labels":["15.03","25.03","03.04","13.04"],"tick_utc":["2026-03-15T03:42:35Z","2026-03-25T05:09:13Z","2026-04-03T03:37:13Z","2026-04-13T04:02:42Z"]}</desc>

 <metadata>
  <rdf:RDF xmlns:dc="http://purl.org/dc/elements/1.1/" xmlns:cc="http://creativecommons.org/ns#" xmlns:rdf="http://www.w3.org/1999/02/22-rdf-syntax-ns#">
   <cc:Work>
    <dc:type rdf:resource="http://purl.org/dc/dcmitype/StillImage"/>
    <dc:date>2026-04-13T14:18:09.455111</dc:date>
    <dc:format>image/svg+xml</dc:format>
    <dc:creator>
     <cc:Agent>
      <dc:title>Matplotlib v3.10.8, https://matplotlib.org/</dc:title>
     </cc:Agent>
    </dc:creator>
   </cc:Work>
  </rdf:RDF>
 </metadata>
 <defs>
  <style type="text/css">*{stroke-linejoin: round; stroke-linecap: butt}</style>
 </defs>
 <g id="figure_1">
  <g id="patch_1">
   <path d="M 0 60 
L 144 60 
L 144 0 
L 0 0 
L 0 60 
z
" style="fill: none; opacity: 0"/>
  </g>
  <g id="axes_1">
   <g id="patch_2">
    <path d="M 5.76 52.8 
L 138.24 52.8 
L 138.24 3.6 
L 5.76 3.6 
L 5.76 52.8 
z
" style="fill: none"/>
   </g>
   <g id="matplotlib.axis_1"/>
   <g id="matplotlib.axis_2"/>
   <g id="line2d_1">
    <path d="M 5.76 42.96 
L 138.24 42.96 
" clip-path="url(#p076b975a69)" style="fill: none; stroke: #b2b2b2; stroke-opacity: 0.35; stroke-width: 0.5; stroke-linecap: square"/>
   </g>
   <g id="line2d_2">
    <path d="M 5.76 33.12 
L 138.24 33.12 
" clip-path="url(#p076b975a69)" style="fill: none; stroke: #b2b2b2; stroke-opacity: 0.35; stroke-width: 0.5; stroke-linecap: square"/>
   </g>
   <g id="line2d_3">
    <path d="M 5.76 23.28 
L 138.24 23.28 
" clip-path="url(#p076b975a69)" style="fill: none; stroke: #b2b2b2; stroke-opacity: 0.35; stroke-width: 0.5; stroke-linecap: square"/>
   </g>
   <g id="line2d_4">
    <path d="M 5.76 13.44 
L 138.24 13.44 
" clip-path="url(#p076b975a69)" style="fill: none; stroke: #b2b2b2; stroke-opacity: 0.35; stroke-width: 0.5; stroke-linecap: square"/>
   </g>
   <g id="line2d_5">
    <path d="M 5.76 49.27236 
L 10.338971 48.87384 
L 14.825141 48.74592 
L 19.426044 48.70164 
L 23.993389 49.03128 
L 28.51502 49.1592 
L 33.054355 49.08048 
L 37.688711 49.21332 
L 42.265516 49.36584 
L 46.789313 49.11 
L 51.695467 48.90828 
L 55.977009 49.05096 
L 60.548846 49.37076 
L 65.07127 49.64628 
L 69.699548 49.6266 
L 74.278678 49.602 
L 78.815952 49.59708 
L 83.421189 49.59708 
L 87.927124 49.8726 
L 92.498432 49.88244 
L 97.025401 49.80864 
L 101.660233 49.78896 
L 106.238094 49.69056 
L 110.774523 49.83816 
L 115.347998 49.50852 
L 119.898167 49.68564 
L 124.506257 49.6266 
L 129.002521 49.48884 
L 133.650512 49.6512 
L 138.24 49.69056 
" clip-path="url(#p076b975a69)" style="fill: none; stroke: #bebebe; stroke-width: 0.6; stroke-linecap: round"/>
   </g>
   <g id="line2d_6">
    <path d="M 5.76 43.48644 
L 10.338971 42.49752 
L 14.825141 41.73984 
L 19.426044 41.7546 
L 23.993389 42.591 
L 28.51502 43.14204 
L 33.054355 43.083 
L 37.688711 43.35852 
L 42.265516 43.78164 
L 46.789313 43.21584 
L 51.695467 42.9354 
L 55.977009 43.10268 
L 60.548846 43.72752 
L 65.07127 44.25396 
L 69.699548 44.10636 
L 74.278678 43.9194 
L 78.815952 43.74228 
L 83.421189 43.46676 
L 87.927124 43.65372 
L 92.498432 43.79148 
L 97.025401 43.81116 
L 101.660233 43.77672 
L 106.238094 43.2552 
L 110.774523 43.40772 
L 115.347998 42.49752 
L 119.898167 42.90588 
L 124.506257 42.8616 
L 129.002521 42.41388 
L 133.650512 42.63036 
L 138.24 42.79764 
" clip-path="url(#p076b975a69)" style="fill: none; stroke: #4a8dff; stroke-width: 0.6; stroke-linecap: round"/>
   </g>
   <g id="line2d_7">
    <path d="M 5.76 48.89844 
L 10.338971 48.48024 
L 14.825141 48.1998 
L 19.426044 48.28344 
L 23.993389 48.88368 
L 28.51502 49.04604 
L 33.054355 49.00176 
L 37.688711 49.20348 
L 42.265516 49.38552 
L 46.789313 49.04112 
L 51.695467 48.92796 
L 55.977009 48.987 
L 60.548846 49.29204 
L 65.07127 49.66104 
L 69.699548 49.56756 
L 74.278678 49.53312 
L 78.815952 49.46424 
L 83.421189 49.40028 
L 87.927124 49.56756 
L 92.498432 49.59708 
L 97.025401 49.56264 
L 101.660233 49.53312 
L 106.238094 49.25268 
L 110.774523 49.29696 
L 115.347998 48.89352 
L 119.898167 48.96732 
L 124.506257 48.8148 
L 129.002521 48.5934 
L 133.650512 48.84432 
L 138.24 48.95748 
" clip-path="url(#p076b975a69)" style="fill: none; stroke: #f5841e; stroke-width: 0.7; stroke-linecap: round"/>
   </g>
  </g>
 </g>
 <defs>
  <clipPath id="p076b975a69">
   <rect x="5.76" y="3.6" width="132.48" height="49.2"/>
  </clipPath>
 </defs>
</svg>
