<?xml version="1.0" encoding="utf-8" standalone="no"?>
<!DOCTYPE svg PUBLIC "-//W3C//DTD SVG 1.1//EN"
  "http://www.w3.org/Graphics/SVG/1.1/DTD/svg11.dtd">
<svg xmlns:xlink="http://www.w3.org/1999/xlink" width="144pt" height="60pt" viewBox="0 0 144 60" xmlns="http://www.w3.org/2000/svg" version="1.1">
  <desc id="nav-meta">{"window":"2w","count":4,"labels":["18.01","22.01","28.01","01.02"],"idxs":[0,56,111,167]}</desc>

 <metadata>
  <rdf:RDF xmlns:dc="http://purl.org/dc/elements/1.1/" xmlns:cc="http://creativecommons.org/ns#" xmlns:rdf="http://www.w3.org/1999/02/22-rdf-syntax-ns#">
   <cc:Work>
    <dc:type rdf:resource="http://purl.org/dc/dcmitype/StillImage"/>
    <dc:date>2026-02-01T18:58:24.431287</dc:date>
    <dc:format>image/svg+xml</dc:format>
    <dc:creator>
     <cc:Agent>
      <dc:title>Matplotlib v3.10.8, https://matplotlib.org/</dc:title>
     </cc:Agent>
    </dc:creator>
   </cc:Work>
  </rdf:RDF>
 </metadata>
 <defs>
  <style type="text/css">*{stroke-linejoin: round; stroke-linecap: butt}</style>
 </defs>
 <g id="figure_1">
  <g id="patch_1">
   <path d="M 0 60 
L 144 60 
L 144 0 
L 0 0 
L 0 60 
z
" style="fill: none; opacity: 0"/>
  </g>
  <g id="axes_1">
   <g id="patch_2">
    <path d="M 5.76 52.8 
L 138.24 52.8 
L 138.24 3.6 
L 5.76 3.6 
L 5.76 52.8 
z
" style="fill: none"/>
   </g>
   <g id="matplotlib.axis_1"/>
   <g id="matplotlib.axis_2"/>
   <g id="line2d_1">
    <path d="M 5.76 42.96 
L 138.24 42.96 
" clip-path="url(#pa0c98facf5)" style="fill: none; stroke: #b2b2b2; stroke-opacity: 0.35; stroke-width: 0.5; stroke-linecap: square"/>
   </g>
   <g id="line2d_2">
    <path d="M 5.76 33.12 
L 138.24 33.12 
" clip-path="url(#pa0c98facf5)" style="fill: none; stroke: #b2b2b2; stroke-opacity: 0.35; stroke-width: 0.5; stroke-linecap: square"/>
   </g>
   <g id="line2d_3">
    <path d="M 5.76 23.28 
L 138.24 23.28 
" clip-path="url(#pa0c98facf5)" style="fill: none; stroke: #b2b2b2; stroke-opacity: 0.35; stroke-width: 0.5; stroke-linecap: square"/>
   </g>
   <g id="line2d_4">
    <path d="M 5.76 13.44 
L 138.24 13.44 
" clip-path="url(#pa0c98facf5)" style="fill: none; stroke: #b2b2b2; stroke-opacity: 0.35; stroke-width: 0.5; stroke-linecap: square"/>
   </g>
   <g id="line2d_5">
    <path d="M 6.154286 37.77924 
L 8.509423 37.74972 
L 9.294469 38.807931 
L 10.668299 38.841454 
L 12.042129 38.782619 
L 13.023436 38.70912 
L 13.612221 38.781153 
L 14.593528 38.86656 
L 14.986051 38.975621 
L 15.771096 39.41268 
L 16.752404 39.486223 
L 17.537449 39.57996 
L 23.03277 39.51391 
L 23.817816 39.3438 
L 24.799123 39.23927 
L 25.584169 39.18144 
L 26.369214 39.262653 
L 27.350522 39.30936 
L 31.079489 39.426428 
L 31.668273 39.52092 
L 56.397215 39.5862 
L 56.986 39.64392 
L 58.752353 39.730075 
L 59.537398 39.76692 
L 61.303751 39.656407 
L 65.621503 39.584565 
L 67.780379 39.639 
L 73.079438 39.74724 
L 74.845791 39.892046 
L 75.630837 40.75584 
L 76.415882 40.707696 
L 77.200928 40.27368 
L 79.752327 40.164179 
L 80.733634 40.06212 
L 87.406523 40.027225 
L 88.387831 39.63408 
L 99.378471 39.713651 
L 100.359779 39.9096 
L 100.948563 39.965428 
L 101.733609 40.17528 
L 104.088746 40.261912 
L 104.873792 40.7706 
L 107.032668 40.87392 
L 109.191544 41.106509 
L 110.172851 41.13468 
L 111.939204 40.869 
L 112.920511 40.791864 
L 113.705557 40.6722 
L 114.294341 40.722353 
L 115.079387 41.04612 
L 115.864433 41.145898 
L 116.649478 41.84316 
L 117.434524 41.951253 
L 118.21957 42.77304 
L 120.574707 42.724163 
L 121.359753 42.27612 
L 133.920485 42.336289 
L 134.901793 42.60084 
L 137.845714 42.60084 
L 137.845714 42.60084 
" clip-path="url(#pa0c98facf5)" style="fill: none; stroke: #bebebe; stroke-width: 0.6; stroke-linecap: round"/>
   </g>
   <g id="line2d_6">
    <path d="M 6.154286 31.68336 
L 6.939331 31.68336 
L 7.724377 32.575669 
L 9.294469 32.62308 
L 12.042129 32.56896 
L 12.630913 32.629774 
L 13.415959 32.85432 
L 14.004743 32.85432 
L 15.182312 33.42504 
L 15.771096 33.519173 
L 16.556142 33.9072 
L 17.733711 34.004801 
L 18.518757 34.04988 
L 19.303802 34.142883 
L 20.088848 34.18764 
L 23.621554 34.124003 
L 24.4066 33.84816 
L 25.78043 33.953042 
L 30.294443 34.329403 
L 30.883228 34.45332 
L 53.845816 34.354267 
L 55.023385 34.31064 
L 56.200954 34.55664 
L 61.696274 34.451311 
L 62.873843 34.375319 
L 65.621503 34.33032 
L 70.724301 34.43856 
L 74.060745 34.673378 
L 74.845791 35.47176 
L 75.630837 35.429672 
L 76.415882 35.06832 
L 77.200928 35.029371 
L 77.985974 34.65996 
L 82.303726 34.570498 
L 82.89251 34.46808 
L 84.070079 34.575183 
L 85.051386 34.602166 
L 86.621478 34.595545 
L 87.406523 33.9072 
L 94.079412 34.017882 
L 97.415857 34.022142 
L 98.200903 33.981 
L 100.163517 34.063379 
L 100.948563 34.41888 
L 103.107439 34.40904 
L 104.285007 35.10768 
L 104.873792 35.163112 
L 105.658838 35.40288 
L 106.443883 35.449514 
L 107.425191 35.66364 
L 108.210236 35.741935 
L 108.995282 35.8506 
L 111.154158 35.88721 
L 111.939204 36.259605 
L 113.116772 36.1212 
L 113.509295 36.174389 
L 114.294341 36.50496 
L 115.079387 36.603199 
L 115.864433 37.26264 
L 116.453217 37.26264 
L 116.649478 37.400429 
L 117.434524 38.40408 
L 119.789661 38.340839 
L 120.574707 37.78908 
L 123.71489 37.840773 
L 124.696198 38.09412 
L 133.13544 38.163887 
L 134.313008 38.37456 
L 135.490577 38.380499 
L 136.471884 38.81736 
L 137.845714 38.81736 
L 137.845714 38.81736 
" clip-path="url(#pa0c98facf5)" style="fill: none; stroke: #4a8dff; stroke-width: 0.7; stroke-linecap: round"/>
   </g>
   <g id="line2d_7">
    <path d="M 6.154286 36.50004 
L 6.939331 36.50004 
L 7.724377 37.592265 
L 9.686992 37.519851 
L 11.060822 37.528335 
L 12.434652 37.45944 
L 13.612221 37.87764 
L 14.201005 37.980102 
L 14.986051 38.37948 
L 15.967358 38.488732 
L 16.752404 38.62548 
L 17.341188 38.679556 
L 18.126234 38.91576 
L 19.500064 39.024865 
L 22.051463 39.081815 
L 23.03277 38.84196 
L 24.210339 38.731608 
L 25.387907 38.759303 
L 26.565476 38.82228 
L 30.098182 38.915313 
L 30.686966 39.147 
L 36.771071 39.043101 
L 39.126208 38.8518 
L 40.500038 38.969726 
L 41.481346 39.02892 
L 46.387882 39.0732 
L 53.453294 38.991371 
L 54.827124 38.82228 
L 55.219647 38.886306 
L 56.004692 39.11256 
L 57.967307 39.216364 
L 58.948614 39.2454 
L 60.126183 39.011821 
L 61.303751 39.05844 
L 64.640196 38.891996 
L 67.780379 39.038239 
L 70.920562 39.25887 
L 71.901869 39.51108 
L 72.883176 39.425673 
L 73.668222 39.37332 
L 74.060745 39.483657 
L 74.845791 40.34748 
L 75.630837 40.30026 
L 76.415882 39.89484 
L 77.39719 39.80507 
L 78.182235 39.63408 
L 80.929896 39.739284 
L 81.51868 39.78168 
L 81.911203 39.748963 
L 82.696249 39.30444 
L 83.677556 39.387919 
L 84.462602 39.57504 
L 85.443909 39.680274 
L 86.228955 39.76692 
L 86.621478 39.735919 
L 87.406523 39.024 
L 92.509321 39.125465 
L 93.883151 39.160528 
L 97.219595 39.095644 
L 97.80838 38.9502 
L 98.789687 39.047823 
L 99.574733 39.15684 
L 100.163517 39.260314 
L 100.948563 39.639 
L 103.107439 39.62424 
L 104.285007 40.32288 
L 104.67753 40.32288 
L 105.266315 40.956981 
L 105.658838 41.24784 
L 106.443883 41.32175 
L 107.228929 41.66112 
L 108.210236 41.747656 
L 108.995282 41.86776 
L 109.780328 41.756858 
L 110.565374 41.59716 
L 111.350419 41.514319 
L 112.527988 41.302532 
L 113.509295 41.345991 
L 114.294341 41.6808 
L 115.079387 41.782228 
L 115.864433 42.46308 
L 116.453217 42.46308 
L 116.649478 42.646601 
L 117.434524 43.98336 
L 119.789661 43.92619 
L 120.574707 43.4274 
L 124.107413 43.497453 
L 124.892459 43.57008 
L 133.527963 43.650816 
L 134.313008 43.73736 
L 135.686838 43.807047 
L 136.471884 44.00304 
L 137.845714 44.00304 
L 137.845714 44.00304 
" clip-path="url(#pa0c98facf5)" style="fill: none; stroke: #f5841e; stroke-width: 0.8; stroke-linecap: round"/>
   </g>
  </g>
 </g>
 <defs>
  <clipPath id="pa0c98facf5">
   <rect x="5.76" y="3.6" width="132.48" height="49.2"/>
  </clipPath>
 </defs>
</svg>
