<?xml version="1.0" encoding="utf-8" standalone="no"?>
<!DOCTYPE svg PUBLIC "-//W3C//DTD SVG 1.1//EN"
  "http://www.w3.org/Graphics/SVG/1.1/DTD/svg11.dtd">
<svg xmlns:xlink="http://www.w3.org/1999/xlink" width="144pt" height="60pt" viewBox="0 0 144 60" xmlns="http://www.w3.org/2000/svg" version="1.1">
  <desc id="nav-meta">{"window":"3m","count":4,"labels":["04.12","03.01","01.02","03.03"],"tick_utc":["2025-12-04T12:00:00Z","2026-01-03T12:00:00Z","2026-02-01T12:00:00Z","2026-03-03T03:22:17Z"]}</desc>

 <metadata>
  <rdf:RDF xmlns:dc="http://purl.org/dc/elements/1.1/" xmlns:cc="http://creativecommons.org/ns#" xmlns:rdf="http://www.w3.org/1999/02/22-rdf-syntax-ns#">
   <cc:Work>
    <dc:type rdf:resource="http://purl.org/dc/dcmitype/StillImage"/>
    <dc:date>2026-03-03T19:28:02.335662</dc:date>
    <dc:format>image/svg+xml</dc:format>
    <dc:creator>
     <cc:Agent>
      <dc:title>Matplotlib v3.10.8, https://matplotlib.org/</dc:title>
     </cc:Agent>
    </dc:creator>
   </cc:Work>
  </rdf:RDF>
 </metadata>
 <defs>
  <style type="text/css">*{stroke-linejoin: round; stroke-linecap: butt}</style>
 </defs>
 <g id="figure_1">
  <g id="patch_1">
   <path d="M 0 60 
L 144 60 
L 144 0 
L 0 0 
L 0 60 
z
" style="fill: none; opacity: 0"/>
  </g>
  <g id="axes_1">
   <g id="patch_2">
    <path d="M 5.76 52.8 
L 138.24 52.8 
L 138.24 3.6 
L 5.76 3.6 
L 5.76 52.8 
z
" style="fill: none"/>
   </g>
   <g id="matplotlib.axis_1"/>
   <g id="matplotlib.axis_2"/>
   <g id="line2d_1">
    <path d="M 5.76 42.96 
L 138.24 42.96 
" clip-path="url(#pc60ab24f66)" style="fill: none; stroke: #b2b2b2; stroke-opacity: 0.35; stroke-width: 0.5; stroke-linecap: square"/>
   </g>
   <g id="line2d_2">
    <path d="M 5.76 33.12 
L 138.24 33.12 
" clip-path="url(#pc60ab24f66)" style="fill: none; stroke: #b2b2b2; stroke-opacity: 0.35; stroke-width: 0.5; stroke-linecap: square"/>
   </g>
   <g id="line2d_3">
    <path d="M 5.76 23.28 
L 138.24 23.28 
" clip-path="url(#pc60ab24f66)" style="fill: none; stroke: #b2b2b2; stroke-opacity: 0.35; stroke-width: 0.5; stroke-linecap: square"/>
   </g>
   <g id="line2d_4">
    <path d="M 5.76 13.44 
L 138.24 13.44 
" clip-path="url(#pc60ab24f66)" style="fill: none; stroke: #b2b2b2; stroke-opacity: 0.35; stroke-width: 0.5; stroke-linecap: square"/>
   </g>
   <g id="line2d_5">
    <path d="M 5.76 42.72876 
L 7.254577 43.51596 
L 8.749154 44.27364 
L 10.243731 44.40156 
L 11.738307 44.47536 
L 13.232884 44.25888 
L 14.727461 43.64388 
L 16.222038 43.84068 
L 17.716615 43.85052 
L 19.211192 44.36712 
L 20.705768 44.26872 
L 22.200345 44.74104 
L 23.694922 44.98704 
L 25.189499 44.84436 
L 26.684076 45.58728 
L 28.178653 46.0596 
L 29.673229 45.18384 
L 31.167806 45.23796 
L 32.662383 45.20844 
L 34.15696 45.24288 
L 35.651537 45.47904 
L 37.146114 45.65616 
L 38.64069 45.98088 
L 40.135267 45.70536 
L 41.629844 45.38556 
L 43.124421 45.31668 
L 44.618998 45.58728 
L 46.113575 45.35604 
L 47.608151 45.40032 
L 49.102728 45.11496 
L 50.597305 44.42124 
L 52.091882 44.25888 
L 53.586459 44.18508 
L 55.081036 43.62912 
L 56.575612 43.24044 
L 58.070189 43.8702 
L 59.564766 43.60944 
L 61.059343 43.92924 
L 62.55392 43.93416 
L 64.048497 43.46184 
L 65.543073 43.5012 
L 67.03765 42.72384 
L 68.532227 42.51228 
L 70.026804 43.08792 
L 71.521381 42.75828 
L 73.015958 42.90096 
L 74.510534 43.57008 
L 76.005111 44.2392 
L 77.499688 45.23304 
L 78.994265 44.77548 
L 80.488842 44.91816 
L 81.983419 45.04608 
L 83.477995 45.07068 
L 84.972572 46.1334 
L 86.467149 45.4446 
L 87.961726 45.06084 
L 89.456303 45.33144 
L 90.95088 46.30068 
L 92.445457 46.34496 
L 93.940033 47.89476 
L 95.43461 48.26376 
L 96.929187 47.96364 
L 98.190945 48.55896 
L 99.378667 49.06572 
L 100.872483 50.04972 
L 102.360659 49.24776 
L 103.8894 49.32156 
L 105.371643 49.31172 
L 106.874748 49.43964 
L 108.366229 49.59708 
L 109.855426 49.80372 
L 111.349553 49.86768 
L 112.826157 49.479 
L 114.24187 49.24776 
L 115.832315 49.48392 
L 117.139153 49.37568 
L 118.819098 49.479 
L 120.311859 49.7004 
L 121.7977 49.62168 
L 123.283143 49.5282 
L 124.794794 49.49376 
L 126.293868 49.98576 
L 127.662184 49.96608 
L 129.277642 49.7004 
L 130.765559 49.27236 
L 132.257299 49.37076 
L 133.734266 49.68072 
L 135.262799 49.25268 
L 136.741946 49.51344 
L 138.24 49.4052 
" clip-path="url(#pc60ab24f66)" style="fill: none; stroke: #bebebe; stroke-width: 0.6; stroke-linecap: round"/>
   </g>
   <g id="line2d_6">
    <path d="M 5.76 35.71776 
L 7.254577 36.15564 
L 8.749154 36.93792 
L 10.243731 36.81984 
L 11.738307 36.72636 
L 13.232884 36.21468 
L 14.727461 34.8174 
L 16.222038 34.7928 
L 17.716615 35.42748 
L 19.211192 36.49512 
L 20.705768 36.28356 
L 22.200345 36.6378 
L 23.694922 37.3512 
L 25.189499 37.3512 
L 26.684076 38.31552 
L 28.178653 38.32536 
L 29.673229 37.26264 
L 31.167806 37.26264 
L 32.662383 37.09044 
L 34.15696 37.06092 
L 35.651537 37.34628 
L 37.146114 37.48404 
L 38.64069 37.77924 
L 40.135267 37.61688 
L 41.629844 37.45944 
L 43.124421 37.46928 
L 44.618998 37.56276 
L 46.113575 37.31184 
L 47.608151 37.33644 
L 49.102728 37.09536 
L 50.597305 36.23928 
L 52.091882 36.20976 
L 53.586459 36.11628 
L 55.081036 35.48652 
L 56.575612 35.0142 
L 58.070189 35.93424 
L 59.564766 36.36228 
L 61.059343 36.50988 
L 62.55392 36.5148 
L 64.048497 36.25404 
L 65.543073 36.46068 
L 67.03765 34.83708 
L 68.532227 34.57632 
L 70.026804 34.84692 
L 71.521381 35.00436 
L 73.015958 34.93056 
L 74.510534 35.088 
L 76.005111 35.78664 
L 77.499688 37.55292 
L 78.994265 37.26756 
L 80.488842 37.46436 
L 81.983419 37.44468 
L 83.477995 37.45944 
L 84.972572 38.41392 
L 86.467149 37.61196 
L 87.961726 36.95268 
L 89.456303 37.05108 
L 90.95088 38.37948 
L 92.445457 39.20604 
L 93.940033 41.03136 
L 95.43461 42.26628 
L 96.929187 41.73492 
L 98.190945 42.23676 
L 99.378667 43.38804 
L 100.872483 44.89356 
L 102.360659 43.6242 
L 103.8894 43.575 
L 105.371643 43.53072 
L 106.874748 43.72752 
L 108.366229 44.0916 
L 109.855426 44.436 
L 111.349553 44.49012 
L 112.826157 43.81608 
L 114.24187 43.7226 
L 115.832315 44.5344 
L 117.139153 44.19 
L 118.819098 44.21952 
L 120.311859 44.3868 
L 121.7977 44.51472 
L 123.283143 44.4606 
L 124.794794 44.3868 
L 126.293868 45.174 
L 127.662184 45.23796 
L 129.277642 44.81484 
L 130.765559 43.821 
L 132.257299 44.01288 
L 133.734266 44.66232 
L 135.262799 43.93908 
L 136.741946 44.39664 
L 138.24 44.12112 
" clip-path="url(#pc60ab24f66)" style="fill: none; stroke: #4a8dff; stroke-width: 0.6; stroke-linecap: round"/>
   </g>
   <g id="line2d_7">
    <path d="M 5.76 39.31428 
L 7.254577 40.04244 
L 8.749154 41.43972 
L 10.243731 41.47416 
L 11.738307 41.02152 
L 13.232884 40.7952 
L 14.727461 39.75708 
L 16.222038 40.11132 
L 17.716615 39.87024 
L 19.211192 40.94772 
L 20.705768 40.97232 
L 22.200345 41.976 
L 23.694922 42.87144 
L 25.189499 42.17772 
L 26.684076 43.04364 
L 28.178653 43.34868 
L 29.673229 42.03504 
L 31.167806 41.91696 
L 32.662383 41.8038 
L 34.15696 41.84316 
L 35.651537 42.37944 
L 37.146114 42.26628 
L 38.64069 42.468 
L 40.135267 42.42864 
L 41.629844 42.18264 
L 43.124421 42.1728 
L 44.618998 42.50244 
L 46.113575 41.88252 
L 47.608151 42.32532 
L 49.102728 41.73 
L 50.597305 41.13468 
L 52.091882 40.80504 
L 53.586459 40.42128 
L 55.081036 39.16176 
L 56.575612 39.28968 
L 58.070189 40.48032 
L 59.564766 40.61316 
L 61.059343 40.84932 
L 62.55392 40.88376 
L 64.048497 40.6968 
L 65.543073 40.53936 
L 67.03765 38.50248 
L 68.532227 37.63656 
L 70.026804 38.34012 
L 71.521381 38.37456 
L 73.015958 38.5812 
L 74.510534 39.2454 
L 76.005111 39.8358 
L 77.499688 41.93172 
L 78.994265 41.42004 
L 80.488842 41.37576 
L 81.983419 41.39052 
L 83.477995 41.5086 
L 84.972572 42.80256 
L 86.467149 41.93664 
L 87.961726 41.49384 
L 89.456303 41.51352 
L 90.95088 43.78164 
L 92.445457 43.9932 
L 93.940033 46.66968 
L 95.43461 47.55036 
L 96.929187 46.64508 
L 98.190945 47.89476 
L 99.378667 48.89352 
L 100.872483 49.84308 
L 102.360659 49.00176 
L 103.8894 49.233 
L 105.371643 48.97716 
L 106.874748 49.22316 
L 108.366229 49.36092 
L 109.855426 49.49868 
L 111.349553 49.58724 
L 112.826157 49.28712 
L 114.24187 49.16904 
L 115.832315 49.39044 
L 117.139153 49.29696 
L 118.819098 49.479 
L 120.311859 49.55772 
L 121.7977 49.51344 
L 123.283143 49.44948 
L 124.794794 49.41996 
L 126.293868 49.8234 
L 127.662184 49.86768 
L 129.277642 49.72992 
L 130.765559 49.39536 
L 132.257299 49.52328 
L 133.734266 49.6758 
L 135.262799 49.47408 
L 136.741946 49.60692 
L 138.24 49.37568 
" clip-path="url(#pc60ab24f66)" style="fill: none; stroke: #f5841e; stroke-width: 0.7; stroke-linecap: round"/>
   </g>
  </g>
 </g>
 <defs>
  <clipPath id="pc60ab24f66">
   <rect x="5.76" y="3.6" width="132.48" height="49.2"/>
  </clipPath>
 </defs>
</svg>
