<?xml version="1.0" encoding="utf-8" standalone="no"?>
<!DOCTYPE svg PUBLIC "-//W3C//DTD SVG 1.1//EN"
  "http://www.w3.org/Graphics/SVG/1.1/DTD/svg11.dtd">
<svg xmlns:xlink="http://www.w3.org/1999/xlink" width="144pt" height="60pt" viewBox="0 0 144 60" xmlns="http://www.w3.org/2000/svg" version="1.1">
  <desc id="nav-meta">{"window":"1m","count":4,"labels":["13.04","23.04","02.05","12.05"],"tick_utc":["2026-04-13T04:02:42Z","2026-04-23T03:57:29Z","2026-05-02T04:02:31Z","2026-05-12T04:26:58Z"]}</desc>

 <metadata>
  <rdf:RDF xmlns:dc="http://purl.org/dc/elements/1.1/" xmlns:cc="http://creativecommons.org/ns#" xmlns:rdf="http://www.w3.org/1999/02/22-rdf-syntax-ns#">
   <cc:Work>
    <dc:type rdf:resource="http://purl.org/dc/dcmitype/StillImage"/>
    <dc:date>2026-05-12T20:19:49.364191</dc:date>
    <dc:format>image/svg+xml</dc:format>
    <dc:creator>
     <cc:Agent>
      <dc:title>Matplotlib v3.10.9, https://matplotlib.org/</dc:title>
     </cc:Agent>
    </dc:creator>
   </cc:Work>
  </rdf:RDF>
 </metadata>
 <defs>
  <style type="text/css">*{stroke-linejoin: round; stroke-linecap: butt}</style>
 </defs>
 <g id="figure_1">
  <g id="patch_1">
   <path d="M 0 60 
L 144 60 
L 144 0 
L 0 0 
L 0 60 
z
" style="fill: none; opacity: 0"/>
  </g>
  <g id="axes_1">
   <g id="patch_2">
    <path d="M 5.76 52.8 
L 138.24 52.8 
L 138.24 3.6 
L 5.76 3.6 
L 5.76 52.8 
z
" style="fill: none"/>
   </g>
   <g id="matplotlib.axis_1"/>
   <g id="matplotlib.axis_2"/>
   <g id="line2d_1">
    <path d="M 5.76 42.96 
L 138.24 42.96 
" clip-path="url(#p2d8469022b)" style="fill: none; stroke: #b2b2b2; stroke-opacity: 0.35; stroke-width: 0.5; stroke-linecap: square"/>
   </g>
   <g id="line2d_2">
    <path d="M 5.76 33.12 
L 138.24 33.12 
" clip-path="url(#p2d8469022b)" style="fill: none; stroke: #b2b2b2; stroke-opacity: 0.35; stroke-width: 0.5; stroke-linecap: square"/>
   </g>
   <g id="line2d_3">
    <path d="M 5.76 23.28 
L 138.24 23.28 
" clip-path="url(#p2d8469022b)" style="fill: none; stroke: #b2b2b2; stroke-opacity: 0.35; stroke-width: 0.5; stroke-linecap: square"/>
   </g>
   <g id="line2d_4">
    <path d="M 5.76 13.44 
L 138.24 13.44 
" clip-path="url(#p2d8469022b)" style="fill: none; stroke: #b2b2b2; stroke-opacity: 0.35; stroke-width: 0.5; stroke-linecap: square"/>
   </g>
   <g id="line2d_5">
    <path d="M 5.76 49.69056 
L 10.296559 49.40028 
L 14.858694 49.58724 
L 19.44408 49.45932 
L 24.000403 49.27728 
L 28.515666 49.19856 
L 33.141583 49.43472 
L 37.718514 49.50852 
L 42.264109 49.46424 
L 46.81557 49.31664 
L 51.399688 49.4298 
L 55.977412 49.42488 
L 60.488554 49.37568 
L 65.125197 49.4052 
L 69.740017 49.29204 
L 74.315204 49.5528 
L 78.868356 49.50852 
L 83.441641 49.64136 
L 88.057147 49.56756 
L 92.506252 49.56264 
L 97.164561 49.57248 
L 101.728598 49.42488 
L 106.193661 49.49376 
L 110.839711 49.32156 
L 115.406549 49.25268 
L 119.896184 49.24284 
L 124.478505 48.80004 
L 129.136127 48.85416 
L 133.737789 48.72132 
L 138.24 48.63276 
" clip-path="url(#p2d8469022b)" style="fill: none; stroke: #bebebe; stroke-width: 0.6; stroke-linecap: round"/>
   </g>
   <g id="line2d_6">
    <path d="M 5.76 42.79764 
L 10.296559 41.57256 
L 14.858694 41.86284 
L 19.44408 41.63652 
L 24.000403 41.85792 
L 28.515666 41.22324 
L 33.141583 41.76936 
L 37.718514 42.1482 
L 42.264109 41.96616 
L 46.81557 41.59224 
L 51.399688 41.76936 
L 55.977412 41.99076 
L 60.488554 41.91696 
L 65.125197 41.98584 
L 69.740017 41.41512 
L 74.315204 42.15312 
L 78.868356 41.96124 
L 83.441641 42.43848 
L 88.057147 42.20232 
L 92.506252 42.02028 
L 97.164561 42.0252 
L 101.728598 41.40528 
L 106.193661 41.46432 
L 110.839711 41.52336 
L 115.406549 41.86776 
L 119.896184 42.1974 
L 124.478505 41.8776 
L 129.136127 41.84316 
L 133.737789 41.8038 
L 138.24 41.976 
" clip-path="url(#p2d8469022b)" style="fill: none; stroke: #4a8dff; stroke-width: 0.6; stroke-linecap: round"/>
   </g>
   <g id="line2d_7">
    <path d="M 5.76 48.95748 
L 10.296559 48.30804 
L 14.858694 48.34248 
L 19.44408 48.21456 
L 24.000403 48.26376 
L 28.515666 47.41752 
L 33.141583 48.05712 
L 37.718514 48.26376 
L 42.264109 48.01776 
L 46.81557 47.23548 
L 51.399688 47.17644 
L 55.977412 47.15676 
L 60.488554 47.1666 
L 65.125197 47.31912 
L 69.740017 46.49256 
L 74.315204 47.64876 
L 78.868356 47.5356 
L 83.441641 48.0276 
L 88.057147 47.50608 
L 92.506252 46.81728 
L 97.164561 46.92552 
L 101.728598 45.85788 
L 106.193661 45.60204 
L 110.839711 45.29208 
L 115.406549 45.58728 
L 119.896184 46.2564 
L 124.478505 45.7152 
L 129.136127 45.63648 
L 133.737789 45.6414 
L 138.24 45.45936 
" clip-path="url(#p2d8469022b)" style="fill: none; stroke: #f5841e; stroke-width: 0.7; stroke-linecap: round"/>
   </g>
  </g>
 </g>
 <defs>
  <clipPath id="p2d8469022b">
   <rect x="5.76" y="3.6" width="132.48" height="49.2"/>
  </clipPath>
 </defs>
</svg>
