<?xml version="1.0" encoding="utf-8" standalone="no"?>
<!DOCTYPE svg PUBLIC "-//W3C//DTD SVG 1.1//EN"
  "http://www.w3.org/Graphics/SVG/1.1/DTD/svg11.dtd">
<svg xmlns:xlink="http://www.w3.org/1999/xlink" width="144pt" height="60pt" viewBox="0 0 144 60" xmlns="http://www.w3.org/2000/svg" version="1.1">
  <desc id="nav-meta">{"window":"1y","count":4,"labels":["02.05","01.09","31.12","02.05"],"tick_utc":["2025-05-02T12:00:00Z","2025-09-01T12:00:00Z","2025-12-31T12:00:00Z","2026-05-02T04:02:31Z"]}</desc>

 <metadata>
  <rdf:RDF xmlns:dc="http://purl.org/dc/elements/1.1/" xmlns:cc="http://creativecommons.org/ns#" xmlns:rdf="http://www.w3.org/1999/02/22-rdf-syntax-ns#">
   <cc:Work>
    <dc:type rdf:resource="http://purl.org/dc/dcmitype/StillImage"/>
    <dc:date>2026-05-02T08:12:53.045382</dc:date>
    <dc:format>image/svg+xml</dc:format>
    <dc:creator>
     <cc:Agent>
      <dc:title>Matplotlib v3.10.9, https://matplotlib.org/</dc:title>
     </cc:Agent>
    </dc:creator>
   </cc:Work>
  </rdf:RDF>
 </metadata>
 <defs>
  <style type="text/css">*{stroke-linejoin: round; stroke-linecap: butt}</style>
 </defs>
 <g id="figure_1">
  <g id="patch_1">
   <path d="M 0 60 
L 144 60 
L 144 0 
L 0 0 
L 0 60 
z
" style="fill: none; opacity: 0"/>
  </g>
  <g id="axes_1">
   <g id="patch_2">
    <path d="M 5.76 52.8 
L 138.24 52.8 
L 138.24 3.6 
L 5.76 3.6 
L 5.76 52.8 
z
" style="fill: none"/>
   </g>
   <g id="matplotlib.axis_1"/>
   <g id="matplotlib.axis_2"/>
   <g id="line2d_1">
    <path d="M 5.76 42.96 
L 138.24 42.96 
" clip-path="url(#pb6a85e1722)" style="fill: none; stroke: #b2b2b2; stroke-opacity: 0.35; stroke-width: 0.5; stroke-linecap: square"/>
   </g>
   <g id="line2d_2">
    <path d="M 5.76 33.12 
L 138.24 33.12 
" clip-path="url(#pb6a85e1722)" style="fill: none; stroke: #b2b2b2; stroke-opacity: 0.35; stroke-width: 0.5; stroke-linecap: square"/>
   </g>
   <g id="line2d_3">
    <path d="M 5.76 23.28 
L 138.24 23.28 
" clip-path="url(#pb6a85e1722)" style="fill: none; stroke: #b2b2b2; stroke-opacity: 0.35; stroke-width: 0.5; stroke-linecap: square"/>
   </g>
   <g id="line2d_4">
    <path d="M 5.76 13.44 
L 138.24 13.44 
" clip-path="url(#pb6a85e1722)" style="fill: none; stroke: #b2b2b2; stroke-opacity: 0.35; stroke-width: 0.5; stroke-linecap: square"/>
   </g>
   <g id="line2d_5">
    <path d="M 5.76 41.98584 
L 6.123289 42.345 
L 6.486578 42.49752 
L 6.849867 42.86652 
L 7.213156 42.49752 
L 7.939734 42.44832 
L 8.303023 40.33272 
L 8.666311 39.12732 
L 9.0296 38.52216 
L 9.392889 39.10272 
L 9.756178 38.901 
L 10.119467 37.6464 
L 10.846045 39.639 
L 11.572623 40.008 
L 11.935912 39.27492 
L 12.299201 39.90468 
L 12.66249 39.6882 
L 13.389068 38.22696 
L 13.752357 38.901 
L 14.115646 38.69436 
L 14.842223 38.86164 
L 15.205512 38.62056 
L 15.93209 39.88992 
L 16.295379 41.23308 
L 17.385246 41.17404 
L 18.111824 41.62176 
L 18.475113 42.79272 
L 18.838402 42.30564 
L 19.56498 41.7546 
L 19.928268 40.62792 
L 20.291557 40.131 
L 20.654846 40.6476 
L 21.018135 41.73492 
L 21.744713 42.76812 
L 22.108002 41.73492 
L 22.471291 41.89728 
L 22.83458 42.345 
L 23.197869 42.5664 
L 23.561158 42.46308 
L 24.287736 44.20476 
L 24.651025 44.45076 
L 25.014314 42.7632 
L 25.377603 42.63036 
L 25.740891 42.94524 
L 26.10418 43.52088 
L 26.467469 43.1076 
L 26.830758 41.98092 
L 27.557336 41.43972 
L 27.920625 42.4926 
L 28.283914 41.79888 
L 28.647203 41.78412 
L 29.010492 42.37452 
L 29.373781 42.3942 
L 29.73707 41.83332 
L 30.100359 42.24168 
L 30.463648 41.84316 
L 31.190225 40.2786 
L 31.553514 40.42128 
L 31.916803 40.71648 
L 32.643381 40.48032 
L 33.00667 40.26384 
L 33.369959 38.97972 
L 34.096537 38.51724 
L 34.459826 38.57628 
L 34.823115 38.04492 
L 35.186404 36.03264 
L 35.549693 34.88136 
L 35.912982 36.92316 
L 36.276271 37.8432 
L 36.63956 37.37088 
L 37.002848 37.53324 
L 37.366137 37.056 
L 37.729426 37.77924 
L 38.092715 38.02032 
L 38.456004 38.45328 
L 38.819293 39.1962 
L 39.182582 40.41636 
L 39.545871 40.97232 
L 39.90916 40.53444 
L 40.272449 39.55536 
L 40.635738 40.24908 
L 40.999027 39.7128 
L 41.362316 38.778 
L 41.725605 38.59104 
L 42.452182 37.794 
L 42.815471 38.82228 
L 43.17876 36.53448 
L 43.542049 35.334 
L 44.268627 37.44468 
L 44.631916 36.90348 
L 44.995205 36.65748 
L 45.721783 38.64516 
L 46.085072 37.2282 
L 46.448361 38.14332 
L 46.81165 35.53572 
L 47.174939 35.04372 
L 47.538228 34.80264 
L 47.901516 37.23804 
L 48.991383 33.67104 
L 49.354672 34.90596 
L 50.444539 35.9736 
L 50.807828 34.36476 
L 51.171117 34.1778 
L 51.534406 35.22084 
L 51.897695 35.11752 
L 52.260984 35.54556 
L 53.714139 32.44104 
L 54.077428 31.83096 
L 54.440717 30.06468 
L 54.804006 30.01056 
L 55.167295 30.291 
L 55.530584 31.16184 
L 55.893873 30.74856 
L 56.257162 29.71536 
L 56.620451 29.37588 
L 56.98374 30.57636 
L 57.347029 30.42876 
L 57.710318 30.79284 
L 58.073607 32.91828 
L 58.436896 33.72024 
L 58.800185 34.05972 
L 59.163473 36.5886 
L 59.526762 34.90104 
L 59.890051 35.10276 
L 60.25334 34.16796 
L 60.616629 33.8826 
L 60.979918 34.43364 
L 61.706496 31.05852 
L 62.069785 31.26024 
L 62.433074 31.92936 
L 62.796363 31.85064 
L 63.159652 31.3242 
L 63.522941 32.84448 
L 63.88623 31.78176 
L 64.249519 32.85924 
L 64.612808 36.8838 
L 64.976096 38.39424 
L 65.339385 35.95392 
L 65.702674 34.53696 
L 66.065963 35.20608 
L 66.792541 37.57752 
L 67.15583 37.90716 
L 67.519119 37.18884 
L 67.882408 37.18392 
L 68.245697 36.89364 
L 68.608986 37.42008 
L 68.972275 38.17284 
L 69.335564 36.687 
L 69.698853 36.42132 
L 70.062142 36.34752 
L 70.42543 35.56032 
L 70.788719 35.72268 
L 71.152008 36.29832 
L 71.515297 36.32292 
L 71.878586 37.61688 
L 72.241875 37.2282 
L 72.605164 37.34628 
L 72.968453 37.23804 
L 73.331742 40.008 
L 73.695031 41.36592 
L 74.05832 40.43604 
L 74.421609 41.44956 
L 74.784898 40.53444 
L 75.148187 41.02152 
L 75.511476 40.22448 
L 75.874765 39.79644 
L 76.238053 41.51844 
L 76.601342 41.66604 
L 77.32792 43.51596 
L 77.691209 43.43724 
L 78.054498 43.71276 
L 78.417787 44.59836 
L 78.781076 43.30932 
L 79.870943 44.88372 
L 80.234232 44.99688 
L 80.597521 44.57868 
L 80.96081 43.5996 
L 81.324099 43.51596 
L 81.687387 43.00428 
L 82.050676 43.2798 
L 82.413965 43.71768 
L 83.140543 44.0916 
L 83.503832 45.11004 
L 83.867121 43.55532 
L 84.23041 42.72876 
L 84.956988 44.27364 
L 85.683566 44.47536 
L 86.046855 44.25888 
L 86.410144 43.64388 
L 86.773433 43.84068 
L 87.136722 43.85052 
L 87.50001 44.36712 
L 87.863299 44.26872 
L 88.226588 44.74104 
L 88.589877 44.98704 
L 88.953166 44.84436 
L 89.316455 45.58728 
L 89.679744 46.0596 
L 90.043033 45.18384 
L 91.496189 45.47904 
L 91.859478 45.65616 
L 92.222767 45.98088 
L 92.949344 45.38556 
L 93.312633 45.31668 
L 93.675922 45.58728 
L 94.039211 45.35604 
L 94.4025 45.40032 
L 94.765789 45.11496 
L 95.129078 44.42124 
L 95.855656 44.18508 
L 96.582234 43.24044 
L 96.945523 43.8702 
L 97.308812 43.60944 
L 97.672101 43.92924 
L 98.03539 43.93416 
L 98.398679 43.46184 
L 98.761967 43.5012 
L 99.125256 42.72384 
L 99.488545 42.51228 
L 99.851834 43.08792 
L 100.215123 42.75828 
L 100.578412 42.90096 
L 101.30499 44.2392 
L 101.668279 45.23304 
L 102.031568 44.77548 
L 102.758146 45.04608 
L 103.121435 45.07068 
L 103.484724 46.1334 
L 103.848013 45.4446 
L 104.211301 45.06084 
L 104.57459 45.33144 
L 104.937879 46.30068 
L 105.301168 46.34496 
L 105.664457 47.89476 
L 106.027746 48.26376 
L 106.391035 47.96364 
L 107.349538 50.04972 
L 107.711271 49.24776 
L 109.171053 49.59708 
L 109.533034 49.80372 
L 109.896214 49.86768 
L 110.599254 49.24776 
L 110.985845 49.48392 
L 111.3035 49.37568 
L 111.711847 49.479 
L 112.074695 49.7004 
L 113.164368 49.49376 
L 113.52875 49.98576 
L 113.861349 49.96608 
L 114.25402 49.7004 
L 114.615691 49.27236 
L 114.97829 49.37076 
L 115.337298 49.68072 
L 115.708841 49.25268 
L 116.06838 49.51344 
L 117.157839 49.09032 
L 118.612651 49.58724 
L 118.973606 49.36092 
L 119.701471 49.45932 
L 120.064057 49.16904 
L 120.797102 49.27236 
L 121.161417 48.87384 
L 121.884408 48.70164 
L 122.247798 49.03128 
L 122.607551 49.1592 
L 122.968712 49.08048 
L 123.701576 49.36584 
L 124.451848 48.90828 
L 124.792498 49.05096 
L 125.516062 49.64628 
L 126.976029 49.59708 
L 127.334533 49.8726 
L 128.058416 49.80864 
L 129.152331 49.83816 
L 129.516209 49.50852 
L 129.878232 49.68564 
L 130.602599 49.48884 
L 131.337556 49.69056 
L 131.698533 49.40028 
L 132.061544 49.58724 
L 133.148236 49.19856 
L 133.516323 49.43472 
L 133.880512 49.50852 
L 135.692335 49.37568 
L 136.061276 49.4052 
L 136.428479 49.29204 
L 136.792529 49.5528 
L 137.154826 49.50852 
L 137.518724 49.64136 
L 138.24 49.56264 
L 138.24 49.56264 
" clip-path="url(#pb6a85e1722)" style="fill: none; stroke: #bebebe; stroke-width: 0.6; stroke-linecap: round"/>
   </g>
   <g id="line2d_6">
    <path d="M 5.76 45.31176 
L 6.486578 45.3462 
L 6.849867 45.52824 
L 7.576445 45.47412 
L 7.939734 45.51348 
L 8.303023 42.77796 
L 8.666311 41.75952 
L 9.0296 40.04244 
L 9.392889 40.58364 
L 9.756178 40.69188 
L 10.119467 39.38808 
L 10.846045 40.33764 
L 11.209334 40.32288 
L 11.572623 40.81488 
L 11.935912 40.88376 
L 12.299201 40.44588 
L 12.66249 40.46556 
L 13.025779 40.21956 
L 13.389068 39.52584 
L 13.752357 40.49508 
L 14.842223 40.19496 
L 15.205512 39.4914 
L 15.568801 39.38808 
L 15.93209 39.69312 
L 16.295379 40.46556 
L 17.021957 40.36716 
L 17.385246 39.8604 
L 17.748535 39.96372 
L 18.111824 39.85548 
L 18.475113 41.1888 
L 19.201691 40.4508 
L 19.56498 40.5738 
L 20.291557 38.45328 
L 20.654846 38.68452 
L 21.018135 39.55536 
L 21.381424 40.09164 
L 21.744713 40.39668 
L 22.471291 40.2048 
L 22.83458 40.52952 
L 23.561158 40.48032 
L 24.287736 42.26136 
L 24.651025 42.5664 
L 25.014314 41.17404 
L 25.377603 41.0166 
L 25.740891 41.22324 
L 26.467469 41.17896 
L 26.830758 41.08056 
L 27.194047 40.61808 
L 27.557336 40.7214 
L 27.920625 41.30688 
L 28.283914 40.11132 
L 28.647203 39.99816 
L 29.010492 40.56888 
L 29.373781 40.51476 
L 29.73707 40.131 
L 30.100359 40.3278 
L 30.463648 39.81612 
L 31.190225 37.46436 
L 31.553514 37.39056 
L 31.916803 37.50372 
L 32.643381 37.01172 
L 33.00667 36.16056 
L 33.369959 34.4976 
L 33.733248 33.69072 
L 34.459826 32.89368 
L 34.823115 31.73256 
L 35.186404 31.68336 
L 35.549693 31.8162 
L 35.912982 32.64276 
L 36.276271 32.0868 
L 37.002848 31.85064 
L 37.366137 30.98964 
L 37.729426 31.53576 
L 38.092715 31.521 
L 38.456004 31.38816 
L 38.819293 32.17044 
L 39.182582 33.68088 
L 39.545871 34.28604 
L 39.90916 33.58248 
L 40.272449 32.0376 
L 40.635738 32.76576 
L 40.999027 32.259 
L 41.362316 30.65508 
L 41.725605 29.93676 
L 42.088894 28.14588 
L 42.815471 28.40664 
L 43.17876 25.73508 
L 43.542049 24.62316 
L 43.905338 26.10408 
L 44.268627 26.97984 
L 44.631916 27.00936 
L 44.995205 26.58132 
L 45.358494 27.7818 
L 45.721783 29.49888 
L 46.085072 27.68832 
L 46.448361 28.44108 
L 46.81165 24.16068 
L 47.174939 24.55428 
L 47.538228 24.51984 
L 47.901516 27.32916 
L 48.264805 25.7646 
L 48.628094 26.48784 
L 48.991383 26.43372 
L 49.354672 27.44724 
L 50.08125 27.27504 
L 50.444539 27.8802 
L 50.807828 27.72276 
L 51.171117 26.84208 
L 51.534406 27.91956 
L 51.897695 27.8556 
L 52.260984 28.09668 
L 52.624273 27.87528 
L 53.350851 27.83592 
L 53.714139 27.57024 
L 54.077428 26.77812 
L 54.440717 25.01184 
L 55.167295 25.71048 
L 55.530584 26.31564 
L 55.893873 26.45832 
L 56.257162 25.8384 
L 56.620451 25.84824 
L 56.98374 26.6994 
L 57.347029 26.62068 
L 57.710318 26.8224 
L 58.073607 28.61328 
L 58.800185 28.97244 
L 59.163473 30.99456 
L 59.526762 29.76456 
L 59.890051 29.8974 
L 60.25334 29.02164 
L 60.616629 28.50012 
L 60.979918 29.00688 
L 61.706496 26.601 
L 62.069785 26.3796 
L 62.433074 26.5764 
L 62.796363 26.3796 
L 63.159652 25.1496 
L 63.522941 26.81256 
L 63.88623 26.29596 
L 64.249519 27.41772 
L 64.612808 31.19136 
L 64.976096 31.80144 
L 65.339385 28.89864 
L 65.702674 28.28364 
L 66.792541 30.80268 
L 67.15583 31.22088 
L 67.519119 30.8076 
L 67.882408 30.13356 
L 68.245697 30.17784 
L 68.972275 31.42752 
L 69.335564 31.04376 
L 69.698853 30.49764 
L 70.062142 30.3648 
L 70.42543 28.88388 
L 70.788719 29.15448 
L 71.152008 30.15324 
L 71.878586 31.4226 
L 72.605164 30.9306 
L 72.968453 30.66 
L 73.695031 34.99944 
L 74.05832 34.07448 
L 74.421609 34.9158 
L 74.784898 34.02528 
L 75.148187 34.26144 
L 75.511476 33.0216 
L 75.874765 33.10524 
L 76.238053 34.1532 
L 76.601342 34.2024 
L 77.32792 36.34752 
L 77.691209 35.89488 
L 78.417787 36.94776 
L 78.781076 36.2688 
L 79.144365 36.97236 
L 79.507654 38.286 
L 79.870943 38.76324 
L 80.234232 38.73864 
L 80.597521 38.51724 
L 80.96081 37.42992 
L 81.324099 37.42008 
L 81.687387 36.90348 
L 82.050676 36.98712 
L 82.413965 36.86412 
L 82.777254 37.16424 
L 83.140543 37.14948 
L 83.503832 38.52216 
L 84.23041 35.71776 
L 84.593699 36.15564 
L 84.956988 36.93792 
L 85.683566 36.72636 
L 86.046855 36.21468 
L 86.410144 34.8174 
L 86.773433 34.7928 
L 87.136722 35.42748 
L 87.50001 36.49512 
L 87.863299 36.28356 
L 88.226588 36.6378 
L 88.589877 37.3512 
L 88.953166 37.3512 
L 89.316455 38.31552 
L 89.679744 38.32536 
L 90.043033 37.26264 
L 90.406322 37.26264 
L 90.769611 37.09044 
L 91.1329 37.06092 
L 91.496189 37.34628 
L 91.859478 37.48404 
L 92.222767 37.77924 
L 92.949344 37.45944 
L 93.675922 37.56276 
L 94.039211 37.31184 
L 94.4025 37.33644 
L 94.765789 37.09536 
L 95.129078 36.23928 
L 95.855656 36.11628 
L 96.582234 35.0142 
L 96.945523 35.93424 
L 97.308812 36.36228 
L 97.672101 36.50988 
L 98.03539 36.5148 
L 98.398679 36.25404 
L 98.761967 36.46068 
L 99.125256 34.83708 
L 99.488545 34.57632 
L 100.215123 35.00436 
L 100.578412 34.93056 
L 100.941701 35.088 
L 101.30499 35.78664 
L 101.668279 37.55292 
L 102.031568 37.26756 
L 102.394857 37.46436 
L 103.121435 37.45944 
L 103.484724 38.41392 
L 104.211301 36.95268 
L 104.57459 37.05108 
L 104.937879 38.37948 
L 105.301168 39.20604 
L 105.664457 41.03136 
L 106.027746 42.26628 
L 106.391035 41.73492 
L 106.697733 42.23676 
L 107.349538 44.89356 
L 107.711271 43.6242 
L 108.443155 43.53072 
L 108.808517 43.72752 
L 109.533034 44.436 
L 109.896214 44.49012 
L 110.255134 43.81608 
L 110.599254 43.7226 
L 110.985845 44.5344 
L 111.3035 44.19 
L 111.711847 44.21952 
L 112.43586 44.51472 
L 113.164368 44.3868 
L 113.52875 45.174 
L 113.861349 45.23796 
L 114.25402 44.81484 
L 114.615691 43.821 
L 114.97829 44.01288 
L 115.337298 44.66232 
L 115.708841 43.93908 
L 116.06838 44.39664 
L 116.432514 44.12112 
L 116.793767 44.33268 
L 117.157839 43.3044 
L 117.520955 43.6242 
L 117.881456 44.29824 
L 118.248273 44.53932 
L 118.612651 44.30808 
L 118.973606 43.8702 
L 119.336752 44.00304 
L 119.701471 43.97844 
L 120.064057 43.41756 
L 120.797102 43.48644 
L 121.518349 41.73984 
L 121.884408 41.7546 
L 122.607551 43.14204 
L 122.968712 43.083 
L 123.337434 43.35852 
L 123.701576 43.78164 
L 124.061501 43.21584 
L 124.451848 42.9354 
L 124.792498 43.10268 
L 125.516062 44.25396 
L 126.609624 43.74228 
L 126.976029 43.46676 
L 127.698238 43.79148 
L 128.427175 43.77672 
L 128.791401 43.2552 
L 129.152331 43.40772 
L 129.516209 42.49752 
L 129.878232 42.90588 
L 130.244864 42.8616 
L 130.602599 42.41388 
L 131.337556 42.79764 
L 131.698533 41.57256 
L 132.061544 41.86284 
L 132.426406 41.63652 
L 132.788955 41.85792 
L 133.148236 41.22324 
L 133.880512 42.1482 
L 134.242207 41.96616 
L 134.604369 41.59224 
L 135.333382 41.99076 
L 135.692335 41.91696 
L 136.061276 41.98584 
L 136.428479 41.41512 
L 136.792529 42.15312 
L 137.154826 41.96124 
L 137.518724 42.43848 
L 138.24 42.02028 
L 138.24 42.02028 
" clip-path="url(#pb6a85e1722)" style="fill: none; stroke: #4a8dff; stroke-width: 0.6; stroke-linecap: round"/>
   </g>
   <g id="line2d_7">
    <path d="M 5.76 37.92684 
L 6.123289 37.71528 
L 6.486578 38.17284 
L 6.849867 38.96496 
L 7.213156 38.74848 
L 7.576445 37.71528 
L 7.939734 37.63164 
L 8.303023 34.64028 
L 8.666311 34.69932 
L 9.0296 33.87276 
L 9.392889 34.18764 
L 9.756178 34.73868 
L 10.119467 34.09416 
L 10.482756 34.38444 
L 10.846045 34.33032 
L 11.572623 34.57632 
L 11.935912 33.18396 
L 12.299201 33.38076 
L 12.66249 32.81004 
L 13.025779 31.38816 
L 13.389068 30.45336 
L 13.752357 32.59848 
L 14.115646 32.29344 
L 14.478934 31.78176 
L 14.842223 31.53084 
L 15.205512 31.68336 
L 15.568801 32.28852 
L 16.295379 34.1778 
L 16.658668 33.84324 
L 17.021957 33.3414 
L 17.385246 33.25284 
L 18.111824 33.7842 
L 18.475113 35.34384 
L 18.838402 33.981 
L 19.201691 33.35616 
L 19.56498 33.35124 
L 19.928268 31.09296 
L 20.291557 31.11756 
L 20.654846 31.87524 
L 21.018135 33.20856 
L 21.381424 33.17412 
L 21.744713 33.45456 
L 22.108002 33.4152 
L 22.471291 32.7264 
L 22.83458 33.84816 
L 23.561158 33.84324 
L 24.651025 35.73744 
L 25.014314 33.4398 
L 25.377603 33.20856 
L 25.740891 32.58372 
L 26.10418 32.71164 
L 26.830758 32.53944 
L 27.194047 32.013 
L 27.920625 33.3906 
L 28.283914 31.80144 
L 28.647203 31.41768 
L 29.010492 32.19012 
L 29.373781 32.10156 
L 29.73707 31.60956 
L 30.100359 32.0622 
L 30.463648 31.73748 
L 30.826937 30.56652 
L 31.190225 28.31808 
L 31.553514 27.48168 
L 31.916803 27.55548 
L 32.280092 26.71908 
L 32.643381 26.36484 
L 33.00667 27.42756 
L 33.733248 26.55672 
L 34.096537 27.27504 
L 34.459826 27.31932 
L 34.823115 27.63912 
L 35.186404 27.52596 
L 35.549693 26.3058 
L 35.912982 26.96016 
L 36.276271 27.09792 
L 36.63956 27.49644 
L 37.002848 27.2898 
L 37.366137 26.57148 
L 37.729426 27.27012 
L 38.456004 27.35376 
L 39.182582 29.62188 
L 39.545871 29.96136 
L 39.90916 29.14956 
L 40.272449 28.68216 
L 40.635738 29.184 
L 40.999027 28.7412 
L 41.362316 27.5358 
L 41.725605 27.91956 
L 42.088894 28.00812 
L 42.452182 26.64528 
L 42.815471 26.88636 
L 43.17876 26.1828 
L 43.542049 24.52476 
L 43.905338 27.0684 
L 44.268627 27.59484 
L 44.995205 27.49644 
L 45.358494 28.13112 
L 45.721783 29.8482 
L 46.085072 29.12004 
L 46.448361 30.03024 
L 46.81165 27.84576 
L 47.538228 29.54316 
L 47.901516 31.13232 
L 48.264805 30.31068 
L 48.628094 30.62064 
L 48.991383 29.97612 
L 49.354672 31.97364 
L 49.717961 31.82112 
L 50.08125 32.0868 
L 50.444539 31.63416 
L 50.807828 30.6354 
L 51.171117 30.37464 
L 51.534406 30.86172 
L 51.897695 30.89616 
L 52.260984 31.11756 
L 52.987562 30.22212 
L 53.350851 30.45828 
L 53.714139 29.2578 
L 54.077428 28.50504 
L 54.440717 28.18032 
L 54.804006 28.2738 
L 55.167295 28.569 
L 55.530584 28.55424 
L 55.893873 27.8802 
L 56.257162 28.03272 
L 56.620451 27.69324 
L 56.98374 28.42632 
L 57.347029 28.3968 
L 57.710318 28.60344 
L 58.073607 29.88756 
L 58.436896 30.22212 
L 58.800185 29.58252 
L 59.163473 31.73256 
L 59.526762 31.36356 
L 59.890051 31.39308 
L 60.616629 29.09544 
L 60.979918 29.2332 
L 61.343207 27.02412 
L 62.069785 25.16928 
L 62.433074 25.10532 
L 63.159652 23.92452 
L 63.522941 25.53336 
L 63.88623 24.62808 
L 64.249519 25.4448 
L 64.612808 29.64156 
L 64.976096 30.80268 
L 65.339385 28.65756 
L 65.702674 28.6428 
L 66.429252 30.87156 
L 66.792541 32.17044 
L 67.15583 32.97732 
L 67.519119 32.628 
L 67.882408 31.90476 
L 68.245697 30.92076 
L 68.608986 31.96872 
L 68.972275 32.39676 
L 69.335564 31.19628 
L 70.062142 30.42384 
L 70.42543 29.0118 
L 70.788719 29.15448 
L 71.152008 29.76456 
L 71.515297 31.2012 
L 71.878586 32.09172 
L 72.241875 31.43244 
L 72.968453 30.90108 
L 73.695031 35.35368 
L 74.05832 34.24668 
L 74.421609 35.5062 
L 74.784898 34.48284 
L 75.148187 35.02896 
L 75.511476 33.8334 
L 75.874765 33.243 
L 76.238053 34.69932 
L 76.964631 36.2934 
L 77.32792 38.901 
L 77.691209 38.37948 
L 78.054498 38.92068 
L 78.417787 40.09164 
L 78.781076 39.70788 
L 79.144365 40.4262 
L 79.507654 42.75336 
L 79.870943 43.54548 
L 80.234232 43.72752 
L 80.96081 41.976 
L 81.324099 42.42864 
L 81.687387 40.86408 
L 82.050676 40.47048 
L 83.140543 40.89852 
L 83.503832 42.9354 
L 83.867121 40.43604 
L 84.23041 39.31428 
L 84.593699 40.04244 
L 84.956988 41.43972 
L 85.320277 41.47416 
L 85.683566 41.02152 
L 86.046855 40.7952 
L 86.410144 39.75708 
L 86.773433 40.11132 
L 87.136722 39.87024 
L 87.50001 40.94772 
L 87.863299 40.97232 
L 88.589877 42.87144 
L 88.953166 42.17772 
L 89.316455 43.04364 
L 89.679744 43.34868 
L 90.043033 42.03504 
L 90.769611 41.8038 
L 91.1329 41.84316 
L 91.496189 42.37944 
L 91.859478 42.26628 
L 92.222767 42.468 
L 92.586056 42.42864 
L 92.949344 42.18264 
L 93.312633 42.1728 
L 93.675922 42.50244 
L 94.039211 41.88252 
L 94.4025 42.32532 
L 95.129078 41.13468 
L 95.855656 40.42128 
L 96.218945 39.16176 
L 96.582234 39.28968 
L 96.945523 40.48032 
L 98.03539 40.88376 
L 98.761967 40.53936 
L 99.125256 38.50248 
L 99.488545 37.63656 
L 99.851834 38.34012 
L 100.215123 38.37456 
L 100.578412 38.5812 
L 101.30499 39.8358 
L 101.668279 41.93172 
L 102.031568 41.42004 
L 102.758146 41.39052 
L 103.121435 41.5086 
L 103.484724 42.80256 
L 103.848013 41.93664 
L 104.211301 41.49384 
L 104.57459 41.51352 
L 104.937879 43.78164 
L 105.301168 43.9932 
L 105.664457 46.66968 
L 106.027746 47.55036 
L 106.391035 46.64508 
L 106.986434 48.89352 
L 107.349538 49.84308 
L 107.711271 49.00176 
L 108.082864 49.233 
L 108.443155 48.97716 
L 109.171053 49.36092 
L 109.896214 49.58724 
L 110.255134 49.28712 
L 110.599254 49.16904 
L 110.985845 49.39044 
L 111.3035 49.29696 
L 112.074695 49.55772 
L 113.164368 49.41996 
L 113.52875 49.8234 
L 113.861349 49.86768 
L 114.25402 49.72992 
L 114.615691 49.39536 
L 115.337298 49.6758 
L 115.708841 49.47408 
L 116.06838 49.60692 
L 116.432514 49.37568 
L 116.793767 49.36584 
L 117.157839 48.6672 
L 118.248273 49.54788 
L 118.612651 49.5282 
L 118.973606 49.09032 
L 119.701471 49.2084 
L 120.064057 48.93288 
L 120.797102 48.89844 
L 121.518349 48.1998 
L 121.884408 48.28344 
L 122.247798 48.88368 
L 122.607551 49.04604 
L 122.968712 49.00176 
L 123.701576 49.38552 
L 124.061501 49.04112 
L 124.451848 48.92796 
L 124.792498 48.987 
L 125.516062 49.66104 
L 126.976029 49.40028 
L 127.334533 49.56756 
L 128.058416 49.56264 
L 128.427175 49.53312 
L 128.791401 49.25268 
L 129.152331 49.29696 
L 129.516209 48.89352 
L 129.878232 48.96732 
L 130.602599 48.5934 
L 130.972405 48.84432 
L 131.337556 48.95748 
L 131.698533 48.30804 
L 132.061544 48.34248 
L 132.426406 48.21456 
L 132.788955 48.26376 
L 133.148236 47.41752 
L 133.516323 48.05712 
L 133.880512 48.26376 
L 134.242207 48.01776 
L 134.604369 47.23548 
L 135.692335 47.1666 
L 136.061276 47.31912 
L 136.428479 46.49256 
L 136.792529 47.64876 
L 137.154826 47.5356 
L 137.518724 48.0276 
L 138.24 46.81728 
L 138.24 46.81728 
" clip-path="url(#pb6a85e1722)" style="fill: none; stroke: #f5841e; stroke-width: 0.7; stroke-linecap: round"/>
   </g>
  </g>
 </g>
 <defs>
  <clipPath id="pb6a85e1722">
   <rect x="5.76" y="3.6" width="132.48" height="49.2"/>
  </clipPath>
 </defs>
</svg>
