<?xml version="1.0" encoding="utf-8" standalone="no"?>
<!DOCTYPE svg PUBLIC "-//W3C//DTD SVG 1.1//EN"
  "http://www.w3.org/Graphics/SVG/1.1/DTD/svg11.dtd">
<svg xmlns:xlink="http://www.w3.org/1999/xlink" width="144pt" height="60pt" viewBox="0 0 144 60" xmlns="http://www.w3.org/2000/svg" version="1.1">
  <desc id="nav-meta">{"window":"1m","count":4,"labels":["04.02","14.02","23.02","05.03"],"tick_utc":["2026-02-04T08:15:41Z","2026-02-14T03:16:28Z","2026-02-23T03:32:23Z","2026-03-05T03:17:19Z"]}</desc>

 <metadata>
  <rdf:RDF xmlns:dc="http://purl.org/dc/elements/1.1/" xmlns:cc="http://creativecommons.org/ns#" xmlns:rdf="http://www.w3.org/1999/02/22-rdf-syntax-ns#">
   <cc:Work>
    <dc:type rdf:resource="http://purl.org/dc/dcmitype/StillImage"/>
    <dc:date>2026-03-05T13:47:39.211231</dc:date>
    <dc:format>image/svg+xml</dc:format>
    <dc:creator>
     <cc:Agent>
      <dc:title>Matplotlib v3.10.8, https://matplotlib.org/</dc:title>
     </cc:Agent>
    </dc:creator>
   </cc:Work>
  </rdf:RDF>
 </metadata>
 <defs>
  <style type="text/css">*{stroke-linejoin: round; stroke-linecap: butt}</style>
 </defs>
 <g id="figure_1">
  <g id="patch_1">
   <path d="M 0 60 
L 144 60 
L 144 0 
L 0 0 
L 0 60 
z
" style="fill: none; opacity: 0"/>
  </g>
  <g id="axes_1">
   <g id="patch_2">
    <path d="M 5.76 52.8 
L 138.24 52.8 
L 138.24 3.6 
L 5.76 3.6 
L 5.76 52.8 
z
" style="fill: none"/>
   </g>
   <g id="matplotlib.axis_1"/>
   <g id="matplotlib.axis_2"/>
   <g id="line2d_1">
    <path d="M 5.76 42.96 
L 138.24 42.96 
" clip-path="url(#p73e5cab105)" style="fill: none; stroke: #b2b2b2; stroke-opacity: 0.35; stroke-width: 0.5; stroke-linecap: square"/>
   </g>
   <g id="line2d_2">
    <path d="M 5.76 33.12 
L 138.24 33.12 
" clip-path="url(#p73e5cab105)" style="fill: none; stroke: #b2b2b2; stroke-opacity: 0.35; stroke-width: 0.5; stroke-linecap: square"/>
   </g>
   <g id="line2d_3">
    <path d="M 5.76 23.28 
L 138.24 23.28 
" clip-path="url(#p73e5cab105)" style="fill: none; stroke: #b2b2b2; stroke-opacity: 0.35; stroke-width: 0.5; stroke-linecap: square"/>
   </g>
   <g id="line2d_4">
    <path d="M 5.76 13.44 
L 138.24 13.44 
" clip-path="url(#p73e5cab105)" style="fill: none; stroke: #b2b2b2; stroke-opacity: 0.35; stroke-width: 0.5; stroke-linecap: square"/>
   </g>
   <g id="line2d_5">
    <path d="M 5.76 48.55896 
L 9.416477 49.06572 
L 14.015283 50.04972 
L 18.59673 49.24776 
L 23.303056 49.32156 
L 27.866236 49.31172 
L 32.493641 49.43964 
L 37.085259 49.59708 
L 41.669847 49.80372 
L 46.269612 49.86768 
L 50.815431 49.479 
L 55.173796 49.24776 
L 60.07008 49.48392 
L 64.093264 49.37568 
L 69.265085 49.479 
L 73.860643 49.7004 
L 78.4349 49.62168 
L 83.007932 49.5282 
L 87.661644 49.49376 
L 92.27664 49.98576 
L 96.489089 49.96608 
L 101.462379 49.7004 
L 106.043026 49.27236 
L 110.635442 49.37076 
L 115.18238 49.68072 
L 119.888068 49.25268 
L 124.441715 49.51344 
L 129.053569 49.4052 
L 133.628945 49.34124 
L 138.24 49.09032 
" clip-path="url(#p73e5cab105)" style="fill: none; stroke: #bebebe; stroke-width: 0.6; stroke-linecap: round"/>
   </g>
   <g id="line2d_6">
    <path d="M 5.76 42.23676 
L 9.416477 43.38804 
L 14.015283 44.89356 
L 18.59673 43.6242 
L 23.303056 43.575 
L 27.866236 43.53072 
L 32.493641 43.72752 
L 37.085259 44.0916 
L 41.669847 44.436 
L 46.269612 44.49012 
L 50.815431 43.81608 
L 55.173796 43.7226 
L 60.07008 44.5344 
L 64.093264 44.19 
L 69.265085 44.21952 
L 73.860643 44.3868 
L 78.4349 44.51472 
L 83.007932 44.4606 
L 87.661644 44.3868 
L 92.27664 45.174 
L 96.489089 45.23796 
L 101.462379 44.81484 
L 106.043026 43.821 
L 110.635442 44.01288 
L 115.18238 44.66232 
L 119.888068 43.93908 
L 124.441715 44.39664 
L 129.053569 44.12112 
L 133.628945 44.33268 
L 138.24 43.3044 
" clip-path="url(#p73e5cab105)" style="fill: none; stroke: #4a8dff; stroke-width: 0.6; stroke-linecap: round"/>
   </g>
   <g id="line2d_7">
    <path d="M 5.76 47.89476 
L 9.416477 48.89352 
L 14.015283 49.84308 
L 18.59673 49.00176 
L 23.303056 49.233 
L 27.866236 48.97716 
L 32.493641 49.22316 
L 37.085259 49.36092 
L 41.669847 49.49868 
L 46.269612 49.58724 
L 50.815431 49.28712 
L 55.173796 49.16904 
L 60.07008 49.39044 
L 64.093264 49.29696 
L 69.265085 49.479 
L 73.860643 49.55772 
L 78.4349 49.51344 
L 83.007932 49.44948 
L 87.661644 49.41996 
L 92.27664 49.8234 
L 96.489089 49.86768 
L 101.462379 49.72992 
L 106.043026 49.39536 
L 110.635442 49.52328 
L 115.18238 49.6758 
L 119.888068 49.47408 
L 124.441715 49.60692 
L 129.053569 49.37568 
L 133.628945 49.36584 
L 138.24 48.6672 
" clip-path="url(#p73e5cab105)" style="fill: none; stroke: #f5841e; stroke-width: 0.7; stroke-linecap: round"/>
   </g>
  </g>
 </g>
 <defs>
  <clipPath id="p73e5cab105">
   <rect x="5.76" y="3.6" width="132.48" height="49.2"/>
  </clipPath>
 </defs>
</svg>
