<?xml version="1.0" encoding="utf-8" standalone="no"?>
<!DOCTYPE svg PUBLIC "-//W3C//DTD SVG 1.1//EN"
  "http://www.w3.org/Graphics/SVG/1.1/DTD/svg11.dtd">
<svg xmlns:xlink="http://www.w3.org/1999/xlink" width="144pt" height="60pt" viewBox="0 0 144 60" xmlns="http://www.w3.org/2000/svg" version="1.1">
  <desc id="nav-meta">{"window":"3m","count":4,"labels":["23.02","25.03","23.04","23.05"],"tick_utc":["2026-02-23T03:32:23Z","2026-03-25T05:09:13Z","2026-04-23T03:57:29Z","2026-05-23T04:28:38Z"]}</desc>

 <metadata>
  <rdf:RDF xmlns:dc="http://purl.org/dc/elements/1.1/" xmlns:cc="http://creativecommons.org/ns#" xmlns:rdf="http://www.w3.org/1999/02/22-rdf-syntax-ns#">
   <cc:Work>
    <dc:type rdf:resource="http://purl.org/dc/dcmitype/StillImage"/>
    <dc:date>2026-05-23T08:37:07.190977</dc:date>
    <dc:format>image/svg+xml</dc:format>
    <dc:creator>
     <cc:Agent>
      <dc:title>Matplotlib v3.10.9, https://matplotlib.org/</dc:title>
     </cc:Agent>
    </dc:creator>
   </cc:Work>
  </rdf:RDF>
 </metadata>
 <defs>
  <style type="text/css">*{stroke-linejoin: round; stroke-linecap: butt}</style>
 </defs>
 <g id="figure_1">
  <g id="patch_1">
   <path d="M 0 60 
L 144 60 
L 144 0 
L 0 0 
L 0 60 
z
" style="fill: none; opacity: 0"/>
  </g>
  <g id="axes_1">
   <g id="patch_2">
    <path d="M 5.76 52.8 
L 138.24 52.8 
L 138.24 3.6 
L 5.76 3.6 
L 5.76 52.8 
z
" style="fill: none"/>
   </g>
   <g id="matplotlib.axis_1"/>
   <g id="matplotlib.axis_2"/>
   <g id="line2d_1">
    <path d="M 5.76 42.96 
L 138.24 42.96 
" clip-path="url(#pdf16db878f)" style="fill: none; stroke: #b2b2b2; stroke-opacity: 0.35; stroke-width: 0.5; stroke-linecap: square"/>
   </g>
   <g id="line2d_2">
    <path d="M 5.76 33.12 
L 138.24 33.12 
" clip-path="url(#pdf16db878f)" style="fill: none; stroke: #b2b2b2; stroke-opacity: 0.35; stroke-width: 0.5; stroke-linecap: square"/>
   </g>
   <g id="line2d_3">
    <path d="M 5.76 23.28 
L 138.24 23.28 
" clip-path="url(#pdf16db878f)" style="fill: none; stroke: #b2b2b2; stroke-opacity: 0.35; stroke-width: 0.5; stroke-linecap: square"/>
   </g>
   <g id="line2d_4">
    <path d="M 5.76 13.44 
L 138.24 13.44 
" clip-path="url(#pdf16db878f)" style="fill: none; stroke: #b2b2b2; stroke-opacity: 0.35; stroke-width: 0.5; stroke-linecap: square"/>
   </g>
   <g id="line2d_5">
    <path d="M 5.76 49.98576 
L 7.122191 49.96608 
L 8.730417 49.7004 
L 10.211673 49.27236 
L 11.696735 49.37076 
L 13.167091 49.68072 
L 14.688781 49.25268 
L 16.161307 49.51344 
L 17.652654 49.4052 
L 19.132206 49.34124 
L 20.623295 49.09032 
L 22.110475 49.24284 
L 23.586944 49.49868 
L 25.089279 49.64628 
L 26.581625 49.58724 
L 28.059954 49.36092 
L 29.547255 49.41996 
L 31.040996 49.45932 
L 32.526007 49.16904 
L 34.011912 49.22808 
L 35.528265 49.27236 
L 37.020353 48.87384 
L 38.482201 48.74592 
L 39.981436 48.70164 
L 41.469736 49.03128 
L 42.943139 49.1592 
L 44.422312 49.08048 
L 45.932448 49.21332 
L 47.42383 49.36584 
L 48.897939 49.11 
L 50.496642 48.90828 
L 51.891811 49.05096 
L 53.381574 49.37076 
L 54.855236 49.64628 
L 56.363391 49.6266 
L 57.855531 49.602 
L 59.334032 49.59708 
L 60.834679 49.59708 
L 62.302968 49.8726 
L 63.792559 49.88244 
L 65.267702 49.80864 
L 66.777993 49.78896 
L 68.269719 49.69056 
L 69.747945 49.83816 
L 71.238242 49.50852 
L 72.720945 49.68564 
L 74.222522 49.6266 
L 75.687659 49.48884 
L 77.202238 49.6512 
L 78.697753 49.69056 
L 80.176168 49.40028 
L 81.662917 49.58724 
L 83.157244 49.45932 
L 84.6421 49.27728 
L 86.113574 49.19856 
L 87.62111 49.43472 
L 89.112681 49.50852 
L 90.594041 49.46424 
L 92.077312 49.31664 
L 93.571226 49.4298 
L 95.063055 49.42488 
L 96.533187 49.37568 
L 98.044218 49.4052 
L 99.548137 49.29204 
L 101.03914 49.5528 
L 102.522963 49.50852 
L 104.013346 49.64136 
L 105.517489 49.56756 
L 106.967403 49.56264 
L 108.485495 49.57248 
L 109.972864 49.42488 
L 111.427979 49.49376 
L 112.942076 49.32156 
L 114.430358 49.25268 
L 115.893481 49.24284 
L 117.386809 48.80004 
L 118.904677 48.85416 
L 120.404308 48.72132 
L 121.871529 48.63276 
L 123.366493 48.66228 
L 124.852726 49.09524 
L 126.347948 48.99192 
L 127.81684 49.19364 
L 129.326941 49.34616 
L 130.829276 49.47408 
L 132.306502 49.47408 
L 133.79971 49.54788 
L 135.296069 49.3314 
L 136.772555 49.34616 
L 138.24 49.51836 
" clip-path="url(#pdf16db878f)" style="fill: none; stroke: #bebebe; stroke-width: 0.6; stroke-linecap: round"/>
   </g>
   <g id="line2d_6">
    <path d="M 5.76 45.174 
L 7.122191 45.23796 
L 8.730417 44.81484 
L 10.211673 43.821 
L 11.696735 44.01288 
L 13.167091 44.66232 
L 14.688781 43.93908 
L 16.161307 44.39664 
L 17.652654 44.12112 
L 19.132206 44.33268 
L 20.623295 43.3044 
L 22.110475 43.6242 
L 23.586944 44.29824 
L 25.089279 44.53932 
L 26.581625 44.30808 
L 28.059954 43.8702 
L 29.547255 44.00304 
L 31.040996 43.97844 
L 32.526007 43.41756 
L 34.011912 43.48152 
L 35.528265 43.48644 
L 37.020353 42.49752 
L 38.482201 41.73984 
L 39.981436 41.7546 
L 41.469736 42.591 
L 42.943139 43.14204 
L 44.422312 43.083 
L 45.932448 43.35852 
L 47.42383 43.78164 
L 48.897939 43.21584 
L 50.496642 42.9354 
L 51.891811 43.10268 
L 53.381574 43.72752 
L 54.855236 44.25396 
L 56.363391 44.10636 
L 57.855531 43.9194 
L 59.334032 43.74228 
L 60.834679 43.46676 
L 62.302968 43.65372 
L 63.792559 43.79148 
L 65.267702 43.81116 
L 66.777993 43.77672 
L 68.269719 43.2552 
L 69.747945 43.40772 
L 71.238242 42.49752 
L 72.720945 42.90588 
L 74.222522 42.8616 
L 75.687659 42.41388 
L 77.202238 42.63036 
L 78.697753 42.79764 
L 80.176168 41.57256 
L 81.662917 41.86284 
L 83.157244 41.63652 
L 84.6421 41.85792 
L 86.113574 41.22324 
L 87.62111 41.76936 
L 89.112681 42.1482 
L 90.594041 41.96616 
L 92.077312 41.59224 
L 93.571226 41.76936 
L 95.063055 41.99076 
L 96.533187 41.91696 
L 98.044218 41.98584 
L 99.548137 41.41512 
L 101.03914 42.15312 
L 102.522963 41.96124 
L 104.013346 42.43848 
L 105.517489 42.20232 
L 106.967403 42.02028 
L 108.485495 42.0252 
L 109.972864 41.40528 
L 111.427979 41.46432 
L 112.942076 41.52336 
L 114.430358 41.86776 
L 115.893481 42.1974 
L 117.386809 41.8776 
L 118.904677 41.84316 
L 120.404308 41.8038 
L 121.871529 41.976 
L 123.366493 42.00552 
L 124.852726 42.3942 
L 126.347948 42.27612 
L 127.81684 42.57624 
L 129.326941 42.85176 
L 130.829276 43.31424 
L 132.306502 43.2306 
L 133.79971 43.39296 
L 135.296069 43.16172 
L 136.772555 43.24536 
L 138.24 43.71768 
" clip-path="url(#pdf16db878f)" style="fill: none; stroke: #4a8dff; stroke-width: 0.6; stroke-linecap: round"/>
   </g>
   <g id="line2d_7">
    <path d="M 5.76 49.8234 
L 7.122191 49.86768 
L 8.730417 49.72992 
L 10.211673 49.39536 
L 11.696735 49.52328 
L 13.167091 49.6758 
L 14.688781 49.47408 
L 16.161307 49.60692 
L 17.652654 49.37568 
L 19.132206 49.36584 
L 20.623295 48.6672 
L 22.110475 48.95256 
L 23.586944 49.36092 
L 25.089279 49.54788 
L 26.581625 49.5282 
L 28.059954 49.09032 
L 29.547255 49.16412 
L 31.040996 49.2084 
L 32.526007 48.93288 
L 34.011912 48.95748 
L 35.528265 48.89844 
L 37.020353 48.48024 
L 38.482201 48.1998 
L 39.981436 48.28344 
L 41.469736 48.88368 
L 42.943139 49.04604 
L 44.422312 49.00176 
L 45.932448 49.20348 
L 47.42383 49.38552 
L 48.897939 49.04112 
L 50.496642 48.92796 
L 51.891811 48.987 
L 53.381574 49.29204 
L 54.855236 49.66104 
L 56.363391 49.56756 
L 57.855531 49.53312 
L 59.334032 49.46424 
L 60.834679 49.40028 
L 62.302968 49.56756 
L 63.792559 49.59708 
L 65.267702 49.56264 
L 66.777993 49.53312 
L 68.269719 49.25268 
L 69.747945 49.29696 
L 71.238242 48.89352 
L 72.720945 48.96732 
L 74.222522 48.8148 
L 75.687659 48.5934 
L 77.202238 48.84432 
L 78.697753 48.95748 
L 80.176168 48.30804 
L 81.662917 48.34248 
L 83.157244 48.21456 
L 84.6421 48.26376 
L 86.113574 47.41752 
L 87.62111 48.05712 
L 89.112681 48.26376 
L 90.594041 48.01776 
L 92.077312 47.23548 
L 93.571226 47.17644 
L 95.063055 47.15676 
L 96.533187 47.1666 
L 98.044218 47.31912 
L 99.548137 46.49256 
L 101.03914 47.64876 
L 102.522963 47.5356 
L 104.013346 48.0276 
L 105.517489 47.50608 
L 106.967403 46.81728 
L 108.485495 46.92552 
L 109.972864 45.85788 
L 111.427979 45.60204 
L 112.942076 45.29208 
L 114.430358 45.58728 
L 115.893481 46.2564 
L 117.386809 45.7152 
L 118.904677 45.63648 
L 120.404308 45.6414 
L 121.871529 45.45936 
L 123.366493 45.42492 
L 124.852726 46.38432 
L 126.347948 45.57744 
L 127.81684 46.51716 
L 129.326941 46.95996 
L 130.829276 47.54544 
L 132.306502 47.59464 
L 133.79971 47.66844 
L 135.296069 47.05344 
L 136.772555 47.22564 
L 138.24 48.07188 
" clip-path="url(#pdf16db878f)" style="fill: none; stroke: #f5841e; stroke-width: 0.7; stroke-linecap: round"/>
   </g>
  </g>
 </g>
 <defs>
  <clipPath id="pdf16db878f">
   <rect x="5.76" y="3.6" width="132.48" height="49.2"/>
  </clipPath>
 </defs>
</svg>
