<?xml version="1.0" encoding="utf-8" standalone="no"?>
<!DOCTYPE svg PUBLIC "-//W3C//DTD SVG 1.1//EN"
  "http://www.w3.org/Graphics/SVG/1.1/DTD/svg11.dtd">
<svg xmlns:xlink="http://www.w3.org/1999/xlink" width="144pt" height="60pt" viewBox="0 0 144 60" xmlns="http://www.w3.org/2000/svg" version="1.1">
  <desc id="nav-meta">{"window":"2w","count":4,"labels":["11.06","15.06","20.06","24.06"],"tick_utc":["2026-06-11T05:14:13Z","2026-06-15T06:07:39Z","2026-06-20T04:59:26Z","2026-06-24T04:50:37Z"]}</desc>

 <metadata>
  <rdf:RDF xmlns:dc="http://purl.org/dc/elements/1.1/" xmlns:cc="http://creativecommons.org/ns#" xmlns:rdf="http://www.w3.org/1999/02/22-rdf-syntax-ns#">
   <cc:Work>
    <dc:type rdf:resource="http://purl.org/dc/dcmitype/StillImage"/>
    <dc:date>2026-06-24T10:00:58.446284</dc:date>
    <dc:format>image/svg+xml</dc:format>
    <dc:creator>
     <cc:Agent>
      <dc:title>Matplotlib v3.11.0, https://matplotlib.org/</dc:title>
     </cc:Agent>
    </dc:creator>
   </cc:Work>
  </rdf:RDF>
 </metadata>
 <defs>
  <style type="text/css">*{stroke-linejoin: round; stroke-linecap: butt}</style>
 </defs>
 <g id="figure_1">
  <g id="patch_1">
   <path d="M 0 60 
L 144 60 
L 144 0 
L 0 0 
L 0 60 
z
" style="fill: none; opacity: 0"/>
  </g>
  <g id="axes_1">
   <g id="patch_2">
    <path d="M 5.76 52.8 
L 138.24 52.8 
L 138.24 3.6 
L 5.76 3.6 
L 5.76 52.8 
z
" style="fill: none"/>
   </g>
   <g id="matplotlib.axis_1"/>
   <g id="matplotlib.axis_2"/>
   <g id="line2d_1">
    <path d="M 5.76 42.96 
L 138.24 42.96 
" clip-path="url(#pddebfa3de3)" style="fill: none; stroke: #b2b2b2; stroke-opacity: 0.35; stroke-width: 0.5; stroke-linecap: square"/>
   </g>
   <g id="line2d_2">
    <path d="M 5.76 33.12 
L 138.24 33.12 
" clip-path="url(#pddebfa3de3)" style="fill: none; stroke: #b2b2b2; stroke-opacity: 0.35; stroke-width: 0.5; stroke-linecap: square"/>
   </g>
   <g id="line2d_3">
    <path d="M 5.76 23.28 
L 138.24 23.28 
" clip-path="url(#pddebfa3de3)" style="fill: none; stroke: #b2b2b2; stroke-opacity: 0.35; stroke-width: 0.5; stroke-linecap: square"/>
   </g>
   <g id="line2d_4">
    <path d="M 5.76 13.44 
L 138.24 13.44 
" clip-path="url(#pddebfa3de3)" style="fill: none; stroke: #b2b2b2; stroke-opacity: 0.35; stroke-width: 0.5; stroke-linecap: square"/>
   </g>
   <g id="line2d_5">
    <path d="M 5.76 50.76312 
L 16.003668 50.65488 
L 26.132663 50.6598 
L 36.410343 50.56632 
L 46.953152 50.39412 
L 57.215007 50.23176 
L 67.093635 50.2416 
L 77.248376 50.4138 
L 87.692337 50.55156 
L 97.487942 50.42364 
L 107.903915 50.27112 
L 118.406216 50.217 
L 127.999875 50.35968 
L 138.24 50.49252 
" clip-path="url(#pddebfa3de3)" style="fill: none; stroke: #bebebe; stroke-width: 0.6; stroke-linecap: round"/>
   </g>
   <g id="line2d_6">
    <path d="M 5.76 46.65492 
L 16.003668 46.51716 
L 26.132663 46.5516 
L 36.410343 46.46304 
L 46.953152 46.14816 
L 57.215007 45.84312 
L 67.093635 45.6414 
L 77.248376 46.09404 
L 87.692337 46.3302 
L 97.487942 46.21704 
L 107.903915 46.06452 
L 118.406216 46.035 
L 127.999875 46.14324 
L 138.24 46.52208 
" clip-path="url(#pddebfa3de3)" style="fill: none; stroke: #4a8dff; stroke-width: 0.6; stroke-linecap: round"/>
   </g>
   <g id="line2d_7">
    <path d="M 5.76 50.07924 
L 16.003668 49.98084 
L 26.132663 49.971 
L 36.410343 49.87752 
L 46.953152 49.69548 
L 57.215007 49.65612 
L 67.093635 49.7004 
L 77.248376 49.92672 
L 87.692337 50.06448 
L 97.487942 49.971 
L 107.903915 49.89228 
L 118.406216 49.89228 
L 127.999875 49.9464 
L 138.24 50.05956 
" clip-path="url(#pddebfa3de3)" style="fill: none; stroke: #f5841e; stroke-width: 0.7; stroke-linecap: round"/>
   </g>
  </g>
 </g>
 <defs>
  <clipPath id="pddebfa3de3">
   <rect x="5.76" y="3.6" width="132.48" height="49.2"/>
  </clipPath>
 </defs>
</svg>
