<?xml version="1.0" encoding="utf-8" standalone="no"?>
<!DOCTYPE svg PUBLIC "-//W3C//DTD SVG 1.1//EN"
  "http://www.w3.org/Graphics/SVG/1.1/DTD/svg11.dtd">
<svg xmlns:xlink="http://www.w3.org/1999/xlink" width="144pt" height="60pt" viewBox="0 0 144 60" xmlns="http://www.w3.org/2000/svg" version="1.1">
  <desc id="nav-meta">{"window":"1y","count":4,"labels":["13.02","14.06","13.10","12.02"],"tick_utc":["2025-02-13T12:00:00Z","2025-06-14T12:00:00Z","2025-10-13T12:00:00Z","2026-02-12T03:34:13Z"]}</desc>

 <metadata>
  <rdf:RDF xmlns:dc="http://purl.org/dc/elements/1.1/" xmlns:cc="http://creativecommons.org/ns#" xmlns:rdf="http://www.w3.org/1999/02/22-rdf-syntax-ns#">
   <cc:Work>
    <dc:type rdf:resource="http://purl.org/dc/dcmitype/StillImage"/>
    <dc:date>2026-02-12T13:57:09.854867</dc:date>
    <dc:format>image/svg+xml</dc:format>
    <dc:creator>
     <cc:Agent>
      <dc:title>Matplotlib v3.10.8, https://matplotlib.org/</dc:title>
     </cc:Agent>
    </dc:creator>
   </cc:Work>
  </rdf:RDF>
 </metadata>
 <defs>
  <style type="text/css">*{stroke-linejoin: round; stroke-linecap: butt}</style>
 </defs>
 <g id="figure_1">
  <g id="patch_1">
   <path d="M 0 60 
L 144 60 
L 144 0 
L 0 0 
L 0 60 
z
" style="fill: none; opacity: 0"/>
  </g>
  <g id="axes_1">
   <g id="patch_2">
    <path d="M 5.76 52.8 
L 138.24 52.8 
L 138.24 3.6 
L 5.76 3.6 
L 5.76 52.8 
z
" style="fill: none"/>
   </g>
   <g id="matplotlib.axis_1"/>
   <g id="matplotlib.axis_2"/>
   <g id="line2d_1">
    <path d="M 5.76 42.96 
L 138.24 42.96 
" clip-path="url(#pacf413e878)" style="fill: none; stroke: #b2b2b2; stroke-opacity: 0.35; stroke-width: 0.5; stroke-linecap: square"/>
   </g>
   <g id="line2d_2">
    <path d="M 5.76 33.12 
L 138.24 33.12 
" clip-path="url(#pacf413e878)" style="fill: none; stroke: #b2b2b2; stroke-opacity: 0.35; stroke-width: 0.5; stroke-linecap: square"/>
   </g>
   <g id="line2d_3">
    <path d="M 5.76 23.28 
L 138.24 23.28 
" clip-path="url(#pacf413e878)" style="fill: none; stroke: #b2b2b2; stroke-opacity: 0.35; stroke-width: 0.5; stroke-linecap: square"/>
   </g>
   <g id="line2d_4">
    <path d="M 5.76 13.44 
L 138.24 13.44 
" clip-path="url(#pacf413e878)" style="fill: none; stroke: #b2b2b2; stroke-opacity: 0.35; stroke-width: 0.5; stroke-linecap: square"/>
   </g>
   <g id="line2d_5">
    <path d="M 5.76 36.01296 
L 6.124308 36.318 
L 6.488615 35.61444 
L 7.21723 37.11012 
L 7.945845 39.59472 
L 8.310153 39.57504 
L 8.674461 38.69436 
L 9.038768 39.60948 
L 9.403076 39.19128 
L 9.767383 39.72756 
L 10.131691 43.23552 
L 10.495999 42.81732 
L 10.860306 44.08176 
L 11.224614 43.698 
L 11.588921 42.3204 
L 11.953229 42.94032 
L 12.317536 38.41392 
L 12.681844 43.0584 
L 13.046152 42.72384 
L 13.410459 42.58116 
L 13.774767 42.9354 
L 14.139074 43.49136 
L 14.503382 43.79148 
L 15.231997 46.14816 
L 15.596305 45.28224 
L 15.960612 45.13464 
L 16.32492 45.5676 
L 16.689227 44.22444 
L 17.053535 43.92924 
L 17.417843 45.18876 
L 17.78215 44.91324 
L 18.146458 45.297 
L 18.510765 43.95384 
L 18.875073 44.99196 
L 19.603688 44.89848 
L 19.967996 44.41632 
L 20.332303 43.30932 
L 20.696611 42.87144 
L 21.060918 43.76196 
L 21.425226 43.59468 
L 21.789533 44.76072 
L 22.153841 45.40524 
L 22.882456 45.35604 
L 23.246764 45.10512 
L 23.611071 46.24164 
L 23.975379 46.3548 
L 24.339687 45.63648 
L 24.703994 45.97104 
L 25.068302 47.84556 
L 25.432609 47.71272 
L 25.796917 47.88 
L 26.161224 46.12848 
L 26.525532 46.91568 
L 27.254147 44.40648 
L 27.618455 44.91816 
L 27.982762 44.76564 
L 28.34707 45.16908 
L 28.711377 44.49504 
L 29.075685 44.08668 
L 29.439993 44.17032 
L 29.8043 43.43232 
L 30.532915 43.86528 
L 30.897223 42.23676 
L 31.625838 41.7792 
L 32.718761 42.31056 
L 33.083068 42.345 
L 33.447376 42.5418 
L 33.811684 42.37944 
L 34.175991 41.98584 
L 34.540299 42.345 
L 34.904606 42.49752 
L 35.268914 42.86652 
L 35.633221 42.49752 
L 36.361837 42.44832 
L 36.726144 40.33272 
L 37.090452 39.12732 
L 37.454759 38.52216 
L 37.819067 39.10272 
L 38.183375 38.901 
L 38.547682 37.6464 
L 39.276297 39.639 
L 40.004912 40.008 
L 40.36922 39.27492 
L 40.733528 39.90468 
L 41.097835 39.6882 
L 41.82645 38.22696 
L 42.190758 38.901 
L 42.555065 38.69436 
L 43.283681 38.86164 
L 43.647988 38.62056 
L 44.376603 39.88992 
L 44.740911 41.23308 
L 45.833834 41.17404 
L 46.562449 41.62176 
L 46.926756 42.79272 
L 47.291064 42.30564 
L 48.019679 41.7546 
L 48.383987 40.62792 
L 48.748294 40.131 
L 49.112602 40.6476 
L 49.47691 41.73492 
L 50.205525 42.76812 
L 50.569832 41.73492 
L 50.93414 41.89728 
L 51.298447 42.345 
L 51.662755 42.5664 
L 52.027063 42.46308 
L 52.755678 44.20476 
L 53.119985 44.45076 
L 53.484293 42.7632 
L 53.8486 42.63036 
L 54.212908 42.94524 
L 54.577216 43.52088 
L 54.941523 43.1076 
L 55.305831 41.98092 
L 56.034446 41.43972 
L 56.398754 42.4926 
L 56.763061 41.79888 
L 57.127369 41.78412 
L 57.491676 42.37452 
L 57.855984 42.3942 
L 58.220291 41.83332 
L 58.584599 42.24168 
L 58.948907 41.84316 
L 59.677522 40.2786 
L 60.041829 40.42128 
L 60.406137 40.71648 
L 61.134752 40.48032 
L 61.49906 40.26384 
L 61.863367 38.97972 
L 62.591982 38.51724 
L 62.95629 38.57628 
L 63.320598 38.04492 
L 63.684905 36.03264 
L 64.049213 34.88136 
L 64.41352 36.92316 
L 64.777828 37.8432 
L 65.142135 37.37088 
L 65.506443 37.53324 
L 65.870751 37.056 
L 66.235058 37.77924 
L 66.599366 38.02032 
L 66.963673 38.45328 
L 67.327981 39.1962 
L 67.692288 40.41636 
L 68.056596 40.97232 
L 68.420904 40.53444 
L 68.785211 39.55536 
L 69.149519 40.24908 
L 69.513826 39.7128 
L 69.878134 38.778 
L 70.242442 38.59104 
L 70.971057 37.794 
L 71.335364 38.82228 
L 71.699672 36.53448 
L 72.063979 35.334 
L 72.792595 37.44468 
L 73.156902 36.90348 
L 73.52121 36.65748 
L 74.249825 38.64516 
L 74.614132 37.2282 
L 74.97844 38.14332 
L 75.342748 35.53572 
L 75.707055 35.04372 
L 76.071363 34.80264 
L 76.43567 37.23804 
L 77.528593 33.67104 
L 77.892901 34.90596 
L 78.985823 35.9736 
L 79.350131 34.36476 
L 79.714439 34.1778 
L 80.078746 35.22084 
L 80.443054 35.11752 
L 80.807361 35.54556 
L 82.264592 32.44104 
L 82.628899 31.83096 
L 82.993207 30.06468 
L 83.357514 30.01056 
L 83.721822 30.291 
L 84.08613 31.16184 
L 84.450437 30.74856 
L 84.814745 29.71536 
L 85.179052 29.37588 
L 85.54336 30.57636 
L 85.907667 30.42876 
L 86.271975 30.79284 
L 86.636283 32.91828 
L 87.00059 33.72024 
L 87.364898 34.05972 
L 87.729205 36.5886 
L 88.093513 34.90104 
L 88.45782 35.10276 
L 88.822128 34.16796 
L 89.186436 33.8826 
L 89.550743 34.43364 
L 90.279358 31.05852 
L 90.643666 31.26024 
L 91.007974 31.92936 
L 91.372281 31.85064 
L 91.736589 31.3242 
L 92.100896 32.84448 
L 92.465204 31.78176 
L 92.829511 32.85924 
L 93.193819 36.8838 
L 93.558127 38.39424 
L 93.922434 35.95392 
L 94.286742 34.53696 
L 94.651049 35.20608 
L 95.379664 37.57752 
L 95.743972 37.90716 
L 96.10828 37.18884 
L 96.472587 37.18392 
L 96.836895 36.89364 
L 97.201202 37.42008 
L 97.56551 38.17284 
L 97.929818 36.687 
L 98.294125 36.42132 
L 98.658433 36.34752 
L 99.02274 35.56032 
L 99.387048 35.72268 
L 99.751355 36.29832 
L 100.115663 36.32292 
L 100.479971 37.61688 
L 100.844278 37.2282 
L 101.208586 37.34628 
L 101.572893 37.23804 
L 101.937201 40.008 
L 102.301508 41.36592 
L 102.665816 40.43604 
L 103.030124 41.44956 
L 103.394431 40.53444 
L 103.758739 41.02152 
L 104.123046 40.22448 
L 104.487354 39.79644 
L 104.851662 41.51844 
L 105.215969 41.66604 
L 105.944584 43.51596 
L 106.308892 43.43724 
L 106.673199 43.71276 
L 107.037507 44.59836 
L 107.401815 43.30932 
L 108.494737 44.88372 
L 108.859045 44.99688 
L 109.223352 44.57868 
L 109.58766 43.5996 
L 109.951968 43.51596 
L 110.316275 43.00428 
L 110.680583 43.2798 
L 111.04489 43.71768 
L 111.773506 44.0916 
L 112.137813 45.11004 
L 112.502121 43.55532 
L 112.866428 42.72876 
L 113.595043 44.27364 
L 114.323659 44.47536 
L 114.687966 44.25888 
L 115.052274 43.64388 
L 115.416581 43.84068 
L 115.780889 43.85052 
L 116.145196 44.36712 
L 116.509504 44.26872 
L 116.873812 44.74104 
L 117.238119 44.98704 
L 117.602427 44.84436 
L 117.966734 45.58728 
L 118.331042 46.0596 
L 118.69535 45.18384 
L 120.15258 45.47904 
L 120.516887 45.65616 
L 120.881195 45.98088 
L 121.60981 45.38556 
L 121.974118 45.31668 
L 122.338425 45.58728 
L 122.702733 45.35604 
L 123.06704 45.40032 
L 123.431348 45.11496 
L 123.795656 44.42124 
L 124.524271 44.18508 
L 125.252886 43.24044 
L 125.617194 43.8702 
L 125.981501 43.60944 
L 126.345809 43.92924 
L 126.710116 43.93416 
L 127.074424 43.46184 
L 127.438731 43.5012 
L 127.803039 42.72384 
L 128.167347 42.51228 
L 128.531654 43.08792 
L 128.895962 42.75828 
L 129.260269 42.90096 
L 129.988884 44.2392 
L 130.353192 45.23304 
L 130.7175 44.77548 
L 131.446115 45.04608 
L 131.810422 45.07068 
L 132.17473 46.1334 
L 132.539038 45.4446 
L 132.903345 45.06084 
L 133.267653 45.33144 
L 133.63196 46.30068 
L 133.996268 46.34496 
L 134.360575 47.89476 
L 134.724883 48.26376 
L 135.089191 47.96364 
L 136.050381 50.04972 
L 136.413128 49.24776 
L 137.877004 49.59708 
L 138.24 49.80372 
L 138.24 49.80372 
" clip-path="url(#pacf413e878)" style="fill: none; stroke: #bebebe; stroke-width: 0.6; stroke-linecap: round"/>
   </g>
   <g id="line2d_6">
    <path d="M 5.76 38.96496 
L 6.124308 39.393 
L 6.488615 39.0486 
L 7.21723 39.50616 
L 7.581538 38.9256 
L 7.945845 39.43728 
L 8.674461 38.9256 
L 9.038768 39.516 
L 9.403076 38.76816 
L 9.767383 38.32044 
L 10.131691 40.61316 
L 10.495999 40.6722 
L 10.860306 41.86776 
L 11.224614 42.01536 
L 11.588921 42.50736 
L 11.953229 42.66972 
L 12.317536 40.51476 
L 12.681844 43.12728 
L 13.046152 42.96 
L 13.410459 42.468 
L 13.774767 42.74352 
L 14.139074 43.17648 
L 14.503382 42.75828 
L 15.231997 45.0264 
L 15.596305 44.7312 
L 15.960612 44.805 
L 16.32492 45.14448 
L 17.053535 44.59836 
L 17.417843 44.96736 
L 17.78215 44.67216 
L 18.146458 44.64756 
L 18.510765 43.74228 
L 18.875073 44.30808 
L 19.23938 44.42616 
L 19.967996 44.1654 
L 20.332303 43.6242 
L 20.696611 43.68816 
L 21.060918 44.10144 
L 21.425226 44.15064 
L 21.789533 44.9034 
L 22.153841 45.38064 
L 22.518149 45.55284 
L 22.882456 45.41508 
L 23.246764 44.8296 
L 23.611071 45.6168 
L 23.975379 45.45936 
L 24.703994 45.5184 
L 25.068302 47.18136 
L 25.432609 47.3142 
L 25.796917 47.90952 
L 26.161224 46.56144 
L 26.525532 47.54052 
L 26.88984 47.23056 
L 27.254147 46.67952 
L 27.618455 47.03376 
L 27.982762 46.85172 
L 28.34707 47.08788 
L 28.711377 47.16168 
L 29.439993 47.07804 
L 29.8043 46.896 
L 30.168608 47.10756 
L 30.532915 47.16168 
L 30.897223 45.87264 
L 31.261531 45.63156 
L 31.625838 45.80376 
L 32.354453 45.43968 
L 32.718761 45.63156 
L 33.447376 45.61188 
L 33.811684 45.63156 
L 34.175991 45.31176 
L 34.904606 45.3462 
L 35.268914 45.52824 
L 35.997529 45.47412 
L 36.361837 45.51348 
L 36.726144 42.77796 
L 37.090452 41.75952 
L 37.454759 40.04244 
L 37.819067 40.58364 
L 38.183375 40.69188 
L 38.547682 39.38808 
L 39.276297 40.33764 
L 39.640605 40.32288 
L 40.004912 40.81488 
L 40.36922 40.88376 
L 40.733528 40.44588 
L 41.097835 40.46556 
L 41.462143 40.21956 
L 41.82645 39.52584 
L 42.190758 40.49508 
L 43.283681 40.19496 
L 43.647988 39.4914 
L 44.012296 39.38808 
L 44.376603 39.69312 
L 44.740911 40.46556 
L 45.469526 40.36716 
L 45.833834 39.8604 
L 46.198141 39.96372 
L 46.562449 39.85548 
L 46.926756 41.1888 
L 47.655372 40.4508 
L 48.019679 40.5738 
L 48.748294 38.45328 
L 49.112602 38.68452 
L 49.47691 39.55536 
L 49.841217 40.09164 
L 50.205525 40.39668 
L 50.93414 40.2048 
L 51.298447 40.52952 
L 52.027063 40.48032 
L 52.755678 42.26136 
L 53.119985 42.5664 
L 53.484293 41.17404 
L 53.8486 41.0166 
L 54.212908 41.22324 
L 54.941523 41.17896 
L 55.305831 41.08056 
L 55.670138 40.61808 
L 56.034446 40.7214 
L 56.398754 41.30688 
L 56.763061 40.11132 
L 57.127369 39.99816 
L 57.491676 40.56888 
L 57.855984 40.51476 
L 58.220291 40.131 
L 58.584599 40.3278 
L 58.948907 39.81612 
L 59.677522 37.46436 
L 60.041829 37.39056 
L 60.406137 37.50372 
L 61.134752 37.01172 
L 61.49906 36.16056 
L 61.863367 34.4976 
L 62.227675 33.69072 
L 62.95629 32.89368 
L 63.320598 31.73256 
L 63.684905 31.68336 
L 64.049213 31.8162 
L 64.41352 32.64276 
L 64.777828 32.0868 
L 65.506443 31.85064 
L 65.870751 30.98964 
L 66.235058 31.53576 
L 66.599366 31.521 
L 66.963673 31.38816 
L 67.327981 32.17044 
L 67.692288 33.68088 
L 68.056596 34.28604 
L 68.420904 33.58248 
L 68.785211 32.0376 
L 69.149519 32.76576 
L 69.513826 32.259 
L 69.878134 30.65508 
L 70.242442 29.93676 
L 70.606749 28.14588 
L 71.335364 28.40664 
L 71.699672 25.73508 
L 72.063979 24.62316 
L 72.428287 26.10408 
L 72.792595 26.97984 
L 73.156902 27.00936 
L 73.52121 26.58132 
L 73.885517 27.7818 
L 74.249825 29.49888 
L 74.614132 27.68832 
L 74.97844 28.44108 
L 75.342748 24.16068 
L 75.707055 24.55428 
L 76.071363 24.51984 
L 76.43567 27.32916 
L 76.799978 25.7646 
L 77.164286 26.48784 
L 77.528593 26.43372 
L 77.892901 27.44724 
L 78.621516 27.27504 
L 78.985823 27.8802 
L 79.350131 27.72276 
L 79.714439 26.84208 
L 80.078746 27.91956 
L 80.443054 27.8556 
L 80.807361 28.09668 
L 81.171669 27.87528 
L 81.900284 27.83592 
L 82.264592 27.57024 
L 82.628899 26.77812 
L 82.993207 25.01184 
L 83.721822 25.71048 
L 84.08613 26.31564 
L 84.450437 26.45832 
L 84.814745 25.8384 
L 85.179052 25.84824 
L 85.54336 26.6994 
L 85.907667 26.62068 
L 86.271975 26.8224 
L 86.636283 28.61328 
L 87.364898 28.97244 
L 87.729205 30.99456 
L 88.093513 29.76456 
L 88.45782 29.8974 
L 88.822128 29.02164 
L 89.186436 28.50012 
L 89.550743 29.00688 
L 90.279358 26.601 
L 90.643666 26.3796 
L 91.007974 26.5764 
L 91.372281 26.3796 
L 91.736589 25.1496 
L 92.100896 26.81256 
L 92.465204 26.29596 
L 92.829511 27.41772 
L 93.193819 31.19136 
L 93.558127 31.80144 
L 93.922434 28.89864 
L 94.286742 28.28364 
L 95.379664 30.80268 
L 95.743972 31.22088 
L 96.10828 30.8076 
L 96.472587 30.13356 
L 96.836895 30.17784 
L 97.56551 31.42752 
L 97.929818 31.04376 
L 98.294125 30.49764 
L 98.658433 30.3648 
L 99.02274 28.88388 
L 99.387048 29.15448 
L 99.751355 30.15324 
L 100.479971 31.4226 
L 101.208586 30.9306 
L 101.572893 30.66 
L 102.301508 34.99944 
L 102.665816 34.07448 
L 103.030124 34.9158 
L 103.394431 34.02528 
L 103.758739 34.26144 
L 104.123046 33.0216 
L 104.487354 33.10524 
L 104.851662 34.1532 
L 105.215969 34.2024 
L 105.944584 36.34752 
L 106.308892 35.89488 
L 107.037507 36.94776 
L 107.401815 36.2688 
L 107.766122 36.97236 
L 108.13043 38.286 
L 108.494737 38.76324 
L 108.859045 38.73864 
L 109.223352 38.51724 
L 109.58766 37.42992 
L 109.951968 37.42008 
L 110.316275 36.90348 
L 110.680583 36.98712 
L 111.04489 36.86412 
L 111.409198 37.16424 
L 111.773506 37.14948 
L 112.137813 38.52216 
L 112.866428 35.71776 
L 113.230736 36.15564 
L 113.595043 36.93792 
L 114.323659 36.72636 
L 114.687966 36.21468 
L 115.052274 34.8174 
L 115.416581 34.7928 
L 115.780889 35.42748 
L 116.145196 36.49512 
L 116.509504 36.28356 
L 116.873812 36.6378 
L 117.238119 37.3512 
L 117.602427 37.3512 
L 117.966734 38.31552 
L 118.331042 38.32536 
L 118.69535 37.26264 
L 119.059657 37.26264 
L 119.423965 37.09044 
L 119.788272 37.06092 
L 120.15258 37.34628 
L 120.516887 37.48404 
L 120.881195 37.77924 
L 121.60981 37.45944 
L 122.338425 37.56276 
L 122.702733 37.31184 
L 123.06704 37.33644 
L 123.431348 37.09536 
L 123.795656 36.23928 
L 124.524271 36.11628 
L 125.252886 35.0142 
L 125.617194 35.93424 
L 125.981501 36.36228 
L 126.345809 36.50988 
L 126.710116 36.5148 
L 127.074424 36.25404 
L 127.438731 36.46068 
L 127.803039 34.83708 
L 128.167347 34.57632 
L 128.895962 35.00436 
L 129.260269 34.93056 
L 129.624577 35.088 
L 129.988884 35.78664 
L 130.353192 37.55292 
L 130.7175 37.26756 
L 131.081807 37.46436 
L 131.810422 37.45944 
L 132.17473 38.41392 
L 132.903345 36.95268 
L 133.267653 37.05108 
L 133.63196 38.37948 
L 133.996268 39.20604 
L 134.360575 41.03136 
L 134.724883 42.26628 
L 135.089191 41.73492 
L 135.396748 42.23676 
L 136.050381 44.89356 
L 136.413128 43.6242 
L 137.147065 43.53072 
L 137.513451 43.72752 
L 138.24 44.436 
L 138.24 44.436 
" clip-path="url(#pacf413e878)" style="fill: none; stroke: #4a8dff; stroke-width: 0.6; stroke-linecap: round"/>
   </g>
   <g id="line2d_7">
    <path d="M 5.76 37.2282 
L 6.124308 37.85796 
L 6.488615 37.4004 
L 6.852923 37.36104 
L 7.21723 38.0646 
L 7.945845 38.3844 
L 8.310153 37.86288 
L 8.674461 36.9576 
L 9.038768 38.06952 
L 9.403076 37.85796 
L 9.767383 37.97604 
L 10.131691 40.41144 
L 10.495999 41.71524 
L 10.860306 44.11128 
L 11.224614 43.71276 
L 11.588921 43.8456 
L 11.953229 43.07316 
L 12.317536 38.99448 
L 12.681844 43.01412 
L 13.046152 42.42864 
L 13.410459 40.80012 
L 13.774767 41.10024 
L 14.139074 42.69432 
L 14.503382 43.00428 
L 14.867689 45.666 
L 15.231997 46.64016 
L 15.596305 44.6574 
L 15.960612 44.12112 
L 16.32492 45.4938 
L 16.689227 44.07684 
L 17.053535 43.8702 
L 17.417843 44.75088 
L 17.78215 44.02764 
L 18.146458 44.66724 
L 18.510765 42.67464 
L 18.875073 43.92924 
L 19.603688 44.1654 
L 20.332303 42.4188 
L 20.696611 42.32532 
L 21.060918 42.60084 
L 21.425226 42.468 
L 21.789533 43.88496 
L 22.153841 44.71644 
L 22.518149 44.87388 
L 22.882456 44.79516 
L 23.246764 43.452 
L 23.611071 44.79024 
L 24.339687 44.13588 
L 24.703994 44.2638 
L 25.068302 46.9206 
L 25.432609 46.44336 
L 25.796917 47.85048 
L 26.161224 44.74596 
L 26.525532 46.23672 
L 26.88984 44.34252 
L 27.254147 43.41756 
L 27.618455 44.25888 
L 27.982762 43.80624 
L 28.34707 44.23428 
L 28.711377 44.01288 
L 29.075685 43.60452 
L 29.439993 43.85052 
L 29.8043 43.50612 
L 30.168608 43.53072 
L 30.532915 42.35976 
L 30.897223 39.33396 
L 31.261531 39.3192 
L 31.625838 39.18636 
L 31.990146 38.74356 
L 32.354453 38.80752 
L 32.718761 39.2208 
L 33.083068 38.61564 
L 33.447376 38.9994 
L 33.811684 39.00924 
L 34.175991 37.92684 
L 34.540299 37.71528 
L 34.904606 38.17284 
L 35.268914 38.96496 
L 35.633221 38.74848 
L 35.997529 37.71528 
L 36.361837 37.63164 
L 36.726144 34.64028 
L 37.090452 34.69932 
L 37.454759 33.87276 
L 37.819067 34.18764 
L 38.183375 34.73868 
L 38.547682 34.09416 
L 38.91199 34.38444 
L 39.276297 34.33032 
L 40.004912 34.57632 
L 40.36922 33.18396 
L 40.733528 33.38076 
L 41.097835 32.81004 
L 41.462143 31.38816 
L 41.82645 30.45336 
L 42.190758 32.59848 
L 42.555065 32.29344 
L 42.919373 31.78176 
L 43.283681 31.53084 
L 43.647988 31.68336 
L 44.012296 32.28852 
L 44.740911 34.1778 
L 45.105219 33.84324 
L 45.469526 33.3414 
L 45.833834 33.25284 
L 46.562449 33.7842 
L 46.926756 35.34384 
L 47.291064 33.981 
L 47.655372 33.35616 
L 48.019679 33.35124 
L 48.383987 31.09296 
L 48.748294 31.11756 
L 49.112602 31.87524 
L 49.47691 33.20856 
L 49.841217 33.17412 
L 50.205525 33.45456 
L 50.569832 33.4152 
L 50.93414 32.7264 
L 51.298447 33.84816 
L 52.027063 33.84324 
L 53.119985 35.73744 
L 53.484293 33.4398 
L 53.8486 33.20856 
L 54.212908 32.58372 
L 54.577216 32.71164 
L 55.305831 32.53944 
L 55.670138 32.013 
L 56.398754 33.3906 
L 56.763061 31.80144 
L 57.127369 31.41768 
L 57.491676 32.19012 
L 57.855984 32.10156 
L 58.220291 31.60956 
L 58.584599 32.0622 
L 58.948907 31.73748 
L 59.313214 30.56652 
L 59.677522 28.31808 
L 60.041829 27.48168 
L 60.406137 27.55548 
L 60.770444 26.71908 
L 61.134752 26.36484 
L 61.49906 27.42756 
L 62.227675 26.55672 
L 62.591982 27.27504 
L 62.95629 27.31932 
L 63.320598 27.63912 
L 63.684905 27.52596 
L 64.049213 26.3058 
L 64.41352 26.96016 
L 64.777828 27.09792 
L 65.142135 27.49644 
L 65.506443 27.2898 
L 65.870751 26.57148 
L 66.235058 27.27012 
L 66.963673 27.35376 
L 67.692288 29.62188 
L 68.056596 29.96136 
L 68.420904 29.14956 
L 68.785211 28.68216 
L 69.149519 29.184 
L 69.513826 28.7412 
L 69.878134 27.5358 
L 70.242442 27.91956 
L 70.606749 28.00812 
L 70.971057 26.64528 
L 71.335364 26.88636 
L 71.699672 26.1828 
L 72.063979 24.52476 
L 72.428287 27.0684 
L 72.792595 27.59484 
L 73.52121 27.49644 
L 73.885517 28.13112 
L 74.249825 29.8482 
L 74.614132 29.12004 
L 74.97844 30.03024 
L 75.342748 27.84576 
L 76.071363 29.54316 
L 76.43567 31.13232 
L 76.799978 30.31068 
L 77.164286 30.62064 
L 77.528593 29.97612 
L 77.892901 31.97364 
L 78.257208 31.82112 
L 78.621516 32.0868 
L 78.985823 31.63416 
L 79.350131 30.6354 
L 79.714439 30.37464 
L 80.078746 30.86172 
L 80.443054 30.89616 
L 80.807361 31.11756 
L 81.535976 30.22212 
L 81.900284 30.45828 
L 82.264592 29.2578 
L 82.628899 28.50504 
L 82.993207 28.18032 
L 83.357514 28.2738 
L 83.721822 28.569 
L 84.08613 28.55424 
L 84.450437 27.8802 
L 84.814745 28.03272 
L 85.179052 27.69324 
L 85.54336 28.42632 
L 85.907667 28.3968 
L 86.271975 28.60344 
L 86.636283 29.88756 
L 87.00059 30.22212 
L 87.364898 29.58252 
L 87.729205 31.73256 
L 88.093513 31.36356 
L 88.45782 31.39308 
L 89.186436 29.09544 
L 89.550743 29.2332 
L 89.915051 27.02412 
L 90.643666 25.16928 
L 91.007974 25.10532 
L 91.736589 23.92452 
L 92.100896 25.53336 
L 92.465204 24.62808 
L 92.829511 25.4448 
L 93.193819 29.64156 
L 93.558127 30.80268 
L 93.922434 28.65756 
L 94.286742 28.6428 
L 95.015357 30.87156 
L 95.379664 32.17044 
L 95.743972 32.97732 
L 96.10828 32.628 
L 96.472587 31.90476 
L 96.836895 30.92076 
L 97.201202 31.96872 
L 97.56551 32.39676 
L 97.929818 31.19628 
L 98.658433 30.42384 
L 99.02274 29.0118 
L 99.387048 29.15448 
L 99.751355 29.76456 
L 100.115663 31.2012 
L 100.479971 32.09172 
L 100.844278 31.43244 
L 101.572893 30.90108 
L 102.301508 35.35368 
L 102.665816 34.24668 
L 103.030124 35.5062 
L 103.394431 34.48284 
L 103.758739 35.02896 
L 104.123046 33.8334 
L 104.487354 33.243 
L 104.851662 34.69932 
L 105.580277 36.2934 
L 105.944584 38.901 
L 106.308892 38.37948 
L 106.673199 38.92068 
L 107.037507 40.09164 
L 107.401815 39.70788 
L 107.766122 40.4262 
L 108.13043 42.75336 
L 108.494737 43.54548 
L 108.859045 43.72752 
L 109.58766 41.976 
L 109.951968 42.42864 
L 110.316275 40.86408 
L 110.680583 40.47048 
L 111.773506 40.89852 
L 112.137813 42.9354 
L 112.502121 40.43604 
L 112.866428 39.31428 
L 113.230736 40.04244 
L 113.595043 41.43972 
L 113.959351 41.47416 
L 114.323659 41.02152 
L 114.687966 40.7952 
L 115.052274 39.75708 
L 115.416581 40.11132 
L 115.780889 39.87024 
L 116.145196 40.94772 
L 116.509504 40.97232 
L 117.238119 42.87144 
L 117.602427 42.17772 
L 117.966734 43.04364 
L 118.331042 43.34868 
L 118.69535 42.03504 
L 119.423965 41.8038 
L 119.788272 41.84316 
L 120.15258 42.37944 
L 120.516887 42.26628 
L 120.881195 42.468 
L 121.245503 42.42864 
L 121.60981 42.18264 
L 121.974118 42.1728 
L 122.338425 42.50244 
L 122.702733 41.88252 
L 123.06704 42.32532 
L 123.795656 41.13468 
L 124.524271 40.42128 
L 124.888578 39.16176 
L 125.252886 39.28968 
L 125.617194 40.48032 
L 126.710116 40.88376 
L 127.438731 40.53936 
L 127.803039 38.50248 
L 128.167347 37.63656 
L 128.531654 38.34012 
L 128.895962 38.37456 
L 129.260269 38.5812 
L 129.988884 39.8358 
L 130.353192 41.93172 
L 130.7175 41.42004 
L 131.446115 41.39052 
L 131.810422 41.5086 
L 132.17473 42.80256 
L 132.539038 41.93664 
L 132.903345 41.49384 
L 133.267653 41.51352 
L 133.63196 43.78164 
L 133.996268 43.9932 
L 134.360575 46.66968 
L 134.724883 47.55036 
L 135.089191 46.64508 
L 135.686259 48.89352 
L 136.050381 49.84308 
L 136.413128 49.00176 
L 136.785763 49.233 
L 137.147065 48.97716 
L 137.877004 49.36092 
L 138.24 49.49868 
L 138.24 49.49868 
" clip-path="url(#pacf413e878)" style="fill: none; stroke: #f5841e; stroke-width: 0.7; stroke-linecap: round"/>
   </g>
  </g>
 </g>
 <defs>
  <clipPath id="pacf413e878">
   <rect x="5.76" y="3.6" width="132.48" height="49.2"/>
  </clipPath>
 </defs>
</svg>
