<?xml version="1.0" encoding="utf-8" standalone="no"?>
<!DOCTYPE svg PUBLIC "-//W3C//DTD SVG 1.1//EN"
  "http://www.w3.org/Graphics/SVG/1.1/DTD/svg11.dtd">
<svg xmlns:xlink="http://www.w3.org/1999/xlink" width="144pt" height="60pt" viewBox="0 0 144 60" xmlns="http://www.w3.org/2000/svg" version="1.1">
  <desc id="nav-meta">{"window":"1m","count":4,"labels":["30.01","09.02","19.02","01.03"],"tick_utc":["2026-01-30T12:00:00Z","2026-02-09T03:34:10Z","2026-02-19T03:28:49Z","2026-03-01T03:33:48Z"]}</desc>

 <metadata>
  <rdf:RDF xmlns:dc="http://purl.org/dc/elements/1.1/" xmlns:cc="http://creativecommons.org/ns#" xmlns:rdf="http://www.w3.org/1999/02/22-rdf-syntax-ns#">
   <cc:Work>
    <dc:type rdf:resource="http://purl.org/dc/dcmitype/StillImage"/>
    <dc:date>2026-03-01T07:21:49.980397</dc:date>
    <dc:format>image/svg+xml</dc:format>
    <dc:creator>
     <cc:Agent>
      <dc:title>Matplotlib v3.10.8, https://matplotlib.org/</dc:title>
     </cc:Agent>
    </dc:creator>
   </cc:Work>
  </rdf:RDF>
 </metadata>
 <defs>
  <style type="text/css">*{stroke-linejoin: round; stroke-linecap: butt}</style>
 </defs>
 <g id="figure_1">
  <g id="patch_1">
   <path d="M 0 60 
L 144 60 
L 144 0 
L 0 0 
L 0 60 
z
" style="fill: none; opacity: 0"/>
  </g>
  <g id="axes_1">
   <g id="patch_2">
    <path d="M 5.76 52.8 
L 138.24 52.8 
L 138.24 3.6 
L 5.76 3.6 
L 5.76 52.8 
z
" style="fill: none"/>
   </g>
   <g id="matplotlib.axis_1"/>
   <g id="matplotlib.axis_2"/>
   <g id="line2d_1">
    <path d="M 5.76 42.96 
L 138.24 42.96 
" clip-path="url(#p3a45bb2db8)" style="fill: none; stroke: #b2b2b2; stroke-opacity: 0.35; stroke-width: 0.5; stroke-linecap: square"/>
   </g>
   <g id="line2d_2">
    <path d="M 5.76 33.12 
L 138.24 33.12 
" clip-path="url(#p3a45bb2db8)" style="fill: none; stroke: #b2b2b2; stroke-opacity: 0.35; stroke-width: 0.5; stroke-linecap: square"/>
   </g>
   <g id="line2d_3">
    <path d="M 5.76 23.28 
L 138.24 23.28 
" clip-path="url(#p3a45bb2db8)" style="fill: none; stroke: #b2b2b2; stroke-opacity: 0.35; stroke-width: 0.5; stroke-linecap: square"/>
   </g>
   <g id="line2d_4">
    <path d="M 5.76 13.44 
L 138.24 13.44 
" clip-path="url(#p3a45bb2db8)" style="fill: none; stroke: #b2b2b2; stroke-opacity: 0.35; stroke-width: 0.5; stroke-linecap: square"/>
   </g>
   <g id="line2d_5">
    <path d="M 5.76 46.30068 
L 10.228358 46.34496 
L 14.696717 47.89476 
L 19.165075 48.26376 
L 23.633434 47.96364 
L 27.405731 48.55896 
L 30.95668 49.06572 
L 35.422763 50.04972 
L 39.871986 49.24776 
L 44.442486 49.32156 
L 48.87397 49.31172 
L 53.367825 49.43964 
L 57.826926 49.59708 
L 62.2792 49.80372 
L 66.746214 49.86768 
L 71.160838 49.479 
L 75.393418 49.24776 
L 80.148393 49.48392 
L 84.055465 49.37568 
L 89.078024 49.479 
L 93.540953 49.7004 
L 97.983194 49.62168 
L 102.424246 49.5282 
L 106.943649 49.49376 
L 111.425454 49.98576 
L 115.516329 49.96608 
L 120.346086 49.7004 
L 124.794534 49.27236 
L 129.254411 49.37076 
L 133.670121 49.68072 
L 138.24 49.25268 
" clip-path="url(#p3a45bb2db8)" style="fill: none; stroke: #bebebe; stroke-width: 0.6; stroke-linecap: round"/>
   </g>
   <g id="line2d_6">
    <path d="M 5.76 38.37948 
L 10.228358 39.20604 
L 14.696717 41.03136 
L 19.165075 42.26628 
L 23.633434 41.73492 
L 27.405731 42.23676 
L 30.95668 43.38804 
L 35.422763 44.89356 
L 39.871986 43.6242 
L 44.442486 43.575 
L 48.87397 43.53072 
L 53.367825 43.72752 
L 57.826926 44.0916 
L 62.2792 44.436 
L 66.746214 44.49012 
L 71.160838 43.81608 
L 75.393418 43.7226 
L 80.148393 44.5344 
L 84.055465 44.19 
L 89.078024 44.21952 
L 93.540953 44.3868 
L 97.983194 44.51472 
L 102.424246 44.4606 
L 106.943649 44.3868 
L 111.425454 45.174 
L 115.516329 45.23796 
L 120.346086 44.81484 
L 124.794534 43.821 
L 129.254411 44.01288 
L 133.670121 44.66232 
L 138.24 43.93908 
" clip-path="url(#p3a45bb2db8)" style="fill: none; stroke: #4a8dff; stroke-width: 0.6; stroke-linecap: round"/>
   </g>
   <g id="line2d_7">
    <path d="M 5.76 43.78164 
L 10.228358 43.9932 
L 14.696717 46.66968 
L 19.165075 47.55036 
L 23.633434 46.64508 
L 27.405731 47.89476 
L 30.95668 48.89352 
L 35.422763 49.84308 
L 39.871986 49.00176 
L 44.442486 49.233 
L 48.87397 48.97716 
L 53.367825 49.22316 
L 57.826926 49.36092 
L 62.2792 49.49868 
L 66.746214 49.58724 
L 71.160838 49.28712 
L 75.393418 49.16904 
L 80.148393 49.39044 
L 84.055465 49.29696 
L 89.078024 49.479 
L 93.540953 49.55772 
L 97.983194 49.51344 
L 102.424246 49.44948 
L 106.943649 49.41996 
L 111.425454 49.8234 
L 115.516329 49.86768 
L 120.346086 49.72992 
L 124.794534 49.39536 
L 129.254411 49.52328 
L 133.670121 49.6758 
L 138.24 49.47408 
" clip-path="url(#p3a45bb2db8)" style="fill: none; stroke: #f5841e; stroke-width: 0.7; stroke-linecap: round"/>
   </g>
  </g>
 </g>
 <defs>
  <clipPath id="p3a45bb2db8">
   <rect x="5.76" y="3.6" width="132.48" height="49.2"/>
  </clipPath>
 </defs>
</svg>
