<?xml version="1.0" encoding="utf-8" standalone="no"?>
<!DOCTYPE svg PUBLIC "-//W3C//DTD SVG 1.1//EN"
  "http://www.w3.org/Graphics/SVG/1.1/DTD/svg11.dtd">
<svg xmlns:xlink="http://www.w3.org/1999/xlink" width="144pt" height="60pt" viewBox="0 0 144 60" xmlns="http://www.w3.org/2000/svg" version="1.1">
  <desc id="nav-meta">{"window":"3m","count":4,"labels":["26.11","26.12","25.01","24.02"],"tick_utc":["2025-11-26T12:00:00Z","2025-12-26T12:00:00Z","2026-01-25T12:00:00Z","2026-02-24T01:30:44Z"]}</desc>

 <metadata>
  <rdf:RDF xmlns:dc="http://purl.org/dc/elements/1.1/" xmlns:cc="http://creativecommons.org/ns#" xmlns:rdf="http://www.w3.org/1999/02/22-rdf-syntax-ns#">
   <cc:Work>
    <dc:type rdf:resource="http://purl.org/dc/dcmitype/StillImage"/>
    <dc:date>2026-02-24T07:37:43.674345</dc:date>
    <dc:format>image/svg+xml</dc:format>
    <dc:creator>
     <cc:Agent>
      <dc:title>Matplotlib v3.10.8, https://matplotlib.org/</dc:title>
     </cc:Agent>
    </dc:creator>
   </cc:Work>
  </rdf:RDF>
 </metadata>
 <defs>
  <style type="text/css">*{stroke-linejoin: round; stroke-linecap: butt}</style>
 </defs>
 <g id="figure_1">
  <g id="patch_1">
   <path d="M 0 60 
L 144 60 
L 144 0 
L 0 0 
L 0 60 
z
" style="fill: none; opacity: 0"/>
  </g>
  <g id="axes_1">
   <g id="patch_2">
    <path d="M 5.76 52.8 
L 138.24 52.8 
L 138.24 3.6 
L 5.76 3.6 
L 5.76 52.8 
z
" style="fill: none"/>
   </g>
   <g id="matplotlib.axis_1"/>
   <g id="matplotlib.axis_2"/>
   <g id="line2d_1">
    <path d="M 5.76 42.96 
L 138.24 42.96 
" clip-path="url(#p3db0f140e0)" style="fill: none; stroke: #b2b2b2; stroke-opacity: 0.35; stroke-width: 0.5; stroke-linecap: square"/>
   </g>
   <g id="line2d_2">
    <path d="M 5.76 33.12 
L 138.24 33.12 
" clip-path="url(#p3db0f140e0)" style="fill: none; stroke: #b2b2b2; stroke-opacity: 0.35; stroke-width: 0.5; stroke-linecap: square"/>
   </g>
   <g id="line2d_3">
    <path d="M 5.76 23.28 
L 138.24 23.28 
" clip-path="url(#p3db0f140e0)" style="fill: none; stroke: #b2b2b2; stroke-opacity: 0.35; stroke-width: 0.5; stroke-linecap: square"/>
   </g>
   <g id="line2d_4">
    <path d="M 5.76 13.44 
L 138.24 13.44 
" clip-path="url(#p3db0f140e0)" style="fill: none; stroke: #b2b2b2; stroke-opacity: 0.35; stroke-width: 0.5; stroke-linecap: square"/>
   </g>
   <g id="line2d_5">
    <path d="M 5.76 43.51596 
L 7.239182 43.00428 
L 8.718364 43.2798 
L 10.197546 43.71768 
L 11.676728 43.8948 
L 13.15591 44.0916 
L 14.635093 45.11004 
L 16.114275 43.55532 
L 17.593457 42.72876 
L 19.072639 43.51596 
L 20.551821 44.27364 
L 22.031003 44.40156 
L 23.510185 44.47536 
L 24.989367 44.25888 
L 26.468549 43.64388 
L 27.947731 43.84068 
L 29.426914 43.85052 
L 30.906096 44.36712 
L 32.385278 44.26872 
L 33.86446 44.74104 
L 35.343642 44.98704 
L 36.822824 44.84436 
L 38.302006 45.58728 
L 39.781188 46.0596 
L 41.26037 45.18384 
L 42.739552 45.23796 
L 44.218735 45.20844 
L 45.697917 45.24288 
L 47.177099 45.47904 
L 48.656281 45.65616 
L 50.135463 45.98088 
L 51.614645 45.70536 
L 53.093827 45.38556 
L 54.573009 45.31668 
L 56.052191 45.58728 
L 57.531373 45.35604 
L 59.010556 45.40032 
L 60.489738 45.11496 
L 61.96892 44.42124 
L 63.448102 44.25888 
L 64.927284 44.18508 
L 66.406466 43.62912 
L 67.885648 43.24044 
L 69.36483 43.8702 
L 70.844012 43.60944 
L 72.323194 43.92924 
L 73.802377 43.93416 
L 75.281559 43.46184 
L 76.760741 43.5012 
L 78.239923 42.72384 
L 79.719105 42.51228 
L 81.198287 43.08792 
L 82.677469 42.75828 
L 84.156651 42.90096 
L 85.635833 43.57008 
L 87.115015 44.2392 
L 88.594198 45.23304 
L 90.07338 44.77548 
L 91.552562 44.91816 
L 93.031744 45.04608 
L 94.510926 45.07068 
L 95.990108 46.1334 
L 97.46929 45.4446 
L 98.948472 45.06084 
L 100.427654 45.33144 
L 101.906836 46.30068 
L 103.386019 46.34496 
L 104.865201 47.89476 
L 106.344383 48.26376 
L 107.823565 47.96364 
L 109.072327 48.55896 
L 110.247814 49.06572 
L 111.726243 50.04972 
L 113.199091 49.24776 
L 114.712085 49.32156 
L 116.17906 49.31172 
L 117.666683 49.43964 
L 119.1428 49.59708 
L 120.616658 49.80372 
L 122.095395 49.86768 
L 123.556789 49.479 
L 124.957921 49.24776 
L 126.531983 49.48392 
L 127.82536 49.37568 
L 129.488001 49.479 
L 130.965386 49.7004 
L 132.435922 49.62168 
L 133.906065 49.5282 
L 135.402145 49.49376 
L 136.885778 49.98576 
L 138.24 49.96608 
" clip-path="url(#p3db0f140e0)" style="fill: none; stroke: #bebebe; stroke-width: 0.6; stroke-linecap: round"/>
   </g>
   <g id="line2d_6">
    <path d="M 5.76 37.42008 
L 7.239182 36.90348 
L 8.718364 36.98712 
L 10.197546 36.86412 
L 11.676728 37.16424 
L 13.15591 37.14948 
L 14.635093 38.52216 
L 16.114275 37.1298 
L 17.593457 35.71776 
L 19.072639 36.15564 
L 20.551821 36.93792 
L 22.031003 36.81984 
L 23.510185 36.72636 
L 24.989367 36.21468 
L 26.468549 34.8174 
L 27.947731 34.7928 
L 29.426914 35.42748 
L 30.906096 36.49512 
L 32.385278 36.28356 
L 33.86446 36.6378 
L 35.343642 37.3512 
L 36.822824 37.3512 
L 38.302006 38.31552 
L 39.781188 38.32536 
L 41.26037 37.26264 
L 42.739552 37.26264 
L 44.218735 37.09044 
L 45.697917 37.06092 
L 47.177099 37.34628 
L 48.656281 37.48404 
L 50.135463 37.77924 
L 51.614645 37.61688 
L 53.093827 37.45944 
L 54.573009 37.46928 
L 56.052191 37.56276 
L 57.531373 37.31184 
L 59.010556 37.33644 
L 60.489738 37.09536 
L 61.96892 36.23928 
L 63.448102 36.20976 
L 64.927284 36.11628 
L 66.406466 35.48652 
L 67.885648 35.0142 
L 69.36483 35.93424 
L 70.844012 36.36228 
L 72.323194 36.50988 
L 73.802377 36.5148 
L 75.281559 36.25404 
L 76.760741 36.46068 
L 78.239923 34.83708 
L 79.719105 34.57632 
L 81.198287 34.84692 
L 82.677469 35.00436 
L 84.156651 34.93056 
L 85.635833 35.088 
L 87.115015 35.78664 
L 88.594198 37.55292 
L 90.07338 37.26756 
L 91.552562 37.46436 
L 93.031744 37.44468 
L 94.510926 37.45944 
L 95.990108 38.41392 
L 97.46929 37.61196 
L 98.948472 36.95268 
L 100.427654 37.05108 
L 101.906836 38.37948 
L 103.386019 39.20604 
L 104.865201 41.03136 
L 106.344383 42.26628 
L 107.823565 41.73492 
L 109.072327 42.23676 
L 110.247814 43.38804 
L 111.726243 44.89356 
L 113.199091 43.6242 
L 114.712085 43.575 
L 116.17906 43.53072 
L 117.666683 43.72752 
L 119.1428 44.0916 
L 120.616658 44.436 
L 122.095395 44.49012 
L 123.556789 43.81608 
L 124.957921 43.7226 
L 126.531983 44.5344 
L 127.82536 44.19 
L 129.488001 44.21952 
L 130.965386 44.3868 
L 132.435922 44.51472 
L 133.906065 44.4606 
L 135.402145 44.3868 
L 136.885778 45.174 
L 138.24 45.23796 
" clip-path="url(#p3db0f140e0)" style="fill: none; stroke: #4a8dff; stroke-width: 0.6; stroke-linecap: round"/>
   </g>
   <g id="line2d_7">
    <path d="M 5.76 42.42864 
L 7.239182 40.86408 
L 8.718364 40.47048 
L 10.197546 40.63284 
L 11.676728 40.68204 
L 13.15591 40.89852 
L 14.635093 42.9354 
L 16.114275 40.43604 
L 17.593457 39.31428 
L 19.072639 40.04244 
L 20.551821 41.43972 
L 22.031003 41.47416 
L 23.510185 41.02152 
L 24.989367 40.7952 
L 26.468549 39.75708 
L 27.947731 40.11132 
L 29.426914 39.87024 
L 30.906096 40.94772 
L 32.385278 40.97232 
L 33.86446 41.976 
L 35.343642 42.87144 
L 36.822824 42.17772 
L 38.302006 43.04364 
L 39.781188 43.34868 
L 41.26037 42.03504 
L 42.739552 41.91696 
L 44.218735 41.8038 
L 45.697917 41.84316 
L 47.177099 42.37944 
L 48.656281 42.26628 
L 50.135463 42.468 
L 51.614645 42.42864 
L 53.093827 42.18264 
L 54.573009 42.1728 
L 56.052191 42.50244 
L 57.531373 41.88252 
L 59.010556 42.32532 
L 60.489738 41.73 
L 61.96892 41.13468 
L 63.448102 40.80504 
L 64.927284 40.42128 
L 66.406466 39.16176 
L 67.885648 39.28968 
L 69.36483 40.48032 
L 70.844012 40.61316 
L 72.323194 40.84932 
L 73.802377 40.88376 
L 75.281559 40.6968 
L 76.760741 40.53936 
L 78.239923 38.50248 
L 79.719105 37.63656 
L 81.198287 38.34012 
L 82.677469 38.37456 
L 84.156651 38.5812 
L 85.635833 39.2454 
L 87.115015 39.8358 
L 88.594198 41.93172 
L 90.07338 41.42004 
L 91.552562 41.37576 
L 93.031744 41.39052 
L 94.510926 41.5086 
L 95.990108 42.80256 
L 97.46929 41.93664 
L 98.948472 41.49384 
L 100.427654 41.51352 
L 101.906836 43.78164 
L 103.386019 43.9932 
L 104.865201 46.66968 
L 106.344383 47.55036 
L 107.823565 46.64508 
L 109.072327 47.89476 
L 110.247814 48.89352 
L 111.726243 49.84308 
L 113.199091 49.00176 
L 114.712085 49.233 
L 116.17906 48.97716 
L 117.666683 49.22316 
L 119.1428 49.36092 
L 120.616658 49.49868 
L 122.095395 49.58724 
L 123.556789 49.28712 
L 124.957921 49.16904 
L 126.531983 49.39044 
L 127.82536 49.29696 
L 129.488001 49.479 
L 130.965386 49.55772 
L 132.435922 49.51344 
L 133.906065 49.44948 
L 135.402145 49.41996 
L 136.885778 49.8234 
L 138.24 49.86768 
" clip-path="url(#p3db0f140e0)" style="fill: none; stroke: #f5841e; stroke-width: 0.7; stroke-linecap: round"/>
   </g>
  </g>
 </g>
 <defs>
  <clipPath id="p3db0f140e0">
   <rect x="5.76" y="3.6" width="132.48" height="49.2"/>
  </clipPath>
 </defs>
</svg>
