<?xml version="1.0" encoding="utf-8" standalone="no"?>
<!DOCTYPE svg PUBLIC "-//W3C//DTD SVG 1.1//EN"
  "http://www.w3.org/Graphics/SVG/1.1/DTD/svg11.dtd">
<svg xmlns:xlink="http://www.w3.org/1999/xlink" width="144pt" height="60pt" viewBox="0 0 144 60" xmlns="http://www.w3.org/2000/svg" version="1.1">
  <desc id="nav-meta">{"window":"1m","count":4,"labels":["17.04","27.04","06.05","16.05"],"tick_utc":["2026-04-17T03:55:44Z","2026-04-27T04:22:02Z","2026-05-06T04:24:54Z","2026-05-16T04:20:56Z"]}</desc>

 <metadata>
  <rdf:RDF xmlns:dc="http://purl.org/dc/elements/1.1/" xmlns:cc="http://creativecommons.org/ns#" xmlns:rdf="http://www.w3.org/1999/02/22-rdf-syntax-ns#">
   <cc:Work>
    <dc:type rdf:resource="http://purl.org/dc/dcmitype/StillImage"/>
    <dc:date>2026-05-16T04:21:00.195673</dc:date>
    <dc:format>image/svg+xml</dc:format>
    <dc:creator>
     <cc:Agent>
      <dc:title>Matplotlib v3.10.9, https://matplotlib.org/</dc:title>
     </cc:Agent>
    </dc:creator>
   </cc:Work>
  </rdf:RDF>
 </metadata>
 <defs>
  <style type="text/css">*{stroke-linejoin: round; stroke-linecap: butt}</style>
 </defs>
 <g id="figure_1">
  <g id="patch_1">
   <path d="M 0 60 
L 144 60 
L 144 0 
L 0 0 
L 0 60 
z
" style="fill: none; opacity: 0"/>
  </g>
  <g id="axes_1">
   <g id="patch_2">
    <path d="M 5.76 52.8 
L 138.24 52.8 
L 138.24 3.6 
L 5.76 3.6 
L 5.76 52.8 
z
" style="fill: none"/>
   </g>
   <g id="matplotlib.axis_1"/>
   <g id="matplotlib.axis_2"/>
   <g id="line2d_1">
    <path d="M 5.76 42.96 
L 138.24 42.96 
" clip-path="url(#p06512e46d3)" style="fill: none; stroke: #b2b2b2; stroke-opacity: 0.35; stroke-width: 0.5; stroke-linecap: square"/>
   </g>
   <g id="line2d_2">
    <path d="M 5.76 33.12 
L 138.24 33.12 
" clip-path="url(#p06512e46d3)" style="fill: none; stroke: #b2b2b2; stroke-opacity: 0.35; stroke-width: 0.5; stroke-linecap: square"/>
   </g>
   <g id="line2d_3">
    <path d="M 5.76 23.28 
L 138.24 23.28 
" clip-path="url(#p06512e46d3)" style="fill: none; stroke: #b2b2b2; stroke-opacity: 0.35; stroke-width: 0.5; stroke-linecap: square"/>
   </g>
   <g id="line2d_4">
    <path d="M 5.76 13.44 
L 138.24 13.44 
" clip-path="url(#p06512e46d3)" style="fill: none; stroke: #b2b2b2; stroke-opacity: 0.35; stroke-width: 0.5; stroke-linecap: square"/>
   </g>
   <g id="line2d_5">
    <path d="M 5.76 49.27728 
L 10.275163 49.19856 
L 14.900976 49.43472 
L 19.477805 49.50852 
L 24.023299 49.46424 
L 28.574658 49.31664 
L 33.158673 49.4298 
L 37.736295 49.42488 
L 42.247336 49.37568 
L 46.883876 49.4052 
L 51.498592 49.29204 
L 56.073677 49.5528 
L 60.626728 49.50852 
L 65.19991 49.64136 
L 69.815314 49.56756 
L 74.264319 49.56264 
L 78.922524 49.57248 
L 83.486459 49.42488 
L 87.951422 49.49376 
L 92.597368 49.32156 
L 97.164104 49.25268 
L 101.653639 49.24284 
L 106.235858 48.80004 
L 110.893376 48.85416 
L 115.494935 48.72132 
L 119.997045 48.63276 
L 124.584284 48.66228 
L 129.144732 49.09524 
L 133.732764 48.99192 
L 138.24 49.19364 
" clip-path="url(#p06512e46d3)" style="fill: none; stroke: #bebebe; stroke-width: 0.6; stroke-linecap: round"/>
   </g>
   <g id="line2d_6">
    <path d="M 5.76 41.85792 
L 10.275163 41.22324 
L 14.900976 41.76936 
L 19.477805 42.1482 
L 24.023299 41.96616 
L 28.574658 41.59224 
L 33.158673 41.76936 
L 37.736295 41.99076 
L 42.247336 41.91696 
L 46.883876 41.98584 
L 51.498592 41.41512 
L 56.073677 42.15312 
L 60.626728 41.96124 
L 65.19991 42.43848 
L 69.815314 42.20232 
L 74.264319 42.02028 
L 78.922524 42.0252 
L 83.486459 41.40528 
L 87.951422 41.46432 
L 92.597368 41.52336 
L 97.164104 41.86776 
L 101.653639 42.1974 
L 106.235858 41.8776 
L 110.893376 41.84316 
L 115.494935 41.8038 
L 119.997045 41.976 
L 124.584284 42.00552 
L 129.144732 42.3942 
L 133.732764 42.27612 
L 138.24 42.57624 
" clip-path="url(#p06512e46d3)" style="fill: none; stroke: #4a8dff; stroke-width: 0.6; stroke-linecap: round"/>
   </g>
   <g id="line2d_7">
    <path d="M 5.76 48.26376 
L 10.275163 47.41752 
L 14.900976 48.05712 
L 19.477805 48.26376 
L 24.023299 48.01776 
L 28.574658 47.23548 
L 33.158673 47.17644 
L 37.736295 47.15676 
L 42.247336 47.1666 
L 46.883876 47.31912 
L 51.498592 46.49256 
L 56.073677 47.64876 
L 60.626728 47.5356 
L 65.19991 48.0276 
L 69.815314 47.50608 
L 74.264319 46.81728 
L 78.922524 46.92552 
L 83.486459 45.85788 
L 87.951422 45.60204 
L 92.597368 45.29208 
L 97.164104 45.58728 
L 101.653639 46.2564 
L 106.235858 45.7152 
L 110.893376 45.63648 
L 115.494935 45.6414 
L 119.997045 45.45936 
L 124.584284 45.42492 
L 129.144732 46.38432 
L 133.732764 45.57744 
L 138.24 46.51716 
" clip-path="url(#p06512e46d3)" style="fill: none; stroke: #f5841e; stroke-width: 0.7; stroke-linecap: round"/>
   </g>
  </g>
 </g>
 <defs>
  <clipPath id="p06512e46d3">
   <rect x="5.76" y="3.6" width="132.48" height="49.2"/>
  </clipPath>
 </defs>
</svg>
