<?xml version="1.0" encoding="utf-8" standalone="no"?>
<!DOCTYPE svg PUBLIC "-//W3C//DTD SVG 1.1//EN"
  "http://www.w3.org/Graphics/SVG/1.1/DTD/svg11.dtd">
<svg xmlns:xlink="http://www.w3.org/1999/xlink" width="144pt" height="60pt" viewBox="0 0 144 60" xmlns="http://www.w3.org/2000/svg" version="1.1">
  <desc id="nav-meta">{"window":"6m","count":4,"labels":["13.01","14.03","12.05","11.07"],"tick_utc":["2026-01-13T12:00:00Z","2026-03-14T03:15:02Z","2026-05-12T04:26:58Z","2026-07-11T03:56:05Z"]}</desc>

 <metadata>
  <rdf:RDF xmlns:dc="http://purl.org/dc/elements/1.1/" xmlns:cc="http://creativecommons.org/ns#" xmlns:rdf="http://www.w3.org/1999/02/22-rdf-syntax-ns#">
   <cc:Work>
    <dc:type rdf:resource="http://purl.org/dc/dcmitype/StillImage"/>
    <dc:date>2026-07-11T14:09:24.036735</dc:date>
    <dc:format>image/svg+xml</dc:format>
    <dc:creator>
     <cc:Agent>
      <dc:title>Matplotlib v3.11.0, https://matplotlib.org/</dc:title>
     </cc:Agent>
    </dc:creator>
   </cc:Work>
  </rdf:RDF>
 </metadata>
 <defs>
  <style type="text/css">*{stroke-linejoin: round; stroke-linecap: butt}</style>
 </defs>
 <g id="figure_1">
  <g id="patch_1">
   <path d="M 0 60 
L 144 60 
L 144 0 
L 0 0 
L 0 60 
z
" style="fill: none; opacity: 0"/>
  </g>
  <g id="axes_1">
   <g id="patch_2">
    <path d="M 5.76 52.8 
L 138.24 52.8 
L 138.24 3.6 
L 5.76 3.6 
L 5.76 52.8 
z
" style="fill: none"/>
   </g>
   <g id="matplotlib.axis_1"/>
   <g id="matplotlib.axis_2"/>
   <g id="line2d_1">
    <path d="M 5.76 42.96 
L 138.24 42.96 
" clip-path="url(#p095b30dac9)" style="fill: none; stroke: #b2b2b2; stroke-opacity: 0.35; stroke-width: 0.5; stroke-linecap: square"/>
   </g>
   <g id="line2d_2">
    <path d="M 5.76 33.12 
L 138.24 33.12 
" clip-path="url(#p095b30dac9)" style="fill: none; stroke: #b2b2b2; stroke-opacity: 0.35; stroke-width: 0.5; stroke-linecap: square"/>
   </g>
   <g id="line2d_3">
    <path d="M 5.76 23.28 
L 138.24 23.28 
" clip-path="url(#p095b30dac9)" style="fill: none; stroke: #b2b2b2; stroke-opacity: 0.35; stroke-width: 0.5; stroke-linecap: square"/>
   </g>
   <g id="line2d_4">
    <path d="M 5.76 13.44 
L 138.24 13.44 
" clip-path="url(#p095b30dac9)" style="fill: none; stroke: #b2b2b2; stroke-opacity: 0.35; stroke-width: 0.5; stroke-linecap: square"/>
   </g>
   <g id="line2d_5">
    <path d="M 5.76 43.5012 
L 6.501504 42.72384 
L 7.243008 42.51228 
L 7.984511 43.08792 
L 8.726015 42.75828 
L 9.467519 42.90096 
L 10.950527 44.2392 
L 11.692031 45.23304 
L 12.433534 44.77548 
L 13.916542 45.04608 
L 14.658046 45.07068 
L 15.39955 46.1334 
L 16.141054 45.4446 
L 16.882557 45.06084 
L 17.624061 45.33144 
L 18.365565 46.30068 
L 19.107069 46.34496 
L 19.848573 47.89476 
L 20.590077 48.26376 
L 21.33158 47.96364 
L 22.54684 49.06572 
L 23.287966 50.04972 
L 24.026294 49.24776 
L 27.005835 49.59708 
L 27.74467 49.80372 
L 28.485951 49.86768 
L 29.218538 49.479 
L 29.920915 49.24776 
L 30.709982 49.48392 
L 31.358343 49.37568 
L 32.191814 49.479 
L 32.932416 49.7004 
L 35.156533 49.49376 
L 35.900268 49.98576 
L 36.57913 49.96608 
L 37.380607 49.7004 
L 38.118806 49.27236 
L 38.858903 49.37076 
L 39.59167 49.68072 
L 40.350021 49.25268 
L 41.083869 49.51344 
L 43.307548 49.09032 
L 45.533218 49.64628 
L 46.276945 49.58724 
L 47.013685 49.36092 
L 48.499319 49.45932 
L 49.23939 49.16904 
L 50.735597 49.27236 
L 51.479195 48.87384 
L 52.954882 48.70164 
L 53.696592 49.03128 
L 54.430878 49.1592 
L 55.168039 49.08048 
L 56.663877 49.36584 
L 58.195246 48.90828 
L 58.890543 49.05096 
L 60.367397 49.64628 
L 63.347315 49.59708 
L 64.079053 49.8726 
L 65.556559 49.80864 
L 67.789335 49.83816 
L 68.532041 49.50852 
L 69.270961 49.68564 
L 70.749455 49.48884 
L 71.504261 49.6512 
L 72.249567 49.69056 
L 72.98635 49.40028 
L 73.727288 49.58724 
L 75.94532 49.19856 
L 76.696616 49.43472 
L 77.439956 49.50852 
L 81.138043 49.37568 
L 81.891082 49.4052 
L 82.640576 49.29204 
L 83.383633 49.5528 
L 84.123111 49.50852 
L 84.865859 49.64136 
L 86.338045 49.56264 
L 87.094602 49.57248 
L 87.835848 49.42488 
L 88.56102 49.49376 
L 90.057287 49.25268 
L 90.78645 49.24284 
L 91.530666 48.80004 
L 92.287111 48.85416 
L 93.765673 48.63276 
L 94.510704 48.66228 
L 95.251384 49.09524 
L 95.996544 48.99192 
L 97.481157 49.34616 
L 98.229861 49.47408 
L 99.710208 49.54788 
L 100.455935 49.3314 
L 101.191757 49.34616 
L 101.923074 49.51836 
L 103.42758 49.41504 
L 105.646101 49.7742 
L 107.875607 49.61676 
L 109.362288 49.7988 
L 110.112134 50.19732 
L 110.851097 50.45808 
L 111.580389 50.59092 
L 112.310495 50.99928 
L 113.812718 50.74344 
L 114.54007 50.62536 
L 115.289264 50.80248 
L 118.262497 50.56632 
L 119.774383 50.23176 
L 120.492269 50.2416 
L 121.989188 50.55156 
L 124.221184 50.217 
L 126.403822 50.59092 
L 127.149128 50.59092 
L 127.881543 50.33016 
L 128.637182 50.4384 
L 129.38405 50.3892 
L 133.063797 49.6266 
L 133.816157 49.7742 
L 135.295226 49.76436 
L 136.780559 49.98084 
L 137.520389 49.8972 
L 138.24 49.971 
L 138.24 49.971 
" clip-path="url(#p095b30dac9)" style="fill: none; stroke: #bebebe; stroke-width: 0.6; stroke-linecap: round"/>
   </g>
   <g id="line2d_6">
    <path d="M 5.76 36.46068 
L 6.501504 34.83708 
L 7.243008 34.57632 
L 8.726015 35.00436 
L 9.467519 34.93056 
L 10.209023 35.088 
L 10.950527 35.78664 
L 11.692031 37.55292 
L 12.433534 37.26756 
L 13.175038 37.46436 
L 14.658046 37.45944 
L 15.39955 38.41392 
L 16.882557 36.95268 
L 17.624061 37.05108 
L 18.365565 38.37948 
L 19.107069 39.20604 
L 19.848573 41.03136 
L 20.590077 42.26628 
L 21.33158 41.73492 
L 21.957576 42.23676 
L 23.287966 44.89356 
L 24.026294 43.6242 
L 25.520133 43.53072 
L 26.265868 43.72752 
L 27.74467 44.436 
L 28.485951 44.49012 
L 29.218538 43.81608 
L 29.920915 43.7226 
L 30.709982 44.5344 
L 31.358343 44.19 
L 32.191814 44.21952 
L 33.669586 44.51472 
L 35.156533 44.3868 
L 35.900268 45.174 
L 36.57913 45.23796 
L 37.380607 44.81484 
L 38.118806 43.821 
L 38.858903 44.01288 
L 39.59167 44.66232 
L 40.350021 43.93908 
L 41.083869 44.39664 
L 41.827098 44.12112 
L 42.564448 44.33268 
L 43.307548 43.3044 
L 44.0487 43.6242 
L 44.784514 44.29824 
L 45.533218 44.53932 
L 46.276945 44.30808 
L 47.013685 43.8702 
L 47.754898 44.00304 
L 48.499319 43.97844 
L 49.23939 43.41756 
L 50.735597 43.48644 
L 51.479195 42.49752 
L 52.207722 41.73984 
L 52.954882 41.7546 
L 53.696592 42.591 
L 54.430878 43.14204 
L 55.168039 43.083 
L 55.920631 43.35852 
L 56.663877 43.78164 
L 57.398515 43.21584 
L 58.195246 42.9354 
L 58.890543 43.10268 
L 60.367397 44.25396 
L 62.599452 43.74228 
L 63.347315 43.46676 
L 64.821406 43.79148 
L 66.309228 43.77672 
L 67.052646 43.2552 
L 67.789335 43.40772 
L 68.532041 42.49752 
L 69.270961 42.90588 
L 70.019288 42.8616 
L 70.749455 42.41388 
L 72.249567 42.79764 
L 72.98635 41.57256 
L 73.727288 41.86284 
L 74.472001 41.63652 
L 75.211995 41.85792 
L 75.94532 41.22324 
L 76.696616 41.76936 
L 77.439956 42.1482 
L 78.178207 41.96616 
L 78.917411 41.59224 
L 80.405388 41.99076 
L 81.138043 41.91696 
L 81.891082 41.98584 
L 82.640576 41.41512 
L 83.383633 42.15312 
L 84.123111 41.96124 
L 84.865859 42.43848 
L 86.338045 42.02028 
L 87.094602 42.0252 
L 87.835848 41.40528 
L 89.315586 41.52336 
L 90.78645 42.1974 
L 91.530666 41.8776 
L 93.034468 41.8038 
L 93.765673 41.976 
L 94.510704 42.00552 
L 95.251384 42.3942 
L 95.996544 42.27612 
L 97.481157 42.85176 
L 98.229861 43.31424 
L 98.966052 43.2306 
L 99.710208 43.39296 
L 100.455935 43.16172 
L 101.191757 43.24536 
L 101.923074 43.71768 
L 102.676318 43.33392 
L 104.906966 43.67832 
L 105.646101 44.32776 
L 106.388154 44.13588 
L 107.118964 44.16048 
L 107.875607 43.96368 
L 108.628079 44.2392 
L 109.362288 44.19984 
L 110.112134 45.16908 
L 110.851097 45.67584 
L 111.580389 46.00548 
L 112.310495 47.57004 
L 113.812718 46.64016 
L 114.54007 46.34496 
L 115.289264 46.82712 
L 116.779532 46.51716 
L 117.515612 46.5516 
L 118.262497 46.46304 
L 120.492269 45.6414 
L 121.23022 46.09404 
L 121.989188 46.3302 
L 124.221184 46.035 
L 124.91836 46.14324 
L 127.149128 47.38308 
L 127.881543 47.14692 
L 129.38405 47.22072 
L 131.592049 46.79268 
L 132.325486 46.27608 
L 133.063797 45.92184 
L 134.564844 45.75456 
L 136.780559 46.02024 
L 138.24 45.61188 
L 138.24 45.61188 
" clip-path="url(#p095b30dac9)" style="fill: none; stroke: #4a8dff; stroke-width: 0.6; stroke-linecap: round"/>
   </g>
   <g id="line2d_7">
    <path d="M 5.76 40.53936 
L 6.501504 38.50248 
L 7.243008 37.63656 
L 7.984511 38.34012 
L 8.726015 38.37456 
L 9.467519 38.5812 
L 10.950527 39.8358 
L 11.692031 41.93172 
L 12.433534 41.42004 
L 13.916542 41.39052 
L 14.658046 41.5086 
L 15.39955 42.80256 
L 16.141054 41.93664 
L 16.882557 41.49384 
L 17.624061 41.51352 
L 18.365565 43.78164 
L 19.107069 43.9932 
L 19.848573 46.66968 
L 20.590077 47.55036 
L 21.33158 46.64508 
L 22.54684 48.89352 
L 23.287966 49.84308 
L 24.026294 49.00176 
L 24.784748 49.233 
L 25.520133 48.97716 
L 27.005835 49.36092 
L 28.485951 49.58724 
L 29.218538 49.28712 
L 29.920915 49.16904 
L 30.709982 49.39044 
L 31.358343 49.29696 
L 32.932416 49.55772 
L 35.156533 49.41996 
L 35.900268 49.8234 
L 36.57913 49.86768 
L 37.380607 49.72992 
L 38.118806 49.39536 
L 39.59167 49.6758 
L 40.350021 49.47408 
L 41.083869 49.60692 
L 41.827098 49.37568 
L 42.564448 49.36584 
L 43.307548 48.6672 
L 44.0487 48.95256 
L 44.784514 49.36092 
L 45.533218 49.54788 
L 46.276945 49.5282 
L 47.013685 49.09032 
L 48.499319 49.2084 
L 49.23939 48.93288 
L 50.735597 48.89844 
L 51.479195 48.48024 
L 52.207722 48.1998 
L 52.954882 48.28344 
L 53.696592 48.88368 
L 54.430878 49.04604 
L 55.168039 49.00176 
L 56.663877 49.38552 
L 57.398515 49.04112 
L 58.195246 48.92796 
L 58.890543 48.987 
L 60.367397 49.66104 
L 63.347315 49.40028 
L 64.079053 49.56756 
L 65.556559 49.56264 
L 66.309228 49.53312 
L 67.052646 49.25268 
L 67.789335 49.29696 
L 68.532041 48.89352 
L 69.270961 48.96732 
L 70.749455 48.5934 
L 71.504261 48.84432 
L 72.249567 48.95748 
L 72.98635 48.30804 
L 73.727288 48.34248 
L 74.472001 48.21456 
L 75.211995 48.26376 
L 75.94532 47.41752 
L 76.696616 48.05712 
L 77.439956 48.26376 
L 78.178207 48.01776 
L 78.917411 47.23548 
L 81.138043 47.1666 
L 81.891082 47.31912 
L 82.640576 46.49256 
L 83.383633 47.64876 
L 84.123111 47.5356 
L 84.865859 48.0276 
L 85.615465 47.50608 
L 86.338045 46.81728 
L 87.094602 46.92552 
L 87.835848 45.85788 
L 89.315586 45.29208 
L 90.057287 45.58728 
L 90.78645 46.2564 
L 91.530666 45.7152 
L 94.510704 45.42492 
L 95.251384 46.38432 
L 95.996544 45.57744 
L 96.728582 46.51716 
L 97.481157 46.95996 
L 98.229861 47.54544 
L 99.710208 47.66844 
L 100.455935 47.05344 
L 101.191757 47.22564 
L 101.923074 48.07188 
L 103.42758 47.37324 
L 104.906966 48.07188 
L 105.646101 48.59832 
L 106.388154 48.52452 
L 107.118964 48.5688 
L 107.875607 48.38676 
L 108.628079 48.55404 
L 110.851097 49.93656 
L 111.580389 49.98084 
L 112.310495 50.3646 
L 113.067936 50.15796 
L 114.54007 49.99068 
L 115.289264 50.217 
L 116.779532 49.98084 
L 118.262497 49.87752 
L 119.028649 49.69548 
L 120.492269 49.7004 
L 121.989188 50.06448 
L 123.457975 49.89228 
L 124.91836 49.9464 
L 127.881543 50.31048 
L 130.86353 50.41872 
L 133.063797 50.0694 
L 136.016578 50.05956 
L 136.780559 50.11368 
L 137.520389 49.91196 
L 138.24 49.90212 
L 138.24 49.90212 
" clip-path="url(#p095b30dac9)" style="fill: none; stroke: #f5841e; stroke-width: 0.7; stroke-linecap: round"/>
   </g>
  </g>
 </g>
 <defs>
  <clipPath id="p095b30dac9">
   <rect x="5.76" y="3.6" width="132.48" height="49.2"/>
  </clipPath>
 </defs>
</svg>
