<?xml version="1.0" encoding="utf-8" standalone="no"?>
<!DOCTYPE svg PUBLIC "-//W3C//DTD SVG 1.1//EN"
  "http://www.w3.org/Graphics/SVG/1.1/DTD/svg11.dtd">
<svg xmlns:xlink="http://www.w3.org/1999/xlink" width="144pt" height="60pt" viewBox="0 0 144 60" xmlns="http://www.w3.org/2000/svg" version="1.1">
  <desc id="nav-meta">{"window":"6m","count":4,"labels":["05.12","03.02","04.04","03.06"],"tick_utc":["2025-12-05T12:00:00Z","2026-02-03T12:00:00Z","2026-04-04T03:24:53Z","2026-06-03T05:31:47Z"]}</desc>

 <metadata>
  <rdf:RDF xmlns:dc="http://purl.org/dc/elements/1.1/" xmlns:cc="http://creativecommons.org/ns#" xmlns:rdf="http://www.w3.org/1999/02/22-rdf-syntax-ns#">
   <cc:Work>
    <dc:type rdf:resource="http://purl.org/dc/dcmitype/StillImage"/>
    <dc:date>2026-06-03T11:31:47.556454</dc:date>
    <dc:format>image/svg+xml</dc:format>
    <dc:creator>
     <cc:Agent>
      <dc:title>Matplotlib v3.10.9, https://matplotlib.org/</dc:title>
     </cc:Agent>
    </dc:creator>
   </cc:Work>
  </rdf:RDF>
 </metadata>
 <defs>
  <style type="text/css">*{stroke-linejoin: round; stroke-linecap: butt}</style>
 </defs>
 <g id="figure_1">
  <g id="patch_1">
   <path d="M 0 60 
L 144 60 
L 144 0 
L 0 0 
L 0 60 
z
" style="fill: none; opacity: 0"/>
  </g>
  <g id="axes_1">
   <g id="patch_2">
    <path d="M 5.76 52.8 
L 138.24 52.8 
L 138.24 3.6 
L 5.76 3.6 
L 5.76 52.8 
z
" style="fill: none"/>
   </g>
   <g id="matplotlib.axis_1"/>
   <g id="matplotlib.axis_2"/>
   <g id="line2d_1">
    <path d="M 5.76 42.96 
L 138.24 42.96 
" clip-path="url(#p3453b12b37)" style="fill: none; stroke: #b2b2b2; stroke-opacity: 0.35; stroke-width: 0.5; stroke-linecap: square"/>
   </g>
   <g id="line2d_2">
    <path d="M 5.76 33.12 
L 138.24 33.12 
" clip-path="url(#p3453b12b37)" style="fill: none; stroke: #b2b2b2; stroke-opacity: 0.35; stroke-width: 0.5; stroke-linecap: square"/>
   </g>
   <g id="line2d_3">
    <path d="M 5.76 23.28 
L 138.24 23.28 
" clip-path="url(#p3453b12b37)" style="fill: none; stroke: #b2b2b2; stroke-opacity: 0.35; stroke-width: 0.5; stroke-linecap: square"/>
   </g>
   <g id="line2d_4">
    <path d="M 5.76 13.44 
L 138.24 13.44 
" clip-path="url(#p3453b12b37)" style="fill: none; stroke: #b2b2b2; stroke-opacity: 0.35; stroke-width: 0.5; stroke-linecap: square"/>
   </g>
   <g id="line2d_5">
    <path d="M 5.76 43.51596 
L 6.497104 44.27364 
L 7.971312 44.47536 
L 8.708416 44.25888 
L 9.44552 43.64388 
L 10.182624 43.84068 
L 10.919728 43.85052 
L 11.656832 44.36712 
L 12.393936 44.26872 
L 13.13104 44.74104 
L 13.868144 44.98704 
L 14.605248 44.84436 
L 15.342352 45.58728 
L 16.079456 46.0596 
L 16.81656 45.18384 
L 19.764976 45.47904 
L 20.50208 45.65616 
L 21.239184 45.98088 
L 22.713392 45.38556 
L 23.450496 45.31668 
L 24.1876 45.58728 
L 24.924704 45.35604 
L 25.661808 45.40032 
L 26.398912 45.11496 
L 27.136016 44.42124 
L 28.610224 44.18508 
L 29.347328 43.62912 
L 30.084432 43.24044 
L 30.821536 43.8702 
L 31.55864 43.60944 
L 32.295744 43.92924 
L 33.032848 43.93416 
L 33.769952 43.46184 
L 34.507056 43.5012 
L 35.24416 42.72384 
L 35.981264 42.51228 
L 36.718368 43.08792 
L 37.455472 42.75828 
L 38.192576 42.90096 
L 39.666784 44.2392 
L 40.403888 45.23304 
L 41.140992 44.77548 
L 42.6152 45.04608 
L 43.352304 45.07068 
L 44.089408 46.1334 
L 44.826512 45.4446 
L 45.563616 45.06084 
L 46.30072 45.33144 
L 47.037824 46.30068 
L 47.774928 46.34496 
L 48.512032 47.89476 
L 49.249136 48.26376 
L 49.98624 47.96364 
L 51.194288 49.06572 
L 51.931017 50.04972 
L 52.664964 49.24776 
L 55.626826 49.59708 
L 56.361277 49.80372 
L 57.098159 49.86768 
L 57.826399 49.479 
L 58.524609 49.24776 
L 59.308993 49.48392 
L 59.953507 49.37568 
L 60.782032 49.479 
L 61.51824 49.7004 
L 63.72916 49.49376 
L 64.468482 49.98576 
L 65.143316 49.96608 
L 65.940037 49.7004 
L 66.673856 49.27236 
L 67.409561 49.37076 
L 68.13798 49.68072 
L 68.891831 49.25268 
L 69.621325 49.51344 
L 71.83181 49.09032 
L 74.044273 49.64628 
L 74.783587 49.58724 
L 75.515956 49.36092 
L 76.992775 49.45932 
L 77.728454 49.16904 
L 79.215783 49.27236 
L 79.954969 48.87384 
L 81.4219 48.70164 
L 82.159208 49.03128 
L 82.889138 49.1592 
L 83.621925 49.08048 
L 85.108887 49.36584 
L 86.631169 48.90828 
L 87.32234 49.05096 
L 88.790431 49.64628 
L 91.752668 49.59708 
L 92.480063 49.8726 
L 93.948803 49.80864 
L 96.168331 49.83816 
L 96.906629 49.50852 
L 97.641165 49.68564 
L 99.110885 49.48884 
L 99.861213 49.6512 
L 100.602096 49.69056 
L 101.334508 49.40028 
L 102.071049 49.58724 
L 104.27592 49.19856 
L 105.022758 49.43472 
L 105.761688 49.50852 
L 109.437832 49.37568 
L 110.186402 49.4052 
L 110.931449 49.29204 
L 111.670097 49.5528 
L 112.405187 49.50852 
L 113.143528 49.64136 
L 114.606978 49.56264 
L 115.359046 49.57248 
L 116.095894 49.42488 
L 116.816763 49.49376 
L 118.304152 49.25268 
L 119.028988 49.24284 
L 119.768788 48.80004 
L 120.520745 48.85416 
L 121.990534 48.63276 
L 122.731144 48.66228 
L 123.467429 49.09524 
L 124.208168 48.99192 
L 125.683971 49.34616 
L 126.428233 49.47408 
L 127.899796 49.54788 
L 128.641097 49.3314 
L 129.372554 49.34616 
L 130.099531 49.51836 
L 131.59511 49.41504 
L 133.800467 49.7742 
L 136.016744 49.61676 
L 137.494604 49.7988 
L 138.24 50.19732 
L 138.24 50.19732 
" clip-path="url(#p3453b12b37)" style="fill: none; stroke: #bebebe; stroke-width: 0.6; stroke-linecap: round"/>
   </g>
   <g id="line2d_6">
    <path d="M 5.76 36.15564 
L 6.497104 36.93792 
L 7.971312 36.72636 
L 8.708416 36.21468 
L 9.44552 34.8174 
L 10.182624 34.7928 
L 10.919728 35.42748 
L 11.656832 36.49512 
L 12.393936 36.28356 
L 13.13104 36.6378 
L 13.868144 37.3512 
L 14.605248 37.3512 
L 15.342352 38.31552 
L 16.079456 38.32536 
L 16.81656 37.26264 
L 17.553664 37.26264 
L 18.290768 37.09044 
L 19.027872 37.06092 
L 19.764976 37.34628 
L 20.50208 37.48404 
L 21.239184 37.77924 
L 22.713392 37.45944 
L 24.1876 37.56276 
L 24.924704 37.31184 
L 25.661808 37.33644 
L 26.398912 37.09536 
L 27.136016 36.23928 
L 28.610224 36.11628 
L 29.347328 35.48652 
L 30.084432 35.0142 
L 30.821536 35.93424 
L 31.55864 36.36228 
L 32.295744 36.50988 
L 33.032848 36.5148 
L 33.769952 36.25404 
L 34.507056 36.46068 
L 35.24416 34.83708 
L 35.981264 34.57632 
L 37.455472 35.00436 
L 38.192576 34.93056 
L 38.92968 35.088 
L 39.666784 35.78664 
L 40.403888 37.55292 
L 41.140992 37.26756 
L 41.878096 37.46436 
L 43.352304 37.45944 
L 44.089408 38.41392 
L 45.563616 36.95268 
L 46.30072 37.05108 
L 47.037824 38.37948 
L 47.774928 39.20604 
L 48.512032 41.03136 
L 49.249136 42.26628 
L 49.98624 41.73492 
L 50.608521 42.23676 
L 51.931017 44.89356 
L 52.664964 43.6242 
L 54.149939 43.53072 
L 54.891249 43.72752 
L 56.361277 44.436 
L 57.098159 44.49012 
L 57.826399 43.81608 
L 58.524609 43.7226 
L 59.308993 44.5344 
L 59.953507 44.19 
L 60.782032 44.21952 
L 62.251036 44.51472 
L 63.72916 44.3868 
L 64.468482 45.174 
L 65.143316 45.23796 
L 65.940037 44.81484 
L 66.673856 43.821 
L 67.409561 44.01288 
L 68.13798 44.66232 
L 68.891831 43.93908 
L 69.621325 44.39664 
L 70.360144 44.12112 
L 71.093119 44.33268 
L 71.83181 43.3044 
L 72.568564 43.6242 
L 73.300012 44.29824 
L 74.044273 44.53932 
L 74.783587 44.30808 
L 75.515956 43.8702 
L 76.25277 44.00304 
L 76.992775 43.97844 
L 77.728454 43.41756 
L 79.215783 43.48644 
L 79.954969 42.49752 
L 80.679173 41.73984 
L 81.4219 41.7546 
L 82.159208 42.591 
L 82.889138 43.14204 
L 83.621925 43.083 
L 84.370051 43.35852 
L 85.108887 43.78164 
L 85.839166 43.21584 
L 86.631169 42.9354 
L 87.32234 43.10268 
L 88.790431 44.25396 
L 91.009242 43.74228 
L 91.752668 43.46676 
L 93.218012 43.79148 
L 94.697006 43.77672 
L 95.436013 43.2552 
L 96.168331 43.40772 
L 96.906629 42.49752 
L 97.641165 42.90588 
L 98.385051 42.8616 
L 99.110885 42.41388 
L 100.602096 42.79764 
L 101.334508 41.57256 
L 102.071049 41.86284 
L 102.811344 41.63652 
L 103.546946 41.85792 
L 104.27592 41.22324 
L 105.022758 41.76936 
L 105.761688 42.1482 
L 106.495558 41.96616 
L 107.230376 41.59224 
L 108.709524 41.99076 
L 109.437832 41.91696 
L 110.186402 41.98584 
L 110.931449 41.41512 
L 111.670097 42.15312 
L 112.405187 41.96124 
L 113.143528 42.43848 
L 114.606978 42.02028 
L 115.359046 42.0252 
L 116.095894 41.40528 
L 117.566852 41.52336 
L 119.028988 42.1974 
L 119.768788 41.8776 
L 121.263667 41.8038 
L 121.990534 41.976 
L 122.731144 42.00552 
L 123.467429 42.3942 
L 124.208168 42.27612 
L 125.683971 42.85176 
L 126.428233 43.31424 
L 127.160056 43.2306 
L 127.899796 43.39296 
L 128.641097 43.16172 
L 129.372554 43.24536 
L 130.099531 43.71768 
L 130.848306 43.33392 
L 133.065718 43.67832 
L 133.800467 44.32776 
L 134.538117 44.13588 
L 135.264591 44.16048 
L 136.016744 43.96368 
L 136.764751 44.2392 
L 137.494604 44.19984 
L 138.24 45.16908 
L 138.24 45.16908 
" clip-path="url(#p3453b12b37)" style="fill: none; stroke: #4a8dff; stroke-width: 0.6; stroke-linecap: round"/>
   </g>
   <g id="line2d_7">
    <path d="M 5.76 40.04244 
L 6.497104 41.43972 
L 7.234208 41.47416 
L 7.971312 41.02152 
L 8.708416 40.7952 
L 9.44552 39.75708 
L 10.182624 40.11132 
L 10.919728 39.87024 
L 11.656832 40.94772 
L 12.393936 40.97232 
L 13.868144 42.87144 
L 14.605248 42.17772 
L 15.342352 43.04364 
L 16.079456 43.34868 
L 16.81656 42.03504 
L 18.290768 41.8038 
L 19.027872 41.84316 
L 19.764976 42.37944 
L 20.50208 42.26628 
L 21.239184 42.468 
L 21.976288 42.42864 
L 22.713392 42.18264 
L 23.450496 42.1728 
L 24.1876 42.50244 
L 24.924704 41.88252 
L 25.661808 42.32532 
L 27.136016 41.13468 
L 28.610224 40.42128 
L 29.347328 39.16176 
L 30.084432 39.28968 
L 30.821536 40.48032 
L 33.032848 40.88376 
L 34.507056 40.53936 
L 35.24416 38.50248 
L 35.981264 37.63656 
L 36.718368 38.34012 
L 37.455472 38.37456 
L 38.192576 38.5812 
L 39.666784 39.8358 
L 40.403888 41.93172 
L 41.140992 41.42004 
L 42.6152 41.39052 
L 43.352304 41.5086 
L 44.089408 42.80256 
L 44.826512 41.93664 
L 45.563616 41.49384 
L 46.30072 41.51352 
L 47.037824 43.78164 
L 47.774928 43.9932 
L 48.512032 46.66968 
L 49.249136 47.55036 
L 49.98624 46.64508 
L 51.194288 48.89352 
L 51.931017 49.84308 
L 52.664964 49.00176 
L 53.418918 49.233 
L 54.149939 48.97716 
L 55.626826 49.36092 
L 57.098159 49.58724 
L 57.826399 49.28712 
L 58.524609 49.16904 
L 59.308993 49.39044 
L 59.953507 49.29696 
L 61.51824 49.55772 
L 63.72916 49.41996 
L 64.468482 49.8234 
L 65.143316 49.86768 
L 65.940037 49.72992 
L 66.673856 49.39536 
L 68.13798 49.6758 
L 68.891831 49.47408 
L 69.621325 49.60692 
L 70.360144 49.37568 
L 71.093119 49.36584 
L 71.83181 48.6672 
L 72.568564 48.95256 
L 73.300012 49.36092 
L 74.044273 49.54788 
L 74.783587 49.5282 
L 75.515956 49.09032 
L 76.992775 49.2084 
L 77.728454 48.93288 
L 79.215783 48.89844 
L 79.954969 48.48024 
L 80.679173 48.1998 
L 81.4219 48.28344 
L 82.159208 48.88368 
L 82.889138 49.04604 
L 83.621925 49.00176 
L 85.108887 49.38552 
L 85.839166 49.04112 
L 86.631169 48.92796 
L 87.32234 48.987 
L 88.790431 49.66104 
L 91.752668 49.40028 
L 92.480063 49.56756 
L 93.948803 49.56264 
L 94.697006 49.53312 
L 95.436013 49.25268 
L 96.168331 49.29696 
L 96.906629 48.89352 
L 97.641165 48.96732 
L 99.110885 48.5934 
L 99.861213 48.84432 
L 100.602096 48.95748 
L 101.334508 48.30804 
L 102.071049 48.34248 
L 102.811344 48.21456 
L 103.546946 48.26376 
L 104.27592 47.41752 
L 105.022758 48.05712 
L 105.761688 48.26376 
L 106.495558 48.01776 
L 107.230376 47.23548 
L 109.437832 47.1666 
L 110.186402 47.31912 
L 110.931449 46.49256 
L 111.670097 47.64876 
L 112.405187 47.5356 
L 113.143528 48.0276 
L 113.888686 47.50608 
L 114.606978 46.81728 
L 115.359046 46.92552 
L 116.095894 45.85788 
L 117.566852 45.29208 
L 118.304152 45.58728 
L 119.028988 46.2564 
L 119.768788 45.7152 
L 122.731144 45.42492 
L 123.467429 46.38432 
L 124.208168 45.57744 
L 124.935862 46.51716 
L 125.683971 46.95996 
L 126.428233 47.54544 
L 127.899796 47.66844 
L 128.641097 47.05344 
L 129.372554 47.22564 
L 130.099531 48.07188 
L 131.59511 47.37324 
L 133.065718 48.07188 
L 133.800467 48.59832 
L 134.538117 48.52452 
L 135.264591 48.5688 
L 136.016744 48.38676 
L 136.764751 48.55404 
L 138.24 49.57248 
L 138.24 49.57248 
" clip-path="url(#p3453b12b37)" style="fill: none; stroke: #f5841e; stroke-width: 0.7; stroke-linecap: round"/>
   </g>
  </g>
 </g>
 <defs>
  <clipPath id="p3453b12b37">
   <rect x="5.76" y="3.6" width="132.48" height="49.2"/>
  </clipPath>
 </defs>
</svg>
