<?xml version="1.0" encoding="utf-8" standalone="no"?>
<!DOCTYPE svg PUBLIC "-//W3C//DTD SVG 1.1//EN"
  "http://www.w3.org/Graphics/SVG/1.1/DTD/svg11.dtd">
<svg xmlns:xlink="http://www.w3.org/1999/xlink" width="144pt" height="60pt" viewBox="0 0 144 60" xmlns="http://www.w3.org/2000/svg" version="1.1">
  <desc id="nav-meta">{"window":"1y","count":4,"labels":["20.04","20.08","19.12","20.04"],"tick_utc":["2025-04-20T12:00:00Z","2025-08-20T12:00:00Z","2025-12-19T12:00:00Z","2026-04-20T04:02:26Z"]}</desc>

 <metadata>
  <rdf:RDF xmlns:dc="http://purl.org/dc/elements/1.1/" xmlns:cc="http://creativecommons.org/ns#" xmlns:rdf="http://www.w3.org/1999/02/22-rdf-syntax-ns#">
   <cc:Work>
    <dc:type rdf:resource="http://purl.org/dc/dcmitype/StillImage"/>
    <dc:date>2026-04-20T04:02:28.360102</dc:date>
    <dc:format>image/svg+xml</dc:format>
    <dc:creator>
     <cc:Agent>
      <dc:title>Matplotlib v3.10.8, https://matplotlib.org/</dc:title>
     </cc:Agent>
    </dc:creator>
   </cc:Work>
  </rdf:RDF>
 </metadata>
 <defs>
  <style type="text/css">*{stroke-linejoin: round; stroke-linecap: butt}</style>
 </defs>
 <g id="figure_1">
  <g id="patch_1">
   <path d="M 0 60 
L 144 60 
L 144 0 
L 0 0 
L 0 60 
z
" style="fill: none; opacity: 0"/>
  </g>
  <g id="axes_1">
   <g id="patch_2">
    <path d="M 5.76 52.8 
L 138.24 52.8 
L 138.24 3.6 
L 5.76 3.6 
L 5.76 52.8 
z
" style="fill: none"/>
   </g>
   <g id="matplotlib.axis_1"/>
   <g id="matplotlib.axis_2"/>
   <g id="line2d_1">
    <path d="M 5.76 42.96 
L 138.24 42.96 
" clip-path="url(#p8ed66cc17b)" style="fill: none; stroke: #b2b2b2; stroke-opacity: 0.35; stroke-width: 0.5; stroke-linecap: square"/>
   </g>
   <g id="line2d_2">
    <path d="M 5.76 33.12 
L 138.24 33.12 
" clip-path="url(#p8ed66cc17b)" style="fill: none; stroke: #b2b2b2; stroke-opacity: 0.35; stroke-width: 0.5; stroke-linecap: square"/>
   </g>
   <g id="line2d_3">
    <path d="M 5.76 23.28 
L 138.24 23.28 
" clip-path="url(#p8ed66cc17b)" style="fill: none; stroke: #b2b2b2; stroke-opacity: 0.35; stroke-width: 0.5; stroke-linecap: square"/>
   </g>
   <g id="line2d_4">
    <path d="M 5.76 13.44 
L 138.24 13.44 
" clip-path="url(#p8ed66cc17b)" style="fill: none; stroke: #b2b2b2; stroke-opacity: 0.35; stroke-width: 0.5; stroke-linecap: square"/>
   </g>
   <g id="line2d_5">
    <path d="M 5.76 43.43232 
L 6.486578 43.86528 
L 6.849867 42.23676 
L 7.576445 41.7792 
L 8.666312 42.31056 
L 9.029601 42.345 
L 9.39289 42.5418 
L 9.756179 42.37944 
L 10.119468 41.98584 
L 10.482757 42.345 
L 10.846046 42.49752 
L 11.209335 42.86652 
L 11.572624 42.49752 
L 12.299202 42.44832 
L 12.662491 40.33272 
L 13.02578 39.12732 
L 13.389069 38.52216 
L 13.752358 39.10272 
L 14.115647 38.901 
L 14.478936 37.6464 
L 15.205514 39.639 
L 15.932092 40.008 
L 16.295381 39.27492 
L 16.65867 39.90468 
L 17.021959 39.6882 
L 17.748537 38.22696 
L 18.111826 38.901 
L 18.475115 38.69436 
L 19.201693 38.86164 
L 19.564982 38.62056 
L 20.29156 39.88992 
L 20.654849 41.23308 
L 21.744716 41.17404 
L 22.471294 41.62176 
L 22.834583 42.79272 
L 23.197872 42.30564 
L 23.92445 41.7546 
L 24.287739 40.62792 
L 24.651028 40.131 
L 25.014317 40.6476 
L 25.377606 41.73492 
L 26.104184 42.76812 
L 26.467473 41.73492 
L 26.830762 41.89728 
L 27.194051 42.345 
L 27.55734 42.5664 
L 27.920629 42.46308 
L 28.647207 44.20476 
L 29.010496 44.45076 
L 29.373785 42.7632 
L 29.737074 42.63036 
L 30.100363 42.94524 
L 30.463652 43.52088 
L 30.826941 43.1076 
L 31.19023 41.98092 
L 31.916807 41.43972 
L 32.280096 42.4926 
L 32.643385 41.79888 
L 33.006674 41.78412 
L 33.369963 42.37452 
L 33.733252 42.3942 
L 34.096541 41.83332 
L 34.45983 42.24168 
L 34.823119 41.84316 
L 35.549697 40.2786 
L 35.912986 40.42128 
L 36.276275 40.71648 
L 37.002853 40.48032 
L 37.366142 40.26384 
L 37.729431 38.97972 
L 38.456009 38.51724 
L 38.819298 38.57628 
L 39.182587 38.04492 
L 39.545876 36.03264 
L 39.909165 34.88136 
L 40.272454 36.92316 
L 40.635743 37.8432 
L 40.999032 37.37088 
L 41.362321 37.53324 
L 41.72561 37.056 
L 42.088899 37.77924 
L 42.452188 38.02032 
L 42.815477 38.45328 
L 43.178766 39.1962 
L 43.542055 40.41636 
L 43.905344 40.97232 
L 44.268633 40.53444 
L 44.631922 39.55536 
L 44.995211 40.24908 
L 45.3585 39.7128 
L 45.721789 38.778 
L 46.085078 38.59104 
L 46.811656 37.794 
L 47.174945 38.82228 
L 47.538234 36.53448 
L 47.901523 35.334 
L 48.628101 37.44468 
L 48.99139 36.90348 
L 49.354679 36.65748 
L 50.081257 38.64516 
L 50.444546 37.2282 
L 50.807835 38.14332 
L 51.171124 35.53572 
L 51.534413 35.04372 
L 51.897702 34.80264 
L 52.260991 37.23804 
L 53.350858 33.67104 
L 53.714147 34.90596 
L 54.804014 35.9736 
L 55.167303 34.36476 
L 55.530592 34.1778 
L 55.893881 35.22084 
L 56.25717 35.11752 
L 56.620459 35.54556 
L 58.073615 32.44104 
L 58.436904 31.83096 
L 58.800193 30.06468 
L 59.163482 30.01056 
L 59.526771 30.291 
L 59.89006 31.16184 
L 60.253349 30.74856 
L 60.616638 29.71536 
L 60.979927 29.37588 
L 61.343216 30.57636 
L 61.706505 30.42876 
L 62.069794 30.79284 
L 62.433083 32.91828 
L 62.796372 33.72024 
L 63.159661 34.05972 
L 63.52295 36.5886 
L 63.886239 34.90104 
L 64.249528 35.10276 
L 64.612817 34.16796 
L 64.976106 33.8826 
L 65.339395 34.43364 
L 66.065973 31.05852 
L 66.429262 31.26024 
L 66.792551 31.92936 
L 67.15584 31.85064 
L 67.519129 31.3242 
L 67.882418 32.84448 
L 68.245707 31.78176 
L 68.608996 32.85924 
L 68.972285 36.8838 
L 69.335574 38.39424 
L 69.698863 35.95392 
L 70.062152 34.53696 
L 70.425441 35.20608 
L 71.152019 37.57752 
L 71.515308 37.90716 
L 71.878597 37.18884 
L 72.241886 37.18392 
L 72.605175 36.89364 
L 72.968464 37.42008 
L 73.331753 38.17284 
L 73.695042 36.687 
L 74.058331 36.42132 
L 74.42162 36.34752 
L 74.784909 35.56032 
L 75.148198 35.72268 
L 75.511487 36.29832 
L 75.874776 36.32292 
L 76.238065 37.61688 
L 76.601354 37.2282 
L 76.964643 37.34628 
L 77.327932 37.23804 
L 77.691221 40.008 
L 78.05451 41.36592 
L 78.417799 40.43604 
L 78.781088 41.44956 
L 79.144377 40.53444 
L 79.507666 41.02152 
L 79.870955 40.22448 
L 80.234244 39.79644 
L 80.597533 41.51844 
L 80.960822 41.66604 
L 81.6874 43.51596 
L 82.050689 43.43724 
L 82.413978 43.71276 
L 82.777267 44.59836 
L 83.140556 43.30932 
L 84.230422 44.88372 
L 84.593711 44.99688 
L 84.957 44.57868 
L 85.320289 43.5996 
L 85.683578 43.51596 
L 86.046867 43.00428 
L 86.410156 43.2798 
L 86.773445 43.71768 
L 87.500023 44.0916 
L 87.863312 45.11004 
L 88.226601 43.55532 
L 88.58989 42.72876 
L 89.316468 44.27364 
L 90.043046 44.47536 
L 90.406335 44.25888 
L 90.769624 43.64388 
L 91.132913 43.84068 
L 91.496202 43.85052 
L 91.859491 44.36712 
L 92.22278 44.26872 
L 92.586069 44.74104 
L 92.949358 44.98704 
L 93.312647 44.84436 
L 93.675936 45.58728 
L 94.039225 46.0596 
L 94.402514 45.18384 
L 95.85567 45.47904 
L 96.218959 45.65616 
L 96.582248 45.98088 
L 97.308826 45.38556 
L 97.672115 45.31668 
L 98.035404 45.58728 
L 98.398693 45.35604 
L 98.761982 45.40032 
L 99.125271 45.11496 
L 99.48856 44.42124 
L 100.215138 44.18508 
L 100.941716 43.24044 
L 101.305005 43.8702 
L 101.668294 43.60944 
L 102.031583 43.92924 
L 102.394872 43.93416 
L 102.758161 43.46184 
L 103.12145 43.5012 
L 103.484739 42.72384 
L 103.848028 42.51228 
L 104.211317 43.08792 
L 104.574606 42.75828 
L 104.937895 42.90096 
L 105.664473 44.2392 
L 106.027762 45.23304 
L 106.391051 44.77548 
L 107.117629 45.04608 
L 107.480918 45.07068 
L 107.844207 46.1334 
L 108.207496 45.4446 
L 108.570785 45.06084 
L 108.934074 45.33144 
L 109.297363 46.30068 
L 109.660652 46.34496 
L 110.023941 47.89476 
L 110.38723 48.26376 
L 110.750519 47.96364 
L 111.709022 50.04972 
L 112.070755 49.24776 
L 113.530538 49.59708 
L 113.892519 49.80372 
L 114.255699 49.86768 
L 114.958738 49.24776 
L 115.34533 49.48392 
L 115.662985 49.37568 
L 116.071332 49.479 
L 116.434179 49.7004 
L 117.523853 49.49376 
L 117.888235 49.98576 
L 118.220834 49.96608 
L 118.613506 49.7004 
L 118.975176 49.27236 
L 119.337775 49.37076 
L 119.696784 49.68072 
L 120.068327 49.25268 
L 120.427865 49.51344 
L 121.517324 49.09032 
L 122.972137 49.58724 
L 123.333092 49.36092 
L 124.060957 49.45932 
L 124.423544 49.16904 
L 125.156588 49.27236 
L 125.520903 48.87384 
L 126.243895 48.70164 
L 126.607285 49.03128 
L 126.967037 49.1592 
L 127.328199 49.08048 
L 128.061063 49.36584 
L 128.811335 48.90828 
L 129.151985 49.05096 
L 129.875548 49.64628 
L 131.335516 49.59708 
L 131.69402 49.8726 
L 132.417903 49.80864 
L 133.511819 49.83816 
L 133.875697 49.50852 
L 134.23772 49.68564 
L 134.962086 49.48884 
L 135.697044 49.69056 
L 136.058021 49.40028 
L 136.421032 49.58724 
L 137.507725 49.19856 
L 137.875811 49.43472 
L 138.24 49.50852 
L 138.24 49.50852 
" clip-path="url(#p8ed66cc17b)" style="fill: none; stroke: #bebebe; stroke-width: 0.6; stroke-linecap: round"/>
   </g>
   <g id="line2d_6">
    <path d="M 5.76 46.896 
L 6.123289 47.10756 
L 6.486578 47.16168 
L 6.849867 45.87264 
L 7.213156 45.63156 
L 7.576445 45.80376 
L 8.303023 45.43968 
L 8.666312 45.63156 
L 9.39289 45.61188 
L 9.756179 45.63156 
L 10.119468 45.31176 
L 10.846046 45.3462 
L 11.209335 45.52824 
L 11.935913 45.47412 
L 12.299202 45.51348 
L 12.662491 42.77796 
L 13.02578 41.75952 
L 13.389069 40.04244 
L 13.752358 40.58364 
L 14.115647 40.69188 
L 14.478936 39.38808 
L 15.205514 40.33764 
L 15.568803 40.32288 
L 15.932092 40.81488 
L 16.295381 40.88376 
L 16.65867 40.44588 
L 17.021959 40.46556 
L 17.385248 40.21956 
L 17.748537 39.52584 
L 18.111826 40.49508 
L 19.201693 40.19496 
L 19.564982 39.4914 
L 19.928271 39.38808 
L 20.29156 39.69312 
L 20.654849 40.46556 
L 21.381427 40.36716 
L 21.744716 39.8604 
L 22.108005 39.96372 
L 22.471294 39.85548 
L 22.834583 41.1888 
L 23.561161 40.4508 
L 23.92445 40.5738 
L 24.651028 38.45328 
L 25.014317 38.68452 
L 25.377606 39.55536 
L 25.740895 40.09164 
L 26.104184 40.39668 
L 26.830762 40.2048 
L 27.194051 40.52952 
L 27.920629 40.48032 
L 28.647207 42.26136 
L 29.010496 42.5664 
L 29.373785 41.17404 
L 29.737074 41.0166 
L 30.100363 41.22324 
L 30.826941 41.17896 
L 31.19023 41.08056 
L 31.553519 40.61808 
L 31.916807 40.7214 
L 32.280096 41.30688 
L 32.643385 40.11132 
L 33.006674 39.99816 
L 33.369963 40.56888 
L 33.733252 40.51476 
L 34.096541 40.131 
L 34.45983 40.3278 
L 34.823119 39.81612 
L 35.549697 37.46436 
L 35.912986 37.39056 
L 36.276275 37.50372 
L 37.002853 37.01172 
L 37.366142 36.16056 
L 37.729431 34.4976 
L 38.09272 33.69072 
L 38.819298 32.89368 
L 39.182587 31.73256 
L 39.545876 31.68336 
L 39.909165 31.8162 
L 40.272454 32.64276 
L 40.635743 32.0868 
L 41.362321 31.85064 
L 41.72561 30.98964 
L 42.088899 31.53576 
L 42.452188 31.521 
L 42.815477 31.38816 
L 43.178766 32.17044 
L 43.542055 33.68088 
L 43.905344 34.28604 
L 44.268633 33.58248 
L 44.631922 32.0376 
L 44.995211 32.76576 
L 45.3585 32.259 
L 45.721789 30.65508 
L 46.085078 29.93676 
L 46.448367 28.14588 
L 47.174945 28.40664 
L 47.538234 25.73508 
L 47.901523 24.62316 
L 48.264812 26.10408 
L 48.628101 26.97984 
L 48.99139 27.00936 
L 49.354679 26.58132 
L 49.717968 27.7818 
L 50.081257 29.49888 
L 50.444546 27.68832 
L 50.807835 28.44108 
L 51.171124 24.16068 
L 51.534413 24.55428 
L 51.897702 24.51984 
L 52.260991 27.32916 
L 52.62428 25.7646 
L 52.987569 26.48784 
L 53.350858 26.43372 
L 53.714147 27.44724 
L 54.440725 27.27504 
L 54.804014 27.8802 
L 55.167303 27.72276 
L 55.530592 26.84208 
L 55.893881 27.91956 
L 56.25717 27.8556 
L 56.620459 28.09668 
L 56.983748 27.87528 
L 57.710326 27.83592 
L 58.073615 27.57024 
L 58.436904 26.77812 
L 58.800193 25.01184 
L 59.526771 25.71048 
L 59.89006 26.31564 
L 60.253349 26.45832 
L 60.616638 25.8384 
L 60.979927 25.84824 
L 61.343216 26.6994 
L 61.706505 26.62068 
L 62.069794 26.8224 
L 62.433083 28.61328 
L 63.159661 28.97244 
L 63.52295 30.99456 
L 63.886239 29.76456 
L 64.249528 29.8974 
L 64.612817 29.02164 
L 64.976106 28.50012 
L 65.339395 29.00688 
L 66.065973 26.601 
L 66.429262 26.3796 
L 66.792551 26.5764 
L 67.15584 26.3796 
L 67.519129 25.1496 
L 67.882418 26.81256 
L 68.245707 26.29596 
L 68.608996 27.41772 
L 68.972285 31.19136 
L 69.335574 31.80144 
L 69.698863 28.89864 
L 70.062152 28.28364 
L 71.152019 30.80268 
L 71.515308 31.22088 
L 71.878597 30.8076 
L 72.241886 30.13356 
L 72.605175 30.17784 
L 73.331753 31.42752 
L 73.695042 31.04376 
L 74.058331 30.49764 
L 74.42162 30.3648 
L 74.784909 28.88388 
L 75.148198 29.15448 
L 75.511487 30.15324 
L 76.238065 31.4226 
L 76.964643 30.9306 
L 77.327932 30.66 
L 78.05451 34.99944 
L 78.417799 34.07448 
L 78.781088 34.9158 
L 79.144377 34.02528 
L 79.507666 34.26144 
L 79.870955 33.0216 
L 80.234244 33.10524 
L 80.597533 34.1532 
L 80.960822 34.2024 
L 81.6874 36.34752 
L 82.050689 35.89488 
L 82.777267 36.94776 
L 83.140556 36.2688 
L 83.503844 36.97236 
L 83.867133 38.286 
L 84.230422 38.76324 
L 84.593711 38.73864 
L 84.957 38.51724 
L 85.320289 37.42992 
L 85.683578 37.42008 
L 86.046867 36.90348 
L 86.410156 36.98712 
L 86.773445 36.86412 
L 87.136734 37.16424 
L 87.500023 37.14948 
L 87.863312 38.52216 
L 88.58989 35.71776 
L 88.953179 36.15564 
L 89.316468 36.93792 
L 90.043046 36.72636 
L 90.406335 36.21468 
L 90.769624 34.8174 
L 91.132913 34.7928 
L 91.496202 35.42748 
L 91.859491 36.49512 
L 92.22278 36.28356 
L 92.586069 36.6378 
L 92.949358 37.3512 
L 93.312647 37.3512 
L 93.675936 38.31552 
L 94.039225 38.32536 
L 94.402514 37.26264 
L 94.765803 37.26264 
L 95.129092 37.09044 
L 95.492381 37.06092 
L 95.85567 37.34628 
L 96.218959 37.48404 
L 96.582248 37.77924 
L 97.308826 37.45944 
L 98.035404 37.56276 
L 98.398693 37.31184 
L 98.761982 37.33644 
L 99.125271 37.09536 
L 99.48856 36.23928 
L 100.215138 36.11628 
L 100.941716 35.0142 
L 101.305005 35.93424 
L 101.668294 36.36228 
L 102.031583 36.50988 
L 102.394872 36.5148 
L 102.758161 36.25404 
L 103.12145 36.46068 
L 103.484739 34.83708 
L 103.848028 34.57632 
L 104.574606 35.00436 
L 104.937895 34.93056 
L 105.301184 35.088 
L 105.664473 35.78664 
L 106.027762 37.55292 
L 106.391051 37.26756 
L 106.75434 37.46436 
L 107.480918 37.45944 
L 107.844207 38.41392 
L 108.570785 36.95268 
L 108.934074 37.05108 
L 109.297363 38.37948 
L 109.660652 39.20604 
L 110.023941 41.03136 
L 110.38723 42.26628 
L 110.750519 41.73492 
L 111.057216 42.23676 
L 111.709022 44.89356 
L 112.070755 43.6242 
L 112.802639 43.53072 
L 113.168001 43.72752 
L 113.892519 44.436 
L 114.255699 44.49012 
L 114.614619 43.81608 
L 114.958738 43.7226 
L 115.34533 44.5344 
L 115.662985 44.19 
L 116.071332 44.21952 
L 116.795345 44.51472 
L 117.523853 44.3868 
L 117.888235 45.174 
L 118.220834 45.23796 
L 118.613506 44.81484 
L 118.975176 43.821 
L 119.337775 44.01288 
L 119.696784 44.66232 
L 120.068327 43.93908 
L 120.427865 44.39664 
L 120.791999 44.12112 
L 121.153253 44.33268 
L 121.517324 43.3044 
L 121.880441 43.6242 
L 122.240942 44.29824 
L 122.607759 44.53932 
L 122.972137 44.30808 
L 123.333092 43.8702 
L 123.696238 44.00304 
L 124.060957 43.97844 
L 124.423544 43.41756 
L 125.156588 43.48644 
L 125.877835 41.73984 
L 126.243895 41.7546 
L 126.967037 43.14204 
L 127.328199 43.083 
L 127.69692 43.35852 
L 128.061063 43.78164 
L 128.420988 43.21584 
L 128.811335 42.9354 
L 129.151985 43.10268 
L 129.875548 44.25396 
L 130.969111 43.74228 
L 131.335516 43.46676 
L 132.057725 43.79148 
L 132.786662 43.77672 
L 133.150889 43.2552 
L 133.511819 43.40772 
L 133.875697 42.49752 
L 134.23772 42.90588 
L 134.604352 42.8616 
L 134.962086 42.41388 
L 135.697044 42.79764 
L 136.058021 41.57256 
L 136.421032 41.86284 
L 136.785894 41.63652 
L 137.148443 41.85792 
L 137.507725 41.22324 
L 138.24 42.1482 
L 138.24 42.1482 
" clip-path="url(#p8ed66cc17b)" style="fill: none; stroke: #4a8dff; stroke-width: 0.6; stroke-linecap: round"/>
   </g>
   <g id="line2d_7">
    <path d="M 5.76 43.50612 
L 6.123289 43.53072 
L 6.486578 42.35976 
L 6.849867 39.33396 
L 7.213156 39.3192 
L 7.576445 39.18636 
L 7.939734 38.74356 
L 8.303023 38.80752 
L 8.666312 39.2208 
L 9.029601 38.61564 
L 9.39289 38.9994 
L 9.756179 39.00924 
L 10.119468 37.92684 
L 10.482757 37.71528 
L 10.846046 38.17284 
L 11.209335 38.96496 
L 11.572624 38.74848 
L 11.935913 37.71528 
L 12.299202 37.63164 
L 12.662491 34.64028 
L 13.02578 34.69932 
L 13.389069 33.87276 
L 13.752358 34.18764 
L 14.115647 34.73868 
L 14.478936 34.09416 
L 14.842225 34.38444 
L 15.205514 34.33032 
L 15.932092 34.57632 
L 16.295381 33.18396 
L 16.65867 33.38076 
L 17.021959 32.81004 
L 17.385248 31.38816 
L 17.748537 30.45336 
L 18.111826 32.59848 
L 18.475115 32.29344 
L 18.838404 31.78176 
L 19.201693 31.53084 
L 19.564982 31.68336 
L 19.928271 32.28852 
L 20.654849 34.1778 
L 21.018138 33.84324 
L 21.381427 33.3414 
L 21.744716 33.25284 
L 22.471294 33.7842 
L 22.834583 35.34384 
L 23.197872 33.981 
L 23.561161 33.35616 
L 23.92445 33.35124 
L 24.287739 31.09296 
L 24.651028 31.11756 
L 25.014317 31.87524 
L 25.377606 33.20856 
L 25.740895 33.17412 
L 26.104184 33.45456 
L 26.467473 33.4152 
L 26.830762 32.7264 
L 27.194051 33.84816 
L 27.920629 33.84324 
L 29.010496 35.73744 
L 29.373785 33.4398 
L 29.737074 33.20856 
L 30.100363 32.58372 
L 30.463652 32.71164 
L 31.19023 32.53944 
L 31.553519 32.013 
L 32.280096 33.3906 
L 32.643385 31.80144 
L 33.006674 31.41768 
L 33.369963 32.19012 
L 33.733252 32.10156 
L 34.096541 31.60956 
L 34.45983 32.0622 
L 34.823119 31.73748 
L 35.186408 30.56652 
L 35.549697 28.31808 
L 35.912986 27.48168 
L 36.276275 27.55548 
L 36.639564 26.71908 
L 37.002853 26.36484 
L 37.366142 27.42756 
L 38.09272 26.55672 
L 38.456009 27.27504 
L 38.819298 27.31932 
L 39.182587 27.63912 
L 39.545876 27.52596 
L 39.909165 26.3058 
L 40.272454 26.96016 
L 40.635743 27.09792 
L 40.999032 27.49644 
L 41.362321 27.2898 
L 41.72561 26.57148 
L 42.088899 27.27012 
L 42.815477 27.35376 
L 43.542055 29.62188 
L 43.905344 29.96136 
L 44.268633 29.14956 
L 44.631922 28.68216 
L 44.995211 29.184 
L 45.3585 28.7412 
L 45.721789 27.5358 
L 46.085078 27.91956 
L 46.448367 28.00812 
L 46.811656 26.64528 
L 47.174945 26.88636 
L 47.538234 26.1828 
L 47.901523 24.52476 
L 48.264812 27.0684 
L 48.628101 27.59484 
L 49.354679 27.49644 
L 49.717968 28.13112 
L 50.081257 29.8482 
L 50.444546 29.12004 
L 50.807835 30.03024 
L 51.171124 27.84576 
L 51.897702 29.54316 
L 52.260991 31.13232 
L 52.62428 30.31068 
L 52.987569 30.62064 
L 53.350858 29.97612 
L 53.714147 31.97364 
L 54.077436 31.82112 
L 54.440725 32.0868 
L 54.804014 31.63416 
L 55.167303 30.6354 
L 55.530592 30.37464 
L 55.893881 30.86172 
L 56.25717 30.89616 
L 56.620459 31.11756 
L 57.347037 30.22212 
L 57.710326 30.45828 
L 58.073615 29.2578 
L 58.436904 28.50504 
L 58.800193 28.18032 
L 59.163482 28.2738 
L 59.526771 28.569 
L 59.89006 28.55424 
L 60.253349 27.8802 
L 60.616638 28.03272 
L 60.979927 27.69324 
L 61.343216 28.42632 
L 61.706505 28.3968 
L 62.069794 28.60344 
L 62.433083 29.88756 
L 62.796372 30.22212 
L 63.159661 29.58252 
L 63.52295 31.73256 
L 63.886239 31.36356 
L 64.249528 31.39308 
L 64.976106 29.09544 
L 65.339395 29.2332 
L 65.702684 27.02412 
L 66.429262 25.16928 
L 66.792551 25.10532 
L 67.519129 23.92452 
L 67.882418 25.53336 
L 68.245707 24.62808 
L 68.608996 25.4448 
L 68.972285 29.64156 
L 69.335574 30.80268 
L 69.698863 28.65756 
L 70.062152 28.6428 
L 70.78873 30.87156 
L 71.152019 32.17044 
L 71.515308 32.97732 
L 71.878597 32.628 
L 72.241886 31.90476 
L 72.605175 30.92076 
L 72.968464 31.96872 
L 73.331753 32.39676 
L 73.695042 31.19628 
L 74.42162 30.42384 
L 74.784909 29.0118 
L 75.148198 29.15448 
L 75.511487 29.76456 
L 75.874776 31.2012 
L 76.238065 32.09172 
L 76.601354 31.43244 
L 77.327932 30.90108 
L 78.05451 35.35368 
L 78.417799 34.24668 
L 78.781088 35.5062 
L 79.144377 34.48284 
L 79.507666 35.02896 
L 79.870955 33.8334 
L 80.234244 33.243 
L 80.597533 34.69932 
L 81.324111 36.2934 
L 81.6874 38.901 
L 82.050689 38.37948 
L 82.413978 38.92068 
L 82.777267 40.09164 
L 83.140556 39.70788 
L 83.503844 40.4262 
L 83.867133 42.75336 
L 84.230422 43.54548 
L 84.593711 43.72752 
L 85.320289 41.976 
L 85.683578 42.42864 
L 86.046867 40.86408 
L 86.410156 40.47048 
L 87.500023 40.89852 
L 87.863312 42.9354 
L 88.226601 40.43604 
L 88.58989 39.31428 
L 88.953179 40.04244 
L 89.316468 41.43972 
L 89.679757 41.47416 
L 90.043046 41.02152 
L 90.406335 40.7952 
L 90.769624 39.75708 
L 91.132913 40.11132 
L 91.496202 39.87024 
L 91.859491 40.94772 
L 92.22278 40.97232 
L 92.949358 42.87144 
L 93.312647 42.17772 
L 93.675936 43.04364 
L 94.039225 43.34868 
L 94.402514 42.03504 
L 95.129092 41.8038 
L 95.492381 41.84316 
L 95.85567 42.37944 
L 96.218959 42.26628 
L 96.582248 42.468 
L 96.945537 42.42864 
L 97.308826 42.18264 
L 97.672115 42.1728 
L 98.035404 42.50244 
L 98.398693 41.88252 
L 98.761982 42.32532 
L 99.48856 41.13468 
L 100.215138 40.42128 
L 100.578427 39.16176 
L 100.941716 39.28968 
L 101.305005 40.48032 
L 102.394872 40.88376 
L 103.12145 40.53936 
L 103.484739 38.50248 
L 103.848028 37.63656 
L 104.211317 38.34012 
L 104.574606 38.37456 
L 104.937895 38.5812 
L 105.664473 39.8358 
L 106.027762 41.93172 
L 106.391051 41.42004 
L 107.117629 41.39052 
L 107.480918 41.5086 
L 107.844207 42.80256 
L 108.207496 41.93664 
L 108.570785 41.49384 
L 108.934074 41.51352 
L 109.297363 43.78164 
L 109.660652 43.9932 
L 110.023941 46.66968 
L 110.38723 47.55036 
L 110.750519 46.64508 
L 111.345918 48.89352 
L 111.709022 49.84308 
L 112.070755 49.00176 
L 112.442348 49.233 
L 112.802639 48.97716 
L 113.530538 49.36092 
L 114.255699 49.58724 
L 114.614619 49.28712 
L 114.958738 49.16904 
L 115.34533 49.39044 
L 115.662985 49.29696 
L 116.434179 49.55772 
L 117.523853 49.41996 
L 117.888235 49.8234 
L 118.220834 49.86768 
L 118.613506 49.72992 
L 118.975176 49.39536 
L 119.696784 49.6758 
L 120.068327 49.47408 
L 120.427865 49.60692 
L 120.791999 49.37568 
L 121.153253 49.36584 
L 121.517324 48.6672 
L 122.607759 49.54788 
L 122.972137 49.5282 
L 123.333092 49.09032 
L 124.060957 49.2084 
L 124.423544 48.93288 
L 125.156588 48.89844 
L 125.877835 48.1998 
L 126.243895 48.28344 
L 126.607285 48.88368 
L 126.967037 49.04604 
L 127.328199 49.00176 
L 128.061063 49.38552 
L 128.420988 49.04112 
L 128.811335 48.92796 
L 129.151985 48.987 
L 129.875548 49.66104 
L 131.335516 49.40028 
L 131.69402 49.56756 
L 132.417903 49.56264 
L 132.786662 49.53312 
L 133.150889 49.25268 
L 133.511819 49.29696 
L 133.875697 48.89352 
L 134.23772 48.96732 
L 134.962086 48.5934 
L 135.331893 48.84432 
L 135.697044 48.95748 
L 136.058021 48.30804 
L 136.421032 48.34248 
L 136.785894 48.21456 
L 137.148443 48.26376 
L 137.507725 47.41752 
L 137.875811 48.05712 
L 138.24 48.26376 
L 138.24 48.26376 
" clip-path="url(#p8ed66cc17b)" style="fill: none; stroke: #f5841e; stroke-width: 0.7; stroke-linecap: round"/>
   </g>
  </g>
 </g>
 <defs>
  <clipPath id="p8ed66cc17b">
   <rect x="5.76" y="3.6" width="132.48" height="49.2"/>
  </clipPath>
 </defs>
</svg>
