<?xml version="1.0" encoding="utf-8" standalone="no"?>
<!DOCTYPE svg PUBLIC "-//W3C//DTD SVG 1.1//EN"
  "http://www.w3.org/Graphics/SVG/1.1/DTD/svg11.dtd">
<svg xmlns:xlink="http://www.w3.org/1999/xlink" width="144pt" height="60pt" viewBox="0 0 144 60" xmlns="http://www.w3.org/2000/svg" version="1.1">
  <desc id="nav-meta">{"window":"3m","count":4,"labels":["05.12","04.01","03.02","05.03"],"tick_utc":["2025-12-05T12:00:00Z","2026-01-04T12:00:00Z","2026-02-03T12:00:00Z","2026-03-05T03:17:19Z"]}</desc>

 <metadata>
  <rdf:RDF xmlns:dc="http://purl.org/dc/elements/1.1/" xmlns:cc="http://creativecommons.org/ns#" xmlns:rdf="http://www.w3.org/1999/02/22-rdf-syntax-ns#">
   <cc:Work>
    <dc:type rdf:resource="http://purl.org/dc/dcmitype/StillImage"/>
    <dc:date>2026-03-05T03:17:20.601276</dc:date>
    <dc:format>image/svg+xml</dc:format>
    <dc:creator>
     <cc:Agent>
      <dc:title>Matplotlib v3.10.8, https://matplotlib.org/</dc:title>
     </cc:Agent>
    </dc:creator>
   </cc:Work>
  </rdf:RDF>
 </metadata>
 <defs>
  <style type="text/css">*{stroke-linejoin: round; stroke-linecap: butt}</style>
 </defs>
 <g id="figure_1">
  <g id="patch_1">
   <path d="M 0 60 
L 144 60 
L 144 0 
L 0 0 
L 0 60 
z
" style="fill: none; opacity: 0"/>
  </g>
  <g id="axes_1">
   <g id="patch_2">
    <path d="M 5.76 52.8 
L 138.24 52.8 
L 138.24 3.6 
L 5.76 3.6 
L 5.76 52.8 
z
" style="fill: none"/>
   </g>
   <g id="matplotlib.axis_1"/>
   <g id="matplotlib.axis_2"/>
   <g id="line2d_1">
    <path d="M 5.76 42.96 
L 138.24 42.96 
" clip-path="url(#p0a1b6a7314)" style="fill: none; stroke: #b2b2b2; stroke-opacity: 0.35; stroke-width: 0.5; stroke-linecap: square"/>
   </g>
   <g id="line2d_2">
    <path d="M 5.76 33.12 
L 138.24 33.12 
" clip-path="url(#p0a1b6a7314)" style="fill: none; stroke: #b2b2b2; stroke-opacity: 0.35; stroke-width: 0.5; stroke-linecap: square"/>
   </g>
   <g id="line2d_3">
    <path d="M 5.76 23.28 
L 138.24 23.28 
" clip-path="url(#p0a1b6a7314)" style="fill: none; stroke: #b2b2b2; stroke-opacity: 0.35; stroke-width: 0.5; stroke-linecap: square"/>
   </g>
   <g id="line2d_4">
    <path d="M 5.76 13.44 
L 138.24 13.44 
" clip-path="url(#p0a1b6a7314)" style="fill: none; stroke: #b2b2b2; stroke-opacity: 0.35; stroke-width: 0.5; stroke-linecap: square"/>
   </g>
   <g id="line2d_5">
    <path d="M 5.76 43.51596 
L 7.237961 44.27364 
L 8.715921 44.40156 
L 10.193882 44.47536 
L 11.671843 44.25888 
L 13.149803 43.64388 
L 14.627764 43.84068 
L 16.105725 43.85052 
L 17.583686 44.36712 
L 19.061646 44.26872 
L 20.539607 44.74104 
L 22.017568 44.98704 
L 23.495528 44.84436 
L 24.973489 45.58728 
L 26.45145 46.0596 
L 27.92941 45.18384 
L 29.407371 45.23796 
L 30.885332 45.20844 
L 32.363292 45.24288 
L 33.841253 45.47904 
L 35.319214 45.65616 
L 36.797174 45.98088 
L 38.275135 45.70536 
L 39.753096 45.38556 
L 41.231057 45.31668 
L 42.709017 45.58728 
L 44.186978 45.35604 
L 45.664939 45.40032 
L 47.142899 45.11496 
L 48.62086 44.42124 
L 50.098821 44.25888 
L 51.576781 44.18508 
L 53.054742 43.62912 
L 54.532703 43.24044 
L 56.010663 43.8702 
L 57.488624 43.60944 
L 58.966585 43.92924 
L 60.444546 43.93416 
L 61.922506 43.46184 
L 63.400467 43.5012 
L 64.878428 42.72384 
L 66.356388 42.51228 
L 67.834349 43.08792 
L 69.31231 42.75828 
L 70.79027 42.90096 
L 72.268231 43.57008 
L 73.746192 44.2392 
L 75.224152 45.23304 
L 76.702113 44.77548 
L 78.180074 44.91816 
L 79.658034 45.04608 
L 81.135995 45.07068 
L 82.613956 46.1334 
L 84.091917 45.4446 
L 85.569877 45.06084 
L 87.047838 45.33144 
L 88.525799 46.30068 
L 90.003759 46.34496 
L 91.48172 47.89476 
L 92.959681 48.26376 
L 94.437641 47.96364 
L 95.685372 48.55896 
L 96.859889 49.06572 
L 98.337097 50.04972 
L 99.808728 49.24776 
L 101.320474 49.32156 
L 102.786238 49.31172 
L 104.272632 49.43964 
L 105.74753 49.59708 
L 107.220171 49.80372 
L 108.697687 49.86768 
L 110.157874 49.479 
L 111.557849 49.24776 
L 113.130611 49.48392 
L 114.42292 49.37568 
L 116.084189 49.479 
L 117.560353 49.7004 
L 119.029676 49.62168 
L 120.498604 49.5282 
L 121.993449 49.49376 
L 123.475857 49.98576 
L 124.828961 49.96608 
L 126.426458 49.7004 
L 127.897833 49.27236 
L 129.372989 49.37076 
L 130.833535 49.68072 
L 132.345075 49.25268 
L 133.807777 49.51344 
L 135.289176 49.4052 
L 136.758858 49.34124 
L 138.24 49.09032 
" clip-path="url(#p0a1b6a7314)" style="fill: none; stroke: #bebebe; stroke-width: 0.6; stroke-linecap: round"/>
   </g>
   <g id="line2d_6">
    <path d="M 5.76 36.15564 
L 7.237961 36.93792 
L 8.715921 36.81984 
L 10.193882 36.72636 
L 11.671843 36.21468 
L 13.149803 34.8174 
L 14.627764 34.7928 
L 16.105725 35.42748 
L 17.583686 36.49512 
L 19.061646 36.28356 
L 20.539607 36.6378 
L 22.017568 37.3512 
L 23.495528 37.3512 
L 24.973489 38.31552 
L 26.45145 38.32536 
L 27.92941 37.26264 
L 29.407371 37.26264 
L 30.885332 37.09044 
L 32.363292 37.06092 
L 33.841253 37.34628 
L 35.319214 37.48404 
L 36.797174 37.77924 
L 38.275135 37.61688 
L 39.753096 37.45944 
L 41.231057 37.46928 
L 42.709017 37.56276 
L 44.186978 37.31184 
L 45.664939 37.33644 
L 47.142899 37.09536 
L 48.62086 36.23928 
L 50.098821 36.20976 
L 51.576781 36.11628 
L 53.054742 35.48652 
L 54.532703 35.0142 
L 56.010663 35.93424 
L 57.488624 36.36228 
L 58.966585 36.50988 
L 60.444546 36.5148 
L 61.922506 36.25404 
L 63.400467 36.46068 
L 64.878428 34.83708 
L 66.356388 34.57632 
L 67.834349 34.84692 
L 69.31231 35.00436 
L 70.79027 34.93056 
L 72.268231 35.088 
L 73.746192 35.78664 
L 75.224152 37.55292 
L 76.702113 37.26756 
L 78.180074 37.46436 
L 79.658034 37.44468 
L 81.135995 37.45944 
L 82.613956 38.41392 
L 84.091917 37.61196 
L 85.569877 36.95268 
L 87.047838 37.05108 
L 88.525799 38.37948 
L 90.003759 39.20604 
L 91.48172 41.03136 
L 92.959681 42.26628 
L 94.437641 41.73492 
L 95.685372 42.23676 
L 96.859889 43.38804 
L 98.337097 44.89356 
L 99.808728 43.6242 
L 101.320474 43.575 
L 102.786238 43.53072 
L 104.272632 43.72752 
L 105.74753 44.0916 
L 107.220171 44.436 
L 108.697687 44.49012 
L 110.157874 43.81608 
L 111.557849 43.7226 
L 113.130611 44.5344 
L 114.42292 44.19 
L 116.084189 44.21952 
L 117.560353 44.3868 
L 119.029676 44.51472 
L 120.498604 44.4606 
L 121.993449 44.3868 
L 123.475857 45.174 
L 124.828961 45.23796 
L 126.426458 44.81484 
L 127.897833 43.821 
L 129.372989 44.01288 
L 130.833535 44.66232 
L 132.345075 43.93908 
L 133.807777 44.39664 
L 135.289176 44.12112 
L 136.758858 44.33268 
L 138.24 43.3044 
" clip-path="url(#p0a1b6a7314)" style="fill: none; stroke: #4a8dff; stroke-width: 0.6; stroke-linecap: round"/>
   </g>
   <g id="line2d_7">
    <path d="M 5.76 40.04244 
L 7.237961 41.43972 
L 8.715921 41.47416 
L 10.193882 41.02152 
L 11.671843 40.7952 
L 13.149803 39.75708 
L 14.627764 40.11132 
L 16.105725 39.87024 
L 17.583686 40.94772 
L 19.061646 40.97232 
L 20.539607 41.976 
L 22.017568 42.87144 
L 23.495528 42.17772 
L 24.973489 43.04364 
L 26.45145 43.34868 
L 27.92941 42.03504 
L 29.407371 41.91696 
L 30.885332 41.8038 
L 32.363292 41.84316 
L 33.841253 42.37944 
L 35.319214 42.26628 
L 36.797174 42.468 
L 38.275135 42.42864 
L 39.753096 42.18264 
L 41.231057 42.1728 
L 42.709017 42.50244 
L 44.186978 41.88252 
L 45.664939 42.32532 
L 47.142899 41.73 
L 48.62086 41.13468 
L 50.098821 40.80504 
L 51.576781 40.42128 
L 53.054742 39.16176 
L 54.532703 39.28968 
L 56.010663 40.48032 
L 57.488624 40.61316 
L 58.966585 40.84932 
L 60.444546 40.88376 
L 61.922506 40.6968 
L 63.400467 40.53936 
L 64.878428 38.50248 
L 66.356388 37.63656 
L 67.834349 38.34012 
L 69.31231 38.37456 
L 70.79027 38.5812 
L 72.268231 39.2454 
L 73.746192 39.8358 
L 75.224152 41.93172 
L 76.702113 41.42004 
L 78.180074 41.37576 
L 79.658034 41.39052 
L 81.135995 41.5086 
L 82.613956 42.80256 
L 84.091917 41.93664 
L 85.569877 41.49384 
L 87.047838 41.51352 
L 88.525799 43.78164 
L 90.003759 43.9932 
L 91.48172 46.66968 
L 92.959681 47.55036 
L 94.437641 46.64508 
L 95.685372 47.89476 
L 96.859889 48.89352 
L 98.337097 49.84308 
L 99.808728 49.00176 
L 101.320474 49.233 
L 102.786238 48.97716 
L 104.272632 49.22316 
L 105.74753 49.36092 
L 107.220171 49.49868 
L 108.697687 49.58724 
L 110.157874 49.28712 
L 111.557849 49.16904 
L 113.130611 49.39044 
L 114.42292 49.29696 
L 116.084189 49.479 
L 117.560353 49.55772 
L 119.029676 49.51344 
L 120.498604 49.44948 
L 121.993449 49.41996 
L 123.475857 49.8234 
L 124.828961 49.86768 
L 126.426458 49.72992 
L 127.897833 49.39536 
L 129.372989 49.52328 
L 130.833535 49.6758 
L 132.345075 49.47408 
L 133.807777 49.60692 
L 135.289176 49.37568 
L 136.758858 49.36584 
L 138.24 48.6672 
" clip-path="url(#p0a1b6a7314)" style="fill: none; stroke: #f5841e; stroke-width: 0.7; stroke-linecap: round"/>
   </g>
  </g>
 </g>
 <defs>
  <clipPath id="p0a1b6a7314">
   <rect x="5.76" y="3.6" width="132.48" height="49.2"/>
  </clipPath>
 </defs>
</svg>
