<?xml version="1.0" encoding="utf-8" standalone="no"?>
<!DOCTYPE svg PUBLIC "-//W3C//DTD SVG 1.1//EN"
  "http://www.w3.org/Graphics/SVG/1.1/DTD/svg11.dtd">
<svg xmlns:xlink="http://www.w3.org/1999/xlink" width="144pt" height="60pt" viewBox="0 0 144 60" xmlns="http://www.w3.org/2000/svg" version="1.1">
  <desc id="nav-meta">{"window":"1y","count":4,"labels":["20.06","19.10","18.02","19.06"],"tick_utc":["2025-06-20T12:00:00Z","2025-10-19T12:00:00Z","2026-02-18T03:30:34Z","2026-06-19T05:57:01Z"]}</desc>

 <metadata>
  <rdf:RDF xmlns:dc="http://purl.org/dc/elements/1.1/" xmlns:cc="http://creativecommons.org/ns#" xmlns:rdf="http://www.w3.org/1999/02/22-rdf-syntax-ns#">
   <cc:Work>
    <dc:type rdf:resource="http://purl.org/dc/dcmitype/StillImage"/>
    <dc:date>2026-06-19T15:53:00.025432</dc:date>
    <dc:format>image/svg+xml</dc:format>
    <dc:creator>
     <cc:Agent>
      <dc:title>Matplotlib v3.11.0, https://matplotlib.org/</dc:title>
     </cc:Agent>
    </dc:creator>
   </cc:Work>
  </rdf:RDF>
 </metadata>
 <defs>
  <style type="text/css">*{stroke-linejoin: round; stroke-linecap: butt}</style>
 </defs>
 <g id="figure_1">
  <g id="patch_1">
   <path d="M 0 60 
L 144 60 
L 144 0 
L 0 0 
L 0 60 
z
" style="fill: none; opacity: 0"/>
  </g>
  <g id="axes_1">
   <g id="patch_2">
    <path d="M 5.76 52.8 
L 138.24 52.8 
L 138.24 3.6 
L 5.76 3.6 
L 5.76 52.8 
z
" style="fill: none"/>
   </g>
   <g id="matplotlib.axis_1"/>
   <g id="matplotlib.axis_2"/>
   <g id="line2d_1">
    <path d="M 5.76 42.96 
L 138.24 42.96 
" clip-path="url(#pf35023c600)" style="fill: none; stroke: #b2b2b2; stroke-opacity: 0.35; stroke-width: 0.5; stroke-linecap: square"/>
   </g>
   <g id="line2d_2">
    <path d="M 5.76 33.12 
L 138.24 33.12 
" clip-path="url(#pf35023c600)" style="fill: none; stroke: #b2b2b2; stroke-opacity: 0.35; stroke-width: 0.5; stroke-linecap: square"/>
   </g>
   <g id="line2d_3">
    <path d="M 5.76 23.28 
L 138.24 23.28 
" clip-path="url(#pf35023c600)" style="fill: none; stroke: #b2b2b2; stroke-opacity: 0.35; stroke-width: 0.5; stroke-linecap: square"/>
   </g>
   <g id="line2d_4">
    <path d="M 5.76 13.44 
L 138.24 13.44 
" clip-path="url(#pf35023c600)" style="fill: none; stroke: #b2b2b2; stroke-opacity: 0.35; stroke-width: 0.5; stroke-linecap: square"/>
   </g>
   <g id="line2d_5">
    <path d="M 5.76 42.46308 
L 6.488417 44.20476 
L 6.852625 44.45076 
L 7.216833 42.7632 
L 7.581041 42.63036 
L 7.94525 42.94524 
L 8.309458 43.52088 
L 8.673666 43.1076 
L 9.037874 41.98092 
L 9.766291 41.43972 
L 10.130499 42.4926 
L 10.494707 41.79888 
L 10.858916 41.78412 
L 11.223124 42.37452 
L 11.587332 42.3942 
L 11.95154 41.83332 
L 12.315749 42.24168 
L 12.679957 41.84316 
L 13.408373 40.2786 
L 13.772582 40.42128 
L 14.13679 40.71648 
L 14.865206 40.48032 
L 15.229415 40.26384 
L 15.593623 38.97972 
L 16.32204 38.51724 
L 16.686248 38.57628 
L 17.050456 38.04492 
L 17.414664 36.03264 
L 17.778873 34.88136 
L 18.143081 36.92316 
L 18.507289 37.8432 
L 18.871497 37.37088 
L 19.235706 37.53324 
L 19.599914 37.056 
L 19.964122 37.77924 
L 20.32833 38.02032 
L 20.692539 38.45328 
L 21.056747 39.1962 
L 21.420955 40.41636 
L 21.785163 40.97232 
L 22.149372 40.53444 
L 22.51358 39.55536 
L 22.877788 40.24908 
L 23.241996 39.7128 
L 23.606205 38.778 
L 23.970413 38.59104 
L 24.69883 37.794 
L 25.063038 38.82228 
L 25.427246 36.53448 
L 25.791454 35.334 
L 26.519871 37.44468 
L 26.884079 36.90348 
L 27.248287 36.65748 
L 27.976704 38.64516 
L 28.340912 37.2282 
L 28.70512 38.14332 
L 29.069329 35.53572 
L 29.433537 35.04372 
L 29.797745 34.80264 
L 30.161953 37.23804 
L 31.254578 33.67104 
L 31.618786 34.90596 
L 32.711411 35.9736 
L 33.075619 34.36476 
L 33.439828 34.1778 
L 33.804036 35.22084 
L 34.168244 35.11752 
L 34.532453 35.54556 
L 35.989286 32.44104 
L 36.353494 31.83096 
L 36.717702 30.06468 
L 37.08191 30.01056 
L 37.446119 30.291 
L 37.810327 31.16184 
L 38.174535 30.74856 
L 38.538743 29.71536 
L 38.902952 29.37588 
L 39.26716 30.57636 
L 39.631368 30.42876 
L 39.995576 30.79284 
L 40.359785 32.91828 
L 40.723993 33.72024 
L 41.088201 34.05972 
L 41.452409 36.5886 
L 41.816618 34.90104 
L 42.180826 35.10276 
L 42.545034 34.16796 
L 42.909243 33.8826 
L 43.273451 34.43364 
L 44.001867 31.05852 
L 44.366076 31.26024 
L 44.730284 31.92936 
L 45.094492 31.85064 
L 45.4587 31.3242 
L 45.822909 32.84448 
L 46.187117 31.78176 
L 46.551325 32.85924 
L 46.915533 36.8838 
L 47.279742 38.39424 
L 47.64395 35.95392 
L 48.008158 34.53696 
L 48.372366 35.20608 
L 49.100783 37.57752 
L 49.464991 37.90716 
L 49.829199 37.18884 
L 50.193408 37.18392 
L 50.557616 36.89364 
L 50.921824 37.42008 
L 51.286032 38.17284 
L 51.650241 36.687 
L 52.014449 36.42132 
L 52.378657 36.34752 
L 52.742866 35.56032 
L 53.107074 35.72268 
L 53.471282 36.29832 
L 53.83549 36.32292 
L 54.199699 37.61688 
L 54.563907 37.2282 
L 54.928115 37.34628 
L 55.292323 37.23804 
L 55.656532 40.008 
L 56.02074 41.36592 
L 56.384948 40.43604 
L 56.749156 41.44956 
L 57.113365 40.53444 
L 57.477573 41.02152 
L 57.841781 40.22448 
L 58.205989 39.79644 
L 58.570198 41.51844 
L 58.934406 41.66604 
L 59.662822 43.51596 
L 60.027031 43.43724 
L 60.391239 43.71276 
L 60.755447 44.59836 
L 61.119656 43.30932 
L 62.21228 44.88372 
L 62.576489 44.99688 
L 62.940697 44.57868 
L 63.304905 43.5996 
L 63.669113 43.51596 
L 64.033322 43.00428 
L 64.39753 43.2798 
L 64.761738 43.71768 
L 65.490155 44.0916 
L 65.854363 45.11004 
L 66.218571 43.55532 
L 66.582779 42.72876 
L 67.311196 44.27364 
L 68.039612 44.47536 
L 68.403821 44.25888 
L 68.768029 43.64388 
L 69.132237 43.84068 
L 69.496445 43.85052 
L 69.860654 44.36712 
L 70.224862 44.26872 
L 70.58907 44.74104 
L 70.953279 44.98704 
L 71.317487 44.84436 
L 71.681695 45.58728 
L 72.045903 46.0596 
L 72.410112 45.18384 
L 73.866945 45.47904 
L 74.231153 45.65616 
L 74.595361 45.98088 
L 75.323778 45.38556 
L 75.687986 45.31668 
L 76.052194 45.58728 
L 76.416402 45.35604 
L 76.780611 45.40032 
L 77.144819 45.11496 
L 77.509027 44.42124 
L 78.237444 44.18508 
L 78.96586 43.24044 
L 79.330069 43.8702 
L 79.694277 43.60944 
L 80.058485 43.92924 
L 80.422693 43.93416 
L 80.786902 43.46184 
L 81.15111 43.5012 
L 81.515318 42.72384 
L 81.879526 42.51228 
L 82.243735 43.08792 
L 82.607943 42.75828 
L 82.972151 42.90096 
L 83.700568 44.2392 
L 84.064776 45.23304 
L 84.428984 44.77548 
L 85.157401 45.04608 
L 85.521609 45.07068 
L 85.885817 46.1334 
L 86.250025 45.4446 
L 86.614234 45.06084 
L 86.978442 45.33144 
L 87.34265 46.30068 
L 87.706858 46.34496 
L 88.071067 47.89476 
L 88.435275 48.26376 
L 88.799483 47.96364 
L 89.760411 50.04972 
L 90.12306 49.24776 
L 91.586536 49.59708 
L 91.949434 49.80372 
L 92.313532 49.86768 
L 93.018351 49.24776 
L 93.405921 49.48392 
L 93.72438 49.37568 
L 94.13376 49.479 
L 94.497526 49.7004 
L 95.589957 49.49376 
L 95.955261 49.98576 
L 96.288701 49.96608 
L 96.682366 49.7004 
L 97.044952 49.27236 
L 97.408469 49.37076 
L 97.768386 49.68072 
L 98.140869 49.25268 
L 98.501317 49.51344 
L 99.593533 49.09032 
L 101.052027 49.58724 
L 101.413895 49.36092 
L 102.143602 49.45932 
L 102.507106 49.16904 
L 103.242006 49.27236 
L 103.607243 48.87384 
L 104.332063 48.70164 
L 104.696373 49.03128 
L 105.057036 49.1592 
L 105.419111 49.08048 
L 106.15383 49.36584 
L 106.906 48.90828 
L 107.247513 49.05096 
L 107.972907 49.64628 
L 109.436569 49.59708 
L 109.79598 49.8726 
L 110.521694 49.80864 
L 111.618379 49.83816 
L 111.983177 49.50852 
L 112.346116 49.68564 
L 113.072316 49.48884 
L 113.809133 49.69056 
L 114.171023 49.40028 
L 114.534953 49.58724 
L 115.624395 49.19856 
L 115.993413 49.43472 
L 116.358524 49.50852 
L 118.174932 49.37568 
L 118.544806 49.4052 
L 118.912939 49.29204 
L 119.27791 49.5528 
L 119.641123 49.50852 
L 120.005943 49.64136 
L 120.729044 49.56264 
L 121.100646 49.57248 
L 121.464728 49.42488 
L 121.820914 49.49376 
L 122.555843 49.25268 
L 122.91399 49.24284 
L 123.27953 48.80004 
L 123.651078 48.85416 
L 124.37731 48.63276 
L 124.743251 48.66228 
L 125.107055 49.09524 
L 125.473059 48.99192 
L 126.202264 49.34616 
L 126.570009 49.47408 
L 127.297118 49.54788 
L 127.663401 49.3314 
L 128.024818 49.34616 
L 128.384023 49.51836 
L 129.122999 49.41504 
L 130.212681 49.7742 
L 131.307759 49.61676 
L 132.03798 49.7988 
L 132.769246 50.45808 
L 133.127456 50.59092 
L 133.486066 50.99928 
L 134.223921 50.74344 
L 134.581178 50.62536 
L 134.949163 50.80248 
L 136.409542 50.56632 
L 137.152143 50.23176 
L 137.50475 50.2416 
L 138.24 50.55156 
L 138.24 50.55156 
" clip-path="url(#pf35023c600)" style="fill: none; stroke: #bebebe; stroke-width: 0.6; stroke-linecap: round"/>
   </g>
   <g id="line2d_6">
    <path d="M 5.76 40.48032 
L 6.488417 42.26136 
L 6.852625 42.5664 
L 7.216833 41.17404 
L 7.581041 41.0166 
L 7.94525 41.22324 
L 8.673666 41.17896 
L 9.037874 41.08056 
L 9.402083 40.61808 
L 9.766291 40.7214 
L 10.130499 41.30688 
L 10.494707 40.11132 
L 10.858916 39.99816 
L 11.223124 40.56888 
L 11.587332 40.51476 
L 11.95154 40.131 
L 12.315749 40.3278 
L 12.679957 39.81612 
L 13.408373 37.46436 
L 13.772582 37.39056 
L 14.13679 37.50372 
L 14.865206 37.01172 
L 15.229415 36.16056 
L 15.593623 34.4976 
L 15.957831 33.69072 
L 16.686248 32.89368 
L 17.050456 31.73256 
L 17.414664 31.68336 
L 17.778873 31.8162 
L 18.143081 32.64276 
L 18.507289 32.0868 
L 19.235706 31.85064 
L 19.599914 30.98964 
L 19.964122 31.53576 
L 20.32833 31.521 
L 20.692539 31.38816 
L 21.056747 32.17044 
L 21.420955 33.68088 
L 21.785163 34.28604 
L 22.149372 33.58248 
L 22.51358 32.0376 
L 22.877788 32.76576 
L 23.241996 32.259 
L 23.606205 30.65508 
L 23.970413 29.93676 
L 24.334621 28.14588 
L 25.063038 28.40664 
L 25.427246 25.73508 
L 25.791454 24.62316 
L 26.155663 26.10408 
L 26.519871 26.97984 
L 26.884079 27.00936 
L 27.248287 26.58132 
L 27.612496 27.7818 
L 27.976704 29.49888 
L 28.340912 27.68832 
L 28.70512 28.44108 
L 29.069329 24.16068 
L 29.433537 24.55428 
L 29.797745 24.51984 
L 30.161953 27.32916 
L 30.526162 25.7646 
L 30.89037 26.48784 
L 31.254578 26.43372 
L 31.618786 27.44724 
L 32.347203 27.27504 
L 32.711411 27.8802 
L 33.075619 27.72276 
L 33.439828 26.84208 
L 33.804036 27.91956 
L 34.168244 27.8556 
L 34.532453 28.09668 
L 34.896661 27.87528 
L 35.625077 27.83592 
L 35.989286 27.57024 
L 36.353494 26.77812 
L 36.717702 25.01184 
L 37.446119 25.71048 
L 37.810327 26.31564 
L 38.174535 26.45832 
L 38.538743 25.8384 
L 38.902952 25.84824 
L 39.26716 26.6994 
L 39.631368 26.62068 
L 39.995576 26.8224 
L 40.359785 28.61328 
L 41.088201 28.97244 
L 41.452409 30.99456 
L 41.816618 29.76456 
L 42.180826 29.8974 
L 42.545034 29.02164 
L 42.909243 28.50012 
L 43.273451 29.00688 
L 44.001867 26.601 
L 44.366076 26.3796 
L 44.730284 26.5764 
L 45.094492 26.3796 
L 45.4587 25.1496 
L 45.822909 26.81256 
L 46.187117 26.29596 
L 46.551325 27.41772 
L 46.915533 31.19136 
L 47.279742 31.80144 
L 47.64395 28.89864 
L 48.008158 28.28364 
L 49.100783 30.80268 
L 49.464991 31.22088 
L 49.829199 30.8076 
L 50.193408 30.13356 
L 50.557616 30.17784 
L 51.286032 31.42752 
L 51.650241 31.04376 
L 52.014449 30.49764 
L 52.378657 30.3648 
L 52.742866 28.88388 
L 53.107074 29.15448 
L 53.471282 30.15324 
L 54.199699 31.4226 
L 54.928115 30.9306 
L 55.292323 30.66 
L 56.02074 34.99944 
L 56.384948 34.07448 
L 56.749156 34.9158 
L 57.113365 34.02528 
L 57.477573 34.26144 
L 57.841781 33.0216 
L 58.205989 33.10524 
L 58.570198 34.1532 
L 58.934406 34.2024 
L 59.662822 36.34752 
L 60.027031 35.89488 
L 60.755447 36.94776 
L 61.119656 36.2688 
L 61.483864 36.97236 
L 61.848072 38.286 
L 62.21228 38.76324 
L 62.576489 38.73864 
L 62.940697 38.51724 
L 63.304905 37.42992 
L 63.669113 37.42008 
L 64.033322 36.90348 
L 64.39753 36.98712 
L 64.761738 36.86412 
L 65.125946 37.16424 
L 65.490155 37.14948 
L 65.854363 38.52216 
L 66.582779 35.71776 
L 66.946988 36.15564 
L 67.311196 36.93792 
L 68.039612 36.72636 
L 68.403821 36.21468 
L 68.768029 34.8174 
L 69.132237 34.7928 
L 69.496445 35.42748 
L 69.860654 36.49512 
L 70.224862 36.28356 
L 70.58907 36.6378 
L 70.953279 37.3512 
L 71.317487 37.3512 
L 71.681695 38.31552 
L 72.045903 38.32536 
L 72.410112 37.26264 
L 72.77432 37.26264 
L 73.138528 37.09044 
L 73.502736 37.06092 
L 73.866945 37.34628 
L 74.231153 37.48404 
L 74.595361 37.77924 
L 75.323778 37.45944 
L 76.052194 37.56276 
L 76.416402 37.31184 
L 76.780611 37.33644 
L 77.144819 37.09536 
L 77.509027 36.23928 
L 78.237444 36.11628 
L 78.96586 35.0142 
L 79.330069 35.93424 
L 79.694277 36.36228 
L 80.058485 36.50988 
L 80.422693 36.5148 
L 80.786902 36.25404 
L 81.15111 36.46068 
L 81.515318 34.83708 
L 81.879526 34.57632 
L 82.607943 35.00436 
L 82.972151 34.93056 
L 83.336359 35.088 
L 83.700568 35.78664 
L 84.064776 37.55292 
L 84.428984 37.26756 
L 84.793192 37.46436 
L 85.521609 37.45944 
L 85.885817 38.41392 
L 86.614234 36.95268 
L 86.978442 37.05108 
L 87.34265 38.37948 
L 87.706858 39.20604 
L 88.071067 41.03136 
L 88.435275 42.26628 
L 88.799483 41.73492 
L 89.106957 42.23676 
L 89.760411 44.89356 
L 90.12306 43.6242 
L 90.856796 43.53072 
L 91.223083 43.72752 
L 91.949434 44.436 
L 92.313532 44.49012 
L 92.673361 43.81608 
L 93.018351 43.7226 
L 93.405921 44.5344 
L 93.72438 44.19 
L 94.13376 44.21952 
L 94.859605 44.51472 
L 95.589957 44.3868 
L 95.955261 45.174 
L 96.288701 45.23796 
L 96.682366 44.81484 
L 97.044952 43.821 
L 97.408469 44.01288 
L 97.768386 44.66232 
L 98.140869 43.93908 
L 98.501317 44.39664 
L 98.866372 44.12112 
L 99.22854 44.33268 
L 99.593533 43.3044 
L 99.957568 43.6242 
L 100.318982 44.29824 
L 100.686727 44.53932 
L 101.052027 44.30808 
L 101.413895 43.8702 
L 101.77796 44.00304 
L 102.143602 43.97844 
L 102.507106 43.41756 
L 103.242006 43.48644 
L 103.965077 41.73984 
L 104.332063 41.7546 
L 105.057036 43.14204 
L 105.419111 43.083 
L 105.788766 43.35852 
L 106.15383 43.78164 
L 106.514666 43.21584 
L 106.906 42.9354 
L 107.247513 43.10268 
L 107.972907 44.25396 
L 109.069237 43.74228 
L 109.436569 43.46676 
L 110.160605 43.79148 
L 110.891387 43.77672 
L 111.256535 43.2552 
L 111.618379 43.40772 
L 111.983177 42.49752 
L 112.346116 42.90588 
L 112.713676 42.8616 
L 113.072316 42.41388 
L 113.809133 42.79764 
L 114.171023 41.57256 
L 114.534953 41.86284 
L 114.900738 41.63652 
L 115.264204 41.85792 
L 115.624395 41.22324 
L 116.358524 42.1482 
L 116.721134 41.96616 
L 117.084213 41.59224 
L 117.81507 41.99076 
L 118.174932 41.91696 
L 118.544806 41.98584 
L 118.912939 41.41512 
L 119.27791 42.15312 
L 119.641123 41.96124 
L 120.005943 42.43848 
L 120.729044 42.02028 
L 121.100646 42.0252 
L 121.464728 41.40528 
L 122.191538 41.52336 
L 122.91399 42.1974 
L 123.27953 41.8776 
L 124.018161 41.8038 
L 124.37731 41.976 
L 124.743251 42.00552 
L 125.107055 42.3942 
L 125.473059 42.27612 
L 126.570009 43.31424 
L 126.931608 43.2306 
L 127.297118 43.39296 
L 127.663401 43.16172 
L 128.024818 43.24536 
L 128.384023 43.71768 
L 128.753998 43.33392 
L 129.849637 43.67832 
L 130.212681 44.32776 
L 130.577159 44.13588 
L 130.936115 44.16048 
L 131.307759 43.96368 
L 131.677355 44.2392 
L 132.03798 44.19984 
L 132.406286 45.16908 
L 133.127456 46.00548 
L 133.486066 47.57004 
L 134.223921 46.64016 
L 134.581178 46.34496 
L 134.949163 46.82712 
L 135.681146 46.51716 
L 136.04269 46.5516 
L 136.409542 46.46304 
L 137.50475 45.6414 
L 137.867213 46.09404 
L 138.24 46.3302 
L 138.24 46.3302 
" clip-path="url(#pf35023c600)" style="fill: none; stroke: #4a8dff; stroke-width: 0.6; stroke-linecap: round"/>
   </g>
   <g id="line2d_7">
    <path d="M 5.76 33.84324 
L 6.852625 35.73744 
L 7.216833 33.4398 
L 7.581041 33.20856 
L 7.94525 32.58372 
L 8.309458 32.71164 
L 9.037874 32.53944 
L 9.402083 32.013 
L 10.130499 33.3906 
L 10.494707 31.80144 
L 10.858916 31.41768 
L 11.223124 32.19012 
L 11.587332 32.10156 
L 11.95154 31.60956 
L 12.315749 32.0622 
L 12.679957 31.73748 
L 13.044165 30.56652 
L 13.408373 28.31808 
L 13.772582 27.48168 
L 14.13679 27.55548 
L 14.500998 26.71908 
L 14.865206 26.36484 
L 15.229415 27.42756 
L 15.957831 26.55672 
L 16.32204 27.27504 
L 16.686248 27.31932 
L 17.050456 27.63912 
L 17.414664 27.52596 
L 17.778873 26.3058 
L 18.143081 26.96016 
L 18.507289 27.09792 
L 18.871497 27.49644 
L 19.235706 27.2898 
L 19.599914 26.57148 
L 19.964122 27.27012 
L 20.692539 27.35376 
L 21.420955 29.62188 
L 21.785163 29.96136 
L 22.149372 29.14956 
L 22.51358 28.68216 
L 22.877788 29.184 
L 23.241996 28.7412 
L 23.606205 27.5358 
L 23.970413 27.91956 
L 24.334621 28.00812 
L 24.69883 26.64528 
L 25.063038 26.88636 
L 25.427246 26.1828 
L 25.791454 24.52476 
L 26.155663 27.0684 
L 26.519871 27.59484 
L 27.248287 27.49644 
L 27.612496 28.13112 
L 27.976704 29.8482 
L 28.340912 29.12004 
L 28.70512 30.03024 
L 29.069329 27.84576 
L 29.797745 29.54316 
L 30.161953 31.13232 
L 30.526162 30.31068 
L 30.89037 30.62064 
L 31.254578 29.97612 
L 31.618786 31.97364 
L 31.982995 31.82112 
L 32.347203 32.0868 
L 32.711411 31.63416 
L 33.075619 30.6354 
L 33.439828 30.37464 
L 33.804036 30.86172 
L 34.168244 30.89616 
L 34.532453 31.11756 
L 35.260869 30.22212 
L 35.625077 30.45828 
L 35.989286 29.2578 
L 36.353494 28.50504 
L 36.717702 28.18032 
L 37.08191 28.2738 
L 37.446119 28.569 
L 37.810327 28.55424 
L 38.174535 27.8802 
L 38.538743 28.03272 
L 38.902952 27.69324 
L 39.26716 28.42632 
L 39.631368 28.3968 
L 39.995576 28.60344 
L 40.359785 29.88756 
L 40.723993 30.22212 
L 41.088201 29.58252 
L 41.452409 31.73256 
L 41.816618 31.36356 
L 42.180826 31.39308 
L 42.909243 29.09544 
L 43.273451 29.2332 
L 43.637659 27.02412 
L 44.366076 25.16928 
L 44.730284 25.10532 
L 45.4587 23.92452 
L 45.822909 25.53336 
L 46.187117 24.62808 
L 46.551325 25.4448 
L 46.915533 29.64156 
L 47.279742 30.80268 
L 47.64395 28.65756 
L 48.008158 28.6428 
L 48.736575 30.87156 
L 49.100783 32.17044 
L 49.464991 32.97732 
L 49.829199 32.628 
L 50.193408 31.90476 
L 50.557616 30.92076 
L 50.921824 31.96872 
L 51.286032 32.39676 
L 51.650241 31.19628 
L 52.378657 30.42384 
L 52.742866 29.0118 
L 53.107074 29.15448 
L 53.471282 29.76456 
L 53.83549 31.2012 
L 54.199699 32.09172 
L 54.563907 31.43244 
L 55.292323 30.90108 
L 56.02074 35.35368 
L 56.384948 34.24668 
L 56.749156 35.5062 
L 57.113365 34.48284 
L 57.477573 35.02896 
L 57.841781 33.8334 
L 58.205989 33.243 
L 58.570198 34.69932 
L 59.298614 36.2934 
L 59.662822 38.901 
L 60.027031 38.37948 
L 60.391239 38.92068 
L 60.755447 40.09164 
L 61.119656 39.70788 
L 61.483864 40.4262 
L 61.848072 42.75336 
L 62.21228 43.54548 
L 62.576489 43.72752 
L 63.304905 41.976 
L 63.669113 42.42864 
L 64.033322 40.86408 
L 64.39753 40.47048 
L 65.490155 40.89852 
L 65.854363 42.9354 
L 66.218571 40.43604 
L 66.582779 39.31428 
L 66.946988 40.04244 
L 67.311196 41.43972 
L 67.675404 41.47416 
L 68.039612 41.02152 
L 68.403821 40.7952 
L 68.768029 39.75708 
L 69.132237 40.11132 
L 69.496445 39.87024 
L 69.860654 40.94772 
L 70.224862 40.97232 
L 70.953279 42.87144 
L 71.317487 42.17772 
L 71.681695 43.04364 
L 72.045903 43.34868 
L 72.410112 42.03504 
L 73.138528 41.8038 
L 73.502736 41.84316 
L 73.866945 42.37944 
L 74.231153 42.26628 
L 74.595361 42.468 
L 74.959569 42.42864 
L 75.323778 42.18264 
L 75.687986 42.1728 
L 76.052194 42.50244 
L 76.416402 41.88252 
L 76.780611 42.32532 
L 77.509027 41.13468 
L 78.237444 40.42128 
L 78.601652 39.16176 
L 78.96586 39.28968 
L 79.330069 40.48032 
L 80.422693 40.88376 
L 81.15111 40.53936 
L 81.515318 38.50248 
L 81.879526 37.63656 
L 82.243735 38.34012 
L 82.607943 38.37456 
L 82.972151 38.5812 
L 83.700568 39.8358 
L 84.064776 41.93172 
L 84.428984 41.42004 
L 85.157401 41.39052 
L 85.521609 41.5086 
L 85.885817 42.80256 
L 86.250025 41.93664 
L 86.614234 41.49384 
L 86.978442 41.51352 
L 87.34265 43.78164 
L 87.706858 43.9932 
L 88.071067 46.66968 
L 88.435275 47.55036 
L 88.799483 46.64508 
L 89.396389 48.89352 
L 89.760411 49.84308 
L 90.12306 49.00176 
L 90.495594 49.233 
L 90.856796 48.97716 
L 91.586536 49.36092 
L 92.313532 49.58724 
L 92.673361 49.28712 
L 93.018351 49.16904 
L 93.405921 49.39044 
L 93.72438 49.29696 
L 94.497526 49.55772 
L 95.589957 49.41996 
L 95.955261 49.8234 
L 96.288701 49.86768 
L 96.682366 49.72992 
L 97.044952 49.39536 
L 97.768386 49.6758 
L 98.140869 49.47408 
L 98.501317 49.60692 
L 98.866372 49.37568 
L 99.22854 49.36584 
L 99.593533 48.6672 
L 100.686727 49.54788 
L 101.052027 49.5282 
L 101.413895 49.09032 
L 102.143602 49.2084 
L 102.507106 48.93288 
L 103.242006 48.89844 
L 103.965077 48.1998 
L 104.332063 48.28344 
L 104.696373 48.88368 
L 105.057036 49.04604 
L 105.419111 49.00176 
L 106.15383 49.38552 
L 106.514666 49.04112 
L 106.906 48.92796 
L 107.247513 48.987 
L 107.972907 49.66104 
L 109.436569 49.40028 
L 109.79598 49.56756 
L 110.521694 49.56264 
L 110.891387 49.53312 
L 111.256535 49.25268 
L 111.618379 49.29696 
L 111.983177 48.89352 
L 112.346116 48.96732 
L 113.072316 48.5934 
L 113.443058 48.84432 
L 113.809133 48.95748 
L 114.171023 48.30804 
L 114.534953 48.34248 
L 114.900738 48.21456 
L 115.264204 48.26376 
L 115.624395 47.41752 
L 115.993413 48.05712 
L 116.358524 48.26376 
L 116.721134 48.01776 
L 117.084213 47.23548 
L 118.174932 47.1666 
L 118.544806 47.31912 
L 118.912939 46.49256 
L 119.27791 47.64876 
L 119.641123 47.5356 
L 120.005943 48.0276 
L 120.729044 46.81728 
L 121.100646 46.92552 
L 121.464728 45.85788 
L 122.191538 45.29208 
L 122.555843 45.58728 
L 122.91399 46.2564 
L 123.27953 45.7152 
L 124.743251 45.42492 
L 125.107055 46.38432 
L 125.473059 45.57744 
L 125.832618 46.51716 
L 126.570009 47.54544 
L 127.297118 47.66844 
L 127.663401 47.05344 
L 128.024818 47.22564 
L 128.384023 48.07188 
L 129.122999 47.37324 
L 129.849637 48.07188 
L 130.212681 48.59832 
L 130.577159 48.52452 
L 130.936115 48.5688 
L 131.307759 48.38676 
L 131.677355 48.55404 
L 132.769246 49.93656 
L 133.127456 49.98084 
L 133.486066 50.3646 
L 134.223921 50.07432 
L 134.581178 49.99068 
L 134.949163 50.217 
L 135.681146 49.98084 
L 136.409542 49.87752 
L 136.785856 49.69548 
L 137.50475 49.7004 
L 138.24 50.06448 
L 138.24 50.06448 
" clip-path="url(#pf35023c600)" style="fill: none; stroke: #f5841e; stroke-width: 0.7; stroke-linecap: round"/>
   </g>
  </g>
 </g>
 <defs>
  <clipPath id="pf35023c600">
   <rect x="5.76" y="3.6" width="132.48" height="49.2"/>
  </clipPath>
 </defs>
</svg>
