<?xml version="1.0" encoding="utf-8" standalone="no"?>
<!DOCTYPE svg PUBLIC "-//W3C//DTD SVG 1.1//EN"
  "http://www.w3.org/Graphics/SVG/1.1/DTD/svg11.dtd">
<svg xmlns:xlink="http://www.w3.org/1999/xlink" width="144pt" height="60pt" viewBox="0 0 144 60" xmlns="http://www.w3.org/2000/svg" version="1.1">
  <desc id="nav-meta">{"window":"2w","count":4,"labels":["19.01","23.01","29.01","02.02"],"idxs":[0,61,121,182]}</desc>

 <metadata>
  <rdf:RDF xmlns:dc="http://purl.org/dc/elements/1.1/" xmlns:cc="http://creativecommons.org/ns#" xmlns:rdf="http://www.w3.org/1999/02/22-rdf-syntax-ns#">
   <cc:Work>
    <dc:type rdf:resource="http://purl.org/dc/dcmitype/StillImage"/>
    <dc:date>2026-02-02T15:25:56.452090</dc:date>
    <dc:format>image/svg+xml</dc:format>
    <dc:creator>
     <cc:Agent>
      <dc:title>Matplotlib v3.10.8, https://matplotlib.org/</dc:title>
     </cc:Agent>
    </dc:creator>
   </cc:Work>
  </rdf:RDF>
 </metadata>
 <defs>
  <style type="text/css">*{stroke-linejoin: round; stroke-linecap: butt}</style>
 </defs>
 <g id="figure_1">
  <g id="patch_1">
   <path d="M 0 60 
L 144 60 
L 144 0 
L 0 0 
L 0 60 
z
" style="fill: none; opacity: 0"/>
  </g>
  <g id="axes_1">
   <g id="patch_2">
    <path d="M 5.76 52.8 
L 138.24 52.8 
L 138.24 3.6 
L 5.76 3.6 
L 5.76 52.8 
z
" style="fill: none"/>
   </g>
   <g id="matplotlib.axis_1"/>
   <g id="matplotlib.axis_2"/>
   <g id="line2d_1">
    <path d="M 5.76 42.96 
L 138.24 42.96 
" clip-path="url(#p56a2b3cd65)" style="fill: none; stroke: #b2b2b2; stroke-opacity: 0.35; stroke-width: 0.5; stroke-linecap: square"/>
   </g>
   <g id="line2d_2">
    <path d="M 5.76 33.12 
L 138.24 33.12 
" clip-path="url(#p56a2b3cd65)" style="fill: none; stroke: #b2b2b2; stroke-opacity: 0.35; stroke-width: 0.5; stroke-linecap: square"/>
   </g>
   <g id="line2d_3">
    <path d="M 5.76 23.28 
L 138.24 23.28 
" clip-path="url(#p56a2b3cd65)" style="fill: none; stroke: #b2b2b2; stroke-opacity: 0.35; stroke-width: 0.5; stroke-linecap: square"/>
   </g>
   <g id="line2d_4">
    <path d="M 5.76 13.44 
L 138.24 13.44 
" clip-path="url(#p56a2b3cd65)" style="fill: none; stroke: #b2b2b2; stroke-opacity: 0.35; stroke-width: 0.5; stroke-linecap: square"/>
   </g>
   <g id="line2d_5">
    <path d="M 6.121967 38.84688 
L 7.383653 38.744549 
L 8.104617 38.70912 
L 8.645339 38.785579 
L 9.366303 38.86656 
L 9.726784 38.86656 
L 10.627989 39.41268 
L 11.529193 39.491171 
L 12.250156 39.57996 
L 17.2969 39.504632 
L 17.837623 39.3438 
L 18.919068 39.233857 
L 19.640031 39.18144 
L 20.360995 39.267012 
L 21.081958 39.30936 
L 24.506535 39.375151 
L 25.227498 39.52092 
L 47.937846 39.595905 
L 48.478568 39.64392 
L 50.100736 39.736128 
L 50.821699 39.76692 
L 52.263626 39.679854 
L 52.98459 39.64884 
L 63.438559 39.754078 
L 64.700245 39.7866 
L 65.060727 40.188351 
L 65.60145 40.75584 
L 66.322413 40.679987 
L 67.043376 40.27368 
L 69.206267 40.193149 
L 70.287712 40.06212 
L 76.415901 40.00166 
L 77.136864 39.63408 
L 87.410593 39.730764 
L 88.131557 39.9096 
L 88.85252 39.983743 
L 89.573483 40.17528 
L 91.556133 40.149455 
L 92.277096 40.7706 
L 94.439987 40.87392 
L 95.521432 41.05104 
L 97.864563 40.941326 
L 98.225045 40.869 
L 99.847212 40.777196 
L 100.568176 40.6722 
L 101.108898 40.750462 
L 101.829862 41.04612 
L 102.370584 41.04612 
L 103.271788 41.84316 
L 103.812511 41.84316 
L 104.893956 42.77304 
L 106.876606 42.685348 
L 107.597569 42.27612 
L 119.132984 42.359114 
L 120.034188 42.60084 
L 127.604304 42.69432 
L 127.784545 43.017142 
L 128.505508 48.31296 
L 132.651048 48.2068 
L 134.453457 48.19488 
L 136.075624 48.099482 
L 136.796588 48.00792 
L 137.878033 48.00792 
L 137.878033 48.00792 
" clip-path="url(#p56a2b3cd65)" style="fill: none; stroke: #bebebe; stroke-width: 0.6; stroke-linecap: round"/>
   </g>
   <g id="line2d_6">
    <path d="M 6.121967 32.57388 
L 7.744135 32.637665 
L 8.465098 32.85432 
L 9.005821 32.85432 
L 9.907025 33.42504 
L 10.627989 33.533213 
L 11.348952 33.9072 
L 12.430397 34.009086 
L 13.151361 34.04988 
L 13.872324 34.147122 
L 14.593287 34.18764 
L 17.837623 34.113355 
L 18.558586 33.84816 
L 19.820272 33.957033 
L 23.785571 34.261265 
L 24.326294 34.45332 
L 45.594715 34.350343 
L 46.67616 34.315351 
L 47.577364 34.55664 
L 52.624108 34.474736 
L 53.885794 34.374815 
L 55.868443 34.32614 
L 63.979282 34.5714 
L 64.520004 35.172461 
L 64.880486 35.47176 
L 65.60145 35.406636 
L 66.322413 35.06832 
L 67.043376 35.005753 
L 67.76434 34.65996 
L 71.729639 34.556277 
L 72.270361 34.46808 
L 73.171566 34.550219 
L 73.892529 34.60092 
L 75.694938 34.550838 
L 76.415901 33.9072 
L 82.363849 34.013374 
L 85.427944 34.049853 
L 86.148907 33.981 
L 87.951316 33.98172 
L 88.85252 34.41888 
L 90.835169 34.421465 
L 91.556133 35.10768 
L 92.457337 35.184004 
L 93.178301 35.40288 
L 93.899264 35.468159 
L 94.620227 35.66364 
L 95.521432 35.755458 
L 96.242395 35.8506 
L 98.225045 35.921661 
L 98.765767 36.270772 
L 100.207694 36.1212 
L 101.289139 36.50496 
L 101.649621 36.50496 
L 102.550825 37.26264 
L 103.091548 37.26264 
L 103.63227 38.055871 
L 103.812511 38.340059 
L 104.172993 38.40408 
L 106.155642 38.293027 
L 106.876606 37.78908 
L 109.760459 37.862698 
L 110.661664 38.09412 
L 118.41202 38.182068 
L 119.313225 38.37456 
L 120.574911 38.418174 
L 121.295874 38.81736 
L 123.639005 38.735921 
L 124.359969 38.57136 
L 126.522859 38.673529 
L 126.883341 38.835223 
L 127.063581 39.091736 
L 127.784545 42.0744 
L 128.685749 42.148772 
L 129.406713 42.3204 
L 135.17442 42.251971 
L 135.715143 41.8038 
L 137.878033 41.8038 
L 137.878033 41.8038 
" clip-path="url(#p56a2b3cd65)" style="fill: none; stroke: #4a8dff; stroke-width: 0.7; stroke-linecap: round"/>
   </g>
   <g id="line2d_7">
    <path d="M 6.121967 37.548 
L 7.563894 37.45944 
L 8.465098 37.87764 
L 9.005821 37.87764 
L 9.907025 38.37948 
L 10.627989 38.43467 
L 11.529193 38.62548 
L 12.069915 38.688222 
L 12.790879 38.91576 
L 13.872324 38.999111 
L 14.773528 39.03384 
L 16.215455 39.12732 
L 17.477141 38.84196 
L 18.198105 38.758165 
L 18.919068 38.71896 
L 23.425089 38.78292 
L 24.867016 39.147 
L 29.373038 39.140633 
L 30.454483 39.01908 
L 31.175446 38.917476 
L 31.89641 38.8518 
L 33.158096 38.942056 
L 34.239541 39.02892 
L 38.38508 39.024128 
L 39.286285 39.0732 
L 45.053992 39.010276 
L 46.67616 38.827839 
L 47.577364 39.11256 
L 49.379773 39.22117 
L 50.280977 39.2454 
L 51.182181 38.995167 
L 52.443867 39.05844 
L 54.967239 38.88132 
L 57.130129 38.985986 
L 58.391815 39.039817 
L 61.095428 39.2208 
L 62.357114 39.51108 
L 63.078078 39.417984 
L 63.799041 39.37332 
L 63.979282 39.37332 
L 64.339764 39.781108 
L 64.880486 40.34748 
L 65.60145 40.274414 
L 66.322413 39.89484 
L 67.223617 39.789965 
L 67.944581 39.63408 
L 70.287712 39.693625 
L 70.828434 39.78168 
L 71.369157 39.720311 
L 72.09012 39.30444 
L 72.991325 39.404388 
L 73.712288 39.57504 
L 74.433252 39.644337 
L 75.154215 39.76692 
L 75.694938 39.689681 
L 76.415901 39.024 
L 81.102163 39.130261 
L 82.363849 39.160205 
L 85.427944 39.076801 
L 85.968666 38.9502 
L 86.68963 39.010411 
L 87.590834 39.15684 
L 87.951316 39.17333 
L 88.672279 39.639 
L 90.835169 39.636665 
L 91.556133 40.32288 
L 92.277096 40.331737 
L 92.99806 41.24784 
L 93.899264 41.351301 
L 94.620227 41.66112 
L 95.521432 41.762603 
L 96.242395 41.86776 
L 96.783118 41.80446 
L 97.504081 41.59716 
L 98.405285 41.49907 
L 99.486731 41.295216 
L 100.387935 41.375067 
L 101.108898 41.6808 
L 101.649621 41.6808 
L 102.550825 42.46308 
L 103.091548 42.46308 
L 103.63227 43.519581 
L 103.812511 43.898091 
L 104.172993 43.98336 
L 106.155642 43.882968 
L 106.876606 43.4274 
L 110.120941 43.511188 
L 110.841904 43.57008 
L 118.772502 43.666138 
L 119.493465 43.73736 
L 120.755151 43.829676 
L 121.476115 44.00304 
L 126.162377 43.99812 
L 126.342618 44.245587 
L 127.063581 47.763811 
L 128.685749 47.750364 
L 129.767194 47.82588 
L 131.569603 47.765393 
L 132.470807 47.61432 
L 134.994179 47.605597 
L 135.715143 47.08296 
L 137.878033 47.08296 
L 137.878033 47.08296 
" clip-path="url(#p56a2b3cd65)" style="fill: none; stroke: #f5841e; stroke-width: 0.8; stroke-linecap: round"/>
   </g>
  </g>
 </g>
 <defs>
  <clipPath id="p56a2b3cd65">
   <rect x="5.76" y="3.6" width="132.48" height="49.2"/>
  </clipPath>
 </defs>
</svg>
