<?xml version="1.0" encoding="utf-8" standalone="no"?>
<!DOCTYPE svg PUBLIC "-//W3C//DTD SVG 1.1//EN"
  "http://www.w3.org/Graphics/SVG/1.1/DTD/svg11.dtd">
<svg xmlns:xlink="http://www.w3.org/1999/xlink" width="144pt" height="60pt" viewBox="0 0 144 60" xmlns="http://www.w3.org/2000/svg" version="1.1">
  <desc id="nav-meta">{"window":"1m","count":4,"labels":["21.05","31.05","10.06","20.06"],"tick_utc":["2026-05-21T04:59:27Z","2026-05-31T05:08:27Z","2026-06-10T05:05:46Z","2026-06-20T04:59:26Z"]}</desc>

 <metadata>
  <rdf:RDF xmlns:dc="http://purl.org/dc/elements/1.1/" xmlns:cc="http://creativecommons.org/ns#" xmlns:rdf="http://www.w3.org/1999/02/22-rdf-syntax-ns#">
   <cc:Work>
    <dc:type rdf:resource="http://purl.org/dc/dcmitype/StillImage"/>
    <dc:date>2026-06-20T04:59:27.873968</dc:date>
    <dc:format>image/svg+xml</dc:format>
    <dc:creator>
     <cc:Agent>
      <dc:title>Matplotlib v3.11.0, https://matplotlib.org/</dc:title>
     </cc:Agent>
    </dc:creator>
   </cc:Work>
  </rdf:RDF>
 </metadata>
 <defs>
  <style type="text/css">*{stroke-linejoin: round; stroke-linecap: butt}</style>
 </defs>
 <g id="figure_1">
  <g id="patch_1">
   <path d="M 0 60 
L 144 60 
L 144 0 
L 0 0 
L 0 60 
z
" style="fill: none; opacity: 0"/>
  </g>
  <g id="axes_1">
   <g id="patch_2">
    <path d="M 5.76 52.8 
L 138.24 52.8 
L 138.24 3.6 
L 5.76 3.6 
L 5.76 52.8 
z
" style="fill: none"/>
   </g>
   <g id="matplotlib.axis_1"/>
   <g id="matplotlib.axis_2"/>
   <g id="line2d_1">
    <path d="M 5.76 42.96 
L 138.24 42.96 
" clip-path="url(#pd003000e26)" style="fill: none; stroke: #b2b2b2; stroke-opacity: 0.35; stroke-width: 0.5; stroke-linecap: square"/>
   </g>
   <g id="line2d_2">
    <path d="M 5.76 33.12 
L 138.24 33.12 
" clip-path="url(#pd003000e26)" style="fill: none; stroke: #b2b2b2; stroke-opacity: 0.35; stroke-width: 0.5; stroke-linecap: square"/>
   </g>
   <g id="line2d_3">
    <path d="M 5.76 23.28 
L 138.24 23.28 
" clip-path="url(#pd003000e26)" style="fill: none; stroke: #b2b2b2; stroke-opacity: 0.35; stroke-width: 0.5; stroke-linecap: square"/>
   </g>
   <g id="line2d_4">
    <path d="M 5.76 13.44 
L 138.24 13.44 
" clip-path="url(#pd003000e26)" style="fill: none; stroke: #b2b2b2; stroke-opacity: 0.35; stroke-width: 0.5; stroke-linecap: square"/>
   </g>
   <g id="line2d_5">
    <path d="M 5.76 49.3314 
L 10.142166 49.34616 
L 14.497499 49.51836 
L 18.983421 49.41996 
L 23.457536 49.41504 
L 27.806633 49.5282 
L 32.26797 49.5774 
L 36.669865 49.7742 
L 41.089138 49.7004 
L 45.441455 49.69548 
L 49.947617 49.61676 
L 54.428939 49.71024 
L 58.801496 49.7988 
L 63.267178 50.19732 
L 67.668051 50.45808 
L 72.011321 50.59092 
L 76.359447 50.99928 
L 80.870362 50.82216 
L 85.305888 50.74344 
L 89.637608 50.62536 
L 94.099405 50.80248 
L 98.54132 50.76312 
L 102.974649 50.65488 
L 107.358348 50.6598 
L 111.806396 50.56632 
L 116.369189 50.39412 
L 120.810389 50.23176 
L 125.085733 50.2416 
L 129.480574 50.4138 
L 134.000587 50.55156 
L 138.24 50.42364 
" clip-path="url(#pd003000e26)" style="fill: none; stroke: #bebebe; stroke-width: 0.6; stroke-linecap: round"/>
   </g>
   <g id="line2d_6">
    <path d="M 5.76 43.16172 
L 10.142166 43.24536 
L 14.497499 43.71768 
L 18.983421 43.33392 
L 23.457536 43.42248 
L 27.806633 43.51596 
L 32.26797 43.67832 
L 36.669865 44.32776 
L 41.089138 44.13588 
L 45.441455 44.16048 
L 49.947617 43.96368 
L 54.428939 44.2392 
L 58.801496 44.19984 
L 63.267178 45.16908 
L 67.668051 45.67584 
L 72.011321 46.00548 
L 76.359447 47.57004 
L 80.870362 47.04852 
L 85.305888 46.64016 
L 89.637608 46.34496 
L 94.099405 46.82712 
L 98.54132 46.65492 
L 102.974649 46.51716 
L 107.358348 46.5516 
L 111.806396 46.46304 
L 116.369189 46.14816 
L 120.810389 45.84312 
L 125.085733 45.6414 
L 129.480574 46.09404 
L 134.000587 46.3302 
L 138.24 46.21704 
" clip-path="url(#pd003000e26)" style="fill: none; stroke: #4a8dff; stroke-width: 0.6; stroke-linecap: round"/>
   </g>
   <g id="line2d_7">
    <path d="M 5.76 47.05344 
L 10.142166 47.22564 
L 14.497499 48.07188 
L 18.983421 47.6832 
L 23.457536 47.37324 
L 27.806633 47.66844 
L 32.26797 48.07188 
L 36.669865 48.59832 
L 41.089138 48.52452 
L 45.441455 48.5688 
L 49.947617 48.38676 
L 54.428939 48.55404 
L 58.801496 49.0116 
L 63.267178 49.57248 
L 67.668051 49.93656 
L 72.011321 49.98084 
L 76.359447 50.3646 
L 80.870362 50.15796 
L 85.305888 50.07432 
L 89.637608 49.99068 
L 94.099405 50.217 
L 98.54132 50.07924 
L 102.974649 49.98084 
L 107.358348 49.971 
L 111.806396 49.87752 
L 116.369189 49.69548 
L 120.810389 49.65612 
L 125.085733 49.7004 
L 129.480574 49.92672 
L 134.000587 50.06448 
L 138.24 49.971 
" clip-path="url(#pd003000e26)" style="fill: none; stroke: #f5841e; stroke-width: 0.7; stroke-linecap: round"/>
   </g>
  </g>
 </g>
 <defs>
  <clipPath id="pd003000e26">
   <rect x="5.76" y="3.6" width="132.48" height="49.2"/>
  </clipPath>
 </defs>
</svg>
