<?xml version="1.0" encoding="utf-8" standalone="no"?>
<!DOCTYPE svg PUBLIC "-//W3C//DTD SVG 1.1//EN"
  "http://www.w3.org/Graphics/SVG/1.1/DTD/svg11.dtd">
<svg xmlns:xlink="http://www.w3.org/1999/xlink" width="144pt" height="60pt" viewBox="0 0 144 60" xmlns="http://www.w3.org/2000/svg" version="1.1">
  <desc id="nav-meta">{"window":"2w","count":4,"labels":["04.04","08.04","13.04","17.04"],"tick_utc":["2026-04-04T03:24:53Z","2026-04-08T03:43:16Z","2026-04-13T04:02:42Z","2026-04-17T03:55:44Z"]}</desc>

 <metadata>
  <rdf:RDF xmlns:dc="http://purl.org/dc/elements/1.1/" xmlns:cc="http://creativecommons.org/ns#" xmlns:rdf="http://www.w3.org/1999/02/22-rdf-syntax-ns#">
   <cc:Work>
    <dc:type rdf:resource="http://purl.org/dc/dcmitype/StillImage"/>
    <dc:date>2026-04-17T08:15:37.774418</dc:date>
    <dc:format>image/svg+xml</dc:format>
    <dc:creator>
     <cc:Agent>
      <dc:title>Matplotlib v3.10.8, https://matplotlib.org/</dc:title>
     </cc:Agent>
    </dc:creator>
   </cc:Work>
  </rdf:RDF>
 </metadata>
 <defs>
  <style type="text/css">*{stroke-linejoin: round; stroke-linecap: butt}</style>
 </defs>
 <g id="figure_1">
  <g id="patch_1">
   <path d="M 0 60 
L 144 60 
L 144 0 
L 0 0 
L 0 60 
z
" style="fill: none; opacity: 0"/>
  </g>
  <g id="axes_1">
   <g id="patch_2">
    <path d="M 5.76 52.8 
L 138.24 52.8 
L 138.24 3.6 
L 5.76 3.6 
L 5.76 52.8 
z
" style="fill: none"/>
   </g>
   <g id="matplotlib.axis_1"/>
   <g id="matplotlib.axis_2"/>
   <g id="line2d_1">
    <path d="M 5.76 42.96 
L 138.24 42.96 
" clip-path="url(#p5c69971744)" style="fill: none; stroke: #b2b2b2; stroke-opacity: 0.35; stroke-width: 0.5; stroke-linecap: square"/>
   </g>
   <g id="line2d_2">
    <path d="M 5.76 33.12 
L 138.24 33.12 
" clip-path="url(#p5c69971744)" style="fill: none; stroke: #b2b2b2; stroke-opacity: 0.35; stroke-width: 0.5; stroke-linecap: square"/>
   </g>
   <g id="line2d_3">
    <path d="M 5.76 23.28 
L 138.24 23.28 
" clip-path="url(#p5c69971744)" style="fill: none; stroke: #b2b2b2; stroke-opacity: 0.35; stroke-width: 0.5; stroke-linecap: square"/>
   </g>
   <g id="line2d_4">
    <path d="M 5.76 13.44 
L 138.24 13.44 
" clip-path="url(#p5c69971744)" style="fill: none; stroke: #b2b2b2; stroke-opacity: 0.35; stroke-width: 0.5; stroke-linecap: square"/>
   </g>
   <g id="line2d_5">
    <path d="M 5.76 49.80864 
L 16.087202 49.78896 
L 26.287464 49.69056 
L 36.395406 49.83816 
L 46.585895 49.50852 
L 56.724453 49.68564 
L 66.992071 49.6266 
L 77.01052 49.48884 
L 87.367042 49.6512 
L 97.59321 49.69056 
L 107.702448 49.40028 
L 117.868679 49.58724 
L 128.086722 49.45932 
L 138.24 49.27728 
" clip-path="url(#p5c69971744)" style="fill: none; stroke: #bebebe; stroke-width: 0.6; stroke-linecap: round"/>
   </g>
   <g id="line2d_6">
    <path d="M 5.76 43.81116 
L 16.087202 43.77672 
L 26.287464 43.2552 
L 36.395406 43.40772 
L 46.585895 42.49752 
L 56.724453 42.90588 
L 66.992071 42.8616 
L 77.01052 42.41388 
L 87.367042 42.63036 
L 97.59321 42.79764 
L 107.702448 41.57256 
L 117.868679 41.86284 
L 128.086722 41.63652 
L 138.24 41.85792 
" clip-path="url(#p5c69971744)" style="fill: none; stroke: #4a8dff; stroke-width: 0.6; stroke-linecap: round"/>
   </g>
   <g id="line2d_7">
    <path d="M 5.76 49.56264 
L 16.087202 49.53312 
L 26.287464 49.25268 
L 36.395406 49.29696 
L 46.585895 48.89352 
L 56.724453 48.96732 
L 66.992071 48.8148 
L 77.01052 48.5934 
L 87.367042 48.84432 
L 97.59321 48.95748 
L 107.702448 48.30804 
L 117.868679 48.34248 
L 128.086722 48.21456 
L 138.24 48.26376 
" clip-path="url(#p5c69971744)" style="fill: none; stroke: #f5841e; stroke-width: 0.7; stroke-linecap: round"/>
   </g>
  </g>
 </g>
 <defs>
  <clipPath id="p5c69971744">
   <rect x="5.76" y="3.6" width="132.48" height="49.2"/>
  </clipPath>
 </defs>
</svg>
