<?xml version="1.0" encoding="utf-8" standalone="no"?>
<!DOCTYPE svg PUBLIC "-//W3C//DTD SVG 1.1//EN"
  "http://www.w3.org/Graphics/SVG/1.1/DTD/svg11.dtd">
<svg xmlns:xlink="http://www.w3.org/1999/xlink" width="144pt" height="60pt" viewBox="0 0 144 60" xmlns="http://www.w3.org/2000/svg" version="1.1">
  <desc id="nav-meta">{"window":"6m","count":4,"labels":["11.10","10.12","07.02","08.04"],"tick_utc":["2025-10-11T12:00:00Z","2025-12-10T12:00:00Z","2026-02-07T03:13:08Z","2026-04-08T03:43:16Z"]}</desc>

 <metadata>
  <rdf:RDF xmlns:dc="http://purl.org/dc/elements/1.1/" xmlns:cc="http://creativecommons.org/ns#" xmlns:rdf="http://www.w3.org/1999/02/22-rdf-syntax-ns#">
   <cc:Work>
    <dc:type rdf:resource="http://purl.org/dc/dcmitype/StillImage"/>
    <dc:date>2026-04-08T14:14:12.681773</dc:date>
    <dc:format>image/svg+xml</dc:format>
    <dc:creator>
     <cc:Agent>
      <dc:title>Matplotlib v3.10.8, https://matplotlib.org/</dc:title>
     </cc:Agent>
    </dc:creator>
   </cc:Work>
  </rdf:RDF>
 </metadata>
 <defs>
  <style type="text/css">*{stroke-linejoin: round; stroke-linecap: butt}</style>
 </defs>
 <g id="figure_1">
  <g id="patch_1">
   <path d="M 0 60 
L 144 60 
L 144 0 
L 0 0 
L 0 60 
z
" style="fill: none; opacity: 0"/>
  </g>
  <g id="axes_1">
   <g id="patch_2">
    <path d="M 5.76 52.8 
L 138.24 52.8 
L 138.24 3.6 
L 5.76 3.6 
L 5.76 52.8 
z
" style="fill: none"/>
   </g>
   <g id="matplotlib.axis_1"/>
   <g id="matplotlib.axis_2"/>
   <g id="line2d_1">
    <path d="M 5.76 42.96 
L 138.24 42.96 
" clip-path="url(#p9427d17809)" style="fill: none; stroke: #b2b2b2; stroke-opacity: 0.35; stroke-width: 0.5; stroke-linecap: square"/>
   </g>
   <g id="line2d_2">
    <path d="M 5.76 33.12 
L 138.24 33.12 
" clip-path="url(#p9427d17809)" style="fill: none; stroke: #b2b2b2; stroke-opacity: 0.35; stroke-width: 0.5; stroke-linecap: square"/>
   </g>
   <g id="line2d_3">
    <path d="M 5.76 23.28 
L 138.24 23.28 
" clip-path="url(#p9427d17809)" style="fill: none; stroke: #b2b2b2; stroke-opacity: 0.35; stroke-width: 0.5; stroke-linecap: square"/>
   </g>
   <g id="line2d_4">
    <path d="M 5.76 13.44 
L 138.24 13.44 
" clip-path="url(#p9427d17809)" style="fill: none; stroke: #b2b2b2; stroke-opacity: 0.35; stroke-width: 0.5; stroke-linecap: square"/>
   </g>
   <g id="line2d_5">
    <path d="M 5.76 36.8838 
L 6.501541 38.39424 
L 7.243082 35.95392 
L 7.984622 34.53696 
L 8.726163 35.20608 
L 10.209245 37.57752 
L 10.950785 37.90716 
L 11.692326 37.18884 
L 12.433867 37.18392 
L 13.175408 36.89364 
L 13.916948 37.42008 
L 14.658489 38.17284 
L 15.40003 36.687 
L 16.141571 36.42132 
L 16.883112 36.34752 
L 17.624652 35.56032 
L 18.366193 35.72268 
L 19.107734 36.29832 
L 19.849275 36.32292 
L 20.590815 37.61688 
L 21.332356 37.2282 
L 22.073897 37.34628 
L 22.815438 37.23804 
L 23.556978 40.008 
L 24.298519 41.36592 
L 25.04006 40.43604 
L 25.781601 41.44956 
L 26.523141 40.53444 
L 27.264682 41.02152 
L 28.006223 40.22448 
L 28.747764 39.79644 
L 29.489305 41.51844 
L 30.230845 41.66604 
L 30.972386 42.714 
L 31.713927 43.51596 
L 32.455468 43.43724 
L 33.197008 43.71276 
L 33.938549 44.59836 
L 34.68009 43.30932 
L 35.421631 43.85052 
L 36.163171 44.21952 
L 36.904712 44.88372 
L 37.646253 44.99688 
L 38.387794 44.57868 
L 39.129335 43.5996 
L 39.870875 43.51596 
L 40.612416 43.00428 
L 41.353957 43.2798 
L 42.095498 43.71768 
L 43.578579 44.0916 
L 44.32012 45.11004 
L 45.061661 43.55532 
L 45.803201 42.72876 
L 47.286283 44.27364 
L 48.769364 44.47536 
L 49.510905 44.25888 
L 50.252446 43.64388 
L 50.993987 43.84068 
L 51.735528 43.85052 
L 52.477068 44.36712 
L 53.218609 44.26872 
L 53.96015 44.74104 
L 54.701691 44.98704 
L 55.443231 44.84436 
L 56.184772 45.58728 
L 56.926313 46.0596 
L 57.667854 45.18384 
L 60.634017 45.47904 
L 61.375558 45.65616 
L 62.117098 45.98088 
L 63.60018 45.38556 
L 64.341721 45.31668 
L 65.083261 45.58728 
L 65.824802 45.35604 
L 66.566343 45.40032 
L 67.307884 45.11496 
L 68.049424 44.42124 
L 69.532506 44.18508 
L 70.274047 43.62912 
L 71.015587 43.24044 
L 71.757128 43.8702 
L 72.498669 43.60944 
L 73.24021 43.92924 
L 73.981751 43.93416 
L 74.723291 43.46184 
L 75.464832 43.5012 
L 76.206373 42.72384 
L 76.947914 42.51228 
L 77.689454 43.08792 
L 78.430995 42.75828 
L 79.172536 42.90096 
L 80.655617 44.2392 
L 81.397158 45.23304 
L 82.138699 44.77548 
L 83.621781 45.04608 
L 84.363321 45.07068 
L 85.104862 46.1334 
L 85.846403 45.4446 
L 86.587944 45.06084 
L 87.329484 45.33144 
L 88.071025 46.30068 
L 88.812566 46.34496 
L 89.554107 47.89476 
L 90.295647 48.26376 
L 91.037188 47.96364 
L 92.252508 49.06572 
L 92.993671 50.04972 
L 93.732037 49.24776 
L 96.711726 49.59708 
L 97.450597 49.80372 
L 98.191915 49.86768 
L 98.924538 49.479 
L 99.626951 49.24776 
L 100.416057 49.48392 
L 101.06445 49.37568 
L 101.897962 49.479 
L 102.638602 49.7004 
L 104.86283 49.49376 
L 105.606602 49.98576 
L 106.285498 49.96608 
L 107.087014 49.7004 
L 107.825251 49.27236 
L 108.565384 49.37076 
L 109.298187 49.68072 
L 110.056576 49.25268 
L 110.790461 49.51344 
L 113.014251 49.09032 
L 115.240032 49.64628 
L 115.983795 49.58724 
L 116.720573 49.36092 
L 118.206281 49.45932 
L 118.946388 49.16904 
L 120.44267 49.27236 
L 121.186305 48.87384 
L 122.662065 48.70164 
L 123.403812 49.03128 
L 124.138135 49.1592 
L 124.875333 49.08048 
L 126.371245 49.36584 
L 127.90269 48.90828 
L 128.598022 49.05096 
L 130.07495 49.64628 
L 133.055017 49.59708 
L 133.78679 49.8726 
L 135.26437 49.80864 
L 137.497258 49.83816 
L 138.24 49.50852 
L 138.24 49.50852 
" clip-path="url(#p9427d17809)" style="fill: none; stroke: #bebebe; stroke-width: 0.6; stroke-linecap: round"/>
   </g>
   <g id="line2d_6">
    <path d="M 5.76 31.19136 
L 6.501541 31.80144 
L 7.243082 28.89864 
L 7.984622 28.28364 
L 8.726163 29.11512 
L 9.467704 30.1434 
L 10.209245 30.80268 
L 10.950785 31.22088 
L 11.692326 30.8076 
L 12.433867 30.13356 
L 13.175408 30.17784 
L 13.916948 30.89124 
L 14.658489 31.42752 
L 15.40003 31.04376 
L 16.141571 30.49764 
L 16.883112 30.3648 
L 17.624652 28.88388 
L 18.366193 29.15448 
L 19.107734 30.15324 
L 20.590815 31.4226 
L 21.332356 31.10772 
L 22.815438 30.66 
L 24.298519 34.99944 
L 25.04006 34.07448 
L 25.781601 34.9158 
L 26.523141 34.02528 
L 27.264682 34.26144 
L 28.006223 33.0216 
L 28.747764 33.10524 
L 29.489305 34.1532 
L 30.230845 34.2024 
L 30.972386 35.4324 
L 31.713927 36.34752 
L 32.455468 35.89488 
L 33.938549 36.94776 
L 34.68009 36.2688 
L 35.421631 36.97236 
L 36.163171 38.286 
L 36.904712 38.76324 
L 37.646253 38.73864 
L 38.387794 38.51724 
L 39.129335 37.42992 
L 39.870875 37.42008 
L 40.612416 36.90348 
L 41.353957 36.98712 
L 42.095498 36.86412 
L 42.837038 37.16424 
L 43.578579 37.14948 
L 44.32012 38.52216 
L 45.803201 35.71776 
L 46.544742 36.15564 
L 47.286283 36.93792 
L 48.769364 36.72636 
L 49.510905 36.21468 
L 50.252446 34.8174 
L 50.993987 34.7928 
L 51.735528 35.42748 
L 52.477068 36.49512 
L 53.218609 36.28356 
L 53.96015 36.6378 
L 54.701691 37.3512 
L 55.443231 37.3512 
L 56.184772 38.31552 
L 56.926313 38.32536 
L 57.667854 37.26264 
L 58.409394 37.26264 
L 59.150935 37.09044 
L 59.892476 37.06092 
L 60.634017 37.34628 
L 61.375558 37.48404 
L 62.117098 37.77924 
L 63.60018 37.45944 
L 65.083261 37.56276 
L 65.824802 37.31184 
L 66.566343 37.33644 
L 67.307884 37.09536 
L 68.049424 36.23928 
L 69.532506 36.11628 
L 70.274047 35.48652 
L 71.015587 35.0142 
L 71.757128 35.93424 
L 72.498669 36.36228 
L 73.24021 36.50988 
L 73.981751 36.5148 
L 74.723291 36.25404 
L 75.464832 36.46068 
L 76.206373 34.83708 
L 76.947914 34.57632 
L 78.430995 35.00436 
L 79.172536 34.93056 
L 79.914077 35.088 
L 80.655617 35.78664 
L 81.397158 37.55292 
L 82.138699 37.26756 
L 82.88024 37.46436 
L 84.363321 37.45944 
L 85.104862 38.41392 
L 86.587944 36.95268 
L 87.329484 37.05108 
L 88.071025 38.37948 
L 88.812566 39.20604 
L 89.554107 41.03136 
L 90.295647 42.26628 
L 91.037188 41.73492 
L 91.663215 42.23676 
L 92.993671 44.89356 
L 93.732037 43.6242 
L 95.225949 43.53072 
L 95.971721 43.72752 
L 97.450597 44.436 
L 98.191915 44.49012 
L 98.924538 43.81608 
L 99.626951 43.7226 
L 100.416057 44.5344 
L 101.06445 44.19 
L 101.897962 44.21952 
L 103.375809 44.51472 
L 104.86283 44.3868 
L 105.606602 45.174 
L 106.285498 45.23796 
L 107.087014 44.81484 
L 107.825251 43.821 
L 108.565384 44.01288 
L 109.298187 44.66232 
L 110.056576 43.93908 
L 110.790461 44.39664 
L 111.533727 44.12112 
L 112.271114 44.33268 
L 113.014251 43.3044 
L 113.75544 43.6242 
L 114.49129 44.29824 
L 115.240032 44.53932 
L 115.983795 44.30808 
L 116.720573 43.8702 
L 117.461822 44.00304 
L 118.206281 43.97844 
L 118.946388 43.41756 
L 120.44267 43.48644 
L 121.186305 42.49752 
L 121.914868 41.73984 
L 122.662065 41.7546 
L 123.403812 42.591 
L 124.138135 43.14204 
L 124.875333 43.083 
L 125.627962 43.35852 
L 126.371245 43.78164 
L 127.10592 43.21584 
L 127.90269 42.9354 
L 128.598022 43.10268 
L 130.07495 44.25396 
L 132.307116 43.74228 
L 133.055017 43.46676 
L 134.529181 43.79148 
L 136.017077 43.77672 
L 136.760532 43.2552 
L 137.497258 43.40772 
L 138.24 42.49752 
L 138.24 42.49752 
" clip-path="url(#p9427d17809)" style="fill: none; stroke: #4a8dff; stroke-width: 0.6; stroke-linecap: round"/>
   </g>
   <g id="line2d_7">
    <path d="M 5.76 29.64156 
L 6.501541 30.80268 
L 7.243082 28.65756 
L 7.984622 28.6428 
L 8.726163 29.66124 
L 10.209245 32.17044 
L 10.950785 32.97732 
L 11.692326 32.628 
L 12.433867 31.90476 
L 13.175408 30.92076 
L 13.916948 31.96872 
L 14.658489 32.39676 
L 15.40003 31.19628 
L 16.141571 30.72888 
L 16.883112 30.42384 
L 17.624652 29.0118 
L 18.366193 29.15448 
L 19.107734 29.76456 
L 19.849275 31.2012 
L 20.590815 32.09172 
L 21.332356 31.43244 
L 22.815438 30.90108 
L 23.556978 32.93796 
L 24.298519 35.35368 
L 25.04006 34.24668 
L 25.781601 35.5062 
L 26.523141 34.48284 
L 27.264682 35.02896 
L 28.006223 33.8334 
L 28.747764 33.243 
L 29.489305 34.69932 
L 30.230845 35.4078 
L 30.972386 36.2934 
L 31.713927 38.901 
L 32.455468 38.37948 
L 33.197008 38.92068 
L 33.938549 40.09164 
L 34.68009 39.70788 
L 35.421631 40.4262 
L 36.163171 42.75336 
L 36.904712 43.54548 
L 37.646253 43.72752 
L 38.387794 42.6894 
L 39.129335 41.976 
L 39.870875 42.42864 
L 40.612416 40.86408 
L 41.353957 40.47048 
L 43.578579 40.89852 
L 44.32012 42.9354 
L 45.061661 40.43604 
L 45.803201 39.31428 
L 46.544742 40.04244 
L 47.286283 41.43972 
L 48.027824 41.47416 
L 48.769364 41.02152 
L 49.510905 40.7952 
L 50.252446 39.75708 
L 50.993987 40.11132 
L 51.735528 39.87024 
L 52.477068 40.94772 
L 53.218609 40.97232 
L 54.701691 42.87144 
L 55.443231 42.17772 
L 56.184772 43.04364 
L 56.926313 43.34868 
L 57.667854 42.03504 
L 59.150935 41.8038 
L 59.892476 41.84316 
L 60.634017 42.37944 
L 61.375558 42.26628 
L 62.117098 42.468 
L 62.858639 42.42864 
L 63.60018 42.18264 
L 64.341721 42.1728 
L 65.083261 42.50244 
L 65.824802 41.88252 
L 66.566343 42.32532 
L 68.049424 41.13468 
L 69.532506 40.42128 
L 70.274047 39.16176 
L 71.015587 39.28968 
L 71.757128 40.48032 
L 73.981751 40.88376 
L 75.464832 40.53936 
L 76.206373 38.50248 
L 76.947914 37.63656 
L 77.689454 38.34012 
L 78.430995 38.37456 
L 79.172536 38.5812 
L 80.655617 39.8358 
L 81.397158 41.93172 
L 82.138699 41.42004 
L 83.621781 41.39052 
L 84.363321 41.5086 
L 85.104862 42.80256 
L 85.846403 41.93664 
L 86.587944 41.49384 
L 87.329484 41.51352 
L 88.071025 43.78164 
L 88.812566 43.9932 
L 89.554107 46.66968 
L 90.295647 47.55036 
L 91.037188 46.64508 
L 92.252508 48.89352 
L 92.993671 49.84308 
L 93.732037 49.00176 
L 94.490528 49.233 
L 95.225949 48.97716 
L 96.711726 49.36092 
L 98.191915 49.58724 
L 98.924538 49.28712 
L 99.626951 49.16904 
L 100.416057 49.39044 
L 101.06445 49.29696 
L 102.638602 49.55772 
L 104.86283 49.41996 
L 105.606602 49.8234 
L 106.285498 49.86768 
L 107.087014 49.72992 
L 107.825251 49.39536 
L 109.298187 49.6758 
L 110.056576 49.47408 
L 110.790461 49.60692 
L 111.533727 49.37568 
L 112.271114 49.36584 
L 113.014251 48.6672 
L 113.75544 48.95256 
L 114.49129 49.36092 
L 115.240032 49.54788 
L 115.983795 49.5282 
L 116.720573 49.09032 
L 118.206281 49.2084 
L 118.946388 48.93288 
L 120.44267 48.89844 
L 121.186305 48.48024 
L 121.914868 48.1998 
L 122.662065 48.28344 
L 123.403812 48.88368 
L 124.138135 49.04604 
L 124.875333 49.00176 
L 126.371245 49.38552 
L 127.10592 49.04112 
L 127.90269 48.92796 
L 128.598022 48.987 
L 130.07495 49.66104 
L 133.055017 49.40028 
L 133.78679 49.56756 
L 135.26437 49.56264 
L 136.017077 49.53312 
L 136.760532 49.25268 
L 137.497258 49.29696 
L 138.24 48.89352 
L 138.24 48.89352 
" clip-path="url(#p9427d17809)" style="fill: none; stroke: #f5841e; stroke-width: 0.7; stroke-linecap: round"/>
   </g>
  </g>
 </g>
 <defs>
  <clipPath id="p9427d17809">
   <rect x="5.76" y="3.6" width="132.48" height="49.2"/>
  </clipPath>
 </defs>
</svg>
