<?xml version="1.0" encoding="utf-8" standalone="no"?>
<!DOCTYPE svg PUBLIC "-//W3C//DTD SVG 1.1//EN"
  "http://www.w3.org/Graphics/SVG/1.1/DTD/svg11.dtd">
<svg xmlns:xlink="http://www.w3.org/1999/xlink" width="144pt" height="60pt" viewBox="0 0 144 60" xmlns="http://www.w3.org/2000/svg" version="1.1">
  <desc id="nav-meta">{"window":"1m","count":4,"labels":["10.02","20.02","02.03","12.03"],"tick_utc":["2026-02-10T03:42:23Z","2026-02-20T03:20:24Z","2026-03-02T03:18:56Z","2026-03-12T03:19:44Z"]}</desc>

 <metadata>
  <rdf:RDF xmlns:dc="http://purl.org/dc/elements/1.1/" xmlns:cc="http://creativecommons.org/ns#" xmlns:rdf="http://www.w3.org/1999/02/22-rdf-syntax-ns#">
   <cc:Work>
    <dc:type rdf:resource="http://purl.org/dc/dcmitype/StillImage"/>
    <dc:date>2026-03-12T03:19:45.326240</dc:date>
    <dc:format>image/svg+xml</dc:format>
    <dc:creator>
     <cc:Agent>
      <dc:title>Matplotlib v3.10.8, https://matplotlib.org/</dc:title>
     </cc:Agent>
    </dc:creator>
   </cc:Work>
  </rdf:RDF>
 </metadata>
 <defs>
  <style type="text/css">*{stroke-linejoin: round; stroke-linecap: butt}</style>
 </defs>
 <g id="figure_1">
  <g id="patch_1">
   <path d="M 0 60 
L 144 60 
L 144 0 
L 0 0 
L 0 60 
z
" style="fill: none; opacity: 0"/>
  </g>
  <g id="axes_1">
   <g id="patch_2">
    <path d="M 5.76 52.8 
L 138.24 52.8 
L 138.24 3.6 
L 5.76 3.6 
L 5.76 52.8 
z
" style="fill: none"/>
   </g>
   <g id="matplotlib.axis_1"/>
   <g id="matplotlib.axis_2"/>
   <g id="line2d_1">
    <path d="M 5.76 42.96 
L 138.24 42.96 
" clip-path="url(#p45ea0af565)" style="fill: none; stroke: #b2b2b2; stroke-opacity: 0.35; stroke-width: 0.5; stroke-linecap: square"/>
   </g>
   <g id="line2d_2">
    <path d="M 5.76 33.12 
L 138.24 33.12 
" clip-path="url(#p45ea0af565)" style="fill: none; stroke: #b2b2b2; stroke-opacity: 0.35; stroke-width: 0.5; stroke-linecap: square"/>
   </g>
   <g id="line2d_3">
    <path d="M 5.76 23.28 
L 138.24 23.28 
" clip-path="url(#p45ea0af565)" style="fill: none; stroke: #b2b2b2; stroke-opacity: 0.35; stroke-width: 0.5; stroke-linecap: square"/>
   </g>
   <g id="line2d_4">
    <path d="M 5.76 13.44 
L 138.24 13.44 
" clip-path="url(#p45ea0af565)" style="fill: none; stroke: #b2b2b2; stroke-opacity: 0.35; stroke-width: 0.5; stroke-linecap: square"/>
   </g>
   <g id="line2d_5">
    <path d="M 5.76 49.43964 
L 10.169163 49.59708 
L 14.571576 49.80372 
L 18.988562 49.86768 
L 23.353747 49.479 
L 27.538925 49.24776 
L 32.240648 49.48392 
L 36.103965 49.37568 
L 41.070276 49.479 
L 45.483223 49.7004 
L 49.875715 49.62168 
L 54.26703 49.5282 
L 58.73582 49.49376 
L 63.167432 49.98576 
L 67.212493 49.96608 
L 71.988162 49.7004 
L 76.38679 49.27236 
L 80.79672 49.37076 
L 85.162978 49.68072 
L 89.681678 49.25268 
L 94.05438 49.51344 
L 98.482975 49.4052 
L 102.876541 49.34124 
L 107.304369 49.09032 
L 111.720589 49.24284 
L 116.105001 49.49868 
L 120.566222 49.64628 
L 124.997784 49.58724 
L 129.387719 49.36092 
L 133.804297 49.41996 
L 138.24 49.45932 
" clip-path="url(#p45ea0af565)" style="fill: none; stroke: #bebebe; stroke-width: 0.6; stroke-linecap: round"/>
   </g>
   <g id="line2d_6">
    <path d="M 5.76 43.72752 
L 10.169163 44.0916 
L 14.571576 44.436 
L 18.988562 44.49012 
L 23.353747 43.81608 
L 27.538925 43.7226 
L 32.240648 44.5344 
L 36.103965 44.19 
L 41.070276 44.21952 
L 45.483223 44.3868 
L 49.875715 44.51472 
L 54.26703 44.4606 
L 58.73582 44.3868 
L 63.167432 45.174 
L 67.212493 45.23796 
L 71.988162 44.81484 
L 76.38679 43.821 
L 80.79672 44.01288 
L 85.162978 44.66232 
L 89.681678 43.93908 
L 94.05438 44.39664 
L 98.482975 44.12112 
L 102.876541 44.33268 
L 107.304369 43.3044 
L 111.720589 43.6242 
L 116.105001 44.29824 
L 120.566222 44.53932 
L 124.997784 44.30808 
L 129.387719 43.8702 
L 133.804297 44.00304 
L 138.24 43.97844 
" clip-path="url(#p45ea0af565)" style="fill: none; stroke: #4a8dff; stroke-width: 0.6; stroke-linecap: round"/>
   </g>
   <g id="line2d_7">
    <path d="M 5.76 49.22316 
L 10.169163 49.36092 
L 14.571576 49.49868 
L 18.988562 49.58724 
L 23.353747 49.28712 
L 27.538925 49.16904 
L 32.240648 49.39044 
L 36.103965 49.29696 
L 41.070276 49.479 
L 45.483223 49.55772 
L 49.875715 49.51344 
L 54.26703 49.44948 
L 58.73582 49.41996 
L 63.167432 49.8234 
L 67.212493 49.86768 
L 71.988162 49.72992 
L 76.38679 49.39536 
L 80.79672 49.52328 
L 85.162978 49.6758 
L 89.681678 49.47408 
L 94.05438 49.60692 
L 98.482975 49.37568 
L 102.876541 49.36584 
L 107.304369 48.6672 
L 111.720589 48.95256 
L 116.105001 49.36092 
L 120.566222 49.54788 
L 124.997784 49.5282 
L 129.387719 49.09032 
L 133.804297 49.16412 
L 138.24 49.2084 
" clip-path="url(#p45ea0af565)" style="fill: none; stroke: #f5841e; stroke-width: 0.7; stroke-linecap: round"/>
   </g>
  </g>
 </g>
 <defs>
  <clipPath id="p45ea0af565">
   <rect x="5.76" y="3.6" width="132.48" height="49.2"/>
  </clipPath>
 </defs>
</svg>
