<?xml version="1.0" encoding="utf-8" standalone="no"?>
<!DOCTYPE svg PUBLIC "-//W3C//DTD SVG 1.1//EN"
  "http://www.w3.org/Graphics/SVG/1.1/DTD/svg11.dtd">
<svg xmlns:xlink="http://www.w3.org/1999/xlink" width="144pt" height="60pt" viewBox="0 0 144 60" xmlns="http://www.w3.org/2000/svg" version="1.1">
  <desc id="nav-meta">{"window":"2w","count":4,"labels":["31.01","05.02","09.02","14.02"],"tick_utc":["2026-01-31T12:00:00Z","2026-02-05T03:20:02Z","2026-02-09T03:34:10Z","2026-02-14T03:16:28Z"]}</desc>

 <metadata>
  <rdf:RDF xmlns:dc="http://purl.org/dc/elements/1.1/" xmlns:cc="http://creativecommons.org/ns#" xmlns:rdf="http://www.w3.org/1999/02/22-rdf-syntax-ns#">
   <cc:Work>
    <dc:type rdf:resource="http://purl.org/dc/dcmitype/StillImage"/>
    <dc:date>2026-02-14T03:16:32.514366</dc:date>
    <dc:format>image/svg+xml</dc:format>
    <dc:creator>
     <cc:Agent>
      <dc:title>Matplotlib v3.10.8, https://matplotlib.org/</dc:title>
     </cc:Agent>
    </dc:creator>
   </cc:Work>
  </rdf:RDF>
 </metadata>
 <defs>
  <style type="text/css">*{stroke-linejoin: round; stroke-linecap: butt}</style>
 </defs>
 <g id="figure_1">
  <g id="patch_1">
   <path d="M 0 60 
L 144 60 
L 144 0 
L 0 0 
L 0 60 
z
" style="fill: none; opacity: 0"/>
  </g>
  <g id="axes_1">
   <g id="patch_2">
    <path d="M 5.76 52.8 
L 138.24 52.8 
L 138.24 3.6 
L 5.76 3.6 
L 5.76 52.8 
z
" style="fill: none"/>
   </g>
   <g id="matplotlib.axis_1"/>
   <g id="matplotlib.axis_2"/>
   <g id="line2d_1">
    <path d="M 5.76 42.96 
L 138.24 42.96 
" clip-path="url(#p49b17ecdd2)" style="fill: none; stroke: #b2b2b2; stroke-opacity: 0.35; stroke-width: 0.5; stroke-linecap: square"/>
   </g>
   <g id="line2d_2">
    <path d="M 5.76 33.12 
L 138.24 33.12 
" clip-path="url(#p49b17ecdd2)" style="fill: none; stroke: #b2b2b2; stroke-opacity: 0.35; stroke-width: 0.5; stroke-linecap: square"/>
   </g>
   <g id="line2d_3">
    <path d="M 5.76 23.28 
L 138.24 23.28 
" clip-path="url(#p49b17ecdd2)" style="fill: none; stroke: #b2b2b2; stroke-opacity: 0.35; stroke-width: 0.5; stroke-linecap: square"/>
   </g>
   <g id="line2d_4">
    <path d="M 5.76 13.44 
L 138.24 13.44 
" clip-path="url(#p49b17ecdd2)" style="fill: none; stroke: #b2b2b2; stroke-opacity: 0.35; stroke-width: 0.5; stroke-linecap: square"/>
   </g>
   <g id="line2d_5">
    <path d="M 5.76 46.34496 
L 15.475149 47.89476 
L 25.190298 48.26376 
L 34.905447 47.96364 
L 43.107214 48.55896 
L 50.827722 49.06572 
L 60.537923 50.04972 
L 70.211468 49.24776 
L 80.148694 49.32156 
L 89.78367 49.31172 
L 99.554254 49.43964 
L 109.249276 49.59708 
L 118.929455 49.80372 
L 128.64168 49.86768 
L 138.24 49.479 
" clip-path="url(#p49b17ecdd2)" style="fill: none; stroke: #bebebe; stroke-width: 0.6; stroke-linecap: round"/>
   </g>
   <g id="line2d_6">
    <path d="M 5.76 39.20604 
L 15.475149 41.03136 
L 25.190298 42.26628 
L 34.905447 41.73492 
L 43.107214 42.23676 
L 50.827722 43.38804 
L 60.537923 44.89356 
L 70.211468 43.6242 
L 80.148694 43.575 
L 89.78367 43.53072 
L 99.554254 43.72752 
L 109.249276 44.0916 
L 118.929455 44.436 
L 128.64168 44.49012 
L 138.24 43.81608 
" clip-path="url(#p49b17ecdd2)" style="fill: none; stroke: #4a8dff; stroke-width: 0.6; stroke-linecap: round"/>
   </g>
   <g id="line2d_7">
    <path d="M 5.76 43.9932 
L 15.475149 46.66968 
L 25.190298 47.55036 
L 34.905447 46.64508 
L 43.107214 47.89476 
L 50.827722 48.89352 
L 60.537923 49.84308 
L 70.211468 49.00176 
L 80.148694 49.233 
L 89.78367 48.97716 
L 99.554254 49.22316 
L 109.249276 49.36092 
L 118.929455 49.49868 
L 128.64168 49.58724 
L 138.24 49.28712 
" clip-path="url(#p49b17ecdd2)" style="fill: none; stroke: #f5841e; stroke-width: 0.7; stroke-linecap: round"/>
   </g>
  </g>
 </g>
 <defs>
  <clipPath id="p49b17ecdd2">
   <rect x="5.76" y="3.6" width="132.48" height="49.2"/>
  </clipPath>
 </defs>
</svg>
