<?xml version="1.0" encoding="utf-8" standalone="no"?>
<!DOCTYPE svg PUBLIC "-//W3C//DTD SVG 1.1//EN"
  "http://www.w3.org/Graphics/SVG/1.1/DTD/svg11.dtd">
<svg xmlns:xlink="http://www.w3.org/1999/xlink" width="144pt" height="60pt" viewBox="0 0 144 60" xmlns="http://www.w3.org/2000/svg" version="1.1">
  <desc id="nav-meta">{"window":"1m","count":4,"labels":["09.02","19.02","01.03","11.03"],"tick_utc":["2026-02-09T03:34:10Z","2026-02-19T03:28:49Z","2026-03-01T03:33:48Z","2026-03-11T03:14:04Z"]}</desc>

 <metadata>
  <rdf:RDF xmlns:dc="http://purl.org/dc/elements/1.1/" xmlns:cc="http://creativecommons.org/ns#" xmlns:rdf="http://www.w3.org/1999/02/22-rdf-syntax-ns#">
   <cc:Work>
    <dc:type rdf:resource="http://purl.org/dc/dcmitype/StillImage"/>
    <dc:date>2026-03-11T03:14:06.005993</dc:date>
    <dc:format>image/svg+xml</dc:format>
    <dc:creator>
     <cc:Agent>
      <dc:title>Matplotlib v3.10.8, https://matplotlib.org/</dc:title>
     </cc:Agent>
    </dc:creator>
   </cc:Work>
  </rdf:RDF>
 </metadata>
 <defs>
  <style type="text/css">*{stroke-linejoin: round; stroke-linecap: butt}</style>
 </defs>
 <g id="figure_1">
  <g id="patch_1">
   <path d="M 0 60 
L 144 60 
L 144 0 
L 0 0 
L 0 60 
z
" style="fill: none; opacity: 0"/>
  </g>
  <g id="axes_1">
   <g id="patch_2">
    <path d="M 5.76 52.8 
L 138.24 52.8 
L 138.24 3.6 
L 5.76 3.6 
L 5.76 52.8 
z
" style="fill: none"/>
   </g>
   <g id="matplotlib.axis_1"/>
   <g id="matplotlib.axis_2"/>
   <g id="line2d_1">
    <path d="M 5.76 42.96 
L 138.24 42.96 
" clip-path="url(#p5d84635b53)" style="fill: none; stroke: #b2b2b2; stroke-opacity: 0.35; stroke-width: 0.5; stroke-linecap: square"/>
   </g>
   <g id="line2d_2">
    <path d="M 5.76 33.12 
L 138.24 33.12 
" clip-path="url(#p5d84635b53)" style="fill: none; stroke: #b2b2b2; stroke-opacity: 0.35; stroke-width: 0.5; stroke-linecap: square"/>
   </g>
   <g id="line2d_3">
    <path d="M 5.76 23.28 
L 138.24 23.28 
" clip-path="url(#p5d84635b53)" style="fill: none; stroke: #b2b2b2; stroke-opacity: 0.35; stroke-width: 0.5; stroke-linecap: square"/>
   </g>
   <g id="line2d_4">
    <path d="M 5.76 13.44 
L 138.24 13.44 
" clip-path="url(#p5d84635b53)" style="fill: none; stroke: #b2b2b2; stroke-opacity: 0.35; stroke-width: 0.5; stroke-linecap: square"/>
   </g>
   <g id="line2d_5">
    <path d="M 5.76 49.31172 
L 10.203265 49.43964 
L 14.612168 49.59708 
L 19.01432 49.80372 
L 23.431046 49.86768 
L 27.795973 49.479 
L 31.980904 49.24776 
L 36.68235 49.48392 
L 40.545438 49.37568 
L 45.511455 49.479 
L 49.924142 49.7004 
L 54.316374 49.62168 
L 58.707431 49.5282 
L 63.175957 49.49376 
L 67.607307 49.98576 
L 71.652129 49.96608 
L 76.427516 49.7004 
L 80.825884 49.27236 
L 85.235554 49.37076 
L 89.601554 49.68072 
L 94.119987 49.25268 
L 98.492431 49.51344 
L 102.920765 49.4052 
L 107.314071 49.34124 
L 111.741638 49.09032 
L 116.157597 49.24284 
L 120.54175 49.49868 
L 125.002708 49.64628 
L 129.434007 49.58724 
L 133.823683 49.36092 
L 138.24 49.41996 
" clip-path="url(#p5d84635b53)" style="fill: none; stroke: #bebebe; stroke-width: 0.6; stroke-linecap: round"/>
   </g>
   <g id="line2d_6">
    <path d="M 5.76 43.53072 
L 10.203265 43.72752 
L 14.612168 44.0916 
L 19.01432 44.436 
L 23.431046 44.49012 
L 27.795973 43.81608 
L 31.980904 43.7226 
L 36.68235 44.5344 
L 40.545438 44.19 
L 45.511455 44.21952 
L 49.924142 44.3868 
L 54.316374 44.51472 
L 58.707431 44.4606 
L 63.175957 44.3868 
L 67.607307 45.174 
L 71.652129 45.23796 
L 76.427516 44.81484 
L 80.825884 43.821 
L 85.235554 44.01288 
L 89.601554 44.66232 
L 94.119987 43.93908 
L 98.492431 44.39664 
L 102.920765 44.12112 
L 107.314071 44.33268 
L 111.741638 43.3044 
L 116.157597 43.6242 
L 120.54175 44.29824 
L 125.002708 44.53932 
L 129.434007 44.30808 
L 133.823683 43.8702 
L 138.24 44.00304 
" clip-path="url(#p5d84635b53)" style="fill: none; stroke: #4a8dff; stroke-width: 0.6; stroke-linecap: round"/>
   </g>
   <g id="line2d_7">
    <path d="M 5.76 48.97716 
L 10.203265 49.22316 
L 14.612168 49.36092 
L 19.01432 49.49868 
L 23.431046 49.58724 
L 27.795973 49.28712 
L 31.980904 49.16904 
L 36.68235 49.39044 
L 40.545438 49.29696 
L 45.511455 49.479 
L 49.924142 49.55772 
L 54.316374 49.51344 
L 58.707431 49.44948 
L 63.175957 49.41996 
L 67.607307 49.8234 
L 71.652129 49.86768 
L 76.427516 49.72992 
L 80.825884 49.39536 
L 85.235554 49.52328 
L 89.601554 49.6758 
L 94.119987 49.47408 
L 98.492431 49.60692 
L 102.920765 49.37568 
L 107.314071 49.36584 
L 111.741638 48.6672 
L 116.157597 48.95256 
L 120.54175 49.36092 
L 125.002708 49.54788 
L 129.434007 49.5282 
L 133.823683 49.09032 
L 138.24 49.16412 
" clip-path="url(#p5d84635b53)" style="fill: none; stroke: #f5841e; stroke-width: 0.7; stroke-linecap: round"/>
   </g>
  </g>
 </g>
 <defs>
  <clipPath id="p5d84635b53">
   <rect x="5.76" y="3.6" width="132.48" height="49.2"/>
  </clipPath>
 </defs>
</svg>
