<?xml version="1.0" encoding="utf-8" standalone="no"?>
<!DOCTYPE svg PUBLIC "-//W3C//DTD SVG 1.1//EN"
  "http://www.w3.org/Graphics/SVG/1.1/DTD/svg11.dtd">
<svg xmlns:xlink="http://www.w3.org/1999/xlink" width="144pt" height="60pt" viewBox="0 0 144 60" xmlns="http://www.w3.org/2000/svg" version="1.1">
  <desc id="nav-meta">{"window":"6m","count":4,"labels":["24.12","22.02","23.04","22.06"],"tick_utc":["2025-12-24T12:00:00Z","2026-02-22T03:28:03Z","2026-04-23T03:57:29Z","2026-06-22T06:11:33Z"]}</desc>

 <metadata>
  <rdf:RDF xmlns:dc="http://purl.org/dc/elements/1.1/" xmlns:cc="http://creativecommons.org/ns#" xmlns:rdf="http://www.w3.org/1999/02/22-rdf-syntax-ns#">
   <cc:Work>
    <dc:type rdf:resource="http://purl.org/dc/dcmitype/StillImage"/>
    <dc:date>2026-06-22T06:11:34.992392</dc:date>
    <dc:format>image/svg+xml</dc:format>
    <dc:creator>
     <cc:Agent>
      <dc:title>Matplotlib v3.11.0, https://matplotlib.org/</dc:title>
     </cc:Agent>
    </dc:creator>
   </cc:Work>
  </rdf:RDF>
 </metadata>
 <defs>
  <style type="text/css">*{stroke-linejoin: round; stroke-linecap: butt}</style>
 </defs>
 <g id="figure_1">
  <g id="patch_1">
   <path d="M 0 60 
L 144 60 
L 144 0 
L 0 0 
L 0 60 
z
" style="fill: none; opacity: 0"/>
  </g>
  <g id="axes_1">
   <g id="patch_2">
    <path d="M 5.76 52.8 
L 138.24 52.8 
L 138.24 3.6 
L 5.76 3.6 
L 5.76 52.8 
z
" style="fill: none"/>
   </g>
   <g id="matplotlib.axis_1"/>
   <g id="matplotlib.axis_2"/>
   <g id="line2d_1">
    <path d="M 5.76 42.96 
L 138.24 42.96 
" clip-path="url(#p877c789672)" style="fill: none; stroke: #b2b2b2; stroke-opacity: 0.35; stroke-width: 0.5; stroke-linecap: square"/>
   </g>
   <g id="line2d_2">
    <path d="M 5.76 33.12 
L 138.24 33.12 
" clip-path="url(#p877c789672)" style="fill: none; stroke: #b2b2b2; stroke-opacity: 0.35; stroke-width: 0.5; stroke-linecap: square"/>
   </g>
   <g id="line2d_3">
    <path d="M 5.76 23.28 
L 138.24 23.28 
" clip-path="url(#p877c789672)" style="fill: none; stroke: #b2b2b2; stroke-opacity: 0.35; stroke-width: 0.5; stroke-linecap: square"/>
   </g>
   <g id="line2d_4">
    <path d="M 5.76 13.44 
L 138.24 13.44 
" clip-path="url(#p877c789672)" style="fill: none; stroke: #b2b2b2; stroke-opacity: 0.35; stroke-width: 0.5; stroke-linecap: square"/>
   </g>
   <g id="line2d_5">
    <path d="M 5.76 45.47904 
L 6.496991 45.65616 
L 7.233982 45.98088 
L 8.707963 45.38556 
L 9.444954 45.31668 
L 10.181945 45.58728 
L 10.918935 45.35604 
L 11.655926 45.40032 
L 12.392917 45.11496 
L 13.129908 44.42124 
L 14.603889 44.18508 
L 15.34088 43.62912 
L 16.077871 43.24044 
L 16.814861 43.8702 
L 17.551852 43.60944 
L 18.288843 43.92924 
L 19.025834 43.93416 
L 19.762824 43.46184 
L 20.499815 43.5012 
L 21.236806 42.72384 
L 21.973797 42.51228 
L 22.710787 43.08792 
L 23.447778 42.75828 
L 24.184769 42.90096 
L 25.65875 44.2392 
L 26.395741 45.23304 
L 27.132732 44.77548 
L 28.606713 45.04608 
L 29.343704 45.07068 
L 30.080695 46.1334 
L 30.817686 45.4446 
L 31.554677 45.06084 
L 32.291667 45.33144 
L 33.028658 46.30068 
L 33.765649 46.34496 
L 34.50264 47.89476 
L 35.23963 48.26376 
L 35.976621 47.96364 
L 37.184484 49.06572 
L 37.9211 50.04972 
L 38.654934 49.24776 
L 41.61634 49.59708 
L 42.350678 49.80372 
L 43.087447 49.86768 
L 43.815575 49.479 
L 44.513678 49.24776 
L 45.297942 49.48392 
L 45.942357 49.37568 
L 46.770755 49.479 
L 47.50685 49.7004 
L 49.71743 49.49376 
L 50.456638 49.98576 
L 51.131369 49.96608 
L 51.927967 49.7004 
L 52.661674 49.27236 
L 53.397266 49.37076 
L 54.125573 49.68072 
L 54.879308 49.25268 
L 55.60869 49.51344 
L 57.818835 49.09032 
L 60.030959 49.64628 
L 60.770159 49.58724 
L 61.502415 49.36092 
L 62.979007 49.45932 
L 63.714573 49.16904 
L 65.201674 49.27236 
L 65.940746 48.87384 
L 67.407451 48.70164 
L 68.144647 49.03128 
L 68.874464 49.1592 
L 69.607139 49.08048 
L 71.093872 49.36584 
L 72.61592 48.90828 
L 73.306986 49.05096 
L 74.774851 49.64628 
L 77.736633 49.59708 
L 78.463916 49.8726 
L 79.93243 49.80864 
L 82.151617 49.83816 
L 82.889802 49.50852 
L 83.624225 49.68564 
L 85.09372 49.48884 
L 85.843932 49.6512 
L 86.584702 49.69056 
L 87.317001 49.40028 
L 88.053429 49.58724 
L 90.257961 49.19856 
L 91.004684 49.43472 
L 91.7435 49.50852 
L 95.41908 49.37568 
L 96.167535 49.4052 
L 96.912467 49.29204 
L 97.651002 49.5528 
L 98.385979 49.50852 
L 99.124207 49.64136 
L 100.587432 49.56264 
L 101.339385 49.57248 
L 102.076119 49.42488 
L 102.796878 49.49376 
L 104.284038 49.25268 
L 105.008763 49.24284 
L 105.748449 48.80004 
L 106.50029 48.85416 
L 107.969853 48.63276 
L 108.71035 48.66228 
L 109.446522 49.09524 
L 110.187146 48.99192 
L 111.662723 49.34616 
L 112.40687 49.47408 
L 113.878208 49.54788 
L 114.619395 49.3314 
L 115.350739 49.34616 
L 116.077605 49.51836 
L 117.572954 49.41504 
L 119.777972 49.7742 
L 121.993909 49.61676 
L 123.471541 49.7988 
L 124.216823 50.19732 
L 124.951289 50.45808 
L 125.676142 50.59092 
L 126.401804 50.99928 
L 127.894885 50.74344 
L 128.617809 50.62536 
L 129.362443 50.80248 
L 132.31758 50.56632 
L 133.820265 50.23176 
L 134.533781 50.2416 
L 136.02159 50.55156 
L 138.24 50.217 
L 138.24 50.217 
" clip-path="url(#p877c789672)" style="fill: none; stroke: #bebebe; stroke-width: 0.6; stroke-linecap: round"/>
   </g>
   <g id="line2d_6">
    <path d="M 5.76 37.34628 
L 6.496991 37.48404 
L 7.233982 37.77924 
L 8.707963 37.45944 
L 10.181945 37.56276 
L 10.918935 37.31184 
L 11.655926 37.33644 
L 12.392917 37.09536 
L 13.129908 36.23928 
L 14.603889 36.11628 
L 15.34088 35.48652 
L 16.077871 35.0142 
L 16.814861 35.93424 
L 17.551852 36.36228 
L 18.288843 36.50988 
L 19.025834 36.5148 
L 19.762824 36.25404 
L 20.499815 36.46068 
L 21.236806 34.83708 
L 21.973797 34.57632 
L 23.447778 35.00436 
L 24.184769 34.93056 
L 24.92176 35.088 
L 25.65875 35.78664 
L 26.395741 37.55292 
L 27.132732 37.26756 
L 27.869723 37.46436 
L 29.343704 37.45944 
L 30.080695 38.41392 
L 31.554677 36.95268 
L 32.291667 37.05108 
L 33.028658 38.37948 
L 33.765649 39.20604 
L 34.50264 41.03136 
L 35.23963 42.26628 
L 35.976621 41.73492 
L 36.598807 42.23676 
L 37.9211 44.89356 
L 38.654934 43.6242 
L 40.139681 43.53072 
L 40.880877 43.72752 
L 42.350678 44.436 
L 43.087447 44.49012 
L 43.815575 43.81608 
L 44.513678 43.7226 
L 45.297942 44.5344 
L 45.942357 44.19 
L 46.770755 44.21952 
L 48.239533 44.51472 
L 49.71743 44.3868 
L 50.456638 45.174 
L 51.131369 45.23796 
L 51.927967 44.81484 
L 52.661674 43.821 
L 53.397266 44.01288 
L 54.125573 44.66232 
L 54.879308 43.93908 
L 55.60869 44.39664 
L 56.347395 44.12112 
L 57.080258 44.33268 
L 57.818835 43.3044 
L 58.555476 43.6242 
L 59.286811 44.29824 
L 60.030959 44.53932 
L 60.770159 44.30808 
L 61.502415 43.8702 
L 62.239116 44.00304 
L 62.979007 43.97844 
L 63.714573 43.41756 
L 65.201674 43.48644 
L 65.940746 42.49752 
L 66.664839 41.73984 
L 67.407451 41.7546 
L 68.144647 42.591 
L 68.874464 43.14204 
L 69.607139 43.083 
L 70.35515 43.35852 
L 71.093872 43.78164 
L 71.824039 43.21584 
L 72.61592 42.9354 
L 73.306986 43.10268 
L 74.774851 44.25396 
L 76.993321 43.74228 
L 77.736633 43.46676 
L 79.201752 43.79148 
L 80.680519 43.77672 
L 81.419411 43.2552 
L 82.151617 43.40772 
L 82.889802 42.49752 
L 83.624225 42.90588 
L 84.367997 42.8616 
L 85.09372 42.41388 
L 86.584702 42.79764 
L 87.317001 41.57256 
L 88.053429 41.86284 
L 88.79361 41.63652 
L 89.529099 41.85792 
L 90.257961 41.22324 
L 91.004684 41.76936 
L 91.7435 42.1482 
L 92.477258 41.96616 
L 93.211963 41.59224 
L 94.690883 41.99076 
L 95.41908 41.91696 
L 96.167535 41.98584 
L 96.912467 41.41512 
L 97.651002 42.15312 
L 98.385979 41.96124 
L 99.124207 42.43848 
L 100.587432 42.02028 
L 101.339385 42.0252 
L 102.076119 41.40528 
L 103.546851 41.52336 
L 105.008763 42.1974 
L 105.748449 41.8776 
L 107.243098 41.8038 
L 107.969853 41.976 
L 108.71035 42.00552 
L 109.446522 42.3942 
L 110.187146 42.27612 
L 111.662723 42.85176 
L 112.40687 43.31424 
L 113.138581 43.2306 
L 113.878208 43.39296 
L 114.619395 43.16172 
L 115.350739 43.24536 
L 116.077605 43.71768 
L 116.826264 43.33392 
L 119.043336 43.67832 
L 119.777972 44.32776 
L 120.515509 44.13588 
L 121.241871 44.16048 
L 121.993909 43.96368 
L 122.741801 44.2392 
L 123.471541 44.19984 
L 124.216823 45.16908 
L 124.951289 45.67584 
L 125.676142 46.00548 
L 126.401804 47.57004 
L 127.894885 46.64016 
L 128.617809 46.34496 
L 129.362443 46.82712 
L 130.843641 46.51716 
L 131.575241 46.5516 
L 132.31758 46.46304 
L 134.533781 45.6414 
L 135.26724 46.09404 
L 136.02159 46.3302 
L 138.24 46.035 
L 138.24 46.035 
" clip-path="url(#p877c789672)" style="fill: none; stroke: #4a8dff; stroke-width: 0.6; stroke-linecap: round"/>
   </g>
   <g id="line2d_7">
    <path d="M 5.76 42.37944 
L 6.496991 42.26628 
L 7.233982 42.468 
L 7.970972 42.42864 
L 8.707963 42.18264 
L 9.444954 42.1728 
L 10.181945 42.50244 
L 10.918935 41.88252 
L 11.655926 42.32532 
L 13.129908 41.13468 
L 14.603889 40.42128 
L 15.34088 39.16176 
L 16.077871 39.28968 
L 16.814861 40.48032 
L 19.025834 40.88376 
L 20.499815 40.53936 
L 21.236806 38.50248 
L 21.973797 37.63656 
L 22.710787 38.34012 
L 23.447778 38.37456 
L 24.184769 38.5812 
L 25.65875 39.8358 
L 26.395741 41.93172 
L 27.132732 41.42004 
L 28.606713 41.39052 
L 29.343704 41.5086 
L 30.080695 42.80256 
L 30.817686 41.93664 
L 31.554677 41.49384 
L 32.291667 41.51352 
L 33.028658 43.78164 
L 33.765649 43.9932 
L 34.50264 46.66968 
L 35.23963 47.55036 
L 35.976621 46.64508 
L 37.184484 48.89352 
L 37.9211 49.84308 
L 38.654934 49.00176 
L 39.408772 49.233 
L 40.139681 48.97716 
L 41.61634 49.36092 
L 43.087447 49.58724 
L 43.815575 49.28712 
L 44.513678 49.16904 
L 45.297942 49.39044 
L 45.942357 49.29696 
L 47.50685 49.55772 
L 49.71743 49.41996 
L 50.456638 49.8234 
L 51.131369 49.86768 
L 51.927967 49.72992 
L 52.661674 49.39536 
L 54.125573 49.6758 
L 54.879308 49.47408 
L 55.60869 49.60692 
L 56.347395 49.37568 
L 57.080258 49.36584 
L 57.818835 48.6672 
L 58.555476 48.95256 
L 59.286811 49.36092 
L 60.030959 49.54788 
L 60.770159 49.5282 
L 61.502415 49.09032 
L 62.979007 49.2084 
L 63.714573 48.93288 
L 65.201674 48.89844 
L 65.940746 48.48024 
L 66.664839 48.1998 
L 67.407451 48.28344 
L 68.144647 48.88368 
L 68.874464 49.04604 
L 69.607139 49.00176 
L 71.093872 49.38552 
L 71.824039 49.04112 
L 72.61592 48.92796 
L 73.306986 48.987 
L 74.774851 49.66104 
L 77.736633 49.40028 
L 78.463916 49.56756 
L 79.93243 49.56264 
L 80.680519 49.53312 
L 81.419411 49.25268 
L 82.151617 49.29696 
L 82.889802 48.89352 
L 83.624225 48.96732 
L 85.09372 48.5934 
L 85.843932 48.84432 
L 86.584702 48.95748 
L 87.317001 48.30804 
L 88.053429 48.34248 
L 88.79361 48.21456 
L 89.529099 48.26376 
L 90.257961 47.41752 
L 91.004684 48.05712 
L 91.7435 48.26376 
L 92.477258 48.01776 
L 93.211963 47.23548 
L 95.41908 47.1666 
L 96.167535 47.31912 
L 96.912467 46.49256 
L 97.651002 47.64876 
L 98.385979 47.5356 
L 99.124207 48.0276 
L 99.86925 47.50608 
L 100.587432 46.81728 
L 101.339385 46.92552 
L 102.076119 45.85788 
L 103.546851 45.29208 
L 104.284038 45.58728 
L 105.008763 46.2564 
L 105.748449 45.7152 
L 108.71035 45.42492 
L 109.446522 46.38432 
L 110.187146 45.57744 
L 110.914728 46.51716 
L 111.662723 46.95996 
L 112.40687 47.54544 
L 113.878208 47.66844 
L 114.619395 47.05344 
L 115.350739 47.22564 
L 116.077605 48.07188 
L 117.572954 47.37324 
L 119.043336 48.07188 
L 119.777972 48.59832 
L 120.515509 48.52452 
L 121.241871 48.5688 
L 121.993909 48.38676 
L 122.741801 48.55404 
L 124.951289 49.93656 
L 125.676142 49.98084 
L 126.401804 50.3646 
L 127.154635 50.15796 
L 128.617809 49.99068 
L 129.362443 50.217 
L 130.843641 49.98084 
L 132.31758 49.87752 
L 133.079069 49.69548 
L 134.533781 49.7004 
L 136.02159 50.06448 
L 137.481437 49.89228 
L 138.24 49.89228 
L 138.24 49.89228 
" clip-path="url(#p877c789672)" style="fill: none; stroke: #f5841e; stroke-width: 0.7; stroke-linecap: round"/>
   </g>
  </g>
 </g>
 <defs>
  <clipPath id="p877c789672">
   <rect x="5.76" y="3.6" width="132.48" height="49.2"/>
  </clipPath>
 </defs>
</svg>
