<?xml version="1.0" encoding="utf-8" standalone="no"?>
<!DOCTYPE svg PUBLIC "-//W3C//DTD SVG 1.1//EN"
  "http://www.w3.org/Graphics/SVG/1.1/DTD/svg11.dtd">
<svg xmlns:xlink="http://www.w3.org/1999/xlink" width="144pt" height="60pt" viewBox="0 0 144 60" xmlns="http://www.w3.org/2000/svg" version="1.1">
  <desc id="nav-meta">{"window":"6m","count":4,"labels":["09.01","10.03","08.05","07.07"],"tick_utc":["2026-01-09T12:00:00Z","2026-03-10T03:14:38Z","2026-05-08T04:01:19Z","2026-07-07T04:37:20Z"]}</desc>

 <metadata>
  <rdf:RDF xmlns:dc="http://purl.org/dc/elements/1.1/" xmlns:cc="http://creativecommons.org/ns#" xmlns:rdf="http://www.w3.org/1999/02/22-rdf-syntax-ns#">
   <cc:Work>
    <dc:type rdf:resource="http://purl.org/dc/dcmitype/StillImage"/>
    <dc:date>2026-07-07T20:30:49.153140</dc:date>
    <dc:format>image/svg+xml</dc:format>
    <dc:creator>
     <cc:Agent>
      <dc:title>Matplotlib v3.11.0, https://matplotlib.org/</dc:title>
     </cc:Agent>
    </dc:creator>
   </cc:Work>
  </rdf:RDF>
 </metadata>
 <defs>
  <style type="text/css">*{stroke-linejoin: round; stroke-linecap: butt}</style>
 </defs>
 <g id="figure_1">
  <g id="patch_1">
   <path d="M 0 60 
L 144 60 
L 144 0 
L 0 0 
L 0 60 
z
" style="fill: none; opacity: 0"/>
  </g>
  <g id="axes_1">
   <g id="patch_2">
    <path d="M 5.76 52.8 
L 138.24 52.8 
L 138.24 3.6 
L 5.76 3.6 
L 5.76 52.8 
z
" style="fill: none"/>
   </g>
   <g id="matplotlib.axis_1"/>
   <g id="matplotlib.axis_2"/>
   <g id="line2d_1">
    <path d="M 5.76 42.96 
L 138.24 42.96 
" clip-path="url(#p045514b945)" style="fill: none; stroke: #b2b2b2; stroke-opacity: 0.35; stroke-width: 0.5; stroke-linecap: square"/>
   </g>
   <g id="line2d_2">
    <path d="M 5.76 33.12 
L 138.24 33.12 
" clip-path="url(#p045514b945)" style="fill: none; stroke: #b2b2b2; stroke-opacity: 0.35; stroke-width: 0.5; stroke-linecap: square"/>
   </g>
   <g id="line2d_3">
    <path d="M 5.76 23.28 
L 138.24 23.28 
" clip-path="url(#p045514b945)" style="fill: none; stroke: #b2b2b2; stroke-opacity: 0.35; stroke-width: 0.5; stroke-linecap: square"/>
   </g>
   <g id="line2d_4">
    <path d="M 5.76 13.44 
L 138.24 13.44 
" clip-path="url(#p045514b945)" style="fill: none; stroke: #b2b2b2; stroke-opacity: 0.35; stroke-width: 0.5; stroke-linecap: square"/>
   </g>
   <g id="line2d_5">
    <path d="M 5.76 43.60944 
L 6.501385 43.92924 
L 7.24277 43.93416 
L 7.984155 43.46184 
L 8.72554 43.5012 
L 9.466925 42.72384 
L 10.20831 42.51228 
L 10.949695 43.08792 
L 11.69108 42.75828 
L 12.432465 42.90096 
L 13.915235 44.2392 
L 14.656619 45.23304 
L 15.398004 44.77548 
L 16.880774 45.04608 
L 17.622159 45.07068 
L 18.363544 46.1334 
L 19.104929 45.4446 
L 19.846314 45.06084 
L 20.587699 45.33144 
L 21.329084 46.30068 
L 22.070469 46.34496 
L 22.811854 47.89476 
L 23.553239 48.26376 
L 24.294624 47.96364 
L 25.509689 49.06572 
L 26.250696 50.04972 
L 26.988906 49.24776 
L 29.967969 49.59708 
L 30.706686 49.80372 
L 31.447847 49.86768 
L 32.180317 49.479 
L 32.882582 49.24776 
L 33.671522 49.48392 
L 34.319779 49.37568 
L 35.153116 49.479 
L 35.8936 49.7004 
L 38.11736 49.49376 
L 38.860976 49.98576 
L 39.53973 49.96608 
L 40.341078 49.7004 
L 41.079159 49.27236 
L 41.819137 49.37076 
L 42.551786 49.68072 
L 43.310015 49.25268 
L 44.043746 49.51344 
L 46.267069 49.09032 
L 48.492382 49.64628 
L 49.235989 49.58724 
L 49.972612 49.36092 
L 51.458008 49.45932 
L 52.19796 49.16904 
L 53.693927 49.27236 
L 54.437406 48.87384 
L 55.912856 48.70164 
L 56.654447 49.03128 
L 57.388615 49.1592 
L 58.125658 49.08048 
L 59.621257 49.36584 
L 61.15238 48.90828 
L 61.847565 49.05096 
L 63.324183 49.64628 
L 66.303624 49.59708 
L 67.035244 49.8726 
L 68.512513 49.80864 
L 70.744931 49.83816 
L 71.487518 49.50852 
L 72.22632 49.68564 
L 73.704576 49.48884 
L 74.459261 49.6512 
L 75.204448 49.69056 
L 75.941113 49.40028 
L 76.681932 49.58724 
L 78.899608 49.19856 
L 79.650784 49.43472 
L 80.394005 49.50852 
L 84.0915 49.37568 
L 84.844417 49.4052 
L 85.593791 49.29204 
L 86.336729 49.5528 
L 87.076089 49.50852 
L 87.818718 49.64136 
L 89.290667 49.56264 
L 90.047103 49.57248 
L 90.788231 49.42488 
L 91.513286 49.49376 
L 93.009314 49.25268 
L 93.738359 49.24284 
L 94.482456 48.80004 
L 95.23878 48.85416 
L 96.717105 48.63276 
L 97.462017 48.66228 
L 98.202578 49.09524 
L 98.947618 48.99192 
L 100.431993 49.34616 
L 101.180577 49.47408 
L 102.660687 49.54788 
L 103.406294 49.3314 
L 104.141998 49.34616 
L 104.873198 49.51836 
L 106.377463 49.41504 
L 108.595628 49.7742 
L 110.824777 49.61676 
L 112.31122 49.7988 
L 113.060945 50.19732 
L 113.79979 50.45808 
L 114.528965 50.59092 
L 115.258954 50.99928 
L 116.760937 50.74344 
L 117.488172 50.62536 
L 118.237245 50.80248 
L 121.210001 50.56632 
L 122.721646 50.23176 
L 123.439416 50.2416 
L 124.936096 50.55156 
L 127.167733 50.217 
L 129.350022 50.59092 
L 130.095208 50.59092 
L 130.827506 50.33016 
L 131.583024 50.4384 
L 132.329772 50.3892 
L 136.008929 49.6266 
L 136.761169 49.7742 
L 138.24 49.76436 
L 138.24 49.76436 
" clip-path="url(#p045514b945)" style="fill: none; stroke: #bebebe; stroke-width: 0.6; stroke-linecap: round"/>
   </g>
   <g id="line2d_6">
    <path d="M 5.76 36.36228 
L 6.501385 36.50988 
L 7.24277 36.5148 
L 7.984155 36.25404 
L 8.72554 36.46068 
L 9.466925 34.83708 
L 10.20831 34.57632 
L 11.69108 35.00436 
L 12.432465 34.93056 
L 13.17385 35.088 
L 13.915235 35.78664 
L 14.656619 37.55292 
L 15.398004 37.26756 
L 16.139389 37.46436 
L 17.622159 37.45944 
L 18.363544 38.41392 
L 19.846314 36.95268 
L 20.587699 37.05108 
L 21.329084 38.37948 
L 22.070469 39.20604 
L 22.811854 41.03136 
L 23.553239 42.26628 
L 24.294624 41.73492 
L 24.920519 42.23676 
L 26.250696 44.89356 
L 26.988906 43.6242 
L 28.482505 43.53072 
L 29.22812 43.72752 
L 30.706686 44.436 
L 31.447847 44.49012 
L 32.180317 43.81608 
L 32.882582 43.7226 
L 33.671522 44.5344 
L 34.319779 44.19 
L 35.153116 44.21952 
L 36.630652 44.51472 
L 38.11736 44.3868 
L 38.860976 45.174 
L 39.53973 45.23796 
L 40.341078 44.81484 
L 41.079159 43.821 
L 41.819137 44.01288 
L 42.551786 44.66232 
L 43.310015 43.93908 
L 44.043746 44.39664 
L 44.786856 44.12112 
L 45.524088 44.33268 
L 46.267069 43.3044 
L 47.008102 43.6242 
L 47.743798 44.29824 
L 48.492382 44.53932 
L 49.235989 44.30808 
L 49.972612 43.8702 
L 50.713705 44.00304 
L 51.458008 43.97844 
L 52.19796 43.41756 
L 53.693927 43.48644 
L 54.437406 42.49752 
L 55.165816 41.73984 
L 55.912856 41.7546 
L 56.654447 42.591 
L 57.388615 43.14204 
L 58.125658 43.083 
L 58.87813 43.35852 
L 59.621257 43.78164 
L 60.355777 43.21584 
L 61.15238 42.9354 
L 61.847565 43.10268 
L 63.324183 44.25396 
L 65.55588 43.74228 
L 66.303624 43.46676 
L 67.777478 43.79148 
L 69.265062 43.77672 
L 70.00836 43.2552 
L 70.744931 43.40772 
L 71.487518 42.49752 
L 72.22632 42.90588 
L 72.974526 42.8616 
L 73.704576 42.41388 
L 75.204448 42.79764 
L 75.941113 41.57256 
L 76.681932 41.86284 
L 77.426526 41.63652 
L 78.166401 41.85792 
L 78.899608 41.22324 
L 79.650784 41.76936 
L 80.394005 42.1482 
L 81.132138 41.96616 
L 81.871223 41.59224 
L 83.358961 41.99076 
L 84.0915 41.91696 
L 84.844417 41.98584 
L 85.593791 41.41512 
L 86.336729 42.15312 
L 87.076089 41.96124 
L 87.818718 42.43848 
L 89.290667 42.02028 
L 90.047103 42.0252 
L 90.788231 41.40528 
L 92.267731 41.52336 
L 93.738359 42.1974 
L 94.482456 41.8776 
L 95.986017 41.8038 
L 96.717105 41.976 
L 97.462017 42.00552 
L 98.202578 42.3942 
L 98.947618 42.27612 
L 100.431993 42.85176 
L 101.180577 43.31424 
L 101.916651 43.2306 
L 102.660687 43.39296 
L 103.406294 43.16172 
L 104.141998 43.24536 
L 104.873198 43.71768 
L 105.626321 43.33392 
L 107.856611 43.67832 
L 108.595628 44.32776 
L 109.337562 44.13588 
L 110.068255 44.16048 
L 110.824777 43.96368 
L 111.577128 44.2392 
L 112.31122 44.19984 
L 113.060945 45.16908 
L 113.79979 45.67584 
L 114.528965 46.00548 
L 115.258954 47.57004 
L 116.760937 46.64016 
L 117.488172 46.34496 
L 118.237245 46.82712 
L 119.727274 46.51716 
L 120.463236 46.5516 
L 121.210001 46.46304 
L 123.439416 45.6414 
L 124.177249 46.09404 
L 124.936096 46.3302 
L 127.167733 46.035 
L 127.864798 46.14324 
L 130.095208 47.38308 
L 130.827506 47.14692 
L 132.329772 47.22072 
L 134.537417 46.79268 
L 135.270736 46.27608 
L 136.008929 45.92184 
L 137.509736 45.75456 
L 138.24 45.81852 
L 138.24 45.81852 
" clip-path="url(#p045514b945)" style="fill: none; stroke: #4a8dff; stroke-width: 0.6; stroke-linecap: round"/>
   </g>
   <g id="line2d_7">
    <path d="M 5.76 40.61316 
L 6.501385 40.84932 
L 7.24277 40.88376 
L 8.72554 40.53936 
L 9.466925 38.50248 
L 10.20831 37.63656 
L 10.949695 38.34012 
L 11.69108 38.37456 
L 12.432465 38.5812 
L 13.915235 39.8358 
L 14.656619 41.93172 
L 15.398004 41.42004 
L 16.880774 41.39052 
L 17.622159 41.5086 
L 18.363544 42.80256 
L 19.104929 41.93664 
L 19.846314 41.49384 
L 20.587699 41.51352 
L 21.329084 43.78164 
L 22.070469 43.9932 
L 22.811854 46.66968 
L 23.553239 47.55036 
L 24.294624 46.64508 
L 25.509689 48.89352 
L 26.250696 49.84308 
L 26.988906 49.00176 
L 27.747238 49.233 
L 28.482505 48.97716 
L 29.967969 49.36092 
L 31.447847 49.58724 
L 32.180317 49.28712 
L 32.882582 49.16904 
L 33.671522 49.39044 
L 34.319779 49.29696 
L 35.8936 49.55772 
L 38.11736 49.41996 
L 38.860976 49.8234 
L 39.53973 49.86768 
L 40.341078 49.72992 
L 41.079159 49.39536 
L 42.551786 49.6758 
L 43.310015 49.47408 
L 44.043746 49.60692 
L 44.786856 49.37568 
L 45.524088 49.36584 
L 46.267069 48.6672 
L 47.008102 48.95256 
L 47.743798 49.36092 
L 48.492382 49.54788 
L 49.235989 49.5282 
L 49.972612 49.09032 
L 51.458008 49.2084 
L 52.19796 48.93288 
L 53.693927 48.89844 
L 54.437406 48.48024 
L 55.165816 48.1998 
L 55.912856 48.28344 
L 56.654447 48.88368 
L 57.388615 49.04604 
L 58.125658 49.00176 
L 59.621257 49.38552 
L 60.355777 49.04112 
L 61.15238 48.92796 
L 61.847565 48.987 
L 63.324183 49.66104 
L 66.303624 49.40028 
L 67.035244 49.56756 
L 68.512513 49.56264 
L 69.265062 49.53312 
L 70.00836 49.25268 
L 70.744931 49.29696 
L 71.487518 48.89352 
L 72.22632 48.96732 
L 73.704576 48.5934 
L 74.459261 48.84432 
L 75.204448 48.95748 
L 75.941113 48.30804 
L 76.681932 48.34248 
L 77.426526 48.21456 
L 78.166401 48.26376 
L 78.899608 47.41752 
L 79.650784 48.05712 
L 80.394005 48.26376 
L 81.132138 48.01776 
L 81.871223 47.23548 
L 84.0915 47.1666 
L 84.844417 47.31912 
L 85.593791 46.49256 
L 86.336729 47.64876 
L 87.076089 47.5356 
L 87.818718 48.0276 
L 88.568203 47.50608 
L 89.290667 46.81728 
L 90.047103 46.92552 
L 90.788231 45.85788 
L 92.267731 45.29208 
L 93.009314 45.58728 
L 93.738359 46.2564 
L 94.482456 45.7152 
L 97.462017 45.42492 
L 98.202578 46.38432 
L 98.947618 45.57744 
L 99.679539 46.51716 
L 100.431993 46.95996 
L 101.180577 47.54544 
L 102.660687 47.66844 
L 103.406294 47.05344 
L 104.141998 47.22564 
L 104.873198 48.07188 
L 106.377463 47.37324 
L 107.856611 48.07188 
L 108.595628 48.59832 
L 109.337562 48.52452 
L 110.068255 48.5688 
L 110.824777 48.38676 
L 111.577128 48.55404 
L 113.79979 49.93656 
L 114.528965 49.98084 
L 115.258954 50.3646 
L 116.016274 50.15796 
L 117.488172 49.99068 
L 118.237245 50.217 
L 119.727274 49.98084 
L 121.210001 49.87752 
L 121.976031 49.69548 
L 123.439416 49.7004 
L 124.936096 50.06448 
L 126.404647 49.89228 
L 127.864798 49.9464 
L 130.827506 50.31048 
L 133.809015 50.41872 
L 136.008929 50.0694 
L 138.24 50.00544 
L 138.24 50.00544 
" clip-path="url(#p045514b945)" style="fill: none; stroke: #f5841e; stroke-width: 0.7; stroke-linecap: round"/>
   </g>
  </g>
 </g>
 <defs>
  <clipPath id="p045514b945">
   <rect x="5.76" y="3.6" width="132.48" height="49.2"/>
  </clipPath>
 </defs>
</svg>
