<?xml version="1.0" encoding="utf-8" standalone="no"?>
<!DOCTYPE svg PUBLIC "-//W3C//DTD SVG 1.1//EN"
  "http://www.w3.org/Graphics/SVG/1.1/DTD/svg11.dtd">
<svg xmlns:xlink="http://www.w3.org/1999/xlink" width="144pt" height="60pt" viewBox="0 0 144 60" xmlns="http://www.w3.org/2000/svg" version="1.1">
  <desc id="nav-meta">{"window":"1y","count":4,"labels":["03.04","03.08","02.12","03.04"],"tick_utc":["2025-04-03T12:00:00Z","2025-08-03T12:00:00Z","2025-12-02T12:00:00Z","2026-04-03T03:37:13Z"]}</desc>

 <metadata>
  <rdf:RDF xmlns:dc="http://purl.org/dc/elements/1.1/" xmlns:cc="http://creativecommons.org/ns#" xmlns:rdf="http://www.w3.org/1999/02/22-rdf-syntax-ns#">
   <cc:Work>
    <dc:type rdf:resource="http://purl.org/dc/dcmitype/StillImage"/>
    <dc:date>2026-04-03T03:37:15.877970</dc:date>
    <dc:format>image/svg+xml</dc:format>
    <dc:creator>
     <cc:Agent>
      <dc:title>Matplotlib v3.10.8, https://matplotlib.org/</dc:title>
     </cc:Agent>
    </dc:creator>
   </cc:Work>
  </rdf:RDF>
 </metadata>
 <defs>
  <style type="text/css">*{stroke-linejoin: round; stroke-linecap: butt}</style>
 </defs>
 <g id="figure_1">
  <g id="patch_1">
   <path d="M 0 60 
L 144 60 
L 144 0 
L 0 0 
L 0 60 
z
" style="fill: none; opacity: 0"/>
  </g>
  <g id="axes_1">
   <g id="patch_2">
    <path d="M 5.76 52.8 
L 138.24 52.8 
L 138.24 3.6 
L 5.76 3.6 
L 5.76 52.8 
z
" style="fill: none"/>
   </g>
   <g id="matplotlib.axis_1"/>
   <g id="matplotlib.axis_2"/>
   <g id="line2d_1">
    <path d="M 5.76 42.96 
L 138.24 42.96 
" clip-path="url(#p461d3c7d02)" style="fill: none; stroke: #b2b2b2; stroke-opacity: 0.35; stroke-width: 0.5; stroke-linecap: square"/>
   </g>
   <g id="line2d_2">
    <path d="M 5.76 33.12 
L 138.24 33.12 
" clip-path="url(#p461d3c7d02)" style="fill: none; stroke: #b2b2b2; stroke-opacity: 0.35; stroke-width: 0.5; stroke-linecap: square"/>
   </g>
   <g id="line2d_3">
    <path d="M 5.76 23.28 
L 138.24 23.28 
" clip-path="url(#p461d3c7d02)" style="fill: none; stroke: #b2b2b2; stroke-opacity: 0.35; stroke-width: 0.5; stroke-linecap: square"/>
   </g>
   <g id="line2d_4">
    <path d="M 5.76 13.44 
L 138.24 13.44 
" clip-path="url(#p461d3c7d02)" style="fill: none; stroke: #b2b2b2; stroke-opacity: 0.35; stroke-width: 0.5; stroke-linecap: square"/>
   </g>
   <g id="line2d_5">
    <path d="M 5.76 46.24164 
L 6.123306 46.3548 
L 6.486613 45.63648 
L 6.849919 45.97104 
L 7.213226 47.84556 
L 7.576532 47.71272 
L 7.939839 47.88 
L 8.303145 46.12848 
L 8.666452 46.91568 
L 9.393064 44.40648 
L 9.756371 44.91816 
L 10.119677 44.76564 
L 10.482984 45.16908 
L 10.84629 44.49504 
L 11.209597 44.08668 
L 11.572903 44.17032 
L 11.936209 43.43232 
L 12.662822 43.86528 
L 13.026129 42.23676 
L 13.752742 41.7792 
L 14.842661 42.31056 
L 15.205967 42.345 
L 15.569274 42.5418 
L 15.93258 42.37944 
L 16.295887 41.98584 
L 16.659193 42.345 
L 17.0225 42.49752 
L 17.385806 42.86652 
L 17.749112 42.49752 
L 18.475725 42.44832 
L 18.839032 40.33272 
L 19.202338 39.12732 
L 19.565645 38.52216 
L 19.928951 39.10272 
L 20.292258 38.901 
L 20.655564 37.6464 
L 21.382177 39.639 
L 22.10879 40.008 
L 22.472096 39.27492 
L 22.835403 39.90468 
L 23.198709 39.6882 
L 23.925322 38.22696 
L 24.288628 38.901 
L 24.651935 38.69436 
L 25.378548 38.86164 
L 25.741854 38.62056 
L 26.468467 39.88992 
L 26.831773 41.23308 
L 27.921693 41.17404 
L 28.648306 41.62176 
L 29.011612 42.79272 
L 29.374919 42.30564 
L 30.101531 41.7546 
L 30.464838 40.62792 
L 30.828144 40.131 
L 31.191451 40.6476 
L 31.554757 41.73492 
L 32.28137 42.76812 
L 32.644676 41.73492 
L 33.007983 41.89728 
L 33.371289 42.345 
L 33.734596 42.5664 
L 34.097902 42.46308 
L 34.824515 44.20476 
L 35.187822 44.45076 
L 35.551128 42.7632 
L 35.914434 42.63036 
L 36.277741 42.94524 
L 36.641047 43.52088 
L 37.004354 43.1076 
L 37.36766 41.98092 
L 38.094273 41.43972 
L 38.45758 42.4926 
L 38.820886 41.79888 
L 39.184192 41.78412 
L 39.547499 42.37452 
L 39.910805 42.3942 
L 40.274112 41.83332 
L 40.637418 42.24168 
L 41.000725 41.84316 
L 41.727337 40.2786 
L 42.090644 40.42128 
L 42.45395 40.71648 
L 43.180563 40.48032 
L 43.54387 40.26384 
L 43.907176 38.97972 
L 44.633789 38.51724 
L 44.997095 38.57628 
L 45.360402 38.04492 
L 45.723708 36.03264 
L 46.087015 34.88136 
L 46.450321 36.92316 
L 46.813628 37.8432 
L 47.176934 37.37088 
L 47.540241 37.53324 
L 47.903547 37.056 
L 48.266853 37.77924 
L 48.63016 38.02032 
L 48.993466 38.45328 
L 49.356773 39.1962 
L 49.720079 40.41636 
L 50.083386 40.97232 
L 50.446692 40.53444 
L 50.809998 39.55536 
L 51.173305 40.24908 
L 51.536611 39.7128 
L 51.899918 38.778 
L 52.263224 38.59104 
L 52.989837 37.794 
L 53.353144 38.82228 
L 53.71645 36.53448 
L 54.079756 35.334 
L 54.806369 37.44468 
L 55.169676 36.90348 
L 55.532982 36.65748 
L 56.259595 38.64516 
L 56.622901 37.2282 
L 56.986208 38.14332 
L 57.349514 35.53572 
L 57.712821 35.04372 
L 58.076127 34.80264 
L 58.439434 37.23804 
L 59.529353 33.67104 
L 59.892659 34.90596 
L 60.982579 35.9736 
L 61.345885 34.36476 
L 61.709192 34.1778 
L 62.072498 35.22084 
L 62.435805 35.11752 
L 62.799111 35.54556 
L 64.252337 32.44104 
L 64.615643 31.83096 
L 64.97895 30.06468 
L 65.342256 30.01056 
L 65.705562 30.291 
L 66.068869 31.16184 
L 66.432175 30.74856 
L 66.795482 29.71536 
L 67.158788 29.37588 
L 67.522095 30.57636 
L 67.885401 30.42876 
L 68.248708 30.79284 
L 68.612014 32.91828 
L 68.97532 33.72024 
L 69.338627 34.05972 
L 69.701933 36.5886 
L 70.06524 34.90104 
L 70.428546 35.10276 
L 70.791853 34.16796 
L 71.155159 33.8826 
L 71.518465 34.43364 
L 72.245078 31.05852 
L 72.608385 31.26024 
L 72.971691 31.92936 
L 73.334998 31.85064 
L 73.698304 31.3242 
L 74.061611 32.84448 
L 74.424917 31.78176 
L 74.788223 32.85924 
L 75.15153 36.8838 
L 75.514836 38.39424 
L 75.878143 35.95392 
L 76.241449 34.53696 
L 76.604756 35.20608 
L 77.331369 37.57752 
L 77.694675 37.90716 
L 78.057981 37.18884 
L 78.421288 37.18392 
L 78.784594 36.89364 
L 79.147901 37.42008 
L 79.511207 38.17284 
L 79.874514 36.687 
L 80.23782 36.42132 
L 80.601126 36.34752 
L 80.964433 35.56032 
L 81.327739 35.72268 
L 81.691046 36.29832 
L 82.054352 36.32292 
L 82.417659 37.61688 
L 82.780965 37.2282 
L 83.144272 37.34628 
L 83.507578 37.23804 
L 83.870884 40.008 
L 84.234191 41.36592 
L 84.597497 40.43604 
L 84.960804 41.44956 
L 85.32411 40.53444 
L 85.687417 41.02152 
L 86.050723 40.22448 
L 86.414029 39.79644 
L 86.777336 41.51844 
L 87.140642 41.66604 
L 87.867255 43.51596 
L 88.230562 43.43724 
L 88.593868 43.71276 
L 88.957175 44.59836 
L 89.320481 43.30932 
L 90.4104 44.88372 
L 90.773707 44.99688 
L 91.137013 44.57868 
L 91.50032 43.5996 
L 91.863626 43.51596 
L 92.226933 43.00428 
L 92.590239 43.2798 
L 92.953545 43.71768 
L 93.680158 44.0916 
L 94.043465 45.11004 
L 94.406771 43.55532 
L 94.770078 42.72876 
L 95.49669 44.27364 
L 96.223303 44.47536 
L 96.58661 44.25888 
L 96.949916 43.64388 
L 97.313223 43.84068 
L 97.676529 43.85052 
L 98.039836 44.36712 
L 98.403142 44.26872 
L 98.766448 44.74104 
L 99.129755 44.98704 
L 99.493061 44.84436 
L 99.856368 45.58728 
L 100.219674 46.0596 
L 100.582981 45.18384 
L 102.036206 45.47904 
L 102.399513 45.65616 
L 102.762819 45.98088 
L 103.489432 45.38556 
L 103.852739 45.31668 
L 104.216045 45.58728 
L 104.579351 45.35604 
L 104.942658 45.40032 
L 105.305964 45.11496 
L 105.669271 44.42124 
L 106.395884 44.18508 
L 107.122497 43.24044 
L 107.485803 43.8702 
L 107.849109 43.60944 
L 108.212416 43.92924 
L 108.575722 43.93416 
L 108.939029 43.46184 
L 109.302335 43.5012 
L 109.665642 42.72384 
L 110.028948 42.51228 
L 110.392254 43.08792 
L 110.755561 42.75828 
L 111.118867 42.90096 
L 111.84548 44.2392 
L 112.208787 45.23304 
L 112.572093 44.77548 
L 113.298706 45.04608 
L 113.662012 45.07068 
L 114.025319 46.1334 
L 114.388625 45.4446 
L 114.751932 45.06084 
L 115.115238 45.33144 
L 115.478545 46.30068 
L 115.841851 46.34496 
L 116.205158 47.89476 
L 116.568464 48.26376 
L 116.93177 47.96364 
L 117.890319 50.04972 
L 118.25207 49.24776 
L 119.711922 49.59708 
L 120.073921 49.80372 
L 120.437118 49.86768 
L 121.140192 49.24776 
L 121.526802 49.48392 
L 121.844472 49.37568 
L 122.252839 49.479 
L 122.615704 49.7004 
L 123.70543 49.49376 
L 124.069829 49.98576 
L 124.402444 49.96608 
L 124.795135 49.7004 
L 125.156822 49.27236 
L 125.519439 49.37076 
L 125.878465 49.68072 
L 126.250025 49.25268 
L 126.609581 49.51344 
L 127.699093 49.09032 
L 129.153975 49.58724 
L 129.514948 49.36092 
L 130.242847 49.45932 
L 130.605452 49.16904 
L 131.338532 49.27236 
L 131.702864 48.87384 
L 132.42589 48.70164 
L 132.789298 49.03128 
L 133.149068 49.1592 
L 133.510246 49.08048 
L 134.243146 49.36584 
L 134.993453 48.90828 
L 135.33412 49.05096 
L 136.057718 49.64628 
L 137.517756 49.59708 
L 137.876277 49.8726 
L 138.24 49.88244 
L 138.24 49.88244 
" clip-path="url(#p461d3c7d02)" style="fill: none; stroke: #bebebe; stroke-width: 0.6; stroke-linecap: round"/>
   </g>
   <g id="line2d_6">
    <path d="M 5.76 45.6168 
L 6.123306 45.45936 
L 6.849919 45.5184 
L 7.213226 47.18136 
L 7.576532 47.3142 
L 7.939839 47.90952 
L 8.303145 46.56144 
L 8.666452 47.54052 
L 9.029758 47.23056 
L 9.393064 46.67952 
L 9.756371 47.03376 
L 10.119677 46.85172 
L 10.482984 47.08788 
L 10.84629 47.16168 
L 11.572903 47.07804 
L 11.936209 46.896 
L 12.299516 47.10756 
L 12.662822 47.16168 
L 13.026129 45.87264 
L 13.389435 45.63156 
L 13.752742 45.80376 
L 14.479355 45.43968 
L 14.842661 45.63156 
L 15.569274 45.61188 
L 15.93258 45.63156 
L 16.295887 45.31176 
L 17.0225 45.3462 
L 17.385806 45.52824 
L 18.112419 45.47412 
L 18.475725 45.51348 
L 18.839032 42.77796 
L 19.202338 41.75952 
L 19.565645 40.04244 
L 19.928951 40.58364 
L 20.292258 40.69188 
L 20.655564 39.38808 
L 21.382177 40.33764 
L 21.745483 40.32288 
L 22.10879 40.81488 
L 22.472096 40.88376 
L 22.835403 40.44588 
L 23.198709 40.46556 
L 23.562016 40.21956 
L 23.925322 39.52584 
L 24.288628 40.49508 
L 25.378548 40.19496 
L 25.741854 39.4914 
L 26.105161 39.38808 
L 26.468467 39.69312 
L 26.831773 40.46556 
L 27.558386 40.36716 
L 27.921693 39.8604 
L 28.284999 39.96372 
L 28.648306 39.85548 
L 29.011612 41.1888 
L 29.738225 40.4508 
L 30.101531 40.5738 
L 30.828144 38.45328 
L 31.191451 38.68452 
L 31.554757 39.55536 
L 31.918064 40.09164 
L 32.28137 40.39668 
L 33.007983 40.2048 
L 33.371289 40.52952 
L 34.097902 40.48032 
L 34.824515 42.26136 
L 35.187822 42.5664 
L 35.551128 41.17404 
L 35.914434 41.0166 
L 36.277741 41.22324 
L 37.004354 41.17896 
L 37.36766 41.08056 
L 37.730967 40.61808 
L 38.094273 40.7214 
L 38.45758 41.30688 
L 38.820886 40.11132 
L 39.184192 39.99816 
L 39.547499 40.56888 
L 39.910805 40.51476 
L 40.274112 40.131 
L 40.637418 40.3278 
L 41.000725 39.81612 
L 41.727337 37.46436 
L 42.090644 37.39056 
L 42.45395 37.50372 
L 43.180563 37.01172 
L 43.54387 36.16056 
L 43.907176 34.4976 
L 44.270483 33.69072 
L 44.997095 32.89368 
L 45.360402 31.73256 
L 45.723708 31.68336 
L 46.087015 31.8162 
L 46.450321 32.64276 
L 46.813628 32.0868 
L 47.540241 31.85064 
L 47.903547 30.98964 
L 48.266853 31.53576 
L 48.63016 31.521 
L 48.993466 31.38816 
L 49.356773 32.17044 
L 49.720079 33.68088 
L 50.083386 34.28604 
L 50.446692 33.58248 
L 50.809998 32.0376 
L 51.173305 32.76576 
L 51.536611 32.259 
L 51.899918 30.65508 
L 52.263224 29.93676 
L 52.626531 28.14588 
L 53.353144 28.40664 
L 53.71645 25.73508 
L 54.079756 24.62316 
L 54.443063 26.10408 
L 54.806369 26.97984 
L 55.169676 27.00936 
L 55.532982 26.58132 
L 55.896289 27.7818 
L 56.259595 29.49888 
L 56.622901 27.68832 
L 56.986208 28.44108 
L 57.349514 24.16068 
L 57.712821 24.55428 
L 58.076127 24.51984 
L 58.439434 27.32916 
L 58.80274 25.7646 
L 59.166047 26.48784 
L 59.529353 26.43372 
L 59.892659 27.44724 
L 60.619272 27.27504 
L 60.982579 27.8802 
L 61.345885 27.72276 
L 61.709192 26.84208 
L 62.072498 27.91956 
L 62.435805 27.8556 
L 62.799111 28.09668 
L 63.162417 27.87528 
L 63.88903 27.83592 
L 64.252337 27.57024 
L 64.615643 26.77812 
L 64.97895 25.01184 
L 65.705562 25.71048 
L 66.068869 26.31564 
L 66.432175 26.45832 
L 66.795482 25.8384 
L 67.158788 25.84824 
L 67.522095 26.6994 
L 67.885401 26.62068 
L 68.248708 26.8224 
L 68.612014 28.61328 
L 69.338627 28.97244 
L 69.701933 30.99456 
L 70.06524 29.76456 
L 70.428546 29.8974 
L 70.791853 29.02164 
L 71.155159 28.50012 
L 71.518465 29.00688 
L 72.245078 26.601 
L 72.608385 26.3796 
L 72.971691 26.5764 
L 73.334998 26.3796 
L 73.698304 25.1496 
L 74.061611 26.81256 
L 74.424917 26.29596 
L 74.788223 27.41772 
L 75.15153 31.19136 
L 75.514836 31.80144 
L 75.878143 28.89864 
L 76.241449 28.28364 
L 77.331369 30.80268 
L 77.694675 31.22088 
L 78.057981 30.8076 
L 78.421288 30.13356 
L 78.784594 30.17784 
L 79.511207 31.42752 
L 79.874514 31.04376 
L 80.23782 30.49764 
L 80.601126 30.3648 
L 80.964433 28.88388 
L 81.327739 29.15448 
L 81.691046 30.15324 
L 82.417659 31.4226 
L 83.144272 30.9306 
L 83.507578 30.66 
L 84.234191 34.99944 
L 84.597497 34.07448 
L 84.960804 34.9158 
L 85.32411 34.02528 
L 85.687417 34.26144 
L 86.050723 33.0216 
L 86.414029 33.10524 
L 86.777336 34.1532 
L 87.140642 34.2024 
L 87.867255 36.34752 
L 88.230562 35.89488 
L 88.957175 36.94776 
L 89.320481 36.2688 
L 89.683787 36.97236 
L 90.047094 38.286 
L 90.4104 38.76324 
L 90.773707 38.73864 
L 91.137013 38.51724 
L 91.50032 37.42992 
L 91.863626 37.42008 
L 92.226933 36.90348 
L 92.590239 36.98712 
L 92.953545 36.86412 
L 93.316852 37.16424 
L 93.680158 37.14948 
L 94.043465 38.52216 
L 94.770078 35.71776 
L 95.133384 36.15564 
L 95.49669 36.93792 
L 96.223303 36.72636 
L 96.58661 36.21468 
L 96.949916 34.8174 
L 97.313223 34.7928 
L 97.676529 35.42748 
L 98.039836 36.49512 
L 98.403142 36.28356 
L 98.766448 36.6378 
L 99.129755 37.3512 
L 99.493061 37.3512 
L 99.856368 38.31552 
L 100.219674 38.32536 
L 100.582981 37.26264 
L 100.946287 37.26264 
L 101.309593 37.09044 
L 101.6729 37.06092 
L 102.036206 37.34628 
L 102.399513 37.48404 
L 102.762819 37.77924 
L 103.489432 37.45944 
L 104.216045 37.56276 
L 104.579351 37.31184 
L 104.942658 37.33644 
L 105.305964 37.09536 
L 105.669271 36.23928 
L 106.395884 36.11628 
L 107.122497 35.0142 
L 107.485803 35.93424 
L 107.849109 36.36228 
L 108.212416 36.50988 
L 108.575722 36.5148 
L 108.939029 36.25404 
L 109.302335 36.46068 
L 109.665642 34.83708 
L 110.028948 34.57632 
L 110.755561 35.00436 
L 111.118867 34.93056 
L 111.482174 35.088 
L 111.84548 35.78664 
L 112.208787 37.55292 
L 112.572093 37.26756 
L 112.9354 37.46436 
L 113.662012 37.45944 
L 114.025319 38.41392 
L 114.751932 36.95268 
L 115.115238 37.05108 
L 115.478545 38.37948 
L 115.841851 39.20604 
L 116.205158 41.03136 
L 116.568464 42.26628 
L 116.93177 41.73492 
L 117.238483 42.23676 
L 117.890319 44.89356 
L 118.25207 43.6242 
L 118.983989 43.53072 
L 119.349369 43.72752 
L 120.073921 44.436 
L 120.437118 44.49012 
L 120.796056 43.81608 
L 121.140192 43.7226 
L 121.526802 44.5344 
L 121.844472 44.19 
L 122.252839 44.21952 
L 122.976887 44.51472 
L 123.70543 44.3868 
L 124.069829 45.174 
L 124.402444 45.23796 
L 124.795135 44.81484 
L 125.156822 43.821 
L 125.519439 44.01288 
L 125.878465 44.66232 
L 126.250025 43.93908 
L 126.609581 44.39664 
L 126.973733 44.12112 
L 127.335004 44.33268 
L 127.699093 43.3044 
L 128.062227 43.6242 
L 128.422745 44.29824 
L 128.78958 44.53932 
L 129.153975 44.30808 
L 129.514948 43.8702 
L 129.878111 44.00304 
L 130.242847 43.97844 
L 130.605452 43.41756 
L 131.338532 43.48644 
L 132.059813 41.73984 
L 132.42589 41.7546 
L 133.149068 43.14204 
L 133.510246 43.083 
L 133.878986 43.35852 
L 134.243146 43.78164 
L 134.603088 43.21584 
L 134.993453 42.9354 
L 135.33412 43.10268 
L 136.057718 44.25396 
L 137.151334 43.74228 
L 137.517756 43.46676 
L 138.24 43.79148 
L 138.24 43.79148 
" clip-path="url(#p461d3c7d02)" style="fill: none; stroke: #4a8dff; stroke-width: 0.6; stroke-linecap: round"/>
   </g>
   <g id="line2d_7">
    <path d="M 5.76 44.79024 
L 6.486613 44.13588 
L 6.849919 44.2638 
L 7.213226 46.9206 
L 7.576532 46.44336 
L 7.939839 47.85048 
L 8.303145 44.74596 
L 8.666452 46.23672 
L 9.029758 44.34252 
L 9.393064 43.41756 
L 9.756371 44.25888 
L 10.119677 43.80624 
L 10.482984 44.23428 
L 10.84629 44.01288 
L 11.209597 43.60452 
L 11.572903 43.85052 
L 11.936209 43.50612 
L 12.299516 43.53072 
L 12.662822 42.35976 
L 13.026129 39.33396 
L 13.389435 39.3192 
L 13.752742 39.18636 
L 14.116048 38.74356 
L 14.479355 38.80752 
L 14.842661 39.2208 
L 15.205967 38.61564 
L 15.569274 38.9994 
L 15.93258 39.00924 
L 16.295887 37.92684 
L 16.659193 37.71528 
L 17.0225 38.17284 
L 17.385806 38.96496 
L 17.749112 38.74848 
L 18.112419 37.71528 
L 18.475725 37.63164 
L 18.839032 34.64028 
L 19.202338 34.69932 
L 19.565645 33.87276 
L 19.928951 34.18764 
L 20.292258 34.73868 
L 20.655564 34.09416 
L 21.01887 34.38444 
L 21.382177 34.33032 
L 22.10879 34.57632 
L 22.472096 33.18396 
L 22.835403 33.38076 
L 23.198709 32.81004 
L 23.562016 31.38816 
L 23.925322 30.45336 
L 24.288628 32.59848 
L 24.651935 32.29344 
L 25.015241 31.78176 
L 25.378548 31.53084 
L 25.741854 31.68336 
L 26.105161 32.28852 
L 26.831773 34.1778 
L 27.19508 33.84324 
L 27.558386 33.3414 
L 27.921693 33.25284 
L 28.648306 33.7842 
L 29.011612 35.34384 
L 29.374919 33.981 
L 29.738225 33.35616 
L 30.101531 33.35124 
L 30.464838 31.09296 
L 30.828144 31.11756 
L 31.191451 31.87524 
L 31.554757 33.20856 
L 31.918064 33.17412 
L 32.28137 33.45456 
L 32.644676 33.4152 
L 33.007983 32.7264 
L 33.371289 33.84816 
L 34.097902 33.84324 
L 35.187822 35.73744 
L 35.551128 33.4398 
L 35.914434 33.20856 
L 36.277741 32.58372 
L 36.641047 32.71164 
L 37.36766 32.53944 
L 37.730967 32.013 
L 38.45758 33.3906 
L 38.820886 31.80144 
L 39.184192 31.41768 
L 39.547499 32.19012 
L 39.910805 32.10156 
L 40.274112 31.60956 
L 40.637418 32.0622 
L 41.000725 31.73748 
L 41.364031 30.56652 
L 41.727337 28.31808 
L 42.090644 27.48168 
L 42.45395 27.55548 
L 42.817257 26.71908 
L 43.180563 26.36484 
L 43.54387 27.42756 
L 44.270483 26.55672 
L 44.633789 27.27504 
L 44.997095 27.31932 
L 45.360402 27.63912 
L 45.723708 27.52596 
L 46.087015 26.3058 
L 46.450321 26.96016 
L 46.813628 27.09792 
L 47.176934 27.49644 
L 47.540241 27.2898 
L 47.903547 26.57148 
L 48.266853 27.27012 
L 48.993466 27.35376 
L 49.720079 29.62188 
L 50.083386 29.96136 
L 50.446692 29.14956 
L 50.809998 28.68216 
L 51.173305 29.184 
L 51.536611 28.7412 
L 51.899918 27.5358 
L 52.263224 27.91956 
L 52.626531 28.00812 
L 52.989837 26.64528 
L 53.353144 26.88636 
L 53.71645 26.1828 
L 54.079756 24.52476 
L 54.443063 27.0684 
L 54.806369 27.59484 
L 55.532982 27.49644 
L 55.896289 28.13112 
L 56.259595 29.8482 
L 56.622901 29.12004 
L 56.986208 30.03024 
L 57.349514 27.84576 
L 58.076127 29.54316 
L 58.439434 31.13232 
L 58.80274 30.31068 
L 59.166047 30.62064 
L 59.529353 29.97612 
L 59.892659 31.97364 
L 60.255966 31.82112 
L 60.619272 32.0868 
L 60.982579 31.63416 
L 61.345885 30.6354 
L 61.709192 30.37464 
L 62.072498 30.86172 
L 62.435805 30.89616 
L 62.799111 31.11756 
L 63.525724 30.22212 
L 63.88903 30.45828 
L 64.252337 29.2578 
L 64.615643 28.50504 
L 64.97895 28.18032 
L 65.342256 28.2738 
L 65.705562 28.569 
L 66.068869 28.55424 
L 66.432175 27.8802 
L 66.795482 28.03272 
L 67.158788 27.69324 
L 67.522095 28.42632 
L 67.885401 28.3968 
L 68.248708 28.60344 
L 68.612014 29.88756 
L 68.97532 30.22212 
L 69.338627 29.58252 
L 69.701933 31.73256 
L 70.06524 31.36356 
L 70.428546 31.39308 
L 71.155159 29.09544 
L 71.518465 29.2332 
L 71.881772 27.02412 
L 72.608385 25.16928 
L 72.971691 25.10532 
L 73.698304 23.92452 
L 74.061611 25.53336 
L 74.424917 24.62808 
L 74.788223 25.4448 
L 75.15153 29.64156 
L 75.514836 30.80268 
L 75.878143 28.65756 
L 76.241449 28.6428 
L 76.968062 30.87156 
L 77.331369 32.17044 
L 77.694675 32.97732 
L 78.057981 32.628 
L 78.421288 31.90476 
L 78.784594 30.92076 
L 79.147901 31.96872 
L 79.511207 32.39676 
L 79.874514 31.19628 
L 80.601126 30.42384 
L 80.964433 29.0118 
L 81.327739 29.15448 
L 81.691046 29.76456 
L 82.054352 31.2012 
L 82.417659 32.09172 
L 82.780965 31.43244 
L 83.507578 30.90108 
L 84.234191 35.35368 
L 84.597497 34.24668 
L 84.960804 35.5062 
L 85.32411 34.48284 
L 85.687417 35.02896 
L 86.050723 33.8334 
L 86.414029 33.243 
L 86.777336 34.69932 
L 87.503949 36.2934 
L 87.867255 38.901 
L 88.230562 38.37948 
L 88.593868 38.92068 
L 88.957175 40.09164 
L 89.320481 39.70788 
L 89.683787 40.4262 
L 90.047094 42.75336 
L 90.4104 43.54548 
L 90.773707 43.72752 
L 91.50032 41.976 
L 91.863626 42.42864 
L 92.226933 40.86408 
L 92.590239 40.47048 
L 93.680158 40.89852 
L 94.043465 42.9354 
L 94.406771 40.43604 
L 94.770078 39.31428 
L 95.133384 40.04244 
L 95.49669 41.43972 
L 95.859997 41.47416 
L 96.223303 41.02152 
L 96.58661 40.7952 
L 96.949916 39.75708 
L 97.313223 40.11132 
L 97.676529 39.87024 
L 98.039836 40.94772 
L 98.403142 40.97232 
L 99.129755 42.87144 
L 99.493061 42.17772 
L 99.856368 43.04364 
L 100.219674 43.34868 
L 100.582981 42.03504 
L 101.309593 41.8038 
L 101.6729 41.84316 
L 102.036206 42.37944 
L 102.399513 42.26628 
L 102.762819 42.468 
L 103.126126 42.42864 
L 103.489432 42.18264 
L 103.852739 42.1728 
L 104.216045 42.50244 
L 104.579351 41.88252 
L 104.942658 42.32532 
L 105.669271 41.13468 
L 106.395884 40.42128 
L 106.75919 39.16176 
L 107.122497 39.28968 
L 107.485803 40.48032 
L 108.575722 40.88376 
L 109.302335 40.53936 
L 109.665642 38.50248 
L 110.028948 37.63656 
L 110.392254 38.34012 
L 110.755561 38.37456 
L 111.118867 38.5812 
L 111.84548 39.8358 
L 112.208787 41.93172 
L 112.572093 41.42004 
L 113.298706 41.39052 
L 113.662012 41.5086 
L 114.025319 42.80256 
L 114.388625 41.93664 
L 114.751932 41.49384 
L 115.115238 41.51352 
L 115.478545 43.78164 
L 115.841851 43.9932 
L 116.205158 46.66968 
L 116.568464 47.55036 
L 116.93177 46.64508 
L 117.527198 48.89352 
L 117.890319 49.84308 
L 118.25207 49.00176 
L 118.623681 49.233 
L 118.983989 48.97716 
L 119.711922 49.36092 
L 120.437118 49.58724 
L 120.796056 49.28712 
L 121.140192 49.16904 
L 121.526802 49.39044 
L 121.844472 49.29696 
L 122.615704 49.55772 
L 123.70543 49.41996 
L 124.069829 49.8234 
L 124.402444 49.86768 
L 124.795135 49.72992 
L 125.156822 49.39536 
L 125.878465 49.6758 
L 126.250025 49.47408 
L 126.609581 49.60692 
L 126.973733 49.37568 
L 127.335004 49.36584 
L 127.699093 48.6672 
L 128.78958 49.54788 
L 129.153975 49.5282 
L 129.514948 49.09032 
L 130.242847 49.2084 
L 130.605452 48.93288 
L 131.338532 48.89844 
L 132.059813 48.1998 
L 132.42589 48.28344 
L 132.789298 48.88368 
L 133.149068 49.04604 
L 133.510246 49.00176 
L 134.243146 49.38552 
L 134.603088 49.04112 
L 134.993453 48.92796 
L 135.33412 48.987 
L 136.057718 49.66104 
L 137.517756 49.40028 
L 137.876277 49.56756 
L 138.24 49.59708 
L 138.24 49.59708 
" clip-path="url(#p461d3c7d02)" style="fill: none; stroke: #f5841e; stroke-width: 0.7; stroke-linecap: round"/>
   </g>
  </g>
 </g>
 <defs>
  <clipPath id="p461d3c7d02">
   <rect x="5.76" y="3.6" width="132.48" height="49.2"/>
  </clipPath>
 </defs>
</svg>
