<?xml version="1.0" encoding="utf-8" standalone="no"?>
<!DOCTYPE svg PUBLIC "-//W3C//DTD SVG 1.1//EN"
  "http://www.w3.org/Graphics/SVG/1.1/DTD/svg11.dtd">
<svg xmlns:xlink="http://www.w3.org/1999/xlink" width="144pt" height="60pt" viewBox="0 0 144 60" xmlns="http://www.w3.org/2000/svg" version="1.1">
  <desc id="nav-meta">{"window":"3m","count":4,"labels":["19.04","19.05","17.06","17.07"],"tick_utc":["2026-04-19T03:58:52Z","2026-05-19T04:46:06Z","2026-06-17T05:30:00Z","2026-07-17T03:51:40Z"]}</desc>

 <metadata>
  <rdf:RDF xmlns:dc="http://purl.org/dc/elements/1.1/" xmlns:cc="http://creativecommons.org/ns#" xmlns:rdf="http://www.w3.org/1999/02/22-rdf-syntax-ns#">
   <cc:Work>
    <dc:type rdf:resource="http://purl.org/dc/dcmitype/StillImage"/>
    <dc:date>2026-07-17T08:55:31.790017</dc:date>
    <dc:format>image/svg+xml</dc:format>
    <dc:creator>
     <cc:Agent>
      <dc:title>Matplotlib v3.11.0, https://matplotlib.org/</dc:title>
     </cc:Agent>
    </dc:creator>
   </cc:Work>
  </rdf:RDF>
 </metadata>
 <defs>
  <style type="text/css">*{stroke-linejoin: round; stroke-linecap: butt}</style>
 </defs>
 <g id="figure_1">
  <g id="patch_1">
   <path d="M 0 60 
L 144 60 
L 144 0 
L 0 0 
L 0 60 
z
" style="fill: none; opacity: 0"/>
  </g>
  <g id="axes_1">
   <g id="patch_2">
    <path d="M 5.76 52.8 
L 138.24 52.8 
L 138.24 3.6 
L 5.76 3.6 
L 5.76 52.8 
z
" style="fill: none"/>
   </g>
   <g id="matplotlib.axis_1"/>
   <g id="matplotlib.axis_2"/>
   <g id="line2d_1">
    <path d="M 5.76 42.96 
L 138.24 42.96 
" clip-path="url(#pbf3658e8c5)" style="fill: none; stroke: #b2b2b2; stroke-opacity: 0.35; stroke-width: 0.5; stroke-linecap: square"/>
   </g>
   <g id="line2d_2">
    <path d="M 5.76 33.12 
L 138.24 33.12 
" clip-path="url(#pbf3658e8c5)" style="fill: none; stroke: #b2b2b2; stroke-opacity: 0.35; stroke-width: 0.5; stroke-linecap: square"/>
   </g>
   <g id="line2d_3">
    <path d="M 5.76 23.28 
L 138.24 23.28 
" clip-path="url(#pbf3658e8c5)" style="fill: none; stroke: #b2b2b2; stroke-opacity: 0.35; stroke-width: 0.5; stroke-linecap: square"/>
   </g>
   <g id="line2d_4">
    <path d="M 5.76 13.44 
L 138.24 13.44 
" clip-path="url(#pbf3658e8c5)" style="fill: none; stroke: #b2b2b2; stroke-opacity: 0.35; stroke-width: 0.5; stroke-linecap: square"/>
   </g>
   <g id="line2d_5">
    <path d="M 5.76 49.43472 
L 7.25231 49.50852 
L 8.734403 49.46424 
L 10.218409 49.31664 
L 11.713062 49.4298 
L 13.20563 49.42488 
L 14.67649 49.37568 
L 16.188269 49.4052 
L 17.692933 49.29204 
L 19.184674 49.5528 
L 20.669231 49.50852 
L 22.160352 49.64136 
L 23.66524 49.56756 
L 25.115872 49.56264 
L 26.634715 49.57248 
L 28.122821 49.42488 
L 29.578656 49.49376 
L 31.093503 49.32156 
L 32.582522 49.25268 
L 34.046369 49.24284 
L 35.540436 48.80004 
L 37.059056 48.85416 
L 38.559429 48.72132 
L 40.027377 48.63276 
L 41.523081 48.66228 
L 43.01005 49.09524 
L 44.506013 48.99192 
L 45.975632 49.19364 
L 47.486481 49.34616 
L 48.989559 49.47408 
L 50.467517 49.47408 
L 51.961464 49.54788 
L 53.458564 49.3314 
L 54.935781 49.34616 
L 56.403952 49.51836 
L 57.916145 49.41996 
L 59.424358 49.41504 
L 60.890428 49.5282 
L 62.394333 49.5774 
L 63.878201 49.7742 
L 65.367926 49.7004 
L 66.835081 49.69548 
L 68.354097 49.61676 
L 69.864739 49.71024 
L 71.338717 49.7988 
L 72.844087 50.19732 
L 74.32761 50.45808 
L 75.791716 50.59092 
L 77.257458 50.99928 
L 78.778076 50.82216 
L 80.273281 50.74344 
L 81.733492 50.62536 
L 83.237553 50.80248 
L 84.734911 50.76312 
L 86.229375 50.65488 
L 87.707109 50.6598 
L 89.206534 50.56632 
L 90.74464 50.39412 
L 92.241757 50.23176 
L 93.682965 50.2416 
L 95.164455 50.4138 
L 96.68814 50.55156 
L 98.117235 50.42364 
L 99.636837 50.27112 
L 101.169033 50.217 
L 102.568666 50.35968 
L 104.062613 50.49252 
L 105.550839 50.59092 
L 107.047095 50.59092 
L 108.517472 50.33016 
L 110.034472 50.4384 
L 111.533863 50.3892 
L 112.993627 50.22192 
L 114.504028 50.13336 
L 115.966582 49.95132 
L 117.43901 49.78896 
L 118.921223 49.6266 
L 120.431641 49.7742 
L 121.934685 49.7742 
L 123.400979 49.76436 
L 124.849147 49.91688 
L 126.382894 49.98084 
L 127.868157 49.8972 
L 129.312828 49.971 
L 130.823711 50.03004 
L 132.315591 50.08908 
L 133.769789 50.15796 
L 135.258791 49.98084 
L 136.751136 50.03988 
L 138.24 50.1432 
" clip-path="url(#pbf3658e8c5)" style="fill: none; stroke: #bebebe; stroke-width: 0.6; stroke-linecap: round"/>
   </g>
   <g id="line2d_6">
    <path d="M 5.76 41.76936 
L 7.25231 42.1482 
L 8.734403 41.96616 
L 10.218409 41.59224 
L 11.713062 41.76936 
L 13.20563 41.99076 
L 14.67649 41.91696 
L 16.188269 41.98584 
L 17.692933 41.41512 
L 19.184674 42.15312 
L 20.669231 41.96124 
L 22.160352 42.43848 
L 23.66524 42.20232 
L 25.115872 42.02028 
L 26.634715 42.0252 
L 28.122821 41.40528 
L 29.578656 41.46432 
L 31.093503 41.52336 
L 32.582522 41.86776 
L 34.046369 42.1974 
L 35.540436 41.8776 
L 37.059056 41.84316 
L 38.559429 41.8038 
L 40.027377 41.976 
L 41.523081 42.00552 
L 43.01005 42.3942 
L 44.506013 42.27612 
L 45.975632 42.57624 
L 47.486481 42.85176 
L 48.989559 43.31424 
L 50.467517 43.2306 
L 51.961464 43.39296 
L 53.458564 43.16172 
L 54.935781 43.24536 
L 56.403952 43.71768 
L 57.916145 43.33392 
L 59.424358 43.42248 
L 60.890428 43.51596 
L 62.394333 43.67832 
L 63.878201 44.32776 
L 65.367926 44.13588 
L 66.835081 44.16048 
L 68.354097 43.96368 
L 69.864739 44.2392 
L 71.338717 44.19984 
L 72.844087 45.16908 
L 74.32761 45.67584 
L 75.791716 46.00548 
L 77.257458 47.57004 
L 78.778076 47.04852 
L 80.273281 46.64016 
L 81.733492 46.34496 
L 83.237553 46.82712 
L 84.734911 46.65492 
L 86.229375 46.51716 
L 87.707109 46.5516 
L 89.206534 46.46304 
L 90.74464 46.14816 
L 92.241757 45.84312 
L 93.682965 45.6414 
L 95.164455 46.09404 
L 96.68814 46.3302 
L 98.117235 46.21704 
L 99.636837 46.06452 
L 101.169033 46.035 
L 102.568666 46.14324 
L 104.062613 46.52208 
L 105.550839 46.83204 
L 107.047095 47.38308 
L 108.517472 47.14692 
L 110.034472 47.22564 
L 111.533863 47.22072 
L 112.993627 47.10264 
L 114.504028 47.0436 
L 115.966582 46.79268 
L 117.43901 46.27608 
L 118.921223 45.92184 
L 120.431641 45.80376 
L 121.934685 45.75456 
L 123.400979 45.81852 
L 124.849147 45.94152 
L 126.382894 46.02024 
L 127.868157 45.77424 
L 129.312828 45.61188 
L 130.823711 45.51348 
L 132.315591 45.72504 
L 133.769789 45.72996 
L 135.258791 45.08052 
L 136.751136 44.76564 
L 138.24 45.23796 
" clip-path="url(#pbf3658e8c5)" style="fill: none; stroke: #4a8dff; stroke-width: 0.6; stroke-linecap: round"/>
   </g>
   <g id="line2d_7">
    <path d="M 5.76 48.05712 
L 7.25231 48.26376 
L 8.734403 48.01776 
L 10.218409 47.23548 
L 11.713062 47.17644 
L 13.20563 47.15676 
L 14.67649 47.1666 
L 16.188269 47.31912 
L 17.692933 46.49256 
L 19.184674 47.64876 
L 20.669231 47.5356 
L 22.160352 48.0276 
L 23.66524 47.50608 
L 25.115872 46.81728 
L 26.634715 46.92552 
L 28.122821 45.85788 
L 29.578656 45.60204 
L 31.093503 45.29208 
L 32.582522 45.58728 
L 34.046369 46.2564 
L 35.540436 45.7152 
L 37.059056 45.63648 
L 38.559429 45.6414 
L 40.027377 45.45936 
L 41.523081 45.42492 
L 43.01005 46.38432 
L 44.506013 45.57744 
L 45.975632 46.51716 
L 47.486481 46.95996 
L 48.989559 47.54544 
L 50.467517 47.59464 
L 51.961464 47.66844 
L 53.458564 47.05344 
L 54.935781 47.22564 
L 56.403952 48.07188 
L 57.916145 47.6832 
L 59.424358 47.37324 
L 60.890428 47.66844 
L 62.394333 48.07188 
L 63.878201 48.59832 
L 65.367926 48.52452 
L 66.835081 48.5688 
L 68.354097 48.38676 
L 69.864739 48.55404 
L 71.338717 49.0116 
L 72.844087 49.57248 
L 74.32761 49.93656 
L 75.791716 49.98084 
L 77.257458 50.3646 
L 78.778076 50.15796 
L 80.273281 50.07432 
L 81.733492 49.99068 
L 83.237553 50.217 
L 84.734911 50.07924 
L 86.229375 49.98084 
L 87.707109 49.971 
L 89.206534 49.87752 
L 90.74464 49.69548 
L 92.241757 49.65612 
L 93.682965 49.7004 
L 95.164455 49.92672 
L 96.68814 50.06448 
L 98.117235 49.971 
L 99.636837 49.89228 
L 101.169033 49.89228 
L 102.568666 49.9464 
L 104.062613 50.05956 
L 105.550839 50.2416 
L 107.047095 50.35968 
L 108.517472 50.31048 
L 110.034472 50.34492 
L 111.533863 50.38428 
L 112.993627 50.39412 
L 114.504028 50.41872 
L 115.966582 50.27112 
L 117.43901 50.20224 
L 118.921223 50.0694 
L 120.431641 50.03988 
L 121.934685 50.00052 
L 123.400979 50.00544 
L 124.849147 50.05956 
L 126.382894 50.11368 
L 127.868157 49.91196 
L 129.312828 49.90212 
L 130.823711 49.8972 
L 132.315591 50.0448 
L 133.769789 50.08908 
L 135.258791 49.84308 
L 136.751136 49.85292 
L 138.24 49.97592 
" clip-path="url(#pbf3658e8c5)" style="fill: none; stroke: #f5841e; stroke-width: 0.7; stroke-linecap: round"/>
   </g>
  </g>
 </g>
 <defs>
  <clipPath id="pbf3658e8c5">
   <rect x="5.76" y="3.6" width="132.48" height="49.2"/>
  </clipPath>
 </defs>
</svg>
