<?xml version="1.0" encoding="utf-8" standalone="no"?>
<!DOCTYPE svg PUBLIC "-//W3C//DTD SVG 1.1//EN"
  "http://www.w3.org/Graphics/SVG/1.1/DTD/svg11.dtd">
<svg xmlns:xlink="http://www.w3.org/1999/xlink" width="144pt" height="60pt" viewBox="0 0 144 60" xmlns="http://www.w3.org/2000/svg" version="1.1">
  <desc id="nav-meta">{"window":"1w","count":4,"labels":["28.01","31.01","02.02","03.02"],"idxs":[0,3,5,8]}</desc>

 <metadata>
  <rdf:RDF xmlns:dc="http://purl.org/dc/elements/1.1/" xmlns:cc="http://creativecommons.org/ns#" xmlns:rdf="http://www.w3.org/1999/02/22-rdf-syntax-ns#">
   <cc:Work>
    <dc:type rdf:resource="http://purl.org/dc/dcmitype/StillImage"/>
    <dc:date>2026-02-03T17:24:34.020558</dc:date>
    <dc:format>image/svg+xml</dc:format>
    <dc:creator>
     <cc:Agent>
      <dc:title>Matplotlib v3.10.8, https://matplotlib.org/</dc:title>
     </cc:Agent>
    </dc:creator>
   </cc:Work>
  </rdf:RDF>
 </metadata>
 <defs>
  <style type="text/css">*{stroke-linejoin: round; stroke-linecap: butt}</style>
 </defs>
 <g id="figure_1">
  <g id="patch_1">
   <path d="M 0 60 
L 144 60 
L 144 0 
L 0 0 
L 0 60 
z
" style="fill: none; opacity: 0"/>
  </g>
  <g id="axes_1">
   <g id="patch_2">
    <path d="M 5.76 52.8 
L 138.24 52.8 
L 138.24 3.6 
L 5.76 3.6 
L 5.76 52.8 
z
" style="fill: none"/>
   </g>
   <g id="matplotlib.axis_1"/>
   <g id="matplotlib.axis_2"/>
   <g id="line2d_1">
    <path d="M 5.76 42.96 
L 138.24 42.96 
" clip-path="url(#paa04c8af51)" style="fill: none; stroke: #b2b2b2; stroke-opacity: 0.35; stroke-width: 0.5; stroke-linecap: square"/>
   </g>
   <g id="line2d_2">
    <path d="M 5.76 33.12 
L 138.24 33.12 
" clip-path="url(#paa04c8af51)" style="fill: none; stroke: #b2b2b2; stroke-opacity: 0.35; stroke-width: 0.5; stroke-linecap: square"/>
   </g>
   <g id="line2d_3">
    <path d="M 5.76 23.28 
L 138.24 23.28 
" clip-path="url(#paa04c8af51)" style="fill: none; stroke: #b2b2b2; stroke-opacity: 0.35; stroke-width: 0.5; stroke-linecap: square"/>
   </g>
   <g id="line2d_4">
    <path d="M 5.76 13.44 
L 138.24 13.44 
" clip-path="url(#paa04c8af51)" style="fill: none; stroke: #b2b2b2; stroke-opacity: 0.35; stroke-width: 0.5; stroke-linecap: square"/>
   </g>
   <g id="line2d_5">
    <path d="M 13.12 45.06084 
L 16.484571 45.122691 
L 19.849143 45.184543 
L 23.213714 45.246394 
L 26.578286 45.308246 
L 29.942857 45.469903 
L 33.307429 45.691443 
L 36.672 45.912984 
L 40.036571 46.134525 
L 43.401143 46.30321 
L 46.765714 46.313331 
L 50.130286 46.323453 
L 53.494857 46.333574 
L 56.859429 46.343695 
L 60.224 46.65492 
L 63.588571 47.00916 
L 66.953143 47.3634 
L 70.317714 47.71764 
L 73.682286 47.936931 
L 77.046857 48.021274 
L 80.411429 48.105617 
L 83.776 48.18996 
L 87.140571 48.255185 
L 90.505143 48.186586 
L 93.869714 48.117987 
L 97.234286 48.049389 
L 100.598857 47.98079 
L 103.963429 48.016776 
L 107.328 48.087624 
L 110.692571 48.158472 
L 114.057143 48.22932 
L 117.421714 48.277395 
L 120.786286 48.287517 
L 124.150857 48.297638 
L 127.515429 48.307759 
L 130.88 48.31788 
" clip-path="url(#paa04c8af51)" style="fill: none; stroke: #bebebe; stroke-width: 0.6; stroke-linecap: round"/>
   </g>
   <g id="line2d_6">
    <path d="M 13.12 36.95268 
L 16.484571 36.975171 
L 19.849143 36.997663 
L 23.213714 37.020154 
L 26.578286 37.042646 
L 29.942857 37.240851 
L 33.307429 37.544486 
L 36.672 37.84812 
L 40.036571 38.151754 
L 43.401143 38.426712 
L 46.765714 38.61564 
L 50.130286 38.804568 
L 53.494857 38.993496 
L 56.859429 39.182424 
L 60.224 39.571104 
L 63.588571 39.98832 
L 66.953143 40.405536 
L 70.317714 40.822752 
L 73.682286 41.172494 
L 77.046857 41.454761 
L 80.411429 41.737029 
L 83.776 42.019296 
L 87.140571 42.251098 
L 90.505143 42.129645 
L 93.869714 42.008191 
L 97.234286 41.886737 
L 100.598857 41.765283 
L 103.963429 41.859747 
L 107.328 42.026184 
L 110.692571 42.192621 
L 114.057143 42.359057 
L 117.421714 42.469406 
L 120.786286 42.486274 
L 124.150857 42.503143 
L 127.515429 42.520011 
L 130.88 42.53688 
" clip-path="url(#paa04c8af51)" style="fill: none; stroke: #4a8dff; stroke-width: 0.7; stroke-linecap: round"/>
   </g>
   <g id="line2d_7">
    <path d="M 13.12 41.49384 
L 16.484571 41.498338 
L 19.849143 41.502837 
L 23.213714 41.507335 
L 26.578286 41.511833 
L 29.942857 41.837537 
L 33.307429 42.355965 
L 36.672 42.874392 
L 40.036571 43.392819 
L 43.401143 43.793729 
L 46.765714 43.842086 
L 50.130286 43.890442 
L 53.494857 43.938799 
L 56.859429 43.987155 
L 60.224 44.528496 
L 63.588571 45.140263 
L 66.953143 45.75203 
L 70.317714 46.363797 
L 73.682286 46.770329 
L 77.046857 46.971627 
L 80.411429 47.172926 
L 83.776 47.374224 
L 87.140571 47.524495 
L 90.505143 47.317574 
L 93.869714 47.110653 
L 97.234286 46.903731 
L 100.598857 46.69681 
L 103.963429 46.827261 
L 107.328 47.070168 
L 110.692571 47.313075 
L 114.057143 47.555983 
L 117.421714 47.729729 
L 120.786286 47.788207 
L 124.150857 47.846685 
L 127.515429 47.905162 
L 130.88 47.96364 
" clip-path="url(#paa04c8af51)" style="fill: none; stroke: #f5841e; stroke-width: 0.8; stroke-linecap: round"/>
   </g>
  </g>
 </g>
 <defs>
  <clipPath id="paa04c8af51">
   <rect x="5.76" y="3.6" width="132.48" height="49.2"/>
  </clipPath>
 </defs>
</svg>
