<?xml version="1.0" encoding="utf-8" standalone="no"?>
<!DOCTYPE svg PUBLIC "-//W3C//DTD SVG 1.1//EN"
  "http://www.w3.org/Graphics/SVG/1.1/DTD/svg11.dtd">
<svg xmlns:xlink="http://www.w3.org/1999/xlink" width="144pt" height="60pt" viewBox="0 0 144 60" xmlns="http://www.w3.org/2000/svg" version="1.1">
  <desc id="nav-meta">{"window":"1y","count":4,"labels":["23.03","23.07","21.11","23.03"],"tick_utc":["2025-03-23T12:00:00Z","2025-07-23T12:00:00Z","2025-11-21T12:00:00Z","2026-03-23T03:35:18Z"]}</desc>

 <metadata>
  <rdf:RDF xmlns:dc="http://purl.org/dc/elements/1.1/" xmlns:cc="http://creativecommons.org/ns#" xmlns:rdf="http://www.w3.org/1999/02/22-rdf-syntax-ns#">
   <cc:Work>
    <dc:type rdf:resource="http://purl.org/dc/dcmitype/StillImage"/>
    <dc:date>2026-03-23T07:47:05.198036</dc:date>
    <dc:format>image/svg+xml</dc:format>
    <dc:creator>
     <cc:Agent>
      <dc:title>Matplotlib v3.10.8, https://matplotlib.org/</dc:title>
     </cc:Agent>
    </dc:creator>
   </cc:Work>
  </rdf:RDF>
 </metadata>
 <defs>
  <style type="text/css">*{stroke-linejoin: round; stroke-linecap: butt}</style>
 </defs>
 <g id="figure_1">
  <g id="patch_1">
   <path d="M 0 60 
L 144 60 
L 144 0 
L 0 0 
L 0 60 
z
" style="fill: none; opacity: 0"/>
  </g>
  <g id="axes_1">
   <g id="patch_2">
    <path d="M 5.76 52.8 
L 138.24 52.8 
L 138.24 3.6 
L 5.76 3.6 
L 5.76 52.8 
z
" style="fill: none"/>
   </g>
   <g id="matplotlib.axis_1"/>
   <g id="matplotlib.axis_2"/>
   <g id="line2d_1">
    <path d="M 5.76 42.96 
L 138.24 42.96 
" clip-path="url(#pc709be3586)" style="fill: none; stroke: #b2b2b2; stroke-opacity: 0.35; stroke-width: 0.5; stroke-linecap: square"/>
   </g>
   <g id="line2d_2">
    <path d="M 5.76 33.12 
L 138.24 33.12 
" clip-path="url(#pc709be3586)" style="fill: none; stroke: #b2b2b2; stroke-opacity: 0.35; stroke-width: 0.5; stroke-linecap: square"/>
   </g>
   <g id="line2d_3">
    <path d="M 5.76 23.28 
L 138.24 23.28 
" clip-path="url(#pc709be3586)" style="fill: none; stroke: #b2b2b2; stroke-opacity: 0.35; stroke-width: 0.5; stroke-linecap: square"/>
   </g>
   <g id="line2d_4">
    <path d="M 5.76 13.44 
L 138.24 13.44 
" clip-path="url(#pc709be3586)" style="fill: none; stroke: #b2b2b2; stroke-opacity: 0.35; stroke-width: 0.5; stroke-linecap: square"/>
   </g>
   <g id="line2d_5">
    <path d="M 5.76 44.89848 
L 6.123308 44.41632 
L 6.486616 43.30932 
L 6.849923 42.87144 
L 7.213231 43.76196 
L 7.576539 43.59468 
L 7.939847 44.76072 
L 8.303154 45.40524 
L 9.02977 45.35604 
L 9.393078 45.10512 
L 9.756385 46.24164 
L 10.119693 46.3548 
L 10.483001 45.63648 
L 10.846309 45.97104 
L 11.209616 47.84556 
L 11.572924 47.71272 
L 11.936232 47.88 
L 12.29954 46.12848 
L 12.662848 46.91568 
L 13.389463 44.40648 
L 13.752771 44.91816 
L 14.116079 44.76564 
L 14.479386 45.16908 
L 14.842694 44.49504 
L 15.206002 44.08668 
L 15.56931 44.17032 
L 15.932617 43.43232 
L 16.659233 43.86528 
L 17.022541 42.23676 
L 17.749156 41.7792 
L 18.83908 42.31056 
L 19.202387 42.345 
L 19.565695 42.5418 
L 19.929003 42.37944 
L 20.292311 41.98584 
L 20.655618 42.345 
L 21.018926 42.49752 
L 21.382234 42.86652 
L 21.745542 42.49752 
L 22.472157 42.44832 
L 22.835465 40.33272 
L 23.198773 39.12732 
L 23.56208 38.52216 
L 23.925388 39.10272 
L 24.288696 38.901 
L 24.652004 37.6464 
L 25.378619 39.639 
L 26.105235 40.008 
L 26.468543 39.27492 
L 26.83185 39.90468 
L 27.195158 39.6882 
L 27.921774 38.22696 
L 28.285081 38.901 
L 28.648389 38.69436 
L 29.375005 38.86164 
L 29.738313 38.62056 
L 30.464928 39.88992 
L 30.828236 41.23308 
L 31.918159 41.17404 
L 32.644775 41.62176 
L 33.008082 42.79272 
L 33.37139 42.30564 
L 34.098006 41.7546 
L 34.461313 40.62792 
L 34.824621 40.131 
L 35.187929 40.6476 
L 35.551237 41.73492 
L 36.277852 42.76812 
L 36.64116 41.73492 
L 37.004468 41.89728 
L 37.367776 42.345 
L 37.731083 42.5664 
L 38.094391 42.46308 
L 38.821007 44.20476 
L 39.184314 44.45076 
L 39.547622 42.7632 
L 39.91093 42.63036 
L 40.274238 42.94524 
L 40.637545 43.52088 
L 41.000853 43.1076 
L 41.364161 41.98092 
L 42.090777 41.43972 
L 42.454084 42.4926 
L 42.817392 41.79888 
L 43.1807 41.78412 
L 43.544008 42.37452 
L 43.907315 42.3942 
L 44.270623 41.83332 
L 44.633931 42.24168 
L 44.997239 41.84316 
L 45.723854 40.2786 
L 46.087162 40.42128 
L 46.45047 40.71648 
L 47.177085 40.48032 
L 47.540393 40.26384 
L 47.903701 38.97972 
L 48.630316 38.51724 
L 48.993624 38.57628 
L 49.356932 38.04492 
L 49.72024 36.03264 
L 50.083547 34.88136 
L 50.446855 36.92316 
L 50.810163 37.8432 
L 51.173471 37.37088 
L 51.536778 37.53324 
L 51.900086 37.056 
L 52.263394 37.77924 
L 52.626702 38.02032 
L 52.990009 38.45328 
L 53.353317 39.1962 
L 53.716625 40.41636 
L 54.079933 40.97232 
L 54.443241 40.53444 
L 54.806548 39.55536 
L 55.169856 40.24908 
L 55.533164 39.7128 
L 55.896472 38.778 
L 56.259779 38.59104 
L 56.986395 37.794 
L 57.349703 38.82228 
L 57.71301 36.53448 
L 58.076318 35.334 
L 58.802934 37.44468 
L 59.166241 36.90348 
L 59.529549 36.65748 
L 60.256165 38.64516 
L 60.619473 37.2282 
L 60.98278 38.14332 
L 61.346088 35.53572 
L 61.709396 35.04372 
L 62.072704 34.80264 
L 62.436011 37.23804 
L 63.525935 33.67104 
L 63.889242 34.90596 
L 64.979166 35.9736 
L 65.342474 34.36476 
L 65.705781 34.1778 
L 66.069089 35.22084 
L 66.432397 35.11752 
L 66.795705 35.54556 
L 68.248936 32.44104 
L 68.612243 31.83096 
L 68.975551 30.06468 
L 69.338859 30.01056 
L 69.702167 30.291 
L 70.065474 31.16184 
L 70.428782 30.74856 
L 70.79209 29.71536 
L 71.155398 29.37588 
L 71.518706 30.57636 
L 71.882013 30.42876 
L 72.245321 30.79284 
L 72.608629 32.91828 
L 72.971937 33.72024 
L 73.335244 34.05972 
L 73.698552 36.5886 
L 74.06186 34.90104 
L 74.425168 35.10276 
L 74.788475 34.16796 
L 75.151783 33.8826 
L 75.515091 34.43364 
L 76.241706 31.05852 
L 76.605014 31.26024 
L 76.968322 31.92936 
L 77.33163 31.85064 
L 77.694938 31.3242 
L 78.058245 32.84448 
L 78.421553 31.78176 
L 78.784861 32.85924 
L 79.148169 36.8838 
L 79.511476 38.39424 
L 79.874784 35.95392 
L 80.238092 34.53696 
L 80.6014 35.20608 
L 81.328015 37.57752 
L 81.691323 37.90716 
L 82.054631 37.18884 
L 82.417938 37.18392 
L 82.781246 36.89364 
L 83.144554 37.42008 
L 83.507862 38.17284 
L 83.87117 36.687 
L 84.234477 36.42132 
L 84.597785 36.34752 
L 84.961093 35.56032 
L 85.324401 35.72268 
L 85.687708 36.29832 
L 86.051016 36.32292 
L 86.414324 37.61688 
L 86.777632 37.2282 
L 87.140939 37.34628 
L 87.504247 37.23804 
L 87.867555 40.008 
L 88.230863 41.36592 
L 88.59417 40.43604 
L 88.957478 41.44956 
L 89.320786 40.53444 
L 89.684094 41.02152 
L 90.047402 40.22448 
L 90.410709 39.79644 
L 90.774017 41.51844 
L 91.137325 41.66604 
L 91.86394 43.51596 
L 92.227248 43.43724 
L 92.590556 43.71276 
L 92.953864 44.59836 
L 93.317171 43.30932 
L 94.407095 44.88372 
L 94.770402 44.99688 
L 95.13371 44.57868 
L 95.497018 43.5996 
L 95.860326 43.51596 
L 96.223634 43.00428 
L 96.586941 43.2798 
L 96.950249 43.71768 
L 97.676865 44.0916 
L 98.040172 45.11004 
L 98.40348 43.55532 
L 98.766788 42.72876 
L 99.493403 44.27364 
L 100.220019 44.47536 
L 100.583327 44.25888 
L 100.946635 43.64388 
L 101.309942 43.84068 
L 101.67325 43.85052 
L 102.036558 44.36712 
L 102.399866 44.26872 
L 102.763173 44.74104 
L 103.126481 44.98704 
L 103.489789 44.84436 
L 103.853097 45.58728 
L 104.216404 46.0596 
L 104.579712 45.18384 
L 106.032943 45.47904 
L 106.396251 45.65616 
L 106.759559 45.98088 
L 107.486174 45.38556 
L 107.849482 45.31668 
L 108.21279 45.58728 
L 108.576098 45.35604 
L 108.939405 45.40032 
L 109.302713 45.11496 
L 109.666021 44.42124 
L 110.392636 44.18508 
L 111.119252 43.24044 
L 111.48256 43.8702 
L 111.845867 43.60944 
L 112.209175 43.92924 
L 112.572483 43.93416 
L 112.935791 43.46184 
L 113.299099 43.5012 
L 113.662406 42.72384 
L 114.025714 42.51228 
L 114.389022 43.08792 
L 114.75233 42.75828 
L 115.115637 42.90096 
L 115.842253 44.2392 
L 116.205561 45.23304 
L 116.568868 44.77548 
L 117.295484 45.04608 
L 117.658792 45.07068 
L 118.022099 46.1334 
L 118.385407 45.4446 
L 118.748715 45.06084 
L 119.112023 45.33144 
L 119.475331 46.30068 
L 119.838638 46.34496 
L 120.201946 47.89476 
L 120.565254 48.26376 
L 120.928562 47.96364 
L 121.887114 50.04972 
L 122.248866 49.24776 
L 123.708724 49.59708 
L 124.070724 49.80372 
L 124.433922 49.86768 
L 125.136998 49.24776 
L 125.52361 49.48392 
L 125.841282 49.37568 
L 126.24965 49.479 
L 126.612516 49.7004 
L 127.702246 49.49376 
L 128.066647 49.98576 
L 128.399263 49.96608 
L 128.791954 49.7004 
L 129.153643 49.27236 
L 129.516262 49.37076 
L 129.875289 49.68072 
L 130.246851 49.25268 
L 130.606408 49.51344 
L 131.695923 49.09032 
L 133.150811 49.58724 
L 133.511785 49.36092 
L 134.239687 49.45932 
L 134.602293 49.16904 
L 135.335375 49.27236 
L 135.699709 48.87384 
L 136.422738 48.70164 
L 136.786147 49.03128 
L 137.145918 49.1592 
L 137.507098 49.08048 
L 138.24 49.36584 
L 138.24 49.36584 
" clip-path="url(#pc709be3586)" style="fill: none; stroke: #bebebe; stroke-width: 0.6; stroke-linecap: round"/>
   </g>
   <g id="line2d_6">
    <path d="M 5.76 44.31792 
L 6.123308 44.1654 
L 6.486616 43.6242 
L 6.849923 43.68816 
L 7.213231 44.10144 
L 7.576539 44.15064 
L 7.939847 44.9034 
L 8.303154 45.38064 
L 8.666462 45.55284 
L 9.02977 45.41508 
L 9.393078 44.8296 
L 9.756385 45.6168 
L 10.119693 45.45936 
L 10.846309 45.5184 
L 11.209616 47.18136 
L 11.572924 47.3142 
L 11.936232 47.90952 
L 12.29954 46.56144 
L 12.662848 47.54052 
L 13.026155 47.23056 
L 13.389463 46.67952 
L 13.752771 47.03376 
L 14.116079 46.85172 
L 14.479386 47.08788 
L 14.842694 47.16168 
L 15.56931 47.07804 
L 15.932617 46.896 
L 16.295925 47.10756 
L 16.659233 47.16168 
L 17.022541 45.87264 
L 17.385848 45.63156 
L 17.749156 45.80376 
L 18.475772 45.43968 
L 18.83908 45.63156 
L 19.565695 45.61188 
L 19.929003 45.63156 
L 20.292311 45.31176 
L 21.018926 45.3462 
L 21.382234 45.52824 
L 22.108849 45.47412 
L 22.472157 45.51348 
L 22.835465 42.77796 
L 23.198773 41.75952 
L 23.56208 40.04244 
L 23.925388 40.58364 
L 24.288696 40.69188 
L 24.652004 39.38808 
L 25.378619 40.33764 
L 25.741927 40.32288 
L 26.105235 40.81488 
L 26.468543 40.88376 
L 26.83185 40.44588 
L 27.195158 40.46556 
L 27.558466 40.21956 
L 27.921774 39.52584 
L 28.285081 40.49508 
L 29.375005 40.19496 
L 29.738313 39.4914 
L 30.10162 39.38808 
L 30.464928 39.69312 
L 30.828236 40.46556 
L 31.554851 40.36716 
L 31.918159 39.8604 
L 32.281467 39.96372 
L 32.644775 39.85548 
L 33.008082 41.1888 
L 33.734698 40.4508 
L 34.098006 40.5738 
L 34.824621 38.45328 
L 35.187929 38.68452 
L 35.551237 39.55536 
L 35.914545 40.09164 
L 36.277852 40.39668 
L 37.004468 40.2048 
L 37.367776 40.52952 
L 38.094391 40.48032 
L 38.821007 42.26136 
L 39.184314 42.5664 
L 39.547622 41.17404 
L 39.91093 41.0166 
L 40.274238 41.22324 
L 41.000853 41.17896 
L 41.364161 41.08056 
L 41.727469 40.61808 
L 42.090777 40.7214 
L 42.454084 41.30688 
L 42.817392 40.11132 
L 43.1807 39.99816 
L 43.544008 40.56888 
L 43.907315 40.51476 
L 44.270623 40.131 
L 44.633931 40.3278 
L 44.997239 39.81612 
L 45.723854 37.46436 
L 46.087162 37.39056 
L 46.45047 37.50372 
L 47.177085 37.01172 
L 47.540393 36.16056 
L 47.903701 34.4976 
L 48.267009 33.69072 
L 48.993624 32.89368 
L 49.356932 31.73256 
L 49.72024 31.68336 
L 50.083547 31.8162 
L 50.446855 32.64276 
L 50.810163 32.0868 
L 51.536778 31.85064 
L 51.900086 30.98964 
L 52.263394 31.53576 
L 52.626702 31.521 
L 52.990009 31.38816 
L 53.353317 32.17044 
L 53.716625 33.68088 
L 54.079933 34.28604 
L 54.443241 33.58248 
L 54.806548 32.0376 
L 55.169856 32.76576 
L 55.533164 32.259 
L 55.896472 30.65508 
L 56.259779 29.93676 
L 56.623087 28.14588 
L 57.349703 28.40664 
L 57.71301 25.73508 
L 58.076318 24.62316 
L 58.439626 26.10408 
L 58.802934 26.97984 
L 59.166241 27.00936 
L 59.529549 26.58132 
L 59.892857 27.7818 
L 60.256165 29.49888 
L 60.619473 27.68832 
L 60.98278 28.44108 
L 61.346088 24.16068 
L 61.709396 24.55428 
L 62.072704 24.51984 
L 62.436011 27.32916 
L 62.799319 25.7646 
L 63.162627 26.48784 
L 63.525935 26.43372 
L 63.889242 27.44724 
L 64.615858 27.27504 
L 64.979166 27.8802 
L 65.342474 27.72276 
L 65.705781 26.84208 
L 66.069089 27.91956 
L 66.432397 27.8556 
L 66.795705 28.09668 
L 67.159012 27.87528 
L 67.885628 27.83592 
L 68.248936 27.57024 
L 68.612243 26.77812 
L 68.975551 25.01184 
L 69.702167 25.71048 
L 70.065474 26.31564 
L 70.428782 26.45832 
L 70.79209 25.8384 
L 71.155398 25.84824 
L 71.518706 26.6994 
L 71.882013 26.62068 
L 72.245321 26.8224 
L 72.608629 28.61328 
L 73.335244 28.97244 
L 73.698552 30.99456 
L 74.06186 29.76456 
L 74.425168 29.8974 
L 74.788475 29.02164 
L 75.151783 28.50012 
L 75.515091 29.00688 
L 76.241706 26.601 
L 76.605014 26.3796 
L 76.968322 26.5764 
L 77.33163 26.3796 
L 77.694938 25.1496 
L 78.058245 26.81256 
L 78.421553 26.29596 
L 78.784861 27.41772 
L 79.148169 31.19136 
L 79.511476 31.80144 
L 79.874784 28.89864 
L 80.238092 28.28364 
L 81.328015 30.80268 
L 81.691323 31.22088 
L 82.054631 30.8076 
L 82.417938 30.13356 
L 82.781246 30.17784 
L 83.507862 31.42752 
L 83.87117 31.04376 
L 84.234477 30.49764 
L 84.597785 30.3648 
L 84.961093 28.88388 
L 85.324401 29.15448 
L 85.687708 30.15324 
L 86.414324 31.4226 
L 87.140939 30.9306 
L 87.504247 30.66 
L 88.230863 34.99944 
L 88.59417 34.07448 
L 88.957478 34.9158 
L 89.320786 34.02528 
L 89.684094 34.26144 
L 90.047402 33.0216 
L 90.410709 33.10524 
L 90.774017 34.1532 
L 91.137325 34.2024 
L 91.86394 36.34752 
L 92.227248 35.89488 
L 92.953864 36.94776 
L 93.317171 36.2688 
L 93.680479 36.97236 
L 94.043787 38.286 
L 94.407095 38.76324 
L 94.770402 38.73864 
L 95.13371 38.51724 
L 95.497018 37.42992 
L 95.860326 37.42008 
L 96.223634 36.90348 
L 96.586941 36.98712 
L 96.950249 36.86412 
L 97.313557 37.16424 
L 97.676865 37.14948 
L 98.040172 38.52216 
L 98.766788 35.71776 
L 99.130096 36.15564 
L 99.493403 36.93792 
L 100.220019 36.72636 
L 100.583327 36.21468 
L 100.946635 34.8174 
L 101.309942 34.7928 
L 101.67325 35.42748 
L 102.036558 36.49512 
L 102.399866 36.28356 
L 102.763173 36.6378 
L 103.126481 37.3512 
L 103.489789 37.3512 
L 103.853097 38.31552 
L 104.216404 38.32536 
L 104.579712 37.26264 
L 104.94302 37.26264 
L 105.306328 37.09044 
L 105.669635 37.06092 
L 106.032943 37.34628 
L 106.396251 37.48404 
L 106.759559 37.77924 
L 107.486174 37.45944 
L 108.21279 37.56276 
L 108.576098 37.31184 
L 108.939405 37.33644 
L 109.302713 37.09536 
L 109.666021 36.23928 
L 110.392636 36.11628 
L 111.119252 35.0142 
L 111.48256 35.93424 
L 111.845867 36.36228 
L 112.209175 36.50988 
L 112.572483 36.5148 
L 112.935791 36.25404 
L 113.299099 36.46068 
L 113.662406 34.83708 
L 114.025714 34.57632 
L 114.75233 35.00436 
L 115.115637 34.93056 
L 115.478945 35.088 
L 115.842253 35.78664 
L 116.205561 37.55292 
L 116.568868 37.26756 
L 116.932176 37.46436 
L 117.658792 37.45944 
L 118.022099 38.41392 
L 118.748715 36.95268 
L 119.112023 37.05108 
L 119.475331 38.37948 
L 119.838638 39.20604 
L 120.201946 41.03136 
L 120.565254 42.26628 
L 120.928562 41.73492 
L 121.235275 42.23676 
L 121.887114 44.89356 
L 122.248866 43.6242 
L 122.980788 43.53072 
L 123.346169 43.72752 
L 124.070724 44.436 
L 124.433922 44.49012 
L 124.792861 43.81608 
L 125.136998 43.7226 
L 125.52361 44.5344 
L 125.841282 44.19 
L 126.24965 44.21952 
L 126.9737 44.51472 
L 127.702246 44.3868 
L 128.066647 45.174 
L 128.399263 45.23796 
L 128.791954 44.81484 
L 129.153643 43.821 
L 129.516262 44.01288 
L 129.875289 44.66232 
L 130.246851 43.93908 
L 130.606408 44.39664 
L 130.970561 44.12112 
L 131.331833 44.33268 
L 131.695923 43.3044 
L 132.059058 43.6242 
L 132.419578 44.29824 
L 132.786414 44.53932 
L 133.150811 44.30808 
L 133.511785 43.8702 
L 133.87495 44.00304 
L 134.239687 43.97844 
L 134.602293 43.41756 
L 135.335375 43.48644 
L 136.056659 41.73984 
L 136.422738 41.7546 
L 137.145918 43.14204 
L 137.507098 43.083 
L 137.875839 43.35852 
L 138.24 43.78164 
L 138.24 43.78164 
" clip-path="url(#pc709be3586)" style="fill: none; stroke: #4a8dff; stroke-width: 0.6; stroke-linecap: round"/>
   </g>
   <g id="line2d_7">
    <path d="M 5.76 44.1654 
L 6.486616 42.4188 
L 6.849923 42.32532 
L 7.213231 42.60084 
L 7.576539 42.468 
L 7.939847 43.88496 
L 8.303154 44.71644 
L 8.666462 44.87388 
L 9.02977 44.79516 
L 9.393078 43.452 
L 9.756385 44.79024 
L 10.483001 44.13588 
L 10.846309 44.2638 
L 11.209616 46.9206 
L 11.572924 46.44336 
L 11.936232 47.85048 
L 12.29954 44.74596 
L 12.662848 46.23672 
L 13.026155 44.34252 
L 13.389463 43.41756 
L 13.752771 44.25888 
L 14.116079 43.80624 
L 14.479386 44.23428 
L 14.842694 44.01288 
L 15.206002 43.60452 
L 15.56931 43.85052 
L 15.932617 43.50612 
L 16.295925 43.53072 
L 16.659233 42.35976 
L 17.022541 39.33396 
L 17.385848 39.3192 
L 17.749156 39.18636 
L 18.112464 38.74356 
L 18.475772 38.80752 
L 18.83908 39.2208 
L 19.202387 38.61564 
L 19.565695 38.9994 
L 19.929003 39.00924 
L 20.292311 37.92684 
L 20.655618 37.71528 
L 21.018926 38.17284 
L 21.382234 38.96496 
L 21.745542 38.74848 
L 22.108849 37.71528 
L 22.472157 37.63164 
L 22.835465 34.64028 
L 23.198773 34.69932 
L 23.56208 33.87276 
L 23.925388 34.18764 
L 24.288696 34.73868 
L 24.652004 34.09416 
L 25.015312 34.38444 
L 25.378619 34.33032 
L 26.105235 34.57632 
L 26.468543 33.18396 
L 26.83185 33.38076 
L 27.195158 32.81004 
L 27.558466 31.38816 
L 27.921774 30.45336 
L 28.285081 32.59848 
L 28.648389 32.29344 
L 29.011697 31.78176 
L 29.375005 31.53084 
L 29.738313 31.68336 
L 30.10162 32.28852 
L 30.828236 34.1778 
L 31.191544 33.84324 
L 31.554851 33.3414 
L 31.918159 33.25284 
L 32.644775 33.7842 
L 33.008082 35.34384 
L 33.37139 33.981 
L 33.734698 33.35616 
L 34.098006 33.35124 
L 34.461313 31.09296 
L 34.824621 31.11756 
L 35.187929 31.87524 
L 35.551237 33.20856 
L 35.914545 33.17412 
L 36.277852 33.45456 
L 36.64116 33.4152 
L 37.004468 32.7264 
L 37.367776 33.84816 
L 38.094391 33.84324 
L 39.184314 35.73744 
L 39.547622 33.4398 
L 39.91093 33.20856 
L 40.274238 32.58372 
L 40.637545 32.71164 
L 41.364161 32.53944 
L 41.727469 32.013 
L 42.454084 33.3906 
L 42.817392 31.80144 
L 43.1807 31.41768 
L 43.544008 32.19012 
L 43.907315 32.10156 
L 44.270623 31.60956 
L 44.633931 32.0622 
L 44.997239 31.73748 
L 45.360546 30.56652 
L 45.723854 28.31808 
L 46.087162 27.48168 
L 46.45047 27.55548 
L 46.813777 26.71908 
L 47.177085 26.36484 
L 47.540393 27.42756 
L 48.267009 26.55672 
L 48.630316 27.27504 
L 48.993624 27.31932 
L 49.356932 27.63912 
L 49.72024 27.52596 
L 50.083547 26.3058 
L 50.446855 26.96016 
L 50.810163 27.09792 
L 51.173471 27.49644 
L 51.536778 27.2898 
L 51.900086 26.57148 
L 52.263394 27.27012 
L 52.990009 27.35376 
L 53.716625 29.62188 
L 54.079933 29.96136 
L 54.443241 29.14956 
L 54.806548 28.68216 
L 55.169856 29.184 
L 55.533164 28.7412 
L 55.896472 27.5358 
L 56.259779 27.91956 
L 56.623087 28.00812 
L 56.986395 26.64528 
L 57.349703 26.88636 
L 57.71301 26.1828 
L 58.076318 24.52476 
L 58.439626 27.0684 
L 58.802934 27.59484 
L 59.529549 27.49644 
L 59.892857 28.13112 
L 60.256165 29.8482 
L 60.619473 29.12004 
L 60.98278 30.03024 
L 61.346088 27.84576 
L 62.072704 29.54316 
L 62.436011 31.13232 
L 62.799319 30.31068 
L 63.162627 30.62064 
L 63.525935 29.97612 
L 63.889242 31.97364 
L 64.25255 31.82112 
L 64.615858 32.0868 
L 64.979166 31.63416 
L 65.342474 30.6354 
L 65.705781 30.37464 
L 66.069089 30.86172 
L 66.432397 30.89616 
L 66.795705 31.11756 
L 67.52232 30.22212 
L 67.885628 30.45828 
L 68.248936 29.2578 
L 68.612243 28.50504 
L 68.975551 28.18032 
L 69.338859 28.2738 
L 69.702167 28.569 
L 70.065474 28.55424 
L 70.428782 27.8802 
L 70.79209 28.03272 
L 71.155398 27.69324 
L 71.518706 28.42632 
L 71.882013 28.3968 
L 72.245321 28.60344 
L 72.608629 29.88756 
L 72.971937 30.22212 
L 73.335244 29.58252 
L 73.698552 31.73256 
L 74.06186 31.36356 
L 74.425168 31.39308 
L 75.151783 29.09544 
L 75.515091 29.2332 
L 75.878399 27.02412 
L 76.605014 25.16928 
L 76.968322 25.10532 
L 77.694938 23.92452 
L 78.058245 25.53336 
L 78.421553 24.62808 
L 78.784861 25.4448 
L 79.148169 29.64156 
L 79.511476 30.80268 
L 79.874784 28.65756 
L 80.238092 28.6428 
L 80.964707 30.87156 
L 81.328015 32.17044 
L 81.691323 32.97732 
L 82.054631 32.628 
L 82.417938 31.90476 
L 82.781246 30.92076 
L 83.144554 31.96872 
L 83.507862 32.39676 
L 83.87117 31.19628 
L 84.597785 30.42384 
L 84.961093 29.0118 
L 85.324401 29.15448 
L 85.687708 29.76456 
L 86.051016 31.2012 
L 86.414324 32.09172 
L 86.777632 31.43244 
L 87.504247 30.90108 
L 88.230863 35.35368 
L 88.59417 34.24668 
L 88.957478 35.5062 
L 89.320786 34.48284 
L 89.684094 35.02896 
L 90.047402 33.8334 
L 90.410709 33.243 
L 90.774017 34.69932 
L 91.500633 36.2934 
L 91.86394 38.901 
L 92.227248 38.37948 
L 92.590556 38.92068 
L 92.953864 40.09164 
L 93.317171 39.70788 
L 93.680479 40.4262 
L 94.043787 42.75336 
L 94.407095 43.54548 
L 94.770402 43.72752 
L 95.497018 41.976 
L 95.860326 42.42864 
L 96.223634 40.86408 
L 96.586941 40.47048 
L 97.676865 40.89852 
L 98.040172 42.9354 
L 98.40348 40.43604 
L 98.766788 39.31428 
L 99.130096 40.04244 
L 99.493403 41.43972 
L 99.856711 41.47416 
L 100.220019 41.02152 
L 100.583327 40.7952 
L 100.946635 39.75708 
L 101.309942 40.11132 
L 101.67325 39.87024 
L 102.036558 40.94772 
L 102.399866 40.97232 
L 103.126481 42.87144 
L 103.489789 42.17772 
L 103.853097 43.04364 
L 104.216404 43.34868 
L 104.579712 42.03504 
L 105.306328 41.8038 
L 105.669635 41.84316 
L 106.032943 42.37944 
L 106.396251 42.26628 
L 106.759559 42.468 
L 107.122867 42.42864 
L 107.486174 42.18264 
L 107.849482 42.1728 
L 108.21279 42.50244 
L 108.576098 41.88252 
L 108.939405 42.32532 
L 109.666021 41.13468 
L 110.392636 40.42128 
L 110.755944 39.16176 
L 111.119252 39.28968 
L 111.48256 40.48032 
L 112.572483 40.88376 
L 113.299099 40.53936 
L 113.662406 38.50248 
L 114.025714 37.63656 
L 114.389022 38.34012 
L 114.75233 38.37456 
L 115.115637 38.5812 
L 115.842253 39.8358 
L 116.205561 41.93172 
L 116.568868 41.42004 
L 117.295484 41.39052 
L 117.658792 41.5086 
L 118.022099 42.80256 
L 118.385407 41.93664 
L 118.748715 41.49384 
L 119.112023 41.51352 
L 119.475331 43.78164 
L 119.838638 43.9932 
L 120.201946 46.66968 
L 120.565254 47.55036 
L 120.928562 46.64508 
L 121.523991 48.89352 
L 121.887114 49.84308 
L 122.248866 49.00176 
L 122.620478 49.233 
L 122.980788 48.97716 
L 123.708724 49.36092 
L 124.433922 49.58724 
L 124.792861 49.28712 
L 125.136998 49.16904 
L 125.52361 49.39044 
L 125.841282 49.29696 
L 126.612516 49.55772 
L 127.702246 49.41996 
L 128.066647 49.8234 
L 128.399263 49.86768 
L 128.791954 49.72992 
L 129.153643 49.39536 
L 129.875289 49.6758 
L 130.246851 49.47408 
L 130.606408 49.60692 
L 130.970561 49.37568 
L 131.331833 49.36584 
L 131.695923 48.6672 
L 132.786414 49.54788 
L 133.150811 49.5282 
L 133.511785 49.09032 
L 134.239687 49.2084 
L 134.602293 48.93288 
L 135.335375 48.89844 
L 136.056659 48.1998 
L 136.422738 48.28344 
L 136.786147 48.88368 
L 137.145918 49.04604 
L 137.507098 49.00176 
L 138.24 49.38552 
L 138.24 49.38552 
" clip-path="url(#pc709be3586)" style="fill: none; stroke: #f5841e; stroke-width: 0.7; stroke-linecap: round"/>
   </g>
  </g>
 </g>
 <defs>
  <clipPath id="pc709be3586">
   <rect x="5.76" y="3.6" width="132.48" height="49.2"/>
  </clipPath>
 </defs>
</svg>
