<?xml version="1.0" encoding="utf-8" standalone="no"?>
<!DOCTYPE svg PUBLIC "-//W3C//DTD SVG 1.1//EN"
  "http://www.w3.org/Graphics/SVG/1.1/DTD/svg11.dtd">
<svg xmlns:xlink="http://www.w3.org/1999/xlink" width="144pt" height="60pt" viewBox="0 0 144 60" xmlns="http://www.w3.org/2000/svg" version="1.1">
  <desc id="nav-meta">{"window":"3m","count":4,"labels":["15.04","15.05","14.06","14.07"],"tick_utc":["2026-04-15T03:52:26Z","2026-05-15T04:39:19Z","2026-06-14T05:19:47Z","2026-07-14T03:47:28Z"]}</desc>

 <metadata>
  <rdf:RDF xmlns:dc="http://purl.org/dc/elements/1.1/" xmlns:cc="http://creativecommons.org/ns#" xmlns:rdf="http://www.w3.org/1999/02/22-rdf-syntax-ns#">
   <cc:Work>
    <dc:type rdf:resource="http://purl.org/dc/dcmitype/StillImage"/>
    <dc:date>2026-07-14T03:47:29.391362</dc:date>
    <dc:format>image/svg+xml</dc:format>
    <dc:creator>
     <cc:Agent>
      <dc:title>Matplotlib v3.11.0, https://matplotlib.org/</dc:title>
     </cc:Agent>
    </dc:creator>
   </cc:Work>
  </rdf:RDF>
 </metadata>
 <defs>
  <style type="text/css">*{stroke-linejoin: round; stroke-linecap: butt}</style>
 </defs>
 <g id="figure_1">
  <g id="patch_1">
   <path d="M 0 60 
L 144 60 
L 144 0 
L 0 0 
L 0 60 
z
" style="fill: none; opacity: 0"/>
  </g>
  <g id="axes_1">
   <g id="patch_2">
    <path d="M 5.76 52.8 
L 138.24 52.8 
L 138.24 3.6 
L 5.76 3.6 
L 5.76 52.8 
z
" style="fill: none"/>
   </g>
   <g id="matplotlib.axis_1"/>
   <g id="matplotlib.axis_2"/>
   <g id="line2d_1">
    <path d="M 5.76 42.96 
L 138.24 42.96 
" clip-path="url(#pf65928e2c2)" style="fill: none; stroke: #b2b2b2; stroke-opacity: 0.35; stroke-width: 0.5; stroke-linecap: square"/>
   </g>
   <g id="line2d_2">
    <path d="M 5.76 33.12 
L 138.24 33.12 
" clip-path="url(#pf65928e2c2)" style="fill: none; stroke: #b2b2b2; stroke-opacity: 0.35; stroke-width: 0.5; stroke-linecap: square"/>
   </g>
   <g id="line2d_3">
    <path d="M 5.76 23.28 
L 138.24 23.28 
" clip-path="url(#pf65928e2c2)" style="fill: none; stroke: #b2b2b2; stroke-opacity: 0.35; stroke-width: 0.5; stroke-linecap: square"/>
   </g>
   <g id="line2d_4">
    <path d="M 5.76 13.44 
L 138.24 13.44 
" clip-path="url(#pf65928e2c2)" style="fill: none; stroke: #b2b2b2; stroke-opacity: 0.35; stroke-width: 0.5; stroke-linecap: square"/>
   </g>
   <g id="line2d_5">
    <path d="M 5.76 49.58724 
L 7.238429 49.45932 
L 8.707486 49.27728 
L 10.163306 49.19856 
L 11.654802 49.43472 
L 13.130505 49.50852 
L 14.596104 49.46424 
L 16.063594 49.31664 
L 17.541614 49.4298 
L 19.017572 49.42488 
L 20.472062 49.37568 
L 21.967017 49.4052 
L 23.454936 49.29204 
L 24.930076 49.5528 
L 26.398112 49.50852 
L 27.872639 49.64136 
L 29.360779 49.56756 
L 30.795267 49.56264 
L 32.297207 49.57248 
L 33.768753 49.42488 
L 35.208386 49.49376 
L 36.706374 49.32156 
L 38.178822 49.25268 
L 39.626379 49.24284 
L 41.103819 48.80004 
L 42.605538 48.85416 
L 44.089214 48.72132 
L 45.540825 48.63276 
L 47.019884 48.66228 
L 48.490305 49.09524 
L 49.969619 48.99192 
L 51.422883 49.19364 
L 52.916918 49.34616 
L 54.403269 49.47408 
L 55.864779 49.47408 
L 57.3421 49.54788 
L 58.822539 49.3314 
L 60.283317 49.34616 
L 61.73515 49.51836 
L 63.230514 49.41996 
L 64.721942 49.41504 
L 66.171696 49.5282 
L 67.658865 49.5774 
L 69.126219 49.7742 
L 70.599366 49.7004 
L 72.050193 49.69548 
L 73.552304 49.61676 
L 75.046135 49.71024 
L 76.503709 49.7988 
L 77.992326 50.19732 
L 79.459339 50.45808 
L 80.907151 50.59092 
L 82.356581 50.99928 
L 83.860277 50.82216 
L 85.338842 50.74344 
L 86.782803 50.62536 
L 88.270125 50.80248 
L 89.75082 50.76312 
L 91.228652 50.65488 
L 92.68994 50.6598 
L 94.172679 50.56632 
L 95.693668 50.39412 
L 97.174124 50.23176 
L 98.599293 50.2416 
L 100.064296 50.4138 
L 101.571024 50.55156 
L 102.984215 50.42364 
L 104.486905 50.27112 
L 106.00205 50.217 
L 107.386106 50.35968 
L 108.863428 50.49252 
L 110.335092 50.59092 
L 111.814696 50.59092 
L 113.26871 50.33016 
L 114.768827 50.4384 
L 116.251532 50.3892 
L 117.69505 50.22192 
L 119.188642 50.13336 
L 120.634921 49.95132 
L 122.090962 49.78896 
L 123.55668 49.6266 
L 125.050289 49.7742 
L 126.536606 49.7742 
L 127.986582 49.76436 
L 129.418634 49.91688 
L 130.935312 49.98084 
L 132.404046 49.8972 
L 133.832639 49.971 
L 135.326708 50.03004 
L 136.801985 50.08908 
L 138.24 50.15796 
" clip-path="url(#pf65928e2c2)" style="fill: none; stroke: #bebebe; stroke-width: 0.6; stroke-linecap: round"/>
   </g>
   <g id="line2d_6">
    <path d="M 5.76 41.86284 
L 7.238429 41.63652 
L 8.707486 41.85792 
L 10.163306 41.22324 
L 11.654802 41.76936 
L 13.130505 42.1482 
L 14.596104 41.96616 
L 16.063594 41.59224 
L 17.541614 41.76936 
L 19.017572 41.99076 
L 20.472062 41.91696 
L 21.967017 41.98584 
L 23.454936 41.41512 
L 24.930076 42.15312 
L 26.398112 41.96124 
L 27.872639 42.43848 
L 29.360779 42.20232 
L 30.795267 42.02028 
L 32.297207 42.0252 
L 33.768753 41.40528 
L 35.208386 41.46432 
L 36.706374 41.52336 
L 38.178822 41.86776 
L 39.626379 42.1974 
L 41.103819 41.8776 
L 42.605538 41.84316 
L 44.089214 41.8038 
L 45.540825 41.976 
L 47.019884 42.00552 
L 48.490305 42.3942 
L 49.969619 42.27612 
L 51.422883 42.57624 
L 52.916918 42.85176 
L 54.403269 43.31424 
L 55.864779 43.2306 
L 57.3421 43.39296 
L 58.822539 43.16172 
L 60.283317 43.24536 
L 61.73515 43.71768 
L 63.230514 43.33392 
L 64.721942 43.42248 
L 66.171696 43.51596 
L 67.658865 43.67832 
L 69.126219 44.32776 
L 70.599366 44.13588 
L 72.050193 44.16048 
L 73.552304 43.96368 
L 75.046135 44.2392 
L 76.503709 44.19984 
L 77.992326 45.16908 
L 79.459339 45.67584 
L 80.907151 46.00548 
L 82.356581 47.57004 
L 83.860277 47.04852 
L 85.338842 46.64016 
L 86.782803 46.34496 
L 88.270125 46.82712 
L 89.75082 46.65492 
L 91.228652 46.51716 
L 92.68994 46.5516 
L 94.172679 46.46304 
L 95.693668 46.14816 
L 97.174124 45.84312 
L 98.599293 45.6414 
L 100.064296 46.09404 
L 101.571024 46.3302 
L 102.984215 46.21704 
L 104.486905 46.06452 
L 106.00205 46.035 
L 107.386106 46.14324 
L 108.863428 46.52208 
L 110.335092 46.83204 
L 111.814696 47.38308 
L 113.26871 47.14692 
L 114.768827 47.22564 
L 116.251532 47.22072 
L 117.69505 47.10264 
L 119.188642 47.0436 
L 120.634921 46.79268 
L 122.090962 46.27608 
L 123.55668 45.92184 
L 125.050289 45.80376 
L 126.536606 45.75456 
L 127.986582 45.81852 
L 129.418634 45.94152 
L 130.935312 46.02024 
L 132.404046 45.77424 
L 133.832639 45.61188 
L 135.326708 45.51348 
L 136.801985 45.72504 
L 138.24 45.72996 
" clip-path="url(#pf65928e2c2)" style="fill: none; stroke: #4a8dff; stroke-width: 0.6; stroke-linecap: round"/>
   </g>
   <g id="line2d_7">
    <path d="M 5.76 48.34248 
L 7.238429 48.21456 
L 8.707486 48.26376 
L 10.163306 47.41752 
L 11.654802 48.05712 
L 13.130505 48.26376 
L 14.596104 48.01776 
L 16.063594 47.23548 
L 17.541614 47.17644 
L 19.017572 47.15676 
L 20.472062 47.1666 
L 21.967017 47.31912 
L 23.454936 46.49256 
L 24.930076 47.64876 
L 26.398112 47.5356 
L 27.872639 48.0276 
L 29.360779 47.50608 
L 30.795267 46.81728 
L 32.297207 46.92552 
L 33.768753 45.85788 
L 35.208386 45.60204 
L 36.706374 45.29208 
L 38.178822 45.58728 
L 39.626379 46.2564 
L 41.103819 45.7152 
L 42.605538 45.63648 
L 44.089214 45.6414 
L 45.540825 45.45936 
L 47.019884 45.42492 
L 48.490305 46.38432 
L 49.969619 45.57744 
L 51.422883 46.51716 
L 52.916918 46.95996 
L 54.403269 47.54544 
L 55.864779 47.59464 
L 57.3421 47.66844 
L 58.822539 47.05344 
L 60.283317 47.22564 
L 61.73515 48.07188 
L 63.230514 47.6832 
L 64.721942 47.37324 
L 66.171696 47.66844 
L 67.658865 48.07188 
L 69.126219 48.59832 
L 70.599366 48.52452 
L 72.050193 48.5688 
L 73.552304 48.38676 
L 75.046135 48.55404 
L 76.503709 49.0116 
L 77.992326 49.57248 
L 79.459339 49.93656 
L 80.907151 49.98084 
L 82.356581 50.3646 
L 83.860277 50.15796 
L 85.338842 50.07432 
L 86.782803 49.99068 
L 88.270125 50.217 
L 89.75082 50.07924 
L 91.228652 49.98084 
L 92.68994 49.971 
L 94.172679 49.87752 
L 95.693668 49.69548 
L 97.174124 49.65612 
L 98.599293 49.7004 
L 100.064296 49.92672 
L 101.571024 50.06448 
L 102.984215 49.971 
L 104.486905 49.89228 
L 106.00205 49.89228 
L 107.386106 49.9464 
L 108.863428 50.05956 
L 110.335092 50.2416 
L 111.814696 50.35968 
L 113.26871 50.31048 
L 114.768827 50.34492 
L 116.251532 50.38428 
L 117.69505 50.39412 
L 119.188642 50.41872 
L 120.634921 50.27112 
L 122.090962 50.20224 
L 123.55668 50.0694 
L 125.050289 50.03988 
L 126.536606 50.00052 
L 127.986582 50.00544 
L 129.418634 50.05956 
L 130.935312 50.11368 
L 132.404046 49.91196 
L 133.832639 49.90212 
L 135.326708 49.8972 
L 136.801985 50.0448 
L 138.24 50.08908 
" clip-path="url(#pf65928e2c2)" style="fill: none; stroke: #f5841e; stroke-width: 0.7; stroke-linecap: round"/>
   </g>
  </g>
 </g>
 <defs>
  <clipPath id="pf65928e2c2">
   <rect x="5.76" y="3.6" width="132.48" height="49.2"/>
  </clipPath>
 </defs>
</svg>
