<?xml version="1.0" encoding="utf-8" standalone="no"?>
<!DOCTYPE svg PUBLIC "-//W3C//DTD SVG 1.1//EN"
  "http://www.w3.org/Graphics/SVG/1.1/DTD/svg11.dtd">
<svg xmlns:xlink="http://www.w3.org/1999/xlink" width="144pt" height="60pt" viewBox="0 0 144 60" xmlns="http://www.w3.org/2000/svg" version="1.1">
  <desc id="nav-meta">{"window":"6m","count":4,"labels":["09.08","08.10","07.12","05.02"],"tick_utc":["2025-08-09T12:00:00Z","2025-10-08T12:00:00Z","2025-12-07T12:00:00Z","2026-02-05T03:20:02Z"]}</desc>

 <metadata>
  <rdf:RDF xmlns:dc="http://purl.org/dc/elements/1.1/" xmlns:cc="http://creativecommons.org/ns#" xmlns:rdf="http://www.w3.org/1999/02/22-rdf-syntax-ns#">
   <cc:Work>
    <dc:type rdf:resource="http://purl.org/dc/dcmitype/StillImage"/>
    <dc:date>2026-02-05T07:37:45.343269</dc:date>
    <dc:format>image/svg+xml</dc:format>
    <dc:creator>
     <cc:Agent>
      <dc:title>Matplotlib v3.10.8, https://matplotlib.org/</dc:title>
     </cc:Agent>
    </dc:creator>
   </cc:Work>
  </rdf:RDF>
 </metadata>
 <defs>
  <style type="text/css">*{stroke-linejoin: round; stroke-linecap: butt}</style>
 </defs>
 <g id="figure_1">
  <g id="patch_1">
   <path d="M 0 60 
L 144 60 
L 144 0 
L 0 0 
L 0 60 
z
" style="fill: none; opacity: 0"/>
  </g>
  <g id="axes_1">
   <g id="patch_2">
    <path d="M 5.76 52.8 
L 138.24 52.8 
L 138.24 3.6 
L 5.76 3.6 
L 5.76 52.8 
z
" style="fill: none"/>
   </g>
   <g id="matplotlib.axis_1"/>
   <g id="matplotlib.axis_2"/>
   <g id="line2d_1">
    <path d="M 5.76 42.96 
L 138.24 42.96 
" clip-path="url(#p17b439ec92)" style="fill: none; stroke: #b2b2b2; stroke-opacity: 0.35; stroke-width: 0.5; stroke-linecap: square"/>
   </g>
   <g id="line2d_2">
    <path d="M 5.76 33.12 
L 138.24 33.12 
" clip-path="url(#p17b439ec92)" style="fill: none; stroke: #b2b2b2; stroke-opacity: 0.35; stroke-width: 0.5; stroke-linecap: square"/>
   </g>
   <g id="line2d_3">
    <path d="M 5.76 23.28 
L 138.24 23.28 
" clip-path="url(#p17b439ec92)" style="fill: none; stroke: #b2b2b2; stroke-opacity: 0.35; stroke-width: 0.5; stroke-linecap: square"/>
   </g>
   <g id="line2d_4">
    <path d="M 5.76 13.44 
L 138.24 13.44 
" clip-path="url(#p17b439ec92)" style="fill: none; stroke: #b2b2b2; stroke-opacity: 0.35; stroke-width: 0.5; stroke-linecap: square"/>
   </g>
   <g id="line2d_5">
    <path d="M 5.76 38.59104 
L 6.497479 38.12364 
L 7.234959 37.794 
L 7.972438 38.82228 
L 8.709918 36.53448 
L 9.447397 35.334 
L 10.184876 36.5148 
L 10.922356 37.44468 
L 11.659835 36.90348 
L 12.397315 36.65748 
L 13.134794 37.78416 
L 13.872274 38.64516 
L 14.609753 37.2282 
L 15.347232 38.14332 
L 16.084712 35.53572 
L 16.822191 35.04372 
L 17.559671 34.80264 
L 18.29715 37.23804 
L 20.509588 33.67104 
L 21.247068 34.90596 
L 22.722027 35.45208 
L 23.459506 35.9736 
L 24.196985 34.36476 
L 24.934465 34.1778 
L 25.671944 35.22084 
L 26.409424 35.11752 
L 27.146903 35.54556 
L 28.621862 33.735 
L 29.359341 33.30204 
L 30.096821 32.44104 
L 30.8343 31.83096 
L 31.57178 30.06468 
L 32.309259 30.01056 
L 33.046738 30.291 
L 33.784218 31.16184 
L 34.521697 30.74856 
L 35.259177 29.71536 
L 35.996656 29.37588 
L 36.734135 30.57636 
L 37.471615 30.42876 
L 38.209094 30.79284 
L 38.946574 32.91828 
L 39.684053 33.72024 
L 40.421533 34.05972 
L 41.159012 36.5886 
L 41.896491 34.90104 
L 42.633971 35.10276 
L 43.37145 34.16796 
L 44.10893 33.8826 
L 44.846409 34.43364 
L 46.321368 31.05852 
L 47.058847 31.26024 
L 47.796327 31.92936 
L 48.533806 31.85064 
L 49.271286 31.3242 
L 50.008765 32.84448 
L 50.746244 31.78176 
L 51.483724 32.85924 
L 52.221203 36.8838 
L 52.958683 38.39424 
L 53.696162 35.95392 
L 54.433641 34.53696 
L 55.171121 35.20608 
L 56.64608 37.57752 
L 57.383559 37.90716 
L 58.121039 37.18884 
L 58.858518 37.18392 
L 59.595997 36.89364 
L 60.333477 37.42008 
L 61.070956 38.17284 
L 61.808436 36.687 
L 62.545915 36.42132 
L 63.283394 36.34752 
L 64.020874 35.56032 
L 64.758353 35.72268 
L 65.495833 36.29832 
L 66.233312 36.32292 
L 66.970792 37.61688 
L 67.708271 37.2282 
L 68.44575 37.34628 
L 69.18323 37.23804 
L 69.920709 40.008 
L 70.658189 41.36592 
L 71.395668 40.43604 
L 72.133147 41.44956 
L 72.870627 40.53444 
L 73.608106 41.02152 
L 74.345586 40.22448 
L 75.083065 39.79644 
L 75.820545 41.51844 
L 76.558024 41.66604 
L 77.295503 42.714 
L 78.032983 43.51596 
L 78.770462 43.43724 
L 79.507942 43.71276 
L 80.245421 44.59836 
L 80.9829 43.30932 
L 81.72038 43.85052 
L 82.457859 44.21952 
L 83.195339 44.88372 
L 83.932818 44.99688 
L 84.670298 44.57868 
L 85.407777 43.5996 
L 86.145256 43.51596 
L 86.882736 43.00428 
L 87.620215 43.2798 
L 88.357695 43.71768 
L 89.832653 44.0916 
L 90.570133 45.11004 
L 91.307612 43.55532 
L 92.045092 42.72876 
L 93.520051 44.27364 
L 94.995009 44.47536 
L 95.732489 44.25888 
L 96.469968 43.64388 
L 97.207448 43.84068 
L 97.944927 43.85052 
L 98.682406 44.36712 
L 99.419886 44.26872 
L 100.157365 44.74104 
L 100.894845 44.98704 
L 101.632324 44.84436 
L 102.369804 45.58728 
L 103.107283 46.0596 
L 103.844762 45.18384 
L 106.79468 45.47904 
L 107.532159 45.65616 
L 108.269639 45.98088 
L 109.744598 45.38556 
L 110.482077 45.31668 
L 111.219557 45.58728 
L 111.957036 45.35604 
L 112.694515 45.40032 
L 113.431995 45.11496 
L 114.169474 44.42124 
L 115.644433 44.18508 
L 116.381912 43.62912 
L 117.119392 43.24044 
L 117.856871 43.8702 
L 118.594351 43.60944 
L 119.33183 43.92924 
L 120.06931 43.93416 
L 120.806789 43.46184 
L 121.544268 43.5012 
L 122.281748 42.72384 
L 123.019227 42.51228 
L 123.756707 43.08792 
L 124.494186 42.75828 
L 125.231665 42.90096 
L 126.706624 44.2392 
L 127.444104 45.23304 
L 128.181583 44.77548 
L 129.656542 45.04608 
L 130.394021 45.07068 
L 131.131501 46.1334 
L 131.86898 45.4446 
L 132.60646 45.06084 
L 133.343939 45.33144 
L 134.081418 46.30068 
L 134.818898 46.34496 
L 135.556377 47.89476 
L 136.293857 48.26376 
L 137.031336 47.96364 
L 138.24 49.06572 
L 138.24 49.06572 
" clip-path="url(#p17b439ec92)" style="fill: none; stroke: #bebebe; stroke-width: 0.6; stroke-linecap: round"/>
   </g>
   <g id="line2d_6">
    <path d="M 5.76 29.93676 
L 6.497479 28.14588 
L 7.972438 28.40664 
L 8.709918 25.73508 
L 9.447397 24.62316 
L 10.184876 26.10408 
L 10.922356 26.97984 
L 11.659835 27.00936 
L 12.397315 26.58132 
L 13.134794 27.7818 
L 13.872274 29.49888 
L 14.609753 27.68832 
L 15.347232 28.44108 
L 16.084712 24.16068 
L 16.822191 24.55428 
L 17.559671 24.51984 
L 18.29715 27.32916 
L 19.034629 25.7646 
L 19.772109 26.48784 
L 20.509588 26.43372 
L 21.247068 27.44724 
L 22.722027 27.27504 
L 23.459506 27.8802 
L 24.196985 27.72276 
L 24.934465 26.84208 
L 25.671944 27.91956 
L 26.409424 27.8556 
L 27.146903 28.09668 
L 27.884382 27.87528 
L 29.359341 27.83592 
L 30.096821 27.57024 
L 30.8343 26.77812 
L 31.57178 25.01184 
L 33.046738 25.71048 
L 33.784218 26.31564 
L 34.521697 26.45832 
L 35.259177 25.8384 
L 35.996656 25.84824 
L 36.734135 26.6994 
L 37.471615 26.62068 
L 38.209094 26.8224 
L 38.946574 28.61328 
L 40.421533 28.97244 
L 41.159012 30.99456 
L 41.896491 29.76456 
L 42.633971 29.8974 
L 43.37145 29.02164 
L 44.10893 28.50012 
L 44.846409 29.00688 
L 45.583888 27.59484 
L 46.321368 26.601 
L 47.058847 26.3796 
L 47.796327 26.5764 
L 48.533806 26.3796 
L 49.271286 25.1496 
L 50.008765 26.81256 
L 50.746244 26.29596 
L 51.483724 27.41772 
L 52.221203 31.19136 
L 52.958683 31.80144 
L 53.696162 28.89864 
L 54.433641 28.28364 
L 55.171121 29.11512 
L 55.9086 30.1434 
L 56.64608 30.80268 
L 57.383559 31.22088 
L 58.121039 30.8076 
L 58.858518 30.13356 
L 59.595997 30.17784 
L 60.333477 30.89124 
L 61.070956 31.42752 
L 61.808436 31.04376 
L 62.545915 30.49764 
L 63.283394 30.3648 
L 64.020874 28.88388 
L 64.758353 29.15448 
L 65.495833 30.15324 
L 66.970792 31.4226 
L 67.708271 31.10772 
L 69.18323 30.66 
L 70.658189 34.99944 
L 71.395668 34.07448 
L 72.133147 34.9158 
L 72.870627 34.02528 
L 73.608106 34.26144 
L 74.345586 33.0216 
L 75.083065 33.10524 
L 75.820545 34.1532 
L 76.558024 34.2024 
L 77.295503 35.4324 
L 78.032983 36.34752 
L 78.770462 35.89488 
L 80.245421 36.94776 
L 80.9829 36.2688 
L 81.72038 36.97236 
L 82.457859 38.286 
L 83.195339 38.76324 
L 83.932818 38.73864 
L 84.670298 38.51724 
L 85.407777 37.42992 
L 86.145256 37.42008 
L 86.882736 36.90348 
L 87.620215 36.98712 
L 88.357695 36.86412 
L 89.095174 37.16424 
L 89.832653 37.14948 
L 90.570133 38.52216 
L 92.045092 35.71776 
L 92.782571 36.15564 
L 93.520051 36.93792 
L 94.995009 36.72636 
L 95.732489 36.21468 
L 96.469968 34.8174 
L 97.207448 34.7928 
L 97.944927 35.42748 
L 98.682406 36.49512 
L 99.419886 36.28356 
L 100.157365 36.6378 
L 100.894845 37.3512 
L 101.632324 37.3512 
L 102.369804 38.31552 
L 103.107283 38.32536 
L 103.844762 37.26264 
L 104.582242 37.26264 
L 105.319721 37.09044 
L 106.057201 37.06092 
L 106.79468 37.34628 
L 107.532159 37.48404 
L 108.269639 37.77924 
L 109.744598 37.45944 
L 111.219557 37.56276 
L 111.957036 37.31184 
L 112.694515 37.33644 
L 113.431995 37.09536 
L 114.169474 36.23928 
L 115.644433 36.11628 
L 116.381912 35.48652 
L 117.119392 35.0142 
L 117.856871 35.93424 
L 118.594351 36.36228 
L 119.33183 36.50988 
L 120.06931 36.5148 
L 120.806789 36.25404 
L 121.544268 36.46068 
L 122.281748 34.83708 
L 123.019227 34.57632 
L 124.494186 35.00436 
L 125.231665 34.93056 
L 125.969145 35.088 
L 126.706624 35.78664 
L 127.444104 37.55292 
L 128.181583 37.26756 
L 128.919063 37.46436 
L 130.394021 37.45944 
L 131.131501 38.41392 
L 132.60646 36.95268 
L 133.343939 37.05108 
L 134.081418 38.37948 
L 134.818898 39.20604 
L 135.556377 41.03136 
L 136.293857 42.26628 
L 137.031336 41.73492 
L 137.653934 42.23676 
L 138.24 43.38804 
L 138.24 43.38804 
" clip-path="url(#p17b439ec92)" style="fill: none; stroke: #4a8dff; stroke-width: 0.7; stroke-linecap: round"/>
   </g>
   <g id="line2d_7">
    <path d="M 5.76 27.91956 
L 6.497479 28.00812 
L 7.234959 26.64528 
L 7.972438 26.88636 
L 8.709918 26.1828 
L 9.447397 24.52476 
L 10.184876 27.0684 
L 10.922356 27.59484 
L 12.397315 27.49644 
L 13.134794 28.13112 
L 13.872274 29.8482 
L 14.609753 29.12004 
L 15.347232 30.03024 
L 16.084712 27.84576 
L 16.822191 28.57392 
L 17.559671 29.54316 
L 18.29715 31.13232 
L 19.034629 30.31068 
L 19.772109 30.62064 
L 20.509588 29.97612 
L 21.247068 31.97364 
L 21.984547 31.82112 
L 22.722027 32.0868 
L 23.459506 31.63416 
L 24.196985 30.6354 
L 24.934465 30.37464 
L 25.671944 30.86172 
L 26.409424 30.89616 
L 27.146903 31.11756 
L 28.621862 30.22212 
L 29.359341 30.45828 
L 30.096821 29.2578 
L 30.8343 28.50504 
L 31.57178 28.18032 
L 32.309259 28.2738 
L 33.046738 28.569 
L 33.784218 28.55424 
L 34.521697 27.8802 
L 35.259177 28.03272 
L 35.996656 27.69324 
L 36.734135 28.42632 
L 37.471615 28.3968 
L 38.209094 28.60344 
L 38.946574 29.88756 
L 39.684053 30.22212 
L 40.421533 29.58252 
L 41.159012 31.73256 
L 41.896491 31.36356 
L 42.633971 31.39308 
L 44.10893 29.09544 
L 44.846409 29.2332 
L 45.583888 27.02412 
L 46.321368 25.98108 
L 47.058847 25.16928 
L 47.796327 25.10532 
L 49.271286 23.92452 
L 50.008765 25.53336 
L 50.746244 24.62808 
L 51.483724 25.4448 
L 52.221203 29.64156 
L 52.958683 30.80268 
L 53.696162 28.65756 
L 54.433641 28.6428 
L 55.171121 29.66124 
L 56.64608 32.17044 
L 57.383559 32.97732 
L 58.121039 32.628 
L 58.858518 31.90476 
L 59.595997 30.92076 
L 60.333477 31.96872 
L 61.070956 32.39676 
L 61.808436 31.19628 
L 62.545915 30.72888 
L 63.283394 30.42384 
L 64.020874 29.0118 
L 64.758353 29.15448 
L 65.495833 29.76456 
L 66.233312 31.2012 
L 66.970792 32.09172 
L 67.708271 31.43244 
L 69.18323 30.90108 
L 69.920709 32.93796 
L 70.658189 35.35368 
L 71.395668 34.24668 
L 72.133147 35.5062 
L 72.870627 34.48284 
L 73.608106 35.02896 
L 74.345586 33.8334 
L 75.083065 33.243 
L 75.820545 34.69932 
L 76.558024 35.4078 
L 77.295503 36.2934 
L 78.032983 38.901 
L 78.770462 38.37948 
L 79.507942 38.92068 
L 80.245421 40.09164 
L 80.9829 39.70788 
L 81.72038 40.4262 
L 82.457859 42.75336 
L 83.195339 43.54548 
L 83.932818 43.72752 
L 84.670298 42.6894 
L 85.407777 41.976 
L 86.145256 42.42864 
L 86.882736 40.86408 
L 87.620215 40.47048 
L 89.832653 40.89852 
L 90.570133 42.9354 
L 91.307612 40.43604 
L 92.045092 39.31428 
L 92.782571 40.04244 
L 93.520051 41.43972 
L 94.25753 41.47416 
L 94.995009 41.02152 
L 95.732489 40.7952 
L 96.469968 39.75708 
L 97.207448 40.11132 
L 97.944927 39.87024 
L 98.682406 40.94772 
L 99.419886 40.97232 
L 100.894845 42.87144 
L 101.632324 42.17772 
L 102.369804 43.04364 
L 103.107283 43.34868 
L 103.844762 42.03504 
L 105.319721 41.8038 
L 106.057201 41.84316 
L 106.79468 42.37944 
L 107.532159 42.26628 
L 108.269639 42.468 
L 109.007118 42.42864 
L 109.744598 42.18264 
L 110.482077 42.1728 
L 111.219557 42.50244 
L 111.957036 41.88252 
L 112.694515 42.32532 
L 114.169474 41.13468 
L 115.644433 40.42128 
L 116.381912 39.16176 
L 117.119392 39.28968 
L 117.856871 40.48032 
L 120.06931 40.88376 
L 121.544268 40.53936 
L 122.281748 38.50248 
L 123.019227 37.63656 
L 123.756707 38.34012 
L 124.494186 38.37456 
L 125.231665 38.5812 
L 126.706624 39.8358 
L 127.444104 41.93172 
L 128.181583 41.42004 
L 129.656542 41.39052 
L 130.394021 41.5086 
L 131.131501 42.80256 
L 131.86898 41.93664 
L 132.60646 41.49384 
L 133.343939 41.51352 
L 134.081418 43.78164 
L 134.818898 43.9932 
L 135.556377 46.66968 
L 136.293857 47.55036 
L 137.031336 46.64508 
L 138.24 48.89352 
L 138.24 48.89352 
" clip-path="url(#p17b439ec92)" style="fill: none; stroke: #f5841e; stroke-width: 0.8; stroke-linecap: round"/>
   </g>
  </g>
 </g>
 <defs>
  <clipPath id="p17b439ec92">
   <rect x="5.76" y="3.6" width="132.48" height="49.2"/>
  </clipPath>
 </defs>
</svg>
