<?xml version="1.0" encoding="utf-8" standalone="no"?>
<!DOCTYPE svg PUBLIC "-//W3C//DTD SVG 1.1//EN"
  "http://www.w3.org/Graphics/SVG/1.1/DTD/svg11.dtd">
<svg xmlns:xlink="http://www.w3.org/1999/xlink" width="144pt" height="60pt" viewBox="0 0 144 60" xmlns="http://www.w3.org/2000/svg" version="1.1">
  <desc id="nav-meta">{"window":"3m","count":4,"labels":["25.04","25.05","23.06","23.07"],"tick_utc":["2026-04-25T03:44:07Z","2026-05-25T05:10:23Z","2026-06-23T04:45:28Z","2026-07-23T03:58:20Z"]}</desc>

 <metadata>
  <rdf:RDF xmlns:dc="http://purl.org/dc/elements/1.1/" xmlns:cc="http://creativecommons.org/ns#" xmlns:rdf="http://www.w3.org/1999/02/22-rdf-syntax-ns#">
   <cc:Work>
    <dc:type rdf:resource="http://purl.org/dc/dcmitype/StillImage"/>
    <dc:date>2026-07-23T19:59:28.342318</dc:date>
    <dc:format>image/svg+xml</dc:format>
    <dc:creator>
     <cc:Agent>
      <dc:title>Matplotlib v3.11.1, https://matplotlib.org/</dc:title>
     </cc:Agent>
    </dc:creator>
   </cc:Work>
  </rdf:RDF>
 </metadata>
 <defs>
  <style type="text/css">*{stroke-linejoin: round; stroke-linecap: butt}</style>
 </defs>
 <g id="figure_1">
  <g id="patch_1">
   <path d="M 0 60 
L 144 60 
L 144 0 
L 0 0 
L 0 60 
z
" style="fill: none; opacity: 0"/>
  </g>
  <g id="axes_1">
   <g id="patch_2">
    <path d="M 5.76 52.8 
L 138.24 52.8 
L 138.24 3.6 
L 5.76 3.6 
L 5.76 52.8 
z
" style="fill: none"/>
   </g>
   <g id="matplotlib.axis_1"/>
   <g id="matplotlib.axis_2"/>
   <g id="line2d_1">
    <path d="M 5.76 42.96 
L 138.24 42.96 
" clip-path="url(#pff028457bc)" style="fill: none; stroke: #b2b2b2; stroke-opacity: 0.35; stroke-width: 0.5; stroke-linecap: square"/>
   </g>
   <g id="line2d_2">
    <path d="M 5.76 33.12 
L 138.24 33.12 
" clip-path="url(#pff028457bc)" style="fill: none; stroke: #b2b2b2; stroke-opacity: 0.35; stroke-width: 0.5; stroke-linecap: square"/>
   </g>
   <g id="line2d_3">
    <path d="M 5.76 23.28 
L 138.24 23.28 
" clip-path="url(#pff028457bc)" style="fill: none; stroke: #b2b2b2; stroke-opacity: 0.35; stroke-width: 0.5; stroke-linecap: square"/>
   </g>
   <g id="line2d_4">
    <path d="M 5.76 13.44 
L 138.24 13.44 
" clip-path="url(#pff028457bc)" style="fill: none; stroke: #b2b2b2; stroke-opacity: 0.35; stroke-width: 0.5; stroke-linecap: square"/>
   </g>
   <g id="line2d_5">
    <path d="M 5.76 49.37568 
L 7.271527 49.4052 
L 8.775939 49.29204 
L 10.267431 49.5528 
L 11.75174 49.50852 
L 13.242612 49.64136 
L 14.747248 49.56756 
L 16.197638 49.56264 
L 17.716227 49.57248 
L 19.204085 49.42488 
L 20.659677 49.49376 
L 22.17427 49.32156 
L 23.66304 49.25268 
L 25.126643 49.24284 
L 26.620461 48.80004 
L 28.138826 48.85416 
L 29.638949 48.72132 
L 31.106651 48.63276 
L 32.602106 48.66228 
L 34.088826 49.09524 
L 35.584539 48.99192 
L 37.053912 49.19364 
L 38.564509 49.34616 
L 40.067336 49.47408 
L 41.545047 49.47408 
L 43.038744 49.54788 
L 44.535594 49.3314 
L 46.012564 49.34616 
L 47.48049 49.51836 
L 48.99243 49.41996 
L 50.500391 49.41504 
L 51.966216 49.5282 
L 53.46987 49.5774 
L 54.95349 49.7742 
L 56.442967 49.7004 
L 57.909876 49.69548 
L 59.428638 49.61676 
L 60.939028 49.71024 
L 62.41276 49.7988 
L 63.917878 50.19732 
L 65.401153 50.45808 
L 66.865014 50.59092 
L 68.330512 50.99928 
L 69.850875 50.82216 
L 71.34583 50.74344 
L 72.805798 50.62536 
L 74.309607 50.80248 
L 75.806715 50.76312 
L 77.300929 50.65488 
L 78.778416 50.6598 
L 80.277592 50.56632 
L 81.81544 50.39412 
L 83.312307 50.23176 
L 84.753274 50.2416 
L 86.234516 50.4138 
L 87.757947 50.55156 
L 89.186803 50.42364 
L 90.706151 50.27112 
L 92.238091 50.217 
L 93.63749 50.35968 
L 95.131187 50.49252 
L 96.619165 50.59092 
L 98.115171 50.59092 
L 99.585302 50.33016 
L 101.102049 50.4384 
L 102.601189 50.3892 
L 104.060709 50.22192 
L 105.570858 50.13336 
L 107.033168 49.95132 
L 108.505349 49.78896 
L 109.987315 49.6266 
L 111.497481 49.7742 
L 113.000274 49.7742 
L 114.466323 49.76436 
L 115.914249 49.91688 
L 117.447739 49.98084 
L 118.932754 49.8972 
L 120.377184 49.971 
L 121.887815 50.03004 
L 123.379445 50.08908 
L 124.8334 50.15796 
L 126.322153 49.98084 
L 127.814249 50.03988 
L 129.302864 50.1432 
L 130.783883 50.1432 
L 132.294634 50.10384 
L 133.803198 50.05956 
L 135.26444 49.95132 
L 136.7539 49.971 
L 138.24 49.99068 
" clip-path="url(#pff028457bc)" style="fill: none; stroke: #bebebe; stroke-width: 0.6; stroke-linecap: round"/>
   </g>
   <g id="line2d_6">
    <path d="M 5.76 41.91696 
L 7.271527 41.98584 
L 8.775939 41.41512 
L 10.267431 42.15312 
L 11.75174 41.96124 
L 13.242612 42.43848 
L 14.747248 42.20232 
L 16.197638 42.02028 
L 17.716227 42.0252 
L 19.204085 41.40528 
L 20.659677 41.46432 
L 22.17427 41.52336 
L 23.66304 41.86776 
L 25.126643 42.1974 
L 26.620461 41.8776 
L 28.138826 41.84316 
L 29.638949 41.8038 
L 31.106651 41.976 
L 32.602106 42.00552 
L 34.088826 42.3942 
L 35.584539 42.27612 
L 37.053912 42.57624 
L 38.564509 42.85176 
L 40.067336 43.31424 
L 41.545047 43.2306 
L 43.038744 43.39296 
L 44.535594 43.16172 
L 46.012564 43.24536 
L 47.48049 43.71768 
L 48.99243 43.33392 
L 50.500391 43.42248 
L 51.966216 43.51596 
L 53.46987 43.67832 
L 54.95349 44.32776 
L 56.442967 44.13588 
L 57.909876 44.16048 
L 59.428638 43.96368 
L 60.939028 44.2392 
L 62.41276 44.19984 
L 63.917878 45.16908 
L 65.401153 45.67584 
L 66.865014 46.00548 
L 68.330512 47.57004 
L 69.850875 47.04852 
L 71.34583 46.64016 
L 72.805798 46.34496 
L 74.309607 46.82712 
L 75.806715 46.65492 
L 77.300929 46.51716 
L 78.778416 46.5516 
L 80.277592 46.46304 
L 81.81544 46.14816 
L 83.312307 45.84312 
L 84.753274 45.6414 
L 86.234516 46.09404 
L 87.757947 46.3302 
L 89.186803 46.21704 
L 90.706151 46.06452 
L 92.238091 46.035 
L 93.63749 46.14324 
L 95.131187 46.52208 
L 96.619165 46.83204 
L 98.115171 47.38308 
L 99.585302 47.14692 
L 101.102049 47.22564 
L 102.601189 47.22072 
L 104.060709 47.10264 
L 105.570858 47.0436 
L 107.033168 46.79268 
L 108.505349 46.27608 
L 109.987315 45.92184 
L 111.497481 45.80376 
L 113.000274 45.75456 
L 114.466323 45.81852 
L 115.914249 45.94152 
L 117.447739 46.02024 
L 118.932754 45.77424 
L 120.377184 45.61188 
L 121.887815 45.51348 
L 123.379445 45.72504 
L 124.8334 45.72996 
L 126.322153 45.08052 
L 127.814249 44.76564 
L 129.302864 45.23796 
L 130.783883 45.29208 
L 132.294634 45.1248 
L 133.803198 45.08544 
L 135.26444 44.69676 
L 136.7539 44.68692 
L 138.24 44.74596 
" clip-path="url(#pff028457bc)" style="fill: none; stroke: #4a8dff; stroke-width: 0.6; stroke-linecap: round"/>
   </g>
   <g id="line2d_7">
    <path d="M 5.76 47.1666 
L 7.271527 47.31912 
L 8.775939 46.49256 
L 10.267431 47.64876 
L 11.75174 47.5356 
L 13.242612 48.0276 
L 14.747248 47.50608 
L 16.197638 46.81728 
L 17.716227 46.92552 
L 19.204085 45.85788 
L 20.659677 45.60204 
L 22.17427 45.29208 
L 23.66304 45.58728 
L 25.126643 46.2564 
L 26.620461 45.7152 
L 28.138826 45.63648 
L 29.638949 45.6414 
L 31.106651 45.45936 
L 32.602106 45.42492 
L 34.088826 46.38432 
L 35.584539 45.57744 
L 37.053912 46.51716 
L 38.564509 46.95996 
L 40.067336 47.54544 
L 41.545047 47.59464 
L 43.038744 47.66844 
L 44.535594 47.05344 
L 46.012564 47.22564 
L 47.48049 48.07188 
L 48.99243 47.6832 
L 50.500391 47.37324 
L 51.966216 47.66844 
L 53.46987 48.07188 
L 54.95349 48.59832 
L 56.442967 48.52452 
L 57.909876 48.5688 
L 59.428638 48.38676 
L 60.939028 48.55404 
L 62.41276 49.0116 
L 63.917878 49.57248 
L 65.401153 49.93656 
L 66.865014 49.98084 
L 68.330512 50.3646 
L 69.850875 50.15796 
L 71.34583 50.07432 
L 72.805798 49.99068 
L 74.309607 50.217 
L 75.806715 50.07924 
L 77.300929 49.98084 
L 78.778416 49.971 
L 80.277592 49.87752 
L 81.81544 49.69548 
L 83.312307 49.65612 
L 84.753274 49.7004 
L 86.234516 49.92672 
L 87.757947 50.06448 
L 89.186803 49.971 
L 90.706151 49.89228 
L 92.238091 49.89228 
L 93.63749 49.9464 
L 95.131187 50.05956 
L 96.619165 50.2416 
L 98.115171 50.35968 
L 99.585302 50.31048 
L 101.102049 50.34492 
L 102.601189 50.38428 
L 104.060709 50.39412 
L 105.570858 50.41872 
L 107.033168 50.27112 
L 108.505349 50.20224 
L 109.987315 50.0694 
L 111.497481 50.03988 
L 113.000274 50.00052 
L 114.466323 50.00544 
L 115.914249 50.05956 
L 117.447739 50.11368 
L 118.932754 49.91196 
L 120.377184 49.90212 
L 121.887815 49.8972 
L 123.379445 50.0448 
L 124.8334 50.08908 
L 126.322153 49.84308 
L 127.814249 49.85292 
L 129.302864 49.97592 
L 130.783883 49.92672 
L 132.294634 49.84308 
L 133.803198 49.83816 
L 135.26444 49.73484 
L 136.7539 49.65612 
L 138.24 49.725 
" clip-path="url(#pff028457bc)" style="fill: none; stroke: #f5841e; stroke-width: 0.7; stroke-linecap: round"/>
   </g>
  </g>
 </g>
 <defs>
  <clipPath id="pff028457bc">
   <rect x="5.76" y="3.6" width="132.48" height="49.2"/>
  </clipPath>
 </defs>
</svg>
