<?xml version="1.0" encoding="utf-8" standalone="no"?>
<!DOCTYPE svg PUBLIC "-//W3C//DTD SVG 1.1//EN"
  "http://www.w3.org/Graphics/SVG/1.1/DTD/svg11.dtd">
<svg xmlns:xlink="http://www.w3.org/1999/xlink" width="144pt" height="60pt" viewBox="0 0 144 60" xmlns="http://www.w3.org/2000/svg" version="1.1">
  <desc id="nav-meta">{"window":"1y","count":4,"labels":["27.02","28.06","27.10","26.02"],"tick_utc":["2025-02-27T12:00:00Z","2025-06-28T12:00:00Z","2025-10-27T12:00:00Z","2026-02-26T03:20:47Z"]}</desc>

 <metadata>
  <rdf:RDF xmlns:dc="http://purl.org/dc/elements/1.1/" xmlns:cc="http://creativecommons.org/ns#" xmlns:rdf="http://www.w3.org/1999/02/22-rdf-syntax-ns#">
   <cc:Work>
    <dc:type rdf:resource="http://purl.org/dc/dcmitype/StillImage"/>
    <dc:date>2026-02-26T19:30:40.444852</dc:date>
    <dc:format>image/svg+xml</dc:format>
    <dc:creator>
     <cc:Agent>
      <dc:title>Matplotlib v3.10.8, https://matplotlib.org/</dc:title>
     </cc:Agent>
    </dc:creator>
   </cc:Work>
  </rdf:RDF>
 </metadata>
 <defs>
  <style type="text/css">*{stroke-linejoin: round; stroke-linecap: butt}</style>
 </defs>
 <g id="figure_1">
  <g id="patch_1">
   <path d="M 0 60 
L 144 60 
L 144 0 
L 0 0 
L 0 60 
z
" style="fill: none; opacity: 0"/>
  </g>
  <g id="axes_1">
   <g id="patch_2">
    <path d="M 5.76 52.8 
L 138.24 52.8 
L 138.24 3.6 
L 5.76 3.6 
L 5.76 52.8 
z
" style="fill: none"/>
   </g>
   <g id="matplotlib.axis_1"/>
   <g id="matplotlib.axis_2"/>
   <g id="line2d_1">
    <path d="M 5.76 42.96 
L 138.24 42.96 
" clip-path="url(#pbf31334030)" style="fill: none; stroke: #b2b2b2; stroke-opacity: 0.35; stroke-width: 0.5; stroke-linecap: square"/>
   </g>
   <g id="line2d_2">
    <path d="M 5.76 33.12 
L 138.24 33.12 
" clip-path="url(#pbf31334030)" style="fill: none; stroke: #b2b2b2; stroke-opacity: 0.35; stroke-width: 0.5; stroke-linecap: square"/>
   </g>
   <g id="line2d_3">
    <path d="M 5.76 23.28 
L 138.24 23.28 
" clip-path="url(#pbf31334030)" style="fill: none; stroke: #b2b2b2; stroke-opacity: 0.35; stroke-width: 0.5; stroke-linecap: square"/>
   </g>
   <g id="line2d_4">
    <path d="M 5.76 13.44 
L 138.24 13.44 
" clip-path="url(#pbf31334030)" style="fill: none; stroke: #b2b2b2; stroke-opacity: 0.35; stroke-width: 0.5; stroke-linecap: square"/>
   </g>
   <g id="line2d_5">
    <path d="M 5.76 44.08176 
L 6.124317 43.698 
L 6.488634 42.3204 
L 6.852951 42.94032 
L 7.217268 38.41392 
L 7.581585 43.0584 
L 7.945902 42.72384 
L 8.310218 42.58116 
L 8.674535 42.9354 
L 9.038852 43.49136 
L 9.403169 43.79148 
L 10.131803 46.14816 
L 10.49612 45.28224 
L 10.860437 45.13464 
L 11.224754 45.5676 
L 11.589071 44.22444 
L 11.953388 43.92924 
L 12.317705 45.18876 
L 12.682022 44.91324 
L 13.046339 45.297 
L 13.410655 43.95384 
L 13.774972 44.99196 
L 14.503606 44.89848 
L 14.867923 44.41632 
L 15.23224 43.30932 
L 15.596557 42.87144 
L 15.960874 43.76196 
L 16.325191 43.59468 
L 16.689508 44.76072 
L 17.053825 45.40524 
L 17.782459 45.35604 
L 18.146775 45.10512 
L 18.511092 46.24164 
L 18.875409 46.3548 
L 19.239726 45.63648 
L 19.604043 45.97104 
L 19.96836 47.84556 
L 20.332677 47.71272 
L 20.696994 47.88 
L 21.061311 46.12848 
L 21.425628 46.91568 
L 22.154262 44.40648 
L 22.518579 44.91816 
L 22.882895 44.76564 
L 23.247212 45.16908 
L 23.611529 44.49504 
L 23.975846 44.08668 
L 24.340163 44.17032 
L 24.70448 43.43232 
L 25.433114 43.86528 
L 25.797431 42.23676 
L 26.526065 41.7792 
L 27.619016 42.31056 
L 27.983332 42.345 
L 28.347649 42.5418 
L 28.711966 42.37944 
L 29.076283 41.98584 
L 29.4406 42.345 
L 29.804917 42.49752 
L 30.169234 42.86652 
L 30.533551 42.49752 
L 31.262185 42.44832 
L 31.626502 40.33272 
L 31.990819 39.12732 
L 32.355136 38.52216 
L 32.719452 39.10272 
L 33.083769 38.901 
L 33.448086 37.6464 
L 34.17672 39.639 
L 34.905354 40.008 
L 35.269671 39.27492 
L 35.633988 39.90468 
L 35.998305 39.6882 
L 36.726939 38.22696 
L 37.091256 38.901 
L 37.455572 38.69436 
L 38.184206 38.86164 
L 38.548523 38.62056 
L 39.277157 39.88992 
L 39.641474 41.23308 
L 40.734425 41.17404 
L 41.463059 41.62176 
L 41.827376 42.79272 
L 42.191693 42.30564 
L 42.920326 41.7546 
L 43.284643 40.62792 
L 43.64896 40.131 
L 44.013277 40.6476 
L 44.377594 41.73492 
L 45.106228 42.76812 
L 45.470545 41.73492 
L 45.834862 41.89728 
L 46.199179 42.345 
L 46.563496 42.5664 
L 46.927813 42.46308 
L 47.656446 44.20476 
L 48.020763 44.45076 
L 48.38508 42.7632 
L 48.749397 42.63036 
L 49.113714 42.94524 
L 49.478031 43.52088 
L 49.842348 43.1076 
L 50.206665 41.98092 
L 50.935299 41.43972 
L 51.299616 42.4926 
L 51.663933 41.79888 
L 52.028249 41.78412 
L 52.392566 42.37452 
L 52.756883 42.3942 
L 53.1212 41.83332 
L 53.485517 42.24168 
L 53.849834 41.84316 
L 54.578468 40.2786 
L 54.942785 40.42128 
L 55.307102 40.71648 
L 56.035736 40.48032 
L 56.400053 40.26384 
L 56.76437 38.97972 
L 57.493003 38.51724 
L 57.85732 38.57628 
L 58.221637 38.04492 
L 58.585954 36.03264 
L 58.950271 34.88136 
L 59.314588 36.92316 
L 59.678905 37.8432 
L 60.043222 37.37088 
L 60.407539 37.53324 
L 60.771856 37.056 
L 61.136173 37.77924 
L 61.50049 38.02032 
L 61.864806 38.45328 
L 62.229123 39.1962 
L 62.59344 40.41636 
L 62.957757 40.97232 
L 63.322074 40.53444 
L 63.686391 39.55536 
L 64.050708 40.24908 
L 64.415025 39.7128 
L 64.779342 38.778 
L 65.143659 38.59104 
L 65.872293 37.794 
L 66.23661 38.82228 
L 66.600926 36.53448 
L 66.965243 35.334 
L 67.693877 37.44468 
L 68.058194 36.90348 
L 68.422511 36.65748 
L 69.151145 38.64516 
L 69.515462 37.2282 
L 69.879779 38.14332 
L 70.244096 35.53572 
L 70.608413 35.04372 
L 70.97273 34.80264 
L 71.337047 37.23804 
L 72.429997 33.67104 
L 72.794314 34.90596 
L 73.887265 35.9736 
L 74.251582 34.36476 
L 74.615899 34.1778 
L 74.980216 35.22084 
L 75.344533 35.11752 
L 75.70885 35.54556 
L 77.166117 32.44104 
L 77.530434 31.83096 
L 77.894751 30.06468 
L 78.259068 30.01056 
L 78.623385 30.291 
L 78.987702 31.16184 
L 79.352019 30.74856 
L 79.716336 29.71536 
L 80.080653 29.37588 
L 80.44497 30.57636 
L 80.809287 30.42876 
L 81.173603 30.79284 
L 81.53792 32.91828 
L 81.902237 33.72024 
L 82.266554 34.05972 
L 82.630871 36.5886 
L 82.995188 34.90104 
L 83.359505 35.10276 
L 83.723822 34.16796 
L 84.088139 33.8826 
L 84.452456 34.43364 
L 85.18109 31.05852 
L 85.545407 31.26024 
L 85.909724 31.92936 
L 86.27404 31.85064 
L 86.638357 31.3242 
L 87.002674 32.84448 
L 87.366991 31.78176 
L 87.731308 32.85924 
L 88.095625 36.8838 
L 88.459942 38.39424 
L 88.824259 35.95392 
L 89.188576 34.53696 
L 89.552893 35.20608 
L 90.281527 37.57752 
L 90.645844 37.90716 
L 91.01016 37.18884 
L 91.374477 37.18392 
L 91.738794 36.89364 
L 92.103111 37.42008 
L 92.467428 38.17284 
L 92.831745 36.687 
L 93.196062 36.42132 
L 93.560379 36.34752 
L 93.924696 35.56032 
L 94.289013 35.72268 
L 94.65333 36.29832 
L 95.017647 36.32292 
L 95.381964 37.61688 
L 95.74628 37.2282 
L 96.110597 37.34628 
L 96.474914 37.23804 
L 96.839231 40.008 
L 97.203548 41.36592 
L 97.567865 40.43604 
L 97.932182 41.44956 
L 98.296499 40.53444 
L 98.660816 41.02152 
L 99.025133 40.22448 
L 99.38945 39.79644 
L 99.753767 41.51844 
L 100.118084 41.66604 
L 100.846717 43.51596 
L 101.211034 43.43724 
L 101.575351 43.71276 
L 101.939668 44.59836 
L 102.303985 43.30932 
L 103.396936 44.88372 
L 103.761253 44.99688 
L 104.12557 44.57868 
L 104.489887 43.5996 
L 104.854204 43.51596 
L 105.218521 43.00428 
L 105.582837 43.2798 
L 105.947154 43.71768 
L 106.675788 44.0916 
L 107.040105 45.11004 
L 107.404422 43.55532 
L 107.768739 42.72876 
L 108.497373 44.27364 
L 109.226007 44.47536 
L 109.590324 44.25888 
L 109.954641 43.64388 
L 110.318957 43.84068 
L 110.683274 43.85052 
L 111.047591 44.36712 
L 111.411908 44.26872 
L 111.776225 44.74104 
L 112.140542 44.98704 
L 112.504859 44.84436 
L 112.869176 45.58728 
L 113.233493 46.0596 
L 113.59781 45.18384 
L 115.055078 45.47904 
L 115.419394 45.65616 
L 115.783711 45.98088 
L 116.512345 45.38556 
L 116.876662 45.31668 
L 117.240979 45.58728 
L 117.605296 45.35604 
L 117.969613 45.40032 
L 118.33393 45.11496 
L 118.698247 44.42124 
L 119.426881 44.18508 
L 120.155514 43.24044 
L 120.519831 43.8702 
L 120.884148 43.60944 
L 121.248465 43.92924 
L 121.612782 43.93416 
L 121.977099 43.46184 
L 122.341416 43.5012 
L 122.705733 42.72384 
L 123.07005 42.51228 
L 123.434367 43.08792 
L 123.798684 42.75828 
L 124.163001 42.90096 
L 124.891634 44.2392 
L 125.255951 45.23304 
L 125.620268 44.77548 
L 126.348902 45.04608 
L 126.713219 45.07068 
L 127.077536 46.1334 
L 127.441853 45.4446 
L 127.80617 45.06084 
L 128.170487 45.33144 
L 128.534804 46.30068 
L 128.899121 46.34496 
L 129.263438 47.89476 
L 129.627755 48.26376 
L 129.992071 47.96364 
L 130.953286 50.04972 
L 131.316043 49.24776 
L 132.779956 49.59708 
L 133.142962 49.80372 
L 133.507169 49.86768 
L 134.212198 49.24776 
L 134.599884 49.48392 
L 134.918437 49.37568 
L 135.32794 49.479 
L 135.691814 49.7004 
L 136.784571 49.49376 
L 137.149984 49.98576 
L 137.483524 49.96608 
L 137.877306 49.7004 
L 138.24 49.27236 
L 138.24 49.27236 
" clip-path="url(#pbf31334030)" style="fill: none; stroke: #bebebe; stroke-width: 0.6; stroke-linecap: round"/>
   </g>
   <g id="line2d_6">
    <path d="M 5.76 41.86776 
L 6.124317 42.01536 
L 6.488634 42.50736 
L 6.852951 42.66972 
L 7.217268 40.51476 
L 7.581585 43.12728 
L 7.945902 42.96 
L 8.310218 42.468 
L 8.674535 42.74352 
L 9.038852 43.17648 
L 9.403169 42.75828 
L 10.131803 45.0264 
L 10.49612 44.7312 
L 10.860437 44.805 
L 11.224754 45.14448 
L 11.953388 44.59836 
L 12.317705 44.96736 
L 12.682022 44.67216 
L 13.046339 44.64756 
L 13.410655 43.74228 
L 13.774972 44.30808 
L 14.139289 44.42616 
L 14.867923 44.1654 
L 15.23224 43.6242 
L 15.596557 43.68816 
L 15.960874 44.10144 
L 16.325191 44.15064 
L 16.689508 44.9034 
L 17.053825 45.38064 
L 17.418142 45.55284 
L 17.782459 45.41508 
L 18.146775 44.8296 
L 18.511092 45.6168 
L 18.875409 45.45936 
L 19.604043 45.5184 
L 19.96836 47.18136 
L 20.332677 47.3142 
L 20.696994 47.90952 
L 21.061311 46.56144 
L 21.425628 47.54052 
L 21.789945 47.23056 
L 22.154262 46.67952 
L 22.518579 47.03376 
L 22.882895 46.85172 
L 23.247212 47.08788 
L 23.611529 47.16168 
L 24.340163 47.07804 
L 24.70448 46.896 
L 25.068797 47.10756 
L 25.433114 47.16168 
L 25.797431 45.87264 
L 26.161748 45.63156 
L 26.526065 45.80376 
L 27.254699 45.43968 
L 27.619016 45.63156 
L 28.347649 45.61188 
L 28.711966 45.63156 
L 29.076283 45.31176 
L 29.804917 45.3462 
L 30.169234 45.52824 
L 30.897868 45.47412 
L 31.262185 45.51348 
L 31.626502 42.77796 
L 31.990819 41.75952 
L 32.355136 40.04244 
L 32.719452 40.58364 
L 33.083769 40.69188 
L 33.448086 39.38808 
L 34.17672 40.33764 
L 34.541037 40.32288 
L 34.905354 40.81488 
L 35.269671 40.88376 
L 35.633988 40.44588 
L 35.998305 40.46556 
L 36.362622 40.21956 
L 36.726939 39.52584 
L 37.091256 40.49508 
L 38.184206 40.19496 
L 38.548523 39.4914 
L 38.91284 39.38808 
L 39.277157 39.69312 
L 39.641474 40.46556 
L 40.370108 40.36716 
L 40.734425 39.8604 
L 41.098742 39.96372 
L 41.463059 39.85548 
L 41.827376 41.1888 
L 42.556009 40.4508 
L 42.920326 40.5738 
L 43.64896 38.45328 
L 44.013277 38.68452 
L 44.377594 39.55536 
L 44.741911 40.09164 
L 45.106228 40.39668 
L 45.834862 40.2048 
L 46.199179 40.52952 
L 46.927813 40.48032 
L 47.656446 42.26136 
L 48.020763 42.5664 
L 48.38508 41.17404 
L 48.749397 41.0166 
L 49.113714 41.22324 
L 49.842348 41.17896 
L 50.206665 41.08056 
L 50.570982 40.61808 
L 50.935299 40.7214 
L 51.299616 41.30688 
L 51.663933 40.11132 
L 52.028249 39.99816 
L 52.392566 40.56888 
L 52.756883 40.51476 
L 53.1212 40.131 
L 53.485517 40.3278 
L 53.849834 39.81612 
L 54.578468 37.46436 
L 54.942785 37.39056 
L 55.307102 37.50372 
L 56.035736 37.01172 
L 56.400053 36.16056 
L 56.76437 34.4976 
L 57.128686 33.69072 
L 57.85732 32.89368 
L 58.221637 31.73256 
L 58.585954 31.68336 
L 58.950271 31.8162 
L 59.314588 32.64276 
L 59.678905 32.0868 
L 60.407539 31.85064 
L 60.771856 30.98964 
L 61.136173 31.53576 
L 61.50049 31.521 
L 61.864806 31.38816 
L 62.229123 32.17044 
L 62.59344 33.68088 
L 62.957757 34.28604 
L 63.322074 33.58248 
L 63.686391 32.0376 
L 64.050708 32.76576 
L 64.415025 32.259 
L 64.779342 30.65508 
L 65.143659 29.93676 
L 65.507976 28.14588 
L 66.23661 28.40664 
L 66.600926 25.73508 
L 66.965243 24.62316 
L 67.32956 26.10408 
L 67.693877 26.97984 
L 68.058194 27.00936 
L 68.422511 26.58132 
L 68.786828 27.7818 
L 69.151145 29.49888 
L 69.515462 27.68832 
L 69.879779 28.44108 
L 70.244096 24.16068 
L 70.608413 24.55428 
L 70.97273 24.51984 
L 71.337047 27.32916 
L 71.701363 25.7646 
L 72.06568 26.48784 
L 72.429997 26.43372 
L 72.794314 27.44724 
L 73.522948 27.27504 
L 73.887265 27.8802 
L 74.251582 27.72276 
L 74.615899 26.84208 
L 74.980216 27.91956 
L 75.344533 27.8556 
L 75.70885 28.09668 
L 76.073167 27.87528 
L 76.8018 27.83592 
L 77.166117 27.57024 
L 77.530434 26.77812 
L 77.894751 25.01184 
L 78.623385 25.71048 
L 78.987702 26.31564 
L 79.352019 26.45832 
L 79.716336 25.8384 
L 80.080653 25.84824 
L 80.44497 26.6994 
L 80.809287 26.62068 
L 81.173603 26.8224 
L 81.53792 28.61328 
L 82.266554 28.97244 
L 82.630871 30.99456 
L 82.995188 29.76456 
L 83.359505 29.8974 
L 83.723822 29.02164 
L 84.088139 28.50012 
L 84.452456 29.00688 
L 85.18109 26.601 
L 85.545407 26.3796 
L 85.909724 26.5764 
L 86.27404 26.3796 
L 86.638357 25.1496 
L 87.002674 26.81256 
L 87.366991 26.29596 
L 87.731308 27.41772 
L 88.095625 31.19136 
L 88.459942 31.80144 
L 88.824259 28.89864 
L 89.188576 28.28364 
L 90.281527 30.80268 
L 90.645844 31.22088 
L 91.01016 30.8076 
L 91.374477 30.13356 
L 91.738794 30.17784 
L 92.467428 31.42752 
L 92.831745 31.04376 
L 93.196062 30.49764 
L 93.560379 30.3648 
L 93.924696 28.88388 
L 94.289013 29.15448 
L 94.65333 30.15324 
L 95.381964 31.4226 
L 96.110597 30.9306 
L 96.474914 30.66 
L 97.203548 34.99944 
L 97.567865 34.07448 
L 97.932182 34.9158 
L 98.296499 34.02528 
L 98.660816 34.26144 
L 99.025133 33.0216 
L 99.38945 33.10524 
L 99.753767 34.1532 
L 100.118084 34.2024 
L 100.846717 36.34752 
L 101.211034 35.89488 
L 101.939668 36.94776 
L 102.303985 36.2688 
L 102.668302 36.97236 
L 103.032619 38.286 
L 103.396936 38.76324 
L 103.761253 38.73864 
L 104.12557 38.51724 
L 104.489887 37.42992 
L 104.854204 37.42008 
L 105.218521 36.90348 
L 105.582837 36.98712 
L 105.947154 36.86412 
L 106.311471 37.16424 
L 106.675788 37.14948 
L 107.040105 38.52216 
L 107.768739 35.71776 
L 108.133056 36.15564 
L 108.497373 36.93792 
L 109.226007 36.72636 
L 109.590324 36.21468 
L 109.954641 34.8174 
L 110.318957 34.7928 
L 110.683274 35.42748 
L 111.047591 36.49512 
L 111.411908 36.28356 
L 111.776225 36.6378 
L 112.140542 37.3512 
L 112.504859 37.3512 
L 112.869176 38.31552 
L 113.233493 38.32536 
L 113.59781 37.26264 
L 113.962127 37.26264 
L 114.326444 37.09044 
L 114.690761 37.06092 
L 115.055078 37.34628 
L 115.419394 37.48404 
L 115.783711 37.77924 
L 116.512345 37.45944 
L 117.240979 37.56276 
L 117.605296 37.31184 
L 117.969613 37.33644 
L 118.33393 37.09536 
L 118.698247 36.23928 
L 119.426881 36.11628 
L 120.155514 35.0142 
L 120.519831 35.93424 
L 120.884148 36.36228 
L 121.248465 36.50988 
L 121.612782 36.5148 
L 121.977099 36.25404 
L 122.341416 36.46068 
L 122.705733 34.83708 
L 123.07005 34.57632 
L 123.798684 35.00436 
L 124.163001 34.93056 
L 124.527318 35.088 
L 124.891634 35.78664 
L 125.255951 37.55292 
L 125.620268 37.26756 
L 125.984585 37.46436 
L 126.713219 37.45944 
L 127.077536 38.41392 
L 127.80617 36.95268 
L 128.170487 37.05108 
L 128.534804 38.37948 
L 128.899121 39.20604 
L 129.263438 41.03136 
L 129.627755 42.26628 
L 129.992071 41.73492 
L 130.299637 42.23676 
L 130.953286 44.89356 
L 131.316043 43.6242 
L 132.049998 43.53072 
L 132.416394 43.72752 
L 133.142962 44.436 
L 133.507169 44.49012 
L 133.867105 43.81608 
L 134.212198 43.7226 
L 134.599884 44.5344 
L 134.918437 44.19 
L 135.32794 44.21952 
L 136.054001 44.51472 
L 136.784571 44.3868 
L 137.149984 45.174 
L 137.483524 45.23796 
L 137.877306 44.81484 
L 138.24 43.821 
L 138.24 43.821 
" clip-path="url(#pbf31334030)" style="fill: none; stroke: #4a8dff; stroke-width: 0.6; stroke-linecap: round"/>
   </g>
   <g id="line2d_7">
    <path d="M 5.76 44.11128 
L 6.124317 43.71276 
L 6.488634 43.8456 
L 6.852951 43.07316 
L 7.217268 38.99448 
L 7.581585 43.01412 
L 7.945902 42.42864 
L 8.310218 40.80012 
L 8.674535 41.10024 
L 9.038852 42.69432 
L 9.403169 43.00428 
L 9.767486 45.666 
L 10.131803 46.64016 
L 10.49612 44.6574 
L 10.860437 44.12112 
L 11.224754 45.4938 
L 11.589071 44.07684 
L 11.953388 43.8702 
L 12.317705 44.75088 
L 12.682022 44.02764 
L 13.046339 44.66724 
L 13.410655 42.67464 
L 13.774972 43.92924 
L 14.503606 44.1654 
L 15.23224 42.4188 
L 15.596557 42.32532 
L 15.960874 42.60084 
L 16.325191 42.468 
L 16.689508 43.88496 
L 17.053825 44.71644 
L 17.418142 44.87388 
L 17.782459 44.79516 
L 18.146775 43.452 
L 18.511092 44.79024 
L 19.239726 44.13588 
L 19.604043 44.2638 
L 19.96836 46.9206 
L 20.332677 46.44336 
L 20.696994 47.85048 
L 21.061311 44.74596 
L 21.425628 46.23672 
L 21.789945 44.34252 
L 22.154262 43.41756 
L 22.518579 44.25888 
L 22.882895 43.80624 
L 23.247212 44.23428 
L 23.611529 44.01288 
L 23.975846 43.60452 
L 24.340163 43.85052 
L 24.70448 43.50612 
L 25.068797 43.53072 
L 25.433114 42.35976 
L 25.797431 39.33396 
L 26.161748 39.3192 
L 26.526065 39.18636 
L 26.890382 38.74356 
L 27.254699 38.80752 
L 27.619016 39.2208 
L 27.983332 38.61564 
L 28.347649 38.9994 
L 28.711966 39.00924 
L 29.076283 37.92684 
L 29.4406 37.71528 
L 29.804917 38.17284 
L 30.169234 38.96496 
L 30.533551 38.74848 
L 30.897868 37.71528 
L 31.262185 37.63164 
L 31.626502 34.64028 
L 31.990819 34.69932 
L 32.355136 33.87276 
L 32.719452 34.18764 
L 33.083769 34.73868 
L 33.448086 34.09416 
L 33.812403 34.38444 
L 34.17672 34.33032 
L 34.905354 34.57632 
L 35.269671 33.18396 
L 35.633988 33.38076 
L 35.998305 32.81004 
L 36.362622 31.38816 
L 36.726939 30.45336 
L 37.091256 32.59848 
L 37.455572 32.29344 
L 37.819889 31.78176 
L 38.184206 31.53084 
L 38.548523 31.68336 
L 38.91284 32.28852 
L 39.641474 34.1778 
L 40.005791 33.84324 
L 40.370108 33.3414 
L 40.734425 33.25284 
L 41.463059 33.7842 
L 41.827376 35.34384 
L 42.191693 33.981 
L 42.556009 33.35616 
L 42.920326 33.35124 
L 43.284643 31.09296 
L 43.64896 31.11756 
L 44.013277 31.87524 
L 44.377594 33.20856 
L 44.741911 33.17412 
L 45.106228 33.45456 
L 45.470545 33.4152 
L 45.834862 32.7264 
L 46.199179 33.84816 
L 46.927813 33.84324 
L 48.020763 35.73744 
L 48.38508 33.4398 
L 48.749397 33.20856 
L 49.113714 32.58372 
L 49.478031 32.71164 
L 50.206665 32.53944 
L 50.570982 32.013 
L 51.299616 33.3906 
L 51.663933 31.80144 
L 52.028249 31.41768 
L 52.392566 32.19012 
L 52.756883 32.10156 
L 53.1212 31.60956 
L 53.485517 32.0622 
L 53.849834 31.73748 
L 54.214151 30.56652 
L 54.578468 28.31808 
L 54.942785 27.48168 
L 55.307102 27.55548 
L 55.671419 26.71908 
L 56.035736 26.36484 
L 56.400053 27.42756 
L 57.128686 26.55672 
L 57.493003 27.27504 
L 57.85732 27.31932 
L 58.221637 27.63912 
L 58.585954 27.52596 
L 58.950271 26.3058 
L 59.314588 26.96016 
L 59.678905 27.09792 
L 60.043222 27.49644 
L 60.407539 27.2898 
L 60.771856 26.57148 
L 61.136173 27.27012 
L 61.864806 27.35376 
L 62.59344 29.62188 
L 62.957757 29.96136 
L 63.322074 29.14956 
L 63.686391 28.68216 
L 64.050708 29.184 
L 64.415025 28.7412 
L 64.779342 27.5358 
L 65.143659 27.91956 
L 65.507976 28.00812 
L 65.872293 26.64528 
L 66.23661 26.88636 
L 66.600926 26.1828 
L 66.965243 24.52476 
L 67.32956 27.0684 
L 67.693877 27.59484 
L 68.422511 27.49644 
L 68.786828 28.13112 
L 69.151145 29.8482 
L 69.515462 29.12004 
L 69.879779 30.03024 
L 70.244096 27.84576 
L 70.97273 29.54316 
L 71.337047 31.13232 
L 71.701363 30.31068 
L 72.06568 30.62064 
L 72.429997 29.97612 
L 72.794314 31.97364 
L 73.158631 31.82112 
L 73.522948 32.0868 
L 73.887265 31.63416 
L 74.251582 30.6354 
L 74.615899 30.37464 
L 74.980216 30.86172 
L 75.344533 30.89616 
L 75.70885 31.11756 
L 76.437483 30.22212 
L 76.8018 30.45828 
L 77.166117 29.2578 
L 77.530434 28.50504 
L 77.894751 28.18032 
L 78.259068 28.2738 
L 78.623385 28.569 
L 78.987702 28.55424 
L 79.352019 27.8802 
L 79.716336 28.03272 
L 80.080653 27.69324 
L 80.44497 28.42632 
L 80.809287 28.3968 
L 81.173603 28.60344 
L 81.53792 29.88756 
L 81.902237 30.22212 
L 82.266554 29.58252 
L 82.630871 31.73256 
L 82.995188 31.36356 
L 83.359505 31.39308 
L 84.088139 29.09544 
L 84.452456 29.2332 
L 84.816773 27.02412 
L 85.545407 25.16928 
L 85.909724 25.10532 
L 86.638357 23.92452 
L 87.002674 25.53336 
L 87.366991 24.62808 
L 87.731308 25.4448 
L 88.095625 29.64156 
L 88.459942 30.80268 
L 88.824259 28.65756 
L 89.188576 28.6428 
L 89.91721 30.87156 
L 90.281527 32.17044 
L 90.645844 32.97732 
L 91.01016 32.628 
L 91.374477 31.90476 
L 91.738794 30.92076 
L 92.103111 31.96872 
L 92.467428 32.39676 
L 92.831745 31.19628 
L 93.560379 30.42384 
L 93.924696 29.0118 
L 94.289013 29.15448 
L 94.65333 29.76456 
L 95.017647 31.2012 
L 95.381964 32.09172 
L 95.74628 31.43244 
L 96.474914 30.90108 
L 97.203548 35.35368 
L 97.567865 34.24668 
L 97.932182 35.5062 
L 98.296499 34.48284 
L 98.660816 35.02896 
L 99.025133 33.8334 
L 99.38945 33.243 
L 99.753767 34.69932 
L 100.482401 36.2934 
L 100.846717 38.901 
L 101.211034 38.37948 
L 101.575351 38.92068 
L 101.939668 40.09164 
L 102.303985 39.70788 
L 102.668302 40.4262 
L 103.032619 42.75336 
L 103.396936 43.54548 
L 103.761253 43.72752 
L 104.489887 41.976 
L 104.854204 42.42864 
L 105.218521 40.86408 
L 105.582837 40.47048 
L 106.675788 40.89852 
L 107.040105 42.9354 
L 107.404422 40.43604 
L 107.768739 39.31428 
L 108.133056 40.04244 
L 108.497373 41.43972 
L 108.86169 41.47416 
L 109.226007 41.02152 
L 109.590324 40.7952 
L 109.954641 39.75708 
L 110.318957 40.11132 
L 110.683274 39.87024 
L 111.047591 40.94772 
L 111.411908 40.97232 
L 112.140542 42.87144 
L 112.504859 42.17772 
L 112.869176 43.04364 
L 113.233493 43.34868 
L 113.59781 42.03504 
L 114.326444 41.8038 
L 114.690761 41.84316 
L 115.055078 42.37944 
L 115.419394 42.26628 
L 115.783711 42.468 
L 116.148028 42.42864 
L 116.512345 42.18264 
L 116.876662 42.1728 
L 117.240979 42.50244 
L 117.605296 41.88252 
L 117.969613 42.32532 
L 118.698247 41.13468 
L 119.426881 40.42128 
L 119.791198 39.16176 
L 120.155514 39.28968 
L 120.519831 40.48032 
L 121.612782 40.88376 
L 122.341416 40.53936 
L 122.705733 38.50248 
L 123.07005 37.63656 
L 123.434367 38.34012 
L 123.798684 38.37456 
L 124.163001 38.5812 
L 124.891634 39.8358 
L 125.255951 41.93172 
L 125.620268 41.42004 
L 126.348902 41.39052 
L 126.713219 41.5086 
L 127.077536 42.80256 
L 127.441853 41.93664 
L 127.80617 41.49384 
L 128.170487 41.51352 
L 128.534804 43.78164 
L 128.899121 43.9932 
L 129.263438 46.66968 
L 129.627755 47.55036 
L 129.992071 46.64508 
L 130.589155 48.89352 
L 130.953286 49.84308 
L 131.316043 49.00176 
L 131.688688 49.233 
L 132.049998 48.97716 
L 132.779956 49.36092 
L 133.507169 49.58724 
L 133.867105 49.28712 
L 134.212198 49.16904 
L 134.599884 49.39044 
L 134.918437 49.29696 
L 135.691814 49.55772 
L 136.784571 49.41996 
L 137.149984 49.8234 
L 137.483524 49.86768 
L 137.877306 49.72992 
L 138.24 49.39536 
L 138.24 49.39536 
" clip-path="url(#pbf31334030)" style="fill: none; stroke: #f5841e; stroke-width: 0.7; stroke-linecap: round"/>
   </g>
  </g>
 </g>
 <defs>
  <clipPath id="pbf31334030">
   <rect x="5.76" y="3.6" width="132.48" height="49.2"/>
  </clipPath>
 </defs>
</svg>
