<?xml version="1.0" encoding="utf-8" standalone="no"?>
<!DOCTYPE svg PUBLIC "-//W3C//DTD SVG 1.1//EN"
  "http://www.w3.org/Graphics/SVG/1.1/DTD/svg11.dtd">
<svg xmlns:xlink="http://www.w3.org/1999/xlink" width="144pt" height="60pt" viewBox="0 0 144 60" xmlns="http://www.w3.org/2000/svg" version="1.1">
  <desc id="nav-meta">{"window":"6m","count":4,"labels":["18.01","19.03","17.05","16.07"],"tick_utc":["2026-01-18T12:00:00Z","2026-03-19T03:32:50Z","2026-05-17T04:42:26Z","2026-07-16T03:51:26Z"]}</desc>

 <metadata>
  <rdf:RDF xmlns:dc="http://purl.org/dc/elements/1.1/" xmlns:cc="http://creativecommons.org/ns#" xmlns:rdf="http://www.w3.org/1999/02/22-rdf-syntax-ns#">
   <cc:Work>
    <dc:type rdf:resource="http://purl.org/dc/dcmitype/StillImage"/>
    <dc:date>2026-07-16T19:44:54.581253</dc:date>
    <dc:format>image/svg+xml</dc:format>
    <dc:creator>
     <cc:Agent>
      <dc:title>Matplotlib v3.11.0, https://matplotlib.org/</dc:title>
     </cc:Agent>
    </dc:creator>
   </cc:Work>
  </rdf:RDF>
 </metadata>
 <defs>
  <style type="text/css">*{stroke-linejoin: round; stroke-linecap: butt}</style>
 </defs>
 <g id="figure_1">
  <g id="patch_1">
   <path d="M 0 60 
L 144 60 
L 144 0 
L 0 0 
L 0 60 
z
" style="fill: none; opacity: 0"/>
  </g>
  <g id="axes_1">
   <g id="patch_2">
    <path d="M 5.76 52.8 
L 138.24 52.8 
L 138.24 3.6 
L 5.76 3.6 
L 5.76 52.8 
z
" style="fill: none"/>
   </g>
   <g id="matplotlib.axis_1"/>
   <g id="matplotlib.axis_2"/>
   <g id="line2d_1">
    <path d="M 5.76 42.96 
L 138.24 42.96 
" clip-path="url(#pe80c63efbb)" style="fill: none; stroke: #b2b2b2; stroke-opacity: 0.35; stroke-width: 0.5; stroke-linecap: square"/>
   </g>
   <g id="line2d_2">
    <path d="M 5.76 33.12 
L 138.24 33.12 
" clip-path="url(#pe80c63efbb)" style="fill: none; stroke: #b2b2b2; stroke-opacity: 0.35; stroke-width: 0.5; stroke-linecap: square"/>
   </g>
   <g id="line2d_3">
    <path d="M 5.76 23.28 
L 138.24 23.28 
" clip-path="url(#pe80c63efbb)" style="fill: none; stroke: #b2b2b2; stroke-opacity: 0.35; stroke-width: 0.5; stroke-linecap: square"/>
   </g>
   <g id="line2d_4">
    <path d="M 5.76 13.44 
L 138.24 13.44 
" clip-path="url(#pe80c63efbb)" style="fill: none; stroke: #b2b2b2; stroke-opacity: 0.35; stroke-width: 0.5; stroke-linecap: square"/>
   </g>
   <g id="line2d_5">
    <path d="M 5.76 42.90096 
L 7.243034 44.2392 
L 7.984552 45.23304 
L 8.726069 44.77548 
L 10.209103 45.04608 
L 10.950621 45.07068 
L 11.692138 46.1334 
L 12.433655 45.4446 
L 13.175172 45.06084 
L 13.91669 45.33144 
L 14.658207 46.30068 
L 15.399724 46.34496 
L 16.141241 47.89476 
L 16.882758 48.26376 
L 17.624276 47.96364 
L 18.839557 49.06572 
L 19.580697 50.04972 
L 20.319039 49.24776 
L 23.298633 49.59708 
L 24.037481 49.80372 
L 24.778775 49.86768 
L 25.511376 49.479 
L 26.213766 49.24776 
L 27.002847 49.48392 
L 27.651219 49.37568 
L 28.484705 49.479 
L 29.225321 49.7004 
L 31.449478 49.49376 
L 32.193227 49.98576 
L 32.872101 49.96608 
L 33.673592 49.7004 
L 34.411805 49.27236 
L 35.151915 49.37076 
L 35.884695 49.68072 
L 36.64306 49.25268 
L 37.376921 49.51344 
L 39.600641 49.09032 
L 41.826351 49.64628 
L 42.570091 49.58724 
L 43.306845 49.36092 
L 44.792506 49.45932 
L 45.53259 49.16904 
L 47.028824 49.27236 
L 47.772435 48.87384 
L 49.248149 48.70164 
L 49.989872 49.03128 
L 50.724171 49.1592 
L 51.461346 49.08048 
L 52.957211 49.36584 
L 54.488607 48.90828 
L 55.183917 49.05096 
L 56.660798 49.64628 
L 59.64077 49.59708 
L 60.372521 49.8726 
L 61.850054 49.80864 
L 64.08287 49.83816 
L 64.825589 49.50852 
L 65.564523 49.68564 
L 67.043043 49.48884 
L 67.797863 49.6512 
L 68.543182 49.69056 
L 69.279979 49.40028 
L 70.02093 49.58724 
L 72.239002 49.19856 
L 72.990312 49.43472 
L 73.733666 49.50852 
L 77.43182 49.37568 
L 78.184872 49.4052 
L 78.934379 49.29204 
L 79.67745 49.5528 
L 80.416941 49.50852 
L 81.159703 49.64136 
L 82.631915 49.56264 
L 83.388486 49.57248 
L 84.129746 49.42488 
L 84.854931 49.49376 
L 86.351225 49.25268 
L 87.080401 49.24284 
L 87.82463 48.80004 
L 88.581089 48.85416 
L 90.059678 48.63276 
L 90.804722 48.66228 
L 91.545416 49.09524 
L 92.290589 48.99192 
L 93.775228 49.34616 
L 94.523946 49.47408 
L 96.00432 49.54788 
L 96.75006 49.3314 
L 97.485896 49.34616 
L 98.217226 49.51836 
L 99.721759 49.41504 
L 101.94032 49.7742 
L 104.169867 49.61676 
L 105.656574 49.7988 
L 106.406434 50.19732 
L 107.145411 50.45808 
L 107.874715 50.59092 
L 108.604835 50.99928 
L 110.107085 50.74344 
L 110.83445 50.62536 
L 111.583657 50.80248 
L 114.556944 50.56632 
L 116.068858 50.23176 
L 116.786757 50.2416 
L 118.283703 50.55156 
L 120.515739 50.217 
L 122.698417 50.59092 
L 123.443736 50.59092 
L 124.176165 50.33016 
L 124.931817 50.4384 
L 125.678698 50.3892 
L 129.358512 49.6266 
L 130.110886 49.7742 
L 131.589981 49.76436 
L 133.075341 49.98084 
L 133.815185 49.8972 
L 136.754923 50.15796 
L 137.496629 49.98084 
L 138.24 50.03988 
L 138.24 50.03988 
" clip-path="url(#pe80c63efbb)" style="fill: none; stroke: #bebebe; stroke-width: 0.6; stroke-linecap: round"/>
   </g>
   <g id="line2d_6">
    <path d="M 5.76 34.93056 
L 6.501517 35.088 
L 7.243034 35.78664 
L 7.984552 37.55292 
L 8.726069 37.26756 
L 9.467586 37.46436 
L 10.950621 37.45944 
L 11.692138 38.41392 
L 13.175172 36.95268 
L 13.91669 37.05108 
L 14.658207 38.37948 
L 15.399724 39.20604 
L 16.141241 41.03136 
L 16.882758 42.26628 
L 17.624276 41.73492 
L 18.250283 42.23676 
L 19.580697 44.89356 
L 20.319039 43.6242 
L 21.812904 43.53072 
L 22.558652 43.72752 
L 24.037481 44.436 
L 24.778775 44.49012 
L 25.511376 43.81608 
L 26.213766 43.7226 
L 27.002847 44.5344 
L 27.651219 44.19 
L 28.484705 44.21952 
L 29.962504 44.51472 
L 31.449478 44.3868 
L 32.193227 45.174 
L 32.872101 45.23796 
L 33.673592 44.81484 
L 34.411805 43.821 
L 35.151915 44.01288 
L 35.884695 44.66232 
L 36.64306 43.93908 
L 37.376921 44.39664 
L 38.120164 44.12112 
L 38.857527 44.33268 
L 39.600641 43.3044 
L 40.341806 43.6242 
L 41.077633 44.29824 
L 41.826351 44.53932 
L 42.570091 44.30808 
L 43.306845 43.8702 
L 44.04807 44.00304 
L 44.792506 43.97844 
L 45.53259 43.41756 
L 47.028824 43.48644 
L 47.772435 42.49752 
L 48.500976 41.73984 
L 49.248149 41.7546 
L 49.989872 42.591 
L 50.724171 43.14204 
L 51.461346 43.083 
L 52.213952 43.35852 
L 52.957211 43.78164 
L 53.691862 43.21584 
L 54.488607 42.9354 
L 55.183917 43.10268 
L 56.660798 44.25396 
L 58.892893 43.74228 
L 59.64077 43.46676 
L 61.114888 43.79148 
L 62.602737 43.77672 
L 63.346168 43.2552 
L 64.08287 43.40772 
L 64.825589 42.49752 
L 65.564523 42.90588 
L 66.312863 42.8616 
L 67.043043 42.41388 
L 68.543182 42.79764 
L 69.279979 41.57256 
L 70.02093 41.86284 
L 70.765657 41.63652 
L 71.505664 41.85792 
L 72.239002 41.22324 
L 72.990312 41.76936 
L 73.733666 42.1482 
L 74.47193 41.96616 
L 75.211147 41.59224 
L 76.699151 41.99076 
L 77.43182 41.91696 
L 78.184872 41.98584 
L 78.934379 41.41512 
L 79.67745 42.15312 
L 80.416941 41.96124 
L 81.159703 42.43848 
L 82.631915 42.02028 
L 83.388486 42.0252 
L 84.129746 41.40528 
L 85.60951 41.52336 
L 87.080401 42.1974 
L 87.82463 41.8776 
L 89.328459 41.8038 
L 90.059678 41.976 
L 90.804722 42.00552 
L 91.545416 42.3942 
L 92.290589 42.27612 
L 93.775228 42.85176 
L 94.523946 43.31424 
L 95.260151 43.2306 
L 96.00432 43.39296 
L 96.75006 43.16172 
L 97.485896 43.24536 
L 98.217226 43.71768 
L 98.970483 43.33392 
L 101.201172 43.67832 
L 101.94032 44.32776 
L 102.682387 44.13588 
L 103.41321 44.16048 
L 104.169867 43.96368 
L 104.922352 44.2392 
L 105.656574 44.19984 
L 106.406434 45.16908 
L 107.145411 45.67584 
L 107.874715 46.00548 
L 108.604835 47.57004 
L 110.107085 46.64016 
L 110.83445 46.34496 
L 111.583657 46.82712 
L 113.073952 46.51716 
L 113.810046 46.5516 
L 114.556944 46.46304 
L 116.786757 45.6414 
L 117.524721 46.09404 
L 118.283703 46.3302 
L 120.515739 46.035 
L 121.212928 46.14324 
L 123.443736 47.38308 
L 124.176165 47.14692 
L 125.678698 47.22072 
L 127.886737 46.79268 
L 128.620187 46.27608 
L 129.358512 45.92184 
L 130.859586 45.75456 
L 133.075341 46.02024 
L 134.534808 45.61188 
L 135.287414 45.51348 
L 136.030553 45.72504 
L 136.754923 45.72996 
L 137.496629 45.08052 
L 138.24 44.76564 
L 138.24 44.76564 
" clip-path="url(#pe80c63efbb)" style="fill: none; stroke: #4a8dff; stroke-width: 0.6; stroke-linecap: round"/>
   </g>
   <g id="line2d_7">
    <path d="M 5.76 38.5812 
L 7.243034 39.8358 
L 7.984552 41.93172 
L 8.726069 41.42004 
L 10.209103 41.39052 
L 10.950621 41.5086 
L 11.692138 42.80256 
L 12.433655 41.93664 
L 13.175172 41.49384 
L 13.91669 41.51352 
L 14.658207 43.78164 
L 15.399724 43.9932 
L 16.141241 46.66968 
L 16.882758 47.55036 
L 17.624276 46.64508 
L 18.839557 48.89352 
L 19.580697 49.84308 
L 20.319039 49.00176 
L 21.077506 49.233 
L 21.812904 48.97716 
L 23.298633 49.36092 
L 24.778775 49.58724 
L 25.511376 49.28712 
L 26.213766 49.16904 
L 27.002847 49.39044 
L 27.651219 49.29696 
L 29.225321 49.55772 
L 31.449478 49.41996 
L 32.193227 49.8234 
L 32.872101 49.86768 
L 33.673592 49.72992 
L 34.411805 49.39536 
L 35.884695 49.6758 
L 36.64306 49.47408 
L 37.376921 49.60692 
L 38.120164 49.37568 
L 38.857527 49.36584 
L 39.600641 48.6672 
L 40.341806 48.95256 
L 41.077633 49.36092 
L 41.826351 49.54788 
L 42.570091 49.5282 
L 43.306845 49.09032 
L 44.792506 49.2084 
L 45.53259 48.93288 
L 47.028824 48.89844 
L 47.772435 48.48024 
L 48.500976 48.1998 
L 49.248149 48.28344 
L 49.989872 48.88368 
L 50.724171 49.04604 
L 51.461346 49.00176 
L 52.957211 49.38552 
L 53.691862 49.04112 
L 54.488607 48.92796 
L 55.183917 48.987 
L 56.660798 49.66104 
L 59.64077 49.40028 
L 60.372521 49.56756 
L 61.850054 49.56264 
L 62.602737 49.53312 
L 63.346168 49.25268 
L 64.08287 49.29696 
L 64.825589 48.89352 
L 65.564523 48.96732 
L 67.043043 48.5934 
L 67.797863 48.84432 
L 68.543182 48.95748 
L 69.279979 48.30804 
L 70.02093 48.34248 
L 70.765657 48.21456 
L 71.505664 48.26376 
L 72.239002 47.41752 
L 72.990312 48.05712 
L 73.733666 48.26376 
L 74.47193 48.01776 
L 75.211147 47.23548 
L 77.43182 47.1666 
L 78.184872 47.31912 
L 78.934379 46.49256 
L 79.67745 47.64876 
L 80.416941 47.5356 
L 81.159703 48.0276 
L 81.909322 47.50608 
L 82.631915 46.81728 
L 83.388486 46.92552 
L 84.129746 45.85788 
L 85.60951 45.29208 
L 86.351225 45.58728 
L 87.080401 46.2564 
L 87.82463 45.7152 
L 90.804722 45.42492 
L 91.545416 46.38432 
L 92.290589 45.57744 
L 93.02264 46.51716 
L 93.775228 46.95996 
L 94.523946 47.54544 
L 96.00432 47.66844 
L 96.75006 47.05344 
L 97.485896 47.22564 
L 98.217226 48.07188 
L 99.721759 47.37324 
L 101.201172 48.07188 
L 101.94032 48.59832 
L 102.682387 48.52452 
L 103.41321 48.5688 
L 104.169867 48.38676 
L 104.922352 48.55404 
L 107.145411 49.93656 
L 107.874715 49.98084 
L 108.604835 50.3646 
L 109.36229 50.15796 
L 110.83445 49.99068 
L 111.583657 50.217 
L 113.073952 49.98084 
L 114.556944 49.87752 
L 115.32311 49.69548 
L 116.786757 49.7004 
L 118.283703 50.06448 
L 119.752517 49.89228 
L 121.212928 49.9464 
L 124.176165 50.31048 
L 127.158205 50.41872 
L 129.358512 50.0694 
L 132.311347 50.05956 
L 133.075341 50.11368 
L 133.815185 49.91196 
L 135.287414 49.8972 
L 136.754923 50.08908 
L 137.496629 49.84308 
L 138.24 49.85292 
L 138.24 49.85292 
" clip-path="url(#pe80c63efbb)" style="fill: none; stroke: #f5841e; stroke-width: 0.7; stroke-linecap: round"/>
   </g>
  </g>
 </g>
 <defs>
  <clipPath id="pe80c63efbb">
   <rect x="5.76" y="3.6" width="132.48" height="49.2"/>
  </clipPath>
 </defs>
</svg>
