<?xml version="1.0" encoding="utf-8" standalone="no"?>
<!DOCTYPE svg PUBLIC "-//W3C//DTD SVG 1.1//EN"
  "http://www.w3.org/Graphics/SVG/1.1/DTD/svg11.dtd">
<svg xmlns:xlink="http://www.w3.org/1999/xlink" width="144pt" height="60pt" viewBox="0 0 144 60" xmlns="http://www.w3.org/2000/svg" version="1.1">
  <desc id="nav-meta">{"window":"6m","count":4,"labels":["26.12","24.02","25.04","24.06"],"tick_utc":["2025-12-26T12:00:00Z","2026-02-24T01:30:44Z","2026-04-25T03:44:07Z","2026-06-24T04:50:37Z"]}</desc>

 <metadata>
  <rdf:RDF xmlns:dc="http://purl.org/dc/elements/1.1/" xmlns:cc="http://creativecommons.org/ns#" xmlns:rdf="http://www.w3.org/1999/02/22-rdf-syntax-ns#">
   <cc:Work>
    <dc:type rdf:resource="http://purl.org/dc/dcmitype/StillImage"/>
    <dc:date>2026-06-24T10:00:58.472433</dc:date>
    <dc:format>image/svg+xml</dc:format>
    <dc:creator>
     <cc:Agent>
      <dc:title>Matplotlib v3.11.0, https://matplotlib.org/</dc:title>
     </cc:Agent>
    </dc:creator>
   </cc:Work>
  </rdf:RDF>
 </metadata>
 <defs>
  <style type="text/css">*{stroke-linejoin: round; stroke-linecap: butt}</style>
 </defs>
 <g id="figure_1">
  <g id="patch_1">
   <path d="M 0 60 
L 144 60 
L 144 0 
L 0 0 
L 0 60 
z
" style="fill: none; opacity: 0"/>
  </g>
  <g id="axes_1">
   <g id="patch_2">
    <path d="M 5.76 52.8 
L 138.24 52.8 
L 138.24 3.6 
L 5.76 3.6 
L 5.76 52.8 
z
" style="fill: none"/>
   </g>
   <g id="matplotlib.axis_1"/>
   <g id="matplotlib.axis_2"/>
   <g id="line2d_1">
    <path d="M 5.76 42.96 
L 138.24 42.96 
" clip-path="url(#p06be6f9144)" style="fill: none; stroke: #b2b2b2; stroke-opacity: 0.35; stroke-width: 0.5; stroke-linecap: square"/>
   </g>
   <g id="line2d_2">
    <path d="M 5.76 33.12 
L 138.24 33.12 
" clip-path="url(#p06be6f9144)" style="fill: none; stroke: #b2b2b2; stroke-opacity: 0.35; stroke-width: 0.5; stroke-linecap: square"/>
   </g>
   <g id="line2d_3">
    <path d="M 5.76 23.28 
L 138.24 23.28 
" clip-path="url(#p06be6f9144)" style="fill: none; stroke: #b2b2b2; stroke-opacity: 0.35; stroke-width: 0.5; stroke-linecap: square"/>
   </g>
   <g id="line2d_4">
    <path d="M 5.76 13.44 
L 138.24 13.44 
" clip-path="url(#p06be6f9144)" style="fill: none; stroke: #b2b2b2; stroke-opacity: 0.35; stroke-width: 0.5; stroke-linecap: square"/>
   </g>
   <g id="line2d_5">
    <path d="M 5.76 45.98088 
L 7.234443 45.38556 
L 7.971664 45.31668 
L 8.708885 45.58728 
L 9.446106 45.35604 
L 10.183328 45.40032 
L 10.920549 45.11496 
L 11.65777 44.42124 
L 13.132213 44.18508 
L 13.869434 43.62912 
L 14.606655 43.24044 
L 15.343876 43.8702 
L 16.081098 43.60944 
L 16.818319 43.92924 
L 17.55554 43.93416 
L 18.292761 43.46184 
L 19.029983 43.5012 
L 19.767204 42.72384 
L 20.504425 42.51228 
L 21.241646 43.08792 
L 21.978868 42.75828 
L 22.716089 42.90096 
L 24.190531 44.2392 
L 24.927753 45.23304 
L 25.664974 44.77548 
L 27.139417 45.04608 
L 27.876638 45.07068 
L 28.613859 46.1334 
L 29.35108 45.4446 
L 30.088302 45.06084 
L 30.825523 45.33144 
L 31.562744 46.30068 
L 32.299965 46.34496 
L 33.037187 47.89476 
L 33.774408 48.26376 
L 34.511629 47.96364 
L 35.71987 49.06572 
L 36.456716 50.04972 
L 37.19078 49.24776 
L 40.153112 49.59708 
L 40.88768 49.80372 
L 41.624679 49.86768 
L 42.353035 49.479 
L 43.051356 49.24776 
L 43.835865 49.48392 
L 44.480482 49.37568 
L 45.309139 49.479 
L 46.045464 49.7004 
L 48.256736 49.49376 
L 48.996175 49.98576 
L 49.671117 49.96608 
L 50.467964 49.7004 
L 51.2019 49.27236 
L 51.937722 49.37076 
L 52.666257 49.68072 
L 53.420228 49.25268 
L 54.149838 49.51344 
L 56.360674 49.09032 
L 58.57349 49.64628 
L 59.312921 49.58724 
L 60.045407 49.36092 
L 61.52246 49.45932 
L 62.258257 49.16904 
L 63.745822 49.27236 
L 64.485126 48.87384 
L 65.95229 48.70164 
L 66.689716 49.03128 
L 67.419761 49.1592 
L 68.152665 49.08048 
L 69.639864 49.36584 
L 71.162388 48.90828 
L 71.853669 49.05096 
L 73.321994 49.64628 
L 76.284702 49.59708 
L 77.012213 49.8726 
L 78.481186 49.80864 
L 80.701067 49.83816 
L 81.439483 49.50852 
L 82.174135 49.68564 
L 83.64409 49.48884 
L 84.394537 49.6512 
L 85.135538 49.69056 
L 85.868066 49.40028 
L 86.604724 49.58724 
L 88.809946 49.19856 
L 89.556903 49.43472 
L 90.29595 49.50852 
L 93.972679 49.37568 
L 94.721368 49.4052 
L 95.466533 49.29204 
L 96.205299 49.5528 
L 96.940507 49.50852 
L 97.678965 49.64136 
L 99.142648 49.56264 
L 99.894836 49.57248 
L 100.631801 49.42488 
L 101.352784 49.49376 
L 102.84041 49.25268 
L 103.565361 49.24284 
L 104.305279 48.80004 
L 105.057355 48.85416 
L 106.527378 48.63276 
L 107.268106 48.66228 
L 108.004508 49.09524 
L 108.745364 48.99192 
L 110.221403 49.34616 
L 110.965783 49.47408 
L 112.43758 49.54788 
L 113.178999 49.3314 
L 113.910572 49.34616 
L 114.637665 49.51836 
L 116.133482 49.41504 
L 118.33919 49.7742 
L 120.55582 49.61676 
L 122.033914 49.7988 
L 122.779429 50.19732 
L 123.514125 50.45808 
L 124.239204 50.59092 
L 124.965094 50.99928 
L 126.458641 50.74344 
L 127.181792 50.62536 
L 127.926659 50.80248 
L 130.88272 50.56632 
L 132.385874 50.23176 
L 133.099614 50.2416 
L 134.587888 50.55156 
L 136.806992 50.217 
L 138.24 50.49252 
L 138.24 50.49252 
" clip-path="url(#p06be6f9144)" style="fill: none; stroke: #bebebe; stroke-width: 0.6; stroke-linecap: round"/>
   </g>
   <g id="line2d_6">
    <path d="M 5.76 37.77924 
L 7.234443 37.45944 
L 8.708885 37.56276 
L 9.446106 37.31184 
L 10.183328 37.33644 
L 10.920549 37.09536 
L 11.65777 36.23928 
L 13.132213 36.11628 
L 13.869434 35.48652 
L 14.606655 35.0142 
L 15.343876 35.93424 
L 16.081098 36.36228 
L 16.818319 36.50988 
L 17.55554 36.5148 
L 18.292761 36.25404 
L 19.029983 36.46068 
L 19.767204 34.83708 
L 20.504425 34.57632 
L 21.978868 35.00436 
L 22.716089 34.93056 
L 23.45331 35.088 
L 24.190531 35.78664 
L 24.927753 37.55292 
L 25.664974 37.26756 
L 26.402195 37.46436 
L 27.876638 37.45944 
L 28.613859 38.41392 
L 30.088302 36.95268 
L 30.825523 37.05108 
L 31.562744 38.37948 
L 32.299965 39.20604 
L 33.037187 41.03136 
L 33.774408 42.26628 
L 34.511629 41.73492 
L 35.134009 42.23676 
L 36.456716 44.89356 
L 37.19078 43.6242 
L 38.675991 43.53072 
L 39.417419 43.72752 
L 40.88768 44.436 
L 41.624679 44.49012 
L 42.353035 43.81608 
L 43.051356 43.7226 
L 43.835865 44.5344 
L 44.480482 44.19 
L 45.309139 44.21952 
L 46.778377 44.51472 
L 48.256736 44.3868 
L 48.996175 45.174 
L 49.671117 45.23796 
L 50.467964 44.81484 
L 51.2019 43.821 
L 51.937722 44.01288 
L 52.666257 44.66232 
L 53.420228 43.93908 
L 54.149838 44.39664 
L 54.888775 44.12112 
L 55.621866 44.33268 
L 56.360674 43.3044 
L 57.097546 43.6242 
L 57.82911 44.29824 
L 58.57349 44.53932 
L 59.312921 44.30808 
L 60.045407 43.8702 
L 60.782338 44.00304 
L 61.52246 43.97844 
L 62.258257 43.41756 
L 63.745822 43.48644 
L 64.485126 42.49752 
L 65.209446 41.73984 
L 65.95229 41.7546 
L 66.689716 42.591 
L 67.419761 43.14204 
L 68.152665 43.083 
L 68.90091 43.35852 
L 69.639864 43.78164 
L 70.370259 43.21584 
L 71.162388 42.9354 
L 71.853669 43.10268 
L 73.321994 44.25396 
L 75.541158 43.74228 
L 76.284702 43.46676 
L 77.750279 43.79148 
L 79.229508 43.77672 
L 79.968632 43.2552 
L 80.701067 43.40772 
L 81.439483 42.49752 
L 82.174135 42.90588 
L 82.91814 42.8616 
L 83.64409 42.41388 
L 85.135538 42.79764 
L 85.868066 41.57256 
L 86.604724 41.86284 
L 87.345137 41.63652 
L 88.080856 41.85792 
L 88.809946 41.22324 
L 89.556903 41.76936 
L 90.29595 42.1482 
L 91.029938 41.96616 
L 91.764872 41.59224 
L 93.244255 41.99076 
L 93.972679 41.91696 
L 94.721368 41.98584 
L 95.466533 41.41512 
L 96.205299 42.15312 
L 96.940507 41.96124 
L 97.678965 42.43848 
L 99.142648 42.02028 
L 99.894836 42.0252 
L 100.631801 41.40528 
L 102.102992 41.52336 
L 103.565361 42.1974 
L 104.305279 41.8776 
L 105.800396 41.8038 
L 106.527378 41.976 
L 107.268106 42.00552 
L 108.004508 42.3942 
L 108.745364 42.27612 
L 110.221403 42.85176 
L 110.965783 43.31424 
L 111.697722 43.2306 
L 112.43758 43.39296 
L 113.178999 43.16172 
L 113.910572 43.24536 
L 114.637665 43.71768 
L 115.386559 43.33392 
L 117.604324 43.67832 
L 118.33919 44.32776 
L 119.076957 44.13588 
L 119.803547 44.16048 
L 120.55582 43.96368 
L 121.303946 44.2392 
L 122.033914 44.19984 
L 122.779429 45.16908 
L 123.514125 45.67584 
L 124.239204 46.00548 
L 124.965094 47.57004 
L 126.458641 46.64016 
L 127.181792 46.34496 
L 127.926659 46.82712 
L 129.40832 46.51716 
L 130.140148 46.5516 
L 130.88272 46.46304 
L 133.099614 45.6414 
L 133.833303 46.09404 
L 134.587888 46.3302 
L 136.806992 46.035 
L 137.500142 46.14324 
L 138.24 46.52208 
L 138.24 46.52208 
" clip-path="url(#p06be6f9144)" style="fill: none; stroke: #4a8dff; stroke-width: 0.6; stroke-linecap: round"/>
   </g>
   <g id="line2d_7">
    <path d="M 5.76 42.468 
L 6.497221 42.42864 
L 7.234443 42.18264 
L 7.971664 42.1728 
L 8.708885 42.50244 
L 9.446106 41.88252 
L 10.183328 42.32532 
L 11.65777 41.13468 
L 13.132213 40.42128 
L 13.869434 39.16176 
L 14.606655 39.28968 
L 15.343876 40.48032 
L 17.55554 40.88376 
L 19.029983 40.53936 
L 19.767204 38.50248 
L 20.504425 37.63656 
L 21.241646 38.34012 
L 21.978868 38.37456 
L 22.716089 38.5812 
L 24.190531 39.8358 
L 24.927753 41.93172 
L 25.664974 41.42004 
L 27.139417 41.39052 
L 27.876638 41.5086 
L 28.613859 42.80256 
L 29.35108 41.93664 
L 30.088302 41.49384 
L 30.825523 41.51352 
L 31.562744 43.78164 
L 32.299965 43.9932 
L 33.037187 46.66968 
L 33.774408 47.55036 
L 34.511629 46.64508 
L 35.71987 48.89352 
L 36.456716 49.84308 
L 37.19078 49.00176 
L 37.944853 49.233 
L 38.675991 48.97716 
L 40.153112 49.36092 
L 41.624679 49.58724 
L 42.353035 49.28712 
L 43.051356 49.16904 
L 43.835865 49.39044 
L 44.480482 49.29696 
L 46.045464 49.55772 
L 48.256736 49.41996 
L 48.996175 49.8234 
L 49.671117 49.86768 
L 50.467964 49.72992 
L 51.2019 49.39536 
L 52.666257 49.6758 
L 53.420228 49.47408 
L 54.149838 49.60692 
L 54.888775 49.37568 
L 55.621866 49.36584 
L 56.360674 48.6672 
L 57.097546 48.95256 
L 57.82911 49.36092 
L 58.57349 49.54788 
L 59.312921 49.5282 
L 60.045407 49.09032 
L 61.52246 49.2084 
L 62.258257 48.93288 
L 63.745822 48.89844 
L 64.485126 48.48024 
L 65.209446 48.1998 
L 65.95229 48.28344 
L 66.689716 48.88368 
L 67.419761 49.04604 
L 68.152665 49.00176 
L 69.639864 49.38552 
L 70.370259 49.04112 
L 71.162388 48.92796 
L 71.853669 48.987 
L 73.321994 49.66104 
L 76.284702 49.40028 
L 77.012213 49.56756 
L 78.481186 49.56264 
L 79.229508 49.53312 
L 79.968632 49.25268 
L 80.701067 49.29696 
L 81.439483 48.89352 
L 82.174135 48.96732 
L 83.64409 48.5934 
L 84.394537 48.84432 
L 85.135538 48.95748 
L 85.868066 48.30804 
L 86.604724 48.34248 
L 87.345137 48.21456 
L 88.080856 48.26376 
L 88.809946 47.41752 
L 89.556903 48.05712 
L 90.29595 48.26376 
L 91.029938 48.01776 
L 91.764872 47.23548 
L 93.972679 47.1666 
L 94.721368 47.31912 
L 95.466533 46.49256 
L 96.205299 47.64876 
L 96.940507 47.5356 
L 97.678965 48.0276 
L 98.424241 47.50608 
L 99.142648 46.81728 
L 99.894836 46.92552 
L 100.631801 45.85788 
L 102.102992 45.29208 
L 102.84041 45.58728 
L 103.565361 46.2564 
L 104.305279 45.7152 
L 107.268106 45.42492 
L 108.004508 46.38432 
L 108.745364 45.57744 
L 109.473174 46.51716 
L 110.221403 46.95996 
L 110.965783 47.54544 
L 112.43758 47.66844 
L 113.178999 47.05344 
L 113.910572 47.22564 
L 114.637665 48.07188 
L 116.133482 47.37324 
L 117.604324 48.07188 
L 118.33919 48.59832 
L 119.076957 48.52452 
L 119.803547 48.5688 
L 120.55582 48.38676 
L 121.303946 48.55404 
L 123.514125 49.93656 
L 124.239204 49.98084 
L 124.965094 50.3646 
L 125.71816 50.15796 
L 127.181792 49.99068 
L 127.926659 50.217 
L 129.40832 49.98084 
L 130.88272 49.87752 
L 131.644447 49.69548 
L 133.099614 49.7004 
L 134.587888 50.06448 
L 136.048192 49.89228 
L 137.500142 49.9464 
L 138.24 50.05956 
L 138.24 50.05956 
" clip-path="url(#p06be6f9144)" style="fill: none; stroke: #f5841e; stroke-width: 0.7; stroke-linecap: round"/>
   </g>
  </g>
 </g>
 <defs>
  <clipPath id="p06be6f9144">
   <rect x="5.76" y="3.6" width="132.48" height="49.2"/>
  </clipPath>
 </defs>
</svg>
