<?xml version="1.0" encoding="utf-8" standalone="no"?>
<!DOCTYPE svg PUBLIC "-//W3C//DTD SVG 1.1//EN"
  "http://www.w3.org/Graphics/SVG/1.1/DTD/svg11.dtd">
<svg xmlns:xlink="http://www.w3.org/1999/xlink" width="144pt" height="60pt" viewBox="0 0 144 60" xmlns="http://www.w3.org/2000/svg" version="1.1">
  <desc id="nav-meta">{"window":"3m","count":4,"labels":["05.01","18.01","26.01","03.02"],"idxs":[0,96,192,288]}</desc>

 <metadata>
  <rdf:RDF xmlns:dc="http://purl.org/dc/elements/1.1/" xmlns:cc="http://creativecommons.org/ns#" xmlns:rdf="http://www.w3.org/1999/02/22-rdf-syntax-ns#">
   <cc:Work>
    <dc:type rdf:resource="http://purl.org/dc/dcmitype/StillImage"/>
    <dc:date>2026-02-03T04:23:27.268717</dc:date>
    <dc:format>image/svg+xml</dc:format>
    <dc:creator>
     <cc:Agent>
      <dc:title>Matplotlib v3.10.8, https://matplotlib.org/</dc:title>
     </cc:Agent>
    </dc:creator>
   </cc:Work>
  </rdf:RDF>
 </metadata>
 <defs>
  <style type="text/css">*{stroke-linejoin: round; stroke-linecap: butt}</style>
 </defs>
 <g id="figure_1">
  <g id="patch_1">
   <path d="M 0 60 
L 144 60 
L 144 0 
L 0 0 
L 0 60 
z
" style="fill: none; opacity: 0"/>
  </g>
  <g id="axes_1">
   <g id="patch_2">
    <path d="M 5.76 52.8 
L 138.24 52.8 
L 138.24 3.6 
L 5.76 3.6 
L 5.76 52.8 
z
" style="fill: none"/>
   </g>
   <g id="matplotlib.axis_1"/>
   <g id="matplotlib.axis_2"/>
   <g id="line2d_1">
    <path d="M 5.76 42.96 
L 138.24 42.96 
" clip-path="url(#p8ea3be121b)" style="fill: none; stroke: #b2b2b2; stroke-opacity: 0.35; stroke-width: 0.5; stroke-linecap: square"/>
   </g>
   <g id="line2d_2">
    <path d="M 5.76 33.12 
L 138.24 33.12 
" clip-path="url(#p8ea3be121b)" style="fill: none; stroke: #b2b2b2; stroke-opacity: 0.35; stroke-width: 0.5; stroke-linecap: square"/>
   </g>
   <g id="line2d_3">
    <path d="M 5.76 23.28 
L 138.24 23.28 
" clip-path="url(#p8ea3be121b)" style="fill: none; stroke: #b2b2b2; stroke-opacity: 0.35; stroke-width: 0.5; stroke-linecap: square"/>
   </g>
   <g id="line2d_4">
    <path d="M 5.76 13.44 
L 138.24 13.44 
" clip-path="url(#p8ea3be121b)" style="fill: none; stroke: #b2b2b2; stroke-opacity: 0.35; stroke-width: 0.5; stroke-linecap: square"/>
   </g>
   <g id="line2d_5">
    <path d="M 5.989204 38.29584 
L 8.160988 38.21712 
L 8.389597 38.118273 
L 8.846814 37.79892 
L 9.304032 37.885359 
L 9.76125 38.17284 
L 11.132903 38.244595 
L 11.59012 38.46312 
L 12.275947 38.357691 
L 12.733164 38.31552 
L 12.961773 38.371416 
L 13.533295 38.5812 
L 13.876208 38.528703 
L 14.44773 38.32536 
L 14.790644 38.401128 
L 15.247861 38.7042 
L 16.047992 38.597506 
L 16.733819 38.485215 
L 17.191036 38.34996 
L 17.533949 38.298242 
L 18.105471 38.06952 
L 18.676993 38.176252 
L 19.134211 38.22696 
L 19.477124 38.318613 
L 19.934342 38.44344 
L 20.505864 38.535399 
L 20.963082 38.5812 
L 25.763867 38.492538 
L 26.335389 38.27616 
L 28.278564 38.171243 
L 28.735781 38.1138 
L 28.96439 38.070887 
L 29.535912 37.75464 
L 29.99313 37.861985 
L 30.450348 38.04984 
L 31.02187 38.13955 
L 31.479087 38.19744 
L 31.707696 38.160125 
L 32.279218 37.83828 
L 32.85074 37.747164 
L 33.307958 37.68576 
L 34.451002 37.588651 
L 35.136828 37.4496 
L 36.394177 37.340376 
L 37.76583 37.1298 
L 38.108743 37.154719 
L 38.680265 37.4988 
L 39.251787 37.41323 
L 39.709005 37.34628 
L 40.852049 37.372605 
L 41.423571 37.85304 
L 42.45231 37.754218 
L 42.909528 37.671 
L 43.252441 37.608586 
L 43.823963 37.45452 
L 47.824618 37.540588 
L 48.39614 37.68576 
L 51.825272 37.74972 
L 52.396794 38.8272 
L 53.997056 38.746691 
L 54.454273 38.70912 
L 54.797187 38.783546 
L 55.368709 38.86656 
L 55.483013 38.86656 
L 56.054535 39.41268 
L 56.626057 39.49002 
L 57.083275 39.57996 
L 60.283798 39.503157 
L 60.741016 39.3438 
L 61.198233 39.272952 
L 61.769755 39.18144 
L 62.226973 39.268492 
L 62.684191 39.30936 
L 64.855974 39.380029 
L 65.313192 39.52092 
L 79.715548 39.609863 
L 80.172765 39.64392 
L 81.0872 39.745195 
L 81.773027 39.76692 
L 82.458853 39.670616 
L 83.14468 39.64884 
L 89.545727 39.758077 
L 90.345858 39.80674 
L 90.91738 40.75584 
L 91.260293 40.748326 
L 91.831815 40.27368 
L 93.203468 40.175817 
L 93.889294 40.06212 
L 97.66134 40.04244 
L 98.232862 39.63408 
L 104.633909 39.706257 
L 105.205431 39.9096 
L 105.548344 39.958596 
L 106.119866 40.17528 
L 107.377214 40.250435 
L 107.834432 40.7706 
L 109.091781 40.87392 
L 110.463433 41.126859 
L 111.034955 41.093965 
L 111.606478 40.869 
L 112.520913 40.791302 
L 112.97813 40.6722 
L 113.321044 40.724646 
L 113.778261 41.04612 
L 114.235479 41.153772 
L 114.692697 41.84316 
L 115.03561 41.84316 
L 115.264219 42.19579 
L 115.607132 42.77304 
L 116.978785 42.713668 
L 117.436002 42.27612 
L 124.751484 42.350623 
L 125.323007 42.60084 
L 130.123792 42.69432 
L 130.238096 42.942416 
L 130.695314 48.31296 
L 133.324315 48.206969 
L 134.467359 48.19488 
L 135.496099 48.098729 
L 135.953316 48.00792 
L 138.010796 47.98824 
L 138.010796 47.98824 
" clip-path="url(#p8ea3be121b)" style="fill: none; stroke: #bebebe; stroke-width: 0.6; stroke-linecap: round"/>
   </g>
   <g id="line2d_6">
    <path d="M 5.989204 32.44596 
L 7.932379 32.426881 
L 8.389597 32.13108 
L 8.846814 32.187436 
L 9.418336 32.37216 
L 10.789989 32.451059 
L 11.132903 32.63784 
L 12.390251 32.73624 
L 13.076077 33.10524 
L 14.562035 33.201531 
L 14.904948 33.28236 
L 15.247861 33.342576 
L 15.705079 33.5874 
L 16.162296 33.535389 
L 16.733819 33.3168 
L 18.791298 33.42504 
L 20.048646 33.562851 
L 21.077386 33.500246 
L 22.563343 33.43488 
L 25.306649 33.337349 
L 26.335389 33.288034 
L 27.13552 33.256865 
L 27.592737 33.0216 
L 28.164259 33.25776 
L 31.593392 33.155424 
L 32.85074 33.08556 
L 33.079349 33.043005 
L 33.650871 32.64276 
L 33.993784 32.558673 
L 34.451002 31.7178 
L 36.851394 31.672881 
L 37.308612 31.46688 
L 37.651525 31.500004 
L 38.223047 31.9392 
L 38.565961 31.912364 
L 39.137483 31.52592 
L 39.823309 31.621304 
L 40.166222 31.881924 
L 40.509135 32.081011 
L 41.423571 32.042776 
L 41.880788 31.947008 
L 42.566615 32.04744 
L 45.538529 31.988617 
L 46.681574 31.879048 
L 47.481704 31.878051 
L 49.081966 31.869886 
L 50.682228 31.68336 
L 50.910837 31.68336 
L 51.482359 32.593228 
L 52.625403 32.586915 
L 53.768447 32.56896 
L 54.225664 32.633444 
L 54.682882 32.85432 
L 55.025795 32.85432 
L 55.597317 33.42504 
L 56.054535 33.528986 
L 56.511753 33.9072 
L 57.197579 34.008373 
L 57.654797 34.04988 
L 58.112014 34.146849 
L 58.569232 34.18764 
L 60.626711 34.11131 
L 61.083929 33.84816 
L 61.88406 33.958266 
L 64.284452 34.187512 
L 64.855974 34.45332 
L 78.22959 34.344965 
L 78.915417 34.331726 
L 79.486939 34.55664 
L 82.687462 34.465409 
L 83.487593 34.371073 
L 84.630637 34.323726 
L 89.88864 34.592447 
L 90.460162 35.47176 
L 90.91738 35.363827 
L 91.374597 35.06832 
L 91.831815 34.961192 
L 92.289032 34.65996 
L 94.689425 34.58708 
L 95.146643 34.46808 
L 95.718165 34.566416 
L 96.175382 34.60092 
L 97.204122 34.62552 
L 97.775644 33.9072 
L 101.54769 34.016846 
L 103.490865 34.02735 
L 103.948082 33.981 
L 105.091126 34.05089 
L 105.548344 34.41888 
L 106.805692 34.40904 
L 107.491519 35.10768 
L 107.834432 35.158286 
L 108.405954 35.40288 
L 108.863172 35.511248 
L 109.320389 35.66364 
L 109.777607 35.740366 
L 110.234825 35.8506 
L 111.492173 35.886574 
L 111.949391 36.259522 
L 112.635217 36.1212 
L 112.863826 36.176023 
L 113.321044 36.50496 
L 113.778261 36.609264 
L 114.235479 37.26264 
L 114.578392 37.26264 
L 114.807001 37.698463 
L 115.149914 38.40408 
L 116.521567 38.329002 
L 116.978785 37.78908 
L 118.807655 37.848657 
L 119.379177 38.09412 
L 124.294267 38.174949 
L 124.865789 38.37456 
L 125.66592 38.405614 
L 126.237442 38.81736 
L 127.609095 38.741324 
L 128.066312 38.57136 
L 129.437965 38.668354 
L 129.780878 39.044677 
L 130.238096 42.0744 
L 130.809618 42.145964 
L 131.266836 42.3204 
L 134.924577 42.250664 
L 135.381794 41.8038 
L 136.982056 41.707112 
L 137.324969 41.722984 
L 138.010796 41.76936 
L 138.010796 41.76936 
" clip-path="url(#p8ea3be121b)" style="fill: none; stroke: #4a8dff; stroke-width: 0.7; stroke-linecap: round"/>
   </g>
   <g id="line2d_7">
    <path d="M 5.989204 37.0806 
L 7.475161 37.177505 
L 7.932379 37.271867 
L 8.503901 37.14456 
L 8.73251 37.14456 
L 9.304032 37.71528 
L 10.675685 37.739816 
L 11.132903 38.0646 
L 11.818729 37.976423 
L 12.275947 37.9416 
L 12.504555 38.028575 
L 12.961773 38.34996 
L 14.333426 38.442533 
L 14.790644 38.76816 
L 16.162296 38.746256 
L 16.619514 38.36472 
L 17.991167 38.409447 
L 18.562689 38.655 
L 21.305995 38.555961 
L 22.334735 38.546479 
L 23.934996 38.543489 
L 24.849432 38.466634 
L 27.13552 38.442929 
L 27.592737 37.984091 
L 28.049955 38.47788 
L 29.421608 38.401971 
L 29.99313 38.163 
L 31.364783 38.099487 
L 31.822 37.87764 
L 32.965045 37.80876 
L 33.079349 37.718449 
L 33.536567 36.86904 
L 33.993784 36.838625 
L 34.565306 36.53448 
L 35.936959 36.457702 
L 36.279872 36.08184 
L 36.73709 36.043298 
L 37.308612 35.57016 
L 37.651525 35.609149 
L 38.108743 36.12612 
L 38.565961 36.103117 
L 39.137483 35.77188 
L 39.5947 35.881372 
L 40.62344 36.563476 
L 41.537875 36.45392 
L 41.766484 36.378241 
L 42.338006 36.60336 
L 45.652834 36.505356 
L 46.33866 36.466213 
L 49.996401 36.62304 
L 50.796532 36.50004 
L 50.910837 36.50004 
L 51.482359 37.575974 
L 52.28249 37.49388 
L 53.311229 37.527528 
L 54.11136 37.45944 
L 54.682882 37.87764 
L 55.1401 37.988436 
L 55.597317 38.37948 
L 56.054535 38.432514 
L 56.626057 38.62548 
L 56.96897 38.686552 
L 57.426188 38.91576 
L 58.112014 38.998876 
L 58.683536 39.03384 
L 59.597972 39.12732 
L 60.398103 38.84196 
L 60.85532 38.757298 
L 61.426842 38.71896 
L 62.684191 38.818945 
L 64.284452 38.844388 
L 64.74167 39.147 
L 68.170802 39.067743 
L 68.62802 39.01908 
L 69.085238 38.91176 
L 69.542455 38.8518 
L 70.342586 38.947146 
L 70.914108 39.02892 
L 78.115286 38.932641 
L 78.686808 38.82228 
L 79.029721 38.919543 
L 79.486939 39.11256 
L 80.515678 39.20374 
L 81.0872 39.2454 
L 81.430114 39.090771 
L 81.773027 39.001521 
L 82.573158 39.053009 
L 84.059115 38.88132 
L 85.430768 38.971733 
L 86.345203 39.042504 
L 88.059769 39.230602 
L 88.631291 39.51108 
L 89.317118 39.404092 
L 89.774336 39.37332 
L 89.88864 39.396093 
L 90.345858 40.34748 
L 90.803075 40.33925 
L 91.374597 39.89484 
L 91.831815 39.826433 
L 92.289032 39.63408 
L 93.889294 39.721567 
L 94.232207 39.78168 
L 94.460816 39.78168 
L 95.032338 39.30444 
L 95.489556 39.369806 
L 95.946774 39.57504 
L 96.518296 39.668239 
L 96.975513 39.76692 
L 97.204122 39.76692 
L 97.775644 39.024 
L 100.633254 39.122081 
L 101.54769 39.159511 
L 103.490865 39.035425 
L 103.833778 38.9502 
L 104.290995 39.041444 
L 104.748213 39.15684 
L 105.091126 39.24701 
L 105.548344 39.639 
L 106.919997 39.747636 
L 107.377214 40.32288 
L 107.720128 40.32288 
L 108.063041 40.942723 
L 108.29165 41.24784 
L 108.748867 41.316541 
L 109.206085 41.66112 
L 109.777607 41.745923 
L 110.234825 41.86776 
L 110.692042 41.758114 
L 111.14926 41.59716 
L 111.606478 41.514504 
L 112.292304 41.302343 
L 112.863826 41.347646 
L 113.321044 41.6808 
L 113.778261 41.78849 
L 114.235479 42.46308 
L 114.578392 42.46308 
L 114.807001 43.043551 
L 115.149914 43.98336 
L 116.521567 43.91549 
L 116.978785 43.4274 
L 119.036264 43.502542 
L 119.493482 43.57008 
L 124.522876 43.660289 
L 124.980093 43.73736 
L 125.780224 43.82224 
L 126.237442 44.00304 
L 129.209356 43.99812 
L 129.323661 44.184109 
L 129.780878 47.76454 
L 130.809618 47.749128 
L 131.609749 47.82588 
L 132.638489 47.766533 
L 133.210011 47.61432 
L 134.810272 47.604659 
L 135.381794 47.08296 
L 136.639143 47.078705 
L 137.096361 46.537811 
L 137.782187 46.7238 
L 138.010796 46.7238 
L 138.010796 46.7238 
" clip-path="url(#p8ea3be121b)" style="fill: none; stroke: #f5841e; stroke-width: 0.8; stroke-linecap: round"/>
   </g>
  </g>
 </g>
 <defs>
  <clipPath id="p8ea3be121b">
   <rect x="5.76" y="3.6" width="132.48" height="49.2"/>
  </clipPath>
 </defs>
</svg>
