<?xml version="1.0" encoding="utf-8" standalone="no"?>
<!DOCTYPE svg PUBLIC "-//W3C//DTD SVG 1.1//EN"
  "http://www.w3.org/Graphics/SVG/1.1/DTD/svg11.dtd">
<svg xmlns:xlink="http://www.w3.org/1999/xlink" width="144pt" height="60pt" viewBox="0 0 144 60" xmlns="http://www.w3.org/2000/svg" version="1.1">
  <desc id="nav-meta">{"window":"1y","count":4,"labels":["22.03","21.07","19.11","21.03"],"tick_utc":["2025-03-22T12:00:00Z","2025-07-21T12:00:00Z","2025-11-19T12:00:00Z","2026-03-21T03:10:23Z"]}</desc>

 <metadata>
  <rdf:RDF xmlns:dc="http://purl.org/dc/elements/1.1/" xmlns:cc="http://creativecommons.org/ns#" xmlns:rdf="http://www.w3.org/1999/02/22-rdf-syntax-ns#">
   <cc:Work>
    <dc:type rdf:resource="http://purl.org/dc/dcmitype/StillImage"/>
    <dc:date>2026-03-21T13:29:28.779481</dc:date>
    <dc:format>image/svg+xml</dc:format>
    <dc:creator>
     <cc:Agent>
      <dc:title>Matplotlib v3.10.8, https://matplotlib.org/</dc:title>
     </cc:Agent>
    </dc:creator>
   </cc:Work>
  </rdf:RDF>
 </metadata>
 <defs>
  <style type="text/css">*{stroke-linejoin: round; stroke-linecap: butt}</style>
 </defs>
 <g id="figure_1">
  <g id="patch_1">
   <path d="M 0 60 
L 144 60 
L 144 0 
L 0 0 
L 0 60 
z
" style="fill: none; opacity: 0"/>
  </g>
  <g id="axes_1">
   <g id="patch_2">
    <path d="M 5.76 52.8 
L 138.24 52.8 
L 138.24 3.6 
L 5.76 3.6 
L 5.76 52.8 
z
" style="fill: none"/>
   </g>
   <g id="matplotlib.axis_1"/>
   <g id="matplotlib.axis_2"/>
   <g id="line2d_1">
    <path d="M 5.76 42.96 
L 138.24 42.96 
" clip-path="url(#p8854211131)" style="fill: none; stroke: #b2b2b2; stroke-opacity: 0.35; stroke-width: 0.5; stroke-linecap: square"/>
   </g>
   <g id="line2d_2">
    <path d="M 5.76 33.12 
L 138.24 33.12 
" clip-path="url(#p8854211131)" style="fill: none; stroke: #b2b2b2; stroke-opacity: 0.35; stroke-width: 0.5; stroke-linecap: square"/>
   </g>
   <g id="line2d_3">
    <path d="M 5.76 23.28 
L 138.24 23.28 
" clip-path="url(#p8854211131)" style="fill: none; stroke: #b2b2b2; stroke-opacity: 0.35; stroke-width: 0.5; stroke-linecap: square"/>
   </g>
   <g id="line2d_4">
    <path d="M 5.76 13.44 
L 138.24 13.44 
" clip-path="url(#p8854211131)" style="fill: none; stroke: #b2b2b2; stroke-opacity: 0.35; stroke-width: 0.5; stroke-linecap: square"/>
   </g>
   <g id="line2d_5">
    <path d="M 5.76 44.91816 
L 6.124324 44.89848 
L 6.488648 44.41632 
L 6.852972 43.30932 
L 7.217297 42.87144 
L 7.581621 43.76196 
L 7.945945 43.59468 
L 8.310269 44.76072 
L 8.674593 45.40524 
L 9.403242 45.35604 
L 9.767566 45.10512 
L 10.13189 46.24164 
L 10.496214 46.3548 
L 10.860538 45.63648 
L 11.224862 45.97104 
L 11.589187 47.84556 
L 11.953511 47.71272 
L 12.317835 47.88 
L 12.682159 46.12848 
L 13.046483 46.91568 
L 13.775132 44.40648 
L 14.139456 44.91816 
L 14.50378 44.76564 
L 14.868104 45.16908 
L 15.232428 44.49504 
L 15.596752 44.08668 
L 15.961077 44.17032 
L 16.325401 43.43232 
L 17.054049 43.86528 
L 17.418373 42.23676 
L 18.147021 41.7792 
L 19.239994 42.31056 
L 19.604318 42.345 
L 19.968642 42.5418 
L 20.332966 42.37944 
L 20.697291 41.98584 
L 21.061615 42.345 
L 21.425939 42.49752 
L 21.790263 42.86652 
L 22.154587 42.49752 
L 22.883236 42.44832 
L 23.24756 40.33272 
L 23.611884 39.12732 
L 23.976208 38.52216 
L 24.340532 39.10272 
L 24.704856 38.901 
L 25.069181 37.6464 
L 25.797829 39.639 
L 26.526477 40.008 
L 26.890801 39.27492 
L 27.255125 39.90468 
L 27.61945 39.6882 
L 28.348098 38.22696 
L 28.712422 38.901 
L 29.076746 38.69436 
L 29.805395 38.86164 
L 30.169719 38.62056 
L 30.898367 39.88992 
L 31.262691 41.23308 
L 32.355664 41.17404 
L 33.084312 41.62176 
L 33.448636 42.79272 
L 33.81296 42.30564 
L 34.541609 41.7546 
L 34.905933 40.62792 
L 35.270257 40.131 
L 35.634581 40.6476 
L 35.998905 41.73492 
L 36.727554 42.76812 
L 37.091878 41.73492 
L 37.456202 41.89728 
L 37.820526 42.345 
L 38.18485 42.5664 
L 38.549174 42.46308 
L 39.277823 44.20476 
L 39.642147 44.45076 
L 40.006471 42.7632 
L 40.370795 42.63036 
L 40.735119 42.94524 
L 41.099444 43.52088 
L 41.463768 43.1076 
L 41.828092 41.98092 
L 42.55674 41.43972 
L 42.921064 42.4926 
L 43.285389 41.79888 
L 43.649713 41.78412 
L 44.014037 42.37452 
L 44.378361 42.3942 
L 44.742685 41.83332 
L 45.107009 42.24168 
L 45.471334 41.84316 
L 46.199982 40.2786 
L 46.564306 40.42128 
L 46.92863 40.71648 
L 47.657278 40.48032 
L 48.021603 40.26384 
L 48.385927 38.97972 
L 49.114575 38.51724 
L 49.478899 38.57628 
L 49.843223 38.04492 
L 50.207548 36.03264 
L 50.571872 34.88136 
L 50.936196 36.92316 
L 51.30052 37.8432 
L 51.664844 37.37088 
L 52.029168 37.53324 
L 52.393493 37.056 
L 52.757817 37.77924 
L 53.122141 38.02032 
L 53.486465 38.45328 
L 53.850789 39.1962 
L 54.215113 40.41636 
L 54.579438 40.97232 
L 54.943762 40.53444 
L 55.308086 39.55536 
L 55.67241 40.24908 
L 56.036734 39.7128 
L 56.401058 38.778 
L 56.765383 38.59104 
L 57.494031 37.794 
L 57.858355 38.82228 
L 58.222679 36.53448 
L 58.587003 35.334 
L 59.315652 37.44468 
L 59.679976 36.90348 
L 60.0443 36.65748 
L 60.772948 38.64516 
L 61.137272 37.2282 
L 61.501597 38.14332 
L 61.865921 35.53572 
L 62.230245 35.04372 
L 62.594569 34.80264 
L 62.958893 37.23804 
L 64.051866 33.67104 
L 64.41619 34.90596 
L 65.509162 35.9736 
L 65.873487 34.36476 
L 66.237811 34.1778 
L 66.602135 35.22084 
L 66.966459 35.11752 
L 67.330783 35.54556 
L 68.78808 32.44104 
L 69.152404 31.83096 
L 69.516728 30.06468 
L 69.881052 30.01056 
L 70.245376 30.291 
L 70.609701 31.16184 
L 70.974025 30.74856 
L 71.338349 29.71536 
L 71.702673 29.37588 
L 72.066997 30.57636 
L 72.431321 30.42876 
L 72.795646 30.79284 
L 73.15997 32.91828 
L 73.524294 33.72024 
L 73.888618 34.05972 
L 74.252942 36.5886 
L 74.617266 34.90104 
L 74.981591 35.10276 
L 75.345915 34.16796 
L 75.710239 33.8826 
L 76.074563 34.43364 
L 76.803211 31.05852 
L 77.167536 31.26024 
L 77.53186 31.92936 
L 77.896184 31.85064 
L 78.260508 31.3242 
L 78.624832 32.84448 
L 78.989156 31.78176 
L 79.35348 32.85924 
L 79.717805 36.8838 
L 80.082129 38.39424 
L 80.446453 35.95392 
L 80.810777 34.53696 
L 81.175101 35.20608 
L 81.90375 37.57752 
L 82.268074 37.90716 
L 82.632398 37.18884 
L 82.996722 37.18392 
L 83.361046 36.89364 
L 83.72537 37.42008 
L 84.089695 38.17284 
L 84.454019 36.687 
L 84.818343 36.42132 
L 85.182667 36.34752 
L 85.546991 35.56032 
L 85.911315 35.72268 
L 86.27564 36.29832 
L 86.639964 36.32292 
L 87.004288 37.61688 
L 87.368612 37.2282 
L 87.732936 37.34628 
L 88.09726 37.23804 
L 88.461585 40.008 
L 88.825909 41.36592 
L 89.190233 40.43604 
L 89.554557 41.44956 
L 89.918881 40.53444 
L 90.283205 41.02152 
L 90.647529 40.22448 
L 91.011854 39.79644 
L 91.376178 41.51844 
L 91.740502 41.66604 
L 92.46915 43.51596 
L 92.833474 43.43724 
L 93.197799 43.71276 
L 93.562123 44.59836 
L 93.926447 43.30932 
L 95.019419 44.88372 
L 95.383744 44.99688 
L 95.748068 44.57868 
L 96.112392 43.5996 
L 96.476716 43.51596 
L 96.84104 43.00428 
L 97.205364 43.2798 
L 97.569689 43.71768 
L 98.298337 44.0916 
L 98.662661 45.11004 
L 99.026985 43.55532 
L 99.391309 42.72876 
L 100.119958 44.27364 
L 100.848606 44.47536 
L 101.21293 44.25888 
L 101.577254 43.64388 
L 101.941578 43.84068 
L 102.305903 43.85052 
L 102.670227 44.36712 
L 103.034551 44.26872 
L 103.398875 44.74104 
L 103.763199 44.98704 
L 104.127523 44.84436 
L 104.491848 45.58728 
L 104.856172 46.0596 
L 105.220496 45.18384 
L 106.677793 45.47904 
L 107.042117 45.65616 
L 107.406441 45.98088 
L 108.135089 45.38556 
L 108.499413 45.31668 
L 108.863738 45.58728 
L 109.228062 45.35604 
L 109.592386 45.40032 
L 109.95671 45.11496 
L 110.321034 44.42124 
L 111.049682 44.18508 
L 111.778331 43.24044 
L 112.142655 43.8702 
L 112.506979 43.60944 
L 112.871303 43.92924 
L 113.235627 43.93416 
L 113.599952 43.46184 
L 113.964276 43.5012 
L 114.3286 42.72384 
L 114.692924 42.51228 
L 115.057248 43.08792 
L 115.421572 42.75828 
L 115.785897 42.90096 
L 116.514545 44.2392 
L 116.878869 45.23304 
L 117.243193 44.77548 
L 117.971842 45.04608 
L 118.336166 45.07068 
L 118.70049 46.1334 
L 119.064814 45.4446 
L 119.429138 45.06084 
L 119.793462 45.33144 
L 120.157787 46.30068 
L 120.522111 46.34496 
L 120.886435 47.89476 
L 121.250759 48.26376 
L 121.615083 47.96364 
L 122.576317 50.04972 
L 122.939081 49.24776 
L 124.403023 49.59708 
L 124.766036 49.80372 
L 125.13025 49.86768 
L 125.835294 49.24776 
L 126.222987 49.48392 
L 126.541547 49.37568 
L 126.951057 49.479 
L 127.314939 49.7004 
L 128.407717 49.49376 
L 128.773138 49.98576 
L 129.106684 49.96608 
L 129.500475 49.7004 
L 129.863176 49.27236 
L 130.226808 49.37076 
L 130.58684 49.68072 
L 130.959441 49.25268 
L 131.320004 49.51344 
L 132.412568 49.09032 
L 133.871526 49.58724 
L 134.233509 49.36092 
L 134.963448 49.45932 
L 135.327068 49.16904 
L 136.062202 49.27236 
L 136.427555 48.87384 
L 137.152606 48.70164 
L 137.517032 49.03128 
L 137.877809 49.1592 
L 138.24 49.08048 
L 138.24 49.08048 
" clip-path="url(#p8854211131)" style="fill: none; stroke: #bebebe; stroke-width: 0.6; stroke-linecap: round"/>
   </g>
   <g id="line2d_6">
    <path d="M 5.76 44.42616 
L 6.488648 44.1654 
L 6.852972 43.6242 
L 7.217297 43.68816 
L 7.581621 44.10144 
L 7.945945 44.15064 
L 8.310269 44.9034 
L 8.674593 45.38064 
L 9.038917 45.55284 
L 9.403242 45.41508 
L 9.767566 44.8296 
L 10.13189 45.6168 
L 10.496214 45.45936 
L 11.224862 45.5184 
L 11.589187 47.18136 
L 11.953511 47.3142 
L 12.317835 47.90952 
L 12.682159 46.56144 
L 13.046483 47.54052 
L 13.410807 47.23056 
L 13.775132 46.67952 
L 14.139456 47.03376 
L 14.50378 46.85172 
L 14.868104 47.08788 
L 15.232428 47.16168 
L 15.961077 47.07804 
L 16.325401 46.896 
L 16.689725 47.10756 
L 17.054049 47.16168 
L 17.418373 45.87264 
L 17.782697 45.63156 
L 18.147021 45.80376 
L 18.87567 45.43968 
L 19.239994 45.63156 
L 19.968642 45.61188 
L 20.332966 45.63156 
L 20.697291 45.31176 
L 21.425939 45.3462 
L 21.790263 45.52824 
L 22.518911 45.47412 
L 22.883236 45.51348 
L 23.24756 42.77796 
L 23.611884 41.75952 
L 23.976208 40.04244 
L 24.340532 40.58364 
L 24.704856 40.69188 
L 25.069181 39.38808 
L 25.797829 40.33764 
L 26.162153 40.32288 
L 26.526477 40.81488 
L 26.890801 40.88376 
L 27.255125 40.44588 
L 27.61945 40.46556 
L 27.983774 40.21956 
L 28.348098 39.52584 
L 28.712422 40.49508 
L 29.805395 40.19496 
L 30.169719 39.4914 
L 30.534043 39.38808 
L 30.898367 39.69312 
L 31.262691 40.46556 
L 31.99134 40.36716 
L 32.355664 39.8604 
L 32.719988 39.96372 
L 33.084312 39.85548 
L 33.448636 41.1888 
L 34.177285 40.4508 
L 34.541609 40.5738 
L 35.270257 38.45328 
L 35.634581 38.68452 
L 35.998905 39.55536 
L 36.36323 40.09164 
L 36.727554 40.39668 
L 37.456202 40.2048 
L 37.820526 40.52952 
L 38.549174 40.48032 
L 39.277823 42.26136 
L 39.642147 42.5664 
L 40.006471 41.17404 
L 40.370795 41.0166 
L 40.735119 41.22324 
L 41.463768 41.17896 
L 41.828092 41.08056 
L 42.192416 40.61808 
L 42.55674 40.7214 
L 42.921064 41.30688 
L 43.285389 40.11132 
L 43.649713 39.99816 
L 44.014037 40.56888 
L 44.378361 40.51476 
L 44.742685 40.131 
L 45.107009 40.3278 
L 45.471334 39.81612 
L 46.199982 37.46436 
L 46.564306 37.39056 
L 46.92863 37.50372 
L 47.657278 37.01172 
L 48.021603 36.16056 
L 48.385927 34.4976 
L 48.750251 33.69072 
L 49.478899 32.89368 
L 49.843223 31.73256 
L 50.207548 31.68336 
L 50.571872 31.8162 
L 50.936196 32.64276 
L 51.30052 32.0868 
L 52.029168 31.85064 
L 52.393493 30.98964 
L 52.757817 31.53576 
L 53.122141 31.521 
L 53.486465 31.38816 
L 53.850789 32.17044 
L 54.215113 33.68088 
L 54.579438 34.28604 
L 54.943762 33.58248 
L 55.308086 32.0376 
L 55.67241 32.76576 
L 56.036734 32.259 
L 56.401058 30.65508 
L 56.765383 29.93676 
L 57.129707 28.14588 
L 57.858355 28.40664 
L 58.222679 25.73508 
L 58.587003 24.62316 
L 58.951327 26.10408 
L 59.315652 26.97984 
L 59.679976 27.00936 
L 60.0443 26.58132 
L 60.408624 27.7818 
L 60.772948 29.49888 
L 61.137272 27.68832 
L 61.501597 28.44108 
L 61.865921 24.16068 
L 62.230245 24.55428 
L 62.594569 24.51984 
L 62.958893 27.32916 
L 63.323217 25.7646 
L 63.687542 26.48784 
L 64.051866 26.43372 
L 64.41619 27.44724 
L 65.144838 27.27504 
L 65.509162 27.8802 
L 65.873487 27.72276 
L 66.237811 26.84208 
L 66.602135 27.91956 
L 66.966459 27.8556 
L 67.330783 28.09668 
L 67.695107 27.87528 
L 68.423756 27.83592 
L 68.78808 27.57024 
L 69.152404 26.77812 
L 69.516728 25.01184 
L 70.245376 25.71048 
L 70.609701 26.31564 
L 70.974025 26.45832 
L 71.338349 25.8384 
L 71.702673 25.84824 
L 72.066997 26.6994 
L 72.431321 26.62068 
L 72.795646 26.8224 
L 73.15997 28.61328 
L 73.888618 28.97244 
L 74.252942 30.99456 
L 74.617266 29.76456 
L 74.981591 29.8974 
L 75.345915 29.02164 
L 75.710239 28.50012 
L 76.074563 29.00688 
L 76.803211 26.601 
L 77.167536 26.3796 
L 77.53186 26.5764 
L 77.896184 26.3796 
L 78.260508 25.1496 
L 78.624832 26.81256 
L 78.989156 26.29596 
L 79.35348 27.41772 
L 79.717805 31.19136 
L 80.082129 31.80144 
L 80.446453 28.89864 
L 80.810777 28.28364 
L 81.90375 30.80268 
L 82.268074 31.22088 
L 82.632398 30.8076 
L 82.996722 30.13356 
L 83.361046 30.17784 
L 84.089695 31.42752 
L 84.454019 31.04376 
L 84.818343 30.49764 
L 85.182667 30.3648 
L 85.546991 28.88388 
L 85.911315 29.15448 
L 86.27564 30.15324 
L 87.004288 31.4226 
L 87.732936 30.9306 
L 88.09726 30.66 
L 88.825909 34.99944 
L 89.190233 34.07448 
L 89.554557 34.9158 
L 89.918881 34.02528 
L 90.283205 34.26144 
L 90.647529 33.0216 
L 91.011854 33.10524 
L 91.376178 34.1532 
L 91.740502 34.2024 
L 92.46915 36.34752 
L 92.833474 35.89488 
L 93.562123 36.94776 
L 93.926447 36.2688 
L 94.290771 36.97236 
L 94.655095 38.286 
L 95.019419 38.76324 
L 95.383744 38.73864 
L 95.748068 38.51724 
L 96.112392 37.42992 
L 96.476716 37.42008 
L 96.84104 36.90348 
L 97.205364 36.98712 
L 97.569689 36.86412 
L 97.934013 37.16424 
L 98.298337 37.14948 
L 98.662661 38.52216 
L 99.391309 35.71776 
L 99.755633 36.15564 
L 100.119958 36.93792 
L 100.848606 36.72636 
L 101.21293 36.21468 
L 101.577254 34.8174 
L 101.941578 34.7928 
L 102.305903 35.42748 
L 102.670227 36.49512 
L 103.034551 36.28356 
L 103.398875 36.6378 
L 103.763199 37.3512 
L 104.127523 37.3512 
L 104.491848 38.31552 
L 104.856172 38.32536 
L 105.220496 37.26264 
L 105.58482 37.26264 
L 105.949144 37.09044 
L 106.313468 37.06092 
L 106.677793 37.34628 
L 107.042117 37.48404 
L 107.406441 37.77924 
L 108.135089 37.45944 
L 108.863738 37.56276 
L 109.228062 37.31184 
L 109.592386 37.33644 
L 109.95671 37.09536 
L 110.321034 36.23928 
L 111.049682 36.11628 
L 111.778331 35.0142 
L 112.142655 35.93424 
L 112.506979 36.36228 
L 112.871303 36.50988 
L 113.235627 36.5148 
L 113.599952 36.25404 
L 113.964276 36.46068 
L 114.3286 34.83708 
L 114.692924 34.57632 
L 115.421572 35.00436 
L 115.785897 34.93056 
L 116.150221 35.088 
L 116.514545 35.78664 
L 116.878869 37.55292 
L 117.243193 37.26756 
L 117.607517 37.46436 
L 118.336166 37.45944 
L 118.70049 38.41392 
L 119.429138 36.95268 
L 119.793462 37.05108 
L 120.157787 38.37948 
L 120.522111 39.20604 
L 120.886435 41.03136 
L 121.250759 42.26628 
L 121.615083 41.73492 
L 121.922655 42.23676 
L 122.576317 44.89356 
L 122.939081 43.6242 
L 123.673051 43.53072 
L 124.039454 43.72752 
L 124.766036 44.436 
L 125.13025 44.49012 
L 125.490193 43.81608 
L 125.835294 43.7226 
L 126.222987 44.5344 
L 126.541547 44.19 
L 126.951057 44.21952 
L 127.677134 44.51472 
L 128.407717 44.3868 
L 128.773138 45.174 
L 129.106684 45.23796 
L 129.500475 44.81484 
L 129.863176 43.821 
L 130.226808 44.01288 
L 130.58684 44.66232 
L 130.959441 43.93908 
L 131.320004 44.39664 
L 131.685176 44.12112 
L 132.047459 44.33268 
L 132.412568 43.3044 
L 132.776719 43.6242 
L 133.138247 44.29824 
L 133.506109 44.53932 
L 133.871526 44.30808 
L 134.233509 43.8702 
L 134.59769 44.00304 
L 134.963448 43.97844 
L 135.327068 43.41756 
L 136.062202 43.48644 
L 136.785503 41.73984 
L 137.152606 41.7546 
L 137.877809 43.14204 
L 138.24 43.083 
L 138.24 43.083 
" clip-path="url(#p8854211131)" style="fill: none; stroke: #4a8dff; stroke-width: 0.6; stroke-linecap: round"/>
   </g>
   <g id="line2d_7">
    <path d="M 5.76 44.05716 
L 6.124324 44.1654 
L 6.852972 42.4188 
L 7.217297 42.32532 
L 7.581621 42.60084 
L 7.945945 42.468 
L 8.310269 43.88496 
L 8.674593 44.71644 
L 9.038917 44.87388 
L 9.403242 44.79516 
L 9.767566 43.452 
L 10.13189 44.79024 
L 10.860538 44.13588 
L 11.224862 44.2638 
L 11.589187 46.9206 
L 11.953511 46.44336 
L 12.317835 47.85048 
L 12.682159 44.74596 
L 13.046483 46.23672 
L 13.410807 44.34252 
L 13.775132 43.41756 
L 14.139456 44.25888 
L 14.50378 43.80624 
L 14.868104 44.23428 
L 15.232428 44.01288 
L 15.596752 43.60452 
L 15.961077 43.85052 
L 16.325401 43.50612 
L 16.689725 43.53072 
L 17.054049 42.35976 
L 17.418373 39.33396 
L 17.782697 39.3192 
L 18.147021 39.18636 
L 18.511346 38.74356 
L 18.87567 38.80752 
L 19.239994 39.2208 
L 19.604318 38.61564 
L 19.968642 38.9994 
L 20.332966 39.00924 
L 20.697291 37.92684 
L 21.061615 37.71528 
L 21.425939 38.17284 
L 21.790263 38.96496 
L 22.154587 38.74848 
L 22.518911 37.71528 
L 22.883236 37.63164 
L 23.24756 34.64028 
L 23.611884 34.69932 
L 23.976208 33.87276 
L 24.340532 34.18764 
L 24.704856 34.73868 
L 25.069181 34.09416 
L 25.433505 34.38444 
L 25.797829 34.33032 
L 26.526477 34.57632 
L 26.890801 33.18396 
L 27.255125 33.38076 
L 27.61945 32.81004 
L 27.983774 31.38816 
L 28.348098 30.45336 
L 28.712422 32.59848 
L 29.076746 32.29344 
L 29.44107 31.78176 
L 29.805395 31.53084 
L 30.169719 31.68336 
L 30.534043 32.28852 
L 31.262691 34.1778 
L 31.627015 33.84324 
L 31.99134 33.3414 
L 32.355664 33.25284 
L 33.084312 33.7842 
L 33.448636 35.34384 
L 33.81296 33.981 
L 34.177285 33.35616 
L 34.541609 33.35124 
L 34.905933 31.09296 
L 35.270257 31.11756 
L 35.634581 31.87524 
L 35.998905 33.20856 
L 36.36323 33.17412 
L 36.727554 33.45456 
L 37.091878 33.4152 
L 37.456202 32.7264 
L 37.820526 33.84816 
L 38.549174 33.84324 
L 39.642147 35.73744 
L 40.006471 33.4398 
L 40.370795 33.20856 
L 40.735119 32.58372 
L 41.099444 32.71164 
L 41.828092 32.53944 
L 42.192416 32.013 
L 42.921064 33.3906 
L 43.285389 31.80144 
L 43.649713 31.41768 
L 44.014037 32.19012 
L 44.378361 32.10156 
L 44.742685 31.60956 
L 45.107009 32.0622 
L 45.471334 31.73748 
L 45.835658 30.56652 
L 46.199982 28.31808 
L 46.564306 27.48168 
L 46.92863 27.55548 
L 47.292954 26.71908 
L 47.657278 26.36484 
L 48.021603 27.42756 
L 48.750251 26.55672 
L 49.114575 27.27504 
L 49.478899 27.31932 
L 49.843223 27.63912 
L 50.207548 27.52596 
L 50.571872 26.3058 
L 50.936196 26.96016 
L 51.30052 27.09792 
L 51.664844 27.49644 
L 52.029168 27.2898 
L 52.393493 26.57148 
L 52.757817 27.27012 
L 53.486465 27.35376 
L 54.215113 29.62188 
L 54.579438 29.96136 
L 54.943762 29.14956 
L 55.308086 28.68216 
L 55.67241 29.184 
L 56.036734 28.7412 
L 56.401058 27.5358 
L 56.765383 27.91956 
L 57.129707 28.00812 
L 57.494031 26.64528 
L 57.858355 26.88636 
L 58.222679 26.1828 
L 58.587003 24.52476 
L 58.951327 27.0684 
L 59.315652 27.59484 
L 60.0443 27.49644 
L 60.408624 28.13112 
L 60.772948 29.8482 
L 61.137272 29.12004 
L 61.501597 30.03024 
L 61.865921 27.84576 
L 62.594569 29.54316 
L 62.958893 31.13232 
L 63.323217 30.31068 
L 63.687542 30.62064 
L 64.051866 29.97612 
L 64.41619 31.97364 
L 64.780514 31.82112 
L 65.144838 32.0868 
L 65.509162 31.63416 
L 65.873487 30.6354 
L 66.237811 30.37464 
L 66.602135 30.86172 
L 66.966459 30.89616 
L 67.330783 31.11756 
L 68.059432 30.22212 
L 68.423756 30.45828 
L 68.78808 29.2578 
L 69.152404 28.50504 
L 69.516728 28.18032 
L 69.881052 28.2738 
L 70.245376 28.569 
L 70.609701 28.55424 
L 70.974025 27.8802 
L 71.338349 28.03272 
L 71.702673 27.69324 
L 72.066997 28.42632 
L 72.431321 28.3968 
L 72.795646 28.60344 
L 73.15997 29.88756 
L 73.524294 30.22212 
L 73.888618 29.58252 
L 74.252942 31.73256 
L 74.617266 31.36356 
L 74.981591 31.39308 
L 75.710239 29.09544 
L 76.074563 29.2332 
L 76.438887 27.02412 
L 77.167536 25.16928 
L 77.53186 25.10532 
L 78.260508 23.92452 
L 78.624832 25.53336 
L 78.989156 24.62808 
L 79.35348 25.4448 
L 79.717805 29.64156 
L 80.082129 30.80268 
L 80.446453 28.65756 
L 80.810777 28.6428 
L 81.539425 30.87156 
L 81.90375 32.17044 
L 82.268074 32.97732 
L 82.632398 32.628 
L 82.996722 31.90476 
L 83.361046 30.92076 
L 83.72537 31.96872 
L 84.089695 32.39676 
L 84.454019 31.19628 
L 85.182667 30.42384 
L 85.546991 29.0118 
L 85.911315 29.15448 
L 86.27564 29.76456 
L 86.639964 31.2012 
L 87.004288 32.09172 
L 87.368612 31.43244 
L 88.09726 30.90108 
L 88.825909 35.35368 
L 89.190233 34.24668 
L 89.554557 35.5062 
L 89.918881 34.48284 
L 90.283205 35.02896 
L 90.647529 33.8334 
L 91.011854 33.243 
L 91.376178 34.69932 
L 92.104826 36.2934 
L 92.46915 38.901 
L 92.833474 38.37948 
L 93.197799 38.92068 
L 93.562123 40.09164 
L 93.926447 39.70788 
L 94.290771 40.4262 
L 94.655095 42.75336 
L 95.019419 43.54548 
L 95.383744 43.72752 
L 96.112392 41.976 
L 96.476716 42.42864 
L 96.84104 40.86408 
L 97.205364 40.47048 
L 98.298337 40.89852 
L 98.662661 42.9354 
L 99.026985 40.43604 
L 99.391309 39.31428 
L 99.755633 40.04244 
L 100.119958 41.43972 
L 100.484282 41.47416 
L 100.848606 41.02152 
L 101.21293 40.7952 
L 101.577254 39.75708 
L 101.941578 40.11132 
L 102.305903 39.87024 
L 102.670227 40.94772 
L 103.034551 40.97232 
L 103.763199 42.87144 
L 104.127523 42.17772 
L 104.491848 43.04364 
L 104.856172 43.34868 
L 105.220496 42.03504 
L 105.949144 41.8038 
L 106.313468 41.84316 
L 106.677793 42.37944 
L 107.042117 42.26628 
L 107.406441 42.468 
L 107.770765 42.42864 
L 108.135089 42.18264 
L 108.499413 42.1728 
L 108.863738 42.50244 
L 109.228062 41.88252 
L 109.592386 42.32532 
L 110.321034 41.13468 
L 111.049682 40.42128 
L 111.414007 39.16176 
L 111.778331 39.28968 
L 112.142655 40.48032 
L 113.235627 40.88376 
L 113.964276 40.53936 
L 114.3286 38.50248 
L 114.692924 37.63656 
L 115.057248 38.34012 
L 115.421572 38.37456 
L 115.785897 38.5812 
L 116.514545 39.8358 
L 116.878869 41.93172 
L 117.243193 41.42004 
L 117.971842 41.39052 
L 118.336166 41.5086 
L 118.70049 42.80256 
L 119.064814 41.93664 
L 119.429138 41.49384 
L 119.793462 41.51352 
L 120.157787 43.78164 
L 120.522111 43.9932 
L 120.886435 46.66968 
L 121.250759 47.55036 
L 121.615083 46.64508 
L 122.212178 48.89352 
L 122.576317 49.84308 
L 122.939081 49.00176 
L 123.311733 49.233 
L 123.673051 48.97716 
L 124.403023 49.36092 
L 125.13025 49.58724 
L 125.490193 49.28712 
L 125.835294 49.16904 
L 126.222987 49.39044 
L 126.541547 49.29696 
L 127.314939 49.55772 
L 128.407717 49.41996 
L 128.773138 49.8234 
L 129.106684 49.86768 
L 129.500475 49.72992 
L 129.863176 49.39536 
L 130.58684 49.6758 
L 130.959441 49.47408 
L 131.320004 49.60692 
L 131.685176 49.37568 
L 132.047459 49.36584 
L 132.412568 48.6672 
L 133.506109 49.54788 
L 133.871526 49.5282 
L 134.233509 49.09032 
L 134.963448 49.2084 
L 135.327068 48.93288 
L 136.062202 48.89844 
L 136.785503 48.1998 
L 137.152606 48.28344 
L 137.517032 48.88368 
L 137.877809 49.04604 
L 138.24 49.00176 
L 138.24 49.00176 
" clip-path="url(#p8854211131)" style="fill: none; stroke: #f5841e; stroke-width: 0.7; stroke-linecap: round"/>
   </g>
  </g>
 </g>
 <defs>
  <clipPath id="p8854211131">
   <rect x="5.76" y="3.6" width="132.48" height="49.2"/>
  </clipPath>
 </defs>
</svg>
