<?xml version="1.0" encoding="utf-8" standalone="no"?>
<!DOCTYPE svg PUBLIC "-//W3C//DTD SVG 1.1//EN"
  "http://www.w3.org/Graphics/SVG/1.1/DTD/svg11.dtd">
<svg xmlns:xlink="http://www.w3.org/1999/xlink" width="144pt" height="60pt" viewBox="0 0 144 60" xmlns="http://www.w3.org/2000/svg" version="1.1">
  <desc id="nav-meta">{"window":"1m","count":4,"labels":["11.03","21.03","30.03","09.04"],"tick_utc":["2026-03-11T03:14:04Z","2026-03-21T03:10:23Z","2026-03-30T03:51:16Z","2026-04-09T03:38:15Z"]}</desc>

 <metadata>
  <rdf:RDF xmlns:dc="http://purl.org/dc/elements/1.1/" xmlns:cc="http://creativecommons.org/ns#" xmlns:rdf="http://www.w3.org/1999/02/22-rdf-syntax-ns#">
   <cc:Work>
    <dc:type rdf:resource="http://purl.org/dc/dcmitype/StillImage"/>
    <dc:date>2026-04-09T14:24:11.626122</dc:date>
    <dc:format>image/svg+xml</dc:format>
    <dc:creator>
     <cc:Agent>
      <dc:title>Matplotlib v3.10.8, https://matplotlib.org/</dc:title>
     </cc:Agent>
    </dc:creator>
   </cc:Work>
  </rdf:RDF>
 </metadata>
 <defs>
  <style type="text/css">*{stroke-linejoin: round; stroke-linecap: butt}</style>
 </defs>
 <g id="figure_1">
  <g id="patch_1">
   <path d="M 0 60 
L 144 60 
L 144 0 
L 0 0 
L 0 60 
z
" style="fill: none; opacity: 0"/>
  </g>
  <g id="axes_1">
   <g id="patch_2">
    <path d="M 5.76 52.8 
L 138.24 52.8 
L 138.24 3.6 
L 5.76 3.6 
L 5.76 52.8 
z
" style="fill: none"/>
   </g>
   <g id="matplotlib.axis_1"/>
   <g id="matplotlib.axis_2"/>
   <g id="line2d_1">
    <path d="M 5.76 42.96 
L 138.24 42.96 
" clip-path="url(#pb130cbbfb7)" style="fill: none; stroke: #b2b2b2; stroke-opacity: 0.35; stroke-width: 0.5; stroke-linecap: square"/>
   </g>
   <g id="line2d_2">
    <path d="M 5.76 33.12 
L 138.24 33.12 
" clip-path="url(#pb130cbbfb7)" style="fill: none; stroke: #b2b2b2; stroke-opacity: 0.35; stroke-width: 0.5; stroke-linecap: square"/>
   </g>
   <g id="line2d_3">
    <path d="M 5.76 23.28 
L 138.24 23.28 
" clip-path="url(#pb130cbbfb7)" style="fill: none; stroke: #b2b2b2; stroke-opacity: 0.35; stroke-width: 0.5; stroke-linecap: square"/>
   </g>
   <g id="line2d_4">
    <path d="M 5.76 13.44 
L 138.24 13.44 
" clip-path="url(#pb130cbbfb7)" style="fill: none; stroke: #b2b2b2; stroke-opacity: 0.35; stroke-width: 0.5; stroke-linecap: square"/>
   </g>
   <g id="line2d_5">
    <path d="M 5.76 49.41996 
L 10.343598 49.45932 
L 14.900406 49.16904 
L 19.459961 49.22808 
L 24.112942 49.27236 
L 28.691467 48.87384 
L 33.177201 48.74592 
L 37.777656 48.70164 
L 42.344556 49.03128 
L 46.865747 49.1592 
L 51.404641 49.08048 
L 56.038546 49.21332 
L 60.614905 49.36584 
L 65.138262 49.11 
L 70.043939 48.90828 
L 74.325064 49.05096 
L 78.896456 49.37076 
L 83.418439 49.64628 
L 88.046267 49.6266 
L 92.624951 49.602 
L 97.161784 49.59708 
L 101.766572 49.59708 
L 106.272069 49.8726 
L 110.842932 49.88244 
L 115.36946 49.80864 
L 120.003841 49.78896 
L 124.581257 49.69056 
L 129.117244 49.83816 
L 133.690274 49.50852 
L 138.24 49.68564 
" clip-path="url(#pb130cbbfb7)" style="fill: none; stroke: #bebebe; stroke-width: 0.6; stroke-linecap: round"/>
   </g>
   <g id="line2d_6">
    <path d="M 5.76 44.00304 
L 10.343598 43.97844 
L 14.900406 43.41756 
L 19.459961 43.48152 
L 24.112942 43.48644 
L 28.691467 42.49752 
L 33.177201 41.73984 
L 37.777656 41.7546 
L 42.344556 42.591 
L 46.865747 43.14204 
L 51.404641 43.083 
L 56.038546 43.35852 
L 60.614905 43.78164 
L 65.138262 43.21584 
L 70.043939 42.9354 
L 74.325064 43.10268 
L 78.896456 43.72752 
L 83.418439 44.25396 
L 88.046267 44.10636 
L 92.624951 43.9194 
L 97.161784 43.74228 
L 101.766572 43.46676 
L 106.272069 43.65372 
L 110.842932 43.79148 
L 115.36946 43.81116 
L 120.003841 43.77672 
L 124.581257 43.2552 
L 129.117244 43.40772 
L 133.690274 42.49752 
L 138.24 42.90588 
" clip-path="url(#pb130cbbfb7)" style="fill: none; stroke: #4a8dff; stroke-width: 0.6; stroke-linecap: round"/>
   </g>
   <g id="line2d_7">
    <path d="M 5.76 49.16412 
L 10.343598 49.2084 
L 14.900406 48.93288 
L 19.459961 48.95748 
L 24.112942 48.89844 
L 28.691467 48.48024 
L 33.177201 48.1998 
L 37.777656 48.28344 
L 42.344556 48.88368 
L 46.865747 49.04604 
L 51.404641 49.00176 
L 56.038546 49.20348 
L 60.614905 49.38552 
L 65.138262 49.04112 
L 70.043939 48.92796 
L 74.325064 48.987 
L 78.896456 49.29204 
L 83.418439 49.66104 
L 88.046267 49.56756 
L 92.624951 49.53312 
L 97.161784 49.46424 
L 101.766572 49.40028 
L 106.272069 49.56756 
L 110.842932 49.59708 
L 115.36946 49.56264 
L 120.003841 49.53312 
L 124.581257 49.25268 
L 129.117244 49.29696 
L 133.690274 48.89352 
L 138.24 48.96732 
" clip-path="url(#pb130cbbfb7)" style="fill: none; stroke: #f5841e; stroke-width: 0.7; stroke-linecap: round"/>
   </g>
  </g>
 </g>
 <defs>
  <clipPath id="pb130cbbfb7">
   <rect x="5.76" y="3.6" width="132.48" height="49.2"/>
  </clipPath>
 </defs>
</svg>
