<?xml version="1.0" encoding="utf-8" standalone="no"?>
<!DOCTYPE svg PUBLIC "-//W3C//DTD SVG 1.1//EN"
  "http://www.w3.org/Graphics/SVG/1.1/DTD/svg11.dtd">
<svg xmlns:xlink="http://www.w3.org/1999/xlink" width="144pt" height="60pt" viewBox="0 0 144 60" xmlns="http://www.w3.org/2000/svg" version="1.1">
  <desc id="nav-meta">{"window":"6m","count":4,"labels":["01.01","02.03","01.05","30.06"],"tick_utc":["2026-01-01T12:00:00Z","2026-03-02T03:18:56Z","2026-05-01T04:39:16Z","2026-06-30T04:49:55Z"]}</desc>

 <metadata>
  <rdf:RDF xmlns:dc="http://purl.org/dc/elements/1.1/" xmlns:cc="http://creativecommons.org/ns#" xmlns:rdf="http://www.w3.org/1999/02/22-rdf-syntax-ns#">
   <cc:Work>
    <dc:type rdf:resource="http://purl.org/dc/dcmitype/StillImage"/>
    <dc:date>2026-06-30T04:49:56.559009</dc:date>
    <dc:format>image/svg+xml</dc:format>
    <dc:creator>
     <cc:Agent>
      <dc:title>Matplotlib v3.11.0, https://matplotlib.org/</dc:title>
     </cc:Agent>
    </dc:creator>
   </cc:Work>
  </rdf:RDF>
 </metadata>
 <defs>
  <style type="text/css">*{stroke-linejoin: round; stroke-linecap: butt}</style>
 </defs>
 <g id="figure_1">
  <g id="patch_1">
   <path d="M 0 60 
L 144 60 
L 144 0 
L 0 0 
L 0 60 
z
" style="fill: none; opacity: 0"/>
  </g>
  <g id="axes_1">
   <g id="patch_2">
    <path d="M 5.76 52.8 
L 138.24 52.8 
L 138.24 3.6 
L 5.76 3.6 
L 5.76 52.8 
z
" style="fill: none"/>
   </g>
   <g id="matplotlib.axis_1"/>
   <g id="matplotlib.axis_2"/>
   <g id="line2d_1">
    <path d="M 5.76 42.96 
L 138.24 42.96 
" clip-path="url(#pf435409ae5)" style="fill: none; stroke: #b2b2b2; stroke-opacity: 0.35; stroke-width: 0.5; stroke-linecap: square"/>
   </g>
   <g id="line2d_2">
    <path d="M 5.76 33.12 
L 138.24 33.12 
" clip-path="url(#pf435409ae5)" style="fill: none; stroke: #b2b2b2; stroke-opacity: 0.35; stroke-width: 0.5; stroke-linecap: square"/>
   </g>
   <g id="line2d_3">
    <path d="M 5.76 23.28 
L 138.24 23.28 
" clip-path="url(#pf435409ae5)" style="fill: none; stroke: #b2b2b2; stroke-opacity: 0.35; stroke-width: 0.5; stroke-linecap: square"/>
   </g>
   <g id="line2d_4">
    <path d="M 5.76 13.44 
L 138.24 13.44 
" clip-path="url(#pf435409ae5)" style="fill: none; stroke: #b2b2b2; stroke-opacity: 0.35; stroke-width: 0.5; stroke-linecap: square"/>
   </g>
   <g id="line2d_5">
    <path d="M 5.76 45.40032 
L 6.497223 45.11496 
L 7.234447 44.42124 
L 8.708893 44.18508 
L 9.446116 43.62912 
L 10.18334 43.24044 
L 10.920563 43.8702 
L 11.657786 43.60944 
L 12.395009 43.92924 
L 13.132233 43.93416 
L 13.869456 43.46184 
L 14.606679 43.5012 
L 15.343902 42.72384 
L 16.081126 42.51228 
L 16.818349 43.08792 
L 17.555572 42.75828 
L 18.292795 42.90096 
L 19.767242 44.2392 
L 20.504465 45.23304 
L 21.241688 44.77548 
L 22.716135 45.04608 
L 23.453358 45.07068 
L 24.190581 46.1334 
L 24.927805 45.4446 
L 25.665028 45.06084 
L 26.402251 45.33144 
L 27.139474 46.30068 
L 27.876698 46.34496 
L 28.613921 47.89476 
L 29.351144 48.26376 
L 30.088367 47.96364 
L 31.296611 49.06572 
L 32.033459 50.04972 
L 32.767525 49.24776 
L 35.729866 49.59708 
L 36.464436 49.80372 
L 37.201437 49.86768 
L 37.929795 49.479 
L 38.628118 49.24776 
L 39.412629 49.48392 
L 40.057247 49.37568 
L 40.885906 49.479 
L 41.622234 49.7004 
L 43.833511 49.49376 
L 44.572953 49.98576 
L 45.247896 49.96608 
L 46.044746 49.7004 
L 46.778684 49.27236 
L 47.514508 49.37076 
L 48.243045 49.68072 
L 48.997018 49.25268 
L 49.72663 49.51344 
L 51.937472 49.09032 
L 54.150293 49.64628 
L 54.889727 49.58724 
L 55.622214 49.36092 
L 57.099272 49.45932 
L 57.83507 49.16904 
L 59.32264 49.27236 
L 60.061945 48.87384 
L 61.529113 48.70164 
L 62.266541 49.03128 
L 62.996588 49.1592 
L 63.729494 49.08048 
L 65.216697 49.36584 
L 66.739225 48.90828 
L 67.430509 49.05096 
L 68.898837 49.64628 
L 71.861553 49.59708 
L 72.589066 49.8726 
L 74.058043 49.80864 
L 76.27793 49.83816 
L 77.016348 49.50852 
L 77.751003 49.68564 
L 79.220961 49.48884 
L 79.97141 49.6512 
L 80.712413 49.69056 
L 81.444943 49.40028 
L 82.181603 49.58724 
L 84.386831 49.19856 
L 85.13379 49.43472 
L 85.872839 49.50852 
L 89.549578 49.37568 
L 90.298269 49.4052 
L 91.043437 49.29204 
L 91.782204 49.5528 
L 92.517414 49.50852 
L 93.255874 49.64136 
L 94.719561 49.56264 
L 95.471751 49.57248 
L 96.208718 49.42488 
L 96.929703 49.49376 
L 98.417333 49.25268 
L 99.142286 49.24284 
L 99.882206 48.80004 
L 100.634284 48.85416 
L 102.104311 48.63276 
L 102.845041 48.66228 
L 103.581445 49.09524 
L 104.322304 48.99192 
L 105.798346 49.34616 
L 106.542728 49.47408 
L 108.014529 49.54788 
L 108.755951 49.3314 
L 109.487525 49.34616 
L 110.21462 49.51836 
L 111.710441 49.41504 
L 113.916155 49.7742 
L 116.132791 49.61676 
L 117.610889 49.7988 
L 118.356406 50.19732 
L 119.091104 50.45808 
L 119.816185 50.59092 
L 120.542077 50.99928 
L 122.035628 50.74344 
L 122.758781 50.62536 
L 123.503649 50.80248 
L 126.459718 50.56632 
L 127.962877 50.23176 
L 128.676619 50.2416 
L 130.164897 50.55156 
L 132.384007 50.217 
L 134.554046 50.59092 
L 135.295049 50.59092 
L 136.023236 50.33016 
L 136.774513 50.4384 
L 137.517069 50.3892 
L 138.24 50.22192 
L 138.24 50.22192 
" clip-path="url(#pf435409ae5)" style="fill: none; stroke: #bebebe; stroke-width: 0.6; stroke-linecap: round"/>
   </g>
   <g id="line2d_6">
    <path d="M 5.76 37.33644 
L 6.497223 37.09536 
L 7.234447 36.23928 
L 8.708893 36.11628 
L 9.446116 35.48652 
L 10.18334 35.0142 
L 10.920563 35.93424 
L 11.657786 36.36228 
L 12.395009 36.50988 
L 13.132233 36.5148 
L 13.869456 36.25404 
L 14.606679 36.46068 
L 15.343902 34.83708 
L 16.081126 34.57632 
L 17.555572 35.00436 
L 18.292795 34.93056 
L 19.030019 35.088 
L 19.767242 35.78664 
L 20.504465 37.55292 
L 21.241688 37.26756 
L 21.978912 37.46436 
L 23.453358 37.45944 
L 24.190581 38.41392 
L 25.665028 36.95268 
L 26.402251 37.05108 
L 27.139474 38.37948 
L 27.876698 39.20604 
L 28.613921 41.03136 
L 29.351144 42.26628 
L 30.088367 41.73492 
L 30.710749 42.23676 
L 32.033459 44.89356 
L 32.767525 43.6242 
L 34.25274 43.53072 
L 34.99417 43.72752 
L 36.464436 44.436 
L 37.201437 44.49012 
L 37.929795 43.81608 
L 38.628118 43.7226 
L 39.412629 44.5344 
L 40.057247 44.19 
L 40.885906 44.21952 
L 42.355148 44.51472 
L 43.833511 44.3868 
L 44.572953 45.174 
L 45.247896 45.23796 
L 46.044746 44.81484 
L 46.778684 43.821 
L 47.514508 44.01288 
L 48.243045 44.66232 
L 48.997018 43.93908 
L 49.72663 44.39664 
L 50.465568 44.12112 
L 51.198661 44.33268 
L 51.937472 43.3044 
L 52.674345 43.6242 
L 53.405911 44.29824 
L 54.150293 44.53932 
L 54.889727 44.30808 
L 55.622214 43.8702 
L 56.359147 44.00304 
L 57.099272 43.97844 
L 57.83507 43.41756 
L 59.32264 43.48644 
L 60.061945 42.49752 
L 60.786267 41.73984 
L 61.529113 41.7546 
L 62.266541 42.591 
L 62.996588 43.14204 
L 63.729494 43.083 
L 64.477742 43.35852 
L 65.216697 43.78164 
L 65.947094 43.21584 
L 66.739225 42.9354 
L 67.430509 43.10268 
L 68.898837 44.25396 
L 71.118007 43.74228 
L 71.861553 43.46676 
L 73.327134 43.79148 
L 74.806367 43.77672 
L 75.545493 43.2552 
L 76.27793 43.40772 
L 77.016348 42.49752 
L 77.751003 42.90588 
L 78.495009 42.8616 
L 79.220961 42.41388 
L 80.712413 42.79764 
L 81.444943 41.57256 
L 82.181603 41.86284 
L 82.922018 41.63652 
L 83.657739 41.85792 
L 84.386831 41.22324 
L 85.13379 41.76936 
L 85.872839 42.1482 
L 86.606829 41.96616 
L 87.341765 41.59224 
L 88.821152 41.99076 
L 89.549578 41.91696 
L 90.298269 41.98584 
L 91.043437 41.41512 
L 91.782204 42.15312 
L 92.517414 41.96124 
L 93.255874 42.43848 
L 94.719561 42.02028 
L 95.471751 42.0252 
L 96.208718 41.40528 
L 97.679913 41.52336 
L 99.142286 42.1974 
L 99.882206 41.8776 
L 101.377327 41.8038 
L 102.104311 41.976 
L 102.845041 42.00552 
L 103.581445 42.3942 
L 104.322304 42.27612 
L 105.798346 42.85176 
L 106.542728 43.31424 
L 107.274669 43.2306 
L 108.014529 43.39296 
L 108.755951 43.16172 
L 109.487525 43.24536 
L 110.21462 43.71768 
L 110.963516 43.33392 
L 113.181287 43.67832 
L 113.916155 44.32776 
L 114.653924 44.13588 
L 115.380516 44.16048 
L 116.132791 43.96368 
L 116.880919 44.2392 
L 117.610889 44.19984 
L 118.356406 45.16908 
L 119.091104 45.67584 
L 119.816185 46.00548 
L 120.542077 47.57004 
L 122.035628 46.64016 
L 122.758781 46.34496 
L 123.503649 46.82712 
L 124.985315 46.51716 
L 125.717145 46.5516 
L 126.459718 46.46304 
L 128.676619 45.6414 
L 129.41031 46.09404 
L 130.164897 46.3302 
L 132.384007 46.035 
L 133.077159 46.14324 
L 135.295049 47.38308 
L 136.023236 47.14692 
L 137.517069 47.22072 
L 138.24 47.10264 
L 138.24 47.10264 
" clip-path="url(#pf435409ae5)" style="fill: none; stroke: #4a8dff; stroke-width: 0.6; stroke-linecap: round"/>
   </g>
   <g id="line2d_7">
    <path d="M 5.76 42.32532 
L 7.234447 41.13468 
L 8.708893 40.42128 
L 9.446116 39.16176 
L 10.18334 39.28968 
L 10.920563 40.48032 
L 13.132233 40.88376 
L 14.606679 40.53936 
L 15.343902 38.50248 
L 16.081126 37.63656 
L 16.818349 38.34012 
L 17.555572 38.37456 
L 18.292795 38.5812 
L 19.767242 39.8358 
L 20.504465 41.93172 
L 21.241688 41.42004 
L 22.716135 41.39052 
L 23.453358 41.5086 
L 24.190581 42.80256 
L 24.927805 41.93664 
L 25.665028 41.49384 
L 26.402251 41.51352 
L 27.139474 43.78164 
L 27.876698 43.9932 
L 28.613921 46.66968 
L 29.351144 47.55036 
L 30.088367 46.64508 
L 31.296611 48.89352 
L 32.033459 49.84308 
L 32.767525 49.00176 
L 33.521601 49.233 
L 34.25274 48.97716 
L 35.729866 49.36092 
L 37.201437 49.58724 
L 37.929795 49.28712 
L 38.628118 49.16904 
L 39.412629 49.39044 
L 40.057247 49.29696 
L 41.622234 49.55772 
L 43.833511 49.41996 
L 44.572953 49.8234 
L 45.247896 49.86768 
L 46.044746 49.72992 
L 46.778684 49.39536 
L 48.243045 49.6758 
L 48.997018 49.47408 
L 49.72663 49.60692 
L 50.465568 49.37568 
L 51.198661 49.36584 
L 51.937472 48.6672 
L 52.674345 48.95256 
L 53.405911 49.36092 
L 54.150293 49.54788 
L 54.889727 49.5282 
L 55.622214 49.09032 
L 57.099272 49.2084 
L 57.83507 48.93288 
L 59.32264 48.89844 
L 60.061945 48.48024 
L 60.786267 48.1998 
L 61.529113 48.28344 
L 62.266541 48.88368 
L 62.996588 49.04604 
L 63.729494 49.00176 
L 65.216697 49.38552 
L 65.947094 49.04112 
L 66.739225 48.92796 
L 67.430509 48.987 
L 68.898837 49.66104 
L 71.861553 49.40028 
L 72.589066 49.56756 
L 74.058043 49.56264 
L 74.806367 49.53312 
L 75.545493 49.25268 
L 76.27793 49.29696 
L 77.016348 48.89352 
L 77.751003 48.96732 
L 79.220961 48.5934 
L 79.97141 48.84432 
L 80.712413 48.95748 
L 81.444943 48.30804 
L 82.181603 48.34248 
L 82.922018 48.21456 
L 83.657739 48.26376 
L 84.386831 47.41752 
L 85.13379 48.05712 
L 85.872839 48.26376 
L 86.606829 48.01776 
L 87.341765 47.23548 
L 89.549578 47.1666 
L 90.298269 47.31912 
L 91.043437 46.49256 
L 91.782204 47.64876 
L 92.517414 47.5356 
L 93.255874 48.0276 
L 94.001152 47.50608 
L 94.719561 46.81728 
L 95.471751 46.92552 
L 96.208718 45.85788 
L 97.679913 45.29208 
L 98.417333 45.58728 
L 99.142286 46.2564 
L 99.882206 45.7152 
L 102.845041 45.42492 
L 103.581445 46.38432 
L 104.322304 45.57744 
L 105.050115 46.51716 
L 105.798346 46.95996 
L 106.542728 47.54544 
L 108.014529 47.66844 
L 108.755951 47.05344 
L 109.487525 47.22564 
L 110.21462 48.07188 
L 111.710441 47.37324 
L 113.181287 48.07188 
L 113.916155 48.59832 
L 114.653924 48.52452 
L 115.380516 48.5688 
L 116.132791 48.38676 
L 116.880919 48.55404 
L 119.091104 49.93656 
L 119.816185 49.98084 
L 120.542077 50.3646 
L 121.295145 50.15796 
L 122.758781 49.99068 
L 123.503649 50.217 
L 124.985315 49.98084 
L 126.459718 49.87752 
L 127.221448 49.69548 
L 128.676619 49.7004 
L 130.164897 50.06448 
L 131.625205 49.89228 
L 133.077159 49.9464 
L 136.023236 50.31048 
L 138.24 50.39412 
L 138.24 50.39412 
" clip-path="url(#pf435409ae5)" style="fill: none; stroke: #f5841e; stroke-width: 0.7; stroke-linecap: round"/>
   </g>
  </g>
 </g>
 <defs>
  <clipPath id="pf435409ae5">
   <rect x="5.76" y="3.6" width="132.48" height="49.2"/>
  </clipPath>
 </defs>
</svg>
