<?xml version="1.0" encoding="utf-8" standalone="no"?>
<!DOCTYPE svg PUBLIC "-//W3C//DTD SVG 1.1//EN"
  "http://www.w3.org/Graphics/SVG/1.1/DTD/svg11.dtd">
<svg xmlns:xlink="http://www.w3.org/1999/xlink" width="144pt" height="60pt" viewBox="0 0 144 60" xmlns="http://www.w3.org/2000/svg" version="1.1">
  <desc id="nav-meta">{"window":"1m","count":4,"labels":["10.01","20.01","29.01","08.02"],"tick_utc":["2026-01-10T12:00:00Z","2026-01-20T12:00:00Z","2026-01-29T12:00:00Z","2026-02-08T03:46:03Z"]}</desc>

 <metadata>
  <rdf:RDF xmlns:dc="http://purl.org/dc/elements/1.1/" xmlns:cc="http://creativecommons.org/ns#" xmlns:rdf="http://www.w3.org/1999/02/22-rdf-syntax-ns#">
   <cc:Work>
    <dc:type rdf:resource="http://purl.org/dc/dcmitype/StillImage"/>
    <dc:date>2026-02-08T19:05:47.160215</dc:date>
    <dc:format>image/svg+xml</dc:format>
    <dc:creator>
     <cc:Agent>
      <dc:title>Matplotlib v3.10.8, https://matplotlib.org/</dc:title>
     </cc:Agent>
    </dc:creator>
   </cc:Work>
  </rdf:RDF>
 </metadata>
 <defs>
  <style type="text/css">*{stroke-linejoin: round; stroke-linecap: butt}</style>
 </defs>
 <g id="figure_1">
  <g id="patch_1">
   <path d="M 0 60 
L 144 60 
L 144 0 
L 0 0 
L 0 60 
z
" style="fill: none; opacity: 0"/>
  </g>
  <g id="axes_1">
   <g id="patch_2">
    <path d="M 5.76 52.8 
L 138.24 52.8 
L 138.24 3.6 
L 5.76 3.6 
L 5.76 52.8 
z
" style="fill: none"/>
   </g>
   <g id="matplotlib.axis_1"/>
   <g id="matplotlib.axis_2"/>
   <g id="line2d_1">
    <path d="M 5.76 42.96 
L 138.24 42.96 
" clip-path="url(#p238d872b09)" style="fill: none; stroke: #b2b2b2; stroke-opacity: 0.35; stroke-width: 0.5; stroke-linecap: square"/>
   </g>
   <g id="line2d_2">
    <path d="M 5.76 33.12 
L 138.24 33.12 
" clip-path="url(#p238d872b09)" style="fill: none; stroke: #b2b2b2; stroke-opacity: 0.35; stroke-width: 0.5; stroke-linecap: square"/>
   </g>
   <g id="line2d_3">
    <path d="M 5.76 23.28 
L 138.24 23.28 
" clip-path="url(#p238d872b09)" style="fill: none; stroke: #b2b2b2; stroke-opacity: 0.35; stroke-width: 0.5; stroke-linecap: square"/>
   </g>
   <g id="line2d_4">
    <path d="M 5.76 13.44 
L 138.24 13.44 
" clip-path="url(#p238d872b09)" style="fill: none; stroke: #b2b2b2; stroke-opacity: 0.35; stroke-width: 0.5; stroke-linecap: square"/>
   </g>
   <g id="line2d_5">
    <path d="M 5.76 43.92924 
L 10.382958 43.93416 
L 15.005915 43.46184 
L 19.628873 43.5012 
L 24.25183 42.72384 
L 28.874788 42.51228 
L 33.497746 43.08792 
L 38.120703 42.75828 
L 42.743661 42.90096 
L 47.366619 43.57008 
L 51.989576 44.2392 
L 56.612534 45.23304 
L 61.235491 44.77548 
L 65.858449 44.91816 
L 70.481407 45.04608 
L 75.104364 45.07068 
L 79.727322 46.1334 
L 84.350279 45.4446 
L 88.973237 45.06084 
L 93.596195 45.33144 
L 98.219152 46.30068 
L 102.84211 46.34496 
L 107.465067 47.89476 
L 112.088025 48.26376 
L 116.710983 47.96364 
L 120.613797 48.55896 
L 124.287604 49.06572 
L 128.908207 50.04972 
L 133.511367 49.24776 
L 138.24 49.32156 
" clip-path="url(#p238d872b09)" style="fill: none; stroke: #bebebe; stroke-width: 0.6; stroke-linecap: round"/>
   </g>
   <g id="line2d_6">
    <path d="M 5.76 36.50988 
L 10.382958 36.5148 
L 15.005915 36.25404 
L 19.628873 36.46068 
L 24.25183 34.83708 
L 28.874788 34.57632 
L 33.497746 34.84692 
L 38.120703 35.00436 
L 42.743661 34.93056 
L 47.366619 35.088 
L 51.989576 35.78664 
L 56.612534 37.55292 
L 61.235491 37.26756 
L 65.858449 37.46436 
L 70.481407 37.44468 
L 75.104364 37.45944 
L 79.727322 38.41392 
L 84.350279 37.61196 
L 88.973237 36.95268 
L 93.596195 37.05108 
L 98.219152 38.37948 
L 102.84211 39.20604 
L 107.465067 41.03136 
L 112.088025 42.26628 
L 116.710983 41.73492 
L 120.613797 42.23676 
L 124.287604 43.38804 
L 128.908207 44.89356 
L 133.511367 43.6242 
L 138.24 43.575 
" clip-path="url(#p238d872b09)" style="fill: none; stroke: #4a8dff; stroke-width: 0.6; stroke-linecap: round"/>
   </g>
   <g id="line2d_7">
    <path d="M 5.76 40.84932 
L 10.382958 40.88376 
L 15.005915 40.6968 
L 19.628873 40.53936 
L 24.25183 38.50248 
L 28.874788 37.63656 
L 33.497746 38.34012 
L 38.120703 38.37456 
L 42.743661 38.5812 
L 47.366619 39.2454 
L 51.989576 39.8358 
L 56.612534 41.93172 
L 61.235491 41.42004 
L 65.858449 41.37576 
L 70.481407 41.39052 
L 75.104364 41.5086 
L 79.727322 42.80256 
L 84.350279 41.93664 
L 88.973237 41.49384 
L 93.596195 41.51352 
L 98.219152 43.78164 
L 102.84211 43.9932 
L 107.465067 46.66968 
L 112.088025 47.55036 
L 116.710983 46.64508 
L 120.613797 47.89476 
L 124.287604 48.89352 
L 128.908207 49.84308 
L 133.511367 49.00176 
L 138.24 49.233 
" clip-path="url(#p238d872b09)" style="fill: none; stroke: #f5841e; stroke-width: 0.7; stroke-linecap: round"/>
   </g>
  </g>
 </g>
 <defs>
  <clipPath id="p238d872b09">
   <rect x="5.76" y="3.6" width="132.48" height="49.2"/>
  </clipPath>
 </defs>
</svg>
