<?xml version="1.0" encoding="utf-8" standalone="no"?>
<!DOCTYPE svg PUBLIC "-//W3C//DTD SVG 1.1//EN"
  "http://www.w3.org/Graphics/SVG/1.1/DTD/svg11.dtd">
<svg xmlns:xlink="http://www.w3.org/1999/xlink" width="144pt" height="60pt" viewBox="0 0 144 60" xmlns="http://www.w3.org/2000/svg" version="1.1">
  <desc id="nav-meta">{"window":"1w","count":4,"labels":["22 Jan","22 Jan","26 Jan","29 Jan"],"idxs":[0,31,62,93]}</desc>

 <metadata>
  <rdf:RDF xmlns:dc="http://purl.org/dc/elements/1.1/" xmlns:cc="http://creativecommons.org/ns#" xmlns:rdf="http://www.w3.org/1999/02/22-rdf-syntax-ns#">
   <cc:Work>
    <dc:type rdf:resource="http://purl.org/dc/dcmitype/StillImage"/>
    <dc:date>2026-01-29T09:09:36.757823</dc:date>
    <dc:format>image/svg+xml</dc:format>
    <dc:creator>
     <cc:Agent>
      <dc:title>Matplotlib v3.10.8, https://matplotlib.org/</dc:title>
     </cc:Agent>
    </dc:creator>
   </cc:Work>
  </rdf:RDF>
 </metadata>
 <defs>
  <style type="text/css">*{stroke-linejoin: round; stroke-linecap: butt}</style>
 </defs>
 <g id="figure_1">
  <g id="patch_1">
   <path d="M 0 60 
L 144 60 
L 144 0 
L 0 0 
L 0 60 
z
" style="fill: none; opacity: 0"/>
  </g>
  <g id="axes_1">
   <g id="patch_2">
    <path d="M 5.76 52.8 
L 138.24 52.8 
L 138.24 3.6 
L 5.76 3.6 
L 5.76 52.8 
z
" style="fill: none"/>
   </g>
   <g id="matplotlib.axis_1"/>
   <g id="matplotlib.axis_2"/>
   <g id="line2d_1">
    <path d="M 5.76 42.96 
L 138.24 42.96 
" clip-path="url(#pea0394b866)" style="fill: none; stroke: #b2b2b2; stroke-opacity: 0.35; stroke-width: 0.5; stroke-linecap: square"/>
   </g>
   <g id="line2d_2">
    <path d="M 5.76 33.12 
L 138.24 33.12 
" clip-path="url(#pea0394b866)" style="fill: none; stroke: #b2b2b2; stroke-opacity: 0.35; stroke-width: 0.5; stroke-linecap: square"/>
   </g>
   <g id="line2d_3">
    <path d="M 5.76 23.28 
L 138.24 23.28 
" clip-path="url(#pea0394b866)" style="fill: none; stroke: #b2b2b2; stroke-opacity: 0.35; stroke-width: 0.5; stroke-linecap: square"/>
   </g>
   <g id="line2d_4">
    <path d="M 5.76 13.44 
L 138.24 13.44 
" clip-path="url(#pea0394b866)" style="fill: none; stroke: #b2b2b2; stroke-opacity: 0.35; stroke-width: 0.5; stroke-linecap: square"/>
   </g>
   <g id="line2d_5">
    <path d="M 6.464681 39.32412 
L 9.610376 39.335771 
L 11.008463 39.52092 
L 55.397719 39.587438 
L 56.446284 39.64392 
L 59.59198 39.729528 
L 60.990066 39.76692 
L 64.135762 39.658286 
L 71.475717 39.567837 
L 75.669978 39.639 
L 85.456586 39.749129 
L 88.252759 39.817616 
L 89.650846 40.75584 
L 91.048933 40.748125 
L 92.44702 40.27368 
L 96.990802 40.179255 
L 99.087932 40.06212 
L 110.97167 39.980369 
L 112.369757 39.63408 
L 132.292494 39.728938 
L 133.69058 39.9096 
L 135.088667 39.97974 
L 136.486754 40.17528 
L 137.535319 40.17528 
L 137.535319 40.17528 
" clip-path="url(#pea0394b866)" style="fill: none; stroke: #bebebe; stroke-width: 0.6; stroke-linecap: round"/>
   </g>
   <g id="line2d_6">
    <path d="M 6.464681 34.13352 
L 8.212289 34.210272 
L 9.610376 34.45332 
L 50.853937 34.352795 
L 52.951067 34.31064 
L 55.048197 34.55664 
L 64.834805 34.453399 
L 66.931935 34.375545 
L 72.174761 34.33032 
L 80.912803 34.43856 
L 86.854672 34.607414 
L 88.252759 35.47176 
L 90.000368 35.362024 
L 91.398454 35.06832 
L 92.796541 34.96378 
L 94.194628 34.65996 
L 101.534584 34.596551 
L 102.932671 34.46808 
L 104.680279 34.559474 
L 106.078366 34.60092 
L 109.573583 34.510589 
L 110.97167 33.9072 
L 122.505886 34.013866 
L 128.447755 34.049329 
L 129.845842 33.981 
L 133.69058 34.089358 
L 134.739146 34.41888 
L 137.535319 34.40904 
L 137.535319 34.40904 
" clip-path="url(#pea0394b866)" style="fill: none; stroke: #4a8dff; stroke-width: 0.7; stroke-linecap: round"/>
   </g>
   <g id="line2d_7">
    <path d="M 6.464681 38.78292 
L 8.212289 38.870299 
L 9.610376 39.147 
L 20.096027 39.064265 
L 21.494114 39.01908 
L 22.892201 38.909344 
L 24.290288 38.8518 
L 26.73694 38.947091 
L 28.484548 39.02892 
L 50.504415 38.948075 
L 52.252024 38.82228 
L 53.300589 38.889625 
L 54.698676 39.11256 
L 58.193893 39.216274 
L 59.941501 39.2454 
L 62.038631 39.010932 
L 64.135762 39.05844 
L 70.427152 38.905881 
L 75.669978 39.03691 
L 81.262325 39.2417 
L 83.009934 39.51108 
L 85.107064 39.400872 
L 86.505151 39.37332 
L 86.854672 39.412286 
L 88.252759 40.34748 
L 89.650846 40.336617 
L 91.048933 39.89484 
L 92.796541 39.828085 
L 94.194628 39.63408 
L 99.087932 39.714178 
L 100.136497 39.78168 
L 101.185062 39.682414 
L 102.583149 39.30444 
L 103.981236 39.356395 
L 105.379323 39.57504 
L 107.126931 39.656397 
L 108.525018 39.76692 
L 109.224061 39.76692 
L 109.923105 39.463809 
L 110.97167 39.024 
L 120.059234 39.13224 
L 122.505886 39.160107 
L 128.447755 39.075837 
L 129.49632 38.9502 
L 131.243929 39.060959 
L 132.642015 39.15684 
L 133.341059 39.168412 
L 134.739146 39.639 
L 137.535319 39.62424 
L 137.535319 39.62424 
" clip-path="url(#pea0394b866)" style="fill: none; stroke: #f5841e; stroke-width: 0.8; stroke-linecap: round"/>
   </g>
  </g>
 </g>
 <defs>
  <clipPath id="pea0394b866">
   <rect x="5.76" y="3.6" width="132.48" height="49.2"/>
  </clipPath>
 </defs>
</svg>
