<?xml version="1.0" encoding="utf-8" standalone="no"?>
<!DOCTYPE svg PUBLIC "-//W3C//DTD SVG 1.1//EN"
  "http://www.w3.org/Graphics/SVG/1.1/DTD/svg11.dtd">
<svg xmlns:xlink="http://www.w3.org/1999/xlink" width="144pt" height="60pt" viewBox="0 0 144 60" xmlns="http://www.w3.org/2000/svg" version="1.1">
  <desc id="nav-meta">{"window":"1m","count":4,"labels":["21.04","01.05","10.05","20.05"],"tick_utc":["2026-04-21T03:56:07Z","2026-05-01T04:39:16Z","2026-05-10T04:35:36Z","2026-05-20T04:51:15Z"]}</desc>

 <metadata>
  <rdf:RDF xmlns:dc="http://purl.org/dc/elements/1.1/" xmlns:cc="http://creativecommons.org/ns#" xmlns:rdf="http://www.w3.org/1999/02/22-rdf-syntax-ns#">
   <cc:Work>
    <dc:type rdf:resource="http://purl.org/dc/dcmitype/StillImage"/>
    <dc:date>2026-05-20T20:52:48.292000</dc:date>
    <dc:format>image/svg+xml</dc:format>
    <dc:creator>
     <cc:Agent>
      <dc:title>Matplotlib v3.10.9, https://matplotlib.org/</dc:title>
     </cc:Agent>
    </dc:creator>
   </cc:Work>
  </rdf:RDF>
 </metadata>
 <defs>
  <style type="text/css">*{stroke-linejoin: round; stroke-linecap: butt}</style>
 </defs>
 <g id="figure_1">
  <g id="patch_1">
   <path d="M 0 60 
L 144 60 
L 144 0 
L 0 0 
L 0 60 
z
" style="fill: none; opacity: 0"/>
  </g>
  <g id="axes_1">
   <g id="patch_2">
    <path d="M 5.76 52.8 
L 138.24 52.8 
L 138.24 3.6 
L 5.76 3.6 
L 5.76 52.8 
z
" style="fill: none"/>
   </g>
   <g id="matplotlib.axis_1"/>
   <g id="matplotlib.axis_2"/>
   <g id="line2d_1">
    <path d="M 5.76 42.96 
L 138.24 42.96 
" clip-path="url(#pc0034416e1)" style="fill: none; stroke: #b2b2b2; stroke-opacity: 0.35; stroke-width: 0.5; stroke-linecap: square"/>
   </g>
   <g id="line2d_2">
    <path d="M 5.76 33.12 
L 138.24 33.12 
" clip-path="url(#pc0034416e1)" style="fill: none; stroke: #b2b2b2; stroke-opacity: 0.35; stroke-width: 0.5; stroke-linecap: square"/>
   </g>
   <g id="line2d_3">
    <path d="M 5.76 23.28 
L 138.24 23.28 
" clip-path="url(#pc0034416e1)" style="fill: none; stroke: #b2b2b2; stroke-opacity: 0.35; stroke-width: 0.5; stroke-linecap: square"/>
   </g>
   <g id="line2d_4">
    <path d="M 5.76 13.44 
L 138.24 13.44 
" clip-path="url(#pc0034416e1)" style="fill: none; stroke: #b2b2b2; stroke-opacity: 0.35; stroke-width: 0.5; stroke-linecap: square"/>
   </g>
   <g id="line2d_5">
    <path d="M 5.76 49.46424 
L 10.308101 49.31664 
L 14.888835 49.4298 
L 19.46318 49.42488 
L 23.970992 49.37568 
L 28.604213 49.4052 
L 33.215625 49.29204 
L 37.787436 49.5528 
L 42.337226 49.50852 
L 46.907136 49.64136 
L 51.519235 49.56756 
L 55.965055 49.56264 
L 60.619926 49.57248 
L 65.180594 49.42488 
L 69.642361 49.49376 
L 74.284981 49.32156 
L 78.848448 49.25268 
L 83.334769 49.24284 
L 87.913707 48.80004 
L 92.567891 48.85416 
L 97.166156 48.72132 
L 101.665044 48.63276 
L 106.248999 48.66228 
L 110.806183 49.09524 
L 115.39093 48.99192 
L 119.894939 49.19364 
L 124.525309 49.34616 
L 129.131864 49.47408 
L 133.661431 49.47408 
L 138.24 49.54788 
" clip-path="url(#pc0034416e1)" style="fill: none; stroke: #bebebe; stroke-width: 0.6; stroke-linecap: round"/>
   </g>
   <g id="line2d_6">
    <path d="M 5.76 41.96616 
L 10.308101 41.59224 
L 14.888835 41.76936 
L 19.46318 41.99076 
L 23.970992 41.91696 
L 28.604213 41.98584 
L 33.215625 41.41512 
L 37.787436 42.15312 
L 42.337226 41.96124 
L 46.907136 42.43848 
L 51.519235 42.20232 
L 55.965055 42.02028 
L 60.619926 42.0252 
L 65.180594 41.40528 
L 69.642361 41.46432 
L 74.284981 41.52336 
L 78.848448 41.86776 
L 83.334769 42.1974 
L 87.913707 41.8776 
L 92.567891 41.84316 
L 97.166156 41.8038 
L 101.665044 41.976 
L 106.248999 42.00552 
L 110.806183 42.3942 
L 115.39093 42.27612 
L 119.894939 42.57624 
L 124.525309 42.85176 
L 129.131864 43.31424 
L 133.661431 43.2306 
L 138.24 43.39296 
" clip-path="url(#pc0034416e1)" style="fill: none; stroke: #4a8dff; stroke-width: 0.6; stroke-linecap: round"/>
   </g>
   <g id="line2d_7">
    <path d="M 5.76 48.01776 
L 10.308101 47.23548 
L 14.888835 47.17644 
L 19.46318 47.15676 
L 23.970992 47.1666 
L 28.604213 47.31912 
L 33.215625 46.49256 
L 37.787436 47.64876 
L 42.337226 47.5356 
L 46.907136 48.0276 
L 51.519235 47.50608 
L 55.965055 46.81728 
L 60.619926 46.92552 
L 65.180594 45.85788 
L 69.642361 45.60204 
L 74.284981 45.29208 
L 78.848448 45.58728 
L 83.334769 46.2564 
L 87.913707 45.7152 
L 92.567891 45.63648 
L 97.166156 45.6414 
L 101.665044 45.45936 
L 106.248999 45.42492 
L 110.806183 46.38432 
L 115.39093 45.57744 
L 119.894939 46.51716 
L 124.525309 46.95996 
L 129.131864 47.54544 
L 133.661431 47.59464 
L 138.24 47.66844 
" clip-path="url(#pc0034416e1)" style="fill: none; stroke: #f5841e; stroke-width: 0.7; stroke-linecap: round"/>
   </g>
  </g>
 </g>
 <defs>
  <clipPath id="pc0034416e1">
   <rect x="5.76" y="3.6" width="132.48" height="49.2"/>
  </clipPath>
 </defs>
</svg>
