<?xml version="1.0" encoding="utf-8" standalone="no"?>
<!DOCTYPE svg PUBLIC "-//W3C//DTD SVG 1.1//EN"
  "http://www.w3.org/Graphics/SVG/1.1/DTD/svg11.dtd">
<svg xmlns:xlink="http://www.w3.org/1999/xlink" width="144pt" height="60pt" viewBox="0 0 144 60" xmlns="http://www.w3.org/2000/svg" version="1.1">
  <desc id="nav-meta">{"window":"6m","count":4,"labels":["23.08","22.10","20.12","18.02"],"tick_utc":["2025-08-23T12:00:00Z","2025-10-22T12:00:00Z","2025-12-20T12:00:00Z","2026-02-18T03:30:34Z"]}</desc>

 <metadata>
  <rdf:RDF xmlns:dc="http://purl.org/dc/elements/1.1/" xmlns:cc="http://creativecommons.org/ns#" xmlns:rdf="http://www.w3.org/1999/02/22-rdf-syntax-ns#">
   <cc:Work>
    <dc:type rdf:resource="http://purl.org/dc/dcmitype/StillImage"/>
    <dc:date>2026-02-18T13:53:41.553157</dc:date>
    <dc:format>image/svg+xml</dc:format>
    <dc:creator>
     <cc:Agent>
      <dc:title>Matplotlib v3.10.8, https://matplotlib.org/</dc:title>
     </cc:Agent>
    </dc:creator>
   </cc:Work>
  </rdf:RDF>
 </metadata>
 <defs>
  <style type="text/css">*{stroke-linejoin: round; stroke-linecap: butt}</style>
 </defs>
 <g id="figure_1">
  <g id="patch_1">
   <path d="M 0 60 
L 144 60 
L 144 0 
L 0 0 
L 0 60 
z
" style="fill: none; opacity: 0"/>
  </g>
  <g id="axes_1">
   <g id="patch_2">
    <path d="M 5.76 52.8 
L 138.24 52.8 
L 138.24 3.6 
L 5.76 3.6 
L 5.76 52.8 
z
" style="fill: none"/>
   </g>
   <g id="matplotlib.axis_1"/>
   <g id="matplotlib.axis_2"/>
   <g id="line2d_1">
    <path d="M 5.76 42.96 
L 138.24 42.96 
" clip-path="url(#p5015bffe25)" style="fill: none; stroke: #b2b2b2; stroke-opacity: 0.35; stroke-width: 0.5; stroke-linecap: square"/>
   </g>
   <g id="line2d_2">
    <path d="M 5.76 33.12 
L 138.24 33.12 
" clip-path="url(#p5015bffe25)" style="fill: none; stroke: #b2b2b2; stroke-opacity: 0.35; stroke-width: 0.5; stroke-linecap: square"/>
   </g>
   <g id="line2d_3">
    <path d="M 5.76 23.28 
L 138.24 23.28 
" clip-path="url(#p5015bffe25)" style="fill: none; stroke: #b2b2b2; stroke-opacity: 0.35; stroke-width: 0.5; stroke-linecap: square"/>
   </g>
   <g id="line2d_4">
    <path d="M 5.76 13.44 
L 138.24 13.44 
" clip-path="url(#p5015bffe25)" style="fill: none; stroke: #b2b2b2; stroke-opacity: 0.35; stroke-width: 0.5; stroke-linecap: square"/>
   </g>
   <g id="line2d_5">
    <path d="M 5.76 35.53572 
L 6.501577 35.04372 
L 7.243155 34.80264 
L 7.984732 37.23804 
L 10.209464 33.67104 
L 10.951042 34.90596 
L 12.434196 35.45208 
L 13.175774 35.9736 
L 13.917351 34.36476 
L 14.658929 34.1778 
L 15.400506 35.22084 
L 16.142083 35.11752 
L 16.883661 35.54556 
L 18.366815 33.735 
L 19.108393 33.30204 
L 19.84997 32.44104 
L 20.591548 31.83096 
L 21.333125 30.06468 
L 22.074702 30.01056 
L 22.81628 30.291 
L 23.557857 31.16184 
L 24.299434 30.74856 
L 25.041012 29.71536 
L 25.782589 29.37588 
L 26.524167 30.57636 
L 27.265744 30.42876 
L 28.007321 30.79284 
L 28.748899 32.91828 
L 29.490476 33.72024 
L 30.232053 34.05972 
L 30.973631 36.5886 
L 31.715208 34.90104 
L 32.456786 35.10276 
L 33.198363 34.16796 
L 33.93994 33.8826 
L 34.681518 34.43364 
L 36.164672 31.05852 
L 36.90625 31.26024 
L 37.647827 31.92936 
L 38.389405 31.85064 
L 39.130982 31.3242 
L 39.872559 32.84448 
L 40.614137 31.78176 
L 41.355714 32.85924 
L 42.097291 36.8838 
L 42.838869 38.39424 
L 43.580446 35.95392 
L 44.322024 34.53696 
L 45.063601 35.20608 
L 46.546756 37.57752 
L 47.288333 37.90716 
L 48.02991 37.18884 
L 48.771488 37.18392 
L 49.513065 36.89364 
L 50.254643 37.42008 
L 50.99622 38.17284 
L 51.737797 36.687 
L 52.479375 36.42132 
L 53.220952 36.34752 
L 53.962529 35.56032 
L 54.704107 35.72268 
L 55.445684 36.29832 
L 56.187262 36.32292 
L 56.928839 37.61688 
L 57.670416 37.2282 
L 58.411994 37.34628 
L 59.153571 37.23804 
L 59.895148 40.008 
L 60.636726 41.36592 
L 61.378303 40.43604 
L 62.119881 41.44956 
L 62.861458 40.53444 
L 63.603035 41.02152 
L 64.344613 40.22448 
L 65.08619 39.79644 
L 65.827767 41.51844 
L 66.569345 41.66604 
L 67.310922 42.714 
L 68.0525 43.51596 
L 68.794077 43.43724 
L 69.535654 43.71276 
L 70.277232 44.59836 
L 71.018809 43.30932 
L 71.760386 43.85052 
L 72.501964 44.21952 
L 73.243541 44.88372 
L 73.985119 44.99688 
L 74.726696 44.57868 
L 75.468273 43.5996 
L 76.209851 43.51596 
L 76.951428 43.00428 
L 77.693005 43.2798 
L 78.434583 43.71768 
L 79.917738 44.0916 
L 80.659315 45.11004 
L 81.400892 43.55532 
L 82.14247 42.72876 
L 83.625624 44.27364 
L 85.108779 44.47536 
L 85.850357 44.25888 
L 86.591934 43.64388 
L 87.333511 43.84068 
L 88.075089 43.85052 
L 88.816666 44.36712 
L 89.558243 44.26872 
L 90.299821 44.74104 
L 91.041398 44.98704 
L 91.782976 44.84436 
L 92.524553 45.58728 
L 93.26613 46.0596 
L 94.007708 45.18384 
L 96.974017 45.47904 
L 97.715595 45.65616 
L 98.457172 45.98088 
L 99.940327 45.38556 
L 100.681904 45.31668 
L 101.423481 45.58728 
L 102.165059 45.35604 
L 102.906636 45.40032 
L 103.648214 45.11496 
L 104.389791 44.42124 
L 105.872946 44.18508 
L 106.614523 43.62912 
L 107.3561 43.24044 
L 108.097678 43.8702 
L 108.839255 43.60944 
L 109.580833 43.92924 
L 110.32241 43.93416 
L 111.063987 43.46184 
L 111.805565 43.5012 
L 112.547142 42.72384 
L 113.288719 42.51228 
L 114.030297 43.08792 
L 114.771874 42.75828 
L 115.513452 42.90096 
L 116.996606 44.2392 
L 117.738184 45.23304 
L 118.479761 44.77548 
L 119.962916 45.04608 
L 120.704493 45.07068 
L 121.446071 46.1334 
L 122.187648 45.4446 
L 122.929225 45.06084 
L 123.670803 45.33144 
L 124.41238 46.30068 
L 125.153957 46.34496 
L 125.895535 47.89476 
L 126.637112 48.26376 
L 127.37869 47.96364 
L 128.59407 49.06572 
L 129.335269 50.04972 
L 130.073671 49.24776 
L 133.053507 49.59708 
L 133.792415 49.80372 
L 134.53377 49.86768 
L 135.266429 49.479 
L 135.968876 49.24776 
L 136.758021 49.48392 
L 137.406446 49.37568 
L 138.24 49.479 
L 138.24 49.479 
" clip-path="url(#p5015bffe25)" style="fill: none; stroke: #bebebe; stroke-width: 0.6; stroke-linecap: round"/>
   </g>
   <g id="line2d_6">
    <path d="M 5.76 24.16068 
L 6.501577 24.55428 
L 7.243155 24.51984 
L 7.984732 27.32916 
L 8.72631 25.7646 
L 9.467887 26.48784 
L 10.209464 26.43372 
L 10.951042 27.44724 
L 12.434196 27.27504 
L 13.175774 27.8802 
L 13.917351 27.72276 
L 14.658929 26.84208 
L 15.400506 27.91956 
L 16.142083 27.8556 
L 16.883661 28.09668 
L 17.625238 27.87528 
L 19.108393 27.83592 
L 19.84997 27.57024 
L 20.591548 26.77812 
L 21.333125 25.01184 
L 22.81628 25.71048 
L 23.557857 26.31564 
L 24.299434 26.45832 
L 25.041012 25.8384 
L 25.782589 25.84824 
L 26.524167 26.6994 
L 27.265744 26.62068 
L 28.007321 26.8224 
L 28.748899 28.61328 
L 30.232053 28.97244 
L 30.973631 30.99456 
L 31.715208 29.76456 
L 32.456786 29.8974 
L 33.198363 29.02164 
L 33.93994 28.50012 
L 34.681518 29.00688 
L 35.423095 27.59484 
L 36.164672 26.601 
L 36.90625 26.3796 
L 37.647827 26.5764 
L 38.389405 26.3796 
L 39.130982 25.1496 
L 39.872559 26.81256 
L 40.614137 26.29596 
L 41.355714 27.41772 
L 42.097291 31.19136 
L 42.838869 31.80144 
L 43.580446 28.89864 
L 44.322024 28.28364 
L 45.063601 29.11512 
L 45.805178 30.1434 
L 46.546756 30.80268 
L 47.288333 31.22088 
L 48.02991 30.8076 
L 48.771488 30.13356 
L 49.513065 30.17784 
L 50.254643 30.89124 
L 50.99622 31.42752 
L 51.737797 31.04376 
L 52.479375 30.49764 
L 53.220952 30.3648 
L 53.962529 28.88388 
L 54.704107 29.15448 
L 55.445684 30.15324 
L 56.928839 31.4226 
L 57.670416 31.10772 
L 59.153571 30.66 
L 60.636726 34.99944 
L 61.378303 34.07448 
L 62.119881 34.9158 
L 62.861458 34.02528 
L 63.603035 34.26144 
L 64.344613 33.0216 
L 65.08619 33.10524 
L 65.827767 34.1532 
L 66.569345 34.2024 
L 67.310922 35.4324 
L 68.0525 36.34752 
L 68.794077 35.89488 
L 70.277232 36.94776 
L 71.018809 36.2688 
L 71.760386 36.97236 
L 72.501964 38.286 
L 73.243541 38.76324 
L 73.985119 38.73864 
L 74.726696 38.51724 
L 75.468273 37.42992 
L 76.209851 37.42008 
L 76.951428 36.90348 
L 77.693005 36.98712 
L 78.434583 36.86412 
L 79.17616 37.16424 
L 79.917738 37.14948 
L 80.659315 38.52216 
L 82.14247 35.71776 
L 82.884047 36.15564 
L 83.625624 36.93792 
L 85.108779 36.72636 
L 85.850357 36.21468 
L 86.591934 34.8174 
L 87.333511 34.7928 
L 88.075089 35.42748 
L 88.816666 36.49512 
L 89.558243 36.28356 
L 90.299821 36.6378 
L 91.041398 37.3512 
L 91.782976 37.3512 
L 92.524553 38.31552 
L 93.26613 38.32536 
L 94.007708 37.26264 
L 94.749285 37.26264 
L 95.490862 37.09044 
L 96.23244 37.06092 
L 96.974017 37.34628 
L 97.715595 37.48404 
L 98.457172 37.77924 
L 99.940327 37.45944 
L 101.423481 37.56276 
L 102.165059 37.31184 
L 102.906636 37.33644 
L 103.648214 37.09536 
L 104.389791 36.23928 
L 105.872946 36.11628 
L 106.614523 35.48652 
L 107.3561 35.0142 
L 108.097678 35.93424 
L 108.839255 36.36228 
L 109.580833 36.50988 
L 110.32241 36.5148 
L 111.063987 36.25404 
L 111.805565 36.46068 
L 112.547142 34.83708 
L 113.288719 34.57632 
L 114.771874 35.00436 
L 115.513452 34.93056 
L 116.255029 35.088 
L 116.996606 35.78664 
L 117.738184 37.55292 
L 118.479761 37.26756 
L 119.221338 37.46436 
L 120.704493 37.45944 
L 121.446071 38.41392 
L 122.929225 36.95268 
L 123.670803 37.05108 
L 124.41238 38.37948 
L 125.153957 39.20604 
L 125.895535 41.03136 
L 126.637112 42.26628 
L 127.37869 41.73492 
L 128.004747 42.23676 
L 129.335269 44.89356 
L 130.073671 43.6242 
L 131.567658 43.53072 
L 132.313466 43.72752 
L 133.792415 44.436 
L 134.53377 44.49012 
L 135.266429 43.81608 
L 135.968876 43.7226 
L 136.758021 44.5344 
L 137.406446 44.19 
L 138.24 44.21952 
L 138.24 44.21952 
" clip-path="url(#p5015bffe25)" style="fill: none; stroke: #4a8dff; stroke-width: 0.6; stroke-linecap: round"/>
   </g>
   <g id="line2d_7">
    <path d="M 5.76 27.84576 
L 6.501577 28.57392 
L 7.243155 29.54316 
L 7.984732 31.13232 
L 8.72631 30.31068 
L 9.467887 30.62064 
L 10.209464 29.97612 
L 10.951042 31.97364 
L 11.692619 31.82112 
L 12.434196 32.0868 
L 13.175774 31.63416 
L 13.917351 30.6354 
L 14.658929 30.37464 
L 15.400506 30.86172 
L 16.142083 30.89616 
L 16.883661 31.11756 
L 18.366815 30.22212 
L 19.108393 30.45828 
L 19.84997 29.2578 
L 20.591548 28.50504 
L 21.333125 28.18032 
L 22.074702 28.2738 
L 22.81628 28.569 
L 23.557857 28.55424 
L 24.299434 27.8802 
L 25.041012 28.03272 
L 25.782589 27.69324 
L 26.524167 28.42632 
L 27.265744 28.3968 
L 28.007321 28.60344 
L 28.748899 29.88756 
L 29.490476 30.22212 
L 30.232053 29.58252 
L 30.973631 31.73256 
L 31.715208 31.36356 
L 32.456786 31.39308 
L 33.93994 29.09544 
L 34.681518 29.2332 
L 35.423095 27.02412 
L 36.164672 25.98108 
L 36.90625 25.16928 
L 37.647827 25.10532 
L 39.130982 23.92452 
L 39.872559 25.53336 
L 40.614137 24.62808 
L 41.355714 25.4448 
L 42.097291 29.64156 
L 42.838869 30.80268 
L 43.580446 28.65756 
L 44.322024 28.6428 
L 45.063601 29.66124 
L 46.546756 32.17044 
L 47.288333 32.97732 
L 48.02991 32.628 
L 48.771488 31.90476 
L 49.513065 30.92076 
L 50.254643 31.96872 
L 50.99622 32.39676 
L 51.737797 31.19628 
L 52.479375 30.72888 
L 53.220952 30.42384 
L 53.962529 29.0118 
L 54.704107 29.15448 
L 55.445684 29.76456 
L 56.187262 31.2012 
L 56.928839 32.09172 
L 57.670416 31.43244 
L 59.153571 30.90108 
L 59.895148 32.93796 
L 60.636726 35.35368 
L 61.378303 34.24668 
L 62.119881 35.5062 
L 62.861458 34.48284 
L 63.603035 35.02896 
L 64.344613 33.8334 
L 65.08619 33.243 
L 65.827767 34.69932 
L 66.569345 35.4078 
L 67.310922 36.2934 
L 68.0525 38.901 
L 68.794077 38.37948 
L 69.535654 38.92068 
L 70.277232 40.09164 
L 71.018809 39.70788 
L 71.760386 40.4262 
L 72.501964 42.75336 
L 73.243541 43.54548 
L 73.985119 43.72752 
L 74.726696 42.6894 
L 75.468273 41.976 
L 76.209851 42.42864 
L 76.951428 40.86408 
L 77.693005 40.47048 
L 79.917738 40.89852 
L 80.659315 42.9354 
L 81.400892 40.43604 
L 82.14247 39.31428 
L 82.884047 40.04244 
L 83.625624 41.43972 
L 84.367202 41.47416 
L 85.108779 41.02152 
L 85.850357 40.7952 
L 86.591934 39.75708 
L 87.333511 40.11132 
L 88.075089 39.87024 
L 88.816666 40.94772 
L 89.558243 40.97232 
L 91.041398 42.87144 
L 91.782976 42.17772 
L 92.524553 43.04364 
L 93.26613 43.34868 
L 94.007708 42.03504 
L 95.490862 41.8038 
L 96.23244 41.84316 
L 96.974017 42.37944 
L 97.715595 42.26628 
L 98.457172 42.468 
L 99.198749 42.42864 
L 99.940327 42.18264 
L 100.681904 42.1728 
L 101.423481 42.50244 
L 102.165059 41.88252 
L 102.906636 42.32532 
L 104.389791 41.13468 
L 105.872946 40.42128 
L 106.614523 39.16176 
L 107.3561 39.28968 
L 108.097678 40.48032 
L 110.32241 40.88376 
L 111.805565 40.53936 
L 112.547142 38.50248 
L 113.288719 37.63656 
L 114.030297 38.34012 
L 114.771874 38.37456 
L 115.513452 38.5812 
L 116.996606 39.8358 
L 117.738184 41.93172 
L 118.479761 41.42004 
L 119.962916 41.39052 
L 120.704493 41.5086 
L 121.446071 42.80256 
L 122.187648 41.93664 
L 122.929225 41.49384 
L 123.670803 41.51352 
L 124.41238 43.78164 
L 125.153957 43.9932 
L 125.895535 46.66968 
L 126.637112 47.55036 
L 127.37869 46.64508 
L 128.59407 48.89352 
L 129.335269 49.84308 
L 130.073671 49.00176 
L 130.8322 49.233 
L 131.567658 48.97716 
L 133.053507 49.36092 
L 134.53377 49.58724 
L 135.266429 49.28712 
L 135.968876 49.16904 
L 136.758021 49.39044 
L 137.406446 49.29696 
L 138.24 49.479 
L 138.24 49.479 
" clip-path="url(#p5015bffe25)" style="fill: none; stroke: #f5841e; stroke-width: 0.7; stroke-linecap: round"/>
   </g>
  </g>
 </g>
 <defs>
  <clipPath id="p5015bffe25">
   <rect x="5.76" y="3.6" width="132.48" height="49.2"/>
  </clipPath>
 </defs>
</svg>
