<?xml version="1.0" encoding="utf-8" standalone="no"?>
<!DOCTYPE svg PUBLIC "-//W3C//DTD SVG 1.1//EN"
  "http://www.w3.org/Graphics/SVG/1.1/DTD/svg11.dtd">
<svg xmlns:xlink="http://www.w3.org/1999/xlink" width="144pt" height="60pt" viewBox="0 0 144 60" xmlns="http://www.w3.org/2000/svg" version="1.1">
 <metadata>
  <rdf:RDF xmlns:dc="http://purl.org/dc/elements/1.1/" xmlns:cc="http://creativecommons.org/ns#" xmlns:rdf="http://www.w3.org/1999/02/22-rdf-syntax-ns#">
   <cc:Work>
    <dc:type rdf:resource="http://purl.org/dc/dcmitype/StillImage"/>
    <dc:date>2026-01-22T20:57:27.263347</dc:date>
    <dc:format>image/svg+xml</dc:format>
    <dc:creator>
     <cc:Agent>
      <dc:title>Matplotlib v3.10.8, https://matplotlib.org/</dc:title>
     </cc:Agent>
    </dc:creator>
   </cc:Work>
  </rdf:RDF>
 </metadata>
 <defs>
  <style type="text/css">*{stroke-linejoin: round; stroke-linecap: butt}</style>
 </defs>
 <g id="figure_1">
  <g id="patch_1">
   <path d="M 0 60 
L 144 60 
L 144 0 
L 0 0 
L 0 60 
z
" style="fill: none; opacity: 0"/>
  </g>
  <g id="axes_1">
   <g id="patch_2">
    <path d="M 4.32 52.8 
L 139.68 52.8 
L 139.68 3.6 
L 4.32 3.6 
L 4.32 52.8 
z
" style="fill: none"/>
   </g>
   <g id="matplotlib.axis_1"/>
   <g id="matplotlib.axis_2"/>
   <g id="line2d_1">
    <path d="M 4.32 42.96 
L 139.68 42.96 
" clip-path="url(#pb5fc8ee47e)" style="fill: none; stroke: #b2b2b2; stroke-opacity: 0.35; stroke-width: 0.5; stroke-linecap: square"/>
   </g>
   <g id="line2d_2">
    <path d="M 4.32 33.12 
L 139.68 33.12 
" clip-path="url(#pb5fc8ee47e)" style="fill: none; stroke: #b2b2b2; stroke-opacity: 0.35; stroke-width: 0.5; stroke-linecap: square"/>
   </g>
   <g id="line2d_3">
    <path d="M 4.32 23.28 
L 139.68 23.28 
" clip-path="url(#pb5fc8ee47e)" style="fill: none; stroke: #b2b2b2; stroke-opacity: 0.35; stroke-width: 0.5; stroke-linecap: square"/>
   </g>
   <g id="line2d_4">
    <path d="M 4.32 13.44 
L 139.68 13.44 
" clip-path="url(#pb5fc8ee47e)" style="fill: none; stroke: #b2b2b2; stroke-opacity: 0.35; stroke-width: 0.5; stroke-linecap: square"/>
   </g>
   <g id="line2d_5">
    <path d="M 4.32 38.29584 
L 8.824098 38.21712 
L 9.298214 38.124105 
L 10.246445 37.79892 
L 11.194676 37.878157 
L 12.142907 38.17284 
L 14.987601 38.236214 
L 15.935832 38.46312 
L 17.358179 38.363083 
L 18.30641 38.31552 
L 18.780525 38.360653 
L 19.965814 38.5812 
L 20.914046 38.476803 
L 21.862277 38.32536 
L 22.57345 38.381755 
L 23.521681 38.7042 
L 25.181086 38.60412 
L 26.84049 38.440312 
L 27.551664 38.34996 
L 28.499895 38.247312 
L 29.448126 38.06952 
L 30.633415 38.164646 
L 31.581646 38.22696 
L 32.29282 38.301647 
L 33.241051 38.44344 
L 34.42634 38.52378 
L 35.374571 38.5812 
L 45.330998 38.521367 
L 46.516287 38.27616 
L 50.54627 38.190995 
L 51.731559 38.1138 
L 52.205674 38.029514 
L 53.153905 37.75464 
L 54.102137 37.820814 
L 55.050368 38.04984 
L 56.472715 38.154789 
L 57.420946 38.19744 
L 57.895061 38.124476 
L 58.843292 37.83828 
L 60.265639 37.733039 
L 61.21387 37.68576 
L 63.584448 37.575943 
L 65.006795 37.4496 
L 67.377373 37.359498 
L 70.222067 37.1298 
L 71.170298 37.177621 
L 72.118529 37.4988 
L 73.540876 37.404777 
L 74.489107 37.34628 
L 76.859685 37.39598 
L 77.807916 37.85304 
L 80.178494 37.747514 
L 81.126725 37.671 
L 81.837898 37.60162 
L 82.78613 37.45452 
L 91.32021 37.541693 
L 92.505499 37.68576 
L 99.617233 37.74972 
L 100.802522 38.8272 
L 104.358389 38.716599 
L 105.780736 38.778052 
L 106.966025 38.86656 
L 107.44014 38.964116 
L 108.388371 39.41268 
L 109.57366 39.482404 
L 110.758949 39.57996 
L 117.15951 39.522212 
L 118.107741 39.3438 
L 119.29303 39.24428 
L 120.241261 39.18144 
L 121.42655 39.290318 
L 123.085954 39.318097 
L 127.115937 39.477433 
L 127.82711 39.52092 
L 139.68 39.45204 
L 139.68 39.45204 
" clip-path="url(#pb5fc8ee47e)" style="fill: none; stroke: #bebebe; stroke-width: 0.6; stroke-linecap: round"/>
   </g>
   <g id="line2d_6">
    <path d="M 4.32 32.44596 
L 8.349982 32.431269 
L 9.298214 32.13108 
L 10.246445 32.183434 
L 11.431734 32.37216 
L 14.276427 32.441178 
L 14.987601 32.63784 
L 17.595236 32.73624 
L 19.254641 33.10524 
L 22.099335 33.188053 
L 22.810508 33.28236 
L 23.521681 33.326166 
L 24.469912 33.5874 
L 25.655201 33.484089 
L 26.603433 33.3168 
L 30.870473 33.42504 
L 34.900455 33.561775 
L 37.745149 33.448684 
L 48.41275 33.217866 
L 49.123923 32.987634 
L 50.309212 33.25776 
L 57.420946 33.171526 
L 58.606235 33.13968 
L 60.739755 33.002583 
L 61.687986 32.64276 
L 62.399159 32.64276 
L 63.110333 32.0191 
L 63.347391 31.789075 
L 63.821506 31.7178 
L 68.562662 31.65172 
L 69.273835 31.46688 
L 70.222067 31.530573 
L 71.170298 31.9392 
L 72.118529 31.887811 
L 73.06676 31.52592 
L 74.726165 31.627456 
L 75.437338 31.903373 
L 75.911454 32.07509 
L 78.044974 32.034352 
L 78.756147 31.917254 
L 80.178494 32.04744 
L 87.05317 31.942896 
L 89.423748 31.8654 
L 96.061366 31.761709 
L 97.720771 31.68336 
L 98.90606 32.592612 
L 101.276637 32.588011 
L 103.647215 32.56896 
L 104.595447 32.624433 
L 105.543678 32.85432 
L 106.491909 32.959269 
L 107.44014 33.42504 
L 108.388371 33.508637 
L 109.336602 33.9072 
L 110.758949 34.001404 
L 111.70718 34.04988 
L 112.655412 34.139388 
L 113.603643 34.18764 
L 117.870683 34.133641 
L 118.818914 33.84816 
L 120.478319 33.949283 
L 122.848897 34.01544 
L 124.271243 34.114081 
L 125.930648 34.317783 
L 126.641821 34.45332 
L 139.68 34.48284 
L 139.68 34.48284 
" clip-path="url(#pb5fc8ee47e)" style="fill: none; stroke: #4a8dff; stroke-width: 0.7; stroke-linecap: round"/>
   </g>
   <g id="line2d_7">
    <path d="M 4.32 37.0806 
L 7.401751 37.175976 
L 8.349982 37.273755 
L 9.535271 37.14456 
L 10.009387 37.14456 
L 11.194676 37.71528 
L 14.03937 37.728429 
L 14.987601 38.0646 
L 16.409947 37.980589 
L 17.358179 37.9416 
L 17.832294 38.013117 
L 18.780525 38.34996 
L 21.625219 38.422735 
L 22.57345 38.76816 
L 25.418144 38.774174 
L 26.366375 38.36472 
L 29.448126 38.463154 
L 30.396357 38.655 
L 36.322802 38.548104 
L 38.219264 38.543675 
L 41.538074 38.552723 
L 43.671594 38.465265 
L 48.41275 38.366168 
L 49.123923 37.913071 
L 50.072154 38.475898 
L 52.916848 38.4336 
L 54.339194 38.163 
L 57.183888 38.064617 
L 57.895061 37.87764 
L 60.502697 37.80876 
L 61.21387 37.165274 
L 61.450928 36.931578 
L 61.925044 36.86904 
L 62.636217 36.809862 
L 63.584448 36.53448 
L 66.429142 36.555297 
L 67.377373 36.08184 
L 68.325604 36.007463 
L 69.273835 35.57016 
L 70.222067 35.645132 
L 71.170298 36.12612 
L 72.118529 36.082073 
L 73.06676 35.77188 
L 74.014991 35.812205 
L 76.148511 36.565456 
L 78.282032 36.445834 
L 78.756147 36.38788 
L 79.941436 36.60336 
L 86.816112 36.503831 
L 88.238459 36.466634 
L 95.824308 36.62304 
L 97.483713 36.50004 
L 97.720771 36.50004 
L 98.669002 37.577029 
L 103.1731 37.485806 
L 104.358389 37.45944 
L 105.780736 37.87764 
L 106.491909 37.969922 
L 107.44014 38.37948 
L 108.625429 38.483308 
L 109.57366 38.62548 
L 110.284834 38.672759 
L 111.233065 38.91576 
L 112.892469 39.021846 
L 115.974221 39.089838 
L 117.15951 38.84196 
L 118.581856 38.735331 
L 119.767145 38.73036 
L 121.42655 38.82228 
L 125.69359 38.902155 
L 126.641821 39.147 
L 133.753555 39.048996 
L 134.701786 39.01908 
L 135.41296 38.931485 
L 136.361191 38.8518 
L 138.020595 38.930511 
L 139.442942 39.02892 
L 139.68 39.02892 
L 139.68 39.02892 
" clip-path="url(#pb5fc8ee47e)" style="fill: none; stroke: #d8a538; stroke-width: 0.8; stroke-linecap: round"/>
   </g>
  </g>
 </g>
 <defs>
  <clipPath id="pb5fc8ee47e">
   <rect x="4.32" y="3.6" width="135.36" height="49.2"/>
  </clipPath>
 </defs>
</svg>
