<?xml version="1.0" encoding="utf-8" standalone="no"?>
<!DOCTYPE svg PUBLIC "-//W3C//DTD SVG 1.1//EN"
  "http://www.w3.org/Graphics/SVG/1.1/DTD/svg11.dtd">
<svg xmlns:xlink="http://www.w3.org/1999/xlink" width="144pt" height="60pt" viewBox="0 0 144 60" xmlns="http://www.w3.org/2000/svg" version="1.1">
  <desc id="nav-meta">{"window":"1y","count":4,"labels":["24.07","23.11","24.03","24.07"],"tick_utc":["2025-07-24T12:00:00Z","2025-11-23T12:00:00Z","2026-03-24T03:21:58Z","2026-07-24T03:57:40Z"]}</desc>

 <metadata>
  <rdf:RDF xmlns:dc="http://purl.org/dc/elements/1.1/" xmlns:cc="http://creativecommons.org/ns#" xmlns:rdf="http://www.w3.org/1999/02/22-rdf-syntax-ns#">
   <cc:Work>
    <dc:type rdf:resource="http://purl.org/dc/dcmitype/StillImage"/>
    <dc:date>2026-07-24T03:57:42.125172</dc:date>
    <dc:format>image/svg+xml</dc:format>
    <dc:creator>
     <cc:Agent>
      <dc:title>Matplotlib v3.11.1, https://matplotlib.org/</dc:title>
     </cc:Agent>
    </dc:creator>
   </cc:Work>
  </rdf:RDF>
 </metadata>
 <defs>
  <style type="text/css">*{stroke-linejoin: round; stroke-linecap: butt}</style>
 </defs>
 <g id="figure_1">
  <g id="patch_1">
   <path d="M 0 60 
L 144 60 
L 144 0 
L 0 0 
L 0 60 
z
" style="fill: none; opacity: 0"/>
  </g>
  <g id="axes_1">
   <g id="patch_2">
    <path d="M 5.76 52.8 
L 138.24 52.8 
L 138.24 3.6 
L 5.76 3.6 
L 5.76 52.8 
z
" style="fill: none"/>
   </g>
   <g id="matplotlib.axis_1"/>
   <g id="matplotlib.axis_2"/>
   <g id="line2d_1">
    <path d="M 5.76 42.96 
L 138.24 42.96 
" clip-path="url(#p3c13f9dd58)" style="fill: none; stroke: #b2b2b2; stroke-opacity: 0.35; stroke-width: 0.5; stroke-linecap: square"/>
   </g>
   <g id="line2d_2">
    <path d="M 5.76 33.12 
L 138.24 33.12 
" clip-path="url(#p3c13f9dd58)" style="fill: none; stroke: #b2b2b2; stroke-opacity: 0.35; stroke-width: 0.5; stroke-linecap: square"/>
   </g>
   <g id="line2d_3">
    <path d="M 5.76 23.28 
L 138.24 23.28 
" clip-path="url(#p3c13f9dd58)" style="fill: none; stroke: #b2b2b2; stroke-opacity: 0.35; stroke-width: 0.5; stroke-linecap: square"/>
   </g>
   <g id="line2d_4">
    <path d="M 5.76 13.44 
L 138.24 13.44 
" clip-path="url(#p3c13f9dd58)" style="fill: none; stroke: #b2b2b2; stroke-opacity: 0.35; stroke-width: 0.5; stroke-linecap: square"/>
   </g>
   <g id="line2d_5">
    <path d="M 5.76 36.92316 
L 6.123292 37.8432 
L 6.486585 37.37088 
L 6.849877 37.53324 
L 7.213169 37.056 
L 7.576461 37.77924 
L 7.939754 38.02032 
L 8.303046 38.45328 
L 8.666338 39.1962 
L 9.029631 40.41636 
L 9.392923 40.97232 
L 9.756215 40.53444 
L 10.119507 39.55536 
L 10.4828 40.24908 
L 10.846092 39.7128 
L 11.209384 38.778 
L 11.572677 38.59104 
L 12.299261 37.794 
L 12.662554 38.82228 
L 13.025846 36.53448 
L 13.389138 35.334 
L 14.115723 37.44468 
L 14.479015 36.90348 
L 14.842307 36.65748 
L 15.568892 38.64516 
L 15.932184 37.2282 
L 16.295476 38.14332 
L 16.658769 35.53572 
L 17.022061 35.04372 
L 17.385353 34.80264 
L 17.748646 37.23804 
L 18.838522 33.67104 
L 19.201815 34.90596 
L 20.291692 35.9736 
L 20.654984 34.36476 
L 21.018276 34.1778 
L 21.381568 35.22084 
L 21.744861 35.11752 
L 22.108153 35.54556 
L 23.561322 32.44104 
L 23.924615 31.83096 
L 24.287907 30.06468 
L 24.651199 30.01056 
L 25.014491 30.291 
L 25.377784 31.16184 
L 25.741076 30.74856 
L 26.104368 29.71536 
L 26.467661 29.37588 
L 26.830953 30.57636 
L 27.194245 30.42876 
L 27.557537 30.79284 
L 27.92083 32.91828 
L 28.284122 33.72024 
L 28.647414 34.05972 
L 29.010707 36.5886 
L 29.373999 34.90104 
L 29.737291 35.10276 
L 30.100583 34.16796 
L 30.463876 33.8826 
L 30.827168 34.43364 
L 31.553753 31.05852 
L 31.917045 31.26024 
L 32.280337 31.92936 
L 32.64363 31.85064 
L 33.006922 31.3242 
L 33.370214 32.84448 
L 33.733506 31.78176 
L 34.096799 32.85924 
L 34.460091 36.8838 
L 34.823383 38.39424 
L 35.186676 35.95392 
L 35.549968 34.53696 
L 35.91326 35.20608 
L 36.639845 37.57752 
L 37.003137 37.90716 
L 37.366429 37.18884 
L 37.729722 37.18392 
L 38.093014 36.89364 
L 38.456306 37.42008 
L 38.819598 38.17284 
L 39.182891 36.687 
L 39.546183 36.42132 
L 39.909475 36.34752 
L 40.272768 35.56032 
L 40.63606 35.72268 
L 40.999352 36.29832 
L 41.362644 36.32292 
L 41.725937 37.61688 
L 42.089229 37.2282 
L 42.452521 37.34628 
L 42.815814 37.23804 
L 43.179106 40.008 
L 43.542398 41.36592 
L 43.905691 40.43604 
L 44.268983 41.44956 
L 44.632275 40.53444 
L 44.995567 41.02152 
L 45.35886 40.22448 
L 45.722152 39.79644 
L 46.085444 41.51844 
L 46.448737 41.66604 
L 47.175321 43.51596 
L 47.538613 43.43724 
L 47.901906 43.71276 
L 48.265198 44.59836 
L 48.62849 43.30932 
L 49.718367 44.88372 
L 50.081659 44.99688 
L 50.444952 44.57868 
L 50.808244 43.5996 
L 51.171536 43.51596 
L 51.534829 43.00428 
L 51.898121 43.2798 
L 52.261413 43.71768 
L 52.987998 44.0916 
L 53.35129 45.11004 
L 53.714582 43.55532 
L 54.077875 42.72876 
L 54.804459 44.27364 
L 55.531044 44.47536 
L 55.894336 44.25888 
L 56.257628 43.64388 
L 56.620921 43.84068 
L 56.984213 43.85052 
L 57.347505 44.36712 
L 57.710798 44.26872 
L 58.07409 44.74104 
L 58.437382 44.98704 
L 58.800674 44.84436 
L 59.163967 45.58728 
L 59.527259 46.0596 
L 59.890551 45.18384 
L 61.34372 45.47904 
L 61.707013 45.65616 
L 62.070305 45.98088 
L 62.79689 45.38556 
L 63.160182 45.31668 
L 63.523474 45.58728 
L 63.886767 45.35604 
L 64.250059 45.40032 
L 64.613351 45.11496 
L 64.976643 44.42124 
L 65.703228 44.18508 
L 66.429813 43.24044 
L 66.793105 43.8702 
L 67.156397 43.60944 
L 67.519689 43.92924 
L 67.882982 43.93416 
L 68.246274 43.46184 
L 68.609566 43.5012 
L 68.972859 42.72384 
L 69.336151 42.51228 
L 69.699443 43.08792 
L 70.062735 42.75828 
L 70.426028 42.90096 
L 71.152612 44.2392 
L 71.515905 45.23304 
L 71.879197 44.77548 
L 72.605781 45.04608 
L 72.969074 45.07068 
L 73.332366 46.1334 
L 73.695658 45.4446 
L 74.058951 45.06084 
L 74.422243 45.33144 
L 74.785535 46.30068 
L 75.148828 46.34496 
L 75.51212 47.89476 
L 75.875412 48.26376 
L 76.238704 47.96364 
L 77.197216 50.04972 
L 77.558952 49.24776 
L 79.018748 49.59708 
L 79.380733 49.80372 
L 79.743916 49.86768 
L 80.446962 49.24776 
L 80.833557 49.48392 
L 81.151215 49.37568 
L 81.559566 49.479 
L 81.922416 49.7004 
L 83.0121 49.49376 
L 83.376485 49.98576 
L 83.709087 49.96608 
L 84.101762 49.7004 
L 84.463436 49.27236 
L 84.826039 49.37076 
L 85.18505 49.68072 
L 85.556597 49.25268 
L 85.916138 49.51344 
L 87.005607 49.09032 
L 88.460433 49.58724 
L 88.821392 49.36092 
L 89.549263 49.45932 
L 89.911853 49.16904 
L 90.644905 49.27236 
L 91.009223 48.87384 
L 91.732221 48.70164 
L 92.095614 49.03128 
L 92.45537 49.1592 
L 92.816535 49.08048 
L 93.549405 49.36584 
L 94.299684 48.90828 
L 94.640338 49.05096 
L 95.363907 49.64628 
L 96.823888 49.59708 
L 97.182396 49.8726 
L 97.906285 49.80864 
L 99.000211 49.83816 
L 99.364092 49.50852 
L 99.726119 49.68564 
L 100.450491 49.48884 
L 101.185456 49.69056 
L 101.546436 49.40028 
L 101.909451 49.58724 
L 102.996153 49.19856 
L 103.364243 49.43472 
L 103.728435 49.50852 
L 105.540275 49.37568 
L 105.909219 49.4052 
L 106.276426 49.29204 
L 106.640479 49.5528 
L 107.002779 49.50852 
L 107.366681 49.64136 
L 108.087963 49.56264 
L 108.458631 49.57248 
L 108.821797 49.42488 
L 109.177088 49.49376 
L 109.910169 49.25268 
L 110.267414 49.24284 
L 110.632035 48.80004 
L 111.002648 48.85416 
L 111.727055 48.63276 
L 112.092075 48.66228 
L 112.454964 49.09524 
L 112.820047 48.99192 
L 113.547418 49.34616 
L 113.914238 49.47408 
L 114.639519 49.54788 
L 115.00488 49.3314 
L 115.365389 49.34616 
L 115.72369 49.51836 
L 116.460808 49.41504 
L 117.54775 49.7742 
L 118.640074 49.61676 
L 119.368458 49.7988 
L 120.097885 50.45808 
L 120.455194 50.59092 
L 120.812902 50.99928 
L 121.548902 50.74344 
L 121.90526 50.62536 
L 122.27232 50.80248 
L 123.729025 50.56632 
L 124.469759 50.23176 
L 124.82148 50.2416 
L 125.55488 50.55156 
L 126.648424 50.217 
L 127.717785 50.59092 
L 128.08294 50.59092 
L 128.44178 50.33016 
L 128.811997 50.4384 
L 129.177918 50.3892 
L 130.980772 49.6266 
L 131.349384 49.7742 
L 132.074038 49.76436 
L 132.801762 49.98084 
L 133.164235 49.8972 
L 134.604504 50.15796 
L 134.967889 49.98084 
L 136.056937 50.1432 
L 137.876876 49.99068 
L 138.24 50.10384 
L 138.24 50.10384 
" clip-path="url(#p3c13f9dd58)" style="fill: none; stroke: #bebebe; stroke-width: 0.6; stroke-linecap: round"/>
   </g>
   <g id="line2d_6">
    <path d="M 5.76 32.64276 
L 6.123292 32.0868 
L 6.849877 31.85064 
L 7.213169 30.98964 
L 7.576461 31.53576 
L 7.939754 31.521 
L 8.303046 31.38816 
L 8.666338 32.17044 
L 9.029631 33.68088 
L 9.392923 34.28604 
L 9.756215 33.58248 
L 10.119507 32.0376 
L 10.4828 32.76576 
L 10.846092 32.259 
L 11.209384 30.65508 
L 11.572677 29.93676 
L 11.935969 28.14588 
L 12.662554 28.40664 
L 13.025846 25.73508 
L 13.389138 24.62316 
L 13.75243 26.10408 
L 14.115723 26.97984 
L 14.479015 27.00936 
L 14.842307 26.58132 
L 15.2056 27.7818 
L 15.568892 29.49888 
L 15.932184 27.68832 
L 16.295476 28.44108 
L 16.658769 24.16068 
L 17.022061 24.55428 
L 17.385353 24.51984 
L 17.748646 27.32916 
L 18.111938 25.7646 
L 18.47523 26.48784 
L 18.838522 26.43372 
L 19.201815 27.44724 
L 19.928399 27.27504 
L 20.291692 27.8802 
L 20.654984 27.72276 
L 21.018276 26.84208 
L 21.381568 27.91956 
L 21.744861 27.8556 
L 22.108153 28.09668 
L 22.471445 27.87528 
L 23.19803 27.83592 
L 23.561322 27.57024 
L 23.924615 26.77812 
L 24.287907 25.01184 
L 25.014491 25.71048 
L 25.377784 26.31564 
L 25.741076 26.45832 
L 26.104368 25.8384 
L 26.467661 25.84824 
L 26.830953 26.6994 
L 27.194245 26.62068 
L 27.557537 26.8224 
L 27.92083 28.61328 
L 28.647414 28.97244 
L 29.010707 30.99456 
L 29.373999 29.76456 
L 29.737291 29.8974 
L 30.100583 29.02164 
L 30.463876 28.50012 
L 30.827168 29.00688 
L 31.553753 26.601 
L 31.917045 26.3796 
L 32.280337 26.5764 
L 32.64363 26.3796 
L 33.006922 25.1496 
L 33.370214 26.81256 
L 33.733506 26.29596 
L 34.096799 27.41772 
L 34.460091 31.19136 
L 34.823383 31.80144 
L 35.186676 28.89864 
L 35.549968 28.28364 
L 36.639845 30.80268 
L 37.003137 31.22088 
L 37.366429 30.8076 
L 37.729722 30.13356 
L 38.093014 30.17784 
L 38.819598 31.42752 
L 39.182891 31.04376 
L 39.546183 30.49764 
L 39.909475 30.3648 
L 40.272768 28.88388 
L 40.63606 29.15448 
L 40.999352 30.15324 
L 41.725937 31.4226 
L 42.452521 30.9306 
L 42.815814 30.66 
L 43.542398 34.99944 
L 43.905691 34.07448 
L 44.268983 34.9158 
L 44.632275 34.02528 
L 44.995567 34.26144 
L 45.35886 33.0216 
L 45.722152 33.10524 
L 46.085444 34.1532 
L 46.448737 34.2024 
L 47.175321 36.34752 
L 47.538613 35.89488 
L 48.265198 36.94776 
L 48.62849 36.2688 
L 48.991783 36.97236 
L 49.355075 38.286 
L 49.718367 38.76324 
L 50.081659 38.73864 
L 50.444952 38.51724 
L 50.808244 37.42992 
L 51.171536 37.42008 
L 51.534829 36.90348 
L 51.898121 36.98712 
L 52.261413 36.86412 
L 52.624705 37.16424 
L 52.987998 37.14948 
L 53.35129 38.52216 
L 54.077875 35.71776 
L 54.441167 36.15564 
L 54.804459 36.93792 
L 55.531044 36.72636 
L 55.894336 36.21468 
L 56.257628 34.8174 
L 56.620921 34.7928 
L 56.984213 35.42748 
L 57.347505 36.49512 
L 57.710798 36.28356 
L 58.07409 36.6378 
L 58.437382 37.3512 
L 58.800674 37.3512 
L 59.163967 38.31552 
L 59.527259 38.32536 
L 59.890551 37.26264 
L 60.253844 37.26264 
L 60.617136 37.09044 
L 60.980428 37.06092 
L 61.34372 37.34628 
L 61.707013 37.48404 
L 62.070305 37.77924 
L 62.79689 37.45944 
L 63.523474 37.56276 
L 63.886767 37.31184 
L 64.250059 37.33644 
L 64.613351 37.09536 
L 64.976643 36.23928 
L 65.703228 36.11628 
L 66.429813 35.0142 
L 66.793105 35.93424 
L 67.156397 36.36228 
L 67.519689 36.50988 
L 67.882982 36.5148 
L 68.246274 36.25404 
L 68.609566 36.46068 
L 68.972859 34.83708 
L 69.336151 34.57632 
L 70.062735 35.00436 
L 70.426028 34.93056 
L 70.78932 35.088 
L 71.152612 35.78664 
L 71.515905 37.55292 
L 71.879197 37.26756 
L 72.242489 37.46436 
L 72.969074 37.45944 
L 73.332366 38.41392 
L 74.058951 36.95268 
L 74.422243 37.05108 
L 74.785535 38.37948 
L 75.148828 39.20604 
L 75.51212 41.03136 
L 75.875412 42.26628 
L 76.238704 41.73492 
L 76.545405 42.23676 
L 77.197216 44.89356 
L 77.558952 43.6242 
L 78.290843 43.53072 
L 78.656209 43.72752 
L 79.380733 44.436 
L 79.743916 44.49012 
L 80.102839 43.81608 
L 80.446962 43.7226 
L 80.833557 44.5344 
L 81.151215 44.19 
L 81.559566 44.21952 
L 82.283585 44.51472 
L 83.0121 44.3868 
L 83.376485 45.174 
L 83.709087 45.23796 
L 84.101762 44.81484 
L 84.463436 43.821 
L 84.826039 44.01288 
L 85.18505 44.66232 
L 85.556597 43.93908 
L 85.916138 44.39664 
L 86.280276 44.12112 
L 86.641533 44.33268 
L 87.005607 43.3044 
L 87.368727 43.6242 
L 87.729232 44.29824 
L 88.096052 44.53932 
L 88.460433 44.30808 
L 88.821392 43.8702 
L 89.184541 44.00304 
L 89.549263 43.97844 
L 89.911853 43.41756 
L 90.644905 43.48644 
L 91.366158 41.73984 
L 91.732221 41.7546 
L 92.45537 43.14204 
L 92.816535 43.083 
L 93.18526 43.35852 
L 93.549405 43.78164 
L 93.909334 43.21584 
L 94.299684 42.9354 
L 94.640338 43.10268 
L 95.363907 44.25396 
L 96.45748 43.74228 
L 96.823888 43.46676 
L 97.546104 43.79148 
L 98.275048 43.77672 
L 98.639278 43.2552 
L 99.000211 43.40772 
L 99.364092 42.49752 
L 99.726119 42.90588 
L 100.092754 42.8616 
L 100.450491 42.41388 
L 101.185456 42.79764 
L 101.546436 41.57256 
L 101.909451 41.86284 
L 102.274316 41.63652 
L 102.636868 41.85792 
L 102.996153 41.22324 
L 103.728435 42.1482 
L 104.090134 41.96616 
L 104.452299 41.59224 
L 105.181318 41.99076 
L 105.540275 41.91696 
L 105.909219 41.98584 
L 106.276426 41.41512 
L 106.640479 42.15312 
L 107.002779 41.96124 
L 107.366681 42.43848 
L 108.087963 42.02028 
L 108.458631 42.0252 
L 108.821797 41.40528 
L 109.54678 41.52336 
L 110.267414 42.1974 
L 110.632035 41.8776 
L 111.368808 41.8038 
L 111.727055 41.976 
L 112.092075 42.00552 
L 112.454964 42.3942 
L 112.820047 42.27612 
L 113.914238 43.31424 
L 114.274928 43.2306 
L 114.639519 43.39296 
L 115.00488 43.16172 
L 115.365389 43.24536 
L 115.72369 43.71768 
L 116.092735 43.33392 
L 117.185618 43.67832 
L 117.54775 44.32776 
L 117.911311 44.13588 
L 118.269364 44.16048 
L 118.640074 43.96368 
L 119.00874 44.2392 
L 119.368458 44.19984 
L 119.735838 45.16908 
L 120.455194 46.00548 
L 120.812902 47.57004 
L 121.548902 46.64016 
L 121.90526 46.34496 
L 122.27232 46.82712 
L 123.002462 46.51716 
L 123.363097 46.5516 
L 123.729025 46.46304 
L 124.82148 45.6414 
L 125.183031 46.09404 
L 125.55488 46.3302 
L 126.648424 46.035 
L 126.989998 46.14324 
L 128.08294 47.38308 
L 128.44178 47.14692 
L 129.177918 47.22072 
L 130.259705 46.79268 
L 130.980772 45.92184 
L 131.716196 45.75456 
L 132.801762 46.02024 
L 133.516801 45.61188 
L 133.885526 45.51348 
L 134.249613 45.72504 
L 134.604504 45.72996 
L 134.967889 45.08052 
L 135.332089 44.76564 
L 135.69544 45.23796 
L 136.056937 45.29208 
L 136.425691 45.1248 
L 136.793912 45.08544 
L 137.150581 44.69676 
L 137.876876 44.74596 
L 138.24 45.0264 
L 138.24 45.0264 
" clip-path="url(#p3c13f9dd58)" style="fill: none; stroke: #4a8dff; stroke-width: 0.6; stroke-linecap: round"/>
   </g>
   <g id="line2d_7">
    <path d="M 5.76 26.96016 
L 6.123292 27.09792 
L 6.486585 27.49644 
L 6.849877 27.2898 
L 7.213169 26.57148 
L 7.576461 27.27012 
L 8.303046 27.35376 
L 9.029631 29.62188 
L 9.392923 29.96136 
L 9.756215 29.14956 
L 10.119507 28.68216 
L 10.4828 29.184 
L 10.846092 28.7412 
L 11.209384 27.5358 
L 11.572677 27.91956 
L 11.935969 28.00812 
L 12.299261 26.64528 
L 12.662554 26.88636 
L 13.025846 26.1828 
L 13.389138 24.52476 
L 13.75243 27.0684 
L 14.115723 27.59484 
L 14.842307 27.49644 
L 15.2056 28.13112 
L 15.568892 29.8482 
L 15.932184 29.12004 
L 16.295476 30.03024 
L 16.658769 27.84576 
L 17.385353 29.54316 
L 17.748646 31.13232 
L 18.111938 30.31068 
L 18.47523 30.62064 
L 18.838522 29.97612 
L 19.201815 31.97364 
L 19.565107 31.82112 
L 19.928399 32.0868 
L 20.291692 31.63416 
L 20.654984 30.6354 
L 21.018276 30.37464 
L 21.381568 30.86172 
L 21.744861 30.89616 
L 22.108153 31.11756 
L 22.834738 30.22212 
L 23.19803 30.45828 
L 23.561322 29.2578 
L 23.924615 28.50504 
L 24.287907 28.18032 
L 24.651199 28.2738 
L 25.014491 28.569 
L 25.377784 28.55424 
L 25.741076 27.8802 
L 26.104368 28.03272 
L 26.467661 27.69324 
L 26.830953 28.42632 
L 27.194245 28.3968 
L 27.557537 28.60344 
L 27.92083 29.88756 
L 28.284122 30.22212 
L 28.647414 29.58252 
L 29.010707 31.73256 
L 29.373999 31.36356 
L 29.737291 31.39308 
L 30.463876 29.09544 
L 30.827168 29.2332 
L 31.19046 27.02412 
L 31.917045 25.16928 
L 32.280337 25.10532 
L 33.006922 23.92452 
L 33.370214 25.53336 
L 33.733506 24.62808 
L 34.096799 25.4448 
L 34.460091 29.64156 
L 34.823383 30.80268 
L 35.186676 28.65756 
L 35.549968 28.6428 
L 36.276552 30.87156 
L 36.639845 32.17044 
L 37.003137 32.97732 
L 37.366429 32.628 
L 37.729722 31.90476 
L 38.093014 30.92076 
L 38.456306 31.96872 
L 38.819598 32.39676 
L 39.182891 31.19628 
L 39.909475 30.42384 
L 40.272768 29.0118 
L 40.63606 29.15448 
L 40.999352 29.76456 
L 41.362644 31.2012 
L 41.725937 32.09172 
L 42.089229 31.43244 
L 42.815814 30.90108 
L 43.542398 35.35368 
L 43.905691 34.24668 
L 44.268983 35.5062 
L 44.632275 34.48284 
L 44.995567 35.02896 
L 45.35886 33.8334 
L 45.722152 33.243 
L 46.085444 34.69932 
L 46.812029 36.2934 
L 47.175321 38.901 
L 47.538613 38.37948 
L 47.901906 38.92068 
L 48.265198 40.09164 
L 48.62849 39.70788 
L 48.991783 40.4262 
L 49.355075 42.75336 
L 49.718367 43.54548 
L 50.081659 43.72752 
L 50.808244 41.976 
L 51.171536 42.42864 
L 51.534829 40.86408 
L 51.898121 40.47048 
L 52.987998 40.89852 
L 53.35129 42.9354 
L 53.714582 40.43604 
L 54.077875 39.31428 
L 54.441167 40.04244 
L 54.804459 41.43972 
L 55.167752 41.47416 
L 55.531044 41.02152 
L 55.894336 40.7952 
L 56.257628 39.75708 
L 56.620921 40.11132 
L 56.984213 39.87024 
L 57.347505 40.94772 
L 57.710798 40.97232 
L 58.437382 42.87144 
L 58.800674 42.17772 
L 59.163967 43.04364 
L 59.527259 43.34868 
L 59.890551 42.03504 
L 60.617136 41.8038 
L 60.980428 41.84316 
L 61.34372 42.37944 
L 61.707013 42.26628 
L 62.070305 42.468 
L 62.433597 42.42864 
L 62.79689 42.18264 
L 63.160182 42.1728 
L 63.523474 42.50244 
L 63.886767 41.88252 
L 64.250059 42.32532 
L 64.976643 41.13468 
L 65.703228 40.42128 
L 66.06652 39.16176 
L 66.429813 39.28968 
L 66.793105 40.48032 
L 67.882982 40.88376 
L 68.609566 40.53936 
L 68.972859 38.50248 
L 69.336151 37.63656 
L 69.699443 38.34012 
L 70.062735 38.37456 
L 70.426028 38.5812 
L 71.152612 39.8358 
L 71.515905 41.93172 
L 71.879197 41.42004 
L 72.605781 41.39052 
L 72.969074 41.5086 
L 73.332366 42.80256 
L 73.695658 41.93664 
L 74.058951 41.49384 
L 74.422243 41.51352 
L 74.785535 43.78164 
L 75.148828 43.9932 
L 75.51212 46.66968 
L 75.875412 47.55036 
L 76.238704 46.64508 
L 76.834109 48.89352 
L 77.197216 49.84308 
L 77.558952 49.00176 
L 77.930549 49.233 
L 78.290843 48.97716 
L 79.018748 49.36092 
L 79.743916 49.58724 
L 80.102839 49.28712 
L 80.446962 49.16904 
L 80.833557 49.39044 
L 81.151215 49.29696 
L 81.922416 49.55772 
L 83.0121 49.41996 
L 83.376485 49.8234 
L 83.709087 49.86768 
L 84.101762 49.72992 
L 84.463436 49.39536 
L 85.18505 49.6758 
L 85.556597 49.47408 
L 85.916138 49.60692 
L 86.280276 49.37568 
L 86.641533 49.36584 
L 87.005607 48.6672 
L 88.096052 49.54788 
L 88.460433 49.5282 
L 88.821392 49.09032 
L 89.549263 49.2084 
L 89.911853 48.93288 
L 90.644905 48.89844 
L 91.366158 48.1998 
L 91.732221 48.28344 
L 92.095614 48.88368 
L 92.45537 49.04604 
L 92.816535 49.00176 
L 93.549405 49.38552 
L 93.909334 49.04112 
L 94.299684 48.92796 
L 94.640338 48.987 
L 95.363907 49.66104 
L 96.823888 49.40028 
L 97.182396 49.56756 
L 97.906285 49.56264 
L 98.275048 49.53312 
L 98.639278 49.25268 
L 99.000211 49.29696 
L 99.364092 48.89352 
L 99.726119 48.96732 
L 100.450491 48.5934 
L 100.820301 48.84432 
L 101.185456 48.95748 
L 101.546436 48.30804 
L 101.909451 48.34248 
L 102.274316 48.21456 
L 102.636868 48.26376 
L 102.996153 47.41752 
L 103.364243 48.05712 
L 103.728435 48.26376 
L 104.090134 48.01776 
L 104.452299 47.23548 
L 105.540275 47.1666 
L 105.909219 47.31912 
L 106.276426 46.49256 
L 106.640479 47.64876 
L 107.002779 47.5356 
L 107.366681 48.0276 
L 108.087963 46.81728 
L 108.458631 46.92552 
L 108.821797 45.85788 
L 109.54678 45.29208 
L 109.910169 45.58728 
L 110.267414 46.2564 
L 110.632035 45.7152 
L 112.092075 45.42492 
L 112.454964 46.38432 
L 112.820047 45.57744 
L 113.178702 46.51716 
L 113.914238 47.54544 
L 114.639519 47.66844 
L 115.00488 47.05344 
L 115.365389 47.22564 
L 115.72369 48.07188 
L 116.460808 47.37324 
L 117.185618 48.07188 
L 117.54775 48.59832 
L 117.911311 48.52452 
L 118.269364 48.5688 
L 118.640074 48.38676 
L 119.00874 48.55404 
L 120.097885 49.93656 
L 120.455194 49.98084 
L 120.812902 50.3646 
L 121.548902 50.07432 
L 121.90526 49.99068 
L 122.27232 50.217 
L 123.002462 49.98084 
L 123.729025 49.87752 
L 124.104394 49.69548 
L 124.82148 49.7004 
L 125.55488 50.06448 
L 126.274497 49.89228 
L 126.989998 49.9464 
L 128.44178 50.31048 
L 129.902774 50.41872 
L 130.980772 50.0694 
L 132.427458 50.05956 
L 132.801762 50.11368 
L 133.164235 49.91196 
L 133.885526 49.8972 
L 134.604504 50.08908 
L 134.967889 49.84308 
L 135.332089 49.85292 
L 135.69544 49.97592 
L 137.876876 49.725 
L 138.24 49.7496 
L 138.24 49.7496 
" clip-path="url(#p3c13f9dd58)" style="fill: none; stroke: #f5841e; stroke-width: 0.7; stroke-linecap: round"/>
   </g>
  </g>
 </g>
 <defs>
  <clipPath id="p3c13f9dd58">
   <rect x="5.76" y="3.6" width="132.48" height="49.2"/>
  </clipPath>
 </defs>
</svg>
