<?xml version="1.0" encoding="utf-8" standalone="no"?>
<!DOCTYPE svg PUBLIC "-//W3C//DTD SVG 1.1//EN"
  "http://www.w3.org/Graphics/SVG/1.1/DTD/svg11.dtd">
<svg xmlns:xlink="http://www.w3.org/1999/xlink" width="144pt" height="60pt" viewBox="0 0 144 60" xmlns="http://www.w3.org/2000/svg" version="1.1">
  <desc id="nav-meta">{"window":"3m","count":4,"labels":["27.01","26.02","27.03","26.04"],"tick_utc":["2026-01-27T12:00:00Z","2026-02-26T03:20:47Z","2026-03-27T03:41:18Z","2026-04-26T04:06:31Z"]}</desc>

 <metadata>
  <rdf:RDF xmlns:dc="http://purl.org/dc/elements/1.1/" xmlns:cc="http://creativecommons.org/ns#" xmlns:rdf="http://www.w3.org/1999/02/22-rdf-syntax-ns#">
   <cc:Work>
    <dc:type rdf:resource="http://purl.org/dc/dcmitype/StillImage"/>
    <dc:date>2026-04-26T13:52:12.843686</dc:date>
    <dc:format>image/svg+xml</dc:format>
    <dc:creator>
     <cc:Agent>
      <dc:title>Matplotlib v3.10.9, https://matplotlib.org/</dc:title>
     </cc:Agent>
    </dc:creator>
   </cc:Work>
  </rdf:RDF>
 </metadata>
 <defs>
  <style type="text/css">*{stroke-linejoin: round; stroke-linecap: butt}</style>
 </defs>
 <g id="figure_1">
  <g id="patch_1">
   <path d="M 0 60 
L 144 60 
L 144 0 
L 0 0 
L 0 60 
z
" style="fill: none; opacity: 0"/>
  </g>
  <g id="axes_1">
   <g id="patch_2">
    <path d="M 5.76 52.8 
L 138.24 52.8 
L 138.24 3.6 
L 5.76 3.6 
L 5.76 52.8 
z
" style="fill: none"/>
   </g>
   <g id="matplotlib.axis_1"/>
   <g id="matplotlib.axis_2"/>
   <g id="line2d_1">
    <path d="M 5.76 42.96 
L 138.24 42.96 
" clip-path="url(#pbe1ae79c7e)" style="fill: none; stroke: #b2b2b2; stroke-opacity: 0.35; stroke-width: 0.5; stroke-linecap: square"/>
   </g>
   <g id="line2d_2">
    <path d="M 5.76 33.12 
L 138.24 33.12 
" clip-path="url(#pbe1ae79c7e)" style="fill: none; stroke: #b2b2b2; stroke-opacity: 0.35; stroke-width: 0.5; stroke-linecap: square"/>
   </g>
   <g id="line2d_3">
    <path d="M 5.76 23.28 
L 138.24 23.28 
" clip-path="url(#pbe1ae79c7e)" style="fill: none; stroke: #b2b2b2; stroke-opacity: 0.35; stroke-width: 0.5; stroke-linecap: square"/>
   </g>
   <g id="line2d_4">
    <path d="M 5.76 13.44 
L 138.24 13.44 
" clip-path="url(#pbe1ae79c7e)" style="fill: none; stroke: #b2b2b2; stroke-opacity: 0.35; stroke-width: 0.5; stroke-linecap: square"/>
   </g>
   <g id="line2d_5">
    <path d="M 5.76 45.4446 
L 7.254059 45.06084 
L 8.748118 45.33144 
L 10.242177 46.30068 
L 11.736236 46.34496 
L 13.230295 47.89476 
L 14.724354 48.26376 
L 16.218414 47.96364 
L 17.479735 48.55896 
L 18.667045 49.06572 
L 20.160343 50.04972 
L 21.648004 49.24776 
L 23.176216 49.32156 
L 24.657945 49.31172 
L 26.160529 49.43964 
L 27.651493 49.59708 
L 29.140174 49.80372 
L 30.633784 49.86768 
L 32.109876 49.479 
L 33.525099 49.24776 
L 35.114993 49.48392 
L 36.421378 49.37568 
L 38.100742 49.479 
L 39.592985 49.7004 
L 41.078312 49.62168 
L 42.56324 49.5282 
L 44.074367 49.49376 
L 45.572922 49.98576 
L 46.940764 49.96608 
L 48.555662 49.7004 
L 50.043064 49.27236 
L 51.534287 49.37076 
L 53.010743 49.68072 
L 54.538746 49.25268 
L 56.017381 49.51344 
L 57.514916 49.4052 
L 59.000605 49.34124 
L 60.497881 49.09032 
L 61.991231 49.24284 
L 63.473825 49.49868 
L 64.982392 49.64628 
L 66.48093 49.58724 
L 67.965392 49.36092 
L 69.458863 49.41996 
L 70.958802 49.45932 
L 72.449973 49.16904 
L 73.942043 49.22808 
L 75.464687 49.27236 
L 76.962965 48.87384 
L 78.430878 48.74592 
L 79.936333 48.70164 
L 81.430807 49.03128 
L 82.910323 49.1592 
L 84.395632 49.08048 
L 85.912033 49.21332 
L 87.409603 49.36584 
L 88.889828 49.11 
L 90.495163 48.90828 
L 91.89612 49.05096 
L 93.392064 49.37076 
L 94.87184 49.64628 
L 96.386252 49.6266 
L 97.884582 49.602 
L 99.369217 49.59708 
L 100.87609 49.59708 
L 102.35047 49.8726 
L 103.846241 49.88244 
L 105.327504 49.80864 
L 106.84406 49.78896 
L 108.341976 49.69056 
L 109.826334 49.83816 
L 111.322814 49.50852 
L 112.811668 49.68564 
L 114.319474 49.6266 
L 115.79069 49.48884 
L 117.311552 49.6512 
L 118.813272 49.69056 
L 120.29782 49.40028 
L 121.790738 49.58724 
L 123.291264 49.45932 
L 124.78228 49.27728 
L 126.25986 49.19856 
L 127.773649 49.43472 
L 129.271409 49.50852 
L 130.758914 49.46424 
L 132.248339 49.31664 
L 133.74845 49.4298 
L 135.246469 49.42488 
L 136.7227 49.37568 
L 138.24 49.4052 
" clip-path="url(#pbe1ae79c7e)" style="fill: none; stroke: #bebebe; stroke-width: 0.6; stroke-linecap: round"/>
   </g>
   <g id="line2d_6">
    <path d="M 5.76 37.61196 
L 7.254059 36.95268 
L 8.748118 37.05108 
L 10.242177 38.37948 
L 11.736236 39.20604 
L 13.230295 41.03136 
L 14.724354 42.26628 
L 16.218414 41.73492 
L 17.479735 42.23676 
L 18.667045 43.38804 
L 20.160343 44.89356 
L 21.648004 43.6242 
L 23.176216 43.575 
L 24.657945 43.53072 
L 26.160529 43.72752 
L 27.651493 44.0916 
L 29.140174 44.436 
L 30.633784 44.49012 
L 32.109876 43.81608 
L 33.525099 43.7226 
L 35.114993 44.5344 
L 36.421378 44.19 
L 38.100742 44.21952 
L 39.592985 44.3868 
L 41.078312 44.51472 
L 42.56324 44.4606 
L 44.074367 44.3868 
L 45.572922 45.174 
L 46.940764 45.23796 
L 48.555662 44.81484 
L 50.043064 43.821 
L 51.534287 44.01288 
L 53.010743 44.66232 
L 54.538746 43.93908 
L 56.017381 44.39664 
L 57.514916 44.12112 
L 59.000605 44.33268 
L 60.497881 43.3044 
L 61.991231 43.6242 
L 63.473825 44.29824 
L 64.982392 44.53932 
L 66.48093 44.30808 
L 67.965392 43.8702 
L 69.458863 44.00304 
L 70.958802 43.97844 
L 72.449973 43.41756 
L 73.942043 43.48152 
L 75.464687 43.48644 
L 76.962965 42.49752 
L 78.430878 41.73984 
L 79.936333 41.7546 
L 81.430807 42.591 
L 82.910323 43.14204 
L 84.395632 43.083 
L 85.912033 43.35852 
L 87.409603 43.78164 
L 88.889828 43.21584 
L 90.495163 42.9354 
L 91.89612 43.10268 
L 93.392064 43.72752 
L 94.87184 44.25396 
L 96.386252 44.10636 
L 97.884582 43.9194 
L 99.369217 43.74228 
L 100.87609 43.46676 
L 102.35047 43.65372 
L 103.846241 43.79148 
L 105.327504 43.81116 
L 106.84406 43.77672 
L 108.341976 43.2552 
L 109.826334 43.40772 
L 111.322814 42.49752 
L 112.811668 42.90588 
L 114.319474 42.8616 
L 115.79069 42.41388 
L 117.311552 42.63036 
L 118.813272 42.79764 
L 120.29782 41.57256 
L 121.790738 41.86284 
L 123.291264 41.63652 
L 124.78228 41.85792 
L 126.25986 41.22324 
L 127.773649 41.76936 
L 129.271409 42.1482 
L 130.758914 41.96616 
L 132.248339 41.59224 
L 133.74845 41.76936 
L 135.246469 41.99076 
L 136.7227 41.91696 
L 138.24 41.98584 
" clip-path="url(#pbe1ae79c7e)" style="fill: none; stroke: #4a8dff; stroke-width: 0.6; stroke-linecap: round"/>
   </g>
   <g id="line2d_7">
    <path d="M 5.76 41.93664 
L 7.254059 41.49384 
L 8.748118 41.51352 
L 10.242177 43.78164 
L 11.736236 43.9932 
L 13.230295 46.66968 
L 14.724354 47.55036 
L 16.218414 46.64508 
L 17.479735 47.89476 
L 18.667045 48.89352 
L 20.160343 49.84308 
L 21.648004 49.00176 
L 23.176216 49.233 
L 24.657945 48.97716 
L 26.160529 49.22316 
L 27.651493 49.36092 
L 29.140174 49.49868 
L 30.633784 49.58724 
L 32.109876 49.28712 
L 33.525099 49.16904 
L 35.114993 49.39044 
L 36.421378 49.29696 
L 38.100742 49.479 
L 39.592985 49.55772 
L 41.078312 49.51344 
L 42.56324 49.44948 
L 44.074367 49.41996 
L 45.572922 49.8234 
L 46.940764 49.86768 
L 48.555662 49.72992 
L 50.043064 49.39536 
L 51.534287 49.52328 
L 53.010743 49.6758 
L 54.538746 49.47408 
L 56.017381 49.60692 
L 57.514916 49.37568 
L 59.000605 49.36584 
L 60.497881 48.6672 
L 61.991231 48.95256 
L 63.473825 49.36092 
L 64.982392 49.54788 
L 66.48093 49.5282 
L 67.965392 49.09032 
L 69.458863 49.16412 
L 70.958802 49.2084 
L 72.449973 48.93288 
L 73.942043 48.95748 
L 75.464687 48.89844 
L 76.962965 48.48024 
L 78.430878 48.1998 
L 79.936333 48.28344 
L 81.430807 48.88368 
L 82.910323 49.04604 
L 84.395632 49.00176 
L 85.912033 49.20348 
L 87.409603 49.38552 
L 88.889828 49.04112 
L 90.495163 48.92796 
L 91.89612 48.987 
L 93.392064 49.29204 
L 94.87184 49.66104 
L 96.386252 49.56756 
L 97.884582 49.53312 
L 99.369217 49.46424 
L 100.87609 49.40028 
L 102.35047 49.56756 
L 103.846241 49.59708 
L 105.327504 49.56264 
L 106.84406 49.53312 
L 108.341976 49.25268 
L 109.826334 49.29696 
L 111.322814 48.89352 
L 112.811668 48.96732 
L 114.319474 48.8148 
L 115.79069 48.5934 
L 117.311552 48.84432 
L 118.813272 48.95748 
L 120.29782 48.30804 
L 121.790738 48.34248 
L 123.291264 48.21456 
L 124.78228 48.26376 
L 126.25986 47.41752 
L 127.773649 48.05712 
L 129.271409 48.26376 
L 130.758914 48.01776 
L 132.248339 47.23548 
L 133.74845 47.17644 
L 135.246469 47.15676 
L 136.7227 47.1666 
L 138.24 47.31912 
" clip-path="url(#pbe1ae79c7e)" style="fill: none; stroke: #f5841e; stroke-width: 0.7; stroke-linecap: round"/>
   </g>
  </g>
 </g>
 <defs>
  <clipPath id="pbe1ae79c7e">
   <rect x="5.76" y="3.6" width="132.48" height="49.2"/>
  </clipPath>
 </defs>
</svg>
