<?xml version="1.0" encoding="utf-8" standalone="no"?>
<!DOCTYPE svg PUBLIC "-//W3C//DTD SVG 1.1//EN"
  "http://www.w3.org/Graphics/SVG/1.1/DTD/svg11.dtd">
<svg xmlns:xlink="http://www.w3.org/1999/xlink" width="144pt" height="60pt" viewBox="0 0 144 60" xmlns="http://www.w3.org/2000/svg" version="1.1">
  <desc id="nav-meta">{"window":"1y","count":4,"labels":["01.06","30.09","29.01","31.05"],"tick_utc":["2025-06-01T12:00:00Z","2025-09-30T12:00:00Z","2026-01-29T12:00:00Z","2026-05-31T05:08:27Z"]}</desc>

 <metadata>
  <rdf:RDF xmlns:dc="http://purl.org/dc/elements/1.1/" xmlns:cc="http://creativecommons.org/ns#" xmlns:rdf="http://www.w3.org/1999/02/22-rdf-syntax-ns#">
   <cc:Work>
    <dc:type rdf:resource="http://purl.org/dc/dcmitype/StillImage"/>
    <dc:date>2026-05-31T14:21:34.808903</dc:date>
    <dc:format>image/svg+xml</dc:format>
    <dc:creator>
     <cc:Agent>
      <dc:title>Matplotlib v3.10.9, https://matplotlib.org/</dc:title>
     </cc:Agent>
    </dc:creator>
   </cc:Work>
  </rdf:RDF>
 </metadata>
 <defs>
  <style type="text/css">*{stroke-linejoin: round; stroke-linecap: butt}</style>
 </defs>
 <g id="figure_1">
  <g id="patch_1">
   <path d="M 0 60 
L 144 60 
L 144 0 
L 0 0 
L 0 60 
z
" style="fill: none; opacity: 0"/>
  </g>
  <g id="axes_1">
   <g id="patch_2">
    <path d="M 5.76 52.8 
L 138.24 52.8 
L 138.24 3.6 
L 5.76 3.6 
L 5.76 52.8 
z
" style="fill: none"/>
   </g>
   <g id="matplotlib.axis_1"/>
   <g id="matplotlib.axis_2"/>
   <g id="line2d_1">
    <path d="M 5.76 42.96 
L 138.24 42.96 
" clip-path="url(#p5c154b3946)" style="fill: none; stroke: #b2b2b2; stroke-opacity: 0.35; stroke-width: 0.5; stroke-linecap: square"/>
   </g>
   <g id="line2d_2">
    <path d="M 5.76 33.12 
L 138.24 33.12 
" clip-path="url(#p5c154b3946)" style="fill: none; stroke: #b2b2b2; stroke-opacity: 0.35; stroke-width: 0.5; stroke-linecap: square"/>
   </g>
   <g id="line2d_3">
    <path d="M 5.76 23.28 
L 138.24 23.28 
" clip-path="url(#p5c154b3946)" style="fill: none; stroke: #b2b2b2; stroke-opacity: 0.35; stroke-width: 0.5; stroke-linecap: square"/>
   </g>
   <g id="line2d_4">
    <path d="M 5.76 13.44 
L 138.24 13.44 
" clip-path="url(#p5c154b3946)" style="fill: none; stroke: #b2b2b2; stroke-opacity: 0.35; stroke-width: 0.5; stroke-linecap: square"/>
   </g>
   <g id="line2d_5">
    <path d="M 5.76 41.1888 
L 6.124242 41.0904 
L 6.852726 41.35608 
L 7.216968 41.62176 
L 7.58121 42.79272 
L 7.945452 42.30564 
L 8.673936 41.7546 
L 9.038178 40.62792 
L 9.40242 40.131 
L 9.766662 40.6476 
L 10.130904 41.73492 
L 10.859388 42.76812 
L 11.22363 41.73492 
L 11.587873 41.89728 
L 11.952115 42.345 
L 12.316357 42.5664 
L 12.680599 42.46308 
L 13.409083 44.20476 
L 13.773325 44.45076 
L 14.137567 42.7632 
L 14.501809 42.63036 
L 14.866051 42.94524 
L 15.230293 43.52088 
L 15.594535 43.1076 
L 15.958777 41.98092 
L 16.687261 41.43972 
L 17.051503 42.4926 
L 17.415745 41.79888 
L 17.779987 41.78412 
L 18.144229 42.37452 
L 18.508471 42.3942 
L 18.872713 41.83332 
L 19.236955 42.24168 
L 19.601197 41.84316 
L 20.329681 40.2786 
L 20.693923 40.42128 
L 21.058165 40.71648 
L 21.786649 40.48032 
L 22.150891 40.26384 
L 22.515133 38.97972 
L 23.243618 38.51724 
L 23.60786 38.57628 
L 23.972102 38.04492 
L 24.336344 36.03264 
L 24.700586 34.88136 
L 25.064828 36.92316 
L 25.42907 37.8432 
L 25.793312 37.37088 
L 26.157554 37.53324 
L 26.521796 37.056 
L 26.886038 37.77924 
L 27.25028 38.02032 
L 27.614522 38.45328 
L 27.978764 39.1962 
L 28.343006 40.41636 
L 28.707248 40.97232 
L 29.07149 40.53444 
L 29.435732 39.55536 
L 29.799974 40.24908 
L 30.164216 39.7128 
L 30.528458 38.778 
L 30.8927 38.59104 
L 31.621184 37.794 
L 31.985426 38.82228 
L 32.349668 36.53448 
L 32.71391 35.334 
L 33.442394 37.44468 
L 33.806637 36.90348 
L 34.170879 36.65748 
L 34.899363 38.64516 
L 35.263605 37.2282 
L 35.627847 38.14332 
L 35.992089 35.53572 
L 36.356331 35.04372 
L 36.720573 34.80264 
L 37.084815 37.23804 
L 38.177541 33.67104 
L 38.541783 34.90596 
L 39.634509 35.9736 
L 39.998751 34.36476 
L 40.362993 34.1778 
L 40.727235 35.22084 
L 41.091477 35.11752 
L 41.455719 35.54556 
L 42.912687 32.44104 
L 43.276929 31.83096 
L 43.641171 30.06468 
L 44.005413 30.01056 
L 44.369655 30.291 
L 44.733897 31.16184 
L 45.09814 30.74856 
L 45.462382 29.71536 
L 45.826624 29.37588 
L 46.190866 30.57636 
L 46.555108 30.42876 
L 46.91935 30.79284 
L 47.283592 32.91828 
L 47.647834 33.72024 
L 48.012076 34.05972 
L 48.376318 36.5886 
L 48.74056 34.90104 
L 49.104802 35.10276 
L 49.469044 34.16796 
L 49.833286 33.8826 
L 50.197528 34.43364 
L 50.926012 31.05852 
L 51.290254 31.26024 
L 51.654496 31.92936 
L 52.018738 31.85064 
L 52.38298 31.3242 
L 52.747222 32.84448 
L 53.111464 31.78176 
L 53.475706 32.85924 
L 53.839948 36.8838 
L 54.20419 38.39424 
L 54.568432 35.95392 
L 54.932674 34.53696 
L 55.296916 35.20608 
L 56.0254 37.57752 
L 56.389643 37.90716 
L 56.753885 37.18884 
L 57.118127 37.18392 
L 57.482369 36.89364 
L 57.846611 37.42008 
L 58.210853 38.17284 
L 58.575095 36.687 
L 58.939337 36.42132 
L 59.303579 36.34752 
L 59.667821 35.56032 
L 60.032063 35.72268 
L 60.396305 36.29832 
L 60.760547 36.32292 
L 61.124789 37.61688 
L 61.489031 37.2282 
L 61.853273 37.34628 
L 62.217515 37.23804 
L 62.581757 40.008 
L 62.945999 41.36592 
L 63.310241 40.43604 
L 63.674483 41.44956 
L 64.038725 40.53444 
L 64.402967 41.02152 
L 64.767209 40.22448 
L 65.131451 39.79644 
L 65.495693 41.51844 
L 65.859935 41.66604 
L 66.588419 43.51596 
L 66.952661 43.43724 
L 67.316904 43.71276 
L 67.681146 44.59836 
L 68.045388 43.30932 
L 69.138114 44.88372 
L 69.502356 44.99688 
L 69.866598 44.57868 
L 70.23084 43.5996 
L 70.595082 43.51596 
L 70.959324 43.00428 
L 71.323566 43.2798 
L 71.687808 43.71768 
L 72.416292 44.0916 
L 72.780534 45.11004 
L 73.144776 43.55532 
L 73.509018 42.72876 
L 74.237502 44.27364 
L 74.965986 44.47536 
L 75.330228 44.25888 
L 75.69447 43.64388 
L 76.058712 43.84068 
L 76.422954 43.85052 
L 76.787196 44.36712 
L 77.151438 44.26872 
L 77.51568 44.74104 
L 77.879922 44.98704 
L 78.244164 44.84436 
L 78.608407 45.58728 
L 78.972649 46.0596 
L 79.336891 45.18384 
L 80.793859 45.47904 
L 81.158101 45.65616 
L 81.522343 45.98088 
L 82.250827 45.38556 
L 82.615069 45.31668 
L 82.979311 45.58728 
L 83.343553 45.35604 
L 83.707795 45.40032 
L 84.072037 45.11496 
L 84.436279 44.42124 
L 85.164763 44.18508 
L 85.893247 43.24044 
L 86.257489 43.8702 
L 86.621731 43.60944 
L 86.985973 43.92924 
L 87.350215 43.93416 
L 87.714457 43.46184 
L 88.078699 43.5012 
L 88.442941 42.72384 
L 88.807183 42.51228 
L 89.171425 43.08792 
L 89.535667 42.75828 
L 89.89991 42.90096 
L 90.628394 44.2392 
L 90.992636 45.23304 
L 91.356878 44.77548 
L 92.085362 45.04608 
L 92.449604 45.07068 
L 92.813846 46.1334 
L 93.178088 45.4446 
L 93.54233 45.06084 
L 93.906572 45.33144 
L 94.270814 46.30068 
L 94.635056 46.34496 
L 94.999298 47.89476 
L 95.36354 48.26376 
L 95.727782 47.96364 
L 96.688799 50.04972 
L 97.051481 49.24776 
L 98.515094 49.59708 
L 98.878025 49.80372 
L 99.242157 49.86768 
L 99.947041 49.24776 
L 100.334647 49.48392 
L 100.653135 49.37568 
L 101.062553 49.479 
L 101.426353 49.7004 
L 102.518885 49.49376 
L 102.884223 49.98576 
L 103.217694 49.96608 
L 103.611396 49.7004 
L 103.974015 49.27236 
L 104.337566 49.37076 
L 104.697516 49.68072 
L 105.070034 49.25268 
L 105.430515 49.51344 
L 106.522832 49.09032 
L 107.981462 49.58724 
L 108.343364 49.36092 
L 109.073138 49.45932 
L 109.436676 49.16904 
L 110.171644 49.27236 
L 110.536915 48.87384 
L 111.261803 48.70164 
L 111.626146 49.03128 
L 111.986842 49.1592 
L 112.348951 49.08048 
L 113.083738 49.36584 
L 113.835978 48.90828 
L 114.177522 49.05096 
L 114.902983 49.64628 
L 116.366781 49.59708 
L 116.726226 49.8726 
L 117.452007 49.80864 
L 118.548793 49.83816 
L 118.913626 49.50852 
L 119.276599 49.68564 
L 120.002865 49.48884 
L 120.739751 49.69056 
L 121.101675 49.40028 
L 121.465638 49.58724 
L 122.555182 49.19856 
L 122.924234 49.43472 
L 123.289378 49.50852 
L 125.105955 49.37568 
L 125.475863 49.4052 
L 125.84403 49.29204 
L 126.209035 49.5528 
L 126.572282 49.50852 
L 126.937136 49.64136 
L 127.660303 49.56264 
L 128.03194 49.57248 
L 128.396056 49.42488 
L 128.752275 49.49376 
L 129.487272 49.25268 
L 129.845452 49.24284 
L 130.211026 48.80004 
L 130.582608 48.85416 
L 131.308908 48.63276 
L 131.674883 48.66228 
L 132.03872 49.09524 
L 132.404758 48.99192 
L 133.134031 49.34616 
L 133.50181 49.47408 
L 134.228987 49.54788 
L 134.595303 49.3314 
L 134.956754 49.34616 
L 135.315992 49.51836 
L 136.055037 49.41504 
L 137.14482 49.7742 
L 138.24 49.61676 
L 138.24 49.61676 
" clip-path="url(#p5c154b3946)" style="fill: none; stroke: #bebebe; stroke-width: 0.6; stroke-linecap: round"/>
   </g>
   <g id="line2d_6">
    <path d="M 5.76 40.40652 
L 6.124242 40.36716 
L 6.488484 39.8604 
L 6.852726 39.96372 
L 7.216968 39.85548 
L 7.58121 41.1888 
L 8.309694 40.4508 
L 8.673936 40.5738 
L 9.40242 38.45328 
L 9.766662 38.68452 
L 10.130904 39.55536 
L 10.495146 40.09164 
L 10.859388 40.39668 
L 11.587873 40.2048 
L 11.952115 40.52952 
L 12.680599 40.48032 
L 13.409083 42.26136 
L 13.773325 42.5664 
L 14.137567 41.17404 
L 14.501809 41.0166 
L 14.866051 41.22324 
L 15.594535 41.17896 
L 15.958777 41.08056 
L 16.323019 40.61808 
L 16.687261 40.7214 
L 17.051503 41.30688 
L 17.415745 40.11132 
L 17.779987 39.99816 
L 18.144229 40.56888 
L 18.508471 40.51476 
L 18.872713 40.131 
L 19.236955 40.3278 
L 19.601197 39.81612 
L 20.329681 37.46436 
L 20.693923 37.39056 
L 21.058165 37.50372 
L 21.786649 37.01172 
L 22.150891 36.16056 
L 22.515133 34.4976 
L 22.879376 33.69072 
L 23.60786 32.89368 
L 23.972102 31.73256 
L 24.336344 31.68336 
L 24.700586 31.8162 
L 25.064828 32.64276 
L 25.42907 32.0868 
L 26.157554 31.85064 
L 26.521796 30.98964 
L 26.886038 31.53576 
L 27.25028 31.521 
L 27.614522 31.38816 
L 27.978764 32.17044 
L 28.343006 33.68088 
L 28.707248 34.28604 
L 29.07149 33.58248 
L 29.435732 32.0376 
L 29.799974 32.76576 
L 30.164216 32.259 
L 30.528458 30.65508 
L 30.8927 29.93676 
L 31.256942 28.14588 
L 31.985426 28.40664 
L 32.349668 25.73508 
L 32.71391 24.62316 
L 33.078152 26.10408 
L 33.442394 26.97984 
L 33.806637 27.00936 
L 34.170879 26.58132 
L 34.535121 27.7818 
L 34.899363 29.49888 
L 35.263605 27.68832 
L 35.627847 28.44108 
L 35.992089 24.16068 
L 36.356331 24.55428 
L 36.720573 24.51984 
L 37.084815 27.32916 
L 37.449057 25.7646 
L 37.813299 26.48784 
L 38.177541 26.43372 
L 38.541783 27.44724 
L 39.270267 27.27504 
L 39.634509 27.8802 
L 39.998751 27.72276 
L 40.362993 26.84208 
L 40.727235 27.91956 
L 41.091477 27.8556 
L 41.455719 28.09668 
L 41.819961 27.87528 
L 42.548445 27.83592 
L 42.912687 27.57024 
L 43.276929 26.77812 
L 43.641171 25.01184 
L 44.369655 25.71048 
L 44.733897 26.31564 
L 45.09814 26.45832 
L 45.462382 25.8384 
L 45.826624 25.84824 
L 46.190866 26.6994 
L 46.555108 26.62068 
L 46.91935 26.8224 
L 47.283592 28.61328 
L 48.012076 28.97244 
L 48.376318 30.99456 
L 48.74056 29.76456 
L 49.104802 29.8974 
L 49.469044 29.02164 
L 49.833286 28.50012 
L 50.197528 29.00688 
L 50.926012 26.601 
L 51.290254 26.3796 
L 51.654496 26.5764 
L 52.018738 26.3796 
L 52.38298 25.1496 
L 52.747222 26.81256 
L 53.111464 26.29596 
L 53.475706 27.41772 
L 53.839948 31.19136 
L 54.20419 31.80144 
L 54.568432 28.89864 
L 54.932674 28.28364 
L 56.0254 30.80268 
L 56.389643 31.22088 
L 56.753885 30.8076 
L 57.118127 30.13356 
L 57.482369 30.17784 
L 58.210853 31.42752 
L 58.575095 31.04376 
L 58.939337 30.49764 
L 59.303579 30.3648 
L 59.667821 28.88388 
L 60.032063 29.15448 
L 60.396305 30.15324 
L 61.124789 31.4226 
L 61.853273 30.9306 
L 62.217515 30.66 
L 62.945999 34.99944 
L 63.310241 34.07448 
L 63.674483 34.9158 
L 64.038725 34.02528 
L 64.402967 34.26144 
L 64.767209 33.0216 
L 65.131451 33.10524 
L 65.495693 34.1532 
L 65.859935 34.2024 
L 66.588419 36.34752 
L 66.952661 35.89488 
L 67.681146 36.94776 
L 68.045388 36.2688 
L 68.40963 36.97236 
L 68.773872 38.286 
L 69.138114 38.76324 
L 69.502356 38.73864 
L 69.866598 38.51724 
L 70.23084 37.42992 
L 70.595082 37.42008 
L 70.959324 36.90348 
L 71.323566 36.98712 
L 71.687808 36.86412 
L 72.05205 37.16424 
L 72.416292 37.14948 
L 72.780534 38.52216 
L 73.509018 35.71776 
L 73.87326 36.15564 
L 74.237502 36.93792 
L 74.965986 36.72636 
L 75.330228 36.21468 
L 75.69447 34.8174 
L 76.058712 34.7928 
L 76.422954 35.42748 
L 76.787196 36.49512 
L 77.151438 36.28356 
L 77.51568 36.6378 
L 77.879922 37.3512 
L 78.244164 37.3512 
L 78.608407 38.31552 
L 78.972649 38.32536 
L 79.336891 37.26264 
L 79.701133 37.26264 
L 80.065375 37.09044 
L 80.429617 37.06092 
L 80.793859 37.34628 
L 81.158101 37.48404 
L 81.522343 37.77924 
L 82.250827 37.45944 
L 82.979311 37.56276 
L 83.343553 37.31184 
L 83.707795 37.33644 
L 84.072037 37.09536 
L 84.436279 36.23928 
L 85.164763 36.11628 
L 85.893247 35.0142 
L 86.257489 35.93424 
L 86.621731 36.36228 
L 86.985973 36.50988 
L 87.350215 36.5148 
L 87.714457 36.25404 
L 88.078699 36.46068 
L 88.442941 34.83708 
L 88.807183 34.57632 
L 89.535667 35.00436 
L 89.89991 34.93056 
L 90.264152 35.088 
L 90.628394 35.78664 
L 90.992636 37.55292 
L 91.356878 37.26756 
L 91.72112 37.46436 
L 92.449604 37.45944 
L 92.813846 38.41392 
L 93.54233 36.95268 
L 93.906572 37.05108 
L 94.270814 38.37948 
L 94.635056 39.20604 
L 94.999298 41.03136 
L 95.36354 42.26628 
L 95.727782 41.73492 
L 96.035284 42.23676 
L 96.688799 44.89356 
L 97.051481 43.6242 
L 97.785286 43.53072 
L 98.151606 43.72752 
L 98.878025 44.436 
L 99.242157 44.49012 
L 99.602019 43.81608 
L 99.947041 43.7226 
L 100.334647 44.5344 
L 100.653135 44.19 
L 101.062553 44.21952 
L 101.788466 44.51472 
L 102.518885 44.3868 
L 102.884223 45.174 
L 103.217694 45.23796 
L 103.611396 44.81484 
L 103.974015 43.821 
L 104.337566 44.01288 
L 104.697516 44.66232 
L 105.070034 43.93908 
L 105.430515 44.39664 
L 105.795605 44.12112 
L 106.157806 44.33268 
L 106.522832 43.3044 
L 106.886902 43.6242 
L 107.248349 44.29824 
L 107.616128 44.53932 
L 107.981462 44.30808 
L 108.343364 43.8702 
L 108.707463 44.00304 
L 109.073138 43.97844 
L 109.436676 43.41756 
L 110.171644 43.48644 
L 110.894782 41.73984 
L 111.261803 41.7546 
L 111.986842 43.14204 
L 112.348951 43.083 
L 112.71864 43.35852 
L 113.083738 43.78164 
L 113.444607 43.21584 
L 113.835978 42.9354 
L 114.177522 43.10268 
L 114.902983 44.25396 
L 115.999415 43.74228 
L 116.366781 43.46676 
L 117.090885 43.79148 
L 117.821734 43.77672 
L 118.186916 43.2552 
L 118.548793 43.40772 
L 118.913626 42.49752 
L 119.276599 42.90588 
L 119.644192 42.8616 
L 120.002865 42.41388 
L 120.739751 42.79764 
L 121.101675 41.57256 
L 121.465638 41.86284 
L 121.831457 41.63652 
L 122.194957 41.85792 
L 122.555182 41.22324 
L 123.289378 42.1482 
L 123.652022 41.96616 
L 124.015134 41.59224 
L 124.746059 41.99076 
L 125.105955 41.91696 
L 125.475863 41.98584 
L 125.84403 41.41512 
L 126.209035 42.15312 
L 126.572282 41.96124 
L 126.937136 42.43848 
L 127.660303 42.02028 
L 128.03194 42.0252 
L 128.396056 41.40528 
L 129.122933 41.52336 
L 129.845452 42.1974 
L 130.211026 41.8776 
L 130.949725 41.8038 
L 131.308908 41.976 
L 131.674883 42.00552 
L 132.03872 42.3942 
L 132.404758 42.27612 
L 133.50181 43.31424 
L 133.863442 43.2306 
L 134.228987 43.39296 
L 134.595303 43.16172 
L 134.956754 43.24536 
L 135.315992 43.71768 
L 135.686001 43.33392 
L 136.781742 43.67832 
L 137.14482 44.32776 
L 137.509332 44.13588 
L 137.868321 44.16048 
L 138.24 43.96368 
L 138.24 43.96368 
" clip-path="url(#p5c154b3946)" style="fill: none; stroke: #4a8dff; stroke-width: 0.6; stroke-linecap: round"/>
   </g>
   <g id="line2d_7">
    <path d="M 5.76 33.84324 
L 6.124242 33.3414 
L 6.488484 33.25284 
L 7.216968 33.7842 
L 7.58121 35.34384 
L 7.945452 33.981 
L 8.309694 33.35616 
L 8.673936 33.35124 
L 9.038178 31.09296 
L 9.40242 31.11756 
L 9.766662 31.87524 
L 10.130904 33.20856 
L 10.495146 33.17412 
L 10.859388 33.45456 
L 11.22363 33.4152 
L 11.587873 32.7264 
L 11.952115 33.84816 
L 12.680599 33.84324 
L 13.773325 35.73744 
L 14.137567 33.4398 
L 14.501809 33.20856 
L 14.866051 32.58372 
L 15.230293 32.71164 
L 15.958777 32.53944 
L 16.323019 32.013 
L 17.051503 33.3906 
L 17.415745 31.80144 
L 17.779987 31.41768 
L 18.144229 32.19012 
L 18.508471 32.10156 
L 18.872713 31.60956 
L 19.236955 32.0622 
L 19.601197 31.73748 
L 19.965439 30.56652 
L 20.329681 28.31808 
L 20.693923 27.48168 
L 21.058165 27.55548 
L 21.422407 26.71908 
L 21.786649 26.36484 
L 22.150891 27.42756 
L 22.879376 26.55672 
L 23.243618 27.27504 
L 23.60786 27.31932 
L 23.972102 27.63912 
L 24.336344 27.52596 
L 24.700586 26.3058 
L 25.064828 26.96016 
L 25.42907 27.09792 
L 25.793312 27.49644 
L 26.157554 27.2898 
L 26.521796 26.57148 
L 26.886038 27.27012 
L 27.614522 27.35376 
L 28.343006 29.62188 
L 28.707248 29.96136 
L 29.07149 29.14956 
L 29.435732 28.68216 
L 29.799974 29.184 
L 30.164216 28.7412 
L 30.528458 27.5358 
L 30.8927 27.91956 
L 31.256942 28.00812 
L 31.621184 26.64528 
L 31.985426 26.88636 
L 32.349668 26.1828 
L 32.71391 24.52476 
L 33.078152 27.0684 
L 33.442394 27.59484 
L 34.170879 27.49644 
L 34.535121 28.13112 
L 34.899363 29.8482 
L 35.263605 29.12004 
L 35.627847 30.03024 
L 35.992089 27.84576 
L 36.720573 29.54316 
L 37.084815 31.13232 
L 37.449057 30.31068 
L 37.813299 30.62064 
L 38.177541 29.97612 
L 38.541783 31.97364 
L 38.906025 31.82112 
L 39.270267 32.0868 
L 39.634509 31.63416 
L 39.998751 30.6354 
L 40.362993 30.37464 
L 40.727235 30.86172 
L 41.091477 30.89616 
L 41.455719 31.11756 
L 42.184203 30.22212 
L 42.548445 30.45828 
L 42.912687 29.2578 
L 43.276929 28.50504 
L 43.641171 28.18032 
L 44.005413 28.2738 
L 44.369655 28.569 
L 44.733897 28.55424 
L 45.09814 27.8802 
L 45.462382 28.03272 
L 45.826624 27.69324 
L 46.190866 28.42632 
L 46.555108 28.3968 
L 46.91935 28.60344 
L 47.283592 29.88756 
L 47.647834 30.22212 
L 48.012076 29.58252 
L 48.376318 31.73256 
L 48.74056 31.36356 
L 49.104802 31.39308 
L 49.833286 29.09544 
L 50.197528 29.2332 
L 50.56177 27.02412 
L 51.290254 25.16928 
L 51.654496 25.10532 
L 52.38298 23.92452 
L 52.747222 25.53336 
L 53.111464 24.62808 
L 53.475706 25.4448 
L 53.839948 29.64156 
L 54.20419 30.80268 
L 54.568432 28.65756 
L 54.932674 28.6428 
L 55.661158 30.87156 
L 56.0254 32.17044 
L 56.389643 32.97732 
L 56.753885 32.628 
L 57.118127 31.90476 
L 57.482369 30.92076 
L 57.846611 31.96872 
L 58.210853 32.39676 
L 58.575095 31.19628 
L 59.303579 30.42384 
L 59.667821 29.0118 
L 60.032063 29.15448 
L 60.396305 29.76456 
L 60.760547 31.2012 
L 61.124789 32.09172 
L 61.489031 31.43244 
L 62.217515 30.90108 
L 62.945999 35.35368 
L 63.310241 34.24668 
L 63.674483 35.5062 
L 64.038725 34.48284 
L 64.402967 35.02896 
L 64.767209 33.8334 
L 65.131451 33.243 
L 65.495693 34.69932 
L 66.224177 36.2934 
L 66.588419 38.901 
L 66.952661 38.37948 
L 67.316904 38.92068 
L 67.681146 40.09164 
L 68.045388 39.70788 
L 68.40963 40.4262 
L 68.773872 42.75336 
L 69.138114 43.54548 
L 69.502356 43.72752 
L 70.23084 41.976 
L 70.595082 42.42864 
L 70.959324 40.86408 
L 71.323566 40.47048 
L 72.416292 40.89852 
L 72.780534 42.9354 
L 73.144776 40.43604 
L 73.509018 39.31428 
L 73.87326 40.04244 
L 74.237502 41.43972 
L 74.601744 41.47416 
L 74.965986 41.02152 
L 75.330228 40.7952 
L 75.69447 39.75708 
L 76.058712 40.11132 
L 76.422954 39.87024 
L 76.787196 40.94772 
L 77.151438 40.97232 
L 77.879922 42.87144 
L 78.244164 42.17772 
L 78.608407 43.04364 
L 78.972649 43.34868 
L 79.336891 42.03504 
L 80.065375 41.8038 
L 80.429617 41.84316 
L 80.793859 42.37944 
L 81.158101 42.26628 
L 81.522343 42.468 
L 81.886585 42.42864 
L 82.250827 42.18264 
L 82.615069 42.1728 
L 82.979311 42.50244 
L 83.343553 41.88252 
L 83.707795 42.32532 
L 84.436279 41.13468 
L 85.164763 40.42128 
L 85.529005 39.16176 
L 85.893247 39.28968 
L 86.257489 40.48032 
L 87.350215 40.88376 
L 88.078699 40.53936 
L 88.442941 38.50248 
L 88.807183 37.63656 
L 89.171425 38.34012 
L 89.535667 38.37456 
L 89.89991 38.5812 
L 90.628394 39.8358 
L 90.992636 41.93172 
L 91.356878 41.42004 
L 92.085362 41.39052 
L 92.449604 41.5086 
L 92.813846 42.80256 
L 93.178088 41.93664 
L 93.54233 41.49384 
L 93.906572 41.51352 
L 94.270814 43.78164 
L 94.635056 43.9932 
L 94.999298 46.66968 
L 95.36354 47.55036 
L 95.727782 46.64508 
L 96.324743 48.89352 
L 96.688799 49.84308 
L 97.051481 49.00176 
L 97.42405 49.233 
L 97.785286 48.97716 
L 98.515094 49.36092 
L 99.242157 49.58724 
L 99.602019 49.28712 
L 99.947041 49.16904 
L 100.334647 49.39044 
L 100.653135 49.29696 
L 101.426353 49.55772 
L 102.518885 49.41996 
L 102.884223 49.8234 
L 103.217694 49.86768 
L 103.611396 49.72992 
L 103.974015 49.39536 
L 104.697516 49.6758 
L 105.070034 49.47408 
L 105.430515 49.60692 
L 105.795605 49.37568 
L 106.157806 49.36584 
L 106.522832 48.6672 
L 107.616128 49.54788 
L 107.981462 49.5282 
L 108.343364 49.09032 
L 109.073138 49.2084 
L 109.436676 48.93288 
L 110.171644 48.89844 
L 110.894782 48.1998 
L 111.261803 48.28344 
L 111.626146 48.88368 
L 111.986842 49.04604 
L 112.348951 49.00176 
L 113.083738 49.38552 
L 113.444607 49.04112 
L 113.835978 48.92796 
L 114.177522 48.987 
L 114.902983 49.66104 
L 116.366781 49.40028 
L 116.726226 49.56756 
L 117.452007 49.56264 
L 117.821734 49.53312 
L 118.186916 49.25268 
L 118.548793 49.29696 
L 118.913626 48.89352 
L 119.276599 48.96732 
L 120.002865 48.5934 
L 120.373642 48.84432 
L 120.739751 48.95748 
L 121.101675 48.30804 
L 121.465638 48.34248 
L 121.831457 48.21456 
L 122.194957 48.26376 
L 122.555182 47.41752 
L 122.924234 48.05712 
L 123.289378 48.26376 
L 123.652022 48.01776 
L 124.015134 47.23548 
L 125.105955 47.1666 
L 125.475863 47.31912 
L 125.84403 46.49256 
L 126.209035 47.64876 
L 126.572282 47.5356 
L 126.937136 48.0276 
L 127.660303 46.81728 
L 128.03194 46.92552 
L 128.396056 45.85788 
L 129.122933 45.29208 
L 129.487272 45.58728 
L 129.845452 46.2564 
L 130.211026 45.7152 
L 131.674883 45.42492 
L 132.03872 46.38432 
L 132.404758 45.57744 
L 132.76435 46.51716 
L 133.50181 47.54544 
L 134.228987 47.66844 
L 134.595303 47.05344 
L 134.956754 47.22564 
L 135.315992 48.07188 
L 136.055037 47.37324 
L 136.781742 48.07188 
L 137.14482 48.59832 
L 137.509332 48.52452 
L 137.868321 48.5688 
L 138.24 48.38676 
L 138.24 48.38676 
" clip-path="url(#p5c154b3946)" style="fill: none; stroke: #f5841e; stroke-width: 0.7; stroke-linecap: round"/>
   </g>
  </g>
 </g>
 <defs>
  <clipPath id="p5c154b3946">
   <rect x="5.76" y="3.6" width="132.48" height="49.2"/>
  </clipPath>
 </defs>
</svg>
