<?xml version="1.0" encoding="utf-8" standalone="no"?>
<!DOCTYPE svg PUBLIC "-//W3C//DTD SVG 1.1//EN"
  "http://www.w3.org/Graphics/SVG/1.1/DTD/svg11.dtd">
<svg xmlns:xlink="http://www.w3.org/1999/xlink" width="144pt" height="60pt" viewBox="0 0 144 60" xmlns="http://www.w3.org/2000/svg" version="1.1">
  <desc id="nav-meta">{"window":"2w","count":4,"labels":["11.06","16.06","20.06","25.06"],"tick_utc":["2026-06-11T05:14:13Z","2026-06-16T06:15:52Z","2026-06-20T04:59:26Z","2026-06-25T04:50:14Z"]}</desc>

 <metadata>
  <rdf:RDF xmlns:dc="http://purl.org/dc/elements/1.1/" xmlns:cc="http://creativecommons.org/ns#" xmlns:rdf="http://www.w3.org/1999/02/22-rdf-syntax-ns#">
   <cc:Work>
    <dc:type rdf:resource="http://purl.org/dc/dcmitype/StillImage"/>
    <dc:date>2026-06-25T04:50:15.533017</dc:date>
    <dc:format>image/svg+xml</dc:format>
    <dc:creator>
     <cc:Agent>
      <dc:title>Matplotlib v3.11.0, https://matplotlib.org/</dc:title>
     </cc:Agent>
    </dc:creator>
   </cc:Work>
  </rdf:RDF>
 </metadata>
 <defs>
  <style type="text/css">*{stroke-linejoin: round; stroke-linecap: butt}</style>
 </defs>
 <g id="figure_1">
  <g id="patch_1">
   <path d="M 0 60 
L 144 60 
L 144 0 
L 0 0 
L 0 60 
z
" style="fill: none; opacity: 0"/>
  </g>
  <g id="axes_1">
   <g id="patch_2">
    <path d="M 5.76 52.8 
L 138.24 52.8 
L 138.24 3.6 
L 5.76 3.6 
L 5.76 52.8 
z
" style="fill: none"/>
   </g>
   <g id="matplotlib.axis_1"/>
   <g id="matplotlib.axis_2"/>
   <g id="line2d_1">
    <path d="M 5.76 42.96 
L 138.24 42.96 
" clip-path="url(#p18e4e5a51f)" style="fill: none; stroke: #b2b2b2; stroke-opacity: 0.35; stroke-width: 0.5; stroke-linecap: square"/>
   </g>
   <g id="line2d_2">
    <path d="M 5.76 33.12 
L 138.24 33.12 
" clip-path="url(#p18e4e5a51f)" style="fill: none; stroke: #b2b2b2; stroke-opacity: 0.35; stroke-width: 0.5; stroke-linecap: square"/>
   </g>
   <g id="line2d_3">
    <path d="M 5.76 23.28 
L 138.24 23.28 
" clip-path="url(#p18e4e5a51f)" style="fill: none; stroke: #b2b2b2; stroke-opacity: 0.35; stroke-width: 0.5; stroke-linecap: square"/>
   </g>
   <g id="line2d_4">
    <path d="M 5.76 13.44 
L 138.24 13.44 
" clip-path="url(#p18e4e5a51f)" style="fill: none; stroke: #b2b2b2; stroke-opacity: 0.35; stroke-width: 0.5; stroke-linecap: square"/>
   </g>
   <g id="line2d_5">
    <path d="M 5.76 50.76312 
L 15.271301 50.65488 
L 24.676127 50.6598 
L 34.219009 50.56632 
L 44.008064 50.39412 
L 53.536251 50.23176 
L 62.708611 50.2416 
L 72.137342 50.4138 
L 81.834616 50.55156 
L 90.929889 50.42364 
L 100.601175 50.27112 
L 110.352619 50.217 
L 119.260383 50.35968 
L 128.768394 50.49252 
L 138.24 50.59092 
" clip-path="url(#p18e4e5a51f)" style="fill: none; stroke: #bebebe; stroke-width: 0.6; stroke-linecap: round"/>
   </g>
   <g id="line2d_6">
    <path d="M 5.76 46.65492 
L 15.271301 46.51716 
L 24.676127 46.5516 
L 34.219009 46.46304 
L 44.008064 46.14816 
L 53.536251 45.84312 
L 62.708611 45.6414 
L 72.137342 46.09404 
L 81.834616 46.3302 
L 90.929889 46.21704 
L 100.601175 46.06452 
L 110.352619 46.035 
L 119.260383 46.14324 
L 128.768394 46.52208 
L 138.24 46.83204 
" clip-path="url(#p18e4e5a51f)" style="fill: none; stroke: #4a8dff; stroke-width: 0.6; stroke-linecap: round"/>
   </g>
   <g id="line2d_7">
    <path d="M 5.76 50.07924 
L 15.271301 49.98084 
L 24.676127 49.971 
L 34.219009 49.87752 
L 44.008064 49.69548 
L 53.536251 49.65612 
L 62.708611 49.7004 
L 72.137342 49.92672 
L 81.834616 50.06448 
L 90.929889 49.971 
L 100.601175 49.89228 
L 110.352619 49.89228 
L 119.260383 49.9464 
L 128.768394 50.05956 
L 138.24 50.2416 
" clip-path="url(#p18e4e5a51f)" style="fill: none; stroke: #f5841e; stroke-width: 0.7; stroke-linecap: round"/>
   </g>
  </g>
 </g>
 <defs>
  <clipPath id="p18e4e5a51f">
   <rect x="5.76" y="3.6" width="132.48" height="49.2"/>
  </clipPath>
 </defs>
</svg>
