<?xml version="1.0" encoding="utf-8" standalone="no"?>
<!DOCTYPE svg PUBLIC "-//W3C//DTD SVG 1.1//EN"
  "http://www.w3.org/Graphics/SVG/1.1/DTD/svg11.dtd">
<svg xmlns:xlink="http://www.w3.org/1999/xlink" width="144pt" height="60pt" viewBox="0 0 144 60" xmlns="http://www.w3.org/2000/svg" version="1.1">
  <desc id="nav-meta">{"window":"6m","count":4,"labels":["24.01","25.03","24.05","23.07"],"tick_utc":["2026-01-24T12:00:00Z","2026-03-25T05:09:13Z","2026-05-24T04:51:26Z","2026-07-23T03:58:20Z"]}</desc>

 <metadata>
  <rdf:RDF xmlns:dc="http://purl.org/dc/elements/1.1/" xmlns:cc="http://creativecommons.org/ns#" xmlns:rdf="http://www.w3.org/1999/02/22-rdf-syntax-ns#">
   <cc:Work>
    <dc:type rdf:resource="http://purl.org/dc/dcmitype/StillImage"/>
    <dc:date>2026-07-23T03:58:22.093458</dc:date>
    <dc:format>image/svg+xml</dc:format>
    <dc:creator>
     <cc:Agent>
      <dc:title>Matplotlib v3.11.1, https://matplotlib.org/</dc:title>
     </cc:Agent>
    </dc:creator>
   </cc:Work>
  </rdf:RDF>
 </metadata>
 <defs>
  <style type="text/css">*{stroke-linejoin: round; stroke-linecap: butt}</style>
 </defs>
 <g id="figure_1">
  <g id="patch_1">
   <path d="M 0 60 
L 144 60 
L 144 0 
L 0 0 
L 0 60 
z
" style="fill: none; opacity: 0"/>
  </g>
  <g id="axes_1">
   <g id="patch_2">
    <path d="M 5.76 52.8 
L 138.24 52.8 
L 138.24 3.6 
L 5.76 3.6 
L 5.76 52.8 
z
" style="fill: none"/>
   </g>
   <g id="matplotlib.axis_1"/>
   <g id="matplotlib.axis_2"/>
   <g id="line2d_1">
    <path d="M 5.76 42.96 
L 138.24 42.96 
" clip-path="url(#pc1bc898929)" style="fill: none; stroke: #b2b2b2; stroke-opacity: 0.35; stroke-width: 0.5; stroke-linecap: square"/>
   </g>
   <g id="line2d_2">
    <path d="M 5.76 33.12 
L 138.24 33.12 
" clip-path="url(#pc1bc898929)" style="fill: none; stroke: #b2b2b2; stroke-opacity: 0.35; stroke-width: 0.5; stroke-linecap: square"/>
   </g>
   <g id="line2d_3">
    <path d="M 5.76 23.28 
L 138.24 23.28 
" clip-path="url(#pc1bc898929)" style="fill: none; stroke: #b2b2b2; stroke-opacity: 0.35; stroke-width: 0.5; stroke-linecap: square"/>
   </g>
   <g id="line2d_4">
    <path d="M 5.76 13.44 
L 138.24 13.44 
" clip-path="url(#pc1bc898929)" style="fill: none; stroke: #b2b2b2; stroke-opacity: 0.35; stroke-width: 0.5; stroke-linecap: square"/>
   </g>
   <g id="line2d_5">
    <path d="M 5.76 45.04608 
L 6.49737 45.07068 
L 7.23474 46.1334 
L 7.972111 45.4446 
L 8.709481 45.06084 
L 9.446851 45.33144 
L 10.184221 46.30068 
L 10.921592 46.34496 
L 11.658962 47.89476 
L 12.396332 48.26376 
L 13.133702 47.96364 
L 14.342187 49.06572 
L 15.079182 50.04972 
L 15.813395 49.24776 
L 18.776326 49.59708 
L 19.511042 49.80372 
L 20.24819 49.86768 
L 20.976693 49.479 
L 21.675155 49.24776 
L 22.459823 49.48392 
L 23.10457 49.37568 
L 23.933394 49.479 
L 24.669868 49.7004 
L 26.881587 49.49376 
L 27.621176 49.98576 
L 28.296254 49.96608 
L 29.093262 49.7004 
L 29.827347 49.27236 
L 30.563317 49.37076 
L 31.291999 49.68072 
L 32.046123 49.25268 
L 32.77588 49.51344 
L 34.987163 49.09032 
L 37.200426 49.64628 
L 37.940007 49.58724 
L 38.67264 49.36092 
L 40.149992 49.45932 
L 40.885937 49.16904 
L 42.373804 49.27236 
L 43.113256 48.87384 
L 44.580717 48.70164 
L 45.318292 49.03128 
L 46.048485 49.1592 
L 46.781537 49.08048 
L 48.269036 49.36584 
L 49.791868 48.90828 
L 50.483289 49.05096 
L 51.95191 49.64628 
L 54.915217 49.59708 
L 55.642875 49.8726 
L 57.112145 49.80864 
L 59.332474 49.83816 
L 60.071039 49.50852 
L 60.805841 49.68564 
L 62.276092 49.48884 
L 63.026691 49.6512 
L 63.767842 49.69056 
L 64.500518 49.40028 
L 65.237325 49.58724 
L 67.442992 49.19856 
L 68.1901 49.43472 
L 68.929297 49.50852 
L 72.606769 49.37568 
L 73.355609 49.4052 
L 74.100925 49.29204 
L 74.83984 49.5528 
L 75.575196 49.50852 
L 76.313804 49.64136 
L 77.777782 49.56264 
L 78.530122 49.57248 
L 79.267236 49.42488 
L 79.988365 49.49376 
L 81.476291 49.25268 
L 82.201389 49.24284 
L 82.941456 48.80004 
L 83.693685 48.85416 
L 85.164005 48.63276 
L 85.904883 48.66228 
L 86.641433 49.09524 
L 87.382439 48.99192 
L 88.858776 49.34616 
L 89.603306 49.47408 
L 91.075401 49.54788 
L 91.81697 49.3314 
L 92.548691 49.34616 
L 93.275931 49.51836 
L 94.77205 49.41504 
L 96.978204 49.7742 
L 99.195281 49.61676 
L 100.673675 49.7988 
L 101.41934 50.19732 
L 102.154184 50.45808 
L 102.87941 50.59092 
L 103.605447 50.99928 
L 105.099296 50.74344 
L 105.822593 50.62536 
L 106.56761 50.80248 
L 109.524268 50.56632 
L 111.027727 50.23176 
L 111.74161 50.2416 
L 113.230185 50.55156 
L 115.449738 50.217 
L 117.620209 50.59092 
L 118.36136 50.59092 
L 119.089693 50.33016 
L 119.841119 50.4384 
L 120.583823 50.3892 
L 124.243057 49.6266 
L 124.991223 49.7742 
L 126.462047 49.76436 
L 127.9391 49.98084 
L 128.674806 49.8972 
L 131.598103 50.15796 
L 132.335661 49.98084 
L 134.546091 50.1432 
L 138.24 49.99068 
L 138.24 49.99068 
" clip-path="url(#pc1bc898929)" style="fill: none; stroke: #bebebe; stroke-width: 0.6; stroke-linecap: round"/>
   </g>
   <g id="line2d_6">
    <path d="M 5.76 37.44468 
L 6.49737 37.45944 
L 7.23474 38.41392 
L 8.709481 36.95268 
L 9.446851 37.05108 
L 10.184221 38.37948 
L 10.921592 39.20604 
L 11.658962 41.03136 
L 12.396332 42.26628 
L 13.133702 41.73492 
L 13.756208 42.23676 
L 15.079182 44.89356 
L 15.813395 43.6242 
L 17.298906 43.53072 
L 18.040483 43.72752 
L 19.511042 44.436 
L 20.24819 44.49012 
L 20.976693 43.81608 
L 21.675155 43.7226 
L 22.459823 44.5344 
L 23.10457 44.19 
L 23.933394 44.21952 
L 25.402929 44.51472 
L 26.881587 44.3868 
L 27.621176 45.174 
L 28.296254 45.23796 
L 29.093262 44.81484 
L 29.827347 43.821 
L 30.563317 44.01288 
L 31.291999 44.66232 
L 32.046123 43.93908 
L 32.77588 44.39664 
L 33.514966 44.12112 
L 34.248205 44.33268 
L 34.987163 43.3044 
L 35.724183 43.6242 
L 36.455895 44.29824 
L 37.200426 44.53932 
L 37.940007 44.30808 
L 38.67264 43.8702 
L 39.40972 44.00304 
L 40.149992 43.97844 
L 40.885937 43.41756 
L 42.373804 43.48644 
L 43.113256 42.49752 
L 43.837722 41.73984 
L 44.580717 41.7546 
L 45.318292 42.591 
L 46.048485 43.14204 
L 46.781537 43.083 
L 47.529933 43.35852 
L 48.269036 43.78164 
L 48.999579 43.21584 
L 49.791868 42.9354 
L 50.483289 43.10268 
L 51.95191 44.25396 
L 54.171523 43.74228 
L 54.915217 43.46676 
L 56.38109 43.79148 
L 57.860618 43.77672 
L 58.599892 43.2552 
L 59.332474 43.40772 
L 60.071039 42.49752 
L 60.805841 42.90588 
L 61.549996 42.8616 
L 62.276092 42.41388 
L 63.767842 42.79764 
L 64.500518 41.57256 
L 65.237325 41.86284 
L 65.977887 41.63652 
L 66.713755 41.85792 
L 67.442992 41.22324 
L 68.1901 41.76936 
L 68.929297 42.1482 
L 69.663432 41.96616 
L 70.398515 41.59224 
L 71.878197 41.99076 
L 72.606769 41.91696 
L 73.355609 41.98584 
L 74.100925 41.41512 
L 74.83984 42.15312 
L 75.575196 41.96124 
L 76.313804 42.43848 
L 77.777782 42.02028 
L 78.530122 42.0252 
L 79.267236 41.40528 
L 80.738725 41.52336 
L 82.201389 42.1974 
L 82.941456 41.8776 
L 84.436876 41.8038 
L 85.164005 41.976 
L 85.904883 42.00552 
L 86.641433 42.3942 
L 87.382439 42.27612 
L 88.858776 42.85176 
L 89.603306 43.31424 
L 90.335394 43.2306 
L 91.075401 43.39296 
L 91.81697 43.16172 
L 92.548691 43.24536 
L 93.275931 43.71768 
L 94.024976 43.33392 
L 96.243189 43.67832 
L 96.978204 44.32776 
L 97.71612 44.13588 
L 98.442856 44.16048 
L 99.195281 43.96368 
L 99.943558 44.2392 
L 100.673675 44.19984 
L 101.41934 45.16908 
L 102.154184 45.67584 
L 102.87941 46.00548 
L 103.605447 47.57004 
L 105.099296 46.64016 
L 105.822593 46.34496 
L 106.56761 46.82712 
L 108.04957 46.51716 
L 108.781547 46.5516 
L 109.524268 46.46304 
L 111.74161 45.6414 
L 112.475447 46.09404 
L 113.230185 46.3302 
L 115.449738 46.035 
L 116.143028 46.14324 
L 118.36136 47.38308 
L 119.089693 47.14692 
L 120.583823 47.22072 
L 122.779514 46.79268 
L 123.508862 46.27608 
L 124.243057 45.92184 
L 125.735737 45.75456 
L 127.9391 46.02024 
L 129.390405 45.61188 
L 130.138802 45.51348 
L 130.877785 45.72504 
L 131.598103 45.72996 
L 132.335661 45.08052 
L 133.074875 44.76564 
L 133.812365 45.23796 
L 134.546091 45.29208 
L 135.294547 45.1248 
L 136.04192 45.08544 
L 136.765848 44.69676 
L 138.24 44.74596 
L 138.24 44.74596 
" clip-path="url(#pc1bc898929)" style="fill: none; stroke: #4a8dff; stroke-width: 0.6; stroke-linecap: round"/>
   </g>
   <g id="line2d_7">
    <path d="M 5.76 41.39052 
L 6.49737 41.5086 
L 7.23474 42.80256 
L 7.972111 41.93664 
L 8.709481 41.49384 
L 9.446851 41.51352 
L 10.184221 43.78164 
L 10.921592 43.9932 
L 11.658962 46.66968 
L 12.396332 47.55036 
L 13.133702 46.64508 
L 14.342187 48.89352 
L 15.079182 49.84308 
L 15.813395 49.00176 
L 16.56762 49.233 
L 17.298906 48.97716 
L 18.776326 49.36092 
L 20.24819 49.58724 
L 20.976693 49.28712 
L 21.675155 49.16904 
L 22.459823 49.39044 
L 23.10457 49.29696 
L 24.669868 49.55772 
L 26.881587 49.41996 
L 27.621176 49.8234 
L 28.296254 49.86768 
L 29.093262 49.72992 
L 29.827347 49.39536 
L 31.291999 49.6758 
L 32.046123 49.47408 
L 32.77588 49.60692 
L 33.514966 49.37568 
L 34.248205 49.36584 
L 34.987163 48.6672 
L 35.724183 48.95256 
L 36.455895 49.36092 
L 37.200426 49.54788 
L 37.940007 49.5282 
L 38.67264 49.09032 
L 40.149992 49.2084 
L 40.885937 48.93288 
L 42.373804 48.89844 
L 43.113256 48.48024 
L 43.837722 48.1998 
L 44.580717 48.28344 
L 45.318292 48.88368 
L 46.048485 49.04604 
L 46.781537 49.00176 
L 48.269036 49.38552 
L 48.999579 49.04112 
L 49.791868 48.92796 
L 50.483289 48.987 
L 51.95191 49.66104 
L 54.915217 49.40028 
L 55.642875 49.56756 
L 57.112145 49.56264 
L 57.860618 49.53312 
L 58.599892 49.25268 
L 59.332474 49.29696 
L 60.071039 48.89352 
L 60.805841 48.96732 
L 62.276092 48.5934 
L 63.026691 48.84432 
L 63.767842 48.95748 
L 64.500518 48.30804 
L 65.237325 48.34248 
L 65.977887 48.21456 
L 66.713755 48.26376 
L 67.442992 47.41752 
L 68.1901 48.05712 
L 68.929297 48.26376 
L 69.663432 48.01776 
L 70.398515 47.23548 
L 72.606769 47.1666 
L 73.355609 47.31912 
L 74.100925 46.49256 
L 74.83984 47.64876 
L 75.575196 47.5356 
L 76.313804 48.0276 
L 77.05923 47.50608 
L 77.777782 46.81728 
L 78.530122 46.92552 
L 79.267236 45.85788 
L 80.738725 45.29208 
L 81.476291 45.58728 
L 82.201389 46.2564 
L 82.941456 45.7152 
L 85.904883 45.42492 
L 86.641433 46.38432 
L 87.382439 45.57744 
L 88.110396 46.51716 
L 88.858776 46.95996 
L 89.603306 47.54544 
L 91.075401 47.66844 
L 91.81697 47.05344 
L 92.548691 47.22564 
L 93.275931 48.07188 
L 94.77205 47.37324 
L 96.243189 48.07188 
L 96.978204 48.59832 
L 97.71612 48.52452 
L 98.442856 48.5688 
L 99.195281 48.38676 
L 99.943558 48.55404 
L 102.154184 49.93656 
L 102.87941 49.98084 
L 103.605447 50.3646 
L 104.358665 50.15796 
L 105.822593 49.99068 
L 106.56761 50.217 
L 108.04957 49.98084 
L 109.524268 49.87752 
L 110.286149 49.69548 
L 111.74161 49.7004 
L 113.230185 50.06448 
L 114.690784 49.89228 
L 116.143028 49.9464 
L 119.089693 50.31048 
L 122.055056 50.41872 
L 124.243057 50.0694 
L 127.179378 50.05956 
L 127.9391 50.11368 
L 128.674806 49.91196 
L 130.138802 49.8972 
L 131.598103 50.08908 
L 132.335661 49.84308 
L 133.074875 49.85292 
L 133.812365 49.97592 
L 138.24 49.725 
L 138.24 49.725 
" clip-path="url(#pc1bc898929)" style="fill: none; stroke: #f5841e; stroke-width: 0.7; stroke-linecap: round"/>
   </g>
  </g>
 </g>
 <defs>
  <clipPath id="pc1bc898929">
   <rect x="5.76" y="3.6" width="132.48" height="49.2"/>
  </clipPath>
 </defs>
</svg>
