<?xml version="1.0" encoding="utf-8" standalone="no"?>
<!DOCTYPE svg PUBLIC "-//W3C//DTD SVG 1.1//EN"
  "http://www.w3.org/Graphics/SVG/1.1/DTD/svg11.dtd">
<svg xmlns:xlink="http://www.w3.org/1999/xlink" width="144pt" height="60pt" viewBox="0 0 144 60" xmlns="http://www.w3.org/2000/svg" version="1.1">
  <desc id="nav-meta">{"window":"6m","count":4,"labels":["5 Jan","13 Jan","21 Jan","25 Jan"],"idxs":[0,59,119,178]}</desc>

 <metadata>
  <rdf:RDF xmlns:dc="http://purl.org/dc/elements/1.1/" xmlns:cc="http://creativecommons.org/ns#" xmlns:rdf="http://www.w3.org/1999/02/22-rdf-syntax-ns#">
   <cc:Work>
    <dc:type rdf:resource="http://purl.org/dc/dcmitype/StillImage"/>
    <dc:date>2026-01-25T04:06:29.089393</dc:date>
    <dc:format>image/svg+xml</dc:format>
    <dc:creator>
     <cc:Agent>
      <dc:title>Matplotlib v3.10.8, https://matplotlib.org/</dc:title>
     </cc:Agent>
    </dc:creator>
   </cc:Work>
  </rdf:RDF>
 </metadata>
 <defs>
  <style type="text/css">*{stroke-linejoin: round; stroke-linecap: butt}</style>
 </defs>
 <g id="figure_1">
  <g id="patch_1">
   <path d="M 0 60 
L 144 60 
L 144 0 
L 0 0 
L 0 60 
z
" style="fill: none; opacity: 0"/>
  </g>
  <g id="axes_1">
   <g id="patch_2">
    <path d="M 5.76 52.8 
L 138.24 52.8 
L 138.24 3.6 
L 5.76 3.6 
L 5.76 52.8 
z
" style="fill: none"/>
   </g>
   <g id="matplotlib.axis_1"/>
   <g id="matplotlib.axis_2"/>
   <g id="line2d_1">
    <path d="M 5.76 42.96 
L 138.24 42.96 
" clip-path="url(#p1ab6d6d0c9)" style="fill: none; stroke: #b2b2b2; stroke-opacity: 0.35; stroke-width: 0.5; stroke-linecap: square"/>
   </g>
   <g id="line2d_2">
    <path d="M 5.76 33.12 
L 138.24 33.12 
" clip-path="url(#p1ab6d6d0c9)" style="fill: none; stroke: #b2b2b2; stroke-opacity: 0.35; stroke-width: 0.5; stroke-linecap: square"/>
   </g>
   <g id="line2d_3">
    <path d="M 5.76 23.28 
L 138.24 23.28 
" clip-path="url(#p1ab6d6d0c9)" style="fill: none; stroke: #b2b2b2; stroke-opacity: 0.35; stroke-width: 0.5; stroke-linecap: square"/>
   </g>
   <g id="line2d_4">
    <path d="M 5.76 13.44 
L 138.24 13.44 
" clip-path="url(#p1ab6d6d0c9)" style="fill: none; stroke: #b2b2b2; stroke-opacity: 0.35; stroke-width: 0.5; stroke-linecap: square"/>
   </g>
   <g id="line2d_5">
    <path d="M 6.130056 38.29584 
L 9.630836 38.21712 
L 9.999339 38.121782 
L 10.736346 37.79892 
L 11.473352 37.881026 
L 12.210358 38.17284 
L 14.421378 38.239552 
L 15.158384 38.46312 
L 16.263893 38.360935 
L 17.0009 38.31552 
L 17.369403 38.36494 
L 18.290661 38.5812 
L 19.027667 38.472065 
L 19.764674 38.32536 
L 20.317428 38.389471 
L 21.054435 38.7042 
L 22.344196 38.601486 
L 23.633957 38.434254 
L 24.186712 38.34996 
L 24.923718 38.239745 
L 25.660725 38.06952 
L 26.581983 38.169269 
L 27.318989 38.22696 
L 27.871744 38.308405 
L 28.60875 38.44344 
L 29.530008 38.528408 
L 30.267014 38.5812 
L 38.005581 38.509884 
L 38.926839 38.27616 
L 42.059116 38.183127 
L 42.796123 38.1138 
L 43.348877 38.010322 
L 44.085884 37.75464 
L 44.82289 37.837213 
L 45.559897 38.04984 
L 46.481155 38.126633 
L 47.402412 38.19744 
L 47.770916 38.103004 
L 48.507922 37.83828 
L 49.42918 37.761487 
L 50.166186 37.68576 
L 52.008702 37.60212 
L 53.298463 37.4496 
L 55.140979 37.351881 
L 57.351998 37.1298 
L 58.089005 37.205148 
L 58.826011 37.4988 
L 59.931521 37.392996 
L 60.668527 37.34628 
L 62.511043 37.437001 
L 63.248049 37.85304 
L 64.906314 37.777423 
L 65.64332 37.671 
L 66.380326 37.582894 
L 67.117333 37.45452 
L 73.75039 37.560799 
L 74.487396 37.68576 
L 80.014944 37.74972 
L 80.199196 37.83411 
L 80.936202 38.8272 
L 83.699976 38.735516 
L 84.436982 38.70912 
L 85.173989 38.835072 
L 86.46375 39.162916 
L 86.832253 39.41268 
L 87.937763 39.502052 
L 88.674769 39.57996 
L 93.833814 39.48628 
L 94.386568 39.3438 
L 95.307826 39.263869 
L 96.044833 39.18144 
L 96.966091 39.275188 
L 97.703097 39.30936 
L 101.203877 39.390433 
L 101.940884 39.52092 
L 125.156584 39.60809 
L 125.893591 39.64392 
L 127.367603 39.743524 
L 128.288861 39.76692 
L 129.578622 39.672786 
L 130.49988 39.64884 
L 137.869944 39.62424 
L 137.869944 39.62424 
" clip-path="url(#p1ab6d6d0c9)" style="fill: none; stroke: #bebebe; stroke-width: 0.6; stroke-linecap: round"/>
   </g>
   <g id="line2d_6">
    <path d="M 6.130056 32.44596 
L 9.262333 32.429521 
L 9.999339 32.13108 
L 10.736346 32.185028 
L 11.657604 32.37216 
L 13.868623 32.445114 
L 14.421378 32.63784 
L 16.448145 32.73624 
L 17.553655 33.10524 
L 19.948925 33.193422 
L 20.50168 33.28236 
L 21.054435 33.332702 
L 21.791441 33.5874 
L 22.712699 33.477646 
L 23.449706 33.3168 
L 26.766234 33.42504 
L 29.530008 33.56772 
L 31.004021 33.46698 
L 33.399291 33.43488 
L 37.084323 33.35499 
L 39.295342 33.294333 
L 40.400852 33.202615 
L 40.953607 33.001163 
L 41.874865 33.25776 
L 47.402412 33.165113 
L 48.32367 33.13915 
L 49.981935 32.974705 
L 50.718941 32.64276 
L 51.271696 32.64276 
L 52.008702 31.728149 
L 53.298463 31.760986 
L 54.772476 31.773282 
L 55.877986 31.705792 
L 56.614992 31.46688 
L 57.351998 31.565308 
L 58.089005 31.9392 
L 58.826011 31.856544 
L 59.563018 31.52592 
L 60.852779 31.636734 
L 61.958288 32.084798 
L 63.248049 32.067154 
L 63.985056 31.929105 
L 65.090565 32.04744 
L 70.24961 31.956767 
L 71.723623 31.887447 
L 73.197635 31.880607 
L 75.777158 31.861664 
L 78.172428 31.68336 
L 78.725183 31.761433 
L 79.462189 32.586968 
L 81.304705 32.594936 
L 83.331473 32.56896 
L 84.068479 32.656364 
L 84.805486 32.85432 
L 85.35824 32.882257 
L 86.095247 33.42504 
L 86.832253 33.444596 
L 87.56926 33.9072 
L 88.674769 33.98283 
L 89.596027 34.04988 
L 90.333033 34.156042 
L 91.07004 34.18764 
L 94.202317 34.17288 
L 95.123575 33.84816 
L 96.229084 33.935192 
L 96.966091 33.96624 
L 98.992858 34.071094 
L 99.914116 34.13352 
L 100.282619 34.201953 
L 101.019626 34.45332 
L 122.761314 34.345266 
L 123.866823 34.330251 
L 124.788081 34.55664 
L 129.947126 34.467674 
L 131.236887 34.372371 
L 133.079403 34.323343 
L 137.869944 34.43856 
L 137.869944 34.43856 
" clip-path="url(#p1ab6d6d0c9)" style="fill: none; stroke: #4a8dff; stroke-width: 0.7; stroke-linecap: round"/>
   </g>
   <g id="line2d_7">
    <path d="M 6.130056 37.0806 
L 8.525327 37.176585 
L 9.262333 37.273003 
L 10.183591 37.14456 
L 10.552094 37.14456 
L 11.473352 37.71528 
L 13.684371 37.732964 
L 14.421378 38.0646 
L 15.526887 37.97893 
L 16.263893 37.9416 
L 16.632397 38.019274 
L 17.369403 38.34996 
L 19.580422 38.43062 
L 20.317428 38.76816 
L 22.528448 38.763054 
L 23.265454 38.36472 
L 25.660725 38.47157 
L 26.397731 38.655 
L 31.004021 38.546347 
L 32.478034 38.544792 
L 35.057556 38.549045 
L 36.531569 38.467283 
L 40.400852 38.33615 
L 40.953607 37.941359 
L 41.690613 38.47788 
L 43.901632 38.424138 
L 44.82289 38.163 
L 47.033909 38.130039 
L 47.770916 37.87764 
L 49.797683 37.807446 
L 50.53469 36.871669 
L 51.455947 36.788091 
L 52.192954 36.53448 
L 54.403973 36.516424 
L 55.140979 36.08184 
L 55.877986 35.970916 
L 56.614992 35.57016 
L 57.167747 35.57016 
L 58.089005 36.12612 
L 58.826011 36.055272 
L 59.563018 35.77188 
L 60.300024 35.839755 
L 61.958288 36.564667 
L 63.432301 36.477766 
L 63.985056 36.407496 
L 64.906314 36.60336 
L 70.24961 36.496132 
L 71.355119 36.469398 
L 77.25117 36.611342 
L 78.540932 36.50004 
L 78.725183 36.595605 
L 79.462189 37.593188 
L 80.751951 37.49388 
L 84.068479 37.587532 
L 84.805486 37.87764 
L 85.35824 37.902206 
L 86.095247 38.37948 
L 87.016505 38.4507 
L 87.753511 38.62548 
L 88.490517 38.707083 
L 89.227524 38.91576 
L 90.333033 39.006756 
L 91.438543 39.05855 
L 92.728304 39.125324 
L 93.649562 38.84196 
L 94.755072 38.750269 
L 95.492078 38.71896 
L 100.098368 38.78292 
L 101.203877 39.147 
L 106.547173 39.063394 
L 107.28418 39.01908 
L 107.836935 38.948659 
L 108.758193 38.8518 
L 110.047954 38.950331 
L 110.969212 39.02892 
L 122.577062 38.933176 
L 123.49832 38.82228 
L 124.051075 38.917687 
L 124.788081 39.11256 
L 126.446345 39.202599 
L 127.367603 39.2454 
L 127.920358 39.094772 
L 128.473113 39.000184 
L 129.762874 39.05458 
L 132.158145 38.88132 
L 134.553415 38.991232 
L 135.843177 39.041561 
L 137.869944 39.2208 
L 137.869944 39.2208 
" clip-path="url(#p1ab6d6d0c9)" style="fill: none; stroke: #f5841e; stroke-width: 0.8; stroke-linecap: round"/>
   </g>
  </g>
 </g>
 <defs>
  <clipPath id="p1ab6d6d0c9">
   <rect x="5.76" y="3.6" width="132.48" height="49.2"/>
  </clipPath>
 </defs>
</svg>
