<?xml version="1.0" encoding="utf-8" standalone="no"?>
<!DOCTYPE svg PUBLIC "-//W3C//DTD SVG 1.1//EN"
  "http://www.w3.org/Graphics/SVG/1.1/DTD/svg11.dtd">
<svg xmlns:xlink="http://www.w3.org/1999/xlink" width="144pt" height="60pt" viewBox="0 0 144 60" xmlns="http://www.w3.org/2000/svg" version="1.1">
  <desc id="nav-meta">{"window":"2w","count":4,"labels":["01.07","06.07","10.07","15.07"],"tick_utc":["2026-07-01T05:10:59Z","2026-07-06T04:58:56Z","2026-07-10T04:38:36Z","2026-07-15T03:47:50Z"]}</desc>

 <metadata>
  <rdf:RDF xmlns:dc="http://purl.org/dc/elements/1.1/" xmlns:cc="http://creativecommons.org/ns#" xmlns:rdf="http://www.w3.org/1999/02/22-rdf-syntax-ns#">
   <cc:Work>
    <dc:type rdf:resource="http://purl.org/dc/dcmitype/StillImage"/>
    <dc:date>2026-07-15T03:47:51.424439</dc:date>
    <dc:format>image/svg+xml</dc:format>
    <dc:creator>
     <cc:Agent>
      <dc:title>Matplotlib v3.11.0, https://matplotlib.org/</dc:title>
     </cc:Agent>
    </dc:creator>
   </cc:Work>
  </rdf:RDF>
 </metadata>
 <defs>
  <style type="text/css">*{stroke-linejoin: round; stroke-linecap: butt}</style>
 </defs>
 <g id="figure_1">
  <g id="patch_1">
   <path d="M 0 60 
L 144 60 
L 144 0 
L 0 0 
L 0 60 
z
" style="fill: none; opacity: 0"/>
  </g>
  <g id="axes_1">
   <g id="patch_2">
    <path d="M 5.76 52.8 
L 138.24 52.8 
L 138.24 3.6 
L 5.76 3.6 
L 5.76 52.8 
z
" style="fill: none"/>
   </g>
   <g id="matplotlib.axis_1"/>
   <g id="matplotlib.axis_2"/>
   <g id="line2d_1">
    <path d="M 5.76 42.96 
L 138.24 42.96 
" clip-path="url(#p4f9c6f6023)" style="fill: none; stroke: #b2b2b2; stroke-opacity: 0.35; stroke-width: 0.5; stroke-linecap: square"/>
   </g>
   <g id="line2d_2">
    <path d="M 5.76 33.12 
L 138.24 33.12 
" clip-path="url(#p4f9c6f6023)" style="fill: none; stroke: #b2b2b2; stroke-opacity: 0.35; stroke-width: 0.5; stroke-linecap: square"/>
   </g>
   <g id="line2d_3">
    <path d="M 5.76 23.28 
L 138.24 23.28 
" clip-path="url(#p4f9c6f6023)" style="fill: none; stroke: #b2b2b2; stroke-opacity: 0.35; stroke-width: 0.5; stroke-linecap: square"/>
   </g>
   <g id="line2d_4">
    <path d="M 5.76 13.44 
L 138.24 13.44 
" clip-path="url(#p4f9c6f6023)" style="fill: none; stroke: #b2b2b2; stroke-opacity: 0.35; stroke-width: 0.5; stroke-linecap: square"/>
   </g>
   <g id="line2d_5">
    <path d="M 5.76 50.13336 
L 15.095653 49.95132 
L 24.494322 49.78896 
L 33.955459 49.6266 
L 43.596629 49.7742 
L 53.190728 49.7742 
L 62.550246 49.76436 
L 71.794067 49.91688 
L 81.584147 49.98084 
L 91.064749 49.8972 
L 100.286245 49.971 
L 109.930384 50.03004 
L 119.453219 50.08908 
L 128.735532 50.15796 
L 138.24 49.98084 
" clip-path="url(#p4f9c6f6023)" style="fill: none; stroke: #bebebe; stroke-width: 0.6; stroke-linecap: round"/>
   </g>
   <g id="line2d_6">
    <path d="M 5.76 47.0436 
L 15.095653 46.79268 
L 24.494322 46.27608 
L 33.955459 45.92184 
L 43.596629 45.80376 
L 53.190728 45.75456 
L 62.550246 45.81852 
L 71.794067 45.94152 
L 81.584147 46.02024 
L 91.064749 45.77424 
L 100.286245 45.61188 
L 109.930384 45.51348 
L 119.453219 45.72504 
L 128.735532 45.72996 
L 138.24 45.08052 
" clip-path="url(#p4f9c6f6023)" style="fill: none; stroke: #4a8dff; stroke-width: 0.6; stroke-linecap: round"/>
   </g>
   <g id="line2d_7">
    <path d="M 5.76 50.41872 
L 15.095653 50.27112 
L 24.494322 50.20224 
L 33.955459 50.0694 
L 43.596629 50.03988 
L 53.190728 50.00052 
L 62.550246 50.00544 
L 71.794067 50.05956 
L 81.584147 50.11368 
L 91.064749 49.91196 
L 100.286245 49.90212 
L 109.930384 49.8972 
L 119.453219 50.0448 
L 128.735532 50.08908 
L 138.24 49.84308 
" clip-path="url(#p4f9c6f6023)" style="fill: none; stroke: #f5841e; stroke-width: 0.7; stroke-linecap: round"/>
   </g>
  </g>
 </g>
 <defs>
  <clipPath id="p4f9c6f6023">
   <rect x="5.76" y="3.6" width="132.48" height="49.2"/>
  </clipPath>
 </defs>
</svg>
