<?xml version="1.0" encoding="utf-8" standalone="no"?>
<!DOCTYPE svg PUBLIC "-//W3C//DTD SVG 1.1//EN"
  "http://www.w3.org/Graphics/SVG/1.1/DTD/svg11.dtd">
<svg xmlns:xlink="http://www.w3.org/1999/xlink" width="144pt" height="60pt" viewBox="0 0 144 60" xmlns="http://www.w3.org/2000/svg" version="1.1">
  <desc id="nav-meta">{"window":"1w","count":4,"labels":["26.01","29.01","01.02","02.02"],"idxs":[0,29,57,86]}</desc>

 <metadata>
  <rdf:RDF xmlns:dc="http://purl.org/dc/elements/1.1/" xmlns:cc="http://creativecommons.org/ns#" xmlns:rdf="http://www.w3.org/1999/02/22-rdf-syntax-ns#">
   <cc:Work>
    <dc:type rdf:resource="http://purl.org/dc/dcmitype/StillImage"/>
    <dc:date>2026-02-02T04:33:25.224452</dc:date>
    <dc:format>image/svg+xml</dc:format>
    <dc:creator>
     <cc:Agent>
      <dc:title>Matplotlib v3.10.8, https://matplotlib.org/</dc:title>
     </cc:Agent>
    </dc:creator>
   </cc:Work>
  </rdf:RDF>
 </metadata>
 <defs>
  <style type="text/css">*{stroke-linejoin: round; stroke-linecap: butt}</style>
 </defs>
 <g id="figure_1">
  <g id="patch_1">
   <path d="M 0 60 
L 144 60 
L 144 0 
L 0 0 
L 0 60 
z
" style="fill: none; opacity: 0"/>
  </g>
  <g id="axes_1">
   <g id="patch_2">
    <path d="M 5.76 52.8 
L 138.24 52.8 
L 138.24 3.6 
L 5.76 3.6 
L 5.76 52.8 
z
" style="fill: none"/>
   </g>
   <g id="matplotlib.axis_1"/>
   <g id="matplotlib.axis_2"/>
   <g id="line2d_1">
    <path d="M 5.76 42.96 
L 138.24 42.96 
" clip-path="url(#peac188d4a0)" style="fill: none; stroke: #b2b2b2; stroke-opacity: 0.35; stroke-width: 0.5; stroke-linecap: square"/>
   </g>
   <g id="line2d_2">
    <path d="M 5.76 33.12 
L 138.24 33.12 
" clip-path="url(#peac188d4a0)" style="fill: none; stroke: #b2b2b2; stroke-opacity: 0.35; stroke-width: 0.5; stroke-linecap: square"/>
   </g>
   <g id="line2d_3">
    <path d="M 5.76 23.28 
L 138.24 23.28 
" clip-path="url(#peac188d4a0)" style="fill: none; stroke: #b2b2b2; stroke-opacity: 0.35; stroke-width: 0.5; stroke-linecap: square"/>
   </g>
   <g id="line2d_4">
    <path d="M 5.76 13.44 
L 138.24 13.44 
" clip-path="url(#peac188d4a0)" style="fill: none; stroke: #b2b2b2; stroke-opacity: 0.35; stroke-width: 0.5; stroke-linecap: square"/>
   </g>
   <g id="line2d_5">
    <path d="M 6.521379 40.27368 
L 14.069347 40.090364 
L 16.711136 40.003165 
L 18.220729 39.96372 
L 25.391299 39.882391 
L 26.523494 39.63408 
L 48.035202 39.724483 
L 49.544796 39.9096 
L 51.054389 39.97468 
L 52.563983 40.17528 
L 57.092764 40.273326 
L 58.224959 40.741562 
L 61.244146 40.867369 
L 63.885935 40.992851 
L 65.01813 41.05104 
L 69.924309 40.965472 
L 71.056504 40.869 
L 74.075691 40.797539 
L 75.585285 40.6722 
L 76.71748 40.708838 
L 78.227073 41.04612 
L 79.736667 41.110434 
L 81.246261 41.84316 
L 82.755854 41.902115 
L 84.265448 42.77304 
L 88.794228 42.75872 
L 90.303822 42.27612 
L 114.834717 42.365332 
L 116.721709 42.60084 
L 132.572442 42.69432 
L 132.94984 42.840048 
L 134.459434 48.31296 
L 137.478621 48.249 
L 137.478621 48.249 
" clip-path="url(#peac188d4a0)" style="fill: none; stroke: #bebebe; stroke-width: 0.6; stroke-linecap: round"/>
   </g>
   <g id="line2d_6">
    <path d="M 6.521379 34.65996 
L 14.824144 34.59739 
L 16.333737 34.46808 
L 18.220729 34.558809 
L 19.730323 34.60092 
L 23.504307 34.515805 
L 25.0139 33.9072 
L 37.468047 34.01354 
L 44.261218 34.013965 
L 45.770812 33.981 
L 49.544796 34.081031 
L 51.054389 34.41888 
L 55.205772 34.40904 
L 57.092764 35.10768 
L 58.602357 35.16723 
L 60.111951 35.40288 
L 61.621544 35.450974 
L 63.508536 35.66364 
L 65.01813 35.741226 
L 66.527723 35.8506 
L 70.679106 35.878121 
L 72.188699 36.26344 
L 74.45309 36.1212 
L 75.207886 36.16212 
L 76.71748 36.50496 
L 78.227073 36.572649 
L 79.736667 37.26264 
L 81.246261 37.344876 
L 82.755854 38.40408 
L 87.284635 38.38104 
L 88.794228 37.78908 
L 95.210001 37.885296 
L 96.719595 38.09412 
L 113.325124 38.188025 
L 115.212116 38.37456 
L 117.853904 38.424327 
L 119.363498 38.81736 
L 124.269677 38.73725 
L 125.779271 38.57136 
L 130.308051 38.665875 
L 131.440246 39.005993 
L 132.94984 42.0744 
L 134.836832 42.139622 
L 136.346426 42.3204 
L 137.478621 42.3204 
L 137.478621 42.3204 
" clip-path="url(#peac188d4a0)" style="fill: none; stroke: #4a8dff; stroke-width: 0.7; stroke-linecap: round"/>
   </g>
   <g id="line2d_7">
    <path d="M 6.521379 39.63408 
L 12.182355 39.713594 
L 13.31455 39.78168 
L 14.446746 39.684031 
L 15.956339 39.30444 
L 17.465933 39.355129 
L 18.975526 39.57504 
L 20.862518 39.65522 
L 22.372112 39.76692 
L 23.126908 39.76692 
L 23.881705 39.469324 
L 25.0139 39.024 
L 34.826259 39.131347 
L 37.468047 39.160172 
L 43.88382 39.080318 
L 45.016015 38.9502 
L 46.903007 39.057391 
L 48.412601 39.15684 
L 49.167397 39.159619 
L 50.676991 39.63761 
L 55.205772 39.62424 
L 57.092764 40.32288 
L 58.224959 40.32288 
L 59.357154 40.967953 
L 59.734552 41.197194 
L 60.866747 41.24784 
L 61.621544 41.324065 
L 63.131138 41.66112 
L 65.01813 41.746873 
L 66.527723 41.86776 
L 68.037317 41.760144 
L 69.54691 41.59716 
L 71.056504 41.518553 
L 73.320894 41.305164 
L 75.207886 41.333564 
L 76.71748 41.6808 
L 78.227073 41.750687 
L 79.736667 42.46308 
L 81.246261 42.57261 
L 82.755854 43.98336 
L 87.284635 43.962532 
L 88.794228 43.4274 
L 95.964798 43.524921 
L 97.096993 43.57008 
L 114.079921 43.670734 
L 115.212116 43.73736 
L 118.231303 43.833066 
L 119.740896 44.00304 
L 129.553254 43.99812 
L 129.930653 44.161033 
L 131.440246 47.765139 
L 134.836832 47.746338 
L 137.478621 47.82588 
L 137.478621 47.82588 
" clip-path="url(#peac188d4a0)" style="fill: none; stroke: #f5841e; stroke-width: 0.8; stroke-linecap: round"/>
   </g>
  </g>
 </g>
 <defs>
  <clipPath id="peac188d4a0">
   <rect x="5.76" y="3.6" width="132.48" height="49.2"/>
  </clipPath>
 </defs>
</svg>
