<?xml version="1.0" encoding="utf-8" standalone="no"?>
<!DOCTYPE svg PUBLIC "-//W3C//DTD SVG 1.1//EN"
  "http://www.w3.org/Graphics/SVG/1.1/DTD/svg11.dtd">
<svg xmlns:xlink="http://www.w3.org/1999/xlink" width="144pt" height="60pt" viewBox="0 0 144 60" xmlns="http://www.w3.org/2000/svg" version="1.1">
  <desc id="nav-meta">{"window":"2w","count":4,"labels":["20.01","23.01","30.01","03.02"],"idxs":[0,60,120,180]}</desc>

 <metadata>
  <rdf:RDF xmlns:dc="http://purl.org/dc/elements/1.1/" xmlns:cc="http://creativecommons.org/ns#" xmlns:rdf="http://www.w3.org/1999/02/22-rdf-syntax-ns#">
   <cc:Work>
    <dc:type rdf:resource="http://purl.org/dc/dcmitype/StillImage"/>
    <dc:date>2026-02-03T01:03:52.040061</dc:date>
    <dc:format>image/svg+xml</dc:format>
    <dc:creator>
     <cc:Agent>
      <dc:title>Matplotlib v3.10.8, https://matplotlib.org/</dc:title>
     </cc:Agent>
    </dc:creator>
   </cc:Work>
  </rdf:RDF>
 </metadata>
 <defs>
  <style type="text/css">*{stroke-linejoin: round; stroke-linecap: butt}</style>
 </defs>
 <g id="figure_1">
  <g id="patch_1">
   <path d="M 0 60 
L 144 60 
L 144 0 
L 0 0 
L 0 60 
z
" style="fill: none; opacity: 0"/>
  </g>
  <g id="axes_1">
   <g id="patch_2">
    <path d="M 5.76 52.8 
L 138.24 52.8 
L 138.24 3.6 
L 5.76 3.6 
L 5.76 52.8 
z
" style="fill: none"/>
   </g>
   <g id="matplotlib.axis_1"/>
   <g id="matplotlib.axis_2"/>
   <g id="line2d_1">
    <path d="M 5.76 42.96 
L 138.24 42.96 
" clip-path="url(#p7f56877163)" style="fill: none; stroke: #b2b2b2; stroke-opacity: 0.35; stroke-width: 0.5; stroke-linecap: square"/>
   </g>
   <g id="line2d_2">
    <path d="M 5.76 33.12 
L 138.24 33.12 
" clip-path="url(#p7f56877163)" style="fill: none; stroke: #b2b2b2; stroke-opacity: 0.35; stroke-width: 0.5; stroke-linecap: square"/>
   </g>
   <g id="line2d_3">
    <path d="M 5.76 23.28 
L 138.24 23.28 
" clip-path="url(#p7f56877163)" style="fill: none; stroke: #b2b2b2; stroke-opacity: 0.35; stroke-width: 0.5; stroke-linecap: square"/>
   </g>
   <g id="line2d_4">
    <path d="M 5.76 13.44 
L 138.24 13.44 
" clip-path="url(#p7f56877163)" style="fill: none; stroke: #b2b2b2; stroke-opacity: 0.35; stroke-width: 0.5; stroke-linecap: square"/>
   </g>
   <g id="line2d_5">
    <path d="M 6.125967 38.70912 
L 7.219312 38.86656 
L 7.58376 38.86656 
L 8.494881 39.41268 
L 9.406002 39.493197 
L 10.134898 39.57996 
L 15.237175 39.501281 
L 15.783847 39.3438 
L 16.694968 39.272389 
L 17.606089 39.18144 
L 18.334985 39.268489 
L 19.063882 39.30936 
L 22.526141 39.377873 
L 23.255038 39.52092 
L 46.215282 39.597884 
L 46.761954 39.64392 
L 48.401972 39.737318 
L 49.130868 39.76692 
L 50.588661 39.678727 
L 51.317558 39.64884 
L 61.886559 39.754426 
L 63.162128 39.7866 
L 63.708801 40.438122 
L 64.073249 40.75584 
L 64.802146 40.675813 
L 65.531042 40.27368 
L 67.717732 40.191857 
L 68.811077 40.06212 
L 75.006699 39.998385 
L 75.735595 39.63408 
L 86.122372 39.732602 
L 86.851269 39.9096 
L 87.580166 39.985666 
L 88.309062 40.17528 
L 90.313528 40.153906 
L 91.042425 40.7706 
L 93.229114 40.874655 
L 94.322459 41.05104 
L 96.509149 41.005698 
L 97.055822 40.869 
L 98.695839 40.775908 
L 99.424736 40.6722 
L 99.971408 40.75288 
L 100.700305 41.04612 
L 101.246977 41.04612 
L 102.158098 41.84316 
L 102.704771 41.84316 
L 103.615891 42.77304 
L 105.802581 42.682316 
L 106.531478 42.27612 
L 118.193824 42.360556 
L 119.104945 42.60084 
L 126.75836 42.69432 
L 126.940584 43.044028 
L 127.66948 48.31296 
L 131.860636 48.206557 
L 133.682878 48.19488 
L 135.322895 48.098685 
L 136.051792 48.00792 
L 137.874033 48.00792 
L 137.874033 48.00792 
" clip-path="url(#p7f56877163)" style="fill: none; stroke: #bebebe; stroke-width: 0.6; stroke-linecap: round"/>
   </g>
   <g id="line2d_6">
    <path d="M 6.125967 32.85432 
L 6.854863 32.85432 
L 7.765984 33.42504 
L 8.312657 33.42504 
L 9.223778 33.9072 
L 10.317122 34.010806 
L 11.046019 34.04988 
L 11.774916 34.14877 
L 12.503812 34.18764 
L 15.783847 34.109553 
L 16.512744 33.84816 
L 17.788313 33.958401 
L 21.61502 34.185272 
L 22.343917 34.45332 
L 43.846368 34.34951 
L 44.939713 34.317785 
L 45.850833 34.55664 
L 50.95311 34.473612 
L 52.228679 34.374722 
L 54.233145 34.326278 
L 62.433232 34.5714 
L 62.979904 35.180357 
L 63.344352 35.47176 
L 64.073249 35.403125 
L 64.802146 35.06832 
L 65.531042 35.002237 
L 66.259939 34.65996 
L 70.26887 34.554313 
L 70.815543 34.46808 
L 71.726664 34.551312 
L 72.45556 34.60092 
L 74.277802 34.545044 
L 75.006699 33.9072 
L 81.020096 34.013562 
L 84.117907 34.048716 
L 84.846803 33.981 
L 86.669045 33.985022 
L 87.580166 34.41888 
L 89.584631 34.426434 
L 90.313528 35.10768 
L 91.224649 35.186073 
L 91.953545 35.40288 
L 92.682442 35.469963 
L 93.411339 35.66364 
L 94.322459 35.756732 
L 95.051356 35.8506 
L 97.055822 35.924767 
L 97.602494 36.273863 
L 99.060287 36.1212 
L 99.971408 36.50496 
L 100.518081 36.50496 
L 101.429202 37.26264 
L 101.975874 37.26264 
L 102.886995 38.40408 
L 104.891461 38.40408 
L 105.984805 37.78908 
L 108.718168 37.864329 
L 109.629289 38.09412 
L 117.464927 38.183231 
L 118.376048 38.37456 
L 119.651617 38.420494 
L 120.380514 38.81736 
L 122.749428 38.73468 
L 123.478325 38.57136 
L 125.665015 38.675109 
L 126.029463 38.836795 
L 126.211687 39.107089 
L 126.940584 42.0744 
L 127.851704 42.149935 
L 128.580601 42.3204 
L 134.411774 42.249336 
L 134.958447 41.8038 
L 137.691809 41.707727 
L 137.874033 41.67588 
L 137.874033 41.67588 
" clip-path="url(#p7f56877163)" style="fill: none; stroke: #4a8dff; stroke-width: 0.7; stroke-linecap: round"/>
   </g>
   <g id="line2d_7">
    <path d="M 6.125967 37.87764 
L 6.854863 37.87764 
L 7.765984 38.37948 
L 8.494881 38.437663 
L 9.223778 38.62548 
L 9.952674 38.691726 
L 10.681571 38.91576 
L 11.774916 39.000523 
L 12.503812 39.03384 
L 14.690502 38.927213 
L 15.054951 38.84196 
L 16.148296 38.756728 
L 16.877192 38.71896 
L 21.432796 38.78292 
L 22.890589 39.147 
L 27.446193 39.13912 
L 28.539538 39.01908 
L 29.268435 38.915658 
L 29.997332 38.8518 
L 31.272901 38.943483 
L 32.184021 39.02892 
L 43.664143 38.941667 
L 44.575264 38.82228 
L 45.121937 38.90298 
L 45.850833 39.11256 
L 47.673075 39.222127 
L 48.584196 39.243154 
L 49.495316 38.99597 
L 50.770886 39.05844 
L 53.322024 38.88132 
L 55.508714 38.986804 
L 56.784283 39.040087 
L 59.517645 39.2208 
L 60.793214 39.51108 
L 61.522111 39.416763 
L 62.251008 39.37332 
L 62.433232 39.37332 
L 62.979904 40.032192 
L 63.344352 40.34748 
L 64.073249 40.270475 
L 64.802146 39.89484 
L 65.713267 39.787723 
L 66.442163 39.63408 
L 68.811077 39.695651 
L 69.35775 39.78168 
L 69.904422 39.716332 
L 70.633319 39.30444 
L 71.54444 39.406617 
L 72.273336 39.57504 
L 73.002233 39.6459 
L 73.73113 39.76692 
L 74.277802 39.683688 
L 75.006699 39.024 
L 79.744527 39.130831 
L 81.020096 39.160168 
L 84.117907 39.074711 
L 84.664579 38.9502 
L 85.393476 39.011935 
L 86.304596 39.15684 
L 86.669045 39.176847 
L 87.397941 39.639 
L 89.584631 39.641634 
L 90.313528 40.32288 
L 91.042425 40.338232 
L 91.771321 41.24784 
L 92.682442 41.354161 
L 93.411339 41.66112 
L 94.322459 41.764011 
L 95.051356 41.86776 
L 95.598028 41.802636 
L 96.326925 41.59716 
L 97.238046 41.497698 
L 98.331391 41.29457 
L 99.242512 41.377597 
L 99.971408 41.6808 
L 100.518081 41.6808 
L 101.429202 42.46308 
L 101.975874 42.46308 
L 102.886995 43.98336 
L 105.073685 43.87955 
L 105.802581 43.4274 
L 109.082616 43.512204 
L 109.811513 43.57008 
L 117.829376 43.667112 
L 118.558272 43.73736 
L 119.833841 43.831065 
L 120.562738 44.00304 
L 125.300566 43.99812 
L 125.48279 44.263963 
L 126.211687 47.763574 
L 127.851704 47.750876 
L 128.945049 47.82588 
L 130.767291 47.764431 
L 131.678412 47.61432 
L 134.22955 47.603296 
L 134.958447 47.08296 
L 137.145137 47.080694 
L 137.874033 46.53684 
L 137.874033 46.53684 
" clip-path="url(#p7f56877163)" style="fill: none; stroke: #f5841e; stroke-width: 0.8; stroke-linecap: round"/>
   </g>
  </g>
 </g>
 <defs>
  <clipPath id="p7f56877163">
   <rect x="5.76" y="3.6" width="132.48" height="49.2"/>
  </clipPath>
 </defs>
</svg>
