<?xml version="1.0" encoding="utf-8" standalone="no"?>
<!DOCTYPE svg PUBLIC "-//W3C//DTD SVG 1.1//EN"
  "http://www.w3.org/Graphics/SVG/1.1/DTD/svg11.dtd">
<svg xmlns:xlink="http://www.w3.org/1999/xlink" width="144pt" height="60pt" viewBox="0 0 144 60" xmlns="http://www.w3.org/2000/svg" version="1.1">
  <desc id="nav-meta">{"window":"6m","count":4,"labels":["27.09","26.11","25.01","26.03"],"tick_utc":["2025-09-27T12:00:00Z","2025-11-26T12:00:00Z","2026-01-25T12:00:00Z","2026-03-26T03:39:29Z"]}</desc>

 <metadata>
  <rdf:RDF xmlns:dc="http://purl.org/dc/elements/1.1/" xmlns:cc="http://creativecommons.org/ns#" xmlns:rdf="http://www.w3.org/1999/02/22-rdf-syntax-ns#">
   <cc:Work>
    <dc:type rdf:resource="http://purl.org/dc/dcmitype/StillImage"/>
    <dc:date>2026-03-26T03:39:31.206256</dc:date>
    <dc:format>image/svg+xml</dc:format>
    <dc:creator>
     <cc:Agent>
      <dc:title>Matplotlib v3.10.8, https://matplotlib.org/</dc:title>
     </cc:Agent>
    </dc:creator>
   </cc:Work>
  </rdf:RDF>
 </metadata>
 <defs>
  <style type="text/css">*{stroke-linejoin: round; stroke-linecap: butt}</style>
 </defs>
 <g id="figure_1">
  <g id="patch_1">
   <path d="M 0 60 
L 144 60 
L 144 0 
L 0 0 
L 0 60 
z
" style="fill: none; opacity: 0"/>
  </g>
  <g id="axes_1">
   <g id="patch_2">
    <path d="M 5.76 52.8 
L 138.24 52.8 
L 138.24 3.6 
L 5.76 3.6 
L 5.76 52.8 
z
" style="fill: none"/>
   </g>
   <g id="matplotlib.axis_1"/>
   <g id="matplotlib.axis_2"/>
   <g id="line2d_1">
    <path d="M 5.76 42.96 
L 138.24 42.96 
" clip-path="url(#pfff44d288c)" style="fill: none; stroke: #b2b2b2; stroke-opacity: 0.35; stroke-width: 0.5; stroke-linecap: square"/>
   </g>
   <g id="line2d_2">
    <path d="M 5.76 33.12 
L 138.24 33.12 
" clip-path="url(#pfff44d288c)" style="fill: none; stroke: #b2b2b2; stroke-opacity: 0.35; stroke-width: 0.5; stroke-linecap: square"/>
   </g>
   <g id="line2d_3">
    <path d="M 5.76 23.28 
L 138.24 23.28 
" clip-path="url(#pfff44d288c)" style="fill: none; stroke: #b2b2b2; stroke-opacity: 0.35; stroke-width: 0.5; stroke-linecap: square"/>
   </g>
   <g id="line2d_4">
    <path d="M 5.76 13.44 
L 138.24 13.44 
" clip-path="url(#pfff44d288c)" style="fill: none; stroke: #b2b2b2; stroke-opacity: 0.35; stroke-width: 0.5; stroke-linecap: square"/>
   </g>
   <g id="line2d_5">
    <path d="M 5.76 34.90104 
L 6.497424 35.10276 
L 7.234848 34.16796 
L 7.972272 33.8826 
L 8.709696 34.43364 
L 10.184544 31.05852 
L 10.921968 31.26024 
L 11.659392 31.92936 
L 12.396816 31.85064 
L 13.13424 31.3242 
L 13.871664 32.84448 
L 14.609088 31.78176 
L 15.346512 32.85924 
L 16.083936 36.8838 
L 16.82136 38.39424 
L 17.558784 35.95392 
L 18.296207 34.53696 
L 19.033631 35.20608 
L 20.508479 37.57752 
L 21.245903 37.90716 
L 21.983327 37.18884 
L 22.720751 37.18392 
L 23.458175 36.89364 
L 24.195599 37.42008 
L 24.933023 38.17284 
L 25.670447 36.687 
L 26.407871 36.42132 
L 27.145295 36.34752 
L 27.882719 35.56032 
L 28.620143 35.72268 
L 29.357567 36.29832 
L 30.094991 36.32292 
L 30.832415 37.61688 
L 31.569839 37.2282 
L 32.307263 37.34628 
L 33.044687 37.23804 
L 33.782111 40.008 
L 34.519535 41.36592 
L 35.256959 40.43604 
L 35.994383 41.44956 
L 36.731807 40.53444 
L 37.469231 41.02152 
L 38.206655 40.22448 
L 38.944079 39.79644 
L 39.681503 41.51844 
L 40.418927 41.66604 
L 41.156351 42.714 
L 41.893775 43.51596 
L 42.631198 43.43724 
L 43.368622 43.71276 
L 44.106046 44.59836 
L 44.84347 43.30932 
L 45.580894 43.85052 
L 46.318318 44.21952 
L 47.055742 44.88372 
L 47.793166 44.99688 
L 48.53059 44.57868 
L 49.268014 43.5996 
L 50.005438 43.51596 
L 50.742862 43.00428 
L 51.480286 43.2798 
L 52.21771 43.71768 
L 53.692558 44.0916 
L 54.429982 45.11004 
L 55.167406 43.55532 
L 55.90483 42.72876 
L 57.379678 44.27364 
L 58.854526 44.47536 
L 59.59195 44.25888 
L 60.329374 43.64388 
L 61.066798 43.84068 
L 61.804222 43.85052 
L 62.541646 44.36712 
L 63.27907 44.26872 
L 64.016494 44.74104 
L 64.753918 44.98704 
L 65.491342 44.84436 
L 66.228766 45.58728 
L 66.966189 46.0596 
L 67.703613 45.18384 
L 70.653309 45.47904 
L 71.390733 45.65616 
L 72.128157 45.98088 
L 73.603005 45.38556 
L 74.340429 45.31668 
L 75.077853 45.58728 
L 75.815277 45.35604 
L 76.552701 45.40032 
L 77.290125 45.11496 
L 78.027549 44.42124 
L 79.502397 44.18508 
L 80.239821 43.62912 
L 80.977245 43.24044 
L 81.714669 43.8702 
L 82.452093 43.60944 
L 83.189517 43.92924 
L 83.926941 43.93416 
L 84.664365 43.46184 
L 85.401789 43.5012 
L 86.139213 42.72384 
L 86.876637 42.51228 
L 87.614061 43.08792 
L 88.351485 42.75828 
L 89.088909 42.90096 
L 90.563757 44.2392 
L 91.301181 45.23304 
L 92.038604 44.77548 
L 93.513452 45.04608 
L 94.250876 45.07068 
L 94.9883 46.1334 
L 95.725724 45.4446 
L 96.463148 45.06084 
L 97.200572 45.33144 
L 97.937996 46.30068 
L 98.67542 46.34496 
L 99.412844 47.89476 
L 100.150268 48.26376 
L 100.887692 47.96364 
L 102.096265 49.06572 
L 102.833314 50.04972 
L 103.56758 49.24776 
L 106.530727 49.59708 
L 107.265496 49.80372 
L 108.002698 49.86768 
L 108.731254 49.479 
L 109.429767 49.24776 
L 110.214492 49.48392 
L 110.859286 49.37568 
L 111.688171 49.479 
L 112.424699 49.7004 
L 114.636578 49.49376 
L 115.376221 49.98576 
L 116.051348 49.96608 
L 116.848415 49.7004 
L 117.582553 49.27236 
L 118.318577 49.37076 
L 119.047312 49.68072 
L 119.80149 49.25268 
L 120.531301 49.51344 
L 122.742745 49.09032 
L 124.956169 49.64628 
L 125.695804 49.58724 
L 126.428491 49.36092 
L 127.90595 49.45932 
L 128.641949 49.16904 
L 130.129924 49.27236 
L 130.86943 48.87384 
L 132.336998 48.70164 
L 133.074627 49.03128 
L 133.804873 49.1592 
L 134.537978 49.08048 
L 136.025586 49.36584 
L 137.548528 48.90828 
L 138.24 49.05096 
L 138.24 49.05096 
" clip-path="url(#pfff44d288c)" style="fill: none; stroke: #bebebe; stroke-width: 0.6; stroke-linecap: round"/>
   </g>
   <g id="line2d_6">
    <path d="M 5.76 29.76456 
L 6.497424 29.8974 
L 7.234848 29.02164 
L 7.972272 28.50012 
L 8.709696 29.00688 
L 9.44712 27.59484 
L 10.184544 26.601 
L 10.921968 26.3796 
L 11.659392 26.5764 
L 12.396816 26.3796 
L 13.13424 25.1496 
L 13.871664 26.81256 
L 14.609088 26.29596 
L 15.346512 27.41772 
L 16.083936 31.19136 
L 16.82136 31.80144 
L 17.558784 28.89864 
L 18.296207 28.28364 
L 19.033631 29.11512 
L 19.771055 30.1434 
L 20.508479 30.80268 
L 21.245903 31.22088 
L 21.983327 30.8076 
L 22.720751 30.13356 
L 23.458175 30.17784 
L 24.195599 30.89124 
L 24.933023 31.42752 
L 25.670447 31.04376 
L 26.407871 30.49764 
L 27.145295 30.3648 
L 27.882719 28.88388 
L 28.620143 29.15448 
L 29.357567 30.15324 
L 30.832415 31.4226 
L 31.569839 31.10772 
L 33.044687 30.66 
L 34.519535 34.99944 
L 35.256959 34.07448 
L 35.994383 34.9158 
L 36.731807 34.02528 
L 37.469231 34.26144 
L 38.206655 33.0216 
L 38.944079 33.10524 
L 39.681503 34.1532 
L 40.418927 34.2024 
L 41.156351 35.4324 
L 41.893775 36.34752 
L 42.631198 35.89488 
L 44.106046 36.94776 
L 44.84347 36.2688 
L 45.580894 36.97236 
L 46.318318 38.286 
L 47.055742 38.76324 
L 47.793166 38.73864 
L 48.53059 38.51724 
L 49.268014 37.42992 
L 50.005438 37.42008 
L 50.742862 36.90348 
L 51.480286 36.98712 
L 52.21771 36.86412 
L 52.955134 37.16424 
L 53.692558 37.14948 
L 54.429982 38.52216 
L 55.90483 35.71776 
L 56.642254 36.15564 
L 57.379678 36.93792 
L 58.854526 36.72636 
L 59.59195 36.21468 
L 60.329374 34.8174 
L 61.066798 34.7928 
L 61.804222 35.42748 
L 62.541646 36.49512 
L 63.27907 36.28356 
L 64.016494 36.6378 
L 64.753918 37.3512 
L 65.491342 37.3512 
L 66.228766 38.31552 
L 66.966189 38.32536 
L 67.703613 37.26264 
L 68.441037 37.26264 
L 69.178461 37.09044 
L 69.915885 37.06092 
L 70.653309 37.34628 
L 71.390733 37.48404 
L 72.128157 37.77924 
L 73.603005 37.45944 
L 75.077853 37.56276 
L 75.815277 37.31184 
L 76.552701 37.33644 
L 77.290125 37.09536 
L 78.027549 36.23928 
L 79.502397 36.11628 
L 80.239821 35.48652 
L 80.977245 35.0142 
L 81.714669 35.93424 
L 82.452093 36.36228 
L 83.189517 36.50988 
L 83.926941 36.5148 
L 84.664365 36.25404 
L 85.401789 36.46068 
L 86.139213 34.83708 
L 86.876637 34.57632 
L 88.351485 35.00436 
L 89.088909 34.93056 
L 89.826333 35.088 
L 90.563757 35.78664 
L 91.301181 37.55292 
L 92.038604 37.26756 
L 92.776028 37.46436 
L 94.250876 37.45944 
L 94.9883 38.41392 
L 96.463148 36.95268 
L 97.200572 37.05108 
L 97.937996 38.37948 
L 98.67542 39.20604 
L 99.412844 41.03136 
L 100.150268 42.26628 
L 100.887692 41.73492 
L 101.510244 42.23676 
L 102.833314 44.89356 
L 103.56758 43.6242 
L 105.053199 43.53072 
L 105.79483 43.72752 
L 107.265496 44.436 
L 108.002698 44.49012 
L 108.731254 43.81608 
L 109.429767 43.7226 
L 110.214492 44.5344 
L 110.859286 44.19 
L 111.688171 44.21952 
L 113.157812 44.51472 
L 114.636578 44.3868 
L 115.376221 45.174 
L 116.051348 45.23796 
L 116.848415 44.81484 
L 117.582553 43.821 
L 118.318577 44.01288 
L 119.047312 44.66232 
L 119.80149 43.93908 
L 120.531301 44.39664 
L 121.270441 44.12112 
L 122.003734 44.33268 
L 122.742745 43.3044 
L 123.479819 43.6242 
L 124.211584 44.29824 
L 124.956169 44.53932 
L 125.695804 44.30808 
L 126.428491 43.8702 
L 127.165625 44.00304 
L 127.90595 43.97844 
L 128.641949 43.41756 
L 130.129924 43.48644 
L 130.86943 42.49752 
L 131.593949 41.73984 
L 132.336998 41.7546 
L 133.074627 42.591 
L 133.804873 43.14204 
L 134.537978 43.083 
L 135.286429 43.35852 
L 136.025586 43.78164 
L 136.756182 43.21584 
L 137.548528 42.9354 
L 138.24 43.10268 
L 138.24 43.10268 
" clip-path="url(#pfff44d288c)" style="fill: none; stroke: #4a8dff; stroke-width: 0.6; stroke-linecap: round"/>
   </g>
   <g id="line2d_7">
    <path d="M 5.76 31.36356 
L 6.497424 31.39308 
L 7.972272 29.09544 
L 8.709696 29.2332 
L 9.44712 27.02412 
L 10.184544 25.98108 
L 10.921968 25.16928 
L 11.659392 25.10532 
L 13.13424 23.92452 
L 13.871664 25.53336 
L 14.609088 24.62808 
L 15.346512 25.4448 
L 16.083936 29.64156 
L 16.82136 30.80268 
L 17.558784 28.65756 
L 18.296207 28.6428 
L 19.033631 29.66124 
L 20.508479 32.17044 
L 21.245903 32.97732 
L 21.983327 32.628 
L 22.720751 31.90476 
L 23.458175 30.92076 
L 24.195599 31.96872 
L 24.933023 32.39676 
L 25.670447 31.19628 
L 26.407871 30.72888 
L 27.145295 30.42384 
L 27.882719 29.0118 
L 28.620143 29.15448 
L 29.357567 29.76456 
L 30.094991 31.2012 
L 30.832415 32.09172 
L 31.569839 31.43244 
L 33.044687 30.90108 
L 33.782111 32.93796 
L 34.519535 35.35368 
L 35.256959 34.24668 
L 35.994383 35.5062 
L 36.731807 34.48284 
L 37.469231 35.02896 
L 38.206655 33.8334 
L 38.944079 33.243 
L 39.681503 34.69932 
L 40.418927 35.4078 
L 41.156351 36.2934 
L 41.893775 38.901 
L 42.631198 38.37948 
L 43.368622 38.92068 
L 44.106046 40.09164 
L 44.84347 39.70788 
L 45.580894 40.4262 
L 46.318318 42.75336 
L 47.055742 43.54548 
L 47.793166 43.72752 
L 48.53059 42.6894 
L 49.268014 41.976 
L 50.005438 42.42864 
L 50.742862 40.86408 
L 51.480286 40.47048 
L 53.692558 40.89852 
L 54.429982 42.9354 
L 55.167406 40.43604 
L 55.90483 39.31428 
L 56.642254 40.04244 
L 57.379678 41.43972 
L 58.117102 41.47416 
L 58.854526 41.02152 
L 59.59195 40.7952 
L 60.329374 39.75708 
L 61.066798 40.11132 
L 61.804222 39.87024 
L 62.541646 40.94772 
L 63.27907 40.97232 
L 64.753918 42.87144 
L 65.491342 42.17772 
L 66.228766 43.04364 
L 66.966189 43.34868 
L 67.703613 42.03504 
L 69.178461 41.8038 
L 69.915885 41.84316 
L 70.653309 42.37944 
L 71.390733 42.26628 
L 72.128157 42.468 
L 72.865581 42.42864 
L 73.603005 42.18264 
L 74.340429 42.1728 
L 75.077853 42.50244 
L 75.815277 41.88252 
L 76.552701 42.32532 
L 78.027549 41.13468 
L 79.502397 40.42128 
L 80.239821 39.16176 
L 80.977245 39.28968 
L 81.714669 40.48032 
L 83.926941 40.88376 
L 85.401789 40.53936 
L 86.139213 38.50248 
L 86.876637 37.63656 
L 87.614061 38.34012 
L 88.351485 38.37456 
L 89.088909 38.5812 
L 90.563757 39.8358 
L 91.301181 41.93172 
L 92.038604 41.42004 
L 93.513452 41.39052 
L 94.250876 41.5086 
L 94.9883 42.80256 
L 95.725724 41.93664 
L 96.463148 41.49384 
L 97.200572 41.51352 
L 97.937996 43.78164 
L 98.67542 43.9932 
L 99.412844 46.66968 
L 100.150268 47.55036 
L 100.887692 46.64508 
L 102.096265 48.89352 
L 102.833314 49.84308 
L 103.56758 49.00176 
L 104.32186 49.233 
L 105.053199 48.97716 
L 106.530727 49.36092 
L 108.002698 49.58724 
L 108.731254 49.28712 
L 109.429767 49.16904 
L 110.214492 49.39044 
L 110.859286 49.29696 
L 112.424699 49.55772 
L 114.636578 49.41996 
L 115.376221 49.8234 
L 116.051348 49.86768 
L 116.848415 49.72992 
L 117.582553 49.39536 
L 119.047312 49.6758 
L 119.80149 49.47408 
L 120.531301 49.60692 
L 121.270441 49.37568 
L 122.003734 49.36584 
L 122.742745 48.6672 
L 123.479819 48.95256 
L 124.211584 49.36092 
L 124.956169 49.54788 
L 125.695804 49.5282 
L 126.428491 49.09032 
L 127.90595 49.2084 
L 128.641949 48.93288 
L 130.129924 48.89844 
L 130.86943 48.48024 
L 131.593949 48.1998 
L 132.336998 48.28344 
L 133.074627 48.88368 
L 133.804873 49.04604 
L 134.537978 49.00176 
L 136.025586 49.38552 
L 136.756182 49.04112 
L 137.548528 48.92796 
L 138.24 48.987 
L 138.24 48.987 
" clip-path="url(#pfff44d288c)" style="fill: none; stroke: #f5841e; stroke-width: 0.7; stroke-linecap: round"/>
   </g>
  </g>
 </g>
 <defs>
  <clipPath id="pfff44d288c">
   <rect x="5.76" y="3.6" width="132.48" height="49.2"/>
  </clipPath>
 </defs>
</svg>
