<?xml version="1.0" encoding="utf-8" standalone="no"?>
<!DOCTYPE svg PUBLIC "-//W3C//DTD SVG 1.1//EN"
  "http://www.w3.org/Graphics/SVG/1.1/DTD/svg11.dtd">
<svg xmlns:xlink="http://www.w3.org/1999/xlink" width="144pt" height="60pt" viewBox="0 0 144 60" xmlns="http://www.w3.org/2000/svg" version="1.1">
  <desc id="nav-meta">{"window":"1m","count":4,"labels":["12.01","22.01","01.02","11.02"],"tick_utc":["2026-01-12T12:00:00Z","2026-01-22T12:00:00Z","2026-02-01T12:00:00Z","2026-02-11T03:39:24Z"]}</desc>

 <metadata>
  <rdf:RDF xmlns:dc="http://purl.org/dc/elements/1.1/" xmlns:cc="http://creativecommons.org/ns#" xmlns:rdf="http://www.w3.org/1999/02/22-rdf-syntax-ns#">
   <cc:Work>
    <dc:type rdf:resource="http://purl.org/dc/dcmitype/StillImage"/>
    <dc:date>2026-02-11T07:40:10.640216</dc:date>
    <dc:format>image/svg+xml</dc:format>
    <dc:creator>
     <cc:Agent>
      <dc:title>Matplotlib v3.10.8, https://matplotlib.org/</dc:title>
     </cc:Agent>
    </dc:creator>
   </cc:Work>
  </rdf:RDF>
 </metadata>
 <defs>
  <style type="text/css">*{stroke-linejoin: round; stroke-linecap: butt}</style>
 </defs>
 <g id="figure_1">
  <g id="patch_1">
   <path d="M 0 60 
L 144 60 
L 144 0 
L 0 0 
L 0 60 
z
" style="fill: none; opacity: 0"/>
  </g>
  <g id="axes_1">
   <g id="patch_2">
    <path d="M 5.76 52.8 
L 138.24 52.8 
L 138.24 3.6 
L 5.76 3.6 
L 5.76 52.8 
z
" style="fill: none"/>
   </g>
   <g id="matplotlib.axis_1"/>
   <g id="matplotlib.axis_2"/>
   <g id="line2d_1">
    <path d="M 5.76 42.96 
L 138.24 42.96 
" clip-path="url(#p6452d6d23f)" style="fill: none; stroke: #b2b2b2; stroke-opacity: 0.35; stroke-width: 0.5; stroke-linecap: square"/>
   </g>
   <g id="line2d_2">
    <path d="M 5.76 33.12 
L 138.24 33.12 
" clip-path="url(#p6452d6d23f)" style="fill: none; stroke: #b2b2b2; stroke-opacity: 0.35; stroke-width: 0.5; stroke-linecap: square"/>
   </g>
   <g id="line2d_3">
    <path d="M 5.76 23.28 
L 138.24 23.28 
" clip-path="url(#p6452d6d23f)" style="fill: none; stroke: #b2b2b2; stroke-opacity: 0.35; stroke-width: 0.5; stroke-linecap: square"/>
   </g>
   <g id="line2d_4">
    <path d="M 5.76 13.44 
L 138.24 13.44 
" clip-path="url(#p6452d6d23f)" style="fill: none; stroke: #b2b2b2; stroke-opacity: 0.35; stroke-width: 0.5; stroke-linecap: square"/>
   </g>
   <g id="line2d_5">
    <path d="M 5.76 43.46184 
L 10.227772 43.5012 
L 14.695545 42.72384 
L 19.163317 42.51228 
L 23.63109 43.08792 
L 28.098862 42.75828 
L 32.566634 42.90096 
L 37.034407 43.57008 
L 41.502179 44.2392 
L 45.969951 45.23304 
L 50.437724 44.77548 
L 54.905496 44.91816 
L 59.373269 45.04608 
L 63.841041 45.07068 
L 68.308813 46.1334 
L 72.776586 45.4446 
L 77.244358 45.06084 
L 81.71213 45.33144 
L 86.179903 46.30068 
L 90.647675 46.34496 
L 95.115448 47.89476 
L 99.58322 48.26376 
L 104.050992 47.96364 
L 107.822795 48.55896 
L 111.373278 49.06572 
L 115.838775 50.04972 
L 120.287415 49.24776 
L 124.857315 49.32156 
L 129.288218 49.31172 
L 133.781484 49.43964 
L 138.24 49.59708 
" clip-path="url(#p6452d6d23f)" style="fill: none; stroke: #bebebe; stroke-width: 0.6; stroke-linecap: round"/>
   </g>
   <g id="line2d_6">
    <path d="M 5.76 36.25404 
L 10.227772 36.46068 
L 14.695545 34.83708 
L 19.163317 34.57632 
L 23.63109 34.84692 
L 28.098862 35.00436 
L 32.566634 34.93056 
L 37.034407 35.088 
L 41.502179 35.78664 
L 45.969951 37.55292 
L 50.437724 37.26756 
L 54.905496 37.46436 
L 59.373269 37.44468 
L 63.841041 37.45944 
L 68.308813 38.41392 
L 72.776586 37.61196 
L 77.244358 36.95268 
L 81.71213 37.05108 
L 86.179903 38.37948 
L 90.647675 39.20604 
L 95.115448 41.03136 
L 99.58322 42.26628 
L 104.050992 41.73492 
L 107.822795 42.23676 
L 111.373278 43.38804 
L 115.838775 44.89356 
L 120.287415 43.6242 
L 124.857315 43.575 
L 129.288218 43.53072 
L 133.781484 43.72752 
L 138.24 44.0916 
" clip-path="url(#p6452d6d23f)" style="fill: none; stroke: #4a8dff; stroke-width: 0.6; stroke-linecap: round"/>
   </g>
   <g id="line2d_7">
    <path d="M 5.76 40.6968 
L 10.227772 40.53936 
L 14.695545 38.50248 
L 19.163317 37.63656 
L 23.63109 38.34012 
L 28.098862 38.37456 
L 32.566634 38.5812 
L 37.034407 39.2454 
L 41.502179 39.8358 
L 45.969951 41.93172 
L 50.437724 41.42004 
L 54.905496 41.37576 
L 59.373269 41.39052 
L 63.841041 41.5086 
L 68.308813 42.80256 
L 72.776586 41.93664 
L 77.244358 41.49384 
L 81.71213 41.51352 
L 86.179903 43.78164 
L 90.647675 43.9932 
L 95.115448 46.66968 
L 99.58322 47.55036 
L 104.050992 46.64508 
L 107.822795 47.89476 
L 111.373278 48.89352 
L 115.838775 49.84308 
L 120.287415 49.00176 
L 124.857315 49.233 
L 129.288218 48.97716 
L 133.781484 49.22316 
L 138.24 49.36092 
" clip-path="url(#p6452d6d23f)" style="fill: none; stroke: #f5841e; stroke-width: 0.7; stroke-linecap: round"/>
   </g>
  </g>
 </g>
 <defs>
  <clipPath id="p6452d6d23f">
   <rect x="5.76" y="3.6" width="132.48" height="49.2"/>
  </clipPath>
 </defs>
</svg>
