<?xml version="1.0" encoding="utf-8" standalone="no"?>
<!DOCTYPE svg PUBLIC "-//W3C//DTD SVG 1.1//EN"
  "http://www.w3.org/Graphics/SVG/1.1/DTD/svg11.dtd">
<svg xmlns:xlink="http://www.w3.org/1999/xlink" width="144pt" height="60pt" viewBox="0 0 144 60" xmlns="http://www.w3.org/2000/svg" version="1.1">
  <desc id="nav-meta">{"window":"1y","count":4,"labels":["02.04","02.08","01.12","02.04"],"tick_utc":["2025-04-02T12:00:00Z","2025-08-02T12:00:00Z","2025-12-01T12:00:00Z","2026-04-02T03:35:34Z"]}</desc>

 <metadata>
  <rdf:RDF xmlns:dc="http://purl.org/dc/elements/1.1/" xmlns:cc="http://creativecommons.org/ns#" xmlns:rdf="http://www.w3.org/1999/02/22-rdf-syntax-ns#">
   <cc:Work>
    <dc:type rdf:resource="http://purl.org/dc/dcmitype/StillImage"/>
    <dc:date>2026-04-02T03:35:36.612447</dc:date>
    <dc:format>image/svg+xml</dc:format>
    <dc:creator>
     <cc:Agent>
      <dc:title>Matplotlib v3.10.8, https://matplotlib.org/</dc:title>
     </cc:Agent>
    </dc:creator>
   </cc:Work>
  </rdf:RDF>
 </metadata>
 <defs>
  <style type="text/css">*{stroke-linejoin: round; stroke-linecap: butt}</style>
 </defs>
 <g id="figure_1">
  <g id="patch_1">
   <path d="M 0 60 
L 144 60 
L 144 0 
L 0 0 
L 0 60 
z
" style="fill: none; opacity: 0"/>
  </g>
  <g id="axes_1">
   <g id="patch_2">
    <path d="M 5.76 52.8 
L 138.24 52.8 
L 138.24 3.6 
L 5.76 3.6 
L 5.76 52.8 
z
" style="fill: none"/>
   </g>
   <g id="matplotlib.axis_1"/>
   <g id="matplotlib.axis_2"/>
   <g id="line2d_1">
    <path d="M 5.76 42.96 
L 138.24 42.96 
" clip-path="url(#p3b9e507721)" style="fill: none; stroke: #b2b2b2; stroke-opacity: 0.35; stroke-width: 0.5; stroke-linecap: square"/>
   </g>
   <g id="line2d_2">
    <path d="M 5.76 33.12 
L 138.24 33.12 
" clip-path="url(#p3b9e507721)" style="fill: none; stroke: #b2b2b2; stroke-opacity: 0.35; stroke-width: 0.5; stroke-linecap: square"/>
   </g>
   <g id="line2d_3">
    <path d="M 5.76 23.28 
L 138.24 23.28 
" clip-path="url(#p3b9e507721)" style="fill: none; stroke: #b2b2b2; stroke-opacity: 0.35; stroke-width: 0.5; stroke-linecap: square"/>
   </g>
   <g id="line2d_4">
    <path d="M 5.76 13.44 
L 138.24 13.44 
" clip-path="url(#p3b9e507721)" style="fill: none; stroke: #b2b2b2; stroke-opacity: 0.35; stroke-width: 0.5; stroke-linecap: square"/>
   </g>
   <g id="line2d_5">
    <path d="M 5.76 45.10512 
L 6.123308 46.24164 
L 6.486615 46.3548 
L 6.849923 45.63648 
L 7.21323 45.97104 
L 7.576538 47.84556 
L 7.939845 47.71272 
L 8.303153 47.88 
L 8.666461 46.12848 
L 9.029768 46.91568 
L 9.756383 44.40648 
L 10.119691 44.91816 
L 10.482999 44.76564 
L 10.846306 45.16908 
L 11.209614 44.49504 
L 11.572921 44.08668 
L 11.936229 44.17032 
L 12.299536 43.43232 
L 13.026152 43.86528 
L 13.389459 42.23676 
L 14.116074 41.7792 
L 15.205997 42.31056 
L 15.569305 42.345 
L 15.932612 42.5418 
L 16.29592 42.37944 
L 16.659227 41.98584 
L 17.022535 42.345 
L 17.385843 42.49752 
L 17.74915 42.86652 
L 18.112458 42.49752 
L 18.839073 42.44832 
L 19.20238 40.33272 
L 19.565688 39.12732 
L 19.928996 38.52216 
L 20.292303 39.10272 
L 20.655611 38.901 
L 21.018918 37.6464 
L 21.745534 39.639 
L 22.472149 40.008 
L 22.835456 39.27492 
L 23.198764 39.90468 
L 23.562071 39.6882 
L 24.288687 38.22696 
L 24.651994 38.901 
L 25.015302 38.69436 
L 25.741917 38.86164 
L 26.105225 38.62056 
L 26.83184 39.88992 
L 27.195147 41.23308 
L 28.28507 41.17404 
L 29.011685 41.62176 
L 29.374993 42.79272 
L 29.7383 42.30564 
L 30.464915 41.7546 
L 30.828223 40.62792 
L 31.191531 40.131 
L 31.554838 40.6476 
L 31.918146 41.73492 
L 32.644761 42.76812 
L 33.008069 41.73492 
L 33.371376 41.89728 
L 33.734684 42.345 
L 34.097991 42.5664 
L 34.461299 42.46308 
L 35.187914 44.20476 
L 35.551222 44.45076 
L 35.914529 42.7632 
L 36.277837 42.63036 
L 36.641144 42.94524 
L 37.004452 43.52088 
L 37.36776 43.1076 
L 37.731067 41.98092 
L 38.457682 41.43972 
L 38.82099 42.4926 
L 39.184297 41.79888 
L 39.547605 41.78412 
L 39.910913 42.37452 
L 40.27422 42.3942 
L 40.637528 41.83332 
L 41.000835 42.24168 
L 41.364143 41.84316 
L 42.090758 40.2786 
L 42.454066 40.42128 
L 42.817373 40.71648 
L 43.543988 40.48032 
L 43.907296 40.26384 
L 44.270604 38.97972 
L 44.997219 38.51724 
L 45.360526 38.57628 
L 45.723834 38.04492 
L 46.087141 36.03264 
L 46.450449 34.88136 
L 46.813757 36.92316 
L 47.177064 37.8432 
L 47.540372 37.37088 
L 47.903679 37.53324 
L 48.266987 37.056 
L 48.630295 37.77924 
L 48.993602 38.02032 
L 49.35691 38.45328 
L 49.720217 39.1962 
L 50.083525 40.41636 
L 50.446832 40.97232 
L 50.81014 40.53444 
L 51.173448 39.55536 
L 51.536755 40.24908 
L 51.900063 39.7128 
L 52.26337 38.778 
L 52.626678 38.59104 
L 53.353293 37.794 
L 53.716601 38.82228 
L 54.079908 36.53448 
L 54.443216 35.334 
L 55.169831 37.44468 
L 55.533139 36.90348 
L 55.896446 36.65748 
L 56.623061 38.64516 
L 56.986369 37.2282 
L 57.349676 38.14332 
L 57.712984 35.53572 
L 58.076292 35.04372 
L 58.439599 34.80264 
L 58.802907 37.23804 
L 59.89283 33.67104 
L 60.256137 34.90596 
L 61.34606 35.9736 
L 61.709367 34.36476 
L 62.072675 34.1778 
L 62.435983 35.22084 
L 62.79929 35.11752 
L 63.162598 35.54556 
L 64.615828 32.44104 
L 64.979136 31.83096 
L 65.342443 30.06468 
L 65.705751 30.01056 
L 66.069058 30.291 
L 66.432366 31.16184 
L 66.795674 30.74856 
L 67.158981 29.71536 
L 67.522289 29.37588 
L 67.885596 30.57636 
L 68.248904 30.42876 
L 68.612211 30.79284 
L 68.975519 32.91828 
L 69.338827 33.72024 
L 69.702134 34.05972 
L 70.065442 36.5886 
L 70.428749 34.90104 
L 70.792057 35.10276 
L 71.155365 34.16796 
L 71.518672 33.8826 
L 71.88198 34.43364 
L 72.608595 31.05852 
L 72.971902 31.26024 
L 73.33521 31.92936 
L 73.698518 31.85064 
L 74.061825 31.3242 
L 74.425133 32.84448 
L 74.78844 31.78176 
L 75.151748 32.85924 
L 75.515056 36.8838 
L 75.878363 38.39424 
L 76.241671 35.95392 
L 76.604978 34.53696 
L 76.968286 35.20608 
L 77.694901 37.57752 
L 78.058209 37.90716 
L 78.421516 37.18884 
L 78.784824 37.18392 
L 79.148131 36.89364 
L 79.511439 37.42008 
L 79.874746 38.17284 
L 80.238054 36.687 
L 80.601362 36.42132 
L 80.964669 36.34752 
L 81.327977 35.56032 
L 81.691284 35.72268 
L 82.054592 36.29832 
L 82.4179 36.32292 
L 82.781207 37.61688 
L 83.144515 37.2282 
L 83.507822 37.34628 
L 83.87113 37.23804 
L 84.234437 40.008 
L 84.597745 41.36592 
L 84.961053 40.43604 
L 85.32436 41.44956 
L 85.687668 40.53444 
L 86.050975 41.02152 
L 86.414283 40.22448 
L 86.777591 39.79644 
L 87.140898 41.51844 
L 87.504206 41.66604 
L 88.230821 43.51596 
L 88.594128 43.43724 
L 88.957436 43.71276 
L 89.320744 44.59836 
L 89.684051 43.30932 
L 90.773974 44.88372 
L 91.137281 44.99688 
L 91.500589 44.57868 
L 91.863897 43.5996 
L 92.227204 43.51596 
L 92.590512 43.00428 
L 92.953819 43.2798 
L 93.317127 43.71768 
L 94.043742 44.0916 
L 94.40705 45.11004 
L 94.770357 43.55532 
L 95.133665 42.72876 
L 95.86028 44.27364 
L 96.586895 44.47536 
L 96.950203 44.25888 
L 97.31351 43.64388 
L 97.676818 43.84068 
L 98.040126 43.85052 
L 98.403433 44.36712 
L 98.766741 44.26872 
L 99.130048 44.74104 
L 99.493356 44.98704 
L 99.856663 44.84436 
L 100.219971 45.58728 
L 100.583279 46.0596 
L 100.946586 45.18384 
L 102.399816 45.47904 
L 102.763124 45.65616 
L 103.126432 45.98088 
L 103.853047 45.38556 
L 104.216354 45.31668 
L 104.579662 45.58728 
L 104.94297 45.35604 
L 105.306277 45.40032 
L 105.669585 45.11496 
L 106.032892 44.42124 
L 106.759507 44.18508 
L 107.486123 43.24044 
L 107.84943 43.8702 
L 108.212738 43.60944 
L 108.576045 43.92924 
L 108.939353 43.93416 
L 109.302661 43.46184 
L 109.665968 43.5012 
L 110.029276 42.72384 
L 110.392583 42.51228 
L 110.755891 43.08792 
L 111.119198 42.75828 
L 111.482506 42.90096 
L 112.209121 44.2392 
L 112.572429 45.23304 
L 112.935736 44.77548 
L 113.662351 45.04608 
L 114.025659 45.07068 
L 114.388967 46.1334 
L 114.752274 45.4446 
L 115.115582 45.06084 
L 115.478889 45.33144 
L 115.842197 46.30068 
L 116.205505 46.34496 
L 116.568812 47.89476 
L 116.93212 48.26376 
L 117.295427 47.96364 
L 118.253979 50.04972 
L 118.615731 49.24776 
L 120.075588 49.59708 
L 120.437588 49.80372 
L 120.800786 49.86768 
L 121.503862 49.24776 
L 121.890473 49.48392 
L 122.208145 49.37568 
L 122.616513 49.479 
L 122.979379 49.7004 
L 124.069108 49.49376 
L 124.433509 49.98576 
L 124.766124 49.96608 
L 125.158816 49.7004 
L 125.520505 49.27236 
L 125.883123 49.37076 
L 126.24215 49.68072 
L 126.613712 49.25268 
L 126.973268 49.51344 
L 128.062783 49.09032 
L 129.51767 49.58724 
L 129.878644 49.36092 
L 130.606546 49.45932 
L 130.969151 49.16904 
L 131.702234 49.27236 
L 132.066567 48.87384 
L 132.789596 48.70164 
L 133.153004 49.03128 
L 133.512775 49.1592 
L 133.873955 49.08048 
L 134.606857 49.36584 
L 135.357167 48.90828 
L 135.697835 49.05096 
L 136.421435 49.64628 
L 137.881478 49.59708 
L 138.24 49.8726 
L 138.24 49.8726 
" clip-path="url(#p3b9e507721)" style="fill: none; stroke: #bebebe; stroke-width: 0.6; stroke-linecap: round"/>
   </g>
   <g id="line2d_6">
    <path d="M 5.76 44.8296 
L 6.123308 45.6168 
L 6.486615 45.45936 
L 7.21323 45.5184 
L 7.576538 47.18136 
L 7.939845 47.3142 
L 8.303153 47.90952 
L 8.666461 46.56144 
L 9.029768 47.54052 
L 9.393076 47.23056 
L 9.756383 46.67952 
L 10.119691 47.03376 
L 10.482999 46.85172 
L 10.846306 47.08788 
L 11.209614 47.16168 
L 11.936229 47.07804 
L 12.299536 46.896 
L 12.662844 47.10756 
L 13.026152 47.16168 
L 13.389459 45.87264 
L 13.752767 45.63156 
L 14.116074 45.80376 
L 14.84269 45.43968 
L 15.205997 45.63156 
L 15.932612 45.61188 
L 16.29592 45.63156 
L 16.659227 45.31176 
L 17.385843 45.3462 
L 17.74915 45.52824 
L 18.475765 45.47412 
L 18.839073 45.51348 
L 19.20238 42.77796 
L 19.565688 41.75952 
L 19.928996 40.04244 
L 20.292303 40.58364 
L 20.655611 40.69188 
L 21.018918 39.38808 
L 21.745534 40.33764 
L 22.108841 40.32288 
L 22.472149 40.81488 
L 22.835456 40.88376 
L 23.198764 40.44588 
L 23.562071 40.46556 
L 23.925379 40.21956 
L 24.288687 39.52584 
L 24.651994 40.49508 
L 25.741917 40.19496 
L 26.105225 39.4914 
L 26.468532 39.38808 
L 26.83184 39.69312 
L 27.195147 40.46556 
L 27.921762 40.36716 
L 28.28507 39.8604 
L 28.648378 39.96372 
L 29.011685 39.85548 
L 29.374993 41.1888 
L 30.101608 40.4508 
L 30.464915 40.5738 
L 31.191531 38.45328 
L 31.554838 38.68452 
L 31.918146 39.55536 
L 32.281453 40.09164 
L 32.644761 40.39668 
L 33.371376 40.2048 
L 33.734684 40.52952 
L 34.461299 40.48032 
L 35.187914 42.26136 
L 35.551222 42.5664 
L 35.914529 41.17404 
L 36.277837 41.0166 
L 36.641144 41.22324 
L 37.36776 41.17896 
L 37.731067 41.08056 
L 38.094375 40.61808 
L 38.457682 40.7214 
L 38.82099 41.30688 
L 39.184297 40.11132 
L 39.547605 39.99816 
L 39.910913 40.56888 
L 40.27422 40.51476 
L 40.637528 40.131 
L 41.000835 40.3278 
L 41.364143 39.81612 
L 42.090758 37.46436 
L 42.454066 37.39056 
L 42.817373 37.50372 
L 43.543988 37.01172 
L 43.907296 36.16056 
L 44.270604 34.4976 
L 44.633911 33.69072 
L 45.360526 32.89368 
L 45.723834 31.73256 
L 46.087141 31.68336 
L 46.450449 31.8162 
L 46.813757 32.64276 
L 47.177064 32.0868 
L 47.903679 31.85064 
L 48.266987 30.98964 
L 48.630295 31.53576 
L 48.993602 31.521 
L 49.35691 31.38816 
L 49.720217 32.17044 
L 50.083525 33.68088 
L 50.446832 34.28604 
L 50.81014 33.58248 
L 51.173448 32.0376 
L 51.536755 32.76576 
L 51.900063 32.259 
L 52.26337 30.65508 
L 52.626678 29.93676 
L 52.989986 28.14588 
L 53.716601 28.40664 
L 54.079908 25.73508 
L 54.443216 24.62316 
L 54.806523 26.10408 
L 55.169831 26.97984 
L 55.533139 27.00936 
L 55.896446 26.58132 
L 56.259754 27.7818 
L 56.623061 29.49888 
L 56.986369 27.68832 
L 57.349676 28.44108 
L 57.712984 24.16068 
L 58.076292 24.55428 
L 58.439599 24.51984 
L 58.802907 27.32916 
L 59.166214 25.7646 
L 59.529522 26.48784 
L 59.89283 26.43372 
L 60.256137 27.44724 
L 60.982752 27.27504 
L 61.34606 27.8802 
L 61.709367 27.72276 
L 62.072675 26.84208 
L 62.435983 27.91956 
L 62.79929 27.8556 
L 63.162598 28.09668 
L 63.525905 27.87528 
L 64.252521 27.83592 
L 64.615828 27.57024 
L 64.979136 26.77812 
L 65.342443 25.01184 
L 66.069058 25.71048 
L 66.432366 26.31564 
L 66.795674 26.45832 
L 67.158981 25.8384 
L 67.522289 25.84824 
L 67.885596 26.6994 
L 68.248904 26.62068 
L 68.612211 26.8224 
L 68.975519 28.61328 
L 69.702134 28.97244 
L 70.065442 30.99456 
L 70.428749 29.76456 
L 70.792057 29.8974 
L 71.155365 29.02164 
L 71.518672 28.50012 
L 71.88198 29.00688 
L 72.608595 26.601 
L 72.971902 26.3796 
L 73.33521 26.5764 
L 73.698518 26.3796 
L 74.061825 25.1496 
L 74.425133 26.81256 
L 74.78844 26.29596 
L 75.151748 27.41772 
L 75.515056 31.19136 
L 75.878363 31.80144 
L 76.241671 28.89864 
L 76.604978 28.28364 
L 77.694901 30.80268 
L 78.058209 31.22088 
L 78.421516 30.8076 
L 78.784824 30.13356 
L 79.148131 30.17784 
L 79.874746 31.42752 
L 80.238054 31.04376 
L 80.601362 30.49764 
L 80.964669 30.3648 
L 81.327977 28.88388 
L 81.691284 29.15448 
L 82.054592 30.15324 
L 82.781207 31.4226 
L 83.507822 30.9306 
L 83.87113 30.66 
L 84.597745 34.99944 
L 84.961053 34.07448 
L 85.32436 34.9158 
L 85.687668 34.02528 
L 86.050975 34.26144 
L 86.414283 33.0216 
L 86.777591 33.10524 
L 87.140898 34.1532 
L 87.504206 34.2024 
L 88.230821 36.34752 
L 88.594128 35.89488 
L 89.320744 36.94776 
L 89.684051 36.2688 
L 90.047359 36.97236 
L 90.410666 38.286 
L 90.773974 38.76324 
L 91.137281 38.73864 
L 91.500589 38.51724 
L 91.863897 37.42992 
L 92.227204 37.42008 
L 92.590512 36.90348 
L 92.953819 36.98712 
L 93.317127 36.86412 
L 93.680435 37.16424 
L 94.043742 37.14948 
L 94.40705 38.52216 
L 95.133665 35.71776 
L 95.496972 36.15564 
L 95.86028 36.93792 
L 96.586895 36.72636 
L 96.950203 36.21468 
L 97.31351 34.8174 
L 97.676818 34.7928 
L 98.040126 35.42748 
L 98.403433 36.49512 
L 98.766741 36.28356 
L 99.130048 36.6378 
L 99.493356 37.3512 
L 99.856663 37.3512 
L 100.219971 38.31552 
L 100.583279 38.32536 
L 100.946586 37.26264 
L 101.309894 37.26264 
L 101.673201 37.09044 
L 102.036509 37.06092 
L 102.399816 37.34628 
L 102.763124 37.48404 
L 103.126432 37.77924 
L 103.853047 37.45944 
L 104.579662 37.56276 
L 104.94297 37.31184 
L 105.306277 37.33644 
L 105.669585 37.09536 
L 106.032892 36.23928 
L 106.759507 36.11628 
L 107.486123 35.0142 
L 107.84943 35.93424 
L 108.212738 36.36228 
L 108.576045 36.50988 
L 108.939353 36.5148 
L 109.302661 36.25404 
L 109.665968 36.46068 
L 110.029276 34.83708 
L 110.392583 34.57632 
L 111.119198 35.00436 
L 111.482506 34.93056 
L 111.845814 35.088 
L 112.209121 35.78664 
L 112.572429 37.55292 
L 112.935736 37.26756 
L 113.299044 37.46436 
L 114.025659 37.45944 
L 114.388967 38.41392 
L 115.115582 36.95268 
L 115.478889 37.05108 
L 115.842197 38.37948 
L 116.205505 39.20604 
L 116.568812 41.03136 
L 116.93212 42.26628 
L 117.295427 41.73492 
L 117.60214 42.23676 
L 118.253979 44.89356 
L 118.615731 43.6242 
L 119.347653 43.53072 
L 119.713033 43.72752 
L 120.437588 44.436 
L 120.800786 44.49012 
L 121.159725 43.81608 
L 121.503862 43.7226 
L 121.890473 44.5344 
L 122.208145 44.19 
L 122.616513 44.21952 
L 123.340563 44.51472 
L 124.069108 44.3868 
L 124.433509 45.174 
L 124.766124 45.23796 
L 125.158816 44.81484 
L 125.520505 43.821 
L 125.883123 44.01288 
L 126.24215 44.66232 
L 126.613712 43.93908 
L 126.973268 44.39664 
L 127.337421 44.12112 
L 127.698694 44.33268 
L 128.062783 43.3044 
L 128.425918 43.6242 
L 128.786438 44.29824 
L 129.153274 44.53932 
L 129.51767 44.30808 
L 129.878644 43.8702 
L 130.241809 44.00304 
L 130.606546 43.97844 
L 130.969151 43.41756 
L 131.702234 43.48644 
L 132.423517 41.73984 
L 132.789596 41.7546 
L 133.512775 43.14204 
L 133.873955 43.083 
L 134.242696 43.35852 
L 134.606857 43.78164 
L 134.966801 43.21584 
L 135.357167 42.9354 
L 135.697835 43.10268 
L 136.421435 44.25396 
L 137.515054 43.74228 
L 137.881478 43.46676 
L 138.24 43.65372 
L 138.24 43.65372 
" clip-path="url(#p3b9e507721)" style="fill: none; stroke: #4a8dff; stroke-width: 0.6; stroke-linecap: round"/>
   </g>
   <g id="line2d_7">
    <path d="M 5.76 43.452 
L 6.123308 44.79024 
L 6.849923 44.13588 
L 7.21323 44.2638 
L 7.576538 46.9206 
L 7.939845 46.44336 
L 8.303153 47.85048 
L 8.666461 44.74596 
L 9.029768 46.23672 
L 9.393076 44.34252 
L 9.756383 43.41756 
L 10.119691 44.25888 
L 10.482999 43.80624 
L 10.846306 44.23428 
L 11.209614 44.01288 
L 11.572921 43.60452 
L 11.936229 43.85052 
L 12.299536 43.50612 
L 12.662844 43.53072 
L 13.026152 42.35976 
L 13.389459 39.33396 
L 13.752767 39.3192 
L 14.116074 39.18636 
L 14.479382 38.74356 
L 14.84269 38.80752 
L 15.205997 39.2208 
L 15.569305 38.61564 
L 15.932612 38.9994 
L 16.29592 39.00924 
L 16.659227 37.92684 
L 17.022535 37.71528 
L 17.385843 38.17284 
L 17.74915 38.96496 
L 18.112458 38.74848 
L 18.475765 37.71528 
L 18.839073 37.63164 
L 19.20238 34.64028 
L 19.565688 34.69932 
L 19.928996 33.87276 
L 20.292303 34.18764 
L 20.655611 34.73868 
L 21.018918 34.09416 
L 21.382226 34.38444 
L 21.745534 34.33032 
L 22.472149 34.57632 
L 22.835456 33.18396 
L 23.198764 33.38076 
L 23.562071 32.81004 
L 23.925379 31.38816 
L 24.288687 30.45336 
L 24.651994 32.59848 
L 25.015302 32.29344 
L 25.378609 31.78176 
L 25.741917 31.53084 
L 26.105225 31.68336 
L 26.468532 32.28852 
L 27.195147 34.1778 
L 27.558455 33.84324 
L 27.921762 33.3414 
L 28.28507 33.25284 
L 29.011685 33.7842 
L 29.374993 35.34384 
L 29.7383 33.981 
L 30.101608 33.35616 
L 30.464915 33.35124 
L 30.828223 31.09296 
L 31.191531 31.11756 
L 31.554838 31.87524 
L 31.918146 33.20856 
L 32.281453 33.17412 
L 32.644761 33.45456 
L 33.008069 33.4152 
L 33.371376 32.7264 
L 33.734684 33.84816 
L 34.461299 33.84324 
L 35.551222 35.73744 
L 35.914529 33.4398 
L 36.277837 33.20856 
L 36.641144 32.58372 
L 37.004452 32.71164 
L 37.731067 32.53944 
L 38.094375 32.013 
L 38.82099 33.3906 
L 39.184297 31.80144 
L 39.547605 31.41768 
L 39.910913 32.19012 
L 40.27422 32.10156 
L 40.637528 31.60956 
L 41.000835 32.0622 
L 41.364143 31.73748 
L 41.72745 30.56652 
L 42.090758 28.31808 
L 42.454066 27.48168 
L 42.817373 27.55548 
L 43.180681 26.71908 
L 43.543988 26.36484 
L 43.907296 27.42756 
L 44.633911 26.55672 
L 44.997219 27.27504 
L 45.360526 27.31932 
L 45.723834 27.63912 
L 46.087141 27.52596 
L 46.450449 26.3058 
L 46.813757 26.96016 
L 47.177064 27.09792 
L 47.540372 27.49644 
L 47.903679 27.2898 
L 48.266987 26.57148 
L 48.630295 27.27012 
L 49.35691 27.35376 
L 50.083525 29.62188 
L 50.446832 29.96136 
L 50.81014 29.14956 
L 51.173448 28.68216 
L 51.536755 29.184 
L 51.900063 28.7412 
L 52.26337 27.5358 
L 52.626678 27.91956 
L 52.989986 28.00812 
L 53.353293 26.64528 
L 53.716601 26.88636 
L 54.079908 26.1828 
L 54.443216 24.52476 
L 54.806523 27.0684 
L 55.169831 27.59484 
L 55.896446 27.49644 
L 56.259754 28.13112 
L 56.623061 29.8482 
L 56.986369 29.12004 
L 57.349676 30.03024 
L 57.712984 27.84576 
L 58.439599 29.54316 
L 58.802907 31.13232 
L 59.166214 30.31068 
L 59.529522 30.62064 
L 59.89283 29.97612 
L 60.256137 31.97364 
L 60.619445 31.82112 
L 60.982752 32.0868 
L 61.34606 31.63416 
L 61.709367 30.6354 
L 62.072675 30.37464 
L 62.435983 30.86172 
L 62.79929 30.89616 
L 63.162598 31.11756 
L 63.889213 30.22212 
L 64.252521 30.45828 
L 64.615828 29.2578 
L 64.979136 28.50504 
L 65.342443 28.18032 
L 65.705751 28.2738 
L 66.069058 28.569 
L 66.432366 28.55424 
L 66.795674 27.8802 
L 67.158981 28.03272 
L 67.522289 27.69324 
L 67.885596 28.42632 
L 68.248904 28.3968 
L 68.612211 28.60344 
L 68.975519 29.88756 
L 69.338827 30.22212 
L 69.702134 29.58252 
L 70.065442 31.73256 
L 70.428749 31.36356 
L 70.792057 31.39308 
L 71.518672 29.09544 
L 71.88198 29.2332 
L 72.245287 27.02412 
L 72.971902 25.16928 
L 73.33521 25.10532 
L 74.061825 23.92452 
L 74.425133 25.53336 
L 74.78844 24.62808 
L 75.151748 25.4448 
L 75.515056 29.64156 
L 75.878363 30.80268 
L 76.241671 28.65756 
L 76.604978 28.6428 
L 77.331593 30.87156 
L 77.694901 32.17044 
L 78.058209 32.97732 
L 78.421516 32.628 
L 78.784824 31.90476 
L 79.148131 30.92076 
L 79.511439 31.96872 
L 79.874746 32.39676 
L 80.238054 31.19628 
L 80.964669 30.42384 
L 81.327977 29.0118 
L 81.691284 29.15448 
L 82.054592 29.76456 
L 82.4179 31.2012 
L 82.781207 32.09172 
L 83.144515 31.43244 
L 83.87113 30.90108 
L 84.597745 35.35368 
L 84.961053 34.24668 
L 85.32436 35.5062 
L 85.687668 34.48284 
L 86.050975 35.02896 
L 86.414283 33.8334 
L 86.777591 33.243 
L 87.140898 34.69932 
L 87.867513 36.2934 
L 88.230821 38.901 
L 88.594128 38.37948 
L 88.957436 38.92068 
L 89.320744 40.09164 
L 89.684051 39.70788 
L 90.047359 40.4262 
L 90.410666 42.75336 
L 90.773974 43.54548 
L 91.137281 43.72752 
L 91.863897 41.976 
L 92.227204 42.42864 
L 92.590512 40.86408 
L 92.953819 40.47048 
L 94.043742 40.89852 
L 94.40705 42.9354 
L 94.770357 40.43604 
L 95.133665 39.31428 
L 95.496972 40.04244 
L 95.86028 41.43972 
L 96.223588 41.47416 
L 96.586895 41.02152 
L 96.950203 40.7952 
L 97.31351 39.75708 
L 97.676818 40.11132 
L 98.040126 39.87024 
L 98.403433 40.94772 
L 98.766741 40.97232 
L 99.493356 42.87144 
L 99.856663 42.17772 
L 100.219971 43.04364 
L 100.583279 43.34868 
L 100.946586 42.03504 
L 101.673201 41.8038 
L 102.036509 41.84316 
L 102.399816 42.37944 
L 102.763124 42.26628 
L 103.126432 42.468 
L 103.489739 42.42864 
L 103.853047 42.18264 
L 104.216354 42.1728 
L 104.579662 42.50244 
L 104.94297 41.88252 
L 105.306277 42.32532 
L 106.032892 41.13468 
L 106.759507 40.42128 
L 107.122815 39.16176 
L 107.486123 39.28968 
L 107.84943 40.48032 
L 108.939353 40.88376 
L 109.665968 40.53936 
L 110.029276 38.50248 
L 110.392583 37.63656 
L 110.755891 38.34012 
L 111.119198 38.37456 
L 111.482506 38.5812 
L 112.209121 39.8358 
L 112.572429 41.93172 
L 112.935736 41.42004 
L 113.662351 41.39052 
L 114.025659 41.5086 
L 114.388967 42.80256 
L 114.752274 41.93664 
L 115.115582 41.49384 
L 115.478889 41.51352 
L 115.842197 43.78164 
L 116.205505 43.9932 
L 116.568812 46.66968 
L 116.93212 47.55036 
L 117.295427 46.64508 
L 117.890856 48.89352 
L 118.253979 49.84308 
L 118.615731 49.00176 
L 118.987343 49.233 
L 119.347653 48.97716 
L 120.075588 49.36092 
L 120.800786 49.58724 
L 121.159725 49.28712 
L 121.503862 49.16904 
L 121.890473 49.39044 
L 122.208145 49.29696 
L 122.979379 49.55772 
L 124.069108 49.41996 
L 124.433509 49.8234 
L 124.766124 49.86768 
L 125.158816 49.72992 
L 125.520505 49.39536 
L 126.24215 49.6758 
L 126.613712 49.47408 
L 126.973268 49.60692 
L 127.337421 49.37568 
L 127.698694 49.36584 
L 128.062783 48.6672 
L 129.153274 49.54788 
L 129.51767 49.5282 
L 129.878644 49.09032 
L 130.606546 49.2084 
L 130.969151 48.93288 
L 131.702234 48.89844 
L 132.423517 48.1998 
L 132.789596 48.28344 
L 133.153004 48.88368 
L 133.512775 49.04604 
L 133.873955 49.00176 
L 134.606857 49.38552 
L 134.966801 49.04112 
L 135.357167 48.92796 
L 135.697835 48.987 
L 136.421435 49.66104 
L 137.881478 49.40028 
L 138.24 49.56756 
L 138.24 49.56756 
" clip-path="url(#p3b9e507721)" style="fill: none; stroke: #f5841e; stroke-width: 0.7; stroke-linecap: round"/>
   </g>
  </g>
 </g>
 <defs>
  <clipPath id="p3b9e507721">
   <rect x="5.76" y="3.6" width="132.48" height="49.2"/>
  </clipPath>
 </defs>
</svg>
