<?xml version="1.0" encoding="utf-8" standalone="no"?>
<!DOCTYPE svg PUBLIC "-//W3C//DTD SVG 1.1//EN"
  "http://www.w3.org/Graphics/SVG/1.1/DTD/svg11.dtd">
<svg xmlns:xlink="http://www.w3.org/1999/xlink" width="144pt" height="60pt" viewBox="0 0 144 60" xmlns="http://www.w3.org/2000/svg" version="1.1">
  <desc id="nav-meta">{"window":"1y","count":4,"labels":["07.06","06.10","05.02","06.06"],"tick_utc":["2025-06-07T12:00:00Z","2025-10-06T12:00:00Z","2026-02-05T03:20:02Z","2026-06-06T04:41:00Z"]}</desc>

 <metadata>
  <rdf:RDF xmlns:dc="http://purl.org/dc/elements/1.1/" xmlns:cc="http://creativecommons.org/ns#" xmlns:rdf="http://www.w3.org/1999/02/22-rdf-syntax-ns#">
   <cc:Work>
    <dc:type rdf:resource="http://purl.org/dc/dcmitype/StillImage"/>
    <dc:date>2026-06-06T14:19:46.540246</dc:date>
    <dc:format>image/svg+xml</dc:format>
    <dc:creator>
     <cc:Agent>
      <dc:title>Matplotlib v3.10.9, https://matplotlib.org/</dc:title>
     </cc:Agent>
    </dc:creator>
   </cc:Work>
  </rdf:RDF>
 </metadata>
 <defs>
  <style type="text/css">*{stroke-linejoin: round; stroke-linecap: butt}</style>
 </defs>
 <g id="figure_1">
  <g id="patch_1">
   <path d="M 0 60 
L 144 60 
L 144 0 
L 0 0 
L 0 60 
z
" style="fill: none; opacity: 0"/>
  </g>
  <g id="axes_1">
   <g id="patch_2">
    <path d="M 5.76 52.8 
L 138.24 52.8 
L 138.24 3.6 
L 5.76 3.6 
L 5.76 52.8 
z
" style="fill: none"/>
   </g>
   <g id="matplotlib.axis_1"/>
   <g id="matplotlib.axis_2"/>
   <g id="line2d_1">
    <path d="M 5.76 42.96 
L 138.24 42.96 
" clip-path="url(#p046c834651)" style="fill: none; stroke: #b2b2b2; stroke-opacity: 0.35; stroke-width: 0.5; stroke-linecap: square"/>
   </g>
   <g id="line2d_2">
    <path d="M 5.76 33.12 
L 138.24 33.12 
" clip-path="url(#p046c834651)" style="fill: none; stroke: #b2b2b2; stroke-opacity: 0.35; stroke-width: 0.5; stroke-linecap: square"/>
   </g>
   <g id="line2d_3">
    <path d="M 5.76 23.28 
L 138.24 23.28 
" clip-path="url(#p046c834651)" style="fill: none; stroke: #b2b2b2; stroke-opacity: 0.35; stroke-width: 0.5; stroke-linecap: square"/>
   </g>
   <g id="line2d_4">
    <path d="M 5.76 13.44 
L 138.24 13.44 
" clip-path="url(#p046c834651)" style="fill: none; stroke: #b2b2b2; stroke-opacity: 0.35; stroke-width: 0.5; stroke-linecap: square"/>
   </g>
   <g id="line2d_5">
    <path d="M 5.76 42.30564 
L 6.488522 41.7546 
L 6.852783 40.62792 
L 7.217044 40.131 
L 7.581306 40.6476 
L 7.945567 41.73492 
L 8.674089 42.76812 
L 9.03835 41.73492 
L 9.402611 41.89728 
L 9.766872 42.345 
L 10.131133 42.5664 
L 10.495395 42.46308 
L 11.223917 44.20476 
L 11.588178 44.45076 
L 11.952439 42.7632 
L 12.3167 42.63036 
L 12.680961 42.94524 
L 13.045222 43.52088 
L 13.409484 43.1076 
L 13.773745 41.98092 
L 14.502267 41.43972 
L 14.866528 42.4926 
L 15.230789 41.79888 
L 15.59505 41.78412 
L 15.959311 42.37452 
L 16.323573 42.3942 
L 16.687834 41.83332 
L 17.052095 42.24168 
L 17.416356 41.84316 
L 18.144878 40.2786 
L 18.509139 40.42128 
L 18.8734 40.71648 
L 19.601923 40.48032 
L 19.966184 40.26384 
L 20.330445 38.97972 
L 21.058967 38.51724 
L 21.423228 38.57628 
L 21.787489 38.04492 
L 22.151751 36.03264 
L 22.516012 34.88136 
L 22.880273 36.92316 
L 23.244534 37.8432 
L 23.608795 37.37088 
L 23.973056 37.53324 
L 24.337317 37.056 
L 24.701578 37.77924 
L 25.06584 38.02032 
L 25.430101 38.45328 
L 25.794362 39.1962 
L 26.158623 40.41636 
L 26.522884 40.97232 
L 26.887145 40.53444 
L 27.251406 39.55536 
L 27.615667 40.24908 
L 27.979929 39.7128 
L 28.34419 38.778 
L 28.708451 38.59104 
L 29.436973 37.794 
L 29.801234 38.82228 
L 30.165495 36.53448 
L 30.529756 35.334 
L 31.258279 37.44468 
L 31.62254 36.90348 
L 31.986801 36.65748 
L 32.715323 38.64516 
L 33.079584 37.2282 
L 33.443845 38.14332 
L 33.808107 35.53572 
L 34.172368 35.04372 
L 34.536629 34.80264 
L 34.90089 37.23804 
L 35.993673 33.67104 
L 36.357934 34.90596 
L 37.450718 35.9736 
L 37.814979 34.36476 
L 38.17924 34.1778 
L 38.543501 35.22084 
L 38.907762 35.11752 
L 39.272023 35.54556 
L 40.729068 32.44104 
L 41.093329 31.83096 
L 41.45759 30.06468 
L 41.821851 30.01056 
L 42.186112 30.291 
L 42.550374 31.16184 
L 42.914635 30.74856 
L 43.278896 29.71536 
L 43.643157 29.37588 
L 44.007418 30.57636 
L 44.371679 30.42876 
L 44.73594 30.79284 
L 45.100201 32.91828 
L 45.464462 33.72024 
L 45.828724 34.05972 
L 46.192985 36.5886 
L 46.557246 34.90104 
L 46.921507 35.10276 
L 47.285768 34.16796 
L 47.650029 33.8826 
L 48.01429 34.43364 
L 48.742813 31.05852 
L 49.107074 31.26024 
L 49.471335 31.92936 
L 49.835596 31.85064 
L 50.199857 31.3242 
L 50.564118 32.84448 
L 50.928379 31.78176 
L 51.29264 32.85924 
L 51.656902 36.8838 
L 52.021163 38.39424 
L 52.385424 35.95392 
L 52.749685 34.53696 
L 53.113946 35.20608 
L 53.842468 37.57752 
L 54.206729 37.90716 
L 54.570991 37.18884 
L 54.935252 37.18392 
L 55.299513 36.89364 
L 55.663774 37.42008 
L 56.028035 38.17284 
L 56.392296 36.687 
L 56.756557 36.42132 
L 57.120818 36.34752 
L 57.48508 35.56032 
L 57.849341 35.72268 
L 58.213602 36.29832 
L 58.577863 36.32292 
L 58.942124 37.61688 
L 59.306385 37.2282 
L 59.670646 37.34628 
L 60.034907 37.23804 
L 60.399169 40.008 
L 60.76343 41.36592 
L 61.127691 40.43604 
L 61.491952 41.44956 
L 61.856213 40.53444 
L 62.220474 41.02152 
L 62.584735 40.22448 
L 62.948996 39.79644 
L 63.313258 41.51844 
L 63.677519 41.66604 
L 64.406041 43.51596 
L 64.770302 43.43724 
L 65.134563 43.71276 
L 65.498824 44.59836 
L 65.863085 43.30932 
L 66.955869 44.88372 
L 67.32013 44.99688 
L 67.684391 44.57868 
L 68.048652 43.5996 
L 68.412913 43.51596 
L 68.777174 43.00428 
L 69.141436 43.2798 
L 69.505697 43.71768 
L 70.234219 44.0916 
L 70.59848 45.11004 
L 70.962741 43.55532 
L 71.327002 42.72876 
L 72.055525 44.27364 
L 72.784047 44.47536 
L 73.148308 44.25888 
L 73.512569 43.64388 
L 73.87683 43.84068 
L 74.241091 43.85052 
L 74.605352 44.36712 
L 74.969614 44.26872 
L 75.333875 44.74104 
L 75.698136 44.98704 
L 76.062397 44.84436 
L 76.426658 45.58728 
L 76.790919 46.0596 
L 77.15518 45.18384 
L 78.612225 45.47904 
L 78.976486 45.65616 
L 79.340747 45.98088 
L 80.069269 45.38556 
L 80.43353 45.31668 
L 80.797791 45.58728 
L 81.162053 45.35604 
L 81.526314 45.40032 
L 81.890575 45.11496 
L 82.254836 44.42124 
L 82.983358 44.18508 
L 83.71188 43.24044 
L 84.076142 43.8702 
L 84.440403 43.60944 
L 84.804664 43.92924 
L 85.168925 43.93416 
L 85.533186 43.46184 
L 85.897447 43.5012 
L 86.261708 42.72384 
L 86.625969 42.51228 
L 86.990231 43.08792 
L 87.354492 42.75828 
L 87.718753 42.90096 
L 88.447275 44.2392 
L 88.811536 45.23304 
L 89.175797 44.77548 
L 89.90432 45.04608 
L 90.268581 45.07068 
L 90.632842 46.1334 
L 90.997103 45.4446 
L 91.361364 45.06084 
L 91.725625 45.33144 
L 92.089886 46.30068 
L 92.454147 46.34496 
L 92.818409 47.89476 
L 93.18267 48.26376 
L 93.546931 47.96364 
L 94.507998 50.04972 
L 94.8707 49.24776 
L 96.334388 49.59708 
L 96.697338 49.80372 
L 97.06149 49.86768 
L 97.766411 49.24776 
L 98.154037 49.48392 
L 98.472542 49.37568 
L 98.881982 49.479 
L 99.2458 49.7004 
L 100.33839 49.49376 
L 100.703747 49.98576 
L 101.037236 49.96608 
L 101.430958 49.7004 
L 101.793596 49.27236 
L 102.157166 49.37076 
L 102.517135 49.68072 
L 102.889672 49.25268 
L 103.250173 49.51344 
L 104.342547 49.09032 
L 105.801253 49.58724 
L 106.163174 49.36092 
L 106.892986 49.45932 
L 107.256543 49.16904 
L 107.99155 49.27236 
L 108.35684 48.87384 
L 109.081766 48.70164 
L 109.446128 49.03128 
L 109.806843 49.1592 
L 110.168971 49.08048 
L 110.903796 49.36584 
L 111.656076 48.90828 
L 111.997638 49.05096 
L 112.723137 49.64628 
L 114.187012 49.59708 
L 114.546475 49.8726 
L 115.272295 49.80864 
L 116.369138 49.83816 
L 116.73399 49.50852 
L 117.096982 49.68564 
L 117.823286 49.48884 
L 118.560211 49.69056 
L 118.922153 49.40028 
L 119.286136 49.58724 
L 120.375736 49.19856 
L 120.744808 49.43472 
L 121.109971 49.50852 
L 122.926644 49.37568 
L 123.296571 49.4052 
L 123.664757 49.29204 
L 124.029781 49.5528 
L 124.393048 49.50852 
L 124.75792 49.64136 
L 125.481126 49.56264 
L 125.852782 49.57248 
L 126.216917 49.42488 
L 126.573155 49.49376 
L 127.308191 49.25268 
L 127.666389 49.24284 
L 128.031983 48.80004 
L 128.403584 48.85416 
L 129.129922 48.63276 
L 129.495916 48.66228 
L 129.859772 49.09524 
L 130.225829 48.99192 
L 130.95514 49.34616 
L 131.322938 49.47408 
L 132.050154 49.54788 
L 132.416489 49.3314 
L 132.777959 49.34616 
L 133.137216 49.51836 
L 133.876299 49.41504 
L 134.96614 49.7742 
L 136.061377 49.61676 
L 136.791704 49.7988 
L 137.523076 50.45808 
L 137.881338 50.59092 
L 138.24 50.99928 
L 138.24 50.99928 
" clip-path="url(#p046c834651)" style="fill: none; stroke: #bebebe; stroke-width: 0.6; stroke-linecap: round"/>
   </g>
   <g id="line2d_6">
    <path d="M 5.76 40.7706 
L 6.124261 40.4508 
L 6.488522 40.5738 
L 7.217044 38.45328 
L 7.581306 38.68452 
L 7.945567 39.55536 
L 8.309828 40.09164 
L 8.674089 40.39668 
L 9.402611 40.2048 
L 9.766872 40.52952 
L 10.495395 40.48032 
L 11.223917 42.26136 
L 11.588178 42.5664 
L 11.952439 41.17404 
L 12.3167 41.0166 
L 12.680961 41.22324 
L 13.409484 41.17896 
L 13.773745 41.08056 
L 14.138006 40.61808 
L 14.502267 40.7214 
L 14.866528 41.30688 
L 15.230789 40.11132 
L 15.59505 39.99816 
L 15.959311 40.56888 
L 16.323573 40.51476 
L 16.687834 40.131 
L 17.052095 40.3278 
L 17.416356 39.81612 
L 18.144878 37.46436 
L 18.509139 37.39056 
L 18.8734 37.50372 
L 19.601923 37.01172 
L 19.966184 36.16056 
L 20.330445 34.4976 
L 20.694706 33.69072 
L 21.423228 32.89368 
L 21.787489 31.73256 
L 22.151751 31.68336 
L 22.516012 31.8162 
L 22.880273 32.64276 
L 23.244534 32.0868 
L 23.973056 31.85064 
L 24.337317 30.98964 
L 24.701578 31.53576 
L 25.06584 31.521 
L 25.430101 31.38816 
L 25.794362 32.17044 
L 26.158623 33.68088 
L 26.522884 34.28604 
L 26.887145 33.58248 
L 27.251406 32.0376 
L 27.615667 32.76576 
L 27.979929 32.259 
L 28.34419 30.65508 
L 28.708451 29.93676 
L 29.072712 28.14588 
L 29.801234 28.40664 
L 30.165495 25.73508 
L 30.529756 24.62316 
L 30.894018 26.10408 
L 31.258279 26.97984 
L 31.62254 27.00936 
L 31.986801 26.58132 
L 32.351062 27.7818 
L 32.715323 29.49888 
L 33.079584 27.68832 
L 33.443845 28.44108 
L 33.808107 24.16068 
L 34.172368 24.55428 
L 34.536629 24.51984 
L 34.90089 27.32916 
L 35.265151 25.7646 
L 35.629412 26.48784 
L 35.993673 26.43372 
L 36.357934 27.44724 
L 37.086457 27.27504 
L 37.450718 27.8802 
L 37.814979 27.72276 
L 38.17924 26.84208 
L 38.543501 27.91956 
L 38.907762 27.8556 
L 39.272023 28.09668 
L 39.636285 27.87528 
L 40.364807 27.83592 
L 40.729068 27.57024 
L 41.093329 26.77812 
L 41.45759 25.01184 
L 42.186112 25.71048 
L 42.550374 26.31564 
L 42.914635 26.45832 
L 43.278896 25.8384 
L 43.643157 25.84824 
L 44.007418 26.6994 
L 44.371679 26.62068 
L 44.73594 26.8224 
L 45.100201 28.61328 
L 45.828724 28.97244 
L 46.192985 30.99456 
L 46.557246 29.76456 
L 46.921507 29.8974 
L 47.285768 29.02164 
L 47.650029 28.50012 
L 48.01429 29.00688 
L 48.742813 26.601 
L 49.107074 26.3796 
L 49.471335 26.5764 
L 49.835596 26.3796 
L 50.199857 25.1496 
L 50.564118 26.81256 
L 50.928379 26.29596 
L 51.29264 27.41772 
L 51.656902 31.19136 
L 52.021163 31.80144 
L 52.385424 28.89864 
L 52.749685 28.28364 
L 53.842468 30.80268 
L 54.206729 31.22088 
L 54.570991 30.8076 
L 54.935252 30.13356 
L 55.299513 30.17784 
L 56.028035 31.42752 
L 56.392296 31.04376 
L 56.756557 30.49764 
L 57.120818 30.3648 
L 57.48508 28.88388 
L 57.849341 29.15448 
L 58.213602 30.15324 
L 58.942124 31.4226 
L 59.670646 30.9306 
L 60.034907 30.66 
L 60.76343 34.99944 
L 61.127691 34.07448 
L 61.491952 34.9158 
L 61.856213 34.02528 
L 62.220474 34.26144 
L 62.584735 33.0216 
L 62.948996 33.10524 
L 63.313258 34.1532 
L 63.677519 34.2024 
L 64.406041 36.34752 
L 64.770302 35.89488 
L 65.498824 36.94776 
L 65.863085 36.2688 
L 66.227347 36.97236 
L 66.591608 38.286 
L 66.955869 38.76324 
L 67.32013 38.73864 
L 67.684391 38.51724 
L 68.048652 37.42992 
L 68.412913 37.42008 
L 68.777174 36.90348 
L 69.141436 36.98712 
L 69.505697 36.86412 
L 69.869958 37.16424 
L 70.234219 37.14948 
L 70.59848 38.52216 
L 71.327002 35.71776 
L 71.691263 36.15564 
L 72.055525 36.93792 
L 72.784047 36.72636 
L 73.148308 36.21468 
L 73.512569 34.8174 
L 73.87683 34.7928 
L 74.241091 35.42748 
L 74.605352 36.49512 
L 74.969614 36.28356 
L 75.333875 36.6378 
L 75.698136 37.3512 
L 76.062397 37.3512 
L 76.426658 38.31552 
L 76.790919 38.32536 
L 77.15518 37.26264 
L 77.519441 37.26264 
L 77.883703 37.09044 
L 78.247964 37.06092 
L 78.612225 37.34628 
L 78.976486 37.48404 
L 79.340747 37.77924 
L 80.069269 37.45944 
L 80.797791 37.56276 
L 81.162053 37.31184 
L 81.526314 37.33644 
L 81.890575 37.09536 
L 82.254836 36.23928 
L 82.983358 36.11628 
L 83.71188 35.0142 
L 84.076142 35.93424 
L 84.440403 36.36228 
L 84.804664 36.50988 
L 85.168925 36.5148 
L 85.533186 36.25404 
L 85.897447 36.46068 
L 86.261708 34.83708 
L 86.625969 34.57632 
L 87.354492 35.00436 
L 87.718753 34.93056 
L 88.083014 35.088 
L 88.447275 35.78664 
L 88.811536 37.55292 
L 89.175797 37.26756 
L 89.540058 37.46436 
L 90.268581 37.45944 
L 90.632842 38.41392 
L 91.361364 36.95268 
L 91.725625 37.05108 
L 92.089886 38.37948 
L 92.454147 39.20604 
L 92.818409 41.03136 
L 93.18267 42.26628 
L 93.546931 41.73492 
L 93.854449 42.23676 
L 94.507998 44.89356 
L 94.8707 43.6242 
L 95.604542 43.53072 
L 95.970882 43.72752 
L 96.697338 44.436 
L 97.06149 44.49012 
L 97.421371 43.81608 
L 97.766411 43.7226 
L 98.154037 44.5344 
L 98.472542 44.19 
L 98.881982 44.21952 
L 99.607932 44.51472 
L 100.33839 44.3868 
L 100.703747 45.174 
L 101.037236 45.23796 
L 101.430958 44.81484 
L 101.793596 43.821 
L 102.157166 44.01288 
L 102.517135 44.66232 
L 102.889672 43.93908 
L 103.250173 44.39664 
L 103.615281 44.12112 
L 103.977502 44.33268 
L 104.342547 43.3044 
L 104.706635 43.6242 
L 105.068101 44.29824 
L 105.4359 44.53932 
L 105.801253 44.30808 
L 106.163174 43.8702 
L 106.527292 44.00304 
L 106.892986 43.97844 
L 107.256543 43.41756 
L 107.99155 43.48644 
L 108.714726 41.73984 
L 109.081766 41.7546 
L 109.806843 43.14204 
L 110.168971 43.083 
L 110.538679 43.35852 
L 110.903796 43.78164 
L 111.264685 43.21584 
L 111.656076 42.9354 
L 111.997638 43.10268 
L 112.723137 44.25396 
L 113.819626 43.74228 
L 114.187012 43.46676 
L 114.911154 43.79148 
L 115.642041 43.77672 
L 116.007242 43.2552 
L 116.369138 43.40772 
L 116.73399 42.49752 
L 117.096982 42.90588 
L 117.464594 42.8616 
L 117.823286 42.41388 
L 118.560211 42.79764 
L 118.922153 41.57256 
L 119.286136 41.86284 
L 119.651974 41.63652 
L 120.015493 41.85792 
L 120.375736 41.22324 
L 121.109971 42.1482 
L 121.472635 41.96616 
L 121.835766 41.59224 
L 122.566729 41.99076 
L 122.926644 41.91696 
L 123.296571 41.98584 
L 123.664757 41.41512 
L 124.029781 42.15312 
L 124.393048 41.96124 
L 124.75792 42.43848 
L 125.481126 42.02028 
L 125.852782 42.0252 
L 126.216917 41.40528 
L 126.943833 41.52336 
L 127.666389 42.1974 
L 128.031983 41.8776 
L 128.77072 41.8038 
L 129.129922 41.976 
L 129.495916 42.00552 
L 129.859772 42.3942 
L 130.225829 42.27612 
L 131.322938 43.31424 
L 131.68459 43.2306 
L 132.050154 43.39296 
L 132.416489 43.16172 
L 132.777959 43.24536 
L 133.137216 43.71768 
L 133.507245 43.33392 
L 134.603042 43.67832 
L 134.96614 44.32776 
L 135.330671 44.13588 
L 135.689679 44.16048 
L 136.061377 43.96368 
L 136.431026 44.2392 
L 136.791704 44.19984 
L 137.160063 45.16908 
L 137.881338 46.00548 
L 138.24 47.57004 
L 138.24 47.57004 
" clip-path="url(#p046c834651)" style="fill: none; stroke: #4a8dff; stroke-width: 0.6; stroke-linecap: round"/>
   </g>
   <g id="line2d_7">
    <path d="M 5.76 33.981 
L 6.124261 33.35616 
L 6.488522 33.35124 
L 6.852783 31.09296 
L 7.217044 31.11756 
L 7.581306 31.87524 
L 7.945567 33.20856 
L 8.309828 33.17412 
L 8.674089 33.45456 
L 9.03835 33.4152 
L 9.402611 32.7264 
L 9.766872 33.84816 
L 10.495395 33.84324 
L 11.588178 35.73744 
L 11.952439 33.4398 
L 12.3167 33.20856 
L 12.680961 32.58372 
L 13.045222 32.71164 
L 13.773745 32.53944 
L 14.138006 32.013 
L 14.866528 33.3906 
L 15.230789 31.80144 
L 15.59505 31.41768 
L 15.959311 32.19012 
L 16.323573 32.10156 
L 16.687834 31.60956 
L 17.052095 32.0622 
L 17.416356 31.73748 
L 17.780617 30.56652 
L 18.144878 28.31808 
L 18.509139 27.48168 
L 18.8734 27.55548 
L 19.237662 26.71908 
L 19.601923 26.36484 
L 19.966184 27.42756 
L 20.694706 26.55672 
L 21.058967 27.27504 
L 21.423228 27.31932 
L 21.787489 27.63912 
L 22.151751 27.52596 
L 22.516012 26.3058 
L 22.880273 26.96016 
L 23.244534 27.09792 
L 23.608795 27.49644 
L 23.973056 27.2898 
L 24.337317 26.57148 
L 24.701578 27.27012 
L 25.430101 27.35376 
L 26.158623 29.62188 
L 26.522884 29.96136 
L 26.887145 29.14956 
L 27.251406 28.68216 
L 27.615667 29.184 
L 27.979929 28.7412 
L 28.34419 27.5358 
L 28.708451 27.91956 
L 29.072712 28.00812 
L 29.436973 26.64528 
L 29.801234 26.88636 
L 30.165495 26.1828 
L 30.529756 24.52476 
L 30.894018 27.0684 
L 31.258279 27.59484 
L 31.986801 27.49644 
L 32.351062 28.13112 
L 32.715323 29.8482 
L 33.079584 29.12004 
L 33.443845 30.03024 
L 33.808107 27.84576 
L 34.536629 29.54316 
L 34.90089 31.13232 
L 35.265151 30.31068 
L 35.629412 30.62064 
L 35.993673 29.97612 
L 36.357934 31.97364 
L 36.722196 31.82112 
L 37.086457 32.0868 
L 37.450718 31.63416 
L 37.814979 30.6354 
L 38.17924 30.37464 
L 38.543501 30.86172 
L 38.907762 30.89616 
L 39.272023 31.11756 
L 40.000546 30.22212 
L 40.364807 30.45828 
L 40.729068 29.2578 
L 41.093329 28.50504 
L 41.45759 28.18032 
L 41.821851 28.2738 
L 42.186112 28.569 
L 42.550374 28.55424 
L 42.914635 27.8802 
L 43.278896 28.03272 
L 43.643157 27.69324 
L 44.007418 28.42632 
L 44.371679 28.3968 
L 44.73594 28.60344 
L 45.100201 29.88756 
L 45.464462 30.22212 
L 45.828724 29.58252 
L 46.192985 31.73256 
L 46.557246 31.36356 
L 46.921507 31.39308 
L 47.650029 29.09544 
L 48.01429 29.2332 
L 48.378551 27.02412 
L 49.107074 25.16928 
L 49.471335 25.10532 
L 50.199857 23.92452 
L 50.564118 25.53336 
L 50.928379 24.62808 
L 51.29264 25.4448 
L 51.656902 29.64156 
L 52.021163 30.80268 
L 52.385424 28.65756 
L 52.749685 28.6428 
L 53.478207 30.87156 
L 53.842468 32.17044 
L 54.206729 32.97732 
L 54.570991 32.628 
L 54.935252 31.90476 
L 55.299513 30.92076 
L 55.663774 31.96872 
L 56.028035 32.39676 
L 56.392296 31.19628 
L 57.120818 30.42384 
L 57.48508 29.0118 
L 57.849341 29.15448 
L 58.213602 29.76456 
L 58.577863 31.2012 
L 58.942124 32.09172 
L 59.306385 31.43244 
L 60.034907 30.90108 
L 60.76343 35.35368 
L 61.127691 34.24668 
L 61.491952 35.5062 
L 61.856213 34.48284 
L 62.220474 35.02896 
L 62.584735 33.8334 
L 62.948996 33.243 
L 63.313258 34.69932 
L 64.04178 36.2934 
L 64.406041 38.901 
L 64.770302 38.37948 
L 65.134563 38.92068 
L 65.498824 40.09164 
L 65.863085 39.70788 
L 66.227347 40.4262 
L 66.591608 42.75336 
L 66.955869 43.54548 
L 67.32013 43.72752 
L 68.048652 41.976 
L 68.412913 42.42864 
L 68.777174 40.86408 
L 69.141436 40.47048 
L 70.234219 40.89852 
L 70.59848 42.9354 
L 70.962741 40.43604 
L 71.327002 39.31428 
L 71.691263 40.04244 
L 72.055525 41.43972 
L 72.419786 41.47416 
L 72.784047 41.02152 
L 73.148308 40.7952 
L 73.512569 39.75708 
L 73.87683 40.11132 
L 74.241091 39.87024 
L 74.605352 40.94772 
L 74.969614 40.97232 
L 75.698136 42.87144 
L 76.062397 42.17772 
L 76.426658 43.04364 
L 76.790919 43.34868 
L 77.15518 42.03504 
L 77.883703 41.8038 
L 78.247964 41.84316 
L 78.612225 42.37944 
L 78.976486 42.26628 
L 79.340747 42.468 
L 79.705008 42.42864 
L 80.069269 42.18264 
L 80.43353 42.1728 
L 80.797791 42.50244 
L 81.162053 41.88252 
L 81.526314 42.32532 
L 82.254836 41.13468 
L 82.983358 40.42128 
L 83.347619 39.16176 
L 83.71188 39.28968 
L 84.076142 40.48032 
L 85.168925 40.88376 
L 85.897447 40.53936 
L 86.261708 38.50248 
L 86.625969 37.63656 
L 86.990231 38.34012 
L 87.354492 38.37456 
L 87.718753 38.5812 
L 88.447275 39.8358 
L 88.811536 41.93172 
L 89.175797 41.42004 
L 89.90432 41.39052 
L 90.268581 41.5086 
L 90.632842 42.80256 
L 90.997103 41.93664 
L 91.361364 41.49384 
L 91.725625 41.51352 
L 92.089886 43.78164 
L 92.454147 43.9932 
L 92.818409 46.66968 
L 93.18267 47.55036 
L 93.546931 46.64508 
L 94.143923 48.89352 
L 94.507998 49.84308 
L 94.8707 49.00176 
L 95.243287 49.233 
L 95.604542 48.97716 
L 96.334388 49.36092 
L 97.06149 49.58724 
L 97.421371 49.28712 
L 97.766411 49.16904 
L 98.154037 49.39044 
L 98.472542 49.29696 
L 99.2458 49.55772 
L 100.33839 49.41996 
L 100.703747 49.8234 
L 101.037236 49.86768 
L 101.430958 49.72992 
L 101.793596 49.39536 
L 102.517135 49.6758 
L 102.889672 49.47408 
L 103.250173 49.60692 
L 103.615281 49.37568 
L 103.977502 49.36584 
L 104.342547 48.6672 
L 105.4359 49.54788 
L 105.801253 49.5282 
L 106.163174 49.09032 
L 106.892986 49.2084 
L 107.256543 48.93288 
L 107.99155 48.89844 
L 108.714726 48.1998 
L 109.081766 48.28344 
L 109.446128 48.88368 
L 109.806843 49.04604 
L 110.168971 49.00176 
L 110.903796 49.38552 
L 111.264685 49.04112 
L 111.656076 48.92796 
L 111.997638 48.987 
L 112.723137 49.66104 
L 114.187012 49.40028 
L 114.546475 49.56756 
L 115.272295 49.56264 
L 115.642041 49.53312 
L 116.007242 49.25268 
L 116.369138 49.29696 
L 116.73399 48.89352 
L 117.096982 48.96732 
L 117.823286 48.5934 
L 118.194082 48.84432 
L 118.560211 48.95748 
L 118.922153 48.30804 
L 119.286136 48.34248 
L 119.651974 48.21456 
L 120.015493 48.26376 
L 120.375736 47.41752 
L 120.744808 48.05712 
L 121.109971 48.26376 
L 121.472635 48.01776 
L 121.835766 47.23548 
L 122.926644 47.1666 
L 123.296571 47.31912 
L 123.664757 46.49256 
L 124.029781 47.64876 
L 124.393048 47.5356 
L 124.75792 48.0276 
L 125.481126 46.81728 
L 125.852782 46.92552 
L 126.216917 45.85788 
L 126.943833 45.29208 
L 127.308191 45.58728 
L 127.666389 46.2564 
L 128.031983 45.7152 
L 129.495916 45.42492 
L 129.859772 46.38432 
L 130.225829 45.57744 
L 130.58544 46.51716 
L 131.322938 47.54544 
L 132.050154 47.66844 
L 132.416489 47.05344 
L 132.777959 47.22564 
L 133.137216 48.07188 
L 133.876299 47.37324 
L 134.603042 48.07188 
L 134.96614 48.59832 
L 135.330671 48.52452 
L 135.689679 48.5688 
L 136.061377 48.38676 
L 136.431026 48.55404 
L 137.523076 49.93656 
L 137.881338 49.98084 
L 138.24 50.3646 
L 138.24 50.3646 
" clip-path="url(#p046c834651)" style="fill: none; stroke: #f5841e; stroke-width: 0.7; stroke-linecap: round"/>
   </g>
  </g>
 </g>
 <defs>
  <clipPath id="p046c834651">
   <rect x="5.76" y="3.6" width="132.48" height="49.2"/>
  </clipPath>
 </defs>
</svg>
