<?xml version="1.0" encoding="utf-8" standalone="no"?>
<!DOCTYPE svg PUBLIC "-//W3C//DTD SVG 1.1//EN"
  "http://www.w3.org/Graphics/SVG/1.1/DTD/svg11.dtd">
<svg xmlns:xlink="http://www.w3.org/1999/xlink" width="144pt" height="60pt" viewBox="0 0 144 60" xmlns="http://www.w3.org/2000/svg" version="1.1">
  <desc id="nav-meta">{"window":"6m","count":4,"labels":["31.10","30.12","27.02","28.04"],"tick_utc":["2025-10-31T12:00:00Z","2025-12-30T12:00:00Z","2026-02-27T03:18:03Z","2026-04-28T04:25:03Z"]}</desc>

 <metadata>
  <rdf:RDF xmlns:dc="http://purl.org/dc/elements/1.1/" xmlns:cc="http://creativecommons.org/ns#" xmlns:rdf="http://www.w3.org/1999/02/22-rdf-syntax-ns#">
   <cc:Work>
    <dc:type rdf:resource="http://purl.org/dc/dcmitype/StillImage"/>
    <dc:date>2026-04-28T20:05:24.646828</dc:date>
    <dc:format>image/svg+xml</dc:format>
    <dc:creator>
     <cc:Agent>
      <dc:title>Matplotlib v3.10.9, https://matplotlib.org/</dc:title>
     </cc:Agent>
    </dc:creator>
   </cc:Work>
  </rdf:RDF>
 </metadata>
 <defs>
  <style type="text/css">*{stroke-linejoin: round; stroke-linecap: butt}</style>
 </defs>
 <g id="figure_1">
  <g id="patch_1">
   <path d="M 0 60 
L 144 60 
L 144 0 
L 0 0 
L 0 60 
z
" style="fill: none; opacity: 0"/>
  </g>
  <g id="axes_1">
   <g id="patch_2">
    <path d="M 5.76 52.8 
L 138.24 52.8 
L 138.24 3.6 
L 5.76 3.6 
L 5.76 52.8 
z
" style="fill: none"/>
   </g>
   <g id="matplotlib.axis_1"/>
   <g id="matplotlib.axis_2"/>
   <g id="line2d_1">
    <path d="M 5.76 42.96 
L 138.24 42.96 
" clip-path="url(#pa0604fa062)" style="fill: none; stroke: #b2b2b2; stroke-opacity: 0.35; stroke-width: 0.5; stroke-linecap: square"/>
   </g>
   <g id="line2d_2">
    <path d="M 5.76 33.12 
L 138.24 33.12 
" clip-path="url(#pa0604fa062)" style="fill: none; stroke: #b2b2b2; stroke-opacity: 0.35; stroke-width: 0.5; stroke-linecap: square"/>
   </g>
   <g id="line2d_3">
    <path d="M 5.76 23.28 
L 138.24 23.28 
" clip-path="url(#pa0604fa062)" style="fill: none; stroke: #b2b2b2; stroke-opacity: 0.35; stroke-width: 0.5; stroke-linecap: square"/>
   </g>
   <g id="line2d_4">
    <path d="M 5.76 13.44 
L 138.24 13.44 
" clip-path="url(#pa0604fa062)" style="fill: none; stroke: #b2b2b2; stroke-opacity: 0.35; stroke-width: 0.5; stroke-linecap: square"/>
   </g>
   <g id="line2d_5">
    <path d="M 5.76 37.61688 
L 6.50142 37.2282 
L 7.242841 37.34628 
L 7.984261 37.23804 
L 8.725681 40.008 
L 9.467102 41.36592 
L 10.208522 40.43604 
L 10.949942 41.44956 
L 11.691363 40.53444 
L 12.432783 41.02152 
L 13.174203 40.22448 
L 13.915624 39.79644 
L 14.657044 41.51844 
L 15.398465 41.66604 
L 16.139885 42.714 
L 16.881305 43.51596 
L 17.622726 43.43724 
L 18.364146 43.71276 
L 19.105566 44.59836 
L 19.846987 43.30932 
L 20.588407 43.85052 
L 21.329827 44.21952 
L 22.071248 44.88372 
L 22.812668 44.99688 
L 23.554088 44.57868 
L 24.295509 43.5996 
L 25.036929 43.51596 
L 25.778349 43.00428 
L 26.51977 43.2798 
L 27.26119 43.71768 
L 28.744031 44.0916 
L 29.485451 45.11004 
L 30.226872 43.55532 
L 30.968292 42.72876 
L 32.451133 44.27364 
L 33.933973 44.47536 
L 34.675394 44.25888 
L 35.416814 43.64388 
L 36.158234 43.84068 
L 36.899655 43.85052 
L 37.641075 44.36712 
L 38.382495 44.26872 
L 39.123916 44.74104 
L 39.865336 44.98704 
L 40.606756 44.84436 
L 41.348177 45.58728 
L 42.089597 46.0596 
L 42.831017 45.18384 
L 45.796699 45.47904 
L 46.538119 45.65616 
L 47.27954 45.98088 
L 48.76238 45.38556 
L 49.503801 45.31668 
L 50.245221 45.58728 
L 50.986641 45.35604 
L 51.728062 45.40032 
L 52.469482 45.11496 
L 53.210902 44.42124 
L 54.693743 44.18508 
L 55.435163 43.62912 
L 56.176584 43.24044 
L 56.918004 43.8702 
L 57.659424 43.60944 
L 58.400845 43.92924 
L 59.142265 43.93416 
L 59.883685 43.46184 
L 60.625106 43.5012 
L 61.366526 42.72384 
L 62.107947 42.51228 
L 62.849367 43.08792 
L 63.590787 42.75828 
L 64.332208 42.90096 
L 65.815048 44.2392 
L 66.556469 45.23304 
L 67.297889 44.77548 
L 68.78073 45.04608 
L 69.52215 45.07068 
L 70.26357 46.1334 
L 71.004991 45.4446 
L 71.746411 45.06084 
L 72.487831 45.33144 
L 73.229252 46.30068 
L 73.970672 46.34496 
L 74.712092 47.89476 
L 75.453513 48.26376 
L 76.194933 47.96364 
L 77.410056 49.06572 
L 78.151099 50.04972 
L 78.889344 49.24776 
L 81.868549 49.59708 
L 82.607301 49.80372 
L 83.348498 49.86768 
L 84.081003 49.479 
L 84.783301 49.24776 
L 85.572279 49.48392 
L 86.220567 49.37568 
L 87.053944 49.479 
L 87.794463 49.7004 
L 90.018329 49.49376 
L 90.761981 49.98576 
L 91.440767 49.96608 
L 92.242153 49.7004 
L 92.980269 49.27236 
L 93.720282 49.37076 
L 94.452967 49.68072 
L 95.211232 49.25268 
L 95.944998 49.51344 
L 98.168427 49.09032 
L 100.393846 49.64628 
L 101.137489 49.58724 
L 101.874147 49.36092 
L 103.359614 49.45932 
L 104.099601 49.16904 
L 105.59564 49.27236 
L 106.339154 48.87384 
L 107.814675 48.70164 
L 108.556301 49.03128 
L 109.290504 49.1592 
L 110.027583 49.08048 
L 111.523252 49.36584 
L 113.054448 48.90828 
L 113.749667 49.05096 
L 115.226355 49.64628 
L 118.205938 49.59708 
L 118.937593 49.8726 
L 120.414933 49.80864 
L 122.647458 49.83816 
L 123.39008 49.50852 
L 124.128917 49.68564 
L 125.607244 49.48884 
L 126.361965 49.6512 
L 127.107187 49.69056 
L 127.843888 49.40028 
L 128.584742 49.58724 
L 130.802524 49.19856 
L 131.553736 49.43472 
L 132.296992 49.50852 
L 135.994663 49.37568 
L 136.747617 49.4052 
L 137.497026 49.29204 
L 138.24 49.5528 
L 138.24 49.5528 
" clip-path="url(#pa0604fa062)" style="fill: none; stroke: #bebebe; stroke-width: 0.6; stroke-linecap: round"/>
   </g>
   <g id="line2d_6">
    <path d="M 5.76 31.4226 
L 6.50142 31.10772 
L 7.984261 30.66 
L 9.467102 34.99944 
L 10.208522 34.07448 
L 10.949942 34.9158 
L 11.691363 34.02528 
L 12.432783 34.26144 
L 13.174203 33.0216 
L 13.915624 33.10524 
L 14.657044 34.1532 
L 15.398465 34.2024 
L 16.139885 35.4324 
L 16.881305 36.34752 
L 17.622726 35.89488 
L 19.105566 36.94776 
L 19.846987 36.2688 
L 20.588407 36.97236 
L 21.329827 38.286 
L 22.071248 38.76324 
L 22.812668 38.73864 
L 23.554088 38.51724 
L 24.295509 37.42992 
L 25.036929 37.42008 
L 25.778349 36.90348 
L 26.51977 36.98712 
L 27.26119 36.86412 
L 28.00261 37.16424 
L 28.744031 37.14948 
L 29.485451 38.52216 
L 30.968292 35.71776 
L 31.709712 36.15564 
L 32.451133 36.93792 
L 33.933973 36.72636 
L 34.675394 36.21468 
L 35.416814 34.8174 
L 36.158234 34.7928 
L 36.899655 35.42748 
L 37.641075 36.49512 
L 38.382495 36.28356 
L 39.123916 36.6378 
L 39.865336 37.3512 
L 40.606756 37.3512 
L 41.348177 38.31552 
L 42.089597 38.32536 
L 42.831017 37.26264 
L 43.572438 37.26264 
L 44.313858 37.09044 
L 45.055279 37.06092 
L 45.796699 37.34628 
L 46.538119 37.48404 
L 47.27954 37.77924 
L 48.76238 37.45944 
L 50.245221 37.56276 
L 50.986641 37.31184 
L 51.728062 37.33644 
L 52.469482 37.09536 
L 53.210902 36.23928 
L 54.693743 36.11628 
L 55.435163 35.48652 
L 56.176584 35.0142 
L 56.918004 35.93424 
L 57.659424 36.36228 
L 58.400845 36.50988 
L 59.142265 36.5148 
L 59.883685 36.25404 
L 60.625106 36.46068 
L 61.366526 34.83708 
L 62.107947 34.57632 
L 63.590787 35.00436 
L 64.332208 34.93056 
L 65.073628 35.088 
L 65.815048 35.78664 
L 66.556469 37.55292 
L 67.297889 37.26756 
L 68.039309 37.46436 
L 69.52215 37.45944 
L 70.26357 38.41392 
L 71.746411 36.95268 
L 72.487831 37.05108 
L 73.229252 38.37948 
L 73.970672 39.20604 
L 74.712092 41.03136 
L 75.453513 42.26628 
L 76.194933 41.73492 
L 76.820858 42.23676 
L 78.151099 44.89356 
L 78.889344 43.6242 
L 80.383014 43.53072 
L 81.128665 43.72752 
L 82.607301 44.436 
L 83.348498 44.49012 
L 84.081003 43.81608 
L 84.783301 43.7226 
L 85.572279 44.5344 
L 86.220567 44.19 
L 87.053944 44.21952 
L 88.53155 44.51472 
L 90.018329 44.3868 
L 90.761981 45.174 
L 91.440767 45.23796 
L 92.242153 44.81484 
L 92.980269 43.821 
L 93.720282 44.01288 
L 94.452967 44.66232 
L 95.211232 43.93908 
L 95.944998 44.39664 
L 96.688143 44.12112 
L 97.42541 44.33268 
L 98.168427 43.3044 
L 98.909495 43.6242 
L 99.645226 44.29824 
L 100.393846 44.53932 
L 101.137489 44.30808 
L 101.874147 43.8702 
L 102.615276 44.00304 
L 103.359614 43.97844 
L 104.099601 43.41756 
L 105.59564 43.48644 
L 106.339154 42.49752 
L 107.067599 41.73984 
L 107.814675 41.7546 
L 108.556301 42.591 
L 109.290504 43.14204 
L 110.027583 43.083 
L 110.78009 43.35852 
L 111.523252 43.78164 
L 112.257808 43.21584 
L 113.054448 42.9354 
L 113.749667 43.10268 
L 115.226355 44.25396 
L 117.458159 43.74228 
L 118.205938 43.46676 
L 119.679863 43.79148 
L 121.167518 43.77672 
L 121.910852 43.2552 
L 122.647458 43.40772 
L 123.39008 42.49752 
L 124.128917 42.90588 
L 124.87716 42.8616 
L 125.607244 42.41388 
L 127.107187 42.79764 
L 127.843888 41.57256 
L 128.584742 41.86284 
L 129.329372 41.63652 
L 130.069282 41.85792 
L 130.802524 41.22324 
L 131.553736 41.76936 
L 132.296992 42.1482 
L 133.03516 41.96616 
L 133.774281 41.59224 
L 135.26209 41.99076 
L 135.994663 41.91696 
L 136.747617 41.98584 
L 137.497026 41.41512 
L 138.24 42.15312 
L 138.24 42.15312 
" clip-path="url(#pa0604fa062)" style="fill: none; stroke: #4a8dff; stroke-width: 0.6; stroke-linecap: round"/>
   </g>
   <g id="line2d_7">
    <path d="M 5.76 32.09172 
L 6.50142 31.43244 
L 7.984261 30.90108 
L 8.725681 32.93796 
L 9.467102 35.35368 
L 10.208522 34.24668 
L 10.949942 35.5062 
L 11.691363 34.48284 
L 12.432783 35.02896 
L 13.174203 33.8334 
L 13.915624 33.243 
L 14.657044 34.69932 
L 15.398465 35.4078 
L 16.139885 36.2934 
L 16.881305 38.901 
L 17.622726 38.37948 
L 18.364146 38.92068 
L 19.105566 40.09164 
L 19.846987 39.70788 
L 20.588407 40.4262 
L 21.329827 42.75336 
L 22.071248 43.54548 
L 22.812668 43.72752 
L 23.554088 42.6894 
L 24.295509 41.976 
L 25.036929 42.42864 
L 25.778349 40.86408 
L 26.51977 40.47048 
L 28.744031 40.89852 
L 29.485451 42.9354 
L 30.226872 40.43604 
L 30.968292 39.31428 
L 31.709712 40.04244 
L 32.451133 41.43972 
L 33.192553 41.47416 
L 33.933973 41.02152 
L 34.675394 40.7952 
L 35.416814 39.75708 
L 36.158234 40.11132 
L 36.899655 39.87024 
L 37.641075 40.94772 
L 38.382495 40.97232 
L 39.865336 42.87144 
L 40.606756 42.17772 
L 41.348177 43.04364 
L 42.089597 43.34868 
L 42.831017 42.03504 
L 44.313858 41.8038 
L 45.055279 41.84316 
L 45.796699 42.37944 
L 46.538119 42.26628 
L 47.27954 42.468 
L 48.02096 42.42864 
L 48.76238 42.18264 
L 49.503801 42.1728 
L 50.245221 42.50244 
L 50.986641 41.88252 
L 51.728062 42.32532 
L 53.210902 41.13468 
L 54.693743 40.42128 
L 55.435163 39.16176 
L 56.176584 39.28968 
L 56.918004 40.48032 
L 59.142265 40.88376 
L 60.625106 40.53936 
L 61.366526 38.50248 
L 62.107947 37.63656 
L 62.849367 38.34012 
L 63.590787 38.37456 
L 64.332208 38.5812 
L 65.815048 39.8358 
L 66.556469 41.93172 
L 67.297889 41.42004 
L 68.78073 41.39052 
L 69.52215 41.5086 
L 70.26357 42.80256 
L 71.004991 41.93664 
L 71.746411 41.49384 
L 72.487831 41.51352 
L 73.229252 43.78164 
L 73.970672 43.9932 
L 74.712092 46.66968 
L 75.453513 47.55036 
L 76.194933 46.64508 
L 77.410056 48.89352 
L 78.151099 49.84308 
L 78.889344 49.00176 
L 79.647712 49.233 
L 80.383014 48.97716 
L 81.868549 49.36092 
L 83.348498 49.58724 
L 84.081003 49.28712 
L 84.783301 49.16904 
L 85.572279 49.39044 
L 86.220567 49.29696 
L 87.794463 49.55772 
L 90.018329 49.41996 
L 90.761981 49.8234 
L 91.440767 49.86768 
L 92.242153 49.72992 
L 92.980269 49.39536 
L 94.452967 49.6758 
L 95.211232 49.47408 
L 95.944998 49.60692 
L 96.688143 49.37568 
L 97.42541 49.36584 
L 98.168427 48.6672 
L 98.909495 48.95256 
L 99.645226 49.36092 
L 100.393846 49.54788 
L 101.137489 49.5282 
L 101.874147 49.09032 
L 103.359614 49.2084 
L 104.099601 48.93288 
L 105.59564 48.89844 
L 106.339154 48.48024 
L 107.067599 48.1998 
L 107.814675 48.28344 
L 108.556301 48.88368 
L 109.290504 49.04604 
L 110.027583 49.00176 
L 111.523252 49.38552 
L 112.257808 49.04112 
L 113.054448 48.92796 
L 113.749667 48.987 
L 115.226355 49.66104 
L 118.205938 49.40028 
L 118.937593 49.56756 
L 120.414933 49.56264 
L 121.167518 49.53312 
L 121.910852 49.25268 
L 122.647458 49.29696 
L 123.39008 48.89352 
L 124.128917 48.96732 
L 125.607244 48.5934 
L 126.361965 48.84432 
L 127.107187 48.95748 
L 127.843888 48.30804 
L 128.584742 48.34248 
L 129.329372 48.21456 
L 130.069282 48.26376 
L 130.802524 47.41752 
L 131.553736 48.05712 
L 132.296992 48.26376 
L 133.03516 48.01776 
L 133.774281 47.23548 
L 135.994663 47.1666 
L 136.747617 47.31912 
L 137.497026 46.49256 
L 138.24 47.64876 
L 138.24 47.64876 
" clip-path="url(#pa0604fa062)" style="fill: none; stroke: #f5841e; stroke-width: 0.7; stroke-linecap: round"/>
   </g>
  </g>
 </g>
 <defs>
  <clipPath id="pa0604fa062">
   <rect x="5.76" y="3.6" width="132.48" height="49.2"/>
  </clipPath>
 </defs>
</svg>
