<?xml version="1.0" encoding="utf-8" standalone="no"?>
<!DOCTYPE svg PUBLIC "-//W3C//DTD SVG 1.1//EN"
  "http://www.w3.org/Graphics/SVG/1.1/DTD/svg11.dtd">
<svg xmlns:xlink="http://www.w3.org/1999/xlink" width="144pt" height="60pt" viewBox="0 0 144 60" xmlns="http://www.w3.org/2000/svg" version="1.1">
  <desc id="nav-meta">{"window":"1y","count":4,"labels":["30.03","29.07","27.11","29.03"],"tick_utc":["2025-03-30T12:00:00Z","2025-07-29T12:00:00Z","2025-11-27T12:00:00Z","2026-03-29T03:47:09Z"]}</desc>

 <metadata>
  <rdf:RDF xmlns:dc="http://purl.org/dc/elements/1.1/" xmlns:cc="http://creativecommons.org/ns#" xmlns:rdf="http://www.w3.org/1999/02/22-rdf-syntax-ns#">
   <cc:Work>
    <dc:type rdf:resource="http://purl.org/dc/dcmitype/StillImage"/>
    <dc:date>2026-03-29T19:20:08.802950</dc:date>
    <dc:format>image/svg+xml</dc:format>
    <dc:creator>
     <cc:Agent>
      <dc:title>Matplotlib v3.10.8, https://matplotlib.org/</dc:title>
     </cc:Agent>
    </dc:creator>
   </cc:Work>
  </rdf:RDF>
 </metadata>
 <defs>
  <style type="text/css">*{stroke-linejoin: round; stroke-linecap: butt}</style>
 </defs>
 <g id="figure_1">
  <g id="patch_1">
   <path d="M 0 60 
L 144 60 
L 144 0 
L 0 0 
L 0 60 
z
" style="fill: none; opacity: 0"/>
  </g>
  <g id="axes_1">
   <g id="patch_2">
    <path d="M 5.76 52.8 
L 138.24 52.8 
L 138.24 3.6 
L 5.76 3.6 
L 5.76 52.8 
z
" style="fill: none"/>
   </g>
   <g id="matplotlib.axis_1"/>
   <g id="matplotlib.axis_2"/>
   <g id="line2d_1">
    <path d="M 5.76 42.96 
L 138.24 42.96 
" clip-path="url(#p7d60ccd100)" style="fill: none; stroke: #b2b2b2; stroke-opacity: 0.35; stroke-width: 0.5; stroke-linecap: square"/>
   </g>
   <g id="line2d_2">
    <path d="M 5.76 33.12 
L 138.24 33.12 
" clip-path="url(#p7d60ccd100)" style="fill: none; stroke: #b2b2b2; stroke-opacity: 0.35; stroke-width: 0.5; stroke-linecap: square"/>
   </g>
   <g id="line2d_3">
    <path d="M 5.76 23.28 
L 138.24 23.28 
" clip-path="url(#p7d60ccd100)" style="fill: none; stroke: #b2b2b2; stroke-opacity: 0.35; stroke-width: 0.5; stroke-linecap: square"/>
   </g>
   <g id="line2d_4">
    <path d="M 5.76 13.44 
L 138.24 13.44 
" clip-path="url(#p7d60ccd100)" style="fill: none; stroke: #b2b2b2; stroke-opacity: 0.35; stroke-width: 0.5; stroke-linecap: square"/>
   </g>
   <g id="line2d_5">
    <path d="M 5.76 45.40524 
L 6.488597 45.35604 
L 6.852896 45.10512 
L 7.217194 46.24164 
L 7.581493 46.3548 
L 7.945791 45.63648 
L 8.31009 45.97104 
L 8.674389 47.84556 
L 9.038687 47.71272 
L 9.402986 47.88 
L 9.767284 46.12848 
L 10.131583 46.91568 
L 10.86018 44.40648 
L 11.224479 44.91816 
L 11.588777 44.76564 
L 11.953076 45.16908 
L 12.317374 44.49504 
L 12.681673 44.08668 
L 13.045972 44.17032 
L 13.41027 43.43232 
L 14.138867 43.86528 
L 14.503166 42.23676 
L 15.231763 41.7792 
L 16.324659 42.31056 
L 16.688957 42.345 
L 17.053256 42.5418 
L 17.417555 42.37944 
L 17.781853 41.98584 
L 18.146152 42.345 
L 18.51045 42.49752 
L 18.874749 42.86652 
L 19.239048 42.49752 
L 19.967645 42.44832 
L 20.331943 40.33272 
L 20.696242 39.12732 
L 21.06054 38.52216 
L 21.424839 39.10272 
L 21.789138 38.901 
L 22.153436 37.6464 
L 22.882033 39.639 
L 23.610631 40.008 
L 23.974929 39.27492 
L 24.339228 39.90468 
L 24.703526 39.6882 
L 25.432123 38.22696 
L 25.796422 38.901 
L 26.160721 38.69436 
L 26.889318 38.86164 
L 27.253616 38.62056 
L 27.982213 39.88992 
L 28.346512 41.23308 
L 29.439408 41.17404 
L 30.168005 41.62176 
L 30.532304 42.79272 
L 30.896602 42.30564 
L 31.625199 41.7546 
L 31.989498 40.62792 
L 32.353796 40.131 
L 32.718095 40.6476 
L 33.082394 41.73492 
L 33.810991 42.76812 
L 34.175289 41.73492 
L 34.539588 41.89728 
L 34.903887 42.345 
L 35.268185 42.5664 
L 35.632484 42.46308 
L 36.361081 44.20476 
L 36.725379 44.45076 
L 37.089678 42.7632 
L 37.453977 42.63036 
L 37.818275 42.94524 
L 38.182574 43.52088 
L 38.546872 43.1076 
L 38.911171 41.98092 
L 39.639768 41.43972 
L 40.004067 42.4926 
L 40.368365 41.79888 
L 40.732664 41.78412 
L 41.096962 42.37452 
L 41.461261 42.3942 
L 41.82556 41.83332 
L 42.189858 42.24168 
L 42.554157 41.84316 
L 43.282754 40.2786 
L 43.647052 40.42128 
L 44.011351 40.71648 
L 44.739948 40.48032 
L 45.104247 40.26384 
L 45.468545 38.97972 
L 46.197143 38.51724 
L 46.561441 38.57628 
L 46.92574 38.04492 
L 47.290038 36.03264 
L 47.654337 34.88136 
L 48.018635 36.92316 
L 48.382934 37.8432 
L 48.747233 37.37088 
L 49.111531 37.53324 
L 49.47583 37.056 
L 49.840128 37.77924 
L 50.204427 38.02032 
L 50.568726 38.45328 
L 50.933024 39.1962 
L 51.297323 40.41636 
L 51.661621 40.97232 
L 52.02592 40.53444 
L 52.390218 39.55536 
L 52.754517 40.24908 
L 53.118816 39.7128 
L 53.483114 38.778 
L 53.847413 38.59104 
L 54.57601 37.794 
L 54.940309 38.82228 
L 55.304607 36.53448 
L 55.668906 35.334 
L 56.397503 37.44468 
L 56.761801 36.90348 
L 57.1261 36.65748 
L 57.854697 38.64516 
L 58.218996 37.2282 
L 58.583294 38.14332 
L 58.947593 35.53572 
L 59.311892 35.04372 
L 59.67619 34.80264 
L 60.040489 37.23804 
L 61.133384 33.67104 
L 61.497683 34.90596 
L 62.590579 35.9736 
L 62.954877 34.36476 
L 63.319176 34.1778 
L 63.683474 35.22084 
L 64.047773 35.11752 
L 64.412072 35.54556 
L 65.869266 32.44104 
L 66.233565 31.83096 
L 66.597863 30.06468 
L 66.962162 30.01056 
L 67.32646 30.291 
L 67.690759 31.16184 
L 68.055057 30.74856 
L 68.419356 29.71536 
L 68.783655 29.37588 
L 69.147953 30.57636 
L 69.512252 30.42876 
L 69.87655 30.79284 
L 70.240849 32.91828 
L 70.605148 33.72024 
L 70.969446 34.05972 
L 71.333745 36.5886 
L 71.698043 34.90104 
L 72.062342 35.10276 
L 72.42664 34.16796 
L 72.790939 33.8826 
L 73.155238 34.43364 
L 73.883835 31.05852 
L 74.248133 31.26024 
L 74.612432 31.92936 
L 74.976731 31.85064 
L 75.341029 31.3242 
L 75.705328 32.84448 
L 76.069626 31.78176 
L 76.433925 32.85924 
L 76.798223 36.8838 
L 77.162522 38.39424 
L 77.526821 35.95392 
L 77.891119 34.53696 
L 78.255418 35.20608 
L 78.984015 37.57752 
L 79.348313 37.90716 
L 79.712612 37.18884 
L 80.076911 37.18392 
L 80.441209 36.89364 
L 80.805508 37.42008 
L 81.169806 38.17284 
L 81.534105 36.687 
L 81.898404 36.42132 
L 82.262702 36.34752 
L 82.627001 35.56032 
L 82.991299 35.72268 
L 83.355598 36.29832 
L 83.719896 36.32292 
L 84.084195 37.61688 
L 84.448494 37.2282 
L 84.812792 37.34628 
L 85.177091 37.23804 
L 85.541389 40.008 
L 85.905688 41.36592 
L 86.269987 40.43604 
L 86.634285 41.44956 
L 86.998584 40.53444 
L 87.362882 41.02152 
L 87.727181 40.22448 
L 88.091479 39.79644 
L 88.455778 41.51844 
L 88.820077 41.66604 
L 89.548674 43.51596 
L 89.912972 43.43724 
L 90.277271 43.71276 
L 90.64157 44.59836 
L 91.005868 43.30932 
L 92.098764 44.88372 
L 92.463062 44.99688 
L 92.827361 44.57868 
L 93.19166 43.5996 
L 93.555958 43.51596 
L 93.920257 43.00428 
L 94.284555 43.2798 
L 94.648854 43.71768 
L 95.377451 44.0916 
L 95.74175 45.11004 
L 96.106048 43.55532 
L 96.470347 42.72876 
L 97.198944 44.27364 
L 97.927541 44.47536 
L 98.29184 44.25888 
L 98.656138 43.64388 
L 99.020437 43.84068 
L 99.384735 43.85052 
L 99.749034 44.36712 
L 100.113333 44.26872 
L 100.477631 44.74104 
L 100.84193 44.98704 
L 101.206228 44.84436 
L 101.570527 45.58728 
L 101.934826 46.0596 
L 102.299124 45.18384 
L 103.756318 45.47904 
L 104.120617 45.65616 
L 104.484916 45.98088 
L 105.213513 45.38556 
L 105.577811 45.31668 
L 105.94211 45.58728 
L 106.306409 45.35604 
L 106.670707 45.40032 
L 107.035006 45.11496 
L 107.399304 44.42124 
L 108.127901 44.18508 
L 108.856499 43.24044 
L 109.220797 43.8702 
L 109.585096 43.60944 
L 109.949394 43.92924 
L 110.313693 43.93416 
L 110.677992 43.46184 
L 111.04229 43.5012 
L 111.406589 42.72384 
L 111.770887 42.51228 
L 112.135186 43.08792 
L 112.499484 42.75828 
L 112.863783 42.90096 
L 113.59238 44.2392 
L 113.956679 45.23304 
L 114.320977 44.77548 
L 115.049574 45.04608 
L 115.413873 45.07068 
L 115.778172 46.1334 
L 116.14247 45.4446 
L 116.506769 45.06084 
L 116.871067 45.33144 
L 117.235366 46.30068 
L 117.599665 46.34496 
L 117.963963 47.89476 
L 118.328262 48.26376 
L 118.69256 47.96364 
L 119.653727 50.04972 
L 120.016465 49.24776 
L 121.480305 49.59708 
L 121.843292 49.80372 
L 122.207481 49.86768 
L 122.912474 49.24776 
L 123.30014 49.48392 
L 123.618678 49.37568 
L 124.02816 49.479 
L 124.392016 49.7004 
L 125.484718 49.49376 
L 125.850112 49.98576 
L 126.183635 49.96608 
L 126.577398 49.7004 
L 126.940074 49.27236 
L 127.303681 49.37076 
L 127.663687 49.68072 
L 128.036262 49.25268 
L 128.3968 49.51344 
L 129.489287 49.09032 
L 130.948142 49.58724 
L 131.310101 49.36092 
L 132.039988 49.45932 
L 132.403583 49.16904 
L 133.138665 49.27236 
L 133.503992 48.87384 
L 134.228993 48.70164 
L 134.593392 49.03128 
L 134.954145 49.1592 
L 135.31631 49.08048 
L 136.051211 49.36584 
L 136.803567 48.90828 
L 137.145165 49.05096 
L 137.870739 49.64628 
L 138.24 49.6266 
L 138.24 49.6266 
" clip-path="url(#p7d60ccd100)" style="fill: none; stroke: #bebebe; stroke-width: 0.6; stroke-linecap: round"/>
   </g>
   <g id="line2d_6">
    <path d="M 5.76 45.38064 
L 6.124299 45.55284 
L 6.488597 45.41508 
L 6.852896 44.8296 
L 7.217194 45.6168 
L 7.581493 45.45936 
L 8.31009 45.5184 
L 8.674389 47.18136 
L 9.038687 47.3142 
L 9.402986 47.90952 
L 9.767284 46.56144 
L 10.131583 47.54052 
L 10.495882 47.23056 
L 10.86018 46.67952 
L 11.224479 47.03376 
L 11.588777 46.85172 
L 11.953076 47.08788 
L 12.317374 47.16168 
L 13.045972 47.07804 
L 13.41027 46.896 
L 13.774569 47.10756 
L 14.138867 47.16168 
L 14.503166 45.87264 
L 14.867465 45.63156 
L 15.231763 45.80376 
L 15.96036 45.43968 
L 16.324659 45.63156 
L 17.053256 45.61188 
L 17.417555 45.63156 
L 17.781853 45.31176 
L 18.51045 45.3462 
L 18.874749 45.52824 
L 19.603346 45.47412 
L 19.967645 45.51348 
L 20.331943 42.77796 
L 20.696242 41.75952 
L 21.06054 40.04244 
L 21.424839 40.58364 
L 21.789138 40.69188 
L 22.153436 39.38808 
L 22.882033 40.33764 
L 23.246332 40.32288 
L 23.610631 40.81488 
L 23.974929 40.88376 
L 24.339228 40.44588 
L 24.703526 40.46556 
L 25.067825 40.21956 
L 25.432123 39.52584 
L 25.796422 40.49508 
L 26.889318 40.19496 
L 27.253616 39.4914 
L 27.617915 39.38808 
L 27.982213 39.69312 
L 28.346512 40.46556 
L 29.075109 40.36716 
L 29.439408 39.8604 
L 29.803706 39.96372 
L 30.168005 39.85548 
L 30.532304 41.1888 
L 31.260901 40.4508 
L 31.625199 40.5738 
L 32.353796 38.45328 
L 32.718095 38.68452 
L 33.082394 39.55536 
L 33.446692 40.09164 
L 33.810991 40.39668 
L 34.539588 40.2048 
L 34.903887 40.52952 
L 35.632484 40.48032 
L 36.361081 42.26136 
L 36.725379 42.5664 
L 37.089678 41.17404 
L 37.453977 41.0166 
L 37.818275 41.22324 
L 38.546872 41.17896 
L 38.911171 41.08056 
L 39.27547 40.61808 
L 39.639768 40.7214 
L 40.004067 41.30688 
L 40.368365 40.11132 
L 40.732664 39.99816 
L 41.096962 40.56888 
L 41.461261 40.51476 
L 41.82556 40.131 
L 42.189858 40.3278 
L 42.554157 39.81612 
L 43.282754 37.46436 
L 43.647052 37.39056 
L 44.011351 37.50372 
L 44.739948 37.01172 
L 45.104247 36.16056 
L 45.468545 34.4976 
L 45.832844 33.69072 
L 46.561441 32.89368 
L 46.92574 31.73256 
L 47.290038 31.68336 
L 47.654337 31.8162 
L 48.018635 32.64276 
L 48.382934 32.0868 
L 49.111531 31.85064 
L 49.47583 30.98964 
L 49.840128 31.53576 
L 50.204427 31.521 
L 50.568726 31.38816 
L 50.933024 32.17044 
L 51.297323 33.68088 
L 51.661621 34.28604 
L 52.02592 33.58248 
L 52.390218 32.0376 
L 52.754517 32.76576 
L 53.118816 32.259 
L 53.483114 30.65508 
L 53.847413 29.93676 
L 54.211711 28.14588 
L 54.940309 28.40664 
L 55.304607 25.73508 
L 55.668906 24.62316 
L 56.033204 26.10408 
L 56.397503 26.97984 
L 56.761801 27.00936 
L 57.1261 26.58132 
L 57.490399 27.7818 
L 57.854697 29.49888 
L 58.218996 27.68832 
L 58.583294 28.44108 
L 58.947593 24.16068 
L 59.311892 24.55428 
L 59.67619 24.51984 
L 60.040489 27.32916 
L 60.404787 25.7646 
L 60.769086 26.48784 
L 61.133384 26.43372 
L 61.497683 27.44724 
L 62.22628 27.27504 
L 62.590579 27.8802 
L 62.954877 27.72276 
L 63.319176 26.84208 
L 63.683474 27.91956 
L 64.047773 27.8556 
L 64.412072 28.09668 
L 64.77637 27.87528 
L 65.504967 27.83592 
L 65.869266 27.57024 
L 66.233565 26.77812 
L 66.597863 25.01184 
L 67.32646 25.71048 
L 67.690759 26.31564 
L 68.055057 26.45832 
L 68.419356 25.8384 
L 68.783655 25.84824 
L 69.147953 26.6994 
L 69.512252 26.62068 
L 69.87655 26.8224 
L 70.240849 28.61328 
L 70.969446 28.97244 
L 71.333745 30.99456 
L 71.698043 29.76456 
L 72.062342 29.8974 
L 72.42664 29.02164 
L 72.790939 28.50012 
L 73.155238 29.00688 
L 73.883835 26.601 
L 74.248133 26.3796 
L 74.612432 26.5764 
L 74.976731 26.3796 
L 75.341029 25.1496 
L 75.705328 26.81256 
L 76.069626 26.29596 
L 76.433925 27.41772 
L 76.798223 31.19136 
L 77.162522 31.80144 
L 77.526821 28.89864 
L 77.891119 28.28364 
L 78.984015 30.80268 
L 79.348313 31.22088 
L 79.712612 30.8076 
L 80.076911 30.13356 
L 80.441209 30.17784 
L 81.169806 31.42752 
L 81.534105 31.04376 
L 81.898404 30.49764 
L 82.262702 30.3648 
L 82.627001 28.88388 
L 82.991299 29.15448 
L 83.355598 30.15324 
L 84.084195 31.4226 
L 84.812792 30.9306 
L 85.177091 30.66 
L 85.905688 34.99944 
L 86.269987 34.07448 
L 86.634285 34.9158 
L 86.998584 34.02528 
L 87.362882 34.26144 
L 87.727181 33.0216 
L 88.091479 33.10524 
L 88.455778 34.1532 
L 88.820077 34.2024 
L 89.548674 36.34752 
L 89.912972 35.89488 
L 90.64157 36.94776 
L 91.005868 36.2688 
L 91.370167 36.97236 
L 91.734465 38.286 
L 92.098764 38.76324 
L 92.463062 38.73864 
L 92.827361 38.51724 
L 93.19166 37.42992 
L 93.555958 37.42008 
L 93.920257 36.90348 
L 94.284555 36.98712 
L 94.648854 36.86412 
L 95.013153 37.16424 
L 95.377451 37.14948 
L 95.74175 38.52216 
L 96.470347 35.71776 
L 96.834645 36.15564 
L 97.198944 36.93792 
L 97.927541 36.72636 
L 98.29184 36.21468 
L 98.656138 34.8174 
L 99.020437 34.7928 
L 99.384735 35.42748 
L 99.749034 36.49512 
L 100.113333 36.28356 
L 100.477631 36.6378 
L 100.84193 37.3512 
L 101.206228 37.3512 
L 101.570527 38.31552 
L 101.934826 38.32536 
L 102.299124 37.26264 
L 102.663423 37.26264 
L 103.027721 37.09044 
L 103.39202 37.06092 
L 103.756318 37.34628 
L 104.120617 37.48404 
L 104.484916 37.77924 
L 105.213513 37.45944 
L 105.94211 37.56276 
L 106.306409 37.31184 
L 106.670707 37.33644 
L 107.035006 37.09536 
L 107.399304 36.23928 
L 108.127901 36.11628 
L 108.856499 35.0142 
L 109.220797 35.93424 
L 109.585096 36.36228 
L 109.949394 36.50988 
L 110.313693 36.5148 
L 110.677992 36.25404 
L 111.04229 36.46068 
L 111.406589 34.83708 
L 111.770887 34.57632 
L 112.499484 35.00436 
L 112.863783 34.93056 
L 113.228082 35.088 
L 113.59238 35.78664 
L 113.956679 37.55292 
L 114.320977 37.26756 
L 114.685276 37.46436 
L 115.413873 37.45944 
L 115.778172 38.41392 
L 116.506769 36.95268 
L 116.871067 37.05108 
L 117.235366 38.37948 
L 117.599665 39.20604 
L 117.963963 41.03136 
L 118.328262 42.26628 
L 118.69256 41.73492 
L 119.00011 42.23676 
L 119.653727 44.89356 
L 120.016465 43.6242 
L 120.750383 43.53072 
L 121.116761 43.72752 
L 121.843292 44.436 
L 122.207481 44.49012 
L 122.567399 43.81608 
L 122.912474 43.7226 
L 123.30014 44.5344 
L 123.618678 44.19 
L 124.02816 44.21952 
L 124.754185 44.51472 
L 125.484718 44.3868 
L 125.850112 45.174 
L 126.183635 45.23796 
L 126.577398 44.81484 
L 126.940074 43.821 
L 127.303681 44.01288 
L 127.663687 44.66232 
L 128.036262 43.93908 
L 128.3968 44.39664 
L 128.761946 44.12112 
L 129.124204 44.33268 
L 129.489287 43.3044 
L 129.853412 43.6242 
L 130.214915 44.29824 
L 130.582752 44.53932 
L 130.948142 44.30808 
L 131.310101 43.8702 
L 131.674256 44.00304 
L 132.039988 43.97844 
L 132.403583 43.41756 
L 133.138665 43.48644 
L 133.861915 41.73984 
L 134.228993 41.7546 
L 134.954145 43.14204 
L 135.31631 43.083 
L 135.686056 43.35852 
L 136.051211 43.78164 
L 136.412136 43.21584 
L 136.803567 42.9354 
L 137.145165 43.10268 
L 137.870739 44.25396 
L 138.24 44.10636 
L 138.24 44.10636 
" clip-path="url(#p7d60ccd100)" style="fill: none; stroke: #4a8dff; stroke-width: 0.6; stroke-linecap: round"/>
   </g>
   <g id="line2d_7">
    <path d="M 5.76 44.71644 
L 6.124299 44.87388 
L 6.488597 44.79516 
L 6.852896 43.452 
L 7.217194 44.79024 
L 7.945791 44.13588 
L 8.31009 44.2638 
L 8.674389 46.9206 
L 9.038687 46.44336 
L 9.402986 47.85048 
L 9.767284 44.74596 
L 10.131583 46.23672 
L 10.495882 44.34252 
L 10.86018 43.41756 
L 11.224479 44.25888 
L 11.588777 43.80624 
L 11.953076 44.23428 
L 12.317374 44.01288 
L 12.681673 43.60452 
L 13.045972 43.85052 
L 13.41027 43.50612 
L 13.774569 43.53072 
L 14.138867 42.35976 
L 14.503166 39.33396 
L 14.867465 39.3192 
L 15.231763 39.18636 
L 15.596062 38.74356 
L 15.96036 38.80752 
L 16.324659 39.2208 
L 16.688957 38.61564 
L 17.053256 38.9994 
L 17.417555 39.00924 
L 17.781853 37.92684 
L 18.146152 37.71528 
L 18.51045 38.17284 
L 18.874749 38.96496 
L 19.239048 38.74848 
L 19.603346 37.71528 
L 19.967645 37.63164 
L 20.331943 34.64028 
L 20.696242 34.69932 
L 21.06054 33.87276 
L 21.424839 34.18764 
L 21.789138 34.73868 
L 22.153436 34.09416 
L 22.517735 34.38444 
L 22.882033 34.33032 
L 23.610631 34.57632 
L 23.974929 33.18396 
L 24.339228 33.38076 
L 24.703526 32.81004 
L 25.067825 31.38816 
L 25.432123 30.45336 
L 25.796422 32.59848 
L 26.160721 32.29344 
L 26.525019 31.78176 
L 26.889318 31.53084 
L 27.253616 31.68336 
L 27.617915 32.28852 
L 28.346512 34.1778 
L 28.710811 33.84324 
L 29.075109 33.3414 
L 29.439408 33.25284 
L 30.168005 33.7842 
L 30.532304 35.34384 
L 30.896602 33.981 
L 31.260901 33.35616 
L 31.625199 33.35124 
L 31.989498 31.09296 
L 32.353796 31.11756 
L 32.718095 31.87524 
L 33.082394 33.20856 
L 33.446692 33.17412 
L 33.810991 33.45456 
L 34.175289 33.4152 
L 34.539588 32.7264 
L 34.903887 33.84816 
L 35.632484 33.84324 
L 36.725379 35.73744 
L 37.089678 33.4398 
L 37.453977 33.20856 
L 37.818275 32.58372 
L 38.182574 32.71164 
L 38.911171 32.53944 
L 39.27547 32.013 
L 40.004067 33.3906 
L 40.368365 31.80144 
L 40.732664 31.41768 
L 41.096962 32.19012 
L 41.461261 32.10156 
L 41.82556 31.60956 
L 42.189858 32.0622 
L 42.554157 31.73748 
L 42.918455 30.56652 
L 43.282754 28.31808 
L 43.647052 27.48168 
L 44.011351 27.55548 
L 44.37565 26.71908 
L 44.739948 26.36484 
L 45.104247 27.42756 
L 45.832844 26.55672 
L 46.197143 27.27504 
L 46.561441 27.31932 
L 46.92574 27.63912 
L 47.290038 27.52596 
L 47.654337 26.3058 
L 48.018635 26.96016 
L 48.382934 27.09792 
L 48.747233 27.49644 
L 49.111531 27.2898 
L 49.47583 26.57148 
L 49.840128 27.27012 
L 50.568726 27.35376 
L 51.297323 29.62188 
L 51.661621 29.96136 
L 52.02592 29.14956 
L 52.390218 28.68216 
L 52.754517 29.184 
L 53.118816 28.7412 
L 53.483114 27.5358 
L 53.847413 27.91956 
L 54.211711 28.00812 
L 54.57601 26.64528 
L 54.940309 26.88636 
L 55.304607 26.1828 
L 55.668906 24.52476 
L 56.033204 27.0684 
L 56.397503 27.59484 
L 57.1261 27.49644 
L 57.490399 28.13112 
L 57.854697 29.8482 
L 58.218996 29.12004 
L 58.583294 30.03024 
L 58.947593 27.84576 
L 59.67619 29.54316 
L 60.040489 31.13232 
L 60.404787 30.31068 
L 60.769086 30.62064 
L 61.133384 29.97612 
L 61.497683 31.97364 
L 61.861982 31.82112 
L 62.22628 32.0868 
L 62.590579 31.63416 
L 62.954877 30.6354 
L 63.319176 30.37464 
L 63.683474 30.86172 
L 64.047773 30.89616 
L 64.412072 31.11756 
L 65.140669 30.22212 
L 65.504967 30.45828 
L 65.869266 29.2578 
L 66.233565 28.50504 
L 66.597863 28.18032 
L 66.962162 28.2738 
L 67.32646 28.569 
L 67.690759 28.55424 
L 68.055057 27.8802 
L 68.419356 28.03272 
L 68.783655 27.69324 
L 69.147953 28.42632 
L 69.512252 28.3968 
L 69.87655 28.60344 
L 70.240849 29.88756 
L 70.605148 30.22212 
L 70.969446 29.58252 
L 71.333745 31.73256 
L 71.698043 31.36356 
L 72.062342 31.39308 
L 72.790939 29.09544 
L 73.155238 29.2332 
L 73.519536 27.02412 
L 74.248133 25.16928 
L 74.612432 25.10532 
L 75.341029 23.92452 
L 75.705328 25.53336 
L 76.069626 24.62808 
L 76.433925 25.4448 
L 76.798223 29.64156 
L 77.162522 30.80268 
L 77.526821 28.65756 
L 77.891119 28.6428 
L 78.619716 30.87156 
L 78.984015 32.17044 
L 79.348313 32.97732 
L 79.712612 32.628 
L 80.076911 31.90476 
L 80.441209 30.92076 
L 80.805508 31.96872 
L 81.169806 32.39676 
L 81.534105 31.19628 
L 82.262702 30.42384 
L 82.627001 29.0118 
L 82.991299 29.15448 
L 83.355598 29.76456 
L 83.719896 31.2012 
L 84.084195 32.09172 
L 84.448494 31.43244 
L 85.177091 30.90108 
L 85.905688 35.35368 
L 86.269987 34.24668 
L 86.634285 35.5062 
L 86.998584 34.48284 
L 87.362882 35.02896 
L 87.727181 33.8334 
L 88.091479 33.243 
L 88.455778 34.69932 
L 89.184375 36.2934 
L 89.548674 38.901 
L 89.912972 38.37948 
L 90.277271 38.92068 
L 90.64157 40.09164 
L 91.005868 39.70788 
L 91.370167 40.4262 
L 91.734465 42.75336 
L 92.098764 43.54548 
L 92.463062 43.72752 
L 93.19166 41.976 
L 93.555958 42.42864 
L 93.920257 40.86408 
L 94.284555 40.47048 
L 95.377451 40.89852 
L 95.74175 42.9354 
L 96.106048 40.43604 
L 96.470347 39.31428 
L 96.834645 40.04244 
L 97.198944 41.43972 
L 97.563243 41.47416 
L 97.927541 41.02152 
L 98.29184 40.7952 
L 98.656138 39.75708 
L 99.020437 40.11132 
L 99.384735 39.87024 
L 99.749034 40.94772 
L 100.113333 40.97232 
L 100.84193 42.87144 
L 101.206228 42.17772 
L 101.570527 43.04364 
L 101.934826 43.34868 
L 102.299124 42.03504 
L 103.027721 41.8038 
L 103.39202 41.84316 
L 103.756318 42.37944 
L 104.120617 42.26628 
L 104.484916 42.468 
L 104.849214 42.42864 
L 105.213513 42.18264 
L 105.577811 42.1728 
L 105.94211 42.50244 
L 106.306409 41.88252 
L 106.670707 42.32532 
L 107.399304 41.13468 
L 108.127901 40.42128 
L 108.4922 39.16176 
L 108.856499 39.28968 
L 109.220797 40.48032 
L 110.313693 40.88376 
L 111.04229 40.53936 
L 111.406589 38.50248 
L 111.770887 37.63656 
L 112.135186 38.34012 
L 112.499484 38.37456 
L 112.863783 38.5812 
L 113.59238 39.8358 
L 113.956679 41.93172 
L 114.320977 41.42004 
L 115.049574 41.39052 
L 115.413873 41.5086 
L 115.778172 42.80256 
L 116.14247 41.93664 
L 116.506769 41.49384 
L 116.871067 41.51352 
L 117.235366 43.78164 
L 117.599665 43.9932 
L 117.963963 46.66968 
L 118.328262 47.55036 
L 118.69256 46.64508 
L 119.289614 48.89352 
L 119.653727 49.84308 
L 120.016465 49.00176 
L 120.389091 49.233 
L 120.750383 48.97716 
L 121.480305 49.36092 
L 122.207481 49.58724 
L 122.567399 49.28712 
L 122.912474 49.16904 
L 123.30014 49.39044 
L 123.618678 49.29696 
L 124.392016 49.55772 
L 125.484718 49.41996 
L 125.850112 49.8234 
L 126.183635 49.86768 
L 126.577398 49.72992 
L 126.940074 49.39536 
L 127.663687 49.6758 
L 128.036262 49.47408 
L 128.3968 49.60692 
L 128.761946 49.37568 
L 129.124204 49.36584 
L 129.489287 48.6672 
L 130.582752 49.54788 
L 130.948142 49.5282 
L 131.310101 49.09032 
L 132.039988 49.2084 
L 132.403583 48.93288 
L 133.138665 48.89844 
L 133.861915 48.1998 
L 134.228993 48.28344 
L 134.593392 48.88368 
L 134.954145 49.04604 
L 135.31631 49.00176 
L 136.051211 49.38552 
L 136.412136 49.04112 
L 136.803567 48.92796 
L 137.145165 48.987 
L 137.870739 49.66104 
L 138.24 49.56756 
L 138.24 49.56756 
" clip-path="url(#p7d60ccd100)" style="fill: none; stroke: #f5841e; stroke-width: 0.7; stroke-linecap: round"/>
   </g>
  </g>
 </g>
 <defs>
  <clipPath id="p7d60ccd100">
   <rect x="5.76" y="3.6" width="132.48" height="49.2"/>
  </clipPath>
 </defs>
</svg>
