<?xml version="1.0" encoding="utf-8" standalone="no"?>
<!DOCTYPE svg PUBLIC "-//W3C//DTD SVG 1.1//EN"
  "http://www.w3.org/Graphics/SVG/1.1/DTD/svg11.dtd">
<svg xmlns:xlink="http://www.w3.org/1999/xlink" width="144pt" height="60pt" viewBox="0 0 144 60" xmlns="http://www.w3.org/2000/svg" version="1.1">
  <desc id="nav-meta">{"window":"3m","count":4,"labels":["21.03","20.04","19.05","18.06"],"tick_utc":["2026-03-21T03:10:23Z","2026-04-20T04:02:26Z","2026-05-19T04:46:06Z","2026-06-18T05:23:06Z"]}</desc>

 <metadata>
  <rdf:RDF xmlns:dc="http://purl.org/dc/elements/1.1/" xmlns:cc="http://creativecommons.org/ns#" xmlns:rdf="http://www.w3.org/1999/02/22-rdf-syntax-ns#">
   <cc:Work>
    <dc:type rdf:resource="http://purl.org/dc/dcmitype/StillImage"/>
    <dc:date>2026-06-18T21:11:03.393824</dc:date>
    <dc:format>image/svg+xml</dc:format>
    <dc:creator>
     <cc:Agent>
      <dc:title>Matplotlib v3.11.0, https://matplotlib.org/</dc:title>
     </cc:Agent>
    </dc:creator>
   </cc:Work>
  </rdf:RDF>
 </metadata>
 <defs>
  <style type="text/css">*{stroke-linejoin: round; stroke-linecap: butt}</style>
 </defs>
 <g id="figure_1">
  <g id="patch_1">
   <path d="M 0 60 
L 144 60 
L 144 0 
L 0 0 
L 0 60 
z
" style="fill: none; opacity: 0"/>
  </g>
  <g id="axes_1">
   <g id="patch_2">
    <path d="M 5.76 52.8 
L 138.24 52.8 
L 138.24 3.6 
L 5.76 3.6 
L 5.76 52.8 
z
" style="fill: none"/>
   </g>
   <g id="matplotlib.axis_1"/>
   <g id="matplotlib.axis_2"/>
   <g id="line2d_1">
    <path d="M 5.76 42.96 
L 138.24 42.96 
" clip-path="url(#pf22c4aaf0d)" style="fill: none; stroke: #b2b2b2; stroke-opacity: 0.35; stroke-width: 0.5; stroke-linecap: square"/>
   </g>
   <g id="line2d_2">
    <path d="M 5.76 33.12 
L 138.24 33.12 
" clip-path="url(#pf22c4aaf0d)" style="fill: none; stroke: #b2b2b2; stroke-opacity: 0.35; stroke-width: 0.5; stroke-linecap: square"/>
   </g>
   <g id="line2d_3">
    <path d="M 5.76 23.28 
L 138.24 23.28 
" clip-path="url(#pf22c4aaf0d)" style="fill: none; stroke: #b2b2b2; stroke-opacity: 0.35; stroke-width: 0.5; stroke-linecap: square"/>
   </g>
   <g id="line2d_4">
    <path d="M 5.76 13.44 
L 138.24 13.44 
" clip-path="url(#pf22c4aaf0d)" style="fill: none; stroke: #b2b2b2; stroke-opacity: 0.35; stroke-width: 0.5; stroke-linecap: square"/>
   </g>
   <g id="line2d_5">
    <path d="M 5.76 49.08048 
L 7.269236 49.21332 
L 8.759729 49.36584 
L 10.23296 49.11 
L 11.83071 48.90828 
L 13.225047 49.05096 
L 14.713922 49.37076 
L 16.186706 49.64628 
L 17.693962 49.6266 
L 19.185213 49.602 
L 20.662832 49.59708 
L 22.162585 49.59708 
L 23.629999 49.8726 
L 25.118702 49.88244 
L 26.592966 49.80864 
L 28.102356 49.78896 
L 29.593194 49.69056 
L 31.070538 49.83816 
L 32.559947 49.50852 
L 34.041766 49.68564 
L 35.542448 49.6266 
L 37.006712 49.48884 
L 38.520388 49.6512 
L 40.015012 49.69056 
L 41.492545 49.40028 
L 42.978409 49.58724 
L 44.471845 49.45932 
L 45.955815 49.27728 
L 47.426413 49.19856 
L 48.93305 49.43472 
L 50.423733 49.50852 
L 51.904209 49.46424 
L 53.386596 49.31664 
L 54.879619 49.4298 
L 56.37056 49.42488 
L 57.839815 49.37568 
L 59.349946 49.4052 
L 60.852968 49.29204 
L 62.343083 49.5528 
L 63.826021 49.50852 
L 65.315516 49.64136 
L 66.818762 49.56756 
L 68.267812 49.56264 
L 69.784999 49.57248 
L 71.271482 49.42488 
L 72.72573 49.49376 
L 74.238924 49.32156 
L 75.726319 49.25268 
L 77.18857 49.24284 
L 78.681008 48.80004 
L 80.197971 48.85416 
L 81.696708 48.72132 
L 83.163055 48.63276 
L 84.657128 48.66228 
L 86.142475 49.09524 
L 87.636806 48.99192 
L 89.104822 49.19364 
L 90.614023 49.34616 
L 92.115463 49.47408 
L 93.591809 49.47408 
L 95.084126 49.54788 
L 96.579593 49.3314 
L 98.055199 49.34616 
L 99.52177 49.51836 
L 101.032313 49.41996 
L 102.538881 49.41504 
L 104.003352 49.5282 
L 105.505617 49.5774 
L 106.987867 49.7742 
L 108.475968 49.7004 
L 109.941523 49.69548 
L 111.458882 49.61676 
L 112.967876 49.71024 
L 114.440247 49.7988 
L 115.943975 50.19732 
L 117.42588 50.45808 
L 118.888389 50.59092 
L 120.352532 50.99928 
L 121.871492 50.82216 
L 123.365066 50.74344 
L 124.823685 50.62536 
L 126.326105 50.80248 
L 127.821831 50.76312 
L 129.314664 50.65488 
L 130.790787 50.6598 
L 132.288577 50.56632 
L 133.825006 50.39412 
L 135.32049 50.23176 
L 136.760126 50.2416 
L 138.24 50.4138 
" clip-path="url(#pf22c4aaf0d)" style="fill: none; stroke: #bebebe; stroke-width: 0.6; stroke-linecap: round"/>
   </g>
   <g id="line2d_6">
    <path d="M 5.76 43.083 
L 7.269236 43.35852 
L 8.759729 43.78164 
L 10.23296 43.21584 
L 11.83071 42.9354 
L 13.225047 43.10268 
L 14.713922 43.72752 
L 16.186706 44.25396 
L 17.693962 44.10636 
L 19.185213 43.9194 
L 20.662832 43.74228 
L 22.162585 43.46676 
L 23.629999 43.65372 
L 25.118702 43.79148 
L 26.592966 43.81116 
L 28.102356 43.77672 
L 29.593194 43.2552 
L 31.070538 43.40772 
L 32.559947 42.49752 
L 34.041766 42.90588 
L 35.542448 42.8616 
L 37.006712 42.41388 
L 38.520388 42.63036 
L 40.015012 42.79764 
L 41.492545 41.57256 
L 42.978409 41.86284 
L 44.471845 41.63652 
L 45.955815 41.85792 
L 47.426413 41.22324 
L 48.93305 41.76936 
L 50.423733 42.1482 
L 51.904209 41.96616 
L 53.386596 41.59224 
L 54.879619 41.76936 
L 56.37056 41.99076 
L 57.839815 41.91696 
L 59.349946 41.98584 
L 60.852968 41.41512 
L 62.343083 42.15312 
L 63.826021 41.96124 
L 65.315516 42.43848 
L 66.818762 42.20232 
L 68.267812 42.02028 
L 69.784999 42.0252 
L 71.271482 41.40528 
L 72.72573 41.46432 
L 74.238924 41.52336 
L 75.726319 41.86776 
L 77.18857 42.1974 
L 78.681008 41.8776 
L 80.197971 41.84316 
L 81.696708 41.8038 
L 83.163055 41.976 
L 84.657128 42.00552 
L 86.142475 42.3942 
L 87.636806 42.27612 
L 89.104822 42.57624 
L 90.614023 42.85176 
L 92.115463 43.31424 
L 93.591809 43.2306 
L 95.084126 43.39296 
L 96.579593 43.16172 
L 98.055199 43.24536 
L 99.52177 43.71768 
L 101.032313 43.33392 
L 102.538881 43.42248 
L 104.003352 43.51596 
L 105.505617 43.67832 
L 106.987867 44.32776 
L 108.475968 44.13588 
L 109.941523 44.16048 
L 111.458882 43.96368 
L 112.967876 44.2392 
L 114.440247 44.19984 
L 115.943975 45.16908 
L 117.42588 45.67584 
L 118.888389 46.00548 
L 120.352532 47.57004 
L 121.871492 47.04852 
L 123.365066 46.64016 
L 124.823685 46.34496 
L 126.326105 46.82712 
L 127.821831 46.65492 
L 129.314664 46.51716 
L 130.790787 46.5516 
L 132.288577 46.46304 
L 133.825006 46.14816 
L 135.32049 45.84312 
L 136.760126 45.6414 
L 138.24 46.09404 
" clip-path="url(#pf22c4aaf0d)" style="fill: none; stroke: #4a8dff; stroke-width: 0.6; stroke-linecap: round"/>
   </g>
   <g id="line2d_7">
    <path d="M 5.76 49.00176 
L 7.269236 49.20348 
L 8.759729 49.38552 
L 10.23296 49.04112 
L 11.83071 48.92796 
L 13.225047 48.987 
L 14.713922 49.29204 
L 16.186706 49.66104 
L 17.693962 49.56756 
L 19.185213 49.53312 
L 20.662832 49.46424 
L 22.162585 49.40028 
L 23.629999 49.56756 
L 25.118702 49.59708 
L 26.592966 49.56264 
L 28.102356 49.53312 
L 29.593194 49.25268 
L 31.070538 49.29696 
L 32.559947 48.89352 
L 34.041766 48.96732 
L 35.542448 48.8148 
L 37.006712 48.5934 
L 38.520388 48.84432 
L 40.015012 48.95748 
L 41.492545 48.30804 
L 42.978409 48.34248 
L 44.471845 48.21456 
L 45.955815 48.26376 
L 47.426413 47.41752 
L 48.93305 48.05712 
L 50.423733 48.26376 
L 51.904209 48.01776 
L 53.386596 47.23548 
L 54.879619 47.17644 
L 56.37056 47.15676 
L 57.839815 47.1666 
L 59.349946 47.31912 
L 60.852968 46.49256 
L 62.343083 47.64876 
L 63.826021 47.5356 
L 65.315516 48.0276 
L 66.818762 47.50608 
L 68.267812 46.81728 
L 69.784999 46.92552 
L 71.271482 45.85788 
L 72.72573 45.60204 
L 74.238924 45.29208 
L 75.726319 45.58728 
L 77.18857 46.2564 
L 78.681008 45.7152 
L 80.197971 45.63648 
L 81.696708 45.6414 
L 83.163055 45.45936 
L 84.657128 45.42492 
L 86.142475 46.38432 
L 87.636806 45.57744 
L 89.104822 46.51716 
L 90.614023 46.95996 
L 92.115463 47.54544 
L 93.591809 47.59464 
L 95.084126 47.66844 
L 96.579593 47.05344 
L 98.055199 47.22564 
L 99.52177 48.07188 
L 101.032313 47.6832 
L 102.538881 47.37324 
L 104.003352 47.66844 
L 105.505617 48.07188 
L 106.987867 48.59832 
L 108.475968 48.52452 
L 109.941523 48.5688 
L 111.458882 48.38676 
L 112.967876 48.55404 
L 114.440247 49.0116 
L 115.943975 49.57248 
L 117.42588 49.93656 
L 118.888389 49.98084 
L 120.352532 50.3646 
L 121.871492 50.15796 
L 123.365066 50.07432 
L 124.823685 49.99068 
L 126.326105 50.217 
L 127.821831 50.07924 
L 129.314664 49.98084 
L 130.790787 49.971 
L 132.288577 49.87752 
L 133.825006 49.69548 
L 135.32049 49.65612 
L 136.760126 49.7004 
L 138.24 49.92672 
" clip-path="url(#pf22c4aaf0d)" style="fill: none; stroke: #f5841e; stroke-width: 0.7; stroke-linecap: round"/>
   </g>
  </g>
 </g>
 <defs>
  <clipPath id="pf22c4aaf0d">
   <rect x="5.76" y="3.6" width="132.48" height="49.2"/>
  </clipPath>
 </defs>
</svg>
