<?xml version="1.0" encoding="utf-8" standalone="no"?>
<!DOCTYPE svg PUBLIC "-//W3C//DTD SVG 1.1//EN"
  "http://www.w3.org/Graphics/SVG/1.1/DTD/svg11.dtd">
<svg xmlns:xlink="http://www.w3.org/1999/xlink" width="144pt" height="60pt" viewBox="0 0 144 60" xmlns="http://www.w3.org/2000/svg" version="1.1">
  <desc id="nav-meta">{"window":"3m","count":4,"labels":["08.11","08.12","07.01","06.02"],"tick_utc":["2025-11-08T12:00:00Z","2025-12-08T12:00:00Z","2026-01-07T12:00:00Z","2026-02-06T03:19:18Z"]}</desc>

 <metadata>
  <rdf:RDF xmlns:dc="http://purl.org/dc/elements/1.1/" xmlns:cc="http://creativecommons.org/ns#" xmlns:rdf="http://www.w3.org/1999/02/22-rdf-syntax-ns#">
   <cc:Work>
    <dc:type rdf:resource="http://purl.org/dc/dcmitype/StillImage"/>
    <dc:date>2026-02-06T03:19:20.693878</dc:date>
    <dc:format>image/svg+xml</dc:format>
    <dc:creator>
     <cc:Agent>
      <dc:title>Matplotlib v3.10.8, https://matplotlib.org/</dc:title>
     </cc:Agent>
    </dc:creator>
   </cc:Work>
  </rdf:RDF>
 </metadata>
 <defs>
  <style type="text/css">*{stroke-linejoin: round; stroke-linecap: butt}</style>
 </defs>
 <g id="figure_1">
  <g id="patch_1">
   <path d="M 0 60 
L 144 60 
L 144 0 
L 0 0 
L 0 60 
z
" style="fill: none; opacity: 0"/>
  </g>
  <g id="axes_1">
   <g id="patch_2">
    <path d="M 5.76 52.8 
L 138.24 52.8 
L 138.24 3.6 
L 5.76 3.6 
L 5.76 52.8 
z
" style="fill: none"/>
   </g>
   <g id="matplotlib.axis_1"/>
   <g id="matplotlib.axis_2"/>
   <g id="line2d_1">
    <path d="M 5.76 42.96 
L 138.24 42.96 
" clip-path="url(#p09ad8b8997)" style="fill: none; stroke: #b2b2b2; stroke-opacity: 0.35; stroke-width: 0.5; stroke-linecap: square"/>
   </g>
   <g id="line2d_2">
    <path d="M 5.76 33.12 
L 138.24 33.12 
" clip-path="url(#p09ad8b8997)" style="fill: none; stroke: #b2b2b2; stroke-opacity: 0.35; stroke-width: 0.5; stroke-linecap: square"/>
   </g>
   <g id="line2d_3">
    <path d="M 5.76 23.28 
L 138.24 23.28 
" clip-path="url(#p09ad8b8997)" style="fill: none; stroke: #b2b2b2; stroke-opacity: 0.35; stroke-width: 0.5; stroke-linecap: square"/>
   </g>
   <g id="line2d_4">
    <path d="M 5.76 13.44 
L 138.24 13.44 
" clip-path="url(#p09ad8b8997)" style="fill: none; stroke: #b2b2b2; stroke-opacity: 0.35; stroke-width: 0.5; stroke-linecap: square"/>
   </g>
   <g id="line2d_5">
    <path d="M 5.76 40.53444 
L 7.237938 41.02152 
L 8.715876 40.22448 
L 10.193814 39.79644 
L 11.671752 41.51844 
L 13.14969 41.66604 
L 14.627628 42.714 
L 16.105566 43.51596 
L 17.583504 43.43724 
L 19.061442 43.71276 
L 20.53938 44.59836 
L 22.017318 43.30932 
L 23.495256 43.85052 
L 24.973194 44.21952 
L 26.451132 44.88372 
L 27.92907 44.99688 
L 29.407008 44.57868 
L 30.884946 43.5996 
L 32.362884 43.51596 
L 33.840822 43.00428 
L 35.31876 43.2798 
L 36.796698 43.71768 
L 38.274636 43.8948 
L 39.752574 44.0916 
L 41.230512 45.11004 
L 42.70845 43.55532 
L 44.186387 42.72876 
L 45.664325 43.51596 
L 47.142263 44.27364 
L 48.620201 44.40156 
L 50.098139 44.47536 
L 51.576077 44.25888 
L 53.054015 43.64388 
L 54.531953 43.84068 
L 56.009891 43.85052 
L 57.487829 44.36712 
L 58.965767 44.26872 
L 60.443705 44.74104 
L 61.921643 44.98704 
L 63.399581 44.84436 
L 64.877519 45.58728 
L 66.355457 46.0596 
L 67.833395 45.18384 
L 69.311333 45.23796 
L 70.789271 45.20844 
L 72.267209 45.24288 
L 73.745147 45.47904 
L 75.223085 45.65616 
L 76.701023 45.98088 
L 78.178961 45.70536 
L 79.656899 45.38556 
L 81.134837 45.31668 
L 82.612775 45.58728 
L 84.090713 45.35604 
L 85.568651 45.40032 
L 87.046589 45.11496 
L 88.524527 44.42124 
L 90.002465 44.25888 
L 91.480403 44.18508 
L 92.958341 43.62912 
L 94.436279 43.24044 
L 95.914217 43.8702 
L 97.392155 43.60944 
L 98.870093 43.92924 
L 100.348031 43.93416 
L 101.825969 43.46184 
L 103.303907 43.5012 
L 104.781845 42.72384 
L 106.259783 42.51228 
L 107.737721 43.08792 
L 109.215659 42.75828 
L 110.693597 42.90096 
L 112.171535 43.57008 
L 113.649473 44.2392 
L 115.127411 45.23304 
L 116.605349 44.77548 
L 118.083287 44.91816 
L 119.561225 45.04608 
L 121.039162 45.07068 
L 122.5171 46.1334 
L 123.995038 45.4446 
L 125.472976 45.06084 
L 126.950914 45.33144 
L 128.428852 46.30068 
L 129.90679 46.34496 
L 131.384728 47.89476 
L 132.862666 48.26376 
L 134.340604 47.96364 
L 135.588316 48.55896 
L 136.762815 49.06572 
L 138.24 50.04972 
" clip-path="url(#p09ad8b8997)" style="fill: none; stroke: #bebebe; stroke-width: 0.6; stroke-linecap: round"/>
   </g>
   <g id="line2d_6">
    <path d="M 5.76 34.02528 
L 7.237938 34.26144 
L 8.715876 33.0216 
L 10.193814 33.10524 
L 11.671752 34.1532 
L 13.14969 34.2024 
L 14.627628 35.4324 
L 16.105566 36.34752 
L 17.583504 35.89488 
L 19.061442 36.38196 
L 20.53938 36.94776 
L 22.017318 36.2688 
L 23.495256 36.97236 
L 24.973194 38.286 
L 26.451132 38.76324 
L 27.92907 38.73864 
L 29.407008 38.51724 
L 30.884946 37.42992 
L 32.362884 37.42008 
L 33.840822 36.90348 
L 35.31876 36.98712 
L 36.796698 36.86412 
L 38.274636 37.16424 
L 39.752574 37.14948 
L 41.230512 38.52216 
L 42.70845 37.1298 
L 44.186387 35.71776 
L 45.664325 36.15564 
L 47.142263 36.93792 
L 48.620201 36.81984 
L 50.098139 36.72636 
L 51.576077 36.21468 
L 53.054015 34.8174 
L 54.531953 34.7928 
L 56.009891 35.42748 
L 57.487829 36.49512 
L 58.965767 36.28356 
L 60.443705 36.6378 
L 61.921643 37.3512 
L 63.399581 37.3512 
L 64.877519 38.31552 
L 66.355457 38.32536 
L 67.833395 37.26264 
L 69.311333 37.26264 
L 70.789271 37.09044 
L 72.267209 37.06092 
L 73.745147 37.34628 
L 75.223085 37.48404 
L 76.701023 37.77924 
L 78.178961 37.61688 
L 79.656899 37.45944 
L 81.134837 37.46928 
L 82.612775 37.56276 
L 84.090713 37.31184 
L 85.568651 37.33644 
L 87.046589 37.09536 
L 88.524527 36.23928 
L 90.002465 36.20976 
L 91.480403 36.11628 
L 92.958341 35.48652 
L 94.436279 35.0142 
L 95.914217 35.93424 
L 97.392155 36.36228 
L 98.870093 36.50988 
L 100.348031 36.5148 
L 101.825969 36.25404 
L 103.303907 36.46068 
L 104.781845 34.83708 
L 106.259783 34.57632 
L 107.737721 34.84692 
L 109.215659 35.00436 
L 110.693597 34.93056 
L 112.171535 35.088 
L 113.649473 35.78664 
L 115.127411 37.55292 
L 116.605349 37.26756 
L 118.083287 37.46436 
L 119.561225 37.44468 
L 121.039162 37.45944 
L 122.5171 38.41392 
L 123.995038 37.61196 
L 125.472976 36.95268 
L 126.950914 37.05108 
L 128.428852 38.37948 
L 129.90679 39.20604 
L 131.384728 41.03136 
L 132.862666 42.26628 
L 134.340604 41.73492 
L 135.588316 42.23676 
L 136.762815 43.38804 
L 138.24 44.89356 
" clip-path="url(#p09ad8b8997)" style="fill: none; stroke: #4a8dff; stroke-width: 0.7; stroke-linecap: round"/>
   </g>
   <g id="line2d_7">
    <path d="M 5.76 34.48284 
L 7.237938 35.02896 
L 8.715876 33.8334 
L 10.193814 33.243 
L 11.671752 34.69932 
L 13.14969 35.4078 
L 14.627628 36.2934 
L 16.105566 38.901 
L 17.583504 38.37948 
L 19.061442 38.92068 
L 20.53938 40.09164 
L 22.017318 39.70788 
L 23.495256 40.4262 
L 24.973194 42.75336 
L 26.451132 43.54548 
L 27.92907 43.72752 
L 29.407008 42.6894 
L 30.884946 41.976 
L 32.362884 42.42864 
L 33.840822 40.86408 
L 35.31876 40.47048 
L 36.796698 40.63284 
L 38.274636 40.68204 
L 39.752574 40.89852 
L 41.230512 42.9354 
L 42.70845 40.43604 
L 44.186387 39.31428 
L 45.664325 40.04244 
L 47.142263 41.43972 
L 48.620201 41.47416 
L 50.098139 41.02152 
L 51.576077 40.7952 
L 53.054015 39.75708 
L 54.531953 40.11132 
L 56.009891 39.87024 
L 57.487829 40.94772 
L 58.965767 40.97232 
L 60.443705 41.976 
L 61.921643 42.87144 
L 63.399581 42.17772 
L 64.877519 43.04364 
L 66.355457 43.34868 
L 67.833395 42.03504 
L 69.311333 41.91696 
L 70.789271 41.8038 
L 72.267209 41.84316 
L 73.745147 42.37944 
L 75.223085 42.26628 
L 76.701023 42.468 
L 78.178961 42.42864 
L 79.656899 42.18264 
L 81.134837 42.1728 
L 82.612775 42.50244 
L 84.090713 41.88252 
L 85.568651 42.32532 
L 87.046589 41.73 
L 88.524527 41.13468 
L 90.002465 40.80504 
L 91.480403 40.42128 
L 92.958341 39.16176 
L 94.436279 39.28968 
L 95.914217 40.48032 
L 97.392155 40.61316 
L 98.870093 40.84932 
L 100.348031 40.88376 
L 101.825969 40.6968 
L 103.303907 40.53936 
L 104.781845 38.50248 
L 106.259783 37.63656 
L 107.737721 38.34012 
L 109.215659 38.37456 
L 110.693597 38.5812 
L 112.171535 39.2454 
L 113.649473 39.8358 
L 115.127411 41.93172 
L 116.605349 41.42004 
L 118.083287 41.37576 
L 119.561225 41.39052 
L 121.039162 41.5086 
L 122.5171 42.80256 
L 123.995038 41.93664 
L 125.472976 41.49384 
L 126.950914 41.51352 
L 128.428852 43.78164 
L 129.90679 43.9932 
L 131.384728 46.66968 
L 132.862666 47.55036 
L 134.340604 46.64508 
L 135.588316 47.89476 
L 136.762815 48.89352 
L 138.24 49.84308 
" clip-path="url(#p09ad8b8997)" style="fill: none; stroke: #f5841e; stroke-width: 0.8; stroke-linecap: round"/>
   </g>
  </g>
 </g>
 <defs>
  <clipPath id="p09ad8b8997">
   <rect x="5.76" y="3.6" width="132.48" height="49.2"/>
  </clipPath>
 </defs>
</svg>
