<?xml version="1.0" encoding="utf-8" standalone="no"?>
<!DOCTYPE svg PUBLIC "-//W3C//DTD SVG 1.1//EN"
  "http://www.w3.org/Graphics/SVG/1.1/DTD/svg11.dtd">
<svg xmlns:xlink="http://www.w3.org/1999/xlink" width="144pt" height="60pt" viewBox="0 0 144 60" xmlns="http://www.w3.org/2000/svg" version="1.1">
  <desc id="nav-meta">{"window":"6m","count":4,"labels":["02.01","03.03","01.05","30.06"],"tick_utc":["2026-01-02T12:00:00Z","2026-03-03T03:22:17Z","2026-05-01T04:39:16Z","2026-06-30T04:49:55Z"]}</desc>

 <metadata>
  <rdf:RDF xmlns:dc="http://purl.org/dc/elements/1.1/" xmlns:cc="http://creativecommons.org/ns#" xmlns:rdf="http://www.w3.org/1999/02/22-rdf-syntax-ns#">
   <cc:Work>
    <dc:type rdf:resource="http://purl.org/dc/dcmitype/StillImage"/>
    <dc:date>2026-06-30T20:32:40.058320</dc:date>
    <dc:format>image/svg+xml</dc:format>
    <dc:creator>
     <cc:Agent>
      <dc:title>Matplotlib v3.11.0, https://matplotlib.org/</dc:title>
     </cc:Agent>
    </dc:creator>
   </cc:Work>
  </rdf:RDF>
 </metadata>
 <defs>
  <style type="text/css">*{stroke-linejoin: round; stroke-linecap: butt}</style>
 </defs>
 <g id="figure_1">
  <g id="patch_1">
   <path d="M 0 60 
L 144 60 
L 144 0 
L 0 0 
L 0 60 
z
" style="fill: none; opacity: 0"/>
  </g>
  <g id="axes_1">
   <g id="patch_2">
    <path d="M 5.76 52.8 
L 138.24 52.8 
L 138.24 3.6 
L 5.76 3.6 
L 5.76 52.8 
z
" style="fill: none"/>
   </g>
   <g id="matplotlib.axis_1"/>
   <g id="matplotlib.axis_2"/>
   <g id="line2d_1">
    <path d="M 5.76 42.96 
L 138.24 42.96 
" clip-path="url(#p653931fdda)" style="fill: none; stroke: #b2b2b2; stroke-opacity: 0.35; stroke-width: 0.5; stroke-linecap: square"/>
   </g>
   <g id="line2d_2">
    <path d="M 5.76 33.12 
L 138.24 33.12 
" clip-path="url(#p653931fdda)" style="fill: none; stroke: #b2b2b2; stroke-opacity: 0.35; stroke-width: 0.5; stroke-linecap: square"/>
   </g>
   <g id="line2d_3">
    <path d="M 5.76 23.28 
L 138.24 23.28 
" clip-path="url(#p653931fdda)" style="fill: none; stroke: #b2b2b2; stroke-opacity: 0.35; stroke-width: 0.5; stroke-linecap: square"/>
   </g>
   <g id="line2d_4">
    <path d="M 5.76 13.44 
L 138.24 13.44 
" clip-path="url(#p653931fdda)" style="fill: none; stroke: #b2b2b2; stroke-opacity: 0.35; stroke-width: 0.5; stroke-linecap: square"/>
   </g>
   <g id="line2d_5">
    <path d="M 5.76 45.11496 
L 6.501349 44.42124 
L 7.984046 44.18508 
L 8.725395 43.62912 
L 9.466744 43.24044 
L 10.208092 43.8702 
L 10.949441 43.60944 
L 11.69079 43.92924 
L 12.432138 43.93416 
L 13.173487 43.46184 
L 13.914836 43.5012 
L 14.656184 42.72384 
L 15.397533 42.51228 
L 16.138882 43.08792 
L 16.880231 42.75828 
L 17.621579 42.90096 
L 19.104277 44.2392 
L 19.845625 45.23304 
L 20.586974 44.77548 
L 22.069671 45.04608 
L 22.81102 45.07068 
L 23.552369 46.1334 
L 24.293718 45.4446 
L 25.035066 45.06084 
L 25.776415 45.33144 
L 26.517764 46.30068 
L 27.259112 46.34496 
L 28.000461 47.89476 
L 28.74181 48.26376 
L 29.483159 47.96364 
L 30.698164 49.06572 
L 31.439135 50.04972 
L 32.177309 49.24776 
L 35.156226 49.59708 
L 35.894907 49.80372 
L 36.636032 49.86768 
L 37.368466 49.479 
L 38.070696 49.24776 
L 38.859598 49.48392 
L 39.507823 49.37568 
L 40.34112 49.479 
L 41.081568 49.7004 
L 43.305219 49.49376 
L 44.048799 49.98576 
L 44.727519 49.96608 
L 45.528827 49.7004 
L 46.266873 49.27236 
L 47.006814 49.37076 
L 47.739428 49.68072 
L 48.49762 49.25268 
L 49.231315 49.51344 
L 51.454529 49.09032 
L 53.679733 49.64628 
L 54.423304 49.58724 
L 55.159891 49.36092 
L 56.645214 49.45932 
L 57.38513 49.16904 
L 58.881024 49.27236 
L 59.624466 48.87384 
L 61.099844 48.70164 
L 61.841399 49.03128 
L 62.575532 49.1592 
L 63.312539 49.08048 
L 64.808064 49.36584 
L 66.339112 48.90828 
L 67.034264 49.05096 
L 68.510809 49.64628 
L 71.490104 49.59708 
L 72.221688 49.8726 
L 73.698885 49.80864 
L 75.931195 49.83816 
L 76.673745 49.50852 
L 77.412511 49.68564 
L 78.890695 49.48884 
L 79.645343 49.6512 
L 80.390493 49.69056 
L 81.127122 49.40028 
L 81.867905 49.58724 
L 84.085473 49.19856 
L 84.836612 49.43472 
L 85.579796 49.50852 
L 89.27711 49.37568 
L 90.029991 49.4052 
L 90.779328 49.29204 
L 91.52223 49.5528 
L 92.261553 49.50852 
L 93.004146 49.64136 
L 94.476024 49.56264 
L 95.232423 49.57248 
L 95.973514 49.42488 
L 96.698534 49.49376 
L 98.194488 49.25268 
L 98.923498 49.24284 
L 99.667558 48.80004 
L 100.423846 48.85416 
L 101.902098 48.63276 
L 102.646974 48.66228 
L 103.387499 49.09524 
L 104.132503 48.99192 
L 105.616804 49.34616 
L 106.365352 49.47408 
L 107.84539 49.54788 
L 108.59096 49.3314 
L 109.326628 49.34616 
L 110.057792 49.51836 
L 111.561983 49.41504 
L 113.78004 49.7742 
L 116.00908 49.61676 
L 117.49545 49.7988 
L 118.245139 50.19732 
L 118.983948 50.45808 
L 119.713087 50.59092 
L 120.443041 50.99928 
L 121.94495 50.74344 
L 122.672149 50.62536 
L 123.421186 50.80248 
L 126.393797 50.56632 
L 127.905367 50.23176 
L 128.623103 50.2416 
L 130.119709 50.55156 
L 132.351237 50.217 
L 134.53342 50.59092 
L 135.278569 50.59092 
L 136.010831 50.33016 
L 136.766312 50.4384 
L 137.513024 50.3892 
L 138.24 50.22192 
L 138.24 50.22192 
" clip-path="url(#p653931fdda)" style="fill: none; stroke: #bebebe; stroke-width: 0.6; stroke-linecap: round"/>
   </g>
   <g id="line2d_6">
    <path d="M 5.76 37.09536 
L 6.501349 36.23928 
L 7.984046 36.11628 
L 8.725395 35.48652 
L 9.466744 35.0142 
L 10.208092 35.93424 
L 10.949441 36.36228 
L 11.69079 36.50988 
L 12.432138 36.5148 
L 13.173487 36.25404 
L 13.914836 36.46068 
L 14.656184 34.83708 
L 15.397533 34.57632 
L 16.880231 35.00436 
L 17.621579 34.93056 
L 18.362928 35.088 
L 19.104277 35.78664 
L 19.845625 37.55292 
L 20.586974 37.26756 
L 21.328323 37.46436 
L 22.81102 37.45944 
L 23.552369 38.41392 
L 25.035066 36.95268 
L 25.776415 37.05108 
L 26.517764 38.37948 
L 27.259112 39.20604 
L 28.000461 41.03136 
L 28.74181 42.26628 
L 29.483159 41.73492 
L 30.109023 42.23676 
L 31.439135 44.89356 
L 32.177309 43.6242 
L 33.670835 43.53072 
L 34.416414 43.72752 
L 35.894907 44.436 
L 36.636032 44.49012 
L 37.368466 43.81608 
L 38.070696 43.7226 
L 38.859598 44.5344 
L 39.507823 44.19 
L 40.34112 44.21952 
L 41.818583 44.51472 
L 43.305219 44.3868 
L 44.048799 45.174 
L 44.727519 45.23796 
L 45.528827 44.81484 
L 46.266873 43.821 
L 47.006814 44.01288 
L 47.739428 44.66232 
L 48.49762 43.93908 
L 49.231315 44.39664 
L 49.974388 44.12112 
L 50.711584 44.33268 
L 51.454529 43.3044 
L 52.195526 43.6242 
L 52.931186 44.29824 
L 53.679733 44.53932 
L 54.423304 44.30808 
L 55.159891 43.8702 
L 55.900948 44.00304 
L 56.645214 43.97844 
L 57.38513 43.41756 
L 58.881024 43.48644 
L 59.624466 42.49752 
L 60.352841 41.73984 
L 61.099844 41.7546 
L 61.841399 42.591 
L 62.575532 43.14204 
L 63.312539 43.083 
L 64.064973 43.35852 
L 64.808064 43.78164 
L 65.542548 43.21584 
L 66.339112 42.9354 
L 67.034264 43.10268 
L 68.510809 44.25396 
L 70.742397 43.74228 
L 71.490104 43.46676 
L 72.963886 43.79148 
L 74.451397 43.77672 
L 75.194659 43.2552 
L 75.931195 43.40772 
L 76.673745 42.49752 
L 77.412511 42.90588 
L 78.160681 42.8616 
L 78.890695 42.41388 
L 80.390493 42.79764 
L 81.127122 41.57256 
L 81.867905 41.86284 
L 82.612462 41.63652 
L 83.352301 41.85792 
L 84.085473 41.22324 
L 84.836612 41.76936 
L 85.579796 42.1482 
L 86.317893 41.96616 
L 87.056942 41.59224 
L 88.544608 41.99076 
L 89.27711 41.91696 
L 90.029991 41.98584 
L 90.779328 41.41512 
L 91.52223 42.15312 
L 92.261553 41.96124 
L 93.004146 42.43848 
L 94.476024 42.02028 
L 95.232423 42.0252 
L 95.973514 41.40528 
L 97.452942 41.52336 
L 98.923498 42.1974 
L 99.667558 41.8776 
L 101.171046 41.8038 
L 101.902098 41.976 
L 102.646974 42.00552 
L 103.387499 42.3942 
L 104.132503 42.27612 
L 105.616804 42.85176 
L 106.365352 43.31424 
L 107.10139 43.2306 
L 107.84539 43.39296 
L 108.59096 43.16172 
L 109.326628 43.24536 
L 110.057792 43.71768 
L 110.810879 43.33392 
L 113.04106 43.67832 
L 113.78004 44.32776 
L 114.521938 44.13588 
L 115.252596 44.16048 
L 116.00908 43.96368 
L 116.761395 44.2392 
L 117.49545 44.19984 
L 118.245139 45.16908 
L 118.983948 45.67584 
L 119.713087 46.00548 
L 120.443041 47.57004 
L 121.94495 46.64016 
L 122.672149 46.34496 
L 123.421186 46.82712 
L 124.911142 46.51716 
L 125.647068 46.5516 
L 126.393797 46.46304 
L 128.623103 45.6414 
L 129.360899 46.09404 
L 130.119709 46.3302 
L 132.351237 46.035 
L 133.048268 46.14324 
L 135.278569 47.38308 
L 136.010831 47.14692 
L 137.513024 47.22072 
L 138.24 47.10264 
L 138.24 47.10264 
" clip-path="url(#p653931fdda)" style="fill: none; stroke: #4a8dff; stroke-width: 0.6; stroke-linecap: round"/>
   </g>
   <g id="line2d_7">
    <path d="M 5.76 41.73 
L 6.501349 41.13468 
L 7.984046 40.42128 
L 8.725395 39.16176 
L 9.466744 39.28968 
L 10.208092 40.48032 
L 12.432138 40.88376 
L 13.914836 40.53936 
L 14.656184 38.50248 
L 15.397533 37.63656 
L 16.138882 38.34012 
L 16.880231 38.37456 
L 17.621579 38.5812 
L 19.104277 39.8358 
L 19.845625 41.93172 
L 20.586974 41.42004 
L 22.069671 41.39052 
L 22.81102 41.5086 
L 23.552369 42.80256 
L 24.293718 41.93664 
L 25.035066 41.49384 
L 25.776415 41.51352 
L 26.517764 43.78164 
L 27.259112 43.9932 
L 28.000461 46.66968 
L 28.74181 47.55036 
L 29.483159 46.64508 
L 30.698164 48.89352 
L 31.439135 49.84308 
L 32.177309 49.00176 
L 32.935604 49.233 
L 33.670835 48.97716 
L 35.156226 49.36092 
L 36.636032 49.58724 
L 37.368466 49.28712 
L 38.070696 49.16904 
L 38.859598 49.39044 
L 39.507823 49.29696 
L 41.081568 49.55772 
L 43.305219 49.41996 
L 44.048799 49.8234 
L 44.727519 49.86768 
L 45.528827 49.72992 
L 46.266873 49.39536 
L 47.739428 49.6758 
L 48.49762 49.47408 
L 49.231315 49.60692 
L 49.974388 49.37568 
L 50.711584 49.36584 
L 51.454529 48.6672 
L 52.195526 48.95256 
L 52.931186 49.36092 
L 53.679733 49.54788 
L 54.423304 49.5282 
L 55.159891 49.09032 
L 56.645214 49.2084 
L 57.38513 48.93288 
L 58.881024 48.89844 
L 59.624466 48.48024 
L 60.352841 48.1998 
L 61.099844 48.28344 
L 61.841399 48.88368 
L 62.575532 49.04604 
L 63.312539 49.00176 
L 64.808064 49.38552 
L 65.542548 49.04112 
L 66.339112 48.92796 
L 67.034264 48.987 
L 68.510809 49.66104 
L 71.490104 49.40028 
L 72.221688 49.56756 
L 73.698885 49.56264 
L 74.451397 49.53312 
L 75.194659 49.25268 
L 75.931195 49.29696 
L 76.673745 48.89352 
L 77.412511 48.96732 
L 78.890695 48.5934 
L 79.645343 48.84432 
L 80.390493 48.95748 
L 81.127122 48.30804 
L 81.867905 48.34248 
L 82.612462 48.21456 
L 83.352301 48.26376 
L 84.085473 47.41752 
L 84.836612 48.05712 
L 85.579796 48.26376 
L 86.317893 48.01776 
L 87.056942 47.23548 
L 89.27711 47.1666 
L 90.029991 47.31912 
L 90.779328 46.49256 
L 91.52223 47.64876 
L 92.261553 47.5356 
L 93.004146 48.0276 
L 93.753595 47.50608 
L 94.476024 46.81728 
L 95.232423 46.92552 
L 95.973514 45.85788 
L 97.452942 45.29208 
L 98.194488 45.58728 
L 98.923498 46.2564 
L 99.667558 45.7152 
L 102.646974 45.42492 
L 103.387499 46.38432 
L 104.132503 45.57744 
L 104.864387 46.51716 
L 105.616804 46.95996 
L 106.365352 47.54544 
L 107.84539 47.66844 
L 108.59096 47.05344 
L 109.326628 47.22564 
L 110.057792 48.07188 
L 111.561983 47.37324 
L 113.04106 48.07188 
L 113.78004 48.59832 
L 114.521938 48.52452 
L 115.252596 48.5688 
L 116.00908 48.38676 
L 116.761395 48.55404 
L 118.983948 49.93656 
L 119.713087 49.98084 
L 120.443041 50.3646 
L 121.200323 50.15796 
L 122.672149 49.99068 
L 123.421186 50.217 
L 124.911142 49.98084 
L 126.393797 49.87752 
L 127.159789 49.69548 
L 128.623103 49.7004 
L 130.119709 50.06448 
L 131.588189 49.89228 
L 133.048268 49.9464 
L 136.010831 50.31048 
L 138.24 50.39412 
L 138.24 50.39412 
" clip-path="url(#p653931fdda)" style="fill: none; stroke: #f5841e; stroke-width: 0.7; stroke-linecap: round"/>
   </g>
  </g>
 </g>
 <defs>
  <clipPath id="p653931fdda">
   <rect x="5.76" y="3.6" width="132.48" height="49.2"/>
  </clipPath>
 </defs>
</svg>
