<?xml version="1.0" encoding="utf-8" standalone="no"?>
<!DOCTYPE svg PUBLIC "-//W3C//DTD SVG 1.1//EN"
  "http://www.w3.org/Graphics/SVG/1.1/DTD/svg11.dtd">
<svg xmlns:xlink="http://www.w3.org/1999/xlink" width="144pt" height="60pt" viewBox="0 0 144 60" xmlns="http://www.w3.org/2000/svg" version="1.1">
  <desc id="nav-meta">{"window":"1y","count":4,"labels":["28.05","26.09","25.01","27.05"],"tick_utc":["2025-05-28T12:00:00Z","2025-09-26T12:00:00Z","2026-01-25T12:00:00Z","2026-05-27T05:03:21Z"]}</desc>

 <metadata>
  <rdf:RDF xmlns:dc="http://purl.org/dc/elements/1.1/" xmlns:cc="http://creativecommons.org/ns#" xmlns:rdf="http://www.w3.org/1999/02/22-rdf-syntax-ns#">
   <cc:Work>
    <dc:type rdf:resource="http://purl.org/dc/dcmitype/StillImage"/>
    <dc:date>2026-05-27T16:27:02.522163</dc:date>
    <dc:format>image/svg+xml</dc:format>
    <dc:creator>
     <cc:Agent>
      <dc:title>Matplotlib v3.10.9, https://matplotlib.org/</dc:title>
     </cc:Agent>
    </dc:creator>
   </cc:Work>
  </rdf:RDF>
 </metadata>
 <defs>
  <style type="text/css">*{stroke-linejoin: round; stroke-linecap: butt}</style>
 </defs>
 <g id="figure_1">
  <g id="patch_1">
   <path d="M 0 60 
L 144 60 
L 144 0 
L 0 0 
L 0 60 
z
" style="fill: none; opacity: 0"/>
  </g>
  <g id="axes_1">
   <g id="patch_2">
    <path d="M 5.76 52.8 
L 138.24 52.8 
L 138.24 3.6 
L 5.76 3.6 
L 5.76 52.8 
z
" style="fill: none"/>
   </g>
   <g id="matplotlib.axis_1"/>
   <g id="matplotlib.axis_2"/>
   <g id="line2d_1">
    <path d="M 5.76 42.96 
L 138.24 42.96 
" clip-path="url(#p9dd2f4f94d)" style="fill: none; stroke: #b2b2b2; stroke-opacity: 0.35; stroke-width: 0.5; stroke-linecap: square"/>
   </g>
   <g id="line2d_2">
    <path d="M 5.76 33.12 
L 138.24 33.12 
" clip-path="url(#p9dd2f4f94d)" style="fill: none; stroke: #b2b2b2; stroke-opacity: 0.35; stroke-width: 0.5; stroke-linecap: square"/>
   </g>
   <g id="line2d_3">
    <path d="M 5.76 23.28 
L 138.24 23.28 
" clip-path="url(#p9dd2f4f94d)" style="fill: none; stroke: #b2b2b2; stroke-opacity: 0.35; stroke-width: 0.5; stroke-linecap: square"/>
   </g>
   <g id="line2d_4">
    <path d="M 5.76 13.44 
L 138.24 13.44 
" clip-path="url(#p9dd2f4f94d)" style="fill: none; stroke: #b2b2b2; stroke-opacity: 0.35; stroke-width: 0.5; stroke-linecap: square"/>
   </g>
   <g id="line2d_5">
    <path d="M 5.76 38.62056 
L 6.488491 39.88992 
L 6.852737 41.23308 
L 7.945473 41.17404 
L 8.673965 41.62176 
L 9.03821 42.79272 
L 9.402456 42.30564 
L 10.130947 41.7546 
L 10.495193 40.62792 
L 10.859438 40.131 
L 11.223684 40.6476 
L 11.587929 41.73492 
L 12.31642 42.76812 
L 12.680666 41.73492 
L 13.044912 41.89728 
L 13.409157 42.345 
L 13.773403 42.5664 
L 14.137648 42.46308 
L 14.866139 44.20476 
L 15.230385 44.45076 
L 15.594631 42.7632 
L 15.958876 42.63036 
L 16.323122 42.94524 
L 16.687367 43.52088 
L 17.051613 43.1076 
L 17.415859 41.98092 
L 18.14435 41.43972 
L 18.508595 42.4926 
L 18.872841 41.79888 
L 19.237086 41.78412 
L 19.601332 42.37452 
L 19.965578 42.3942 
L 20.329823 41.83332 
L 20.694069 42.24168 
L 21.058314 41.84316 
L 21.786805 40.2786 
L 22.151051 40.42128 
L 22.515297 40.71648 
L 23.243788 40.48032 
L 23.608033 40.26384 
L 23.972279 38.97972 
L 24.70077 38.51724 
L 25.065016 38.57628 
L 25.429261 38.04492 
L 25.793507 36.03264 
L 26.157752 34.88136 
L 26.521998 36.92316 
L 26.886244 37.8432 
L 27.250489 37.37088 
L 27.614735 37.53324 
L 27.97898 37.056 
L 28.343226 37.77924 
L 28.707472 38.02032 
L 29.071717 38.45328 
L 29.435963 39.1962 
L 29.800208 40.41636 
L 30.164454 40.97232 
L 30.528699 40.53444 
L 30.892945 39.55536 
L 31.257191 40.24908 
L 31.621436 39.7128 
L 31.985682 38.778 
L 32.349927 38.59104 
L 33.078418 37.794 
L 33.442664 38.82228 
L 33.80691 36.53448 
L 34.171155 35.334 
L 34.899646 37.44468 
L 35.263892 36.90348 
L 35.628138 36.65748 
L 36.356629 38.64516 
L 36.720874 37.2282 
L 37.08512 38.14332 
L 37.449365 35.53572 
L 37.813611 35.04372 
L 38.177857 34.80264 
L 38.542102 37.23804 
L 39.634839 33.67104 
L 39.999084 34.90596 
L 41.091821 35.9736 
L 41.456067 34.36476 
L 41.820312 34.1778 
L 42.184558 35.22084 
L 42.548804 35.11752 
L 42.913049 35.54556 
L 44.370031 32.44104 
L 44.734277 31.83096 
L 45.098523 30.06468 
L 45.462768 30.01056 
L 45.827014 30.291 
L 46.191259 31.16184 
L 46.555505 30.74856 
L 46.91975 29.71536 
L 47.283996 29.37588 
L 47.648242 30.57636 
L 48.012487 30.42876 
L 48.376733 30.79284 
L 48.740978 32.91828 
L 49.105224 33.72024 
L 49.46947 34.05972 
L 49.833715 36.5886 
L 50.197961 34.90104 
L 50.562206 35.10276 
L 50.926452 34.16796 
L 51.290697 33.8826 
L 51.654943 34.43364 
L 52.383434 31.05852 
L 52.74768 31.26024 
L 53.111925 31.92936 
L 53.476171 31.85064 
L 53.840416 31.3242 
L 54.204662 32.84448 
L 54.568908 31.78176 
L 54.933153 32.85924 
L 55.297399 36.8838 
L 55.661644 38.39424 
L 56.02589 35.95392 
L 56.390136 34.53696 
L 56.754381 35.20608 
L 57.482872 37.57752 
L 57.847118 37.90716 
L 58.211363 37.18884 
L 58.575609 37.18392 
L 58.939855 36.89364 
L 59.3041 37.42008 
L 59.668346 38.17284 
L 60.032591 36.687 
L 60.396837 36.42132 
L 60.761082 36.34752 
L 61.125328 35.56032 
L 61.489574 35.72268 
L 61.853819 36.29832 
L 62.218065 36.32292 
L 62.58231 37.61688 
L 62.946556 37.2282 
L 63.310802 37.34628 
L 63.675047 37.23804 
L 64.039293 40.008 
L 64.403538 41.36592 
L 64.767784 40.43604 
L 65.132029 41.44956 
L 65.496275 40.53444 
L 65.860521 41.02152 
L 66.224766 40.22448 
L 66.589012 39.79644 
L 66.953257 41.51844 
L 67.317503 41.66604 
L 68.045994 43.51596 
L 68.41024 43.43724 
L 68.774485 43.71276 
L 69.138731 44.59836 
L 69.502976 43.30932 
L 70.595713 44.88372 
L 70.959959 44.99688 
L 71.324204 44.57868 
L 71.68845 43.5996 
L 72.052695 43.51596 
L 72.416941 43.00428 
L 72.781187 43.2798 
L 73.145432 43.71768 
L 73.873923 44.0916 
L 74.238169 45.11004 
L 74.602415 43.55532 
L 74.96666 42.72876 
L 75.695151 44.27364 
L 76.423642 44.47536 
L 76.787888 44.25888 
L 77.152134 43.64388 
L 77.516379 43.84068 
L 77.880625 43.85052 
L 78.24487 44.36712 
L 78.609116 44.26872 
L 78.973361 44.74104 
L 79.337607 44.98704 
L 79.701853 44.84436 
L 80.066098 45.58728 
L 80.430344 46.0596 
L 80.794589 45.18384 
L 82.251572 45.47904 
L 82.615817 45.65616 
L 82.980063 45.98088 
L 83.708554 45.38556 
L 84.0728 45.31668 
L 84.437045 45.58728 
L 84.801291 45.35604 
L 85.165536 45.40032 
L 85.529782 45.11496 
L 85.894027 44.42124 
L 86.622519 44.18508 
L 87.35101 43.24044 
L 87.715255 43.8702 
L 88.079501 43.60944 
L 88.443747 43.92924 
L 88.807992 43.93416 
L 89.172238 43.46184 
L 89.536483 43.5012 
L 89.900729 42.72384 
L 90.264974 42.51228 
L 90.62922 43.08792 
L 90.993466 42.75828 
L 91.357711 42.90096 
L 92.086202 44.2392 
L 92.450448 45.23304 
L 92.814693 44.77548 
L 93.543185 45.04608 
L 93.90743 45.07068 
L 94.271676 46.1334 
L 94.635921 45.4446 
L 95.000167 45.06084 
L 95.364413 45.33144 
L 95.728658 46.30068 
L 96.092904 46.34496 
L 96.457149 47.89476 
L 96.821395 48.26376 
L 97.18564 47.96364 
L 98.146667 50.04972 
L 98.509353 49.24776 
L 99.972979 49.59708 
L 100.335914 49.80372 
L 100.70005 49.86768 
L 101.404941 49.24776 
L 101.79255 49.48392 
L 102.111042 49.37568 
L 102.520464 49.479 
L 102.884267 49.7004 
L 103.97681 49.49376 
L 104.342151 49.98576 
L 104.675626 49.96608 
L 105.069331 49.7004 
L 105.431954 49.27236 
L 105.795508 49.37076 
L 106.155462 49.68072 
L 106.527983 49.25268 
L 106.888468 49.51344 
L 107.980796 49.09032 
L 109.439439 49.58724 
L 109.801345 49.36092 
L 110.531126 49.45932 
L 110.894668 49.16904 
L 111.629643 49.27236 
L 111.994917 48.87384 
L 112.719812 48.70164 
L 113.084159 49.03128 
L 113.444859 49.1592 
L 113.806971 49.08048 
L 114.541765 49.36584 
L 115.294012 48.90828 
L 115.63556 49.05096 
L 116.361029 49.64628 
L 117.82484 49.59708 
L 118.184288 49.8726 
L 118.910077 49.80864 
L 120.006874 49.83816 
L 120.37171 49.50852 
L 120.734686 49.68564 
L 121.46096 49.48884 
L 122.197853 49.69056 
L 122.55978 49.40028 
L 122.923747 49.58724 
L 124.013301 49.19856 
L 124.382357 49.43472 
L 124.747505 49.50852 
L 126.5641 49.37568 
L 126.934011 49.4052 
L 127.302182 49.29204 
L 127.66719 49.5528 
L 128.030441 49.50852 
L 128.395298 49.64136 
L 129.118473 49.56264 
L 129.490113 49.57248 
L 129.854232 49.42488 
L 130.210455 49.49376 
L 130.94546 49.25268 
L 131.303643 49.24284 
L 131.669221 48.80004 
L 132.040806 48.85416 
L 132.767113 48.63276 
L 133.133091 48.66228 
L 133.496932 49.09524 
L 133.862974 48.99192 
L 134.592253 49.34616 
L 134.960036 49.47408 
L 135.68722 49.54788 
L 136.05354 49.3314 
L 136.414995 49.34616 
L 136.774236 49.51836 
L 137.513288 49.41504 
L 138.24 49.5774 
L 138.24 49.5774 
" clip-path="url(#p9dd2f4f94d)" style="fill: none; stroke: #bebebe; stroke-width: 0.6; stroke-linecap: round"/>
   </g>
   <g id="line2d_6">
    <path d="M 5.76 39.4914 
L 6.124246 39.38808 
L 6.488491 39.69312 
L 6.852737 40.46556 
L 7.581228 40.36716 
L 7.945473 39.8604 
L 8.309719 39.96372 
L 8.673965 39.85548 
L 9.03821 41.1888 
L 9.766701 40.4508 
L 10.130947 40.5738 
L 10.859438 38.45328 
L 11.223684 38.68452 
L 11.587929 39.55536 
L 11.952175 40.09164 
L 12.31642 40.39668 
L 13.044912 40.2048 
L 13.409157 40.52952 
L 14.137648 40.48032 
L 14.866139 42.26136 
L 15.230385 42.5664 
L 15.594631 41.17404 
L 15.958876 41.0166 
L 16.323122 41.22324 
L 17.051613 41.17896 
L 17.415859 41.08056 
L 17.780104 40.61808 
L 18.14435 40.7214 
L 18.508595 41.30688 
L 18.872841 40.11132 
L 19.237086 39.99816 
L 19.601332 40.56888 
L 19.965578 40.51476 
L 20.329823 40.131 
L 20.694069 40.3278 
L 21.058314 39.81612 
L 21.786805 37.46436 
L 22.151051 37.39056 
L 22.515297 37.50372 
L 23.243788 37.01172 
L 23.608033 36.16056 
L 23.972279 34.4976 
L 24.336525 33.69072 
L 25.065016 32.89368 
L 25.429261 31.73256 
L 25.793507 31.68336 
L 26.157752 31.8162 
L 26.521998 32.64276 
L 26.886244 32.0868 
L 27.614735 31.85064 
L 27.97898 30.98964 
L 28.343226 31.53576 
L 28.707472 31.521 
L 29.071717 31.38816 
L 29.435963 32.17044 
L 29.800208 33.68088 
L 30.164454 34.28604 
L 30.528699 33.58248 
L 30.892945 32.0376 
L 31.257191 32.76576 
L 31.621436 32.259 
L 31.985682 30.65508 
L 32.349927 29.93676 
L 32.714173 28.14588 
L 33.442664 28.40664 
L 33.80691 25.73508 
L 34.171155 24.62316 
L 34.535401 26.10408 
L 34.899646 26.97984 
L 35.263892 27.00936 
L 35.628138 26.58132 
L 35.992383 27.7818 
L 36.356629 29.49888 
L 36.720874 27.68832 
L 37.08512 28.44108 
L 37.449365 24.16068 
L 37.813611 24.55428 
L 38.177857 24.51984 
L 38.542102 27.32916 
L 38.906348 25.7646 
L 39.270593 26.48784 
L 39.634839 26.43372 
L 39.999084 27.44724 
L 40.727576 27.27504 
L 41.091821 27.8802 
L 41.456067 27.72276 
L 41.820312 26.84208 
L 42.184558 27.91956 
L 42.548804 27.8556 
L 42.913049 28.09668 
L 43.277295 27.87528 
L 44.005786 27.83592 
L 44.370031 27.57024 
L 44.734277 26.77812 
L 45.098523 25.01184 
L 45.827014 25.71048 
L 46.191259 26.31564 
L 46.555505 26.45832 
L 46.91975 25.8384 
L 47.283996 25.84824 
L 47.648242 26.6994 
L 48.012487 26.62068 
L 48.376733 26.8224 
L 48.740978 28.61328 
L 49.46947 28.97244 
L 49.833715 30.99456 
L 50.197961 29.76456 
L 50.562206 29.8974 
L 50.926452 29.02164 
L 51.290697 28.50012 
L 51.654943 29.00688 
L 52.383434 26.601 
L 52.74768 26.3796 
L 53.111925 26.5764 
L 53.476171 26.3796 
L 53.840416 25.1496 
L 54.204662 26.81256 
L 54.568908 26.29596 
L 54.933153 27.41772 
L 55.297399 31.19136 
L 55.661644 31.80144 
L 56.02589 28.89864 
L 56.390136 28.28364 
L 57.482872 30.80268 
L 57.847118 31.22088 
L 58.211363 30.8076 
L 58.575609 30.13356 
L 58.939855 30.17784 
L 59.668346 31.42752 
L 60.032591 31.04376 
L 60.396837 30.49764 
L 60.761082 30.3648 
L 61.125328 28.88388 
L 61.489574 29.15448 
L 61.853819 30.15324 
L 62.58231 31.4226 
L 63.310802 30.9306 
L 63.675047 30.66 
L 64.403538 34.99944 
L 64.767784 34.07448 
L 65.132029 34.9158 
L 65.496275 34.02528 
L 65.860521 34.26144 
L 66.224766 33.0216 
L 66.589012 33.10524 
L 66.953257 34.1532 
L 67.317503 34.2024 
L 68.045994 36.34752 
L 68.41024 35.89488 
L 69.138731 36.94776 
L 69.502976 36.2688 
L 69.867222 36.97236 
L 70.231468 38.286 
L 70.595713 38.76324 
L 70.959959 38.73864 
L 71.324204 38.51724 
L 71.68845 37.42992 
L 72.052695 37.42008 
L 72.416941 36.90348 
L 72.781187 36.98712 
L 73.145432 36.86412 
L 73.509678 37.16424 
L 73.873923 37.14948 
L 74.238169 38.52216 
L 74.96666 35.71776 
L 75.330906 36.15564 
L 75.695151 36.93792 
L 76.423642 36.72636 
L 76.787888 36.21468 
L 77.152134 34.8174 
L 77.516379 34.7928 
L 77.880625 35.42748 
L 78.24487 36.49512 
L 78.609116 36.28356 
L 78.973361 36.6378 
L 79.337607 37.3512 
L 79.701853 37.3512 
L 80.066098 38.31552 
L 80.430344 38.32536 
L 80.794589 37.26264 
L 81.158835 37.26264 
L 81.523081 37.09044 
L 81.887326 37.06092 
L 82.251572 37.34628 
L 82.615817 37.48404 
L 82.980063 37.77924 
L 83.708554 37.45944 
L 84.437045 37.56276 
L 84.801291 37.31184 
L 85.165536 37.33644 
L 85.529782 37.09536 
L 85.894027 36.23928 
L 86.622519 36.11628 
L 87.35101 35.0142 
L 87.715255 35.93424 
L 88.079501 36.36228 
L 88.443747 36.50988 
L 88.807992 36.5148 
L 89.172238 36.25404 
L 89.536483 36.46068 
L 89.900729 34.83708 
L 90.264974 34.57632 
L 90.993466 35.00436 
L 91.357711 34.93056 
L 91.721957 35.088 
L 92.086202 35.78664 
L 92.450448 37.55292 
L 92.814693 37.26756 
L 93.178939 37.46436 
L 93.90743 37.45944 
L 94.271676 38.41392 
L 95.000167 36.95268 
L 95.364413 37.05108 
L 95.728658 38.37948 
L 96.092904 39.20604 
L 96.457149 41.03136 
L 96.821395 42.26628 
L 97.18564 41.73492 
L 97.493145 42.23676 
L 98.146667 44.89356 
L 98.509353 43.6242 
L 99.243164 43.53072 
L 99.609488 43.72752 
L 100.335914 44.436 
L 100.70005 44.49012 
L 101.059915 43.81608 
L 101.404941 43.7226 
L 101.79255 44.5344 
L 102.111042 44.19 
L 102.520464 44.21952 
L 103.246383 44.51472 
L 103.97681 44.3868 
L 104.342151 45.174 
L 104.675626 45.23796 
L 105.069331 44.81484 
L 105.431954 43.821 
L 105.795508 44.01288 
L 106.155462 44.66232 
L 106.527983 43.93908 
L 106.888468 44.39664 
L 107.253561 44.12112 
L 107.615766 44.33268 
L 107.980796 43.3044 
L 108.344869 43.6242 
L 108.706319 44.29824 
L 109.074102 44.53932 
L 109.439439 44.30808 
L 109.801345 43.8702 
L 110.165447 44.00304 
L 110.531126 43.97844 
L 110.894668 43.41756 
L 111.629643 43.48644 
L 112.352788 41.73984 
L 112.719812 41.7546 
L 113.444859 43.14204 
L 113.806971 43.083 
L 114.176664 43.35852 
L 114.541765 43.78164 
L 114.902638 43.21584 
L 115.294012 42.9354 
L 115.63556 43.10268 
L 116.361029 44.25396 
L 117.457471 43.74228 
L 117.82484 43.46676 
L 118.548951 43.79148 
L 119.279808 43.77672 
L 119.644993 43.2552 
L 120.006874 43.40772 
L 120.37171 42.49752 
L 120.734686 42.90588 
L 121.102283 42.8616 
L 121.46096 42.41388 
L 122.197853 42.79764 
L 122.55978 41.57256 
L 122.923747 41.86284 
L 123.28957 41.63652 
L 123.653073 41.85792 
L 124.013301 41.22324 
L 124.747505 42.1482 
L 125.110153 41.96616 
L 125.473268 41.59224 
L 126.2042 41.99076 
L 126.5641 41.91696 
L 126.934011 41.98584 
L 127.302182 41.41512 
L 127.66719 42.15312 
L 128.030441 41.96124 
L 128.395298 42.43848 
L 129.118473 42.02028 
L 129.490113 42.0252 
L 129.854232 41.40528 
L 130.581117 41.52336 
L 131.303643 42.1974 
L 131.669221 41.8776 
L 132.407927 41.8038 
L 132.767113 41.976 
L 133.133091 42.00552 
L 133.496932 42.3942 
L 133.862974 42.27612 
L 134.960036 43.31424 
L 135.321672 43.2306 
L 135.68722 43.39296 
L 136.05354 43.16172 
L 136.414995 43.24536 
L 136.774236 43.71768 
L 137.144249 43.33392 
L 138.24 43.67832 
L 138.24 43.67832 
" clip-path="url(#p9dd2f4f94d)" style="fill: none; stroke: #4a8dff; stroke-width: 0.6; stroke-linecap: round"/>
   </g>
   <g id="line2d_7">
    <path d="M 5.76 31.68336 
L 6.124246 32.28852 
L 6.852737 34.1778 
L 7.216982 33.84324 
L 7.581228 33.3414 
L 7.945473 33.25284 
L 8.673965 33.7842 
L 9.03821 35.34384 
L 9.402456 33.981 
L 9.766701 33.35616 
L 10.130947 33.35124 
L 10.495193 31.09296 
L 10.859438 31.11756 
L 11.223684 31.87524 
L 11.587929 33.20856 
L 11.952175 33.17412 
L 12.31642 33.45456 
L 12.680666 33.4152 
L 13.044912 32.7264 
L 13.409157 33.84816 
L 14.137648 33.84324 
L 15.230385 35.73744 
L 15.594631 33.4398 
L 15.958876 33.20856 
L 16.323122 32.58372 
L 16.687367 32.71164 
L 17.415859 32.53944 
L 17.780104 32.013 
L 18.508595 33.3906 
L 18.872841 31.80144 
L 19.237086 31.41768 
L 19.601332 32.19012 
L 19.965578 32.10156 
L 20.329823 31.60956 
L 20.694069 32.0622 
L 21.058314 31.73748 
L 21.42256 30.56652 
L 21.786805 28.31808 
L 22.151051 27.48168 
L 22.515297 27.55548 
L 22.879542 26.71908 
L 23.243788 26.36484 
L 23.608033 27.42756 
L 24.336525 26.55672 
L 24.70077 27.27504 
L 25.065016 27.31932 
L 25.429261 27.63912 
L 25.793507 27.52596 
L 26.157752 26.3058 
L 26.521998 26.96016 
L 26.886244 27.09792 
L 27.250489 27.49644 
L 27.614735 27.2898 
L 27.97898 26.57148 
L 28.343226 27.27012 
L 29.071717 27.35376 
L 29.800208 29.62188 
L 30.164454 29.96136 
L 30.528699 29.14956 
L 30.892945 28.68216 
L 31.257191 29.184 
L 31.621436 28.7412 
L 31.985682 27.5358 
L 32.349927 27.91956 
L 32.714173 28.00812 
L 33.078418 26.64528 
L 33.442664 26.88636 
L 33.80691 26.1828 
L 34.171155 24.52476 
L 34.535401 27.0684 
L 34.899646 27.59484 
L 35.628138 27.49644 
L 35.992383 28.13112 
L 36.356629 29.8482 
L 36.720874 29.12004 
L 37.08512 30.03024 
L 37.449365 27.84576 
L 38.177857 29.54316 
L 38.542102 31.13232 
L 38.906348 30.31068 
L 39.270593 30.62064 
L 39.634839 29.97612 
L 39.999084 31.97364 
L 40.36333 31.82112 
L 40.727576 32.0868 
L 41.091821 31.63416 
L 41.456067 30.6354 
L 41.820312 30.37464 
L 42.184558 30.86172 
L 42.548804 30.89616 
L 42.913049 31.11756 
L 43.64154 30.22212 
L 44.005786 30.45828 
L 44.370031 29.2578 
L 44.734277 28.50504 
L 45.098523 28.18032 
L 45.462768 28.2738 
L 45.827014 28.569 
L 46.191259 28.55424 
L 46.555505 27.8802 
L 46.91975 28.03272 
L 47.283996 27.69324 
L 47.648242 28.42632 
L 48.012487 28.3968 
L 48.376733 28.60344 
L 48.740978 29.88756 
L 49.105224 30.22212 
L 49.46947 29.58252 
L 49.833715 31.73256 
L 50.197961 31.36356 
L 50.562206 31.39308 
L 51.290697 29.09544 
L 51.654943 29.2332 
L 52.019189 27.02412 
L 52.74768 25.16928 
L 53.111925 25.10532 
L 53.840416 23.92452 
L 54.204662 25.53336 
L 54.568908 24.62808 
L 54.933153 25.4448 
L 55.297399 29.64156 
L 55.661644 30.80268 
L 56.02589 28.65756 
L 56.390136 28.6428 
L 57.118627 30.87156 
L 57.482872 32.17044 
L 57.847118 32.97732 
L 58.211363 32.628 
L 58.575609 31.90476 
L 58.939855 30.92076 
L 59.3041 31.96872 
L 59.668346 32.39676 
L 60.032591 31.19628 
L 60.761082 30.42384 
L 61.125328 29.0118 
L 61.489574 29.15448 
L 61.853819 29.76456 
L 62.218065 31.2012 
L 62.58231 32.09172 
L 62.946556 31.43244 
L 63.675047 30.90108 
L 64.403538 35.35368 
L 64.767784 34.24668 
L 65.132029 35.5062 
L 65.496275 34.48284 
L 65.860521 35.02896 
L 66.224766 33.8334 
L 66.589012 33.243 
L 66.953257 34.69932 
L 67.681749 36.2934 
L 68.045994 38.901 
L 68.41024 38.37948 
L 68.774485 38.92068 
L 69.138731 40.09164 
L 69.502976 39.70788 
L 69.867222 40.4262 
L 70.231468 42.75336 
L 70.595713 43.54548 
L 70.959959 43.72752 
L 71.68845 41.976 
L 72.052695 42.42864 
L 72.416941 40.86408 
L 72.781187 40.47048 
L 73.873923 40.89852 
L 74.238169 42.9354 
L 74.602415 40.43604 
L 74.96666 39.31428 
L 75.330906 40.04244 
L 75.695151 41.43972 
L 76.059397 41.47416 
L 76.423642 41.02152 
L 76.787888 40.7952 
L 77.152134 39.75708 
L 77.516379 40.11132 
L 77.880625 39.87024 
L 78.24487 40.94772 
L 78.609116 40.97232 
L 79.337607 42.87144 
L 79.701853 42.17772 
L 80.066098 43.04364 
L 80.430344 43.34868 
L 80.794589 42.03504 
L 81.523081 41.8038 
L 81.887326 41.84316 
L 82.251572 42.37944 
L 82.615817 42.26628 
L 82.980063 42.468 
L 83.344308 42.42864 
L 83.708554 42.18264 
L 84.0728 42.1728 
L 84.437045 42.50244 
L 84.801291 41.88252 
L 85.165536 42.32532 
L 85.894027 41.13468 
L 86.622519 40.42128 
L 86.986764 39.16176 
L 87.35101 39.28968 
L 87.715255 40.48032 
L 88.807992 40.88376 
L 89.536483 40.53936 
L 89.900729 38.50248 
L 90.264974 37.63656 
L 90.62922 38.34012 
L 90.993466 38.37456 
L 91.357711 38.5812 
L 92.086202 39.8358 
L 92.450448 41.93172 
L 92.814693 41.42004 
L 93.543185 41.39052 
L 93.90743 41.5086 
L 94.271676 42.80256 
L 94.635921 41.93664 
L 95.000167 41.49384 
L 95.364413 41.51352 
L 95.728658 43.78164 
L 96.092904 43.9932 
L 96.457149 46.66968 
L 96.821395 47.55036 
L 97.18564 46.64508 
L 97.782607 48.89352 
L 98.146667 49.84308 
L 98.509353 49.00176 
L 98.881925 49.233 
L 99.243164 48.97716 
L 99.972979 49.36092 
L 100.70005 49.58724 
L 101.059915 49.28712 
L 101.404941 49.16904 
L 101.79255 49.39044 
L 102.111042 49.29696 
L 102.884267 49.55772 
L 103.97681 49.41996 
L 104.342151 49.8234 
L 104.675626 49.86768 
L 105.069331 49.72992 
L 105.431954 49.39536 
L 106.155462 49.6758 
L 106.527983 49.47408 
L 106.888468 49.60692 
L 107.253561 49.37568 
L 107.615766 49.36584 
L 107.980796 48.6672 
L 109.074102 49.54788 
L 109.439439 49.5282 
L 109.801345 49.09032 
L 110.531126 49.2084 
L 110.894668 48.93288 
L 111.629643 48.89844 
L 112.352788 48.1998 
L 112.719812 48.28344 
L 113.084159 48.88368 
L 113.444859 49.04604 
L 113.806971 49.00176 
L 114.541765 49.38552 
L 114.902638 49.04112 
L 115.294012 48.92796 
L 115.63556 48.987 
L 116.361029 49.66104 
L 117.82484 49.40028 
L 118.184288 49.56756 
L 118.910077 49.56264 
L 119.279808 49.53312 
L 119.644993 49.25268 
L 120.006874 49.29696 
L 120.37171 48.89352 
L 120.734686 48.96732 
L 121.46096 48.5934 
L 121.83174 48.84432 
L 122.197853 48.95748 
L 122.55978 48.30804 
L 122.923747 48.34248 
L 123.28957 48.21456 
L 123.653073 48.26376 
L 124.013301 47.41752 
L 124.382357 48.05712 
L 124.747505 48.26376 
L 125.110153 48.01776 
L 125.473268 47.23548 
L 126.5641 47.1666 
L 126.934011 47.31912 
L 127.302182 46.49256 
L 127.66719 47.64876 
L 128.030441 47.5356 
L 128.395298 48.0276 
L 129.118473 46.81728 
L 129.490113 46.92552 
L 129.854232 45.85788 
L 130.581117 45.29208 
L 130.94546 45.58728 
L 131.303643 46.2564 
L 131.669221 45.7152 
L 133.133091 45.42492 
L 133.496932 46.38432 
L 133.862974 45.57744 
L 134.222569 46.51716 
L 134.960036 47.54544 
L 135.68722 47.66844 
L 136.05354 47.05344 
L 136.414995 47.22564 
L 136.774236 48.07188 
L 137.513288 47.37324 
L 138.24 48.07188 
L 138.24 48.07188 
" clip-path="url(#p9dd2f4f94d)" style="fill: none; stroke: #f5841e; stroke-width: 0.7; stroke-linecap: round"/>
   </g>
  </g>
 </g>
 <defs>
  <clipPath id="p9dd2f4f94d">
   <rect x="5.76" y="3.6" width="132.48" height="49.2"/>
  </clipPath>
 </defs>
</svg>
