<?xml version="1.0" encoding="utf-8" standalone="no"?>
<!DOCTYPE svg PUBLIC "-//W3C//DTD SVG 1.1//EN"
  "http://www.w3.org/Graphics/SVG/1.1/DTD/svg11.dtd">
<svg xmlns:xlink="http://www.w3.org/1999/xlink" width="144pt" height="60pt" viewBox="0 0 144 60" xmlns="http://www.w3.org/2000/svg" version="1.1">
  <desc id="nav-meta">{"window":"6m","count":4,"labels":["10.10","09.12","07.02","08.04"],"tick_utc":["2025-10-10T12:00:00Z","2025-12-09T12:00:00Z","2026-02-07T03:13:08Z","2026-04-08T03:43:16Z"]}</desc>

 <metadata>
  <rdf:RDF xmlns:dc="http://purl.org/dc/elements/1.1/" xmlns:cc="http://creativecommons.org/ns#" xmlns:rdf="http://www.w3.org/1999/02/22-rdf-syntax-ns#">
   <cc:Work>
    <dc:type rdf:resource="http://purl.org/dc/dcmitype/StillImage"/>
    <dc:date>2026-04-08T08:02:13.548969</dc:date>
    <dc:format>image/svg+xml</dc:format>
    <dc:creator>
     <cc:Agent>
      <dc:title>Matplotlib v3.10.8, https://matplotlib.org/</dc:title>
     </cc:Agent>
    </dc:creator>
   </cc:Work>
  </rdf:RDF>
 </metadata>
 <defs>
  <style type="text/css">*{stroke-linejoin: round; stroke-linecap: butt}</style>
 </defs>
 <g id="figure_1">
  <g id="patch_1">
   <path d="M 0 60 
L 144 60 
L 144 0 
L 0 0 
L 0 60 
z
" style="fill: none; opacity: 0"/>
  </g>
  <g id="axes_1">
   <g id="patch_2">
    <path d="M 5.76 52.8 
L 138.24 52.8 
L 138.24 3.6 
L 5.76 3.6 
L 5.76 52.8 
z
" style="fill: none"/>
   </g>
   <g id="matplotlib.axis_1"/>
   <g id="matplotlib.axis_2"/>
   <g id="line2d_1">
    <path d="M 5.76 42.96 
L 138.24 42.96 
" clip-path="url(#p0944cf253b)" style="fill: none; stroke: #b2b2b2; stroke-opacity: 0.35; stroke-width: 0.5; stroke-linecap: square"/>
   </g>
   <g id="line2d_2">
    <path d="M 5.76 33.12 
L 138.24 33.12 
" clip-path="url(#p0944cf253b)" style="fill: none; stroke: #b2b2b2; stroke-opacity: 0.35; stroke-width: 0.5; stroke-linecap: square"/>
   </g>
   <g id="line2d_3">
    <path d="M 5.76 23.28 
L 138.24 23.28 
" clip-path="url(#p0944cf253b)" style="fill: none; stroke: #b2b2b2; stroke-opacity: 0.35; stroke-width: 0.5; stroke-linecap: square"/>
   </g>
   <g id="line2d_4">
    <path d="M 5.76 13.44 
L 138.24 13.44 
" clip-path="url(#p0944cf253b)" style="fill: none; stroke: #b2b2b2; stroke-opacity: 0.35; stroke-width: 0.5; stroke-linecap: square"/>
   </g>
   <g id="line2d_5">
    <path d="M 5.76 32.85924 
L 6.497413 36.8838 
L 7.234826 38.39424 
L 7.97224 35.95392 
L 8.709653 34.53696 
L 9.447066 35.20608 
L 10.921892 37.57752 
L 11.659305 37.90716 
L 12.396719 37.18884 
L 13.134132 37.18392 
L 13.871545 36.89364 
L 14.608958 37.42008 
L 15.346371 38.17284 
L 16.083785 36.687 
L 16.821198 36.42132 
L 17.558611 36.34752 
L 18.296024 35.56032 
L 19.033437 35.72268 
L 19.770851 36.29832 
L 20.508264 36.32292 
L 21.245677 37.61688 
L 21.98309 37.2282 
L 22.720503 37.34628 
L 23.457916 37.23804 
L 24.19533 40.008 
L 24.932743 41.36592 
L 25.670156 40.43604 
L 26.407569 41.44956 
L 27.144982 40.53444 
L 27.882396 41.02152 
L 28.619809 40.22448 
L 29.357222 39.79644 
L 30.094635 41.51844 
L 30.832048 41.66604 
L 31.569461 42.714 
L 32.306875 43.51596 
L 33.044288 43.43724 
L 33.781701 43.71276 
L 34.519114 44.59836 
L 35.256527 43.30932 
L 35.993941 43.85052 
L 36.731354 44.21952 
L 37.468767 44.88372 
L 38.20618 44.99688 
L 38.943593 44.57868 
L 39.681007 43.5996 
L 40.41842 43.51596 
L 41.155833 43.00428 
L 41.893246 43.2798 
L 42.630659 43.71768 
L 44.105486 44.0916 
L 44.842899 45.11004 
L 45.580312 43.55532 
L 46.317725 42.72876 
L 47.792552 44.27364 
L 49.267378 44.47536 
L 50.004791 44.25888 
L 50.742204 43.64388 
L 51.479618 43.84068 
L 52.217031 43.85052 
L 52.954444 44.36712 
L 53.691857 44.26872 
L 54.42927 44.74104 
L 55.166683 44.98704 
L 55.904097 44.84436 
L 56.64151 45.58728 
L 57.378923 46.0596 
L 58.116336 45.18384 
L 61.065989 45.47904 
L 61.803402 45.65616 
L 62.540815 45.98088 
L 64.015642 45.38556 
L 64.753055 45.31668 
L 65.490468 45.58728 
L 66.227881 45.35604 
L 66.965294 45.40032 
L 67.702708 45.11496 
L 68.440121 44.42124 
L 69.914947 44.18508 
L 70.65236 43.62912 
L 71.389774 43.24044 
L 72.127187 43.8702 
L 72.8646 43.60944 
L 73.602013 43.92924 
L 74.339426 43.93416 
L 75.076839 43.46184 
L 75.814253 43.5012 
L 76.551666 42.72384 
L 77.289079 42.51228 
L 78.026492 43.08792 
L 78.763905 42.75828 
L 79.501319 42.90096 
L 80.976145 44.2392 
L 81.713558 45.23304 
L 82.450971 44.77548 
L 83.925798 45.04608 
L 84.663211 45.07068 
L 85.400624 46.1334 
L 86.138037 45.4446 
L 86.87545 45.06084 
L 87.612864 45.33144 
L 88.350277 46.30068 
L 89.08769 46.34496 
L 89.825103 47.89476 
L 90.562516 48.26376 
L 91.29993 47.96364 
L 92.508485 49.06572 
L 93.245523 50.04972 
L 93.979778 49.24776 
L 96.942882 49.59708 
L 97.67764 49.80372 
L 98.414832 49.86768 
L 99.143377 49.479 
L 99.84188 49.24776 
L 100.626593 49.48392 
L 101.271377 49.37568 
L 102.10025 49.479 
L 102.836767 49.7004 
L 105.048614 49.49376 
L 105.788247 49.98576 
L 106.463364 49.96608 
L 107.260419 49.7004 
L 107.994546 49.27236 
L 108.730559 49.37076 
L 109.459284 49.68072 
L 110.213451 49.25268 
L 110.943251 49.51344 
L 113.154663 49.09032 
L 115.368055 49.64628 
L 116.107678 49.58724 
L 116.840355 49.36092 
L 118.317793 49.45932 
L 119.053781 49.16904 
L 120.541734 49.27236 
L 121.281229 48.87384 
L 122.748775 48.70164 
L 123.486393 49.03128 
L 124.216629 49.1592 
L 124.949723 49.08048 
L 126.437309 49.36584 
L 127.96023 48.90828 
L 128.651691 49.05096 
L 130.120398 49.64628 
L 133.083877 49.59708 
L 133.811578 49.8726 
L 135.280933 49.80864 
L 137.501392 49.83816 
L 138.24 49.50852 
L 138.24 49.50852 
" clip-path="url(#p0944cf253b)" style="fill: none; stroke: #bebebe; stroke-width: 0.6; stroke-linecap: round"/>
   </g>
   <g id="line2d_6">
    <path d="M 5.76 27.41772 
L 6.497413 31.19136 
L 7.234826 31.80144 
L 7.97224 28.89864 
L 8.709653 28.28364 
L 9.447066 29.11512 
L 10.184479 30.1434 
L 10.921892 30.80268 
L 11.659305 31.22088 
L 12.396719 30.8076 
L 13.134132 30.13356 
L 13.871545 30.17784 
L 14.608958 30.89124 
L 15.346371 31.42752 
L 16.083785 31.04376 
L 16.821198 30.49764 
L 17.558611 30.3648 
L 18.296024 28.88388 
L 19.033437 29.15448 
L 19.770851 30.15324 
L 21.245677 31.4226 
L 21.98309 31.10772 
L 23.457916 30.66 
L 24.932743 34.99944 
L 25.670156 34.07448 
L 26.407569 34.9158 
L 27.144982 34.02528 
L 27.882396 34.26144 
L 28.619809 33.0216 
L 29.357222 33.10524 
L 30.094635 34.1532 
L 30.832048 34.2024 
L 31.569461 35.4324 
L 32.306875 36.34752 
L 33.044288 35.89488 
L 34.519114 36.94776 
L 35.256527 36.2688 
L 35.993941 36.97236 
L 36.731354 38.286 
L 37.468767 38.76324 
L 38.20618 38.73864 
L 38.943593 38.51724 
L 39.681007 37.42992 
L 40.41842 37.42008 
L 41.155833 36.90348 
L 41.893246 36.98712 
L 42.630659 36.86412 
L 43.368072 37.16424 
L 44.105486 37.14948 
L 44.842899 38.52216 
L 46.317725 35.71776 
L 47.055138 36.15564 
L 47.792552 36.93792 
L 49.267378 36.72636 
L 50.004791 36.21468 
L 50.742204 34.8174 
L 51.479618 34.7928 
L 52.217031 35.42748 
L 52.954444 36.49512 
L 53.691857 36.28356 
L 54.42927 36.6378 
L 55.166683 37.3512 
L 55.904097 37.3512 
L 56.64151 38.31552 
L 57.378923 38.32536 
L 58.116336 37.26264 
L 58.853749 37.26264 
L 59.591163 37.09044 
L 60.328576 37.06092 
L 61.065989 37.34628 
L 61.803402 37.48404 
L 62.540815 37.77924 
L 64.015642 37.45944 
L 65.490468 37.56276 
L 66.227881 37.31184 
L 66.965294 37.33644 
L 67.702708 37.09536 
L 68.440121 36.23928 
L 69.914947 36.11628 
L 70.65236 35.48652 
L 71.389774 35.0142 
L 72.127187 35.93424 
L 72.8646 36.36228 
L 73.602013 36.50988 
L 74.339426 36.5148 
L 75.076839 36.25404 
L 75.814253 36.46068 
L 76.551666 34.83708 
L 77.289079 34.57632 
L 78.763905 35.00436 
L 79.501319 34.93056 
L 80.238732 35.088 
L 80.976145 35.78664 
L 81.713558 37.55292 
L 82.450971 37.26756 
L 83.188384 37.46436 
L 84.663211 37.45944 
L 85.400624 38.41392 
L 86.87545 36.95268 
L 87.612864 37.05108 
L 88.350277 38.37948 
L 89.08769 39.20604 
L 89.825103 41.03136 
L 90.562516 42.26628 
L 91.29993 41.73492 
L 91.922472 42.23676 
L 93.245523 44.89356 
L 93.979778 43.6242 
L 95.465375 43.53072 
L 96.206996 43.72752 
L 97.67764 44.436 
L 98.414832 44.49012 
L 99.143377 43.81608 
L 99.84188 43.7226 
L 100.626593 44.5344 
L 101.271377 44.19 
L 102.10025 44.21952 
L 103.56987 44.51472 
L 105.048614 44.3868 
L 105.788247 45.174 
L 106.463364 45.23796 
L 107.260419 44.81484 
L 107.994546 43.821 
L 108.730559 44.01288 
L 109.459284 44.66232 
L 110.213451 43.93908 
L 110.943251 44.39664 
L 111.68238 44.12112 
L 112.415662 44.33268 
L 113.154663 43.3044 
L 113.891726 43.6242 
L 114.623481 44.29824 
L 115.368055 44.53932 
L 116.107678 44.30808 
L 116.840355 43.8702 
L 117.577478 44.00304 
L 118.317793 43.97844 
L 119.053781 43.41756 
L 120.541734 43.48644 
L 121.281229 42.49752 
L 122.005738 41.73984 
L 122.748775 41.7546 
L 123.486393 42.591 
L 124.216629 43.14204 
L 124.949723 43.083 
L 125.698164 43.35852 
L 126.437309 43.78164 
L 127.167895 43.21584 
L 127.96023 42.9354 
L 128.651691 43.10268 
L 130.120398 44.25396 
L 132.34014 43.74228 
L 133.083877 43.46676 
L 134.549836 43.79148 
L 136.02945 43.77672 
L 136.768767 43.2552 
L 137.501392 43.40772 
L 138.24 42.49752 
L 138.24 42.49752 
" clip-path="url(#p0944cf253b)" style="fill: none; stroke: #4a8dff; stroke-width: 0.6; stroke-linecap: round"/>
   </g>
   <g id="line2d_7">
    <path d="M 5.76 25.4448 
L 6.497413 29.64156 
L 7.234826 30.80268 
L 7.97224 28.65756 
L 8.709653 28.6428 
L 9.447066 29.66124 
L 10.921892 32.17044 
L 11.659305 32.97732 
L 12.396719 32.628 
L 13.134132 31.90476 
L 13.871545 30.92076 
L 14.608958 31.96872 
L 15.346371 32.39676 
L 16.083785 31.19628 
L 16.821198 30.72888 
L 17.558611 30.42384 
L 18.296024 29.0118 
L 19.033437 29.15448 
L 19.770851 29.76456 
L 20.508264 31.2012 
L 21.245677 32.09172 
L 21.98309 31.43244 
L 23.457916 30.90108 
L 24.19533 32.93796 
L 24.932743 35.35368 
L 25.670156 34.24668 
L 26.407569 35.5062 
L 27.144982 34.48284 
L 27.882396 35.02896 
L 28.619809 33.8334 
L 29.357222 33.243 
L 30.094635 34.69932 
L 30.832048 35.4078 
L 31.569461 36.2934 
L 32.306875 38.901 
L 33.044288 38.37948 
L 33.781701 38.92068 
L 34.519114 40.09164 
L 35.256527 39.70788 
L 35.993941 40.4262 
L 36.731354 42.75336 
L 37.468767 43.54548 
L 38.20618 43.72752 
L 38.943593 42.6894 
L 39.681007 41.976 
L 40.41842 42.42864 
L 41.155833 40.86408 
L 41.893246 40.47048 
L 44.105486 40.89852 
L 44.842899 42.9354 
L 45.580312 40.43604 
L 46.317725 39.31428 
L 47.055138 40.04244 
L 47.792552 41.43972 
L 48.529965 41.47416 
L 49.267378 41.02152 
L 50.004791 40.7952 
L 50.742204 39.75708 
L 51.479618 40.11132 
L 52.217031 39.87024 
L 52.954444 40.94772 
L 53.691857 40.97232 
L 55.166683 42.87144 
L 55.904097 42.17772 
L 56.64151 43.04364 
L 57.378923 43.34868 
L 58.116336 42.03504 
L 59.591163 41.8038 
L 60.328576 41.84316 
L 61.065989 42.37944 
L 61.803402 42.26628 
L 62.540815 42.468 
L 63.278228 42.42864 
L 64.015642 42.18264 
L 64.753055 42.1728 
L 65.490468 42.50244 
L 66.227881 41.88252 
L 66.965294 42.32532 
L 68.440121 41.13468 
L 69.914947 40.42128 
L 70.65236 39.16176 
L 71.389774 39.28968 
L 72.127187 40.48032 
L 74.339426 40.88376 
L 75.814253 40.53936 
L 76.551666 38.50248 
L 77.289079 37.63656 
L 78.026492 38.34012 
L 78.763905 38.37456 
L 79.501319 38.5812 
L 80.976145 39.8358 
L 81.713558 41.93172 
L 82.450971 41.42004 
L 83.925798 41.39052 
L 84.663211 41.5086 
L 85.400624 42.80256 
L 86.138037 41.93664 
L 86.87545 41.49384 
L 87.612864 41.51352 
L 88.350277 43.78164 
L 89.08769 43.9932 
L 89.825103 46.66968 
L 90.562516 47.55036 
L 91.29993 46.64508 
L 92.508485 48.89352 
L 93.245523 49.84308 
L 93.979778 49.00176 
L 94.734047 49.233 
L 95.465375 48.97716 
L 96.942882 49.36092 
L 98.414832 49.58724 
L 99.143377 49.28712 
L 99.84188 49.16904 
L 100.626593 49.39044 
L 101.271377 49.29696 
L 102.836767 49.55772 
L 105.048614 49.41996 
L 105.788247 49.8234 
L 106.463364 49.86768 
L 107.260419 49.72992 
L 107.994546 49.39536 
L 109.459284 49.6758 
L 110.213451 49.47408 
L 110.943251 49.60692 
L 111.68238 49.37568 
L 112.415662 49.36584 
L 113.154663 48.6672 
L 113.891726 48.95256 
L 114.623481 49.36092 
L 115.368055 49.54788 
L 116.107678 49.5282 
L 116.840355 49.09032 
L 118.317793 49.2084 
L 119.053781 48.93288 
L 120.541734 48.89844 
L 121.281229 48.48024 
L 122.005738 48.1998 
L 122.748775 48.28344 
L 123.486393 48.88368 
L 124.216629 49.04604 
L 124.949723 49.00176 
L 126.437309 49.38552 
L 127.167895 49.04112 
L 127.96023 48.92796 
L 128.651691 48.987 
L 130.120398 49.66104 
L 133.083877 49.40028 
L 133.811578 49.56756 
L 135.280933 49.56264 
L 136.02945 49.53312 
L 136.768767 49.25268 
L 137.501392 49.29696 
L 138.24 48.89352 
L 138.24 48.89352 
" clip-path="url(#p0944cf253b)" style="fill: none; stroke: #f5841e; stroke-width: 0.7; stroke-linecap: round"/>
   </g>
  </g>
 </g>
 <defs>
  <clipPath id="p0944cf253b">
   <rect x="5.76" y="3.6" width="132.48" height="49.2"/>
  </clipPath>
 </defs>
</svg>
