<?xml version="1.0" encoding="utf-8" standalone="no"?>
<!DOCTYPE svg PUBLIC "-//W3C//DTD SVG 1.1//EN"
  "http://www.w3.org/Graphics/SVG/1.1/DTD/svg11.dtd">
<svg xmlns:xlink="http://www.w3.org/1999/xlink" width="144pt" height="60pt" viewBox="0 0 144 60" xmlns="http://www.w3.org/2000/svg" version="1.1">
  <desc id="nav-meta">{"window":"1w","count":4,"labels":["22 Jan","23 Jan","26 Jan","29 Jan"],"idxs":[0,30,61,91]}</desc>

 <metadata>
  <rdf:RDF xmlns:dc="http://purl.org/dc/elements/1.1/" xmlns:cc="http://creativecommons.org/ns#" xmlns:rdf="http://www.w3.org/1999/02/22-rdf-syntax-ns#">
   <cc:Work>
    <dc:type rdf:resource="http://purl.org/dc/dcmitype/StillImage"/>
    <dc:date>2026-01-29T15:08:43.382772</dc:date>
    <dc:format>image/svg+xml</dc:format>
    <dc:creator>
     <cc:Agent>
      <dc:title>Matplotlib v3.10.8, https://matplotlib.org/</dc:title>
     </cc:Agent>
    </dc:creator>
   </cc:Work>
  </rdf:RDF>
 </metadata>
 <defs>
  <style type="text/css">*{stroke-linejoin: round; stroke-linecap: butt}</style>
 </defs>
 <g id="figure_1">
  <g id="patch_1">
   <path d="M 0 60 
L 144 60 
L 144 0 
L 0 0 
L 0 60 
z
" style="fill: none; opacity: 0"/>
  </g>
  <g id="axes_1">
   <g id="patch_2">
    <path d="M 5.76 52.8 
L 138.24 52.8 
L 138.24 3.6 
L 5.76 3.6 
L 5.76 52.8 
z
" style="fill: none"/>
   </g>
   <g id="matplotlib.axis_1"/>
   <g id="matplotlib.axis_2"/>
   <g id="line2d_1">
    <path d="M 5.76 42.96 
L 138.24 42.96 
" clip-path="url(#p0fd2da15c9)" style="fill: none; stroke: #b2b2b2; stroke-opacity: 0.35; stroke-width: 0.5; stroke-linecap: square"/>
   </g>
   <g id="line2d_2">
    <path d="M 5.76 33.12 
L 138.24 33.12 
" clip-path="url(#p0fd2da15c9)" style="fill: none; stroke: #b2b2b2; stroke-opacity: 0.35; stroke-width: 0.5; stroke-linecap: square"/>
   </g>
   <g id="line2d_3">
    <path d="M 5.76 23.28 
L 138.24 23.28 
" clip-path="url(#p0fd2da15c9)" style="fill: none; stroke: #b2b2b2; stroke-opacity: 0.35; stroke-width: 0.5; stroke-linecap: square"/>
   </g>
   <g id="line2d_4">
    <path d="M 5.76 13.44 
L 138.24 13.44 
" clip-path="url(#p0fd2da15c9)" style="fill: none; stroke: #b2b2b2; stroke-opacity: 0.35; stroke-width: 0.5; stroke-linecap: square"/>
   </g>
   <g id="line2d_5">
    <path d="M 6.48 39.52092 
L 9.693515 39.597361 
L 38.972207 39.498586 
L 41.471608 39.53076 
L 50.755095 39.592803 
L 51.826267 39.64392 
L 55.039782 39.732735 
L 56.468011 39.76692 
L 59.324469 39.684554 
L 61.109755 39.64884 
L 81.819074 39.759788 
L 84.318474 39.83942 
L 85.746703 40.75584 
L 87.174932 40.737447 
L 88.603161 40.27368 
L 93.244905 40.175991 
L 95.030191 40.06212 
L 107.527193 39.97234 
L 108.955422 39.63408 
L 129.307684 39.733204 
L 130.735913 39.9096 
L 132.164142 39.984164 
L 133.592371 40.17528 
L 137.52 40.14084 
L 137.52 40.14084 
" clip-path="url(#p0fd2da15c9)" style="fill: none; stroke: #bebebe; stroke-width: 0.6; stroke-linecap: round"/>
   </g>
   <g id="line2d_6">
    <path d="M 6.48 34.41888 
L 49.326866 34.496313 
L 50.040981 34.55664 
L 60.39564 34.450397 
L 62.537984 34.375297 
L 67.179728 34.33032 
L 76.820272 34.43856 
L 82.890245 34.627826 
L 84.318474 35.47176 
L 85.746703 35.453072 
L 87.174932 35.06832 
L 88.603161 35.05608 
L 90.388447 34.65996 
L 97.886649 34.59163 
L 99.314877 34.46808 
L 101.100163 34.56219 
L 102.528392 34.60092 
L 106.098965 34.49634 
L 107.527193 33.9072 
L 119.310082 34.014314 
L 125.380054 34.046663 
L 126.808283 33.981 
L 130.378856 33.98474 
L 131.807084 34.41888 
L 136.091771 34.414751 
L 137.52 35.10768 
L 137.52 35.10768 
" clip-path="url(#p0fd2da15c9)" style="fill: none; stroke: #4a8dff; stroke-width: 0.7; stroke-linecap: round"/>
   </g>
   <g id="line2d_7">
    <path d="M 6.48 39.1716 
L 14.335259 39.094154 
L 16.120545 39.01908 
L 17.191717 38.945696 
L 18.619946 38.8518 
L 21.476403 38.951098 
L 23.261689 39.02892 
L 45.756294 38.943524 
L 47.54158 38.82228 
L 48.612752 38.897421 
L 50.040981 39.11256 
L 53.611553 39.218856 
L 55.396839 39.2454 
L 57.182125 38.992348 
L 59.681526 39.05844 
L 65.751499 38.891602 
L 71.464414 39.03762 
L 77.17733 39.248483 
L 78.962616 39.51108 
L 80.747902 39.431877 
L 82.176131 39.37332 
L 82.890245 39.434371 
L 84.318474 40.34748 
L 85.746703 40.326513 
L 87.174932 39.89484 
L 88.960218 39.822367 
L 90.388447 39.63408 
L 95.387248 39.719275 
L 96.101362 39.78168 
L 97.529591 39.672448 
L 98.95782 39.30444 
L 100.386049 39.361952 
L 101.814278 39.57504 
L 103.599564 39.660262 
L 105.027793 39.76692 
L 105.741907 39.76692 
L 106.813079 39.264892 
L 107.170136 39.080681 
L 107.884251 39.024 
L 116.810681 39.133607 
L 119.310082 39.160017 
L 125.380054 39.070934 
L 126.451226 38.9502 
L 127.879455 39.013262 
L 129.307684 39.15684 
L 130.378856 39.176547 
L 131.807084 39.639 
L 136.091771 39.629951 
L 137.52 40.32288 
L 137.52 40.32288 
" clip-path="url(#p0fd2da15c9)" style="fill: none; stroke: #f5841e; stroke-width: 0.8; stroke-linecap: round"/>
   </g>
  </g>
 </g>
 <defs>
  <clipPath id="p0fd2da15c9">
   <rect x="5.76" y="3.6" width="132.48" height="49.2"/>
  </clipPath>
 </defs>
</svg>
