<?xml version="1.0" encoding="utf-8" standalone="no"?>
<!DOCTYPE svg PUBLIC "-//W3C//DTD SVG 1.1//EN"
  "http://www.w3.org/Graphics/SVG/1.1/DTD/svg11.dtd">
<svg xmlns:xlink="http://www.w3.org/1999/xlink" width="144pt" height="60pt" viewBox="0 0 144 60" xmlns="http://www.w3.org/2000/svg" version="1.1">
  <desc id="nav-meta">{"window":"1w","count":4,"labels":["20 Jan","22 Jan","23 Jan","27 Jan"],"idxs":[0,29,59,88]}</desc>

 <metadata>
  <rdf:RDF xmlns:dc="http://purl.org/dc/elements/1.1/" xmlns:cc="http://creativecommons.org/ns#" xmlns:rdf="http://www.w3.org/1999/02/22-rdf-syntax-ns#">
   <cc:Work>
    <dc:type rdf:resource="http://purl.org/dc/dcmitype/StillImage"/>
    <dc:date>2026-01-27T04:00:28.399383</dc:date>
    <dc:format>image/svg+xml</dc:format>
    <dc:creator>
     <cc:Agent>
      <dc:title>Matplotlib v3.10.8, https://matplotlib.org/</dc:title>
     </cc:Agent>
    </dc:creator>
   </cc:Work>
  </rdf:RDF>
 </metadata>
 <defs>
  <style type="text/css">*{stroke-linejoin: round; stroke-linecap: butt}</style>
 </defs>
 <g id="figure_1">
  <g id="patch_1">
   <path d="M 0 60 
L 144 60 
L 144 0 
L 0 0 
L 0 60 
z
" style="fill: none; opacity: 0"/>
  </g>
  <g id="axes_1">
   <g id="patch_2">
    <path d="M 5.76 52.8 
L 138.24 52.8 
L 138.24 3.6 
L 5.76 3.6 
L 5.76 52.8 
z
" style="fill: none"/>
   </g>
   <g id="matplotlib.axis_1"/>
   <g id="matplotlib.axis_2"/>
   <g id="line2d_1">
    <path d="M 5.76 42.96 
L 138.24 42.96 
" clip-path="url(#p8893ee1ac7)" style="fill: none; stroke: #b2b2b2; stroke-opacity: 0.35; stroke-width: 0.5; stroke-linecap: square"/>
   </g>
   <g id="line2d_2">
    <path d="M 5.76 33.12 
L 138.24 33.12 
" clip-path="url(#p8893ee1ac7)" style="fill: none; stroke: #b2b2b2; stroke-opacity: 0.35; stroke-width: 0.5; stroke-linecap: square"/>
   </g>
   <g id="line2d_3">
    <path d="M 5.76 23.28 
L 138.24 23.28 
" clip-path="url(#p8893ee1ac7)" style="fill: none; stroke: #b2b2b2; stroke-opacity: 0.35; stroke-width: 0.5; stroke-linecap: square"/>
   </g>
   <g id="line2d_4">
    <path d="M 5.76 13.44 
L 138.24 13.44 
" clip-path="url(#p8893ee1ac7)" style="fill: none; stroke: #b2b2b2; stroke-opacity: 0.35; stroke-width: 0.5; stroke-linecap: square"/>
   </g>
   <g id="line2d_5">
    <path d="M 6.50427 38.70912 
L 8.71821 38.86656 
L 9.45619 38.86656 
L 11.30114 39.41268 
L 13.14609 39.489959 
L 14.62205 39.57996 
L 24.953771 39.516624 
L 26.429731 39.3438 
L 28.274681 39.242268 
L 29.750642 39.18144 
L 31.595592 39.290983 
L 34.178522 39.318091 
L 40.451352 39.474062 
L 41.558323 39.52092 
L 88.051066 39.600167 
L 89.158036 39.64392 
L 92.478947 39.737123 
L 93.954907 39.76692 
L 96.906827 39.680439 
L 98.382787 39.64884 
L 119.784209 39.751231 
L 122.736129 39.868508 
L 124.212089 40.75584 
L 125.688049 40.723243 
L 127.164009 40.27368 
L 131.96088 40.171677 
L 133.80583 40.06212 
L 137.49573 40.09164 
L 137.49573 40.09164 
" clip-path="url(#p8893ee1ac7)" style="fill: none; stroke: #bebebe; stroke-width: 0.6; stroke-linecap: round"/>
   </g>
   <g id="line2d_6">
    <path d="M 6.50427 32.85432 
L 7.98023 32.85432 
L 9.82518 33.42504 
L 11.30114 33.532338 
L 12.7771 33.9072 
L 14.99104 34.007277 
L 16.467 34.04988 
L 17.942961 34.144178 
L 19.418921 34.18764 
L 26.060741 34.128059 
L 27.536701 33.84816 
L 30.119632 33.950274 
L 34.178522 34.01544 
L 36.023472 34.113563 
L 38.606402 34.31459 
L 39.713372 34.45332 
L 83.254196 34.347394 
L 85.468136 34.32242 
L 87.313086 34.55664 
L 98.013797 34.446307 
L 100.227737 34.37496 
L 104.655618 34.329405 
L 115.356329 34.449786 
L 118.677239 34.542961 
L 121.260169 34.655095 
L 122.736129 35.47176 
L 124.212089 35.441076 
L 125.688049 35.06832 
L 127.164009 35.044163 
L 128.63997 34.65996 
L 136.75775 34.585162 
L 137.49573 34.46808 
L 137.49573 34.46808 
" clip-path="url(#p8893ee1ac7)" style="fill: none; stroke: #4a8dff; stroke-width: 0.7; stroke-linecap: round"/>
   </g>
   <g id="line2d_7">
    <path d="M 6.50427 37.87764 
L 7.98023 37.87764 
L 9.82518 38.37948 
L 11.30114 38.434224 
L 12.7771 38.62548 
L 14.25306 38.685171 
L 15.72902 38.91576 
L 18.311951 39.025857 
L 23.108821 39.083109 
L 24.953771 38.84196 
L 27.167711 38.733512 
L 29.381652 38.757087 
L 31.595592 38.82228 
L 38.237412 38.89881 
L 39.713372 39.147 
L 50.783073 39.054005 
L 52.259033 39.01908 
L 53.366003 38.938503 
L 54.841964 38.8518 
L 57.793884 38.9567 
L 59.638834 39.02892 
L 82.885206 38.937256 
L 84.730156 38.82228 
L 85.837126 38.908137 
L 87.313086 39.11256 
L 91.002987 39.222394 
L 92.847937 39.243875 
L 94.692887 38.995298 
L 97.275817 39.05844 
L 102.810668 38.88132 
L 106.869558 38.982949 
L 109.452488 39.03858 
L 115.356329 39.257596 
L 117.201279 39.51108 
L 119.046229 39.427648 
L 120.522189 39.37332 
L 121.260169 39.463876 
L 122.736129 40.34748 
L 124.212089 40.313054 
L 125.688049 39.89484 
L 127.533 39.814776 
L 129.00896 39.63408 
L 134.17482 39.725994 
L 135.28179 39.78168 
L 136.01977 39.777647 
L 137.49573 39.30444 
L 137.49573 39.30444 
" clip-path="url(#p8893ee1ac7)" style="fill: none; stroke: #f5841e; stroke-width: 0.8; stroke-linecap: round"/>
   </g>
  </g>
 </g>
 <defs>
  <clipPath id="p8893ee1ac7">
   <rect x="5.76" y="3.6" width="132.48" height="49.2"/>
  </clipPath>
 </defs>
</svg>
