<?xml version="1.0" encoding="utf-8" standalone="no"?>
<!DOCTYPE svg PUBLIC "-//W3C//DTD SVG 1.1//EN"
  "http://www.w3.org/Graphics/SVG/1.1/DTD/svg11.dtd">
<svg xmlns:xlink="http://www.w3.org/1999/xlink" width="144pt" height="60pt" viewBox="0 0 144 60" xmlns="http://www.w3.org/2000/svg" version="1.1">
  <desc id="nav-meta">{"window":"3m","count":4,"labels":["17.12","16.01","14.02","16.03"],"tick_utc":["2025-12-17T12:00:00Z","2026-01-16T12:00:00Z","2026-02-14T03:16:28Z","2026-03-16T03:46:39Z"]}</desc>

 <metadata>
  <rdf:RDF xmlns:dc="http://purl.org/dc/elements/1.1/" xmlns:cc="http://creativecommons.org/ns#" xmlns:rdf="http://www.w3.org/1999/02/22-rdf-syntax-ns#">
   <cc:Work>
    <dc:type rdf:resource="http://purl.org/dc/dcmitype/StillImage"/>
    <dc:date>2026-03-16T19:40:28.678520</dc:date>
    <dc:format>image/svg+xml</dc:format>
    <dc:creator>
     <cc:Agent>
      <dc:title>Matplotlib v3.10.8, https://matplotlib.org/</dc:title>
     </cc:Agent>
    </dc:creator>
   </cc:Work>
  </rdf:RDF>
 </metadata>
 <defs>
  <style type="text/css">*{stroke-linejoin: round; stroke-linecap: butt}</style>
 </defs>
 <g id="figure_1">
  <g id="patch_1">
   <path d="M 0 60 
L 144 60 
L 144 0 
L 0 0 
L 0 60 
z
" style="fill: none; opacity: 0"/>
  </g>
  <g id="axes_1">
   <g id="patch_2">
    <path d="M 5.76 52.8 
L 138.24 52.8 
L 138.24 3.6 
L 5.76 3.6 
L 5.76 52.8 
z
" style="fill: none"/>
   </g>
   <g id="matplotlib.axis_1"/>
   <g id="matplotlib.axis_2"/>
   <g id="line2d_1">
    <path d="M 5.76 42.96 
L 138.24 42.96 
" clip-path="url(#p6403d22372)" style="fill: none; stroke: #b2b2b2; stroke-opacity: 0.35; stroke-width: 0.5; stroke-linecap: square"/>
   </g>
   <g id="line2d_2">
    <path d="M 5.76 33.12 
L 138.24 33.12 
" clip-path="url(#p6403d22372)" style="fill: none; stroke: #b2b2b2; stroke-opacity: 0.35; stroke-width: 0.5; stroke-linecap: square"/>
   </g>
   <g id="line2d_3">
    <path d="M 5.76 23.28 
L 138.24 23.28 
" clip-path="url(#p6403d22372)" style="fill: none; stroke: #b2b2b2; stroke-opacity: 0.35; stroke-width: 0.5; stroke-linecap: square"/>
   </g>
   <g id="line2d_4">
    <path d="M 5.76 13.44 
L 138.24 13.44 
" clip-path="url(#p6403d22372)" style="fill: none; stroke: #b2b2b2; stroke-opacity: 0.35; stroke-width: 0.5; stroke-linecap: square"/>
   </g>
   <g id="line2d_5">
    <path d="M 5.76 44.84436 
L 7.254292 45.58728 
L 8.748583 46.0596 
L 10.242875 45.18384 
L 11.737166 45.23796 
L 13.231458 45.20844 
L 14.725749 45.24288 
L 16.220041 45.47904 
L 17.714333 45.65616 
L 19.208624 45.98088 
L 20.702916 45.70536 
L 22.197207 45.38556 
L 23.691499 45.31668 
L 25.185791 45.58728 
L 26.680082 45.35604 
L 28.174374 45.40032 
L 29.668665 45.11496 
L 31.162957 44.42124 
L 32.657248 44.25888 
L 34.15154 44.18508 
L 35.645832 43.62912 
L 37.140123 43.24044 
L 38.634415 43.8702 
L 40.128706 43.60944 
L 41.622998 43.92924 
L 43.117289 43.93416 
L 44.611581 43.46184 
L 46.105873 43.5012 
L 47.600164 42.72384 
L 49.094456 42.51228 
L 50.588747 43.08792 
L 52.083039 42.75828 
L 53.577331 42.90096 
L 55.071622 43.57008 
L 56.565914 44.2392 
L 58.060205 45.23304 
L 59.554497 44.77548 
L 61.048788 44.91816 
L 62.54308 45.04608 
L 64.037372 45.07068 
L 65.531663 46.1334 
L 67.025955 45.4446 
L 68.520246 45.06084 
L 70.014538 45.33144 
L 71.508829 46.30068 
L 73.003121 46.34496 
L 74.497413 47.89476 
L 75.991704 48.26376 
L 77.485996 47.96364 
L 78.747513 48.55896 
L 79.935008 49.06572 
L 81.428539 50.04972 
L 82.916431 49.24776 
L 84.444881 49.32156 
L 85.926841 49.31172 
L 87.429659 49.43964 
L 88.920855 49.59708 
L 90.409767 49.80372 
L 91.903609 49.86768 
L 93.379931 49.479 
L 94.795375 49.24776 
L 96.385515 49.48392 
L 97.692104 49.37568 
L 99.371729 49.479 
L 100.864205 49.7004 
L 102.349762 49.62168 
L 103.834922 49.5282 
L 105.346284 49.49376 
L 106.845072 49.98576 
L 108.213127 49.96608 
L 109.828277 49.7004 
L 111.31591 49.27236 
L 112.807365 49.37076 
L 114.28405 49.68072 
L 115.812292 49.25268 
L 117.291156 49.51344 
L 118.788924 49.4052 
L 120.274845 49.34124 
L 121.772353 49.09032 
L 123.265936 49.24284 
L 124.748761 49.49868 
L 126.257563 49.64628 
L 127.756334 49.58724 
L 129.241027 49.36092 
L 130.73473 49.41996 
L 132.234902 49.45932 
L 133.726305 49.16904 
L 135.218608 49.22808 
L 136.741488 49.27236 
L 138.24 48.87384 
" clip-path="url(#p6403d22372)" style="fill: none; stroke: #bebebe; stroke-width: 0.6; stroke-linecap: round"/>
   </g>
   <g id="line2d_6">
    <path d="M 5.76 37.3512 
L 7.254292 38.31552 
L 8.748583 38.32536 
L 10.242875 37.26264 
L 11.737166 37.26264 
L 13.231458 37.09044 
L 14.725749 37.06092 
L 16.220041 37.34628 
L 17.714333 37.48404 
L 19.208624 37.77924 
L 20.702916 37.61688 
L 22.197207 37.45944 
L 23.691499 37.46928 
L 25.185791 37.56276 
L 26.680082 37.31184 
L 28.174374 37.33644 
L 29.668665 37.09536 
L 31.162957 36.23928 
L 32.657248 36.20976 
L 34.15154 36.11628 
L 35.645832 35.48652 
L 37.140123 35.0142 
L 38.634415 35.93424 
L 40.128706 36.36228 
L 41.622998 36.50988 
L 43.117289 36.5148 
L 44.611581 36.25404 
L 46.105873 36.46068 
L 47.600164 34.83708 
L 49.094456 34.57632 
L 50.588747 34.84692 
L 52.083039 35.00436 
L 53.577331 34.93056 
L 55.071622 35.088 
L 56.565914 35.78664 
L 58.060205 37.55292 
L 59.554497 37.26756 
L 61.048788 37.46436 
L 62.54308 37.44468 
L 64.037372 37.45944 
L 65.531663 38.41392 
L 67.025955 37.61196 
L 68.520246 36.95268 
L 70.014538 37.05108 
L 71.508829 38.37948 
L 73.003121 39.20604 
L 74.497413 41.03136 
L 75.991704 42.26628 
L 77.485996 41.73492 
L 78.747513 42.23676 
L 79.935008 43.38804 
L 81.428539 44.89356 
L 82.916431 43.6242 
L 84.444881 43.575 
L 85.926841 43.53072 
L 87.429659 43.72752 
L 88.920855 44.0916 
L 90.409767 44.436 
L 91.903609 44.49012 
L 93.379931 43.81608 
L 94.795375 43.7226 
L 96.385515 44.5344 
L 97.692104 44.19 
L 99.371729 44.21952 
L 100.864205 44.3868 
L 102.349762 44.51472 
L 103.834922 44.4606 
L 105.346284 44.3868 
L 106.845072 45.174 
L 108.213127 45.23796 
L 109.828277 44.81484 
L 111.31591 43.821 
L 112.807365 44.01288 
L 114.28405 44.66232 
L 115.812292 43.93908 
L 117.291156 44.39664 
L 118.788924 44.12112 
L 120.274845 44.33268 
L 121.772353 43.3044 
L 123.265936 43.6242 
L 124.748761 44.29824 
L 126.257563 44.53932 
L 127.756334 44.30808 
L 129.241027 43.8702 
L 130.73473 44.00304 
L 132.234902 43.97844 
L 133.726305 43.41756 
L 135.218608 43.48152 
L 136.741488 43.48644 
L 138.24 42.49752 
" clip-path="url(#p6403d22372)" style="fill: none; stroke: #4a8dff; stroke-width: 0.6; stroke-linecap: round"/>
   </g>
   <g id="line2d_7">
    <path d="M 5.76 42.17772 
L 7.254292 43.04364 
L 8.748583 43.34868 
L 10.242875 42.03504 
L 11.737166 41.91696 
L 13.231458 41.8038 
L 14.725749 41.84316 
L 16.220041 42.37944 
L 17.714333 42.26628 
L 19.208624 42.468 
L 20.702916 42.42864 
L 22.197207 42.18264 
L 23.691499 42.1728 
L 25.185791 42.50244 
L 26.680082 41.88252 
L 28.174374 42.32532 
L 29.668665 41.73 
L 31.162957 41.13468 
L 32.657248 40.80504 
L 34.15154 40.42128 
L 35.645832 39.16176 
L 37.140123 39.28968 
L 38.634415 40.48032 
L 40.128706 40.61316 
L 41.622998 40.84932 
L 43.117289 40.88376 
L 44.611581 40.6968 
L 46.105873 40.53936 
L 47.600164 38.50248 
L 49.094456 37.63656 
L 50.588747 38.34012 
L 52.083039 38.37456 
L 53.577331 38.5812 
L 55.071622 39.2454 
L 56.565914 39.8358 
L 58.060205 41.93172 
L 59.554497 41.42004 
L 61.048788 41.37576 
L 62.54308 41.39052 
L 64.037372 41.5086 
L 65.531663 42.80256 
L 67.025955 41.93664 
L 68.520246 41.49384 
L 70.014538 41.51352 
L 71.508829 43.78164 
L 73.003121 43.9932 
L 74.497413 46.66968 
L 75.991704 47.55036 
L 77.485996 46.64508 
L 78.747513 47.89476 
L 79.935008 48.89352 
L 81.428539 49.84308 
L 82.916431 49.00176 
L 84.444881 49.233 
L 85.926841 48.97716 
L 87.429659 49.22316 
L 88.920855 49.36092 
L 90.409767 49.49868 
L 91.903609 49.58724 
L 93.379931 49.28712 
L 94.795375 49.16904 
L 96.385515 49.39044 
L 97.692104 49.29696 
L 99.371729 49.479 
L 100.864205 49.55772 
L 102.349762 49.51344 
L 103.834922 49.44948 
L 105.346284 49.41996 
L 106.845072 49.8234 
L 108.213127 49.86768 
L 109.828277 49.72992 
L 111.31591 49.39536 
L 112.807365 49.52328 
L 114.28405 49.6758 
L 115.812292 49.47408 
L 117.291156 49.60692 
L 118.788924 49.37568 
L 120.274845 49.36584 
L 121.772353 48.6672 
L 123.265936 48.95256 
L 124.748761 49.36092 
L 126.257563 49.54788 
L 127.756334 49.5282 
L 129.241027 49.09032 
L 130.73473 49.16412 
L 132.234902 49.2084 
L 133.726305 48.93288 
L 135.218608 48.95748 
L 136.741488 48.89844 
L 138.24 48.48024 
" clip-path="url(#p6403d22372)" style="fill: none; stroke: #f5841e; stroke-width: 0.7; stroke-linecap: round"/>
   </g>
  </g>
 </g>
 <defs>
  <clipPath id="p6403d22372">
   <rect x="5.76" y="3.6" width="132.48" height="49.2"/>
  </clipPath>
 </defs>
</svg>
