<?xml version="1.0" encoding="utf-8" standalone="no"?>
<!DOCTYPE svg PUBLIC "-//W3C//DTD SVG 1.1//EN"
  "http://www.w3.org/Graphics/SVG/1.1/DTD/svg11.dtd">
<svg xmlns:xlink="http://www.w3.org/1999/xlink" width="144pt" height="60pt" viewBox="0 0 144 60" xmlns="http://www.w3.org/2000/svg" version="1.1">
  <desc id="nav-meta">{"window":"6m","count":4,"labels":["29.08","28.10","26.12","24.02"],"tick_utc":["2025-08-29T12:00:00Z","2025-10-28T12:00:00Z","2025-12-26T12:00:00Z","2026-02-24T01:30:44Z"]}</desc>

 <metadata>
  <rdf:RDF xmlns:dc="http://purl.org/dc/elements/1.1/" xmlns:cc="http://creativecommons.org/ns#" xmlns:rdf="http://www.w3.org/1999/02/22-rdf-syntax-ns#">
   <cc:Work>
    <dc:type rdf:resource="http://purl.org/dc/dcmitype/StillImage"/>
    <dc:date>2026-02-24T19:37:55.968736</dc:date>
    <dc:format>image/svg+xml</dc:format>
    <dc:creator>
     <cc:Agent>
      <dc:title>Matplotlib v3.10.8, https://matplotlib.org/</dc:title>
     </cc:Agent>
    </dc:creator>
   </cc:Work>
  </rdf:RDF>
 </metadata>
 <defs>
  <style type="text/css">*{stroke-linejoin: round; stroke-linecap: butt}</style>
 </defs>
 <g id="figure_1">
  <g id="patch_1">
   <path d="M 0 60 
L 144 60 
L 144 0 
L 0 0 
L 0 60 
z
" style="fill: none; opacity: 0"/>
  </g>
  <g id="axes_1">
   <g id="patch_2">
    <path d="M 5.76 52.8 
L 138.24 52.8 
L 138.24 3.6 
L 5.76 3.6 
L 5.76 52.8 
z
" style="fill: none"/>
   </g>
   <g id="matplotlib.axis_1"/>
   <g id="matplotlib.axis_2"/>
   <g id="line2d_1">
    <path d="M 5.76 42.96 
L 138.24 42.96 
" clip-path="url(#pa2c24716a3)" style="fill: none; stroke: #b2b2b2; stroke-opacity: 0.35; stroke-width: 0.5; stroke-linecap: square"/>
   </g>
   <g id="line2d_2">
    <path d="M 5.76 33.12 
L 138.24 33.12 
" clip-path="url(#pa2c24716a3)" style="fill: none; stroke: #b2b2b2; stroke-opacity: 0.35; stroke-width: 0.5; stroke-linecap: square"/>
   </g>
   <g id="line2d_3">
    <path d="M 5.76 23.28 
L 138.24 23.28 
" clip-path="url(#pa2c24716a3)" style="fill: none; stroke: #b2b2b2; stroke-opacity: 0.35; stroke-width: 0.5; stroke-linecap: square"/>
   </g>
   <g id="line2d_4">
    <path d="M 5.76 13.44 
L 138.24 13.44 
" clip-path="url(#pa2c24716a3)" style="fill: none; stroke: #b2b2b2; stroke-opacity: 0.35; stroke-width: 0.5; stroke-linecap: square"/>
   </g>
   <g id="line2d_5">
    <path d="M 5.76 33.67104 
L 6.501923 34.90596 
L 7.985769 35.45208 
L 8.727692 35.9736 
L 9.469615 34.36476 
L 10.211538 34.1778 
L 10.953461 35.22084 
L 11.695384 35.11752 
L 12.437307 35.54556 
L 13.921153 33.735 
L 14.663076 33.30204 
L 15.404999 32.44104 
L 16.146922 31.83096 
L 16.888845 30.06468 
L 17.630768 30.01056 
L 18.372691 30.291 
L 19.114614 31.16184 
L 19.856537 30.74856 
L 20.59846 29.71536 
L 21.340383 29.37588 
L 22.082306 30.57636 
L 22.824229 30.42876 
L 23.566152 30.79284 
L 24.308075 32.91828 
L 25.049997 33.72024 
L 25.79192 34.05972 
L 26.533843 36.5886 
L 27.275766 34.90104 
L 28.017689 35.10276 
L 28.759612 34.16796 
L 29.501535 33.8826 
L 30.243458 34.43364 
L 31.727304 31.05852 
L 32.469227 31.26024 
L 33.21115 31.92936 
L 33.953073 31.85064 
L 34.694996 31.3242 
L 35.436919 32.84448 
L 36.178842 31.78176 
L 36.920765 32.85924 
L 37.662688 36.8838 
L 38.404611 38.39424 
L 39.146534 35.95392 
L 39.888457 34.53696 
L 40.63038 35.20608 
L 42.114226 37.57752 
L 42.856149 37.90716 
L 43.598072 37.18884 
L 44.339995 37.18392 
L 45.081918 36.89364 
L 45.823841 37.42008 
L 46.565764 38.17284 
L 47.307687 36.687 
L 48.04961 36.42132 
L 48.791533 36.34752 
L 49.533456 35.56032 
L 50.275379 35.72268 
L 51.017302 36.29832 
L 51.759225 36.32292 
L 52.501148 37.61688 
L 53.243071 37.2282 
L 53.984994 37.34628 
L 54.726917 37.23804 
L 55.46884 40.008 
L 56.210763 41.36592 
L 56.952686 40.43604 
L 57.694609 41.44956 
L 58.436532 40.53444 
L 59.178455 41.02152 
L 59.920378 40.22448 
L 60.662301 39.79644 
L 61.404224 41.51844 
L 62.146147 41.66604 
L 62.888069 42.714 
L 63.629992 43.51596 
L 64.371915 43.43724 
L 65.113838 43.71276 
L 65.855761 44.59836 
L 66.597684 43.30932 
L 67.339607 43.85052 
L 68.08153 44.21952 
L 68.823453 44.88372 
L 69.565376 44.99688 
L 70.307299 44.57868 
L 71.049222 43.5996 
L 71.791145 43.51596 
L 72.533068 43.00428 
L 73.274991 43.2798 
L 74.016914 43.71768 
L 75.50076 44.0916 
L 76.242683 45.11004 
L 76.984606 43.55532 
L 77.726529 42.72876 
L 79.210375 44.27364 
L 80.694221 44.47536 
L 81.436144 44.25888 
L 82.178067 43.64388 
L 82.91999 43.84068 
L 83.661913 43.85052 
L 84.403836 44.36712 
L 85.145759 44.26872 
L 85.887682 44.74104 
L 86.629605 44.98704 
L 87.371528 44.84436 
L 88.113451 45.58728 
L 88.855374 46.0596 
L 89.597297 45.18384 
L 92.564989 45.47904 
L 93.306912 45.65616 
L 94.048835 45.98088 
L 95.532681 45.38556 
L 96.274604 45.31668 
L 97.016527 45.58728 
L 97.75845 45.35604 
L 98.500373 45.40032 
L 99.242296 45.11496 
L 99.984218 44.42124 
L 101.468064 44.18508 
L 102.209987 43.62912 
L 102.95191 43.24044 
L 103.693833 43.8702 
L 104.435756 43.60944 
L 105.177679 43.92924 
L 105.919602 43.93416 
L 106.661525 43.46184 
L 107.403448 43.5012 
L 108.145371 42.72384 
L 108.887294 42.51228 
L 109.629217 43.08792 
L 110.37114 42.75828 
L 111.113063 42.90096 
L 112.596909 44.2392 
L 113.338832 45.23304 
L 114.080755 44.77548 
L 115.564601 45.04608 
L 116.306524 45.07068 
L 117.048447 46.1334 
L 117.79037 45.4446 
L 118.532293 45.06084 
L 119.274216 45.33144 
L 120.016139 46.30068 
L 120.758062 46.34496 
L 121.499985 47.89476 
L 122.241908 48.26376 
L 122.983831 47.96364 
L 124.199777 49.06572 
L 124.941323 50.04972 
L 125.680068 49.24776 
L 128.661293 49.59708 
L 129.400546 49.80372 
L 130.142246 49.86768 
L 130.875247 49.479 
L 131.578021 49.24776 
L 132.367534 49.48392 
L 133.016261 49.37568 
L 133.850203 49.479 
L 134.591225 49.7004 
L 136.816598 49.49376 
L 137.560754 49.98576 
L 138.24 49.96608 
L 138.24 49.96608 
" clip-path="url(#pa2c24716a3)" style="fill: none; stroke: #bebebe; stroke-width: 0.6; stroke-linecap: round"/>
   </g>
   <g id="line2d_6">
    <path d="M 5.76 26.43372 
L 6.501923 27.44724 
L 7.985769 27.27504 
L 8.727692 27.8802 
L 9.469615 27.72276 
L 10.211538 26.84208 
L 10.953461 27.91956 
L 11.695384 27.8556 
L 12.437307 28.09668 
L 13.17923 27.87528 
L 14.663076 27.83592 
L 15.404999 27.57024 
L 16.146922 26.77812 
L 16.888845 25.01184 
L 18.372691 25.71048 
L 19.114614 26.31564 
L 19.856537 26.45832 
L 20.59846 25.8384 
L 21.340383 25.84824 
L 22.082306 26.6994 
L 22.824229 26.62068 
L 23.566152 26.8224 
L 24.308075 28.61328 
L 25.79192 28.97244 
L 26.533843 30.99456 
L 27.275766 29.76456 
L 28.017689 29.8974 
L 28.759612 29.02164 
L 29.501535 28.50012 
L 30.243458 29.00688 
L 30.985381 27.59484 
L 31.727304 26.601 
L 32.469227 26.3796 
L 33.21115 26.5764 
L 33.953073 26.3796 
L 34.694996 25.1496 
L 35.436919 26.81256 
L 36.178842 26.29596 
L 36.920765 27.41772 
L 37.662688 31.19136 
L 38.404611 31.80144 
L 39.146534 28.89864 
L 39.888457 28.28364 
L 40.63038 29.11512 
L 41.372303 30.1434 
L 42.114226 30.80268 
L 42.856149 31.22088 
L 43.598072 30.8076 
L 44.339995 30.13356 
L 45.081918 30.17784 
L 45.823841 30.89124 
L 46.565764 31.42752 
L 47.307687 31.04376 
L 48.04961 30.49764 
L 48.791533 30.3648 
L 49.533456 28.88388 
L 50.275379 29.15448 
L 51.017302 30.15324 
L 52.501148 31.4226 
L 53.243071 31.10772 
L 54.726917 30.66 
L 56.210763 34.99944 
L 56.952686 34.07448 
L 57.694609 34.9158 
L 58.436532 34.02528 
L 59.178455 34.26144 
L 59.920378 33.0216 
L 60.662301 33.10524 
L 61.404224 34.1532 
L 62.146147 34.2024 
L 62.888069 35.4324 
L 63.629992 36.34752 
L 64.371915 35.89488 
L 65.855761 36.94776 
L 66.597684 36.2688 
L 67.339607 36.97236 
L 68.08153 38.286 
L 68.823453 38.76324 
L 69.565376 38.73864 
L 70.307299 38.51724 
L 71.049222 37.42992 
L 71.791145 37.42008 
L 72.533068 36.90348 
L 73.274991 36.98712 
L 74.016914 36.86412 
L 74.758837 37.16424 
L 75.50076 37.14948 
L 76.242683 38.52216 
L 77.726529 35.71776 
L 78.468452 36.15564 
L 79.210375 36.93792 
L 80.694221 36.72636 
L 81.436144 36.21468 
L 82.178067 34.8174 
L 82.91999 34.7928 
L 83.661913 35.42748 
L 84.403836 36.49512 
L 85.145759 36.28356 
L 85.887682 36.6378 
L 86.629605 37.3512 
L 87.371528 37.3512 
L 88.113451 38.31552 
L 88.855374 38.32536 
L 89.597297 37.26264 
L 90.33922 37.26264 
L 91.081143 37.09044 
L 91.823066 37.06092 
L 92.564989 37.34628 
L 93.306912 37.48404 
L 94.048835 37.77924 
L 95.532681 37.45944 
L 97.016527 37.56276 
L 97.75845 37.31184 
L 98.500373 37.33644 
L 99.242296 37.09536 
L 99.984218 36.23928 
L 101.468064 36.11628 
L 102.209987 35.48652 
L 102.95191 35.0142 
L 103.693833 35.93424 
L 104.435756 36.36228 
L 105.177679 36.50988 
L 105.919602 36.5148 
L 106.661525 36.25404 
L 107.403448 36.46068 
L 108.145371 34.83708 
L 108.887294 34.57632 
L 110.37114 35.00436 
L 111.113063 34.93056 
L 111.854986 35.088 
L 112.596909 35.78664 
L 113.338832 37.55292 
L 114.080755 37.26756 
L 114.822678 37.46436 
L 116.306524 37.45944 
L 117.048447 38.41392 
L 118.532293 36.95268 
L 119.274216 37.05108 
L 120.016139 38.37948 
L 120.758062 39.20604 
L 121.499985 41.03136 
L 122.241908 42.26628 
L 122.983831 41.73492 
L 123.61018 42.23676 
L 124.941323 44.89356 
L 125.680068 43.6242 
L 127.174751 43.53072 
L 127.920908 43.72752 
L 129.400546 44.436 
L 130.142246 44.49012 
L 130.875247 43.81608 
L 131.578021 43.7226 
L 132.367534 44.5344 
L 133.016261 44.19 
L 133.850203 44.21952 
L 135.328811 44.51472 
L 136.816598 44.3868 
L 137.560754 45.174 
L 138.24 45.23796 
L 138.24 45.23796 
" clip-path="url(#pa2c24716a3)" style="fill: none; stroke: #4a8dff; stroke-width: 0.6; stroke-linecap: round"/>
   </g>
   <g id="line2d_7">
    <path d="M 5.76 29.97612 
L 6.501923 31.97364 
L 7.243846 31.82112 
L 7.985769 32.0868 
L 8.727692 31.63416 
L 9.469615 30.6354 
L 10.211538 30.37464 
L 10.953461 30.86172 
L 11.695384 30.89616 
L 12.437307 31.11756 
L 13.921153 30.22212 
L 14.663076 30.45828 
L 15.404999 29.2578 
L 16.146922 28.50504 
L 16.888845 28.18032 
L 17.630768 28.2738 
L 18.372691 28.569 
L 19.114614 28.55424 
L 19.856537 27.8802 
L 20.59846 28.03272 
L 21.340383 27.69324 
L 22.082306 28.42632 
L 22.824229 28.3968 
L 23.566152 28.60344 
L 24.308075 29.88756 
L 25.049997 30.22212 
L 25.79192 29.58252 
L 26.533843 31.73256 
L 27.275766 31.36356 
L 28.017689 31.39308 
L 29.501535 29.09544 
L 30.243458 29.2332 
L 30.985381 27.02412 
L 31.727304 25.98108 
L 32.469227 25.16928 
L 33.21115 25.10532 
L 34.694996 23.92452 
L 35.436919 25.53336 
L 36.178842 24.62808 
L 36.920765 25.4448 
L 37.662688 29.64156 
L 38.404611 30.80268 
L 39.146534 28.65756 
L 39.888457 28.6428 
L 40.63038 29.66124 
L 42.114226 32.17044 
L 42.856149 32.97732 
L 43.598072 32.628 
L 44.339995 31.90476 
L 45.081918 30.92076 
L 45.823841 31.96872 
L 46.565764 32.39676 
L 47.307687 31.19628 
L 48.04961 30.72888 
L 48.791533 30.42384 
L 49.533456 29.0118 
L 50.275379 29.15448 
L 51.017302 29.76456 
L 51.759225 31.2012 
L 52.501148 32.09172 
L 53.243071 31.43244 
L 54.726917 30.90108 
L 55.46884 32.93796 
L 56.210763 35.35368 
L 56.952686 34.24668 
L 57.694609 35.5062 
L 58.436532 34.48284 
L 59.178455 35.02896 
L 59.920378 33.8334 
L 60.662301 33.243 
L 61.404224 34.69932 
L 62.146147 35.4078 
L 62.888069 36.2934 
L 63.629992 38.901 
L 64.371915 38.37948 
L 65.113838 38.92068 
L 65.855761 40.09164 
L 66.597684 39.70788 
L 67.339607 40.4262 
L 68.08153 42.75336 
L 68.823453 43.54548 
L 69.565376 43.72752 
L 70.307299 42.6894 
L 71.049222 41.976 
L 71.791145 42.42864 
L 72.533068 40.86408 
L 73.274991 40.47048 
L 75.50076 40.89852 
L 76.242683 42.9354 
L 76.984606 40.43604 
L 77.726529 39.31428 
L 78.468452 40.04244 
L 79.210375 41.43972 
L 79.952298 41.47416 
L 80.694221 41.02152 
L 81.436144 40.7952 
L 82.178067 39.75708 
L 82.91999 40.11132 
L 83.661913 39.87024 
L 84.403836 40.94772 
L 85.145759 40.97232 
L 86.629605 42.87144 
L 87.371528 42.17772 
L 88.113451 43.04364 
L 88.855374 43.34868 
L 89.597297 42.03504 
L 91.081143 41.8038 
L 91.823066 41.84316 
L 92.564989 42.37944 
L 93.306912 42.26628 
L 94.048835 42.468 
L 94.790758 42.42864 
L 95.532681 42.18264 
L 96.274604 42.1728 
L 97.016527 42.50244 
L 97.75845 41.88252 
L 98.500373 42.32532 
L 99.984218 41.13468 
L 101.468064 40.42128 
L 102.209987 39.16176 
L 102.95191 39.28968 
L 103.693833 40.48032 
L 105.919602 40.88376 
L 107.403448 40.53936 
L 108.145371 38.50248 
L 108.887294 37.63656 
L 109.629217 38.34012 
L 110.37114 38.37456 
L 111.113063 38.5812 
L 112.596909 39.8358 
L 113.338832 41.93172 
L 114.080755 41.42004 
L 115.564601 41.39052 
L 116.306524 41.5086 
L 117.048447 42.80256 
L 117.79037 41.93664 
L 118.532293 41.49384 
L 119.274216 41.51352 
L 120.016139 43.78164 
L 120.758062 43.9932 
L 121.499985 46.66968 
L 122.241908 47.55036 
L 122.983831 46.64508 
L 124.199777 48.89352 
L 124.941323 49.84308 
L 125.680068 49.00176 
L 126.438951 49.233 
L 127.174751 48.97716 
L 128.661293 49.36092 
L 130.142246 49.58724 
L 130.875247 49.28712 
L 131.578021 49.16904 
L 132.367534 49.39044 
L 133.016261 49.29696 
L 134.591225 49.55772 
L 136.816598 49.41996 
L 137.560754 49.8234 
L 138.24 49.86768 
L 138.24 49.86768 
" clip-path="url(#pa2c24716a3)" style="fill: none; stroke: #f5841e; stroke-width: 0.7; stroke-linecap: round"/>
   </g>
  </g>
 </g>
 <defs>
  <clipPath id="pa2c24716a3">
   <rect x="5.76" y="3.6" width="132.48" height="49.2"/>
  </clipPath>
 </defs>
</svg>
