<?xml version="1.0" encoding="utf-8" standalone="no"?>
<!DOCTYPE svg PUBLIC "-//W3C//DTD SVG 1.1//EN"
  "http://www.w3.org/Graphics/SVG/1.1/DTD/svg11.dtd">
<svg xmlns:xlink="http://www.w3.org/1999/xlink" width="144pt" height="60pt" viewBox="0 0 144 60" xmlns="http://www.w3.org/2000/svg" version="1.1">
  <desc id="nav-meta">{"window":"1y","count":4,"labels":["15.05","13.09","12.01","14.05"],"tick_utc":["2025-05-15T12:00:00Z","2025-09-13T12:00:00Z","2026-01-12T12:00:00Z","2026-05-14T04:32:13Z"]}</desc>

 <metadata>
  <rdf:RDF xmlns:dc="http://purl.org/dc/elements/1.1/" xmlns:cc="http://creativecommons.org/ns#" xmlns:rdf="http://www.w3.org/1999/02/22-rdf-syntax-ns#">
   <cc:Work>
    <dc:type rdf:resource="http://purl.org/dc/dcmitype/StillImage"/>
    <dc:date>2026-05-14T20:18:26.836854</dc:date>
    <dc:format>image/svg+xml</dc:format>
    <dc:creator>
     <cc:Agent>
      <dc:title>Matplotlib v3.10.9, https://matplotlib.org/</dc:title>
     </cc:Agent>
    </dc:creator>
   </cc:Work>
  </rdf:RDF>
 </metadata>
 <defs>
  <style type="text/css">*{stroke-linejoin: round; stroke-linecap: butt}</style>
 </defs>
 <g id="figure_1">
  <g id="patch_1">
   <path d="M 0 60 
L 144 60 
L 144 0 
L 0 0 
L 0 60 
z
" style="fill: none; opacity: 0"/>
  </g>
  <g id="axes_1">
   <g id="patch_2">
    <path d="M 5.76 52.8 
L 138.24 52.8 
L 138.24 3.6 
L 5.76 3.6 
L 5.76 52.8 
z
" style="fill: none"/>
   </g>
   <g id="matplotlib.axis_1"/>
   <g id="matplotlib.axis_2"/>
   <g id="line2d_1">
    <path d="M 5.76 42.96 
L 138.24 42.96 
" clip-path="url(#p8ec5d1dde1)" style="fill: none; stroke: #b2b2b2; stroke-opacity: 0.35; stroke-width: 0.5; stroke-linecap: square"/>
   </g>
   <g id="line2d_2">
    <path d="M 5.76 33.12 
L 138.24 33.12 
" clip-path="url(#p8ec5d1dde1)" style="fill: none; stroke: #b2b2b2; stroke-opacity: 0.35; stroke-width: 0.5; stroke-linecap: square"/>
   </g>
   <g id="line2d_3">
    <path d="M 5.76 23.28 
L 138.24 23.28 
" clip-path="url(#p8ec5d1dde1)" style="fill: none; stroke: #b2b2b2; stroke-opacity: 0.35; stroke-width: 0.5; stroke-linecap: square"/>
   </g>
   <g id="line2d_4">
    <path d="M 5.76 13.44 
L 138.24 13.44 
" clip-path="url(#p8ec5d1dde1)" style="fill: none; stroke: #b2b2b2; stroke-opacity: 0.35; stroke-width: 0.5; stroke-linecap: square"/>
   </g>
   <g id="line2d_5">
    <path d="M 5.76 38.63532 
L 6.124267 39.639 
L 6.852802 40.008 
L 7.217069 39.27492 
L 7.581336 39.90468 
L 7.945603 39.6882 
L 8.674138 38.22696 
L 9.038405 38.901 
L 9.402672 38.69436 
L 10.131207 38.86164 
L 10.495474 38.62056 
L 11.224008 39.88992 
L 11.588276 41.23308 
L 12.681077 41.17404 
L 13.409612 41.62176 
L 13.773879 42.79272 
L 14.138146 42.30564 
L 14.866681 41.7546 
L 15.230948 40.62792 
L 15.595215 40.131 
L 15.959483 40.6476 
L 16.32375 41.73492 
L 17.052284 42.76812 
L 17.416551 41.73492 
L 17.780819 41.89728 
L 18.145086 42.345 
L 18.509353 42.5664 
L 18.87362 42.46308 
L 19.602155 44.20476 
L 19.966422 44.45076 
L 20.330689 42.7632 
L 20.694957 42.63036 
L 21.059224 42.94524 
L 21.423491 43.52088 
L 21.787758 43.1076 
L 22.152025 41.98092 
L 22.88056 41.43972 
L 23.244827 42.4926 
L 23.609094 41.79888 
L 23.973362 41.78412 
L 24.337629 42.37452 
L 24.701896 42.3942 
L 25.066163 41.83332 
L 25.430431 42.24168 
L 25.794698 41.84316 
L 26.523232 40.2786 
L 26.8875 40.42128 
L 27.251767 40.71648 
L 27.980301 40.48032 
L 28.344568 40.26384 
L 28.708836 38.97972 
L 29.43737 38.51724 
L 29.801637 38.57628 
L 30.165905 38.04492 
L 30.530172 36.03264 
L 30.894439 34.88136 
L 31.258706 36.92316 
L 31.622974 37.8432 
L 31.987241 37.37088 
L 32.351508 37.53324 
L 32.715775 37.056 
L 33.080042 37.77924 
L 33.44431 38.02032 
L 33.808577 38.45328 
L 34.172844 39.1962 
L 34.537111 40.41636 
L 34.901379 40.97232 
L 35.265646 40.53444 
L 35.629913 39.55536 
L 35.99418 40.24908 
L 36.358448 39.7128 
L 36.722715 38.778 
L 37.086982 38.59104 
L 37.815516 37.794 
L 38.179784 38.82228 
L 38.544051 36.53448 
L 38.908318 35.334 
L 39.636853 37.44468 
L 40.00112 36.90348 
L 40.365387 36.65748 
L 41.093922 38.64516 
L 41.458189 37.2282 
L 41.822456 38.14332 
L 42.186723 35.53572 
L 42.550991 35.04372 
L 42.915258 34.80264 
L 43.279525 37.23804 
L 44.372327 33.67104 
L 44.736594 34.90596 
L 45.829396 35.9736 
L 46.193663 34.36476 
L 46.55793 34.1778 
L 46.922197 35.22084 
L 47.286465 35.11752 
L 47.650732 35.54556 
L 49.107801 32.44104 
L 49.472068 31.83096 
L 49.836335 30.06468 
L 50.200602 30.01056 
L 50.56487 30.291 
L 50.929137 31.16184 
L 51.293404 30.74856 
L 51.657671 29.71536 
L 52.021939 29.37588 
L 52.386206 30.57636 
L 52.750473 30.42876 
L 53.11474 30.79284 
L 53.479008 32.91828 
L 53.843275 33.72024 
L 54.207542 34.05972 
L 54.571809 36.5886 
L 54.936076 34.90104 
L 55.300344 35.10276 
L 55.664611 34.16796 
L 56.028878 33.8826 
L 56.393145 34.43364 
L 57.12168 31.05852 
L 57.485947 31.26024 
L 57.850214 31.92936 
L 58.214482 31.85064 
L 58.578749 31.3242 
L 58.943016 32.84448 
L 59.307283 31.78176 
L 59.67155 32.85924 
L 60.035818 36.8838 
L 60.400085 38.39424 
L 60.764352 35.95392 
L 61.128619 34.53696 
L 61.492887 35.20608 
L 62.221421 37.57752 
L 62.585688 37.90716 
L 62.949956 37.18884 
L 63.314223 37.18392 
L 63.67849 36.89364 
L 64.042757 37.42008 
L 64.407024 38.17284 
L 64.771292 36.687 
L 65.135559 36.42132 
L 65.499826 36.34752 
L 65.864093 35.56032 
L 66.228361 35.72268 
L 66.592628 36.29832 
L 66.956895 36.32292 
L 67.321162 37.61688 
L 67.68543 37.2282 
L 68.049697 37.34628 
L 68.413964 37.23804 
L 68.778231 40.008 
L 69.142499 41.36592 
L 69.506766 40.43604 
L 69.871033 41.44956 
L 70.2353 40.53444 
L 70.599567 41.02152 
L 70.963835 40.22448 
L 71.328102 39.79644 
L 71.692369 41.51844 
L 72.056636 41.66604 
L 72.785171 43.51596 
L 73.149438 43.43724 
L 73.513705 43.71276 
L 73.877973 44.59836 
L 74.24224 43.30932 
L 75.335041 44.88372 
L 75.699309 44.99688 
L 76.063576 44.57868 
L 76.427843 43.5996 
L 76.79211 43.51596 
L 77.156378 43.00428 
L 77.520645 43.2798 
L 77.884912 43.71768 
L 78.613447 44.0916 
L 78.977714 45.11004 
L 79.341981 43.55532 
L 79.706248 42.72876 
L 80.434783 44.27364 
L 81.163317 44.47536 
L 81.527584 44.25888 
L 81.891852 43.64388 
L 82.256119 43.84068 
L 82.620386 43.85052 
L 82.984653 44.36712 
L 83.348921 44.26872 
L 83.713188 44.74104 
L 84.077455 44.98704 
L 84.441722 44.84436 
L 84.80599 45.58728 
L 85.170257 46.0596 
L 85.534524 45.18384 
L 86.991593 45.47904 
L 87.35586 45.65616 
L 87.720127 45.98088 
L 88.448662 45.38556 
L 88.812929 45.31668 
L 89.177196 45.58728 
L 89.541464 45.35604 
L 89.905731 45.40032 
L 90.269998 45.11496 
L 90.634265 44.42124 
L 91.3628 44.18508 
L 92.091334 43.24044 
L 92.455601 43.8702 
L 92.819869 43.60944 
L 93.184136 43.92924 
L 93.548403 43.93416 
L 93.91267 43.46184 
L 94.276938 43.5012 
L 94.641205 42.72384 
L 95.005472 42.51228 
L 95.369739 43.08792 
L 95.734007 42.75828 
L 96.098274 42.90096 
L 96.826808 44.2392 
L 97.191075 45.23304 
L 97.555343 44.77548 
L 98.283877 45.04608 
L 98.648144 45.07068 
L 99.012412 46.1334 
L 99.376679 45.4446 
L 99.740946 45.06084 
L 100.105213 45.33144 
L 100.469481 46.30068 
L 100.833748 46.34496 
L 101.198015 47.89476 
L 101.562282 48.26376 
L 101.926549 47.96364 
L 102.887633 50.04972 
L 103.25034 49.24776 
L 104.714054 49.59708 
L 105.07701 49.80372 
L 105.441168 49.86768 
L 106.146101 49.24776 
L 106.533733 49.48392 
L 106.852244 49.37568 
L 107.26169 49.479 
L 107.625515 49.7004 
L 108.718122 49.49376 
L 109.083486 49.98576 
L 109.41698 49.96608 
L 109.810709 49.7004 
L 110.173353 49.27236 
L 110.536929 49.37076 
L 110.896904 49.68072 
L 111.269447 49.25268 
L 111.629954 49.51344 
L 112.722347 49.09032 
L 114.181077 49.58724 
L 114.543004 49.36092 
L 115.272829 49.45932 
L 115.636392 49.16904 
L 116.371411 49.27236 
L 116.736707 48.87384 
L 117.461645 48.70164 
L 117.826013 49.03128 
L 118.186735 49.1592 
L 118.548869 49.08048 
L 119.283706 49.36584 
L 120.035998 48.90828 
L 120.377566 49.05096 
L 121.103078 49.64628 
L 122.566976 49.59708 
L 122.926446 49.8726 
L 123.652278 49.80864 
L 124.74914 49.83816 
L 125.113997 49.50852 
L 125.476995 49.68564 
L 126.203312 49.48884 
L 126.940249 49.69056 
L 127.302198 49.40028 
L 127.666187 49.58724 
L 128.755805 49.19856 
L 129.124883 49.43472 
L 129.490052 49.50852 
L 131.306755 49.37568 
L 131.676689 49.4052 
L 132.044881 49.29204 
L 132.409911 49.5528 
L 132.773184 49.50852 
L 133.138062 49.64136 
L 133.86128 49.56264 
L 134.232942 49.57248 
L 134.597083 49.42488 
L 134.953327 49.49376 
L 135.688375 49.25268 
L 136.04658 49.24284 
L 136.41218 48.80004 
L 136.783787 48.85416 
L 137.510137 48.63276 
L 137.876138 48.66228 
L 138.24 49.09524 
L 138.24 49.09524 
" clip-path="url(#p8ec5d1dde1)" style="fill: none; stroke: #bebebe; stroke-width: 0.6; stroke-linecap: round"/>
   </g>
   <g id="line2d_6">
    <path d="M 5.76 39.90468 
L 6.124267 40.33764 
L 6.488534 40.32288 
L 6.852802 40.81488 
L 7.217069 40.88376 
L 7.581336 40.44588 
L 7.945603 40.46556 
L 8.309871 40.21956 
L 8.674138 39.52584 
L 9.038405 40.49508 
L 10.131207 40.19496 
L 10.495474 39.4914 
L 10.859741 39.38808 
L 11.224008 39.69312 
L 11.588276 40.46556 
L 12.31681 40.36716 
L 12.681077 39.8604 
L 13.045345 39.96372 
L 13.409612 39.85548 
L 13.773879 41.1888 
L 14.502414 40.4508 
L 14.866681 40.5738 
L 15.595215 38.45328 
L 15.959483 38.68452 
L 16.32375 39.55536 
L 16.688017 40.09164 
L 17.052284 40.39668 
L 17.780819 40.2048 
L 18.145086 40.52952 
L 18.87362 40.48032 
L 19.602155 42.26136 
L 19.966422 42.5664 
L 20.330689 41.17404 
L 20.694957 41.0166 
L 21.059224 41.22324 
L 21.787758 41.17896 
L 22.152025 41.08056 
L 22.516293 40.61808 
L 22.88056 40.7214 
L 23.244827 41.30688 
L 23.609094 40.11132 
L 23.973362 39.99816 
L 24.337629 40.56888 
L 24.701896 40.51476 
L 25.066163 40.131 
L 25.430431 40.3278 
L 25.794698 39.81612 
L 26.523232 37.46436 
L 26.8875 37.39056 
L 27.251767 37.50372 
L 27.980301 37.01172 
L 28.344568 36.16056 
L 28.708836 34.4976 
L 29.073103 33.69072 
L 29.801637 32.89368 
L 30.165905 31.73256 
L 30.530172 31.68336 
L 30.894439 31.8162 
L 31.258706 32.64276 
L 31.622974 32.0868 
L 32.351508 31.85064 
L 32.715775 30.98964 
L 33.080042 31.53576 
L 33.44431 31.521 
L 33.808577 31.38816 
L 34.172844 32.17044 
L 34.537111 33.68088 
L 34.901379 34.28604 
L 35.265646 33.58248 
L 35.629913 32.0376 
L 35.99418 32.76576 
L 36.358448 32.259 
L 36.722715 30.65508 
L 37.086982 29.93676 
L 37.451249 28.14588 
L 38.179784 28.40664 
L 38.544051 25.73508 
L 38.908318 24.62316 
L 39.272585 26.10408 
L 39.636853 26.97984 
L 40.00112 27.00936 
L 40.365387 26.58132 
L 40.729654 27.7818 
L 41.093922 29.49888 
L 41.458189 27.68832 
L 41.822456 28.44108 
L 42.186723 24.16068 
L 42.550991 24.55428 
L 42.915258 24.51984 
L 43.279525 27.32916 
L 43.643792 25.7646 
L 44.008059 26.48784 
L 44.372327 26.43372 
L 44.736594 27.44724 
L 45.465128 27.27504 
L 45.829396 27.8802 
L 46.193663 27.72276 
L 46.55793 26.84208 
L 46.922197 27.91956 
L 47.286465 27.8556 
L 47.650732 28.09668 
L 48.014999 27.87528 
L 48.743533 27.83592 
L 49.107801 27.57024 
L 49.472068 26.77812 
L 49.836335 25.01184 
L 50.56487 25.71048 
L 50.929137 26.31564 
L 51.293404 26.45832 
L 51.657671 25.8384 
L 52.021939 25.84824 
L 52.386206 26.6994 
L 52.750473 26.62068 
L 53.11474 26.8224 
L 53.479008 28.61328 
L 54.207542 28.97244 
L 54.571809 30.99456 
L 54.936076 29.76456 
L 55.300344 29.8974 
L 55.664611 29.02164 
L 56.028878 28.50012 
L 56.393145 29.00688 
L 57.12168 26.601 
L 57.485947 26.3796 
L 57.850214 26.5764 
L 58.214482 26.3796 
L 58.578749 25.1496 
L 58.943016 26.81256 
L 59.307283 26.29596 
L 59.67155 27.41772 
L 60.035818 31.19136 
L 60.400085 31.80144 
L 60.764352 28.89864 
L 61.128619 28.28364 
L 62.221421 30.80268 
L 62.585688 31.22088 
L 62.949956 30.8076 
L 63.314223 30.13356 
L 63.67849 30.17784 
L 64.407024 31.42752 
L 64.771292 31.04376 
L 65.135559 30.49764 
L 65.499826 30.3648 
L 65.864093 28.88388 
L 66.228361 29.15448 
L 66.592628 30.15324 
L 67.321162 31.4226 
L 68.049697 30.9306 
L 68.413964 30.66 
L 69.142499 34.99944 
L 69.506766 34.07448 
L 69.871033 34.9158 
L 70.2353 34.02528 
L 70.599567 34.26144 
L 70.963835 33.0216 
L 71.328102 33.10524 
L 71.692369 34.1532 
L 72.056636 34.2024 
L 72.785171 36.34752 
L 73.149438 35.89488 
L 73.877973 36.94776 
L 74.24224 36.2688 
L 74.606507 36.97236 
L 74.970774 38.286 
L 75.335041 38.76324 
L 75.699309 38.73864 
L 76.063576 38.51724 
L 76.427843 37.42992 
L 76.79211 37.42008 
L 77.156378 36.90348 
L 77.520645 36.98712 
L 77.884912 36.86412 
L 78.249179 37.16424 
L 78.613447 37.14948 
L 78.977714 38.52216 
L 79.706248 35.71776 
L 80.070516 36.15564 
L 80.434783 36.93792 
L 81.163317 36.72636 
L 81.527584 36.21468 
L 81.891852 34.8174 
L 82.256119 34.7928 
L 82.620386 35.42748 
L 82.984653 36.49512 
L 83.348921 36.28356 
L 83.713188 36.6378 
L 84.077455 37.3512 
L 84.441722 37.3512 
L 84.80599 38.31552 
L 85.170257 38.32536 
L 85.534524 37.26264 
L 85.898791 37.26264 
L 86.263058 37.09044 
L 86.627326 37.06092 
L 86.991593 37.34628 
L 87.35586 37.48404 
L 87.720127 37.77924 
L 88.448662 37.45944 
L 89.177196 37.56276 
L 89.541464 37.31184 
L 89.905731 37.33644 
L 90.269998 37.09536 
L 90.634265 36.23928 
L 91.3628 36.11628 
L 92.091334 35.0142 
L 92.455601 35.93424 
L 92.819869 36.36228 
L 93.184136 36.50988 
L 93.548403 36.5148 
L 93.91267 36.25404 
L 94.276938 36.46068 
L 94.641205 34.83708 
L 95.005472 34.57632 
L 95.734007 35.00436 
L 96.098274 34.93056 
L 96.462541 35.088 
L 96.826808 35.78664 
L 97.191075 37.55292 
L 97.555343 37.26756 
L 97.91961 37.46436 
L 98.648144 37.45944 
L 99.012412 38.41392 
L 99.740946 36.95268 
L 100.105213 37.05108 
L 100.469481 38.37948 
L 100.833748 39.20604 
L 101.198015 41.03136 
L 101.562282 42.26628 
L 101.926549 41.73492 
L 102.234073 42.23676 
L 102.887633 44.89356 
L 103.25034 43.6242 
L 103.984196 43.53072 
L 104.350541 43.72752 
L 105.07701 44.436 
L 105.441168 44.49012 
L 105.801054 43.81608 
L 106.146101 43.7226 
L 106.533733 44.5344 
L 106.852244 44.19 
L 107.26169 44.21952 
L 107.987653 44.51472 
L 108.718122 44.3868 
L 109.083486 45.174 
L 109.41698 45.23796 
L 109.810709 44.81484 
L 110.173353 43.821 
L 110.536929 44.01288 
L 110.896904 44.66232 
L 111.269447 43.93908 
L 111.629954 44.39664 
L 111.995069 44.12112 
L 112.357295 44.33268 
L 112.722347 43.3044 
L 113.086441 43.6242 
L 113.447913 44.29824 
L 113.815718 44.53932 
L 114.181077 44.30808 
L 114.543004 43.8702 
L 114.907128 44.00304 
L 115.272829 43.97844 
L 115.636392 43.41756 
L 116.371411 43.48644 
L 117.094599 41.73984 
L 117.461645 41.7546 
L 118.186735 43.14204 
L 118.548869 43.083 
L 118.918583 43.35852 
L 119.283706 43.78164 
L 119.6446 43.21584 
L 120.035998 42.9354 
L 120.377566 43.10268 
L 121.103078 44.25396 
L 122.199585 43.74228 
L 122.566976 43.46676 
L 123.29113 43.79148 
L 124.02203 43.77672 
L 124.387238 43.2552 
L 124.74914 43.40772 
L 125.113997 42.49752 
L 125.476995 42.90588 
L 125.844614 42.8616 
L 126.203312 42.41388 
L 126.940249 42.79764 
L 127.302198 41.57256 
L 127.666187 41.86284 
L 128.032031 41.63652 
L 128.395556 41.85792 
L 128.755805 41.22324 
L 129.490052 42.1482 
L 129.852722 41.96616 
L 130.215859 41.59224 
L 130.946835 41.99076 
L 131.306755 41.91696 
L 131.676689 41.98584 
L 132.044881 41.41512 
L 132.409911 42.15312 
L 132.773184 41.96124 
L 133.138062 42.43848 
L 133.86128 42.02028 
L 134.232942 42.0252 
L 134.597083 41.40528 
L 135.324011 41.52336 
L 136.04658 42.1974 
L 136.41218 41.8776 
L 137.15093 41.8038 
L 137.510137 41.976 
L 137.876138 42.00552 
L 138.24 42.3942 
L 138.24 42.3942 
" clip-path="url(#p8ec5d1dde1)" style="fill: none; stroke: #4a8dff; stroke-width: 0.6; stroke-linecap: round"/>
   </g>
   <g id="line2d_7">
    <path d="M 5.76 34.38444 
L 6.124267 34.33032 
L 6.852802 34.57632 
L 7.217069 33.18396 
L 7.581336 33.38076 
L 7.945603 32.81004 
L 8.309871 31.38816 
L 8.674138 30.45336 
L 9.038405 32.59848 
L 9.402672 32.29344 
L 9.76694 31.78176 
L 10.131207 31.53084 
L 10.495474 31.68336 
L 10.859741 32.28852 
L 11.588276 34.1778 
L 11.952543 33.84324 
L 12.31681 33.3414 
L 12.681077 33.25284 
L 13.409612 33.7842 
L 13.773879 35.34384 
L 14.138146 33.981 
L 14.502414 33.35616 
L 14.866681 33.35124 
L 15.230948 31.09296 
L 15.595215 31.11756 
L 15.959483 31.87524 
L 16.32375 33.20856 
L 16.688017 33.17412 
L 17.052284 33.45456 
L 17.416551 33.4152 
L 17.780819 32.7264 
L 18.145086 33.84816 
L 18.87362 33.84324 
L 19.966422 35.73744 
L 20.330689 33.4398 
L 20.694957 33.20856 
L 21.059224 32.58372 
L 21.423491 32.71164 
L 22.152025 32.53944 
L 22.516293 32.013 
L 23.244827 33.3906 
L 23.609094 31.80144 
L 23.973362 31.41768 
L 24.337629 32.19012 
L 24.701896 32.10156 
L 25.066163 31.60956 
L 25.430431 32.0622 
L 25.794698 31.73748 
L 26.158965 30.56652 
L 26.523232 28.31808 
L 26.8875 27.48168 
L 27.251767 27.55548 
L 27.616034 26.71908 
L 27.980301 26.36484 
L 28.344568 27.42756 
L 29.073103 26.55672 
L 29.43737 27.27504 
L 29.801637 27.31932 
L 30.165905 27.63912 
L 30.530172 27.52596 
L 30.894439 26.3058 
L 31.258706 26.96016 
L 31.622974 27.09792 
L 31.987241 27.49644 
L 32.351508 27.2898 
L 32.715775 26.57148 
L 33.080042 27.27012 
L 33.808577 27.35376 
L 34.537111 29.62188 
L 34.901379 29.96136 
L 35.265646 29.14956 
L 35.629913 28.68216 
L 35.99418 29.184 
L 36.358448 28.7412 
L 36.722715 27.5358 
L 37.086982 27.91956 
L 37.451249 28.00812 
L 37.815516 26.64528 
L 38.179784 26.88636 
L 38.544051 26.1828 
L 38.908318 24.52476 
L 39.272585 27.0684 
L 39.636853 27.59484 
L 40.365387 27.49644 
L 40.729654 28.13112 
L 41.093922 29.8482 
L 41.458189 29.12004 
L 41.822456 30.03024 
L 42.186723 27.84576 
L 42.915258 29.54316 
L 43.279525 31.13232 
L 43.643792 30.31068 
L 44.008059 30.62064 
L 44.372327 29.97612 
L 44.736594 31.97364 
L 45.100861 31.82112 
L 45.465128 32.0868 
L 45.829396 31.63416 
L 46.193663 30.6354 
L 46.55793 30.37464 
L 46.922197 30.86172 
L 47.286465 30.89616 
L 47.650732 31.11756 
L 48.379266 30.22212 
L 48.743533 30.45828 
L 49.107801 29.2578 
L 49.472068 28.50504 
L 49.836335 28.18032 
L 50.200602 28.2738 
L 50.56487 28.569 
L 50.929137 28.55424 
L 51.293404 27.8802 
L 51.657671 28.03272 
L 52.021939 27.69324 
L 52.386206 28.42632 
L 52.750473 28.3968 
L 53.11474 28.60344 
L 53.479008 29.88756 
L 53.843275 30.22212 
L 54.207542 29.58252 
L 54.571809 31.73256 
L 54.936076 31.36356 
L 55.300344 31.39308 
L 56.028878 29.09544 
L 56.393145 29.2332 
L 56.757413 27.02412 
L 57.485947 25.16928 
L 57.850214 25.10532 
L 58.578749 23.92452 
L 58.943016 25.53336 
L 59.307283 24.62808 
L 59.67155 25.4448 
L 60.035818 29.64156 
L 60.400085 30.80268 
L 60.764352 28.65756 
L 61.128619 28.6428 
L 61.857154 30.87156 
L 62.221421 32.17044 
L 62.585688 32.97732 
L 62.949956 32.628 
L 63.314223 31.90476 
L 63.67849 30.92076 
L 64.042757 31.96872 
L 64.407024 32.39676 
L 64.771292 31.19628 
L 65.499826 30.42384 
L 65.864093 29.0118 
L 66.228361 29.15448 
L 66.592628 29.76456 
L 66.956895 31.2012 
L 67.321162 32.09172 
L 67.68543 31.43244 
L 68.413964 30.90108 
L 69.142499 35.35368 
L 69.506766 34.24668 
L 69.871033 35.5062 
L 70.2353 34.48284 
L 70.599567 35.02896 
L 70.963835 33.8334 
L 71.328102 33.243 
L 71.692369 34.69932 
L 72.420904 36.2934 
L 72.785171 38.901 
L 73.149438 38.37948 
L 73.513705 38.92068 
L 73.877973 40.09164 
L 74.24224 39.70788 
L 74.606507 40.4262 
L 74.970774 42.75336 
L 75.335041 43.54548 
L 75.699309 43.72752 
L 76.427843 41.976 
L 76.79211 42.42864 
L 77.156378 40.86408 
L 77.520645 40.47048 
L 78.613447 40.89852 
L 78.977714 42.9354 
L 79.341981 40.43604 
L 79.706248 39.31428 
L 80.070516 40.04244 
L 80.434783 41.43972 
L 80.79905 41.47416 
L 81.163317 41.02152 
L 81.527584 40.7952 
L 81.891852 39.75708 
L 82.256119 40.11132 
L 82.620386 39.87024 
L 82.984653 40.94772 
L 83.348921 40.97232 
L 84.077455 42.87144 
L 84.441722 42.17772 
L 84.80599 43.04364 
L 85.170257 43.34868 
L 85.534524 42.03504 
L 86.263058 41.8038 
L 86.627326 41.84316 
L 86.991593 42.37944 
L 87.35586 42.26628 
L 87.720127 42.468 
L 88.084395 42.42864 
L 88.448662 42.18264 
L 88.812929 42.1728 
L 89.177196 42.50244 
L 89.541464 41.88252 
L 89.905731 42.32532 
L 90.634265 41.13468 
L 91.3628 40.42128 
L 91.727067 39.16176 
L 92.091334 39.28968 
L 92.455601 40.48032 
L 93.548403 40.88376 
L 94.276938 40.53936 
L 94.641205 38.50248 
L 95.005472 37.63656 
L 95.369739 38.34012 
L 95.734007 38.37456 
L 96.098274 38.5812 
L 96.826808 39.8358 
L 97.191075 41.93172 
L 97.555343 41.42004 
L 98.283877 41.39052 
L 98.648144 41.5086 
L 99.012412 42.80256 
L 99.376679 41.93664 
L 99.740946 41.49384 
L 100.105213 41.51352 
L 100.469481 43.78164 
L 100.833748 43.9932 
L 101.198015 46.66968 
L 101.562282 47.55036 
L 101.926549 46.64508 
L 102.523551 48.89352 
L 102.887633 49.84308 
L 103.25034 49.00176 
L 103.622934 49.233 
L 103.984196 48.97716 
L 104.714054 49.36092 
L 105.441168 49.58724 
L 105.801054 49.28712 
L 106.146101 49.16904 
L 106.533733 49.39044 
L 106.852244 49.29696 
L 107.625515 49.55772 
L 108.718122 49.41996 
L 109.083486 49.8234 
L 109.41698 49.86768 
L 109.810709 49.72992 
L 110.173353 49.39536 
L 110.896904 49.6758 
L 111.269447 49.47408 
L 111.629954 49.60692 
L 111.995069 49.37568 
L 112.357295 49.36584 
L 112.722347 48.6672 
L 113.815718 49.54788 
L 114.181077 49.5282 
L 114.543004 49.09032 
L 115.272829 49.2084 
L 115.636392 48.93288 
L 116.371411 48.89844 
L 117.094599 48.1998 
L 117.461645 48.28344 
L 117.826013 48.88368 
L 118.186735 49.04604 
L 118.548869 49.00176 
L 119.283706 49.38552 
L 119.6446 49.04112 
L 120.035998 48.92796 
L 120.377566 48.987 
L 121.103078 49.66104 
L 122.566976 49.40028 
L 122.926446 49.56756 
L 123.652278 49.56264 
L 124.02203 49.53312 
L 124.387238 49.25268 
L 124.74914 49.29696 
L 125.113997 48.89352 
L 125.476995 48.96732 
L 126.203312 48.5934 
L 126.574114 48.84432 
L 126.940249 48.95748 
L 127.302198 48.30804 
L 127.666187 48.34248 
L 128.032031 48.21456 
L 128.395556 48.26376 
L 128.755805 47.41752 
L 129.124883 48.05712 
L 129.490052 48.26376 
L 129.852722 48.01776 
L 130.215859 47.23548 
L 131.306755 47.1666 
L 131.676689 47.31912 
L 132.044881 46.49256 
L 132.409911 47.64876 
L 132.773184 47.5356 
L 133.138062 48.0276 
L 133.86128 46.81728 
L 134.232942 46.92552 
L 134.597083 45.85788 
L 135.324011 45.29208 
L 135.688375 45.58728 
L 136.04658 46.2564 
L 136.41218 45.7152 
L 137.876138 45.42492 
L 138.24 46.38432 
L 138.24 46.38432 
" clip-path="url(#p8ec5d1dde1)" style="fill: none; stroke: #f5841e; stroke-width: 0.7; stroke-linecap: round"/>
   </g>
  </g>
 </g>
 <defs>
  <clipPath id="p8ec5d1dde1">
   <rect x="5.76" y="3.6" width="132.48" height="49.2"/>
  </clipPath>
 </defs>
</svg>
