<?xml version="1.0" encoding="utf-8" standalone="no"?>
<!DOCTYPE svg PUBLIC "-//W3C//DTD SVG 1.1//EN"
  "http://www.w3.org/Graphics/SVG/1.1/DTD/svg11.dtd">
<svg xmlns:xlink="http://www.w3.org/1999/xlink" width="144pt" height="60pt" viewBox="0 0 144 60" xmlns="http://www.w3.org/2000/svg" version="1.1">
  <desc id="nav-meta">{"window":"6m","count":4,"labels":["5 Jan","14 Jan","22 Jan","28 Jan"],"idxs":[0,68,137,205]}</desc>

 <metadata>
  <rdf:RDF xmlns:dc="http://purl.org/dc/elements/1.1/" xmlns:cc="http://creativecommons.org/ns#" xmlns:rdf="http://www.w3.org/1999/02/22-rdf-syntax-ns#">
   <cc:Work>
    <dc:type rdf:resource="http://purl.org/dc/dcmitype/StillImage"/>
    <dc:date>2026-01-28T01:39:56.880153</dc:date>
    <dc:format>image/svg+xml</dc:format>
    <dc:creator>
     <cc:Agent>
      <dc:title>Matplotlib v3.10.8, https://matplotlib.org/</dc:title>
     </cc:Agent>
    </dc:creator>
   </cc:Work>
  </rdf:RDF>
 </metadata>
 <defs>
  <style type="text/css">*{stroke-linejoin: round; stroke-linecap: butt}</style>
 </defs>
 <g id="figure_1">
  <g id="patch_1">
   <path d="M 0 60 
L 144 60 
L 144 0 
L 0 0 
L 0 60 
z
" style="fill: none; opacity: 0"/>
  </g>
  <g id="axes_1">
   <g id="patch_2">
    <path d="M 5.76 52.8 
L 138.24 52.8 
L 138.24 3.6 
L 5.76 3.6 
L 5.76 52.8 
z
" style="fill: none"/>
   </g>
   <g id="matplotlib.axis_1"/>
   <g id="matplotlib.axis_2"/>
   <g id="line2d_1">
    <path d="M 5.76 42.96 
L 138.24 42.96 
" clip-path="url(#p3f50637eca)" style="fill: none; stroke: #b2b2b2; stroke-opacity: 0.35; stroke-width: 0.5; stroke-linecap: square"/>
   </g>
   <g id="line2d_2">
    <path d="M 5.76 33.12 
L 138.24 33.12 
" clip-path="url(#p3f50637eca)" style="fill: none; stroke: #b2b2b2; stroke-opacity: 0.35; stroke-width: 0.5; stroke-linecap: square"/>
   </g>
   <g id="line2d_3">
    <path d="M 5.76 23.28 
L 138.24 23.28 
" clip-path="url(#p3f50637eca)" style="fill: none; stroke: #b2b2b2; stroke-opacity: 0.35; stroke-width: 0.5; stroke-linecap: square"/>
   </g>
   <g id="line2d_4">
    <path d="M 5.76 13.44 
L 138.24 13.44 
" clip-path="url(#p3f50637eca)" style="fill: none; stroke: #b2b2b2; stroke-opacity: 0.35; stroke-width: 0.5; stroke-linecap: square"/>
   </g>
   <g id="line2d_5">
    <path d="M 6.081553 38.29584 
L 9.125175 38.21712 
L 9.445557 38.120573 
L 10.086319 37.79892 
L 10.727082 37.882518 
L 11.367844 38.17284 
L 13.290132 38.24129 
L 13.930895 38.46312 
L 14.892038 38.359818 
L 15.532801 38.31552 
L 15.853182 38.367171 
L 16.654135 38.5812 
L 17.134707 38.533327 
L 17.93566 38.32536 
L 18.416232 38.393487 
L 19.056995 38.7042 
L 20.178329 38.600115 
L 21.299664 38.431101 
L 21.780236 38.34996 
L 22.260808 38.305662 
L 23.061761 38.06952 
L 23.862714 38.171674 
L 24.503477 38.22696 
L 24.984048 38.311921 
L 25.624811 38.44344 
L 26.425764 38.530816 
L 27.066527 38.5812 
L 33.794533 38.503909 
L 34.595487 38.27616 
L 37.318727 38.179033 
L 37.95949 38.1138 
L 38.279871 38.089798 
L 39.080824 37.75464 
L 39.721587 37.845747 
L 40.362349 38.04984 
L 41.163303 38.131083 
L 41.804065 38.19744 
L 42.284637 38.09183 
L 42.9254 37.83828 
L 43.726353 37.756553 
L 44.367115 37.68576 
L 45.969022 37.598599 
L 46.930166 37.4496 
L 48.692263 37.347918 
L 50.61455 37.1298 
L 51.255313 37.219472 
L 51.896075 37.4988 
L 52.697028 37.424857 
L 53.497982 37.34628 
L 54.939697 37.34628 
L 55.74065 37.85304 
L 57.182366 37.76943 
L 57.823129 37.671 
L 58.463891 37.57315 
L 59.104654 37.45452 
L 64.711326 37.52172 
L 65.512279 37.68576 
L 70.317998 37.74972 
L 70.63838 38.162121 
L 71.118952 38.8272 
L 73.521811 38.727533 
L 74.322764 38.72672 
L 75.283908 38.86656 
L 75.604289 38.923627 
L 76.245052 39.41268 
L 77.206196 39.512276 
L 77.846958 39.57996 
L 82.172105 39.538663 
L 82.812868 39.3438 
L 83.613821 39.253052 
L 84.254584 39.18144 
L 85.055537 39.283869 
L 85.85649 39.310042 
L 88.900112 39.467607 
L 89.380684 39.52092 
L 109.564704 39.626027 
L 110.686039 39.64392 
L 111.486992 39.754665 
L 112.768517 39.76692 
L 114.850995 39.64884 
L 123.180908 39.75054 
L 124.462433 39.860795 
L 125.103196 40.75584 
L 125.743958 40.722446 
L 126.384721 40.27368 
L 128.467199 40.16831 
L 129.268152 40.06212 
L 134.714634 40.034997 
L 135.515587 39.63408 
L 137.918447 39.68328 
L 137.918447 39.68328 
" clip-path="url(#p3f50637eca)" style="fill: none; stroke: #bebebe; stroke-width: 0.6; stroke-linecap: round"/>
   </g>
   <g id="line2d_6">
    <path d="M 6.081553 52.8 
L 136.636922 52.754483 
L 137.277684 46.55652 
L 137.918447 46.55652 
L 137.918447 46.55652 
" clip-path="url(#p3f50637eca)" style="fill: none; stroke-dasharray: 0.84,1.4; stroke-dashoffset: 0; stroke: #a0a0a0; stroke-width: 0.7"/>
   </g>
   <g id="line2d_7">
    <path d="M 6.081553 32.44596 
L 8.804794 32.428611 
L 9.445557 32.13108 
L 10.086319 32.185858 
L 10.887272 32.37216 
L 12.80956 32.447162 
L 13.290132 32.63784 
L 15.052229 32.73624 
L 16.013373 33.10524 
L 18.095851 33.196215 
L 18.576423 33.28236 
L 19.056995 33.336103 
L 19.697757 33.5874 
L 20.33852 33.541697 
L 21.139473 33.3168 
L 24.022905 33.42504 
L 26.105383 33.56772 
L 27.707289 33.466158 
L 29.629577 33.43488 
L 33.313961 33.324249 
L 34.755677 33.291022 
L 35.716821 33.271886 
L 36.357584 33.008203 
L 37.158537 33.25776 
L 41.964256 33.161775 
L 43.245781 33.097002 
L 44.206925 32.960199 
L 44.847687 32.64276 
L 45.328259 32.618034 
L 45.969022 31.7178 
L 49.493216 31.618473 
L 49.973788 31.46688 
L 50.454359 31.46688 
L 51.255313 31.9392 
L 51.896075 31.840274 
L 52.536838 31.52592 
L 53.497982 31.612149 
L 53.818363 31.741778 
L 54.459125 32.078676 
L 55.74065 32.058757 
L 56.381413 31.935272 
L 57.342557 32.04744 
L 61.827895 31.952525 
L 63.10942 31.884554 
L 64.230754 31.875712 
L 66.633614 31.857312 
L 68.716092 31.68336 
L 69.036473 31.68336 
L 69.356855 32.034533 
L 69.837426 32.589124 
L 71.439333 32.592173 
L 73.041239 32.56896 
L 73.842192 32.672979 
L 74.482955 32.85432 
L 74.963527 32.916038 
L 75.604289 33.42504 
L 76.245052 33.473666 
L 76.885814 33.9072 
L 77.846958 33.991629 
L 78.487721 34.04988 
L 79.128483 34.130393 
L 79.769246 34.18764 
L 82.652677 34.151969 
L 83.45363 33.84816 
L 84.414774 33.943141 
L 85.536109 33.993201 
L 87.938968 34.224447 
L 88.579731 34.45332 
L 107.322035 34.358812 
L 108.283179 34.31064 
L 109.564704 34.55664 
L 110.525848 34.551798 
L 111.16661 34.65996 
L 111.807373 34.577605 
L 112.448136 34.472749 
L 113.56947 34.486164 
L 114.690804 34.37576 
L 117.414045 34.332042 
L 123.66148 34.5714 
L 123.821671 34.643604 
L 124.462433 35.47176 
L 125.103196 35.442348 
L 125.904149 35.06832 
L 126.384721 35.041526 
L 127.185674 34.65996 
L 130.549677 34.57626 
L 131.030249 34.46808 
L 131.991393 34.572189 
L 132.632156 34.60092 
L 134.073871 34.609809 
L 134.714634 33.9072 
L 137.918447 33.98592 
L 137.918447 33.98592 
" clip-path="url(#p3f50637eca)" style="fill: none; stroke: #4a8dff; stroke-width: 0.7; stroke-linecap: round"/>
   </g>
   <g id="line2d_8">
    <path d="M 6.081553 37.0806 
L 8.164032 37.176902 
L 8.804794 37.272612 
L 9.605747 37.14456 
L 9.926129 37.14456 
L 10.727082 37.71528 
L 12.649369 37.735325 
L 13.290132 38.0646 
L 14.251276 37.978067 
L 14.892038 37.9416 
L 15.21242 38.022478 
L 15.853182 38.34996 
L 17.77547 38.434724 
L 18.416232 38.76816 
L 20.33852 38.757268 
L 20.979283 38.36472 
L 22.90157 38.401193 
L 23.702523 38.655 
L 27.707289 38.545433 
L 28.988814 38.545373 
L 31.231483 38.547131 
L 32.513008 38.46706 
L 35.877012 38.32053 
L 36.357584 37.956079 
L 36.998346 38.47788 
L 38.920634 38.416503 
L 39.721587 38.163 
L 41.643875 38.119515 
L 42.284637 37.87764 
L 44.046734 37.776789 
L 44.687497 36.86904 
L 45.48845 36.776762 
L 46.129212 36.53448 
L 48.0515 36.496196 
L 48.692263 36.08184 
L 49.172834 36.079353 
L 49.973788 35.57016 
L 50.454359 35.57016 
L 51.255313 36.12612 
L 51.896075 36.041326 
L 52.536838 35.77188 
L 53.1776 35.854091 
L 54.619316 36.564257 
L 55.900841 36.469552 
L 56.381413 36.417703 
L 57.182366 36.60336 
L 61.667704 36.512959 
L 62.789038 36.470837 
L 67.915139 36.604807 
L 69.036473 36.50004 
L 69.356855 36.929891 
L 69.837426 37.587258 
L 70.958761 37.49388 
L 72.881048 37.470954 
L 73.682002 37.507713 
L 74.322764 37.87764 
L 74.963527 37.931909 
L 75.604289 38.37948 
L 76.405242 38.465565 
L 77.046005 38.62548 
L 77.686768 38.724944 
L 78.32753 38.91576 
L 79.288674 39.014184 
L 81.050771 39.12732 
L 81.531343 39.035783 
L 82.172105 38.84196 
L 83.133249 38.742125 
L 83.934202 38.72486 
L 85.215727 38.822035 
L 87.938968 38.886437 
L 88.579731 39.147 
L 93.38545 39.05306 
L 94.026212 39.01908 
L 94.506784 38.935948 
L 95.147547 38.8518 
L 96.429072 38.960644 
L 97.230025 39.02892 
L 107.322035 38.918624 
L 108.122988 38.82228 
L 108.44337 38.870954 
L 109.244323 39.11256 
L 110.686039 39.211444 
L 111.486992 39.2454 
L 112.608326 39.028663 
L 113.56947 39.046854 
L 115.651948 38.88132 
L 117.574236 38.97767 
L 118.855761 39.044421 
L 121.25862 39.248311 
L 122.059574 39.51108 
L 122.860527 39.430399 
L 123.501289 39.37332 
L 123.821671 39.451442 
L 124.462433 40.34748 
L 125.103196 40.314481 
L 125.743958 39.89484 
L 126.544911 39.812778 
L 127.185674 39.63408 
L 129.428343 39.733054 
L 129.908915 39.78168 
L 130.229296 39.760804 
L 131.030249 39.30444 
L 131.671012 39.381707 
L 132.311774 39.57504 
L 133.112728 39.676226 
L 133.75349 39.76692 
L 134.073871 39.750671 
L 134.714634 39.024 
L 137.918447 39.08796 
L 137.918447 39.08796 
" clip-path="url(#p3f50637eca)" style="fill: none; stroke: #f5841e; stroke-width: 0.8; stroke-linecap: round"/>
   </g>
  </g>
 </g>
 <defs>
  <clipPath id="p3f50637eca">
   <rect x="5.76" y="3.6" width="132.48" height="49.2"/>
  </clipPath>
 </defs>
</svg>
