<?xml version="1.0" encoding="utf-8" standalone="no"?>
<!DOCTYPE svg PUBLIC "-//W3C//DTD SVG 1.1//EN"
  "http://www.w3.org/Graphics/SVG/1.1/DTD/svg11.dtd">
<svg xmlns:xlink="http://www.w3.org/1999/xlink" width="144pt" height="60pt" viewBox="0 0 144 60" xmlns="http://www.w3.org/2000/svg" version="1.1">
  <desc id="nav-meta">{"window":"1y","count":4,"labels":["21.06","20.10","19.02","20.06"],"tick_utc":["2025-06-21T12:00:00Z","2025-10-20T12:00:00Z","2026-02-19T03:28:49Z","2026-06-20T04:59:26Z"]}</desc>

 <metadata>
  <rdf:RDF xmlns:dc="http://purl.org/dc/elements/1.1/" xmlns:cc="http://creativecommons.org/ns#" xmlns:rdf="http://www.w3.org/1999/02/22-rdf-syntax-ns#">
   <cc:Work>
    <dc:type rdf:resource="http://purl.org/dc/dcmitype/StillImage"/>
    <dc:date>2026-06-20T20:06:38.627553</dc:date>
    <dc:format>image/svg+xml</dc:format>
    <dc:creator>
     <cc:Agent>
      <dc:title>Matplotlib v3.11.0, https://matplotlib.org/</dc:title>
     </cc:Agent>
    </dc:creator>
   </cc:Work>
  </rdf:RDF>
 </metadata>
 <defs>
  <style type="text/css">*{stroke-linejoin: round; stroke-linecap: butt}</style>
 </defs>
 <g id="figure_1">
  <g id="patch_1">
   <path d="M 0 60 
L 144 60 
L 144 0 
L 0 0 
L 0 60 
z
" style="fill: none; opacity: 0"/>
  </g>
  <g id="axes_1">
   <g id="patch_2">
    <path d="M 5.76 52.8 
L 138.24 52.8 
L 138.24 3.6 
L 5.76 3.6 
L 5.76 52.8 
z
" style="fill: none"/>
   </g>
   <g id="matplotlib.axis_1"/>
   <g id="matplotlib.axis_2"/>
   <g id="line2d_1">
    <path d="M 5.76 42.96 
L 138.24 42.96 
" clip-path="url(#p72bd33daaa)" style="fill: none; stroke: #b2b2b2; stroke-opacity: 0.35; stroke-width: 0.5; stroke-linecap: square"/>
   </g>
   <g id="line2d_2">
    <path d="M 5.76 33.12 
L 138.24 33.12 
" clip-path="url(#p72bd33daaa)" style="fill: none; stroke: #b2b2b2; stroke-opacity: 0.35; stroke-width: 0.5; stroke-linecap: square"/>
   </g>
   <g id="line2d_3">
    <path d="M 5.76 23.28 
L 138.24 23.28 
" clip-path="url(#p72bd33daaa)" style="fill: none; stroke: #b2b2b2; stroke-opacity: 0.35; stroke-width: 0.5; stroke-linecap: square"/>
   </g>
   <g id="line2d_4">
    <path d="M 5.76 13.44 
L 138.24 13.44 
" clip-path="url(#p72bd33daaa)" style="fill: none; stroke: #b2b2b2; stroke-opacity: 0.35; stroke-width: 0.5; stroke-linecap: square"/>
   </g>
   <g id="line2d_5">
    <path d="M 5.76 43.3782 
L 6.124248 44.20476 
L 6.488497 44.45076 
L 6.852745 42.7632 
L 7.216993 42.63036 
L 7.581242 42.94524 
L 7.94549 43.52088 
L 8.309738 43.1076 
L 8.673986 41.98092 
L 9.402483 41.43972 
L 9.766731 42.4926 
L 10.13098 41.79888 
L 10.495228 41.78412 
L 10.859476 42.37452 
L 11.223725 42.3942 
L 11.587973 41.83332 
L 11.952221 42.24168 
L 12.316469 41.84316 
L 13.044966 40.2786 
L 13.409214 40.42128 
L 13.773463 40.71648 
L 14.501959 40.48032 
L 14.866208 40.26384 
L 15.230456 38.97972 
L 15.958952 38.51724 
L 16.323201 38.57628 
L 16.687449 38.04492 
L 17.051697 36.03264 
L 17.415946 34.88136 
L 17.780194 36.92316 
L 18.144442 37.8432 
L 18.508691 37.37088 
L 18.872939 37.53324 
L 19.237187 37.056 
L 19.601436 37.77924 
L 19.965684 38.02032 
L 20.329932 38.45328 
L 20.69418 39.1962 
L 21.058429 40.41636 
L 21.422677 40.97232 
L 21.786925 40.53444 
L 22.151174 39.55536 
L 22.515422 40.24908 
L 22.87967 39.7128 
L 23.243919 38.778 
L 23.608167 38.59104 
L 24.336663 37.794 
L 24.700912 38.82228 
L 25.06516 36.53448 
L 25.429408 35.334 
L 26.157905 37.44468 
L 26.522153 36.90348 
L 26.886402 36.65748 
L 27.614898 38.64516 
L 27.979147 37.2282 
L 28.343395 38.14332 
L 28.707643 35.53572 
L 29.071891 35.04372 
L 29.43614 34.80264 
L 29.800388 37.23804 
L 30.893133 33.67104 
L 31.257381 34.90596 
L 32.350126 35.9736 
L 32.714374 34.36476 
L 33.078623 34.1778 
L 33.442871 35.22084 
L 33.807119 35.11752 
L 34.171368 35.54556 
L 35.628361 32.44104 
L 35.992609 31.83096 
L 36.356857 30.06468 
L 36.721106 30.01056 
L 37.085354 30.291 
L 37.449602 31.16184 
L 37.813851 30.74856 
L 38.178099 29.71536 
L 38.542347 29.37588 
L 38.906596 30.57636 
L 39.270844 30.42876 
L 39.635092 30.79284 
L 39.999341 32.91828 
L 40.363589 33.72024 
L 40.727837 34.05972 
L 41.092085 36.5886 
L 41.456334 34.90104 
L 41.820582 35.10276 
L 42.18483 34.16796 
L 42.549079 33.8826 
L 42.913327 34.43364 
L 43.641824 31.05852 
L 44.006072 31.26024 
L 44.37032 31.92936 
L 44.734568 31.85064 
L 45.098817 31.3242 
L 45.463065 32.84448 
L 45.827313 31.78176 
L 46.191562 32.85924 
L 46.55581 36.8838 
L 46.920058 38.39424 
L 47.284307 35.95392 
L 47.648555 34.53696 
L 48.012803 35.20608 
L 48.7413 37.57752 
L 49.105548 37.90716 
L 49.469796 37.18884 
L 49.834045 37.18392 
L 50.198293 36.89364 
L 50.562541 37.42008 
L 50.92679 38.17284 
L 51.291038 36.687 
L 51.655286 36.42132 
L 52.019535 36.34752 
L 52.383783 35.56032 
L 52.748031 35.72268 
L 53.112279 36.29832 
L 53.476528 36.32292 
L 53.840776 37.61688 
L 54.205024 37.2282 
L 54.569273 37.34628 
L 54.933521 37.23804 
L 55.297769 40.008 
L 55.662018 41.36592 
L 56.026266 40.43604 
L 56.390514 41.44956 
L 56.754762 40.53444 
L 57.119011 41.02152 
L 57.483259 40.22448 
L 57.847507 39.79644 
L 58.211756 41.51844 
L 58.576004 41.66604 
L 59.304501 43.51596 
L 59.668749 43.43724 
L 60.032997 43.71276 
L 60.397246 44.59836 
L 60.761494 43.30932 
L 61.854239 44.88372 
L 62.218487 44.99688 
L 62.582735 44.57868 
L 62.946984 43.5996 
L 63.311232 43.51596 
L 63.67548 43.00428 
L 64.039729 43.2798 
L 64.403977 43.71768 
L 65.132473 44.0916 
L 65.496722 45.11004 
L 65.86097 43.55532 
L 66.225218 42.72876 
L 66.953715 44.27364 
L 67.682212 44.47536 
L 68.04646 44.25888 
L 68.410708 43.64388 
L 68.774956 43.84068 
L 69.139205 43.85052 
L 69.503453 44.36712 
L 69.867701 44.26872 
L 70.23195 44.74104 
L 70.596198 44.98704 
L 70.960446 44.84436 
L 71.324695 45.58728 
L 71.688943 46.0596 
L 72.053191 45.18384 
L 73.510184 45.47904 
L 73.874433 45.65616 
L 74.238681 45.98088 
L 74.967178 45.38556 
L 75.331426 45.31668 
L 75.695674 45.58728 
L 76.059923 45.35604 
L 76.424171 45.40032 
L 76.788419 45.11496 
L 77.152667 44.42124 
L 77.881164 44.18508 
L 78.609661 43.24044 
L 78.973909 43.8702 
L 79.338157 43.60944 
L 79.702406 43.92924 
L 80.066654 43.93416 
L 80.430902 43.46184 
L 80.79515 43.5012 
L 81.159399 42.72384 
L 81.523647 42.51228 
L 81.887895 43.08792 
L 82.252144 42.75828 
L 82.616392 42.90096 
L 83.344889 44.2392 
L 83.709137 45.23304 
L 84.073385 44.77548 
L 84.801882 45.04608 
L 85.16613 45.07068 
L 85.530378 46.1334 
L 85.894627 45.4446 
L 86.258875 45.06084 
L 86.623123 45.33144 
L 86.987372 46.30068 
L 87.35162 46.34496 
L 87.715868 47.89476 
L 88.080117 48.26376 
L 88.444365 47.96364 
L 89.405399 50.04972 
L 89.768087 49.24776 
L 91.231724 49.59708 
L 91.594662 49.80372 
L 91.9588 49.86768 
L 92.663697 49.24776 
L 93.051309 49.48392 
L 93.369803 49.37568 
L 93.779228 49.479 
L 94.143034 49.7004 
L 95.235585 49.49376 
L 95.600929 49.98576 
L 95.934406 49.96608 
L 96.328115 49.7004 
L 96.69074 49.27236 
L 97.054297 49.37076 
L 97.414253 49.68072 
L 97.786777 49.25268 
L 98.147265 49.51344 
L 99.239601 49.09032 
L 100.698255 49.58724 
L 101.060164 49.36092 
L 101.789951 49.45932 
L 102.153495 49.16904 
L 102.888475 49.27236 
L 103.253752 48.87384 
L 103.978653 48.70164 
L 104.343002 49.03128 
L 104.703705 49.1592 
L 105.06582 49.08048 
L 105.800619 49.36584 
L 106.552872 48.90828 
L 106.894423 49.05096 
L 107.619896 49.64628 
L 109.083719 49.59708 
L 109.44317 49.8726 
L 110.168964 49.80864 
L 111.265769 49.83816 
L 111.630607 49.50852 
L 111.993587 49.68564 
L 112.719866 49.48884 
L 113.456765 49.69056 
L 113.818694 49.40028 
L 114.182664 49.58724 
L 115.272226 49.19856 
L 115.641285 49.43472 
L 116.006435 49.50852 
L 117.823044 49.37568 
L 118.192958 49.4052 
L 118.561131 49.29204 
L 118.926143 49.5528 
L 119.289396 49.50852 
L 119.654256 49.64136 
L 120.377436 49.56264 
L 120.749079 49.57248 
L 121.113201 49.42488 
L 121.469426 49.49376 
L 122.204436 49.25268 
L 122.562622 49.24284 
L 122.928203 48.80004 
L 123.299791 48.85416 
L 124.026104 48.63276 
L 124.392085 48.66228 
L 124.755928 49.09524 
L 125.121973 48.99192 
L 125.851258 49.34616 
L 126.219043 49.47408 
L 126.946233 49.54788 
L 127.312555 49.3314 
L 127.674013 49.34616 
L 128.033257 49.51836 
L 128.772314 49.41504 
L 129.862116 49.7742 
L 130.957315 49.61676 
L 131.687616 49.7988 
L 132.418962 50.45808 
L 132.777211 50.59092 
L 133.135861 50.99928 
L 133.873797 50.74344 
L 134.231093 50.62536 
L 134.599119 50.80248 
L 136.059658 50.56632 
L 136.802341 50.23176 
L 137.154987 50.2416 
L 137.890317 50.55156 
L 138.24 50.42364 
L 138.24 50.42364 
" clip-path="url(#p72bd33daaa)" style="fill: none; stroke: #bebebe; stroke-width: 0.6; stroke-linecap: round"/>
   </g>
   <g id="line2d_6">
    <path d="M 5.76 41.30196 
L 6.124248 42.26136 
L 6.488497 42.5664 
L 6.852745 41.17404 
L 7.216993 41.0166 
L 7.581242 41.22324 
L 8.309738 41.17896 
L 8.673986 41.08056 
L 9.038235 40.61808 
L 9.402483 40.7214 
L 9.766731 41.30688 
L 10.13098 40.11132 
L 10.495228 39.99816 
L 10.859476 40.56888 
L 11.223725 40.51476 
L 11.587973 40.131 
L 11.952221 40.3278 
L 12.316469 39.81612 
L 13.044966 37.46436 
L 13.409214 37.39056 
L 13.773463 37.50372 
L 14.501959 37.01172 
L 14.866208 36.16056 
L 15.230456 34.4976 
L 15.594704 33.69072 
L 16.323201 32.89368 
L 16.687449 31.73256 
L 17.051697 31.68336 
L 17.415946 31.8162 
L 17.780194 32.64276 
L 18.144442 32.0868 
L 18.872939 31.85064 
L 19.237187 30.98964 
L 19.601436 31.53576 
L 19.965684 31.521 
L 20.329932 31.38816 
L 20.69418 32.17044 
L 21.058429 33.68088 
L 21.422677 34.28604 
L 21.786925 33.58248 
L 22.151174 32.0376 
L 22.515422 32.76576 
L 22.87967 32.259 
L 23.243919 30.65508 
L 23.608167 29.93676 
L 23.972415 28.14588 
L 24.700912 28.40664 
L 25.06516 25.73508 
L 25.429408 24.62316 
L 25.793657 26.10408 
L 26.157905 26.97984 
L 26.522153 27.00936 
L 26.886402 26.58132 
L 27.25065 27.7818 
L 27.614898 29.49888 
L 27.979147 27.68832 
L 28.343395 28.44108 
L 28.707643 24.16068 
L 29.071891 24.55428 
L 29.43614 24.51984 
L 29.800388 27.32916 
L 30.164636 25.7646 
L 30.528885 26.48784 
L 30.893133 26.43372 
L 31.257381 27.44724 
L 31.985878 27.27504 
L 32.350126 27.8802 
L 32.714374 27.72276 
L 33.078623 26.84208 
L 33.442871 27.91956 
L 33.807119 27.8556 
L 34.171368 28.09668 
L 34.535616 27.87528 
L 35.264113 27.83592 
L 35.628361 27.57024 
L 35.992609 26.77812 
L 36.356857 25.01184 
L 37.085354 25.71048 
L 37.449602 26.31564 
L 37.813851 26.45832 
L 38.178099 25.8384 
L 38.542347 25.84824 
L 38.906596 26.6994 
L 39.270844 26.62068 
L 39.635092 26.8224 
L 39.999341 28.61328 
L 40.727837 28.97244 
L 41.092085 30.99456 
L 41.456334 29.76456 
L 41.820582 29.8974 
L 42.18483 29.02164 
L 42.549079 28.50012 
L 42.913327 29.00688 
L 43.641824 26.601 
L 44.006072 26.3796 
L 44.37032 26.5764 
L 44.734568 26.3796 
L 45.098817 25.1496 
L 45.463065 26.81256 
L 45.827313 26.29596 
L 46.191562 27.41772 
L 46.55581 31.19136 
L 46.920058 31.80144 
L 47.284307 28.89864 
L 47.648555 28.28364 
L 48.7413 30.80268 
L 49.105548 31.22088 
L 49.469796 30.8076 
L 49.834045 30.13356 
L 50.198293 30.17784 
L 50.92679 31.42752 
L 51.291038 31.04376 
L 51.655286 30.49764 
L 52.019535 30.3648 
L 52.383783 28.88388 
L 52.748031 29.15448 
L 53.112279 30.15324 
L 53.840776 31.4226 
L 54.569273 30.9306 
L 54.933521 30.66 
L 55.662018 34.99944 
L 56.026266 34.07448 
L 56.390514 34.9158 
L 56.754762 34.02528 
L 57.119011 34.26144 
L 57.483259 33.0216 
L 57.847507 33.10524 
L 58.211756 34.1532 
L 58.576004 34.2024 
L 59.304501 36.34752 
L 59.668749 35.89488 
L 60.397246 36.94776 
L 60.761494 36.2688 
L 61.125742 36.97236 
L 61.48999 38.286 
L 61.854239 38.76324 
L 62.218487 38.73864 
L 62.582735 38.51724 
L 62.946984 37.42992 
L 63.311232 37.42008 
L 63.67548 36.90348 
L 64.039729 36.98712 
L 64.403977 36.86412 
L 64.768225 37.16424 
L 65.132473 37.14948 
L 65.496722 38.52216 
L 66.225218 35.71776 
L 66.589467 36.15564 
L 66.953715 36.93792 
L 67.682212 36.72636 
L 68.04646 36.21468 
L 68.410708 34.8174 
L 68.774956 34.7928 
L 69.139205 35.42748 
L 69.503453 36.49512 
L 69.867701 36.28356 
L 70.23195 36.6378 
L 70.596198 37.3512 
L 70.960446 37.3512 
L 71.324695 38.31552 
L 71.688943 38.32536 
L 72.053191 37.26264 
L 72.41744 37.26264 
L 72.781688 37.09044 
L 73.145936 37.06092 
L 73.510184 37.34628 
L 73.874433 37.48404 
L 74.238681 37.77924 
L 74.967178 37.45944 
L 75.695674 37.56276 
L 76.059923 37.31184 
L 76.424171 37.33644 
L 76.788419 37.09536 
L 77.152667 36.23928 
L 77.881164 36.11628 
L 78.609661 35.0142 
L 78.973909 35.93424 
L 79.338157 36.36228 
L 79.702406 36.50988 
L 80.066654 36.5148 
L 80.430902 36.25404 
L 80.79515 36.46068 
L 81.159399 34.83708 
L 81.523647 34.57632 
L 82.252144 35.00436 
L 82.616392 34.93056 
L 82.98064 35.088 
L 83.344889 35.78664 
L 83.709137 37.55292 
L 84.073385 37.26756 
L 84.437634 37.46436 
L 85.16613 37.45944 
L 85.530378 38.41392 
L 86.258875 36.95268 
L 86.623123 37.05108 
L 86.987372 38.37948 
L 87.35162 39.20604 
L 87.715868 41.03136 
L 88.080117 42.26628 
L 88.444365 41.73492 
L 88.751872 42.23676 
L 89.405399 44.89356 
L 89.768087 43.6242 
L 90.501904 43.53072 
L 90.868231 43.72752 
L 91.594662 44.436 
L 91.9588 44.49012 
L 92.318668 43.81608 
L 92.663697 43.7226 
L 93.051309 44.5344 
L 93.369803 44.19 
L 93.779228 44.21952 
L 94.505153 44.51472 
L 95.235585 44.3868 
L 95.600929 45.174 
L 95.934406 45.23796 
L 96.328115 44.81484 
L 96.69074 43.821 
L 97.054297 44.01288 
L 97.414253 44.66232 
L 97.786777 43.93908 
L 98.147265 44.39664 
L 98.512361 44.12112 
L 98.874569 44.33268 
L 99.239601 43.3044 
L 99.603677 43.6242 
L 99.96513 44.29824 
L 100.332915 44.53932 
L 100.698255 44.30808 
L 101.060164 43.8702 
L 101.424269 44.00304 
L 101.789951 43.97844 
L 102.153495 43.41756 
L 102.888475 43.48644 
L 103.611626 41.73984 
L 103.978653 41.7546 
L 104.703705 43.14204 
L 105.06582 43.083 
L 105.435515 43.35852 
L 105.800619 43.78164 
L 106.161495 43.21584 
L 106.552872 42.9354 
L 106.894423 43.10268 
L 107.619896 44.25396 
L 108.716347 43.74228 
L 109.083719 43.46676 
L 109.807836 43.79148 
L 110.538697 43.77672 
L 110.903886 43.2552 
L 111.265769 43.40772 
L 111.630607 42.49752 
L 111.993587 42.90588 
L 112.361187 42.8616 
L 112.719866 42.41388 
L 113.456765 42.79764 
L 113.818694 41.57256 
L 114.182664 41.86284 
L 114.548489 41.63652 
L 114.911996 41.85792 
L 115.272226 41.22324 
L 116.006435 42.1482 
L 116.369086 41.96616 
L 116.732204 41.59224 
L 117.463142 41.99076 
L 117.823044 41.91696 
L 118.192958 41.98584 
L 118.561131 41.41512 
L 118.926143 42.15312 
L 119.289396 41.96124 
L 119.654256 42.43848 
L 120.377436 42.02028 
L 120.749079 42.0252 
L 121.113201 41.40528 
L 121.840091 41.52336 
L 122.562622 42.1974 
L 122.928203 41.8776 
L 123.666914 41.8038 
L 124.026104 41.976 
L 124.392085 42.00552 
L 124.755928 42.3942 
L 125.121973 42.27612 
L 126.219043 43.31424 
L 126.580682 43.2306 
L 126.946233 43.39296 
L 127.312555 43.16172 
L 127.674013 43.24536 
L 128.033257 43.71768 
L 128.403272 43.33392 
L 129.499031 43.67832 
L 129.862116 44.32776 
L 130.226634 44.13588 
L 130.58563 44.16048 
L 130.957315 43.96368 
L 131.326951 44.2392 
L 131.687616 44.19984 
L 132.055962 45.16908 
L 132.777211 46.00548 
L 133.135861 47.57004 
L 133.873797 46.64016 
L 134.231093 46.34496 
L 134.599119 46.82712 
L 135.331182 46.51716 
L 135.692766 46.5516 
L 136.059658 46.46304 
L 137.154987 45.6414 
L 137.51749 46.09404 
L 137.890317 46.3302 
L 138.24 46.21704 
L 138.24 46.21704 
" clip-path="url(#p72bd33daaa)" style="fill: none; stroke: #4a8dff; stroke-width: 0.6; stroke-linecap: round"/>
   </g>
   <g id="line2d_7">
    <path d="M 5.76 34.53696 
L 6.124248 35.40288 
L 6.488497 35.73744 
L 6.852745 33.4398 
L 7.216993 33.20856 
L 7.581242 32.58372 
L 7.94549 32.71164 
L 8.673986 32.53944 
L 9.038235 32.013 
L 9.766731 33.3906 
L 10.13098 31.80144 
L 10.495228 31.41768 
L 10.859476 32.19012 
L 11.223725 32.10156 
L 11.587973 31.60956 
L 11.952221 32.0622 
L 12.316469 31.73748 
L 12.680718 30.56652 
L 13.044966 28.31808 
L 13.409214 27.48168 
L 13.773463 27.55548 
L 14.137711 26.71908 
L 14.501959 26.36484 
L 14.866208 27.42756 
L 15.594704 26.55672 
L 15.958952 27.27504 
L 16.323201 27.31932 
L 16.687449 27.63912 
L 17.051697 27.52596 
L 17.415946 26.3058 
L 17.780194 26.96016 
L 18.144442 27.09792 
L 18.508691 27.49644 
L 18.872939 27.2898 
L 19.237187 26.57148 
L 19.601436 27.27012 
L 20.329932 27.35376 
L 21.058429 29.62188 
L 21.422677 29.96136 
L 21.786925 29.14956 
L 22.151174 28.68216 
L 22.515422 29.184 
L 22.87967 28.7412 
L 23.243919 27.5358 
L 23.608167 27.91956 
L 23.972415 28.00812 
L 24.336663 26.64528 
L 24.700912 26.88636 
L 25.06516 26.1828 
L 25.429408 24.52476 
L 25.793657 27.0684 
L 26.157905 27.59484 
L 26.886402 27.49644 
L 27.25065 28.13112 
L 27.614898 29.8482 
L 27.979147 29.12004 
L 28.343395 30.03024 
L 28.707643 27.84576 
L 29.43614 29.54316 
L 29.800388 31.13232 
L 30.164636 30.31068 
L 30.528885 30.62064 
L 30.893133 29.97612 
L 31.257381 31.97364 
L 31.62163 31.82112 
L 31.985878 32.0868 
L 32.350126 31.63416 
L 32.714374 30.6354 
L 33.078623 30.37464 
L 33.442871 30.86172 
L 33.807119 30.89616 
L 34.171368 31.11756 
L 34.899864 30.22212 
L 35.264113 30.45828 
L 35.628361 29.2578 
L 35.992609 28.50504 
L 36.356857 28.18032 
L 36.721106 28.2738 
L 37.085354 28.569 
L 37.449602 28.55424 
L 37.813851 27.8802 
L 38.178099 28.03272 
L 38.542347 27.69324 
L 38.906596 28.42632 
L 39.270844 28.3968 
L 39.635092 28.60344 
L 39.999341 29.88756 
L 40.363589 30.22212 
L 40.727837 29.58252 
L 41.092085 31.73256 
L 41.456334 31.36356 
L 41.820582 31.39308 
L 42.549079 29.09544 
L 42.913327 29.2332 
L 43.277575 27.02412 
L 44.006072 25.16928 
L 44.37032 25.10532 
L 45.098817 23.92452 
L 45.463065 25.53336 
L 45.827313 24.62808 
L 46.191562 25.4448 
L 46.55581 29.64156 
L 46.920058 30.80268 
L 47.284307 28.65756 
L 47.648555 28.6428 
L 48.377051 30.87156 
L 48.7413 32.17044 
L 49.105548 32.97732 
L 49.469796 32.628 
L 49.834045 31.90476 
L 50.198293 30.92076 
L 50.562541 31.96872 
L 50.92679 32.39676 
L 51.291038 31.19628 
L 52.019535 30.42384 
L 52.383783 29.0118 
L 52.748031 29.15448 
L 53.112279 29.76456 
L 53.476528 31.2012 
L 53.840776 32.09172 
L 54.205024 31.43244 
L 54.933521 30.90108 
L 55.662018 35.35368 
L 56.026266 34.24668 
L 56.390514 35.5062 
L 56.754762 34.48284 
L 57.119011 35.02896 
L 57.483259 33.8334 
L 57.847507 33.243 
L 58.211756 34.69932 
L 58.940252 36.2934 
L 59.304501 38.901 
L 59.668749 38.37948 
L 60.032997 38.92068 
L 60.397246 40.09164 
L 60.761494 39.70788 
L 61.125742 40.4262 
L 61.48999 42.75336 
L 61.854239 43.54548 
L 62.218487 43.72752 
L 62.946984 41.976 
L 63.311232 42.42864 
L 63.67548 40.86408 
L 64.039729 40.47048 
L 65.132473 40.89852 
L 65.496722 42.9354 
L 65.86097 40.43604 
L 66.225218 39.31428 
L 66.589467 40.04244 
L 66.953715 41.43972 
L 67.317963 41.47416 
L 67.682212 41.02152 
L 68.04646 40.7952 
L 68.410708 39.75708 
L 68.774956 40.11132 
L 69.139205 39.87024 
L 69.503453 40.94772 
L 69.867701 40.97232 
L 70.596198 42.87144 
L 70.960446 42.17772 
L 71.324695 43.04364 
L 71.688943 43.34868 
L 72.053191 42.03504 
L 72.781688 41.8038 
L 73.145936 41.84316 
L 73.510184 42.37944 
L 73.874433 42.26628 
L 74.238681 42.468 
L 74.602929 42.42864 
L 74.967178 42.18264 
L 75.331426 42.1728 
L 75.695674 42.50244 
L 76.059923 41.88252 
L 76.424171 42.32532 
L 77.152667 41.13468 
L 77.881164 40.42128 
L 78.245412 39.16176 
L 78.609661 39.28968 
L 78.973909 40.48032 
L 80.066654 40.88376 
L 80.79515 40.53936 
L 81.159399 38.50248 
L 81.523647 37.63656 
L 81.887895 38.34012 
L 82.252144 38.37456 
L 82.616392 38.5812 
L 83.344889 39.8358 
L 83.709137 41.93172 
L 84.073385 41.42004 
L 84.801882 41.39052 
L 85.16613 41.5086 
L 85.530378 42.80256 
L 85.894627 41.93664 
L 86.258875 41.49384 
L 86.623123 41.51352 
L 86.987372 43.78164 
L 87.35162 43.9932 
L 87.715868 46.66968 
L 88.080117 47.55036 
L 88.444365 46.64508 
L 89.041336 48.89352 
L 89.405399 49.84308 
L 89.768087 49.00176 
L 90.140662 49.233 
L 90.501904 48.97716 
L 91.231724 49.36092 
L 91.9588 49.58724 
L 92.318668 49.28712 
L 92.663697 49.16904 
L 93.051309 49.39044 
L 93.369803 49.29696 
L 94.143034 49.55772 
L 95.235585 49.41996 
L 95.600929 49.8234 
L 95.934406 49.86768 
L 96.328115 49.72992 
L 96.69074 49.39536 
L 97.414253 49.6758 
L 97.786777 49.47408 
L 98.147265 49.60692 
L 98.512361 49.37568 
L 98.874569 49.36584 
L 99.239601 48.6672 
L 100.332915 49.54788 
L 100.698255 49.5282 
L 101.060164 49.09032 
L 101.789951 49.2084 
L 102.153495 48.93288 
L 102.888475 48.89844 
L 103.611626 48.1998 
L 103.978653 48.28344 
L 104.343002 48.88368 
L 104.703705 49.04604 
L 105.06582 49.00176 
L 105.800619 49.38552 
L 106.161495 49.04112 
L 106.552872 48.92796 
L 106.894423 48.987 
L 107.619896 49.66104 
L 109.083719 49.40028 
L 109.44317 49.56756 
L 110.168964 49.56264 
L 110.538697 49.53312 
L 110.903886 49.25268 
L 111.265769 49.29696 
L 111.630607 48.89352 
L 111.993587 48.96732 
L 112.719866 48.5934 
L 113.090649 48.84432 
L 113.456765 48.95748 
L 113.818694 48.30804 
L 114.182664 48.34248 
L 114.548489 48.21456 
L 114.911996 48.26376 
L 115.272226 47.41752 
L 115.641285 48.05712 
L 116.006435 48.26376 
L 116.369086 48.01776 
L 116.732204 47.23548 
L 117.823044 47.1666 
L 118.192958 47.31912 
L 118.561131 46.49256 
L 118.926143 47.64876 
L 119.289396 47.5356 
L 119.654256 48.0276 
L 120.377436 46.81728 
L 120.749079 46.92552 
L 121.113201 45.85788 
L 121.840091 45.29208 
L 122.204436 45.58728 
L 122.562622 46.2564 
L 122.928203 45.7152 
L 124.392085 45.42492 
L 124.755928 46.38432 
L 125.121973 45.57744 
L 125.481571 46.51716 
L 126.219043 47.54544 
L 126.946233 47.66844 
L 127.312555 47.05344 
L 127.674013 47.22564 
L 128.033257 48.07188 
L 128.772314 47.37324 
L 129.499031 48.07188 
L 129.862116 48.59832 
L 130.226634 48.52452 
L 130.58563 48.5688 
L 130.957315 48.38676 
L 131.326951 48.55404 
L 132.418962 49.93656 
L 132.777211 49.98084 
L 133.135861 50.3646 
L 133.873797 50.07432 
L 134.231093 49.99068 
L 134.599119 50.217 
L 135.331182 49.98084 
L 136.059658 49.87752 
L 136.436014 49.69548 
L 137.154987 49.7004 
L 137.890317 50.06448 
L 138.24 49.971 
L 138.24 49.971 
" clip-path="url(#p72bd33daaa)" style="fill: none; stroke: #f5841e; stroke-width: 0.7; stroke-linecap: round"/>
   </g>
  </g>
 </g>
 <defs>
  <clipPath id="p72bd33daaa">
   <rect x="5.76" y="3.6" width="132.48" height="49.2"/>
  </clipPath>
 </defs>
</svg>
