<?xml version="1.0" encoding="utf-8" standalone="no"?>
<!DOCTYPE svg PUBLIC "-//W3C//DTD SVG 1.1//EN"
  "http://www.w3.org/Graphics/SVG/1.1/DTD/svg11.dtd">
<svg xmlns:xlink="http://www.w3.org/1999/xlink" width="144pt" height="60pt" viewBox="0 0 144 60" xmlns="http://www.w3.org/2000/svg" version="1.1">
  <desc id="nav-meta">{"window":"6m","count":4,"labels":["20.12","18.02","19.04","18.06"],"tick_utc":["2025-12-20T12:00:00Z","2026-02-18T03:30:34Z","2026-04-19T03:58:52Z","2026-06-18T05:23:06Z"]}</desc>

 <metadata>
  <rdf:RDF xmlns:dc="http://purl.org/dc/elements/1.1/" xmlns:cc="http://creativecommons.org/ns#" xmlns:rdf="http://www.w3.org/1999/02/22-rdf-syntax-ns#">
   <cc:Work>
    <dc:type rdf:resource="http://purl.org/dc/dcmitype/StillImage"/>
    <dc:date>2026-06-18T05:23:08.084725</dc:date>
    <dc:format>image/svg+xml</dc:format>
    <dc:creator>
     <cc:Agent>
      <dc:title>Matplotlib v3.11.0, https://matplotlib.org/</dc:title>
     </cc:Agent>
    </dc:creator>
   </cc:Work>
  </rdf:RDF>
 </metadata>
 <defs>
  <style type="text/css">*{stroke-linejoin: round; stroke-linecap: butt}</style>
 </defs>
 <g id="figure_1">
  <g id="patch_1">
   <path d="M 0 60 
L 144 60 
L 144 0 
L 0 0 
L 0 60 
z
" style="fill: none; opacity: 0"/>
  </g>
  <g id="axes_1">
   <g id="patch_2">
    <path d="M 5.76 52.8 
L 138.24 52.8 
L 138.24 3.6 
L 5.76 3.6 
L 5.76 52.8 
z
" style="fill: none"/>
   </g>
   <g id="matplotlib.axis_1"/>
   <g id="matplotlib.axis_2"/>
   <g id="line2d_1">
    <path d="M 5.76 42.96 
L 138.24 42.96 
" clip-path="url(#pb734c9cb52)" style="fill: none; stroke: #b2b2b2; stroke-opacity: 0.35; stroke-width: 0.5; stroke-linecap: square"/>
   </g>
   <g id="line2d_2">
    <path d="M 5.76 33.12 
L 138.24 33.12 
" clip-path="url(#pb734c9cb52)" style="fill: none; stroke: #b2b2b2; stroke-opacity: 0.35; stroke-width: 0.5; stroke-linecap: square"/>
   </g>
   <g id="line2d_3">
    <path d="M 5.76 23.28 
L 138.24 23.28 
" clip-path="url(#pb734c9cb52)" style="fill: none; stroke: #b2b2b2; stroke-opacity: 0.35; stroke-width: 0.5; stroke-linecap: square"/>
   </g>
   <g id="line2d_4">
    <path d="M 5.76 13.44 
L 138.24 13.44 
" clip-path="url(#pb734c9cb52)" style="fill: none; stroke: #b2b2b2; stroke-opacity: 0.35; stroke-width: 0.5; stroke-linecap: square"/>
   </g>
   <g id="line2d_5">
    <path d="M 5.76 45.18384 
L 8.708515 45.47904 
L 9.445644 45.65616 
L 10.182772 45.98088 
L 11.65703 45.38556 
L 12.394159 45.31668 
L 13.131287 45.58728 
L 13.868416 45.35604 
L 14.605545 45.40032 
L 15.342673 45.11496 
L 16.079802 44.42124 
L 17.55406 44.18508 
L 18.291188 43.62912 
L 19.028317 43.24044 
L 19.765446 43.8702 
L 20.502575 43.60944 
L 21.239703 43.92924 
L 21.976832 43.93416 
L 22.713961 43.46184 
L 23.451089 43.5012 
L 24.188218 42.72384 
L 24.925347 42.51228 
L 25.662476 43.08792 
L 26.399604 42.75828 
L 27.136733 42.90096 
L 28.610991 44.2392 
L 29.348119 45.23304 
L 30.085248 44.77548 
L 31.559505 45.04608 
L 32.296634 45.07068 
L 33.033763 46.1334 
L 33.770892 45.4446 
L 34.50802 45.06084 
L 35.245149 45.33144 
L 35.982278 46.30068 
L 36.719407 46.34496 
L 37.456535 47.89476 
L 38.193664 48.26376 
L 38.930793 47.96364 
L 40.138882 49.06572 
L 40.875635 50.04972 
L 41.609607 49.24776 
L 44.571568 49.59708 
L 45.306043 49.80372 
L 46.04295 49.86768 
L 46.771215 49.479 
L 47.469448 49.24776 
L 48.253859 49.48392 
L 48.898394 49.37568 
L 49.726947 49.479 
L 50.46318 49.7004 
L 52.674174 49.49376 
L 53.413521 49.98576 
L 54.088378 49.96608 
L 54.885125 49.7004 
L 55.618969 49.27236 
L 56.354699 49.37076 
L 57.083142 49.68072 
L 57.837018 49.25268 
L 58.566537 49.51344 
L 60.777096 49.09032 
L 62.989634 49.64628 
L 63.728972 49.58724 
L 64.461366 49.36092 
L 65.938234 49.45932 
L 66.673938 49.16904 
L 68.161317 49.27236 
L 68.900527 48.87384 
L 70.367507 48.70164 
L 71.104841 49.03128 
L 71.834794 49.1592 
L 72.567606 49.08048 
L 74.054618 49.36584 
L 75.576951 48.90828 
L 76.268146 49.05096 
L 77.736286 49.64628 
L 80.698622 49.59708 
L 81.426042 49.8726 
L 82.894831 49.80864 
L 85.114433 49.83816 
L 85.852756 49.50852 
L 86.587317 49.68564 
L 88.057087 49.48884 
L 88.807439 49.6512 
L 89.548348 49.69056 
L 90.280784 49.40028 
L 91.01735 49.58724 
L 93.222294 49.19856 
L 93.969158 49.43472 
L 94.708112 49.50852 
L 98.38438 49.37568 
L 99.132975 49.4052 
L 99.878046 49.29204 
L 100.616719 49.5528 
L 101.351835 49.50852 
L 102.0902 49.64136 
L 103.5537 49.56264 
L 104.305793 49.57248 
L 105.042665 49.42488 
L 105.763559 49.49376 
L 107.250997 49.25268 
L 107.975858 49.24284 
L 108.715682 48.80004 
L 109.467665 48.85416 
L 110.937503 48.63276 
L 111.678138 48.66228 
L 112.414448 49.09524 
L 113.155211 48.99192 
L 114.631064 49.34616 
L 115.37535 49.47408 
L 116.846963 49.54788 
L 117.588289 49.3314 
L 118.31977 49.34616 
L 119.046772 49.51836 
L 120.542401 49.41504 
L 122.747832 49.7742 
L 124.964184 49.61676 
L 126.442093 49.7988 
L 127.187514 50.19732 
L 127.922117 50.45808 
L 128.647106 50.59092 
L 129.372904 50.99928 
L 130.866264 50.74344 
L 131.589324 50.62536 
L 132.334097 50.80248 
L 135.289787 50.56632 
L 136.792754 50.23176 
L 137.506403 50.2416 
L 138.24 50.4138 
L 138.24 50.4138 
" clip-path="url(#pb734c9cb52)" style="fill: none; stroke: #bebebe; stroke-width: 0.6; stroke-linecap: round"/>
   </g>
   <g id="line2d_6">
    <path d="M 5.76 37.26264 
L 6.497129 37.26264 
L 7.234257 37.09044 
L 7.971386 37.06092 
L 8.708515 37.34628 
L 9.445644 37.48404 
L 10.182772 37.77924 
L 11.65703 37.45944 
L 13.131287 37.56276 
L 13.868416 37.31184 
L 14.605545 37.33644 
L 15.342673 37.09536 
L 16.079802 36.23928 
L 17.55406 36.11628 
L 18.291188 35.48652 
L 19.028317 35.0142 
L 19.765446 35.93424 
L 20.502575 36.36228 
L 21.239703 36.50988 
L 21.976832 36.5148 
L 22.713961 36.25404 
L 23.451089 36.46068 
L 24.188218 34.83708 
L 24.925347 34.57632 
L 26.399604 35.00436 
L 27.136733 34.93056 
L 27.873862 35.088 
L 28.610991 35.78664 
L 29.348119 37.55292 
L 30.085248 37.26756 
L 30.822377 37.46436 
L 32.296634 37.45944 
L 33.033763 38.41392 
L 34.50802 36.95268 
L 35.245149 37.05108 
L 35.982278 38.37948 
L 36.719407 39.20604 
L 37.456535 41.03136 
L 38.193664 42.26628 
L 38.930793 41.73492 
L 39.553095 42.23676 
L 40.875635 44.89356 
L 41.609607 43.6242 
L 43.094632 43.53072 
L 43.835966 43.72752 
L 45.306043 44.436 
L 46.04295 44.49012 
L 46.771215 43.81608 
L 47.469448 43.7226 
L 48.253859 44.5344 
L 48.898394 44.19 
L 49.726947 44.21952 
L 51.196001 44.51472 
L 52.674174 44.3868 
L 53.413521 45.174 
L 54.088378 45.23796 
L 54.885125 44.81484 
L 55.618969 43.821 
L 56.354699 44.01288 
L 57.083142 44.66232 
L 57.837018 43.93908 
L 58.566537 44.39664 
L 59.305381 44.12112 
L 60.03838 44.33268 
L 60.777096 43.3044 
L 61.513875 43.6242 
L 62.245347 44.29824 
L 62.989634 44.53932 
L 63.728972 44.30808 
L 64.461366 43.8702 
L 65.198204 44.00304 
L 65.938234 43.97844 
L 66.673938 43.41756 
L 68.161317 43.48644 
L 68.900527 42.49752 
L 69.624756 41.73984 
L 70.367507 41.7546 
L 71.104841 42.591 
L 71.834794 43.14204 
L 72.567606 43.083 
L 73.315758 43.35852 
L 74.054618 43.78164 
L 74.784922 43.21584 
L 75.576951 42.9354 
L 76.268146 43.10268 
L 77.736286 44.25396 
L 79.955172 43.74228 
L 80.698622 43.46676 
L 82.164016 43.79148 
L 83.643059 43.77672 
L 84.38209 43.2552 
L 85.114433 43.40772 
L 85.852756 42.49752 
L 86.587317 42.90588 
L 87.331228 42.8616 
L 88.057087 42.41388 
L 89.548348 42.79764 
L 90.280784 41.57256 
L 91.01735 41.86284 
L 91.757669 41.63652 
L 92.493296 41.85792 
L 93.222294 41.22324 
L 93.969158 41.76936 
L 94.708112 42.1482 
L 95.442007 41.96616 
L 96.17685 41.59224 
L 97.656047 41.99076 
L 98.38438 41.91696 
L 99.132975 41.98584 
L 99.878046 41.41512 
L 100.616719 42.15312 
L 101.351835 41.96124 
L 102.0902 42.43848 
L 103.5537 42.02028 
L 104.305793 42.0252 
L 105.042665 41.40528 
L 106.513672 41.52336 
L 107.975858 42.1974 
L 108.715682 41.8776 
L 110.210612 41.8038 
L 110.937503 41.976 
L 111.678138 42.00552 
L 112.414448 42.3942 
L 113.155211 42.27612 
L 114.631064 42.85176 
L 115.37535 43.31424 
L 116.107198 43.2306 
L 116.846963 43.39296 
L 117.588289 43.16172 
L 118.31977 43.24536 
L 119.046772 43.71768 
L 119.795572 43.33392 
L 122.013058 43.67832 
L 122.747832 44.32776 
L 123.485507 44.13588 
L 124.212005 44.16048 
L 124.964184 43.96368 
L 125.712216 44.2392 
L 126.442093 44.19984 
L 127.187514 45.16908 
L 127.922117 45.67584 
L 128.647106 46.00548 
L 129.372904 47.57004 
L 130.866264 46.64016 
L 131.589324 46.34496 
L 132.334097 46.82712 
L 133.815573 46.51716 
L 134.547309 46.5516 
L 135.289787 46.46304 
L 137.506403 45.6414 
L 138.24 46.09404 
L 138.24 46.09404 
" clip-path="url(#pb734c9cb52)" style="fill: none; stroke: #4a8dff; stroke-width: 0.6; stroke-linecap: round"/>
   </g>
   <g id="line2d_7">
    <path d="M 5.76 42.03504 
L 7.234257 41.8038 
L 7.971386 41.84316 
L 8.708515 42.37944 
L 9.445644 42.26628 
L 10.182772 42.468 
L 10.919901 42.42864 
L 11.65703 42.18264 
L 12.394159 42.1728 
L 13.131287 42.50244 
L 13.868416 41.88252 
L 14.605545 42.32532 
L 16.079802 41.13468 
L 17.55406 40.42128 
L 18.291188 39.16176 
L 19.028317 39.28968 
L 19.765446 40.48032 
L 21.976832 40.88376 
L 23.451089 40.53936 
L 24.188218 38.50248 
L 24.925347 37.63656 
L 25.662476 38.34012 
L 26.399604 38.37456 
L 27.136733 38.5812 
L 28.610991 39.8358 
L 29.348119 41.93172 
L 30.085248 41.42004 
L 31.559505 41.39052 
L 32.296634 41.5086 
L 33.033763 42.80256 
L 33.770892 41.93664 
L 34.50802 41.49384 
L 35.245149 41.51352 
L 35.982278 43.78164 
L 36.719407 43.9932 
L 37.456535 46.66968 
L 38.193664 47.55036 
L 38.930793 46.64508 
L 40.138882 48.89352 
L 40.875635 49.84308 
L 41.609607 49.00176 
L 42.363586 49.233 
L 43.094632 48.97716 
L 44.571568 49.36092 
L 46.04295 49.58724 
L 46.771215 49.28712 
L 47.469448 49.16904 
L 48.253859 49.39044 
L 48.898394 49.29696 
L 50.46318 49.55772 
L 52.674174 49.41996 
L 53.413521 49.8234 
L 54.088378 49.86768 
L 54.885125 49.72992 
L 55.618969 49.39536 
L 57.083142 49.6758 
L 57.837018 49.47408 
L 58.566537 49.60692 
L 59.305381 49.37568 
L 60.03838 49.36584 
L 60.777096 48.6672 
L 61.513875 48.95256 
L 62.245347 49.36092 
L 62.989634 49.54788 
L 63.728972 49.5282 
L 64.461366 49.09032 
L 65.938234 49.2084 
L 66.673938 48.93288 
L 68.161317 48.89844 
L 68.900527 48.48024 
L 69.624756 48.1998 
L 70.367507 48.28344 
L 71.104841 48.88368 
L 71.834794 49.04604 
L 72.567606 49.00176 
L 74.054618 49.38552 
L 74.784922 49.04112 
L 75.576951 48.92796 
L 76.268146 48.987 
L 77.736286 49.66104 
L 80.698622 49.40028 
L 81.426042 49.56756 
L 82.894831 49.56264 
L 83.643059 49.53312 
L 84.38209 49.25268 
L 85.114433 49.29696 
L 85.852756 48.89352 
L 86.587317 48.96732 
L 88.057087 48.5934 
L 88.807439 48.84432 
L 89.548348 48.95748 
L 90.280784 48.30804 
L 91.01735 48.34248 
L 91.757669 48.21456 
L 92.493296 48.26376 
L 93.222294 47.41752 
L 93.969158 48.05712 
L 94.708112 48.26376 
L 95.442007 48.01776 
L 96.17685 47.23548 
L 98.38438 47.1666 
L 99.132975 47.31912 
L 99.878046 46.49256 
L 100.616719 47.64876 
L 101.351835 47.5356 
L 102.0902 48.0276 
L 102.835383 47.50608 
L 103.5537 46.81728 
L 104.305793 46.92552 
L 105.042665 45.85788 
L 106.513672 45.29208 
L 107.250997 45.58728 
L 107.975858 46.2564 
L 108.715682 45.7152 
L 111.678138 45.42492 
L 112.414448 46.38432 
L 113.155211 45.57744 
L 113.882929 46.51716 
L 114.631064 46.95996 
L 115.37535 47.54544 
L 116.846963 47.66844 
L 117.588289 47.05344 
L 118.31977 47.22564 
L 119.046772 48.07188 
L 120.542401 47.37324 
L 122.013058 48.07188 
L 122.747832 48.59832 
L 123.485507 48.52452 
L 124.212005 48.5688 
L 124.964184 48.38676 
L 125.712216 48.55404 
L 127.922117 49.93656 
L 128.647106 49.98084 
L 129.372904 50.3646 
L 130.125876 50.15796 
L 131.589324 49.99068 
L 132.334097 50.217 
L 133.815573 49.98084 
L 135.289787 49.87752 
L 136.051419 49.69548 
L 137.506403 49.7004 
L 138.24 49.92672 
L 138.24 49.92672 
" clip-path="url(#pb734c9cb52)" style="fill: none; stroke: #f5841e; stroke-width: 0.7; stroke-linecap: round"/>
   </g>
  </g>
 </g>
 <defs>
  <clipPath id="pb734c9cb52">
   <rect x="5.76" y="3.6" width="132.48" height="49.2"/>
  </clipPath>
 </defs>
</svg>
