<?xml version="1.0" encoding="utf-8" standalone="no"?>
<!DOCTYPE svg PUBLIC "-//W3C//DTD SVG 1.1//EN"
  "http://www.w3.org/Graphics/SVG/1.1/DTD/svg11.dtd">
<svg xmlns:xlink="http://www.w3.org/1999/xlink" width="144pt" height="60pt" viewBox="0 0 144 60" xmlns="http://www.w3.org/2000/svg" version="1.1">
  <desc id="nav-meta">{"window":"3m","count":4,"labels":["5 Jan","15 Jan","22 Jan","28 Jan"],"idxs":[0,70,140,210]}</desc>

 <metadata>
  <rdf:RDF xmlns:dc="http://purl.org/dc/elements/1.1/" xmlns:cc="http://creativecommons.org/ns#" xmlns:rdf="http://www.w3.org/1999/02/22-rdf-syntax-ns#">
   <cc:Work>
    <dc:type rdf:resource="http://purl.org/dc/dcmitype/StillImage"/>
    <dc:date>2026-01-28T09:01:54.971982</dc:date>
    <dc:format>image/svg+xml</dc:format>
    <dc:creator>
     <cc:Agent>
      <dc:title>Matplotlib v3.10.8, https://matplotlib.org/</dc:title>
     </cc:Agent>
    </dc:creator>
   </cc:Work>
  </rdf:RDF>
 </metadata>
 <defs>
  <style type="text/css">*{stroke-linejoin: round; stroke-linecap: butt}</style>
 </defs>
 <g id="figure_1">
  <g id="patch_1">
   <path d="M 0 60 
L 144 60 
L 144 0 
L 0 0 
L 0 60 
z
" style="fill: none; opacity: 0"/>
  </g>
  <g id="axes_1">
   <g id="patch_2">
    <path d="M 5.76 52.8 
L 138.24 52.8 
L 138.24 3.6 
L 5.76 3.6 
L 5.76 52.8 
z
" style="fill: none"/>
   </g>
   <g id="matplotlib.axis_1"/>
   <g id="matplotlib.axis_2"/>
   <g id="line2d_1">
    <path d="M 5.76 42.96 
L 138.24 42.96 
" clip-path="url(#p891dad534d)" style="fill: none; stroke: #b2b2b2; stroke-opacity: 0.35; stroke-width: 0.5; stroke-linecap: square"/>
   </g>
   <g id="line2d_2">
    <path d="M 5.76 33.12 
L 138.24 33.12 
" clip-path="url(#p891dad534d)" style="fill: none; stroke: #b2b2b2; stroke-opacity: 0.35; stroke-width: 0.5; stroke-linecap: square"/>
   </g>
   <g id="line2d_3">
    <path d="M 5.76 23.28 
L 138.24 23.28 
" clip-path="url(#p891dad534d)" style="fill: none; stroke: #b2b2b2; stroke-opacity: 0.35; stroke-width: 0.5; stroke-linecap: square"/>
   </g>
   <g id="line2d_4">
    <path d="M 5.76 13.44 
L 138.24 13.44 
" clip-path="url(#p891dad534d)" style="fill: none; stroke: #b2b2b2; stroke-opacity: 0.35; stroke-width: 0.5; stroke-linecap: square"/>
   </g>
   <g id="line2d_5">
    <path d="M 6.073934 38.29584 
L 9.04569 38.21712 
L 9.358506 38.120383 
L 9.984139 37.79892 
L 10.609772 37.882753 
L 11.235405 38.17284 
L 13.112304 38.241562 
L 13.737937 38.46312 
L 14.676386 38.359642 
L 15.302019 38.31552 
L 15.614835 38.367521 
L 16.396876 38.5812 
L 16.866101 38.532945 
L 17.648142 38.32536 
L 18.117367 38.394117 
L 18.743 38.7042 
L 19.837857 38.5999 
L 20.932715 38.430606 
L 21.40194 38.34996 
L 21.871164 38.30505 
L 22.653205 38.06952 
L 23.435246 38.172052 
L 24.060879 38.22696 
L 24.530104 38.312473 
L 25.155737 38.44344 
L 25.937778 38.531195 
L 26.563411 38.5812 
L 33.132556 38.50297 
L 33.914597 38.27616 
L 36.573537 38.17839 
L 37.19917 38.1138 
L 37.511987 38.088237 
L 38.294028 37.75464 
L 38.919661 37.847087 
L 39.545294 38.04984 
L 40.327335 38.131782 
L 40.952968 38.19744 
L 41.422192 38.090075 
L 42.047825 37.83828 
L 42.829866 37.755778 
L 43.455499 37.68576 
L 45.019581 37.597778 
L 45.958031 37.4496 
L 47.678521 37.347296 
L 49.55542 37.1298 
L 50.181053 37.221722 
L 50.806686 37.4988 
L 51.588727 37.423897 
L 52.370768 37.34628 
L 53.778442 37.34628 
L 54.560483 37.85304 
L 55.968157 37.768174 
L 56.59379 37.671 
L 57.219423 37.57162 
L 57.845056 37.45452 
L 63.319344 37.523277 
L 64.101385 37.68576 
L 68.793631 37.74972 
L 69.106448 38.171509 
L 69.575673 38.8272 
L 71.921796 38.726279 
L 72.703837 38.72817 
L 73.642286 38.86656 
L 73.955103 38.928752 
L 74.580736 39.41268 
L 75.519185 39.513881 
L 76.144818 39.57996 
L 80.36784 39.535733 
L 80.993473 39.3438 
L 81.775514 39.251353 
L 82.401147 39.18144 
L 83.183188 39.285233 
L 83.965229 39.3102 
L 86.936985 39.470302 
L 87.40621 39.52092 
L 107.113646 39.628845 
L 109.616178 39.76692 
L 110.867444 39.660186 
L 112.431526 39.64884 
L 120.408345 39.751162 
L 121.659611 39.876281 
L 122.285244 40.75584 
L 122.910877 40.714659 
L 123.53651 40.27368 
L 125.569817 40.16579 
L 126.351858 40.06212 
L 131.669737 40.027908 
L 132.451779 39.63408 
L 137.926066 39.6636 
L 137.926066 39.6636 
" clip-path="url(#p891dad534d)" style="fill: none; stroke: #bebebe; stroke-width: 0.6; stroke-linecap: round"/>
   </g>
   <g id="line2d_6">
    <path d="M 6.073934 32.44596 
L 8.732873 32.428469 
L 9.358506 32.13108 
L 9.984139 32.185988 
L 10.76618 32.37216 
L 12.643079 32.447483 
L 13.112304 32.63784 
L 14.832794 32.73624 
L 15.771244 33.10524 
L 17.80455 33.196654 
L 18.273775 33.28236 
L 18.743 33.336638 
L 19.368633 33.5874 
L 19.994266 33.541177 
L 20.776307 33.3168 
L 23.591655 33.42504 
L 25.624962 33.56772 
L 27.189044 33.466028 
L 29.065943 33.43488 
L 32.663332 33.324014 
L 34.071006 33.291079 
L 35.009455 33.270647 
L 35.635088 33.009309 
L 36.417129 33.25776 
L 41.109376 33.161251 
L 42.360642 33.096731 
L 43.299091 32.95792 
L 43.924724 32.64276 
L 44.393948 32.613135 
L 45.019581 31.7178 
L 48.460562 31.616686 
L 48.929787 31.46688 
L 49.399012 31.468561 
L 50.181053 31.9392 
L 50.806686 31.837718 
L 51.432319 31.52592 
L 52.370768 31.612904 
L 52.683584 31.744536 
L 53.309217 32.078868 
L 54.560483 32.057438 
L 55.186116 31.936241 
L 56.124565 32.04744 
L 60.503996 31.951859 
L 61.755261 31.8841 
L 62.850119 31.875905 
L 65.039834 31.87032 
L 67.542366 31.68336 
L 67.855182 32.042222 
L 68.324407 32.589463 
L 69.888489 32.591739 
L 71.452571 32.56896 
L 72.234612 32.675589 
L 72.860245 32.85432 
L 73.32947 32.921344 
L 73.955103 33.42504 
L 74.580736 33.478232 
L 75.206369 33.9072 
L 76.144818 33.993011 
L 76.770451 34.04988 
L 77.396084 34.131752 
L 78.021717 34.18764 
L 80.837065 34.148613 
L 81.619106 33.84816 
L 82.557555 33.944389 
L 83.652413 33.993729 
L 85.998536 34.22798 
L 86.624169 34.45332 
L 104.923931 34.357669 
L 105.86238 34.31064 
L 107.113646 34.55664 
L 108.052096 34.554364 
L 108.677728 34.65996 
L 109.303361 34.574657 
L 109.928994 34.473455 
L 111.023852 34.484451 
L 112.118709 34.375616 
L 114.621241 34.33032 
L 118.844263 34.492452 
L 119.939121 34.54272 
L 121.033978 34.657911 
L 121.659611 35.47176 
L 122.285244 35.435867 
L 122.910877 35.06832 
L 123.53651 35.034896 
L 124.162143 34.65996 
L 127.603124 34.572293 
L 128.072348 34.46808 
L 129.010798 34.574447 
L 129.792839 34.602058 
L 131.044105 34.597401 
L 131.669737 33.9072 
L 136.987617 34.018031 
L 137.926066 34.13352 
L 137.926066 34.13352 
" clip-path="url(#p891dad534d)" style="fill: none; stroke: #4a8dff; stroke-width: 0.7; stroke-linecap: round"/>
   </g>
   <g id="line2d_7">
    <path d="M 6.073934 37.0806 
L 8.107241 37.176951 
L 8.732873 37.27255 
L 9.514915 37.14456 
L 9.827731 37.14456 
L 10.609772 37.71528 
L 12.486671 37.735695 
L 13.112304 38.0646 
L 14.050753 37.977931 
L 14.676386 37.9416 
L 14.989202 38.022981 
L 15.614835 38.34996 
L 17.491734 38.435368 
L 18.117367 38.76816 
L 19.994266 38.756359 
L 20.619898 38.36472 
L 22.496797 38.401874 
L 23.278838 38.655 
L 27.189044 38.545289 
L 28.44031 38.545464 
L 30.630025 38.54683 
L 31.881291 38.467024 
L 35.165863 38.318076 
L 35.635088 37.958391 
L 36.260721 38.47788 
L 38.13762 38.415303 
L 38.919661 38.163 
L 40.796559 38.117862 
L 41.422192 37.87764 
L 43.142683 37.771974 
L 43.768316 36.86904 
L 44.550357 36.774982 
L 45.17599 36.53448 
L 47.052888 36.493019 
L 47.678521 36.08184 
L 48.147746 36.076377 
L 48.929787 35.57016 
L 49.399012 35.572139 
L 50.181053 36.12612 
L 50.806686 36.039136 
L 51.432319 35.77188 
L 52.057951 35.856343 
L 53.465625 36.564193 
L 54.716891 36.468261 
L 55.186116 36.419306 
L 55.968157 36.60336 
L 60.347587 36.512331 
L 61.442445 36.471063 
L 66.447508 36.60378 
L 67.542366 36.50004 
L 67.855182 36.939303 
L 68.324407 37.586327 
L 69.419264 37.49388 
L 71.139755 37.492217 
L 71.921796 37.45944 
L 72.391021 37.719885 
L 72.703837 37.87764 
L 73.32947 37.936575 
L 73.955103 38.37948 
L 74.737144 38.4679 
L 75.362777 38.62548 
L 75.98841 38.727749 
L 76.614043 38.91576 
L 77.552492 39.015351 
L 79.429391 39.12732 
L 79.898615 38.961791 
L 80.36784 38.84196 
L 81.306289 38.740846 
L 82.08833 38.725946 
L 83.339596 38.821982 
L 85.998536 38.89046 
L 86.624169 39.147 
L 91.316416 39.051436 
L 91.942049 39.01908 
L 92.411273 38.933952 
L 93.036906 38.8518 
L 94.288172 38.962264 
L 95.070213 39.02892 
L 104.767523 38.958009 
L 105.705972 38.82228 
L 106.018789 38.874964 
L 106.644422 39.11256 
L 108.208504 39.212833 
L 108.990545 39.2454 
L 110.085403 39.029865 
L 111.023852 39.045641 
L 113.057159 38.88132 
L 114.934057 38.979002 
L 116.185323 39.044871 
L 118.531447 39.252824 
L 119.313488 39.51108 
L 120.095529 39.428228 
L 120.721162 39.37332 
L 121.033978 39.466923 
L 121.659611 40.34748 
L 122.285244 40.30721 
L 122.910877 39.89484 
L 123.692918 39.808539 
L 124.318551 39.63408 
L 126.508266 39.737067 
L 126.977491 39.78168 
L 127.290307 39.752808 
L 127.91594 39.30444 
L 128.697981 39.386294 
L 129.323614 39.57504 
L 130.105655 39.679516 
L 130.731288 39.76692 
L 131.044105 39.737838 
L 131.669737 39.024 
L 135.736351 39.125779 
L 136.831209 39.160499 
L 137.926066 39.23064 
L 137.926066 39.23064 
" clip-path="url(#p891dad534d)" style="fill: none; stroke: #f5841e; stroke-width: 0.8; stroke-linecap: round"/>
   </g>
  </g>
 </g>
 <defs>
  <clipPath id="p891dad534d">
   <rect x="5.76" y="3.6" width="132.48" height="49.2"/>
  </clipPath>
 </defs>
</svg>
