<?xml version="1.0" encoding="utf-8" standalone="no"?>
<!DOCTYPE svg PUBLIC "-//W3C//DTD SVG 1.1//EN"
  "http://www.w3.org/Graphics/SVG/1.1/DTD/svg11.dtd">
<svg xmlns:xlink="http://www.w3.org/1999/xlink" width="144pt" height="60pt" viewBox="0 0 144 60" xmlns="http://www.w3.org/2000/svg" version="1.1">
  <desc id="nav-meta">{"window":"3m","count":4,"labels":["12.03","11.04","10.05","09.06"],"tick_utc":["2026-03-12T03:19:44Z","2026-04-11T03:29:29Z","2026-05-10T04:35:36Z","2026-06-09T04:50:50Z"]}</desc>

 <metadata>
  <rdf:RDF xmlns:dc="http://purl.org/dc/elements/1.1/" xmlns:cc="http://creativecommons.org/ns#" xmlns:rdf="http://www.w3.org/1999/02/22-rdf-syntax-ns#">
   <cc:Work>
    <dc:type rdf:resource="http://purl.org/dc/dcmitype/StillImage"/>
    <dc:date>2026-06-09T15:44:00.322674</dc:date>
    <dc:format>image/svg+xml</dc:format>
    <dc:creator>
     <cc:Agent>
      <dc:title>Matplotlib v3.10.9, https://matplotlib.org/</dc:title>
     </cc:Agent>
    </dc:creator>
   </cc:Work>
  </rdf:RDF>
 </metadata>
 <defs>
  <style type="text/css">*{stroke-linejoin: round; stroke-linecap: butt}</style>
 </defs>
 <g id="figure_1">
  <g id="patch_1">
   <path d="M 0 60 
L 144 60 
L 144 0 
L 0 0 
L 0 60 
z
" style="fill: none; opacity: 0"/>
  </g>
  <g id="axes_1">
   <g id="patch_2">
    <path d="M 5.76 52.8 
L 138.24 52.8 
L 138.24 3.6 
L 5.76 3.6 
L 5.76 52.8 
z
" style="fill: none"/>
   </g>
   <g id="matplotlib.axis_1"/>
   <g id="matplotlib.axis_2"/>
   <g id="line2d_1">
    <path d="M 5.76 42.96 
L 138.24 42.96 
" clip-path="url(#p20c503d493)" style="fill: none; stroke: #b2b2b2; stroke-opacity: 0.35; stroke-width: 0.5; stroke-linecap: square"/>
   </g>
   <g id="line2d_2">
    <path d="M 5.76 33.12 
L 138.24 33.12 
" clip-path="url(#p20c503d493)" style="fill: none; stroke: #b2b2b2; stroke-opacity: 0.35; stroke-width: 0.5; stroke-linecap: square"/>
   </g>
   <g id="line2d_3">
    <path d="M 5.76 23.28 
L 138.24 23.28 
" clip-path="url(#p20c503d493)" style="fill: none; stroke: #b2b2b2; stroke-opacity: 0.35; stroke-width: 0.5; stroke-linecap: square"/>
   </g>
   <g id="line2d_4">
    <path d="M 5.76 13.44 
L 138.24 13.44 
" clip-path="url(#p20c503d493)" style="fill: none; stroke: #b2b2b2; stroke-opacity: 0.35; stroke-width: 0.5; stroke-linecap: square"/>
   </g>
   <g id="line2d_5">
    <path d="M 5.76 49.45932 
L 7.244607 49.16904 
L 8.730109 49.22808 
L 10.246049 49.27236 
L 11.737732 48.87384 
L 13.199183 48.74592 
L 14.698011 48.70164 
L 16.185906 49.03128 
L 17.658909 49.1592 
L 19.13768 49.08048 
L 20.647405 49.21332 
L 22.138382 49.36584 
L 23.612091 49.11 
L 25.210359 48.90828 
L 26.605149 49.05096 
L 28.094507 49.37076 
L 29.567769 49.64628 
L 31.075514 49.6266 
L 32.567249 49.602 
L 34.045348 49.59708 
L 35.545587 49.59708 
L 37.013477 49.8726 
L 38.502663 49.88244 
L 39.977405 49.80864 
L 41.487286 49.78896 
L 42.978607 49.69056 
L 44.45643 49.83816 
L 45.946323 49.50852 
L 47.428623 49.68564 
L 48.929792 49.6266 
L 50.394531 49.48884 
L 51.908698 49.6512 
L 53.403807 49.69056 
L 54.88182 49.40028 
L 56.368166 49.58724 
L 57.862086 49.45932 
L 59.346538 49.27728 
L 60.817613 49.19856 
L 62.324739 49.43472 
L 63.815905 49.50852 
L 65.296862 49.46424 
L 66.77973 49.31664 
L 68.273238 49.4298 
L 69.764662 49.42488 
L 71.234394 49.37568 
L 72.745015 49.4052 
L 74.248525 49.29204 
L 75.739123 49.5528 
L 77.222542 49.50852 
L 78.712521 49.64136 
L 80.216255 49.56756 
L 81.665775 49.56264 
L 83.183454 49.57248 
L 84.67042 49.42488 
L 86.125139 49.49376 
L 87.638824 49.32156 
L 89.126702 49.25268 
L 90.589427 49.24284 
L 92.08235 48.80004 
L 93.599805 48.85416 
L 95.099028 48.72132 
L 96.565851 48.63276 
L 98.060409 48.66228 
L 99.546238 49.09524 
L 101.041054 48.99192 
L 102.509547 49.19364 
L 104.019238 49.34616 
L 105.521164 49.47408 
L 106.997989 49.47408 
L 108.490791 49.54788 
L 109.986743 49.3314 
L 111.462828 49.34616 
L 112.929874 49.51836 
L 114.440908 49.41996 
L 115.947965 49.41504 
L 117.412911 49.5282 
L 118.915664 49.5774 
L 120.398394 49.7742 
L 121.886978 49.7004 
L 123.353008 49.69548 
L 124.87086 49.61676 
L 126.380344 49.71024 
L 127.853192 49.7988 
L 129.357408 50.19732 
L 130.839794 50.45808 
L 132.302778 50.59092 
L 133.767396 50.99928 
L 135.286849 50.82216 
L 136.780908 50.74344 
L 138.24 50.62536 
" clip-path="url(#p20c503d493)" style="fill: none; stroke: #bebebe; stroke-width: 0.6; stroke-linecap: round"/>
   </g>
   <g id="line2d_6">
    <path d="M 5.76 43.97844 
L 7.244607 43.41756 
L 8.730109 43.48152 
L 10.246049 43.48644 
L 11.737732 42.49752 
L 13.199183 41.73984 
L 14.698011 41.7546 
L 16.185906 42.591 
L 17.658909 43.14204 
L 19.13768 43.083 
L 20.647405 43.35852 
L 22.138382 43.78164 
L 23.612091 43.21584 
L 25.210359 42.9354 
L 26.605149 43.10268 
L 28.094507 43.72752 
L 29.567769 44.25396 
L 31.075514 44.10636 
L 32.567249 43.9194 
L 34.045348 43.74228 
L 35.545587 43.46676 
L 37.013477 43.65372 
L 38.502663 43.79148 
L 39.977405 43.81116 
L 41.487286 43.77672 
L 42.978607 43.2552 
L 44.45643 43.40772 
L 45.946323 42.49752 
L 47.428623 42.90588 
L 48.929792 42.8616 
L 50.394531 42.41388 
L 51.908698 42.63036 
L 53.403807 42.79764 
L 54.88182 41.57256 
L 56.368166 41.86284 
L 57.862086 41.63652 
L 59.346538 41.85792 
L 60.817613 41.22324 
L 62.324739 41.76936 
L 63.815905 42.1482 
L 65.296862 41.96616 
L 66.77973 41.59224 
L 68.273238 41.76936 
L 69.764662 41.99076 
L 71.234394 41.91696 
L 72.745015 41.98584 
L 74.248525 41.41512 
L 75.739123 42.15312 
L 77.222542 41.96124 
L 78.712521 42.43848 
L 80.216255 42.20232 
L 81.665775 42.02028 
L 83.183454 42.0252 
L 84.67042 41.40528 
L 86.125139 41.46432 
L 87.638824 41.52336 
L 89.126702 41.86776 
L 90.589427 42.1974 
L 92.08235 41.8776 
L 93.599805 41.84316 
L 95.099028 41.8038 
L 96.565851 41.976 
L 98.060409 42.00552 
L 99.546238 42.3942 
L 101.041054 42.27612 
L 102.509547 42.57624 
L 104.019238 42.85176 
L 105.521164 43.31424 
L 106.997989 43.2306 
L 108.490791 43.39296 
L 109.986743 43.16172 
L 111.462828 43.24536 
L 112.929874 43.71768 
L 114.440908 43.33392 
L 115.947965 43.42248 
L 117.412911 43.51596 
L 118.915664 43.67832 
L 120.398394 44.32776 
L 121.886978 44.13588 
L 123.353008 44.16048 
L 124.87086 43.96368 
L 126.380344 44.2392 
L 127.853192 44.19984 
L 129.357408 45.16908 
L 130.839794 45.67584 
L 132.302778 46.00548 
L 133.767396 47.57004 
L 135.286849 47.04852 
L 136.780908 46.64016 
L 138.24 46.34496 
" clip-path="url(#p20c503d493)" style="fill: none; stroke: #4a8dff; stroke-width: 0.6; stroke-linecap: round"/>
   </g>
   <g id="line2d_7">
    <path d="M 5.76 49.2084 
L 7.244607 48.93288 
L 8.730109 48.95748 
L 10.246049 48.89844 
L 11.737732 48.48024 
L 13.199183 48.1998 
L 14.698011 48.28344 
L 16.185906 48.88368 
L 17.658909 49.04604 
L 19.13768 49.00176 
L 20.647405 49.20348 
L 22.138382 49.38552 
L 23.612091 49.04112 
L 25.210359 48.92796 
L 26.605149 48.987 
L 28.094507 49.29204 
L 29.567769 49.66104 
L 31.075514 49.56756 
L 32.567249 49.53312 
L 34.045348 49.46424 
L 35.545587 49.40028 
L 37.013477 49.56756 
L 38.502663 49.59708 
L 39.977405 49.56264 
L 41.487286 49.53312 
L 42.978607 49.25268 
L 44.45643 49.29696 
L 45.946323 48.89352 
L 47.428623 48.96732 
L 48.929792 48.8148 
L 50.394531 48.5934 
L 51.908698 48.84432 
L 53.403807 48.95748 
L 54.88182 48.30804 
L 56.368166 48.34248 
L 57.862086 48.21456 
L 59.346538 48.26376 
L 60.817613 47.41752 
L 62.324739 48.05712 
L 63.815905 48.26376 
L 65.296862 48.01776 
L 66.77973 47.23548 
L 68.273238 47.17644 
L 69.764662 47.15676 
L 71.234394 47.1666 
L 72.745015 47.31912 
L 74.248525 46.49256 
L 75.739123 47.64876 
L 77.222542 47.5356 
L 78.712521 48.0276 
L 80.216255 47.50608 
L 81.665775 46.81728 
L 83.183454 46.92552 
L 84.67042 45.85788 
L 86.125139 45.60204 
L 87.638824 45.29208 
L 89.126702 45.58728 
L 90.589427 46.2564 
L 92.08235 45.7152 
L 93.599805 45.63648 
L 95.099028 45.6414 
L 96.565851 45.45936 
L 98.060409 45.42492 
L 99.546238 46.38432 
L 101.041054 45.57744 
L 102.509547 46.51716 
L 104.019238 46.95996 
L 105.521164 47.54544 
L 106.997989 47.59464 
L 108.490791 47.66844 
L 109.986743 47.05344 
L 111.462828 47.22564 
L 112.929874 48.07188 
L 114.440908 47.6832 
L 115.947965 47.37324 
L 117.412911 47.66844 
L 118.915664 48.07188 
L 120.398394 48.59832 
L 121.886978 48.52452 
L 123.353008 48.5688 
L 124.87086 48.38676 
L 126.380344 48.55404 
L 127.853192 49.0116 
L 129.357408 49.57248 
L 130.839794 49.93656 
L 132.302778 49.98084 
L 133.767396 50.3646 
L 135.286849 50.15796 
L 136.780908 50.07432 
L 138.24 49.99068 
" clip-path="url(#p20c503d493)" style="fill: none; stroke: #f5841e; stroke-width: 0.7; stroke-linecap: round"/>
   </g>
  </g>
 </g>
 <defs>
  <clipPath id="p20c503d493">
   <rect x="5.76" y="3.6" width="132.48" height="49.2"/>
  </clipPath>
 </defs>
</svg>
