<?xml version="1.0" encoding="utf-8" standalone="no"?>
<!DOCTYPE svg PUBLIC "-//W3C//DTD SVG 1.1//EN"
  "http://www.w3.org/Graphics/SVG/1.1/DTD/svg11.dtd">
<svg xmlns:xlink="http://www.w3.org/1999/xlink" width="144pt" height="60pt" viewBox="0 0 144 60" xmlns="http://www.w3.org/2000/svg" version="1.1">
  <desc id="nav-meta">{"window":"1y","count":4,"labels":["17.04","17.08","16.12","17.04"],"tick_utc":["2025-04-17T12:00:00Z","2025-08-17T12:00:00Z","2025-12-16T12:00:00Z","2026-04-17T03:55:44Z"]}</desc>

 <metadata>
  <rdf:RDF xmlns:dc="http://purl.org/dc/elements/1.1/" xmlns:cc="http://creativecommons.org/ns#" xmlns:rdf="http://www.w3.org/1999/02/22-rdf-syntax-ns#">
   <cc:Work>
    <dc:type rdf:resource="http://purl.org/dc/dcmitype/StillImage"/>
    <dc:date>2026-04-17T08:15:37.846514</dc:date>
    <dc:format>image/svg+xml</dc:format>
    <dc:creator>
     <cc:Agent>
      <dc:title>Matplotlib v3.10.8, https://matplotlib.org/</dc:title>
     </cc:Agent>
    </dc:creator>
   </cc:Work>
  </rdf:RDF>
 </metadata>
 <defs>
  <style type="text/css">*{stroke-linejoin: round; stroke-linecap: butt}</style>
 </defs>
 <g id="figure_1">
  <g id="patch_1">
   <path d="M 0 60 
L 144 60 
L 144 0 
L 0 0 
L 0 60 
z
" style="fill: none; opacity: 0"/>
  </g>
  <g id="axes_1">
   <g id="patch_2">
    <path d="M 5.76 52.8 
L 138.24 52.8 
L 138.24 3.6 
L 5.76 3.6 
L 5.76 52.8 
z
" style="fill: none"/>
   </g>
   <g id="matplotlib.axis_1"/>
   <g id="matplotlib.axis_2"/>
   <g id="line2d_1">
    <path d="M 5.76 42.96 
L 138.24 42.96 
" clip-path="url(#pff8145904e)" style="fill: none; stroke: #b2b2b2; stroke-opacity: 0.35; stroke-width: 0.5; stroke-linecap: square"/>
   </g>
   <g id="line2d_2">
    <path d="M 5.76 33.12 
L 138.24 33.12 
" clip-path="url(#pff8145904e)" style="fill: none; stroke: #b2b2b2; stroke-opacity: 0.35; stroke-width: 0.5; stroke-linecap: square"/>
   </g>
   <g id="line2d_3">
    <path d="M 5.76 23.28 
L 138.24 23.28 
" clip-path="url(#pff8145904e)" style="fill: none; stroke: #b2b2b2; stroke-opacity: 0.35; stroke-width: 0.5; stroke-linecap: square"/>
   </g>
   <g id="line2d_4">
    <path d="M 5.76 13.44 
L 138.24 13.44 
" clip-path="url(#pff8145904e)" style="fill: none; stroke: #b2b2b2; stroke-opacity: 0.35; stroke-width: 0.5; stroke-linecap: square"/>
   </g>
   <g id="line2d_5">
    <path d="M 5.76 44.49504 
L 6.123294 44.08668 
L 6.486587 44.17032 
L 6.849881 43.43232 
L 7.576468 43.86528 
L 7.939762 42.23676 
L 8.666349 41.7792 
L 9.75623 42.31056 
L 10.119524 42.345 
L 10.482817 42.5418 
L 10.846111 42.37944 
L 11.209404 41.98584 
L 11.572698 42.345 
L 11.935992 42.49752 
L 12.299285 42.86652 
L 12.662579 42.49752 
L 13.389166 42.44832 
L 13.75246 40.33272 
L 14.115753 39.12732 
L 14.479047 38.52216 
L 14.842341 39.10272 
L 15.205634 38.901 
L 15.568928 37.6464 
L 16.295515 39.639 
L 17.022102 40.008 
L 17.385396 39.27492 
L 17.74869 39.90468 
L 18.111983 39.6882 
L 18.838571 38.22696 
L 19.201864 38.901 
L 19.565158 38.69436 
L 20.291745 38.86164 
L 20.655039 38.62056 
L 21.381626 39.88992 
L 21.74492 41.23308 
L 22.834801 41.17404 
L 23.561388 41.62176 
L 23.924681 42.79272 
L 24.287975 42.30564 
L 25.014562 41.7546 
L 25.377856 40.62792 
L 25.74115 40.131 
L 26.104443 40.6476 
L 26.467737 41.73492 
L 27.194324 42.76812 
L 27.557618 41.73492 
L 27.920911 41.89728 
L 28.284205 42.345 
L 28.647499 42.5664 
L 29.010792 42.46308 
L 29.737379 44.20476 
L 30.100673 44.45076 
L 30.463967 42.7632 
L 30.82726 42.63036 
L 31.190554 42.94524 
L 31.553848 43.52088 
L 31.917141 43.1076 
L 32.280435 41.98092 
L 33.007022 41.43972 
L 33.370316 42.4926 
L 33.733609 41.79888 
L 34.096903 41.78412 
L 34.460197 42.37452 
L 34.82349 42.3942 
L 35.186784 41.83332 
L 35.550078 42.24168 
L 35.913371 41.84316 
L 36.639958 40.2786 
L 37.003252 40.42128 
L 37.366546 40.71648 
L 38.093133 40.48032 
L 38.456427 40.26384 
L 38.81972 38.97972 
L 39.546307 38.51724 
L 39.909601 38.57628 
L 40.272895 38.04492 
L 40.636188 36.03264 
L 40.999482 34.88136 
L 41.362776 36.92316 
L 41.726069 37.8432 
L 42.089363 37.37088 
L 42.452656 37.53324 
L 42.81595 37.056 
L 43.179244 37.77924 
L 43.542537 38.02032 
L 43.905831 38.45328 
L 44.269125 39.1962 
L 44.632418 40.41636 
L 44.995712 40.97232 
L 45.359005 40.53444 
L 45.722299 39.55536 
L 46.085593 40.24908 
L 46.448886 39.7128 
L 46.81218 38.778 
L 47.175474 38.59104 
L 47.902061 37.794 
L 48.265355 38.82228 
L 48.628648 36.53448 
L 48.991942 35.334 
L 49.718529 37.44468 
L 50.081823 36.90348 
L 50.445116 36.65748 
L 51.171704 38.64516 
L 51.534997 37.2282 
L 51.898291 38.14332 
L 52.261584 35.53572 
L 52.624878 35.04372 
L 52.988172 34.80264 
L 53.351465 37.23804 
L 54.441346 33.67104 
L 54.80464 34.90596 
L 55.894521 35.9736 
L 56.257814 34.36476 
L 56.621108 34.1778 
L 56.984402 35.22084 
L 57.347695 35.11752 
L 57.710989 35.54556 
L 59.164163 32.44104 
L 59.527457 31.83096 
L 59.890751 30.06468 
L 60.254044 30.01056 
L 60.617338 30.291 
L 60.980631 31.16184 
L 61.343925 30.74856 
L 61.707219 29.71536 
L 62.070512 29.37588 
L 62.433806 30.57636 
L 62.7971 30.42876 
L 63.160393 30.79284 
L 63.523687 32.91828 
L 63.886981 33.72024 
L 64.250274 34.05972 
L 64.613568 36.5886 
L 64.976861 34.90104 
L 65.340155 35.10276 
L 65.703449 34.16796 
L 66.066742 33.8826 
L 66.430036 34.43364 
L 67.156623 31.05852 
L 67.519917 31.26024 
L 67.88321 31.92936 
L 68.246504 31.85064 
L 68.609798 31.3242 
L 68.973091 32.84448 
L 69.336385 31.78176 
L 69.699679 32.85924 
L 70.062972 36.8838 
L 70.426266 38.39424 
L 70.789559 35.95392 
L 71.152853 34.53696 
L 71.516147 35.20608 
L 72.242734 37.57752 
L 72.606028 37.90716 
L 72.969321 37.18884 
L 73.332615 37.18392 
L 73.695908 36.89364 
L 74.059202 37.42008 
L 74.422496 38.17284 
L 74.785789 36.687 
L 75.149083 36.42132 
L 75.512377 36.34752 
L 75.87567 35.56032 
L 76.238964 35.72268 
L 76.602258 36.29832 
L 76.965551 36.32292 
L 77.328845 37.61688 
L 77.692138 37.2282 
L 78.055432 37.34628 
L 78.418726 37.23804 
L 78.782019 40.008 
L 79.145313 41.36592 
L 79.508607 40.43604 
L 79.8719 41.44956 
L 80.235194 40.53444 
L 80.598487 41.02152 
L 80.961781 40.22448 
L 81.325075 39.79644 
L 81.688368 41.51844 
L 82.051662 41.66604 
L 82.778249 43.51596 
L 83.141543 43.43724 
L 83.504836 43.71276 
L 83.86813 44.59836 
L 84.231424 43.30932 
L 85.321305 44.88372 
L 85.684598 44.99688 
L 86.047892 44.57868 
L 86.411185 43.5996 
L 86.774479 43.51596 
L 87.137773 43.00428 
L 87.501066 43.2798 
L 87.86436 43.71768 
L 88.590947 44.0916 
L 88.954241 45.11004 
L 89.317534 43.55532 
L 89.680828 42.72876 
L 90.407415 44.27364 
L 91.134003 44.47536 
L 91.497296 44.25888 
L 91.86059 43.64388 
L 92.223884 43.84068 
L 92.587177 43.85052 
L 92.950471 44.36712 
L 93.313764 44.26872 
L 93.677058 44.74104 
L 94.040352 44.98704 
L 94.403645 44.84436 
L 94.766939 45.58728 
L 95.130233 46.0596 
L 95.493526 45.18384 
L 96.946701 45.47904 
L 97.309994 45.65616 
L 97.673288 45.98088 
L 98.399875 45.38556 
L 98.763169 45.31668 
L 99.126462 45.58728 
L 99.489756 45.35604 
L 99.85305 45.40032 
L 100.216343 45.11496 
L 100.579637 44.42124 
L 101.306224 44.18508 
L 102.032811 43.24044 
L 102.396105 43.8702 
L 102.759399 43.60944 
L 103.122692 43.92924 
L 103.485986 43.93416 
L 103.84928 43.46184 
L 104.212573 43.5012 
L 104.575867 42.72384 
L 104.939161 42.51228 
L 105.302454 43.08792 
L 105.665748 42.75828 
L 106.029041 42.90096 
L 106.755629 44.2392 
L 107.118922 45.23304 
L 107.482216 44.77548 
L 108.208803 45.04608 
L 108.572097 45.07068 
L 108.93539 46.1334 
L 109.298684 45.4446 
L 109.661978 45.06084 
L 110.025271 45.33144 
L 110.388565 46.30068 
L 110.751859 46.34496 
L 111.115152 47.89476 
L 111.478446 48.26376 
L 111.841739 47.96364 
L 112.800254 50.04972 
L 113.161992 49.24776 
L 114.621793 49.59708 
L 114.983779 49.80372 
L 115.346964 49.86768 
L 116.050013 49.24776 
L 116.436609 49.48392 
L 116.754268 49.37568 
L 117.16262 49.479 
L 117.525472 49.7004 
L 118.61516 49.49376 
L 118.979547 49.98576 
L 119.31215 49.96608 
L 119.704826 49.7004 
L 120.066501 49.27236 
L 120.429105 49.37076 
L 120.788118 49.68072 
L 121.159666 49.25268 
L 121.519209 49.51344 
L 122.608682 49.09032 
L 124.063513 49.58724 
L 124.424473 49.36092 
L 125.152347 49.45932 
L 125.514938 49.16904 
L 126.247993 49.27236 
L 126.612312 48.87384 
L 127.335313 48.70164 
L 127.698707 49.03128 
L 128.058465 49.1592 
L 128.419631 49.08048 
L 129.152504 49.36584 
L 129.902785 48.90828 
L 130.243441 49.05096 
L 130.967013 49.64628 
L 132.426999 49.59708 
L 132.785508 49.8726 
L 133.5094 49.80864 
L 134.60333 49.83816 
L 134.967212 49.50852 
L 135.32924 49.68564 
L 136.053616 49.48884 
L 136.788583 49.69056 
L 137.149564 49.40028 
L 137.51258 49.58724 
L 138.24 49.27728 
L 138.24 49.27728 
" clip-path="url(#pff8145904e)" style="fill: none; stroke: #bebebe; stroke-width: 0.6; stroke-linecap: round"/>
   </g>
   <g id="line2d_6">
    <path d="M 5.76 47.16168 
L 6.486587 47.07804 
L 6.849881 46.896 
L 7.213175 47.10756 
L 7.576468 47.16168 
L 7.939762 45.87264 
L 8.303055 45.63156 
L 8.666349 45.80376 
L 9.392936 45.43968 
L 9.75623 45.63156 
L 10.482817 45.61188 
L 10.846111 45.63156 
L 11.209404 45.31176 
L 11.935992 45.3462 
L 12.299285 45.52824 
L 13.025873 45.47412 
L 13.389166 45.51348 
L 13.75246 42.77796 
L 14.115753 41.75952 
L 14.479047 40.04244 
L 14.842341 40.58364 
L 15.205634 40.69188 
L 15.568928 39.38808 
L 16.295515 40.33764 
L 16.658809 40.32288 
L 17.022102 40.81488 
L 17.385396 40.88376 
L 17.74869 40.44588 
L 18.111983 40.46556 
L 18.475277 40.21956 
L 18.838571 39.52584 
L 19.201864 40.49508 
L 20.291745 40.19496 
L 20.655039 39.4914 
L 21.018332 39.38808 
L 21.381626 39.69312 
L 21.74492 40.46556 
L 22.471507 40.36716 
L 22.834801 39.8604 
L 23.198094 39.96372 
L 23.561388 39.85548 
L 23.924681 41.1888 
L 24.651269 40.4508 
L 25.014562 40.5738 
L 25.74115 38.45328 
L 26.104443 38.68452 
L 26.467737 39.55536 
L 26.83103 40.09164 
L 27.194324 40.39668 
L 27.920911 40.2048 
L 28.284205 40.52952 
L 29.010792 40.48032 
L 29.737379 42.26136 
L 30.100673 42.5664 
L 30.463967 41.17404 
L 30.82726 41.0166 
L 31.190554 41.22324 
L 31.917141 41.17896 
L 32.280435 41.08056 
L 32.643728 40.61808 
L 33.007022 40.7214 
L 33.370316 41.30688 
L 33.733609 40.11132 
L 34.096903 39.99816 
L 34.460197 40.56888 
L 34.82349 40.51476 
L 35.186784 40.131 
L 35.550078 40.3278 
L 35.913371 39.81612 
L 36.639958 37.46436 
L 37.003252 37.39056 
L 37.366546 37.50372 
L 38.093133 37.01172 
L 38.456427 36.16056 
L 38.81972 34.4976 
L 39.183014 33.69072 
L 39.909601 32.89368 
L 40.272895 31.73256 
L 40.636188 31.68336 
L 40.999482 31.8162 
L 41.362776 32.64276 
L 41.726069 32.0868 
L 42.452656 31.85064 
L 42.81595 30.98964 
L 43.179244 31.53576 
L 43.542537 31.521 
L 43.905831 31.38816 
L 44.269125 32.17044 
L 44.632418 33.68088 
L 44.995712 34.28604 
L 45.359005 33.58248 
L 45.722299 32.0376 
L 46.085593 32.76576 
L 46.448886 32.259 
L 46.81218 30.65508 
L 47.175474 29.93676 
L 47.538767 28.14588 
L 48.265355 28.40664 
L 48.628648 25.73508 
L 48.991942 24.62316 
L 49.355235 26.10408 
L 49.718529 26.97984 
L 50.081823 27.00936 
L 50.445116 26.58132 
L 50.80841 27.7818 
L 51.171704 29.49888 
L 51.534997 27.68832 
L 51.898291 28.44108 
L 52.261584 24.16068 
L 52.624878 24.55428 
L 52.988172 24.51984 
L 53.351465 27.32916 
L 53.714759 25.7646 
L 54.078053 26.48784 
L 54.441346 26.43372 
L 54.80464 27.44724 
L 55.531227 27.27504 
L 55.894521 27.8802 
L 56.257814 27.72276 
L 56.621108 26.84208 
L 56.984402 27.91956 
L 57.347695 27.8556 
L 57.710989 28.09668 
L 58.074282 27.87528 
L 58.80087 27.83592 
L 59.164163 27.57024 
L 59.527457 26.77812 
L 59.890751 25.01184 
L 60.617338 25.71048 
L 60.980631 26.31564 
L 61.343925 26.45832 
L 61.707219 25.8384 
L 62.070512 25.84824 
L 62.433806 26.6994 
L 62.7971 26.62068 
L 63.160393 26.8224 
L 63.523687 28.61328 
L 64.250274 28.97244 
L 64.613568 30.99456 
L 64.976861 29.76456 
L 65.340155 29.8974 
L 65.703449 29.02164 
L 66.066742 28.50012 
L 66.430036 29.00688 
L 67.156623 26.601 
L 67.519917 26.3796 
L 67.88321 26.5764 
L 68.246504 26.3796 
L 68.609798 25.1496 
L 68.973091 26.81256 
L 69.336385 26.29596 
L 69.699679 27.41772 
L 70.062972 31.19136 
L 70.426266 31.80144 
L 70.789559 28.89864 
L 71.152853 28.28364 
L 72.242734 30.80268 
L 72.606028 31.22088 
L 72.969321 30.8076 
L 73.332615 30.13356 
L 73.695908 30.17784 
L 74.422496 31.42752 
L 74.785789 31.04376 
L 75.149083 30.49764 
L 75.512377 30.3648 
L 75.87567 28.88388 
L 76.238964 29.15448 
L 76.602258 30.15324 
L 77.328845 31.4226 
L 78.055432 30.9306 
L 78.418726 30.66 
L 79.145313 34.99944 
L 79.508607 34.07448 
L 79.8719 34.9158 
L 80.235194 34.02528 
L 80.598487 34.26144 
L 80.961781 33.0216 
L 81.325075 33.10524 
L 81.688368 34.1532 
L 82.051662 34.2024 
L 82.778249 36.34752 
L 83.141543 35.89488 
L 83.86813 36.94776 
L 84.231424 36.2688 
L 84.594717 36.97236 
L 84.958011 38.286 
L 85.321305 38.76324 
L 85.684598 38.73864 
L 86.047892 38.51724 
L 86.411185 37.42992 
L 86.774479 37.42008 
L 87.137773 36.90348 
L 87.501066 36.98712 
L 87.86436 36.86412 
L 88.227654 37.16424 
L 88.590947 37.14948 
L 88.954241 38.52216 
L 89.680828 35.71776 
L 90.044122 36.15564 
L 90.407415 36.93792 
L 91.134003 36.72636 
L 91.497296 36.21468 
L 91.86059 34.8174 
L 92.223884 34.7928 
L 92.587177 35.42748 
L 92.950471 36.49512 
L 93.313764 36.28356 
L 93.677058 36.6378 
L 94.040352 37.3512 
L 94.403645 37.3512 
L 94.766939 38.31552 
L 95.130233 38.32536 
L 95.493526 37.26264 
L 95.85682 37.26264 
L 96.220113 37.09044 
L 96.583407 37.06092 
L 96.946701 37.34628 
L 97.309994 37.48404 
L 97.673288 37.77924 
L 98.399875 37.45944 
L 99.126462 37.56276 
L 99.489756 37.31184 
L 99.85305 37.33644 
L 100.216343 37.09536 
L 100.579637 36.23928 
L 101.306224 36.11628 
L 102.032811 35.0142 
L 102.396105 35.93424 
L 102.759399 36.36228 
L 103.122692 36.50988 
L 103.485986 36.5148 
L 103.84928 36.25404 
L 104.212573 36.46068 
L 104.575867 34.83708 
L 104.939161 34.57632 
L 105.665748 35.00436 
L 106.029041 34.93056 
L 106.392335 35.088 
L 106.755629 35.78664 
L 107.118922 37.55292 
L 107.482216 37.26756 
L 107.84551 37.46436 
L 108.572097 37.45944 
L 108.93539 38.41392 
L 109.661978 36.95268 
L 110.025271 37.05108 
L 110.388565 38.37948 
L 110.751859 39.20604 
L 111.115152 41.03136 
L 111.478446 42.26628 
L 111.841739 41.73492 
L 112.148441 42.23676 
L 112.800254 44.89356 
L 113.161992 43.6242 
L 113.893886 43.53072 
L 114.259253 43.72752 
L 114.983779 44.436 
L 115.346964 44.49012 
L 115.705889 43.81608 
L 116.050013 43.7226 
L 116.436609 44.5344 
L 116.754268 44.19 
L 117.16262 44.21952 
L 117.886643 44.51472 
L 118.61516 44.3868 
L 118.979547 45.174 
L 119.31215 45.23796 
L 119.704826 44.81484 
L 120.066501 43.821 
L 120.429105 44.01288 
L 120.788118 44.66232 
L 121.159666 43.93908 
L 121.519209 44.39664 
L 121.883348 44.12112 
L 122.244606 44.33268 
L 122.608682 43.3044 
L 122.971803 43.6242 
L 123.332309 44.29824 
L 123.69913 44.53932 
L 124.063513 44.30808 
L 124.424473 43.8702 
L 124.787624 44.00304 
L 125.152347 43.97844 
L 125.514938 43.41756 
L 126.247993 43.48644 
L 126.969248 41.73984 
L 127.335313 41.7546 
L 128.058465 43.14204 
L 128.419631 43.083 
L 128.788357 43.35852 
L 129.152504 43.78164 
L 129.512434 43.21584 
L 129.902785 42.9354 
L 130.243441 43.10268 
L 130.967013 44.25396 
L 132.06059 43.74228 
L 132.426999 43.46676 
L 133.149218 43.79148 
L 133.878164 43.77672 
L 134.242395 43.2552 
L 134.60333 43.40772 
L 134.967212 42.49752 
L 135.32924 42.90588 
L 135.695877 42.8616 
L 136.053616 42.41388 
L 136.788583 42.79764 
L 137.149564 41.57256 
L 137.51258 41.86284 
L 137.877446 41.63652 
L 138.24 41.85792 
L 138.24 41.85792 
" clip-path="url(#pff8145904e)" style="fill: none; stroke: #4a8dff; stroke-width: 0.6; stroke-linecap: round"/>
   </g>
   <g id="line2d_7">
    <path d="M 5.76 44.01288 
L 6.123294 43.60452 
L 6.486587 43.85052 
L 6.849881 43.50612 
L 7.213175 43.53072 
L 7.576468 42.35976 
L 7.939762 39.33396 
L 8.303055 39.3192 
L 8.666349 39.18636 
L 9.029643 38.74356 
L 9.392936 38.80752 
L 9.75623 39.2208 
L 10.119524 38.61564 
L 10.482817 38.9994 
L 10.846111 39.00924 
L 11.209404 37.92684 
L 11.572698 37.71528 
L 11.935992 38.17284 
L 12.299285 38.96496 
L 12.662579 38.74848 
L 13.025873 37.71528 
L 13.389166 37.63164 
L 13.75246 34.64028 
L 14.115753 34.69932 
L 14.479047 33.87276 
L 14.842341 34.18764 
L 15.205634 34.73868 
L 15.568928 34.09416 
L 15.932222 34.38444 
L 16.295515 34.33032 
L 17.022102 34.57632 
L 17.385396 33.18396 
L 17.74869 33.38076 
L 18.111983 32.81004 
L 18.475277 31.38816 
L 18.838571 30.45336 
L 19.201864 32.59848 
L 19.565158 32.29344 
L 19.928452 31.78176 
L 20.291745 31.53084 
L 20.655039 31.68336 
L 21.018332 32.28852 
L 21.74492 34.1778 
L 22.108213 33.84324 
L 22.471507 33.3414 
L 22.834801 33.25284 
L 23.561388 33.7842 
L 23.924681 35.34384 
L 24.287975 33.981 
L 24.651269 33.35616 
L 25.014562 33.35124 
L 25.377856 31.09296 
L 25.74115 31.11756 
L 26.104443 31.87524 
L 26.467737 33.20856 
L 26.83103 33.17412 
L 27.194324 33.45456 
L 27.557618 33.4152 
L 27.920911 32.7264 
L 28.284205 33.84816 
L 29.010792 33.84324 
L 30.100673 35.73744 
L 30.463967 33.4398 
L 30.82726 33.20856 
L 31.190554 32.58372 
L 31.553848 32.71164 
L 32.280435 32.53944 
L 32.643728 32.013 
L 33.370316 33.3906 
L 33.733609 31.80144 
L 34.096903 31.41768 
L 34.460197 32.19012 
L 34.82349 32.10156 
L 35.186784 31.60956 
L 35.550078 32.0622 
L 35.913371 31.73748 
L 36.276665 30.56652 
L 36.639958 28.31808 
L 37.003252 27.48168 
L 37.366546 27.55548 
L 37.729839 26.71908 
L 38.093133 26.36484 
L 38.456427 27.42756 
L 39.183014 26.55672 
L 39.546307 27.27504 
L 39.909601 27.31932 
L 40.272895 27.63912 
L 40.636188 27.52596 
L 40.999482 26.3058 
L 41.362776 26.96016 
L 41.726069 27.09792 
L 42.089363 27.49644 
L 42.452656 27.2898 
L 42.81595 26.57148 
L 43.179244 27.27012 
L 43.905831 27.35376 
L 44.632418 29.62188 
L 44.995712 29.96136 
L 45.359005 29.14956 
L 45.722299 28.68216 
L 46.085593 29.184 
L 46.448886 28.7412 
L 46.81218 27.5358 
L 47.175474 27.91956 
L 47.538767 28.00812 
L 47.902061 26.64528 
L 48.265355 26.88636 
L 48.628648 26.1828 
L 48.991942 24.52476 
L 49.355235 27.0684 
L 49.718529 27.59484 
L 50.445116 27.49644 
L 50.80841 28.13112 
L 51.171704 29.8482 
L 51.534997 29.12004 
L 51.898291 30.03024 
L 52.261584 27.84576 
L 52.988172 29.54316 
L 53.351465 31.13232 
L 53.714759 30.31068 
L 54.078053 30.62064 
L 54.441346 29.97612 
L 54.80464 31.97364 
L 55.167933 31.82112 
L 55.531227 32.0868 
L 55.894521 31.63416 
L 56.257814 30.6354 
L 56.621108 30.37464 
L 56.984402 30.86172 
L 57.347695 30.89616 
L 57.710989 31.11756 
L 58.437576 30.22212 
L 58.80087 30.45828 
L 59.164163 29.2578 
L 59.527457 28.50504 
L 59.890751 28.18032 
L 60.254044 28.2738 
L 60.617338 28.569 
L 60.980631 28.55424 
L 61.343925 27.8802 
L 61.707219 28.03272 
L 62.070512 27.69324 
L 62.433806 28.42632 
L 62.7971 28.3968 
L 63.160393 28.60344 
L 63.523687 29.88756 
L 63.886981 30.22212 
L 64.250274 29.58252 
L 64.613568 31.73256 
L 64.976861 31.36356 
L 65.340155 31.39308 
L 66.066742 29.09544 
L 66.430036 29.2332 
L 66.79333 27.02412 
L 67.519917 25.16928 
L 67.88321 25.10532 
L 68.609798 23.92452 
L 68.973091 25.53336 
L 69.336385 24.62808 
L 69.699679 25.4448 
L 70.062972 29.64156 
L 70.426266 30.80268 
L 70.789559 28.65756 
L 71.152853 28.6428 
L 71.87944 30.87156 
L 72.242734 32.17044 
L 72.606028 32.97732 
L 72.969321 32.628 
L 73.332615 31.90476 
L 73.695908 30.92076 
L 74.059202 31.96872 
L 74.422496 32.39676 
L 74.785789 31.19628 
L 75.512377 30.42384 
L 75.87567 29.0118 
L 76.238964 29.15448 
L 76.602258 29.76456 
L 76.965551 31.2012 
L 77.328845 32.09172 
L 77.692138 31.43244 
L 78.418726 30.90108 
L 79.145313 35.35368 
L 79.508607 34.24668 
L 79.8719 35.5062 
L 80.235194 34.48284 
L 80.598487 35.02896 
L 80.961781 33.8334 
L 81.325075 33.243 
L 81.688368 34.69932 
L 82.414956 36.2934 
L 82.778249 38.901 
L 83.141543 38.37948 
L 83.504836 38.92068 
L 83.86813 40.09164 
L 84.231424 39.70788 
L 84.594717 40.4262 
L 84.958011 42.75336 
L 85.321305 43.54548 
L 85.684598 43.72752 
L 86.411185 41.976 
L 86.774479 42.42864 
L 87.137773 40.86408 
L 87.501066 40.47048 
L 88.590947 40.89852 
L 88.954241 42.9354 
L 89.317534 40.43604 
L 89.680828 39.31428 
L 90.044122 40.04244 
L 90.407415 41.43972 
L 90.770709 41.47416 
L 91.134003 41.02152 
L 91.497296 40.7952 
L 91.86059 39.75708 
L 92.223884 40.11132 
L 92.587177 39.87024 
L 92.950471 40.94772 
L 93.313764 40.97232 
L 94.040352 42.87144 
L 94.403645 42.17772 
L 94.766939 43.04364 
L 95.130233 43.34868 
L 95.493526 42.03504 
L 96.220113 41.8038 
L 96.583407 41.84316 
L 96.946701 42.37944 
L 97.309994 42.26628 
L 97.673288 42.468 
L 98.036582 42.42864 
L 98.399875 42.18264 
L 98.763169 42.1728 
L 99.126462 42.50244 
L 99.489756 41.88252 
L 99.85305 42.32532 
L 100.579637 41.13468 
L 101.306224 40.42128 
L 101.669518 39.16176 
L 102.032811 39.28968 
L 102.396105 40.48032 
L 103.485986 40.88376 
L 104.212573 40.53936 
L 104.575867 38.50248 
L 104.939161 37.63656 
L 105.302454 38.34012 
L 105.665748 38.37456 
L 106.029041 38.5812 
L 106.755629 39.8358 
L 107.118922 41.93172 
L 107.482216 41.42004 
L 108.208803 41.39052 
L 108.572097 41.5086 
L 108.93539 42.80256 
L 109.298684 41.93664 
L 109.661978 41.49384 
L 110.025271 41.51352 
L 110.388565 43.78164 
L 110.751859 43.9932 
L 111.115152 46.66968 
L 111.478446 47.55036 
L 111.841739 46.64508 
L 112.437146 48.89352 
L 112.800254 49.84308 
L 113.161992 49.00176 
L 113.53359 49.233 
L 113.893886 48.97716 
L 114.621793 49.36092 
L 115.346964 49.58724 
L 115.705889 49.28712 
L 116.050013 49.16904 
L 116.436609 49.39044 
L 116.754268 49.29696 
L 117.525472 49.55772 
L 118.61516 49.41996 
L 118.979547 49.8234 
L 119.31215 49.86768 
L 119.704826 49.72992 
L 120.066501 49.39536 
L 120.788118 49.6758 
L 121.159666 49.47408 
L 121.519209 49.60692 
L 121.883348 49.37568 
L 122.244606 49.36584 
L 122.608682 48.6672 
L 123.69913 49.54788 
L 124.063513 49.5282 
L 124.424473 49.09032 
L 125.152347 49.2084 
L 125.514938 48.93288 
L 126.247993 48.89844 
L 126.969248 48.1998 
L 127.335313 48.28344 
L 127.698707 48.88368 
L 128.058465 49.04604 
L 128.419631 49.00176 
L 129.152504 49.38552 
L 129.512434 49.04112 
L 129.902785 48.92796 
L 130.243441 48.987 
L 130.967013 49.66104 
L 132.426999 49.40028 
L 132.785508 49.56756 
L 133.5094 49.56264 
L 133.878164 49.53312 
L 134.242395 49.25268 
L 134.60333 49.29696 
L 134.967212 48.89352 
L 135.32924 48.96732 
L 136.053616 48.5934 
L 136.423427 48.84432 
L 136.788583 48.95748 
L 137.149564 48.30804 
L 137.51258 48.34248 
L 137.877446 48.21456 
L 138.24 48.26376 
L 138.24 48.26376 
" clip-path="url(#pff8145904e)" style="fill: none; stroke: #f5841e; stroke-width: 0.7; stroke-linecap: round"/>
   </g>
  </g>
 </g>
 <defs>
  <clipPath id="pff8145904e">
   <rect x="5.76" y="3.6" width="132.48" height="49.2"/>
  </clipPath>
 </defs>
</svg>
