<?xml version="1.0" encoding="utf-8" standalone="no"?>
<!DOCTYPE svg PUBLIC "-//W3C//DTD SVG 1.1//EN"
  "http://www.w3.org/Graphics/SVG/1.1/DTD/svg11.dtd">
<svg xmlns:xlink="http://www.w3.org/1999/xlink" width="144pt" height="60pt" viewBox="0 0 144 60" xmlns="http://www.w3.org/2000/svg" version="1.1">
  <desc id="nav-meta">{"window":"1y","count":4,"labels":["06.07","04.11","06.03","05.07"],"tick_utc":["2025-07-06T12:00:00Z","2025-11-04T12:00:00Z","2026-03-06T03:16:38Z","2026-07-05T04:44:59Z"]}</desc>

 <metadata>
  <rdf:RDF xmlns:dc="http://purl.org/dc/elements/1.1/" xmlns:cc="http://creativecommons.org/ns#" xmlns:rdf="http://www.w3.org/1999/02/22-rdf-syntax-ns#">
   <cc:Work>
    <dc:type rdf:resource="http://purl.org/dc/dcmitype/StillImage"/>
    <dc:date>2026-07-05T19:56:03.113778</dc:date>
    <dc:format>image/svg+xml</dc:format>
    <dc:creator>
     <cc:Agent>
      <dc:title>Matplotlib v3.11.0, https://matplotlib.org/</dc:title>
     </cc:Agent>
    </dc:creator>
   </cc:Work>
  </rdf:RDF>
 </metadata>
 <defs>
  <style type="text/css">*{stroke-linejoin: round; stroke-linecap: butt}</style>
 </defs>
 <g id="figure_1">
  <g id="patch_1">
   <path d="M 0 60 
L 144 60 
L 144 0 
L 0 0 
L 0 60 
z
" style="fill: none; opacity: 0"/>
  </g>
  <g id="axes_1">
   <g id="patch_2">
    <path d="M 5.76 52.8 
L 138.24 52.8 
L 138.24 3.6 
L 5.76 3.6 
L 5.76 52.8 
z
" style="fill: none"/>
   </g>
   <g id="matplotlib.axis_1"/>
   <g id="matplotlib.axis_2"/>
   <g id="line2d_1">
    <path d="M 5.76 42.96 
L 138.24 42.96 
" clip-path="url(#pf12692a1dd)" style="fill: none; stroke: #b2b2b2; stroke-opacity: 0.35; stroke-width: 0.5; stroke-linecap: square"/>
   </g>
   <g id="line2d_2">
    <path d="M 5.76 33.12 
L 138.24 33.12 
" clip-path="url(#pf12692a1dd)" style="fill: none; stroke: #b2b2b2; stroke-opacity: 0.35; stroke-width: 0.5; stroke-linecap: square"/>
   </g>
   <g id="line2d_3">
    <path d="M 5.76 23.28 
L 138.24 23.28 
" clip-path="url(#pf12692a1dd)" style="fill: none; stroke: #b2b2b2; stroke-opacity: 0.35; stroke-width: 0.5; stroke-linecap: square"/>
   </g>
   <g id="line2d_4">
    <path d="M 5.76 13.44 
L 138.24 13.44 
" clip-path="url(#pf12692a1dd)" style="fill: none; stroke: #b2b2b2; stroke-opacity: 0.35; stroke-width: 0.5; stroke-linecap: square"/>
   </g>
   <g id="line2d_5">
    <path d="M 5.76 42.3942 
L 6.124258 41.83332 
L 6.488517 42.24168 
L 6.852775 41.84316 
L 7.581292 40.2786 
L 7.94555 40.42128 
L 8.309808 40.71648 
L 9.038325 40.48032 
L 9.402584 40.26384 
L 9.766842 38.97972 
L 10.495359 38.51724 
L 10.859617 38.57628 
L 11.223875 38.04492 
L 11.588134 36.03264 
L 11.952392 34.88136 
L 12.31665 36.92316 
L 12.680909 37.8432 
L 13.045167 37.37088 
L 13.409425 37.53324 
L 13.773684 37.056 
L 14.137942 37.77924 
L 14.5022 38.02032 
L 14.866459 38.45328 
L 15.230717 39.1962 
L 15.594976 40.41636 
L 15.959234 40.97232 
L 16.323492 40.53444 
L 16.687751 39.55536 
L 17.052009 40.24908 
L 17.416267 39.7128 
L 17.780526 38.778 
L 18.144784 38.59104 
L 18.873301 37.794 
L 19.237559 38.82228 
L 19.601817 36.53448 
L 19.966076 35.334 
L 20.694592 37.44468 
L 21.058851 36.90348 
L 21.423109 36.65748 
L 22.151626 38.64516 
L 22.515884 37.2282 
L 22.880143 38.14332 
L 23.244401 35.53572 
L 23.608659 35.04372 
L 23.972918 34.80264 
L 24.337176 37.23804 
L 25.429951 33.67104 
L 25.794209 34.90596 
L 26.886984 35.9736 
L 27.251243 34.36476 
L 27.615501 34.1778 
L 27.97976 35.22084 
L 28.344018 35.11752 
L 28.708276 35.54556 
L 30.16531 32.44104 
L 30.529568 31.83096 
L 30.893826 30.06468 
L 31.258085 30.01056 
L 31.622343 30.291 
L 31.986601 31.16184 
L 32.35086 30.74856 
L 32.715118 29.71536 
L 33.079376 29.37588 
L 33.443635 30.57636 
L 33.807893 30.42876 
L 34.172152 30.79284 
L 34.53641 32.91828 
L 34.900668 33.72024 
L 35.264927 34.05972 
L 35.629185 36.5886 
L 35.993443 34.90104 
L 36.357702 35.10276 
L 36.72196 34.16796 
L 37.086218 33.8826 
L 37.450477 34.43364 
L 38.178993 31.05852 
L 38.543252 31.26024 
L 38.90751 31.92936 
L 39.271769 31.85064 
L 39.636027 31.3242 
L 40.000285 32.84448 
L 40.364544 31.78176 
L 40.728802 32.85924 
L 41.09306 36.8838 
L 41.457319 38.39424 
L 41.821577 35.95392 
L 42.185835 34.53696 
L 42.550094 35.20608 
L 43.27861 37.57752 
L 43.642869 37.90716 
L 44.007127 37.18884 
L 44.371385 37.18392 
L 44.735644 36.89364 
L 45.099902 37.42008 
L 45.464161 38.17284 
L 45.828419 36.687 
L 46.192677 36.42132 
L 46.556936 36.34752 
L 46.921194 35.56032 
L 47.285452 35.72268 
L 47.649711 36.29832 
L 48.013969 36.32292 
L 48.378227 37.61688 
L 48.742486 37.2282 
L 49.106744 37.34628 
L 49.471002 37.23804 
L 49.835261 40.008 
L 50.199519 41.36592 
L 50.563777 40.43604 
L 50.928036 41.44956 
L 51.292294 40.53444 
L 51.656553 41.02152 
L 52.020811 40.22448 
L 52.385069 39.79644 
L 52.749328 41.51844 
L 53.113586 41.66604 
L 53.842103 43.51596 
L 54.206361 43.43724 
L 54.570619 43.71276 
L 54.934878 44.59836 
L 55.299136 43.30932 
L 56.391911 44.88372 
L 56.756169 44.99688 
L 57.120428 44.57868 
L 57.484686 43.5996 
L 57.848945 43.51596 
L 58.213203 43.00428 
L 58.577461 43.2798 
L 58.94172 43.71768 
L 59.670236 44.0916 
L 60.034495 45.11004 
L 60.398753 43.55532 
L 60.763011 42.72876 
L 61.491528 44.27364 
L 62.220045 44.47536 
L 62.584303 44.25888 
L 62.948561 43.64388 
L 63.31282 43.84068 
L 63.677078 43.85052 
L 64.041337 44.36712 
L 64.405595 44.26872 
L 64.769853 44.74104 
L 65.134112 44.98704 
L 65.49837 44.84436 
L 65.862628 45.58728 
L 66.226887 46.0596 
L 66.591145 45.18384 
L 68.048178 45.47904 
L 68.412437 45.65616 
L 68.776695 45.98088 
L 69.505212 45.38556 
L 69.86947 45.31668 
L 70.233729 45.58728 
L 70.597987 45.35604 
L 70.962245 45.40032 
L 71.326504 45.11496 
L 71.690762 44.42124 
L 72.419279 44.18508 
L 73.147795 43.24044 
L 73.512054 43.8702 
L 73.876312 43.60944 
L 74.24057 43.92924 
L 74.604829 43.93416 
L 74.969087 43.46184 
L 75.333345 43.5012 
L 75.697604 42.72384 
L 76.061862 42.51228 
L 76.426121 43.08792 
L 76.790379 42.75828 
L 77.154637 42.90096 
L 77.883154 44.2392 
L 78.247412 45.23304 
L 78.611671 44.77548 
L 79.340187 45.04608 
L 79.704446 45.07068 
L 80.068704 46.1334 
L 80.432962 45.4446 
L 80.797221 45.06084 
L 81.161479 45.33144 
L 81.525737 46.30068 
L 81.889996 46.34496 
L 82.254254 47.89476 
L 82.618513 48.26376 
L 82.982771 47.96364 
L 83.943831 50.04972 
L 84.30653 49.24776 
L 85.770207 49.59708 
L 86.133155 49.80372 
L 86.497303 49.86768 
L 87.202219 49.24776 
L 87.589842 49.48392 
L 87.908345 49.37568 
L 88.317781 49.479 
L 88.681597 49.7004 
L 89.774178 49.49376 
L 90.139533 49.98576 
L 90.473019 49.96608 
L 90.866738 49.7004 
L 91.229373 49.27236 
L 91.59294 49.37076 
L 91.952907 49.68072 
L 92.325441 49.25268 
L 92.685939 49.51344 
L 93.778305 49.09032 
L 95.236999 49.58724 
L 95.598918 49.36092 
L 96.328725 49.45932 
L 96.692279 49.16904 
L 97.42728 49.27236 
L 97.792567 48.87384 
L 98.517487 48.70164 
L 98.881847 49.03128 
L 99.24256 49.1592 
L 99.604685 49.08048 
L 100.339504 49.36584 
L 101.091778 48.90828 
L 101.433338 49.05096 
L 102.158831 49.64628 
L 103.622695 49.59708 
L 103.982155 49.8726 
L 104.70797 49.80864 
L 105.804805 49.83816 
L 106.169653 49.50852 
L 106.532643 49.68564 
L 107.258942 49.48884 
L 107.995861 49.69056 
L 108.3578 49.40028 
L 108.72178 49.58724 
L 109.811372 49.19856 
L 110.180441 49.43472 
L 110.545602 49.50852 
L 112.36226 49.37568 
L 112.732185 49.4052 
L 113.100368 49.29204 
L 113.46539 49.5528 
L 113.828653 49.50852 
L 114.193523 49.64136 
L 114.916723 49.56264 
L 115.288376 49.57248 
L 115.652508 49.42488 
L 116.008744 49.49376 
L 116.743774 49.25268 
L 117.10197 49.24284 
L 117.46756 48.80004 
L 117.839159 48.85416 
L 118.565491 48.63276 
L 118.931483 48.66228 
L 119.295336 49.09524 
L 119.661391 48.99192 
L 120.390696 49.34616 
L 120.758491 49.47408 
L 121.485701 49.54788 
L 121.852034 49.3314 
L 122.213501 49.34616 
L 122.572755 49.51836 
L 123.311833 49.41504 
L 124.401665 49.7742 
L 125.496894 49.61676 
L 126.227215 49.7988 
L 126.958582 50.45808 
L 127.316841 50.59092 
L 127.6755 50.99928 
L 128.413456 50.74344 
L 128.770763 50.62536 
L 129.138798 50.80248 
L 130.599377 50.56632 
L 131.342081 50.23176 
L 131.694737 50.2416 
L 132.430088 50.55156 
L 133.526539 50.217 
L 134.598744 50.59092 
L 134.964871 50.59092 
L 135.324664 50.33016 
L 135.695866 50.4384 
L 136.06276 50.3892 
L 137.870408 49.6266 
L 138.24 49.7742 
L 138.24 49.7742 
" clip-path="url(#pf12692a1dd)" style="fill: none; stroke: #bebebe; stroke-width: 0.6; stroke-linecap: round"/>
   </g>
   <g id="line2d_6">
    <path d="M 5.76 40.51476 
L 6.124258 40.131 
L 6.488517 40.3278 
L 6.852775 39.81612 
L 7.581292 37.46436 
L 7.94555 37.39056 
L 8.309808 37.50372 
L 9.038325 37.01172 
L 9.402584 36.16056 
L 9.766842 34.4976 
L 10.1311 33.69072 
L 10.859617 32.89368 
L 11.223875 31.73256 
L 11.588134 31.68336 
L 11.952392 31.8162 
L 12.31665 32.64276 
L 12.680909 32.0868 
L 13.409425 31.85064 
L 13.773684 30.98964 
L 14.137942 31.53576 
L 14.5022 31.521 
L 14.866459 31.38816 
L 15.230717 32.17044 
L 15.594976 33.68088 
L 15.959234 34.28604 
L 16.323492 33.58248 
L 16.687751 32.0376 
L 17.052009 32.76576 
L 17.416267 32.259 
L 17.780526 30.65508 
L 18.144784 29.93676 
L 18.509042 28.14588 
L 19.237559 28.40664 
L 19.601817 25.73508 
L 19.966076 24.62316 
L 20.330334 26.10408 
L 20.694592 26.97984 
L 21.058851 27.00936 
L 21.423109 26.58132 
L 21.787368 27.7818 
L 22.151626 29.49888 
L 22.515884 27.68832 
L 22.880143 28.44108 
L 23.244401 24.16068 
L 23.608659 24.55428 
L 23.972918 24.51984 
L 24.337176 27.32916 
L 24.701434 25.7646 
L 25.065693 26.48784 
L 25.429951 26.43372 
L 25.794209 27.44724 
L 26.522726 27.27504 
L 26.886984 27.8802 
L 27.251243 27.72276 
L 27.615501 26.84208 
L 27.97976 27.91956 
L 28.344018 27.8556 
L 28.708276 28.09668 
L 29.072535 27.87528 
L 29.801051 27.83592 
L 30.16531 27.57024 
L 30.529568 26.77812 
L 30.893826 25.01184 
L 31.622343 25.71048 
L 31.986601 26.31564 
L 32.35086 26.45832 
L 32.715118 25.8384 
L 33.079376 25.84824 
L 33.443635 26.6994 
L 33.807893 26.62068 
L 34.172152 26.8224 
L 34.53641 28.61328 
L 35.264927 28.97244 
L 35.629185 30.99456 
L 35.993443 29.76456 
L 36.357702 29.8974 
L 36.72196 29.02164 
L 37.086218 28.50012 
L 37.450477 29.00688 
L 38.178993 26.601 
L 38.543252 26.3796 
L 38.90751 26.5764 
L 39.271769 26.3796 
L 39.636027 25.1496 
L 40.000285 26.81256 
L 40.364544 26.29596 
L 40.728802 27.41772 
L 41.09306 31.19136 
L 41.457319 31.80144 
L 41.821577 28.89864 
L 42.185835 28.28364 
L 43.27861 30.80268 
L 43.642869 31.22088 
L 44.007127 30.8076 
L 44.371385 30.13356 
L 44.735644 30.17784 
L 45.464161 31.42752 
L 45.828419 31.04376 
L 46.192677 30.49764 
L 46.556936 30.3648 
L 46.921194 28.88388 
L 47.285452 29.15448 
L 47.649711 30.15324 
L 48.378227 31.4226 
L 49.106744 30.9306 
L 49.471002 30.66 
L 50.199519 34.99944 
L 50.563777 34.07448 
L 50.928036 34.9158 
L 51.292294 34.02528 
L 51.656553 34.26144 
L 52.020811 33.0216 
L 52.385069 33.10524 
L 52.749328 34.1532 
L 53.113586 34.2024 
L 53.842103 36.34752 
L 54.206361 35.89488 
L 54.934878 36.94776 
L 55.299136 36.2688 
L 55.663394 36.97236 
L 56.027653 38.286 
L 56.391911 38.76324 
L 56.756169 38.73864 
L 57.120428 38.51724 
L 57.484686 37.42992 
L 57.848945 37.42008 
L 58.213203 36.90348 
L 58.577461 36.98712 
L 58.94172 36.86412 
L 59.305978 37.16424 
L 59.670236 37.14948 
L 60.034495 38.52216 
L 60.763011 35.71776 
L 61.12727 36.15564 
L 61.491528 36.93792 
L 62.220045 36.72636 
L 62.584303 36.21468 
L 62.948561 34.8174 
L 63.31282 34.7928 
L 63.677078 35.42748 
L 64.041337 36.49512 
L 64.405595 36.28356 
L 64.769853 36.6378 
L 65.134112 37.3512 
L 65.49837 37.3512 
L 65.862628 38.31552 
L 66.226887 38.32536 
L 66.591145 37.26264 
L 66.955403 37.26264 
L 67.319662 37.09044 
L 67.68392 37.06092 
L 68.048178 37.34628 
L 68.412437 37.48404 
L 68.776695 37.77924 
L 69.505212 37.45944 
L 70.233729 37.56276 
L 70.597987 37.31184 
L 70.962245 37.33644 
L 71.326504 37.09536 
L 71.690762 36.23928 
L 72.419279 36.11628 
L 73.147795 35.0142 
L 73.512054 35.93424 
L 73.876312 36.36228 
L 74.24057 36.50988 
L 74.604829 36.5148 
L 74.969087 36.25404 
L 75.333345 36.46068 
L 75.697604 34.83708 
L 76.061862 34.57632 
L 76.790379 35.00436 
L 77.154637 34.93056 
L 77.518896 35.088 
L 77.883154 35.78664 
L 78.247412 37.55292 
L 78.611671 37.26756 
L 78.975929 37.46436 
L 79.704446 37.45944 
L 80.068704 38.41392 
L 80.797221 36.95268 
L 81.161479 37.05108 
L 81.525737 38.37948 
L 81.889996 39.20604 
L 82.254254 41.03136 
L 82.618513 42.26628 
L 82.982771 41.73492 
L 83.290287 42.23676 
L 83.943831 44.89356 
L 84.30653 43.6242 
L 85.040367 43.53072 
L 85.406704 43.72752 
L 86.133155 44.436 
L 86.497303 44.49012 
L 86.857181 43.81608 
L 87.202219 43.7226 
L 87.589842 44.5344 
L 87.908345 44.19 
L 88.317781 44.21952 
L 89.043726 44.51472 
L 89.774178 44.3868 
L 90.139533 45.174 
L 90.473019 45.23796 
L 90.866738 44.81484 
L 91.229373 43.821 
L 91.59294 44.01288 
L 91.952907 44.66232 
L 92.325441 43.93908 
L 92.685939 44.39664 
L 93.051045 44.12112 
L 93.413262 44.33268 
L 93.778305 43.3044 
L 94.14239 43.6242 
L 94.503854 44.29824 
L 94.871649 44.53932 
L 95.236999 44.30808 
L 95.598918 43.8702 
L 95.963033 44.00304 
L 96.328725 43.97844 
L 96.692279 43.41756 
L 97.42728 43.48644 
L 98.150451 41.73984 
L 98.517487 41.7546 
L 99.24256 43.14204 
L 99.604685 43.083 
L 99.97439 43.35852 
L 100.339504 43.78164 
L 100.70039 43.21584 
L 101.091778 42.9354 
L 101.433338 43.10268 
L 102.158831 44.25396 
L 103.255312 43.74228 
L 103.622695 43.46676 
L 104.346831 43.79148 
L 105.077713 43.77672 
L 105.442911 43.2552 
L 105.804805 43.40772 
L 106.169653 42.49752 
L 106.532643 42.90588 
L 106.900253 42.8616 
L 107.258942 42.41388 
L 107.995861 42.79764 
L 108.3578 41.57256 
L 108.72178 41.86284 
L 109.087616 41.63652 
L 109.451132 41.85792 
L 109.811372 41.22324 
L 110.545602 42.1482 
L 110.908262 41.96616 
L 111.271391 41.59224 
L 112.002349 41.99076 
L 112.36226 41.91696 
L 112.732185 41.98584 
L 113.100368 41.41512 
L 113.46539 42.15312 
L 113.828653 41.96124 
L 114.193523 42.43848 
L 114.916723 42.02028 
L 115.288376 42.0252 
L 115.652508 41.40528 
L 116.379419 41.52336 
L 117.10197 42.1974 
L 117.46756 41.8776 
L 118.206292 41.8038 
L 118.565491 41.976 
L 118.931483 42.00552 
L 119.295336 42.3942 
L 119.661391 42.27612 
L 120.758491 43.31424 
L 121.12014 43.2306 
L 121.485701 43.39296 
L 121.852034 43.16172 
L 122.213501 43.24536 
L 122.572755 43.71768 
L 122.942781 43.33392 
L 124.03857 43.67832 
L 124.401665 44.32776 
L 124.766193 44.13588 
L 125.125198 44.16048 
L 125.496894 43.96368 
L 125.86654 44.2392 
L 126.227215 44.19984 
L 126.595571 45.16908 
L 127.316841 46.00548 
L 127.6755 47.57004 
L 128.413456 46.64016 
L 128.770763 46.34496 
L 129.138798 46.82712 
L 129.870882 46.51716 
L 130.232476 46.5516 
L 130.599377 46.46304 
L 131.694737 45.6414 
L 132.05725 46.09404 
L 132.430088 46.3302 
L 133.526539 46.035 
L 133.869022 46.14324 
L 134.964871 47.38308 
L 135.324664 47.14692 
L 136.06276 47.22072 
L 137.147423 46.79268 
L 137.870408 45.92184 
L 138.24 45.80376 
L 138.24 45.80376 
" clip-path="url(#pf12692a1dd)" style="fill: none; stroke: #4a8dff; stroke-width: 0.6; stroke-linecap: round"/>
   </g>
   <g id="line2d_7">
    <path d="M 5.76 32.10156 
L 6.124258 31.60956 
L 6.488517 32.0622 
L 6.852775 31.73748 
L 7.217033 30.56652 
L 7.581292 28.31808 
L 7.94555 27.48168 
L 8.309808 27.55548 
L 8.674067 26.71908 
L 9.038325 26.36484 
L 9.402584 27.42756 
L 10.1311 26.55672 
L 10.495359 27.27504 
L 10.859617 27.31932 
L 11.223875 27.63912 
L 11.588134 27.52596 
L 11.952392 26.3058 
L 12.31665 26.96016 
L 12.680909 27.09792 
L 13.045167 27.49644 
L 13.409425 27.2898 
L 13.773684 26.57148 
L 14.137942 27.27012 
L 14.866459 27.35376 
L 15.594976 29.62188 
L 15.959234 29.96136 
L 16.323492 29.14956 
L 16.687751 28.68216 
L 17.052009 29.184 
L 17.416267 28.7412 
L 17.780526 27.5358 
L 18.144784 27.91956 
L 18.509042 28.00812 
L 18.873301 26.64528 
L 19.237559 26.88636 
L 19.601817 26.1828 
L 19.966076 24.52476 
L 20.330334 27.0684 
L 20.694592 27.59484 
L 21.423109 27.49644 
L 21.787368 28.13112 
L 22.151626 29.8482 
L 22.515884 29.12004 
L 22.880143 30.03024 
L 23.244401 27.84576 
L 23.972918 29.54316 
L 24.337176 31.13232 
L 24.701434 30.31068 
L 25.065693 30.62064 
L 25.429951 29.97612 
L 25.794209 31.97364 
L 26.158468 31.82112 
L 26.522726 32.0868 
L 26.886984 31.63416 
L 27.251243 30.6354 
L 27.615501 30.37464 
L 27.97976 30.86172 
L 28.344018 30.89616 
L 28.708276 31.11756 
L 29.436793 30.22212 
L 29.801051 30.45828 
L 30.16531 29.2578 
L 30.529568 28.50504 
L 30.893826 28.18032 
L 31.258085 28.2738 
L 31.622343 28.569 
L 31.986601 28.55424 
L 32.35086 27.8802 
L 32.715118 28.03272 
L 33.079376 27.69324 
L 33.443635 28.42632 
L 33.807893 28.3968 
L 34.172152 28.60344 
L 34.53641 29.88756 
L 34.900668 30.22212 
L 35.264927 29.58252 
L 35.629185 31.73256 
L 35.993443 31.36356 
L 36.357702 31.39308 
L 37.086218 29.09544 
L 37.450477 29.2332 
L 37.814735 27.02412 
L 38.543252 25.16928 
L 38.90751 25.10532 
L 39.636027 23.92452 
L 40.000285 25.53336 
L 40.364544 24.62808 
L 40.728802 25.4448 
L 41.09306 29.64156 
L 41.457319 30.80268 
L 41.821577 28.65756 
L 42.185835 28.6428 
L 42.914352 30.87156 
L 43.27861 32.17044 
L 43.642869 32.97732 
L 44.007127 32.628 
L 44.371385 31.90476 
L 44.735644 30.92076 
L 45.099902 31.96872 
L 45.464161 32.39676 
L 45.828419 31.19628 
L 46.556936 30.42384 
L 46.921194 29.0118 
L 47.285452 29.15448 
L 47.649711 29.76456 
L 48.013969 31.2012 
L 48.378227 32.09172 
L 48.742486 31.43244 
L 49.471002 30.90108 
L 50.199519 35.35368 
L 50.563777 34.24668 
L 50.928036 35.5062 
L 51.292294 34.48284 
L 51.656553 35.02896 
L 52.020811 33.8334 
L 52.385069 33.243 
L 52.749328 34.69932 
L 53.477844 36.2934 
L 53.842103 38.901 
L 54.206361 38.37948 
L 54.570619 38.92068 
L 54.934878 40.09164 
L 55.299136 39.70788 
L 55.663394 40.4262 
L 56.027653 42.75336 
L 56.391911 43.54548 
L 56.756169 43.72752 
L 57.484686 41.976 
L 57.848945 42.42864 
L 58.213203 40.86408 
L 58.577461 40.47048 
L 59.670236 40.89852 
L 60.034495 42.9354 
L 60.398753 40.43604 
L 60.763011 39.31428 
L 61.12727 40.04244 
L 61.491528 41.43972 
L 61.855786 41.47416 
L 62.220045 41.02152 
L 62.584303 40.7952 
L 62.948561 39.75708 
L 63.31282 40.11132 
L 63.677078 39.87024 
L 64.041337 40.94772 
L 64.405595 40.97232 
L 65.134112 42.87144 
L 65.49837 42.17772 
L 65.862628 43.04364 
L 66.226887 43.34868 
L 66.591145 42.03504 
L 67.319662 41.8038 
L 67.68392 41.84316 
L 68.048178 42.37944 
L 68.412437 42.26628 
L 68.776695 42.468 
L 69.140953 42.42864 
L 69.505212 42.18264 
L 69.86947 42.1728 
L 70.233729 42.50244 
L 70.597987 41.88252 
L 70.962245 42.32532 
L 71.690762 41.13468 
L 72.419279 40.42128 
L 72.783537 39.16176 
L 73.147795 39.28968 
L 73.512054 40.48032 
L 74.604829 40.88376 
L 75.333345 40.53936 
L 75.697604 38.50248 
L 76.061862 37.63656 
L 76.426121 38.34012 
L 76.790379 38.37456 
L 77.154637 38.5812 
L 77.883154 39.8358 
L 78.247412 41.93172 
L 78.611671 41.42004 
L 79.340187 41.39052 
L 79.704446 41.5086 
L 80.068704 42.80256 
L 80.432962 41.93664 
L 80.797221 41.49384 
L 81.161479 41.51352 
L 81.525737 43.78164 
L 81.889996 43.9932 
L 82.254254 46.66968 
L 82.618513 47.55036 
L 82.982771 46.64508 
L 83.579758 48.89352 
L 83.943831 49.84308 
L 84.30653 49.00176 
L 84.679114 49.233 
L 85.040367 48.97716 
L 85.770207 49.36092 
L 86.497303 49.58724 
L 86.857181 49.28712 
L 87.202219 49.16904 
L 87.589842 49.39044 
L 87.908345 49.29696 
L 88.681597 49.55772 
L 89.774178 49.41996 
L 90.139533 49.8234 
L 90.473019 49.86768 
L 90.866738 49.72992 
L 91.229373 49.39536 
L 91.952907 49.6758 
L 92.325441 49.47408 
L 92.685939 49.60692 
L 93.051045 49.37568 
L 93.413262 49.36584 
L 93.778305 48.6672 
L 94.871649 49.54788 
L 95.236999 49.5282 
L 95.598918 49.09032 
L 96.328725 49.2084 
L 96.692279 48.93288 
L 97.42728 48.89844 
L 98.150451 48.1998 
L 98.517487 48.28344 
L 98.881847 48.88368 
L 99.24256 49.04604 
L 99.604685 49.00176 
L 100.339504 49.38552 
L 100.70039 49.04112 
L 101.091778 48.92796 
L 101.433338 48.987 
L 102.158831 49.66104 
L 103.622695 49.40028 
L 103.982155 49.56756 
L 104.70797 49.56264 
L 105.077713 49.53312 
L 105.442911 49.25268 
L 105.804805 49.29696 
L 106.169653 48.89352 
L 106.532643 48.96732 
L 107.258942 48.5934 
L 107.629735 48.84432 
L 107.995861 48.95748 
L 108.3578 48.30804 
L 108.72178 48.34248 
L 109.087616 48.21456 
L 109.451132 48.26376 
L 109.811372 47.41752 
L 110.180441 48.05712 
L 110.545602 48.26376 
L 110.908262 48.01776 
L 111.271391 47.23548 
L 112.36226 47.1666 
L 112.732185 47.31912 
L 113.100368 46.49256 
L 113.46539 47.64876 
L 113.828653 47.5356 
L 114.193523 48.0276 
L 114.916723 46.81728 
L 115.288376 46.92552 
L 115.652508 45.85788 
L 116.379419 45.29208 
L 116.743774 45.58728 
L 117.10197 46.2564 
L 117.46756 45.7152 
L 118.931483 45.42492 
L 119.295336 46.38432 
L 119.661391 45.57744 
L 120.020999 46.51716 
L 120.758491 47.54544 
L 121.485701 47.66844 
L 121.852034 47.05344 
L 122.213501 47.22564 
L 122.572755 48.07188 
L 123.311833 47.37324 
L 124.03857 48.07188 
L 124.401665 48.59832 
L 124.766193 48.52452 
L 125.125198 48.5688 
L 125.496894 48.38676 
L 125.86654 48.55404 
L 126.958582 49.93656 
L 127.316841 49.98084 
L 127.6755 50.3646 
L 128.413456 50.07432 
L 128.770763 49.99068 
L 129.138798 50.217 
L 129.870882 49.98084 
L 130.599377 49.87752 
L 130.975744 49.69548 
L 131.694737 49.7004 
L 132.430088 50.06448 
L 133.151619 49.89228 
L 133.869022 49.9464 
L 135.324664 50.31048 
L 136.789543 50.41872 
L 137.870408 50.0694 
L 138.24 50.03988 
L 138.24 50.03988 
" clip-path="url(#pf12692a1dd)" style="fill: none; stroke: #f5841e; stroke-width: 0.7; stroke-linecap: round"/>
   </g>
  </g>
 </g>
 <defs>
  <clipPath id="pf12692a1dd">
   <rect x="5.76" y="3.6" width="132.48" height="49.2"/>
  </clipPath>
 </defs>
</svg>
