<?xml version="1.0" encoding="utf-8" standalone="no"?>
<!DOCTYPE svg PUBLIC "-//W3C//DTD SVG 1.1//EN"
  "http://www.w3.org/Graphics/SVG/1.1/DTD/svg11.dtd">
<svg xmlns:xlink="http://www.w3.org/1999/xlink" width="144pt" height="60pt" viewBox="0 0 144 60" xmlns="http://www.w3.org/2000/svg" version="1.1">
  <desc id="nav-meta">{"window":"1m","count":4,"labels":["06.01","16.01","25.01","04.02"],"tick_utc":["2026-01-06T12:00:00Z","2026-01-16T12:00:00Z","2026-01-25T12:00:00Z","2026-02-04T08:15:41Z"]}</desc>

 <metadata>
  <rdf:RDF xmlns:dc="http://purl.org/dc/elements/1.1/" xmlns:cc="http://creativecommons.org/ns#" xmlns:rdf="http://www.w3.org/1999/02/22-rdf-syntax-ns#">
   <cc:Work>
    <dc:type rdf:resource="http://purl.org/dc/dcmitype/StillImage"/>
    <dc:date>2026-02-04T19:27:31.437485</dc:date>
    <dc:format>image/svg+xml</dc:format>
    <dc:creator>
     <cc:Agent>
      <dc:title>Matplotlib v3.10.8, https://matplotlib.org/</dc:title>
     </cc:Agent>
    </dc:creator>
   </cc:Work>
  </rdf:RDF>
 </metadata>
 <defs>
  <style type="text/css">*{stroke-linejoin: round; stroke-linecap: butt}</style>
 </defs>
 <g id="figure_1">
  <g id="patch_1">
   <path d="M 0 60 
L 144 60 
L 144 0 
L 0 0 
L 0 60 
z
" style="fill: none; opacity: 0"/>
  </g>
  <g id="axes_1">
   <g id="patch_2">
    <path d="M 5.76 52.8 
L 138.24 52.8 
L 138.24 3.6 
L 5.76 3.6 
L 5.76 52.8 
z
" style="fill: none"/>
   </g>
   <g id="matplotlib.axis_1"/>
   <g id="matplotlib.axis_2"/>
   <g id="line2d_1">
    <path d="M 5.76 42.96 
L 138.24 42.96 
" clip-path="url(#p52a4deff64)" style="fill: none; stroke: #b2b2b2; stroke-opacity: 0.35; stroke-width: 0.5; stroke-linecap: square"/>
   </g>
   <g id="line2d_2">
    <path d="M 5.76 33.12 
L 138.24 33.12 
" clip-path="url(#p52a4deff64)" style="fill: none; stroke: #b2b2b2; stroke-opacity: 0.35; stroke-width: 0.5; stroke-linecap: square"/>
   </g>
   <g id="line2d_3">
    <path d="M 5.76 23.28 
L 138.24 23.28 
" clip-path="url(#p52a4deff64)" style="fill: none; stroke: #b2b2b2; stroke-opacity: 0.35; stroke-width: 0.5; stroke-linecap: square"/>
   </g>
   <g id="line2d_4">
    <path d="M 5.76 13.44 
L 138.24 13.44 
" clip-path="url(#p52a4deff64)" style="fill: none; stroke: #b2b2b2; stroke-opacity: 0.35; stroke-width: 0.5; stroke-linecap: square"/>
   </g>
   <g id="line2d_5">
    <path d="M 5.76 43.62912 
L 10.352947 43.24044 
L 14.945894 43.8702 
L 19.538842 43.60944 
L 24.131789 43.92924 
L 28.724736 43.93416 
L 33.317683 43.46184 
L 37.91063 43.5012 
L 42.503578 42.72384 
L 47.096525 42.51228 
L 51.689472 43.08792 
L 56.282419 42.75828 
L 60.875366 42.90096 
L 65.468313 43.57008 
L 70.061261 44.2392 
L 74.654208 45.23304 
L 79.247155 44.77548 
L 83.840102 44.91816 
L 88.433049 45.04608 
L 93.025997 45.07068 
L 97.618944 46.1334 
L 102.211891 45.4446 
L 106.804838 45.06084 
L 111.397785 45.33144 
L 115.990733 46.30068 
L 120.58368 46.34496 
L 125.176627 47.89476 
L 129.769574 48.26376 
L 134.362521 47.96364 
L 138.24 48.55896 
" clip-path="url(#p52a4deff64)" style="fill: none; stroke: #bebebe; stroke-width: 0.6; stroke-linecap: round"/>
   </g>
   <g id="line2d_6">
    <path d="M 5.76 35.48652 
L 10.352947 35.0142 
L 14.945894 35.93424 
L 19.538842 36.36228 
L 24.131789 36.50988 
L 28.724736 36.5148 
L 33.317683 36.25404 
L 37.91063 36.46068 
L 42.503578 34.83708 
L 47.096525 34.57632 
L 51.689472 34.84692 
L 56.282419 35.00436 
L 60.875366 34.93056 
L 65.468313 35.088 
L 70.061261 35.78664 
L 74.654208 37.55292 
L 79.247155 37.26756 
L 83.840102 37.46436 
L 88.433049 37.44468 
L 93.025997 37.45944 
L 97.618944 38.41392 
L 102.211891 37.61196 
L 106.804838 36.95268 
L 111.397785 37.05108 
L 115.990733 38.37948 
L 120.58368 39.20604 
L 125.176627 41.03136 
L 129.769574 42.26628 
L 134.362521 41.73492 
L 138.24 42.23676 
" clip-path="url(#p52a4deff64)" style="fill: none; stroke: #4a8dff; stroke-width: 0.7; stroke-linecap: round"/>
   </g>
   <g id="line2d_7">
    <path d="M 5.76 39.16176 
L 10.352947 39.28968 
L 14.945894 40.48032 
L 19.538842 40.61316 
L 24.131789 40.84932 
L 28.724736 40.88376 
L 33.317683 40.6968 
L 37.91063 40.53936 
L 42.503578 38.50248 
L 47.096525 37.63656 
L 51.689472 38.34012 
L 56.282419 38.37456 
L 60.875366 38.5812 
L 65.468313 39.2454 
L 70.061261 39.8358 
L 74.654208 41.93172 
L 79.247155 41.42004 
L 83.840102 41.37576 
L 88.433049 41.39052 
L 93.025997 41.5086 
L 97.618944 42.80256 
L 102.211891 41.93664 
L 106.804838 41.49384 
L 111.397785 41.51352 
L 115.990733 43.78164 
L 120.58368 43.9932 
L 125.176627 46.66968 
L 129.769574 47.55036 
L 134.362521 46.64508 
L 138.24 47.89476 
" clip-path="url(#p52a4deff64)" style="fill: none; stroke: #f5841e; stroke-width: 0.8; stroke-linecap: round"/>
   </g>
  </g>
 </g>
 <defs>
  <clipPath id="p52a4deff64">
   <rect x="5.76" y="3.6" width="132.48" height="49.2"/>
  </clipPath>
 </defs>
</svg>
