<?xml version="1.0" encoding="utf-8" standalone="no"?>
<!DOCTYPE svg PUBLIC "-//W3C//DTD SVG 1.1//EN"
  "http://www.w3.org/Graphics/SVG/1.1/DTD/svg11.dtd">
<svg xmlns:xlink="http://www.w3.org/1999/xlink" width="144pt" height="60pt" viewBox="0 0 144 60" xmlns="http://www.w3.org/2000/svg" version="1.1">
  <desc id="nav-meta">{"window":"3m","count":4,"labels":["09.03","08.04","07.05","06.06"],"tick_utc":["2026-03-09T03:23:53Z","2026-04-08T03:43:16Z","2026-05-07T04:25:17Z","2026-06-06T04:41:00Z"]}</desc>

 <metadata>
  <rdf:RDF xmlns:dc="http://purl.org/dc/elements/1.1/" xmlns:cc="http://creativecommons.org/ns#" xmlns:rdf="http://www.w3.org/1999/02/22-rdf-syntax-ns#">
   <cc:Work>
    <dc:type rdf:resource="http://purl.org/dc/dcmitype/StillImage"/>
    <dc:date>2026-06-06T09:11:46.469529</dc:date>
    <dc:format>image/svg+xml</dc:format>
    <dc:creator>
     <cc:Agent>
      <dc:title>Matplotlib v3.10.9, https://matplotlib.org/</dc:title>
     </cc:Agent>
    </dc:creator>
   </cc:Work>
  </rdf:RDF>
 </metadata>
 <defs>
  <style type="text/css">*{stroke-linejoin: round; stroke-linecap: butt}</style>
 </defs>
 <g id="figure_1">
  <g id="patch_1">
   <path d="M 0 60 
L 144 60 
L 144 0 
L 0 0 
L 0 60 
z
" style="fill: none; opacity: 0"/>
  </g>
  <g id="axes_1">
   <g id="patch_2">
    <path d="M 5.76 52.8 
L 138.24 52.8 
L 138.24 3.6 
L 5.76 3.6 
L 5.76 52.8 
z
" style="fill: none"/>
   </g>
   <g id="matplotlib.axis_1"/>
   <g id="matplotlib.axis_2"/>
   <g id="line2d_1">
    <path d="M 5.76 42.96 
L 138.24 42.96 
" clip-path="url(#pdfc1a0f327)" style="fill: none; stroke: #b2b2b2; stroke-opacity: 0.35; stroke-width: 0.5; stroke-linecap: square"/>
   </g>
   <g id="line2d_2">
    <path d="M 5.76 33.12 
L 138.24 33.12 
" clip-path="url(#pdfc1a0f327)" style="fill: none; stroke: #b2b2b2; stroke-opacity: 0.35; stroke-width: 0.5; stroke-linecap: square"/>
   </g>
   <g id="line2d_3">
    <path d="M 5.76 23.28 
L 138.24 23.28 
" clip-path="url(#pdfc1a0f327)" style="fill: none; stroke: #b2b2b2; stroke-opacity: 0.35; stroke-width: 0.5; stroke-linecap: square"/>
   </g>
   <g id="line2d_4">
    <path d="M 5.76 13.44 
L 138.24 13.44 
" clip-path="url(#pdfc1a0f327)" style="fill: none; stroke: #b2b2b2; stroke-opacity: 0.35; stroke-width: 0.5; stroke-linecap: square"/>
   </g>
   <g id="line2d_5">
    <path d="M 5.76 49.58724 
L 7.238088 49.36092 
L 8.725147 49.41996 
L 10.218645 49.45932 
L 11.703414 49.16904 
L 13.189078 49.22808 
L 14.705184 49.27236 
L 16.197029 48.87384 
L 17.65864 48.74592 
L 19.15763 48.70164 
L 20.645688 49.03128 
L 22.118852 49.1592 
L 23.597783 49.08048 
L 25.107673 49.21332 
L 26.598813 49.36584 
L 28.072683 49.11 
L 29.671125 48.90828 
L 31.066067 49.05096 
L 32.555588 49.37076 
L 34.02901 49.64628 
L 35.53692 49.6266 
L 37.028817 49.602 
L 38.507077 49.59708 
L 40.00748 49.59708 
L 41.47553 49.8726 
L 42.964879 49.88244 
L 44.439782 49.80864 
L 45.949827 49.78896 
L 47.44131 49.69056 
L 48.919295 49.83816 
L 50.40935 49.50852 
L 51.891812 49.68564 
L 53.393144 49.6266 
L 54.858043 49.48884 
L 56.372375 49.6512 
L 57.867647 49.69056 
L 59.345821 49.40028 
L 60.832329 49.58724 
L 62.326413 49.45932 
L 63.811027 49.27728 
L 65.282262 49.19856 
L 66.789552 49.43472 
L 68.280881 49.50852 
L 69.761999 49.46424 
L 71.245029 49.31664 
L 72.7387 49.4298 
L 74.230287 49.42488 
L 75.700179 49.37568 
L 77.210964 49.4052 
L 78.714639 49.29204 
L 80.205399 49.5528 
L 81.68898 49.50852 
L 83.179121 49.64136 
L 84.683019 49.56756 
L 86.132697 49.56264 
L 87.650542 49.57248 
L 89.13767 49.42488 
L 90.592548 49.49376 
L 92.106398 49.32156 
L 93.594438 49.25268 
L 95.057323 49.24284 
L 96.550408 48.80004 
L 98.068029 48.85416 
L 99.567415 48.72132 
L 101.034398 48.63276 
L 102.529119 48.66228 
L 104.01511 49.09524 
L 105.510089 48.99192 
L 106.978742 49.19364 
L 108.488597 49.34616 
L 109.990687 49.47408 
L 111.467674 49.47408 
L 112.960638 49.54788 
L 114.456754 49.3314 
L 115.932999 49.34616 
L 117.400206 49.51836 
L 118.911404 49.41996 
L 120.418625 49.41504 
L 121.883731 49.5282 
L 123.386648 49.5774 
L 124.86954 49.7742 
L 126.358286 49.7004 
L 127.824476 49.69548 
L 129.342493 49.61676 
L 130.852142 49.71024 
L 132.325151 49.7988 
L 133.829531 50.19732 
L 135.312079 50.45808 
L 136.775221 50.59092 
L 138.24 50.99928 
" clip-path="url(#pdfc1a0f327)" style="fill: none; stroke: #bebebe; stroke-width: 0.6; stroke-linecap: round"/>
   </g>
   <g id="line2d_6">
    <path d="M 5.76 44.30808 
L 7.238088 43.8702 
L 8.725147 44.00304 
L 10.218645 43.97844 
L 11.703414 43.41756 
L 13.189078 43.48152 
L 14.705184 43.48644 
L 16.197029 42.49752 
L 17.65864 41.73984 
L 19.15763 41.7546 
L 20.645688 42.591 
L 22.118852 43.14204 
L 23.597783 43.083 
L 25.107673 43.35852 
L 26.598813 43.78164 
L 28.072683 43.21584 
L 29.671125 42.9354 
L 31.066067 43.10268 
L 32.555588 43.72752 
L 34.02901 44.25396 
L 35.53692 44.10636 
L 37.028817 43.9194 
L 38.507077 43.74228 
L 40.00748 43.46676 
L 41.47553 43.65372 
L 42.964879 43.79148 
L 44.439782 43.81116 
L 45.949827 43.77672 
L 47.44131 43.2552 
L 48.919295 43.40772 
L 50.40935 42.49752 
L 51.891812 42.90588 
L 53.393144 42.8616 
L 54.858043 42.41388 
L 56.372375 42.63036 
L 57.867647 42.79764 
L 59.345821 41.57256 
L 60.832329 41.86284 
L 62.326413 41.63652 
L 63.811027 41.85792 
L 65.282262 41.22324 
L 66.789552 41.76936 
L 68.280881 42.1482 
L 69.761999 41.96616 
L 71.245029 41.59224 
L 72.7387 41.76936 
L 74.230287 41.99076 
L 75.700179 41.91696 
L 77.210964 41.98584 
L 78.714639 41.41512 
L 80.205399 42.15312 
L 81.68898 41.96124 
L 83.179121 42.43848 
L 84.683019 42.20232 
L 86.132697 42.02028 
L 87.650542 42.0252 
L 89.13767 41.40528 
L 90.592548 41.46432 
L 92.106398 41.52336 
L 93.594438 41.86776 
L 95.057323 42.1974 
L 96.550408 41.8776 
L 98.068029 41.84316 
L 99.567415 41.8038 
L 101.034398 41.976 
L 102.529119 42.00552 
L 104.01511 42.3942 
L 105.510089 42.27612 
L 106.978742 42.57624 
L 108.488597 42.85176 
L 109.990687 43.31424 
L 111.467674 43.2306 
L 112.960638 43.39296 
L 114.456754 43.16172 
L 115.932999 43.24536 
L 117.400206 43.71768 
L 118.911404 43.33392 
L 120.418625 43.42248 
L 121.883731 43.51596 
L 123.386648 43.67832 
L 124.86954 44.32776 
L 126.358286 44.13588 
L 127.824476 44.16048 
L 129.342493 43.96368 
L 130.852142 44.2392 
L 132.325151 44.19984 
L 133.829531 45.16908 
L 135.312079 45.67584 
L 136.775221 46.00548 
L 138.24 47.57004 
" clip-path="url(#pdfc1a0f327)" style="fill: none; stroke: #4a8dff; stroke-width: 0.6; stroke-linecap: round"/>
   </g>
   <g id="line2d_7">
    <path d="M 5.76 49.5282 
L 7.238088 49.09032 
L 8.725147 49.16412 
L 10.218645 49.2084 
L 11.703414 48.93288 
L 13.189078 48.95748 
L 14.705184 48.89844 
L 16.197029 48.48024 
L 17.65864 48.1998 
L 19.15763 48.28344 
L 20.645688 48.88368 
L 22.118852 49.04604 
L 23.597783 49.00176 
L 25.107673 49.20348 
L 26.598813 49.38552 
L 28.072683 49.04112 
L 29.671125 48.92796 
L 31.066067 48.987 
L 32.555588 49.29204 
L 34.02901 49.66104 
L 35.53692 49.56756 
L 37.028817 49.53312 
L 38.507077 49.46424 
L 40.00748 49.40028 
L 41.47553 49.56756 
L 42.964879 49.59708 
L 44.439782 49.56264 
L 45.949827 49.53312 
L 47.44131 49.25268 
L 48.919295 49.29696 
L 50.40935 48.89352 
L 51.891812 48.96732 
L 53.393144 48.8148 
L 54.858043 48.5934 
L 56.372375 48.84432 
L 57.867647 48.95748 
L 59.345821 48.30804 
L 60.832329 48.34248 
L 62.326413 48.21456 
L 63.811027 48.26376 
L 65.282262 47.41752 
L 66.789552 48.05712 
L 68.280881 48.26376 
L 69.761999 48.01776 
L 71.245029 47.23548 
L 72.7387 47.17644 
L 74.230287 47.15676 
L 75.700179 47.1666 
L 77.210964 47.31912 
L 78.714639 46.49256 
L 80.205399 47.64876 
L 81.68898 47.5356 
L 83.179121 48.0276 
L 84.683019 47.50608 
L 86.132697 46.81728 
L 87.650542 46.92552 
L 89.13767 45.85788 
L 90.592548 45.60204 
L 92.106398 45.29208 
L 93.594438 45.58728 
L 95.057323 46.2564 
L 96.550408 45.7152 
L 98.068029 45.63648 
L 99.567415 45.6414 
L 101.034398 45.45936 
L 102.529119 45.42492 
L 104.01511 46.38432 
L 105.510089 45.57744 
L 106.978742 46.51716 
L 108.488597 46.95996 
L 109.990687 47.54544 
L 111.467674 47.59464 
L 112.960638 47.66844 
L 114.456754 47.05344 
L 115.932999 47.22564 
L 117.400206 48.07188 
L 118.911404 47.6832 
L 120.418625 47.37324 
L 121.883731 47.66844 
L 123.386648 48.07188 
L 124.86954 48.59832 
L 126.358286 48.52452 
L 127.824476 48.5688 
L 129.342493 48.38676 
L 130.852142 48.55404 
L 132.325151 49.0116 
L 133.829531 49.57248 
L 135.312079 49.93656 
L 136.775221 49.98084 
L 138.24 50.3646 
" clip-path="url(#pdfc1a0f327)" style="fill: none; stroke: #f5841e; stroke-width: 0.7; stroke-linecap: round"/>
   </g>
  </g>
 </g>
 <defs>
  <clipPath id="pdfc1a0f327">
   <rect x="5.76" y="3.6" width="132.48" height="49.2"/>
  </clipPath>
 </defs>
</svg>
