<?xml version="1.0" encoding="utf-8" standalone="no"?>
<!DOCTYPE svg PUBLIC "-//W3C//DTD SVG 1.1//EN"
  "http://www.w3.org/Graphics/SVG/1.1/DTD/svg11.dtd">
<svg xmlns:xlink="http://www.w3.org/1999/xlink" width="144pt" height="60pt" viewBox="0 0 144 60" xmlns="http://www.w3.org/2000/svg" version="1.1">
  <desc id="nav-meta">{"window":"6m","count":4,"labels":["08.11","07.01","08.03","07.05"],"tick_utc":["2025-11-08T12:00:00Z","2026-01-07T12:00:00Z","2026-03-08T03:19:34Z","2026-05-07T04:25:17Z"]}</desc>

 <metadata>
  <rdf:RDF xmlns:dc="http://purl.org/dc/elements/1.1/" xmlns:cc="http://creativecommons.org/ns#" xmlns:rdf="http://www.w3.org/1999/02/22-rdf-syntax-ns#">
   <cc:Work>
    <dc:type rdf:resource="http://purl.org/dc/dcmitype/StillImage"/>
    <dc:date>2026-05-07T09:15:22.406987</dc:date>
    <dc:format>image/svg+xml</dc:format>
    <dc:creator>
     <cc:Agent>
      <dc:title>Matplotlib v3.10.9, https://matplotlib.org/</dc:title>
     </cc:Agent>
    </dc:creator>
   </cc:Work>
  </rdf:RDF>
 </metadata>
 <defs>
  <style type="text/css">*{stroke-linejoin: round; stroke-linecap: butt}</style>
 </defs>
 <g id="figure_1">
  <g id="patch_1">
   <path d="M 0 60 
L 144 60 
L 144 0 
L 0 0 
L 0 60 
z
" style="fill: none; opacity: 0"/>
  </g>
  <g id="axes_1">
   <g id="patch_2">
    <path d="M 5.76 52.8 
L 138.24 52.8 
L 138.24 3.6 
L 5.76 3.6 
L 5.76 52.8 
z
" style="fill: none"/>
   </g>
   <g id="matplotlib.axis_1"/>
   <g id="matplotlib.axis_2"/>
   <g id="line2d_1">
    <path d="M 5.76 42.96 
L 138.24 42.96 
" clip-path="url(#p34dd3a0dd7)" style="fill: none; stroke: #b2b2b2; stroke-opacity: 0.35; stroke-width: 0.5; stroke-linecap: square"/>
   </g>
   <g id="line2d_2">
    <path d="M 5.76 33.12 
L 138.24 33.12 
" clip-path="url(#p34dd3a0dd7)" style="fill: none; stroke: #b2b2b2; stroke-opacity: 0.35; stroke-width: 0.5; stroke-linecap: square"/>
   </g>
   <g id="line2d_3">
    <path d="M 5.76 23.28 
L 138.24 23.28 
" clip-path="url(#p34dd3a0dd7)" style="fill: none; stroke: #b2b2b2; stroke-opacity: 0.35; stroke-width: 0.5; stroke-linecap: square"/>
   </g>
   <g id="line2d_4">
    <path d="M 5.76 13.44 
L 138.24 13.44 
" clip-path="url(#p34dd3a0dd7)" style="fill: none; stroke: #b2b2b2; stroke-opacity: 0.35; stroke-width: 0.5; stroke-linecap: square"/>
   </g>
   <g id="line2d_5">
    <path d="M 5.76 40.53444 
L 6.497293 41.02152 
L 7.234587 40.22448 
L 7.97188 39.79644 
L 8.709174 41.51844 
L 9.446467 41.66604 
L 10.183761 42.714 
L 10.921054 43.51596 
L 11.658348 43.43724 
L 12.395641 43.71276 
L 13.132934 44.59836 
L 13.870228 43.30932 
L 14.607521 43.85052 
L 15.344815 44.21952 
L 16.082108 44.88372 
L 16.819402 44.99688 
L 17.556695 44.57868 
L 18.293988 43.5996 
L 19.031282 43.51596 
L 19.768575 43.00428 
L 20.505869 43.2798 
L 21.243162 43.71768 
L 22.717749 44.0916 
L 23.455043 45.11004 
L 24.192336 43.55532 
L 24.929629 42.72876 
L 26.404216 44.27364 
L 27.878803 44.47536 
L 28.616097 44.25888 
L 29.35339 43.64388 
L 30.090684 43.84068 
L 30.827977 43.85052 
L 31.56527 44.36712 
L 32.302564 44.26872 
L 33.039857 44.74104 
L 33.777151 44.98704 
L 34.514444 44.84436 
L 35.251738 45.58728 
L 35.989031 46.0596 
L 36.726324 45.18384 
L 39.675498 45.47904 
L 40.412792 45.65616 
L 41.150085 45.98088 
L 42.624672 45.38556 
L 43.361965 45.31668 
L 44.099259 45.58728 
L 44.836552 45.35604 
L 45.573846 45.40032 
L 46.311139 45.11496 
L 47.048433 44.42124 
L 48.52302 44.18508 
L 49.260313 43.62912 
L 49.997606 43.24044 
L 50.7349 43.8702 
L 51.472193 43.60944 
L 52.209487 43.92924 
L 52.94678 43.93416 
L 53.684074 43.46184 
L 54.421367 43.5012 
L 55.15866 42.72384 
L 55.895954 42.51228 
L 56.633247 43.08792 
L 57.370541 42.75828 
L 58.107834 42.90096 
L 59.582421 44.2392 
L 60.319715 45.23304 
L 61.057008 44.77548 
L 62.531595 45.04608 
L 63.268888 45.07068 
L 64.006182 46.1334 
L 64.743475 45.4446 
L 65.480769 45.06084 
L 66.218062 45.33144 
L 66.955356 46.30068 
L 67.692649 46.34496 
L 68.429942 47.89476 
L 69.167236 48.26376 
L 69.904529 47.96364 
L 71.112888 49.06572 
L 71.849806 50.04972 
L 72.583942 49.24776 
L 75.546565 49.59708 
L 76.281204 49.80372 
L 77.018276 49.86768 
L 77.746703 49.479 
L 78.445092 49.24776 
L 79.229678 49.48392 
L 79.874358 49.37568 
L 80.703096 49.479 
L 81.439494 49.7004 
L 83.650981 49.49376 
L 84.390494 49.98576 
L 85.065501 49.96608 
L 85.862427 49.7004 
L 86.596435 49.27236 
L 87.332329 49.37076 
L 88.060935 49.68072 
L 88.81498 49.25268 
L 89.544661 49.51344 
L 91.755714 49.09032 
L 93.968746 49.64628 
L 94.70825 49.58724 
L 95.440807 49.36092 
L 96.918005 49.45932 
L 97.653874 49.16904 
L 99.141585 49.27236 
L 99.88096 48.87384 
L 101.348268 48.70164 
L 102.085767 49.03128 
L 102.815883 49.1592 
L 103.548859 49.08048 
L 105.036203 49.36584 
L 106.558876 48.90828 
L 107.250225 49.05096 
L 108.718694 49.64628 
L 111.681692 49.59708 
L 112.409274 49.8726 
L 113.878391 49.80864 
L 116.098489 49.83816 
L 116.836977 49.50852 
L 117.571702 49.68564 
L 119.0418 49.48884 
L 119.792321 49.6512 
L 120.533395 49.69056 
L 121.265995 49.40028 
L 122.002725 49.58724 
L 124.208162 49.19856 
L 124.955193 49.43472 
L 125.694312 49.50852 
L 129.371401 49.37568 
L 130.120163 49.4052 
L 130.865402 49.29204 
L 131.60424 49.5528 
L 132.339519 49.50852 
L 133.07805 49.64136 
L 134.541876 49.56264 
L 135.294137 49.57248 
L 136.031175 49.42488 
L 136.752229 49.49376 
L 138.24 49.25268 
L 138.24 49.25268 
" clip-path="url(#p34dd3a0dd7)" style="fill: none; stroke: #bebebe; stroke-width: 0.6; stroke-linecap: round"/>
   </g>
   <g id="line2d_6">
    <path d="M 5.76 34.02528 
L 6.497293 34.26144 
L 7.234587 33.0216 
L 7.97188 33.10524 
L 8.709174 34.1532 
L 9.446467 34.2024 
L 10.183761 35.4324 
L 10.921054 36.34752 
L 11.658348 35.89488 
L 13.132934 36.94776 
L 13.870228 36.2688 
L 14.607521 36.97236 
L 15.344815 38.286 
L 16.082108 38.76324 
L 16.819402 38.73864 
L 17.556695 38.51724 
L 18.293988 37.42992 
L 19.031282 37.42008 
L 19.768575 36.90348 
L 20.505869 36.98712 
L 21.243162 36.86412 
L 21.980456 37.16424 
L 22.717749 37.14948 
L 23.455043 38.52216 
L 24.929629 35.71776 
L 25.666923 36.15564 
L 26.404216 36.93792 
L 27.878803 36.72636 
L 28.616097 36.21468 
L 29.35339 34.8174 
L 30.090684 34.7928 
L 30.827977 35.42748 
L 31.56527 36.49512 
L 32.302564 36.28356 
L 33.039857 36.6378 
L 33.777151 37.3512 
L 34.514444 37.3512 
L 35.251738 38.31552 
L 35.989031 38.32536 
L 36.726324 37.26264 
L 37.463618 37.26264 
L 38.200911 37.09044 
L 38.938205 37.06092 
L 39.675498 37.34628 
L 40.412792 37.48404 
L 41.150085 37.77924 
L 42.624672 37.45944 
L 44.099259 37.56276 
L 44.836552 37.31184 
L 45.573846 37.33644 
L 46.311139 37.09536 
L 47.048433 36.23928 
L 48.52302 36.11628 
L 49.260313 35.48652 
L 49.997606 35.0142 
L 50.7349 35.93424 
L 51.472193 36.36228 
L 52.209487 36.50988 
L 52.94678 36.5148 
L 53.684074 36.25404 
L 54.421367 36.46068 
L 55.15866 34.83708 
L 55.895954 34.57632 
L 57.370541 35.00436 
L 58.107834 34.93056 
L 58.845128 35.088 
L 59.582421 35.78664 
L 60.319715 37.55292 
L 61.057008 37.26756 
L 61.794301 37.46436 
L 63.268888 37.45944 
L 64.006182 38.41392 
L 65.480769 36.95268 
L 66.218062 37.05108 
L 66.955356 38.37948 
L 67.692649 39.20604 
L 68.429942 41.03136 
L 69.167236 42.26628 
L 69.904529 41.73492 
L 70.52697 42.23676 
L 71.849806 44.89356 
L 72.583942 43.6242 
L 74.069299 43.53072 
L 74.810799 43.72752 
L 76.281204 44.436 
L 77.018276 44.49012 
L 77.746703 43.81608 
L 78.445092 43.7226 
L 79.229678 44.5344 
L 79.874358 44.19 
L 80.703096 44.21952 
L 82.172478 44.51472 
L 83.650981 44.3868 
L 84.390494 45.174 
L 85.065501 45.23796 
L 85.862427 44.81484 
L 86.596435 43.821 
L 87.332329 44.01288 
L 88.060935 44.66232 
L 88.81498 43.93908 
L 89.544661 44.39664 
L 90.28367 44.12112 
L 91.016833 44.33268 
L 91.755714 43.3044 
L 92.492657 43.6242 
L 93.224293 44.29824 
L 93.968746 44.53932 
L 94.70825 44.30808 
L 95.440807 43.8702 
L 96.17781 44.00304 
L 96.918005 43.97844 
L 97.653874 43.41756 
L 99.141585 43.48644 
L 99.88096 42.49752 
L 100.605351 41.73984 
L 101.348268 41.7546 
L 102.085767 42.591 
L 102.815883 43.14204 
L 103.548859 43.083 
L 104.297178 43.35852 
L 105.036203 43.78164 
L 105.76667 43.21584 
L 106.558876 42.9354 
L 107.250225 43.10268 
L 108.718694 44.25396 
L 110.938075 43.74228 
L 111.681692 43.46676 
L 113.147412 43.79148 
L 114.626787 43.77672 
L 115.365983 43.2552 
L 116.098489 43.40772 
L 116.836977 42.49752 
L 117.571702 42.90588 
L 118.31578 42.8616 
L 119.0418 42.41388 
L 120.533395 42.79764 
L 121.265995 41.57256 
L 122.002725 41.86284 
L 122.74321 41.63652 
L 123.479001 41.85792 
L 124.208162 41.22324 
L 124.955193 41.76936 
L 125.694312 42.1482 
L 126.428371 41.96616 
L 127.163378 41.59224 
L 128.642906 41.99076 
L 129.371401 41.91696 
L 130.120163 41.98584 
L 130.865402 41.41512 
L 131.60424 42.15312 
L 132.339519 41.96124 
L 133.07805 42.43848 
L 134.541876 42.02028 
L 135.294137 42.0252 
L 136.031175 41.40528 
L 137.50251 41.52336 
L 138.24 41.86776 
L 138.24 41.86776 
" clip-path="url(#p34dd3a0dd7)" style="fill: none; stroke: #4a8dff; stroke-width: 0.6; stroke-linecap: round"/>
   </g>
   <g id="line2d_7">
    <path d="M 5.76 34.48284 
L 6.497293 35.02896 
L 7.234587 33.8334 
L 7.97188 33.243 
L 8.709174 34.69932 
L 9.446467 35.4078 
L 10.183761 36.2934 
L 10.921054 38.901 
L 11.658348 38.37948 
L 12.395641 38.92068 
L 13.132934 40.09164 
L 13.870228 39.70788 
L 14.607521 40.4262 
L 15.344815 42.75336 
L 16.082108 43.54548 
L 16.819402 43.72752 
L 17.556695 42.6894 
L 18.293988 41.976 
L 19.031282 42.42864 
L 19.768575 40.86408 
L 20.505869 40.47048 
L 22.717749 40.89852 
L 23.455043 42.9354 
L 24.192336 40.43604 
L 24.929629 39.31428 
L 25.666923 40.04244 
L 26.404216 41.43972 
L 27.14151 41.47416 
L 27.878803 41.02152 
L 28.616097 40.7952 
L 29.35339 39.75708 
L 30.090684 40.11132 
L 30.827977 39.87024 
L 31.56527 40.94772 
L 32.302564 40.97232 
L 33.777151 42.87144 
L 34.514444 42.17772 
L 35.251738 43.04364 
L 35.989031 43.34868 
L 36.726324 42.03504 
L 38.200911 41.8038 
L 38.938205 41.84316 
L 39.675498 42.37944 
L 40.412792 42.26628 
L 41.150085 42.468 
L 41.887379 42.42864 
L 42.624672 42.18264 
L 43.361965 42.1728 
L 44.099259 42.50244 
L 44.836552 41.88252 
L 45.573846 42.32532 
L 47.048433 41.13468 
L 48.52302 40.42128 
L 49.260313 39.16176 
L 49.997606 39.28968 
L 50.7349 40.48032 
L 52.94678 40.88376 
L 54.421367 40.53936 
L 55.15866 38.50248 
L 55.895954 37.63656 
L 56.633247 38.34012 
L 57.370541 38.37456 
L 58.107834 38.5812 
L 59.582421 39.8358 
L 60.319715 41.93172 
L 61.057008 41.42004 
L 62.531595 41.39052 
L 63.268888 41.5086 
L 64.006182 42.80256 
L 64.743475 41.93664 
L 65.480769 41.49384 
L 66.218062 41.51352 
L 66.955356 43.78164 
L 67.692649 43.9932 
L 68.429942 46.66968 
L 69.167236 47.55036 
L 69.904529 46.64508 
L 71.112888 48.89352 
L 71.849806 49.84308 
L 72.583942 49.00176 
L 73.338089 49.233 
L 74.069299 48.97716 
L 75.546565 49.36092 
L 77.018276 49.58724 
L 77.746703 49.28712 
L 78.445092 49.16904 
L 79.229678 49.39044 
L 79.874358 49.29696 
L 81.439494 49.55772 
L 83.650981 49.41996 
L 84.390494 49.8234 
L 85.065501 49.86768 
L 85.862427 49.72992 
L 86.596435 49.39536 
L 88.060935 49.6758 
L 88.81498 49.47408 
L 89.544661 49.60692 
L 90.28367 49.37568 
L 91.016833 49.36584 
L 91.755714 48.6672 
L 92.492657 48.95256 
L 93.224293 49.36092 
L 93.968746 49.54788 
L 94.70825 49.5282 
L 95.440807 49.09032 
L 96.918005 49.2084 
L 97.653874 48.93288 
L 99.141585 48.89844 
L 99.88096 48.48024 
L 100.605351 48.1998 
L 101.348268 48.28344 
L 102.085767 48.88368 
L 102.815883 49.04604 
L 103.548859 49.00176 
L 105.036203 49.38552 
L 105.76667 49.04112 
L 106.558876 48.92796 
L 107.250225 48.987 
L 108.718694 49.66104 
L 111.681692 49.40028 
L 112.409274 49.56756 
L 113.878391 49.56264 
L 114.626787 49.53312 
L 115.365983 49.25268 
L 116.098489 49.29696 
L 116.836977 48.89352 
L 117.571702 48.96732 
L 119.0418 48.5934 
L 119.792321 48.84432 
L 120.533395 48.95748 
L 121.265995 48.30804 
L 122.002725 48.34248 
L 122.74321 48.21456 
L 123.479001 48.26376 
L 124.208162 47.41752 
L 124.955193 48.05712 
L 125.694312 48.26376 
L 126.428371 48.01776 
L 127.163378 47.23548 
L 129.371401 47.1666 
L 130.120163 47.31912 
L 130.865402 46.49256 
L 131.60424 47.64876 
L 132.339519 47.5356 
L 133.07805 48.0276 
L 133.823399 47.50608 
L 134.541876 46.81728 
L 135.294137 46.92552 
L 136.031175 45.85788 
L 137.50251 45.29208 
L 138.24 45.58728 
L 138.24 45.58728 
" clip-path="url(#p34dd3a0dd7)" style="fill: none; stroke: #f5841e; stroke-width: 0.7; stroke-linecap: round"/>
   </g>
  </g>
 </g>
 <defs>
  <clipPath id="p34dd3a0dd7">
   <rect x="5.76" y="3.6" width="132.48" height="49.2"/>
  </clipPath>
 </defs>
</svg>
