<?xml version="1.0" encoding="utf-8" standalone="no"?>
<!DOCTYPE svg PUBLIC "-//W3C//DTD SVG 1.1//EN"
  "http://www.w3.org/Graphics/SVG/1.1/DTD/svg11.dtd">
<svg xmlns:xlink="http://www.w3.org/1999/xlink" width="144pt" height="60pt" viewBox="0 0 144 60" xmlns="http://www.w3.org/2000/svg" version="1.1">
  <desc id="nav-meta">{"window":"1y","count":4,"labels":["23.07","22.11","23.03","23.07"],"tick_utc":["2025-07-23T12:00:00Z","2025-11-22T12:00:00Z","2026-03-23T03:35:18Z","2026-07-23T03:58:20Z"]}</desc>

 <metadata>
  <rdf:RDF xmlns:dc="http://purl.org/dc/elements/1.1/" xmlns:cc="http://creativecommons.org/ns#" xmlns:rdf="http://www.w3.org/1999/02/22-rdf-syntax-ns#">
   <cc:Work>
    <dc:type rdf:resource="http://purl.org/dc/dcmitype/StillImage"/>
    <dc:date>2026-07-23T03:58:22.107666</dc:date>
    <dc:format>image/svg+xml</dc:format>
    <dc:creator>
     <cc:Agent>
      <dc:title>Matplotlib v3.11.1, https://matplotlib.org/</dc:title>
     </cc:Agent>
    </dc:creator>
   </cc:Work>
  </rdf:RDF>
 </metadata>
 <defs>
  <style type="text/css">*{stroke-linejoin: round; stroke-linecap: butt}</style>
 </defs>
 <g id="figure_1">
  <g id="patch_1">
   <path d="M 0 60 
L 144 60 
L 144 0 
L 0 0 
L 0 60 
z
" style="fill: none; opacity: 0"/>
  </g>
  <g id="axes_1">
   <g id="patch_2">
    <path d="M 5.76 52.8 
L 138.24 52.8 
L 138.24 3.6 
L 5.76 3.6 
L 5.76 52.8 
z
" style="fill: none"/>
   </g>
   <g id="matplotlib.axis_1"/>
   <g id="matplotlib.axis_2"/>
   <g id="line2d_1">
    <path d="M 5.76 42.96 
L 138.24 42.96 
" clip-path="url(#pdb75a677f4)" style="fill: none; stroke: #b2b2b2; stroke-opacity: 0.35; stroke-width: 0.5; stroke-linecap: square"/>
   </g>
   <g id="line2d_2">
    <path d="M 5.76 33.12 
L 138.24 33.12 
" clip-path="url(#pdb75a677f4)" style="fill: none; stroke: #b2b2b2; stroke-opacity: 0.35; stroke-width: 0.5; stroke-linecap: square"/>
   </g>
   <g id="line2d_3">
    <path d="M 5.76 23.28 
L 138.24 23.28 
" clip-path="url(#pdb75a677f4)" style="fill: none; stroke: #b2b2b2; stroke-opacity: 0.35; stroke-width: 0.5; stroke-linecap: square"/>
   </g>
   <g id="line2d_4">
    <path d="M 5.76 13.44 
L 138.24 13.44 
" clip-path="url(#pdb75a677f4)" style="fill: none; stroke: #b2b2b2; stroke-opacity: 0.35; stroke-width: 0.5; stroke-linecap: square"/>
   </g>
   <g id="line2d_5">
    <path d="M 5.76 34.88136 
L 6.123292 36.92316 
L 6.486584 37.8432 
L 6.849875 37.37088 
L 7.213167 37.53324 
L 7.576459 37.056 
L 7.939751 37.77924 
L 8.303043 38.02032 
L 8.666335 38.45328 
L 9.029626 39.1962 
L 9.392918 40.41636 
L 9.75621 40.97232 
L 10.119502 40.53444 
L 10.482794 39.55536 
L 10.846086 40.24908 
L 11.209377 39.7128 
L 11.572669 38.778 
L 11.935961 38.59104 
L 12.662545 37.794 
L 13.025837 38.82228 
L 13.389128 36.53448 
L 13.75242 35.334 
L 14.479004 37.44468 
L 14.842296 36.90348 
L 15.205588 36.65748 
L 15.932171 38.64516 
L 16.295463 37.2282 
L 16.658755 38.14332 
L 17.022047 35.53572 
L 17.385339 35.04372 
L 17.74863 34.80264 
L 18.111922 37.23804 
L 19.201798 33.67104 
L 19.56509 34.90596 
L 20.654965 35.9736 
L 21.018257 34.36476 
L 21.381549 34.1778 
L 21.74484 35.22084 
L 22.108132 35.11752 
L 22.471424 35.54556 
L 23.924591 32.44104 
L 24.287883 31.83096 
L 24.651175 30.06468 
L 25.014467 30.01056 
L 25.377759 30.291 
L 25.741051 31.16184 
L 26.104342 30.74856 
L 26.467634 29.71536 
L 26.830926 29.37588 
L 27.194218 30.57636 
L 27.55751 30.42876 
L 27.920802 30.79284 
L 28.284093 32.91828 
L 28.647385 33.72024 
L 29.010677 34.05972 
L 29.373969 36.5886 
L 29.737261 34.90104 
L 30.100553 35.10276 
L 30.463844 34.16796 
L 30.827136 33.8826 
L 31.190428 34.43364 
L 31.917012 31.05852 
L 32.280304 31.26024 
L 32.643595 31.92936 
L 33.006887 31.85064 
L 33.370179 31.3242 
L 33.733471 32.84448 
L 34.096763 31.78176 
L 34.460055 32.85924 
L 34.823346 36.8838 
L 35.186638 38.39424 
L 35.54993 35.95392 
L 35.913222 34.53696 
L 36.276514 35.20608 
L 37.003097 37.57752 
L 37.366389 37.90716 
L 37.729681 37.18884 
L 38.092973 37.18392 
L 38.456265 36.89364 
L 38.819556 37.42008 
L 39.182848 38.17284 
L 39.54614 36.687 
L 39.909432 36.42132 
L 40.272724 36.34752 
L 40.636016 35.56032 
L 40.999307 35.72268 
L 41.362599 36.29832 
L 41.725891 36.32292 
L 42.089183 37.61688 
L 42.452475 37.2282 
L 42.815767 37.34628 
L 43.179058 37.23804 
L 43.54235 40.008 
L 43.905642 41.36592 
L 44.268934 40.43604 
L 44.632226 41.44956 
L 44.995518 40.53444 
L 45.358809 41.02152 
L 45.722101 40.22448 
L 46.085393 39.79644 
L 46.448685 41.51844 
L 46.811977 41.66604 
L 47.53856 43.51596 
L 47.901852 43.43724 
L 48.265144 43.71276 
L 48.628436 44.59836 
L 48.991728 43.30932 
L 50.081603 44.88372 
L 50.444895 44.99688 
L 50.808187 44.57868 
L 51.171479 43.5996 
L 51.534771 43.51596 
L 51.898062 43.00428 
L 52.261354 43.2798 
L 52.624646 43.71768 
L 53.35123 44.0916 
L 53.714521 45.11004 
L 54.077813 43.55532 
L 54.441105 42.72876 
L 55.167689 44.27364 
L 55.894272 44.47536 
L 56.257564 44.25888 
L 56.620856 43.64388 
L 56.984148 43.84068 
L 57.34744 43.85052 
L 57.710732 44.36712 
L 58.074023 44.26872 
L 58.437315 44.74104 
L 58.800607 44.98704 
L 59.163899 44.84436 
L 59.527191 45.58728 
L 59.890483 46.0596 
L 60.253774 45.18384 
L 61.706942 45.47904 
L 62.070234 45.65616 
L 62.433525 45.98088 
L 63.160109 45.38556 
L 63.523401 45.31668 
L 63.886693 45.58728 
L 64.249985 45.35604 
L 64.613276 45.40032 
L 64.976568 45.11496 
L 65.33986 44.42124 
L 66.066444 44.18508 
L 66.793027 43.24044 
L 67.156319 43.8702 
L 67.519611 43.60944 
L 67.882903 43.92924 
L 68.246195 43.93416 
L 68.609486 43.46184 
L 68.972778 43.5012 
L 69.33607 42.72384 
L 69.699362 42.51228 
L 70.062654 43.08792 
L 70.425946 42.75828 
L 70.789237 42.90096 
L 71.515821 44.2392 
L 71.879113 45.23304 
L 72.242405 44.77548 
L 72.968988 45.04608 
L 73.33228 45.07068 
L 73.695572 46.1334 
L 74.058864 45.4446 
L 74.422156 45.06084 
L 74.785448 45.33144 
L 75.148739 46.30068 
L 75.512031 46.34496 
L 75.875323 47.89476 
L 76.238615 48.26376 
L 76.601907 47.96364 
L 77.560417 50.04972 
L 77.922153 49.24776 
L 79.381947 49.59708 
L 79.743931 49.80372 
L 80.107114 49.86768 
L 80.810159 49.24776 
L 81.196754 49.48392 
L 81.514411 49.37568 
L 81.922761 49.479 
L 82.285612 49.7004 
L 83.375294 49.49376 
L 83.739679 49.98576 
L 84.07228 49.96608 
L 84.464955 49.7004 
L 84.826628 49.27236 
L 85.18923 49.37076 
L 85.548241 49.68072 
L 85.919787 49.25268 
L 86.279328 49.51344 
L 87.368796 49.09032 
L 88.82362 49.58724 
L 89.184578 49.36092 
L 89.912448 49.45932 
L 90.275038 49.16904 
L 91.008089 49.27236 
L 91.372406 48.87384 
L 92.095403 48.70164 
L 92.458796 49.03128 
L 92.818552 49.1592 
L 93.179716 49.08048 
L 93.912586 49.36584 
L 94.662863 48.90828 
L 95.003517 49.05096 
L 95.727086 49.64628 
L 97.187065 49.59708 
L 97.545571 49.8726 
L 98.26946 49.80864 
L 99.363384 49.83816 
L 99.727265 49.50852 
L 100.089291 49.68564 
L 100.813663 49.48884 
L 101.548627 49.69056 
L 101.909606 49.40028 
L 102.27262 49.58724 
L 103.359321 49.19856 
L 103.727411 49.43472 
L 104.091602 49.50852 
L 105.903441 49.37568 
L 106.272384 49.4052 
L 106.63959 49.29204 
L 107.003643 49.5528 
L 107.365942 49.50852 
L 107.729844 49.64136 
L 108.451125 49.56264 
L 108.821792 49.57248 
L 109.184958 49.42488 
L 109.540248 49.49376 
L 110.273328 49.25268 
L 110.630574 49.24284 
L 110.995194 48.80004 
L 111.365806 48.85416 
L 112.090212 48.63276 
L 112.455232 48.66228 
L 112.81812 49.09524 
L 113.183203 48.99192 
L 113.910573 49.34616 
L 114.277393 49.47408 
L 115.002673 49.54788 
L 115.368034 49.3314 
L 115.728542 49.34616 
L 116.086843 49.51836 
L 116.823959 49.41504 
L 117.9109 49.7742 
L 119.003222 49.61676 
L 119.731606 49.7988 
L 120.461032 50.45808 
L 120.81834 50.59092 
L 121.176048 50.99928 
L 121.912046 50.74344 
L 122.268405 50.62536 
L 122.635464 50.80248 
L 124.092167 50.56632 
L 124.8329 50.23176 
L 125.18462 50.2416 
L 125.91802 50.55156 
L 127.011562 50.217 
L 128.080922 50.59092 
L 128.446077 50.59092 
L 128.804916 50.33016 
L 129.175133 50.4384 
L 129.541053 50.3892 
L 131.343905 49.6266 
L 131.712516 49.7742 
L 132.43717 49.76436 
L 133.164893 49.98084 
L 133.527365 49.8972 
L 134.967632 50.15796 
L 135.331016 49.98084 
L 136.420064 50.1432 
L 138.24 49.99068 
L 138.24 49.99068 
" clip-path="url(#pdb75a677f4)" style="fill: none; stroke: #bebebe; stroke-width: 0.6; stroke-linecap: round"/>
   </g>
   <g id="line2d_6">
    <path d="M 5.76 31.8162 
L 6.123292 32.64276 
L 6.486584 32.0868 
L 7.213167 31.85064 
L 7.576459 30.98964 
L 7.939751 31.53576 
L 8.303043 31.521 
L 8.666335 31.38816 
L 9.029626 32.17044 
L 9.392918 33.68088 
L 9.75621 34.28604 
L 10.119502 33.58248 
L 10.482794 32.0376 
L 10.846086 32.76576 
L 11.209377 32.259 
L 11.572669 30.65508 
L 11.935961 29.93676 
L 12.299253 28.14588 
L 13.025837 28.40664 
L 13.389128 25.73508 
L 13.75242 24.62316 
L 14.115712 26.10408 
L 14.479004 26.97984 
L 14.842296 27.00936 
L 15.205588 26.58132 
L 15.568879 27.7818 
L 15.932171 29.49888 
L 16.295463 27.68832 
L 16.658755 28.44108 
L 17.022047 24.16068 
L 17.385339 24.55428 
L 17.74863 24.51984 
L 18.111922 27.32916 
L 18.475214 25.7646 
L 18.838506 26.48784 
L 19.201798 26.43372 
L 19.56509 27.44724 
L 20.291673 27.27504 
L 20.654965 27.8802 
L 21.018257 27.72276 
L 21.381549 26.84208 
L 21.74484 27.91956 
L 22.108132 27.8556 
L 22.471424 28.09668 
L 22.834716 27.87528 
L 23.5613 27.83592 
L 23.924591 27.57024 
L 24.287883 26.77812 
L 24.651175 25.01184 
L 25.377759 25.71048 
L 25.741051 26.31564 
L 26.104342 26.45832 
L 26.467634 25.8384 
L 26.830926 25.84824 
L 27.194218 26.6994 
L 27.55751 26.62068 
L 27.920802 26.8224 
L 28.284093 28.61328 
L 29.010677 28.97244 
L 29.373969 30.99456 
L 29.737261 29.76456 
L 30.100553 29.8974 
L 30.463844 29.02164 
L 30.827136 28.50012 
L 31.190428 29.00688 
L 31.917012 26.601 
L 32.280304 26.3796 
L 32.643595 26.5764 
L 33.006887 26.3796 
L 33.370179 25.1496 
L 33.733471 26.81256 
L 34.096763 26.29596 
L 34.460055 27.41772 
L 34.823346 31.19136 
L 35.186638 31.80144 
L 35.54993 28.89864 
L 35.913222 28.28364 
L 37.003097 30.80268 
L 37.366389 31.22088 
L 37.729681 30.8076 
L 38.092973 30.13356 
L 38.456265 30.17784 
L 39.182848 31.42752 
L 39.54614 31.04376 
L 39.909432 30.49764 
L 40.272724 30.3648 
L 40.636016 28.88388 
L 40.999307 29.15448 
L 41.362599 30.15324 
L 42.089183 31.4226 
L 42.815767 30.9306 
L 43.179058 30.66 
L 43.905642 34.99944 
L 44.268934 34.07448 
L 44.632226 34.9158 
L 44.995518 34.02528 
L 45.358809 34.26144 
L 45.722101 33.0216 
L 46.085393 33.10524 
L 46.448685 34.1532 
L 46.811977 34.2024 
L 47.53856 36.34752 
L 47.901852 35.89488 
L 48.628436 36.94776 
L 48.991728 36.2688 
L 49.35502 36.97236 
L 49.718311 38.286 
L 50.081603 38.76324 
L 50.444895 38.73864 
L 50.808187 38.51724 
L 51.171479 37.42992 
L 51.534771 37.42008 
L 51.898062 36.90348 
L 52.261354 36.98712 
L 52.624646 36.86412 
L 52.987938 37.16424 
L 53.35123 37.14948 
L 53.714521 38.52216 
L 54.441105 35.71776 
L 54.804397 36.15564 
L 55.167689 36.93792 
L 55.894272 36.72636 
L 56.257564 36.21468 
L 56.620856 34.8174 
L 56.984148 34.7928 
L 57.34744 35.42748 
L 57.710732 36.49512 
L 58.074023 36.28356 
L 58.437315 36.6378 
L 58.800607 37.3512 
L 59.163899 37.3512 
L 59.527191 38.31552 
L 59.890483 38.32536 
L 60.253774 37.26264 
L 60.617066 37.26264 
L 60.980358 37.09044 
L 61.34365 37.06092 
L 61.706942 37.34628 
L 62.070234 37.48404 
L 62.433525 37.77924 
L 63.160109 37.45944 
L 63.886693 37.56276 
L 64.249985 37.31184 
L 64.613276 37.33644 
L 64.976568 37.09536 
L 65.33986 36.23928 
L 66.066444 36.11628 
L 66.793027 35.0142 
L 67.156319 35.93424 
L 67.519611 36.36228 
L 67.882903 36.50988 
L 68.246195 36.5148 
L 68.609486 36.25404 
L 68.972778 36.46068 
L 69.33607 34.83708 
L 69.699362 34.57632 
L 70.425946 35.00436 
L 70.789237 34.93056 
L 71.152529 35.088 
L 71.515821 35.78664 
L 71.879113 37.55292 
L 72.242405 37.26756 
L 72.605697 37.46436 
L 73.33228 37.45944 
L 73.695572 38.41392 
L 74.422156 36.95268 
L 74.785448 37.05108 
L 75.148739 38.37948 
L 75.512031 39.20604 
L 75.875323 41.03136 
L 76.238615 42.26628 
L 76.601907 41.73492 
L 76.908607 42.23676 
L 77.560417 44.89356 
L 77.922153 43.6242 
L 78.654043 43.53072 
L 79.019408 43.72752 
L 79.743931 44.436 
L 80.107114 44.49012 
L 80.466037 43.81608 
L 80.810159 43.7226 
L 81.196754 44.5344 
L 81.514411 44.19 
L 81.922761 44.21952 
L 82.64678 44.51472 
L 83.375294 44.3868 
L 83.739679 45.174 
L 84.07228 45.23796 
L 84.464955 44.81484 
L 84.826628 43.821 
L 85.18923 44.01288 
L 85.548241 44.66232 
L 85.919787 43.93908 
L 86.279328 44.39664 
L 86.643465 44.12112 
L 87.004722 44.33268 
L 87.368796 43.3044 
L 87.731915 43.6242 
L 88.092419 44.29824 
L 88.459239 44.53932 
L 88.82362 44.30808 
L 89.184578 43.8702 
L 89.547727 44.00304 
L 89.912448 43.97844 
L 90.275038 43.41756 
L 91.008089 43.48644 
L 91.729341 41.73984 
L 92.095403 41.7546 
L 92.818552 43.14204 
L 93.179716 43.083 
L 93.54844 43.35852 
L 93.912586 43.78164 
L 94.272514 43.21584 
L 94.662863 42.9354 
L 95.003517 43.10268 
L 95.727086 44.25396 
L 96.820657 43.74228 
L 97.187065 43.46676 
L 97.909279 43.79148 
L 98.638222 43.77672 
L 99.002452 43.2552 
L 99.363384 43.40772 
L 99.727265 42.49752 
L 100.089291 42.90588 
L 100.455926 42.8616 
L 100.813663 42.41388 
L 101.548627 42.79764 
L 101.909606 41.57256 
L 102.27262 41.86284 
L 102.637485 41.63652 
L 103.000037 41.85792 
L 103.359321 41.22324 
L 104.091602 42.1482 
L 104.453301 41.96616 
L 104.815466 41.59224 
L 105.544484 41.99076 
L 105.903441 41.91696 
L 106.272384 41.98584 
L 106.63959 41.41512 
L 107.003643 42.15312 
L 107.365942 41.96124 
L 107.729844 42.43848 
L 108.451125 42.02028 
L 108.821792 42.0252 
L 109.184958 41.40528 
L 109.90994 41.52336 
L 110.630574 42.1974 
L 110.995194 41.8776 
L 111.731966 41.8038 
L 112.090212 41.976 
L 112.455232 42.00552 
L 112.81812 42.3942 
L 113.183203 42.27612 
L 114.277393 43.31424 
L 114.638082 43.2306 
L 115.002673 43.39296 
L 115.368034 43.16172 
L 115.728542 43.24536 
L 116.086843 43.71768 
L 116.455887 43.33392 
L 117.548769 43.67832 
L 117.9109 44.32776 
L 118.274461 44.13588 
L 118.632513 44.16048 
L 119.003222 43.96368 
L 119.371888 44.2392 
L 119.731606 44.19984 
L 120.098985 45.16908 
L 120.81834 46.00548 
L 121.176048 47.57004 
L 121.912046 46.64016 
L 122.268405 46.34496 
L 122.635464 46.82712 
L 123.365605 46.51716 
L 123.726239 46.5516 
L 124.092167 46.46304 
L 125.18462 45.6414 
L 125.546171 46.09404 
L 125.91802 46.3302 
L 127.011562 46.035 
L 127.353136 46.14324 
L 128.446077 47.38308 
L 128.804916 47.14692 
L 129.541053 47.22072 
L 130.622838 46.79268 
L 131.343905 45.92184 
L 132.079327 45.75456 
L 133.164893 46.02024 
L 133.87993 45.61188 
L 134.248655 45.51348 
L 134.612741 45.72504 
L 134.967632 45.72996 
L 135.331016 45.08052 
L 135.695216 44.76564 
L 136.058567 45.23796 
L 136.420064 45.29208 
L 136.788817 45.1248 
L 137.157037 45.08544 
L 137.513706 44.69676 
L 138.24 44.74596 
L 138.24 44.74596 
" clip-path="url(#pdb75a677f4)" style="fill: none; stroke: #4a8dff; stroke-width: 0.6; stroke-linecap: round"/>
   </g>
   <g id="line2d_7">
    <path d="M 5.76 26.3058 
L 6.123292 26.96016 
L 6.486584 27.09792 
L 6.849875 27.49644 
L 7.213167 27.2898 
L 7.576459 26.57148 
L 7.939751 27.27012 
L 8.666335 27.35376 
L 9.392918 29.62188 
L 9.75621 29.96136 
L 10.119502 29.14956 
L 10.482794 28.68216 
L 10.846086 29.184 
L 11.209377 28.7412 
L 11.572669 27.5358 
L 11.935961 27.91956 
L 12.299253 28.00812 
L 12.662545 26.64528 
L 13.025837 26.88636 
L 13.389128 26.1828 
L 13.75242 24.52476 
L 14.115712 27.0684 
L 14.479004 27.59484 
L 15.205588 27.49644 
L 15.568879 28.13112 
L 15.932171 29.8482 
L 16.295463 29.12004 
L 16.658755 30.03024 
L 17.022047 27.84576 
L 17.74863 29.54316 
L 18.111922 31.13232 
L 18.475214 30.31068 
L 18.838506 30.62064 
L 19.201798 29.97612 
L 19.56509 31.97364 
L 19.928381 31.82112 
L 20.291673 32.0868 
L 20.654965 31.63416 
L 21.018257 30.6354 
L 21.381549 30.37464 
L 21.74484 30.86172 
L 22.108132 30.89616 
L 22.471424 31.11756 
L 23.198008 30.22212 
L 23.5613 30.45828 
L 23.924591 29.2578 
L 24.287883 28.50504 
L 24.651175 28.18032 
L 25.014467 28.2738 
L 25.377759 28.569 
L 25.741051 28.55424 
L 26.104342 27.8802 
L 26.467634 28.03272 
L 26.830926 27.69324 
L 27.194218 28.42632 
L 27.55751 28.3968 
L 27.920802 28.60344 
L 28.284093 29.88756 
L 28.647385 30.22212 
L 29.010677 29.58252 
L 29.373969 31.73256 
L 29.737261 31.36356 
L 30.100553 31.39308 
L 30.827136 29.09544 
L 31.190428 29.2332 
L 31.55372 27.02412 
L 32.280304 25.16928 
L 32.643595 25.10532 
L 33.370179 23.92452 
L 33.733471 25.53336 
L 34.096763 24.62808 
L 34.460055 25.4448 
L 34.823346 29.64156 
L 35.186638 30.80268 
L 35.54993 28.65756 
L 35.913222 28.6428 
L 36.639806 30.87156 
L 37.003097 32.17044 
L 37.366389 32.97732 
L 37.729681 32.628 
L 38.092973 31.90476 
L 38.456265 30.92076 
L 38.819556 31.96872 
L 39.182848 32.39676 
L 39.54614 31.19628 
L 40.272724 30.42384 
L 40.636016 29.0118 
L 40.999307 29.15448 
L 41.362599 29.76456 
L 41.725891 31.2012 
L 42.089183 32.09172 
L 42.452475 31.43244 
L 43.179058 30.90108 
L 43.905642 35.35368 
L 44.268934 34.24668 
L 44.632226 35.5062 
L 44.995518 34.48284 
L 45.358809 35.02896 
L 45.722101 33.8334 
L 46.085393 33.243 
L 46.448685 34.69932 
L 47.175269 36.2934 
L 47.53856 38.901 
L 47.901852 38.37948 
L 48.265144 38.92068 
L 48.628436 40.09164 
L 48.991728 39.70788 
L 49.35502 40.4262 
L 49.718311 42.75336 
L 50.081603 43.54548 
L 50.444895 43.72752 
L 51.171479 41.976 
L 51.534771 42.42864 
L 51.898062 40.86408 
L 52.261354 40.47048 
L 53.35123 40.89852 
L 53.714521 42.9354 
L 54.077813 40.43604 
L 54.441105 39.31428 
L 54.804397 40.04244 
L 55.167689 41.43972 
L 55.530981 41.47416 
L 55.894272 41.02152 
L 56.257564 40.7952 
L 56.620856 39.75708 
L 56.984148 40.11132 
L 57.34744 39.87024 
L 57.710732 40.94772 
L 58.074023 40.97232 
L 58.800607 42.87144 
L 59.163899 42.17772 
L 59.527191 43.04364 
L 59.890483 43.34868 
L 60.253774 42.03504 
L 60.980358 41.8038 
L 61.34365 41.84316 
L 61.706942 42.37944 
L 62.070234 42.26628 
L 62.433525 42.468 
L 62.796817 42.42864 
L 63.160109 42.18264 
L 63.523401 42.1728 
L 63.886693 42.50244 
L 64.249985 41.88252 
L 64.613276 42.32532 
L 65.33986 41.13468 
L 66.066444 40.42128 
L 66.429736 39.16176 
L 66.793027 39.28968 
L 67.156319 40.48032 
L 68.246195 40.88376 
L 68.972778 40.53936 
L 69.33607 38.50248 
L 69.699362 37.63656 
L 70.062654 38.34012 
L 70.425946 38.37456 
L 70.789237 38.5812 
L 71.515821 39.8358 
L 71.879113 41.93172 
L 72.242405 41.42004 
L 72.968988 41.39052 
L 73.33228 41.5086 
L 73.695572 42.80256 
L 74.058864 41.93664 
L 74.422156 41.49384 
L 74.785448 41.51352 
L 75.148739 43.78164 
L 75.512031 43.9932 
L 75.875323 46.66968 
L 76.238615 47.55036 
L 76.601907 46.64508 
L 77.19731 48.89352 
L 77.560417 49.84308 
L 77.922153 49.00176 
L 78.293749 49.233 
L 78.654043 48.97716 
L 79.381947 49.36092 
L 80.107114 49.58724 
L 80.466037 49.28712 
L 80.810159 49.16904 
L 81.196754 49.39044 
L 81.514411 49.29696 
L 82.285612 49.55772 
L 83.375294 49.41996 
L 83.739679 49.8234 
L 84.07228 49.86768 
L 84.464955 49.72992 
L 84.826628 49.39536 
L 85.548241 49.6758 
L 85.919787 49.47408 
L 86.279328 49.60692 
L 86.643465 49.37568 
L 87.004722 49.36584 
L 87.368796 48.6672 
L 88.459239 49.54788 
L 88.82362 49.5282 
L 89.184578 49.09032 
L 89.912448 49.2084 
L 90.275038 48.93288 
L 91.008089 48.89844 
L 91.729341 48.1998 
L 92.095403 48.28344 
L 92.458796 48.88368 
L 92.818552 49.04604 
L 93.179716 49.00176 
L 93.912586 49.38552 
L 94.272514 49.04112 
L 94.662863 48.92796 
L 95.003517 48.987 
L 95.727086 49.66104 
L 97.187065 49.40028 
L 97.545571 49.56756 
L 98.26946 49.56264 
L 98.638222 49.53312 
L 99.002452 49.25268 
L 99.363384 49.29696 
L 99.727265 48.89352 
L 100.089291 48.96732 
L 100.813663 48.5934 
L 101.183472 48.84432 
L 101.548627 48.95748 
L 101.909606 48.30804 
L 102.27262 48.34248 
L 102.637485 48.21456 
L 103.000037 48.26376 
L 103.359321 47.41752 
L 103.727411 48.05712 
L 104.091602 48.26376 
L 104.453301 48.01776 
L 104.815466 47.23548 
L 105.903441 47.1666 
L 106.272384 47.31912 
L 106.63959 46.49256 
L 107.003643 47.64876 
L 107.365942 47.5356 
L 107.729844 48.0276 
L 108.451125 46.81728 
L 108.821792 46.92552 
L 109.184958 45.85788 
L 109.90994 45.29208 
L 110.273328 45.58728 
L 110.630574 46.2564 
L 110.995194 45.7152 
L 112.455232 45.42492 
L 112.81812 46.38432 
L 113.183203 45.57744 
L 113.541857 46.51716 
L 114.277393 47.54544 
L 115.002673 47.66844 
L 115.368034 47.05344 
L 115.728542 47.22564 
L 116.086843 48.07188 
L 116.823959 47.37324 
L 117.548769 48.07188 
L 117.9109 48.59832 
L 118.274461 48.52452 
L 118.632513 48.5688 
L 119.003222 48.38676 
L 119.371888 48.55404 
L 120.461032 49.93656 
L 120.81834 49.98084 
L 121.176048 50.3646 
L 121.912046 50.07432 
L 122.268405 49.99068 
L 122.635464 50.217 
L 123.365605 49.98084 
L 124.092167 49.87752 
L 124.467535 49.69548 
L 125.18462 49.7004 
L 125.91802 50.06448 
L 126.637636 49.89228 
L 127.353136 49.9464 
L 128.804916 50.31048 
L 130.265908 50.41872 
L 131.343905 50.0694 
L 132.790589 50.05956 
L 133.164893 50.11368 
L 133.527365 49.91196 
L 134.248655 49.8972 
L 134.967632 50.08908 
L 135.331016 49.84308 
L 135.695216 49.85292 
L 136.058567 49.97592 
L 138.24 49.725 
L 138.24 49.725 
" clip-path="url(#pdb75a677f4)" style="fill: none; stroke: #f5841e; stroke-width: 0.7; stroke-linecap: round"/>
   </g>
  </g>
 </g>
 <defs>
  <clipPath id="pdb75a677f4">
   <rect x="5.76" y="3.6" width="132.48" height="49.2"/>
  </clipPath>
 </defs>
</svg>
