<?xml version="1.0" encoding="utf-8" standalone="no"?>
<!DOCTYPE svg PUBLIC "-//W3C//DTD SVG 1.1//EN"
  "http://www.w3.org/Graphics/SVG/1.1/DTD/svg11.dtd">
<svg xmlns:xlink="http://www.w3.org/1999/xlink" width="144pt" height="60pt" viewBox="0 0 144 60" xmlns="http://www.w3.org/2000/svg" version="1.1">
  <desc id="nav-meta">{"window":"2w","count":4,"labels":["26.04","30.04","05.05","09.05"],"tick_utc":["2026-04-26T04:06:31Z","2026-04-30T04:23:32Z","2026-05-05T03:59:32Z","2026-05-09T04:06:35Z"]}</desc>

 <metadata>
  <rdf:RDF xmlns:dc="http://purl.org/dc/elements/1.1/" xmlns:cc="http://creativecommons.org/ns#" xmlns:rdf="http://www.w3.org/1999/02/22-rdf-syntax-ns#">
   <cc:Work>
    <dc:type rdf:resource="http://purl.org/dc/dcmitype/StillImage"/>
    <dc:date>2026-05-09T14:04:52.238075</dc:date>
    <dc:format>image/svg+xml</dc:format>
    <dc:creator>
     <cc:Agent>
      <dc:title>Matplotlib v3.10.9, https://matplotlib.org/</dc:title>
     </cc:Agent>
    </dc:creator>
   </cc:Work>
  </rdf:RDF>
 </metadata>
 <defs>
  <style type="text/css">*{stroke-linejoin: round; stroke-linecap: butt}</style>
 </defs>
 <g id="figure_1">
  <g id="patch_1">
   <path d="M 0 60 
L 144 60 
L 144 0 
L 0 0 
L 0 60 
z
" style="fill: none; opacity: 0"/>
  </g>
  <g id="axes_1">
   <g id="patch_2">
    <path d="M 5.76 52.8 
L 138.24 52.8 
L 138.24 3.6 
L 5.76 3.6 
L 5.76 52.8 
z
" style="fill: none"/>
   </g>
   <g id="matplotlib.axis_1"/>
   <g id="matplotlib.axis_2"/>
   <g id="line2d_1">
    <path d="M 5.76 42.96 
L 138.24 42.96 
" clip-path="url(#pf095ec8f1d)" style="fill: none; stroke: #b2b2b2; stroke-opacity: 0.35; stroke-width: 0.5; stroke-linecap: square"/>
   </g>
   <g id="line2d_2">
    <path d="M 5.76 33.12 
L 138.24 33.12 
" clip-path="url(#pf095ec8f1d)" style="fill: none; stroke: #b2b2b2; stroke-opacity: 0.35; stroke-width: 0.5; stroke-linecap: square"/>
   </g>
   <g id="line2d_3">
    <path d="M 5.76 23.28 
L 138.24 23.28 
" clip-path="url(#pf095ec8f1d)" style="fill: none; stroke: #b2b2b2; stroke-opacity: 0.35; stroke-width: 0.5; stroke-linecap: square"/>
   </g>
   <g id="line2d_4">
    <path d="M 5.76 13.44 
L 138.24 13.44 
" clip-path="url(#pf095ec8f1d)" style="fill: none; stroke: #b2b2b2; stroke-opacity: 0.35; stroke-width: 0.5; stroke-linecap: square"/>
   </g>
   <g id="line2d_5">
    <path d="M 5.76 49.4052 
L 16.060543 49.29204 
L 26.272624 49.5528 
L 36.435522 49.50852 
L 46.643357 49.64136 
L 56.945433 49.56756 
L 66.87609 49.56264 
L 77.273704 49.57248 
L 87.460899 49.42488 
L 97.427176 49.49376 
L 107.797426 49.32156 
L 117.990872 49.25268 
L 128.011995 49.24284 
L 138.24 48.80004 
" clip-path="url(#pf095ec8f1d)" style="fill: none; stroke: #bebebe; stroke-width: 0.6; stroke-linecap: round"/>
   </g>
   <g id="line2d_6">
    <path d="M 5.76 41.98584 
L 16.060543 41.41512 
L 26.272624 42.15312 
L 36.435522 41.96124 
L 46.643357 42.43848 
L 56.945433 42.20232 
L 66.87609 42.02028 
L 77.273704 42.0252 
L 87.460899 41.40528 
L 97.427176 41.46432 
L 107.797426 41.52336 
L 117.990872 41.86776 
L 128.011995 42.1974 
L 138.24 41.8776 
" clip-path="url(#pf095ec8f1d)" style="fill: none; stroke: #4a8dff; stroke-width: 0.6; stroke-linecap: round"/>
   </g>
   <g id="line2d_7">
    <path d="M 5.76 47.31912 
L 16.060543 46.49256 
L 26.272624 47.64876 
L 36.435522 47.5356 
L 46.643357 48.0276 
L 56.945433 47.50608 
L 66.87609 46.81728 
L 77.273704 46.92552 
L 87.460899 45.85788 
L 97.427176 45.60204 
L 107.797426 45.29208 
L 117.990872 45.58728 
L 128.011995 46.2564 
L 138.24 45.7152 
" clip-path="url(#pf095ec8f1d)" style="fill: none; stroke: #f5841e; stroke-width: 0.7; stroke-linecap: round"/>
   </g>
  </g>
 </g>
 <defs>
  <clipPath id="pf095ec8f1d">
   <rect x="5.76" y="3.6" width="132.48" height="49.2"/>
  </clipPath>
 </defs>
</svg>
