<?xml version="1.0" encoding="utf-8" standalone="no"?>
<!DOCTYPE svg PUBLIC "-//W3C//DTD SVG 1.1//EN"
  "http://www.w3.org/Graphics/SVG/1.1/DTD/svg11.dtd">
<svg xmlns:xlink="http://www.w3.org/1999/xlink" width="144pt" height="60pt" viewBox="0 0 144 60" xmlns="http://www.w3.org/2000/svg" version="1.1">
  <desc id="nav-meta">{"window":"1y","count":4,"labels":["20.07","19.11","20.03","20.07"],"tick_utc":["2025-07-20T12:00:00Z","2025-11-19T12:00:00Z","2026-03-20T03:18:49Z","2026-07-20T04:25:44Z"]}</desc>

 <metadata>
  <rdf:RDF xmlns:dc="http://purl.org/dc/elements/1.1/" xmlns:cc="http://creativecommons.org/ns#" xmlns:rdf="http://www.w3.org/1999/02/22-rdf-syntax-ns#">
   <cc:Work>
    <dc:type rdf:resource="http://purl.org/dc/dcmitype/StillImage"/>
    <dc:date>2026-07-20T04:25:45.352593</dc:date>
    <dc:format>image/svg+xml</dc:format>
    <dc:creator>
     <cc:Agent>
      <dc:title>Matplotlib v3.11.1, https://matplotlib.org/</dc:title>
     </cc:Agent>
    </dc:creator>
   </cc:Work>
  </rdf:RDF>
 </metadata>
 <defs>
  <style type="text/css">*{stroke-linejoin: round; stroke-linecap: butt}</style>
 </defs>
 <g id="figure_1">
  <g id="patch_1">
   <path d="M 0 60 
L 144 60 
L 144 0 
L 0 0 
L 0 60 
z
" style="fill: none; opacity: 0"/>
  </g>
  <g id="axes_1">
   <g id="patch_2">
    <path d="M 5.76 52.8 
L 138.24 52.8 
L 138.24 3.6 
L 5.76 3.6 
L 5.76 52.8 
z
" style="fill: none"/>
   </g>
   <g id="matplotlib.axis_1"/>
   <g id="matplotlib.axis_2"/>
   <g id="line2d_1">
    <path d="M 5.76 42.96 
L 138.24 42.96 
" clip-path="url(#pf7562335d8)" style="fill: none; stroke: #b2b2b2; stroke-opacity: 0.35; stroke-width: 0.5; stroke-linecap: square"/>
   </g>
   <g id="line2d_2">
    <path d="M 5.76 33.12 
L 138.24 33.12 
" clip-path="url(#pf7562335d8)" style="fill: none; stroke: #b2b2b2; stroke-opacity: 0.35; stroke-width: 0.5; stroke-linecap: square"/>
   </g>
   <g id="line2d_3">
    <path d="M 5.76 23.28 
L 138.24 23.28 
" clip-path="url(#pf7562335d8)" style="fill: none; stroke: #b2b2b2; stroke-opacity: 0.35; stroke-width: 0.5; stroke-linecap: square"/>
   </g>
   <g id="line2d_4">
    <path d="M 5.76 13.44 
L 138.24 13.44 
" clip-path="url(#pf7562335d8)" style="fill: none; stroke: #b2b2b2; stroke-opacity: 0.35; stroke-width: 0.5; stroke-linecap: square"/>
   </g>
   <g id="line2d_5">
    <path d="M 5.76 38.57628 
L 6.123273 38.04492 
L 6.486546 36.03264 
L 6.849819 34.88136 
L 7.213091 36.92316 
L 7.576364 37.8432 
L 7.939637 37.37088 
L 8.30291 37.53324 
L 8.666183 37.056 
L 9.029456 37.77924 
L 9.392729 38.02032 
L 9.756002 38.45328 
L 10.119274 39.1962 
L 10.482547 40.41636 
L 10.84582 40.97232 
L 11.209093 40.53444 
L 11.572366 39.55536 
L 11.935639 40.24908 
L 12.298912 39.7128 
L 12.662185 38.778 
L 13.025457 38.59104 
L 13.752003 37.794 
L 14.115276 38.82228 
L 14.478549 36.53448 
L 14.841822 35.334 
L 15.568368 37.44468 
L 15.93164 36.90348 
L 16.294913 36.65748 
L 17.021459 38.64516 
L 17.384732 37.2282 
L 17.748005 38.14332 
L 18.111278 35.53572 
L 18.474551 35.04372 
L 18.837823 34.80264 
L 19.201096 37.23804 
L 20.290915 33.67104 
L 20.654188 34.90596 
L 21.744006 35.9736 
L 22.107279 34.36476 
L 22.470552 34.1778 
L 22.833825 35.22084 
L 23.197098 35.11752 
L 23.560371 35.54556 
L 25.013462 32.44104 
L 25.376735 31.83096 
L 25.740008 30.06468 
L 26.103281 30.01056 
L 26.466554 30.291 
L 26.829827 31.16184 
L 27.1931 30.74856 
L 27.556372 29.71536 
L 27.919645 29.37588 
L 28.282918 30.57636 
L 28.646191 30.42876 
L 29.009464 30.79284 
L 29.372737 32.91828 
L 29.73601 33.72024 
L 30.099283 34.05972 
L 30.462555 36.5886 
L 30.825828 34.90104 
L 31.189101 35.10276 
L 31.552374 34.16796 
L 31.915647 33.8826 
L 32.27892 34.43364 
L 33.005466 31.05852 
L 33.368738 31.26024 
L 33.732011 31.92936 
L 34.095284 31.85064 
L 34.458557 31.3242 
L 34.82183 32.84448 
L 35.185103 31.78176 
L 35.548376 32.85924 
L 35.911649 36.8838 
L 36.274921 38.39424 
L 36.638194 35.95392 
L 37.001467 34.53696 
L 37.36474 35.20608 
L 38.091286 37.57752 
L 38.454559 37.90716 
L 38.817832 37.18884 
L 39.181104 37.18392 
L 39.544377 36.89364 
L 39.90765 37.42008 
L 40.270923 38.17284 
L 40.634196 36.687 
L 40.997469 36.42132 
L 41.360742 36.34752 
L 41.724015 35.56032 
L 42.087287 35.72268 
L 42.45056 36.29832 
L 42.813833 36.32292 
L 43.177106 37.61688 
L 43.540379 37.2282 
L 43.903652 37.34628 
L 44.266925 37.23804 
L 44.630198 40.008 
L 44.99347 41.36592 
L 45.356743 40.43604 
L 45.720016 41.44956 
L 46.083289 40.53444 
L 46.446562 41.02152 
L 46.809835 40.22448 
L 47.173108 39.79644 
L 47.536381 41.51844 
L 47.899653 41.66604 
L 48.626199 43.51596 
L 48.989472 43.43724 
L 49.352745 43.71276 
L 49.716018 44.59836 
L 50.079291 43.30932 
L 51.169109 44.88372 
L 51.532382 44.99688 
L 51.895655 44.57868 
L 52.258928 43.5996 
L 52.622201 43.51596 
L 52.985474 43.00428 
L 53.348747 43.2798 
L 53.712019 43.71768 
L 54.438565 44.0916 
L 54.801838 45.11004 
L 55.165111 43.55532 
L 55.528384 42.72876 
L 56.25493 44.27364 
L 56.981475 44.47536 
L 57.344748 44.25888 
L 57.708021 43.64388 
L 58.071294 43.84068 
L 58.434567 43.85052 
L 58.79784 44.36712 
L 59.161113 44.26872 
L 59.524385 44.74104 
L 59.887658 44.98704 
L 60.250931 44.84436 
L 60.614204 45.58728 
L 60.977477 46.0596 
L 61.34075 45.18384 
L 62.793841 45.47904 
L 63.157114 45.65616 
L 63.520387 45.98088 
L 64.246933 45.38556 
L 64.610206 45.31668 
L 64.973479 45.58728 
L 65.336751 45.35604 
L 65.700024 45.40032 
L 66.063297 45.11496 
L 66.42657 44.42124 
L 67.153116 44.18508 
L 67.879662 43.24044 
L 68.242934 43.8702 
L 68.606207 43.60944 
L 68.96948 43.92924 
L 69.332753 43.93416 
L 69.696026 43.46184 
L 70.059299 43.5012 
L 70.422572 42.72384 
L 70.785845 42.51228 
L 71.149117 43.08792 
L 71.51239 42.75828 
L 71.875663 42.90096 
L 72.602209 44.2392 
L 72.965482 45.23304 
L 73.328755 44.77548 
L 74.0553 45.04608 
L 74.418573 45.07068 
L 74.781846 46.1334 
L 75.145119 45.4446 
L 75.508392 45.06084 
L 75.871665 45.33144 
L 76.234938 46.30068 
L 76.59821 46.34496 
L 76.961483 47.89476 
L 77.324756 48.26376 
L 77.688029 47.96364 
L 78.646489 50.04972 
L 79.008206 49.24776 
L 80.467924 49.59708 
L 80.82989 49.80372 
L 81.193053 49.86768 
L 81.896062 49.24776 
L 82.282636 49.48392 
L 82.600277 49.37568 
L 83.008606 49.479 
L 83.371437 49.7004 
L 84.461063 49.49376 
L 84.825429 49.98576 
L 85.158013 49.96608 
L 85.550667 49.7004 
L 85.912321 49.27236 
L 86.274904 49.37076 
L 86.633897 49.68072 
L 87.005423 49.25268 
L 87.364946 49.51344 
L 88.454357 49.09032 
L 89.909105 49.58724 
L 90.270044 49.36092 
L 90.997876 49.45932 
L 91.360447 49.16904 
L 92.093459 49.27236 
L 92.457758 48.87384 
L 93.180717 48.70164 
L 93.544091 49.03128 
L 93.903828 49.1592 
L 94.264973 49.08048 
L 94.997805 49.36584 
L 95.748043 48.90828 
L 96.088679 49.05096 
L 96.81221 49.64628 
L 98.272113 49.59708 
L 98.630601 49.8726 
L 99.354452 49.80864 
L 100.448319 49.83816 
L 100.812181 49.50852 
L 101.174188 49.68564 
L 101.898522 49.48884 
L 102.633448 49.69056 
L 102.994408 49.40028 
L 103.357403 49.58724 
L 104.444048 49.19856 
L 104.812118 49.43472 
L 105.17629 49.50852 
L 106.988034 49.37568 
L 107.356958 49.4052 
L 107.724145 49.29204 
L 108.088179 49.5528 
L 108.45046 49.50852 
L 108.814342 49.64136 
L 109.535586 49.56264 
L 109.906234 49.57248 
L 110.26938 49.42488 
L 110.624652 49.49376 
L 111.357694 49.25268 
L 111.714921 49.24284 
L 112.079522 48.80004 
L 112.450115 48.85416 
L 113.174483 48.63276 
L 113.539484 48.66228 
L 113.902353 49.09524 
L 114.267417 48.99192 
L 114.994749 49.34616 
L 115.361549 49.47408 
L 116.086792 49.54788 
L 116.452133 49.3314 
L 116.812623 49.34616 
L 117.170905 49.51836 
L 117.907983 49.41504 
L 118.994867 49.7742 
L 120.087133 49.61676 
L 120.815478 49.7988 
L 121.544866 50.45808 
L 121.902156 50.59092 
L 122.259845 50.99928 
L 122.995805 50.74344 
L 123.352144 50.62536 
L 123.719184 50.80248 
L 125.175812 50.56632 
L 125.916506 50.23176 
L 126.268208 50.2416 
L 127.001569 50.55156 
L 128.095054 50.217 
L 129.164359 50.59092 
L 129.529494 50.59092 
L 129.888315 50.33016 
L 130.258512 50.4384 
L 130.624413 50.3892 
L 132.427172 49.6266 
L 132.795763 49.7742 
L 133.520379 49.76436 
L 134.248064 49.98084 
L 134.610517 49.8972 
L 136.050709 50.15796 
L 136.414074 49.98084 
L 137.503065 50.1432 
L 138.24 50.05956 
L 138.24 50.05956 
" clip-path="url(#pf7562335d8)" style="fill: none; stroke: #bebebe; stroke-width: 0.6; stroke-linecap: round"/>
   </g>
   <g id="line2d_6">
    <path d="M 5.76 32.89368 
L 6.123273 31.73256 
L 6.486546 31.68336 
L 6.849819 31.8162 
L 7.213091 32.64276 
L 7.576364 32.0868 
L 8.30291 31.85064 
L 8.666183 30.98964 
L 9.029456 31.53576 
L 9.392729 31.521 
L 9.756002 31.38816 
L 10.119274 32.17044 
L 10.482547 33.68088 
L 10.84582 34.28604 
L 11.209093 33.58248 
L 11.572366 32.0376 
L 11.935639 32.76576 
L 12.298912 32.259 
L 12.662185 30.65508 
L 13.025457 29.93676 
L 13.38873 28.14588 
L 14.115276 28.40664 
L 14.478549 25.73508 
L 14.841822 24.62316 
L 15.205095 26.10408 
L 15.568368 26.97984 
L 15.93164 27.00936 
L 16.294913 26.58132 
L 16.658186 27.7818 
L 17.021459 29.49888 
L 17.384732 27.68832 
L 17.748005 28.44108 
L 18.111278 24.16068 
L 18.474551 24.55428 
L 18.837823 24.51984 
L 19.201096 27.32916 
L 19.564369 25.7646 
L 19.927642 26.48784 
L 20.290915 26.43372 
L 20.654188 27.44724 
L 21.380734 27.27504 
L 21.744006 27.8802 
L 22.107279 27.72276 
L 22.470552 26.84208 
L 22.833825 27.91956 
L 23.197098 27.8556 
L 23.560371 28.09668 
L 23.923644 27.87528 
L 24.650189 27.83592 
L 25.013462 27.57024 
L 25.376735 26.77812 
L 25.740008 25.01184 
L 26.466554 25.71048 
L 26.829827 26.31564 
L 27.1931 26.45832 
L 27.556372 25.8384 
L 27.919645 25.84824 
L 28.282918 26.6994 
L 28.646191 26.62068 
L 29.009464 26.8224 
L 29.372737 28.61328 
L 30.099283 28.97244 
L 30.462555 30.99456 
L 30.825828 29.76456 
L 31.189101 29.8974 
L 31.552374 29.02164 
L 31.915647 28.50012 
L 32.27892 29.00688 
L 33.005466 26.601 
L 33.368738 26.3796 
L 33.732011 26.5764 
L 34.095284 26.3796 
L 34.458557 25.1496 
L 34.82183 26.81256 
L 35.185103 26.29596 
L 35.548376 27.41772 
L 35.911649 31.19136 
L 36.274921 31.80144 
L 36.638194 28.89864 
L 37.001467 28.28364 
L 38.091286 30.80268 
L 38.454559 31.22088 
L 38.817832 30.8076 
L 39.181104 30.13356 
L 39.544377 30.17784 
L 40.270923 31.42752 
L 40.634196 31.04376 
L 40.997469 30.49764 
L 41.360742 30.3648 
L 41.724015 28.88388 
L 42.087287 29.15448 
L 42.45056 30.15324 
L 43.177106 31.4226 
L 43.903652 30.9306 
L 44.266925 30.66 
L 44.99347 34.99944 
L 45.356743 34.07448 
L 45.720016 34.9158 
L 46.083289 34.02528 
L 46.446562 34.26144 
L 46.809835 33.0216 
L 47.173108 33.10524 
L 47.536381 34.1532 
L 47.899653 34.2024 
L 48.626199 36.34752 
L 48.989472 35.89488 
L 49.716018 36.94776 
L 50.079291 36.2688 
L 50.442564 36.97236 
L 50.805836 38.286 
L 51.169109 38.76324 
L 51.532382 38.73864 
L 51.895655 38.51724 
L 52.258928 37.42992 
L 52.622201 37.42008 
L 52.985474 36.90348 
L 53.348747 36.98712 
L 53.712019 36.86412 
L 54.075292 37.16424 
L 54.438565 37.14948 
L 54.801838 38.52216 
L 55.528384 35.71776 
L 55.891657 36.15564 
L 56.25493 36.93792 
L 56.981475 36.72636 
L 57.344748 36.21468 
L 57.708021 34.8174 
L 58.071294 34.7928 
L 58.434567 35.42748 
L 58.79784 36.49512 
L 59.161113 36.28356 
L 59.524385 36.6378 
L 59.887658 37.3512 
L 60.250931 37.3512 
L 60.614204 38.31552 
L 60.977477 38.32536 
L 61.34075 37.26264 
L 61.704023 37.26264 
L 62.067296 37.09044 
L 62.430568 37.06092 
L 62.793841 37.34628 
L 63.157114 37.48404 
L 63.520387 37.77924 
L 64.246933 37.45944 
L 64.973479 37.56276 
L 65.336751 37.31184 
L 65.700024 37.33644 
L 66.063297 37.09536 
L 66.42657 36.23928 
L 67.153116 36.11628 
L 67.879662 35.0142 
L 68.242934 35.93424 
L 68.606207 36.36228 
L 68.96948 36.50988 
L 69.332753 36.5148 
L 69.696026 36.25404 
L 70.059299 36.46068 
L 70.422572 34.83708 
L 70.785845 34.57632 
L 71.51239 35.00436 
L 71.875663 34.93056 
L 72.238936 35.088 
L 72.602209 35.78664 
L 72.965482 37.55292 
L 73.328755 37.26756 
L 73.692028 37.46436 
L 74.418573 37.45944 
L 74.781846 38.41392 
L 75.508392 36.95268 
L 75.871665 37.05108 
L 76.234938 38.37948 
L 76.59821 39.20604 
L 76.961483 41.03136 
L 77.324756 42.26628 
L 77.688029 41.73492 
L 77.994713 42.23676 
L 78.646489 44.89356 
L 79.008206 43.6242 
L 79.740058 43.53072 
L 80.105404 43.72752 
L 80.82989 44.436 
L 81.193053 44.49012 
L 81.551958 43.81608 
L 81.896062 43.7226 
L 82.282636 44.5344 
L 82.600277 44.19 
L 83.008606 44.21952 
L 83.732587 44.51472 
L 84.461063 44.3868 
L 84.825429 45.174 
L 85.158013 45.23796 
L 85.550667 44.81484 
L 85.912321 43.821 
L 86.274904 44.01288 
L 86.633897 44.66232 
L 87.005423 43.93908 
L 87.364946 44.39664 
L 87.729064 44.12112 
L 88.090302 44.33268 
L 88.454357 43.3044 
L 88.817457 43.6242 
L 89.177942 44.29824 
L 89.544743 44.53932 
L 89.909105 44.30808 
L 90.270044 43.8702 
L 90.633174 44.00304 
L 90.997876 43.97844 
L 91.360447 43.41756 
L 92.093459 43.48644 
L 92.814674 41.73984 
L 93.180717 41.7546 
L 93.903828 43.14204 
L 94.264973 43.083 
L 94.633679 43.35852 
L 94.997805 43.78164 
L 95.357714 43.21584 
L 95.748043 42.9354 
L 96.088679 43.10268 
L 96.81221 44.25396 
L 97.905724 43.74228 
L 98.272113 43.46676 
L 98.99429 43.79148 
L 99.723195 43.77672 
L 100.087405 43.2552 
L 100.448319 43.40772 
L 100.812181 42.49752 
L 101.174188 42.90588 
L 101.540804 42.8616 
L 101.898522 42.41388 
L 102.633448 42.79764 
L 102.994408 41.57256 
L 103.357403 41.86284 
L 103.722249 41.63652 
L 104.084782 41.85792 
L 104.444048 41.22324 
L 105.17629 42.1482 
L 105.53797 41.96616 
L 105.900116 41.59224 
L 106.629096 41.99076 
L 106.988034 41.91696 
L 107.356958 41.98584 
L 107.724145 41.41512 
L 108.088179 42.15312 
L 108.45046 41.96124 
L 108.814342 42.43848 
L 109.535586 42.02028 
L 109.906234 42.0252 
L 110.26938 41.40528 
L 110.994324 41.52336 
L 111.714921 42.1974 
L 112.079522 41.8776 
L 112.816255 41.8038 
L 113.174483 41.976 
L 113.539484 42.00552 
L 113.902353 42.3942 
L 114.267417 42.27612 
L 115.361549 43.31424 
L 115.72222 43.2306 
L 116.086792 43.39296 
L 116.452133 43.16172 
L 116.812623 43.24536 
L 117.170905 43.71768 
L 117.53993 43.33392 
L 118.632754 43.67832 
L 118.994867 44.32776 
L 119.358409 44.13588 
L 119.716443 44.16048 
L 120.087133 43.96368 
L 120.455779 44.2392 
L 120.815478 44.19984 
L 121.182838 45.16908 
L 121.902156 46.00548 
L 122.259845 47.57004 
L 122.995805 46.64016 
L 123.352144 46.34496 
L 123.719184 46.82712 
L 124.449287 46.51716 
L 124.809903 46.5516 
L 125.175812 46.46304 
L 126.268208 45.6414 
L 126.62974 46.09404 
L 127.001569 46.3302 
L 128.095054 46.035 
L 128.436611 46.14324 
L 129.529494 47.38308 
L 129.888315 47.14692 
L 130.624413 47.22072 
L 131.706142 46.79268 
L 132.427172 45.92184 
L 133.162555 45.75456 
L 134.248064 46.02024 
L 134.963064 45.61188 
L 135.331769 45.51348 
L 135.695837 45.72504 
L 136.050709 45.72996 
L 136.414074 45.08052 
L 136.778256 44.76564 
L 137.141587 45.23796 
L 137.503065 45.29208 
L 137.871799 45.1248 
L 138.24 45.08544 
L 138.24 45.08544 
" clip-path="url(#pf7562335d8)" style="fill: none; stroke: #4a8dff; stroke-width: 0.6; stroke-linecap: round"/>
   </g>
   <g id="line2d_7">
    <path d="M 5.76 27.31932 
L 6.123273 27.63912 
L 6.486546 27.52596 
L 6.849819 26.3058 
L 7.213091 26.96016 
L 7.576364 27.09792 
L 7.939637 27.49644 
L 8.30291 27.2898 
L 8.666183 26.57148 
L 9.029456 27.27012 
L 9.756002 27.35376 
L 10.482547 29.62188 
L 10.84582 29.96136 
L 11.209093 29.14956 
L 11.572366 28.68216 
L 11.935639 29.184 
L 12.298912 28.7412 
L 12.662185 27.5358 
L 13.025457 27.91956 
L 13.38873 28.00812 
L 13.752003 26.64528 
L 14.115276 26.88636 
L 14.478549 26.1828 
L 14.841822 24.52476 
L 15.205095 27.0684 
L 15.568368 27.59484 
L 16.294913 27.49644 
L 16.658186 28.13112 
L 17.021459 29.8482 
L 17.384732 29.12004 
L 17.748005 30.03024 
L 18.111278 27.84576 
L 18.837823 29.54316 
L 19.201096 31.13232 
L 19.564369 30.31068 
L 19.927642 30.62064 
L 20.290915 29.97612 
L 20.654188 31.97364 
L 21.017461 31.82112 
L 21.380734 32.0868 
L 21.744006 31.63416 
L 22.107279 30.6354 
L 22.470552 30.37464 
L 22.833825 30.86172 
L 23.197098 30.89616 
L 23.560371 31.11756 
L 24.286917 30.22212 
L 24.650189 30.45828 
L 25.013462 29.2578 
L 25.376735 28.50504 
L 25.740008 28.18032 
L 26.103281 28.2738 
L 26.466554 28.569 
L 26.829827 28.55424 
L 27.1931 27.8802 
L 27.556372 28.03272 
L 27.919645 27.69324 
L 28.282918 28.42632 
L 28.646191 28.3968 
L 29.009464 28.60344 
L 29.372737 29.88756 
L 29.73601 30.22212 
L 30.099283 29.58252 
L 30.462555 31.73256 
L 30.825828 31.36356 
L 31.189101 31.39308 
L 31.915647 29.09544 
L 32.27892 29.2332 
L 32.642193 27.02412 
L 33.368738 25.16928 
L 33.732011 25.10532 
L 34.458557 23.92452 
L 34.82183 25.53336 
L 35.185103 24.62808 
L 35.548376 25.4448 
L 35.911649 29.64156 
L 36.274921 30.80268 
L 36.638194 28.65756 
L 37.001467 28.6428 
L 37.728013 30.87156 
L 38.091286 32.17044 
L 38.454559 32.97732 
L 38.817832 32.628 
L 39.181104 31.90476 
L 39.544377 30.92076 
L 39.90765 31.96872 
L 40.270923 32.39676 
L 40.634196 31.19628 
L 41.360742 30.42384 
L 41.724015 29.0118 
L 42.087287 29.15448 
L 42.45056 29.76456 
L 42.813833 31.2012 
L 43.177106 32.09172 
L 43.540379 31.43244 
L 44.266925 30.90108 
L 44.99347 35.35368 
L 45.356743 34.24668 
L 45.720016 35.5062 
L 46.083289 34.48284 
L 46.446562 35.02896 
L 46.809835 33.8334 
L 47.173108 33.243 
L 47.536381 34.69932 
L 48.262926 36.2934 
L 48.626199 38.901 
L 48.989472 38.37948 
L 49.352745 38.92068 
L 49.716018 40.09164 
L 50.079291 39.70788 
L 50.442564 40.4262 
L 50.805836 42.75336 
L 51.169109 43.54548 
L 51.532382 43.72752 
L 52.258928 41.976 
L 52.622201 42.42864 
L 52.985474 40.86408 
L 53.348747 40.47048 
L 54.438565 40.89852 
L 54.801838 42.9354 
L 55.165111 40.43604 
L 55.528384 39.31428 
L 55.891657 40.04244 
L 56.25493 41.43972 
L 56.618202 41.47416 
L 56.981475 41.02152 
L 57.344748 40.7952 
L 57.708021 39.75708 
L 58.071294 40.11132 
L 58.434567 39.87024 
L 58.79784 40.94772 
L 59.161113 40.97232 
L 59.887658 42.87144 
L 60.250931 42.17772 
L 60.614204 43.04364 
L 60.977477 43.34868 
L 61.34075 42.03504 
L 62.067296 41.8038 
L 62.430568 41.84316 
L 62.793841 42.37944 
L 63.157114 42.26628 
L 63.520387 42.468 
L 63.88366 42.42864 
L 64.246933 42.18264 
L 64.610206 42.1728 
L 64.973479 42.50244 
L 65.336751 41.88252 
L 65.700024 42.32532 
L 66.42657 41.13468 
L 67.153116 40.42128 
L 67.516389 39.16176 
L 67.879662 39.28968 
L 68.242934 40.48032 
L 69.332753 40.88376 
L 70.059299 40.53936 
L 70.422572 38.50248 
L 70.785845 37.63656 
L 71.149117 38.34012 
L 71.51239 38.37456 
L 71.875663 38.5812 
L 72.602209 39.8358 
L 72.965482 41.93172 
L 73.328755 41.42004 
L 74.0553 41.39052 
L 74.418573 41.5086 
L 74.781846 42.80256 
L 75.145119 41.93664 
L 75.508392 41.49384 
L 75.871665 41.51352 
L 76.234938 43.78164 
L 76.59821 43.9932 
L 76.961483 46.66968 
L 77.324756 47.55036 
L 77.688029 46.64508 
L 78.283401 48.89352 
L 78.646489 49.84308 
L 79.008206 49.00176 
L 79.379783 49.233 
L 79.740058 48.97716 
L 80.467924 49.36092 
L 81.193053 49.58724 
L 81.551958 49.28712 
L 81.896062 49.16904 
L 82.282636 49.39044 
L 82.600277 49.29696 
L 83.371437 49.55772 
L 84.461063 49.41996 
L 84.825429 49.8234 
L 85.158013 49.86768 
L 85.550667 49.72992 
L 85.912321 49.39536 
L 86.633897 49.6758 
L 87.005423 49.47408 
L 87.364946 49.60692 
L 87.729064 49.37568 
L 88.090302 49.36584 
L 88.454357 48.6672 
L 89.544743 49.54788 
L 89.909105 49.5282 
L 90.270044 49.09032 
L 90.997876 49.2084 
L 91.360447 48.93288 
L 92.093459 48.89844 
L 92.814674 48.1998 
L 93.180717 48.28344 
L 93.544091 48.88368 
L 93.903828 49.04604 
L 94.264973 49.00176 
L 94.997805 49.38552 
L 95.357714 49.04112 
L 95.748043 48.92796 
L 96.088679 48.987 
L 96.81221 49.66104 
L 98.272113 49.40028 
L 98.630601 49.56756 
L 99.354452 49.56264 
L 99.723195 49.53312 
L 100.087405 49.25268 
L 100.448319 49.29696 
L 100.812181 48.89352 
L 101.174188 48.96732 
L 101.898522 48.5934 
L 102.268312 48.84432 
L 102.633448 48.95748 
L 102.994408 48.30804 
L 103.357403 48.34248 
L 103.722249 48.21456 
L 104.084782 48.26376 
L 104.444048 47.41752 
L 104.812118 48.05712 
L 105.17629 48.26376 
L 105.53797 48.01776 
L 105.900116 47.23548 
L 106.988034 47.1666 
L 107.356958 47.31912 
L 107.724145 46.49256 
L 108.088179 47.64876 
L 108.45046 47.5356 
L 108.814342 48.0276 
L 109.535586 46.81728 
L 109.906234 46.92552 
L 110.26938 45.85788 
L 110.994324 45.29208 
L 111.357694 45.58728 
L 111.714921 46.2564 
L 112.079522 45.7152 
L 113.539484 45.42492 
L 113.902353 46.38432 
L 114.267417 45.57744 
L 114.626052 46.51716 
L 115.361549 47.54544 
L 116.086792 47.66844 
L 116.452133 47.05344 
L 116.812623 47.22564 
L 117.170905 48.07188 
L 117.907983 47.37324 
L 118.632754 48.07188 
L 118.994867 48.59832 
L 119.358409 48.52452 
L 119.716443 48.5688 
L 120.087133 48.38676 
L 120.455779 48.55404 
L 121.544866 49.93656 
L 121.902156 49.98084 
L 122.259845 50.3646 
L 122.995805 50.07432 
L 123.352144 49.99068 
L 123.719184 50.217 
L 124.449287 49.98084 
L 125.175812 49.87752 
L 125.55116 49.69548 
L 126.268208 49.7004 
L 127.001569 50.06448 
L 127.721148 49.89228 
L 128.436611 49.9464 
L 129.888315 50.31048 
L 131.349231 50.41872 
L 132.427172 50.0694 
L 133.87378 50.05956 
L 134.248064 50.11368 
L 134.610517 49.91196 
L 135.331769 49.8972 
L 136.050709 50.08908 
L 136.414074 49.84308 
L 136.778256 49.85292 
L 137.141587 49.97592 
L 138.24 49.83816 
L 138.24 49.83816 
" clip-path="url(#pf7562335d8)" style="fill: none; stroke: #f5841e; stroke-width: 0.7; stroke-linecap: round"/>
   </g>
  </g>
 </g>
 <defs>
  <clipPath id="pf7562335d8">
   <rect x="5.76" y="3.6" width="132.48" height="49.2"/>
  </clipPath>
 </defs>
</svg>
