<?xml version="1.0" encoding="utf-8" standalone="no"?>
<!DOCTYPE svg PUBLIC "-//W3C//DTD SVG 1.1//EN"
  "http://www.w3.org/Graphics/SVG/1.1/DTD/svg11.dtd">
<svg xmlns:xlink="http://www.w3.org/1999/xlink" width="144pt" height="60pt" viewBox="0 0 144 60" xmlns="http://www.w3.org/2000/svg" version="1.1">
  <desc id="nav-meta">{"window":"2w","count":4,"labels":["9 Jan","14 Jan","20 Jan","22 Jan"],"idxs":[0,44,88,132]}</desc>

 <metadata>
  <rdf:RDF xmlns:dc="http://purl.org/dc/elements/1.1/" xmlns:cc="http://creativecommons.org/ns#" xmlns:rdf="http://www.w3.org/1999/02/22-rdf-syntax-ns#">
   <cc:Work>
    <dc:type rdf:resource="http://purl.org/dc/dcmitype/StillImage"/>
    <dc:date>2026-01-22T23:48:47.669240</dc:date>
    <dc:format>image/svg+xml</dc:format>
    <dc:creator>
     <cc:Agent>
      <dc:title>Matplotlib v3.10.8, https://matplotlib.org/</dc:title>
     </cc:Agent>
    </dc:creator>
   </cc:Work>
  </rdf:RDF>
 </metadata>
 <defs>
  <style type="text/css">*{stroke-linejoin: round; stroke-linecap: butt}</style>
 </defs>
 <g id="figure_1">
  <g id="patch_1">
   <path d="M 0 60 
L 144 60 
L 144 0 
L 0 0 
L 0 60 
z
" style="fill: none; opacity: 0"/>
  </g>
  <g id="axes_1">
   <g id="patch_2">
    <path d="M 4.32 52.8 
L 139.68 52.8 
L 139.68 3.6 
L 4.32 3.6 
L 4.32 52.8 
z
" style="fill: none"/>
   </g>
   <g id="matplotlib.axis_1"/>
   <g id="matplotlib.axis_2"/>
   <g id="line2d_1">
    <path d="M 4.32 42.96 
L 139.68 42.96 
" clip-path="url(#p305afedf6b)" style="fill: none; stroke: #b2b2b2; stroke-opacity: 0.35; stroke-width: 0.5; stroke-linecap: square"/>
   </g>
   <g id="line2d_2">
    <path d="M 4.32 33.12 
L 139.68 33.12 
" clip-path="url(#p305afedf6b)" style="fill: none; stroke: #b2b2b2; stroke-opacity: 0.35; stroke-width: 0.5; stroke-linecap: square"/>
   </g>
   <g id="line2d_3">
    <path d="M 4.32 23.28 
L 139.68 23.28 
" clip-path="url(#p305afedf6b)" style="fill: none; stroke: #b2b2b2; stroke-opacity: 0.35; stroke-width: 0.5; stroke-linecap: square"/>
   </g>
   <g id="line2d_4">
    <path d="M 4.32 13.44 
L 139.68 13.44 
" clip-path="url(#p305afedf6b)" style="fill: none; stroke: #b2b2b2; stroke-opacity: 0.35; stroke-width: 0.5; stroke-linecap: square"/>
   </g>
   <g id="line2d_5">
    <path d="M 4.828872 38.34996 
L 6.093865 38.06952 
L 7.358858 38.146016 
L 8.370853 38.22696 
L 9.382847 38.329696 
L 10.394841 38.44344 
L 11.659834 38.541506 
L 12.671829 38.5812 
L 23.29777 38.490222 
L 24.562763 38.27616 
L 28.863739 38.172395 
L 29.875733 38.1138 
L 30.381731 38.075246 
L 31.393725 37.75464 
L 32.658718 37.856376 
L 33.670712 38.04984 
L 34.935705 38.135732 
L 35.9477 38.19744 
L 36.453697 38.171061 
L 37.71869 37.83828 
L 38.983683 37.752972 
L 39.995677 37.68576 
L 42.525663 37.596088 
L 44.043655 37.4496 
L 46.826639 37.347058 
L 49.862623 37.1298 
L 50.874617 37.219444 
L 51.886611 37.4988 
L 53.151604 37.425556 
L 54.416597 37.34628 
L 56.946583 37.452213 
L 57.958578 37.85304 
L 60.235565 37.772819 
L 61.24756 37.671 
L 62.259554 37.578048 
L 63.271548 37.45452 
L 72.379498 37.562343 
L 73.391492 37.68576 
L 80.98145 37.74972 
L 81.234449 37.828857 
L 82.246443 38.8272 
L 86.041422 38.737139 
L 87.053417 38.70912 
L 88.065411 38.832759 
L 89.077405 38.86656 
L 89.330404 38.881987 
L 90.342398 39.41268 
L 91.86039 39.498683 
L 92.872384 39.57996 
L 99.956345 39.495347 
L 100.715341 39.3438 
L 101.980334 39.2695 
L 102.992328 39.18144 
L 104.257321 39.270334 
L 105.269316 39.30936 
L 110.076289 39.379268 
L 111.088283 39.52092 
L 139.171128 39.53076 
L 139.171128 39.53076 
" clip-path="url(#p305afedf6b)" style="fill: none; stroke: #bebebe; stroke-width: 0.6; stroke-linecap: round"/>
   </g>
   <g id="line2d_6">
    <path d="M 4.828872 33.26268 
L 6.346864 33.342484 
L 7.358858 33.42504 
L 8.623851 33.51827 
L 9.635846 33.55296 
L 15.454813 33.443136 
L 26.586752 33.179791 
L 27.345747 33.020794 
L 28.61074 33.25776 
L 36.200698 33.158637 
L 38.477686 33.08556 
L 39.48968 33.060543 
L 40.501675 32.64276 
L 41.513669 32.600954 
L 42.525663 31.7178 
L 48.091632 31.616815 
L 48.850628 31.46688 
L 49.609624 31.46688 
L 50.874617 31.9392 
L 51.886611 31.841134 
L 52.898606 31.52592 
L 54.416597 31.611311 
L 54.922595 31.738314 
L 55.934589 32.078378 
L 57.958578 32.061533 
L 58.970572 31.932974 
L 60.488564 32.04744 
L 67.572525 31.955461 
L 69.596513 31.886748 
L 71.367504 31.874712 
L 75.162482 31.861342 
L 78.451464 31.68336 
L 79.21046 31.759662 
L 80.222454 32.586833 
L 82.75244 32.595283 
L 85.535425 32.56896 
L 86.547419 32.652795 
L 87.559414 32.85432 
L 88.31841 32.873666 
L 89.330404 33.42504 
L 90.342398 33.435936 
L 91.354393 33.9072 
L 93.125383 34.015218 
L 94.137377 34.04988 
L 95.149372 34.152616 
L 96.161366 34.18764 
L 100.715341 34.103166 
L 101.727335 33.84816 
L 103.245327 33.930883 
L 104.51032 33.96624 
L 108.811296 34.187723 
L 109.82329 34.45332 
L 139.171128 34.39428 
L 139.171128 34.39428 
" clip-path="url(#p305afedf6b)" style="fill: none; stroke: #4a8dff; stroke-width: 0.7; stroke-linecap: round"/>
   </g>
   <g id="line2d_7">
    <path d="M 4.828872 38.35488 
L 6.093865 38.427791 
L 7.10586 38.655 
L 13.430825 38.554043 
L 15.707812 38.547427 
L 19.249792 38.54159 
L 21.273781 38.466483 
L 26.333753 38.442884 
L 27.092749 37.987909 
L 27.345747 37.982405 
L 28.357742 38.47788 
L 31.393725 38.406081 
L 32.658718 38.163 
L 35.694701 38.109186 
L 36.706696 37.87764 
L 39.236682 37.80876 
L 39.48968 37.755668 
L 40.501675 36.86904 
L 41.766668 36.770751 
L 42.778662 36.53448 
L 45.814645 36.490617 
L 46.573641 36.08184 
L 47.585635 36.076058 
L 48.59763 35.57016 
L 49.609624 35.57016 
L 50.621618 36.122979 
L 51.886611 36.042063 
L 52.898606 35.77188 
L 53.9106 35.851934 
L 56.187588 36.564361 
L 58.211576 36.472355 
L 58.970572 36.413898 
L 60.235565 36.60336 
L 67.572525 36.494898 
L 69.090516 36.469769 
L 77.186471 36.611226 
L 78.957461 36.50004 
L 79.21046 36.593437 
L 80.222454 37.593559 
L 81.993445 37.49388 
L 86.547419 37.582301 
L 87.306415 37.87764 
L 88.31841 37.894652 
L 89.330404 38.37948 
L 90.595397 38.446192 
L 91.607391 38.62548 
L 92.619386 38.70092 
L 93.63138 38.91576 
L 95.149372 39.00382 
L 96.161366 39.03384 
L 98.944351 38.991895 
L 99.703347 38.84196 
L 101.221338 38.754401 
L 102.233332 38.71896 
L 108.558297 38.78292 
L 110.329288 39.147 
L 117.666247 39.036981 
L 121.461226 38.878318 
L 126.268199 38.976384 
L 132.593164 39.113644 
L 133.858157 39.050601 
L 135.12315 39.030365 
L 137.400138 39.068475 
L 138.918129 39.012798 
L 139.171128 38.98956 
L 139.171128 38.98956 
" clip-path="url(#p305afedf6b)" style="fill: none; stroke: #f5841e; stroke-width: 0.8; stroke-linecap: round"/>
   </g>
   <g id="text_1">
    <!-- 9 Jan -->
    <g style="fill: #8c8c8c; opacity: 0.65" transform="translate(5.083308 56.219297) scale(0.045 -0.045)">
     <defs>
      <path id="DejaVuSans-39" d="M 703 97 
L 703 672 
Q 941 559 1184 500 
Q 1428 441 1663 441 
Q 2288 441 2617 861 
Q 2947 1281 2994 2138 
Q 2813 1869 2534 1725 
Q 2256 1581 1919 1581 
Q 1219 1581 811 2004 
Q 403 2428 403 3163 
Q 403 3881 828 4315 
Q 1253 4750 1959 4750 
Q 2769 4750 3195 4129 
Q 3622 3509 3622 2328 
Q 3622 1225 3098 567 
Q 2575 -91 1691 -91 
Q 1453 -91 1209 -44 
Q 966 3 703 97 
z
M 1959 2075 
Q 2384 2075 2632 2365 
Q 2881 2656 2881 3163 
Q 2881 3666 2632 3958 
Q 2384 4250 1959 4250 
Q 1534 4250 1286 3958 
Q 1038 3666 1038 3163 
Q 1038 2656 1286 2365 
Q 1534 2075 1959 2075 
z
" transform="scale(0.015625)"/>
      <path id="DejaVuSans-20" transform="scale(0.015625)"/>
      <path id="DejaVuSans-4a" d="M 628 4666 
L 1259 4666 
L 1259 325 
Q 1259 -519 939 -900 
Q 619 -1281 -91 -1281 
L -331 -1281 
L -331 -750 
L -134 -750 
Q 284 -750 456 -515 
Q 628 -281 628 325 
L 628 4666 
z
" transform="scale(0.015625)"/>
      <path id="DejaVuSans-61" d="M 2194 1759 
Q 1497 1759 1228 1600 
Q 959 1441 959 1056 
Q 959 750 1161 570 
Q 1363 391 1709 391 
Q 2188 391 2477 730 
Q 2766 1069 2766 1631 
L 2766 1759 
L 2194 1759 
z
M 3341 1997 
L 3341 0 
L 2766 0 
L 2766 531 
Q 2569 213 2275 61 
Q 1981 -91 1556 -91 
Q 1019 -91 701 211 
Q 384 513 384 1019 
Q 384 1609 779 1909 
Q 1175 2209 1959 2209 
L 2766 2209 
L 2766 2266 
Q 2766 2663 2505 2880 
Q 2244 3097 1772 3097 
Q 1472 3097 1187 3025 
Q 903 2953 641 2809 
L 641 3341 
Q 956 3463 1253 3523 
Q 1550 3584 1831 3584 
Q 2591 3584 2966 3190 
Q 3341 2797 3341 1997 
z
" transform="scale(0.015625)"/>
      <path id="DejaVuSans-6e" d="M 3513 2113 
L 3513 0 
L 2938 0 
L 2938 2094 
Q 2938 2591 2744 2837 
Q 2550 3084 2163 3084 
Q 1697 3084 1428 2787 
Q 1159 2491 1159 1978 
L 1159 0 
L 581 0 
L 581 3500 
L 1159 3500 
L 1159 2956 
Q 1366 3272 1645 3428 
Q 1925 3584 2291 3584 
Q 2894 3584 3203 3211 
Q 3513 2838 3513 2113 
z
" transform="scale(0.015625)"/>
     </defs>
     <use xlink:href="#DejaVuSans-39"/>
     <use xlink:href="#DejaVuSans-20" transform="translate(63.623047 0)"/>
     <use xlink:href="#DejaVuSans-4a" transform="translate(95.410156 0)"/>
     <use xlink:href="#DejaVuSans-61" transform="translate(124.902344 0)"/>
     <use xlink:href="#DejaVuSans-6e" transform="translate(186.181641 0)"/>
    </g>
   </g>
   <g id="text_2">
    <!-- 14 Jan -->
    <g style="fill: #8c8c8c; opacity: 0.65" transform="translate(42.562905 56.219297) scale(0.045 -0.045)">
     <defs>
      <path id="DejaVuSans-31" d="M 794 531 
L 1825 531 
L 1825 4091 
L 703 3866 
L 703 4441 
L 1819 4666 
L 2450 4666 
L 2450 531 
L 3481 531 
L 3481 0 
L 794 0 
L 794 531 
z
" transform="scale(0.015625)"/>
      <path id="DejaVuSans-34" d="M 2419 4116 
L 825 1625 
L 2419 1625 
L 2419 4116 
z
M 2253 4666 
L 3047 4666 
L 3047 1625 
L 3713 1625 
L 3713 1100 
L 3047 1100 
L 3047 0 
L 2419 0 
L 2419 1100 
L 313 1100 
L 313 1709 
L 2253 4666 
z
" transform="scale(0.015625)"/>
     </defs>
     <use xlink:href="#DejaVuSans-31"/>
     <use xlink:href="#DejaVuSans-34" transform="translate(63.623047 0)"/>
     <use xlink:href="#DejaVuSans-20" transform="translate(127.246094 0)"/>
     <use xlink:href="#DejaVuSans-4a" transform="translate(159.033203 0)"/>
     <use xlink:href="#DejaVuSans-61" transform="translate(188.525391 0)"/>
     <use xlink:href="#DejaVuSans-6e" transform="translate(249.804688 0)"/>
    </g>
   </g>
   <g id="text_3">
    <!-- 20 Jan -->
    <g style="fill: #8c8c8c; opacity: 0.65" transform="translate(87.343657 56.219297) scale(0.045 -0.045)">
     <defs>
      <path id="DejaVuSans-32" d="M 1228 531 
L 3431 531 
L 3431 0 
L 469 0 
L 469 531 
Q 828 903 1448 1529 
Q 2069 2156 2228 2338 
Q 2531 2678 2651 2914 
Q 2772 3150 2772 3378 
Q 2772 3750 2511 3984 
Q 2250 4219 1831 4219 
Q 1534 4219 1204 4116 
Q 875 4013 500 3803 
L 500 4441 
Q 881 4594 1212 4672 
Q 1544 4750 1819 4750 
Q 2544 4750 2975 4387 
Q 3406 4025 3406 3419 
Q 3406 3131 3298 2873 
Q 3191 2616 2906 2266 
Q 2828 2175 2409 1742 
Q 1991 1309 1228 531 
z
" transform="scale(0.015625)"/>
      <path id="DejaVuSans-30" d="M 2034 4250 
Q 1547 4250 1301 3770 
Q 1056 3291 1056 2328 
Q 1056 1369 1301 889 
Q 1547 409 2034 409 
Q 2525 409 2770 889 
Q 3016 1369 3016 2328 
Q 3016 3291 2770 3770 
Q 2525 4250 2034 4250 
z
M 2034 4750 
Q 2819 4750 3233 4129 
Q 3647 3509 3647 2328 
Q 3647 1150 3233 529 
Q 2819 -91 2034 -91 
Q 1250 -91 836 529 
Q 422 1150 422 2328 
Q 422 3509 836 4129 
Q 1250 4750 2034 4750 
z
" transform="scale(0.015625)"/>
     </defs>
     <use xlink:href="#DejaVuSans-32"/>
     <use xlink:href="#DejaVuSans-30" transform="translate(63.623047 0)"/>
     <use xlink:href="#DejaVuSans-20" transform="translate(127.246094 0)"/>
     <use xlink:href="#DejaVuSans-4a" transform="translate(159.033203 0)"/>
     <use xlink:href="#DejaVuSans-61" transform="translate(188.525391 0)"/>
     <use xlink:href="#DejaVuSans-6e" transform="translate(249.804688 0)"/>
    </g>
   </g>
   <g id="text_4">
    <!-- 22 Jan -->
    <g style="fill: #8c8c8c; opacity: 0.65" transform="translate(124.823254 56.219297) scale(0.045 -0.045)">
     <use xlink:href="#DejaVuSans-32"/>
     <use xlink:href="#DejaVuSans-32" transform="translate(63.623047 0)"/>
     <use xlink:href="#DejaVuSans-20" transform="translate(127.246094 0)"/>
     <use xlink:href="#DejaVuSans-4a" transform="translate(159.033203 0)"/>
     <use xlink:href="#DejaVuSans-61" transform="translate(188.525391 0)"/>
     <use xlink:href="#DejaVuSans-6e" transform="translate(249.804688 0)"/>
    </g>
   </g>
  </g>
 </g>
 <defs>
  <clipPath id="p305afedf6b">
   <rect x="4.32" y="3.6" width="135.36" height="49.2"/>
  </clipPath>
 </defs>
</svg>
