<?xml version="1.0" encoding="utf-8" standalone="no"?>
<!DOCTYPE svg PUBLIC "-//W3C//DTD SVG 1.1//EN"
  "http://www.w3.org/Graphics/SVG/1.1/DTD/svg11.dtd">
<svg xmlns:xlink="http://www.w3.org/1999/xlink" width="144pt" height="60pt" viewBox="0 0 144 60" xmlns="http://www.w3.org/2000/svg" version="1.1">
  <desc id="nav-meta">{"window":"3m","count":4,"labels":["18.12","17.01","16.02","18.03"],"tick_utc":["2025-12-18T12:00:00Z","2026-01-17T12:00:00Z","2026-02-16T03:32:51Z","2026-03-18T03:32:26Z"]}</desc>

 <metadata>
  <rdf:RDF xmlns:dc="http://purl.org/dc/elements/1.1/" xmlns:cc="http://creativecommons.org/ns#" xmlns:rdf="http://www.w3.org/1999/02/22-rdf-syntax-ns#">
   <cc:Work>
    <dc:type rdf:resource="http://purl.org/dc/dcmitype/StillImage"/>
    <dc:date>2026-03-18T03:32:27.552052</dc:date>
    <dc:format>image/svg+xml</dc:format>
    <dc:creator>
     <cc:Agent>
      <dc:title>Matplotlib v3.10.8, https://matplotlib.org/</dc:title>
     </cc:Agent>
    </dc:creator>
   </cc:Work>
  </rdf:RDF>
 </metadata>
 <defs>
  <style type="text/css">*{stroke-linejoin: round; stroke-linecap: butt}</style>
 </defs>
 <g id="figure_1">
  <g id="patch_1">
   <path d="M 0 60 
L 144 60 
L 144 0 
L 0 0 
L 0 60 
z
" style="fill: none; opacity: 0"/>
  </g>
  <g id="axes_1">
   <g id="patch_2">
    <path d="M 5.76 52.8 
L 138.24 52.8 
L 138.24 3.6 
L 5.76 3.6 
L 5.76 52.8 
z
" style="fill: none"/>
   </g>
   <g id="matplotlib.axis_1"/>
   <g id="matplotlib.axis_2"/>
   <g id="line2d_1">
    <path d="M 5.76 42.96 
L 138.24 42.96 
" clip-path="url(#p31006a49e4)" style="fill: none; stroke: #b2b2b2; stroke-opacity: 0.35; stroke-width: 0.5; stroke-linecap: square"/>
   </g>
   <g id="line2d_2">
    <path d="M 5.76 33.12 
L 138.24 33.12 
" clip-path="url(#p31006a49e4)" style="fill: none; stroke: #b2b2b2; stroke-opacity: 0.35; stroke-width: 0.5; stroke-linecap: square"/>
   </g>
   <g id="line2d_3">
    <path d="M 5.76 23.28 
L 138.24 23.28 
" clip-path="url(#p31006a49e4)" style="fill: none; stroke: #b2b2b2; stroke-opacity: 0.35; stroke-width: 0.5; stroke-linecap: square"/>
   </g>
   <g id="line2d_4">
    <path d="M 5.76 13.44 
L 138.24 13.44 
" clip-path="url(#p31006a49e4)" style="fill: none; stroke: #b2b2b2; stroke-opacity: 0.35; stroke-width: 0.5; stroke-linecap: square"/>
   </g>
   <g id="line2d_5">
    <path d="M 5.76 45.58728 
L 7.237788 46.0596 
L 8.715575 45.18384 
L 10.193363 45.23796 
L 11.67115 45.20844 
L 13.148938 45.24288 
L 14.626726 45.47904 
L 16.104513 45.65616 
L 17.582301 45.98088 
L 19.060089 45.70536 
L 20.537876 45.38556 
L 22.015664 45.31668 
L 23.493451 45.58728 
L 24.971239 45.35604 
L 26.449027 45.40032 
L 27.926814 45.11496 
L 29.404602 44.42124 
L 30.88239 44.25888 
L 32.360177 44.18508 
L 33.837965 43.62912 
L 35.315752 43.24044 
L 36.79354 43.8702 
L 38.271328 43.60944 
L 39.749115 43.92924 
L 41.226903 43.93416 
L 42.704691 43.46184 
L 44.182478 43.5012 
L 45.660266 42.72384 
L 47.138053 42.51228 
L 48.615841 43.08792 
L 50.093629 42.75828 
L 51.571416 42.90096 
L 53.049204 43.57008 
L 54.526992 44.2392 
L 56.004779 45.23304 
L 57.482567 44.77548 
L 58.960354 44.91816 
L 60.438142 45.04608 
L 61.91593 45.07068 
L 63.393717 46.1334 
L 64.871505 45.4446 
L 66.349292 45.06084 
L 67.82708 45.33144 
L 69.304868 46.30068 
L 70.782655 46.34496 
L 72.260443 47.89476 
L 73.738231 48.26376 
L 75.216018 47.96364 
L 76.463603 48.55896 
L 77.637982 49.06572 
L 79.115017 50.04972 
L 80.586476 49.24776 
L 82.098044 49.32156 
L 83.563637 49.31172 
L 85.049857 49.43964 
L 86.524583 49.59708 
L 87.997051 49.80372 
L 89.474394 49.86768 
L 90.93441 49.479 
L 92.334221 49.24776 
L 93.906799 49.48392 
L 95.198957 49.37568 
L 96.860031 49.479 
L 98.336023 49.7004 
L 99.805173 49.62168 
L 101.273929 49.5282 
L 102.768599 49.49376 
L 104.250833 49.98576 
L 105.603779 49.96608 
L 107.201089 49.7004 
L 108.672292 49.27236 
L 110.147274 49.37076 
L 111.60765 49.68072 
L 113.119013 49.25268 
L 114.581544 49.51344 
L 116.062769 49.4052 
L 117.532279 49.34124 
L 119.013248 49.09032 
L 120.490334 49.24284 
L 121.956782 49.49868 
L 123.448919 49.64628 
L 124.931137 49.58724 
L 126.399432 49.36092 
L 127.876638 49.41996 
L 129.360241 49.45932 
L 130.835172 49.16904 
L 132.310993 49.22808 
L 133.817053 49.27236 
L 135.299014 48.87384 
L 136.750941 48.74592 
L 138.24 48.70164 
" clip-path="url(#p31006a49e4)" style="fill: none; stroke: #bebebe; stroke-width: 0.6; stroke-linecap: round"/>
   </g>
   <g id="line2d_6">
    <path d="M 5.76 38.31552 
L 7.237788 38.32536 
L 8.715575 37.26264 
L 10.193363 37.26264 
L 11.67115 37.09044 
L 13.148938 37.06092 
L 14.626726 37.34628 
L 16.104513 37.48404 
L 17.582301 37.77924 
L 19.060089 37.61688 
L 20.537876 37.45944 
L 22.015664 37.46928 
L 23.493451 37.56276 
L 24.971239 37.31184 
L 26.449027 37.33644 
L 27.926814 37.09536 
L 29.404602 36.23928 
L 30.88239 36.20976 
L 32.360177 36.11628 
L 33.837965 35.48652 
L 35.315752 35.0142 
L 36.79354 35.93424 
L 38.271328 36.36228 
L 39.749115 36.50988 
L 41.226903 36.5148 
L 42.704691 36.25404 
L 44.182478 36.46068 
L 45.660266 34.83708 
L 47.138053 34.57632 
L 48.615841 34.84692 
L 50.093629 35.00436 
L 51.571416 34.93056 
L 53.049204 35.088 
L 54.526992 35.78664 
L 56.004779 37.55292 
L 57.482567 37.26756 
L 58.960354 37.46436 
L 60.438142 37.44468 
L 61.91593 37.45944 
L 63.393717 38.41392 
L 64.871505 37.61196 
L 66.349292 36.95268 
L 67.82708 37.05108 
L 69.304868 38.37948 
L 70.782655 39.20604 
L 72.260443 41.03136 
L 73.738231 42.26628 
L 75.216018 41.73492 
L 76.463603 42.23676 
L 77.637982 43.38804 
L 79.115017 44.89356 
L 80.586476 43.6242 
L 82.098044 43.575 
L 83.563637 43.53072 
L 85.049857 43.72752 
L 86.524583 44.0916 
L 87.997051 44.436 
L 89.474394 44.49012 
L 90.93441 43.81608 
L 92.334221 43.7226 
L 93.906799 44.5344 
L 95.198957 44.19 
L 96.860031 44.21952 
L 98.336023 44.3868 
L 99.805173 44.51472 
L 101.273929 44.4606 
L 102.768599 44.3868 
L 104.250833 45.174 
L 105.603779 45.23796 
L 107.201089 44.81484 
L 108.672292 43.821 
L 110.147274 44.01288 
L 111.60765 44.66232 
L 113.119013 43.93908 
L 114.581544 44.39664 
L 116.062769 44.12112 
L 117.532279 44.33268 
L 119.013248 43.3044 
L 120.490334 43.6242 
L 121.956782 44.29824 
L 123.448919 44.53932 
L 124.931137 44.30808 
L 126.399432 43.8702 
L 127.876638 44.00304 
L 129.360241 43.97844 
L 130.835172 43.41756 
L 132.310993 43.48152 
L 133.817053 43.48644 
L 135.299014 42.49752 
L 136.750941 41.73984 
L 138.24 41.7546 
" clip-path="url(#p31006a49e4)" style="fill: none; stroke: #4a8dff; stroke-width: 0.6; stroke-linecap: round"/>
   </g>
   <g id="line2d_7">
    <path d="M 5.76 43.04364 
L 7.237788 43.34868 
L 8.715575 42.03504 
L 10.193363 41.91696 
L 11.67115 41.8038 
L 13.148938 41.84316 
L 14.626726 42.37944 
L 16.104513 42.26628 
L 17.582301 42.468 
L 19.060089 42.42864 
L 20.537876 42.18264 
L 22.015664 42.1728 
L 23.493451 42.50244 
L 24.971239 41.88252 
L 26.449027 42.32532 
L 27.926814 41.73 
L 29.404602 41.13468 
L 30.88239 40.80504 
L 32.360177 40.42128 
L 33.837965 39.16176 
L 35.315752 39.28968 
L 36.79354 40.48032 
L 38.271328 40.61316 
L 39.749115 40.84932 
L 41.226903 40.88376 
L 42.704691 40.6968 
L 44.182478 40.53936 
L 45.660266 38.50248 
L 47.138053 37.63656 
L 48.615841 38.34012 
L 50.093629 38.37456 
L 51.571416 38.5812 
L 53.049204 39.2454 
L 54.526992 39.8358 
L 56.004779 41.93172 
L 57.482567 41.42004 
L 58.960354 41.37576 
L 60.438142 41.39052 
L 61.91593 41.5086 
L 63.393717 42.80256 
L 64.871505 41.93664 
L 66.349292 41.49384 
L 67.82708 41.51352 
L 69.304868 43.78164 
L 70.782655 43.9932 
L 72.260443 46.66968 
L 73.738231 47.55036 
L 75.216018 46.64508 
L 76.463603 47.89476 
L 77.637982 48.89352 
L 79.115017 49.84308 
L 80.586476 49.00176 
L 82.098044 49.233 
L 83.563637 48.97716 
L 85.049857 49.22316 
L 86.524583 49.36092 
L 87.997051 49.49868 
L 89.474394 49.58724 
L 90.93441 49.28712 
L 92.334221 49.16904 
L 93.906799 49.39044 
L 95.198957 49.29696 
L 96.860031 49.479 
L 98.336023 49.55772 
L 99.805173 49.51344 
L 101.273929 49.44948 
L 102.768599 49.41996 
L 104.250833 49.8234 
L 105.603779 49.86768 
L 107.201089 49.72992 
L 108.672292 49.39536 
L 110.147274 49.52328 
L 111.60765 49.6758 
L 113.119013 49.47408 
L 114.581544 49.60692 
L 116.062769 49.37568 
L 117.532279 49.36584 
L 119.013248 48.6672 
L 120.490334 48.95256 
L 121.956782 49.36092 
L 123.448919 49.54788 
L 124.931137 49.5282 
L 126.399432 49.09032 
L 127.876638 49.16412 
L 129.360241 49.2084 
L 130.835172 48.93288 
L 132.310993 48.95748 
L 133.817053 48.89844 
L 135.299014 48.48024 
L 136.750941 48.1998 
L 138.24 48.28344 
" clip-path="url(#p31006a49e4)" style="fill: none; stroke: #f5841e; stroke-width: 0.7; stroke-linecap: round"/>
   </g>
  </g>
 </g>
 <defs>
  <clipPath id="p31006a49e4">
   <rect x="5.76" y="3.6" width="132.48" height="49.2"/>
  </clipPath>
 </defs>
</svg>
