<?xml version="1.0" encoding="utf-8" standalone="no"?>
<!DOCTYPE svg PUBLIC "-//W3C//DTD SVG 1.1//EN"
  "http://www.w3.org/Graphics/SVG/1.1/DTD/svg11.dtd">
<svg xmlns:xlink="http://www.w3.org/1999/xlink" width="144pt" height="60pt" viewBox="0 0 144 60" xmlns="http://www.w3.org/2000/svg" version="1.1">
  <desc id="nav-meta">{"window":"1y","count":4,"labels":["13.04","12.08","11.12","12.04"],"tick_utc":["2025-04-13T12:00:00Z","2025-08-12T12:00:00Z","2025-12-11T12:00:00Z","2026-04-12T03:55:19Z"]}</desc>

 <metadata>
  <rdf:RDF xmlns:dc="http://purl.org/dc/elements/1.1/" xmlns:cc="http://creativecommons.org/ns#" xmlns:rdf="http://www.w3.org/1999/02/22-rdf-syntax-ns#">
   <cc:Work>
    <dc:type rdf:resource="http://purl.org/dc/dcmitype/StillImage"/>
    <dc:date>2026-04-12T13:46:36.325380</dc:date>
    <dc:format>image/svg+xml</dc:format>
    <dc:creator>
     <cc:Agent>
      <dc:title>Matplotlib v3.10.8, https://matplotlib.org/</dc:title>
     </cc:Agent>
    </dc:creator>
   </cc:Work>
  </rdf:RDF>
 </metadata>
 <defs>
  <style type="text/css">*{stroke-linejoin: round; stroke-linecap: butt}</style>
 </defs>
 <g id="figure_1">
  <g id="patch_1">
   <path d="M 0 60 
L 144 60 
L 144 0 
L 0 0 
L 0 60 
z
" style="fill: none; opacity: 0"/>
  </g>
  <g id="axes_1">
   <g id="patch_2">
    <path d="M 5.76 52.8 
L 138.24 52.8 
L 138.24 3.6 
L 5.76 3.6 
L 5.76 52.8 
z
" style="fill: none"/>
   </g>
   <g id="matplotlib.axis_1"/>
   <g id="matplotlib.axis_2"/>
   <g id="line2d_1">
    <path d="M 5.76 42.96 
L 138.24 42.96 
" clip-path="url(#pfc408e19fd)" style="fill: none; stroke: #b2b2b2; stroke-opacity: 0.35; stroke-width: 0.5; stroke-linecap: square"/>
   </g>
   <g id="line2d_2">
    <path d="M 5.76 33.12 
L 138.24 33.12 
" clip-path="url(#pfc408e19fd)" style="fill: none; stroke: #b2b2b2; stroke-opacity: 0.35; stroke-width: 0.5; stroke-linecap: square"/>
   </g>
   <g id="line2d_3">
    <path d="M 5.76 23.28 
L 138.24 23.28 
" clip-path="url(#pfc408e19fd)" style="fill: none; stroke: #b2b2b2; stroke-opacity: 0.35; stroke-width: 0.5; stroke-linecap: square"/>
   </g>
   <g id="line2d_4">
    <path d="M 5.76 13.44 
L 138.24 13.44 
" clip-path="url(#pfc408e19fd)" style="fill: none; stroke: #b2b2b2; stroke-opacity: 0.35; stroke-width: 0.5; stroke-linecap: square"/>
   </g>
   <g id="line2d_5">
    <path d="M 5.76 44.40648 
L 6.124293 44.91816 
L 6.488586 44.76564 
L 6.852879 45.16908 
L 7.217172 44.49504 
L 7.581465 44.08668 
L 7.945757 44.17032 
L 8.31005 43.43232 
L 9.038636 43.86528 
L 9.402929 42.23676 
L 10.131515 41.7792 
L 11.224394 42.31056 
L 11.588686 42.345 
L 11.952979 42.5418 
L 12.317272 42.37944 
L 12.681565 41.98584 
L 13.045858 42.345 
L 13.410151 42.49752 
L 13.774444 42.86652 
L 14.138737 42.49752 
L 14.867323 42.44832 
L 15.231615 40.33272 
L 15.595908 39.12732 
L 15.960201 38.52216 
L 16.324494 39.10272 
L 16.688787 38.901 
L 17.05308 37.6464 
L 17.781666 39.639 
L 18.510252 40.008 
L 18.874544 39.27492 
L 19.238837 39.90468 
L 19.60313 39.6882 
L 20.331716 38.22696 
L 20.696009 38.901 
L 21.060302 38.69436 
L 21.788888 38.86164 
L 22.153181 38.62056 
L 22.881766 39.88992 
L 23.246059 41.23308 
L 24.338938 41.17404 
L 25.067524 41.62176 
L 25.431817 42.79272 
L 25.79611 42.30564 
L 26.524695 41.7546 
L 26.888988 40.62792 
L 27.253281 40.131 
L 27.617574 40.6476 
L 27.981867 41.73492 
L 28.710453 42.76812 
L 29.074746 41.73492 
L 29.439039 41.89728 
L 29.803331 42.345 
L 30.167624 42.5664 
L 30.531917 42.46308 
L 31.260503 44.20476 
L 31.624796 44.45076 
L 31.989089 42.7632 
L 32.353382 42.63036 
L 32.717675 42.94524 
L 33.081968 43.52088 
L 33.44626 43.1076 
L 33.810553 41.98092 
L 34.539139 41.43972 
L 34.903432 42.4926 
L 35.267725 41.79888 
L 35.632018 41.78412 
L 35.996311 42.37452 
L 36.360604 42.3942 
L 36.724897 41.83332 
L 37.089189 42.24168 
L 37.453482 41.84316 
L 38.182068 40.2786 
L 38.546361 40.42128 
L 38.910654 40.71648 
L 39.63924 40.48032 
L 40.003533 40.26384 
L 40.367826 38.97972 
L 41.096411 38.51724 
L 41.460704 38.57628 
L 41.824997 38.04492 
L 42.18929 36.03264 
L 42.553583 34.88136 
L 42.917876 36.92316 
L 43.282169 37.8432 
L 43.646462 37.37088 
L 44.010755 37.53324 
L 44.375047 37.056 
L 44.73934 37.77924 
L 45.103633 38.02032 
L 45.467926 38.45328 
L 45.832219 39.1962 
L 46.196512 40.41636 
L 46.560805 40.97232 
L 46.925098 40.53444 
L 47.289391 39.55536 
L 47.653684 40.24908 
L 48.017976 39.7128 
L 48.382269 38.778 
L 48.746562 38.59104 
L 49.475148 37.794 
L 49.839441 38.82228 
L 50.203734 36.53448 
L 50.568027 35.334 
L 51.296613 37.44468 
L 51.660905 36.90348 
L 52.025198 36.65748 
L 52.753784 38.64516 
L 53.118077 37.2282 
L 53.48237 38.14332 
L 53.846663 35.53572 
L 54.210956 35.04372 
L 54.575249 34.80264 
L 54.939542 37.23804 
L 56.03242 33.67104 
L 56.396713 34.90596 
L 57.489592 35.9736 
L 57.853885 34.36476 
L 58.218178 34.1778 
L 58.582471 35.22084 
L 58.946763 35.11752 
L 59.311056 35.54556 
L 60.768228 32.44104 
L 61.132521 31.83096 
L 61.496814 30.06468 
L 61.861107 30.01056 
L 62.2254 30.291 
L 62.589692 31.16184 
L 62.953985 30.74856 
L 63.318278 29.71536 
L 63.682571 29.37588 
L 64.046864 30.57636 
L 64.411157 30.42876 
L 64.77545 30.79284 
L 65.139743 32.91828 
L 65.504036 33.72024 
L 65.868329 34.05972 
L 66.232621 36.5886 
L 66.596914 34.90104 
L 66.961207 35.10276 
L 67.3255 34.16796 
L 67.689793 33.8826 
L 68.054086 34.43364 
L 68.782672 31.05852 
L 69.146965 31.26024 
L 69.511258 31.92936 
L 69.87555 31.85064 
L 70.239843 31.3242 
L 70.604136 32.84448 
L 70.968429 31.78176 
L 71.332722 32.85924 
L 71.697015 36.8838 
L 72.061308 38.39424 
L 72.425601 35.95392 
L 72.789894 34.53696 
L 73.154187 35.20608 
L 73.882772 37.57752 
L 74.247065 37.90716 
L 74.611358 37.18884 
L 74.975651 37.18392 
L 75.339944 36.89364 
L 75.704237 37.42008 
L 76.06853 38.17284 
L 76.432823 36.687 
L 76.797116 36.42132 
L 77.161408 36.34752 
L 77.525701 35.56032 
L 77.889994 35.72268 
L 78.254287 36.29832 
L 78.61858 36.32292 
L 78.982873 37.61688 
L 79.347166 37.2282 
L 79.711459 37.34628 
L 80.075752 37.23804 
L 80.440045 40.008 
L 80.804337 41.36592 
L 81.16863 40.43604 
L 81.532923 41.44956 
L 81.897216 40.53444 
L 82.261509 41.02152 
L 82.625802 40.22448 
L 82.990095 39.79644 
L 83.354388 41.51844 
L 83.718681 41.66604 
L 84.447266 43.51596 
L 84.811559 43.43724 
L 85.175852 43.71276 
L 85.540145 44.59836 
L 85.904438 43.30932 
L 86.997317 44.88372 
L 87.36161 44.99688 
L 87.725903 44.57868 
L 88.090196 43.5996 
L 88.454488 43.51596 
L 88.818781 43.00428 
L 89.183074 43.2798 
L 89.547367 43.71768 
L 90.275953 44.0916 
L 90.640246 45.11004 
L 91.004539 43.55532 
L 91.368832 42.72876 
L 92.097417 44.27364 
L 92.826003 44.47536 
L 93.190296 44.25888 
L 93.554589 43.64388 
L 93.918882 43.84068 
L 94.283175 43.85052 
L 94.647468 44.36712 
L 95.011761 44.26872 
L 95.376054 44.74104 
L 95.740346 44.98704 
L 96.104639 44.84436 
L 96.468932 45.58728 
L 96.833225 46.0596 
L 97.197518 45.18384 
L 98.65469 45.47904 
L 99.018983 45.65616 
L 99.383275 45.98088 
L 100.111861 45.38556 
L 100.476154 45.31668 
L 100.840447 45.58728 
L 101.20474 45.35604 
L 101.569033 45.40032 
L 101.933326 45.11496 
L 102.297619 44.42124 
L 103.026204 44.18508 
L 103.75479 43.24044 
L 104.119083 43.8702 
L 104.483376 43.60944 
L 104.847669 43.92924 
L 105.211962 43.93416 
L 105.576255 43.46184 
L 105.940548 43.5012 
L 106.304841 42.72384 
L 106.669133 42.51228 
L 107.033426 43.08792 
L 107.397719 42.75828 
L 107.762012 42.90096 
L 108.490598 44.2392 
L 108.854891 45.23304 
L 109.219184 44.77548 
L 109.94777 45.04608 
L 110.312062 45.07068 
L 110.676355 46.1334 
L 111.040648 45.4446 
L 111.404941 45.06084 
L 111.769234 45.33144 
L 112.133527 46.30068 
L 112.49782 46.34496 
L 112.862113 47.89476 
L 113.226406 48.26376 
L 113.590699 47.96364 
L 114.55185 50.04972 
L 114.914583 49.24776 
L 116.378399 49.59708 
L 116.741381 49.80372 
L 117.105564 49.86768 
L 117.810547 49.24776 
L 118.198207 49.48392 
L 118.51674 49.37568 
L 118.926215 49.479 
L 119.290065 49.7004 
L 120.38275 49.49376 
L 120.748139 49.98576 
L 121.081657 49.96608 
L 121.475414 49.7004 
L 121.838083 49.27236 
L 122.201685 49.37076 
L 122.561685 49.68072 
L 122.934255 49.25268 
L 123.294787 49.51344 
L 124.387256 49.09032 
L 125.846089 49.58724 
L 126.208042 49.36092 
L 126.937918 49.45932 
L 127.301507 49.16904 
L 128.036577 49.27236 
L 128.401899 48.87384 
L 129.126888 48.70164 
L 129.491283 49.03128 
L 129.852029 49.1592 
L 130.214189 49.08048 
L 130.949078 49.36584 
L 131.701423 48.90828 
L 132.043015 49.05096 
L 132.768578 49.64628 
L 134.23258 49.59708 
L 134.592075 49.8726 
L 135.317958 49.80864 
L 136.414897 49.83816 
L 136.77978 49.50852 
L 137.142804 49.68564 
L 137.869172 49.48884 
L 138.24 49.6512 
L 138.24 49.6512 
" clip-path="url(#pfc408e19fd)" style="fill: none; stroke: #bebebe; stroke-width: 0.6; stroke-linecap: round"/>
   </g>
   <g id="line2d_6">
    <path d="M 5.76 46.67952 
L 6.124293 47.03376 
L 6.488586 46.85172 
L 6.852879 47.08788 
L 7.217172 47.16168 
L 7.945757 47.07804 
L 8.31005 46.896 
L 8.674343 47.10756 
L 9.038636 47.16168 
L 9.402929 45.87264 
L 9.767222 45.63156 
L 10.131515 45.80376 
L 10.860101 45.43968 
L 11.224394 45.63156 
L 11.952979 45.61188 
L 12.317272 45.63156 
L 12.681565 45.31176 
L 13.410151 45.3462 
L 13.774444 45.52824 
L 14.50303 45.47412 
L 14.867323 45.51348 
L 15.231615 42.77796 
L 15.595908 41.75952 
L 15.960201 40.04244 
L 16.324494 40.58364 
L 16.688787 40.69188 
L 17.05308 39.38808 
L 17.781666 40.33764 
L 18.145959 40.32288 
L 18.510252 40.81488 
L 18.874544 40.88376 
L 19.238837 40.44588 
L 19.60313 40.46556 
L 19.967423 40.21956 
L 20.331716 39.52584 
L 20.696009 40.49508 
L 21.788888 40.19496 
L 22.153181 39.4914 
L 22.517473 39.38808 
L 22.881766 39.69312 
L 23.246059 40.46556 
L 23.974645 40.36716 
L 24.338938 39.8604 
L 24.703231 39.96372 
L 25.067524 39.85548 
L 25.431817 41.1888 
L 26.160402 40.4508 
L 26.524695 40.5738 
L 27.253281 38.45328 
L 27.617574 38.68452 
L 27.981867 39.55536 
L 28.34616 40.09164 
L 28.710453 40.39668 
L 29.439039 40.2048 
L 29.803331 40.52952 
L 30.531917 40.48032 
L 31.260503 42.26136 
L 31.624796 42.5664 
L 31.989089 41.17404 
L 32.353382 41.0166 
L 32.717675 41.22324 
L 33.44626 41.17896 
L 33.810553 41.08056 
L 34.174846 40.61808 
L 34.539139 40.7214 
L 34.903432 41.30688 
L 35.267725 40.11132 
L 35.632018 39.99816 
L 35.996311 40.56888 
L 36.360604 40.51476 
L 36.724897 40.131 
L 37.089189 40.3278 
L 37.453482 39.81612 
L 38.182068 37.46436 
L 38.546361 37.39056 
L 38.910654 37.50372 
L 39.63924 37.01172 
L 40.003533 36.16056 
L 40.367826 34.4976 
L 40.732118 33.69072 
L 41.460704 32.89368 
L 41.824997 31.73256 
L 42.18929 31.68336 
L 42.553583 31.8162 
L 42.917876 32.64276 
L 43.282169 32.0868 
L 44.010755 31.85064 
L 44.375047 30.98964 
L 44.73934 31.53576 
L 45.103633 31.521 
L 45.467926 31.38816 
L 45.832219 32.17044 
L 46.196512 33.68088 
L 46.560805 34.28604 
L 46.925098 33.58248 
L 47.289391 32.0376 
L 47.653684 32.76576 
L 48.017976 32.259 
L 48.382269 30.65508 
L 48.746562 29.93676 
L 49.110855 28.14588 
L 49.839441 28.40664 
L 50.203734 25.73508 
L 50.568027 24.62316 
L 50.93232 26.10408 
L 51.296613 26.97984 
L 51.660905 27.00936 
L 52.025198 26.58132 
L 52.389491 27.7818 
L 52.753784 29.49888 
L 53.118077 27.68832 
L 53.48237 28.44108 
L 53.846663 24.16068 
L 54.210956 24.55428 
L 54.575249 24.51984 
L 54.939542 27.32916 
L 55.303834 25.7646 
L 55.668127 26.48784 
L 56.03242 26.43372 
L 56.396713 27.44724 
L 57.125299 27.27504 
L 57.489592 27.8802 
L 57.853885 27.72276 
L 58.218178 26.84208 
L 58.582471 27.91956 
L 58.946763 27.8556 
L 59.311056 28.09668 
L 59.675349 27.87528 
L 60.403935 27.83592 
L 60.768228 27.57024 
L 61.132521 26.77812 
L 61.496814 25.01184 
L 62.2254 25.71048 
L 62.589692 26.31564 
L 62.953985 26.45832 
L 63.318278 25.8384 
L 63.682571 25.84824 
L 64.046864 26.6994 
L 64.411157 26.62068 
L 64.77545 26.8224 
L 65.139743 28.61328 
L 65.868329 28.97244 
L 66.232621 30.99456 
L 66.596914 29.76456 
L 66.961207 29.8974 
L 67.3255 29.02164 
L 67.689793 28.50012 
L 68.054086 29.00688 
L 68.782672 26.601 
L 69.146965 26.3796 
L 69.511258 26.5764 
L 69.87555 26.3796 
L 70.239843 25.1496 
L 70.604136 26.81256 
L 70.968429 26.29596 
L 71.332722 27.41772 
L 71.697015 31.19136 
L 72.061308 31.80144 
L 72.425601 28.89864 
L 72.789894 28.28364 
L 73.882772 30.80268 
L 74.247065 31.22088 
L 74.611358 30.8076 
L 74.975651 30.13356 
L 75.339944 30.17784 
L 76.06853 31.42752 
L 76.432823 31.04376 
L 76.797116 30.49764 
L 77.161408 30.3648 
L 77.525701 28.88388 
L 77.889994 29.15448 
L 78.254287 30.15324 
L 78.982873 31.4226 
L 79.711459 30.9306 
L 80.075752 30.66 
L 80.804337 34.99944 
L 81.16863 34.07448 
L 81.532923 34.9158 
L 81.897216 34.02528 
L 82.261509 34.26144 
L 82.625802 33.0216 
L 82.990095 33.10524 
L 83.354388 34.1532 
L 83.718681 34.2024 
L 84.447266 36.34752 
L 84.811559 35.89488 
L 85.540145 36.94776 
L 85.904438 36.2688 
L 86.268731 36.97236 
L 86.633024 38.286 
L 86.997317 38.76324 
L 87.36161 38.73864 
L 87.725903 38.51724 
L 88.090196 37.42992 
L 88.454488 37.42008 
L 88.818781 36.90348 
L 89.183074 36.98712 
L 89.547367 36.86412 
L 89.91166 37.16424 
L 90.275953 37.14948 
L 90.640246 38.52216 
L 91.368832 35.71776 
L 91.733125 36.15564 
L 92.097417 36.93792 
L 92.826003 36.72636 
L 93.190296 36.21468 
L 93.554589 34.8174 
L 93.918882 34.7928 
L 94.283175 35.42748 
L 94.647468 36.49512 
L 95.011761 36.28356 
L 95.376054 36.6378 
L 95.740346 37.3512 
L 96.104639 37.3512 
L 96.468932 38.31552 
L 96.833225 38.32536 
L 97.197518 37.26264 
L 97.561811 37.26264 
L 97.926104 37.09044 
L 98.290397 37.06092 
L 98.65469 37.34628 
L 99.018983 37.48404 
L 99.383275 37.77924 
L 100.111861 37.45944 
L 100.840447 37.56276 
L 101.20474 37.31184 
L 101.569033 37.33644 
L 101.933326 37.09536 
L 102.297619 36.23928 
L 103.026204 36.11628 
L 103.75479 35.0142 
L 104.119083 35.93424 
L 104.483376 36.36228 
L 104.847669 36.50988 
L 105.211962 36.5148 
L 105.576255 36.25404 
L 105.940548 36.46068 
L 106.304841 34.83708 
L 106.669133 34.57632 
L 107.397719 35.00436 
L 107.762012 34.93056 
L 108.126305 35.088 
L 108.490598 35.78664 
L 108.854891 37.55292 
L 109.219184 37.26756 
L 109.583477 37.46436 
L 110.312062 37.45944 
L 110.676355 38.41392 
L 111.404941 36.95268 
L 111.769234 37.05108 
L 112.133527 38.37948 
L 112.49782 39.20604 
L 112.862113 41.03136 
L 113.226406 42.26628 
L 113.590699 41.73492 
L 113.898244 42.23676 
L 114.55185 44.89356 
L 114.914583 43.6242 
L 115.64849 43.53072 
L 116.014861 43.72752 
L 116.741381 44.436 
L 117.105564 44.49012 
L 117.465476 43.81608 
L 117.810547 43.7226 
L 118.198207 44.5344 
L 118.51674 44.19 
L 118.926215 44.21952 
L 119.652229 44.51472 
L 120.38275 44.3868 
L 120.748139 45.174 
L 121.081657 45.23796 
L 121.475414 44.81484 
L 121.838083 43.821 
L 122.201685 44.01288 
L 122.561685 44.66232 
L 122.934255 43.93908 
L 123.294787 44.39664 
L 123.659927 44.12112 
L 124.022179 44.33268 
L 124.387256 43.3044 
L 124.751377 43.6242 
L 125.112874 44.29824 
L 125.480704 44.53932 
L 125.846089 44.30808 
L 126.208042 43.8702 
L 126.572192 44.00304 
L 126.937918 43.97844 
L 127.301507 43.41756 
L 128.036577 43.48644 
L 128.759817 41.73984 
L 129.126888 41.7546 
L 129.852029 43.14204 
L 130.214189 43.083 
L 130.583929 43.35852 
L 130.949078 43.78164 
L 131.309998 43.21584 
L 131.701423 42.9354 
L 132.043015 43.10268 
L 132.768578 44.25396 
L 133.865163 43.74228 
L 134.23258 43.46676 
L 134.956785 43.79148 
L 135.687736 43.77672 
L 136.052969 43.2552 
L 136.414897 43.40772 
L 136.77978 42.49752 
L 137.142804 42.90588 
L 137.510449 42.8616 
L 137.869172 42.41388 
L 138.24 42.63036 
L 138.24 42.63036 
" clip-path="url(#pfc408e19fd)" style="fill: none; stroke: #4a8dff; stroke-width: 0.6; stroke-linecap: round"/>
   </g>
   <g id="line2d_7">
    <path d="M 5.76 43.41756 
L 6.124293 44.25888 
L 6.488586 43.80624 
L 6.852879 44.23428 
L 7.217172 44.01288 
L 7.581465 43.60452 
L 7.945757 43.85052 
L 8.31005 43.50612 
L 8.674343 43.53072 
L 9.038636 42.35976 
L 9.402929 39.33396 
L 9.767222 39.3192 
L 10.131515 39.18636 
L 10.495808 38.74356 
L 10.860101 38.80752 
L 11.224394 39.2208 
L 11.588686 38.61564 
L 11.952979 38.9994 
L 12.317272 39.00924 
L 12.681565 37.92684 
L 13.045858 37.71528 
L 13.410151 38.17284 
L 13.774444 38.96496 
L 14.138737 38.74848 
L 14.50303 37.71528 
L 14.867323 37.63164 
L 15.231615 34.64028 
L 15.595908 34.69932 
L 15.960201 33.87276 
L 16.324494 34.18764 
L 16.688787 34.73868 
L 17.05308 34.09416 
L 17.417373 34.38444 
L 17.781666 34.33032 
L 18.510252 34.57632 
L 18.874544 33.18396 
L 19.238837 33.38076 
L 19.60313 32.81004 
L 19.967423 31.38816 
L 20.331716 30.45336 
L 20.696009 32.59848 
L 21.060302 32.29344 
L 21.424595 31.78176 
L 21.788888 31.53084 
L 22.153181 31.68336 
L 22.517473 32.28852 
L 23.246059 34.1778 
L 23.610352 33.84324 
L 23.974645 33.3414 
L 24.338938 33.25284 
L 25.067524 33.7842 
L 25.431817 35.34384 
L 25.79611 33.981 
L 26.160402 33.35616 
L 26.524695 33.35124 
L 26.888988 31.09296 
L 27.253281 31.11756 
L 27.617574 31.87524 
L 27.981867 33.20856 
L 28.34616 33.17412 
L 28.710453 33.45456 
L 29.074746 33.4152 
L 29.439039 32.7264 
L 29.803331 33.84816 
L 30.531917 33.84324 
L 31.624796 35.73744 
L 31.989089 33.4398 
L 32.353382 33.20856 
L 32.717675 32.58372 
L 33.081968 32.71164 
L 33.810553 32.53944 
L 34.174846 32.013 
L 34.903432 33.3906 
L 35.267725 31.80144 
L 35.632018 31.41768 
L 35.996311 32.19012 
L 36.360604 32.10156 
L 36.724897 31.60956 
L 37.089189 32.0622 
L 37.453482 31.73748 
L 37.817775 30.56652 
L 38.182068 28.31808 
L 38.546361 27.48168 
L 38.910654 27.55548 
L 39.274947 26.71908 
L 39.63924 26.36484 
L 40.003533 27.42756 
L 40.732118 26.55672 
L 41.096411 27.27504 
L 41.460704 27.31932 
L 41.824997 27.63912 
L 42.18929 27.52596 
L 42.553583 26.3058 
L 42.917876 26.96016 
L 43.282169 27.09792 
L 43.646462 27.49644 
L 44.010755 27.2898 
L 44.375047 26.57148 
L 44.73934 27.27012 
L 45.467926 27.35376 
L 46.196512 29.62188 
L 46.560805 29.96136 
L 46.925098 29.14956 
L 47.289391 28.68216 
L 47.653684 29.184 
L 48.017976 28.7412 
L 48.382269 27.5358 
L 48.746562 27.91956 
L 49.110855 28.00812 
L 49.475148 26.64528 
L 49.839441 26.88636 
L 50.203734 26.1828 
L 50.568027 24.52476 
L 50.93232 27.0684 
L 51.296613 27.59484 
L 52.025198 27.49644 
L 52.389491 28.13112 
L 52.753784 29.8482 
L 53.118077 29.12004 
L 53.48237 30.03024 
L 53.846663 27.84576 
L 54.575249 29.54316 
L 54.939542 31.13232 
L 55.303834 30.31068 
L 55.668127 30.62064 
L 56.03242 29.97612 
L 56.396713 31.97364 
L 56.761006 31.82112 
L 57.125299 32.0868 
L 57.489592 31.63416 
L 57.853885 30.6354 
L 58.218178 30.37464 
L 58.582471 30.86172 
L 58.946763 30.89616 
L 59.311056 31.11756 
L 60.039642 30.22212 
L 60.403935 30.45828 
L 60.768228 29.2578 
L 61.132521 28.50504 
L 61.496814 28.18032 
L 61.861107 28.2738 
L 62.2254 28.569 
L 62.589692 28.55424 
L 62.953985 27.8802 
L 63.318278 28.03272 
L 63.682571 27.69324 
L 64.046864 28.42632 
L 64.411157 28.3968 
L 64.77545 28.60344 
L 65.139743 29.88756 
L 65.504036 30.22212 
L 65.868329 29.58252 
L 66.232621 31.73256 
L 66.596914 31.36356 
L 66.961207 31.39308 
L 67.689793 29.09544 
L 68.054086 29.2332 
L 68.418379 27.02412 
L 69.146965 25.16928 
L 69.511258 25.10532 
L 70.239843 23.92452 
L 70.604136 25.53336 
L 70.968429 24.62808 
L 71.332722 25.4448 
L 71.697015 29.64156 
L 72.061308 30.80268 
L 72.425601 28.65756 
L 72.789894 28.6428 
L 73.518479 30.87156 
L 73.882772 32.17044 
L 74.247065 32.97732 
L 74.611358 32.628 
L 74.975651 31.90476 
L 75.339944 30.92076 
L 75.704237 31.96872 
L 76.06853 32.39676 
L 76.432823 31.19628 
L 77.161408 30.42384 
L 77.525701 29.0118 
L 77.889994 29.15448 
L 78.254287 29.76456 
L 78.61858 31.2012 
L 78.982873 32.09172 
L 79.347166 31.43244 
L 80.075752 30.90108 
L 80.804337 35.35368 
L 81.16863 34.24668 
L 81.532923 35.5062 
L 81.897216 34.48284 
L 82.261509 35.02896 
L 82.625802 33.8334 
L 82.990095 33.243 
L 83.354388 34.69932 
L 84.082974 36.2934 
L 84.447266 38.901 
L 84.811559 38.37948 
L 85.175852 38.92068 
L 85.540145 40.09164 
L 85.904438 39.70788 
L 86.268731 40.4262 
L 86.633024 42.75336 
L 86.997317 43.54548 
L 87.36161 43.72752 
L 88.090196 41.976 
L 88.454488 42.42864 
L 88.818781 40.86408 
L 89.183074 40.47048 
L 90.275953 40.89852 
L 90.640246 42.9354 
L 91.004539 40.43604 
L 91.368832 39.31428 
L 91.733125 40.04244 
L 92.097417 41.43972 
L 92.46171 41.47416 
L 92.826003 41.02152 
L 93.190296 40.7952 
L 93.554589 39.75708 
L 93.918882 40.11132 
L 94.283175 39.87024 
L 94.647468 40.94772 
L 95.011761 40.97232 
L 95.740346 42.87144 
L 96.104639 42.17772 
L 96.468932 43.04364 
L 96.833225 43.34868 
L 97.197518 42.03504 
L 97.926104 41.8038 
L 98.290397 41.84316 
L 98.65469 42.37944 
L 99.018983 42.26628 
L 99.383275 42.468 
L 99.747568 42.42864 
L 100.111861 42.18264 
L 100.476154 42.1728 
L 100.840447 42.50244 
L 101.20474 41.88252 
L 101.569033 42.32532 
L 102.297619 41.13468 
L 103.026204 40.42128 
L 103.390497 39.16176 
L 103.75479 39.28968 
L 104.119083 40.48032 
L 105.211962 40.88376 
L 105.940548 40.53936 
L 106.304841 38.50248 
L 106.669133 37.63656 
L 107.033426 38.34012 
L 107.397719 38.37456 
L 107.762012 38.5812 
L 108.490598 39.8358 
L 108.854891 41.93172 
L 109.219184 41.42004 
L 109.94777 41.39052 
L 110.312062 41.5086 
L 110.676355 42.80256 
L 111.040648 41.93664 
L 111.404941 41.49384 
L 111.769234 41.51352 
L 112.133527 43.78164 
L 112.49782 43.9932 
L 112.862113 46.66968 
L 113.226406 47.55036 
L 113.590699 46.64508 
L 114.187743 48.89352 
L 114.55185 49.84308 
L 114.914583 49.00176 
L 115.287203 49.233 
L 115.64849 48.97716 
L 116.378399 49.36092 
L 117.105564 49.58724 
L 117.465476 49.28712 
L 117.810547 49.16904 
L 118.198207 49.39044 
L 118.51674 49.29696 
L 119.290065 49.55772 
L 120.38275 49.41996 
L 120.748139 49.8234 
L 121.081657 49.86768 
L 121.475414 49.72992 
L 121.838083 49.39536 
L 122.561685 49.6758 
L 122.934255 49.47408 
L 123.294787 49.60692 
L 123.659927 49.37568 
L 124.022179 49.36584 
L 124.387256 48.6672 
L 125.480704 49.54788 
L 125.846089 49.5282 
L 126.208042 49.09032 
L 126.937918 49.2084 
L 127.301507 48.93288 
L 128.036577 48.89844 
L 128.759817 48.1998 
L 129.126888 48.28344 
L 129.491283 48.88368 
L 129.852029 49.04604 
L 130.214189 49.00176 
L 130.949078 49.38552 
L 131.309998 49.04112 
L 131.701423 48.92796 
L 132.043015 48.987 
L 132.768578 49.66104 
L 134.23258 49.40028 
L 134.592075 49.56756 
L 135.317958 49.56264 
L 135.687736 49.53312 
L 136.052969 49.25268 
L 136.414897 49.29696 
L 136.77978 48.89352 
L 137.142804 48.96732 
L 137.869172 48.5934 
L 138.24 48.84432 
L 138.24 48.84432 
" clip-path="url(#pfc408e19fd)" style="fill: none; stroke: #f5841e; stroke-width: 0.7; stroke-linecap: round"/>
   </g>
  </g>
 </g>
 <defs>
  <clipPath id="pfc408e19fd">
   <rect x="5.76" y="3.6" width="132.48" height="49.2"/>
  </clipPath>
 </defs>
</svg>
