<?xml version="1.0" encoding="utf-8" standalone="no"?>
<!DOCTYPE svg PUBLIC "-//W3C//DTD SVG 1.1//EN"
  "http://www.w3.org/Graphics/SVG/1.1/DTD/svg11.dtd">
<svg xmlns:xlink="http://www.w3.org/1999/xlink" width="144pt" height="60pt" viewBox="0 0 144 60" xmlns="http://www.w3.org/2000/svg" version="1.1">
  <desc id="nav-meta">{"window":"1m","count":4,"labels":["20.03","30.03","08.04","18.04"],"tick_utc":["2026-03-20T03:18:49Z","2026-03-30T03:51:16Z","2026-04-08T03:43:16Z","2026-04-18T03:39:51Z"]}</desc>

 <metadata>
  <rdf:RDF xmlns:dc="http://purl.org/dc/elements/1.1/" xmlns:cc="http://creativecommons.org/ns#" xmlns:rdf="http://www.w3.org/1999/02/22-rdf-syntax-ns#">
   <cc:Work>
    <dc:type rdf:resource="http://purl.org/dc/dcmitype/StillImage"/>
    <dc:date>2026-04-18T13:47:38.868443</dc:date>
    <dc:format>image/svg+xml</dc:format>
    <dc:creator>
     <cc:Agent>
      <dc:title>Matplotlib v3.10.8, https://matplotlib.org/</dc:title>
     </cc:Agent>
    </dc:creator>
   </cc:Work>
  </rdf:RDF>
 </metadata>
 <defs>
  <style type="text/css">*{stroke-linejoin: round; stroke-linecap: butt}</style>
 </defs>
 <g id="figure_1">
  <g id="patch_1">
   <path d="M 0 60 
L 144 60 
L 144 0 
L 0 0 
L 0 60 
z
" style="fill: none; opacity: 0"/>
  </g>
  <g id="axes_1">
   <g id="patch_2">
    <path d="M 5.76 52.8 
L 138.24 52.8 
L 138.24 3.6 
L 5.76 3.6 
L 5.76 52.8 
z
" style="fill: none"/>
   </g>
   <g id="matplotlib.axis_1"/>
   <g id="matplotlib.axis_2"/>
   <g id="line2d_1">
    <path d="M 5.76 42.96 
L 138.24 42.96 
" clip-path="url(#p6fe7004014)" style="fill: none; stroke: #b2b2b2; stroke-opacity: 0.35; stroke-width: 0.5; stroke-linecap: square"/>
   </g>
   <g id="line2d_2">
    <path d="M 5.76 33.12 
L 138.24 33.12 
" clip-path="url(#p6fe7004014)" style="fill: none; stroke: #b2b2b2; stroke-opacity: 0.35; stroke-width: 0.5; stroke-linecap: square"/>
   </g>
   <g id="line2d_3">
    <path d="M 5.76 23.28 
L 138.24 23.28 
" clip-path="url(#p6fe7004014)" style="fill: none; stroke: #b2b2b2; stroke-opacity: 0.35; stroke-width: 0.5; stroke-linecap: square"/>
   </g>
   <g id="line2d_4">
    <path d="M 5.76 13.44 
L 138.24 13.44 
" clip-path="url(#p6fe7004014)" style="fill: none; stroke: #b2b2b2; stroke-opacity: 0.35; stroke-width: 0.5; stroke-linecap: square"/>
   </g>
   <g id="line2d_5">
    <path d="M 5.76 49.1592 
L 10.299236 49.08048 
L 14.93349 49.21332 
L 19.510194 49.36584 
L 24.033893 49.11 
L 28.939939 48.90828 
L 33.221387 49.05096 
L 37.793123 49.37076 
L 42.315448 49.64628 
L 46.943625 49.6266 
L 51.522654 49.602 
L 56.059829 49.59708 
L 60.664964 49.59708 
L 65.170801 49.8726 
L 69.742009 49.88244 
L 74.268878 49.80864 
L 78.903608 49.78896 
L 83.481369 49.69056 
L 88.017698 49.83816 
L 92.591073 49.50852 
L 97.141142 49.68564 
L 101.749131 49.6266 
L 106.245296 49.48884 
L 110.893185 49.6512 
L 115.482573 49.69056 
L 120.019483 49.40028 
L 124.581971 49.58724 
L 129.167712 49.45932 
L 133.724387 49.27728 
L 138.24 49.19856 
" clip-path="url(#p6fe7004014)" style="fill: none; stroke: #bebebe; stroke-width: 0.6; stroke-linecap: round"/>
   </g>
   <g id="line2d_6">
    <path d="M 5.76 43.14204 
L 10.299236 43.083 
L 14.93349 43.35852 
L 19.510194 43.78164 
L 24.033893 43.21584 
L 28.939939 42.9354 
L 33.221387 43.10268 
L 37.793123 43.72752 
L 42.315448 44.25396 
L 46.943625 44.10636 
L 51.522654 43.9194 
L 56.059829 43.74228 
L 60.664964 43.46676 
L 65.170801 43.65372 
L 69.742009 43.79148 
L 74.268878 43.81116 
L 78.903608 43.77672 
L 83.481369 43.2552 
L 88.017698 43.40772 
L 92.591073 42.49752 
L 97.141142 42.90588 
L 101.749131 42.8616 
L 106.245296 42.41388 
L 110.893185 42.63036 
L 115.482573 42.79764 
L 120.019483 41.57256 
L 124.581971 41.86284 
L 129.167712 41.63652 
L 133.724387 41.85792 
L 138.24 41.22324 
" clip-path="url(#p6fe7004014)" style="fill: none; stroke: #4a8dff; stroke-width: 0.6; stroke-linecap: round"/>
   </g>
   <g id="line2d_7">
    <path d="M 5.76 49.04604 
L 10.299236 49.00176 
L 14.93349 49.20348 
L 19.510194 49.38552 
L 24.033893 49.04112 
L 28.939939 48.92796 
L 33.221387 48.987 
L 37.793123 49.29204 
L 42.315448 49.66104 
L 46.943625 49.56756 
L 51.522654 49.53312 
L 56.059829 49.46424 
L 60.664964 49.40028 
L 65.170801 49.56756 
L 69.742009 49.59708 
L 74.268878 49.56264 
L 78.903608 49.53312 
L 83.481369 49.25268 
L 88.017698 49.29696 
L 92.591073 48.89352 
L 97.141142 48.96732 
L 101.749131 48.8148 
L 106.245296 48.5934 
L 110.893185 48.84432 
L 115.482573 48.95748 
L 120.019483 48.30804 
L 124.581971 48.34248 
L 129.167712 48.21456 
L 133.724387 48.26376 
L 138.24 47.41752 
" clip-path="url(#p6fe7004014)" style="fill: none; stroke: #f5841e; stroke-width: 0.7; stroke-linecap: round"/>
   </g>
  </g>
 </g>
 <defs>
  <clipPath id="p6fe7004014">
   <rect x="5.76" y="3.6" width="132.48" height="49.2"/>
  </clipPath>
 </defs>
</svg>
