<?xml version="1.0" encoding="utf-8" standalone="no"?>
<!DOCTYPE svg PUBLIC "-//W3C//DTD SVG 1.1//EN"
  "http://www.w3.org/Graphics/SVG/1.1/DTD/svg11.dtd">
<svg xmlns:xlink="http://www.w3.org/1999/xlink" width="144pt" height="60pt" viewBox="0 0 144 60" xmlns="http://www.w3.org/2000/svg" version="1.1">
  <desc id="nav-meta">{"window":"6m","count":4,"labels":["08.08","07.10","07.12","03.02"],"idxs":[0,60,121,181]}</desc>

 <metadata>
  <rdf:RDF xmlns:dc="http://purl.org/dc/elements/1.1/" xmlns:cc="http://creativecommons.org/ns#" xmlns:rdf="http://www.w3.org/1999/02/22-rdf-syntax-ns#">
   <cc:Work>
    <dc:type rdf:resource="http://purl.org/dc/dcmitype/StillImage"/>
    <dc:date>2026-02-03T17:24:34.072354</dc:date>
    <dc:format>image/svg+xml</dc:format>
    <dc:creator>
     <cc:Agent>
      <dc:title>Matplotlib v3.10.8, https://matplotlib.org/</dc:title>
     </cc:Agent>
    </dc:creator>
   </cc:Work>
  </rdf:RDF>
 </metadata>
 <defs>
  <style type="text/css">*{stroke-linejoin: round; stroke-linecap: butt}</style>
 </defs>
 <g id="figure_1">
  <g id="patch_1">
   <path d="M 0 60 
L 144 60 
L 144 0 
L 0 0 
L 0 60 
z
" style="fill: none; opacity: 0"/>
  </g>
  <g id="axes_1">
   <g id="patch_2">
    <path d="M 5.76 52.8 
L 138.24 52.8 
L 138.24 3.6 
L 5.76 3.6 
L 5.76 52.8 
z
" style="fill: none"/>
   </g>
   <g id="matplotlib.axis_1"/>
   <g id="matplotlib.axis_2"/>
   <g id="line2d_1">
    <path d="M 5.76 42.96 
L 138.24 42.96 
" clip-path="url(#p16906538dc)" style="fill: none; stroke: #b2b2b2; stroke-opacity: 0.35; stroke-width: 0.5; stroke-linecap: square"/>
   </g>
   <g id="line2d_2">
    <path d="M 5.76 33.12 
L 138.24 33.12 
" clip-path="url(#p16906538dc)" style="fill: none; stroke: #b2b2b2; stroke-opacity: 0.35; stroke-width: 0.5; stroke-linecap: square"/>
   </g>
   <g id="line2d_3">
    <path d="M 5.76 23.28 
L 138.24 23.28 
" clip-path="url(#p16906538dc)" style="fill: none; stroke: #b2b2b2; stroke-opacity: 0.35; stroke-width: 0.5; stroke-linecap: square"/>
   </g>
   <g id="line2d_4">
    <path d="M 5.76 13.44 
L 138.24 13.44 
" clip-path="url(#p16906538dc)" style="fill: none; stroke: #b2b2b2; stroke-opacity: 0.35; stroke-width: 0.5; stroke-linecap: square"/>
   </g>
   <g id="line2d_5">
    <path d="M 6.123956 38.778 
L 7.030091 38.476601 
L 8.117454 37.880151 
L 8.298681 37.798081 
L 9.023589 38.805307 
L 10.110952 35.961486 
L 10.473406 35.363723 
L 12.10445 37.327805 
L 13.010585 36.790124 
L 13.373039 36.667631 
L 14.822856 38.602525 
L 15.18531 38.009769 
L 15.547764 37.304213 
L 15.910218 37.63478 
L 16.272673 38.090452 
L 16.635127 36.995546 
L 17.178808 35.443681 
L 18.084943 34.939595 
L 18.447398 34.819552 
L 18.809852 35.844469 
L 19.172306 37.057144 
L 19.353533 37.037782 
L 21.347031 33.79852 
L 21.528258 33.871481 
L 22.253166 34.954991 
L 24.246664 35.919798 
L 24.427891 35.739024 
L 25.1528 34.338272 
L 25.696481 34.19863 
L 25.877708 34.321272 
L 26.602616 35.207055 
L 27.327525 35.172865 
L 27.871206 35.49257 
L 28.052433 35.442098 
L 29.864704 33.468792 
L 30.227158 33.204926 
L 31.31452 32.070964 
L 31.676974 31.646314 
L 32.401883 30.059246 
L 33.126791 30.037562 
L 33.851699 30.371256 
L 34.576608 31.125458 
L 35.301516 30.661868 
L 36.026424 29.688276 
L 36.751333 29.4667 
L 37.476241 30.565803 
L 38.201149 30.453299 
L 38.926058 30.927325 
L 39.650966 32.965714 
L 40.557101 33.823438 
L 41.100783 34.188425 
L 41.825691 36.509677 
L 42.550599 34.909642 
L 43.275508 35.066757 
L 44.000416 34.158147 
L 44.725324 33.899275 
L 45.450233 34.391079 
L 46.900049 31.062127 
L 47.624958 31.269444 
L 48.349866 31.928602 
L 49.074774 31.847743 
L 49.799683 31.326291 
L 50.524591 32.840298 
L 51.249499 31.789069 
L 51.974408 32.847383 
L 52.880543 37.236998 
L 53.424224 38.365153 
L 54.692814 34.928719 
L 54.874041 34.575941 
L 55.417722 35.018321 
L 55.780176 35.456289 
L 57.229993 37.646441 
L 57.773674 37.89265 
L 58.317355 37.402261 
L 58.67981 37.187852 
L 59.404718 37.126822 
L 59.948399 36.910011 
L 60.49208 37.257152 
L 61.035762 37.749348 
L 61.398216 38.124175 
L 61.76067 37.529044 
L 62.304351 36.639126 
L 63.210487 36.389952 
L 63.572941 36.353205 
L 64.116622 35.820193 
L 64.479076 35.587566 
L 65.203984 35.816904 
L 65.928893 36.302245 
L 66.472574 36.320619 
L 66.835028 36.8462 
L 67.197482 37.49051 
L 67.378709 37.55807 
L 68.103618 37.245579 
L 69.009753 37.303848 
L 69.372207 37.249951 
L 69.553434 37.622863 
L 70.278343 40.191048 
L 70.822024 41.205286 
L 71.003251 41.244409 
L 71.546932 40.549877 
L 71.728159 40.564298 
L 72.271841 41.321302 
L 72.453068 41.33753 
L 73.177976 40.592059 
L 73.721657 40.955861 
L 73.902884 40.930524 
L 74.80902 40.07081 
L 75.171474 39.857673 
L 75.352701 39.978825 
L 76.077609 41.533464 
L 76.802518 41.768385 
L 77.88988 43.188337 
L 78.252334 43.508922 
L 78.977243 43.460737 
L 79.702151 43.784631 
L 80.427059 44.499067 
L 81.151968 43.348775 
L 82.23933 44.059637 
L 82.783011 44.427825 
L 83.326693 44.890569 
L 84.051601 44.973295 
L 84.776509 44.527504 
L 85.501418 43.595573 
L 86.226326 43.493438 
L 86.951234 43.01527 
L 88.038597 43.513497 
L 88.582278 43.767381 
L 89.850867 44.115415 
L 90.575776 45.0801 
L 91.481911 43.337026 
L 92.025592 42.737422 
L 93.475409 44.273992 
L 94.925226 44.474954 
L 95.831361 44.111686 
L 96.375042 43.652339 
L 98.187313 44.096385 
L 98.549767 44.353619 
L 99.455903 44.37202 
L 100.362038 44.855073 
L 100.905719 44.957012 
L 101.449401 44.850444 
L 102.899217 46.035562 
L 103.442899 45.450061 
L 103.624126 45.232025 
L 104.167807 45.221285 
L 106.704986 45.510468 
L 107.792349 45.874129 
L 108.154803 45.934265 
L 109.967073 45.340177 
L 110.329528 45.359112 
L 111.054436 45.551974 
L 111.960571 45.373642 
L 112.504253 45.359106 
L 113.229161 45.017629 
L 113.954069 44.39913 
L 115.585113 43.975543 
L 116.491248 43.387465 
L 116.853703 43.315803 
L 117.578611 43.840071 
L 118.303519 43.645071 
L 119.209655 43.930993 
L 119.753336 43.885434 
L 120.478244 43.465738 
L 121.203153 43.42742 
L 121.928061 42.704634 
L 122.652969 42.562164 
L 123.377877 43.060714 
L 124.102786 42.769467 
L 124.827694 42.950661 
L 126.458738 44.552253 
L 127.002419 45.204718 
L 127.727327 44.783723 
L 129.902052 45.118919 
L 130.626961 46.104976 
L 131.533096 45.334803 
L 132.076777 45.069773 
L 132.801686 45.359437 
L 133.526594 46.301776 
L 134.251502 46.376937 
L 134.976411 47.900851 
L 135.701319 48.260045 
L 136.426227 47.966198 
L 137.332363 48.284807 
L 137.876044 48.31788 
L 137.876044 48.31788 
" clip-path="url(#p16906538dc)" style="fill: none; stroke: #bebebe; stroke-width: 0.6; stroke-linecap: round"/>
   </g>
   <g id="line2d_6">
    <path d="M 6.123956 30.65508 
L 6.848864 29.939724 
L 7.573773 28.16066 
L 8.479908 28.275181 
L 9.023589 28.403798 
L 9.929725 25.481189 
L 10.473406 24.65069 
L 11.923223 26.950929 
L 12.648131 27.008264 
L 13.373039 26.598983 
L 13.916721 27.428426 
L 14.279175 28.131357 
L 14.822856 29.413853 
L 15.18531 28.686992 
L 15.547764 27.785448 
L 15.728991 27.835352 
L 16.272673 28.397592 
L 16.635127 26.556997 
L 16.997581 24.425629 
L 17.178808 24.234311 
L 17.903716 24.547979 
L 18.447398 24.522256 
L 18.809852 25.721626 
L 19.172306 27.12049 
L 19.353533 27.055846 
L 19.897214 25.887268 
L 20.078441 25.887959 
L 20.80335 26.478832 
L 21.347031 26.43841 
L 21.709485 26.85056 
L 22.253166 27.437123 
L 23.702983 27.365772 
L 24.427891 27.857245 
L 25.1528 27.597987 
L 25.696481 26.940203 
L 25.877708 26.990289 
L 26.602616 27.911026 
L 27.327525 27.886771 
L 28.052433 28.068967 
L 29.139795 27.850917 
L 30.589612 27.673662 
L 30.952066 27.484164 
L 31.676974 26.593474 
L 32.401883 25.040988 
L 33.670472 25.646446 
L 34.939062 26.399246 
L 35.301516 26.406305 
L 36.026424 25.839185 
L 36.751333 25.912633 
L 37.476241 26.693769 
L 38.382376 26.684498 
L 38.926058 26.935716 
L 39.650966 28.627248 
L 41.100783 29.075354 
L 41.825691 30.937036 
L 42.550599 29.770224 
L 43.275508 29.863671 
L 44.181643 28.873864 
L 44.725324 28.515455 
L 45.450233 28.969977 
L 46.537595 27.078098 
L 46.900049 26.597041 
L 47.806185 26.431304 
L 48.531093 26.525508 
L 49.074774 26.372832 
L 49.799683 25.151887 
L 50.524591 26.807985 
L 51.249499 26.299513 
L 51.974408 27.405376 
L 52.699316 31.134262 
L 53.424224 31.789692 
L 54.33036 28.759905 
L 54.874041 28.300559 
L 55.598949 29.088815 
L 56.686312 30.448102 
L 57.41122 30.994235 
L 57.773674 31.202472 
L 58.498582 30.827497 
L 59.404718 30.14227 
L 59.948399 30.175343 
L 61.579443 31.356786 
L 62.666805 30.67342 
L 63.029259 30.474251 
L 63.572941 30.375033 
L 63.935395 29.741469 
L 64.297849 29.004065 
L 64.479076 28.92929 
L 65.022757 29.131403 
L 65.566439 29.815283 
L 66.11012 30.398455 
L 67.378709 31.374957 
L 68.466072 30.993457 
L 69.372207 30.689777 
L 69.553434 30.964167 
L 70.822024 34.745102 
L 71.003251 34.878572 
L 71.546932 34.187714 
L 71.728159 34.180947 
L 72.271841 34.809333 
L 72.453068 34.806782 
L 73.177976 34.053216 
L 73.721657 34.229606 
L 73.902884 34.11989 
L 74.627793 33.030804 
L 75.352701 33.216234 
L 76.077609 34.158208 
L 76.621291 34.194956 
L 76.802518 34.322524 
L 77.88988 35.973668 
L 78.252334 36.30705 
L 78.977243 35.936419 
L 80.427059 36.89546 
L 81.151968 36.320091 
L 81.876876 37.062707 
L 82.601784 38.316853 
L 83.326693 38.761751 
L 84.414055 38.615911 
L 84.776509 38.460406 
L 85.501418 37.429446 
L 86.226326 37.397341 
L 86.951234 36.906816 
L 88.038597 36.921475 
L 88.401051 36.873615 
L 89.307186 37.160159 
L 89.850867 37.181578 
L 90.575776 38.495347 
L 92.025592 35.722578 
L 92.931728 36.355783 
L 93.475409 36.937595 
L 95.106453 36.601783 
L 95.650134 36.219607 
L 96.375042 34.83662 
L 97.099951 34.79324 
L 97.824859 35.413512 
L 98.549767 36.467217 
L 99.63713 36.449229 
L 100.180811 36.790882 
L 100.905719 37.3512 
L 101.449401 37.3512 
L 102.355536 38.31751 
L 102.899217 38.324859 
L 103.805353 37.26264 
L 104.711488 37.18708 
L 105.617624 37.070259 
L 105.980078 37.112732 
L 107.06744 37.43932 
L 107.792349 37.682194 
L 108.154803 37.751771 
L 109.785846 37.463473 
L 111.41689 37.399507 
L 111.960571 37.321619 
L 112.68548 37.2416 
L 113.229161 36.97525 
L 113.954069 36.23526 
L 115.222659 36.127595 
L 115.585113 35.878929 
L 116.672475 35.07527 
L 116.853703 35.124301 
L 117.578611 35.983697 
L 118.484746 36.415473 
L 119.390882 36.512858 
L 119.934563 36.422978 
L 120.478244 36.274505 
L 121.021925 36.428846 
L 121.203153 36.306583 
L 121.928061 34.813407 
L 122.652969 34.59977 
L 123.921559 34.977506 
L 124.46524 34.961826 
L 125.008921 34.981452 
L 125.552602 35.137011 
L 126.277511 35.903258 
L 127.002419 37.535257 
L 127.727327 37.278929 
L 128.633463 37.458405 
L 129.902052 37.502766 
L 130.626961 38.380827 
L 131.89555 37.095055 
L 132.076777 36.955928 
L 132.801686 37.089452 
L 133.707821 38.605732 
L 134.251502 39.243701 
L 135.157638 41.3592 
L 135.701319 42.259702 
L 136.426227 41.74093 
L 137.151136 42.463385 
L 137.876044 42.53688 
L 137.876044 42.53688 
" clip-path="url(#p16906538dc)" style="fill: none; stroke: #4a8dff; stroke-width: 0.7; stroke-linecap: round"/>
   </g>
   <g id="line2d_7">
    <path d="M 6.123956 27.5358 
L 7.030091 27.941243 
L 7.573773 28.007389 
L 8.298681 26.662151 
L 9.023589 26.882381 
L 9.748498 26.197316 
L 10.473406 24.565812 
L 11.379541 27.18426 
L 12.10445 27.57784 
L 13.373039 27.497252 
L 14.097948 28.102311 
L 14.822856 29.763173 
L 15.004083 29.702969 
L 15.547764 29.159102 
L 15.910218 29.524434 
L 16.272673 29.977656 
L 16.635127 29.068708 
L 16.997581 27.980975 
L 17.178808 27.981977 
L 18.084943 28.992546 
L 18.628625 29.827329 
L 19.172306 31.014281 
L 19.353533 30.988787 
L 19.897214 30.3751 
L 20.259668 30.440718 
L 20.622123 30.595059 
L 20.984577 30.352903 
L 21.347031 30.031972 
L 21.528258 30.300339 
L 22.071939 31.792297 
L 22.253166 31.949514 
L 22.978075 31.86205 
L 23.702983 32.018935 
L 24.427891 31.488536 
L 25.1528 30.598456 
L 25.877708 30.441639 
L 26.602616 30.866315 
L 27.508752 30.979908 
L 28.052433 31.060902 
L 29.502249 30.249732 
L 30.045931 30.426121 
L 30.227158 30.322875 
L 31.133293 28.988587 
L 31.858202 28.390249 
L 32.401883 28.189707 
L 33.308018 28.375719 
L 34.032927 28.563965 
L 34.576608 28.494902 
L 35.301516 27.892997 
L 36.026424 28.005636 
L 36.751333 27.7487 
L 37.476241 28.424209 
L 38.382376 28.462174 
L 38.926058 28.684691 
L 39.650966 29.907348 
L 40.375874 30.186929 
L 41.100783 29.691944 
L 41.825691 31.715303 
L 42.731826 31.372168 
L 43.275508 31.345707 
L 44.725324 29.099609 
L 45.450233 29.175466 
L 46.356368 26.741481 
L 47.443731 25.360226 
L 47.624958 25.1684 
L 48.349866 25.099967 
L 49.799683 23.926733 
L 50.524591 25.528934 
L 51.249499 24.634306 
L 51.974408 25.435813 
L 52.880543 29.913074 
L 53.424224 30.78032 
L 54.33036 28.65423 
L 54.874041 28.643206 
L 55.780176 29.924281 
L 57.592447 32.740916 
L 57.773674 32.941804 
L 58.317355 32.731787 
L 58.67981 32.482755 
L 59.585945 31.466224 
L 59.948399 30.976254 
L 60.310853 31.383477 
L 60.854535 32.049382 
L 61.398216 32.369088 
L 61.76067 31.876607 
L 62.304351 31.112058 
L 63.391714 30.523282 
L 63.572941 30.447337 
L 64.116622 29.477948 
L 64.297849 29.126395 
L 64.479076 29.035744 
L 65.203984 29.254342 
L 65.928893 29.99379 
L 66.835028 31.561328 
L 67.197482 32.00475 
L 67.378709 31.991966 
L 68.103618 31.400578 
L 69.372207 30.93573 
L 69.553434 31.184058 
L 70.640797 34.466476 
L 70.822024 35.067914 
L 71.003251 35.209024 
L 71.546932 34.3822 
L 71.728159 34.406069 
L 72.271841 35.346811 
L 72.453068 35.380919 
L 73.177976 34.547443 
L 73.721657 34.955343 
L 73.902884 34.892466 
L 74.627793 33.768432 
L 75.171474 33.327459 
L 75.352701 33.397246 
L 76.077609 34.771435 
L 77.346199 36.155748 
L 77.527426 36.537302 
L 78.252334 38.854372 
L 78.977243 38.425635 
L 79.702151 39.01571 
L 80.427059 40.062079 
L 81.151968 39.760247 
L 81.876876 40.586252 
L 82.601784 42.80457 
L 83.326693 43.556498 
L 84.051601 43.668974 
L 85.138963 42.296883 
L 85.501418 41.997791 
L 86.226326 42.359774 
L 86.951234 40.848379 
L 87.676143 40.476287 
L 89.850867 40.94615 
L 90.575776 42.887269 
L 91.481911 40.139784 
L 92.025592 39.322293 
L 92.750501 40.05205 
L 93.475409 41.439815 
L 94.200317 41.474113 
L 95.28768 40.910072 
L 95.650134 40.797379 
L 96.375042 39.77136 
L 97.281178 40.05561 
L 97.824859 39.875546 
L 98.730994 40.953202 
L 99.274676 40.971576 
L 100.724492 42.836953 
L 101.268174 42.380015 
L 101.449401 42.207301 
L 101.993082 42.787556 
L 102.355536 43.105319 
L 102.899217 43.333155 
L 103.442899 42.434372 
L 103.624126 42.107317 
L 103.98658 41.98274 
L 105.617624 41.830708 
L 105.980078 41.940531 
L 106.704986 42.359361 
L 107.429894 42.301241 
L 108.33603 42.451541 
L 109.060938 42.326789 
L 109.785846 42.178607 
L 110.329528 42.22449 
L 110.873209 42.4707 
L 111.235663 42.253449 
L 111.598117 41.944768 
L 111.960571 42.058544 
L 112.323026 42.27903 
L 112.68548 42.091123 
L 114.135296 41.007721 
L 115.222659 40.467732 
L 115.585113 39.946578 
L 116.128794 39.177596 
L 116.672475 39.27314 
L 117.03493 39.728595 
L 117.578611 40.495669 
L 119.934563 40.817925 
L 121.021925 40.563615 
L 121.203153 40.346039 
L 121.928061 38.423868 
L 122.652969 37.697529 
L 123.377877 38.342962 
L 124.46524 38.493655 
L 124.827694 38.630535 
L 126.277511 39.974183 
L 127.002419 41.900048 
L 127.727327 41.417482 
L 129.358371 41.425765 
L 129.902052 41.567335 
L 130.626961 42.766827 
L 131.533096 41.809952 
L 132.076777 41.49449 
L 132.801686 41.579037 
L 133.526594 43.786878 
L 134.251502 44.048423 
L 134.976411 46.684217 
L 135.701319 47.539153 
L 136.426227 46.653851 
L 137.151136 47.708856 
L 137.876044 47.96364 
L 137.876044 47.96364 
" clip-path="url(#p16906538dc)" style="fill: none; stroke: #f5841e; stroke-width: 0.8; stroke-linecap: round"/>
   </g>
  </g>
 </g>
 <defs>
  <clipPath id="p16906538dc">
   <rect x="5.76" y="3.6" width="132.48" height="49.2"/>
  </clipPath>
 </defs>
</svg>
