<?xml version="1.0" encoding="utf-8" standalone="no"?>
<!DOCTYPE svg PUBLIC "-//W3C//DTD SVG 1.1//EN"
  "http://www.w3.org/Graphics/SVG/1.1/DTD/svg11.dtd">
<svg xmlns:xlink="http://www.w3.org/1999/xlink" width="144pt" height="60pt" viewBox="0 0 144 60" xmlns="http://www.w3.org/2000/svg" version="1.1">
  <desc id="nav-meta">{"window":"2w","count":4,"labels":["16 Jan","22 Jan","24 Jan","30 Jan"],"idxs":[0,50,99,149]}</desc>

 <metadata>
  <rdf:RDF xmlns:dc="http://purl.org/dc/elements/1.1/" xmlns:cc="http://creativecommons.org/ns#" xmlns:rdf="http://www.w3.org/1999/02/22-rdf-syntax-ns#">
   <cc:Work>
    <dc:type rdf:resource="http://purl.org/dc/dcmitype/StillImage"/>
    <dc:date>2026-01-30T04:22:30.102793</dc:date>
    <dc:format>image/svg+xml</dc:format>
    <dc:creator>
     <cc:Agent>
      <dc:title>Matplotlib v3.10.8, https://matplotlib.org/</dc:title>
     </cc:Agent>
    </dc:creator>
   </cc:Work>
  </rdf:RDF>
 </metadata>
 <defs>
  <style type="text/css">*{stroke-linejoin: round; stroke-linecap: butt}</style>
 </defs>
 <g id="figure_1">
  <g id="patch_1">
   <path d="M 0 60 
L 144 60 
L 144 0 
L 0 0 
L 0 60 
z
" style="fill: none; opacity: 0"/>
  </g>
  <g id="axes_1">
   <g id="patch_2">
    <path d="M 5.76 52.8 
L 138.24 52.8 
L 138.24 3.6 
L 5.76 3.6 
L 5.76 52.8 
z
" style="fill: none"/>
   </g>
   <g id="matplotlib.axis_1"/>
   <g id="matplotlib.axis_2"/>
   <g id="line2d_1">
    <path d="M 5.76 42.96 
L 138.24 42.96 
" clip-path="url(#pd3bf2f845c)" style="fill: none; stroke: #b2b2b2; stroke-opacity: 0.35; stroke-width: 0.5; stroke-linecap: square"/>
   </g>
   <g id="line2d_2">
    <path d="M 5.76 33.12 
L 138.24 33.12 
" clip-path="url(#pd3bf2f845c)" style="fill: none; stroke: #b2b2b2; stroke-opacity: 0.35; stroke-width: 0.5; stroke-linecap: square"/>
   </g>
   <g id="line2d_3">
    <path d="M 5.76 23.28 
L 138.24 23.28 
" clip-path="url(#pd3bf2f845c)" style="fill: none; stroke: #b2b2b2; stroke-opacity: 0.35; stroke-width: 0.5; stroke-linecap: square"/>
   </g>
   <g id="line2d_4">
    <path d="M 5.76 13.44 
L 138.24 13.44 
" clip-path="url(#pd3bf2f845c)" style="fill: none; stroke: #b2b2b2; stroke-opacity: 0.35; stroke-width: 0.5; stroke-linecap: square"/>
   </g>
   <g id="line2d_5">
    <path d="M 6.2016 37.34628 
L 7.300071 37.85304 
L 9.277318 37.765211 
L 10.156095 37.671 
L 11.034871 37.568723 
L 11.913648 37.45452 
L 19.602944 37.523129 
L 20.701414 37.68576 
L 27.292239 37.74972 
L 27.731627 38.156248 
L 28.39071 38.8272 
L 31.686122 38.729129 
L 32.784593 38.724627 
L 34.102758 38.86656 
L 34.542146 38.914881 
L 35.420923 39.41268 
L 36.739088 39.509027 
L 37.617864 39.57996 
L 43.769301 39.476238 
L 44.428383 39.3438 
L 45.526854 39.258419 
L 46.405631 39.18144 
L 47.504102 39.279249 
L 48.382878 39.30936 
L 52.557067 39.396959 
L 53.21615 39.52092 
L 81.117308 39.608223 
L 81.996084 39.64392 
L 83.753637 39.743306 
L 84.852108 39.76692 
L 86.389967 39.673284 
L 87.488438 39.64884 
L 100.011005 39.755717 
L 101.548864 39.7866 
L 102.647335 40.75584 
L 103.526112 40.661662 
L 104.404888 40.27368 
L 107.041218 40.187904 
L 108.359383 40.06212 
L 115.828984 39.99131 
L 116.707761 39.63408 
L 129.230328 39.733663 
L 130.109105 39.9096 
L 130.987881 39.986332 
L 131.866658 40.17528 
L 134.283293 40.153456 
L 135.16207 40.7706 
L 137.7984 40.87392 
L 137.7984 40.87392 
" clip-path="url(#pd3bf2f845c)" style="fill: none; stroke: #bebebe; stroke-width: 0.6; stroke-linecap: round"/>
   </g>
   <g id="line2d_6">
    <path d="M 6.2016 32.10156 
L 7.519765 32.004638 
L 8.178847 31.938822 
L 9.497012 32.04744 
L 15.648449 31.951348 
L 17.406002 31.88393 
L 18.943861 31.875914 
L 22.239273 31.857055 
L 25.095297 31.68336 
L 25.534686 31.68336 
L 25.974074 32.03208 
L 26.633157 32.588977 
L 28.830098 32.592525 
L 31.246734 32.56896 
L 32.125511 32.669479 
L 33.004287 32.85432 
L 33.66337 32.907676 
L 34.542146 33.42504 
L 35.420923 33.465287 
L 36.299699 33.9072 
L 37.617864 33.988663 
L 38.496641 34.04988 
L 39.375418 34.127154 
L 40.473888 34.18764 
L 43.988995 34.17288 
L 44.428383 34.081265 
L 45.30716 33.84816 
L 46.625325 33.939036 
L 47.723796 33.966897 
L 51.67829 34.290484 
L 52.337373 34.45332 
L 78.261283 34.34499 
L 79.579448 34.330764 
L 80.677919 34.55664 
L 86.829356 34.46822 
L 88.367215 34.372727 
L 90.564156 34.323223 
L 100.670087 34.5714 
L 101.768558 35.47176 
L 102.647335 35.390937 
L 103.526112 35.06832 
L 104.404888 34.990602 
L 105.283665 34.65996 
L 110.116936 34.548903 
L 110.776019 34.46808 
L 111.874489 34.554127 
L 112.753266 34.60092 
L 114.950208 34.531983 
L 115.828984 33.9072 
L 123.078891 34.013814 
L 126.813692 34.047712 
L 127.692469 33.981 
L 129.88941 33.986643 
L 130.768187 34.41888 
L 133.404517 34.426535 
L 134.283293 35.10768 
L 135.381764 35.185546 
L 136.260541 35.40288 
L 137.139318 35.469049 
L 137.7984 35.66364 
L 137.7984 35.66364 
" clip-path="url(#pd3bf2f845c)" style="fill: none; stroke: #4a8dff; stroke-width: 0.7; stroke-linecap: round"/>
   </g>
   <g id="line2d_7">
    <path d="M 6.2016 36.55908 
L 7.519765 36.464582 
L 8.178847 36.423579 
L 9.277318 36.60336 
L 15.428755 36.511818 
L 16.966614 36.471169 
L 23.996827 36.604765 
L 25.534686 36.50004 
L 25.974074 36.926889 
L 26.633157 37.587664 
L 28.171016 37.49388 
L 30.807346 37.471859 
L 31.905816 37.502726 
L 32.784593 37.87764 
L 33.66337 37.924557 
L 34.542146 38.37948 
L 35.640617 38.461206 
L 36.519394 38.62548 
L 37.39817 38.719009 
L 38.276947 38.91576 
L 39.595112 39.011367 
L 41.792053 39.12732 
L 42.67083 39.043951 
L 43.549607 38.84196 
L 44.867772 38.746065 
L 45.966242 38.721375 
L 47.723796 38.822214 
L 51.458596 38.871053 
L 52.337373 39.147 
L 58.928198 39.060477 
L 59.806974 39.01908 
L 60.466057 38.945354 
L 61.344833 38.8518 
L 63.102387 38.952631 
L 64.200857 39.02892 
L 78.041589 38.93259 
L 79.14006 38.82228 
L 79.799143 38.918232 
L 80.677919 39.11256 
L 82.655167 39.202525 
L 83.753637 39.2454 
L 84.41272 39.095418 
L 85.071802 38.999934 
L 86.609661 39.054949 
L 89.465685 38.88132 
L 92.32171 38.990373 
L 93.859569 39.041232 
L 97.154981 39.2208 
L 98.473146 39.51108 
L 99.571617 39.412187 
L 100.450393 39.37332 
L 100.670087 39.37332 
L 101.768558 40.34748 
L 102.647335 40.256801 
L 103.526112 39.89484 
L 104.404888 39.845213 
L 105.503359 39.63408 
L 108.359383 39.701588 
L 109.018465 39.78168 
L 109.677548 39.705194 
L 110.556325 39.30444 
L 111.654795 39.412409 
L 112.533572 39.57504 
L 113.412349 39.649678 
L 114.291125 39.76692 
L 114.950208 39.670179 
L 115.828984 39.024 
L 121.541032 39.131698 
L 123.078891 39.160117 
L 126.813692 39.072863 
L 127.472775 38.9502 
L 128.351551 39.012985 
L 129.450022 39.15684 
L 129.88941 39.178573 
L 130.768187 39.639 
L 133.404517 39.641735 
L 134.283293 40.32288 
L 135.16207 40.336778 
L 136.040847 41.24784 
L 137.139318 41.352712 
L 137.7984 41.66112 
L 137.7984 41.66112 
" clip-path="url(#pd3bf2f845c)" style="fill: none; stroke: #f5841e; stroke-width: 0.8; stroke-linecap: round"/>
   </g>
  </g>
 </g>
 <defs>
  <clipPath id="pd3bf2f845c">
   <rect x="5.76" y="3.6" width="132.48" height="49.2"/>
  </clipPath>
 </defs>
</svg>
