<?xml version="1.0" encoding="utf-8" standalone="no"?>
<!DOCTYPE svg PUBLIC "-//W3C//DTD SVG 1.1//EN"
  "http://www.w3.org/Graphics/SVG/1.1/DTD/svg11.dtd">
<svg xmlns:xlink="http://www.w3.org/1999/xlink" width="144pt" height="60pt" viewBox="0 0 144 60" xmlns="http://www.w3.org/2000/svg" version="1.1">
  <desc id="nav-meta">{"window":"1y","count":4,"labels":["27.05","26.09","25.01","27.05"],"tick_utc":["2025-05-27T12:00:00Z","2025-09-26T12:00:00Z","2026-01-25T12:00:00Z","2026-05-27T05:03:21Z"]}</desc>

 <metadata>
  <rdf:RDF xmlns:dc="http://purl.org/dc/elements/1.1/" xmlns:cc="http://creativecommons.org/ns#" xmlns:rdf="http://www.w3.org/1999/02/22-rdf-syntax-ns#">
   <cc:Work>
    <dc:type rdf:resource="http://purl.org/dc/dcmitype/StillImage"/>
    <dc:date>2026-05-27T05:03:23.093063</dc:date>
    <dc:format>image/svg+xml</dc:format>
    <dc:creator>
     <cc:Agent>
      <dc:title>Matplotlib v3.10.9, https://matplotlib.org/</dc:title>
     </cc:Agent>
    </dc:creator>
   </cc:Work>
  </rdf:RDF>
 </metadata>
 <defs>
  <style type="text/css">*{stroke-linejoin: round; stroke-linecap: butt}</style>
 </defs>
 <g id="figure_1">
  <g id="patch_1">
   <path d="M 0 60 
L 144 60 
L 144 0 
L 0 0 
L 0 60 
z
" style="fill: none; opacity: 0"/>
  </g>
  <g id="axes_1">
   <g id="patch_2">
    <path d="M 5.76 52.8 
L 138.24 52.8 
L 138.24 3.6 
L 5.76 3.6 
L 5.76 52.8 
z
" style="fill: none"/>
   </g>
   <g id="matplotlib.axis_1"/>
   <g id="matplotlib.axis_2"/>
   <g id="line2d_1">
    <path d="M 5.76 42.96 
L 138.24 42.96 
" clip-path="url(#pffe1992886)" style="fill: none; stroke: #b2b2b2; stroke-opacity: 0.35; stroke-width: 0.5; stroke-linecap: square"/>
   </g>
   <g id="line2d_2">
    <path d="M 5.76 33.12 
L 138.24 33.12 
" clip-path="url(#pffe1992886)" style="fill: none; stroke: #b2b2b2; stroke-opacity: 0.35; stroke-width: 0.5; stroke-linecap: square"/>
   </g>
   <g id="line2d_3">
    <path d="M 5.76 23.28 
L 138.24 23.28 
" clip-path="url(#pffe1992886)" style="fill: none; stroke: #b2b2b2; stroke-opacity: 0.35; stroke-width: 0.5; stroke-linecap: square"/>
   </g>
   <g id="line2d_4">
    <path d="M 5.76 13.44 
L 138.24 13.44 
" clip-path="url(#pffe1992886)" style="fill: none; stroke: #b2b2b2; stroke-opacity: 0.35; stroke-width: 0.5; stroke-linecap: square"/>
   </g>
   <g id="line2d_5">
    <path d="M 5.76 38.86164 
L 6.123247 38.62056 
L 6.849741 39.88992 
L 7.212987 41.23308 
L 8.302728 41.17404 
L 9.029222 41.62176 
L 9.392469 42.79272 
L 9.755715 42.30564 
L 10.482209 41.7546 
L 10.845456 40.62792 
L 11.208703 40.131 
L 11.57195 40.6476 
L 11.935197 41.73492 
L 12.66169 42.76812 
L 13.024937 41.73492 
L 13.388184 41.89728 
L 13.751431 42.345 
L 14.114678 42.5664 
L 14.477925 42.46308 
L 15.204418 44.20476 
L 15.567665 44.45076 
L 15.930912 42.7632 
L 16.294159 42.63036 
L 16.657406 42.94524 
L 17.020652 43.52088 
L 17.383899 43.1076 
L 17.747146 41.98092 
L 18.47364 41.43972 
L 18.836887 42.4926 
L 19.200134 41.79888 
L 19.56338 41.78412 
L 19.926627 42.37452 
L 20.289874 42.3942 
L 20.653121 41.83332 
L 21.016368 42.24168 
L 21.379615 41.84316 
L 22.106108 40.2786 
L 22.469355 40.42128 
L 22.832602 40.71648 
L 23.559096 40.48032 
L 23.922343 40.26384 
L 24.28559 38.97972 
L 25.012083 38.51724 
L 25.37533 38.57628 
L 25.738577 38.04492 
L 26.101824 36.03264 
L 26.465071 34.88136 
L 26.828318 36.92316 
L 27.191564 37.8432 
L 27.554811 37.37088 
L 27.918058 37.53324 
L 28.281305 37.056 
L 28.644552 37.77924 
L 29.007799 38.02032 
L 29.371046 38.45328 
L 29.734292 39.1962 
L 30.097539 40.41636 
L 30.460786 40.97232 
L 30.824033 40.53444 
L 31.18728 39.55536 
L 31.550527 40.24908 
L 31.913774 39.7128 
L 32.27702 38.778 
L 32.640267 38.59104 
L 33.366761 37.794 
L 33.730008 38.82228 
L 34.093255 36.53448 
L 34.456502 35.334 
L 35.182995 37.44468 
L 35.546242 36.90348 
L 35.909489 36.65748 
L 36.635983 38.64516 
L 36.999229 37.2282 
L 37.362476 38.14332 
L 37.725723 35.53572 
L 38.08897 35.04372 
L 38.452217 34.80264 
L 38.815464 37.23804 
L 39.905204 33.67104 
L 40.268451 34.90596 
L 41.358192 35.9736 
L 41.721439 34.36476 
L 42.084685 34.1778 
L 42.447932 35.22084 
L 42.811179 35.11752 
L 43.174426 35.54556 
L 44.627413 32.44104 
L 44.99066 31.83096 
L 45.353907 30.06468 
L 45.717154 30.01056 
L 46.080401 30.291 
L 46.443648 31.16184 
L 46.806895 30.74856 
L 47.170141 29.71536 
L 47.533388 29.37588 
L 47.896635 30.57636 
L 48.259882 30.42876 
L 48.623129 30.79284 
L 48.986376 32.91828 
L 49.349623 33.72024 
L 49.712869 34.05972 
L 50.076116 36.5886 
L 50.439363 34.90104 
L 50.80261 35.10276 
L 51.165857 34.16796 
L 51.529104 33.8826 
L 51.892351 34.43364 
L 52.618844 31.05852 
L 52.982091 31.26024 
L 53.345338 31.92936 
L 53.708585 31.85064 
L 54.071832 31.3242 
L 54.435079 32.84448 
L 54.798325 31.78176 
L 55.161572 32.85924 
L 55.524819 36.8838 
L 55.888066 38.39424 
L 56.251313 35.95392 
L 56.61456 34.53696 
L 56.977807 35.20608 
L 57.7043 37.57752 
L 58.067547 37.90716 
L 58.430794 37.18884 
L 58.794041 37.18392 
L 59.157288 36.89364 
L 59.520534 37.42008 
L 59.883781 38.17284 
L 60.247028 36.687 
L 60.610275 36.42132 
L 60.973522 36.34752 
L 61.336769 35.56032 
L 61.700016 35.72268 
L 62.063262 36.29832 
L 62.426509 36.32292 
L 62.789756 37.61688 
L 63.153003 37.2282 
L 63.51625 37.34628 
L 63.879497 37.23804 
L 64.242744 40.008 
L 64.60599 41.36592 
L 64.969237 40.43604 
L 65.332484 41.44956 
L 65.695731 40.53444 
L 66.058978 41.02152 
L 66.422225 40.22448 
L 66.785472 39.79644 
L 67.148718 41.51844 
L 67.511965 41.66604 
L 68.238459 43.51596 
L 68.601706 43.43724 
L 68.964953 43.71276 
L 69.3282 44.59836 
L 69.691446 43.30932 
L 70.781187 44.88372 
L 71.144434 44.99688 
L 71.507681 44.57868 
L 71.870928 43.5996 
L 72.234174 43.51596 
L 72.597421 43.00428 
L 72.960668 43.2798 
L 73.323915 43.71768 
L 74.050409 44.0916 
L 74.413656 45.11004 
L 74.776902 43.55532 
L 75.140149 42.72876 
L 75.866643 44.27364 
L 76.593137 44.47536 
L 76.956384 44.25888 
L 77.31963 43.64388 
L 77.682877 43.84068 
L 78.046124 43.85052 
L 78.409371 44.36712 
L 78.772618 44.26872 
L 79.135865 44.74104 
L 79.499111 44.98704 
L 79.862358 44.84436 
L 80.225605 45.58728 
L 80.588852 46.0596 
L 80.952099 45.18384 
L 82.405086 45.47904 
L 82.768333 45.65616 
L 83.13158 45.98088 
L 83.858074 45.38556 
L 84.221321 45.31668 
L 84.584567 45.58728 
L 84.947814 45.35604 
L 85.311061 45.40032 
L 85.674308 45.11496 
L 86.037555 44.42124 
L 86.764049 44.18508 
L 87.490542 43.24044 
L 87.853789 43.8702 
L 88.217036 43.60944 
L 88.580283 43.92924 
L 88.94353 43.93416 
L 89.306777 43.46184 
L 89.670023 43.5012 
L 90.03327 42.72384 
L 90.396517 42.51228 
L 90.759764 43.08792 
L 91.123011 42.75828 
L 91.486258 42.90096 
L 92.212751 44.2392 
L 92.575998 45.23304 
L 92.939245 44.77548 
L 93.665739 45.04608 
L 94.028986 45.07068 
L 94.392233 46.1334 
L 94.755479 45.4446 
L 95.118726 45.06084 
L 95.481973 45.33144 
L 95.84522 46.30068 
L 96.208467 46.34496 
L 96.571714 47.89476 
L 96.934961 48.26376 
L 97.298207 47.96364 
L 98.256599 50.04972 
L 98.61829 49.24776 
L 100.077903 49.59708 
L 100.439843 49.80372 
L 100.80298 49.86768 
L 101.505939 49.24776 
L 101.892485 49.48392 
L 102.210104 49.37568 
L 102.618403 49.479 
L 102.981209 49.7004 
L 104.070756 49.49376 
L 104.435096 49.98576 
L 104.767656 49.96608 
L 105.160282 49.7004 
L 105.52191 49.27236 
L 105.884468 49.37076 
L 106.243434 49.68072 
L 106.614934 49.25268 
L 106.974431 49.51344 
L 108.063764 49.09032 
L 109.518408 49.58724 
L 109.879321 49.36092 
L 110.607101 49.45932 
L 110.969646 49.16904 
L 111.702606 49.27236 
L 112.066879 48.87384 
L 112.789786 48.70164 
L 113.153134 49.03128 
L 113.512845 49.1592 
L 113.873964 49.08048 
L 114.606743 49.36584 
L 115.356928 48.90828 
L 115.697539 49.05096 
L 116.421019 49.64628 
L 117.880817 49.59708 
L 118.239279 49.8726 
L 118.963078 49.80864 
L 120.056867 49.83816 
L 120.420703 49.50852 
L 120.782684 49.68564 
L 121.506966 49.48884 
L 122.241839 49.69056 
L 122.602774 49.40028 
L 122.965743 49.58724 
L 124.052309 49.19856 
L 124.420353 49.43472 
L 124.7845 49.50852 
L 126.596114 49.37568 
L 126.965011 49.4052 
L 127.332172 49.29204 
L 127.69618 49.5528 
L 128.058435 49.50852 
L 128.422291 49.64136 
L 129.143483 49.56264 
L 129.514104 49.57248 
L 129.877225 49.42488 
L 130.232471 49.49376 
L 130.96546 49.25268 
L 131.322662 49.24284 
L 131.687237 48.80004 
L 132.057803 48.85416 
L 132.782119 48.63276 
L 133.147094 48.66228 
L 133.509937 49.09524 
L 133.874975 48.99192 
L 134.602255 49.34616 
L 134.969029 49.47408 
L 135.69422 49.54788 
L 136.059535 49.3314 
L 136.419999 49.34616 
L 136.778255 49.51836 
L 137.51528 49.41504 
L 138.24 49.5774 
L 138.24 49.5774 
" clip-path="url(#pffe1992886)" style="fill: none; stroke: #bebebe; stroke-width: 0.6; stroke-linecap: round"/>
   </g>
   <g id="line2d_6">
    <path d="M 5.76 40.19496 
L 6.123247 39.4914 
L 6.486494 39.38808 
L 6.849741 39.69312 
L 7.212987 40.46556 
L 7.939481 40.36716 
L 8.302728 39.8604 
L 8.665975 39.96372 
L 9.029222 39.85548 
L 9.392469 41.1888 
L 10.118962 40.4508 
L 10.482209 40.5738 
L 11.208703 38.45328 
L 11.57195 38.68452 
L 11.935197 39.55536 
L 12.298443 40.09164 
L 12.66169 40.39668 
L 13.388184 40.2048 
L 13.751431 40.52952 
L 14.477925 40.48032 
L 15.204418 42.26136 
L 15.567665 42.5664 
L 15.930912 41.17404 
L 16.294159 41.0166 
L 16.657406 41.22324 
L 17.383899 41.17896 
L 17.747146 41.08056 
L 18.110393 40.61808 
L 18.47364 40.7214 
L 18.836887 41.30688 
L 19.200134 40.11132 
L 19.56338 39.99816 
L 19.926627 40.56888 
L 20.289874 40.51476 
L 20.653121 40.131 
L 21.016368 40.3278 
L 21.379615 39.81612 
L 22.106108 37.46436 
L 22.469355 37.39056 
L 22.832602 37.50372 
L 23.559096 37.01172 
L 23.922343 36.16056 
L 24.28559 34.4976 
L 24.648836 33.69072 
L 25.37533 32.89368 
L 25.738577 31.73256 
L 26.101824 31.68336 
L 26.465071 31.8162 
L 26.828318 32.64276 
L 27.191564 32.0868 
L 27.918058 31.85064 
L 28.281305 30.98964 
L 28.644552 31.53576 
L 29.007799 31.521 
L 29.371046 31.38816 
L 29.734292 32.17044 
L 30.097539 33.68088 
L 30.460786 34.28604 
L 30.824033 33.58248 
L 31.18728 32.0376 
L 31.550527 32.76576 
L 31.913774 32.259 
L 32.27702 30.65508 
L 32.640267 29.93676 
L 33.003514 28.14588 
L 33.730008 28.40664 
L 34.093255 25.73508 
L 34.456502 24.62316 
L 34.819748 26.10408 
L 35.182995 26.97984 
L 35.546242 27.00936 
L 35.909489 26.58132 
L 36.272736 27.7818 
L 36.635983 29.49888 
L 36.999229 27.68832 
L 37.362476 28.44108 
L 37.725723 24.16068 
L 38.08897 24.55428 
L 38.452217 24.51984 
L 38.815464 27.32916 
L 39.178711 25.7646 
L 39.541957 26.48784 
L 39.905204 26.43372 
L 40.268451 27.44724 
L 40.994945 27.27504 
L 41.358192 27.8802 
L 41.721439 27.72276 
L 42.084685 26.84208 
L 42.447932 27.91956 
L 42.811179 27.8556 
L 43.174426 28.09668 
L 43.537673 27.87528 
L 44.264167 27.83592 
L 44.627413 27.57024 
L 44.99066 26.77812 
L 45.353907 25.01184 
L 46.080401 25.71048 
L 46.443648 26.31564 
L 46.806895 26.45832 
L 47.170141 25.8384 
L 47.533388 25.84824 
L 47.896635 26.6994 
L 48.259882 26.62068 
L 48.623129 26.8224 
L 48.986376 28.61328 
L 49.712869 28.97244 
L 50.076116 30.99456 
L 50.439363 29.76456 
L 50.80261 29.8974 
L 51.165857 29.02164 
L 51.529104 28.50012 
L 51.892351 29.00688 
L 52.618844 26.601 
L 52.982091 26.3796 
L 53.345338 26.5764 
L 53.708585 26.3796 
L 54.071832 25.1496 
L 54.435079 26.81256 
L 54.798325 26.29596 
L 55.161572 27.41772 
L 55.524819 31.19136 
L 55.888066 31.80144 
L 56.251313 28.89864 
L 56.61456 28.28364 
L 57.7043 30.80268 
L 58.067547 31.22088 
L 58.430794 30.8076 
L 58.794041 30.13356 
L 59.157288 30.17784 
L 59.883781 31.42752 
L 60.247028 31.04376 
L 60.610275 30.49764 
L 60.973522 30.3648 
L 61.336769 28.88388 
L 61.700016 29.15448 
L 62.063262 30.15324 
L 62.789756 31.4226 
L 63.51625 30.9306 
L 63.879497 30.66 
L 64.60599 34.99944 
L 64.969237 34.07448 
L 65.332484 34.9158 
L 65.695731 34.02528 
L 66.058978 34.26144 
L 66.422225 33.0216 
L 66.785472 33.10524 
L 67.148718 34.1532 
L 67.511965 34.2024 
L 68.238459 36.34752 
L 68.601706 35.89488 
L 69.3282 36.94776 
L 69.691446 36.2688 
L 70.054693 36.97236 
L 70.41794 38.286 
L 70.781187 38.76324 
L 71.144434 38.73864 
L 71.507681 38.51724 
L 71.870928 37.42992 
L 72.234174 37.42008 
L 72.597421 36.90348 
L 72.960668 36.98712 
L 73.323915 36.86412 
L 73.687162 37.16424 
L 74.050409 37.14948 
L 74.413656 38.52216 
L 75.140149 35.71776 
L 75.503396 36.15564 
L 75.866643 36.93792 
L 76.593137 36.72636 
L 76.956384 36.21468 
L 77.31963 34.8174 
L 77.682877 34.7928 
L 78.046124 35.42748 
L 78.409371 36.49512 
L 78.772618 36.28356 
L 79.135865 36.6378 
L 79.499111 37.3512 
L 79.862358 37.3512 
L 80.225605 38.31552 
L 80.588852 38.32536 
L 80.952099 37.26264 
L 81.315346 37.26264 
L 81.678593 37.09044 
L 82.041839 37.06092 
L 82.405086 37.34628 
L 82.768333 37.48404 
L 83.13158 37.77924 
L 83.858074 37.45944 
L 84.584567 37.56276 
L 84.947814 37.31184 
L 85.311061 37.33644 
L 85.674308 37.09536 
L 86.037555 36.23928 
L 86.764049 36.11628 
L 87.490542 35.0142 
L 87.853789 35.93424 
L 88.217036 36.36228 
L 88.580283 36.50988 
L 88.94353 36.5148 
L 89.306777 36.25404 
L 89.670023 36.46068 
L 90.03327 34.83708 
L 90.396517 34.57632 
L 91.123011 35.00436 
L 91.486258 34.93056 
L 91.849505 35.088 
L 92.212751 35.78664 
L 92.575998 37.55292 
L 92.939245 37.26756 
L 93.302492 37.46436 
L 94.028986 37.45944 
L 94.392233 38.41392 
L 95.118726 36.95268 
L 95.481973 37.05108 
L 95.84522 38.37948 
L 96.208467 39.20604 
L 96.571714 41.03136 
L 96.934961 42.26628 
L 97.298207 41.73492 
L 97.604869 42.23676 
L 98.256599 44.89356 
L 98.61829 43.6242 
L 99.35009 43.53072 
L 99.715409 43.72752 
L 100.439843 44.436 
L 100.80298 44.49012 
L 101.161859 43.81608 
L 101.505939 43.7226 
L 101.892485 44.5344 
L 102.210104 44.19 
L 102.618403 44.21952 
L 103.342332 44.51472 
L 104.070756 44.3868 
L 104.435096 45.174 
L 104.767656 45.23796 
L 105.160282 44.81484 
L 105.52191 43.821 
L 105.884468 44.01288 
L 106.243434 44.66232 
L 106.614934 43.93908 
L 106.974431 44.39664 
L 107.338523 44.12112 
L 107.699735 44.33268 
L 108.063764 43.3044 
L 108.426838 43.6242 
L 108.787298 44.29824 
L 109.154072 44.53932 
L 109.518408 44.30808 
L 109.879321 43.8702 
L 110.242425 44.00304 
L 110.607101 43.97844 
L 110.969646 43.41756 
L 111.702606 43.48644 
L 112.423769 41.73984 
L 112.789786 41.7546 
L 113.512845 43.14204 
L 113.873964 43.083 
L 114.242643 43.35852 
L 114.606743 43.78164 
L 114.966627 43.21584 
L 115.356928 42.9354 
L 115.697539 43.10268 
L 116.421019 44.25396 
L 117.514455 43.74228 
L 117.880817 43.46676 
L 118.602942 43.79148 
L 119.331795 43.77672 
L 119.695979 43.2552 
L 120.056867 43.40772 
L 120.420703 42.49752 
L 120.782684 42.90588 
L 121.149273 42.8616 
L 121.506966 42.41388 
L 122.241839 42.79764 
L 122.602774 41.57256 
L 122.965743 41.86284 
L 123.330562 41.63652 
L 123.693069 41.85792 
L 124.052309 41.22324 
L 124.7845 42.1482 
L 125.146153 41.96616 
L 125.508273 41.59224 
L 126.237201 41.99076 
L 126.596114 41.91696 
L 126.965011 41.98584 
L 127.332172 41.41512 
L 127.69618 42.15312 
L 128.058435 41.96124 
L 128.422291 42.43848 
L 129.143483 42.02028 
L 129.514104 42.0252 
L 129.877225 41.40528 
L 130.602117 41.52336 
L 131.322662 42.1974 
L 131.687237 41.8776 
L 132.423918 41.8038 
L 132.782119 41.976 
L 133.147094 42.00552 
L 133.509937 42.3942 
L 133.874975 42.27612 
L 134.969029 43.31424 
L 135.329674 43.2306 
L 135.69422 43.39296 
L 136.059535 43.16172 
L 136.419999 43.24536 
L 136.778255 43.71768 
L 137.147253 43.33392 
L 138.24 43.67832 
L 138.24 43.67832 
" clip-path="url(#pffe1992886)" style="fill: none; stroke: #4a8dff; stroke-width: 0.6; stroke-linecap: round"/>
   </g>
   <g id="line2d_7">
    <path d="M 5.76 31.53084 
L 6.123247 31.68336 
L 6.486494 32.28852 
L 7.212987 34.1778 
L 7.576234 33.84324 
L 7.939481 33.3414 
L 8.302728 33.25284 
L 9.029222 33.7842 
L 9.392469 35.34384 
L 9.755715 33.981 
L 10.118962 33.35616 
L 10.482209 33.35124 
L 10.845456 31.09296 
L 11.208703 31.11756 
L 11.57195 31.87524 
L 11.935197 33.20856 
L 12.298443 33.17412 
L 12.66169 33.45456 
L 13.024937 33.4152 
L 13.388184 32.7264 
L 13.751431 33.84816 
L 14.477925 33.84324 
L 15.567665 35.73744 
L 15.930912 33.4398 
L 16.294159 33.20856 
L 16.657406 32.58372 
L 17.020652 32.71164 
L 17.747146 32.53944 
L 18.110393 32.013 
L 18.836887 33.3906 
L 19.200134 31.80144 
L 19.56338 31.41768 
L 19.926627 32.19012 
L 20.289874 32.10156 
L 20.653121 31.60956 
L 21.016368 32.0622 
L 21.379615 31.73748 
L 21.742862 30.56652 
L 22.106108 28.31808 
L 22.469355 27.48168 
L 22.832602 27.55548 
L 23.195849 26.71908 
L 23.559096 26.36484 
L 23.922343 27.42756 
L 24.648836 26.55672 
L 25.012083 27.27504 
L 25.37533 27.31932 
L 25.738577 27.63912 
L 26.101824 27.52596 
L 26.465071 26.3058 
L 26.828318 26.96016 
L 27.191564 27.09792 
L 27.554811 27.49644 
L 27.918058 27.2898 
L 28.281305 26.57148 
L 28.644552 27.27012 
L 29.371046 27.35376 
L 30.097539 29.62188 
L 30.460786 29.96136 
L 30.824033 29.14956 
L 31.18728 28.68216 
L 31.550527 29.184 
L 31.913774 28.7412 
L 32.27702 27.5358 
L 32.640267 27.91956 
L 33.003514 28.00812 
L 33.366761 26.64528 
L 33.730008 26.88636 
L 34.093255 26.1828 
L 34.456502 24.52476 
L 34.819748 27.0684 
L 35.182995 27.59484 
L 35.909489 27.49644 
L 36.272736 28.13112 
L 36.635983 29.8482 
L 36.999229 29.12004 
L 37.362476 30.03024 
L 37.725723 27.84576 
L 38.452217 29.54316 
L 38.815464 31.13232 
L 39.178711 30.31068 
L 39.541957 30.62064 
L 39.905204 29.97612 
L 40.268451 31.97364 
L 40.631698 31.82112 
L 40.994945 32.0868 
L 41.358192 31.63416 
L 41.721439 30.6354 
L 42.084685 30.37464 
L 42.447932 30.86172 
L 42.811179 30.89616 
L 43.174426 31.11756 
L 43.90092 30.22212 
L 44.264167 30.45828 
L 44.627413 29.2578 
L 44.99066 28.50504 
L 45.353907 28.18032 
L 45.717154 28.2738 
L 46.080401 28.569 
L 46.443648 28.55424 
L 46.806895 27.8802 
L 47.170141 28.03272 
L 47.533388 27.69324 
L 47.896635 28.42632 
L 48.259882 28.3968 
L 48.623129 28.60344 
L 48.986376 29.88756 
L 49.349623 30.22212 
L 49.712869 29.58252 
L 50.076116 31.73256 
L 50.439363 31.36356 
L 50.80261 31.39308 
L 51.529104 29.09544 
L 51.892351 29.2332 
L 52.255597 27.02412 
L 52.982091 25.16928 
L 53.345338 25.10532 
L 54.071832 23.92452 
L 54.435079 25.53336 
L 54.798325 24.62808 
L 55.161572 25.4448 
L 55.524819 29.64156 
L 55.888066 30.80268 
L 56.251313 28.65756 
L 56.61456 28.6428 
L 57.341053 30.87156 
L 57.7043 32.17044 
L 58.067547 32.97732 
L 58.430794 32.628 
L 58.794041 31.90476 
L 59.157288 30.92076 
L 59.520534 31.96872 
L 59.883781 32.39676 
L 60.247028 31.19628 
L 60.973522 30.42384 
L 61.336769 29.0118 
L 61.700016 29.15448 
L 62.063262 29.76456 
L 62.426509 31.2012 
L 62.789756 32.09172 
L 63.153003 31.43244 
L 63.879497 30.90108 
L 64.60599 35.35368 
L 64.969237 34.24668 
L 65.332484 35.5062 
L 65.695731 34.48284 
L 66.058978 35.02896 
L 66.422225 33.8334 
L 66.785472 33.243 
L 67.148718 34.69932 
L 67.875212 36.2934 
L 68.238459 38.901 
L 68.601706 38.37948 
L 68.964953 38.92068 
L 69.3282 40.09164 
L 69.691446 39.70788 
L 70.054693 40.4262 
L 70.41794 42.75336 
L 70.781187 43.54548 
L 71.144434 43.72752 
L 71.870928 41.976 
L 72.234174 42.42864 
L 72.597421 40.86408 
L 72.960668 40.47048 
L 74.050409 40.89852 
L 74.413656 42.9354 
L 74.776902 40.43604 
L 75.140149 39.31428 
L 75.503396 40.04244 
L 75.866643 41.43972 
L 76.22989 41.47416 
L 76.593137 41.02152 
L 76.956384 40.7952 
L 77.31963 39.75708 
L 77.682877 40.11132 
L 78.046124 39.87024 
L 78.409371 40.94772 
L 78.772618 40.97232 
L 79.499111 42.87144 
L 79.862358 42.17772 
L 80.225605 43.04364 
L 80.588852 43.34868 
L 80.952099 42.03504 
L 81.678593 41.8038 
L 82.041839 41.84316 
L 82.405086 42.37944 
L 82.768333 42.26628 
L 83.13158 42.468 
L 83.494827 42.42864 
L 83.858074 42.18264 
L 84.221321 42.1728 
L 84.584567 42.50244 
L 84.947814 41.88252 
L 85.311061 42.32532 
L 86.037555 41.13468 
L 86.764049 40.42128 
L 87.127295 39.16176 
L 87.490542 39.28968 
L 87.853789 40.48032 
L 88.94353 40.88376 
L 89.670023 40.53936 
L 90.03327 38.50248 
L 90.396517 37.63656 
L 90.759764 38.34012 
L 91.123011 38.37456 
L 91.486258 38.5812 
L 92.212751 39.8358 
L 92.575998 41.93172 
L 92.939245 41.42004 
L 93.665739 41.39052 
L 94.028986 41.5086 
L 94.392233 42.80256 
L 94.755479 41.93664 
L 95.118726 41.49384 
L 95.481973 41.51352 
L 95.84522 43.78164 
L 96.208467 43.9932 
L 96.571714 46.66968 
L 96.934961 47.55036 
L 97.298207 46.64508 
L 97.893537 48.89352 
L 98.256599 49.84308 
L 98.61829 49.00176 
L 98.98984 49.233 
L 99.35009 48.97716 
L 100.077903 49.36092 
L 100.80298 49.58724 
L 101.161859 49.28712 
L 101.505939 49.16904 
L 101.892485 49.39044 
L 102.210104 49.29696 
L 102.981209 49.55772 
L 104.070756 49.41996 
L 104.435096 49.8234 
L 104.767656 49.86768 
L 105.160282 49.72992 
L 105.52191 49.39536 
L 106.243434 49.6758 
L 106.614934 49.47408 
L 106.974431 49.60692 
L 107.338523 49.37568 
L 107.699735 49.36584 
L 108.063764 48.6672 
L 109.154072 49.54788 
L 109.518408 49.5282 
L 109.879321 49.09032 
L 110.607101 49.2084 
L 110.969646 48.93288 
L 111.702606 48.89844 
L 112.423769 48.1998 
L 112.789786 48.28344 
L 113.153134 48.88368 
L 113.512845 49.04604 
L 113.873964 49.00176 
L 114.606743 49.38552 
L 114.966627 49.04112 
L 115.356928 48.92796 
L 115.697539 48.987 
L 116.421019 49.66104 
L 117.880817 49.40028 
L 118.239279 49.56756 
L 118.963078 49.56264 
L 119.331795 49.53312 
L 119.695979 49.25268 
L 120.056867 49.29696 
L 120.420703 48.89352 
L 120.782684 48.96732 
L 121.506966 48.5934 
L 121.87673 48.84432 
L 122.241839 48.95748 
L 122.602774 48.30804 
L 122.965743 48.34248 
L 123.330562 48.21456 
L 123.693069 48.26376 
L 124.052309 47.41752 
L 124.420353 48.05712 
L 124.7845 48.26376 
L 125.146153 48.01776 
L 125.508273 47.23548 
L 126.596114 47.1666 
L 126.965011 47.31912 
L 127.332172 46.49256 
L 127.69618 47.64876 
L 128.058435 47.5356 
L 128.422291 48.0276 
L 129.143483 46.81728 
L 129.514104 46.92552 
L 129.877225 45.85788 
L 130.602117 45.29208 
L 130.96546 45.58728 
L 131.322662 46.2564 
L 131.687237 45.7152 
L 133.147094 45.42492 
L 133.509937 46.38432 
L 133.874975 45.57744 
L 134.233585 46.51716 
L 134.969029 47.54544 
L 135.69422 47.66844 
L 136.059535 47.05344 
L 136.419999 47.22564 
L 136.778255 48.07188 
L 137.51528 47.37324 
L 138.24 48.07188 
L 138.24 48.07188 
" clip-path="url(#pffe1992886)" style="fill: none; stroke: #f5841e; stroke-width: 0.7; stroke-linecap: round"/>
   </g>
  </g>
 </g>
 <defs>
  <clipPath id="pffe1992886">
   <rect x="5.76" y="3.6" width="132.48" height="49.2"/>
  </clipPath>
 </defs>
</svg>
