<?xml version="1.0" encoding="utf-8" standalone="no"?>
<!DOCTYPE svg PUBLIC "-//W3C//DTD SVG 1.1//EN"
  "http://www.w3.org/Graphics/SVG/1.1/DTD/svg11.dtd">
<svg xmlns:xlink="http://www.w3.org/1999/xlink" width="144pt" height="60pt" viewBox="0 0 144 60" xmlns="http://www.w3.org/2000/svg" version="1.1">
  <desc id="nav-meta">{"window":"1m","count":4,"labels":["05.06","15.06","24.06","04.07"],"tick_utc":["2026-06-05T05:03:08Z","2026-06-15T06:07:39Z","2026-06-24T04:50:37Z","2026-07-04T04:23:54Z"]}</desc>

 <metadata>
  <rdf:RDF xmlns:dc="http://purl.org/dc/elements/1.1/" xmlns:cc="http://creativecommons.org/ns#" xmlns:rdf="http://www.w3.org/1999/02/22-rdf-syntax-ns#">
   <cc:Work>
    <dc:type rdf:resource="http://purl.org/dc/dcmitype/StillImage"/>
    <dc:date>2026-07-04T09:08:05.171186</dc:date>
    <dc:format>image/svg+xml</dc:format>
    <dc:creator>
     <cc:Agent>
      <dc:title>Matplotlib v3.11.0, https://matplotlib.org/</dc:title>
     </cc:Agent>
    </dc:creator>
   </cc:Work>
  </rdf:RDF>
 </metadata>
 <defs>
  <style type="text/css">*{stroke-linejoin: round; stroke-linecap: butt}</style>
 </defs>
 <g id="figure_1">
  <g id="patch_1">
   <path d="M 0 60 
L 144 60 
L 144 0 
L 0 0 
L 0 60 
z
" style="fill: none; opacity: 0"/>
  </g>
  <g id="axes_1">
   <g id="patch_2">
    <path d="M 5.76 52.8 
L 138.24 52.8 
L 138.24 3.6 
L 5.76 3.6 
L 5.76 52.8 
z
" style="fill: none"/>
   </g>
   <g id="matplotlib.axis_1"/>
   <g id="matplotlib.axis_2"/>
   <g id="line2d_1">
    <path d="M 5.76 42.96 
L 138.24 42.96 
" clip-path="url(#p4d53255c7a)" style="fill: none; stroke: #b2b2b2; stroke-opacity: 0.35; stroke-width: 0.5; stroke-linecap: square"/>
   </g>
   <g id="line2d_2">
    <path d="M 5.76 33.12 
L 138.24 33.12 
" clip-path="url(#p4d53255c7a)" style="fill: none; stroke: #b2b2b2; stroke-opacity: 0.35; stroke-width: 0.5; stroke-linecap: square"/>
   </g>
   <g id="line2d_3">
    <path d="M 5.76 23.28 
L 138.24 23.28 
" clip-path="url(#p4d53255c7a)" style="fill: none; stroke: #b2b2b2; stroke-opacity: 0.35; stroke-width: 0.5; stroke-linecap: square"/>
   </g>
   <g id="line2d_4">
    <path d="M 5.76 13.44 
L 138.24 13.44 
" clip-path="url(#p4d53255c7a)" style="fill: none; stroke: #b2b2b2; stroke-opacity: 0.35; stroke-width: 0.5; stroke-linecap: square"/>
   </g>
   <g id="line2d_5">
    <path d="M 5.76 50.59092 
L 10.26229 50.99928 
L 14.93314 50.82216 
L 19.525928 50.74344 
L 24.01123 50.62536 
L 28.631221 50.80248 
L 33.230625 50.76312 
L 37.821137 50.65488 
L 42.360262 50.6598 
L 46.966016 50.56632 
L 51.690584 50.39412 
L 56.289247 50.23176 
L 60.716174 50.2416 
L 65.266835 50.4138 
L 69.947106 50.55156 
L 74.336828 50.42364 
L 79.004555 50.27112 
L 83.71097 50.217 
L 88.010193 50.35968 
L 92.599118 50.49252 
L 97.170473 50.59092 
L 101.76649 50.59092 
L 106.283016 50.33016 
L 110.942752 50.4384 
L 115.548401 50.3892 
L 120.032326 50.22192 
L 124.671793 50.13336 
L 129.164292 49.95132 
L 133.687116 49.78896 
L 138.24 49.6266 
" clip-path="url(#p4d53255c7a)" style="fill: none; stroke: #bebebe; stroke-width: 0.6; stroke-linecap: round"/>
   </g>
   <g id="line2d_6">
    <path d="M 5.76 46.00548 
L 10.26229 47.57004 
L 14.93314 47.04852 
L 19.525928 46.64016 
L 24.01123 46.34496 
L 28.631221 46.82712 
L 33.230625 46.65492 
L 37.821137 46.51716 
L 42.360262 46.5516 
L 46.966016 46.46304 
L 51.690584 46.14816 
L 56.289247 45.84312 
L 60.716174 45.6414 
L 65.266835 46.09404 
L 69.947106 46.3302 
L 74.336828 46.21704 
L 79.004555 46.06452 
L 83.71097 46.035 
L 88.010193 46.14324 
L 92.599118 46.52208 
L 97.170473 46.83204 
L 101.76649 47.38308 
L 106.283016 47.14692 
L 110.942752 47.22564 
L 115.548401 47.22072 
L 120.032326 47.10264 
L 124.671793 47.0436 
L 129.164292 46.79268 
L 133.687116 46.27608 
L 138.24 45.92184 
" clip-path="url(#p4d53255c7a)" style="fill: none; stroke: #4a8dff; stroke-width: 0.6; stroke-linecap: round"/>
   </g>
   <g id="line2d_7">
    <path d="M 5.76 49.98084 
L 10.26229 50.3646 
L 14.93314 50.15796 
L 19.525928 50.07432 
L 24.01123 49.99068 
L 28.631221 50.217 
L 33.230625 50.07924 
L 37.821137 49.98084 
L 42.360262 49.971 
L 46.966016 49.87752 
L 51.690584 49.69548 
L 56.289247 49.65612 
L 60.716174 49.7004 
L 65.266835 49.92672 
L 69.947106 50.06448 
L 74.336828 49.971 
L 79.004555 49.89228 
L 83.71097 49.89228 
L 88.010193 49.9464 
L 92.599118 50.05956 
L 97.170473 50.2416 
L 101.76649 50.35968 
L 106.283016 50.31048 
L 110.942752 50.34492 
L 115.548401 50.38428 
L 120.032326 50.39412 
L 124.671793 50.41872 
L 129.164292 50.27112 
L 133.687116 50.20224 
L 138.24 50.0694 
" clip-path="url(#p4d53255c7a)" style="fill: none; stroke: #f5841e; stroke-width: 0.7; stroke-linecap: round"/>
   </g>
  </g>
 </g>
 <defs>
  <clipPath id="p4d53255c7a">
   <rect x="5.76" y="3.6" width="132.48" height="49.2"/>
  </clipPath>
 </defs>
</svg>
