<?xml version="1.0" encoding="utf-8" standalone="no"?>
<!DOCTYPE svg PUBLIC "-//W3C//DTD SVG 1.1//EN"
  "http://www.w3.org/Graphics/SVG/1.1/DTD/svg11.dtd">
<svg xmlns:xlink="http://www.w3.org/1999/xlink" width="144pt" height="60pt" viewBox="0 0 144 60" xmlns="http://www.w3.org/2000/svg" version="1.1">
  <desc id="nav-meta">{"window":"2w","count":4,"labels":["15 Jan","21 Jan","23 Jan","28 Jan"],"idxs":[0,48,97,145]}</desc>

 <metadata>
  <rdf:RDF xmlns:dc="http://purl.org/dc/elements/1.1/" xmlns:cc="http://creativecommons.org/ns#" xmlns:rdf="http://www.w3.org/1999/02/22-rdf-syntax-ns#">
   <cc:Work>
    <dc:type rdf:resource="http://purl.org/dc/dcmitype/StillImage"/>
    <dc:date>2026-01-28T21:00:15.374178</dc:date>
    <dc:format>image/svg+xml</dc:format>
    <dc:creator>
     <cc:Agent>
      <dc:title>Matplotlib v3.10.8, https://matplotlib.org/</dc:title>
     </cc:Agent>
    </dc:creator>
   </cc:Work>
  </rdf:RDF>
 </metadata>
 <defs>
  <style type="text/css">*{stroke-linejoin: round; stroke-linecap: butt}</style>
 </defs>
 <g id="figure_1">
  <g id="patch_1">
   <path d="M 0 60 
L 144 60 
L 144 0 
L 0 0 
L 0 60 
z
" style="fill: none; opacity: 0"/>
  </g>
  <g id="axes_1">
   <g id="patch_2">
    <path d="M 5.76 52.8 
L 138.24 52.8 
L 138.24 3.6 
L 5.76 3.6 
L 5.76 52.8 
z
" style="fill: none"/>
   </g>
   <g id="matplotlib.axis_1"/>
   <g id="matplotlib.axis_2"/>
   <g id="line2d_1">
    <path d="M 5.76 42.96 
L 138.24 42.96 
" clip-path="url(#p2128baddff)" style="fill: none; stroke: #b2b2b2; stroke-opacity: 0.35; stroke-width: 0.5; stroke-linecap: square"/>
   </g>
   <g id="line2d_2">
    <path d="M 5.76 33.12 
L 138.24 33.12 
" clip-path="url(#p2128baddff)" style="fill: none; stroke: #b2b2b2; stroke-opacity: 0.35; stroke-width: 0.5; stroke-linecap: square"/>
   </g>
   <g id="line2d_3">
    <path d="M 5.76 23.28 
L 138.24 23.28 
" clip-path="url(#p2128baddff)" style="fill: none; stroke: #b2b2b2; stroke-opacity: 0.35; stroke-width: 0.5; stroke-linecap: square"/>
   </g>
   <g id="line2d_4">
    <path d="M 5.76 13.44 
L 138.24 13.44 
" clip-path="url(#p2128baddff)" style="fill: none; stroke: #b2b2b2; stroke-opacity: 0.35; stroke-width: 0.5; stroke-linecap: square"/>
   </g>
   <g id="line2d_5">
    <path d="M 6.213699 37.1298 
L 7.342109 37.4988 
L 8.470519 37.424502 
L 9.598929 37.34628 
L 11.855748 37.456672 
L 12.758476 37.85304 
L 14.789614 37.770919 
L 15.692342 37.671 
L 16.59507 37.575571 
L 17.497798 37.45452 
L 25.62235 37.565587 
L 26.525078 37.68576 
L 33.295538 37.74972 
L 33.52122 37.851369 
L 34.423948 38.8272 
L 37.809178 38.733931 
L 38.937588 38.719112 
L 40.29168 38.86656 
L 40.743044 38.895599 
L 41.645772 39.41268 
L 42.999864 39.503063 
L 43.902592 39.57996 
L 50.221688 39.486725 
L 50.898734 39.3438 
L 52.027143 39.26443 
L 52.929871 39.18144 
L 54.058281 39.274473 
L 54.961009 39.30936 
L 59.248967 39.387768 
L 60.151695 39.52092 
L 88.587627 39.599632 
L 89.264673 39.64392 
L 91.295811 39.738016 
L 92.198538 39.76692 
L 94.003994 39.678411 
L 94.906722 39.64884 
L 107.996278 39.753924 
L 109.801734 39.941213 
L 110.704462 40.75584 
L 111.60719 40.683888 
L 112.509918 40.27368 
L 115.218102 40.195019 
L 116.572194 40.06212 
L 124.245382 40.01092 
L 125.14811 39.63408 
L 137.786301 39.65868 
L 137.786301 39.65868 
" clip-path="url(#p2128baddff)" style="fill: none; stroke: #bebebe; stroke-width: 0.6; stroke-linecap: round"/>
   </g>
   <g id="line2d_6">
    <path d="M 6.213699 31.9392 
L 7.342109 31.838538 
L 8.244837 31.52592 
L 9.598929 31.612201 
L 10.050293 31.741649 
L 10.953021 32.078623 
L 12.758476 32.059702 
L 13.661204 31.934373 
L 15.015296 32.04744 
L 21.334392 31.954213 
L 23.139848 31.885856 
L 24.719622 31.875105 
L 28.104852 31.859847 
L 31.038718 31.68336 
L 31.715764 31.777566 
L 32.618492 32.587636 
L 34.875312 32.594218 
L 37.357814 32.56896 
L 38.260542 32.659512 
L 39.16327 32.85432 
L 39.840316 32.887604 
L 40.743044 33.42504 
L 41.645772 33.448197 
L 42.5485 33.9072 
L 43.902592 33.983557 
L 45.031002 34.04988 
L 45.93373 34.156449 
L 46.836458 34.18764 
L 50.673052 34.17288 
L 51.801462 33.84816 
L 53.155553 33.934644 
L 54.058281 33.96624 
L 56.540783 34.070125 
L 57.669193 34.13352 
L 58.120557 34.198797 
L 59.023285 34.45332 
L 85.653761 34.348515 
L 87.007853 34.320345 
L 88.136263 34.55664 
L 94.455358 34.473354 
L 96.035132 34.374718 
L 98.517634 34.326244 
L 108.673324 34.5714 
L 109.124688 34.94359 
L 109.801734 35.47176 
L 110.704462 35.409479 
L 111.60719 35.06832 
L 112.509918 35.009483 
L 113.412646 34.65996 
L 118.37765 34.560033 
L 119.054696 34.46808 
L 120.183106 34.54783 
L 121.311516 34.60092 
L 123.342654 34.566379 
L 124.245382 33.9072 
L 131.692888 34.012604 
L 135.755163 34.017364 
L 136.657891 33.981 
L 137.786301 33.96624 
L 137.786301 33.96624 
" clip-path="url(#p2128baddff)" style="fill: none; stroke: #4a8dff; stroke-width: 0.7; stroke-linecap: round"/>
   </g>
   <g id="line2d_7">
    <path d="M 6.213699 36.12612 
L 7.342109 36.039839 
L 8.244837 35.77188 
L 9.147565 35.854516 
L 11.178703 36.564278 
L 12.984158 36.470545 
L 13.661204 36.416214 
L 14.789614 36.60336 
L 21.334392 36.493719 
L 22.688484 36.470208 
L 29.910308 36.608904 
L 31.490082 36.50004 
L 31.715764 36.615352 
L 32.618492 37.591352 
L 34.198266 37.49388 
L 37.583496 37.45944 
L 38.03486 37.488133 
L 38.937588 37.87764 
L 39.840316 37.906907 
L 40.743044 38.37948 
L 41.871454 38.452478 
L 42.774182 38.62548 
L 43.67691 38.708631 
L 44.579638 38.91576 
L 45.93373 39.007105 
L 47.287822 39.058693 
L 48.867596 39.125362 
L 49.996006 38.84196 
L 51.350098 38.750607 
L 52.252825 38.71896 
L 57.894875 38.78292 
L 59.248967 39.147 
L 65.793745 39.065866 
L 66.696473 39.01908 
L 67.599201 38.910334 
L 68.501929 38.8518 
L 70.081703 38.947348 
L 71.210113 39.02892 
L 85.428079 38.939634 
L 86.556489 38.82228 
L 87.233535 38.905928 
L 88.136263 39.11256 
L 90.393083 39.222783 
L 91.521493 39.241687 
L 92.649902 38.99632 
L 94.229676 39.05844 
L 97.163542 38.88132 
L 100.097408 38.986446 
L 101.677182 39.039916 
L 105.062412 39.2208 
L 106.642186 39.51108 
L 107.544914 39.418452 
L 108.447642 39.37332 
L 108.673324 39.37332 
L 109.124688 39.776017 
L 109.801734 40.34748 
L 110.704462 40.277604 
L 111.60719 39.89484 
L 112.7356 39.792415 
L 113.638328 39.63408 
L 116.572194 39.690293 
L 117.24924 39.78168 
L 117.926286 39.727653 
L 118.829014 39.30444 
L 119.957424 39.399591 
L 120.860152 39.57504 
L 121.76288 39.640536 
L 122.89129 39.76692 
L 123.342654 39.705753 
L 124.245382 39.024 
L 130.113114 39.128088 
L 131.692888 39.160359 
L 135.529481 39.086812 
L 136.206527 38.9502 
L 137.334937 39.054052 
L 137.786301 39.15684 
L 137.786301 39.15684 
" clip-path="url(#p2128baddff)" style="fill: none; stroke: #f5841e; stroke-width: 0.8; stroke-linecap: round"/>
   </g>
  </g>
 </g>
 <defs>
  <clipPath id="p2128baddff">
   <rect x="5.76" y="3.6" width="132.48" height="49.2"/>
  </clipPath>
 </defs>
</svg>
