<?xml version="1.0" encoding="utf-8" standalone="no"?>
<!DOCTYPE svg PUBLIC "-//W3C//DTD SVG 1.1//EN"
  "http://www.w3.org/Graphics/SVG/1.1/DTD/svg11.dtd">
<svg xmlns:xlink="http://www.w3.org/1999/xlink" width="144pt" height="60pt" viewBox="0 0 144 60" xmlns="http://www.w3.org/2000/svg" version="1.1">
 <metadata>
  <rdf:RDF xmlns:dc="http://purl.org/dc/elements/1.1/" xmlns:cc="http://creativecommons.org/ns#" xmlns:rdf="http://www.w3.org/1999/02/22-rdf-syntax-ns#">
   <cc:Work>
    <dc:type rdf:resource="http://purl.org/dc/dcmitype/StillImage"/>
    <dc:date>2026-01-22T21:02:01.829108</dc:date>
    <dc:format>image/svg+xml</dc:format>
    <dc:creator>
     <cc:Agent>
      <dc:title>Matplotlib v3.10.8, https://matplotlib.org/</dc:title>
     </cc:Agent>
    </dc:creator>
   </cc:Work>
  </rdf:RDF>
 </metadata>
 <defs>
  <style type="text/css">*{stroke-linejoin: round; stroke-linecap: butt}</style>
 </defs>
 <g id="figure_1">
  <g id="patch_1">
   <path d="M 0 60 
L 144 60 
L 144 0 
L 0 0 
L 0 60 
z
" style="fill: none; opacity: 0"/>
  </g>
  <g id="axes_1">
   <g id="patch_2">
    <path d="M 4.32 52.8 
L 139.68 52.8 
L 139.68 3.6 
L 4.32 3.6 
L 4.32 52.8 
z
" style="fill: none"/>
   </g>
   <g id="matplotlib.axis_1">
    <g id="xtick_1">
     <g id="line2d_1"/>
     <g id="text_1">
      <!-- 01-16 -->
      <g style="fill: #b2b2b2; opacity: 0.75" transform="translate(-0.765117 58.959453) scale(0.035 -0.035)">
       <defs>
        <path id="DejaVuSans-30" d="M 2034 4250 
Q 1547 4250 1301 3770 
Q 1056 3291 1056 2328 
Q 1056 1369 1301 889 
Q 1547 409 2034 409 
Q 2525 409 2770 889 
Q 3016 1369 3016 2328 
Q 3016 3291 2770 3770 
Q 2525 4250 2034 4250 
z
M 2034 4750 
Q 2819 4750 3233 4129 
Q 3647 3509 3647 2328 
Q 3647 1150 3233 529 
Q 2819 -91 2034 -91 
Q 1250 -91 836 529 
Q 422 1150 422 2328 
Q 422 3509 836 4129 
Q 1250 4750 2034 4750 
z
" transform="scale(0.015625)"/>
        <path id="DejaVuSans-31" d="M 794 531 
L 1825 531 
L 1825 4091 
L 703 3866 
L 703 4441 
L 1819 4666 
L 2450 4666 
L 2450 531 
L 3481 531 
L 3481 0 
L 794 0 
L 794 531 
z
" transform="scale(0.015625)"/>
        <path id="DejaVuSans-2d" d="M 313 2009 
L 1997 2009 
L 1997 1497 
L 313 1497 
L 313 2009 
z
" transform="scale(0.015625)"/>
        <path id="DejaVuSans-36" d="M 2113 2584 
Q 1688 2584 1439 2293 
Q 1191 2003 1191 1497 
Q 1191 994 1439 701 
Q 1688 409 2113 409 
Q 2538 409 2786 701 
Q 3034 994 3034 1497 
Q 3034 2003 2786 2293 
Q 2538 2584 2113 2584 
z
M 3366 4563 
L 3366 3988 
Q 3128 4100 2886 4159 
Q 2644 4219 2406 4219 
Q 1781 4219 1451 3797 
Q 1122 3375 1075 2522 
Q 1259 2794 1537 2939 
Q 1816 3084 2150 3084 
Q 2853 3084 3261 2657 
Q 3669 2231 3669 1497 
Q 3669 778 3244 343 
Q 2819 -91 2113 -91 
Q 1303 -91 875 529 
Q 447 1150 447 2328 
Q 447 3434 972 4092 
Q 1497 4750 2381 4750 
Q 2619 4750 2861 4703 
Q 3103 4656 3366 4563 
z
" transform="scale(0.015625)"/>
       </defs>
       <use xlink:href="#DejaVuSans-30"/>
       <use xlink:href="#DejaVuSans-31" transform="translate(63.623047 0)"/>
       <use xlink:href="#DejaVuSans-2d" transform="translate(127.246094 0)"/>
       <use xlink:href="#DejaVuSans-31" transform="translate(163.330078 0)"/>
       <use xlink:href="#DejaVuSans-36" transform="translate(226.953125 0)"/>
      </g>
     </g>
    </g>
    <g id="xtick_2">
     <g id="line2d_2"/>
     <g id="text_2">
      <!-- 01-18 -->
      <g style="fill: #b2b2b2; opacity: 0.75" transform="translate(43.68145 58.959453) scale(0.035 -0.035)">
       <defs>
        <path id="DejaVuSans-38" d="M 2034 2216 
Q 1584 2216 1326 1975 
Q 1069 1734 1069 1313 
Q 1069 891 1326 650 
Q 1584 409 2034 409 
Q 2484 409 2743 651 
Q 3003 894 3003 1313 
Q 3003 1734 2745 1975 
Q 2488 2216 2034 2216 
z
M 1403 2484 
Q 997 2584 770 2862 
Q 544 3141 544 3541 
Q 544 4100 942 4425 
Q 1341 4750 2034 4750 
Q 2731 4750 3128 4425 
Q 3525 4100 3525 3541 
Q 3525 3141 3298 2862 
Q 3072 2584 2669 2484 
Q 3125 2378 3379 2068 
Q 3634 1759 3634 1313 
Q 3634 634 3220 271 
Q 2806 -91 2034 -91 
Q 1263 -91 848 271 
Q 434 634 434 1313 
Q 434 1759 690 2068 
Q 947 2378 1403 2484 
z
M 1172 3481 
Q 1172 3119 1398 2916 
Q 1625 2713 2034 2713 
Q 2441 2713 2670 2916 
Q 2900 3119 2900 3481 
Q 2900 3844 2670 4047 
Q 2441 4250 2034 4250 
Q 1625 4250 1398 4047 
Q 1172 3844 1172 3481 
z
" transform="scale(0.015625)"/>
       </defs>
       <use xlink:href="#DejaVuSans-30"/>
       <use xlink:href="#DejaVuSans-31" transform="translate(63.623047 0)"/>
       <use xlink:href="#DejaVuSans-2d" transform="translate(127.246094 0)"/>
       <use xlink:href="#DejaVuSans-31" transform="translate(163.330078 0)"/>
       <use xlink:href="#DejaVuSans-38" transform="translate(226.953125 0)"/>
      </g>
     </g>
    </g>
    <g id="xtick_3">
     <g id="line2d_3"/>
     <g id="text_3">
      <!-- 01-21 -->
      <g style="fill: #b2b2b2; opacity: 0.75" transform="translate(90.148316 58.959453) scale(0.035 -0.035)">
       <defs>
        <path id="DejaVuSans-32" d="M 1228 531 
L 3431 531 
L 3431 0 
L 469 0 
L 469 531 
Q 828 903 1448 1529 
Q 2069 2156 2228 2338 
Q 2531 2678 2651 2914 
Q 2772 3150 2772 3378 
Q 2772 3750 2511 3984 
Q 2250 4219 1831 4219 
Q 1534 4219 1204 4116 
Q 875 4013 500 3803 
L 500 4441 
Q 881 4594 1212 4672 
Q 1544 4750 1819 4750 
Q 2544 4750 2975 4387 
Q 3406 4025 3406 3419 
Q 3406 3131 3298 2873 
Q 3191 2616 2906 2266 
Q 2828 2175 2409 1742 
Q 1991 1309 1228 531 
z
" transform="scale(0.015625)"/>
       </defs>
       <use xlink:href="#DejaVuSans-30"/>
       <use xlink:href="#DejaVuSans-31" transform="translate(63.623047 0)"/>
       <use xlink:href="#DejaVuSans-2d" transform="translate(127.246094 0)"/>
       <use xlink:href="#DejaVuSans-32" transform="translate(163.330078 0)"/>
       <use xlink:href="#DejaVuSans-31" transform="translate(226.953125 0)"/>
      </g>
     </g>
    </g>
    <g id="xtick_4">
     <g id="line2d_4"/>
     <g id="text_4">
      <!-- 01-22 -->
      <g style="fill: #b2b2b2; opacity: 0.75" transform="translate(134.594883 58.959453) scale(0.035 -0.035)">
       <use xlink:href="#DejaVuSans-30"/>
       <use xlink:href="#DejaVuSans-31" transform="translate(63.623047 0)"/>
       <use xlink:href="#DejaVuSans-2d" transform="translate(127.246094 0)"/>
       <use xlink:href="#DejaVuSans-32" transform="translate(163.330078 0)"/>
       <use xlink:href="#DejaVuSans-32" transform="translate(226.953125 0)"/>
      </g>
     </g>
    </g>
   </g>
   <g id="matplotlib.axis_2"/>
   <g id="line2d_5">
    <path d="M 4.32 42.96 
L 139.68 42.96 
" clip-path="url(#p7b04b042c1)" style="fill: none; stroke: #b2b2b2; stroke-opacity: 0.35; stroke-width: 0.5; stroke-linecap: square"/>
   </g>
   <g id="line2d_6">
    <path d="M 4.32 33.12 
L 139.68 33.12 
" clip-path="url(#p7b04b042c1)" style="fill: none; stroke: #b2b2b2; stroke-opacity: 0.35; stroke-width: 0.5; stroke-linecap: square"/>
   </g>
   <g id="line2d_7">
    <path d="M 4.32 23.28 
L 139.68 23.28 
" clip-path="url(#p7b04b042c1)" style="fill: none; stroke: #b2b2b2; stroke-opacity: 0.35; stroke-width: 0.5; stroke-linecap: square"/>
   </g>
   <g id="line2d_8">
    <path d="M 4.32 13.44 
L 139.68 13.44 
" clip-path="url(#p7b04b042c1)" style="fill: none; stroke: #b2b2b2; stroke-opacity: 0.35; stroke-width: 0.5; stroke-linecap: square"/>
   </g>
   <g id="line2d_9">
    <path d="M 4.32 37.34628 
L 6.317934 37.84743 
L 10.813284 37.814079 
L 13.310701 37.671 
L 15.308635 37.575941 
L 17.306568 37.45452 
L 35.28797 37.553592 
L 37.785387 37.68576 
L 52.769889 37.74972 
L 54.767823 38.795392 
L 56.765756 38.8272 
L 61.76059 38.787404 
L 64.258007 38.70912 
L 66.255941 38.812531 
L 68.253875 38.86656 
L 69.252841 38.943138 
L 71.250775 39.41268 
L 74.247675 39.515147 
L 76.245609 39.57996 
L 90.231144 39.479636 
L 91.729594 39.3438 
L 94.227011 39.26232 
L 96.224945 39.18144 
L 98.722362 39.27443 
L 100.720295 39.30936 
L 110.21048 39.379475 
L 112.208413 39.52092 
L 139.68 39.45204 
L 139.68 39.45204 
" clip-path="url(#p7b04b042c1)" style="fill: none; stroke: #bebebe; stroke-width: 0.6; stroke-linecap: round"/>
   </g>
   <g id="line2d_10">
    <path d="M 4.32 32.10156 
L 7.3169 32.006428 
L 8.815351 31.936876 
L 11.812251 32.04744 
L 25.797786 31.957119 
L 29.793653 31.888493 
L 33.78952 31.879833 
L 40.782288 31.866308 
L 47.775055 31.68336 
L 48.774022 31.686682 
L 50.771956 32.577075 
L 55.267306 32.612369 
L 61.261107 32.56896 
L 63.259041 32.61845 
L 65.256974 32.85432 
L 67.254908 32.940665 
L 69.252841 33.42504 
L 71.250775 33.487312 
L 73.248708 33.9072 
L 76.245609 33.993019 
L 78.243542 34.04988 
L 80.241476 34.129689 
L 82.23941 34.18764 
L 91.729594 34.086608 
L 93.727528 33.84816 
L 96.724428 33.935304 
L 98.722362 33.96624 
L 104.216679 34.068162 
L 112.208413 34.439468 
L 117.203247 34.461907 
L 124.695498 34.450052 
L 132.687232 34.390141 
L 137.182583 34.48284 
L 139.68 34.46316 
L 139.68 34.46316 
" clip-path="url(#p7b04b042c1)" style="fill: none; stroke: #4a8dff; stroke-width: 0.7; stroke-linecap: round"/>
   </g>
   <g id="line2d_11">
    <path d="M 4.32 36.55908 
L 7.3169 36.466326 
L 8.815351 36.420358 
L 11.312768 36.60336 
L 25.797786 36.496463 
L 28.794686 36.468977 
L 44.778155 36.619863 
L 48.274539 36.50004 
L 48.774022 36.504107 
L 50.771956 37.593987 
L 55.76679 37.519043 
L 59.263173 37.53068 
L 62.759557 37.45944 
L 66.255941 37.87764 
L 67.254908 37.953564 
L 69.252841 38.37948 
L 71.750258 38.47207 
L 73.748192 38.62548 
L 75.746125 38.72831 
L 77.744059 38.91576 
L 80.740959 39.013361 
L 85.735793 39.12732 
L 87.733727 39.045187 
L 89.731661 38.84196 
L 92.728561 38.748462 
L 94.726494 38.71896 
L 107.213579 38.78292 
L 110.709963 39.147 
L 125.194982 39.042464 
L 131.188782 38.8518 
L 134.685166 38.966176 
L 137.182583 39.02892 
L 139.68 38.9748 
L 139.68 38.9748 
" clip-path="url(#p7b04b042c1)" style="fill: none; stroke: #d8a538; stroke-width: 0.8; stroke-linecap: round"/>
   </g>
  </g>
 </g>
 <defs>
  <clipPath id="p7b04b042c1">
   <rect x="4.32" y="3.6" width="135.36" height="49.2"/>
  </clipPath>
 </defs>
</svg>
