<?xml version="1.0" encoding="utf-8" standalone="no"?>
<!DOCTYPE svg PUBLIC "-//W3C//DTD SVG 1.1//EN"
  "http://www.w3.org/Graphics/SVG/1.1/DTD/svg11.dtd">
<svg xmlns:xlink="http://www.w3.org/1999/xlink" width="144pt" height="60pt" viewBox="0 0 144 60" xmlns="http://www.w3.org/2000/svg" version="1.1">
  <desc id="nav-meta">{"window":"6m","count":4,"labels":["11.08","10.10","09.12","07.02"],"tick_utc":["2025-08-11T12:00:00Z","2025-10-10T12:00:00Z","2025-12-09T12:00:00Z","2026-02-07T03:13:08Z"]}</desc>

 <metadata>
  <rdf:RDF xmlns:dc="http://purl.org/dc/elements/1.1/" xmlns:cc="http://creativecommons.org/ns#" xmlns:rdf="http://www.w3.org/1999/02/22-rdf-syntax-ns#">
   <cc:Work>
    <dc:type rdf:resource="http://purl.org/dc/dcmitype/StillImage"/>
    <dc:date>2026-02-07T03:13:09.595686</dc:date>
    <dc:format>image/svg+xml</dc:format>
    <dc:creator>
     <cc:Agent>
      <dc:title>Matplotlib v3.10.8, https://matplotlib.org/</dc:title>
     </cc:Agent>
    </dc:creator>
   </cc:Work>
  </rdf:RDF>
 </metadata>
 <defs>
  <style type="text/css">*{stroke-linejoin: round; stroke-linecap: butt}</style>
 </defs>
 <g id="figure_1">
  <g id="patch_1">
   <path d="M 0 60 
L 144 60 
L 144 0 
L 0 0 
L 0 60 
z
" style="fill: none; opacity: 0"/>
  </g>
  <g id="axes_1">
   <g id="patch_2">
    <path d="M 5.76 52.8 
L 138.24 52.8 
L 138.24 3.6 
L 5.76 3.6 
L 5.76 52.8 
z
" style="fill: none"/>
   </g>
   <g id="matplotlib.axis_1"/>
   <g id="matplotlib.axis_2"/>
   <g id="line2d_1">
    <path d="M 5.76 42.96 
L 138.24 42.96 
" clip-path="url(#p30cf095b99)" style="fill: none; stroke: #b2b2b2; stroke-opacity: 0.35; stroke-width: 0.5; stroke-linecap: square"/>
   </g>
   <g id="line2d_2">
    <path d="M 5.76 33.12 
L 138.24 33.12 
" clip-path="url(#p30cf095b99)" style="fill: none; stroke: #b2b2b2; stroke-opacity: 0.35; stroke-width: 0.5; stroke-linecap: square"/>
   </g>
   <g id="line2d_3">
    <path d="M 5.76 23.28 
L 138.24 23.28 
" clip-path="url(#p30cf095b99)" style="fill: none; stroke: #b2b2b2; stroke-opacity: 0.35; stroke-width: 0.5; stroke-linecap: square"/>
   </g>
   <g id="line2d_4">
    <path d="M 5.76 13.44 
L 138.24 13.44 
" clip-path="url(#p30cf095b99)" style="fill: none; stroke: #b2b2b2; stroke-opacity: 0.35; stroke-width: 0.5; stroke-linecap: square"/>
   </g>
   <g id="line2d_5">
    <path d="M 5.76 37.794 
L 6.497499 38.82228 
L 7.234998 36.53448 
L 7.972497 35.334 
L 8.709996 36.5148 
L 9.447495 37.44468 
L 10.184995 36.90348 
L 10.922494 36.65748 
L 11.659993 37.78416 
L 12.397492 38.64516 
L 13.134991 37.2282 
L 13.87249 38.14332 
L 14.609989 35.53572 
L 15.347488 35.04372 
L 16.084987 34.80264 
L 16.822486 37.23804 
L 19.034984 33.67104 
L 19.772483 34.90596 
L 21.247481 35.45208 
L 21.98498 35.9736 
L 22.722479 34.36476 
L 23.459978 34.1778 
L 24.197477 35.22084 
L 24.934976 35.11752 
L 25.672475 35.54556 
L 27.147474 33.735 
L 27.884973 33.30204 
L 28.622472 32.44104 
L 29.359971 31.83096 
L 30.09747 30.06468 
L 30.834969 30.01056 
L 31.572468 30.291 
L 32.309967 31.16184 
L 33.047466 30.74856 
L 33.784965 29.71536 
L 34.522464 29.37588 
L 35.259964 30.57636 
L 35.997463 30.42876 
L 36.734962 30.79284 
L 37.472461 32.91828 
L 38.20996 33.72024 
L 38.947459 34.05972 
L 39.684958 36.5886 
L 40.422457 34.90104 
L 41.159956 35.10276 
L 41.897455 34.16796 
L 42.634954 33.8826 
L 43.372454 34.43364 
L 44.847452 31.05852 
L 45.584951 31.26024 
L 46.32245 31.92936 
L 47.059949 31.85064 
L 47.797448 31.3242 
L 48.534947 32.84448 
L 49.272446 31.78176 
L 50.009945 32.85924 
L 50.747444 36.8838 
L 51.484943 38.39424 
L 52.222443 35.95392 
L 52.959942 34.53696 
L 53.697441 35.20608 
L 55.172439 37.57752 
L 55.909938 37.90716 
L 56.647437 37.18884 
L 57.384936 37.18392 
L 58.122435 36.89364 
L 58.859934 37.42008 
L 59.597433 38.17284 
L 60.334933 36.687 
L 61.072432 36.42132 
L 61.809931 36.34752 
L 62.54743 35.56032 
L 63.284929 35.72268 
L 64.022428 36.29832 
L 64.759927 36.32292 
L 65.497426 37.61688 
L 66.234925 37.2282 
L 66.972424 37.34628 
L 67.709923 37.23804 
L 68.447423 40.008 
L 69.184922 41.36592 
L 69.922421 40.43604 
L 70.65992 41.44956 
L 71.397419 40.53444 
L 72.134918 41.02152 
L 72.872417 40.22448 
L 73.609916 39.79644 
L 74.347415 41.51844 
L 75.084914 41.66604 
L 75.822413 42.714 
L 76.559912 43.51596 
L 77.297412 43.43724 
L 78.034911 43.71276 
L 78.77241 44.59836 
L 79.509909 43.30932 
L 80.247408 43.85052 
L 80.984907 44.21952 
L 81.722406 44.88372 
L 82.459905 44.99688 
L 83.197404 44.57868 
L 83.934903 43.5996 
L 84.672402 43.51596 
L 85.409902 43.00428 
L 86.147401 43.2798 
L 86.8849 43.71768 
L 88.359898 44.0916 
L 89.097397 45.11004 
L 89.834896 43.55532 
L 90.572395 42.72876 
L 92.047393 44.27364 
L 93.522392 44.47536 
L 94.259891 44.25888 
L 94.99739 43.64388 
L 95.734889 43.84068 
L 96.472388 43.85052 
L 97.209887 44.36712 
L 97.947386 44.26872 
L 98.684885 44.74104 
L 99.422384 44.98704 
L 100.159883 44.84436 
L 100.897382 45.58728 
L 101.634881 46.0596 
L 102.372381 45.18384 
L 105.322377 45.47904 
L 106.059876 45.65616 
L 106.797375 45.98088 
L 108.272373 45.38556 
L 109.009872 45.31668 
L 109.747371 45.58728 
L 110.484871 45.35604 
L 111.22237 45.40032 
L 111.959869 45.11496 
L 112.697368 44.42124 
L 114.172366 44.18508 
L 114.909865 43.62912 
L 115.647364 43.24044 
L 116.384863 43.8702 
L 117.122362 43.60944 
L 117.859861 43.92924 
L 118.597361 43.93416 
L 119.33486 43.46184 
L 120.072359 43.5012 
L 120.809858 42.72384 
L 121.547357 42.51228 
L 122.284856 43.08792 
L 123.022355 42.75828 
L 123.759854 42.90096 
L 125.234852 44.2392 
L 125.972351 45.23304 
L 126.70985 44.77548 
L 128.184849 45.04608 
L 128.922348 45.07068 
L 129.659847 46.1334 
L 130.397346 45.4446 
L 131.134845 45.06084 
L 131.872344 45.33144 
L 132.609843 46.30068 
L 133.347342 46.34496 
L 134.084841 47.89476 
L 134.82234 48.26376 
L 135.55984 47.96364 
L 136.768536 49.06572 
L 137.505659 50.04972 
L 138.24 49.24776 
L 138.24 49.24776 
" clip-path="url(#p30cf095b99)" style="fill: none; stroke: #bebebe; stroke-width: 0.6; stroke-linecap: round"/>
   </g>
   <g id="line2d_6">
    <path d="M 5.76 28.23444 
L 6.497499 28.40664 
L 7.234998 25.73508 
L 7.972497 24.62316 
L 8.709996 26.10408 
L 9.447495 26.97984 
L 10.184995 27.00936 
L 10.922494 26.58132 
L 11.659993 27.7818 
L 12.397492 29.49888 
L 13.134991 27.68832 
L 13.87249 28.44108 
L 14.609989 24.16068 
L 15.347488 24.55428 
L 16.084987 24.51984 
L 16.822486 27.32916 
L 17.559985 25.7646 
L 18.297485 26.48784 
L 19.034984 26.43372 
L 19.772483 27.44724 
L 21.247481 27.27504 
L 21.98498 27.8802 
L 22.722479 27.72276 
L 23.459978 26.84208 
L 24.197477 27.91956 
L 24.934976 27.8556 
L 25.672475 28.09668 
L 26.409974 27.87528 
L 27.884973 27.83592 
L 28.622472 27.57024 
L 29.359971 26.77812 
L 30.09747 25.01184 
L 31.572468 25.71048 
L 32.309967 26.31564 
L 33.047466 26.45832 
L 33.784965 25.8384 
L 34.522464 25.84824 
L 35.259964 26.6994 
L 35.997463 26.62068 
L 36.734962 26.8224 
L 37.472461 28.61328 
L 38.947459 28.97244 
L 39.684958 30.99456 
L 40.422457 29.76456 
L 41.159956 29.8974 
L 41.897455 29.02164 
L 42.634954 28.50012 
L 43.372454 29.00688 
L 44.109953 27.59484 
L 44.847452 26.601 
L 45.584951 26.3796 
L 46.32245 26.5764 
L 47.059949 26.3796 
L 47.797448 25.1496 
L 48.534947 26.81256 
L 49.272446 26.29596 
L 50.009945 27.41772 
L 50.747444 31.19136 
L 51.484943 31.80144 
L 52.222443 28.89864 
L 52.959942 28.28364 
L 53.697441 29.11512 
L 54.43494 30.1434 
L 55.172439 30.80268 
L 55.909938 31.22088 
L 56.647437 30.8076 
L 57.384936 30.13356 
L 58.122435 30.17784 
L 58.859934 30.89124 
L 59.597433 31.42752 
L 60.334933 31.04376 
L 61.072432 30.49764 
L 61.809931 30.3648 
L 62.54743 28.88388 
L 63.284929 29.15448 
L 64.022428 30.15324 
L 65.497426 31.4226 
L 66.234925 31.10772 
L 67.709923 30.66 
L 69.184922 34.99944 
L 69.922421 34.07448 
L 70.65992 34.9158 
L 71.397419 34.02528 
L 72.134918 34.26144 
L 72.872417 33.0216 
L 73.609916 33.10524 
L 74.347415 34.1532 
L 75.084914 34.2024 
L 75.822413 35.4324 
L 76.559912 36.34752 
L 77.297412 35.89488 
L 78.77241 36.94776 
L 79.509909 36.2688 
L 80.247408 36.97236 
L 80.984907 38.286 
L 81.722406 38.76324 
L 82.459905 38.73864 
L 83.197404 38.51724 
L 83.934903 37.42992 
L 84.672402 37.42008 
L 85.409902 36.90348 
L 86.147401 36.98712 
L 86.8849 36.86412 
L 87.622399 37.16424 
L 88.359898 37.14948 
L 89.097397 38.52216 
L 90.572395 35.71776 
L 91.309894 36.15564 
L 92.047393 36.93792 
L 93.522392 36.72636 
L 94.259891 36.21468 
L 94.99739 34.8174 
L 95.734889 34.7928 
L 96.472388 35.42748 
L 97.209887 36.49512 
L 97.947386 36.28356 
L 98.684885 36.6378 
L 99.422384 37.3512 
L 100.159883 37.3512 
L 100.897382 38.31552 
L 101.634881 38.32536 
L 102.372381 37.26264 
L 103.10988 37.26264 
L 103.847379 37.09044 
L 104.584878 37.06092 
L 105.322377 37.34628 
L 106.059876 37.48404 
L 106.797375 37.77924 
L 108.272373 37.45944 
L 109.747371 37.56276 
L 110.484871 37.31184 
L 111.22237 37.33644 
L 111.959869 37.09536 
L 112.697368 36.23928 
L 114.172366 36.11628 
L 114.909865 35.48652 
L 115.647364 35.0142 
L 116.384863 35.93424 
L 117.122362 36.36228 
L 117.859861 36.50988 
L 118.597361 36.5148 
L 119.33486 36.25404 
L 120.072359 36.46068 
L 120.809858 34.83708 
L 121.547357 34.57632 
L 123.022355 35.00436 
L 123.759854 34.93056 
L 124.497353 35.088 
L 125.234852 35.78664 
L 125.972351 37.55292 
L 126.70985 37.26756 
L 127.44735 37.46436 
L 128.922348 37.45944 
L 129.659847 38.41392 
L 131.134845 36.95268 
L 131.872344 37.05108 
L 132.609843 38.37948 
L 133.347342 39.20604 
L 134.084841 41.03136 
L 134.82234 42.26628 
L 135.55984 41.73492 
L 136.182454 42.23676 
L 137.505659 44.89356 
L 138.24 43.6242 
L 138.24 43.6242 
" clip-path="url(#p30cf095b99)" style="fill: none; stroke: #4a8dff; stroke-width: 0.7; stroke-linecap: round"/>
   </g>
   <g id="line2d_7">
    <path d="M 5.76 26.64528 
L 6.497499 26.88636 
L 7.234998 26.1828 
L 7.972497 24.52476 
L 8.709996 27.0684 
L 9.447495 27.59484 
L 10.922494 27.49644 
L 11.659993 28.13112 
L 12.397492 29.8482 
L 13.134991 29.12004 
L 13.87249 30.03024 
L 14.609989 27.84576 
L 15.347488 28.57392 
L 16.084987 29.54316 
L 16.822486 31.13232 
L 17.559985 30.31068 
L 18.297485 30.62064 
L 19.034984 29.97612 
L 19.772483 31.97364 
L 20.509982 31.82112 
L 21.247481 32.0868 
L 21.98498 31.63416 
L 22.722479 30.6354 
L 23.459978 30.37464 
L 24.197477 30.86172 
L 24.934976 30.89616 
L 25.672475 31.11756 
L 27.147474 30.22212 
L 27.884973 30.45828 
L 28.622472 29.2578 
L 29.359971 28.50504 
L 30.09747 28.18032 
L 30.834969 28.2738 
L 31.572468 28.569 
L 32.309967 28.55424 
L 33.047466 27.8802 
L 33.784965 28.03272 
L 34.522464 27.69324 
L 35.259964 28.42632 
L 35.997463 28.3968 
L 36.734962 28.60344 
L 37.472461 29.88756 
L 38.20996 30.22212 
L 38.947459 29.58252 
L 39.684958 31.73256 
L 40.422457 31.36356 
L 41.159956 31.39308 
L 42.634954 29.09544 
L 43.372454 29.2332 
L 44.109953 27.02412 
L 44.847452 25.98108 
L 45.584951 25.16928 
L 46.32245 25.10532 
L 47.797448 23.92452 
L 48.534947 25.53336 
L 49.272446 24.62808 
L 50.009945 25.4448 
L 50.747444 29.64156 
L 51.484943 30.80268 
L 52.222443 28.65756 
L 52.959942 28.6428 
L 53.697441 29.66124 
L 55.172439 32.17044 
L 55.909938 32.97732 
L 56.647437 32.628 
L 57.384936 31.90476 
L 58.122435 30.92076 
L 58.859934 31.96872 
L 59.597433 32.39676 
L 60.334933 31.19628 
L 61.072432 30.72888 
L 61.809931 30.42384 
L 62.54743 29.0118 
L 63.284929 29.15448 
L 64.022428 29.76456 
L 64.759927 31.2012 
L 65.497426 32.09172 
L 66.234925 31.43244 
L 67.709923 30.90108 
L 68.447423 32.93796 
L 69.184922 35.35368 
L 69.922421 34.24668 
L 70.65992 35.5062 
L 71.397419 34.48284 
L 72.134918 35.02896 
L 72.872417 33.8334 
L 73.609916 33.243 
L 74.347415 34.69932 
L 75.084914 35.4078 
L 75.822413 36.2934 
L 76.559912 38.901 
L 77.297412 38.37948 
L 78.034911 38.92068 
L 78.77241 40.09164 
L 79.509909 39.70788 
L 80.247408 40.4262 
L 80.984907 42.75336 
L 81.722406 43.54548 
L 82.459905 43.72752 
L 83.197404 42.6894 
L 83.934903 41.976 
L 84.672402 42.42864 
L 85.409902 40.86408 
L 86.147401 40.47048 
L 88.359898 40.89852 
L 89.097397 42.9354 
L 89.834896 40.43604 
L 90.572395 39.31428 
L 91.309894 40.04244 
L 92.047393 41.43972 
L 92.784892 41.47416 
L 93.522392 41.02152 
L 94.259891 40.7952 
L 94.99739 39.75708 
L 95.734889 40.11132 
L 96.472388 39.87024 
L 97.209887 40.94772 
L 97.947386 40.97232 
L 99.422384 42.87144 
L 100.159883 42.17772 
L 100.897382 43.04364 
L 101.634881 43.34868 
L 102.372381 42.03504 
L 103.847379 41.8038 
L 104.584878 41.84316 
L 105.322377 42.37944 
L 106.059876 42.26628 
L 106.797375 42.468 
L 107.534874 42.42864 
L 108.272373 42.18264 
L 109.009872 42.1728 
L 109.747371 42.50244 
L 110.484871 41.88252 
L 111.22237 42.32532 
L 112.697368 41.13468 
L 114.172366 40.42128 
L 114.909865 39.16176 
L 115.647364 39.28968 
L 116.384863 40.48032 
L 118.597361 40.88376 
L 120.072359 40.53936 
L 120.809858 38.50248 
L 121.547357 37.63656 
L 122.284856 38.34012 
L 123.022355 38.37456 
L 123.759854 38.5812 
L 125.234852 39.8358 
L 125.972351 41.93172 
L 126.70985 41.42004 
L 128.184849 41.39052 
L 128.922348 41.5086 
L 129.659847 42.80256 
L 130.397346 41.93664 
L 131.134845 41.49384 
L 131.872344 41.51352 
L 132.609843 43.78164 
L 133.347342 43.9932 
L 134.084841 46.66968 
L 134.82234 47.55036 
L 135.55984 46.64508 
L 136.768536 48.89352 
L 137.505659 49.84308 
L 138.24 49.00176 
L 138.24 49.00176 
" clip-path="url(#p30cf095b99)" style="fill: none; stroke: #f5841e; stroke-width: 0.8; stroke-linecap: round"/>
   </g>
  </g>
 </g>
 <defs>
  <clipPath id="p30cf095b99">
   <rect x="5.76" y="3.6" width="132.48" height="49.2"/>
  </clipPath>
 </defs>
</svg>
