<?xml version="1.0" encoding="utf-8" standalone="no"?>
<!DOCTYPE svg PUBLIC "-//W3C//DTD SVG 1.1//EN"
  "http://www.w3.org/Graphics/SVG/1.1/DTD/svg11.dtd">
<svg xmlns:xlink="http://www.w3.org/1999/xlink" width="144pt" height="60pt" viewBox="0 0 144 60" xmlns="http://www.w3.org/2000/svg" version="1.1">
  <desc id="nav-meta">{"window":"1m","count":4,"labels":["11.05","21.05","30.05","09.06"],"tick_utc":["2026-05-11T04:46:58Z","2026-05-21T04:59:27Z","2026-05-30T04:39:03Z","2026-06-09T04:50:50Z"]}</desc>

 <metadata>
  <rdf:RDF xmlns:dc="http://purl.org/dc/elements/1.1/" xmlns:cc="http://creativecommons.org/ns#" xmlns:rdf="http://www.w3.org/1999/02/22-rdf-syntax-ns#">
   <cc:Work>
    <dc:type rdf:resource="http://purl.org/dc/dcmitype/StillImage"/>
    <dc:date>2026-06-09T20:35:08.436558</dc:date>
    <dc:format>image/svg+xml</dc:format>
    <dc:creator>
     <cc:Agent>
      <dc:title>Matplotlib v3.10.9, https://matplotlib.org/</dc:title>
     </cc:Agent>
    </dc:creator>
   </cc:Work>
  </rdf:RDF>
 </metadata>
 <defs>
  <style type="text/css">*{stroke-linejoin: round; stroke-linecap: butt}</style>
 </defs>
 <g id="figure_1">
  <g id="patch_1">
   <path d="M 0 60 
L 144 60 
L 144 0 
L 0 0 
L 0 60 
z
" style="fill: none; opacity: 0"/>
  </g>
  <g id="axes_1">
   <g id="patch_2">
    <path d="M 5.76 52.8 
L 138.24 52.8 
L 138.24 3.6 
L 5.76 3.6 
L 5.76 52.8 
z
" style="fill: none"/>
   </g>
   <g id="matplotlib.axis_1"/>
   <g id="matplotlib.axis_2"/>
   <g id="line2d_1">
    <path d="M 5.76 42.96 
L 138.24 42.96 
" clip-path="url(#p9dd4eaf47d)" style="fill: none; stroke: #b2b2b2; stroke-opacity: 0.35; stroke-width: 0.5; stroke-linecap: square"/>
   </g>
   <g id="line2d_2">
    <path d="M 5.76 33.12 
L 138.24 33.12 
" clip-path="url(#p9dd4eaf47d)" style="fill: none; stroke: #b2b2b2; stroke-opacity: 0.35; stroke-width: 0.5; stroke-linecap: square"/>
   </g>
   <g id="line2d_3">
    <path d="M 5.76 23.28 
L 138.24 23.28 
" clip-path="url(#p9dd4eaf47d)" style="fill: none; stroke: #b2b2b2; stroke-opacity: 0.35; stroke-width: 0.5; stroke-linecap: square"/>
   </g>
   <g id="line2d_4">
    <path d="M 5.76 13.44 
L 138.24 13.44 
" clip-path="url(#p9dd4eaf47d)" style="fill: none; stroke: #b2b2b2; stroke-opacity: 0.35; stroke-width: 0.5; stroke-linecap: square"/>
   </g>
   <g id="line2d_5">
    <path d="M 5.76 48.72132 
L 10.264411 48.63276 
L 14.853992 48.66228 
L 19.41677 49.09524 
L 24.007145 48.99192 
L 28.516684 49.19364 
L 33.152737 49.34616 
L 37.764947 49.47408 
L 42.300074 49.47408 
L 46.884263 49.54788 
L 51.478128 49.3314 
L 56.010982 49.34616 
L 60.516079 49.51836 
L 65.156257 49.41996 
L 69.784221 49.41504 
L 74.282869 49.5282 
L 78.897617 49.5774 
L 83.450878 49.7742 
L 88.022114 49.7004 
L 92.524093 49.69548 
L 97.185206 49.61676 
L 101.820625 49.71024 
L 106.34354 49.7988 
L 110.962781 50.19732 
L 115.514985 50.45808 
L 120.007605 50.59092 
L 124.505249 50.99928 
L 129.171279 50.82216 
L 133.759328 50.74344 
L 138.24 50.62536 
" clip-path="url(#p9dd4eaf47d)" style="fill: none; stroke: #bebebe; stroke-width: 0.6; stroke-linecap: round"/>
   </g>
   <g id="line2d_6">
    <path d="M 5.76 41.8038 
L 10.264411 41.976 
L 14.853992 42.00552 
L 19.41677 42.3942 
L 24.007145 42.27612 
L 28.516684 42.57624 
L 33.152737 42.85176 
L 37.764947 43.31424 
L 42.300074 43.2306 
L 46.884263 43.39296 
L 51.478128 43.16172 
L 56.010982 43.24536 
L 60.516079 43.71768 
L 65.156257 43.33392 
L 69.784221 43.42248 
L 74.282869 43.51596 
L 78.897617 43.67832 
L 83.450878 44.32776 
L 88.022114 44.13588 
L 92.524093 44.16048 
L 97.185206 43.96368 
L 101.820625 44.2392 
L 106.34354 44.19984 
L 110.962781 45.16908 
L 115.514985 45.67584 
L 120.007605 46.00548 
L 124.505249 47.57004 
L 129.171279 47.04852 
L 133.759328 46.64016 
L 138.24 46.34496 
" clip-path="url(#p9dd4eaf47d)" style="fill: none; stroke: #4a8dff; stroke-width: 0.6; stroke-linecap: round"/>
   </g>
   <g id="line2d_7">
    <path d="M 5.76 45.6414 
L 10.264411 45.45936 
L 14.853992 45.42492 
L 19.41677 46.38432 
L 24.007145 45.57744 
L 28.516684 46.51716 
L 33.152737 46.95996 
L 37.764947 47.54544 
L 42.300074 47.59464 
L 46.884263 47.66844 
L 51.478128 47.05344 
L 56.010982 47.22564 
L 60.516079 48.07188 
L 65.156257 47.6832 
L 69.784221 47.37324 
L 74.282869 47.66844 
L 78.897617 48.07188 
L 83.450878 48.59832 
L 88.022114 48.52452 
L 92.524093 48.5688 
L 97.185206 48.38676 
L 101.820625 48.55404 
L 106.34354 49.0116 
L 110.962781 49.57248 
L 115.514985 49.93656 
L 120.007605 49.98084 
L 124.505249 50.3646 
L 129.171279 50.15796 
L 133.759328 50.07432 
L 138.24 49.99068 
" clip-path="url(#p9dd4eaf47d)" style="fill: none; stroke: #f5841e; stroke-width: 0.7; stroke-linecap: round"/>
   </g>
  </g>
 </g>
 <defs>
  <clipPath id="p9dd4eaf47d">
   <rect x="5.76" y="3.6" width="132.48" height="49.2"/>
  </clipPath>
 </defs>
</svg>
