<?xml version="1.0" encoding="utf-8" standalone="no"?>
<!DOCTYPE svg PUBLIC "-//W3C//DTD SVG 1.1//EN"
  "http://www.w3.org/Graphics/SVG/1.1/DTD/svg11.dtd">
<svg xmlns:xlink="http://www.w3.org/1999/xlink" width="144pt" height="60pt" viewBox="0 0 144 60" xmlns="http://www.w3.org/2000/svg" version="1.1">
  <desc id="nav-meta">{"window":"1y","count":4,"labels":["13.04","13.08","12.12","13.04"],"tick_utc":["2025-04-13T12:00:00Z","2025-08-13T12:00:00Z","2025-12-12T12:00:00Z","2026-04-13T04:02:42Z"]}</desc>

 <metadata>
  <rdf:RDF xmlns:dc="http://purl.org/dc/elements/1.1/" xmlns:cc="http://creativecommons.org/ns#" xmlns:rdf="http://www.w3.org/1999/02/22-rdf-syntax-ns#">
   <cc:Work>
    <dc:type rdf:resource="http://purl.org/dc/dcmitype/StillImage"/>
    <dc:date>2026-04-13T08:34:36.341753</dc:date>
    <dc:format>image/svg+xml</dc:format>
    <dc:creator>
     <cc:Agent>
      <dc:title>Matplotlib v3.10.8, https://matplotlib.org/</dc:title>
     </cc:Agent>
    </dc:creator>
   </cc:Work>
  </rdf:RDF>
 </metadata>
 <defs>
  <style type="text/css">*{stroke-linejoin: round; stroke-linecap: butt}</style>
 </defs>
 <g id="figure_1">
  <g id="patch_1">
   <path d="M 0 60 
L 144 60 
L 144 0 
L 0 0 
L 0 60 
z
" style="fill: none; opacity: 0"/>
  </g>
  <g id="axes_1">
   <g id="patch_2">
    <path d="M 5.76 52.8 
L 138.24 52.8 
L 138.24 3.6 
L 5.76 3.6 
L 5.76 52.8 
z
" style="fill: none"/>
   </g>
   <g id="matplotlib.axis_1"/>
   <g id="matplotlib.axis_2"/>
   <g id="line2d_1">
    <path d="M 5.76 42.96 
L 138.24 42.96 
" clip-path="url(#p5c4d5c7eb2)" style="fill: none; stroke: #b2b2b2; stroke-opacity: 0.35; stroke-width: 0.5; stroke-linecap: square"/>
   </g>
   <g id="line2d_2">
    <path d="M 5.76 33.12 
L 138.24 33.12 
" clip-path="url(#p5c4d5c7eb2)" style="fill: none; stroke: #b2b2b2; stroke-opacity: 0.35; stroke-width: 0.5; stroke-linecap: square"/>
   </g>
   <g id="line2d_3">
    <path d="M 5.76 23.28 
L 138.24 23.28 
" clip-path="url(#p5c4d5c7eb2)" style="fill: none; stroke: #b2b2b2; stroke-opacity: 0.35; stroke-width: 0.5; stroke-linecap: square"/>
   </g>
   <g id="line2d_4">
    <path d="M 5.76 13.44 
L 138.24 13.44 
" clip-path="url(#p5c4d5c7eb2)" style="fill: none; stroke: #b2b2b2; stroke-opacity: 0.35; stroke-width: 0.5; stroke-linecap: square"/>
   </g>
   <g id="line2d_5">
    <path d="M 5.76 44.40648 
L 6.123289 44.91816 
L 6.486578 44.76564 
L 6.849866 45.16908 
L 7.213155 44.49504 
L 7.576444 44.08668 
L 7.939733 44.17032 
L 8.303022 43.43232 
L 9.029599 43.86528 
L 9.392888 42.23676 
L 10.119466 41.7792 
L 11.209332 42.31056 
L 11.572621 42.345 
L 11.93591 42.5418 
L 12.299199 42.37944 
L 12.662487 41.98584 
L 13.025776 42.345 
L 13.389065 42.49752 
L 13.752354 42.86652 
L 14.115643 42.49752 
L 14.84222 42.44832 
L 15.205509 40.33272 
L 15.568798 39.12732 
L 15.932087 38.52216 
L 16.295375 39.10272 
L 16.658664 38.901 
L 17.021953 37.6464 
L 17.748531 39.639 
L 18.475108 40.008 
L 18.838397 39.27492 
L 19.201686 39.90468 
L 19.564975 39.6882 
L 20.291552 38.22696 
L 20.654841 38.901 
L 21.01813 38.69436 
L 21.744708 38.86164 
L 22.107996 38.62056 
L 22.834574 39.88992 
L 23.197863 41.23308 
L 24.287729 41.17404 
L 25.014307 41.62176 
L 25.377596 42.79272 
L 25.740884 42.30564 
L 26.467462 41.7546 
L 26.830751 40.62792 
L 27.19404 40.131 
L 27.557329 40.6476 
L 27.920617 41.73492 
L 28.647195 42.76812 
L 29.010484 41.73492 
L 29.373773 41.89728 
L 29.737061 42.345 
L 30.10035 42.5664 
L 30.463639 42.46308 
L 31.190217 44.20476 
L 31.553505 44.45076 
L 31.916794 42.7632 
L 32.280083 42.63036 
L 32.643372 42.94524 
L 33.006661 43.52088 
L 33.369949 43.1076 
L 33.733238 41.98092 
L 34.459816 41.43972 
L 34.823105 42.4926 
L 35.186393 41.79888 
L 35.549682 41.78412 
L 35.912971 42.37452 
L 36.27626 42.3942 
L 36.639549 41.83332 
L 37.002838 42.24168 
L 37.366126 41.84316 
L 38.092704 40.2786 
L 38.455993 40.42128 
L 38.819282 40.71648 
L 39.545859 40.48032 
L 39.909148 40.26384 
L 40.272437 38.97972 
L 40.999014 38.51724 
L 41.362303 38.57628 
L 41.725592 38.04492 
L 42.088881 36.03264 
L 42.45217 34.88136 
L 42.815458 36.92316 
L 43.178747 37.8432 
L 43.542036 37.37088 
L 43.905325 37.53324 
L 44.268614 37.056 
L 44.631903 37.77924 
L 44.995191 38.02032 
L 45.35848 38.45328 
L 45.721769 39.1962 
L 46.085058 40.41636 
L 46.448347 40.97232 
L 46.811635 40.53444 
L 47.174924 39.55536 
L 47.538213 40.24908 
L 47.901502 39.7128 
L 48.264791 38.778 
L 48.628079 38.59104 
L 49.354657 37.794 
L 49.717946 38.82228 
L 50.081235 36.53448 
L 50.444523 35.334 
L 51.171101 37.44468 
L 51.53439 36.90348 
L 51.897679 36.65748 
L 52.624256 38.64516 
L 52.987545 37.2282 
L 53.350834 38.14332 
L 53.714123 35.53572 
L 54.077412 35.04372 
L 54.4407 34.80264 
L 54.803989 37.23804 
L 55.893856 33.67104 
L 56.257144 34.90596 
L 57.347011 35.9736 
L 57.7103 34.36476 
L 58.073588 34.1778 
L 58.436877 35.22084 
L 58.800166 35.11752 
L 59.163455 35.54556 
L 60.61661 32.44104 
L 60.979899 31.83096 
L 61.343188 30.06468 
L 61.706477 30.01056 
L 62.069765 30.291 
L 62.433054 31.16184 
L 62.796343 30.74856 
L 63.159632 29.71536 
L 63.522921 29.37588 
L 63.886209 30.57636 
L 64.249498 30.42876 
L 64.612787 30.79284 
L 64.976076 32.91828 
L 65.339365 33.72024 
L 65.702653 34.05972 
L 66.065942 36.5886 
L 66.429231 34.90104 
L 66.79252 35.10276 
L 67.155809 34.16796 
L 67.519097 33.8826 
L 67.882386 34.43364 
L 68.608964 31.05852 
L 68.972253 31.26024 
L 69.335541 31.92936 
L 69.69883 31.85064 
L 70.062119 31.3242 
L 70.425408 32.84448 
L 70.788697 31.78176 
L 71.151986 32.85924 
L 71.515274 36.8838 
L 71.878563 38.39424 
L 72.241852 35.95392 
L 72.605141 34.53696 
L 72.96843 35.20608 
L 73.695007 37.57752 
L 74.058296 37.90716 
L 74.421585 37.18884 
L 74.784874 37.18392 
L 75.148162 36.89364 
L 75.511451 37.42008 
L 75.87474 38.17284 
L 76.238029 36.687 
L 76.601318 36.42132 
L 76.964606 36.34752 
L 77.327895 35.56032 
L 77.691184 35.72268 
L 78.054473 36.29832 
L 78.417762 36.32292 
L 78.781051 37.61688 
L 79.144339 37.2282 
L 79.507628 37.34628 
L 79.870917 37.23804 
L 80.234206 40.008 
L 80.597495 41.36592 
L 80.960783 40.43604 
L 81.324072 41.44956 
L 81.687361 40.53444 
L 82.05065 41.02152 
L 82.413939 40.22448 
L 82.777227 39.79644 
L 83.140516 41.51844 
L 83.503805 41.66604 
L 84.230383 43.51596 
L 84.593671 43.43724 
L 84.95696 43.71276 
L 85.320249 44.59836 
L 85.683538 43.30932 
L 86.773404 44.88372 
L 87.136693 44.99688 
L 87.499982 44.57868 
L 87.863271 43.5996 
L 88.22656 43.51596 
L 88.589848 43.00428 
L 88.953137 43.2798 
L 89.316426 43.71768 
L 90.043004 44.0916 
L 90.406292 45.11004 
L 90.769581 43.55532 
L 91.13287 42.72876 
L 91.859448 44.27364 
L 92.586025 44.47536 
L 92.949314 44.25888 
L 93.312603 43.64388 
L 93.675892 43.84068 
L 94.03918 43.85052 
L 94.402469 44.36712 
L 94.765758 44.26872 
L 95.129047 44.74104 
L 95.492336 44.98704 
L 95.855625 44.84436 
L 96.218913 45.58728 
L 96.582202 46.0596 
L 96.945491 45.18384 
L 98.398646 45.47904 
L 98.761935 45.65616 
L 99.125224 45.98088 
L 99.851801 45.38556 
L 100.21509 45.31668 
L 100.578379 45.58728 
L 100.941668 45.35604 
L 101.304957 45.40032 
L 101.668245 45.11496 
L 102.031534 44.42124 
L 102.758112 44.18508 
L 103.484689 43.24044 
L 103.847978 43.8702 
L 104.211267 43.60944 
L 104.574556 43.92924 
L 104.937845 43.93416 
L 105.301134 43.46184 
L 105.664422 43.5012 
L 106.027711 42.72384 
L 106.391 42.51228 
L 106.754289 43.08792 
L 107.117578 42.75828 
L 107.480866 42.90096 
L 108.207444 44.2392 
L 108.570733 45.23304 
L 108.934022 44.77548 
L 109.660599 45.04608 
L 110.023888 45.07068 
L 110.387177 46.1334 
L 110.750466 45.4446 
L 111.113754 45.06084 
L 111.477043 45.33144 
L 111.840332 46.30068 
L 112.203621 46.34496 
L 112.56691 47.89476 
L 112.930199 48.26376 
L 113.293487 47.96364 
L 114.25199 50.04972 
L 114.613723 49.24776 
L 116.073504 49.59708 
L 116.435486 49.80372 
L 116.798665 49.86768 
L 117.501705 49.24776 
L 117.888296 49.48392 
L 118.205951 49.37568 
L 118.614298 49.479 
L 118.977145 49.7004 
L 120.066818 49.49376 
L 120.4312 49.98576 
L 120.763798 49.96608 
L 121.15647 49.7004 
L 121.51814 49.27236 
L 121.880739 49.37076 
L 122.239748 49.68072 
L 122.61129 49.25268 
L 122.970828 49.51344 
L 124.060287 49.09032 
L 125.515099 49.58724 
L 125.876054 49.36092 
L 126.603918 49.45932 
L 126.966505 49.16904 
L 127.699549 49.27236 
L 128.063864 48.87384 
L 128.786855 48.70164 
L 129.150245 49.03128 
L 129.509998 49.1592 
L 129.871159 49.08048 
L 130.604022 49.36584 
L 131.354294 48.90828 
L 131.694944 49.05096 
L 132.418507 49.64628 
L 133.878474 49.59708 
L 134.236978 49.8726 
L 134.96086 49.80864 
L 136.054776 49.83816 
L 136.418653 49.50852 
L 136.780676 49.68564 
L 137.505042 49.48884 
L 138.24 49.69056 
L 138.24 49.69056 
" clip-path="url(#p5c4d5c7eb2)" style="fill: none; stroke: #bebebe; stroke-width: 0.6; stroke-linecap: round"/>
   </g>
   <g id="line2d_6">
    <path d="M 5.76 46.67952 
L 6.123289 47.03376 
L 6.486578 46.85172 
L 6.849866 47.08788 
L 7.213155 47.16168 
L 7.939733 47.07804 
L 8.303022 46.896 
L 8.66631 47.10756 
L 9.029599 47.16168 
L 9.392888 45.87264 
L 9.756177 45.63156 
L 10.119466 45.80376 
L 10.846043 45.43968 
L 11.209332 45.63156 
L 11.93591 45.61188 
L 12.299199 45.63156 
L 12.662487 45.31176 
L 13.389065 45.3462 
L 13.752354 45.52824 
L 14.478931 45.47412 
L 14.84222 45.51348 
L 15.205509 42.77796 
L 15.568798 41.75952 
L 15.932087 40.04244 
L 16.295375 40.58364 
L 16.658664 40.69188 
L 17.021953 39.38808 
L 17.748531 40.33764 
L 18.111819 40.32288 
L 18.475108 40.81488 
L 18.838397 40.88376 
L 19.201686 40.44588 
L 19.564975 40.46556 
L 19.928264 40.21956 
L 20.291552 39.52584 
L 20.654841 40.49508 
L 21.744708 40.19496 
L 22.107996 39.4914 
L 22.471285 39.38808 
L 22.834574 39.69312 
L 23.197863 40.46556 
L 23.92444 40.36716 
L 24.287729 39.8604 
L 24.651018 39.96372 
L 25.014307 39.85548 
L 25.377596 41.1888 
L 26.104173 40.4508 
L 26.467462 40.5738 
L 27.19404 38.45328 
L 27.557329 38.68452 
L 27.920617 39.55536 
L 28.283906 40.09164 
L 28.647195 40.39668 
L 29.373773 40.2048 
L 29.737061 40.52952 
L 30.463639 40.48032 
L 31.190217 42.26136 
L 31.553505 42.5664 
L 31.916794 41.17404 
L 32.280083 41.0166 
L 32.643372 41.22324 
L 33.369949 41.17896 
L 33.733238 41.08056 
L 34.096527 40.61808 
L 34.459816 40.7214 
L 34.823105 41.30688 
L 35.186393 40.11132 
L 35.549682 39.99816 
L 35.912971 40.56888 
L 36.27626 40.51476 
L 36.639549 40.131 
L 37.002838 40.3278 
L 37.366126 39.81612 
L 38.092704 37.46436 
L 38.455993 37.39056 
L 38.819282 37.50372 
L 39.545859 37.01172 
L 39.909148 36.16056 
L 40.272437 34.4976 
L 40.635726 33.69072 
L 41.362303 32.89368 
L 41.725592 31.73256 
L 42.088881 31.68336 
L 42.45217 31.8162 
L 42.815458 32.64276 
L 43.178747 32.0868 
L 43.905325 31.85064 
L 44.268614 30.98964 
L 44.631903 31.53576 
L 44.995191 31.521 
L 45.35848 31.38816 
L 45.721769 32.17044 
L 46.085058 33.68088 
L 46.448347 34.28604 
L 46.811635 33.58248 
L 47.174924 32.0376 
L 47.538213 32.76576 
L 47.901502 32.259 
L 48.264791 30.65508 
L 48.628079 29.93676 
L 48.991368 28.14588 
L 49.717946 28.40664 
L 50.081235 25.73508 
L 50.444523 24.62316 
L 50.807812 26.10408 
L 51.171101 26.97984 
L 51.53439 27.00936 
L 51.897679 26.58132 
L 52.260967 27.7818 
L 52.624256 29.49888 
L 52.987545 27.68832 
L 53.350834 28.44108 
L 53.714123 24.16068 
L 54.077412 24.55428 
L 54.4407 24.51984 
L 54.803989 27.32916 
L 55.167278 25.7646 
L 55.530567 26.48784 
L 55.893856 26.43372 
L 56.257144 27.44724 
L 56.983722 27.27504 
L 57.347011 27.8802 
L 57.7103 27.72276 
L 58.073588 26.84208 
L 58.436877 27.91956 
L 58.800166 27.8556 
L 59.163455 28.09668 
L 59.526744 27.87528 
L 60.253321 27.83592 
L 60.61661 27.57024 
L 60.979899 26.77812 
L 61.343188 25.01184 
L 62.069765 25.71048 
L 62.433054 26.31564 
L 62.796343 26.45832 
L 63.159632 25.8384 
L 63.522921 25.84824 
L 63.886209 26.6994 
L 64.249498 26.62068 
L 64.612787 26.8224 
L 64.976076 28.61328 
L 65.702653 28.97244 
L 66.065942 30.99456 
L 66.429231 29.76456 
L 66.79252 29.8974 
L 67.155809 29.02164 
L 67.519097 28.50012 
L 67.882386 29.00688 
L 68.608964 26.601 
L 68.972253 26.3796 
L 69.335541 26.5764 
L 69.69883 26.3796 
L 70.062119 25.1496 
L 70.425408 26.81256 
L 70.788697 26.29596 
L 71.151986 27.41772 
L 71.515274 31.19136 
L 71.878563 31.80144 
L 72.241852 28.89864 
L 72.605141 28.28364 
L 73.695007 30.80268 
L 74.058296 31.22088 
L 74.421585 30.8076 
L 74.784874 30.13356 
L 75.148162 30.17784 
L 75.87474 31.42752 
L 76.238029 31.04376 
L 76.601318 30.49764 
L 76.964606 30.3648 
L 77.327895 28.88388 
L 77.691184 29.15448 
L 78.054473 30.15324 
L 78.781051 31.4226 
L 79.507628 30.9306 
L 79.870917 30.66 
L 80.597495 34.99944 
L 80.960783 34.07448 
L 81.324072 34.9158 
L 81.687361 34.02528 
L 82.05065 34.26144 
L 82.413939 33.0216 
L 82.777227 33.10524 
L 83.140516 34.1532 
L 83.503805 34.2024 
L 84.230383 36.34752 
L 84.593671 35.89488 
L 85.320249 36.94776 
L 85.683538 36.2688 
L 86.046827 36.97236 
L 86.410115 38.286 
L 86.773404 38.76324 
L 87.136693 38.73864 
L 87.499982 38.51724 
L 87.863271 37.42992 
L 88.22656 37.42008 
L 88.589848 36.90348 
L 88.953137 36.98712 
L 89.316426 36.86412 
L 89.679715 37.16424 
L 90.043004 37.14948 
L 90.406292 38.52216 
L 91.13287 35.71776 
L 91.496159 36.15564 
L 91.859448 36.93792 
L 92.586025 36.72636 
L 92.949314 36.21468 
L 93.312603 34.8174 
L 93.675892 34.7928 
L 94.03918 35.42748 
L 94.402469 36.49512 
L 94.765758 36.28356 
L 95.129047 36.6378 
L 95.492336 37.3512 
L 95.855625 37.3512 
L 96.218913 38.31552 
L 96.582202 38.32536 
L 96.945491 37.26264 
L 97.30878 37.26264 
L 97.672069 37.09044 
L 98.035357 37.06092 
L 98.398646 37.34628 
L 98.761935 37.48404 
L 99.125224 37.77924 
L 99.851801 37.45944 
L 100.578379 37.56276 
L 100.941668 37.31184 
L 101.304957 37.33644 
L 101.668245 37.09536 
L 102.031534 36.23928 
L 102.758112 36.11628 
L 103.484689 35.0142 
L 103.847978 35.93424 
L 104.211267 36.36228 
L 104.574556 36.50988 
L 104.937845 36.5148 
L 105.301134 36.25404 
L 105.664422 36.46068 
L 106.027711 34.83708 
L 106.391 34.57632 
L 107.117578 35.00436 
L 107.480866 34.93056 
L 107.844155 35.088 
L 108.207444 35.78664 
L 108.570733 37.55292 
L 108.934022 37.26756 
L 109.29731 37.46436 
L 110.023888 37.45944 
L 110.387177 38.41392 
L 111.113754 36.95268 
L 111.477043 37.05108 
L 111.840332 38.37948 
L 112.203621 39.20604 
L 112.56691 41.03136 
L 112.930199 42.26628 
L 113.293487 41.73492 
L 113.600185 42.23676 
L 114.25199 44.89356 
L 114.613723 43.6242 
L 115.345607 43.53072 
L 115.710968 43.72752 
L 116.435486 44.436 
L 116.798665 44.49012 
L 117.157585 43.81608 
L 117.501705 43.7226 
L 117.888296 44.5344 
L 118.205951 44.19 
L 118.614298 44.21952 
L 119.33831 44.51472 
L 120.066818 44.3868 
L 120.4312 45.174 
L 120.763798 45.23796 
L 121.15647 44.81484 
L 121.51814 43.821 
L 121.880739 44.01288 
L 122.239748 44.66232 
L 122.61129 43.93908 
L 122.970828 44.39664 
L 123.334962 44.12112 
L 123.696216 44.33268 
L 124.060287 43.3044 
L 124.423403 43.6242 
L 124.783904 44.29824 
L 125.150721 44.53932 
L 125.515099 44.30808 
L 125.876054 43.8702 
L 126.2392 44.00304 
L 126.603918 43.97844 
L 126.966505 43.41756 
L 127.699549 43.48644 
L 128.420795 41.73984 
L 128.786855 41.7546 
L 129.509998 43.14204 
L 129.871159 43.083 
L 130.23988 43.35852 
L 130.604022 43.78164 
L 130.963947 43.21584 
L 131.354294 42.9354 
L 131.694944 43.10268 
L 132.418507 44.25396 
L 133.512069 43.74228 
L 133.878474 43.46676 
L 134.600683 43.79148 
L 135.329619 43.77672 
L 135.693846 43.2552 
L 136.054776 43.40772 
L 136.418653 42.49752 
L 136.780676 42.90588 
L 137.147308 42.8616 
L 137.505042 42.41388 
L 138.24 42.79764 
L 138.24 42.79764 
" clip-path="url(#p5c4d5c7eb2)" style="fill: none; stroke: #4a8dff; stroke-width: 0.6; stroke-linecap: round"/>
   </g>
   <g id="line2d_7">
    <path d="M 5.76 43.41756 
L 6.123289 44.25888 
L 6.486578 43.80624 
L 6.849866 44.23428 
L 7.213155 44.01288 
L 7.576444 43.60452 
L 7.939733 43.85052 
L 8.303022 43.50612 
L 8.66631 43.53072 
L 9.029599 42.35976 
L 9.392888 39.33396 
L 9.756177 39.3192 
L 10.119466 39.18636 
L 10.482755 38.74356 
L 10.846043 38.80752 
L 11.209332 39.2208 
L 11.572621 38.61564 
L 11.93591 38.9994 
L 12.299199 39.00924 
L 12.662487 37.92684 
L 13.025776 37.71528 
L 13.389065 38.17284 
L 13.752354 38.96496 
L 14.115643 38.74848 
L 14.478931 37.71528 
L 14.84222 37.63164 
L 15.205509 34.64028 
L 15.568798 34.69932 
L 15.932087 33.87276 
L 16.295375 34.18764 
L 16.658664 34.73868 
L 17.021953 34.09416 
L 17.385242 34.38444 
L 17.748531 34.33032 
L 18.475108 34.57632 
L 18.838397 33.18396 
L 19.201686 33.38076 
L 19.564975 32.81004 
L 19.928264 31.38816 
L 20.291552 30.45336 
L 20.654841 32.59848 
L 21.01813 32.29344 
L 21.381419 31.78176 
L 21.744708 31.53084 
L 22.107996 31.68336 
L 22.471285 32.28852 
L 23.197863 34.1778 
L 23.561152 33.84324 
L 23.92444 33.3414 
L 24.287729 33.25284 
L 25.014307 33.7842 
L 25.377596 35.34384 
L 25.740884 33.981 
L 26.104173 33.35616 
L 26.467462 33.35124 
L 26.830751 31.09296 
L 27.19404 31.11756 
L 27.557329 31.87524 
L 27.920617 33.20856 
L 28.283906 33.17412 
L 28.647195 33.45456 
L 29.010484 33.4152 
L 29.373773 32.7264 
L 29.737061 33.84816 
L 30.463639 33.84324 
L 31.553505 35.73744 
L 31.916794 33.4398 
L 32.280083 33.20856 
L 32.643372 32.58372 
L 33.006661 32.71164 
L 33.733238 32.53944 
L 34.096527 32.013 
L 34.823105 33.3906 
L 35.186393 31.80144 
L 35.549682 31.41768 
L 35.912971 32.19012 
L 36.27626 32.10156 
L 36.639549 31.60956 
L 37.002838 32.0622 
L 37.366126 31.73748 
L 37.729415 30.56652 
L 38.092704 28.31808 
L 38.455993 27.48168 
L 38.819282 27.55548 
L 39.18257 26.71908 
L 39.545859 26.36484 
L 39.909148 27.42756 
L 40.635726 26.55672 
L 40.999014 27.27504 
L 41.362303 27.31932 
L 41.725592 27.63912 
L 42.088881 27.52596 
L 42.45217 26.3058 
L 42.815458 26.96016 
L 43.178747 27.09792 
L 43.542036 27.49644 
L 43.905325 27.2898 
L 44.268614 26.57148 
L 44.631903 27.27012 
L 45.35848 27.35376 
L 46.085058 29.62188 
L 46.448347 29.96136 
L 46.811635 29.14956 
L 47.174924 28.68216 
L 47.538213 29.184 
L 47.901502 28.7412 
L 48.264791 27.5358 
L 48.628079 27.91956 
L 48.991368 28.00812 
L 49.354657 26.64528 
L 49.717946 26.88636 
L 50.081235 26.1828 
L 50.444523 24.52476 
L 50.807812 27.0684 
L 51.171101 27.59484 
L 51.897679 27.49644 
L 52.260967 28.13112 
L 52.624256 29.8482 
L 52.987545 29.12004 
L 53.350834 30.03024 
L 53.714123 27.84576 
L 54.4407 29.54316 
L 54.803989 31.13232 
L 55.167278 30.31068 
L 55.530567 30.62064 
L 55.893856 29.97612 
L 56.257144 31.97364 
L 56.620433 31.82112 
L 56.983722 32.0868 
L 57.347011 31.63416 
L 57.7103 30.6354 
L 58.073588 30.37464 
L 58.436877 30.86172 
L 58.800166 30.89616 
L 59.163455 31.11756 
L 59.890032 30.22212 
L 60.253321 30.45828 
L 60.61661 29.2578 
L 60.979899 28.50504 
L 61.343188 28.18032 
L 61.706477 28.2738 
L 62.069765 28.569 
L 62.433054 28.55424 
L 62.796343 27.8802 
L 63.159632 28.03272 
L 63.522921 27.69324 
L 63.886209 28.42632 
L 64.249498 28.3968 
L 64.612787 28.60344 
L 64.976076 29.88756 
L 65.339365 30.22212 
L 65.702653 29.58252 
L 66.065942 31.73256 
L 66.429231 31.36356 
L 66.79252 31.39308 
L 67.519097 29.09544 
L 67.882386 29.2332 
L 68.245675 27.02412 
L 68.972253 25.16928 
L 69.335541 25.10532 
L 70.062119 23.92452 
L 70.425408 25.53336 
L 70.788697 24.62808 
L 71.151986 25.4448 
L 71.515274 29.64156 
L 71.878563 30.80268 
L 72.241852 28.65756 
L 72.605141 28.6428 
L 73.331718 30.87156 
L 73.695007 32.17044 
L 74.058296 32.97732 
L 74.421585 32.628 
L 74.784874 31.90476 
L 75.148162 30.92076 
L 75.511451 31.96872 
L 75.87474 32.39676 
L 76.238029 31.19628 
L 76.964606 30.42384 
L 77.327895 29.0118 
L 77.691184 29.15448 
L 78.054473 29.76456 
L 78.417762 31.2012 
L 78.781051 32.09172 
L 79.144339 31.43244 
L 79.870917 30.90108 
L 80.597495 35.35368 
L 80.960783 34.24668 
L 81.324072 35.5062 
L 81.687361 34.48284 
L 82.05065 35.02896 
L 82.413939 33.8334 
L 82.777227 33.243 
L 83.140516 34.69932 
L 83.867094 36.2934 
L 84.230383 38.901 
L 84.593671 38.37948 
L 84.95696 38.92068 
L 85.320249 40.09164 
L 85.683538 39.70788 
L 86.046827 40.4262 
L 86.410115 42.75336 
L 86.773404 43.54548 
L 87.136693 43.72752 
L 87.863271 41.976 
L 88.22656 42.42864 
L 88.589848 40.86408 
L 88.953137 40.47048 
L 90.043004 40.89852 
L 90.406292 42.9354 
L 90.769581 40.43604 
L 91.13287 39.31428 
L 91.496159 40.04244 
L 91.859448 41.43972 
L 92.222736 41.47416 
L 92.586025 41.02152 
L 92.949314 40.7952 
L 93.312603 39.75708 
L 93.675892 40.11132 
L 94.03918 39.87024 
L 94.402469 40.94772 
L 94.765758 40.97232 
L 95.492336 42.87144 
L 95.855625 42.17772 
L 96.218913 43.04364 
L 96.582202 43.34868 
L 96.945491 42.03504 
L 97.672069 41.8038 
L 98.035357 41.84316 
L 98.398646 42.37944 
L 98.761935 42.26628 
L 99.125224 42.468 
L 99.488513 42.42864 
L 99.851801 42.18264 
L 100.21509 42.1728 
L 100.578379 42.50244 
L 100.941668 41.88252 
L 101.304957 42.32532 
L 102.031534 41.13468 
L 102.758112 40.42128 
L 103.121401 39.16176 
L 103.484689 39.28968 
L 103.847978 40.48032 
L 104.937845 40.88376 
L 105.664422 40.53936 
L 106.027711 38.50248 
L 106.391 37.63656 
L 106.754289 38.34012 
L 107.117578 38.37456 
L 107.480866 38.5812 
L 108.207444 39.8358 
L 108.570733 41.93172 
L 108.934022 41.42004 
L 109.660599 41.39052 
L 110.023888 41.5086 
L 110.387177 42.80256 
L 110.750466 41.93664 
L 111.113754 41.49384 
L 111.477043 41.51352 
L 111.840332 43.78164 
L 112.203621 43.9932 
L 112.56691 46.66968 
L 112.930199 47.55036 
L 113.293487 46.64508 
L 113.888886 48.89352 
L 114.25199 49.84308 
L 114.613723 49.00176 
L 114.985316 49.233 
L 115.345607 48.97716 
L 116.073504 49.36092 
L 116.798665 49.58724 
L 117.157585 49.28712 
L 117.501705 49.16904 
L 117.888296 49.39044 
L 118.205951 49.29696 
L 118.977145 49.55772 
L 120.066818 49.41996 
L 120.4312 49.8234 
L 120.763798 49.86768 
L 121.15647 49.72992 
L 121.51814 49.39536 
L 122.239748 49.6758 
L 122.61129 49.47408 
L 122.970828 49.60692 
L 123.334962 49.37568 
L 123.696216 49.36584 
L 124.060287 48.6672 
L 125.150721 49.54788 
L 125.515099 49.5282 
L 125.876054 49.09032 
L 126.603918 49.2084 
L 126.966505 48.93288 
L 127.699549 48.89844 
L 128.420795 48.1998 
L 128.786855 48.28344 
L 129.150245 48.88368 
L 129.509998 49.04604 
L 129.871159 49.00176 
L 130.604022 49.38552 
L 130.963947 49.04112 
L 131.354294 48.92796 
L 131.694944 48.987 
L 132.418507 49.66104 
L 133.878474 49.40028 
L 134.236978 49.56756 
L 134.96086 49.56264 
L 135.329619 49.53312 
L 135.693846 49.25268 
L 136.054776 49.29696 
L 136.418653 48.89352 
L 136.780676 48.96732 
L 137.505042 48.5934 
L 137.874848 48.84432 
L 138.24 48.95748 
L 138.24 48.95748 
" clip-path="url(#p5c4d5c7eb2)" style="fill: none; stroke: #f5841e; stroke-width: 0.7; stroke-linecap: round"/>
   </g>
  </g>
 </g>
 <defs>
  <clipPath id="p5c4d5c7eb2">
   <rect x="5.76" y="3.6" width="132.48" height="49.2"/>
  </clipPath>
 </defs>
</svg>
