<?xml version="1.0" encoding="utf-8" standalone="no"?>
<!DOCTYPE svg PUBLIC "-//W3C//DTD SVG 1.1//EN"
  "http://www.w3.org/Graphics/SVG/1.1/DTD/svg11.dtd">
<svg xmlns:xlink="http://www.w3.org/1999/xlink" width="144pt" height="60pt" viewBox="0 0 144 60" xmlns="http://www.w3.org/2000/svg" version="1.1">
  <desc id="nav-meta">{"window":"3m","count":4,"labels":["18.11","18.12","17.01","16.02"],"tick_utc":["2025-11-18T12:00:00Z","2025-12-18T12:00:00Z","2026-01-17T12:00:00Z","2026-02-16T03:32:51Z"]}</desc>

 <metadata>
  <rdf:RDF xmlns:dc="http://purl.org/dc/elements/1.1/" xmlns:cc="http://creativecommons.org/ns#" xmlns:rdf="http://www.w3.org/1999/02/22-rdf-syntax-ns#">
   <cc:Work>
    <dc:type rdf:resource="http://purl.org/dc/dcmitype/StillImage"/>
    <dc:date>2026-02-16T03:32:52.877616</dc:date>
    <dc:format>image/svg+xml</dc:format>
    <dc:creator>
     <cc:Agent>
      <dc:title>Matplotlib v3.10.8, https://matplotlib.org/</dc:title>
     </cc:Agent>
    </dc:creator>
   </cc:Work>
  </rdf:RDF>
 </metadata>
 <defs>
  <style type="text/css">*{stroke-linejoin: round; stroke-linecap: butt}</style>
 </defs>
 <g id="figure_1">
  <g id="patch_1">
   <path d="M 0 60 
L 144 60 
L 144 0 
L 0 0 
L 0 60 
z
" style="fill: none; opacity: 0"/>
  </g>
  <g id="axes_1">
   <g id="patch_2">
    <path d="M 5.76 52.8 
L 138.24 52.8 
L 138.24 3.6 
L 5.76 3.6 
L 5.76 52.8 
z
" style="fill: none"/>
   </g>
   <g id="matplotlib.axis_1"/>
   <g id="matplotlib.axis_2"/>
   <g id="line2d_1">
    <path d="M 5.76 42.96 
L 138.24 42.96 
" clip-path="url(#pcc7e78c945)" style="fill: none; stroke: #b2b2b2; stroke-opacity: 0.35; stroke-width: 0.5; stroke-linecap: square"/>
   </g>
   <g id="line2d_2">
    <path d="M 5.76 33.12 
L 138.24 33.12 
" clip-path="url(#pcc7e78c945)" style="fill: none; stroke: #b2b2b2; stroke-opacity: 0.35; stroke-width: 0.5; stroke-linecap: square"/>
   </g>
   <g id="line2d_3">
    <path d="M 5.76 23.28 
L 138.24 23.28 
" clip-path="url(#pcc7e78c945)" style="fill: none; stroke: #b2b2b2; stroke-opacity: 0.35; stroke-width: 0.5; stroke-linecap: square"/>
   </g>
   <g id="line2d_4">
    <path d="M 5.76 13.44 
L 138.24 13.44 
" clip-path="url(#pcc7e78c945)" style="fill: none; stroke: #b2b2b2; stroke-opacity: 0.35; stroke-width: 0.5; stroke-linecap: square"/>
   </g>
   <g id="line2d_5">
    <path d="M 5.76 44.59836 
L 7.237783 43.30932 
L 8.715566 43.85052 
L 10.193349 44.21952 
L 11.671131 44.88372 
L 13.148914 44.99688 
L 14.626697 44.57868 
L 16.10448 43.5996 
L 17.582263 43.51596 
L 19.060046 43.00428 
L 20.537829 43.2798 
L 22.015611 43.71768 
L 23.493394 43.8948 
L 24.971177 44.0916 
L 26.44896 45.11004 
L 27.926743 43.55532 
L 29.404526 42.72876 
L 30.882308 43.51596 
L 32.360091 44.27364 
L 33.837874 44.40156 
L 35.315657 44.47536 
L 36.79344 44.25888 
L 38.271223 43.64388 
L 39.749006 43.84068 
L 41.226788 43.85052 
L 42.704571 44.36712 
L 44.182354 44.26872 
L 45.660137 44.74104 
L 47.13792 44.98704 
L 48.615703 44.84436 
L 50.093486 45.58728 
L 51.571268 46.0596 
L 53.049051 45.18384 
L 54.526834 45.23796 
L 56.004617 45.20844 
L 57.4824 45.24288 
L 58.960183 45.47904 
L 60.437966 45.65616 
L 61.915748 45.98088 
L 63.393531 45.70536 
L 64.871314 45.38556 
L 66.349097 45.31668 
L 67.82688 45.58728 
L 69.304663 45.35604 
L 70.782445 45.40032 
L 72.260228 45.11496 
L 73.738011 44.42124 
L 75.215794 44.25888 
L 76.693577 44.18508 
L 78.17136 43.62912 
L 79.649143 43.24044 
L 81.126925 43.8702 
L 82.604708 43.60944 
L 84.082491 43.92924 
L 85.560274 43.93416 
L 87.038057 43.46184 
L 88.51584 43.5012 
L 89.993623 42.72384 
L 91.471405 42.51228 
L 92.949188 43.08792 
L 94.426971 42.75828 
L 95.904754 42.90096 
L 97.382537 43.57008 
L 98.86032 44.2392 
L 100.338103 45.23304 
L 101.815885 44.77548 
L 103.293668 44.91816 
L 104.771451 45.04608 
L 106.249234 45.07068 
L 107.727017 46.1334 
L 109.2048 45.4446 
L 110.682582 45.06084 
L 112.160365 45.33144 
L 113.638148 46.30068 
L 115.115931 46.34496 
L 116.593714 47.89476 
L 118.071497 48.26376 
L 119.54928 47.96364 
L 120.79686 48.55896 
L 121.971236 49.06572 
L 123.448266 50.04972 
L 124.91972 49.24776 
L 126.431284 49.32156 
L 127.896871 49.31172 
L 129.383086 49.43964 
L 130.857808 49.59708 
L 132.330271 49.80372 
L 133.807609 49.86768 
L 135.267621 49.479 
L 136.667427 49.24776 
L 138.24 49.48392 
" clip-path="url(#pcc7e78c945)" style="fill: none; stroke: #bebebe; stroke-width: 0.6; stroke-linecap: round"/>
   </g>
   <g id="line2d_6">
    <path d="M 5.76 36.94776 
L 7.237783 36.2688 
L 8.715566 36.97236 
L 10.193349 38.286 
L 11.671131 38.76324 
L 13.148914 38.73864 
L 14.626697 38.51724 
L 16.10448 37.42992 
L 17.582263 37.42008 
L 19.060046 36.90348 
L 20.537829 36.98712 
L 22.015611 36.86412 
L 23.493394 37.16424 
L 24.971177 37.14948 
L 26.44896 38.52216 
L 27.926743 37.1298 
L 29.404526 35.71776 
L 30.882308 36.15564 
L 32.360091 36.93792 
L 33.837874 36.81984 
L 35.315657 36.72636 
L 36.79344 36.21468 
L 38.271223 34.8174 
L 39.749006 34.7928 
L 41.226788 35.42748 
L 42.704571 36.49512 
L 44.182354 36.28356 
L 45.660137 36.6378 
L 47.13792 37.3512 
L 48.615703 37.3512 
L 50.093486 38.31552 
L 51.571268 38.32536 
L 53.049051 37.26264 
L 54.526834 37.26264 
L 56.004617 37.09044 
L 57.4824 37.06092 
L 58.960183 37.34628 
L 60.437966 37.48404 
L 61.915748 37.77924 
L 63.393531 37.61688 
L 64.871314 37.45944 
L 66.349097 37.46928 
L 67.82688 37.56276 
L 69.304663 37.31184 
L 70.782445 37.33644 
L 72.260228 37.09536 
L 73.738011 36.23928 
L 75.215794 36.20976 
L 76.693577 36.11628 
L 78.17136 35.48652 
L 79.649143 35.0142 
L 81.126925 35.93424 
L 82.604708 36.36228 
L 84.082491 36.50988 
L 85.560274 36.5148 
L 87.038057 36.25404 
L 88.51584 36.46068 
L 89.993623 34.83708 
L 91.471405 34.57632 
L 92.949188 34.84692 
L 94.426971 35.00436 
L 95.904754 34.93056 
L 97.382537 35.088 
L 98.86032 35.78664 
L 100.338103 37.55292 
L 101.815885 37.26756 
L 103.293668 37.46436 
L 104.771451 37.44468 
L 106.249234 37.45944 
L 107.727017 38.41392 
L 109.2048 37.61196 
L 110.682582 36.95268 
L 112.160365 37.05108 
L 113.638148 38.37948 
L 115.115931 39.20604 
L 116.593714 41.03136 
L 118.071497 42.26628 
L 119.54928 41.73492 
L 120.79686 42.23676 
L 121.971236 43.38804 
L 123.448266 44.89356 
L 124.91972 43.6242 
L 126.431284 43.575 
L 127.896871 43.53072 
L 129.383086 43.72752 
L 130.857808 44.0916 
L 132.330271 44.436 
L 133.807609 44.49012 
L 135.267621 43.81608 
L 136.667427 43.7226 
L 138.24 44.5344 
" clip-path="url(#pcc7e78c945)" style="fill: none; stroke: #4a8dff; stroke-width: 0.6; stroke-linecap: round"/>
   </g>
   <g id="line2d_7">
    <path d="M 5.76 40.09164 
L 7.237783 39.70788 
L 8.715566 40.4262 
L 10.193349 42.75336 
L 11.671131 43.54548 
L 13.148914 43.72752 
L 14.626697 42.6894 
L 16.10448 41.976 
L 17.582263 42.42864 
L 19.060046 40.86408 
L 20.537829 40.47048 
L 22.015611 40.63284 
L 23.493394 40.68204 
L 24.971177 40.89852 
L 26.44896 42.9354 
L 27.926743 40.43604 
L 29.404526 39.31428 
L 30.882308 40.04244 
L 32.360091 41.43972 
L 33.837874 41.47416 
L 35.315657 41.02152 
L 36.79344 40.7952 
L 38.271223 39.75708 
L 39.749006 40.11132 
L 41.226788 39.87024 
L 42.704571 40.94772 
L 44.182354 40.97232 
L 45.660137 41.976 
L 47.13792 42.87144 
L 48.615703 42.17772 
L 50.093486 43.04364 
L 51.571268 43.34868 
L 53.049051 42.03504 
L 54.526834 41.91696 
L 56.004617 41.8038 
L 57.4824 41.84316 
L 58.960183 42.37944 
L 60.437966 42.26628 
L 61.915748 42.468 
L 63.393531 42.42864 
L 64.871314 42.18264 
L 66.349097 42.1728 
L 67.82688 42.50244 
L 69.304663 41.88252 
L 70.782445 42.32532 
L 72.260228 41.73 
L 73.738011 41.13468 
L 75.215794 40.80504 
L 76.693577 40.42128 
L 78.17136 39.16176 
L 79.649143 39.28968 
L 81.126925 40.48032 
L 82.604708 40.61316 
L 84.082491 40.84932 
L 85.560274 40.88376 
L 87.038057 40.6968 
L 88.51584 40.53936 
L 89.993623 38.50248 
L 91.471405 37.63656 
L 92.949188 38.34012 
L 94.426971 38.37456 
L 95.904754 38.5812 
L 97.382537 39.2454 
L 98.86032 39.8358 
L 100.338103 41.93172 
L 101.815885 41.42004 
L 103.293668 41.37576 
L 104.771451 41.39052 
L 106.249234 41.5086 
L 107.727017 42.80256 
L 109.2048 41.93664 
L 110.682582 41.49384 
L 112.160365 41.51352 
L 113.638148 43.78164 
L 115.115931 43.9932 
L 116.593714 46.66968 
L 118.071497 47.55036 
L 119.54928 46.64508 
L 120.79686 47.89476 
L 121.971236 48.89352 
L 123.448266 49.84308 
L 124.91972 49.00176 
L 126.431284 49.233 
L 127.896871 48.97716 
L 129.383086 49.22316 
L 130.857808 49.36092 
L 132.330271 49.49868 
L 133.807609 49.58724 
L 135.267621 49.28712 
L 136.667427 49.16904 
L 138.24 49.39044 
" clip-path="url(#pcc7e78c945)" style="fill: none; stroke: #f5841e; stroke-width: 0.7; stroke-linecap: round"/>
   </g>
  </g>
 </g>
 <defs>
  <clipPath id="pcc7e78c945">
   <rect x="5.76" y="3.6" width="132.48" height="49.2"/>
  </clipPath>
 </defs>
</svg>
