<?xml version="1.0" encoding="utf-8" standalone="no"?>
<!DOCTYPE svg PUBLIC "-//W3C//DTD SVG 1.1//EN"
  "http://www.w3.org/Graphics/SVG/1.1/DTD/svg11.dtd">
<svg xmlns:xlink="http://www.w3.org/1999/xlink" width="144pt" height="60pt" viewBox="0 0 144 60" xmlns="http://www.w3.org/2000/svg" version="1.1">
  <desc id="nav-meta">{"window":"3m","count":4,"labels":["01.01","31.01","02.03","01.04"],"tick_utc":["2026-01-01T12:00:00Z","2026-01-31T12:00:00Z","2026-03-02T03:18:56Z","2026-04-01T03:54:32Z"]}</desc>

 <metadata>
  <rdf:RDF xmlns:dc="http://purl.org/dc/elements/1.1/" xmlns:cc="http://creativecommons.org/ns#" xmlns:rdf="http://www.w3.org/1999/02/22-rdf-syntax-ns#">
   <cc:Work>
    <dc:type rdf:resource="http://purl.org/dc/dcmitype/StillImage"/>
    <dc:date>2026-04-01T03:54:33.872356</dc:date>
    <dc:format>image/svg+xml</dc:format>
    <dc:creator>
     <cc:Agent>
      <dc:title>Matplotlib v3.10.8, https://matplotlib.org/</dc:title>
     </cc:Agent>
    </dc:creator>
   </cc:Work>
  </rdf:RDF>
 </metadata>
 <defs>
  <style type="text/css">*{stroke-linejoin: round; stroke-linecap: butt}</style>
 </defs>
 <g id="figure_1">
  <g id="patch_1">
   <path d="M 0 60 
L 144 60 
L 144 0 
L 0 0 
L 0 60 
z
" style="fill: none; opacity: 0"/>
  </g>
  <g id="axes_1">
   <g id="patch_2">
    <path d="M 5.76 52.8 
L 138.24 52.8 
L 138.24 3.6 
L 5.76 3.6 
L 5.76 52.8 
z
" style="fill: none"/>
   </g>
   <g id="matplotlib.axis_1"/>
   <g id="matplotlib.axis_2"/>
   <g id="line2d_1">
    <path d="M 5.76 42.96 
L 138.24 42.96 
" clip-path="url(#p7294860804)" style="fill: none; stroke: #b2b2b2; stroke-opacity: 0.35; stroke-width: 0.5; stroke-linecap: square"/>
   </g>
   <g id="line2d_2">
    <path d="M 5.76 33.12 
L 138.24 33.12 
" clip-path="url(#p7294860804)" style="fill: none; stroke: #b2b2b2; stroke-opacity: 0.35; stroke-width: 0.5; stroke-linecap: square"/>
   </g>
   <g id="line2d_3">
    <path d="M 5.76 23.28 
L 138.24 23.28 
" clip-path="url(#p7294860804)" style="fill: none; stroke: #b2b2b2; stroke-opacity: 0.35; stroke-width: 0.5; stroke-linecap: square"/>
   </g>
   <g id="line2d_4">
    <path d="M 5.76 13.44 
L 138.24 13.44 
" clip-path="url(#p7294860804)" style="fill: none; stroke: #b2b2b2; stroke-opacity: 0.35; stroke-width: 0.5; stroke-linecap: square"/>
   </g>
   <g id="line2d_5">
    <path d="M 5.76 45.40032 
L 7.237535 45.11496 
L 8.715069 44.42124 
L 10.192604 44.25888 
L 11.670139 44.18508 
L 13.147673 43.62912 
L 14.625208 43.24044 
L 16.102743 43.8702 
L 17.580277 43.60944 
L 19.057812 43.92924 
L 20.535347 43.93416 
L 22.012881 43.46184 
L 23.490416 43.5012 
L 24.967951 42.72384 
L 26.445485 42.51228 
L 27.92302 43.08792 
L 29.400555 42.75828 
L 30.878089 42.90096 
L 32.355624 43.57008 
L 33.833159 44.2392 
L 35.310693 45.23304 
L 36.788228 44.77548 
L 38.265763 44.91816 
L 39.743298 45.04608 
L 41.220832 45.07068 
L 42.698367 46.1334 
L 44.175902 45.4446 
L 45.653436 45.06084 
L 47.130971 45.33144 
L 48.608506 46.30068 
L 50.08604 46.34496 
L 51.563575 47.89476 
L 53.04111 48.26376 
L 54.518644 47.96364 
L 55.766015 48.55896 
L 56.940194 49.06572 
L 58.416976 50.04972 
L 59.888183 49.24776 
L 61.399492 49.32156 
L 62.864834 49.31172 
L 64.3508 49.43964 
L 65.825273 49.59708 
L 67.297489 49.80372 
L 68.774579 49.86768 
L 70.234346 49.479 
L 71.633917 49.24776 
L 73.206226 49.48392 
L 74.498162 49.37568 
L 76.158952 49.479 
L 77.634691 49.7004 
L 79.10359 49.62168 
L 80.572095 49.5282 
L 82.066509 49.49376 
L 83.54849 49.98576 
L 84.901203 49.96608 
L 86.498241 49.7004 
L 87.969191 49.27236 
L 89.443921 49.37076 
L 90.904047 49.68072 
L 92.415151 49.25268 
L 93.877432 49.51344 
L 95.358404 49.4052 
L 96.827662 49.34124 
L 98.308377 49.09032 
L 99.785211 49.24284 
L 101.251407 49.49868 
L 102.74329 49.64628 
L 104.225254 49.58724 
L 105.693297 49.36092 
L 107.17025 49.41996 
L 108.653599 49.45932 
L 110.128278 49.16904 
L 111.603846 49.22808 
L 113.109649 49.27236 
L 114.591356 48.87384 
L 116.043034 48.74592 
L 117.531839 48.70164 
L 119.009784 49.03128 
L 120.472936 49.1592 
L 121.941818 49.08048 
L 123.441447 49.21332 
L 124.922453 49.36584 
L 126.386307 49.11 
L 127.973887 48.90828 
L 129.35935 49.05096 
L 130.838748 49.37076 
L 132.302158 49.64628 
L 133.79982 49.6266 
L 135.281579 49.602 
L 136.749793 49.59708 
L 138.24 49.59708 
" clip-path="url(#p7294860804)" style="fill: none; stroke: #bebebe; stroke-width: 0.6; stroke-linecap: round"/>
   </g>
   <g id="line2d_6">
    <path d="M 5.76 37.33644 
L 7.237535 37.09536 
L 8.715069 36.23928 
L 10.192604 36.20976 
L 11.670139 36.11628 
L 13.147673 35.48652 
L 14.625208 35.0142 
L 16.102743 35.93424 
L 17.580277 36.36228 
L 19.057812 36.50988 
L 20.535347 36.5148 
L 22.012881 36.25404 
L 23.490416 36.46068 
L 24.967951 34.83708 
L 26.445485 34.57632 
L 27.92302 34.84692 
L 29.400555 35.00436 
L 30.878089 34.93056 
L 32.355624 35.088 
L 33.833159 35.78664 
L 35.310693 37.55292 
L 36.788228 37.26756 
L 38.265763 37.46436 
L 39.743298 37.44468 
L 41.220832 37.45944 
L 42.698367 38.41392 
L 44.175902 37.61196 
L 45.653436 36.95268 
L 47.130971 37.05108 
L 48.608506 38.37948 
L 50.08604 39.20604 
L 51.563575 41.03136 
L 53.04111 42.26628 
L 54.518644 41.73492 
L 55.766015 42.23676 
L 56.940194 43.38804 
L 58.416976 44.89356 
L 59.888183 43.6242 
L 61.399492 43.575 
L 62.864834 43.53072 
L 64.3508 43.72752 
L 65.825273 44.0916 
L 67.297489 44.436 
L 68.774579 44.49012 
L 70.234346 43.81608 
L 71.633917 43.7226 
L 73.206226 44.5344 
L 74.498162 44.19 
L 76.158952 44.21952 
L 77.634691 44.3868 
L 79.10359 44.51472 
L 80.572095 44.4606 
L 82.066509 44.3868 
L 83.54849 45.174 
L 84.901203 45.23796 
L 86.498241 44.81484 
L 87.969191 43.821 
L 89.443921 44.01288 
L 90.904047 44.66232 
L 92.415151 43.93908 
L 93.877432 44.39664 
L 95.358404 44.12112 
L 96.827662 44.33268 
L 98.308377 43.3044 
L 99.785211 43.6242 
L 101.251407 44.29824 
L 102.74329 44.53932 
L 104.225254 44.30808 
L 105.693297 43.8702 
L 107.17025 44.00304 
L 108.653599 43.97844 
L 110.128278 43.41756 
L 111.603846 43.48152 
L 113.109649 43.48644 
L 114.591356 42.49752 
L 116.043034 41.73984 
L 117.531839 41.7546 
L 119.009784 42.591 
L 120.472936 43.14204 
L 121.941818 43.083 
L 123.441447 43.35852 
L 124.922453 43.78164 
L 126.386307 43.21584 
L 127.973887 42.9354 
L 129.35935 43.10268 
L 130.838748 43.72752 
L 132.302158 44.25396 
L 133.79982 44.10636 
L 135.281579 43.9194 
L 136.749793 43.74228 
L 138.24 43.46676 
" clip-path="url(#p7294860804)" style="fill: none; stroke: #4a8dff; stroke-width: 0.6; stroke-linecap: round"/>
   </g>
   <g id="line2d_7">
    <path d="M 5.76 42.32532 
L 7.237535 41.73 
L 8.715069 41.13468 
L 10.192604 40.80504 
L 11.670139 40.42128 
L 13.147673 39.16176 
L 14.625208 39.28968 
L 16.102743 40.48032 
L 17.580277 40.61316 
L 19.057812 40.84932 
L 20.535347 40.88376 
L 22.012881 40.6968 
L 23.490416 40.53936 
L 24.967951 38.50248 
L 26.445485 37.63656 
L 27.92302 38.34012 
L 29.400555 38.37456 
L 30.878089 38.5812 
L 32.355624 39.2454 
L 33.833159 39.8358 
L 35.310693 41.93172 
L 36.788228 41.42004 
L 38.265763 41.37576 
L 39.743298 41.39052 
L 41.220832 41.5086 
L 42.698367 42.80256 
L 44.175902 41.93664 
L 45.653436 41.49384 
L 47.130971 41.51352 
L 48.608506 43.78164 
L 50.08604 43.9932 
L 51.563575 46.66968 
L 53.04111 47.55036 
L 54.518644 46.64508 
L 55.766015 47.89476 
L 56.940194 48.89352 
L 58.416976 49.84308 
L 59.888183 49.00176 
L 61.399492 49.233 
L 62.864834 48.97716 
L 64.3508 49.22316 
L 65.825273 49.36092 
L 67.297489 49.49868 
L 68.774579 49.58724 
L 70.234346 49.28712 
L 71.633917 49.16904 
L 73.206226 49.39044 
L 74.498162 49.29696 
L 76.158952 49.479 
L 77.634691 49.55772 
L 79.10359 49.51344 
L 80.572095 49.44948 
L 82.066509 49.41996 
L 83.54849 49.8234 
L 84.901203 49.86768 
L 86.498241 49.72992 
L 87.969191 49.39536 
L 89.443921 49.52328 
L 90.904047 49.6758 
L 92.415151 49.47408 
L 93.877432 49.60692 
L 95.358404 49.37568 
L 96.827662 49.36584 
L 98.308377 48.6672 
L 99.785211 48.95256 
L 101.251407 49.36092 
L 102.74329 49.54788 
L 104.225254 49.5282 
L 105.693297 49.09032 
L 107.17025 49.16412 
L 108.653599 49.2084 
L 110.128278 48.93288 
L 111.603846 48.95748 
L 113.109649 48.89844 
L 114.591356 48.48024 
L 116.043034 48.1998 
L 117.531839 48.28344 
L 119.009784 48.88368 
L 120.472936 49.04604 
L 121.941818 49.00176 
L 123.441447 49.20348 
L 124.922453 49.38552 
L 126.386307 49.04112 
L 127.973887 48.92796 
L 129.35935 48.987 
L 130.838748 49.29204 
L 132.302158 49.66104 
L 133.79982 49.56756 
L 135.281579 49.53312 
L 136.749793 49.46424 
L 138.24 49.40028 
" clip-path="url(#p7294860804)" style="fill: none; stroke: #f5841e; stroke-width: 0.7; stroke-linecap: round"/>
   </g>
  </g>
 </g>
 <defs>
  <clipPath id="p7294860804">
   <rect x="5.76" y="3.6" width="132.48" height="49.2"/>
  </clipPath>
 </defs>
</svg>
