<?xml version="1.0" encoding="utf-8" standalone="no"?>
<!DOCTYPE svg PUBLIC "-//W3C//DTD SVG 1.1//EN"
  "http://www.w3.org/Graphics/SVG/1.1/DTD/svg11.dtd">
<svg xmlns:xlink="http://www.w3.org/1999/xlink" width="144pt" height="60pt" viewBox="0 0 144 60" xmlns="http://www.w3.org/2000/svg" version="1.1">
  <desc id="nav-meta">{"window":"2w","count":4,"labels":["21.06","25.06","30.06","04.07"],"tick_utc":["2026-06-21T05:29:24Z","2026-06-25T04:50:14Z","2026-06-30T04:49:55Z","2026-07-04T04:23:54Z"]}</desc>

 <metadata>
  <rdf:RDF xmlns:dc="http://purl.org/dc/elements/1.1/" xmlns:cc="http://creativecommons.org/ns#" xmlns:rdf="http://www.w3.org/1999/02/22-rdf-syntax-ns#">
   <cc:Work>
    <dc:type rdf:resource="http://purl.org/dc/dcmitype/StillImage"/>
    <dc:date>2026-07-04T09:08:05.159982</dc:date>
    <dc:format>image/svg+xml</dc:format>
    <dc:creator>
     <cc:Agent>
      <dc:title>Matplotlib v3.11.0, https://matplotlib.org/</dc:title>
     </cc:Agent>
    </dc:creator>
   </cc:Work>
  </rdf:RDF>
 </metadata>
 <defs>
  <style type="text/css">*{stroke-linejoin: round; stroke-linecap: butt}</style>
 </defs>
 <g id="figure_1">
  <g id="patch_1">
   <path d="M 0 60 
L 144 60 
L 144 0 
L 0 0 
L 0 60 
z
" style="fill: none; opacity: 0"/>
  </g>
  <g id="axes_1">
   <g id="patch_2">
    <path d="M 5.76 52.8 
L 138.24 52.8 
L 138.24 3.6 
L 5.76 3.6 
L 5.76 52.8 
z
" style="fill: none"/>
   </g>
   <g id="matplotlib.axis_1"/>
   <g id="matplotlib.axis_2"/>
   <g id="line2d_1">
    <path d="M 5.76 42.96 
L 138.24 42.96 
" clip-path="url(#p931fa19332)" style="fill: none; stroke: #b2b2b2; stroke-opacity: 0.35; stroke-width: 0.5; stroke-linecap: square"/>
   </g>
   <g id="line2d_2">
    <path d="M 5.76 33.12 
L 138.24 33.12 
" clip-path="url(#p931fa19332)" style="fill: none; stroke: #b2b2b2; stroke-opacity: 0.35; stroke-width: 0.5; stroke-linecap: square"/>
   </g>
   <g id="line2d_3">
    <path d="M 5.76 23.28 
L 138.24 23.28 
" clip-path="url(#p931fa19332)" style="fill: none; stroke: #b2b2b2; stroke-opacity: 0.35; stroke-width: 0.5; stroke-linecap: square"/>
   </g>
   <g id="line2d_4">
    <path d="M 5.76 13.44 
L 138.24 13.44 
" clip-path="url(#p931fa19332)" style="fill: none; stroke: #b2b2b2; stroke-opacity: 0.35; stroke-width: 0.5; stroke-linecap: square"/>
   </g>
   <g id="line2d_5">
    <path d="M 5.76 50.27112 
L 16.285891 50.217 
L 25.901098 50.35968 
L 36.164223 50.49252 
L 46.388052 50.59092 
L 56.667038 50.59092 
L 66.768243 50.33016 
L 77.189738 50.4384 
L 87.490266 50.3892 
L 97.518559 50.22192 
L 107.894721 50.13336 
L 117.94219 49.95132 
L 128.05748 49.78896 
L 138.24 49.6266 
" clip-path="url(#p931fa19332)" style="fill: none; stroke: #bebebe; stroke-width: 0.6; stroke-linecap: round"/>
   </g>
   <g id="line2d_6">
    <path d="M 5.76 46.06452 
L 16.285891 46.035 
L 25.901098 46.14324 
L 36.164223 46.52208 
L 46.388052 46.83204 
L 56.667038 47.38308 
L 66.768243 47.14692 
L 77.189738 47.22564 
L 87.490266 47.22072 
L 97.518559 47.10264 
L 107.894721 47.0436 
L 117.94219 46.79268 
L 128.05748 46.27608 
L 138.24 45.92184 
" clip-path="url(#p931fa19332)" style="fill: none; stroke: #4a8dff; stroke-width: 0.6; stroke-linecap: round"/>
   </g>
   <g id="line2d_7">
    <path d="M 5.76 49.89228 
L 16.285891 49.89228 
L 25.901098 49.9464 
L 36.164223 50.05956 
L 46.388052 50.2416 
L 56.667038 50.35968 
L 66.768243 50.31048 
L 77.189738 50.34492 
L 87.490266 50.38428 
L 97.518559 50.39412 
L 107.894721 50.41872 
L 117.94219 50.27112 
L 128.05748 50.20224 
L 138.24 50.0694 
" clip-path="url(#p931fa19332)" style="fill: none; stroke: #f5841e; stroke-width: 0.7; stroke-linecap: round"/>
   </g>
  </g>
 </g>
 <defs>
  <clipPath id="p931fa19332">
   <rect x="5.76" y="3.6" width="132.48" height="49.2"/>
  </clipPath>
 </defs>
</svg>
