<?xml version="1.0" encoding="utf-8" standalone="no"?>
<!DOCTYPE svg PUBLIC "-//W3C//DTD SVG 1.1//EN"
  "http://www.w3.org/Graphics/SVG/1.1/DTD/svg11.dtd">
<svg xmlns:xlink="http://www.w3.org/1999/xlink" width="144pt" height="60pt" viewBox="0 0 144 60" xmlns="http://www.w3.org/2000/svg" version="1.1">
  <desc id="nav-meta">{"window":"1m","count":4,"labels":["12.04","22.04","01.05","11.05"],"tick_utc":["2026-04-12T03:55:19Z","2026-04-22T03:51:39Z","2026-05-01T04:39:16Z","2026-05-11T04:46:58Z"]}</desc>

 <metadata>
  <rdf:RDF xmlns:dc="http://purl.org/dc/elements/1.1/" xmlns:cc="http://creativecommons.org/ns#" xmlns:rdf="http://www.w3.org/1999/02/22-rdf-syntax-ns#">
   <cc:Work>
    <dc:type rdf:resource="http://purl.org/dc/dcmitype/StillImage"/>
    <dc:date>2026-05-11T10:25:19.616480</dc:date>
    <dc:format>image/svg+xml</dc:format>
    <dc:creator>
     <cc:Agent>
      <dc:title>Matplotlib v3.10.9, https://matplotlib.org/</dc:title>
     </cc:Agent>
    </dc:creator>
   </cc:Work>
  </rdf:RDF>
 </metadata>
 <defs>
  <style type="text/css">*{stroke-linejoin: round; stroke-linecap: butt}</style>
 </defs>
 <g id="figure_1">
  <g id="patch_1">
   <path d="M 0 60 
L 144 60 
L 144 0 
L 0 0 
L 0 60 
z
" style="fill: none; opacity: 0"/>
  </g>
  <g id="axes_1">
   <g id="patch_2">
    <path d="M 5.76 52.8 
L 138.24 52.8 
L 138.24 3.6 
L 5.76 3.6 
L 5.76 52.8 
z
" style="fill: none"/>
   </g>
   <g id="matplotlib.axis_1"/>
   <g id="matplotlib.axis_2"/>
   <g id="line2d_1">
    <path d="M 5.76 42.96 
L 138.24 42.96 
" clip-path="url(#pbb5816856c)" style="fill: none; stroke: #b2b2b2; stroke-opacity: 0.35; stroke-width: 0.5; stroke-linecap: square"/>
   </g>
   <g id="line2d_2">
    <path d="M 5.76 33.12 
L 138.24 33.12 
" clip-path="url(#pbb5816856c)" style="fill: none; stroke: #b2b2b2; stroke-opacity: 0.35; stroke-width: 0.5; stroke-linecap: square"/>
   </g>
   <g id="line2d_3">
    <path d="M 5.76 23.28 
L 138.24 23.28 
" clip-path="url(#pbb5816856c)" style="fill: none; stroke: #b2b2b2; stroke-opacity: 0.35; stroke-width: 0.5; stroke-linecap: square"/>
   </g>
   <g id="line2d_4">
    <path d="M 5.76 13.44 
L 138.24 13.44 
" clip-path="url(#pbb5816856c)" style="fill: none; stroke: #b2b2b2; stroke-opacity: 0.35; stroke-width: 0.5; stroke-linecap: square"/>
   </g>
   <g id="line2d_5">
    <path d="M 5.76 49.6512 
L 10.346027 49.69056 
L 14.879615 49.40028 
L 19.438762 49.58724 
L 24.021145 49.45932 
L 28.574484 49.27728 
L 33.08679 49.19856 
L 37.709677 49.43472 
L 42.28361 49.50852 
L 46.826229 49.46424 
L 51.374709 49.31664 
L 55.955824 49.4298 
L 60.53055 49.42488 
L 65.038737 49.37568 
L 69.672344 49.4052 
L 74.284142 49.29204 
L 78.856333 49.5528 
L 83.406502 49.50852 
L 87.976792 49.64136 
L 92.589276 49.56756 
L 97.035466 49.56264 
L 101.690725 49.57248 
L 106.251773 49.42488 
L 110.713912 49.49376 
L 115.356919 49.32156 
L 119.920766 49.25268 
L 124.40746 49.24284 
L 128.98678 48.80004 
L 133.641352 48.85416 
L 138.24 48.72132 
" clip-path="url(#pbb5816856c)" style="fill: none; stroke: #bebebe; stroke-width: 0.6; stroke-linecap: round"/>
   </g>
   <g id="line2d_6">
    <path d="M 5.76 42.63036 
L 10.346027 42.79764 
L 14.879615 41.57256 
L 19.438762 41.86284 
L 24.021145 41.63652 
L 28.574484 41.85792 
L 33.08679 41.22324 
L 37.709677 41.76936 
L 42.28361 42.1482 
L 46.826229 41.96616 
L 51.374709 41.59224 
L 55.955824 41.76936 
L 60.53055 41.99076 
L 65.038737 41.91696 
L 69.672344 41.98584 
L 74.284142 41.41512 
L 78.856333 42.15312 
L 83.406502 41.96124 
L 87.976792 42.43848 
L 92.589276 42.20232 
L 97.035466 42.02028 
L 101.690725 42.0252 
L 106.251773 41.40528 
L 110.713912 41.46432 
L 115.356919 41.52336 
L 119.920766 41.86776 
L 124.40746 42.1974 
L 128.98678 41.8776 
L 133.641352 41.84316 
L 138.24 41.8038 
" clip-path="url(#pbb5816856c)" style="fill: none; stroke: #4a8dff; stroke-width: 0.6; stroke-linecap: round"/>
   </g>
   <g id="line2d_7">
    <path d="M 5.76 48.84432 
L 10.346027 48.95748 
L 14.879615 48.30804 
L 19.438762 48.34248 
L 24.021145 48.21456 
L 28.574484 48.26376 
L 33.08679 47.41752 
L 37.709677 48.05712 
L 42.28361 48.26376 
L 46.826229 48.01776 
L 51.374709 47.23548 
L 55.955824 47.17644 
L 60.53055 47.15676 
L 65.038737 47.1666 
L 69.672344 47.31912 
L 74.284142 46.49256 
L 78.856333 47.64876 
L 83.406502 47.5356 
L 87.976792 48.0276 
L 92.589276 47.50608 
L 97.035466 46.81728 
L 101.690725 46.92552 
L 106.251773 45.85788 
L 110.713912 45.60204 
L 115.356919 45.29208 
L 119.920766 45.58728 
L 124.40746 46.2564 
L 128.98678 45.7152 
L 133.641352 45.63648 
L 138.24 45.6414 
" clip-path="url(#pbb5816856c)" style="fill: none; stroke: #f5841e; stroke-width: 0.7; stroke-linecap: round"/>
   </g>
  </g>
 </g>
 <defs>
  <clipPath id="pbb5816856c">
   <rect x="5.76" y="3.6" width="132.48" height="49.2"/>
  </clipPath>
 </defs>
</svg>
