<?xml version="1.0" encoding="utf-8" standalone="no"?>
<!DOCTYPE svg PUBLIC "-//W3C//DTD SVG 1.1//EN"
  "http://www.w3.org/Graphics/SVG/1.1/DTD/svg11.dtd">
<svg xmlns:xlink="http://www.w3.org/1999/xlink" width="144pt" height="60pt" viewBox="0 0 144 60" xmlns="http://www.w3.org/2000/svg" version="1.1">
  <desc id="nav-meta">{"window":"6m","count":4,"labels":["05.09","04.11","03.01","04.03"],"tick_utc":["2025-09-05T12:00:00Z","2025-11-04T12:00:00Z","2026-01-03T12:00:00Z","2026-03-04T03:14:13Z"]}</desc>

 <metadata>
  <rdf:RDF xmlns:dc="http://purl.org/dc/elements/1.1/" xmlns:cc="http://creativecommons.org/ns#" xmlns:rdf="http://www.w3.org/1999/02/22-rdf-syntax-ns#">
   <cc:Work>
    <dc:type rdf:resource="http://purl.org/dc/dcmitype/StillImage"/>
    <dc:date>2026-03-04T07:26:13.388581</dc:date>
    <dc:format>image/svg+xml</dc:format>
    <dc:creator>
     <cc:Agent>
      <dc:title>Matplotlib v3.10.8, https://matplotlib.org/</dc:title>
     </cc:Agent>
    </dc:creator>
   </cc:Work>
  </rdf:RDF>
 </metadata>
 <defs>
  <style type="text/css">*{stroke-linejoin: round; stroke-linecap: butt}</style>
 </defs>
 <g id="figure_1">
  <g id="patch_1">
   <path d="M 0 60 
L 144 60 
L 144 0 
L 0 0 
L 0 60 
z
" style="fill: none; opacity: 0"/>
  </g>
  <g id="axes_1">
   <g id="patch_2">
    <path d="M 5.76 52.8 
L 138.24 52.8 
L 138.24 3.6 
L 5.76 3.6 
L 5.76 52.8 
z
" style="fill: none"/>
   </g>
   <g id="matplotlib.axis_1"/>
   <g id="matplotlib.axis_2"/>
   <g id="line2d_1">
    <path d="M 5.76 42.96 
L 138.24 42.96 
" clip-path="url(#pc2b3fdbddf)" style="fill: none; stroke: #b2b2b2; stroke-opacity: 0.35; stroke-width: 0.5; stroke-linecap: square"/>
   </g>
   <g id="line2d_2">
    <path d="M 5.76 33.12 
L 138.24 33.12 
" clip-path="url(#pc2b3fdbddf)" style="fill: none; stroke: #b2b2b2; stroke-opacity: 0.35; stroke-width: 0.5; stroke-linecap: square"/>
   </g>
   <g id="line2d_3">
    <path d="M 5.76 23.28 
L 138.24 23.28 
" clip-path="url(#pc2b3fdbddf)" style="fill: none; stroke: #b2b2b2; stroke-opacity: 0.35; stroke-width: 0.5; stroke-linecap: square"/>
   </g>
   <g id="line2d_4">
    <path d="M 5.76 13.44 
L 138.24 13.44 
" clip-path="url(#pc2b3fdbddf)" style="fill: none; stroke: #b2b2b2; stroke-opacity: 0.35; stroke-width: 0.5; stroke-linecap: square"/>
   </g>
   <g id="line2d_5">
    <path d="M 5.76 35.22084 
L 6.497496 35.11752 
L 7.234992 35.54556 
L 8.709984 33.735 
L 9.44748 33.30204 
L 10.184976 32.44104 
L 10.922472 31.83096 
L 11.659968 30.06468 
L 12.397464 30.01056 
L 13.13496 30.291 
L 13.872456 31.16184 
L 14.609952 30.74856 
L 15.347448 29.71536 
L 16.084944 29.37588 
L 16.82244 30.57636 
L 17.559936 30.42876 
L 18.297432 30.79284 
L 19.034928 32.91828 
L 19.772424 33.72024 
L 20.50992 34.05972 
L 21.247416 36.5886 
L 21.984912 34.90104 
L 22.722408 35.10276 
L 23.459904 34.16796 
L 24.1974 33.8826 
L 24.934896 34.43364 
L 26.409888 31.05852 
L 27.147384 31.26024 
L 27.88488 31.92936 
L 28.622376 31.85064 
L 29.359872 31.3242 
L 30.097368 32.84448 
L 30.834864 31.78176 
L 31.57236 32.85924 
L 32.309856 36.8838 
L 33.047352 38.39424 
L 33.784848 35.95392 
L 34.522344 34.53696 
L 35.25984 35.20608 
L 36.734832 37.57752 
L 37.472328 37.90716 
L 38.209824 37.18884 
L 38.94732 37.18392 
L 39.684816 36.89364 
L 40.422312 37.42008 
L 41.159808 38.17284 
L 41.897304 36.687 
L 42.6348 36.42132 
L 43.372296 36.34752 
L 44.109792 35.56032 
L 44.847288 35.72268 
L 45.584784 36.29832 
L 46.32228 36.32292 
L 47.059776 37.61688 
L 47.797272 37.2282 
L 48.534768 37.34628 
L 49.272264 37.23804 
L 50.00976 40.008 
L 50.747256 41.36592 
L 51.484752 40.43604 
L 52.222248 41.44956 
L 52.959744 40.53444 
L 53.69724 41.02152 
L 54.434736 40.22448 
L 55.172232 39.79644 
L 55.909728 41.51844 
L 56.647224 41.66604 
L 57.38472 42.714 
L 58.122216 43.51596 
L 58.859712 43.43724 
L 59.597208 43.71276 
L 60.334704 44.59836 
L 61.0722 43.30932 
L 61.809696 43.85052 
L 62.547192 44.21952 
L 63.284688 44.88372 
L 64.022184 44.99688 
L 64.75968 44.57868 
L 65.497176 43.5996 
L 66.234672 43.51596 
L 66.972168 43.00428 
L 67.709664 43.2798 
L 68.44716 43.71768 
L 69.922152 44.0916 
L 70.659648 45.11004 
L 71.397144 43.55532 
L 72.13464 42.72876 
L 73.609632 44.27364 
L 75.084624 44.47536 
L 75.82212 44.25888 
L 76.559616 43.64388 
L 77.297112 43.84068 
L 78.034608 43.85052 
L 78.772104 44.36712 
L 79.5096 44.26872 
L 80.247096 44.74104 
L 80.984592 44.98704 
L 81.722088 44.84436 
L 82.459584 45.58728 
L 83.19708 46.0596 
L 83.934576 45.18384 
L 86.88456 45.47904 
L 87.622056 45.65616 
L 88.359552 45.98088 
L 89.834544 45.38556 
L 90.57204 45.31668 
L 91.309536 45.58728 
L 92.047032 45.35604 
L 92.784528 45.40032 
L 93.522024 45.11496 
L 94.25952 44.42124 
L 95.734512 44.18508 
L 96.472008 43.62912 
L 97.209504 43.24044 
L 97.947 43.8702 
L 98.684496 43.60944 
L 99.421992 43.92924 
L 100.159488 43.93416 
L 100.896984 43.46184 
L 101.63448 43.5012 
L 102.371976 42.72384 
L 103.109472 42.51228 
L 103.846968 43.08792 
L 104.584464 42.75828 
L 105.32196 42.90096 
L 106.796952 44.2392 
L 107.534448 45.23304 
L 108.271944 44.77548 
L 109.746936 45.04608 
L 110.484432 45.07068 
L 111.221928 46.1334 
L 111.959424 45.4446 
L 112.69692 45.06084 
L 113.434416 45.33144 
L 114.171912 46.30068 
L 114.909408 46.34496 
L 115.646904 47.89476 
L 116.3844 48.26376 
L 117.121896 47.96364 
L 118.330587 49.06572 
L 119.067707 50.04972 
L 119.802045 49.24776 
L 122.765482 49.59708 
L 123.500323 49.80372 
L 124.237597 49.86768 
L 124.966224 49.479 
L 125.664805 49.24776 
L 126.449607 49.48392 
L 127.094464 49.37568 
L 127.92343 49.479 
L 128.660029 49.7004 
L 130.872125 49.49376 
L 131.61184 49.98576 
L 132.287033 49.96608 
L 133.084177 49.7004 
L 133.818387 49.27236 
L 134.554483 49.37076 
L 135.28329 49.68072 
L 136.037542 49.25268 
L 136.767424 49.51344 
L 138.24 49.34124 
L 138.24 49.34124 
" clip-path="url(#pc2b3fdbddf)" style="fill: none; stroke: #bebebe; stroke-width: 0.6; stroke-linecap: round"/>
   </g>
   <g id="line2d_6">
    <path d="M 5.76 27.91956 
L 6.497496 27.8556 
L 7.234992 28.09668 
L 7.972488 27.87528 
L 9.44748 27.83592 
L 10.184976 27.57024 
L 10.922472 26.77812 
L 11.659968 25.01184 
L 13.13496 25.71048 
L 13.872456 26.31564 
L 14.609952 26.45832 
L 15.347448 25.8384 
L 16.084944 25.84824 
L 16.82244 26.6994 
L 17.559936 26.62068 
L 18.297432 26.8224 
L 19.034928 28.61328 
L 20.50992 28.97244 
L 21.247416 30.99456 
L 21.984912 29.76456 
L 22.722408 29.8974 
L 23.459904 29.02164 
L 24.1974 28.50012 
L 24.934896 29.00688 
L 25.672392 27.59484 
L 26.409888 26.601 
L 27.147384 26.3796 
L 27.88488 26.5764 
L 28.622376 26.3796 
L 29.359872 25.1496 
L 30.097368 26.81256 
L 30.834864 26.29596 
L 31.57236 27.41772 
L 32.309856 31.19136 
L 33.047352 31.80144 
L 33.784848 28.89864 
L 34.522344 28.28364 
L 35.25984 29.11512 
L 35.997336 30.1434 
L 36.734832 30.80268 
L 37.472328 31.22088 
L 38.209824 30.8076 
L 38.94732 30.13356 
L 39.684816 30.17784 
L 40.422312 30.89124 
L 41.159808 31.42752 
L 41.897304 31.04376 
L 42.6348 30.49764 
L 43.372296 30.3648 
L 44.109792 28.88388 
L 44.847288 29.15448 
L 45.584784 30.15324 
L 47.059776 31.4226 
L 47.797272 31.10772 
L 49.272264 30.66 
L 50.747256 34.99944 
L 51.484752 34.07448 
L 52.222248 34.9158 
L 52.959744 34.02528 
L 53.69724 34.26144 
L 54.434736 33.0216 
L 55.172232 33.10524 
L 55.909728 34.1532 
L 56.647224 34.2024 
L 57.38472 35.4324 
L 58.122216 36.34752 
L 58.859712 35.89488 
L 60.334704 36.94776 
L 61.0722 36.2688 
L 61.809696 36.97236 
L 62.547192 38.286 
L 63.284688 38.76324 
L 64.022184 38.73864 
L 64.75968 38.51724 
L 65.497176 37.42992 
L 66.234672 37.42008 
L 66.972168 36.90348 
L 67.709664 36.98712 
L 68.44716 36.86412 
L 69.184656 37.16424 
L 69.922152 37.14948 
L 70.659648 38.52216 
L 72.13464 35.71776 
L 72.872136 36.15564 
L 73.609632 36.93792 
L 75.084624 36.72636 
L 75.82212 36.21468 
L 76.559616 34.8174 
L 77.297112 34.7928 
L 78.034608 35.42748 
L 78.772104 36.49512 
L 79.5096 36.28356 
L 80.247096 36.6378 
L 80.984592 37.3512 
L 81.722088 37.3512 
L 82.459584 38.31552 
L 83.19708 38.32536 
L 83.934576 37.26264 
L 84.672072 37.26264 
L 85.409568 37.09044 
L 86.147064 37.06092 
L 86.88456 37.34628 
L 87.622056 37.48404 
L 88.359552 37.77924 
L 89.834544 37.45944 
L 91.309536 37.56276 
L 92.047032 37.31184 
L 92.784528 37.33644 
L 93.522024 37.09536 
L 94.25952 36.23928 
L 95.734512 36.11628 
L 96.472008 35.48652 
L 97.209504 35.0142 
L 97.947 35.93424 
L 98.684496 36.36228 
L 99.421992 36.50988 
L 100.159488 36.5148 
L 100.896984 36.25404 
L 101.63448 36.46068 
L 102.371976 34.83708 
L 103.109472 34.57632 
L 104.584464 35.00436 
L 105.32196 34.93056 
L 106.059456 35.088 
L 106.796952 35.78664 
L 107.534448 37.55292 
L 108.271944 37.26756 
L 109.00944 37.46436 
L 110.484432 37.45944 
L 111.221928 38.41392 
L 112.69692 36.95268 
L 113.434416 37.05108 
L 114.171912 38.37948 
L 114.909408 39.20604 
L 115.646904 41.03136 
L 116.3844 42.26628 
L 117.121896 41.73492 
L 117.744508 42.23676 
L 119.067707 44.89356 
L 119.802045 43.6242 
L 121.287809 43.53072 
L 122.029514 43.72752 
L 123.500323 44.436 
L 124.237597 44.49012 
L 124.966224 43.81608 
L 125.664805 43.7226 
L 126.449607 44.5344 
L 127.094464 44.19 
L 127.92343 44.21952 
L 129.393215 44.51472 
L 130.872125 44.3868 
L 131.61184 45.174 
L 132.287033 45.23796 
L 133.084177 44.81484 
L 133.818387 43.821 
L 134.554483 44.01288 
L 135.28329 44.66232 
L 136.037542 43.93908 
L 136.767424 44.39664 
L 137.506635 44.12112 
L 138.24 44.33268 
L 138.24 44.33268 
" clip-path="url(#pc2b3fdbddf)" style="fill: none; stroke: #4a8dff; stroke-width: 0.6; stroke-linecap: round"/>
   </g>
   <g id="line2d_7">
    <path d="M 5.76 30.86172 
L 6.497496 30.89616 
L 7.234992 31.11756 
L 8.709984 30.22212 
L 9.44748 30.45828 
L 10.184976 29.2578 
L 10.922472 28.50504 
L 11.659968 28.18032 
L 12.397464 28.2738 
L 13.13496 28.569 
L 13.872456 28.55424 
L 14.609952 27.8802 
L 15.347448 28.03272 
L 16.084944 27.69324 
L 16.82244 28.42632 
L 17.559936 28.3968 
L 18.297432 28.60344 
L 19.034928 29.88756 
L 19.772424 30.22212 
L 20.50992 29.58252 
L 21.247416 31.73256 
L 21.984912 31.36356 
L 22.722408 31.39308 
L 24.1974 29.09544 
L 24.934896 29.2332 
L 25.672392 27.02412 
L 26.409888 25.98108 
L 27.147384 25.16928 
L 27.88488 25.10532 
L 29.359872 23.92452 
L 30.097368 25.53336 
L 30.834864 24.62808 
L 31.57236 25.4448 
L 32.309856 29.64156 
L 33.047352 30.80268 
L 33.784848 28.65756 
L 34.522344 28.6428 
L 35.25984 29.66124 
L 36.734832 32.17044 
L 37.472328 32.97732 
L 38.209824 32.628 
L 38.94732 31.90476 
L 39.684816 30.92076 
L 40.422312 31.96872 
L 41.159808 32.39676 
L 41.897304 31.19628 
L 42.6348 30.72888 
L 43.372296 30.42384 
L 44.109792 29.0118 
L 44.847288 29.15448 
L 45.584784 29.76456 
L 46.32228 31.2012 
L 47.059776 32.09172 
L 47.797272 31.43244 
L 49.272264 30.90108 
L 50.00976 32.93796 
L 50.747256 35.35368 
L 51.484752 34.24668 
L 52.222248 35.5062 
L 52.959744 34.48284 
L 53.69724 35.02896 
L 54.434736 33.8334 
L 55.172232 33.243 
L 55.909728 34.69932 
L 56.647224 35.4078 
L 57.38472 36.2934 
L 58.122216 38.901 
L 58.859712 38.37948 
L 59.597208 38.92068 
L 60.334704 40.09164 
L 61.0722 39.70788 
L 61.809696 40.4262 
L 62.547192 42.75336 
L 63.284688 43.54548 
L 64.022184 43.72752 
L 64.75968 42.6894 
L 65.497176 41.976 
L 66.234672 42.42864 
L 66.972168 40.86408 
L 67.709664 40.47048 
L 69.922152 40.89852 
L 70.659648 42.9354 
L 71.397144 40.43604 
L 72.13464 39.31428 
L 72.872136 40.04244 
L 73.609632 41.43972 
L 74.347128 41.47416 
L 75.084624 41.02152 
L 75.82212 40.7952 
L 76.559616 39.75708 
L 77.297112 40.11132 
L 78.034608 39.87024 
L 78.772104 40.94772 
L 79.5096 40.97232 
L 80.984592 42.87144 
L 81.722088 42.17772 
L 82.459584 43.04364 
L 83.19708 43.34868 
L 83.934576 42.03504 
L 85.409568 41.8038 
L 86.147064 41.84316 
L 86.88456 42.37944 
L 87.622056 42.26628 
L 88.359552 42.468 
L 89.097048 42.42864 
L 89.834544 42.18264 
L 90.57204 42.1728 
L 91.309536 42.50244 
L 92.047032 41.88252 
L 92.784528 42.32532 
L 94.25952 41.13468 
L 95.734512 40.42128 
L 96.472008 39.16176 
L 97.209504 39.28968 
L 97.947 40.48032 
L 100.159488 40.88376 
L 101.63448 40.53936 
L 102.371976 38.50248 
L 103.109472 37.63656 
L 103.846968 38.34012 
L 104.584464 38.37456 
L 105.32196 38.5812 
L 106.796952 39.8358 
L 107.534448 41.93172 
L 108.271944 41.42004 
L 109.746936 41.39052 
L 110.484432 41.5086 
L 111.221928 42.80256 
L 111.959424 41.93664 
L 112.69692 41.49384 
L 113.434416 41.51352 
L 114.171912 43.78164 
L 114.909408 43.9932 
L 115.646904 46.66968 
L 116.3844 47.55036 
L 117.121896 46.64508 
L 118.330587 48.89352 
L 119.067707 49.84308 
L 119.802045 49.00176 
L 120.556399 49.233 
L 121.287809 48.97716 
L 122.765482 49.36092 
L 124.237597 49.58724 
L 124.966224 49.28712 
L 125.664805 49.16904 
L 126.449607 49.39044 
L 127.094464 49.29696 
L 128.660029 49.55772 
L 130.872125 49.41996 
L 131.61184 49.8234 
L 132.287033 49.86768 
L 133.084177 49.72992 
L 133.818387 49.39536 
L 135.28329 49.6758 
L 136.037542 49.47408 
L 136.767424 49.60692 
L 137.506635 49.37568 
L 138.24 49.36584 
L 138.24 49.36584 
" clip-path="url(#pc2b3fdbddf)" style="fill: none; stroke: #f5841e; stroke-width: 0.7; stroke-linecap: round"/>
   </g>
  </g>
 </g>
 <defs>
  <clipPath id="pc2b3fdbddf">
   <rect x="5.76" y="3.6" width="132.48" height="49.2"/>
  </clipPath>
 </defs>
</svg>
