<?xml version="1.0" encoding="utf-8" standalone="no"?>
<!DOCTYPE svg PUBLIC "-//W3C//DTD SVG 1.1//EN"
  "http://www.w3.org/Graphics/SVG/1.1/DTD/svg11.dtd">
<svg xmlns:xlink="http://www.w3.org/1999/xlink" width="144pt" height="60pt" viewBox="0 0 144 60" xmlns="http://www.w3.org/2000/svg" version="1.1">
  <desc id="nav-meta">{"window":"2w","count":4,"labels":["14.03","18.03","23.03","27.03"],"tick_utc":["2026-03-14T03:15:02Z","2026-03-18T03:32:26Z","2026-03-23T03:35:18Z","2026-03-27T03:41:18Z"]}</desc>

 <metadata>
  <rdf:RDF xmlns:dc="http://purl.org/dc/elements/1.1/" xmlns:cc="http://creativecommons.org/ns#" xmlns:rdf="http://www.w3.org/1999/02/22-rdf-syntax-ns#">
   <cc:Work>
    <dc:type rdf:resource="http://purl.org/dc/dcmitype/StillImage"/>
    <dc:date>2026-03-27T19:28:53.645240</dc:date>
    <dc:format>image/svg+xml</dc:format>
    <dc:creator>
     <cc:Agent>
      <dc:title>Matplotlib v3.10.8, https://matplotlib.org/</dc:title>
     </cc:Agent>
    </dc:creator>
   </cc:Work>
  </rdf:RDF>
 </metadata>
 <defs>
  <style type="text/css">*{stroke-linejoin: round; stroke-linecap: butt}</style>
 </defs>
 <g id="figure_1">
  <g id="patch_1">
   <path d="M 0 60 
L 144 60 
L 144 0 
L 0 0 
L 0 60 
z
" style="fill: none; opacity: 0"/>
  </g>
  <g id="axes_1">
   <g id="patch_2">
    <path d="M 5.76 52.8 
L 138.24 52.8 
L 138.24 3.6 
L 5.76 3.6 
L 5.76 52.8 
z
" style="fill: none"/>
   </g>
   <g id="matplotlib.axis_1"/>
   <g id="matplotlib.axis_2"/>
   <g id="line2d_1">
    <path d="M 5.76 42.96 
L 138.24 42.96 
" clip-path="url(#p02e11fb963)" style="fill: none; stroke: #b2b2b2; stroke-opacity: 0.35; stroke-width: 0.5; stroke-linecap: square"/>
   </g>
   <g id="line2d_2">
    <path d="M 5.76 33.12 
L 138.24 33.12 
" clip-path="url(#p02e11fb963)" style="fill: none; stroke: #b2b2b2; stroke-opacity: 0.35; stroke-width: 0.5; stroke-linecap: square"/>
   </g>
   <g id="line2d_3">
    <path d="M 5.76 23.28 
L 138.24 23.28 
" clip-path="url(#p02e11fb963)" style="fill: none; stroke: #b2b2b2; stroke-opacity: 0.35; stroke-width: 0.5; stroke-linecap: square"/>
   </g>
   <g id="line2d_4">
    <path d="M 5.76 13.44 
L 138.24 13.44 
" clip-path="url(#p02e11fb963)" style="fill: none; stroke: #b2b2b2; stroke-opacity: 0.35; stroke-width: 0.5; stroke-linecap: square"/>
   </g>
   <g id="line2d_5">
    <path d="M 5.76 49.22808 
L 16.131186 49.27236 
L 26.336416 48.87384 
L 36.334817 48.74592 
L 46.588927 48.70164 
L 56.768244 49.03128 
L 66.845678 49.1592 
L 76.96257 49.08048 
L 87.291237 49.21332 
L 97.491637 49.36584 
L 107.5739 49.11 
L 118.508327 48.90828 
L 128.050671 49.05096 
L 138.24 49.37076 
" clip-path="url(#p02e11fb963)" style="fill: none; stroke: #bebebe; stroke-width: 0.6; stroke-linecap: round"/>
   </g>
   <g id="line2d_6">
    <path d="M 5.76 43.48152 
L 16.131186 43.48644 
L 26.336416 42.49752 
L 36.334817 41.73984 
L 46.588927 41.7546 
L 56.768244 42.591 
L 66.845678 43.14204 
L 76.96257 43.083 
L 87.291237 43.35852 
L 97.491637 43.78164 
L 107.5739 43.21584 
L 118.508327 42.9354 
L 128.050671 43.10268 
L 138.24 43.72752 
" clip-path="url(#p02e11fb963)" style="fill: none; stroke: #4a8dff; stroke-width: 0.6; stroke-linecap: round"/>
   </g>
   <g id="line2d_7">
    <path d="M 5.76 48.95748 
L 16.131186 48.89844 
L 26.336416 48.48024 
L 36.334817 48.1998 
L 46.588927 48.28344 
L 56.768244 48.88368 
L 66.845678 49.04604 
L 76.96257 49.00176 
L 87.291237 49.20348 
L 97.491637 49.38552 
L 107.5739 49.04112 
L 118.508327 48.92796 
L 128.050671 48.987 
L 138.24 49.29204 
" clip-path="url(#p02e11fb963)" style="fill: none; stroke: #f5841e; stroke-width: 0.7; stroke-linecap: round"/>
   </g>
  </g>
 </g>
 <defs>
  <clipPath id="p02e11fb963">
   <rect x="5.76" y="3.6" width="132.48" height="49.2"/>
  </clipPath>
 </defs>
</svg>
